<svg viewBox="0 0 5.545 41.303" xmlns="http://www.w3.org/2000/svg" xmlns:xlink="http://www.w3.org/1999/xlink"><use transform="translate(.004 .004) scale(.1886)" width="29.35" height="218.95" xlink:href="#a"/><defs><g id="a"><path d="m10.55-104.7 4.15 208.25-.05.65q-.45 2.05-4.25 3.55-4.3 1.7-10.4 1.7l-3.2-.1v-210.6l3.25.15q4.4 0 7.5-1.2 2.55-1.05 3-2.4" fill="#c90" fill-rule="evenodd" transform="translate(14.65 109.5)"/><path d="m-10.55-104.75.05-1.15.35-.65q.75-.95 2.65-1.7 1.9-.8 4.3-1.05l3.25-.2q4.4 0 7.5 1.25 1.9.7 2.65 1.65l.35.6v1.3q-.45 1.35-3 2.4-3.1 1.2-7.5 1.2l-3.25-.15q-2.4-.3-4.3-1.05-2.65-1.05-3.05-2.45" fill="#e9ae01" fill-rule="evenodd" transform="translate(14.65 109.5)"/><path d="M-3.2 109.35q-4.1-.35-7.2-1.6-3-1.2-3.9-2.7l-.35-1.05 4.1-208.75q.4 1.4 3.05 2.45 1.9.75 4.3 1.05v210.6" fill="#a88c22" fill-rule="evenodd" transform="translate(14.65 109.5)"/><path d="m4.1 4.75.05-1.15.35-.65q.75-.95 2.65-1.7 1.9-.8 4.3-1.05L14.7 0q4.4 0 7.5 1.25 1.9.7 2.65 1.65l.35.6v1.3l4.15 208.25-.05.65q-.45 2.05-4.25 3.55-4.3 1.7-10.4 1.7l-3.2-.1q-4.1-.35-7.2-1.6-3-1.2-3.9-2.7L0 213.5z" fill="none" stroke="#413001" stroke-linecap="round" stroke-linejoin="round" stroke-width=".05"/></g></defs></svg>