<svg viewBox="0 0 58.056 54.613" xmlns="http://www.w3.org/2000/svg" xmlns:xlink="http://www.w3.org/1999/xlink"><use transform="translate(.03 -.025)" width="58" height="54.6" xlink:href="#a"/><defs><g id="a"><path d="m239.35 63.05.35-.45q1.6-1.5 3.9-1.6l.8.05q1.7.15 3.05 1.35 1.6 1.4 1.65 3.5t-1.5 7.65l-.65 2-.15.35-.65 1.35-.35.4-1 .9-.6.15.6-.15 1-.9.35-.4.65-1.35.15-.35 2.55-.25q5.95-1.65 8.2-1.75 2.3-.05 3.85 1.35 1.6 1.45 1.65 3.55.1 2.1-1.45 3.65l-.5.45q1.5.6 2.35 1.95.85 1.25.85 2.65l-.2 1.15q-.6 2.05-2.55 3.2-2 1.1-4.15.65-.95-.2-2.7-1.45l-2.45-2.1-.75-.65-2.4-2.35q-2.05-2-2.85-3.2l-.1-.05q-.75-1.15-.35-1.45.15-.15.45-.15l1.5.35 1.25.4 1.35.3 4.75.35q2.75-.45 5 .05l1 .35-1-.35q-2.25-.5-5-.05l-4.75-.35-1.35-.3-1.25-.4-1.5-.35q-.3 0-.45.15-1.45-.9-1.7-1.9l-.05-.3-.3-.05q-.75 1.35-1.8.7l-.2-2.25-.45-1.7-.4-.9-.9-3.1q-.35-1.6-.2-2.8.4-2.55-.25-4.55l-.35-1 .35 1q.65 2 .25 4.55-.15 1.2.2 2.8l.9 3.1.4.9.45 1.7.2 2.25q-.95-.3-3.55-2.55l-.3-.25q-2.85-2.6-3.8-3.95l-1.75-1.45q2.7 1.65 5.4 2.5.5-.8.2-1.8-1.8-4.7-5.4-8.25l-1.6-.6h-.45l-1.5.35.25-.35q.65-1.05 1.65-1.7.75-.45 1.65-.75l2.1-.2 2.05.6q1.55.8 2.3 2.1m14.9 15q2.75.2 3.9-.7l-.4-.35q-4.1-2-8.1.2l3.7.8.9.05m-8.85-6.4h-.2q-1.1 1.35-1.6 2.7l.75.55.35-.45q.95-1.45.7-2.8m14.7 14.9q-3-1.2-6.3-.95l-.25 1.7.35.25q2.95 1.45 6.1 1.15l.35-1.9-.25-.25" fill="#526501" fill-rule="evenodd" transform="translate(-206.55 -60.2)"/><path d="m227.75 89.65-.2-.55.15.15.05.4m-6.2 16.15-.15.1-.4-.2.55.1" fill="#e98103" fill-rule="evenodd" transform="translate(-206.55 -60.2)"/><path d="M206.95 108.3q-.35-1.4-.3-3.15.05-4.5 3.05-10.8l.6-1.35.75-1.4q2.8-5.6 5.35-9.4 1.15-1.7 2.25-3.05l1.6.25q-.15 1.35-1 2.5-1.3 3.45.3 7.1 1.25 3.35 2.9 6.15l-.45-.2q-1.45-.8-2.2-2.9l-.7-1.5-.15-.15-1.2-2.85-.95-2.55q-3.5 5.05-5.95 11.15-2.65 6-3.9 12.15m9.45-26.1.2 1.15.35 1.5.8 2.7-.8-2.7-.35-1.5-.2-1.15m-2.65 16.45.2-.05-.25-.2.55.1-.3.1q3.35 2.35 7.45 4.45 1 .6 1.55 1.75v.1q-.25.95-1.4.9l-.55-.1q-4.7-2.95-7.25-7.05m17.5-3.8-1.15-1.05q-1.75-2-2.35-4.15l-.05-.4q3.95 2.45 8.3 2l1.5.1h.15q.15 1.25-.75 2.6l-1.15 1.45q-2.5.85-4.5-.55-1.8-2.25-3.5-5.2 1.7 2.95 3.5 5.2m-3.7-5.75v-.05l.15-.25v.45l-.15-.15M222 94.95q-1.7-2-2.9-4.4 1.2 2.4 2.9 4.4" fill="#fcaf63" fill-rule="evenodd" transform="translate(-206.55 -60.2)"/><path d="m232.7 71.15-1.55-1.45-1.7-2.05-.35-.7-.2-1.25.1-1.2q.1-.55.35-1.15l1.5-.35h.45l1.6.6q3.6 3.55 5.4 8.25.3 1-.2 1.8-2.7-.85-5.4-2.5m12.7.5q.25 1.35-.7 2.8l-.35.45-.75-.55q.5-1.35 1.6-2.7h.2m8.85 6.4-.9-.05-3.7-.8q4-2.2 8.1-.2l.4.35q-1.15.9-3.9.7m5.85 8.5.25.25-.35 1.9q-3.15.3-6.1-1.15l-.35-.25.25-1.7q3.3-.25 6.3.95" fill="#839502" fill-rule="evenodd" transform="translate(-206.55 -60.2)"/><path d="M228.4 111.65q-8.3 3.5-13.6 3-3.5-.35-5.6-2.45l-.75-.85q5.4-1.85 10.8-4.05l2.15-1.4q2.15 1.35 4.8 2.4l2.95 1.1-2.95-1.1q-2.65-1.05-4.8-2.4l.15-.1q1.15.05 1.4-.9l.1.15.9.55 1.95-.25q2.55-.85 4.3-2.1l1.1-.15-.05-8.25q2 1.4 4.5.55l1.15-1.45q.9-1.35.75-2.6h-.15l.05-.1q.25-3.3-.45-6.3-2.45-8.65-11.4-11.25 3.2-1.25 7.05-1.15l1.7.05q.95 1.35 3.8 3.95l.3.25-2.05-.15h-.15l-.65-.5 4.3 3.05q2.4 3 1.7 6.9-.5 2.65.65 4.75l1.6.1.7-.65.05-.45v-.25q.15-.1.4-.25l.35-.15h.25l2.05 2.6.9.75q-.85 3.2-3.5 5.15-3.25 2.4-6.55 3.25l.35.1q.35 0 .6.35l.3.45.3.9v.1l-1.2.7-.95.45v.1l-.25 1.2q-2.8 3.65-8.05 3.75l-.45.05-.85 2.55m6.15-8.55 3.45 1-3.45-1m5-1.7q-4.5-1.7-8.3-6.55 3.8 4.85 8.3 6.55" fill="#ba6702" fill-rule="evenodd" transform="translate(-206.55 -60.2)"/><path d="M242.1 79.35q1.05.65 1.8-.7l.35.35q.25 1 1.7 1.9-.4.3.35 1.45l.1.05q.8 1.2 2.85 3.2l2.4 2.35.15 1.4q.5 6.85-4.35 11.55l-1.5 1.3-3.9 2.7q-4.05 2.5-10.1 5.2l-2.5 1.1-.9.4-.15.05.85-2.55.45-.05q5.25-.1 8.05-3.75l.25-1.2v-.1l.95-.45 1.2-.7v-.1l-.3-.9-.3-.45q-.25-.35-.6-.35l-.35-.1q3.3-.85 6.55-3.25 2.65-1.95 3.5-5.15l-.9-.75-2.05-2.6h-.25l-.35.15q-.25.15-.4.25v.25l-.05.45-.7.65-1.6-.1q-1.15-2.1-.65-4.75.7-3.9-1.7-6.9l-4.3-3.05.65.5h.15l2.05.15q2.6 2.25 3.55 2.55m3.85 22.85q-3.35.35-6.4-.8 3.05 1.15 6.4.8m-3.9 2.7-4.05-.8 4.05.8m-10.1 5.2-2.8-.7 2.8.7" fill="#884402" fill-rule="evenodd" transform="translate(-206.55 -60.2)"/><path d="M208.45 111.35q-1.05-1.35-1.5-3.05 1.25-6.15 3.9-12.15 2.45-6.1 5.95-11.15l.95 2.55 1.2 2.85.15.15.7 1.5q.75 2.1 2.2 2.9l.45.2q-1.65-2.8-2.9-6.15-1.6-3.65-.3-7.1.85-1.15 1-2.5l-1.6-.25 1.9-2.05q2.25-2.25 5.15-3.4 8.95 2.6 11.4 11.25.7 3 .45 6.3l-.05.1-1.5-.1q-4.35.45-8.3-2v-.45l-.15.25v.05l.2.55q.6 2.15 2.35 4.15l1.15 1.05.05 8.25-1.1.15q-1.75 1.25-4.3 2.1l-1.95.25-.9-.55-.1-.15v-.1q-.55-1.15-1.55-1.75-4.1-2.1-7.45-4.45l.3-.1-.55-.1.25.2-.2.05q2.55 4.1 7.25 7.05l.4.2-2.15 1.4q-5.4 2.2-10.8 4.05m15.1-14.75L222 94.95l1.55 1.65" fill="#f99735" fill-rule="evenodd" transform="translate(-206.55 -60.2)"/><path d="m40.4 15.35.65-2q1.55-5.55 1.5-7.65T40.9 2.2Q39.55 1 37.85.85l-.8-.05q-2.3.1-3.9 1.6l-.35.45.35 1q.65 2 .25 4.55-.15 1.2.2 2.8l.9 3.1.4.9.45 1.7.2 2.25q1.05.65 1.8-.7l.3.05.6-.15 1-.9.35-.4.65-1.35.15-.35 2.55-.25q5.95-1.65 8.2-1.75 2.3-.05 3.85 1.35 1.6 1.45 1.65 3.55.1 2.1-1.45 3.65l-.5.45q1.5.6 2.35 1.95.85 1.25.85 2.65l-.2 1.15q-.6 2.05-2.55 3.2-2 1.1-4.15.65-.95-.2-2.7-1.45l-2.45-2.1-.75-.65.15 1.4q.5 6.85-4.35 11.55L39.4 42l-3.9 2.7q-4.05 2.5-10.1 5.2L22.9 51l-.9.4-.15.05q-8.3 3.5-13.6 3-3.5-.35-5.6-2.45l-.75-.85Q.85 49.8.4 48.1q-.35-1.4-.3-3.15.05-4.5 3.05-10.8l.6-1.35.75-1.4q2.8-5.6 5.35-9.4 1.15-1.7 2.25-3.05L14 16.9q2.25-2.25 5.15-3.4 3.2-1.25 7.05-1.15l1.7.05-1.75-1.45L24.6 9.5l-1.7-2.05-.35-.7-.2-1.25.1-1.2q.1-.55.35-1.15l.25-.35q.65-1.05 1.65-1.7.75-.45 1.65-.75l2.1-.2 2.05.6q1.55.8 2.3 2.1m21.9 19.5-1-.35q-2.25-.5-5-.05l-4.75-.35-1.35-.3-1.25-.4-1.5-.35q-.3 0-.45.15-.4.3.35 1.45l.1.05q.8 1.2 2.85 3.2l2.4 2.35m-7.4-8.95-.05-.3m.05.3q.25 1 1.7 1.9M33 41.2q3.05 1.15 6.4.8M11.2 27.35l-.8-2.7-.35-1.5-.2-1.15m2.7 8.35-.15-.15-1.2-2.85m10 2.1-.2-.55v-.05m-8.45 1.5q1.2 2.4 2.9 4.4L17 36.4m18.55-17.25q-.95-.3-3.55-2.55l-.3-.25q-2.85-2.6-3.8-3.95m-6.7 17.05q1.7 2.95 3.5 5.2 3.8 4.85 8.3 6.55m-1.55 2.7 4.05.8m-12.9 4.5 2.8.7m6.05-6-3.45-1m-5.4 6.3-2.95-1.1q-2.65-1.05-4.8-2.4m-.4-.2.4.2m-.4-.2q-4.7-2.95-7.25-7.05" fill="none" stroke="#100f07" stroke-linecap="round" stroke-linejoin="round" stroke-opacity=".514" stroke-width=".25"/></g></defs></svg>