<svg viewBox="0 0 38.249 57.673" xmlns="http://www.w3.org/2000/svg" xmlns:xlink="http://www.w3.org/1999/xlink"><use transform="translate(.03 .02)" width="38.2" height="57.6" xlink:href="#a"/><defs><g id="a"><path d="m308.1 229.8.25.15 4.1 5.25.45 6.85.25 2.8-1.7 5.35-.4-7.75-.4-6.9-2.55-5.75m-7.55-3.5-1.55 3.95-.6 1.55-1 2.55.1 12.75 1.05 3.8-.15.45-2.25-4-.7-13.05.95-1.45 2.4-3.8 1.75-2.75m4.85 14.9-.15-6-2.45-8.05.35.1 3.4 6.8.9 7.1.25 4.95-2 6.8-.3-11.7m-9.9-12.8 2.15-1.75-1.5 1.75-5.45 6.4-.75 5.4-.9 6.5 1.6 6.95-3.2-5.85 1.1-8.1.85-6.35 6.1-4.95" fill="#a56805" fill-rule="evenodd" transform="translate(-280.45 -202.8)"/><path d="m308.35 229.95-.25-.15q-2.15-1.4-4.95-2.55l-.35-.1-2.25-.85-1.85-.55-.25-.05-1.85-.5q1.4-.75 2.95-1.45l.4-.1h2.8q20.7 7.25 14.45 26-12.1 10.5-20.7 9.65-5.85-1.25-10.55-4.1-3.8-3.95-4.7-8.1 11 14.4 16.4 6.5l.9-2.7q3-8.6 6.85-9.7l.3 11.7 2-6.8-.25-4.95q.85.15 1.8.7l1.8.6.4 7.75 1.7-5.35-.25-2.8q.95-.65 1.25-2.35-.05-3.25-1.8-5.85-1.45-2.15-4-3.9" fill="#d3a712" fill-rule="evenodd" transform="translate(-280.45 -202.8)"/><path d="m308.1 229.8 2.55 5.75.4 6.9-1.8-.6q-.95-.55-1.8-.7l-.9-7.1-3.4-6.8q2.8 1.15 4.95 2.55m4.8 12.25-.45-6.85-4.1-5.25q2.55 1.75 4 3.9 1.75 2.6 1.8 5.85-.3 1.7-1.25 2.35m-31.65 5.05q-.85-3.9.75-8 3.15-7.9 14.6-13.9l1.85.5.25.05 1.85.55 2.25.85 2.45 8.05.15 6q-3.85 1.1-6.85 9.7l-1.05-3.8-.1-12.75 1-2.55.75-.35.05-.05-.2-1.15 1.55-3.95-1.75 2.75-.1-.5-2.55-.15 1.5-1.75-2.15 1.75-.8-.05-5.6 2.65-3.2 4.8 1.05 3.3 1.6.6-1.1 8.1 3.2 5.85-1.6-6.95.9-6.5.3.1 1.8-.9 1-4.85 3.35-1.7-.95 1.45.7 13.05 2.25 4-.75 2.25q-5.4 7.9-16.4-6.5m-.15-34.35-.65-1.15 5.1-8.8 2.55 11.25-3.3-2.2 1.85.25-1.35-6.3-3.65 5.85 5.95 7.65 6.1-.9 6.5 2.85 1.6-4.65 1.05.25-2.55 6.05-6.1-3.15-7.55.65-5.55-7.65" fill="#efca4b" fill-rule="evenodd" transform="translate(-280.45 -202.8)"/><path d="m317.2 249.65-.15.5.1.1-.1.1q-4.7 8-14.6 9.7-9.75 1.65-15.65-4l-.85-.85q4.7 2.85 10.55 4.1 8.6.85 20.7-9.65" fill="#583701" fill-rule="evenodd" transform="translate(-280.45 -202.8)"/><path d="m299.55 223.75.1-.05v-.05h-.1l-5.25-3.45-8.4 1.25-4.8-8.7 5.55 7.65 7.55-.65 6.1 3.15 2.55-6.05 1 .25-1.1 6.55h-3.1.3l-.4.1" fill="#9c6201" fill-rule="evenodd" transform="translate(-280.45 -202.8)"/><path d="m299 230.25.2 1.15-.05.05-.75.35.6-1.55m-2.85-1.85 2.55.15.1.5-2.4 3.8-3.35 1.7-1 4.85-1.8.9-.3-.1.75-5.4 5.45-6.4m-7.6 11.3-1.6-.6-1.05-3.3 3.2-4.8 5.6-2.65.8.05-6.1 4.95-.85 6.35" fill="#f7e199" fill-rule="evenodd" transform="translate(-280.45 -202.8)"/><path d="m5.5 52.4.85.85q5.9 5.65 15.65 4 9.9-1.7 14.6-9.7l.1-.1-.1-.1.15-.5M5.5 52.4Q1.7 48.45.8 44.3q-.85-3.9.75-8 3.15-7.9 14.6-13.9 1.4-.75 2.95-1.45l.1-.05-.1-.05-5.25-3.45-8.4 1.25-4.8-8.7L0 8.8 5.1 0l2.55 11.25-3.3-2.2 1.85.25L4.85 3 1.2 8.85l5.95 7.65 6.1-.9 6.5 2.85 1.6-4.65 1.05.25 1 .25-1.1 6.55q20.7 7.25 14.45 26m-17.65-26h3.2m-3.2.1.4-.1" fill="none" stroke="#583701" stroke-linecap="round" stroke-linejoin="round" stroke-width=".05"/></g></defs></svg>