<svg viewBox="0 0 109.86 40.879" xmlns="http://www.w3.org/2000/svg" xmlns:xlink="http://www.w3.org/1999/xlink"><use transform="matrix(-.4796 .045 .0568 .6054 105.465 -7.923)" width="223.1" height="77.15" xlink:href="#a"/><defs><g id="a"><path d="M-48.65 38.1h.05l.05.15-.1-.15" fill="#9e7601" fill-rule="evenodd" transform="translate(120.7 28)"/><path d="m-55.05 43.45-.55-.05.65-.45-.1.5" fill="#8b6801" fill-rule="evenodd" transform="translate(120.7 28)"/><path d="m-54.95 42.95-.65.45-.1-.15.75-.3" fill="#febe01" fill-rule="evenodd" transform="translate(120.7 28)"/><path d="m24.9 16.6.15.1-.25.05.1-.15" fill="#cfac5f" fill-rule="evenodd" transform="translate(120.7 28)"/><path d="m-48.55 38.25-.05-.15.05.15" fill="#b18b34" fill-rule="evenodd" transform="translate(120.7 28)"/><path d="m-48.65 38.1.1.15-.1-.15" fill="#e6d3aa" fill-rule="evenodd" transform="translate(120.7 28)"/><path d="m-55.6 43.4.55.05-.6 4.3-46.75-27.15 1.1-8.1 38.2 22.15 2.85 1.65 4.55 6.95.1.15" fill="#585021" fill-rule="evenodd" transform="translate(120.7 28)"/><path d="M24.8 16.75q-1.15 6.35 1.15 6.55-37.85 9.9-81.6 24.45l.6-4.3.1-.5 6.4-4.7-.05-.15Q-10.3 26 24.8 16.75" fill="#7b702f" fill-rule="evenodd" transform="translate(120.7 28)"/><path d="M-29.75-4.4Q6.45-2.1-1.65 5.7q-11.7 5.85-12.45 8.05t32.25-1q6.9-.2 6.75 3.85l-.1.15Q-10.3 26-48.6 38.1h-.05l-11.6-1.8-2.85-1.65-38.2-22.15q34.35-7.4 71.55-16.9M-88.7 19.1l72.5-16.45-72.5 16.45m47.5 9.85-21.9 5.7 21.9-5.7" fill="#9c863d" fill-rule="evenodd" transform="translate(120.7 28)"/><path d="m-55.7 43.25-4.55-6.95 11.6 1.8.1.15-6.4 4.7-.75.3" fill="#948534" fill-rule="evenodd" transform="translate(120.7 28)"/><path d="M25.05 16.7Q65.9 5.95 102.4-.85l-1.1 8.15q-34.2 5.2-75.35 16-2.3-.2-1.15-6.55l.25-.05" fill="#968738" fill-rule="evenodd" transform="translate(120.7 28)"/><path d="M-29.75-4.4q41-10.5 85.45-23.6l9.3 2.75q21.8 8.6 37.4 24.4-36.5 6.8-77.35 17.55l-.15-.1q.15-4.05-6.75-3.85-33 3.2-32.25 1T-1.65 5.7q8.1-7.8-28.1-10.1M44.5-18.85l20.5-6.4-20.5 6.4m50.8 15.2L49 7.05l46.3-10.7M60.55-12.5 3.4 2.25 60.55-12.5" fill="#cfbe85" fill-rule="evenodd" transform="translate(120.7 28)"/><path d="M185.7 2.75 176.4 0q-44.45 13.1-85.45 23.6-37.2 9.5-71.55 16.9l-1.1 8.1 46.75 27.15q43.75-14.55 81.6-24.45 41.15-10.8 75.35-16l1.1-8.15q-15.6-15.8-37.4-24.4" fill="none" stroke="#000" stroke-linecap="round" stroke-linejoin="round" stroke-width=".05"/><path d="m185.7 2.75-20.5 6.4m-41.1 21.1 57.15-14.75M169.7 35.05l46.3-10.7M57.6 62.65l21.9-5.7m25-26.3L32 47.1" fill="none" stroke="#8c6701" stroke-linecap="round" stroke-linejoin="round" stroke-opacity=".522" stroke-width=".05"/><path d="m145.6 44.6.15.1" fill="none" stroke="#0f0" stroke-linecap="round" stroke-linejoin="round" stroke-width=".05"/><path d="m-104.6-7.15.2-.1 10.6 17.35.35.6-.9 3.7-1.3 1.55-.4.45v-.15l.4-.3-.4.3-4.6-9.85 3.75 2-4.6-5.25-.4-.55h-.05l-2.65-9.75m10.8 17.25-3.1-1.7 3.1 1.7" fill="#9cb926" fill-rule="evenodd" transform="translate(120.7 28)"/><path d="m-104.4-7.25-.2.1.15-.15.05.05" fill="#339b20" fill-rule="evenodd" transform="translate(120.7 28)"/><path d="M-96.05 16.25q-8.85 6.55-15.55 16.35.25 5.95 1.6 12.85-1.65-6.1-2.4-11.7-4.65 6.85-8.2 15.3 2.65-12.15 7.45-22.6-1.2-19.8 8.55-33.6l2.65 9.75q-7.9 7.15-9.45 20.2 4.55-8.9 10.75-16.4l4.6 9.85m-17.1 10.2 1.75-3.65-1.75 3.65m.75 7.3.8-1.15-.8 1.15" fill="#859e1d" fill-rule="evenodd" transform="translate(120.7 28)"/><path d="m16.3 20.75-.05-.05m-.15.15.1-.2.05.05m.05.05L26.9 38.1l.35.6m-.9 3.7-1.3 1.55-.4.45v-.15Q15.8 50.8 9.1 60.6q.25 5.95 1.6 12.85-1.65-6.1-2.4-11.7Q3.65 68.6.1 77.05q2.65-12.15 7.45-22.6-1.2-19.8 8.55-33.6l2.65 9.75h.05l.4.55 4.6 5.25 3.1 1.7m-6.85-3.7 3.75 2m1.25 7.55-.4.3-4.6-9.85q-6.2 7.5-10.75 16.4l-1.75 3.65m11.2-23.85q-7.9 7.15-9.45 20.2m9.9-19.65-.45-.55m-9.65 30-.8 1.15" fill="none" stroke="#554d1e" stroke-linecap="round" stroke-linejoin="round" stroke-opacity=".722" stroke-width=".25"/></g></defs></svg>