<svg width="334" height="155" viewBox="110.27 119.6 334.36 154.98" xmlns="http://www.w3.org/2000/svg" xmlns:xlink="http://www.w3.org/1999/xlink"><defs><g id="a"><path d="m28.6-33.85-7.05.3q-28.25 0-118.5-14.15l-5.85-1-.3.05-.2-.05 28.75-2q54.25 8.45 107.4 15.9-1.4.6-4.25.95m-146.1-10.9Q46.45-17.55 159.3-10.3q-19.25 3.15-29.8 5.8-160.05-15.5-290.65-35l10.05-1.05 12.8-1.65 10.35.8 68.9 9.15-68.9-12.25 4.8-1.15 5.65.9M101.4 3.4Q91.15 6.8 79.25 5.15L17.7-2.95h.05q35.6-.45 83.65 6.35M-180.2-38q27.05 4.1 45.1 10.7-24.7-4.4-54.25-10.15l9.15-.55" fill="#e4b761"/><path d="m-103.1-48.65.3-.05 5.85 1Q-6.7-33.55 21.55-33.55l7.05-.3q3-.3 4.5-.95h.1q79.3 11.05 156.2 19.9h-.1l-30 4.6Q46.45-17.55-117.5-44.75l-5.2-.9q8.5-1.8 19.6-3M16.25-3.15q-72.1-17.45-116.2-18.1l-35.15-6.05q-18.05-6.6-45.1-10.7l18.75-1.5h.3Q-30.55-20 129.5-4.5 119.1-1.95 117.2.1L47.95-7.25l60.8 9.1-7.3 1.55h-.05Q53.35-3.4 17.75-2.95l-1.5-.2" fill="#db9c35"/><path d="m11-3.5 5.2.45.6.05h.35l.25.05h.3l61.55 8.1Q91.15 6.8 101.4 3.4q2.4 24.55 15.95 37.95l-19.9 7.6q-10.5 3.1-20.95.8-23.3-5.9-46.55-11.3Q119.45 42.35 11-3.5m118.5-1q10.55-2.65 29.8-5.8l7.5 32.75q-11.4 2.9-21.45 7.2L129.5-4.5M-95.55 12.65q-45.65-8.2-91.3-14.6 2.5-14.95-2.5-35.5 29.55 5.75 54.25 10.15Q-21.8 4.9-95.55 12.65" fill="#925203"/><path d="M16.2-3.05 11-3.5q-47.75-3.9-64.25-6.4-17.6-2.7-46.7-11.35 44.1.65 116.2 18.1l-.05.1" fill="#c28723"/><path d="m159.3-10.3 30-4.6L186.2 2q-3.15 2.5-5.1 6.3 2.65.7 3.3 2.6l-1.6 8.2q-8.3 1.35-16 3.35l-7.5-32.75M11-3.5q108.45 45.85 18.95 41.95-62.8-14.6-125.5-25.8Q-21.8 4.9-135.1-27.3l35.15 6.05q29.1 8.65 46.7 11.35Q-36.75-7.4 11-3.5m106.35 44.85Q103.8 27.95 101.4 3.4h.05l7.3-1.55q.45 17.7 9.5 31.95l1.95 6.45-2.85 1.1M117.2.1q1.9-2.05 12.3-4.6l15.85 34.15Q138 32.8 131.4 36.7 122.3 24.3 117.2.1" fill="#764203"/><path d="m108.75 1.85-60.8-9.1L117.2.1q5.1 24.2 14.2 36.6h-.05l-13.1-2.9q-9.05-14.25-9.5-31.95m-236.7-43.25v-3.1l68.9 12.25-68.9-9.15" fill="#593202"/><path d="M32.85-34.8q-53.15-7.45-107.4-15.9l-28.75 2 .2.05q-11.1 1.2-19.6 3m312 30.75h.1q-76.9-8.85-156.2-19.9h-.35m-2.9 73.25q23.25 5.4 46.55 11.3 10.45 2.3 20.95-.8l19.9-7.6m-278.5-80.85h-.3L-180.2-38m325.55 67.65q10.05-4.3 21.45-7.2m-356.15-59.9 9.15-.55m84.65 50.65q-45.65-8.2-91.3-14.6 2.5-14.95-2.5-35.5m93.8 50.1q62.7 11.2 125.5 25.8m-157.9-82.95 4.8-1.15m-4.8 4.25v-3.1m0 3.1-10.35-.8-12.8 1.65-10.05 1.05M189.3-14.9 186.2 2q-3.15 2.5-5.1 6.3 2.65.7 3.3 2.6l-1.6 8.2q-8.3 1.35-16 3.35M131.4 36.7h-.05l-13.1-2.9 1.95 6.45-2.85 1.1m28-11.7Q138 32.8 131.4 36.7" fill="none" stroke="#451b01" stroke-width=".5"/></g><g id="b"><path d="M11.95 4.25q-8.2-6.35-18.9-5-5.65.9-9.45 3l1.85-1.05Q-7.9-2.2-2-2.25q10.65 0 15.45 4.15-1.45.4-1.5 2.35" fill="#96a419"/><path d="M-14.55 1.2q18.9-10.65 31-.55-4.2 1.4-4.5 3.6.05-1.95 1.5-2.35Q8.65-2.25-2-2.25q-5.9.05-12.55 3.45" fill="#605a0a"/></g><path d="M37.3-59.75q10.3 6.9 12.55 21.95T44.7-10.05Q37.3 2.6 33.05 15.9 28.9 28.95 36.6 46.4q1.05 2.45-5.4 8.25-8.35 7.55-10.35 5.5-.65-3.05-1.7-15.05-.7-6.75.9-14.65.9-4.2 2.25-9.15.1-.8.45-1.45l.05-.55q1-4.9 3.8-9.45 5.65-9.4 8-19.6 2.3-10.1 1.35-21.1-.9-11.05-10.35-17.75t-16.35.35Q6.2-45.2 6.7-41.6 7-38.7 9-37.3q3.7 2.65 7.85 2.1 5.05-.5 5.7-6.7 1.85 4.05-3.1 7.25-5.35 3.4-11.75-.7-2.75-1.8-4.45-4.85Q1-44.25 3.3-50.7q2.25-6.5 13-11.25 10.7-4.75 21 2.2m-8.9 43.6.2.3v.5l-.25.2q-3.7 1.65-2.85 5.55.75 3.9-1.35 6.85Q21.95.4 18 1.8l-3.45.1q-1.15-.75-.8-3.2h.05l.05-.15h.05q.45-2.45 2.9-2.25 2.2.05 2.45 1.05.55.95-.9 2.55l-.15.1-.25.05-.05.05-.4-.1-.05-.15-.1-.25v-.05l.1-.4q.85-.9.8-1.3l-1.45-.4q-1.6-.25-1.9 1.3-.25 1.65.3 2.2L17.55.8q3.6-1.35 5.65-4.25 1.8-2.6 1.1-6.05-.95-4.7 3.6-6.65h.5m-8.6 26.4.3-.1q.25.05.45.25l.15.35-1 7.2q-.75 4.05-4.35 6.55-4.25 2.8-7-1.15-1.5-2.15-.55-3.4.8-1.25 3.85-1.65 1.55-.2 1.9 1.35.55 2.15-2.2 3.15h-.5l-.2-.25v-.5q.05-.2.25-.25h.05q1.7-.7 1.45-1.95-.15-.45-.65-.35-2.35.3-2.95 1.15-.5.75.5 2.15 2.2 3 5.55.75 3.1-2.1 3.7-5.65l1-7.2q.05-.25.25-.45m30.7-6.6h.1q2.15 1.25 2.2 2.9.1 1.55-1.85 3.35-1.8 1.5-2.75 1.3l-.1.05q-1.3-.2-1.35-2.55l-.05-.05q.05-.95.7-1.6l.1-.1.25-.05.05-.05.4.1.1.15.05.25.05.05-.15.4q-.35.35-.4.85v.05q0 1.15.45 1.35.65.05 2-1.05 1.45-1.3 1.4-2.4-.1-1.05-1.7-1.95V4.6q-1.55-1-2.7-.6-1.35.5-2.35 2.45-1.65 3.25-2.7 7.1v.05q-.4 1.85-.1 3.7.45 4.25-3.15 7.2l-.35.1-.4-.2-.05-.05-.1-.35.25-.4q3.05-2.55 2.6-6.2-.15-1.95.35-3.85l-.05-.05.1-.2q1-4.05 2.6-7.45 1.2-2.35 2.85-2.8 1.65-.65 3.7.6M-37.7-12.4q-3.05-.7-4.55 1.5-1.8 2.7-.2 5.6Q-39.3.6-32.5 1.45q8.65.9 16.75 3.85Q-2.2 10.25 3.5 22.9l1.95 5q5.1 17.35-6.05 30.55l-5.35 5.45q-2.75-4.25-5.8-11 3.45-6.95 3.25-15.05-.1-9.65-6.5-16.8-5.9-6.55-14.8-9.65Q-38.75 8.3-47.05.15-55.4-8.1-51.5-13.8q3.8-5.7 9.75-4.05 6 1.55 5.9 6.1l-1.85-.65M-17 32.65q1.8 1.1 1.9 2.3.2 1.2-1.35 2.45-2.25 1.65-3.6 1.35v.1l-.1.05q-1.6-.3-2.05-2.9l.1-.4.45-.25.4.1q.2.15.25.45.2 1.5.9 1.85h.05q1.05.15 2.95-1.25.9-.8.85-1.45-.15-.75-1.35-1.45-3.25-2.05-6.3.65-2.75 2.4-3.35 6-.7 4.1-2.65 6.75l-.45.25-.4-.15-.25-.4.1-.4q1.8-2.35 2.5-6.1.7-4.05 3.85-6.85 3.65-3.2 7.55-.7" fill="#ffc" fill-opacity=".498" id="c"/></defs><use transform="matrix(-.80316 0 0 1.2139 292.55 211.4)" xlink:href="#a"/><use transform="matrix(1.2508 .48938 .07953 1.5582 136.3 206)" xlink:href="#b"/><use transform="matrix(1.0204 .3992 .00552 1.4231 325.75 187.45)" xlink:href="#b"/><use transform="matrix(1.4762 .57753 .007 1.7954 255.95 184.45)" xlink:href="#b"/><use transform="matrix(.81482 .02934 .22282 1.1674 248.05 173.2)" xlink:href="#b"/><use transform="matrix(.81482 .02934 .22282 1.1674 194.5 210.75)" xlink:href="#b"/><use transform="matrix(.81482 .02934 .22282 1.1674 295.95 163.05)" xlink:href="#b"/><use transform="matrix(1.0553 .41284 .00436 1.12 307.75 157.2)" xlink:href="#b"/><use transform="matrix(.72937 -.27379 .42613 1.1352 189.15 184.7)" xlink:href="#b"/><use transform="matrix(1.248 .48825 .00401 1.0322 361.25 151.05)" xlink:href="#b"/><use transform="matrix(.81482 .02934 .22282 1.1674 178.8 188.6)" xlink:href="#b"/><use transform="translate(308.8 186.3)" xlink:href="#c"/><use transform="matrix(.84705 .44618 -.22804 .85107 155.35 195.05)" xlink:href="#c"/></svg>