<svg viewBox="0 0 340.26 168.04" xmlns="http://www.w3.org/2000/svg" xmlns:xlink="http://www.w3.org/1999/xlink"><g transform="translate(-21.666 -48.384)"><use transform="matrix(.4866 .1018 -.1018 .4866 30.205 83.393)" width="172.9" height="119.55" xlink:href="#a"/><use transform="matrix(.4945 .417 -.417 .4945 91.571 27.973)" width="172.9" height="119.55" xlink:href="#a"/><use transform="translate(60.05 94.45)" width="301.85" height="121.95" xlink:href="#b"/></g><defs><linearGradient id="g" x1="-819.2" x2="819.2" gradientTransform="matrix(.0035 .0079 -.0063 .0028 5.45 14.85)" gradientUnits="userSpaceOnUse"><stop stop-color="#cd3958" offset="0"/><stop stop-color="#4d001f" offset="1"/></linearGradient><linearGradient id="h" x1="-819.2" x2="819.2" gradientTransform="matrix(-.0072 -.01 .0044 -.0032 3.8 4.65)" gradientUnits="userSpaceOnUse"><stop stop-color="#d0576e" offset="0"/><stop stop-color="#d699b1" offset="1"/></linearGradient><linearGradient id="i" x1="-819.2" x2="819.2" gradientTransform="matrix(-.0358 -.0296 .0244 -.0295 28.15 31.8)" gradientUnits="userSpaceOnUse"><stop stop-color="#96a888" offset="0"/><stop stop-color="#d6d4b3" offset="1"/></linearGradient><linearGradient id="j" x1="-819.2" x2="819.2" gradientTransform="matrix(-.0467 -.0194 .0073 -.0175 23.75 30.45)" gradientUnits="userSpaceOnUse"><stop stop-color="#7d9464" offset="0"/><stop stop-color="#d5cc88" offset="1"/></linearGradient><linearGradient id="m" x1="-819.2" x2="819.2" gradientTransform="matrix(.0665 .0176 -.0059 .0224 100.55 -3.1)" gradientUnits="userSpaceOnUse"><stop stop-color="#6e5213" offset="0"/><stop stop-color="#836216" offset="1"/></linearGradient><linearGradient id="n" x1="-819.2" x2="819.2" gradientTransform="matrix(.0391 .0105 -.0099 .0368 154.25 57.65)" gradientUnits="userSpaceOnUse"><stop stop-color="#4a2d02" offset="0"/><stop stop-color="#523402" offset="1"/></linearGradient><linearGradient id="o" x1="-819.2" x2="819.2" gradientTransform="matrix(.03 .0079 -.0033 .0126 163.15 15.7)" gradientUnits="userSpaceOnUse"><stop stop-color="#c0a361" offset="0"/><stop stop-color="#b99f4a" offset="1"/></linearGradient><linearGradient id="p" x1="-819.2" x2="819.2" gradientTransform="matrix(.0255 .0147 -.0055 .0095 78.6 -22.6)" gradientUnits="userSpaceOnUse"><stop stop-color="#a78537" offset="0"/><stop stop-color="#95701a" offset="1"/></linearGradient><linearGradient id="q" x1="-819.2" x2="819.2" gradientTransform="matrix(.0242 .014 -.0063 .0108 72.8 45.2)" gradientUnits="userSpaceOnUse"><stop stop-color="#6e5213" offset="0"/><stop stop-color="#836216" offset="1"/></linearGradient><g id="a" transform="translate(91.2 59.75)"><use transform="matrix(-.2225 -1.2974 .9853 -.169 -49.485 46.794)" width="26.2" height="40.85" xlink:href="#c"/><use transform="matrix(.456 -1.2349 .9378 .3463 -61.405 22.362)" width="26.2" height="40.85" xlink:href="#c"/><use transform="matrix(.9549 0 0 -.7622 -45.21 48.699)" width="26.2" height="40.85" xlink:href="#c"/><use transform="matrix(.7643 .4413 -.3993 .6915 -9.768 -55.588)" width="26.2" height="40.85" xlink:href="#c"/><use transform="matrix(1.2719 -.3408 .2588 .9659 -51.692 -45.64)" width="26.2" height="40.85" xlink:href="#c"/><use transform="matrix(1.2719 .3408 -.2588 .9659 -28.432 -59.77)" width="26.2" height="40.85" xlink:href="#c"/><use transform="matrix(1.6797 -.4501 .3438 1.2832 -67.319 -40.931)" width="26.2" height="40.85" xlink:href="#c"/><use transform="matrix(1.2719 .3408 -.2588 .9659 -36.982 -50.02)" width="26.2" height="40.85" xlink:href="#c"/><use transform="matrix(.6911 .8314 1.1815 -.982 -79.055 28.09)" width="26.2" height="40.85" xlink:href="#c"/><use transform="matrix(.456 -1.2349 .9378 .3463 -63.455 4.662)" width="26.2" height="40.85" xlink:href="#c"/><use transform="matrix(1.6797 -.4501 .3438 1.2832 -72.919 -29.131)" width="26.2" height="40.85" xlink:href="#c"/><use transform="matrix(.6915 1.0179 .8267 -.5616 -70.423 -2.428)" width="26.2" height="40.85" xlink:href="#c"/><use transform="matrix(.6915 1.0179 .8267 -.5616 -70.123 7.222)" width="26.2" height="40.85" xlink:href="#c"/><use transform="matrix(.6911 .8314 1.1815 -.982 -85.855 20.59)" width="26.2" height="40.85" xlink:href="#c"/><use transform="matrix(.456 -1.2349 .9378 .3463 -68.805 14.112)" width="26.2" height="40.85" xlink:href="#c"/><use transform="matrix(1.6797 -.4501 .3438 1.2832 -78.269 -19.681)" width="26.2" height="40.85" xlink:href="#c"/><use transform="matrix(.6911 .8314 1.1815 -.982 -91.205 30.04)" width="26.2" height="40.85" xlink:href="#c"/><use transform="matrix(1.6797 -.4501 .3438 1.2832 -68.969 -31.481)" width="26.2" height="40.85" xlink:href="#c"/><use transform="matrix(.8813 -.9759 .7411 .6693 -69.613 -9.469)" width="26.2" height="40.85" xlink:href="#c"/><use transform="matrix(.6911 .8314 1.1815 -.982 -81.905 18.24)" width="26.2" height="40.85" xlink:href="#c"/><use transform="matrix(-.2225 -1.2974 .9853 -.169 -55.585 45.644)" width="26.2" height="40.85" xlink:href="#c"/><use transform="matrix(.9549 0 0 -.7622 -51.71 49.999)" width="26.2" height="40.85" xlink:href="#c"/><use transform="matrix(1.0142 .3745 .45 -1.2186 -68.767 50.003)" width="26.2" height="40.85" xlink:href="#c"/><use transform="translate(-31.5 -19.55)" width="113.2" height="73.8" xlink:href="#d"/><use transform="translate(-32.3 -20.05)" width="28.4" height="48.05" xlink:href="#e"/></g><g id="f" fill-rule="evenodd"><path d="m12.6 17.6.5 1.8-3.4 1.05Q-1.7.9-13.1-13.45l.85.8 18 23.05-2.6-7.1L6.5 8.05 3.1-.8q5.2 6.95 9.5 18.4" fill="url(#g)" transform="translate(13.1 20.4)"/><path d="M12.6 17.6Q8.3 6.15 3.1-.8l3.4 8.85L3.15 3.3l2.6 7.1-18-23.05q7.1 6.5 15.4 15.95Q-1.5-6.3-10.7-20.4q17.15 16.3 23.3 38" fill="url(#h)" transform="translate(13.1 20.4)"/></g><g id="d"><path d="m73.1 31.8 1.8 1.1 1.35 2.2q.85 2 1.05 3.9.2 1.95-.3 3.8l-.05.35.1.1H77q.8 1.7 2.45 2.7l2.25 1.15h-.8l-.55.35-.85.55-.3.5v.4q-1-.45-2.2-.8l-2.1-.5h-.5l-.6.5-.2.05-.15.15h-.05l2.5 2.1 3.7 2.65 1.1.8-2.65-.3q-1.15-.05-1.55.7l-8.6-4.8q-5.1-4.6-1.95-13.9 3.1-6.05 7.15-3.75m.6 4.7q-.75-1.8-2-1.85-1.3-.05-2.45 1.65-1.05 1.7-1.3 4.25-.25 2.45.45 4.25.8 1.8 2.1 1.85 1.25.05 2.35-1.65 1.1-1.75 1.35-4.2.25-2.55-.5-4.3" fill="#445532" fill-rule="evenodd" transform="translate(31.5 19.55)"/><path d="m-22.5 28.1-2.3.25q-6.9-3.8-6.7-17.8 1-13.45 6.4-22.65 5.65-8.75 18.05-7.25 4.75 1.55 3.8 4.3Q28.3-1.4 33.4 13.9q28.45 11.05 39.7 17.9-4.05-2.3-7.15 3.75Q54.7 27 23.85 19.15q-2.4-6.8-8-8.8-31.75-11.95-42-4.8-1.4-4.45 0-9.6-3.8 7.4-3.85 17.3 0 9.5 7.5 14.85m10.35-43.8q3.9-1.7 8.9.65-5-2.35-8.9-.65M33.4 13.9q-2.4-2.55-6.85.35 4.45-2.9 6.85-.35" fill="url(#i)" fill-rule="evenodd" transform="translate(31.5 19.55)"/><path d="M67.9 49.45q-13.15-8.75-42.6-20.6-1.15 1.8-7.1 2-10.55.3-36.15-4.3l-2.8-.5q-.75 1.5-1.75 2.05-7.5-5.35-7.5-14.85.05-9.9 3.85-17.3-1.4 5.15 0 9.6 10.25-7.15 42 4.8 5.6 2 8 8.8Q54.7 27 65.95 35.55q-3.15 9.3 1.95 13.9M-26.85 20.3q2.95 6.1 6.1 5.75-3.15.35-6.1-5.75m52.15 8.55q-1.3.35-2-1.3-.4-.9-.55-2.35.15 1.45.55 2.35.7 1.65 2 1.3" fill="url(#j)" fill-rule="evenodd" transform="translate(31.5 19.55)"/><path d="M73.7 36.5q.75 1.75.5 4.3-.25 2.45-1.35 4.2-1.1 1.7-2.35 1.65-1.3-.05-2.1-1.85-.7-1.8-.45-4.25.25-2.55 1.3-4.25 1.15-1.7 2.45-1.65 1.25.05 2 1.85" fill="#65804a" fill-rule="evenodd" transform="translate(31.5 19.55)"/><path d="m9 47.65-2.3.25Q-.2 44.1 0 30.1 1 16.65 6.4 7.45 12.05-1.3 24.45.2q4.75 1.55 3.8 4.3Q59.8 18.15 64.9 33.45q28.45 11.05 39.7 17.9M99.4 69q-13.15-8.75-42.6-20.6-1.15 1.8-7.1 2-10.55.3-36.15-4.3l-2.8-.5Q10 47.1 9 47.65M28.25 4.5q-5-2.35-8.9-.65m-8.6 41.75q-3.15.35-6.1-5.75m49.6 4.9q.15 1.45.55 2.35.7 1.65 2 1.3m1.25-14.6q4.45-2.9 6.85-.35M108 73.8 99.4 69" fill="none" stroke="#430c02" stroke-linecap="round" stroke-linejoin="round" stroke-opacity=".302" stroke-width=".05"/></g><g id="l"><path d="m247.75 5.4 2.7-.65 3.9 1.4L199 21l55.35-11.1 8.3-.95L281 12.2q-79.3 17.9-172.05 33.05l-24 3.8-37.4 5.65q-7.95-7.5-23.95-7.05 38.9-3.8 85.35-12 61.8-10.95 137-29.8l1.8-.45M14.4 45.55q5.65-.5 9.2 2.1l3 29.75q-12.2-.25-19.2 9.9L3.45 73.4q.5-2.35 2.65-3.15Q4.55 65.6 2 62.6L0 50.5q6.95-6.7 14.4-4.95m284-21.4q1.2 15.5 3.25 33.65-36.7 7.75-73.35 17.7-59.25-9.4 31.75-48.5 19.85-5.35 38.35-2.85" fill="url(#m)" fill-rule="evenodd" transform="translate(.1 .1)"/><path d="m247.75 5.4-1.8.45q-75.2 18.85-137 29.8-46.45 8.2-85.35 12-3.55-2.6-9.2-2.1l91.55-20.8.75-3.05 2.25-.45 15.95-3.35h.1q1.15.8 3.6 1.15l5.65.4q22.7 0 95.2-17.2l4.7-1.2.2.05q8.9 1.45 15.75 3.65l-2.35.65m-15.9 28.95 28.2-7.35q-91 39.1-31.75 48.5-50.35 13.6-100.8 31.35-71.9 4.7 15.25-50.95 38.3-4.75 51.6-7.75 14.1-3.3 37.5-13.8" fill="url(#n)" fill-rule="evenodd" transform="translate(.1 .1)"/><path d="M254.35 9.9 199 21l55.35-14.85V9.9M106.7 21.7l-.75 3.05-91.55 20.8Q6.95 43.8 0 50.5l3.15-3.9q49.2-13.75 103.55-24.9M57.45 60.3l55.6-8.95L64.2 62.4q-.15 9.05-1 16.65-.9 7.6-3.55 13.7H56.9L53.65 89q-1.15-2.2.4-9.25 1.9-8.8 3.4-19.45m79.85-3.7h.3l.2-.1.75-.05-.05-.1q57.9-21.2 93.35-22-23.4 10.5-37.5 13.8-13.3 3-51.6 7.75-87.15 55.65-15.25 50.95-14.05 4.9-28.15 10.2l-9.25 3.5q-5.05 1.7-10.1 1l.3-46.7 9.4-4.25 47.6-14M260.05 27q14.5-8 31-9.8l7.35 6.95q-18.5-2.5-38.35 2.85" fill="#2b1a00" fill-rule="evenodd" transform="translate(.1 .1)"/><path d="m234.15 1 .4-1-.2 1.1-.2-.05V1M70.1 64.3l14-2.75q13.05-2.4 24.85-3.6l28.35-1.35-47.6 14-9.4 4.25Q76.5 67.5 70.1 64.3" fill="#e4b761" fill-rule="evenodd" transform="translate(.1 .1)"/><path d="m234.15 1.05-4.7 1.2q-72.5 17.2-95.2 17.2l-5.65-.4q-2.3-.4-3.4-1.15 42.65-9.05 86.25-15.1l22.7-1.8v.05" fill="url(#o)" fill-rule="evenodd" transform="translate(.1 .1)"/><path d="M23.6 47.65q16-.45 23.95 7.05l37.4-5.65 24-3.8Q201.7 30.1 281 12.2h.25l9.8 5q-16.5 1.8-31 9.8l-28.2 7.35q-35.45.8-93.35 22l-1.15.25h-.05l-28.35 1.35q-11.8 1.2-24.85 3.6l-14 2.75-5.9-1.9 48.85-11.05-55.6 8.95q-1.55-2.5-9.9-5.6l-.75 27.8q-6.25-5.4-20.2-5.1l-3-29.75m56.4 73.9q-3.35-.5-6.7-1.95l-7.7-5.6 2.35-6.2q3.25-10.15 2.55-21.05-.95-14.2-.4-22.45 6.4 3.2 10.2 10.55l-.3 46.7" fill="url(#p)" fill-rule="evenodd" transform="translate(.1 .1)"/><path d="m64.2 62.4 5.9 1.9q-.55 8.25.4 22.45.7 10.9-2.55 21.05L65.6 114l-.35 1.15q-.05-5.65-.8-9.55-.65-3.3-1.85-5.4l-2.65-3.9v-3.55h-.3q2.65-6.1 3.55-13.7.85-7.6 1-16.65" fill="#764203" fill-rule="evenodd" transform="translate(.1 .1)"/><path d="m46.8 82.5.75-27.8q8.35 3.1 9.9 5.6-1.5 10.65-3.4 19.45-1.55 7.05-.4 9.25-3.5-5.45-6.85-6.5" fill="url(#q)" fill-rule="evenodd" transform="translate(.1 .1)"/><path d="m281.1 12.3-18.35-3.25-8.3.95V6.25l-3.9-1.4m-16.3-3.75.4-1-.2 1.1q8.9 1.45 15.75 3.65M125.1 18h-.1l-15.95 3.35-2.25.45M26.7 77.5q13.95-.3 20.2 5.1m244.25-65.3-9.8-5h-.25M125.3 18q42.65-9.05 86.25-15.1l22.7-1.8m56.9 16.2 7.35 6.95q1.2 15.5 3.25 33.65-36.7 7.75-73.35 17.7-50.35 13.6-100.8 31.35-14.05 4.9-28.15 10.2l-9.25 3.5q-5.05 1.7-10.1 1-3.35-.5-6.7-1.95l-7.7-5.6-.35 1.15q-.05-5.65-.8-9.55-.65-3.3-1.85-5.4l-2.65-3.9v-3.55H57l-3.25-3.75q-3.5-5.45-6.85-6.5M125.3 18h-.2M.1 50.6l2 12.1q2.55 3 4.1 7.65-2.15.8-2.65 3.15L7.5 87.4q7-10.15 19.2-9.9M.1 50.6l3.15-3.9q49.2-13.75 103.55-24.9" fill="none" stroke="#451b01" stroke-linecap="round" stroke-linejoin="round" stroke-width=".25"/></g><use width="26.2" height="40.85" xlink:href="#f" id="c"/><use width="28.4" height="48.05" xlink:href="#k" id="e"/><use width="301.85" height="121.95" xlink:href="#l" id="b"/><path d="M14.05-19.5q-5-2.35-8.9-.65-8.1-.5-14 11.65-3.8 7.4-3.85 17.3 0 9.5 7.5 14.85l-2.3.25q-6.9-3.8-6.7-17.8 1-13.45 6.4-22.65 5.65-8.75 18.05-7.25 4.75 1.55 3.8 4.3" fill="#9d1b43" fill-opacity=".298" fill-rule="evenodd" transform="translate(14.2 24)" id="k"/></defs></svg>