<svg viewBox="0 0 212.05 97.85" xmlns="http://www.w3.org/2000/svg" xmlns:xlink="http://www.w3.org/1999/xlink"><use transform="translate(.02 .025)" width="212" height="97.8" xlink:href="#a"/><defs><g id="a"><path d="m319.35 134.3.25-.1-.05.2-.2-.1m81.1-26.8.25-.3.05.15-.3.15" fill="#c08202" fill-rule="evenodd" transform="translate(-261.1 -60.3)"/><path d="m300.1 126.75 9.9 3.9 9.3 3.65h.05l.2.1 8.25 3.2 64.5-26.75 6.25-2.6v.05l1.9-.8.3-.15 4.5-1.85 22.05-9.15 6.95-2.9h.05l1.8-.75 6.3-2.65 1.9-.75 4.05-1.7 24.75-10.25V97.8l-26.5 11-9.8 4.1-2.55-19.45 2.55 19.45-36.35 15.05-72.65 30.15-8.2-3.2-19.05-7.5-39.45-15.45v-20.5l35.55 13.95 3.45 1.35.45 20.65-.45-20.65M444.3 89.3q-1.45 9.75 2.3 19.5-3.75-9.75-2.3-19.5m-43.85 38.65V107.5v20.45m-81.15 6.35.3 20.6-.3-20.6" fill="#595b38" fill-rule="evenodd" transform="translate(-261.1 -60.3)"/><path d="m430.85 62.9-5.45 4.7-12.55 11-14.05 10.05q-7.45 4.95-17.8 10-13.6 6.65-17.65 9.6-8.95 6.3-16.1 9.25l-19.35 7.6q-6.3 3.65-10.15 4.25l-7.75 1.3-9.9-3.9.6-.5q44.95-40.1 126.45-64.6l3.7 1.25m9.5 3.25q-1.5 1.05-3.35 2.45l-10.35 7.9-1.55 1.2-2.6 1.9-12.9 9.15q-4.85 3.35-8.05 7.35l-5.3 7.3q-1.35 1.8-3.95 7.45l-64.5 26.75-8.25-3.2.15.05q6.15-1.9 14.25-5.1l24.2-10.35q18.05-7.15 23.5-11 10.8-7.8 14.5-11.05 3.95-2.4 7.7-5.2l13.4-10.25q3.95-2.9 12.85-10.75l6.5-5.9 3.75 1.3m2.05 23.9-6.3 2.65.65-.3 4.35-7.55 7.35-9.3 3.95-5.3 1.6.55-2.35 2.85q-4.5 7.15-5.4 8-.75.8-3.1 6.55l-.75 1.85m4.8-21.55q-3.65 4.2-9.95 13.15-7.3 10.4-9.95 14.7l-22.05 9.15L414 94q3-3.4 19.7-16.15l3.8-2.9 4.1-3.2 4.55-3.6 1.05.35m1.15 19.1.55-.25q.85-2.05 1.25-2.45 1.8-1.7 2.95-4.15 1.15-2.5 2.15-3.5l5-4.3 12.85 4.4-24.75 10.25m-45.5-20.9q-5.6 2.1-13.7 5.4-18.1 7.5-41 16.3-8.95 3.5-30.3 18.9-15.9 11.5-21.2 18.1l-35.55-13.95L402.85 66.7m-14.3 17.6q-.75-2.55-2.7-2.55-1.35 0-3.45 2l-2.9 2.75-2.7 1.45-5.65 2.25-.4.05q-6.3.8-18.65 4.6-7.3 2.2-15.3 9.75-7.8 7.3-7.8 11.4 0 3.5 3.85 3.5 8.1 0 32.9-15.4Q389 91.15 389 87.1l-.3-2.35-.15-.45.6-.15-.45.6.45-.6-.6.15M352 104.6l-4.65 1.55.15-.15q2-1.5 6.45-3.35-1.2 1-1.95 1.95.75-.95 1.95-1.95 2.9-1.25 6.8-2.65-4.45 2.8-8.75 4.6" fill="#fefcfb" fill-rule="evenodd" transform="translate(-261.1 -60.3)"/><path d="m310 130.65 7.75-1.3q3.85-.6 10.15-4.25l19.35-7.6q7.15-2.95 16.1-9.25 4.05-2.95 17.65-9.6 10.35-5.05 17.8-10l14.05-10.05 12.55-11 5.45-4.7 5.15 1.75q-17.85 14.45-39.05 28-8.55 5.45-17.7 10.8l-10.15 5.8q-20.95 11.7-44.55 22.7l-4.95 2.25-.25.1h-.05l-9.3-3.65m117.15-69q-81.5 24.5-126.45 64.6l-.6.5-3.45-1.35q5.3-6.6 21.2-18.1 21.35-15.4 30.3-18.9 22.9-8.8 41-16.3 8.1-3.3 13.7-5.4l20.25-6.4 4.05 1.35m-34.85 49.2q2.6-5.65 3.95-7.45l5.3-7.3q3.2-4 8.05-7.35l12.9-9.15 2.6-1.9 1.55-1.2L437 68.6q1.85-1.4 3.35-2.45l5.5 1.9q-14.05 9.2-25.9 19.7-10.5 9.2-19.25 19.45l-.25.3-.95.4-.95.35.95-.35-.95.4v-.05l-6.25 2.6m42-17.4h-.05l-6.95 2.9q2.65-4.3 9.95-14.7 6.3-8.95 9.95-13.15l3.9 1.3q-8.65 11.15-16 22.4l-.8 1.25m10-4.15-1.9.75.75-1.85q2.35-5.75 3.1-6.55.9-.85 5.4-8L454 70.8l2.5.85q-6.15 8.3-11.6 16.7l-.6.95m-73.15.9 5.65-2.25q6.35-2.35 11.75-3.65l.15.45q-14.25 18.35-56.25 34.65 1-8.1 16-18.2 12.4-6.75 22.7-11m-17.2 12.45q-4.45 1.85-6.45 3.35l-.15.15 4.65-1.55q-1.3 1.5-1.45 2.9 15.75-6.15 20.95-13.05-6 1.4-15 6.3l-2.55 1.9" fill="#cab7a5" fill-rule="evenodd" transform="translate(-261.1 -60.3)"/><path d="m169.75 2.6-3.7-1.25q-81.5 24.5-126.45 64.6l-.6.5.45 20.65L0 71.65v-20.5M58.2 74h.05l.25-.1 4.95-2.25q23.6-11 44.55-22.7l10.15-5.8q9.15-5.35 17.7-10.8 21.2-13.55 39.05-28l-5.15-1.75m9.5 3.25-3.75-1.3M58.45 74.1l8.25 3.2 64.5-26.75m6.25-2.6.95-.35.95-.4.25-.3q8.75-10.25 19.25-19.45 11.85-10.5 25.9-19.7l-5.5-1.9m-4.35-1.5.6.2m-2.35 28.6 2.55 19.45m9.8-4.1q-3.75-9.75-2.3-19.5l4.05-1.7L212 17.05l-12.85-4.4-3.75-1.3-2.5-.85-1.6-.55-1.3-.45m-16.8 23.65.8-1.25q7.35-11.25 16-22.4m5.4 1.85q-6.15 8.3-11.6 16.7l-.6.95M141.75 6.4 162 0l4.05 1.35M212 17.05V37.5l-26.5 11M141.75 6.4 0 51.15M127.45 24l.6-.15-.45.6Q113.35 42.8 71.35 59.1q1-8.1 16-18.2 12.4-6.75 22.7-11l5.65-2.25q6.35-2.35 11.75-3.65m11.9 23.2v20.45L175.7 52.6m-84.8-8.3q.75-.95 1.95-1.95l2.55-1.9q9-4.9 15-6.3-5.2 6.9-20.95 13.05.15-1.4 1.45-2.9m48.45 23.35L66.7 97.8l-8.2-3.2-19.05-7.5m19-13-.2-.1m.25 20.6L58.2 74" fill="none" stroke="#000" stroke-linecap="round" stroke-linejoin="round" stroke-opacity=".302" stroke-width=".05"/></g></defs></svg>