<svg viewBox="0 0 261.8 90.5" xmlns="http://www.w3.org/2000/svg" xmlns:xlink="http://www.w3.org/1999/xlink"><g transform="translate(-123.98 -166.48)"><use transform="translate(124 166.5)" width="261.75" height="90.45" xlink:href="#a"/><use transform="translate(294.25 189.9)" width="30.35" height="10.95" xlink:href="#b"/><use transform="matrix(.6082 .1629 -.1629 .6082 322.77 225.27)" width="30.35" height="10.95" xlink:href="#b"/><use transform="matrix(.9311 .2495 -.3514 1.3115 339.31 202.22)" width="30.35" height="10.95" xlink:href="#b"/><use transform="translate(166.88 181.21) scale(.8232)" width="30.35" height="10.95" xlink:href="#b"/><use transform="matrix(.9178 0 0 .581 223.85 185.58)" width="30.35" height="10.95" xlink:href="#b"/><use transform="translate(295.17 212.13) scale(.7015)" width="30.35" height="10.95" xlink:href="#b"/></g><defs><g id="a"><path d="m164.2 195.3 17.35-4.1 5.65-1.3 5.45-1.25 10.3-2.45 9.3-2.15 4.2-.95 42.3 9.15.5.15q6.65 1.65 18.15 6.35-1.05.8-.65 1.9 40.3 12.85 67.65 29.5l.6.35-12.5 3.4h-.05l-18.95-3.55q-5.9-1.2-15.6-5.15-10.65-4.3-10.65-6.2l.05-.5-3.95-1.05-11.25-3.1-9.15-5.75q-7.3-4.6-12.95-4.6-2.5 0-2.5 2.4 0 .9.5 1.6.55.7 1.65 1.1l2.3.55 9.7 4q28.8 11.55 62.95 22.2l.3.1-8.85 2.35-75.95-21.5-.25-.2q-19.55-15.6-47.2-27.95 27.65 12.35 47.2 27.95l.25.2-35.3-10.05h-.05l-.85-.85q-7.7-8.05-16.7-16 9 7.95 16.7 16l.85.85-10.45-2.95-.6-.65q-5.7-6-12.15-11.95 6.45 5.95 12.15 11.95l.6.65-30.1-8.5m109.2.1 32.95 7.1.9.2 12 2.6h.1l1.7.35 4 .9 7.35 1.6h.15l10.05 2.2.5.1h.05l42.6 9.15-31.05 8.35q-10.75-5.6-16.05-7.7-4.55-1.9-11.15-5.3-6.05-3.1-11-5.05-16.2-6.3-24.15-8.5l-10.45-1.95q-7.6-1.8-8.5-4.05m-21.45 14.25 3.15.75q3.1.8 6.55 3.25l-9.7-4m-39.7-25.6q35.55 7.3 64.5 16.6-28.95-9.3-64.5-16.6m94.1 18.45.9.2-.9-.2m-34.65 6.05-1.3-1.05q6.25 1 15.7 4.5 5.75 2.65 6.2 4.8l-4.55-1.3q-.5.7-.5 1.55 0 .5 1 1.4 10.25 3.45 22.95 6.85l-.65-1.75q-2.2-4.15-11.35-8.9l-.5-.2q-4.45-1.45-6.95-2.85l-1.75-.9 4.45 1.6q2.55 1.2 4.75 2.35-2.2-1.15-4.75-2.35l-4.45-1.6q-2.85-1.45-5.45-2.2-3.6-1.1-5.4-2-3.45-1.8-9.5-4.4-7.15-3.1-8.65-3.1-2.4 0-2.5 2.35v.2q0 1.8 11.2 6.2l2 .8q4.95 3.6 16.05 6.95-11.1-3.35-16.05-6.95m16.55 9.9q-25.8-8.8-36.3-18.3l6.55 1.2-6.55-1.2q10.5 9.5 36.3 18.3m-85.3-32.25q20.4 11.25 45.05 21.8-24.65-10.55-45.05-21.8" fill="#db9c35" fill-rule="evenodd" transform="translate(-124 -166.5)"/><path d="m258.75 192.25-.05-.05.45.1 14.25 3.1q.9 2.25 8.5 4.05l10.45 1.95q7.95 2.2 24.15 8.5 4.95 1.95 11 5.05 6.6 3.4 11.15 5.3 5.3 2.1 16.05 7.7l-9.65 2.55H345l-.6-.35q-27.35-16.65-67.65-29.5-.4-1.1.65-1.9-11.5-4.7-18.15-6.35l-.5-.15.4.05-.4-.05m62.3 13.4H321l4.05.85v.05l-4-.9m3.9 30.3h-.05l-.3-.1q-34.15-10.65-62.95-22.2-3.45-2.45-6.55-3.25l-3.15-.75L248 208l3.95 1.65-2.3-.55q-1.1-.4-1.65-1.1-.5-.7-.5-1.6 0-2.4 2.5-2.4 5.65 0 12.95 4.6l9.15 5.75 11.25 3.1 3.95 1.05-.05.5q0 1.9 10.65 6.2 9.7 3.95 15.6 5.15l18.95 3.55-7.5 2.05m-37.2-20.45 4.55 1.3q-.45-2.15-6.2-4.8-9.45-3.5-15.7-4.5l1.3 1.05-2-.8q-11.2-4.4-11.2-6.2v-.2q.1-2.35 2.5-2.35 1.5 0 8.65 3.1 6.05 2.6 9.5 4.4 1.8.9 5.4 2 2.6.75 5.45 2.2l1.75.9q2.5 1.4 6.95 2.85l.5.2q9.15 4.75 11.35 8.9l.65 1.75q-12.7-3.4-22.95-6.85-1-.9-1-1.4 0-.85.5-1.55m-29.25-14.15q13.45 2.9 31.5 9.35-18.05-6.45-31.5-9.35" fill="#e3b459" fill-rule="evenodd" transform="translate(-124 -166.5)"/><path d="M385.75 219.6v14.65l-41.2 11-19.95 5.35-8.55 2.3-75.95-21.5-37.95-10.75-10.25-2.9-27.7-7.85v-14.6l30.1 8.5 10.45 2.95h.05l35.3 10.05 75.95 21.5 8.85-2.35h.05l7.5-2.05h.05l12.5-3.4h.05l9.65-2.55 31.05-8.35m-41.2 25.65.5-14.75-.5 14.75M240.1 231.4v-14.6 14.6m84.5 19.2.35-14.65-.35 14.65m-132.7-32.85q3.9-7 2.4-13.95 1.5 6.95-2.4 13.95m12.9-11-2.65 13.9 2.65-13.9" fill="#764203" fill-rule="evenodd" transform="translate(-124 -166.5)"/><path d="M116.1 64.9 78.15 54.15l2.65-13.9m-12.9 11L40.2 43.4V28.8l17.35-4.1 5.65-1.3q9 7.95 16.7 16l.85.85m-12.1-18.1 10.3-2.45 9.3-2.15 4.2-.95M200.9 69.45h.05M116.1 50.3v14.6m31.6-22.85L146.4 41q6.25 1 15.7 4.5 5.75 2.65 6.2 4.8l-4.55-1.3m.5 2.95q10.25 3.45 22.95 6.85l-.65-1.75q-2.2-4.15-11.35-8.9-2.2-1.15-4.75-2.35L166 44.2q-18.05-6.45-31.5-9.35l-6.55-1.2q10.5 9.5 36.3 18.3m-16.55-9.9q4.95 3.6 16.05 6.95m-47.65 1.3-.25-.2Q96.3 34.5 68.65 22.15M70.3 37.3q1.5 6.95-2.4 13.95M57.55 24.7Q64 30.65 69.7 36.65l.6.65-30.1-8.5" fill="none" stroke="#000" stroke-linecap="round" stroke-linejoin="round" stroke-opacity=".302" stroke-width=".05"/><path d="m221.05 64-.5 14.75m-19.6-9.3-.35 14.65" fill="none" stroke="#513315" stroke-linecap="round" stroke-linejoin="round" stroke-width=".05"/><path d="M261.75 53.1v14.65l-41.2 11-19.95 5.35-8.55 2.3-75.95-21.5M92.45 16.6l42.3 9.15m.4.05 14.25 3.1 32.95 7.1m.9.2 12 2.6m.1 0 1.7.35m4 .9 7.35 1.6m.15 0 10.05 2.2m.55.1 42.6 9.15M124 41.5l3.95 1.65m9.7 4q28.8 11.55 62.95 22.2l.3.1-8.85 2.35-75.95-21.5M221 64l-.6-.35Q193.05 47 152.75 34.15q-28.95-9.3-64.5-16.6m46.9 8.25-.4-.05m48.5 10.45-.9-.2m18.7 4.05-4-.9M124 41.5Q99.35 30.95 78.95 19.7m58.7 27.45-9.7-4" fill="none" stroke="#815223" stroke-linecap="round" stroke-linejoin="round" stroke-width=".05"/><path d="m281.95 241.2 36.65-22.1 14.8 4.8L304 235l.15 14.45-.15.1-21.05-6-1-2.35" fill="#754203" fill-opacity=".4" fill-rule="evenodd" transform="translate(-124 -166.5)"/><path d="m325.35 201.7-.1 13.3-11.2 10.15-35.1 31.8-34.75-10.35-11.25-3.35-30.15-9-78.3-23.35-.5-13.4 33.9 9.3.2.05h-.05l21.95 6 .5.15-.15-.05 17.75 4.85 20.05 5.5.35.1.05.05 18.15 4.95q.5 7.9-3.75 14.85 4.25-6.95 3.75-14.85l9.25 2.55 8.8 2.4L279 240l11.35-9.55 4.95-4.15.55-.5 8.9-7.45 7.5-6.35.95-.75 12.15-9.55m-11.3 23.45q1.35-7-1.8-13.15 3.15 6.15 1.8 13.15M244.2 246.6q2.2-7.85 1.75-15.65.45 7.8-1.75 15.65m-41.4-12.35q1.6-7.75-4.7-16.45 6.3 8.7 4.7 16.45" fill="#764203" fill-rule="evenodd" transform="translate(-124 -166.5)"/><path d="m129 194.25 10.75-7.05 9.2 4.25Q177 204.6 198.1 217.8l-17.75-4.85-15.85-5.45q-14.6-5.7-22.35-8.65-8.8-3.35-13.15-4.6m17.65-11.55 5.6-3.65 7.95 2.6q9.2 3.15 14.3 3.85l2.3.55-1.3-.7-16.3-6.9-3.45-1.65 11.75-7.65q45.05 30.1 78.45 61.8l-9.25-2.55-8.95-5.25-13.25-7.45q-24.6-13.45-52.6-26.2l-15.25-6.8m24.85-16.2.95.2-.35.35-.25-.3-.15-.2-.2-.05m24.25 5.4 13.45 3 .05.1q-5.8-.85-13.5-3.1m77.55 17.3 52.05 12.5-12.15 9.55q-1.6-2.35-2.6-4.6-.8-1.85-10.6-6.4-9.95-4.15-14.4-6.35l-10.75-3.8-1.55-.9m-18.55 44.15-.2-.8.2.75.1.1 15.9 4.35q-3.3-2.95-4.75-3.25-2.9-.6-6-3-3.35-2.9-5-4.1-3.9-2.75-19.15-15.5l-10.25-7.75q-7.15-5.1-10.6-8l-7.65-6.5q6.3 2.7 12.9 5.2 4.45 1.85 10.55 6.65l9.45 7.25q11.35 7.15 31.7 15.2 11.65 4.6 18.4 6.5L279 240l-24.25-6.65m40.55-7.05.55-.5-.55.5m9.45-7.95q-2.6-4.7-11.85-11.8-9.2-7.05-20.5-13.45-4.05-2.25-16.45-7.35 30.5 9.45 56.3 26.25l-7.5 6.35m-33.25-.45q-32.5-11.25-52.15-27.05l-1-.8-1.6-1.3q33 4.55 41.1 9.55t12.8 8.95 9.75 13.55l-1.65-.5-7.25-2.4 7.25 2.4.6.4-7.85-2.8m-10.85-11.1-2.85-2.4-1.2-.75q-5.05-2.95-12.7-3.85l-2.95-.3q4.2 4.2 8.45 5.55t6.7 2.5q3.3 1.55 7.4 2.95-1.2-2.05-2.85-3.7" fill="#db9c35" fill-rule="evenodd" transform="translate(-124 -166.5)"/><path d="m272.45 189 .85.15v.05l-.85-.2m-114.4 17.85h.05l-.2-.05.15.05m21.95 6 .35.1.15.05-.5-.15" fill="#eccb8c" fill-rule="evenodd" transform="translate(-124 -166.5)"/><path d="m124 197.5 5-3.25q4.35 1.25 13.15 4.6 7.75 2.95 22.35 8.65l15.85 5.45-.35-.1-21.95-6-.15-.05-33.9-9.3m15.75-10.3 6.9-4.5 15.25 6.8q28 12.75 52.6 26.2l13.25 7.45 8.95 5.25-18.15-4.95-.05-.05-.35-.1-20.05-5.5q-21.1-13.2-49.15-26.35l-9.2-4.25m12.5-8.15 3.5-2.25 3.45 1.65 16.3 6.9 1.3.7-2.3-.55q-5.1-.7-14.3-3.85l-7.95-2.6m15.25-9.9 4-2.65.2.05.15.2.25.3.35-.35 23.3 5.2q7.7 2.25 13.5 3.1l-.05-.1 63.25 14.1.85.2 1.55.9 10.75 3.8q4.45 2.2 14.4 6.35 9.8 4.55 10.6 6.4 1 2.25 2.6 4.6l-.95.75q-25.8-16.8-56.3-26.25 12.4 5.1 16.45 7.35 11.3 6.4 20.5 13.45 9.25 7.1 11.85 11.8l-8.9 7.45-.55.5-4.95 4.15q-6.75-1.9-18.4-6.5-20.35-8.05-31.7-15.2l-9.45-7.25q-6.1-4.8-10.55-6.65-6.6-2.5-12.9-5.2l7.65 6.5q3.45 2.9 10.6 8l10.25 7.75q15.25 12.75 19.15 15.5 1.65 1.2 5 4.1 3.1 2.4 6 3 1.45.3 4.75 3.25l-15.9-4.35-.1-.1-.2-.75.2.8-8.8-2.4q-33.4-31.7-78.45-61.8m111.25 51.15 1.65.5q-5.05-9.6-9.75-13.55t-12.8-8.95-41.1-9.55l1.6 1.3 1 .8q19.65 15.8 52.15 27.05l7.85 2.8-.6-.4m-18.1-13.5q1.65 1.65 2.85 3.7-4.1-1.4-7.4-2.95-2.45-1.15-6.7-2.5t-8.45-5.55l2.95.3q7.65.9 12.7 3.85l1.2.75 2.85 2.4" fill="#e3b459" fill-rule="evenodd" transform="translate(-124 -166.5)"/><path d="m201.35 35.2-.1 13.3-11.2 10.15-35.1 31.8L120.2 80.1l-11.25-3.35-30.15-9L.5 44.4 0 31l5-3.25 10.75-7.05 6.9-4.5 5.6-3.65 3.5-2.25L43.5 2.65l4-2.65.95.2 23.3 5.2 13.45 3 63.25 14.1.85.2 52.05 12.5-12.15 9.55-.95.75-7.5 6.35m-50 15L155 73.5l11.35-9.55 4.95-4.15.55-.5 8.9-7.45m-48.8-32.6q30.5 9.45 56.3 26.25m-33.5 8.3 1.65.5q-5.05-9.6-9.75-13.55t-12.8-8.95-41.1-9.55l1.6 1.3 1 .8Q115 40.15 147.5 51.4l7.25 2.4m-42.05 8.1-8.95-5.25L90.5 49.2Q65.9 35.75 37.9 23l-15.25-6.8M74.1 51.3Q53 38.1 24.95 24.95l-9.2-4.25m18.3 19.65-.15-.05L0 31m136.65 9.3q1.65 1.65 2.85 3.7-4.1-1.4-7.4-2.95-2.45-1.15-6.7-2.5T116.95 33l2.95.3q7.65.9 12.7 3.85l1.2.75 2.85 2.4m-5.9 26.55-8.8-2.4-9.25-2.55-18.15-4.95-.05-.05m-.35-.1L74.1 51.3m-17.75-4.85L74.1 51.3m-17.75-4.85-.35-.1m65.95 18.1q-33.4-31.7-78.45-61.8m-9.45 37.7 21.95 6" fill="none" stroke="#815223" stroke-linecap="round" stroke-linejoin="round" stroke-width=".05"/><path d="M188.25 45.5q3.15 6.15 1.8 13.15m-68.1 5.8q.45 7.8-1.75 15.65M74.1 51.3q6.3 8.7 4.7 16.45m33.9-5.85q.5 7.9-3.75 14.85" fill="none" stroke="#513315" stroke-linecap="round" stroke-linejoin="round" stroke-width=".05"/></g><g id="b" fill-rule="evenodd"><path d="M-10.1 5.5q-.55-1.7-2-1.7Q-8.8-1.25.95-4q5.4-1.6 12.3-.15-20-4.75-28.4 7.6 4.2.15 5.05 2.05" fill="#605a0a" transform="translate(15.15 5.45)"/><path d="M13.25-4.15Q6.35-5.6.95-4-8.8-1.25-12.1 3.8q1.45 0 2 1.7 5.85-7.9 15.95-9.45l9.35.25-1.95-.45" fill="#96a419" transform="translate(15.15 5.45)"/></g></defs></svg>