<svg viewBox="0 0 221.6 104.85" xmlns="http://www.w3.org/2000/svg" xmlns:xlink="http://www.w3.org/1999/xlink"><use transform="translate(.03 .025)" width="221.55" height="104.8" xlink:href="#a"/><defs><g id="a"><path d="M371.9 100.65q15.7 10.8 16.75 19.5-44.6-17.8-59.25-37.8 16.9 4.05 42.5 18.3-25.6-14.25-42.5-18.3 14.65 20 59.25 37.8-1.05-8.7-16.75-19.5m30.5 35.45h-.05l-.3-.1q-72.9-34.1-121.65-74.55Q329.15 101.9 402.05 136l.3.1-8.85 3.55-75.95-32.3-.25-.3Q297.75 83.7 270.1 65.1q27.65 18.6 47.2 41.95l.25.3-35.3-15.05h-.05l-.85-1.3q-7.7-12.1-16.7-24 9 11.9 16.7 24l.85 1.3-10.45-4.45-.6-1q-5.7-9-12.15-17.9 6.45 8.9 12.15 17.9l.6 1-30.1-12.8 17.35-6.1 5.65-1.95 5.45-1.9 10.3-3.65 9.3-3.25q85.15 26.3 132.15 69.25l.6.55-.6-.55q-47-42.95-132.15-69.25l4.2-1.4 169.3 54.8-40.7 16.4h-.05l-20.05 8.1m-32.65-28.75q-.45-3.2-6.2-7.2-9.45-5.25-15.7-6.75 5.4 7.4 21.9 13.95-16.5-6.55-21.9-13.95 6.25 1.5 15.7 6.75 5.75 4 6.2 7.2" fill="#c08202" fill-rule="evenodd" transform="translate(-241.65 -56.8)"/><path d="M402.35 136.1h.05l20.05-8.1h.05l40.7-16.4v21.95L422 150.1l-19.95 8.05q-4.25 1.7-8.55 3.45l-75.95-32.3v-21.95 21.95l-37.95-16.15 2.65-20.85-2.65 20.85-10.25-4.35-27.7-11.8V75.05l30.1 12.8 10.45 4.45h.05l35.3 15.05 75.95 32.3 8.85-3.55m.05 0-.35 22.05.35-22.05m19.6 14 .5-22.1-.5 22.1M271.75 87.85q1.5 10.45-2.4 20.95 3.9-10.5 2.4-20.95" fill="#966601" fill-rule="evenodd" transform="translate(-241.65 -56.8)"/><path d="M130.25 43.85q-25.6-14.25-42.5-18.3 14.65 20 59.25 37.8-1.05-8.7-16.75-19.5M160.7 79.3h.05m20.05-8.1-.6-.55Q133.2 27.7 48.05 1.4l-9.3 3.25Q87.5 45.1 160.4 79.2l.3.1-8.85 3.55-75.95-32.3V72.5l75.95 32.3q4.3-1.75 8.55-3.45l.35-22.05M128.1 50.55Q111.6 44 106.2 36.6q6.25 1.5 15.7 6.75 5.75 4 6.2 7.2m93.45 4.25v21.95l-41.2 16.55-19.95 8.05m61.15-46.55L52.25 0l-4.2 1.4m132.8 69.8-.5 22.1M38.75 4.65 28.45 8.3q27.65 18.6 47.2 41.95l.25.3M40.6 35.5l-2.65 20.85L75.9 72.5M23 10.2q9 11.9 16.7 24l.85 1.3m-23.2-23.35q6.45 8.9 12.15 17.9l.6 1L0 18.25l17.35-6.1L23 10.2M0 18.25V40.2L27.7 52q3.9-10.5 2.4-20.95" fill="none" stroke="#000" stroke-linecap="round" stroke-linejoin="round" stroke-opacity=".302" stroke-width=".05"/></g></defs></svg>