<svg viewBox="0 0 44.2 124.8" xmlns="http://www.w3.org/2000/svg" xmlns:xlink="http://www.w3.org/1999/xlink"><g transform="translate(-321.88 -118.58)"><use transform="translate(321.9 118.6)" width="44.15" height="124.75" xlink:href="#a"/><use transform="matrix(-.614 0 0 -.614 335.69 183.89)" width="10.4" height="10.4" xlink:href="#b"/><use transform="translate(331.45 180.55)" width="2.25" height="2.25" xlink:href="#c"/></g><defs><radialGradient id="d" cx="0" cy="0" r="819.2" gradientTransform="matrix(0 .007 .007 0 329.05 179.05)" gradientUnits="userSpaceOnUse"><stop stop-color="#9cb7d6" offset="0"/><stop stop-color="#a3e2fa" offset=".455"/></radialGradient><radialGradient id="e" cx="0" cy="0" r="819.2" gradientTransform="matrix(0 .0063 .0063 0 327.05 180.75)" gradientUnits="userSpaceOnUse"><stop stop-color="#9cb7d6" offset="0"/><stop stop-color="#a3e2fa" offset=".455"/></radialGradient><radialGradient id="f" cx="0" cy="0" r="819.2" gradientTransform="matrix(0 .0077 .0077 0 330.35 177.15)" gradientUnits="userSpaceOnUse"><stop stop-color="#9cb7d6" offset="0"/><stop stop-color="#a3e2fa" offset=".455"/></radialGradient><radialGradient id="g" cx="0" cy="0" r="819.2" gradientTransform="matrix(0 .0034 .0034 0 342.3 179.8)" gradientUnits="userSpaceOnUse"><stop stop-color="#9cb7d6" offset="0"/><stop stop-color="#a3e2fa" offset=".455"/></radialGradient><radialGradient id="h" cx="0" cy="0" r="819.2" gradientTransform="matrix(0 -.007 .007 0 329.1 182.95)" gradientUnits="userSpaceOnUse"><stop stop-color="#9cb7d6" offset="0"/><stop stop-color="#a3e2fa" offset=".455"/></radialGradient><radialGradient id="i" cx="0" cy="0" r="819.2" gradientTransform="matrix(0 -.0063 .0063 0 327.1 181.25)" gradientUnits="userSpaceOnUse"><stop stop-color="#9cb7d6" offset="0"/><stop stop-color="#a3e2fa" offset=".455"/></radialGradient><radialGradient id="j" cx="0" cy="0" r="819.2" gradientTransform="matrix(0 -.0077 .0077 0 330.4 184.85)" gradientUnits="userSpaceOnUse"><stop stop-color="#9cb7d6" offset="0"/><stop stop-color="#a3e2fa" offset=".455"/></radialGradient><radialGradient id="k" cx="0" cy="0" r="819.2" gradientTransform="matrix(0 -.0034 .0034 0 342.35 182.2)" gradientUnits="userSpaceOnUse"><stop stop-color="#9cb7d6" offset="0"/><stop stop-color="#a3e2fa" offset=".455"/></radialGradient><radialGradient id="l" cx="0" cy="0" r="819.2" gradientTransform="rotate(30.073 -53.707 739.86) scale(.0104)" gradientUnits="userSpaceOnUse"><stop stop-color="#a2b7e8" offset="0"/><stop stop-color="#a3e2fa" offset=".596"/><stop stop-color="#dbf7fd" offset=".98"/></radialGradient><radialGradient id="m" cx="0" cy="0" r="819.2" gradientTransform="rotate(29.859 -78.671 736.1) scale(.0113)" gradientUnits="userSpaceOnUse"><stop stop-color="#a2b7e8" offset="0"/><stop stop-color="#a3e2fa" offset=".596"/><stop stop-color="#dbf7fd" offset=".98"/></radialGradient><radialGradient id="n" cx="0" cy="0" r="819.2" gradientTransform="matrix(.0053 .0031 -.0031 .0053 349.45 142.25)" gradientUnits="userSpaceOnUse"><stop stop-color="#a2b7e8" offset="0"/><stop stop-color="#a3e2fa" offset=".596"/><stop stop-color="#dbf7fd" offset=".98"/></radialGradient><radialGradient id="o" cx="0" cy="0" r="819.2" gradientTransform="matrix(.0216 .0125 -.0125 .0216 340.2 154.7)" gradientUnits="userSpaceOnUse"><stop stop-color="#a2b7e8" offset="0"/><stop stop-color="#a3e2fa" offset=".596"/><stop stop-color="#dbf7fd" offset=".98"/></radialGradient><radialGradient id="p" cx="0" cy="0" r="819.2" gradientTransform="matrix(.0155 .009 -.009 .0155 345.6 154.9)" gradientUnits="userSpaceOnUse"><stop stop-color="#a2b7e8" offset="0"/><stop stop-color="#a3e2fa" offset=".596"/><stop stop-color="#dbf7fd" offset=".98"/></radialGradient><radialGradient id="q" cx="0" cy="0" r="819.2" gradientTransform="rotate(29.592 -134.22 731.11) scale(.0069)" gradientUnits="userSpaceOnUse"><stop stop-color="#a2b7e8" offset="0"/><stop stop-color="#a3e2fa" offset=".596"/><stop stop-color="#dbf7fd" offset=".98"/></radialGradient><radialGradient id="r" cx="0" cy="0" r="819.2" gradientTransform="rotate(29.268 -137.789 725.925) scale(.0047)" gradientUnits="userSpaceOnUse"><stop stop-color="#a2b7e8" offset="0"/><stop stop-color="#a3e2fa" offset=".596"/><stop stop-color="#dbf7fd" offset=".98"/></radialGradient><radialGradient id="s" cx="0" cy="0" r="819.2" gradientTransform="rotate(29.592 -95.236 729.344) scale(.0046)" gradientUnits="userSpaceOnUse"><stop stop-color="#fff" offset="0"/><stop stop-color="#fff" stop-opacity="0" offset="1"/></radialGradient><radialGradient id="t" cx="0" cy="0" r="819.2" gradientTransform="matrix(-.0061 -.0035 .0035 -.0061 334.15 175.8)" gradientUnits="userSpaceOnUse"><stop stop-color="#9cb7d6" offset="0"/><stop stop-color="#a3e2fa" offset=".455"/></radialGradient><radialGradient id="u" cx="0" cy="0" r="819.2" gradientTransform="matrix(-.0055 -.0032 .0032 -.0055 331.7 176.65)" gradientUnits="userSpaceOnUse"><stop stop-color="#9cb7d6" offset="0"/><stop stop-color="#a3e2fa" offset=".455"/></radialGradient><radialGradient id="v" cx="0" cy="0" r="819.2" gradientTransform="matrix(-.0067 -.0039 .0039 -.0067 336.45 175.55)" gradientUnits="userSpaceOnUse"><stop stop-color="#9cb7d6" offset="0"/><stop stop-color="#a3e2fa" offset=".455"/></radialGradient><radialGradient id="w" cx="0" cy="0" r="819.2" gradientTransform="matrix(-.0029 -.0017 .0017 -.0029 340.2 163.95)" gradientUnits="userSpaceOnUse"><stop stop-color="#9cb7d6" offset="0"/><stop stop-color="#a3e2fa" offset=".455"/></radialGradient><radialGradient id="x" cx="0" cy="0" r="819.2" gradientTransform="matrix(.0061 .0035 .0035 -.0061 330.85 173.85)" gradientUnits="userSpaceOnUse"><stop stop-color="#9cb7d6" offset="0"/><stop stop-color="#a3e2fa" offset=".455"/></radialGradient><radialGradient id="y" cx="0" cy="0" r="819.2" gradientTransform="matrix(.0055 .0032 .0032 -.0055 331.3 176.4)" gradientUnits="userSpaceOnUse"><stop stop-color="#9cb7d6" offset="0"/><stop stop-color="#a3e2fa" offset=".455"/></radialGradient><radialGradient id="z" cx="0" cy="0" r="819.2" gradientTransform="matrix(.0067 .0039 .0039 -.0067 329.85 171.7)" gradientUnits="userSpaceOnUse"><stop stop-color="#9cb7d6" offset="0"/><stop stop-color="#a3e2fa" offset=".455"/></radialGradient><radialGradient id="A" cx="0" cy="0" r="819.2" gradientTransform="matrix(.0029 .0017 .0017 -.0029 338.1 162.7)" gradientUnits="userSpaceOnUse"><stop stop-color="#9cb7d6" offset="0"/><stop stop-color="#a3e2fa" offset=".455"/></radialGradient><radialGradient id="B" cx="0" cy="0" r="819.2" gradientTransform="matrix(.009 -.0052 -.0052 -.009 362.65 235.5)" gradientUnits="userSpaceOnUse"><stop stop-color="#a2b7e8" offset="0"/><stop stop-color="#a3e2fa" offset=".596"/><stop stop-color="#dbf7fd" offset=".98"/></radialGradient><radialGradient id="C" cx="0" cy="0" r="819.2" gradientTransform="matrix(.0098 -.0056 -.0056 -.0098 354.3 225.25)" gradientUnits="userSpaceOnUse"><stop stop-color="#a2b7e8" offset="0"/><stop stop-color="#a3e2fa" offset=".596"/><stop stop-color="#dbf7fd" offset=".98"/></radialGradient><radialGradient id="D" cx="0" cy="0" r="819.2" gradientTransform="matrix(.0053 -.0031 -.0031 -.0053 349.4 219.7)" gradientUnits="userSpaceOnUse"><stop stop-color="#a2b7e8" offset="0"/><stop stop-color="#a3e2fa" offset=".596"/><stop stop-color="#dbf7fd" offset=".98"/></radialGradient><radialGradient id="E" cx="0" cy="0" r="819.2" gradientTransform="matrix(.0216 -.0125 -.0125 -.0216 340.15 207.25)" gradientUnits="userSpaceOnUse"><stop stop-color="#a2b7e8" offset="0"/><stop stop-color="#a3e2fa" offset=".596"/><stop stop-color="#dbf7fd" offset=".98"/></radialGradient><radialGradient id="F" cx="0" cy="0" r="819.2" gradientTransform="matrix(.0155 -.009 -.009 -.0155 345.55 207.05)" gradientUnits="userSpaceOnUse"><stop stop-color="#a2b7e8" offset="0"/><stop stop-color="#a3e2fa" offset=".596"/><stop stop-color="#dbf7fd" offset=".98"/></radialGradient><radialGradient id="G" cx="0" cy="0" r="819.2" gradientTransform="matrix(.006 -.0034 -.0034 -.006 342.7 200.45)" gradientUnits="userSpaceOnUse"><stop stop-color="#a2b7e8" offset="0"/><stop stop-color="#a3e2fa" offset=".596"/><stop stop-color="#dbf7fd" offset=".98"/></radialGradient><radialGradient id="H" cx="0" cy="0" r="819.2" gradientTransform="matrix(.0041 -.0023 -.0023 -.0041 337.6 201.85)" gradientUnits="userSpaceOnUse"><stop stop-color="#a2b7e8" offset="0"/><stop stop-color="#a3e2fa" offset=".596"/><stop stop-color="#dbf7fd" offset=".98"/></radialGradient><radialGradient id="I" cx="0" cy="0" r="819.2" gradientTransform="matrix(.004 -.0023 -.0023 -.004 352.2 219.25)" gradientUnits="userSpaceOnUse"><stop stop-color="#fff" offset="0"/><stop stop-color="#fff" stop-opacity="0" offset="1"/></radialGradient><radialGradient id="J" cx="0" cy="0" r="819.2" gradientTransform="matrix(-.0061 .0035 .0035 .0061 334.1 186.15)" gradientUnits="userSpaceOnUse"><stop stop-color="#9cb7d6" offset="0"/><stop stop-color="#a3e2fa" offset=".455"/></radialGradient><radialGradient id="K" cx="0" cy="0" r="819.2" gradientTransform="matrix(-.0055 .0032 .0032 .0055 331.65 185.3)" gradientUnits="userSpaceOnUse"><stop stop-color="#9cb7d6" offset="0"/><stop stop-color="#a3e2fa" offset=".455"/></radialGradient><radialGradient id="L" cx="0" cy="0" r="819.2" gradientTransform="matrix(-.0067 .0039 .0039 .0067 336.4 186.4)" gradientUnits="userSpaceOnUse"><stop stop-color="#9cb7d6" offset="0"/><stop stop-color="#a3e2fa" offset=".455"/></radialGradient><radialGradient id="M" cx="0" cy="0" r="819.2" gradientTransform="matrix(-.0029 .0017 .0017 .0029 340.15 198)" gradientUnits="userSpaceOnUse"><stop stop-color="#9cb7d6" offset="0"/><stop stop-color="#a3e2fa" offset=".455"/></radialGradient><radialGradient id="N" cx="0" cy="0" r="819.2" gradientTransform="matrix(.0061 -.0035 .0035 .0061 330.85 188.1)" gradientUnits="userSpaceOnUse"><stop stop-color="#9cb7d6" offset="0"/><stop stop-color="#a3e2fa" offset=".455"/></radialGradient><radialGradient id="O" cx="0" cy="0" r="819.2" gradientTransform="matrix(.0055 -.0032 .0032 .0055 331.3 185.55)" gradientUnits="userSpaceOnUse"><stop stop-color="#9cb7d6" offset="0"/><stop stop-color="#a3e2fa" offset=".455"/></radialGradient><radialGradient id="P" cx="0" cy="0" r="819.2" gradientTransform="matrix(.0067 -.0039 .0039 .0067 329.85 190.25)" gradientUnits="userSpaceOnUse"><stop stop-color="#9cb7d6" offset="0"/><stop stop-color="#a3e2fa" offset=".455"/></radialGradient><radialGradient id="Q" cx="0" cy="0" r="819.2" gradientTransform="matrix(.0029 -.0017 .0017 .0029 338.1 199.25)" gradientUnits="userSpaceOnUse"><stop stop-color="#9cb7d6" offset="0"/><stop stop-color="#a3e2fa" offset=".455"/></radialGradient><radialGradient id="R" cx="0" cy="0" r="819.2" gradientTransform="translate(-2.1 3.3) scale(.0099)" gradientUnits="userSpaceOnUse"><stop stop-color="#07d9cb" offset="0"/><stop stop-color="#34fed7" offset=".604"/><stop stop-color="#56fef9" offset=".988"/></radialGradient><g id="a"><path d="M39.55 10.2v106.75" fill="none" stroke="#03c" stroke-linecap="round" stroke-linejoin="round" stroke-width=".05"/><path d="m330.4 181-4-4 1.05 4h2.95" fill="#7096c5" fill-rule="evenodd" transform="translate(-321.9 -118.6)"/><path d="m330 177.8-1.6 1.2 2 2h4.05l-2.85-4.4-1.6 1.2m4 3-2.45-3.8 2.45 3.8" fill="url(#d)" fill-rule="evenodd" transform="translate(-321.9 -118.6)"/><path d="m326.4 177-4.5 4h5.55l-1.05-4m.65 3.75-.8-3.3.8 3.3" fill="url(#e)" fill-rule="evenodd" transform="translate(-321.9 -118.6)"/><path d="m330 177.8 1.6-1.2 3.2 1.05-.3-5.25-5.2 3.65.7 1.75m4.5-.55-.2-4.2.2 4.2" fill="url(#f)" fill-rule="evenodd" transform="translate(-321.9 -118.6)"/><path d="m334.5 172.4.3 5.25 7.45 2.45-2-1.95-5.75-5.75" fill="#5f83be" fill-rule="evenodd" transform="translate(-321.9 -118.6)"/><path d="m340.25 178.15 2 1.95 1.35.45-1-3.5-2.35 1.1m3.05 2.15-.8-2.9.8 2.9" fill="url(#g)" fill-rule="evenodd" transform="translate(-321.9 -118.6)"/><path d="m331.6 176.6 2.85 4.4h10.5l-2.7-.9-7.45-2.45-3.2-1.05" fill="#82a4cc" fill-rule="evenodd" transform="translate(-321.9 -118.6)"/><path d="m343.6 180.55 1.35.45h2.1l-.2-.75-4.25-3.2 1 3.5" fill="#608abd" fill-rule="evenodd" transform="translate(-321.9 -118.6)"/><path d="M6.5 60.4 9.7 58m2.85 4.4H8.5l-4-4-4.5 4h8.5m-.4-3.2-.7-1.75 5.2-3.65m.3 5.25L9.7 58m8.65 1.55 2 1.95-7.45-2.45m8.8 2.9 1.35.45h-10.5m10.5 0h2.1l-.2-.75-4.25-3.2-2.35 1.1-5.75-5.75m9.1 8.15-1.35-.45" fill="none" stroke="#000" stroke-linecap="round" stroke-linejoin="round" stroke-opacity=".263" stroke-width=".05"/><path d="m4.35 58.85.8 3.3M20.6 58.8l.8 2.9m-9-7.25.2 4.2m-2.95-.25 2.45 3.8" fill="none" stroke="#fff" stroke-linecap="round" stroke-linejoin="round" stroke-width=".05"/><path d="M327.5 181h2.95l-4 4 1.05-4" fill="#7096c5" fill-rule="evenodd" transform="translate(-321.9 -118.6)"/><path d="m328.45 183 2-2h4.05l-2.85 4.4-3.2-2.4m5.6-1.8-2.45 3.8 2.45-3.8" fill="url(#h)" fill-rule="evenodd" transform="translate(-321.9 -118.6)"/><path d="m327.1 181.25-.8 3.3.8-3.3m.4-.25-1.05 4-4.5-4h5.55" fill="url(#i)" fill-rule="evenodd" transform="translate(-321.9 -118.6)"/><path d="m334.55 189.6-5.2-3.65.7-1.75 1.6 1.2 3.2-1.05-.3 5.25m0-4.85-.2 4.2.2-4.2" fill="url(#j)" fill-rule="evenodd" transform="translate(-321.9 -118.6)"/><path d="m340.3 183.85-5.75 5.75.3-5.25 7.45-2.45-2 1.95" fill="#5f83be" fill-rule="evenodd" transform="translate(-321.9 -118.6)"/><path d="m342.65 184.95-2.35-1.1 2-1.95 1.35-.45-1 3.5m.7-3.25-.8 2.9.8-2.9" fill="url(#k)" fill-rule="evenodd" transform="translate(-321.9 -118.6)"/><path d="M334.5 181H345l-2.7.9-7.45 2.45-3.2 1.05 2.85-4.4" fill="#82a4cc" fill-rule="evenodd" transform="translate(-321.9 -118.6)"/><path d="M345 181h2.1l-.2.75-4.25 3.2 1-3.5L345 181" fill="#608abd" fill-rule="evenodd" transform="translate(-321.9 -118.6)"/><path d="M8.55 62.4H5.6m-1.05 4 4-4H25.2l-.2.75-4.25 3.2-2.35-1.1L12.65 71l-5.2-3.65.7-1.75-1.6-1.2m-2 2-4.5-4H5.6m12.8 2.85 2-1.95-7.45 2.45-3.2 1.05-1.6-1.2m13.6-2.75 1.35-.45m-1.35.45-1.35.45" fill="none" stroke="#000" stroke-linecap="round" stroke-linejoin="round" stroke-opacity=".263" stroke-width=".05"/><path d="m4.4 65.95.8-3.3m4.5 3.75 2.45-3.8m.3 7.75.2-4.2m8-.15.8-2.9" fill="none" stroke="#fff" stroke-linecap="round" stroke-linejoin="round" stroke-width=".05"/><path d="m357.9 135.55 2.4-6.95-.75.4-3.3 1.7 4.55-3.55 2.1-.3-5 8.7m-4.75 3.6L349.2 147l-2.3 4.5-2.9 1.55-5.85 7.5.55-1.95 4-6.3q1.65-1 3.4-2.05l7.85-13.65 1.35-1.75-1.85 3.75-.3.55" fill="#82a4cc" fill-rule="evenodd" transform="translate(-321.9 -118.6)"/><path d="m359.55 129 .75-.4-2.4 6.95-1.65 4.85-2.45 2.3-4.6 4.3 3.95-7.85 2.2-.9.1-.25 4.1-9m-4.6 6.1.35-.25-1.35 1.75-1.4 1.8-2.85 1.8 3.45-5.95-.4 2.3q1.05-.75 2.2-1.45m-6.35 8.2-3.95 4.9 2.15-6.2 1.8 1.3m-12.65 17 1.65 2.25.15-.65.4-1.35 1.45 1.15 3.8-6.6.6-2.05 1.4 2.55 3.25-.75-2.3 2.3-1.3 1.2-3.65 3.6-.85.8-2.8 2.65 2.8-2.65 3.75-.15-5.25 2.5-1.3.3-1.4 1.3.65-2.2-1.05-4.2m5.45 1.65 2-6.85-2 6.85m-4.4 2.55.6-1.95-.6 1.95" fill="#5f83be" fill-rule="evenodd" transform="translate(-321.9 -118.6)"/><path d="m362.9 126.85-2.1.3-4.55 3.55v-.05l1.45-1.75 8.35-10.3-3.15 8.25m-.2-.4-1.7.15-3.3 2.3 3.3-2.3 1.7-.15" fill="url(#l)" fill-rule="evenodd" transform="translate(-321.9 -118.6)"/><path d="m356.25 130.7 3.3-1.7-4.1 9-.35.15-1.65.45 1.85-3.75-.35.25-1.8.9.1-2 1.5-2.55 1.5-.8v.05m2.65-.85-3.8 8.3 3.8-8.3" fill="url(#m)" fill-rule="evenodd" transform="translate(-321.9 -118.6)"/><path d="m355.45 138-.1.25-2.2.9.3-.55 1.65-.45.35-.15m.8-7.3v-.05.05m-3 3.3-.1 2 1.8-.9q-1.15.7-2.2 1.45l.4-2.3.1-.25m-.7 4.4 1.4-1.8-7.85 13.65q-1.75 1.05-3.4 2.05l-4 6.3.6-2 3.1-4.6q1.75-.95 3.45-1.95l6.7-11.65m-5.45 3.4 1.65 1.3-.15.2-1.8-1.3.3-.2m-3.1 11.25-.6 2.05-3.8 6.6-1.45-1.15 5.85-7.5m-1.25 2.25-3.25 5.7-.75-.45.75.45 3.25-5.7" fill="#b6e9fb" fill-rule="evenodd" transform="translate(-321.9 -118.6)"/><path d="m349.7 140.2 2.85-1.8-3.8 4.7-1.65-1.3 2.6-1.6" fill="url(#n)" fill-rule="evenodd" transform="translate(-321.9 -118.6)"/><path d="m348.75 143.1 3.8-4.7-6.7 11.65q-1.7 1-3.45 1.95l-3.1 4.6.75-2.6 4.6-5.8 3.95-4.9.15-.2" fill="url(#o)" fill-rule="evenodd" transform="translate(-321.9 -118.6)"/><path d="m349.2 147 4.6-4.3-5.15 12.15-3.25.75-1.4-2.55 2.9-1.55 2.3-4.5m.3.3 3.45-3.4-3.45 3.4m-1.3 7.05-2.6.55-1.1-1.6 1.1 1.6 2.6-.55" fill="url(#p)" fill-rule="evenodd" transform="translate(-321.9 -118.6)"/><path d="m341.4 161.95 3.65-3.6 1.3-1.2-2.05 5.45-3.75.15.85-.8m2.35.05-2.15.3 3.45-3.95-3.45 3.95 2.15-.3" fill="url(#q)" fill-rule="evenodd" transform="translate(-321.9 -118.6)"/><path d="m339.3 156.6-.6 2-.55 1.95-.4 1.35-.15.65-1.65-2.25 3.35-3.7m-3 3.75 1.45 1.55-1.45-1.55" fill="url(#r)" fill-rule="evenodd" transform="translate(-321.9 -118.6)"/><path d="m37.65 10.4.75-.4-2.4 6.95 5-8.7m-6.65 3.85 3.3-1.7m-6.4 10.15L27.3 28.4l4.6-4.3 2.45-2.3L36 16.95m-1.65-4.9 1.45-1.75L44.15 0 41 8.25m-6.65 3.8v.05m0-.05-1.5.8-1.5 2.55m2.05.85L31.55 20l-.3.55m0-4.9.1-.25m-3.55 6.2 2.85-1.8 1.4-1.8 1.35-1.75m-2.15-.6L27.8 21.6l-2.6 1.6m1.65 1.3 3.8-4.7M17.4 38l-.6 2m5.95-10.4 3.95-4.9.15-.2m-1.95-1.1-2.15 6.2-4.6 5.8-.75 2.6-3.35 3.7m1.65 2.25.15-.65.4-1.35.55-1.95m8.1-16.6.3-.2m-3.1 11.25L25 32.9l2.3-4.5m-.55 7.85L31.9 24.1m-9.8 10.35-.6 2.05-2 6.85 3.65-3.6 1.3-1.2 2.3-2.3m-8.1 7.9.85-.8m-3.25-1.4 5.85-7.5m.3 9.55-5.25 2.5-1.3.3-1.4 1.3.65-2.2-1.05-4.2m1.8 5.1 2.8-2.65M22.4 44l2.05-5.45m-8.75 5.4-.6 1.95" fill="none" stroke="#000" stroke-linecap="round" stroke-linejoin="round" stroke-opacity=".251" stroke-width=".05"/><path d="M35.8 10.3 39.1 8l1.7-.15m-9.45 7.55-.1 2 1.8-.9m-1.5 3.5 1.65-.45 3.8-8.3m-3.45 8.15-.35.15m-8 3.65 1.65 1.3m3.8-4.7-6.7 11.65q-1.7 1-3.45 1.95L17.4 38m-1.55 5.3-1.45-1.55m8.2-7.05 1.1 1.6 2.6-.55m4.75-10.45-3.45 3.4M16.85 41.95l.75.45 3.25-5.7m2.3 3.05L19.7 43.7l2.15-.3" fill="none" stroke="#fff" stroke-linecap="round" stroke-linejoin="round" stroke-width=".05"/><path d="M355.45 144.6q-.75 1.35-2.25 1.75t-2.8-.35q-1.35-.8-1.75-2.3-.4-1.45.35-2.8.8-1.3 2.3-1.75 1.5-.4 2.85.4 1.3.75 1.7 2.25t-.4 2.8" fill="url(#s)" fill-rule="evenodd" transform="translate(-321.9 -118.6)"/><path d="m333.15 173.65.7 2.75.75 2.7-2.9-2.9 1.45-2.55" fill="#7096c5" fill-rule="evenodd" transform="translate(-321.9 -118.6)"/><path d="m335.7 175.6-1.85.8-.7-2.75 2.05-3.5 2.4 4.65-1.9.8m-.6-4.95 2.1 4-2.1-4" fill="url(#t)" fill-rule="evenodd" transform="translate(-321.9 -118.6)"/><path d="m334.6 179.1-5.7 1.9 2.8-4.8 2.9 2.9m-2.9-2.45 2.45 2.35-2.45-2.35" fill="url(#u)" fill-rule="evenodd" transform="translate(-321.9 -118.6)"/><path d="m335.7 175.6 1.9-.8.7-3.35 4.4 2.95-5.8 2.7-1.2-1.5m2.8-3.6 3.55 2.25-3.55-2.25" fill="url(#v)" fill-rule="evenodd" transform="translate(-321.9 -118.6)"/><path d="m342.7 174.4-4.4-2.95 1.55-7.6.7 2.7 2.15 7.85" fill="#5f83be" fill-rule="evenodd" transform="translate(-321.9 -118.6)"/><path d="m340.55 166.55-.7-2.7.3-1.45 2.55 2.65-2.15 1.5m-.3-3.75 2.05 2.15-2.05-2.15" fill="url(#w)" fill-rule="evenodd" transform="translate(-321.9 -118.6)"/><path d="m337.6 174.8-2.4-4.65 5.25-9.15-.3 1.4-.3 1.45-1.55 7.6-.7 3.35" fill="#82a4cc" fill-rule="evenodd" transform="translate(-321.9 -118.6)"/><path d="m340.15 162.4.3-1.4 1.05-1.8.55.55.65 5.3-2.55-2.65" fill="#608abd" fill-rule="evenodd" transform="translate(-321.9 -118.6)"/><path d="m11.95 57.8 1.85-.8 1.9-.8m-2.4-4.65-2.05 3.5.7 2.75.75 2.7L7 62.4l2.8-4.8 1.45-2.55M13.8 57l1.2 1.5 5.8-2.7m-4.4-2.95-.7 3.35m2.95-8.25-.7-2.7-1.55 7.6m1.85-9.05.3-1.4-5.25 9.15m5.25-9.15 1.05-1.8.55.55.65 5.3-2.15 1.5 2.15 7.85m-2.55-12-.3 1.45" fill="none" stroke="#000" stroke-linecap="round" stroke-linejoin="round" stroke-opacity=".263" stroke-width=".05"/><path d="M12.25 60.4 9.8 58.05m10.6-11.7-2.05-2.15m1.8 11.45L16.6 53.4m-1.3 2.65-2.1-4" fill="none" stroke="#fff" stroke-linecap="round" stroke-linejoin="round" stroke-width=".05"/><path d="m331.7 176.15 1.45-2.55-2.7.75-2.75.7 4 1.1" fill="#7096c5" fill-rule="evenodd" transform="translate(-321.9 -118.6)"/><path d="m330.45 174.35 2.7-.75 2.05-3.5-5.2.25.2 2 .25 2m4.35-3.95-4.5.2 4.5-.2" fill="url(#x)" fill-rule="evenodd" transform="translate(-321.9 -118.6)"/><path d="m331.3 176.4-3.25-.95 3.25.95m.4-.25-4-1.1 1.2 5.9 2.8-4.8" fill="url(#y)" fill-rule="evenodd" transform="translate(-321.9 -118.6)"/><path d="m327.8 165.75.5 6.3 1.9.3-.2-2 2.5-2.25-4.7-2.35m4.2 2.4-3.75-1.95 3.75 1.95" fill="url(#z)" fill-rule="evenodd" transform="translate(-321.9 -118.6)"/><path d="m335.65 163.6-7.85 2.15 4.7 2.35 5.85-5.2-2.7.7" fill="#5f83be" fill-rule="evenodd" transform="translate(-321.9 -118.6)"/><path d="m335.9 161-.25 2.6 2.7-.7 1.1-.95-3.55-.95m3.15 1.05-2.95-.75 2.95.75" fill="url(#A)" fill-rule="evenodd" transform="translate(-321.9 -118.6)"/><path d="m335.2 170.1 5.25-9.15-1 1-1.1.95-5.85 5.2-2.5 2.25 5.2-.25" fill="#82a4cc" fill-rule="evenodd" transform="translate(-321.9 -118.6)"/><path d="m340.45 160.95 1.05-1.8-.75-.15-4.85 2 3.55.95 1-1" fill="#608abd" fill-rule="evenodd" transform="translate(-321.9 -118.6)"/><path d="M11.25 55 9.8 57.55m-4-1.1 2.75-.7 2.7-.75 2.05-3.5 5.25-9.15 1.05-1.8-.75-.15-4.85 2-.25 2.6-7.85 2.15.5 6.3 1.9.3.25 2m-2.75.7 1.2 5.9 2.8-4.8M13.75 45l2.7-.7-5.85 5.2-2.5 2.25.2 2m9.25-10.4 1-1m-1 1-1.1.95" fill="none" stroke="#000" stroke-linecap="round" stroke-linejoin="round" stroke-opacity=".263" stroke-width=".05"/><path d="m6.15 56.85 3.25.95m-1-5.8 4.5-.2m-6.55-4.2 3.75 1.95m4.1-6.85 2.95.75" fill="none" stroke="#fff" stroke-linecap="round" stroke-linejoin="round" stroke-width=".05"/><path d="m357.85 226.4 2.4 6.95-.75-.4-3.3-1.7 4.55 3.55 2.1.3-5-8.7m-4.75-3.6-3.95-7.85-2.3-4.5-2.9-1.55-5.85-7.5.55 1.95 4 6.3 3.4 2.05 7.85 13.65 1.35 1.75-1.85-3.75-.3-.55" fill="#82a4cc" fill-rule="evenodd" transform="translate(-321.9 -118.6)"/><path d="m359.5 232.95.75.4-2.4-6.95-1.65-4.85-2.45-2.3-4.6-4.3 3.95 7.85 2.2.9.1.25 4.1 9m-4.6-6.1.35.25-1.35-1.75-1.4-1.8-2.85-1.8 3.45 5.95-.4-2.3 2.2 1.45m-8.15-6.9 1.8-1.3-3.95-4.9 2.15 6.2m-3.4-13.1.6 2.05 1.4-2.55 3.25.75-2.3-2.3-1.3-1.2-3.65-3.6 2 6.85-2-6.85-.85-.8-2.8-2.65-1.4-1.3.65 2.2-1.05 4.2 1.65-2.25.15.65.4 1.35 1.45-1.15 3.8 6.6m.9-7.5-5.25-2.5-1.3-.3 2.8 2.65 3.75.15m-7.3-1.9.6 1.95-.6-1.95" fill="#5f83be" fill-rule="evenodd" transform="translate(-321.9 -118.6)"/><path d="m362.65 235.5-1.7-.15-3.3-2.3 3.3 2.3 1.7.15m.2-.4-2.1-.3-4.55-3.55v.05l1.45 1.75 8.35 10.3-3.15-8.25" fill="url(#B)" fill-rule="evenodd" transform="translate(-321.9 -118.6)"/><path d="m356.2 231.25 3.3 1.7-4.1-9-.35-.15-1.65-.45 1.85 3.75-.35-.25-1.8-.9.1 2 1.5 2.55 1.5.8v-.05m2.65.85-3.8-8.3 3.8 8.3" fill="url(#C)" fill-rule="evenodd" transform="translate(-321.9 -118.6)"/><path d="m355.4 223.95-.1-.25-2.2-.9.3.55 1.65.45.35.15m-.5 2.9-2.2-1.45.4 2.3.1.25-.1-2 1.8.9m-2.4-3.3 1.4 1.8-7.85-13.65-3.4-2.05-4-6.3.6 2 3.1 4.6 3.45 1.95 6.7 11.65m3.7 7.75v-.05.05m-9.15-11.15 1.65-1.3-.15-.2-1.8 1.3.3.2m-3.1-11.25-.6-2.05-3.8-6.6-1.45 1.15 5.85 7.5m-1.25-2.25-3.25-5.7-.75.45.75-.45 3.25 5.7" fill="#b6e9fb" fill-rule="evenodd" transform="translate(-321.9 -118.6)"/><path d="m349.65 221.75 2.85 1.8-3.8-4.7-1.65 1.3 2.6 1.6" fill="url(#D)" fill-rule="evenodd" transform="translate(-321.9 -118.6)"/><path d="m348.55 218.65.15.2 3.8 4.7-6.7-11.65-3.45-1.95-3.1-4.6.75 2.6 4.6 5.8 3.95 4.9" fill="url(#E)" fill-rule="evenodd" transform="translate(-321.9 -118.6)"/><path d="m349.15 214.95 4.6 4.3-5.15-12.15-3.25-.75-1.4 2.55 2.9 1.55 2.3 4.5m-1-7.35-2.6-.55-1.1 1.6 1.1-1.6 2.6.55m1.3 7.05 3.45 3.4-3.45-3.4" fill="url(#F)" fill-rule="evenodd" transform="translate(-321.9 -118.6)"/><path d="m341.35 200 3.65 3.6 1.3 1.2-2.05-5.45-3.75-.15.85.8m2.35-.05-2.15-.3 3.45 3.95-3.45-3.95 2.15.3" fill="url(#G)" fill-rule="evenodd" transform="translate(-321.9 -118.6)"/><path d="m339.25 205.35-.6-2-.55-1.95-.4-1.35-1.45 1.55 1.45-1.55-.15-.65-1.65 2.25 3.35 3.7" fill="url(#H)" fill-rule="evenodd" transform="translate(-321.9 -118.6)"/><path d="m37.6 114.35.75.4-2.4-6.95 5 8.7m-6.65-3.85 3.3 1.7m-6.4-10.15-3.95-7.85 4.6 4.3 2.45 2.3 1.65 4.85m-1.65 4.9 1.45 1.75 8.35 10.3-3.15-8.25m-9.75-7.4-3.45-5.95 2.85 1.8 1.4 1.8 1.35 1.75-1.85-3.75-.3-.55m3.1 8.5v-.05m-3-3.3 1.5 2.55 1.5.8m-3.1-3.6.1.25m-6.15-7.8-.3-.2m1.8-1.3.15.2 3.8 4.7m-13.25-18.2-.6-2m5.95 10.4 3.95 4.9m-3.95-4.9 2.15 6.2m-2.8-11.05-.6-2.05-2-6.85L23.1 85l1.3 1.2 2.3 2.3m-4.65 1.8 2.9 1.55 2.3 4.5m-9.9-9.6.75 2.6 4.6 5.8m9.15 5.5L26.7 88.5m-1.55 13.05 2.6 1.6M15.8 81.45l.4 1.35.55 1.95m-1.1-3.95.15.65m2.8-.85.85.8m-3.25 1.4 5.85 7.5M14 83.05l3.35 3.7m5-6-5.25-2.5-1.3-.3-1.4-1.3.65 2.2-1.05 4.2m1.65-2.25-.6-1.95m.75-.9 2.8 2.65m3.75.15 2.05 5.45" fill="none" stroke="#000" stroke-linecap="round" stroke-linejoin="round" stroke-opacity=".251" stroke-width=".05"/><path d="m35.75 114.45 3.3 2.3 1.7.15m-9.25-12.15 1.65.45 3.8 8.3m-5.65-4.15-.1-2 1.8.9m.5-2.9-.35-.15m-6.35-4.95-1.65 1.3m5.45 3.4L23.9 93.3l-3.45-1.95-3.1-4.6m5.2 3.3 1.1-1.6 2.6.55M31 99.45l-3.45-3.4M14.35 83l1.45-1.55m1 1.35.75-.45 3.25 5.7M23.1 85l-3.45-3.95 2.15.3" fill="none" stroke="#fff" stroke-linecap="round" stroke-linejoin="round" stroke-width=".05"/><path d="M355.4 217.4q-.75-1.35-2.25-1.75t-2.8.35q-1.35.8-1.75 2.3-.4 1.45.35 2.8.8 1.3 2.3 1.75 1.5.4 2.85-.4 1.3-.75 1.7-2.25t-.4-2.8" fill="url(#I)" fill-rule="evenodd" transform="translate(-321.9 -118.6)"/><path d="m331.65 185.75 1.45 2.55.7-2.75.75-2.7-2.9 2.9" fill="#7096c5" fill-rule="evenodd" transform="translate(-321.9 -118.6)"/><path d="m333.8 185.55-.7 2.75 2.05 3.5 2.4-4.65-1.9-.8-1.85-.8m1.25 5.75 2.1-4-2.1 4" fill="url(#J)" fill-rule="evenodd" transform="translate(-321.9 -118.6)"/><path d="m331.65 185.3 2.45-2.35-2.45 2.35m0 .45 2.9-2.9-5.7-1.9 2.8 4.8" fill="url(#K)" fill-rule="evenodd" transform="translate(-321.9 -118.6)"/><path d="m342.65 187.55-5.8-2.7-1.2 1.5 1.9.8.7 3.35q2.15-1.5 4.4-2.95m-4.2 2.4 3.55-2.25-3.55 2.25" fill="url(#L)" fill-rule="evenodd" transform="translate(-321.9 -118.6)"/><path d="m340.5 195.4 2.15-7.85q-2.25 1.45-4.4 2.95l1.55 7.6.7-2.7" fill="#5f83be" fill-rule="evenodd" transform="translate(-321.9 -118.6)"/><path d="m342.65 196.9-2.15-1.5-.7 2.7.3 1.45 2.55-2.65m-2.45 2.25 2.05-2.15-2.05 2.15" fill="url(#M)" fill-rule="evenodd" transform="translate(-321.9 -118.6)"/><path d="m335.15 191.8 5.25 9.15-.3-1.4-.3-1.45-1.55-7.6-.7-3.35-2.4 4.65" fill="#82a4cc" fill-rule="evenodd" transform="translate(-321.9 -118.6)"/><path d="m340.4 200.95 1.05 1.8.55-.55.65-5.3-2.55 2.65.3 1.4" fill="#608abd" fill-rule="evenodd" transform="translate(-321.9 -118.6)"/><path d="m11.2 69.7-1.45-2.55m2.9-2.9-.75 2.7-.7 2.75 2.05 3.5 5.25 9.15 1.05 1.8.55-.55.65-5.3-2.15-1.5 2.15-7.85-5.8-2.7-1.2 1.5-1.85-.8m.75-2.7-5.7-1.9 2.8 4.8m8.85 9.65-.7 2.7-1.55-7.6-.7-3.35-1.9-.8m4.45 13.2.3 1.4m-.3-1.4-.3-1.45" fill="none" stroke="#000" stroke-linecap="round" stroke-linejoin="round" stroke-opacity=".263" stroke-width=".05"/><path d="M12.2 64.35 9.75 66.7m5.5 2-2.1 4m6.95-3.6-3.55 2.25m3.8 7.05-2.05 2.15" fill="none" stroke="#fff" stroke-linecap="round" stroke-linejoin="round" stroke-width=".05"/><path d="m333.15 188.35-2.7-.75-2.75-.7 4-1.1 1.45 2.55" fill="#7096c5" fill-rule="evenodd" transform="translate(-321.9 -118.6)"/><path d="m330.2 189.6.25-2 2.7.75 2.05 3.5-5.2-.25.2-2m4.6 1.95-4.5-.2 4.5.2" fill="url(#N)" fill-rule="evenodd" transform="translate(-321.9 -118.6)"/><path d="m327.7 186.9 1.2-5.9 2.8 4.8-4 1.1m3.6-1.35-3.25.95 3.25-.95" fill="url(#O)" fill-rule="evenodd" transform="translate(-321.9 -118.6)"/><path d="m330.2 189.6-.2 2 2.5 2.25-4.7 2.35.5-6.3 1.9-.3m1.8 4.2-3.75 1.95 3.75-1.95" fill="url(#P)" fill-rule="evenodd" transform="translate(-321.9 -118.6)"/><path d="m327.8 196.2 4.7-2.35 5.85 5.2-2.7-.7-7.85-2.15" fill="#5f83be" fill-rule="evenodd" transform="translate(-321.9 -118.6)"/><path d="m335.65 198.35 2.7.7 1.1.95-3.55.95-.25-2.6m3.4 1.55-2.95.75 2.95-.75" fill="url(#Q)" fill-rule="evenodd" transform="translate(-321.9 -118.6)"/><path d="m330 191.6 5.2.25 5.25 9.15-1-1-1.1-.95-5.85-5.2-2.5-2.25" fill="#82a4cc" fill-rule="evenodd" transform="translate(-321.9 -118.6)"/><path d="m339.45 200 1 1 1.05 1.8-.75.15-4.85-2 3.55-.95" fill="#608abd" fill-rule="evenodd" transform="translate(-321.9 -118.6)"/><path d="m8.55 69-.25 2-.2 2m5.2.25-2.05-3.5-2.7-.75-2.75-.7L7 62.4l2.8 4.8 1.45 2.55M8.3 71l-1.9.3-.5 6.3m4.7-2.35L8.1 73m5.65 6.75 2.7.7-5.85-5.2m6.95 6.15 1 1-5.25-9.15m5.25 9.15 1.05 1.8-.75.15-4.85-2-.25-2.6L5.9 77.6m11.65 3.8-1.1-.95" fill="none" stroke="#000" stroke-linecap="round" stroke-linejoin="round" stroke-opacity=".263" stroke-width=".05"/><path d="m6.15 67.9 3.25-.95m4.8 15.1 2.95-.75m-10.8-4.15 3.75-1.95m-1.7-2.45 4.5.2" fill="none" stroke="#fff" stroke-linecap="round" stroke-linejoin="round" stroke-width=".05"/></g><g id="b"><path d="M-5.2 0q0-2.15 1.55-3.65Q-2.15-5.2 0-5.2t3.65 1.55Q5.2-2.15 5.2 0q0 2.1-1.55 3.65Q2.15 5.2 0 5.2t-3.65-1.55Q-5.2 2.1-5.2 0" fill="#00b8a3" fill-rule="evenodd" transform="translate(5.2 5.2)"/><path d="m-2.45 3.3-.45-.4-.6-.7-.3-.55L-4.1 0q0-1.25.6-2.2l.6-.7Q-1.8-4-.15-4.1H0l.7.1 1 .3q.6 1.05.5 1.9l-.05 1-.1.8-.5 1.35q-.35.7-1.5 1.3-1.1.6-2.5.65m1.9-6.4q-.3.05-.8.7l-.05.2.25.45q1.2.4 1.55-.8l-.1-.5-.85-.05M-2.4-.35l.2-.35-.45.55.25-.2-.05.05q-.3.7.05 1.6.45 1.35 1.9.95.9-.3.9-1.1l-.5.05-.65.2-.35-.25q-.25-.75.35-1.3l.1-.1q-.6-.75-1.5-.25l-.2.1-.05.05" fill="url(#R)" fill-rule="evenodd" transform="translate(5.2 5.2)"/><path d="m1.7-3.7.35.15.8.65q.75.75 1 1.7l.2 1.2-.35 1.65-.45.8L3 2.7l-.15.2-.6.45-.15.15-.85.35-.15.05-.4.1-.7.1h-.05q-1.35-.05-2.4-.8 1.4-.05 2.5-.65 1.15-.6 1.5-1.3L2.05 0l.1-.8.05-1q.1-.85-.5-1.9" fill="#07d9cb" fill-rule="evenodd" transform="translate(5.2 5.2)"/><path d="m-.55-3.1.85.05.1.5q-.35 1.2-1.55.8l-.25-.45.05-.2q.5-.65.8-.7M-2.4-.35l.05-.05.2-.1q.9-.5 1.5.25l-.1.1q-.6.55-.35 1.3l.35.25.65-.2.5-.05q0 .8-.9 1.1-1.45.4-1.9-.95-.35-.9-.05-1.6l.05-.05" fill="#5bfefe" fill-rule="evenodd" transform="translate(5.2 5.2)"/><path d="m-2.4-.35-.25.2.45-.55-.2.35" fill="#2cf7d5" fill-rule="evenodd" transform="translate(5.2 5.2)"/><path d="m2.75 8.5-.45-.4-.6-.7-.3-.55-.3-1.65q0-1.25.6-2.2l.6-.7q1.1-1.1 2.75-1.2h.15l.7.1 1 .3.35.15.8.65q.75.75 1 1.7l.2 1.2-.35 1.65-.45.8-.25.25-.15.2-.6.45-.15.15-.85.35-.15.05-.4.1-.7.1h-.05q-1.35-.05-2.4-.8z" fill="none" stroke="#00a3a3" stroke-linecap="round" stroke-linejoin="round" stroke-opacity=".243" stroke-width=".05"/></g><path d="m333.4 182.5-.85.3-.75-.3q-.35-.35-.35-.8 0-.5.35-.8.3-.35.75-.35.5 0 .85.35l.3.8-.3.8" fill="#fff" fill-rule="evenodd" transform="translate(-331.45 -180.55)" id="c"/></defs></svg>