<svg viewBox="0 0 64.625 106.8" xmlns="http://www.w3.org/2000/svg" xmlns:xlink="http://www.w3.org/1999/xlink"><use transform="translate(.03)" width="64.6" height="106.8" xlink:href="#a"/><defs><radialGradient id="b" cx="0" cy="0" r="819.2" gradientTransform="matrix(-.0179 0 0 -.0112 324.05 183.85)" gradientUnits="userSpaceOnUse"><stop stop-color="#f8f468" offset="0"/><stop stop-color="#fbb64b" offset=".486"/><stop stop-color="#f35f3a" offset="1"/></radialGradient><radialGradient id="c" cx="0" cy="0" r="819.2" gradientTransform="matrix(-.0069 0 .0001 -.0043 323.6 183.8)" gradientUnits="userSpaceOnUse"><stop stop-color="#fff" offset="0"/><stop stop-color="#fff" stop-opacity="0" offset="1"/></radialGradient><radialGradient id="d" cx="0" cy="0" r="819.2" gradientTransform="matrix(-.0271 -.047 -.0293 .0169 351.85 149.5)" gradientUnits="userSpaceOnUse"><stop stop-color="#f8f468" offset="0"/><stop stop-color="#fbb64b" offset=".486"/><stop stop-color="#f35f3a" offset="1"/></radialGradient><radialGradient id="e" cx="0" cy="0" r="819.2" gradientTransform="matrix(-.021 -.0364 -.0227 .0131 336.2 161.3)" gradientUnits="userSpaceOnUse"><stop stop-color="#f8f468" offset="0"/><stop stop-color="#fbb64b" offset=".486"/><stop stop-color="#f35f3a" offset="1"/></radialGradient><radialGradient id="f" cx="0" cy="0" r="819.2" gradientTransform="matrix(-.0142 -.0246 -.0154 .0089 356.05 146.2)" gradientUnits="userSpaceOnUse"><stop stop-color="#f8f468" offset="0"/><stop stop-color="#fbb64b" offset=".486"/><stop stop-color="#f35f3a" offset="1"/></radialGradient><radialGradient id="g" cx="0" cy="0" r="819.2" gradientTransform="matrix(-.0271 -.047 -.0293 .0169 336.3 163.15)" gradientUnits="userSpaceOnUse"><stop stop-color="#f8f468" offset="0"/><stop stop-color="#fbb64b" offset=".486"/><stop stop-color="#f35f3a" offset="1"/></radialGradient><radialGradient id="h" cx="0" cy="0" r="819.2" gradientTransform="matrix(-.021 -.0364 -.0227 .0131 320.65 174.95)" gradientUnits="userSpaceOnUse"><stop stop-color="#f8f468" offset="0"/><stop stop-color="#fbb64b" offset=".486"/><stop stop-color="#f35f3a" offset="1"/></radialGradient><radialGradient id="i" cx="0" cy="0" r="819.2" gradientTransform="matrix(-.0142 -.0246 -.0154 .0089 340.5 159.85)" gradientUnits="userSpaceOnUse"><stop stop-color="#f8f468" offset="0"/><stop stop-color="#fbb64b" offset=".486"/><stop stop-color="#f35f3a" offset="1"/></radialGradient><radialGradient id="j" cx="0" cy="0" r="819.2" gradientTransform="matrix(.0087 -.005 .008 .0139 364.4 141.55)" gradientUnits="userSpaceOnUse"><stop stop-color="#f8fe6d" offset="0"/><stop stop-color="#fca945" offset=".506"/><stop stop-color="#f89587" offset=".78"/><stop stop-color="#fd758a" offset=".988"/></radialGradient><radialGradient id="k" cx="0" cy="0" r="819.2" gradientTransform="matrix(.0079 -.0045 .0073 .0126 359.2 133.15)" gradientUnits="userSpaceOnUse"><stop stop-color="#f8fe6d" offset="0"/><stop stop-color="#fca945" offset=".506"/><stop stop-color="#f89587" offset=".78"/><stop stop-color="#fd758a" offset=".988"/></radialGradient><radialGradient id="l" cx="0" cy="0" r="819.2" gradientTransform="matrix(.0054 -.0031 .005 .0087 361.05 136.5)" gradientUnits="userSpaceOnUse"><stop stop-color="#a3e2fa" offset=".322"/><stop stop-color="#d2fcf9" offset=".6"/><stop stop-color="#d6fef8" offset="1"/></radialGradient><radialGradient id="m" cx="0" cy="0" r="819.2" gradientTransform="matrix(.0087 -.005 -.008 -.0139 365.6 143.65)" gradientUnits="userSpaceOnUse"><stop stop-color="#f8fe6d" offset="0"/><stop stop-color="#fca945" offset=".506"/><stop stop-color="#f89587" offset=".78"/><stop stop-color="#fd758a" offset=".988"/></radialGradient><radialGradient id="n" cx="0" cy="0" r="819.2" gradientTransform="matrix(.0079 -.0045 -.0073 -.0126 370.3 152.35)" gradientUnits="userSpaceOnUse"><stop stop-color="#f8fe6d" offset="0"/><stop stop-color="#fca945" offset=".506"/><stop stop-color="#f89587" offset=".78"/><stop stop-color="#fd758a" offset=".988"/></radialGradient><radialGradient id="o" cx="0" cy="0" r="819.2" gradientTransform="matrix(.0054 -.0031 -.005 -.0087 368.35 149.1)" gradientUnits="userSpaceOnUse"><stop stop-color="#a3e2fa" offset=".322"/><stop stop-color="#d2fcf9" offset=".6"/><stop stop-color="#d6fef8" offset="1"/></radialGradient><radialGradient id="p" cx="0" cy="0" r="819.2" gradientTransform="matrix(-.0031 -.0053 .0033 -.0019 363.2 143.95)" gradientUnits="userSpaceOnUse"><stop stop-color="#f8fe6d" offset="0"/><stop stop-color="#fca945" offset=".506"/><stop stop-color="#f89587" offset=".78"/><stop stop-color="#fd758a" offset=".988"/></radialGradient><radialGradient id="q" cx="0" cy="0" r="819.2" gradientTransform="matrix(.0087 -.005 .008 .0139 368.15 139.1)" gradientUnits="userSpaceOnUse"><stop stop-color="#f8fe6d" offset="0"/><stop stop-color="#fca945" offset=".506"/><stop stop-color="#f89587" offset=".78"/><stop stop-color="#fd758a" offset=".988"/></radialGradient><radialGradient id="r" cx="0" cy="0" r="819.2" gradientTransform="matrix(.0079 -.0045 .0073 .0126 362.95 130.7)" gradientUnits="userSpaceOnUse"><stop stop-color="#f8fe6d" offset="0"/><stop stop-color="#fca945" offset=".506"/><stop stop-color="#f89587" offset=".78"/><stop stop-color="#fd758a" offset=".988"/></radialGradient><radialGradient id="s" cx="0" cy="0" r="819.2" gradientTransform="matrix(.0054 -.0031 .005 .0087 364.8 134.05)" gradientUnits="userSpaceOnUse"><stop stop-color="#a3e2fa" offset=".322"/><stop stop-color="#d2fcf9" offset=".6"/><stop stop-color="#d6fef8" offset="1"/></radialGradient><radialGradient id="t" cx="0" cy="0" r="819.2" gradientTransform="matrix(.0087 -.005 -.008 -.0139 369.35 141.2)" gradientUnits="userSpaceOnUse"><stop stop-color="#f8fe6d" offset="0"/><stop stop-color="#fca945" offset=".506"/><stop stop-color="#f89587" offset=".78"/><stop stop-color="#fd758a" offset=".988"/></radialGradient><radialGradient id="u" cx="0" cy="0" r="819.2" gradientTransform="matrix(.0079 -.0045 -.0073 -.0126 374.05 149.9)" gradientUnits="userSpaceOnUse"><stop stop-color="#f8fe6d" offset="0"/><stop stop-color="#fca945" offset=".506"/><stop stop-color="#f89587" offset=".78"/><stop stop-color="#fd758a" offset=".988"/></radialGradient><radialGradient id="v" cx="0" cy="0" r="819.2" gradientTransform="matrix(.0054 -.0031 -.005 -.0087 372.1 146.65)" gradientUnits="userSpaceOnUse"><stop stop-color="#a3e2fa" offset=".322"/><stop stop-color="#d2fcf9" offset=".6"/><stop stop-color="#d6fef8" offset="1"/></radialGradient><radialGradient id="w" cx="0" cy="0" r="819.2" gradientTransform="matrix(-.0031 -.0053 .0033 -.0019 366.75 141.45)" gradientUnits="userSpaceOnUse"><stop stop-color="#f8fe6d" offset="0"/><stop stop-color="#fca945" offset=".506"/><stop stop-color="#f89587" offset=".78"/><stop stop-color="#fd758a" offset=".988"/></radialGradient><radialGradient id="x" cx="0" cy="0" r="819.2" gradientTransform="matrix(-.0044 -.0077 .0048 -.0027 366.7 142.25)" gradientUnits="userSpaceOnUse"><stop stop-color="#fff" offset="0"/><stop stop-color="#fff" stop-opacity="0" offset="1"/></radialGradient><radialGradient id="y" cx="0" cy="0" r="819.2" gradientTransform="matrix(-.0271 .047 -.0293 -.0169 351.65 212.4)" gradientUnits="userSpaceOnUse"><stop stop-color="#f8f468" offset="0"/><stop stop-color="#fbb64b" offset=".486"/><stop stop-color="#f35f3a" offset="1"/></radialGradient><radialGradient id="z" cx="0" cy="0" r="819.2" gradientTransform="matrix(-.021 .0364 -.0227 -.0131 336 200.6)" gradientUnits="userSpaceOnUse"><stop stop-color="#f8f468" offset="0"/><stop stop-color="#fbb64b" offset=".486"/><stop stop-color="#f35f3a" offset="1"/></radialGradient><radialGradient id="A" cx="0" cy="0" r="819.2" gradientTransform="matrix(-.0142 .0246 -.0154 -.0089 355.85 215.7)" gradientUnits="userSpaceOnUse"><stop stop-color="#f8f468" offset="0"/><stop stop-color="#fbb64b" offset=".486"/><stop stop-color="#f35f3a" offset="1"/></radialGradient><radialGradient id="B" cx="0" cy="0" r="819.2" gradientTransform="matrix(-.0271 .047 -.0293 -.0169 336.1 198.75)" gradientUnits="userSpaceOnUse"><stop stop-color="#f8f468" offset="0"/><stop stop-color="#fbb64b" offset=".486"/><stop stop-color="#f35f3a" offset="1"/></radialGradient><radialGradient id="C" cx="0" cy="0" r="819.2" gradientTransform="matrix(-.021 .0364 -.0227 -.0131 320.45 186.95)" gradientUnits="userSpaceOnUse"><stop stop-color="#f8f468" offset="0"/><stop stop-color="#fbb64b" offset=".486"/><stop stop-color="#f35f3a" offset="1"/></radialGradient><radialGradient id="D" cx="0" cy="0" r="819.2" gradientTransform="matrix(-.0142 .0246 -.0154 -.0089 340.3 202.05)" gradientUnits="userSpaceOnUse"><stop stop-color="#f8f468" offset="0"/><stop stop-color="#fbb64b" offset=".486"/><stop stop-color="#f35f3a" offset="1"/></radialGradient><radialGradient id="E" cx="0" cy="0" r="819.2" gradientTransform="matrix(.0087 .005 .008 -.0139 364.2 220.35)" gradientUnits="userSpaceOnUse"><stop stop-color="#f8fe6d" offset="0"/><stop stop-color="#fca945" offset=".506"/><stop stop-color="#f89587" offset=".78"/><stop stop-color="#fd758a" offset=".988"/></radialGradient><radialGradient id="F" cx="0" cy="0" r="819.2" gradientTransform="matrix(.0079 .0045 .0073 -.0126 359 228.75)" gradientUnits="userSpaceOnUse"><stop stop-color="#f8fe6d" offset="0"/><stop stop-color="#fca945" offset=".506"/><stop stop-color="#f89587" offset=".78"/><stop stop-color="#fd758a" offset=".988"/></radialGradient><radialGradient id="G" cx="0" cy="0" r="819.2" gradientTransform="matrix(.0054 .0031 .005 -.0087 360.85 225.4)" gradientUnits="userSpaceOnUse"><stop stop-color="#a3e2fa" offset=".322"/><stop stop-color="#d2fcf9" offset=".6"/><stop stop-color="#d6fef8" offset="1"/></radialGradient><radialGradient id="H" cx="0" cy="0" r="819.2" gradientTransform="matrix(.0087 .005 -.008 .0139 365.4 218.25)" gradientUnits="userSpaceOnUse"><stop stop-color="#f8fe6d" offset="0"/><stop stop-color="#fca945" offset=".506"/><stop stop-color="#f89587" offset=".78"/><stop stop-color="#fd758a" offset=".988"/></radialGradient><radialGradient id="I" cx="0" cy="0" r="819.2" gradientTransform="matrix(.0079 .0045 -.0073 .0126 370.1 209.55)" gradientUnits="userSpaceOnUse"><stop stop-color="#f8fe6d" offset="0"/><stop stop-color="#fca945" offset=".506"/><stop stop-color="#f89587" offset=".78"/><stop stop-color="#fd758a" offset=".988"/></radialGradient><radialGradient id="J" cx="0" cy="0" r="819.2" gradientTransform="matrix(.0054 .0031 -.005 .0087 368.15 212.8)" gradientUnits="userSpaceOnUse"><stop stop-color="#a3e2fa" offset=".322"/><stop stop-color="#d2fcf9" offset=".6"/><stop stop-color="#d6fef8" offset="1"/></radialGradient><radialGradient id="K" cx="0" cy="0" r="819.2" gradientTransform="matrix(-.0031 .0053 .0033 .0019 363 217.95)" gradientUnits="userSpaceOnUse"><stop stop-color="#f8fe6d" offset="0"/><stop stop-color="#fca945" offset=".506"/><stop stop-color="#f89587" offset=".78"/><stop stop-color="#fd758a" offset=".988"/></radialGradient><radialGradient id="L" cx="0" cy="0" r="819.2" gradientTransform="matrix(.0087 .005 .008 -.0139 367.95 222.8)" gradientUnits="userSpaceOnUse"><stop stop-color="#f8fe6d" offset="0"/><stop stop-color="#fca945" offset=".506"/><stop stop-color="#f89587" offset=".78"/><stop stop-color="#fd758a" offset=".988"/></radialGradient><radialGradient id="M" cx="0" cy="0" r="819.2" gradientTransform="matrix(.0079 .0045 .0073 -.0126 362.75 231.2)" gradientUnits="userSpaceOnUse"><stop stop-color="#f8fe6d" offset="0"/><stop stop-color="#fca945" offset=".506"/><stop stop-color="#f89587" offset=".78"/><stop stop-color="#fd758a" offset=".988"/></radialGradient><radialGradient id="N" cx="0" cy="0" r="819.2" gradientTransform="matrix(.0054 .0031 .005 -.0087 364.6 227.85)" gradientUnits="userSpaceOnUse"><stop stop-color="#a3e2fa" offset=".322"/><stop stop-color="#d2fcf9" offset=".6"/><stop stop-color="#d6fef8" offset="1"/></radialGradient><radialGradient id="O" cx="0" cy="0" r="819.2" gradientTransform="matrix(.0087 .005 -.008 .0139 369.15 220.7)" gradientUnits="userSpaceOnUse"><stop stop-color="#f8fe6d" offset="0"/><stop stop-color="#fca945" offset=".506"/><stop stop-color="#f89587" offset=".78"/><stop stop-color="#fd758a" offset=".988"/></radialGradient><radialGradient id="P" cx="0" cy="0" r="819.2" gradientTransform="matrix(.0079 .0045 -.0073 .0126 373.85 212)" gradientUnits="userSpaceOnUse"><stop stop-color="#f8fe6d" offset="0"/><stop stop-color="#fca945" offset=".506"/><stop stop-color="#f89587" offset=".78"/><stop stop-color="#fd758a" offset=".988"/></radialGradient><radialGradient id="Q" cx="0" cy="0" r="819.2" gradientTransform="matrix(.0054 .0031 -.005 .0087 371.9 215.25)" gradientUnits="userSpaceOnUse"><stop stop-color="#a3e2fa" offset=".322"/><stop stop-color="#d2fcf9" offset=".6"/><stop stop-color="#d6fef8" offset="1"/></radialGradient><radialGradient id="R" cx="0" cy="0" r="819.2" gradientTransform="matrix(-.0031 .0053 .0033 .0019 366.55 220.45)" gradientUnits="userSpaceOnUse"><stop stop-color="#f8fe6d" offset="0"/><stop stop-color="#fca945" offset=".506"/><stop stop-color="#f89587" offset=".78"/><stop stop-color="#fd758a" offset=".988"/></radialGradient><radialGradient id="S" cx="0" cy="0" r="819.2" gradientTransform="matrix(-.0044 .0077 .0048 .0027 366.5 219.65)" gradientUnits="userSpaceOnUse"><stop stop-color="#fff" offset="0"/><stop stop-color="#fff" stop-opacity="0" offset="1"/></radialGradient><g id="a"><path d="M57.35 21.85v68.4" fill="none" stroke="#f89644" stroke-linecap="round" stroke-linejoin="round" stroke-width=".05"/><path d="M314.3 185q-2.65-1.65-2.65-3.95t2.65-3.95q2.6-1.6 6.3-1.6t6.3 1.6q2.6 1.65 2.6 3.95t-2.6 3.95q-2.6 1.6-6.3 1.6t-6.3-1.6m7.85-.15q1.15-.1 1.3-1l-.4-.45q-1.2-.3-2.05.3-.45.75.65 1.2h.5v-.05m3.05-3.2-.25-.1q4.35-2.75-.8-4.45-3-1-5.3-.05 1.35.85 3.4 1.4l2.05.8-1.25.9q-.55.3-.75.65 1 .6 2.4.75l.5.1" fill="url(#b)" fill-rule="evenodd" transform="translate(-311.65 -127.55)"/><path d="m325.2 181.65-.5-.1q-1.4-.15-2.4-.75.2-.35.75-.65l1.25-.9-2.05-.8q-2.05-.55-3.4-1.4 2.3-.95 5.3.05 5.15 1.7.8 4.45l.25.1m-3.05 3.2v.05h-.5q-1.1-.45-.65-1.2.85-.6 2.05-.3l.4.45q-.15.9-1.3 1" fill="#fdfdbd" fill-rule="evenodd" transform="translate(-311.65 -127.55)"/><path d="M2.65 57.45Q0 55.8 0 53.5t2.65-3.95q2.6-1.6 6.3-1.6t6.3 1.6q2.6 1.65 2.6 3.95t-2.6 3.95q-2.6 1.6-6.3 1.6t-6.3-1.6z" fill="none" stroke="#f3653b" stroke-linecap="round" stroke-linejoin="round" stroke-opacity=".361" stroke-width=".05"/><path d="M317.95 183.75q.05-1.45 1.7-2.5 1.65-1 4-.95 2.3 0 3.95 1 1.65 1.05 1.6 2.5 0 1.45-1.65 2.5-1.7 1-4 1-2.35-.05-3.95-1.05-1.65-1.05-1.65-2.5" fill="url(#c)" fill-rule="evenodd" transform="translate(-311.65 -127.55)"/><path d="m367 136.35-.05 7.65-7.7 4.45-4.1-.85-.9-5.6h.15l-.15-.25-1.4-.15-.75.4q-.25 1.95.35 4.3l.1.7-1.05 3.5-12.4 10.4q1.15 2.8 1.9 5.5l.05-.05q.3.6.65.45.5-.1.25-.65h.65q1-5.8 4.1-8.8l1-.05q3.35-2.95 7.05-5.45 1.1-.8 2.7.85 1.15 1.35 2.35 1.55.25-5.7 5.9-5.85.85-.05.65.35l1.15-2.15q4.3 2.15 2.8-5.9-.4-2.3-1.95-4.15l-1.35-.2M354.25 142v-.25.25" fill="url(#d)" fill-rule="evenodd" transform="translate(-311.65 -127.55)"/><path d="m339.1 160.9 12.4-10.4 1.05-3.5q-10.35 7.75-20.6 15.95l-.4.4q3.4-.55 7.4-2.35l.15-.1" fill="url(#e)" fill-rule="evenodd" transform="translate(-311.65 -127.55)"/><path d="m354.25 142 .9 5.6 4.1.85 7.7-4.45.05-7.65q-1.4 9.7-9.1 10-1.5.1-2.45-1.4-.3.1-.55-1.65l-.5-1.3h-.15" fill="url(#f)" fill-rule="evenodd" transform="translate(-311.65 -127.55)"/><path d="m42.75 14.45.5 1.3q.25 1.75.55 1.65.95 1.5 2.45 1.4 7.7-.3 9.1-10l1.35.2q1.55 1.85 1.95 4.15 1.5 8.05-2.8 5.9L54.7 21.2q.2-.4-.65-.35-5.65.15-5.9 5.85-1.2-.2-2.35-1.55-1.6-1.65-2.7-.85-3.7 2.5-7.05 5.45l-1 .05q-3.1 3-4.1 8.8h-.65q.25.55-.25.65-.35.15-.65-.45l-.05.05q-.75-2.7-1.9-5.5m13.45-13.9-.1-.7q-.6-2.35-.35-4.3l.75-.4 1.4.15m.15.25-.15-.25m-1.7 5.25Q30.55 27.2 20.3 35.4l-.4.4q3.4-.55 7.4-2.35l.15-.1" fill="none" stroke="#f3653b" stroke-linecap="round" stroke-linejoin="round" stroke-opacity=".361" stroke-width=".05"/><path d="m55.35 8.8-.05 7.65-7.7 4.45-4.1-.85-.9-5.6m-15.15 18.9 12.4-10.4 1.05-3.5m1.7-5.25v.25" fill="none" stroke="#f3653b" stroke-linecap="round" stroke-linejoin="round" stroke-opacity=".361" stroke-width=".05"/><path d="M323.55 174.55q1.15 2.8 1.9 5.5l.05-.05q.3.6.65.45.5-.1.25-.65h.65q1-5.8 4.1-8.8l1-.05q3.35-2.95 7.05-5.45 1.1-.8 2.7.85 1.15 1.35 2.35 1.55.25-5.7 5.9-5.85.85-.05.65.35l1.15-2.15q4.3 2.15 2.8-5.9-.4-2.3-1.95-4.15l-1.35-.2-.05 7.65-7.7 4.45-4.1-.85-.9-5.6h.15l-.15-.25-1.4-.15-.75.4q-.25 1.95.35 4.3l.1.7-1.05 3.5-12.4 10.4m15.15-19.15v.25-.25" fill="url(#g)" fill-rule="evenodd" transform="translate(-311.65 -127.55)"/><path d="M337 160.65q-10.35 7.75-20.6 15.95l-.4.4q3.4-.55 7.4-2.35l.15-.1 12.4-10.4 1.05-3.5" fill="url(#h)" fill-rule="evenodd" transform="translate(-311.65 -127.55)"/><path d="M351.45 150q-1.4 9.7-9.1 10-1.5.1-2.45-1.4-.3.1-.55-1.65l-.5-1.3h-.15l.9 5.6 4.1.85 7.7-4.45.05-7.65" fill="url(#i)" fill-rule="evenodd" transform="translate(-311.65 -127.55)"/><path d="M11.9 47q1.15 2.8 1.9 5.5l.05-.05q.3.6.65.45.5-.1.25-.65h.65q1-5.8 4.1-8.8l1-.05q3.35-2.95 7.05-5.45 1.1-.8 2.7.85 1.15 1.35 2.35 1.55.25-5.7 5.9-5.85.85-.05.65.35l1.15-2.15q4.3 2.15 2.8-5.9-.4-2.3-1.95-4.15l-1.35-.2q-1.4 9.7-9.1 10-1.5.1-2.45-1.4-.3.1-.55-1.65l-.5-1.3-.15-.25-1.4-.15-.75.4q-.25 1.95.35 4.3l.1.7Q15 40.85 4.75 49.05l-.4.4q3.4-.55 7.4-2.35l.15-.1" fill="none" stroke="#f3653b" stroke-linecap="round" stroke-linejoin="round" stroke-opacity=".361" stroke-width=".05"/><path d="m11.9 47 12.4-10.4 1.05-3.5M39.8 22.45l-.05 7.65-7.7 4.45-4.1-.85-.9-5.6v-.25" fill="none" stroke="#f3653b" stroke-linecap="round" stroke-linejoin="round" stroke-opacity=".361" stroke-width=".05"/><path d="m357.95 130.15.1-.1.1-.05 1.4 2.3q1.35 1.8 3.35 3.4 1.05.85 1.15 2.25l.1 1.3v.15-.1q.5-2.35-.05-5.2 3.1 5.6.95 8.2l-1 .85-.15-.65-.5-3.9q-.15-.85-.65-1.5l-1.8-1.8q-1.5-1.15-2.4-3.25l-.6-1.9" fill="url(#j)" fill-rule="evenodd" transform="translate(-311.65 -127.55)"/><path d="m357.95 138.6 2.95 1.45.9.35q-4.75-4.2-3.85-10.25l.6 1.9q.9 2.1 2.4 3.25l1.8 1.8q.5.65.65 1.5l.5 3.9.15.65-.05.05-.55.3-.55.15-.5-.2-.9-.95q-2.35-1.6-3.55-3.9" fill="url(#k)" fill-rule="evenodd" transform="translate(-311.65 -127.55)"/><path d="m357.95 138.6-.05-.15.05.15" fill="url(#l)" fill-rule="evenodd" transform="translate(-311.65 -127.55)"/><path d="m52.4 15.6-.05.05-.55.3-.55.15-.5-.2-.9-.95q-2.35-1.6-3.55-3.9" fill="none" stroke="#faf29c" stroke-linecap="round" stroke-linejoin="round" stroke-width=".05"/><path d="m46.3 11.05 2.95 1.45.9.35Q45.4 8.65 46.3 2.6" fill="none" stroke="#faf29c" stroke-linecap="round" stroke-linejoin="round" stroke-width=".05"/><path d="m372.25 154.9-1.4-1.5q-1.35-1.8-1.55-3.65l-.65-2.45-1-1.3-3.15-2.4-.45-.45 1.25-.4q3.3-.6 6.65 4.9-2.2-1.9-4.5-2.65h-.1.1l1.1.7q1.15.85 1.4 2.2.35 2.5 1.25 4.55.5 1.3 1.3 2.45l-.1.05-.15-.05" fill="url(#m)" fill-rule="evenodd" transform="translate(-311.65 -127.55)"/><path d="M372.25 154.9q-5.65-2.2-6.95-8.4l-.1.95-.25 3.25q-1.4-2.25-1.65-5.05l-.3-1.2.05-.55.4-.4.55-.3.05-.05.45.45 3.15 2.4 1 1.3.65 2.45q.2 1.85 1.55 3.65l1.4 1.5" fill="url(#n)" fill-rule="evenodd" transform="translate(-311.65 -127.55)"/><path d="m364.95 150.7.1.1-.1-.1" fill="url(#o)" fill-rule="evenodd" transform="translate(-311.65 -127.55)"/><path d="m52.4 15.6-.05.05-.55.3-.4.4-.05.55.3 1.2q.25 2.8 1.65 5.05" fill="none" stroke="#faf29c" stroke-linecap="round" stroke-linejoin="round" stroke-width=".05"/><path d="m53.3 23.15.25-3.25.1-.95q1.3 6.2 6.95 8.4" fill="none" stroke="#faf29c" stroke-linecap="round" stroke-linejoin="round" stroke-width=".05"/><path d="M365.8 142.5q.35.65-.1 1.55-.45.95-1.55 1.55-1.05.6-2.1.55t-1.4-.7q-.4-.65.05-1.6.5-.95 1.55-1.55 1.1-.6 2.1-.55 1.05.1 1.45.75" fill="url(#p)" fill-rule="evenodd" transform="translate(-311.65 -127.55)"/><path d="M54.15 14.95q.35.65-.1 1.55-.45.95-1.55 1.55-1.05.6-2.1.55t-1.4-.7q-.4-.65.05-1.6.5-.95 1.55-1.55 1.1-.6 2.1-.55 1.05.1 1.45.75z" fill="none" stroke="#faf29c" stroke-linecap="round" stroke-linejoin="round" stroke-width=".05"/><path d="m361.7 127.7.1-.1.1-.05 1.4 2.3q1.35 1.8 3.35 3.4 1.05.85 1.15 2.25l.1 1.3v.15-.1q.5-2.35-.05-5.2 3.1 5.6.95 8.2l-1 .85-.15-.65-.5-3.9q-.15-.85-.65-1.5l-1.8-1.8q-1.5-1.15-2.4-3.25l-.6-1.9" fill="url(#q)" fill-rule="evenodd" transform="translate(-311.65 -127.55)"/><path d="m361.7 136.15 2.95 1.45.9.35q-4.75-4.2-3.85-10.25l.6 1.9q.9 2.1 2.4 3.25l1.8 1.8q.5.65.65 1.5l.5 3.9.15.65-.05.05-.55.3-.55.15-.5-.2-.9-.95q-2.35-1.6-3.55-3.9" fill="url(#r)" fill-rule="evenodd" transform="translate(-311.65 -127.55)"/><path d="m361.7 136.15-.05-.15.05.15" fill="url(#s)" fill-rule="evenodd" transform="translate(-311.65 -127.55)"/><path d="m56.15 13.15-.05.05-.55.3-.55.15-.5-.2-.9-.95q-2.35-1.6-3.55-3.9" fill="none" stroke="#faf29c" stroke-linecap="round" stroke-linejoin="round" stroke-width=".05"/><path d="M50.05 8.6 53 10.05l.9.35Q49.15 6.2 50.05.15" fill="none" stroke="#faf29c" stroke-linecap="round" stroke-linejoin="round" stroke-width=".05"/><path d="m376 152.45-1.4-1.5q-1.35-1.8-1.55-3.65-.15-1.25-.65-2.45l-1-1.3-3.15-2.4-.45-.45 1.25-.4q3.3-.6 6.65 4.9-2.2-1.9-4.5-2.65h-.1.1l1.1.7q1.15.85 1.4 2.2.35 2.5 1.25 4.55.5 1.3 1.3 2.45l-.1.05-.15-.05" fill="url(#t)" fill-rule="evenodd" transform="translate(-311.65 -127.55)"/><path d="M376 152.45q-5.65-2.2-6.95-8.4l-.1.95-.25 3.25q-1.4-2.25-1.65-5.05l-.3-1.2.05-.55.4-.4.55-.3.05-.05.45.45 3.15 2.4 1 1.3q.5 1.2.65 2.45.2 1.85 1.55 3.65l1.4 1.5" fill="url(#u)" fill-rule="evenodd" transform="translate(-311.65 -127.55)"/><path d="m368.7 148.25.1.1-.1-.1" fill="url(#v)" fill-rule="evenodd" transform="translate(-311.65 -127.55)"/><path d="m56.15 13.15-.05.05-.55.3-.4.4-.05.55.3 1.2q.25 2.8 1.65 5.05" fill="none" stroke="#faf29c" stroke-linecap="round" stroke-linejoin="round" stroke-width=".05"/><path d="m57.05 20.7.25-3.25.1-.95q1.3 6.2 6.95 8.4" fill="none" stroke="#faf29c" stroke-linecap="round" stroke-linejoin="round" stroke-width=".05"/><path d="M369.35 140q.35.65-.1 1.55-.45.95-1.55 1.55-1.05.6-2.1.55t-1.4-.7q-.4-.65.05-1.6.5-.95 1.55-1.55 1.1-.6 2.1-.55 1.05.1 1.45.75" fill="url(#w)" fill-rule="evenodd" transform="translate(-311.65 -127.55)"/><path d="M57.7 12.45q.35.65-.1 1.55-.45.95-1.55 1.55-1.05.6-2.1.55t-1.4-.7q-.4-.65.05-1.6.5-.95 1.55-1.55 1.1-.6 2.1-.55 1.05.1 1.45.75z" fill="none" stroke="#faf29c" stroke-linecap="round" stroke-linejoin="round" stroke-width=".05"/><path d="M363.1 136q1.65-.9 3.85.3t3.7 3.8q1.45 2.6 1.35 5-.1 2.5-1.75 3.4-1.6.95-3.8-.3-2.2-1.15-3.65-3.75-1.5-2.6-1.4-5.05t1.7-3.4" fill="url(#x)" fill-rule="evenodd" transform="translate(-311.65 -127.55)"/><path d="M338.9 201q1.15-2.8 1.9-5.5l.05.05q.3-.6.65-.45.5.1.25.65h.65q1 5.8 4.1 8.8l1 .05q3.35 2.95 7.05 5.45 1.1.8 2.7-.85 1.15-1.35 2.35-1.55.25 5.7 5.9 5.85.85.05.65-.35l1.15 2.15q4.3-2.15 2.8 5.9-.4 2.3-1.95 4.15l-1.35.2-.05-7.65-7.7-4.45-4.1.85-.9 5.6h.15l-.15.25-1.4.15-.75-.4q-.25-1.95.35-4.3l.1-.7-1.05-3.5-12.4-10.4m15.15 19.15v-.25.25" fill="url(#y)" fill-rule="evenodd" transform="translate(-311.65 -127.55)"/><path d="m352.35 214.9-20.6-15.95-.4-.4q3.4.55 7.4 2.35l.15.1 12.4 10.4 1.05 3.5" fill="url(#z)" fill-rule="evenodd" transform="translate(-311.65 -127.55)"/><path d="M366.8 225.55q-1.4-9.7-9.1-10-1.5-.1-2.45 1.4-.3-.1-.55 1.65l-.5 1.3h-.15l.9-5.6 4.1-.85 7.7 4.45.05 7.65" fill="url(#A)" fill-rule="evenodd" transform="translate(-311.65 -127.55)"/><path d="M27.25 73.45q1.15-2.8 1.9-5.5l.05.05q.3-.6.65-.45.5.1.25.65h.65q1 5.8 4.1 8.8l1 .05Q39.2 80 42.9 82.5q1.1.8 2.7-.85 1.15-1.35 2.35-1.55.25 5.7 5.9 5.85.85.05.65-.35l1.15 2.15q4.3-2.15 2.8 5.9-.4 2.3-1.95 4.15l-1.35.2q-1.4-9.7-9.1-10-1.5-.1-2.45 1.4-.3-.1-.55 1.65l-.5 1.3-.15.25-1.4.15-.75-.4q-.25-1.95.35-4.3l.1-.7L20.1 71.4l-.4-.4q3.4.55 7.4 2.35l.15.1" fill="none" stroke="#f3653b" stroke-linecap="round" stroke-linejoin="round" stroke-opacity=".361" stroke-width=".05"/><path d="m27.25 73.45 12.4 10.4 1.05 3.5M55.15 98l-.05-7.65-7.7-4.45-4.1.85-.9 5.6v.25" fill="none" stroke="#f3653b" stroke-linecap="round" stroke-linejoin="round" stroke-opacity=".361" stroke-width=".05"/><path d="m351.25 211.9-.05-7.65-7.7-4.45-4.1.85-.9 5.6h.15l-.15.25-1.4.15-.75-.4q-.25-1.95.35-4.3l.1-.7-1.05-3.5-12.4-10.4q1.15-2.8 1.9-5.5l.05.05q.3-.6.65-.45.5.1.25.65h.65q1 5.8 4.1 8.8l1 .05 7.05 5.45q1.1.8 2.7-.85 1.15-1.35 2.35-1.55.25 5.7 5.9 5.85.85.05.65-.35l1.15 2.15q4.3-2.15 2.8 5.9-.4 2.3-1.95 4.15l-1.35.2m-12.75-5.65v.25-.25" fill="url(#B)" fill-rule="evenodd" transform="translate(-311.65 -127.55)"/><path d="m323.35 187.35 12.4 10.4 1.05 3.5q-10.35-7.75-20.6-15.95l-.4-.4q3.4.55 7.4 2.35l.15.1" fill="url(#C)" fill-rule="evenodd" transform="translate(-311.65 -127.55)"/><path d="m338.5 206.25.9-5.6 4.1-.85 7.7 4.45.05 7.65q-1.4-9.7-9.1-10-1.5-.1-2.45 1.4-.3-.1-.55 1.65l-.5 1.3h-.15" fill="url(#D)" fill-rule="evenodd" transform="translate(-311.65 -127.55)"/><path d="m27 78.7.5-1.3q.25-1.75.55-1.65.95-1.5 2.45-1.4 7.7.3 9.1 10l1.35-.2Q42.5 82.3 42.9 80q1.5-8.05-2.8-5.9l-1.15-2.15q.2.4-.65.35-5.65-.15-5.9-5.85-1.2.2-2.35 1.55-1.6 1.65-2.7.85L20.3 63.4l-1-.05q-3.1-3-4.1-8.8h-.65q.25-.55-.25-.65-.35-.15-.65.45l-.05-.05q-.75 2.7-1.9 5.5m13.45 13.9-.1.7q-.6 2.35-.35 4.3l.75.4 1.4-.15m.15-.25-.15.25m-1.7-5.25Q14.8 65.95 4.55 57.75l-.4-.4q3.4.55 7.4 2.35l.15.1" fill="none" stroke="#f3653b" stroke-linecap="round" stroke-linejoin="round" stroke-opacity=".361" stroke-width=".05"/><path d="m39.6 84.35-.05-7.65-7.7-4.45-4.1.85-.9 5.6M11.7 59.8l12.4 10.4 1.05 3.5m1.7 5.25v-.25" fill="none" stroke="#f3653b" stroke-linecap="round" stroke-linejoin="round" stroke-opacity=".361" stroke-width=".05"/><path d="m363.85 218.75-.15.65-.5 3.9q-.15.85-.65 1.5l-1.8 1.8q-1.5 1.15-2.4 3.25l-.6 1.9.1.1.1.05q.55-1.2 1.4-2.3 1.35-1.8 3.35-3.4 1.05-.85 1.15-2.25l.1-1.3v-.15.1q.5 2.35-.05 5.2 3.1-5.6.95-8.2l-1-.85" fill="url(#E)" fill-rule="evenodd" transform="translate(-311.65 -127.55)"/><path d="m363.85 218.75-.05-.05-.55-.3-.55-.15-.5.2-.9.95q-2.35 1.6-3.55 3.9 1.4-.75 2.95-1.45l.9-.35q-4.75 4.2-3.85 10.25l.6-1.9q.9-2.1 2.4-3.25l1.8-1.8q.5-.65.65-1.5l.5-3.9.15-.65" fill="url(#F)" fill-rule="evenodd" transform="translate(-311.65 -127.55)"/><path d="m357.75 223.3-.05.15.05-.15" fill="url(#G)" fill-rule="evenodd" transform="translate(-311.65 -127.55)"/><path d="M46.1 95.75q1.2-2.3 3.55-3.9l.9-.95.5-.2.55.15.55.3.05.05M46.1 104.2q-.9-6.05 3.85-10.25l-.9.35q-1.55.7-2.95 1.45z" fill="none" stroke="#faf29c" stroke-linecap="round" stroke-linejoin="round" stroke-width=".05"/><path d="m372.05 207-1.4 1.5q-1.35 1.8-1.55 3.65l-.65 2.45-1 1.3-3.15 2.4-.45.45 1.25.4q3.3.6 6.65-4.9-2.2 1.9-4.5 2.65h-.1.1l1.1-.7q1.15-.85 1.4-2.2.35-2.5 1.25-4.55.5-1.3 1.3-2.45l-.1-.05-.15.05" fill="url(#H)" fill-rule="evenodd" transform="translate(-311.65 -127.55)"/><path d="M372.05 207q-5.65 2.2-6.95 8.4l-.1-.95-.25-3.25q-1.4 2.25-1.65 5.05l-.3 1.2.05.55.4.4.55.3.05.05.45-.45 3.15-2.4 1-1.3.65-2.45q.2-1.85 1.55-3.65l1.4-1.5" fill="url(#I)" fill-rule="evenodd" transform="translate(-311.65 -127.55)"/><path d="m364.75 211.2.1-.1-.1.1" fill="url(#J)" fill-rule="evenodd" transform="translate(-311.65 -127.55)"/><path d="m52.2 91.2-.05-.05-.55-.3-.4-.4-.05-.55.3-1.2q.25-2.8 1.65-5.05" fill="none" stroke="#faf29c" stroke-linecap="round" stroke-linejoin="round" stroke-width=".05"/><path d="m53.1 83.65.25 3.25.1.95q1.3-6.2 6.95-8.4" fill="none" stroke="#faf29c" stroke-linecap="round" stroke-linejoin="round" stroke-width=".05"/><path d="M365.6 219.4q.35-.65-.1-1.55-.45-.95-1.55-1.55-1.05-.6-2.1-.55t-1.4.7q-.4.65.05 1.6.5.95 1.55 1.55 1.1.6 2.1.55 1.05-.1 1.45-.75" fill="url(#K)" fill-rule="evenodd" transform="translate(-311.65 -127.55)"/><path d="M53.95 91.85q.35-.65-.1-1.55-.45-.95-1.55-1.55-1.05-.6-2.1-.55t-1.4.7q-.4.65.05 1.6.5.95 1.55 1.55 1.1.6 2.1.55 1.05-.1 1.45-.75z" fill="none" stroke="#faf29c" stroke-linecap="round" stroke-linejoin="round" stroke-width=".05"/><path d="m367.6 221.2-.15.65-.5 3.9q-.15.85-.65 1.5l-1.8 1.8q-1.5 1.15-2.4 3.25l-.6 1.9.1.1.1.05q.55-1.2 1.4-2.3 1.35-1.8 3.35-3.4 1.05-.85 1.15-2.25l.1-1.3v-.15.1q.5 2.35-.05 5.2 3.1-5.6.95-8.2l-1-.85" fill="url(#L)" fill-rule="evenodd" transform="translate(-311.65 -127.55)"/><path d="m367.6 221.2-.05-.05-.55-.3-.55-.15-.5.2-.9.95q-2.35 1.6-3.55 3.9l2.95-1.45.9-.35q-4.75 4.2-3.85 10.25l.6-1.9q.9-2.1 2.4-3.25l1.8-1.8q.5-.65.65-1.5l.5-3.9.15-.65" fill="url(#M)" fill-rule="evenodd" transform="translate(-311.65 -127.55)"/><path d="m361.5 225.75-.05.15.05-.15" fill="url(#N)" fill-rule="evenodd" transform="translate(-311.65 -127.55)"/><path d="M49.85 98.2q1.2-2.3 3.55-3.9l.9-.95.5-.2.55.15.55.3.05.05M49.85 106.65q-.9-6.05 3.85-10.25l-.9.35-2.95 1.45z" fill="none" stroke="#faf29c" stroke-linecap="round" stroke-linejoin="round" stroke-width=".05"/><path d="m375.8 209.45-1.4 1.5q-1.35 1.8-1.55 3.65l-.65 2.45-1 1.3-3.15 2.4-.45.45 1.25.4q3.3.6 6.65-4.9-2.2 1.9-4.5 2.65h-.1.1l1.1-.7q1.15-.85 1.4-2.2.35-2.5 1.25-4.55.5-1.3 1.3-2.45l-.1-.05-.15.05" fill="url(#O)" fill-rule="evenodd" transform="translate(-311.65 -127.55)"/><path d="M375.8 209.45q-5.65 2.2-6.95 8.4l-.1-.95-.25-3.25q-1.4 2.25-1.65 5.05l-.3 1.2.05.55.4.4.55.3.05.05.45-.45 3.15-2.4 1-1.3.65-2.45q.2-1.85 1.55-3.65l1.4-1.5" fill="url(#P)" fill-rule="evenodd" transform="translate(-311.65 -127.55)"/><path d="m368.5 213.65.1-.1-.1.1" fill="url(#Q)" fill-rule="evenodd" transform="translate(-311.65 -127.55)"/><path d="m55.95 93.65-.05-.05-.55-.3-.4-.4-.05-.55.3-1.2q.25-2.8 1.65-5.05" fill="none" stroke="#faf29c" stroke-linecap="round" stroke-linejoin="round" stroke-width=".05"/><path d="m56.85 86.1.25 3.25.1.95q1.3-6.2 6.95-8.4" fill="none" stroke="#faf29c" stroke-linecap="round" stroke-linejoin="round" stroke-width=".05"/><path d="M369.15 221.9q.35-.65-.1-1.55-.45-.95-1.55-1.55-1.05-.6-2.1-.55t-1.4.7q-.4.65.05 1.6.5.95 1.55 1.55 1.1.6 2.1.55 1.05-.1 1.45-.75" fill="url(#R)" fill-rule="evenodd" transform="translate(-311.65 -127.55)"/><path d="M57.5 94.35q.35-.65-.1-1.55-.45-.95-1.55-1.55-1.05-.6-2.1-.55t-1.4.7q-.4.65.05 1.6.5.95 1.55 1.55 1.1.6 2.1.55 1.05-.1 1.45-.75z" fill="none" stroke="#faf29c" stroke-linecap="round" stroke-linejoin="round" stroke-width=".05"/><path d="M362.9 225.9q1.65.9 3.85-.3t3.7-3.8q1.45-2.6 1.35-5-.1-2.5-1.75-3.4-1.6-.95-3.8.3-2.2 1.15-3.65 3.75-1.5 2.6-1.4 5.05t1.7 3.4" fill="url(#S)" fill-rule="evenodd" transform="translate(-311.65 -127.55)"/><path d="m325.25 176.75.15.15q2.5-3.3 5.15-6.15l.85-.85q-1.5.2-2.1 1.4l-.5.3v.25l-.1.05-.1.1h-.3l-.15.05-.05.05v.2l-.2.4-.55.15-.2 1.1-.2.1-.35-.05-.5.3.1.3.15.35.15.45-.7.15q-.65-.1-.9.25v.2l.35.75m11.3-16.25-.5.55-4.85 5.65.6.4.9-1.8.35.05q1.05-.55 1.7-1.55l.5-.75h.4l.25.15q.7-.85.55-2.1v-.35l.05-.25h.05m-11.45 11.8-.45.35-.3.2-1.7 1.3.2.2.15-.15.35.05.25.05.05-.05.3-.2q.25-.05.4.2l.3-1.45.1.05.15.15.2.1.1-.4-.1-.4" fill="#fac251" fill-rule="evenodd" transform="translate(-311.65 -127.55)"/><path d="m325.25 176.75-.35-.75v-.2q.25-.35.9-.25l.7-.15-.15-.45-.15-.35-.1-.3.5-.3.35.05.2-.1.2-1.1.55-.15.2-.4v-.2l.05-.05.15-.05h.3l.1-.1.1-.05v-.25l.5-.3q.6-1.2 2.1-1.4l.1-.1-.15-1.05.05-.15.5.2.25.05q.5-.2.55-.85l.1-.2q.7-.2.9-.8.2-.75.9-1.3l.55-.45.85-.15.6-.6h.2l.15-.05.05-.15.05-.05v-.4l.15.05h.2q.4-.3.4-.8.1-.35.35-.05l.05.05.25.05.2-.1q.1-.65.5-1.1l-1.55-1.55-.4.45-.6-.55v.1l-.05.1h-.05l-.05.25v.35q.15 1.25-.55 2.1l-.25-.15h-.4l-.5.75q-.65 1-1.7 1.55l-.35-.05-.9 1.8-.6-.4-1.1 1.1q0 1.4-1.2 1.6l-.1.4q-.75.25-1.25.65l-1 .7q0 .9-.6 1.5l-.4-.15-.4-.2h-.05l.1.4-.1.4-.2-.1-.15-.15-.1-.05-.3 1.45q-.15-.25-.4-.2l-.3.2-.05.05-.25-.05-.35-.05-.15.15 2.4 2.4" fill="#d58080" fill-rule="evenodd" transform="translate(-311.65 -127.55)"/><path d="M331.5 169.8q3.9-4.1 8.25-7.25l-.6-.6q-.4.45-.5 1.1l-.2.1-.25-.05-.05-.05q-.25-.3-.35.05 0 .5-.4.8h-.2l-.15-.05v.4l-.05.05-.05.15-.15.05h-.2l-.6.6-.85.15-.55.45q-.7.55-.9 1.3-.2.6-.9.8l-.1.2q-.05.65-.55.85l-.25-.05-.5-.2-.05.15.15 1.05m6.1-9.4-.6-.6-.25.4-.15.1.6.55.4-.45m-1 0-.05.1.05-.1m-6.5 7.4-4.95 4.5.4.2.4.15q.6-.6.6-1.5l1-.7q.5-.4 1.25-.65l.1-.4q1.2-.2 1.2-1.6" fill="#f8f86a" fill-rule="evenodd" transform="translate(-311.65 -127.55)"/><path d="m19.75 42.35-.85.85q-2.65 2.85-5.15 6.15l-.15-.15m6.25-6.95q3.9-4.1 8.25-7.25l-.6-.6m-1.55-1.55-.6-.6-.25.4-.15.1m-.05.2-.5.55-4.85 5.65m-1.1 1.1-4.95 4.5.4.2.4.15q.6-.6.6-1.5l1-.7q.5-.4 1.25-.65l.1-.4q1.2-.2 1.2-1.6m-5 4.5-.45.35-.3.2-1.7 1.3 2.6 2.6" fill="none" stroke="#d58080" stroke-linecap="round" stroke-linejoin="round" stroke-width=".05"/><path d="m326.85 177.85.15.15q2.5-3.3 5.15-6.15l.85-.85q-1.5.2-2.1 1.4-.2.35-.5.3v.25l-.1.05-.1.1h-.3l-.15.05-.05.05v.2l-.2.4-.55.15-.2 1.1-.2.1-.35-.05-.5.3.1.3.15.35.15.45-.7.15q-.65-.1-.9.25v.2l.35.75m11.3-16.25-.5.55-4.85 5.65.6.4.9-1.8.35.05q1.05-.55 1.7-1.55l.5-.75h.4l.25.15q.7-.85.55-2.1v-.35l.05-.25h.05m-11.45 11.8-.45.35-.3.2-1.7 1.3.2.2.15-.15.35.05.25.05.05-.05.3-.2q.25-.05.4.2l.3-1.45.1.05.15.15.2.1.1-.4-.1-.4" fill="#fac251" fill-rule="evenodd" transform="translate(-311.65 -127.55)"/><path d="m326.85 177.85-.35-.75v-.2q.25-.35.9-.25l.7-.15-.15-.45-.15-.35-.1-.3.5-.3.35.05.2-.1.2-1.1.55-.15.2-.4v-.2l.05-.05.15-.05h.3l.1-.1.1-.05v-.25q.3.05.5-.3.6-1.2 2.1-1.4l.1-.1-.15-1.05.05-.15.5.2.25.05q.5-.2.55-.85l.1-.2q.7-.2.9-.8.2-.75.9-1.3l.55-.45.85-.15.6-.6h.2l.15-.05.05-.15.05-.05v-.4l.15.05h.2q.4-.3.4-.8.1-.35.35-.05l.05.05.25.05.2-.1q.1-.65.5-1.1l-1.55-1.55-.4.45-.6-.55v.1l-.05.1h-.05l-.05.25v.35q.15 1.25-.55 2.1l-.25-.15h-.4l-.5.75q-.65 1-1.7 1.55l-.35-.05-.9 1.8-.6-.4-1.1 1.1q0 1.4-1.2 1.6l-.1.4q-.75.25-1.25.65l-1 .7q0 .9-.6 1.5l-.4-.15-.4-.2h-.05l.1.4-.1.4-.2-.1-.15-.15-.1-.05-.3 1.45q-.15-.25-.4-.2l-.3.2-.05.05-.25-.05-.35-.05-.15.15 2.4 2.4" fill="#d58080" fill-rule="evenodd" transform="translate(-311.65 -127.55)"/><path d="M333.1 170.9q3.9-4.1 8.25-7.25l-.6-.6q-.4.45-.5 1.1l-.2.1-.25-.05-.05-.05q-.25-.3-.35.05 0 .5-.4.8h-.2l-.15-.05v.4l-.05.05-.05.15-.15.05h-.2l-.6.6-.85.15-.55.45q-.7.55-.9 1.3-.2.6-.9.8l-.1.2q-.05.65-.55.85l-.25-.05-.5-.2-.05.15.15 1.05m6.1-9.4-.6-.6-.25.4-.15.1.6.55.4-.45m-1 0-.05.1.05-.1m-6.5 7.4-4.95 4.5.4.2.4.15q.6-.6.6-1.5l1-.7q.5-.4 1.25-.65l.1-.4q1.2-.2 1.2-1.6" fill="#f8f86a" fill-rule="evenodd" transform="translate(-311.65 -127.55)"/><path d="m21.35 43.45-.85.85q-2.65 2.85-5.15 6.15l-.15-.15m6.25-6.95q3.9-4.1 8.25-7.25l-.6-.6m-1.55-1.55-.6-.6-.25.4-.15.1m-.05.2-.5.55-4.85 5.65m-1.1 1.1-4.95 4.5.4.2.4.15q.6-.6.6-1.5l1-.7q.5-.4 1.25-.65l.1-.4q1.2-.2 1.2-1.6m-5 4.5-.45.35-.3.2-1.7 1.3 2.6 2.6" fill="none" stroke="#d58080" stroke-linecap="round" stroke-linejoin="round" stroke-width=".05"/><path d="m324 175 .15.15q2.5-3.3 5.15-6.15l.85-.85q-1.5.2-2.1 1.4-.2.35-.5.3v.25l-.1.05-.1.1h-.3l-.15.05-.05.05v.2l-.2.4-.55.15-.2 1.1-.2.1-.35-.05q-.35.05-.5.3l.1.3.15.35.15.45-.7.15q-.65-.1-.9.25v.2l.35.75m11.3-16.25-.5.55-4.85 5.65.6.4.9-1.8.35.05q1.05-.55 1.7-1.55l.5-.75h.4l.25.15q.7-.85.55-2.1V159l.05-.25h.05m-11.45 11.8-.45.35-.3.2-1.7 1.3.2.2.15-.15.35.05.25.05.05-.05.3-.2q.25-.05.4.2l.3-1.45.1.05.15.15.2.1.1-.4-.1-.4" fill="#fac251" fill-rule="evenodd" transform="translate(-311.65 -127.55)"/><path d="m324 175-.35-.75v-.2q.25-.35.9-.25l.7-.15-.15-.45-.15-.35-.1-.3q.15-.25.5-.3l.35.05.2-.1.2-1.1.55-.15.2-.4v-.2l.05-.05.15-.05h.3l.1-.1.1-.05v-.25q.3.05.5-.3.6-1.2 2.1-1.4l.1-.1-.15-1.05.05-.15.5.2.25.05q.5-.2.55-.85l.1-.2q.7-.2.9-.8.2-.75.9-1.3l.55-.45.85-.15.6-.6h.2l.15-.05.05-.15.05-.05v-.4l.15.05h.2q.4-.3.4-.8.1-.35.35-.05l.05.05.25.05.2-.1q.1-.65.5-1.1l-1.55-1.55-.4.45-.6-.55v.1l-.05.1h-.05l-.05.25v.35q.15 1.25-.55 2.1l-.25-.15h-.4l-.5.75q-.65 1-1.7 1.55l-.35-.05-.9 1.8-.6-.4-1.1 1.1q0 1.4-1.2 1.6l-.1.4q-.75.25-1.25.65l-1 .7q0 .9-.6 1.5l-.4-.15-.4-.2h-.05l.1.4-.1.4-.2-.1-.15-.15-.1-.05-.3 1.45q-.15-.25-.4-.2l-.3.2-.05.05-.25-.05-.35-.05-.15.15 2.4 2.4" fill="#d58080" fill-rule="evenodd" transform="translate(-311.65 -127.55)"/><path d="M330.25 168.05q3.9-4.1 8.25-7.25l-.6-.6q-.4.45-.5 1.1l-.2.1-.25-.05-.05-.05q-.25-.3-.35.05 0 .5-.4.8h-.2l-.15-.05v.4l-.05.05-.05.15-.15.05h-.2l-.6.6-.85.15-.55.45q-.7.55-.9 1.3-.2.6-.9.8l-.1.2q-.05.65-.55.85l-.25-.05-.5-.2-.05.15.15 1.05m6.1-9.4-.6-.6-.25.4-.15.1.6.55.4-.45m-1 0-.05.1.05-.1m-6.5 7.4-4.95 4.5.4.2.4.15q.6-.6.6-1.5l1-.7q.5-.4 1.25-.65l.1-.4q1.2-.2 1.2-1.6" fill="#f8f86a" fill-rule="evenodd" transform="translate(-311.65 -127.55)"/><path d="m18.5 40.6-.85.85Q15 44.3 12.5 47.6l-.15-.15m6.25-6.95q3.9-4.1 8.25-7.25l-.6-.6M24.7 31.1l-.6-.6-.25.4-.15.1m-.05.2-.5.55-4.85 5.65m-1.1 1.1L12.25 43l.4.2.4.15q.6-.6.6-1.5l1-.7q.5-.4 1.25-.65l.1-.4q1.2-.2 1.2-1.6m-5 4.5-.45.35-.3.2-1.7 1.3 2.6 2.6" fill="none" stroke="#d58080" stroke-linecap="round" stroke-linejoin="round" stroke-width=".05"/><path d="m324 183.5.15-.15q2.5 3.3 5.15 6.15l.85.85q-1.5-.2-2.1-1.4-.2-.35-.5-.3v-.25l-.1-.05-.1-.1h-.3l-.15-.05-.05-.05v-.2l-.2-.4-.55-.15-.2-1.1-.2-.1-.35.05q-.35-.05-.5-.3l.1-.3.15-.35.15-.45-.7-.15q-.65.1-.9-.25v-.2l.35-.75m11.3 16.25-.5-.55-4.85-5.65.6-.4.9 1.8.35-.05q1.05.55 1.7 1.55l.5.75h.4l.25-.15q.7.85.55 2.1v.35l.05.25h.05m-11.45-11.8-.45-.35-.3-.2-1.7-1.3.2-.2.15.15.35-.05.25-.05.05.05.3.2.4-.2.3 1.45.1-.05.15-.15.2-.1.1.4-.1.4" fill="#fac251" fill-rule="evenodd" transform="translate(-311.65 -127.55)"/><path d="m324 183.5-.35.75v.2q.25.35.9.25l.7.15-.15.45-.15.35-.1.3q.15.25.5.3l.35-.05.2.1.2 1.1.55.15.2.4v.2l.05.05.15.05h.3l.1.1.1.05v.25q.3-.05.5.3.6 1.2 2.1 1.4l.1.1-.15 1.05.05.15.5-.2.25-.05q.5.2.55.85l.1.2q.7.2.9.8.2.75.9 1.3l.55.45.85.15.6.6h.2l.15.05.05.15.05.05v.4l.15-.05h.2q.4.3.4.8l.35.05.05-.05.25-.05.2.1q.1.65.5 1.1l-1.55 1.55-.4-.45-.6.55v-.1l-.05-.1h-.05l-.05-.25v-.35q.15-1.25-.55-2.1l-.25.15h-.4l-.5-.75q-.65-1-1.7-1.55l-.35.05-.9-1.8-.6.4-1.1-1.1q0-1.4-1.2-1.6l-.1-.4q-.75-.25-1.25-.65l-1-.7q0-.9-.6-1.5l-.4.15-.4.2h-.05l.1-.4-.1-.4-.2.1-.15.15-.1.05-.3-1.45-.4.2-.3-.2-.05-.05-.25.05-.35.05-.15-.15 2.4-2.4" fill="#d58080" fill-rule="evenodd" transform="translate(-311.65 -127.55)"/><path d="M330.25 190.45q3.9 4.1 8.25 7.25l-.6.6q-.4-.45-.5-1.1l-.2-.1-.25.05-.05.05-.35-.05q0-.5-.4-.8h-.2l-.15.05v-.4l-.05-.05-.05-.15-.15-.05h-.2l-.6-.6-.85-.15-.55-.45q-.7-.55-.9-1.3-.2-.6-.9-.8l-.1-.2q-.05-.65-.55-.85l-.25.05-.5.2-.05-.15.15-1.05m6.1 9.4-.6.6-.25-.4-.15-.1.6-.55.4.45m-1 0-.05-.1.05.1m-6.5-7.4-4.95-4.5.4-.2.4-.15q.6.6.6 1.5l1 .7q.5.4 1.25.65l.1.4q1.2.2 1.2 1.6" fill="#f8f86a" fill-rule="evenodd" transform="translate(-311.65 -127.55)"/><path d="m18.5 62.8-.85-.85Q15 59.1 12.5 55.8l-.15.15m6.25 6.95q3.9 4.1 8.25 7.25l-.6.6M24.7 72.3l-.6.6-.25-.4-.15-.1m-.05-.2-.5-.55L18.3 66m-1.1-1.1-4.95-4.5.4-.2.4-.15q.6.6.6 1.5l1 .7q.5.4 1.25.65l.1.4q1.2.2 1.2 1.6m-5-4.5-.45-.35-.3-.2-1.7-1.3 2.6-2.6" fill="none" stroke="#d58080" stroke-linecap="round" stroke-linejoin="round" stroke-width=".05"/><path d="m325.6 182.4.15-.15q2.5 3.3 5.15 6.15l.85.85q-1.5-.2-2.1-1.4-.2-.35-.5-.3v-.25l-.1-.05-.1-.1h-.3l-.15-.05-.05-.05v-.2l-.2-.4-.55-.15-.2-1.1-.2-.1-.35.05-.5-.3.1-.3.15-.35.15-.45-.7-.15-.9-.25v-.2l.35-.75m11.3 16.25-.5-.55-4.85-5.65.6-.4.9 1.8.35-.05q1.05.55 1.7 1.55l.5.75h.4l.25-.15q.7.85.55 2.1v.35l.05.25h.05m-11.45-11.8-.45-.35-.3-.2-1.7-1.3.2-.2.15.15.35-.05.25-.05.05.05.3.2.4-.2.3 1.45.1-.05.15-.15.2-.1.1.4-.1.4" fill="#fac251" fill-rule="evenodd" transform="translate(-311.65 -127.55)"/><path d="m325.6 182.4-.35.75v.2l.9.25.7.15-.15.45-.15.35-.1.3.5.3.35-.05.2.1.2 1.1.55.15.2.4v.2l.05.05.15.05h.3l.1.1.1.05v.25q.3-.05.5.3.6 1.2 2.1 1.4l.1.1-.15 1.05.05.15.5-.2.25-.05q.5.2.55.85l.1.2q.7.2.9.8.2.75.9 1.3l.55.45.85.15.6.6h.2l.15.05.05.15.05.05v.4l.15-.05h.2q.4.3.4.8l.35.05.05-.05.25-.05.2.1q.1.65.5 1.1l-1.55 1.55-.4-.45-.6.55v-.1l-.05-.1h-.05l-.05-.25v-.35q.15-1.25-.55-2.1l-.25.15h-.4l-.5-.75q-.65-1-1.7-1.55l-.35.05-.9-1.8-.6.4-1.1-1.1q0-1.4-1.2-1.6l-.1-.4q-.75-.25-1.25-.65l-1-.7q0-.9-.6-1.5l-.4.15-.4.2h-.05l.1-.4-.1-.4-.2.1-.15.15-.1.05-.3-1.45-.4.2-.3-.2-.05-.05-.25.05-.35.05-.15-.15 2.4-2.4" fill="#d58080" fill-rule="evenodd" transform="translate(-311.65 -127.55)"/><path d="M331.85 189.35q3.9 4.1 8.25 7.25l-.6.6q-.4-.45-.5-1.1l-.2-.1-.25.05-.05.05-.35-.05q0-.5-.4-.8h-.2l-.15.05v-.4l-.05-.05-.05-.15-.15-.05h-.2l-.6-.6-.85-.15-.55-.45q-.7-.55-.9-1.3-.2-.6-.9-.8l-.1-.2q-.05-.65-.55-.85l-.25.05-.5.2-.05-.15.15-1.05m6.1 9.4-.6.6-.25-.4-.15-.1.6-.55.4.45m-1 0-.05-.1.05.1m-6.5-7.4-4.95-4.5.4-.2.4-.15q.6.6.6 1.5l1 .7q.5.4 1.25.65l.1.4q1.2.2 1.2 1.6" fill="#f8f86a" fill-rule="evenodd" transform="translate(-311.65 -127.55)"/><path d="m20.1 61.7-.85-.85Q16.6 58 14.1 54.7l-.15.15m6.25 6.95q3.9 4.1 8.25 7.25l-.6.6M26.3 71.2l-.6.6-.25-.4-.15-.1m-.05-.2-.5-.55-4.85-5.65m-1.1-1.1-4.95-4.5.4-.2.4-.15q.6.6.6 1.5l1 .7q.5.4 1.25.65l.1.4q1.2.2 1.2 1.6m-5-4.5-.45-.35-.3-.2-1.7-1.3 2.6-2.6" fill="none" stroke="#d58080" stroke-linecap="round" stroke-linejoin="round" stroke-width=".05"/><path d="m322.75 185.25.15-.15q2.5 3.3 5.15 6.15l.85.85q-1.5-.2-2.1-1.4-.2-.35-.5-.3v-.25l-.1-.05-.1-.1h-.3l-.15-.05-.05-.05v-.2l-.2-.4-.55-.15-.2-1.1-.2-.1-.35.05-.5-.3.1-.3.15-.35.15-.45-.7-.15q-.65.1-.9-.25v-.2l.35-.75m11.3 16.25-.5-.55-4.85-5.65.6-.4.9 1.8.35-.05q1.05.55 1.7 1.55l.5.75h.4l.25-.15q.7.85.55 2.1v.35l.05.25h.05m-11.45-11.8-.45-.35-.3-.2-1.7-1.3.2-.2.15.15.35-.05.25-.05.05.05.3.2q.25.05.4-.2l.3 1.45.1-.05.15-.15.2-.1.1.4-.1.4" fill="#fac251" fill-rule="evenodd" transform="translate(-311.65 -127.55)"/><path d="m322.75 185.25-.35.75v.2q.25.35.9.25l.7.15-.15.45-.15.35-.1.3.5.3.35-.05.2.1.2 1.1.55.15.2.4v.2l.05.05.15.05h.3l.1.1.1.05v.25q.3-.05.5.3.6 1.2 2.1 1.4l.1.1-.15 1.05.05.15.5-.2.25-.05q.5.2.55.85l.1.2q.7.2.9.8.2.75.9 1.3l.55.45.85.15.6.6h.2l.15.05.05.15.05.05v.4l.15-.05h.2q.4.3.4.8l.35.05.05-.05.25-.05.2.1q.1.65.5 1.1l-1.55 1.55-.4-.45-.6.55v-.1l-.05-.1H334l-.05-.25v-.35q.15-1.25-.55-2.1l-.25.15h-.4l-.5-.75q-.65-1-1.7-1.55l-.35.05-.9-1.8-.6.4-1.1-1.1q0-1.4-1.2-1.6l-.1-.4q-.75-.25-1.25-.65l-1-.7q0-.9-.6-1.5l-.4.15-.4.2h-.05l.1-.4-.1-.4-.2.1-.15.15-.1.05-.3-1.45q-.15.25-.4.2l-.3-.2-.05-.05-.25.05-.35.05-.15-.15 2.4-2.4" fill="#d58080" fill-rule="evenodd" transform="translate(-311.65 -127.55)"/><path d="M329 192.2q3.9 4.1 8.25 7.25l-.6.6q-.4-.45-.5-1.1l-.2-.1-.25.05-.05.05-.35-.05q0-.5-.4-.8h-.2l-.15.05v-.4l-.05-.05-.05-.15-.15-.05h-.2l-.6-.6-.85-.15-.55-.45q-.7-.55-.9-1.3-.2-.6-.9-.8l-.1-.2q-.05-.65-.55-.85l-.25.05-.5.2-.05-.15.15-1.05m6.1 9.4-.6.6-.25-.4-.15-.1.6-.55.4.45m-1 0-.05-.1.05.1m-6.5-7.4-4.95-4.5.4-.2.4-.15q.6.6.6 1.5l1 .7q.5.4 1.25.65l.1.4q1.2.2 1.2 1.6" fill="#f8f86a" fill-rule="evenodd" transform="translate(-311.65 -127.55)"/><path d="m17.25 64.55-.85-.85q-2.65-2.85-5.15-6.15l-.15.15m6.25 6.95q3.9 4.1 8.25 7.25l-.6.6m-1.55 1.55-.6.6-.25-.4-.15-.1m-.05-.2-.5-.55-4.85-5.65m-1.1-1.1L11 62.15l.4-.2.4-.15q.6.6.6 1.5l1 .7q.5.4 1.25.65l.1.4q1.2.2 1.2 1.6m-5-4.5-.45-.35-.3-.2-1.7-1.3 2.6-2.6" fill="none" stroke="#d58080" stroke-linecap="round" stroke-linejoin="round" stroke-width=".05"/></g></defs></svg>