<svg viewBox="0 0 311.96 386.76" xmlns="http://www.w3.org/2000/svg" xmlns:xlink="http://www.w3.org/1999/xlink"><use transform="matrix(1.0692 .6173 -.6696 1.1597 135.5 -105.89)" width="197.3" height="368.55" xlink:href="#a"/><defs><g id="a" transform="translate(44.35 159.15)"><use transform="translate(19 -4.1)" width="13" height="4.25" xlink:href="#b"/><use transform="translate(10.75 -.85)" width="18.25" height="48.45" xlink:href="#c"/><use transform="matrix(.8774 .1352 -.1352 .8774 117.5 -139.44)" width="25.8" height="26.6" xlink:href="#d"/><use transform="matrix(.9436 -.5448 .5989 .7832 89.44 -140.98)" width="25.8" height="26.6" xlink:href="#d"/><use transform="matrix(.2033 .7586 -.7586 .2033 137.49 -116.84)" width="25.8" height="26.6" xlink:href="#d"/><use transform="translate(6.05 26.95)" width="11.55" height="3.05" xlink:href="#e"/><use transform="matrix(.6952 0 0 1.8 21.802 18.35)" width="11.55" height="3.05" xlink:href="#e"/><use transform="matrix(1 0 0 1.8 17.5 14.9)" width="11.55" height="3.05" xlink:href="#e"/><use transform="matrix(1 0 0 5.67 19 28.815)" width="11.55" height="3.05" xlink:href="#e"/><use transform="matrix(.5241 .8499 -.9073 .5595 108.67 -159.13)" width="78.65" height="78.7" xlink:href="#f"/><use transform="rotate(36.795 214.824 3.969) scale(.9989)" width="78.65" height="78.7" xlink:href="#f"/><use transform="rotate(14.999 300.744 -35.495)" width="78.65" height="78.7" xlink:href="#f"/><use transform="matrix(.5241 -.8499 -.9073 -.5595 111.72 209.38)" width="78.65" height="78.7" xlink:href="#f"/><use transform="matrix(.7999 -.5983 -.5983 -.7999 48.224 178.13)" width="78.65" height="78.7" xlink:href="#f"/><use transform="scale(1 -1) rotate(14.999 493.12 -49.036)" width="78.65" height="78.7" xlink:href="#f"/><use transform="translate(-44.344 -36.185) scale(.8882)" width="128.45" height="50.7" xlink:href="#g"/><use transform="matrix(.8882 0 0 -.8882 -44.344 83.685)" width="128.45" height="50.7" xlink:href="#g"/><use transform="translate(-18.6 -18.3)" width="72.4" height="72.1" xlink:href="#h"/><use transform="translate(11.8 -4.7) scale(.5026)" width="82.5" height="80" xlink:href="#i"/><use transform="translate(32.9 -108.5)" width="82.5" height="256.55" xlink:href="#j"/><use transform="matrix(.5462 0 0 .5 14.073 13.95)" width="35.4" height="36.9" xlink:href="#k"/></g><g id="l"><path d="M3.55 47q-7.15-23.5 0-47H17.2q-6 23.75 0 47.45H4.15l-.6-.45" fill="#52828a" fill-rule="evenodd" transform="translate(.55 .5)"/><path d="M4.15 47.45H17.2q-6-23.7 0-47.45H3.55q-7.15 23.5 0 47" fill="none" stroke="#000" stroke-linecap="round" stroke-linejoin="round" stroke-opacity=".102" transform="translate(.55 .5)"/></g><g id="d" transform="translate(-33.9 65.45)"><use transform="translate(35.35 -59.8)" width="24.25" height="20.95" xlink:href="#m"/><use transform="matrix(.3914 -.1049 .0684 .2554 33.925 -59.564)" width="56" height="56" xlink:href="#n"/><use transform="translate(40.35 -58.65)" width="12.4" height="4.6" xlink:href="#o"/></g><g id="m"><path d="M58.4-58.95q4.05 3.15-15.7 15.15l-6.2 3.75-.55.3v-.3l-.05-.75q-.75-11.35 6.9-15.6 7.8-3.9 15.6-2.55m-21.9 18.9.05-.05-.05.05m.05-.05L52.5-54.8q-4.65-2.7-12.35 3.65L35.9-40.8l.65.7" fill="#d9d9d9" fill-rule="evenodd" transform="translate(-35.35 59.8)"/><path d="m36.55-40.1-.65-.7 4.25-10.35q7.7-6.35 12.35-3.65L36.55-40.1" fill="url(#p)" fill-rule="evenodd" transform="translate(-35.35 59.8)"/><path d="M58.4-58.95q4.05 3.15-15.7 15.15l-6.2 3.75-.55.3v-.3l-.05-.75q-.75-11.35 6.9-15.6 7.8-3.9 15.6-2.55M36.55-40.1l-.05.05" fill="none" stroke="#000" stroke-linecap="round" stroke-linejoin="round" stroke-opacity=".102" transform="translate(-35.35 59.8)"/><path d="m53.75-51.2.7-.45q-19.75 19.8-18.7 8.95v-3.55q10.5-6.75 18-4.95" fill="#9ecae3" fill-opacity=".4" fill-rule="evenodd" transform="translate(-35.35 59.8)"/></g><g id="s"><path d="M0 2.05v-.7L7.95 0l2.6 2.05H0" fill="#fefefe" fill-rule="evenodd" transform="translate(.5 .5)"/><path d="M0 1.35 7.95 0l2.6 2.05H0" fill="none" stroke="#c4c4c4" stroke-linecap="round" stroke-linejoin="round" stroke-opacity=".102" transform="translate(.5 .5)"/></g><g id="f" transform="translate(24.85 11.45)"><clipPath id="u" transform="translate(24.85 11.45)"><use transform="translate(-24.85 -11.45)" width="78.65" height="78.7" xlink:href="#t"/></clipPath><g clip-path="url(#u)"><use transform="translate(-6.528 -6.378) scale(.4983)" width="72.4" height="72.1" xlink:href="#h"/><use transform="translate(2 4.4)" width="26.45" height="56.15" xlink:href="#v"/><use transform="matrix(.1748 .1009 -.248 .4296 6.8 -6.903)" width="56" height="56" xlink:href="#n"/><use transform="matrix(.0556 -.0057 .0504 .4927 9.83 26.865)" width="56" height="56" xlink:href="#n"/><use transform="translate(15.05 25.6)" width="9" height="25.5" xlink:href="#w"/></g></g><g id="t"><path d="M14.55 21.15q2.7 0 4.6-1.9t1.9-4.6-1.9-4.6-4.6-1.9-4.6 1.9-1.9 4.6 1.9 4.6 4.6 1.9m3.85 45.6-42.75-24.7 34.9-53 42.75 24.7-34.9 53" fill="#a5dee1" fill-rule="evenodd" transform="translate(24.85 11.45)"/><path d="m18.4 66.75-42.75-24.7 34.9-53 42.75 24.7-34.9 53" fill="none" stroke="#0c4548" stroke-linecap="round" stroke-linejoin="round" stroke-opacity=".102" transform="translate(24.85 11.45)"/><path d="M14.55 21.15q-2.7 0-4.6-1.9t-1.9-4.6 1.9-4.6 4.6-1.9 4.6 1.9 1.9 4.6-1.9 4.6-4.6 1.9" fill="none" stroke="#0c4548" stroke-linecap="round" stroke-linejoin="round" stroke-opacity=".153" transform="translate(24.85 11.45)"/></g><g id="h" transform="translate(13.1 12.8)"><use transform="translate(-.5 -.5)" width="59.8" height="59.8" xlink:href="#x"/><use transform="matrix(.3392 .4488 -.7041 .5321 26.316 -12.816)" width="56" height="56" xlink:href="#y"/><use transform="translate(23.85 1.2)" width="27.75" height="11.45" xlink:href="#z"/></g><g id="x"><path d="M48.25 29.4q0-7.8-5.55-13.35-5.5-5.55-13.3-5.55t-13.35 5.55T10.5 29.4t5.55 13.3q5.55 5.55 13.35 5.55t13.3-5.55q5.55-5.5 5.55-13.3M6.45 47.8Q0 39.95 0 29.4 0 17.2 8.6 8.6T29.4 0t20.8 8.6l.7.75q6.35 14.8.85 29.6-6.4 11.7-17 13.4Q17 57.4 6.45 47.8" fill="#6bbfd0" fill-rule="evenodd" transform="translate(.5 .5)"/><path d="M48.25 29.4q0 7.8-5.55 13.3-5.5 5.55-13.3 5.55T16.05 42.7q-5.55-5.5-5.55-13.3t5.55-13.35T29.4 10.5t13.3 5.55q5.55 5.55 5.55 13.35" fill="url(#A)" fill-rule="evenodd" transform="translate(.5 .5)"/><path d="M50.9 9.35q7.9 8.35 7.9 20.05 0 12.2-8.6 20.8t-20.8 8.6-20.8-8.6l-2.15-2.4q10.55 9.6 28.3 4.55 10.6-1.7 17-13.4 5.5-14.8-.85-29.6" fill="#5db9bc" fill-rule="evenodd" transform="translate(.5 .5)"/><path d="M50.9 9.35q7.9 8.35 7.9 20.05 0 12.2-8.6 20.8t-20.8 8.6-20.8-8.6l-2.15-2.4Q0 39.95 0 29.4 0 17.2 8.6 8.6T29.4 0t20.8 8.6z" fill="none" stroke="#629382" stroke-linecap="round" stroke-linejoin="round" stroke-opacity=".2" transform="translate(.5 .5)"/><path d="m4.25 27.05.5-.8q.25-12 11-18.7Q25.8 3.15 27.5 12.3q-.65 8.25-23.25 14.75" fill="#a5dee1" fill-rule="evenodd" transform="translate(.5 .5)"/><path d="m4.25 27.05.5-.8q.25-12 11-18.7Q25.8 3.15 27.5 12.3q-.65 8.25-23.25 14.75z" fill="none" stroke="#629282" stroke-linecap="round" stroke-linejoin="round" stroke-opacity=".102" transform="translate(.5 .5)"/><path d="m42.45 21.9-.3.7-.7.3q-.4 0-.7-.3t-.3-.7.3-.7.7-.3.7.3l.3.7M44 25.85l.3.7-.3.7-.7.3-.7-.3q-.3-.3-.3-.7t.3-.7.7-.3.7.3m.1 5 .3.7-.3.7-.7.3q-.4 0-.7-.3t-.3-.7.3-.7.7-.3.7.3m-2.9 4.65q.3-.3.7-.3t.7.3l.3.7-.3.7-.7.3q-.4 0-.7-.3t-.3-.7.3-.7M29.8 14.55l.3.7-.3.7q-.3.3-.7.3l-.7-.3-.3-.7q0-.4.3-.7t.7-.3.7.3m-6.25.95q.3-.3.7-.3t.7.3l.3.7-.3.7-.7.3q-.4 0-.7-.3t-.3-.7.3-.7m-2.75 3.95q-.3.3-.7.3l-.7-.3q-.3-.3-.3-.7t.3-.7.7-.3.7.3l.3.7-.3.7m16.8-1.8q.3-.3.7-.3t.7.3l.3.7-.3.7-.7.3q-.4 0-.7-.3t-.3-.7.3-.7m-4.3-2.4q.3-.3.7-.3t.7.3l.3.7-.3.7q-.3.3-.7.3l-.7-.3q-.3-.3-.3-.7t.3-.7M16.2 22q.3-.3.7-.3t.7.3l.3.7-.3.7-.7.3q-.4 0-.7-.3t-.3-.7.3-.7m.15 5.4-.3.7-.7.3q-.4 0-.7-.3t-.3-.7.3-.7.7-.3l.7.3.3.7m-1.5 4.4q.3-.3.7-.3t.7.3l.3.7-.3.7-.7.3-.7-.3q-.3-.3-.3-.7t.3-.7m2.65 4.35q.4 0 .7.3l.3.7-.3.7-.7.3q-.4 0-.7-.3t-.3-.7.3-.7.7-.3m2.6 3.8q.3-.3.7-.3t.7.3l.3.7-.3.7-.7.3-.7-.3q-.3-.3-.3-.7t.3-.7m6.1 3-.3.7-.7.3-.7-.3q-.3-.3-.3-.7t.3-.7.7-.3.7.3l.3.7m3.9-.1.3.7-.3.7-.7.3-.7-.3q-.3-.3-.3-.7t.3-.7.7-.3.7.3m7.7-3.25q.3-.3.7-.3t.7.3l.3.7-.3.7-.7.3q-.4 0-.7-.3t-.3-.7.3-.7M35 42.05l.3.7-.3.7-.7.3q-.4 0-.7-.3t-.3-.7.3-.7.7-.3.7.3" fill="#498285" fill-opacity=".6" fill-rule="evenodd" transform="translate(.5 .5)"/><path d="M47.05 20.25q1.3-.8 3.1-.8t3.1.8q1.3.75 1.3 1.85t-1.3 1.9q-1.3.75-3.1.75t-3.1-.75q-1.3-.8-1.3-1.9t1.3-1.85m3.2-2.75q-1.05.75-2.5.75t-2.45-.75q-1.05-.75-1.05-1.85t1.05-1.85q1-.75 2.45-.75t2.5.75q1 .75 1 1.85t-1 1.85" fill="#65b0b0" fill-opacity=".502" fill-rule="evenodd" transform="translate(.5 .5)"/></g><g id="v"><path d="M17.35 51.05H17l.35-.05v.05" fill="#6bbfd0" fill-rule="evenodd" transform="translate(-2 -4.4)"/><path d="M2.5 22.9q13.45 10.9 24.25 0-8.4 13.1-9.4 28.1l-.35.05h.35l.05-.05 4.25 1.7q.8 6.85-7.25 7.35-7.05-.65-7.15-7.5l4.6-1.65q.5-15.55-9.35-28" fill="url(#E)" fill-rule="evenodd" transform="translate(-2 -4.4)"/><path d="M2.5 22.9q9.85 12.45 9.35 28l-4.6 1.65q.1 6.85 7.15 7.5 8.05-.5 7.25-7.35L17.4 51h-.05q1-15 9.4-28.1m-9.4 28.15H17l.35-.05v.05" fill="none" stroke="#0c4548" stroke-linecap="round" stroke-linejoin="round" stroke-opacity=".153" transform="translate(-2 -4.4)"/><path d="M5.85 26.8q5.5 1.65 6.5 10.2l1.4 12.45q-2.4-12.9-7.9-22.65" fill="#a5dee1" fill-opacity=".6" fill-rule="evenodd" transform="translate(-2 -4.4)"/><path d="M28.45 15.75q-.4 4.55-5.25 11.5 4.65-11.4.9-22.85 4 4.55 4.35 11.35" fill="#2e7e8b" fill-opacity=".4" fill-rule="evenodd" transform="translate(-2 -4.4)"/></g><g id="g" transform="translate(16.15 5.95)"><use transform="translate(-10.15 -.5)" width="122.45" height="39.55" xlink:href="#F"/><use transform="matrix(.5219 -.1398 .0912 .3405 71.983 1.882)" width="56" height="56" xlink:href="#n"/><use transform="matrix(.8872 -.0833 .0636 .2373 -16.173 31.438)" width="56" height="56" xlink:href="#n"/><use transform="translate(25.6 -.8)" width="71.9" height="29.75" xlink:href="#G"/><use transform="translate(47.8 11.65)" width="30.45" height="14.85" xlink:href="#H"/></g><g id="F"><path d="m104.4 33.15-.25.2q-1.85 1.35-3.9 2.2L97 36.5l-.4.05-3.2.25-3.15-.25q-1.9-.3-3.65-1-2.1-.85-3.95-2.2l-1.8-1.5-1.15-1.15 1.4.45q-2.4-6.95 3.85-13 6.55-3.1 11.95 1.95l.1 1.55q0 4.3-3.05 7.35-1.55 1.55-3.45 2.3l-1.8.55h-.25l-1.8.15-1.75-.15 1.75.15 1.8-.15h.25l1.8-.55q1.9-.75 3.45-2.3Q97 25.95 97 21.65l-.1-1.55q-.5-3.3-2.95-5.75-3.05-3-7.3-3-3.6 0-6.3 2.15-3.3 1.35-8.35 3.75.3-1.65 1.75-3.85.6-.9-.8-2.35l.5-.3q10.95-6.55 22.4-4.1 9.35 5.55 8.55 16v10.5m-28-9.65.25 2.2-.05-.15-.2-.05q-.35-.85 0-2" fill-opacity=".153" fill-rule="evenodd" transform="translate(10.15 .5)"/><path d="M86.6 36.55H0q49.15-10.35 72.5-25.2l.45-.3q1.4 1.45.8 2.35-1.45 2.2-1.75 3.85L29.2 33.3q45.3-.75 53.15.1 2.1 1.7 4.25 2.15v1m-6.9-5.85.2.25.05.05-.25-.05v-.25" fill="#d9d9d9" fill-rule="evenodd" transform="translate(10.15 .5)"/><path d="m80.35 13.5-1 .85-.3.35q-1.4 1.55-2.1 3.35-.65 1.7-.65 3.6l.1 1.85q-.35 1.15 0 2l.2.05.05.15.1.25 2.95 4.75v.25l.25.05 2.4 2.4q-7.85-.85-53.15-.1L72 17.25q5.05-2.4 8.35-3.75" fill="url(#I)" fill-rule="evenodd" transform="translate(10.15 .5)"/><path d="M73.45 10.75Q77.9 7.8 81.3 4.4q1.1-1.1 2.45-1.9Q87.7 0 93.4 0q7.6 0 13 5.4t5.4 13-5.4 13l-2 1.75v-10.5q.8-10.45-8.55-16-11.45-2.45-22.4 4.1" fill="url(#J)" fill-rule="evenodd" transform="translate(10.15 .5)"/><path d="M80.35 13.5q2.7-2.15 6.3-2.15 4.25 0 7.3 3 2.45 2.45 2.95 5.75-5.4-5.05-11.95-1.95-6.25 6.05-3.85 13l-1.4-.45-2.95-4.75-.1-.25-.25-2.2-.1-1.85q0-1.9.65-3.6.7-1.8 2.1-3.35l.3-.35 1-.85" fill="url(#K)" fill-rule="evenodd" transform="translate(10.15 .5)"/><path d="M73.45 10.75Q77.9 7.8 81.3 4.4q1.1-1.1 2.45-1.9Q87.7 0 93.4 0q7.6 0 13 5.4t5.4 13-5.4 13l-2 1.75m-.25.2q-1.85 1.35-3.9 2.2L97 36.5l-.4.05-3.2.25-3.15-.25H0q49.15-10.35 72.5-25.2l.45-.3.5-.3M96.9 20.1l.1 1.55q0 4.3-3.05 7.35-1.55 1.55-3.45 2.3l-1.8.55h-.25l-1.8.15-1.75-.15m12-11.75q-.5-3.3-2.95-5.75-3.05-3-7.3-3-3.6 0-6.3 2.15l-1 .85-.3.35q-1.4 1.55-2.1 3.35-.65 1.7-.65 3.6l.1 1.85.25 2.2m.1.25 2.95 4.75.2.25 2.45 2.45m4.25 2.15q-2.15-.45-4.25-2.15m7.9 3.15q-1.9-.3-3.65-1" fill="none" stroke="#000" stroke-linecap="round" stroke-linejoin="round" stroke-opacity=".153" transform="translate(10.15 .5)"/><path d="m114.55 33.65-.25.2" fill="none" stroke="#000" stroke-linecap="round" stroke-linejoin="round" stroke-opacity=".153" stroke-width="2"/><path d="m55.9 37.25-58.55 1.3q-13.25-.55-1.45-3l37.15-7.15 6.55-1.3Q.15 36.05 55.9 37.25" fill="#9ecae3" fill-opacity=".4" fill-rule="evenodd" transform="translate(10.15 .5)"/><path d="m39.6 27.1-6.55 1.3-37.15 7.15q-11.8 2.45 1.45 3l58.55-1.3M33.05 28.4l-.55-.75" fill="none" stroke="#000" stroke-linecap="round" stroke-linejoin="round" stroke-opacity=".051" transform="translate(10.15 .5)"/></g><g id="G"><path d="M95.4 2.3q-2.25 1.3-5.75 2.25l-6.1.9q-2.6.05-2.85-.9-.25-.9 2.05-2.2Q85.05 1.1 88.5.2q3.5-.95 6.1-1 2.65 0 2.9.9.25.95-2.1 2.2m-10 13.5q-.55.55-1.35.55-.75 0-1.35-.55-.55-.5-.55-1.25 0-.7.55-1.25.6-.5 1.35-.5.8 0 1.35.5.6.55.6 1.3 0 .7-.6 1.2" fill="#fff" fill-rule="evenodd" transform="translate(-25.6 .8)"/><path d="M55 28.45h23.65m-1.8-3.9q-.25-8.2 6.05-11.8" fill="none" stroke="#fff" stroke-linecap="round" stroke-linejoin="round" stroke-opacity=".4" transform="translate(-25.6 .8)"/><path d="M28.5 14.25q5.45.2 21.35 5.65l4.75.35-8.65 3.85-.2.05-9.3-1.05q-11.35-4.3-10.8-7.8.2-1.15 2.85-1.05" fill="#d9d9d9" fill-rule="evenodd" transform="translate(-25.6 .8)"/><path d="M28.5 14.25q5-.25 22.2 5.65l4.75.35" fill="none" stroke="#000" stroke-linecap="round" stroke-linejoin="round" stroke-opacity=".153" transform="translate(-25.6 .8)"/></g><g id="H" transform="translate(.5)"><use transform="matrix(.828 -.4277 .1508 .2294 5.558 12.212)" width="28" height="8" xlink:href="#L"/><use transform="translate(-.5)" width="27.4" height="14.85" xlink:href="#M"/></g><g id="M"><path d="M24.2 3.65 21.85 5.7l-.1.05-.25.25-1.1.7Q-2.3 21.15.25 8.3 1 3 2.75 1.85q1.7-1.1 4.15-1 2.4.1 6.8 3.35 2.7.45 3.85-.85l.4-.3q13.9-6.4 6.25.6M4.8 5q0-1.1-.55-1.9-.5-.75-1.25-.75t-1.3.75q-.5.8-.5 1.9t.5 1.85q.55.8 1.3.8t1.25-.8Q4.8 6.1 4.8 5" fill="#d9d9d9" fill-opacity=".6" fill-rule="evenodd" transform="translate(.5)"/><path d="M4.8 5q0 1.1-.55 1.85-.5.8-1.25.8t-1.3-.8Q1.2 6.1 1.2 5t.5-1.9q.55-.75 1.3-.75t1.25.75q.55.8.55 1.9" fill="#fff" fill-rule="evenodd" transform="translate(.5)"/><path d="m21.75 5.75.1-.05 2.35-2.05m-6.65-.3q-1.15 1.3-3.85.85Q9.3.95 6.9.85q-2.45-.1-4.15 1Q1 3 .25 8.3-2.3 21.15 20.4 6.7l1.1-.7" fill="none" stroke="#000" stroke-linecap="round" stroke-linejoin="round" stroke-opacity=".102" transform="translate(.5)"/></g><g id="j" fill="none" stroke-linecap="round" stroke-linejoin="round"><path d="m38.2-19-4.45 3.5-.1.05-.25.25.25-.25" stroke="#000" stroke-opacity=".102" transform="translate(-32.9 108.5)"/><path d="M76.4 1.5q8.2 2.1 1.75 9.7M70 3.45q-6.9 6 .75 9.15" stroke="#5e7173" stroke-opacity=".663" stroke-width="3"/><path d="m108.25-95.7 1 242.65" stroke="url(#R)" stroke-width="2.2" transform="translate(-32.9 108.5)"/></g><g id="k" transform="translate(.05 2)"><use transform="translate(-.05 -.5)" width="35.4" height="35.4" xlink:href="#S"/><use transform="matrix(.866 -.5 .4299 .7446 1.4 6.2)" width="16.4" height="16.4" xlink:href="#T"/><use transform="translate(8.05 2.9)" width="4.85" height="4.4" xlink:href="#U"/></g><g id="V"><path d="M28.6 17.65q0 4.8-3.35 8.15t-8.15 3.35q-4.75 0-8.1-3.35t-2.8-4.45q.5-1.15 13.65-4.45Q8.3 10.25 9 9.55q3.35-3.35 8.1-3.35 4.8 0 8.15 3.35t3.35 8.1" fill="#60add1" fill-opacity=".8" fill-rule="evenodd" transform="translate(.5 .5)"/><path d="M20.1.25q5.25.8 9.25 4.8Q34.4 10.1 34.4 17.2t-5.05 12.15Q24.7 34 18.25 34.4 34.75 21.9 20.1.25" fill="#5c9ab6" fill-opacity=".8" fill-rule="evenodd" transform="translate(.5 .5)"/><path d="M18.25 34.4H17.2q-7.1 0-12.15-5.05T0 17.2 5.05 5.05 17.2 0l2.9.25Q34.75 21.9 18.25 34.4" fill="#60add1" fill-opacity=".8" fill-rule="evenodd" transform="translate(.5 .5)"/><path d="M20.1.25q5.25.8 9.25 4.8Q34.4 10.1 34.4 17.2t-5.05 12.15Q24.7 34 18.25 34.4H17.2q-7.1 0-12.15-5.05T0 17.2 5.05 5.05 17.2 0z" fill="none" stroke="#5c7174" stroke-linecap="round" stroke-linejoin="round" stroke-opacity=".251" transform="translate(.5 .5)"/><path d="m15.75 8.25-1.7-3.7m8.4 4.7L23.9 5.6m2.8 9.25 3.1-.95" fill="none" stroke="#a6d7ed" stroke-linecap="round" stroke-linejoin="round" stroke-opacity=".2" transform="translate(.5 .5)"/><path d="M1.55 13.9h.1q1.35 4.35 2 5.4 2 3.6 6 3.6l2.4-.3 2.5-.3q1.5 0 2.2.6 1 .85 1 3.1t-1.4 3.9q-1.5 1.8-3.8 1.8-3.55 0-7-4.6-4-5.35-4-13.2" fill="#65c2ed" fill-rule="evenodd" transform="translate(.5 .5)"/><path d="M22.7 2.25q3.5 2.25 6.8 6.15l.35.35q5.45 7.4 0 17.1L28.5 28q-3.8 3.25-6.9 3.85 6.5-7.15 7-15.45.45-8.35-5.9-14.15" fill="#5c9ab6" fill-rule="evenodd" transform="translate(.5 .5)"/></g><path d="M31.5-.35h-.75v-.7M19.5-3.6v3.25" fill="none" stroke="#000" stroke-linecap="round" stroke-linejoin="round" stroke-opacity=".102" transform="translate(-19 4.1)" id="b"/><path d="M19.8-19.8Q28-11.6 28 0t-8.2 19.8T0 28t-19.8-8.2T-28 0t8.2-19.8T0-28t19.8 8.2" fill="url(#r)" fill-rule="evenodd" transform="translate(28 28)" id="q"/><path d="m46.1-57.95 4.5-.7q1.95 0 2.15.65.15.7-1.55 1.6-1.65.95-4.25 1.65-2.55.7-4.5.7-1.9 0-2.1-.7-.15-.65 1.5-1.6 1.7-.9 4.25-1.6" fill="#fff" fill-rule="evenodd" transform="translate(-40.35 58.65)" id="o"/><path d="M19.8-19.8Q28-11.6 28 0t-8.2 19.8T0 28t-19.8-8.2T-28 0t8.2-19.8T0-28t19.8 8.2" fill="url(#C)" fill-rule="evenodd" transform="translate(28 28)" id="B"/><path d="M27.5 3.95Q16.85.2 37.45 1.6q10.3 3.95 14.15 11.05-9.25-9.3-24.05-8.25l-.05-.45" fill="url(#D)" fill-rule="evenodd" transform="translate(-23.85 -1.2)" id="z"/><path d="M1.1 24.4Q2.15 12.05 7.9 1.1" fill="none" stroke="#52a4b4" stroke-linecap="round" stroke-linejoin="round" stroke-opacity=".463" stroke-width="2.2" id="w"/><path d="M28 8.05H0v-8h28v8" fill="url(#O)" fill-rule="evenodd" transform="translate(0 -.05)" id="N"/><path d="M82.5 40q0 16.55-12.15 28.25Q58.35 80 41.25 80 24.1 80 12 68.25 0 56.55 0 40t12-28.3Q24.1 0 41.25 0q17.1 0 29.1 11.7Q82.5 23.45 82.5 40" fill="url(#Q)" fill-rule="evenodd" id="P"/><path d="M14 14q-2.4 2.4-5.8 2.4T2.4 14 0 8.2t2.4-5.8T8.2 0 14 2.4t2.4 5.8T14 14" fill="url(#X)" fill-rule="evenodd" id="W"/><path d="M12.15 6.65q-.7.65-1.7.65t-1.7-.65-.7-1.55.7-1.55 1.7-.65 1.7.65q.75.65.75 1.55t-.75 1.55" fill="#d0e5ed" fill-rule="evenodd" transform="translate(-8.05 -2.9)" id="U"/><use width="18.25" height="48.45" xlink:href="#l" id="c"/><use width="56" height="56" xlink:href="#q" id="n"/><use width="11.55" height="3.05" xlink:href="#s" id="e"/><use width="56" height="56" xlink:href="#B" id="y"/><use width="28" height="8" xlink:href="#N" id="L"/><use width="82.5" height="80" xlink:href="#P" id="i"/><use width="35.4" height="35.4" xlink:href="#V" id="S"/><use width="16.4" height="16.4" xlink:href="#W" id="T"/><linearGradient id="p" x1="-819.2" x2="819.2" gradientTransform="matrix(.0101 0 0 .009 44.2 -47.45)" gradientUnits="userSpaceOnUse"><stop stop-color="#d9d9d9" offset="0"/><stop stop-color="#fffce3" offset="1"/></linearGradient><linearGradient id="D" x1="-819.2" x2="819.2" gradientTransform="matrix(.015 0 0 .0063 39.75 7.8)" gradientUnits="userSpaceOnUse"><stop stop-color="#8aced0" offset="0"/><stop stop-color="#a5dcd0" offset="1"/></linearGradient><linearGradient id="E" x1="-819.2" x2="819.2" gradientTransform="matrix(0 -.0148 .0227 0 14.6 41.45)" gradientUnits="userSpaceOnUse"><stop stop-color="#6bbfd0" offset="0"/><stop stop-color="#88ced0" offset="1"/></linearGradient><linearGradient id="I" x1="-819.2" x2="819.2" gradientTransform="matrix(.0308 0 0 .0098 59.4 25.9)" gradientUnits="userSpaceOnUse"><stop stop-color="#d9d9d9" offset="0"/><stop stop-color="#fffce3" offset="1"/></linearGradient><linearGradient id="J" x1="-819.2" x2="819.2" gradientTransform="matrix(-.0166 -.0166 .0143 -.0143 92.55 16.65)" gradientUnits="userSpaceOnUse"><stop stop-color="#d9d9d9" offset="0"/><stop stop-color="#fffce3" offset="1"/></linearGradient><linearGradient id="K" x1="-819.2" x2="819.2" gradientTransform="matrix(-.0089 -.0089 .0085 -.0085 86.6 21.25)" gradientUnits="userSpaceOnUse"><stop stop-color="#d9d9d9" offset="0"/><stop stop-color="#fffce3" offset="1"/></linearGradient><linearGradient id="O" x1="-819.2" x2="819.2" gradientTransform="matrix(.0171 0 0 .0049 14 4.05)" gradientUnits="userSpaceOnUse"><stop stop-color="#464a23" stop-opacity=".6" offset="0"/><stop stop-color="#444a22" stop-opacity="0" offset="1"/></linearGradient><radialGradient id="r" cx="0" cy="0" r="819.2" gradientTransform="scale(.0349)" gradientUnits="userSpaceOnUse"><stop stop-color="#ffee69" stop-opacity=".8" offset="0"/><stop stop-color="#fef18a" stop-opacity="0" offset="1"/></radialGradient><radialGradient id="A" cx="0" cy="0" r="819.2" gradientTransform="translate(23.75 21.25) scale(.0341)" gradientUnits="userSpaceOnUse"><stop stop-color="#8ed1d9" offset="0"/><stop stop-color="#71c8d9" offset="1"/></radialGradient><radialGradient id="C" cx="0" cy="0" r="819.2" gradientTransform="scale(.0349)" gradientUnits="userSpaceOnUse"><stop stop-color="#a5dee1" stop-opacity=".8" offset="0"/><stop stop-color="#a4d59b" stop-opacity="0" offset="1"/></radialGradient><radialGradient id="Q" cx="0" cy="0" r="819.2" gradientTransform="matrix(.0461 0 0 .0499 41.25 40)" gradientUnits="userSpaceOnUse"><stop stop-color="#91c1d7" offset="0"/><stop stop-color="#a0e9b6" stop-opacity="0" offset="1"/></radialGradient><radialGradient id="R" cx="0" cy="0" r="819.2" gradientTransform="translate(75.35 25.35) scale(.1701)" gradientUnits="userSpaceOnUse"><stop stop-color="#6a898c" stop-opacity="0" offset="0"/><stop stop-color="#6a898c" stop-opacity=".102" offset=".318"/><stop stop-color="#6b8a8c" offset="1"/></radialGradient><radialGradient id="X" cx="0" cy="0" r="819.2" gradientTransform="matrix(.011 0 0 .011 8.2 8.2)" gradientUnits="userSpaceOnUse"><stop stop-color="#cde5dd" offset="0"/><stop stop-color="#d0e5ed" stop-opacity="0" offset="1"/></radialGradient></defs></svg>