<svg viewBox="0 0 124.15 436.9" xmlns="http://www.w3.org/2000/svg" xmlns:xlink="http://www.w3.org/1999/xlink"><use width="124.15" height="436.9" xlink:href="#a"/><defs><g id="a"><path d="M289.7 154.7h-.05v-.05l.05.05" fill="#fff" fill-rule="evenodd" transform="translate(-178.9 -48.1)"/><path d="m285.6 205.35-.35 4.95q-.45-5.8-5.2-7.35 1.5-1.65 3.4-5.15l2.15 7.55m-.45 6.85-.1 1.5-3.8-4.4q3.15 3.45 3.9 2.9M197.9 103.6q-1.9-8-3.9-14.6l12.7 10.15-8.8 4.45m74.05 118.9-.05-.35h.05v.35m.85.05-.8-.15-.05-.25.85.35v.05l.05-.05.15.05h-.2m8 9.85q-2.05-7.65-5.75-9.35 4.75.5 5.75-6.6 3.2 8.75 0 15.95" fill="#ccc" fill-rule="evenodd" transform="translate(-178.9 -48.1)"/><path d="m260.65 52.6 8.95-.85 16.8 1.05-13 12.2-66.7 34.15L194 89q-6.7-22.05-14.6-28.7l81.25-7.7m23.2 183.55.05.05-.05.05v-.1m-71.2-33.05-2.75-25.75q25.7 4.8 70.9 33.65l4.25 2.7-4.25 2.75q-1 7.1-5.75 6.6 3.7 1.7 5.75 9.35v3.4q-3.45 6.35-10-1.4 3.4 11.8-16 5.3-24.9-2.6-39.15-21.2 25.25 13.55 56.3 4v-.35h-.05q-31.1 7.8-59.25-19.05m-4.1-36.7q-2.4-19.15-5.1-34.95l-.5-2.95-.3-1.85-.25-1.2-.4-2.15-1.1-5.85-.8-3.9q-1.95-19.85 66.45 52.2-13.7-3.95-27.35-10.9l35.9 23.45-8.2 14.55q-27.6-6.95-58.35-26.45M277.2 78q20.95-47.25 7.6 26 4 37.3-6.15 20.85Q252.1 113.4 231.55 96l44.05 39.25q10.15 6.05-4.55 15.25 22.45 31.8-62.9-50.2l20.7-6.7q24.2-13.8 48.35-15.6m-74.3-4.7.55-.55q1.35-1.7 1.35-3.95 0-2.65-1.9-4.55-1.85-1.85-4.5-1.85t-4.55 1.85q-.85.85-1.3 1.85-.55 1.25-.55 2.7 0 2.65 1.85 4.5 1.9 1.9 4.55 1.9t4.5-1.9m81 162.9h-.05.05m-11.1-13.7-.85-.35.05.25.8.15h.2l-.15-.05-.05-.1v.1" fill="#666" fill-rule="evenodd" transform="translate(-178.9 -48.1)"/><path d="m209.9 177.35-1.35-10.95q30.75 19.5 58.35 26.45l14.35 16.45 3.8 4.4-4.25-2.7q-45.2-28.85-70.9-33.65M273.4 65l3.8 13q-24.15 1.8-48.35 15.6l-20.7 6.7-10.25 3.3 8.8-4.45L273.4 65m5.25 59.85-3.05 10.4L231.55 96q20.55 17.4 47.1 28.85m-70.5-24.55-1.45-1.15 1.45 1.15m-5.25-27q-1.85 1.9-4.5 1.9t-4.55-1.9Q192 71.45 192 68.8q0-1.45.55-2.7 3.15 9.35 10.25 6.9l.1.3M242 244.6h14.7q5.2 9.45-12 11.4h7.55q8.45 7.05 3.9 12.75-5.3-7.35-12.1-7.35-7.5 0-12.65 10.55-2.5-11.8 5.75-15.95h7.55-7.55q-5.9-1.45-7.55-11.4H242m-10.75 27.65-.3.8v-.1l.3-.7M228 289.6q-.05-12.8 14.4-21.6-8.45 9.65 2.4 20.8-13.1-7.4-16.8.8m.6 146.95q5.4 5.6 21.9 6.45-21.55 11.15-16.45 21.75-11.35-10.25-6.8-27.05l1.35-1.15" fill="#333" fill-rule="evenodd" transform="translate(-178.9 -48.1)"/><path d="m269.6 51.75 22.8-2.2q5.1.65 4 13.65-3.1 47.05-11.2 78 6.65 1.95-5.2 10 8.2-5 8.65 14.65-6.5 6.9-13.05 4.15 10.7 9.85 7.85 27.8-1.9 3.5-3.4 5.15 4.75 1.55 5.2 7.35.3 1.55-.1 1.9-.75.55-3.9-2.9l-14.35-16.45 8.2-14.55-35.9-23.45q13.65 6.95 27.35 10.9-68.4-72.05-66.45-52.2l-2.2-9.95 10.25-3.3q85.35 82 62.9 50.2 14.7-9.2 4.55-15.25l3.05-10.4Q288.8 141.3 284.8 104q13.35-73.25-7.6-26l-3.8-13 13-12.2-16.8-1.05m15.45 161.95-1.2 22.45v.05l-3.05-.4v-3.4q3.2-7.2 0-15.95l4.25-2.75m-25.2 42.3-1.4 16.4q2.45 4.4 4.7 10.6 2.85 10.75-4.05 11.7-9.3-11.55-2.95-25.9l1.2 1.8 1.1 1.8-1.1-1.8-1.2-1.8v-.05q4.55-5.7-3.9-12.75h7.6M220 244.6h-3.65l-.2-2.25-2.1-24.8-1.4-14.45q28.15 26.85 59.25 19.05l.05.35q-31.05 9.55-56.3-4 14.25 18.6 39.15 21.2-.95 4.6-12.8 4.9h-22m65.25-34.3-.1 1.9.1-1.9" fill="red" fill-rule="evenodd" transform="translate(-178.9 -48.1)"/><path d="m292.4 49.55 10.15-.95-2.75 19.45q-2.05 14.8-3.8 29.3l-2.65 22.3q-2.05 17.75-3.65 35h-.05v.05h.05l-1.05 11.15-1.9 22.9-.15 2.45-1 14.15-2.15-7.55q2.85-17.95-7.85-27.8 6.55 2.75 13.05-4.15-.45-19.65-8.65-14.65 11.85-8.05 5.2-10 8.1-30.95 11.2-78 1.1-13-4-13.65m-8.55 186.7-.35 8.35h-14.55V256H244.7q17.2-1.95 12-11.4H242q11.85-.3 12.8-4.9 19.4 6.5 16-5.3 6.55 7.75 10 1.4l3.05.4v.05M263.15 283q1.8 4.95 3.5 11.1l1.55 5.85q-2.3 13.2-3.75 24.65.95-15.85-5.35-29.9 6.9-.95 4.05-11.7m5.8-38.4H256.7h12.25m-.75 55.35q-4.35-3.3-9.1-5.25 4.75 1.95 9.1 5.25" fill="#c00" fill-rule="evenodd" transform="translate(-178.9 -48.1)"/><path d="M264.45 324.6q-.55 4.05-.95 7.95l-.05.35q-1.15 10.85-1.5 19.9l-16.6-12.7 18.1-7.2-.15-.2-.2-.2-.8-.95.8.95.2.2.15.2q-14.1 3.75-26.85 3.5l-.2-1.2q-7.7-3.65 0-11.5 16.35-2.85 25.9 7.85-10.15-11.75-26.1-14.75-7.9-5.35-9.8-19.6l-.15-.2h.05q8.6-5 18.7-5 7.45 0 14.1 2.7 6.3 14.05 5.35 29.9m-2 48.15q.55 4.9 1.5 8.9l.75 2.7q7.15 22.95 7.7 39.4-12.05 11.6-27.4 11.6-7.1 0-13.45-2.45l-.05-.05q-2.8-1.1-5.45-2.6-2.75-22.95 11-39.55l-.65-2.8.65-.2.8-.3q14.25-4.7 26.1-5.75-11-4.55-28.65-2.35l-1.3-.5 3.1-6.3q7-2.45 16.5-2.5l8.85 2.75M225.8 327.7l-.1-1 .1 1m11.9 16.3q16.2 3.35 24.15 17.75-11.45-2.55-21.85-1.95-8-2.6-2.3-15.8m1.05 21.4 6.05 1.9q-3.65.15-6.75 1.05l.7-2.95" fill="#630" fill-rule="evenodd" transform="translate(-178.9 -48.1)"/><path d="m261.95 352.8-.1 8.95q.1 6 .6 11L253.6 370l-8.8-2.7 8.8 2.7q-9.5.05-16.5 2.5-8 2.8-12.85 8.65 5.8-1.25 11.05-1.85 17.65-2.2 28.65 2.35-11.85 1.05-26.1 5.75l-.8.3-.65.2q-7.1 2.4-14.75 5.7l2.6-12.45q4.05-10 13.8-12.8 3.1-.9 6.75-1.05l-6.05-1.9-11.6-3.6q6.2-1.65 12.85-2 10.4-.6 21.85 1.95-7.95-14.4-24.15-17.75l-1.4-.3-9 3.6q-.15-5.65-.7-11.8l10 .9q12.75.25 26.85-3.5l-18.1 7.2 16.6 12.7m10.45 70.95q-2.15 15.1-5.75 28.05-9 32.65-21.8 32.7-12.8-.05-21.85-32.7-3.6-13.1-5.75-28.4 4.2 4.1 8.8 6.85 2.65 1.5 5.45 2.6l.05.05q6.35 2.45 13.45 2.45 15.35 0 27.4-11.6m-46.7-97.05-1.55-10.95q6.4-.05 12.05 1.05 15.95 3 26.1 14.75-9.55-10.7-25.9-7.85-5.05.85-10.7 3m-4.3-26.45 1.6-6.15q3-10.95 7.9-21.05h.05l.3-.8-.35.05-1.3-16.3H220v-11.4h9.6q1.65 9.95 7.55 11.4-8.25 4.15-5.75 15.95 5.15-10.55 12.65-10.55 6.8 0 12.1 7.35v.05q-6.35 14.35 2.95 25.9-6.65-2.7-14.1-2.7-10.1 0-18.7 5h-.05q-2.5 1.4-4.85 3.25m8.2-44.25h7.55-7.55m1.45 18.45-.1-1.4.1 1.4M228 289.6q3.7-8.2 16.8-.8-10.85-11.15-2.4-20.8-14.45 8.8-14.4 21.6m17.35 50.5-9.05 3.6 9.05-3.6m-16.75 96.45-1.35 1.15q-4.55 16.8 6.8 27.05-5.1-10.6 16.45-21.75-16.5-.85-21.9-6.45" fill-rule="evenodd" transform="translate(-178.9 -48.1)"/><path d="M217.25 423.4q1.05-12.35 4.4-29.8 7.65-3.3 14.75-5.7l.65 2.8q-13.75 16.6-11 39.55-4.6-2.75-8.8-6.85m7-42.25.7-3.25q1.65-7.3 2.2-16.1.4-6.8.15-14.5l9-3.6 1.4.3q-5.7 13.2 2.3 15.8-6.65.35-12.85 2l11.6 3.6-.7 2.95q-9.75 2.8-13.8 12.8 4.85-5.85 12.85-8.65l-3.1 6.3 1.3.5q-5.25.6-11.05 1.85m2.35-45.65v-.2l-.1-1.05-.6-5.8-.1-.75-.1-1q5.65-2.15 10.7-3-7.7 7.85 0 11.5l.2 1.2-10-.9m-2.45-19.75-2.75-15.5q2.35-1.85 4.85-3.25l.15.2q1.9 14.25 9.8 19.6-5.65-1.1-12.05-1.05" fill="#600" fill-rule="evenodd" transform="translate(-178.9 -48.1)"/><path d="m259.2 52 1.45.6m8.45 192-.15.9v.9m-9.1 9.6-1.4 16.4m-31.85 63.1v-.2m-.1-1.05-.6-5.8m5.05-55.55-.05-.6-1.3-16.3m-26.65-127.5-.3-1.85-.25-1.2-.4-2.15m4.7-24.15 1.45 1.15m-15.6-34.2q3.15 9.35 10.25 6.9l.65-.25m86.2 81.9h.05m-5.85 81.55h.05m-43.9 8.4h2m-11.05 28.35v-.05m0 .15.1 1.4m-.1-1.4v-.1m5.25 43.85q15.95 3 26.1 14.75l.8.95.2.2.15.2-18.1 7.2 16.6 12.7m-37.8-37.05q6.4-.05 12.05 1.05m-10.5 9.9.1 1m10.8 8.7q12.75.25 26.85-3.5M237.7 344l-1.4-.3-9 3.6m9.1-23.6q-5.05.85-10.7 3m.9 8.8 10 .9m3.4 23.4q10.4-.6 21.85 1.95-7.95-14.4-24.15-17.75m2.3 15.8q-6.65.35-12.85 2l11.6 3.6 6.05 1.9 8.8 2.7 8.85 2.75m-24.4-4.4q3.1-.9 6.75-1.05m-9.5 12q17.65-2.2 28.65 2.35m-39.7-.5q4.05-10 13.8-12.8m-1.65 19.55.65-.2.8-.3q14.25-4.7 26.1-5.75m-26.85-9.15q-8 2.8-12.85 8.65 5.8-1.25 11.05-1.85m-13.65 14.3q7.65-3.3 14.75-5.7m-.1-44.2 9.05-3.6m8.25 29.9q-9.5.05-16.5 2.5m25.2-40.95q-9.55-10.7-25.9-7.85" fill="none" stroke="#000" stroke-linecap="round" stroke-linejoin="round" stroke-opacity=".4" transform="translate(-178.9 -48.1)"/><path d="m260.65 52.6 8.95-.85 22.8-2.2 10.15-.95-2.75 19.45q-2.05 14.8-3.8 29.3l-2.65 22.3q-2.05 17.75-3.65 35v.05l-1.05 11.15-1.9 22.9-.15 2.45-1 14.15-.35 4.95m-.1 1.9-.1 1.5-1.2 22.45v.1l-.35 8.35h-14.4m-.15 1.8v9.6h-9.1m-1.4 16.4q2.45 4.4 4.7 10.6 1.8 4.95 3.5 11.1l1.55 5.85q-2.3 13.2-3.75 24.65-.55 4.05-.95 7.95l-.05.35q-1.15 10.85-1.5 19.9l-.1 8.95q.1 6 .6 11 .55 4.9 1.5 8.9l.75 2.7q7.15 22.95 7.7 39.4-2.15 15.1-5.75 28.05-9 32.65-21.8 32.7-12.8-.05-21.85-32.7-3.6-13.1-5.75-28.4 1.05-12.35 4.4-29.8l2.6-12.45.7-3.25q1.65-7.3 2.2-16.1.4-6.8.15-14.5-.15-5.65-.7-11.8m0-.2-.1-1.05m-.6-5.8-.1-.75-.1-1-1.55-10.95-2.75-15.5 1.6-6.15q3-10.95 7.9-21.05l.05-.15M229.6 256H220v-11.4h-3.65l-.2-2.25-2.1-24.8-1.4-14.45-2.75-25.75-1.35-10.95q-2.4-19.15-5.1-34.95l-.5-2.95m-.95-5.2-1.1-5.85-.8-3.9-2.2-9.95q-1.9-8-3.9-14.6-6.7-22.05-14.6-28.7l81.25-7.7m-68.1 13.5q.45-1 1.3-1.85 1.9-1.85 4.55-1.85t4.5 1.85q1.9 1.9 1.9 4.55 0 2.25-1.35 3.95l-.55.55q-1.85 1.9-4.5 1.9t-4.55-1.9Q192 71.45 192 68.8q0-1.45.55-2.7m92.6 146.1.1-1.9M242 244.6h27.1m-.15 0v.9m-16.7 10.5H229.6m1.8 15.95q5.15-10.55 12.65-10.55 6.8 0 12.1 7.35v.05l1.2 1.8 1.1 1.8m-6.2-16.4h7.6m-33.6 41h.05q8.6-5 18.7-5 7.45 0 14.1 2.7 4.75 1.95 9.1 5.25m-38.6-55.35H220m20 0h-10.4m-3.55 185.65q2.65 1.5 5.45 2.6m.05.05q6.35 2.45 13.45 2.45 15.35 0 27.4-11.6m-51-123.5q2.35-1.85 4.85-3.25m-.2 133.25q-4.6-2.75-8.8-6.85" fill="none" stroke="#000" stroke-linecap="round" stroke-linejoin="round" stroke-opacity=".4" transform="translate(-178.9 -48.1)"/></g></defs></svg>