<svg viewBox="0 0 952.5 176.99" xmlns="http://www.w3.org/2000/svg" xmlns:xlink="http://www.w3.org/1999/xlink"><use transform="translate(.025 .025)" width="952.45" height="176.95" xlink:href="#a"/><defs><g id="a"><path d="M604.65 55.3q-40.45 4.95-58.5 21.1V55.3h58.5M974.3 39.45l51.3-16.65q-62.2 93.8-16.25 147.9l-51.95-48.25q-16.85-38.3 16.9-83" fill-rule="evenodd" transform="translate(-73.15 -22.8)"/><path d="M235.75 161.85h-.1Q148 145.8 166.3 129.8q50.75-21.2 90.5-53.4 73.9 6.2 143.1 6.5l-53.7 22.75Q289 151 235.75 161.85" fill="#ccc" fill-rule="evenodd" transform="translate(-73.15 -22.8)"/><path d="M568.05 93.65q-.9 1.5-1.35 3.05l-9.2 20.35q-58.55-3.95-117.1 8.6l-2.3.5q-17.55 3.85-35.05 9.2-27.55 8.4-55.05 20.4l-.15.1q-27.65 12.1-55.3 27.85-26.55 10.15-53.05 13.9l-.25.05h-.2Q156.1 209.1 73.15 157.7q21-4.2 40.7-9.7 14.6-4.15 28.45-9 25.8 32.3 93.35 22.85h.1q10.8-1.55 22.7-4.15 58.9-20.05 87.75-52.05 120.1-24.35 221.85-12m-275.5 90.05-53.05 13.9-.45.05.45-.05 53.05-13.9" fill="#666" fill-rule="evenodd" transform="translate(-73.15 -22.8)"/><path d="m529.6 77.9 38.45 15.75q-101.75-12.35-221.85 12-28.85 32-87.75 52.05-11.9 2.6-22.7 4.15Q289 151 346.2 105.65l53.7-22.75q67.05.25 129.7-5m-293.95 83.95Q168.1 171.3 142.3 139q12.3-4.3 24-9.2-18.3 16 69.35 32.05" fill="#333" fill-rule="evenodd" transform="translate(-73.15 -22.8)"/><path d="M604.65 74.8q-30 7.95-36.6 18.85L529.6 77.9l16.55-1.5q18.05-16.15 58.5-21.1v19.5M566.7 96.7q-4.85 16.15 37.95 38.25v24.35h-39q24.95-23.7-8.15-42.25l9.2-20.35m111.1 17.1q1.85-20.3 34.15-28.4l1.65.05 20.7.2v.05q-38.25 6.65-38.1 35.15l-18.4-7.05m296.5-74.35q-33.75 44.7-16.9 83l-16.3-15.15q-26.6-33.9 33.2-67.85M818.35 158.1q-14.9-3.3-30.6-7.5 3.45-37.35 55.75-74.65 24.2-4.3 47.8-10.5-81.4 46.3-72.95 92.65m-59.9-15.95-21.65-6.95q-6.15-25.65 43.2-51.35l27.8-2.65q-62.95 27.2-49.35 60.95" fill="#600" fill-rule="evenodd" transform="translate(-73.15 -22.8)"/><path d="M568.05 93.65q6.6-10.9 36.6-18.85 55 9.15 107.3 10.6-32.3 8.1-34.15 28.4-25.8-19.9-73.15 21.15-42.8-22.1-37.95-38.25.45-1.55 1.35-3.05m389.35 28.8 51.95 48.25q-20.55-11.1-26.6-9.3-63.8 19.05-164.4-3.3-8.45-46.35 72.95-92.65 16-4.25 31.7-9.35l51.3-16.65q-59.8 33.95-33.2 67.85l16.3 15.15M787.75 150.6l-29.3-8.45q-13.6-33.75 49.35-60.95 18-2.1 35.7-5.25-52.3 37.3-55.75 74.65m-50.95-15.4q-19.75-6.55-40.6-14.35l40.6 14.35-40.6-14.35q-.15-28.5 38.1-35.15v-.05h2l43.7-1.8q-49.35 25.7-43.2 51.35m-2-49.55-.5.05.5-.05" fill="#960" fill-rule="evenodd" transform="translate(-73.15 -22.8)"/><path d="M531.5 52q-30 7.95-36.6 18.85-.9 1.5-1.35 3.05-4.85 16.15 37.95 38.25Q578.85 71.1 604.65 91q1.85-20.3 34.15-28.4-52.3-1.45-107.3-10.6V32.5q-40.45 4.95-58.5 21.1l-16.55 1.5 38.45 15.75q-101.75-12.35-221.85 12-28.85 32-87.75 52.05-11.9 2.6-22.7 4.15h-.1q-67.55 9.45-93.35-22.85-13.85 4.85-28.45 9Q21 130.7 0 134.9q82.95 51.4 165.9 39.95l.45-.05 53.05-13.9q27.65-15.75 55.3-27.85l.15-.1q27.5-12 55.05-20.4 17.5-5.35 35.05-9.2l2.3-.5q58.55-12.55 117.1-8.6l9.2-20.35M473 53.6V32.5h58.5m0 79.65v24.35h-39q24.95-23.7-8.15-42.25m-209.65 38.8.1-.05.05-.05m-.05.05 55.1-20.45m-167.3 26.5q53.25-10.85 110.45-56.2l53.7-22.75q-69.2-.3-143.1-6.5-39.75 32.2-90.5 53.4-18.3 16 69.35 32.05M326.75 60.1q67.05.25 129.7-5M165.9 174.85h.2l.25-.05q26.5-3.75 53.05-13.9M69.15 116.2q12.3-4.3 24-9.2m843.05 40.9Q890.25 93.8 952.45 0l-51.3 16.65q-33.75 44.7-16.9 83l51.95 48.25q-20.55-11.1-26.6-9.3-63.8 19.05-164.4-3.3-14.9-3.3-30.6-7.5l-29.3-8.45-21.65-6.95q-19.75-6.55-40.6-14.35L604.65 91m296.5-74.35-51.3 16.65q-15.7 5.1-31.7 9.35-81.4 46.3-72.95 92.65M901.15 16.65q-59.8 33.95-33.2 67.85l16.3 15.15m-66.1-57q-23.6 6.2-47.8 10.5-52.3 37.3-55.75 74.65m-53.45-64.9.5-.05h-.5l-20.7-.2-1.65-.05m68.05-1.55-43.7 1.8h-1.5m73-4.45-27.8 2.65q-49.35 25.7-43.2 51.35l-40.6-14.35q-.15-28.5 38.1-35.15m73.5-4.5q-62.95 27.2-49.35 60.95m85.05-66.2q-17.7 3.15-35.7 5.25" fill="none" stroke="#000" stroke-linecap="round" stroke-linejoin="round" stroke-opacity=".4" stroke-width=".05"/></g></defs></svg>