<svg width="93" height="119" viewBox="242.05 211.85 93.45 118.75" xmlns="http://www.w3.org/2000/svg" xmlns:xlink="http://www.w3.org/1999/xlink"><defs><g id="b"><path d="m2.45-1.35-.2-.25-.15-.15-.3-.55q-.5-.8-.35-1.35l.1-.4q.5-.85 2.25-.6H4l.35.05.2.05.65.2.2.05 1.15.5.35.15.45.25.25.15.5.25 1.45 1.1.5.5.6.7q1.1 1.4.65 2.3l-.1.1-1.35 2.35-.4.4-1.9.2L9 2.2l-.95-.15-.55-.2h-.1L5.7 1.1 5.25.85 4.95.7l-.4-.3-.6-.4-.25-.2-.15-.15-.3-.2-.8-.8" fill="#82c4cc"/><path d="m1.05 1.1 1.4-2.45.8.8.3.2.15.15.25.2Q6.9 2.4 6.6 3l-.45 1.35q-.9-.3-1.85-.8l-.45-.3-.3-.15-.4-.25-.3-.25-.75-.5-.25-.25-.15-.1-.65-.65" fill="#425a68"/><path d="m7.55 4.65-.9-.2-.5-.1L6.6 3q.3-.6-2.65-3l.6.4.4.3.3.15.45.25 1.7.75h.1l.55.2.95.15-1.45 2.45" fill="#5f829a"/><path d="m0-1.25.4-.65-.4.65.15-.35.25-.3 1.05-1.75q-.15.55.35 1.35l.3.55.15.15.2.25-1.4 2.45-.2-.3L.7.65Q.05-.25 0-.9v-.35" fill="#344650"/><path d="m4.35-4.6.2.05.65.2.2.05 1.15.5.35.15.45.25.25.15.5.25 1.45 1.1.5.5.6.7q1.1 1.4.65 2.3l-.1.1-1.35 2.35-.4.4-1.9.2-.9-.2-.5-.1q-.9-.3-1.85-.8l-.45-.3-.3-.15-.4-.25-.3-.25-.75-.5-.25-.25-.15-.1-.65-.65" fill="none" stroke="#585143" stroke-width=".5"/><path d="m.4-1.9-.4.65v.35Q.05-.25.7.65L.85.8l.2.3m.4-4.75L.4-1.9l-.25.3-.15.35m1.45-2.4.1-.4q.5-.85 2.25-.6H4l.35.05" fill="none" stroke="#344650" stroke-width=".5"/></g><g id="d"><path d="m1.85 47.95-.4-1.05q-1-3.75.85-6.5l1.5-.45q1.35 1.55 7.65 4.8 6.35 3.35 4.45 7.15-4.85 3.25-14.05-3.95" fill="#f5eed3"/><path d="M2.2 40.4q-.2-1.55.8-2.75 1.15-1.3 3.05-1.35l1.3.15q.5.1.95.35h1.55l.75.1 8.25 5.05q-.5.85-2 .95 2.4.25 3.95 3.5l.05 1.55q-.15 1.65-.95 3.1l-.5.75-1.6 1.7-1.35.75-.85.35-2.2.4h-.05l-.4.05q-3.85.2-7.15-1.95-1.35-.95-2.3-2.1l-.4-.5-.4-.65-.15-.2-.7-1.7q9.2 7.2 14.05 3.95 1.9-3.8-4.45-7.15-6.3-3.25-7.65-4.8l-1.5.45h-.1m7.8-2.35-.6-.5q-.55-.45-1.1-.75.55.3 1.1.75l.6.5" fill="#dec696"/><path d="m18.85 41.95 1.05.6.3 1.55.35.9.25 1.4q-1.55-3.25-3.95-3.5 1.5-.1 2-.95" fill="#ba9a74"/><path d="M2.2 40.4q-.2-1.55.8-2.75 1.15-1.3 3.05-1.35l1.3.15q.5.1.95.35h1.55m10.05 5.75.3 1.55.35.9.25 1.4.05 1.55q-.15 1.65-.95 3.1l-.5.75-1.6 1.7-1.35.75-.85.35-2.2.4h-.05l-.4.05q-3.85.2-7.15-1.95-1.35-.95-2.3-2.1l-.4-.5-.4-.65-.15-.2-.7-1.7-.4-1.05q-1-3.75.85-6.5m6-3.6q.55.3 1.1.75l.6.5" fill="none" stroke="#423213" stroke-opacity=".502" stroke-width=".5"/><path d="m2.05 41.7 2.05 7.95q-1.6-.3-2.85-1.65-1.4-1.55-1.35-3.3l.2-1.15q.45-.9 1.4-1.45l.55-.4" fill="#f5eed3"/><path d="M4.1 49.65q-1.6-.3-2.85-1.65-1.4-1.55-1.35-3.3l.2-1.15q.45-.9 1.4-1.45l.55-.4" fill="none" stroke="#423213" stroke-opacity=".502" stroke-width=".5"/><path d="m14.8 27.75.75.05 9.3 5.65q-.05.6.3 1.6l.4.9.2 1.4q.35 2.95-1.4 5.4-1.15 1.55-2.95 2.45l-.85.3-2.25.45q-4 .35-7.5-1.95l-2.35-2.05-.4-.55-.4-.65-.15-.2-.35-.9-.95-.85q-1.35-1.5-1.3-3.2 0-.65.25-1.2.4-.85 1.3-1.45v-.05l.2-.55q.3-.7.75-1.3Q9.15 28.6 12.25 28l1.3-.3.25.05.3-.05.7.05m-7.65 11.9q.9.6 2 .85-1.1-.25-2-.85" fill="#dec696"/><path d="M24.85 33.45q-.05.6.3 1.6l.4.9.2 1.4q.35 2.95-1.4 5.4-1.15 1.55-2.95 2.45l-.85.3-2.25.45q-4 .35-7.5-1.95l-2.35-2.05-.4-.55-.4-.65-.15-.2-.35-.9-.95-.85q-1.35-1.5-1.3-3.2 0-.65.25-1.2.4-.85 1.3-1.45v-.05l.2-.55q.3-.7.75-1.3Q9.15 28.6 12.25 28l1.3-.3.25.05.3-.05.7.05M9.15 40.5q-1.1-.25-2-.85" fill="none" stroke="#423213" stroke-opacity=".502" stroke-width=".5"/><path d="M10.3 34.8 9.5 32q-.8-4.15 1.25-7.3l1.3-.55-.15.7q-.3 5.45 8.9 10.6-2.15 2.25-4.45 3L10.3 34.8" fill="#f5eed3"/><path d="M29.15 25.7q-.1.6.2 1.65l.3 1.05.15 1.5q.15 2.35-.9 4.55l-.95 1.75q-1.4 1.8-3.3 2.95l-.95.5-2.35.65-1.75.15-1.15-.05q-2.6-.1-4.85-1.65l-.1-.05q-1.3-.9-2.25-2.2l-.3-.5-.45-.7-.1-.2-.1-.3 6.05 3.65q2.3-.75 4.45-3-9.2-5.15-8.9-10.6l.15-.7-1.3.55q-.1-1.8 1.05-3.2 1.3-1.6 3.3-1.7.6-.2 1.3 0 .55 0 1 .3l.3-.05h.25l.35-.1h.8l.75.05 9.3 5.7M19.1 21.45l-.6-.55q-.55-.6-1.1-.8.55.2 1.1.8l.6.55" fill="#dec696"/><path d="M29.15 25.7q-.1.6.2 1.65l.3 1.05.15 1.5q.15 2.35-.9 4.55l-.95 1.75q-1.4 1.8-3.3 2.95l-.95.5-2.35.65-1.75.15-1.15-.05q-2.6-.1-4.85-1.65l-.1-.05q-1.3-.9-2.25-2.2l-.3-.5-.45-.7-.1-.2-.1-.3-.8-2.8q-.8-4.15 1.25-7.3-.1-1.8 1.05-3.2 1.3-1.6 3.3-1.7.6-.2 1.3 0 .55 0 1 .3l.3-.05h.25l.35-.1h.8m-1.7.15q.55.2 1.1.8l.6.55" fill="none" stroke="#423213" stroke-opacity=".502" stroke-width=".5"/><path d="M10.5 26.25 12 35.1q-1.65-.25-2.85-1.7Q7.8 31.8 8 29.75l.3-1.3q.55-1.05 1.55-1.75l.65-.45" fill="#f5eed3"/><path d="M12 35.1q-1.65-.25-2.85-1.7Q7.8 31.8 8 29.75l.3-1.3q.55-1.05 1.55-1.75l.65-.45" fill="none" stroke="#423213" stroke-opacity=".502" stroke-width=".5"/><path d="m12.6 21.2 1.55.9q5.3 5.75 9 7.5 3.6 1.7 6.55 1.3l-.5 1.6Q19.1 34.4 14 26.6q-3-3.7-1.4-5.4" fill="#544d36" fill-opacity=".322"/><path d="m12.6 21.2 1.4-1.15 4.55-.65q5.55 1.6 5.55 1.4l5.25 3.2q-.1.65.2 1.75l.3 1 .1 1.55-.25 2.6q-2.95.4-6.55-1.3-3.7-1.75-9-7.5l-1.55-.9" fill="#1a1611" fill-opacity=".553"/><path d="m21.4 15.9.3.05.95.25.2.1 1.6.55.4.2.65.3.35.15.7.35 1.95 1.45.15.05.55.5.85.9q1.6 1.85.95 3.05l-.05.1-1.7 3.25-.6.5q-.7.55-2.45.35l1.75-3.3-1.25-.15-.7-.25-.2.05-2.2-.95-.7-.35-.35-.15-.6-.35-.35-.25-.85-.55-.2-.1-.4-.3-.15-.2-.7-.65-.2-.15-.25-.35-.25-.2-.5-.65q-.6-1.05-.45-1.85l.1-.45q.65-1.2 2.95-1h.3l.4.05m.55 5.65.4.2.6.45.35.15.7.35 2.25.85.15.05.7.2.5.05.8.05.2.05q1.1 0 1.45-.55l.1-.15q.45-.9-1-2.4l-.3-.35-.55-.5-.15-.15-1.95-1.35-.7-.35-.35-.15-.6-.35-.45-.15-1.6-.55-.2-.1-1-.15-.15-.05h-.1l-.45-.05q-1.45-.1-1.9.6l-.15.4q0 .55.6 1.45l.1.1.3.35.05.15.15.05.65.75.2.1.4.3.95.7" fill="#82c4cc"/><path d="m24.35 27.7-2.5-1-.7-.35-.35-.15-.6-.35-.35-.25-1-.65-.45-.3-.85-.85-.2-.15 1.75-3.3.2.15.7.65.15.2.4.3.2.1q4.5 3.3 4.05 4.1l-.45 1.85m2.05-4.1-.15-.05L24 22.7l-.7-.35-.35-.15-.6-.45-.4-.2 2.15-4.05.45.15.6.35.35.15.7.35 1.95 1.35.15.15-1.9 3.6" fill="#425a68"/><path d="m21.95 21.55-.95-.7-.4-.3-.2-.1-.65-.75 1.55-3 1 .15.2.1 1.6.55-2.15 4.05" fill="#6d91a3"/><path d="m26.2 28-1.2-.15-.65-.15.45-1.85q.45-.8-4.05-4.1l.85.55.35.25.6.35.35.15.7.35 2.2.95.2-.05.7.25 1.25.15L26.2 28m-6.45-8.3-.15-.05-.05-.15-.3-.35-.1-.1q-.6-.9-.6-1.45l.15-.4q.45-.7 1.9-.6l.45.05h.1l.15.05-1.55 3" fill="#5f829a"/><path d="m17.35 23.65-.25-.35-.25-.2q-.85-1.1-1-2.05-.05-.2.05-.45l.1-.45.35-.4 1.3-2.45q-.15.8.45 1.85l.5.65.25.2.25.35-1.75 3.3M28.3 20l.55.5.3.35q1.45 1.5 1 2.4l-.1.15q-.35.55-1.45.55l-.2-.05-.8-.05-.5-.05-.7-.2 1.9-3.6m-12.4.6.45-.85-.45.85" fill="#344650"/><path d="m21.4 15.9.3.05.95.25.2.1 1.6.55.4.2.65.3.35.15.7.35 1.95 1.45.15.05.55.5.85.9q1.6 1.85.95 3.05l-.05.1-1.7 3.25-.6.5q-.7.55-2.45.35l-1.2-.15-.65-.15-2.5-1-.7-.35-.35-.15-.6-.35-.35-.25-1-.65-.45-.3-.85-.85-.2-.15" fill="none" stroke="#585143" stroke-width=".5"/><path d="m17.35 23.65-.25-.35-.25-.2q-.85-1.1-1-2.05-.05-.2.05-.45l.1-.45.35-.4 1.3-2.45.1-.45q.65-1.2 2.95-1h.3l.4.05m-5.05 3.85-.45.85" fill="none" stroke="#344650" stroke-width=".5"/></g><g id="e"><path d="M26.1 38.3q-1.05 1.75-4.35 1.3l-1.05-.05m-7.3-3.3q-2.8-1.95-4.25-4.3l-.45-.65" fill="none" stroke="#425a68"/><path d="M20.7 39.55q-2.85-.6-6.05-2.55l-1.25-.75" fill="none" stroke="#5f829a"/><path d="M8.7 31.3q-1.25-2.1-.55-3.55" fill="none" stroke="#233036"/><path d="M16.95 29.8q-1.75-2.4-2.75-4.7l-.4-1.25M28.7 35.5q-1 1.65-3.9.55l-1.85-.85" fill="none" stroke="#425a68"/><path d="M22.95 35.2q-2.05-1.2-4.2-3.35l-1.8-2.05" fill="none" stroke="#5f829a"/><path d="M13.8 23.85q-.75-2.3-.2-3.65" fill="none" stroke="#233036"/><path d="M24.1 39.6q-.7 1.35-2.85 2.1-2.6 1-5.8.85m-4.25-.7q-2.2-.55-3.9-1.7-1.35-.8-1.95-1.75" fill="none" stroke="#425a68"/><path d="m15.45 42.55-1.3-.15-2.95-.55" fill="none" stroke="#5f829a"/><path d="M5.35 38.4q-.65-.8-.55-1.55" fill="none" stroke="#233036"/><path d="m20.25 17.3-.35.7.1-.4.25-.3" fill="#cdc098"/><path d="M32.6-5.6h4.3L22.3 21.45l-.35-.25L20.7 20q-.8-1-.85-1.65l.05-.35.35-.7L32.6-5.6" fill="#b3ae88"/><path d="M22.3 21.45 36.9-5.6h7.2L28.25 23.8l-1-.1-2.55-.85-2.4-1.4" fill="#978e62"/><path d="M44.1-5.6h2L30.6 23.05l-.4.45q-.6.45-1.95.3L44.1-5.6" fill="#756f4d"/><path d="M32.6-5.6 20.25 17.3l-.35.7-.05.35q.05.65.85 1.65l1.25 1.2.35.25M46.1-5.6 30.6 23.05l-.4.45q-.6.45-1.95.3l-1-.1-2.55-.85-2.4-1.4M19.9 18l.1-.4.25-.3" fill="none" stroke="#585143" stroke-width=".5"/><path d="M45.7-4.8 37.9 9.6H24.45L32.2-4.8h13.5" fill="#353124" fill-opacity=".333"/><path d="m16.9-53.7 5.45 3.35 1.5 5.65.9.3q.6 3 .7 6.1.05 1.25.35 2.4L21-38.55l-.05.05-.1-.05.15-.15-3.2-11-.9-4m10.15 10.55 8.1 4.4q1.25.7 1.75 2.1l.1.35 1.85 7.55-1.1.25-9.8-5.35L28-34l.5.3-.5-.4-.05.05v-.05l-1.5-1.2-.15-.15.15.15-.05-.05h.05l.45.3.35.25.1.05-.85-.85.85.8.05.05h.05l.4.25q.05-2.9-.4-6.05l-.4-2.6m34.8 18.95 12.1 6.75.9.45 2.75 9.85-12.15-6.3-3.6-10.75m14.5 3.15 5.8 3 3.95 14.7-5.3-2.9-.05.05-.1-.05.15-.15-3.2-11-1.25-3.65" fill="#d9d6c4"/><path d="m38.2-20.3 7.7 4.2.1.05 3.6 10.6q-.6-.15-1.1-.4l-10.25-5.6q-1.7-.95-1.95-3.05-.25-2.15 1-4.3l.9-1.5" fill="#544d36"/><path d="m39.25-26.95.45 1.5q.2 1.85-.7 3.7l-.8 1.45-.9 1.5q-1.25 2.15-1 4.3.25 2.1 1.95 3.05l10.25 5.6q.5.25 1.1.4 1.2.2 2.6-.4l2.05-1.35 1.25-1.65 1.8-2.9 1.35-1.5 1.6-1 1.75-.4 1.95.45 1.5.75 12.15 6.3.15.55-.3.9L64.2 17.25l-1.45-.8-49.3-26.85.8-1.45L17.6-17l6.75-10.95 3.6-6.1.05.05-.05.15 9.8 5.35q1 .55 1.5 1.55" fill="#aca582"/><path d="m38.85-28.75.4 1.8q-.5-1-1.5-1.55l1.1-.25" fill="#cbcaad"/><path d="M55.45-22.9q1-1.1 2.2-1.6l2.5-.4 1.2.45.5.25 3.6 10.75-1.5-.75-1.95-.45-1.75.4-1.6 1-3.2-9.65" fill="#b7ad91"/><path d="M50.9-16.85q1.15-.85 2-2.25l1.8-2.9.75-.9 3.2 9.65-1.35 1.5-1.8 2.9-1.25 1.65-3.35-9.65M13.45-10.4l-1.4-.75L26-34.55l.45-.75 1.5 1.2v.05l.05-.05.5.4-.5-.3-.05-.05-3.6 6.1L17.6-17l-3.35 5.15-.8 1.45M26.9-35.05l-.45-.3.05-.05.4.35m-.6-.6.05-.05.1.15-.15-.1" fill="#796f4f"/><path d="m73.95-17.45 2.35-3.8.05.2 1.25 3.65 3 11.15.05.05L64.2 21.45l-1.45-5 1.45.8L77.45-5.7l.3-.9-.15-.55L74.85-17l-.9-.45" fill="#605a3e"/><path d="M20.85-38.55v.05L4.4-10.85.05-25.95l16.6-27.85.25.1.9 4 3 11.15h.05m3.9-5.85.15.05 2.15 1.2.4 2.6q.45 3.15.4 6.05l-.4-.25h-.05l-.05-.05-.85-.8.85.85-.1-.05-.35-.25-.4-.35.05-.1-.1-.05-.1-.15-.05.05-.5-.25q-.3-1.15-.35-2.4-.1-3.1-.7-6.1" fill="#b3ae88"/><path d="m80.75-6.2 5.45 3 .1.1-16.55 27.75-5.6-3.1L80.75-6.2m-68.7-4.95-2.1 3.5-5.6-3.1 2.6-4.35.05-.05L20.95-38.5l4.9 2.7.15.4.15.5-.15.35-13.95 23.4" fill="#9d966c"/><path d="M80.65-6.25v.05l-.05-.05h.05" fill="#c2bfa3"/><path d="M46-16.05q1.6.8 3.6-.05.7-.3 1.3-.75l3.35 9.65-2.05 1.35q-1.4.6-2.6.4L46-16.05" fill="#60573e"/><path d="m31.45-34.25-2-6.9 7.6-12.7.1.05.05.25.1-.2 1.05-2.45 2.15 7h-.05l-.3.65-.9 1.8h-.05l-.05.1-.05-.15v-.05l-.1-.05v.05l-.05-.05.05-.05L37.55-52l1.4 5.1-.8 1.45-6.7 11.2" fill="#b3ae88"/><path d="m39.25-46.75.9-1.8-.85 1.8h-.05m-1.95-7-.1.2-.05-.25.15.05" fill="#cbcaad"/><path d="m31.45-34.25 6.7-11.2.85-1.4.1.05.05.15.05-.1.05.05.05-.05.85-1.8.3-.65 1.55.75 7.9 4.1-1.3 2.7-.1-.05-3.7 5.5-2.4-1.2-.15-.2v-.05L43-38.9l-.3.85-.3.65 2.8-4.3.8-1.3-.05-.05-4.5-2.3-.15.3-.8 1.3L34-32.8l-2.55-1.4v-.05" fill="#c2bfa3"/><path d="m40.5-43.75.8-1.3.15-.3 4.5 2.3-.75 1.35-2.8 4.3.3-.65.3-.85-.75 1.25-1.75-6.1" fill="#605a3e"/><path d="m40.5-49.2-2.15-7 9.6 4.8 1.95 7.05-7.9-4.1-1.5-.75" fill="#d9d6c4"/><path d="m65.15-25.1-2-6.9 3.8-5.5.1.05 1.1-2.6 2.15 7h-.05l-.3.65-.15.3-.85 1.6-.9-3.15.1.4.7 2.7-.75 1.4-2.8 4.3.3-.65.3-.85-.75 1.25" fill="#b3ae88"/><path d="m68.15-33.25-.1-.4.9 3.15.85-1.6-.8 1.6h-.05l-.05-.05v.05l-.05-.05.05-.05-.75-2.65m9.6 7.4.15.55-2.45-1.35v.05l-.05-.05.05-.05-.1-.4 2.4 1.25" fill="#cbcaad"/><path d="m65.15-25.1.75-1.25-.3.85-.3.65 2.8-4.3.8-1.35.1.05v-.05l.95-1.9.3-.65 1.55.75 2.4 1.25 5.5 2.85-1.3 2.7-.65-.35-2.4-1.25-.1-.05-3.85-2-3.7 5.5-2.4-1.2-.15-.2v-.05m10.3-1.5 2.5 1.35-.2.45-7.3 12.25-2.55-1.4V-14l.75-1.25 5.1-8.55 1.7-2.8" fill="#c2bfa3"/><path d="m70.3-33.05-2.15-7 9.6 4.8 1.95 7.05-5.5-2.85-2.4-1.25-1.5-.75" fill="#d9d6c4"/><path d="m67.9-14-2-6.9 1.7-2.8.1.05 3.7-5.5 3.85 2 .15.5-.8 1.45-.85 1.4-5.1 8.55L67.9-14" fill="#605a3e"/><path d="m30.25-16.9-3.15-1.55m6.3-1.05L25-23.65l-4.45 8.5 7.5 3.7 2.75-5.15M60.65-4.95 68.9-.5l-5 8.25-7.4-3.95 3.05-5.05m.55.3L63.15.7" fill="none" stroke="#446273"/><path d="m19.5-34.55-.05-.4.85-5.15 2.7 2.75-3.5 2.8m50.6.4 5.45 3.55-6.1-2.05.65-1.5m-29.9-16.4 2.3 1.7-2.3.95v-2.65" fill="#eae7dd"/><path d="m76-3.15-.05.4-6.5-3.85L77-4.65l-1 1.5m-9 16.2-1 1.5-.05.4L50.6 5.8 67 13.05" fill="#544d36"/><path d="m40.9-18.75.1-.4q.5-.85 2.25-.6h.2l.35.05.2.05.65.2.2.05 1.15.5.35.15.45.25.25.15.5.25L49-17l.5.5.6.7q1.1 1.4.65 2.3l-.1.1-1.35 2.35-.4.4-1.9.2 1.45-2.45-.95-.15-.55-.2h-.1l-1.7-.75-.45-.25-.3-.15-.4-.3-.6-.4-.25-.2-.15-.15-.3-.2-.8-.8-.2-.25-.15-.15-.3-.55q-.5-.8-.35-1.35" fill="#82c4cc"/><path d="m45.6-10.75-1.85-.8-.45-.3L43-12l-.4-.25-.3-.25-.75-.5-.25-.25-.15-.1-.65-.65 1.4-2.45.8.8.3.2.15.15.25.2q2.95 2.4 2.65 3l-.45 1.35" fill="#425a68"/><path d="m47-10.45-.9-.2-.5-.1.45-1.35q.3-.6-2.65-3l.6.4.4.3.3.15.45.25 1.7.75h.1l.55.2.95.15L47-10.45" fill="#5f829a"/><path d="m40.5-14-.2-.3-.15-.15q-.65-.9-.7-1.55v-.35l.15-.35.25-.3 1.05-1.75q-.15.55.35 1.35l.3.55.15.15.2.25L40.5-14m-1.05-2.35.4-.65-.4.65" fill="#344650"/><path d="m43.8-19.7.2.05.65.2.2.05 1.15.5.35.15.45.25.25.15.5.25L49-17l.5.5.6.7q1.1 1.4.65 2.3l-.1.1-1.35 2.35-.4.4-1.9.2-.9-.2-.5-.1-1.85-.8-.45-.3L43-12l-.4-.25-.3-.25-.75-.5-.25-.25-.15-.1-.65-.65" fill="none" stroke="#585143" stroke-width=".5"/><path d="m40.5-14-.2-.3-.15-.15q-.65-.9-.7-1.55v-.35l.15-.35.25-.3 1.05-1.75.1-.4q.5-.85 2.25-.6h.2l.35.05M39.85-17l-.4.65" fill="none" stroke="#344650" stroke-width=".5"/></g><g id="g"><path d="m298.35 246.2-.15-.45.6.3-.45.15m-29.25-15.75-.15-.05h.15v.05m-2.2 61-2.4-1.65 5.3-9.2q3.2 2.1 7.55 1.2l-5.75 11.15h-.1l-.65-.1-1.75-.45-2.2-.95" fill="#aca582"/><path d="m324.95 242.4 5.85 3.5 4.7 14.75-21.05 36.3-6.6-3.95 1.6-2.65 17.7-29.4h.15l-.15-.15 2.2-3.5-4.4-14.9m-16.8-4.25 14.35 7.75 4.65 14.9v.15l-28.35-14.9 3.65-1.05 5.25 1.5 3.65-2.95-3.2-5.4m27.35 22.5-6.15-3.35 6.15 3.35m-47.15-21.4-.3-1.55 9.7 2.25-9.4-.6v-.1m6.25 2.1 3.2.05-2.6 1.3-.6-1.35" fill="#950b0e"/><path d="m307.15 289.05-17.4-9.2 8.75-4.7-1.9-10.65-8.5-7.35 10.4-2.45 2.2-2.95-2.35-5.55.45-.15 28.35 14.9-17.7 29.4-2.3-1.3m.7-47.8.2 1.25-2.9 2.2-.05.05-1.9-1.4 3.8-2.3.85.2m-28.6 16.8.05-1.5 5.2.3-5.25 1.2m-4.15-7.65q-1.5-2.25.55-6.5 7.7 6.25 16.3 8.2-7.45-1.25-14.25-1.1l-2.6-.6m-.15 13.55 2.95-1.6.1.1 1.55 1.75 9 3.75-5.25-.65-7.7-1.9-.65-1.45m12.2 11.15-.3-1.2 4.55.6-4.2.6h-.05" fill="#7e0a0d"/><path d="m307.85 293-.7-3.95 2.3 1.3-1.6 2.65m14.65-47.1h.15l2.05-3.8.25.3 4.4 14.9-2.2 3.5-4.65-14.9" fill="#66090b"/><path d="m283 276.3-2.65 4.55-3 .95q-4.35.9-7.55-1.2l-1.85-1.65 4.25-8.35 10.8 5.7M254.3 329l-.95 1.6-1.65-.15q-2.8-.4-4.8-1.6-3-1.75-4.4-5.3l-.15-.35.95-1.55q1.35 3.75 4.5 5.6 2 1.2 4.8 1.6l1.7.15m-7.15-72.15-5.1-15.5 17.25-29.1 4.4 12.3h-.15v.15l-.9 7v.15l-15.5 25m30.8-21.75v.05l-5.95 6.5 3.1-7.55.35-.3.3-7.4 2.15 8.6-.05.1h.1M246.5 251l1 3.1 2.85-4.3-2.65 2-1.2-.8" fill="#686246"/><path d="m268.95 230.4-6.3 1.45v-.15l.9-7h.15l5.4 5.7h-.15" fill="#87805a"/><path d="M289.75 279.85 283 276.3l-10.8-5.7-24.9-13.15-.15-.6 15.5-25 6.3-1.45.15.05 6.35 3.35-.35.3-3.1 7.55 5.95-6.5v-.05.05l20.25 10.6.15.45 2.35 5.55-2.2 2.95-10.4 2.45 8.5 7.35 1.9 10.65-8.75 4.7m2.6-46.65 1.2-2.05v-.05q.8 1.95 2.25 2.9l1.4 1.35-3.55 1.75-.1.05-.3-.3-.3-.6-.15-.15q-.8-1-.9-1.75v-.45l.45-.7m10.55 4.5h1.75l-1.3 2.35-.6.45-1.6.15 1.75-2.95m-46.95 6.6 9.4-10.05 8.9.4-6.3-3.1-5.1 1.15-6.9 11.6m23.3 13.75 5.25-1.2-5.2-.3-.05 1.5m-4.3 5.9.65 1.45 7.7 1.9 5.25.65-9-3.75-1.55-1.75-.1-.1-2.95 1.6m.15-13.55 2.6.6q6.8-.15 14.25 1.1-8.6-1.95-16.3-8.2-2.05 4.25-.55 6.5m-24.75 5.75.85-3.8-2.75 4.3 3.7 1.95-1.8-2.45m36.8 18.95h.05l4.2-.6-4.55-.6.3 1.2" fill="#958d64"/><path d="m291.9 233.9.15-.45.3-.25-.45.7" fill="#344650"/><path d="M297.2 235.35q2.35 2.1 5.7 2.35l-1.75 2.95h-.45l-1.2-.15-.4-.15-1-.35-.3-.1-1.5-.75-.3-.25-.4-.3-.45-.3-.75-.6-.6-.3-.25-.25.1-.05 3.55-1.75" fill="#57533c"/><path d="m263.55 295.2 3.35-3.75 2.2.95-1.3 5.15-1.2-.45q-1.8-.65-3.25-1.7l.2-.2" fill="#fc0"/><path d="m273.5 293 1 4.4-.05.15-.1.1-1.05.2h-.25l-2.2.1v-5.1l.65.1h.1l1.9.05" fill="#ff6"/><path d="m267.8 297.55 1.3-5.15 1.75.45v5.1l-3.05-.4" fill="#ffc"/><path d="m259.3 289.8 3.95-1.2 1.25 1.2 2.4 1.65-3.35 3.75-.3.1.3-.1-.2.2-.1-.1q-2.05-1.55-3.4-3.95l-.05-.15-.65-1.3.15-.1" fill="#e1b500"/><path d="m243.05 320.8-.4-1.65 16.5-29.25.65 1.3.05.15-16.8 29.45m20.3-25.4q1.45 1.05 3.25 1.7l-5.1 5.25-.15 9.95-4.7 3.05-.85 5-2.8 1.6-.4 6.9q-2.8-.4-4.8-1.6l15.45-31.95.1.1" fill="#363"/><path d="m255.05 329.05-.75-.05-1.7-.15.4-6.9 2.8-1.6.85-5 4.7-3.05.15-9.95 5.1-5.25 1.2.45 3.05.4 2.2-.1-18 31.2" fill="#3f7c3f"/><path d="m274.35 297.65-17.1 31.3-2.2.1 18-31.2h.25l1.05-.2" fill="#7c9f48"/><path d="m243.3 321.65-.25-.85 16.8-29.45q1.35 2.4 3.4 3.95l-15.45 31.95q-3.15-1.85-4.5-5.6" fill="#234723"/><path d="M280.35 280.85 273.5 293l-1.9-.05 5.75-11.15 3-.95m-17.1 7.75-.15-.15 4.85-9.5 1.85 1.65-5.3 9.2-1.25-1.2" fill="#c0bba0"/><path d="m259.45 211.95 34.35 18.45q.7-.7 2.5-.45h.3l.3.15h.3l.7.3h.15l1.45.6.3.15.6.25.9.45 1.6 1.35.15.1.4.45.75.75.6 1 .3 1.05 3.05 1.6 3.2 5.4-3.65 2.95-5.25-1.5-3.65 1.05-.6-.3-20.25-10.6v-.05h-.1l.05-.1-2.15-8.6-.3 7.4-6.35-3.35v-.05l-5.4-5.7v-.15l-4.4-12.3.15-.3m34.35 18.45-.15.3-.1.4.1-.4.15-.3m-.25.7v.05l-1.2 2.05-.3.25-.15.45v.45q.1.75.9 1.75l.15.15.3.6.55.55.6.3.75.6.45.3.4.3.3.25 1.5.75.3.1 1 .35.4.15 1.2.15h.45l1.6-.15.6-.45 1.3-2.35h-1.75q-3.35-.25-5.7-2.35l-1.4-1.35q-1.45-.95-2.25-2.9m11.55 5.45-.15.6-.15.1-.15.45.15-.45.15-.1.15-.6m-16.75 2.7v.1l9.4.6-9.7-2.25.3 1.55m6.25 2.1.6 1.35 2.6-1.3-3.2-.05m9.75-5.25.45-.6-.45.6m3.5 5.15-.85-.2-3.8 2.3 1.9 1.4.05-.05 2.9-2.2-.2-1.25m-38.5-11.45 4.25 1.4-6.5-4.95-5.75-12.25 3.15 10.4 4.85 5.4" fill="#c1bca4"/><path d="m246.5 251 1.2.8 2.65-2-2.85 4.3-1-3.1" fill="#7b7453"/><path d="m255.95 244.3 6.9-11.6 5.1-1.15 6.3 3.1-8.9-.4-9.4 10.05m-5.6 11.85 1.8 2.45-3.7-1.95 2.75-4.3-.85 3.8" fill="#a49c77"/><path d="m269.35 229.8-4.85-5.4-3.15-10.4 5.75 12.25 6.5 4.95-4.25-1.4" fill="#dad7c9"/><path d="m324.95 242.4 5.85 3.5 4.7 14.75-21.05 36.3-6.6-3.95-.7-3.95-17.4-9.2-6.75-3.55-2.65 4.55L273.5 293l1 4.4m-.05.15-.1.1m-17.1 31.3-2.2.1-.75-.05m-11-7.35-.25-.85-.4-1.65 16.5-29.25v-.1h.15l3.95-1.2-.15-.15 4.85-9.5 4.25-8.35-24.9-13.15-.45-.3.3-.3-5.1-15.5 17.25-29.1-.15-.4.3.1 34.35 18.45m11.3 6.15 3.05 1.6 14.35 7.75h.15l2.05-3.8.25.3 4.4 14.9 6.15 3.35m-8.35.15 2.2-3.5m-2.2 3.65v-.15m0 .15h.15l-.15-.15M295.8 234l1.4 1.35q2.35 2.1 5.7 2.35h1.75m-11.1-.55.1-.05 3.55-1.75m3.95 5.3 1.75-2.95m-4.55 8.5-.15-.45.6.3m-20.85-10.9v-.05m-8.85-4.65-.15-.05m-21.8 26.45.15.6m79.85 3.5-17.7 29.4-1.6 2.65m-9.5-46.8.45-.15m6-10.55-.45.6m-45.05-23.85.15-.3m3.2 19.9v-.15m.9-7v-.15l.15.15v-.15m5.4 5.85h-.15m-9.8 59.5.65 1.3.05.15q1.35 2.4 3.4 3.95l.3-.1m3.35-3.75-2.4-1.65-1.25-1.2m-3.95 1.2-.15.1m18.2-8.1 3-.95m-12.4-1.9 1.85 1.65q3.2 2.1 7.55 1.2m-5.75 11.15 1.9.05m-10.15 2.4q1.45 1.05 3.25 1.7l1.2.45 3.05.4 2.2-.1h.25l1.05-.2m-5.25-5.25-2.2-.95m2.2.95 1.75.45.65.1M283 276.3l-10.8-5.7m-8.95 24.7.1.1m46.1-5.05-2.3-1.3M274.5 297.4l-.05.15m-.1.1-17.1 31.3m-3.9 1.65-1.65-.15q-2.8-.4-4.8-1.6-3-1.75-4.4-5.3m10.1 5.3 1.7.15m-6.5-1.75q2 1.2 4.8 1.6m-9.3-7.2q1.35 3.75 4.5 5.6" fill="none" stroke="#000" stroke-opacity=".302" stroke-width=".5"/><path d="M293.8 230.4q.7-.7 2.5-.45h.3l.3.15m-3.35 1 .1-.4.15-.3m-1.45 2.8 1.2-2.05v-.05m-.45 5.45-.15-.3-.15-.15q-.8-1-.9-1.75v-.45m.45-.7-.45.7" fill="none" stroke="#344650" stroke-width=".5"/><path d="M296.9 230.1h.3l.7.3h.15l1.45.6.3.15.6.25.9.45 1.6 1.35.15.1.4.45.75.75.6 1 .3 1.05m-.45 1.15.15-.45.15-.1.15-.6m-11.55.6-.3-.3-.15-.3m8.05 4.1h-.45l-1.2-.15-.4-.15-1-.35-.3-.1-1.5-.75-.3-.25-.4-.3-.45-.3-.75-.6-.6-.3-.25-.25m11.1.55-1.3 2.35-.6.45-1.6.15" fill="none" stroke="#585143" stroke-width=".5"/></g><path d="M4.05-4.05q1.7 0 2.85 1.15Q8.1-1.7 8.1 0T6.9 2.85q-1.15 1.2-2.85 1.2t-2.9-1.2Q0 1.7 0 0t1.15-2.9q1.2-1.15 2.9-1.15" fill="url(#a)" id="c"/><path d="m78-25.7-.15.5-4.25 7.1q.25.1.45.25l2.35-3.8.05.2 5.8 3 3.9 14.8.15.05.1.1-16.55 27.75-5.6-3.1.05-.1-1.45-5-22.05-12L38 9.2l-6.85 12.7q.3.85-.05 1.5l-.05.15-1.25 2.3.15.5.1 1.55-.2 2.35Q29.8 32.2 29 34l-1 1.75-.15.2-1.75 1.85-.2.15v.35q-.15 2.2-1.45 4.05-1.15 1.55-2.95 2.45l-.75.3.15.9.05 1.55q-.15 1.65-.95 3.1l-.5.75-1.6 1.7-1.35.75-.85.35-2.2.4h-.05l-.4.05-1.95-.05-.8 1.35-.4.4-1.9.2-.9-.2-.5-.1-1.85-.8-.45-.3L4 55l-.4-.25-.3-.25-.75-.5-.25-.25-.15-.1L1.5 53l-.2-.3-.15-.15Q.5 51.65.45 51v-.35l.15-.35.25-.3 1.05-1.75v-.05l-.6-.6Q0 46.1 0 44.35l.25-1.15q.4-.9 1.3-1.5.3-.9.85-1.7h-.1q-.2-1.55.8-2.75.8-.9 1.95-1.2L5 35.2q0-.65.25-1.2.4-.85 1.3-1.45v-.05l.2-.55.75-1.3.6-.75v-.45l.05-.15.3-1.15q.45-1.05 1.45-1.8.35-1.1 1-2.1l-.1.05q-.1-1.75 1.1-3.2.8-.95 1.85-1.4l1.45-.4h1.25l1.3-2.4.15-.45q.6-1.2 2.95-1l.25.05h.05l9.2-17.15-18.2-9.9-2.1 3.5-5.6-3.1.05-.1-4.35-15.1 16.6-27.85.25.1 5.45 3.35 1.5 5.65 1.05.35 4.85 2.65 7.3-12.15.1.05.15.05 1.05-2.45 9.6 4.8L50-44.75l-1.3 2.7-.1-.05-3.7 5.5-2.4-1.2-.15-.2v-.05l-1.75-6.1-3.85 6.5.25.6.1.35 2.25 9.35.45 1.5q.2 1.85-.7 3.7l-.8 1.45 2.7 1.45.1-.3q.5-.85 2.25-.6h.2l.35.05.2.05.65.2.2.05 1.15.5.35.15.45.25.25.15.5.25 1.45 1.1.8.8 1.1-.65q1.15-.85 2-2.25l1.8-2.9.75-.9q1-1.1 2.2-1.6l2.5-.4 1.2.45 5 2.8 1.25-2.05-2.3-1.15-.15-.2v-.05l-2-6.9 3.8-5.5.1.05 1.1-2.6 9.6 4.8 1.95 7.05-1.3 2.7" fill="none" stroke="#2f4046" id="f"/><radialGradient id="a" cx="0" cy="0" r="819.2" gradientTransform="matrix(.00513 0 0 .00513 4.05 0)" gradientUnits="userSpaceOnUse"><stop stop-color="#fff" offset="0"/><stop stop-color="#fff" stop-opacity="0" offset="1"/></radialGradient></defs><use transform="translate(287.9 268.05) scale(.18054)" xlink:href="#b"/><use transform="matrix(.00485 .03557 .05064 -.00691 289.5 268.3)" xlink:href="#c"/><use transform="translate(287.85 258.6) scale(.18054)" xlink:href="#d"/><use transform="matrix(.00833 .04701 .06697 -.01187 292.85 262.85)" xlink:href="#c"/><use transform="matrix(-.3004 -.10695 -.10086 .28331 291.25 267.75)" xlink:href="#c"/><use transform="translate(287.85 258.6) scale(.18054)" xlink:href="#e"/><use transform="matrix(.00485 .03557 .05064 -.00691 296.55 256.1)" xlink:href="#c"/><use transform="translate(287.75 258.65) scale(.18054)" xlink:href="#f"/><use xlink:href="#g"/></svg>