<svg viewBox="0 0 140.03 84.872" xmlns="http://www.w3.org/2000/svg" xmlns:xlink="http://www.w3.org/1999/xlink"><use transform="translate(0 .03)" width="140" height="84.8" xlink:href="#a"/><defs><use width="140" height="84.8" xlink:href="#b" id="a"/><g id="b"><path d="m58.7 54.25-2.45.9-5-35.3v-.05L85.75.15l.05.05.15 3.5-30 16.85-2.15 1.2.1.6 4.8 31.9m-7.45-34.4 4.7.7-4.7-.7" fill="#8d6b5d" fill-rule="evenodd"/><path d="M51.2 19.75 59 6.65l1.45-.75 4.6-1.1 1.8-.45-.9 1.45-.9-1 .9 1 .9-1.45L85.3 0h.05l.4.15-34.5 19.65v-.05h-.05M65.95 5.8l-.4.6.4-.6.25.3-.25-.3" fill="#dfb7a8" fill-rule="evenodd"/><path d="m108.55 8.6-.75 2.8 5.45-1.05L122 13.6 82.3 35.25l-.2-.1-28.2-12.8-.1-.6 2.15-1.2 30-16.85 3.7-2.1 18.9 7m-29.7 4.05 16.5-1.25-.9 9.9v.05L75.7 24.2l3.15-11.55M97.5 23.3v-.05l1.2-13.1-21.9 1.65-4.15 15.3 24.85-3.8" fill="#cca899" fill-rule="evenodd"/><path d="m122 13.6 2.95-1.3 8.4 2.95.05.35-43.8 22.75-.05-.05-7.25-3.05L122 13.6" fill="#b79787" fill-rule="evenodd"/><path d="M137.15 36.15 140 51.6l-2.25 9.25-39.3 22.45-.3-.1-8.6-44.85h.05l43.8-22.75 2.6 14.25-4.25 6.6 5.4-.3m-58.3-23.5.1-.45-.1.45L75.7 24.2l18.75-2.85v-.05l.9-9.9-16.5 1.25M97.5 23.3l-24.85 3.8 4.15-15.3 21.9-1.65-1.2 13.1v.05m21.7 27.15-7-.75 3.9-6.4-3.9 6.4 7 .75M107.7 65l-2.5-3.8-1.8-2.7 1.8 2.7 7-11.5-4.8-.5 4.8.5-7 11.5 2.5 3.8m-2.5-3.8-3.7 6 3.7-6" fill="#a98c7c" fill-rule="evenodd"/><path d="m98.15 83.2-7.6-3.25-.9-4.65-7.55-40.05h.2l7.25 3.05v.05l8.6 44.85" fill="#947768" fill-rule="evenodd"/><path d="M89.65 75.3 58.9 57.55l-.15-1.5-.05-1.8-4.8-31.9 28.2 12.8v.1l7.55 40.05" fill="#7d5b4b" fill-rule="evenodd"/><path d="M137.15 36.15 140 51.6m-2.25 9.25L98.45 83.3M122 13.6l2.95-1.3m8.4 2.95.05.35 2.6 14.25M78.95 12.2l-.1.45 16.5-1.25-.9 9.9v.05L75.7 24.2l3.15-11.55M85.8.2l.15 3.5M82.3 35.25 122 13.6M89.6 38.35l43.8-22.75M89.55 38.35h.05m7.9-15.05-24.85 3.8 4.15-15.3 21.9-1.65-1.2 13.1v.05" fill="none" stroke="#4d1f0f" stroke-linecap="round" stroke-linejoin="round" stroke-opacity=".302" stroke-width=".05"/><path d="m98.45 83.3-.3-.1-7.6-3.25-.9-4.65L58.9 57.55q-.05.6-.1-.05l-.05-1.45-.05-1.8-2.45.9-5-35.3v-.05l-.1.05.05-.1L59 6.65l1.45-.75 4.6-1.1-.75-.85m48.95 6.4L122 13.6m2.95-1.3 8.4 2.95m-66.5-10.9-1.8.45.9 1 .9-1.45.25-.4M65.95 5.8l.25.3m-.65.3.4-.6m20-2.1 3.7-2.1 18.9 7m-22.6-4.9-30 16.85-2.15 1.2.1.6 28.2 12.8.2.1 7.25 3.05.05.05M85.75.15l-.4-.15h-.05L66.85 4.35M85.8.2l-.05-.05-34.5 19.65v-.05l-.1.1m30.95 15.3v.1l7.55 40.05M58.9 57.55l-.1-.05m.1.05-.15-1.5m-4.85-33.7 4.8 31.9m44.7 4.25 1.8 2.7 7-11.5-4.8-.5m-2.2 12 2.5 3.8m8.4-21.7-3.9 6.4 7 .75M101.5 67.2l3.7-6M89.55 38.35l8.6 44.85m-42.2-62.65-4.7-.7" fill="none" stroke="#4d1f0f" stroke-linecap="round" stroke-linejoin="round" stroke-opacity=".302" stroke-width=".05"/><path d="M52.5 55.45q1.95 4.65-1.8 9.35L9.25 84.55q-1.5-4.5-4.15-7.65l47.4-21.45" fill="#b7723f" fill-rule="evenodd"/><path d="m50.5 52.25 19.4-9.1q8.8 1.95 4.7 10.3L50.7 64.8q3.75-4.7 1.8-9.35-.7-1.6-2-3.2M9.25 84.55q-5.3 1.3-8.9-3.6-1.3-4.65 2.55-6.25l2.2 2.2q2.65 3.15 4.15 7.65" fill="#9c5c32" fill-rule="evenodd"/><path d="M50.5 52.25q1.3 1.6 2 3.2L5.1 76.9l-2.2-2.2 47.6-22.45" fill="#cc8551" fill-rule="evenodd"/><path d="m50.7 64.8 23.9-11.35q4.1-8.35-4.7-10.3l-19.4 9.1m.2 12.55L9.25 84.55q-5.3 1.3-8.9-3.6-1.3-4.65 2.55-6.25l47.6-22.45M9.25 84.55q-1.5-4.5-4.15-7.65l-2.2-2.2" fill="none" stroke="#4d1f0f" stroke-linecap="round" stroke-linejoin="round" stroke-opacity=".302" stroke-width=".05"/></g></defs></svg>