<svg viewBox="0 0 100.09 79.7" xmlns="http://www.w3.org/2000/svg" xmlns:xlink="http://www.w3.org/1999/xlink"><use transform="translate(.01 .02)" width="100.05" height="79.85" xlink:href="#a"/><defs><g id="a"><path d="m315.6 183.3.6-1.6 38.5 20.75 7.75 9.45-.25 19.5-45.9-28.25-.7-19.85" fill="#6d6a3d" fill-rule="evenodd" transform="translate(-290.1 -161.1)"/><path d="m387.95 185.3 2.2 3.35-.1 17.15-27.6 25.75-.25-.15.25-19.5 6.85-10.55.9-.8 17.75-15.25" fill="#8b874e" fill-rule="evenodd" transform="translate(-290.1 -161.1)"/><path d="m316.2 181.7.7-1.75 28.55-18.8.1-.05 8.05 4-.45 1.3v.05l-1.3 3.95 19.65 7.4 2.8-.75 2-.55 8.7 4.35 2.95 4.45-17.75 15.25-.9.8.4-.65-15.05 1.7.05.05-38.5-20.75" fill="#b0ac73" fill-rule="evenodd" transform="translate(-290.1 -161.1)"/><path d="m353.15 166.45 21.15 10.6-2.8.75-19.65-7.4 1.3-3.95" fill="#a59f5f" fill-rule="evenodd" transform="translate(-290.1 -161.1)"/><path d="m369.3 201.35-6.85 10.55-7.75-9.45-.05-.05 15.05-1.7-.4.65" fill="#bbb786" fill-rule="evenodd" transform="translate(-290.1 -161.1)"/><path d="M26.8 18.85 55.35.05l.1-.05 8.05 4m-.45 1.3v.05l21.15 10.6m2-.55 8.7 4.35m5.15 7.8-.1 17.15-27.6 25.75-.25.2v-.35L26.2 42.05l-.7-19.85m46.85 28.6-.25 19.5.25.15m7.75-31L97.85 24.2M64.6 41.35 26.1 20.6" fill="none" stroke="#000" stroke-linecap="round" stroke-linejoin="round" stroke-opacity=".302" stroke-width=".05"/><path d="m340.65 173.45-1.05-1.1.9.2 4.35 2.8-1.2 1.1-3-3m4.65 8.4.1.95.1.4q.55 2.9 3.1 4.7 2.7 1.9 6.05 1.35 3.3-.6 5.35-3.25 1.65-2.2 1.7-4.7l-.1-1.25-.35-1.5.75-.15.45 1.6.05.35q.55 3.65-1.8 6.65-2.3 3.05-6.05 3.7-3.75.6-6.8-1.5-1.9-1.35-2.85-3.25-.55-1.2-.75-2.55l-.1-1.9 1.15.35m.05 7.65.2.1 1.75 1.1-5.75 1.8-.4.15v-.1l4.2-3.05m19-.3-3.1-.4 2.1-1.8 3.85 2.55-2.85-.35m-.95-17.5-.2.8-.75 3.05-1.85-1.25 2.8-2.6" fill="#be7421" fill-rule="evenodd" transform="translate(-290.1 -161.1)"/><path d="m344.85 175.35-4.35-2.8 5.95 1.35-.5.5-1.1.95m16.4 3.2q-.8-2.2-2.85-3.6-2.7-1.95-6-1.35-3.4.55-5.4 3.3-1.8 2.25-1.7 4.95l-1.15-.35q.2-2.55 1.85-4.75 2.3-3.05 6.1-3.7 3.75-.65 6.8 1.5 2.2 1.55 3.1 3.85l-.75.15m-20.1 14 2.45-4.15 1.75 1.1-4.2 3.05m22.2-5.55.65-.5.9-.8 2.35 3.85h-.05l-3.85-2.55m-3.55-13.25-.95-.6 4.65-1.65-.1.2-2.8 2.6-.8-.55" fill="#e2a058" fill-rule="evenodd" transform="translate(-290.1 -161.1)"/><path d="m340.65 173.45 3 3 1.2-1.1 1.1-.95-2.45 3.95-2.85-4.9m4.35 12.5q.95 1.9 2.85 3.25 3.05 2.1 6.8 1.5 3.75-.65 6.05-3.7 2.35-3 1.8-6.65h.05l1.45 6.15-.65.5-2.1 1.8 3.1.4-.85 2.9q-2.35 2.55-8.1 2.8-4.55.9-6.8-2l-.1-.05-.4-.4-6.55.05 5.75-1.8-1.75-1.1-.55-3.65m18.2-13.45.85 5.1-4.25-3.85.8.55 1.85 1.25.75-3.05" fill="#8b874e" fill-rule="evenodd" transform="translate(-290.1 -161.1)"/><path d="M351.2 179.95q0-.5-.35-.85l-.85-.3q-.5 0-.85.3-.3.35-.3.85t.3.85q.35.35.85.35t.85-.35.35-.85m-5.7 3.25-.1-.4-.1-.95q-.1-2.7 1.7-4.95 2-2.75 5.4-3.3 3.3-.6 6 1.35 2.05 1.4 2.85 3.6l.35 1.5.1 1.25q-1.9 5-6.95 5.85-5.85 1.05-9.25-3.95m8.1-3.7q1 .85 2.4.85t2.4-.85q1-.8 1-2t-1-2q-1-.85-2.4-.85t-2.4.85q-1 .8-1 2t1 2m2.95 4.2q0-.85-.6-1.45t-1.45-.6-1.45.6-.6 1.45.6 1.45 1.45.6 1.45-.6.6-1.45" fill="#d71a1a" fill-rule="evenodd" transform="translate(-290.1 -161.1)"/><path d="M345.5 183.2q3.4 5 9.25 3.95 5.05-.85 6.95-5.85-.05 2.5-1.7 4.7-2.05 2.65-5.35 3.25-3.35.55-6.05-1.35-2.55-1.8-3.1-4.7" fill="#8c1111" fill-rule="evenodd" transform="translate(-290.1 -161.1)"/><path d="M356.55 183.7q0 .85-.6 1.45t-1.45.6-1.45-.6-.6-1.45.6-1.45 1.45-.6 1.45.6.6 1.45" fill="#ab1414" fill-rule="evenodd" transform="translate(-290.1 -161.1)"/><path d="M351.2 179.95q0 .5-.35.85t-.85.35-.85-.35q-.3-.35-.3-.85t.3-.85q.35-.3.85-.3l.85.3q.35.35.35.85" fill="#eb5252" fill-rule="evenodd" transform="translate(-290.1 -161.1)"/><path d="M353.6 179.5q-1-.8-1-2t1-2q1-.85 2.4-.85t2.4.85q1 .8 1 2t-1 2q-1 .85-2.4.85t-2.4-.85" fill="#facfcf" fill-rule="evenodd" transform="translate(-290.1 -161.1)"/><path d="m55.2 20.75.1.95.1.4m16.2-1.9-.1-1.25-.35-1.5q-.8-2.2-2.85-3.6-2.7-1.95-6-1.35-3.4.55-5.4 3.3-1.8 2.25-1.7 4.95m-1.15-.35.1 1.9q.2 1.35.75 2.55.95 1.9 2.85 3.25 3.05 2.1 6.8 1.5 3.75-.65 6.05-3.7 2.35-3 1.8-6.65l-.05-.35-.45-1.6m-.3 2.9q-.05 2.5-1.7 4.7-2.05 2.65-5.35 3.25-3.35.55-6.05-1.35-2.55-1.8-3.1-4.7m-1.35-1.7q.2-2.55 1.85-4.75 2.3-3.05 6.1-3.7 3.75-.65 6.8 1.5Q71 15 71.9 17.3" fill="none" stroke="#74523d" stroke-linecap="round" stroke-linejoin="round" stroke-width=".05"/><path d="m319.75 215.6 10.35-7.15q1.4-.7 2.7.65 2.35 2.15.7 4.25l-12.65 8.8q2.2-4.9-1.1-6.55M298.2 238l-3.8 2.65q.9-1.6.4-3.1l-.05-.1q-1.6-2.95-4.15-1.65l3.4-2.4q2.95-1.65 4.1 1.45.75 1.75.1 3.15" fill="#91664d" fill-rule="evenodd" transform="translate(-290.1 -161.1)"/><path d="m330.1 208.45 6.4-4.45q1.7-.6 3.3.7 1.8 1.85.55 3.85l-6.85 4.8q1.65-2.1-.7-4.25-1.3-1.35-2.7-.65m-35.7 32.2-.2.1-2.2-.05-.75-.55q-1.6-1.7-.95-4.2l.3-.15q2.55-1.3 4.15 1.65l.05.1q.5 1.5-.4 3.1" fill="#74523d" fill-rule="evenodd" transform="translate(-290.1 -161.1)"/><path d="m302.8 234.8-4.6 3.2q.65-1.4-.1-3.15-1.15-3.1-4.1-1.45 3.25-2.25 6.55-4.55 3.8 1.15 2.25 5.95" fill="#d2513e" fill-rule="evenodd" transform="translate(-290.1 -161.1)"/><path d="m300.55 228.85 2.75-1.85q4.1-.05 4.1 4.55l-4.6 3.25q1.55-4.8-2.25-5.95" fill="#d86656" fill-rule="evenodd" transform="translate(-290.1 -161.1)"/><path d="m303.3 227 3.85-2.65q4.3-1.1 4.7 4.1l-4.45 3.1q0-4.6-4.1-4.55" fill="#dc7465" fill-rule="evenodd" transform="translate(-290.1 -161.1)"/><path d="m307.15 224.35 7.2-5q3.5 1.2 2.75 5.45l-5.25 3.65q-.4-5.2-4.7-4.1" fill="#d55442" fill-rule="evenodd" transform="translate(-290.1 -161.1)"/><path d="m314.35 219.35 5.4-3.75q3.3 1.65 1.1 6.55l-3.75 2.65q.75-4.25-2.75-5.45" fill="#c53f2c" fill-rule="evenodd" transform="translate(-290.1 -161.1)"/><path d="m10.45 67.75 2.75-1.85 3.85-2.65 12.6-8.75L40 47.35l6.4-4.45q1.7-.6 3.3.7 1.8 1.85.55 3.85l-6.85 4.8-12.65 8.8L27 63.7l-5.25 3.65-4.45 3.1-4.6 3.25-4.6 3.2-3.8 2.65-.2.1-2.2-.05-.75-.55q-1.6-1.7-.95-4.2l.3-.15 3.4-2.4q3.25-2.25 6.55-4.55 3.8 1.15 2.25 5.95m-8.8-1.4q2.95-1.65 4.1 1.45.75 1.75.1 3.15m-3.8 2.65q.9-1.6.4-3.1l-.05-.1Q3.05 73.4.5 74.7M40 47.35q1.4-.7 2.7.65 2.35 2.15.7 4.25m-12.65 8.8q2.2-4.9-1.1-6.55m-12.6 8.75q4.3-1.1 4.7 4.1m2.5-9.1q3.5 1.2 2.75 5.45m-9.7 6.75q0-4.6-4.1-4.55" fill="none" stroke="#000" stroke-linecap="round" stroke-linejoin="round" stroke-opacity=".302" stroke-width=".05"/></g></defs></svg>