<svg viewBox="0 0 92.905 94.591" xmlns="http://www.w3.org/2000/svg" xmlns:xlink="http://www.w3.org/1999/xlink"><use transform="translate(-.01 .03)" width="92.9" height="94.55" xlink:href="#a"/><defs><g id="a"><path d="M320.15 197q-10.9 13.85-14.15 9.9t-6.45-6.35q-3.2-2.35-15.6-13.7-12.45-11.3-15.95-16.35-3.55-5.1 7.6-15.4 10.55 1.95 27.9 20.15 14.1 14.9 16.65 21.75" fill="#2b688c" fill-rule="evenodd" transform="translate(-228.45 -153.45)"/><path d="M320.15 197q-2.55-6.85-16.65-21.75-17.35-18.2-27.9-20.15l-3.2-.15q1.85-.7 3.95-.95l1.15-.05q7.8-.3 13.6 5.25l23.7 22.6q5.75 5.45 6.1 13.5l.05 1.2-.2 2.6-.6-2.1" fill="#85a0a9" fill-rule="evenodd" transform="translate(-228.45 -153.45)"/><path d="m320.75 199.1-.45 2.2q-.6 2.25-1.7 4.35-1.1 2-2.65 3.8l-3.25 3.65-.55.65q-2.45 2.65-3.8 3.05-3.8 2.4-8.65 2.55-7.75.4-13.5-5.05l-23.75-22.6q-5.8-5.5-6.15-13.65-.2-5 1.8-9.25.25-1.5 3.2-4.8l3.15-3.6q3.4-3.9 7.95-5.45l3.2.15q-11.15 10.3-7.6 15.4 3.5 5.05 15.95 16.35 12.4 11.35 15.6 13.7 3.2 2.4 6.45 6.35t14.15-9.9l.6 2.1" fill="#22526f" fill-rule="evenodd" transform="translate(-228.45 -153.45)"/><path d="M43.95 1.5 42.3 0" fill="none" stroke="#fcc0bf" stroke-linecap="round" stroke-linejoin="round" stroke-width=".05"/><path d="M291.05 159.2q-5.8-5.5-13.6-5.2-7.75.4-13.05 6.4l-3.15 3.65q-5.3 6-4.95 14.05.3 8.15 6.1 13.65l23.8 22.6q5.7 5.5 13.45 5 7.4-.25 12.45-5.6l.6-.65 3.2-3.6q5.25-6.05 4.95-14.15-.3-8.05-6.15-13.45z" fill="none" stroke="#694634" stroke-linecap="round" stroke-linejoin="round" transform="translate(-228.45 -153.45)"/><path d="M299.8 177.6q6.7 5.1 5.8-1.45-22.25-29.65-41.6-12.6 15.8-10.5 35.8 14.05" fill="#c5d1d6" fill-opacity=".8" fill-rule="evenodd" transform="translate(-228.45 -153.45)"/><path d="m263.3 205-14.55 25.85-1.4-1.2-.95-.95q-1.5-1.6-1.4-3.8.15-2.35 1.8-3.8l9.15-8.95 7.35-7.15" fill="#2b688c" fill-rule="evenodd" transform="translate(-228.45 -153.45)"/><path d="m263.3 205 8.15-7.85 1.3-1.2q1.6-1.5 3.85-1.45 2.3.1 3.75 1.85l.9 1q1.5 1.7 1.4 3.9-.15 2.25-1.8 3.8l-.85.65-.05.05-7.2 7.1-15.8 15.5-2.1 1.8q-1.55 1.35-3.75 1.35l-2.35-.65L263.3 205" fill="#22526f" fill-rule="evenodd" transform="translate(-228.45 -153.45)"/><path d="m254.85 230.15 1.3-1.1.8-.7M263.3 205l-7.35 7.15-9.15 8.95q-1.65 1.45-1.8 3.8-.1 2.2 1.4 3.8M254.85 230.15l2.1-1.8 15.8-15.5 7.2-7.1.05-.05.85-.65q1.65-1.55 1.8-3.8.1-2.2-1.4-3.9l-.9-1q-1.45-1.75-3.75-1.85-2.25-.05-3.85 1.45l-1.3 1.2-8.15 7.85" fill="none" stroke="#694634" stroke-linecap="round" stroke-linejoin="round" transform="translate(-228.45 -153.45)"/><path d="M240.35 224.15q2-1.6 4.65-1.55 3.1-.1 5.3 2.1l1.35 1.35q2.15 2.15 2.15 5.35 0 3-2.2 5.3l-8.55 8.45-11.95-11.95 8.5-8.5.75-.55" fill="#2b688c" fill-rule="evenodd" transform="translate(-228.45 -153.45)"/><path d="m240.35 224.15-.75.55-8.5 8.5m11.95 11.95 8.55-8.45" fill="none" stroke="#694634" stroke-linecap="round" stroke-linejoin="round" transform="translate(-228.45 -153.45)"/><path d="M237.55 247.45q-3.15-.35-5.65-2.85-2.55-2.55-2.9-5.7-.3-3.1 1.65-5.05 2.05-2.05 5.2-1.8 3.1.4 5.6 3 2.55 2.45 2.95 5.55.35 3.25-1.7 5.3-1.95 1.95-5.15 1.55" fill="#22526f" fill-rule="evenodd" transform="translate(-228.45 -153.45)"/><path d="M237.55 247.45q-3.15-.35-5.65-2.85-2.55-2.55-2.9-5.7-.3-3.1 1.65-5.05 2.05-2.05 5.2-1.8 3.1.4 5.6 3 2.55 2.45 2.95 5.55.35 3.25-1.7 5.3-1.95 1.95-5.15 1.55z" fill="none" stroke="#694634" stroke-linecap="round" stroke-linejoin="round" transform="translate(-228.45 -153.45)"/><path d="M282.1 161.7q-1.1 1.1-2.65 1.1t-2.65-1.1q-1.05-1.1-1.05-2.65t1.05-2.6q1.1-1.1 2.65-1.1t2.65 1.1q1.05 1.05 1.05 2.6t-1.05 2.65" fill="#e7ebed" fill-rule="evenodd" transform="translate(-228.45 -153.45)"/><path d="m277.6 181.55 10.8 4.6-1.05 3.35 5.35 3.45-.75 3.7 4.25 2.95 7.45-.65-1.35 6.8-7.7-.55-8.9-9.3 1.5-3.05-7.55-3.3 1.8-3.3-10.15-4.7.55-2.15-.5-.2-4.8-4.3.25-.15 13.2 4.1-2.4 2.7" fill="#3396c6" fill-opacity=".6" fill-rule="evenodd" transform="translate(-228.45 -153.45)"/></g></defs></svg>