<svg width="100" height="96" viewBox="224.6 152.5 100.1 95.85" xmlns="http://www.w3.org/2000/svg" xmlns:xlink="http://www.w3.org/1999/xlink"><defs><g id="a"><path d="m257.3 209.5-2.25 1.65Q239.35 223.1 235.1 237l-.45 1.45q-.8 2.8-1.1 5.75-3.5-5.1-5.3-9.3-3.65-8.1-1-12.95.8-1.35 2.1-2.45 12.2-11.75 25.8-20.75l2.15 10.75" fill="#8c6f4d"/><path d="M255.15 198.75q3.75-2.55 7.65-4.8l3.2-1.85 4.35-2.4 6.2 8.45h-.1l-.2-.2.2.3q-11 5.35-19.15 11.25l-2.15-10.75" fill="#5a4832"/><path d="m270.35 189.7 6.2 8.45m-.05 0h-.05l-.2-.2.2.3" fill="none" stroke="#183554" stroke-opacity=".702" stroke-width=".5"/><path d="m257.3 209.5-2.25 1.65Q239.35 223.1 235.1 237l-.45 1.45q-.8 2.8-1.1 5.75-3.5-5.1-5.3-9.3-3.65-8.1-1-12.95.8-1.35 2.1-2.45 12.2-11.75 25.8-20.75 3.75-2.55 7.65-4.8l3.2-1.85 4.35-2.4m6.1 8.55q-11 5.35-19.15 11.25" fill="none" stroke="#000" stroke-opacity=".6"/><path d="m243.8 242.35-.1.1-9.05-4 .45-1.45 8.95 4.05q-.2.55-.25 1.3" fill="#204a3e"/><path d="M244.05 241.05q.45-1.05 1.4-1.75 1.55-1.15 3.55-.8 1.9.45 3.1 2.1 1.25 1.6 1.05 3.5-.2 2-1.7 3.15-1.55 1.1-3.45.7-2-.35-3.2-1.95t-1.05-3.55l.05-.1q.05-.75.25-1.3" fill="#f0c000"/><path d="M244.05 241.05q.45-1.05 1.4-1.75 1.55-1.15 3.55-.8 1.9.45 3.1 2.1 1.25 1.6 1.05 3.5-.2 2-1.7 3.15-1.55 1.1-3.45.7-2-.35-3.2-1.95t-1.05-3.55l.05-.1" fill="none" stroke="#000" stroke-opacity=".6"/><path d="m295.7 206.25-1.3 1.05-2.05 2.3-7.85-9.75-21.35-26.6 2.7-1.5 1.3-1.05 21.8 27.15 6.75 8.4" fill="#bf9900"/><path d="M276.6 209.5 252.1 179q.9-1.05 6.7-3.7l4.35-2.05 21.35 26.6-7.9 9.65m-9.45-38.8q5.45-4.2 12.25-7.7 8.75-4.6 14.15-5 13.55-.75 18.7 2.95-.8 22.4-23.3 36.9l-21.8-27.15" fill="#fc0"/><path d="m312.25 160.95 1.6 1.5q4.3 5.35-.1 20.75-1.5 5.2-7.85 12.75-4.9 5.85-10.2 10.3l-6.75-8.4q22.5-14.5 23.3-36.9m-19.9 48.65-2.95 3.8q-3.85 5.1-5.05 5.75l-7.75-9.65 7.9-9.65 7.85 9.75" fill="#e1b500"/><path d="m312.25 160.95 1.6 1.5q4.3 5.35-.1 20.75-1.5 5.2-7.85 12.75-4.9 5.85-10.2 10.3l-1.3 1.05-2.05 2.3-2.95 3.8q-3.85 5.1-5.05 5.75l-7.75-9.65-24.5-30.5q.9-1.05 6.7-3.7l4.35-2.05 2.7-1.5 1.3-1.05q5.45-4.2 12.25-7.7 8.75-4.6 14.15-5 13.55-.75 18.7 2.95" fill="none" stroke="#000" stroke-opacity=".6"/><path d="M304.4 159.25q1.05-1.15 2.4-2.2 4.25-3.45 8.9-4.05 4.65-.5 6.8 2.25 2.2 2.7.65 7.05-1.5 4.45-5.75 7.9l-2.7 1.8-3.15-3.9 3.55-2.15q2.5-2 3.55-4.3t.05-3.55-3.5-.75q-2.5.55-5 2.55-1.8 1.45-2.8 3l-3-3.65" fill="#fc0"/><path d="m314.7 172 2.7-1.8q4.25-3.45 5.75-7.9 1.55-4.35-.65-7.05-2.15-2.75-6.8-2.25-4.65.6-8.9 4.05-1.35 1.05-2.4 2.2m3 3.65q1-1.55 2.8-3 2.5-2 5-2.55 2.5-.5 3.5.75t-.05 3.55-3.55 4.3l-3.55 2.15" fill="none" stroke="#000" stroke-opacity=".6"/><path d="M290.1 171.2q-5.9-.05-10 1.75-4.1 1.75-4.95-.85-.9-2.6 2.45-5.8 3.25-3.15 8.85-5.05 5.55-1.85 10.15-1.3 4.5.6 5.4 3.2.85 2.6-2.55 5.4-3.4 2.7-9.35 2.65M257.45 181.7q-1-2.45.15-3.35 1.1-.9 2.95.95l3.95 4.55 3.35 4.7q1.3 1.9.2 2.8-1.15.9-3.2-.45-2.1-1.35-4.3-4.05-2.15-2.7-3.1-5.15" fill="#ffe16c"/></g></defs><use xlink:href="#a"/></svg>