<svg viewBox="0 0 97 96.4" xmlns="http://www.w3.org/2000/svg" xmlns:xlink="http://www.w3.org/1999/xlink"><use width="97" height="96.4" xlink:href="#a"/><defs><g id="a"><path d="m323.15 177.3.05.05h-.1l.05-.05" fill="#f5d154" fill-rule="evenodd" transform="translate(-226.45 -152.25)"/><path d="M285.15 212.15h-.05l.05-.05v.05m-21.7-2.45.05.05h-.1l.05-.05" fill="#c93" fill-rule="evenodd" transform="translate(-226.45 -152.25)"/><path d="M312.35 195q-.4.95-1.2 1.7l-.4.55-.15-.15 1.75-2.1m-67 41.05q-.75 1-1.9 1.7-6.3 4.3-10.1 10.6-1.7-1-3.1-2.45-1.9-1.75-3.5-3.85 8.3-4.3 12.65-12.85l.2 1.1 1.15 1.9 1.8 2.1q1.25 1.15 2.8 1.75m40.85-70.5.8 1.7-.15.05-.65-1.75m-6.05 9.45q-.3.65-1.35.3v-.25l1.35-.05m9.4 11.2.5.55.55.9-.6-.65-.65-.6.2-.2m1.55 5.1q-.25 1.5-1.45 2.6l-.45.35q1.4-1.25 1.9-2.95m-.1 12.65h.25l.9.15-1.15-.15" fill="#303" fill-rule="evenodd" transform="translate(-226.45 -152.25)"/><path d="M276.8 219.75v.1l-.05-.15.05.05M312.05 174q-.1-.2.05-.2l.15.15-.2.05m-46.4 37.7-.1.15-1.45-1.45 1.55 1.3" fill="#deb025" fill-rule="evenodd" transform="translate(-226.45 -152.25)"/><path d="m306.05 165.4-.45-.35.15-.05.3.4m-46.15 38.95.2.1-.15.05-.05-.15m3.5 5.4h.1l.45.6-.55-.6" fill="#a67326" fill-rule="evenodd" transform="translate(-226.45 -152.25)"/><path d="m276.7 175.65 1.1-1.3 1 .7-2.1.6m-5.75 8.2-.05.05-.1-.15.15.1" fill="#712f1c" fill-rule="evenodd" transform="translate(-226.45 -152.25)"/><path d="m285.95 165.4 11.75-12.85q1.4.3 2.5 1.05 4.4 2.6 8.45 5.5l-4.4-.45 6.4 11.35.85.85.3.2.45 2.9-.15-.15q-.15 0-.05.2-5.35 8-12.6 14.4-6.7 5.9-13.2 12.3-6.8 6.65-13.3 13.55l-1.3-.1-1.5-.25-1.65-.4-1.4-.75-1.45-1.05-1.55-1.3-.15-.05-.45-.6-.05-.05-2.1-2.15-5.9-8.05 7.35-8.85q.45.35.7.3 6.7-1.1 7.4-7.05l.05-.05 6.45-8.4 1.4-.4v.25q1.05.35 1.35-.3l1.95-1.35q3.35-2.2 5.05-6.05l-.15-.35-.8-1.7-.25-.15m15.2 32.1-.2.3-2.5-1.25q-.6-1.95.9-2.9l5.15-3.25q-2.35 1.45-3.85 4.65-.45.55-.6 1.25l1.1 1.2m-34.35 2.35-2.25 1.6q-1.15 3.1 1.35 5.15l1.3.95.1.15 2.95 1.95 4.8.15q2.1-2.05 1.85-4.4l-.6-2-1.15-1.75-.3-.35q-2.65-2.95-7.1-2.05l-.85.5-.1.1m22.75-13.65-1.85-1.5q-1.85-.9-3.95-.65l-2.15.35-.4.45-.25.25-.15-.1-2.25 5.6 3.35 3.1 1.2.9 1.45.7q2.35.45 4.65-1.05l.45-.35q1.2-1.1 1.45-2.6v-.3l.05-.3q.25-1 0-1.85l-.15-.8-.4-.4-.55-.9-.5-.55m16.5-20.8 4.6 4.6-4.6-4.6-.3-.4-.15.05.45.35m-8.35-12.85q-.35 1.85 1.05 3.45l3.55 4.6 3.45 4.4-3.45-4.4-3.55-4.6q-1.4-1.6-1.05-3.45m6.15 26.3q3.3-.35 5.2-2.55 1.1-1.4 1.1-3.1l-.2-1.6q-.55-2.1-1.75-3.45-1.65-1.9-4.4-2.6-3.2-.85-5.35 1.4l-.5.65-3.3 4.65q0 1.4.65 2.3 1.3 3.35 4.9 3.45l.6.2 3.05.65m-15.45 27.2-4.4 4.25 1.15 1.8-.05.05-2.3-.15-.9-1.4q2.15-3.25 6.5-4.55m-28.5-1.7.05.15.15-.05-.2-.1" fill="#766850" fill-rule="evenodd" transform="translate(-226.45 -152.25)"/><path d="m268.55 214.4-23.2 21.65q-1.55-.6-2.8-1.75l17.6-17q-.7-2.9.05-8.4h-.15l.9-.95.4-.4 2.1 2.15-.05.05.55.6.15.05 1.45 1.45 3 2.55m-1.35-6.85-1.3-.95q-2.5-2.05-1.35-5.15l2.25-1.6-.4.7q-1.25 2.6-.2 5.5l.75 1.05.25.45m15.9-12.95-1.2-.9-3.35-3.1 2.25-5.6.15.1q-1.2 2.6-.65 5.85l1.3 1.9 1.5 1.75m14.05-25.3q-.5 1.25-.7 2.7 0 3.8 3 5.35l.75.65q-3.6-.1-4.9-3.45-.65-.9-.65-2.3l3.3-4.65-.8 1.7" fill="#574d3c" fill-rule="evenodd" transform="translate(-226.45 -152.25)"/><path d="M308.65 159.1q5.5 6.1 10.7 12.5l3.8 5.7-.05.05-.7.35-12.25 11.65-.25-.15-2.05-1.25-3.35 2.45-5.15 3.25q-1.5.95-.9 2.9l2.5 1.25-7.8 7.05-.85-.75h-.15l-.9-.15H291l-.2.15-2.4 1.95q-4.35 1.3-6.5 4.55l.9 1.4 2.3.15-8.3 7.6-.05-.05-2.85-.55-5.35-4.75-3-2.55.1-.15 1.45 1.05 1.4.75 1.65.4 1.5.25 1.3.1q6.5-6.9 13.3-13.55 6.5-6.4 13.2-12.3 7.25-6.4 12.6-14.4l.2-.05-.45-2.9-.15-.2h-.15l-.85-.85-6.4-11.35 4.4.45m-38.55 23.7 6.6-7.15.7-.2-6.45 8.4-.15-.1-.7-.95m52.3-5.1-2.95-1q-4.8-1.95-7.65-5.65 2.85 3.7 7.65 5.65l2.95 1" fill="#ab9c83" fill-rule="evenodd" transform="translate(-226.45 -152.25)"/><path d="m309.75 198.05-1.05.5q-1.95.7-4.2.85-2.05.05-3.35-1.9l-1.1-1.2q.15-.7.6-1.25 1.5-3.2 3.85-4.65l3.35-2.45 2.05 1.25q-.9.35-1.65 1-1.55 1.45-1.55 3.45t1.55 3.4l1.5 1m-16.6 6.8.3.35q-1.1.35-1.95 1.3-1.45 1.6-1.45 3.8 0 2.1 1.35 3.65l-.55.1q-3.4.4-5.7-1.9v-.05l-1.15-1.8 4.4-4.25 2.4-1.95.2-.15 1.15.15h.15l.85.75m-30.35-14.2q-2.1-2.05-2.2-4.4.15-1.15.55-2.1l.1.1q1.4 1.45 3.35 1.45t3.3-1.45q.9-.95 1.25-2.1l.95.65.7.95.1.15q-.7 5.95-7.4 7.05-.25.05-.7-.3m15-16.3q-2.6-2.45-2.1-5.8l.4-1.65.2.25q1.45 1.45 3.5 1.45t3.5-1.45q1.25-1.25 1.45-2.9l.65.5.55.65.25.15.65 1.75.15-.05.15.35q-1.7 3.85-5.05 6.05l-1.95 1.35-1.35.05-1-.7m-10.85 32.75-.75-1.05q-1.05-2.9.2-5.5.05 1.65 1.3 2.8 1.3 1.2 3.15 1.2t3.15-1.2l1.15-1.7 1.15 1.75.6 2q.25 2.35-1.85 4.4l-4.8-.15-2.95-1.95-.35-.6m23.65-19.45.4.4.15.8q.25.85 0 1.85l-.05.3v.3q-.5 1.7-1.9 2.95-2.3 1.5-4.65 1.05l-1.45-.7-1.5-1.75-1.3-1.9q-.55-3.25.65-5.85l.25-.25-.1.95q0 2.15 1.3 3.65 1.35 1.55 3.2 1.55t3.15-1.55q.95-1.05 1.25-2.45l.6.65m17.6-19.5q1.2 1.35 1.75 3.45l.2 1.6q0 1.7-1.1 3.1-1.9 2.2-5.2 2.55l-3.05-.65-.6-.2-.75-.65q-3-1.55-3-5.35.2-1.45.7-2.7l1.1 1.6q1.75 1.8 4.2 1.8t4.15-1.8q1.2-1.2 1.6-2.75" fill="#ddaa4d" fill-rule="evenodd" transform="translate(-226.45 -152.25)"/><path d="m310.15 189.35 2.15 4.75.05.9-1.75 2.1.15.15-1 .8-1.5-1q-1.55-1.4-1.55-3.4t1.55-3.45q.75-.65 1.65-1l.25.15m-16.7 15.85.8.9 1.1 4.2q-1.2 2.95-3.95 3.65-1.35-1.55-1.35-3.65 0-2.2 1.45-3.8.85-.95 1.95-1.3m-32.3-21.05.35-.75q.5-1 1.35-1.25 2.45-.65 5-.85l1.3.85q-.35 1.15-1.25 2.1-1.35 1.45-3.3 1.45t-3.35-1.45l-.1-.1m14.95-17.25q1.05-2.95 4.65-3.5 2.25-.35 4 .85-.2 1.65-1.45 2.9-1.45 1.45-3.5 1.45t-3.5-1.45l-.2-.25m-9.7 33.65.4-.7.1-.1.85-.5q4.45-.9 7.1 2.05l.3.35-1.15 1.7q-1.3 1.2-3.15 1.2t-3.15-1.2q-1.25-1.15-1.3-2.8m14.8-15.7.4-.45 2.15-.35q2.1-.25 3.95.65l1.85 1.5-.2.2.65.6q-.3 1.4-1.25 2.45-1.3 1.55-3.15 1.55t-3.2-1.55q-1.3-1.5-1.3-3.65l.1-.95m27-16.7q-.4 1.55-1.6 2.75-1.7 1.8-4.15 1.8t-4.2-1.8l-1.1-1.6.8-1.7.5-.65q2.15-2.25 5.35-1.4 2.75.7 4.4 2.6" fill="#e7c27e" fill-rule="evenodd" transform="translate(-226.45 -152.25)"/><path d="m239.6 230.3 20.45-21.4h.15q-.75 5.5-.05 8.4l-17.6 17-1.8-2.1-1.15-1.9" fill="#746650" fill-rule="evenodd" transform="translate(-226.45 -152.25)"/><path d="m96.7 25.05.05.05m-.1 0-.7.35M84.3 45l-1 .8m-8.6-.55-.2.3m-7.8 7.05.3.35m-8.3 6.95h-.05m-8.3 7.6v.1M34.5 55.7l.4-.4m15.35-31.9 1.1-1.3m33.7-3.5-5.45-5.45-.45-.35m.15-.05-3.45-4.4-3.55-4.6Q70.9 2.15 71.25.3m13.8 18.3.3.2q2.85 3.7 7.65 5.65l2.95 1M73 25.1l.75.65M39.1 59.6l3 2.55m37.5-49-.3-.4M64.55 51.7h.25m.9.15h.15m-1.3-.15-.2.15m-6.8 6.2 1.15 1.8v.05m7-8.05-1.15-.15m-51.4 26.35 1.15 1.9 1.8 2.1q1.25 1.15 2.8 1.75m18.15-26.3-.05-.05-2.1-2.15m2.6 2.8.15.05 1.45 1.45m-1.6-1.5-.55-.6M52.35 22.8l1.35-.05m-2.75.45-.7.2m-6.45 34-2.95-1.95m33.5-29.5 3.05.65M72 14.7l-.5.65" fill="none" stroke="#000" stroke-linecap="round" stroke-linejoin="round" stroke-width=".05"/><path d="M59.5 13.15 71.25.3q1.4.3 2.5 1.05 4.4 2.6 8.45 5.5 5.5 6.1 10.7 12.5l3.8 5.7m-.75.4L83.7 37.1l2.15 4.75.05.9q-.4.95-1.2 1.7l-.4.55m-1 .8-1.05.5q-1.95.7-4.2.85-2.05.05-3.35-1.9m-.2.3-7.8 7.05m.3.35.8.9 1.1 4.2Q67.7 61 64.95 61.7l-.55.1q-3.4.4-5.7-1.9m-.05 0-8.3 7.6m-.05-.05-2.85-.55-5.35-4.75L18.9 83.8q-.75 1-1.9 1.7-6.3 4.3-10.1 10.6-1.7-1-3.1-2.45Q1.9 91.9.3 89.8q8.3-4.3 12.65-12.85l.2 1.1 20.45-21.4m1.3-1.35L29 47.25l7.35-8.85q-2.1-2.05-2.2-4.4.15-1.15.55-2.1l.35-.75q.5-1 1.35-1.25 2.45-.65 5-.85l1.3.85.95.65 6.6-7.15m1.1-1.3q-2.6-2.45-2.1-5.8l.4-1.65q1.05-2.95 4.65-3.5 2.25-.35 4 .85l.65.5.55.65" fill="none" stroke="#000" stroke-linecap="round" stroke-linejoin="round" stroke-opacity=".6" stroke-width=".6"/></g></defs></svg>