<svg width="95" height="95" viewBox="212.75 144.5 94.85 94.5" xmlns="http://www.w3.org/2000/svg" xmlns:xlink="http://www.w3.org/1999/xlink"><defs><g id="a"><path d="m228 192.1 1.05-.4 3.65-1.5 1.9 3.15.25.45.2.35.35.55 1.45 3.5q2.8-2.8 5.7-4.55l2.55 6.25-6.1 4.05v1.5l2.25 5.95 2.65 1.7 10.3 2.25.05 1.2v.4l-2.45 1.35-5.95-.75-4.55-2.9 3.4 8.35-5.85.1-6.25-6.6 2.5-3.1-5.95-10.45-7.85-8.35 3.8-1.7 1.45 1.35 1.45 1.4v-3.55M217.9 225l3.95-4.2h1.25l-.05 9.75-2.25.6-1.65-.4-1.25-5.75m16.95-31.2-2.45.05-3.35-2.15 3.35 2.15 2.45-.05m-4.35 5.2-2.5-3.35 2.5 3.35m4.25 1.45-.6.75.6-.75 2.1-2.25-2.1 2.25.15.85 2.65 4.5-1.25-6.25 1.25 6.25-2.65-4.5-.15-.85m3.6 9.3-.8-3.95.8 3.95m0 1.25 2.95 3.65-5.05-2.95-1.35-10.4 1.35 10.4 5.05 2.95-2.95-3.65m32.25-43.45.15-.1q4.65 1.45 9.35-.05l-6.7 5.9-.7-1.5-.75-1.45-1.35-2.8m4.1 2.85-2 1.4 2-1.4m-52.85 50.4v7.2l-1.05 3.15 1.05-3.15v-7.2" fill="#ffffd5"/><path d="m242 232.7-5.35-5.1-4.15-3.95-1.15-1.15 1.15 1.15-3 3.75-4.2 2.5-2.25.65.05-9.75 2.3-2.3 2.7 2.7 3.25 1.3-2.1-2.65-2.7-7.6-3.65-6.8-1.15-3.45v-2.15l-1.55-1.7 1.1-3.55 7.85 8.35 5.95 10.45-2.5 3.1 6.25 6.6 5.85 4.8-2.7 4.8m-29.25 3.65V225.8q.5-.25 1.05-.45l.65-.3 1.4-.55 2.05.5 1.25 5.75v1.65l.95.2v2.2l-4.2 1.25-3.15.3m9-36.5v-1.8 1.8m32.45 15.5-10.3-2.25-2.65-1.7-2.25-5.95v-1.5l6.1-4.05 6.95 2.2.7 2.75-.7-2.75 5.35 5.85-3.2 6.15v1.25m-.7-.7.7-.55-.7.55m-26.55-7.4v-3.55 3.55m5.65 9.25-1.35-1.65-2.1-11.9 2.1 11.9 1.35 1.65m19.45-7.4v-3.25l-9.5-1.85 9.5 1.85v3.25m-19.65 12.95V218v4.05m1.15.95v-3.55V223m-2.1-1.65v-4.6 4.6" fill="#c3bc8d"/><path d="M242.55 193.65q1.25-.75 2.55-1.35l7.05-8.55v-2.65l2.35 2.5 1.4 1.6-.65 6.45 3.4-8.5 2.35-.35-1.9-1.5 1.9 1.5-2.35.35-2.4.35 2.85-2.2.9-2.35 3-5.65 7.6-5.75 1.35 2.8.75 1.45.7 1.5 6.7-5.9q-4.7 1.5-9.35.05l6.15-4.6q2 2.65 4 4.05v2.85q4.1 2.05 5 4.7-.15 1.05 1 .9l1.85-.25h.35l1.25-.95q-.75 1-.7 2.2l-.25 1.6.6 1.4q.95 2.05 2.35 3.85l-2.5 4.35-15.1 11.3-5.05 3.7-1.55-1.6-.5-1.4-1.35-3.8-1.45-2.2v-1.85l-1.25.85 1.25-.85v1.85l1.45 2.2 1.35 3.8-2.4 1.45-1.3.6q-2.4 1.05-4.8 2.15l-.45 1.6-1.3 2.6 3 1.55-6.2 4.6 3.2-6.15-5.35-5.85-6.95-2.2 5.1-3.4 5.2 3 3.75 4.25-3.75-4.25-5.2-3-5.1 3.4-2.55-6.25m11.7 23.3 3.3 6.7v4.05l-2.2 1.55-5.5 5.35-6.3-2.45-1.55.55 2.7-4.8 4.4-1.05-2.5-2.7 2.5 2.7-4.4 1.05-5.85-4.8 5.85-.1-3.4-8.35 4.55 2.9 5.95.75 2.45-1.35m-17.6 10.65-4.05 4.05h-2.1l1.25 1.8h-6.85l-2.85 5.55-6.45-.95-2.85-1.7 3.15-.3 4.2-1.25v-2.2l-.95-.2v-1.65l1.65.4 2.25-.6 2.25-.65 4.2-2.5 3-3.75 4.15 3.95m-11.25-9.1 1.15-6.25 2.7 7.6 2.1 2.65-3.25-1.3-2.7-2.7m1.15-24.25 1.45-2.15v3.55l-1.45-1.4m54.75-17.05-2.9-1.25-4.8 8.2 7.7-6.95-7.7 6.95 4.8-8.2 2.9 1.25m-17.7 15.35-.65-.9-2.3 1v-.85l-1.6-1.35v2.75l-4.15 1.95v.05h-4.2 4.2v-.05l4.15-1.95v-2.75l1.6 1.35v2.8l2.95-2.05m-16.9-.85-1.6.6 1.6-.6m23.8-20.05 1.45-1.3-1.45 1.3m.6 1.3 1.6-1.15-1.6 1.15m-16.45 20.2.6-1.5-.6 1.5m4.4.05v2.45-2.45m-8.1-.1-.45 2.05.2.05.25-2.1 1.2-9.35-1.2 9.35m.45 6.3.65 2.7-.65-2.7m13.45-5.85-3.15 1.85h3.85l-2.7 1.4h2.35l-2.8 2.2 2.8-2.2h-2.35l2.7-1.4h-3.85l3.15-1.85m10.15-.85v3.05-3.05m6.15-8.85h6.3-6.3m-28.4 42.3L251 224.8l1.75 1.35m2.95-.85-7.45-4.9-2.4-2.85 2.4 2.85 7.45 4.9m-5.15 1.35-1.15-1.25 1.15 1.25m-7 5.5 11.95-3.95 2.05-2.9-2.05 2.9-11.95 3.95m-18.65 1.3-4.8-.85 4.8.85" fill="#7c7350"/><path d="m270.75 167.45-.15.1-.1-.15.25.05" fill="#f0eee6"/><path d="m263 173.3 7.5-5.9 6.35-4.6.05.05-6.15 4.6-.25-.05.1.15-7.6 5.75m-8.8 40.8.05 1.25v1.2l-.05-1.2v-1.25m6.45-21.45 2.3-1 .65.9-2.95 2.05v-1.95m7 6.9.5 1.4-2.85.45-.05-.4 2.4-1.45m-16.95-4.35-.2-.05.45-2.05-.25 2.1m3.55 20.15h-.05.05" fill="#e6e2d4"/><path d="m254.5 183.6-1.65-4.45 2.45 1.5q-.95-1.65-.95-3.15.7-.65 1.65.45l.45.9q-.4-1.8 0-3.25.25-.95.75 1.85l.1.6 1.05-2.9.45.65-.95 1.75v.35l4-3.9-1.85 4.95-.9 2.35-2.85 2.2 2.4-.35-3.4 8.5.65-6.45-1.4-1.6" fill="#a9a94b"/><path d="m265.35 205.85-4.95 3.65-3-1.55 1.3-2.6.45-1.6q2.4-1.1 4.8-2.15l1.35-.2 2.85-.45 1.55 1.6-4.35 3.3" fill="#504a34"/><path d="m274.75 198.85-5 3.8-.05-.1 5.05-3.7" fill="#a8a599"/><path d="m269.75 202.65-4.4 3.2 4.35-3.3.05.1" fill="#b5b2a8"/><path d="m228 192.1 1.05-.4 3.65-1.5 1.9 3.15.45.8.35.55 1.45 3.5q2.8-2.8 5.7-4.55 1.25-.75 2.55-1.35l7.05-8.55v-2.65l2.35 2.5-1.65-4.45 2.45 1.5q-.95-1.65-.95-3.15.7-.65 1.65.45l.45.9q-.4-1.8 0-3.25.25-.95.75 1.85l.1.6 1.05-2.9.45.65-.95 1.75v.35l4-3.9-1.85 4.95 3-5.65 7.6-5.75.15-.1 6.15-4.6m15.45 20.35-2.5 4.35-15.1 11.3m-9.4 7-4.95 3.65-6.2 4.6m.05 2.45v.4l3.3 6.7v4.05l-2.2 1.55-5.5 5.35-6.3-2.45-1.55.55-5.35-5.1-.6.6m-4.3 5.25h-6.85l-2.85 5.55-6.45-.95-2.85-1.7V225.8m3.1-1.3 2.05.5 3.95-4.2h1.25l2.3-2.3 1.15-6.25-3.65-6.8-1.15-3.45v-2.15l-1.55-1.7 1.1-3.55 3.8-1.7 1.45 1.35 1.45-2.15m26.2 23.25v-1.25m15.5-11.55 5.05-3.7m-20.55 16.5.05 1.2m15.45-14-4.35 3.3m-49.5 18.65-1.4.55" fill="none" stroke="#600" stroke-width=".5"/><path d="m263 173.3 7.5-5.9 6.35-4.6m-2.1 36.05-5 3.8-4.4 3.2m-11.15 8.25.05 1.25v1.2m-41.5 9.25q.5-.25 1.05-.45v-1.4l2.05.55M228 192.1v3.55l2.5 3.35m-1.45-7.3 3.35 2.15 2.45-.05-.25-.45m.25.45.2.35m1.8 4.05-2.1 2.25.15.85 2.65 4.5-1.25-6.25m-2.15 1.65.6-.75m-5.6 2.5-7.85-8.35m5.25-.35 1.45 1.4m-6.25 2.4v1.8m15.8 5.95.8 3.95m.65-4.3 2.25 5.95 2.65 1.7 10.3 2.25h.05m-.05-1.25-.7.55m-24.35-11.7 5.95 10.45-2.5 3.1 6.25 6.6 5.85 4.8 4.4-1.05-2.5-2.7m-5.3-9.5-5.05-2.95-1.35-10.4m6.4 13.35-2.95-3.65m-9.2-8.05 2.1 11.9 1.35 1.65m-5.65-12.8v3.55m43.8-39.8-.25-.05.1.15 1.35 2.8.75 1.45 2-1.4m4.15-9.05-.5.4m-5.65 10.05.7 1.5 6.7-5.9q-4.7 1.5-9.35.05m10.55 9.75-7.7 6.95 4.8-8.2 2.9 1.25m-20.65 15.45 2.3-1 .65.9 1.25-.85v1.85l1.45 2.2 1.35 3.8.5 1.4 1.55 1.6.05.1m2.95-30.85-1.6 1.15m.85-2.6-1.45 1.3m-25.4 20.65 1.6-.6m12.4-10.4 1.9 1.5-2.35.35-4 10m-.15-9.55 1.4 1.6m-5.2 10h4.2v-.05l4.15-1.95v-2.75l1.6 1.35v2.8l2.95-2.05m-4.95-9.4-2.4.35 2.85-2.2.9-2.35m-.95 16.7v-2.45m-7 8.9.7 2.75m11.2-3.25q-2.4 1.05-4.8 2.15l-.45 1.6-1.3 2.6-3.2 6.15m-9.1-14.2 5.1-3.4 5.2 3 3.75 4.25m-8.45-8.55.25-2.1 1.2-9.35m-.1 18.35-.65-2.7m-8.85 4.6 9.5 1.85v3.25M262.4 199l2.8-2.2h-2.35l2.7-1.4h-3.85l3.15-1.85m.45 7.85-1.35.2 1.3-.6 2.4-1.45m-2.35 1.85 2.85-.45m6.85-5.2v-3.05m12.45-8.85h-6.3M245.1 199.9l-6.1 4.05m2.3 10.7 4.55 2.9 2.4 2.85 7.45 4.9m-3.9-7 2.45-1.35m3.3 8.35-2.05 2.9-11.95 3.95m5.85-6.75 1.15 1.25m.45-1.85 1.75 1.35m-8.05 1.75-2.7 4.8m-8.45-13.25V223m-1.15-5v4.05m.1 1.6 4.15 3.95m-10.1-15.35 2.7 7.6 2.1 2.65 1.15 1.15-3 3.75-4.2 2.5-2.25.65-2.25.6-1.65-.4v1.65l.95.2 4.8.85m6.45-10.95-3.25-1.3-2.7-2.7m-4.6 12.65 1.05-3.15v-7.2m-7.4 4.25-.65.3m6.3 7.25v2.2l-4.2 1.25-3.15.3M217.9 225l1.25 5.75m12.3-14v4.6" fill="none" stroke="#351b00" stroke-opacity=".451" stroke-width=".5"/><path d="m305.4 196.5-3.95 3-.35-.3 4.3-2.7m-38.3 12-2.95-6.65 7.15-12.4 4.8-8.2 2.35-1.5 1.95-5.05 8.15 10.7 3.55 19.45-.25.15-1.1 1.1q-5.7-13.05-5.3-6.1v4.9q-1.9 4-6.65-17.45-1.95-4.45-3.95 13.15l-.95-3.9q-2.35-1.85-2.75 9.2.3 5.8-4.05 2.6m-23.85-28.85q.9-1.6-.55-1.6l2.6-.65-2.05 2.25M285.7 191q.5-.75.5-1.8t-.5-1.8q-.45-.75-1.15-.75t-1.2.75q-.45.75-.45 1.8t.45 1.8q.5.75 1.2.75t1.15-.75" fill="#7c7350"/><path d="m281.9 160.75-1.6-1.95.9-1.6 1.95.4q13.1 6.05 15.8 22.25l-.6 1.9-5-7.15-.45-1.7-1 .4-1.95-1.85.75 2.35-4.5-5.3-.65 1.55-1-6.5-3.45-2.15.8-.65" fill="#504a34"/><path d="m283.45 153.7-4.2 3.4-2.85 12.35 4 5.25-1.95 5.05-2.35 1.5-7.4 2.45-.1.05-21.5 7.1-3.85-11.2 2.05-2.25 8.95-.4 8.6 5.5 5.75 1.25-5.75-1.25-8.6-5.5-8.95.4-2.6.65-1.15-3.25-.1-.35 3.15-18.25 14.6-.55h3.95l5.5-4.85 3.25 4.9 2.75-.8-2.75.8-3.25-4.9 7.15-6.3 6 4.45 1.65 4.75m-41.9 21.1 5.8-12.45 11.85-6.7-11.85 6.7-5.8 12.45m21.6-19.15 13.25 13.8-13.25-13.8m8.15 33.8-2.6-5.75 7.4-2.45-4.8 8.2m-22.45-21.65 6.25 1.55-.85 7.65.85-7.65-6.25-1.55m43.25 37.05-3.55-19.45 16.85 11.1-4.3 2.7q-8.35-11.15-7.2-6.25l1.95 8.05q-.5 1.5-2.55-1.75-1.15-1.65 0 4.85l-1.2.75" fill="#c3bc8d"/><path d="m279.25 157.1 6.95-2.2 15.45 4.75v10.7l5.95 15.45-.55 2.65q-1.6-8.05-1.85-5.85v.35q-2.25.15-.15 7.85.6 3.05-6.85-3.35-.1 3.95 7.6 7.15l-.4 1.9-16.85-11.1-8.15-10.7-4-5.25 2.85-12.35m-34.65-.9 8-4.95h2.85l6.75-5.65 4.25-1.1h9.35l-7.15 6.3-5.5 4.85h-3.95l-14.6.55m12.1-4-1.25-.95 1.25.95 3.45.75 8.5-2.15-8.5 2.15-3.45-.75-4.1-.95 4.1.95m25.2 8.55-.8.65 3.45 2.15 1 6.5.65-1.55 4.5 5.3-.75-2.35 1.95 1.85 1-.4.45 1.7 5 7.15.6-1.9q-2.7-16.2-15.8-22.25l-1.95-.4-.9 1.6 1.6 1.95m6.35 15.5-2.15 1.35-5.7-2.9 5.7 2.9 2.15-1.35m9.8 7.45-11.95-6.1 11.95 6.1" fill="#ffffd5"/><path d="m283.45 153.7 2.75 1.2-6.95 2.2 4.2-3.4m-19.3 48.15-17.05-11 21.5-7.1.1-.05 2.6 5.75-7.15 12.4" fill="#a59a72"/><path d="m301.45 199.5-17.15 12.75-16.4-1.9-.8-1.85q4.35 3.2 4.05-2.6.4-11.05 2.75-9.2l.95 3.9q2-17.6 3.95-13.15 4.75 21.45 6.65 17.45V200q-.4-6.95 5.3 6.1l1.1-1.1.25-.15 1.2-.75 7.8-4.9.35.3M285.7 191q-.45.75-1.15.75t-1.2-.75q-.45-.75-.45-1.8t.45-1.8q.5-.75 1.2-.75t1.15.75q.5.75.5 1.8t-.5 1.8m5.05 15.1-6.45 6.15 6.45-6.15" fill="#91403c"/><path d="M293.3 204.1q-1.15-6.5 0-4.85 2.05 3.25 2.55 1.75l-1.95-8.05q-1.15-4.9 7.2 6.25l-7.8 4.9" fill="#c30"/><path d="m307.05 188.45-1.25 6.15q-7.7-3.2-7.6-7.15 7.45 6.4 6.85 3.35-2.1-7.7.15-7.85v-.35q.25-2.2 1.85 5.85" fill="red"/><path d="m281.9 160.75-.8.65 3.45 2.15 1 6.5.65-1.55 4.5 5.3-.75-2.35 1.95 1.85 1-.4.45 1.7 5 7.15.6-1.9q-2.7-16.2-15.8-22.25l-1.95-.4-.9 1.6 1.6 1.95" fill="none" stroke="#000" stroke-opacity=".431" stroke-width=".5"/><path d="m283.45 153.7-4.2 3.4 6.95-2.2m15.45 4.75v10.7m-60.1 4.45-.1-.35m49.3 31.65 1.1-1.1.25-.15 1.2-.75 7.8-4.9 4.3-2.7m-21.1 15.75 6.45-6.15" fill="none" stroke="#3e2800" stroke-opacity=".471" stroke-width=".5"/><path d="m259.2 155.65-11.85 6.7-5.8 12.45m3.05-18.6 14.6-.55h3.95l5.5-4.85m7.15-6.3-7.15 6.3m11.75 23.9-4-5.25-13.25-13.8m12.95 25.6 2.35-1.5 1.95-5.05 5.7 2.9 2.15-1.35m-19.65 7.5-5.75-1.25-8.6-5.5-8.95.4-2.05 2.25m28.05 9.8-2.6-5.75-.1.05-21.5 7.1m29-9.6-7.4 2.45m2.6 5.75 4.8-8.2m-33.4-3.2 2.6-.65m8.95-.4.85-7.65-6.25-1.55m43.25 37.05-3.55-19.45-8.15-10.7m-16.25 27.15 7.15-12.4m14.8-11.85 11.95 6.1m7.35 12.8-16.85-11.1m-9.3-28.3-2.85 12.35" fill="none" stroke="#3e2800" stroke-opacity=".471" stroke-width=".5"/><path d="m268.65 150.8-8.5 2.15-3.45-.75-4.1-.95m2.85 0 1.25.95m11.95-1.4 3.25 4.9 2.75-.8" fill="none" stroke="#827248" stroke-width=".5"/><path d="m286.2 154.9-2.75-1.2m2.75 1.2 15.45 4.75m0 10.7 5.95 15.45-.55 2.65-1.25 6.15-.4 1.9-3.95 3-17.15 12.75-16.4-1.9-.8-1.85-2.95-6.65-17.05-11-3.85-11.2q.9-1.6-.55-1.6l-1.15-3.25m-.1-.35 3.15-18.25 8-4.95h2.85l6.75-5.65 4.25-1.1h9.35l6 4.45 1.65 4.75" fill="none" stroke="#500" stroke-width=".5"/><path d="m283.4 158.05.5-.4h9.85l-.6 1.85 8.35-5.8.2 1.75-2.2 2.65-3.7 7.2 1.65 5.9-1.4 2.6-1 1.85-.6-1.4.25-1.6q-.05-1.2.7-2.2l-1.25.95h-.35l-1.85.25q-1.15.15-1-.9-.9-2.65-5-4.7v-2.85q-2-1.4-4-4.05l1.45-1.1m.5.9v-1.3 1.3" fill="#c3bc8d"/><path d="m301.5 153.7-8.35 5.8.6-1.85 4.3-3.95h3.45" fill="#ffffd5"/><path d="m295.05 175.65 1-1.85 1.4-2.6-1.65-5.9 3.7-7.2 2.2-2.65 1.4 13.9-5.7 10.15q-1.4-1.8-2.35-3.85m2.4-4.45 5.65-1.85-5.65 1.85m3.45-8.8q-2.15.4-3 3 .85-2.6 3-3" fill="#7c7350"/><path d="m283.4 158.05-1.45 1.1-.05-.05 1.5-1.05" fill="#e6e2d4"/><path d="m296.05 173.8 1.4-2.6-1.65-5.9 3.7-7.2 2.2-2.65m-.2-1.75-8.35 5.8.6-1.85m-9.85 0v1.3m19.2 10.4-5.65 1.85m-15.55-12.1 1.5-1.05m14.5 7.35q.85-2.6 3-3" fill="none" stroke="#351b00" stroke-opacity=".451" stroke-width=".5"/><path d="m283.4 158.05-1.45 1.1m19.75-3.7-.2-1.75m-7.75 3.95h-9.85m9.85 0 4.3-3.95h3.45m-4.1 25.8 5.7-10.15m-1.4-13.9 1.4 13.9" fill="none" stroke="#600" stroke-width=".5"/><path d="M236.05 228.2v5.05l-1.55-2v3.65l-1.05-1.85-.55 3.1-1.15-2.7-1.25-1.8h2.1l3.45-3.45" fill="#a9a94b"/><path d="M236.05 228.2v5.05l-1.55-2v3.65l-1.05-1.85-.55 3.1-1.15-2.7" fill="none" stroke="#600" stroke-width=".5"/><path d="m231.75 233.45-1.25-1.8h2.1l3.45-3.45" fill="none" stroke="#351b00" stroke-opacity=".451" stroke-width=".5"/><path d="m300.75 171.05 2.5 4.4-2.35-1 1.85 3.2-1.85-1.1 1.05 2.95-2.35-1.75-2-.95 1.85-1.05 1.3-4.7" fill="#a9a94b"/><path d="m300.75 171.05 2.5 4.4-2.35-1 1.85 3.2-1.85-1.1 1.05 2.95-2.35-1.75" fill="none" stroke="#600" stroke-width=".5"/><path d="m299.6 177.75-2-.95 1.85-1.05 1.3-4.7" fill="none" stroke="#351b00" stroke-opacity=".451" stroke-width=".5"/><path d="m299.35 197.4 2.5 4.4-2.35-1 1.85 3.2-1.85-1.1 1.05 2.95-2.35-1.75-2-.95 1.85-1.05 1.3-4.7" fill="#a9a94b"/><path d="m299.35 197.4 2.5 4.4-2.35-1 1.85 3.2-1.85-1.1 1.05 2.95-2.35-1.75" fill="none" stroke="#600" stroke-width=".5"/><path d="m298.2 204.1-2-.95 1.85-1.05 1.3-4.7" fill="none" stroke="#351b00" stroke-opacity=".451" stroke-width=".5"/><path d="m290.6 207.5-2.25 8.5-1.7-4.05-1.65 6.15-.95-3.6-2.3 5-.75-5.05-1.3-3.65 3.55.95 7.35-4.25" fill="#a9a94b"/><path d="m290.6 207.5-2.25 8.5-1.7-4.05-1.65 6.15-.95-3.6-2.3 5-.75-5.05" fill="none" stroke="#600" stroke-width=".5"/><path d="m281 214.45-1.3-3.65 3.55.95 7.35-4.25" fill="none" stroke="#351b00" stroke-opacity=".451" stroke-width=".5"/></g></defs><use xlink:href="#a"/></svg>