<svg viewBox="0 0 143.25 99.123" xmlns="http://www.w3.org/2000/svg" xmlns:xlink="http://www.w3.org/1999/xlink"><use transform="translate(.03 .05)" width="143.2" height="99.05" xlink:href="#a"/><defs><g id="a"><path d="m234 245.3-.25.5-.5-.5h.75" fill="#6a0000" fill-rule="evenodd" transform="translate(-203.85 -150.9)"/><path d="m311.7 223.95-26.45 6.4-9.8 2.45 16.4 2.2L310 245.3l-37.75 1.7q-16.95 0-29.7-.75l29.95-12.5-9.8.75-49.05-5.65q4.4-1.45 11-2.7 20.6-4.15 50.55-4.15 20.1 0 36.5 1.95" fill="#f1cb72" fill-rule="evenodd" transform="translate(-203.85 -150.9)"/><path d="m285.25 230.35 60.3 4.4q-2.2 2.2-5.9 3.9h-.45v.25l-5.15 2-42.2-5.9-16.4-2.2 9.8-2.45m-79.95 2.95q2.2-2.45 8.35-4.45l49.05 5.65-52.5 4.4-1-.7q-3.15-2.2-3.9-4.9" fill="#f3d296" fill-rule="evenodd" transform="translate(-203.85 -150.9)"/><path d="m234.7 245.55-.2-.5q-.5 0-.5.25h-.75l-.25-.25v.25q-8.1-1.25-13.5-2.7l-.7-1.25q-.5.25-.75 1-4.9-1.7-7.85-3.45l52.5-4.4 9.8-.75-29.95 12.5-7.85-.7m99.35-4.65q-9.35 2.9-24.05 4.4L291.85 235l42.2 5.9" fill="#f8cba3" fill-rule="evenodd" transform="translate(-203.85 -150.9)"/><path d="M311.7 223.95q7.4.75 14.25 2.2l1.45.25v1.5l.5.25q.5 0 1.45-1.5l3.7 1q-2.95 2.45-2.7 2.95-.25.7.5.95l4.65-3.2q8.6 2.5 10.8 5.65l-.75.75-60.3-4.4 26.45-6.4" fill="#f5cc94" fill-rule="evenodd" transform="translate(-203.85 -150.9)"/><path d="m345.55 234.75.75-.75q.75 1 .75 2 0 2.9-5.65 5.6l.25-.45q-.25-2.25-2-2.5 3.7-1.7 5.9-3.9m-6.35 4.15-.25.75 1.2 1.5q-.25.2-.25.7v.5q-5.15 1.7-13.45 3.45-21.1 4.15-50.8 4.15-22.8 0-40.2-2.2-.25-1.5-.75-2.2l7.85.7q12.75.75 29.7.75l37.75-1.7q14.7-1.5 24.05-4.4l5.15-2M233 245.3l-.5 1.45v.25l-7.6-1.2-5.85-1.5q.45-.5.45-1.45v-.25q5.4 1.45 13.5 2.7m-14.95-2.95q-.25.5-.25 1.7-13.75-3.4-13.95-8.05 0-1.5 1.45-2.7.75 2.7 3.9 4.9l1 .7q2.95 1.75 7.85 3.45" fill="#f1b050" fill-rule="evenodd" transform="translate(-203.85 -150.9)"/><path d="M142.45 83.1q.75 1 .75 2 0 2.9-5.65 5.6m-1.5.75q-5.15 1.7-13.45 3.45-21.1 4.15-50.8 4.15-22.8 0-40.2-2.2m-2.95-.75-7.6-1.2-5.85-1.5m-1.25-.25Q.2 89.75 0 85.1q0-1.5 1.45-2.7 2.2-2.45 8.35-4.45 4.4-1.45 11-2.7 20.6-4.15 50.55-4.15 20.1 0 36.5 1.95" fill="none" stroke="#000" stroke-linecap="round" stroke-linejoin="round" stroke-opacity=".302" stroke-width=".05"/><path d="M142.45 83.1q-2.2-3.15-10.8-5.65l-4.65 3.2q-.75-.25-.5-.95-.25-.5 2.7-2.95l-3.7-1q-.95 1.5-1.45 1.5l-.5-.25v-1.5l-1.45-.25q-6.85-1.45-14.25-2.2l-26.45 6.4 60.3 4.4.75-.75m-4.9 7.6.25-.45q-.25-2.25-2-2.5m-.45.25-.25.75 1.2 1.5q-.25.2-.25.7v.5M31.6 96.85q-.25-1.5-.75-2.2m-1.7-.25-.5 1.45v.25M15.2 93.4q.45-.5.45-1.45v-.25m-1.45-.25q-.25.5-.25 1.7m44.9-9.55 9.8-.75-29.95 12.5" fill="none" stroke="#000" stroke-linecap="round" stroke-linejoin="round" stroke-opacity=".169" stroke-width=".05"/><path d="m263.65 230.85 8.35.45q12.75-1.7 21.8-4.9l4.7-1.95q.7-.5 1.45-.75 5.4-.25 1.25 3.45 3.4 1.95 1.7 4.15l-.5.5q-7.35 3.2-17.15 3.2h-2.2l-12.55-.25 10.3-1q11.8-1.7 20.4-6.6-8.6 4.9-20.4 6.6l-10.3 1-16.9 1.95-7.35.75-2.2.25q-3.2-1.5 1.7-3.2l15.2-1.7q-9.55-.5-13-2.95-3.9-1.7 1.5-3.2 6.1 2.95 14.2 4.2m8.35.45-11.05 1.5 11.05-1.5" fill="#900" fill-rule="evenodd" transform="translate(-203.85 -150.9)"/><path d="M285.25 235q9.8 0 17.15-3.2l.5-.5q17.65 6.15 11.75 9.85-9.05 5.35-37.5 2.2l-30.9-5.9 7.35-.75q15.2 2.45 31.65-1.7" fill-opacity=".341" fill-rule="evenodd" transform="translate(-203.85 -150.9)"/><path d="M268.55 216.6v.25l-.25-.25h.25" fill="#a65300" fill-rule="evenodd" transform="translate(-203.85 -150.9)"/><path d="m277.4 212.2-.25-.25h.25v.25m-9.1 4.4h.25-.25" fill="#df7000" fill-rule="evenodd" transform="translate(-203.85 -150.9)"/><path d="m268.55 216.85-4.9 14q-8.1-1.25-14.2-4.2l-1.25-13.95h.75q0 2.45 9.55 3.4l9.8.5.25.25m25.25 9.55-4.4-11.25 9.1 9.3-4.7 1.95" fill="#f1b050" fill-rule="evenodd" transform="translate(-203.85 -150.9)"/><path d="M293.8 212.2h2.45l3.7 11.5q-.75.25-1.45.75l-9.1-9.3 4.4 11.25q-9.05 3.2-21.8 4.9l-8.35-.45 4.9-14v-.25l12.75-.25 7.85-1.45q3.45-1.25 4.65-2.7m-23.3 22.55 12.55.25h2.2q-16.45 4.15-31.65 1.7l16.9-1.95m-24.75-.25 2.2-4.65q3.45 2.45 13 2.95l-15.2 1.7" fill="#dd9b42" fill-rule="evenodd" transform="translate(-203.85 -150.9)"/><path d="M296.25 212.2h-2.45l1-3.45 1.95 1.7-.5 1.75m-19.1-.25.25.25-8.85 4.4h-.25l-9.8-.5q-9.55-.95-9.55-3.4 7.35-3.2 17.65-5.4 5.4 2.2 10.55 4.65" fill="#f3d296" fill-rule="evenodd" transform="translate(-203.85 -150.9)"/><path d="M277.4 211.95h-.25q-5.15-2.45-10.55-4.65l4.4-1q11.05-.75 21.35 1.7l-14.95 3.95" fill="#f1cb72" fill-rule="evenodd" transform="translate(-203.85 -150.9)"/><path d="m294.8 208.75-1 3.45q-1.2 1.45-4.65 2.7l-7.85 1.45-12.75.25 8.85-4.4v-.25l14.95-3.95 2.45.75" fill="#f8cba3" fill-rule="evenodd" transform="translate(-203.85 -150.9)"/><path d="M89.95 61.3h2.45l.5-1.75-1.95-1.7m-1 3.45q-1.2 1.45-4.65 2.7l-7.85 1.45-12.75.25h-.25M59.8 79.95l8.35.45q12.75-1.7 21.8-4.9l4.7-1.95q.7-.5 1.45-.75l-3.7-11.5m-3.9-4.2 2.45.75m-28.2-1.45q-10.3 2.2-17.65 5.4 0 2.45 9.55 3.4l9.8.5m24.05-8.6q-10.3-2.45-21.35-1.7l-4.4 1m34.6 19.85q-8.6 4.9-20.4 6.6l-10.3 1 12.55.25h2.2q9.8 0 17.15-3.2l.5-.5q1.7-2.2-1.7-4.15 4.15-3.7-1.25-3.45M42.4 86.55l-2.2.25q-3.2-1.5 1.7-3.2l2.2-4.65q-3.9-1.7 1.5-3.2L44.35 61.8h.75m12 20.1 11.05-1.5M41.9 83.6l15.2-1.7q-9.55-.5-13-2.95m15.7 1q-8.1-1.25-14.2-4.2m21.05 8.1-16.9 1.95q15.2 2.45 31.65-1.7m-31.65 1.7-7.35.75" fill="none" stroke="#000" stroke-linecap="round" stroke-linejoin="round" stroke-opacity=".302" stroke-width=".05"/><path d="M277.65 210.45q-.75-22.8 8.3-45.6l1.75-3.9q4.4-10.55 10.75-10.05 1.5 0 2.7.5 3.2 5.6 1.5 14.2l-4.2 13-6.1 12.25-5.65 16.2h-.25q2.95-21.35 11.8-38.25l1.45-4.45q1-2.9.25-4.15-2.2-1.95-5.9 4.4-1.95 3.45-4.4 9.6-7.35 16.65-6.85 33.35l-5.15 2.9" fill="#f3d296" fill-rule="evenodd" transform="translate(-203.85 -150.9)"/><path d="M301.15 151.4q4.2.95 3.95 6.85l-.25 6.1q-1.25 9.6-5.15 15.45-7.1 13.75-9.8 27.5l-3.2-.25 5.65-16.2 6.1-12.25 4.2-13q1.7-8.6-1.5-14.2" fill="#f1b050" fill-rule="evenodd" transform="translate(-203.85 -150.9)"/><path d="m286.45 207.05-3.65.5q-.5-16.7 6.85-33.35 2.45-6.15 4.4-9.6 3.7-6.35 5.9-4.4.75 1.25-.25 4.15l-1.45 4.45q-8.85 16.9-11.8 38.25" fill="#ffd2d2" fill-rule="evenodd" transform="translate(-203.85 -150.9)"/><path d="M73.8 59.55q-.75-22.8 8.3-45.6l1.75-3.9Q88.25-.5 94.6 0q1.5 0 2.7.5 4.2.95 3.95 6.85l-.25 6.1q-1.25 9.6-5.15 15.45-7.1 13.75-9.8 27.5" fill="none" stroke="#5a401d" stroke-linecap="round" stroke-linejoin="round" stroke-opacity=".341" stroke-width=".05"/><path d="m251.65 170.8.5 3.65-.7.25.2-3.9" fill="#e8d397" fill-rule="evenodd" transform="translate(-203.85 -150.9)"/><path d="M251.65 170.8v-.25q.75-11.8 6.65-14.25 6.6-3.4 8.8 3.45l1.75 5.9q1.95 9.3.5 16.4-2.25 15.7 0 29.7-1.75.45-3.2 1.2-4.45-20.85-1.95-40.45l.2-4.65q-.2-3.2-1.2-3.7-2.7-.95-4.15 6.4-.75 4.15-1.25 10.8-1.25 18.6 4.9 33.55l-1 1q-3.9-3.9-6.35-15.45l-3.2-26-.5-3.65" fill="#f3d296" fill-rule="evenodd" transform="translate(-203.85 -150.9)"/><path d="m252.15 174.45 3.2 26q2.45 11.55 6.35 15.45l-2.65 3.9q-8.35-20.1-7.6-45.1l.7-.25" fill="#f1b050" fill-rule="evenodd" transform="translate(-203.85 -150.9)"/><path d="M262.7 214.9q-6.15-14.95-4.9-33.55.5-6.65 1.25-10.8 1.45-7.35 4.15-6.4 1 .5 1.2 3.7l-.2 4.65q-2.5 19.6 1.95 40.45l-3.45 1.95" fill="#ffd2d2" fill-rule="evenodd" transform="translate(-203.85 -150.9)"/><path d="M65.5 60.85q-2.25-14 0-29.7 1.45-7.1-.5-16.4l-1.75-5.9Q61.05 2 54.45 5.4q-5.9 2.45-6.65 14.25v.25m-.2 3.9q-.75 25 7.6 45.1m-7.6-45.1.2-3.9" fill="none" stroke="#5a401d" stroke-linecap="round" stroke-linejoin="round" stroke-opacity=".341" stroke-width=".05"/></g></defs></svg>