<svg viewBox="0 0 71.65 99.041" xmlns="http://www.w3.org/2000/svg" xmlns:xlink="http://www.w3.org/1999/xlink"><use transform="translate(0 -.01)" width="71.65" height="99.05" xlink:href="#a"/><defs><g id="a"><path d="m278.35 222.9 3.75.1q2.9 13.85-1.9 26.45-5.15.5-9 0 6.75-10.45 7.15-26.55" fill="#9392a9" fill-rule="evenodd" transform="translate(-239.15 -150.95)"/><path d="M278.35 222.9q-.4 16.1-7.15 26.55-8.35-1.25-10.8-7.45 4.7-9.65 3.25-19.6l14.7.5" fill="#63627d" fill-rule="evenodd" transform="translate(-239.15 -150.95)"/><path d="M32.05 98.5q3.85.5 9 0 4.8-12.6 1.9-26.45l-3.75-.1M32.05 98.5q-8.35-1.25-10.8-7.45 4.7-9.65 3.25-19.6l14.7.5" fill="none" stroke="#000" stroke-linecap="round" stroke-linejoin="round" stroke-opacity=".6" stroke-width=".6"/><path d="M255.65 215.35q1.95-7.1 11-14.6l2.95-1.3q-9 8.25-11.9 17.35-1.25-.7-2.05-1.45m27.45-19.25 3.25 1.2q3.55 1.4 8.65 4.35 6.9 6 8.7 13.4l.3 1.2-3.05 1.2-.7-2.1q-1.3-4-2.95-7.35-5.2-7-11.25-10.2-1.45-.9-2.95-1.5v-.2m2.95 1.7.3-.5-.3.5" fill="#e6e9f2" fill-rule="evenodd" transform="translate(-239.15 -150.95)"/><path d="m282.9 196 .2.1v.2l-.2-.3" fill="#ffbb4a" fill-rule="evenodd" transform="translate(-239.15 -150.95)"/><path d="m281.4 195.8 1.5.2.2.3-1.7-.5" fill="#dea240" fill-rule="evenodd" transform="translate(-239.15 -150.95)"/><path d="m299.75 222.1-7.85 1.85-4.75.8-6.25.7q-8.05.1-14.05-1.1l1.3-4.15h.1l5.05.6.1.1 1.45-.1h5.1l3.25-.4 2.5-.3 1.15-.1 2.7-.4 1.8-.3 1.85-.4 5.95-1.1.6 4.3m-36.3 1.45h-.1q-2.9-.75-5.25-1.75l-.3-.2 1.6-3.95 1.4.55 3.75 1.2.8.2-1.9 3.95" fill="#002fce" fill-rule="evenodd" transform="translate(-239.15 -150.95)"/><path d="M266.85 224.35h-.1l-3.3-.8 1.9-3.95 2.8.6-1.3 4.15m-9.05-2.75-2.25-1.4 2.15-3.4 1.7.85-1.6 3.95" fill="#001f88" fill-rule="evenodd" transform="translate(-239.15 -150.95)"/><path d="m304 216.25.1.4 1.1 3.55-2.85 1.1-2.6.8-.6-4.3 1.8-.35 3.05-1.2m-48.45 3.95-1.5-1.2 1.6-3.65q.8.75 2.05 1.45l-2.15 3.4" fill="#6285ff" fill-rule="evenodd" transform="translate(-239.15 -150.95)"/><path d="M269.6 199.45q8.2-3.65 8.35-3.65l1.2.1.7-.1h1.55l1.7.5q1.5.6 2.95 1.5l-3.15 5.65 4.75 6.75.1.2-7.8 10.4h-5.1l-1.45.1-.1-.1-5.05-.6h-.1l-2.8-.6-.8-.2-3.75-1.2-1.4-.55-1.7-.85q2.9-9.1 11.9-17.35" fill="#63627d" fill-rule="evenodd" transform="translate(-239.15 -150.95)"/><path d="m300.95 217.45-1.8.35-5.95 1.1-1.85.4-1.8.3-2.7.4-1.15.1-2.5.3-3.25.4 7.8-10.4-.1-.2-4.75-6.75 3.15-5.65q6.05 3.2 11.25 10.2 1.65 3.35 2.95 7.35l.7 2.1" fill="#9392a9" fill-rule="evenodd" transform="translate(-239.15 -150.95)"/><path d="m38.8 44.85 1.2.1M64.85 65.3l-3.05 1.2-1.8.35-5.95 1.1-1.85.4-1.8.3-2.7.4-1.15.1-2.5.3-3.25.4m-22.25-4 1.7.85 1.4.55 3.75 1.2.8.2 2.8.6m.1 0 5.05.6.1.1 1.45-.1h5.1m7.8-10.4-.1-.2m-29.95 6.6q-1.25-.7-2.05-1.45m30.7-18.05-.3.5M64.85 65.3l.1.4m-34.5-17.2q8.2-3.65 8.35-3.65m1.9 0h1.55l1.5.2.2.1" fill="none" stroke="#5d5e61" stroke-linecap="round" stroke-linejoin="round" stroke-opacity=".702" stroke-width=".05"/><path d="m64.95 65.7 1.1 3.55-2.85 1.1-2.6.8L52.75 73l-4.75.8-6.25.7q-8.05.1-14.05-1.1m-.1 0-3.3-.8m-.1 0q-2.9-.75-5.25-1.75m-.3-.2-2.25-1.4-1.5-1.2 1.6-3.65q1.95-7.1 11-14.6l2.95-1.3m13.5-3.35 3.25 1.2q3.55 1.4 8.65 4.35 6.9 6 8.7 13.4l.3 1.2" fill="none" stroke="#000" stroke-linecap="round" stroke-linejoin="round" stroke-opacity=".6" stroke-width=".6"/><path d="m263.75 206.7-.9-4.15-4.05-10.7q14.7-14.85 29.55-15.15h.1l2.2 27.35q-18.3-4.4-26.9 2.65" fill="#4a495f" fill-rule="evenodd" transform="translate(-239.15 -150.95)"/><path d="M51.5 53.1q-18.3-4.4-26.9 2.65" fill="none" stroke="#5d5e61" stroke-linecap="round" stroke-linejoin="round" stroke-opacity=".702" stroke-width=".05"/><path d="m24.6 55.75-.9-4.15-4.05-10.7q14.7-14.85 29.55-15.15h.1l2.2 27.35z" fill="none" stroke="#000" stroke-linecap="round" stroke-linejoin="round" stroke-opacity=".6" stroke-width=".6"/><path d="M250.4 204.15q.95-3.05 2.05-5.65l4.4-4.75.65-4.6.9-1.05q4.6-5.85 10.7-8.45l.3-.3 1.9 1.8 4.55-3.1 2.4-.2 6.95.8.75.2 2.4 4.35 7.95 2.6-.8 15.55-4.05-6.15q-7.45-8.95-17.55-7.2-10.7 1.4-18.35 13.05-4.05 6.5-6.05 13.2l-.2-.6q.35-6.55 1.1-9.5" fill="#63627d" fill-rule="evenodd" transform="translate(-239.15 -150.95)"/><path d="m295.5 201.35.8-15.55 7.6-5.45-8.4 21" fill="#9392a9" fill-rule="evenodd" transform="translate(-239.15 -150.95)"/><path d="m296.3 185.8-7.95-2.6-2.4-4.35-.75-.2-6.95-.8-2.4.2-4.55 3.1-1.9-1.8-.3.3q-6.1 2.6-10.7 8.45l-.9 1.05-.65 4.6-4.4 4.75q-1.1 2.6-2.05 5.65 1.45-9.35 6.45-18.25 3.7-6.6 10.1-10.1 2.95-1.6 6.45-2.5l6.15-.8q9.85-.85 24.35 7.85l-7.6 5.45" fill="#c5c4d0" fill-rule="evenodd" transform="translate(-239.15 -150.95)"/><path d="m10.15 62.7.2.6" fill="none" stroke="#5d5e61" stroke-linecap="round" stroke-linejoin="round" stroke-opacity=".702" stroke-width=".05"/><path d="M11.25 53.2q-.75 2.95-1.1 9.5m.2.6q2-6.7 6.05-13.2 7.65-11.65 18.35-13.05 10.1-1.75 17.55 7.2l4.05 6.15m8.4-21q-14.5-8.7-24.35-7.85l-6.15.8q-3.5.9-6.45 2.5-6.4 3.5-10.1 10.1-5 8.9-6.45 18.25m53.5-23.8-8.4 21" fill="none" stroke="#000" stroke-linecap="round" stroke-linejoin="round" stroke-opacity=".6" stroke-width=".6"/><path d="m239.45 198.3 3.1-8.65 13.45.7-2.5 6.3-14.05 1.65" fill="#001f88" fill-rule="evenodd" transform="translate(-239.15 -150.95)"/><path d="m256 190.35-13.45-.7-.1-5.95 12.85 2.35.7 4.3" fill="#002fce" fill-rule="evenodd" transform="translate(-239.15 -150.95)"/><path d="m242.55 189.65-3.1 8.65v-6.05q2-7.75 3-8.55l.1 5.95" fill="#3c67ff" fill-rule="evenodd" transform="translate(-239.15 -150.95)"/><path d="m.3 47.35 14.05-1.65 2.5-6.3M3.3 32.75q-1 .8-3 8.55v6.05z" fill="none" stroke="#000" stroke-linecap="round" stroke-linejoin="round" stroke-opacity=".6" stroke-width=".6"/><path d="m247.8 177.85 2.15-6.65 12 10.1-.85 5.25-13.3-8.7" fill="#002fce" fill-rule="evenodd" transform="translate(-239.15 -150.95)"/><path d="m247.8 177.85 13.3 8.7-5 5.35-14.75-6.3 6.45-7.75" fill="#001f88" fill-rule="evenodd" transform="translate(-239.15 -150.95)"/><path d="m249.95 171.2-2.15 6.65-6.45 7.75 2.4-6.7q4.95-7.35 6.2-7.7" fill="#3c67ff" fill-rule="evenodd" transform="translate(-239.15 -150.95)"/><path d="M10.8 20.25q-1.25.35-6.2 7.7l-2.4 6.7" fill="none" stroke="#000" stroke-linecap="round" stroke-linejoin="round" stroke-opacity=".6" stroke-width=".6"/><path d="m262.45 160.95 8.05 14.65-3.55 5-10.35-13.45 5.85-6.2" fill="#002fce" fill-rule="evenodd" transform="translate(-239.15 -150.95)"/><path d="m266.95 180.6-8.35 3.9-13.2-11.65 11.2-5.7 10.35 13.45" fill="#001f88" fill-rule="evenodd" transform="translate(-239.15 -150.95)"/><path d="m245.4 172.85 6.1-6.05q9.3-5.9 10.95-5.85l-5.85 6.2-11.2 5.7" fill="#3c67ff" fill-rule="evenodd" transform="translate(-239.15 -150.95)"/><path d="m6.25 21.9 6.1-6.05q9.3-5.9 10.95-5.85" fill="none" stroke="#000" stroke-linecap="round" stroke-linejoin="round" stroke-opacity=".6" stroke-width=".6"/><path d="m277.65 174.5-6.2-17.8 5.5-4.45 3.9 18.1-3.2 4.15" fill="#002fce" fill-rule="evenodd" transform="translate(-239.15 -150.95)"/><path d="m271.45 156.7 6.2 17.8-9.25 2.75-9.2-16.3 12.25-4.25" fill="#001f88" fill-rule="evenodd" transform="translate(-239.15 -150.95)"/><path d="m271.45 156.7-12.25 4.25q1.5-3.1 5.85-5.1 4.3-2 11.9-3.6l-5.5 4.45" fill="#3c67ff" fill-rule="evenodd" transform="translate(-239.15 -150.95)"/><path d="M37.8 1.3q-7.6 1.6-11.9 3.6-4.35 2-5.85 5.1M38.5 23.55l3.2-4.15-3.9-18.1z" fill="none" stroke="#000" stroke-linecap="round" stroke-linejoin="round" stroke-opacity=".6" stroke-width=".6"/><path d="m288.7 155.35-.2 19.05-8.8-.25-1.9-19 10.9.2" fill="#001f88" fill-rule="evenodd" transform="translate(-239.15 -150.95)"/><path d="m288.7 155.35 4.8-3.65-3.1 20.1-1.9 2.6.2-19.05" fill="#002fce" fill-rule="evenodd" transform="translate(-239.15 -150.95)"/><path d="m293.5 151.7-4.8 3.65-10.9-.2q1.95-2.95 6.65-3.6 4.6-.65 9.05.15" fill="#3c67ff" fill-rule="evenodd" transform="translate(-239.15 -150.95)"/><path d="M54.35.75Q49.9-.05 45.3.6q-4.7.65-6.65 3.6" fill="none" stroke="#000" stroke-linecap="round" stroke-linejoin="round" stroke-opacity=".6" stroke-width=".6"/><path d="m49.35 23.45 1.9-2.6 3.1-20.1z" fill="none" stroke="#000" stroke-linecap="round" stroke-linejoin="round" stroke-opacity=".6" stroke-width=".6"/><path d="m305.75 162.15 4.75-.35-11.3 14.6-2.6.6 9.15-14.85" fill="#002fce" fill-rule="evenodd" transform="translate(-239.15 -150.95)"/><path d="m295.75 156.3 10 5.85L296.6 177l-8.35-4.15 7.5-16.55" fill="#001f88" fill-rule="evenodd" transform="translate(-239.15 -150.95)"/><path d="m310.5 161.8-4.75.35-10-5.85 6.9.95q7.5 3.35 7.85 4.55" fill="#3c67ff" fill-rule="evenodd" transform="translate(-239.15 -150.95)"/><path d="M57.45 26.05 49.1 21.9l7.5-16.55" fill="none" stroke="#000" stroke-linecap="round" stroke-linejoin="round" stroke-opacity=".6" stroke-width=".6"/><path d="M71.35 10.85Q71 9.65 63.5 6.3l-6.9-.95m.85 20.7 2.6-.6 11.3-14.6" fill="none" stroke="#000" stroke-linecap="round" stroke-linejoin="round" stroke-opacity=".6" stroke-width=".6"/><path d="m296.4 175.35-.8 7.55-14.25-5.15-.65-6.35 15.7 3.95" fill="#ffcf2b" fill-rule="evenodd" transform="translate(-239.15 -150.95)"/><path d="m261.65 178.05 2.75 5.35-12.45 13.85-3.45-3.85 13.15-15.35" fill="#d6ac24" fill-rule="evenodd" transform="translate(-239.15 -150.95)"/><path d="m280.7 171.4.65 6.35-16.95 5.65-2.75-5.35q9.65-3.4 19.05-6.65" fill="#e6b826" fill-rule="evenodd" transform="translate(-239.15 -150.95)"/><path d="m295.6 182.9.8-7.55 6-2.25-.85 6.8-5.95 3" fill="#fede98" fill-rule="evenodd" transform="translate(-239.15 -150.95)"/></g></defs></svg>