<svg viewBox="0 0 75.55 94.359" xmlns="http://www.w3.org/2000/svg" xmlns:xlink="http://www.w3.org/1999/xlink"><use transform="translate(0 -.03)" width="75.55" height="94.4" xlink:href="#a"/><defs><g id="a"><path d="M289.75 231.9q-5.75 1.65-12.35 2.35l28-20.15q3.7 2.25 5.3 5.1-2.6 4.15-9.3 7.85l-.8.5q-5 2.7-10.85 4.35m-50-7.1-.55-.9q2.55-4.3 9.15-8.15l1.75-.95q6.65-3.3 14.85-4.9l9.85-1.3q4.25-.3 8.15-.15l-43.2 16.35" fill="#2899a6" fill-rule="evenodd" transform="translate(-237.05 -153.3)"/><path d="M289.75 231.9q5.85-1.65 10.85-4.35l.8-.5q6.7-3.7 9.3-7.85l.7-1.2q.6-1.3.85-2.6v5.05q.15.9-1.2 5.45-1.3 4.5-6.95 10.35-4.95 4.95-6.55 5.4h-.5l-6 1.3-1.85.2q-10.05-2.85.55-11.25m-50.55-8-.35-.6q-.75-1.4-.95-2.95l-.15-1.4q0-.8.15-1.55.85-5.6 8-10.45l2.7-1.65q7.2-4.05 16.35-5.9v10.5q-8.2 1.6-14.85 4.9l-1.75.95q-6.6 3.85-9.15 8.15m61.4 3.65q-.3 3.35-1.4 6.2 1.1-2.85 1.4-6.2m1.65 4.55-3.05 1.65 3.05-1.65m-4.6 4.7q-2.45 3.65-6.6 6.15 4.15-2.5 6.6-6.15-3.15 1.4-6.25 2.85 3.1-1.45 6.25-2.85l5.55-2.55-5.55 2.55 1.55-3.05-4 2.15 4-2.15-1.55 3.05" fill="#35bfce" fill-rule="evenodd" transform="translate(-237.05 -153.3)"/><path d="M277.4 234.25q6.6-.7 12.35-2.35-10.6 8.4-.55 11.25l1.85-.2 6-1.3v.1q-.25.1-.45.25l-.35.25q.1.6-8.6 2.9-8.65 2.35-16 2.15l-8.35-.35-2.7-.6-5.55-1.2q-7.3-1.55-11.5-6.55-4.25-5.2-5.65-9.3v-8.95q.2 1.55.95 2.95l.35.6.55.9q2.65 3.55 8.85 6.15l1.5.45q10.6 4 25.1 2.95l2.2-.1m33.3-15.05q-1.6-2.85-5.3-5.1-1.95-1.2-4.35-2.2-7.85-3.2-18.1-3.45-3.9-.15-8.15.15l-9.85 1.3v-10.5l10.25-1.5q15.3-1.1 26.1 3.4h.1q8 3.35 10.25 8.25l.6 2v3.85q-.25 1.3-.85 2.6l-.7 1.2" fill="#16545a" fill-rule="evenodd" transform="translate(-237.05 -153.3)"/><path d="m305.4 214.1-28 20.15-2.2.1q-14.5 1.05-25.1-2.95l-1.5-.45q-6.2-2.6-8.85-6.15l43.2-16.35q10.25.25 18.1 3.45 2.4 1 4.35 2.2" fill="#1e747d" fill-rule="evenodd" transform="translate(-237.05 -153.3)"/><path d="M297.05 241.75v-.1h.25l-.25.1" fill="#ad0101" fill-rule="evenodd" transform="translate(-237.05 -153.3)"/><path d="m62.15 80.45 3.05-1.65m-4.6 4.7q-3.15 1.4-6.25 2.85m6.25-2.85 5.55-2.55m-4-.5-4 2.15" fill="none" stroke="#000" stroke-linecap="round" stroke-linejoin="round" stroke-opacity=".4" stroke-width=".05"/><path d="M62.15 80.45q1.1-2.85 1.4-6.2M54 89.65q4.15-2.5 6.6-6.15l1.55-3.05" fill="none" stroke="#000" stroke-linecap="round" stroke-linejoin="round" stroke-opacity=".4" stroke-width=".05"/><path d="M.85 67.05V76q1.4 4.1 5.65 9.3 4.2 5 11.5 6.55l5.55 1.2 2.7.6 8.35.35q7.35.2 16-2.15 8.7-2.3 8.6-2.9l.35-.25q.2-.15.45-.25M75.2 62.1v-3.85l-.6-2q-2.25-4.9-10.25-8.25h-.1q-10.8-4.5-26.1-3.4L27.9 46.1q-9.15 1.85-16.35 5.9l-2.7 1.65Q1.7 58.5.85 64.1q-.15.75-.15 1.55l.15 1.4M75.2 62.1v5.05q.15.9-1.2 5.45-1.3 4.5-6.95 10.35-4.95 4.95-6.55 5.4h-.25" fill="none" stroke="#000" stroke-linecap="round" stroke-linejoin="round" stroke-opacity=".6" stroke-width=".6"/><path d="M248.85 211.3q-.25-16.55 6.7-28.85 7.1-12.8 17.75-13.6 5.2-.4 9.75 2.2 9.25 21.45 4.15 46v.15q-1.05 5-2.75 10.2-16.2 4.75-34.55-4-.95-5.15-1.05-10.95v-1.15q3-4.65 6-8.35-3 3.7-6 8.35m5.4-13.05.6 4.7-.6-4.7m15.5-9.9q-4.95 2.95-10.35 8.95 5.4-6 10.35-8.95m-9.4 17.4-.95-8.45.95 8.45m-.95-8.45q-2.3 2.5-4.55 5.65 2.25-3.15 4.55-5.65l-.7-5.65.7 5.65m-4.2 9.15-.35-3.5.35 3.5m19.5 15.1 1.2-4.15 11.3-.35-11.3.35-1.2 4.15m2.85-9.9-1.65 5.75q-3.7-.95-7.55-3.15 3.85 2.2 7.55 3.15l1.65-5.75" fill="#28807d" fill-rule="evenodd" transform="translate(-237.05 -153.3)"/><path d="M283.05 171.05q4.7 2.75 8.7 8.7 7.75 11.65 8.15 28.95v.25l-.25 7.4-.25 3.4q-7.25 5.35-14.95 7.65 1.7-5.2 2.75-10.2v-.15q5.1-24.55-4.15-46m7.2 48.15.35-2.95q5.2-2.1 9.3-7.3-4.1 5.2-9.3 7.3l-.35 2.95m.7-5.2-.35 2.25-3.4.95 3.4-.95.35-2.25" fill="#35bfce" fill-rule="evenodd" transform="translate(-237.05 -153.3)"/><path d="m17.8 49.65.35 3.5" fill="none" stroke="#000" stroke-linecap="round" stroke-linejoin="round" stroke-opacity=".6" stroke-width=".05"/><path d="m17.8 49.65-.6-4.7m5.15-.95.95 8.45M22.35 44l-.7-5.65m9.65 22.6q3.85 2.2 7.55 3.15l1.65-5.75m9.65 5.4-11.3.35-1.2 4.15m12.5-4.35 3.4-.95.35-2.25m8.95-5.05q-4.1 5.2-9.3 7.3l-.35 2.95M11.8 58q3-4.65 6-8.35 2.25-3.15 4.55-5.65 5.4-6 10.35-8.95" fill="none" stroke="#000" stroke-linecap="round" stroke-linejoin="round" stroke-opacity=".4" stroke-width=".05"/><path d="M11.8 58q-.25-16.55 6.7-28.85 7.1-12.8 17.75-13.6 5.2-.4 9.75 2.2 4.7 2.75 8.7 8.7 7.75 11.65 8.15 28.95v.25" fill="none" stroke="#000" stroke-linecap="round" stroke-linejoin="round" stroke-opacity=".6" stroke-width=".6"/><path d="m74.95 61.75-.85 2.7-.7 1.2q-2.6 4.15-9.25 7.85-5.3 3.1-11.65 4.95-6.75 1.9-14.6 2.5Q23.4 82 12.85 78l-1.45-.6q-7.1-2.9-9.6-7.05l-.25-.6Q.8 68.4.6 66.95" fill="none" stroke="#ebdc76" stroke-linecap="round" stroke-linejoin="round" stroke-width="1.2"/><path d="M11.55 89.5q2.75 1.5 6.25 2.25L26 93.4l8.25.35q7.4.3 16.1-2 8.7-2.4 8.6-3.05" fill="none" stroke="#c5af1d" stroke-linecap="round" stroke-linejoin="round" stroke-width="1.2"/><path d="M277.65 194.75q-6.5-11.3-7.2-12.1l1.25-2.45q6.6 9.7 5.95 14.55m-8.4-17.8-1.35 3.35q-5.8-5.3-12.1-6.25-7.4-1.25-9.1-4.05-4.35-9.9-2.6-14.9l7.65 6.8q10.3 2.3 17.5 15.05" fill="#fefcc9" fill-rule="evenodd" transform="translate(-237.05 -153.3)"/><path d="M244.1 155.1q10.3-4.2 19 3.5 5.25 6.95 7.4 15.05l-1.25 3.3q-7.2-12.75-17.5-15.05l-7.65-6.8" fill="#ebdc76" fill-rule="evenodd" transform="translate(-237.05 -153.3)"/><path d="M34.65 26.9q6.6 9.7 5.95 14.55" fill="none" stroke="#9a7958" stroke-linecap="round" stroke-linejoin="round" stroke-width=".05"/><path d="M30.85 27q-5.8-5.3-12.1-6.25-7.4-1.25-9.1-4.05Q5.3 6.8 7.05 1.8q10.3-4.2 19 3.5 5.25 6.95 7.4 15.05" fill="none" stroke="#000" stroke-linecap="round" stroke-linejoin="round" stroke-opacity=".6" stroke-width=".6"/></g></defs></svg>