<svg viewBox="0 0 16.35 17.85" xmlns="http://www.w3.org/2000/svg" xmlns:xlink="http://www.w3.org/1999/xlink"><use width="16.35" height="17.85" xlink:href="#a"/><defs><g id="a"><path d="M276.65 200.55h-1.7l-2.1.3v-2.25l2.15-.3q3.25-.25 5.55.7h.05q1.65.7 2.15 1.75l.15.45v.8l-.2.55-.15.25q-.35-.6-1.1-1.05l-.95-.5q-1.65-.7-3.85-.7m-9.3 3.25.15.2q.55.75 1.85 1.3l.35.1q2.25.85 5.3.65l.5-.05 2.6-.5q-2.25 1.8-.1 2.4l1.65-.3h.05l-.15.05-.05.05-1.85.65-3.4.45-1.75-.1-.6-.1-1.15-.25q-1.6-.35-2.45-1.4-.95-1.1-1.2-2v-1.9l.2.65.05.1" fill="#ad0101" fill-rule="evenodd" transform="translate(-266.75 -191.15)"/><path d="m272.85 200.85 2.1-.3h1.7L267.5 204l-.15-.2q.55-.9 1.95-1.7l.4-.2q1.4-.75 3.15-1.05m8.6.9q.75.45 1.1 1.05l-1.95 1.7-2.5 1-2.6.5 5.95-4.25" fill="#d80101" fill-rule="evenodd" transform="translate(-266.75 -191.15)"/><path d="m282.55 202.8.15-.25.2-.55v-.8l.05.4-.05.4v1.1l-.25 1.15q-.3.95-1.5 2.2l-1.4 1.15h-.1l-1.65.3q-2.15-.6.1-2.4l2.5-1 1.95-1.7m-9.7-4.2v2.25q-1.75.3-3.15 1.05l-.4.2q-1.4.8-1.95 1.7l-.05-.1-.2-.65-.05-.3.05-.3q.15-1.2 1.7-2.25l.55-.35q1.55-.85 3.5-1.25m-5.75 6.35-.05-.1v-.45l.05-.05v.6" fill="red" fill-rule="evenodd" transform="translate(-266.75 -191.15)"/><path d="M276.65 200.55q2.2 0 3.85.7l.95.5-5.95 4.25-.5.05q-3.05.2-5.3-.65l-.35-.1q-1.3-.55-1.85-1.3l9.15-3.45" fill="#c60202" fill-rule="evenodd" transform="translate(-266.75 -191.15)"/><path d="M276.95 204.65q-3.5.8-7.35-.5l-.15-1.75q0-2.75 1.6-4.85 1.6-2.05 3.85-2.2l2.05.35q2.25 4 0 8.95" fill="#ad0101" fill-rule="evenodd" transform="translate(-266.75 -191.15)"/><path d="M276.95 195.7q.95.35 1.8 1.3 1.55 1.85 1.55 4.6l-.05 1.2-.1.55q-1.6.85-3.2 1.3 2.25-4.95 0-8.95" fill="red" fill-rule="evenodd" transform="translate(-266.75 -191.15)"/><path d="M277.2 196.25q-.9 1-2.2 1.1-1.25.05-2.2-.75-.9-.85-.9-2.15 0-1.25.9-2.25.95-.95 2.2-1 1.3-.1 2.2.65.9.9.9 2.15 0 1.3-.9 2.25" fill="#f90" fill-rule="evenodd" transform="translate(-266.75 -191.15)"/><path d="M272.75 192.2q.9-.95 2.15-1.05-.65.3-1.2.85-.9.95-.9 2.25 0 1.25.9 2.1.95.8 2.2.7l-.95.3q-1.3.1-2.2-.8-.9-.85-.9-2.1 0-1.3.9-2.25" fill="#ad6001" fill-rule="evenodd" transform="translate(-266.75 -191.15)"/><path d="M274.65 194.5q-.45-.4-.45-1t.45-1.1q.45-.4 1.05-.45t1.05.3q.45.45.45 1.05l-.45 1.05q-.45.5-1.05.55t-1.05-.4" fill="#f7e7b3" fill-rule="evenodd" transform="translate(-266.75 -191.15)"/><path d="m16.1 10.8-.2.55-.15.3q-.55.8-1.95 1.6l-2.5 1.05-3.1.6q-3.1.15-5.35-.65l-.3-.15q-1.5-.65-2-1.5l-.1-.1-.2-.65M2.6 16.7l1.3.45 1.8.35 1.75.1 3.4-.45 1.8-.65" fill="none" stroke="#f90" stroke-linecap="round" stroke-linejoin="round" stroke-width=".5"/><path d="M273.45 193.45h.05l.25-.45.15.5.05.05.45.1-.4.3v.05l-.05.05v.45l-.35-.25h-.1l-.45.15.15-.45v-.1l-.3-.35h.5l.05-.05M273.85 195.05h.05l.25-.45.15.5.05.05.45.1-.4.3v.05l-.05.05v.45l-.35-.25h-.1l-.45.15.15-.45v-.1l-.3-.35h.5l.05-.05" fill="#c00" fill-rule="evenodd" transform="translate(-266.75 -191.15)"/></g></defs></svg>