<svg viewBox="0 0 118.08 121.9" xmlns="http://www.w3.org/2000/svg" xmlns:xlink="http://www.w3.org/1999/xlink"><use transform="translate(.05)" width="118" height="121.85" xlink:href="#a"/><defs><g id="a"><path d="m244.45 182.75.6-8.35-.6 8.35q-1.25-5.1-3.3-4.05-4.7 2.95 2.9 13.3l.4-9.25M244 195.6l.05-3.6-.05 3.6q-9.05-10.15-8.7-24.8 5.3 1.7 9.75 3.6 3.3 1.45 6.15 3 0 5.25.15 10.1-.15-4.85-.15-10.1 2.65 1.4 4.9 2.95 1.9 6.75 4.1 13.3-2.2-6.55-4.1-13.3 6.3.45 10.25 15.1-6.05-9.35-6.15-1.8l1.85 5.4q-10.5-15.45-5.5 3.1 1.9 7.1 4.15 13.75 4.45-2.3 7.15 1.45-3.1-2.35-6.25 1.25 2.25 6.35 4.8 12.25 2.9-3.05 5.85-1.8-3.95.25-4.55 4.75 2.9 6.45 6.25 12.35 2.2-8.25 8.5-3.3l.15.3q4.85 8.2-6.8 6.25l-2.25-.45q-11.6-19.25-18.5-43.2l-2.9-3.75q-.4-4.85-.65-10.2l-.15-4.3q-1.25-6.05-4.05-3.25-.9 5.6-1.15 11.35l4.7 1.45-4.75.45q-.35 11.5 1.8 23.5 2.75 5.2 6.25 5.4-2.75 2-5.5-1.7 2.05 9.85 5.75 20.05 2.9.6 6.8-4 0 3.1-2.95 6.2-1.4.95-2.65 1-3.25.2-5.35-5.65-6.5-18.6-6.25-46.7m23.85 18.3 2.65 2.95 3.95-1.5-2.15 3.4q6.45 6.7 14.4 12.7 3.8 1.3 5.15-4.15 2.25 6.15-2.8 5.9-2.35-.1-6.2-1.55l-12.45-12-2.55-5.75m-11.3 14.3.95 3q-3.55 2.25-5.3.25 3 .5 4.35-3.25m-1.5-22.45q-1.95-6.8-3.55-13.95 1.6 7.15 3.55 13.95" fill="#960" fill-rule="evenodd" transform="translate(-177 -127.9)"/><path d="m244.45 182.75-.4 9.25q-7.6-10.35-2.9-13.3 2.05-1.05 3.3 4.05m16.75 58q-3.9 4.6-6.8 4-3.7-10.2-5.75-20.05 2.75 3.7 5.5 1.7-3.5-.2-6.25-5.4-2.15-12-1.8-23.5l4.75-.45-4.7-1.45q.25-5.75 1.15-11.35 2.8-2.8 4.05 3.25l.15 4.3q.25 5.35.65 10.2 1.3 15.65 4.4 26.2-1.35 3.75-4.35 3.25 1.75 2 5.3-.25 1.5 4.4 3.4 7.8l.3 1.75m-1-47.1q.1-7.55 6.15 1.8l1.4 5q-.1.25.45 3.3 2.6 10.65 22.65 21.25l1 2.3q-1.35 5.45-5.15 4.15-7.95-6-14.4-12.7l2.15-3.4-3.95 1.5-2.65-2.95q-3.1-7.3-5.8-14.85 2.7 7.55 5.8 14.85l2.55 5.75q5.45 12 12.05 23.2-6.3-4.95-8.5 3.3-3.35-5.9-6.25-12.35.6-4.5 4.55-4.75-2.95-1.25-5.85 1.8-2.55-5.9-4.8-12.25 3.15-3.6 6.25-1.25-2.7-3.75-7.15-1.45-2.25-6.65-4.15-13.75-5-18.55 5.5-3.1l-1.85-5.4" fill="#bb7e00" fill-rule="evenodd" transform="translate(-177 -127.9)"/><path d="m68.05 46.5-.6 8.35-.4 9.25-.05 3.6q-.25 28.1 6.25 46.7 2.1 5.85 5.35 5.65 1.25-.05 2.65-1 2.95-3.1 2.95-6.2M74.35 59.6q-.15-4.85-.15-10.1-2.85-1.55-6.15-3-4.45-1.9-9.75-3.6-.35 14.65 8.7 24.8m8.15 6.4q-.4-4.85-.65-10.2l-.15-4.3m8.85 6.15q-2.2-6.55-4.1-13.3-2.25-1.55-4.9-2.95m9 16.25 1.85 5.4q2.7 7.55 5.8 14.85m24 13.4-1-2.3Q93.8 86.5 91.2 75.85q-.55-3.05-.45-3.3l-1.4-5Q85.4 52.9 79.1 52.45m35.75 46.95q2.25 6.15-2.8 5.9-2.35-.1-6.2-1.55l-12.45-12q5.45 12 12.05 23.2l.15.3q4.85 8.2-6.8 6.25l-2.25-.45q-11.6-19.25-18.5-43.2l-2.9-3.75q1.3 15.65 4.4 26.2l.95 3q1.5 4.4 3.4 7.8l.3 1.75m9.2-21.1L90.85 86M74.5 63.9q1.6 7.15 3.55 13.95" fill="none" stroke="#000" stroke-linecap="round" stroke-linejoin="round" stroke-opacity=".498" stroke-width=".05"/><path d="M177 210.8q.9 3.65 3.15 4.4 1.1-4.85 2.4-9.25l-1.4-4.5 2 2.5q4.55-15.2 11-25 .2-1.65-3.25.95l4.1-4.85q.7-2.7 6.05-4.5l1.5-.4q-6.6 9.55-8.55 13.45-3.3 23.1-1.55 38.2t-4.1 7.2q-2.65-12.3-.85-31-3.2 8.65-3.8 16.35-2.7 4.05-4.35 4.45-2.6.7-2.35-8m17-27.2q-4.8 9.75-6.5 14.4 1.7-4.65 6.5-14.4" fill="#960" fill-rule="evenodd" transform="translate(-177 -127.9)"/><path d="M190.9 179.9q3.45-2.6 3.25-.95-6.45 9.8-11 25l-2-2.5 1.4 4.5q-1.3 4.4-2.4 9.25-2.25-.75-3.15-4.4l.05-1.8q4.9-17.4 13.85-29.1" fill="#bb7e00" fill-rule="evenodd" transform="translate(-177 -127.9)"/><path d="M0 82.9q-.25 8.7 2.35 8Q4 90.5 6.7 86.45q.6-7.7 3.8-16.35 1.7-4.65 6.5-14.4 1.95-3.9 8.55-13.45l-1.5.4q-5.35 1.8-6.05 4.5L13.9 52Q4.95 63.7.05 81.1L0 82.9m17-27.2q-3.3 23.1-1.55 38.2t-4.1 7.2q-2.65-12.3-.85-31" fill="none" stroke="#000" stroke-linecap="round" stroke-linejoin="round" stroke-opacity=".498" stroke-width=".05"/><path d="M202.6 133.8q19-7.15 27.2-5.6 9.65 1.8 14.75 3.25l13.7.45q7.6 1 13.65 3.25 10.35 10.4 6.7 23.15-17.8-12.25-39.15-18.45-1.15 2.75-6.9 4l-2.2-.85q4.3-.85 5.95-2.65-5.3 1.05-9.05.2v-1.3q3 .45 6.95-.8-14.95-3.75-31.6-4.65m91.3 25.8q1.65 7.4.85 16.75-1.55-2.4-1.65-2.1 1.15-7 .8-14.65" fill="#c00" fill-rule="evenodd" transform="translate(-177 -127.9)"/><path d="m294.75 176.35-.75 6.05q-3.95 12.75-14.4 18.05l-.15-3.1q13.8-8.15 13.65-23.1.1-.3 1.65 2.1M181.5 153q-.05-9.55 9.75-14.35l-6.6-.9.45-1.6q3.95 1.4 9.35.4t8.15-2.75q16.65.9 31.6 4.65-3.95 1.25-6.95.8v1.3q3.75.85 9.05-.2-1.65 1.8-5.95 2.65l2.2.85q5.75-1.25 6.9-4 21.35 6.2 39.15 18.45-6.1 10.15-19.15 11.1-18.7-10.45-54.6-14.5-1.75 3.3-4.9 4.75-3.2 1.45-.65-.3 2.55-1.8 3.45-4.2-11.1-1.6-21.25-2.15m10.35-11.5 8.45-3.4 4.5-.7-6.45.35q-3.55.6-6.75-.05l.9.8q1.55.5 3.4 0l-5.6 1.75 1.55 1.25" fill="#fc0" fill-rule="evenodd" transform="translate(-177 -127.9)"/><path d="m191.85 141.5-1.55-1.25 5.6-1.75q-1.85.5-3.4 0l-.9-.8q3.2.65 6.75.05l6.45-.35-4.5.7-8.45 3.4m67.6 27.9q13.05-.95 19.15-11.1 6.1 3.7 14.5 15.95.15 14.95-13.65 23.1-.1-.1-.25.15-3.2-18.8-19.75-28.1" fill="#d7ac00" fill-rule="evenodd" transform="translate(-177 -127.9)"/><path d="M279.6 200.45q-5 2.5-11.4 3.3-.55-3.05-.45-3.3 7.85.35 11.45-2.95.15-.25.25-.15l.15 3.1m-76.95-30.4-1.6.5q-5.35 1.8-6.05 4.5-13.5-13.55-13.5-22.05 10.15.55 21.25 2.15-.9 2.4-3.45 4.2-2.55 1.75.65.3 3.15-1.45 4.9-4.75 35.9 4.05 54.6 14.5l-10.8-.45q-18.1-5.25-43.45.55l-2.55.55" fill="#acc840" fill-rule="evenodd" transform="translate(-177 -127.9)"/><path d="m267.75 200.45-1.4-5q-3.95-14.65-10.25-15.1-2.25-1.55-4.9-2.95-2.85-1.55-6.15-3-4.45-1.9-9.75-3.6l-5.7-1.7q-16.1-1.15-24.4.4 25.35-5.8 43.45-.55l10.8.45q16.55 9.3 19.75 28.1-3.6 3.3-11.45 2.95" fill="#7a8e28" fill-rule="evenodd" transform="translate(-177 -127.9)"/><path d="M271.9 135.15q18 6.7 22 24.45.35 7.65-.8 14.65-8.4-12.25-14.5-15.95 3.65-12.75-6.7-23.15" fill="#a60000" fill-rule="evenodd" transform="translate(-177 -127.9)"/><path d="M25.6 5.9q19-7.15 27.2-5.6 9.65 1.8 14.75 3.25l13.7.45q7.6 1 13.65 3.25 18 6.7 22 24.45 1.65 7.4.85 16.75L117 54.5q-3.95 12.75-14.4 18.05-5 2.5-11.4 3.3M58.3 42.9l-5.7-1.7q-16.1-1.15-24.4.4l-2.65.65.1-.1-1.6.5M18 47.15Q4.5 33.6 4.5 25.1q-.05-9.55 9.75-14.35m3.2-2.1q5.4-1 8.15-2.75m2.6 35.7-2.55.55" fill="none" stroke="#000" stroke-linecap="round" stroke-linejoin="round" stroke-opacity=".498" stroke-width=".05"/></g></defs></svg>