<svg viewBox="0 0 182.37 142.74" xmlns="http://www.w3.org/2000/svg" xmlns:xlink="http://www.w3.org/1999/xlink"><use transform="translate(.03 .03)" width="182.3" height="142.7" xlink:href="#a"/><defs><linearGradient id="b" x1="-819.2" x2="819.2" gradientTransform="matrix(.0416 .0508 -.0642 .0527 296.05 276.75)" gradientUnits="userSpaceOnUse"><stop stop-color="#fc3" offset="0"/><stop stop-color="#f7983c" offset="1"/></linearGradient><g id="a"><path d="m142.95 138.75-57.1-25.9-74.9 12.9" fill="none" stroke="#000" stroke-linecap="round" stroke-linejoin="round" stroke-opacity=".431" stroke-width=".05"/><path d="M183.8 244.35q26.3-18.85 31.95-48 14.35-12.15 27.7-18.5 63.1 18.15 22.2 41.8 37.9 16.75 22.2 38.05-28.75 8.35-104.05-13.35" fill="#ffe682" fill-rule="evenodd" transform="translate(-183.8 -128.6)"/><path d="M243.45 177.85q43.45-20.9 75.6 19.65 15 18.85 17.35 36.65 4.15 36.2-9.65 33.2-65.8 12.1-132-13-11.05-3.15-10.95-10 75.3 21.7 104.05 13.35 15.7-21.3-22.2-38.05 40.9-23.65-22.2-41.8" fill="url(#b)" fill-rule="evenodd" transform="translate(-183.8 -128.6)"/><path d="M0 115.75q26.3-18.85 31.95-48 14.35-12.15 27.7-18.5 43.45-20.9 75.6 19.65 15 18.85 17.35 36.65 4.15 36.2-9.65 33.2m-132-13Q-.1 122.6 0 115.75" fill="none" stroke="#333" stroke-linecap="round" stroke-linejoin="round" stroke-opacity=".451" stroke-width=".05"/><path d="M142.95 138.75q-65.8 12.1-132-13" fill="none" stroke="#333" stroke-linecap="round" stroke-linejoin="round" stroke-opacity=".451" stroke-width=".05"/><path d="M304.15 193.75q-5.45-2.95-11.4-5.8l3.55-.95-.1-.35q8.35 1.8 15.55 4.4l-7.6 2.7 11-1.35q18.8 7.6 29.05 21.15 1.6 3.55 1.3 5.6-6.7 1.5-14.2-7.3-11.25-9.45-27.15-18.1" fill="#ffe682" fill-rule="evenodd" transform="translate(-183.8 -128.6)"/><path d="M292.75 187.95q5.95 2.85 11.4 5.8 15.9 8.65 27.15 18.1 7.5 8.8 14.2 7.3-.6 3.85-7.95 2.45-28.4-10.1-48.2-32.75l3.4-.9" fill="#fc3" fill-rule="evenodd" transform="translate(-183.8 -128.6)"/><path d="m120.35 65.15 7.6-2.7q-7.2-2.6-15.55-4.4m-6.85 2.2q19.8 22.65 48.2 32.75 7.35 1.4 7.95-2.45m-41.35-25.4 11-1.35q18.8 7.6 29.05 21.15 1.6 3.55 1.3 5.6" fill="none" stroke="#000" stroke-linecap="round" stroke-linejoin="round" stroke-opacity=".2" stroke-width=".05"/><path d="m262.4 173.95 3.8-3.5q6.15-5.6 12.75-9.7l-.45 8.7 3.8-10.65q19.15-10.75 41.4-9.45 5.3 1.25 7.7 3.05-1.5 6.95-16.4 6.9-17.55 2.7-36.5 10.15-5.15 2-10.35 4.35l-4.6 2.1-1.15-1.95" fill="#ffe682" fill-rule="evenodd" transform="translate(-183.8 -128.6)"/><path d="M331.4 152.4q4.55 3.4-.95 8.75-24.95 15.8-59.55 17.35l-5.75.15-1.6-2.75 4.6-2.1q5.2-2.35 10.35-4.35Q297.45 162 315 159.3q14.9.05 16.4-6.9" fill="#fc3" fill-rule="evenodd" transform="translate(-183.8 -128.6)"/><path d="m78.6 45.35 3.8-3.5q6.15-5.6 12.75-9.7l-.45 8.7 3.8-10.65q19.15-10.75 41.4-9.45 5.3 1.25 7.7 3.05 4.55 3.4-.95 8.75Q121.7 48.35 87.1 49.9l-5.75.15" fill="none" stroke="#000" stroke-linecap="round" stroke-linejoin="round" stroke-opacity=".2" stroke-width=".05"/><path d="M259.75 173.9q3.1-8 7.25-14.9l2.55 6.1-.7-9q10.65-16.3 27.7-25.95 4.35-1.65 6.8-1.55 1.2 5.4-9.9 12.4-12.25 10.1-23.9 24.1-4.6 5.45-9.05 11.5l-.75-2.7" fill="#ffe682" fill-rule="evenodd" transform="translate(-183.8 -128.6)"/><path d="M303.35 128.6q4.55.15 2.2 6.35-14.8 25-44.5 43.7l-.55-2.05q4.45-6.05 9.05-11.5 11.65-14 23.9-24.1 11.1-7 9.9-12.4" fill="#fc3" fill-rule="evenodd" transform="translate(-183.8 -128.6)"/><path d="M75.95 45.3q3.1-8 7.25-14.9l2.55 6.1-.7-9q10.65-16.3 27.7-25.95Q117.1-.1 119.55 0q4.55.15 2.2 6.35-14.8 25-44.5 43.7" fill="none" stroke="#000" stroke-linecap="round" stroke-linejoin="round" stroke-opacity=".2" stroke-width=".05"/><path d="M257.4 218.4q11.85-14.2 25.95-8-12.95-1-25.95 8M225.95 220.5q-6.7-14.2-14.65-8 7.3-1 14.65 8" fill="#333" fill-rule="evenodd" transform="translate(-183.8 -128.6)"/><path d="M281.85 217.15q7.55 0 12.9 3.05 5.35 3.1 5.35 7.45t-5.35 7.4q-5.35 3.1-12.9 3.1t-12.9-3.1q-5.35-3.05-5.35-7.4t5.35-7.45q5.35-3.05 12.9-3.05M209.6 217.15q5.75 0 9.85 3.05 4.05 3.1 4.05 7.45t-4.05 7.4q-4.1 3.1-9.85 3.1-5.7 0-9.8-3.1-4.05-3.05-4.05-7.4t4.05-7.45q4.1-3.05 9.8-3.05" fill="#f60" fill-opacity=".541" fill-rule="evenodd" transform="translate(-183.8 -128.6)"/><path d="M365.5 194.15q-5.95 5.25-21.6-2.3-20.25-6.5-44.9-9.65l-17.05-1.75 6.8-3.95-.15-.2 16.3-1.4-5.9 7.3 10.65-7.3q26.85.4 49.6 12.7 4.8 3.75 6.25 6.55" fill="#ffe682" fill-rule="evenodd" transform="translate(-183.8 -128.6)"/><path d="m277.85 182.75 4.1-2.3L299 182.2q24.65 3.15 44.9 9.65 15.65 7.55 21.6 2.3 2.7 5.25-6.4 7.1-39.85 1.2-81.25-18.5" fill="#fc3" fill-rule="evenodd" transform="translate(-183.8 -128.6)"/><path d="M94.05 54.15q41.4 19.7 81.25 18.5 9.1-1.85 6.4-7.1M104.8 47.7l16.3-1.4-5.9 7.3 10.65-7.3q26.85.4 49.6 12.7 4.8 3.75 6.25 6.55" fill="none" stroke="#000" stroke-linecap="round" stroke-linejoin="round" stroke-opacity=".2" stroke-width=".05"/></g></defs></svg>