<svg viewBox="0 0 31.05 13.855" xmlns="http://www.w3.org/2000/svg" xmlns:xlink="http://www.w3.org/1999/xlink"><use transform="translate(.02 .03)" width="31" height="13.8" xlink:href="#a"/><defs><g id="a"><path d="M285.5 201.85h.1l.6.3-.5-.25h-.05l-.15-.05m-20.65-3.25v.05l-.6.05.6-.1" fill="#930" fill-rule="evenodd" transform="translate(-259.45 -193.55)"/><path d="m281.6 204.7-1.1-1.25 4.2 3.4-3.1-2.15m-19.6-2 2.5-.75-.9.5-1.6.25" fill="#642100" fill-rule="evenodd" transform="translate(-259.45 -193.55)"/><path d="M264.1 198.75h-.3l.1-.05.2.05" fill="#c90" fill-rule="evenodd" transform="translate(-259.45 -193.55)"/><path d="M275.7 196.35h.15q3.95 2.5 7.65 4.4l2.1 1.1h-.1l.65.3.1.05.15.1h.2l.15.15.15.05q1.95 1.35 1.8 2.4l-.65.9 2.4 1.1-.5.45-2.55-1.2q-.9.45-2.7.7l-4.2-3.4 1.1 1.25 1.9 2.3-2.95.05-.55-.9.05.95-5.85-.6-6-1.3h-.05q-3.15-2.75-3.45-4.3l11-4.55" fill="#dccc94" fill-rule="evenodd" transform="translate(-259.45 -193.55)"/><path d="m275.7 196.35-11 4.55q.3 1.55 3.45 4.3l-.85-.3-.7.75-.55-.05.75-.8-2.25-.95-1.8-.85.85-.55.9-.5-2.5.75-1.9.6-.45-.4 2.2-.55-.85-1-.1-.95q.2-.6 1.15-1.05l-2.6.25.65-.35 3.7-.5h.3l.35-.05.4-.05v-.05l2.2-.4 8.65-1.85" fill="#d0bb71" fill-rule="evenodd" transform="translate(-259.45 -193.55)"/><path d="m26.15 8.3-2.1-1.1q-3.7-1.9-7.65-4.4h-.15L7.6 4.65l-2.2.4m15.2 8.5-.05-.95.55.9m2.95-.05-1.9-2.3-1.1-1.25 4.2 3.4-3.1-2.15m5.8 1.45 2.55 1.2.5-.45-2.4-1.1m-1.15-3.3-.15-.05-.15-.15m-.05 0h-.15m-.8-.45.6.3.4.15m-.4-.15-.5-.25h-.05l-.15-.05M5.4 5.1l-.4.05-.35.05m-3.2 1.65.1.95m.85 1-2.2.55.45.4 1.9-.6 2.5-.75-.9.5-.85.55m4.05 1.8-.75.8.55.05.7-.75M5.4 5.1l-.6.05-.15.05m-2.1 3.95 1.6-.25m22.6-.3.2.15" fill="none" stroke="#000" stroke-linecap="round" stroke-linejoin="round" stroke-opacity=".498" stroke-width=".05"/><path d="m8.75 11.65 6 1.3 5.85.6m.5-.05 2.95-.05m1.2-.15q1.8-.25 2.7-.7m.65-.35.65-.9q.15-1.05-1.8-2.4m-.3-.2h-.05m-.15 0-.15-.1-.1-.05-.65-.3M2.6 5.8q-.95.45-1.15 1.05m.1.95.85 1m.9.65 1.8.85 2.25.95m.5.1.85.3" fill="none" stroke="#000" stroke-linecap="round" stroke-linejoin="round" stroke-opacity=".498" stroke-width=".05"/><path d="M4.65 5.2h-.3l-3.7.5-.65.35 2.6-.25" fill="none" stroke="#000" stroke-linecap="round" stroke-linejoin="round" stroke-opacity=".498" stroke-width=".05"/><path d="m273.2 198.95.8.05-2.2 3.95-.85-.3 2.25-3.7" fill="#d5c180" fill-rule="evenodd" transform="translate(-259.45 -193.55)"/><path d="m275.9 202.1.75-.25-7.3-1.65-.65.35 7.2 1.55M273.6 200.8l.9-.1-8.05-2.3-.8.2 7.95 2.2" fill="#d5c180" fill-rule="evenodd" transform="translate(-259.45 -193.55)"/><path d="m276.35 201.4.8.05-2.2 3.95-.85-.3 2.25-3.7" fill="#d5c180" fill-rule="evenodd" transform="translate(-259.45 -193.55)"/><path d="m279.1 204.55.75-.25-7.3-1.65-.65.35 7.2 1.55M276.8 203.3l.9-.1-8.05-2.3-.8.2 7.95 2.2" fill="#d5c180" fill-rule="evenodd" transform="translate(-259.45 -193.55)"/><path d="m270 200.9.8.1-3.75 3.45-.85-.3 3.8-3.25M271.6 201.8l.8.05-2.2 3.95-.85-.3 2.25-3.7" fill="#d5c180" fill-rule="evenodd" transform="translate(-259.45 -193.55)"/><path d="M285.45 201.85h-.05.05" fill="#360" fill-rule="evenodd" transform="translate(-259.45 -193.55)"/><path d="M285.4 201.85q.35.95-2.25 1.3l-8.2-.55q-3.4-.5-5.7-1.2l-2.4-.8-.6-.3q-1.9-.9-1.55-1.6v-.1l.95-.15 1.25-.2.05-.05q-.3.65.8 1.15l2.8 1 .35.1 4.1.85 7.55.35q1.15-.1.85-.85l2.05 1.05h-.05" fill="red" fill-rule="evenodd" transform="translate(-259.45 -193.55)"/><path d="m264.7 198.6 2.25-.4q-.3.65.8 1.15l.25.15-1.85.8q-1.8-.95-1.45-1.6v-.1" fill-opacity=".302" fill-rule="evenodd" transform="translate(-259.45 -193.55)"/><path d="m274.35 205 .75-.25-7.3-1.65-.65.35 7.2 1.55M272.05 203.7l.9-.1-8.05-2.3-.8.2 7.95 2.2" fill="#d5c180" fill-rule="evenodd" transform="translate(-259.45 -193.55)"/><path d="M277.45 195.1q.4-1.65 1.25-1.3.8.3.4 2.05-.7-.5-1.65-.75" fill-rule="evenodd" transform="translate(-259.45 -193.55)"/><path d="M18 1.55q.4-1.65 1.25-1.3.8.3.4 2.05" fill="none" stroke="#000" stroke-linecap="round" stroke-linejoin="round" stroke-opacity=".498" stroke-width=".05"/><path d="m274 194.5 1.35-.15h.8l1.05.3q.75.2 1.3.6 2.2 1.35 2.35 4.4l-5.55.15q-5.35-1.05-5.2-1.8 1.05-2.85 3.9-3.5" fill="red" fill-rule="evenodd" transform="translate(-259.45 -193.55)"/><path d="M15.9.8h.8l1.05.3m1.3.6q2.2 1.35 2.35 4.4M10.65 4.45q1.05-2.85 3.9-3.5M14.55.95 15.9.8m1.85.3q.75.2 1.3.6" fill="none" stroke="#000" stroke-linecap="round" stroke-linejoin="round" stroke-opacity=".498" stroke-width=".05"/><path d="M275.75 195.15q.15-1.7-.75-1.6-.8.05-.95 1.85l1.7-.25" fill-rule="evenodd" transform="translate(-259.45 -193.55)"/><path d="M16.3 1.6q.15-1.7-.75-1.6-.8.05-.95 1.85" fill="none" stroke="#000" stroke-linecap="round" stroke-linejoin="round" stroke-opacity=".498" stroke-width=".05"/><path d="m276.3 195.8 1.3-.1q.55.2.75.85t-.2 1.35q-.35.75-1 1.1l-1.3.1q-.65-.15-.75-.85-.2-.7.2-1.35.35-.75 1-1.1m.95 1.25q-.1-.25-.35-.25l-.4.15q-.25.1-.3.35l.1.45.3.2.45-.1.3-.4-.1-.4" fill-rule="evenodd" transform="translate(-259.45 -193.55)"/><path d="m277.25 197.05.1.4-.3.4-.45.1-.3-.2-.1-.45q.05-.25.3-.35l.4-.15q.25 0 .35.25" fill="#fff" fill-rule="evenodd" transform="translate(-259.45 -193.55)"/><path d="M279.25 197.15q-.1-.65.3-1.1 1 1.45 1.25 2.85l-.8-.45q-.6-.55-.75-1.3M279.4 199.1l-.45.2-.55-.05-.25-.4.1-.35q.25-.2.55-.25l.45.1q.3.1.35.3l-.2.45" fill-rule="evenodd" transform="translate(-259.45 -193.55)"/><path d="M272.7 197.25q-.6 1.7 2.25 2.45-4.95-.95-4.85-1.7 1.05-2.85 3.9-3.5l1.35-.15h.8q-2.6.8-3.45 2.9" fill-opacity=".302" fill-rule="evenodd" transform="translate(-259.45 -193.55)"/></g></defs></svg>