<svg viewBox="0 0 122 50" xmlns="http://www.w3.org/2000/svg" xmlns:xlink="http://www.w3.org/1999/xlink"><use width="122" height="50" xlink:href="#a"/><defs><path d="M164 161q0-10.35 17.85-17.7 17.9-7.3 43.15-7.3t43.1 7.3Q286 150.65 286 161t-17.9 17.65Q250.25 186 225 186t-43.15-7.35Q164 171.35 164 161m17.6-2.5q0 7.25 12.5 12.35 12.55 5.15 30.2 5.15 17.7 0 30.2-5.15 12.5-5.1 12.5-12.35t-12.5-12.4Q242 141 224.3 141q-17.65 0-30.2 5.1-12.5 5.15-12.5 12.4" fill="#ffc" fill-rule="evenodd" transform="translate(-164 -136)" id="a"/></defs></svg>