<svg viewBox="0 0 143.53 139.08" xmlns="http://www.w3.org/2000/svg" xmlns:xlink="http://www.w3.org/1999/xlink"><use transform="translate(.027 .019)" width="143.5" height="139.05" xlink:href="#a"/><defs><g id="a"><path d="M157.75 97.3q1.35-3.3 4.15-4.15 3.25-.9 6.5 2.05 3.25 3 4.6 8.1l.65 3.85q-4.95 4.2-9.85-.65l-6.05-9.2" fill="#e8d397" fill-rule="evenodd" transform="translate(-71.85 -9.55)"/><path d="m157.75 97.3 6.05 9.2q4.9 4.85 9.85.65.35 3.3.3 7.3-.1 3.95-2.85 1.75.5 3.6-.6 3.95-1.2.3-3.5-2.05-1.75 4.3-4.95-.45-3.25-4.8-4.6-9.85-1.35-5.15 0-9.4l.3-1.1m13.35 18.9-2.7-5.4 2.7 5.4m-4.1 1.9-3.2-6.35 3.2 6.35" fill="#d2b46c" fill-rule="evenodd" transform="translate(-71.85 -9.55)"/><path d="m101.8 97.6-.65-3.85q-1.35-5.1-4.6-8.1-3.25-2.95-6.5-2.05-2.8.85-4.15 4.15m15.9 9.85q.35 3.3.3 7.3-.1 3.95-2.85 1.75.5 3.6-.6 3.95-1.2.3-3.5-2.05-1.75 4.3-4.95-.45-3.25-4.8-4.6-9.85-1.35-5.15 0-9.4l.3-1.1m6.05 14.45 3.2 6.35m1.4-7.3 2.7 5.4" fill="none" stroke="#5a401d" stroke-linecap="round" stroke-linejoin="round" stroke-opacity=".341" stroke-width=".05"/><path d="M127.7 118.1q.25-1.15.8-2.2 1.9-3.3 5.9-4.15 3.9-.95 7.6 1.1 3.7 2.1 4.95 5.9l.15.45-2.05 3.05q-2.45 1.1-4.6 1.4-3.1.55-5.75-.45l-7-5.1M143 120l2.05 2.25L143 120" fill="#e8d397" fill-rule="evenodd" transform="translate(-71.85 -9.55)"/><path d="m127.7 118.1 7 5.1q2.65 1 5.75.45 2.15-.3 4.6-1.4l2.05-3.05q4.15 4.9 0 5.1l-2.05-2.05 2.05 2.05.35 2.7q.05 1.7-3.35 1.45 1.1 2.75-2.55 3t-7.95-2.2q-4.4-2.45-5.7-6.2-.85-2.6-.2-4.95m12.75 5.55 3.65 4.8-3.65-4.8" fill="#d2b46c" fill-rule="evenodd" transform="translate(-71.85 -9.55)"/><path d="m75.25 109.65-.15-.45q-1.25-3.8-4.95-5.9-3.7-2.05-7.6-1.1-4 .85-5.9 4.15-.55 1.05-.8 2.2-.65 2.35.2 4.95 1.3 3.75 5.7 6.2 4.3 2.45 7.95 2.2t2.55-3l-3.65-4.8m4.6-1.4-2.05-2.25m2.05 2.25 2.05 2.05q4.15-.2 0-5.1m-3 9.25q3.4.25 3.35-1.45l-.35-2.7" fill="none" stroke="#5a401d" stroke-linecap="round" stroke-linejoin="round" stroke-opacity=".341" stroke-width=".05"/><path d="m97.1 108.6-3.85 3.5v5.4q-2.85 3.2-4.1-2.2 0 6.65-3.5 5.05-5.4 3.5-5.4-.95-.35-2.85 2.55-3.8-5.75 2.25-2.9-4.15-2.2-5.05 0-6.95 1.3 0 3.2.95 2.25-2.25 4.75-2.9 2.55-.95 3.85 2.25 4.1-1.6 4.75.65l.3 3.15h.35" fill="#f8eec7" fill-rule="evenodd" transform="translate(-71.85 -9.55)"/><path d="M79.9 104.5q-2.2 1.9 0 6.95-2.85 6.4 2.9 4.15-2.9.95-2.55 3.8 0 4.45 5.4.95 3.5 1.6 3.5-5.05 1.25 5.4 4.1 2.2v-5.4l3.85-3.5q2.55 2.85 2.55 7.3 0 4.8-3.5 8.3t-8.3 3.8q-2.5 0-4.75-.95-4.15 1.9-4.45-.3-.3-2.25 0-3.5-6.35 0-2.55-6.05l-3.5-1.3q-2.85-.95 5.1-5.7-1.3-3.5-.3-5.1.6-.95 2.5-.6" fill="#e8d397" fill-rule="evenodd" transform="translate(-71.85 -9.55)"/><path d="M25.25 99.05h-.35l-.3-3.15q-.65-2.25-4.75-.65-1.3-3.2-3.85-2.25-2.5.65-4.75 2.9-1.9-.95-3.2-.95-1.9-.35-2.5.6-1 1.6.3 5.1-7.95 4.75-5.1 5.7l3.5 1.3q-3.8 6.05 2.55 6.05-.3 1.25 0 3.5.3 2.2 4.45.3 2.25.95 4.75.95 4.8-.3 8.3-3.8t3.5-8.3q0-4.45-2.55-7.3z" fill="none" stroke="#5a401d" stroke-linecap="round" stroke-linejoin="round" stroke-opacity=".341" stroke-width=".05"/><path d="m92.65 132.95-.8-3.5q-2.5-12.8 2.85-26.55 5.35-13.8 15.45-20.5 2.6-1.8 9.2-4l2.55-.15q3.65.05 7.15 1.75l1.75 1.1q-.55 6.9-4.2 25.75-3.7 18.85-26 26.1h-7.95" fill="#e8d397" fill-rule="evenodd" transform="translate(-71.85 -9.55)"/><path d="M130.8 81.1q2.3 1.35 4.15 3.35 2.7 3.3 4.3 8.1 11.45 20.25-11.5 36.55-23 16.25-31.9 10.7-2-2.95-3.2-6.85h7.95q22.3-7.25 26-26.1 3.65-18.85 4.2-25.75" fill="#d2b46c" fill-rule="evenodd" transform="translate(-71.85 -9.55)"/><path d="m20.8 123.4-.8-3.5q-2.5-12.8 2.85-26.55 5.35-13.8 15.45-20.5 2.6-1.8 9.2-4l2.55-.15q3.65.05 7.15 1.75l1.75 1.1q2.3 1.35 4.15 3.35 2.7 3.3 4.3 8.1M24 130.25q-2-2.95-3.2-6.85M67.4 83q11.45 20.25-11.5 36.55-23 16.25-31.9 10.7" fill="none" stroke="#5a401d" stroke-linecap="round" stroke-linejoin="round" stroke-opacity=".341" stroke-width=".05"/><path d="M125.9 108.7q-5.1 4.85-9.85-.75L110 97.15q1.25-3.7 4.15-4.85 3.15-1.1 6.65 2.6 3.2 3.35 4.45 9.35.65 2.2.65 4.45" fill="#f8eec7" fill-rule="evenodd" transform="translate(-71.85 -9.55)"/><path d="m110 97.15 6.05 10.8q4.75 5.6 9.85.75l.3 8.55q0 4.5-2.85 2.25.65 4.1-.65 4.45-1.25.4-3.5-2.2-1.55 4.8-4.75-.75-3.5-5.6-4.75-11.55-1.3-5.95 0-10.8 0-.75.3-1.5m6.05 17.15 3.15 7.45-3.15-7.45m7.3 5.2-2.55-6.35 2.55 6.35" fill="#e8d397" fill-rule="evenodd" transform="translate(-71.85 -9.55)"/><path d="M54.05 99.15q0-2.25-.65-4.45-1.25-6-4.45-9.35-3.5-3.7-6.65-2.6-2.9 1.15-4.15 4.85-.3.75-.3 1.5-1.3 4.85 0 10.8 1.25 5.95 4.75 11.55 3.2 5.55 4.75.75l-3.15-7.45m9.85-5.6.3 8.55q0 4.5-2.85 2.25.65 4.1-.65 4.45-1.25.4-3.5-2.2m1.6-8.6 2.55 6.35" fill="none" stroke="#5a401d" stroke-linecap="round" stroke-linejoin="round" stroke-opacity=".341" stroke-width=".05"/><path d="M143.5 61.55q1.6-.65 3.8-.95 13.05-2.2 23.85 4.45 6.7 3.8 9.85 9.85 2.25 3.5 2.9 8.3l.3 4.45-.3 4.1q-1.3 6.7-6.05 12.75l-4.8 4.75q-12.05 7.3-26.7 4.45-16.5-2.85-15.55-21.6.3-4.8 1.25-8.9 2.55-12.75 11.45-21.65" fill="#f8eec7" fill-rule="evenodd" transform="translate(-71.85 -9.55)"/><path d="M173.05 109.25q-2.85 2.2-6 3.8-4.8 2.25-10.2 3.2l-10.8.3q-7-.95-13.05-4.45-10.8-6.65-12.7-18.1-2.25-11.45 5.7-21.3 6.7-8.3 17.5-11.15-8.9 8.9-11.45 21.65-.95 4.1-1.25 8.9-.95 18.75 15.55 21.6 14.65 2.85 26.7-4.45" fill="#e8d397" fill-rule="evenodd" transform="translate(-71.85 -9.55)"/><path d="M71.65 52q1.6-.65 3.8-.95 13.05-2.2 23.85 4.45 6.7 3.8 9.85 9.85 2.25 3.5 2.9 8.3l.3 4.45-.3 4.1q-1.3 6.7-6.05 12.75l-4.8 4.75q-2.85 2.2-6 3.8-4.8 2.25-10.2 3.2l-10.8.3q-7-.95-13.05-4.45-10.8-6.65-12.7-18.1-2.25-11.45 5.7-21.3 6.7-8.3 17.5-11.15z" fill="none" stroke="#5a401d" stroke-linecap="round" stroke-linejoin="round" stroke-opacity=".341" stroke-width=".05"/><path d="M162.9 91.1q0 4.15-2.85 7.35-2.85 3.15-7 3.15-4.45 0-7.3-2.85-3.2-3.2-2.9-7.3-.3-4.45 2.9-7.65 2.85-3.15 7.3-3.15 4.15 0 7 2.85 2.85 3.15 2.85 7.6" fill="#fff" fill-rule="evenodd" transform="translate(-71.85 -9.55)"/><path d="M91.05 81.55q0 4.15-2.85 7.35-2.85 3.15-7 3.15-4.45 0-7.3-2.85-3.2-3.2-2.9-7.3-.3-4.45 2.9-7.65 2.85-3.15 7.3-3.15 4.15 0 7 2.85 2.85 3.15 2.85 7.6z" fill="none" stroke="#5a401d" stroke-linecap="round" stroke-linejoin="round" stroke-opacity=".341" stroke-width=".05"/><path d="M156.55 93.35q-.95.95-2.25.95-1.25 0-2.2-.95-.95-.65-.95-1.9 0-1.3.95-1.9.95-.95 2.2-.95 1.3-.35 2.25.6t.95 2.25q0 .95-.95 1.9" fill="#620000" fill-rule="evenodd" transform="translate(-71.85 -9.55)"/><path d="M182.95 76.5q2.5 2.85 2.5 7.3t-2.5 7.3q-2.55 3.2-6.05 3.5-3.85 0-6.35-3.15-2.55-2.85-2.25-7.3-.3-4.45 2.25-7.65 2.5-2.85 6.35-2.85 3.5-.35 6.05 2.85" fill="#fff" fill-rule="evenodd" transform="translate(-71.85 -9.55)"/><path d="M111.1 66.95q2.5 2.85 2.5 7.3t-2.5 7.3q-2.55 3.2-6.05 3.5-3.85 0-6.35-3.15-2.55-2.85-2.25-7.3-.3-4.45 2.25-7.65 2.5-2.85 6.35-2.85 3.5-.35 6.05 2.85z" fill="none" stroke="#5a401d" stroke-linecap="round" stroke-linejoin="round" stroke-opacity=".341" stroke-width=".05"/><path d="M180.7 85.4q-.95.95-2.2.95-1.3 0-2.25-.95-.95-.65-.95-1.9 0-1.3.95-1.9.95-.95 2.25-.95 1.25-.35 2.2.6t.95 2.25q0 .95-.95 1.9" fill="#620000" fill-rule="evenodd" transform="translate(-71.85 -9.55)"/><path d="M163.2 98.1q1.9-1.55 4.8-2.2 2.85-.65 4.75 0 1.9.3 2.25 1.6-.35.95-2.25 2.55-1.9 1.25-4.75 1.9l-4.8.3q-1.9-.65-1.9-1.6 0-1.25 1.9-2.55" fill="#f99" fill-rule="evenodd" transform="translate(-71.85 -9.55)"/><path d="M162.25 106.4q-2.85 4.75-7.6 0 3.8.3 7.6 0m-14.3-.95q-4.45 2.85-7-1.6l1.6.65 5.4.95m25.1-1.95q2.55-1.25 5.1-2.85h.35q-.65 4.8-5.45 2.85" fill="#fff" fill-rule="evenodd" transform="translate(-71.85 -9.55)"/><path d="M90.4 96.85q-2.85 4.75-7.6 0l-6.7-.95q-4.45 2.85-7-1.6-1.9-.65-3.5-.95m24.8 3.5q-3.8.3-7.6 0m-6.7-.95-5.4-.95-1.6-.65m32.1-.35q4.8 1.95 5.45-2.85h-.35q-2.55 1.6-5.1 2.85-5.05 2.25-10.8 2.9m20.7-9.25-4.45 3.5" fill="none" stroke="#5a401d" stroke-linecap="round" stroke-linejoin="round" stroke-opacity=".341" stroke-width=".05"/><path d="M140.65 74.25q-2.25-23.8 4.15-45.1l.6-5.1q.35-3.5-.95-4.45-3.15-1.3-6.05 6.65-1.9 4.15-3.15 11.8-4.45 20.35.6 38.15l-1.25.95q-4.45-5.4-5.7-18.75V24.7q2.85-13.05 10.8-14.65 8.9-2.2 10.8 5.4l.95 7q1.25 10.5-1.9 18.1-5.1 17.2-4.75 33.1l-4.15.6" fill="#f8eec7" fill-rule="evenodd" transform="translate(-71.85 -9.55)"/><path d="M135.85 76.2q-5.05-17.8-.6-38.15 1.25-7.65 3.15-11.8 2.9-7.95 6.05-6.65 1.3.95.95 4.45l-.6 5.1q-6.4 21.3-4.15 45.1l-4.8 1.95" fill="#f99" fill-rule="evenodd" transform="translate(-71.85 -9.55)"/><path d="M128.9 25v33.4q1.25 13.35 5.7 18.75l-4.15 3.8q-7.6-24.15-2.5-51.8.3-2.25.95-4.15" fill="#e8d397" fill-rule="evenodd" transform="translate(-71.85 -9.55)"/><path d="M72.95 64.1Q72.6 48.2 77.7 31q3.15-7.6 1.9-18.1l-.95-7q-1.9-7.6-10.8-5.4-7.95 1.6-10.8 14.65v.3M58.6 71.4Q51 47.25 56.1 19.6q.3-2.25.95-4.15" fill="none" stroke="#5a401d" stroke-linecap="round" stroke-linejoin="round" stroke-opacity=".341" stroke-width=".05"/><path d="M212.5 17.05q1.25 7.65-4.8 15.6l-10.45 11.1-12.75 9.55-13.95 13.65q12.7-20.35 30.8-33.35l3.85-3.85q2.2-2.55 1.9-4.1-1.6-3.2-8.9 1.55-4.15 2.55-9.55 7.35-16.2 13.65-22.9 30.8l-7.3.65q8.9-23.85 30.2-42.9 1.6-1.6 3.5-2.85 9.85-8.6 17.15-5.1 1.9.65 3.2 1.9" fill="#f8eec7" fill-rule="evenodd" transform="translate(-71.85 -9.55)"/><path d="M165.75 65.35q6.7-17.15 22.9-30.8 5.4-4.8 9.55-7.35 7.3-4.75 8.9-1.55.3 1.55-1.9 4.1l-3.85 3.85q-18.1 13-30.8 33.35-2.55-.6-4.8-1.6" fill="#f99" fill-rule="evenodd" transform="translate(-71.85 -9.55)"/><path d="M170.55 66.95 184.5 53.3l12.75-9.55 10.45-11.1q6.05-7.95 4.8-15.6 4.45 3.2 1.9 9.2l-3.5 6.05q-5.7 9.25-12.7 13.35-14.65 10.5-23.85 23.2l-3.8-1.9" fill="#e8d397" fill-rule="evenodd" transform="translate(-71.85 -9.55)"/><path d="M140.65 7.5q-1.3-1.25-3.2-1.9-7.3-3.5-17.15 5.1-1.9 1.25-3.5 2.85-21.3 19.05-30.2 42.9m15.9 2.85q9.2-12.7 23.85-23.2 7-4.1 12.7-13.35l3.5-6.05q2.55-6-1.9-9.2z" fill="none" stroke="#5a401d" stroke-linecap="round" stroke-linejoin="round" stroke-opacity=".341" stroke-width=".05"/><path d="M111.15 139.35q-2.55 1.25-4.8 1.55-3.15.35-5.7-.6l-7-5.1q.3-1.3.95-2.25 1.9-3.15 5.75-4.1 3.8-.95 7.6 1.25 3.85 1.9 5.1 5.75v.6l-1.9 2.9q-1.3-1-2.25-2.25.95 1.25 2.25 2.25" fill="#f8eec7" fill-rule="evenodd" transform="translate(-71.85 -9.55)"/><path d="m113.05 141.55.3 2.55q0 1.6-3.15 1.6l-3.85-4.8 3.85 4.8q.95 2.55-2.55 2.85-3.8.3-7.95-2.25-4.45-2.5-5.75-6-.95-2.9-.3-5.1l7 5.1q2.55.95 5.7.6 2.25-.3 4.8-1.55l1.9 2.2-1.9-2.2 1.9-2.9q4.15 4.8 0 5.1" fill="#e8d397" fill-rule="evenodd" transform="translate(-71.85 -9.55)"/><path d="M38.35 136.15q3.15 0 3.15-1.6l-.3-2.55-1.9-2.2q-1.3-1-2.25-2.25m-2.55 3.8 3.85 4.8q.95 2.55-2.55 2.85-3.8.3-7.95-2.25-4.45-2.5-5.75-6-.95-2.9-.3-5.1.3-1.3.95-2.25 1.9-3.15 5.75-4.1 3.8-.95 7.6 1.25 3.85 1.9 5.1 5.75v.6q4.15 4.8 0 5.1" fill="none" stroke="#5a401d" stroke-linecap="round" stroke-linejoin="round" stroke-opacity=".341" stroke-width=".05"/></g></defs></svg>