<svg viewBox="0 0 245.8 171.95" xmlns="http://www.w3.org/2000/svg" xmlns:xlink="http://www.w3.org/1999/xlink"><use transform="translate(.03 .02)" width="245.75" height="171.9" xlink:href="#a"/><defs><g id="a"><path d="M339.45 247.3h-.3.3" fill="#960" fill-rule="evenodd" transform="translate(-152.65 -114)"/><path d="m253.2 216.15 7.15-.95Q272 222 291 227.2q-9.6-6-23.85-12.35l4.55.15q.95.2 1.6 0 8.95 6.65 30.8 14.1l3.25-.6q37.95 12.45 79.95 22.35l-4.55.5q-1.95.45-2.45-.65-11.8-2.1-22.7-4.9-7.1-1.9-13.75-4.2l-2.75-.95q-5.85-.2-11.2 2.1v1.15l9.25 3.4q-47.35-13.8-85.95-31.15m86.1 31.15h-.15.15" fill="#715b3e" fill-rule="evenodd" transform="translate(-152.65 -114)"/><path d="m248.85 216.8 4.35-.65q38.6 17.35 85.95 31.15l-3.9.3q-24-5.35-43.95-13.95l-1.95 1.65q-1.6.65-3.7.8-16.25-6.5-31.95-14.6l-4.85-2.6q-1.65-.65 0-2.1m11.5-1.6 6.8-.35Q281.4 221.2 291 227.2q-19-5.2-30.65-12m80.25 19.6q27.7 8.9 57.7 16.55l-11-.5q-42-9.9-79.95-22.35l1.65-.5 26.4 8.1 5.2-1.3" fill="#8a704d" fill-rule="evenodd" transform="translate(-152.65 -114)"/><path d="M318.05 254.1q-39.9-11.7-75.2-29.85l.15-.3q1.45-3.25 4.35-4.25l6.35 1.8q15.7 8.1 31.95 14.6v2.1l1.45.65v1.3l30.95 11.35v2.6" fill="#53432d" fill-rule="evenodd" transform="translate(-152.65 -114)"/><path d="m243 223.95 2.25-5.55-.3.85q2.6-2.1 3.9-2.45-1.65 1.45 0 2.1l4.85 2.6-6.35-1.8q-2.9 1-4.35 4.25" fill="#a69277" fill-rule="evenodd" transform="translate(-152.65 -114)"/><path d="m392.3 259.1-23.35 2.95q7.5-3.9 18-5.5 5.05.6 5.35 2.55M284 215.35h1.65l2.9 1.6-1.8.35-2.75-1.95M320.5 228l3.7 1.1-1.6.35 11.65 3.25h1.65l4.55 1.3-1 .5-1.6.3-14.6-4.55-2.1.65-10.7-3.4h-1.8l-6.5-1.8-.95.35 5.2 1.6-.8.2-1.15.3q-4.55-1.6-8.95-3.4l1.95-.65-6.15-2.6-2.1.65q-5.05-2.45-9.75-5l2.95-.65q2.1 1.6 4.35 3.05l4.05-.5 2.8 2.15 3.05-.65 6.65 3.05-1.45.5q3.9 1.15 7.6 2.45l2.6-.35 6.8 2.6q.85-.5 1.65-.8m54.3 23.35-8.25-2.3 2.6.2 7.1 1.95-1.45.15m-6 1.1-3.9 1-8.4-2.9-1.8.95 7.3 2.6-1.8.65-.95.15-10.4-2.6-2.6.65 7.15 2.6-2.75.15q-9.4-1.75-19.15-4.2l-.8-.3q-14.1-3.75-28.85-8.8-8.1-2.9-16.2-6.15v-.15q2.1-.15 3.7-.8l14.75 5.5 1-.65 8.6 3.55v.85q4.5 1.45 9.05 3.05l2.3-.65 16.85 4.7 3.4-.8-3.75-1.3 4.9-.65 3.4 1.65 2.6-1-12.5-4.7 4.2-.95-6.15-1.65 5.85-.65q6.65 2.3 13.75 4.2l-2.75.65 7.8 2.45-4.05.35 10.2 3.2m-13.45-4.5-6.3-2.95-2.45.5 8.25 3.25.5-.8" fill="#786336" fill-rule="evenodd" transform="translate(-152.65 -114)"/><path d="m350.15 262.35-16.7-4.05v-.5l-5.8-1.6v-1.15l-7.5-2.1.2-.65 9.05 1.95.5-.5-4.2-1.3 1.1-1.25-9.55-2.95-.65.65-16.2-5.35 1.45-1.15q14.75 5.05 28.85 8.8l.8.3q9.25 3.75 21.75 6.3l1.3 1.15-12-1.45.65 1.45 8.6 1.45-1.65 1.95M273.3 215l1.15-.95 5 3.1q4.7 2.55 9.75 5l6.3 2.6q4.4 1.8 8.95 3.4l1.15-.3.8-.2 2.25-.15h1.8l10.7 3.4 14.6 4.4 2.1-.5 1.6-.3 1.15.3-5.2 1.3L309 228l-1.65.5-3.25.6q-21.85-7.45-30.8-14.1m56.6 27.75 11.85 4.35-2.3.2h-.3l-9.25-3.4v-1.15m2.75 11.5 6.95 2.1 1-.8-7.95-1.95v.65" fill="#68552f" fill-rule="evenodd" transform="translate(-152.65 -114)"/><path d="M398.3 251.35v5.35q-.15.8-.8 1.3-1.15.65-3.25.8l-1.95.3q-.3-1.95-5.35-2.55-10.5 1.6-18 5.5l-6.65.8-1.1.15-5.2.5-5.85-1.15 1.65-1.95-8.6-1.45-.65-1.45 12 1.45 1.45 1v3.55l1.6-5.7 1-1.1q8.9-4.4 19.45-5.7l2.25-.3-2.25.3-1.8.2-7.1-1.95-2.6-.2 8.25 2.3-6 1.1-10.2-3.2 4.05-.35-7.8-2.45 2.75-.65q10.9 2.8 22.7 4.9.5 1.1 2.45.65l4.55-.5 11 .5m-64.85 6.95-13.1-3.4q-.5-1.15-.2-1.95l7.5 2.1v1.15l5.8 1.6v.5m-59-44.25 9.55 1.3 2.75 1.95 1.8-.35-2.9-1.6 1.1.15q15.25 7 33.75 12.5-.8.3-1.65.8l-6.8-2.6-2.6.35q-3.7-1.3-7.6-2.45l1.45-.5-6.65-3.05-3.05.65-2.8-2.15-4.05.5q-2.25-1.45-4.35-3.05l-2.95.65-5-3.1m49.75 15.05 17.35 4.4q-.65.15-1.1.5l-4.55-1.3h-1.65l-11.65-3.25 1.6-.35m19.65 12.5-5.85.65 6.15 1.65-4.2.95 12.5 4.7-2.6 1-3.4-1.65-4.9.65 3.75 1.3-3.4.8-16.85-4.7-2.3.65q-4.55-1.6-9.05-3.05v-.85l-8.6-3.55-1 .65-14.75-5.5 1.95-1.65q19.95 8.6 43.95 13.95l3.9-.3h.3l2.3-.2-11.85-4.35q5.35-2.3 11.2-2.1l2.75.95m-58.2-5.35q8.1 3.25 16.2 6.15l-1.45 1.15 16.2 5.35.65-.65 9.55 2.95-1.1 1.25 4.2 1.3-.5.5-9.05-1.95q.3-.5.95-.95-18-5.35-34.2-12.5l-1.45-.65v-1.95m67.75 19.3-7.15-2.6 2.6-.65 10.4 2.6-3.9.5-1.95.15m8.6-1.45-7.3-2.6 1.8-.95 8.4 2.9-2.9.65m35.5 3.9q-2.1-2.3-10.55-3.4-15.05.8-24.65 8.25 9.6-7.45 24.65-8.25 8.45 1.1 10.55 3.4m-108.3-35.85 2.1-.65 6.15 2.6-1.95.65-6.3-2.6m17.2 5.5-5.2-1.6.95-.35 6.5 1.8-2.25.15m14.75 3.25 2.1-.65 14.6 4.55-2.1.5-14.6-4.4m11.5 23.35v-.65l7.95 1.95-1 .8-6.95-2.1m22.7-6.3-.5.8-8.25-3.25 2.45-.5 6.3 2.95" fill="#8e7540" fill-rule="evenodd" transform="translate(-152.65 -114)"/><path d="M378.05 251q-10.55 1.3-19.45 5.7l-1 1.1-1.6 5.7v-3.55l-1.45-1-1.3-1.15q-12.5-2.55-21.75-6.3 9.75 2.45 19.15 4.2l2.75-.15 1.95-.15 3.9-.5.95-.15 1.8-.65 2.9-.65 3.9-1 6-1.1 1.45-.15 1.8-.2" fill="#b99c62" fill-rule="evenodd" transform="translate(-152.65 -114)"/><path d="m320.35 254.9-2.3-.8v-2.6l-30.95-11.35v-1.3q16.2 7.15 34.2 12.5-.65.45-.95.95l-.2.65q-.3.8.2 1.95" fill="#362c1d" fill-rule="evenodd" transform="translate(-152.65 -114)"/><path d="M245.65 137.35v5.35q-.15.8-.8 1.3-1.15.65-3.25.8l-1.95.3-23.35 2.95-6.65.8m-1.1.15-5.2.5M90.2 110.25l.15-.3m1.95-4.7q2.6-2.1 3.9-2.45l4.35-.65 7.15-.95 6.8-.35 4.55.15q.95.2 1.6 0l1.15-.95 9.55 1.3H133l1.1.15q15.25 7 33.75 12.5l3.7 1.1 17.35 4.4q-.65.15-1.1.5l-1 .5 1.15.3q27.7 8.9 57.7 16.55M133 122.1v.15M203.35 149.5l-5.85-1.15-16.7-4.05-13.1-3.4-2.3-.8q-39.9-11.7-75.2-29.85m114.75 21.55q-7.1-1.9-13.75-4.2l-2.75-.95q-5.85-.2-11.2 2.1l11.85 4.35-2.3.2h-.3m-49.8-12q-1.6.65-3.7.8m94.65 14.6q-11.8-2.1-22.7-4.9M133 122.25v1.95l1.45.65q16.2 7.15 34.2 12.5-.65.45-.95.95l-.2.65q-.3.8.2 1.95m-31-19.6 1.95-1.65q19.95 8.6 43.95 13.95l3.9-.3" fill="none" stroke="#000" stroke-linecap="round" stroke-linejoin="round" stroke-opacity=".361" stroke-width=".05"/><path d="m209.65 148.85-1.1.15m1.1-.15q9.6-7.45 24.65-8.25 8.45 1.1 10.55 3.4m-143.8-36.5-6.35-1.8q-2.9 1-4.35 4.25m96.15 23.35q-47.35-13.8-85.95-31.15m87.4 18.65-5.2 1.3-26.4-8.1-1.65.5q37.95 12.45 79.95 22.35m-48.15-3.55-9.25-3.4v-1.15m9.25 4.55h.3m-32.1-18.8-3.25.6q-21.85-7.45-30.8-14.1m-6.15-.15q14.25 6.35 23.85 12.35-19-5.2-30.65-12" fill="none" stroke="#2f1d1a" stroke-linecap="round" stroke-linejoin="round" stroke-opacity=".278" stroke-width=".05"/><path d="m245.65 137.35-11-.5-4.55.5q-1.95.45-2.45-.65l-2.25.3m-3.25.35 1.45-.15 1.8-.2m-13.15 2.45 3.9-1 6-1.1M133 122.25q8.1 3.25 16.2 6.15 14.75 5.05 28.85 8.8l.8.3q9.75 2.45 19.15 4.2l2.75-.15 1.95-.15 3.9-.5.95-.15 1.8-.65m2.9-.65-2.9.65m-82.55-36.95q4.7 2.55 9.75 5l6.3 2.6q4.4 1.8 8.95 3.4l1.15-.3.8-.2 2.25-.15h1.8l10.7 3.4 14.6 4.4 2.1-.5 1.6-.3m-85.75-13q15.7 8.1 31.95 14.6m-11.2-22.05 5 3.1" fill="none" stroke="#b99c62" stroke-linecap="round" stroke-linejoin="round" stroke-opacity=".498" stroke-width=".25"/><path d="M398.3 256.7q-.15.8-.8 1.3-1.15.65-3.25.8L356 263.5l-5.85-1.15-16.7-4.05-13.1-3.4-2.3-.8q-39.9-11.7-75.2-29.85l2.4-5.85-.3.85q2.6-2.1 3.9-2.45l4.35-.65 7.15-.95 6.8-.35 4.55.15q.95.2 1.6 0l1.15-.95 9.55 1.3h1.65l1.1.15q15.25 7 33.75 12.5l3.7 1.1 17.35 4.4-2.1 1 1.15.3q27.7 8.9 57.7 16.55v5.35" fill-opacity=".302" fill-rule="evenodd" transform="translate(-152.65 -114)"/><path d="M302.6 255.15h-.25l-.1-.15.35.15m-.1 0-.25-.15.25.15" fill="#960" fill-rule="evenodd" transform="translate(-152.65 -114)"/><path d="m214.3 198 5.65-.3 1.9-.1q11 12.3 37.5 24.9l4-1.8h.1q46.2 21.1 97.5 36.5l-5.6 1.3q-2.4 1.35-2.9-1-14.45-2.7-27.65-7.35-8.7-3.05-16.8-6.9l-3.4-1.65q-7.15.45-13.75 5.35v2.3l11.4 5.75q-57.85-22.35-105-53.2 4.45-1.5 8.8-2.5 14.35 12.35 37.45 20.6-11.65-10.7-29.2-21.9m87.95 57.15V255l.1.15h-.1" fill="#715b3e" fill-rule="evenodd" transform="translate(-152.65 -114)"/><path d="m206.05 199.3 8.25-1.3q17.55 11.2 29.2 21.9-23.1-8.25-37.45-20.6m97.85 30.65q33.85 14.95 70.45 26.9-6.45-.9-13.4.35-51.3-15.4-97.5-36.5l1.9-1.05 32.3 13.55 6.25-3.25m-111.8-26.2 5.15-1.95q47.15 30.85 105 53.2v.15l-4.75 1.05q-29.2-8.2-53.7-23.15-.95 1.95-2.4 3.2-1.85 1.7-4.5 2.3-19.75-11.35-38.9-26.05l-5.9-4.6q-2-.95 0-4.15" fill="#8a704d" fill-rule="evenodd" transform="translate(-152.65 -114)"/><path d="M276.4 271.05q-48.55-19.1-91.75-51.7l.2-.9q1.8-6.5 5.3-8.75l7.85 2.8q19.15 14.7 38.9 26.05l.1.05v4l1.7 1.15-.1 2.75 37.8 19.1v5.45" fill="#53432d" fill-rule="evenodd" transform="translate(-152.65 -114)"/><path d="m184.85 218.45 2.6-10.55-.25 1.15q3.2-4.6 4.9-5.3-2 3.2 0 4.15l5.9 4.6-7.85-2.8q-3.5 2.25-5.3 8.75" fill="#a69277" fill-rule="evenodd" transform="translate(-152.65 -114)"/><path d="M234.9 197.05h2.1l3.55 2.9-2.25.65-3.4-3.55m44.6 21.55 4.5 1.7-1.95.9 14.3 5.2h1.95l5.5 1.95-1.3 1.05-1.95.95-17.65-7.55-2.7 1.3-13.05-5.5-2.2.25-7.85-3-1.15.65 6.25 3-.9.3-1.45.6q-5.6-2.5-10.95-5.6l2.55-1.55-7.65-4.55-2.6 1.3q-6.05-4.05-11.75-8.9l3.5-1.45 5.35 5.65 5-1.45 3.25 3.7 3.75-1.6 8.1 5.7-1.6 1.1 9.2 3.9 3.1-.8 8.45 4.35 1.95-1.6m87.55 54.55-28.55 8.2q9.1-8.55 22.05-12.8 6.2.8 6.5 4.6m-130.15-34.6q2.65-.6 4.5-2.3l17.95 9.6 1.3-1.45 10.4 6.15v1.6l11.2 5.35 2.75-1.6 20.6 7.75 4.2-1.9-4.7-2.45 6-1.8 4.2 2.95 3.1-2.15-15.25-8.1 5.2-2.4-7.65-2.75 7.3-1.8q8.1 3.85 16.8 6.9l-3.35 1.7 9.45 3.9-4.9 1.1 12.35 5.55q-2.3 1-4.7 2.15l-10.25-4.95-2.25 2.3 9 4.55q-1.1.55-2.2 1.2l-1.3.65L314 264l-3.05 1.6 8.75 4.4-3.4.8q-11.55-2.55-23.45-6.55l-1.05-.35q-17.2-5.9-35.1-14.75-9.8-4.85-19.7-10.55l-.1-.05m110.7 20.35-1.95.65-10.05-3.65h3.2l8.8 3m-36.35-8.05 10.05 5.35.65-1.45-7.75-5.2-2.95 1.3" fill="#786336" fill-rule="evenodd" transform="translate(-152.65 -114)"/><path d="M221.85 197.6q.55-.2 1.35-2.2l6.25 5.7q5.7 4.85 11.75 8.9l7.7 4.8q5.35 3.1 10.95 5.6l1.45-.6.9-.3 2.75-.65 2.2-.25 13.05 5.5 17.9 7.45 2.45-1.2 1.95-.95 1.4.55-6.25 3.25-32.3-13.55-1.9 1.05h-.1l-4 1.8q-26.5-12.6-37.5-24.9m93.85 86.5q-10.35-2.85-20.5-6.25v-1.2l-7.15-2.6v-2.25l-9.05-3.2.3-1.45 11.05 3L291 269l-5.2-2.1 1.3-2.6-11.7-5-.8 1.45-19.6-9.1 1.7-2.5q17.9 8.85 35.1 14.75l1.05.35q11.45 6.45 26.6 10.45l1.6 1.95-14.75-1.4.75 2.7 10.55 2.1-1.9 4.05m-24.85-37.15 14.55 7.65-2.8.55-.35-.15-11.4-5.75v-2.3m13.1 24.5-9.7-2.9v1.1l8.6 3.45 1.1-1.65" fill="#68552f" fill-rule="evenodd" transform="translate(-152.65 -114)"/><path d="M223.2 195.4q7.05 1.5 11.7 1.65l3.4 3.55 2.25-.65-3.55-2.9 1.3-.1q18.5 12.6 41.2 21.65l-1.95 1.6-8.45-4.35-3.1.8-9.2-3.9 1.6-1.1-8.1-5.7-3.75 1.6-3.25-3.7-5 1.45-5.35-5.65-3.5 1.45-6.25-5.7m60.8 24.9q10.15 3.8 21.1 6.9l-1.3 1.15-5.5-1.95h-1.95l-14.3-5.2 1.95-.9m90.35 36.55v10.9q-.1 1.55-1 2.65-1.25 1.4-3.9 2.05l-2.4.7q-.3-3.8-6.5-4.6-12.95 4.25-22.05 12.8l-8.05 2.35-1.3.4-6.4 1.8 2.05-11.7 1.2-2.4q10.8-9.55 23.6-13.5l-2 .6-8.8-3h-3.2l10.05 3.65q-3.6 1.2-7.3 2.85L326 256.85l4.9-1.1-9.45-3.9 3.35-1.7q13.2 4.65 27.65 7.35.5 2.35 2.9 1l5.6-1.3q6.95-1.25 13.4-.35M322.7 285.9l-7-1.8 1.9-4.05-10.55-2.1-.75-2.7 14.75 1.4 1.65 1.95v7.3m-27.5-8.05q-8.05-2.65-15.95-5.65-.5-1.95-.25-3.6l9.05 3.2v2.25l7.15 2.6v1.2m-53.8-41.6q1.45-1.25 2.4-3.2 24.5 14.95 53.7 23.15l4.75-1.05h.35l2.8-.55-14.55-7.65q6.6-4.9 13.75-5.35l3.4 1.65-7.3 1.8 7.65 2.75-5.2 2.4 15.25 8.1-3.1 2.15-4.2-2.95-6 1.8 4.7 2.45-4.2 1.9-20.6-7.75-2.75 1.6-11.2-5.35v-1.6l-10.4-6.15-1.3 1.45-17.95-9.6m20.8-16.75-6.25-3 1.15-.65 7.85 3-2.75.65m18 4.6 2.7-1.3 17.65 7.55-2.45 1.2-17.9-7.45m-39-14.1 2.6-1.3 7.65 4.55-2.55 1.55-7.7-4.8m92.45 54.55q-1.75.9-3.5 1.9l-9-4.55 2.25-2.3 10.25 4.95m-7 3.75q-2.1.9-4.7 1.2l-2.25.5-8.75-4.4L314 264l12.65 4.3m25.8-10.8-2.85.8 2.85-.8m20.9 12.9q-2.55-4.25-12.8-5.75-18.45 3.15-30.1 19.05 11.65-15.9 30.1-19.05 10.25 1.5 12.8 5.75m-62.1-19.55 2.95-1.3 7.75 5.2-.65 1.45-10.05-5.35m-7.3 20.6-1.1 1.65-8.6-3.45v-1.1l9.7 2.9m-24.65-4.3q.4-1.05 1.15-2-22-8.75-41.75-21.4l-1.7-1.15v-4q9.9 5.7 19.7 10.55l-1.7 2.5 19.6 9.1.8-1.45 11.7 5-1.3 2.6 5.2 2.1-.65 1.15-11.05-3" fill="#8e7540" fill-rule="evenodd" transform="translate(-152.65 -114)"/><path d="M322.75 285.9h-.05v-7.3l-1.65-1.95-1.6-1.95q-15.15-4-26.6-10.45 11.9 4 23.45 6.55l3.4-.8 2.25-.5q2.6-.3 4.7-1.2l1.3-.65q1.1-.65 2.2-1.2 1.75-1 3.5-1.9 2.4-1.15 4.7-2.15 3.7-1.65 7.3-2.85l1.95-.65 2-.6q-12.8 3.95-23.6 13.5l-1.2 2.4-2.05 11.7" fill="#b99c62" fill-rule="evenodd" transform="translate(-152.65 -114)"/><path d="m279.25 272.2-2.85-1.15v-5.45l-37.8-19.1.1-2.75q19.75 12.65 41.75 21.4-.75.95-1.15 2l-.3 1.45q-.25 1.65.25 3.6" fill="#362c1d" fill-rule="evenodd" transform="translate(-152.65 -114)"/><path d="m53.4 85.3 8.25-1.3 5.65-.3 1.9-.1q.55-.2 1.35-2.2 7.05 1.5 11.7 1.65h2.1l1.3-.1q18.5 12.6 41.2 21.65l4.5 1.7q10.15 3.8 21.1 6.9l-1.3 1.15-1.3 1.05 1.4.55q33.85 14.95 70.45 26.9v10.9q-.1 1.55-1 2.65-1.25 1.4-3.9 2.05l-2.4.7-28.55 8.2-8.05 2.35m-1.3.4-6.4 1.8h-.05M32 105.35l.2-.9m2.35-9.4q3.2-4.6 4.9-5.3l5.15-1.95q4.45-1.5 8.8-2.5m30.85 39.25.1.05" fill="none" stroke="#000" stroke-linecap="round" stroke-linejoin="round" stroke-opacity=".361" stroke-width=".05"/><path d="m170.05 171.9-7-1.8q-10.35-2.85-20.5-6.25-8.05-2.65-15.95-5.65l-2.85-1.15Q75.2 137.95 32 105.35m52.25 19.2q2.65-.6 4.5-2.3 1.45-1.25 2.4-3.2 24.5 14.95 53.7 23.15l4.75-1.05m50.2 2.35q-14.45-2.7-27.65-7.35m-16.8-6.9-3.4-1.65q-7.15.45-13.75 5.35l14.55 7.65-2.8.55h-.35m5.75-11.9q8.1 3.85 16.8 6.9m-86.1-6.4q19.75 12.65 41.75 21.4-.75.95-1.15 2l-.3 1.45q-.25 1.65.25 3.6m-42.25-33.6v4l1.7 1.15" fill="none" stroke="#000" stroke-linecap="round" stroke-linejoin="round" stroke-opacity=".361" stroke-width=".05"/><path d="m177.8 169.7-1.3.4M53.4 85.3q14.35 12.35 37.45 20.6Q79.2 95.2 61.65 84m87.95 57q-57.85-22.35-105-53.2m.75 10.7-7.85-2.8q-3.5 2.25-5.3 8.75m78.6 2.25h-.1l-4 1.8Q80.2 95.9 69.2 83.6m82.05 32.35L145 119.2l-32.3-13.55-1.9 1.05q46.2 21.1 97.5 36.5m-30.5 26.5q11.65-15.9 30.1-19.05 10.25 1.5 12.8 5.75M149.6 141l-11.4-5.75v-2.3m11.75 8.2-.35-.15.25.15" fill="none" stroke="#2f1d1a" stroke-linecap="round" stroke-linejoin="round" stroke-opacity=".278" stroke-width=".05"/><path d="M45.35 98.5q19.15 14.7 38.9 26.05M208.3 143.2q6.95-1.25 13.4-.35m-28.7 2.7 1.95-.65 2-.6m-3.95 1.25q-3.6 1.2-7.3 2.85-2.3 1-4.7 2.15-1.75.9-3.5 1.9-1.1.55-2.2 1.2l-1.3.65q-2.1.9-4.7 1.2l-2.25.5-3.4.8q-11.55-2.55-23.45-6.55m59.6-6.75q.5 2.35 2.9 1l5.6-1.3m-104.25-8.05q-9.8-4.85-19.7-10.55m54.8 25.3q-17.2-5.9-35.1-14.75M70.55 81.4l6.25 5.7q5.7 4.85 11.75 8.9l7.7 4.8q5.35 3.1 10.95 5.6l1.45-.6.9-.3 2.75-.65 2.2-.25 13.05 5.5 17.9 7.45 2.45-1.2 1.95-.95m47.1 28.9 2.85-.8m-59.6 6.75-1.05-.35" fill="none" stroke="#b99c62" stroke-linecap="round" stroke-linejoin="round" stroke-opacity=".498" stroke-width=".25"/><path d="M249.1 264.45h-.15.35-.2" fill="#960" fill-rule="evenodd" transform="translate(-152.65 -114)"/><path d="m163 233.35 7.15-1q11.7 6.8 30.65 12-9.55-6-23.85-12.3l4.55.15h1.65q8.9 6.65 30.8 14.1l3.25-.65q37.9 12.5 79.9 22.4l-4.55.45q-1.9.5-2.4-.65-11.85-2.1-22.7-4.85-7.15-1.95-13.8-4.2l-2.75-1q-5.85-.15-11.2 2.1v1.15l9.25 3.4Q201.6 250.7 163 233.35m86.1 31.1h-.15.15" fill="#715b3e" fill-rule="evenodd" transform="translate(-152.65 -114)"/><path d="m158.65 234 4.35-.65q38.6 17.35 85.95 31.1l-3.9.35q-24-5.35-43.9-13.95l-1.95 1.6q-1.65.65-3.75.8-16.2-6.45-31.95-14.55l-4.85-2.6q-1.65-.65 0-2.1m11.5-1.65 6.8-.3q14.3 6.3 23.85 12.3-18.95-5.2-30.65-12M250.4 252q27.75 8.9 57.75 16.5l-11.05-.45q-42-9.9-79.9-22.4l1.6-.5 26.45 8.1 5.15-1.25" fill="#8a704d" fill-rule="evenodd" transform="translate(-152.65 -114)"/><path d="m152.65 241.45.15-.35q1.45-3.25 4.4-4.2l6.3 1.8q15.75 8.1 31.95 14.55v2.15l1.45.65v1.3l31 11.35v2.55q-39.9-11.65-75.25-29.8" fill="#53432d" fill-rule="evenodd" transform="translate(-152.65 -114)"/><path d="m152.8 241.1 2.3-5.5-.35.8q2.6-2.1 3.9-2.4-1.65 1.45 0 2.1l4.85 2.6-6.3-1.8q-2.95.95-4.4 4.2" fill="#a69277" fill-rule="evenodd" transform="translate(-152.65 -114)"/><path d="M193.85 232.5h1.6l2.9 1.65-1.75.3-2.75-1.95m36.45 12.65 3.75 1.15-1.65.35 11.7 3.2h1.6l4.55 1.3-.95.5-1.65.35-14.6-4.55-2.1.65-10.7-3.4h-1.8l-6.45-1.8-1 .3 5.2 1.65-.8.15-1.15.35-8.9-3.45 1.95-.6-6.15-2.6-2.15.65q-5-2.45-9.7-5.05l2.9-.65 4.4 3.1 4.05-.5 2.75 2.1 3.1-.65 6.6 3.1-1.45.5 7.65 2.4 2.6-.3 6.8 2.6q.8-.5 1.6-.85m71.85 31.15-23.35 2.9q7.45-3.9 18-5.5 5 .65 5.35 2.6m-90.5-16.7q-8.1-2.9-16.2-6.15v-.2q2.1-.15 3.75-.8l14.75 5.55q.45-.35.95-.65l8.6 3.55v.8l9.1 3.1 2.25-.65 16.85 4.7 3.4-.8-3.7-1.3 4.85-.65 3.4 1.6 2.6-.95-12.5-4.7 4.25-1-6.2-1.6 5.85-.65q6.65 2.25 13.8 4.2l-2.75.65 7.75 2.45-4.05.3 10.25 3.25-3.9.95-8.45-2.9-1.8 1 7.3 2.55-1.75.65-1 .2-10.35-2.6-2.6.65 7.1 2.6-2.75.15q-9.4-1.8-19.1-4.2l-.8-.35q-14.15-3.75-28.9-8.75m74.45 8.75-1.45.15-8.3-2.25 2.6.15 7.15 1.95m-20.95-3.25-6.3-2.9-2.45.5 8.3 3.2q.15-.45.45-.8" fill="#786336" fill-rule="evenodd" transform="translate(-152.65 -114)"/><path d="m183.15 232.2 1.1-1 5.05 3.1q4.7 2.6 9.7 5.05l6.35 2.55 8.9 3.45 1.15-.35.8-.15 2.25-.15h1.8l10.7 3.4 14.6 4.35 2.1-.45 1.65-.35 1.1.35-5.15 1.25-26.45-8.1-1.6.5-3.25.65q-21.9-7.45-30.8-14.1M260 279.55l-16.7-4.05v-.5l-5.85-1.6v-1.15l-7.45-2.1q0-.35.15-.65l9.1 1.95.45-.5-4.2-1.3 1.15-1.3-9.6-2.9-.65.65q-8.1-2.75-16.2-5.35l1.45-1.15q14.75 5 28.9 8.75l.8.35q9.25 3.7 21.7 6.3l1.3 1.15-12-1.45.65 1.45 8.6 1.45-1.6 1.95m-11.05-15.1-9.25-3.4v-1.15l11.85 4.4-2.25.15h-.35m-6.5 7 7 2.1.95-.8-7.95-1.95v.65" fill="#68552f" fill-rule="evenodd" transform="translate(-152.65 -114)"/><path d="m184.25 231.2 9.6 1.3 2.75 1.95 1.75-.3-2.9-1.65 1.15.2q15.25 6.95 33.7 12.45-.8.35-1.6.85l-6.8-2.6-2.6.3-7.65-2.4 1.45-.5-6.6-3.1-3.1.65-2.75-2.1-4.05.5-4.4-3.1-2.9.65-5.05-3.1m49.8 15.1 17.35 4.4q-.65.15-1.15.45l-4.55-1.3h-1.6l-11.7-3.2 1.65-.35m74.1 22.2v5.35q-.2.85-.8 1.3-1.15.65-3.25.8l-1.95.35q-.35-1.95-5.35-2.6-10.55 1.6-18 5.5l-6.65.85-1.15.15-5.2.5-5.8-1.15 1.6-1.95-8.6-1.45-.65-1.45 12 1.45 1.45.95v3.6l1.65-5.7.95-1.15q8.95-4.35 19.45-5.65l-1.75.15-7.15-1.95-2.6-.15 8.3 2.25-6 1.15-10.25-3.25 4.05-.3-7.75-2.45 2.75-.65q10.85 2.75 22.7 4.85.5 1.15 2.4.65l4.55-.45 11.05.45m-64.85 7-13.15-3.4q-.5-1.15-.15-1.95l7.45 2.1v1.15l5.85 1.6v.5M199 239.35l2.15-.65 6.15 2.6-1.95.6-6.35-2.55m17.2 5.5-5.2-1.65 1-.3 6.45 1.8-2.25.15m14.75 3.25 2.1-.65 14.6 4.55-2.1.45-14.6-4.35m-31.75 4.35 1.95-1.6q19.9 8.6 43.9 13.95l3.9-.35h.35l2.25-.15-11.85-4.4q5.35-2.25 11.2-2.1l2.75 1-5.85.65 6.2 1.6-4.25 1 12.5 4.7-2.6.95-3.4-1.6-4.85.65 3.7 1.3-3.4.8-16.85-4.7-2.25.65-9.1-3.1v-.8l-8.6-3.55q-.5.3-.95.65l-14.75-5.55m-2.3 3.6-1.45-.65v-1.95q8.1 3.25 16.2 6.15l-1.45 1.15q8.1 2.6 16.2 5.35l.65-.65 9.6 2.9-1.15 1.3 4.2 1.3-.45.5-9.1-1.95.95-1q-18-5.35-34.2-12.45m45.55 15.4v-.65l7.95 1.95-.95.8-7-2.1m20.75 1.3-7.1-2.6 2.6-.65 10.35 2.6-3.9.45-1.95.2m8.6-1.5-7.3-2.55 1.8-1 8.45 2.9-2.95.65m18.35-3.4-2.3.35 2.3-.35m-25-2.75q-.3.35-.45.8l-8.3-3.2 2.45-.5 6.3 2.9m42.2 10.05q-2.15-2.25-10.55-3.4-15.1.8-24.65 8.3 9.55-7.5 24.65-8.3 8.4 1.15 10.55 3.4" fill="#8e7540" fill-rule="evenodd" transform="translate(-152.65 -114)"/><path d="M241.35 268.7q9.7 2.4 19.1 4.2l2.75-.15 1.95-.2 3.9-.45 1-.2 1.75-.65 2.95-.65 3.9-.95 6-1.15 1.45-.15 1.75-.15q-10.5 1.3-19.45 5.65l-.95 1.15-1.65 5.7v-3.6l-1.45-.95-1.3-1.15q-12.45-2.6-21.7-6.3" fill="#b99c62" fill-rule="evenodd" transform="translate(-152.65 -114)"/><path d="m230.15 272.1-2.25-.85v-2.55l-31-11.35v-1.3q16.2 7.1 34.2 12.45l-.95 1q-.15.3-.15.65-.35.8.15 1.95" fill="#362c1d" fill-rule="evenodd" transform="translate(-152.65 -114)"/><path d="m0 127.45.15-.35m1.95-4.7q2.6-2.1 3.9-2.4l4.35-.65 7.15-1 6.8-.3 4.55.15h1.65l1.1-1 9.6 1.3h1.6l1.15.2q15.25 6.95 33.7 12.45l3.75 1.15 17.35 4.4q-.65.15-1.15.45l-.95.5 1.1.35q27.75 8.9 57.75 16.5v5.35q-.2.85-.8 1.3-1.15.65-3.25.8l-1.95.35-23.35 2.9-6.65.85m-1.15.15-5.2.5M42.8 139.45v-.2" fill="none" stroke="#000" stroke-linecap="round" stroke-linejoin="round" stroke-opacity=".361" stroke-width=".05"/><path d="m113.15 166.7-5.8-1.15-16.7-4.05-13.15-3.4-2.25-.85Q35.35 145.6 0 127.45m46.55 11 1.95-1.6q19.9 8.6 43.9 13.95l3.9-.35m-53.5-11v1.95l1.45.65q16.2 7.1 34.2 12.45l-.95 1q-.15.3-.15.65-.35.8.15 1.95m-30.95-19.65q-1.65.65-3.75.8m53.65 11.2h-.15m-9.25-4.55q5.35-2.25 11.2-2.1l2.75 1q6.65 2.25 13.8 4.2 10.85 2.75 22.7 4.85m-40.85-3.4 2.25-.15-11.85-4.4m9.6 4.55h-.2" fill="none" stroke="#000" stroke-linecap="round" stroke-linejoin="round" stroke-opacity=".361" stroke-width=".05"/><path d="m119.5 166.05-1.15.15M96.3 150.45q-47.35-13.75-85.95-31.1m.5 5.35-6.3-1.8q-2.95.95-4.4 4.2m64.4 4.55-3.25.65q-21.9-7.45-30.8-14.1M97.75 138l-5.15 1.25-26.45-8.1-1.6.5q37.9 12.5 79.9 22.4m-120.15-36q14.3 6.3 23.85 12.3-18.95-5.2-30.65-12m78.8 32.1-9.25-3.4v-1.15m9.25 4.55h.35m22.85 15.6q9.55-7.5 24.65-8.3 8.4 1.15 10.55 3.4" fill="none" stroke="#2f1d1a" stroke-linecap="round" stroke-linejoin="round" stroke-opacity=".278" stroke-width=".05"/><path d="M36.65 120.3q4.7 2.6 9.7 5.05l6.35 2.55 8.9 3.45 1.15-.35.8-.15 2.25-.15h1.8l10.7 3.4 14.6 4.35L95 138l1.65-.35M59 145.6q-8.1-2.9-16.2-6.15m0-.2q-16.2-6.45-31.95-14.55m133.6 29.35 11.05.45M31.6 117.2l5.05 3.1m100.85 33.55q.5 1.15 2.4.65l4.55-.45M59 145.6q14.75 5 28.9 8.75l.8.35q9.7 2.4 19.1 4.2l2.75-.15 1.95-.2 3.9-.45 1-.2 1.75-.65 2.95-.65 3.9-.95m6-1.15 1.45-.15 1.75-.15 2.3-.35m-5.5.65-6 1.15" fill="none" stroke="#b99c62" stroke-linecap="round" stroke-linejoin="round" stroke-opacity=".498" stroke-width=".25"/><path d="m155.1 235.6-.35.8q2.6-2.1 3.9-2.4l4.35-.65 7.15-1 6.8-.3 4.55.15h1.65l1.1-1 9.6 1.3h1.6l1.15.2q15.25 6.95 33.7 12.45l3.75 1.15 17.35 4.4q-1.15.45-2.1.95l1.1.35q27.75 8.9 57.75 16.5v5.35q-.2.85-.8 1.3-1.15.65-3.25.8l-38.3 4.75-5.8-1.15-16.7-4.05-13.15-3.4-2.25-.85q-39.9-11.65-75.25-29.8l2.45-5.85" fill-opacity=".149" fill-rule="evenodd" transform="translate(-152.65 -114)"/><path d="M235.05 154.85h.15v.35l.15.15-.15-.15-.15-.35m-3.6-3.55.2.5h-.2v-.5" fill="#960" fill-rule="evenodd" transform="translate(-152.65 -114)"/><path d="M228.55 129.55q-21.7-8.1-32.1 1.15-14.75 11.5-9.55 30.5-13.45-12 .95-34.4 15.75-14.75 40.7 2.75" fill="#690" fill-rule="evenodd" transform="translate(-152.65 -114)"/><path d="m228.55 129.55.5.5.8.65v.5l1.6.5q0 1.6-.95 1.6h-.3v.65q-1.3-1.15-2.15-1.15-29.8 2.75-41.15 28.4-5.2-19 9.55-30.5 10.4-9.25 32.1-1.15m1.65 3.9v.5-.5" fill="#360" fill-rule="evenodd" transform="translate(-152.65 -114)"/><path d="M244.3 154.2q2.75-12.95 8.9-18.95-7.3 14.1-4.4 28.2 2.3 20.75 10.05 36.5 10.4 8.25 16.1 19.75 2.4 5.85.95 7.8 3.55.65 3.4-3.75l1.8 1.65 3.05 2.45 6 4.5q18.2 12.65-1.3 6.65l-10.5-1.3-8.6-11.8h-3.25l7.95 10.85q-3.1-.8-5.85-1.95l-6.3-7.6-2.3-6.5-1.95 2.25-6.8-21.7L248 183.4h1.95l-1.95-7.15h-1.95V163.6l-1.75-9.4m-12.65-2.4 4.05 9.25 6.65 8.55-.65 2.3-6.35-8.75q-1.6-2.95-2.25-6.35l-.5-1.3q-1.15-2.6-1.15-3.7h.2m26.6 59.35q4.7 10.05 10.2 11 6.65-.5-7.8-14.75l5.2 9.1q-6.5-1.65-9.9-17.35-2.25.65 1.3 9.7l1 2.3" fill="#715b3e" fill-rule="evenodd" transform="translate(-152.65 -114)"/><path d="M230.2 133.45v-.15h.3q.95 0 .95-1.6l-1.25-.5h-.35v-.5l-.8-.65.3-16.05 4.9 39.4q.15.5.8 1.45l.15.35.15.15q2.6 6.95 7.8 12v-5.05q.3-4.35 1.15-8.1l1.75 9.4v12.65H248l1.95 7.15H248l3.25 17.85 6.8 21.7 1.95-2.25 2.3 6.5 6.3 7.6q-7.15-3.25-13.15-8.75l-2.1-5.7q-7.75-22.5-9.7-45.7l-1.95-2.75.65-2.3-6.65-8.55-4.05-9.25-.2-.5-.45-1.45-.2-4.7q-.45-5.2-.6-11.2v-.5m44.75 86.25q2.1 2.15 4.35 4.05.15 4.4-3.4 3.75 1.45-1.95-.95-7.8m3.4 18-3.9-.95-7.95-10.85h3.25l8.6 11.8m-20.1-26.55-1-2.3q-3.55-9.05-1.3-9.7 3.4 15.7 9.9 17.35l-5.2-9.1q14.45 14.25 7.8 14.75-5.5-.95-10.2-11" fill="#8a704d" fill-rule="evenodd" transform="translate(-152.65 -114)"/><path d="m76.4 16.05-.5-.5Q50.95-1.95 35.2 12.8q-14.4 22.4-.95 34.4Q45.6 21.55 75.4 18.8q.85 0 2.15 1.15v-.65m.3 0q.95 0 .95-1.6l-1.6-.5v-.5l-.8-.65L76.7 0l4.9 39.4q.15.5.8 1.45m.15.35.15.15m-5.15-21.4v-.5m1.25-1.75-1.25-.5m0 2.75q.15 6 .6 11.2l.2 4.7.45 1.45v.5q0 1.1 1.15 3.7l.5 1.3m2.1-1.6-.15-.35M82.55 40.85v.35m.15.15q2.6 6.95 7.8 12V48.3q.3-4.35 1.15-8.1 2.75-12.95 8.9-18.95-7.3 14.1-4.4 28.2 2.3 20.75 10.05 36.5 10.4 8.25 16.1 19.75 2.1 2.15 4.35 4.05l1.8 1.65 3.05 2.45 6 4.5q18.2 12.65-1.3 6.65m-33.4-12.95-2.1-5.7q-8.25-2.25-6.45 2.3m-5.2-50.75L91 60.65q1.95 23.2 9.7 45.7M80.45 42.8q.65 3.4 2.25 6.35l6.35 8.75M82.7 41.35l-.15-.15" fill="none" stroke="#000" stroke-linecap="round" stroke-linejoin="round" stroke-opacity=".361" stroke-width=".05"/><path d="M75.9 15.55q-21.7-8.1-32.1 1.15-14.75 11.5-9.55 30.5" fill="none" stroke="#6c0" stroke-linecap="round" stroke-linejoin="round" stroke-opacity=".541" stroke-width=".25"/><path d="m228.25 129.4.3.15.5.5.3-16.05 1.8 14.45.3 3.25-1.25-.5h-.35l1.6.5q.65 7.75 1.95 15.4l.85 6.3q.15.5.8 1.45l.95 3.9v1.95l6.8 9.25-1.45-4.55 1.8 1.95v-5.05q.3-4.35 1.15-8.1 2.75-12.95 8.9-18.95-1.3 2.6-2.25 5.2-4.9 8.1-5.7 18.65-1.45 18.95 4.05 37.45 2.1 7.45 5.2 8.9 1.6.35 5 9.1 2.15 5.15 5.2 8.4l.5 1.95q5.5 7.15 12 12.5l-2.75-.65q-3.1-.8-5.85-1.95l-1.15-.5q-6-7.3-8.6-16.7l-.3-.8q1.8 7.15 5.85 15.9-4.7-2.75-8.95-6.65l-2.1-5.7q-7.75-22.5-9.7-45.7l-8.3-11.5q-1.6-2.95-2.25-6.35l-.5-1.3q-1.15-2.6-1.15-3.7v-.5l-.45-1.45-.2-4.7q-.45-5.2-.6-11.2-1.15-.95-1.95-1.15v-3.4" fill-opacity=".498" fill-rule="evenodd" transform="translate(-152.65 -114)"/></g></defs></svg>