<svg viewBox="0 0 90.95 82.75" xmlns="http://www.w3.org/2000/svg" xmlns:xlink="http://www.w3.org/1999/xlink"><use width="90.95" height="82.75" xlink:href="#a"/><defs><linearGradient id="c" x1="-819.2" x2="819.2" gradientTransform="matrix(.0065 -.0113 .0109 .0063 28 -14.95)" gradientUnits="userSpaceOnUse"><stop stop-color="#858d36" offset="0"/><stop stop-color="#a5b170" offset=".988"/></linearGradient><linearGradient id="d" x1="-819.2" x2="819.2" gradientTransform="matrix(.0008 .0036 -.0056 .0033 22.3 -1.45)" gradientUnits="userSpaceOnUse"><stop stop-color="#e7ddbe" offset="0"/><stop stop-color="#d2bc8a" offset=".988"/></linearGradient><linearGradient id="e" x1="-819.2" x2="819.2" gradientTransform="matrix(-.0141 -.0081 .0044 -.0077 .95 -10.3)" gradientUnits="userSpaceOnUse"><stop stop-color="#cbd896" offset="0"/><stop stop-color="#e8edcd" offset="1"/></linearGradient><linearGradient id="f" x1="-819.2" x2="819.2" gradientTransform="matrix(.0057 -.0099 .0037 .0021 36.95 -8.55)" gradientUnits="userSpaceOnUse"><stop stop-color="#cbd896" offset="0"/><stop stop-color="#e8edcd" offset="1"/></linearGradient><linearGradient id="g" x1="-819.2" x2="819.2" gradientTransform="matrix(.0059 -.0103 .0086 .005 29.25 -19.4)" gradientUnits="userSpaceOnUse"><stop stop-color="#cbd896" offset="0"/><stop stop-color="#e8edcd" offset="1"/></linearGradient><linearGradient id="h" x1="-819.2" x2="819.2" gradientTransform="matrix(.0089 -.0089 .0051 .0051 36.05 -7.5)" gradientUnits="userSpaceOnUse"><stop stop-color="#858d36" offset="0"/><stop stop-color="#a5b170" offset=".988"/></linearGradient><linearGradient id="i" x1="-819.2" x2="819.2" gradientTransform="matrix(.0064 -.0064 .0021 .0021 38.8 17.95)" gradientUnits="userSpaceOnUse"><stop stop-color="#cbd896" offset="0"/><stop stop-color="#e8edcd" offset="1"/></linearGradient><linearGradient id="j" x1="-819.2" x2="819.2" gradientTransform="matrix(.0111 -.0111 .0027 .0027 42.35 16.6)" gradientUnits="userSpaceOnUse"><stop stop-color="#858d36" offset="0"/><stop stop-color="#a5b170" offset=".988"/></linearGradient><linearGradient id="k" x1="-819.2" x2="819.2" gradientTransform="matrix(.0078 -.0135 .0038 .0022 40.1 4.05)" gradientUnits="userSpaceOnUse"><stop stop-color="#858d36" offset="0"/><stop stop-color="#a5b170" offset=".988"/></linearGradient><linearGradient id="l" x1="-819.2" x2="819.2" gradientTransform="matrix(.0087 -.0087 .004 .004 38.2 2.65)" gradientUnits="userSpaceOnUse"><stop stop-color="#cbd896" offset="0"/><stop stop-color="#e8edcd" offset="1"/></linearGradient><linearGradient id="m" x1="-819.2" x2="819.2" gradientTransform="matrix(-.0117 -.0067 .0052 -.009 3.45 -5.65)" gradientUnits="userSpaceOnUse"><stop stop-color="#858d36" offset="0"/><stop stop-color="#a5b170" offset=".988"/></linearGradient><linearGradient id="n" x1="-819.2" x2="819.2" gradientTransform="matrix(-.0113 -.0065 .0026 -.0045 -16.15 2.15)" gradientUnits="userSpaceOnUse"><stop stop-color="#cbd896" offset="0"/><stop stop-color="#e8edcd" offset="1"/></linearGradient><linearGradient id="o" x1="-819.2" x2="819.2" gradientTransform="matrix(-.0133 -.0076 .003 -.0052 -17.35 4.15)" gradientUnits="userSpaceOnUse"><stop stop-color="#858d36" offset="0"/><stop stop-color="#a5b170" offset=".988"/></linearGradient><linearGradient id="p" x1="-819.2" x2="819.2" gradientTransform="matrix(-.0136 -.0079 .0038 -.0065 -22.7 14.85)" gradientUnits="userSpaceOnUse"><stop stop-color="#cbd896" offset="0"/><stop stop-color="#e8edcd" offset="1"/></linearGradient><linearGradient id="q" x1="-819.2" x2="819.2" gradientTransform="matrix(-.0151 -.002 .0007 -.0052 -23.25 32.7)" gradientUnits="userSpaceOnUse"><stop stop-color="#cbd896" offset="0"/><stop stop-color="#e8edcd" offset="1"/></linearGradient><linearGradient id="r" x1="-819.2" x2="819.2" gradientTransform="matrix(-.0119 -.0031 .0017 -.0063 -19.85 36)" gradientUnits="userSpaceOnUse"><stop stop-color="#858d36" offset="0"/><stop stop-color="#a5b170" offset=".988"/></linearGradient><linearGradient id="s" x1="-819.2" x2="819.2" gradientTransform="matrix(-.0143 -.0038 .0015 -.0057 -21.4 19.85)" gradientUnits="userSpaceOnUse"><stop stop-color="#858d36" offset="0"/><stop stop-color="#a5b170" offset=".988"/></linearGradient><use width="90.95" height="82.75" xlink:href="#b" id="a"/><g id="b"><path d="m31.3-39.3-.2-1.6 7.95 25.1.45 1.55-2.4 3.15-5.3 6.85L29.1-.8l-2.65 3.45q.85-2.45.85-5.1l-.05-1.5L36.2-15.2l-4.9-24.1" fill="url(#c)" fill-rule="evenodd" transform="translate(45.45 41.4)"/><path d="m25.6 4.6-.15.25q-1.8 3.4-4.35 4.3t-4.4-1.2q-1-1.15-1.45-2.8.9-2.2 1.15-4.05.3-2.55-.55-4.6l.85-1.85.5-.85q.05 2.75.35 4.9l-.05.2q-.1 1.45.45 2.45.7 3.15 1.95 4.4l-.2 1h.9V6.3l.85.25-.05.3h1.05v-.4q1.4-.35 3.15-1.85" fill="#3a1d57" fill-rule="evenodd" transform="translate(45.45 41.4)"/><path d="M19.45-.15q-.4-.55-.3-1.25.05-.75.5-1.3.4-.55.95-.55.5 0 .9.55.3.55.25 1.3-.05.7-.45 1.25-.45.5-1 .5t-.85-.5m4-3.75q.35-.45.85-.45t.85.45q.3.5.25 1.2L25-1.55q-.4.5-.9.5-.55 0-.85-.5-.35-.5-.25-1.15.05-.7.45-1.2m-.8 5.3.2 2.25-1.15.4.7-2.5.25-.15" fill-rule="evenodd" transform="translate(45.45 41.4)"/><path d="M19.45-.15q.3.5.85.5t1-.5q.4-.55.45-1.25.05-.75-.25-1.3-.4-.55-.9-.55-.55 0-.95.55-.45.55-.5 1.3-.1.7.3 1.25m-1.5 1.5q-.55-1-.45-2.45l.05-.2q.15-2 1.6-3.65 1.45-1.8 3.4-2.15 1.95-.4 3.2.8t1.1 3.3-1.6 3.85L24 2.05l.1 3.4-.75.65.1-.9-.95.6-.05.65v.4H21.4l.05-.3.05-.6h-.85l-.05.35v.45h-.9l.2-1 .5-2.65q-1.05-.15-1.8-.9l-.65-.85m5.5-5.25q-.4.5-.45 1.2-.1.65.25 1.15.3.5.85.5.5 0 .9-.5l.4-1.15q.05-.7-.25-1.2-.35-.45-.85-.45t-.85.45m-.8 5.3-.25.15-.7 2.5 1.15-.4-.2-2.25" fill="url(#d)" fill-rule="evenodd" transform="translate(45.45 41.4)"/><path d="M26.45 2.65 25.6 4.6q-1.75 1.5-3.15 1.85l.05-.65.95-.6-.1.9.75-.65-.1-3.4 1.25-1.2Q26.7-.9 26.85-3t-1.1-3.3-3.2-.8q-1.95.35-3.4 2.15-1.45 1.65-1.6 3.65-.3-2.15-.35-4.9 1.65-2.7 3.9-3.5 2.55-.9 4.35 1.25l.85 1.2.6 1.55.35 1.75.05 1.5q0 2.65-.85 5.1m-8.5-1.3.65.85q.75.75 1.8.9l-.5 2.65q-1.25-1.25-1.95-4.4M20.6 6.3l.05-.35h.85l-.05.6-.85-.25" fill="#5e2f8d" fill-rule="evenodd" transform="translate(45.45 41.4)"/><path d="m-18.15-27.85-1.4-2.65L.4-6.45 15.85-3.5q.85 2.05.55 4.6L-1.55-3.3l-16.6-24.55" fill="url(#e)" fill-rule="evenodd" transform="translate(45.45 41.4)"/><path d="m39.05-15.8 2.2-7.15-.15 2.15-2.85 16.9-8.85 6.95-.3-3.85 2.7-3.45 3.95-1.6 1.35-5.25 2.4-3.15-.45-1.55" fill="url(#f)" fill-rule="evenodd" transform="translate(45.45 41.4)"/><path d="m26.3-7.25 7.75-9.05-2.75-23 4.9 24.1-8.95 11.25-.35-1.75-.6-1.55" fill="url(#g)" fill-rule="evenodd" transform="translate(45.45 41.4)"/><path d="M41.1-20.8 39.8-2.95l-10.15 9.8-.25-3.8 8.85-6.95 2.85-16.9" fill="url(#h)" fill-rule="evenodd" transform="translate(45.45 41.4)"/><path d="m31.85 25.7.7-4.05 6.1-2.9L45 8.3l-.4 1.45v.1L39.15 21.1l-7.3 4.6" fill="url(#i)" fill-rule="evenodd" transform="translate(45.45 41.4)"/><path d="M44.6 9.85 40.95 22.5l-9.85 7.25.75-4.05 7.3-4.6L44.6 9.85" fill="url(#j)" fill-rule="evenodd" transform="translate(45.45 41.4)"/><path d="M44.45-10.2 40.7 10.35l-8.15 7.55q-1.3-2.55-1.95-4.55l8.55-5.05 5.3-18.5" fill="url(#k)" fill-rule="evenodd" transform="translate(45.45 41.4)"/><path d="M30.6 13.35q-.6-1.9-.65-3.3L37.5 5.7l6.95-15.9-5.3 18.5-8.55 5.05" fill="url(#l)" fill-rule="evenodd" transform="translate(45.45 41.4)"/><path d="M15.25 5.15-3.35.2l-14.8-28.05L-1.55-3.3 16.4 1.1q-.25 1.85-1.15 4.05" fill="url(#m)" fill-rule="evenodd" transform="translate(45.45 41.4)"/><path d="m-35.05-11.6-1-1.5 16.5 13L-1.9 5.4q.5 2.2.15 4.2L-21.8 3.85-35.05-11.6" fill="url(#n)" fill-rule="evenodd" transform="translate(45.45 41.4)"/><path d="M-1.75 9.6q-.45 2.4-2.2 4.5l-19.1-7.55-12-18.15L-21.8 3.85-1.75 9.6" fill="url(#o)" fill-rule="evenodd" transform="translate(45.45 41.4)"/><path d="m-43.5 9-1.45-1.3 19.3 8.3 18.5.75q1.3 2.5 1.25 5.05L-27.75 19-43.5 9" fill="url(#p)" fill-rule="evenodd" transform="translate(45.45 41.4)"/><path d="m-38.85 30.35-1.35-.9 17.2 4 14.55-3.15q1.4 1.75 2.05 3.7l-15.4 3.15-17.05-6.8" fill="url(#q)" fill-rule="evenodd" transform="translate(45.45 41.4)"/><path d="M-6.4 34q.75 2.3.5 4.85l-16.5 2-16.45-10.5 17.05 6.8L-6.4 34" fill="url(#r)" fill-rule="evenodd" transform="translate(45.45 41.4)"/><path d="M-5.9 21.8q-.1 1.9-1 3.85l-20.4-2.35L-43.5 9l15.75 10 21.85 2.8" fill="url(#s)" fill-rule="evenodd" transform="translate(45.45 41.4)"/><path d="m76.75 2.1-.2-1.6 7.95 25.1 2.2-7.15-.15 2.15-1.3 17.85-10.15 9.8-.25-3.8-.3-3.85-2.65 3.45-.85 1.95-.15.25q-1.8 3.4-4.35 4.3t-4.4-1.2q-1-1.15-1.45-2.8L42.1 41.6 27.3 13.55l-1.4-2.65 19.95 24.05L61.3 37.9l.85-1.85.5-.85q1.65-2.7 3.9-3.5 2.55-.9 4.35 1.25l.85 1.2 7.75-9.05-2.75-23M72.7 37.45l.05 1.5q0 2.65-.85 5.1m-7-2.8q.3.5.85.5t1-.5q.4-.55.45-1.25.05-.75-.25-1.3-.4-.55-.9-.55-.55 0-.95.55-.45.55-.5 1.3-.1.7.3 1.25M63 40.1l-.05.2q-.1 1.45.45 2.45l.65.85q.75.75 1.8.9l-.5 2.65-.2 1h.9v-.45l.05-.35h.85l-.05.6-.05.3h1.05v-.4l.05-.65.95-.6-.1.9.75-.65-.1-3.4 1.25-1.2q1.45-1.75 1.6-3.85t-1.1-3.3-3.2-.8q-1.95.35-3.4 2.15-1.45 1.65-1.6 3.65m21.5-14.5.45 1.55-2.4 3.15-1.35 5.25-3.95 1.6-2.7 3.45m-5.65-3.1q-.4.5-.45 1.2-.1.65.25 1.15.3.5.85.5.5 0 .9-.5l.4-1.15q.05-.7-.25-1.2-.35-.45-.85-.45t-.85.45m2.85-3.35.6 1.55.35 1.75m9.85-7.15-5.3 6.85m.05 29.95.7-4.05 6.1-2.9 6.35-10.45-.4 1.45m0 .1L86.4 63.9l-9.85 7.25.75-4.05m-9.2-24.3.2 2.25-1.15.4.7-2.5.25-.15m21.8-11.6-3.75 20.55L78 59.3q-1.3-2.55-1.95-4.55-.6-1.9-.65-3.3l7.55-4.35 6.95-15.9M60.7 46.55q.9-2.2 1.15-4.05m-.55-4.6q.85 2.05.55 4.6M10.4 29.8l-1-1.5 16.5 13 17.65 5.5q.5 2.2.15 4.2-.45 2.4-2.2 4.5l-19.1-7.55-12-18.15M1.95 50.4.5 49.1l19.3 8.3 18.5.75q1.3 2.5 1.25 5.05-.1 1.9-1 3.85l-20.4-2.35-16.2-14.3M6.6 71.75l-1.35-.9 17.2 4L37 71.7q1.4 1.75 2.05 3.7.75 2.3.5 4.85l-16.5 2L6.6 71.75" fill="none" stroke="#000" stroke-linecap="round" stroke-linejoin="round" stroke-opacity=".4" stroke-width=".5"/><path d="m16.7-5.35.5-.85q1.65-2.7 3.9-3.5 2.55-.9 4.35 1.25l.85 1.2 7.75-9.05-2.95-24.6 7.95 25.1 2.2-7.15-1.45 20-10.15 9.8L29.1-.8l-2.65 3.45-.85 1.95-.15.25q-1.8 3.4-4.35 4.3t-4.4-1.2q-1-1.15-1.45-2.8L-3.35.2l-16.2-30.7L.4-6.45 15.85-3.5l.85-1.85m15.1 1.1 5.3-6.85-1.35 5.25-3.95 1.6m9.15 26.75-9.85 7.25 1.45-8.1 6.1-2.9L45 8.3l-4.05 14.2m-8.4-4.6 8.15-7.55 3.75-20.55L37.5 5.7l-7.55 4.35q.05 1.4.65 3.3.65 2 1.95 4.55m-52.1-18L-1.9 5.4q.5 2.2.15 4.2-.45 2.4-2.2 4.5l-19.1-7.55-13-19.65 16.5 13m12.4 16.85-18.5-.75-19.3-8.3 17.65 15.6 20.4 2.35q.9-1.95 1-3.85.05-2.55-1.25-5.05m-33.05 12.7 17.2 4 14.55-3.15q1.4 1.75 2.05 3.7.75 2.3.5 4.85l-16.5 2-17.8-11.4" fill="none" stroke="#000" stroke-linecap="round" stroke-linejoin="round" stroke-opacity=".4" transform="translate(45.45 41.4)"/></g></defs></svg>