<svg viewBox="0 0 92.6 76.342" xmlns="http://www.w3.org/2000/svg" xmlns:xlink="http://www.w3.org/1999/xlink"><g transform="translate(-267.02 -67.972)"><use transform="translate(291.15 105.95)" width="22.05" height="21.65" xlink:href="#a"/><use transform="translate(267.05 68)" width="92.55" height="76.3" xlink:href="#b"/></g><defs><g id="c"><path d="M-9.55 3.45h-.15Q-11 3.1-11 1.05q.55-1.1 1.3-.9Q-9.55-3.4-7.15-6q2.25-2.2 5.4-2.6v-.35q-.2-.75.35-1.3t1.5-.55q.55 0 1.1.55.4 3.15-2.95 1.65 0 .4.35.75l.4.4q.35 3.5-5.55 2.75-2.6 2.4-2.25 6.1l1.3.4 1.65.35q1.15 1.5-2.2.55-2.8-.7-1.5.6v.15m7.25 7.25q-2.8-.55-4.85-2.6-1.45-1.65-2.2-3.55V4.2l.95.55q.9.2.9.4.35 2.4 5.2 5.55M-9.7.15l-.2.9 1.1.35-1.1-.35.2-.9" fill="#ddc100" fill-rule="evenodd" transform="translate(11 10.8)"/><path d="m1.2-10.25.75 1.3-.2.35-.15.4-.4.35-1.1.75-1.1-.35-.4-.4q-.35-.35-.35-.75Q1.6-7.1 1.2-10.25M10.85 2q-.2.7-.75 1.1l-.35.35-1.15.4Q.3 6.6-9.55 3.45V3.3q-1.3-1.3 1.5-.6 3.35.95 2.2-.55l11.5.4q-11.85 0-11.3-1.3 0-3.15 2.05-4.1 3.35.2 3.7-3.5 2.8-.4 2.2-1.7Q8.45-6 9.35 1.4l-1.3.4q-1.3 1.85 2.8.2m-7.4 8.5-2.05.35.75-.35V9.2L2.9 9q.55-.35.55-.9-.2-.75-.95-1.1-.75-.55-1.1-.55l-.75.35q-.55 0-.9.35-.6.4-.6.95L.1 9q.2.75-.2 1.3l-.35.4-.95.15-.9-.15q-4.85-3.15-5.2-5.55 8.55 2.2 15.95-.2-.95 2.4-5 5.55m4.6-8.7-2.4.75 2.4-.75" fill="#af8d00" fill-rule="evenodd" transform="translate(11 10.8)"/><path d="m9.75 3.45-.4 1.3-.9.2q-7.4 2.4-15.95.2 0-.2-.9-.4l-.95-.55-.2-.75Q.3 6.6 8.6 3.85l1.15-.4m-15.6-1.3L-7.5 1.8l-1.3-.4q-.35-3.7 2.25-6.1 5.9.75 5.55-2.75l1.1.35 1.1-.75.4-.35.7.15q.6 1.3-2.2 1.7-.35 3.7-3.7 3.5-2.05.95-2.05 4.1-.55 1.3 11.3 1.3l-11.5-.4" fill="#7e6500" fill-rule="evenodd" transform="translate(11 10.8)"/><path d="m-.45 10.7-.55.15h-.4l.95-.15" fill="#deb100" fill-rule="evenodd" transform="translate(11 10.8)"/><path d="M-.1 10.3Q.3 9.75.1 9l-.95-.9q0-.55.6-.95.35-.35.9-.35l.75-.35q.35 0 1.1.55.75.35.95 1.1 0 .55-.55.9l-.75.2v1.3l-2.25-.2" fill-rule="evenodd" transform="translate(11 10.8)"/><path d="M1.4 10.85Q.85 10.3.1 10.5l-.55.2.35-.4 2.25.2-.75.35" fill="#540" fill-rule="evenodd" transform="translate(11 10.8)"/><path d="M1.75-8.6q3 .4 5.2 2.6Q9.35-3.6 9.9-.25q.95.2 1.15 1.3l-.2.95q-4.1 1.65-2.8-.2l1.3-.4Q8.45-6 2.3-8.05l-.7-.15.15-.4m7.6 13.35q-.9 1.7-2.4 3.35-1.65 1.65-3.5 2.4 4.05-3.15 5-5.55l.9-.2m.55-5v1.3q-.35.2-.55.35.2-.15.55-.35v-1.3" fill="#dede00" fill-rule="evenodd" transform="translate(11 10.8)"/><path d="M1.45 14.25H1.3Q0 13.9 0 11.85q.55-1.1 1.3-.9.15-3.55 2.55-6.15 2.25-2.2 5.4-2.6v-.35q-.2-.75.35-1.3T11.1 0q.55 0 1.1.55l.75 1.3-.2.35q3 .4 5.2 2.6 2.4 2.4 2.95 5.75.95.2 1.15 1.3l-.2.95q-.2.7-.75 1.1l-.35.35-.4 1.3q-.9 1.7-2.4 3.35-1.65 1.65-3.5 2.4l-2.05.35m-2.8 0-.9-.15q-2.8-.55-4.85-2.6-1.45-1.65-2.2-3.55V15l-.2-.75q9.85 3.15 18.15.4l1.15-.4m-15.6-1.3L3.5 12.6l-1.3-.4-1.1-.35.2-.9m8.7-7.6-.4-.4q-.35-.35-.35-.75m3.35.4-.4.35-1.1.75-1.1-.35m2.6-.75.15-.4m7.6 10-1.3.4m1.3-.4q.2-.15.55-.35v-1.3m-4.25 2.8 2.4-.75m-13.9.35 11.5.4" fill="none" stroke="#000" stroke-linecap="round" stroke-linejoin="round" stroke-opacity=".4" stroke-width=".05"/><path d="M12.4 21.65q-.55-.55-1.3-.35l-.55.2-.55.15h-.4m1.3-.55q.4-.55.2-1.3l-.95-.9q0-.55.6-.95.35-.35.9-.35l.75-.35q.35 0 1.1.55.75.35.95 1.1 0 .55-.55.9l-.75.2v1.3l-.75.35m-1.5-.55-.35.4-.95.15" fill="none" stroke="#000" stroke-linecap="round" stroke-linejoin="round" stroke-opacity=".4" stroke-width=".05"/><path d="m-5.4-6.15.65-.65.85-.2.5.2q.15.2-.05.6-.25.35-.65.55l-.85.3-.55-.2.1-.6M-1.25-9.75l.35-.45.55-.05q.3.05.45.3l.05.55-.35.45-.55.05-.4-.3-.1-.55M-10.25 1.35l.5.3.25.45-.1.4-.35.05-.45-.25-.3-.5.05-.35.4-.1" fill="#dedede" fill-rule="evenodd" transform="translate(11 10.8)"/></g><g id="b"><path d="m276.3 117.05.4.75.35.35q.35 3.55-5.55 2.8-2.6 2.4-2.25 6.1l-1.1-.35.2-.95-.2.95 1.1.35 1.3.4 1.7.35q1.1 1.5-2.25.55-2.75-.75-1.5.55v.2h-.15q-1.3-.35-1.3-2.4.55-1.1 1.3-.95.15-3.5 2.6-6.1 2.2-2.2 5.35-2.6v-.35q-.2-.75.4-1.3.55-.55 1.45-.55.55 0 1.1.55.4 3.15-2.95 1.65m-.55 19.3q-2.8-.55-4.8-2.6-1.5-1.7-2.25-3.55v-.35l.95.55q.9.2.9.35.4 2.45 5.2 5.6" fill="#fede01" fill-rule="evenodd" transform="translate(-267.05 -68)"/><path d="m277.05 118.15-.35-.35-.4-.75q3.35 1.5 2.95-1.65.6.55.75 1.3-.15.2-.15.35l-.2.4-.4.35-1.1.75-1.1-.4m10.35 8.9-1.25.4q-1.3 1.85 2.75.15-.2.75-.75 1.15l-.35.35-1.1.4q-8.35 2.75-18.2-.4v-.2q-1.25-1.3 1.5-.55 3.35.95 2.25-.55l11.45.4q-11.85 0-11.3-1.3 0-3.15 2.05-4.1 3.35.2 3.7-3.5 2.8-.4 2.25-1.7 6.1 2.05 7 9.45m-1.25.4-2.45.75 2.45-.75m-4.65 8.7-2.05.35.75-.35q.2-.55 0-1.3l.75-.2q.55-.35.55-.9-.2-.75-.95-1.1-.7-.6-1.1-.6l-.75.4q-.55 0-.9.35-.55.4-.55.95l.9.9q.2.75-.2 1.3l-.35.4-.9.15-.95-.15q-4.8-3.15-5.2-5.6 8.55 2.25 15.95-.15-.95 2.4-5 5.55" fill="#caa200" fill-rule="evenodd" transform="translate(-267.05 -68)"/><path d="M269.25 127.05q-.35-3.7 2.25-6.1 5.9.75 5.55-2.8l1.1.4 1.1-.75.4-.35.75.15q.55 1.3-2.25 1.7-.35 3.7-3.7 3.5-2.05.95-2.05 4.1-.55 1.3 11.3 1.3l-11.45-.4-1.7-.35-1.3-.4m18.55 2.05-.4 1.3-.9.2q-7.4 2.4-15.95.15 0-.15-.9-.35l-.95-.55-.2-.75q9.85 3.15 18.2.4l1.1-.4" fill="#917400" fill-rule="evenodd" transform="translate(-267.05 -68)"/><path d="m277.6 136.35-.55.15h-.35l.9-.15" fill="#fc0" fill-rule="evenodd" transform="translate(-267.05 -68)"/><path d="M277.95 135.95q.4-.55.2-1.3l-.9-.9q0-.55.55-.95.35-.35.9-.35l.75-.4q.4 0 1.1.6.75.35.95 1.1 0 .55-.55.9l-.75.2q.2.75 0 1.3l-2.25-.2" fill-rule="evenodd" transform="translate(-267.05 -68)"/><path d="M279.45 136.5q-.55-.55-1.3-.35l-.55.2.35-.4 2.25.2-.75.35" fill="#624f00" fill-rule="evenodd" transform="translate(-267.05 -68)"/><path d="m279.65 117.45.2-.4q2.95.4 5.15 2.6 2.4 2.4 3 5.75.9.2 1.1 1.3l-.2.9q-4.05 1.7-2.75-.15l1.25-.4.6-.35v-1.3 1.3l-.6.35q-.9-7.4-7-9.45l-.75-.15m7.75 12.95q-.9 1.65-2.4 3.35-1.65 1.65-3.5 2.4 4.05-3.15 5-5.55l.9-.2" fill="#ff0" fill-rule="evenodd" transform="translate(-267.05 -68)"/><path d="m10 50.15-.35-.35-.4-.75q-3.15.4-5.35 2.6-2.45 2.6-2.6 6.1l-.2.95 1.1.35m7.8-8.9 1.1.4 1.1-.75.4-.35.2-.4q0-.15.15-.35-.15-.75-.75-1.3m-2.95 1.65v-.35q-.2-.75.4-1.3.55-.55 1.45-.55.55 0 1.1.55m8.15 11.65-1.25.4m2.75.15.2-.9q-.2-1.1-1.1-1.3v1.3l-.6.35m-3.7 1.15 2.45-.75m1.65 1.65-.4 1.3q-.9 1.65-2.4 3.35-1.65 1.65-3.5 2.4l-2.05.35m-2.75 0-.95-.15q-2.8-.55-4.8-2.6-1.5-1.7-2.25-3.55v-.35l-.2-.75H1.3Q0 60.75 0 58.7q.55-1.1 1.3-.95m20.55 1.85q-.2.75-.75 1.15l-.35.35-1.1.4q-8.35 2.75-18.2-.4m3.75-1.3-1.7-.35-1.3-.4m10.6-10q2.95.4 5.15 2.6 2.4 2.4 3 5.75M5.2 59.8l11.45.4" fill="none" stroke="#000" stroke-linecap="round" stroke-linejoin="round" stroke-opacity=".4" stroke-width=".05"/><path d="M12.4 68.5q-.55-.55-1.3-.35l-.55.2-.55.15h-.35m1.25-.55q.4-.55.2-1.3l-.9-.9q0-.55.55-.95.35-.35.9-.35l.75-.4q.4 0 1.1.6.75.35.95 1.1 0 .55-.55.9l-.75.2q.2.75 0 1.3l-.75.35m-1.5-.55-.35.4-.9.15" fill="none" stroke="#000" stroke-linecap="round" stroke-linejoin="round" stroke-opacity=".4" stroke-width=".05"/><path d="M272.65 119.5q.2-.4.65-.65l.85-.2q.4-.05.5.2l-.05.6-.65.55-.85.3-.55-.2q-.1-.25.1-.6M276.8 115.9q.1-.3.35-.45l.55-.05.45.3.05.55-.35.45-.55.05-.4-.3-.1-.55M267.85 127l.5.3.25.45-.1.4-.35.05-.45-.25-.3-.5q-.05-.25.05-.35l.4-.1" fill="#fff" fill-rule="evenodd" transform="translate(-267.05 -68)"/><path d="M300.95 107.75q-.3-.8 1.5-4.25 12.05-20.4 25.5-34.35 1.05.5 1.9 1.15-15 14.65-27.6 35.15l-1.3 2.3" fill="#994d99" fill-rule="evenodd" transform="translate(-267.05 -68)"/><path d="M302.25 105.45q12.6-20.5 27.6-35.15 4.45 3.95 2.5 14.15-8.8 2.45-30.1 21" fill="#636" fill-rule="evenodd" transform="translate(-267.05 -68)"/><path d="m300.95 107.75 1.3-2.3q21.3-18.55 30.1-21l-.3 1.3q-14.7 7.7-29.8 22.15-1.15.5-1.3-.15" fill="#947195" fill-rule="evenodd" transform="translate(-267.05 -68)"/><path d="M62.8 2.3q-.85-.65-1.9-1.15Q47.45 15.1 35.4 35.5q-1.8 3.45-1.5 4.25M62.8 2.3q4.45 3.95 2.5 14.15l-.3 1.3q-14.7 7.7-29.8 22.15-1.15.5-1.3-.15" fill="none" stroke="#000" stroke-linecap="round" stroke-linejoin="round" stroke-opacity=".4" stroke-width=".05"/><path d="m324.95 74.9-.3-.65q1.35-6.4 8.95-6.25 21.6 14.3 23.4 46-3.55 4.4-12.9 9 2.35-29.2-10.75-52.5-4.1-1.65-8.4 4.4" fill="#994d99" fill-rule="evenodd" transform="translate(-267.05 -68)"/><path d="M335.65 125.8q2.3-28.9-4.95-43h-2.45v-.15l-3.3-7.75q4.3-6.05 8.4-4.4 13.1 23.3 10.75 52.5-2.55 1.15-8.45 2.8" fill="#636" fill-rule="evenodd" transform="translate(-267.05 -68)"/><path d="m331.35 90.7-3.1-7.9h2.45q7.25 14.1 4.95 43l-1.9.5q2.3-23.3-2.4-35.6" fill="#947195" fill-rule="evenodd" transform="translate(-267.05 -68)"/><path d="M64.3 22.7Q69 35 66.7 58.3M57.6 6.25Q58.95-.15 66.55 0q21.6 14.3 23.4 46M61.2 14.8l3.1 7.9m-3.1-7.9v-.15" fill="none" stroke="#000" stroke-linecap="round" stroke-linejoin="round" stroke-opacity=".4" stroke-width=".05"/><path d="M277.15 117.6q-.45-.8.05-3.8 4-21.65 11.7-37.75 1.5 0 2.9.65-6.15 2.3-14.2 38.75-.3 1-.45 2.15" fill="#994d99" fill-rule="evenodd" transform="translate(-267.05 -68)"/><path d="M277.6 115.45Q285.65 79 291.8 76.7q5.15 2.3 6.85 11.5-7.95 4.75-21.05 27.25" fill="#636" fill-rule="evenodd" transform="translate(-267.05 -68)"/><path d="M277.15 117.6q.15-1.15.45-2.15 13.1-22.5 21.05-27.25l.25 1q-11.1 11.15-20.45 28.4-1 .8-1.3 0" fill="#947195" fill-rule="evenodd" transform="translate(-267.05 -68)"/><path d="M24.75 8.7q-1.4-.65-2.9-.65-7.7 16.1-11.7 37.75-.5 3-.05 3.8M24.75 8.7Q29.9 11 31.6 20.2l.25 1Q20.75 32.35 11.4 49.6q-1 .8-1.3 0" fill="none" stroke="#000" stroke-linecap="round" stroke-linejoin="round" stroke-opacity=".4" stroke-width=".05"/><path d="M329.45 129.95q-.5.9-.7 1.7l-3.4.4-1.55 3.9q-1.6 5.25 1.45 7.85-3.15-1.3-5.4-6.9v-1.5q0-4.05 6-5.25l3.6-.2" fill="#636" fill-rule="evenodd" transform="translate(-267.05 -68)"/><path d="M328.75 131.65q-3.55 7.5 0 12.5-1.9.4-3.5-.35-3.05-2.6-1.45-7.85l1.55-3.9 3.4-.4" fill="#994d99" fill-rule="evenodd" transform="translate(-267.05 -68)"/><path d="M62.4 61.95q-.5.9-.7 1.7-3.55 7.5 0 12.5-1.9.4-3.5-.35-3.15-1.3-5.4-6.9" fill="none" stroke="#000" stroke-linecap="round" stroke-linejoin="round" stroke-opacity=".4" stroke-width=".05"/><path d="M52.8 68.9v-1.5q0-4.05 6-5.25l3.6-.2z" fill="none" stroke="#000" stroke-linecap="round" stroke-linejoin="round" stroke-opacity=".4" stroke-width=".05"/><path d="M355.1 136.95q-5.1-8.2-11.35-8.85-11-4.75-12.5-13.95 15.55-5.4 25.95 0l2.4 9.05q-.1 8.7-4.5 13.75" fill="#994d99" fill-rule="evenodd" transform="translate(-267.05 -68)"/><path d="M321.6 136.3q-5.4-2.75-4.15-15.75 7.3-4.1 13.8-6.4 1.5 9.2 12.5 13.95 6.25.65 11.35 8.85-.6.5-1.25 1.15-5.95-11-21.4-10-7.75 2.95-10.85 8.2" fill="#636" fill-rule="evenodd" transform="translate(-267.05 -68)"/><path d="M321.6 136.3q-.4.5-.65 1.15l-3-1.8q-2.7-5.9-1.5-14.6l1-.5q-1.25 13 4.15 15.75" fill="#947195" fill-rule="evenodd" transform="translate(-267.05 -68)"/><path d="M49.4 53.05q-1.2 8.7 1.5 14.6l3 1.8q.25-.65.65-1.15 3.1-5.25 10.85-8.2 15.45-1 21.4 10 .65-.65 1.25-1.15 4.4-5.05 4.5-13.75l-2.4-9.05" fill="none" stroke="#000" stroke-linecap="round" stroke-linejoin="round" stroke-opacity=".4" stroke-width=".05"/><path d="M287.8 79.45q0-5.75 10.35-5.75 11.7 4.25 20.8 10.2-3 1.1-5.6 2.95l-1.45 1.1-.75.75q-7.6-6.85-17.25-11.65-2.75-.55-5.35 3.15l-.75-.75m46.5 17.6.95 1.1q6.1 7.25 10 15.95-3.55 3.7-11.85 6.65-4.65-11.65-11.7-20.75l.2-.15q0-.2.35-.2l1.1-.55q4.1-2.25 9.45-2.25l.6.2q.35-.2.9 0" fill="#994d99" fill-rule="evenodd" transform="translate(-267.05 -68)"/><path d="M288.55 80.2q2.6-3.7 5.35-3.15 9.65 4.8 17.25 11.65-2.95 2.6-5.2 6.3-4.8-6.65-10.75-10.55l-.35 2.05-6.3-6.3m44.85 40.55q-6.5 2.05-15.75 3.7-.2-6.85-3.75-15.15l.4-.6.35-.9.2-.35q2.95-4.85 6.85-7.45 7.05 9.1 11.7 20.75" fill="#636" fill-rule="evenodd" transform="translate(-267.05 -68)"/><path d="m317.65 124.45-.75.2q-1.5-6.5-3.35-11.85l-.55-1.5.2-.35q0-.35.15-.55l.55-1.1q3.55 8.3 3.75 15.15m-12.6-27.6-3-3.3-6.65-6.5-.55-.55.35-2.05q5.95 3.9 10.75 10.55l-.9 1.85" fill="#947195" fill-rule="evenodd" transform="translate(-267.05 -68)"/><path d="M305.95 95q2.25-3.7 5.2-6.3 5.2 4.45 9.65 10l.9 1.3q-3.9 2.6-6.85 7.45l-.2.35-.35.9-.4.6-.55-1.3q-2.2-4.85-5.35-10l-2.05-3" fill="#f90" fill-rule="evenodd" transform="translate(-267.05 -68)"/><path d="m311.15 88.7.75-.75 1.45-1.1q2.6-1.85 5.6-2.95 6.85 4.45 12.4 9.8l2.95 3.35q-.55-.2-.9 0l-.6-.2q-5.35 0-9.45 2.25l-1.1.55q-.35 0-.35.2l-.2.15-.9-1.3q-4.45-5.55-9.65-10m1.85 22.6-.55-1.3q-3.15-7.6-7.4-13.15l.9-1.85 2.05 3q3.15 5.15 5.35 10l.55 1.3-.55 1.1q-.15.2-.15.55l-.2.35" fill="#fc0" fill-rule="evenodd" transform="translate(-267.05 -68)"/><path d="M51.9 15.9Q42.8 9.95 31.1 5.7q-10.35 0-10.35 5.75M51.9 15.9q6.85 4.45 12.4 9.8l2.95 3.35m.95 1.1q6.1 7.25 10 15.95M49.85 56.65q-1.5-6.5-3.35-11.85m-.55-1.5L45.4 42q-3.15-7.6-7.4-13.15l-3-3.3" fill="none" stroke="#000" stroke-linecap="round" stroke-linejoin="round" stroke-opacity=".4" stroke-width=".05"/><path d="m325.25 103.2 3.15-1.25 4.25 9.4 3.85-.85-2.15 10.75-.85-.4-8.25-17.65" fill="#fc0" fill-rule="evenodd" transform="translate(-267.05 -68)"/><path d="m333.5 120.85-9.25-5.15 4.3-2.1-5.75-9.45 2.45-.95 8.25 17.65" fill="#f90" fill-rule="evenodd" transform="translate(-267.05 -68)"/></g><use width="22.05" height="21.65" xlink:href="#c" id="a"/></defs></svg>