<svg viewBox="0 0 62.932 62.2" xmlns="http://www.w3.org/2000/svg" xmlns:xlink="http://www.w3.org/1999/xlink"><use transform="translate(.02 .03)" width="62.9" height="62.15" xlink:href="#a"/><defs><g id="a"><path d="m265.85 175.5-.6-.05.55-.2.05.25" fill="#4f4d3c" fill-rule="evenodd" transform="translate(-246 -163.85)"/><path d="M265.25 175.45q-1.45.45-2.7 1l2.3-1q1.85-.7 3.5-.9l-2.55.7-.55.2" fill="#996" fill-rule="evenodd" transform="translate(-246 -163.85)"/><path d="m268.35 174.55 6.35-1.2 9.3.25.5.15.35.05 2.1.7.85.35 1.05 1q2.65 3.3 3.1 11.6l.3 2.25v.05h-.2q-5.45.25-11.3 2.9l-1.05-4.25-.05-.05q-2.35-6.55-5.1-9.85l.1-.1q2.4-2.15 1.75-3.3-.7-1.2-4.1-.7l-3.1.65-.65-.05h-.3l-.8.05-1.6.45-.05-.25 2.55-.7" fill="#e49432" fill-rule="evenodd" transform="translate(-246 -163.85)"/><path d="m246.35 199.5.1-.65q2.05-10.6 8.25-17.15 2.95-3.15 7.7-5.15l.15-.1q1.25-.55 2.7-1l.6.05 1.3.2-2.55 1q-4.2 1.85-6.6 4-2.55 2.15-1.85 3.3.65 1.15 4.15.7 3.4-.5 7.6-2.3 2.95-1.35 5.1-2.75 3 3.45 5.4 9.8l.75 3.85v.1l-.25.1q-3.55 1.95-7.05 5.5h-.05q-2.25 2.05-2.15 5.5l.7 10.2-4.4-.95q-2.85-.8-5.4-1.9-3.5-3.95-3.8-10.25-.15 3.05-1 6.55l-.25 1-.1.2q-.45.95-3.6 1.15-3.5.15-5.45-11m6.3.6q-.7 2.55-1.45.75 1-10.6 4-8.25 1.8 3.9 1.55 9 .25-5.1-1.55-9-3-2.35-4 8.25.75 1.8 1.45-.75m38.65-23.4q2.95 1.95 5.45 5 5.35 6.6 6.7 13.8l-3.1-3.55-2.1-1.4q-.9-.65-3.8-.75l-.2-1.4q-1.35-10.05-2.95-11.7m-36.1 21.2q1.45 2.65.85 0l-.75-3.45-.4-1.2q-.3-.3-.7-.25-.45-.05-.7.25-.3.35-.3.85t.3.8l1.7 3m24.45-9.55.05.05h-.05v-.05m-6.55-2.3-4.2-1.2-1.1 1.3q.25-1.25-1.15.7-1 3.6 4.6.55l1.85-1.35" fill="#978f3e" fill-rule="evenodd" transform="translate(-246 -163.85)"/><path d="M273 179.65q-2.7-3.15-5.85-3.95l-1.3-.2 1.6-.45.8-.05h.3l.65.05q2.85.4 5.35 3.45 2.75 3.3 5.1 9.85v.05h.05l1.05 4.25-1.6.75v-.1l-.75-3.85q-2.4-6.35-5.4-9.8m14.8-4.8q1.55.6 3 1.5l.05.05.45.3q1.6 1.65 2.95 11.7l.2 1.4-2.2-.05v-.05l-.3-2.25q-.45-8.3-3.1-11.6l-1.05-1" fill="#fff" fill-rule="evenodd" transform="translate(-246 -163.85)"/><path d="M273 179.65q-2.15 1.4-5.1 2.75-4.2 1.8-7.6 2.3-3.5.45-4.15-.7-.7-1.15 1.85-3.3 2.4-2.15 6.6-4l2.55-1q3.15.8 5.85 3.95m-17.8 18.25-1.7-3q-.3-.3-.3-.8t.3-.85q.25-.3.7-.25.4-.05.7.25l.4 1.2.75 3.45q.6 2.65-.85 0m17.9-11.85-1.85 1.35q-5.6 3.05-4.6-.55 1.4-1.95 1.15-.7l1.1-1.3 4.2 1.2" fill="#bdbd53" fill-rule="evenodd" transform="translate(-246 -163.85)"/><path d="M246.35 199.5q1.95 11.15 5.45 11 3.15-.2 3.6-1.15-1.75 5.3-5.3 2.25-1.45-1.2-3.15-3.7-1.3-4.05-.6-8.4m51.75 17.95q-2-.5-1.9-1.75.6-2.05.8-4.45 1.15-6.05-1.05-11.2 1.25-2.1 2.1-.95 2.4 5.45.25 15.55-.3 1.55-.2 2.8" fill="#635821" fill-rule="evenodd" transform="translate(-246 -163.85)"/><path d="m269.2 175.05 3.1-.65q3.4-.5 4.1.7.65 1.15-1.75 3.3l-.1.1q-2.5-3.05-5.35-3.45" fill="#fee181" fill-rule="evenodd" transform="translate(-246 -163.85)"/><path d="m282.95 205.1-1.75-.2-2.05-11.5 1.6-.75q1.35 5.85 2.2 12.45m9.3-15.35 2.2.05.7 8.55v.3l.15 2.4-1.45 1.25-.1-1.25-1.5-11.3" fill="#b18b34" fill-rule="evenodd" transform="translate(-246 -163.85)"/><path d="M291.6 203.65q-3.75 1.8-8.65 1.45-.85-6.6-2.2-12.45 5.85-2.65 11.3-2.9h.2l1.5 11.3.1 1.25-2.25 1.35" fill="#883d15" fill-rule="evenodd" transform="translate(-246 -163.85)"/><path d="m255.4 209.35.1-.2.25-1q.85-3.5 1-6.55.3 6.3 3.8 10.25 2.55 1.1 5.4 1.9l4.4.95-.7-10.2q-.1-3.45 2.15-5.5h.05q3.5-3.55 7.05-5.5l.25-.1 2.05 11.5-4.7-1.05q-3.55-2.8-3.85-.4-.35 8.65.9 16.2.6 6-4.95 6.25-7.85-1.95-14.5-7.85l-.7-.6v-.05q-3.5-3.35-3.3-5.8 3.55 3.05 5.3-2.25m48.05-13.85q.45 2.55.4 5.2l-.15 2.75-.7 4.05-.6 2.3q-1.2 3.95-3.3 7.05l-1 .6q-.1-1.25.2-2.8 2.15-10.1-.25-15.55-.85-1.15-2.1.95l-.4.75-.25.25-.15-2.4v-.3l-.7-8.55q2.9.1 3.8.75l2.1 1.4 3.1 3.55" fill="#403514" fill-rule="evenodd" transform="translate(-246 -163.85)"/><path d="M297 211.25q-.65-5.55-5.4-7.6l2.25-1.35 1.45-1.25.25-.25.4-.75q2.2 5.15 1.05 11.2" fill="#31301c" fill-rule="evenodd" transform="translate(-246 -163.85)"/><path d="m19.25 11.6.55-.2" fill="none" stroke="#888851" stroke-linecap="round" stroke-linejoin="round" stroke-width=".25"/><path d="m16.55 12.6-.15.1q-4.75 2-7.7 5.15Q2.5 24.4.45 35l-.1.65M9.4 45.5l.1-.2.25-1q.85-3.5 1-6.55.25-5.1-1.55-9-3-2.35-4 8.25.75 1.8 1.45-.75m12.6-24.65q-1.45.45-2.7 1m5.8-1.9 6.35-1.2 9.3.25.5.15.35.05 2.1.7.85.35q1.55.6 3 1.5l.05.05.45.3q2.95 1.95 5.45 5 5.35 6.6 6.7 13.8.45 2.55.4 5.2l-.15 2.75-.7 4.05-.6 2.3Q55.2 49.9 53.1 53m-30.5 9.05Q14.75 60.1 8.1 54.2l-.7-.6v-.05q-3.5-3.35-3.3-5.8-1.45-1.2-3.15-3.7-1.3-4.05-.6-8.4M19.8 11.4l2.55-.7M9.4 45.5q-1.75 5.3-5.3 2.25" fill="none" stroke="#505030" stroke-linecap="round" stroke-linejoin="round" stroke-width=".25"/><path d="m53.1 53-1 .6q-2-.5-1.9-1.75.6-2.05.8-4.45 1.15-6.05-1.05-11.2 1.25-2.1 2.1-.95 2.4 5.45.25 15.55-.3 1.55-.2 2.8m-6.5-13.8q-3.75 1.8-8.65 1.45l-1.75-.2L30.5 40q-3.55-2.8-3.85-.4-.35 8.65.9 16.2.6 6-4.95 6.25M49.3 37.2l.25-.25.4-.75m-2.1 2.25 1.45-1.25m-1.45 1.25L45.6 39.8" fill="none" stroke="#505030" stroke-linecap="round" stroke-linejoin="round" stroke-width=".05"/><path d="M51 47.4q-.65-5.55-5.4-7.6" fill="none" stroke="#252516" stroke-linecap="round" stroke-linejoin="round" stroke-width=".05"/><path d="M272.65 181.65q1.35-.2 1.55.45.15.65-.95 1.75l-.65.6-2.25 1.4q-1.8.9-3.15 1.1-1.4.2-1.55-.45-.15-.7 1-1.8 1.1-1.1 2.9-1.95l.4-.2q1.5-.75 2.7-.9m18.75 2.1-1.75-1.3q-.95-.9-.8-1.55l.05-.15q.2-.55 1.2-.55 1.15 0 2.65.7l2.4 1.55q.9.95.8 1.65-.15.65-1.3.65l-2.6-.65-.3-.15-.35-.2m-1.25-3.1-1.25.1 1.25-.1" fill-rule="evenodd" transform="translate(-246 -163.85)"/><path d="M26.65 17.8q-1.2.15-2.7.9l-.4.2q-1.8.85-2.9 1.95-1.15 1.1-1 1.8.15.65 1.55.45 1.35-.2 3.15-1.1l2.25-1.4.65-.6q1.1-1.1.95-1.75-.2-.65-1.55-.45m18.75 2.1-1.75-1.3q-.95-.9-.8-1.55l.05-.15q.2-.55 1.2-.55 1.15 0 2.65.7l2.4 1.55q.9.95.8 1.65-.15.65-1.3.65l-2.6-.65-.3-.15" fill="none" stroke="#322216" stroke-linecap="round" stroke-linejoin="round" stroke-width=".25"/><path d="m42.9 16.9 1.25-.1" fill="none" stroke="#fff" stroke-linecap="round" stroke-linejoin="round" stroke-width=".25"/><path d="m302.7 171.9 1.95-1.05.35-.3q.9-.55 1.9-.25 1 .35 1.55 1.35.45.9.3 1.95-2.8 1.75-4.6.55l-1.45-2.25" fill="#684822" fill-rule="evenodd" transform="translate(-246 -163.85)"/><path d="m305.8 175.8-.15-.05-.8-.4-.5-.5-.25-.4-.05-.15-.1-.15h.2l.9 1.3.75.35" fill="#bb8b3e" fill-rule="evenodd" transform="translate(-246 -163.85)"/><path d="m308.75 173.6-.05.15q-.25 1.15-1.1 1.75l-1.75.3h-.05l-.75-.35-.9-1.3h-.2l-.45-.4q-2.9-2.25-10.65 8.15h-1.8q4.85-6.15 11.65-10l1.45 2.25q1.8 1.2 4.6-.55" fill="#402d15" fill-rule="evenodd" transform="translate(-246 -163.85)"/><path d="M56.7 8.05 58.65 7l.35-.3q.9-.55 1.9-.25 1 .35 1.55 1.35.45.9.3 1.95l-.05.15q-.25 1.15-1.1 1.75l-1.75.3h-.05l-.15-.05-.8-.4-.5-.5-.25-.4-.05-.15-.1-.15m-.45-.4q-2.9-2.25-10.65 8.15m-1.8 0q4.85-6.15 11.65-10z" fill="none" stroke="#322216" stroke-linecap="round" stroke-linejoin="round" stroke-width=".25"/><path d="M305.7 171.65q.2.2.45.2l.55-.2.15-.55-.15-.55-.55-.25q-.25 0-.45.25l-.25.55.25.55" fill="#ffcd59" fill-rule="evenodd" transform="translate(-246 -163.85)"/><path d="m273.5 165.45.25 1q0 1-.95 1.75l-.85.5-.3.1-.5.1-.55.05h-.15q-5.6.65.95 14.3h-1.85q-3.1-7.8-2.05-16.35l-.05-.25q5.45 2.1 6.05-1.2" fill="#402d15" fill-rule="evenodd" transform="translate(-246 -163.85)"/><path d="M267.45 166.65v-.2q0-1.05.9-1.75.95-.75 2.25-.75t2.2.75l.7.75q-.6 3.3-6.05 1.2" fill="#684822" fill-rule="evenodd" transform="translate(-246 -163.85)"/><path d="M21.45 2.8v-.2q0-1.05.9-1.75Q23.3.1 24.6.1t2.2.75l.7.75.25 1q0 1-.95 1.75l-.85.5-.3.1-.5.1-.55.05h-.15q-5.6.65.95 14.3m-1.85 0q-3.1-7.8-2.05-16.35l-.05-.25z" fill="none" stroke="#322216" stroke-linecap="round" stroke-linejoin="round" stroke-width=".25"/><path d="m268.65 166.1.45.2.55-.2.15-.55-.15-.55q-.25-.25-.55-.25l-.45.25-.25.55.25.55" fill="#ffcd59" fill-rule="evenodd" transform="translate(-246 -163.85)"/></g></defs></svg>