<svg viewBox="0 0 61.85 143.66" xmlns="http://www.w3.org/2000/svg" xmlns:xlink="http://www.w3.org/1999/xlink"><g transform="translate(-202.65 20.75)"><use transform="translate(202.65 -20.75)" width="61.85" height="90.65" xlink:href="#a"/><use transform="translate(222.57 11.217) scale(3.8516)" width="10.35" height="29" xlink:href="#b"/></g><defs><g id="a"><path d="m240.65-5.25 2.25-7.95.2 36.25 2.5-9.35 2.4 8.2 1.35-10.9-.45-6.5 1.35-5 2.1 17.95 2.45-19.6 1.4 1.55-1.35 13.05 1.65-1.35-1.55 16.55 3.25-5.55-1.9 7.05 5.9-12.4.15.4-1.85 7 1.05 1.35-3.5 13 5.9-9.85.45.6-1.9 4.75v.05l-3.45 12.9 4.4-5.7.2 1.35L257 55.65l-2.5-14.5-1.85-7.6-2.05-2.7-10.35 4.1-4.95-3.85-6.8 18.75-.45 5.5-2.6 9.6L214.4 53.7l11.05 11.25-.55 4.85-19.9-7.3-.65-4 13.6 2.95-6.85-6.75 3.3-1-11.65-11.85 1-3.8 14.7 12.5-7.3-13.05 5.05 1.05-4.75-8.25.65-2.45 10.55 12-4.95-18.45 3.75 1.85L217.2 8.8l.85-1.5 9.35 25.6-.95-9.75 4.9 9.5-1.3-18.65 4 5.45-.5-4.55 4.6 8.3-.1-22.4 2.45 5.45.15-11.5m6.4-15.4-1.3 17.95L244-20.25l3.05-.4m5.6 54.2 2.2-21.1-2.2 21.1m1.85 7.6 6-17-6 17m-3.9-10.3L249.35 11l1.25 19.85m5.15 17.55L262.5 34l-6.75 14.4M235.3 31.1l-1.25-11.65 1.25 11.65m4.95 3.85.25-28.7-.25 28.7M233.1-3l1.85 10.4L232.1 2l-.4-3.7 1.4-1.3m-13.5 7.65 1.6-2.75.6.85 3.6 16.3-5.8-14.4m8.9 45.2-7.05-26.6 7.05 26.6m-.45 5.5-11.85-16.8 11.85 16.8" fill="#b68c49" fill-rule="evenodd" transform="translate(-202.65 20.75)"/><path d="m240.65-5.25.1-14.55 3.25-.45 1.75 17.55 1.3-17.95L248.9 4.5l.45 6.5L248 21.9l-2.4-8.2-2.5 9.35-.2-36.25-2.25 7.95m20.9 30.75 2.4 3.15-5.9 9.85 3.5-13m.95 8.55.95 7.2-4.4 5.7 3.45-12.9m-7.7-36.2-2.45 19.6-2.1-17.95 1.35-5 3.2 3.35m1.7 13.25 2.35-1.95 3.35 7.6-5.9 12.4 1.9-7.05-3.25 5.55 1.55-16.55M238.05.8l.1 22.4-4.6-8.3L232.1 2l2.85 5.4L233.1-3l2.35-2.15 2.6 5.95M219.6 4.65l5.8 14.4-3.6-16.3L230.05 14l1.3 18.65-4.9-9.5.95 9.75-9.35-25.6 1.55-2.65m-7.5 23.2 2.2-8.15 3.4 1.7 4.95 18.45-10.55-12m-.95 9.65 7.3 13.05-14.7-12.5.55-2.05 6.85 1.5m-6.8 21-.3-1.8 7.05-2 6.85 6.75-13.6-2.95" fill="#e4cf87" fill-rule="evenodd" transform="translate(-202.65 20.75)"/><path d="M41.35.5 38.1.95 38 15.5 37.85 27l-.25 28.7-4.95-3.85-6.8 18.75-.45 5.5-2.6 9.6.6.55m23.3-54.5-.45-6.5L44.4.1m-3.05.4L44.4.1m15.15 37.4.15.4-1.85 7 1.05 1.35 2.4 3.15.45.6-1.9 4.75v.05l.95 7.2.2 1.35-6.65 13.05-2.5-14.5L50 54.3l-2.05-2.7-10.35 4.1m14.55-37.1-3.2-3.35-2.7 10m7.6 6.6 2.35-1.95 3.35 7.6m-5.7-5.65L52.2 33.2 50 54.3m2.15-35.7 1.4 1.55L52.2 33.2m7.65 21.55-6.75 14.4m-6.4-37.4 1.25 19.85m9.9-6.7-6 17m-14-34.9-2.45-5.45-2.6-5.95-2.35 2.15-1.4 1.3.4 3.7 1.45 12.9.5 4.55 1.25 11.65M19.15 23.5l-.6-.85-1.6 2.75m2.2-1.9 8.25 11.25 4 5.45m-16-12.15-.85 1.5L18.8 44l7.05 26.6m-10.8-28.45-3.4-1.7-2.2 8.15-.65 2.45 4.75 8.25L25.4 76.1M15.05 42.15 18.8 44m-3.4-15.95 1.55-2.65m-3.4 33.9L8.5 58.25l-6.85-1.5-.55 2.05-1 3.8 11.65 11.85L22.8 85.7M1.7 79.25l.65 4 19.9 7.3.55-4.85M8.45 75.45l-7.05 2 .3 1.8m6.75-3.8 3.3-1" fill="none" stroke="#000" stroke-linecap="round" stroke-linejoin="round" stroke-opacity=".4" stroke-width=".2"/></g><g id="c"><path d="M2.2-2.25q-.1-2.6-.3-1.65l-2.2-.35.85 2.7 1.65-.7m-5 7.2 1.05-.55 1.2-.2.25-.05 1 .05.55.15.15-1.15Q.85 1.35.65 1.5l-.1.35v.45H.5q-.45-.3-.65-1l-.15.5v-.6h-.9v.75l-1.45-.3q-1.05-.15-.15 1.8v1.5m1.45-20.4Q2.5-8.4 3-.95 1.55 7.9-1.6 12.55-5.1 7-6.35.15q.95-7.65 5-15.6m.2 13.9-1.7-3.25-.5.1q-2.7.85-.9 2.8l3.1.35" fill="#c07238" fill-rule="evenodd" transform="translate(6.85 15.95)"/><path d="m2.2-2.25-1.65.7-.85-2.7 2.2.35q.2-.95.3 1.65m-5 7.2 1.05-.55 1.2-.2.25-.05 1 .05.55.15.15-1.15Q.85 1.35.65 1.5m-2-16.95Q2.5-8.4 3-.95 1.55 7.9-1.6 12.55-5.1 7-6.35.15q.95-7.65 5-15.6m.2 13.9-1.7-3.25-.5.1q-2.7.85-.9 2.8l3.1.35" fill="none" stroke="#3e2417" stroke-linecap="round" stroke-linejoin="round" transform="translate(6.85 15.95)"/><path d="M-1.05 11.2q2.85-5 3.8-12-.65-7.05-3.5-13l-.35-1.55Q2.75-8.3 3.25-.85 1.8 8-1.35 12.65l.3-1.45" fill="#75482c" fill-rule="evenodd" transform="translate(6.85 15.95)"/><path d="M-1.35 12.65Q-4.85 7.1-6.1.25q.95-7.65 5-15.6l.35 1.55Q-4.2-5.25-4.6.1q1.15 5.55 3.55 11.1l-.3 1.45" fill="#9e632d" fill-rule="evenodd" transform="translate(6.85 15.95)"/><path d="m.8-1.45 1.65-.7-.3-1.65-.95.85-.4 1.5m-.85 5.7 1 .05.55.15.15-1.15-.6-.8-.95-.2.05-3.7Q0-9.6-.75-13.8q2.85 5.95 3.5 13-.95 7-3.8 12 .75-3.2 1-6.95" fill="#d88701" fill-rule="evenodd" transform="translate(6.85 15.95)"/><path d="M.1 2.3h-.25q-.7.05-1.35.45l-1.05.8v1.5l1.05-.55 1.2-.2.25-.05Q-.3 8-1.05 11.2-3.45 5.65-4.6.1q.4-5.35 3.85-13.9Q0-9.6.15-1.4L.1 2.3m-1.8-5.2-1.75-.65L-4-1.8l3.1.35-.8-1.45" fill="#fbcd15" fill-rule="evenodd" transform="translate(6.85 15.95)"/><path d="m7.65 14.5.4-1.5.95-.85.3 1.65-1.65.7m-.85 5.7 1 .05.55.15.15-1.15-.6-.8-.95-.2H6.7q-.7.05-1.35.45l-1.05.8V21l1.05-.55 1.2-.2.25-.05m-1.65-7.15L3.4 12.4l-.55 1.75 3.1.35-.8-1.45" fill="none" stroke="#9e632d" stroke-linecap="round" stroke-linejoin="round" stroke-width=".05"/><path d="m4.6 5.15 1.9 1.5M6.8 12.75l-3.25-1.9M6.7 9.4 5 8.25m2.05 7.6-1.95 1" fill="none" stroke="#d88701" stroke-linecap="round" stroke-linejoin="round" stroke-width=".05"/><path d="m7.05 4.3-.8 1.1m.85 12.25 1.55 1.4m-1.5-3.75 1.15 1m-1.25-2.7L9 11.7m-1.6-1.2 1-1.15" fill="none" stroke="#ffb612" stroke-linecap="round" stroke-linejoin="round" stroke-width=".05"/></g><use width="10.35" height="29" xlink:href="#c" id="b"/></defs></svg>