<svg viewBox="0 0 29.065 18.366" xmlns="http://www.w3.org/2000/svg" xmlns:xlink="http://www.w3.org/1999/xlink"><g transform="translate(-261.86 -191.59)"><use transform="translate(261.9 191.6)" width="29" height="18.35" xlink:href="#a"/><use transform="matrix(.1368 -.0314 0 -.1368 279.51 206.64)" width="24.65" height="46.75" xlink:href="#b"/><use transform="translate(273.95 195.4)" width="4.4" height="2.5" xlink:href="#c"/></g><defs><g id="a"><path d="m283.5 195.15-7.25.35q-5.85 1-9.85 3.6l-.35.25q-3.5 2.4-3.45 4.9l-.3-.45-.25-.55-.15-.85q-.25-2.65 3.8-5.3l.25-.15q3.9-2.5 9.6-3.45l7.4-.3 2.75.55q3.8 1.05 4.4 3.35l.05.2v.4l.05.25q-1.15-1.4-3.8-2.2l-2.9-.6" fill="#a37201" fill-rule="evenodd" transform="translate(-261.9 -191.6)"/><path d="M4.15 7.75q-3.5 2.4-3.45 4.9l-.3-.45-.25-.55L0 10.8q-.25-2.65 3.8-5.3l.25-.15m17-3.75 2.75.55q3.8 1.05 4.4 3.35l.05.2v.4l.05.25q-1.15-1.4-3.8-2.2l-2.9-.6" fill="none" stroke="#472d01" stroke-linecap="round" stroke-linejoin="round" stroke-width=".05"/><path d="m266.65 194.85 6.2-.75.8 1.3-1.5.7h-.05q-7.4-.9-9.05 6.35-.4-2.85 1-4.95l2.1-2.25.5-.4m6.55 3.8q.95-.5 2.1-.85l1.55-.5 3.25-.35 2 .3q.9.3 1.5.85 2.6 2.25 1.95 9.1-5.5 3-12.35 2.7l-1.4-.15q-1.85-6.2-.8-8.95.5-1.25 2.2-2.15m3.45-4.1v-.7q1.8.05 2.3.55l-.7.55-1.6-.4m5.65 4.6q-4.3 2.65-7.4 2.55l-1.15-.15q.7 1.65 2.6 1.95l3.1-.55q3.55-1.2 3.15-2.95l-.2-.7-.1-.15" fill="#f3ecc7" fill-rule="evenodd" transform="translate(-261.9 -191.6)"/><path d="M263.05 202.45q1.65-7.25 9.05-6.35-1.55 1.6 1.1 2.55-1.7.9-2.2 2.15-1.05 2.75.8 8.95-4.8-.3-6.35-2.4-2.05-2.65-2.4-4.9m10.6-7.05-.8-1.3 3.8-.25v.7l-2.95.85h-.05m11.9 11.8q.65-6.85-1.95-9.1-.6-.55-1.5-.85l-2-.3-1.85-2 .7-.55q1.95.85 2.7 1.75 6-2.65 7.7 4.1-.05 2.45-1.45 4.65-1.3 2-2.35 2.3m-17.9-7.45q-3.25-2.35-2.7 1.05.5 3.4 4.25 2.05 1.7-.75-1.55-3.1" fill="#e98103" fill-rule="evenodd" transform="translate(-261.9 -191.6)"/><path d="m272.85 194.1-.75-1.1 4.65-1.2-.1 2.05-3.8.25m-.75 2h.05l1.6.25 1.55 1.45q-1.15.35-2.1.85-2.65-.95-1.1-2.55m8 .85-3.25.35.15-.85q.45-.8 1.25-1.5l1.85 2m5.25-3.55 1.45 1.1q2.2 1.85 2.45 3.85l.1 1.9q-1.7-6.75-7.7-4.1-.75-.9-2.7-1.75 2.4-1.6 6.4-1m-8.7 1.15v.75l-2.65.5-.3-.4 2.95-.85" fill="#b85e03" fill-rule="evenodd" transform="translate(-261.9 -191.6)"/><path d="M267.65 199.75q3.25 2.35 1.55 3.1-3.75 1.35-4.25-2.05-.55-3.4 2.7-1.05" fill="#fcb670" fill-rule="evenodd" transform="translate(-261.9 -191.6)"/><path d="m272.85 194.1-6.2.75 5.45-1.85.75 1.1m-.7 2 1.5-.7h.05l.3.4 2.65-.5v-.75l1.6.4q-.8.7-1.25 1.5l-.15.85-1.55.5-1.55-1.45-1.6-.25m4.5-2.25.1-2.05q3.95-.35 5.5-.05l3.1 1.65q-4-.6-6.4 1-.5-.5-2.3-.55" fill="#dabe7e" fill-rule="evenodd" transform="translate(-261.9 -191.6)"/><path d="m282.3 199.15.1.15.2.7q.4 1.75-3.15 2.95l-3.1.55q-1.9-.3-2.6-1.95l1.15.15q3.1.1 7.4-2.55" fill="#fff" fill-rule="evenodd" transform="translate(-261.9 -191.6)"/><path d="M10.2 1.4 4.75 3.25m-.5.4L2.15 5.9q-1.4 2.1-1 4.95M14.85.2 10.2 1.4m-.3 16.75 1.4.15q6.85.3 12.35-2.7 1.05-.3 2.35-2.3 1.4-2.2 1.45-4.65M9.9 18.15q-4.8-.3-6.35-2.4-2.05-2.65-2.4-4.9m22.3-9.05 1.45 1.1q2.2 1.85 2.45 3.85l.1 1.9m-4-6.85L20.35.15q-1.55-.3-5.5.05" fill="none" stroke="#634f2e" stroke-linecap="round" stroke-linejoin="round" stroke-width=".05"/><path d="m27.45 8.65 1.4.75" fill="none" stroke="#553c00" stroke-linecap="round" stroke-linejoin="round" stroke-width=".05"/><path d="m266.45 207.65-.45-2 .15.05 3.2.7 4.85.15.3 2.1-5.1-.25-2.55-.6-.4-.15" fill="#ffcf2b" fill-rule="evenodd" transform="translate(-261.9 -191.6)"/><path d="m274.5 208.65-.3-2.1 2.25-.25h.1q5.9-.85 9.9-3.35l1.9-1.3v2.6l-1.15.8q-4.1 2.5-10.05 3.3l-.35.05-2.3.25" fill="#ffeec8" fill-rule="evenodd" transform="translate(-261.9 -191.6)"/><path d="m262.05 202.95.3.45q1.05 1.35 3.65 2.25l.45 2q-3.05-1.15-3.8-2.95l-.25-.6-.35-1.15m26.3-1.3q2-1.85 2-3.7l.05.05.5 3.1q-.5 1.6-2.55 3.15v-2.6" fill="#cd8f01" fill-rule="evenodd" transform="translate(-261.9 -191.6)"/><path d="M.75 13.1q.75 1.8 3.8 2.95m8.05 1-5.1-.25-2.55-.6-.4-.15m8.05 1 2.3-.25.35-.05q5.95-.8 10.05-3.3l1.15-.8M29 9.5q-.5 1.6-2.55 3.15M.15 11.35.5 12.5l.25.6M28.5 6.4l-.1-.7m.1.7.5 3.1" fill="none" stroke="#553c00" stroke-linecap="round" stroke-linejoin="round" stroke-width=".05"/><path d="M4.1 14.05q-2.6-.9-3.65-2.25m11.85 3.15-4.85-.15-3.2-.7-.15-.05m22.35-4q2-1.85 2-3.7l.05.05m-2.05 3.65-1.9 1.3q-4 2.5-9.9 3.35h-.1l-2.25.25" fill="none" stroke="#9c6201" stroke-linecap="round" stroke-linejoin="round" stroke-width=".05"/><path d="m282.3 206.95-.7.35-.8.1h-.05q-1.7-.65-2.1-3.6-.35-2.9 1.1-4.7l.65-.3q.7-.3 1.35 0 2.85 3.95.55 8.15" fill="#ffcf2b" fill-rule="evenodd" transform="translate(-261.9 -191.6)"/><path d="M281.75 198.8q.4.1.8.5 1 1 1.3 2.8.25 1.7-.45 3.3l-1.1 1.55q2.3-4.2-.55-8.15" fill="#fff" fill-rule="evenodd" transform="translate(-261.9 -191.6)"/><path d="M280.75 207.4q-.7-.1-1.4-.65-.95-1-1.2-2.75-.25-1.8.35-3.35.5-1.05 1.25-1.55-1.45 1.8-1.1 4.7.4 2.95 2.1 3.6" fill="#b47d01" fill-rule="evenodd" transform="translate(-261.9 -191.6)"/><path d="M19.85 7.2q.4.1.8.5 1 1 1.3 2.8.25 1.7-.45 3.3l-1.1 1.55-.7.35-.8.1m-.05 0q-.7-.1-1.4-.65-.95-1-1.2-2.75-.25-1.8.35-3.35.5-1.05 1.25-1.55l.65-.3q.7-.3 1.35 0z" fill="none" stroke="#553c00" stroke-linecap="round" stroke-linejoin="round" stroke-width=".05"/></g><g id="b"><path d="M-5.35-20q1.5-2.35 3.15-3.05l3.05-.05.8.4q4.25 2.25 7.1 9.65l.25.8.05.1.05.15.8 2.25.65 2.25.05.05q1.25 4.25 1.6 7.4l.1 2-.05.55-.05.8q-.45 4.25-3.55 7.4l-1.8 1.5-.7-.65-.3.3-1.5 1.25-1.95 1.15-3.8.1-2.25-1-2.25-1.25-.05-.05-.4-.25-1.25-.05-1.15-1.05q-2.35-2.3-3.1-5.1l6.75 1.45 6.4-1.8Q4.95-4.8.85-14.25l-2.05-3-2.25-2.1-.85-.45-1.05-.2M5-5.1l-.25-1.2-.85-2.5L5-5.1h.1v-.05L5-5.1" fill="#c06a01" fill-rule="evenodd" transform="translate(12.35 23.4)"/><path d="M-11.85 5.6-12.3 3l-.05-1.05.25-2.7v-.3l.1-.45.3-1.6 1.45-5.3 2-5.7 1.15-2.8.2-.45 1.55-2.6V-20l1.05.2.85.45 2.25 2.1 2.05 3q4.1 9.45.45 19.5l-6.4 1.8-6.75-1.45M5.1-5.15v.05H5L3.9-8.8l.85 2.5L5-5.1l.1-.05M-11.75-1.3l-.25-.2.1.1-.15.3-.05.35.25-.45.1-.1" fill="#f90" fill-rule="evenodd" transform="translate(12.35 23.4)"/><path d="m5-5.1.1-.05-.1.05" fill="#be640a" fill-rule="evenodd" transform="translate(12.35 23.4)"/><path d="m-11.9-1.4-.1-.1.25.2-.15-.1" fill="#2b2104" fill-rule="evenodd" transform="translate(12.35 23.4)"/><path d="m-11.75-1.3-.1.1-.25.45.05-.35.15-.3.15.1" fill-rule="evenodd" transform="translate(12.35 23.4)"/><path d="m6.85 12.2.5.45 1.35 1.7q.65 1.1.65 2.1 0 2.1-3.05.8l-1.25-.5-1.4-.4.7 1.2.75 2.5q.1 1.1-.2 2.15l-2.35.05-.1-.15q-1.4-2.05-3.4-3.2l-.5-.35q-1.7-.8-3.3-1.05l-1.45-.15h-.1l-1 .55q-3.65 1.95-3-1.35.5-2.8 2.7-4.8l1.25.05.4.25.05.05 2.25 1.25 2.25 1 3.8-.1 1.95-1.15 1.5-1.25.3-.3.7.65" fill="#690" fill-rule="evenodd" transform="translate(12.35 23.4)"/><path d="m17.45 18.25-.1.05" fill="none" stroke="#8e4702" stroke-linecap="round" stroke-linejoin="round" stroke-width=".25"/></g><g id="c"><path d="m276.15 195.4 1.55.2q.65.35.65.85 0 .55-.65.95-.65.45-1.55.5l-1.6-.2q-.6-.3-.6-.85 0-.5.6-.95.65-.4 1.6-.5" fill="#ffcf2b" fill-rule="evenodd" transform="translate(-273.95 -195.4)"/><path d="m2.2 0 1.55.2q.65.35.65.85 0 .55-.65.95-.65.45-1.55.5L.6 2.3Q0 2 0 1.45 0 .95.6.5 1.25.1 2.2 0z" fill="none" stroke="#553c00" stroke-linecap="round" stroke-linejoin="round" stroke-width=".05"/><path d="m277.45 196.35-.35.55-.85.25-.9-.15q-.35-.15-.35-.45t.35-.55q.4-.2.9-.25l.85.1.35.5" fill="#7d9b02" fill-rule="evenodd" transform="translate(-273.95 -195.4)"/></g></defs></svg>