<svg viewBox="0 0 18.674 17.65" xmlns="http://www.w3.org/2000/svg" xmlns:xlink="http://www.w3.org/1999/xlink"><use transform="translate(0 -.15)" width="18.65" height="17.8" xlink:href="#a"/><defs><g id="a"><path d="m282.2 196.85-.85 4.6q1 .2 1.8 1.15.55.9.45 1.65-.3.7-1.45.6-2.45 0-4.7 2.35-1.4 1.45-3.5 2.05H273q-4.4-.85-4.6-3.25.1-2.6 1.5-3.55l.05.55v.05l-.75.8q-.75 1.8-.3 2.8.45 1.55 3.9 2.2l.95-.1q1.6-.3 2.85-1.3l.8-.8q1.6-1.4 3.15-2l.2-.05 1.65-.35h.4q.2-.65-.25-1.35l-1.3-.9v-.05l-.7 1.05 1.15-5.4.5-.75m-.85 4.6-.1.5.1-.5m2.05 2.4-.6.4.6-.4m-6.15.85-2.95.4-.5-.05-.25-1.65-.05-3.7q3.15-.1 5.8-.8-1.2 1.35-2.05 5.8" fill="#a5794a" fill-rule="evenodd" transform="translate(-266.15 -191.55)"/><path d="M283.6 204.25q-.15.8-1 1.45-4.85 3.45-8.65 3.55 2.1-.6 3.5-2.05 2.25-2.35 4.7-2.35 1.15.1 1.45-.6m-9.25 3.3 2.25-.1q-1.25 1-2.85 1.3.85-.5.6-1.2m-5.45-.9q-.45-1 .3-2.8l.75-.8.15 1.25-.85 1.15-.35 1.2" fill="#5f3c16" fill-rule="evenodd" transform="translate(-266.15 -191.55)"/><path d="M268.9 197.5q.65-1.1 2.6-1.95l1.9-.6 6.55-.45q1.25.4 1.9 1.15l.25.35q-.3 1.25-1.65 1.95-3.05 1.2-6.95 1.25l-1.8-.1q-2.5-.3-2.8-1.6" fill="#47290e" fill-rule="evenodd" transform="translate(-266.15 -191.55)"/><path d="m282.1 196 .2.4-.1.45-.5.75-1.15 5.4q-1.1 1.2-3.3 1.7.85-4.45 2.05-5.8-2.65.7-5.8.8l.05 3.7.25 1.65-.4-.05q-.5-2.55-.3-5.35h-.4q-2.45-.15-3.55-1.05.5.7.5 2.75l-1-3.3q.05-.25.25-.55.3 1.3 2.8 1.6l1.8.1q3.9-.05 6.95-1.25 1.35-.7 1.65-1.95m-1.35 8.6.5-2.6 1.3.9q.45.7.25 1.35h-.4l-1.65.35m-7 4.15-.95.1q-3.45-.65-3.9-2.2l.35-1.2.85-1.15.05.55q-.1.5.4 1.1l.5.55q1.35.9 3.3 1.05.25.7-.6 1.2" fill="#926639" fill-rule="evenodd" transform="translate(-266.15 -191.55)"/><path d="m280.55 203 .7-1.05v.05l-.5 2.6-.2.05V203m-10.25.5.25 2.45q-.5-.6-.4-1.1l-.05-.55-.15-1.25V203l.35.5" fill-rule="evenodd" transform="translate(-266.15 -191.55)"/><path d="M280.55 203v1.65q-1.55.6-3.15 2l-.45.45.3-2.4q2.2-.5 3.3-1.7m-6.75 2.05.25 1.7.3.8q-1.95-.15-3.3-1.05l-.5-.55-.25-2.45q.95 1.1 2.8 1.45l.3.05.4.05" fill="#18110b" fill-rule="evenodd" transform="translate(-266.15 -191.55)"/><path d="m276.95 207.1-.35.35-2.25.1-.3-.8-.25-1.7.5.05 2.95-.4-.3 2.4" fill="#4d3222" fill-rule="evenodd" transform="translate(-266.15 -191.55)"/><path d="M269.95 203.05V203v.05" fill="#2e2214" fill-rule="evenodd" transform="translate(-266.15 -191.55)"/><path d="m273.4 205-.3-.05q-.55-2.5-.4-5.3h.4q-.2 2.8.3 5.35" fill="#6d4b2c" fill-rule="evenodd" transform="translate(-266.15 -191.55)"/><path d="m269.9 202.45-.25-1.1q0-2.05-.5-2.75 1.1.9 3.55 1.05-.15 2.8.4 5.3-1.85-.35-2.8-1.45l-.35-.5-.05-.55" fill="#5a3612" fill-rule="evenodd" transform="translate(-266.15 -191.55)"/><path d="M2.75 5.95Q3.4 4.85 5.35 4l1.9-.6 6.55-.45q1.25.4 1.9 1.15l.25.35.2.4-.1.45-.85 4.6q1 .2 1.8 1.15.55.9.45 1.65-.15.8-1 1.45Q11.6 17.6 7.8 17.7h-.95q-4.4-.85-4.6-3.25.1-2.6 1.5-3.55L3.5 9.8l-1-3.3q.05-.25.25-.55m12.35 4.5v-.05l-.7 1.05q-1.1 1.2-3.3 1.7l-2.95.4-.5-.05-.4-.05-.3-.05q-1.85-.35-2.8-1.45l-.35-.5-.05-.55m10.65 2.2.2-.05.5-2.6m1.55 2.25.6-.4m-2.15-1.9.1-.5m-4.75 6 .8-.8q1.6-1.4 3.15-2M8.2 16l2.25-.1q-1.25 1-2.85 1.3m-3.8-5.7v-.05m10.8 1.6 1.65-.35h.4M4.4 14.4l.5.55q1.35.9 3.3 1.05m-4.4-4.5.15 1.25.05.55q-.1.5.4 1.1" fill="none" stroke="#000" stroke-linecap="round" stroke-linejoin="round" stroke-opacity=".4" stroke-width=".2"/><path d="m281.75 195.55 1.75-.4q1.4-.15 1.2 1.05l-.9 4.55-.8.85 1.05-4.5q-.85-.1-.45-1.15l-1.35.4-.1-.2-.4-.6m-.6 7 .2-1.25q.9.15 1.35-.85-.35 1.05-.15 1.4-.35.5-1.4.7" fill="#a5794a" fill-rule="evenodd" transform="translate(-266.15 -191.55)"/><path d="m282.25 196.35 1.35-.4q-.4 1.05.45 1.15l-1.05 4.5.8-.85-.15.55-.5 1-.65.45-1.5.55.15-.75q1.05-.2 1.4-.7-.2-.35.15-1.4l.3-1.15q.4-2.2-.05-2.35l-.85.25.15-.85" fill="#5f3c16" fill-rule="evenodd" transform="translate(-266.15 -191.55)"/><path d="m17.65 9.2.9-4.55q.2-1.2-1.2-1.05L15.6 4m2.05 5.2-.15.55-.5 1-.65.45-1.5.55m.35-2q.9.15 1.35-.85l.3-1.15q.4-2.2-.05-2.35l-.85.25" fill="none" stroke="#000" stroke-linecap="round" stroke-linejoin="round" stroke-opacity=".4" stroke-width=".2"/><path d="M267.05 199.25q1-.15.55-1.35 1.65-1 .9-1.25.45-.05 1.3-.75 1.95 1.15 3.4-.25-.3.9.25 1.2.8.45 3.55-.45 3-.9 1.7-2.2 1.25.3.9-.8 1.8.9.95 2.55l.2.9q-.55 1.25-2.45 1.9-2.1.55-3.3-.25l-1.5.25q-3 .25-3.6-1.85-.2.7-.95.8.35 1-.15 1.15l.6.3.35.75v.1q0 .45-.35.8-.3.35-.8.35l-.3-.05q1.05-.4.4-1.25-.8-1-1.15-.35l-.5-.25m1.35-1.55h.55-.55m4.6-5.05.85-.6q-.4.6.25.95-.6-.25-1.1-.35m4.9-.6q.65.3.9 1.1l-1.5.15-1.2-.35q2.2-.15 1.8-.9m1.95 3.2.7.7-.7-.7m-12.5 5.75.15.1.2.55-.2.5-.55.2q-.3 0-.5-.2l-.1-.2q1.05.3 1-.95m7.65-2.5-.35-.25.35.25" fill="#e7ecb5" fill-rule="evenodd" transform="translate(-266.15 -191.55)"/><path d="M279.6 193.4q.35 1.1-.9.8 1.3 1.3-1.7 2.2-2.75.9-3.55.45-.55-.3-.25-1.2-1.45 1.4-3.4.25-.85.7-1.3.75.75.25-.9 1.25.45 1.2-.55 1.35-.7-.7-.35-2.4.6-1.6 1.9-1.8.25-1.5 1.95-2.25l2.45-.15q.5.1 1.1.35-.65-.35-.25-.95l3.3-.25.75.25q.4.75-1.8.9l1.2.35 1.5-.15.6.15.2.1m-12.05 6.1q.35-.65 1.15.35.65.85-.4 1.25-.3-.05-.5-.3-.35-.35-.35-.8l.1-.5m1.05-4.45-.05.65.05-.65m-2.25 6.9-.1-.3.2-.55.5-.2.4.1q.05 1.25-1 .95" fill="#fff" fill-rule="evenodd" transform="translate(-266.15 -191.55)"/><path d="m.9 7.7.5.25m.75 1.6.3.05q.5 0 .8-.35.35-.35.35-.8v-.1l-.35-.75-.6-.3q.5-.15.15-1.15h-.55m.15-2 .05-.65q-1.3.2-1.9 1.8Q.2 7 .9 7.7m1.55-4.2Q2.7 2 4.4 1.25l2.45-.15.85-.6L11 .25l.75.25q.65.3.9 1.1l.6.15.2.1q1.8.9.95 2.55l.2.9q-.55 1.25-2.45 1.9-2.1.55-3.3-.25l-1.5.25q-3 .25-3.6-1.85-.2.7-.95.8M6.85 1.1q.5.1 1.1.35m4.7.15-1.5.15M14.4 4.4l-.7-.7M.2 10.4l-.1-.3.2-.55.5-.2.4.1.15.1.2.55-.2.5-.55.2q-.3 0-.5-.2l-.1-.2m1.95-.85q-.3-.05-.5-.3-.35-.35-.35-.8l.1-.5M8.5 6.7l.35.25" fill="none" stroke="#000" stroke-linecap="round" stroke-linejoin="round" stroke-opacity=".4" stroke-width=".2"/></g></defs></svg>