<svg viewBox="0 0 193.2 140.39" xmlns="http://www.w3.org/2000/svg" xmlns:xlink="http://www.w3.org/1999/xlink"><g transform="translate(-153.85 -6.707)"><use transform="translate(153.85 57.9)" width="193.2" height="89.2" xlink:href="#a"/><use transform="matrix(-.6786 0 0 1 228.69 6.7)" width="56.95" height="61.05" xlink:href="#b"/><use transform="translate(190.55 20.8)" width="92.45" height="47.4" xlink:href="#c"/><use transform="translate(278.65 6.7)" width="56.95" height="61.05" xlink:href="#b"/><use transform="translate(313.05 20.8)" width="15.8" height="15.8" xlink:href="#d"/></g><defs><g id="a"><path d="m343.8 124.9-.35-5.45q2.2-3.1 2.2-6.5l-.05-1.25q1.35 2.55 1.35 5.3 0 4.15-3.15 7.9m-21.5-15.4-.4.95q-.6-12.75-6.85-22 .4-1.15.4-2.35l.05-.45q3.7 5.15 5.55 10.9l.65 2.35q.85 3.6 1 7.4v.85l-.4 2.35m-24.8-36.55Q280.25 62.05 258 60.5q2.3 13.55.45 24.75l-7.9.15q-19.65 0-33.5-4.3T203.2 70.7v-.4Q223.25 58 250.7 58q27.35 0 47.4 12.25l-.1.45q0 1.15-.5 2.25m-111.55 12.7v.45q0 8.35 18.95 14.25 18.65 5.75 44.95 5.85-9.8 13.45-29.8 21-10.95-1.6-20.25-4.5-20.85-6.45-21.1-15.55v-.25l.05-.6q.1-3.1.7-6l1-4q1.8-5.6 5.5-10.65m48.8 56.05.25 4.95q-30.15-1.4-52.8-8.45-28.25-8.75-28.25-21.2 0-2.1.85-4.1l.15.05q0 12.1 27.9 20.6 22.3 6.75 51.9 8.15" fill="#fce83f" fill-rule="evenodd" transform="translate(-153.85 -57.9)"/><path d="m345.6 111.7.05 1.25q0 3.4-2.2 6.5l-21.15-9.95.4-2.35v-.85q-.15-3.8-1-7.4l-.65-2.35q19.9 6.55 24.55 15.15m-125.55 15.5 14.7 14.5q-29.6-1.4-51.9-8.15-27.9-8.5-27.9-20.6l.05-.5q4.15-9.2 25.45-16.15l-1 4q-.6 2.9-.7 6l-.05.6v.25q.25 9.1 21.1 15.55 9.3 2.9 20.25 4.5m77.45-54.25q.5-1.1.5-2.25l.1-.45 3.5 2.25q8.75 6.05 13.9 13.15l-.05.45q0 1.2-.4 2.35l-1.8-2.45Q306 78.35 297.5 72.95m-94.3-2.65v.4q0 6.1 13.85 10.4t33.5 4.3l7.9-.15q-1.95 11.85-8.6 20.95-26.3-.1-44.95-5.85-18.95-5.9-18.95-14.25v-.45q5.1-7.1 13.85-13.15l3.4-2.2M332 109q-7-2.45-10.3-10.1 3.3 7.65 10.3 10.1m-161.5.5q6-1.9 8.95-9.2-2.95 7.3-8.95 9.2" fill="#6d0101" fill-rule="evenodd" transform="translate(-153.85 -57.9)"/><path d="m343.45 119.45.35 5.45q-6.3 7.45-25.15 13.3-28.25 8.8-68.2 8.8-7.95 0-15.45-.35l-.25-4.95q7.55.35 15.55.35 39.45 0 67.35-8.5 20.15-6.1 25.8-14.1m-21.55-9q-3.3 7-20.3 12.25-21.1 6.55-50.9 6.55-16.7 0-30.65-2.05 20-7.55 29.8-21h.8q26.8 0 45.8-5.85 16.25-5.05 18.6-11.9 6.25 9.25 6.85 22m-63.45-25.2q1.85-11.2-.45-24.75 22.25 1.55 39.5 12.45-2.15 4.65-13.45 8.15-11 3.4-25.6 4.15" fill="#fc0" fill-rule="evenodd" transform="translate(-153.85 -57.9)"/><path d="m322.3 109.5 21.15 9.95q-5.65 8-25.8 14.1-27.9 8.5-67.35 8.5-8 0-15.55-.35l-14.7-14.5q13.95 2.05 30.65 2.05 29.8 0 50.9-6.55 17-5.25 20.3-12.25l.4-.95m-63.85-24.25q14.6-.75 25.6-4.15 11.3-3.5 13.45-8.15 8.5 5.4 15.75 13.05l1.8 2.45q-2.35 6.85-18.6 11.9-19 5.85-45.8 5.85h-.8q6.65-9.1 8.6-20.95" fill="#300" fill-rule="evenodd" transform="translate(-153.85 -57.9)"/><path d="M189.95 67q3.15-3.75 3.15-7.9 0-2.75-1.35-5.3m-23.3-2.2-.4.95m-23.8-40.2Q124.2.1 96.85.1 69.4.1 49.35 12.4m112.3 15.35q-5.15-7.1-13.9-13.15l-3.5-2.25m22.95 26.3.65 2.35q3.3 7.65 10.3 10.1m-16.5-23.35q3.7 5.15 5.55 10.9 19.9 6.55 24.55 15.15M32.1 27.75q-3.7 5.05-5.5 10.65l-1 4q-2.95 7.3-8.95 9.2M32.1 27.75q5.1-7.1 13.85-13.15l3.4-2.2m31.8 76.35q7.5.35 15.45.35 39.95 0 68.2-8.8 18.85-5.85 25.15-13.3M81.15 88.75Q51 87.35 28.35 80.3.1 71.55.1 59.1q0-2.1.85-4.1l.2-.45Q5.3 45.35 26.6 38.4M1.1 55.05l.05-.5" fill="none" stroke="#000" stroke-linecap="round" stroke-linejoin="round" stroke-opacity=".4" stroke-width=".2"/><path d="m226.55 68.05 1.55-.05q.85-.3 1.35-1.1.55-.7.4-1.4-.1-.7-.8-1l-1.55.1q-.85.35-1.35 1.05-.5.8-.4 1.5.15.7.8.9" fill-opacity=".4" fill-rule="evenodd" transform="translate(-153.85 -57.9)"/></g><g id="e" fill="none" stroke-linecap="round" stroke-linejoin="round" stroke-width="3"><path d="M50.55 7.55q5.5 5.15 4.8 12.75-1 11.4-13.75 13-10.55.85-14-9-.8-3.35.1-6m6.65-5.9q4.3-.75 8.25 4.15m-41.1 43q.5-4.8 1.3-9.25 2.75-16.35 8.7-28.5" stroke="#300"/><path d="M27.7 18.3q1.05-2.95 4.15-5 1.25-.7 2.5-.9M11.5 21.8q2.15-4.4 4.75-8.25l1.6-2.3 2.5-3.2.5-.5q2.4-2.3 5-3.7 8.5-4.7 19.25-.05 3.2 1.7 5.45 3.75z" stroke="#4f0000"/></g><g id="c"><path d="M192.35 33.6q-1.7-2.05-1.7-4.9 0-3.25 2.25-5.55 2.3-2.25 5.55-2.25 2.7 0 4.7 1.55 1.45 5-2.55 9.45-3.25 3.55-8.25 1.7" fill="#fce83f" fill-rule="evenodd" transform="translate(-190.55 -20.8)"/><path d="m203.15 22.45.8.7q2.3 2.3 2.3 5.55t-2.3 5.5q-2.25 2.3-5.5 2.3t-5.55-2.3l-.55-.6q5 1.85 8.25-1.7 4-4.45 2.55-9.45" fill="#fc0" fill-rule="evenodd" transform="translate(-190.55 -20.8)"/><path d="M1.8 12.8Q.1 10.75.1 7.9q0-3.25 2.25-5.55Q4.65.1 7.9.1q2.7 0 4.7 1.55l.8.7q2.3 2.3 2.3 5.55t-2.3 5.5q-2.25 2.3-5.5 2.3t-5.55-2.3z" fill="none" stroke="#000" stroke-linecap="round" stroke-linejoin="round" stroke-opacity=".4" stroke-width=".2"/><path d="M281.75 68.05 279.5 68q-1.25-.3-2-1.1-.8-.7-.6-1.4t1.25-1l2.25.1q1.25.35 2 1.05.75.8.55 1.5t-1.2.9" fill-opacity=".4" fill-rule="evenodd" transform="translate(-190.55 -20.8)"/></g><g id="d"><path d="M314.85 33.6q-1.7-2.05-1.7-4.9 0-3.25 2.25-5.55 2.3-2.25 5.55-2.25 2.7 0 4.7 1.55 1.45 5-2.55 9.45-3.25 3.55-8.25 1.7" fill="#fce83f" fill-rule="evenodd" transform="translate(-313.05 -20.8)"/><path d="m325.65 22.45.8.7q2.3 2.3 2.3 5.55t-2.3 5.5q-2.25 2.3-5.5 2.3t-5.55-2.3l-.55-.6q5 1.85 8.25-1.7 4-4.45 2.55-9.45" fill="#fc0" fill-rule="evenodd" transform="translate(-313.05 -20.8)"/><path d="M1.8 12.8Q.1 10.75.1 7.9q0-3.25 2.25-5.55Q4.65.1 7.9.1q2.7 0 4.7 1.55l.8.7q2.3 2.3 2.3 5.55t-2.3 5.5q-2.25 2.3-5.5 2.3t-5.55-2.3z" fill="none" stroke="#000" stroke-linecap="round" stroke-linejoin="round" stroke-opacity=".4" stroke-width=".2"/></g><use width="56.95" height="61.05" xlink:href="#e" id="b"/></defs></svg>