<svg viewBox="0 0 99.807 88.785" xmlns="http://www.w3.org/2000/svg" xmlns:xlink="http://www.w3.org/1999/xlink"><use transform="matrix(1 0 0 .7892 .01 0)" width="99.85" height="112.5" xlink:href="#a"/><defs><g id="a" transform="translate(.75 .75)"><use transform="translate(-.75 -.75)" width="99.85" height="112.5" xlink:href="#b"/><use transform="translate(32.45 35.65)" width="30.8" height="35.6" xlink:href="#c"/><use transform="translate(73.8 24.6)" width="13.55" height="48" xlink:href="#d"/><use transform="matrix(-.3916 0 0 .8708 86.6 33.2)" width="30.8" height="35.6" xlink:href="#c"/></g><g id="b"><path d="M20.8 89.45q-.55-10.5.9-16.5l1.55-8.85q13.1-.3 22.6 10.9l-.2.2q-1.6 1.1-3 2.3l-1 .75-1.3 1.2Q36.4 82.6 33.4 92.4l-.2.75q-1.4-1.3-2.9-2.35-3.55-2.5-5.4-2.5l-2.1.4q-1.25.35-2 .75" fill="#5b5346" fill-rule="evenodd" transform="translate(.75 .75)"/><path d="m45.65 75.2.2-.2.05.05-.25.15" fill="#c8c295" fill-rule="evenodd" transform="translate(.75 .75)"/><path d="M20.8 89.45q.75-.4 2-.75l2.1-.4q1.85 0 5.4 2.5 1.5 1.05 2.9 2.35-2.8 9.4-2.9 17.85-8.75-9.85-9.45-20.9v-.4l-.05-.25" fill="#bcb67e" fill-rule="evenodd" transform="translate(.75 .75)"/><path d="m24 64.85.1-.75m22.5 11.65q-9.5-11.2-22.6-10.9l-1.55 8.85q-1.45 6-.9 16.5m12.4 3.7.2-.75q3-9.8 6.95-12.95l1.3-1.2 1-.75q1.4-1.2 3-2.3m.2-.2.05.05.45.55M33.95 93.9q-2.8 9.4-2.9 17.85-8.75-9.85-9.45-20.9v-.4" fill="none" stroke="#000" stroke-linecap="round" stroke-linejoin="round" stroke-width="1.5"/><path d="M83.8 87.85q3.15-2.85 7.8-5.75l.6-.35-.05 1.1q-.5 11-6.7 20.9-.05-7.55-1.65-15.9" fill="#5b5346" fill-rule="evenodd" transform="translate(.75 .75)"/><path d="m92.2 81.75-.6.35q-4.65 2.9-7.8 5.75l-.55-2.75q-2.1-9.8-4.95-12.95L77.4 71l-.7-.8-1.5-1.65q1.4-9.25 15.35-11.2l1 8.3q1 5.95.65 16.1" fill="#39352d" fill-rule="evenodd" transform="translate(.75 .75)"/><path d="m91.15 56.8.15 1.3.75-.1m.9 24.5q.35-10.15-.65-16.1l-1-8.3q-13.95 1.95-15.35 11.2l1.5 1.65.7.8.9 1.15Q81.9 76.05 84 85.85l.55 2.75q1.6 8.35 1.65 15.9 6.2-9.9 6.7-20.9l.05-1.1M75.8 71.65q0-1.25.15-2.35l-.65-.65" fill="none" stroke="#000" stroke-linecap="round" stroke-linejoin="round" stroke-width="1.5"/><path d="m87.65 20-.05.4v.1l-.15-.05.2-.45m-79.6-8.65-.1-.25.05-.05.05.3" fill="#592d26" fill-rule="evenodd" transform="translate(.75 .75)"/><path d="M87.6 20.5q-1.3 8.55-.95 19.2l1.65 13.75q.85.7 1.85.95 2 .6 4.4.05-3.95 6.6-9.45 11.15-7.7 6.4-18.4 8.85L50.95 72.7h-.25l-1.95-.3q-13-2-23.05-7.55l-14.4-7.9.2-.35q1.25-.85 2.25-2.4-1 1.55-2.25 2.4 2.9-8.85 4.2-19.15l-.15-3.2Q15 27.3 12.8 21.1l-.05-.05q-3.4-5.45-4.7-9.7 5.15 5.35 11.4 8.25 2.45 1.15 5.05 1.9l3.9.85q5.55 1.7 10.65 2.4l22.85.9 6.3-.45 10.3-1.55q5.35-1.25 8.95-3.2l.15.05m-2.5 4.45 2.35-4.5-2.35 4.5m4 35.25-.8-6.75.8 6.75M18.6 29.3q-3.45-4.4-5.8-8.2 2.35 3.8 5.8 8.2" fill="#120514" fill-rule="evenodd" transform="translate(.75 .75)"/><path d="m11.1 56.85.4-.25-.2.35-.2-.1" fill="#421f1c" fill-rule="evenodd" transform="translate(.75 .75)"/><path d="m78.4 17.4 1.05 3.15q2.45-.6 8.3-3.65l1.25-.65L87.65 20l-.2.45q-3.6 1.95-8.95 3.2L68.2 25.2l-6.3.45-22.85-.9q-5.1-.7-10.65-2.4l-3.9-.85q-2.6-.75-5.05-1.9-6.25-2.9-11.4-8.25l-.05-.3q2.6-2.45 4-1.6l3.5 2.1q4.2 1.5 13.65 4.25l-.8-3.75Q27.2 6.1 27.2 3q0-2.85 1.1-2.85l.9.25 3.9 7.8q3.15 6.8 4.65 11.05 2.2.35 3.65-1.35l5.35.5 8.45.1 5.1.3 9.85-.95q-.15-4.7-1.6-8.55-1.65-4.4-1.65-6.75Q66.9 0 68.8 0l1.55.35q2.05 3.4 4.35 8.45l3.7 8.6-8.25.45 8.25-.45m19.8 39.75q-.95 9.65-7.75 20.15-10 9.9-18.6 13.35-16.95-1.4-44.6-9.85Q-.45 72.35 0 56.05q3.55 1.7 6.5 1.8h.05v.05Q14.8 66.1 20 67.75L31.65 72q4.35 1.6 8.25 1.6l8.75-.7.1-.5 1.95.3h.25l15.75 1.75Q77.4 72 85.1 65.6q6.65-3.5 13.1-8.45M29.15 15.8q2.55.8 6.35 2.7 1.2.6 2.25.75-1.05-.15-2.25-.75-3.8-1.9-6.35-2.7" fill="#6c1e66" fill-rule="evenodd" transform="translate(.75 .75)"/><path d="M81.45 15.2q6-3.75 7.95-6.25l.95.4v.1q-.3 3.4-1.35 6.8l-1.25.65q-5.85 3.05-8.3 3.65L78.4 17.4l1.45-.4 1.2-1.15.4-.65-.4.65-1.2 1.15-1.45.4-3.7-8.6Q72.4 3.75 70.35.35q1.75.8 4.1 3.2 3.55 3.7 5.45 8.3l1.55 3.35m13.1 39.25Q96.3 54 98.3 52.9l-.1 4.25q-6.45 4.95-13.1 8.45 5.5-4.55 9.45-11.15M29.2.4q1.25.55 3.25 2.5 4.05 3.9 7.25 11l1.5 3.45.2.55q-1.45 1.7-3.65 1.35Q36.25 15 33.1 8.2L29.2.4" fill="#ad30a4" fill-rule="evenodd" transform="translate(.75 .75)"/><path d="m6.55 57.85 2.85-.3 1.7-.7.2.1 14.4 7.9q10.05 5.55 23.05 7.55l-.1.5-8.75.7q-3.9 0-8.25-1.6L20 67.75Q14.8 66.1 6.55 57.9v-.05" fill="#40113d" fill-rule="evenodd" transform="translate(.75 .75)"/><path d="M89.75 17q1.05-3.4 1.35-6.8v-.1l-.95-.4q-1.95 2.5-7.95 6.25l-.4.65-1.2 1.15-1.45.4-8.25.45q-.15-4.7-1.6-8.55-1.65-4.4-1.65-6.75 0-2.55 1.9-2.55l1.55.35q1.75.8 4.1 3.2 3.55 3.7 5.45 8.3l1.55 3.35M89.75 17l-1.35 3.75-.05.4v.1q-1.3 8.55-.95 19.2l1.65 13.75q.85.7 1.85.95 2 .6 4.4.05 1.75-.45 3.75-1.55l-.1 4.25Q98 67.55 91.2 78.05q-10 9.9-18.6 13.35Q55.65 90 28 81.55.3 73.1.75 56.8q3.55 1.7 6.5 1.8h.05l2.85-.3 1.7-.7.4-.25q2.9-8.85 4.2-19.15L16.3 35q-.55-6.95-2.75-13.15l-.05-.05q-3.4-5.45-4.7-9.7l-.1-.25.05-.05q2.6-2.45 4-1.6l3.5 2.1q4.2 1.5 13.65 4.25l-.8-3.75q-1.15-5.95-1.15-9.05 0-2.85 1.1-2.85l.9.25q1.25.55 3.25 2.5 4.05 3.9 7.25 11l1.5 3.45.2.55 5.35.5 8.45.1 5.1.3 9.85-.95m17.3 2.6.2-.45m-.2.45-2.35 4.5m3.2 28.5.8 6.75M38.5 20q2.2.35 3.65-1.35M38.5 20q-1.05-.15-2.25-.75-3.8-1.9-6.35-2.7m-16.35 5.3q2.35 3.8 5.8 8.2m-4.85 24.9q-1 1.55-2.25 2.4" fill="none" stroke="#000" stroke-linecap="round" stroke-linejoin="round" stroke-width="1.5"/><path d="m48.8 41.05 14.4 5.8.05 2.25q0 5.4-1.55 9.85l-4.8-6.6-16.25-5.75-8.1.35q.35-6.35 3-11.3l8 3.25 5.25 2.15" fill="#5b5346" fill-rule="evenodd" transform="translate(.75 .75)"/><path d="m48.8 41.05-5.25-2.15q3.15-6.5 7.95-12.25-1.5 7.2-2.7 14.4m-3.65 29.9-.6 9.1q-2.15-5.75-3.55-11 1.95 1.35 4.15 1.9" fill-rule="evenodd" transform="translate(.75 .75)"/><path d="m32.55 46.95 8.1-.35 16.25 5.75 4.8 6.6q-1.1 3.1-2.95 5.8-4.5 6.5-10.9 6.5l-2.7-.3q-2.2-.55-4.15-1.9-2.2-1.6-4.05-4.3-4.5-6.5-4.5-15.65l.1-2.15" fill="#fff" fill-rule="evenodd" transform="translate(.75 .75)"/><path d="m44.3 39.65-8-3.25q-2.65 4.95-3 11.3m29.15 12Q64 55.25 64 49.85l-.05-2.25m-14.4-5.8q1.2-7.2 2.7-14.4-4.8 5.75-7.95 12.25m-8-3.25-1.1-.45m6.55 33.85q-2.2-1.6-4.05-4.3-4.5-6.5-4.5-15.65l.1-2.15m29.15 12q-1.1 3.1-2.95 5.8Q55 72 48.6 72l-2.7-.3-.6 9.1q-2.15-5.75-3.55-11 1.95 1.35 4.15 1.9" fill="none" stroke="#000" stroke-linecap="round" stroke-linejoin="round" stroke-width="1.5"/></g><g id="d"><path d="m82.25 36-2.05 1.9-5.65 5.05v1.95q0 4.7.6 8.6L77 47.75l6.4-5 3.15.3q-.15-5.55-1.15-9.85L82.25 36" fill="#5b5346" fill-rule="evenodd" transform="translate(-73.8 -24.6)"/><path d="M82.25 36q-1.25-5.65-3.1-10.65L80.2 37.9l2.05-1.9m-.65 27.95.25 7.9 1.4-9.55-1.65 1.65" fill-rule="evenodd" transform="translate(-73.8 -24.6)"/><path d="M75.15 53.5q.4 2.7 1.15 5.05 1.75 5.65 4.25 5.65l1.05-.25 1.65-1.65q.85-1.4 1.6-3.75 1.75-5.7 1.75-13.65l-.05-1.85-3.15-.3-6.4 5-1.85 5.75" fill="#fff" fill-rule="evenodd" transform="translate(-73.8 -24.6)"/><path d="M6.4 13.3 5.35.75q1.85 5 3.1 10.65l3.15-2.8.4-.4M.75 18.35v1.95q0 4.7.6 8.6.4 2.7 1.15 5.05 1.75 5.65 4.25 5.65l1.05-.25.25 7.9 1.4-9.55q.85-1.4 1.6-3.75 1.75-5.7 1.75-13.65l-.05-1.85Q12.6 12.9 11.6 8.6M7.8 39.35l1.65-1.65" fill="none" stroke="#000" stroke-linecap="round" stroke-linejoin="round" stroke-width="1.5"/></g><path d="m3.1 0 27.65 11.2.05 2.25q0 5.4-1.55 9.85-1.1 3.1-2.95 5.8-4.5 6.5-10.9 6.5l-2.7-.3q-2.2-.55-4.15-1.9-2.2-1.6-4.05-4.3Q0 22.6 0 13.45l.1-2.15Q.45 4.95 3.1 0" fill="#fff" fill-opacity=".769" fill-rule="evenodd" id="e"/><use width="30.8" height="35.6" xlink:href="#e" id="c"/></defs></svg>