<svg viewBox="0 0 105.98 168.7" xmlns="http://www.w3.org/2000/svg" xmlns:xlink="http://www.w3.org/1999/xlink"><g transform="translate(-49.75 -23.15)"><use transform="translate(51.75 25.65)" width="103.95" height="164.75" xlink:href="#a"/><use transform="translate(65.65 29.2)" width="66.2" height="158.5" xlink:href="#b"/><use transform="translate(51.9 29.75)" width="51.75" height="154.05" xlink:href="#c"/><use transform="translate(49.75 23.15)" width="86.5" height="168.7" xlink:href="#d"/><use transform="translate(62.15 88.55)" width="47.35" height="32.9" xlink:href="#e"/><use transform="translate(62.95 29.65)" width="91.1" height="74" xlink:href="#f"/></g><defs><g id="a"><path d="m18.45 17.35-.7 4.85 15.85 6.75-4.3 16.35L4.8 35.2 3.35 27 9.1 6.85v-.5l1.25-.45q-2.4 15.6-2.2 15.25l10.3-3.8" fill="#1a3d4a" fill-rule="evenodd" transform="translate(.15)"/><path d="M17.15 3.35v4.9h2.6l-1.3 9.1-10.3 3.8q-.2.35 2.2-15.25l6.8-2.55" fill="#224f62" fill-rule="evenodd" transform="translate(.15)"/><path d="m17.15 3.35 3.5-1.3-.9 6.2h-2.6v-4.9" fill="#3d92ad" fill-rule="evenodd" transform="translate(.15)"/><path d="m19.9 8.25.9-6.2-3.5 1.3m2.6 4.9-1.3 9.1-.7 4.85 15.85 6.75-4.3 16.35-24.5-10.1L3.5 27 9.25 6.85v-.5l1.25-.45 6.8-2.55" fill="none" stroke="#000" stroke-linecap="round" stroke-linejoin="round" stroke-width=".05"/><path d="m97 54.5-2.25 3.45L70.2 54.1l3.6-18.65 15.95 2.3 6.4-21.65 3.4 4.8v1.85l-6.85 21.7L97 54.5" fill="#224f62" fill-rule="evenodd" transform="translate(.15)"/><path d="m101.65 38.35-2.15 12.3L97 54.5l-4.3-10.05 6.85-21.7v15.6h2.1" fill="#2b6679" fill-rule="evenodd" transform="translate(.15)"/><path d="m99.55 20.9 4.25 6-.25.5-1.9 10.95h-2.1V20.9" fill="#3d92ad" fill-rule="evenodd" transform="translate(.15)"/><path d="m97.15 54.5-2.25 3.45-24.55-3.85 3.6-18.65 15.95 2.3 6.4-21.65 7.65 10.8-.25.5-1.9 10.95-2.15 12.3z" fill="none" stroke="#000" stroke-linecap="round" stroke-linejoin="round" stroke-width=".05"/><path d="m53.9.55.05-.05q24.35 30.8 27.9 81.3-26.35 56.05-62.7 82.4l-.05-.05q.45-27.85 3.85-53.85.95-.7 2.1-1.15 2.25-.8 3-2.85-1.6-1.95-4.1-3.25l.4-2.6q7.15-4 13.5-8.95 3.05 3.3 7.2 2.85 4.5-.5 7.65-5.2 3.15-4.6 3.1-10.6t-3.25-10Q49.3 64.7 44.8 65.2q-4.55.5-7.7 5.1-3.05 4.55-3.1 10.3L30.05 76l-.3-4.05q1.4-6.1 2.95-12.1l2.2-.8 3.6-.3 5.7-1.3q-5.15-.6-9.95-3.25l1.15-4.1 15.25-3.95-7.25-.85-.05-.15-6.1-1.2q7-22.55 16.65-43.4" fill="#272727" fill-rule="evenodd" transform="translate(.15)"/><path d="M19.1 164.15Q1.65 125.6.35 64.4 22.7 17.3 53.9.55q-9.65 20.85-16.65 43.4l6.1 1.2.05.15 7.25.85L35.4 50.1l-1.15 4.1q4.8 2.65 9.95 3.25l-5.7 1.3-3.6.3-2.2.8q-1.55 6-2.95 12.1l.3 4.05L34 80.6v.4q.05 6 3.3 9.85l.55.65q-6.35 4.95-13.5 8.95l-.4 2.6q2.5 1.3 4.1 3.25-.75 2.05-3 2.85-1.15.45-2.1 1.15-3.4 26-3.85 53.85m7.25-94.8q-1.8-3.9-5-4.65-3.2-.8-5.95 2-2.9 2.75-3.7 7.45t.95 8.6q1.7 3.85 4.9 4.65 3.15.8 6.05-1.95 2.8-2.8 3.6-7.5.8-4.75-.85-8.6" fill-rule="evenodd" transform="translate(.15)"/><path d="m53.9.55.05-.05q24.35 30.8 27.9 81.3-26.35 56.05-62.7 82.4v.05l-.05-.1Q1.65 125.6.35 64.4 22.7 17.3 53.9.55z" fill="none" stroke="#424242" stroke-linecap="round" stroke-linejoin="round" transform="translate(.15)"/></g><g id="b" fill-rule="evenodd"><path d="m11-78.55 2.35 2.7-7.45 14.7-2.45-6.05 5.2-10.5 2.35-.85m15.35 35.3 1.35 5.35Q22.95-30.7 17-22.6l-1.3-6.5 6.7-9.8-10.15-3.8-1.95-6.15q8.45 2.6 16.05 5.6M19.4-9.35q4.9 1.85 7.1 3.4 2.9 1.9 5.85 5.75l-.8 3.1-1 3q-7.3 4.35-16.95 7.7l2.9-5.95Q22.3 5.2 27 2.35q-3.1-4.45-7.2-6.7.1-2.1-.4-5M6.25 25.7q2 7.3 3.4 16.15L5.8 46.8l-18.1 3 4.8-5.65 11.55-2.1-1.9-10.45 4.1-5.9m-33.8 40.25 5.15-5.15q.35 9.85-.4 17l-2.5 2.15-2.75-3.15q.45-4.1.5-10.85" fill="#577044" transform="translate(33.05 78.55)"/><path d="m17.05-58.95 2.65-4.85 2.25 6.35-4.9-1.5M.7-73.65l3.7-1.85L2-70.65l-1.3-3M14.85-32.8l-1.6-6.25 4.7 1.7-3.1 4.55m17.1 16.25-4.5-2.2 3.3-4.5 1.2 6.7m-13.2 17.9.7-2.75 3.15 3.2-4.75 2.4.9-2.85M18 23.15l5.35-1.85-4 6.6L18 23.15M-.4 35.05l.9 4.8-5.35.95 4.45-5.75m-10.2 25.5 5.4-.7-5.25 5.75-.15-5.05m-20 8.25-.15 4.85-2.3-2.7 2.45-2.15" fill="#3d0049" transform="translate(33.05 78.55)"/><path d="m18.25-67.45-5.55 10.4 10.5 3.35 2 6.5q-8.05-3.05-16.15-5.4L7.3-57.5q3.7-6.8 8.4-16.25l2.55 6.3M30-27.15l-7.1 9.75 9.7 4.75q.75 3.75.45 7.7-2.5-2.6-6.8-4.8L18.7-13.4l-.9-5.35q6.25-8.45 10.8-15.15l1.4 6.75m-4.5 44.5q-5.45 2.25-11.35 4.1Q15.6 26.1 16.9 31.7l-4.5 6.35q-1.55-8.7-3.8-15.95l3-4.9q9.55-3.05 17.3-6.95l-3.4 7.1M-13.9 58q.3 5.8.3 10.95l-5.65 5.55q.4-7.7-.05-16.9l4.05-4.5 18.1-2.7-5.05 6-11.7 1.6" fill="#2a5f77" transform="translate(33.05 78.55)"/></g><g id="c" fill="#330" fill-rule="evenodd"><path d="m18.3-77 2.7 3.4.45 11.05-4 4.5q-.65-8.75-.9-17.1L18.3-77M-5.1-48.9q7.1-.2 14.75.25l-3.75 4.9-9.35-.05 1.85 10.9-3.3 5.3q-1.9-9.15-3.15-17.05l2.95-4.25M-25.65-6.85l.3-3 .45-3q3.65-2.35 6.65-3.1l6.85-.75q-1.45 2.4-2.1 4.35-4.05.65-8.05 3.55 2.7 4.1 6.5 8.15l.2 6.25Q-21.4-.6-25.65-6.85m13.6 32.15q-2.45 3.7-5.15 8.55l8.5 5.65 1.8 6.6q-6.5-3.85-13.3-8.6l-1.35-5.65q4.2-7.4 8.3-13.15l1.2 6.6m11.6 40.15q-2.3 5.95-3.3 9.7l-3.3 1.9-1.3-2.7q1.9-6.55 5.65-15.2l2.25 6.3" transform="translate(25.85 77)"/><path d="m23.85-65.2-.2-5.05 2.25 2.9-2.05 2.15m-16.45.3.35 5.1-4.4-.25L7.4-64.9m-7 29-.9-5.05h4.35L.4-35.9m-19.25 8.75 3.25-5.6 1.05 5.1-4.3.5m4.2 20.2-.25 2.8-2.95-3.7q2.1-1.25 3.6-1.75l-.4 2.65m-7.05 19.5-2.7 3.8-.9-7.2 3.6 3.4m5.65 40.1 4.05 2.4-1.85 4.4-2.2-6.8m6.4-16.95-3.9-2.6 2.3-4 1.6 6.6M-.5 73.3 1 68.95l1.25 2.7L-.5 73.3" transform="translate(25.85 77)"/><path d="m9.8-67.65 4.25-4.75q.4 9.9 1 17.1l-3.15 3.8-14.7-.55 3.85-5.1 9.5.5-.75-11m-16.65 43.2L-9.5-20l-7.2.7q-4.25.55-7.1 2.05 1.1-3.6 3-6.65l9.4-1.05-2.25-10.95 3.45-5.55q1.3 7.5 3.35 17m-11.2 36.75-7.6-7.35-.2-7.45Q-21.1 3.6-14.5 9.45l.65 5.25q-4.35 5.7-8.6 12.9l-1.35-7.1 5.75-8.2M-5.7 50l1.65 5.3q-3.6 8-5.95 14.95l-2.5-6.8 4.05-9.6-8.75-5.2-2-7Q-13 45.8-5.7 50" transform="translate(25.85 77)"/></g><g id="d" fill="none" stroke-linecap="round" stroke-linejoin="round" stroke-width="5"><path d="M84 83.8q-26.35 56.05-62.7 82.4l-.05-.05Q3.8 127.6 2.5 66.4 24.85 19.3 56.05 2.55l.05-.05" stroke="#000"/><path d="M79.95 55.05Q82.9 68.5 84 83.8M56.1 2.5q6.6 8.35 11.65 18.1" stroke="#333"/><path d="M67.75 20.6 71 27.35m.85 2q5.05 11.9 8.1 25.7" stroke="#474747"/><path d="m71 27.35.85 2" stroke="#878787"/></g><g id="e" fill="none" stroke-linecap="round" stroke-linejoin="round" stroke-width="3"><path d="m32.6 2.75 2.25-.55q4.5-.5 7.75 3.35 3.2 4 3.25 10t-3.1 10.6q-3.15 4.7-7.65 5.2l-2.5-.05M5.95 3.2Q8.5.95 11.4 1.7q3.2.75 5 4.65 1.65 3.85.85 8.6-.8 4.7-3.6 7.5-2.9 2.75-6.05 1.95l-1.65-.65" stroke="#1a1a1a"/><path d="M32.6 31.3q-2.95-.6-5.25-3.45Q24.1 24 24.05 18v-.7m.85-5.3q.75-2.5 2.25-4.7 2.35-3.4 5.45-4.55m-26.65 21q-2.05-1.2-3.25-4-1.35-3.05-1.15-6.6m.7-4.1Q3.2 5.8 5.45 3.7l.5-.5" stroke="#373737"/><path d="M24.05 17.3q.05-2.8.85-5.3M1.55 13.15l.2-2 .5-2.1" stroke="#929292"/></g><path d="m91.1 23-.4 6.65M8.35 0l-.4 3.75m13.8 69.8 3.35.45M0 69.4l2.95.4" fill="none" stroke="#fff" stroke-linecap="round" stroke-linejoin="round" stroke-width=".05" id="f"/></defs></svg>