<svg viewBox="0 0 206.55 109.6" xmlns="http://www.w3.org/2000/svg" xmlns:xlink="http://www.w3.org/1999/xlink"><use width="206.55" height="109.6" xlink:href="#a"/><defs><g id="a"><path d="M317.15 143.25q14.05 3.55 22.1 8.25l-11.5 5.5q10.05 5.55 14 12l15.5-2q3.15 10.8-6.35 18.8l-2.45-1.35q7.9-7.45 7.3-15.45l-16.25 2.25q-3.15-7.25-16-14.25l12.25-5.25q-6.65-3.55-17.6-6.15l-1-2.35m-72.7 61 1.8 1.4-.5 3.85q-17.35-.1-33-4.25l6.25-7.5-19.75-4.5-7.5 6q-3.35-1.6-6.25-3.3l-1.1-2.9q3 1.75 6.85 3.2l8-5.75 23.25 5.5-5.75 8q12.15 3.55 27.25 3.25l.45-3m-59.65-24.6 2.7 3.35-3.9 1.8.2-1.5.7-.3-.5-.55.8-2.8" fill="#dfd897" fill-rule="evenodd" transform="translate(-159.65 -107.85)"/><path d="M350.9 185.8q9.5-8 6.35-18.8l-15.5 2q-3.95-6.45-14-12l11.5-5.5q-8.05-4.7-22.1-8.25l-.6-1.1-.55-1.05-1.3-2.25v-.05l-.1-.15 3.25.85q8.5 2.25 16.2 5.25 31.55 12.35 32.05 29.65v1.1q-.25 7.9-7 14.8l-8.2-4.5m-104.65 19.85 14.55 11.7h-4.05q-37.7-.15-61.3-8.35-7.05-6.55-9.95-13.05 2.9 1.7 6.25 3.3l7.5-6 19.75 4.5-6.25 7.5q15.65 4.15 33 4.25l.5-3.85M183.8 183.3l.2-.85.5.55-.7.3m9.1-32.2q1.9 1.8 4.35 3.45-.3.7-.3 1.25l.3-1.25 5.3 2.9q3.8 1.75 8.5 3.15l4.75 1.25q-8.8.1-13.5 3.9-8.1 5.75 14.3 19.95l-6.5-2.25q-4.7-1.85-8.25-3.85l-5-3.4q-3.85-3.2-5.2-6.8l-.2-.6-.3-1.35-.2-1.65v-1.1q.1-6.25 1.5-11.95l.45-1.65m124.3-2.85 1.35-1.55 1 2.75q2.35 7.4 2.4 15.7v.65q-.05 1.9-.75 3.75 0-10.65-4-21.3" fill="#f4ab02" fill-rule="evenodd" transform="translate(-159.65 -107.85)"/><path d="m348.45 184.45 2.45 1.35q-3.65 3.05-9.15 5.7l-12.75-5q-8.7 5.8-23.75 9.5l4.75 7.75q-15.7 4.85-35.25 4.5l-1.25-6.75h-26.75l-.5 4.15-1.8-1.4.8-5.5h30.25l1.5 6.75q13.6.95 29.75-3.25l-5-7.25q15.95-4.35 27-10.75l14 4.75 5.7-4.55m-162.95 11.5q-6.95-4.1-11.25-8.95l9.55-3.7-.2 1.5-5.85 2.7q2.5 3.05 6.65 5.55l1.1 2.9m-1.5-13.5q-7.2-8.05-6.25-17.7H166.5q-1.65-13.6 2.25-29l11 7.5q1.7-10.9 7-17.5l-4-11.25q12.1-.35 20.25 11.25l-1.4 5.25 1.25 1.3-1 1.25L199 132l2-6q-7-8.75-14.75-9.25l3.75 9.75q-6.65 4.4-9.5 20.25L170 139q-2.3 11.4-1.5 23.75h11.25q-1.15 8.45 5.05 16.9l-.8 2.8" fill="#d1c669" fill-rule="evenodd" transform="translate(-159.65 -107.85)"/><path d="m350.9 185.8 8.2 4.5q-8 8.05-25.05 14.65-30.55 12-73.25 12.4l-14.55-11.7.5-4.15h26.75l1.25 6.75q19.55.35 35.25-4.5l-4.75-7.75q15.05-3.7 23.75-9.5l12.75 5q5.5-2.65 9.15-5.7m-29.7-16.25q-.85 2.2-2.7 4.3l-4.95 4.25q-4.35 2.85-10.8 5.35-6.75 2.65-14.5 4.35l-12.15 2.05-19.65 1.1-21.65-1.35-8.85-1.5q-4.85-1-9.35-2.4-22.4-14.2-14.3-19.95 4.7-3.8 13.5-3.9l11.55 2.1 8.6.9 18.55.85 20-.8 11.6-1.7q14.65-2.95 24.2-9.3l4.75-3.65 2.15-2q4 10.65 4 21.3m-112.7-43.3q-3.1 2.9-5.65 6.05l-1.25-1.3 1.4-5.25q-8.15-11.6-20.25-11.25l4 11.25q-5.3 6.6-7 17.5l-11-7.5q-3.9 15.4-2.25 29h11.25q-.95 9.65 6.25 17.7l-.2.85-9.55 3.7q4.3 4.85 11.25 8.95 2.9 6.5 9.95 13.05-4.8-1.65-8.95-3.65-25-11.85-26.75-40.6 2.25-45.8 16-54.45 12.35-7.65 32.75 15.95" fill="#c90" fill-rule="evenodd" transform="translate(-159.65 -107.85)"/><path d="m348.45 184.45-5.7 4.55-14-4.75q-11.05 6.4-27 10.75l5 7.25q-16.15 4.2-29.75 3.25l-1.5-6.75h-30.25l-.8 5.5-18.5-16.15 8.85 1.5 21.65 1.35 19.65-1.1 12.15-2.05q7.75-1.7 14.5-4.35 6.45-2.5 10.8-5.35l4.95-4.25q1.85-2.1 2.7-4.3l27.25 14.9m-146.6-50.9-.75.95-2.85 4.3q-1.7 2.7-2.95 5.6l-1.4 3.35-1 3.35-.45 1.65q-1.4 5.7-1.5 11.95v1.1l.2 1.65.3 1.35q-4.8 5.4-6.65 10.85-6.2-8.45-5.05-16.9H168.5q-.8-12.35 1.5-23.75l10.5 7.75q2.85-15.85 9.5-20.25l-3.75-9.75q7.75.5 14.75 9.25l-2 6 2.85 1.55m9.2 27.05q10.8-2.25 19.35-5.4l2.6-1.05q32.45-13.25 28.25-43.4 21.4 1.75 35.45 11.55 14 9.75 20.5 25.95l-2.15 2-4.75 3.65q-9.55 6.35-24.2 9.3l-11.6 1.7-20 .8-18.55-.85-8.6-.9-11.55-2.1-4.75-1.25m-27.45 24.2q-.4 4.1.8 8.25-4.15-2.5-6.65-5.55l5.85-2.7" fill="#963" fill-rule="evenodd" transform="translate(-159.65 -107.85)"/><path d="M318.15 145.6q10.95 2.6 17.6 6.15L323.5 157q12.85 7 16 14.25l16.25-2.25q.6 8-7.3 15.45l-27.25-14.9q.7-1.85.75-3.75v-.65q-.05-8.3-2.4-15.7l-1-2.75-1.35 1.55q-6.5-16.2-20.5-25.95-14.05-9.8-35.45-11.55 4.2 30.15-28.25 43.4l-2.6 1.05q-8.55 3.15-19.35 5.4-4.7-1.4-8.5-3.15l-5.3-2.9q-2.45-1.65-4.35-3.45l1-3.35 1.4-3.35q1.25-2.9 2.95-5.6l2.85-4.3.75-.95 1-1.25q2.55-3.15 5.65-6.05l1.6-1.5q19.2-16.8 46.35-16.8t46.3 16.8q6.35 5.6 10.65 12l1.2 1.9.1.15v.05l1.3 2.25.55 1.05 1.3 2.75.65 1.65.05.15-.05-.15-.35-.95m-92.2 42.5 18.5 16.15-.45 3q-15.1.3-27.25-3.25l5.75-8-23.25-5.5-8 5.75q-3.85-1.45-6.85-3.2-1.2-4.15-.8-8.25l3.9-1.8-2.7-3.35q1.85-5.45 6.65-10.85l.2.6q1.35 3.6 5.2 6.8l5 3.4q3.55 2 8.25 3.85l6.5 2.25q4.5 1.4 9.35 2.4m-28.7-33.55-.3 1.25q0-.55.3-1.25" fill="#ca9662" fill-rule="evenodd" transform="translate(-159.65 -107.85)"/><path d="M199.45 82.45q6.75-6.9 7-14.8v-1.1q-.5-17.3-32.05-29.65-7.7-3-16.2-5.25l-3.25-.85.1.15V31l1.3 2.25.55 1.05m4.65 27.4q-.85 2.2-2.7 4.3l-4.95 4.25q-4.35 2.85-10.8 5.35-6.75 2.65-14.5 4.35L116.45 82 96.8 83.1l-21.65-1.35-8.85-1.5m34.85 29.25q42.7-.4 73.25-12.4 17.05-6.6 25.05-14.65m-156.25-58q2.55-3.15 5.65-6.05Q28.45-5.2 16.1 2.45 2.35 11.1.1 56.9q1.75 28.75 26.75 40.6 4.15 2 8.95 3.65m7.4-76.7-1 1.25-.75.95-2.85 4.3q-1.7 2.7-2.95 5.6l-1.4 3.35-1 3.35q1.9 1.8 4.35 3.45l5.3 2.9q3.8 1.75 8.5 3.15L56.15 54l11.55 2.1 8.6.9 18.55.85 20-.8 11.6-1.7q14.65-2.95 24.2-9.3l4.75-3.65 2.15-2 1.35-1.55-.05-.15-.65-1.65-1.3-2.75M48.85 18.4l1.6-1.5Q69.65.1 96.8.1t46.3 16.8q6.35 5.6 10.65 12l1.2 1.9M31.8 60.95l-.3-1.35-.2-1.65v-1.1q.1-6.25 1.5-11.95l.45-1.65m23.7 34.6-6.5-2.25q-4.7-1.85-8.25-3.85l-5-3.4q-3.85-3.2-5.2-6.8l-.2-.6m129.75.75q.7-1.85.75-3.75v-.65q-.05-8.3-2.4-15.7l-1-2.75m-101.95 39q4.5 1.4 9.35 2.4m34.85 29.25H97.1q-37.7-.15-61.3-8.35" fill="none" stroke="#300" stroke-linecap="round" stroke-linejoin="round" stroke-opacity=".412" stroke-width=".2"/></g></defs></svg>