<svg viewBox="0 0 34.7 52.05" xmlns="http://www.w3.org/2000/svg" xmlns:xlink="http://www.w3.org/1999/xlink"><use width="34.7" height="52.05" xlink:href="#a"/><defs><g id="a"><path d="m227.8 209.95 1.65.65q-.05 8.05-3.3 14.25l-2.2-.1q3.25-4.65 3.85-14.8" fill="#a6a8ae" fill-rule="evenodd" transform="translate(-217.35 -173.4)"/><path d="m221.4 207.3 6.3 2.6.1.05q-.6 10.15-3.85 14.8l-.1.2q-5.3-3.55-5.75-7.4 2.95-4.55 3.3-10.25" fill="#7f8185" fill-rule="evenodd" transform="translate(-217.35 -173.4)"/><path d="M223.85 224.95q-5.3-3.55-5.75-7.4 2.95-4.55 3.3-10.25" fill="none" stroke="#5d5e61" stroke-linecap="round" stroke-linejoin="round" stroke-opacity=".702" transform="translate(-217.35 -173.4)"/><path d="m226.15 224.85-2.2-.1q3.25-4.65 3.85-14.8" fill="none" stroke="#6c6c6c" stroke-linecap="round" stroke-linejoin="round" stroke-opacity=".6" transform="translate(-217.35 -173.4)"/><path d="M229.45 210.6q-.05 8.05-3.3 14.25" fill="none" stroke="#9d9d9d" stroke-linecap="round" stroke-linejoin="round" stroke-opacity=".6" transform="translate(-217.35 -173.4)"/><path d="m247.9 207.6 1.05-.2 1.8-.7.05.2.75 2.15-1.65.65-1.55.45-.45-2.55" fill="#ffccc4" fill-rule="evenodd" transform="translate(-217.35 -173.4)"/><path d="M229.55 209.05h.05l3 .35.05.05.85-.05h3.05l1.9-.2 1.5-.2.7-.05 1.6-.25 1.05-.15 1.1-.25 3.5-.7.45 2.55-4.55 1.1-2.8.5-3.75.45-8.4-.65.7-2.5" fill="#cf3e29" fill-rule="evenodd" transform="translate(-217.35 -173.4)"/><path d="M236.55 209.4q3.25-2.15 4.35-6.15l-.05-.15-3-4 1.75-3.4q3.6 1.95 6.85 6.1l2.05 4.35.45 1.25-1.05.2-3.5.7-1.1.25-1.05.15-1.6.25-.7.05-1.5.2-1.9.2m5.4-8.8-.9-1.1.9 1.1m2.35 6.1q-.35-2.45-1.6-4.35 1.25 1.9 1.6 4.35" fill="#a6a8ae" fill-rule="evenodd" transform="translate(-217.35 -173.4)"/><path d="M237.75 194.85v-.15q.85.2 1.95.7 2.15.85 5.3 2.6 4.25 3.6 5.55 8l.2.7-1.8.7-.45-1.25-2.05-4.35q-3.25-4.15-6.85-6.1l-1.85-.85" fill="#e6e9f2" fill-rule="evenodd" transform="translate(-217.35 -173.4)"/><path d="m237.6 194.65.15.2-1-.3.85.1" fill="#dea240" fill-rule="evenodd" transform="translate(-217.35 -173.4)"/><path d="M237.75 194.7v.15l-.15-.2.15.05" fill="#ffbb4a" fill-rule="evenodd" transform="translate(-217.35 -173.4)"/><path d="m224.25 207.55.9.35 2.2.7.5.1-1 2.35h-.05l-3.2-1.05-.15-.15.8-2.3" fill="#9f4a35" fill-rule="evenodd" transform="translate(-217.35 -173.4)"/><path d="m236.75 194.55 1 .3 1.85.85-1.75 3.4 3 4 .05.15q-1.1 4-4.35 6.15h-3.05l-.85.05-.05-.05-3-.35h-.05l-1.7-.35-.5-.1-2.2-.7-.9-.35q-1.45-.65-2.3-1.4 1-4.25 6.15-8.65 6.5-2.95 6.6-2.9h.7l.4-.05h.95" fill="#7f8185" fill-rule="evenodd" transform="translate(-217.35 -173.4)"/><path d="M221.95 206.15q.85.75 2.3 1.4l-.8 2.3q-1.3-.65-2.35-1.5l.85-2.2m5.9 2.55 1.7.35-.7 2.5h-.05l-1.95-.5 1-2.35" fill="#703324" fill-rule="evenodd" transform="translate(-217.35 -173.4)"/><path d="m237.75 194.7-.15-.05-.85-.1h-.95m-1.1.05q-.1-.05-6.6 2.9-5.15 4.4-6.15 8.65M245 198q-3.15-1.75-5.3-2.6-1.1-.5-1.95-.7m13.05 12.2-.05-.2M235.4 194.6h-.7m13.65 15.55 1.55-.45 1.65-.65-.75-2.15m-.05-.2-.2-.7q-1.3-4.4-5.55-8m3.35 12.15-4.55 1.1-2.8.5-3.75.45-8.4-.65m-.05 0-1.95-.5m-.05 0-3.2-1.05m-.15-.15q-1.3-.65-2.35-1.5l.85-2.2" fill="none" stroke="#333436" stroke-linecap="round" stroke-linejoin="round" stroke-opacity=".6" transform="translate(-217.35 -173.4)"/><path d="m241.05 199.5.9 1.1m.75 1.75q1.25 1.9 1.6 4.35" fill="none" stroke="#6c6c6c" stroke-linecap="round" stroke-linejoin="round" stroke-opacity=".6" transform="translate(-217.35 -173.4)"/><path d="m226.5 195.95 11.25-6.5 1.55 9.15q-8.55-3.45-12.3-.55l-.5-2.1" fill="#a6a8ae" fill-rule="evenodd" transform="translate(-217.35 -173.4)"/><path d="m237.75 189.45-11.25 6.5-2.1-5.5q6.4-6.4 13.2-5.55l.15 4.55" fill="#7f8185" fill-rule="evenodd" transform="translate(-217.35 -173.4)"/><path d="m237.75 189.45-.15-4.55m-13.2 5.55 2.1 5.5.5 2.1q3.75-2.9 12.3.55l-1.55-9.15z" fill="none" stroke="#5d5e61" stroke-linecap="round" stroke-linejoin="round" stroke-opacity=".702" transform="translate(-217.35 -173.4)"/><path d="m243.1 195.55.05-7.7v-3l3.45.25h.15l-3.65 10.45" fill="#c4c6cc" fill-rule="evenodd" transform="translate(-217.35 -173.4)"/><path d="m243.15 187.85-4.05-1.35-1.25-2.1-.45-.1-3.45-.4-1.15.1-2.15 1.5-1-.85-.15.1q-3 1.3-5.15 4.2l-.35.55-.3 2.3-2 2.35-.9 2.75q.5-4.6 2.75-9 1.7-3.3 4.8-5 1.4-.8 3.1-1.25l3.05-.45q4.15 1 8.65 3.65v3" fill="#e6e9f2" fill-rule="evenodd" transform="translate(-217.35 -173.4)"/><path d="m220.8 196.9.9-2.75 2-2.35.3-2.3.35-.55q2.15-2.9 5.15-4.2l.15-.1 1 .85 2.15-1.5 1.15-.1 3.45.4.45.1 1.25 2.1 4.05 1.35-.05 7.7-2.2-3.05q-3.9-4.45-8.9-3.6-5.25.7-8.75 6.45-1.85 3.25-2.7 6.55l-.05-.25q0-3.25.3-4.75" fill="#a6a8ae" fill-rule="evenodd" transform="translate(-217.35 -173.4)"/><path d="M243.15 184.85q-4.5-2.65-8.65-3.65l4.85.8 7.25 3.1-3.45-.25" fill="#7f8185" fill-rule="evenodd" transform="translate(-217.35 -173.4)"/><path d="M243.15 184.85q-4.5-2.65-8.65-3.65l-3.05.45q-1.7.45-3.1 1.25-3.1 1.7-4.8 5-2.25 4.4-2.75 9" fill="none" stroke="#5d5e61" stroke-linecap="round" stroke-linejoin="round" stroke-opacity=".702" transform="translate(-217.35 -173.4)"/><path d="M220.8 196.9q-.3 1.5-.3 4.75l.05.25q.85-3.3 2.7-6.55 3.5-5.75 8.75-6.45 5-.85 8.9 3.6l2.2 3.05m3.5-10.45h.15" fill="none" stroke="#77797b" stroke-linecap="round" stroke-linejoin="round" stroke-opacity=".6" transform="translate(-217.35 -173.4)"/><path d="m246.75 185.1-3.65 10.45" fill="none" stroke="#949696" stroke-linecap="round" stroke-linejoin="round" stroke-opacity=".6" transform="translate(-217.35 -173.4)"/><path d="m243.1 195.55.05-7.7v-3z" fill="none" stroke="#606262" stroke-linecap="round" stroke-linejoin="round" stroke-opacity=".6" transform="translate(-217.35 -173.4)"/><path d="m219.85 185.3-.35-2.9 5.35 2.6.2 2.05-5.2-1.75" fill="#cf3e29" fill-rule="evenodd" transform="translate(-217.35 -173.4)"/><path d="m217.85 188.8 2-3.5 5.2 1.75-1.25 2.6-5.95-.85" fill="#8f2a1c" fill-rule="evenodd" transform="translate(-217.35 -173.4)"/><path d="m219.5 182.4.35 2.9-2 3.5.2-2.8q1-3.35 1.45-3.6" fill="#ff533b" fill-rule="evenodd" transform="translate(-217.35 -173.4)"/><path d="M219.5 182.4q-.45.25-1.45 3.6l-.2 2.8 5.95.85 1.25-2.6-.2-2.05z" fill="none" stroke="#6e1e16" stroke-linecap="round" stroke-linejoin="round" stroke-opacity=".6" transform="translate(-217.35 -173.4)"/><path d="m223.4 177.1 4.8 6.1-.5 2.25-5.35-5.5 1.05-2.85" fill="#cf3e29" fill-rule="evenodd" transform="translate(-217.35 -173.4)"/><path d="m227.7 185.45-2.25 1.9-6.05-4.65 2.95-2.75 5.35 5.5" fill="#8f2a1c" fill-rule="evenodd" transform="translate(-217.35 -173.4)"/><path d="m219.4 182.7 1.15-2.75q2.3-2.85 2.85-2.85l-1.05 2.85-2.95 2.75" fill="#ff533b" fill-rule="evenodd" transform="translate(-217.35 -173.4)"/><path d="m219.4 182.7 1.15-2.75q2.3-2.85 2.85-2.85l4.8 6.1-.5 2.25-2.25 1.9z" fill="none" stroke="#6e1e16" stroke-linecap="round" stroke-linejoin="round" stroke-opacity=".6" transform="translate(-217.35 -173.4)"/><path d="m229.4 174.25 3 7.7-1.6 1.85-4-7.4 2.6-2.15" fill="#cf3e29" fill-rule="evenodd" transform="translate(-217.35 -173.4)"/><path d="m230.8 183.8-3.65.8-5.2-6.9 4.85-1.3 4 7.4" fill="#8f2a1c" fill-rule="evenodd" transform="translate(-217.35 -173.4)"/><path d="m221.95 177.7 2.7-2.05q4.05-1.6 4.75-1.4l-2.6 2.15-4.85 1.3" fill="#ff533b" fill-rule="evenodd" transform="translate(-217.35 -173.4)"/><path d="m229.4 174.25 3 7.7-1.6 1.85-3.65.8-5.2-6.9 2.7-2.05q4.05-1.6 4.75-1.4z" fill="none" stroke="#6e1e16" stroke-linecap="round" stroke-linejoin="round" stroke-opacity=".6" transform="translate(-217.35 -173.4)"/><path d="m233 175.4 3.35-.95 1.1 8.25-2.2 1.1-2.25-8.4" fill="#cf3e29" fill-rule="evenodd" transform="translate(-217.35 -173.4)"/><path d="m227.5 174.7 5.5.7 2.25 8.4-4.1-.7-3.65-8.4" fill="#8f2a1c" fill-rule="evenodd" transform="translate(-217.35 -173.4)"/><path d="m236.35 174.45-3.35.95-5.5-.7 3.4-.8 5.45.55" fill="#ff533b" fill-rule="evenodd" transform="translate(-217.35 -173.4)"/><path d="m236.35 174.45-5.45-.55-3.4.8 3.65 8.4 4.1.7 2.2-1.1z" fill="none" stroke="#6e1e16" stroke-linecap="round" stroke-linejoin="round" stroke-opacity=".6" transform="translate(-217.35 -173.4)"/><path d="m239.8 184.9.15-8.05 3.45-.4-1.15 7.8-2.45.65" fill="#cf3e29" fill-rule="evenodd" transform="translate(-217.35 -173.4)"/><path d="m234.9 175.35 5.05 1.5-.15 8.05-3.65-1.25-1.25-8.3" fill="#8f2a1c" fill-rule="evenodd" transform="translate(-217.35 -173.4)"/><path d="m239.95 176.85-5.05-1.5 3.45-.25q4.5.85 5.05 1.35l-3.45.4" fill="#ff533b" fill-rule="evenodd" transform="translate(-217.35 -173.4)"/><path d="m234.9 175.35 1.25 8.3 3.65 1.25m3.6-8.45q-.55-.5-5.05-1.35l-3.45.25m8.5 1.1-1.15 7.8-2.45.65" fill="none" stroke="#6e1e16" stroke-linecap="round" stroke-linejoin="round" stroke-opacity=".6" transform="translate(-217.35 -173.4)"/><path d="m243.7 187.35 2.15-7.1 3.15.2-2.95 6.7-2.35.2" fill="#cf3e29" fill-rule="evenodd" transform="translate(-217.35 -173.4)"/><path d="m243.7 187.35-2.95-1.7.95-7.55 4.15 2.15-2.15 7.1" fill="#8f2a1c" fill-rule="evenodd" transform="translate(-217.35 -173.4)"/><path d="m245.85 180.25-4.15-2.15 3.15.35q3.8 1.45 4.15 2l-3.15-.2" fill="#ff533b" fill-rule="evenodd" transform="translate(-217.35 -173.4)"/><path d="m241.7 178.1-.95 7.55 2.95 1.7m-2-9.25 3.15.35q3.8 1.45 4.15 2l-2.95 6.7-2.35.2" fill="none" stroke="#6e1e16" stroke-linecap="round" stroke-linejoin="round" stroke-opacity=".6" transform="translate(-217.35 -173.4)"/><path d="m236.45 182.65 7.35 3.95-.2 3.65-6.7-4.35-.45-3.25" fill="#ffcf2b" fill-rule="evenodd" transform="translate(-217.35 -173.4)"/><path d="M229.2 186.5q-4.3 1.75-6.85 5.25l-1.15-1.7 6.6-6.6 1.4 3.05" fill="#d6ac24" fill-rule="evenodd" transform="translate(-217.35 -173.4)"/><path d="M227.8 183.45q4.7-1.4 8.65-.8l.45 3.25-7.7.6-1.4-3.05" fill="#e6b826" fill-rule="evenodd" transform="translate(-217.35 -173.4)"/><path d="m243.8 186.6 2.75-.3-.25 3.25-2.7.7.2-3.65" fill="#fede98" fill-rule="evenodd" transform="translate(-217.35 -173.4)"/><path d="M229.2 186.5q-4.3 1.75-6.85 5.25l-1.15-1.7 6.6-6.6q4.7-1.4 8.65-.8m.45 3.25-7.7.6" fill="none" stroke="#997b19" stroke-linecap="round" stroke-linejoin="round" stroke-opacity=".6" transform="translate(-217.35 -173.4)"/><path d="m243.8 186.6 2.75-.3-.25 3.25-2.7.7" fill="none" stroke="#dba935" stroke-linecap="round" stroke-linejoin="round" stroke-opacity=".6" transform="translate(-217.35 -173.4)"/><path d="m236.45 182.65 7.35 3.95m-.2 3.65-6.7-4.35" fill="none" stroke="#be8e21" stroke-linecap="round" stroke-linejoin="round" stroke-opacity=".6" transform="translate(-217.35 -173.4)"/></g></defs></svg>