<svg viewBox="0 0 27.557 15.053" xmlns="http://www.w3.org/2000/svg" xmlns:xlink="http://www.w3.org/1999/xlink"><use width="27.55" height="15.05" xlink:href="#a"/><defs><g id="a"><path d="m237.45 205 1.4 1.3.5.6.85 3-.5.5q-1.45-1.4-3.2-2.5l.95-2.9m-15.35-2.15h.15v-.05q.5-.3 1.05-.5 1.4-.5 2.85-.65l.8-.1 2.9.25q3.05.45 5.5 1.8l-.7 2.85-8.95.45h-.25l-2.2-1.05-1.75-1.55q0-.9.6-1.45m13.8 5.7q1.25 1.8 1.95 3.8l-3.7 1.85.05.1-7.15-.5-2.75-1.5-.5-.35q-2.9-2.1-3.3-4.55l4.35 1.7h.1l10.95-.55" fill="#a596a0" fill-rule="evenodd" transform="translate(-214.55 -201.55)"/><path d="m219.05 204.5.45-.35 1.2-.7q.75-.45 1.4-.6-.6.55-.6 1.45l1.75 1.55 2.2 1.05h.25l-.75 2.2h-.1l-4.35-1.7-1.45-2.9m1.4 1.6v.05-.05" fill="#616980" fill-rule="evenodd" transform="translate(-214.55 -201.55)"/><path d="M220.45 206.1v.05-.05" fill="#dfc262" fill-rule="evenodd" transform="translate(-214.55 -201.55)"/><path d="m217.4 205.8 1.35-1.05.3-.25 1.45 2.9q.4 2.45 3.3 4.55l.5.35 2.75 1.5-3.85-.4v-.05l-6.4-4 .6-3.55m19.1 2.1q1.75 1.1 3.2 2.5l-1.85 1.95q-.7-2-1.95-3.8l-1.3-1.75.7.45q.6.25 1.2.65" fill="#7d7178" fill-rule="evenodd" transform="translate(-214.55 -201.55)"/><path d="m235.35 203.6.65.4q.8.45 1.45 1l-.95 2.9q-.6-.4-1.2-.65l-.65-.8.7-2.85" fill="#7c88ad" fill-rule="evenodd" transform="translate(-214.55 -201.55)"/><path d="m224.95 209.1.75-2.2 8.95-.45.65.8-.7-.45 1.3 1.75-10.95.55" fill="#707b94" fill-rule="evenodd" transform="translate(-214.55 -201.55)"/><path d="M239.35 206.9q2.9 3.15 2.75 5.3l-.55 1.3q-.7-1.8-1.85-3.1l.5-.5-.85-3m-.1 8.3-.65.2-.75.3-.15.05v-.05l-3.05-.15v-.05q-4.35-.3-7.6-1.7l7.15.5-.05-.1 3.7-1.85 1.4 2.85" fill="#a46694" fill-rule="evenodd" transform="translate(-214.55 -201.55)"/><path d="M241.55 213.5q-.75.95-2.3 1.7l-1.4-2.85 1.85-1.95q1.15 1.3 1.85 3.1m-3.85 2.25-2.85.6q-3.15.45-7 .1l-5.6-.95.95-2.1 3.85.4q3.25 1.4 7.6 1.7v.05l3.05.15v.05" fill="#7a556d" fill-rule="evenodd" transform="translate(-214.55 -201.55)"/><path d="M222.25 215.5q-2.25-.55-4-1.45-3.1-1.55-3.6-3.25l-.1-1q.1-1.75 2.85-4l-.6 3.55 6.4 4v.05l-.95 2.1" fill="#593e4e" fill-rule="evenodd" transform="translate(-214.55 -201.55)"/><path d="M.6 9Q1.45 7.55 3 6.3q1.4-1.05 3.4-1.95l1.7-.55M3.35 4l1.3-1.1.8-.5q1.5-1 3-1.6m11.7 11.7.45 1.25v.05l.2.75m3.7-.9L22.05 8.7m-13.8 5.05.95-2.1v-.1q.4-1.1.95-2.1" fill="none" stroke="#593e4e" stroke-linecap="round" stroke-linejoin="round" stroke-width=".25"/><path d="m7.65 1.55 1.05-.5m.45 4-1.3.05m4.5-4.8-.8.1m1.4 6.1-1.05.6m5.2.15-.6.8m4-1.85.05 1.4m2.15-2.75 1 1M21.45 2.8l-.65-.45" fill="none" stroke="#cec8cd" stroke-linecap="round" stroke-linejoin="round" stroke-width=".25"/></g></defs></svg>