<svg viewBox="0 0 74.853 33.556" xmlns="http://www.w3.org/2000/svg" xmlns:xlink="http://www.w3.org/1999/xlink"><g transform="translate(-236.31 -183.29)"><use transform="matrix(-.3759 .0855 .0942 .4139 311.12 183.13)" width="88.7" height="37.4" xlink:href="#a"/><use transform="translate(236.31 190.47) scale(.4248)" width="88.7" height="37.4" xlink:href="#a"/><use transform="translate(267.65 185.55)" width="18.9" height="31.3" xlink:href="#b"/></g><defs><g id="c"><path d="m-43.85-18-.5-.15.55-.05-.05.2m.05-.2q10.45-1.2 20.15 1.5l6.65 2.2q16.65 9.75 30.25 22 8.15 2 23.3 1.55-2.9 3.65-9.9 7.1-9.8.05-13.7-1.55Q.6 8.05-5.8 1.5l-11.25-12.1q-5.2-3.3-11.85-5.15l-1.25-.35-1.55-.4.55.3-7.5-.75-5.15-1.25M-7.35-6.3-4.1-.4l7.4 3.65L1.9.3l-9.25-6.6" fill="#c5c1a5" fill-rule="evenodd" transform="translate(44.35 18.55)"/><path d="m-43.85-18 .05-.2 5.15 1.25 7.5.75-.55-.3 1.55.4 1.25.35q6.65 1.85 11.85 5.15L-5.8 1.5Q.6 8.05 12.95 14.6q3.9 1.6 13.7 1.55 7-3.45 9.9-7.1l6.7-1.25 1.1 10.35-18.5.65-12.2-.95L7.85 16Q-5.8 5.55-15.6-5.3l-9.8-7.1-18.45-5.6" fill="#686742" fill-rule="evenodd" transform="translate(44.35 18.55)"/><path d="M-7.35-6.3 1.9.3l1.4 2.95L-4.1-.4l-3.25-5.9" fill="#d1d0b8" fill-rule="evenodd" transform="translate(44.35 18.55)"/><path d="M.5.35q10.45-1.2 20.15 1.5l6.65 2.2q16.65 9.75 30.25 22 8.15 2 23.3 1.55l6.7-1.25 1.1 10.35-18.5.65-12.2-.95-5.8-1.85Q38.5 24.1 28.7 13.25l-9.8-7.1L.45.55z" fill="none" stroke="#40382c" stroke-linecap="round" stroke-linejoin="round" stroke-opacity=".902" stroke-width=".05"/></g><g id="b"><path d="m272.95 200.7 1.8 15.6-.7.4q-1.65-2.3-5.1 0v-.75q2.35-2.1-1.3-9.75 4.4.7 3.5-3.65l-2.3-.2q1.45-1.6 3.05-1.95l1.05.3" fill="#3d3927" fill-rule="evenodd" transform="translate(-267.65 -185.55)"/><path d="M280.85 187.55q-3.35 3.35-4.5 7.45-.45-2.3-.6-4.75v-.45l-.55-.3-.45-.2-.15.1-.05.05 1.05 6.55q-2.1-8.2-2.95-9.8l-.25-.4-.3-.15-.55-.1-.65.55q1.95 4.55 3.5 9.2-1.85-2.4-4.25-4.4l-.2-.2h-.55l-.7.5v.25l.05.5q4.05 3.4 6.35 7.7l.75 1.4.15.3.45.1.35.05.15-.1-.2-.95.55-.6.15-.2-.1-.3.05-.05-.1-.45-.15-.5q1.65-5.45 4.75-10.2l-.45-.35-.2-.25h-.4" fill="#600" fill-rule="evenodd" transform="translate(-267.65 -185.55)"/><path d="M277.85 199q2.65.75 5.05.7l.4.35.45 4.3q-2.45 1-5.05 1.3-1.8-3.25-.85-6.65m6.05 6.7.45 4.25-5.2.45q-2.35-1.7-.4-4.3l5.15-.4m-3.5-5.5-.8 1.6 1.8 1.75 1.15-.8-.9-2.15-1.25-.4m1.2 6.25-.1.95.95.55.75-.95-.75-.8-.8.2-.05.05" fill="#c5c1a5" fill-rule="evenodd" transform="translate(-267.65 -185.55)"/><path d="m283.75 204.35.15 1.35-5.15.4-.05-.45q2.6-.3 5.05-1.3" fill="#89835a" fill-rule="evenodd" transform="translate(-267.65 -185.55)"/><path d="m279.15 210.4-5.2.4.2 3.2-.95.65-.85-8.1 6.4-.45q-1.95 2.6.4 4.3m-6.95-5.35-.45-4.3.3-.4q3.05-.25 5.8-1.35-.95 3.4.85 6.65l-6.5-.6" fill="#b5af8e" fill-rule="evenodd" transform="translate(-267.65 -185.55)"/><path d="m272.35 206.55-.15-1.5 6.5.6.05.45-6.4.45" fill="#6d6847" fill-rule="evenodd" transform="translate(-267.65 -185.55)"/><path d="m280.4 200.2 1.25.4.9 2.15-1.15.8-1.8-1.75.8-1.6m1.2 6.25.05-.05.8-.2.75.8-.75.95-.95-.55.1-.95" fill="#ccc9b3" fill-rule="evenodd" transform="translate(-267.65 -185.55)"/><path d="m274.15 214 .15 2.2 10.6-.9q2.85-.5.2.7l-5.35.45-6.3.4-.25-2.2.95-.65" fill="#423f2d" fill-rule="evenodd" transform="translate(-267.65 -185.55)"/><path d="M11.05 20.1q2.6-.3 5.05-1.3m-11.55.7 6.5.6z" fill="none" stroke="#46432f" stroke-linecap="round" stroke-linejoin="round" stroke-width=".05"/><path d="m279.1 215.8-.55-6.75h.05l.55.15.2.4.1.75.95-.1-.05-.75q-.05-.25.15-.45l.45-.2.9-.1.5.15.2.45.05.75 1-.1-.05-.75.15-.45.55-.2.8-.05.5.1.25.4v.8h.1l.35 5.35-7.15.6" fill="#89835a" fill-rule="evenodd" transform="translate(-267.65 -185.55)"/><path d="m274 210.8-.05-.75.15-.45q.2-.2.5-.2l.8-.1.5.15.25.45.05.7 1-.05-.05-.75q-.05-.3.2-.45.2-.25.45-.25l.75-.05.55 6.75-4.8.35-.3-5.35" fill="#6f694a" fill-rule="evenodd" transform="translate(-267.65 -185.55)"/><path d="m274 210.8.3 5.35 4.8-.35m-1.95-6 .05.75m3.15-1.05.05.75m3.15-1 .05.75" fill="none" stroke="#46432f" stroke-linecap="round" stroke-linejoin="round" transform="translate(-267.65 -185.55)"/><path d="m9.55 25-1 .05-.05-.7-.25-.45-.5-.15-.8.1q-.3 0-.5.2l-.15.45.05.75m4.55-1.75-.75.05q-.25 0-.45.25-.25.15-.2.45m3.25.45-.95.1-.1-.75-.2-.4-.55-.15h-.05m5.05.95-1 .1-.05-.75-.2-.45-.5-.15-.9.1-.45.2q-.2.2-.15.45m5.9 5.7-.35-5.35h-.1v-.8l-.25-.4-.5-.1-.8.05-.55.2-.15.45" fill="none" stroke="#45402e" stroke-linecap="round" stroke-linejoin="round" stroke-opacity=".451" stroke-width=".05"/><path d="m286.05 215.2-6.95.6" fill="none" stroke="#46432f" stroke-linecap="round" stroke-linejoin="round" transform="translate(-267.65 -185.55)"/><path d="m277.25 205.65-.25.85-2.6-.1.25-.9 2.6.15M282.35 205.9l-2.5.6-.05-.85 2.55-.65v.9" fill="#6f694a" fill-rule="evenodd" transform="translate(-267.65 -185.55)"/></g><use width="88.7" height="37.4" xlink:href="#c" id="a"/></defs></svg>