<svg viewBox="0 0 13.913 14.158" xmlns="http://www.w3.org/2000/svg" xmlns:xlink="http://www.w3.org/1999/xlink"><use transform="translate(.01 .01)" width="13.9" height="14.15" xlink:href="#a"/><defs><linearGradient id="b" x1="-819.2" x2="819.2" gradientTransform="matrix(-.0002 -.0006 .003 -.0012 276.15 193)" gradientUnits="userSpaceOnUse"><stop stop-color="#3bbcd1" offset="0"/><stop stop-color="#0782b6" offset="1"/></linearGradient><g id="a"><path d="M275.5 192.95q2.05-.1 3.85 1.05l.7.55.95 1q.85 1.1 1.15 2.55l.1 1.1-.1.05-.4.6q-.75-2.5-1.95-4.05l-.9-1.05q-1.45-1.4-3.4-1.8m5.05 7.85-1.1.5q.1-1.7-3.25-2.6l-1.6-.35-.1.05q-1.15.7-1.85 1.75-2.55-1.95-1.5-5.3l.2-.2q.85-.8 2-1.25h.1q2.1.2 3.75 1.7l.95 1q1.4 1.75 2.4 4.7" fill="#0782b6" fill-rule="evenodd" transform="translate(-268.5 -192.9)"/><path d="m281.75 199.85-1.05.85q-.1 0-.15.1-1-2.95-2.4-4.7l-.95-1q-1.65-1.5-3.75-1.7.5-.25 1.05-.35l.3-.05.7-.05q1.95.4 3.4 1.8l.9 1.05q1.2 1.55 1.95 4.05" fill="url(#b)" fill-rule="evenodd" transform="translate(-268.5 -192.9)"/><path d="m274.5 198.4.1-.05 1.6.35q-.5.85.8 2.3l-.95-.4-.6.25q.8-1.5-.95-2.45" fill="#c7f1f8" fill-rule="evenodd" transform="translate(-268.5 -192.9)"/><path d="m279.45 201.3-.15.2-.4-.35-1.9-.15q-1.3-1.45-.8-2.3 3.35.9 3.25 2.6m-5.3 1.3h-1.1l-1.3-.1h-.1q.3-1.35 1-2.35.7-1.05 1.85-1.75 1.75.95.95 2.45l-1.1.4-.2 1.35" fill="#3bbcd1" fill-rule="evenodd" transform="translate(-268.5 -192.9)"/><path d="m274.15 202.6.2-1.35 1.1-.4.6-.25.95.4 1.9.15q-2.85 0-4.75 1.5v-.05" fill="#073765" fill-rule="evenodd" transform="translate(-268.5 -192.9)"/><path d="M272.65 200.15q-.7 1-1 2.35-1.35-.25-1.85-.75h-.05l-.3-1.05q-.55-2.65.9-4.9l.8-.95q-1.05 3.35 1.5 5.3" fill="#084382" fill-rule="evenodd" transform="translate(-268.5 -192.9)"/><path d="M7 .05q2.05-.1 3.85 1.05l.7.55.95 1q.85 1.1 1.15 2.55l.1 1.1m-.1.05-.4.6-1.05.85q-.1 0-.15.1l-1.1.5-.15.2.35.5M7 .05 6.3.1 6 .15q-.55.1-1.05.35m-2.1 1.25q.85-.8 2-1.25h.1M4.8 9.7h.85m-2.5-.1h.1l1.3.1m-3.3-.85L.95 7.8q-.55-2.65.9-4.9l.8-.95m.5 7.65Q1.8 9.35 1.3 8.85" fill="none" stroke="#416281" stroke-linecap="round" stroke-linejoin="round" stroke-width=".05"/><path d="M4.55 9.7h.25" fill="none" stroke="#f30" stroke-linecap="round" stroke-linejoin="round" stroke-width=".05"/><path d="m281.35 199.55-.05-.2-.45-.1.25 2.75.25-2.45" fill="#3bbcd1" fill-rule="evenodd" transform="translate(-268.5 -192.9)"/><path d="m281.3 199.35.05.2q.4 1.8.35 4.4.65-2.1.65-4.8l-1.05.2" fill="#084382" fill-rule="evenodd" transform="translate(-268.5 -192.9)"/><path d="m281.35 199.55-.25 2.45.1 3.3.5-1.35q.05-2.6-.35-4.4" fill="#299faf" fill-rule="evenodd" transform="translate(-268.5 -192.9)"/><path d="m12.6 9.1-.25-2.75m1.5-.1q0 2.7-.65 4.8l-.5 1.35-.1-3.3z" fill="none" stroke="#416281" stroke-linecap="round" stroke-linejoin="round" stroke-width=".05"/><path d="m281.2 204.3.1-.05-.05.15-.05-.1m.1-.05q-.75-2.5-2.75-4.55l3.65-1.75q.45 3.5-.9 6.3" fill="#0782b6" fill-rule="evenodd" transform="translate(-268.5 -192.9)"/><path d="m281.3 204.25-.1.05q-1.45-2.6-4.3-3.7l1.65-.9q2 2.05 2.75 4.55" fill="#3bbcd1" fill-rule="evenodd" transform="translate(-268.5 -192.9)"/><path d="m12.7 11.4.05.1.05-.15q1.35-2.8.9-6.3M8.4 7.7q2.85 1.1 4.3 3.7z" fill="none" stroke="#416281" stroke-linecap="round" stroke-linejoin="round" stroke-width=".05"/><path d="m273.05 201.25.15-.2 1.7-.1q-.7 1.4-.95 2.75l-.9-2.45" fill="#3bbcd1" fill-rule="evenodd" transform="translate(-268.5 -192.9)"/><path d="m273.2 201.05-.15.2q-1.3 1.8-1.15 4.4-2.45-2.1-2.4-4.8l3.7.2" fill="#084382" fill-rule="evenodd" transform="translate(-268.5 -192.9)"/><path d="m273.05 201.25.9 2.45q-.4 1.7-.15 3.3l-1.9-1.35q-.15-2.6 1.15-4.4" fill="#299faf" fill-rule="evenodd" transform="translate(-268.5 -192.9)"/><path d="M5.45 10.8q.25-1.35.95-2.75M1 7.95q-.05 2.7 2.4 4.8l1.9 1.35q-.25-1.6.15-3.3z" fill="none" stroke="#416281" stroke-linecap="round" stroke-linejoin="round" stroke-width=".05"/><path d="m273.1 200.95.05.05v.05q.3 1.05.05 1.95-.3.9-1.1 1.15-.65.15-1.3-.25l.05-.05q.6-.15.85-.85l.05-1.05v-.15l1.4-.75-.05-.1" fill="#575757" fill-rule="evenodd" transform="translate(-268.5 -192.9)"/><path d="m269.85 200.95.5.1.25.35.1.2v.65l-.35.35-.45-.15-.35-.55-.05-.65.35-.3" fill="#454545" fill-rule="evenodd" transform="translate(-268.5 -192.9)"/><path d="m272.8 200.15.3.8.05.1-1.4.75-.1-.35-.2-.55 1.35-.75" fill="#616161" fill-rule="evenodd" transform="translate(-268.5 -192.9)"/><path d="M270.8 203.9q-.6.05-1.15-.4-.65-.5-.9-1.35-.3-.85-.05-1.55.2-.65.7-.8l.15-.05q.6-.15 1.25.35l.65.8.2.55.1.35v.15l-.05 1.05q-.25.7-.85.85l-.05.05m-.95-2.95-.35.3.05.65.35.55.45.15.35-.35v-.65l-.1-.2-.25-.35-.5-.1" fill="#6c6c6c" fill-rule="evenodd" transform="translate(-268.5 -192.9)"/><path d="M269.4 199.8q.3-.8 1.05-1t1.55.45l.8.9-1.35.75-.65-.8q-.65-.5-1.25-.35l-.15.05" fill="#9a9a9a" fill-rule="evenodd" transform="translate(-268.5 -192.9)"/><path d="m4.6 8.05.05.05v.05q.3 1.05.05 1.95-.3.9-1.1 1.15-.65.15-1.3-.25-.6.05-1.15-.4-.65-.5-.9-1.35Q-.05 8.4.2 7.7q.2-.65.7-.8.3-.8 1.05-1t1.55.45l.8.9.3.8m-1.35 1L3.2 10.1q-.25.7-.85.85L2.3 11M.9 6.9l.15-.05q.6-.15 1.25.35l.65.8.2.55.1.35m-1.9-.85.5.1.25.35.1.2v.65l-.35.35-.45-.15L1.05 9 1 8.35l.35-.3" fill="none" stroke="#666" stroke-linecap="round" stroke-linejoin="round" stroke-width=".05"/><path d="m280.15 197.95.15-.05.35.1.15.15.2.25-.35-.4.35.4.25.65.1.65v.3l-.2.45q-1.1-1.05-1-2.5" fill="red" fill-rule="evenodd" transform="translate(-268.5 -192.9)"/><path d="m281.15 200.45-.1.05q-.25.05-.55-.3l-.4-.85q-.2-.55-.1-1 0-.3.15-.4-.1 1.45 1 2.5" fill="#b40101" fill-rule="evenodd" transform="translate(-268.5 -192.9)"/><path d="M12.5 5.5q.35.55.35 1.3v.3m-.7-2 .35.4z" fill="none" stroke="#ffbdb5" stroke-linecap="round" stroke-linejoin="round" stroke-width=".05"/><path d="m281.2 199-.2.1-.2-.1-.1-.2.1-.2.2-.05.2.05.1.2-.1.2" fill="#fff" fill-rule="evenodd" transform="translate(-268.5 -192.9)"/><path d="m5.95.15.3-.05.7-.05Q9-.05 10.8 1.1q2.2 1.45 2.75 4l.1-.05.1 1.2h.1q0 2.7-.65 4.8l-.55 1.35v-1q-1.1-2-3.05-3.1-2.3.15-3.9 1.35l-.3 1.15q-.4 1.7-.15 3.3l-1.9-1.35q-1-.85-1.55-1.75l-.7-.4q-.65-.5-.9-1.35Q-.1 8.4.15 7.7q.2-.6.65-.8v-.05q-.2-2.1 1-3.95l.8-.95.2-.2q.85-.8 2-1.25h.1Q5.4.25 5.95.15z" fill="none" stroke="#084382" stroke-linecap="round" stroke-linejoin="round" stroke-width=".1"/></g></defs></svg>