<svg viewBox="0 0 23.625 16.925" xmlns="http://www.w3.org/2000/svg" xmlns:xlink="http://www.w3.org/1999/xlink"><use transform="translate(0 -.33)" width="23.6" height="17.25" xlink:href="#a"/><defs><g id="a"><path d="M281.8 197.7v-3.85q1.55 3.25 3.65 3.85h-3.65m4.95 4.45-18.55 6.45-5.05-2.9 18.45-6.25 5.15 2.7" fill-rule="evenodd" transform="translate(-263.15 -191.35)"/><path d="M275.4 191.9q2.05.95 2.35 2.65l4-1.4h.15v.75l-.1.05v5.3l-18.5 6.45q.85-1.75 0-5.3h-.1v-.8l4-1.4q.2-1.85.7-3.8t2.95-2.7l4.55.2" fill-rule="evenodd" transform="translate(-263.15 -191.35)"/><path d="M12.25.55 7.7.35q-2.45.75-2.95 2.7t-.7 3.8l-4 1.4v.8h.1q.85 3.55 0 5.3l18.5-6.45V2.6l.1-.05V1.8h-.15l-4 1.4q-.3-1.7-2.35-2.65z" fill="none" stroke="#000" stroke-linecap="round" stroke-linejoin="round" stroke-width=".05"/><path d="M286.65 196.85h-.05l-4.4 1.5-.25-.05-.1-.2q-.15-1.7-.95-2.35l-2.95-.15q-2.05.6-3.55 2.25t-1.6 3.4l-.05.15-.1.15-.25.2-4.25 1.5h-.1v-.8l4-1.4q.2-1.85 2.1-3.8 1.9-1.9 4-2.7 2.1-.75 3.15.2 1 1 1.25 2.7l4.05-1.45h.15v.75l-.1.1" fill="#fff" fill-rule="evenodd" transform="translate(-263.15 -191.35)"/><path d="m268.15 203.25 4.25-1.5.25-.2.1-.15.05-.15q.1-1.75 1.6-3.4t3.55-2.25l2.95.15q.8.65.95 2.35l.1.2.25.05 4.4-1.5h.05q-1.35 2.6 0 5.25l-.05.05-17.45 6.05-1 .35q-1.3-2.65 0-5.3" fill-rule="evenodd" transform="translate(-263.15 -191.35)"/><path d="m23.45 10.8.05.05-17.45 6H6" fill="none" stroke="#884402" stroke-linecap="round" stroke-linejoin="round" stroke-width=".05"/><path d="m23.5 5.5.1-.1v-.75h-.15L19.4 6.1q-.25-1.7-1.25-2.7-1.05-.95-3.15-.2-2.1.8-4 2.7-1.9 1.95-2.1 3.8l-4 1.4v.8H5q-1.3 2.65 0 5.3l1-.35 17.45-6.05.05-.05q-1.35-2.65 0-5.25" fill="none" stroke="#fff" stroke-linecap="round" stroke-linejoin="round" stroke-width=".05"/><path d="m276.65 198.3-.8.55-.25.9.25.65.8.05.7-.55.35-.9q0-.5-.35-.65l-.7-.05m-1.85 2.45q0-1.25.8-2.4.85-1.2 2.1-1.65l2.05.2q.85.6.85 1.85l-.3 1.45-.95.35q-.7.8.55.95l-.55.2-1.65 1.05-1.95-.05.5-.2v-.95l-1.2.4q-.25-.5-.25-1.2m4.8-2.85-.65-.05q-.4.15-.65.5l-.25.8q0 .45.25.6l.65.05.65-.5.3-.8-.3-.6m.25 4.85-.1.5-.3.25-.3-.05-.1-.4.1-.45.3-.3.3.1.1.35m-1.6.8-.15.45-.35.3-.35-.05-.15-.35.15-.4.35-.3.35.05.15.3m-2.55.6.1-.45.4-.25h.3l.15.35-.15.35-.3.35-.4-.1-.1-.25" fill="#fff" fill-rule="evenodd" transform="translate(-263.15 -191.35)"/></g></defs></svg>