<svg viewBox="0 0 85.576 84.219" xmlns="http://www.w3.org/2000/svg" xmlns:xlink="http://www.w3.org/1999/xlink"><g transform="translate(-232.11 -158.33)"><use transform="matrix(.068 .17 .17 -.068 231.12 205.88)" width="98.65" height="108.05" xlink:href="#a"/><use transform="matrix(.1098 .1078 .1078 -.1098 240.01 219.81)" width="98.65" height="108.05" xlink:href="#a"/><use transform="matrix(.1357 -.0282 -.0282 -.1357 252.63 233.17)" width="98.65" height="108.05" xlink:href="#a"/><use transform="matrix(.0618 -.1719 -.1719 -.0618 283.78 242.32)" width="98.65" height="108.05" xlink:href="#a"/><use transform="matrix(.1443 -.1131 -.1131 -.1443 265.88 238.43)" width="98.65" height="108.05" xlink:href="#a"/><use transform="matrix(.1308 .0309 .0309 -.1308 251.57 226.34)" width="98.65" height="108.05" xlink:href="#a"/><use transform="matrix(-.1276 -.1381 -.2148 .1257 303.7 195.63)" width="98.65" height="108.05" xlink:href="#a"/><use transform="matrix(.0063 -.1844 -.2507 .033 283.88 209.92)" width="98.65" height="108.05" xlink:href="#a"/><use transform="matrix(-.1709 -.0638 -.1221 .1434 288.68 185.35)" width="98.65" height="108.05" xlink:href="#a"/><use transform="matrix(.0144 -.1553 -.2092 .0208 275.29 217.24)" width="98.65" height="108.05" xlink:href="#a"/><use transform="matrix(.0063 -.1844 -.2507 .033 280.93 191.17)" width="98.65" height="108.05" xlink:href="#a"/><use transform="matrix(.0144 -.1553 -.2092 .0208 272.34 198.34)" width="98.65" height="108.05" xlink:href="#a"/><use transform="matrix(-.146 .0934 -.1689 -.1837 282.87 222.91)" width="98.65" height="108.05" xlink:href="#a"/><use transform="matrix(-.0202 .1522 -.1863 -.0823 261.55 193.93)" width="98.65" height="108.05" xlink:href="#a"/><use transform="matrix(-.1117 .0774 .0682 .1664 281.03 157.24)" width="98.65" height="108.05" xlink:href="#a"/><use transform="matrix(-.1314 -.0231 -.0017 .1828 289.28 172.87)" width="98.65" height="108.05" xlink:href="#a"/><use transform="matrix(-.0629 .1158 .0903 .1019 272.28 166.93)" width="98.65" height="108.05" xlink:href="#a"/><use transform="matrix(-.1097 -.026 -.0062 .1519 293.6 179.74)" width="98.65" height="108.05" xlink:href="#a"/><use transform="matrix(-.1314 -.0231 -.0017 .1828 275.58 173.12)" width="98.65" height="108.05" xlink:href="#a"/><use transform="matrix(-.1097 -.026 -.0062 .1519 279.85 179.94)" width="98.65" height="108.05" xlink:href="#a"/><use transform="matrix(.0521 .114 -.1486 .1023 298.4 174.95)" width="98.65" height="108.05" xlink:href="#a"/><use transform="matrix(.1069 .0298 -.0777 .125 275.57 187.18)" width="98.65" height="108.05" xlink:href="#a"/><use transform="matrix(-.1631 .0112 .0112 .1631 306.24 188.74)" width="98.65" height="108.05" xlink:href="#a"/><use transform="matrix(.0553 -.1103 -.1103 -.0553 295.17 232.08)" width="98.65" height="108.05" xlink:href="#a"/><use transform="matrix(-.0858 -.1382 -.1382 .0858 318.79 215.39)" width="98.65" height="108.05" xlink:href="#a"/><use transform="matrix(.0009 -.1632 -.1632 -.0009 306.12 225.75)" width="98.65" height="108.05" xlink:href="#a"/><use transform="matrix(-.1127 -.0773 -.0773 .1127 308.84 204.58)" width="98.65" height="108.05" xlink:href="#a"/><use transform="matrix(.0939 -.0742 -.0742 -.0939 289.77 229.03)" width="98.65" height="108.05" xlink:href="#a"/><use transform="matrix(.0031 .163 -.1334 -.0012 289.6 172.32)" width="98.65" height="108.05" xlink:href="#a"/><use transform="matrix(.0855 -.0618 .0532 .1064 255.26 186)" width="98.65" height="108.05" xlink:href="#a"/><use transform="matrix(.1187 .0769 -.0593 .1428 267.05 161.39)" width="98.65" height="108.05" xlink:href="#a"/><use transform="matrix(.1326 -.0108 .0129 .1624 259.56 174.67)" width="98.65" height="108.05" xlink:href="#a"/><use transform="matrix(.0713 .1075 -.0858 .0838 276.52 170.67)" width="98.65" height="108.05" xlink:href="#a"/><use transform="matrix(.0532 -.098 .0819 .0681 258.1 191.11)" width="98.65" height="108.05" xlink:href="#a"/><use transform="matrix(-.0836 -.0999 -.0999 .0836 303.72 226.97)" width="98.65" height="108.05" xlink:href="#a"/><use transform="matrix(-.0177 -.1295 -.1295 .0177 294.91 236.54)" width="98.65" height="108.05" xlink:href="#a"/><use transform="matrix(-.1039 .1465 .1437 .1034 263.61 170.44)" width="98.65" height="108.05" xlink:href="#a"/><use transform="matrix(-.0313 .1477 .1458 .0301 256.77 185.14)" width="98.65" height="108.05" xlink:href="#a"/><use transform="matrix(-.1766 -.0113 -.0131 .1787 302.72 180.06)" width="98.65" height="108.05" xlink:href="#a"/><use transform="matrix(-.1431 -.1051 -.1055 .1458 303.71 197.96)" width="98.65" height="108.05" xlink:href="#a"/><use transform="matrix(-.1404 .0517 .0496 .1413 286.95 182.07)" width="98.65" height="108.05" xlink:href="#a"/><use transform="matrix(-.0332 .1317 .13 .0321 269.87 187.52)" width="98.65" height="108.05" xlink:href="#a"/><use transform="matrix(.0029 .1797 .1778 -.0049 252.01 193.25)" width="98.65" height="108.05" xlink:href="#a"/><use transform="matrix(.0261 -.1771 -.1749 -.0245 295.31 229.36)" width="98.65" height="108.05" xlink:href="#a"/><use transform="matrix(-.039 -.1446 -.1434 .0411 294.82 213.27)" width="98.65" height="108.05" xlink:href="#a"/><use transform="matrix(-.127 -.0417 -.0426 .1288 290.77 195.85)" width="98.65" height="108.05" xlink:href="#a"/><use transform="scale(-.157 .157) rotate(-24.1 2102.94 5191.182)" width="98.65" height="108.05" xlink:href="#a"/><use transform="matrix(-.0875 -.131 -.131 .0875 299.49 220.89)" width="98.65" height="108.05" xlink:href="#a"/><use transform="matrix(-.1319 -.0009 -.0009 .1319 290.21 202.52)" width="98.65" height="108.05" xlink:href="#a"/><use transform="matrix(.0106 -.1313 -.1313 -.0106 287.47 230.65)" width="98.65" height="108.05" xlink:href="#a"/><use transform="matrix(-.093 -.0737 -.0737 .093 289.37 215.01)" width="98.65" height="108.05" xlink:href="#a"/><use transform="matrix(.0048 -.1564 -.1564 -.0048 296.36 232.08)" width="98.65" height="108.05" xlink:href="#a"/><use transform="scale(.157 -.157) rotate(56.108 2354.006 910.93)" width="98.65" height="108.05" xlink:href="#a"/><use transform="matrix(-.1076 .1139 .1139 .1076 259.91 161.92)" width="98.65" height="108.05" xlink:href="#a"/><use transform="matrix(-.0443 .1241 .1241 .0443 252.33 173.83)" width="98.65" height="108.05" xlink:href="#a"/><use transform="matrix(-.1532 -.0319 -.0319 .1532 293.08 175.15)" width="98.65" height="108.05" xlink:href="#a"/><use transform="matrix(.0676 .1413 .1413 -.0676 234.04 188.73)" width="98.65" height="108.05" xlink:href="#a"/><use transform="matrix(-.018 .1561 .1561 .018 247.16 180.17)" width="98.65" height="108.05" xlink:href="#a"/><use transform="matrix(.0998 .0858 .0858 -.0998 242.39 200.2)" width="98.65" height="108.05" xlink:href="#a"/><use transform="matrix(-.0977 .0611 .0611 .0977 263.22 178.86)" width="98.65" height="108.05" xlink:href="#a"/><use transform="matrix(.1142 -.0317 -.0317 -.1142 253.87 210.93)" width="98.65" height="108.05" xlink:href="#a"/><use transform="matrix(.0431 -.1502 -.1502 -.0431 280.94 216.94)" width="98.65" height="108.05" xlink:href="#a"/><use transform="matrix(.1169 -.1046 -.1046 -.1169 265.48 214.57)" width="98.65" height="108.05" xlink:href="#a"/><use transform="matrix(-.0177 -.1302 -.1302 .0177 282.25 202.92)" width="98.65" height="108.05" xlink:href="#a"/><use transform="matrix(.1134 .0191 .0191 -.1134 252.52 205.03)" width="98.65" height="108.05" xlink:href="#a"/><use transform="matrix(-.1048 -.047 -.047 .1048 287.91 188.36)" width="98.65" height="108.05" xlink:href="#a"/><use transform="matrix(-.1555 -.0042 -.0042 .1555 292.6 185.76)" width="98.65" height="108.05" xlink:href="#a"/><use transform="matrix(-.1299 -.0867 -.0867 .1299 294.19 201.11)" width="98.65" height="108.05" xlink:href="#a"/><use transform="matrix(-.1211 .0494 .0494 .1211 278.71 187.92)" width="98.65" height="108.05" xlink:href="#a"/><use transform="matrix(-.0098 -.1141 -.1141 .0098 288.2 216.05)" width="98.65" height="108.05" xlink:href="#a"/><use transform="matrix(-.0237 .1154 .1154 .0237 264.04 193.27)" width="98.65" height="108.05" xlink:href="#a"/><use transform="translate(257.4 215.25)" width="9.45" height="6.05" xlink:href="#b"/><use transform="matrix(-.0329 .1121 .1121 .0329 238.97 192.49)" width="98.65" height="108.05" xlink:href="#a"/><use transform="matrix(-.0879 .0777 .0777 .0879 250.49 194.32)" width="98.65" height="108.05" xlink:href="#a"/><use transform="matrix(.0126 .0974 .0974 -.0126 237.87 203.02)" width="98.65" height="108.05" xlink:href="#a"/><use transform="matrix(-.0847 -.0148 -.0148 .0847 260.13 201.55)" width="98.65" height="108.05" xlink:href="#a"/><use transform="matrix(.0793 .0394 .0394 -.0793 238.91 214.74)" width="98.65" height="108.05" xlink:href="#a"/></g><defs><path d="M263.7 220.6q.5.55 1.2.7.75 0 1.3-.4.6-.5.65-1.2.1-.75-.4-1.3-.45-.65-1.2-.7-.7-.1-1.3.4-.6.45-.65 1.2-.1.7.4 1.3m-5.95-2.85q.4.45 1 .5l1.1-.25.55-1.05q.05-.6-.35-1.1l-1-.6q-.6-.05-1.1.35t-.55 1 .35 1.15" fill="#fff" fill-rule="evenodd" transform="translate(-257.4 -215.25)" id="b"/><g id="a" fill-rule="evenodd"><path d="M-42.95-49.7q9.9-8.6 29.45-.05Q6.15-41.3 23.95-20.7 41.7-.1 47.3 20.5t-4.35 29.2-29.55.1q-19.55-8.5-37.35-29.1t-23.4-41.2q-5.55-20.6 4.4-29.2" fill="#045566" transform="translate(49.35 54)"/><path d="M25.9-8.8Q36.95 3.95 40.3 16.75q3.55 12.8-2.6 18.1t-18.35.05q-12.1-5.25-23.15-18T-18.3-8.65t2.7-18.1 18.25-.05q12.2 5.25 23.25 18" fill="#159f66" transform="translate(49.35 54)"/></g></defs></svg>