<svg viewBox="0 0 61.511 72.8" xmlns="http://www.w3.org/2000/svg" xmlns:xlink="http://www.w3.org/1999/xlink"><use width="61.5" height="72.8" xlink:href="#a"/><defs><g id="a"><path d="m303.2 194.65-5.75-19.45 10.15-14.05-1.2 25.25-3.2 8.25" fill="#9d9068" fill-rule="evenodd" transform="translate(-250.35 -160.75)"/><path d="m278.9 209.85-.75-9.65 4.05 5.85-3.3 3.8" fill="#e97603" fill-rule="evenodd" transform="translate(-250.35 -160.75)"/><path d="m297.55 177.15 2.65 6.2 5.85 4-.3.8-17.4 20.5-9.9 3.2.45-2 3.3-3.8 4.5-4.25-.4-12.8 8.35-11.25 2.9-.6" fill="#a64b00" fill-rule="evenodd" transform="translate(-250.35 -160.75)"/><path d="m297.55 177.15 6.65-1.4 3.45 6-1.6 5.6-5.85-4-2.65-6.2" fill="#ffcf39" fill-rule="evenodd" transform="translate(-250.35 -160.75)"/><path d="M301.95 195.4q.6 0 1.4.6l1.2 1.2q1.6 2 2 4.85.4 2.4-.8 4.4l-.2.6q-.8 1-1.8 1.4h-.6q-1.6 0-3.2-2t-1.8-4.4q-.4-2.85.6-4.85.6-1 1.4-1.4.6-.4 1.4-.4h.4l-1.8.4 1.8-.4m5.2 12.25 1.4-.4q-.6.4-1.2.4h-.2" fill="#cdc098" fill-rule="evenodd" transform="translate(-250.35 -160.75)"/><path d="M303.75 208.45q1-.4 1.8-1.4l.2-.6q1.2-2 .8-4.4-.4-2.85-2-4.85l-1.2-1.2q-.8-.6-1.4-.6l2.6-.4q.4-.4 1.2-.4 1.6 0 3.05 1.8 1.6 2 2 4.85.4 2.4-.8 4.4-.6 1.2-1.45 1.6l-1.4.4-3.4.8" fill="#fdf0c8" fill-rule="evenodd" transform="translate(-250.35 -160.75)"/><path d="M58.2 46.5q.85-.4 1.45-1.6 1.2-2 .8-4.4-.4-2.85-2-4.85-1.45-1.8-3.05-1.8m-3.8.8h-.4q-.8 0-1.4.4m3.6 12.65h-.6q-1.6 0-3.2-2t-1.8-4.4q-.4-2.85.6-4.85.6-1 1.4-1.4M53.4 47.7l3.4-.8 1.4-.4m-2.8-12.65q-.8 0-1.2.4l-2.6.4m-1.8.4 1.8-.4" fill="none" stroke="#000" stroke-linecap="round" stroke-linejoin="round" stroke-opacity=".302" stroke-width=".05"/><path d="M293.9 232.55q-5-1.2-9-2.8l-1.8-9.85-11.65-8-.4-10.45q1.6-4.4 6.2-8.4 5.85-4.85 13.25-5.05 1.8-.2 3.8 0l2.65 1.4q2.4 1.65 1 2.45-1.45.8-7.25.6-16.85-.4.2 17.65l-5.8-1.2 2.6 2.6 2.8 1.4q-2.4 6.6 3.4 19.65" fill="#9d9068" fill-rule="evenodd" transform="translate(-250.35 -160.75)"/><path d="M293.9 232.55q-5.8-13.05-3.4-19.65l1.8 1.2.2 1.4 3.6 1.4 1.65 11.65 1.8.4v3.8l-5.65-.2m-3-22.45q-17.05-18.05-.2-17.65 5.8.2 7.25-.6-5.65 3.6-.4 6.8 5.4 3.4 9.6 9.05-2.6 2.6-13.45 2.6l-2.8-.2m18.05-.6.4 15.85-3.8 5.4v-1.6l-.2-15.05 3.6-4.6" fill="#cdc098" fill-rule="evenodd" transform="translate(-250.35 -160.75)"/><path d="M297.95 191.85q1.4-.8-1-2.45l-2.65-1.4q4.85.8 8.45 3.85 4.8 4 5.2 7.2l1 6.65q-1.2 1.8-1.8 2-4.2-5.65-9.6-9.05-5.25-3.2.4-6.8m1.8 36.3-.2.8-1.8-.4-1.65-11.65-3.6-1.4-.2-1.4 7.05 1 .4 13.05" fill="#fdf0c8" fill-rule="evenodd" transform="translate(-250.35 -160.75)"/><path d="m290.5 212.9-2.8-1.4-2.6-2.6 5.8 1.2 2.8.2q10.85 0 13.45-2.6.6-.2 1.8-2v3.8l-3.6 4.6.2 15.05-5.8-1-.4-13.05-7.05-1-1.8-1.2" fill="#070000" fill-rule="evenodd" transform="translate(-250.35 -160.75)"/><path d="M43.95 27.25q-2-.2-3.8 0-7.4.2-13.25 5.05-4.6 4-6.2 8.4l.4 10.45 11.65 8 1.8 9.85q4 1.6 9 2.8m.4-44.55q4.85.8 8.45 3.85 4.8 4 5.2 7.2l1 6.65m0 3.8L59 64.6 55.2 70m-6 2-5.65-.2" fill="none" stroke="#000" stroke-linecap="round" stroke-linejoin="round" stroke-opacity=".302" stroke-width=".05"/><path d="m293.5 191.45-4.6-28.5 4 8.2 2.8 13.65-2.2 6.65" fill="#ffcf39" fill-rule="evenodd" transform="translate(-250.35 -160.75)"/><path d="m293.5 191.45-.4 1-11-4.25q-.4 5.65-.65 11.45l-8.2 3.2-9.25-7.2.6-2.4 3.65-2 4.8-1.25.8-20.45 9.25-7.2 5.8.6 4.6 28.5" fill="#a64b00" fill-rule="evenodd" transform="translate(-250.35 -160.75)"/><path d="m261.05 224.35-10.35-9.65 12.6 4.6-2.25 5.05" fill="#e97603" fill-rule="evenodd" transform="translate(-250.35 -160.75)"/><path d="m264.15 180.8 9.1.6 11.7 5.2q1.25 3 2.3 6.25l-23.1-12.05" fill="#ffcf39" fill-rule="evenodd" transform="translate(-250.35 -160.75)"/><path d="m264.15 180.8 23.1 12.05.15.8q-6.6 4.6-13.15 9.4l7.05 7.25q-3.05 5.2-5.75 10.65l-13.4 5.6-1.1-2.2 2.25-5.05 3.75-5.8-12.85-12.85 4.15-14.05 5.8-5.8" fill="#a64b00" fill-rule="evenodd" transform="translate(-250.35 -160.75)"/><path d="m282.7 197.6 2 3.65-9.85-3.45 1.4-5.6 6.45 5.4" fill="#9d9068" fill-rule="evenodd" transform="translate(-250.35 -160.75)"/><path d="M282.7 197.6q1.8-1.4 3.4-3l2.8 5.25-4.2 1.4-2-3.65" fill="#cdc098" fill-rule="evenodd" transform="translate(-250.35 -160.75)"/><path d="M286.1 194.6q-1.6 1.6-3.4 3l-6.45-5.4 4.45-3 5.4 5.4" fill="#fffff8" fill-rule="evenodd" transform="translate(-250.35 -160.75)"/><path d="m282.7 198.85-1.2 5.9-8.4-24.6 5.05-8 4.55 26.7m-18.3-3.4-2.8-1.8-.2-.1 1.5-3.8 14.55 11.1.2.35-13.25-5.75" fill="#cdc098" fill-rule="evenodd" transform="translate(-250.35 -160.75)"/><path d="m278.15 172.15 2.2-3.3 2.75 27.85-.4 2.15-4.55-26.7m-15.25 17.6.25-.8 1.2-3.5 13 14.35.1 1.05-14.55-11.1" fill="#fdf0c8" fill-rule="evenodd" transform="translate(-250.35 -160.75)"/><path d="m277.65 201.2-.1.45.8 3-13.95-9.2 13.25 5.75m-21.5 8.25.4-7.5 17.45 1.3 2.9 2.55-20.75 3.65" fill="#9d9068" fill-rule="evenodd" transform="translate(-250.35 -160.75)"/><path d="M27.8 11.4 30 8.1l2.75 27.85-.4 2.15m-1.2 5.9-8.4-24.6 5.05-8M11.25 32.9l-.2-.1 1.5-3.8m.25-.8 1.2-3.5 13 14.35.1 1.05m.1.8.8 3-13.95-9.2m-8.25 14 .4-7.5 17.45 1.3M12.55 29l.25-.8" fill="none" stroke="#000" stroke-linecap="round" stroke-linejoin="round" stroke-opacity=".302" stroke-width=".05"/><path d="m281.5 215.45 1.4-.4-1.4.4-3.45.8q1.05-.4 1.85-1.4l.2-.6q1.2-2 .8-4.4-.2-2.2-1.4-3.8l5.4 1.6.2 1.4q.4 2.4-.8 4.4-.6 1.2-1.4 1.6-.6.4-1.2.4h-.2m-5.25-12.2-1.8.4q.6-.4 1.4-.4h.4" fill="#cdc098" fill-rule="evenodd" transform="translate(-250.35 -160.75)"/><path d="M279.5 206.05q1.2 1.6 1.4 3.8.4 2.4-.8 4.4l-.2.6q-.8 1-1.85 1.4h-.6q-1.6 0-3.2-2t-1.8-4.4q-.4-2.8.6-4.8.6-1 1.4-1.4l1.8-.4q.6 0 1.4.6l.8.6.45.6.6 1" fill="#9d9068" fill-rule="evenodd" transform="translate(-250.35 -160.75)"/><path d="m284.9 207.65-5.4-1.6-.6-1-.45-.6-.8-.6q-.8-.6-1.4-.6l2.65-.4q.4-.4 1.2-.4 1.6 0 3 1.8 1.2 1.6 1.8 3.4" fill="#fdf0c8" fill-rule="evenodd" transform="translate(-250.35 -160.75)"/><path d="M32.55 54.3q.8-.4 1.4-1.6 1.2-2 .8-4.4l-.2-1.4m-4.8-5.2q1.6 0 3 1.8 1.2 1.6 1.8 3.4m-8.65-4.4h-.4q-.8 0-1.4.4-.8.4-1.4 1.4-1 2-.6 4.8.2 2.4 1.8 4.4t3.2 2h.6" fill="none" stroke="#000" stroke-linecap="round" stroke-linejoin="round" stroke-opacity=".302" stroke-width=".05"/><path d="m32.55 54.3-1.4.4m-3.45.8 3.45-.8M25.9 42.5l2.65-.4q.4-.4 1.2-.4m-5.65 1.2 1.8-.4" fill="none" stroke="#000" stroke-linecap="round" stroke-linejoin="round" stroke-opacity=".302" stroke-width=".05"/><path d="m295.15 202.6 10.6-2.4-3.2 6.05-7.4-3.65M305.15 197l-5-7.4.8-3.6 4 6 .2 5" fill="#9d9068" fill-rule="evenodd" transform="translate(-250.35 -160.75)"/><path d="m307.35 191.4.25 4.6-2.45 1-.2-5 2.4-.6" fill="#cdc098" fill-rule="evenodd" transform="translate(-250.35 -160.75)"/><path d="M300.95 186h3.6l2.8 5.4-2.4.6-4-6" fill="#fffff8" fill-rule="evenodd" transform="translate(-250.35 -160.75)"/><path d="m277.4 200.2-12.8-14.35-3 8.15 13.65 9.15-1 .35-17.55-1.3h-.05l-.05.05v.05l-.4 7.6v.1l.1.05.1-.05.05-.1 16.35-2.95m10.7-9.85-2.85-27.9-.1-.1h-.1l-.05.05-7.2 11.4v.1l7.05 21.05" fill="none" stroke="#000" stroke-linecap="round" stroke-linejoin="round" stroke-opacity=".451" transform="translate(-250.35 -160.75)"/><path d="m307.05 180.15.95 1.7-1.2 4-.05.55-.7 1.85 1.7 3.25.15 3.7h.1l1.25 1.25q1.6 2.1 2.05 4.8.3 2.6-.85 4.5l.05-.05-1.1 1.5-.1.05-.05 2.15h.1l.05.1.5 15.95-.05.1-3.85 5.4-.05.05-.1-.05-.05-.05v-.1l.1-.15v-1.4l-5.9-1-.1.8v3.75l.1.05.05.05-.05.1-.1.05-5.6-.2q-5.15-1.25-9.2-2.85l-.05-.05v-.05l-1.8-9.85-5-3.55-2.35 4.45-13.55 5.7-1.05-2.2-10.45-9.75 12.65 4.75 3.8-5.85-5-5.05-5.65 1-.05.1-.1.05-.1-.05v-.1l.35-6.7-2.15-2.2 4-13.9 5.9-5.85 9.15.5.05.05v-.15l-.3-1v-.1l.35-.6.35-10.05 9.25-7.1 5.8.6 4.05 8.1 1.45 7.15.35-.45 3.25-.75-.55-1.8 10.25-14.05z" fill="none" stroke="#000" stroke-linecap="round" stroke-linejoin="round" stroke-opacity=".451" transform="translate(-250.35 -160.75)"/></g></defs></svg>