<svg viewBox="0 0 23.2 20.75" xmlns="http://www.w3.org/2000/svg" xmlns:xlink="http://www.w3.org/1999/xlink"><use transform="translate(.02 .02)" width="23.15" height="20.7" xlink:href="#a"/><defs><g id="a"><path d="m286.55 203.3-.1 1.15-.6.1-2.35.4-2.1.75-2.3.35-.15-.2-.9-1.85-1.15.15-2.1-1.9.15-1.4-1.4-1.55q-.35-.3-.7-.45h-.9l.3 1-.2.05-8.65-4.8 6.25 1.8 1.25.35.7-1.65 1.35-.95 4.65.35 5.9-5.4-3.9 5.55.55.15 1 1.1v.05l.2.25 1.05 2.05 2 1.8.25.75-.55 1.15 2.45.85m-.95 2.4-.55 2.45-.9.5-.3-1.75v-.2l1.75-1m-4.65 1.2-.95 3.05-.9.35-.05-2.05 1.9-1.35m-1.4-4.5h.2l.3-.5q.1-.45-.15-.95l-.8-.75-.7-.2q-.25.05-.35.4v.1q-.05.4.25.9l.65.8.6.2m1.1-3.5-.2.45q-.1.35.2 1l.75.7.45.2h.4l.4-.55-.25-.85-.75-.85-.8-.15-.2.05m-9-1.45.3 1.4-.3-1.4" fill="#ffc" fill-rule="evenodd" transform="translate(-263.4 -189.6)"/><path d="m285.85 204.55-.25 1.15-1.75 1-.35-1.75 2.35-.4m-4.45 1.15-.45 1.2-1.9 1.35-.1-2.2h.15l2.3-.35m-4.5-1.55-4.85-1.2-2.2 2.55-2-2.5.55-3.6-5-4.3 8.65 4.8-2.3.8-1.35-1.3 1.35 1.3 2.3-.8.2-.05-.3-1h.9q.35.15.7.45l1.4 1.55-.15 1.4 2.1 1.9m-7.25-7.25 1.95-1.3-.7 1.65-1.25-.35m13.85-7.3-2.35 6.8-1-1.1-.55-.15 3.9-5.55" fill="#e0d7a3" fill-rule="evenodd" transform="translate(-263.4 -189.6)"/><path d="m23.15 13.7-.1 1.15-.6.1-2.35.4-2.1.75-2.3.35-.15-.2-.9-1.85-1.15.15-4.85-1.2-2.2 2.55-2-2.5L5 9.8 0 5.5m21.65 13.05-.9.5-.3-1.75m0-.2-.35-1.75m-3.5 5-.9.35-.05-2.05-.1-2.2M6.25 7.3 8.2 6m11.9-6-2.35 6.8m0 .05.2.25m3.3 4.6-.55 1.15m-6.05-2.05q.1-.35.35-.4l.7.2.8.75q.25.5.15.95l-.3.5h-.2m1.1-3.5.2-.05.8.15.75.85.25.85-.4.55h-.4m-9.8-1.35-2.3.8L5 9.8m8.5 4.75-2.1-1.9.15-1.4m-3-2 .3 1-.2.05m-.1-1.05-.3-1.4" fill="none" stroke="#4a4122" stroke-linecap="round" stroke-linejoin="round" stroke-opacity=".682" stroke-width=".05"/></g></defs></svg>