<svg viewBox="0 0 113.8 79.95" xmlns="http://www.w3.org/2000/svg" xmlns:xlink="http://www.w3.org/1999/xlink"><use transform="translate(.02 .02)" width="113.75" height="79.9" xlink:href="#a"/><defs><g id="a"><path d="M333.6 177.15h.15l-.9.25.75-.25m-11.05 43.95H322l-.4-.05.95.05m-2.25-.1h-.1l.3-.05-.2.05m-9.8-2.15h-.1l-.75-.5.85.5m21.5-29.2.3-.35.45.4-.75-.05m87.8 27.7.05.05h-.1l.05-.05m-26.1 14.85h-.15q-1.05-.35-1.35-.8.3.45 1.5.8" fill="#bea781" fill-rule="evenodd" transform="translate(-306.1 -153)"/><path d="M377.05 218.7h-.1l-1.85-.05-5.3-1.05q-1.15-.55-.95-1.2l.45-.15.65-.3 1.2-.7.05-.1q1.15-1 .85-2.1l.05-.15-1-1.35 3.3 1.05v3.7l2.65 2.4m-6.6-7.35.5.15h-.1l-.45.05.05-.2m-27.5-13.95.05-.05-.05.05m-1.85 1.9h.05-.05m4.6 4.4 1.85 1-.2-.05-1.65-.95m4.75 1.7h.15-.15m-17.2-4.6h.1-.1" fill="#957e59" fill-rule="evenodd" transform="translate(-306.1 -153)"/><path d="M340.95 176.3h.2l4.4.3.5.05h.3l9 3.5-2 3.5-2 .5.25 5.35.6 2.8.1.05q3.4 10.4 18.85 10.45l3.35-.15h.1q7.95 6.45 5.5 12.75l.25.2q1.55 1.1 1.45 1.85l-.35.5-.9.35-3.5.4-2.65-2.4v-3.7l-3.3-1.05-.05-.05h-.1l-.5-.15-14.65-4.6-7.8-15.9-15.25-1.15-.45-.4-.3.35 1.8 5.9-6.95-.2-3.75 9.3 10 9-10.55 7.45-.95-.05-.25-.05-.8-.05h-.05l-.3.05-9.7-2.15-.85-.5-3.4-4.4-.15-.55q1.15-3.75 11.4-15.35l.1-.15q.4-6.85 4.9-8.5l.15-.05q1.3-7.25 6.75-10.45l.9 4q4.15 2.05 2.4-1.4l-1.15-3.65.1-.05 1.2-.4.9-.25 7.2-.85m-18.3 13.05 3.7-.5q4.05-1.05 5.95.45-1.9-1.5-5.95-.45l-3.7.5" fill="#937544" fill-rule="evenodd" transform="translate(-306.1 -153)"/><path d="M330 220.6h-.1l-.7.2-.8.1-5.85.2 10.55-7.45-10-9 3.75-9.3 6.95.2-1.8-5.9.75.05 15.25 1.15 7.8 15.9 14.65 4.6-.05.2-10.15-.3-2.55-.7-2-.95q-2.8-1.65-3.9-4.55h-.1l-1.1.35h-.15l-2.9-.7-1.85-1q-2.25-1.7-2.7-5.05l.1-.05-.15-1.2.05-.05-.15.15-1.75 1.8q-2.95 2.15-7.75 1.5l-.25.85-.2.25q-.75 1.05-1.1 2.2l-.3 1.2-.1 1.3.05.85.05.3.2 1.35.3.95.55 1.45.05.15q.95.1 1.75 1.05.9 1.05 1.5 3.2l-.35.7q-1.55 2.9-5.5 4m3.85-27.95q-.2-1.9-1.1-2.95.9 1.05 1.1 2.95m11 .25q-.65 2.65-1.85 4.45 1.2-1.8 1.85-4.45m63.25 19.05v-.05q1.85 1.75 3.45 2.4l1 .25.6.05q1.6 0 2.9-1.4l.05-.05 3.7 4.2-.05.05-8.65-1.75h-.05l-.55-.15-.85-.1q-.8 0-1.45.45l-2.25 6.1-.1 1.95.25 5.75q2.35 2.1-5.25 3.25h-.1l-7.05-.7q-1.2-.35-1.5-.8l.2-1.05.7-.7q8.55-2.8 11.25-11.5l3.75-6.2m-56.75-8.55.45 1.65-.45-1.65m-18-2.6h-.1l-2.9-.65 2.9.65h.1" fill="#4b3d23" fill-rule="evenodd" transform="translate(-306.1 -153)"/><path d="M330.95 153.05V153l6.65 1.25q-7.5 11.1-6.1 23.55v.1l.05-.05 1.15 3.65q1.75 3.45-2.4 1.4l-.9-4q-3.7-10.45-6.45-14.75l-.05.05-.4.45-3.55 4.25h-.1l-5.4-3.9-.05-.05q.05-.85.5-1.85l5.55-7.65.2-.25h.05q2.25-.15 5.1 2.5l.05.05 6.1-4.7m-2.75 8.6q-1.75-2.4-3.35-3.9 1.6 1.5 3.35 3.9m-5.25 2.5-.05-.1q-1.4-2.05-4.05-4.4 2.65 2.35 4.05 4.4l.05.1-.45.5.45-.5m-9.05-1.05q-.4 1.05-.45 1.9.05-.85.45-1.9" fill="#91c758" fill-rule="evenodd" transform="translate(-306.1 -153)"/><path d="m369.8 217.65-.15 1.25-39.65 1.7q3.95-1.1 5.5-4l.35-.7q-.6-2.15-1.5-3.2-.8-.95-1.75-1.05l-.05-.15-.55-1.45-.3-.95-.2-1.35-.05-.3v-.85.85l-.05-.85h.05l24.15 3h.1l2 .95 2.55.7 10.15.3-.45 4.35v.05l-.65.3-.45.15q-.2.65.95 1.2v.05m.15-1.7-.65.3.65-.3" fill="#b0ad99" fill-rule="evenodd" transform="translate(-306.1 -153)"/><path d="M24.85.05V0l6.65 1.25Q24 12.35 25.4 24.8v.1l.05-.05.1-.05 1.2-.4.9-.25q3.15-.85 7.2-.85h.2m4.9.35h.3l9 3.5-2 3.5-2 .5.25 5.35.7 2.85q3.4 10.4 18.85 10.45l3.35-.15h.1Q76.45 56.1 74 62.4l.25.2q1.55 1.1 1.45 1.85l-.35.5q-1 .65-4.4.75h-.1L69 65.65M23.9 67.6h-.1l-.7.2m-7.85.2-.8-.05-.25.05h-.1M.15 60.95 0 60.4m16.4-48.75-3.55 4.25h-.1M7.8 10.1l5.55-7.65.2-.25h.05q2.25-.15 5.1 2.5l.05.05q1.6 1.5 3.35 3.9m2.75-8.6-6.1 4.7m6.7 20.1h-.05m0-.05v.05m-2.1 1.05.9 4q4.15 2.05 2.4-1.4l-1.15-3.65m.75 11.45q-1.9-1.5-5.95-.45l-3.7.5-.15.05q-4.5 1.65-4.9 8.5l-.1.15Q1.15 56.65 0 60.4m26.2-24.1.45.4q.9 1.05 1.1 2.95m37.1 18.85h.1l.05.05m-28.1-14.2q1.2-1.8 1.85-4.45m-2 4.65.1-.15.05-.05m-1.85 1.95 1.7-1.75M37 45.6l-.15-1.2M102 58.95v-.05q1.85 1.75 3.45 2.4l1 .25.6.05q1.6 0 2.9-1.4l.05-.05 3.7 4.2.05.05h-.1L105 62.65h-.05l-.55-.15-.65-.1q-.95-.05-1.65.45l-2.25 6.1-.1 1.95.25 5.75q2.35 2.1-5.25 3.25h-.1l-7.05-.7M102 58.95l-3.75 6.2q-2.7 8.7-11.25 11.5l-.7.7-.2 1.05q.3.45 1.5.8M64.85 58.5l-.55.05-10.15-.3-2.55-.7-2-.95q-2.8-1.65-3.9-4.55l-.45-1.65M65.1 62.15l.85-2.1.05-.15-1-1.35m.1 3.6-.05.1m-1.85 1-.45.15q-.2.65.95 1.2l5.3 1.05m-5.15-2.7 1.2-.7m-1.85 1 .65-.3m-38.5-9.35v.85l.05.3.2 1.35.3.95.55 1.45.05.15q.95.1 1.75 1.05.9 1.05 1.5 3.2m-.25.5-.1.2q-1.55 2.9-5.5 4m15.7-16.9 1.85 1 2.9.7h.15m-9.45-6.1H35q-2.95 2.15-7.75 1.5h-.1l-2.9-.65m2.75 1.5-.2.25q-.75 1.05-1.1 2.2l-.3 1.2q-.1.6-.05 1.3m-8.5-42.45-.45.5m-3.65-5Q15.4 9 16.8 11.05l.05.1q2.75 4.3 6.45 14.75-5.45 3.2-6.75 10.45M7.35 12q.05-.85.45-1.9M4.4 65.85l-.85-.5m12.9 2.75-.95-.05" fill="none" stroke="#2b0000" stroke-linecap="round" stroke-linejoin="round" stroke-opacity=".38" stroke-width=".05"/><path d="m25.4 24.85 2.1-.7h.15l7.2-.85M69 65.65h-.1l-5.2-1M16.45 68.1h-.55l-.4-.05-.25-.05M4.4 65.85h-.1M0 60.4q1.05-3.75 11.3-15.35l.1-.15q.4-6.85 4.9-8.5l.15-.05q1.3-7.25 6.75-10.45-3.7-10.4-6.4-14.7m-4.05 4.7L7.35 12l-.05-.05M18.7 4.7 24.75 0l.1.05m11.9 44.45v.05l.15 1.1m70.15 15.95q1.55 0 2.85-1.45l.05.05m3.7 4.2-8.75-1.75-1.15-.25h-.2M87.6 79.2h-.15q-2.8-.85-.55-2.55 8.55-2.8 11.25-11.5l3.75-6.25.1.05m-36.05 1.1q-.25-.75-1.05-1.5l-.05-.05m-1 4.4 1.25-.75m.85-2.1q.3 1.1-.85 2.1m-19.5-10.1q1.1 2.9 3.9 4.55m-8.05-4.9-.2-.05-1.65-.95q-2.25-1.7-2.7-5.05m7.55 6.75h-.1" fill="none" stroke="#634527" stroke-linecap="round" stroke-linejoin="round" stroke-width=".05"/></g></defs></svg>