<svg viewBox="0 0 26.712 12.95" xmlns="http://www.w3.org/2000/svg" xmlns:xlink="http://www.w3.org/1999/xlink"><g transform="translate(-261.6 -194)"><use transform="translate(261.65 194.05)" width="26.6" height="12.85" xlink:href="#a"/><use transform="matrix(-.3361 .07 .066 .317 270.08 201.47)" width="8.1" height="8.1" xlink:href="#b"/><use transform="matrix(-.5681 .2155 .16 .422 278.7 200.64)" width="8.1" height="8.1" xlink:href="#b"/><use transform="matrix(-.6625 .138 .1302 .6248 267.47 196.02)" width="8.1" height="8.1" xlink:href="#b"/><use transform="matrix(-.3237 .0674 .0636 .3053 269.99 194.61)" width="8.1" height="8.1" xlink:href="#b"/><use transform="matrix(-.6625 .138 .1302 .6248 287.02 195.82)" width="8.1" height="8.1" xlink:href="#b"/><use transform="translate(261.6 194)" width="26.7" height="12.95" xlink:href="#c"/></g><defs><path d="M4.05-4.05q1.7 0 2.85 1.15Q8.1-1.7 8.1 0T6.9 2.85q-1.15 1.2-2.85 1.2t-2.9-1.2Q0 1.7 0 0t1.15-2.9q1.2-1.15 2.9-1.15" fill="url(#d)" fill-rule="evenodd" transform="translate(0 4.05)" id="b"/><path d="m13.5.25.4.1.15.05q.15.1.35.15l.8.05.75.2h.55l.7.1.45-.05.15-.05h.4l.4.05 1.75.2q2.4.5 4.1 1.7l.5.35.3.1.7.75.1.35.1.15.1.1.2.4.2.8q.1 1.15-.65 2.1l-.2.2v.05l-.25.95-.3.3-.1.05q-.45 1.35-3.2 2.35-2.3.75-5.2 1l-2.7.15h-.85l-1.25-.1-.2.1h-.65l-.5-.1-.05-.15-.1.05-3.1-.6-.2-.05-.5-.15-.45-.15q-1.7-.6-2.5-1.3-.75-.7-.8-1.4-.15-.2-.55-.3l-.3-.05-.4-.15Q.8 8.1.35 7.25L.05 6.1v-.3l.15-.7q.3-.95 1.05-1.45l.05-.05.05-.1.3-.2.05-.15V3.1l.1-.2q.3-.6 1.15-.95l.6-.25 1.05-.05.05-.05 1.05-.2-.1-.05 1.3-.4L7 .9Q8.9.05 11.35.05L13.1.2l.4.05m-7 6.85-.25.75-.85.1-.65.05.55-.5.2-.3.05-.1 1.05-.25-.1.25m1.3-.8-.55.25.2.6.05.35 2.95-.25h.7l.3.05 1.6.25h.15l1.5.35.85.25q.2-.7.45-.65.25 0 .55.9l.6.1 2.7.35-.05-.3q-.15-.6 0-1.2l.05-.3.2-.4-.4-.1-2.55-.75-.1-.05-.15.05L16 6l-.85-.2-.3-.25-.4.05-.7-.2-.05-.05-.15.05h-.2l-.35.3-1 .2-1-.2-.15-.1-1 .05-.15.1Q9.45 6 9.05 6l-.55-.15-.1.05-.6.4" fill="none" stroke="#261601" stroke-linecap="round" stroke-linejoin="round" stroke-opacity=".412" stroke-width=".1" id="c"/><radialGradient id="d" cx="0" cy="0" r="819.2" gradientTransform="translate(4.05) scale(.0051)" gradientUnits="userSpaceOnUse"><stop stop-color="#fff" offset="0"/><stop stop-color="#fff" stop-opacity="0" offset="1"/></radialGradient><g id="a"><path d="m-.35 1.4.05-.25.85-.1-.05.2-.85.15" fill="#dabcb4" fill-rule="evenodd" transform="translate(5.65 6.75)"/><path d="M7.25 4.95H7.1l-.05-.15 2.6.2h.25l.5-.1q.6-.15.65-.8v-.25L11 2.8l-.35-1.3-.35-.8q.25 0 .55.9l.05.05v.05l.05.15.1.25.2.9.05 1.05v.25q-.05.65-.65.8l-.5.1H9.9L7.8 5h-.4l-.15-.05m.4-2.45-.15-.05h-.05l-.4-.55-.6-.5-.1-.1-.3-.4.15-.15H6L5.55.7H5.4L4.9.65h-.15L1.9.95 1.8.7 4.75.45h.7l.3.05 1.6.25-.55.1h-.15V.8H6.4L6.2.75l.05.15.4.5.6.5.4.6M5.55.7l.2-.2-.2.2" fill="#999" fill-rule="evenodd" transform="translate(5.65 6.75)"/><path d="M5.55.7 6 .75h.2L6.05.9H6L5.45.85H5.4L5.35.8H4.8l.1-.15.5.05h.15l-.1.15.1-.15" fill="#e4e4e4" fill-rule="evenodd" transform="translate(5.65 6.75)"/><path d="M5.8 6.1h-.4V.85h.05L6 .9h.05l.3.4-.55-.05V6.1M1.35-.55h.05L1.15.1Q.9.65.8 1.3q-.1.5-.05 1.05v.25q0 .6.6.95l.45.25v-.05l1.8.35v.25l-2.05-.4V4l-.1-.05-.35-.2Q.5 3.4.5 2.8v-.25L.55 1.5Q.65.85.9.3q.2-.8.45-.85M4.8.8h.55l.05.05v.25H5l-.15.15-.4.25-.5.3-.1.1-.4-.05.35-.35q.2-.2.5-.3l.35-.25L4.8.8M3.6 4.55l-.15-.2h.05l.1.2" fill="#ececec" fill-rule="evenodd" transform="translate(5.65 6.75)"/><path d="M6.05 6.1H5.8V1.25l.55.05.1.1.6.5.4.55h.05l.15.05.4.05.75.1h.45l.55-1.1V1.5l.05-.15q.2-.7.45-.65l.35.8.35 1.3.05 1.05v.25q-.05.65-.65.8l-.5.1h-.25l-2.6-.2.05.15h.15l-.2.2-.65.4q-.4.2-.35.55m-.65 0L4.9 6l-.05-.15q-.1-.35-.5-.6L3.8 4.8l-.2-.25-.1-.2h-.1L1.55 4v-.05l2.05.4V4.1l-1.8-.35v.05l-.45-.25q-.6-.35-.6-.95v-.25Q.7 1.8.8 1.3.9.65 1.15.1l.25-.65.15.3.2.6.05.35.1.25.2.45.15.25.4.15.8.05.4.05.1-.1.5-.3.4-.25L5 1.1h.4v5M.9.05q.2-.75.45-.6Q1.1-.5.9.3.65.85.55 1.5L.5 2.55v.25q0 .6.6.95l.35.2V4L1 3.75Q.4 3.4.4 2.8v-.35q-.05-.5.05-.95v-.05l.1-.4L.8.3.9.05" fill="#ccc" fill-rule="evenodd" transform="translate(5.65 6.75)"/><path d="m11.45 1.7-.2.2-.3-.05-.05-.15v-.05l-.05-.05.6.1m-1.6-.35-.05.15v.05l-.8-.2-2.2-.5.55-.1h.15L9 1.1l.85.25" fill="gray" fill-rule="evenodd" transform="translate(5.65 6.75)"/><path d="M7.95 6.1H7.5L6.25 6q-.05-.25.35-.45l.65-.4L7.4 5h.4l-.15.15-.65.4-.3.25-.05.2 1.3.1m.1-3.55-.4-.05-.4-.6-.6-.5-.4-.5L6.2.75l.2.05h.25v.1l.4.5.6.5.4.65" fill="#505050" fill-rule="evenodd" transform="translate(5.65 6.75)"/><path d="m6.25 6-.2.1q-.05-.35.35-.55l.65-.4.2-.2.15.05-.15.15-.65.4q-.4.2-.35.45" fill="#656565" fill-rule="evenodd" transform="translate(5.65 6.75)"/><path d="m11.45 1.95-.15-.05h-.05l.2-.2 2.7.35.1.25-2.8-.35" fill="#d1aaa3" fill-rule="evenodd" transform="translate(5.65 6.75)"/><path d="M11.3 1.9q3.85 2.05.65 3.7h-.05q3.2-1.65-.65-3.7h.05" fill="#85503f" fill-rule="evenodd" transform="translate(5.65 6.75)"/><path d="M-4-3.65v-.05l.1-.2q.3-.6 1.15-.95l.6-.25 1.05-.05.05-.05L0-5.4l-.1-.05 1.3-.4.1-.05q1.9-.85 4.35-.85l1.75.15.4.05.4.1.15.05q.15.1.35.15l.8.05.75.2h.55l.7.1.45-.05.15-.05h.4l.4.05 1.75.2q2.4.5 4.1 1.7l.5.35.3.1.7.75.1.35.1.15.1.1.2.4.2.8-.6.4-.3-.1-1.3-1-.1-.1v.1l-.15.3.6.4.25.3.05.65.2.6.05-.05.45.8v.05l-.25.95-.3.3-.1.05-.15.05-.05.1-.1.1-.1.15-.25.3.1-.5-.6.45q-.7-.25-.25-.95l-.55.3-.45.6q-.2.3-.1-.8l-.55.4q-.65.35-.7-.1l-.05-.45.1-.5q.05-.35-.3.25l-.15.25-.35.6-.5-.55-.05-.25q-.1-.7.4-1.85-.8 1.6-.7.35l.05-.3.2-.4.15-.2q.4-.7 1.1-1.05l-.1-.6.2-.3.05-.05.1-.2.1-.1.05-.3.05-.1-.45-.85-.75.25-.4.1-.2.1-.15.05-.5-1.3-.55.65-.2.2-1.1.8L8.9-3.2l-.95-.4.3-.45-.45-.1-.1-.05-.8-.7-1.4.85-.1.05h-.05L4.1-4.9l-.3.3.1.1-.7-.15.45.65q-.75.7-1.65.25l.25.6.7.5L0-4.5l.25.6q.6 1.5.25 1.8l-.1.05L.25-2H.1l.3.45q.2.5 0 1L.2-.2l-.25.2v.05L-.1.1l-.05.1v.1L-.2.4l-.2.3V.2l-.45.6-.5-.35v-.5l-.5.5V.5l-.2.45-.05.15-.15-.15-.05-.2-.05-.3-.05-.1-.05.1-.4.4q-.55.5-.7.1L-3.7.1V0q-.05-.3-.15.05L-4.2 1.3q-1.15-.25-.85-2.55-.3 1.75-.6.55V-1l.15-.7q.3-.95 1.05-1.45l.35-.25h.05l.3-.1-.25-.15M.95 5.1.5 4.95q-1.7-.6-2.5-1.3l.2-.15.1-.05q.4-.35.4-.85.7-.5.95-1.2l.85-.15-.05.2q-2.6 1.35.5 3.65m6.9-6.5.1-.1.05.05-.15.05m3.45.35h.05l.05.05-.1-.05m6.3-.5.2.1-.25-.5-.3.3h.05l.2.05.1.05" fill="#f5eed3" fill-rule="evenodd" transform="translate(5.65 6.75)"/><path d="m16.1 4.15.05.05.3-.05 1.15-.25.15-.05-2.25 1.1q-1.9.65-4.2.9l.6-.25h.05q3.2-1.65-.65-3.7l.15.05.25.05q3.45 1.85 1.25 3.35l1.45-.4 1.7-.8" fill="#e5d2ad" fill-rule="evenodd" transform="translate(5.65 6.75)"/><path d="M19.45 2.6q-.45 1.35-3.2 2.35-2.3.75-5.2 1l.25-.1q2.3-.25 4.2-.9l2.25-1.1q.35-.25 1.05-.55l.25-.3.1-.15.1-.1.05-.1.15-.05" fill="#897d56" fill-rule="evenodd" transform="translate(5.65 6.75)"/><path d="m4.85 5.85-.1.05-3.1-.6Q-.55 3.6.4 2.45v.35q0 .6.6.95l.45.25v-.05l.1.05 1.85.35h.05l.15.2.2.25.55.45q.4.25.5.6M7.8 5l2.1.2h.25l.5-.1q.6-.15.65-.8v-.25L11.25 3l-.2-.9q3.05 2-1 3.6l-2.7.1H6.7l.3-.25.65-.4L7.8 5m2-3.45-.55 1.1H8.8l-.75-.1-.4-.65-.6-.5-.4-.5V.85h.15l2.2.5.8.2M2.1 1.4l.3-.1L4.65.95l-.35.25q-.3.1-.5.3l-.35.35-.8-.05-.4-.15-.15-.25" fill="#425a68" fill-rule="evenodd" transform="translate(5.65 6.75)"/><path d="m1.65 5.3-.2-.05-.5-.15q-3.1-2.3-.5-3.65v.05q-.1.45-.05.95Q-.55 3.6 1.65 5.3M4.9.65 4.8.8l-.15.15-2.25.35-.3.1-.2-.45 2.85-.3h.15" fill="#547281" fill-rule="evenodd" transform="translate(5.65 6.75)"/><path d="m11.05 5.95-2.7.15h-.4L6.65 6l.05-.2h.65l2.7-.1q4.05-1.6 1-3.6l-.1-.25.3.05q3.85 2.05.65 3.7l-.6.25-.25.1" fill="#364a54" fill-rule="evenodd" transform="translate(5.65 6.75)"/><path d="M20.95-1.05q.1 1.15-.65 2.1l-.2.2-.45-.8-.05.05-.2-.6-.05-.65-.25-.3-.6-.4.15-.3v-.1l.1.1 1.3 1 .3.1.6-.4M-2 3.65q-.75-.7-.8-1.4h.05l.05.05.25-.15q-.4-.35-.2-.9l-.15.2-1.25.3q-.85-.45-1.3-1.3l-.3-1.15q.3 1.2.6-.55-.3 2.3.85 2.55l.35-1.25q.1-.35.15-.05v.1l.15.85q.15.4.7-.1l.4-.4.05-.1.05.1.05.3.05.2.15.15.05-.15.2-.45V.45l.5-.5v.5l.5.35.45-.6v.5l-.55.5.65-.05-.05.25q-.25.7-.95 1.2 0 .5-.4.85l-.1.05-.2.15m-2.45-6.8.05-.05.05-.1.3-.2.05-.15.25.15-.3.1h-.05l-.35.25M-.15.3V.2L-.1.1l.05-.05V0L.2-.2l.2-.35q.2-.5 0-1L.1-2h.15l.15-.05.1-.05q.35-.3-.25-1.8L0-4.5l2.95 1.85-.7-.5-.25-.6q.9.45 1.65-.25l-.45-.65.7.15-.1-.1.3-.3 1.25.9h.05l.1-.05 1.4-.85.8.7.1.05.45.1-.3.45.95.4 2.85.15 1.1-.8.2-.2.55-.65.5 1.3.15-.05.2-.1.4-.1.75-.25.45.85-.05.1-.05.3-.1.1-.1.2-.05.05-.2.3.1.6q-.7.35-1.1 1.05l-.15.2-.4-.1L11.4-1l-.05-.05h-.05l-.15.05-.85.2-.85-.2-.3-.25-.4.05-.7-.2-.1-.1-.1.1h-.2l-.35.3-1 .2-1-.2-.15-.1-1 .05-.15.1q-.25.25-.65.25L2.8-.95l-.1.05-.6.4-.55.25-.15-.3h-.05Q1.1-.7.9.05L-.15.3M14.1.55Q14 1.8 14.8.2q-.5 1.15-.4 1.85l.05.25.5.55.35-.6.15-.25q.35-.6.3-.25l-.1.5.05.45q.05.45.7.1l.55-.4q-.1 1.1.1.8l.45-.6.55-.3q-.45.7.25.95l.6-.45-.1.5q-.7.3-1.05.55l-.15.05-1.15.25-.1-.15q-.15-.35.15-.75l-1.5.1.35.25.25.1.5.45-1.7.8-1.45.4q2.2-1.5-1.25-3.35l-.25-.05 2.8.35-.1-.25-.05-.3q-.15-.6 0-1.2m3.5-2.1-.1-.05-.2-.05h-.05l.3-.3.25.5-.2-.1" fill="#dec696" fill-rule="evenodd" transform="translate(5.65 6.75)"/><path d="M-2.8 2.25q-.15-.2-.55-.3l-.3-.05-.4-.15 1.25-.3.15-.2q-.2.55.2.9l-.25.15-.05-.05h-.05m19.25 1.9-.3.05-.05-.05-.5-.45-.25-.1-.35-.25 1.5-.1q-.3.4-.15.75l.1.15" fill="#ba9a74" fill-rule="evenodd" transform="translate(5.65 6.75)"/><path d="M25.1 9.35q-.45 1.35-3.2 2.35-2.3.75-5.2 1l-2.7.15h-.85l-1.25-.1-.2.1h-.65l-.5-.1-.05-.15m-.1.05-3.1-.6-.2-.05-.5-.15-.45-.15q-1.7-.6-2.5-1.3-.75-.7-.8-1.4m2.5-1.1-.65.05m1.5-.15-.85.1m11.6.75q3.85 2.05.65 3.7m-.05 0-.6.25-.25.1m3.1-3.9-2.7-.35m-.6-.1.6.1m-.2.2q3.85 2.05.65 3.7m-4.4-4.85 1.5.35.85.25m-3.65-.6.05.15.4.5.6.5.4.6M13 7.5l-1.6-.25m-.85.15-.1.15m.6.05h.05m-.05.25V7.6m-3.6-.15 2.95-.25h.7l.3.05m1.65 4.5-.15.15-.65.4q-.4.2-.35.45m-.85-4.9v5M10.3 7.7l.15-.15m-.15.15-.35.25q-.3.1-.5.3l-.35.35m0 2.5.15.2.2.25.55.45q.4.25.5.6m-3.9-.75q-3.1-2.3-.5-3.65M10.5 12.6l-.1.05m6.7-4.2-.2.2m-5.5-1.4-.2.2m1.8.05h.15m-2.05.1.1-.15" fill="none" stroke="#000" stroke-linecap="round" stroke-linejoin="round" stroke-width=".05"/><path d="m7.2 6.5.55-.25.6-.4.1-.05" fill="none" stroke="#423213" stroke-linecap="round" stroke-linejoin="round" stroke-opacity=".502" stroke-width=".05"/><path d="m7.05 6.2.15.3.2.6.05.35.1.25.2.45M6.55 6.8q.2-.75.45-.6m.1 4.5.1.05M6.15 8l.05-.2m6.95 3.95h.3l2.1.2h.25l.5-.1q.6-.15.65-.8v-.25l-.05-1.05-.2-.9-.1-.25-.05-.15V8.4l-.05-.05q-.3-.9-.55-.9-.25-.05-.45.65l-.05.15v.05l-.55 1.1h-.45l-.75-.1-.4-.05-.15-.05M8.3 8.55l-.4-.15-.15-.25M6.55 6.8l-.1.25-.25.75m-.05.2-.05.2v.05q-.1.45-.05.95v.35q0 .6.6.95l.45.25v-.05m1.95.4-1.85-.35" fill="none" stroke="#000" stroke-linecap="round" stroke-linejoin="round" stroke-opacity=".341" stroke-width=".05"/></g></defs></svg>