<svg viewBox="0 0 21.4 9.8" xmlns="http://www.w3.org/2000/svg" xmlns:xlink="http://www.w3.org/1999/xlink"><use width="21.4" height="9.8" xlink:href="#a"/><defs><g id="a"><path d="M303.2 199.3h.05v-.1l.1.1-.1-.05v.05h-.05m-12.75 2-1.25-.2h-.05l-.5-.05q-1 0-1.75.4l-.55.4q-.3.25-.35.6.1-.6.9-1 .9-.5 2.25-.4h.05l1.25.25" fill="#ccc" fill-rule="evenodd" transform="translate(-282.15 -195.25)"/><path d="m296.45 195.7-4.1.7q-2.25.65-2.9 1.5-2.25.25-4.05.85-.95.3-1.55.65-.4.15-.7.4l-.15-.1-.1-.05-.05-.05q-.6-.45-.65-.95l-.05-.05.05-.05q.15-1.25 3.2-2.15 3.15-.9 7.55-.85l3.5.15" fill="#472c23" fill-rule="evenodd" transform="translate(-282.15 -195.25)"/><path d="m302.5 199.7.1-.05.05-.05.6-.55.15-.3.05-.2v.1l-.05.25-.05.15-.1.15v.1h-.05l-.05.1-.5.4-.05.05-.8.45-1.55.55h-.05l-3.8.6-3.75-.15-3.1-.3h-.1l-.2-.05h-.05l-2.95-.25-2.45-.4-.9-.45-.05-.05-.15-.1-.05-.05q-.5-.45-.5-.9v-.1h.05q.05.5.65.95l.05.05.1.05.15.1.65.35 1.8.2 4 .35 2.4.25 4.4.25 3.85-.55 1.55-.55.7-.4m.95-1.25-.05-.2q-.35-1.05-2.95-1.85l-4-.7-3.5-.15q-4.4-.05-7.55.85-3.05.9-3.2 2.15h-.05v-.1q.05-1.3 3.25-2.25 3.15-.9 7.55-.9 4.45 0 7.5.9 2.6.8 2.95 1.85l.05.3v.1" fill="#c4a773" fill-rule="evenodd" transform="translate(-282.15 -195.25)"/><path d="m302.5 199.7-.55-.3-.65-.35-.85-.3q-3.05-1.05-7.45-1.05l-3.55.2q.65-.85 2.9-1.5l4.1-.7 4 .7q2.6.8 2.95 1.85l.05.2v.1l-.05.2-.15.3-.6.55-.05.05-.1.05" fill="#58382b" fill-rule="evenodd" transform="translate(-282.15 -195.25)"/><path d="m303.25 199.2.1-.15.05-.15.05-.25v2.65l-.05.1-.5.85-.8.6-1.9.9-.2.05v.05l-1.85.5-.6.1-1.15.2-1.25.15h-.05l-2.55.15-1.65.05v-.05l.9-.3.95-.95q-.2.55-.95.9l-.9.35-1.05-.05-.2-.05 1.15-.05.8-.3.05-.05.45-.25.55-1v-.2l-.1-.3-.25-.45h-.05l-.2-.2-.45-.3q-.85-.6-2.05-.75l3.1.3 3.75.15 3.8-.6h.05l1.55-.55.8-.45h.05l.5-.45.05-.1h.05l-.15.5.05-.1.15-.4h.05l-.1-.1m-14.65 5.6-3.4-.85-.45-.2-.35-.15-.05-.05q-1.1-.5-1.65-1.05l-.45-.65-.05-.15-.05-.25v-2.7q0 .45.5.9l.05.05.15.1.05.05.9.45 2.45.4 2.95.25q-1.35-.1-2.3.4-.8.45-.9 1.1l-.05.2.05.25v.2l.05.15.1.1.25.35.2.2.3.2v.05l1.7.65m14.1-4.55v.05l.1.3v.05h.05v-.05l-.15-.35m.15.65.05-.05-.05-.1h-.05l.05.15m-3.15 2.75h.05l-.05-.05v.05m3.2-1.7h-.1v-.05h-.05v.05l-.05.2.2-.2m-.85.9H302h.05m-6.3.2v-.3h-.05l.05.3m-.05.45-.05.2-.3.55-.1.15-.35.25.5-.4.3-.55v-.2m1.3.7.05.05v-.05l-.05-.05v.05m1.35-.45-.15.25.2-.25h-.05m.2-1.85-.05-.05.05.05m-13.9-1.1v-.05l-.1 1.55.1-1.5m-.7 2.2h.05-.05m.4.45h.05l-.1-.05.05.05" fill="#975b48" fill-rule="evenodd" transform="translate(-282.15 -195.25)"/><path d="M303.35 199.3h-.05l-.15.4-.05.1.15-.5v-.05l.1.05m-3.65 4.35h.05-.05m2.35-.8H302h.05M297 204.2v-.05l.05.05v.05l-.05-.05" fill="#8f8f8f" fill-rule="evenodd" transform="translate(-282.15 -195.25)"/><path d="m300.2 203.75-.05.05-.15.05v-.05l.2-.05m-5.05 1.05-.8.05h-.1l.85-.05h.05m-4.25.2-.5-.05h-.6l-.2-.05h.25l.3.05h.75v.05m11.8-4.75.15.35v.05h-.05v-.05l-.1-.3v-.05m.15.65-.05-.15h.05l.05.1-.05.05m.05 1.05-.2.2.05-.2v-.05h.05v.05h.1m-4.55 1.8h.05l-.2.25.15-.25" fill="#85503f" fill-rule="evenodd" transform="translate(-282.15 -195.25)"/><path d="M289.8 204.9h-.2.25l1.05.05.9-.35q.75-.35.95-.9l-.95.95-.9.3h-.75l-.3-.05h-.05m13.35-5.5-.5.45h-.05l-.8.45-1.55.55h-.05.05l1.55-.55.8-.45.05-.05.5-.4m-10.9 2.85h.05l.25.45.1.3v.2l-.55 1q.5-.45.5-1.05V203l-.1-.25v-.05l-.25-.45m3.45 1.25v.2l-.3.55-.5.4.35-.25.1-.15.3-.55.05-.2m.05-.45-.05-.3h.05v.3" fill="#8f5745" fill-rule="evenodd" transform="translate(-282.15 -195.25)"/><path d="M299.75 203.65h-.05v-.05l.05.05m-1.2-1.75-.05-.05.05.05" fill="#563129" fill-rule="evenodd" transform="translate(-282.15 -195.25)"/><path d="m288.65 201.05.5.05h.05l1.25.2.35.15-.35-.1-1.3-.15h-.4l-.1-.15m-2.65 1.4q.05-.35.35-.6l.2.1-.55.5v.05-.05m-1.35-1.65-.1 1.5.1-1.55v.05m-.7 2.2h.05-.05" fill="#e7e7e7" fill-rule="evenodd" transform="translate(-282.15 -195.25)"/><path d="M289.55 201q1.2.15 2.05.75l.3.2.05.2-.2-.15-.25-.2-.7-.35-.35-.15-1.25-.25h-.05q-1.35-.1-2.25.4-.8.4-.9 1 .1-.65.9-1.1.95-.5 2.3-.4h.05l.2.05h.1" fill="#e1e1e1" fill-rule="evenodd" transform="translate(-282.15 -195.25)"/><path d="M288.75 201.2h.4l1.3.15.35.1.7.35.25.2.2.15v.15q0 .8-.95 1.3l-1.95.45h-.1l-1-.15-1.65-.65-.3-.2v-.15l-.05-.25.05-.2v.05-.05l.55-.5q.85-.6 2.2-.75" fill="#fc0" fill-rule="evenodd" transform="translate(-282.15 -195.25)"/><path d="m286 203.05.3.2 1.65.65 1 .15h.1l1.95-.45q.95-.5.95-1.3v-.15l.15.15.25.45.1.25v.2q0 .75-.95 1.25l-2 .4-.3-.05-.7-.1-1.6-.6v.05-.05l-.3-.2-.2-.2-.25-.35-.1-.1-.05-.15v-.05" fill="#f90" fill-rule="evenodd" transform="translate(-282.15 -195.25)"/><path d="m289.6 204.9-1-.1-1.7-.65v-.05l1.6.6.7.1.3.05 2-.4q.95-.5.95-1.25v-.2l-.1-.25-.25-.45-.15-.15-.05-.2.15.1.2.2.25.45v.05l.1.25v.15q0 .6-.5 1.05l-.45.25-.05.05-.8.3-1.15.05.2.05h-.25" fill="#c1c1c1" fill-rule="evenodd" transform="translate(-282.15 -195.25)"/><path d="m288.65 201.05.1.15q-1.35.15-2.2.75l-.2-.1.55-.4q.75-.4 1.75-.4" fill="#fff" fill-rule="evenodd" transform="translate(-282.15 -195.25)"/><path d="m284.35 203.45-.05-.05.1.05h-.05" fill="#7a493a" fill-rule="evenodd" transform="translate(-282.15 -195.25)"/><path d="M.1 3.4H.05v2.8l.05.25.05.15.45.65L2.25 8.3l.05.05.35.15.45.2 3.4.85 1 .1h.2-.2l.2.05h.6l.5.05 1.65-.05 1.7-.1h.1l.8-.05 1.25-.15 1.15-.2.6-.1 1.85-.5.15-.05.05-.05 1.9-.9.8-.6.5-.85.05-.1V3.1l-.05-.3q-.35-1.05-2.95-1.85-3.05-.9-7.5-.9-4.4 0-7.55.9Q.1 1.9.05 3.2v.1H.1l-.05.05.05.05m10.8-.95q4.4 0 7.45 1.05l.85.3.65.35.55.3-.7.4-1.55.55-3.85.55-4.4-.25-2.4-.25-4-.35-1.8-.2-.65-.35q.3-.25.7-.4.6-.35 1.55-.65 1.8-.6 4.05-.85l3.55-.2" fill="none" stroke="#472c23" stroke-linecap="round" stroke-linejoin="round" stroke-width=".1"/></g></defs></svg>