<svg viewBox="0 0 204.85 125.9" xmlns="http://www.w3.org/2000/svg" xmlns:xlink="http://www.w3.org/1999/xlink"><use transform="translate(.03 .03)" width="204.8" height="125.85" xlink:href="#a"/><defs><g id="a"><path d="m370.45 222.5 2.8 9.2 3.1 14.55.55 2.65-10.05 9.1-.95.85.3 19.35v.3l-43.95 17.15-3.35 3.9-18.75-19.75 46.7-19.95 23.6-37.35m-39.75 18.8.2 8.9-7.55-.15-6.2-9.4 10.4 7.85 3.15-7.2m-42.9-5.95-5.45 3.7-10.55-6.75 16 3.05M249.4 232l2.25 7.05-8 17.5-22.15-1.8-6.9-9.75 26.2 5.05 8.6-18.05m19.3 51-17.5 13.3-.7.5-32.05-4.6-35.2-24.1 2.15-4.7 47.1 21.75 36.2-2.15m54.25 11.75-.7.9.7-.9" fill="#313122" fill-rule="evenodd" transform="translate(-183.25 -185.35)"/><path d="m335.2 215.9.2.2 16.4-6.2-6.05-8.15-.05-.05-14.25-.85-4.9 5.4 8.65 9.65m-4.5 25.4.65-1.45-12.6-5-3.2 4.55 1.6 1.25 6.2 9.4 7.55.15-.2-8.9m15.9-2.5 1.8-16.15-1.8 16.15m23.85-16.3-23.6 37.35-46.7 19.95-.95-1-.5-.5-29.5 4.4h-.1l-.4.3-36.2 2.15-47.1-21.75 18.2-39.85q25.75-11.55 51.55-23.05l4.05 1.5 19.2 7.1 2.15.8 30.75-24.55 49.35 5.6 9.8 31.55m-55.3-30.3-3.35-2.55-.05.05-5.2 4.5 4.4 4.4 1.65 1.7 7.8-4.1-5.25-4m-27.35 43.15.4.1-2.65-7.25-1.95-5.45-9-.8h-.1l-3.6 9.6-.05.1-.05.25-.1.15 1.1.25 10.55 6.75 5.45-3.7m-9.35-24.2-.05-2.05.05 2.05m-20.1-8.65.85-.5-.85.5M214.6 245l6.9 9.75 22.15 1.8 8-17.5-2.25-7.05.3-.65-6.45-9.8-.4-.6-23.15 4.75-6.35 19.05h.05l.3.05.9.2m87.05 10.8-20.3-4-22.6 4.9 22.6-4.9 20.3 4m14.1-32.85-35.2-13.05 35.2 13.05m-92.2 45.55 40.9 5.25-40.9-5.25" fill="#454530" fill-rule="evenodd" transform="translate(-183.25 -185.35)"/><path d="m318.9 299.55-7.5 8.85-10.55.8-1.65-30.4.95 1 18.75 19.75m26.85-97.8 6.05 8.15-16.4 6.2-.2-.2-.55-6.2-.05-.15 11.15-7.8m-34.8-3.15 4.2-6.4 5.25 4-7.8 4.1-1.65-1.7M259.2 202l8.45-4.85 9.25 4.55 1.5 7.4-19.2-7.1" fill="#851b1b" fill-rule="evenodd" transform="translate(-183.25 -185.35)"/><path d="m377.55 248.35 10.5 14.75-4.75 13.4-16.45-18.5 10.05-9.1.65-.55M335.2 215.9l-8.65-9.65 4.9-5.4 14.25.85.05.05-11.15 7.8.05.15.55 6.2m-18.05 24.75-1.6-1.25 3.2-4.55 12.6 5-.65 1.45-3.15 7.2-10.4-7.85m-6.2-42.05-4.4-4.4 5.2-4.5.05-.05 3.35 2.55-4.2 6.4m-25.4 29.6 2.65 7.25-.4-.1-16-3.05-1.1-.25.1-.15.05-.25.05-.1 5.4-2.45 9.25-.9M214.6 245l-.9-.2 8.85-7.55 14.8.8 4.2-8.75 1.7-7.75 6.45 9.8-.3.65-8.6 18.05-26.2-5.05m54.6 37.7 29.5-4.4.5.5 1.65 30.4-25.65 2-6-28.5" fill="#d12929" fill-rule="evenodd" transform="translate(-183.25 -185.35)"/><path d="m383.3 276.5-16.5 1.75-.6-.05-.3-19.35.95-.85 16.45 18.5m-112.4-44.95 3.6-9.6h.1l9 .8 1.95 5.45-9.25.9-5.4 2.45m-57.2 13.25-.3-.05h-.05l6.35-19.05 23.15-4.75.4.6-1.7 7.75-4.2 8.75-14.8-.8-8.85 7.55m55 38.2.4-.3h.1l6 28.5-22.8-14.1-1.2-.8 17.5-13.3" fill="#e88888" fill-rule="evenodd" transform="translate(-183.25 -185.35)"/><path d="m187.2 37.15 2.8 9.2 3.1 14.55 1.2 2.1 10.5 14.75-4.75 13.4-16.5 1.75-.6.25L139 110.3l-3.35 3.9-7.5 8.85.7-.05M162.5 16.4l6.05 8.15-16.4 6.2-.2-.2-8.65-9.65 4.9-5.4 14.25.85.05.05m-28.6 38.9-1.6-1.25 3.2-4.55 12.6 5-.65 1.45m-13.55-.65 10.4 7.85 3.15-7.2M194.3 63l-.65.55-10.05 9.1-.95.85.3 19.35.6.05m-.6-.05v.3M193.1 60.9l.55 2.65m-76.75 30.9 18.75 19.75m-40.5-90.45 2.15.8L128.05 0l49.35 5.6 9.8 31.55m-55.3-30.3-3.35-2.55-.05.05-5.2 4.5 4.4 4.4m4.2-6.4 5.25 4-7.8 4.1-1.65-1.7m-25.4 29.6 2.65 7.25-.4-.1m-16-3.05-1.1-.25.1-.15m.1-.35 3.6-9.6h.1l9 .8 1.95 5.45m-7.15-19.1.05 2.05m-19.25-9.15 8.45-4.85 9.25 4.55 1.5 7.4-19.2-7.1-.85.5M2.15 78.05l18.2-39.85Q46.1 26.65 71.9 15.15l4.05 1.5m-44.6 43-.9-.2m-.3-.05h-.05l6.35-19.05L59.6 35.6l.4.6 6.45 9.8-.3.65-8.6 18.05-26.2-5.05m54.1 38 .4-.3h.1l29.5-4.4.5.5.95 1m-48.95 16.5 17.5-13.3m-83.3-19.6L0 82.75l35.2 24.1 32.05 4.6.7-.5 1.2.8 22.8 14.1 25.65-2 10.55-.8M139 110.3l.7-.9M97.3 24.55l35.2 13.05m-43.95 9.35 16 3.05m-35.4 61.75-1.9-.3-.85.65" fill="none" stroke="#3f382c" stroke-linecap="round" stroke-linejoin="round" stroke-width=".05"/><path d="m165.15 37.3-1.8 16.15M75.5 71.35l22.6-4.9 20.3 4M81.2 88.4l-40.9-5.25" fill="none" stroke="#313122" stroke-linecap="round" stroke-linejoin="round" stroke-width=".05"/></g></defs></svg>