<svg viewBox="0 0 97.1 108.15" xmlns="http://www.w3.org/2000/svg" xmlns:xlink="http://www.w3.org/1999/xlink"><use transform="translate(0 -.4)" width="97.1" height="108.55" xlink:href="#a"/><defs><g id="a"><path d="M282.65 188.05q-.7.75-.7 1.75t.7 1.7q.75.75 1.75.75t1.7-.75q.75-.7.75-1.7t-.75-1.75q-.7-.7-1.7-.7t-1.75.7m-53 19q2.45-11.7 11.4-20.65 12.3-12.3 29.75-12.3 17.4 0 29.75 12.3 8.75 8.75 11.3 20.1-2.65-2.4-11.15-4.25l-8.05-1.35-.9-.15L271 199.6q-17.4 0-29.7 2.65-9.45 2.05-11.65 4.8" fill="#eeeef7" fill-rule="evenodd" transform="translate(-223 -155.45)"/><path d="M282.65 188.05q.75-.7 1.75-.7t1.7.7q.75.75.75 1.75t-.75 1.7q-.7.75-1.7.75t-1.75-.75q-.7-.7-.7-1.7t.7-1.75m9.1 12.7.9.15q1.3.25 2.3 1.25 1.45 1.45 1.45 3.5t-1.4 1.8q-1.45-.25-3.5.5l-3.45.25q-1.45-.5-1.45-2.55t1.4-3.5q1.45-1.4 3.5-1.4h.25" fill="#f8faf1" fill-rule="evenodd" transform="translate(-223 -155.45)"/><path d="M305.75 181.25q14.15 14.15 14.15 34.2t-14.15 34.2-34.2 14.15-34.2-14.15-14.15-34.2 14.15-34.2 34.2-14.15 34.2 14.15m6.1 25.25q-2.55-11.35-11.3-20.1-12.35-12.3-29.75-12.3-17.45 0-29.75 12.3-8.95 8.95-11.4 20.65-.7.8-.65 1.65-.05.5.2.95-.5 3.15-.45 6.5-.05 4.8.9 9.2l.05.15q2.45 11.55 11.35 20.4 3.4 3.4 7.2 5.9 9.9 6.4 22.55 6.45 17.4-.05 29.75-12.35 12.3-12.3 12.3-29.75 0-3.05-.35-5.95.5-.75.5-1.5 0-1.15-1.15-2.2" fill="#cccce5" fill-rule="evenodd" transform="translate(-223 -155.45)"/><path d="M311.85 206.5q1.15 1.05 1.15 2.2 0 .75-.5 1.5-2 2.8-11.8 4.9-12.35 2.7-29.7 2.7-17.4 0-29.7-2.7-10.75-2.3-12.1-5.45-.25-.45-.2-.95-.05-.85.65-1.65 2.2-2.75 11.65-4.8 12.3-2.65 29.7-2.65l20.75 1.15h-.25q-2.05 0-3.5 1.4-1.4 1.45-1.4 3.5t1.45 2.55l3.45-.25q2.05-.75 3.5-.5 1.4.25 1.4-1.8t-1.45-3.5q-1-1-2.3-1.25l8.05 1.35q8.5 1.85 11.15 4.25m-22.75 30.7q-1.95-1.95-1.95-4.75t1.95-4.75 4.75-1.95 4.75 1.95 1.95 4.75-1.95 4.75-4.75 1.95-4.75-1.95m-41-16.6q1 0 1.7.7.75.75.75 1.75t-.75 1.7q-.7.75-1.7.75t-1.75-.75q-.7-.7-.7-1.7t.7-1.75q.75-.7 1.75-.7m27.7 18.65q0-1.35.95-2.3t2.3-.95 2.3.95.95 2.3-.95 2.3-2.3.95-2.3-.95-.95-2.3" fill="#a995b9" fill-rule="evenodd" transform="translate(-223 -155.45)"/><path d="M312.5 210.2q.35 2.9.35 5.95 0 17.45-12.3 29.75-12.35 12.3-29.75 12.35-12.65-.05-22.55-6.45-3.8-2.5-7.2-5.9-8.9-8.85-11.35-20.4v-.15h-.05q-.95-4.4-.9-9.2-.05-3.35.45-6.5 1.35 3.15 12.1 5.45 12.3 2.7 29.7 2.7 17.35 0 29.7-2.7 9.8-2.1 11.8-4.9m-36.7 29.05q0 1.35.95 2.3t2.3.95 2.3-.95.95-2.3-.95-2.3-2.3-.95-2.3.95-.95 2.3m-27.7-18.65q-1 0-1.75.7-.7.75-.7 1.75t.7 1.7q.75.75 1.75.75t1.7-.75q.75-.7.75-1.7t-.75-1.75q-.7-.7-1.7-.7m41 16.6q1.95 1.95 4.75 1.95t4.75-1.95 1.95-4.75-1.95-4.75-4.75-1.95-4.75 1.95-1.95 4.75 1.95 4.75" fill="#9a83ad" fill-rule="evenodd" transform="translate(-223 -155.45)"/><path d="M6.65 51.6q2.45-11.7 11.4-20.65 12.3-12.3 29.75-12.3 17.4 0 29.75 12.3 8.75 8.75 11.3 20.1" fill="none" stroke="#6161af" stroke-linecap="round" stroke-linejoin="round" stroke-width=".8"/><path d="M82.75 25.8Q96.9 39.95 96.9 60T82.75 94.2t-34.2 14.15-34.2-14.15T.2 60t14.15-34.2 34.2-14.15 34.2 14.15" fill="none" stroke="#935902" stroke-linecap="round" stroke-linejoin="round" stroke-width=".4"/><path d="M312.5 210.2q.35 2.9.35 5.95 0 17.45-12.3 29.75-12.35 12.3-29.75 12.35-12.65-.05-22.55-6.45-3.8-2.5-7.2-5.9-8.9-8.85-11.35-20.4m-.05-.15q-.95-4.4-.9-9.2-.05-3.35.45-6.5" fill="none" stroke="#6161af" stroke-linecap="round" stroke-linejoin="round" transform="translate(-223 -155.45)"/><path d="m291.75 200.75.9.15" fill="none" stroke="#fedeaf" stroke-linecap="round" stroke-linejoin="round" transform="translate(-223 -155.45)"/><path d="m234 185-.05-.1q-.35-.6-.4-1.35-.1-2 2.1-4.95 1.15-1.6 2.7-3.1 2.6-2.5 6.25-4.85 4.8-3.15 9.1-4.4l1.75-.45q3.55-.75 5.35.1l.75.5.45.55.15.25q1.95 1.95 3.3 4.3l.9 1.65.5 1.1.4 1.1-.15 1.8h-.05l-1.9 3.5q-2.6 3.6-7.25 6.9l-1.65 1.05q-5.8 3.75-10.95 4.8-4.15.9-5.85-.4l-.15-.1-.55-.5q-1.9-1.75-3.2-3.95l-.75-1.45-.8-2q.9 1.35 3.15 1.45l2.05-.1-2.05.1q-2.25-.1-3.15-1.45m4.45-2.85-.75 1.3 1.5 2.9.25.25q1.15 3.45 3.2 4.8 7.9-1.9 14.45-6.5l.35-.25q4.45-2.85 6.75-7.5h.05l-3-5.15.05-.15-.05-.15q-.45-1.7-2.55-1.75-12.15 1.45-20.25 12.2m23.7-14.95q.9 1.75-.85 4.65 1.75-2.9.85-4.65" fill="#c1c1e1" fill-rule="evenodd" transform="translate(-223 -155.45)"/><path d="m239.2 186.35-1.5-2.9.75-1.3q8.1-10.75 20.25-12.2 2.1.05 2.55 1.75v.3l-.1.15-.65.9-.05.1-.15.2q-3.05 4.15-8.85 7.9-5.85 3.75-10.95 4.85l-.25.05-.95.15.95-.15.25-.05q5.1-1.1 10.95-4.85 5.8-3.75 8.85-7.9l.15-.2.05-.1.65-.9.1-.15 3 5.15h-.05q-2.3 4.65-6.75 7.5l-.35.25q-6.55 4.6-14.45 6.5-2.05-1.35-3.2-4.8l-.15-.3-.1.05" fill="#7373bb" fill-rule="evenodd" transform="translate(-223 -155.45)"/><path d="M15.45 26.7q8.1-10.75 20.25-12.2" fill="none" stroke="#d3e0a3" stroke-linecap="round" stroke-linejoin="round" stroke-width=".6"/><path d="m234 185-.05-.1q-.35-.6-.4-1.35-.1-2 2.1-4.95 1.15-1.6 2.7-3.1 2.6-2.5 6.25-4.85 4.8-3.15 9.1-4.4l1.75-.45q3.55-.75 5.35.1l.75.5.45.55.15.25" fill="none" stroke="#000" stroke-linecap="round" stroke-linejoin="round" stroke-opacity=".6" transform="translate(-223 -155.45)"/><path d="m38.25 16.55.05-.15" fill="none" stroke="#000" stroke-linecap="round" stroke-linejoin="round" stroke-width=".4"/><path d="M39.15 11.75q1.95 1.95 3.3 4.3l.9 1.65.5 1.1.4 1.1-.15 1.8m-.05 0-1.9 3.5q-2.6 3.6-7.25 6.9l-1.65 1.05q-5.8 3.75-10.95 4.8-4.15.9-5.85-.4l-.15-.1-.55-.5q-1.9-1.75-3.2-3.95l-.75-1.45-.8-2M38.3 16.4q1.75-2.9.85-4.65m-.9 4.8-.1.15-.65.9-.05.1-.15.2q-3.05 4.15-8.85 7.9-5.85 3.75-10.95 4.85l-.25.05-.95.15m-.1.05-2.05.1q-2.25-.1-3.15-1.45" fill="none" stroke="#7db8ba" stroke-linecap="round" stroke-linejoin="round" stroke-width=".8"/><path d="m255.6 157.6 3.85 13.05q0 1.25-1.1 2.8l-.6.75q-2.45 2.9-6.65 5.65t-7.65 3.8l-.25.05-.7.25q-2.35.55-3.3 0l-.4-.5-8-9 4.4-.5q4.45-1.3 9.8-4.85l4.25-3.05 5.35 5.5-1.85-8.85v-.05l.55-.65q2.35-2.8 2.3-4.4m-2.5 15.4q-.5-1.4-1.85-2.25t-2.85-.65q-1.4.15-2.05 1.2-.7 1.1-.2 2.45.5 1.4 1.85 2.25t2.85.65q1.45-.15 2.15-1.25.65-1.05.1-2.4" fill="#935926" fill-rule="evenodd" transform="translate(-223 -155.45)"/><path d="M230.8 174.45q-.75-.25-1.1-.75l-.2-.8q-.2-1.6 2.25-4.4l2.45-2.6.1.1q3.75-1.45 5.8-4.2l-.25-.2q.05-.1.2-.15l5.05-3 1.35-.65 3.4-1.25 4.9-.2.4.2.45 1.05q.05 1.6-2.3 4.4l-.55.65-8 .6 4.25 2.45.25.35-4.25 3.05q-5.35 3.55-9.8 4.85l-4.4.5m6.55-7.65q-.75.25-1.2 1.05-.5.75-.4 1.5.15.85.7 1.15l1.3.05q.75-.2 1.25-.95.45-.8.35-1.6t-.7-1.15l-1.3-.05m15.75 6.2q.55 1.35-.1 2.4-.7 1.1-2.15 1.25-1.5.2-2.85-.65t-1.85-2.25q-.5-1.35.2-2.45.65-1.05 2.05-1.2 1.5-.2 2.85.65t1.85 2.25" fill="#bb7331" fill-rule="evenodd" transform="translate(-223 -155.45)"/><path d="m249 165.7-4.25-2.45 8-.6v.05l1.85 8.85-5.35-5.5.1-.15-.35-.2" fill="#673f1b" fill-rule="evenodd" transform="translate(-223 -155.45)"/><path d="m237.35 166.8 1.3.05q.6.35.7 1.15t-.35 1.6q-.5.75-1.25.95l-1.3-.05q-.55-.3-.7-1.15-.1-.75.4-1.5.45-.8 1.2-1.05" fill="#d59760" fill-rule="evenodd" transform="translate(-223 -155.45)"/><path d="m234.2 165.9.1.1q3.75-1.45 5.8-4.2l-.25-.2m14.9-5.25.4.2m.45 1.05 3.85 13.05m-20.65 12.8-8-9m18.45-8.4-.25-.35-4.25-2.45 8-.6m2.85-5.05-.45-1.05m-15.95 27.4-.4-.5m10.55-17.55-.35-.2m.25.35 5.35 5.5-1.85-8.85" fill="none" stroke="#834201" stroke-linecap="round" stroke-linejoin="round" transform="translate(-223 -155.45)"/><path d="M230.8 174.45q-.75-.25-1.1-.75l-.2-.8q-.2-1.6 2.25-4.4l2.45-2.6m5.65-4.3q.05-.1.2-.15l5.05-3 1.35-.65 3.4-1.25 4.9-.2m.4.2.15.25.3.8m3.85 13.05q0 1.25-1.1 2.8l-.6.75q-2.45 2.9-6.65 5.65t-7.65 3.8l-.25.05-.7.25q-2.35.55-3.3 0l-.4-.45v-.05m-8-9 4.4-.5q4.45-1.3 9.8-4.85l4.25-3.05.1-.15m3.4-3.25.55-.65q2.35-2.8 2.3-4.4m-2.85 5.1v-.05" fill="none" stroke="#834201" stroke-linecap="round" stroke-linejoin="round" transform="translate(-223 -155.45)"/><path d="M238.25 221.85q5.85-1.6-1.1-6.9-5.85-2.95-6.4 1.3v.15q-.5 4.2.95 11.85 1.45 7.8 9.95 12.9 3.65 1.2 7.65 1.55 6.1.5 13-1 55.1-17.1 36-44.65h-.15q-11.4-15-20.2-6.8-8.85 8.15-13.75 16.75-4.95 8.55 12.4 7.15m-26.45-18.85 1.25 9.2m-5.95-6.55.85 6.35" fill="none" stroke="#333364" stroke-linecap="round" stroke-linejoin="round" transform="translate(-223 -155.45)"/><path d="M270.95 243.75q8.45 0 14.4 1.75 6 1.75 6 4.2t-6.05 1.6l-14.55-.9-14.3.9q-5.9.85-5.9-1.6t5.95-4.2q6-1.75 14.45-1.75" fill="#755b8a" fill-rule="evenodd" transform="translate(-223 -155.45)"/><path d="m318.55 219 .45.3q-15.25 56.2-85.3 30.45 63.6 11.65 84.85-30.75" fill="#fff" fill-opacity=".4" fill-rule="evenodd" transform="translate(-223 -155.45)"/><path d="M266.25 190.85q-1.45-10.25 4.7-15.85 6.1-5.6 16.2-3.35 10.05 2.4 18.25 11.3 8.1 8.95 9.55 19.15 1.35 10.25-3.35 12.65-4.8 2.4-11.85-6.7-7.1-9.15-19.6-8-12.55 1.05-13.9-9.2M257 178.35l4.85-5.8q1.7-2.35 2.75-1.15 1.1 1.2-.2 4.7-1.25 3.45-4.8 6.6-3.5 3.2-7.25 4.3l-4.85-.15q-1.05-1.2 2.65-3.1 3.65-1.9 6.85-5.4" fill="#fff" fill-opacity=".6" fill-rule="evenodd" transform="translate(-223 -155.45)"/><path d="M245.15 186.7q1.05.35 1.35 1.15.35.85-.25 1.8l-1.8 1.35-2.2.15q-1.15-.25-1.45-1.1-.35-.85.3-1.8.6-.9 1.8-1.35l2.25-.2" fill="#fff" fill-opacity=".8" fill-rule="evenodd" transform="translate(-223 -155.45)"/></g></defs></svg>