<svg width="10" height="14" viewBox="270.1 193 9.9 14" xmlns="http://www.w3.org/2000/svg" xmlns:xlink="http://www.w3.org/1999/xlink"><defs><g id="a"><path d="m274.7 199.75.85.35 2.9-.95.05-.05-.15 2.3-2.75.2q-.45.6-1.2.55l-.55.8-.05.8-.2 1.35h1.9l.45-.75 3.2-.65q-.7.45-1.6.75l-1 .15-.75.8.5 1.55q-1.75.05-4-1.25l-.7-1.65v-.4l1.45 1.55.3-4.05.5-.85.85-.55m5.15 2.85-.2 1.1h-.5l.5-.7.2-.4m-6.05 1.15.7-.95 1.45.6v.95q-1.8-.05-2.15-.6m-2.65-6.25 1.9 3.2-1.45 2.85-.45-6.05" fill="#567434"/><path d="m276.3 206.95-.5-1.55.75-.8.5 1.1h.9l-.4-1.25q.9-.3 1.6-.75l-3.2.65v-.95l-1.45-.6-.7.95.05-.8.55-.8q.75.05 1.2-.55l2.75-.2.15-2.3.6-.2-.1 1.5.2 1.25q-1.55.9-4.75.9l2.05.6 3.15-.15-.5.7-.05 1.9q-1.2 1.25-2.8 1.35" fill="#85b154"/><path d="m274.7 199.75-.85.55-.5.85-.3 4.05-1.45-1.55v-.1l1.45-2.85-1.9-3.2v-.05l.3-.05.85 1.25 2.4 1.1m1.25 4.6-.45.75h-1.9l.2-1.35q.35.55 2.15.6" fill="#3e5425"/><path d="m276.55 204.6 1-.15.4 1.25h-.9l-.5-1.1m2.65-2.95.65.95-.2.4-3.15.15-2.05-.6q3.2 0 4.75-.9m.45 2.05.05 1.1-.6.8.05-1.9h.5" fill="#a7c783"/><path d="m271.45 197.35.05-.3.2-1h-.05v.05-.05l-.05.05q-.05-.95-.4-.95-.6-.05-1.1.3l.65-.75q.65-.2 2.45 1.55-.55 1.3-1.75 1.1m.15-1.25h.05-.05" fill="#89a6c2"/><path d="M273.2 196.25q-1.8-1.75-2.45-1.55.45-.4.75-.3l1.7.5v1.35" fill="#e8f4f3"/><path d="M271.15 197.4v.05h-.05l.05-.05" fill="#ebebeb"/><path d="M271.6 203.55v.1l-.05-.05.05-.05" fill="#824306"/><path d="M271.6 203.65v.4l.7 1.65q2.25 1.3 4 1.25m2.8-8.05-.1 1.5.2 1.25.65.95-.2 1.1.05 1.1-.6.8q-1.2 1.25-2.8 1.35m-5.55-12.25-.65.75q.5-.35 1.1-.3.35 0 .4.95l.05-.05v.05-.05h.05l-.2 1-.05.3m-.7-2.65q.45-.4.75-.3l1.7.5m-1.6 1.2h.05-.05m-.15 1.3-.3.05v.05m.45 6.05v.1m0-.1-.45-6.05m0-.05v-.05m.5-1.35-.15 1 .15-.95" fill="none" stroke="#000" stroke-opacity=".424" stroke-width=".5"/><path d="M274.9 201.55q-.3.55-.7.3l-.5-.45-.25-.9-.1-.95.2-.65q.3-.55.7-.55t.65.55l.3 1.2-1.15.4q.05 1.2.85 1.05" fill="#836841"/><path d="M275.2 200.1v.1l-.3 1.3v.05q-.8.15-.85-1.05l1.15-.4" fill="#faf2e2"/><path d="M278.8 201.1q-.3.55-.7.3l-.5-.45-.25-.9-.1-.95.2-.65q.3-.55.7-.55t.65.55l.3 1.2-1.15.4q.05 1.2.85 1.05" fill="#836841"/><path d="M279.1 199.65v.1l-.3 1.3v.05q-.8.15-.85-1.05l1.15-.4" fill="#faf2e2"/><path d="M277.85 201.35q-.3.55-.7.3l-.5-.45-.25-.9-.1-.95.2-.65q.3-.55.7-.55t.65.55l.3 1.2-1.15.4q.05 1.2.85 1.05" fill="#836841"/><path d="M278.15 199.9v.1l-.3 1.3v.05q-.8.15-.85-1.05l1.15-.4" fill="#faf2e2"/><path d="M276.55 201.8q-.3.55-.7.3l-.5-.45-.25-.9-.1-.95.2-.65q.3-.55.7-.55t.65.55l.3 1.2-1.15.4q.05 1.2.85 1.05" fill="#836841"/><path d="M276.85 200.35v.1l-.3 1.3v.05q-.8.15-.85-1.05l1.15-.4" fill="#faf2e2"/><path d="M279.35 198.95v-.05h.05l-.05.05" fill="#89a6c2"/><path d="m279.45 198.85-.1.1.05-.05h-.05l-.25.1.3-.1.05-.05" fill="#38415d"/><path d="M279.4 198.85h.05l-.05.05v-.05.05-.05" fill="#768daf"/><path d="m279.35 198.95-.25.3q-1.65 1-3.55 1.2-2.1-.35-3.25-1.45l-1.2-1.75.05-.1q.1-.4.45-.7l.05-.05h.05l-.05-.05.6-1.4.4-1.25q.85 1.1 3.25.95.9.75.75 2 .85-1.05-.45-2.5 1.3.05 1.75.8l.8 3.25-3.35 1.2.1.15 2.95-.35.45-.15.2-.05.25-.1v.05" fill="#567434"/><path d="m272.65 193.7 1.7-.5 1.25.7q2.05-.35 2.9.65l.25 3.65q-3.7 1.5.65.65v.05l-.3.1-.2.05-.45.15-2.95.35-.1-.15 3.35-1.2-.8-3.25q-.45-.75-1.75-.8 1.3 1.45.45 2.5.15-1.25-.75-2-2.4.15-3.25-.95" fill="#85b154"/><path d="m274.35 193.2.6-.2h1.5l1.95.7.75 4.1q.85.2.25 1.05-4.35.85-.65-.65l-.25-3.65q-.85-1-2.9-.65l-1.25-.7" fill="#a7c783"/><path d="m274.35 193.2.6-.2h1.5l1.95.7.75 4.1q.85.2.25 1.05v.05l.05-.05m-.1.1-.25.3q-1.65 1-3.55 1.2-2.1-.35-3.25-1.45l-1.2-1.75.05-.1q.1-.4.45-.7m.65-1.5.4-1.25 1.7-.5m4.75 5.8-.2.05-.45.15m-2.95.35-.1-.15m3.95-.45.05-.05h-.05l-.25.1" fill="none" stroke="#000" stroke-opacity=".424" stroke-width=".5"/><path d="m273.7 197.95 2.7-.15-.2.35-.1.15q-.45.4-1.05.4-.65.05-1.05-.45h-.1l-.2-.3m0-.4.25-.7q.35-.45 1.1-.45.55.05 1.05.45v.05l.2.65h-2.6m2.75.05.05.05-.05.05v-.1" fill="#fee041"/><path d="m273.7 197.95.2.3h.1q.4.5 1.05.45.6 0 1.05-.4l.1-.15.2-.35-2.7.15m2.8-.3-.05.3v.2l-.4.85q-.45.4-1.05.4-.65-.05-1-.4l-.05-.05q-.4-.45-.45-1.05l.2-.35h2.6l.15.05v.1l.05-.05" fill="#aa7322"/><path d="m276.85 196.95.15-.7q.25-.55.75-.7.45-.1.9.3v.05l.25.65-2.05.4m2.15-.4v.05l.05.1-.05-.15m-2.1.85 2.05-.65-.1.45-.05.15-.8.65-.85-.25-.1-.05-.15-.3" fill="#fee041"/><path d="M278.9 196.55h.1l.05.15-.05-.1.05.3.05.25-.3.95-.75.6-.8-.25-.05-.05q-.35-.35-.4-1-.05-.2.05-.45l2.05-.4m-2 .85.15.3.1.05.85.25.8-.65.05-.15.1-.45-2.05.65" fill="#aa7322"/></g></defs><use xlink:href="#a"/></svg>