<svg version="1.1" id="Calque_1" xmlns="http://www.w3.org/2000/svg" x="0" y="0" viewBox="0 0 1649 1649" style="enable-background:new 0 0 1649 1649" xml:space="preserve"><style>.st1{fill:#a88f73}.st2{fill:#dcd5cb}.st3{fill:#d8c4b3}.st4{fill:#e0dad2}.st9{fill:#ab977e}.st16{fill:#a18b80}.st19{fill:#b09b8e}.st20{fill:#9c867b}.st21{fill:#9c867a}.st22{fill:#a88b71}.st23{fill:#8f6e50}.st25{fill:#bfa792}.st26{fill:#978176}.st27{fill:#a78b71}.st28{fill:#a69084}.st29{fill:#a6785f}.st30{fill:#927c72}.st31{fill:#673e2c}.st35{fill:#976649}.st36{fill:#9c857a}.st37{fill:#8d7667}.st43{fill:#c5a092}.st44{fill:#d4b4ac}.st45{fill:#a5836d}.st46{fill:#9f8878}.st50{fill:#9e7a61}.st54{fill:#a6846e}.st56{fill:#a78b70}.st61{fill:#887163}.st62{fill:#897163}.st63{fill:#917a6b}.st67{fill:#8d7668}.st75{fill:#80533b}.st76{fill:#ad9278}.st78{fill:#9c7f63}.st79{fill:#b8957e}.st83{fill:#9d7f63}.st84{fill:#ac9278}</style><path d="M441 292h2l14.1-59 30.8-123L501 57l99 13.3 50 6.7v181c4.6-11 1-30.1 1-42V87c0-3 1.1-8.8-1.6-11-4.7-3.9-15.6-2.5-21.4-3.3-17.2-2.5-34.9-4.1-52-7.2-18.8-3.3-38-5.8-57-7.7-4.5-.5-14.3-4.8-18.3-1.8-3.4 2.6-4.2 11.9-5.3 16l-10.8 43c-10.4 41.6-21.7 83.2-31.3 125-3.8 16.8-11.5 34.7-12.3 52z" style="fill:#bbad99"/><path class="st1" d="M501 57c-11.6 60.1-30 119.5-44.9 179-3.5 14-6.6 28.1-10.5 42-1.1 3.8-5 11.9.4 13l3.8-21 11.4-45L488 118l14-59 106 14.7 28 3.6 10.4 2.3L648 92v166h-7v1h10c-4.4-18.4-1-41.1-1-60V77L501 57z"/><path class="st2" d="M516 57v1h4l-4-1z"/><path class="st3" d="m502 59-14.6 60-26.3 105-16.1 66c25.3-5.9 49.2-17.3 75-22.8 42.3-8.9 85-9.2 128-9.2V92l-1-12.4-10-2.3-27-3.4L502 59z"/><path class="st4" d="M531 59v1h4l-4-1z"/><path d="M626 72v1h4l-4-1z" style="fill:#e1dad2"/><path d="M394 75v1h67l-21-1h-46m304 0v1h588c-13.1-5.5-36.7-1-51-1H698z" style="fill:#cbc0b2"/><path d="M1114 1507v31l33-6.7 90-19.7 40-8.6-22 86 41 5.4 62 7.6V739c0-53.3 3.6-107.9-.1-161-4.2-61.8-12.6-123.2-16.8-185-2.4-35-6.5-70-9-105-1.4-20.2-.4-44.6-6.1-64l-13.3 17-25.7 42h-1V76H697l-27.9 123-13.1 60 3.9-11 6.1-27 24.3-105 6.3-28 3.7-10 12.7-1h572v211h1l39-61 9.8 108 12.3 144 9.8 107v1014l-100-12 23-88-165 36v-31l-44 10.1-88 22.3-44 10.4-35-4.6-71-9-189-24-293-37L244 1460l23.8-78 5.3-105 12-216 35.8-628 9.3-180 16.8-47 29.4-80L394 77h66c-6.7 36.1-8.8 73.5-13.3 110-4.2 33.9-11.7 68.8-11.7 103h1l17.3-146 8.7-68h-50c-4.8 0-14.4-1.8-18.5 1-4.3 3-6.2 13.2-7.9 18-5.4 15.4-11.5 30.6-17.1 46-8.3 22.7-16.6 45.4-25 68-4.7 12.6-11.2 25.8-14.1 39-5.7 26.4-4.3 57-5.5 84-12.2 279.1-33.9 557.9-46.1 837-2 44.7-4.8 89.4-7.9 134-1.8 25.9-1.1 52.2-4.3 78-2.2 18.3-11.3 38.5-17.1 56-1.7 5.2-8 17.3-6 22.7 1.4 3.7 9.1 3.2 12.3 3.6 13 1.7 26 3.3 39 4.9 52.7 6.3 105.3 13.7 158 20 111.1 13.3 221.9 28.7 333 42 34.7 4.2 69.4 8.6 104 13.1 17 2.2 35.8 7.1 53 6.6 13.3-.4 29-7.2 42-10.4 42.9-10.6 86.6-26.6 130.2-32.5z" style="fill:#bbac99"/><path class="st1" d="M394 77c-11.6 42.6-30.8 84.6-46.2 126-5.7 15.2-14.7 32-17.4 48-4.9 28.1-2.5 58.6-4.4 87-6.2 89.9-8.8 180.1-15 270-12.4 180.5-18.5 361.5-30.8 542-3.7 53.9-5.3 108.1-9 162-1.6 22.7-.1 46.5-3.3 69-3.8 27-19.8 52-23.8 79l50 6.2 39 4.8v-1c-20.8-5.1-42.9-5.3-64-8.4-4.6-.7-18.4-.4-20.9-4.9-2.4-4.4 3.4-16.2 4.9-20.7 5.6-17.1 15.9-38.1 17-56 5.2-84.9 10.3-170 14-255 8.4-191.3 18.9-383 31.9-574 4.9-71.9 7.1-144.1 12-216 1.9-27.2-.1-56.1 4.4-83 2.3-14 10.3-28.7 15.2-42 10.1-27 19.7-54.1 29.8-81 6-15.9 14.7-33.2 17.6-50h63c-6 20.2-6.1 45-8.2 66-4.9 50.2-9.6 102.4-18.8 152 5.7-2.3 3.7-8.8 4.1-14 .9-12.7 2.6-25.4 4.3-38 7.7-55.9 13.5-112 20.6-168h-66m264 182 4.5-14 7.8-34 21.2-93 8.6-40h487c-8.8-3.7-23.4-1-33-1H730c-6.8 0-25-3.2-30.4 1-3 2.3-3.3 10.5-4.1 14-2.9 12.3-6.4 24.6-8.5 37-7.3 43.7-23.4 86-29 130z"/><path d="M1187 77v2h96v212c6.8-2 9.8-10.4 13.3-16 8.5-13.5 16.3-31.8 27.7-43l8.8 103 14.3 165 7.8 86v1012c-22.7-5.4-47.8-5.7-71-8.7-4.8-.6-21.6 0-23.2-5.4-1.5-5 2.7-13 3.9-17.8 4.1-15.3 7.7-30.8 12-46 1-3.5 7.1-18.4 3.7-20.9-2.5-1.8-8.7.7-11.4 1.3-9.9 2.4-20 4.3-30 6.5-40.3 8.9-81.2 21-122 27l-1-32-124 31.4-53 12.6-49-6.7-105-13-309-38.6-102-12.9-41-4.8v2c14.1.1 28 3.3 42 4.8 37.4 4 74.6 9.5 112 14 104.4 12.5 208.6 26.9 313 39.5 34.1 4.1 67.9 9.5 102 12.9 12.5 1.2 25.5 5.2 38 4.8 18.9-.6 39.8-9.3 58-14.1 39.1-10.3 78.5-21.7 118-29.9v32l67-14.6 97-21.4-23 88 100 12V698c0-37.5 1.6-75.5 0-113-5.2-119.6-26.8-238.4-32-358l-15.1 22-24.9 41h-1V77H1187z" style="fill:#9c8265"/><path class="st9" d="M1284 77v213h1V97l-1-20z"/><path d="M700 78v1h487c-11.2-4.7-30.8-1-43-1H700z" style="fill:#b49c83"/><path class="st3" d="M395 79c-11.6 43.4-31.6 85.6-46.7 128-5 14.1-13.5 29.2-16 44-3.5 21.1-2 43.7-3.4 65-3.5 50.9-4.5 102.1-8 153-15 218.5-22 437.5-37 656-5.8 84.8-5.9 170.5-14 255-1.8 19-12.2 39.7-17.9 58-1.3 4.1-7.4 16.6-3.4 20 3.6 3.1 12.8 2.5 17.4 3.3 15.9 2.6 32 4 48 5.9 7.5.9 15.5 2.8 23 1.5 20.4-3.6 42-16.3 61-24.2 59.1-24.8 115.3-54.6 172-84.4v-1H400c-8.8-69.5-12.2-141-25-210 47 8.7 95.7 9.6 143 16.2 58.4 8.1 117.3 14.7 176 21 26.1 2.8 52 5.9 78 9.1 8.5 1 25.1 6.2 33 2.7 8.6-3.9 16.9-13.6 24-19.8 15.4-13.6 31.3-26.8 46-41.2 6.1-5.9 18.4-13.2 21.4-21.3 1.3-3.5-1.1-8.2-1.7-11.7-1.8-9.6-1.5-25.3-6.3-33.7-1.9-3.3-7.1-2.3-10.3-2.3-6.6 0-20.3 2.6-25.8-1.6-4.5-3.5-6.2-12.3-8.2-17.4-6.1-15.4-11.1-31-15.1-47-4-16.2-7.9-32.4-9.7-49-2.4-22.6-3.5-45.2-13.9-66-6.8-13.5-18.7-30.4-33.2-36.4-7.2-3-15.4 12.6-19.1 17.4-15.8 20.5-31.5 41.2-45.4 63-19.3 30.1-37.2 60.7-50.4 94-3.8 9.6-7 19.8-8.6 30-.7 4.2.5 10.2-3 13.4-2.7 2.6-8 2.7-11.5 3.4-9.7 1.9-19.3 3.5-29 5.4-45.6 8.7-97.6 7.8-142-6.7-12.7-4.2-25.4-9.3-37-15.9-3.4-2-10.1-4.6-11.4-8.7-1.2-4.1.6-10.7 1.1-14.9l4-34c3.8-31.9 7.4-64 10.5-96 1.2-12.5 5.1-26.7 2.8-39 5.2 2.8 6.2 9 8.8 14 4.3 8.3 9.9 16.1 16.4 23 20.1 21.2 51.5 32.2 79.8 36 13.7-29.3 37.5-57.4 59.4-80.9 8.4-9 19.5-16 26.6-26.1-30.1-2.4-62.5-17.2-88-32.6-6-3.6-23-12-24.3-19.4-1-5.8 8.4-15.7 11.7-20 14.7-18.9 32.8-34.6 52.6-48-8-18.9-29.5-33.5-35.6-53-1.5-4.8 4.7-9.3 7-13 3.6-5.8 4.5-13.3 3.2-20-2.4-11.9-13.5-20.8-21.6-29-14.2-14.4-27.5-29.8-42-44-25.8-25.1-52.7-49.5-81-71.8-7.6-6-15.2-12-23-17.8-2.9-2.2-8.1-4.7-9.2-8.5-2.4-8.6 3.8-24.1 5.3-32.9 3.7-22.1 8.5-44 12.5-66 1.8-9.9 1.6-25 6.6-33.8 6.2-10.8 29.5-12 33.2-23.3 5.6-17 4.7-39.1 6.9-56.9 3.7-30.7 8.5-61.3 11.5-92 2.2-21.9 3.1-45.6 8.2-67H395m305-.1c-7.9 38.1-16.5 76.2-25.7 114-5.1 20.8-13.8 44.6-14.3 66 17.9 0 47.7-.3 63 9.5 30.4 19.6 38.1 62 52 92.5 10.2 22.4 28.1 42.3 45 60 8 8.4 16.6 16 25 24 2.5 2.4 6.8 8.6 10.8 8 6.2-.8 15.7-13.6 21.2-17.3 23.6-15.9 51.1-17.2 70.7 6.3 6.4 7.7 9.8 17.2 11 27 .6 4.3-1.1 10.8 1.3 14.6 2 3.2 7 5 10 7.3 6.3 4.8 12.3 10.7 17 17.1 22.8 31.1 28.1 72 20.6 109-3.5 17.1-10 34.1-19 49-3.7 6.1-13.6 13.5-15.2 20-1.4 5.6 7.5 12.4 6.4 20-.8 5.9-7.7 13.2-6.8 18.9 1.1 6.4 18.1 15.5 23 19.7 17.1 14.4 34.1 32.4 46 51.4h2c24.1-93.2 49.9-185.8 69.7-280 7.6-36.2 20.7-74.9 22.3-112l-36 12v-1c8.7-2 30.4-6.5 36.1-13.5 2.5-3.1 2.5-8.7 3.4-12.5 1.7-6.7 2.7-10.2-1.5-16l4 2c1.2-6.1 5.3-16.5 2-22 5-3.6 3.9-11.4 5.2-17 3.7-16.2 5.3-32.7 8.6-49 13.6-68.5 20.5-138.8 29.2-208H700z"/><path d="m1187 79-17.4 132-14.3 92-8.2 48 17-9v1c-16.4 7.1-19.8 15-22 32l-4-2 14 13-10-8-5 24 22-7v1c-6 1.4-18.1 3.6-22 8.6-2.4 3-2.3 8.7-3.1 12.4-2.3 10.6-4.2 21.3-6.1 32-7.7 41.5-16.9 83-26.9 124-13.5 55.8-28.2 111.3-41.9 167-3.4 13.7-7.5 27.4-11.4 41-1.3 4.7-4.8 12.2-2.9 17 4.4 11.5 15.9 23.6 22.9 34 1.9 2.8 4.8 9.5 8.6 9.9 4.4.4 9.7-5.3 13.9-6.8 11.2-3.9 26.7 1.8 32.9 11.9 16.8 27.4 21.9 66.6 24.9 98 1.1 11.9-4.6 33.3 1.2 43.8 2.6 4.7 8.9 7.9 13 11.2 9.3 7.4 18.7 14.8 28 22.2 5.3 4.2 14.2 9.8 13.5 17.8-.6 7.2-9.7 9.7-15.5 10.7-16.4 2.6-35.3-3.6-52-3.7-3.2 15.7-8.4 40.9-23 49.8-16.7 10.1-34 2.1-51-1.9-25.6-6.1-51.2-11.8-77-16.6-12.5-2.3-25.6-2.4-38-5.3-5.4 16.6-10.3 33.4-15.7 50-2.3 7.1-3.5 15.9-8 22-6 8.1-14.9 3.9-19.9-3-4.2-5.7-5.1-18-5.4-25-10.3 2.9-20.2 16.7-28 23.9-14.7 13.7-29.9 26.7-45 39.9-6.7 5.8-14.7 11-20 18.2l144 16.2 166 19.8v124H628c-17.7 0-38.7-3.2-56-.1-15.5 2.8-32.9 17.8-47 24.8-44.6 22.3-89.1 44.1-135 63.7-17.3 7.4-40.1 21.2-59 21.6v1c14.1 0 28 3.3 42 4.8 34.1 3.7 68 8.7 102 12.9 103.1 12.7 205.9 25.7 309 38.6 35 4.3 70 8.9 105 13 16.6 2 34.3 7.3 51 6.7 21.9-.9 46.9-10.7 68-16.5 35.8-9.9 72.1-18.1 108-27.4l1 32c13.3-1.2 26.9-6 40-8.8 26-5.5 52.2-10.7 78-16.9 10.6-2.6 21.4-4.4 32-7 3.2-.8 9.5-3.6 12.6-1.9 4 2.1-2.2 17.2-3.2 20.7-4.2 15.3-7.7 30.8-12 46-1.3 4.7-5.9 13.9-3.8 18.7 2 4.6 18.8 4.1 23.4 4.7 23.5 3.2 47.7 4.2 71 8.6V585l-7.8-86-14.3-165-8.8-102-10.1 14-18.9 30-12.1 15V79h-96z" style="fill:#c2ac97"/><path d="M459 93v4h1l-1-4z" style="fill:#e1dbd2"/><path class="st2" d="M458 101v4h1l-1-4m-1 8v4h1l-1-4z"/><path class="st4" d="M455 126v4h1l-1-4z"/><path class="st2" d="M454 134v4h1l-1-4z"/><path d="m849 135-7.8 39-1.1 13.4 10.9 3.8 32 5.8v-1l-42-8 5.7-34 2.3-19z" style="fill:#b09a8d"/><path class="st2" d="M453 142v4h1l-1-4z"/><path d="M449 175v4h1l-1-4z" style="fill:#ddd6cc"/><path d="M881 197v3h1l1-3h-2z" style="fill:#8d776c"/><path class="st16" d="m880 200-3 9h1l2-9z"/><path class="st4" d="M445 208v4h1l-1-4z"/><path class="st16" d="m876 209-3 9h1l2-9m-4 9-3 9h1l2-9z"/><path d="m868 227-3 9h1l2-9z" style="fill:#a08a7f"/><path d="m1001 238 5-4-5 4z" style="fill:#b59f92"/><path class="st16" d="m864 236-3 9h1l2-9z"/><path class="st19" d="m990 249 6 3-4-4v-1l5-5-7 7z"/><path class="st16" d="m860 245-2 5 2-2 20 10v-1l-20-12z"/><path class="st4" d="M440 249v4h1l-1-4z"/><path class="st20" d="m996 252 5 4-5-4z"/><path class="st21" d="m1001 256 4 3-4-3z"/><path class="st22" d="M591 258v1h12l-12-1z"/><path class="st23" d="M603 258v1h38c-10-4.2-27.1-1-38-1z"/><path class="st20" d="M880 258v1l6 3-6-4z"/><path d="M576 708c-20.7 9.8-39.7 30.1-53.3 48-3.2 4.2-13.4 15.2-11.4 21 2.7 7.6 18.1 15.1 24.7 19 25.1 15.1 58.3 30.5 88 32-23.9 23.9-46 46.4-65.7 74-7.1 9.9-16.6 21.2-20.3 33-28.3-5.8-55.2-14-77-34.2-7.5-7-13.9-15.8-18.7-24.8-2.6-4.8-3.7-12.2-9.3-14 5.2 30.5 35.5 53.2 62 64.6 8.9 3.8 18.5 7.2 28 9 3.2.6 9.1 0 10.6 3.7 3 7.1-6.5 22.2-7.6 29.7 5.9-1.9 6.9-11.6 8.7-17 4.2-12.6 9.5-28.5 20.3-37 5.3 22.9 20.3 45.4 35.4 63 5.6 6.6 12.7 15.3 20.6 19l7-12v-1c-5.4-5.9-8.2-15.6-11.2-23-7.7-19.1-13.5-38.9-17.8-59-1.7-8-5.3-21-3.2-29 1.2-4.6 6.1-8.7 9.2-12 9-9.7 23.2-28.2 36-32.2 9.6-3 22.9-1.8 33-1.8 22.3 0 44.3 1 66 6.8 12 3.2 23.1 9 35 12.2-8.7 17.1-24.5 32.4-35.8 48-22.2 30.4-43 62.3-59.9 96-8.1 16.1-16.1 32.5-20.6 50-1.6 6.3-1.3 20.8-6.1 25.3-8.4 7.7-31.6 7.7-42.5 9-34.9 4.2-68.1 6.4-103 .6-10.7-1.8-27.6-2.5-36-9.9-17.3 1.5-31.9-16.9-48-20 2.8 5.5 9.7 8.4 15 11.2 12.8 6.7 26.1 12 40 15.8 60.2 16.4 118.9 7.2 179-3 .1-34 20.3-69.3 36.6-98 18.4-32.4 39.7-63.4 62.3-93 5.4-7 10.8-14.1 16.3-21 1.9-2.4 4.3-6.5 7.8-6.3 4.8.2 10.7 6.4 14 9.4 11.2 10.4 19.7 22.6 25.2 36.9 8.1 20.9 7.9 43.2 11.1 65 5 33.7 13.8 70.2 28.8 100.9 5.8 11.8 31.6-2.9 38.7 7.4 2.9 4.1 2.8 11.8 3.8 16.7 2.7 13.3 4.8 26.7 7.6 40 1.9 8.8 2.1 18.1 11.8 22 7.6 3.1 12.8-2.3 15.3-9 6-16.3 10.5-33.4 15.7-50 1.3-4.2 2.4-14.6 7.3-16.2 10.1-3.3 30.5 3.8 40.8 5.9 25.7 5.3 51.7 9.5 77 16.7 14.7 4.2 34.1 9.1 48-.3 12.7-8.6 19-34.6 21-49.2 16.4 0 32.6 3 49 3 6 0 14.3-.1 17.7-6.1 4.3-7.6-3.4-15-8.7-19.3-13.8-11.2-33.7-21.8-44.6-35.8-2.7-3.5-1.4-8.7-1.4-12.8 0-10.3.6-20.8-.1-31-1.7-24.2-7-47.8-14.2-71-2.9-9.3-5.8-22.3-12.1-29.8-7.2-8.5-20.9-12.5-31.6-9.4-4.2 1.2-11.5 8.4-15.6 5.6-8.5-5.8-14.9-21.9-20.7-30.4-12.8-18.8-27.6-36.9-43.7-53-7.6-7.6-15.5-14.9-24-21.5-3.5-2.7-10.1-5.6-12-9.7-2.4-5.1 5.6-15 6-20.8.3-6.3-7-14.4-5.8-19 1.7-6.5 11.3-13.8 14.9-20 9.2-15.6 15.6-33.2 18.9-51 6.9-36.6 1.1-78.8-21.8-109-4.5-5.9-10.2-11.4-16.3-15.8-3.1-2.3-8.9-4.1-10.9-7.5-2.5-4.3-.7-13.6-1.2-18.6-.9-8.8-5.2-17.4-11-24-18.5-20.8-44.5-19.5-66.8-6.7-6.9 3.9-13.3 9.2-18.9 14.7-2.4 2.4-4.5 5.7-8.1 3.5-9.1-5.5-17.5-16-25-23.5-20.3-20.3-42.2-43.3-53.8-70-12.8-29.3-21.2-70.8-50.2-89.5-9.5-6.1-21.2-5.5-32-6.8-25.6-3.1-51.3-2.7-77-2.7-55.9 0-110.9 7.3-163 28.6-15.7 6.4-42.5 15.3-53.3 29-3.6 4.6-3 13.9-4.5 19.5-5.2 20.1-8 41.5-11.4 62-1.7 10.2-3.4 21-5.9 31-1.5 5.9-4.7 15.9-3.6 21.9.8 3.9 5.7 6.3 8.6 8.5 7.4 5.6 14.7 11.3 22 17 28.1 21.9 54 46.4 80 70.7 14.8 13.8 28.3 29.1 42.1 43.9 8.2 8.8 18.5 16.6 23.3 28 3.2 7.6 2.5 15-1.9 22-2.4 3.7-8.4 8.2-7.8 13 .7 5.6 6.9 11.5 10 16 8.6 12.6 18.1 24.8 26.2 37.9z" style="fill:#785331"/><path class="st25" d="M664 259v1h8l-8-1z"/><path class="st26" d="m1005 259 5 4-5-4z"/><path class="st27" d="M564 260v1h6l-6-1z"/><path class="st22" d="M676 260v1h6l-6-1m-129 2v1h4l-4-1z"/><path class="st28" d="M885 263c-11 13.6-27.7 28.1-35 44l27.1-31 7.9-13z"/><path class="st26" d="m1010 263 5 4-5-4z"/><path class="st2" d="M438 265v4h1l-1-4z"/><path class="st22" d="M523 266v1h3l-3-1z"/><path class="st27" d="M518 267v1h3l-3-1z"/><path class="st16" d="m1015 267 5 4-5-4z"/><path class="st20" d="m1020 271 5 4-5-4z"/><path class="st22" d="m493.7 273.3.7.3-.7-.3z"/><path class="st20" d="m1025 275 5 4-5-4z"/><path class="st26" d="m1030 279 5 5-5-5z"/><path class="st29" d="M667 460c4.4-6.5 12-22.1 20-24.2 8.9-2.3 25.2 8.2 33 12 29.9 14.6 58.5 31.6 87 48.7 8 4.8 20.7 16.4 30 17.5 6.1.7 14.7-10.2 19-13.8 15.7-13.1 31.7-27.2 50-36.8 14.4-7.6 15.7 1.8 14 13.7l36 5c0-10.6-.5-21.3-5.4-31-12-24.1-40.2-29.4-62.6-18.2-9.4 4.7-17.5 10.9-25 18.2-2.8 2.7-5.8 6.6-10 4.3-9.5-5.3-18.3-16.6-26-24.3-21.5-21.5-43.5-44.9-56.2-73-7.1-15.7-11.7-32.4-19.5-48-2.6-5.1-5.3-12.6-9.8-16.4-4.4-3.7-13.9-4.4-19.5-5.7-28.3-6.4-61-10.2-89-.9-6.1 2-25.8 9-25.8 17 0 5.5 11.1 14.5 14.4 19 9.6 13.4 16.2 29.2 20.7 45 3.2 11.2 6.8 23.3 7.5 35 .2 3.8-1.7 7.2-1.8 11-.3 14.3 4.7 39.1 19 45.9z"/><path class="st30" d="m1031.7 284.3.7.3-.7-.3z"/><path class="st28" d="M1020 290v1l11-5-11 4z"/><path class="st31" d="M535 595c9.6-16.6 15.7-36.1 22.4-54 20-53 31.4-107.3 40.5-163 2.9-17.8 5.1-37 5.1-55 0-6.1 1.7-14.4-3.1-19-12.3-11.5-30.7-15.6-46.9-17.2-37.4-3.6-73.6 9.7-108 22.7-10.7 4.1-21.3 8.4-32 12.6-4.1 1.6-10.4 2.9-13.4 6.3-5.1 5.7-5.2 22-6.6 29.5-3.9 20.2-6.7 40.8-10.8 61-1.8 8.6-6.7 21.2-5.6 30 .6 4.8 7 7.7 10.4 10.3 10.8 8.3 21.6 16.6 32 25.4 26.6 22.3 52.5 45.8 77 70.4 12.8 12.8 24.3 29.6 39 40z"/><path class="st4" d="m435 290 2 5-2-5z"/><path d="m1018.7 291.3.7.3-.7-.3z" style="fill:#927b71"/><path class="st20" d="M1005 298v1l13-6-13 5z"/><path d="M994 304v1l11-5-11 4z" style="fill:#ab9588"/><path d="m992.7 305.3.7.3-.7-.3z" style="fill:#927c71"/><path class="st26" d="m980 313 12-6c-4.3-.7-9.7 2.4-12 6z"/><path class="st35" d="M604 308c-2.9 67.6-14.9 134.4-35 199-9 29-23.7 56.2-32.6 85-2.1 6.7 8.4 13.8 11.8 19 9.8 14.6 7.4 29.7-6.3 41l9 15h2c13.5-21.5 38-37.4 61-47-15.7 15.7-29.7 31.1-38 52-2.3 5.7-6.6 13.8-5.7 20 1 6.4 7.2 11.2 9.7 17-20.2 7.8-40.9 30.1-53.6 47-3.2 4.3-12.1 13.2-11.4 19 .8 5.9 12.4 11.7 17 14.7 17.4 11.4 40.1 24.3 61 27.3v-1c-13.4-9.1-31.9-26.5-27.7-45 1.4-6.2 8-11.8 12.7-15.7 13.5-11.2 31.4-18.9 48-24 5.3-1.6 12.4-5.7 18-5.4 5.2.2 7.3 8.4 9.4 12.2 4.9 8.9 12.2 16.6 20.7 22.1 24 15.6 50.8 14 78 12.9v-1c-22.1-1-44.3-21.3-59-36-45.2-45.2-65.1-117.4-58-180 2.6-23.1 9.5-58.5 27.1-74.9 4.1-3.9 11.4-11.4 17-12.6 6.3-1.4 18.1 12 23 15.7 18.7 13.8 40.1 27.2 62 35.2 29.1 10.6 67.8-6.6 83 28.7 20.4-9.1 40.4-31.6 55-48 6.1-6.9 12.1-21.7 22-22v-1h-4c2.6-11.3 1.1-21.2-13-14.7-18.4 8.5-34.5 23.2-50 36.1-4.6 3.8-13.7 15.2-20 14.8-9-.7-22.2-12.7-30-17.4-28.1-16.9-56.5-33.7-86-48.1-8.6-4.2-24.1-14.1-34-12.3-7.9 1.4-16.9 17.9-20 24.6-11.2-8.1-16.8-23.7-18.1-37-.5-4.9-2.1-9.8 1.1-14v-1c-7-4.5-6.9-26-9-34-6.2-23.2-16.9-52-37.1-66.2z"/><path class="st16" d="m982 313 9 7-9-7z"/><path class="st21" d="m991 320 4 3-4-3z"/><path class="st16" d="m995 323 9 7-9-7z"/><path class="st2" d="M1335 325v4h1l-1-4z"/><path class="st27" d="M395 328v3h1l-1-3z"/><path class="st28" d="m1003 333 3-3-3 3z"/><path class="st36" d="M996 336v1l7-3-7 2z"/><path class="st37" d="m1172 336-8 5v1c2.8-.8 8.6-2.6 8-6z"/><path class="st20" d="M989 340v1l7-3-7 2z"/><path class="st26" d="M982 344v1l7-3-7 2z"/><path d="M1144 353v1l20-11c-6.2-1-15 6.7-20 10z" style="fill:#846d5f"/><path d="M970 351v1l12-6-12 5z" style="fill:#9b857a"/><path class="st20" d="M963 355v1l7-3-7 2z"/><path class="st26" d="m1128 365 16-10c-4.9-.8-15 5.1-16 10z"/><path class="st20" d="M956 359v1l7-3-7 2z"/><path class="st21" d="M942 367v1l14-7-14 6z"/><path class="st19" d="M1129 363c1.4 4.8 4.5 7.9 9 10l-9-10z"/><path class="st36" d="M937 370v1l5-2-5 1z"/><path class="st20" d="M923 378v1l14-7-14 6z"/><path d="m1141 376 11 10-11-10z" style="fill:#9a8374"/><path class="st19" d="m919 382 4-2-4 2z"/><path class="st22" d="M385 382v3h1l-1-3z"/><path d="M1341 393v4h1l-1-4z" style="fill:#ddd5cb"/><path class="st30" d="M1100 415v1l59-20-17 4-42 15z"/><path class="st26" d="M1095 417v1l5-1h-5z"/><path class="st30" d="m1091 418 2 3v-3h-2z"/><path class="st16" d="m1093 421 3 7h1l-4-7z"/><path class="st22" d="M907 422v1h5l-5-1z"/><path class="st27" d="M903 423v1h3l-3-1z"/><path class="st21" d="m1097 428 3 7h1l-4-7z"/><path class="st20" d="m1101 435 3 7h1l-4-7m4 7 9 19-25 5v1l27-6-11-19z"/><path class="st27" d="M958 467v8h1l-1-8z"/><path d="m1033 481 56-13c-10.4-4.1-32.2 5.9-43 8.3-4.3 1-10.1 1.2-13 4.7z" style="fill:#ab9589"/><path class="st43" d="M826 746c-10.5-3.1-21.5-3.5-32-7.4-32.8-12.4-61.1-38.8-76-70.6-38 21.8-48.9-68.1-10-69-5.9-24.1-8.4-49.4-11.2-74-1.5-13.4-5-29.7-1.8-43-3.9-3-9-9.3-14-10.2-6-1.1-17.2 10-20.7 14.2-14.6 17.5-19 49.1-22.6 71-10.6 65.4 18.5 145.4 68.2 188.1 32.3 27.7 89.7 38.6 120.1.9z"/><path class="st2" d="M1348 472v4h1l-1-4z"/><path class="st22" d="M958 478v6h1l-1-6z"/><path class="st43" d="M976 677c-29.1 6.7-67.8 8.9-81-26-9.9 5.9-16.1.1-19.9-10-4.9-12.8-5.9-40.3 10.9-45v-1h-3c0-31 6.8-56 22.4-83 6.3-10.9 16.5-20.6 21.6-32-12.9.6-22.6 21.2-31 30-9.9 10.4-20.8 20-32 29-4.1 3.3-12.7 7.7-14.3 13-1.8 6.1 4.4 18 6.3 24 4.9 15.9 8.3 33.4 9 50 .4 9.9 1.1 21.2-.4 31-1.3 8.1-5.1 18.7.2 26 24.4 34.3 90.9 33.1 111.2-6z"/><path class="st44" d="M883 595c21.1.2 23.1 27.6 18.6 43-1.3 4.5-5.9 9.5-6 14-.1 4 3.9 8.1 6.3 11 7.9 9.4 19.7 16.9 32.1 18.7 12.1 1.8 33.7 1.8 43.8-6.2 11.8-9.4 18-28.7 22.2-42.5 12.1-39.3 10.5-83.5-12.1-119-10.3-16.2-25.7-28.7-44.9-32.1-4-.7-10.8-2.7-14.7-1.3-7.7 2.9-15.6 18.6-19.9 25.4-6.5 10.5-12.4 21.5-17 33-7.4 18.5-8.4 36.3-8.4 56z"/><path class="st45" d="M932 480v1h3l-3-1z"/><path class="st30" d="M1026 481v1l7-1h-7z"/><path class="st44" d="M694 483c0 24.3 3.2 48 6.7 72 1.9 13 2 28.5 6.5 40.9 1.5 4 6.7 4.8 9.8 7.4 5.4 4.6 8.9 11.1 11 17.8 3.3 10.9 2.4 22.4-1.5 33-1.7 4.7-8.5 11-7.6 16 1.5 8.8 11.2 19.2 16.5 26 23.9 30.9 54.7 43.1 91.7 50 7.5-9.9 16.8-19.4 21.6-31 16.3-38.8 16.3-86.6 7.6-127-3.6-16.9-8.7-42-22.2-53.8-14.6-12.7-40.2-3.7-58-8.4-20.4-5.3-39.2-16.2-57-27.3-8.1-5-16.1-12.6-25.1-15.6z"/><path class="st46" d="M1196 533v1c27.1 0 59.7-2.7 86-9-7.4-3.1-20.1.5-28 1.6-19.3 2.5-38.7 4-58 6.4z"/><path d="M803 527v1h17l-17-1z" style="fill:#bc9b8c"/><path d="m1179 535 8 47-82-18c3.9 5.1 15.9 5.2 22 6.4 19.8 4 40.8 11.7 61 12.6l-7-47 13-1h-15z" style="fill:#9f8877"/><path class="st45" d="M1006 564v6h1l-1-6z"/><path d="M1009 564v6h1l-1-6z" style="fill:#a18369"/><path class="st50" d="M636 572v16h1l-1-16z"/><path class="st27" d="M1010 573v8h1l-1-8z"/><path class="st2" d="M1358 586v1015h1V613l-1-27z"/><path class="st27" d="M1010 590v9h1l-1-9z"/><path d="M886 595.5c-17.3 3.2-15.6 33.5-11.3 45.5 2.3 6.6 7 14.7 15.3 12.7 15.8-3.9 15.3-34 11.1-45.7-2.2-6.4-7.3-14-15.1-12.5m-185 4.2c-20.4 6.9-19.9 41.6-13.1 57.3 4.3 9.9 13.6 18.5 25.1 14.1 19-7.2 19.9-41.8 12.7-57.1-4.4-9.4-13.5-18.1-24.7-14.3z" style="fill:#834436"/><path d="M860 612v6h1l-1-6z" style="fill:#aa8975"/><path d="M863 612v6h1l-1-6z" style="fill:#9a755b"/><path class="st54" d="M1004 615v3h1l-1-3z"/><path d="M903 618v14h1l-1-14z" style="fill:#aa7b70"/><path class="st31" d="M570 692c4.6-31.1 27.2-48.2 44-72-18 5.2-35 18-48 31-4 4-12.2 10-13 16-.9 6.7 12.1 21 17 25z"/><path class="st56" d="m1006.3 620.7.3.7-.3-.7z"/><path class="st22" d="M551 625v6h1l-1-6z"/><path d="M729 627v16h1l-1-16z" style="fill:#965f52"/><path class="st54" d="M861 645v10h1l-1-10z"/><path class="st50" d="M864 651v7h1l-1-7z"/><path d="M885 654v1h5l-5-1z" style="fill:#a37263"/><path d="M1088 659c5.6 7.3 16.5 15.4 25 19-5.6-7.3-16.5-15.4-25-19z" style="fill:#907a6b"/><path d="M703 672v1h7l-7-1z" style="fill:#a37163"/><path class="st61" d="m1113 678 4 3-4-3z"/><path class="st62" d="m1117 681 4 3-4-3z"/><path class="st35" d="M860 683c-2 6.9-9.8 23-6.6 29.7 3.5 7.3 16.4 11.9 23.6 14.3 24.7 8.4 61.1 4.2 73-23-6.3 1.1-11.7 5-18 5.8-26.6 3.3-54-4-70-26.8h-2z"/><path class="st62" d="m1121 684 4 3-4-3z"/><path class="st63" d="M1172 689h7c-2.2-3.8-4.3-3.1-7 0z"/><path class="st61" d="m1125 687 4 3-4-3z"/><path d="m1162 697 10-8-10 8z" style="fill:#8c7667"/><path d="m1179 689 13 17-13-17z" style="fill:#90796b"/><path class="st29" d="M852 714c-11.5 24.5-35.5 51.6-63 57.5-12.7 2.7-27 .7-40 1.6-22.5 1.5-45.2 2-66-8.4-10.9-5.5-20.4-13.6-27.3-23.7-2.7-4-5.5-14.7-10.9-15.5-4.8-.7-11.4 3-15.9 4.5-14.9 4.9-29.6 10.6-43 19.1-7.3 4.6-16.5 10.7-20.1 18.9-3.4 7.8.3 18 3.9 25 10 19.8 35.8 33.9 58.2 32.8 16-.8 31.9-1.8 48-1.8 7.2 0 17.1 2.2 24 .4 17.5-4.7 34-16.9 51-23.5 47-18.3 96.8-34.4 147-40.8v1c-39.2 5.3-82.1 26-113 50.2-10.3 8.1-22 16.6-29 27.8 23.7 13 48 29.3 56 57h1c1.8-14.5 4.6-29.1 9-43 11.6-36.6 41.7-52.5 77-35.7 32.3 15.4 60.8 37.1 94 51.2 14.6 6.2 34.1 12.9 50 7.2 18.7-6.7 15.5-35.4 11.9-50.6-1.4-5.8-2.3-14.1-8-17.3-11.7-6.3-28.8-8-41.8-9.9-34.9-4.9-69-2.9-104-2.9v-1c15.6-4.5 29.9-12 46-15.3 25.3-5.3 49.5-3.7 75-3.7-9.3-13.3-22.5-24.5-35-34.7-4.7-3.8-14.4-8.1-17.1-13.6-1.5-2.9 1.5-6.2 2.7-8.7 3.4-6.7 8.9-22.9-1.7-26.8-4.4-1.6-10.6 5.2-14 7.5-13.1 8.9-19 22.2-35 28.3-16.8 6.4-33.6 5.2-50-2.2-6.7-3.3-12.8-9.1-19.9-10.9z"/><path class="st61" d="m1129 690 4 3-4-3z"/><path class="st62" d="m1133 693 4 3-4-3z"/><path d="m1137 696 4 3-4-3z" style="fill:#897164"/><path class="st63" d="m1155 703 6-5-6 5z"/><path class="st67" d="m1141 699 8 6-8-6z"/><path d="M1234 711c5-3.5 7.1-6.2 13-3-3.9-8.1-10-3.3-13 3z" style="fill:#967f6f"/><path d="m1149 706 6-3-6 3z" style="fill:#9a8373"/><path class="st67" d="m1192 706 3 4-3-4z"/><path d="m1195 710 7 9-7-9z" style="fill:#917a6c"/><path class="st46" d="m1252 713 6 7-6-7z"/><path d="m1229 715-14 16c4.5-3.2 14.1-10.1 14-16z" style="fill:#a7917f"/><path class="st61" d="m1202 719 3 4-3-4z"/><path class="st37" d="m1205 723 3 4-3-4z"/><path d="m1263 725 6 7-6-7z" style="fill:#a38c7b"/><path class="st63" d="m1208 727 6 6v-1l-6-5z"/><path d="m1269 732 12 13-12-13z" style="fill:#a6907e"/><path d="M782 768v1h9l-9-1m-17 1v1h8l-8-1z" style="fill:#9e7961"/><path class="st75" d="M821 856c19.6-15.8 32-30 59-30-4.4 19.1-10.4 38.2-8.9 58 3.1 41.7 31.6 82 68.9 100.6 10 5 21.6 7.4 32 11.4 28.2 10.9 56.8 22.2 82 39.2 13.7 9.2 31.6 22.2 34.7 39.7 1.5 8.7-2.2 14.8-3.7 23 9.8 0 19.4 1 28-4.6 15.4-10 20.4-43.5 23.9-60.4 9.8-48.2 11.3-95-1.7-143-3.7-13.8-7.4-30.8-15.2-42.9-6.3-9.8-21.8-12.6-31.9-8.2-3.5 1.5-9 7.3-12.8 6.5-3.2-.6-5.5-5.9-7.2-8.4-4.8-7.2-9.3-16.4-16-22 3.7 16.3 10.8 39.1-.7 54-13.3 17.1-43.5 5.3-59.3-1.4-10.2-4.3-20.3-9.1-30-14.4-36.5-20.2-101.5-74.9-132.7-18.1-3.7 6.6-6.7 13.7-8.4 21z"/><path class="st22" d="M614 826v1h3l-3-1z"/><path class="st31" d="M1084 1098c9.2-15.8 4.6-31.9-7.2-45-16.2-18.1-40.9-30.4-62.8-40.1-23.7-10.6-51.3-16.5-74-28.8-37-20-65.8-58.7-68.9-101.1-1.5-19.8 6.1-37.8 8.9-57-8 0-15.4.6-23 3-31.5 10-45.1 39.7-42.9 71 .7 9.6 4.5 19.3 5.7 29 2.8 23.4 5.6 46 11.1 69 3.8 16.3 8.8 32.5 15 48 1.9 4.8 3.5 12.7 7.2 16.4 3.4 3.4 12.6 1.5 17 1.6 13.6.2 28.6.6 42 2.4 35.2 4.8 70 8.3 105 14.9 22.5 4.3 44.4 12 66.9 16.7z"/><path class="st35" d="M599 855c5.4 9.7 5.9 22.6 10.8 33 4.5 9.6 9.7 18.5 16 27 2.8 3.8 8.2 8.3 9.3 13 1 4.3-2.5 10-3.9 14-3.9 11.5-6.8 31.2-15.2 40v2l19 31-25-18c-20.6 35.6-68.6 39.6-105 38-8.1-.4-15.9-2.9-24-3 3.7 12.9 13.3 24.9 21.8 35 3.1 3.7 6.6 8.7 11.2 10.4 7 2.6 17.6 1.6 25 1.6 18.9 0 37.3-1.2 56-3.9 12.8-1.8 36.9-1.1 47.5-9.3 4.4-3.4 3.6-14.8 4.9-19.9 3.8-15.6 9.7-30.6 16.9-45 18.4-36.9 40-71.6 64.2-105 10.8-15 30.7-32.6 36.6-50-33.4-12.9-64.2-19-100-19-10.7 0-26-1.8-36 2.1-11.3 4.5-20.8 18.4-30.1 26z"/><path class="st29" d="M616 982h2c3.6-12.8 8.6-25.3 12.8-38 1.5-4.6 5.5-11.1 4.6-16-1.3-7.5-11.2-15.7-15.4-22-9.3-14.3-18.3-32.7-19.1-50-17.4 8.1-15.5 22.2-13.3 38 4.3 29.4 13.4 62.2 28.4 88z"/><path class="st31" d="M1110 864c-9.4 28.9-6.8 55.5-3 85h1c10.1-24.3 28.1-63.4 2-85z"/><path class="st29" d="M434 867c-1.5 35.9-8.7 72.1-12.1 108-.8 9-2.1 18-2.9 27-.2 2.8-1.6 7 0 9.6 3.6 5.6 24.5 10.8 31 11.4 0-16.8 1.1-32.8 6-49 3.7-12 10.5-23.1 14-35h1c-4.2 33.4.2 60.9 9 93 36.1.3 70.3 8.9 104-10.4 6.5-3.7 25.5-14.8 24.9-23.6-.5-7.6-16.9-19.1-21.8-25-14-17-25.2-37-32.1-58-11.9 6.2-17.1 26.2-21 38-1.8 5.4-2.7 13.1-8 16 1.5-6.5 11.5-24.5 7.9-30.5-2.1-3.5-10.3-3-13.9-3.9-12.1-3-23.8-7.6-35-13.2-25.4-12.7-36-32.1-51-54.4z"/><path class="st31" d="M973 958c-7.5-13-18.1-23.7-23.5-38-3.5-9.2-6.4-18.5-9-28-1.1-4.1-.9-9.2-3.4-12.8-4.4-6.3-16.1-8.9-23.1-6.5-12.8 4.3-2 20.9 2.4 28.3 12.1 20.3 34.4 47.6 56.6 57z"/><path class="st76" d="M524 932v1h3l-3-1z"/><path d="M1146 932v4h1l-1-4z" style="fill:#9d7f64"/><path class="st75" d="M470 939c-12.1 28.9-20 53.3-20 85l30 7-11-46 .1-30 .9-16z"/><path class="st56" d="m824.3 984.7.3.7-.3-.7z"/><path class="st78" d="M1147 984v4h1l-1-4z"/><path class="st31" d="M616 985c-1.3 3.3-4.6 8.3-4 11.9 1.1 6.4 17.6 15 23 18.1l-17-30h-2z"/><path class="st44" d="m1147 992-3.4 29.6 14.4 6.7 43 13.7c-.5-9.3-7.3-13.4-14-18.8-13-10.4-25.9-22.4-40-31.2z"/><path class="st35" d="m418 1012-4 33c14.9 6.9 29.4 18.5 46 21l-8.2-30-2.6-12.1L418 1012z"/><path class="st79" d="M417 1013v5h1l-1-5z"/><path class="st43" d="m1142 1021-4 23c14.8 0 29.2 3 44 3 6.6 0 13.3.3 18-5-18.2-5.9-42.2-10.1-58-21z"/><path class="st79" d="M416 1022v5h1l-1-5z"/><path class="st31" d="M450 1024c3 12.7 2.2 30.9 11.1 41.5 2.8 3.3 9 4 12.9 5.1 11.9 3.3 25.6 6.3 38 6.4l-20.6-26-11.8-19-29.6-8z"/><path d="M415 1032v4h1l-1-4z" style="fill:#b7947e"/><path d="M1147 1044v1h6l-6-1z" style="fill:#9f7a61"/><path class="st78" d="M1144 1047v1h9l-9-1z"/><path class="st50" d="M1183 1047v1h6l-6-1z"/><path d="M1156 1048v1h6l-6-1z" style="fill:#9d8064"/><path class="st83" d="M1168 1049v1h6l-6-1m12 1v1h10l-10-1z"/><path class="st84" d="M647 1060v6h1l-1-6z"/><path class="st25" d="M852 1067v1h12l-12-1z"/><path class="st27" d="M864 1067v1h13l-13-1z"/><path class="st43" d="m891 1068 13 70h1c.7-16.4 7-33.9 10.6-50 1.2-5.4 1.5-13.9 6.4-17l-31-3z"/><path class="st22" d="M643 1069v1h3l-3-1m-177.3 2.3.7.3-.7-.3z"/><path class="st56" d="m634.7 1071.3.7.3-.7-.3z"/><path class="st44" d="M919 1071c-1.4 10.3-4.2 20.9-6.6 31-1.4 6-2.7 12-4.1 18-1.4 6.4-6.6 35.6 10.5 25.8 4.6-2.6 5.7-10.1 7.2-14.8 4.1-13.3 8-26.7 12.4-40 1.2-3.6 6.1-13.8 3.6-17.3-3.2-4.2-18.2-2.7-23-2.7z"/><path class="st54" d="M941 1072v1l2 2h1l-3-3z"/><path class="st83" d="M948 1073v1h4l-4-1z"/><path class="st78" d="M956 1074v1h4l-4-1z"/><path class="st27" d="m481.7 1075.3.7.3-.7-.3z"/><path class="st22" d="M613 1075v1h3l-3-1z"/><path class="st84" d="M485 1076v1h3l-3-1z"/><path class="st22" d="M601 1077v1h3l-3-1z"/><path class="st56" d="M592 1078v1h6l-6-1z"/><path class="st27" d="M523 1081v1h9l-9-1z"/><path class="st23" d="M532 1081v1h27l-27-1z"/><path class="st25" d="M559 1081v1h9l-9-1z"/><path class="st76" d="M890 1081v3h1l-1-3z"/><path class="st22" d="M892 1091v3h1l-1-3z"/><path class="st83" d="M1087 1101v1h13l-13-1z"/><path d="m375 1149 16.8 138 8.2 72h116c17 0 38.5 3.6 55-.4 7.6-1.9 15.3-8.2 22-12.2 15.2-9 30.2-18.2 45-27.7 39.2-25.2 77.7-51.3 115-79.3 16-12 37.8-24.4 50-40.4l-129-15.2-299-34.8z" style="fill:#ccbaa8"/><path d="M573 1359h542v-124l-217-25.2-69-7.9-24-2.5-18 12.9-42 32.3-114 77.9-38 23.2-20 13.3m205 36-12 69h241c5.2 0 15.2 1.9 19.6-1 4.3-2.8 6.9-12.4 9.2-17 7.8-15.6 19.6-34 23.2-51H778z" style="fill:#b8a58a"/><path class="st9" d="M1113 1504v1c5.1 6.7 2 22.8 2 31h1v-32h-3z"/></svg>