<svg version="1.1" id="Calque_1" xmlns="http://www.w3.org/2000/svg" x="0" y="0" viewBox="0 0 1649 1649" style="enable-background:new 0 0 1649 1649" xml:space="preserve"><style>.st2{fill:#c9d8d7}.st8{fill:#d8dad4}.st9{fill:#d9dbd5}.st11{fill:#9e9f88}.st12{fill:#b3bcaf}.st13{fill:#75683d}.st14{fill:#9ea088}.st16{fill:#d9caab}.st17{fill:#fbebd0}.st18{fill:#b8a986}.st19{fill:#a4a792}.st20{fill:#b7a985}.st21{fill:#99997f}.st22{fill:#b8aa86}.st23{fill:#c0b28f}.st24{fill:#99987f}.st25{fill:#c0b18e}.st26{fill:#9fa089}.st27{fill:#b0a17d}.st28{fill:#a79973}.st29{fill:#c0b18f}.st30{fill:#afa491}.st32{fill:#afa17d}.st33{fill:#a79974}.st35{fill:#9a997f}.st36{fill:#c9ba99}.st37{fill:#928764}.st38{fill:#bfb6a0}.st39{fill:#ebe6dd}.st40{fill:#d8ccbb}.st41{fill:#c8b998}.st42{fill:#b3bbaf}.st43{fill:#c9b998}.st44{fill:#a89f81}.st46{fill:#a4a793}.st47{fill:#a99f82}.st48{fill:#a69a7b}.st50{fill:#b0a78c}.st52{fill:#7f694b}.st62{fill:#968860}.st63{fill:#968861}.st64{fill:#a3a692}.st66{fill:#a79a74}.st67{fill:#bfb18e}.st68{fill:#a4a692}.st71{fill:#93937a}.st73{fill:#93947a}</style><path d="M433 323h-1l9.8-81L462 76h-50c-4.8 0-14.4-1.8-18.5 1-4.5 3.1-6.4 14-8.2 19-5.6 15.7-11.9 31.2-17.3 47-11.8 34.7-30.4 69.3-38.5 105-5.9 26.2-4.3 57.2-5.5 84-12.2 279.1-33.9 557.9-46.1 837-2 44.7-4.8 89.4-7.9 134-1.8 25.9-1.1 52.2-4.3 78-2.3 19.2-12 39.5-17.7 58-1.5 4.9-7.3 15.7-5.4 20.7 1.4 3.7 9.1 3.2 12.3 3.6 12.3 1.6 24.7 3.3 37 4.7 51.7 5.8 103.5 12.2 155 19.5 109.7 15.5 220 28.6 330 41.7 37.4 4.5 74.7 9.3 112 14.1 17 2.2 35.9 7.1 53 6.6 12.9-.4 28.3-6.8 41-10 25.3-6.3 50.9-12.2 76-19.3 17.5-5 36.9-12 55-13.6v31l44-9.1 79-17.4 40-8.5-22 86 55 7.2 48 5.8V579l-17.8-200-9-102-5.2-53-13.2 17-25.8 42h-1V76H697l-32.4 143-12.6 56c-4.1-13.9-1-32.5-1-47V91c0-3.8 1.4-11.3-1-14.4-3.1-4-15.3-3.2-20-3.7-17.6-1.7-35.5-4.6-53-7.2-18.6-2.7-37.3-5.4-56-8.1-4.4-.6-16.6-4.2-20.3-1.5-3.8 2.8-4.5 13.5-5.6 18-4.2 16.7-8.7 33.3-12.6 50-10.5 45.8-23 91.4-34.4 137-5 19.9-13.4 41.3-15.1 61.9z" style="fill:#b3b7aa"/><path d="m501 57-52.9 211-20.1 82h-1l8.8-71L460 77h-66l-46.2 126-17.4 48-5.4 105-16 287-26.9 471-11 198-3.3 69-23.8 79 41 5.3 48 5.7v-1l-39-5.3-48-5.7 23.8-77 4.3-87 13-234 31.8-564 10-180 3.3-64 15.4-43 29.8-81L395 79h63l-24.2 199-9.8 82c5.9-2.1 6.3-12.6 7.6-18l13.5-54c12.8-51.4 25.9-102.6 38.7-154 6-24.2 16.1-50.2 18.1-75 48.5 3.8 97.3 19 146 19v217c4.8-1.7 4.7-7.6 6-12 3.8-13 5.9-26.8 8.9-40 9-39 18.7-77.9 26.8-117 3.3-15.8 9-31.9 10.3-48h487v-1H733c-7.4 0-27.6-3.6-33.4 1-3 2.3-3.8 11.4-4.6 15-2.7 12.7-5.8 25.3-8.7 38-7.6 33.7-15.1 67.4-22.8 101-4.2 18.3-10.6 37.3-12.5 56h-1V77L501 57z" style="fill:#98a396"/><path class="st2" d="M502 59c-3.4 25.5-12.4 51.1-18.6 76-12.6 50.4-25.4 100.6-38 151l-13.5 54c-1.5 6.2-2 16.6-7.9 20l9.7-80 17.5-148 6.8-53h-63l-46.7 128-16 44-2.4 46-4 71-13.1 236-30.8 546-9 162-3.3 69-23.8 78c22.5.2 45.6 5.9 68 8.2 7.6.8 15.4 2.8 23 1.5 21.5-3.7 43.9-17.3 64-25.7 58.2-24.2 113.3-53.7 169-83v-1H400c-8.8-69.6-12.2-141-25-210l100 11.2 205 24.1 90 10.8 34 3.3 13-9.9 27-23.5 69-63.9 28-29c-3.4-.5-8-1.1-10-4.3-2.4-3.8-1.9-10.4-2.9-14.7-3-12.3-6.4-24.2-11.1-36-18.6-46.6-48.2-88.5-77.4-129-6.9-9.5-14.1-18.8-21.4-28-2.4-3.1-5.7-9.3-10.2-9.3-5 .1-11.4 6.7-15 9.7-15.6 13.2-23.3 31.4-28.6 50.6-4.5 16.5-4.4 35-6.9 52-3.4 22.7-9.7 45.3-16.9 67-3.1 9.2-7.2 32.8-15.9 38-7.6 4.6-26 1-34.8 1-3.9 20.6-7.3 41.5-11.7 62-1.8 8.3-4.9 17.2-14.3 19.3-9 2-13-9.8-15.1-16.3-4.7-14.6-8.8-29.3-13.2-44-1.3-4.4-2.3-13.3-6.9-15.4-3.7-1.6-9 0-12.8.5-10.4 1.4-20.8 3.5-31 5.5-24.7 4.9-49.6 9.2-74 15.9-16.7 4.6-36.1 10.6-50.9-2.1-11-9.4-16.3-32.8-19.1-46.5-16.7 0-36.7 6.4-53 3.3-7.1-1.3-17.2-6.6-13.6-15.3 5.9-14.3 29.8-26.5 41.6-36 3.8-3 10.5-6.6 12.4-11.2 3.6-8.8-1-25-.3-34.8 2.1-31 9-60.7 19.3-90 5-14.3 13.4-29.8 30.7-30.8 9.1-.5 16.2 6.5 24 9.8 29-43 58.8-89.1 104-117-4.3-8.1-10.3-16.2-8.8-26 .7-4.7 7.5-9.6 6.4-14-1.1-4.5-7.3-9.3-10-13-5.8-7.8-10.3-16.2-14.3-25-18-39.9-18-88.3 3-127 5.1-9.5 11.5-18.6 19.7-25.7 4.2-3.7 12.1-6.9 15-11.6 3.3-5.4 1.7-15.5 3-21.7 3.3-14.9 13.6-26.7 27-33.4 18.9-9.5 35.8-4.2 53 6.9 6.5 4.2 18.4 20.8 26 15.5 9.3-6.5 17-16 25-24 19.3-19.4 39.4-41 51.2-66 14-29.7 20.8-66 46.8-88.7 18.5-16.2 54.8-11.8 78-13.4 55.2-3.8 111.9 2 165 17.5 21.5 6.3 41.7 19.2 63 24.6l10.4-65L1187 79H700l-36.9 162-9.1 41-6 13V78c-48.8 0-97.2-16.9-146-19z"/><path d="M394 75v1h67l-21-1h-46m304 0v1h587c-13.1-5.5-36.7-1-51-1H698z" style="fill:#c6c9bf"/><path d="M1187 77v2h96v213c6.4-2.1 10-11.5 13.4-17 8.4-13.5 16.3-31.9 27.6-43l8.8 103 12.3 145 9.8 106v1012c-22.3-5.3-47.2-5.5-70-8.6-5.1-.7-21.1.2-23.9-4.7-2.5-4.3 2.3-13.3 3.4-17.7 4-15.7 7.8-31.4 12.2-47 1.1-3.7 7.5-18.3 3.7-20.9-2.5-1.7-7.7.5-10.4 1.1-10 2-20 4.5-30 6.6-41 8.6-82.5 16.7-123 27.2l-1-32c-40.2 8.3-80.3 19.7-120 30.2-17.8 4.7-38.6 13.4-57 13.8-13.8.3-28.3-4.2-42-5.8-30.4-3.4-60.6-7.4-91-11-110.1-13.2-220.1-27.4-330-41.5-31.3-4-62.6-8.1-94-11.9-16.2-1.9-32.7-5.8-49-5.8v2c45 .4 91.4 11.2 136 16.7 104.7 12.9 209.3 26.7 314 39.4 34.7 4.2 69.3 8.8 104 13.1 16.8 2.1 34.2 6.1 51 6.7 15.8.5 34.8-7.3 50-11.5 27.8-7.7 56-14.3 84-21.3 13.8-3.4 28.8-9.5 43-10.1v31l67-14.3 98-21.7-23 88 100 12V698c0-37.5 1.6-75.5 0-113-5.2-119.6-26.8-238.4-32-358l-13.2 19-26.8 44h-1V77H1187z" style="fill:#8d9888"/><path d="M1284 77v213h1V97l-1-20z" style="fill:#a0a799"/><path d="M700 78v1h487c-11.2-4.7-30.8-1-43-1H700z" style="fill:#a4b0a6"/><path d="M1187 79c-9.5 51.3-14.1 104.3-21.6 156-3.2 21.8-3.8 46.1-11.4 67 7.5 3.2 20.3 8.7 25.3 15.3 4.5 6 3.7 17.5 5.2 24.7 5.1 23.7 10.2 48 13.6 72 1.2 8.4 2.7 16.7 4.4 25 .8 3.9 3.3 9 1.4 13-4.9 10.2-24 19.8-32.9 26.5-21.9 16.4-40.4 37-62 53.5.6 18-7.7 38.6-11.9 56-8.4 35-16 70.4-25.8 105-4.2 14.9-8.1 30-11.9 45-1.3 5.1-5.2 12.7-4.1 18 1.6 7.7 9.9 14.5 12.8 22l-25 17-6.1 24-14.6 50-7.2 26 9 14 15.9 26c28.9-3.7 58.2-15.2 79-36 7.1-7.1 12.7-15 17.2-24 2.4-4.8 3.2-11.2 8.8-13-3.5 13.8 1.3 30 2.8 44 3.4 31.3 7 62.7 10.3 94 1.2 11.4 2.6 22.7 4.1 34 .5 3.5 2.7 10.5.9 13.7-2.3 4-9.2 6.6-13.1 8.6-12.5 6.4-25.4 12-39 15.7-38.9 10.5-75.9 11.8-116 9-12.4-.8-24.7-3.4-37-5.3-4.8-.8-11.2-3.4-16-2.5-4.7.9-8.8 6.7-12 9.9l-25 25c-22.7 22.7-47.3 43.4-71 64.9-9.3 8.4-21.5 15.9-29 26.1l46 5.2 88 10 176 20.8v124H628c-17.7 0-38.7-3.2-56-.1-15.5 2.8-32.9 17.8-47 24.8-42.3 21.2-84.8 41.2-128 60.6-14.5 6.5-29.2 12.5-44 18.1-7.3 2.8-14.1 6.4-22 6.6v1l50 5.8 94 11.9 301 37.6 120 14.9 44 5.8 58-14.1 118-29.9 1 32c41.2-8 82-18 123-27 10-2.2 20-4.6 30-6.6 2.6-.5 8-2.7 10.3-.6 3.3 3-3.2 17.3-4.2 21.2-4.1 15.3-7.7 30.8-11.9 46-1.2 4.6-5.6 13-3.6 17.7 2.1 4.8 18.7 4.1 23.4 4.7 23.5 3.1 47.8 4.3 71 8.6V585l-9.8-106-12.3-145-8.8-102-10.1 14-20 32-10.9 14V79H1187z" style="fill:#b3c0ba"/><path class="st8" d="M458 101v4h1l-1-4m-1 8v4h1l-1-4z"/><path class="st9" d="M454 134v4h1l-1-4m-5 41v4h1l-1-4z"/><path d="M442 232v4h1l-1-4z" style="fill:#d8dbd4"/><path class="st8" d="M1328 246v4h1l-1-4z"/><path class="st11" d="M930 258v1h44c-11.5-4.8-31.5-1-44-1z"/><path class="st12" d="M974 258v1h8l-8-1z"/><path class="st11" d="M910 259v1h14l-14-1z"/><path class="st13" d="M606 726c-13.7 5.7-26.6 18.7-37 29-24.8 24.7-51.9 56.1-67 88-15-9-32.3-14.4-45.8 1-5.8 6.6-8 16.9-11 25-9.3 24.6-15.9 53.6-16.2 80-.1 10.3 4 30.8-1 39.8-2.5 4.5-9 8-13 11.2-9.6 7.7-19.3 15.3-29 23-5.4 4.3-13.9 9.8-12.7 18 1.2 7.7 10.2 9.9 16.7 10 11.3.1 22.8-1.4 34-2.7 3.8-.5 11.4-2.2 14.7-.2 4 2.4 4.9 10.8 6.3 15 4 12.1 7.1 28.1 19 34.8 17.3 9.8 40.4 1 58-3.8 35.9-9.8 72.6-14.2 109-21 1.8 20.8 12.7 42.9 18.4 63 2 6.8 5.7 16.2 14.6 14.6 10.4-1.9 12.3-10.8 14-19.6 4-20.6 10.4-42.2 12-63h26c3 0 7.7.9 10.3-1 8.2-6.1 11.9-28.6 15-38 7-21.1 13.4-43.9 16.4-66 2.4-18.2 2.5-37.3 7.6-55 5.1-17.6 13.7-34.5 27.7-46.7 3.6-3.1 9.2-8.9 14-9.8 6.4-1.3 14.8 14.2 18.2 18.5 16.1 20.6 31.6 42 45.7 64 18.2 28.4 36.1 57.3 48 89 3.8 10.1 7.5 20.4 9.3 31 .7 3.9.4 12.3 3.4 15.1 3.4 3.2 11 3.3 15.4 4 10 1.7 19.8 3.9 30 5.1 46.7 5.6 91.4 5 137-6.9 13.2-3.5 25.9-9.4 38-15.6 5-2.6 11.3-5.1 13-10.7-9.2 1.7-17.6 8.8-26 12.7-14.2 6.5-29.7 11.8-45 15-34.3 7.2-70.2 8.3-105 4-18.5-2.3-36.6-7.2-55-9.7-.5-16-6.8-32.1-12.3-47-15.1-40.6-40-78.9-65.1-114-9.9-13.8-20.2-27.4-30.5-41-3.2-4.2-10.6-10.7-11.4-16-.6-3.9 5.6-5.7 8.3-6.8 10.2-4.3 20.5-6.5 31-9.5 21.5-6 44.9-4.7 67-4.7 7.8 0 19.8-1.6 27 1.9 9.6 4.7 18.3 15.9 26 23.2 24.5 22.9 46.2 53.8 62.6 82.9 4.1 7.3 6.1 16 8.5 24 1.2 3.9 1.6 8.8 5.9 10l-9-32c40.9-3.2 95.4-31.8 103-76-5.9 1-6.8 8.2-9.3 13-5.3 10.4-12.4 18.8-20.7 27-20.2 19.7-48 27.9-75 33-4.7-12.9-14.5-25.1-22.6-36-11.9-15.9-23.4-31.9-37.4-46-8.3-8.4-18.8-15.6-26-25 42.6-1.9 80.3-27 114-50-1.8-7.6-7.7-14.8-12.4-21-12.9-17.2-33.1-41.1-53.6-49 8.5-12.4 17.1-24.7 25.7-37 3.2-4.6 10.1-11.3 10.7-17 .5-5.2-6.3-9.7-8.6-14-6.8-12.9-1.8-23.8 7.4-34 34.1-38.2 71.8-74.5 110.8-107.7 12.7-10.8 25.8-21 39-31.2 5.1-3.9 13.9-8.5 17-14.2 2.5-4.7-.8-11.1-1.7-15.9-2.5-14.6-6-29.3-8.2-44-2.6-17.8-6.5-35.4-9.8-53-1.2-6.6-.7-18.1-5.1-23.5-8.8-11-29.8-17.9-42.3-23.8-45.4-21.6-100-32.5-150-33.7-32-.8-64.2-.3-96 2.8-12.7 1.2-26.7-.6-38 6.7-30.1 19.5-36.8 62.7-51.3 92.5-16 32.9-45.4 63-72.7 86.7-10.8 9.4-20.2-7.5-30-13.4-18.4-11-36.6-14.9-56-4.1-13.4 7.4-20.9 20-23.6 34.8-1 5.2 1.5 13-1.4 17.6-3.1 4.9-11.5 8.1-16 11.8-8.3 7-14.6 16.1-19.7 25.6-20.8 38.4-20.5 88.2-3.4 128 3.8 8.8 8.4 17.3 14 25 2.7 3.7 8.7 8.6 9.9 13 1 3.9-4.5 8.1-5.4 12-2.2 10.1 2.9 19.9 8.7 27.9z"/><path class="st14" d="M992 259v1h7l-7-1z"/><path d="M886 261v1h8l-8-1z" style="fill:#898462"/><path class="st11" d="M1013 261v1h8l-8-1z"/><path class="st16" d="M924 262v1h14l-14-1z"/><path class="st17" d="M622 482c12.3-2.2 23.2-6.4 36-4-.3-5-2.6-9.9-1.9-15 1.3-8.7 9.9-9.5 16.9-7.9 15.4 3.7 29.3 11 43 18.7 3.7 2.1 10.4 8.1 14.9 6.7 5.5-1.7 11.2-11.3 14.8-15.6 7.8-9.1 17.3-16.9 27.3-23.5 26.9-17.9 57.8-21.8 89-15.8 8.9 1.7 21.2 3.7 28.7 9.2 8.1 5.9 14.5 18 20.3 26.2 20.3-14.6 14.7-36.5 16.5-57 1.9-21.9 8.7-45.5 18.8-65 5.7-11.2 12.8-21.1 21.7-30 34.4-34.3 88.6-30.4 131-14.1 26.3 10.1 51.4 25.5 79 33.1-.7-16-31.2-26.5-44-32.3-48.8-22-101-30.4-154-32.7-28.3-1.2-55.8.8-84 2-12.2.5-29.4-.8-40 6.1-29.5 19.3-36.1 60.5-50.3 89.9-16.9 35-48.8 70.5-79.7 94-1.8 1.4-3.6 2.6-5.8 1.4-10.8-6-18.3-17.4-30.2-23.1-22.1-10.7-49.3-6.6-61.9 16.7-5.2 9.7-6.1 21.2-6.1 32z"/><path class="st18" d="M975 262v1h12l-12-1z"/><path class="st19" d="M1023 262v1h4l-4-1z"/><path class="st20" d="M906 263v1h5l-5-1m93 0v1h4l-4-1z"/><path class="st16" d="M891 264v1h10l-10-1z"/><path class="st21" d="M1044 265v1h3l-3-1z"/><path class="st22" d="M1027 266v1h3l-3-1z"/><path class="st23" d="M1034 267v1h3l-3-1z"/><path class="st24" d="m1060.7 268.3.7.3-.7-.3z"/><path class="st25" d="M1046 269v1h3l-3-1z"/><path class="st26" d="M1065 269v1h3l-3-1z"/><path class="st22" d="M1057 271v1h3l-3-1m21.7 5.3.7.3-.7-.3z"/><path class="st27" d="m1082.7 277.3.7.3-.7-.3z"/><path class="st28" d="m1086.7 278.3.7.3-.7-.3z"/><path class="st27" d="m1089.7 279.3.7.3-.7-.3z"/><path class="st22" d="M1019 283v1h5l-5-1z"/><path class="st13" d="M927 409c7.1-2.5 6.5-20.4 8.1-27 5.6-23.1 13.9-47 30-65 25.6-28.7 63.4-35 99.8-27.5 13.5 2.8 27.3 9.9 41 10.5-1.7-5.9-13.6-7.4-19-9-20.6-6-43.6-10.1-65-7.3-59.3 8-94.2 68-94.9 125.3z"/><path class="st29" d="M1013 284v1h3l-3-1z"/><path class="st28" d="M1055 284v1h3l-3-1z"/><path class="st22" d="m1067.7 286.3.7.3-.7-.3z"/><path class="st30" d="M928 409c4.4 18.6-4.1 38.9-17 52-4.1-8.3-12.1-20.5-19.5-26.2-7.3-5.5-19.8-7.5-28.5-9.2-31.8-6.1-63.5-2.4-91 15.8-8.7 5.8-17.7 12.6-24.6 20.5-4.6 5.2-10 14.8-16.2 18-4.4 2.2-15.3-6.7-19.2-8.9-12.1-6.7-24.5-12.8-38-16-5.8-1.4-13.6-2.4-17 3.9-3.1 5.8.4 13 1 19 33.9 3 61.6 38.7 73 68h1c3.1-13.1 11.6-26 19-37 32.2-48.1 99.3-90.9 151-42.9 56.3 52.2 49 147.5 21.4 211.9-7.3 17-16.6 33.9-28.7 48-11.5 13.4-25.5 26.5-40.7 35.5-7.6 4.5-16.6 6.8-24 11.5 6.6 1.9 14.2 1 21 1 30.7 0 72.7-13.9 79-49 21.8 7.1 44.9 13.4 64 26.7 15.4 10.8 23.2 22.3 14.2 40.3-2 3.9-4.5 7.7-7.4 11-4.5 5.1-9.7 9.9-15.8 13v1c21-3.1 43.4-15.8 61-27.1 4.6-2.9 16.1-8.8 16.3-15 .1-5.9-7.6-13.6-11-18-9.6-12.4-21.2-23.6-33.3-33.6-4.9-4-15.3-8.8-18.1-14.6-2.1-4.4 5.1-11.5 7.4-14.8l19.4-28c2.3-3.3 6.9-7.8 7.3-12 .4-4.3-5-8.5-7-12-3.8-6.4-5.2-14.8-2.8-22 5.7-16.9 24.6-31.7 36.9-44 30.1-30.1 59.9-60.4 93-87.2 10.3-8.3 20.5-16.7 31-24.7 4.5-3.4 12.2-7.5 14.9-12.6 3.9-7.2-3.4-25.8-4.8-33.6-5.7-29.8-14.8-61.7-16.1-92h-1l-18-5-35-14.2-18-8.8c-9.4 5-30.8-6.5-41-8.5-24.6-5-53.4-4.8-76 7-25.8 13.5-43.1 40.8-50.5 68.5-2.2 8.3-5 16.5-6.2 25-1 6.5-1 14.6-5.4 19.3z"/><path d="m1072.7 287.3.7.3-.7-.3z" style="fill:#b7a986"/><path class="st28" d="m1113.7 287.3.7.3-.7-.3z"/><path class="st23" d="m1097.7 294.3.7.3-.7-.3z"/><path class="st27" d="M1177 320v3h1l-1-3z"/><path class="st26" d="m807.3 345.7.3.7-.3-.7z"/><path class="st32" d="m934.3 369.7.3.7-.3-.7z"/><path class="st33" d="m932.3 377.7.3.7-.3-.7z"/><path d="m931.3 381.7.3.7-.3-.7z" style="fill:#afa17c"/><path class="st29" d="m930.3 385.7.3.7-.3-.7z"/><path class="st21" d="M664 422v1h5l-5-1z"/><path class="st11" d="M671 423v1h3l-3-1z"/><path class="st35" d="m656.7 424.3.7.3-.7-.3z"/><path class="st36" d="M663 426v1h3l-3-1m5 0v1h3l-3-1z"/><path class="st37" d="M841 448v1h14l-14-1z"/><path class="st38" d="M835 449v1h3l-3-1z"/><path class="st39" d="M870 599c2-25.6 6-50.1 6-76 0-18.4-2.9-37.3-8-55-1.4-4.8-3.2-14.8-7.5-17.8-5.2-3.7-18.5-1.2-24.5-.5-25.6 3.3-48.9 20.5-65.8 39.3-40.9 45.3-61.2 115.8-52.6 176 3.1 21.9 7.8 46.7 20.4 65 3.7 5.4 9.5 15.9 17 15.8 33.3-.4 67-23.7 86.8-48.8 5.6-7.1 14.2-17.1 16.5-26 1.5-6.1-6.5-14.1-8.3-20-5.5-16.9-1.6-48.6 20-52z"/><path class="st40" d="m862 451 13.9 65-5.9 83c24.9 2.5 27.8 37.9 20.1 56-6.2 14.8-16.9 21.6-31.1 13-13.5 42.6-64.2 74.6-107 78 11 15.3 29.3 21.9 47 23.1 7.5.5 15.5 2.6 23 1.7 20.3-2.4 40.8-17 55-30.8 54.7-53.3 77.8-143.7 55-217-9.6-31-32.7-71.7-70-72z"/><path class="st41" d="m624.3 458.7.3.7-.3-.7z"/><path class="st18" d="m721.7 458.3.7.3-.7-.3z"/><path class="st21" d="M620 459v3h1l-1-3z"/><path class="st22" d="M623 462v3h1l-1-3z"/><path class="st33" d="M622 467v3h1l-1-3z"/><path class="st42" d="M618 473v11h1l-1-11z"/><path class="st43" d="M642 477v1h3l-3-1z"/><path class="st18" d="M652 477v1h4l-4-1z"/><path class="st28" d="M637 478v1h3l-3-1z"/><path class="st41" d="M629 479v1h3l-3-1z"/><path class="st39" d="M694 596c3.4-18.5-1.7-38.6-7.9-56-3.8-10.7-9.5-21.3-15.3-31-4.5-7.5-12.6-24-21-27.4-4.5-1.8-10.3.2-14.8 1-19.2 3.2-34.6 15.2-45.1 31.4-24.2 37.3-25.2 86.2-9.7 127 4.3 11.3 10.5 29 21.1 35.8 10.2 6.5 27.1 6.2 38.7 5.1 14.2-1.4 39.4-12.5 41.9-28.8.7-4.6-4.6-10.6-6-15-4.3-14-1.9-44.4 18.1-42.1z"/><path class="st40" d="M651 481c4.5 9 11.9 16.5 17.3 25 15.3 23.8 33.9 62 24.7 91 17.3 8.1 17.2 43.5 2.9 54.6-4.6 3.6-9.4-.3-13.6 2.2-6.6 4-10.7 13.4-17.4 18.1-19.7 13.9-42.2 10.8-64 5 24.5 34.8 86.3 44.1 112.2 5 3.8-5.8 1.1-13.6.2-20-1.6-11.4-2.3-23.5-1.3-35 1.5-15.7 3.3-31.7 7.6-47 2.5-8.9 9.2-19.7 8.9-29-.3-8.3-6.8-18.1-11-25-14.2-22.9-37.9-44.8-66.5-44.9z"/><path class="st44" d="M633 482v1h3l-3-1z"/><path class="st2" d="M1002 708c19 10.8 38.7 29 51 47h2c20.6-73.2 39.6-147.5 55-222-7.5 3.5-13.1 11.3-19 17-14.8 14.3-28.5 29.5-43 44-7.4 7.5-18.2 16.1-20.6 27-1.5 6.8-.5 15 3 21 2.2 3.8 9 8.2 7.5 13-1.7 5.2-7 10.5-10.1 15-8.6 12.2-19.4 24.6-25.8 38z"/><path class="st44" d="m572.3 556.7.3.7-.3-.7z"/><path d="M939 557v4h1l-1-4z" style="fill:#a79b7b"/><path class="st46" d="M568 559v3h1l-1-3z"/><path class="st47" d="M571 561v3h1l-1-3z"/><path class="st48" d="M940 572v18h1l-1-18z"/><path class="st11" d="M566 573v8h1l-1-8z"/><path class="st37" d="M569 577v16h1l-1-16z"/><path d="M566 581v14h1l-1-14z" style="fill:#8a8463"/><path class="st50" d="M722 583v3h1l-1-3z"/><path class="st9" d="M1358 586v1015h1V613l-1-27z"/><path d="M720 592v3h1l-1-3z" style="fill:#b7ae96"/><path class="st52" d="M686 595.9c-14.7 5.8-12.9 34.4-9 46.1 2.3 7.1 8.7 14.4 16.9 11.3 14.4-5.6 13.9-33.8 9.1-45.3-2.5-6.2-8.9-15.3-17-12.1z"/><path d="M570 596v6h1l-1-6z" style="fill:#afa78c"/><path d="M939 598v5h1l-1-5z" style="fill:#a79b7c"/><path d="M866 599v1h4l-4-1z" style="fill:#a09077"/><path class="st52" d="M870 599.4c-24 2.6-25.2 38-18.9 55.6 3.2 8.9 10.5 18.8 20.9 17.9 23.5-2 25.7-41.9 18.2-57.9-3.8-8.1-10.2-16.6-20.2-15.6z"/><path class="st47" d="M718 602v3h1l-1-3z"/><path d="M571 606v3h1l-1-3m1 6v3h1l-1-3z" style="fill:#beb69f"/><path class="st21" d="M569 615v3h1l-1-3z"/><path d="M674 616v16h1l-1-16z" style="fill:#9a876e"/><path class="st44" d="m573.3 618.7.3.7-.3-.7z"/><path class="st21" d="m570.3 620.7.3.7-.3-.7z"/><path class="st38" d="M574 621v3h1l-1-3z"/><path class="st42" d="M1026 623v9h1l-1-9z"/><path class="st47" d="m576.3 629.7.3.7-.3-.7z"/><path d="M847 632v8h1l-1-8z" style="fill:#d0c6b8"/><path d="M675 635v3h1l-1-3z" style="fill:#ad9f8a"/><path class="st50" d="M715 635v9h1l-1-9z"/><path class="st48" d="M933 635v3h1l-1-3z"/><path d="m849.3 649.7.3.7-.3-.7z" style="fill:#bcae9c"/><path class="st48" d="M712 650v5h1l-1-5z"/><path class="st24" d="m1039.3 652.7.3.7-.3-.7z"/><path class="st50" d="M716 655v5h1l-1-5m1 9v4h1l-1-4z"/><path class="st38" d="M718 671v3h1l-1-3z"/><path class="st50" d="m719.3 677.7.3.7-.3-.7z"/><path class="st44" d="m720.3 682.7.3.7-.3-.7z"/><path class="st30" d="M716 683c-20.8 29.6-56.5 31-88 22 3.2 7.3 9.3 12.7 16 16.9 28.9 18 54.1 7.4 81-7.9l-9-31z"/><path class="st47" d="m721.3 686.7.3.7-.3-.7z"/><path class="st17" d="M493 1098c-2.3-6.5-5.4-12.9-4.9-20 1.3-17.9 20.4-32.5 33.9-41.7 24.9-16.9 53-28.6 81-39.4 12-4.6 25.8-7.3 37-13.4 36.1-19.7 64.1-58.9 66-100.5.9-19.6-5.2-37-8-56 22.2 0 47.2 10.5 58.4 31 5.5 10.1 7.5 27.6 7.6 39h1c19.8-51.1 76.5-72.4 128-73 29.3-.3 62.4 6.4 90-6 6.4-2.9 12.1-7.8 16.9-13 3.3-3.6 6.1-7.7 8.3-12 18.1-36.4-33.9-55-61.2-62.9-5.7-1.6-11.2-3.8-17-5.1-13.5 46.8-62.7 48.2-102 48.2-18.2 0-37.1 2.4-54-6.3-22.3-11.5-36.6-31.7-49-52.9-6.1 2.3-11 7-17 9.7-18.4 8.4-35.2 10.9-54 2.9-14.8-6.3-21.7-18.9-34-27.9-3-2.2-8.9-8.4-13-7.3-11.5 3.1-5.4 20.2-1.8 26.7 1.5 2.6 5 6.4 3 9.5-3.1 4.9-11.7 8.6-16.3 12.2-10.3 7.9-20.1 16.7-28.8 26.3-12.3 13.6-24.4 27.8-34.7 43-7.7 11.4-14.6 26-24.3 35.8-4.5 4.5-11.6-4-16.2-5.5-10.6-3.6-23.6-.6-30.4 8.8-8.1 11.3-11.3 27.9-15.2 41-14.1 48.1-11.5 96.5-1.6 145 3.5 17.1 8.9 51.3 25.2 60.6 8.2 4.5 18.1 3.2 27.1 3.2z"/><path class="st47" d="m726.3 702.7.3.7-.3-.7z"/><path class="st48" d="M799 769v1h4l-4-1z"/><path d="M791 772v1h8l-8-1z" style="fill:#968961"/><path class="st62" d="M806 773v1h8l-8-1z"/><path class="st2" d="M955 829v2c14.7 11.2 28.8 25.8 40.5 40 6.4 7.8 11.4 17.8 19.5 24l29-99-40 18.8-49 14.2z"/><path class="st46" d="m987.7 820.3.7.3-.7-.3z"/><path class="st18" d="m970.7 821.3.7.3-.7-.3z"/><path class="st22" d="m965.7 822.3.7.3-.7-.3z"/><path class="st41" d="m960.7 823.3.7.3-.7-.3z"/><path class="st18" d="M886 824v1h9l-9-1z"/><path class="st63" d="M895 824v1h37c-9.8-4.1-26.4-1-37-1z"/><path class="st20" d="m956.7 824.3.7.3-.7-.3z"/><path class="st19" d="M973 824v1h3l-3-1z"/><path class="st21" d="M963 826v1h3l-3-1z"/><path class="st30" d="M698 827c1.6 18.3 8.4 35.2 8 54-1 42.3-30.6 82.6-67 102.5-11.2 6.1-25 8.8-37 13.4-26.9 10.4-53.8 21.6-78 37.4-14.2 9.3-32.5 22.7-35.7 40.7-1 5.5-.6 19 5.8 21.4 7.1 2.6 21.7-4.7 28.9-6.5 23.1-5.8 46.5-10.3 70-14.5 30.6-5.5 62.9-10.3 94-10.4h27c3.1 0 7.8.8 10.2-1.6 3.5-3.5 4.7-10.9 6.6-15.4 6.5-15.4 11.1-31.8 15.2-48 6.3-25.1 8.8-49.6 12.4-75 1.3-9.1 5.6-18.9 6-28 1-30-13.7-57.6-43.2-67-7.8-2.4-15.2-3-23.2-3z"/><path class="st64" d="M959 827v1h3l-3-1z"/><path d="M856 828v1h3l-3-1z" style="fill:#b0a27d"/><path class="st30" d="M934 1067c53.1 11 109.5 18.7 163 5.2 24.4-6.1 44.3-17.5 67-27.2l-4-32c-21.9 1.9-43.7 14.1-65 19.4-40.9 10.2-93.5 4.5-122.8-28.4-8.8-9.8-11.8-22-16.2-34-4.5-12.2-12.2-26.9-13.7-39.8-.6-5.3 7.6-12.1 10.6-16.2 9.4-13 17.4-28.4 21.3-44 1.3-5.2 4.6-12.3.7-16.9-6.1-7.2-17.8-20.2-26.8-23.5-8.5-3.1-20.1-1.6-29-1.6-21.9 0-44.7-1.1-66 4.7-10.2 2.8-20.1 5-30 9.1-2.7 1.1-8.6 2.7-8.9 6.3-.4 5.2 8.3 13 11.3 16.9 11 14.6 22.2 29 32.6 44 31.5 45.5 70.9 101 75.9 158z"/><path class="st11" d="M954 828v2l2-2h-2z"/><path class="st29" d="M850 829v1h3l-3-1z"/><path class="st32" d="M846 830v1h3l-3-1z"/><path class="st12" d="M475 833v1h8l-8-1z"/><path class="st22" d="m835.7 833.3.7.3-.7-.3z"/><path class="st21" d="m484.7 834.3.7.3-.7-.3z"/><path class="st20" d="M475 837v1h8l-8-1z"/><path class="st66" d="m485.7 838.3.7.3-.7-.3z"/><path class="st41" d="m462.7 848.3.7.3-.7-.3z"/><path class="st13" d="m461 849 12.9 48-6.9 66c6.8-2 8.2-21.6 9-28 2.1-16.3 2.8-35.8-.3-52-2.3-11.8-8.1-22.5-10.7-34h-4z"/><path class="st17" d="M977 857c-4.4 17.1-9.5 32.8-18.8 48-4 6.5-15.8 16.6-16.2 24-.7 11.4 9.2 29.4 13.2 40 4.6 12.1 7.5 24.8 16.1 35 28.9 33.9 82.8 37.5 123.7 28.6 21.8-4.7 42.3-14.6 64-19.6l-15-144h-1c-14.1 24.2-28.2 42.2-54 55-10.1 5-21.1 8.4-32 11.1-3.2.8-11 1.5-12.9 4.5-1.6 2.5.6 6.9 1.3 9.4 2.1 7.3 5.4 14.3 5.6 22-8.2-7.5-8.4-23.1-12.9-33-9.6-21.1-25.9-39.6-39.7-58-5.8-7.7-12.6-18.7-21.4-23z"/><path class="st30" d="M466 863c-3.8 9-9.8 16.1-11.5 26-4.3 23.9 10.7 40.2 14.5 62h1c1.2-28.5 10.8-60.8-4-88z"/><path class="st13" d="M627 889c11.2-3.1 18.9-18.3 32-16.6 20.1 2.6 2.7 27-3.4 35.6-19.4 27.1-47.4 51.8-76.6 68v2c9 1.5 21.2-10.7 28-15.9 21.2-16.2 42.4-35.1 56.4-58.1 3.7-6.1 11.7-18.5 9.8-26-1.5-5.8-8.9-8.5-14.2-8.9-11.2-.8-28.8 8.8-32 19.9z"/><path class="st41" d="m662.7 869.3.7.3-.7-.3z"/><path class="st28" d="m472.3 870.7.3.7-.3-.7z"/><path class="st30" d="M605 959c21.4-14.6 42.7-35.5 55.7-58 3.2-5.6 13.3-20.4 6.1-25.9-7.6-5.8-21.6-2.2-26.9 5.3-7 9.9-7.8 28.9-12.5 40.5-5.6 13.8-17.2 24.7-22.4 38.1z"/><path class="st28" d="m474.3 878.7.3.7-.3-.7z"/><path class="st41" d="m444.3 881.7.3.7-.3-.7z"/><path class="st43" d="m442.3 888.7.3.7-.3-.7m33.7-.7v3h1l-1-3z"/><path class="st35" d="m437.3 894.7.3.7-.3-.7z"/><path class="st21" d="m436.3 898.7.3.7-.3-.7z"/><path class="st62" d="M477 899v24h1l-1-24z"/><path class="st67" d="m439.3 900.7.3.7-.3-.7z"/><path class="st26" d="m435.3 902.7.3.7-.3-.7z"/><path class="st20" d="m437.3 909.7.3.7-.3-.7z"/><path class="st68" d="m764.3 910.7.3.7-.3-.7z"/><path class="st32" d="M436 914v3h1l-1-3z"/><path class="st41" d="M435 921v3h1l-1-3z"/><path class="st66" d="M434 926v3h1l-1-3z"/><path class="st21" d="M430 929v6h1l-1-6z"/><path class="st26" d="M761 930v4h1l-1-4z"/><path class="st36" d="M476 931v3h1l-1-3z"/><path class="st26" d="M429 937v6h1l-1-6z"/><path class="st32" d="M1046 937v1h3l-3-1z"/><path class="st11" d="M760 938v6h1l-1-6z"/><path class="st41" d="M1042 938v2l2-2h-2z"/><path class="st25" d="M474 943v3h1l-1-3z"/><path class="st66" d="m1044.3 945.7.3.7-.3-.7z"/><path class="st16" d="M432 946v10h1l-1-10z"/><path class="st41" d="M473 948v3h1l-1-3z"/><path class="st14" d="M428 950v30h1l-1-30z"/><path class="st67" d="m472.3 952.7.3.7-.3-.7z"/><path class="st33" d="m468.3 953.7.3.7-.3-.7z"/><path class="st41" d="m471.3 956.7.3.7-.3-.7z"/><path class="st25" d="m1044.3 957.7.3.7-.3-.7z"/><path class="st41" d="m466.3 960.7.3.7-.3-.7z"/><path class="st67" d="m1049.7 970.3.7.3-.7-.3z"/><path class="st11" d="M755 973v3h1l-1-3m-.7 5.7.3.7-.3-.7z"/><path class="st63" d="M432 980v8h1l-1-8z"/><path class="st46" d="m753.3 983.7.3.7-.3-.7z"/><path class="st39" d="M429 993c-12.3 9.9-24.6 19.7-37 29.3-7.1 5.5-14.7 10-15 19.7 13.9-3.2 27.5-9 41-13.5 3.8-1.3 12.6-2.7 14.9-6.2 3-4.3-1.7-24.7-3.9-29.3z"/><path class="st41" d="M434 1000v3h1l-1-3z"/><path class="st32" d="m435.3 1008.7.3.7-.3-.7z"/><path class="st68" d="m746.3 1011.7.3.7-.3-.7z"/><path class="st47" d="M433 1016v3h1l-1-3z"/><path class="st25" d="M437 1018v3h1l-1-3z"/><path class="st40" d="m434 1022-57 21c17.2 10.8 42.8 1.1 62 1l-5-22z"/><path class="st27" d="M438 1023v3h1l-1-3z"/><path class="st23" d="m439.3 1027.7.3.7-.3-.7z"/><path class="st48" d="m436.3 1030.7.3.7-.3-.7z"/><path class="st32" d="m440.3 1032.7.3.7-.3-.7z"/><path d="M1036 1035v1h8l-8-1z" style="fill:#d5c7b1"/><path class="st11" d="M926 1045v3h1l-1-3z"/><path class="st48" d="M407 1046v1h4l-4-1z"/><path class="st11" d="M433 1047v1h7l-7-1m-11 1v1h8l-8-1m-11 1v1h5l-5-1z"/><path class="st21" d="m927.3 1049.7.3.7-.3-.7z"/><path class="st11" d="M400 1050v1h5l-5-1m-12 1v1h6l-6-1z"/><path class="st28" d="m445.3 1052.7.3.7-.3-.7z"/><path class="st27" d="m446.3 1055.7.3.7-.3-.7z"/><path class="st12" d="M690 1068v1h36c-9.6-4-25.6-1-36-1z"/><path class="st40" d="M656 1070v1l6.4 19 10.6 45h1l12-66-30 1z"/><path class="st39" d="M634 1073c3.3 10.3 6.5 20.6 9.6 31 1.9 6.3 3.8 12.7 5.7 19 2.4 8.1 9.9 36.4 22.1 18.9 3.2-4.6.6-11-.5-15.9-3-12.7-5.9-25.3-8.7-38-.9-4-1.3-13.3-4.8-16-4.8-3.7-17.7.6-23.4 1z"/><path class="st68" d="m937.7 1071.3.7.3-.7-.3z"/><path class="st66" d="m452.3 1073.7.3.7-.3-.7z"/><path d="M628 1073v1l3 1-3-2z" style="fill:#949276"/><path class="st71" d="M946 1073v1h4l-4-1z"/><path class="st19" d="M602 1077v1h3l-3-1z"/><path d="M996 1077v1h8l-8-1z" style="fill:#928666"/><path class="st26" d="M595 1078v1h3l-3-1z"/><path class="st73" d="M975 1078v1h4l-4-1m7 1v1h5l-5-1z"/><path d="M1076 1079v1h5l-5-1z" style="fill:#9b9e89"/><path class="st68" d="M584 1080v1h3l-3-1z"/><path class="st71" d="M991 1080v1h5l-5-1z"/><path class="st28" d="m455.3 1081.7.3.7-.3-.7z"/><path class="st73" d="M1057 1081v1h9l-9-1m-37 1v1h26l-26-1z"/><path class="st64" d="M563 1084v1h3l-3-1z"/><path class="st68" d="m549.7 1087.3.7.3-.7-.3z"/><path class="st21" d="M535 1090v1h3l-3-1z"/><path class="st24" d="M685 1091v3h1l-1-3z"/><path class="st11" d="m523.7 1093.3.7.3-.7-.3z"/><path class="st47" d="m640.3 1093.7.3.7-.3-.7z"/><path class="st21" d="M684 1096v3h1l-1-3z"/><path class="st67" d="m472.7 1097.3.7.3-.7-.3z"/><path class="st18" d="M476 1098v1h13l-13-1z"/><path class="st19" d="m500.7 1099.3.7.3-.7-.3z"/><path class="st68" d="m638.3 1099.7.3.7-.3-.7z"/><path class="st11" d="M488 1101v1h5l-5-1m194.3 6.7.3.7-.3-.7z"/><path class="st19" d="M678 1128v3h1l-1-3z"/><path class="st64" d="m648.3 1132.7.3.7-.3-.7z"/><path class="st11" d="m677.3 1133.7.3.7-.3-.7z"/><path class="st44" d="m653.3 1136.7.3.7-.3-.7z"/><path d="m375 1149 16.8 138 8.2 72h116c17 0 38.5 3.6 55-.4 7.6-1.9 15.3-8.2 22-12.2 15.2-9 30.2-18.2 45-27.7 39.2-25.2 77.7-51.3 115-79.3 16-12 37.8-24.4 50-40.4-53.9-10-110.5-13.9-165-19.2-87.7-8.5-175.6-19.7-263-30.8z" style="fill:#bececc"/><path d="M573 1359h542v-124l-217-25.2-62-7-31-3.3-18 12.9-42 32.2-114 77.9-38 23.2-20 13.3m205 36-12 69h241c5.2 0 15.2 1.9 19.6-1 4.3-2.8 6.9-12.4 9.2-17 7.8-15.6 19.6-34 23.2-51H778z" style="fill:#aabaad"/></svg>