<svg version="1.1" id="Calque_1" xmlns="http://www.w3.org/2000/svg" x="0" y="0" viewBox="0 0 612 792" style="enable-background:new 0 0 612 792" xml:space="preserve"><style>.st1{fill:#8e9989}.st7{fill:#aab9ac}.st9{fill:#75683d}.st10{fill:#faeacf}.st11{fill:#c8d7d6}.st12{fill:#afa391}.st14{fill:#a36322}.st15{fill:#ed9035}.st16{fill:#ebe5dc}.st17{fill:#d7cbba}</style><path d="M110.5 145.5c4.4-13.7 7.3-27.7 10.9-41.6 4.9-18.9 9.5-37.8 14.3-56.7 2.8-11 5.6-21.9 8.3-32.9.4-1.6.7-2.2 2.7-1.9 11.8 1.7 23.6 3.1 35.4 4.7 11.7 1.6 23.4 3.3 35.1 4.9 1.3.2 2 .7 1.9 2v97.9c1.4 1.8-.2 4 .3 5.6.2-1.8 0-3.8 1.1-5.6 2.6-11.4 5.3-22.8 7.9-34.3 4.4-19.3 8.7-38.7 13.1-58 .3-1.1.6-2.2.8-3.4 1.1-4.8 0-4.2 5.4-4.2h285.2c1 0 2.2-.4 3.1.4-1 .7-2.1.2-3.2.2h-42.2c-.8 0-1.6.3-1.9.1.3.1 1.1 0 1.8 0 14 0 28 0 42 .1.8 0 2.1-.8 2.5.7-.7.7-1.7.7-2.6.7-14.9 0-29.8.1-44.7-.1-2.2.1-4.5 0-6.7 0H248c-3.1 0-3.3.2-4 3.2-6.4 28.3-12.9 56.5-19.3 84.8-1.2 5.2-2.5 10.4-3.6 15.6-.1.5-.2 1-.4 1.4-.4 1.1-.6 2.5-2.1 2.3-1.6-.2-1.3-1.7-1.4-2.8-.1-1 0-2 0-3V26.9c-.1-3-.1-3.1-3-3.5-21.7-3-43.4-5.9-65.1-8.9-3-.4-3.2-.3-3.9 2.7-5.8 23-11.5 46.1-17.3 69.1-6.3 24.8-12.5 49.6-18.7 74.4-.3 1.3-.4 3.5-2.4 3.1-1.9-.4-1.3-2.4-1.2-3.8 3.8-30.2 7.2-60.4 11.1-90.5 1.8-14 3.2-28.1 5.1-42.2.4-3 .3-3.2-2.7-3.2H95.9c-3.2 0-3.4.2-4.6 3.2-8.6 23.2-17.1 46.4-25.7 69.6-1.1 2.9-2.1 5.8-3.2 8.7-1.1 2.8-1.5 5.7-1.6 8.8-.3 7.8-.8 15.6-1.3 23.4-.4 7-.8 14-1.2 20.9-.4 8.1-.9 16.1-1.4 24.2-.4 7.1-.8 14.1-1.2 21.2-.4 7.9-.9 15.8-1.3 23.7-.4 7.1-.8 14.1-1.2 21.2-.4 8-.9 15.9-1.3 23.9-.4 6.9-.8 13.8-1.1 20.7-.4 8.1-.9 16.3-1.4 24.4-.4 6.8-.8 13.6-1.1 20.4-.4 8-.9 16-1.3 23.9-.4 6.8-.8 13.6-1.1 20.4-.5 8.2-.9 16.4-1.4 24.7-.4 7.1-.8 14.1-1.2 21.2-.4 7.9-.9 15.8-1.3 23.7-.4 6.9-.8 13.8-1.1 20.7-.4 8.1-.9 16.3-1.4 24.4-.4 7.1-.8 14.1-1.2 21.2-.4 7.9-.9 15.8-1.3 23.7-.4 6.9-.8 13.8-1.1 20.7-.5 8.1-.9 16.3-1.4 24.4-.4 7.1-.8 14.1-1.2 21.2-.4 7.9-.9 15.8-1.3 23.7-.4 7-.8 14-1.1 20.9-.3 7.1-.7 14.1-1.2 21.2-.3 4.1-2.2 7.8-3.4 11.7-2.4 7.9-4.9 15.7-7.3 23.6-.7 2.3-.6 2.5 1.9 2.8 13 1.9 26.1 3.2 39.1 5.1.3.1.5.2.8.3.6.8 2.3.3 2.3 1.8-6.6-.7-13.2-1.4-19.7-2.2-6.1-.7-12.1-1.6-18.2-2.3-2.7-.3-5.4-.7-8.1-1-1.5-.2-1.3-1-1-2.1 2.8-8.7 5.3-17.6 8.3-26.2 2.5-7.3 3.7-14.7 3.9-22.4.2-10.1 1.2-20.2 1.8-30.3.2-3.1.2-6.3.5-9.4.6-7.9.7-15.9 1.2-23.9.6-9.1 1-18.2 1.5-27.3.5-8.9 1-17.9 1.5-26.8.5-9 1-18 1.5-27.1.5-9 1-18 1.5-27.1.5-8.9 1-17.9 1.5-26.8l1.5-27.3c.5-8.9 1-17.7 1.5-26.6l1.5-27.3c.5-8.9 1-17.9 1.5-26.8.5-9 1-18 1.5-27.1.5-9 1-18 1.5-27.1.5-8.9 1-17.9 1.5-26.8.5-8.9 1-17.9 1.5-26.8.5-8.8 1-17.5 1.5-26.3.5-9.4 1.1-18.9 1.5-28.3.3-5.5.6-11.1 1-16.6.6-9.4 1.1-18.9 1.5-28.3.3-5.8.7-11.6 1-17.4.3-7.5.8-15.1 1.5-22.6.2-1.9 1-3.8 1.7-5.7 4.8-13.1 9.7-26.2 14.6-39.3 5-13.5 10-27 14.9-40.5.6-1.6 1.4-2.2 3.1-2.2h28.7c1.9 0 2.3.4 2 2.5-1.1 7.4-1.8 14.9-2.7 22.4-1.1 8.9-2.3 17.7-3.4 26.6-.9 7.4-1.7 14.8-2.6 22.2-.9 7.5-2.1 15.1-2.8 22.6-.9 8.9-2.7 17.7-2.7 26.7-.1 1 .1 2.1-.5 3.2.5-.7.2-1.8.9-2.5z" style="fill:#99a497"/><path class="st1" d="M535 23.5c-.8-.8-1.9-.5-2.9-.5H488v-.5h48c.9.8.4 1.9.4 2.8 0 32.7 0 65.3.1 98 0 .9-.6 2.3.6 2.6 1.2.3 1.4-1.2 1.9-2l15.9-25.2c.4-.7.9-1.3 1.5-2.2 1 2.2.7 4.3.9 6.3.8 6.5 1.1 13 1.7 19.6.8 8.6 1.6 17.1 2.4 25.7.6 6.2 1 12.4 1.6 18.6.8 8.8 1.6 17.6 2.4 26.5.5 6.1 1 12.2 1.6 18.3.8 9.1 1.7 18.1 2.4 27.2.6 6.5 1 13.1 1.6 19.6.6 6.6 1.3 13.2 1.9 19.8.1.7 0 1.5 0 2.2V781c0 3.3 0 3.3-3.4 2.9-14.4-1.8-28.9-3.6-43.3-5.5-4.1-.5-4.1-.5-3.1-4.4 3.2-12.1 6.5-24.1 9.7-36.2.8-2.8.3-3.3-2.5-2.7-25.1 5.5-50.2 11.1-75.3 16.6-.4.1-.9 0-1.2.2-2.2 1-2.3-.3-2.2-1.9.1-3.4 0-6.8 0-10.2 0-3.2-.1-3.3-3.2-2.5-12.8 3.3-25.6 6.5-38.5 9.8-14 3.6-28 7.2-42.1 10.7-.6.1-1.2.1-1.7.2-1.8.7-3.6-.2-5.4-.4-6.4-.8-12.8-1.5-19.1-2.4-6-.8-11.9-1.6-17.9-2.3-5.9-.8-11.8-1.5-17.7-2.2-5.9-.7-11.8-1.5-17.7-2.3-2.2-.3-4.4-.7-6.7-.7-.1-1.2.8-1.1 1.4-1.3 5.4 0 10.8 1 16.1 1.7 21.2 2.7 42.5 5.3 63.7 8.1 1.6.2 3.2 0 4.7-.4 26.9-6.7 53.8-13.7 80.7-20.5.2-.1.5-.1.7-.2 3.2-.8 4.2-.1 4.3 3.1.1 2.8 0 5.7 0 8.5 0 3.3.2 3.5 3.5 2.8 24.2-5.3 48.3-10.6 72.5-16 1.2-.3 2.4-.6 3.7-.7 1.8-.2 2.7.6 2.6 2.4 0 .8-.3 1.5-.5 2.2-3.1 12-6.4 24-9.5 36-.8 2.9-.6 3 2.4 3.4l38.7 4.8c4.2.5 4.2.5 4.2-3.7V280c0-7.2-1.2-14.3-1.7-21.4-.9-10.5-1.8-21.1-2.8-31.6-.9-10-1.8-19.9-2.7-29.8-.9-10.4-1.8-20.9-2.8-31.3-1.1-12.6-2.2-25.2-3.4-37.8-.7-7.9-1.3-15.8-2.1-23.6 0-.5 0-1-.4-1.6-.9.7-1.3 1.6-1.8 2.4l-13.5 21.6c-.9 1.4-1.6 3.5-3.5 3-2-.6-1.3-2.8-1.3-4.4V26.3c-.1-1-.1-1.9.2-2.8z"/><path d="M283 746.9c-.3 0-.6.1-1 .1v.3c5.6.7 11.3 1.4 16.9 2.1 7.1.9 14.2 1.8 21.4 2.7 6.1.8 12.1 1.5 18.2 2.3 6.1.8 12.1 1.5 18.2 2.3l9.3 1.2c-1.8 1.2-3.6 0-5.3-.2-9.8-1.1-19.5-2.5-29.3-3.8-8.6-1.1-17.3-2-25.9-3.1-8.4-1.1-16.9-2.2-25.3-3.3-7.1-.9-14.3-1.8-21.4-2.7-7.4-.9-14.8-1.9-22.1-2.9-7.1-.9-14.1-1.7-21.2-2.6-8.9-1.1-17.7-2.3-26.6-3.4-8.5-1.1-17.1-2-25.6-3.1l-30-3.9c-9.8-1.2-19.7-2.4-29.6-3.6l-30-3.9c-3.6-.5-7.2-.6-10.7-1.5-.5-1-1.9-.1-2.5-1.1 1.4-1.1 3-.8 4.6-.6 20 2.6 40 4.9 60 7.6 3.8.5 7.6.6 11.3 1.8-.1.5-.4 1.2.6.7.5-.2 1.1-.3 1.7-.5.7-.1 1.5-.1 2 .6 5.3 1.1 10.6 1.4 16 2.1 7.4 1 14.8 1.8 22.1 2.8 1.1.1 2.1.2 3.2-.1.8-.1 1.6-.2 2.2.6 0 .8-.6.5-.9.6 1 .1 1.9-.6 3-.7.8-.1 1.5-.2 1.9.7 0 .5-.6.3-.9.6 1-.3 1.9-.7 2.9-.9.7-.1 1.5-.1 1.9.6 5.3 1 10.7 1.4 16 2.1 6 .8 12 1.5 18 2.3 1.1.1 2.1.2 3.2-.1.8-.1 1.6-.2 2.2.6 0 .7-.5.5-1 .6 1.2.1 2.1-.6 3.1-.7.7-.1 1.5-.1 2 .6 5.3 1.1 10.6 1.4 16 2.1 7.2 1 14.4 1.7 21.6 2.8 1.3.2 2.5.3 3.7-.1.8-.1 1.6-.2 2.2.6 0 .8-.7.4-1 .6 1.1.1 2-.6 3.1-.7.8.6 1.7.3 1.8 1.5z" style="fill:#919b8c"/><path d="M220.5 122c.2 2.1-.7 4-1.4 6v-6h1.4z" style="fill:#b2b6a9"/><path d="M110.5 145.5c.2.9-.4 1.7-.8 2.5-.1-1-.6-2 .2-3 .2.2.4.3.6.5z" style="fill:#cfd2ca"/><path d="M60.5 718.5c-7.6-.9-15.1-1.8-22.7-2.7-6.2-.8-12.3-1.6-18.5-2.3-1.7-.2-2.2-.5-1.6-2.3 3.6-11.2 7-22.4 10.6-33.5.5-1.6.8-3.2.8-4.9.6-11.1 1.3-22.2 1.9-33.3.2-3.2.2-6.5.5-9.7.6-7.9.7-15.8 1.2-23.6.8-12.1 1.4-24.2 2-36.3.5-9 1-17.9 1.5-26.9s1-18.1 1.5-27.1 1-17.9 1.5-26.9 1-18.1 1.5-27.1 1-17.9 1.5-26.9 1-18.1 1.5-27.1 1-17.9 1.5-26.9 1-18.1 1.5-27.1 1-17.9 1.5-26.9 1-17.9 1.5-26.9c.5-8.9 1-17.7 1.5-26.6.5-9.1 1-18.2 1.5-27.4.5-8.9 1-17.7 1.5-26.6.7-12.1 1.4-24.2 2-36.3.5-9 1-17.9 1.5-26.9s1.1-18.1 1.5-27.1c.3-6 .8-11.9 1-17.9.2-4.2 2.3-8 3.7-11.9C71.1 79.6 78.6 59.6 86 39.6c1.7-4.7 3.5-9.4 5.1-14.1.5-1.5 1.3-2.1 2.9-2.1 9 .1 18 .1 27 0 1.7 0 2.1.6 1.9 2.2-1.4 9.1-2.4 18.2-3.4 27.4-1 8.6-2.2 17.3-3.3 25.9-.9 7.4-1.7 14.8-2.6 22.2-1.3 10.4-2.6 20.9-3.9 31.3-1.1 8.8-2.1 17.6-3.1 26.4-.1 1-.4 2-.4 2.9-.1.7-.2 1.7.7 1.9 1 .2 1.1-.8 1.2-1.5 1.8-7 3.5-14 5.3-21 3.7-14.9 7.5-29.8 11.2-44.7 6.7-26.7 13.4-53.5 20-80.2.6-2.2 1.2-3 3.8-2.6 9.2 1.5 18.4 2.5 27.6 3.8 7.5 1 14.9 2.1 22.4 3.2 5.6.8 11.1 1.7 16.8 2.2 2.4.2 2.8 1.1 2.8 3.2-.1 27.3 0 54.7 0 82v21.2c0 .7-.5 1.9.8 2 1 .1 1.1-1.1 1.2-1.9 4.5-19.6 9-39.3 13.5-59 3.4-14.8 6.7-29.6 10.1-44.4.4-1.6.7-2.7 2.9-2.7 80.1.1 160.1.1 240.2.1h.7c.9 1 .7 2.2.5 3.3-2.3 17.7-4.5 35.5-7.1 53.2-2.4 16.9-5 33.8-7.8 50.6-.2 1.5 0 3.3-1.6 4.2-3.3-.3-5.9-2.2-8.7-3.5-17.3-8-35.6-12.7-54.4-15.2-8.4-1.1-16.9-1.5-25.4-2.1-10-.7-20-.1-29.9.3-8.9.3-17.8 1.2-26.6 2.4-3.9.6-6.9 2.8-9.5 5.6-4 4.4-7 9.5-9.8 14.8-3.8 7.2-7.2 14.6-9.5 22.5-1.8 6.1-5.4 11.5-9.1 16.6-9 12.4-19.8 23.2-31 33.4-2.5 2.3-2.9 2.2-5.3-.3-4.6-4.7-9.9-8.1-15.8-11.1-12.6-6.4-29 3.5-31.5 16-.6 3.2-1.2 6.4-1 9.6.1 1.4-.3 2.4-1.6 3.1-16.6 9.8-22.1 25.9-24.2 43.7-1.7 14.1 1.5 27.5 7.4 40.3 2.3 5.1 5.6 9.7 9.4 13.8 2.2 2.4 2.3 2.7.2 5.2-2.2 2.5-2.4 5.4-1.7 8.5.5 2 1.4 3.9 2.4 5.7 1.6 2.7 1.6 3-1 4.8-7.2 5-13.8 10.7-19.8 17.2-8.1 8.8-15.6 18.2-22.1 28.3-2 3.1-4.1 6.3-6.2 9.4-1.6 2.3-2.1 2.4-4.4.9-2.7-1.7-5.4-3.3-8.8-3.1-6 .3-10.4 2.8-12.8 8.4-5.8 13.7-9.7 27.8-11.1 42.6-.8 7.5-1.3 15.1-.4 22.7.3 2.7-.8 4.5-3 6.1-7.3 5.6-14.5 11.5-21.8 17.2-.7.6-1.4 1.2-1.9 2-2.2 3.4-1.3 5.9 2.5 7.5 3.6 1.5 7.4.9 11.1.6 5.3-.4 10.6-1.1 15.9-1.4 1.9-.1 2.9.6 3.4 2.4 1.5 5.1 3.3 10.1 5.2 15.1 2.3 6.2 6.9 9.3 13.5 9.6 4.4.2 8.6-.8 12.8-1.9 18.2-4.9 36.6-8.7 55.3-11.4 1.4-.2 2.8-.3 4.2-.5 2.8-.4 3.5 0 4.3 2.8 2.7 9.4 5.7 18.6 8.4 28 .3 1 .5 2.1 1 3.1 1.1 2.1 2.2 4.3 5 4.3 2.5 0 5.7-2.6 6.4-5.2.4-1.5.6-3.1.9-4.7 1.8-9.5 3.7-19 5.5-28.5.5-2.6 1-3 3.7-3 4.2 0 8.5-.1 12.7 0 1.9 0 2.8-.7 3.5-2.4 6.9-16.7 11.7-34 14.6-51.9 1-6.5 1.3-13.1 2.4-19.6 2.2-14 8.3-25.7 20.6-33.6 2.8-1.8 3.7-1.7 5.8 1 15.1 19.3 29.5 39.1 41.5 60.5 7.8 14 14.5 28.5 16.8 44.7.2 1.5.9 2.5 2.4 2.7.8.1 1.6.3 2.3.8.8 1.1-.1 1.7-.7 2.3-7.4 7.2-14.4 14.7-22 21.7-5.5 5.1-11 10.4-16.6 15.4-9.2 8.4-18.6 16.6-28.2 24.5-.2.2-.4.2-.7.3-.4.1-.8.1-1.2 0-11.5-1.1-23-2.7-34.5-3.9-21.8-2.4-43.5-5.1-65.2-7.6-17-2-33.9-4-50.9-5.9-16.6-1.9-33.2-3.8-49.9-5.7-3.1-.4-6.3-.9-9.4-1.2-2.4-.2-2.6-.1-2.3 2.4 1.4 11.7 2.9 23.5 4.3 35.2 2.4 20.7 5.1 41.3 7.3 62 .3 3.2.7 3.5 4.1 3.5h75.5c1.5 0 3-.3 4.4.5.8 1.6-.7 2-1.6 2.5-5.4 3-10.8 6-16.2 8.9-12 6.4-24.3 12.6-36.6 18.3-19.2 8.9-38.5 17.5-58.3 25-1.6.9-3.2 1.4-5 .9z" style="fill:#c8d7d5"/><path d="M471 134.5c1.9-.6 1.2-2.5 1.4-3.6 2-12 3.8-24.1 5.7-36.2 1.5-10 3-19.9 4.4-29.9 1.1-8.3 2-16.7 3.1-25.1.7-5.4 1.7-10.8 2-16.2h47.5c.9.9.5 2.1.5 3.1v101c0 .7-.3 1.7.6 2 1 .3 1.4-.7 1.8-1.4 5-8 10.1-16.1 15.1-24.1.3-.4.5-.9.8-1.2.6-.7.6-2.3 1.8-2 .9.3.3 1.6.4 2.5.7 6.8 1.3 13.5 1.9 20.3.6 6.4 1 12.7 1.6 19.1.6 6.8 1.3 13.5 1.9 20.3.4 4.4.7 8.8 1.1 13.1.6 7 1.3 14 1.9 21 .6 6.4 1 12.9 1.6 19.3.6 6.7 1.3 13.4 1.9 20 .4 4.5.7 9.1 1.1 13.6.6 6.8 1.3 13.5 1.9 20.3.3 2.8.6 5.6.6 8.4 0 167 0 334.1.1 501.1 0 2.1 0 3-2.8 2.6-10-1.5-20-2.5-30.1-3.7l-12.3-1.5c-2-.2-2.6-.8-2-3.1 3.6-12.9 6.9-25.8 10.3-38.7.6-2.3.2-2.7-2.1-2.2-20.1 4.4-40.1 8.9-60.2 13.3-6 1.3-12 2.5-18 3.9-1.6.4-1.9-.1-1.9-1.5v-11.2c0-2.9-.2-3-3-2.3-20.4 5.2-40.8 10.5-61.2 15.7-6.9 1.8-13.9 3.4-20.7 5.3-2.7.7-5.3.2-7.9-.1-11.3-1.4-22.6-3-34-4.4-11.2-1.4-22.4-2.7-33.5-4.1-3-.4-6-1-9.1-1-.6-.7-1.3-.4-2-.5-.7.3-1.3.4-1.9 0-.6-.7-1.3-.4-2.1-.5-3.3.4-6.6-.5-9.8-.9l-31.2-3.9c-.2 0-.3-.1-.4-.2-.6-.7-1.3-.4-2.1-.5-.7.3-1.3.4-1.9 0-.6-.7-1.3-.4-2.1-.5-2.9.4-5.7-.5-8.6-.8-9.6-1.2-19.3-2.2-28.8-3.7-.6-.7-1.3-.4-2-.5-.7.3-1.3.4-1.9 0-.6-.7-1.3-.4-2.1-.5-.7.3-1.3.4-1.9 0-.6-.7-1.3-.4-2.1-.5-3.3.3-6.6-.5-9.8-.9l-31.2-3.9c-.2 0-.3-.1-.4-.2-.6-.7-1.3-.4-2.1-.5-.7.3-1.3.4-1.9 0-2.9-.9-6-1-9-1.4-7.7-1.1-15.4-2-23.1-3-8.7-1.1-17.4-2.1-26.1-3.1-5.9-.7-11.8-2.1-17.8-2v-.4c4.7-.4 8.8-2.7 13.1-4.4 18.8-7.3 37.2-15.6 55.4-24.3 16.3-7.7 32.2-16.2 48-24.9.5-.3 1-.6 1.4-1 .5-1.1 1.5-1.4 2.6-1.3h264.9c5.1 0 5.2 0 5.1-5.1-.2-12 0-24-.1-35.9-.1-5.6 0-11.1 0-16.7 0-2.1-.7-3-2.8-3.2l-41.4-4.8c-19.9-2.2-39.9-4.7-59.8-6.9-14.6-1.6-29.3-3.3-43.9-5.2-2.3-.3-4.7.3-6.7-1.5 2.4-3 5.7-5 8.5-7.6 4.4-4.1 9.2-7.8 13.7-11.9 15.1-13.5 29.8-27.4 43.9-41.9.6-.7 1.2-1.3 1.8-2 .7-.7 1.6-.4 2.3-.2 7.6 1.4 15.2 2.8 22.9 3.5 9.6.9 19.2 1.6 28.9 1.1 11.3-.7 22.3-2.4 33.1-5.8 7.7-2.4 14.9-5.7 21.8-9.8.8-.5 2.2-.8 1.7-2.4-1.4-4.5-1.1-9.2-1.9-13.7-.1-.8-.2-1.6-.4-2.4-1.6-15.2-3.4-30.3-5-45.4-.9-8.6-2.3-17.2-2.8-25.8-.4-1 .3-1.9.2-3.5-1.5 3.4-2.8 6.4-4.5 9.3-4.5 7.6-10.9 13.4-18.5 17.8-7.9 4.6-16.5 7.4-25.5 9-1.9.3-3.2 0-4.2-1.7-3.4-5.8-6.9-11.6-11.1-16.9-.4-.5-.8-1.1-.7-1.8 4.5-15.1 9-30.2 13.3-45.4.3-1 .6-2.1.6-3.2.1-1.3 1.1-1.8 2-2.3 3.1-1.9 5.8-4.1 8.6-6.4 1.5-1.2 1.8-2.4.7-4-1.4-2-2.6-4.1-4-6-.6-.9-1.4-1.7-1.1-2.9 3.3-11.4 6.3-23 9.2-34.5 6.1-23.9 12-47.8 17.3-71.8.3-1.4.7-2.7.7-4.2 1.5-2.7 3.9-4.5 6.1-6.4 7.8-7.1 15.6-14 23.9-20.5 4.8-3.7 9.5-7.6 14.5-11.1 2.4-1.7 3.1-3.4 2.6-6.3-2.3-11.5-4.3-23.1-6.5-34.6-1.6-8.7-3.3-17.3-4.8-26.1-.3-2.1-1.3-3.4-3.1-4.5-2.8-1.6-5.5-3.5-8.4-4.9-.7-.2-1.6-.5-1.5-1.6z" style="fill:#b2bfb8"/><path class="st1" d="M235.5 740.9c6.7.3 13.3 1.5 19.9 2.3 5.8.6 11.6 1.5 17.4 2.2 1.4.2 2.8.4 4.2.5-1.2.8-2.5.4-3.8.3-6-.8-11.9-1.5-17.9-2.3-6-.8-12.1-1.6-18.1-2.4-.9-.1-1.8-.2-2.7-.2.1-.1.2-.3.3-.4.2.1.5.1.7 0zM140.6 728.9c6.7.3 13.3 1.5 19.9 2.3 5.8.6 11.6 1.5 17.4 2.2 1.4.2 2.8.4 4.2.5-.6.7-1.4.5-2.1.4-5.9-.7-11.7-1.5-17.6-2.3-5.9-.7-11.7-1.5-17.6-2.1-1.7-.2-3.4-.8-5.2-.5.2-.2.3-.4.4-.4.1 0 .3 0 .6-.1zM192 735.4c6.6.2 13 1.5 19.5 2.2 6 .6 12 1.6 18 2.4-.6.7-1.4.5-2.1.4-5.9-.7-11.8-1.6-17.7-2.3-6.2-.8-12.4-1.5-18.7-2.2.1-.1.2-.3.3-.3.2-.1.5-.1.7-.2zM136.6 728.4h1.9c-.9.9-2 .2-3.1.6.3-.7.8-.5 1.2-.6zM184 734.4h1.9c-.9.9-2 .2-3.1.6.4-.7.9-.5 1.2-.6zM188 734.9h1.9c-.9.8-2 .4-3 .4.3-.5.8-.3 1.1-.4zM231.5 740.4h1.9c-.9.8-2 .4-3 .4.3-.5.8-.3 1.1-.4zM279 746.4h1.9c-.9.8-2 .4-3 .4.3-.5.8-.3 1.1-.4z"/><path class="st7" d="M296.5 583.5c9.6 1.2 19.2 2.1 28.8 3.4 8.1 1.1 16.3 1.5 24.4 2.7 10.5 1.5 21 2.3 31.5 3.8 6.4.9 12.8 1.4 19.2 2.2 6.6.8 13.1 1.5 19.7 2.3 5.2.6 10.3 1.4 15.5 1.7 4.8.3 9.5 1.4 14.3 1.6 1.5.1 2.2 1 2.1 2.7-.1 3.9.1 7.7-.1 11.6-.2 7.3 0 14.5-.1 21.8-.1 3.6-.1 7.2.1 10.9.2 4.8-.1 9.6-.1 14.3 0 .9-.4 1.2-1.2 1.2H183.5c-1 0-2.2.4-3.1-.5.2-.9.9-1.3 1.7-1.7 15.8-9 31.3-18.7 46.5-28.8 21.9-14.6 43.2-30 63.6-46.7 1-.8 2-1.8 3.3-2.2.3-.3.7-.3 1-.3z"/><path d="M295.5 583.5c-3.6 3.7-7.8 6.7-11.8 9.8-17.5 13.8-35.6 26.8-54.2 39.2-10.2 6.8-20.6 13.4-31.1 19.7-6 3.6-12 7.1-17.9 10.7-.7.3-1.3.7-2 1-.8-.9-1.9-.5-2.8-.5H97.5c-3.5 0-3.6 0-3.9-3.5-.7-9.3-2.1-18.6-3.1-27.8-1.1-10.3-2.6-20.6-3.9-31-.9-7.6-1.7-15.3-2.6-22.9-.7-5.9-1.5-11.8-2.4-17.7-.3-1.8.4-2.3 2-2.1 8.9 1.2 17.9 2.4 26.8 3.4 7.9.9 15.8 1.7 23.7 2.6 7.9.9 15.7 2.2 23.6 2.9 6.4.6 12.8 1.5 19.2 2.2 4.8.5 9.7 1.4 14.5 1.8 5.2.4 10.4 1.1 15.5 1.7 6.3.7 12.6 1.6 18.9 2.3 6.7.8 13.5 1.4 20.2 2.2 4.7.6 9.3 1.2 14 1.6 5.2.4 10.3 1.2 15.5 1.8 6.8.9 13.4 1.8 20 2.6z" style="fill:#bdcdcb"/><path class="st9" d="M471 134.5c3.6 2.1 7.1 4.3 10.7 6.3 1.7 1 2.5 2.2 2.9 4.2 2.4 13.8 5 27.6 7.6 41.4 1.4 7.4 2.7 14.9 4.2 22.3.3 1.4-.5 2.1-1.4 2.9-8.9 6.9-18 13.5-26.5 20.8-6.8 5.9-13.6 11.8-20 18-.2 1.1-1.1 1.6-1.8 2.3-5.2 5.3-10.5 10.5-15.7 15.7-6 6-11.6 12.4-17.7 18.3-1.4 1.3-2.5 2.9-3.5 4.6-3.3 5.3-2.6 11.1 1.7 15.5 3.3 3.4 3.5 3.2.6 7.4-5.4 7.7-10.7 15.5-16.2 23.2 5.8 4 11.2 8.5 16.3 13.4 2.9 2.8 5.6 5.9 8.2 9 .4.5.6 1 .6 1.6 1.8 2.7 3.6 5.6 5.5 8.2 1.5 2.1 1.1 3.4-.8 4.9-3.5 2.8-7.1 5.3-10.8 7.8-1.6 2.3-4.3 3.2-6.6 4.3-10.2 5.2-20.9 9-32.2 11.2-.9.2-1.8.3-2.7.6-.2.1-.5.1-.9.5 2.8 2.4 5.2 5.2 8 7.7 7.8 6.8 14.1 15 20.2 23.4.3.4.5.9.4 1.4 4.5 5.9 8.5 12.1 12.3 18.5.5.8.9 1.7 2.3 1.5 11.7-2.2 22.9-5.9 32.5-13.2 7.2-5.5 12.5-12.4 15.8-20.8.2-.5.4-1.1.6-1.6.2-.6.5-1.1 1.2-.8.7.3.7.8.5 1.4-.3.7-.5 1.4-.7 2.1.2 1-.2 1.8-.6 2.6-5.5 12.1-14.8 20.3-26.6 25.9-6.4 3-13 5.1-20 6.3-2.1.4-2.3 1.3-1.6 3.1 1.2 3.1 1.9 6.4 3 9.5.2.6.4 1.3.4 1.9 0 .7-.3 1.3-1 1.6-.8.3-1.3-.2-1.7-.7-.5-.7-.7-1.5-1-2.3-1-4-2.4-7.8-3.7-11.7-1.4-4.2-4.4-7.6-6.5-11.5-.2-.4-.5-.8-.8-1.3-4.2-6.2-9-12.1-13.4-18.2-.6-.9-1.3-1.7-2-2.5-2.3-3.1-5.3-5.8-7.8-8.7-4.5-3.9-8.5-8.2-13-12-.8-.7-1.6-1.2-2.6-1.3-10.3-.7-20.6-.8-30.9-.2-7.8.5-15.5 1.8-23.1 4.1-3.3 1-6.4 2.4-9.5 3.7-1.8.7-1.8 1.5-.7 2.9 6.4 8.2 12.7 16.5 18.7 25 10.2 14.1 19.6 28.8 27.4 44.3 5.7 11.3 10.8 22.9 12.5 35.7.2 1.5 1.1 2.1 2.5 2.4 3.8 1 7.7 1.7 11.5 2.3 14 2.4 28 3.7 42.2 3.2 3.1-.1 6.3-.4 9.5-.7 8.6-1 17.1-2.7 25.4-5.5 7.1-2.2 13.8-5.2 20.1-9.1 1.1-.7 2.1-1.7 3.6-1.1 1.4 1.7-.4 2-1.2 2.5-8.3 5.3-17.2 9-26.7 11.6-9.4 2.6-19 4-28.7 4.6-18.6 1.1-36.8-1.5-54.9-5-4.6-.1-5.5-2.9-6.1-7-1.5-10.5-5.4-20.2-10-29.7-10-20.6-23-39.4-36.5-57.8-3.7-5-7.6-9.9-11.4-14.9-1.3-1.7-2.3-2-4.2-.7-12.3 8-19.1 19.6-20.7 33.8-2.1 18.8-5.1 37.4-11.1 55.4-1.9 5.7-4.2 11.2-6.3 16.8-.5 1.5-1.4 2.1-2.9 2-4.6-.1-9.2.1-13.7-.1-1.8-.1-2.6.5-2.9 2.3-2 10.8-4.1 21.6-6.1 32.3-.6 3.1-3.3 6-6.3 6.6-3 .7-5.8-1.6-7-5.7-2.6-8.4-5.1-16.9-7.6-25.3-.5-1.8-1.2-3.5-1.5-5.3-.4-1.9-1.3-2.3-3.1-2.1-8.5 1.3-16.9 2.6-25.3 4.2-13.1 2.5-26 5.7-38.9 9-5.1 1.3-10.4 1.6-15.4-.7-3.1-1.4-5.4-3.5-6.6-6.8-2.2-5.7-4.3-11.4-5.9-17.2-.4-1.5-.9-1.8-2.4-1.6-7.2.7-14.4 1.3-21.6 1.9-1.8.2-3.5-.3-5.1-.8-2.2-.7-4.4-1.7-4.8-4.2-.4-2.6.9-4.8 3-6.5 7.7-6.1 15.4-12.2 23.2-18.2 1.3-1 1.8-2.1 1.7-3.8-1.6-23.5 2.8-45.9 12-67.4 2.7-6.4 11.5-9.8 17.9-7.1 1.7.7 3.3 1.6 4.7 2.8 1.3 1 1.8.8 2.6-.4 4.5-6.7 8.9-13.5 13.6-20 10.2-13.9 21.6-26.7 36.1-36.4 1.2-.8 1.3-1.4.5-2.5-1.9-2.7-3.3-5.6-3.5-8.9-.2-2.9.6-5.5 2.8-7.4 1.1-1 1.3-1.6.2-2.7-11.5-12.2-16.6-27-18-43.4-1.4-16 2.4-30.7 11.2-44.1 3.3-4.9 7.5-8.9 12.8-11.7 1.5-.8 2.1-1.5 1.9-3.4-1.5-14.2 9.8-27.7 23.9-28.2 5.3-.2 10.1 2.4 14.7 5 4.5 2.5 8.3 5.8 11.8 9.6.7.8 1.3 1.4 2.4.3 12.3-11.4 24.2-23.1 33.8-37 3.6-5.3 6.2-11.1 8.3-17.2 4.2-12.1 9.6-23.6 17.9-33.5 3.1-3.7 6.9-6.1 12.1-6.6 11.1-1.1 22.2-2 33.3-2.5 16.3-.6 32.5 0 48.6 2.3 21.2 2.9 41.5 8.7 60.5 18.7-.4.4-.2.4 0 .4z"/><path class="st7" d="M353.3 681.5h67.5c3.1 0 3.1.1 1.8 2.8-4.7 9.8-9.4 19.6-14 29.5-.7 1.6-1.6 2.2-3.4 2.2H279.5c-1.9 0-2.5-.2-2.1-2.5 1.8-9.7 3.5-19.5 5.1-29.3.3-2.1 1.2-2.8 3.4-2.8 22.4.1 44.9.1 67.4.1z"/><path class="st10" d="M405.9 441.4c5.5 7.5 9 15.8 11.3 24.8.1.6.3 1.1.5 1.7.3.6.4 1.7 1.5 1.2.8-.3.5-1.1.3-1.8-1.2-4-2.4-7.9-3.7-11.9-.5-1.6-.5-2.2 1.4-2.6 11.2-2.1 21.8-5.8 31.2-12.5 7.9-5.6 13.4-13.1 17.2-21.9 1 3.4 1 7 1.4 10.5 1.3 10.1 2.4 20.2 3.5 30.3.9 8.4 1.7 16.8 2.6 25.2.2 2 .6 3.9.4 5.9-.6 1-1.8 1.1-2.7 1.5-3.4 1.4-7 2.5-10.5 3.8-.8.3-1.7.7-2.6.4-.2-.1-.4-.3-.5-.6.5-13.8-3.2-26.6-8.9-39.2.5 3 .7 5.9.9 8.7.2 2.9.2 5.8 0 8.7-.5 6.9-1.5 13.7-3.6 20.4-.6 2-1.2 4-2.4 5.7-.2.2-.4.4-.6.5-2.6 1.1-5.5 1.1-8.3 1.4-10.3 1.2-20.5 1.4-30.7-1.2-8.9-2.3-16.9-6.5-23.3-13.3-1-1.1-2-2.2-2.8-3.5-.1-.2-.2-.5-.2-.8.2-1 .9-1.6 1.6-2.2 8.8-7.6 15.5-16.9 20.9-27.1 1.8-3.3 3.2-6.8 4.5-10.3.3-.5.3-1.6 1.6-1.8z"/><path class="st11" d="M421 361.5c-7-8.8-15.2-16.3-24.4-22.7-1.5-1-1.3-1.6-.4-2.9 5.6-7.9 11.2-16 16.7-23.9.7-1 1.3-1.7 0-2.9-8.5-7.6-7.1-15-.9-21.7 11.7-12.5 23.5-24.9 36-36.6.1-.1.3-.2.4-.3 1 1.2.1 2.4-.2 3.5-2.9 12.8-6 25.5-9 38.2-4.9 21-10.5 41.8-16 62.6-.4 2.3-.5 4.9-2.2 6.7zM401 431.5c-5.3-6.8-10.2-14-16.4-20-4-3.9-8.1-7.7-12.1-11.5-.4-.4-1-.7-1.3-1.3 15.6-3.1 30.2-8.3 43.8-16.3.9.6.5 1.4.3 2.2-4.4 15.1-8.8 30.2-13.3 45.3-.3.6-.7 1.1-1 1.6z"/><path class="st12" d="M457.6 496c5.3-1.8 10.6-3.7 15.8-5.5 1.1 3.4 1.1 6.9 1.5 10.4.2 1.9.4 3.8 1 5.5-2.1.6-3.8 2-5.7 3-5.7 3-11.4 6-17.8 7.5-.4-.8 0-1.5.2-2.2 2-5.6 3.5-11.2 4.1-17.1.2-.6.2-1.2.9-1.6z"/><path d="M364.2 274.5c-.8 25.2-7 48.7-22.4 69.1-7.8 10.3-17.5 18.7-29.7 23.8-5.6 2.4-11.2 1.5-16.9 1.5-16.1-.2-25.3-10.5-33.7-22.2-4.3-6-5.2-13.3-6.9-20.1-5.1-19.8-3.2-39.4 3.2-58.7 4.1-12.5 9.3-24.4 17.6-34.7 7.7-9.5 16.6-17.6 28.2-22.1 17.6-6.8 36.2-1 47.1 14.8 6.7 9.8 10.3 21 12.3 32.6.9 5.3 1.2 10.6 1.2 16z" style="fill:#e6dfd5"/><path class="st14" d="M483 147c1.1 6.2 2.3 12.3 3.5 18.5 2.6 14 5.2 27.9 7.9 41.9.3 1.4.1 2.4-1.2 3.4-10.5 7.9-20.9 16.1-30.8 24.7-7.3 6.3-14.4 12.7-21.2 19.6-6.4 6.5-12.9 12.9-19.3 19.4-2.3 2.3-4.1 5-6.7 7-1.6-1-2.1-2.8-2.8-4.3-14.9-33.4-24.6-68.2-29.4-104.4-1.4-10.5-2.4-21-2.6-31.5 0-1.1-.1-2.2.2-3.2 2-3.6 5.7-5 9.1-6.7 6.5-3.2 13.4-4.5 20.8-4.6 10.8-.2 21.2 1.9 31.3 5.3 1.6.5 3.3 1.2 5.1 1.2 1.1 0 2.1.6 3.1 1 10 4 20.1 8.1 30.1 12 .8.3 1.8.7 2.9.7z"/><path class="st12" d="M380.9 138.1c.7 25.8 4.4 51.2 10.6 76.3 5.7 23.1 13.6 45.5 23.6 67.1-1.9 2.4-4.3 4.3-6.2 6.8-5.1 7-4.9 14 1.1 20.3 1.4 1.4 1.5 2.3.3 3.9-5.5 7.6-10.7 15.4-16.2 23.1-1.3 1.8-1.3 2.7.7 4.1 11.4 7.9 21.4 17.2 29 28.8 2.3 3.5 2.3 3.5-1.1 6.1-10.4 8.1-22.2 13.6-34.7 17.6l-1.5.3c-.1-1.5 1.4-1.7 2.2-2.4 5.5-4.3 9.5-9.4 10.8-16.5.6-3.1-.3-5.5-2.3-7.7-5.2-5.6-11.7-9-18.5-12-5.3-2.3-10.8-4-16.2-5.8-2-.6-3.1-.2-4 1.7-6.1 13.2-17 19.5-31 21.4-5.5.8-11 .3-16.5.4-.8 0-1.9.3-2.1-1.1 4.7-1.9 9.4-3.7 13.6-6.6 14.9-10.1 25.8-23.6 32.9-40.2 5-11.7 8.3-23.8 9.8-36.4 2.1-17.9.2-35.3-7.5-51.9-3-6.3-6.2-12.3-11.2-17.2-6.5-6.3-14.1-10.1-23.1-11.3-11.7-1.6-22 1.7-31.5 8.3-15.1 10.4-25.3 24.5-32.3 41.7-1.6-3.3-2.9-6.6-4.7-9.5-6.5-10.3-14.5-18.8-26.2-23.2-1.9-.7-3.8-1.2-5.8-1.3-1.4-2.4-1.8-5-1.5-7.7.3-2.9 2.4-4.7 5.7-4.8 3.3-.1 6.4 1.1 9.4 2.2 7.1 2.5 13.5 6.4 20 10.1 1.8 1.1 3 1.1 4.4-.7 5.7-7 11.9-13.4 19.6-18.3 14.9-9.4 30.9-11 47.8-6.9.3.1-.1 0 .2.1 7.3 1.4 13.6 4.3 17.2 11.3.4.8 1.1 1.5 1.6 2.2 2.4 3.2 2.7 3.2 5 0 4-5.8 5.7-12.2 5.3-19.1 0-.9-.2-1.8 0-2.7 1.1-1.4 1.2-3.1 1.5-4.7 1.5-9.7 4-19.2 8.1-28.2 2.8-6 6.1-11.6 11-16.2.9-.7 1.5-1.7 2.7-1.4z"/><path class="st10" d="M309 370.5c.1.1.3.3.4.3 12.8.7 25.5.7 36.7-7 5.7-3.9 9.7-9 12.4-15.3.6-1.3 1.1-2 2.7-1.5 10 3.1 19.9 6.4 28.9 12.1 2.4 1.5 4.5 3.4 6.6 5.3 3.8 3.3 4.4 7.2 3 11.9-2 6.7-6.3 11.6-12 15.4l-1.2.9c-8.6 3.3-17.5 4.5-26.8 3.9-18.2-1.2-36.3-.5-53.5 6.5-13.7 5.5-24.1 14.6-29.5 28.7-.1.3-.2.6-.3 1-1.7-.8-1.3-2.5-1.5-3.9-.8-5.6-1.9-11.1-3.4-16.5-1.8-6.3-4.4-12.1-9.2-16.8-5.1-5-11.1-6.5-17.9-5.4-8.4 1.3-15.6 5.5-22.7 10-12.8 8.1-25.9 15.6-40.3 20.8-5 1.8-10.2 3.1-15.6 2.9-6.8-.2-11.4-4.2-12.4-11-1-7 0-13.7 2.6-20.2 4.4-7.4 9.9-14 15.5-20.5 7.7-9 16.2-17 26.2-23.4 1.6-1 1.5-1.8.5-3.2-1.8-2.4-3.2-5-3.8-8-.4-1.9-.1-3.6.8-5.3 1.7-3.2 2.7-3.4 5.5-1.1 2.4 1.9 4.9 3.7 7.4 5.5 5 6.8 11.9 10.7 20 12.7 1.7.4 3.3.5 4.9.3 7.4-1 14.5-2.9 20.6-7.5.8-.6 1.6-1.6 2.8-.8 5.8 10.6 12.8 20 23.6 26 3.1 1.7 6.3 3 9.9 3.2 4.7.2 9.5.6 14.2.8 1.6-.2 3.3-.6 4.9-.8z"/><path class="st15" d="M156 392.4c-.7 4.6-2 9.1-2.3 13.7-.2 3.4.1 6.7 1.3 9.8 1.8 4.7 5.6 6.8 10.5 7.1 7.2.3 13.8-1.9 20.3-4.6 13.9-5.6 26.8-13.3 39.4-21.3 5.7-3.6 11.8-6.4 18.6-7.6 8.5-1.5 15.6.9 21.1 7.6 3.6 4.4 5.9 9.4 7.2 14.9-1.3.2-1.7-.9-2.3-1.6-4.1-4.4-8.6-8.3-14.4-10.5-3.2-1.2-6.5-1.9-10-1.8-1.4 0-1.7.4-1.3 1.7 1.2 4.2 2.2 8.4 2.9 12.7 2.9 19.4-2.4 36.2-16 50.4-4.4 4.6-9.4 8.4-14.6 12.1-3.9 2.8-8.5 3.7-12.9 5.3-11.8 4.2-23.4 8.8-34.5 14.4-8.8 4.4-17.3 9.4-24.1 16.7-2.4 2.6-4.3 5.5-5.4 8.9-1.1 3.3-.6 6.6.6 9.8.3.9 1 1.8.6 2.8-4.3 0-8.6.9-12.7-1.3-2.6-1.4-4.5-3.2-5.7-6-5.6-13.9-9.2-28.2-11-43-3-25.2 1-49.5 10.9-72.8 2.6-6 11.5-8.9 17.3-5.6 1.4.8 2.9 1.8 4.1 2.9 1.4 1.3 2.1 1 3.1-.5 2.8-4.8 6.1-9.5 9.3-14.2z"/><path class="st14" d="M140.4 532.9c-4.5-8.5-2.5-15 4.1-22.2 5.7-6.1 12.7-10.5 19.9-14.4 14-7.6 28.8-13.4 43.8-18.4 5.9-1.9 10.6-5.5 15.2-9.2 7.4-5.9 13.6-13 17.9-21.5 2.9-5.7 4.4-11.7 5.3-18.1 1.3-10.5-.7-20.5-3.5-30.4-.1-.5-.2-.9-.3-1.4 8-.5 15 1.8 21.2 6.5 3.1 2.3 5.5 5.2 8.1 8 2.1 6.2 3 12.6 3.9 19.1.1.5-.1 1.2.5 1.5-2.2 5.2-2.9 10.7-3.4 16.2-1 12.3-3.2 24.3-6.3 36.2-2.6 10.1-6.1 19.8-9.9 29.5-.7 1.7-1.5 2.1-3.1 2-3.9-.1-7.8-.1-11.7 0-8.8.1-17.5 1.1-26.3 1.9-15.2 1.4-30.2 4.1-45.1 7.1-8.8 1.8-17.5 4-26.1 6.4-1.4.6-2.8.9-4.2 1.2z"/><path class="st12" d="M377.5 483.5c3 3.2 5.9 6.5 9.5 9 7.7 5.3 16.2 8.1 25.5 9.1 10.1 1.1 20 .1 30-1.5.6.8.1 1.4-.2 2.1-3.5 7-7.9 13.3-13.3 18.9-.6.6-1.3 1.1-2.1 1.4-3 1-6.1.8-9.1.9-16.3.6-32.3-1-48.3-4.2-2.4-.5-4.7-1-7-1.5-1.3-.3-1.9-.9-2-2.1-1.1-10.1-4.7-19.5-8.9-28.7-10.2-22.2-23.7-42.3-38.3-61.8-4.3-5.8-8.7-11.5-13.1-17.4 7-4 14.4-6.1 22.1-7.7 12.9-2.6 26-2.2 39-1.9 1.9 0 3.8.4 5.7.4.8 0 1.4.2 2 .8 4.6 4.4 9.3 8.8 14 13.2-.4 5.4-2.2 10.4-4.4 15.2-3.1 6.9-7 13.4-12.2 19.1-1 1.1-.9 2.2-.5 3.5 2.8 8.5 5.9 17 8.8 25.5.1.2.1.5 0 .7-2.7 4.6-5.5 9.2-8.1 13.7 2.6-1.9 5.3-3.9 8.2-5.8.8-.5 1.6-1.4 2.7-.9z"/><path class="st10" d="M357.9 188.6c1.2 3.3.6 6.7.1 10-.9 5.4-3.2 10.1-6.7 14.3-1 1.2-1.7 1.7-2.9 0-2-3-4.4-5.7-6.4-8.6-1.5-2.3-3.4-3.6-6-4.5-14.3-4.9-28.7-6.5-43.2-1.3-11.4 4-20.7 11.1-28.4 20.4-1.2 1.4-2.6 2.7-3.5 4.2-1.2 1.9-2.3 1.7-4 .7-6.7-4-13.5-7.9-20.8-10.7-2.9-1.1-5.9-2.2-9.2-2-3.4.2-4.8 1.8-5 5.2-.1 2.3 1.1 4.3 1 6.6-4-.4-7.9-.2-11.8.6-1 .2-2 .3-2.9.6-3.2.9-3.2.9-3.1-2.4.2-13.3 8.3-22.5 21.6-24.6 1.6-.2 3 .3 4.4.6 8.8 2.3 16.1 7 22 13.9 1.4 1.7 2.2 1.8 3.9.3 7.8-7.2 15.4-14.5 22.4-22.4 9.4-10.6 17.4-21.9 21.7-35.7 2.4-7.9 6.4-15.3 10.8-22.4.3-.5.7-.9 1-1.4 2-1.6 4.5-1.6 6.8-2.1 9.8-2.1 19.6-3.8 29.6-3.5 9 .3 17.9 1.5 25.7 6.7 1.9 1.3 4 2.4 5.2 4.5.2 1.2-.6 1.9-1.3 2.6-9.4 8.9-14.3 20.3-17.5 32.6-1.4 5.8-2.5 11.8-3.5 17.8z"/><path class="st16" d="M194.6 322.5c-6.1-6.6-9.5-14.5-12.1-22.9-5.7-18.6-4.9-36.7 4.1-54.2 4.6-8.9 11-15.8 20.7-19.1 3.9-1.3 8-2 12.2-1.7.7.3 1.2.8 1.7 1.4 9 11.5 16.3 23.9 19.4 38.4 1.1 5.2 1.6 10.5 1 15.8-.1.8-.1 1.7-1 2.1-3.7-.5-5.6 1.7-6.9 4.7-3 7.2-2.8 14.2 1.3 21 .4.6.8 1.2.9 2-1.6 4.4-4.8 7.6-8.4 10.3-8.3 6.2-17.6 6.3-27.2 4.4-2.1-.3-4.2-.6-5.7-2.2z"/><path class="st17" d="M240.5 282c1.1-1.8.9-3.9.9-5.7-.5-17.2-7.5-32-17.5-45.7-1.5-2-2.9-4-4.3-6 6.6-.3 12.4 2.2 17.6 5.9 10 7 16.8 16.5 21 27.8.5 1.3.2 2.4-.2 3.6-3 8.2-5.5 16.5-6.7 25.2-1.5 10.9-1.9 21.7.1 32.5.5 2.6 0 4.6-1.8 6.5-2.5 2.6-5 5.1-8.1 7-4 2.4-8.1 4.2-12.9 3.9-3.1-.2-6.1.2-9.2.4-2.5.2-4.8-.3-7-1.3-6.9-3.2-13.1-7.5-17.8-13.7 7.3 2.5 14.7 3.5 22.3 1.9 8.5-1.8 14.5-7 18.7-14.5.3-.1.6-.1 1-.1 4.5.8 6.1-.1 7.9-4.3 2.5-6 2.5-12 .1-18.1-1-2.1-3-3.3-4.1-5.3z"/><path class="st15" d="M380.1 136c-5.8-5.8-13-8.7-20.9-10-13.5-2.2-26.8-.1-39.9 2.7-2.1.4-4.2.9-6.3 1.3 2.1-4 5-7.2 8.5-9.9 3.5-2.8 7.9-2.5 11.9-3 16.4-1.8 32.8-2.6 49.3-2 29 1.1 57.1 6.1 83.3 19.2 5 2.5 9.7 5.4 14.5 8.3 1.7 1.1 2.7 2.4 2.6 4.4-.1.7-.4 1-1.2.7-11.6-4.8-23.4-9-34.8-14.2-9.1-3.5-18.5-6.1-28.2-7-12.9-1.2-25.3.4-36 8.4-.9.6-1.7 1.3-2.8 1.1zM374.4 476.5v-.5c-.3-1 0-1.8.4-2.6 7.8-16 12.5-32.9 14.5-50.5.1-.8 0-1.7 1.1-1.9 5.4 6.6 10.5 13.6 15.4 20.5-1.2 2.7-2.3 5.5-3.5 8.2-5.8 13-14 24.2-24.9 33.4-1.8-1.8-3-3.9-3-6.6z"/><path class="st10" d="M390.5 420.9c-.7 4.6-1.3 9.3-2.2 13.9-2.8 14.3-7.3 28.1-13.9 41.1-2.4-5.1-3.7-10.6-5.8-15.9-1.3-3.5-2.4-7.1-3.7-10.6-.5-1.3 0-2 .7-2.9 6.6-7.2 11.2-15.6 14.6-24.7 1.2-3.1 1.3-6.5 2.8-9.5 2.5 3 5.5 5.4 7.5 8.6z"/><path d="M256.4 341.1c-.8-.1-1.2.4-1.7.8-6.9 5.5-15.1 7.9-23.6 8.2-5.4.2-10.6-2.5-15.3-5.5-3.2-2.1-6.2-4.4-7.7-8.2.5.2.9.3 1.4.5 3.5 1.5 6.9 2.9 11 2.2 3.5-.6 7.1-.2 10.7-.5 6.5-.4 11.4-3.8 16.1-7.7 1.8-1.5 3.5-3.1 5.2-4.7 1 4.8 3.4 9.6 3.9 14.9z" style="fill:#afa491"/><path class="st14" d="M426.9 522.5c5.8-6.1 11-12.7 14.7-20.3l.9-2.1h.1c.8-.7 1.6-1.1 2.6-1.4 3.3-.8 6.6-1.7 9.9-2.6.8-.2 1.6-.5 2.4-.1h.1c-.4 7.3-2.2 14.3-5.1 21-5.3 2.4-11 3.4-16.6 4.5-2.9.5-5.9 1.3-9 1z"/><path class="st16" d="M230.6 552.1c-.2 2.8-2.6 5.2-5.2 5.4-2.1.2-3.5-1.2-4.4-4.2-3.3-10.8-6.5-21.6-9.9-32.6 4.1-.5 8-1.1 11.9-1.2 1 .9 1.3 2.1 1.5 3.3 1.7 7.8 3.5 15.5 5.3 23.2.5 2 .9 4 .8 6.1zM82.6 505c-.5-2.1.4-3.9 1.8-5.1 7.9-6.4 16-12.7 24.3-19.3.8 5 1.6 9.7 2.3 14.4.2 1.4-1 1.6-1.9 1.9-8 2.8-16.1 5.2-24 8.2-.7.2-1.6.6-2.5-.1z"/><path class="st17" d="M230.6 552.1c-2.4-10.2-4.7-20.3-7.1-30.5-.2-.7-.3-1.4-.5-2.2 4.1-.3 8.3-.7 12.4-1 1.4-.1 1.8.4 1.5 1.7-2.1 10.7-4.2 21.4-6.3 32zM82.6 505c5.2-1.3 10.2-3.5 15.3-5 3.7-1.1 7.3-2.4 10.9-3.6.8-.3 1.9-.3 2.2-1.4.8 3.2 1.6 6.4 2.3 9.7.2.9-.1 1.3-1.1 1.4-7.4.6-14.7 1.5-22.1 1.9-2.7.1-5.5-.6-7.5-3z"/><path d="M457.5 496c-5 1.4-9.9 2.7-14.9 4.1 3-7.3 4.7-14.8 5.5-22.6.8-7.7.2-15.4-.5-23.1 1.7 2.2 2.6 4.7 3.7 7.2 4.1 10 6.6 20.3 6.6 31.2 0 1-.3 2.1-.4 3.2z" style="fill:#ed9135"/><path d="M374.4 476.5c1.1 2.2 2.1 4.4 3.2 6.6v.4c-4.1 2.2-7.6 5.5-11.9 7.7 2.7-5 5.3-10.1 8.7-14.7z" style="fill:#a36422"/><path d="M317.9 301.4c-.1-4.2 1-8.6 3.5-12.7 4-6.7 11.8-6.9 16-.3 5.2 8 4.9 20-.6 27.8-4.1 5.8-10.1 5.9-14.4.3-3.3-4.4-4.5-9.3-4.5-15.1z" style="fill:#7f684a"/><path class="st9" d="M380.1 136c11.6-9.5 25.1-11.7 39.6-10.1 8.6.9 16.9 3.2 25.1 6 .9.3 2 .4 2.3 1.6-2.1 1.3-3.9-.3-5.6-.9-11.7-4-23.6-6-35.9-5-8.5.6-16.3 3.7-23.1 8.9-.6.4-1 1.1-1.5 1.7-4.5 3.4-7.6 7.9-10.3 12.7-5.8 10.1-8.7 21.1-10.6 32.5-.2 1.2-.4 2.5-.5 3.7-.1 1-.5 1.5-1.5 1.6-1-1.4-.1-2.9.1-4.3 1.9-12.1 4.9-23.8 11-34.6 2.8-5.2 6.6-9.7 10.9-13.8z"/><path class="st14" d="M196.5 463c7.5-9.5 13.1-19.9 15.7-31.9.5-2.2.9-4.4 1.3-6.6-.1-.2-.1-.3-.1-.5 2.5-3.8 10.1-5.6 13.9-3.3 2.3 1.4 2.6 2.2 1.8 4.7-2.1 6.7-5.9 12.4-10.3 17.8-5.8 7-12.5 13.1-19.6 18.8-.8.7-1.5 1.7-2.7 1zM128.6 459.5c-.3-3-2.3-5.3-3.4-7.9-2.5-6-4.4-12.1-4.2-18.8.1-5.5 1.8-10.4 4.9-14.9.5-.7 1.2-1.4 1.2-2.4 1.2.2 1.2 1.3 1.5 2.1 4.1 13.2 4.1 26.5 1.3 40-.2.7-.2 1.7-1.3 1.9z"/><path class="st9" d="M196.5 463c2.7-1.1 4.6-3.3 6.7-5.1 8.4-7.2 16.3-15 21.9-24.7 1.6-2.8 2.7-5.9 3.8-8.9.3-1 0-1.7-.8-2.3-3.7-2.9-7.1-2.3-12.7 1-.7.4-1.2 1.1-1.9 1.6-1.4 1.1-2.8 2.3-4.3 3.4-.4.3-.9.6-1.3.3-.5-.4-.5-.9-.1-1.3 4.6-3.9 8.7-8.6 15.5-8.5 3 0 5.2 1.5 7.1 3.6.8.9.5 1.8.2 2.8-2.1 7.2-6 13.3-10.7 19-9.5 11.2-20.5 20.5-32.9 28.4-.4.2-.7.4-1.1.7-.6.4-1.4 1-2 .2-.8-1 .4-1.3.9-1.6 3.2-2.2 6.7-4.1 9.7-6.6.7-.8 1.3-1.4 2-2z"/><path d="M128.6 459.5c3.6-14.8 3.5-29.5-1.5-44-.7-1.9-1.4-3.7-2.2-5.6-.2-.6-.5-1.2.2-1.5.8-.3 1.2.3 1.4 1 2.4 5.9 4.5 11.8 5.5 18.1 1.9 12.1.7 24-2.5 35.7-.1.2 0 .5-.1.7-.2.6-.3 1.5-1.2 1.3-1-.2-.8-1.2-.6-1.9.3-1.3.7-2.5 1-3.8z" style="fill:#76683d"/><path d="M240.5 282c2 .8 3.3 2.3 4.2 4.3 3.2 7.1 3.2 14.2-.5 21.1-2.1 3.9-4.8 4.6-8.6 2.5-5.7-7.6-5.7-15.8-2.1-24.1 1.5-3.5 3.7-4.6 7-3.8z" style="fill:#7f684b"/></svg>