<svg version="1.1" id="Calque_1" xmlns="http://www.w3.org/2000/svg" x="0" y="0" viewBox="0 0 612 792" style="enable-background:new 0 0 612 792" xml:space="preserve"><style>.st1{fill:#8e9989}.st7{fill:#aab9ac}.st10{fill:#637339}.st11{fill:#898362}.st12{fill:#8a8463}.st13{fill:#87815f}.st14{fill:#888260}.st15{fill:#8b8565}.st17{fill:#6bbb49}.st18{fill:#6ac74b}.st19{fill:#c8d7d6}.st20{fill:#4b9134}.st23{fill:#8a202c}.st24{fill:#529d3a}.st25{fill:#c73141}.st26{fill:#ebe5dc}.st27{fill:#d7cbba}.st28{fill:#6c803f}.st32{fill:#5a7c37}.st36{fill:#8d825e}.st44{fill:#75673d}</style><path d="M110.5 145.5c4.4-13.7 7.3-27.7 10.9-41.6 4.9-18.9 9.5-37.8 14.3-56.7 2.8-11 5.6-21.9 8.3-32.9.4-1.6.7-2.2 2.7-1.9 11.8 1.7 23.6 3.1 35.4 4.7 11.7 1.6 23.4 3.3 35.1 4.9 1.3.2 2 .7 1.9 2v97.9c1.4 1.8-.2 4 .3 5.6.2-1.8 0-3.8 1.1-5.6 2.6-11.4 5.3-22.8 7.9-34.3 4.4-19.3 8.7-38.7 13.1-58 .3-1.1.6-2.2.8-3.4 1.1-4.8 0-4.2 5.4-4.2h285.2c1 0 2.2-.4 3.1.4-1 .7-2.1.2-3.2.2h-42.2c-.8 0-1.6.3-1.9.1.3.1 1.1 0 1.8 0 14 0 28 0 42 .1.8 0 2.1-.8 2.5.7-.7.7-1.7.7-2.6.7-14.9 0-29.8.1-44.7-.1-2.2.1-4.5 0-6.7 0H248c-3.1 0-3.3.2-4 3.2-6.4 28.3-12.9 56.5-19.3 84.8-1.2 5.2-2.5 10.4-3.6 15.6-.1.5-.2 1-.4 1.4-.4 1.1-.6 2.5-2.1 2.3-1.6-.2-1.3-1.7-1.4-2.8-.1-1 0-2 0-3V26.9c-.1-3-.1-3.1-3-3.5-21.7-3-43.4-5.9-65.1-8.9-3-.4-3.2-.3-3.9 2.7-5.8 23-11.5 46.1-17.3 69.1-6.3 24.8-12.5 49.6-18.7 74.4-.3 1.3-.4 3.5-2.4 3.1-1.9-.4-1.3-2.4-1.2-3.8 3.8-30.2 7.2-60.4 11.1-90.5 1.8-14 3.2-28.1 5.1-42.2.4-3 .3-3.2-2.7-3.2H95.9c-3.2 0-3.4.2-4.6 3.2-8.6 23.2-17.1 46.4-25.7 69.6-1.1 2.9-2.1 5.8-3.2 8.7-1.1 2.8-1.5 5.7-1.6 8.8-.3 7.8-.8 15.6-1.3 23.4-.4 7-.8 14-1.2 20.9-.4 8.1-.9 16.1-1.4 24.2-.4 7.1-.8 14.1-1.2 21.2-.4 7.9-.9 15.8-1.3 23.7-.4 7.1-.8 14.1-1.2 21.2-.4 8-.9 15.9-1.3 23.9-.4 6.9-.8 13.8-1.1 20.7-.4 8.1-.9 16.3-1.4 24.4-.4 6.8-.8 13.6-1.1 20.4-.4 8-.9 16-1.3 23.9-.4 6.8-.8 13.6-1.1 20.4-.5 8.2-.9 16.4-1.4 24.7-.4 7.1-.8 14.1-1.2 21.2-.4 7.9-.9 15.8-1.3 23.7-.4 6.9-.8 13.8-1.1 20.7-.4 8.1-.9 16.3-1.4 24.4-.4 7.1-.8 14.1-1.2 21.2-.4 7.9-.9 15.8-1.3 23.7-.4 6.9-.8 13.8-1.1 20.7-.5 8.1-.9 16.3-1.4 24.4-.4 7.1-.8 14.1-1.2 21.2-.4 7.9-.9 15.8-1.3 23.7-.4 7-.8 14-1.1 20.9-.3 7.1-.7 14.1-1.2 21.2-.3 4.1-2.2 7.8-3.4 11.7-2.4 7.9-4.9 15.7-7.3 23.6-.7 2.3-.6 2.5 1.9 2.8 13 1.9 26.1 3.2 39.1 5.1.3.1.5.2.8.3.6.8 2.3.3 2.3 1.8-6.6-.7-13.2-1.4-19.7-2.2-6.1-.7-12.1-1.6-18.2-2.3-2.7-.3-5.4-.7-8.1-1-1.5-.2-1.3-1-1-2.1 2.8-8.7 5.3-17.6 8.3-26.2 2.5-7.3 3.7-14.7 3.9-22.4.2-10.1 1.2-20.2 1.8-30.3.2-3.1.2-6.3.5-9.4.6-7.9.7-15.9 1.2-23.9.6-9.1 1-18.2 1.5-27.3.5-8.9 1-17.9 1.5-26.8.5-9 1-18 1.5-27.1.5-9 1-18 1.5-27.1.5-8.9 1-17.9 1.5-26.8l1.5-27.3c.5-8.9 1-17.7 1.5-26.6l1.5-27.3c.5-8.9 1-17.9 1.5-26.8.5-9 1-18 1.5-27.1.5-9 1-18 1.5-27.1.5-8.9 1-17.9 1.5-26.8.5-8.9 1-17.9 1.5-26.8.5-8.8 1-17.5 1.5-26.3.5-9.4 1.1-18.9 1.5-28.3.3-5.5.6-11.1 1-16.6.6-9.4 1.1-18.9 1.5-28.3.3-5.8.7-11.6 1-17.4.3-7.5.8-15.1 1.5-22.6.2-1.9 1-3.8 1.7-5.7 4.8-13.1 9.7-26.2 14.6-39.3 5-13.5 10-27 14.9-40.5.6-1.6 1.4-2.2 3.1-2.2h28.7c1.9 0 2.3.4 2 2.5-1.1 7.4-1.8 14.9-2.7 22.4-1.1 8.9-2.3 17.7-3.4 26.6-.9 7.4-1.7 14.8-2.6 22.2-.9 7.5-2.1 15.1-2.8 22.6-.9 8.9-2.7 17.7-2.7 26.7-.1 1 .1 2.1-.5 3.2.5-.7.2-1.8.9-2.5z" style="fill:#99a497"/><path class="st1" d="M535 23.5c-.8-.8-1.9-.5-2.9-.5H488v-.5h48c.9.8.4 1.9.4 2.8 0 32.7 0 65.3.1 98 0 .9-.6 2.3.6 2.6 1.2.3 1.4-1.2 1.9-2l15.9-25.2c.4-.7.9-1.3 1.5-2.2 1 2.2.7 4.3.9 6.3.8 6.5 1.1 13 1.7 19.6.8 8.6 1.6 17.1 2.4 25.7.6 6.2 1 12.4 1.6 18.6.8 8.8 1.6 17.6 2.4 26.5.5 6.1 1 12.2 1.6 18.3.8 9.1 1.7 18.1 2.4 27.2.6 6.5 1 13.1 1.6 19.6.6 6.6 1.3 13.2 1.9 19.8.1.7 0 1.5 0 2.2V781c0 3.3 0 3.3-3.4 2.9-14.4-1.8-28.9-3.6-43.3-5.5-4.1-.5-4.1-.5-3.1-4.4 3.2-12.1 6.5-24.1 9.7-36.2.8-2.8.3-3.3-2.5-2.7-25.1 5.5-50.2 11.1-75.3 16.6-.4.1-.9 0-1.2.2-2.2 1-2.3-.3-2.2-1.9.1-3.4 0-6.8 0-10.2 0-3.2-.1-3.3-3.2-2.5-12.8 3.3-25.6 6.5-38.5 9.8-14 3.6-28 7.2-42.1 10.7-.6.1-1.2.1-1.7.2-1.8.7-3.6-.2-5.4-.4-6.4-.8-12.8-1.5-19.1-2.4-6-.8-11.9-1.6-17.9-2.3-5.9-.8-11.8-1.5-17.7-2.2-5.9-.7-11.8-1.5-17.7-2.3-2.2-.3-4.4-.7-6.7-.7-.1-1.2.8-1.1 1.4-1.3 5.4 0 10.8 1 16.1 1.7 21.2 2.7 42.5 5.3 63.7 8.1 1.6.2 3.2 0 4.7-.4 26.9-6.7 53.8-13.7 80.7-20.5.2-.1.5-.1.7-.2 3.2-.8 4.2-.1 4.3 3.1.1 2.8 0 5.7 0 8.5 0 3.3.2 3.5 3.5 2.8 24.2-5.3 48.3-10.6 72.5-16 1.2-.3 2.4-.6 3.7-.7 1.8-.2 2.7.6 2.6 2.4 0 .8-.3 1.5-.5 2.2-3.1 12-6.4 24-9.5 36-.8 2.9-.6 3 2.4 3.4l38.7 4.8c4.2.5 4.2.5 4.2-3.7V280c0-7.2-1.2-14.3-1.7-21.4-.9-10.5-1.8-21.1-2.8-31.6-.9-10-1.8-19.9-2.7-29.8-.9-10.4-1.8-20.9-2.8-31.3-1.1-12.6-2.2-25.2-3.4-37.8-.7-7.9-1.3-15.8-2.1-23.6 0-.5 0-1-.4-1.6-.9.7-1.3 1.6-1.8 2.4l-13.5 21.6c-.9 1.4-1.6 3.5-3.5 3-2-.6-1.3-2.8-1.3-4.4V26.3c-.1-1-.1-1.9.2-2.8z"/><path d="M283 746.9c-.3 0-.6.1-1 .1v.3c5.6.7 11.3 1.4 16.9 2.1 7.1.9 14.2 1.8 21.4 2.7 6.1.8 12.1 1.5 18.2 2.3 6.1.8 12.1 1.5 18.2 2.3l9.3 1.2c-1.8 1.2-3.6 0-5.3-.2-9.8-1.1-19.5-2.5-29.3-3.8-8.6-1.1-17.3-2-25.9-3.1-8.4-1.1-16.9-2.2-25.3-3.3-7.1-.9-14.3-1.8-21.4-2.7-7.4-.9-14.8-1.9-22.1-2.9-7.1-.9-14.1-1.7-21.2-2.6-8.9-1.1-17.7-2.3-26.6-3.4-8.5-1.1-17.1-2-25.6-3.1l-30-3.9c-9.8-1.2-19.7-2.4-29.6-3.6l-30-3.9c-3.6-.5-7.2-.6-10.7-1.5-.5-1-1.9-.1-2.5-1.1 1.4-1.1 3-.8 4.6-.6 20 2.6 40 4.9 60 7.6 3.8.5 7.6.6 11.3 1.8-.1.5-.4 1.2.6.7.5-.2 1.1-.3 1.7-.5.7-.1 1.5-.1 2 .6 5.3 1.1 10.6 1.4 16 2.1 7.4 1 14.8 1.8 22.1 2.8 1.1.1 2.1.2 3.2-.1.8-.1 1.6-.2 2.2.6 0 .8-.6.5-.9.6 1 .1 1.9-.6 3-.7.8-.1 1.5-.2 1.9.7 0 .5-.6.3-.9.6 1-.3 1.9-.7 2.9-.9.7-.1 1.5-.1 1.9.6 5.3 1 10.7 1.4 16 2.1 6 .8 12 1.5 18 2.3 1.1.1 2.1.2 3.2-.1.8-.1 1.6-.2 2.2.6 0 .7-.5.5-1 .6 1.2.1 2.1-.6 3.1-.7.7-.1 1.5-.1 2 .6 5.3 1.1 10.6 1.4 16 2.1 7.2 1 14.4 1.7 21.6 2.8 1.3.2 2.5.3 3.7-.1.8-.1 1.6-.2 2.2.6 0 .8-.7.4-1 .6 1.1.1 2-.6 3.1-.7.8.6 1.7.3 1.8 1.5z" style="fill:#919b8c"/><path d="M220.5 122c.2 2.1-.7 4-1.4 6v-6h1.4z" style="fill:#b2b6a9"/><path d="M110.5 145.5c.2.9-.4 1.7-.8 2.5-.1-1-.6-2 .2-3 .2.2.4.3.6.5z" style="fill:#cfd2ca"/><path d="M60.5 718.5c-7.6-.9-15.1-1.8-22.7-2.7-6.2-.8-12.3-1.6-18.5-2.3-1.7-.2-2.2-.5-1.6-2.3 3.6-11.2 7-22.4 10.6-33.5.5-1.6.8-3.2.8-4.9.6-11.1 1.3-22.2 1.9-33.3.2-3.2.2-6.5.5-9.7.6-7.9.7-15.8 1.2-23.6.8-12.1 1.4-24.2 2-36.3.5-9 1-17.9 1.5-26.9s1-18.1 1.5-27.1 1-17.9 1.5-26.9 1-18.1 1.5-27.1 1-17.9 1.5-26.9 1-18.1 1.5-27.1 1-17.9 1.5-26.9 1-18.1 1.5-27.1 1-17.9 1.5-26.9 1-17.9 1.5-26.9c.5-8.9 1-17.7 1.5-26.6.5-9.1 1-18.2 1.5-27.4.5-8.9 1-17.7 1.5-26.6.7-12.1 1.4-24.2 2-36.3.5-9 1-17.9 1.5-26.9s1.1-18.1 1.5-27.1c.3-6 .8-11.9 1-17.9.2-4.2 2.3-8 3.7-11.9C71.1 79.6 78.6 59.6 86 39.6c1.7-4.7 3.5-9.4 5.1-14.1.5-1.5 1.3-2.1 2.9-2.1 9 .1 18 .1 27 0 1.7 0 2.1.6 1.9 2.2-1.4 9.1-2.4 18.2-3.4 27.4-1 8.6-2.2 17.3-3.3 25.9-.9 7.4-1.7 14.8-2.6 22.2-1.3 10.4-2.6 20.9-3.9 31.3-1.1 8.8-2.1 17.6-3.1 26.4-.1 1-.4 2-.4 2.9-.1.7-.2 1.7.7 1.9 1 .2 1.1-.8 1.2-1.5 1.8-7 3.5-14 5.3-21 3.7-14.9 7.5-29.8 11.2-44.7 6.7-26.7 13.4-53.5 20-80.2.6-2.2 1.2-3 3.8-2.6 9.2 1.5 18.4 2.5 27.6 3.8 7.5 1 14.9 2.1 22.4 3.2 5.6.8 11.1 1.7 16.8 2.2 2.4.2 2.8 1.1 2.8 3.2-.1 27.3 0 54.7 0 82v21.2c0 .7-.5 1.9.8 2 1 .1 1.1-1.1 1.2-1.9 4.5-19.6 9-39.3 13.5-59 3.4-14.8 6.7-29.6 10.1-44.4.4-1.6.7-2.7 2.9-2.7 80.1.1 160.1.1 240.2.1h.7c.9 1 .7 2.2.5 3.3-2.2 17.3-4.4 34.7-6.9 52-2.5 17.2-5.1 34.5-8 51.6-.3 1.5-.1 3.2-1.3 4.5-1.3.6-2.2-.2-3.3-.7-12.3-6-25-10.7-38.3-13.9-9.3-2.2-18.7-3.8-28.2-4.7-1.3-.1-2.6-.5-3.9-.7-1-.4-2.1-.3-3.1-.3-.9 0-1.9 0-2.8-.2-1.2-.4-2.4-.3-3.5 0-2.4-.4-4.9 0-7.3-.5-6.2-.5-12.5-.5-18.7 0-2.1.3-4.2.2-6.4.2-1.7 0-3.5-.2-5.2.3-1.3.2-2.5.2-3.8.2-1.1-.1-2.2-.1-3.2.3-.9.2-1.9.2-2.8.2-1 0-2.1-.1-3.1.3-.6.1-1.3.2-2 .2-1 0-2-.1-3 .3-.6.1-1.3.2-1.9.2-.9 0-1.7 0-2.6.3-5.5.3-9.5 3.1-12.8 7.2-5.9 7.2-9.8 15.4-13.6 23.7-1.8 3.9-3.2 8-4.5 12.2-1.7 5.7-4.9 10.7-8.4 15.5-9.3 13.1-20.6 24.4-32.4 35.1-1.4 1.3-2.6 1.2-3.9-.1-2.3-2.3-4.5-4.7-7.3-6.4-4.7-3.5-9.9-5.9-15.7-7.3-1.3-.3-2.7-.5-4-.2-8.7 1.6-16 5.3-19.7 14-1.6 3.3-2.1 6.9-2.4 10.5-.4 1.1-.4 2.2-.1 3.3.3 1.3-.3 2.3-1.4 2.9-15.2 8.6-20.6 23.1-23.9 38.9-.4 2.1-.4 4.3-.8 6.4-.3 3.2-.4 6.3.1 9.5.2.8.2 1.6.2 2.4 0 .9 0 1.8.2 2.7 1.6 11.6 5.1 22.6 12 32.2 1.6 2.2 3.2 4.2 5.1 6.2.9 1 1.8 2.1.5 3.5-4.1 4.4-3.3 9.1-.9 13.9 2.2 4.5 2.3 4.5-1.9 7.4-12 8.5-21.7 19.4-30.7 30.9-5.6 7.2-10.4 14.9-15.5 22.4-2 2.9-2.3 3-5.3 1-6.4-4.2-13-3.7-18.3 1.4-1 1-1.8 2.1-2.4 3.5-5.5 13.2-9.4 26.9-11.2 41.1-.2 1.2 0 2.5-.3 3.7-.3 1-.2 2.1-.2 3.2 0 1.7.1 3.4-.2 5.1-.6 2.7-.4 5.5-.1 8.2 0 .3 0-.1.1.2.9 5.1-.1 9.1-4.9 12.3-6.7 4.6-12.9 9.9-19.2 15-.2.2-.4.3-.6.5-1.9 1.6-3.5 3.5-2.9 6.2.6 2.5 2.9 3.2 5.1 3.9.6.2 1.3.2 2 .4 1 .4 1.9.3 2.9 0 .9-.2 1.8-.2 2.7-.2.9.1 1.9-.1 2.8-.3 2.7-.1 5.3-.6 8-.7 1.1 0 2.2.1 3.2-.3.8-.2 1.6-.2 2.4-.2 1.1.1 2.2-.1 3.3 0 1.6.9 1.8 2.6 2.2 4 1.4 4.9 3.3 9.6 5 14.4 1.9 5.4 6.2 7.7 11.4 8.4 3.2.5 6.5.2 9.7-.6 14.9-3.9 29.9-7.5 45.1-10.1 6.3-1.1 12.7-2.1 19-3 3-.4 3.6 0 4.5 2.9 2.8 9.1 5.5 18.2 8.3 27.2.7 2.3 1.2 4.7 3 6.5 1.7 1.8 2.9 2 5.1.9 2.8-1.4 4.3-3.5 4.9-6.7 1.7-9.9 3.8-19.8 5.7-29.7.8-4.1 1.1-4.3 5.2-4.3 3.6 0 7.2-.2 10.7.1 2.6.2 3.7-1 4.5-3.2 4.4-11 8-22.2 10.8-33.7 2.4-9.8 3.7-19.8 5.1-29.7.3-1 .4-2 .3-3.1 1-15.8 7.6-28.6 20.7-37.8 2.9-2 4.1-1.8 6.3 1 15.3 19.6 29.9 39.8 42 61.6 6.8 12.3 12.7 24.9 15.4 38.8.1.4.2.8.2 1.2 0 3.7 1.1 6.6 5.4 7.2.7 1.1-.2 1.7-.8 2.3-7.4 7.2-14.4 14.7-22 21.7-5.4 5.5-10.8 10.7-16.4 15.7-9.2 8.4-18.6 16.6-28.2 24.6-.2.2-.4.2-.7.3-.4.1-.8.1-1.2 0-11.5-1.1-23-2.7-34.5-3.9-21.8-2.4-43.5-5.1-65.2-7.6-17-2-33.9-4-50.9-5.9-16.6-1.9-33.2-3.8-49.9-5.7-3.1-.4-6.3-.9-9.4-1.2-2.4-.2-2.6-.1-2.3 2.4 1.4 11.7 2.9 23.5 4.3 35.2 2.4 20.7 5.1 41.3 7.3 62 .3 3.2.7 3.5 4.1 3.5h75.5c1.5 0 3-.3 4.4.5.8 1.6-.7 2-1.6 2.5-5.4 3-10.8 6-16.2 8.9-12 6.4-24.3 12.6-36.6 18.3-19.2 8.9-38.5 17.5-58.3 25-1.7.6-3.3 1.1-5.1.6z" style="fill:#c8d7d5"/><path d="M60.5 718.5c4.7-.4 8.8-2.7 13.1-4.4 18.8-7.3 37.2-15.6 55.4-24.3 16.3-7.7 32.2-16.2 48-24.9.5-.3 1-.6 1.4-1 .5-1.1 1.5-1.4 2.6-1.3h264.9c5.1 0 5.2 0 5.1-5.1-.2-12 0-24-.1-35.9-.1-5.6 0-11.1 0-16.7 0-2.1-.7-3-2.8-3.2l-41.4-4.8c-19.9-2.2-39.9-4.7-59.8-6.9-14.6-1.6-29.3-3.3-43.9-5.2-2.3-.3-4.7.3-6.7-1.5 2.4-3 5.7-5 8.5-7.6 4.4-4.1 9.2-7.8 13.7-11.9 15.1-13.5 29.8-27.4 43.9-41.9.6-.7 1.2-1.3 1.8-2 .8-.6 1.6-.4 2.4-.2 12.3 2.3 24.6 4.2 37.1 4.6 4.3.6 8.6.5 12.9 0 1.6-.3 3.2-.2 4.8-.2 1.2.1 2.4.2 3.6-.2 13.1-1.3 25.7-4.4 37.8-9.7 3.7-1.6 7.2-3.8 10.8-5.8.9-.5 1.6-1.2 1-2.4-.6-5-1.3-10-1.8-15.1-1.3-9.9-2.3-19.8-3.4-29.7-1.3-11.6-2.6-23.1-3.8-34.7-.3-2.8-.8-5.6-.7-8.4-.1-.6.2-1.1-.2-2-1.5 3.2-2.8 6.2-4.5 9-4.5 7.5-10.8 13.2-18.4 17.6-7.9 4.6-16.5 7.4-25.5 9-1.8.3-3.1.1-4.1-1.5-3.6-5.8-7.1-11.7-11.3-17-.4-.5-.7-1.1-.6-1.8 4.5-15.1 9-30.3 13.3-45.5.3-1 .6-2.1.6-3.2.1-1.2 1-1.6 1.8-2.2 2.9-1.8 5.6-3.8 8.2-6 2.4-2 2.5-2.6.8-5.2-1.2-1.9-2.5-3.7-3.7-5.6-.5-.8-1.2-1.6-.9-2.7 3.3-11.3 6.2-22.6 9.1-34 6.1-24.1 12.1-48.3 17.5-72.6.3-1.3.7-2.6.7-3.9.5-2 2.2-3.1 3.5-4.4 8.2-7.5 16.6-14.9 25.3-21.9 5.3-4.2 10.7-8.2 16.1-12.3 1.9-1.4 2.5-2.9 2-5.3-3.8-20.4-7.7-40.9-11.3-61.3-.3-1.6-1-2.7-2.3-3.7-2.5-1.7-5.1-3.1-7.7-4.6-.9-.5-2-.9-2.3-2.2 1.2-4.6 1.7-9.3 2.5-13.9 1.5-9.3 3-18.6 4.4-27.9 1.1-7.5 2.1-15.1 3.1-22.6.9-6.8 2-13.6 2.9-20.4.9-7.1 1.8-14.3 2.6-21.4.2-1.7.7-3.4.5-5.2h47.5c.9.9.5 2.1.5 3.1v101c0 .7-.3 1.7.6 2 1 .3 1.4-.7 1.8-1.4 5-8 10.1-16.1 15.1-24.1.3-.4.5-.9.8-1.2.6-.7.6-2.4 1.8-2 .9.3.3 1.8.4 2.7.7 6.7 1.3 13.3 1.9 20 .6 6.4 1 12.7 1.6 19.1.6 6.8 1.3 13.5 1.9 20.3.4 4.4.7 8.8 1.1 13.1.6 7 1.3 14 1.9 21 .6 6.4 1 12.9 1.6 19.3.6 6.7 1.3 13.4 1.9 20 .4 4.5.7 9.1 1.1 13.6.6 6.8 1.3 13.5 1.9 20.3.3 2.8.6 5.6.6 8.4 0 167 0 334.1.1 501.1 0 2.1 0 3-2.8 2.6-10-1.5-20-2.5-30.1-3.7l-12.3-1.5c-2-.2-2.6-.8-2-3.1 3.6-12.9 6.9-25.8 10.3-38.7.6-2.3.2-2.7-2.1-2.2-20.1 4.4-40.1 8.9-60.2 13.3-6 1.3-12 2.5-18 3.9-1.6.4-1.9-.1-1.9-1.5v-11.2c0-2.9-.2-3-3-2.3-20.4 5.2-40.8 10.5-61.2 15.7-6.9 1.8-13.9 3.4-20.7 5.3-2.7.7-5.3.2-7.9-.1-11.3-1.4-22.6-3-34-4.4-11.2-1.4-22.4-2.7-33.5-4.1-3-.4-6-1-9.1-1-.6-.7-1.3-.4-2-.5-.7.3-1.3.4-1.9 0-.6-.7-1.3-.4-2.1-.5-3.3.4-6.6-.5-9.8-.9l-31.2-3.9c-.2 0-.3-.1-.4-.2-.6-.7-1.3-.4-2.1-.5-.7.3-1.3.4-1.9 0-.6-.7-1.3-.4-2.1-.5-2.9.4-5.7-.5-8.6-.8-9.6-1.2-19.3-2.2-28.8-3.7-.6-.7-1.3-.4-2-.5-.7.3-1.3.4-1.9 0-.6-.7-1.3-.4-2.1-.5-.7.3-1.3.4-1.9 0-.6-.7-1.3-.4-2.1-.5-3.3.3-6.6-.5-9.8-.9l-31.2-3.9c-.2 0-.3-.1-.4-.2-.6-.7-1.3-.4-2.1-.5-.7.3-1.3.4-1.9 0-2.9-.9-6-1-9-1.4-7.7-1.1-15.4-2-23.1-3-8.7-1.1-17.4-2.1-26.1-3.1-5.9-.7-11.8-2.1-17.8-2 .2.1.2 0 .2-.2z" style="fill:#b2bfb8"/><path class="st1" d="M235.5 740.9c6.7.3 13.3 1.5 19.9 2.3 5.8.6 11.6 1.5 17.4 2.2 1.4.2 2.8.4 4.2.5-1.2.8-2.5.4-3.8.3-6-.8-11.9-1.5-17.9-2.3-6-.8-12.1-1.6-18.1-2.4-.9-.1-1.8-.2-2.7-.2.1-.1.2-.3.3-.4.2.1.5.1.7 0zM140.6 728.9c6.7.3 13.3 1.5 19.9 2.3 5.8.6 11.6 1.5 17.4 2.2 1.4.2 2.8.4 4.2.5-.6.7-1.4.5-2.1.4-5.9-.7-11.7-1.5-17.6-2.3-5.9-.7-11.7-1.5-17.6-2.1-1.7-.2-3.4-.8-5.2-.5.2-.2.3-.4.4-.4.1 0 .3 0 .6-.1zM192 735.4c6.6.2 13 1.5 19.5 2.2 6 .6 12 1.6 18 2.4-.6.7-1.4.5-2.1.4-5.9-.7-11.8-1.6-17.7-2.3-6.2-.8-12.4-1.5-18.7-2.2.1-.1.2-.3.3-.3.2-.1.5-.1.7-.2zM279 746.4h1.9c-.9.8-2 .4-3 .4.3-.5.8-.3 1.1-.4zM231.5 740.4h1.9c-.9.8-2 .4-3 .4.3-.5.8-.3 1.1-.4zM188 734.9h1.9c-.9.8-2 .4-3 .4.3-.5.8-.3 1.1-.4zM184 734.4h1.9c-.9.9-2 .3-3.1.5.4-.6.9-.4 1.2-.5zM136.6 728.4h1.9c-.9.9-2 .3-3.1.5.3-.6.8-.4 1.2-.5z"/><path class="st7" d="M296.5 583.5c9.6 1.2 19.2 2.1 28.8 3.4 8.1 1.1 16.3 1.5 24.4 2.7 10.5 1.5 21 2.3 31.5 3.8 6.4.9 12.8 1.4 19.2 2.2 6.6.8 13.1 1.5 19.7 2.3 5.2.6 10.3 1.4 15.5 1.7 4.8.3 9.5 1.4 14.3 1.6 1.5.1 2.2 1 2.1 2.7-.1 3.9.1 7.7-.1 11.6-.2 7.3 0 14.5-.1 21.8-.1 3.6-.1 7.2.1 10.9.2 4.8-.1 9.6-.1 14.3 0 .9-.4 1.2-1.2 1.2H183.5c-1 0-2.2.4-3.1-.5.2-.9.9-1.3 1.7-1.7 15.8-9 31.3-18.7 46.5-28.8 21.9-14.6 43.2-30 63.6-46.7 1-.8 2-1.8 3.3-2.2.3-.3.7-.3 1-.3z"/><path d="M295.5 583.5c-3.6 3.7-7.8 6.7-11.8 9.8-17.5 13.8-35.6 26.8-54.2 39.2-10.2 6.8-20.6 13.4-31.1 19.7-6 3.6-12 7.1-17.9 10.7-.7.3-1.3.7-2 1-.8-.9-1.9-.5-2.8-.5H97.5c-3.5 0-3.6 0-3.9-3.5-.7-9.3-2.1-18.6-3.1-27.8-1.1-10.3-2.6-20.6-3.9-31-.9-7.6-1.7-15.3-2.6-22.9-.7-5.9-1.5-11.8-2.4-17.7-.3-1.8.4-2.3 2-2.1 8.9 1.2 17.9 2.4 26.8 3.4 7.9.9 15.8 1.7 23.7 2.6 7.9.9 15.7 2.2 23.6 2.9 6.4.6 12.8 1.5 19.2 2.2 4.8.5 9.7 1.4 14.5 1.8 5.2.4 10.4 1.1 15.5 1.7 6.3.7 12.6 1.6 18.9 2.3 6.7.8 13.5 1.4 20.2 2.2 4.7.6 9.3 1.2 14 1.6 5.2.4 10.3 1.2 15.5 1.8 6.8.9 13.4 1.8 20 2.6z" style="fill:#bdcdcb"/><path d="M471.5 135c3.4 2 6.7 4.1 10.2 6.1 1.8 1 2.5 2.6 2.9 4.5 1.2 6.8 2.4 13.5 3.6 20.3 1.6 8.9 3.2 17.9 4.9 26.8.9 4.8 1.6 9.6 2.8 14.2.7 2.5-.1 4-1.9 5.4-7.8 5.9-15.7 11.7-23.1 18.1-5.5 4.8-11.1 9.4-16.4 14.4-2 1.9-4.2 3.5-5.9 5.6-.1 1-.9 1.6-1.6 2.2-10.3 9.3-19.9 19.4-29.2 29.7-2.3 2.6-5 4.8-7.2 7.7-4.8 6.4-3.4 12.5 1.5 17.8 2.3 2.5 2.4 3 .3 5.9-5 7.2-10 14.3-15 21.6-1.5 2.2-1.5 2.3.7 3.9 7.9 5.7 15 12.1 21.3 19.6.7.8 1.5 1.6 1.6 2.7 1.8 2.7 3.5 5.4 5.4 8 1.6 2.1 1.2 3.6-.8 5.2-3.5 2.7-7.1 5.2-10.7 7.7-1 1.5-2.7 2.1-4.3 2.9-11.1 6-22.9 10.3-35.3 12.7-.9.2-2.4 0-2.6 1-.2 1 1.1 1.5 1.9 2.2 9.6 8.5 18.4 17.8 25.7 28.4.4.6.7 1.1.7 1.8 4.6 5.9 8.6 12.1 12.4 18.5.5.9 1 1.6 2.3 1.4 12-2.3 23.3-6.2 33.1-13.8 7-5.5 12-12.3 15.2-20.6.3-.7.1-2.3 1.4-1.9 1.5.4.3 1.6.3 2.5-.3 3.6-2.2 6.4-4 9.3-7.2 11.6-18.1 18.5-30.7 23-4.3 1.5-8.7 2.7-13.2 3.6-1.6.3-1.9.9-1.3 2.4 1.2 3.2 2 6.5 3.1 9.7.3.7.5 1.4.6 2.2.1.8-.1 1.6-.9 1.9-.9.3-1.5-.3-1.8-1-1-2-1.9-4.1-2.3-6.3-1.5-7.7-5.5-14.2-9.8-20.5-1.5-3-3.8-5.5-5.7-8.2-2.5-3.4-5.1-6.8-7.6-10.2-.6-.8-1.1-1.4-2.1-1.5-1.4-4-5-6.2-7.4-9.4-4.5-3.9-8.5-8.2-13-12-1.1-.9-2.2-1.3-3.6-1.4-6.7-.7-13.5-.4-20.2-.5-8.6-.1-17.1.8-25.5 2.6-5.5 1.1-10.8 2.9-15.9 5.2-2.8 1.2-2.8 1.7-1 4 12.4 15.9 24.4 32.1 34.9 49.4 8 13.3 15.4 26.9 20.2 41.7 1.3 4.1 2.5 8.3 3 12.6.2 1.9 1.1 2.8 2.9 3.2 9.4 2 18.8 3.6 28.3 4.5 6.6.6 13.3 1 19.9 1 4.8 0 9.6-.6 14.5-.8 8.8-1 17.5-2.5 25.8-5.8 6.3-1.5 12-4.5 17.7-7.5 1.7-.9 3.1-2.6 5.3-2.3 1.9 1.1.3 1.8-.4 2.2-4.9 2.8-9.8 5.7-15.1 7.8-8.7 3.5-17.8 5.6-27 7.4-2.4.5-4.9.4-7.4.6-1.2.5-2.4-.1-3.6.4-1.6 0-3.3.1-4.9.1-4.4.3-8.8.3-13.2 0-13.3-.1-26.4-2.3-39.4-5-5.5-1.1-5.3-1.1-6-6.6-1-7-3.2-13.8-5.9-20.3-5.9-14.6-13.9-28.1-22.4-41.2-9.2-14.1-19.2-27.6-29.5-41-1.4-1.8-2.6-2.4-4.7-.9-9.4 6.7-16.1 15.2-19 26.7-.9 3.6-1.8 7.1-2 10.8-.4 1 .1 2.1-.3 3.1-.9 6.5-1.6 13.1-2.9 19.6-1.7 9.2-4 18.3-6.8 27.3-1.9 6.2-4.5 12.3-6.8 18.4-.6 1.6-1.5 2.3-3.4 2.2-4.6-.1-9.2 0-13.7-.1-1.6 0-2.2.5-2.5 2.2-2 10.8-4.3 21.6-6.2 32.4-.6 3.4-2.9 4.9-5.3 6.3-2.8 1.7-6.2-.3-7.6-4.5-2.2-6.9-4.3-13.8-6.4-20.7-1.2-3.8-2.4-7.7-3.5-11.6-.5-1.9-1.8-1.2-2.8-1.1-4.6.6-9.2 1.2-13.7 2-12.1 2.1-24.2 4.5-36.1 7.4-5.6 1.4-11.1 3.1-16.8 4.1-5.5 1-10.9.7-15.9-2.8-3.2-2.3-4-5.8-5.3-9-1.7-4.4-3.1-8.9-4.5-13.3-.2-.7-.4-1.4-1-2-1 .5-2.1-.1-3.1.4-.8 0-1.6.1-2.4.1-1 .5-2.1-.1-3.1.4-2.8.3-5.6.7-8.4.6-.8.4-1.8-.1-2.6.3-1 0-1.9.1-2.9.1-.9.3-1.8.3-2.6 0-1.2 0-2.3-.2-3.4-.6-5.3-1.9-6.2-6.9-1.8-10.5 6.5-5.3 13.2-10.4 19.8-15.6.3-.2.5-.4.8-.6 4.9-2.4 5.1-6.7 4.6-11.3-.3-2.9-.3-5.8 0-8.7.1-1.8.1-3.6.2-5.4.4-1-.1-2.1.4-3.1.7-12.2 3.8-23.9 7.7-35.4 1.2-3.4 2.5-6.8 3.9-10.2 2.4-5.8 11.8-9.2 17.9-6.4 1.6.8 3.3 1.4 4.6 2.8.8.8 1.6.9 2.5-.4 5.5-8.1 10.7-16.5 16.7-24.2 9.5-12 19.7-23.3 32.5-31.9 1.6-1 1.9-1.9.7-3.5-2-2.7-3.1-5.8-3.1-9.3-.1-2.7 1-4.9 2.8-6.7 1.3-1.3.9-1.9-.1-2.9-4.6-4.6-8.1-10-10.8-15.9-3.3-7.3-5.7-14.9-6.3-22.9-.5-.8.1-1.8-.4-2.6 0-.8-.1-1.6-.1-2.4-.3-3.4-.3-6.7 0-10.1 1.2-15.1 5.8-28.7 16.7-39.7 2.3-2.3 5-4.1 7.8-5.6 1.2-.7 1.7-1.4 1.5-2.7-.2-.9-.2-1.9 0-2.8.2-3.9.5-7.7 2.6-11.2.7.2 1.2.7 1.3 1.4-.4 3.3-1.7 6.4-1.6 9.8.1 2.9 0 2.8 2.8 2.3 3.3-.5 6.5-1.4 9.8-1.3 1 .5 1.9 1.1 1.8 2.4-.2.2-.4.4-.7.4-2.6.2-5.3.4-7.9.9-8.2 1.4-14.5 5.8-19.5 12.1-7.6 9.6-11 20.8-12.4 32.8-.1.7-.1 1.3-.2 2-.4 2.6-.4 5.1.1 7.7.2.9.2 1.9.2 2.9 0 .9-.1 1.8.2 2.7 1.7 12.2 5.5 23.6 12.7 33.7.6.9 1.3 1.7 2.1 2.4 3.8 5.2 9 8.7 14.4 12 4.1 2.6 8.5 3 13.1 2.7 1.8-.1 3.7.2 5.5-.3 8.7.2 15-4.5 20.8-10.3 1.8-1.8 2.7-3.7 2-6.5-.7-2.7-.9-5.6-.8-8.4 0-1.2 0-2.4-.4-3.6-.3-2-.3-4.1 0-6.1.6-1.8.3-3.7.3-5.5 0-1 0-2 .2-2.9.3-.9.4-1.8.3-2.8.6-8.3 2.2-16.4 5.4-24 2-4.8 2.1-9.1-.6-13.4-.5-.8-1-1.7-.9-2.8.3-.8.8-1.3 1.7-1.4 1.9 1.6 2.1 4.2 3.7 6.1 1.5-1.7 1.4-4.4 3.6-5.6.7.1 1.1.6 1.2 1.3.1 1.2-.5 2.3-.9 3.3-4.5 10.9-8.4 21.9-10 33.7-.2 1.4-.2 2.8-.5 4.2-.3.9-.3 1.8-.3 2.8 0 1.1 0 2.3-.2 3.4-.6 3.5-.4 7-.1 10.5.4 4.4.7 8.8 1.5 13.1.9 4.5 2.7 8.8 3.5 13.2 2.1 11.7 9.9 19.3 18.2 26.5 4.8 4.2 10.5 6.6 17 6.8.9.1 1.8 0 2.7.1.6 0 1.1.1 1.5.5.4 1.1-.3 1.5-1 2-.9.4-1.9.3-2.8.1-1.1-.4-2.3-.3-3.4-.3-3.7.2-6.8-1.2-9.9-2.9-11.1-6.2-18.4-15.8-24.2-26.8-.4-4.7-2.4-8.9-3.7-13.8-2.3 2.5-4.3 4.5-6.7 6.2-4.3 3.1-8.8 6-14.5 5.8-1.2 0-2.4 0-3.6.4-2.5.3-5 .1-7.5.2-1.3-.1-2.5 0-3.8-.1-2.9 0-5.3-1.5-7.8-2.6-2.8-1.8-5.5-3.8-8-5.9-1.8-1.5-2.4-1.4-3.9.4-1.3 1.6-1.7 3.4-1.3 5.4.5 2.9 2 5.3 3.5 7.6 1.5 2.4 1.4 3.1-1 4.7-15.5 10.4-27.5 24.2-38.3 39.2-1.1 1.5-1.7 3.2-2.9 4.7-3.1 4.2-5.7 8.6-8.7 12.8-2.1 3-2.7 3.1-5.5.8-5.5-4.5-11.4-4.6-16.6-.4-1.3 1.1-2.3 2.3-3 3.9-6.2 14.4-9.9 29.4-11.3 45.1-2.1 24.2 2.8 47.2 11.4 69.6 2.1 5.5 8.1 8.5 14.6 7.6 1.2-.1 2.3-.4 3.5-.5 10.8-2.9 21.6-5.6 32.5-7.8 13.9-2.9 28-5.2 42.2-6.7 12.5-1.3 25-2.2 37.6-1.9 1.8 0 2.9-.5 3.7-2.3 6.6-15.8 11-32.1 14-48.9 1-6 1.5-12 2.2-18.1.5-4.7 1.7-9.2 2.8-13.7 5.9-16.4 18-26.3 34.1-31.9 9.7-3.4 19.8-4.9 30.1-5.1h20c1.3-.1 2.7 0 4 .2.9.3 1.9.4 2.9.3 6.8-.2 13.1-2.3 19.5-4.2 13.6-3.9 26.1-10 37.2-18.7 1.4-1.1 1.3-2.1.5-3.4-2.6-4.4-5.7-8.4-9.2-12.1-5.9-6.4-12.4-12.1-19.5-17-3.1-2.1-3.2-3.1-1.1-6.1 5.1-7.4 10.3-14.8 15.4-22.1.8-1.1 1.3-2.1.2-3.3-8.5-8.8-5.1-17.6 1.6-24.7 1.1-1.2 2.4-2.4 3.5-3.6 7.9-8.2 15.8-16.4 23.9-24.4 12.1-12 25-23.2 38.2-34 5-4.1 10.1-7.8 15.2-11.8 1.2-.9 2-1.9 1.6-3.6-3.7-20-7.4-40.1-11.2-60.1-.1-2.3-1.6-3.5-3.4-4.6-19-12.2-40-19.3-62.1-23.3-9.2-1.6-18.5-2.5-27.8-3.1-10.2-.7-20.5-.5-30.7-.3-10.4.3-20.8 1.3-31.1 2.5-3.7.4-6.4 2.7-8.9 5.2-1.9 1.9-3.5 4-4.9 6.3-5.9 8.7-10.2 18.1-13.5 28-2.3 6.7-5.4 12.9-9.5 18.6-8.8 12.4-19.4 23.2-30.6 33.4-1 1-2 2-3.1 2.9-1.2 1-2.6 1.2-3.6.1-2.5-2.9-5.5-5.3-8.2-7.9-.2-.2-.2-.5-.2-.7.2-.5.6-.8 1.2-.6 3.2 1.5 5.4 4.1 7.7 6.5 1 1 1.5 1 2.6.1 6.3-5.8 12.5-11.7 18.3-18 7.9-8.5 15.4-17.3 20.5-27.9 2.6-5.4 3.8-11.4 6.4-16.9 4.5-9.4 8.8-18.9 16.2-26.6 2.9-3 6.4-4.9 10.8-4.7.8-.5 1.8.1 2.6-.4.6 0 1.3-.1 1.9-.1 1-.4 2.1.1 3.1-.4.6 0 1.3-.1 1.9-.1 1-.4 2.1.1 3.1-.4 1 0 1.9-.1 2.9-.1 1-.5 2.1.1 3.1-.4 1.3 0 2.6-.1 3.9-.1 1.7-.5 3.4.1 5.1-.4 2.1 0 4.3-.1 6.4-.1 6.4-.3 12.7-.3 19.1 0 2.5-.1 4.9 0 7.4.5 1-.3 2.1-.3 3.1 0 1 0 1.9.1 2.9.1 1 .4 2.1-.1 3.1.4 6.9.9 13.7 1.7 20.6 2.8 8.2 1.4 16.2 3.4 24.2 5.8 6 1.8 11.8 4 17.5 6.6 3.5 2.3 7.2 4.1 10.9 5.9z" style="fill:#657139"/><path class="st10" d="M246 203.5c-.4.2-.7.4-1.1.5-1 .7-1.7-.1-2.5-.6-3.5-2.3-7.4-3.7-11.4-5-4.8-1.6-9 .1-13.2 2.1-3.6 1.7-6.6 4.1-8.7 7.6-.6 1-1 2.3-2.3 2.8-.5-.2-.8-.6-1-1.1 1.4-4.4 4.4-7.4 8.1-9.9 1.8-1.2 3.9-2 5.9-3 5.9-2.9 11.6-1.5 17.1 1.1 3.4 1.6 6.7 2.8 9.1 5.5z"/><path class="st11" d="M381.5 113.5h-19.1c3.4-.9 6.9-.3 10.3-.3 3-.1 5.9-.6 8.8.3z"/><path class="st12" d="M177.5 271.9V282c-.7-3.3-.7-6.7 0-10.1z"/><path class="st13" d="M108.5 462.4v8.7c-.7-2.9-.6-5.8 0-8.7z"/><path class="st14" d="M356 113.6c-1.6.8-3.4.3-5.1.4 1.7-.7 3.4-.4 5.1-.4z"/><path class="st13" d="M110.5 507.9c1-.7 2-.4 3.1-.4-1 .7-2 .5-3.1.4z"/><path class="st15" d="M105 508.4c1-.7 2-.4 3.1-.4-1 .7-2 .5-3.1.4z"/><path class="st11" d="M398.1 114.5c-1.1 0-2.1.4-3.1-.4 1 0 2.1-.3 3.1.4zM341 114.6c-1 .7-2.1.4-3.1.4 1-.7 2.1-.4 3.1-.4zM347 114.1c-1 .7-2 .4-3.1.4 1-.7 2.1-.4 3.1-.4z"/><path d="M392.1 114H389c1-.8 2-.5 3.1 0z" style="fill:#8a8564"/><path class="st14" d="M336 115.1c-1 .8-2.1.4-3.1.4 1-.7 2-.4 3.1-.4z"/><path class="st17" d="M203.4 221.1v2.8c-.4-.9-.4-1.9 0-2.8z"/><path class="st13" d="M109 453.9c0 1 .4 2.1-.4 3.1-.1-1.1-.3-2.1.4-3.1zM274.6 450.6c-.1-1.1-.4-2.1.3-3.1.1 1 .2 2.1-.3 3.1z"/><path class="st15" d="M94 509.4c.8-.7 1.7-.4 2.6-.3-.8.5-1.7.4-2.6.3zM88.5 509.5h2.6c-.9.6-1.8.6-2.6 0z"/><path class="st14" d="M331 115.6c-.8.7-1.7.4-2.6.4.8-.6 1.7-.5 2.6-.4z"/><path class="st12" d="M177.6 284.5c.7.8.4 1.7.4 2.6-.6-.8-.5-1.7-.4-2.6z"/><path class="st7" d="M353.3 681.5h67.2c3.5 0 3.4 0 2 3-4.7 9.7-9.3 19.5-13.9 29.3-.8 1.7-1.8 2.2-3.6 2.2H279.6c-1.8 0-2.6-.1-2.1-2.4 1.9-9.7 3.5-19.5 5.1-29.3.3-2.1 1.1-2.9 3.4-2.8h67.3z"/><path class="st18" d="M405.6 441.5c3.5 4.5 6.6 9.2 8.4 14.7 1.2 3.7 2.3 7.4 3.5 11.1.3.8.4 2.2 1.5 1.9 1.2-.3.5-1.6.3-2.4-1.1-3.7-2.3-7.5-3.6-11.1-.6-1.7-.5-2.4 1.6-2.8 7.9-1.5 15.6-3.9 22.8-7.5 12-6.1 20.7-15.2 25.7-27.8l4.2 39.3c1.2 11.4 2.5 22.7 3.8 34.1-4.5 1.7-9 3.3-13.5 4.9-2.4.8-2.9.3-3-2.2-.1-2.4.3-4.8-.3-7.2-1.4-10.4-4.1-20.3-8.5-29.4 1.7 13.3.8 26.8-3.9 40-.3.9-.7 1.7-1.2 2.5-.2.3-.5.6-.9.9-1.6 1-3.4.9-5.1 1.1-11.3 1.6-22.7 2.1-33.9-.8-9-2.3-16.9-6.5-23.3-13.3-1-1.1-2-2.2-2.8-3.5-.1-.2-.2-.5-.2-.8.2-1 .9-1.6 1.6-2.2 11.6-10.3 19.8-22.9 25.3-37.3.4-.8.5-1.7 1.5-2.2z"/><path class="st19" d="M421 361.5c-2.8-3-5.4-6.2-8.3-9.2-5-5.1-10.6-9.5-16.3-13.6-1.1-.8-1.2-1.3-.5-2.3 5.3-7.5 10.5-15.1 15.7-22.7.4-.5.7-1.1 1.1-1.7 1-1.3.8-2.1-.5-3.4-6.6-6.6-7.4-13.7-.7-20.9 10.5-11.3 21-22.6 32.1-33.2 1.5-1.5 3.2-2.8 4.8-4.2.7.5.3 1.1.2 1.8-1.8 9.2-4.1 18.2-6.3 27.3-3.9 16.1-7.8 32.2-11.9 48.2-2.7 10.8-5.7 21.4-8.5 32.2-.1.8-.2 1.4-.9 1.7zM400.9 431.5c-8.5-12.2-18.6-23-30.4-33 2.7-.6 4.7-1 6.7-1.5 12.4-2.6 24.2-7.1 35.2-13.5.8-.5 1.6-.8 2.5-1.1.9.6.5 1.4.3 2.2-4.4 15.1-8.9 30.3-13.3 45.5-.2.5-.6 1-1 1.4z"/><path class="st20" d="M457.6 486.5c1 3 0 6.1.6 9.3 3.7-1.3 7.3-2.7 11-3.9 1.5-.5 2.9-1.7 4.6-1 .6 5.2 1.1 10.3 1.7 15.5-6.5 3.8-13.1 7.4-20.2 9.8-.7.3-1.6 1.1-2.5.2-.7-1.2 0-2.2.4-3.3 2-5.7 3.4-11.5 3.5-17.5 0-2.1-.1-4.3 0-6.4 0-.9 0-2 .9-2.7z"/><path d="M403.9 525h13.2c-4.4.7-8.8.7-13.2 0z" style="fill:#827c59"/><path class="st11" d="M422 524.9c1.1-.8 2.4-.3 3.6-.4-1.2.8-2.4.4-3.6.4z"/><path d="M252.4 292c1-13.3 5.4-25.7 10.4-38 .5-1.1.9-2.3 1.3-3.4.3-3.1 2.3-5.5 3.8-8 7-11.5 16-21 27.4-28.3 8.6-5.5 18-7.6 27.9-6.3 12.1 1.6 21.6 7.8 28.3 17.8 6 9 9.4 19.2 11.7 29.8.9 4.1 1.4 8.2 1.6 12.4v12.3c-.8 12.7-3.5 25-7.9 37-3.9 10.5-8.9 20.5-16.3 29-8.8 10.1-18.7 18.7-31.9 22.8-1.8.6-3.7 1.2-5.6.7-1.3-.4-2.6-.2-4-.3-.7-.1-1.4-.1-1.9-.7-.5 0-.9-.1-1.4-.1-1.1-.3-2.1-.3-3.2 0-4.3-.5-8.3-1.4-12.1-3.6-5.6-3.2-10.1-7.7-14.3-12.5-1.7-1.9-2.9-4.2-4.5-6.1-4.1-4.6-4-10.7-5.8-16.1-2.5-7-3.5-14.3-3.7-21.7-.2-3.7-.2-7.4 0-11 0-1.1.1-2.3.1-3.4.2-.5-.3-1.5.1-2.3z" style="fill:#e6dfd5"/><path class="st23" d="M483.1 147.5c1.5 7.5 3 15.1 4.4 22.6 1.6 8.6 3.2 17.3 4.8 25.9.7 3.9 1.5 7.8 2.2 11.7.2 1.2 0 2.1-1.2 3-9.5 7.2-18.8 14.5-27.8 22.2-4.7 4-9.4 8.2-14 12.4-9.7 8.8-18.8 18.2-27.9 27.5-2.8 2.9-5.3 6.1-8.5 8.7-1.7-1.2-2.2-3.1-2.9-4.8-9-20.1-16.1-40.9-21.4-62.3-4.3-17.3-7.4-34.9-9-52.6-.7-7.5-1.5-15.1-1.4-22.7.1-1.5.8-2.5 2-3.3 7.4-5.5 15.7-8.3 24.8-8.9 12.3-.7 24.2 1.6 35.8 5.5 1.3.4 2.5 1 3.9.9 1.4 0 2.5.8 3.7 1.3 10.8 4.2 21.7 8.5 32.5 12.9z"/><path class="st24" d="M380.9 139c.7 23.7 4 47.1 9.3 70.2 5.7 24.7 13.8 48.6 24.5 71.5.1.2.1.5.2.7-2.3 2.8-5.1 5.2-7.1 8.3-4.1 6.4-3.6 13.2 1.7 18.6 1.6 1.6 1.8 2.6.4 4.5-5.5 7.6-10.8 15.3-16.2 23-1.3 1.9-.7 3 .9 4.1 6.9 4.6 13.2 10 18.9 16.1 4.2 4.4 7.9 9.2 11 14.4.9 1.5.6 2.3-.5 3.1-6.8 5.3-14 9.8-21.9 13.3-5.2 2.3-10.3 4.6-15.9 5.8 0-1.5 1.3-1.8 2.2-2.4 5.7-4.2 9.7-9.5 10.9-16.7.5-2.8-.2-5-2.1-7.1-3.1-3.4-6.6-6-10.6-8.3-7.9-4.4-16.4-7.3-25-10.1-1.6-.5-2.5-.1-3.2 1.4-7.3 15.8-20.7 21.7-37.2 22.3-3.5.1-7 .1-10.5 0-1 0-2.2.3-2.8-1.1.6-1 1.6-1.1 2.5-1.5 8.2-2.9 15-7.7 21.4-13.5 18.5-16.7 27.3-38.3 31.6-62.2.5-2.8.8-5.6 1.2-8.4.3-1 .3-2 .3-3 .1-9.7.4-19.3-2-28.8-2.7-10.4-6.1-20.5-12.5-29.2-12.8-17.5-34.1-21-50.7-12.7-15.3 7.6-26.4 19.7-34.5 34.6-.7 1.3-1 2.9-2.5 3.6-1.1 2.3-2.2 4.5-3.5 7.2-1.3-2.8-2.4-5.3-3.5-7.7-1.2-.4-1.6-1.4-2.1-2.3-5.6-9-13-15.9-22.3-20.8-2.8-1.4-5.9-1.6-8.7-2.9-1-2.2-1.5-4.4-1.4-6.8.1-3.6 2.1-5.7 5.7-5.9 3.2-.2 6.2 1 9.2 2.1 7.2 2.5 13.7 6.4 20.3 10.2 2.6 1.5 2.6 1.5 4.5-.7 6-7.4 12.6-14.1 21-19 8-4.7 16.5-7.8 25.9-8.1h7.1c8.1.2 15.8 2.3 23.3 5.1 1.3.5 2.3 1.3 3.1 2.4 2.2 2.8 4.3 5.8 6.4 8.6 1.9 2.5 2.3 2.5 4.3-.2 4.2-5.8 5.8-12.2 5.7-19.3 0-1-.2-2 0-3 .7-1.1 1-2.3 1.2-3.5 1.6-9.7 3.9-19.3 7.9-28.3 2.7-6.3 6.3-12.1 11.3-16.9.7-.6 1.5-2.1 2.8-.7z"/><path class="st17" d="M308.5 370.5c.2.1.4.4.6.4 11.7.4 23.5.8 34.2-5.3 6.4-3.6 11.3-8.6 14.3-15.4 1.7-3.8 1.6-3.8 5.6-2.5 9.1 2.9 18.1 6.1 26.3 11.1 3.4 2.1 6.2 4.7 8.9 7.5 2.8 3 2 6.4 1.1 9.8-1.8 6.4-5.8 11.1-11.2 14.8-.7.5-1.3 1-2 1.5-6.5 2.4-13.1 4.1-20 4.5-.8-.6-1.7 0-2.5-.4-1.3 0-2.7 0-4-.1-3.6-.5-7.3-.2-10.9-.2-3.4 0-6.8-.3-10.1.2-13.1.7-26 2.6-37.9 8.7-11.3 5.8-19.8 14.2-24.4 26.3-.1.4-.5.7-.7 1-1-1-1-2.4-1.2-3.7-.8-5.6-1.9-11.1-3.3-16.5-1.9-6.5-4.7-12.4-9.7-17.2-4.5-4.3-10-5.8-16.1-5.2-8 .8-15 4.4-21.6 8.7-10.8 6.9-22 13.2-33.6 18.6-5.9 2.7-12 4.9-18.4 6.1-2.7.5-5.5.5-8.2.2-5.2-.6-9.2-4.3-10.3-9.8-1.5-7.3-.3-14.4 2.5-21.2 3.1-6.1 7.6-11.2 11.8-16.5 3.7-4.6 7.8-9 12.1-13.2 5.2-5.1 10.8-9.9 16.9-13.8 1.9-1.2 2.5-2.2.9-4.2-1.7-2.1-2.9-4.6-3.5-7.3-.7-3 .6-6.2 3-7.9.7-.5 1.1-.4 1.7.1 3 2.3 6 4.6 9.1 6.9.6.3 1.1.8 1.5 1.3 4.7 6.5 11.5 9.5 18.9 11.2 4.7 1.1 9.3-.4 13.8-1.6 4.1-1.2 8-2.8 11.4-5.5.7-.5 1.4-1.2 2.5-1 3.2 4.9 6.1 10 9.9 14.5 5.4 6.3 11.7 11.4 19.6 14.2 1.3.5 2.6.4 3.9.4 1.1.6 2.4-.1 3.5.4h3c4.3-.3 8.4-.4 12.6.1z"/><path class="st25" d="M156 392.5c-.8 4.1-1.8 8.3-2.3 12.5-.3 3-.2 6 .6 8.9 2.3 8.5 8.3 10.1 17 8.8 10.7-1.6 20.2-6.5 29.7-11.3 10.1-5.1 19.4-11.6 29.3-17.1 4.9-2.7 10.2-4.6 15.8-5.1 6.1-.6 11.7.9 16.3 5.4 5 4.8 7.9 10.8 9.7 17.4-1.2.2-1.7-.9-2.3-1.6-4.2-4.4-8.5-8.5-14.4-10.4-3.2-1.1-6.4-1.9-9.8-1.8-1.4 0-2 .2-1.5 1.8 1.9 6.4 3.2 12.9 3.5 19.6.4 8.9-.9 17.6-4.6 25.8-6.1 13.5-16.3 23.1-28.6 30.8-3.5 2.2-7.6 3-11.4 4.3-10.7 3.9-21.4 7.9-31.6 13-9.5 4.7-18.9 9.9-26.3 17.8-1.5 1.6-2.9 3.4-4 5.4-2.5 4.3-2.8 8.8-1 13.4.4.9 1 1.8.6 2.8-4 .7-7.9.8-11.7-.8-3.2-1.3-5.5-3.3-6.8-6.5-5.6-13.9-9.2-28.4-11.1-43.3-2-16.1-.8-31.9 2.7-47.7 1.9-8.5 4.7-16.6 8.1-24.6 3.3-7.9 13.8-9.9 20.8-3.9 2.5 2.2 2.5 2.2 4.5-.7 2.8-4.2 5.4-8.8 8.8-12.9z"/><path class="st23" d="M140.5 532.9c-4.6-8.3-2.5-14.9 3.4-21.6 5.7-6.4 12.8-10.8 20.2-14.9 14.4-8 29.7-13.7 45.2-18.9 5.1-1.7 9.2-4.9 13.3-8.1 10.1-7.8 17.8-17.5 21.7-29.7 2.8-8.6 3.2-17.5 1.9-26.5-.8-5.3-2.2-10.5-3.5-15.7 12.6-.8 21.7 5.3 29.3 14.5 2.2 6.7 3.2 13.6 4 20.5-.2 3.3-1.7 6.4-2 9.7-.6 5.3-1.4 10.5-1.9 15.8-.9 9.1-3.1 17.9-5.2 26.8-2.4 10.3-6.2 20.1-10 30-.5 1.4-1.4 1.8-2.9 1.8-4.1-.1-8.2-.1-12.2 0-8.5.2-17 1.1-25.5 1.9-13.6 1.2-27.1 3.5-40.5 6.2-11.6 2.3-23.2 5.1-34.6 8.3-.2-.1-.5-.1-.7-.1z"/><path class="st20" d="M377.5 483.4c3.3 3.7 6.7 7.3 11 10 6.7 4.3 14 6.9 21.8 7.9 10.8 1.4 21.5.7 32.2-1.4.6.8.1 1.6-.3 2.3-3.3 7-7.8 13.1-13.1 18.6-.6.7-1.4 1.2-2.2 1.5-3.1.9-6.4.8-9.6.9-7.1.3-14.1.3-21.2-.4-11.1-1.1-22.2-2.7-33.1-5.2-1.7-.4-2.3-1.2-2.5-2.8-.9-8.3-3.7-16-6.8-23.6-7.4-17.8-17.6-34.1-28.4-50-7.3-10.7-15.1-21-23.2-31.1-2-2.5-2-2.6.9-4 8.3-4 17.1-6.1 26.2-7.3 10.3-1.4 20.6-.9 30.9-.9 2.5 0 4.9.5 7.4.5 1.8 0 2.7 1.9 3.9 2.9 4 3.5 7.7 7.3 11.6 10.9-.3 5.4-2.2 10.4-4.4 15.2-3.1 6.9-7 13.4-12.2 19.1-1.1 1.2-.8 2.3-.4 3.7 2.8 8.4 5.9 16.8 8.7 25.3.1.2.1.5 0 .7-2.5 4.6-5.4 9-8 13.5 2.8-1.9 5.5-3.9 8.3-5.8.8-.2 1.4-1.1 2.5-.5z"/><path class="st17" d="M358 188.6c1.2 4.3.4 8.5-.6 12.7-1.1 4.5-3.3 8.5-6.4 11.9-.9 1-1.4 1.3-2.3-.1-2.3-3.3-4.8-6.5-7.3-9.7-.9-1.3-1.9-2.4-3.5-2.9-7.3-2.6-14.6-4.7-22.4-5-2.7-.4-5.3-.4-8 0-10.2.5-19.4 4.2-27.9 9.7-7.5 4.9-13.6 11.4-19 18.4-1.3 1.7-2.3.9-3.6.2-6.7-4-13.4-7.9-20.8-10.6-2.3-.8-4.6-1.6-6.9-2-5.6-1.1-8.6 2.4-7.2 8.2.3 1.2.9 2.3.8 3.6-1.6 1.4-3 .3-4.5-.4-3.9.4-7.9.8-11.7 1.9-1.4.4-1.8.2-1.9-1.4-.1-4.2.5-8.2 2-12.1 3.8-8.5 10.9-12.5 19.6-13.8 3.9-.6 7.6 1.4 11.2 3 2.5 1.1 4.8 2.5 7.2 3.8 2.8 2.6 6.1 4.8 8.4 8 1 1.4 2.1 1.1 3.4 0 6.7-6.1 13.2-12.4 19.4-19 7.6-8.1 14.6-16.7 19.9-26.5 2.6-5 3.7-10.6 6-15.8 3-6.7 6-13.5 10-19.7.3-.4.7-.7 1-1.1.6-.5 1.2-.9 1.9-1.1 8.5-2 17-3.9 25.8-4.1 4.2.1 8.5 0 12.7 0 8.5.5 16.6 2.6 23.5 7.7 1.2.9 2.6 1.8 3.3 3.3-.2 2-2 2.8-3.2 4-7.5 8.1-11.9 17.7-14.9 28.2-1.8 6.9-3.1 13.7-4 20.7z"/><path class="st26" d="M178.9 272.5c1-12.8 4.6-24.7 12.6-34.9 5.4-6.9 12.3-11.6 21.3-12.6 2.2-.2 4.4-.9 6.7-.5.7.3 1.2.8 1.7 1.4 8.9 11.5 16.2 23.8 19.4 38.1 1.2 5.3 1.6 10.7 1.1 16.1-.1.8-.1 1.7-1 2.1-3.7-.5-5.6 1.7-6.9 4.7-3 7.2-2.8 14.2 1.3 21 .4.6.8 1.2.9 2-1.6 4.4-4.8 7.6-8.4 10.3-8.3 6.2-17.6 6.3-27.2 4.4-2-.4-4.1-.7-5.7-2.3-3.1-2.3-4.7-5.7-6.4-8.9-4.7-8.6-7.7-17.8-8.7-27.6-.4-.8.1-1.8-.4-2.6 0-1-.1-2-.1-2.9-.4-2.4-.4-5.1-.2-7.8z"/><path class="st27" d="M240.5 282c1.1-1.8.9-3.9.9-5.7-.5-17.2-7.5-32-17.5-45.7-1.5-2-2.9-4-4.3-6 .2-.1.3-.1.5-.2 2.4-1.1 4.8-.2 7 .5 9.9 3.1 17.2 9.6 23.3 17.6 1.7 2.3 3.7 4.5 4.2 7.5.7 1.6 1.2 3.2 2.1 4.7 2.4 3.9 1.5 7.5-.1 11.4-3.2 7.8-4.9 15.9-5.6 24.3-.5.8 0 1.7-.4 2.6 0 1-.1 1.9-.1 2.9-.6 1.8.1 3.7-.4 5.6v6.5c.5 1.2-.2 2.4.4 3.6-.1 3.1.3 6.1 1 9.1.3 1.5.2 3-.9 4.4-4.5 5.6-10.1 9.5-16.8 11.8-1.7.6-3.8.2-5.7.3-2 .5-4.1-.2-6.1.4-7.6 1.1-13.5-2.6-19.2-6.9-3.1-2.4-6-4.8-8.2-8.1 7.3 2.5 14.7 3.5 22.3 1.9 8.5-1.8 14.5-7 18.7-14.5.3-.1.6-.1 1-.1 4.5.8 6.1-.1 7.9-4.3 2.5-6 2.5-12 .1-18.1-1-2.3-3-3.5-4.1-5.5z"/><path class="st25" d="M340.5 125.5c-7.2.1-14.2 1.7-21.2 3.1-2.1.4-4.2.9-6.2 1.4 3.8-6.6 8.3-11.7 16.8-12.6 18-1.9 35.9-2.9 54-2.3 29.7 1.1 58.3 6.6 84.9 20.6 4.1 2.2 8 4.7 12.1 7 1.9 1.1 2.5 2.8 2.4 4.8-.3.4-.6.4-1.1.3l-33.6-13.5c-.5-.2-.9-.5-1.3-.7-7.9-3.1-16.1-5.3-24.5-6.5-10.2-1.5-20.2-1.3-30 2.5-3.4 1.3-6.4 3.1-9.4 5.2-.9.6-1.7 1.6-3.1 1.3-3.8-3.6-8.1-6.2-13-7.9-4.2-1.5-8.6-2.3-13-2.5-4.8-.5-9.3-.6-13.8-.2zM374.4 476.4v-.5c0-1.9 1.1-3.5 1.8-5.1 6.8-14.9 11-30.5 13.1-46.7.1-.7.1-1.5.8-2 .4-.4.6-1.4 1.4-.3l13.8 18.6c.2.3.2.8.3 1.2-4.7 13.9-12.3 25.9-22.5 36.5-1.7 1.8-3.7 3.3-5.5 5-2.1-1.8-3.3-4-3.2-6.7z"/><path class="st18" d="M390.1 422.1c-1.9 18.9-7.2 36.9-15.7 53.9-2.4-5.2-3.8-10.8-5.8-16.1-1.3-3.4-2.3-6.9-3.6-10.3-.4-1.2-.2-1.9.5-2.7 8.7-9.7 14.4-21 17.1-33.7 0-.2.3-.4.4-.6 2.2 2.3 4.3 4.5 6.5 6.8.8.7.4 1.7.6 2.7z"/><path class="st10" d="M308.5 370.5c-4.2.7-8.3.8-12.5 0 .3-.5.7-1 1-1.5h2c1.3.5 2.8-.1 4.1.4 6.1-.3 11.5-2.9 16.6-6 15.5-9.6 26.6-23.1 33.8-39.8 4.8-11.1 8.1-22.5 9.6-34.5.3-2.7.7-5.4 1-8.1.3-4.5.4-9 0-13.5-.8-12.3-4.3-23.9-9.6-34.9-5.3-11.1-13.6-19-25.6-22.5-12.8-3.8-24.6-1.1-35.5 6.3-12.4 8.5-21.7 19.5-28.4 32.9-.3.5-.6.9-1 1.4-.2-.5-.5-.9-1.1-1.1 4.7-10.1 11.1-19.1 19.4-26.6 7.8-7.2 16.3-13.6 27-15.6 13.6-2.5 25.7.4 36.2 9.9 7.2 6.5 10.8 14.9 14.5 23.5 5.6 13.3 6.4 27.2 5.9 41.3-.6.9.1 2.1-.5 3-.4 7.9-2.3 15.5-4.3 23.2-3 11.1-7.7 21.4-13.8 31.1-4.7 7.5-11.1 13.7-17.7 19.5-6.2 5.3-13.1 9.4-21.1 11.6z"/><path class="st20" d="M256 341c-7.4 5.9-16 9.5-25.3 8.9-9.4-.6-17.6-4.6-22.7-13.3 2.6.6 4.7 2.5 7.5 2.5 1.3.4 2.7.4 4 0h8c1.1-.6 2.4.2 3.5-.5 5.5.2 9.8-2.7 13.9-5.7 2.3-1.7 4.6-3.5 6.2-6 .4-.6 1.1-1.1 1.3.1 1.1 4.6 3.8 8.9 3.6 14z"/><path class="st26" d="M230.5 552c-.1 2.7-3 5.9-5.6 5.9-2.1 0-3.2-1.7-3.9-3.6-1.3-4.1-2.6-8.3-3.9-12.5-1.9-6.2-3.7-12.4-5.6-18.6-.6-1.8-.8-3 1.8-2.8 1.2.1 2.4-.3 3.7-.5.8-.4 1.8.1 2.6-.4.6 0 1.3-.1 1.9-.1.5-.2 1.1-.2 1.6 0 1 .8 1.1 2 1.3 3.1 1.7 7.9 3.5 15.7 5.4 23.6.5 2 1 3.9.7 5.9z"/><path class="st23" d="M426.9 522.5c5.8-6 11-12.5 14.7-20.2.4-.7.6-1.5.9-2.3l.5-.5c4.2-1.7 8.7-2.5 13-3.7.5-.1 1-.1 1.4.2-.1 6.3-1.7 12.2-3.8 18.1-.3.8-.5 1.6-.8 2.3-.6 1.2-1.8 1.3-2.9 1.6-7.2 2.2-14.6 3.9-22.2 4.6-.2 0-.5-.1-.8-.1z"/><path class="st26" d="M82.6 505c-1.1-2.2.3-4.1 1.5-5.2 4.7-4.1 9.7-7.9 14.7-11.7 2.9-2.3 5.8-4.5 8.6-6.7.5-.4 1.3-1.5 1.5 0 .4 4.8 1.6 9.4 2.1 14.1-.4 1.1-1.5 1.3-2.4 1.6-7.6 2.6-15.4 5-22.9 7.8-1 .3-2 .9-3.1.1z"/><path class="st27" d="M230.5 552c-2.3-10.1-4.7-20.2-7-30.3-.2-.7-.4-1.4-.5-2.2.4-.5 1.1-.1 1.6-.5 3.5-.2 7.1-.4 10.6-.6 1.3-.1 2 .1 1.6 1.8-2 10.4-4 20.8-6 31.1.1.3-.1.5-.3.7zM82.6 505c4.9-1.1 9.5-3.2 14.3-4.7 4.7-1.5 9.4-3.2 14.1-4.8.8 3.1 1.7 6.3 2.4 9.4.3 1.6-1.2.8-1.9 1.2-.8.4-1.8-.1-2.6.4-6.3.5-12.6 1.1-18.9 1.5-2.8.1-5.6-.4-7.4-3z"/><path class="st10" d="M254.5 250c-3.2-5.3-6.7-10.4-11.3-14.6-6.6-6-13.8-10.7-23.2-11-.5-.6-1-1.2-1.4-1.8 1.5 0 2.9.7 4.5.4 6 .5 11.1 3.2 15.8 6.7 7.1 5.2 12.9 11.6 17.2 19.4-.6.3-1.1.6-1.6.9z"/><path class="st28" d="M339 396.5c.4-.4.9-.5 1.4-.5h18.3c.5 0 1 0 1.4.5H339z"/><path d="M251.9 298v11c-.7-3.7-.7-7.3 0-11z" style="fill:#918562"/><path class="st12" d="M178.9 272.5v8c-.7-2.6-.7-5.3 0-8z"/><path d="M222 337.5c2-.7 4-.4 6.1-.4-2.1.8-4.1.3-6.1.4z" style="fill:#8c7f5a"/><path d="M250.1 301.5c0-1.9-.4-3.8.4-5.6-.1 1.9.4 3.8-.4 5.6z" style="fill:#8c805a"/><path class="st32" d="M219.5 339c-1.3.7-2.7.7-4 0h4z"/><path d="M293 370.5c-1.2-.1-2.4.4-3.5-.4 1.2 0 2.4-.5 3.5.4z" style="fill:#698a40"/><path d="M250.5 311.6c-.7-1.1-.4-2.4-.4-3.6.8 1.1.3 2.4.4 3.6z" style="fill:#8d815c"/><path class="st32" d="M231 338.5c-1.1.9-2.3.3-3.5.5 1.1-.9 2.3-.3 3.5-.5z"/><path class="st13" d="M224.6 519c-.4.5-1.1.3-1.6.5-.5 0-1-.1-1.5-.1 1-.8 2-.4 3.1-.4z"/><path d="M292.4 369c1.1-.8 2.1-.5 3.2 0-1.1-.1-2.1-.1-3.2 0z" style="fill:#8e825d"/><path class="st13" d="M219.6 519.5c-.8.6-1.7.5-2.6.4.8-.7 1.7-.4 2.6-.4z"/><path class="st36" d="M250.6 293c-.1-.9-.2-1.8.4-2.6 0 .9.3 1.9-.4 2.6z"/><path class="st13" d="M109 506.4c.8-.6 1.7-.4 2.6-.4-.8.8-1.8.5-2.6.4z"/><path class="st12" d="M179.1 283.4c.6.8.4 1.7.4 2.6-.8-.8-.5-1.7-.4-2.6z"/><path class="st28" d="M364 396.6c.9 0 1.8-.4 2.5.4-.8-.1-1.8.3-2.5-.4z"/><path class="st36" d="M252.4 292c.1.9.2 1.8-.3 2.6-.1-.9-.4-1.8.3-2.6z"/><path class="st25" d="M457.4 496c-4.6 1.3-9.2 2.6-13.8 3.8-.2 0-.4-.2-.6-.3 4.4-11.3 6.1-23.1 5.4-35.2-.2-3.3-.6-6.6-.7-9.9 5.4 10.1 8.7 20.8 9.9 32.1-.1 3.2-.1 6.4-.2 9.5z"/><path d="M374.4 476.4c.8 2.3 2 4.4 3.2 6.6 0 .2-.1.3-.1.5-3.9 2.6-7.8 5.2-11.6 7.8 2.5-5.2 5.2-10.2 8.5-14.9z" style="fill:#89202c"/><path d="M317.9 301.4c-.1-4.2 1-8.6 3.5-12.7 4-6.7 11.7-6.9 16-.4 5.2 8 4.9 20-.6 27.8-4.1 5.8-10.1 5.9-14.4.3-3.3-4.3-4.5-9.1-4.5-15z" style="fill:#7f684a"/><path d="M364 267.5c.8 4.5.8 9 0 13.5v-13.5z" style="fill:#8b7f59"/><path d="M303.1 369.4c-1.4 0-2.8.5-4.1-.4 1.4 0 2.8-.3 4.1.4z" style="fill:#8d805b"/><path d="M380.1 136c6.6-5.1 13.9-8.7 22.2-9.8 8.5-1.2 17-.7 25.4 1.1 5.6 1.2 11.1 2.7 16.5 4.5 1.1.4 2.3.6 2.8 1.9-.7.8-1.5.5-2.3.2-8.2-2.9-16.7-5.2-25.3-6-13-1.2-25.6.1-36.5 8.4-1 .8-2 1.5-2 3-1.2-.7-1.6.5-2.2 1-6.2 6.1-10.3 13.6-13.2 21.7-2.9 8-4.8 16.2-6 24.6-.1 1-.2 2-1.5 2.3-1.2-1.5-.2-3 .1-4.5 1.7-11 4.4-21.7 9.5-31.7 3.1-5.9 6.8-11.3 11.9-15.7.2-.4.4-.8.6-1z" style="fill:#75683d"/><path d="M307.5 195.5c2.7-.8 5.3-.8 8 0h-8z" style="fill:#62ba45"/><path d="M365.5 285c.1-1-.4-2.1.5-3-.1 1 .4 2.1-.5 3z" style="fill:#5b7a37"/><path class="st23" d="M196.5 463.1c2.7-3.9 5.6-7.7 8-11.9 4.7-8.3 7.5-17.2 9-26.6 0-.1-.1-.2-.1-.2 2.5-4.5 11.1-6.1 14.9-2.8 1.4 1.2 1.2 2.6.7 4.1-2.1 6.7-5.9 12.4-10.4 17.8-5.8 7-12.5 13.1-19.6 18.7-.6.5-1.3 1.5-2.5.9zM128.9 458.5c-5.1-8.5-8.5-17.5-7.9-27.5.3-4.9 2-9.4 5-13.3.4-.5.9-1 1-1.7 1.7.5 1.7 2.2 2 3.4 3 10.5 3.4 21.3 1.8 32.1-.2 2.4.1 5-1.9 7z"/><path class="st44" d="M196.5 463.1c2.6-1.2 4.6-3.3 6.7-5.1 8.4-7.2 16.3-15 21.8-24.7 1.6-2.8 2.7-5.7 3.7-8.7.4-1.2.1-1.9-.9-2.7-3.6-2.8-7.4-1.9-12.5 1.1-.7.4-1.3 1.1-1.9 1.6-1.4 1.1-2.8 2.3-4.2 3.5-.4.3-.9.6-1.3.3-.5-.3-.5-1-.1-1.3 4.6-3.9 8.7-8.6 15.5-8.5 3 0 5.1 1.6 7.1 3.7.7.7.4 1.5.2 2.3-1.6 6.4-5 12-9 17.1-9.8 12.5-21.8 22.5-35.2 31-.4.2-.7.5-1 .7-.6.3-1.2.4-1.5-.2-.4-.6.2-.9.6-1.2 1-.7 2.1-1.4 3.1-2.1 3.1-2.2 6.2-4.2 8.9-6.8zM128.9 458.5c1.9-8 2.5-16.2 2-24.4-.4-6.2-1.4-12.3-3.8-18.1-.3-2-1.4-3.7-2-5.6-.2-.6-.8-1.3.2-1.7.9-.3 1.1.5 1.4 1.1 2.4 5.6 4.4 11.3 5.4 17.3 1.9 12.2.8 24.1-2.4 36-.1.3-.1.7-.2 1-.3.6-.5 1.4-1.4 1.1-.7-.2-.6-1-.4-1.5.3-1.8.8-3.5 1.2-5.2z"/><path class="st24" d="M340.5 125.5c4.5-.7 9.1-.7 13.6 0h-13.6z"/><path d="M240.5 282c2 .8 3.3 2.3 4.2 4.3 3.2 7.1 3.2 14.2-.5 21.1-2.1 3.9-4.8 4.6-8.6 2.5-5.7-7.6-5.7-15.8-2.1-24.1 1.5-3.5 3.7-4.6 7-3.8z" style="fill:#7f684b"/></svg>