<svg version="1.1" id="Calque_1" xmlns="http://www.w3.org/2000/svg" x="0" y="0" viewBox="0 0 1649 1649" style="enable-background:new 0 0 1649 1649" xml:space="preserve"><style>.st0{fill:#b2b6a9}.st1{fill:#d3d5ce}.st3{fill:#c9d8d7}.st4{fill:#d6d8d1}.st6{fill:#d8dad4}.st15{fill:#a2a490}.st17{fill:#acb1a1}.st19{fill:#75683d}.st20{fill:#abb09f}.st21{fill:#acb2a1}.st22{fill:#b5ae90}.st23{fill:#a59c7b}.st24{fill:#fffff1}.st25{fill:#dad6c0}.st26{fill:#b5ad90}.st28{fill:#a59d7b}.st29{fill:#dbd8c3}.st30{fill:#b7b093}.st33{fill:#c7c2a8}.st34{fill:#a59d7c}.st42{fill:#cbc6ad}.st43{fill:#998f6c}.st46{fill:#bab497}.st48{fill:#b0a98a}.st51{fill:#a69e7d}.st55{fill:#bbb599}.st57{fill:#cfa6d5}.st60{fill:#d2ceb6}.st61{fill:#dedbc6}.st68{fill:#b4ad90}.st69{fill:#cac5ac}.st70{fill:#d1cdb5}.st74{fill:#bbb498}.st75{fill:#b2b2a8}.st78{fill:#c9c4ab}.st82{fill:#bab397}.st83{fill:#9a9980}.st90{fill:#9b9b83}.st92{fill:#bcb699}.st103{fill:#9c837e}.st105{fill:#9fa18b}.st114{fill:#a0a18c}.st116{fill:#9e9271}.st117{fill:#d8ccbb}.st123{fill:#ece6dd}.st126{fill:#98739d}.st127{fill:#9b8e6d}.st128{fill:#b4a88d}.st135{fill:#a9a083}.st136{fill:#baae94}.st137{fill:#b9b199}.st138{fill:#a99f83}.st146{fill:#b2a68b}.st150{fill:#7f694b}.st164{fill:#c8c0ac}.st178{fill:#968a67}.st183{fill:#a59b7e}.st187{fill:#cfa7d5}.st190{fill:#a1a38e}.st199{fill:#9a9a81}.st204{fill:#b9b295}.st207{fill:#aaa282}.st211{fill:#a0a28b}.st212{fill:#bbb598}.st213{fill:#959378}.st223{fill:#99987e}.st241{fill:#a0a28c}.st243{fill:#9b9a82}.st245{fill:#a8ad9b}.st276{fill:#989982}.st286{fill:#9a8d6c}.st296{fill:#d0d2ca}.st303{fill:#cccfc6}.st305{fill:#cccfc7}.st313{fill:#d2d4cd}.st324{fill:#d2d5cd}</style><path class="st0" d="M432 323h-1c0-24.1 6.5-49 8.9-73 3.8-37.2 7.4-75.1 13.5-112 2.5-15.4 5.4-32.4 5.6-48 0-3.3 3.6-12.1.7-14.3-2.9-2.2-11.1-.7-14.7-.7h-38c-3.7 0-12.4-1.6-15.1 1.3-3.3 3.6-4.5 11.1-6.2 15.7-4.8 12.6-9.2 25.4-14 38-10.4 27.2-20.6 54.5-30.3 82-4 11.5-10.2 23.1-12.9 35-2.2 9.3-1.4 19.5-2.3 29-4.6 46.1-2.6 92.9-7.2 139-3.5 35.5-3.9 71.4-5.9 107-4.1 71.6-7.9 143.3-12 215-3.6 61.8-4.8 124.4-10.9 186-2.8 28.2-1.4 56.8-4.2 85-4.5 45.5-7.9 93.2-7.9 139 0 51.5-6 103.6-9 155l-3 54c-.6 10.8 0 21.6-3.4 32-6 18.3-11.4 36.7-17.3 55-1.3 4.1-7.1 15.8-1.3 17l6-25 16.8-54 3.3-69 8.8-147 20.2-375L323 364l4.9-79 1.5-34 13.2-36 25-68 18.1-49 8.8-20 18.6-1h46c-10.2 54.9-13.9 112.4-20.2 168-3.9 34.5-12.9 70.3-12.9 105h1c3.1-24.1 11.7-48.4 17.6-72 12.3-49 24.7-98 37-147 4.4-17.6 9.5-35.2 13.4-53 1.1-4.9 1.8-17.1 6.4-19.9 2.6-1.6 7.7-.2 10.6.1 9 1 18 2.8 27 3.8 36.3 4 73.5 14 110 14l-44-6.3-71-9.8-24-3.3-10.4-.6-5.7 18-12.2 49-33.5 133-16.2 67z"/><path class="st1" d="M508 56v1h5l-5-1z"/><path d="M427 350h-1c.1-33.8 8.2-69.5 12.7-103 7.6-56.6 13.1-113.5 20.3-170h-47l-18.3 1-8 19-17.3 47-25.7 70-13.2 36-1.4 33-3.9 61-45.2 820-8.8 147-3.3 69-17.5 56-5.6 21.7 12.3 3.4 39 4.9 160 20.2 323 40.1 109 13.9 55 7.8 48-12.8 123-31.2v32l165-37-15.4 57-7.6 31 70 8.1 28 1.9v-1l-95-11 22-88c-19.2.1-40.3 7.8-59 12.2-34.9 8.1-70.1 14.9-105 22.8 0-5.6 3.1-26.5-1.6-29.9-3.4-2.5-10.8 1-14.4 1.7-13.9 2.9-28.5 6.6-42 10.9-18.2 5.8-37.5 8.6-56 13.7-29.6 8.1-57.1 17.1-88 13.3-80.2-9.7-159.9-21.7-240-31.4-75.4-9.2-150.8-17.1-226-27.5-45.3-6.3-90.6-11.4-136-17.1-21.8-2.7-44-7.7-66-7.7 1.2-26.7 20.4-51.5 22.9-78 4.4-46.4 4-93.4 7.2-140 9-131.9 13-264.1 22-396 5.8-85.3 8.2-170.8 14-256 2.5-36 3.5-72 6-108 2.2-32.8 5.9-66.1 5.9-99 0-27.5 3-55.5 4.9-83 1-15.3-.5-32 2.5-47 2.1-10.8 7.7-21.7 11.6-32 8.1-21.6 16.5-43.2 24-65 6.4-18.5 13.7-36.6 20.3-55 1.9-5.4 3.8-16.8 9-20 4.3-2.7 12.9-1 17.7-1h43l-9.7 76-15.6 132-8.7 73c5.9-2.1 6.3-12.6 7.6-18l13.2-53c12.9-51.7 26.1-103.3 39-155 6-23.9 16.1-49.5 18.1-74l91 12.3 55 6.7v217c5-1.8 4.8-8.4 6-13 3.2-12.9 5.5-26 8.5-39 8.6-37.6 17.1-75.4 25.8-113 3.9-16.8 9.5-33.9 11.7-51h581v211h1V78h-96v-1h97v198l2 14c-5.1-21.4-1-48-1-70V76H708l-11.4 1.2-4.4 13.8-8.3 37-22.4 98-11.5 51c-4.8-20.2-1-45.3-1-66V76c-36.4 0-73.9-9.8-110-14.2-9.1-1.1-29.2-8.1-37.6-4.2-4.4 2.1-5.3 14.1-6.2 18.4-3.7 17.4-8.7 34.7-13.1 52-12.4 49.7-25.1 99.3-37.5 149-5.9 23.6-15.7 48.8-17.6 73z" style="fill:#99a497"/><path class="st3" d="M501 59c-3.3 24.5-12.1 49-18.1 73-12.8 51-25.7 102-38.5 153l-13.5 54c-1.5 6.2-2 16.6-7.9 20l6.8-57 17.5-147 8.7-76h-62c-11.4 41.9-30.2 83.3-45.4 124-5.6 15.1-14.1 31.2-17.2 47-5.1 25.9-3.3 55.6-4.4 82-2.4 55.6-5.2 111.5-9.1 167-12.2 178.2-17.8 356.8-30 535-5.5 80.3-8.3 160.7-13.8 241-2.4 34.6-1.9 69.5-5.2 104-2.5 26.8-22.3 51.9-22.9 79 29.7.1 62.4 14.1 91.8 8.7 9.7-1.8 20.2-7.6 29.2-11.6 16.1-7.3 33-13.2 49.1-20.7 50.7-23.8 102.8-46.2 150.9-75.4v-1H399l-11.7-100-13.3-110c47.4 3.7 94.8 11.1 142 16.7 51.9 6.2 104.1 11.2 156 17.6 28.6 3.5 57.6 6 86 10 12.9 1.8 32.3 8.3 45 4.1 14-4.6 29-23.6 40-33.3 23.2-20.5 46.1-41.3 68-63.2 9.3-9.3 20.4-18.3 28-29-3.2-.7-8-1.3-10-4.3-2.6-4.1-2.2-12.9-3.1-17.7-2-10.3-5.6-21.4-9.6-31-19.6-47-47.5-90.2-77.9-131-7.3-9.8-14.6-19.5-22.2-29-2.2-2.8-5.2-8.2-9.2-8.3-5.7 0-13.1 7.7-17 11.3-14.3 13.7-24.6 32.2-27.6 52-5.8 38.9-10.6 76-22 114-3 10.1-7.7 33-16.5 39.4-7.2 5.2-26.2 1.6-34.9 1.6-2.6 20-6.7 42-12.3 61.4-2.5 8.6-3.2 16.8-13.7 19.9-7.9 2.3-14-9.2-16-15.3-4.3-13.3-10.3-29.4-12.7-43-.8-4.8-1.1-15.2-6.5-17.4-3.6-1.4-9.1.4-12.9.9-9.4 1.3-18.7 2.7-28 4.5-28.3 5.3-56 11.5-84 18.3-15 3.6-30.9 7.3-43.9-3.8-11.1-9.5-15.9-32.7-19.1-46.5-16.9 0-36.5 6.4-53 3.3-7-1.3-17.3-6.6-13.8-15.3 2.5-6.1 8.8-10 13.8-13.9 9.7-7.6 19.5-15.2 29-23 3.6-2.9 9.5-6 11.4-10.4 3.7-8.7-1-25-.3-34.7 2.1-30.4 8.8-59.2 18.6-88 5.1-14.9 12.6-30.5 30.3-32.7 9.3-1.1 16.9 6.6 25 9.7 18.5-27.3 36.1-55 59-79 8.5-8.9 17.4-17.5 27-25.2 4.5-3.6 12.2-7.3 15.3-12.1 2.4-3.9-2.8-10.1-4.3-13.7-4-9.7-2.7-18.3 6-25-5.5-11.7-16.6-21-22.6-33-20.7-41.4-23.4-91.6-.9-133 5.4-9.9 12.1-19.3 20.5-26.8 4.2-3.8 12-6.8 15-11.6 2.9-4.7 1.3-14.1 2.5-19.6 4-17.9 15.4-31.1 32.5-37.8 18.3-7.2 35.7 1.5 51 12.2 5.2 3.7 15.5 17.7 22 13.2 9.3-6.4 17.1-15.7 25-23.7 20.6-20.6 40.6-43.2 52.7-70 13.5-29.8 21.1-65.9 48.3-87.3 7.6-6 13.2-5.3 22-7.1 16.9-3.6 34.8-3.8 52-4.6 53.5-2.3 107.1 1.3 159 15.4 15.6 4.2 30.3 9.9 45 16.3 8.2 3.6 17 9.2 26 10.3l11.7-77L1185 79H699l-49 216c-5.2-2.9-4-8.7-4-14V78l-53-6.7L501 59z"/><path class="st1" d="M530 59v1h5l-5-1z"/><path class="st4" d="M552 62v1h5l-5-1z"/><path class="st1" d="M559 63v1h6l-6-1z"/><path d="M574 65v1h5l-5-1z" style="fill:#d6d8d0"/><path class="st1" d="M581 66v1h6l-6-1z"/><path class="st4" d="M596 68v1h5l-5-1z"/><path class="st1" d="M603 69v1h5l-5-1z"/><path class="st6" d="M618 71v1h5l-5-1z"/><path d="M625 72v1h5l-5-1z" style="fill:#d4d6cf"/><path d="M696 77c19-4.5 42.5-1 62-1h526c-10.5-4.4-28.6-1-40-1H731c-7.5 0-30.1-3.7-35 2z" style="fill:#c0c3b8"/><path d="M649 76v137c0 19.4-4.5 45.4 1 64l2-7h-1v3h-1V95l-1-19z" style="fill:#c6c9bf"/><path class="st0" d="M1283 76v212h1l38-62c5.8 13.7 4.1 34.2 5.1 49 2.1 30.3 5.2 60.8 8.1 91 6.9 72.7 16.6 146.1 19.8 219 1.4 32.2 0 64.8 0 97v916l-41-3v1l42 4V579l-6.8-76-17.2-194-5.6-64-3.6-20.1-10.6 13.1-28.2 44V96l-1-20z"/><path d="M1185 77v1h96v213c6.3-1.9 9.3-9.7 12.6-15 9.1-14.6 20.6-29.3 27.4-45h1l7.8 92 14.3 165 8.8 97v1012h-4v1h6V631c0-97.2-12.5-195.3-21.8-292-2.6-26.3-4.5-52.7-7-79-.9-9.6.7-25.8-4.2-34l-40 63V77H1185z" style="fill:#8e9888"/><path d="M395 78v1h61v5h1v-6h-62z" style="fill:#b0bdb5"/><path d="M646 78v216h1V98l-1-20z" style="fill:#b1bdb6"/><path d="m1185 79-22.9 165-6.5 42-4.7 14v1c7.8 3.7 22.5 9.5 27 17.1 5.7 9.6 5.7 27.9 7.3 38.9 3.4 23.1 9.1 46 13 69 1.2 7 5 16 4.1 23-1.1 8.5-19 17.7-25.4 22.7-15.8 12.2-30.9 25-46 38.1-7.1 6.2-16.2 12.6-21.6 20.3-4 5.6-4.3 15.4-5.7 22-2.8 13.4-6.4 26.7-9.6 40-11.1 46.8-23.5 93.4-35.5 140-1.6 6-6.9 16.9-5.4 23 1.6 6.4 13 14 11.3 20.9-1.8 7.5-18.3 15.3-24.5 19.1.8 7.9-3.3 16.5-5.4 24-4.8 16.7-9.5 33.4-14.6 50-2 6.6-9.3 20.4-6.4 27 4.1 9.5 13.1 19.2 18.8 28 1.7 2.7 3.9 8.1 7.1 9.3 7.4 2.8 23.5-4.2 30.6-6.7 28.9-10.4 63.3-32.6 69-65.6h4c-3.3 12.8 1.4 28.9 2.8 42 3.4 31.7 6.6 63.3 10.5 95 1.4 11.7 2.6 23.3 4 35 .4 3.6 2.7 10.4.9 13.7-2.3 4-9.2 6.6-13.1 8.6-12.1 6.2-24.8 11.9-38 15.4-39.4 10.3-76.5 12.1-117 9.3-12.4-.9-24.7-3.5-37-5.5-4.7-.8-11.3-3.4-16-2.4-4.8 1-8.7 6.7-12 10l-25 25c-20.8 20.8-42.8 40.4-65 59.7-11.3 9.8-25.9 19.4-35 31.3 34.5 6.4 71 8.7 106 12.2 41.4 4.2 82.6 10.7 124 14.7 19.2 1.8 38.6 5.4 58 6.2 4.4.2 19.5.6 22 4.3 4.5 6.8 1 25.6 1 33.7v89H603l-30-2c-20.7 8.3-40.1 21.5-60 31.7-39.9 20.6-80.4 40.3-122 56.9-20.8 8.3-42.1 22.4-65 22.4v1c40 0 81.5 9.3 121 14.8 101.4 14.1 203.3 25.4 305 37.5 41.3 4.9 82.7 10.6 124 16 16.9 2.2 33.9 6.2 51 6.7 18.9.5 34.6-4.5 53-8.6 29.5-6.6 58.4-15.8 88-21.8 11.1-2.3 21.9-6.4 33-8.8 3.6-.7 9.1-3.5 12.7-1.6 5.4 2.9 2.3 24.2 2.3 29.8l117-25.4 47-9.6c-5.9 28.6-20.7 58.8-22 88l95 11V584l-8.8-97-14.3-165-7.8-91h-1l-28.1 45-10.7 13.4-2.3-11.4V79h-95z" style="fill:#b3c0b9"/><path d="M928 257v1h52l-17-1h-35z" style="fill:#b6beb3"/><path class="st15" d="M900 259v1l28-1h-28z"/><path d="M928 258v1h52l-17-1h-35z" style="fill:#8b8666"/><path class="st17" d="M980 258v1h17l-17-1z"/><path d="M908 259v1h14l-14-1z" style="fill:#8b8665"/><path class="st19" d="M604 687c-9.4 4.8-9.5 17.2-6 26 1.4 3.5 6 9 3.4 12.7-7 10.1-22.6 17.5-31.5 26.3-25.6 25.5-53.4 57-69 90-9.6-5.3-19.4-11.7-31-8.4-15 4.3-20.1 18-24.7 31.4-9 26.6-17 54.6-17.3 83-.1 10.9 3.5 28.7-.6 38.8-1.8 4.5-7.8 7.5-11.4 10.4-10.2 8.3-20.6 16.6-31 24.6-5.5 4.3-14 9.9-12.7 18.1 1.2 7.7 10.2 9.9 16.7 10 11.1.1 23-1 34-2.3 4-.5 11.1-2.8 14.7-.7 4.3 2.6 5.1 11.5 6.6 16 4.1 12.4 7.4 27.8 19.7 34.5 15.7 8.6 35.1.5 51-3.1 38.3-8.6 76.4-15.3 115-22.4 2.8 20.5 12.2 41.1 17.9 61 2.3 7.9 4.9 17.1 15.1 15.9 5.5-.7 11.3-5.5 12.5-10.9 2.6-11.5 3.2-23.4 5.6-35 2.4-11.8 6.4-24 6.9-36 9 0 29.1 3.8 36.7-1 3.5-2.2 5.3-10.2 6.9-14.1 5.7-13.5 10-27.8 13.5-41.9 4.8-19.3 9-38.7 12.6-58.2 2.2-11.8 1.3-24 3.3-35.8 4-22.8 15.9-43.8 33.9-58.5 2.9-2.4 8.8-8.1 12.9-7 4.5 1.2 8.7 9 11.4 12.6 8.9 11.5 17.8 23.1 26.2 35 25.5 36 51.8 73.4 68.1 114.6 7 17.7 15.3 37.1 15.3 56.4 18.4 2.7 36.4 7.8 55 9.8 41.6 4.5 84.5 3.7 125-7.7 13.9-3.9 27.1-9.4 40-15.9 5.2-2.7 12.2-5.3 14-11.2-8.8 1.6-16.9 8.4-25 12.2-14.1 6.7-29.7 12-45 15.3-34.7 7.5-70.8 8.4-106 4.2-18.5-2.2-36.6-7.2-55-9.7-.1-24.5-12.7-50.4-23.1-72-26.1-54.3-64.2-98.7-97.9-148 33-13.7 63.3-19 99-19 10.9 0 25.8-2.3 36 1.9 11.1 4.5 22.6 19.7 31 28.1 30.2 30.3 59.3 69.9 69 112h4l-10-32c40.8-1.8 95.6-32.7 103-76h-4c-9 32.8-38.8 54-69 65.2-6.6 2.5-23.8 10.1-30.6 6.6-2.9-1.5-4.7-6.2-6.4-8.8-5.1-7.8-9.8-15.5-15.4-23-10.9-14.5-21.3-29.7-33.7-43-9.8-10.5-22.6-19.2-30.9-31 30.3-2.4 63.7-16.1 89-32.5 5.3-3.4 24.6-13 23-20.5-1-4.9-5.6-10-8.4-14-9.2-13.5-21.2-26-33.7-36.6-4.7-3.9-19.2-11.4-20.4-17.5-.8-4.2 5.7-10.7 8-13.9 6.3-8.9 12.5-18 18.8-27 2.3-3.4 7-7.8 7.5-12 .5-4-4.1-7.2-6.3-10-4.7-6.2-8-14.3-5.3-22 5.3-15.3 20.1-25.3 30.5-37 29.2-33 62.7-63.2 96.3-91.6 12-10.2 24.6-19.5 37-29.2 4.2-3.3 12.5-7.5 13.6-13.2.9-4.8-1.7-10.3-2.4-15-2.1-12.4-4.8-24.6-6.9-37-3.1-18.4-7.1-36.6-10.1-55-1.2-7.3-1.1-20.8-5.7-26.7-9.9-12.5-35-20.6-49.4-26.8-53.2-22.7-110.6-30.6-168-30.6-25.9 0-52.3-.3-78 2.7-9.2 1.1-22 .6-30 5.8-30.4 19.7-38.1 62.9-52 93.5-11.4 25.3-33.7 47.7-53 67-7.3 7.3-14.9 17.3-24 22.5-5.4 3.1-18.1-12-23-15.1-16.8-10.7-33.8-17.3-53-9-15.2 6.6-25.9 20.2-28.7 36.6-.9 5.6 1.8 14.8-1.4 19.7-2.6 4-11.1 6.6-15 9.8-8.7 7.2-15.5 16.7-21 26.5-22.8 41.1-20.3 94.7.3 136 6.4 12.2 15.4 21.3 23 32.1z"/><path class="st20" d="M997 259v1l19 1-19-2z"/><path class="st21" d="M884 260v1h16l-16-1z"/><path class="st17" d="M874 261v1h10l-10-1z"/><path class="st22" d="M923 261v1h57l-18-1h-39z"/><path class="st23" d="M905 262v1h12l-12-1z"/><path class="st24" d="M837 291c9-.6 18.1-4.2 27-5.8 18.9-3.4 39.8-5.3 59-2.9 11.7 1.5 23.6 6 34 11.5 3.9 2.1 9.5 8.7 14 8.3 8.3-.6 19.4-12.1 28-15 25.8-8.9 52.1-4.7 78 1.1 8.3 1.9 23.5 3.9 28 11.8 24.8 2.7 46.2 24 71 27-.8-9.5-8.4-12.5-16-17-16.5-9.7-34-17.5-52-24-64.7-23.4-132.2-25.1-200-22-23.5 1-62.6-1.9-71 27z"/><path class="st25" d="M973 262v1h12l-12-1z"/><path class="st26" d="M985 262v1h16l-16-1z"/><path d="M857 264v1l13-1h-13z" style="fill:#8d896a"/><path class="st28" d="M893 263v1h6l-6-1z"/><path class="st25" d="M899 263v1h14l-14-1z"/><path class="st29" d="M994 263v1h7l-7-1z"/><path class="st30" d="M1001 263v1h6l-6-1z"/><path d="M1007 263v1h7l-7-1z" style="fill:#968c68"/><path d="M1031 263v1l16 2-16-3z" style="fill:#959377"/><path class="st33" d="M886 264v1h7l-7-1z"/><path class="st29" d="M1007 264v1h7l-7-1z"/><path class="st28" d="M1014 264v1h6l-6-1z"/><path class="st34" d="M872 265v1h7l-7-1z"/><path class="st33" d="M879 265v1h7l-7-1z"/><path d="M1016 265v1h4l-4-1z" style="fill:#dbd7c2"/><path d="M1020 265v1h5l-5-1z" style="fill:#b6b092"/><path d="M863 266v1h4l-4-1z" style="fill:#958b66"/><path class="st33" d="M867 266v1h5l-5-1z"/><path d="M1026 266v1h7l-7-1z" style="fill:#c1bba0"/><path d="M1048 266v1h7l-7-1z" style="fill:#98967c"/><path d="M860 267v1h7l-7-1z" style="fill:#dad6c1"/><path class="st30" d="M1033 267v1h8l-8-1z"/><path d="M1055 267v1l10 1-10-2z" style="fill:#a9ae9c"/><path class="st42" d="m858.7 268.3.7.3-.7-.3z"/><path class="st43" d="M1053 270v1h5l-5-1z"/><path d="M1068 270v1h4l-4-1z" style="fill:#a6a997"/><path d="M1072 271v1h4l-4-1z" style="fill:#a6aa96"/><path class="st46" d="M1060 272v1h5l-5-1z"/><path d="M1076 272v1h4l-4-1z" style="fill:#a9ad9b"/><path class="st48" d="M1065 273v1l8 1-8-2z"/><path class="st20" d="M1080 273v1h4l-4-1z"/><path d="M1084 274v1h4l-4-1z" style="fill:#aeb4a4"/><path d="M1073 275v1h4l-4-1z" style="fill:#aaa283"/><path class="st51" d="M1077 276v1l9 1-9-2z"/><path d="M1086 278v1h3l-3-1z" style="fill:#a79f7e"/><path d="M1097 278v1h5l-5-1z" style="fill:#b0b7a8"/><path class="st51" d="M1091 280v1h4l-4-1z"/><path d="M1104 280v1h3l-3-1z" style="fill:#a0a28d"/><path class="st55" d="m1095.7 281.3.7.3-.7-.3z"/><path d="M1107 281v1l5 1v-1l-5-1z" style="fill:#97967b"/><path class="st57" d="M836 290c-5.7 11.1-12.7 21.4-17.6 33-6.5 15.4-10.5 31.5-18.9 46-12.6 22-29.7 41.2-47.6 59-9.7 9.7-20.5 24.2-33 30-3.6-7.8-12-13.9-19-18.6-21.4-14.3-46.9-19.5-66.8.8-11 11.2-12.2 26.1-12.2 40.8l35-5c-.1-5.5-2.7-12.8.2-17.9 3.3-6 11.2-5.5 16.8-3.9 13.4 3.9 25.8 10.5 38 17.4 4.2 2.4 13.9 10.4 18.8 8.3 5.6-2.5 10.6-11.3 14.6-15.9 7.3-8.5 16.3-16.1 25.6-22.3 27.8-18.7 57.8-22.7 90-16.4 9.4 1.8 20.6 3.5 28.8 8.9 8 5.3 15.2 17.8 20.2 25.9 23.4-11.8 13.9-42.8 17.1-62 3.9-23.4 10.4-47.6 23-68 6.2-10.1 14.6-17.9 21.9-27-27.3-19-57.7-25-91-20.7-13.5 1.7-30.4 10-43.9 7.6z"/><path d="M1017 282v1h5l-5-1z" style="fill:#dedac6"/><path d="M1022 282v1h26l-26-1z" style="fill:#bdb69b"/><path class="st60" d="m1097.7 282.3.7.3-.7-.3z"/><path class="st61" d="m841 283-1 3 1-3z"/><path class="st33" d="M1012 283v1h5l-5-1z"/><path class="st43" d="M1017 283v1h5l-5-1z"/><path class="st19" d="M926 409h3c2.9-56.5 34.9-118.7 97-122.9 19.9-1.4 38.8 3.2 58 7.8 6.8 1.6 12.9 5.8 20 6.2-2.1-6.4-12.2-7-18-8.7-18.4-5.3-36.9-8.3-56-8.3-65.9 0-103.5 65.5-104 125.9z"/><path d="M1042 283v1h6l-6-1z" style="fill:#978d6a"/><path class="st55" d="M1048 283v1h8l-8-1z"/><path d="M1112 283v1h3l-3-1z" style="fill:#9d9d86"/><path d="M1007 284v1h5l-5-1z" style="fill:#bfb99e"/><path d="M1056 284v1h5l-5-1z" style="fill:#c5bfa6"/><path d="m1103.7 284.3.7.3-.7-.3z" style="fill:#cecab2"/><path d="m835 285-1 3 1-3z" style="fill:#8f8b6d"/><path class="st33" d="M1004 285v1h3l-3-1z"/><path class="st68" d="M1062 285v1l12 2-12-3z"/><path class="st69" d="M1106 285v1h3l-3-1z"/><path class="st70" d="M1000 286v1h3l-3-1z"/><path d="M1022 286v1h27l-27-1z" style="fill:#9a957e"/><path d="m1109.7 286.3.7.3-.7-.3z" style="fill:#c2bca1"/><path d="M849 288v1l7-1h-7z" style="fill:#e8d5e4"/><path class="st74" d="M995 288v1l5-1h-5z"/><path class="st75" d="M1040 594c14.5-8.6 27-27 39-39 24.9-24.9 50.9-48.5 78-71.1 9.8-8.2 19.8-16.1 30-23.8 3.7-2.8 10.6-6.3 11.6-11.2 2.2-9.9-4.3-26-6.2-35.9-5.3-28.6-13.2-58.1-15.5-87l-16.3-4.6L1121 306l-16-9h-1v3c-10.5-1.1-21.6-6.7-32-9.2-29.1-6.8-73.7-9.4-96.9 13.5-5.1 5.1-2.9 13.3-2.3 19.7 1.4 15.2 3.4 30.8 4.1 46 2.7 55.4 20.1 114.2 39.1 166 7.2 19.4 18.4 38.3 24 58z"/><path d="M1049 287v1h9l-9-1z" style="fill:#979279"/><path class="st74" d="M1112 287v1h3l-3-1z"/><path d="M1006 289v1l6-1h-6z" style="fill:#969077"/><path class="st78" d="M1075 288v1h4l-4-1z"/><path d="m1115.7 288.3.7.3-.7-.3z" style="fill:#b0a88a"/><path d="M992 289v1h3l-3-1z" style="fill:#c9c3aa"/><path d="M1079 289v1l7 1-7-2z" style="fill:#cac5ad"/><path class="st82" d="m1117.7 289.3.7.3-.7-.3z"/><path class="st83" d="m1127.7 289.3.7.3-.7-.3z"/><path d="m990.7 290.3.7.3-.7-.3z" style="fill:#beb79b"/><path class="st42" d="m1119.7 290.3.7.3-.7-.3z"/><path class="st46" d="m988.7 291.3.7.3-.7-.3z"/><path d="M1086 291v1h4l-4-1z" style="fill:#cfcab2"/><path class="st82" d="m1122.7 291.3.7.3-.7-.3z"/><path d="M1090 292v1h3l-3-1z" style="fill:#b8b195"/><path d="M1124 292v1h3l-3-1z" style="fill:#c2bca2"/><path class="st61" d="M1093 293v1h4l-4-1z"/><path d="m1127.7 293.3.7.3-.7-.3z" style="fill:#ada586"/><path d="m1129.7 294.3.7.3-.7-.3z" style="fill:#b3ac8e"/><path class="st90" d="M1138 294v1h3l-3-1z"/><path d="m833 295-1 3 1-3z" style="fill:#ad8f9b"/><path class="st26" d="m1099.7 295.3.7.3-.7-.3z"/><path class="st92" d="m1131.7 295.3.7.3-.7-.3z"/><path class="st34" d="m1136.7 297.3.7.3-.7-.3z"/><path class="st23" d="m1138.7 298.3.7.3-.7-.3z"/><path d="m1147 298 3 2-3-2z" style="fill:#97957b"/><path class="st23" d="m1140.7 299.3.7.3-.7-.3z"/><path d="M1107 300v1l5 1v-1l-5-1z" style="fill:#d7d6cb"/><path d="m1142.7 300.3.7.3-.7-.3z" style="fill:#a59d7d"/><path d="M1117 304v1l5 1v-1l-5-1m5 2v1l5 1v-1l-5-1z" style="fill:#d7d7cb"/><path d="m1153.7 306.3.7.3-.7-.3z" style="fill:#afa788"/><path d="M971 308c-20.2 17.9-30.2 43.6-37.1 69-2.6 9.7-.7 23.9-6.9 32 3.9 16.3-4.7 40.8-18 51-9.6-22.8-26.6-30.1-49-35-32.5-7.1-64.4-1.7-92 17.3-8.5 5.9-16.8 12.8-23.6 20.7-4.1 4.7-9 13.3-14.6 16.2-4.7 2.4-14.8-5.9-18.8-8.2-12.1-6.9-25.3-14.2-39-17.3-5-1.1-12.8-1.6-15.8 3.5-3.4 5.7 0 13.9.8 19.8 25.2 4.7 45.9 23.5 60.3 44 4.8 6.9 7.4 15.6 12.7 22 10.5-14.1 16.3-31.7 27.4-46 32.6-41.8 88-72.3 136.6-36.8 9.9 7.2 19.2 17.3 25.4 27.8 13.1 22.2 18.2 48.2 23.1 73 1.5 7.5-3.2 24.2 3.5 29l-1-3h6v-1h-3v-3h3v-1l-3-2 3-2-7 1 7-8v-1l-3-3 11-9c-1.3-7.1 3.7-6.6 9-8l-1-4h-6l-1 3h-1l-1-4 9-6v-1l-3-3 11-9c-.8-4.1.3-6.1 4-8v4h-4l3 4-1-3h6v-1l-3-3 11-9c-.8-4.1.3-6.1 4-8v4h-4l3 4-1-3h6v-1h-3v-3c13.5-3.9-.2-34.2-2.6-44-8.6-34.4-13.9-68.9-18.1-104-1.7-14.1 1.1-34.1-4.3-47z" style="fill:#98729d"/><path d="m1168.7 315.3.7.3-.7-.3z" style="fill:#afa889"/><path d="m815.3 320.7.3.7-.3-.7z" style="fill:#a3a692"/><path d="M1175 320v3h1l-1-3z" style="fill:#c7c1a7"/><path d="m812.3 327.7.3.7-.3-.7z" style="fill:#a2a48f"/><path class="st103" d="m815 330-1 4h1v-4z"/><path d="m800.3 359.7.3.7-.3-.7m-1 2 .3.7-.3-.7z" style="fill:#9fa18a"/><path class="st105" d="m798.3 363.7.3.7-.3-.7z"/><path d="m933 366-3 14h1l2-14z" style="fill:#9a817b"/><path d="m929 382-1 7h1v-7z" style="fill:#9e8582"/><path d="m927 390-2 18h1l1-18z" style="fill:#a68a90"/><path d="M927 410v16h1l-1-16z" style="fill:#b790bc"/><path d="M663 421v1h5l-5-1z" style="fill:#afb6a7"/><path d="M659 426v1l9-1h-9z" style="fill:#a4888b"/><path class="st90" d="m686.7 428.3.7.3-.7-.3z"/><path d="M836 444v1h18l-18-1z" style="fill:#886e70"/><path d="M833 448v1h25l-25-1z" style="fill:#c9c1ae"/><path class="st114" d="m622.3 449.7.3.7-.3-.7z"/><path d="M869 598c0-25.8 7.8-50.7 4.7-77-2.1-17.5-2.6-33.7-6.8-51-1.5-6-3-14.7-7.7-19.3-4.2-4-16.7-1.7-22.2-1.7-29.2 0-57.8 25.5-75 47-36.1 45.3-49.9 106.2-46 163 1.6 22.8 7.7 50 20.4 69 3.6 5.4 9.3 16.3 16.7 16.6 34.1 1.2 70.6-25.5 89.3-51.6 4.8-6.7 11.9-14.8 14-23 1.7-6.5-6.2-14-8.3-20-5.9-16.8-1.1-49.6 20.9-52z" style="fill:#ebe6dd"/><path class="st116" d="M858 449v1h5l-5-1z"/><path class="st117" d="m860 450 12.9 49v71l-3.9 28c39.9 6.2 25.6 89.8-12 69-2.6 8.8-8.7 16.6-14 24-23 32.2-54.3 47-92 54 30.2 42.9 93.3 24.3 124-6 54.8-54.1 77.5-142.9 55-217-9.4-31-32.8-71.7-70-72z"/><path d="M620 467v14h1l-1-14z" style="fill:#917b6c"/><path d="M617 469c0 5.3 1.1 11-3 15v1c5.6-1.9 5-11.3 3-16z" style="fill:#918e71"/><path d="M656 473c-2.6 4-7.6 3-12 3v1h13l-1-4z" style="fill:#b292a4"/><path d="M636 477v1h8l-8-1z" style="fill:#927c6d"/><path d="M633 481v1l25-1h-25z" style="fill:#bbb29b"/><path class="st123" d="M693 595c3.5-18.6-1.7-38.6-8.1-56-4.1-11.2-10-21.8-16.2-32-4.6-7.5-11.1-20.6-19-25-4.1-2.3-9.5-.4-13.8-.1-20.9 1.4-36.7 15-48 32.1-22.9 34.6-23.7 81.6-11 120 4.2 12.9 10.9 34.5 23.1 42.1 9.6 6 26 5.8 36.9 4.8 15.1-1.5 40.5-11.3 43.4-28.8.9-5.4-5-11.2-6.7-16.1-5-14.2.2-43.2 19.4-41z"/><path class="st117" d="M650 481c16.1 28 36.5 50.7 42.1 84 1.3 7.6 5.8 25.2-2.1 30v1c17.7 2.7 16.5 32.9 11.4 45-4.1 9.7-11 14.9-20.4 9-12.9 35-51.1 31.3-80 27 23.3 35.2 86.1 41.8 110.9 4 4.1-6.2 1.4-15.2.1-22-2.1-11.2-3.2-23.6-1.9-35 1.7-14.6 3.9-30 8.5-44 2.8-8.6 9.6-20.9 9-30-.6-9.3-8.3-20-13.4-27.3-15.3-22-36-41.7-64.2-41.7z"/><path d="m672.7 485.3.7.3-.7-.3z" style="fill:#a89c7e"/><path d="m674.7 486.3.7.3-.7-.3z" style="fill:#a89b7d"/><path class="st126" d="m1003 497-7 6v3h3v1h-6l1 3-3-4h4v-4c-4.3 1.3-5.7 3.8-4 8l-11 9 3 3v1h-6l1 3-3-4h4v-4c-4.3 1.3-5.7 3.8-4 8l-11 9 3 3v1l-9 6 1 4h1l1-3h6l1 4c-5.3.9-11.9.7-9 8l-11 9 3 3v1l-7 8 7-1-3 2 3 2v1h-3v3h3v1h-6l1 3-2-2h-1c-.5 54.3-25.8 114.6-65 152-14.9 14.2-32.9 28.9-54 32v1c26.7 0 53.4 1.6 77-13.1 9-5.6 16.5-13.8 21.8-22.9 2.2-3.8 3.9-11.5 9.3-11.4 5.8.2 12.5 3.5 18 5.4 15.9 5.4 32.6 12.1 46 22.5 5.2 4 12.6 9.9 14.5 16.5 5.1 17.6-14.3 36.2-26.5 45v1c21-3.6 43.5-16 61-27.7 5.3-3.5 17.8-9.4 14.6-17.3-7.2-17.6-26.2-34.5-40.6-46.2-4.8-3.9-20.1-11.8-21.5-17.9-.9-4.1 5.6-10.7 7.9-13.9 8.5-11.9 18.9-24.1 25.7-37 3.5-6.6-8-16.8-9.6-24-3.3-14.6 8.7-28.7 19.5-37l-21-49-17.1-49z"/><path class="st127" d="m926 511 1 4h1l-2-4z"/><path class="st128" d="m713 521 2 3-2-3z"/><path d="m577.3 526.7.3.7-.3-.7z" style="fill:#9c9c83"/><path d="m580.3 527.7.3.7-.3-.7z" style="fill:#a3997b"/><path class="st3" d="M1053 753c12.5-33 18.8-69.7 27.4-104 9.5-38.1 21.9-77.1 27.6-116-8.7 2.4-15.8 12.8-22 19-14.4 14.4-28.5 29.1-42.6 43.8-6.9 7.2-16.2 14.7-18.1 25.2-1.2 6.9-.4 14.1 3.3 20.1 2.1 3.4 7.9 7.7 7.5 11.9-.4 4.4-5.7 9.5-8.1 13-7.5 10.8-22.5 25.3-25.9 38-1.4 5.2 7.6 9.6 10.9 12.2 8.1 6.4 16.1 13.1 23.2 20.5 5.3 5.4 9.9 13 16.8 16.3z"/><path d="m737.3 536.7.3.7-.3-.7z" style="fill:#bbb39c"/><path d="m736.3 538.7.3.7-.3-.7z" style="fill:#b3aa90"/><path d="m735.3 540.7.3.7-.3-.7z" style="fill:#a89f82"/><path d="m733.3 545.7.3.7-.3-.7z" style="fill:#b0a78c"/><path class="st135" d="M731 550v3h1l-1-3z"/><path class="st136" d="M937 550v10h1l-1-10z"/><path class="st137" d="M572 551v3h1l-1-3z"/><path class="st138" d="M730 553v3h1l-1-3z"/><path d="M729 556v3h1l-1-3z" style="fill:#a99f82"/><path d="M570 559v5h1l-1-5z" style="fill:#c2baa4"/><path class="st138" d="M728 559v3h1l-1-3z"/><path d="M942 560v36h1c0-10.4 3-26.4-1-36z" style="fill:#856d68"/><path class="st138" d="M727 562v3h1l-1-3z"/><path class="st136" d="M938 563v31h1l-1-31z"/><path d="m726.3 565.7.3.7-.3-.7z" style="fill:#aca388"/><path d="M564 572v26h1l-1-26z" style="fill:#b8c2b8"/><path d="M568 576v16h1l-1-16z" style="fill:#aaa084"/><path d="m720 585-1 5h1v-5z" style="fill:#958b69"/><path class="st6" d="M1356 585v1014h1V612l-1-27z"/><path class="st146" d="M715 588v5h1l-1-5z"/><path d="M685 594v1h5l-5-1z" style="fill:#b3a591"/><path d="m718 594-1 10h1v-10z" style="fill:#c0b8a2"/><path d="m938 594-1 18h1v-18z" style="fill:#928662"/><path class="st150" d="M684 595.7c-14.8 5.6-11.9 33.9-8 45.3 2.4 6.9 7.8 14 15.9 11.3 15.4-4.9 14.1-34.6 9.5-46.3-2.5-6.9-9.4-13.3-17.4-10.3z"/><path d="M569 596v5h1l-1-5z" style="fill:#c1b9a3"/><path d="M864 598v1h9l-9-1z" style="fill:#a6957c"/><path class="st150" d="M862 599.9c-18.1 7.4-18.7 42.8-11 57.3 4.8 9.1 12.7 18.3 24 13.6 19.9-8.3 19.4-39.9 13.8-56.8-3.5-10.6-15.8-18.6-26.8-14.1z"/><path d="M566 603v8h1l-1-8z" style="fill:#b1b8aa"/><path d="m676.3 604.7.3.7-.3-.7z" style="fill:#b0a18d"/><path d="M716 604v5h1l-1-5z" style="fill:#b5ac92"/><path class="st146" d="M712 605v8h1l-1-8z"/><path d="m675.3 606.7.3.7-.3-.7z" style="fill:#bcaf9d"/><path d="M936 607v5h1l-1-5z" style="fill:#b5a98e"/><path d="m940 607-1 14h1v-14z" style="fill:#8a6e77"/><path d="M715 609v6h1l-1-6z" style="fill:#988e6d"/><path d="M673 611v4h1l-1-4z" style="fill:#c6bbab"/><path d="M850 612v3h1l-1-3z" style="fill:#b9ac99"/><path d="m936 612-1 9h1v-9z" style="fill:#958865"/><path d="M672 615v16h1l-1-16z" style="fill:#cec4b5"/><path class="st164" d="M715 615v8h1l-1-8z"/><path d="m572.3 617.7.3.7-.3-.7z" style="fill:#beb69f"/><path d="M704 617v14h1l-1-14z" style="fill:#af9f87"/><path d="M848 617v3h1l-1-3z" style="fill:#baad9b"/><path d="m890 618 2 24h1c0-7.8 1.3-17-3-24z" style="fill:#b1a08a"/><path d="M710 620v30h1l-1-30z" style="fill:#b1a589"/><path d="m847 620-1 11h1v-11z" style="fill:#beb1a0"/><path class="st105" d="M1024 622v9h1l-1-9z"/><path class="st164" d="M714 623v20h1l-1-20z"/><path d="m574 625 5 18h1l-6-18z" style="fill:#8d825e"/><path d="m933 626-1 11h1v-11z" style="fill:#9e9171"/><path d="m673 631 1 8h1l-2-8z" style="fill:#c8beae"/><path d="M846 631v14h1l-1-14z" style="fill:#a6967f"/><path d="m931 637-1 4h1v-4z" style="fill:#afa387"/><path d="M891 642v5h1l-1-5z" style="fill:#b3a38d"/><path d="M714 643v14h1l-1-14z" style="fill:#a49a7d"/><path class="st178" d="m929 643-1 7h1v-7z"/><path d="M847 645v5h1l-1-5z" style="fill:#c2b7a5"/><path d="m927 650-1 7h1v-7z" style="fill:#918460"/><path d="M685 653v1h6l-6-1z" style="fill:#b3a38c"/><path class="st164" d="M715 654v5h1l-1-5z"/><path d="m850.3 655.7.3.7-.3-.7z" style="fill:#bbae9c"/><path class="st183" d="M715 659v5h1l-1-5z"/><path d="m924 660-1 5h1v-5z" style="fill:#ada184"/><path d="M716 664v6h1l-1-6z" style="fill:#b2a98f"/><path d="M718 676v5h1l-1-5z" style="fill:#aca286"/><path class="st183" d="M719 681v4h1l-1-4z"/><path class="st126" d="M714 682c-11.9 23-46.1 31.2-70 27.8-6-.8-11.3-4.1-17-5.8 10.9 28.2 48.3 30 72 22 7.3-2.5 18.8-6.4 23-13.4 4.7-7.9-5-22.2-6-30.6h-2z"/><path class="st187" d="M609 727c-10.1 3.2-19.1 12.1-27 18.9-22.4 19.3-53.6 48.7-61 78.1-4.2 16.7-7.4 48.6 16 52.7 12.7 2.2 26.2-2 38-6 27.6-9.2 53.4-24.8 78-40.1 13.9-8.6 29.2-19.2 46-20.6v-1h-5v-1l7-1 2-4h-2l1-4h4v-1c-4.5-.2-6.2 2.9-9 6l-2-4 2-1v-1l-2-2 2-2-3-1v-1l7-1 2-4h-2l1-4h4v-1c-6.8-.2-11.6 14.2-17 4l4 1c-1.5-4-6.2-8-8-2h-1l5-9-3 1 3-7 4 1-1-3-6 2 4-3v-1c-3-.3-4.1 0-5 3h-1v-3l-3 1 3-3-2-6 3 1 2-4h-2l1-4h4v-1c-3-.3-4.1 0-5 3h-1v-3h-5l2-4-3-1v-1l7-1 2-4h-2l1-4h4v-1c-5-.2-7.1 3.7-9 8l-5-2 2-2-6-1 2-4-5 4h-1l-2-4 1 2h-1l-3-2 1-2c-7.7-4.8-16.7-6.9-24-12.5-7.3-5.6-11.6-13.8-19-19.1-3.4-2.4-10.6-10.2-15-9.1-16.6 4.4.6 29.2 3 36.7z"/><path d="M721 689v3h1l-1-3z" style="fill:#bfb7a0"/><path d="m722 693 3 13h1l-4-13z" style="fill:#8a7e59"/><path class="st190" d="M595 699v6h1l-1-6z"/><path d="M726 706v7h1l-1-7z" style="fill:#aca387"/><path class="st57" d="M662 730v1l1 2 4 2-1-2h1l1 4h1l5-4-2 4c2.6-.1 6.3-.3 4 3l5 2c2.3-3.6 4.3-7.9 9-8v1h-4l-1 4h2l-2 4-7 1v1l3 1-2 4 5 3h1l5-3v1h-4l-1 4h2l-2 4-3-1 2 6-3 3 3 2h1l5-3v1l-4 3 7 1-4-1-3 7 3-1-5 9h1c2.9-4.8 5.8-1.7 8 2l-4-1c3.7 11.7 11.4-3.8 17-4v1h-4l-1 4h2l-2 4-7 1v1l3 1v5l-2 1v1l2 3 9-6v1h-4l-1 4h2l-2 4-7 1v1c10.8 0 20.9-.4 31 4.3 27.6 13 35.3 52.6 38 79.7 7.4-5.3 11.6-19.9 18.3-27.2 17.9-19.4 41.2-30.9 66.7-36.9 23.3-5.5 48.2-6.9 72-5.8 21.2.9 45.9 3.9 65-8.1 12.8-8 32-29.8 25.1-46.9-2.7-6.7-10.3-12.6-16.1-16.7-15.9-11-42.2-24.8-62-26-6.2-.4-8.9 10.3-11.7 14.6-7.1 10.9-17.5 19.3-29.3 24.7-18.3 8.4-37.2 8.3-57 8.3-16.6 0-35.8 1.8-52-2.8-25.4-7.2-47.3-34.2-58-57.2-6.2 1.7-11.1 6.8-17 9.5-14.5 6.8-29.4 9.6-45 7.5z"/><path d="m732 722 2 3-2-3z" style="fill:#9d9272"/><path d="m734 725 2 3-2-3z" style="fill:#9d9373"/><path d="m736 728 2 3-2-3z" style="fill:#978c6a"/><path class="st103" d="M801 772v1h12l-12-1z"/><path class="st3" d="m953 827 16 17.2 24.5 25.8 19.5 23c9-31.5 23.6-64.5 28-97-7.8 2.3-14.6 7.3-22 10.7-19.5 9-44.2 19.8-66 20.3z"/><path class="st24" d="M523 817c-9.6 5.8-11.4 23.4-21.3 28.1-3.7 1.8-11.1-5.2-14.7-6.6-10.9-4.2-24.6-.5-31 9.5-9.4 14.9-13.7 35.1-17.5 52-10.1 44.9-8.7 89.3 1.6 134 3.9 16.8 8.3 49.2 23.9 59.2 7.9 5.1 18.1 3.8 27 3.8-1.2-8.2-5.3-15.5-3.3-24 3.9-17 20.8-29.4 34.3-38.7 35.1-23.8 75.4-34.5 114-50.8 9.6-4 18.2-11.7 26-18.4 43.1-37.1 49.7-88.6 33-140.1 26.7.1 40.7 14.4 60 30-2.9-28.6-31.1-50.7-59-45-20.3 4.1-37.7 16.6-55 27.3-19.2 12-39.8 23.3-61 31.3-23.2 8.7-59.4 17.2-61.9-18.6-.8-11.2 2.7-22.1 4.9-33z"/><path d="M885 823v1h40c-10.5-4.4-28.6-1-40-1z" style="fill:#917b6a"/><path d="M971 823v1h3l-3-1z" style="fill:#9a9b81"/><path d="M938 824v1h8l-8-1z" style="fill:#907b6a"/><path d="m695 825 1 5h1v-4h7l-9-1z" style="fill:#dfdfd2"/><path class="st75" d="M697 826c1.3 14.4 7.6 28.3 8 43 1.1 46.9-25.5 89.1-66 112.5-9 5.2-20.2 7.6-30 11.3-32 12.1-65.2 24.6-93 45.1-11.5 8.5-24.9 19.4-28.3 34.1-2 8.9 1.4 16.5 3.3 25 75.8-21.4 154.2-34 233-34 4.9-18.3 13.1-35.6 18.1-54 7.7-28.1 10.1-56.6 14.2-85 1.4-9.8 7.5-20.2 7.2-30-.1-4.6-2.4-8.6-3.2-13-1.4-8.1-.5-16.4-4.5-24-10.8-21-36.6-31-58.8-31z"/><path class="st199" d="M957 826v1h3l-3-1z"/><path class="st126" d="M811 846c7.4 16.3 23.4 31.5 34.1 46 27.5 37.4 53.9 76.9 71.4 120 6.9 16.9 15.3 35.5 15.5 54 32.1 6.6 64.2 12 97 12 9.6 0 25.3 2.3 34-2 13.3-6.6 28-31 32-45-31.2 2.5-60.8 7.9-91-4.4-10-4.1-18.9-9.8-27-16.8-3.2-2.8-7.6-10.1-12-10.7-7-.9-18.2 11.4-24 15 4.6-8.8 16.9-21.9 16.7-32-.2-11.4-8-27.2-11.9-38-1.8-4.8-5.8-10.6-5.4-15.9.5-5.8 8.7-12.4 11.9-17.1 8.3-12.4 15.1-25.7 19.3-40 1.3-4.4 4.2-10.3 3.3-15-1-5.1-7.3-9.1-10.9-12.3-10.8-9.5-16-16-31-16.7-40-1.8-86.3-1.9-122 18.9z"/><path d="M474 832v1h8l-8-1z" style="fill:#b5beb2"/><path class="st190" d="m483.7 833.3.7.3-.7-.3z"/><path class="st68" d="M473 836v1h9l-9-1z"/><path class="st19" d="m460 848 12.9 51-6.9 63h3c3.5-23.8 9.3-45.5 6.8-70-1.6-15.6-8.3-29-11.8-44h-4z"/><path class="st187" d="M975 856c-2.2 17.7-10.6 35.1-20.1 50-3.9 6.1-13.4 14.1-14.6 21.2-1.5 8.3 6.7 23.9 9.6 31.8 2.3 6.4 4.3 18.1 10.1 22 11.4-22.3 19.2-46.6 24.6-71 2.5-11.3 1.9-28.1 7.4-38l-17-16z"/><path d="m450.3 860.7.3.7-.3-.7z" style="fill:#d0ccb4"/><path class="st75" d="M465 862c-3.8 9-9.7 16-11.5 26-4.3 23.8 10.7 40.4 14.5 62h1c.2-28.9 11-60.3-4-88z"/><path d="M704 863v20h1l-1-20z" style="fill:#d5d5c9"/><path d="m650.7 868.3.7.3-.7-.3z" style="fill:#b6af92"/><path class="st19" d="M626 888c10.1-2.8 16.3-13.4 27-16.2 24.4-6.4 9.5 22.5 3.9 31.2-12.1 19-29.6 36.9-47.9 50-7.7 5.5-28.2 16-31 25 9.5-1.8 18.4-9.9 26-15.6 20.5-15.4 41.7-33.3 55.2-55.4 4.3-6.9 15.3-22.5 12.2-31-7.2-19.7-41.7-1.1-45.4 12z"/><path class="st30" d="m660.7 868.3.7.3-.7-.3z"/><path class="st187" d="M1141 868c-6.6 11.3-11.9 22.4-21.1 32-19.6 20.5-51.6 34.8-79.9 37l10 32h-4c-3.2-21.6-15.1-37.9-24-57h-1c-5.3 23.1-19.6 44.9-34.4 63-6.3 7.6-13 16-21.6 21 17.4 35 68.6 41.3 103 38.9 9.4-.7 18.6-3.2 28-3.9 7.2-31.2 15-59.5 9-92h1c9.8 28.8 20 52.9 20 84 6.5-2.5 27.3-6.2 30.4-12.4 4-8.1-1.5-24.8-2.3-33.6-2.4-26.3-5.6-52.7-8.8-79-1.1-9.1 0-21.9-4.3-30z"/><path class="st204" d="m471.3 869.7.3.7-.3-.7z"/><path d="M653 871v1h7l-7-1z" style="fill:#928b6f"/><path class="st75" d="M606 955c7-2.9 12.4-8.9 18-13.8 13.7-12.2 26.9-26 36-42.2 2.8-5 12.5-18.9 6.7-24.1-6.6-6.1-21.7-2.8-27.1 3.5-6.5 7.7-7 25.9-10.8 35.6-5.7 14.8-16.8 26.7-22.8 41z"/><path class="st24" d="M990 873c0 24.5-8.2 51-16.1 74-3.7 10.8-13.9 24.8-14.5 35.9-.2 4 3.5 9.1 4.6 13.1 11.7-2.8 22-18.9 28.9-28 9.3-12.3 17.2-25.8 23.1-40 1.8-4.4 5.5-11.1 4.4-16-1.9-7.9-11.4-16.6-16.2-23-4.2-5.4-8-12.9-14.2-16z"/><path d="M672 876v3h1l-1-3z" style="fill:#a79f7f"/><path class="st204" d="M473 877v3h1l-1-3z"/><path class="st60" d="m443.3 880.7.3.7-.3-.7z"/><path class="st207" d="M474 881v4h1l-1-4z"/><path class="st114" d="m773.3 881.7.3.7-.3-.7z"/><path d="m768.3 883.7.3.7-.3-.7z" style="fill:#a18687"/><path d="m625.3 885.7.3.7-.3-.7z" style="fill:#bcb69a"/><path d="m669 886-1 5h1v-5z" style="fill:#a29978"/><path class="st60" d="m441.3 887.7.3.7-.3-.7z"/><path class="st211" d="m769.3 889.7.3.7-.3-.7z"/><path class="st212" d="m667.3 891.7.3.7-.3-.7z"/><path class="st199" d="M768 891v3h1l-1-3z"/><path class="st212" d="m666.3 893.7.3.7-.3-.7z"/><path class="st213" d="m767 894-1 5h1v-5z"/><path class="st207" d="M476 895v27h1l-1-27z"/><path class="st212" d="m665.3 895.7.3.7-.3-.7z"/><path d="m664.3 897.7.3.7-.3-.7z" style="fill:#c6c0a7"/><path class="st69" d="m438.3 899.7.3.7-.3-.7z"/><path class="st70" d="m663.3 899.7.3.7-.3-.7z"/><path d="m660.3 904.7.3.7-.3-.7z" style="fill:#d1ccb5"/><path d="M436 908v3h1l-1-3z" style="fill:#c3bea3"/><path d="M762 909v4h1l-1-4z" style="fill:#9a9981"/><path class="st92" d="M435 913v3h1l-1-3z"/><path d="m761 913-1 13h1v-13z" style="fill:#908d6f"/><path d="M434 918v5h1l-1-5z" style="fill:#d2ceb7"/><path d="M756 922v10h1l-1-10z" style="fill:#97927a"/><path class="st22" d="M433 925v3h1l-1-3z"/><path d="M429 928v6h1l-1-6z" style="fill:#949275"/><path d="M759 935v6h1l-1-6z" style="fill:#a8ac9a"/><path class="st223" d="M428 936v6h1l-1-6z"/><path class="st24" d="M1105 939c2.6 20.5 3.2 41.6-.6 62-1.9 10.2-6.9 19.8-8.4 30 6.3-1.5 24-3.5 28-8.7 3-4 1-14.5 1-19.3 0-18.4-7.4-50-20-64z"/><path d="M473 941v3h1l-1-3z" style="fill:#b8b194"/><path d="M754 941v12h1l-1-12z" style="fill:#8e8769"/><path d="M431 942v13h1l-1-13z" style="fill:#e1deca"/><path d="M758 943v6h1l-1-6z" style="fill:#a5a995"/><path d="M430 945v34h1l-1-34z" style="fill:#887d56"/><path class="st223" d="M427 949v30h1l-1-30z"/><path d="m471.3 951.7.3.7-.3-.7z" style="fill:#cdc9b0"/><path d="M756 954v6h1l-1-6z" style="fill:#939074"/><path d="m469.3 958.7.3.7-.3-.7z" style="fill:#c0ba9e"/><path d="m752 958-1 10h1v-10z" style="fill:#9d9984"/><path d="m465.3 959.7.3.7-.3-.7z" style="fill:#beb89c"/><path d="m756 960-1 9h1v-9z" style="fill:#abb0a0"/><path d="m750 969-3 19h1l2-19z" style="fill:#99947d"/><path class="st213" d="m754 969-1 8h1v-8z"/><path d="M431 973v14h1l-1-14z" style="fill:#c4bea4"/><path d="m896.3 976.7.3.7-.3-.7z" style="fill:#a4a792"/><path d="M752 977v5h1l-1-5z" style="fill:#97967c"/><path class="st75" d="m958 980-17 34 25-16-8-18z"/><path class="st199" d="M751 982v5h1l-1-5z"/><path d="m903.3 989.7.3.7-.3-.7z" style="fill:#9b9b82"/><path d="M432 990v4h1l-1-4z" style="fill:#c3bda3"/><path class="st241" d="m904.3 991.7.3.7-.3-.7z"/><path class="st123" d="M428 992c-12.9 9.7-25.4 19.9-38 30-6.7 5.4-13.7 9.7-14 19 14.1-2.4 28.6-9.1 42-13.9 3.6-1.3 11.7-2.3 13.9-5.6 3-4.5-1.9-24.7-3.9-29.5z"/><path d="m905.3 993.7.3.7-.3-.7z" style="fill:#9a9b82"/><path class="st135" d="M429 995v6h1l-1-6z"/><path class="st243" d="m907.3 997.7.3.7-.3-.7z"/><path d="M1125 1004v19h1l-1-19z" style="fill:#ecdce6"/><path class="st114" d="m911.3 1006.7.3.7-.3-.7z"/><path class="st245" d="M745 1007v5h1l-1-5z"/><path class="st243" d="m912.3 1008.7.3.7-.3-.7z"/><path class="st126" d="M1115 1065c17.3-3 31.3-14.2 47-21l-4-32c-7.5 1.1-27.4 5.4-32 11.7-2.5 3.4-1.7 9.4-2.5 13.3-2 9.6-5.5 18.7-8.5 28z"/><path class="st211" d="m914.3 1013.7.3.7-.3-.7z"/><path d="M432 1015v3h1l-1-3z" style="fill:#a3997a"/><path class="st78" d="M436 1017v3h1l-1-3z"/><path class="st117" d="m433 1020-16 7.1-41 14.9c16.8 10.6 43 1 62 1l-5-23z"/><path class="st74" d="M437 1022v3h1l-1-3z"/><path d="m918 1023 1 5h1l-2-5z" style="fill:#908d70"/><path class="st75" d="M1064 1076c12.5 0 26-3.2 38-6.7 3.7-1.1 9.3-1.6 12.3-4.2 8.4-7.3 10.6-31.6 10.7-42.1l-28.6 8.3-11.8 18.7-20.6 26z"/><path d="m438.3 1026.7.3.7-.3-.7z" style="fill:#c8c3aa"/><path d="m739 1029-1 4h1v-4z" style="fill:#8e8a6b"/><path d="m439.3 1031.7.3.7-.3-.7z" style="fill:#bab496"/><path d="m440.3 1035.7.3.7-.3-.7z" style="fill:#c1bca0"/><path class="st241" d="m735.3 1040.7.3.7-.3-.7z"/><path d="M426 1043v1h6l-6-1z" style="fill:#a09474"/><path d="M415 1044v1h8l-8-1z" style="fill:#a09473"/><path d="M404 1045v1h5l-5-1m-12 1v1h6l-6-1z" style="fill:#a19575"/><path d="M432 1046v1h7l-7-1z" style="fill:#a2a590"/><path d="m443.3 1047.7.3.7-.3-.7z" style="fill:#c1baa0"/><path d="M410 1048v1h8l-8-1z" style="fill:#a4a692"/><path d="M926 1048v5h1l-1-5z" style="fill:#949175"/><path d="M399 1049v1h8l-8-1m-12 1v1h6l-6-1z" style="fill:#a3a590"/><path d="m444.3 1051.7.3.7-.3-.7z" style="fill:#b1aa8b"/><path d="M927 1053v5h1l-1-5z" style="fill:#928e71"/><path d="m445.3 1054.7.3.7-.3-.7z" style="fill:#bab396"/><path class="st83" d="M729 1055v3h1l-1-3z"/><path class="st114" d="m728.3 1058.7.3.7-.3-.7z"/><path d="M928 1058v10h1l-1-10z" style="fill:#8b8565"/><path d="M687 1063v1h36c-9.6-4-25.6-1-36-1z" style="fill:#9d9983"/><path d="M649 1066v1h5l-5-1z" style="fill:#90896b"/><path d="M681 1067v1l4 2c1.1-2.9-1.5-2.9-4-3z" style="fill:#9a8e6c"/><path d="M688 1067v5h1v-4h35c-9.6-4-25.6-1-36-1z" style="fill:#b6bfb4"/><path d="M667 1068v1h7l-7-1z" style="fill:#aca182"/><path class="st117" d="M654 1069v1c5.6 3.1 5.7 11.2 7.1 17 3.9 16.4 9.9 34.1 9.9 51h1l13-70-31 1z"/><path class="st137" d="M645 1070v1h5l-5-1z"/><path class="st123" d="M633 1072c6.1 18.9 11.3 38.1 17.3 57 1.8 5.7 3.4 17.7 11.7 16.7 7.1-.9 9.2-7.6 9-13.7-.6-14.5-6.2-29.8-9.4-44-1-4.4-1.4-13-4.5-16.4-3.8-4.1-18.8.4-24.1.4z"/><path d="M636 1071v1h7l-7-1z" style="fill:#beb59f"/><path d="m451.3 1072.7.3.7-.3-.7z" style="fill:#b2aa8c"/><path d="M627 1072v1l3 1-3-2z" style="fill:#96957a"/><path class="st245" d="M687 1072v5h1l-1-5z"/><path d="M619 1073v1h4l-4-1z" style="fill:#a9ae9d"/><path d="m633 1073 2 10h1l-3-10z" style="fill:#8e825f"/><path d="M612 1074v1h4l-4-1z" style="fill:#acb2a3"/><path d="M600 1076v1h3l-3-1z" style="fill:#a5a994"/><path class="st128" d="M682 1077v6h1l-1-6z"/><path class="st276" d="M973 1077v1h5l-5-1z"/><path d="M989 1079v1h5l-5-1z" style="fill:#979982"/><path d="M1066 1079v1h4l-4-1z" style="fill:#969880"/><path class="st48" d="m454.3 1080.7.3.7-.3-.7z"/><path d="M685 1080v5h1l-1-5z" style="fill:#918d70"/><path class="st276" d="M1053 1080v1h11l-11-1z"/><path d="M1018 1081v1h26l-26-1z" style="fill:#979a82"/><path d="M566 1082v1h3l-3-1z" style="fill:#9e9f88"/><path d="m636 1083 9 33h1c-.9-9.8-4.8-24.7-10-33z" style="fill:#948966"/><path d="M684 1088v5h1l-1-5z" style="fill:#acb2a2"/><path d="M534 1089v1h3l-3-1z" style="fill:#a3a691"/><path d="m634 1089 3 13h1l-4-13z" style="fill:#b9c3b9"/><path class="st178" d="M680 1090v5h1l-1-5z"/><path class="st21" d="M683 1093v5h1l-1-5z"/><path class="st286" d="M679 1095v5h1l-1-5z"/><path d="m471.7 1096.3.7.3-.7-.3z" style="fill:#bdb89c"/><path class="st15" d="m506.7 1096.3.7.3-.7-.3z"/><path d="M475 1097v1h12l-12-1z" style="fill:#b0a889"/><path d="m682 1098-2 13h1l1-13z" style="fill:#857e5b"/><path d="M487 1100v1h5l-5-1z" style="fill:#a5a895"/><path class="st116" d="M678 1100v5h1l-1-5z"/><path class="st286" d="M674 1121v5h1l-1-5z"/><path d="M677 1121v8h1l-1-8z" style="fill:#8d8869"/><path d="m644 1122 5 19h1l-6-19z" style="fill:#b3bbaf"/><path d="m649 1126 4 15h1l-5-15z" style="fill:#8c805b"/><path class="st127" d="M673 1126v5h1l-1-5z"/><path d="m374 1148 16.3 136 8.7 74h154l16-.1 22-12.7 43-26.1 113-77.5 56-43.5-37-4.3-103-11.9-197-23.1-92-10.8z" style="fill:#bececc"/><path class="st213" d="M657 1149v1h7l-7-1z"/><path d="M572 1358h542v-91c0-7.2 3.5-26.7-1-32.4-2-2.6-7.1-1.4-10-1.8-8.7-1-17.3-2-26-3-34.2-3.7-68.5-9.5-103-11.9-42.8-3-85.2-11.9-128-15-12.7-.9-31.7-8.1-44-4.3-13.3 4.2-27.8 21.5-39 30-30.7 23.2-61.6 46.3-94 67.2-22.9 14.7-45.9 29.2-69 43.5-8.5 5.3-22.7 10.1-28 18.7m204 36-11 68h261l31-68H776z" style="fill:#aabaad"/><path class="st296" d="M243 1460v1h8l-8-1z"/><path d="M251 1461v1l94 11-34-5.2-60-6.8z" style="fill:#c3c6bd"/><path d="M353 1474v1l70 8-25-4.2-45-4.8z" style="fill:#c3c7bd"/><path d="M425 1483v1h7l-7-1z" style="fill:#d0d3cc"/><path d="M433 1484v1h8l-8-1z" style="fill:#d0d3cb"/><path d="M441 1485v1l63 7-20-3.3-43-4.7z" style="fill:#c3c6bc"/><path d="M504 1493v1l14 1-14-2z" style="fill:#c0c3b9"/><path class="st303" d="M520 1495v1l31 3-31-4z"/><path d="M1270 1500v2h5c-4.5 21.8-10.9 43.6-17 65-1.8 6.2-8.8 20.2 1 21v-1h-4l23-88-8 1z" style="fill:#b8bcb0"/><path class="st305" d="M1257 1504v1l13-2-13 1z"/><path d="M591 1504v1l24 2-24-3z" style="fill:#b7baaf"/><path d="M1087 1510v1l25-5v30h1v-32l-26 6z" style="fill:#bec1b6"/><path d="M1230 1510v1l27-5c-7.5-3.1-19.3 2.4-27 4z" style="fill:#cfd1c9"/><path d="M623 1508v1h8l-8-1z" style="fill:#cdcfc7"/><path class="st305" d="M631 1509v1l15 1-15-2z"/><path d="M1079 1512v1l8-1h-8z" style="fill:#dadcd5"/><path d="M1220 1512v1l9-1h-9z" style="fill:#d6d9d2"/><path d="M1052 1519v1l27-6c-7.2-2.8-19.5 3.5-27 5z" style="fill:#d5d7d0"/><path class="st313" d="M1182 1521v1l38-8c-8.6-3.4-29.4 3.8-38 7z"/><path d="M670 1514v1l48 5c-12.8-5.5-34.1-6-48-6z" style="fill:#c2c5bb"/><path d="M718 1520v1h8l-8-1z" style="fill:#d1d4cc"/><path d="M1044 1521v1l8-1h-8z" style="fill:#c9ccc3"/><path class="st296" d="M726 1521v1l16 1-16-2z"/><path class="st313" d="M1173 1523v1l6-1h-6z"/><path d="M742 1523v1h8l-8-1z" style="fill:#cccec6"/><path d="M750 1524v1h8l-8-1z" style="fill:#d0d2cb"/><path d="M758 1524v2l29 3c-6-4.6-21.5-5-29-5z" style="fill:#b7bbaf"/><path d="M1020 1527v1l16-3-16 2z" style="fill:#c7cac1"/><path class="st296" d="M1150 1528v1l20-4c-5.6-2.2-14.5 1.1-20 3z"/><path d="M789 1529v1l14 1-14-2z" style="fill:#ced0c8"/><path d="M1009 1530v1l8-1h-8z" style="fill:#e1e2dd"/><path d="M1143 1529v1h4l-4-1z" style="fill:#d9dbd5"/><path class="st324" d="M1132 1532v1l11-2-11 1z"/><path class="st1" d="M805 1531v1h7l-7-1z"/><path d="M813 1532v1h8l-8-1z" style="fill:#cdcfc6"/><path class="st303" d="M821 1533v1l30 3-30-4z"/><path d="M1120 1534v1l9-1h-9z" style="fill:#d7d9d3"/><path class="st1" d="M985 1536v1l12-2-12 1z"/><path d="M853 1537v1h8l-8-1z" style="fill:#bcc0b5"/><path d="M861 1538v1l29 2-29-3z" style="fill:#aeb3a6"/><path d="M973 1539v1h4l-4-1z" style="fill:#dadcd6"/><path d="M884 1541v1l46 5c-11.8-5.7-32.9-6-46-6z" style="fill:#ced1c9"/><path d="M951 1545v1l11-2-11 1z" style="fill:#d8dad3"/><path d="M1299 1593v1h7l-7-1z" style="fill:#cfd1ca"/><path class="st324" d="M1306 1594v1h7l-7-1z"/></svg>