<svg viewBox="0 0 46.95 46.95" xmlns="http://www.w3.org/2000/svg" xmlns:xlink="http://www.w3.org/1999/xlink"><use transform="translate(.02 .02)" width="46.9" height="46.9" xlink:href="#a"/><defs><use width="46.9" height="46.9" xlink:href="#b" id="a"/><g id="b"><path d="M45.8-33.15q1.6 2.15 2.6 4.55 1.75 4.15 1.75 9.05 0 2.15-.35 4.15-.8 4.9-3.65 9-4.2 2.95-8.35 4.7L31.9-6l-2.8 1.05-.2-3.8.2 3.8L31.9-6l5.9 4.3Q21.95 4.9 6.9-6.9L5.85-8.65 5.3-9.8q-2.05-4.45-2.05-9.75 0-6 2.6-10.9 1.6-3.05 4.25-5.7 1.95-1.95 4.15-3.3 5.1-3.3 11.45-3.5-5.4 5.2-4.75 13.2l-.55-.05q-3.5 0-6.15 2.05l-1.1.95q-3 3-3 7.25t3 7.25 7.25 3 7.25-3 3-7.25v-.8q-.2-2.7-1.65-4.85 7.2-7.25 16.8-7.95M14.1-31.5l-.95-3.15 1.95-2.15-.85-2.65.85 2.65-1.95 2.15.95 3.15m21.35 14.65 2.1-2.8.9 2.85 3.65-1.15 2.5 2.2 5.2.35-5.2-.35-2.5-2.2-3.65 1.15-.9-2.85-2.1 2.8m-28 6.15-2.15.9 2.15-.9m29.4-13.2 4.2-5.05 7.35.35-7.35-.35-4.2 5.05" fill="#ffc" fill-rule="evenodd" transform="translate(-3.25 43)"/><path d="M30.65-20.35v.8q0 4.25-3 7.25t-7.25 3-7.25-3-3-7.25 3-7.25l1.1-.95 2.35 5.15-.2.15q-1.2 1.25-1.2 2.95t1.2 2.9q1.25 1.25 2.95 1.25t2.9-1.25q1.25-1.2 1.25-2.9v-.2l7.15-.65" fill="#253425" fill-rule="evenodd" transform="translate(-3.25 43)"/><path d="m25.7-42.95.45-.05h.55q9.7 0 16.55 6.85l1.6 1.75.95 1.25q-9.6.7-16.8 7.95l-.05-.05-.6-.8-.15-.15-.55-.6q-2.45-2.45-5.8-2.9 3.35.45 5.8 2.9l.55.6.15.15.15.2q-2.65 3.2-6.3 3.35l-1-.7q-.95-3.35.65-6.5l-.9-.05q-.65-8 4.75-13.2m-6.6 17q-.45.5-1.15.5t-1.2-.5q-.45-.45-.45-1.1t.45-1.15q.5-.45 1.2-.45t1.15.45q.5.5.5 1.15t-.5 1.1" fill="#fffff2" fill-rule="evenodd" transform="translate(-3.25 43)"/><path d="M46.15-6.4Q44.9-4.6 43.25-3l-3.3 2.85-.35.2Q33.95 3.9 26.7 3.9T13.8.05Q11.85-1.25 10.1-3 8.25-4.85 6.9-6.9 21.95 4.9 37.8-1.7q4.15-1.75 8.35-4.7M37.8-1.7l2.15 1.55L37.8-1.7" fill="#dcceb4" fill-rule="evenodd" transform="translate(-3.25 43)"/><path d="M16.6-22.6q1.2-1.05 2.75-1.05l1.85.45 1 .7.05.05q1.15 1.15 1.25 2.75v.2q0 1.7-1.25 2.9-1.2 1.25-2.9 1.25T16.4-16.6q-1.2-1.2-1.2-2.9t1.2-2.95l.2-.15" fill-rule="evenodd" transform="translate(-3.25 43)"/><path d="m20.95-29.75.9.05q-1.6 3.15-.65 6.5l-1.85-.45q-1.55 0-2.75 1.05l-2.35-5.15q2.65-2.05 6.15-2.05l.55.05m7.55 3.9.45.6.05.05q1.45 2.15 1.65 4.85l-7.15.65q-.1-1.6-1.25-2.75l-.05-.05q3.65-.15 6.3-3.35m-9.4-.1q.5-.45.5-1.1t-.5-1.15q-.45-.45-1.15-.45t-1.2.45q-.45.5-.45 1.15t.45 1.1q.5.5 1.2.5t1.15-.5" fill="#547654" fill-rule="evenodd" transform="translate(-3.25 43)"/><path d="M22.45.05 22.9 0h.55Q33.15 0 40 6.85l1.6 1.75.95 1.25q1.6 2.15 2.6 4.55 1.75 4.15 1.75 9.05 0 2.15-.35 4.15-.8 4.9-3.65 9-1.25 1.8-2.9 3.4l-3.3 2.85-.35.2q-5.65 3.85-12.9 3.85t-12.9-3.85Q8.6 41.75 6.85 40 5 38.15 3.65 36.1L2.6 34.35l-.55-1.15Q0 28.75 0 23.45q0-6 2.6-10.9 1.6-3.05 4.25-5.7Q8.8 4.9 11 3.55 16.1.25 22.45.05m-4.75 13.2.9.05q3.35.45 5.8 2.9l.55.6.15.15.6.8M11 15.25q2.65-2.05 6.15-2.05l.55.05m9.7 9.4v.8q0 4.25-3 7.25t-7.25 3-7.25-3-3-7.25 3-7.25l1.1-.95m16.4 7.4q-.2-2.7-1.65-4.85" fill="none" stroke="#000" stroke-linecap="round" stroke-linejoin="round" stroke-opacity=".251" stroke-width=".05"/><path d="m11 3.55.85 2.65L9.9 8.35l.95 3.15m-8.8 21.7 2.15-.9m42.35-4.7-5.2-.35-2.5-2.2-3.65 1.15-.9-2.85-2.1 2.8m2.35 15.15-5.9-4.3-2.8 1.05-.2-3.8m11.05 8.6-2.15-1.55m10.6-26.9-7.35-.35-4.2 5.05" fill="none" stroke="#c56f59" stroke-linecap="round" stroke-linejoin="round" stroke-opacity=".502" stroke-width=".05"/></g></defs></svg>