<svg viewBox="0 0 95.896 37.231" xmlns="http://www.w3.org/2000/svg" xmlns:xlink="http://www.w3.org/1999/xlink"><use transform="translate(0 .006)" width="95.85" height="37.2" xlink:href="#a"/><defs><g id="a"><path d="M6.7 27.65q6.65-3.4 12.55-3.45 10.65 0 15.45 4.15-1.45.4-1.5 2.35-8.2-6.35-18.9-5-5.65.9-9.45 3l1.85-1.05" fill="#96a419" fill-rule="evenodd" transform="translate(-4.85 -9.2)"/><path d="M33.2 30.7q.05-1.95 1.5-2.35-4.8-4.15-15.45-4.15-5.9.05-12.55 3.45 18.9-10.65 31-.55-4.2 1.4-4.5 3.6" fill="#605a0a" fill-rule="evenodd" transform="translate(-4.85 -9.2)"/><path d="m38.55 45.75-1.95.35-.4-.05 2.35-.3" fill="#164936" fill-rule="evenodd" transform="translate(-4.85 -9.2)"/><path d="M39.05 11.7v-.05l.85.15.05.05-.9-.15" fill="#dc8a03" fill-rule="evenodd" transform="translate(-4.85 -9.2)"/><path d="m79.75 17.7-1.15-.35q-.25-.5.05-1.15l.55-.7 1.25.1q.75-.15 1.2-.55l.1.15.4.15.6.05.3-.7-.2-.8-.6-.45-.2-.1v-.4l2.8.45q.4-.15.5-.7v-.8l5.95-.95q4.05.95 6.3 4.8L79.75 17.7m-28.7-4.75-.1.7q-1.15.3-2 1.35l-1.5-.5q-.5.45-.35 1.25l.15.4 2.35.25.2.25q-.4.9-1.3 1.3l-.05.15q.8.75 2.4.4-.3 1.1-1.6 1.15v.25q.25 1 1.8.75l.15.05q1.25-.55 1.85-1.9l.05-.15-.9-1.15-.55-.05q-.3-.4.15-.9.1-.2.45-.2l.85.2q.15 2.1 1.75 2.15l.2.75-.3.45-.15.1-.1.9 1.2 1.1 1.75.35.15.65-.1.5-.45.6q1.5 1 3.95.55 2.85-.55 4.45 1.15l-.4.15-19.4-.85q-.25-4.45-1.55-8-1.6-4.4-4.15-5.25l-.05-.05 11.15 1.15M64.2 27.5l-.75.75-1.95.35q-3.25-.2-5 1.6l.1.15.35.4.1.6v.05l-.75-.1-.8.2-.1.1-.2.35q-.2.25-.1.65l.15.1.45.05q.55-.15.45.3v.1l-.3.15-.55-.05-.2-.4-.65-.4-2 .1-.3.7.75-.05q1.3-.2 1.35.95l-.45.25-.85.3-8.1-.25.65-4.7 18.7-2.25m-27.05-4.75q1.25.05 1.95 1.95.8 1.9.6 4.5-.2 2.55-1.2 4.3-1 1.8-2.25 1.7t-2-2q-.75-1.85-.55-4.45t1.2-4.35 2.25-1.65" fill="#db9c35" fill-rule="evenodd" transform="translate(-4.85 -9.2)"/><path d="M85.35 11.9v.8q-.1.55-.5.7l-2.8-.45v.4l.2.1.6.45.2.8-.3.7-.6-.05-.4-.15-.1-.15q-.45.4-1.2.55l-1.25-.1-.55.7q-.3.65-.05 1.15l1.15.35-22.15 2.45 41.7-.25q.6 2.15.9 4.8-22 10-47.25 10l.85-.3.45-.25Q54.2 33 52.9 33.2l-.75.05.3-.7 2-.1.65.4.2.4.55.05.3-.15v-.1q.1-.45-.45-.3l-.45-.05-.15-.1q-.1-.4.1-.65l.2-.35.1-.1.8-.2.75.1v-.05l-.1-.6-.35-.4-.1-.15q1.75-1.8 5-1.6l1.95-.35.75-.75 9.5-1.15-8.65-.4.4-.15q-1.6-1.7-4.45-1.15-2.45.45-3.95-.55l.45-.6.1-.5-.15-.65L55.7 22l-1.2-1.1.1-.9.15-.1.3-.45-.2-.75q-1.6-.05-1.75-2.15l-.85-.2q-.35 0-.45.2-.45.5-.15.9l.55.05.9 1.15-.05.15q-.6 1.35-1.85 1.9l-.15-.05q-1.55.25-1.8-.75v-.25q1.3-.05 1.6-1.15-1.6.35-2.4-.4l.05-.15q.9-.4 1.3-1.3l-.2-.25-2.35-.25-.15-.4q-.15-.8.35-1.25l1.5.5q.85-1.05 2-1.35l.1-.7q17.1 1.2 34.3-1.05" fill="#eccb8c" fill-rule="evenodd" transform="translate(-4.85 -9.2)"/><path d="m79.75 17.7 17.85-1.95 1 2.1.7 2.05-41.7.25 22.15-2.45m-14.7 8.25 8.65.4-9.5 1.15-18.7 2.25-.65 4.7 8.1.25q25.25 0 47.25-10l.05.55q.95 9.15-5.45 13-27.95.65-56.25 7.5l-2.35.3q-2.95-.55-4.75-5.4-1.9-5.2-1.35-12.3.5-7.15 3.1-12 2.55-4.7 5.6-4.65h.25l.9.15q2.55.85 4.15 5.25 1.3 3.55 1.55 8l19.4.85m-22.8 3.3q.35-4.9-.95-8.5-1.25-3.65-3.4-3.8T34 20.2t-2.1 8.3q-.35 4.95.9 8.55t3.4 3.75 3.9-3.2q1.8-3.4 2.15-8.35-.35 4.95-2.15 8.35-1.75 3.35-3.9 3.2t-3.4-3.75-.9-8.55q.35-4.9 2.1-8.3t3.9-3.25 3.4 3.8q1.3 3.6.95 8.5m-5.1-6.5q-1.25-.1-2.25 1.65t-1.2 4.35.55 4.45q.75 1.9 2 2t2.25-1.7q1-1.75 1.2-4.3.2-2.6-.6-4.5-.7-1.9-1.95-1.95" fill="#764203" fill-rule="evenodd" transform="translate(-4.85 -9.2)"/><path d="M92.75 6.55q-2.25-3.85-6.3-4.8l-5.95.95Q63.3 4.95 46.2 3.75M95.35 15.5q-.3-2.65-.9-4.8m-1.7-4.15 1 2.1.7 2.05m.9 4.8.05.55q.95 9.15-5.45 13-27.95.65-56.25 7.5m-2.35.3q-2.95-.55-4.75-5.4-1.9-5.2-1.35-12.3.5-7.15 3.1-12 2.55-4.7 5.6-4.65h.25v-.05l.85.15L46.2 3.75m-14.85 33.1 2.35-.3" fill="none" stroke="#220d0d" stroke-linecap="round" stroke-linejoin="round" stroke-width=".75"/><path d="M37.4 20.05q-.35 4.95-2.15 8.35-1.75 3.35-3.9 3.2t-3.4-3.75-.9-8.55q.35-4.9 2.1-8.3t3.9-3.25 3.4 3.8q1.3 3.6.95 8.5" fill="none" stroke="#db9c35" stroke-linecap="round" stroke-linejoin="round" stroke-width=".75"/><path d="M18.95 30.3q6.65-3.4 12.55-3.45 10.65 0 15.45 4.15-1.45.4-1.5 2.35-8.2-6.35-18.9-5-5.65.9-9.45 3l1.85-1.05" fill="#96a419" fill-rule="evenodd" transform="translate(-4.85 -9.2)"/><path d="M45.45 33.35q.05-1.95 1.5-2.35-4.8-4.15-15.45-4.15-5.9.05-12.55 3.45 18.9-10.65 31-.55-4.2 1.4-4.5 3.6M76.65 15.75q.35-1.1 1.25-1.15-2.2-3-8.25-4.5-3.35-.85-7.7.15 12.35-3.4 17.8 4.15-2.6.15-3.1 1.35" fill="#605a0a" fill-rule="evenodd" transform="translate(-4.85 -9.2)"/><path d="M61.95 10.25q4.35-1 7.7-.15 6.05 1.5 8.25 4.5-.9.05-1.25 1.15Q72.9 11 66.6 10.2l-5.85.35 1.2-.3" fill="#96a419" fill-rule="evenodd" transform="translate(-4.85 -9.2)"/><path d="M62.75 37.65q.35 1.1 1.25 1.1-2.05 3.1-8.05 4.8-3.4 1-7.7.1 12.45 3 17.6-4.7-2.55-.1-3.1-1.3" fill="#605a0a" fill-rule="evenodd" transform="translate(-4.85 -9.2)"/><path d="M48.25 43.65q4.3.9 7.7-.1 6-1.7 8.05-4.8-.9 0-1.25-1.1-3.65 4.85-9.9 5.9l-5.8-.2 1.2.3M75.6 26.45q-5.1 4.7-12.35 4.45-3.8-.25-6.45-1.4l1.3.6q4.65 1.9 8.6 1.55 7.1-.7 10.1-3.75-1-.2-1.2-1.45" fill="#96a419" fill-rule="evenodd" transform="translate(-4.85 -9.2)"/><path d="M58.1 30.1q13.3 5.95 20.8-1.55-2.95-.7-3.3-2.1.2 1.25 1.2 1.45-3 3.05-10.1 3.75-3.95.35-8.6-1.55" fill="#605a0a" fill-rule="evenodd" transform="translate(-4.85 -9.2)"/><path d="M79.1 25.85q4.4-2.8 8.5-3.2 7.35-.75 10.95 1.8-.9.4-.85 1.75-6.15-3.85-13.45-2.2-3.85 1-6.35 2.7l1.2-.85" fill="#96a419" fill-rule="evenodd" transform="translate(-4.85 -9.2)"/><path d="M97.7 26.2q-.05-1.35.85-1.75-3.6-2.55-10.95-1.8-4.1.4-8.5 3.2 12.4-8.65 21.5-2.45-2.8 1.25-2.9 2.8M92.95 35.2q.35 1.1 1.25 1.1-2.05 3.1-8.05 4.8-3.4 1-7.7.1 12.45 3 17.6-4.7-2.55-.1-3.1-1.3" fill="#605a0a" fill-rule="evenodd" transform="translate(-4.85 -9.2)"/><path d="M78.45 41.2q4.3.9 7.7-.1 6-1.7 8.05-4.8-.9 0-1.25-1.1-3.65 4.85-9.9 5.9l-5.8-.2 1.2.3" fill="#96a419" fill-rule="evenodd" transform="translate(-4.85 -9.2)"/><path d="M54.1 16.15q.35-1.1 1.25-1.15-2.2-3-8.25-4.5-3.35-.85-7.7.15 12.35-3.4 17.8 4.15-2.6.15-3.1 1.35" fill="#605a0a" fill-rule="evenodd" transform="translate(-4.85 -9.2)"/><path d="M39.4 10.65q4.35-1 7.7-.15 6.05 1.5 8.25 4.5-.9.05-1.25 1.15-3.75-4.75-10.05-5.55l-5.85.35 1.2-.3" fill="#96a419" fill-rule="evenodd" transform="translate(-4.85 -9.2)"/></g></defs></svg>