<svg viewBox="0 0 70.875 59.85" xmlns="http://www.w3.org/2000/svg" xmlns:xlink="http://www.w3.org/1999/xlink"><use transform="translate(.025 .025)" width="70.85" height="59.8" xlink:href="#a"/><defs><g id="a"><path d="m17.7 46.4-1.95.5h-.4l2.35-.5" fill="#164936" fill-rule="evenodd" transform="translate(-7.65 12.55)"/><path d="m62 14.6.05.35.15-.4 2-.35 3 1.3 1.95 1.4-34.3 2.6L62 14.6m14.1.8h-.85l-3.15-1.85.6-.9 1.75-.35 1.65 3.1m1.6 5.65.1.55q1.6 9.05-4.55 13.35Q45.45 37.6 17.7 46.4l-2.35.5q-2.95-.3-5.1-5.05Q8 36.8 8 29.65t2.25-12.2q2.2-4.85 5.25-5.05h.25q3.2 0 5.45 5.05 1.55 3.45 2.1 7.85l28.05-.75L23.5 30l-.3 4.7q29.9-.3 54.5-13.65M15 17.75q-2.15 0-3.7 3.5-1.5 3.5-1.5 8.45t1.5 8.45q1.55 3.5 3.7 3.5t3.65-3.5q1.55-3.5 1.55-8.45t-1.55-8.45q-1.5-3.5-3.65-3.5 2.15 0 3.65 3.5 1.55 3.5 1.55 8.45t-1.55 8.45q-1.5 3.5-3.65 3.5t-3.7-3.5q-1.5-3.5-1.5-8.45t1.5-8.45q1.55-3.5 3.7-3.5m2.65 12.05q0-2.6-.9-4.45-.85-1.8-2.1-1.8t-2.15 1.8q-.85 1.85-.85 4.45t.85 4.4q.9 1.85 2.15 1.85t2.1-1.85q.9-1.8.9-4.4" fill="#523701" fill-rule="evenodd" transform="translate(-7.65 12.55)"/><path d="M55.25 10.55v1.8h-.05l.15.65.9-.6q.75-.15.9-.8l-.25 1.2.8-.55q0 .95.35.9.15-.55.5-.25-.15.55.3.8 1.2-.65 1.3-2.2l.1 2.95 1.35-.05q.1-.1.3-.1l.1.3-27.15 4.9 34.3-2.6 1.15.85h3.05l1.6-1.05 1.7.25 1.05 4.1Q53.1 34.4 23.2 34.7l.3-4.7 27.85-5.45-28.05.75q-.55-4.4-2.1-7.85-2.25-5.05-5.45-5.05 19.9 1.35 39.5-1.85m6.95 4 .15-.35-1.1-1.3 2.95 1.3-2 .35m10.5-1.9v-.05l.9-1.4.85 1.1-1.75.35M17.65 29.8q0 2.6-.9 4.4-.85 1.85-2.1 1.85T12.5 34.2q-.85-1.8-.85-4.4t.85-4.45q.9-1.8 2.15-1.8t2.1 1.8q.9 1.85.9 4.45" fill="#8e5902" fill-rule="evenodd" transform="translate(-7.65 12.55)"/><path d="M59.45-2.45v-.8L59.1-4.5l.35 1.25v4h2.45l-2.35 3.7v3h2.7l2.2 2.35 1.45 2.25 1 1.95.1-.05.65-.4.85-.65 1.6.1 2.6-.4v.05l-.6.9 3.15 1.85h2.6v1.7l-1.2-.15-1.7-.25-1.6 1.05H70.3l-1.15-.85-1.95-1.4-3-1.3-2.95-1.3 1.1 1.3-.15.35-.15.4-.05-.35-.1-.3q-.2 0-.3.1l-1.35.05-.1-2.95q-.1 1.55-1.3 2.2-.45-.25-.3-.8-.35-.3-.5.25-.35.05-.35-.9l-.8.55.25-1.2q-.15.65-.9.8l-.9.6-.15-.65h.05V6.1l1.15-4.4v-7.9h1l.8-1.3.9 3 1.15-5.25 1.6 1.25 1.3 1.9 1.5-5 1.25 6.1 2.45-5.3h1.3l.7-1.75.7 5.1h1.2v3.8L71-2q-.05-1.9.2-2.9l-1.55 1.2-.15.2-1.15 1.3-2.45-2.1q-4-.45-6.45 1.85m7.8 17.2L66.9 14l.35.75M71-1.85l2.6-1.8h1.3l.85 5.1-1.7-1.95v-.1l.05-.9q0-.4-.3-.4l-.05.1-.65.6-.35.3-1.05.35-.5-.05q-.15-.35-.15-.95l-.05-.3" fill="#96a419" fill-rule="evenodd" transform="translate(-7.65 12.55)"/><path d="m68.35-2.2 1.15-1.3.15-.2 1.55-1.2q-.25 1-.2 2.9l-.25.35.25-.2.05.3q0 .6.15.95l.5.05 1.05-.35.35-.3.65-.6.05-.1q.3 0 .3.4l-.05.9v.1l1.7 1.95.15.75-1.2 4.45 2.4 1.95.1.35-1.05 1.4.7 2.05-3.05-1.5-.2.3-.9 1.4-2.6.4-1.6-.1-.85.65-.65.4-.1.05-1-1.95 2.65-.3 3.55-2.9V5l-2.7-6.35-1.05-.85" fill="#605a0a" fill-rule="evenodd" transform="translate(-7.65 12.55)"/><path d="M59.45-2.45q2.45-2.3 6.45-1.85l2.45 2.1 1.05.85L72.1 5v3.85l-3.55 2.9-2.65.3-1.45-2.25-2.2-2.35h-2.1l.9-.95 4.2-3.25.55-1.6L62.2 3l-2.65 2.05v-.6L61.9.75h-1.2l3.5-2 1.4-1.3h-3l-3.15 1.7v-1.6" fill="#d8d366" fill-rule="evenodd" transform="translate(-7.65 12.55)"/><path d="m59.45-.85 3.15-1.7h3l-1.4 1.3-3.5 2h-1.25v-1.6m.1 5.9L62.2 3l3.6-1.35-.55 1.6-4.2 3.25-.9.95h-.6v-2.4" fill="#e8e672" fill-rule="evenodd" transform="translate(-7.65 12.55)"/><path d="m65.95 23.75.85 1.1 1.65 3.1m1.6 5.65.1.55q1.6 9.05-4.55 13.35-27.8 2.65-55.55 11.45m-2.35.5q-2.95-.3-5.1-5.05Q.35 49.35.35 42.2T2.6 30q2.2-4.85 5.25-5.05h.25Q28 26.3 47.6 23.1M69 29.5l1.05 4.1M7.7 59.45l2.35-.5" fill="none" stroke="#220d0d" stroke-linecap="round" stroke-linejoin="round" stroke-width=".75"/><path d="M7.35 30.3q2.15 0 3.65 3.5 1.55 3.5 1.55 8.45T11 50.7q-1.5 3.5-3.65 3.5t-3.7-3.5q-1.5-3.5-1.5-8.45t1.5-8.45q1.55-3.5 3.7-3.5" fill="none" stroke="#8e5902" stroke-linecap="round" stroke-linejoin="round" stroke-width=".75"/><path d="m51.45 8.05.35 1.25v.8q2.45-2.3 6.45-1.85l2.45 2.1m2.65.2L64.6 8.9V5.1h-1.2L62.7 0 62 1.75h-1.3l-2.45 5.3L57 .95l-1.5 5-1.3-1.9-1.6-1.25-1.15 5.25-.9-3-.8 1.3h-1v7.9l-1.15 4.4v6.25h-.05m6.85 2.6.15-.4.15-.35-1.1-1.3 2.95 1.3 3 1.3 1.95 1.4 1.15.85h3.05l1.6-1.05 1.7.25 1.2.15v-1.7h-2.6l-3.15-1.85.6-.9v-.05m-5.8 1.4.35.75m-7.8-17.2v3.2h2.45L51.9 17v3h2.7l2.2 2.35 1.45 2.25 2.65-.3 3.55-2.9v-3.85l-2.7-6.35-1.05-.85m2.65.35 2.6-1.8h1.3l.85 5.1.15.75-1.2 4.45 2.4 1.95m.1.35-1.05 1.4.7 2.05-3.05-1.5-.2.3-.9 1.4m-1.7-14.6-.25.35.25-.2m-5.1 13.9 1 1.95" fill="none" stroke="#000" stroke-linecap="round" stroke-linejoin="round" stroke-opacity=".302" stroke-width=".05"/></g></defs></svg>