<svg viewBox="0 0 80.6 39.65" xmlns="http://www.w3.org/2000/svg" xmlns:xlink="http://www.w3.org/1999/xlink"><use transform="translate(.025 .025)" width="80.55" height="39.6" xlink:href="#a"/><defs><g id="a"><path d="m17.7 46.4-1.95.5h-.4l2.35-.5" fill="#164936" fill-rule="evenodd" transform="translate(-7.65 -7.65)"/><path d="m56.8 15.55 17.65-3.25 1.2 2.05.8 1.95-41.6 3.2 21.95-3.95M42.7 24.8l8.65-.25L42 26.4 23.5 30l-.3 4.7 8.1-.35q25.2-1.75 46.4-13.3l.1.55q1.6 9.05-4.55 13.35Q45.45 37.6 17.7 46.4l-2.35.5q-2.95-.3-5.1-5.05Q8 36.8 8 29.65t2.25-12.2q2.2-4.85 5.25-5.05h.25l.95.1q2.6.65 4.5 4.95 1.55 3.45 2.1 7.85l19.4-.5m-24.05-3.55q-1.5-3.5-3.65-3.5t-3.7 3.5q-1.5 3.5-1.5 8.45t1.5 8.45q1.55 3.5 3.7 3.5t3.65-3.5q1.55-3.5 1.55-8.45t-1.55-8.45q1.55 3.5 1.55 8.45t-1.55 8.45q-1.5 3.5-3.65 3.5t-3.7-3.5q-1.5-3.5-1.5-8.45t1.5-8.45q1.55-3.5 3.7-3.5t3.65 3.5m-1 8.55q0-2.6-.9-4.45-.85-1.8-2.1-1.8t-2.15 1.8q-.85 1.85-.85 4.45t.85 4.4q.9 1.85 2.15 1.85t2.1-1.85q.9-1.8.9-4.4" fill="#523701" fill-rule="evenodd" transform="translate(-7.65 -7.65)"/><path d="m61.95 9.3.05.8q0 .6-.4.75l-2.85-.25.05.4.2.1.6.4.25.8q.05.45-.25.7H59l-.4-.15-.1-.1q-.4.45-1.15.6H56.1l-.5.75q-.25.65 0 1.15l1.2.3-21.95 3.95 41.6-3.2 1.25 4.75Q56.5 32.6 31.3 34.35q.35-.25.8-.35l.4-.25q-.1-1.15-1.4-.9l-.75.15.25-.75 2-.25.65.35.25.4h.55l.3-.15v-.1q.05-.45-.5-.25l-.45-.05-.15-.1q-.1-.35.05-.65l.2-.35.1-.1.75-.25.75.05v-.05l-.15-.6-.35-.4-.1-.15q1.6-1.9 4.85-1.9 1.05 0 1.95-.5l.7-.8 9.35-1.85-8.65.25.4-.2q-1.7-1.55-4.5-.85l-4-.25.4-.65.05-.5q.1-.35-.2-.6l-1.75-.25-1.25-1v-.9l.15-.15.25-.45-.25-.75q-1.55.1-1.9-2l-.85-.15q-.3.05-.4.25-.4.5-.1.9h.55q.75.5.95 1.1v.15q-.5 1.4-1.75 2h-.15q-1.5.35-1.85-.65v-.25q1.3-.1 1.5-1.25-1.55.5-2.4-.25l.05-.15q.85-.45 1.2-1.35l-.25-.25-2.35-.1-.15-.4q-.2-.75.25-1.25l1.5.4q.8-1.1 1.9-1.5l.05-.7q17.2 0 34.15-3.5m-46.2 3.1.9.05.05.05-.95-.1m1.9 17.4q0 2.6-.9 4.4-.85 1.85-2.1 1.85T12.5 34.2q-.85-1.8-.85-4.4t.85-4.45q.9-1.8 2.15-1.8t2.1 1.8q.9 1.85.9 4.45" fill="#dc8a03" fill-rule="evenodd" transform="translate(-7.65 -7.65)"/><path d="m56.8 15.55-1.2-.3q-.25-.5 0-1.15l.5-.75h1.25q.75-.15 1.15-.6l.1.1.4.15h.6q.3-.25.25-.7l-.25-.8-.6-.4-.2-.1-.05-.4 2.85.25q.4-.15.4-.75l-.05-.8 5.9-1.3q4.1.65 6.6 4.3L56.8 15.55m-29-2.75-.05.7q-1.1.4-1.9 1.5l-1.5-.4q-.45.5-.25 1.25l.15.4 2.35.1.25.25q-.35.9-1.2 1.35l-.05.15q.85.75 2.4.25-.2 1.15-1.5 1.25v.25q.35 1 1.85.65h.15q1.25-.6 1.75-2v-.15q-.2-.6-.95-1.1h-.55q-.3-.4.1-.9.1-.2.4-.25l.85.15q.35 2.1 1.9 2l.25.75-.25.45-.15.15v.9l1.25 1 1.75.25q.3.25.2.6l-.05.5-.4.65 4 .25q2.8-.7 4.5.85l-.4.2-19.4.5q-.55-4.4-2.1-7.85-1.9-4.3-4.5-4.95l-.05-.05 11.15.35M42 26.4l-.7.8q-.9.5-1.95.5-3.25 0-4.85 1.9l.1.15.35.4.15.6v.05l-.75-.05-.75.25-.1.1-.2.35q-.15.3-.05.65l.15.1.45.05q.55-.2.5.25v.1l-.3.15h-.55l-.25-.4-.65-.35-2 .25-.25.75.75-.15q1.3-.25 1.4.9l-.4.25q-.45.1-.8.35l-8.1.35.3-4.7L42 26.4" fill="#be6903" fill-rule="evenodd" transform="translate(-7.65 -7.65)"/><path d="M66.8 4.65Q64.3 1 60.2.35l-5.9 1.3q-16.95 3.5-34.15 3.5m49.9 8.25L68.8 8.65m1.25 4.75.1.55Q71.75 23 65.6 27.3q-27.8 2.65-55.55 11.45m-2.35.5q-2.95-.3-5.1-5.05Q.35 29.15.35 22T2.6 9.8q2.2-4.85 5.25-5.05h.25l.9.05 11.15.35m46.65-.5L68 6.7l.8 1.95M7.7 39.25l2.35-.5" fill="none" stroke="#220d0d" stroke-linecap="round" stroke-linejoin="round" stroke-width=".75"/><path d="M11 13.6q1.55 3.5 1.55 8.45T11 30.5Q9.5 34 7.35 34t-3.7-3.5q-1.5-3.5-1.5-8.45t1.5-8.45q1.55-3.5 3.7-3.5T11 13.6" fill="none" stroke="#dc8a03" stroke-linecap="round" stroke-linejoin="round" stroke-width=".75"/><path d="m76.3 34-2.95-7.7 1.45.6 1.1-.5-1.1 1.85.55 1.35.95-.35.2.55-.85.35 1.4 3.65 3.75 4.75 2.25 1.1-1.35-3.7-1.45-2.1 2.1 1.8 1.3 3.35.1-3.35.8 3.65.6-1-.55-9.8.7 1.75.55 3.6-.15 3.9.95-1.4v-3.7L85.3 25.4l1.5 2.55-.3-2.3 1.7 4.4-.7 7.75-.2.45-2.55 2-.6.45-.3.05-.25-.5v-.35l-.2.65-.2.1-.95-.25v.6L81 39.85l-.65-.75-3.55-3.85-.5-1.25m-2.5-14.9q2.05.5 3.75 1.7l1.25.9 1.55 4.1-1.3-2.2-.15-.3-1 .25.25-.9-.6-.85-.65-.55-.5.25-.55.55-.5-1.6-2.6-.4-.75.35 1.2-.9q.25-.25.6-.4m9.5 7.65L82.2 24l-1.25-1.65 1.7 1.15.65 1.7v1.55" fill="#ab6f4d" fill-rule="evenodd" transform="translate(-7.65 -7.65)"/><path d="m86.5 25.65.3 2.3-1.5-2.55 1.35 7.25v3.7l-.95 1.4.15-3.9-.55-3.6-.7-1.75.55 9.8-.6 1-.8-3.65-.1 3.35-1.3-3.35-2.1-1.8 1.45 2.1 1.35 3.7-2.25-1.1-3.75-4.75-1.4-3.65.85-.35-.2-.55-.95.35-.55-1.35 1.1-1.85-1.1.5-1.45-.6L76.3 34l-1.75-2.2q-1.35-1.95-1.95-4.1l-.45.55-.15-.1q-1.75-1.65-1.5-3.85l-.5.85.05 2 1.1 1.5 1.55 1.1 4.1 5.5 3.55 3.85-4.9-4.2-1.15-.8 1.65 2.4.7 1.8 1.2 1 .65 1.65-3.2-2.1.5 1.2L72.15 38l.3-1.3 1.6.6-2.75-2.45-.8.3.35.9.75.45-1.9-.3-1.9-1.8-.1-1.6 2.45-.4 1.75-.8 1 .5.35.95v-1.7L71.4 29.4l-.55 1.35-2.8.25-.45-1.2-.35 1.65L66.2 31l-.05-4.4.65-1 1.25-1.3 1.3.55 1.3-2.25q.2-1.2 1.35-2.2l.75-.35 2.6.4.5 1.6.55-.55.5-.25.65.55.6.85-.25.9 1-.25.15.3 1.3 2.2-1.55-4.1-1.25-.9q-1.7-1.2-3.75-1.7 1.65-1.1 3.8-.25 3.65-.45 6.55 3.15l2.1 2.95.25.7m-3.2 1.1V25.2l-.65-1.7-1.7-1.15L82.2 24l1.1 2.75" fill="#cf8d53" fill-rule="evenodd" transform="translate(-7.65 -7.65)"/><path d="m76.3 34 .5 1.25-4.1-5.5-1.55-1.1-1.1-1.5-.05-2 .5-.85q-.25 2.2 1.5 3.85l.15.1.45-.55q.6 2.15 1.95 4.1L76.3 34m4.05 5.1.65.75L82.25 41v-.6l.95.25.2-.1.2-.65v.35l.25.5.3-.05.6-.45 2.55-2-.95 1.9-2.05 2.6-1.5.05h-.05q-1 .95-2.35 1.05-3.25-.1-5.95-2.05l-3.7-2.5L68 36.1l-2.4-4.35q-.85-2.65.55-5.15l.05 4.4 1.05.45.35-1.65.45 1.2 2.8-.25.55-1.35 1.85 1.95v1.7l-.35-.95-1-.5-1.75.8-2.45.4.1 1.6 1.9 1.8 1.9.3-.75-.45-.35-.9.8-.3 2.75 2.45-1.6-.6-.3 1.3 3.65 2.05-.5-1.2 3.2 2.1-.65-1.65-1.2-1-.7-1.8-1.65-2.4 1.15.8 4.9 4.2m-9.7-16.5-1.3 2.25-1.3-.55q1.15-1 2.6-1.7M82.25 41l2.05 1.75L82.25 41" fill="#804e29" fill-rule="evenodd" transform="translate(-7.65 -7.65)"/><path d="m68.65 26.35.5 1.25 3.55 3.85.65.75 1.25 1.15m5.05-2.75.2-.45.7-7.75-1.7-4.4-.25-.7-2.1-2.95q-2.9-3.6-6.55-3.15-2.15-.85-3.8.25-.35.15-.6.4l-1.2.9q-1.15 1-1.35 2.2l-1.3 2.25-1.3-.55-1.25 1.3-.65 1q-1.4 2.5-.55 5.15l2.4 4.35 2.75 3.2 3.7 2.5q2.7 1.95 5.95 2.05 1.35-.1 2.35-1.05h.05l1.5-.05-2.05-1.75m2.05 1.75 2.05-2.6.95-1.9M63 14.95q-1.45.7-2.6 1.7m1.95.85.05 2 1.1 1.5 1.55 1.1 4.1 5.5" fill="none" stroke="#000" stroke-linecap="round" stroke-linejoin="round" stroke-width=".05"/><path d="m64.65 38.5-2.35-6.2 1.15.5.9-.4-.9 1.5.45 1.05.75-.25.15.4-.65.3 1.1 2.95 3 3.8 1.8.9-1.05-3-1.2-1.7 1.7 1.45 1.05 2.7.1-2.7.6 2.95.5-.8-.45-7.85.6 1.4.4 2.85-.1 3.15.75-1.1v-3l-1.05-5.8 1.2 2.05-.25-1.85 1.35 3.5-.55 6.25-.15.35-2.05 1.6-.5.35-.25.05-.2-.4v-.25l-.15.5-.15.1-.75-.2v.45l-1.05-.9-.5-.6-2.85-3.1-.4-1m-2-11.95q1.65.4 3 1.35l1 .7 1.25 3.3q-.35-.85-1.05-1.75l-.1-.25q-.35-.1-.65.15l-.15.05.2-.7-.5-.7-.5-.45-.4.2-.45.45-.4-1.3-2.1-.3-.6.3.95-.75q.2-.2.5-.3m7.6 6.1-.85-2.2-1-1.3 1.35.9.5 1.4v1.2" fill="#ab6f4d" fill-rule="evenodd" transform="translate(-7.65 -7.65)"/><path d="m72.85 31.8.25 1.85-1.2-2.05 1.05 5.8v3l-.75 1.1.1-3.15-.4-2.85-.6-1.4.45 7.85-.5.8-.6-2.95-.1 2.7-1.05-2.7-1.7-1.45 1.2 1.7 1.05 3-1.8-.9-3-3.8-1.1-2.95.65-.3-.15-.4-.75.25-.45-1.05.9-1.5-.9.4-1.15-.5 2.35 6.2-1.4-1.75q-1.1-1.6-1.55-3.3l-.4.45-.1-.1q-1.4-1.35-1.2-3.1l-.4.7.05 1.6.85 1.2 1.25.9 3.3 4.4 2.85 3.1-3.95-3.4-.9-.65 1.3 1.95.6 1.45.95.8.5 1.3-2.55-1.65.4.95-2.95-1.65.25-1.05 1.3.5-2.2-1.95-.65.2.3.75.6.35-1.55-.25-1.5-1.45-.1-1.25 1.95-.35 1.4-.65.8.4.3.8v-1.4l-1.5-1.55-.4 1.1-2.25.2-.4-1-.25 1.35-.85-.35-.05-3.55.5-.8 1.05-1.05 1 .45 1.05-1.8q.2-.95 1.1-1.75l.6-.3 2.1.3.4 1.3.45-.45.4-.2.5.45.5.7-.2.7.15-.05q.3-.25.65-.15l.1.25q.7.9 1.05 1.75l-1.25-3.3-1-.7q-1.35-.95-3-1.35 1.3-.9 3.05-.2 2.9-.4 5.25 2.5l1.7 2.4.2.55m-2.6.85v-1.2l-.5-1.4-1.35-.9 1 1.3.85 2.2" fill="#cf8d53" fill-rule="evenodd" transform="translate(-7.65 -7.65)"/><path d="m64.65 38.5.4 1-3.3-4.4-1.25-.9-.85-1.2-.05-1.6.4-.7q-.2 1.75 1.2 3.1l.1.1.4-.45q.45 1.7 1.55 3.3l1.4 1.75m3.25 4.1.5.6 1.05.9v-.45l.75.2.15-.1.15-.5v.25l.2.4.25-.05.5-.35 2.05-1.6-.8 1.55-1.65 2.05-1.2.05q-.8.75-1.9.85-2.6-.1-4.8-1.65l-2.95-2L58 40.2l-1.95-3.5q-.65-2.15.45-4.15l.05 3.55.85.35.25-1.35.4 1 2.25-.2.4-1.1 1.5 1.55v1.4l-.3-.8-.8-.4-1.4.65-1.95.35.1 1.25 1.5 1.45 1.55.25-.6-.35-.3-.75.65-.2 2.2 1.95-1.3-.5-.25 1.05 2.95 1.65-.4-.95 2.55 1.65-.5-1.3-.95-.8-.6-1.45-1.3-1.95.9.65 3.95 3.4m-7.8-13.25-1.05 1.8-1-.45 2.05-1.35m9.35 14.75 1.6 1.4-1.6-1.4" fill="#804e29" fill-rule="evenodd" transform="translate(-7.65 -7.65)"/><path d="m57 30.85.4 1 2.85 3.1.5.6 1.05.9m4.05-2.2.15-.35.55-6.25-1.35-3.5-.2-.55-1.7-2.4q-2.35-2.9-5.25-2.5-1.75-.7-3.05.2-.3.1-.5.3l-.95.75q-.9.8-1.1 1.75l-1.05 1.8-1-.45-1.05 1.05-.5.8q-1.1 2-.45 4.15l1.95 3.5 2.2 2.55 2.95 2q2.2 1.55 4.8 1.65 1.1-.1 1.9-.85l1.2-.05-1.6-1.4m1.6 1.4 1.65-2.05.8-1.55M52.45 21.7l-2.05 1.35m1.55.7.05 1.6.85 1.2 1.25.9 3.3 4.4" fill="none" stroke="#000" stroke-linecap="round" stroke-linejoin="round" stroke-width=".05"/></g></defs></svg>