<svg viewBox="0 0 42.489 39.107" xmlns="http://www.w3.org/2000/svg" xmlns:xlink="http://www.w3.org/1999/xlink"><use transform="matrix(-1.2227 0 0 1.2227 42.489 -.004)" width="34.75" height="32" xlink:href="#a"/><defs><use width="14.3" height="26.45" xlink:href="#i" id="b"/><use width="13.75" height="13.75" xlink:href="#j" id="c"/><use width="3.2" height="4.4" xlink:href="#k" id="d"/><use width="8.55" height="12.35" xlink:href="#l" id="e"/><use width="17.7" height="8" xlink:href="#m" id="f"/><use width="16" height="17.55" xlink:href="#n" id="g"/><use width="10.2" height="21.15" xlink:href="#o" id="h"/><g id="a" transform="translate(21.85 30.8)"><use transform="matrix(-1 0 0 1 12.9 -30.8)" width="14.3" height="26.45" xlink:href="#b"/><use transform="matrix(-1 0 0 1 -.9 -29.85)" width="13.75" height="13.75" xlink:href="#c"/><use transform="matrix(-1.1364 0 0 1.1364 .218 -3.786)" width="3.2" height="4.4" xlink:href="#d"/><use transform="matrix(-1.1364 0 0 1.1364 4.118 -5.136)" width="3.2" height="4.4" xlink:href="#d"/><use transform="matrix(-1 0 0 1 4.35 -12.3)" width="8.55" height="12.35" xlink:href="#e"/><use transform="matrix(-1 0 0 1 -4.15 -13.35)" width="17.7" height="8" xlink:href="#f"/><use transform="matrix(-1 0 0 1 8.1 -22.85)" width="16" height="17.55" xlink:href="#g"/><use transform="matrix(-1 0 0 1 -.9 -21.35)" width="10.2" height="21.15" xlink:href="#h"/></g><g id="i"><path d="m5.6-12.05-.35 1.45-.3 2.15Q4.1-1.55 6.9 4.85q-2.1 3.95-1.95 8.1-5.95-.9-9.35-1.85l-1-.3-.25-.1-.4-.15 1-6.3q.4-2.35 1.45-4.6 1.3-2.85 3.55-5.5L.4-6.4l5.2-5.65" fill="#303326" fill-rule="evenodd" transform="translate(7.15 13.25)"/><path d="M-1.35-6.35Q1.5-9.8 5.85-13l-.25.95L.4-6.4l-.45.55-1.3-.5" fill="#d2d9b7" fill-rule="evenodd" transform="translate(7.15 13.25)"/><path d="M-5-.6q1.35-3 3.65-5.75l1.3.5Q-2.3-3.2-3.6-.35L-5-.6" fill="#fff" fill-rule="evenodd" transform="translate(7.15 13.25)"/><path d="m-6.05 10.55-.85-.35Q-7.35 4.5-5-.6l1.4.25q-1.05 2.25-1.45 4.6l-1 6.3" fill="#bbc18c" fill-rule="evenodd" transform="translate(7.15 13.25)"/><path d="m12.75 1.2-.35 1.45-.3 2.15q-.85 6.9 1.95 13.3-2.1 3.95-1.95 8.1-5.95-.9-9.35-1.85l-1-.3-.25-.1-.4-.15-.85-.35M13 .25l-.25.95z" fill="none" stroke="#000" stroke-linecap="round" stroke-linejoin="round" stroke-opacity=".2" stroke-width=".5"/></g><g id="j"><path d="m-5.8-.9 1.8.7.2 2.55 2.7-.95 2.25 1.7L2.35.85l3-.15-1-2.25L6.65.3l-2.5 1.65.35 3-2.95-.65L-.3 6.6l-1.65-2.5-2.9.35.55-2.95-2.3-1.85.8-.55" fill="#b3bfc6" fill-rule="evenodd" transform="translate(6.85 6.9)"/><path d="M-5.8-.9-4.1-2l-.3-2.95 2.9.6 1.9-2.3L2-4.15l3-.3-.65 2.9 1 2.25-3 .15-1.2 2.25-2.25-1.7-2.7.95L-4-.2l-1.8-.7" fill="#fff" fill-rule="evenodd" transform="translate(6.85 6.9)"/><path d="m11.2 5.35.65-2.9-3 .3-1.6-2.5-1.9 2.3-2.9-.6.3 2.95L1.05 6m10.15-.65 2.3 1.85L11 8.85l.35 3-2.95-.65-1.85 2.3L4.9 11l-2.9.35.55-2.95-2.3-1.85.8-.55" fill="none" stroke="#000" stroke-linecap="round" stroke-linejoin="round" stroke-opacity=".451" stroke-width=".5"/></g><g id="l"><path d="M-3.7-4.7h.05q.7-.8 2.6-1.2l1 .15q1.5.35 2.85 1.65l.65.85q.4.55.55 2.15V.15L1.5 1.3h-.3V-.25H-2L-4.05-3.4q0-1.15.35-1.3m7.65 6-.05.25-.75 1.65q-.5.6-2.3 1.05L.8 4.2l-1.35-.1Q-2.6 3.35-3.1 2.75l-.75-1.25-.2-1.15q.4.7 2.05 1.35l2.5.7h1.6l1.85-1.1" fill-rule="evenodd" transform="translate(4.3 6.2)"/><path d="M1.2 1.3h.3L4 .15l-.05.95v.2L2.1 2.4H.5L-2 1.7Q-3.65 1.05-4.05.35V-.1q1 .45 2.05.85v.95-.95l1.25.55H1.2" fill="#737c58" fill-rule="evenodd" transform="translate(4.3 6.2)"/><path d="M-4.05-3.4-2-.25h3.2V1.3H-.75L-2 .75Q-3.05.35-4.05-.1v-3.3M-2-.25v1-1" fill="#52583f" fill-rule="evenodd" transform="translate(4.3 6.2)"/><path d="M8.3 6.25V5.1q-.15-1.6-.55-2.15L7.1 2.1Q5.75.8 4.25.45l-1-.15Q1.35.7.65 1.5H.6m7.65 6v-.2l.05-.95M5.1 10.4l.05.05q1.8-.45 2.3-1.05l.75-1.65.05-.25" fill="none" stroke="#000" stroke-linecap="round" stroke-linejoin="round" stroke-opacity=".451" stroke-width=".5"/><path d="M.25 2.8 2.3 5.95h3.2m0 1.55h.3l2.5-1.15v-.1m-8.05-.3v.15q1 .45 2.05.85v-1m0 1.95v-.95l1.25.55H5.5" fill="none" stroke="#000" stroke-linecap="round" stroke-linejoin="round" stroke-opacity=".2" stroke-width=".5"/><path d="M.6 1.5q-.35.15-.35 1.3v3.15m0 .6.2 1.15.75 1.25q.5.6 2.55 1.35l1.35.1M.25 6.1v.45" fill="none" stroke="#000" stroke-linecap="round" stroke-linejoin="round" stroke-opacity=".451" stroke-width=".5"/><path d="m.4 5.05-1.35.85-1.7-1.95V1.9Q-1.5 2.7.4 3.25v1.8" fill="#b3bfc6" fill-rule="evenodd" transform="translate(4.3 6.2)"/><path d="m4.7 11.25-1.35.85-1.7-1.95V8.1q1.15.8 3.05 1.35z" fill="none" stroke="#000" stroke-linecap="round" stroke-linejoin="round" stroke-opacity=".2" stroke-width=".5"/></g><g id="n"><path d="M1.4-8.5q2.3.4 4.1 2.2Q7.8-4 7.8-.8v3.5l.05.35v.1q-.05 1.65-2.3 2.8l-2.1.7V-2.6L1.4-8.5" fill="#656d4e" fill-rule="evenodd" transform="translate(7.9 8.75)"/><path d="m1.4-8.5 2.05 5.9v.55Q-2 0-7.4-3.35-6.85-5-5.55-6.3q2.3-2.3 5.5-2.3l1.45.1" fill="#afbd8f" fill-rule="evenodd" transform="translate(7.9 8.75)"/><path d="M3.45-2.05v8.7l-3.5.4q-3.1 0-5.5-1.1Q-7.9 4.7-7.9 3.15v-.1l.1-.35.1-4.6 5.1 6.85V.7l-5.15-2.65.35-1.35v-.05Q-2 0 3.45-2.05" fill="#788761" fill-rule="evenodd" transform="translate(7.9 8.75)"/><path d="m11.35 15.4 2.1-.7q2.25-1.15 2.3-2.8v-.1l-.05-.35v-3.5q0-3.2-2.3-5.5Q11.6.65 9.3.25" fill="none" stroke="#000" stroke-linecap="round" stroke-linejoin="round" stroke-opacity=".451" stroke-width=".5"/><path d="m-7.05-1.55 4.8 2.3V5l-4.9-2.3V-.35l.1-1.2" fill-rule="evenodd" transform="translate(7.9 8.75)"/><path d="m.75 11.45 4.9 2.3V9.5L.85 7.2" fill="none" stroke="#000" stroke-linecap="round" stroke-linejoin="round" stroke-opacity=".451" stroke-width=".5"/><path d="M6.85-5.3Q4.9-7.15 3.1-7.15 5.85-5.6 6.5-3.8L3.35-2.7Q2.5-5.05-.25-6.05l-.8.55-2.85-1.4q.65-.75 1.55-1.1l.5-.2 2.3-.35q3.25 0 5.55 2.3l.85.95" fill="#dce8bc" fill-rule="evenodd" transform="translate(7.9 8.75)"/><path d="M-1.05-5.5q-1.8 1.45-2.35 3.95L-5.95-2.6q.65-2.85 2.05-4.3l2.85 1.4" fill="#fff" fill-rule="evenodd" transform="translate(7.9 8.75)"/><path d="M-3.4-1.55-3.65.3v8.25L-6.3 7.2v-8.25l.35-1.55 2.55 1.05" fill="#d2d9b7" fill-rule="evenodd" transform="translate(7.9 8.75)"/><path d="M14.75 3.45Q12.8 1.6 11 1.6q2.75 1.55 3.4 3.35l-3.15 1.1Q10.4 3.7 7.65 2.7l-.8.55Q5.05 4.7 4.5 7.2l-.25 1.85v8.25L1.6 15.95" fill="none" stroke="#000" stroke-linecap="round" stroke-linejoin="round" stroke-opacity=".451" stroke-width=".5"/><path d="M.55-2.5q-.3.25-.7.25-.45 0-.7-.25l-.3-.7.3-.75.7-.25.7.25.25.75-.25.7" fill="#ffc" fill-rule="evenodd" transform="translate(7.9 8.75)"/></g><g id="o"><path d="M1.9-4.3q-.75-.75-1.8-.75t-1.8.75-.75 1.75q0 1.05.75 1.8T.1 0t1.8-.75.75-1.8q0-1-.75-1.75" fill-rule="evenodd" transform="translate(5.1 20.9)"/><path d="M7 16.6q-.75-.75-1.8-.75t-1.8.75-.75 1.75q0 1.05.75 1.8t1.8.75 1.8-.75.75-1.8q0-1-.75-1.75z" fill="none" stroke="#000" stroke-linecap="round" stroke-linejoin="round" stroke-opacity=".2" stroke-width=".5"/><path d="M-2.05-1.6-4.6-2.8v-1.75l2.55 1.25v1.7m-.4-11.85v-2.8q.95-2.1 2.5-4.4v6.25l-2.5.95" fill="#d2d9b7" fill-rule="evenodd" transform="translate(5.1 20.9)"/><path d="M-2.45-9.45v-4l2.5-.95v2.7l-2.5 2.25" fill="#eaefd1" fill-rule="evenodd" transform="translate(5.1 20.9)"/><path d="m2.15-7.85 2.5 1.2-6.7 3.35-2.55-1.25 2.25-1.1q.35.3.45 1.1l.1-.05 3.65-2.1h.05l.25-1.15" fill="#b6c087" fill-rule="evenodd" transform="translate(5.1 20.9)"/><path d="m-2.35-5.65-.95-.25q-.6.05-1.55.7Q-4.1-6.75-3-7.65l.55-.4v-1.4l2.5-2.25v2.15L-1.8-4.6l-.1.05q-.1-.8-.45-1.1" fill="#9aa480" fill-rule="evenodd" transform="translate(5.1 20.9)"/><path d="M4.65-6.65v1.8l-6.7 3.25v-1.7l6.7-3.35" fill="#85924e" fill-rule="evenodd" transform="translate(5.1 20.9)"/><path d="m.05-9.55 1.8 2.85-3.65 2.1L.05-9.55" fill="#333827" fill-rule="evenodd" transform="translate(5.1 20.9)"/><path d="M.05-20.65q1.45.55 2.4 1.55v8.25l.55-.2q1.05-.3 1.85.35-1 .45-1.6 1.05-.8.85-1.1 1.8L1.9-6.7h-.05L.05-9.55v-11.1" fill="#728d7b" fill-rule="evenodd" transform="translate(5.1 20.9)"/><path d="M5.15.25v6.1m0 .15v4.85" fill="none" stroke="#000" stroke-linecap="round" stroke-linejoin="round" stroke-opacity=".2" stroke-width=".5"/><path d="M5.15.25Q6.6.8 7.55 1.8v8.25l.55-.2q1.05-.3 1.85.35-1 .45-1.6 1.05-.8.85-1.1 1.8l2.5 1.2v1.8l-6.7 3.25L.5 18.1v-1.75l2.25-1.1L1.8 15q-.6.05-1.55.7.75-1.55 1.85-2.45l.55-.4v-8.2q.95-2.1 2.5-4.4m1.8 13.95H7l.25-1.15M3.3 16.3l-.1.05q-.1-.8-.45-1.1m4.2-1.05L3.3 16.3" fill="none" stroke="#000" stroke-linecap="round" stroke-linejoin="round" stroke-opacity=".451" stroke-width=".5"/></g><path d="M1.6-1.25q-.35 4.6-1.6 3.2Q-1.2.5-1.6-1.25q1.8-1.7 3.2 0" fill-rule="evenodd" transform="translate(1.6 2.1)" id="k"/><path d="M.45 0 0-1.05q5.85-1.35 10.85-3.8L8.6-6.9h4.05l4.15-.5.9-.6q-3.1 2.4-2.35 4.3l-4.25-.65-.25.15Q5.55-1.5.45 0" fill-rule="evenodd" transform="translate(0 8)" id="m"/></defs></svg>