<svg viewBox="0 0 68.116 53.581" xmlns="http://www.w3.org/2000/svg" xmlns:xlink="http://www.w3.org/1999/xlink"><g transform="translate(-2.042 -13.752)"><use transform="matrix(-2.309 0 0 .8362 70.158 42.666)" width="29.5" height="29.5" xlink:href="#a"/><use transform="translate(8.255 12.526) scale(3.5148)" width="15.4" height="14.25" xlink:href="#b"/><use transform="translate(8.2 13.75)" width="53.45" height="48.65" xlink:href="#c"/></g><defs><g id="b" transform="translate(8.15 11.8)"><use transform="matrix(.3391 -.1187 .1187 .3391 -1.78 -2.824)" width="7.8" height="10.25" xlink:href="#f"/><use transform="matrix(.3595 .011 -.011 .3595 1.347 -2.319)" width="7.8" height="10.25" xlink:href="#f"/><use transform="matrix(.3391 -.1187 .1187 .3391 -5.08 -1.774)" width="7.8" height="10.25" xlink:href="#f"/><use transform="matrix(.3595 .011 -.011 .3595 -2.103 -1.319)" width="7.8" height="10.25" xlink:href="#f"/><use transform="translate(-8.15 -11.1)" width="13" height="11.95" xlink:href="#g"/><use transform="rotate(34.128 17.246 -.123) scale(.4355)" width="12" height="11.65" xlink:href="#h"/><use transform="translate(-1.05 -11.8)" width="8.2" height="12.65" xlink:href="#i"/><use transform="rotate(18.745 25.18 -5.53) scale(.4355)" width="12" height="11.65" xlink:href="#h"/></g><g id="j"><path d="M.85 7.95 0 6.85Q-2.7 2.9-.3-1.1h2.7Q4.9 2.85.85 7.95" fill="#9f6a35" fill-rule="evenodd" transform="translate(3.95 1.6)"/><path d="M-1.7-1v-.1h1.4q-2.4 4 .3 7.95l.85 1.1-.2.2-1.1-1.25-1.4 1.25-.75-2.05v-.05l-.25-.65Q-4.45 1.3-1.7-1" fill="#6f4a25" fill-rule="evenodd" transform="translate(3.95 1.6)"/><path d="M-1.7-1q-2.75 2.3-1.15 6.4m1 2.75 1.4-1.25 1.1 1.25.2-.2M2.4-1.1Q4.9 2.85.85 7.95" fill="none" stroke="#332416" stroke-linecap="round" stroke-linejoin="round" stroke-opacity=".561" transform="translate(3.95 1.6)"/></g><g id="k"><path d="m-6.75-3.6-.4-.25q-.55-.4.65-1.95 1.45.1 1.75.65l-.8.6-.05-.05q-.75-.55-1-.2-.3.4.05.55l-.25.3.05.35m2.15-.75L-3.55-3l-1.4 1-.35-1.75.5-.4.2-.2" fill="#6f4a25" fill-rule="evenodd" transform="translate(7.45 6.6)"/><path d="m-6.75-3.6-.05-.35.25-.3h.05q.4.05.9-.25l.05-.05.8-.6.3-.4q.15-.4.05-.75.35.35.25 1-.05.5-.45.95l-.2.2-.5.4-.6.2-.85-.05" fill="#9f6a35" fill-rule="evenodd" transform="translate(7.45 6.6)"/><path d="M2.7 1.45Q2.4.9.95.8-.25 2.35.3 2.75L.7 3m.2-.65Q.55 2.2.85 1.8q.25-.35 1 .2l.05.05.8-.6.3-.4q.15-.4.05-.75.35.35.25 1-.05.5-.45.95L3.9 3.6l-1.4 1-.35-1.75-.6.2L.7 3m1.2-.95-.05.05q-.5.3-.9.25H.9m1.25.5.5-.4.2-.2" fill="none" stroke="#000" stroke-miterlimit="3" stroke-opacity=".18" stroke-width=".25"/><path d="m-5.8-.3-.1-.45V-.8l.05-.5.25-1.15h.05l.15-.25.1-.15.9-1.05.2-.15.75-.65.4-.35.8-.4.75-.25.6-.15 1.7.25q1.2.25 2.55 1.9 1.3 1.65 1.45 2.55l.1.15.3 1.1v.1l-.6.75Q3.95 1.5 3.25 2q-1.4.65-3 .65l-2.5-.45q-1.1-.45-2-1.25L-5.4-.5l-.4-.75-.05.55.05.4" fill="#9f6a35" fill-rule="evenodd" transform="translate(7.45 6.6)"/><path d="m5.2.2.1 1.1-.25 1.1-.6 1.05-.95.8-.2.1-.4.25-1.35.5h-.5l-1.3-.15-1.65-.6-1.65-.95-.3-.2-1.25-1.65-.35-.6L-5.5.7l-.25-.95-.05-.05-.05-.4.05-.55.4.75L-4.25.95q.9.8 2 1.25l2.5.45q1.6 0 3-.65.7-.5 1.35-1.05L5.2.2" fill="#6f4a25" fill-rule="evenodd" transform="translate(7.45 6.6)"/><path d="M5.3 0h-.05.05" fill-opacity=".302" fill-rule="evenodd" transform="translate(7.45 6.6)"/><path d="m1.65 6.3-.1-.45V5.8l.05-.5.25-1.15h.05l.15-.25.1-.15.9-1.05.2-.15L4 1.9l.4-.35.8-.4.75-.25.6-.15 1.7.25q1.2.25 2.55 1.9 1.3 1.65 1.45 2.55l.1.15.3 1.1v.1l.1 1.1L12.5 9l-.6 1.05-.95.8-.2.1-.4.25-1.35.5h-.5l-1.3-.15-1.65-.6L3.9 10l-.3-.2-1.25-1.65-.35-.6-.05-.25-.25-.95-.05-.05-.05-.4.05-.55" fill="none" stroke="#000" stroke-linecap="round" stroke-linejoin="round" stroke-opacity=".302" stroke-width=".5"/><path d="m-2 .5-.6-.15q-1.55-.4-2.75-.95l-.4-.75-.05.55-.05-.05V-.9l.05-.5.3-1.15.15-.25Q-3.9-1.25-2.1-.45l.1.95m1.15-4.1Q-2.1-4.45-3.4-4.8l.4-.35.8-.4.6-.2.45.4.95.85-.5.65-.15.25M.3 3.45H-.85L-3.5 3.3l-.3-.2-1.25-1.65-.15-.25q1.85 1 3.35 1.4l1.1.2.25.2.8.45" fill="#b7822c" fill-rule="evenodd" transform="translate(7.45 6.6)"/><path d="m-2.1-.45.25.1L2.45.8v.15L1.5 1-2 .5l-.1-.95M-.2-4.5q2 1.85 2.75 3.45l-2.9-2.2-.5-.35.15-.25.5-.65m-.55 7.3L1.9 3h.25q-.2.35-1.85.45L-.5 3l-.25-.2" fill="#cf9b23" fill-rule="evenodd" transform="translate(7.45 6.6)"/><path d="m-3-5.1-.25.4q-1 1.65-1 2.6l.65 1.8.9 1.65.5.8Q-1.05 3.85.75 4.6l1.05.35-.2.1h-.5L-.2 4.9l-1.65-.6-1.95-1.15-1.25-1.65-.35-.6-.05-.25-.25-.95-.05-.05-.1-.5.05-.5.3-1.15.25-.4.9-1.05.2-.15 1.15-1" fill-opacity=".302" fill-rule="evenodd" transform="translate(7.45 6.6)"/></g><g id="l"><path d="M-4.7-.3v-.35q0-2.2 1.65-3.75Q-1.45-5.95.8-5.95T4.7-4.4l.1.15.1.1-.1.05q1.5 2.2-.4 4Q2.5 1.65 1.25 2l-2.8-.1q-1.6-.45-3-2.25l-.15.05" fill="#fff" fill-rule="evenodd" transform="translate(5.2 6.45)"/><path d="M4.9-4.15Q6.3-2.7 6.3-.65q0 2.2-1.6 3.75Q3.05 4.65.8 4.7q-2.25-.05-3.85-1.6-1.5-1.45-1.65-3.4l.15-.05q1.4 1.8 3 2.25l2.8.1Q2.5 1.65 4.4-.1q1.9-1.8.4-4l.1-.05" fill="#b9ab8e" fill-rule="evenodd" transform="translate(5.2 6.45)"/><path d="M-4.7-.3v-.35q0-2.2 1.65-3.75Q-1.45-5.95.8-5.95T4.7-4.4l.1.15.1.1Q6.3-2.7 6.3-.65q0 2.2-1.6 3.75Q3.05 4.65.8 4.7q-2.25-.05-3.85-1.6-1.5-1.45-1.65-3.4z" fill="none" stroke="#223437" stroke-linecap="round" stroke-linejoin="round" stroke-opacity=".341" transform="translate(5.2 6.45)"/><path d="M4.8-.2 4.75.95Q4.5 1.7 3.9 2l-1.25-.05Q2 1.6 1.7.85 1.5.25 1.6-.3l.05-.4q.25-.75.9-1.05l1.2.05q.65.35.95 1.1l.1.4" fill-rule="evenodd" transform="translate(5.2 6.45)"/><path d="M2.45-.65 2.4.2q-.15.6-.6.8L.85.95l-.7-.8-.1-.85L.1-1q.2-.6.65-.8l.9.05.75.8.05.3" fill="#fff" fill-rule="evenodd" transform="translate(5.2 6.45)"/></g><g id="i" transform="translate(4.1 6.3)"><use transform="translate(-3.05 -.55)" width="7.15" height="6.9" xlink:href="#m"/><use transform="matrix(.4302 .2644 -.3806 .3587 .758 -6.302)" width="5.3" height="8.15" xlink:href="#n"/><use transform="matrix(.4873 -.1288 .1288 .4873 -4.091 -5.483)" width="5.3" height="8.15" xlink:href="#n"/></g><g id="m"><path d="m-2.85 2.3.05-.2q.3-.8.95-1.5l.7-.65L.3-.15 2.25.6Q.85 1.4-.8 3.75-2.55 3.1-2.85 2.3M2.65.75h.05l.05.05h-.1V.75" fill="#9f6a35" fill-rule="evenodd" transform="translate(3.05 .55)"/><path d="m2.75.8.65.2q.45.3.45 1.25 0 .7-.4 1.5-.15 0-.75.45-.65.4-1.35.4-.65-.05-.25-1.45.35-1.4.95-1.95l.6-.4h.1m-.05.75q0 .15.2.1l.45.2q.25.25.25-.2t-.7-.45q-.35 0-.35.2l.15.15" fill="#f99" fill-rule="evenodd" transform="translate(3.05 .55)"/><path d="m3.45 3.75-.25.45-1.55 1.55q-.9.5-1.6.25l-.1-.1q-.55-.35-.4-1.35Q-.3 3.4.7 2.2 1.65.95 2.3.8h.35l-.6.4q-.6.55-.95 1.95-.4 1.4.25 1.45.7 0 1.35-.4.6-.45.75-.45" fill="#cc675b" fill-rule="evenodd" transform="translate(3.05 .55)"/><path d="m2.7 1.55-.15-.15q0-.2.35-.2.7 0 .7.45t-.25.2l-.45-.2q-.2.05-.2-.1" fill="#fff" fill-rule="evenodd" transform="translate(3.05 .55)"/><path d="m2.25.6.15.05.25.1V.8H2.3Q1.65.95.7 2.2q-1 1.2-1.15 2.35-.15 1 .4 1.35l-.15.05Q-1.65 6-2.4 5.2l-.05-.1q-.5-.6-.6-1.35L-3 3l.15-.7q.3.8 2.05 1.45Q.85 1.4 2.25.6" fill="#6f4a25" fill-rule="evenodd" transform="translate(3.05 .55)"/><path d="M.65 5.75q.75.8 2.2.75L3 6.45l.1.1q.7.25 1.6-.25l1.55-1.55Q6.9 3.7 6.9 2.8q0-.95-.45-1.25l-.65-.2-.35-.15-2.1-.8L1.9.5" fill="none" stroke="#332416" stroke-linecap="round" stroke-linejoin="round" stroke-opacity=".561" stroke-width=".5"/><path d="M5.8 3.35 5.7 4M4.05 4.2 4 4.85" fill="none" stroke="#000" stroke-linecap="round" stroke-linejoin="round" stroke-opacity=".502" stroke-width=".5"/></g><g id="o"><path d="m1.95 2.15-.3.5Q.95 3.75 0 3.75t-1.65-1.1Q-2.2 1.8-2.3.75L-2.35 0q0-1.55.7-2.65l.7-.75" fill="none" stroke="#332416" stroke-linecap="round" stroke-linejoin="round" stroke-opacity=".561" transform="translate(2.85 3.9)"/><path d="m-1.15-3.25.2-.15.45-.25.3-.05.2-.05q.65 0 1.2.5l.45.6.25.45.45 2.15V0L2.3.95l-.1.35v.1l-.1-.05-.8-.1.1-.25q.75-1.7-.25-3L.1-2.15l-.4 1-.05 1.5Q-1.5-.6-1.5-1.85l.35-1.4" fill="#9f6a35" fill-rule="evenodd" transform="translate(2.85 3.9)"/><path d="m-.35.35.05-1.5.4-1L1.15-2q1 1.3.25 3l-.1.25L-.15.5l-.2-.15" fill="#f99" fill-rule="evenodd" transform="translate(2.85 3.9)"/><path d="m-1.15-3.25-.35 1.4Q-1.5-.6-.35.35-.15 1.3.9 2l.4-.75.8.1.1.05-.05.1-.2.65-.3.5Q.95 3.75 0 3.75t-1.65-1.1Q-2.2 1.8-2.3.75L-2.35 0q0-1.55.7-2.65l.5-.6" fill="#6f4a25" fill-rule="evenodd" transform="translate(2.85 3.9)"/><path d="M1.3 1.25.9 2Q-.15 1.3-.35.35l.2.15 1.45.75" fill="#cc675b" fill-rule="evenodd" transform="translate(2.85 3.9)"/><path d="m2.5 4.25.05-1.5.4-1m1.2 3.4-.4.75Q2.7 5.2 2.5 4.25z" fill="none" stroke="#000" stroke-linecap="round" stroke-linejoin="round" stroke-opacity=".302" stroke-width=".25"/></g><use width="29.5" height="29.5" xlink:href="#d" id="a"/><use width="7.8" height="10.25" xlink:href="#j" id="f"/><use width="13" height="11.95" xlink:href="#k" id="g"/><use width="12" height="11.65" xlink:href="#l" id="h"/><use width="5.3" height="8.15" xlink:href="#o" id="n"/><path d="M10.4-10.45Q14.75-6.1 14.75 0T10.4 10.4Q6.1 14.75 0 14.75t-10.45-4.35q-4.3-4.3-4.3-10.4t4.3-10.45q4.35-4.3 10.45-4.3t10.4 4.3" fill="url(#e)" fill-rule="evenodd" transform="translate(14.75 14.75)" id="d"/><path d="m50.4 15.15 1.55-.25.45-.05h.05l1.05.15.5.2.35.1q1 .6 1.15 1.75l-.1 1.2-.25.8q-.6 1.6-2.2 3.15l-.05.05-1.3 1.15q-.4.2-.65.35l-.1.1-.25.1-.55.3q2.2.1 4.2 1.45 2.85 1.9 3.65 5.35v.45q.55 3.05-1.2 5.65l.2.15h.2l.15.15q1.25 0 2.3.7 1.6 1.05 1.6 4.4 0 2.45-1.4 5.3l-.05.15-.1.2-.75 1.2q-2.3 3.55-5.45 5.45-2.5 1.4-4.5 1.15l-1.6 2.1-.25.25-1.3-1.65-1.85 1.55-.9-2.65v-.05l-.1-.4-.2-.05-2.8 1.05-1.55-.05q-.7 2.65-3.15 5.55l-.25.25-1.3-1.65-1.85 1.55-.9-2.65v-.05l-.25-.85q-.75-2.15-.6-3.85l-.55-.2-.8 2.95-.15.3-1.8-1.05-1.15 2.05-1.75-2.1v-.05l-.6-.65q-2.65-3.1-2.1-6.05l-.25-.15q-2.8-2.65-4.4-5.8l-1.2-2.1-.2-.9q-.7-1.9-.85-3.35l-.2-.15q-.35-.9-.35-1.6v-.2q-.15-1 .2-1.7 0-2.3.85-4.05h.15l.15-.2.15-.3.3-.55q0-.25.3-.35l.5-.9-.5-2.3q-1.05.55-2.1.7l-2.95-.15-1.45-.9q-1.9-1.4 2.3-6.85 5.1.35 6.15 2.3l1.05-1.4q.55-1.4.2-2.65 1.2 1.25.85 3.5-.15 1.8-1.55 3.35l1 1.25.05-.05q.25-.3.5-.3l.85-.85 2.1-1.9 1.1-.95q1.4-.9 2.8-1.4l2.15-.7.2.2.15-.05 2.1-.5 4.25.5q.05-.65.25-1.2l.65-1.25.2-.3.7-.65q.2-.2.45-.25l.35-.15q1.1-.3 2.3.3l1.05.8.6.7q1.25 1.4 1.8 3.45v.1l.1.3v.05l.3-.5.35-.45.2-.25.95-1q2.05-1.95 4.6-2.7m-39.15 6.2q.9-1.25 3.5.7l.2.15-.2.2q-1.75 1.05-3.15.85h-.15q-1.25-.5-.2-1.9" fill="none" stroke="#000" stroke-linecap="round" stroke-linejoin="round" stroke-opacity=".498" transform="translate(-8.2 -13.75)" id="c"/><radialGradient id="e" cx="0" cy="0" r="819.2" gradientTransform="scale(.0172)" gradientUnits="userSpaceOnUse"><stop stop-color="#0e171d" stop-opacity=".427" offset=".333"/><stop stop-color="#101a24" stop-opacity="0" offset="1"/></radialGradient></defs></svg>