<svg viewBox="0 0 25.85 37.322" xmlns="http://www.w3.org/2000/svg" xmlns:xlink="http://www.w3.org/1999/xlink"><g transform="translate(-.05 -1.35)"><use transform="translate(8.65 29.05)" width="4.3" height="4.15" xlink:href="#a"/><use transform="rotate(14.996 -113.137 59.27) scale(1.1363)" width="3.7" height="4.65" xlink:href="#b"/><use transform="translate(11.35 24.9)" width="7.3" height="10.7" xlink:href="#c"/><use transform="translate(14.548 33.414) scale(1.1364)" width="3.7" height="4.65" xlink:href="#b"/><use transform="translate(16.25 31.5)" width="4.3" height="4.15" xlink:href="#d"/><use transform="translate(.05 1.35)" width="25.85" height="32.1" xlink:href="#e"/></g><defs><g id="f"><path d="M.55 1.05Q-.65 2.35-2.4 3q-1.75.6.2-3.55 2.05-.8 2.75 1.6" fill="#653434" fill-rule="evenodd" transform="translate(3.5 .8)"/><path d="M4.05 1.85Q2.85 3.15 1.1 3.8q-1.75.6.2-3.55" fill="none" stroke="#000" stroke-linecap="round" stroke-linejoin="round" stroke-opacity=".412" stroke-width=".5"/></g><g id="g"><path d="M-1.6-1.25q1.8-1.7 3.2 0-.35 4.6-1.6 3.2Q-1.2.5-1.6-1.25" fill="#653434" fill-rule="evenodd" transform="translate(1.85 2.1)"/><path d="M.25.85q.4 1.75 1.6 3.2 1.25 1.4 1.6-3.2" fill="none" stroke="#000" stroke-linecap="round" stroke-linejoin="round" stroke-opacity=".412" stroke-width=".5"/></g><g id="h"><path d="M-2.5-4.7q.65-.8 2.3-1.2l.8.15q1.2.35 2.15 1.65l.4.85q.3.55.25 2.15L3.3.05l-.05.1-.15.95-.05.2-.05.25-.8 1.65q-.45.6-2 1.05V4.2l-1.1-.1-1.95-1.35-.5-1.25V.35l.05-.45v-.15l.3-2.9.05-.25q.15-1.15.45-1.3" fill="#653434" fill-rule="evenodd" transform="translate(3.65 6.2)"/><path d="m6.95 6.25.1-1.15q.05-1.6-.25-2.15l-.4-.85Q5.45.8 4.25.45L3.45.3Q1.8.7 1.15 1.5m2.7 8.9v.05q1.55-.45 2-1.05l.8-1.65.05-.25.05-.2.15-.95M1.15 1.5q-.3.15-.45 1.3l-.05.25-.3 2.9m0 .15-.05.45V7.7l.5 1.25 1.95 1.35 1.1.1" fill="none" stroke="#000" stroke-linecap="round" stroke-linejoin="round" stroke-opacity=".451" stroke-width=".5"/></g><g id="i"><path d="M-.5-5.05q2 4.15.25 3.55-1.8-.65-3-1.95.7-2.4 2.75-1.6" fill="#653434" fill-rule="evenodd" transform="translate(3.5 5.3)"/><path d="M.25 1.85q1.2 1.3 3 1.95Q5 4.4 3 .25" fill="none" stroke="#000" stroke-linecap="round" stroke-linejoin="round" stroke-opacity=".412" stroke-width=".5"/></g><g id="e"><path d="M9.85 3.35 6.65 4.9l-3.4.85 6.6-2.4" fill="#7b6810" fill-rule="evenodd" transform="translate(14.8 21.75)"/><path d="M6.5-7.1q1 .45 2.85 2.4t.5 8.05l-6.6 2.4V-2.9q4.1-2.15 3.25-4.2" fill="#653434" fill-rule="evenodd" transform="translate(14.8 21.75)"/><path d="M-9.6-5.1q.6-1.55 2.75-3.25 2.1-1.75 4.7-1.95l5.05.5q2.5.65 2.7 1.35.2.65.9 1.35.85 2.05-3.25 4.2Q-3.2-1.3-9.6-5.1" fill="#a37354" fill-rule="evenodd" transform="translate(14.8 21.75)"/><path d="m3.25 5.75-4.15.1q-3.7-.3-6.55-1.6-2.8-1.4-2.8-3v-.1l.1-.3.15-4.55h-.05l.4-1.3.05-.1q6.4 3.8 12.85 2.2v8.65" fill="#78483d" fill-rule="evenodd" transform="translate(14.8 21.75)"/><path d="M5.2 16.65q.6-1.55 2.75-3.25 2.1-1.75 4.7-1.95l5.05.5q2.5.65 2.7 1.35.2.65.9 1.35 1 .45 2.85 2.4t.5 8.05l-3.2 1.55-3.4.85 6.6-2.4" fill="none" stroke="#000" stroke-linecap="round" stroke-linejoin="round" stroke-opacity=".451" stroke-width=".5"/><path d="M6.85-4.7 5.1-4.8q.15-5 5.3-11.2.4 4.2.25 8.4l-.3-.9-.8-2.3-1.4 2.7-.2.4-.85 2.3-.15.45-.1.25" fill="#78483d" fill-rule="evenodd" transform="translate(14.8 21.75)"/><path d="m6.85-4.7.1-.25.15-.45.85-2.3.2-.4 1.4-2.7.8 2.3.3.9-.1 1.5-.35 3.35Q8.95-4.3 6.85-4.7m.1-.25Q8.1-6.1 10.55-6.1q-2.45 0-3.6 1.15m1-2.75q1-1.15 2.4-.8-1.4-.35-2.4.8" fill="#cc9660" fill-rule="evenodd" transform="translate(14.8 21.75)"/><path d="M25.45 14.15q.15-4.2-.25-8.4M25 19l.35-3.35.1-1.5" fill="none" stroke="#000" stroke-linecap="round" stroke-linejoin="round" stroke-opacity=".451" stroke-width=".5"/><path d="m21.65 17.05.1-.25.15-.45.85-2.3.2-.4 1.4-2.7m1 4.7q-2.45 0-3.6 1.15m3.4-3.55q-1.4-.35-2.4.8" fill="none" stroke="#000" stroke-linecap="round" stroke-linejoin="round" stroke-opacity=".251" stroke-width=".5"/><path d="M-4.3-21.5q2 5.65 2.5 11.75-4.5.05-5.45 2.3.9-9.45 2.95-14.05" fill="#78483d" fill-rule="evenodd" transform="translate(14.8 21.75)"/><path d="M10.5.25Q12.5 5.9 13 12" fill="none" stroke="#000" stroke-linecap="round" stroke-linejoin="round" stroke-opacity=".451" stroke-width=".5"/><path d="M-13.8-3.9-7.3.3l-1.6 3.1-5.65-1.4 3.25-2.35-2.5-3.55" fill="#a79d69" fill-rule="evenodd" transform="translate(14.8 21.75)"/><path d="m-7.3.3-6.5-4.2h3.6v-3.3l4.3 3.75L-7.3.3" fill="#d7cb9f" fill-rule="evenodd" transform="translate(14.8 21.75)"/><path d="m7.5 22.05 1.4-3.75-4.3-3.75v3.3m-3.6 0 2.5 3.55M.25 23.75l5.65 1.4 1.6-3.1z" fill="none" stroke="#000" stroke-linecap="round" stroke-linejoin="round" stroke-opacity=".333" stroke-width=".5"/><path d="M-5.3-7.5q1.35 1.3.85 4v2.65Q-5.4.6-6.45.45L-8.15-1Q-9-1.35-8.7-4.85q-.15-1.8.9-2.9 1.1-1.1 2.5.25" fill="#e6dec1" fill-rule="evenodd" transform="translate(14.8 21.75)"/><path d="M9.5 14.25q1.35 1.3.85 4v2.65q-.95 1.45-2 1.3l-1.7-1.45q-.85-.35-.55-3.85-.15-1.8.9-2.9 1.1-1.1 2.5.25z" fill="none" stroke="#000" stroke-linecap="round" stroke-linejoin="round" stroke-opacity=".302" stroke-width=".5"/><path d="M-3.3-3.15q2.9-1.4 5.55.5Q3.55.4 2.05 5H1.8l-4.5-1.85q-.65-.8-.75-1.95l-.2-1.55q-.15-1.6.35-2.8" fill="#fffbee" fill-rule="evenodd" transform="translate(14.8 21.75)"/><path d="m-3.3-3.15.6-1.15q.55-1.1 2.5-1.2 2-.15 3.25 1.15t1.4 3.6q.1 2.15-.9 5.05l-.15.2h-.05l-1.3.5q1.5-4.6.2-7.65-2.65-1.9-5.55-.5" fill="#dacaa5" fill-rule="evenodd" transform="translate(14.8 21.75)"/><path d="m16.85 26.75 1.3-.5h.05l.15-.2q1-2.9.9-5.05-.15-2.3-1.4-3.6t-3.25-1.15q-1.95.1-2.5 1.2l-.6 1.15m5.35 8.15h-.25l-4.5-1.85q-.65-.8-.75-1.95l-.2-1.55q-.15-1.6.35-2.8m6.65 7.65.2-.2" fill="none" stroke="#000" stroke-linecap="round" stroke-linejoin="round" stroke-opacity=".302" stroke-width=".5"/><path d="m10.4 4.85-3.5 1.2.1.3-1.5.75L7.75 9l.3 1.1-4.6-2.55q-.7-2.25-.6-3.65l7.55.95" fill="#a79d69" fill-rule="evenodd" transform="translate(14.8 21.75)"/><path d="m10.8 4.7-.4.15-7.55-.95q.1-.95.45-1.8L8.4-.85 7.2 2.9l3.6 1.8M7 6.35 7.75 9 5.5 7.1 7 6.35" fill="#d7cb9f" fill-rule="evenodd" transform="translate(14.8 21.75)"/><path d="m25.6 26.45-.4.15-3.5 1.2m1.15 4.05-4.6-2.55m-.15-5.45 5.1-2.95-1.2 3.75" fill="none" stroke="#000" stroke-linecap="round" stroke-linejoin="round" stroke-opacity=".333" stroke-width=".5"/><path d="M-.85 3.55-.6 5.3Q-3.05 4.85-4.75 4L-7.2 2.8-4.75 4q1.7.85 4.15 1.3l.2 1.45q-4-1.05-6.3-2.3L-7 4.3l-.2-1.5-.35-1.9Q-4.9 2.7-2.2 3.25l1.35.3" fill="#f6f3ed" fill-rule="evenodd" transform="translate(14.8 21.75)"/><path d="m-.6 5.3-.25-1.75q1.65.45 2.1.9.4.4.4 1.25L-.6 5.3l2.25.4q.5.9-.45 1.4l-1.6-.35-.2-1.45M-7.55.9l.35 1.9-1.2-.75 1.2.75.2 1.5-.05-.05-.5-.35-.15-.1-.2-.15-.05-.05-.45-1.55q-.1-.85.3-1.6l.55.45" fill="#d6d0a0" fill-rule="evenodd" transform="translate(14.8 21.75)"/><path d="M-8.1.45q-.4.75-.3 1.6l.45 1.55v.05l-1.35-.9q-.4-.8-.3-1.9Q-8.55-.7-8.1.45" fill="#bd8839" fill-rule="evenodd" transform="translate(14.8 21.75)"/><path d="M-8.65-1.45q4.8 2.7 11.1 4.3 3.2 4.6-.7 5.95-3.1-.3-7.55-2.3t-4.9-4.55q-.4-2.6.9-3.7l1.15.3M1.65 5.7q0-.85-.4-1.25Q.8 4-.85 3.55l-1.35-.3Q-4.9 2.7-7.55.9L-8.1.45q-.45-1.15-1.5.4-.1 1.1.3 1.9l1.35.9V3.6l.05.05.2.15.15.1.5.35.05.05.3.15q2.3 1.25 6.3 2.3l1.6.35q.95-.5.45-1.4" fill="#e1a66a" fill-rule="evenodd" transform="translate(14.8 21.75)"/><path d="M1.65 5.7q0-.85-.4-1.25Q.8 4-.85 3.55l-1.35-.3Q-4.9 2.7-7.55.9L-8.1.45M1.2 7.1q.95-.5.45-1.4" fill="none" stroke="#000" stroke-linecap="round" stroke-linejoin="round" stroke-opacity=".212" transform="translate(14.8 21.75)"/><path d="M6.15 20.3q4.8 2.7 11.1 4.3 3.2 4.6-.7 5.95-3.1-.3-7.55-2.3T4.1 23.7q-.4-2.6.9-3.7l1.15.3" fill="none" stroke="#000" stroke-linecap="round" stroke-linejoin="round" stroke-opacity=".412" stroke-width=".5"/><path d="m14.2 27.05 2.25.4m-8.85-2.9 2.45 1.2q1.7.85 4.15 1.3M6.4 23.8l1.2.75" fill="none" stroke="#000" stroke-linecap="round" stroke-linejoin="round" stroke-opacity=".212" stroke-width=".25"/><path d="M-3.4 2.2q-1.95.1-3.35-.95l1.5-2.6Q-3.75.25-3.4 2.2M-5.75.8V.45.8m.9.55V.9v.45" fill="#e4b978" fill-rule="evenodd" transform="translate(14.8 21.75)"/><path d="M9.95 22.65v.45m-.9-.9v.35" fill="none" stroke="#000" stroke-linecap="round" stroke-linejoin="round" stroke-opacity=".451" stroke-width=".5"/><path d="M9.55 20.4 8.05 23q1.4 1.05 3.35.95" fill="none" stroke="#000" stroke-linecap="round" stroke-linejoin="round" stroke-opacity=".412" stroke-width=".5"/><path d="M13.25 26.25v1m-4.85-3v.9m2.1.1v1.05" fill="none" stroke="#000" stroke-linecap="round" stroke-linejoin="round" stroke-opacity=".6" stroke-width=".25"/><path d="M-6.55-2.7v.8M-.6-.4v.8" fill="none" stroke="#000" stroke-linecap="round" stroke-linejoin="round" stroke-opacity=".922" transform="translate(14.8 21.75)"/></g><use width="4.3" height="4.15" xlink:href="#f" id="a"/><use width="3.7" height="4.65" xlink:href="#g" id="b"/><use width="7.3" height="10.7" xlink:href="#h" id="c"/><use width="4.3" height="4.15" xlink:href="#i" id="d"/></defs></svg>