<svg viewBox="0 0 25.446 32.306" xmlns="http://www.w3.org/2000/svg" xmlns:xlink="http://www.w3.org/1999/xlink"><g transform="translate(-3.646 -4.205)"><use transform="matrix(-1.6028 0 0 1.7809 23.022 26.199)" width="9.15" height="4.35" xlink:href="#a"/><use transform="translate(3.706 20.16) scale(2.4234)" width="3.35" height="3.35" xlink:href="#b"/><use transform="matrix(.3149 -.8179 1.1336 -.2973 8.19 37.94)" width="8.95" height="5.3" xlink:href="#c"/><use transform="matrix(-.8531 .1538 .1825 1.0121 28.222 24.529)" width="8.95" height="5.3" xlink:href="#c"/><use transform="matrix(-2.4234 0 0 2.4234 26.73 4.266)" width="7.65" height="11.45" xlink:href="#d"/></g><defs><path d="M3.4-1.7q1.35.5 1.4 1.4 0 .85-1.3 1.6t-3.2.95L-3 1.9Q-4.35 1.4-4.35.55q-.05-.9 1.3-1.6Q-1.75-1.8.15-2l3.25.3" fill="#382c16" fill-rule="evenodd" transform="translate(4.35 2.05)" id="e"/><path d="M.15-1.85q1.45-.7 2.4.9T.8 1.6L-3.55 3l-2.4.05Q-6.75 2.6-4 .7-1.3-1.2.15-1.85" fill-rule="evenodd" transform="translate(6.15 2.05)" id="c"/><g id="b"><path d="M-2.05 1.2q0-.65-.5-1.1-.4-.45-1.1-.45-.65 0-1.1.45-.4.4-.45 1l.35.3 1.25.35 1.25-.35.3-.2" fill="#fffdf9" fill-rule="evenodd" transform="translate(5.3 .45)"/><path d="m-2.05 1.2-.3.2-1.25.35-1.25-.35-.35-.3v.15l.45 1.1q.45.45 1.1.45.7 0 1.1-.45.5-.5.5-1.1V1.2" fill="#c2bda3" fill-rule="evenodd" transform="translate(5.3 .45)"/><path d="M.1 1.55q.05-.6.45-1Q1 .1 1.65.1q.7 0 1.1.45.5.45.5 1.1M.1 1.55v.15l.45 1.1q.45.45 1.1.45.7 0 1.1-.45.5-.5.5-1.1v-.05" fill="none" stroke="#867b59" stroke-linecap="round" stroke-linejoin="round" stroke-width=".25"/></g><g id="d"><path d="M-3.75 1.7Q-3.5-.6-2.7-2.4l1.4-2.75.6-.5-.2 3.1q1.15.3 1.85.9.9-1.65 2-2.75v6.15L1.8 4.15H.6q-2.3 0-3-.8L-3.75 1.7M.7 2.85h.05H.7l-1-.3.45 1.15.55-.85M-.35 1.1-.3.5l-.05.6m-1.4.9-1-.35.5 1.3.5-.95M-1.8.55l.1-.65-.1.65" fill="#8e6140" fill-rule="evenodd" transform="translate(3.85 5.75)"/><path d="m2.95-4.4.5 2.8.25 5q.1.85-.65 1.5l-.9.7-2.1-.15-2.85-1.2q-.75-.3-.95-2.55l1.35 1.65q.7.8 3 .8h1.2l1.15-2.4V-4.4" fill="#583827" fill-rule="evenodd" transform="translate(3.85 5.75)"/><path d="m.7 2.85-.55.85-.45-1.15 1 .3M-1.75 2l-.5.95-.5-1.3 1 .35" fill="#e6dbb7" fill-rule="evenodd" transform="translate(3.85 5.75)"/><path d="M.7 2.85h.05H.7" fill="#e3d6bf" fill-rule="evenodd" transform="translate(3.85 5.75)"/><path d="m6.8 1.35.5 2.8.25 5q.1.85-.65 1.5l-.9.7-2.1-.15L1.05 10Q.3 9.7.1 7.45M3.15.1l-.2 3.1q1.15.3 1.85.9" fill="none" stroke="#3e241c" stroke-linecap="round" stroke-linejoin="round" stroke-width=".25"/><path d="m3.55 6.25-.05.6m-1.35-1.2-.1.65" fill="none" stroke="#000" stroke-linecap="round" stroke-linejoin="round" stroke-width=".25"/></g><use width="9.15" height="4.35" xlink:href="#e" id="a"/></defs></svg>