<svg viewBox="0 0 210.65 241.3" xmlns="http://www.w3.org/2000/svg" xmlns:xlink="http://www.w3.org/1999/xlink"><use transform="translate(.03 .025)" width="210.6" height="241.25" xlink:href="#a"/><defs><g id="a"><path d="m160.05 133.15-16.9-27.8 3.85-2.3-5.7-.75-7.95-13.15 47.15 9.9-12.85 4.25 3.65 6-5.35-1.45-.9 10.4v.15l14.4 4.2 11.75 19.05-2.75 2.4 4.4.45 11.05 17.9-5.95-2.65-4.9 7.8 2.15 3.1q5.15-2.85 10.3-5.6l2.05 3.25 14.05-1.35-8.2 8.7 6.15 11.6-1.85 5.6 3.35 2.7 2-1.5 4.1 7.9 20.15-7.25-34.1 26.15-44.95-74.25 11.4-11.4-19.6-2.05m82.9-49.5q4.15-3.65 8.35-7.2l5.6 9.55-2 1.45 3.3.8 30.25 51.45-4.6 7.1 8.7-.2L308 172.85l-26.7 6 13.55-8.85-4.55-7.05.95-.05 2.8-5.05-9.5-5.3-.6.6-14.75-22.4 4.2 2 4.95-3.45-2.95-4.65-6.6-1.85-1.6 4.85-4.2-6.3-9 .2 5.35-7.9-5.6-10.2 1.25-.9 8 6.1-2.95-10.3-7.9-3.7-1.6 2.9-7.6-13.9" fill="#fff" fill-rule="evenodd" transform="translate(-133.35 -76.45)"/><path d="m179.45 122.6-14.4-4.2v-.15l.9-10.4 5.35 1.45 8.15 13.3m71.1-25.05 1.6-2.9 7.9 3.7 2.95 10.3-8-6.1-1.25.9-3.2-5.9m16.65 30.1 1.6-4.85 6.6 1.85 2.95 4.65-4.95 3.45-4.2-2-2-3.1m16.75 25.5.6-.6 9.5 5.3-2.8 5.05-.95.05-6.35-9.8m-91.1-8.65-4.4-.45 2.75-2.4 1.65 2.85m12.65 20.55q-5.15 2.75-10.3 5.6l-2.15-3.1 4.9-7.8 5.95 2.65 1.6 2.65m17.55 29-2 1.5-3.35-2.7 1.85-5.6 3.5 6.8" fill="#e7e7de" fill-rule="evenodd" transform="translate(-133.35 -76.45)"/><path d="m180.5 99.05 27.75 5.8 49.2 81.95-10.15 7.9-20.15 7.25-4.1-7.9 5.75-4.3-8.9-3.8-.35 1.3-6.15-11.6 8.2-8.7-14.05 1.35-2.05-3.25 1.8-1.05-3.4-1.6-11.05-17.9 12.9 1.25 1.1-2.75-10.6-5.8-5.05 4.45-11.75-19.05 5.85 1.6 7.05-5.4-10.5-12.2-3.35 4.65-7.2-1.95-3.65-6 12.85-4.25m42.8 1.55 19.65-16.95 7.6 13.9-2.05 3.7 3.75 3.3 1.5-1.1 5.6 10.2-5.35 7.9 9-.2 4.2 6.3-.6 1.85 2.6 1.25 14.75 22.4-6.85 6.7 5 4.85h.1l2.65-1.6 5.45-.15 4.55 7.05-13.55 8.85-1.3.3-3.35.8-53.35-79.35m-13.6 2.3 2.15-.4 5.95 1.8 46.65 81.2-4.3 2.05-50.45-84.65m44.85 25.15 2.35 2.85 3.5-3.45-1.8-1.75-4.05 2.35m7.35 15.5 3.1 3.5 7.45-2.45-4.9-5.7-5.65 4.65m-45.45-9.8-.15-3.65-2.5-.95 1.3 4.1 1.35.5m19.8 46.2-4.2 1.85.65 1.45 5.2.9-1.65-4.2m22.15 8.45 1.05-.55.35-.1.35-.2.15.2 8.5.5 2.75 5.25-7.25 3.65-5.9-8.75" fill="#adbac6" fill-rule="evenodd" transform="translate(-133.35 -76.45)"/><path d="m210.85 95.95 5.6-.8 1.35 2.1-2.15.35-3.55.55-1.25-2.2m6 3.7 2.1-.4 1.1 1.8.95 1.6 2.3-2.05 53.35 79.35-8.85 2 1 1.55 1.75-.9 5.15 8.75-1.8.85-2.35 1.3-2.75-5.25-8.5-.5-.15-.2 4.3-2.05-46.65-81.2-5.95-1.8 3.55-.6-1.25-1.8 2.7-.45m-45.55 9.65 7.2 1.95 3.35-4.65 10.5 12.2-7.05 5.4-5.85-1.6-8.15-13.3m19.9 32.35 5.05-4.45 10.6 5.8-1.1 2.75-12.9-1.25-1.65-2.85m12.7 20.75 3.4 1.6-1.8 1.05-1.6-2.65m15.65 24.85.35-1.3 8.9 3.8-5.75 4.3-3.5-6.8m34.2-83.8-1.5 1.1-3.75-3.3 2.05-3.7 3.2 5.9m-38.35-1.55 4.65-.85-4.65.85m46.5 41.65 5.65-4.65 4.9 5.7-7.45 2.45-3.1-3.5m-7.35-15.5 4.05-2.35 1.8 1.75-3.5 3.45-2.35-2.85m14.65 2.7-2.6-1.25.6-1.85 2 3.1m21.1 32.2-5.45.15-2.65 1.6h-.1l-5-4.85 6.85-6.7 6.35 9.8m-73.85-29.2-1.35-.5-1.3-4.1 2.5.95.15 3.65m19.8 46.2 1.65 4.2-5.2-.9-.65-1.45 4.2-1.85m28.2 5.55q2.15-1.05 4.35-2-2.2.95-4.35 2m3.35-3.55-46.8-79.3 46.8 79.3" fill="#94a5b4" fill-rule="evenodd" transform="translate(-133.35 -76.45)"/><path d="m208.25 104.85-1-1.55-1.1-1.9 2.25-.3 5.75-1 1.25 1.8-3.55.6-2.15.4 50.45 84.65-.35.2-.35.1-1.05.55 5.9 8.75-.55.3-1.95 1.05-5.35-9.1q.95-.55 1.95-1l-.6-1.05-.35-.55-49.2-81.95m-1.1-5.9-2.2.4-1.35-2.3 7.25-1.1 1.25 2.2-4.95.8m.1 4.35 2.45-.4-2.45.4" fill="#cdd5dc" fill-rule="evenodd" transform="translate(-133.35 -76.45)"/><path d="m208.4 101.1-1.25-2.15 4.95-.8 3.55-.55 1.2 2.05-2.7.45-5.75 1" fill="#677e94" fill-rule="evenodd" transform="translate(-133.35 -76.45)"/><path d="m273.9 192.2 25.35 42.65 3.75-2.75 3.65 6.15 6.3 10.55.6.95 4.25 7.3 5.15 8.65 2.75 4.55 6.45 10.8 3.55 6 2.2 3.8.15.2-1.2 7.05 4.95-.65 2.15 3.45-1.75 4.15-2.05-3.9-6.6 1.3 1.2-8.1.35-.35-2.5-4-3.55-5.65-6.1-9.65-3.25-5.15-5.45-8.6-4.2-6.65-1.65-2.65-6-9.6-4.15-6.5-1.15.85-22.95-36.4-8.15 1.2-2.25-3.75.55-.3 7.25-3.65 2.35-1.3m25.35 42.65-1 .7 1-.7m7.4 3.4-4.25 3.8 4.25-3.8m6.3 10.55-4.55 2.85 4.55-2.85m.6.95-3.5 4.55 3.5-4.55m4.25 7.3-3.55 3.9 3.55-3.9m5.15 8.65-3.25 3.85 3.25-3.85m2.75 4.55q-1.45 2.25-2.75 4.45 1.3-2.2 2.75-4.45m10 16.8-3.1 2.95 3.1-2.95m2.2 3.8-2.8 3.15 2.8-3.15m-5.75-9.8-3.1 3.3 3.1-3.3" fill="#332c20" fill-rule="evenodd" transform="translate(-133.35 -76.45)"/><path d="M342.2 305.05q-1.7 3.5-3.9 6.15-1.9 2.2-4.15 3.9l-.35-.45-2.25-3.55-2.75 2 2.3 3.9-1.45.7-2.1-3.55 1.2-6.75-5.35-.2-.1-.2-3.15-5.25-2.8-4.55-4.15-7.15-4.65-7.7-5.55-9.2-3.25-5.45-4.75-7.95-4.35-7.4-4.7-7.85 2.1-1.5 4.55 7.6-1.95 1.75 1.95-1.75 4.75 7.75 4.15 7.05 3.45 5.65-1.95 2.1 1.95-2.1 5.45 9.1-1.85 2.2 1.85-2.2 4.4 7.35 4.6 7.45 2.85 4.85 2.45 4 3.05-1.85-2.8-4.7-3.05-5-4.9-8.15-4.15-6.7-5.4-9.05-3.6-6-3.6-5.85-4.9-8.2-4.5-7.3-.75.5-24.1-40.3 8.15-1.2 22.95 36.4 1.15-.85 4.15 6.5-7.05 6.25 7.05-6.25 6 9.6q-4.1 2.4-8.15 4.85 4.05-2.45 8.15-4.85l1.65 2.65-6.2 8.05 6.2-8.05 4.2 6.65-6.8 7.4 6.8-7.4 5.45 8.6-6.85 7.85 6.85-7.85 3.25 5.15-5.95 9.4 5.95-9.4 6.1 9.65 3.55 5.65-7.65 7.25 7.65-7.25 2.5 4-.35.35-1.2 8.1 6.6-1.3 2.05 3.9M290.85 241l6.25-4.6-6.25 4.6m6.5 17.35q-1.2.65-2.35 1.4 1.15-.75 2.35-1.4m31.7 26-7.15 7.9 7.15-7.9m-9.65 10.6-2.05 2.25 2.05-2.25m-4.6-7.45-1.6 2.55 1.6-2.55m5.35 14.25 2.1-1.95-2.1 1.95m14.6-7.4L323.3 307l11.45-12.65M301.5 265.4l-1.75 2.3 1.75-2.3" fill="#5a4e39" fill-rule="evenodd" transform="translate(-133.35 -76.45)"/><path d="M334.15 315.1q-1.45 1.1-3.05 1.9l-2.3-3.9 2.75-2 2.25 3.55.35.45m-46.1-72.1 2.05-1.5.75-.5 4.5 7.3-2.75 2.3 2.75-2.3 4.9 8.2-2.9 1.85 2.9-1.85 3.6 5.85-2.35 3.05 2.35-3.05 3.6 6-2.5 2.7 2.5-2.7 5.4 9.05-2.45 2.75 2.45-2.75 4.15 6.7-2.2 3.4 2.2-3.4 4.9 8.15-2.5 2.7 2.5-2.7 3.05 5-2.7 2.55 2.7-2.55 2.8 4.7-3.05 1.85-2.45-4-2.85-4.85-4.6-7.45-4.4-7.35-5.45-9.1-3.45-5.65-4.15-7.05-4.75-7.75-4.55-7.6" fill="#9e8965" fill-rule="evenodd" transform="translate(-133.35 -76.45)"/><path d="M26.7 56.7 9.8 28.9l3.85-2.3-5.7-.75L0 12.7l47.15 9.9 27.75 5.8-1-1.55-1.1-1.9m2.25-.3L73.8 22.5m-2.2.4-1.35-2.3m12.85-1.9 1.35 2.1m-2.15.35 1.2 2.05m2.1-.4 1.1 1.8.95 1.6 2.3-2.05L109.6 7.2q4.15-3.65 8.35-7.2l5.6 9.55-2 1.45 3.3.8 30.25 51.45-4.6 7.1 8.7-.2 15.45 26.25-26.7 6m-1.3.3-3.35.8-8.85 2 1 1.55 1.75-.9 5.15 8.75-1.8.85 25.35 42.65 3.75-2.75 3.65 6.15 6.3 10.55.6.95 4.25 7.3 5.15 8.65 2.75 4.55 6.45 10.8 3.55 6 2.2 3.8.15.2m3.75 6.4 2.15 3.45-1.75 4.15q-1.7 3.5-3.9 6.15-1.9 2.2-4.15 3.9-1.45 1.1-3.05 1.9l-1.45.7-2.1-3.55m-4.15-6.95-.1-.2-3.15-5.25-2.8-4.55-4.15-7.15-4.65-7.7-5.55-9.2-3.25-5.45-4.75-7.95-4.35-7.4-4.7-7.85 2.1-1.5 2.05-1.5-24.1-40.3-2.25-3.75-1.95 1.05-5.35-9.1q.95-.55 1.95-1m-.6-1.05-.35-.55-10.15 7.9-34.1 26.15L34.9 70.15m41.45-43.7-2.45.4m4.6-.8-2.15.4m50.45 84.65 4.3-2.05m-52.6-83 3.55-.6m4.65-.85-4.65.85m53.4 81.6q-2.2.95-4.35 2m-5 2.35-1.05.55m5.9 8.75 7.25-3.65m-11.4-5.95-.35.2m4.5 9.4-.55.3m10.15-5.25-2.35 1.3m25.55 42.9 1.15-.85 1-.7m-8.4 6.15-.75.5m7-5.1-6.25 4.6M87.65 26.2l46.8 79.3M74.9 28.4l49.2 81.95" fill="none" stroke="#000" stroke-linecap="round" stroke-linejoin="round" stroke-opacity=".302" stroke-width=".05"/><path d="m72.8 24.95 2.25-.3M73.8 22.5l-2.2.4m-1.35-2.3 7.25-1.1 5.6-.8m1.35 2.1-2.15.35m1.2 2.05 2.1-.4m62.35 79.6-1.3.3m58.05 111.9-1.2 7.05 4.95-.65m-14.25 16.7 1.2-6.75-5.35-.2M34.9 70.15l11.4-11.4-19.6-2.05m54.1-33.05 2.7-.45m-4.75-1.5 3.55-.55m-1.5 2.5-5.75 1M73.8 22.5l4.95-.8M162 171.85l7.05-6.25 4.25-3.8m-16 14.1 1.95-1.75 2.75-2.3m4.9 8.2q4.05-2.45 8.15-4.85l4.55-2.85M164 181.9l2.9-1.85m3.6 5.85 6.2-8.05 3.5-4.55m-12.05 15.65 2.35-3.05m3.6 6 6.8-7.4 3.55-3.9m-12.85 14 2.5-2.7m5.4 9.05 6.85-7.85 3.25-3.85m-27.95-5.95q1.15-.75 2.35-1.4m5.65 14.8 1.95-2.1m5.45 9.1 2.45-2.75m4.15 6.7 5.95-9.4q1.3-2.2 2.75-4.45m-17.15 12.1 1.85-2.2m4.4 7.35 2.2-3.4m4.9 8.15 7.15-7.9 3.1-3.3m.45 8.95 3.1-2.95m-16.3 7.9 2.5-2.7m3.05 5 7.65-7.25m2.5 4 2.8-3.15m-15.65 8.95 2.7-2.55m-2.7 2.55-2.1 1.95m-6.95-11.7 1.6-2.55m2.55 9.7 2.05-2.25m15.55-.8.15-.15m-11.8 13 11.45-12.65m-35-26.65 1.75-2.3" fill="none" stroke="#000" stroke-linecap="round" stroke-linejoin="round" stroke-opacity=".302" stroke-width=".05"/></g></defs></svg>