<svg viewBox="0 0 238.71 345.95" xmlns="http://www.w3.org/2000/svg" xmlns:xlink="http://www.w3.org/1999/xlink"><use transform="translate(.03 .025)" width="238.65" height="345.9" xlink:href="#a"/><defs><g id="a"><path d="M205.55 198.1q-12.25 3.9-25.75 6.95-10.65-17-18.9-33.3-25.7-49.8-30.3-90.3L145.9 76l-16.3-10q-.65-58.25 46.2-80.95 8-3.85 17.35-6.65 1.25 8.05 3.1 16.4-20.9 4.05-28.05 39.75l19.2 13.6-25.65-1.25q-1.15 5.95-1.6 12.25l-7.4 4.85 7 8.15.1 3.65q1.45 46.05 29.4 96.2l-7.7 6.6 7.4 10.85q4.05-2.25 8.1-4.4 3.95 6.5 8.5 13.05" fill="#fff" fill-rule="evenodd" transform="translate(-129.6 21.6)"/><path d="M205.55 198.1q-4.55-6.55-8.5-13.05 5.75-3.25 11.55-6.4l-11.5-13.3-7.85 6.65q-27.95-50.15-29.4-96.2l-.1-3.65 2.9 3.5 13.9-1 4.55 8 14.35 2.45.3-15.85-30-13.85-5.6 3.75q.45-6.3 1.6-12.25l25.65 1.25-19.2-13.6q7.15-35.7 28.05-39.75Q206.95 42.7 236 96.15l.65 1.3 16.1 29.4.1.05 18.9 38q-26.95 20.75-66.2 33.2m59.1-107.65 2.4-.55 10 7.35 16.25 16.4-6.75 2.25-21.9-25.45M199.8 38.7l-9.85-7.6-6.15 6.15 11.1 11.85 4.9-10.4m8.3 18.95-5.4 5.1 2.2 7.5-.15 2.35 5.35 2.3 6.1-6.05-8.1-11.2m21 113.35 12.3 4.8 11.4-9.9-7.3-6.15L229.1 171m-39.75-66.25-4.7 2.3 2.65 8.75 7.75 2.35 4.8-5.1-10.5-8.3" fill="#adbac6" fill-rule="evenodd" transform="translate(-129.6 21.6)"/><path d="M159.75 72.15q-.15-6.6.4-13l5.6-3.75 30 13.85-.3 15.85-14.35-2.45-4.55-8-13.9 1-2.9-3.5M199.8 38.7l-4.9 10.4-11.1-11.85 6.15-6.15 9.85 7.6m8.3 18.95 8.1 11.2-6.1 6.05-5.35-2.3.15-2.35-2.2-7.5 5.4-5.1m-18.75 47.1 10.5 8.3-4.8 5.1-7.75-2.35-2.65-8.75 4.7-2.3M229.1 171l16.4-11.25 7.3 6.15-11.4 9.9-12.3-4.8m-32.05 14.05q-4.15-6.5-7.8-13.05l7.85-6.65 11.5 13.3q-5.8 3.15-11.55 6.4" fill="#94a5b4" fill-rule="evenodd" transform="translate(-129.6 21.6)"/><path d="M197.05 185.05q-4.05 2.15-8.1 4.4l-7.4-10.85 7.7-6.6q3.65 6.55 7.8 13.05m-37.3-112.9-7-8.15 7.4-4.85q-.55 6.4-.4 13" fill="#e7e7de" fill-rule="evenodd" transform="translate(-129.6 21.6)"/><path d="m242.65 95.9-7.1-14.2q1.5-8.8 6.45-9.15-1.45 4.6-1.25 11.8l72.1 146.75-.05 3.05-1.1.8-54.45-109.55-14.6-29.5M351.8 315.65l-4.35 4.3-4.6-9.05 6.3-6.75 5.3 8.8-2.65 2.7M338.5 302l-5.05-10.15 6.75-3.8 4.5 8.15-6.2 5.8m-7.7-15.55-5-9.95 5.45-4.65 5.05 9.15-5.5 5.45m-11.05-22.2-2.55-5 5.25-3.45 3.75 6.85-6.45 1.6m-6-12-3.7-7.3 4.35-3.65 4.1 7.4-4.75 3.55" fill="#897656" fill-rule="evenodd" transform="translate(-129.6 21.6)"/><path d="M242 72.55q2.25-.2 5.55 1.55l75.6 153.1 2.5-1.6 4.4-2.95 6.25 12.55 4.2 8.6 6.8 13.7.1.2 4.05 8.2 2.15 4.45 3.85 7.75 1.95 4 3.6 7.25 4.95 10.1-3.85 3.95-9.65 9.55-5.3-8.8-6.3 6.75-4.35-8.9 6.2-5.8-4.5-8.15-6.75 3.8h-.05l-2.6-5.4 5.5-5.45-5.05-9.15-5.45 4.65-6.05-12.25 6.45-1.6-3.75-6.85-5.25 3.45-3.45-7 4.75-3.55-4.1-7.4-4.35 3.65-3.3-6.75 4.95-3.25 1.1-.8.05-3.05-72.1-146.75q-.2-7.2 1.25-11.8m125.65 238 .6 1.2-12.2 12.55-3.75-7.6 15.35-6.15M259.6 113.4q-1 .3-1.3 1.1-.35.75.1 1.7.4.85 1.45 1.25.85.5 1.8.25.9-.35 1.2-1.15.35-.8-.1-1.65-.45-.95-1.35-1.35l-1.8-.15m-8.05-16.25q-1 .25-1.3 1.05-.4.75.05 1.7.45.85 1.5 1.35l1.8.2q.9-.2 1.3-1.05.25-.85-.15-1.65-.4-.9-1.3-1.35-1.05-.5-1.9-.25m71.6 130.05-10.35 6.95 10.35-6.95m8.3-.4-17.05 14.5 17.05-14.5m15.85 30.7-21.1 5.15 21.1-5.15m-6.8-13.7-18.05 12 18.05-12m6.9 13.9-16.15 14.15 16.15-14.15m-14 34.15h.05-.05m20.2-21.5-20.15 21.5 20.15-21.5m-17.3-35.15-17.8 13.5 17.8-13.5m23.1 46.9-14.7 14.1 14.7-14.1m-19.2 5.95 17.25-9.95-17.25 9.95m11.25-22.15L336.3 281l15.15-15.1M363 289.35l-13.85 14.8 13.85-14.8" fill="#5a4e39" fill-rule="evenodd" transform="translate(-129.6 21.6)"/><path d="m236.65 97.45 6-1.55 14.6 29.5-4.4 1.5-.1-.05-16.1-29.4m22.9-5.65 5.1-1.35 21.9 25.45-13 4.25-14-28.35m-8 5.35q.85-.25 1.9.25.9.45 1.3 1.35.4.8.15 1.65-.4.85-1.3 1.05l-1.8-.2q-1.05-.5-1.5-1.35-.45-.95-.05-1.7.3-.8 1.3-1.05m8.05 16.25 1.8.15q.9.4 1.35 1.35.45.85.1 1.65-.3.8-1.2 1.15-.95.25-1.8-.25-1.05-.4-1.45-1.25-.45-.95-.1-1.7.3-.8 1.3-1.1" fill="#677d92" fill-rule="evenodd" transform="translate(-129.6 21.6)"/><path d="m277.05 97.25 20.55 15.05-4.3 1.35-16.25-16.4" fill="#ccd3db" fill-rule="evenodd" transform="translate(-129.6 21.6)"/><path d="M247.55 74.1q2.35 1.45 5.25 4l6.75 13.7 14 28.35 52.1 105.45-2.5 1.6-75.6-153.1M364.1 303.4l3.55 7.15-15.35 6.15-.5-1.05 2.65-2.7 9.65-9.55" fill="#3f3627" fill-rule="evenodd" transform="translate(-129.6 21.6)"/><path d="M66.65 16.4Q64.8 8.05 63.55 0 54.2 2.8 46.2 6.65-.65 29.35 0 87.6l16.3 10L1 103.05q4.6 40.5 30.3 90.3 8.25 16.3 18.9 33.3 13.5-3.05 25.75-6.95m-9.3-203.3q10.7 47.9 39.75 101.35m.65 1.3 6-1.55-7.1-14.2q1.5-8.8 6.45-9.15 2.25-.2 5.55 1.55 2.35 1.45 5.25 4l6.75 13.7 5.1-1.35 2.4-.55 10 7.35L168 133.9l-4.3 1.35-6.75 2.25-13 4.25 52.1 105.45 4.4-2.95 6.25 12.55 4.2 8.6 6.8 13.7.1.2 4.05 8.2 2.15 4.45 3.85 7.75 1.95 4 3.6 7.25 4.95 10.1-3.85 3.95 3.55 7.15.6 1.2-12.2 12.55-3.75-7.6-.5-1.05-4.35 4.3-4.6-9.05-4.35-8.9-5.05-10.15h-.05l-2.6-5.4-5-9.95-6.05-12.25-2.55-5-3.45-7-3.7-7.3-3.3-6.75 4.95-3.25L127.65 147l-4.4 1.5 18.9 38 .65-.25m-20.85-67.5q.85-.25 1.9.25.9.45 1.3 1.35.4.8.15 1.65-.4.85-1.3 1.05l-1.8-.2q-1.05-.5-1.5-1.35-.45-.95-.05-1.7.3-.8 1.3-1.05M130 135l1.8.15q.9.4 1.35 1.35.45.85.1 1.65-.3.8-1.2 1.15-.95.25-1.8-.25-1.05-.4-1.45-1.25-.45-.95-.1-1.7.3-.8 1.3-1.1m-2.35 12-14.6-29.5m16.9-4.1 14 28.35m-1.8 44.75q-26.95 20.75-66.2 33.2m117.6 29.1 2.5-1.6m-13.95 9.35 1.1-.8 10.35-6.95m-13.1 17.75 4.35-3.65 17.05-14.5m-17.7 25.45 4.75-3.55 17.8-13.5m-10.1 27.45 21.1-5.15m-21.1 5.15-6.45 1.6m-2.55-5 5.25-3.45 18.05-12m-14.7 32.7 5.45-4.65 16.15-14.15m-16.6 28.75 5.5-5.45 15.15-15.1m-18 25.95h-.05m5.1 10.15 6.2-5.8 14.7-14.1m-19.2 5.95-6.75 3.8 20.15-21.5m-10.75 40.55 6.3-6.75 13.85-14.8m-5.55-11.25-17.25 9.95m11.6 27.6 2.65-2.7 9.65-9.55" fill="none" stroke="#000" stroke-linecap="round" stroke-linejoin="round" stroke-opacity=".251" stroke-width=".05"/></g></defs></svg>