<svg viewBox="0 0 278.1 279" xmlns="http://www.w3.org/2000/svg" xmlns:xlink="http://www.w3.org/1999/xlink"><use transform="translate(.025 .025)" width="278.05" height="278.95" xlink:href="#a"/><defs><g id="a"><path d="M260.8 42.4q8.2-11.15 14.25-23.9 5.85 17.2 10.4 34.85l-11.55 9L288.05 64q12.85 56.7 11.75 120.5l-.3.05q-4.85-21.8-17.3-40.4l-1.45-2.1q2.35-16.05 1.25-31.6l3.45 2.2V100.2L280.7 98l-.65-4.35Q275.2 67.7 260.8 42.4m-144.55 98.7 4.5 3.7q1.5 1.25 3.1 2.35l5.7 4.45q4.95 3.55 10.05 6.75l-1.75 6.4 10.95-.9q15.3 8.6 30.9 13.25l-2 4.05 10.4 3.2 3.65-4.25q8.45 1.75 16.95 2.3 3.1 6.1 9.1 13.15 15.2 18.3 35.8 28.4l-.05.35q-27.65-5.25-54.4-13.4l-6.65-21.45-8.95 16.4Q124.4 185.7 71.1 151.65q23.8-3.45 45.15-10.55m12.9 10.9-5.8-4.55-9.95 5.85 9.85 5.6 5.9-6.9" fill="#fff" fill-rule="evenodd" transform="translate(-71.1 -18.5)"/><path d="M282 110.45q1.1 15.55-1.25 31.6-11.85-16.7-21.55-17.05-11-.4-14 11.6l-19.35-25.95q16.2-11.35 31.05-10.2l.05-16.6-31.25 26.55-17.15-22.9q32.55-18.25 52.25-45.1 14.4 25.3 19.25 51.25l.65 4.35-2.05-.95-3.5 8.75 6.85 4.65M268.6 72.6l-14.65-7.1-6.1 11.85 18.35 7.9 2.4-12.65m-100.05.25-1.6-2.25 10.25-6.45 1.65 2.15-10.3 6.55m20.6 27.4 6.9-.8 41.3 55.15 6.25-4.8.05-.05 2.45 2.05-7.9 10.55.45.6-1.65 1.35-3.9 3.05-4.45-6 3.85-3-2-2.65q-21-4.9-25.1 10-2 6.95 3.3 16.7-8.5-.55-16.95-2.3l7.5-8.85-3.35-6.25-12.4 4.2-3.8 7.9q-15.6-4.65-30.9-13.25l7.05-.5-4.95-13.05-8.9-.6-2.4 8.65q-5.1-3.2-10.05-6.75l-5.7-4.45q-1.6-1.1-3.1-2.35l-4.5-3.7q40.45-13.5 72.2-40.65l.2-.15.35-.25.15.2 18 24.1-18-24.1m16.7 24.95 1.3-.85 23.35 31.35-23.35-31.35-1.3.85-44.2 26.4 18.3 4.85q4.75-17.55 25.9-31.25m20.85-38.8 7.2 4.75 2.6-2.15-5.2-6.15-4.6 3.55m-47.95 40.55 4.35-4.05-.4-8.2-10.85 8.3 6.9 3.95M259.8 116l-9.6-6.95-6.45 6.7 1.65 3.2 10.2 1.65 4.2-4.6m8.7-7.1.25-7.4-4.9-.8-2.65 6.25 7.3 1.95m-36 49.45 4.85-3.75-4.85 3.75" fill="#adbac6" fill-rule="evenodd" transform="translate(-71.1 -18.5)"/><path d="m208.55 87.5 17.15 22.9-3.7 3.2 3.85-2.95 19.35 25.95q-1.05 3.75-1.2 8.75l-23-30.9-12.25-16.3-.15-.2-5.6-7.45q2.8-1.55 5.55-3M282 110.45l-6.85-4.65 3.5-8.75 2.05.95q.9 6.1 1.3 12.45M268.6 72.6l-2.4 12.65-18.35-7.9 6.1-11.85 14.65 7.1m-129 85.75 2.4-8.65 8.9.6 4.95 13.05-7.05.5-9.2-5.5m40.1 18.75 3.8-7.9 12.4-4.2 3.35 6.25-7.5 8.85q-6.15-1.2-12.05-3m47-90.7 4.6-3.55 5.2 6.15-2.6 2.15-7.2-4.75m-47.95 40.55-6.9-3.95 10.85-8.3.4 8.2-4.35 4.05M259.8 116l-4.2 4.6-10.2-1.65-1.65-3.2 6.45-6.7 9.6 6.95m8.7-7.1-7.3-1.95 2.65-6.25 4.9.8-.25 7.4m-46.5 4.7-1 .85 1-.85" fill="#94a5b4" fill-rule="evenodd" transform="translate(-71.1 -18.5)"/><path d="m280.7 98 4.75 2.2v12.45l-3.45-2.2q-.4-6.35-1.3-12.45m-151.55 54-5.9 6.9-9.85-5.6 9.95-5.85 5.8 4.55m19.65 11.85-10.95.9 1.75-6.4 9.2 5.5m42.95 16.25-3.65 4.25-10.4-3.2 2-4.05q5.9 1.8 12.05 3" fill="#e7e7de" fill-rule="evenodd" transform="translate(-71.1 -18.5)"/><path d="m185.65 97.35-2.65 1.8-17.95-24.05 3.5-2.25 10.3-6.55.8-.5 14.3 17.55-7.75 13.35.3.1-.6.4-.25.15m72.1 66.25 39.2 52.5-3 2.6-5.65 5.1 5.65-5.1 5.1 6.75-6.3 8 6.3-8 8.9 11.9-6.1 8.35 6.1-8.35 10.65 14.3-6.7 7.45 6.7-7.45 11 14.75 8.65 11.5 8 10.75q-1.15 2.3-2.75 3.9-1.9 1.9-4.3 3.05l-8.5-11.4-8.6-11.5-20.25-27-9.1-12.25-6.1-8.15 1.65-1.5-39.7-53.15q-2.35 1.4-4.75 2.9l-3.7-5 17.6-4.95m71.85 102.8-7.5 6.3 7.5-6.3m8.65 11.5-7.55 6.3 7.55-6.3" fill="#5a4e39" fill-rule="evenodd" transform="translate(-71.1 -18.5)"/><path d="m177.2 64.15 4.15-2.65 1.65 2.2-3.35 2.1-.8.5-1.65-2.15m23.45 23.15 2.35 3.2 5.6 7.45.15.2 12.25 16.3 23 30.9 1.95 2.6-2.3 1.8 2.3-1.8 3.8-2.9 4.35 5.9-3.7 2.85-11.75 9.15-.45-.6 7.9-10.55-2.45-2.05-.05.05-6.25 4.8-41.3-55.15-6.9.8-.15-.2-2.5-3.25 14.15-9.5" fill="#677e94" fill-rule="evenodd" transform="translate(-71.1 -18.5)"/><path d="m183 63.7 3.4-2.25L204 85l-3.35 2.3-14.15 9.5-.3-.1 7.75-13.35-14.3-17.55 3.35-2.1m55.65 99.25 11.75-9.15 7.35 9.8-17.6 4.95-3.15-4.25 1.65-1.35m58.3 53.15 4.5-4.05 3.95 5.5 8.5 11.65 11.15 15.45 11.45 16 8.5 11.6 4.15 5.85q-.65 6.35-2.9 10.55l-8-10.75-8.65-11.5-11-14.75-10.65-14.3 5.95-8.15-5.95 8.15-8.9-11.9-5.1-6.75 3-2.6m8.45 1.45-6.35 7.9 6.35-7.9m19.65 27.1-6.45 7 6.45-7m19.95 27.6-6.75 5.65 6.75-5.65m-8.5-11.6-6.9 5.75 6.9-5.75" fill="#393224" fill-rule="evenodd" transform="translate(-71.1 -18.5)"/><path d="M339.2 295.6q-3.8 1.85-8.9 1.85l-6.1-7.9-8.85-11.35-9.45-12.4-9.7-12.45-9.5-12.4-7.2-9.25 4.7-4.25-40.35-53.9q2.4-1.5 4.75-2.9l39.7 53.15-1.65 1.5 6.1 8.15 9.1 12.25-5.65 7.65 5.65-7.65 10.05 13.4-6 6.7 6-6.7 10.2 13.6 8.6 11.5-6.5 5.35 6.5-5.35 8.5 11.4m-55-68.15q1.15-1.05 2.45-2.15-1.3 1.1-2.45 2.15m8.55 6-6.05 7.5 6.05-7.5m29.35 39.25-6.75 5.5 6.75-5.5" fill="#96825f" fill-rule="evenodd" transform="translate(-71.1 -18.5)"/><path d="M189.7 23.9q8.2-11.15 14.25-23.9 5.85 17.2 10.4 34.85l-11.55 9 14.15 1.65Q229.8 102.2 228.7 166m-.3.05.15.9m-18.9-43.4 1.45 2.1q12.45 18.6 17.3 40.4M189.7 23.9Q170 50.75 137.45 69m17.15 22.9 31.25-26.55-.05 16.6q-14.85-1.15-31.05 10.2m19.35 25.95q3-12 14-11.6 9.7.35 21.55 17.05m-112.2-69.2-1.6-2.25 10.25-6.45 4.15-2.65 1.65 2.2 3.4-2.25 17.6 23.55-3.35 2.3 2.35 3.2q2.8-1.55 5.55-3m-22.9 9.85-2.65 1.8L93.95 56.6l3.5-2.25 10.3-6.55m.8-.5-.8.5m4.15-2.6-3.35 2.1m6.85 31 14.15-9.5m36.7 67.3 6.25-4.8m.05-.05 2.3-1.8-1.95-2.6-23-30.9-12.25-16.3m-.15-.2L131.9 72m-13.85 9.75-.15-.2-.35.25m-.2.15Q85.6 109.1 45.15 122.6 23.8 129.7 0 133.15q53.3 34.05 112.45 54.2l8.95-16.4 6.65 21.45q26.75 8.15 54.4 13.4m-44.85-41.9q-5.3-9.75-3.3-16.7 4.1-14.9 25.1-10l-23.35-31.35-1.3.85q-21.15 13.7-25.9 31.25l-18.3-4.85 44.2-26.4M117.9 81.55l-2.5-3.25-.6.4m67.7 126.75q-20.6-10.1-35.8-28.4-6-7.05-9.1-13.15m12.3-67.95 1-.85 3.7-3.2m-3.7 3.2 3.85-2.95m24.55 43.15 3.7-2.85-4.35-5.9-3.8 2.9m-7.3 15 11.75-9.15 7.35 9.8 39.2 52.5 4.5-4.05 3.95 5.5 8.5 11.65 11.15 15.45 11.45 16 8.5 11.6 4.15 5.85q-.65 6.35-2.9 10.55-1.15 2.3-2.75 3.9-1.9 1.9-4.3 3.05-3.8 1.85-8.9 1.85l-6.1-7.9-8.85-11.35-9.45-12.4-9.7-12.45-9.5-12.4-7.2-9.25 4.7-4.25-40.35-53.9-3.7-5-3.15-4.25-3.9 3.05-4.45-6 3.85-3-2-2.65m6.85-1.1-4.85 3.75m6.15 4.6-1.65 1.35m51.3 59.5 5.65-5.1 3-2.6m-51.75-79.5q-1.05 3.75-1.2 8.75m-36.85-21-18-24.1m97.5 125.05q-1.3 1.1-2.45 2.15m4.1-3.65-1.65 1.5m6.1 8.15 6.3-8 6.35-7.9m2.55 19.8 5.95-8.15m-12.05 16.5 6.1-8.35m-11.75 16 5.65-7.65m10.05 13.4 6.7-7.45 6.45-7m-38.35-3.7 6.05-7.5m13.15 32.35 6-6.7m10.2 13.6 7.5-6.3 6.9-5.75m-82.05-36.3-.85-.4m84.65 53.95 6.75-5.65m-14.3 11.95 7.55-6.3m-22.9.3 6.75-5.5m2.1 16.85 6.5-5.35" fill="none" stroke="#000" stroke-linecap="round" stroke-linejoin="round" stroke-opacity=".302" stroke-width=".05"/></g></defs></svg>