<svg viewBox="0 0 94.23 90.614" xmlns="http://www.w3.org/2000/svg" xmlns:xlink="http://www.w3.org/1999/xlink"><use width="94.25" height="90.6" xlink:href="#a"/><defs><g id="a"><path d="m273.65 201.5 5.25 1.4 12.9-19.6q3.95 3.6 8.85-.1l.6-.5 2.6 13.35-.35.25-.05.3-4.1 2.2-4.05-2.8-.75 5.25-3.4 1-5.3 1.05-6.95-.4-5.2 7.9q-2.65-1.45-5.1-3.35l5.05-5.95m32.15-23q11-11 12.8-23.05 1.25 2.65 1.8 5.4.65 9.1-2.3 16.4-1.95 5.8-5.85 10.7l-.6.9-5.85-10.35m-46 20.35-1.5-1.75.1-.55.3-.1 4.05-6.15 5.1-6.3q5.2-6.5 10.85-11.7l1.7 1.55-20.6 25" fill="#adbac6" fill-rule="evenodd" transform="translate(-227.85 -155.15)"/><path d="m230.05 244.15-.05-.05q-1.85-1.65-1.85-5.05l14.9-17.75.15-.2v-.15l.7-.85-.15-1.3 1.15.1.6-.7-.1-1.6 1.4.05.95-1.1h.1l.5-.55 8.55-10.2.55 4.5.45 3.85.15 1.2-11.1 11.8-8.2 8.7-8.7 9.3m52.3-72.1 1.5-1.85 9 7.15-1.75 2.15-1.3-1.4-2.75-2.3-4.7-3.75m-24.45 41.1-.45.45-1.75-2.5 1.75-1.8-1.75 1.8 1.75 2.5.45-.45m-5.5 1.45 3.3-3.5-3.3 3.5m2.5 1.65 2.55-2.65-2.55 2.65m-10.95 11.5-1.5-2 2.9-3-2.9 3 1.5 2m-4.55 1.1 3.05-3.1-3.05 3.1M230 244.1l7.8-10.1.95.85-.95-.85-7.8 10.1m9.1-11.8-1.3 1.7 1.3-1.7" fill="#bfbb71" fill-rule="evenodd" transform="translate(-227.85 -155.15)"/><path d="M320.4 160.85q2.45 8.6.55 18.05-.3 3.15-1.45 6.2 0 .5-.4 1.1-1.35 4.75-3.85 9.1l-3.6-6.45.6-.9q3.9-4.9 5.85-10.7 2.95-7.3 2.3-16.4m-14.3 46.45-.7.7q-3 3.05-6.6 4.85l-4.25-3.6-.3 4.8q-5.55 1-14.7-.4l.05-.3q-3.05-1-5.9-2.55l5.2-7.9 6.95.4 5.3-1.05 3.4-1 .75-5.25 4.05 2.8 4.1-2.2.05-.3.35-.25 2.25 11.25" fill="#e9ecef" fill-rule="evenodd" transform="translate(-227.85 -155.15)"/><path d="m290.25 181.6 1.55 1.7-12.9 19.6-5.25-1.4 16.6-19.9m-31.75 21.25-1-1.15 2.3-2.85 20.6-25 1.65-2.25.3.45 4.7 3.75-23.25 29.05-3.5.25-1.8-2.25" fill="#798ea2" fill-rule="evenodd" transform="translate(-227.85 -155.15)"/><path d="m301.25 182.7 4.55-4.2 5.85 10.35-1.95 2.25-1.3 1.2q-2 1.9-4.55 3.75l-2.6-13.35" fill="#cdd5dc" fill-rule="evenodd" transform="translate(-227.85 -155.15)"/><path d="M315.25 195.3q-2 3.5-4.7 6.75l-1.3 1.6-.25.3-2.9 3.35-2.25-11.25q2.55-1.85 4.55-3.75l1.3-1.2 1.95-2.25 3.6 6.45" fill="#f9fafb" fill-rule="evenodd" transform="translate(-227.85 -155.15)"/><path d="m264.55 210.85-8.35 9.75-.8.9v.05l-.65.8.05 2.05-1.9.1-.45.5.25.95-1.2.2-.35.4h-.05l-15.95 18.9q-3.35.15-5.1-1.3l8.7-9.3 8.2-8.7 11.1-11.8-.15-1.2-.45-3.85-.55-4.5 1.6-1.95 1.8 2.25 2.4 3.05.45.6 1.4 2.1m-27.65 28.1 2.65-3.35 7.4-9.45-7.4 9.45-2.65 3.35m21-25.8 4.8-5-4.8 5m1-5.45-1.45 1.6 1.45-1.6m-19.35 27.9-.8-.75.8.75" fill="#a29d48" fill-rule="evenodd" transform="translate(-227.85 -155.15)"/><path d="m290.25 181.6-16.6 19.9-5.05 5.95-3.35 4.15-.7-.75-1.4-2.1-.45-.6-2.4-3.05 3.5-.25 23.25-29.05 2.75 2.3 1.3 1.4.55.15-1.4 1.95" fill="#56697c" fill-rule="evenodd" transform="translate(-227.85 -155.15)"/><path d="m62.4 26.45-16.6 19.9m17.45-22 .55.15-1.4 1.95m-7.9-9.55 4.7 3.75 2.75 2.3 1.3 1.4m-35.7 42 .8-.9m12.4-13.15 5.05-5.95m6.75-27.65-20.6 25M20.5 59.85l-.5.55m-4.65 5.55-.15.2" fill="none" stroke="#000" stroke-linecap="round" stroke-linejoin="round" stroke-opacity=".251" stroke-width=".05"/><path d="m15.2 66.15.15-.35m4.55-5.4.6-.55m9.1-5.7-1.75 1.8 1.75 2.5.45-.45M19.1 71l-7.4 9.45-2.65 3.35M29.6 58.45l-2.55 2.65m.8-5.15-3.3 3.5M34.85 53l-4.8 5m-.45-3.85 1.45-1.6M17.5 67.6l-2.9 3 1.5 2m-1.5-2-3.05 3.1m-.65 6 .8.75m-.8-.75-.95-.85-7.8 10.1m7.8-10.1 1.3-1.7" fill="none" stroke="#6e6836" stroke-linecap="round" stroke-linejoin="round" stroke-width=".05"/><path d="m63.95 28.15-1.55-1.7m1.55 1.7q3.95 3.6 8.85-.1l.6-.5 4.55-4.2q11-11 12.8-23.05 1.25 2.65 1.8 5.4 2.45 8.6.55 18.05-.3 3.15-1.45 6.2 0 .5-.4 1.1-1.35 4.75-3.85 9.1-2 3.5-4.7 6.75l-1.3 1.6-.25.3-2.9 3.35-.7.7q-3 3.05-6.6 4.85l-4.25-3.6-.3 4.8q-5.55 1-14.7-.4l.05-.3q-3.05-1-5.9-2.55-2.65-1.45-5.1-3.35l-3.35 4.15-.7-.75-8.35 9.75-.8.95-.65.8.05 2.05-1.9.1-.45.5.25.95-1.2.2-.35.4m-.05 0L7.3 90.3q-3.35.15-5.1-1.3l-.05-.05Q.3 87.3.3 83.9l14.9-17.75m.15-.35.7-.85-.15-1.3 1.15.1.6-.7-.1-1.6 1.4.05.95-1.1m.6-.55 8.55-10.2 1.6-1.95-1-1.15 2.3-2.85-1.5-1.75.1-.55.3-.1 4.05-6.15 5.1-6.3q5.2-6.5 10.85-11.7l1.7 1.55 1.65-2.25.3.45 1.5-1.85 9 7.15-1.75 2.15m-30.8 25.6 2.4 3.05.45.6 1.4 2.1m-4.25-5.75-1.8-2.25" fill="none" stroke="#000" stroke-linecap="round" stroke-linejoin="round" stroke-opacity=".6" stroke-width=".6"/></g></defs></svg>