<svg viewBox="0 0 67.9 84.55" xmlns="http://www.w3.org/2000/svg" xmlns:xlink="http://www.w3.org/1999/xlink"><use transform="translate(0 -.05)" width="67.9" height="84.6" xlink:href="#a"/><defs><g id="a"><path d="m295.5 256.4 2 1.15q-23.9 39.5-42.25 73.2l-1.4-.65q18.75-35.45 41.65-73.7" fill="#875421" fill-rule="evenodd" transform="translate(-249.6 -246.25)"/><path d="m294.05 255.55 1.45.85q-22.9 38.25-41.65 73.7l-1.1-.95 2.9-6.95q19.5-31.45 38.4-66.65" fill="#ab7845" fill-rule="evenodd" transform="translate(-249.6 -246.25)"/><path d="M250.45 327.2q22.05-34.65 42.85-72.05l.75.4q-18.9 35.2-38.4 66.65l-4.4 5.65-.8-.65" fill="#963" fill-rule="evenodd" transform="translate(-249.6 -246.25)"/><path d="m250.45 327.2-.75-.6q21.95-34.35 42.85-71.9l.75.45q-20.8 37.4-42.85 72.05" fill="#ab7845" fill-rule="evenodd" transform="translate(-249.6 -246.25)"/><path d="M252.75 329.15q-.1-1.8-1.5-1.3l4.4-5.65-2.9 6.95" fill="#75420f" fill-rule="evenodd" transform="translate(-249.6 -246.25)"/><path d="m43.7 8.9-.75-.45Q22.05 46 .1 80.35l.75.6Q22.9 46.3 43.7 8.9l.75.4 1.45.85 2 1.15Q24 50.8 5.65 84.5l-1.4-.65-1.1-.95q-.1-1.8-1.5-1.3l-.8-.65m.8.65 4.4-5.65Q25.55 44.5 44.45 9.3M6.05 75.95l-2.9 6.95M45.9 10.15Q23 48.4 4.25 83.85" fill="none" stroke="#000" stroke-linecap="round" stroke-linejoin="round" stroke-opacity=".29" stroke-width=".2"/><path d="m307.75 261.75 1.05 3.75-3.2.95q.95-5.5.5-10.5l1.65 5.8m1.85 6.5 1.95 7.1-.65 1-1.25 1.75-5.4-6.6.35-.5.7-3 .05-.05 4.25.3m-9.75 6.7q1.6-.45 3.05-1.85l4.35 8.65-1.95 3.2-2.4 4.25-1.4 2.85-1.65-17.1m-14.15 30.5 6.15-8.4q.6-4.55-4.95-4.4l.75-1.65q3.95-.7 7.65-2.1-.9 6.1-4.55 13.3l-5.05 3.25m-3.25-12.3q-2.5.55-5.7 1.6l-.95 1.7-1.65-8.55 4.9 2.85-.65 1.15 5.25-.25-1.2 1.5m-13.95 1.45 1.9-3.3q-.6-4.35-1.55-7.1l1.15-1.3q1 2.65 2.3 5.15l.1 8.8-3.9-2.25m-1.2-13.45q-2.4-3.2-6.15-.15l-3.65 8.15.55-8.4v-.15l10.25-3.5.75 2.9-1.75 1.15m22.9-34.4q-5 2.25-9.7 6.45l-1.1-3.65 10.8-2.8m-12.45 9.1q-1.55 3-1 5.35l-6.9-7.65.8-1.8 5.8-1.5 1.3 5.6m-.1 7.35q.95 1.2 2.65 2.15l-5.3 3.5-.3-.1-1.35-.4-2-9.35 6.3 4.2m4.85 3.15 1.95.65 2.35 10.35-2.3 4.05-.9-.55-2.7-1.55 1.45-8.7-1.85 3.2q-2-3-4.35-4.35l6.35-3.1m2.6-.5.6-1.05 6.25 3.65-1.1 1.9 1.55 1.7-2.15 3.25-5.15-9.45m8.75 7.4q2.1 1.7 4.1 1.9l-.8 8.4q-1.35-2.55-4.45-4.2l1.15-6.1m-22.3-5.05q-1.7 0-3.6.55l-3.5-4.9.55-.95 2.25-4.05 4.3 9.35m-4.5 1.8.6 4.2-7.95-3.05 1.6-2.3 1.15-1.75 4.6 2.9m28.75 28.85-.2.15-2.05 1.35q2.05-3.55 4.8-11.1l-.5 8.25-1.15.75-.9.6m-37.65-20.2.1-1 .1-2.1 6.6.6-6.8 2.5" fill="#333" fill-rule="evenodd" transform="translate(-249.6 -246.25)"/><path d="m307.25 281.75 1.45-2.3 3.7 3.65-2.35 3.65q-1.3 2.15-2.5 4.55l-4.65-2.1 2.4-4.25 1.95-3.2m-51.6-13.8 2.4-3.35 5.7.35-1.3 2.15-1.15 1.75-5.65-.9m7.65-12.6 1.35-3.15 4 3.9-.4.85-.5.95-4.45-2.55" fill="#ffffe9" fill-rule="evenodd" transform="translate(-249.6 -246.25)"/><path d="m309.35 260.8-1.6.95-1.65-5.8 3.25 4.85m.3 17.3 1.25-1.75 4.75 2.75q-1.7 1.85-3.25 4l-3.7-3.65.95-1.35m-2.1 13.2q-1.1 2.05-2.05 4.3l-4.2-3.25.2-.3 1.4-2.85 4.65 2.1m-47.2-30.3 2.95-5.65 4.45 2.55-.05.05-.45.9-2.25 4.05-4.65-1.9" fill="#fffffb" fill-rule="evenodd" transform="translate(-249.6 -246.25)"/><path d="m302.65 302.75-2.95.5-3-5 1.15-.75 1.55-1.1 3.25 6.35m-48.6-22.5-1.4-3.8 5.75-1.8-.05.9-.1 2.1-4.2 2.6" fill="#dbdbc5" fill-rule="evenodd" transform="translate(-249.6 -246.25)"/><path d="m308.8 265.5.8 2.75-4.25-.3.25-1.5 3.2-.95m-5.9 7.6 1.35-1.6 5.4 6.6-.95 1.35-1.45 2.3-4.35-8.65m-16 19.55-4.45.5 1.2-1.5 4-.65-.75 1.65m-11.1 3.8-2.15 3.7-1-.6-4.55-2.65-.7-.4 1.1-1.9 3.9 2.25-.1-8.8 1.15-2 6.25 3.65-.65 1.05-4.9-2.85 1.65 8.55m-6.95-12.25q-.7-1.9-1.55-3.05l1.75-1.15.95 2.9-1.15 1.3m11.65-31-2.75 2.65-1.3-5.6 2.95-.7 1.1 3.65m-3.75 8q.2 1 .9 2l-6.3-4.2 2 9.35-1.8-.15-4.3-9.35.45-.9.05-.05.5-.95 1.6-3.4 6.9 7.65m3.55 4.15 2.2 1-6.35 3.1-1.15-.6 5.3-3.5m4.15 1.65.65-1.15 5.15 9.45 2.15-3.25 1.45 1.2-1.15 6.1q-2.4-1.25-5.9-2L284.45 267m1.25-2.2.65-1.1 6.25 3.65-.65 1.1-6.25-3.65m12.25 10.35 1.9-.2 1.65 17.1-.2.3-1.9 4.05-1.55 1.1.5-8.25q-2.75 7.55-4.8 11.1l-2.8 1.85q3.65-7.2 4.55-13.3l2-.7.75-1.35q-.15-1.8-.9-3.3l.8-8.4m-18.9 3.1-.8-.5 2.25-3.95 1.85-3.2-1.45 8.7-1.85-1.05m-11.1-9.5-.15.05-.75 1.2-4.6-2.9 1.3-2.15.7-1.1 3.5 4.9m-.3 5.45q.25 1.5.65 2.9l-10.25 3.5.1-1.95 6.8-2.5-6.6-.6.05-.9.1-1.85 1.2-1.65 7.95 3.05" fill="#454545" fill-rule="evenodd" transform="translate(-249.6 -246.25)"/><path d="m308.8 265.5-1.05-3.75 1.6-.95 1.3 2.15 2.15 3.9 2 4.05 2.6 6.35-5.85-1.9-1.95-7.1-.8-2.75m-42.7-17.85 4.55-.6 5.35-.5 3.2-.15 11 .35-10.8 2.8-2.95.7-5.8 1.5-4.55-4.1" fill="#fff" fill-rule="evenodd" transform="translate(-249.6 -246.25)"/><path d="m311.55 275.35 5.85 1.9-1.75 1.85-4.75-2.75.65-1m-6.05 20.25q-1.5 3.35-2.85 7.15l-3.25-6.35 1.9-4.05 4.2 3.25m-54.15-22.45 4.3-5.2 5.65.9-1.6 2.3-1.2 1.65-7.15.35m6.7-8.55 2.3-3.6 4.65 1.9-.55.95-.7 1.1-5.7-.35" fill="#ededd7" fill-rule="evenodd" transform="translate(-249.6 -246.25)"/><path d="m299.7 303.25-3.3.55-.8-4.8.2-.15.9-.6 3 5m-42.2-14.1-3.45-8.9 4.2-2.6-.1 1-.1 1.95v.15l-.55 8.4m-4.85-12.7-1.3-3.3 7.15-.35-.1 1.85-5.75 1.8" fill="#c9c9b3" fill-rule="evenodd" transform="translate(-249.6 -246.25)"/><path d="m296.4 303.8-10.7 1.65 5.05-3.25 2.8-1.85 2.05-1.35.8 4.8" fill="#b7b7a1" fill-rule="evenodd" transform="translate(-249.6 -246.25)"/><path d="m264.65 252.2 1.45-4.55 4.55 4.1-.8 1.8-1.2 2.55-4-3.9" fill="#ededd7" fill-rule="evenodd" transform="translate(-249.6 -246.25)"/><path d="m272.65 299.55-1.85 3.4-4.25-3.4 1.55-2.65 4.55 2.65m10.95-18.7-1.4 2.3-4.5-2.6 1.35-2.3 1.85 1.05 2.7 1.55" fill-opacity=".388" fill-rule="evenodd" transform="translate(-249.6 -246.25)"/><path d="M11.55 34.75 7.9 42.9 4.45 34l-1.4-3.8-1.3-3.3 4.3-5.2 2.4-3.35 2.3-3.6L13.7 9.1l1.35-3.15L16.5 1.4l4.55-.6L26.4.3l3.2-.15 11 .35q-5 2.25-9.7 6.45L28.15 9.6M18.2 22.55l-.75 1.2m1.6-13.9 1.2-2.55.8-1.8 5.8-1.5 2.95-.7L40.6.5M17.65 12.6l.45-.9m.05-.05.5-.95.4-.85m-4.2 7.75.55-.95 2.25-4.05m-3.5 6.1.7-1.1m-2 3.25 1.3-2.15M8.8 28.4l.1-1.85 1.2-1.65 1.6-2.3m-3.15 9.8.1-1 .1-2.1.05-.9m-.25 4-.1 1.95m4.4-13.5L11.7 22.6M7.9 42.9l.55-8.4" fill="none" stroke="#000" stroke-linecap="round" stroke-linejoin="round" stroke-opacity=".29" stroke-width=".2"/><path d="m58.15 15.5 1.05 3.75L60 22l1.95 7.1M67.8 31l-2.6-6.35-2-4.05-2.15-3.9-1.3-2.15m-1.6.95L56.5 9.7q.45 5-.5 10.5m-.25 1.5.25-1.5m-1.35 5.05.35-.5.7-3m-2.4 5.1 1.35-1.6m5.4 6.6 1.25-1.75.65-1m-11.7-.4q1.6-.45 3.05-1.85m4.35 8.65 1.45-2.3.95-1.35m6 1L67.8 31m-1.75 1.85q-1.7 1.85-3.25 4l-2.35 3.65q-1.3 2.15-2.5 4.55-1.1 2.05-2.05 4.3-1.5 3.35-2.85 7.15l-2.95.5-3.3.55-10.7 1.65 6.15-8.4q.6-4.55-4.95-4.4l-4.45.5q-2.5.55-5.7 1.6l-.95 1.7-2.15 3.7-1-.6-4.55-2.65-.7-.4 1.1-1.9 1.9-3.3q-.6-4.35-1.55-7.1-.7-1.9-1.55-3.05-2.4-3.2-6.15-.15M28.15 9.6q-1.55 3-1 5.35.2 1 .9 2 .95 1.2 2.65 2.15l2.2 1 1.95.65.65-1.15.6-1.05.65-1.1L43 21.1l-.65 1.1-1.1 1.9 1.55 1.7 1.45 1.2q2.1 1.7 4.1 1.9l1.9-.2m1.65 17.1 1.4-2.85 2.4-4.25 1.95-3.2M43.1 33.1q3.1 1.65 4.45 4.2m-4.45-4.2q-2.4-1.25-5.9-2l-2.3 4.05-.9-.55M29.45 32l-.8-.5 2.25-3.95q-2-3-4.35-4.35l-1.15-.6m-.3-.1-1.35-.4-1.8-.15q-1.7 0-3.6.55l-.15.05m-.75 1.2.6 4.2q.25 1.5.65 2.9l.75 2.9.95 2.9q1 2.65 2.3 5.15l1.15-2 6.25 3.65-.65 1.05-.65 1.15 5.25-.25 4-.65q3.95-.7 7.65-2.1l2-.7.75-1.35q-.15-1.8-.9-3.3M31.3 33.05 34 34.6m-2.7-1.55L29.45 32M51.7 46.1l.2-.3M47.1 52l-.9.6m3.6-2.45-1.55 1.1-1.15.75m2.7-1.85 1.9-4.05m-7.75 8L46 52.75M56.5 9.7l3.25 4.85M43.95 54.1l-2.8 1.85-5.05 3.25" fill="none" stroke="#000" stroke-linecap="round" stroke-linejoin="round" stroke-opacity=".29" stroke-width=".2"/><path d="m55.7 21.75.05-.05" fill="none" stroke="#0f3" stroke-linecap="round" stroke-linejoin="round" stroke-width=".2"/></g></defs></svg>