<svg viewBox="0 0 102.7 92.35" xmlns="http://www.w3.org/2000/svg" xmlns:xlink="http://www.w3.org/1999/xlink"><use width="102.7" height="92.35" xlink:href="#a"/><defs><g id="a"><path d="m292.15 261.45 1.9-2.3q-.05-.25-.5-.4l-6.1 7.2q2.3.7 4.55 1.55l4.45-4.45q-.35-1.55-1.25-2.55l-5.6 3.6 2.55-2.65M231.9 326l3.55 3.55 2.95-5.05-3.85-1.45-2.65 2.95" fill="#960" fill-rule="evenodd" transform="translate(-228.35 -256.85)"/><path d="M245.4 349.1q6.5-3.3 12.65-7.05l4.2-9.8-16.85 16.85m21.25-12.55q5.65-3.75 10.75-7.85l-.1-9.2-3.05 2.35-2.7 2-4.9 12.7m44.1-42.7q4.45-6.25 8.35-12.85l-6.6-.8-4.95 6.25-4.1 6 7.3 1.4m-6.25-20.75-4.1-2.1-3.8 6.1 4.95 3.75 2.95-7.75" fill="#dbdbc5" fill-rule="evenodd" transform="translate(-228.35 -256.85)"/><path d="M292 267.5q-2.25-.85-4.55-1.55l-5.6-1.6q-7.6-2-15.7-2.9l-3.8 2.8q14.7 2 26.6 8.2l3.65 2.05 4 2.6 3.8-6.1q-4.05-1.95-8.4-3.5m-38.65 53.15q2.6 3.5 5.5 6.5l9.85-1.35-2.75-1.75q-3.45-2.45-6.55-5.85l-6.05 2.45m55.4-45.3-4.25-2.25-2.95 7.75 6 5.6 1.2-11.1" fill="#c9c9b3" fill-rule="evenodd" transform="translate(-228.35 -256.85)"/><path d="m262.35 264.25-3.9 2.8q7.75 3.55 13.15 7.15 3.45 2.25 5.95 4.45l11.75 1.45-.35-7.65q-11.9-6.2-26.6-8.2m-10.1 31.4q-4.55-5.75-8.8-14.9l-1.8 3.4q6 19.7 15.2 31.1l2.55 2.95q3.1 3.4 6.55 5.85l2.3-19q-3.3 0-6.55-1.45-2.95-1.45-5.85-4.05l-3.6-3.9m49.3-14.8-4.95-3.75-4-2.6 5.95 24.25 4.9-6.3 4.1-6-6-5.6m-20.3-10.8.7.5q.45.45.45 1.05.05.65-.45 1.15-.45.45-1.1.4-.6 0-1.05-.45-.5-.5-.5-1.1t.45-1.05q.5-.5 1.1-.5h.4m2.6 18.2q1.4 6.4-4.25 12.85l-1.55.95 8.7 9.3 4.75-4.75-1.35-23.25-6.3 4.9m-9.05 15.45-2.95.95 2.4 17.2 3.05-2.35 3.9-3.2-6.4-12.6m-22.05-2.25.65.45q.55.55.55 1.25 0 .8-.55 1.35-.5.5-1.3.5h-.4q-.5-.1-.9-.5-.55-.55-.5-1.3 0-.8.5-1.3.55-.55 1.35-.55l.6.1" fill="#5d5d47" fill-rule="evenodd" transform="translate(-228.35 -256.85)"/><path d="m254.35 334.45-8.95 14.65 16.25-16.25-7.3 1.6m76.6-77.5-17.4 14.4-1.05 8.85 18.45-23.25" fill="#93937d" fill-rule="evenodd" transform="translate(-228.35 -256.85)"/><path d="m241.65 284.15-2.8 5.4q2.15 8.25 5.6 15.8l2.55 5.15 2.15 3.75 1.65 2.65 6.05-1.65q-9.2-11.4-15.2-31.1m17.2 43-4.5 7.3 7.3-1.6 7.05-7.05-9.85 1.35m54.7-55.8-4.8 4-1.2 11.1 4.95-6.25 1.05-8.85" fill="#a5a58f" fill-rule="evenodd" transform="translate(-228.35 -256.85)"/><path d="m292.15 261.45-2.55 2.65 5.6-3.6-3.05.95m-4.7 4.5 6.1-7.2q-2.95-1.75-4.6-1.5l-7.1 7.1 5.6 1.6m-55.4 52.7-3.6 3.9 3.45 3.45 2.65-2.95 3.85 1.45 1.7-1.6-3.75-1.95-4.3-2.3" fill="#754200" fill-rule="evenodd" transform="translate(-228.35 -256.85)"/><path d="m298.55 298.75-5.95-24.25-3.65-2.05.35 7.65-11.75-1.45q2.35 2.15 3.8 4.3 1.9 2.7 2.5 5.3l6.3-4.9 1.35 23.25 5.3-5.8 1.75-2.05m-20.5 3.3-3.25 1.65 6.4 12.6 5.55-4.95-8.7-9.3M280.85 273.15q.65.05 1.1-.4.5-.5.45-1.15 0-.6-.45-1.05l-.7-.5-.4 3.1m-9 31.5-3.6.4-2.3 19 2.75 1.75 2.85-1.95 2.7-2-2.4-17.2m-20.15.35h.4q.8 0 1.3-.5.55-.55.55-1.35 0-.7-.55-1.25l-.65-.45-1.05 3.55" fill="#6f6f59" fill-rule="evenodd" transform="translate(-228.35 -256.85)"/><path d="M281.25 270.05h-.4q-.6 0-1.1.5-.45.45-.45 1.05t.5 1.1q.45.45 1.05.45l.4-3.1m-28.5 31.4-.6-.1q-.8 0-1.35.55-.5.5-.5 1.3-.05.75.5 1.3.4.4.9.5l1.05-3.55" fill="#393923" fill-rule="evenodd" transform="translate(-228.35 -256.85)"/><path d="M319.1 281q6.7-11.4 11.85-24.05L312.5 280.2l6.6.8" fill="#fff" fill-rule="evenodd" transform="translate(-228.35 -256.85)"/><path d="M258.05 342.05q4.4-2.6 8.6-5.5l4.9-12.7-2.85 1.95-6.45 6.45-4.2 9.8m19.35-13.35q13.35-10.45 24.1-23.1l-4.7-4.8-5.3 5.8-4.75 4.75-5.55 4.95-3.9 3.2.1 9.2" fill="#ededd7" fill-rule="evenodd" transform="translate(-228.35 -256.85)"/><path d="m271.6 274.2-.9 2 3.85 2.85 4.6 4.6 2.2-.7q-1.45-2.15-3.8-4.3-2.5-2.2-5.95-4.45m-24.7 42.2 2.25-2.15-2.15-3.75-3.65-1.45 1.25 2.65 2.3 4.7" fill="#72723f" fill-rule="evenodd" transform="translate(-228.35 -256.85)"/><path d="m270.7 276.2-.4.9 2.8 3.6 1.45-1.65-3.85-2.85m-4.45 7.35-2.4 2.9L266 289l3.6-4.2-3.35-1.25m-8.65 8.55q-2.45 1.85-5.35 3.55l3.6 3.9 3.2-2.3 2.4-2.8-3.85-2.35m-16 16.3-1.65 1.75 2.3 4.2 2.35-2.65-1.25-2.65-1.75-.65" fill="#a8a875" fill-rule="evenodd" transform="translate(-228.35 -256.85)"/><path d="m244.6 318.6 2.3-2.2-2.3-4.7-2.35 2.65 2.35 4.25m29.95-39.55-1.45 1.65 3.25 4.05 2.8-1.1-4.6-4.6m-4.95 5.75L266 289l2 2.2q2.45-2.95 5.65-4.95l-4.05-1.45m-5 11.5q-1.6-1-3.15-1.85l-2.4 2.8-3.2 2.3q2.9 2.6 5.85 4.05 1.15-4.05 2.9-7.3" fill="#cc9" fill-rule="evenodd" transform="translate(-228.35 -256.85)"/><path d="M270.3 277.1q-1.75 3.45-4.05 6.45l3.35 1.25 3.5-4.1-2.8-3.6m-6.45 9.35q-2.75 3.05-6.25 5.65l3.85 2.35L266 289l-2.15-2.55m-21.3 20.9-.95 1.05 1.75.65-.8-1.7m-2.6 2.8-7.9 8.5 4.3 2.3 5.9-6.6-2.3-4.2" fill="#baba87" fill-rule="evenodd" transform="translate(-228.35 -256.85)"/><path d="m240.1 322.9 4.5-4.3-2.35-4.25-5.9 6.6 3.75 1.95m36.25-38.15-3.25-4.05-3.5 4.1 4.05 1.45q1.3-.8 2.7-1.5M268 291.2l-2-2.2-4.55 5.45q1.55.85 3.15 1.85 1.45-2.85 3.4-5.1" fill="#dedeab" fill-rule="evenodd" transform="translate(-228.35 -256.85)"/><path d="M301.5 305.6q4.85-5.65 9.25-11.75l-7.3-1.4-4.9 6.3-1.75 2.05 4.7 4.8" fill="#fffffb" fill-rule="evenodd" transform="translate(-228.35 -256.85)"/><path d="m250.8 316.9 2.55 3.75 6.05-2.45-2.55-2.95-6.05 1.65" fill="#b7b7a1" fill-rule="evenodd" transform="translate(-228.35 -256.85)"/><path d="m244.45 305.35-1.9 2 .8 1.7 3.65 1.45-2.55-5.15" fill="#848451" fill-rule="evenodd" transform="translate(-228.35 -256.85)"/><path d="M65.2 1.9q.45.15.5.4l-1.9 2.3 3.05-.95q.9 1 1.25 2.55l-4.45 4.45Q61.4 9.8 59.1 9.1l-5.6-1.6q-7.6-2-15.7-2.9L34 7.4l-3.9 2.8q7.75 3.55 13.15 7.15l-.9 2-.4.9Q40.2 23.7 37.9 26.7l-2.4 2.9q-2.75 3.05-6.25 5.65-2.45 1.85-5.35 3.55-4.55-5.75-8.8-14.9l-1.8 3.4-2.8 5.4q2.15 8.25 5.6 15.8l-1.9 2-.95 1.05-1.65 1.75-7.9 8.5-3.6 3.9 7 7 2.95-5.05 1.7-1.6 4.5-4.3 2.3-2.2 2.25-2.15 1.65 2.65L25 63.8q2.6 3.5 5.5 6.5L26 77.6l-8.95 14.65q6.5-3.3 12.65-7.05 4.4-2.6 8.6-5.5 5.65-3.75 10.75-7.85 13.35-10.45 24.1-23.1Q78 43.1 82.4 37q4.45-6.25 8.35-12.85Q97.45 12.75 102.6.1L85.2 14.5l-4.8 4-4.25-2.25-4.1-2.1q-4.05-1.95-8.4-3.5M65.2 1.9Q62.25.15 60.6.4l-7.1 7.1M73.2 24l-4.95-3.75m15.9 3.1L79.2 29.6l1.2-11.1M73.2 24l6 5.6-4.1 6-4.9 6.3-1.75 2.05-5.3 5.8-4.75 4.75-5.55 4.95-3.9 3.2L45.9 65l-2.7 2-2.85 1.95-2.75-1.75q-3.45-2.45-6.55-5.85L28.5 58.4Q19.3 47 13.3 27.3m50.95-9.65 4 2.6M49.2 21.8q-2.5-2.2-5.95-4.45m9.25-1.05q.65.05 1.1-.4.5-.5.45-1.15 0-.6-.45-1.05l-.7-.5h-.4q-.6 0-1.1.5-.45.45-.45 1.05t.5 1.1q.45.45 1.05.45l.4-3.1m7.7 2.4 3.65 2.05m19.9 5.7L102.6.1M44.75 23.85l-2.8-3.6M37.9 26.7l3.35 1.25 4.05 1.45q-3.2 2-5.65 4.95l-2-2.2-2.15-2.55m15.3-2.8L48 27.9l-3.25-4.05M33.1 37.6l-3.85-2.35M53 26.1l-2.2.7M48 27.9q-1.4.7-2.7 1.5m-5.65 4.95q-1.95 2.25-3.4 5.1-1.6-1-3.15-1.85m-5.6 5.1-3.6-3.9m25.3-17q2.35 2.15 3.8 4.3 1.9 2.7 2.5 5.3 1.4 6.4-4.25 12.85l-1.55.95-3.25 1.65-2.95.95-3.6.4q-3.3 0-6.55-1.45 1.15-4.05 2.9-7.3m4.1 29.5L30.5 70.3m3.4 5.1 6.45-6.45m-17-20.8h.4q.8 0 1.3-.5.55-.55.55-1.35 0-.7-.55-1.25l-.65-.45-.6-.1q-.8 0-1.35.55-.5.5-.5 1.3-.05.75.5 1.3.4.4.9.5l1.05-3.55m-5.75 9.05 2.15 3.75M15 52.2l3.65 1.45-2.55-5.15M15 52.2l-1.75-.65m20.1-4.8Q30.4 45.3 27.5 42.7M13.9 57.5l-2.3-4.2m.15 12.75L8 64.1l-4.3-2.3m10.2-4.3 2.35 4.25m.8 30.5L33.9 75.4m.1-68q14.7 2 26.6 8.2" fill="none" stroke="#000" stroke-linecap="round" stroke-linejoin="round" stroke-opacity=".4" stroke-width=".2"/></g></defs></svg>