<svg viewBox="0 0 85.9 88.4" xmlns="http://www.w3.org/2000/svg" xmlns:xlink="http://www.w3.org/1999/xlink"><use transform="translate(.03 .02)" width="85.85" height="88.35" xlink:href="#a"/><defs><radialGradient id="b" cx="0" cy="0" r="819.2" gradientTransform="translate(-113.4 33.2)" gradientUnits="userSpaceOnUse"><stop stop-color="#fff" offset=".102"/><stop stop-color="#c4f0c6" offset=".314"/></radialGradient><radialGradient id="c" cx="0" cy="0" r="819.2" gradientTransform="translate(-113.4 33.2)" gradientUnits="userSpaceOnUse"><stop stop-color="#fff" offset=".102"/><stop stop-color="#18611c" offset=".314"/></radialGradient><g id="a"><path d="m241.4 180.8-.5.85.5-.85 22.15 16.75-2.65 1.85 2.1 2.8-11.3 9.8 23.95 21.35L274 243.9l-27.95-27-3.35-3.25 18.05-14.2-28.25-20.95 2.5-2.45.05-.05 18.4-18.1.75 1.15-12.8 21.75m8.3 29.45 2 1.75-5.65 4.9 5.65-4.9-2-1.75" fill="#d61f1f" fill-rule="evenodd" transform="translate(-232.05 -155.8)"/><path d="m232.5 178.5 28.25 20.95-18.05 14.2-.7-.65-9.95-34.05.45-.45m21.7-19.45.85-1.45 39.95-1.8.85.85-8.95 32.8-.35-.35-11.7.95h-.6l-.3-.4-19.75-30.6m23.35 62.2 5.5-1.85-3.1 23.55-5.7 1.2-.25-.25 1.65-10.55 1.9-12v-.1m5.1-28.75 3.55-1.25 8.25 9.1-2.3 3.1-9.5-10.95" fill="#f9d5d5" fill-rule="evenodd" transform="translate(-232.05 -155.8)"/><path d="m254.2 159.05-.75-1.15.25-.25 1.35-.05-.85 1.45" fill="url(#b)" fill-rule="evenodd" transform="translate(-232.05 -155.8)"/><path d="m273.65 190.45.6-.4v.05l.6-.05 11.7-.95.35.35 10.2 11.05-3.8 5.4-1.7 2.35-3 4.15-11.15-.45q-7.5-5.7-7.2-11.45v-.15l.05-.7 3.35-9.2m13.05-.35.2-.65-.2.65m-4.05 2.4 9.5 10.95 2.3-3.1-8.25-9.1-3.55 1.25" fill="#ea6f6f" fill-rule="evenodd" transform="translate(-232.05 -155.8)"/><path d="m274.25 190.05-.6.4.3-.8.3.4m3.1 31.25.2-.05v.1l-.2-.05" fill="url(#c)" fill-rule="evenodd" transform="translate(-232.05 -155.8)"/><path d="m241.4 180.8 12.8-21.75 19.75 30.6-.3.8-10 7.05-.1.05-22.15-16.75m51.9 25.1 3.8-5.4 19.85-18.75-9.35 30-14.3-5.85m-30.3-3.7 14.35 19.1.2.05-1.9 12L251.7 212l11.3-9.8" fill="#821313" fill-rule="evenodd" transform="translate(-232.05 -155.8)"/><path d="m273.65 190.45-3.35 9.2-.05.7v.15q-.3 5.75 7.2 11.45l11.15.45-5 6.8-.55.2-5.5 1.85-.2.05L263 202.2l-2.1-2.8 2.65-1.85.1-.05 10-7.05" fill="#e34040" fill-rule="evenodd" transform="translate(-232.05 -155.8)"/><path d="m288.6 212.4 3-4.15 12.85 7.15-24.5 27.55 3.1-23.55.55-.2 5-6.8m8.5-11.9-10.2-11.05 8.95-32.8 22.05 22.05-.95 3.05-19.85 18.75" fill="#e64f4f" fill-rule="evenodd" transform="translate(-232.05 -155.8)"/><path d="m291.6 208.25 1.7-2.35 14.3 5.85-.1.2-3.05 3.45-12.85-7.15" fill="#c61c1c" fill-rule="evenodd" transform="translate(-232.05 -155.8)"/><path d="m8.85 25.85.5-.85 12.8-21.75L23 1.8l.3-.6M3 20.2l-.05.05M14 61.1l5.65-4.9-2-1.75m23.95-19.8-3.35 9.2-.05.7v.15q-.3 5.75 7.2 11.45l11.15.45M41.9 33.85l-.3.8m-10 7.05-.1.05m28.05 10.7L72.4 59.6M30.95 46.4l-11.3 9.8L43.6 77.55M9.35 25 31.5 41.75" fill="none" stroke="#999" stroke-linecap="round" stroke-linejoin="round" stroke-opacity=".412" stroke-width=".05"/><path d="M22.15 3.25 21.4 2.1 3 20.2m-.05.05L.45 22.7 28.7 43.65l-18.05 14.2L14 61.1m-3.35-3.25-.7-.65L0 23.15l.45-.45M21.4 2.1l.25-.25L23 1.8 62.95 0l.85.85L64 0M42.2 34.25l-.6.4-10 7.05m24.95 14.9 3-4.15 1.7-2.35 3.8-5.4-10.2-11.05-.2.65m-12.45-.05v.05l.6-.05h-.6l-.3-.4-19.75-30.6m9.35 38.5-2.65 1.85 2.1 2.8L45.3 65.5l.2-.05L51 63.6l.55-.2 5-6.8M84.9 25.95l.95-1m-.95 1 .95-3.05L63.8.85l-8.95 32.8-.35-.35-11.7.95M72.4 59.6l3.05-3.45.1-.2-14.3-5.85m11.15 9.5L47.9 87.15l-5.7 1.2-.25-.25L14 61.1m31.5 4.45v-.1m-1.9 12.1L41.95 88.1m1.65-10.55 1.9-12m2.4 21.6L51 63.6m33.9-37.65L65.05 44.7m10.5 11.25 9.35-30" fill="none" stroke="#999" stroke-linecap="round" stroke-linejoin="round" stroke-opacity=".412" stroke-width=".05"/></g></defs></svg>