<svg viewBox="0 0 61.05 53.1" xmlns="http://www.w3.org/2000/svg" xmlns:xlink="http://www.w3.org/1999/xlink"><use width="61.05" height="53.1" xlink:href="#a"/><defs><use width="61.05" height="53.1" xlink:href="#b" id="a"/><g id="b"><path d="m43.35 6.1 6.75 7.35-1.25.5-5-5.95-3.6 4.35-.05.05.05.1 4.55 6.2-.15 2.7-.8.65-1.05 2.75-7.5 2.2-5.9-4.1-.5-1.55-4 1.8 5.55 4-5.15 5-5.75-3.45-.85 6.45-5-.75-2.55 3.75L3.5 35.9l.2-2-3.35-2.95L1.85 27l1.3 2.4 2.35-6.2 4.25 1.9q-3.15-.1-4.2 2.65-3.35 8.5 5.35 8.5l.35-.3q5.2-6.1.05-10.55h5.2v5.7l1.75.05.55-4.95 4.65 3.75 2.05-2.85-5-4 8.4-3.85-1.3-2.2 5.55-5.35.9-.6.65-.4 3.95 1 4.65-5.6h.05M7.1 13.4l5.45-5.65 2.95 2.55.25 1.55-.6-.15-5.65 3.5-2.4-1.8m9.7-1.2.3-.75.2.1q3.95 2.25 8.65 1.5l2.75.15-6.25.7-5.65-1.7m5.05-8.7L20.3 4l3.3-2.4.3.05 1.85.2 3.15.35-.7 3.6-.3.6-.3-.6q0-1.15-.6-1.95-.65-.8-1.5-.8l-1.6-.25-2.05.7M41.5 23.2q.35-1.05.1-1.85-1.3-4.1-3.2-7.95l-2.45-.9-1.7.9-4.15 4 1.35 4.35 4.45 3.1 5.6-1.65M39.45 2.9l-.3.3-4.75 4.15-1.8 1.3-2.8 1.75-9.35-1.7-.3-1.05-.65-2.05 7.65 2.55 2.5-2.3 2.75-3.3L29.9 0h3.4q2.9 1.55 6.15 2.9" fill="#d0e99e" fill-rule="evenodd" transform="translate(6.35 8.3)"/><path d="m41.5 4.1 1.05 1.15.75.85-4.65 5.6-3.95-1-.3.15 7.1-6.75M1.85 27l3.2-8.25 2.1.9-.25.75q2.3 2.7 6 3.1h2.4l.45-2.25 2.05-.5 4.1-.55-1.25-.3 6.95-2.85 1.3 2.2-8.4 3.85 5 4-2.05 2.85-4.65-3.75-.55 4.95-1.75-.05v-5.7h-5.2l-1.55-.3-4.25-1.9-2.35 6.2-1.3-2.4" fill="#dfffbf" fill-rule="evenodd" transform="translate(6.35 8.3)"/><path d="m50.1 13.45 1.45 1.6.05 1.25v.1l-1 1.2-.4.6-.3.5q.65 1.65.5 3.4l-.1 2.9-2 2.1q-1.2 1-3 1.8l-2.7 4.8-2.5.6-1.25-.75-.35-.4-.6-.55q.45 2.35-.45 4.65-.7 1.75-2.2 2.9-4.9 3.55-8.75-.45-3.05 2.75-7.7 1.9l-6.9.3q-3.5-.55-6.7-2l-.15.2-2.3-1.55L0 35.9v-1.1l2.35.95 1 2.2L13.6 40.8l1.3-1.9 10.2.3.2-7.05 5.15-5L37.4 31l-.8-1.3 2.8-.5 2.2 1 5.2-6.5-2.15-2.3.15-2.7-4.55-6.2v-.15L43.85 8l5 5.95 1.25-.5m-8-.95 3 4.5 2-1.8-2.7-4.6-2.3 1.9m-7.15 17.6q-1.45-1.45-3.5-1.45t-3.5 1.45q-1.45 1.4-1.45 3.45t1.45 3.5q1.45 1.4 3.5 1.4t3.5-1.4q1.45-1.45 1.45-3.5t-1.45-3.45" fill="#8dbc2c" fill-rule="evenodd" transform="translate(6.35 8.3)"/><path d="m15.75 11.85 1.05.35 5.65 1.7-.95.1 4.9 1.35q.4.05.65.35l-1.35 1q-7.05-1.8-9.35-3.4l-.4-.3-.65-.85-.15-.45.6.15m1.35-.4-1.4-1 1.65.4q2 .65 3.55 1.95.25-.2-2.9-2.45l-.35-.25q-.9-.8.35-.85l2.3.15.35.05-.2-.75 9.35 1.7 2.8-1.75-6.65 4.4q-4.7.75-8.65-1.5l-.2-.1m1.7-4.2.7-1.65 2.35-2.1 2.05-.7 1.6.25-.6 2.55 2.7.2.3.6.3-.6 1.45.05-2.5 2.3L19.5 5.6l.65 2.05-1.35-.4m5.1-5.6L25.7 0h4.2l-4.15 1.85-1.85-.2M42.1 12.5l2.3-1.9 2.7 4.6-2 1.8-3-4.5m-.6 10.7-5.6 1.65-4.45-3.1-1.35-4.35 4.15-4 1.7-.9 2.45.9q1.9 3.85 3.2 7.95.25.8-.1 1.85m-2.35-20q0 1.7-1.4 2.95-1.4 1.2-3.35 1.2l4.75-4.15M9.9 16.65q5.15 1.8 10.75 3.25l1.25.3-4.1.55-2.05.5-.45 2.25h-2.4q-3.7-.4-6-3.1l.25-.75L8.2 15.8l1.7.85m1.4 8.75q5.15 4.45-.05 10.55l-.35.3q-8.7 0-5.35-8.5Q6.6 25 9.75 25.1l1.55.3" fill="#efd" fill-rule="evenodd" transform="translate(6.35 8.3)"/><path d="m0 34.8.35-3.85L3.7 33.9l-.2 2 7.65 2.25 2.55-3.75 5 .75.85-6.45 5.75 3.45-.2 7.05-10.2-.3-1.3 1.9-10.25-2.85-1-2.2L0 34.8m30.45-7.65-5.55-4 4-1.8.5 1.55 5.9 4.1 7.5-2.2 1.05-2.75.8-.65 2.15 2.3-5.2 6.5-2.2-1-2.8.5.8 1.3-6.95-3.85m9.8-14.65-.05-.1.05-.05v.15m-5.3 17.6q1.45 1.4 1.45 3.45t-1.45 3.5q-1.45 1.4-3.5 1.4t-3.5-1.4q-1.45-1.45-1.45-3.5t1.45-3.45q1.45-1.45 3.5-1.45t3.5 1.45" fill="#b0d95b" fill-rule="evenodd" transform="translate(6.35 8.3)"/><path d="m39.45 2.9 1.45.55.6.65-7.1 6.75-.35.25-.9.6h-.75l-6 3.65L21.5 14l.95-.1 6.25-.7-2.75-.15 6.65-4.4 1.8-1.3q1.95 0 3.35-1.2 1.4-1.25 1.4-2.95l.3-.3M5.05 18.75 7.1 13.4l2.4 1.8 5.65-3.5.15.45-5.4 4.5-1.7-.85-1.05 3.85-2.1-.9m7.5-11 1.7-1.45.55-.1.7 4.1-2.95-2.55m4.8 3.1.3-.75.35.25q3.15 2.25 2.9 2.45-1.55-1.3-3.55-1.95m.65-1.6.8-2 1.35.4.3 1.05.2.75-.35-.05-2.3-.15M29.9 0l2.5 2.55-2.75 3.3-1.45-.05.7-3.6-3.15-.35L29.9 0m-4.4 3.05q.85 0 1.5.8.6.8.6 1.95l-2.7-.2.6-2.55m-6.55 12.8-.65-.15 1.05.15h-.4" fill="#ecffd9" fill-rule="evenodd" transform="translate(6.35 8.3)"/><path d="m26.4 15.35 6-3.65h.75l-5.55 5.35-6.95 2.85q-5.6-1.45-10.75-3.25l5.4-4.5.65.85.4.3q2.3 1.6 9.35 3.4l1.35-1q-.25-.3-.65-.35m-7.05.5-1.05-.15.65.15 2.8.35-2.4-.35" fill="#e0ffc1" fill-rule="evenodd" transform="translate(6.35 8.3)"/><path d="m19.35 15.85 2.4.35-2.8-.35h.4" fill="#fff" fill-rule="evenodd" transform="translate(6.35 8.3)"/><path d="m51.55 15.05 2.65 2.85-.65 1.25q-1.75 3.4-3 7l-.3 1.2-3.55 1.35-.1.1 2.95 2.5q-5.9 5.85-12.95 9.4-2.6 1.3-5.35 2.15l-2.2-.6L26.7 42q-.55.55-1.45.85L21.4 44.3h-1.85q-5.3-.3-10.45-2.25-2.15-.8-4.05-1.95l.15-.2q3.2 1.45 6.7 2l6.9-.3q4.65.85 7.7-1.9 3.85 4 8.75.45 1.5-1.15 2.2-2.9.9-2.3.45-4.65l.6.55.35.4 1.25.75 2.5-.6 2.7-4.8q1.8-.8 3-1.8l2-2.1.1-2.9q.15-1.75-.5-3.4l.3-.5.4-.6 1-1.2v-.1l-.05-1.25M17.3 43.1l2.25 1.2-2.25-1.2" fill="#6c9122" fill-rule="evenodd" transform="translate(6.35 8.3)"/><path d="m39.45 2.9 1.45.55.6.65 1.05 1.15.8.85 6.75 7.35 1.45 1.6 2.65 2.85-.65 1.25q-1.75 3.4-3 7l-.3 1.2-3.55 1.35-.1.1 2.95 2.5q-5.9 5.85-12.95 9.4-2.6 1.3-5.35 2.15l-2.2-.6L26.7 42q-.55.55-1.45.85L21.4 44.3h-1.85q-5.3-.3-10.45-2.25-2.15-.8-4.05-1.95l-2.3-1.55L0 35.9v-1.1l.35-3.85L1.85 27l3.2-8.25L7.1 13.4l5.45-5.65 1.7-1.45M25.7 0h-.95M43.3 6.1l-.75-.85M29.9 0h3.4q2.9 1.55 6.15 2.9M25.7 0h4.2M19.55 44.3l-2.25-1.2" fill="none" stroke="#360" stroke-linecap="round" stroke-linejoin="round" stroke-opacity=".302" transform="translate(6.35 8.3)"/><path d="m8.4-3.4 5.7 2.9v-7.8l3.8 9.9 2.5-5.2V.8l9.45-4.55-5.95 5.4-.3-.05L20.3 4l1.55-.5-2.35 2.1L18 9.25q-1.25.05-.35.85l-.3.75-1.65-.4 1.4 1-.3.75-1.05-.35-.95-5.65L4.65 7.65 14.7 3.8l-8.5-1 8.35-1.25L8.4-3.4M26.45 12.5l5.7 2.9V7.6l3.8 9.9 2.5-5.2v4.4l9.45-4.55-5.95 5.4-.3-.05-3.3 2.4 1.55-.5-2.35 2.1-1.5 3.65q-1.25.05-.35.85l-.3.75-1.65-.4 1.4 1-.3.75-1.05-.35-.95-5.65-10.15 1.45 10.05-3.85-8.5-1 8.35-1.25-6.15-4.95M-3.25 21.5.3 24.95l-6.65 1.8 9.15.5-3.95 3 3.8-1.05L.6 37.05 4 31.5l-.1-.15 1.5-2.95q-.15.6-.15 1.25l1.3-2.2 2.9-1.95q-.2-.9.6-.4l.6-.4-.65-1.1 1.15.75.55-.35-.5-.75-5.05.65-.7-7.65L4.1 24.4l-2.5-5.9.55 6.3-5.4-3.3" fill="#fff" fill-rule="evenodd" transform="translate(6.35 8.3)"/></g></defs></svg>