<svg viewBox="0 0 92.586 137.89" xmlns="http://www.w3.org/2000/svg" xmlns:xlink="http://www.w3.org/1999/xlink"><g transform="translate(-58.175 -28.939)"><use transform="translate(58.2 64.15)" width="53.15" height="102.65" xlink:href="#a"/><use transform="rotate(21.535 -94.7 299.98) scale(.255)" width="69.4" height="69.4" xlink:href="#b"/><use transform="rotate(28.822 -.506 259.576) scale(.4125)" width="5.75" height="99.05" xlink:href="#c"/><use transform="matrix(-.3614 -.1989 .1891 -.3435 87.85 105)" width="5.75" height="99.05" xlink:href="#c"/><use transform="rotate(118.828 45.26 86.766) scale(.4125)" width="5.75" height="99.05" xlink:href="#c"/><use transform="matrix(.1989 -.3614 .3435 .1891 70.5 51.7)" width="5.75" height="99.05" xlink:href="#c"/><use transform="matrix(.3962 -.1149 .1149 .3962 93.6 29.6)" width="5.75" height="99.05" xlink:href="#c"/><use transform="matrix(-.3962 .1149 -.1092 -.3766 118.55 107.25)" width="5.75" height="99.05" xlink:href="#c"/><use transform="rotate(73.827 35.254 125.734) scale(.4125)" width="5.75" height="99.05" xlink:href="#c"/><use transform="matrix(-.1149 -.3962 .3766 -.1092 68.55 81.9)" width="5.75" height="99.05" xlink:href="#c"/><use transform="rotate(21.535 -233.284 336.96) scale(.255)" width="69.4" height="69.4" xlink:href="#b"/><use transform="matrix(.3614 .1989 -.1989 .3614 129 85.85)" width="5.75" height="99.05" xlink:href="#c"/><use transform="matrix(-.3614 -.1989 .1891 -.3435 91.75 158.45)" width="5.75" height="99.05" xlink:href="#c"/><use transform="rotate(118.828 31.413 114.643) scale(.4125)" width="5.75" height="99.05" xlink:href="#c"/><use transform="matrix(.1989 -.3614 .3435 .1891 74.4 105.15)" width="5.75" height="99.05" xlink:href="#c"/><use transform="matrix(.3962 -.1149 .1149 .3962 97.5 83.05)" width="5.75" height="99.05" xlink:href="#c"/><use transform="matrix(-.3962 .1149 -.1092 -.3766 122.45 160.7)" width="5.75" height="99.05" xlink:href="#c"/><use transform="rotate(73.827 1.628 155.053) scale(.4125)" width="5.75" height="99.05" xlink:href="#c"/><use transform="matrix(-.1149 -.3962 .3766 -.1092 72.45 135.35)" width="5.75" height="99.05" xlink:href="#c"/><use transform="translate(59.5 134.5)" width="41" height="30" xlink:href="#d"/></g><defs><linearGradient id="e" x1="-819.2" x2="819.2" gradientTransform="matrix(.0013 0 0 .0036 45.55 93.55)" gradientUnits="userSpaceOnUse"><stop stop-color="#ecffff" offset="0"/><stop stop-color="#b9deff" offset="1"/></linearGradient><linearGradient id="f" x1="-819.2" x2="819.2" gradientTransform="matrix(-.0041 -.0042 .0325 -.0321 43.85 68.65)" gradientUnits="userSpaceOnUse"><stop stop-color="#ecffff" offset="0"/><stop stop-color="#b9deff" offset="1"/></linearGradient><linearGradient id="g" x1="-819.2" x2="819.2" gradientTransform="matrix(.0172 .0032 -.0065 .0348 47.75 64.7)" gradientUnits="userSpaceOnUse"><stop stop-color="#ecffff" offset="0"/><stop stop-color="#b9deff" offset="1"/></linearGradient><linearGradient id="h" x1="-819.2" x2="819.2" gradientTransform="matrix(-.0105 -.0106 .0227 -.0225 58.4 67.25)" gradientUnits="userSpaceOnUse"><stop stop-color="#ecffff" offset="0"/><stop stop-color="#b9deff" offset="1"/></linearGradient><linearGradient id="i" x1="-819.2" x2="819.2" gradientTransform="matrix(-.0204 -.0207 .0226 -.0223 68.3 73.7)" gradientUnits="userSpaceOnUse"><stop stop-color="#ecffff" offset="0"/><stop stop-color="#b9deff" offset="1"/></linearGradient><linearGradient id="j" x1="-819.2" x2="819.2" gradientTransform="matrix(.0043 .0008 -.0074 .0408 67.65 71.75)" gradientUnits="userSpaceOnUse"><stop stop-color="#ecffff" offset="0"/><stop stop-color="#b9deff" offset="1"/></linearGradient><linearGradient id="k" x1="-819.2" x2="819.2" gradientTransform="matrix(-.0089 -.009 .0103 -.0102 33.1 95.95)" gradientUnits="userSpaceOnUse"><stop stop-color="#ecffff" offset="0"/><stop stop-color="#b9deff" offset="1"/></linearGradient><linearGradient id="l" x1="-819.2" x2="819.2" gradientTransform="matrix(.0144 -.0073 .0038 .0075 32.2 96.35)" gradientUnits="userSpaceOnUse"><stop stop-color="#ecffff" offset="0"/><stop stop-color="#b9deff" offset="1"/></linearGradient><linearGradient id="m" x1="-819.2" x2="819.2" gradientTransform="matrix(-.0085 -.0086 .0107 -.0105 28 99.75)" gradientUnits="userSpaceOnUse"><stop stop-color="#ecffff" offset="0"/><stop stop-color="#b9deff" offset="1"/></linearGradient><linearGradient id="n" x1="-819.2" x2="819.2" gradientTransform="matrix(-.0157 -.0159 .0217 -.0214 63.15 73.75)" gradientUnits="userSpaceOnUse"><stop stop-color="#ecffff" offset="0"/><stop stop-color="#b9deff" offset="1"/></linearGradient><linearGradient id="o" x1="-819.2" x2="819.2" gradientTransform="matrix(.0115 .0022 -.0009 .0049 56.4 99.9)" gradientUnits="userSpaceOnUse"><stop stop-color="#ecffff" offset="0"/><stop stop-color="#b9deff" offset="1"/></linearGradient><linearGradient id="p" x1="-819.2" x2="819.2" gradientTransform="matrix(-.0117 -.0118 .0107 -.0105 48.2 114.8)" gradientUnits="userSpaceOnUse"><stop stop-color="#ecffff" offset="0"/><stop stop-color="#b9deff" offset="1"/></linearGradient><linearGradient id="q" x1="-819.2" x2="819.2" gradientTransform="matrix(-.0085 -.0086 .0122 -.012 37.45 106.7)" gradientUnits="userSpaceOnUse"><stop stop-color="#ecffff" offset="0"/><stop stop-color="#b9deff" offset="1"/></linearGradient><linearGradient id="r" x1="-819.2" x2="819.2" gradientTransform="matrix(-.0077 -.0078 .0094 -.0093 29.05 98.7)" gradientUnits="userSpaceOnUse"><stop stop-color="#ecffff" offset="0"/><stop stop-color="#b9deff" offset="1"/></linearGradient><linearGradient id="s" x1="-819.2" x2="819.2" gradientTransform="matrix(-.0074 -.0076 .0027 -.0027 64.95 110)" gradientUnits="userSpaceOnUse"><stop stop-color="#ecffff" offset="0"/><stop stop-color="#b9deff" offset="1"/></linearGradient><linearGradient id="t" x1="-819.2" x2="819.2" gradientTransform="matrix(.0075 -.0029 .0063 .0159 58.75 107.3)" gradientUnits="userSpaceOnUse"><stop stop-color="#ecffff" offset="0"/><stop stop-color="#b9deff" offset="1"/></linearGradient><linearGradient id="u" x1="-819.2" x2="819.2" gradientTransform="matrix(.0105 -.0157 .0061 .0041 52.55 130.4)" gradientUnits="userSpaceOnUse"><stop stop-color="#ecffff" offset="0"/><stop stop-color="#b9deff" offset="1"/></linearGradient><linearGradient id="v" x1="-819.2" x2="819.2" gradientTransform="matrix(.0066 .0012 -.0018 .0099 63.4 117.75)" gradientUnits="userSpaceOnUse"><stop stop-color="#ecffff" offset="0"/><stop stop-color="#b9deff" offset="1"/></linearGradient><linearGradient id="w" x1="-819.2" x2="819.2" gradientTransform="matrix(-.0073 -.0074 .0124 -.0123 41.1 129.2)" gradientUnits="userSpaceOnUse"><stop stop-color="#ecffff" offset="0"/><stop stop-color="#b9deff" offset="1"/></linearGradient><linearGradient id="x" x1="-819.2" x2="819.2" gradientTransform="matrix(-.0049 -.0006 .0014 -.0112 42.6 131.2)" gradientUnits="userSpaceOnUse"><stop stop-color="#ecffff" offset="0"/><stop stop-color="#b9deff" offset="1"/></linearGradient><linearGradient id="y" x1="-819.2" x2="819.2" gradientTransform="matrix(.0006 -.0031 .0073 .0014 21.5 109.4)" gradientUnits="userSpaceOnUse"><stop stop-color="#ecffff" offset="0"/><stop stop-color="#b9deff" offset="1"/></linearGradient><linearGradient id="z" x1="-819.2" x2="819.2" gradientTransform="matrix(0 -.0024 .0101 0 28.9 112.85)" gradientUnits="userSpaceOnUse"><stop stop-color="#ecffff" offset="0"/><stop stop-color="#b9deff" offset="1"/></linearGradient><linearGradient id="B" x1="-819.2" x2="819.2" gradientTransform="matrix(0 -.0327 .0035 0 2.85 50.75)" gradientUnits="userSpaceOnUse"><stop stop-color="#ecffff" stop-opacity=".471" offset=".114"/><stop stop-color="#ecffff" stop-opacity="0" offset="1"/></linearGradient><path d="M59.2 10.15q10.2 10.2 10.2 24.55T59.2 59.2Q49.05 69.4 34.7 69.4T10.15 59.2Q0 49.05 0 34.7t10.15-24.55Q20.35 0 34.7 0t24.5 10.15" fill="url(#A)" fill-rule="evenodd" id="b"/><path d="M5.75 0v99.05H0V0h5.75" fill="url(#B)" fill-rule="evenodd" id="c"/><path d="m16.5 13.5-13-9m-2-3 3 22m35-8-15 13" fill="none" stroke="#fff" stroke-linecap="round" stroke-linejoin="round" stroke-width="3" id="d"/><radialGradient id="A" cx="0" cy="0" r="819.2" gradientTransform="translate(34.7 34.7) scale(.0435)" gradientUnits="userSpaceOnUse"><stop stop-color="#ecffff" stop-opacity=".471" offset=".114"/><stop stop-color="#ecffff" stop-opacity="0" offset="1"/></radialGradient><g id="a"><path d="m67.1 38.85-.05.1.05-.1m-19.05 55.3h.05l.1.05h.1l-.95 2.3.85-2.3-.85 2.3-.05-.1.75-2.25" fill="url(#e)" fill-rule="evenodd" transform="translate(-16.95 -37.4)"/><path d="M67.05 38.95 28.4 90.6 18.35 96l48.7-57.05" fill="url(#f)" fill-rule="evenodd" transform="translate(-16.95 -37.4)"/><path d="M69.35 37.6v.65l-.95 2.5.05-.6-2.5 6.95-14.3 37.7-3.25 8.4-.35.95H48l-14.75-2.9-4.85-.65 38.65-51.65.05-.1 2.25-1.25m.05 0 .25-.2-.15.35-.1-.15" fill="url(#g)" fill-rule="evenodd" transform="translate(-16.95 -37.4)"/><path d="m51.65 84.8 14.3-37.7 2.5-6.95-.05.6-.3 2.35-19.65 51.2-.15-.1h-.1l3.45-9.4m14.3-37.7 2.45-6.35-2.45 6.35" fill="url(#h)" fill-rule="evenodd" transform="translate(-16.95 -37.4)"/><path d="M65.15 105.8 69 52.85q-1.3 53.6-2.35 55.9l-.05.05-.15-.05-1.3-2.95" fill="url(#i)" fill-rule="evenodd" transform="translate(-16.95 -37.4)"/><path d="m70.05 38.5-.05-.05.1-.7-.05.75m-.8 5.05-.25 9.3-3.85 52.95-3.35-2.4-1.45-1 .85-6.1 8.05-52.75" fill="url(#j)" fill-rule="evenodd" transform="translate(-16.95 -37.4)"/><path d="m28.4 90.6 4.85.65L48 94.15l-.85 2.45-3.65 1.75-.4-.9-25.4-.15v-.55l.65-.75 10.05-5.4" fill="url(#k)" fill-rule="evenodd" transform="translate(-16.95 -37.4)"/><path d="m16.95 96.75.55-.3.2.3h-.75m3.35 12.6.55-.2-.5.25-.05-.05" fill="#e8eeda" fill-rule="evenodd" transform="translate(-16.95 -37.4)"/><path d="m17.5 96.45.85-.45-.65.75-.2-.3" fill="url(#l)" fill-rule="evenodd" transform="translate(-16.95 -37.4)"/><path d="M16.95 96.75h.75v.55l2.35 7.7.3-1.8q4.15-2.4 16.95-5.05l5.8-.7.4.9-22.65 10.8-.55.2q-2.25-6.1-2.8-9.35l-.55-3.25" fill="url(#m)" fill-rule="evenodd" transform="translate(-16.95 -37.4)"/><path d="M48.45 94.35v-.05L68.1 43.1l-7.85 59.2-2.1-1.45-4.75-3.2-4.95-3.3" fill="url(#n)" fill-rule="evenodd" transform="translate(-16.95 -37.4)"/><path d="m48.3 94.2.15.15-.9 2.35.9-2.35 4.95 3.3 4.75 3.2 2.1 1.45.1.1-.95 6.35L47.55 96.7l-.2-.2.95-2.3" fill="url(#o)" fill-rule="evenodd" transform="translate(-16.95 -37.4)"/><path d="m48.05 94.15.35-.95-.35.95-.75 2.25-.05.05-.05.1.85-2.4" fill="#ecffff" fill-rule="evenodd" transform="translate(-16.95 -37.4)"/><path d="m47.3 96.6-.1.05.05-.1.05.05m-6.2 40.1-.05-.1v-.05l.1.1-.05.05" fill="#eb24cd" fill-rule="evenodd" transform="translate(-16.95 -37.4)"/><path d="m37.1 120.85 10.1-24.2.1-.05v-.05l.25.15 11.85 12.05-2.2 16.35-14.7-3.05-2.75-.55-2.55-.35-.1-.3" fill="url(#p)" fill-rule="evenodd" transform="translate(-16.95 -37.4)"/><path d="m47.25 96.55-.05.1v-.05l.05-.05" fill="#eb7795" fill-rule="evenodd" transform="translate(-16.95 -37.4)"/><path d="m20.85 109.15 22.65-10.8 3.65-1.75.05.05-10.1 24.2-.2.3-10.85-7.65-5.4-3.9.2-.45" fill="url(#q)" fill-rule="evenodd" transform="translate(-16.95 -37.4)"/><path d="m47.2 96.65-.05-.05h.05v.05m-10.3 24.5.2-.3.1.3-.25.05.15-.35-.15.35.25-.05-.05.15-.2-.1-.05-.05m1.85 3.45-.2-.05.45.15-.25-.1" fill="#ec4545" fill-rule="evenodd" transform="translate(-16.95 -37.4)"/><path d="m43.1 97.45-5.8.7q-12.8 2.65-16.95 5.05l-.3 1.8-2.35-7.7 25.4.15" fill="url(#r)" fill-rule="evenodd" transform="translate(-16.95 -37.4)"/><path d="m60.35 102.4 1.45 1 3.35 2.4 1.3 2.95.15.05 2.45 1.15-.2 8.45-9.45-9.65.95-6.35" fill="url(#s)" fill-rule="evenodd" transform="translate(-16.95 -37.4)"/><path d="m69.35 42.8-.05 5.95-.3 4.1.3-4.1-.25 61.2-2.45-1.15.05-.05q1.05-2.3 2.35-55.9l.25-9.3.1-.75m0-4.55v-.65.65" fill="url(#t)" fill-rule="evenodd" transform="translate(-16.95 -37.4)"/><path d="M66.1 120.9 44.55 139l-2 .5-3.6.55 2.15-1.7.65-.55 15.55-12.6.2-.15 2.8-1q3.1-1.1 5.7-3.25l.1.1" fill="url(#u)" fill-rule="evenodd" transform="translate(-16.95 -37.4)"/><path d="m59.4 108.75 9.45 9.65-.2.35q-.7.35-2.65 2.05-2.6 2.15-5.7 3.25l-2.8 1-.3.05 2.2-16.35" fill="url(#v)" fill-rule="evenodd" transform="translate(-16.95 -37.4)"/><path d="M38.95 140.05h-.05l-5.8-1.2-2.95-.45-.15-.1 7.15-17 .05-.15 2.55.35 2.75.55 14.7 3.05.1.1-15.55 12.6-.7-.9.35-.4-.05-.15-.3.2.05-.1-.6.5-.3.3.9 1.1-2.15 1.7m-.2-15.45.25.1-.45-.15.2.05m.9 13.05.55-.4q-.05 0-.15.1l-.4.3" fill="url(#w)" fill-rule="evenodd" transform="translate(-16.95 -37.4)"/><path d="m41.05 136.55.3-.2.05.15-.25.15-.1-.1" fill="#ecc0ff" fill-rule="evenodd" transform="translate(-16.95 -37.4)"/><path d="m41.4 136.5-.35.4.05-.2.05-.05.25-.15m-.35.1-.55.35.6-.5-.05.1v.05m-1.4 1.05.4-.3q.1-.1.15-.1l-.55.4" fill="#ece5ff" fill-rule="evenodd" transform="translate(-16.95 -37.4)"/><path d="m41.05 136.9.7.9-.65.55-.9-1.1.3-.3.55-.35.05.1-.05.2" fill="url(#x)" fill-rule="evenodd" transform="translate(-16.95 -37.4)"/><path d="m23 133.25-2.9-5.65-.55-1.4-2.3-26.15.25-.05q.55 3.25 2.8 9.35l.05.05.3.2L23 133.25" fill="url(#y)" fill-rule="evenodd" transform="translate(-16.95 -37.4)"/><path d="m30 138.3-5.7-4.05-1.3-1-2.35-23.65 5.4 3.9 10.85 7.65.05.05.2.1-7.15 17" fill="url(#z)" fill-rule="evenodd" transform="translate(-16.95 -37.4)"/><path d="m17.25 100.05-.3-3.3.55 3.25-.25.05" fill="#531278" fill-rule="evenodd" transform="translate(-16.95 -37.4)"/><path d="M53.05 1.05 52.4 5.4l-.05 5.95.75-10.25.05-.75-.1.7m-.65-.2V.2l-2.25 1.25-.05.1L11.45 53.2l4.85.65 14.75 2.9h.05l.35-.95 3.25-8.4L49 9.7l2.5-6.95-.05.6.95-2.5V.2h.05l.25-.2-.15.35-.15.4V2.4l.75-2.05m-.75.5-.05 1.65.05-.1v3l-.1.75-.25 9.3.3-4.1-.25 61.2v8.7l-.4.1-2.55 2.15-21.55 18.1-2 .5-3.6.55h-.05l-5.8-1.2-2.95-.45-.15-.1-5.7-4.05-1.3-1-2.9-5.65-.55-1.4L.3 62.65l-.3-3.3.55-.3.85-.45L50.1 1.55l.05-.1m1.3 1.9-.3 2.35 1.2-3.2-.05 3.65-8.05 52.75-.85 6.1 1.45 1 3.35 2.4 3.85-52.95q-1.3 53.6-2.35 55.9l-.05.05M51.9 81l.2.25m-.65-77.9L49 9.7M.75 59.35H0l.55 3.25q.55 3.25 2.8 9.35l.05.05.3.2 5.4 3.9 10.85 7.65.05.05.15-.35 10.1-24.2v-.05h-.05l-3.65 1.75M3.9 71.75l22.65-10.8M1.4 58.6l-.65.75m10.7-6.15L1.4 58.6m29.7-1.85h.05l.1.05 3.45-9.4m-3.35 9.4.15.15v-.05L51.15 5.7 43.3 64.9l.95-6m-12.9-2.1h-.1l-.85 2.3.95-2.3m-.25-.05-.85 2.4.05-.1.05-.05v.15l.25.15-.2-.2-.05.05.05-.05-.05-.1m0 .2-.05-.05h-.05v.05l.05-.05v-.1m.05.15v-.05h-.05m.3.15.9-2.35 4.95 3.3 4.75 3.2 2.1 1.45.1.1-.95 6.35L51.9 81l-.2.35q-.7.35-2.65 2.05m-.85-15 1.3 2.95.15.05m-9.1 16.25-.3.05 2.2-16.35L30.6 59.3m9.75 28.5.2-.15 2.8-1q3.1-1.1 5.7-3.25m-24.25 17 15.55-12.6m-16.2 13.15.65-.55m-4.55-16.65 2.55.35 2.75.55 14.7 3.05M3.7 72.2l.2-.45-.5.25m16.75 11.45.1.3-.25.05m.2.1.05-.15m-7.2 17.15 7.15-17M3.7 72.2l2.35 23.65m18.1 5.1-2.15 1.7" fill="none" stroke="#b9deff" stroke-linecap="round" stroke-linejoin="round" stroke-width=".05"/></g></defs></svg>