<svg viewBox="0 0 40.122 29.101" xmlns="http://www.w3.org/2000/svg" xmlns:xlink="http://www.w3.org/1999/xlink"><g transform="translate(-255.41 -185.9)"><use transform="translate(255.41 185.9) scale(.7844)" width="51.15" height="37.1" xlink:href="#a"/><use transform="translate(257.8 190.25)" width="33.45" height="20.65" xlink:href="#b"/><use transform="matrix(-.7844 0 0 .7844 281.11 193.2)" width="15.7" height="6.55" xlink:href="#c"/><use transform="translate(266.35 190.1)" width="20.3" height="8.9" xlink:href="#d"/><use transform="translate(270.29 191.8) scale(.7844)" width="15.7" height="6.55" xlink:href="#c"/></g><defs><g id="b"><path d="m272.7 190.45 11.4-.2.4 1.2 4.55-.25 1.75 2.3.45 7.1-1.2 4.45-3.7 5.35-5.25.5-1.55-2.05-8.3.2-3.6-2-5.75 1.1-2.9-1.8.2-1.95-1.4-.75.65-6.3.8-3.05 9.2-3.8 1.85 1.2 2.4-1.25" fill="#fff" fill-opacity=".2" fill-rule="evenodd" transform="translate(-257.8 -190.25)"/><path d="M283.55 191.65h.15l.3 1.05-.45-1.05.45 1.05-1.05.05.6-1.1m2.2 17.2-4.9.4.9-5.65 3.2-.6.8 5.85m-19.45-4.05-5.7-.95.05-5.7 5.45.55.2 6.1" fill="#757b93" fill-rule="evenodd" transform="translate(-257.8 -190.25)"/><path d="m259.7 197.75.05-.05 11.05.35 9.95-3.35 2.75-3.05h.05l-.6 1.1 1.05-.05 3.85-.2-2.65 4.7-.9 1.65-9.45 2.55-2.95-.15-1.3-.2v-.1l-4.5-2.25-5.45-.55-.95-.4m22.25-.95 3.25.4-3.25-.4" fill="#d5d7dd" fill-rule="evenodd" transform="translate(-257.8 -190.25)"/><path d="m280.85 209.25-1.5-1.65 1-6 1.4 2-.9 5.65m-11.45-2.75-3.1-1.7-.2-6.1 4.5 2.25v.1l-1.2 5.45m-8.8-2.65-1.55-.75.65-5.35.95.4-.05 5.7" fill="#9da2b3" fill-rule="evenodd" transform="translate(-257.8 -190.25)"/><path d="m271.6 207.65-2.05-1.1-.15-.05 1.2-5.45 1.3.2-.3 6.4" fill="#8c92a6" fill-rule="evenodd" transform="translate(-257.8 -190.25)"/><path d="m289.2 204.3-3.45 4.55-.8-5.85h.05l3.55-5.25h.2l.45 6.55m-9.85 3.3-7.75.05.3-6.4 2.95.15 5.45.15.05.05-1 6" fill="#61667c" fill-rule="evenodd" transform="translate(-257.8 -190.25)"/><path d="m289.9 194.7.4 5.8-1.1 3.8-.45-6.55v-.15l1.15-2.9" fill="#484b5b" fill-rule="evenodd" transform="translate(-257.8 -190.25)"/><path d="m259.75 197.7.7-2.55 8.55-3.25 1.75 1 2.25-1.1 10.5-.15-2.75 3.05-9.95 3.35-11.05-.35m9.05-3.9 1.95-.9-1.95.9" fill="#e9eaed" fill-rule="evenodd" transform="translate(-257.8 -190.25)"/><path d="M287.85 192.5h.45l1.55 1.95.05.25-1.15 2.9-.05.15h-.15l-3.35-.55 2.65-4.7m-13 8.9 9.45-2.55.9-1.65 3.35.55L285 203h-.05l-3.2.6-1.4-2-.05-.05-5.45-.15" fill="#c5c8cf" fill-rule="evenodd" transform="translate(-257.8 -190.25)"/><path d="m1.9 7.5.05-.05.7-2.55 8.55-3.25 1.75 1 2.25-1.1 10.5-.15h.05m.45 1.05 3.85-.2h.45l1.55 1.95m.05.25.4 5.8-1.1 3.8-3.45 4.55-4.9.4-1.5-1.65-7.75.05-2.05-1.1M8.5 14.55l-5.7-.95-1.55-.75.65-5.35m24.3-5.05-.45-1.05" fill="none" stroke="#000" stroke-linecap="round" stroke-linejoin="round" stroke-opacity=".302" stroke-width=".05"/><path d="m32.05 4.2.05.1v.15l-.05-.25M1.9 7.5l.95.4 5.45.55 4.5 2.25v.1l1.3.2 2.95.15 5.45.15.05.05 1.4 2 3.2-.6h.05l3.55-5.25h.15l.05-.15 1.15-2.9m-4.7 2.5-3.25-.4m-11.2-3.9-1.95.9M25.75 1.4l-.6 1.1 1.05-.05m4.75 5.05v-.15m-.2.15-3.35-.55" fill="none" stroke="#000" stroke-linecap="round" stroke-linejoin="round" stroke-opacity=".302" stroke-width=".4"/><path d="m260.9 203.25 3.1-.95 1.9 1.1-3.1 1.15-1.9-1.3" fill="#9da2b3" fill-rule="evenodd" transform="translate(-257.8 -190.25)"/><path d="m260.9 203.25 1.9 1.3-.2 2.6-2-1.1.3-2.8" fill="#8c92a6" fill-rule="evenodd" transform="translate(-257.8 -190.25)"/><path d="m262.8 204.55 3.1-1.15v3.15l-3.3.6.2-2.6" fill="#484b5b" fill-rule="evenodd" transform="translate(-257.8 -190.25)"/><path d="m8.1 13.15-1.9-1.1-3.1.95m5 .15v3.15l-3.3.6-2-1.1.3-2.8" fill="none" stroke="#000" stroke-linecap="round" stroke-linejoin="round" stroke-opacity=".302" stroke-width=".05"/><path d="m275.7 196.05-1.75.3 1.8-.65.15-.85.7.55 1.65-.7-.9.9 1.9-.05-1.95.5.05.9-.95-.75-1.55.8.85-.95" fill="#fff" fill-opacity=".4" fill-rule="evenodd" transform="translate(-257.8 -190.25)"/><path d="m264.4 195.9 1.9-.7h-.05l-.85.25-.95.4-.05.05m-.55.25-.05-.45q0-.3 1.2-.7l1.65-.4q.9-.15.9.3l-1.2.85q-1.25.7-1.9.7-.5 0-.6-.3m16.45-2.3.55.45.5.5.75.25v-.3q-.55 0-.55-.4l.2-.2.35.05-.1-.2.3-.1v-.05q0-.25.35-.35l1.5-.1 1.4-.15.35.4.55-.05.4.1.45.25-.2.35h-.65l-1.3.1-1.25.25.3.3.25.2.3-.1 1 .65.75.35.3.35-.6.55-1.1-.1-.6-.05-.2-.3-.4-.3.2-.3-.1-.3-.25-.45-.5-.05-.8.1.35.4-.3.25q-.6 0-1.55-.75l-1.05-.85-2-.65q-1.5-.45-1.5-.75 0-.25.25-.25l1.5.45 2.15.8m4.95 3.5q0-.3.9-.3 1.1 0 1.1.5l-.2.4-.6.2-.5-.05-.25.1-.7.15-.8-.2-.2-.4q0-.4.7-.4l.55.05v-.05" fill="#a62525" fill-opacity=".102" fill-rule="evenodd" transform="translate(-257.8 -190.25)"/><path d="M268.8 195.95h.2l-.85-.2q-.65-.15-.65-.35 0-.55 1.5-1.35t1.5-.1l-.3.35-.7.05q-.5.1-.95.65.45.05.45.4.65.2.65.55v.05l.15.3-.8.55q-.85.45-.85.75l.25.65.8.55.2.15 2.55.35 1.55-.25 1.85-.25H277l.3-.1q.25 0 .3.15h.3l.25-.15.65-.2.35.25-1.3.75h-.05l-.35.15-.85.4.2-.05.65-.25q1.2-.45 1.75-.55l3.45-.25 1-.05.25-.1.3.05.25-.1.4-.15.3-.1.25.3q0 .4-.6.5l-.55.1-.25.05-1.15.2q-.55.05-1.95.6l.1.25-.15.2-.2.2.2.6-.25.35-.5.2-.2.05-1.05-.1-3.1.05q-.2 0-.75.5l-.35.35-.1.6-.1.7q-.25.65-.35 1.95l-.35.9-.3.1q-.5 0-.65-1.3l-.05-.8-.1-.75-.05-.55-.15-.6-.1-.45-.05-.2-.4-.5.2-.45v-.05l-.7.05-1.75-.7-1.55-.9-.15.65-.45.5-.35-.2-.35.15-.25-.3.1-.4.15-.4-.3-.45-.25-.45.4-.35.45-.2.2-.3.4-.05-.1-.55.1-.4h-.2l-.5-.25v-.1l-.75.1-.45-.3q0-.2.35-.3l1-.2.55-.05.2-.1.2-.05h.7m5.3 5.25.1-.1q-.65.2-1.5.8l.15.5.3 1.2.25 1.7h.05l.3-1.7-.35-.1v-.25l.2-.95-.05-.45.3-.45.25-.2" fill="#a62424" fill-opacity=".153" fill-rule="evenodd" transform="translate(-257.8 -190.25)"/><path d="M265.55 195.2q-.15 0-.15.1l.05.1.35-.05v.05l-.5.25-.25-.2.4-.25h.1m4.55-1.1.65-.05.2.1.75.55.05.1-.2.4-.45.4-.6.35-.6.3q-.35 0-.35-.3 0-.25.55-.6l.75-.5-.55-.35-.2-.35v-.05m9.8 4.1.15.2-.4.3-2.3-.4-.2.05-.95.2-.85.25q-.3 0-.3-.3l.25-.2.7-.35.65-.2h.05l.6-.15.5.2 1.2.15.65.15.25.1m-.55 1.25-.4.15-2.05.5-.05-.05 1.55-.65 1.45-.35h.05l.95-.1.5.1h.05l-1.95.4h-.1m3.1-.35-.3-.15.25-.25.4-.15q.2 0 .3.15l.3.15h-.25v.2h-.05l-.3.15-.35-.1m-.3-4.7.2.35-.25.4-.35-.3-.15-.3.05-.25.15-.1.3.15.05.05m2.3 3.45v-.05l.05-.15.3-.05.25.2-.1.2-.2.05-.3-.1v-.1m1.95.1-.1-.2.2-.15h.05l.15.15-.05.15-.2.05h-.05m-10.45 2.5q.1-.15.35-.25l.55-.15v.1l-.85.35-.05-.05m-2.05 1.25-.2 1.1-.3 1.1h-.05l-.1-.45.25-1.15-.05-.55.1-.15.2.1h.15" fill="#760101" fill-rule="evenodd" transform="translate(-257.8 -190.25)"/><path d="m265.8 195.35-.35.05-.05-.1q0-.1.15-.1l.2-.15 1.05-.1v.25l-.85.05-.15.1m7 5.75.25.1.15.05.2.15h.05l-.25.2h-.2l-.45-.15-.35-.2v-.05q0-.25.5-.15l.1.05m.75.5-.05-.2.25-.2.25.2-.1.3h-.15l-.2-.1" fill="#fff" fill-rule="evenodd" transform="translate(-257.8 -190.25)"/><path d="M265.55 195.2h-.1l-.4.25.25.2.5-.25v-.05l.15-.1.85-.05v-.25l-1.05.1-.2.15m-1 .2q1.15-.55 1.9-.6.75-.1.75.25t-3.05 1.1q1.55-.75.4-.75m7.15-.7.1.2-.15.25.15.2-.15.25.1.25-.3.3-.35-.2h-.05l-.75.3q0 .25-.55.25l-.65-.2-.2.05-3 .4 2.9-.9.4-.1-.4-.3.1-.15h-.25l-.75.2.2-.55q0-.25.9-.6l1.1-.25v.05l.2.35.55.35-.75.5q-.55.35-.55.6 0 .3.35.3l.6-.3.6-.35.45-.4.2-.4-.05-.1m3.45 3.65-.75.35.05.15.2.1 2.75-.55.45.1 2 .25 1-.05.2-.15.15.05.55-.1.75-.45q.4-.3.65-.3l-.15-.25.25-.4.15-.15 4.7-1.1q-3.25.85-4.65 1.9l.2.45q0 .5 2.05.5l-2.55.35v-.2h.25l-.3-.15q-.1-.15-.3-.15l-.4.15-.25.25.3.15-3 .35 1.95-.4h-.05l-.5-.1-.95.1h-.05l-1.45.35-1.55.65.05.05 2.05-.5.4-.15.75.05q-1.8.1-6 1.9-.4 1.3-.75 5.45-.6-4.05-1.15-5.5l-.1-.05h.05l-.05-.1.1.05.35.2.45.15h.2l.25-.2h-.05l-.2-.15-.15-.05-.25-.1 5.1-1.9-2.8.65-.3-.2v-.05l.05-.15.05-.05-.25.05h.1l-.2-.05h-.7l-.55.15q-.3 0-.3-.35 0-.2.45-.3l.1-.05-.2-.2.75-.2 1.05-.1m7-3.95.9-.05-.15.3.3.3v.05l1.15.5q.3.2-.25.55l-.2-.2.05.3.05.15.1.2-.65.2.65-.15q1.65-.3-.65.35l.1-.05-.25-.55-.45-.45-.95-.55-.55-.1-.35-.2v-.2l.5-.4h.05v-.05l.1-.05-.05.25.15.3.35.3.25-.4-.2-.35m-.35-.2-.05-.05v-.05l.05-.2q.1-.35.5-.35l.4.25v.1q-.05.2-.4.2l.05.05.3-.05 4.45-.2-5 .45-.3-.15m3.15 3.8.1-.2-.25-.2-.3.05-.05.15v.05l-.15-.2q0-.3.55-.3l.45.25.2.25.25.15h-.8m1.6-.4h-.05l-.2.15.1.2h-.2q-.3 0-.3-.3 0-.25.35-.25l.3.2m-10.6 2.85.05.05.85-.35v-.1l-.55.15q-.25.1-.35.25m-1.35 0v.05l-.55.15.35-.25q-.4-.25-.1-.25l.3.3m-.7 1.25.1-.3-.25-.2-.25.2.05.2-.1.15.05.55-.25 1.15.1.45h.05l.3-1.1.2-1.1m-.25-1.2q-.55.2-.65-.3l.6.05q-.05-.3.1-.3l.2.2-.15.35q-.2.2-.1 0" fill="#900" fill-opacity=".843" fill-rule="evenodd" transform="translate(-257.8 -190.25)"/><path d="m281.05 198.55-.2.15-1 .05-2-.25-.45-.1-2.75.55-.2-.1-.05-.15.75-.35.15-.05-.25.2q0 .3.3.3l.85-.25.95-.2.2-.05 2.3.4.4-.3-.15-.2h.95l.2.25v.1m-3.25-.75 1.85.3-.65-.15-1.2-.15" fill="#900" fill-rule="evenodd" transform="translate(-257.8 -190.25)"/><path d="M267.8 197.55v-.15l.05-.15q.25-.55 4.8-2.7l3.7-1.85 1.4-.95.65-.7.6-.5.55.05q1.25.65 4.9.65l-.1.1v.05l-.6.75-.95.9-.15.15q-1-1.3-4.1-1h-.25l-1.25.3-5.75 3.1q-3.65 2-3 2.65l-.4-.45v-.05l-.1-.2" fill="#fec4ab" fill-rule="evenodd" transform="translate(-257.8 -190.25)"/><path d="m269.75 199.6-1.15-.55q-.7-.45-.8-.85v-.65l.1.2v.05l.4.45v.05l.3.15 1.2.55-.05.6" fill="#f96" fill-rule="evenodd" transform="translate(-257.8 -190.25)"/><path d="m279.55 190.6 5.05.15.05.1-.2.4q-3.65 0-4.9-.65m-9.75 8.4-1.2-.55-.3-.15v-.05q-.65-.65 3-2.65l5.75-3.1 1.25-.3h.25q3.1-.3 4.1 1l-4.1 2.9-2.45 1.5-3.25 1.4-1.5.2-1.55-.2m.65-2.1q-.9.5-.9.95l.45.35.7.15q1.6 0 3.8-.75 1.95-.7 3.3-1.6l1.7-1.05 1.55-1 .7-.5q-.15-.2-.65-.25l-1.35-.15q-.95-.2-2.75.4l-1.95.65-2.7 1.75-1.9 1.05" fill="#feb192" fill-rule="evenodd" transform="translate(-257.8 -190.25)"/><path d="m270.45 196.9 1.9-1.05 2.7-1.75 1.95-.65q1.8-.6 2.75-.4l1.35.15q.5.05.65.25l-.7.5-1.55 1-1.7 1.05q-1.35.9-3.3 1.6-2.2.75-3.8.75l-.7-.15-.45-.35q0-.45.9-.95" fill="#f7ad8f" fill-rule="evenodd" transform="translate(-257.8 -190.25)"/><path d="m284.65 190.85.3.35v.05l.4 1.45h-.45l-.25-1.2-.9 1.3-.85.8-.1.1-4.25 3-2.3 1.45-.15-.55 2.45-1.5 4.1-2.9.15-.15.95-.9.6-.75v-.05l.1-.1.2-.4" fill="#b36b47" fill-rule="evenodd" transform="translate(-257.8 -190.25)"/><path d="m276.25 198.15-3.35 1.45-.05-.6 3.25-1.4.15.55" fill="#bf724c" fill-rule="evenodd" transform="translate(-257.8 -190.25)"/><path d="m284.9 192.7-1.15.1.9-1.3.25 1.2" fill="#804c33" fill-rule="evenodd" transform="translate(-257.8 -190.25)"/><path d="m272.9 199.6-1.55.2-1.6-.2.05-.6 1.55.2 1.5-.2.05.6" fill="#cc7a51" fill-rule="evenodd" transform="translate(-257.8 -190.25)"/><path d="M11.95 9.35 10.8 8.8q-.7-.45-.8-.85v-.8l.05-.15q.25-.55 4.8-2.7l3.7-1.85 1.4-.95.65-.7.6-.5.55.05L26.8.5l.05.1.3.35V1l.4 1.45h-.45l-1.15.1-.85.8-.1.1-4.25 3-2.3 1.45-3.35 1.45-1.55.2-1.6-.2m14-6.8.9-1.3.25 1.2" fill="none" stroke="#000" stroke-linecap="round" stroke-linejoin="round" stroke-opacity=".263" stroke-width=".05"/></g><g id="g" fill="#804b33" fill-opacity=".349" fill-rule="evenodd"><path d="m-7.05-2.15-.05.1h-.25l-.35-.05-.15-.15.05-.05.3-.05.3.1.15.1M-3.4-3.05l-.05.1h-.25L-4.05-3l-.15-.15.05-.05.3-.05.3.1.15.1M-5.1-2.7l-.05.1h-.25l-.35-.05-.15-.15.05-.05.3-.05.3.1.15.1M-5.45-1.2l-.05.1h-.25l-.35-.05-.15-.15.05-.05.3-.05.3.1.15.1M-1.8-2.1l-.05.1h-.25l-.35-.05-.15-.15.05-.05.3-.05.3.1.15.1M-3.5-1.75l-.05.1h-.25l-.35-.05-.15-.15.05-.05.3-.05.3.1q.15 0 .15.1M-3.1 0l-.05.1h-.25l-.35-.05-.15-.15.05-.05.3-.05.3.1.15.1M.55-.9.5-.8H.25L-.1-.85-.25-1l.05-.05.3-.05.3.1.15.1M-1.15-.55l-.05.1h-.25L-1.8-.5l-.15-.15.05-.05.3-.05.3.1.15.1M-.7 1.15l-.05.1H-1l-.35-.05-.15-.15.05-.05.3-.05.3.1q.15 0 .15.1M2.95.25l-.05.1h-.25L2.3.3 2.15.15 2.2.1l.3-.05.3.1q.15 0 .15.1M1.25.6 1.2.7H.95L.6.65.45.5.5.45.8.4l.3.1.15.1M1.9 2.35l-.05.1H1.6l-.35-.05-.15-.15.05-.05.3-.05.3.1q.15 0 .15.1M5.55 1.45l-.05.1h-.25L4.9 1.5l-.15-.15.05-.05.3-.05.3.1q.15 0 .15.1M3.85 1.8l-.05.1h-.25l-.35-.05-.15-.15.05-.05.3-.05.3.1q.15 0 .15.1M4.2 3.2l-.05.1H3.9l-.35-.05-.15-.15.05-.05.3-.05.3.1.15.1M7.85 2.3l-.05.1h-.25l-.35-.05-.15-.15.05-.05.3-.05.3.1.15.1M6.15 2.65l-.05.1h-.25L5.5 2.7l-.15-.15.05-.05.3-.05.3.1q.15 0 .15.1" transform="translate(7.85 3.25)"/></g><g id="d"><path d="m272.1 190.15.6-.05.65.4.1.15.6.55 1.45.8.95.45 2.9 1.2 2.3.95h-.05l.2.1q2.25.9 2.5 1.3v.3l-.05.2-.05.05-.3.5q.55-.7-3.2-2.4l-5.95-2.7-1.25-.25h-.25q-2.3-.1-3.4.65l-.5.5-.15.1-.15-.1-.25-.15-.7-.7-.7-.75-.1-.1q3.65-.25 4.8-1m3.85 7.25.1-.55 1.85.75 1.5.45-.05.65q-1.45-.35-3.4-1.3" fill="#fec4ab" fill-rule="evenodd" transform="translate(-266.35 -190.1)"/><path d="M272.1 190.15q-1.15.75-4.8 1l-.25-.35.05-.15 4.4-.4.6-.1m-2.9 2.8.15-.1.5-.5q1.1-.75 3.4-.65h.25l1.25.25 5.95 2.7q3.75 1.7 3.2 2.4h-.05l-.3.15-1.15.65-1.5.3-1.5-.1-1.5-.45-1.85-.75-2.5-1.3-4.2-2.5h-.05l-.1-.1m1.25.05q-.25.05-.35.2l.75.4.9.5.75.4 1.75.9q1.45.85 3.4 1.35l3.8.55.7-.2.45-.4q-.05-.4-1-.9l-1.95-.9q-2-1.2-2.8-1.55l-1.95-.5-2.8-.25-1.3.25-.35.15" fill="#feb192" fill-rule="evenodd" transform="translate(-266.35 -190.1)"/><path d="m270.45 193 .35-.15 1.3-.25 2.8.25 1.95.5q.8.35 2.8 1.55l1.95.9q.95.5 1 .9l-.45.4-.7.2-3.8-.55q-1.95-.5-3.4-1.35l-1.75-.9-.75-.4-.9-.5-.75-.4q.1-.15.35-.2" fill="#f7ad8f" fill-rule="evenodd" transform="translate(-266.35 -190.1)"/><path d="m267 192.65.1-1.25.75.9-.85.35" fill="#804c33" fill-rule="evenodd" transform="translate(-266.35 -190.1)"/><path d="m267.3 191.15.1.1.7.75.7.7.25.15.15.1.1.1h.05l4.2 2.5 2.5 1.3-.1.55-2.4-1.25-4.45-2.7-.1-.05-.2-.2h-.1l-.6-.55-.25-.35-.75-.9-.1 1.25v.05l-.65.15.45-1.65v-.05l.25-.35.25.35" fill="#fecfbc" fill-rule="evenodd" transform="translate(-266.35 -190.1)"/><path d="m279.35 198.7.05-.65 1.5.1 1.5-.3.05.65-1.5.3h-.25l-1.35-.1" fill="#e6af9a" fill-rule="evenodd" transform="translate(-266.35 -190.1)"/><path d="m283.9 197.05.3-.5.05-.05.05-.2.05.4v.25l-.7.9-1.2.65-.05-.65 1.15-.65.3-.15h.05" fill="#cc9c88" fill-rule="evenodd" transform="translate(-266.35 -190.1)"/><path d="M284.3 196.3v-.3q-.25-.4-2.5-1.3 4.5 1.2 4.8 1.7l.05.1v.35q-.05.35-1.1 1.3-1.1.9-2.95.85l-1.9-.2h.25l1.5-.3 1.2-.65.7-.9v-.25l-.05-.4m-2.65-1.7-2.3-.95-2.9-1.2q.5.1.85-.3l1.05.5 2.3.95 1.1.3-.05.7h-.05" fill-opacity=".2" fill-rule="evenodd" transform="translate(-266.35 -190.1)"/><path d="M17.95 6.2v-.3q-.25-.4-2.5-1.3l-.1-.1h-.05L13 3.55l-2.9-1.2-.95-.45-1.45-.8-.6-.55L7 .4 6.35 0l-1.2.15-4.4.4L.7.7l-.25.35v.05L0 2.75l.65-.15v-.05l.1-1.25.75.9m.25.35.6.55h.1l.2.2.1.05 4.45 2.7L9.6 7.3q1.95.95 3.4 1.3l1.35.1h.25l1.5-.3M.65 2.55l.85-.35m16.45 4 .05.4v.25l-.7.9-1.2.65" fill="none" stroke="#000" stroke-linecap="round" stroke-linejoin="round" stroke-opacity=".263" stroke-width=".05"/></g><use width="51.15" height="37.1" xlink:href="#e" id="a"/><use width="15.7" height="6.55" xlink:href="#g" id="c"/><radialGradient id="f" cx="0" cy="0" r="819.2" gradientTransform="matrix(.0063 -.0234 .0331 .0089 .05 0)" gradientUnits="userSpaceOnUse"><stop stop-color="#fff" offset="0"/><stop stop-color="#fff" stop-opacity="0" offset="1"/></radialGradient><path d="m-2.75-18.25 17.35-.3.7 2.2 6.95-.45 2.6 4.1L25.6.05 23.75 8.1l-5.65 9.55-8 .9L7.65 15-5 15.2l-5.4-3.5-8.85 1.9-4.45-3.2.35-3.45-2.2-1.4 1-11.35 1.25-5.4 14.05-6.85 2.85 2.1 3.65-2.3" fill="url(#f)" fill-rule="evenodd" transform="translate(25.55 18.55)" id="e"/></defs></svg>