<svg viewBox="0 0 188.19 207.52" xmlns="http://www.w3.org/2000/svg" xmlns:xlink="http://www.w3.org/1999/xlink"><g transform="translate(-78.394 -31.06)"><use transform="translate(78.4 31.1)" width="188.15" height="207.45" xlink:href="#a"/><use transform="translate(102.05 87.45)" width="105.35" height="124.7" xlink:href="#b"/></g><defs><linearGradient id="e" x1="-819.2" x2="819.2" gradientTransform="matrix(.0111 0 0 .0388 257.45 153.8)" gradientUnits="userSpaceOnUse"><stop stop-color="#ffc501" offset=".027"/><stop stop-color="#965500" offset=".404"/></linearGradient><linearGradient id="f" x1="-819.2" x2="819.2" gradientTransform="matrix(.0225 0 0 .018 244.9 122.3)" gradientUnits="userSpaceOnUse"><stop stop-color="#ffc501" offset=".027"/><stop stop-color="#965500" offset=".404"/></linearGradient><linearGradient id="g" x1="-819.2" x2="819.2" gradientTransform="matrix(-.0003 .0071 -.0197 -.0008 70.35 48.15)" gradientUnits="userSpaceOnUse"><stop stop-color="#886b52" stop-opacity=".761" offset="0"/><stop stop-color="#775a46" stop-opacity=".761" offset="1"/></linearGradient><linearGradient id="h" x1="-819.2" x2="819.2" gradientTransform="matrix(.0001 .0022 -.0025 .0001 60.95 62.65)" gradientUnits="userSpaceOnUse"><stop stop-color="#c78f11" stop-opacity=".761" offset="0"/><stop stop-color="#ae7705" stop-opacity=".761" offset="1"/></linearGradient><radialGradient id="c" cx="0" cy="0" r="819.2" gradientUnits="userSpaceOnUse"><stop stop-color="#ffc501" offset="0"/><stop stop-color="#965500" offset=".667"/></radialGradient><radialGradient id="d" cx="0" cy="0" r="819.2" gradientUnits="userSpaceOnUse"><stop stop-color="#ffc501" offset=".627"/><stop stop-color="#965500" offset=".914"/></radialGradient><g id="a"><path d="M174 43.5q7.3-2.4 14.5-.15 16.8 5.5 30 18.05l17.65 17.1q10.4 10.2 8.4 24.55l-4.5 2-6.5-1q-11.4-19-24.3-37.25-13.3-18.95-35.25-23.3m11.15 33.8q-.1-5.1 1.85-9.75 5.3 1.4 9.65 4.45 13.95 9.7 16.9 26.55l-7.75-1.6q-16.4-2.25-20.55-17.85l-.1-1.8" fill="#f0f0be" fill-rule="evenodd" transform="translate(-78.4 -31.1)"/><path d="M214.35 206.95q10.9-12.15 9.2-29.4l1.5 1 2.5 1q3.45 12.7-.9 25.7-6.15 18.3-22.7 20.35l.1-1.55h-7l-.5-2q3.05-2.95 7.25-4.6l2.85-1.5q2.9-2.15 5.3-4.95 1.5-1.75 2.4-4.05" fill="#f7e93c" fill-rule="evenodd" transform="translate(-78.4 -31.1)"/><path d="m178.75 235 1.25-4.45.25 1.4 4.5-13.9q3.65-11.7 8.3-23.1 1.25-3 2.75-5.85l3.1-5.8 1.65-2.75q-1.3 7.35-3 14.65l-2.65 9.5-1.3 4.6q-.3 1.2-.45 2.45l-.1 1.3 2 2.5q2.6-2.15 4.55-4.85 4.05-5.55 6.8-11.9l2.55-6.2q2.6-6.5 5.35-12.95l.75-1.1q-.1-6.05-1.15-12.2-.95-5.55-.7-11.1.25-4.95 2.65-9.1l1.85-2.7q1-1.3 2.25-2.45l2.6-2.45 4 .5q1.75 6.75 1.15 13.7-.55 6.05-2 12l-3.7 14.6-4.8 17.25-2.85 10.35q-.9 2.3-2.4 4.05-2.4 2.8-5.3 4.95l-2.85 1.5q-4.2 1.65-7.25 4.6l.5 2h7l-.1 1.55-.4 5.95q-2.5 3.45-6.55 4.85-3.1 1-5.5-1.35l-8.45-1.25q-1.85-.4-2.8-1.85l-1.1 3.15-.4-.1" fill="#d67e00" fill-rule="evenodd" transform="translate(-78.4 -31.1)"/><path d="M174 43.5q21.95 4.35 35.25 23.3 12.9 18.25 24.3 37.25l6.5 1 4.5-2q2-14.35-8.4-24.55L218.5 61.4q-13.2-12.55-30-18.05-7.2-2.25-14.5.15m62.55 79.8-1.75-3.85q-7.6-15.95-16.85-31.1-16.2-26.4-47.5-33.3-29.35-6.25-54.85 6.3-25.55 12.5-28.2 46.4-2.35 30.15 9.05 53.85l3.05 5.85q8.55 14.9 18.15 27.85 6.95 9.4 14.5 17.75-22.85-15.7-36.85-39.4t-16.45-50.9q-2.7-29.6 11.5-55.45 15.15-27.5 45.9-34.2 29.8-6.45 57.6 7.75 25.05 12.7 45.25 31.9 16.05 15.2 22.65 35.3h-.15q-1.1.05-2-.5-1.9 1.05-4.1 1.6-5.35 1.4-9.9 4.4l-.5.5q-4 4.9-8.55 9.25m7.7 89.05 2.25-34.45q1.25-22.6-5.8-43.85 1.95-1.3 2.85-4h.55l4.45-.25q3.2-.7 5.55-2.25l-.5-3.5h-2q-1.05-.25-1.7.25-1.2 1-2.8 1.25 3.1-2.2 5.3-5.15 1.8-2.4 4.2-4.35l5-.5 1-1.5.7-.7q1.1 4.3 1.85 8.85l-.55-.15h-.5q-3 4.15-2.65 8.95.2 2.7-.85 5.05l-4 3-5-.5-1.5 5-1 .5-.45.1q-.3.15-.3.4l.25 1q2.7.15 5.05 1.4l3.95 2.6q-1.5 14.15-2.9 30-.3 3.35 1.9 6l2.25-.05q-5.35 14.45-14.6 26.85" fill="url(#c)" fill-rule="evenodd" transform="translate(-78.4 -31.1)"/><path d="m185.15 77.3.1 1.8q4.15 15.6 20.55 17.85l7.75 1.6Q210.6 81.7 196.65 72q-4.35-3.05-9.65-4.45-1.95 4.65-1.85 9.75m-53 135.75q-7.55-8.35-14.5-17.75-9.6-12.95-18.15-27.85l-3.05-5.85q-11.4-23.7-9.05-53.85 2.65-33.9 28.2-46.4 25.5-12.55 54.85-6.3 31.3 6.9 47.5 33.3 9.25 15.15 16.85 31.1l1.75 3.85q-3.6 3.45-7.5 6.5l1-.75-2.4 2.6q-1.3 1.6-1.1 3.4l2 2 1.45-.2q3.6-1.1 7.9-1.75 1.6-.25 2.8-1.05 7.05 21.25 5.8 43.85l-2.25 34.45q-5.6 7.35-12.7 13.65-19.7 17.45-46.6 10.65l-5.8-1.55 1.1-3.15q.95 1.45 2.8 1.85l8.45 1.25q2.4 2.35 5.5 1.35 4.05-1.4 6.55-4.85l.4-5.95q16.55-2.05 22.7-20.35 4.35-13 .9-25.7l-2.5-1-1.5-1q1.7 17.25-9.2 29.4l2.85-10.35 4.8-17.25 3.7-14.6q1.45-5.95 2-12 .6-6.95-1.15-13.7l-4-.5-2.6 2.45q-1.25 1.15-2.25 2.45l-1.85 2.7q-2.4 4.15-2.65 9.1-.25 5.55.7 11.1 1.05 6.15 1.15 12.2l-.75 1.1q-2.75 6.45-5.35 12.95l-2.55 6.2q-2.75 6.35-6.8 11.9-1.95 2.7-4.55 4.85l-2-2.5.1-1.3q.15-1.25.45-2.45l1.3-4.6 2.65-9.5q1.7-7.3 3-14.65l-1.65 2.75-3.1 5.8q-1.5 2.85-2.75 5.85-4.65 11.4-8.3 23.1l-4.5 13.9-.25-1.4-1.25 4.45q-17.8-5.2-34.1-14.2l-2.15-1.25-2.1-1.2q-4.25-2.5-8.25-5.3" fill="url(#d)" fill-rule="evenodd" transform="translate(-78.4 -31.1)"/><path d="m265.15 122.2.4 3.05q3.6 29.2-5.6 57l-1.1 3.25-2.25.05q-2.2-2.65-1.9-6 1.4-15.85 2.9-30l-3.95-2.6q-2.35-1.25-5.05-1.4l-.25-1q0-.25.3-.4l.45-.1 1-.5 1.5-5 5 .5 4-3q1.05-2.35.85-5.05-.35-4.8 2.65-8.95h.5l.55.15" fill="url(#e)" fill-rule="evenodd" transform="translate(-78.4 -31.1)"/><path d="M236.55 123.3q4.55-4.35 8.55-9.25l.5-.5q4.55-3 9.9-4.4 2.2-.55 4.1-1.6.9.55 2 .5h.15l1.55 5.3-.7.7-1 1.5-5 .5q-2.4 1.95-4.2 4.35-2.2 2.95-5.3 5.15 1.6-.25 2.8-1.25.65-.5 1.7-.25h2l.5 3.5q-2.35 1.55-5.55 2.25l-4.45.25h-.55q-.9 2.7-2.85 4-1.2.8-2.8 1.05-4.3.65-7.9 1.75l-1.45.2-2-2q-.2-1.8 1.1-3.4l2.4-2.6-1 .75q3.9-3.05 7.5-6.5" fill="url(#f)" fill-rule="evenodd" transform="translate(-78.4 -31.1)"/><path d="M183.35 76.95q-6.6-20.1-22.65-35.3-20.2-19.2-45.25-31.9Q87.65-4.45 57.85 2 27.1 8.7 11.95 36.2-2.25 62.05.45 91.65q2.45 27.2 16.45 50.9t36.85 39.4q4 2.8 8.25 5.3l2.1 1.2 2.15 1.25q16.3 9 34.1 14.2m.4.1 5.8 1.55q26.9 6.8 46.6-10.65 7.1-6.3 12.7-13.65m19.05-99q1.1 4.3 1.85 8.85l.4 3.05q3.6 29.2-5.6 57l-1.1 3.25q-5.35 14.45-14.6 26.85m17.5-104.3 1.55 5.3M100.75 204l-.4-.1" fill="none" stroke="#000" stroke-linecap="round" stroke-linejoin="round" stroke-opacity=".302" stroke-width=".05"/></g><g id="b"><path d="m12.2-9 7.55 6.25L20.8 5l8.4 10.8-2.65-1.45-5.55-3-5.45-.25L12.2-9M28.4 6l12.95 22.7 2.55 5.4-.65.3 1.35 3.9-13.9-11.9-.5-5.95 2.85.35-2.6-3.4-2.65-8.2.6-3.2m10.85 22.65-6.2-7.85 6.2 7.85" fill="#b39b72" fill-opacity=".761" fill-rule="evenodd" transform="translate(0 9)"/><path d="m71.75 39.25 1.6-5.45L94.3-4.9q1.8 21.65-5.35 36.15Q82.1 45.35 71.5 43.2l.7-3.45-.45-.5m33.1 65.45.5 1.05q.2 2.5-2.2 3.25-2.35.75-5.75-.6l.65-6.3-5.25-8.85 12.05 11.45m-22.4-82.5-.2-1.45L81 23.1l1.45-.9 5.45-3.35-5.45 3.35m5.5-11.8-5.7 10.35 5.7-10.35M81 23.1l-6.5 11.8L81 23.1" fill="#958154" fill-opacity=".361" fill-rule="evenodd" transform="translate(0 9)"/><path d="m82.25 20.75.2 1.45-1.45.9 1.25-2.35" fill="#a99066" fill-opacity=".761" fill-rule="evenodd" transform="translate(0 9)"/><path d="m83.25 86.65.3-.4-.35 2.85-.4 2.8-4.6-.2 2.3-1.05 2.75-4-.05 2.45.05-2.45" fill="#856d5a" fill-opacity=".761" fill-rule="evenodd" transform="translate(0 9)"/><path d="M73.8 58.85 80.85 70l2.2 8.65.2 8-2.75 4-2.3 1.05 4.6.2.4-2.8-.15 4.3-10.95-1.05 7.1 4.3q.1 1.2-.25 1.8-.35.65-.9.45l-5-3.6-5.25-2.9-4.7-1.55-1.15-.25-13.25-7.3 3.55 1.3-4.75-5.7.2-.9 4.1 2.8 5.5 3.75 11.8 5.15 2.4.35 7.75-4.85 1.35-1.4-.65-.9-.7-3-6.95-18.8-.75-4.2 2.15 1.85.1.1m-3.8-3.3-.9 3.5-1.7-.55.65-1.6-3.6-4-4.6-1.2 6.6 6.7-7.7 7.85-2.65-3-4.2-4.8-6.85 5.1 13.1-13.6 7.2 2.65L70 55.55" fill="url(#g)" fill-rule="evenodd" transform="translate(0 9)"/><path d="m80.85 70 13.1 13.7-4.65-.8 9.75 9.9 5.8 11.9L92.8 93.25l-3.15-6.4-1.7 4.3-4.9-12.5-2.2-8.65" fill="#958154" fill-opacity=".761" fill-rule="evenodd" transform="translate(0 9)"/><path d="m93.95 83.7 5.1 9.1-9.75-9.9 4.65.8m3.45 24.7-9.45-17.25 1.7-4.3 3.15 6.4 5.25 8.85-.65 6.3" fill="#958154" fill-opacity=".522" fill-rule="evenodd" transform="translate(0 9)"/><path d="m43.9 34.1.75-.3 3.55 5.95 1.4 2.7.65 3.65-.2.9-6.6 4.25.85-.25q.05 1.6-.25 2.4-.3.75-.75.45-.4-.25-.75-1.35l-.35-2.3.1-1.95.75-3 2.8-1.9-.95-3.65-.3-1.4-1.35-3.9.65-.3M31.05 54.15l.05-.5 2.55.05 2.35.2 2.55.55 1.8.4.55 1.3v.2l-.1.3-9.85-2.25.1-.25" fill="#846750" fill-opacity=".761" fill-rule="evenodd" transform="translate(0 9)"/><path d="m48.2 39.75 3.1.1-.5.15-.25 1.15 1.9 1.1.85-1.35-1.6-1h2.1q.1 1.6.95 2.8.85 1.25 1.95 1.45l-6.3-.2-.8-1.5-1.4-2.7m-4.4 1.55 1.3-.65.3 1.8-2.35 2.8-.75 3-.65.65q-1.75.85-3.55 1.75l.5-4.45 5.2-4.9" fill="#bf6c05" fill-opacity=".761" fill-rule="evenodd" transform="translate(0 9)"/><path d="m67.65 50 4.1-10.75.45.5-.7 3.45-.4 4 1.6 9.7-4.55-5.3-.4-1.15-.1-.35V50m-19.4 36.1q-.95-.4-1.7-1.7-.75-1.35-.85-2.9l.25-.4-2.15-2.7-.4-.55-1.3-2.25-.35-.75-.7-2.25.15-2.85.35-1 .95-4.9q-.25-7.35 4.15-11.35 4.5-4.2 11.5-2.55l-13.1 13.6 6.85-5.1 4.2 4.8q-3.5-.95-5.8 1.6-2.25 2.5-2.1 7.15l-.35.4 1.9 5.15.05.1 2 3.15-4.1-2.8-.2.9 4.75 5.7-3.55-1.3 13.25 7.3-6.4-1.1-7.3-3.4M45.1 40.65l-.2-.95.95 3.65-2.8 1.9 2.35-2.8-.3-1.8m4.5 1.8.8 1.5-.15 2.15-.65-3.65M44.3 51l-.85.25 6.6-4.25q.1 2.25-1.65 3.45-1.65 1.15-4.1.55m-9.45 5.7-3.95-1.75.05-.55 9.85 2.25-.55 2.95-.15 4.35-.8.3-1.8-2.5-1.6-3.05-.05-1.35-1-.65m37.45 4.4 6.95 18.8-4.1-9.95-3.05 2.25q-2.65-.75-4.35.55-1.7 1.25-1.6 3.8l-2.25 1.6.25 1.45-.05 1.1 1.6 1.75 5.8 7.6-2.4-.35-11.8-5.15 3.45-3.65 1.75-1-.35-.7-3.4-12.95 7.7-7.85.4.4.55-.3 1.7.55 2.05 7.35 1.15-5.3" fill="#664836" fill-opacity=".761" fill-rule="evenodd" transform="translate(0 9)"/><path d="m42.3 48.25-.1 1.95-1.3 5.95-.55-1.3-1.8-.4 3.1-5.55.65-.65m-1.5 8.4.1-.3 1.6 7.5-.95 4.9-1.3-9.15.55-2.95" fill="#b46207" fill-opacity=".761" fill-rule="evenodd" transform="translate(0 9)"/><path d="m50.4 43.95 6.3.2 6.1 2.3 2.55 6.15-7.2-2.65q-7-1.65-11.5 2.55-4.4 4-4.15 11.35l-1.6-7.5v-.2l1.3-5.95.35 2.3q.35 1.1.75 1.35.45.3.75-.45.3-.8.25-2.4 2.45.6 4.1-.55 1.75-1.2 1.65-3.45l.2-.9.15-2.15m7.45 2.45q0 .55.6 1.1l1.45.7 1.4-.1q.6-.25.55-.85t-.65-1.1q-.6-.55-1.45-.7l-1.4.1q-.55.25-.5.85" fill="#c2710c" fill-opacity=".761" fill-rule="evenodd" transform="translate(0 9)"/><path d="m51.3 39.85.4.05 1.6 1-.85 1.35-1.9-1.1.25-1.15.5-.15m6.55 6.55q-.05-.6.5-.85l1.4-.1q.85.15 1.45.7.6.5.65 1.1t-.55.85l-1.4.1-1.45-.7q-.6-.55-.6-1.1" fill="#c79138" fill-opacity=".761" fill-rule="evenodd" transform="translate(0 9)"/><path d="m53.8 39.9 9 6.55L67.65 50v.1l-.1.1.2.25.4 1.15 4.55 5.3.65 1.05.35.8-2.15-1.85-.5-.75q-.45-.35-1.05-.6l-4.65-2.95-2.55-6.15-6.1-2.3q-1.1-.2-1.95-1.45-.85-1.2-.95-2.8m13.75 10.3-4.75-3.75 4.75 3.75" fill="#c77f14" fill-opacity=".761" fill-rule="evenodd" transform="translate(0 9)"/><path d="M19.75-2.75 28.4 6l-.6 3.2 2.65 8.2 2.6 3.4-2.85-.35.5 5.95-9.05-7.5 4.05-.6.85-3.95 2.65 1.45 1.25 1.6-1.25-1.6L20.8 5l-1.05-7.75" fill="#ab9970" fill-opacity=".761" fill-rule="evenodd" transform="translate(0 9)"/><path d="m21.65 18.9-6.1-7.8 5.45.25 5.55 3-.85 3.95-4.05.6" fill="#b79e73" fill-opacity=".761" fill-rule="evenodd" transform="translate(0 9)"/><path d="m37.65 66.1-.85-2.25-.9-5.15 1.6 3.05.25 3.85-.1.5m.9-11.65L36 53.9l2.6-7.7-.5 4.45q1.8-.9 3.55-1.75l-3.1 5.55" fill="#ab5807" fill-opacity=".761" fill-rule="evenodd" transform="translate(0 9)"/><path d="M34.05 57.05q.25 7.5-7.85 10-7.65 2.4-17.75-1.3l6.35-3L19 57.2l-7.95 1.3-2.8 1.3-7.5-2.15 30.3-3.5-.1.25-.05.55 3.95 1.75-.8.35M19 57.2l9.7-1.6-9.7 1.6" fill="#bb9f74" fill-opacity=".761" fill-rule="evenodd" transform="translate(0 9)"/><path d="m36.8 63.85-2.75-6.8.8-.35 1 .65.05 1.35.9 5.15M33.65 53.7q-.15-6.1 2.75-9.7 2.9-3.65 7.4-2.7l-5.2 4.9-2.6 7.7-2.35-.2" fill="#a05207" fill-opacity=".761" fill-rule="evenodd" transform="translate(0 9)"/><path d="m41.7 76.15-2 3.7-.65-1.3 2.25-2.95.45-.75.35.75-.4.55m-1.8-3.3-4.3 2.45-.3-1.3 4.35-1.85.95-.55-.25-1.85h.85l-.15 2.85-1.15.25m-1.55-4.55-8.45.25.8-.95-.05-.8 6.9-.1.1-.6.1-.5.2-.5 1.1.45-.3 1.25.8 1.6-.65.6-.55-.7M27.5 73.1l-1.35.8.35-1.6-1.45-.95.15-1 2.6.6-.3 2.15" fill="#5e4319" fill-opacity=".761" fill-rule="evenodd" transform="translate(0 9)"/><path d="m45.7 81.5-4-5.35.4-.55 1.3 2.25.4.55 2.15 2.7-.25.4m-4.4-5.9-1.4-2.75 1.15-.25.7 2.25-.45.75m-1.65-3.45-1.3-3.85.55.7.65-.6-.8-1.6.3-1.25-1.1-.45-.2.5-.25-3.85 1.8 2.5.8-.3.15-4.35 1.3 9.15-.35 1h-.85l.25 1.85-.95.55" fill="#934806" fill-opacity=".761" fill-rule="evenodd" transform="translate(0 9)"/><path d="M8.45 65.75 0 58.2l.75-.55 7.5 2.15 2.8-1.3L19 57.2l-4.2 5.55-6.35 3" fill="#c2a376" fill-opacity=".761" fill-rule="evenodd" transform="translate(0 9)"/><path d="m39.7 79.85-.1.65-1.55-.35 1-1.6.65 1.3m-4.1-4.55-.65.8-1.1-1.3 1.45-.8.3 1.3m-2.15 2.2.3.65-1.2 3.5-2.3.75-1.35-.65-.1-1.15 2.85.3 1.8-3.4m4.6 4.85.55.65-.25 4.9-1.75.35 1.45-5.9" fill="#706b42" fill-opacity=".761" fill-rule="evenodd" transform="translate(0 9)"/><path d="m47.8 94.3 1.4 4.85-1.05.35-1.5-2.7-1.65.7.5-2.45-1.95-.8-.05-1.85 3 .85.65.75.65.3M33.75 78.15l-.3-.65.3-1.8.65.45.65.9-1.3 1.1m-3.5 4.25 2.3-.75 1.5 3.2-1.05.35-1-1.9-1.2 1.15-.05-1.85-.5-.2m7.8-.05L38 80.6l1.15.55L38.6 83l-.55-.65m.3 5.55 1.8 2.55-.9.75-1.3-1.65-.85 1.75-.5-2.05-1.95-.7 1.95-.3 1.75-.35" fill="#644b24" fill-opacity=".761" fill-rule="evenodd" transform="translate(0 9)"/><path d="m71.55 56.9.75 4.2-1.15 5.3-2.05-7.35.9-3.5q.6.25 1.05.6l.5.75L70 55.55l1.55 1.35" fill="#a58a68" fill-opacity=".761" fill-rule="evenodd" transform="translate(0 9)"/><path d="m67.55 50.2.1-.1.1.35-.2-.25" fill="#a26116" fill-opacity=".761" fill-rule="evenodd" transform="translate(0 9)"/><path d="m66.45 58.4-6.6-6.7 4.6 1.2 3.6 4-.65 1.6-.55.3-.4-.4" fill="#9b8064" fill-opacity=".761" fill-rule="evenodd" transform="translate(0 9)"/><path d="m79.25 79.9.7 3h-.5l-1.6-.2.75-.45-.9-1.4-5.85-.9 3.35-.2-3.1-7.55 3.05-2.25 4.1 9.95m-20.5-13.65 3.4 12.95-2.85-.9 1-.4-.8-1.6-1.7-.8 1.4.2-7.3-10.3 2.35 8.3-4.9-2.65-.6.55.7 1.2-.1-.1-1.15-.7q-.15-4.65 2.1-7.15 2.3-2.55 5.8-1.6l2.65 3m7.4 10.3 1.65 2.7-2.35.25 1.15 1.15-.5-.15-1.95-.9-.25-1.45 2.25-1.6" fill="#b87f06" fill-opacity=".761" fill-rule="evenodd" transform="translate(0 9)"/><path d="m72.1 72.2 3.1 7.55-3.35.2 5.85.9.9 1.4-.75.45 1.6.2.2 1.1-14-2.95.45-.55.5.15-1.15-1.15 2.35-.25-1.65-2.7q-.1-2.55 1.6-3.8 1.7-1.3 4.35-.55l-5.95 4.35 5.95-4.35m5.75 10.5L66.6 80.65l11.25 2.05m-28.5-10 .1.1 8.25 4.6-9.15-4.4.8-.3" fill="#c78f11" fill-opacity=".761" fill-rule="evenodd" transform="translate(0 9)"/><path d="m49.45 72.8-.7-1.2.6-.55 4.9 2.65-2.35-8.3 7.3 10.3-1.4-.2 1.7.8.8 1.6-1 .4-1.6-.9-8.25-4.6" fill="#c7961e" fill-opacity=".761" fill-rule="evenodd" transform="translate(0 9)"/><path d="m79.95 82.9.65.9-1.35 1.4-7.75 4.85-5.8-7.6-1.6-1.75.05-1.1 1.95.9-.45.55 14 2.95-.2-1.1h.5M57.3 84.55l-5.5-3.75-2-3.15-.05-.1-1.9-5.15.35-.4 1.15.7-.8.3 9.15 4.4 1.6.9 2.85.9.35.7-1.75 1-3.45 3.65m-5.7-6.45 6.45 3.75-6.65-4.95.2 1.2" fill="#ae7705" fill-opacity=".761" fill-rule="evenodd" transform="translate(0 9)"/><path d="m51.6 78.1-.2-1.2 6.65 4.95-6.45-3.75" fill="url(#h)" fill-rule="evenodd" transform="translate(0 9)"/><path d="m61.1 111.15-.55-6.65 5.65-6.35 1.1.55-6.2 12.45m-10.3-8.95 1.45-6.9L56.8 93l2.55 1.35-8.55 7.85m-4.6-9.7 1.25-4.7 3.8 2.05-5.05 2.65" fill="#c7a477" fill-opacity=".761" fill-rule="evenodd" transform="translate(0 9)"/><path d="m60.9 102.45-10.1-.25 8.55-7.85L56.8 93l-4.55 2.3.75-2-5.2 1-.65-.3-.65-.75-.3-.75 5.05-2.65-3.8-2.05.8-1.7 7.3 3.4 6.4 1.1 1.15.25-2.2 11.6M53 93.3l2.55-3.8L53 93.3" fill="#bc925a" fill-opacity=".761" fill-rule="evenodd" transform="translate(0 9)"/><path d="M71.8 102.25q.3 5.95-2.9 8.6-3.2 2.55-7.8.3l6.2-12.45-1.1-.55-5.65 6.35.35-2.05 2.2-11.6 4.7 1.55 1.8 1.7 1.1 2.15 1.1 6" fill="#b78a4b" fill-opacity=".761" fill-rule="evenodd" transform="translate(0 9)"/><path d="m67.8 92.4 5.25 2.9-2.35.95-1.1-2.15-1.8-1.7" fill="#b28041" fill-opacity=".761" fill-rule="evenodd" transform="translate(0 9)"/><path d="m83.05 93.4-4.35 2 .5 1.25-7.1-4.3 10.95 1.05" fill="#6a4b2f" fill-opacity=".761" fill-rule="evenodd" transform="translate(0 9)"/><path d="m78.05 98.9 1.5 2.1.65 14.7-8.4-13.45-1.1-6 2.35-.95 5 3.6" fill="#b0833e" fill-opacity=".761" fill-rule="evenodd" transform="translate(0 9)"/><path d="m12.2 0 7.55 6.25L28.4 15l12.95 22.7 2.55 5.4m27.85 5.15 1.6-5.45L94.3 4.1M0 67.2l.75-.55 30.3-3.5" fill="none" stroke="#898b67" stroke-linecap="round" stroke-linejoin="round" stroke-opacity=".761" stroke-width=".05"/><path d="M94.3 4.1q1.8 21.65-5.35 36.15Q82.1 54.35 71.5 52.2m25.9 65.2-9.45-17.25-4.9-12.5m-49-21.6q.25 7.5-7.85 10-7.65 2.4-17.75-1.3L0 67.2m44.6-19.9L30.7 35.4l-9.05-7.5-6.1-7.8L12.2 0m70.05 29.75L81 32.1l1.45-.9 5.45-3.35m-5.65 1.9 5.7-10.35M74.5 43.9 81 32.1m-51.8-7.3-2.65-1.45-5.55-3m12.05 9.45-2.6-3.4-1.25-1.6L20.8 14m12.25 15.8 6.2 7.85m-4.4 28.05-.8.35m-19.25 5.7L19 66.2l-7.95 1.3m17.65-2.9L19 66.2" fill="none" stroke="#c7a477" stroke-linecap="round" stroke-linejoin="round" stroke-opacity=".761" stroke-width=".05"/><path d="M73.8 67.85 80.85 79m2.2 8.65.2 8-.05 2.45-.15 4.3-4.35 2 .5 1.25q.1 1.2-.25 1.8-.35.65-.9.45m-29.8-12.8q-.95-.4-1.7-1.7-.75-1.35-.85-2.9m16.25 9.1 1.15.25 4.7 1.55 5.25 2.9 5 3.6m-6.5-42 2.15 1.85.1.1m-2.25-1.95L70 64.55m-4.65-2.95L70 64.55m-28.45 13.2-.35 1-.15 2.85.7 2.25.35.75 1.3 2.25m.4.55 2.15 2.7-.25.4m12.45-31.55q-7-1.65-11.5 2.55-4.4 4-4.15 11.35l-.95 4.9m6.7 17.35 7.3 3.4 6.4 1.1m-3.8-40.65 7.2 2.65m17.7 26.05L80.85 79" fill="none" stroke="#5c3d1e" stroke-linecap="round" stroke-linejoin="round" stroke-opacity=".224" stroke-width=".05"/><path d="m80.85 79 13.1 13.7 5.1 9.1 5.8 11.9.5 1.05" fill="none" stroke="#a99066" stroke-linecap="round" stroke-linejoin="round" stroke-opacity=".761" stroke-width=".05"/><path d="m43.9 43.1.75-.3 3.55 5.95 1.4 2.7.8 1.5-.15 2.15m17.4 3.9 4.1-10.75m-.25 3.95-.4 4 1.6 9.7-4.55-5.3-.4-1.15-.1-.35V59M45.1 49.65l-.2-.95-.3-1.4-1.35-3.9.65-.3m-.85 11.15 2.35-2.8-.3-1.8m-2.05 4.6-.75 3-.1 1.95.35 2.3q.35 1.1.75 1.35.45.3.75-.45.3-.8.25-2.4m5.75-4 .2-.9m21.25-2.9.7-3.45-.45-.5m7.5 40.65.7 3 .65.9-1.35 1.4-7.75 4.85m-14.2-5.5-5.5-3.75-2-3.15m8.95-11.4 3.4 12.95.35.7-1.75 1-3.45 3.65m21.95-4.65-4.1-9.95-3.05 2.25-5.95 4.35-2.25 1.6.25 1.45-.05 1.1 1.6 1.75 5.8 7.6M50.05 56q.1 2.25-1.65 3.45-1.65 1.15-4.1.55m5.45 26.55-1.9-5.15.35-.4q-.15-4.65 2.1-7.15 2.3-2.55 5.8-1.6m2.65 3-2.65-3" fill="none" stroke="#624220" stroke-linecap="round" stroke-linejoin="round" stroke-opacity=".275" stroke-width=".05"/><path d="m48.2 48.75 3.1.1.4.05h2.1l9 6.55L67.65 59M45.7 90.5l-4-5.35m-.4-.55-1.4-2.75m-.25-.7-1.3-3.85m-.7-2.2-.85-2.25-2.75-6.8m-.4-3.35q-.15-6.1 2.75-9.7 2.9-3.65 7.4-2.7l1.3-.65m5.3 3.3 6.3.2M41.65 57.9l.65-.65m20.5-1.8-6.1-2.3m-18.15 10.3 3.1-5.55m-3.05-2.7L36 62.9m-.1 4.8.9 5.15m.7-2.1.25 3.85m35.95-6.85-.35-.8m-5.8-7.75.2.25m-4.95-4 4.75 3.75m-28.95-4 5.2-4.9" fill="none" stroke="#763a03" stroke-linecap="round" stroke-linejoin="round" stroke-opacity=".243" stroke-width=".05"/><path d="m31.05 63.15.05-.5 2.55.05m4.9.75 1.8.4.55 1.3M36 62.9l2.55.55M36 62.9l-2.35-.2m-2.7.7.1-.25m3.8 2.55-3.95-1.75.05-.55m9.85 2.25.1-.3v-.2m-5 2.55-.05-1.35-1-.65m2.65 5.05-1.6-3.05m4.35.9-.15 4.35-.8.3-1.8-2.5m2.75-2.15.55-2.95" fill="none" stroke="#624220" stroke-linecap="round" stroke-linejoin="round" stroke-opacity=".761" stroke-width=".05"/><path d="m72.7 65.9.65 1.05.45.9m4.25 40.05 1.5 2.1" fill="none" stroke="#6e450c" stroke-linecap="round" stroke-linejoin="round" stroke-opacity=".761" stroke-width="1.75"/><path d="m77.85 91.7 1.6.2h.5M66.6 89.65l11.25 2.05M59.3 87.3l2.85.9M48.2 81l1.15.7.1.1 8.25 4.6 1.6.9m6.8 2.2-1.95-.9m1.95.9.5.15" fill="none" stroke="#935c02" stroke-linecap="round" stroke-linejoin="round" stroke-opacity=".761" stroke-width=".05"/><path d="m79.55 110 .65 14.7-8.4-13.45q.3 5.95-2.9 8.6-3.2 2.55-7.8.3l-.55-6.65.35-2.05-10.1-.25 1.45-6.9.75-2-5.2 1m-1.3-1.05-.3-.75 1.25-4.7.8-1.7m-1.75 7.15.65.75.65.3m7.75-4.8L53 102.3m16.6.8 1.1 2.15 1.1 6m-8.7-11.4-2.2 11.6" fill="none" stroke="#a26c1f" stroke-linecap="round" stroke-linejoin="round" stroke-opacity=".761" stroke-width=".05"/></g></defs></svg>