<svg viewBox="0 0 454.7 372.2" xmlns="http://www.w3.org/2000/svg" xmlns:xlink="http://www.w3.org/1999/xlink"><use transform="translate(0 .025)" width="454.7" height="372.15" xlink:href="#a"/><defs><g id="a"><path d="m357.75 213.6 2.85-14.15L378.7 210l3.4 35.05 8.05-1.65 5.95-17.35 5.3-3.7-2.35 22.45-.05.45.1-.45-3.1 30.75-.7 7.2 9.05 18.45-31.75-9.15-2 70.3-25.3 11.8q-8.2 0-13.95-8.9-5.8-8.95-5.8-21.55l13.55-82.6 18.65 27v-74.5m3.8-19.3.3-1.4 7.65 5.25-7.95-3.85m-112.05 4.45 13.95 16.6 6.9 9.4-14.6 21.15 4.75 7.65-71.5 71.5 71.5-71.5 17.6 28.5 19.85-18.95 14.1 2-2.95 6-95.85 110v-8.95l-38.7-14 14.45-33.1v-29l-40.15 23.9-.9 1.6.9-1.6 2.8-4.9-39.7-28.6-10.7-25.2 7.55-18.35 22.25-5.9.25.05v-.1l4.3-21.55 3.15-12.55h.95v2.2l34.05 36.3 19.9 21.25 27.9-31.95 27.95-31.9m62.75 15.05-.4.7-.05-.05.45-.65m-55.5 3.05-.3-.05.25.15.05-.1M219.4 248.1q-.2.85.65.05l-.45-.8-.2.75" fill="#fff" fill-rule="evenodd" transform="translate(-76.05 -19.55)"/><path d="m331.6 36.75.65-.8.2-.3 12.6-16.1 56.9 31.3 2.65 12.25 2.35 13.85-9.6 9.8-53.8-56.3-11.95 6.3m26.15 176.85-11.45-24.7-16.4 8.65-13.85 34.1-22.3-3.55-4.6-6-33.45-87.3 19.15-21.2 27.1-7.3 7.75-2.7 42.05 25.85q7.7 0 13.15 9.4 5.4 9.35 5.4 22.65l-2.4 10.65-2.05 5.8-1.4 4.55-2.6 10.4-.3 1.4-6.45-3.25 5.5 8.4-2.85 14.15m-17.65-37.55q-26.55-5.4-53.8-11.85l19.8 16.85 19.05-.65 4.95-.35 10-4M322.15 88.6l-12-7 12.35-24.15 8.4 5.75-8.75 25.4m-71.3-4.5-1-.55 1 .55-31.9 50-10.4-5.05q1.55-13.95 3.85-27.8 3.95-23.7-24.8-20.8l-6.3 29.5-41.6-29.15 46.75-32.35 63.4 35.1 1 .55m9.8 5.45v-.05l.85.5.3.15 7.85 4.35-.45.8.95.9-40.55 47.6-4.9-3.45 35.95-50.8.85.45-.85-.45m25.65 74.65-.2-.15-1-1q.45 1 1.2 1.15m25.5 50.25.05.05.4-.7 5.6-15.45-7.25-.05.4 15.6.8.55" fill="#fff" fill-opacity=".902" fill-rule="evenodd" transform="translate(-76.05 -19.55)"/><path d="m274.85 113.6-19.15 21.2 2.6 43.45-.4 4.7-.15.35-8.25 15.45-27.95 31.9 3.15-90.3 4.9 3.45 40.55-47.6 4.7 17.4m50.7 230.1q0 12.6 5.8 21.55 5.75 8.9 13.95 8.9L323 391.7l-47.3-4.95-8.6-5.65 52-62.75 6.45 25.35M139.7 80.8l41.6 29.15-.25 3.25v107.15l-7.3 21-34.05-36.3V80.8" fill="#a4a4c5" fill-opacity=".702" fill-rule="evenodd" transform="translate(-76.05 -19.55)"/><path d="m370.6 362.35 2-70.3 31.75 9.15-9.05-18.45.7-7.2 39.8-20.35-27.95-59.2 3.5-7.8 41.9-.65 5.7 19.75 17.95 11.3 3.95 15.45 18.45 15.8-13.7 40.25-44.5 35.9 16.35 11.4 3.7 25.2-65.75 13.1-24.8-13.35" fill="#a4a4c5" fill-opacity=".8" fill-rule="evenodd" transform="translate(-76.05 -19.55)"/><path d="m312.25 213.8-.45.65-.8-.55-.4-15.6 7.25.05-5.6 15.45" fill="#a4a4c5" fill-opacity=".302" fill-rule="evenodd" transform="translate(-76.05 -19.55)"/><path d="M406.95 76.95 404.6 63.1l.2-.05 19.75 63.35-.6 1.2 1.35 4.5 2.9 22.05 25.05 33.4-41.9.65-3.5 7.8-5.3 25.55-1.1.8h-.05l-5.3 3.7-5.95 17.35-8.05 1.65-3.4-35.05-18.1-10.55-5.5-8.4 6.45 3.25 7.95 3.85 4.1.65 2.2-10.1-11.35-6.2 1.4-4.55 12.25 3.1-10.2-8.9 2.4-10.65 16.35 9.45q0 .3.35.5l.8.2 26.65-20.25-7.5-74.45M293.75 228.1l22.3 3.55 12.05 1 29.65-19.05v74.5l-18.65-27-13.55 82.6-6.45-25.35-52 62.75h-53.85l95.85-110 2.95-6-14.1-2-19.85 18.95-17.6-28.5-4.75-7.65 14.6-21.15 16.15 12.4 7.25-9.05m46.35-52.05-10 4-4.95.35-19.05.65-19.8-16.85q27.25 6.45 53.8 11.85m-53.8-11.85q-.75-.15-1.2-1.15l1 1 .2.15M148.85 319.95l40.15-23.9v29l-14.45 33.1h-36.2V329.4l5.6-1 4-6.85.9-1.6" fill="#a4a4c5" fill-opacity=".6" fill-rule="evenodd" transform="translate(-76.05 -19.55)"/><path d="m365.85 177.95 2.05-5.8 10.2 8.9-12.25-3.1m33.25 66.85-.1.45.05-.45h.05M260.65 89.55l-9.8-5.45 9.8 5.4v.05" fill="#212234" fill-opacity=".702" fill-rule="evenodd" transform="translate(-76.05 -19.55)"/><path d="m397.35 86.75 9.6-9.8 7.5 74.45-26.65 20.25-1.15-.7-16.35-9.45q0-13.3-5.4-22.65-5.45-9.4-13.15-9.4L309.7 103.6l-7.75 2.7-1.2-30.25 9.4 5.55 12 7 27.25 16-2.35-24.85 23.7 30.2.3-3.25L389.5 99l7.85-12.25m-81.3 144.9 13.85-34.1 16.4-8.65 11.45 24.7-29.65 19.05-12.05-1m45.8-38.75 2.6-10.4 11.35 6.2-2.2 10.1-4.1-.65-7.65-5.25M255.7 134.8l33.45 87.3 4.6 6-7.25 9.05-16.15-12.4-6.9-9.4-13.95-16.6 8.25-15.45.45-.9.1-4.15-2.6-43.45M396 275.55l3.1-30.75h-.05l2.35-22.45h.05l1.1-.8 5.3-25.55 27.95 59.2-39.8 20.35m-214.7-165.6 6.3-29.5q28.75-2.9 24.8 20.8-2.3 13.85-3.85 27.8l10.4 5.05 31.9-50 9.8 5.45-35.95 50.8-3.15 90.3-27.9 31.95-19.9-21.25 7.3-21V113.2l.25-3.25" fill="#434667" fill-opacity=".702" fill-rule="evenodd" transform="translate(-76.05 -19.55)"/><path d="m332.25 35.95-.65.8.65-.8M330.9 63.2l16.15 16.55 2.35 24.85-27.25-16 8.75-25.4m-20.75 18.4-9.4-5.55 21.1-26.85.5-.65.15 8.9-12.35 24.15m12.2-33.05-.5.65.5-.65" fill="#dadde7" fill-opacity=".702" fill-rule="evenodd" transform="translate(-76.05 -19.55)"/><path d="m322.35 48.55 9.25-11.8-9.25 11.8 9.25-11.8 11.95-6.3 53.8 56.3L389.5 99l-18.45 7.7-.3 3.25-23.7-30.2L330.9 63.2l-8.4-5.75-.15-8.9" fill="#71728f" fill-opacity=".8" fill-rule="evenodd" transform="translate(-76.05 -19.55)"/><path d="m246.3 29 9.25-11.8.65-.8m72.35 27.15L325.9 31.3 269 0l-12.6 16.1-.2.3m121 151.6-25.05-33.4-2.9-22.05-1.35-4.5.6-1.2-19.75-63.35-.2.05M225.9 86.75l-27.1 7.3m70.45 260.55 25.3-11.8M377.2 168l5.7 19.75 17.95 11.3 3.95 15.45 18.45 15.8-13.7 40.25-44.5 35.9 16.35 11.4 3.7 25.2-65.75 13.1-24.8-13.35M224.7 56.5l1.2 30.25m19.9-57.1.5-.65m-72.5 35 1 .55 9.8 5.45m-10.8-6-63.4-35.1-46.75 32.35m121.8 9.2.3.15 7.85 4.35-.45.8.95.9 4.7 17.4m-13.35-23.6-.85-.45m40.1-13.5 21.1-26.85M35.9 266.9l-10.7-25.2 7.55-18.35 22.25-5.9.25.05v-.1l4.3-21.55 3.15-12.55h.95V61.25m49.3 244.25 71.5-71.5M71.9 302l.9-1.6-36.9-33.5m62.6 71.7H62.3v-28.75l5.6-1 4-6.85m65.3 59.55h53.85m-53.85 0v-8.95l-38.7-14 14.45-33.1m156.3 49.1-22.3 17.55-47.3-4.95-8.6-5.65" fill="none" stroke="#000" stroke-linecap="round" stroke-linejoin="round" stroke-opacity=".302" stroke-width=".05"/><path d="m127.4 201.55 25.45 12.95v-34.85l17 44.25 11.2-23.25v19.7l42.2-20.35-26.6 24.1-1.3-.2-14.75 10.75 6.9-2.25-10.5 9.4-6.7 16.3q-5.6.2-1.55 3.8l-1.35 3.35q-3.6-1.35-7.4-1.8l6.3 4.45-1.35 3.4-4.7-1.6-4.25-25.25-45.35 6.5 44.9-17.2-38-4.5 37.35-5.55-27.5-22.15M358.8 80.35l19.9 10.1v-27.2l13.25 34.55 8.7-18.15V95l33-15.9-20.8 18.85-1.05-.15-11.5 8.35 5.4-1.75-8.2 7.35-5.2 12.7q-4.35.2-1.25 3l-1.05 2.6q-2.75-1.05-5.75-1.4l4.9 3.5-1.05 2.6-3.65-1.2-3.3-19.7-35.45 5.05 35.1-13.45-29.65-3.5 29.1-4.35-21.45-17.25M208.65 145.25l14.6 7.4V132.7l9.75 25.35 6.4-13.3V156l24.2-11.65-15.25 13.85-.75-.15-8.45 6.15 3.95-1.3-6 5.4-3.85 9.35q-3.2.1-.9 2.15l-.75 1.95q-2.05-.8-4.25-1.05l3.6 2.55-.8 1.95-2.65-.9-2.45-14.45-26 3.7 25.75-9.85-21.75-2.6 21.35-3.2-15.75-12.65M318.8 275.3l14.6 7.4v-19.95l9.75 25.35 6.4-13.3v11.25l24.2-11.65-15.25 13.85-.75-.15-8.45 6.15 3.95-1.3-6 5.4-3.85 9.35q-3.2.1-.9 2.15l-.75 1.95q-2.05-.8-4.25-1.05l3.6 2.55-.8 1.95-2.65-.9-2.45-14.45-26 3.7 25.75-9.85-21.75-2.6 21.35-3.2-15.75-12.65M430.8 270l14.6 7.4v-19.95l9.75 25.35 6.4-13.3v11.25l24.2-11.65-15.25 13.85-.75-.15-8.45 6.15 3.95-1.3-6 5.4-3.85 9.35q-3.2.1-.9 2.15l-.75 1.95q-2.05-.8-4.25-1.05l3.6 2.55-.8 1.95-2.65-.9-2.45-14.45-26 3.7 25.75-9.85-21.75-2.6 21.35-3.2L430.8 270M99.95 63.45l36.35 18.5v-49.7l24.2 63.1 15.95-33.15v28.05l60.25-29-37.9 34.4-1.95-.3-21 15.3 9.85-3.2-14.95 13.4-9.6 23.3q-7.95.3-2.2 5.4l-1.95 4.8q-5.1-1.95-10.5-2.55l8.9 6.35-1.9 4.8q-3.2-1.3-6.7-2.25l-6.05-36-64.7 9.2 64.05-24.5-54.15-6.4 53.2-7.95-39.2-31.6M514.65 199.95l-24.45 10.1v-27.2l-16.3 34.55-10.75-18.15v15.35q-20.35-7.85-40.55-15.9l25.55 18.85 1.3-.15 14.15 8.35-6.65-1.75 10.05 7.35 6.45 12.7q5.35.2 1.5 3l1.3 2.6q3.45-1.05 7.1-1.4l-6.05 3.5 1.3 2.6 4.5-1.2 4.1-19.7 43.55 5.05-43.15-13.45 36.5-3.5-35.85-4.35 26.4-17.25" fill="#fff" fill-rule="evenodd" transform="translate(-76.05 -19.55)"/><path d="M310.6 151.4q0 .3.35.5l.8.2-1.15-.7m-128.75 12-.15.35.45-.9.1-4.15-.4 4.7m-1.15 33.9-.05.1-.25-.15.3.05" fill="none" stroke="#000" stroke-linecap="round" stroke-linejoin="round" stroke-opacity=".302" stroke-width=".05"/></g></defs></svg>