<svg viewBox="0 0 227.6 322.84" xmlns="http://www.w3.org/2000/svg" xmlns:xlink="http://www.w3.org/1999/xlink"><use transform="translate(0 -.01)" width="227.6" height="322.85" xlink:href="#a"/><defs><g id="a"><path d="m346.6 175.8 16.4 14.8-41.8 83.8H207.6L173 236l-26.2-27.6 14.05-28.6q-.8 23.45 21.75 47.6 29.35 23.9 68.8 22.8 37.75 2.1 62.2-15 34.35-20.65 33-59.4m-117.05-34.9q7.85-1.25 15.65-1.55 21.15-.8 41.6 5.05l.5.25q11.85 5.05 20.5 11.15 17.6 12.45 21.65 29.25-5.15 8.25-13.9 14.85v-.4l.3-.45q1.05-2.15.9-4.85l-.05-2.85.05-2.85-.4-.4q-.6-.65-1.6-.4-.65.2-1.1.55l-3.6 3.7q2.9 4.4 3.25 9.6-9.05 6.25-21.5 10.85l-1.35.5-2.2-1.2-3.6.2q-7.7 1.8-14.3-.6l4.9-2-.6-.55q-.45-1.05-1.5-1.85-2.75-2.05-4-4.95l.3-.1q1.4-1.55 3.3-2.15 1.05-.3 1.25-1.4l-.6-1.55-3.05-5v-2.85q1.3-1.15 2.9-1.2 10.75-1.45 15-11.4 4.25 1.15 8 3.15-1.25-11.95-11.7-19.8-12.75-9.6-28.05-13.5-13.4-3.3-26.95-5.25m2.1 75.45q-15.15-3.6-30.25-11.75l-3.75-2.6-3.2-2.4v-.05q-.25-1.6.95-2.45l7.75-.4q-.3-4.05.5-7.75.45-2.05 2.35-2.85h1.25l4.1.2q1.8.5 3.6 1.4.95 1.5 1.35 3 .85 3.55 3.55 5.55h2.45l2.45-1.6q.9-3.2 2.05-6.2 2.6-7 10.95-4l.6.95q1.8 4.95 1.45 10.45l1.65.85 4.85 3.25-.4 7.7-1.6 2.05q-1.8.9-3.65.5-6.15-.85-10.2-6.2H228l-2.05.4q-.7.05-.4.85l.1.35q.8 1.15 1.95 1.65l3.65 1.65 1.8 1.85q1.5 1.5 1.45 3.45l-2.45 1.2-.4.95m53.95 76.45 3.2 2.4q5.75 2.3 8.85 7.6 5.9 10.15 4.75 22-1.9 3.55-4.3 6.25 3.55 8.4 2.65 17.85-6.6 12.4-19.7 14.3-27.15 3.45-38.75-13.8l-6.15-.15q-5.25-1.9-7.85-14.3-.45-11.85 1.9-22 1.2-5.3 3.5-7.6l1.3-2.4q4-3.05 7.8-1.7 20.05-15.3 42.8-8.45" fill="#981314" fill-rule="evenodd" transform="translate(-138.7 -101.85)"/><path d="m365.35 200.4-3.75 48.4-5.4 93.6-36.6 69.6 4-130.4 41.75-81.2M201 421.6l-56.6-66.4-2-76.2-2.85-61.1L201 288.7v132.9" fill="#964237" fill-rule="evenodd" transform="translate(-138.7 -101.85)"/><path d="M218.4 116.4q67.3-6.9 96.8 23.2 13.25 14.75 18.85 35.6l-.3.85q-1.7 4.7-4.3 9 2.6-4.3 4.3-9l.3-.85q-5.6-20.85-18.85-35.6-29.5-30.1-96.8-23.2m128.2 59.4q1.35 38.75-33 59.4-24.45 17.1-62.2 15-39.45 1.1-68.8-22.8-22.55-24.15-21.75-47.6l-14.05 28.6L173 236l34.6 38.4-6.6 5.2.5 9.65 6.7 134.95-7.2-2.6V288.7l-61.45-70.8-.35-6.9 22-35.6q-.8-14.5 6-28.2 18.1-33.15 56.2-42.4 41.45-7.25 76.8 7 21.85 11.15 34.2 28.6 9.6 15.95 12.2 35.4m-25.4 98.6 41.8-83.8 2.8 3.8-.45 6-41.75 81.2-4 130.4-8.2 6 9.8-143.6m5.2-60q13.6-19.45 14.8-34.8-1.2 15.35-14.8 34.8m8-74q4.65 19.7-.35 34.8 5-15.1.35-34.8m-104.85.5-.3.05-7.05 1.25q-32.1 8.6-46.1 37 4.6 8.45 13.5 16.35l4.85 4.05 3.2 2.4 3.75 2.6q15.1 8.15 30.25 11.75 25.7 6.05 51.4-1.1l4-1.2 3.4-1.15 1.35-.5q12.45-4.6 21.5-10.85l2.25-1.65q8.75-6.6 13.9-14.85-4.05-16.8-21.65-29.25-8.65-6.1-20.5-11.15l-.5-.25q-20.45-5.85-41.6-5.05-7.8.3-15.65 1.55M172 168.8q1.25 5.3 4.1 10.4-2.85-5.1-4.1-10.4m43.6-40q-20.35 2.45-34 19.6 13.65-17.15 34-19.6m-54.75 51 .35-4.4-.35 4.4m145.95-37.4q-27.25-19-68-16.4 40.75-2.6 68 16.4M173 236l-3.8 5.4 3.8-5.4m23.4-25.6-3.25-1.85q-18.7-11-22.35-24.55 3.65 13.55 22.35 24.55l3.25 1.85m92.8 29.8q-33.8 8.65-66.8 0 33 8.65 66.8 0m29.2-23.8q-35.45 25.55-83.6 19.2-34.95-5-57.6-26.4 22.65 21.4 57.6 26.4 48.15 6.35 83.6-19.2m-116.9 72.85-.5-.55v-9.1 9.1l.5.55" fill="#dca8a0" fill-rule="evenodd" transform="translate(-138.7 -101.85)"/><path d="M207.6 274.4h113.6L311.4 418l-103.2 6.2-6.7-134.95-.5-9.65 6.6-5.2m78 18.4q-22.75-6.85-42.8 8.45-3.8-1.35-7.8 1.7l-1.3 2.4q-2.3 2.3-3.5 7.6-2.35 10.15-1.9 22 2.6 12.4 7.85 14.3l6.15.15q11.6 17.25 38.75 13.8 13.1-1.9 19.7-14.3.9-9.45-2.65-17.85 2.4-2.7 4.3-6.25 1.15-11.85-4.75-22-3.1-5.3-8.85-7.6l-3.2-2.4" fill="#a51414" fill-rule="evenodd" transform="translate(-138.7 -101.85)"/><path d="M176.1 179.2q14-28.4 46.1-37l7.05-1.25.3-.05q13.55 1.95 26.95 5.25 15.3 3.9 28.05 13.5 10.45 7.85 11.7 19.8-3.75-2-8-3.15-4.25 9.95-15 11.4-1.6.05-2.9 1.2v2.85l3.05 5 .6 1.55q-.2 1.1-1.25 1.4-1.9.6-3.3 2.15l-.3.1q1.25 2.9 4 4.95 1.05.8 1.5 1.85l.6.55-4.9 2q6.6 2.4 14.3.6l3.6-.2 2.2 1.2-3.4 1.15-4 1.2q-25.7 7.15-51.4 1.1l.4-.95 2.45-1.2q.05-1.95-1.45-3.45l-1.8-1.85-3.65-1.65q-1.15-.5-1.95-1.65l-.1-.35q-.3-.8.4-.85l2.05-.4h2.45q4.05 5.35 10.2 6.2 1.85.4 3.65-.5l1.6-2.05.4-7.7-4.85-3.25-1.65-.85q.35-5.5-1.45-10.45l-.6-.95q-8.35-3-10.95 4-1.15 3-2.05 6.2l-2.45 1.6h-2.45q-2.7-2-3.55-5.55-.4-1.5-1.35-3-1.8-.9-3.6-1.4l-4.1-.2H206q-1.9.8-2.35 2.85-.8 3.7-.5 7.75l-7.75.4q-1.2.85-.95 2.45v.05l-4.85-4.05q-8.9-7.9-13.5-16.35m139.45 20.7-2.25 1.65q-.35-5.2-3.25-9.6l3.6-3.7q.45-.35 1.1-.55 1-.25 1.6.4l.4.4-.05 2.85.05 2.85q.15 2.7-.9 4.85l-.3.45v.4" fill="#c84311" fill-rule="evenodd" transform="translate(-138.7 -101.85)"/><path d="M329.45 185.05q2.6-4.3 4.3-9l.3-.85q-5.6-20.85-18.85-35.6-29.5-30.1-96.8-23.2M363 190.6l-16.4-14.8q1.35 38.75-33 59.4-24.45 17.1-62.2 15-39.45 1.1-68.8-22.8-22.55-24.15-21.75-47.6l-14.05 28.6L173 236l34.6 38.4h113.6l41.8-83.8 2.8 3.8-.45 6-3.75 48.4-5.4 93.6-36.6 69.6-8.2 6-103.2 6.2-7.2-2.6-56.6-66.4-2-76.2-2.85-61.1-.35-6.9 22-35.6q-.8-14.5 6-28.2 18.1-33.15 56.2-42.4 41.45-7.25 76.8 7 21.85 11.15 34.2 28.6 9.6 15.95 12.2 35.4m-12.55-.6q5-15.1.35-34.8m6.8 39.2q-1.2 15.35-14.8 34.8m-150.3-35.2q14-28.4 46.1-37l7.05-1.25.3-.05q7.85-1.25 15.65-1.55 21.15-.8 41.6 5.05l.5.25q11.85 5.05 20.5 11.15 17.6 12.45 21.65 29.25-5.15 8.25-13.9 14.85l-2.25 1.65q-9.05 6.25-21.5 10.85l-1.35.5-3.4 1.15-4 1.2q-25.7 7.15-51.4 1.1-15.15-3.6-30.25-11.75l-3.75-2.6-3.2-2.4-4.85-4.05q-8.9-7.9-13.5-16.35-2.85-5.1-4.1-10.4m9.6-20.4q13.65-17.15 34-19.6m23.2-2.8q40.75-2.6 68 16.4m-145.6 33-.35 4.4m9.95 4.2q3.65 13.55 22.35 24.55l3.25 1.85m-27.2 31 3.8-5.4m34.6 38.4-6.6 5.2.5 9.65 6.7 134.95M201 279.6v9.1l.5.55m-24.3-80.05q22.65 21.4 57.6 26.4 48.15 6.35 83.6-19.2m-96 23.8q33 8.65 66.8 0m-149.65-22.3L201 288.7v132.9m110.4-3.6 9.8-143.6m44.15-74-41.75 81.2-4 130.4" fill="none" stroke="#000" stroke-linecap="round" stroke-linejoin="round" stroke-opacity=".4" transform="translate(-138.7 -101.85)"/></g></defs></svg>