<svg viewBox="0 0 164.05 233.05" xmlns="http://www.w3.org/2000/svg" xmlns:xlink="http://www.w3.org/1999/xlink"><use transform="translate(.03 .025)" width="164" height="233" xlink:href="#a"/><defs><g id="a"><path d="m155 86.4 2.8.2 6 14-9.2 9.2-2.35-2.7-1.45-3.9 2.8-4.2-3.4-8.2 4.8-4.4M74.2 209.9l2.2 5.7-8.4 17.2h-4.4l-9.8-22.4 6.15-.25 2.85-5.35 4.6 10.4 3.35-9.45 3.45 4.15M0 97.8v-2.6l4.4-6.4 5.55-1.4 2.35-.6-4.95 9.85.1.35.75-.1v3.15l.4 1.45-.4.15v-1.6L7.45 97 0 97.8M109.35 7.4 124.6 0l2.3 4.85-3.45 2.55-2.4-.45-14.05 8.4-.85-.75-.6-1.65 4.1-3.05-.3-2.5M153 103.2l2.2-2-1.6-2.2 1.6 2.2-2.2 2m-.9-11.8 4.6-3.3-4.6 3.3" fill="#ffbf2b" fill-rule="evenodd" transform="translate(.1 .1)"/><path d="m149.05 109.7-2.6 8.8L141 95.6l-14.05-33.65L113.2 29.2l1.2-3.85.15-.5.9-2.75.95-3.1 32.05 78.75.6 11.95M91 183.4l-13 17-3.2 2.35-4.05 3-4.1 2.95q-14.2-39.65-49.25-100.5L15 102q11.85-13.75 18.6-27.6l3.9-11.6 1.8-1.55 4.45-1.1 1.65-.4V74.1L35.3 95.95l3.4-1 5.6-1.65 4.4-1.35-.25.35 34.75 64q4.55 13.6 7.8 27.1m46-103.2-22.6-54.85L137 80.2M50.8 52.55l43.4-22.2L66.1 47.7l-12.35 7.6-4.55-2.1 1.6-.65M38.2 78.2l4.4-10 1.15-8.05-1.15 8.05-4.4 10m-9 14.8-6 6.4 6-6.4m24.4-40.2 12.5-5.1-12.5 5.1m31 122q-6.05-16.3-13.75-32.8Q59.65 118 45 93.6 59.65 118 70.85 142q7.7 16.5 13.75 32.8m-12.4 22-16.8-42.4 16.8 42.4m-12-22.8q-13.7-34.35-36.8-74 23.1 39.65 36.8 74" fill="#ae9a55" fill-rule="evenodd" transform="translate(.1 .1)"/><path d="m152.25 107.1-3.2 2.6-.6-11.95L116.4 19 94.2 30.35l-43.4 22.2-6.15-8.6-.1-.15Q62 38.8 80.25 29t25.9-14.4l.85.75 3.6 3.25 7.4-3.4 3.6 8.8h5l3.2-3.05L155 86.4l-4.8 4.4 3.4 8.2-2.8 4.2 1.45 3.9M55.7 207.25q-7.9-17.75-19.35-40.3-12.25-24.1-22.7-42.3 1.8-.9 3.55-1.75 12.75 18.45 23.3 42.5l18.15 41.9-2.95-.05" fill="#9c6201" fill-rule="evenodd" transform="translate(.1 .1)"/><path d="M146.45 118.5q6.1 9.15-25.65 21.9l-8.2 2.55-10.6-1.25-3.8-5.7v-9.9l4-3-6-3.75v-.8l-2.8-2.2-2.7-.25-2.8-4.2.25-10 1.8 1.05 3-8.35-.15-.35.3-.1 1.75-1.2.5-.4.95 1.25 1 1.35.5 3.75 12.95 20.7-1.75 4.2-.2 6.65 2.55.15 3.25-2.15.7 1.9 4.35-1.65 7.1.45.5-2.25 6.3-2.55 1.75-6.75-4-3.7-1.05-3.25-4.15-13.15 1.6-12.9-6.05-9.05-2.05.15-.6.05-3.25.25-.6-1.05-.85.35-.65-1.6-.35-1.95-.05-.2-1.8-4.35 1.15-5.65.35-5.5.5-6.8-2.3-5.5-4.65 2.55v-.1l-.3.3-9.35 6.4-7.55-3.65-7.75 10.4-.5 2.4-7.9.1 5.2 4.45 1.7-.05-1.35 6.25 2.3 5.5 1.35-3.3 3.1 7.4 1.6-1.45 2.4 9.6.35 1.55-5.45-4.4-5.15 6.75-5.15-7.5-3.2-23.3 15.75-16.6 2.35-1.3q3.05-1.7 7.35-4.55l8 1.15 4.75-3.25 6.4 5.45 1 6.6 10.5 10.8L141 95.6l5.45 22.9m-49.5-12.55-.8 2.5 5.5 4.85-.35-4.55-4.35-2.8" fill="#ecde97" fill-rule="evenodd" transform="translate(.1 .1)"/><path d="m130.25 110.65 1.05 3.25 4 3.7-1.75 6.75-6.3 2.55-.5 2.25-7.1-.45-4.35 1.65-.7-1.9-3.25 2.15-2.55-.15.2-6.65 1.75-4.2L97.8 98.9l-.5-3.75-1-1.35 8.5-5.75 6.2-4.25 6.7-1.15.55.75-.25.65-.55 1.6q-6.75 5.95-12.6 7.95-4.6 2.45-7.55 1.55 3.4 1.55 8.75 1l9.75 14.3-.05 7.5 5.45 6.75 1.6-3.95.05-5.85-4.75-6.4-2.8-4-.1-.55.45-9.95.6-3.6 3.25-5.2 2.55 3.6 1.7 15.05 6.5 6.8m-35.4-17.7-1.75 1.2-.3.1-.2.05-2.25.05-.55-2.25-.35-1.55-2.4-9.6 4.95-4.4-2.75-.45q-1.7-.45-3.15-3-1.5-2.6-1.2-5.05t-.2-3.9l-.25-.75 1.65-3.25 7.45.25v.3q-1.1.6-1.5 1.8-.3.75-.15 1.55l.15.65.05.05.3.6 1.2.85q1.05.3 2.15-.3 1.05-.6 1.5-1.8t0-2.3q-.5-1.1-1.55-1.4l-.05-.15L97.8 60l1.1 6.05 1.4.45 1.45-1.8-.1 2.25-.6 2.5-.15.4-.85 1.85q-1.3 2.3-3.65 3.65l-1.1.55q-1.65.7-3.3.65 1.65.05 3.3-.65l1.1-.55q2.35-1.35 3.65-3.65l.85-1.85.15-.4 2.2-1.25.1-4.6.65-1.5.65-1.45 2.5-7.35-2.2-.25 1.5-6.5.05-.25 4.65-2.55 2.3 5.5-.5 6.8-7.2 13.95 1.25 3.25.8-.8.3-.1 4.9-.8.3.2.35 1.95.65 1.6.85-.35.6 1.05.35 1-7.8 4.9-1.55-.6L95.3 92.5v-.05l-.2.25-.25.25m30.8 25.7-2.8-3.75 2.8 3.75m-20.6-51.45-1.8 1 1.8-1M89.6 62.4q-1.25-.9-2.25-.3-1.05.6-1.25 2.35-.25 1.7.2 2.8.4 1.05 1.45 1.35l2.1-.25q1.05-.6 1.45-1.75l.2-.9-.05-.6v-.05l-.15-.65q-.45-1.1-1.7-2m1.75 7.75L89.1 70q-1.9-.1-.15 1.75l.65.65q1.3 1.3 2.4 1.65 1.35.4 2.7-.35 1.35-.8 2.6-2.8 1.25-2.05.7-3.4t-2.1.7l-.05.1-1.55 1.45-1.6.45-1.35-.05m-11.3 48.6q5.85 20.9 15.4 39.75l-1.35 2.25.45 2.2-1.95-.6-.6-4.1v-.1l-5.45-16.35-.1-.15-2.3-4.35-.15.3-.15-.5-.05.1.15.4-.4-.15-.2-.25.65 2.25 6.7 19.1.95 3.8-1.55-1-.3.7-13.2-33.75 4.3 1.15v-.2q.1-.35.35-.55.1-.1.3-.1l2.7 8.15-4.2-18M61.1 92.95l-.8-12 3.05 3.6 3.6 9.3-1.55-2-.6.1.8 4q-.45.3.05.15l.8 2.3.3.2H67l.35-.1-.8-3.55 2 2.65.65 4.3.25.25.15.2.15-.15.35-.1.05-.35-1.5-8.85-1.6-7.4q-.8-3.35-1.3-6.7l.1-.75L73 102l.15.7q-.8.75-.8 2.15l-.4 6.3q-.25 2.1-.85 4.05-.45 1.45-.4 3.05l-1.95-5.45q-.1-.25-.7-.3l-.2-.4.1-.95-2.4-4.8-.55-.25-3.9-13.15m3.75 3.65.15.4.1.2-.2-.6h-.05m1.9 5.45v2.25-2.25m6.45 3.4.65-.25q.2 2.45 2.15 3.8l1.15.5.8 2.9q1.05 3.75.95 7.75-.15 4.2-2.7 7.15l-1.55-2.8h-.9l-.25 1.1-.75.1-1.15-8.35q1.95-5.7 1.6-11.9M92 85.25q6.1-2.7 15-12-8.9 9.3-15 12l-.1-.2v.25l.1-.05m-2.55 5.3 1.1-4.65 1.35-.6-1.35.6-1.1 4.65m9.75-12.9.05-.25h-.05v.25l.35 1.3-.35-1.3m.8-3.7-.75 3.45.75-3.45m-3.35 3.35 2.55.1-2.55-.1m9.4 3.75.7.25-.7-.25m2 6.75q-.75 1.35-2 1.15-1.1.45-1.25-.9.15 1.35 1.25.9 1.25.2 2-1.15m-16.9-6.9q-.35 1.7.3 3.3v.05l.45.8-.45-.8v-.05q-.65-1.6-.3-3.3m20.25-6.5-1.4.55 1.4-.55m2.9.9-4.15 1.45 4.15-1.45M107 62.35l1.15 3-1.15-3m17.6 62.7-1.85 1.05 1.85-1.05m3.2-.35-.55 2.2.55-2.2m-13.2 3.75-.95-2.5.95 2.5m5.05.25 1.55-4-1.55 4m-1.3-3.1-2.05 1.2 2.05-1.2m-6.1-3.5-1.5-2.5 1.5 2.5m-31.45 6.3-3.25-.85 2.1-5.75 1.15 6.6" fill="#bcb347" fill-rule="evenodd" transform="translate(.1 .1)"/><path d="M0 104.85V97.8l7.45-.8.75 3.05v1.6l-8.2 3.2M105.3 12.3l-.9-2.5 4.95-2.4.3 2.5-4.1 3.05-.25-.65" fill="#fffcd5" fill-rule="evenodd" transform="translate(.1 .1)"/><path d="M9.95 87.4q11.3-16.35 18.45-33l14-11.3-.1-.2q16.9-6.45 42.1-19.65l20.9-10.95.25.65.6 1.65Q98.5 19.2 80.25 29t-35.7 14.8l.1.15-1.05.9-12.4 10.4q-4.4 15.1-15.55 30.65l-3.35.9-2.35.6" fill="#c68a02" fill-rule="evenodd" transform="translate(.1 .1)"/><path d="m126.9 4.85 6.7 13.95-3.8 2.15-3.2 3.05h-5l-3.6-8.8-7.4 3.4-3.6-3.25 14.05-8.4 2.4.45 3.45-2.55" fill="#d87c0e" fill-rule="evenodd" transform="translate(.1 .1)"/><path d="m43.6 44.85 1.05-.9 6.15 8.6-1.6.65-.1-.15-5.5-8.2" fill="#724701" fill-rule="evenodd" transform="translate(.1 .1)"/><path d="m39.3 61.25-1.8 1.55-6.3-7.55 12.4-10.4 5.5 8.2-9.8 8.2" fill="#773d02" fill-rule="evenodd" transform="translate(.1 .1)"/><path d="m37.5 62.8-3.9 11.6Q26.85 88.25 15 102l2.4 6.2q35.05 60.85 49.25 100.5l4.1-2.95-3.35 9.45-4.6-10.4-1.6-2-2.55 4.5-18.15-41.9q-10.55-24.05-23.3-42.5l.65-1 1.95-3.1-7.2-17.2 4.2-7 1.4-3.2-2.55-5.5Q26.8 70.35 31.2 55.25l6.3 7.55" fill="#341a01" fill-rule="evenodd" transform="translate(.1 .1)"/><path d="m53.75 55.3 3.5 1.6L47 59.4l-1.6.35-1.65.4-4.45 1.1 9.8-8.2.1.15 4.55 2.1" fill="#4e2701" fill-rule="evenodd" transform="translate(.1 .1)"/><path d="m116.4 19-.95 3.1-.9 2.75-.15.5-1.2 3.85-16.9 12q-4.3 2.85-7.35 4.55l-2.35 1.3q-13.05 7-27 9.55l2.4 16-.55 1.3-.4.55-12.35 17.5-4.4 1.35-5.6 1.65-3.4 1L45.4 74.1V59.75l1.6-.35 10.25-2.5-3.5-1.6 12.35-7.6 8.5-3.5 40.85-22.1L74.6 44.2l-8.5 3.5 28.1-17.35L116.4 19m-70 45.4.6-5-.6 5m-2.6 22.2-5.1 8.35 5.1-8.35m13.45-29.7 2.35-.3-2.35.3M51.8 79.8l-7.5 13.5 7.5-13.5m27.6-36.4 19-8.8 16.15-9.75L98.4 34.6l-19 8.8M55.8 64.6l-.2-5.8.2 5.8" fill="#f8f2d6" fill-rule="evenodd" transform="translate(.1 .1)"/><path d="m15.65 85.9 2.55 5.5-1.4 3.2-4.2 7 7.2 17.2-1.95 3.1L8.2 104v-2.35l.4-.15-.4-1.45V96.9l-.75.1-.1-.35 4.95-9.85 3.35-.9M8.2 96.2v.7-.7" fill="#ac5c0f" fill-rule="evenodd" transform="translate(.1 .1)"/><path d="M13.65 124.65 10.8 126 0 107.6v-2.75l8.2-3.2V104l9.65 17.9-.65 1q-1.75.85-3.55 1.75" fill="#f09d13" fill-rule="evenodd" transform="translate(.1 .1)"/><path d="m48.7 91.95 12.35-17.5q-5.8 8.75-6.25 17.45 17.5 31.75 28.4 64.4l-34.75-64 .25-.35" fill="#8e7846" fill-rule="evenodd" transform="translate(.1 .1)"/><path d="m106.45 46.55-.25-.05.3-.2-.05.25m5 20.65 1.8 4.35H113l-1.8-1.2 1.8 1.2-4.9.8-.05-.15 1.35-1.75 1.75-.1h.05l-.05-.1q-.3-.7.1-3.05h.2m-13-13.5-1.6-.8 9.35-6.4-7.75 7.2m-17.4 8.35-1 4.5-1.7.05-5.2-4.45 7.9-.1m12.5-1.65.7-.05-.7.35v-.3m7.5 9.05.6-2.5.1-2.25 2.25-2.6-.65 1.5-.1 4.6-2.2 1.25M61.35 97l-2.8-3.8 2.05.2.75 3.6m6.7-3-.6-1.7.5.9.1.8m-1.85-5.05q-.6-1.6-.8-3.2-.25-1.7-.1-3.4l.9 6.6m29.1 3.55.05.05-.05-.05m24.2-7.3.05-.1h.05l-.1.1m-20.3-7.8h.05l-.05.25v-.25" fill="#8a8437" fill-rule="evenodd" transform="translate(.1 .1)"/><path d="m96.3 93.8-.95-1.25-.05-.05 11.45-11.2 1.55.6 7.8-4.9-.35-1 3.25-.25q.8 2.6-.75 7.65l-.55-.75-6.7 1.15-6.2 4.25-8.5 5.75m9.9-47.3.25.05-1.5 6.5-2.2 3.55-2.15 3.5h-.05q-1.25-2.25-3.9-4.55l-.1-.15 1.9-1.7 7.75-7.2m6.75 9.55-.35 5.5q-1 3.5-1.35 5.65-.4 2.35-.1 3.05v.1l-1.75.1-1.35 1.75-1.05 1.05-1.25-3.25 2.4-4.65.9 2.45-.9-2.45 4.8-9.3m6.65 19.65 2.05-.15 6.05 9.05-1.6 12.9 4.15 13.15-6.5-6.8-1.7-15.05-2.55-3.6.1-.1h-.05l.45-.75q.85-6.85-.4-8.65m-18.05-21.85-1.45 4.05 1.45-4.05m19.1 29.5-.65 1 .65-1m-14.6 12.8.5-.05 7.6-.1 1.05 7.95-.15.05.3 1.1v.15l.2 1.3.1.5.05.9.1.35v2.15l-9.75-14.3m19.8 5.95.25-4.6-.25 4.6" fill="#9e8e3a" fill-rule="evenodd" transform="translate(.1 .1)"/><path d="m96.85 52.9 1.6.8-1.9 1.7v.05l.1.1q2.65 2.3 3.9 4.55.7 1.3 1 2.6l.2 2-.2-2q-.3-1.3-1-2.6h.05l2.15-3.5 1.9 4.05-.65 1.45-2.25 2.6-1.45 1.8-1.4-.45L97.8 60l-2.15.25-.35.05-1.05.05-.7.05-7.45-.25-1.65 3.25.25.75q.5 1.45.2 3.9t1.2 5.05q1.45 2.55 3.15 3l2.75.45-4.95 4.4-1.6 1.45-3.1-7.4L81 78.3l-2.3-5.5 1.35-6.25 1-4.5.5-2.4 7.75-10.4 7.55 3.65M86.8 78.2l-1.35 4.2 1.35-4.2m-.7-18.05.4-.9-.4.9m-3.5 9.25 1.85-6-1.85 6" fill="#d2c962" fill-rule="evenodd" transform="translate(.1 .1)"/><path d="m119 75.75.6-.05q1.25 1.8.4 8.65l-.45.75-.05.1-3.25 5.2-.6 3.6-1.5 1.95V96l-7.6.1-.5.05q-5.35.55-8.75-1 2.95.9 7.55-1.55 5.85-2 12.6-7.95l.55-1.6.25-.65q1.55-5.05.75-7.65m-24.75-15.4 1.05-.05.4.1q1.05.3 1.55 1.4.45 1.1 0 2.3t-1.5 1.8q-1.1.6-2.15.3l-1.2-.85.25-.2.65-.1.5-.55v-.75l-.5-.45-.65.1-.5.6-.25.05q-.15-.8.15-1.55.4-1.2 1.5-1.8l.7-.35M89.6 62.4q1.25.9 1.7 2l.15.65v.05l.05.6-.2.9q-.4 1.15-1.45 1.75l-2.1.25q-1.05-.3-1.45-1.35-.45-1.1-.2-2.8.2-1.75 1.25-2.35 1-.6 2.25.3m.1 3.5q.15.3.45.4l.6-.05.4-.55v-.6l-.4-.4-.6.05-.45.5v.65" fill="#dfe388" fill-rule="evenodd" transform="translate(.1 .1)"/><path d="m91.9 64.05.25-.05q-.15.35 0 .7h-.1l-.15-.65m.75 1.1-.25.2-.3-.6.05-.05.5.45" fill="#cbc470" fill-rule="evenodd" transform="translate(.1 .1)"/><path d="m92.15 64 .5-.6.65-.1.5.45v.75l-.5.55-.65.1-.5-.45q-.15-.35 0-.7m-2.45 1.9v-.65l.45-.5.6-.05.4.4v.6l-.4.55-.6.05q-.3-.1-.45-.4M65.6 95.95l.05.15q-.5.15-.05-.15m-.75.65h.05l.2.6-.1-.2-.15-.4" fill-rule="evenodd" transform="translate(.1 .1)"/><path d="m115.65 94-.45 9.95-1.05-7.95v-.05l1.5-1.95m2.45 14.5 4.75 6.4-.05 5.85-1.6 3.95-5.45-6.75.05-7.5v-2.15l-.15-1.25-.1-.5-.1-.95.1-.1 2.55 3m-13.45-47.85-1.9-4.05 2.2-3.55 2.2.25-2.5 7.35" fill="#dfda9f" fill-rule="evenodd" transform="translate(.1 .1)"/><path d="m112.6 142.95-17.8 5.55-12.4-41.3-22.8-50.6q13.95-2.55 27-9.55l-15.75 16.6 3.2 23.3 5.15 7.5 5.15-6.75 5.45 4.4.55 2.25 2.25-.05.35.3-3 8.35-1.8-1.05-.25 10 2.8 4.2 2.7.25 2.8 2.2v.8l6 3.75-4 3v9.9l3.8 5.7 10.6 1.25m.6-113.75 13.75 32.75-10.5-10.8-1-6.6-6.4-5.45-4.75 3.25-8-1.15 16.9-12m-16.25 76.75 4.35 2.8.35 4.55-5.5-4.85.8-2.5" fill="#e0cf74" fill-rule="evenodd" transform="translate(.1 .1)"/><path d="m89.6 72.4-.65-.65Q87.2 69.9 89.1 70l2.25.15-1.75 2.25" fill="#393615" fill-rule="evenodd" transform="translate(.1 .1)"/><path d="m94.8 148.5 4 17.2-7.8 17.7q-3.25-13.5-7.8-27.1-10.9-32.65-28.4-64.4.45-8.7 6.25-17.45l.4-.55.55-1.3-2.4-16 22.8 50.6 12.4 41.3m-14.75-29.75-2.35-10.2q-2.1-.3-2.65-2.35l-.15-.7-.1-.8-.1-.25-8.45-28.1-.35-.4-.2.15q-1.8 4.05-2.35 8.45l-3.05-3.6.8 12-.5.45-2.05-.2 2.8 3.8 3.8 12.95q.3.6.9.15v-.2l4.9 12.8.45 1.95q.45 3 3 1.55l15.1 37.75.8.2.35-1.15 1.05.35.9-1 1.95.6-.45-2.2 1.35-2.25q-9.55-18.85-15.4-39.75m-12-6.25-.15.2q-.1-.2-.05-.6l.2.4" fill="#f7ef99" fill-rule="evenodd" transform="translate(.1 .1)"/><path d="M63.35 84.55q.55-4.4 2.35-8.45l.2-.15.35.4 8.45 28.1.1.25.1.8.15.7q.55 2.05 2.65 2.35l2.35 10.2 4.2 18-2.7-8.15q-.2 0-.3.1-.25.2-.35.55v.2l-4.3-1.15 13.2 33.75.3-.7 1.55 1-.95-3.8-6.7-19.1-.65-2.25.2.25.4.15H84l.15-.3 2.3 4.35.1.15L92 158.15v.1l.6 4.1-.9 1-1.05-.35-.35 1.15-.8-.2-15.1-37.75q-2.55 1.45-3-1.55l-.45-1.95-4.9-12.8v.2q-.6.45-.9-.15L61.35 97l-.75-3.6.5-.45L65 106.1l.55.25 2.4 4.8-.1.95q-.05.4.05.6l.15-.2q.6.05.7.3l1.95 5.45q-.05-1.6.4-3.05.6-1.95.85-4.05l.4-6.3q0-1.4.8-2.15L73 102l-7.15-23.95-.1.75q.5 3.35 1.3 6.7l1.6 7.4 1.5 8.85-.05.35-.35.1-.15.15-.15-.2-.25-.25-.65-4.3-2-2.65.8 3.55-.35.1h-.25l-.3-.2-.8-2.3-.05-.15-.8-4 .6-.1 1.55 2-3.6-9.3m2.85 4.4-.9-6.6q-.15 1.7.1 3.4.2 1.6.8 3.2M68.05 94l-.1-.8-.5-.9.6 1.7m5.15 11.45q.35 6.2-1.6 11.9l1.15 8.35.75-.1.25-1.1h.9l1.55 2.8q2.55-2.95 2.7-7.15.1-4-.95-7.75l-.8-2.9L76 109q-1.95-1.35-2.15-3.8l-.65.25m7.6 22.95-1.15-6.6-2.1 5.75 3.25.85" fill="#70652e" fill-rule="evenodd" transform="translate(.1 .1)"/><path d="M111.15 70.35v-.1l.05.1h-.05m-15.8 22.2-.3.2.25-.25.05.05" fill="#ccc782" fill-rule="evenodd" transform="translate(.1 .1)"/><path d="m91.35 70.15 1.35.05 1.6-.45.6 1.25 1.95-1.25-1-1.45.05-.1q1.55-2.05 2.1-.7t-.7 3.4q-1.25 2-2.6 2.8-1.35.75-2.7.35-1.1-.35-2.4-1.65l1.75-2.25" fill="#585321" fill-rule="evenodd" transform="translate(.1 .1)"/><path d="m95.35 92.55-.5.4.2-.2.3-.2" fill="#cdba7a" fill-rule="evenodd" transform="translate(.1 .1)"/><path d="m92.8 94.25.15.35-.35-.3.2-.05" fill="#dccba3" fill-rule="evenodd" transform="translate(.1 .1)"/><path d="m155.1 86.5 2.8.2 6 14-9.2 9.2-2.35-2.7-3.2 2.6-2.6 8.8q6.1 9.15-25.65 21.9l-8.2 2.55-17.8 5.55 4 17.2-7.8 17.7-13 17-3.2 2.35q.15 3.3-.6 7.15l2.2 5.7-8.4 17.2h-4.4l-9.8-22.4 1.9-3.15q-7.9-17.75-19.35-40.3-12.25-24.1-22.7-42.3l-2.85 1.35L.1 107.7V95.3l4.4-6.4 5.55-1.4q11.3-16.35 18.45-33l14-11.3-.1-.2q16.9-6.45 42.1-19.65l20.9-10.95-.9-2.5 4.95-2.4L124.7.1l2.3 4.85 6.7 13.95-3.8 2.15 25.2 65.45-4.8 4.4 3.4 8.2 1.6 2.2-2.2 2m-3.95 6.5-.6-11.95L116.5 19.1m37.2 80-2.8 4.2 1.45 3.9M141.1 95.7l5.45 22.9M105.4 12.4l.25.65.6 1.65.85.75 3.6 3.25 7.4-3.4 3.6 8.8h5l3.2-3.05m-85.15 23-.1-.15m-.95 1.05 1.05-.9 6.15 8.6 43.4-22.2 22.2-11.35M39.4 61.35l-1.8 1.55-3.9 11.6q-6.75 13.85-18.6 27.6l2.4 6.2q35.05 60.85 49.25 100.5l4.1-2.95 4.05-3M37.6 62.9l-6.3-7.55M15.75 86l2.55 5.5-1.4 3.2-4.2 7 7.2 17.2-1.95 3.1-.65 1q-1.75.85-3.55 1.75m45 82.65 2.55-4.5 1.6 2 4.6 10.4 3.35-9.45L74.3 210M45.5 59.85l1.6-.35L57.35 57l-3.5-1.6-4.55-2.1-.1-.15-9.8 8.2 4.45-1.1 1.65-.4m3.7-6.7-5.5-8.2M8.3 97v-.7m0 .7v7.1l9.65 17.9m-2.2-36-3.35.9-2.35.6M59.7 56.7l-2.35.3m37.55 91.6-12.4-41.3-22.8-50.6m-8.8-4.05-1.6.65m9.45 154.1-2.95-.05m-1.9 3.15 6.15-.25 2.85-5.35" fill="none" stroke="#000" stroke-linecap="round" stroke-linejoin="round" stroke-opacity=".243" stroke-width=".25"/><path d="m156.7 88.1-4.6 3.3m-21.85 19.25 1.05 3.25 4 3.7-1.75 6.75-6.3 2.55-.5 2.25-7.1-.45-4.35 1.65-.7-1.9-3.25 2.15-2.55-.15.2-6.65 1.75-4.2L97.8 98.9l-.5-3.75-1-1.35-.95-1.25-.05-.05-.2.2.2-.25v.05m-.45.45-1.75 1.2-.3.1m13.65-47.7.05-.25-.3.2.3-.3v.1l4.65-2.55 2.3 5.5-.5 6.8-.35 5.5-1.15 5.65 1.8 4.35.05.2.35 1.95.65 1.6.85-.35.6 1.05 3.25-.25.6-.05 2.05-.15 6.05 9.05-1.6 12.9 4.15 13.15M119.5 85.2l-3.25 5.2-.6 3.6-.45 9.95.1.55 2.8 4 4.75 6.4 2.8 3.75M98.45 53.7l-1.6-.8-7.55-3.65-7.75 10.4-.5 2.4-1 4.5-1.35 6.25 2.3 5.5 1.35-3.3 3.1 7.4 1.35-4.2m9.75-22.8v.05l.1.1m-.1-.15 1.9-1.7 7.75-7.2-9.35 6.4m-2.6 7.45 1.05-.05.35-.05L97.8 60l1.1 6.05 1.4.45 1.45-1.8-.2-2q-.3-1.3-1-2.6-1.25-2.25-3.9-4.55m-3.1 4.85.7-.05-.7.35q-1.1.6-1.5 1.8-.3.75-.15 1.55m.5 1.3 1.2.85q1.05.3 2.15-.3 1.05-.6 1.5-1.8t0-2.3q-.5-1.1-1.55-1.4l-.4-.1m-1.75.1-7.45-.25-1.65 3.25.25.75q.5 1.45.2 3.9t1.2 5.05q1.45 2.55 3.15 3l2.75.45q1.65.05 3.3-.65l1.1-.55q2.35-1.35 3.65-3.65l.85-1.85.15-.4.6-2.5.1-2.25 2.25-2.6.65-1.45-1.9-4.05-2.15 3.5h-.05m-8.45 4.65-.05-.05-.15-.65m.2.7.3.6m12.55-12.3-2.2 3.55m1.25 5.5-.65 1.5-.1 4.6 1.8-1m-.4-6.55 2.5-7.35-2.2-.25 1.5-6.5M100.1 57.9l1.45-4.05M89.8 92.1l-.35-1.55-2.4-9.6-1.6 1.45m4.15-20q1.25.9 1.7 2l.15.65v.05l.05.6-.2.9q-.4 1.15-1.45 1.75l-2.1.25q-1.05-.3-1.45-1.35-.45-1.1-.2-2.8.2-1.75 1.25-2.35 1-.6 2.25.3m-3.1-3.15-.4.9m-6.05 6.4-1.7.05-5.2-4.45 7.9-.1M89.6 72.4l-.65-.65Q87.2 69.9 89.1 70l2.25.15 1.35.05 1.6-.45 1.55-1.45.05-.1q1.55-2.05 2.1-.7t-.7 3.4q-1.25 2-2.6 2.8-1.35.75-2.7.35-1.1-.35-2.4-1.65l1.75-2.25M73 102l.15.7m-6.4 1.6v-2.25M89.8 92.1l.55 2.25 2.25-.05.2-.05m18.35-24q-.3-.7.1-3.05.35-2.15 1.35-5.65m-1.45 8.8h.05l-.05-.1m1.85 1.3.3.2m-.3-.2h.25m2.5 4.45.35 1-7.8 4.9-1.55-.6L95.3 92.5m-.25.25-.2.2m16.35-22.6 1.8 1.2-4.9.8-.3.1-.8.8q-8.9 9.3-15 12l-.1.05-1.35.6-1.1 4.65m28.8-7.15q1.55-5.05.75-7.65m.5 9.45.05-.1.45-.75q.85-6.85-.4-8.65M97.3 95.15q2.95.9 7.55-1.55 5.85-2 12.6-7.95l.55-1.6.25-.65m1.75.95.65-1m-11.6-15.55-.9-2.45-1.15-3m-5.95 7.1 2.2-1.25m4.7 4.2.1-.2-.25.25m.25-.25 1.35-1.75 1.75-.1m-16.85-.6.6 1.25 1.95-1.25-1-1.45m3.35 9.35.05-.25h-.05l-2.55-.1m2.55.35.35 1.3M92 85.25l-.1-.2v.25m0-.25-.45-.8v-.05q-.65-1.6-.3-3.3m13.65 7.15q.15 1.35 1.25.9 1.25.2 2-1.15m-1.3-6.5-.7-.25m-6.8-3.65.75-3.45m6.05 22.2.5-.05 7.6-.1v-.05l1.5-1.95M95.1 92.7l-.05.05m2.25 2.4q3.4 1.55 8.75 1m9.75 14.3v-2.15l-.1-.35-.05-.9-.1-.5-.2-1.3v-.15l-.3-1.1.15-.05-1.05-7.95m1.15 8.5-.25-.5.3 1-.05-.5m.05.6.05.15-.05-.25v.1m0 .15.05.05v-.05.05l.15.2 2.55 3m-2.7-3.2.05.3-.05-.3m.05.3.1.95m.1.5.15 1.25m10.3-10.8-.25 4.6m-15.7-25.35 4.15-1.45m-4.3-.35 1.4-.55M92 76.55l-4.95 4.4m-2.6-17.55-1.85 6m40.15 56.7 1.85-1.05m-8.8-14.6-.05 7.5 5.45 6.75 1.6-3.95.05-5.85m-12.1 4.7 1.5 2.5m4.05 4.7 2.05-1.2m2.85-.9-1.55 4m-6-2.75.95 2.5m12.65-1.55.55-2.2" fill="none" stroke="#000" stroke-linecap="round" stroke-linejoin="round" stroke-opacity=".522" transform="translate(.1 .1)"/><path d="m47 59.4-.6 5m-7.7 30.55 5.1-8.35m.5 6.7 7.5-13.5m62.75-54.95L98.4 34.6l-19 8.8m-13.3 4.3-12.5 5.1m2 6 .2 5.8m59.65-42.5L74.6 44.2l-8.5 3.5" fill="none" stroke="#bcac78" stroke-linecap="round" stroke-linejoin="round" transform="translate(.1 .1)"/><path d="M114.4 25.35 137 80.2M43.75 60.15 42.6 68.2l-4.4 10m-15 21.2 6-6.4m26.2 61.4 16.8 42.4M45 93.6Q59.65 118 70.85 142q7.7 16.5 13.75 32.8M23.4 100q23.1 39.65 36.8 74" fill="none" stroke="#957e4a" stroke-linecap="round" stroke-linejoin="round" transform="translate(.1 .1)"/><path d="m61.05 74.45.4-.55.55-1.3-2.4-16m-4.8 35.3q.45-8.7 6.25-17.45" fill="none" stroke="#f8f2d6" stroke-linecap="round" stroke-linejoin="round" transform="translate(.1 .1)"/></g></defs></svg>