<svg viewBox="0 0 142.5 164.55" xmlns="http://www.w3.org/2000/svg" xmlns:xlink="http://www.w3.org/1999/xlink"><use width="142.5" height="164.55" xlink:href="#a"/><defs><g id="a"><path d="m187.4 122.65 13.15-6.15 13.5 9.25-.05.1-6.95 12.4-9.9 4.6 9.95 1.05h2.95l-2.95 1.3-7.25 2.1 2.7 4.45-13.5 6.5-6.3-3.25v.05l-2.3 3.75-9.9 3.95-4.25-5.75-2.5 6.25-10.75-12.5 2.75-5 7.5-.75-7-5.25 8-21.75 5 5.5 10.75-7.5 9.5-7.25-11.25 30.5-3.7 1.4 7.2-20.65-3 2.5-4.2 18.15-3 1.15 19.6-2.1-5.95-3.15 16.55-3.05h-9.75 9.75l-16.55 3.05.05-.3h.05l6.7-2.75 6.75-2.75 6.5-3.25h-6.5l-12.35 1.4.95-6.25m-16.6 20.55.8-1.4-.8 1.4-2.15-.25-.6-13.7-4-4V128l-1.5 10.75 6.1 4.2-5.35 2.05.8.75h5.2l1.35-2.35 21.4 5.1V146l-21.25-2.8m-15 2.55h8.3-8.3l7 10.25v-2.25l-7-8m21.75 8.5-3.8-4.7-13-1.9 5.35 2.05 1.55.6 1.15.5-1.25 3.1 10 3.1v-2.75M98.05 110 95.5 94l-7-12-2.75-2.75v13.5l9.9 15.15-21.1-18.4 9-16 17.5 8v4.25l-3 24.25m3-14.75 8-15.25 13-6v17.5l-17.5 11.7 12.5-20.7h-2.75l-3.9 7.85-1.75 2.5.9-.8-5.6 11.2-2.9-8m12.5 5 5-2.75h14.5l-6.5 17h-10.8l-4.7-5.5 11.85-3.85 4.9-.9v-2.5h-2L101.05 109l12.5-8.75m1.5 20.2-4.5 1.45v-.4l-1.95 1 13.7 19.5 7.75 27.5 8.5-52-6.4 52.9-.05.4v-.05l12.2-17.25-10.5 18.2 3 1.55-5.65 3 .95-5.45-1.5 2.05-.55-3.35-1.75 8.95 2.85-2.1-8.1 46.75-7.5 14.95 4.5-18.45q4.1-1.05 8.25-41.15l-.75-3.65v-2.5l-4.5-9.75 4.25 3.95-1.05-5.25L122.3 142l-15.45-18.25-.2-.25-1.95 1-9.65 5v-8h-18.5l-5-21.25H84.8L95.05 111l-16.55-7.5h-3l3.75 3.25 15.8 4.25-5.55 5.5 2.75 2.5 2.8 2.5L93 114l11.7 10.5.8-12-4.45-3.5h10l4 11.45m-20-9.45h-9.3l-4 5.25 13.3-5.25m32.5 61.3-.25-5.8.25 5.8M92.25 119l-15.7 2.5 15.7-2.5" fill="#066" fill-rule="evenodd" transform="translate(-71.55 -73.5)"/><path d="M198.8 127.5h6.5l-6.5 3.25-6.75 2.75-6.7 2.75 13.45-8.75m-28 15.7 21.25 2.8v2.5l-21.4-5.1.15-.2-.15.2-2-.45-4.6-14.95v-2.75l4 4 .6 13.7 2.15.25m-15 2.55 7 8V156l-7-10.25m18.8-5.1 4.2-18.15 3-2.5-7.2 20.65m2.95 13.6V157l-8.65-6.2 8.65 3.45m-91.8-72v-3L88.5 82l9.55 28-12.3-27.75m52.8 35.25 3.25-3-9.65 55.9 6.4-52.9m-7.4 58.75v.1l-2.85 2.1 1.75-8.95.55 3.35.55 3.4m-27.2-73 5.6-11.2-.9.8 1.75-2.5 3.9-7.85h2.75l-12.5 20.7-.9.6.3-.55m-8.9 7.75-15.8-4.25-3.75-3.25h3l16.55 7.5m6-2 24.75-7.25h2v2.5l-4.9.9-21.85 3.85 2.6-5.2.9-.6-3.5 5.8m1 3.75 2.65 11.75-6.65-10.75V110l4 2.75" fill="#063" fill-rule="evenodd" transform="translate(-71.55 -73.5)"/><path d="m189.55 108.75-2.15 13.9-.95 6.25 12.35-1.4-13.45 8.75h-.05l-.05.3 5.95 3.15-19.6 2.1 3-1.15 3.7-1.4 11.25-30.5m-18.9 34.65-1.35 2.35h-5.2l-.8-.75 5.35-2.05 2 .45m-6.6-15.4 4.6 14.95-6.1-4.2 1.5-10.75m9.7 21.55 3.8 4.7-8.65-3.45 8.65 6.2-10-3.1 1.25-3.1h.1l-.1-.05-1.15-.45-1.55-.6v-.15h7.65M88.5 82l7 12 2.55 16 3-24.25v9.5l2.9 8-.3.55-2.6 5.2 3.5-5.8 17.5-11.7-8.5 8.75-12.5 8.75 4.45 3.5-.8 12-2.65-11.75 3.45-.25-3.45.25-4-2.75-9.55-28m-13.95 7.5 21.1 18.4-9.9-15.15v-10.5L98.05 110v3.75L93 114l5.05-.25 6.65 10.75L93 114l2.05 7.5-2.8-2.5-2.75-2.5 5.55-5.5-13.3 5.25 4-5.25h9.3l-20.5-21.5m21.1 18.4 2.4 2.1-2.4-2.1m20.1 6.6 3.8 4.5-4.5 1.45-4-11.45h-10l21.85-3.85-11.85 3.85 4.7 5.5m7.3 108.6v8.7l-7.5 6.25 7.5-14.95m-22-117.55 2.6-1.75-2.6 1.75" fill="#003000" fill-rule="evenodd" transform="translate(-71.55 -73.5)"/><path d="m98.05 110 3-24.25m-26.5 3.75 21.1 18.4m2.4 2.1-2.4-2.1m8.9-4.7 17.5-11.7m-17.5 11.7-.9.6-2.6 1.75m4.45 6.95-3.45.25m2.65 11.75.8-12-4.45-3.5M93 114l5.05-.25M93 114l11.7 10.5M95.05 111l-5.55 5.5 2.75 2.5 2.8 2.5m0-10.5-13.3 5.25 4-5.25h9.3m6-15.75 2.9 8" fill="none" stroke="#030" stroke-linecap="round" stroke-linejoin="round" transform="translate(-71.55 -73.5)"/><path d="m186.45 128.9 12.35-1.4m-6.75 6h9.75l-16.55 3.05m5.95 3.15-19.6 2.1-.8 1.4-.15.2-1.35 2.35h-13.5m22.5-6.5 11.25-30.5M164.05 128l-1.5 10.75 6.1 4.2m5.1 6.6 3.8 4.7m0 2.75-10-3.1M88.5 82l7 12 2.55 16m-2.4-2.1-9.9-15.15v-10.5m37.15 22.9L111.05 109l4 11.45m-14-11.45 12.5-8.75m13.75 66.25.25 5.8m-51-50.8 15.7-2.5" fill="none" stroke="#003000" stroke-linecap="round" stroke-linejoin="round" transform="translate(-71.55 -73.5)"/></g></defs></svg>