<svg viewBox="0 0 51.99 78.095" xmlns="http://www.w3.org/2000/svg" xmlns:xlink="http://www.w3.org/1999/xlink"><use transform="matrix(.9933 .0789 -.0789 .9933 -7.93 -9.88)" width="68.45" height="87.3" xlink:href="#a"/><defs><g id="a" transform="translate(4.45 18.7)"><use transform="translate(10.4 52)" width="8" height="16.6" xlink:href="#b"/><use transform="matrix(-.6249 -.413 -.3086 .7233 62.457 -5.165)" width="32.75" height="45.5" xlink:href="#c"/><use transform="matrix(.8027 1.136 -.7133 .7284 37.729 -17.328)" width="32.75" height="45.5" xlink:href="#c"/><use transform="matrix(.759 1.156 -.7564 .6866 29.986 -.824)" width="32.75" height="45.5" xlink:href="#c"/></g><g id="c" transform="translate(-3.05 -2.55)"><use transform="matrix(.1801 -.16 .16 .1801 7.9 30.404)" width="34.65" height="97.85" xlink:href="#d"/><use transform="matrix(-.2333 -.0583 -.0583 .2333 35.794 22.924)" width="34.65" height="97.85" xlink:href="#d"/><use transform="matrix(.1801 -.16 .16 .1801 6 27.304)" width="34.65" height="97.85" xlink:href="#d"/><use transform="scale(-.2405 .2405) rotate(-14.03 250.4 644.775)" width="34.65" height="97.85" xlink:href="#d"/><use transform="matrix(.1801 -.16 .16 .1801 3.05 22.604)" width="34.65" height="97.85" xlink:href="#d"/><use transform="matrix(-.2333 -.0583 -.0583 .2333 34.494 13.424)" width="34.65" height="97.85" xlink:href="#d"/><use transform="rotate(-41.613 26.207 4.886) scale(.2227)" width="34.65" height="97.85" xlink:href="#d"/><use transform="matrix(-.2104 -.0525 -.0525 .2104 31.888 11.869)" width="34.65" height="97.85" xlink:href="#d"/><use transform="rotate(-41.619 22.325 1.746) scale(.1858)" width="34.65" height="97.85" xlink:href="#d"/><use transform="matrix(-.1882 -.047 -.047 .1882 29.45 7.28)" width="34.65" height="97.85" xlink:href="#d"/><use transform="matrix(-.1793 .0383 .0383 .1793 20.312 2.55)" width="34.65" height="97.85" xlink:href="#d"/></g><g id="e"><path d="M3.9 42.75q-5.6-7.75-6-21.1-1.1-36.5-7.95-69.7Q.35-2.85 4.3 42.3l-.4.45" fill="#d3a401" fill-rule="evenodd" transform="translate(10.05 48.05)"/><path d="M2.05 31.75.85 30.7.3 30q.1-6.65 2.75-12.9.9-2.05.75-4.35 3.6-6.65 9.1-11.4L14.3 0l3.2.7.3.3q-2.65-.15-4 1.5l-.95 5.95-.2.05q-.2.05-.35.2-1.85-1.3-4.65 3.95-.85 1.6-1.8 3.75.95-2.15 1.8-3.75Q9 11 11.3 10.5l2.3 1.3-1.7 2.95-.35.75q.3 9.65-.55 19.15l-.45 1.5-.75 1.6q-2.65 2.15-5.5-.25-1.85-10.6 1.55-21.1l-2.1 5.4-1.7 9.95" fill="#fff5d5" fill-rule="evenodd" transform="translate(10.05 48.05)"/><path d="M12.85 8.45q.9-.2 2.05 1.05l-1.3 2.3-2.3-1.3Q9 11 7.65 12.65q2.8-5.25 4.65-3.95.15-.15.35-.2l.2-.05M18.1 47.6l-1 .8q-1.95 1.6-4.4 1.4l-.4-.05-1 .05q-2.1 0-3.75-1.4L2.2 43.95Q.25 42.35.05 39.9q-.25-2.5 1.4-4.4l.6-3.75 1.7-9.95 2.1-5.4Q2.45 26.9 4.3 37.5q2.85 2.4 5.5.25l.75-1.6.45-1.5-.1 1-.1 3.1 7 7.5.3 1.35M12.3 8.7q-.55.35-1 1.3.45-.95 1-1.3" fill="#d3a401" fill-rule="evenodd" transform="translate(10.05 48.05)"/><path d="M14.9 9.5q2.5 2.7 6 12.3l2.3 13.7q1.6 1.9 1.4 4.4-.25 2.45-2.15 4.05L18.1 47.6l-.3-1.35-7-7.5.1-3.1.1-1q.85-9.5.55-19.15l.35-.75 1.7-2.95 1.3-2.3" fill="#fc0" fill-rule="evenodd" transform="translate(10.05 48.05)"/><path d="m12.3 49.75-.35.05h-.65l1-.05" fill="#836501" fill-rule="evenodd" transform="translate(10.05 48.05)"/><path d="M22.9 56.5q.9-.2 2.05 1.05 2.5 2.7 6 12.3l2.3 13.7q1.6 1.9 1.4 4.4Q34.4 90.4 32.5 92l-4.35 3.65-1 .8q-1.95 1.6-4.4 1.4l-.4-.05-.35.05h-.65q-2.1 0-3.75-1.4L12.25 92q-1.95-1.6-2.15-4.05-.25-2.5 1.4-4.4l.6-3.75 1.7-9.95 2.1-5.4q.95-2.15 1.8-3.75 2.8-5.25 4.65-3.95.15-.15.35-.2l.2-.05m-1.55 1.55q.45-.95 1-1.3m0 41.05-1 .05" fill="none" stroke="#c90" stroke-linecap="round" stroke-linejoin="round" stroke-width=".05"/></g><path d="M7 1Q3.75 8.3 2.5 11.75L1 15.6" fill="none" stroke="#960" stroke-linecap="round" stroke-linejoin="round" stroke-width="2" id="b"/><use width="34.65" height="97.85" xlink:href="#e" id="d"/></defs></svg>