<svg viewBox="0 0 336.18 258.4" xmlns="http://www.w3.org/2000/svg" xmlns:xlink="http://www.w3.org/1999/xlink"><use transform="translate(0 .01)" width="336.2" height="258.4" xlink:href="#a"/><defs><g id="a" transform="translate(.75 .75)"><use transform="translate(-.75 -.75)" width="336.2" height="258.4" xlink:href="#b"/><use transform="matrix(-1.3129 -.1602 -.1602 1.3129 129.16 62.821)" width="18.65" height="31.65" xlink:href="#c"/><use transform="matrix(-1.329 -1.247 -1.247 1.329 143.81 88.22)" width="10.4" height="15.45" xlink:href="#d"/><use transform="translate(35.15 54.2)" width="214.75" height="141.7" xlink:href="#e"/><use transform="matrix(2.0562 -1.9234 1.5229 1.4723 81.307 199.49)" width="18.65" height="31.65" xlink:href="#c"/><use transform="matrix(-1.6694 -1.1556 1.3011 -1.3504 144.38 248.97)" width="10.4" height="15.45" xlink:href="#d"/><use transform="translate(243.3 154)" width="20.2" height="10.75" xlink:href="#f"/><use transform="scale(-1.8247 1.8247) rotate(-36.958 32.211 294.677)" width="18.65" height="31.65" xlink:href="#c"/><use transform="matrix(.4154 -1.7745 -1.7745 -.4154 290.49 195.57)" width="10.4" height="15.45" xlink:href="#d"/><use transform="translate(56.5 97.3)" width="208.95" height="66.6" xlink:href="#g"/></g><g id="b"><path d="M259.3 203.1q-14.5-4.95-2.7-22.05-2-3.8.15-5.6 29.65 5 71.55-8.35 12.65-3.7.2 24.15-7.6 17.1-18.7 23-6.95 3.95-15.5 3.3-21.7-1.4-35-14.45M28.85 167.95q-9.7 2.4-18.15-2.2-3.3-1.8-4.45-5.2Q4.4 155.3 8 146.15q5.75-15 9-10.3 10.35 15.85 23.05 20.85.1 1.3-2 2.45-2.05 10.2-9.2 8.8" fill-rule="evenodd" transform="translate(.75 .75)"/><path d="M257.5 176.2q29.65 5 71.55-8.35 12.65-3.7.2 24.15-7.6 17.1-18.7 23-6.95 3.95-15.5 3.3-21.7-1.4-35-14.45M40.8 157.45q-12.7-5-23.05-20.85-3.25-4.7-9 10.3-3.6 9.15-1.75 14.4 1.15 3.4 4.45 5.2 8.45 4.6 18.15 2.2" fill="none" stroke="#827065" stroke-linecap="round" stroke-linejoin="round" stroke-opacity=".482" stroke-width="1.5"/><path d="M156.8 103.15q.3-2.25 1.05-4.15.95-1.8 2.5-3.3 3.15-2.9 9-6.55 5.95-3.65 10.4-4.45 4.55-.8 10.3 3.25 5.45 3.8 8.1 8.75l.3.6q2.6 5.3 2.25 9.2-2.85 1.7-15.55 1.75-12.65 0-18.75-1.9l-9.6-3.2" fill="#704221" fill-rule="evenodd" transform="translate(.75 .75)"/><path d="M214.2 117.45q18.15-7.9 22.6-10.5 4.5-2.95 20.5-15.1 31.05-30 61.9-60.5 5.2-.95 8.2 2.2 3.05 19.25-5.6 62.35l-8.1 37.4q-3.75 15.7-10.7 20.55-5.6 3.5-15.75 7.35-65.9-21.85-73.05-43.75m32.65 13.3q31.15 9.65 31.3-1.9 9.1-34.85 37.8-82.1-28.7 47.25-37.8 82.1-.15 11.55-31.3 1.9" fill-rule="evenodd" transform="translate(.75 .75)"/><path d="M214.95 118.2q18.15-7.9 22.6-10.5 4.5-2.95 20.5-15.1 31.05-30 61.9-60.5 5.2-.95 8.2 2.2 3.05 19.25-5.6 62.35l-8.1 37.4q-3.75 15.7-10.7 20.55-5.6 3.5-15.75 7.35M316.7 47.5q-28.7 47.25-37.8 82.1-.15 11.55-31.3 1.9" fill="none" stroke="#827065" stroke-linecap="round" stroke-linejoin="round" stroke-opacity=".482" stroke-width="1.5"/><path d="M70 118.5q-.9-2.05-1.15-4.05-.1-2.05.55-4.1 1.3-4.15 4.7-10.3 3.35-6.1 6.9-9.05 3.6-3 10.7-2.45 6.6.55 11.35 3.5l.55.35q4.95 3.25 6.5 6.8-1.65 2.95-12.75 9.4-11.1 6.4-17.35 7.85l-10 2.05" fill="#704221" fill-rule="evenodd" transform="translate(.75 .75)"/><path d="M57.55 52.55q1.2 7 4.25 15.9 7.1 22.15 22.75 55.9 3 10.65-6.9 11.65-10.5.05-14.9-8.55-16.65-37.5-24.15-59.3-5.75-16.3-6.4-24.15.7 1.7 2.35 2.85 2.85 2.05 10.3-.7 1.9-1.75 3.55-2.45 4.95 1.65 8.05.75.35 3.95 1.1 8.1" fill-rule="evenodd" transform="translate(.75 .75)"/><path d="M32.95 44.75q.65 7.85 6.4 24.15 7.5 21.8 24.15 59.3 4.4 8.6 14.9 8.55 9.9-1 6.9-11.65-15.65-33.75-22.75-55.9-3.05-8.9-4.25-15.9" fill="none" stroke="#504630" stroke-linecap="round" stroke-linejoin="round" stroke-width="1.5"/><path d="M36.75 13.35q7.65-9.65 13-13.3Q57.85-.8 72.6 11.4q16.25 11.4 5.05 19.4-1.1.15-3.65 1.2-8.6 7-15.55 14.2-1.5.85-1.35 1.9-.15-1.05 1.35-1.9Q65.4 39 74 32q3.1 4.9 4.65 10.7 6.15 16.4-6.3 16.95l-13.6.8q-1.1-6.4-1.65-12.35-4.65 1.35-12.25-1.1-2.55.95-5.35 3.65-11.35 4.15-15.7 1.1-2.5-1.75-3.5-4.3Q2.35 26.5 0 16.5q.15-5.55 14.95-11.95Q30.95-1 36.4 11.2l.35 2.15q4.8 11.7 11.15 22.7Q50.35 40.5 44.85 47q5.5-6.5 3.05-10.95-6.35-11-11.15-22.7" fill-rule="evenodd" transform="translate(.75 .75)"/><path d="M74.75 32.75q2.55-1.05 3.65-1.2 11.2-8-5.05-19.4Q58.6-.05 50.5.8q-5.35 3.65-13 13.3 4.8 11.7 11.15 22.7 2.45 4.45-3.05 10.95 7.6 2.45 12.25 1.1-.15-1.05 1.35-1.9 6.95-7.2 15.55-14.2 3.1 4.9 4.65 10.7 6.15 16.4-6.3 16.95l-13.6.8m-22-47.1-.35-2.15Q31.7-.25 15.7 5.3.9 11.7.75 17.25q2.35 10 20.3 30.95 1 2.55 3.5 4.3 4.35 3.05 15.7-1.1 2.8-2.7 5.35-3.65" fill="none" stroke="#827065" stroke-linecap="round" stroke-linejoin="round" stroke-opacity=".482" stroke-width="1.5"/><path d="M59.5 61.2q-1.1-6.4-1.65-12.35" fill="none" stroke="#504630" stroke-linecap="round" stroke-linejoin="round" stroke-width="1.5"/><path d="M64.55 109.5q-38.9 40.65 66.05 36 35.9-1.9 72-18 71.9 51.3 90 34.35 6.05 7.4 12 15.7 4.35 12 6.2 22 2.8 15.45-.4 26.15l1.8.35-1.85-.2q-35.15.3-47.8 5.6 16.25-11.55 12.05-13.95-67.4-32.25-126 0-106.2-39.9-103.55-3.95-46-30.7-22.45-67.2 10.5-16.3 34.95-33.8 3.5-1.6 7-3.05M310.4 225.7l-.05.15.05-.15" fill="#ce9957" fill-rule="evenodd" transform="translate(.75 .75)"/><path d="M292.6 161.85q-18.1 16.95-90-34.35-36.1 16.1-72 18-104.95 4.65-66.05-36Q138 78.85 211.6 103q42.95 12.25 81 58.85" fill="#c67d50" fill-rule="evenodd" transform="translate(.75 .75)"/><path d="M45.05 213.55Q42.4 177.6 148.6 217.5q58.6-32.25 126 0 4.2 2.4-12.05 13.95 12.65-5.3 47.8-5.6-3.8 12.2-15.6 18.15-140.2 36.55-249.7-30.45" fill="#e4c99c" fill-rule="evenodd" transform="translate(.75 .75)"/><path d="M293.35 162.6q-38.05-46.6-81-58.85-73.6-24.15-147.05 6.5-3.5 1.45-7 3.05-24.45 17.5-34.95 33.8Q-.2 183.6 45.8 214.3m265.3 12.3.05-.15q3.2-10.7.4-26.15-1.85-10-6.2-22-5.95-8.3-12-15.7m17.75 64q-3.8 12.2-15.6 18.15Q155.3 281.3 45.8 214.3" fill="none" stroke="#000" stroke-linecap="round" stroke-linejoin="round" stroke-opacity=".502" stroke-width="1.5"/><path d="m201.75 119.2.15.7q1.45 5.75.45 10.1-2.9 2.2-14.1 3.25-11.25 1.15-16.35-.45l-8-2.85q.6-2.55 1.6-4.75 18.05 4.9 36.25-6" fill="#704221" fill-rule="evenodd" transform="translate(.75 .75)"/><path d="M165.5 125.2q1.2-2.1 2.8-3.85 3.25-3.55 9.15-8.15 5.85-4.6 10-5.85 4.15-1.3 8.55 2.75 4.2 3.8 5.75 9.1-18.2 10.9-36.25 6" fill="#9a5023" fill-rule="evenodd" transform="translate(.75 .75)"/><path d="M235.35 175.2q-9.7 5.3-25.95 5.3t-29.55-5.3q-13.2-5.25-15.7-12.7t7.2-12.75q9.75-5.25 26-5.25t29.5 5.25q13.25 5.3 15.75 12.75t-7.25 12.7" fill="#c67d50" fill-rule="evenodd" transform="translate(.75 .75)"/></g><g id="h"><path d="M8.6 12.55q-.55.85-2 .35-5.5 5.05-8 .15-5.3-4.1-6.9-11.75-.65-3 .4-5.7 1.55-4.25 7.25-7.8 9.3-5.85 8.6-1.15-2.65 15.6.65 25.9" fill-rule="evenodd" transform="translate(9.3 16.2)"/><path d="M17.9 28.75q-3.3-10.3-.65-25.9.7-4.7-8.6 1.15-5.7 3.55-7.25 7.8-1.05 2.7-.4 5.7 1.6 7.65 6.9 11.75" fill="none" stroke="#827065" stroke-linecap="round" stroke-linejoin="round" stroke-opacity=".482" stroke-width="1.5"/></g><g id="i"><path d="M-4.4-1.35q-2.6-4.4.1-8 .85-1.1 2.25-2.2 5.9-3.4 5.2.45-.45 2.15-.45 5.85L2.8-.1l.05.9q-1.05.55-2.3.6l-2.6-.45-2.35-2.3" fill-rule="evenodd" transform="translate(6.45 13.9)"/><path d="M2.05 12.55q-2.6-4.4.1-8Q3 3.45 4.4 2.35q5.9-3.4 5.2.45-.45 2.15-.45 5.85l.1 5.15.05.9" fill="none" stroke="#827065" stroke-linecap="round" stroke-linejoin="round" stroke-opacity=".482" stroke-width="1.5"/></g><g id="e"><path d="m128.55 104.1.5.4q4.1 4.3 5.4 8.6-1.4 3.3-10.6 9.9-9.15 6.55-14.35 7.7l-8.35 1.55q-.75-2.5-.95-4.9 18.05-4.75 28.35-23.25" fill="#704221" fill-rule="evenodd" transform="translate(-35.15 -54.2)"/><path d="M100.2 127.35q-.1-2.45.45-4.75 1.05-4.75 3.85-11.65 2.75-6.85 5.7-10 2.95-3.25 8.85-1.95 5.5 1.2 9.5 5.1-10.3 18.5-28.35 23.25" fill="#9a5023" fill-rule="evenodd" transform="translate(-35.15 -54.2)"/><path d="m67.9 113.3.85.25q7.55 3.15 11.25 7.3-.7 4.2-11.25 15.05Q58.2 146.7 51.2 150q-7.05 3.35-11.35 4.95-2.1-2.4-3.3-4.95 23.9-12.35 31.35-36.7" fill="#704221" fill-rule="evenodd" transform="translate(-35.15 -54.2)"/><path d="M36.55 150q-1.1-2.65-1.3-5.4-.35-5.65.85-14.35 1.25-8.65 4.2-13.25 2.95-4.7 11.9-5.6 8.45-.8 15.7 1.9-7.45 24.35-31.35 36.7" fill="#9a5023" fill-rule="evenodd" transform="translate(-35.15 -54.2)"/><path d="m224.1 147.05.05.45q1.05 3.55.2 6.3-2.1 1.4-10.6 2.2-8.45.85-12.3-.1l-5.95-1.7q.45-1.55 1.3-2.95 13.4 2.8 27.3-4.2" fill="#704221" fill-rule="evenodd" transform="translate(-35.15 -54.2)"/><path d="M196.8 151.25q.85-1.35 2.05-2.45 2.6-2.25 7.05-5.2t7.55-3.8q3.15-.85 6.45 1.6 3.1 2.35 4.2 5.65-13.9 7-27.3 4.2" fill="#9a5023" fill-rule="evenodd" transform="translate(-35.15 -54.2)"/><path d="m149.1 142.55.05.45q1.05 3.55.2 6.3-2.1 1.4-10.6 2.2-8.45.85-12.3-.1-3.8-.95-5.95-1.7.45-1.55 1.3-2.95 13.4 2.8 27.3-4.2" fill="#704221" fill-rule="evenodd" transform="translate(-35.15 -54.2)"/><path d="M121.8 146.75q.85-1.35 2.05-2.45 2.6-2.25 7.05-5.2t7.55-3.8q3.15-.85 6.45 1.6 3.1 2.35 4.2 5.65-13.9 7-27.3 4.2" fill="#9a5023" fill-rule="evenodd" transform="translate(-35.15 -54.2)"/><path d="M157.35 195.15q-6.7-3.5-10.8-6.6-7.45-6.2-8.5-23.5l-1.5-41.05q-.7-47.05 7.5-67.1 4.5-3.1 10.75-1.3l62.8 73.35q17.05 15.3 22.05 19.05l9.5 5.75q-7.95 2.8-13.55 8.5-3.25 3.3-5.4 7.45-4.35.25-9.65 1.45l-6.1 1.6q-5 1.55-8.85 3.6l-12.05-.4q-16.65.7-26.85 7.9-6.35 4.5-9.35 11.3M155.2 72.5q24.7 54.5 27.95 92.9-2.2 11.25 31.3 7.35-33.5 3.9-31.3-7.35-3.25-38.4-27.95-92.9" fill-rule="evenodd" transform="translate(-35.15 -54.2)"/><path d="m214 99.55-9.5-5.75q-5-3.75-22.05-19.05L119.65 1.4Q113.4-.4 108.9 2.7q-8.2 20.05-7.5 67.1l1.5 41.05q1.05 17.3 8.5 23.5 4.1 3.1 10.8 6.6m57.1-22.4q-33.5 3.9-31.3-7.35-3.25-38.4-27.95-92.9" fill="none" stroke="#827065" stroke-linecap="round" stroke-linejoin="round" stroke-opacity=".482" stroke-width="1.5"/></g><g id="f" fill-rule="evenodd"><path d="m243.4 160-.05.3q-.2 2.4.65 4.1 1.65.65 7.45.1t8.25-1.65l3.8-1.8-1.2-1.75q-8.75 3.5-18.9.7" fill="#704221" transform="translate(-243.3 -154)"/><path d="m262.3 159.3-1.75-1.35q-2-1.15-5.4-2.5-3.35-1.35-5.55-1.45-2.2-.15-4.15 1.85-1.75 1.9-2.05 4.15 10.15 2.8 18.9-.7" fill="#9a5023" transform="translate(-243.3 -154)"/></g><g id="g"><path d="M76.6 163.15q-4.9-.65-10-3.4-4.05-2.15-6.35-6.25-3.65-6.4-2.85-17.65 1.15-18.45 6.05-12.8 12.1 14.6 23.55 21.65-.85 2.55-1.55 5.15l-1 4.05q-2.15 1.25-2.35 1.45-2.1 1.4-3.8 3.65-1.05 1.35-1.7 4.15" fill-rule="evenodd" transform="translate(-56.5 -97.3)"/><path d="M30.5 47.4Q19.05 40.35 6.95 25.75 2.05 20.1.9 38.55.1 49.8 3.75 56.2q2.3 4.1 6.35 6.25 5.1 2.75 10 3.4" fill="none" stroke="#827065" stroke-linecap="round" stroke-linejoin="round" stroke-opacity=".482" stroke-width="1.5"/><path d="m206.6 102.8-.3.4q-2.55 3.75-2.8 7.25 1.7 2.5 10.2 6.85t12.9 4.8l6.95.5q.15-2.1-.1-3.95-15.3-2.15-26.85-15.85" fill="#704221" fill-rule="evenodd" transform="translate(-56.5 -97.3)"/><path d="M233.45 118.65q-.4-1.9-1.2-3.75-1.7-3.65-5.2-8.8-3.4-5.2-6.35-7.45t-7.4-.7q-4.2 1.4-6.7 4.85 11.55 13.7 26.85 15.85" fill="#9a5023" fill-rule="evenodd" transform="translate(-56.5 -97.3)"/><path d="m249.9 136.35-.15.45q-.95 3.65-.8 6.45 1.05 1.45 5.8 2.25t7.1-.15l3.6-1.7-.4-3.05q-8.05 2.9-15.15-4.25" fill="#704221" fill-rule="evenodd" transform="translate(-56.5 -97.3)"/><path d="M265.05 140.6q-.3-1.4-.9-2.5-1.2-2.3-3.35-5.3-2.25-3.05-3.95-3.9t-3.9 1.7q-2.05 2.4-3.05 5.75 7.1 7.15 15.15 4.25" fill="#9a5023" fill-rule="evenodd" transform="translate(-56.5 -97.3)"/></g><use width="18.65" height="31.65" xlink:href="#h" id="c"/><use width="10.4" height="15.45" xlink:href="#i" id="d"/></defs></svg>