<svg viewBox="0 0 38.165 48.975" xmlns="http://www.w3.org/2000/svg" xmlns:xlink="http://www.w3.org/1999/xlink"><g transform="translate(-.737 -.275)"><use transform="translate(.9 .3)" width="38" height="38.4" xlink:href="#a"/><use transform="matrix(.7513 0 0 1.0625 .738 44.15)" width="25.3" height="4.8" xlink:href="#b"/></g><defs><linearGradient id="c" x1="-819.2" x2="819.2" gradientUnits="userSpaceOnUse"><stop stop-color="#bebdb1" offset="0"/><stop stop-color="#f8f7e6" offset="1"/></linearGradient><path d="M25.35 2.4q-.05 1-3.75 1.7l-8.9.7-8.95-.7Q0 3.4.05 2.4 0 1.4 3.75.7L12.7 0l8.9.7q3.7.7 3.75 1.7" fill-opacity=".6" fill-rule="evenodd" transform="translate(-.05)" id="d"/><use width="25.3" height="4.8" xlink:href="#d" id="b"/><g id="a"><path d="m21.05 32.7.1.05.7.2 5.25.45q2.65-.45 4.15-1.25l3.2-2.4q1.7-1.55 3.05-4.15.6-1.15.6-2.5 0-2.95-1.9-5.15l-1.25-1.15q-2.25-1.55-5.05-1.5-2.25 0-4.1-1.1-.75-.45-1-1.2l-.05-.8q.5-2.35 6.15-4.25 1.05-.5 1.55-1.55l.15-.6q-.2-2.4-2.55-3.5Q27.5 1.05 24.7.95q-2.75-.15-5 1.35-1.3.8-2.25 2.05-1.6 1.95-2.5 4.3l-.5 1.15-.55.95-.8.6q-2.05 1.05-4.4 1.1l-5.35.6q-.5.1-.9.4-1.05.7-.85 1.95.4 2.85 2.2 5.2l-.4.65-1.55-3.1-.75-2Q.85 15.2.95 14.3q.15-.95 1.5-1.75t4.15-.75q2.95.3 5.65-.9 1.2-.55 1.8-1.8l.8-1.85q.95-2.2 2.35-4.05.55-.8 1.35-1.25 2.4-1.4 5.3-1.65 2.65-.15 5.2.6 2.7.85 4.35 3.2.9 1.25.5 2.7-.35 1.15-1.35 1.7l-2.35.9q-2.3.55-4.15 2l-.5.65q-.2.4-.05.85.2.95 1.05 1.3 1.65.65 3.5.6 2.95-.1 5.6 1.1 1.15.5 1.9 1.45 1.4 1.95 1.35 4.3-.1 2.6-1.2 4.95-1.25 2.55-3.45 4.35-2 1.65-4.4 2.55-2.5 1-5.15.8l-4-.55-.2-.05.35-.55.2-.45-.2.45-.35.55h-.1l-.2-.05-.95-.35-.7-.35.6-1.05.7.35 1 .4.2.05" fill="#595959" fill-rule="evenodd" transform="translate(-.9 -.3)"/><path d="m5.85 18.4.45-.35.2-.15 2.55 1.95h.05l.3.25 6.8 5.05-7.2-4.7-3.15-2.05m6.75-2.75h.45l.15.05 1.25.9 3.5 2.6.2-.15.15-.15q.15-.15.45-.2l-.9-.95-.75-.65-1.2-.7-.5-.2.45.05h.1l1.25.35.8.3 1.2.7.75.65.9.95-.2.55q.4.05.8.35l.5 1 .25.55.3 1.05.25 1.05.15 1.05.05 1.05v1.1L22.8 28l-.15.75v.1l-.1.3-.05.25-.3.9-.45 1.1-.7 1.3-.2-.05-1-.4-.7-.35.5-1 .45-1.1.3-1-4.05-3.5.05-.05 4.15 3.1.15-.85.15-1.05v-1.1l-.05-1.05-.15-1.05-.25-1.05-.3-1.05v-.05l-.1-.2.1.1-.15-.3.15.3-.1-.1v-.1l-.05-.1-.05-.05-.1-.15-.1-.2-.05-.05-.2-.5.25.55.1.2-1.25-1.25-.5.05-.1-.1v.05h-.05l-3.75-2.5-1.6-1.1h.05m5.95 17.3.7.35.95.35.2.05h.1l-.05.1-.25.35-.2.2-.1.2-.05.05-.25.3-.3.3-.75.8-.8.7-.95.6-.9.55-.7.4-.15.05-.5.2-.1.05-.3.1-2.8-.3.6-.15.1-.05.75-.25-4.5-4.25-1.9-.3-4.7-.7-.15-.55 4.7 1 2.15.4-2.65-2.4-4.5-4 .05-.4v-.15l4.35 4.15 3 2.85 4.45 4.2.7-.4.9-.55.95-.6.8-.7.75-.8.65-.7-12.2-5.55L18 33.75l.55-.8m-8.6 4.1-.5.55-.5.75H8.8V37l.3-1.4.85 1.45m-7.7-13.6.05-.1.15-.35 4.35.7 9.5 1.55L6.65 24l-4.4-.55M20.4 28.8l.15-.45-.15.45 2.25.05-2.25-.05m-.3-7.7.05.1-.05-.1h1.85-1.85M18 33.75l1.85.85-1.85-.85m-3.55 4.8-1.35-.8 1.35.8m-5.8-5-.25-.05.25.05" fill="#bebdb1" fill-rule="evenodd" transform="translate(-.9 -.3)"/><path d="M12.5 15.65h.1-.1m6.65 16.25-.6 1.05-.55.8-12.35-5.3L17.85 34l-.65.7-.75.8-.8.7-.95.6-.9.55-.7.4-4.45-4.2-3-2.85-.05-2.3.1-1.2q.25-1.7.95-3.2l9.65 1.25-9.5-1.55q.8-1.75 2.2-3.25l7.2 4.7-6.8-5.05q1.9-1.9 4.75-3.35l3.75 2.5-.05.05h.05l.85.55-.85-.55h.15l.7.55L20 20.9l.1.2v.05l.3 1.05.25 1.05.15 1.05.05 1.05v1.1l-.15 1.05-.15.85-4.15-3.1h-.1.1l-.05.05 4.05 3.5-.3 1-.45 1.1-.5 1m-7.8 6.45-.85-.45.2-.1.15-.3h-.3l-.25.05h-.05l-.3-.5-.85-1.45-.3 1.4q-1.6-1.7-2.4-3.65l1.9.3 4.5 4.25-.75.25-.1.05-.6.15m5.05-13.1-.2-.1.2.1h-.1l.05.05-.05-.05h.1m3.45-4.65.1.15h-.05l-.05-.15M5.6 28.4l.05.05-.05-.05m2.8 5.1-2.15-.4-.5-2 2.65 2.4" fill="#f8f7e6" fill-rule="evenodd" transform="translate(-.9 -.3)"/><path d="m3.4 21.25.4-.65.2-.25.7-.85.8-.75.35-.35L9 20.45q-1.4 1.5-2.2 3.25L2.45 23l.35-.75.6-1m3.1-3.35q.3-.3.7-.5l1.15-.75.7-.25 1.25-.5.95-.2 1.25-.05h.05l1.6 1.1Q11.3 18.2 9.4 20.1l-.3-.25h-.05L6.5 17.9m6.7-2.2.65.05.35.1.9.25.25.05-.9.45-1.25-.9M8.85 38.5l-.8-.15-.9-.15L6 37.7l-.7-.35-.75-.5-.7-.55-.3-.4-.65-.8-.25-.4.4-1.05-1.2-.55-.15-.45 4.7.7Q7.2 35.3 8.8 37v1.35l.05.15m-7.3-6.4L1.5 32l-.2-1-.15-1.05-.05-1.1.05-1.1.1-.65 4.5 4 .5 2-4.7-1m-.25-5.55.25-.95.3-1.15.4-1 4.4.55q-.7 1.5-.95 3.2l-.1 1.2.05 2.3-4.35-4.15 4.3 1.85-4.3-1.85" fill="url(#c)" fill-rule="evenodd" transform="translate(-.9 -.3)"/><path d="m15.35 16.15.05.05.5.2 1.2.7.75.65.9.95q-.3.05-.45.2l-.15.15-.2.15.1.1.5-.05 1.25 1.25-.1-.2-.25-.55.2.5.05.05.1.2.1.15.05.05.05.1v.1l-1.25-1.05-.7-.55h-.2l.05-.05h.05v-.05l-3.5-2.6.9-.45M10.5 37.9l.05-.4h.3l-.15.3-.2.1m-1.55.45-.1.15-.05-.15h.15m10.9-17.75.1.1-.1-.1.05.15h.05l-.1-.15v-.05l-.05-.05.05.05v.05m-1.95-1.35v.05-.05m2.2 1.85.05.1-.05-.1" fill="#fff" fill-rule="evenodd" transform="translate(-.9 -.3)"/><path d="m2.9 20.3.2-.25.7-.85.8-.75.35-.35.45-.35.2-.15q.3-.3.7-.5l1.15-.75.7-.25 1.25-.5.95-.2 1.25-.05h.55l.15.05.65.05.35.1.9.25.25.05.05.05.45.05h.1l1.25.35.8.3 1.2.7.75.65.9.95-.2.55q.4.05.8.35l.5 1 .25.55.3 1.05.25 1.05.15 1.05.05 1.05v1.1l-.15 1.05-.15.75v.1l-.1.3-.05.25-.3.9-.45 1.1-.7 1.3m-1.9-.8-.6 1.05m1.95.75-.05.1-.25.35-.2.2-.1.2-.05.05-.25.3-.3.3-.75.8-.8.7-.95.6-.9.55-.7.4-.15.05-.5.2-.1.05-.3.1-2.8-.3-.85-.45.05-.4-.25.05h-.05l-.3-.5-.5.55-.6.9-.8-.15-.9-.15-1.15-.5-.7-.35-.75-.5-.7-.55-.3-.4-.65-.8-.25-.4.4-1.05-1.2-.55-.15-.45-.15-.55-.05-.1-.2-1-.15-1.05-.05-1.1.05-1.1.1-.65.05-.4v-.15l.25-.95.3-1.15.4-1 .05-.1.15-.35.35-.75.6-1m16.7-.1v-.05m.45 7.25-.15.45m-1.65-10.1q-.3.05-.45.2l-.15.15-.2.15m1.9 1.4v-.05l-.05-.05M17.15 19h-.05M7.9 36.7l.3-1.4.85 1.45m-1 1.3H7.9l.05.15m1.7-1h.3l-.15.3-.2.1m-1.7.45V36.7" fill="none" stroke="#51625e" stroke-linecap="round" stroke-linejoin="round" stroke-width=".1"/><path d="m20.15 32.4-.2.45-.35.55M2.5 20.95l.4-.65m16.2.3-1.25-1.05L17 19v-.05m2.05 1.45.15.3-.1-.1m-.05-.2-.1-.1m-7.35-4.95h.05m3.85 9.6h-.1l.05.05" fill="none" stroke="#596a63" stroke-linecap="round" stroke-linejoin="round" stroke-width=".1"/><path d="m8.5 19.8 6.8 5.05.2.1 4.15 3.1m-.15.45 2.25.05M5.6 17.6l2.55 1.95h.05l.3.25m-6.95 2.9 4.35.7 9.5 1.55h.1m1.55-6.05.1.1.7.55M12.3 15.4l1.25.9m3.5 2.6-3.5-2.6m-8.8 11.85-.05-.05m.05 2.3 3 2.85 4.45 4.2 1.35.8m5.4-3.95-1.85-.85-12.35-5.3m.6 4.65 2.15.4.25.05m-2.4-.45-4.7-1M.4 26.25l4.35 4.15M.4 26.25l4.3 1.85m16.35-7.3H19.2" fill="none" stroke="#51625e" stroke-linecap="round" stroke-linejoin="round" stroke-width=".1"/></g></defs></svg>