<svg viewBox="0 0 194.25 180.4" xmlns="http://www.w3.org/2000/svg" xmlns:xlink="http://www.w3.org/1999/xlink"><use transform="translate(.02 .025)" width="194.2" height="180.35" xlink:href="#a"/><defs><g id="a"><path d="m230.85 77.85-2.25-2.2q.65-3.05 2.3-4.9 8.5-6.6 17.25-6.6 1.45.55 2.05 1.45.6.85 1.3 4.05 1.35 9.25-.25 16.2-1.6 3.4-5.75 5.95-6.15 4.55-13.6 4.45-1-.8-1.05-2.65 1.8 1.05 1.9-2.35v3.5q5.9-.45 9.3-2.7l1.1-.75L245 90q1.5-1 1.85-1.75l.1-.05v.05q1.45-.65 3-4.45 1.5-8.05.2-15.05-.9-2.35-3.15-3.1-7.45 1-13.9 5.85-2 2.6-2.25 6.35" fill="#ccc" fill-rule="evenodd" transform="translate(-158.3 -61.75)"/><path d="M230.85 77.85q.25-3.75 2.25-6.35 6.45-4.85 13.9-5.85 2.25.75 3.15 3.1 1.3 7-.2 15.05-1.55 3.8-3 4.45l.1-.15q3.75-5.85 1.8-18.45-3.5-3.75-14.25 3.75l-1.5 4.15q-.35 1.15-2.25.3m0 15.75q.05 1.85 1.05 2.65 7.45.1 13.6-4.45 4.15-2.55 5.75-5.95-.6 2.55-1.6 4.75-9 6.4-18.05 7.9-2.45-2.15-2.15-4.3l1.4-.6" fill="#666" fill-rule="evenodd" transform="translate(-158.3 -61.75)"/><path d="M232.75 91.25q-.1 3.4-1.9 2.35V77.85q1.9.85 2.25-.3l-.35 13.7M187.6 142q.4.75 2.8.7v19.45L187.6 142" fill="#513600" fill-rule="evenodd" transform="translate(-158.3 -61.75)"/><path d="m228.6 75.65 2.25 2.2Q204.6 93 191.9 119.1q-5.9 13.3-1.5 23.6-2.4.05-2.8-.7-4.65-8 .95-21.4 9.95-23.7 40.05-44.95" fill="#960" fill-rule="evenodd" transform="translate(-158.3 -61.75)"/><path d="M190.4 142.7q-4.4-10.3 1.5-23.6 12.7-26.1 38.95-41.25V93.6l-1.4.6q-27.8 12.15-39.05 58.2v-9.7" fill="#754f00" fill-rule="evenodd" transform="translate(-158.3 -61.75)"/><path d="m70.3 13.9 2.25 2.2q1.9.85 2.25-.3l1.5-4.15q10.75-7.5 14.25-3.75 1.95 12.6-1.8 18.45l-.1.15v-.05m-.1.05q-.35.75-1.85 1.75l-1.85 1.3-1.1.75q-3.4 2.25-9.3 2.7v-3.5q-.1 3.4-1.9 2.35l-1.4.6q-.3 2.15 2.15 4.3 9.05-1.5 18.05-7.9 1-2.2 1.6-4.75 1.6-6.95.25-16.2-.7-3.2-1.3-4.05-.6-.9-2.05-1.45Q81.1 2.4 72.6 9q-1.65 1.85-2.3 4.9-30.1 21.25-40.05 44.95-5.6 13.4-.95 21.4.4.75 2.8.7-4.4-10.3 1.5-23.6 12.7-26.1 38.95-41.25v15.75M74.8 15.8l-.35 13.7M32.1 80.95v9.7q11.25-46.05 39.05-58.2M32.1 90.65v9.75l-2.8-20.15" fill="none" stroke="#000" stroke-linecap="round" stroke-linejoin="round" stroke-opacity=".4" stroke-width=".05"/><path d="m88.65 26.45-.1.05" fill="none" stroke="#0f0" stroke-linecap="round" stroke-linejoin="round" stroke-width=".05"/><path d="M319.5 80.85q-2.6-13.8 24.4-19.1 6.25.05 8.6 2.65v3.7q-1.35-3.3-9-3.7-26.1 4.7-20.2 19.5l4.15 7.15q6.55 12.95 7.4 27.25l.1 3.2v2.5q-.15 5.85-1.2 11.95Q325 160.2 296.85 170l-2.4-2.25q23.95-7.2 33.4-24.45l2.95-6.6q6.2-22.5-9.75-51.35-1.15-2.35-1.55-4.5" fill="#960" fill-rule="evenodd" transform="translate(-158.3 -61.75)"/><path d="M296.85 170q28.15-9.8 36.9-34.05 1.05-6.1 1.2-11.95v23.15q-7.3 31.15-41.65 40.5l3.55-17.65m30.6-78.95-4.15-7.15q-5.9-14.8 20.2-19.5 7.65.4 9 3.7-.6 5.1-11.2 7.5-9.6 1.8-13.85 15.45" fill="#754f00" fill-rule="evenodd" transform="translate(-158.3 -61.75)"/><path d="M319.5 80.85q.4 2.15 1.55 4.5Q337 114.2 330.8 136.7l-2.95 6.6q1.75-31.5-4.95-39.95l-3.4-22.5" fill="#513600" fill-rule="evenodd" transform="translate(-158.3 -61.75)"/><path d="M194.2 6.35v-3.7Q191.85.05 185.6 0q-27 5.3-24.4 19.1.4 2.15 1.55 4.5 15.95 28.85 9.75 51.35l-2.95 6.6Q160.1 98.8 136.15 106l2.4 2.25q28.15-9.8 36.9-34.05 1.05-6.1 1.2-11.95v-2.5l-.1-3.2q-.85-14.3-7.4-27.25L165 22.15q-5.9-14.8 20.2-19.5 7.65.4 9 3.7-.6 5.1-11.2 7.5-9.6 1.8-13.85 15.45m-7.95-10.2 3.4 22.5q6.7 8.45 4.95 39.95m-32.3 27.1 1.3-.4L135 125.9q34.35-9.35 41.65-40.5V62.25" fill="none" stroke="#000" stroke-linecap="round" stroke-linejoin="round" stroke-opacity=".4" stroke-width=".05"/><path d="m189.75 101.05 1.25 1.5.85 19.9.6 10.55v7.35l-2.7 19.6v-58.9m10.4 46.65 7.3 6 .35.3q-.4 2.85-6.55 1.45-4.35 11.4-6.1 27.1L196.2 151l3.95-3.3m12.45 10.2 12.45 10.25 4.15-1.8-1.1 7.9-3.65 1.6v55.6L221 238.7l-10.2-8.9.1-.45 2.8-19.6-5 13.25-3.45-4.1q-3.75-31.75 2.6-57.65 5.2.6 4.75-3.35m22.05 6.1 7.9-3.45-5.35 17.85-2.55 6.6v-21m16.1-7 5.5-2.4q.95 4.05 7.35 4.15l3.8 28.15-1.2 33.95-21.05 10.5 3.2-24.35q6.7-22.1 6-44.2l-4.25-1.85.65-3.95m35.05-23.35 21.1-8.3 6.35 3.4-21.8 12.45 24.4-9.2-6.15 35.8-7.3 19.55 5.8-37.75h-3.85l-5.4 23.3q-15.1 31.3-32.35 44.55l2.8-24.9q6.1-27.7 18.55-49.65-7.9-3.35-2.15-9.25m23.25 53.3-3.65 10.55-.4 2.65-21.45 12.65 25.5-25.85m-118.4 14.35-.05 3.45-1.25 1.3V190l1.3-17.3v28.6m-4.55-5.7-2-2.5 1.3-5.5.7 8M170 170.9l-1.2-1.45-1.7-11.1-8.8-21.7 2.6 1.1 4.25 8 .7 1.35q-.4-13.6 2.55-23.6l3.2-1.4.6 5.15-3.8-3.75 3.8 3.75 2.75 23.8-6.15-15.5-1.1 2.7 6.8 22.65q-1.35 7.05-4.5 10m-9.3-65.9 3.65 10.75 1.85 5.6-.95 2.3L160.7 105m21.5 10.35 2.35 1.75v5.85l-2.45 1.2h-.05l-8.15-6.95 8.15 6.95q3.4 18.25 2.75 32.3l-5.45-17.2-3.05-.85 5.35 28.65-5.75-13.7q-2.2-19.75-2-36.15v-.05q2.6-3.15 8.3-1.8m-15.1 43 2.7 6.7-2.7-6.7m3.55-2.2-4.8-9.05 4.8 9.05m101.25-8.9h6.95l-5.5 10.5-1.45-10.5m25 2.6q-18.8 21-19.7 41.85 9.8-8 19.7-41.85m-81.1 23.6q-5.25 20.15-2.2 31.05 3.05-10.4 2.2-31.05" fill="#715b3e" fill-rule="evenodd" transform="translate(-158.3 -61.75)"/><path d="M184.55 117.1v-16.05h5.2v58.9l2.7-19.6v7.35l1.9 58.2-3.7-4.6v-28.6l-1.3 17.3v16.05l-2.65-3.7-.6-6.75-.7-8-1.3 5.5-5.1-6.4-.65-5.75-1.3-11.6-2.55-8.45-6.8-22.65 1.1-2.7 6.15 15.5.95 2.3 5.75 13.7-5.35-28.65 3.05.85 5.45 17.2q.65-14.05-2.75-32.3h.05l2.45 2.1v-9.15m71.7 37.5 8.45-3.7 3.85 3.2-1.15 32.8-3.8-28.15q-6.4-.1-7.35-4.15m-91.1-8.85-6.65-41.85 2.2 1.1 4.55 18.65.95-2.3-1.85-5.6h1.25l5.85 5.1.15 1.25-3.2 1.4-2.2-2.15 2.2 2.15q-2.95 10-2.55 23.6l-.7-1.35m5.55-31.3 7.7-1.9 3.8 2.8q-5.7-1.35-8.3 1.8l-3.2-2.7m17.75 53.65-3.65-11.65 3.65 11.65m-9.1 8.25-2.3-7 2.3 7m117.55-26.5q-9.9 33.85-19.7 41.85.9-20.85 19.7-41.85" fill="#8a7342" fill-rule="evenodd" transform="translate(-158.3 -61.75)"/><path d="m191.85 122.45 8.3 6.1-7.7 4.45-.6-10.55m16.4 31.9 4.35 3.55q.45 3.95-4.75 3.35-6.35 25.9-2.6 57.65l-10.9-13 .8-23.35q1.75-15.7 6.1-27.1 6.15 1.4 6.55-1.45l.45.35m20.95 12 1.6-11.6h3.85V185l2.55-6.6 5.35-17.85 4.25-14.15h5.75l-1.8 10.6-.65 3.95 4.25 1.85q.7 22.1-6 44.2l-7.9 26.75-11.6 8.35-4.4-10.65v-30.7l3.65-26.5 1.1-7.9m35.5-24.4 21.1-8.3q-5.75 5.9 2.15 9.25-12.45 21.95-18.55 49.65l3.95-34.8 5.5-10.5h-6.95l-7.2-5.3m48.55-13.2 2.6 3.25-24.4 9.2 21.8-12.45m-3.55 39.05 4.85-13.05 4.5 3.2-10 29-25.5 25.85-17.6 10.3.25-2.25.4-3.4q17.25-13.25 32.35-44.55l5.4-23.3h3.85l-5.8 37.75 7.3-19.55m-131.35 13.15L170 170.9q3.15-2.95 4.5-10l2.55 8.45 1.3 11.6m-6.9-60.1-.75-6.4 3.2 2.7v.05q-.2 16.4 2 36.15l-.95-2.3-2.75-23.8-.6-5.15-.15-1.25m13.1 2.1v3.3l-2.45-2.1 2.45-1.2m50.1 70.8V185v8.75m11.5-9.6 3.95-23.2-3.95 23.2m51.8-7.05 1-4.2-1 4.2m-82.15-3.65q.85 20.65-2.2 31.05-3.05-10.9 2.2-31.05" fill="#8a704d" fill-rule="evenodd" transform="translate(-158.3 -61.75)"/><path d="M200.15 128.55v19.15l-3.95 3.3-1.05 31.55-.8 23.35-1.9-58.2V133l7.7-4.45m64.55 22.35v-8.95l7.2 5.3 1.45 10.5-3.95 34.8-2.8 24.9-.4 3.4 1.2-33.95 1.15-32.8-3.85-3.2m-19.55 80.45q-3.1-2.05-4.7 2.4l7.9-26.75-3.2 24.35m-16.3 10.75-7.85-3.4 3.45-7.25 4.4 10.65m-17.95-12.75q.85-7.25-2.2-6.35l5-13.25-2.8 19.6m13.55-28.6v-24.9l3.65-1.6-3.65 26.5" fill="#53432d" fill-rule="evenodd" transform="translate(-158.3 -61.75)"/><path d="M26.25 55.35V39.3h5.2l1.25 1.5.85 19.9 8.3 6.1m29.05 37.8L72.5 93h3.85v9.25m7.9-3.45 4.25-14.15h5.75l-1.8 10.6m58.95 10.8L156.25 93l4.5 3.2-10 29-3.65 10.55m-76.55 44.6-7.85-3.4-10.2-8.9.1-.45q.85-7.25-2.2-6.35l-3.45-4.1-10.9-13-3.7-4.6-.05 3.45-1.25 1.3-2.65-3.7-.6-6.75-2-2.5-5.1-6.4-.65-5.75-8.35-10.05-1.2-1.45-1.7-11.1L0 74.9 2.6 76l4.25 8L.2 42.15l2.2 1.1L6.05 54H7.3l5.85 5.1-.75-6.4 7.7-1.9 3.8 2.8 2.35 1.75v9.15l-2.45-2.1h-.05m2.75 32.3 3.65 11.65M10.1 61.75l3.8 3.75-.6-5.15-.15-1.25m-5.25.5L6.05 54m1.85 5.6 2.2 2.15m5.5-6.35v.05-.05l-3.2-2.7m5.2 38.9 5.75 13.7L18 76.65l3.05.85 5.45 17.2m-10.3 4.45L9.4 76.5l1.1-2.7 6.15 15.5-2.75-23.8m9.9-3.1h-.05M6.85 84l.7 1.35 4.8 9.05m21.8-23.15-.6-10.55M15.6 55.45l8.15 6.95M11.5 103.3l-2.7-6.7m7.4 2.55 2.55 8.45 2.3 7m-4.4-25.3.95 2.3m9.5 34.25.7 8m-9.05-26.25 1.3 11.6m21.8-33.25-3.95 3.3-1.05 31.55m29.3 18.2 3.65-26.5 1.1-7.9m5.45 18.65V132m7.9-33.2-5.35 17.85-2.55 6.6v-21m64.3 8.9 5.4-23.3h3.85l-5.8 37.75 7.3-19.55M91.8 99.2l-3.95 23.2m3.95-23.2.65-3.95m48.2 15.9-1 4.2m-103.6 28.8.8-23.35" fill="none" stroke="#000" stroke-linecap="round" stroke-linejoin="round" stroke-opacity=".4" stroke-width=".05"/><path d="M41.85 66.8v19.15l7.3 6 .8.65 4.35 3.55 12.45 10.25 4.15-1.8m5.45-2.35 7.9-3.45m8.2-3.55 5.5-2.4 8.45-3.7V80.2l42.2-16.6 6.35 3.4 2.6 3.25-6.15 35.8m-4.3 29.7-.4 2.65-21.45 12.65-17.6 10.3.25-2.25-21.05 10.5q-3.1-2.05-4.7 2.4l-11.6 8.35m-36.4-109.1 7.7-4.45m-7.7 19.15v-14.7m74.95 53.9 1.15-32.8-3.85-3.2m2.7 36-1.2 33.95.4-3.4" fill="none" stroke="#000" stroke-linecap="round" stroke-linejoin="round" stroke-opacity=".4" stroke-width=".05"/><path d="m200.15 128.55-7.7 4.45-.6-10.55 8.3 6.1m-35.8-12.8h1.25l5.85 5.1.75 6.4-6-5.9-1.85-5.6m6.35-1.3 7.7-1.9 6.15 4.55v9.15l-2.45-2.1h-.05l-8.15-6.95v-.05l-3.2-2.7m58.5 51.9-1.1 7.9-3.65 1.6-16.6-14.6L196.2 151l3.95-3.3 24.9 20.45 4.15-1.8m10.8 2.7-5.35 2.35V164l7.9-3.45-2.55 8.5m73.25-40.3 2.6 3.25-24.4 9.2-3.5 1.7-9.1 4.35h-6.95l-7.2-5.3 42.2-16.6 6.35 3.4m-44.7 25.35-.1 2.55-19.05 8.3 1.35-7.95 13.95-6.1 3.85 3.2" fill="#fff" fill-opacity=".239" fill-rule="evenodd" transform="translate(-158.3 -61.75)"/></g></defs></svg>