<svg viewBox="0 0 36.061 63.355" xmlns="http://www.w3.org/2000/svg" xmlns:xlink="http://www.w3.org/1999/xlink"><g transform="translate(-311.99 -202.14)"><use transform="translate(312.75 229.55)" width="33.05" height="25.05" xlink:href="#a"/><use transform="matrix(.7513 0 0 1.0625 319.34 260.4)" width="25.3" height="4.8" xlink:href="#b"/><use transform="translate(312 202.15)" width="36.05" height="46.5" xlink:href="#c"/></g><defs><g id="a"><path d="m338.3 236.95-.2.05q-1.05.7-.85 1.15l.15.85.25.5.4.55q1.3.3 2.1-.6l.4-.35.05-.45-.25-.7q-.55-1.3-2.05-1m-.75 6.45-.45-.9-.35-.85q-.8-2.05-.55-3.95.25-2.1 1.55-2.9 2.25.6 3.8 2.55 1.4 1.75 1.7 4.1l-.25 1.95q-.35.95-1.75 1.15l-.85-.05q-.45-.05-.95-.6l-.5-1q-.05-.35.05-.65l.4-.65.4-.25.4-.1.2.05.25.1.35.75-.2.7q.7 0 .9-.95l-.5-1.05q-.3-.35-.55-.4-.8-.5-1.8.35-1.1.75-1.3 2.6" fill="#f9c" fill-rule="evenodd" transform="translate(-312.75 -229.55)"/><path d="M337.75 234.8q.85-.4 1.85-.3 1.45.1 2.6 1.2 1.1.95 1.8 2.4l.35.8.75 2.5q.4 1.6.05 3.25l-.1.3-1 1.55-1.25.3q-1.55.4-2.85-.7-1.45-1.15-2.4-2.7.2-1.85 1.3-2.6 1-.85 1.8-.35.25.05.55.4l.5 1.05q-.2.95-.9.95l.2-.7-.35-.75-.25-.1-.2-.05-.4.1-.4.25-.4.65q-.1.3-.05.65l.5 1q.5.55.95.6l.85.05q1.4-.2 1.75-1.15l.25-1.95q-.3-2.35-1.7-4.1-1.55-1.95-3.8-2.55" fill="#f39" fill-rule="evenodd" transform="translate(-312.75 -229.55)"/><path d="M338.3 236.95q1.5-.3 2.05 1l.25.7-.05.45-.4.35q-.8.9-2.1.6l-.4-.55-.25-.5-.15-.85q-.2-.45.85-1.15l.2-.05" fill="#fcc" fill-rule="evenodd" transform="translate(-312.75 -229.55)"/><path d="M337.75 234.8q.85-.4 1.85-.3 1.45.1 2.6 1.2 1.1.95 1.8 2.4l.35.8.75 2.5q.4 1.6.05 3.25l-.1.3-1 1.55-1.25.3q-1.55.4-2.85-.7-1.45-1.15-2.4-2.7l-.45-.9-.35-.85q-.8-2.05-.55-3.95.25-2.1 1.55-2.9z" fill="none" stroke="#000" stroke-linecap="round" stroke-linejoin="round" stroke-opacity=".6" transform="translate(-312.75 -229.55)"/><path d="M319.45 236.45h.05-.05" fill="#fbc9c6" fill-rule="evenodd" transform="translate(-312.75 -229.55)"/><path d="M319.5 236.45h-.05l-.15-.15-1.45.05-.55.65-.25.5-.2.7q.6 1.15 1.75 1.25l.55.15.4-.25.4-.7q.65-1.15-.45-2.2m-5.6 3.35.45-.85.4-.85q1.2-1.85 2.8-2.85 1.8-1.1 3.25-.55 1 2.1.4 4.55-.6 2.2-2.3 3.85l-1.65 1.05q-.95.25-1.9-.65l-.55-.75q-.2-.4-.1-1.1l.5-1.05.5-.35.75-.1.5.2.3.2.05.25.05.2-.3.8-.7.25 1.25.1.55-1v-.7q-.1-.9-1.4-1.25-1.25-.35-2.85.6" fill="#f9c" fill-rule="evenodd" transform="translate(-312.75 -229.55)"/><path d="M320.8 234.7q.9.4 1.4 1.25.8 1.25.65 2.8-.1 1.5-.75 2.9l-.45.8-1.45 2.1q-1.05 1.3-2.6 2l-.3.1-1.85.2-1.05-.8q-1.25-.95-1.15-2.65.05-1.8.65-3.6 1.6-.95 2.85-.6 1.3.35 1.4 1.25v.7l-.55 1-1.25-.1.7-.25.3-.8-.05-.2-.05-.25-.3-.2-.5-.2-.75.1-.5.35-.5 1.05q-.1.7.1 1.1l.55.75q.95.9 1.9.65l1.65-1.05q1.7-1.65 2.3-3.85.6-2.45-.4-4.55" fill="#f39" fill-rule="evenodd" transform="translate(-312.75 -229.55)"/><path d="M319.5 236.45q1.1 1.05.45 2.2l-.4.7-.4.25-.55-.15q-1.15-.1-1.75-1.25l.2-.7.25-.5.55-.65 1.45-.05.15.15h.05" fill="#fcc" fill-rule="evenodd" transform="translate(-312.75 -229.55)"/><path d="M320.8 234.7q.9.4 1.4 1.25.8 1.25.65 2.8-.1 1.5-.75 2.9l-.45.8-1.45 2.1q-1.05 1.3-2.6 2l-.3.1-1.85.2-1.05-.8q-1.25-.95-1.15-2.65.05-1.8.65-3.6l.45-.85.4-.85q1.2-1.85 2.8-2.85 1.8-1.1 3.25-.55z" fill="none" stroke="#000" stroke-linecap="round" stroke-linejoin="round" stroke-opacity=".6" transform="translate(-312.75 -229.55)"/><path d="M318.55 230.35q-1.4.15-2.3 1.2-.85.9-1.1 2.25l.1 1.1q.15.6.9.8h.5l.6-.25.3-.55v-.4l-.2-.4-.3-.2h-.3l-.1.05-.25.4.1.4q-.45-.05-.45-.6l.3-.55.3-.25q.5-.2 1.05.35.6.5.6 1.55l.3-.5.25-.45q.5-1.1.45-2.2-.05-1.25-.75-1.75m-.45 1.15.15.05.45.75-.1.45-.2.3-.25.25q-.75.1-1.15-.45l-.25-.25v-.25l.15-.35q.4-.75 1.2-.5" fill="#fc0" fill-rule="evenodd" transform="translate(-312.75 -229.55)"/><path d="M318.3 235.25q0-1.05-.6-1.55-.55-.55-1.05-.35l-.3.25-.3.55q0 .55.45.6l-.1-.4.25-.4.1-.05h.3l.3.2.2.4v.4l-.3.55-.6.25h-.5q-.75-.2-.9-.8l-.1-1.1q.25-1.35 1.1-2.25.9-1.05 2.3-1.2l-1.1-.3q-.85-.05-1.5.5l-1.1 1.25-.8 1.8q-.2.9-.1 1.9l.05.15.5.95.7.3 1.7-.25 1.4-1.4" fill="#f90" fill-rule="evenodd" transform="translate(-312.75 -229.55)"/><path d="M318.1 231.5q-.8-.25-1.2.5l-.15.35v.25l.25.25q.4.55 1.15.45l.25-.25.2-.3.1-.45-.45-.75-.15-.05" fill="#ff0" fill-rule="evenodd" transform="translate(-312.75 -229.55)"/><path d="M318.55 230.35q.7.5.75 1.75.05 1.1-.45 2.2l-.25.45-.3.5-1.4 1.4-1.7.25-.7-.3-.5-.95-.05-.15q-.1-1 .1-1.9l.8-1.8 1.1-1.25q.65-.55 1.5-.5z" fill="none" stroke="#000" stroke-linecap="round" stroke-linejoin="round" stroke-opacity=".6" transform="translate(-312.75 -229.55)"/><path d="m341.05 235.2-.15-.5-.1-.55q-.2-1.15.1-2.15.35-1.15 1.1-1.4 1.15.65 1.8 1.9.5 1.1.45 2.4l-.35 1.05q-.25.45-1 .4l-.45-.15-.5-.45-.1-.6.05-.35.3-.3.25-.1h.2l.1.1.1.05.15.45-.2.4q.4.1.55-.45l-.1-.6-.25-.3-1.05-.05q-.65.25-.9 1.2m1-3.35H342q-.65.25-.6.5v.5l.1.3.15.35 1.2-.1.25-.05.05-.25-.05-.45q-.15-.75-1.05-.8" fill="#fc0" fill-rule="evenodd" transform="translate(-312.75 -229.55)"/><path d="m342 230.6 1 .1q.8.25 1.3 1l.7 1.55.1.45.2 1.45q0 .9-.4 1.75l-.05.1-.7.75h-.7q-.9 0-1.45-.75-.65-.8-.95-1.8.25-.95.9-1.2l1.05.05.25.3.1.6q-.15.55-.55.45l.2-.4-.15-.45-.1-.05-.1-.1h-.2l-.25.1-.3.3-.05.35.1.6.5.45.45.15q.75.05 1-.4l.35-1.05q.05-1.3-.45-2.4-.65-1.25-1.8-1.9" fill="#f90" fill-rule="evenodd" transform="translate(-312.75 -229.55)"/><path d="M342.05 231.85q.9.05 1.05.8l.05.45-.05.25-.25.05-1.2.1-.15-.35-.1-.3v-.5q-.05-.25.6-.5h.05" fill="#ff0" fill-rule="evenodd" transform="translate(-312.75 -229.55)"/><path d="m342 230.6 1 .1q.8.25 1.3 1l.7 1.55.1.45.2 1.45q0 .9-.4 1.75l-.05.1-.7.75h-.7q-.9 0-1.45-.75-.65-.8-.95-1.8l-.15-.5-.1-.55q-.2-1.15.1-2.15.35-1.15 1.1-1.4z" fill="none" stroke="#000" stroke-linecap="round" stroke-linejoin="round" stroke-opacity=".6" transform="translate(-312.75 -229.55)"/><path d="m328.35 241.5-.05.05.05-.05" fill="#fbc9c6" fill-rule="evenodd" transform="translate(-312.75 -229.55)"/><path d="m328.3 241.55-.2-.05q-1.4.3-1.4.8l-.25.95.05.65.15.75q1.2.9 2.45.35l.6-.15.25-.45.05-.9q.05-1.55-1.65-2l-.05.05m-3.75 6.3-.05-1.1.05-1.05q.15-2.5 1.25-4.35 1.25-2.1 2.95-2.3 2.1 1.65 2.8 4.4.6 2.5-.2 5.05l-1.15 1.95q-.8.75-2.3.35l-.9-.45q-.45-.3-.7-1.05l-.05-1.3q.1-.35.35-.65t.7-.5l.6-.05.4.05.2.2.15.2.1.9-.6.65q.8.35 1.4-.55v-1.3l-.4-.7q-.6-.85-2.05-.5-1.5.3-2.55 2.1" fill="#f9c" fill-rule="evenodd" transform="translate(-312.75 -229.55)"/><path d="M328.75 239.05q1.1-.05 2.05.55 1.5.8 2.2 2.45.65 1.55.75 3.3l-.05 1.05-.35 2.9q-.35 1.85-1.5 3.4l-.25.25q-.8.85-1.75 1.15l-1.45-.25q-1.8-.3-2.6-2.05-.95-1.85-1.25-3.95 1.05-1.8 2.55-2.1 1.45-.35 2.05.5l.4.7v1.3q-.6.9-1.4.55l.6-.65-.1-.9-.15-.2-.2-.2-.4-.05-.6.05q-.45.2-.7.5t-.35.65l.05 1.3q.25.75.7 1.05l.9.45q1.5.4 2.3-.35l1.15-1.95q.8-2.55.2-5.05-.7-2.75-2.8-4.4" fill="#f39" fill-rule="evenodd" transform="translate(-312.75 -229.55)"/><path d="m328.3 241.55.05-.05q1.7.45 1.65 2l-.05.9-.25.45-.6.15q-1.25.55-2.45-.35l-.15-.75-.05-.65.25-.95q0-.5 1.4-.8l.2.05" fill="#fcc" fill-rule="evenodd" transform="translate(-312.75 -229.55)"/><path d="M328.75 239.05q1.1-.05 2.05.55 1.5.8 2.2 2.45.65 1.55.75 3.3l-.05 1.05-.35 2.9q-.35 1.85-1.5 3.4l-.25.25q-.8.85-1.75 1.15l-1.45-.25q-1.8-.3-2.6-2.05-.95-1.85-1.25-3.95l-.05-1.1.05-1.05q.15-2.5 1.25-4.35 1.25-2.1 2.95-2.3z" fill="none" stroke="#000" stroke-linecap="round" stroke-linejoin="round" stroke-opacity=".6" transform="translate(-312.75 -229.55)"/><path d="m319.9 241.7.2-.8.25-.8q.65-1.75 1.85-2.9 1.3-1.25 2.55-1 1.1 1.75.95 3.9-.15 1.95-1.2 3.65l-1.2 1.15q-.75.4-1.7-.25l-.5-.55-.35-.95.3-.95.35-.4q.25-.2.6-.2l.45.1q.1 0 .25.15l.1.2.05.15-.15.7-.55.35 1.1-.1.3-.95-.15-.6q-.2-.8-1.3-.85-1.1-.15-2.2.95m4-3.75-.15-.1q-1.05-.1-1.15.25l-.4.65-.1.5-.05.6q.65.95 1.6.8l.45.05.3-.3.25-.6q.35-1.15-.75-1.85" fill="#fc0" fill-rule="evenodd" transform="translate(-312.75 -229.55)"/><path d="M324.75 236.2q.8.25 1.3.9.85.95.95 2.3.1 1.3-.2 2.6l-.25.75-.8 2.05q-.7 1.25-1.85 2.15l-.2.1q-.75.45-1.45.45l-1-.5q-1.15-.65-1.35-2.1-.3-1.6 0-3.2 1.1-1.1 2.2-.95 1.1.05 1.3.85l.15.6-.3.95-1.1.1.55-.35.15-.7-.05-.15-.1-.2q-.15-.15-.25-.15l-.45-.1q-.35 0-.6.2l-.35.4-.3.95.35.95.5.55q.95.65 1.7.25l1.2-1.15q1.05-1.7 1.2-3.65.15-2.15-.95-3.9" fill="#f90" fill-rule="evenodd" transform="translate(-312.75 -229.55)"/><path d="M323.9 237.95q1.1.7.75 1.85l-.25.6-.3.3-.45-.05q-.95.15-1.6-.8l.05-.6.1-.5.4-.65q.1-.35 1.15-.25l.15.1" fill="#ff0" fill-rule="evenodd" transform="translate(-312.75 -229.55)"/><path d="M324.75 236.2q.8.25 1.3.9.85.95.95 2.3.1 1.3-.2 2.6l-.25.75-.8 2.05q-.7 1.25-1.85 2.15l-.2.1q-.75.45-1.45.45l-1-.5q-1.15-.65-1.35-2.1-.3-1.6 0-3.2l.2-.8.25-.8q.65-1.75 1.85-2.9 1.3-1.25 2.55-1z" fill="none" stroke="#000" stroke-linecap="round" stroke-linejoin="round" stroke-opacity=".6" transform="translate(-312.75 -229.55)"/></g><g id="c"><path d="M347.5 225.6q.2 1.05-.35 1.7-.5.65-1.45.6l-.6-.05q-1.15-.2-2.2-1l-.55-.4-.4-.4q-1-1.05-1.4-2.2-.5-1.4.15-2.2.4-.5 1.05-.6-.2 1.45.55 2.75.6.95 1.8 1l3.4.8m-30.65.85q-1 .75-2.05.95l-.55.05q-.9.05-1.4-.6-.65-.8-.15-2.2l.05-.25.05-.15q1.35 1 2.75-.15l1.75-2.2.8-1.25q.55.1.9.55.6.8.15 2.2-.4 1.15-1.35 2.2l-.4.4-.5.4-.05.05" fill="#660" fill-rule="evenodd" transform="translate(-312 -202.15)"/><path d="m347.5 225.6-3.4-.8q-1.2-.05-1.8-1-.75-1.3-.55-2.75l1.05.05q1.15.2 2.3 1.05v.05l.45.35q1.2 1.05 1.7 2.3l.1.25.15.5m-34.7-1.35h.05q.45-1.2 1.55-2.15l.4-.4.6-.4q.75-.5 1.6-.65.6-.15 1.1 0l-.8 1.25-1.75 2.2q-1.4 1.15-2.75.15m32.3-.6-.15-.35-.8-1.25-.85.75-.05.25.1.45q.05.3 1.25.7l.35-.35.15-.2m-30.05.3q.75-.1 1.1-.8.55-.95-.35-.8-.95-.1-1.05.85l.3.75" fill="#390" fill-rule="evenodd" transform="translate(-312 -202.15)"/><path d="m328.55 229.25.2.05-.2-.05" fill="#f7a29d" fill-rule="evenodd" transform="translate(-312 -202.15)"/><path d="m328.75 229.3-.2-.05q-1.25.25-1.25.7l-.25.95v.6l.15.75q1.1.9 2.25.4l.55-.15.2-.4.1-.85q.05-1.5-1.55-1.95m-3.45 5.9-.1-1.05.05-1q.15-2.35 1.2-4.15 1.15-1.95 2.75-2.1 1.9 1.7 2.5 4.35.5 2.4-.2 4.8l-1.05 1.85q-.75.7-2.1.25l-.8-.45q-.45-.35-.7-1.05v-1.25l.35-.6q.15-.3.6-.45l.5-.05.35.1.4.4.05.85-.5.6q.7.4 1.25-.5.15-.75-.05-1.2l-.35-.7q-.5-.85-1.85-.55-1.35.25-2.3 1.9" fill="#f0524a" fill-rule="evenodd" transform="translate(-312 -202.15)"/><path d="m328.55 229.25.2.05q1.6.45 1.55 1.95l-.1.85-.2.4-.55.15q-1.15.5-2.25-.4l-.15-.75v-.6l.25-.95q0-.45 1.25-.7" fill="#fbc9c6" fill-rule="evenodd" transform="translate(-312 -202.15)"/><path d="M325.3 235.2q.95-1.65 2.3-1.9 1.35-.3 1.85.55l.35.7q.2.45.05 1.2-.55.9-1.25.5l.5-.6-.05-.85-.4-.4-.35-.1-.5.05q-.45.15-.6.45l-.35.6v1.25q.25.7.7 1.05l.8.45q1.35.45 2.1-.25l1.05-1.85q.7-2.4.2-4.8-.6-2.65-2.5-4.35 1 0 1.85.6 1.35.85 1.95 2.45.6 1.55.7 3.25l-.05.95-.3 2.75q-.35 1.75-1.4 3.2l-.25.25q-.7.8-1.6 1l-1.35-.25q-1.6-.35-2.35-2.05-.85-1.8-1.1-3.85" fill="#b5170f" fill-rule="evenodd" transform="translate(-312 -202.15)"/><path d="m345.1 223.65-.15.2-.35.35q-1.2-.4-1.25-.7l-.1-.45.05-.25.85-.75.8 1.25.15.35m-30.05.3-.3-.75q.1-.95 1.05-.85.9-.15.35.8-.35.7-1.1.8" fill="#ffff80" fill-rule="evenodd" transform="translate(-312 -202.15)"/><path d="M340.55 229.05q.1.75-.45 1.55l-1.5-.15q-.4-1.1.4-2.05l.95-.2-.6-.25.7.2.5.9m-20.25-1.1.15-.2.75-.1.45.1.2.15.4.8-.1.45-1.05.65q-.9-1.15-.8-1.85" fill="#82a0df" fill-rule="evenodd" transform="translate(-312 -202.15)"/><path d="m318.5 230.5.2-1 .05-.2.15-.35q.5-1.35 1.4-2.15.6-.55 1.2-.65 1.25 1.15.95 3.15l-.2 1.2q-.4 1.15-.8.9-.1-.85-1.1-1.5-1.4-.2-1.85.55v.05m22.2-1.05.2.55.3 1.85q-.75.1-1.45.65-1.8.15-2.1-1.8-.35-2.3 1.05-3.45l-.45-.6q.55.15 1.1.65l.7.85-.7-.2.6.25-.95.2q-.8.95-.4 2.05l1.5.15q.55-.8.45-1.55l.15.4m-16.9.05-.05.15v-.05l.05-.1m-3.5-1.55q-.1.7.8 1.85l1.05-.65.1-.45-.4-.8-.2-.15-.45-.1-.75.1-.15.2" fill="#36c" fill-rule="evenodd" transform="translate(-312 -202.15)"/><path d="m323 232.4-1.1 1.4-.45.35q-.85.55-1.6.3-1-.35-1.3-1.8l-.05-.25q-.2-.9 0-1.9v-.05q.45-.75 1.85-.55 1 .65 1.1 1.5.4.25.8-.9l.2-1.2q.3-2-.95-3.15l.85.05.35.15q.65.45.95 1.6l.15 1.3v.25l-.05.1v.05l-.1.9-.15.6-.5 1.25m18.2-.55-.05 1.05-.05.25q-.35 1.45-1.3 1.8-.75.25-1.6-.3l-.5-.35q-.85-.8-1.3-2l-.25-.65-.15-.6q-.35-1.4-.05-2.6.35-1.45 1.35-1.75l.95-.05.45.6q-1.4 1.15-1.05 3.45.3 1.95 2.1 1.8.7-.55 1.45-.65" fill="#254996" fill-rule="evenodd" transform="translate(-312 -202.15)"/><path d="M345.5 221.75q.35-1.75-.35-3.15l-1.15-2.5q-1.6-3.45-1.65-7.25-.05-2.1-1.5-3.8-.95-1.2-2.3-1.85-3.5-1.45-6.25.8-1.9 1.45-3.7 3.05l-4.15 3.8-2.6 1.5q-1.9.7-3.45 2.2-1.75 1.7-2.8 4-.5 1-.3 2.2" fill="none" stroke="#600" stroke-linecap="round" stroke-linejoin="round" transform="translate(-312 -202.15)"/><path d="M341.75 221.05q-.65.1-1.05.6-.65.8-.15 2.2.4 1.15 1.4 2.2l.4.4.55.4q1.05.8 2.2 1l.6.05q.95.05 1.45-.6.55-.65.35-1.7m-5.75-4.55 1.05.05q1.15.2 2.3 1.05v.05l.45.35q1.2 1.05 1.7 2.3l.1.25.15.5m-22.2 9.6-.1-1.05.05-1-1.2-.35-1.05-.4-1.1 1.4-.45.35q-.85.55-1.6.3-1-.35-1.3-1.8l-.05-.25q-.2-.9 0-1.9l.2-1 .05-.2-1.15-1.55-.75-1.3q-1 .75-2.05.95l-.55.05q-.9.05-1.4-.6-.65-.8-.15-2.2l.05-.25.05-.15h.05q.45-1.2 1.55-2.15l.4-.4.6-.4q.75-.5 1.6-.65.6-.15 1.1 0 .55.1.9.55.6.8.15 2.2-.4 1.15-1.35 2.2l-.4.4-.5.4-.05.05m12.35.45q-1.6.15-2.75 2.1-1.05 1.8-1.2 4.15m6.7 6.95q1.05-1.45 1.4-3.2l.3-2.75.05-.95q-.1-1.7-.7-3.25-.6-1.6-1.95-2.45-.85-.6-1.85-.6m13.7-.05-.95 1.25-1.25 1.35.2.55.3 1.85-.05 1.05-.05.25q-.35 1.45-1.3 1.8-.75.25-1.6-.3l-.5-.35q-.85-.8-1.3-2l-.05.05-.9.35-1.75.5m4.55-6.55-.95.05q-1 .3-1.35 1.75-.3 1.2.05 2.6l.15.6.25.65m3.65-4.15-.7-.85q-.55-.5-1.1-.65m2.3 2.4-.5-.9m.65 1.3-.15-.4m-15.25 6.15q.25 2.05 1.1 3.85.75 1.7 2.35 2.05l1.35.25q.9-.2 1.6-1m-10.2-14.2.85.05.35.15q.65.45.95 1.6l.15 1.3v.25l-.05.15-.1.9-.15.6-.5 1.25m-4.25-3.1.15-.35q.5-1.35 1.4-2.15.6-.55 1.2-.65" fill="none" stroke="#600" stroke-linecap="round" stroke-linejoin="round" transform="translate(-312 -202.15)"/><path d="M332.9 237.05q1.8 1 2.7 2.9.8 1.8.7 3.85l-.5 1.55q-.45.75-1.55.6l-.7-.2-.75-.7-.2-.95.1-.55q.15-.3.45-.45l.45-.15.25.05.2.1.15.1.2.7-.35.55q.7.15.9-.65l-.15-.95-.45-.45-1.55-.1q-1.05.4-1.45 1.9l-.4-1.6q-.3-1.85.2-3.4.5-1.75 1.75-2.15m.1 1.95-.2-.05q-.95.45-.85.8l-.05.8.15.45.3.55 1.75-.1.4-.15.1-.45-.05-.6q-.25-1.2-1.55-1.25" fill="#fc0" fill-rule="evenodd" transform="translate(-312 -202.15)"/><path d="M331.35 244.2q.4-1.5 1.45-1.9l1.55.1.45.45.15.95q-.2.8-.9.65l.35-.55-.2-.7-.15-.1-.2-.1-.25-.05-.45.15q-.3.15-.45.45l-.1.55.2.95.75.7.7.2q1.1.15 1.55-.6l.5-1.55q.1-2.05-.7-3.85-.9-1.9-2.7-2.9l1.55.15q1.2.4 1.95 1.55l1.1 2.3.15.8.25 2.2q.05 1.45-.5 2.75l-.15.2-1.05 1.15h-1.1q-1.3.05-2.25-1.1-.95-1.3-1.5-2.85" fill="#f90" fill-rule="evenodd" transform="translate(-312 -202.15)"/><path d="M333 239q1.3.05 1.55 1.25l.05.6-.1.45-.4.15-1.75.1-.3-.55-.15-.45.05-.8q-.1-.35.85-.8l.2.05" fill="#ff0" fill-rule="evenodd" transform="translate(-312 -202.15)"/><path d="M332.9 237.05q-1.25.4-1.75 2.15-.5 1.55-.2 3.4l.4 1.6q.55 1.55 1.5 2.85.95 1.15 2.25 1.1h1.1l1.05-1.15.15-.2q.55-1.3.5-2.75l-.25-2.2-.15-.8-1.1-2.3q-.75-1.15-1.95-1.55z" fill="none" stroke="#000" stroke-linecap="round" stroke-linejoin="round" stroke-opacity=".6" transform="translate(-312 -202.15)"/></g><path d="M25.35 2.4q-.05 1-3.75 1.7l-8.9.7-8.95-.7Q0 3.4.05 2.4 0 1.4 3.75.7L12.7 0l8.9.7q3.7.7 3.75 1.7" fill-opacity=".6" fill-rule="evenodd" transform="translate(-.05)" id="d"/><use width="25.3" height="4.8" xlink:href="#d" id="b"/></defs></svg>