<svg viewBox="0 0 178 220.92" xmlns="http://www.w3.org/2000/svg" xmlns:xlink="http://www.w3.org/1999/xlink"><use transform="translate(.03 .02)" width="177.95" height="220.9" xlink:href="#a"/><defs><g id="a" transform="translate(88.95 110.45)"><use transform="translate(-84.7 -92.8)" width="173.7" height="77.5" xlink:href="#b"/><use transform="translate(-88.95 -48.2)" width="170.9" height="158.65" xlink:href="#c"/><use transform="translate(-58.05 -110.45)" width="122.15" height="182.25" xlink:href="#d"/></g><g id="b"><path d="M78.2-41.2q2.6-9.85 1-19.9l-.4-2.65q3.45-2.8 6.9-1.25Q89-59.85 89-54.05q0 9.4-8.7 17.2-.35-2.65-2.1-4.35m-139.9 5.1q4.75 3.45 11.8 6.55 21.65 9.45 52.35 9.45 27.05 0 47.1-7.35Q55-26.05 54.3-23q-22.5 7.7-52.15 7.7-36 0-61.45-11.35-4-1.8-7.35-3.65.1-2.2 1.6-3.7 1.2-1.3 3.35-2.1m-22.85-15.7-.15-2.25q0-11.15 12.3-20.05 3.85.1 5 4.4-8.3 3.95-8.6 8.55-.3 4.55-.75 6.3-3.8-.45-7.8 3.05m43.4-35.95Q-22.8-92.55-.2-92.8q-1.4.75-2.4 2.2l-.15.2-23.3 3.6-14.55 2.5q.6-2.25-.55-3.45M31-90.7q17.35 2.65 31.5 8.8-1.9.75-2.95 2.45l-25.35-6.8q-1-2.15-3.2-4.45" fill="#925a07" fill-rule="evenodd" transform="translate(84.7 92.8)"/><path d="M85.7-65q-3.45-1.55-6.9 1.25-6.7-9.1-16.7-14.4l-2.55-1.3q1.05-1.7 2.95-2.45l1.05.45Q79.85-74.2 85.7-65m-5.4 28.15q-6.2 5.5-16.75 10.2l-6.05 2.5q10.2-4.4 17.3-12.75l3.4-4.3q1.75 1.7 2.1 4.35M-66.65-30.3q-16.55-9.35-17.9-21.5 4-3.5 7.8-3.05-.2 11.95 9.2 19.1l2.5 1.75q-1.5 1.5-1.6 3.7m-5.75-43.8q5.35-3.9 13.1-7.35 8.5-3.8 18.15-6.3 1.15 1.2.55 3.45-10.4 4-19.75 9.95l-7.05 4.65q-1.15-4.3-5-4.4M-.2-92.8h2.35q15.4 0 28.85 2.1 2.2 2.3 3.2 4.45L-2.7-90.4l.1-.2q1-1.45 2.4-2.2" fill="#946805" fill-rule="evenodd" transform="translate(84.7 92.8)"/><path d="M73.8-43.5q2.6-4.2 2.6-8.85 0-3.55-1.5-6.8 1.95-3 3.9-4.6l.4 2.65q1.6 10.05-1 19.9-1.65-1.55-4.4-2.3M58.1-73.6l-3.35-1.55q-9.2-4-20-6.3.55-2.3-.55-4.8l25.35 6.8q-1.4 2.15-1.45 5.85M-4.75-84.45q-22.8.85-40.25 7.35 3.6-4.45 4.4-7.2l14.55-2.5 23.3-3.6h.05q-1.45 2.2-2.05 5.95m-62.3 20.7q-4.5 5.3-4.5 11.4l-.05.05q-2.55-2.25-5.15-2.55.45-1.75.75-6.3.3-4.6 8.6-8.55.6 2.35.35 5.95" fill="#694105" fill-rule="evenodd" transform="translate(84.7 92.8)"/><path d="M73.8-43.5q2.75.75 4.4 2.3l-3.4 4.3q-7.1 8.35-17.3 12.75L54.3-23q.7-3.05-4.75-4.45l5.2-2.1Q68.85-35.7 73.8-43.5m5-20.25q-1.95 1.6-3.9 4.6-3.75-8.05-16.8-14.45.05-3.7 1.45-5.85l2.55 1.3q10 5.3 16.7 14.4m-44.05-17.7Q20.1-84.6 2.45-84.6l-7.2.15q.6-3.75 2.05-5.95l36.9 4.15q1.1 2.5.55 4.8M-45-77.1l-4.9 1.95Q-61.65-70-67.05-63.75q.25-3.6-.35-5.95l7.05-4.65Q-51-80.3-40.6-84.3q-.8 2.75-4.4 7.2m-26.55 24.85q.05 8.95 9.85 16.15-2.15.8-3.35 2.1l-2.5-1.75q-9.4-7.15-9.2-19.1 2.6.3 5.15 2.55l.05.05" fill="#755304" fill-rule="evenodd" transform="translate(84.7 92.8)"/><path d="M-71.55-52.35v.1l-.05-.05.05-.05M-2.7-90.4h-.05l.15-.2-.1.2" fill="#930" fill-rule="evenodd" transform="translate(84.7 92.8)"/><path d="M158.5 49.3q2.75.75 4.4 2.3 1.75 1.7 2.1 4.35-6.2 5.5-16.75 10.2l-6.05 2.5-3.2 1.15q-22.5 7.7-52.15 7.7-36 0-61.45-11.35-4-1.8-7.35-3.65Q1.5 53.15.15 41L0 38.75Q0 27.6 12.3 18.7q5.35-3.9 13.1-7.35 8.5-3.8 18.15-6.3Q61.9.25 84.5 0h2.35q15.4 0 28.85 2.1 17.35 2.65 31.5 8.8l1.05.45q16.3 7.25 22.15 16.45-3.45-1.55-6.9 1.25-1.95 1.6-3.9 4.6m-15.35-20.3q-1.4 2.15-1.45 5.85m27.6 8.6q3.3 5.15 3.3 10.95 0 9.4-8.7 17.2M147.2 10.9q-1.9.75-2.95 2.45m-25.35-6.8q1.1 2.5.55 4.8m14.8 54q5.45 1.4 4.75 4.45M82 2.4l.1-.2m-38 6.3q-.8 2.75-4.4 7.2M84.5 0q-1.4.75-2.4 2.2m-.1.2q-1.45 2.2-2.05 5.95m-36.4-3.3q1.15 1.2.55 3.45M17.3 23.1q.6 2.35.35 5.95m-9.7 8.9q2.6.3 5.15 2.55l.05.05m-5.2-2.6Q4.15 37.5.15 41m19.5 17.8q1.2-1.3 3.35-2.1m-5.7-33.6q-1.15-4.3-5-4.4m7.35 40.1q-1.5 1.5-1.6 3.7M115.7 2.1q2.2 2.3 3.2 4.45" fill="none" stroke="#000" stroke-linecap="round" stroke-linejoin="round" stroke-opacity=".4" stroke-width=".05"/><path d="M159.6 33.65q1.5 3.25 1.5 6.8 0 4.65-2.6 8.85m1.1-15.65q-3.75-8.05-16.8-14.45l-3.35-1.55q-9.2-4-20-6.3Q104.8 8.2 87.15 8.2l-7.2.15q-22.8.85-40.25 7.35l-4.9 1.95q-11.75 5.15-17.15 11.4-4.5 5.3-4.5 11.4v.1Q13.2 49.5 23 56.7q4.75 3.45 11.8 6.55 21.65 9.45 52.35 9.45 27.05 0 47.1-7.35l5.2-2.1q14.1-6.15 19.05-13.95z" fill="none" stroke="#000" stroke-linecap="round" stroke-linejoin="round" stroke-opacity=".4" stroke-width=".05"/></g><g id="e"><path d="M14.4 89.9Q6.35 91.95-5 91.95t-19.4-2.05q-8.05-2-8.05-4.9t8.05-4.95q8.05-2 19.4-2t19.4 2q8.05 2.05 8.05 4.95t-8.05 4.9" fill-rule="evenodd" transform="translate(86.65 66.7)"/><path d="m77.35-43.8 6.9 12.85L24.2-2.25 19.95-6.4l57.4-37.4m-78.5 17.75L55-62.1l7.2 5.95L27.35-24.7 12-13.75l-13.15-12.3" fill="#cc9" fill-rule="evenodd" transform="translate(86.65 66.7)"/><path d="M74.4-46.25q1.4 1.25 2.95 2.45L19.95-6.4 12-13.75 27.35-24.7 74.4-46.25" fill="#cec197" fill-rule="evenodd" transform="translate(86.65 66.7)"/><path d="M62.2-56.15q-.4 9.55 12.2 9.9L27.35-24.7 62.2-56.15" fill="#c4b582" fill-rule="evenodd" transform="translate(86.65 66.7)"/><path d="M84.25-30.95 28.3 1.85l-4.45 3L-.6-18.85l-.55-7.2L12-13.75l7.95 7.35 4.25 4.15 60.05-28.7M28.3 1.85l-4.1-4.1 4.1 4.1" fill="#80773c" fill-rule="evenodd" transform="translate(86.65 66.7)"/><path d="M161.05 20.45q1.4 1.25 2.95 2.45l6.9 12.85-55.95 32.8-4.45 3-24.45-23.7-.55-7.2 13.15 12.3 7.95 7.35L164 22.9M141.65 4.6l7.2 5.95q-.4 9.55 12.2 9.9L114 42 98.65 52.95m7.95 7.35 4.25 4.15 60.05-28.7m-60.05 28.7 4.1 4.1M114 42l34.85-31.45M85.5 40.65 141.65 4.6" fill="none" stroke="#000" stroke-linecap="round" stroke-linejoin="round" stroke-opacity=".4" stroke-width=".05"/><path d="m64.55-19.8 10 10.65-50.6 43.25-5.1-2.9 45.7-51m-71.2 37.45 44.9-49.35 8.55 3.85-25.55 39.5L9.2 26.15l-15.85-8.5" fill="#cc9" fill-rule="evenodd" transform="translate(86.65 66.7)"/><path d="m61.1-21.4 3.45 1.6-45.7 51-9.65-5.05 12.05-14.5L61.1-21.4" fill="#cec197" fill-rule="evenodd" transform="translate(86.65 66.7)"/><path d="M46.8-27.85q2.05 9.35 14.3 6.45L21.25 11.65l25.55-39.5" fill="#c4b582" fill-rule="evenodd" transform="translate(86.65 66.7)"/><path d="M74.55-9.15 29 37.05l-3.55 4L-4.2 24.5l-2.45-6.85 15.85 8.5 9.65 5.05 5.1 2.9 50.6-43.25M29 37.05l-5.05-2.95L29 37.05" fill="#80773c" fill-rule="evenodd" transform="translate(86.65 66.7)"/><path d="M133.45 38.85q2.05 9.35 14.3 6.45l3.45 1.6 10 10.65-45.55 46.2-3.55 4L82.45 91.2 80 84.35l15.85 8.5 9.65 5.05 45.7-51M124.9 35l8.55 3.85-25.55 39.5 39.85-33.05m-51.9 47.55 12.05-14.5m2.7 22.45 5.05 2.95M105.5 97.9l5.1 2.9 50.6-43.25M80 84.35 124.9 35" fill="none" stroke="#000" stroke-linecap="round" stroke-linejoin="round" stroke-opacity=".4" stroke-width=".05"/><path d="m-61.55-33.95 8.7-3.75L-23.6 1.35l-2.55 2.4-35.4-37.7M-38.1 16l-34.2-36.9 3.5-4.2 28.05 23.35 10.1 10.15-7.45 7.6" fill="#cc9" fill-rule="evenodd" transform="translate(86.65 66.7)"/><path d="m-62.95-32.25 1.4-1.7 35.4 37.7-4.5 4.65-10.1-10.15-22.2-30.5" fill="#cec197" fill-rule="evenodd" transform="translate(86.65 66.7)"/><path d="M-68.8-25.1q7.2.7 5.85-7.15l22.2 30.5L-68.8-25.1" fill="#c4b582" fill-rule="evenodd" transform="translate(86.65 66.7)"/><path d="m-52.85-37.7 31.8 36.65 2.75 2.95L-32.75 16h-5.35l7.45-7.6 4.5-4.65 2.55-2.4-29.25-39.05m31.8 36.65-2.55 2.4 2.55-2.4" fill="#80773c" fill-rule="evenodd" transform="translate(86.65 66.7)"/><path d="M17.85 41.6q7.2.7 5.85-7.15l1.4-1.7L33.8 29l31.8 36.65 2.75 2.95L53.9 82.7h-5.35L56 75.1 45.9 64.95l-22.2-30.5M14.35 45.8l3.5-4.2L45.9 64.95m14.6 5.5 2.55-2.4L33.8 29m29.25 39.05 2.55-2.4M56 75.1l4.5-4.65-35.4-37.7M48.55 82.7l-34.2-36.9" fill="none" stroke="#000" stroke-linecap="round" stroke-linejoin="round" stroke-opacity=".4" stroke-width=".05"/><path d="m-86.65-34.95 2.5-7.35 58.55 18.55 22.25 9L-9.7-1l-76.95-33.95m7.8-22.7 10.8-9.05L2.7-27.55.45-23.1l-79.3-34.55" fill="#cc9" fill-rule="evenodd" transform="translate(86.65 66.7)"/><path d="m-79.95-54.65 1.1-3L.45-23.1l-3.8 8.35-22.25-9-54.35-30.9" fill="#cec197" fill-rule="evenodd" transform="translate(86.65 66.7)"/><path d="M-84.15-42.3q11.5-2.4 4.2-12.35l54.35 30.9-58.55-18.55" fill="#c4b582" fill-rule="evenodd" transform="translate(86.65 66.7)"/><path d="M-68.05-66.7 5-31.95l6.2 2.65L-1.55-3.45-9.7-1l6.35-13.75 3.8-8.35 2.25-4.45-70.75-39.15M5-31.95l-2.3 4.4 2.3-4.4" fill="#80773c" fill-rule="evenodd" transform="translate(86.65 66.7)"/><path d="m0 31.75 2.5-7.35Q14 22 6.7 12.05l1.1-3L18.6 0l73.05 34.75 6.2 2.65L85.1 63.25l-8.15 2.45 6.35-13.75 3.8-8.35L7.8 9.05m75.5 42.9-22.25-9L2.5 24.4m86.85 14.75 2.3-4.4M87.1 43.6l2.25-4.45L18.6 0m42.45 42.95L6.7 12.05M76.95 65.7 0 31.75z" fill="none" stroke="#000" stroke-linecap="round" stroke-linejoin="round" stroke-opacity=".4" stroke-width=".05"/><path d="m.45-60.6 5.35 4.4-29.45 35.35-12.8 12.75-9.6-9.4L.45-60.6m16.5 13.55 4.7 10.95 2.3-2 7.15 2.65 4.8 7.6-63.1 88.8-10.1-8.2 33.8-49-44.95 39.9-11-8.55 31.2-27.65L-18.7-1l40.35-35.1L-27.55.75l-3.05-3.2 47.55-44.6M29.25 29l4.2 20.65L17.15 52l12.1-23m1.85-64.45L-3.5 3.75l34.6-39.2" fill="#cc9" fill-rule="evenodd" transform="translate(86.65 66.7)"/><path d="M44.1-24.8v6.75L19.7 13.5l-3 1.25-29.6 42h-3.65 3.65L.85 54.3q8 1.3 16.3-2.3l16.3-2.35-3.9 3.95-45.35 7.25-6.15 7.85-37.5-29.7v-3.9l11 8.55q4.2 6.8 11.15 9.1l10.1 8.2 4.7 3.8.55 3.95-.55-3.95 5.95-8L13.75 16v-.05l2.95-1.2-2.95 1.2L44.1-24.8M-28.25 7.45l-17.8-18.25v-6.7l9.6 9.4 5.85 5.65 3.05 3.2 49.2-36.85L-18.7-1l-5.85 4.95-3.7 3.5m3.7-3.5-3-3.2 3 3.2m8.75 56.9-.75-4.1.75 4.1" fill="#80773c" fill-rule="evenodd" transform="translate(86.65 66.7)"/><path d="m14.8-48.85 2.15 1.8-47.55 44.6-5.85-5.65 12.8-12.75 38.45-28m21.1 21 8.2 3.05-30.35 40.75V16l-30.3 40.75-5.95 8-4.7-3.8 63.1-88.8M19.7 13.5l5.9-2.45 1.7 8.25-26.45 35-13.75 2.45 29.6-42 3-1.25" fill="#cec197" fill-rule="evenodd" transform="translate(86.65 66.7)"/><path d="M5.8-56.2q-.9 9.05 9 7.35l-38.45 28L5.8-56.2m21.5 75.5q-1.05 10.95 1.95 9.7l-12.1 23q-8.3 3.6-16.3 2.3l26.45-35m-75.75 24.35L-3.5 3.75l-33.8 49q-6.95-2.3-11.15-9.1" fill="#c4b582" fill-rule="evenodd" transform="translate(86.65 66.7)"/><path d="m87.1 6.1 5.35 4.4q-.9 9.05 9 7.35l2.15 1.8 4.7 10.95 2.3-2 7.15 2.65 4.8 7.6 8.2 3.05v6.75l-24.4 31.55 5.9-2.45 1.7 8.25q-1.05 10.95 1.95 9.7l4.2 20.65-3.9 3.95-45.35 7.25-6.15 7.85-37.5-29.7v-3.9l31.2-27.65L40.6 55.9v-6.7l9.6 9.4L63 45.85 92.45 10.5M50.2 58.6l5.85 5.65 47.55-44.6m-44.5 47.8 3 3.2 5.85-4.95 40.35-35.1-49.2 36.85-3.05-3.2m6.05 6.4-3.7 3.5M27.2 101.8l11 8.55 44.95-39.9 34.6-39.2m-47.65 92.2h3.65l29.6-42-2.95 1.2v.05l-30.3 40.75.75 4.1m-11.4.1-10.1-8.2q-6.95-2.3-11.15-9.1m25.95 21.1-4.7-3.8 63.1-88.8M64.7 135.4l-.55-3.95 5.95-8m13.05-53-33.8 49m57-39.25-3 1.25M87.5 121q8 1.3 16.3-2.3l12.1-23m-12.1 23 16.3-2.35M87.5 121l26.45-35M63 45.85l38.45-28m29.3 24.05L100.4 82.65m-26.65 40.8L87.5 121M40.6 49.2 87.1 6.1z" fill="none" stroke="#000" stroke-linecap="round" stroke-linejoin="round" stroke-opacity=".4" stroke-width=".05"/><path d="M32.85-3.55 29.6.7l-9.1-6.85-9.85-6.05-13.1-5.85-8.35-3-8.9-2.65-15.5-3.85 19.3-17.9 7 6.85 7.65 8.6L5-23.6l9 7.55 9.35 5.85 9.5 6.65M27.3 19.3q-1.05 10.95 1.95 9.7L31 37.6l-4-4.3-7-4.3-11.3-2.85 8-11.4 2.95-1.2 7 2.65.65 3.1m-11-6.75-2.55 3.4V16L6.4 25.9l-8.35-.5-17.75 1.8-10.8.55q-7.35-.35-13.85-3.65l-1.65-.9 11.4-10.15q7.4 2.6 15.25 3.05l1.9.05 5.7-.45 19.2-3.55 8.85.4" fill="#330" fill-opacity=".169" fill-rule="evenodd" transform="translate(86.65 66.7)"/></g><g id="d"><path d="M24.1-12Q18.35-.65 16.05 8.05L-1.25 24l-8.1 6.25q-11.75 7.9-18.4-5Q-12.4 39.05 24.1-12m-9.9 33.05L12.15 41.7l-1.5 15.2q-2.55-3.9-5-6.05-9.7-8.65-17.25 9.7l-1.65-15.7-5.8-.35-5.45.3-.7 1q-3.3 6.2-5.7 12.6h-.05v.05l-1.1 1.85-2.7 5.45 1.75-5.1q6.6-22.05-8.55-24.85l-8.3-.3-8.2 5.05Q-50.6 31.7-46.7 18.5v-33.4l13.85-17 1.3.65-5 9.05q-5.5 10.5-1.2 22.1.55-4.9.8-9.75.55-11.9 9.55-20.2 4.85.65 9.05-2.6l1.9-1.75L-1.6-45.7 11-36.6-.05-25.7q-4.3 4.25-9.2 6.1t-13.2-1.25q7.7 9.7 21.75 4.7L21.35-30l2.6-2.3 9.35-8.4 8.2 3.15-4.4 3.15Q27.95-30.05 21-22.35 13.6-14.2 5.35-7.05l-10.9 9.5q-8.6 7.65-18.9 1.85l-.45-.8q-3.95-8.8-6.6-18.1l1.8-7.85 11.35-10.2-11.35 10.2-1.8 7.85q-4.3 21.25.3 35.45 7.9 26.35 25 15.3l1.85-1.1q3.9-2.25 7.4-5.15l1.8-1.45L1.8 35.5q-1.1 3.8.2 5.35.9 1 2.95.95 3.1-6.25 4-9.9 1.2-5.1-1.75-5.35l7-5.5m-52.3.25q-2.4-11.85-4.8-12.25v12.6l.6 1.95q-1.05 10.45 10 12.45l.35-.1 1.2-1.05-7.1-12.35-.25-1.25" fill="#3c7777" fill-rule="evenodd" transform="translate(58.05 110.45)"/><path d="m24.1-12 9.15-13.35 3.85-9.05-.7 5.85-6.75 11.7 1.3 2.6q-10.7 16-14.55 41.85l-1.85 4.15H19V54.9l-6.85-13.2 2.05-20.65.2-1.95q-.05-4.85 1.65-11.05Q18.35-.65 24.1-12m-65.65 47.8Q-26.4 38.6-33 60.65-35.15 43.8-50.95 44.5l9.4-8.7m9.5 24.5 1.1-1.85.05-.05q5.95-9.55 10.65-3.35l3.45 5q-9.7-2.3-11.25 11.75l-4-11.5m20.45.25q7.55-18.35 17.25-9.7-7.45 4-7.45 18.35l-4.8-6.85h-3l-2-1.8m16.45-32.1.75-1.75 1.6-.15q2.95.25 1.75 5.35L4.7 34.35 2 40.85Q.7 39.3 1.8 35.5l3.05-7.05M-42.3 23.6l-.6-1.95V9.05q2.4.4 4.8 12.25l-3.4.05-.05 4.5-.75-2.25" fill-opacity=".29" fill-rule="evenodd" transform="translate(58.05 110.45)"/><path d="m37.1-34.4-3.85 9.05L24.1-12q-36.5 51.05-51.85 37.25 6.65 12.9 18.4 5l8.1-6.25 17.3-15.95q-1.7 6.2-1.65 11.05l-.2 1.95-7 5.5-1.6.15-.75 1.75-1.8 1.45q-3.5 2.9-7.4 5.15l-1.85 1.1q-17.1 11.05-25-15.3-4.6-14.2-.3-35.45 2.65 9.3 6.6 18.1l.45.8q10.3 5.8 18.9-1.85l10.9-9.5Q13.6-14.2 21-22.35q6.95-7.7 16.1-12.05m-13.15 2.1-2.6 2.3L-.7-16.15q-14.05 5-21.75-4.7 8.3 3.1 13.2 1.25t9.2-6.1L11-36.6l2.15 1.55q1.65 3.8 10.8 2.75m-51.35 2.25q-9 8.3-9.55 20.2-.25 4.85-.8 9.75-4.3-11.6 1.2-22.1l5-9.05q2.1.9 4.15 1.2m-3.55 88.5v-.05h.05q2.4-6.4 5.7-12.6l.7-1 5.45-.3 5.8.35 1.65 15.7-1.7 4.55-3.5-5.05-3.45-5q-4.7-6.2-10.65 3.35l-.05.05m-.25-37.6q1.55 2.7 3.45 4.4-1.9-1.7-3.45-4.4m-11.1 2.75.75 2.25q2.5 6.35 4.95 4l-1.25-7.3 7.1 12.35-1.2 1.05-.35.1q-11.05-2-10-12.45" fill="#366" fill-rule="evenodd" transform="translate(58.05 110.45)"/><path d="M95.15 76.05 91.3 85.1l-9.15 13.35Q76.4 109.8 74.1 118.5q-1.7 6.2-1.65 11.05l-.2 1.95-2.05 20.65m24.95-76.1 4.4-3.15-8.2-3.15-9.35 8.4-2.6 2.3L57.35 94.3q-14.05 5-21.75-4.7m33.45-15.75-12.6-9.1-14.85 11.3-1.9 1.75L28.35 88l-1.8 7.85M39.7 77.8q-4.2 3.25-9.05 2.6-2.05-.3-4.15-1.2l-1.3-.65m-13.85 17v33.4Q7.45 142.15 0 151l8.2-5.05 8.3.3q15.15 2.8 8.55 24.85l-1.75 5.1 2.7-5.45 1.1-1.85.05-.05q5.95-9.55 10.65-3.35l3.45 5 3.5 5.05 1.7-4.55q7.55-18.35 17.25-9.7 2.45 2.15 5 6.05l1.5-15.2m11.8-74q-9.15 1.05-10.8-2.75l-2.15-1.55M65.25 137l-1.6.15-.75 1.75-3.05 7.05q-1.1 3.8.2 5.35m6.95-8.95q1.2-5.1-1.75-5.35m-11.55 8.5-1.85 1.1q-17.1 11.05-25-15.3-4.6-14.2-.3-35.45M67 142.35q-.9 3.65-4 9.9-2.05.05-2.95-.95M30.3 135.7q-1.9-1.7-3.45-4.4m-6.9.45q-2.4-11.85-4.8-12.25v12.6l.6 1.95.75 2.25q2.5 6.35 4.95 4L20.2 133m-.25-1.25.25 1.25m10.1 2.7q15.35 13.8 51.85-37.25M25.2 78.55l-13.85 17" fill="none" stroke="#000" stroke-linecap="round" stroke-linejoin="round" stroke-opacity=".361" stroke-width=".05"/><path d="M51.25-102.25q-2.25-1.15-3.95 1.1l-4.55-7.25q2.05-3.05 5.2-1.55 2.15 3.15 3.3 7.7M58.6-86.9q-1.55 1.3-3.4 2.15l-2.35-.75q1.45-1.5.7-2.65l4.4-5.2q1.5 2.3.65 6.45m-8.05.65q-3.6 2.25-2.4 5.9-1.75 4.75-6.35 3.85 3.5-1.8 5.75-10.45l3 .7" fill="#755304" fill-rule="evenodd" transform="translate(58.05 110.45)"/><path d="M47.3-101.15q1.7-2.25 3.95-1.1 1.05 4.35 1.2 10l-1.95 2.2-.1.1-1.45-.45-1.65-10.75m15.7-.05q.85 1.85 1.1 4.8-1.7 6.15-5.5 9.5.85-4.15-.65-6.45L63-101.2M52.85-85.5l-2.3-.75-3-.7q1.6-2.6 4.6-2.3l1.4 1.1q.75 1.15-.7 2.65m-4.7 5.15q.5 1.5 1.8 3.25-.75 3-4.25 3.2-1.25.35-3.95-2.6h.05q4.6.9 6.35-3.85" fill="#694105" fill-rule="evenodd" transform="translate(58.05 110.45)"/><path d="m47.3-101.15 1.65 10.75 1.45.45.35.1 1.4.6q-3-.3-4.6 2.3-5.35-.7-10.7 2.3-.55-3.15 2.35-4.55 3.75-1.95 7.65-1.55 0-3.25-1.45-6.4.85-2.65 1.9-4m7.4 5.55q2.05-3.65 3.75-8.7 3.1-.1 4.55 3.1l-5.05 7.85q-1.05-1.6-3.25-2.25m-7.85 4.85 2.1.35-2.1-.35" fill="#925a07" fill-rule="evenodd" transform="translate(58.05 110.45)"/><path d="m42.75-108.4 4.55 7.25q-1.05 1.35-1.9 4-1.55-3.25-4.6-6.4.8-3.15 1.95-4.85m7.75 18.35 1.95-2.2 2.25-3.35q2.2.65 3.25 2.25l-4.4 5.2-1.4-1.1-1.4-.6-.25-.2M41.75-76.5l-3.25-4.1q-1.35-2.3-1.65-4.05 5.35-3 10.7-2.3Q45.3-78.3 41.8-76.5h-.05" fill="#946805" fill-rule="evenodd" transform="translate(58.05 110.45)"/><path d="M105.35 9.3q1.7-2.25 3.95-1.1-1.15-4.55-3.3-7.7-3.15-1.5-5.2 1.55m6.2 18 1.45.45.1-.1 1.95-2.2q-.15-5.65-1.2-10m-5.85 5.1q-1.55-3.25-4.6-6.4.8-3.15 1.95-4.85m11.95 12.8q2.05-3.65 3.75-8.7 3.1-.1 4.55 3.1.85 1.85 1.1 4.8-1.7 6.15-5.5 9.5-1.55 1.3-3.4 2.15l-2.35-.75-2.3-.75q-3.6 2.25-2.4 5.9.5 1.5 1.8 3.25-.75 3-4.25 3.2-1.25.35-3.95-2.6l-3.25-4.1q-1.35-2.3-1.65-4.05-.55-3.15 2.35-4.55 3.75-1.95 7.65-1.55 0-3.25-1.45-6.4.85-2.65 1.9-4M116 17.1q1.5 2.3.65 6.45M116 17.1q-1.05-1.6-3.25-2.25l-2.25 3.35m-1.7 2.4-.35-.1m-1.45-.45-2.1-.35m3.9.9 1.4.6 1.4 1.1q.75 1.15-.7 2.65m-11.05 9h-.05m8.8-9.75-3-.7q-5.35-.7-10.7 2.3m4.95 8.15q4.6.9 6.35-3.85" fill="none" stroke="#000" stroke-linecap="round" stroke-linejoin="round" stroke-opacity=".4" stroke-width=".05"/></g><use width="170.9" height="158.65" xlink:href="#e" id="c"/></defs></svg>