<svg viewBox="0 0 151.31 231.17" xmlns="http://www.w3.org/2000/svg" xmlns:xlink="http://www.w3.org/1999/xlink"><use transform="translate(.03 .043)" width="151.25" height="232.55" xlink:href="#a"/><defs><g id="a" transform="translate(75.6 116)"><use transform="translate(-71.5 -110.1)" width="80.4" height="170.9" xlink:href="#b"/><use transform="matrix(.3103 0 0 .4843 -71.663 55.768)" width="55.25" height="82.1" xlink:href="#c"/><use transform="matrix(.1918 -.0802 .1137 .6623 -65.111 59.978)" width="55.25" height="82.1" xlink:href="#c"/><use transform="matrix(.2726 -.0903 .131 .6467 -21.354 63.448)" width="55.25" height="82.1" xlink:href="#c"/><use transform="matrix(-.2556 0 0 .4843 5.655 55.768)" width="55.25" height="82.1" xlink:href="#c"/><use transform="translate(-75.6 -116)" width="151.25" height="151.2" xlink:href="#d"/></g><g id="b"><path d="m.65-110.1-9.5 26.6q-4.9 17.15 0 39.25L.65-10.1q-7-14.75-9.5-2.5Q-9.9 2.2-3.8 2.6l5.1-6.35q.25 11.1 1.5 19.7l-7.2-3.85L-12-3.1q-9.15-19.25-12.05-40.55.3 38.55 25.35 72.8l2.95 4.15-9.9-7.3Q-22.1 12-38.55 7l9.5-7.6 3.8-15.8-3.2-43.05 6.35 5.7 5.7-22.15L.65-110.1m-17.5 63.45q-.65 3.6-.3 7.45l.2 3.15q.2 2.85 3.05 3.35l1.3.2q1.65.15 1.6-1.65l-.05-1.25q.1-2.95-.65-5.75-1.15-4.3-5.15-5.5" fill="#3e3e22" fill-rule="evenodd" transform="translate(71.5 110.1)"/><path d="M.65-110.1-16.4-75.9l-5.7 22.15-6.35-5.7 3.2 43.05-3.8 15.8-9.5 7.6q16.45 5 32.9 19l9.9 7.3-2.95-4.15Q-23.75-5.1-24.05-43.65-21.15-22.35-12-3.1l7.6 15.2 7.2 3.85q1.9 13.45 6.1 20.8Q2 38.5-2.5 51.95l-4.45 8.85-3.15-6.95 2.5-8.2 3.45-2.1L1.3 35.5Q-22.15 14.95-43.65 9.55L-62 22.2l-2.5 13.3 5.7 5.7 3.75 5.7v10.75h-6.3q1.75-4.65-4.45-13.3l-5.7-9.5 4.45-15.2.7-2.25 3.3.3Q-57.5 7.25-46.9 1.9l3-1.4q8-7.75 6.5-11.3t-3.5-4.85q-7.25.7-13.75 4.4l-1.8 1Q-49.8-26.9-42.2-41l.9-4.9 1.3-.15q2.4-.45 4.3-2.35.6-.6.75-1.6.2-1.55-.15-3.05-.3-1.35-1.3-2.05-1.65-1.15-3.45-1.95 1.15-11.8.65-24.55l9.45-22.2q-.85 29.6 10.8 16.5l19.6-22.8M-29.7-74.6q.6-1.65-.25-3.75-.85-2-2-2t-2.05 2q-.8 2.1-.8 4.95 0 2.9.8 4.9.9 2.05 1.4.8l1.4-3.3 1.5-3.6m-16.45 48.7q2.35-7.3 3.95-15.1-1.6 7.8-3.95 15.1" fill="#666637" fill-rule="evenodd" transform="translate(71.5 110.1)"/><path d="M-4.15 43.55q-25.6-6.3-54.65-2.35l-5.7-5.7 2.5-13.3 18.35-12.65q21.5 5.4 44.95 25.95l-5.45 8.05m-12.7-90.2q4 1.2 5.15 5.5.75 2.8.65 5.75l.05 1.25q.05 1.8-1.6 1.65l-1.3-.2q-2.85-.5-3.05-3.35l-.2-3.15q-.35-3.85.3-7.45" fill-rule="evenodd" transform="translate(71.5 110.1)"/><path d="M-66.35 17.4q4.7-14.6 9.9-27.65l1.8-1q6.5-3.7 13.75-4.4 2 1.3 3.5 4.85T-43.9.5l-3 1.4q-10.6 5.35-16.15 15.8l-3.3-.3m25.05-63.3q.95-5.45 1.45-11.15 1.8.8 3.45 1.95 1 .7 1.3 2.05.35 1.5.15 3.05-.15 1-.75 1.6-1.9 1.9-4.3 2.35l-1.3.15" fill="#837f5f" fill-rule="evenodd" transform="translate(71.5 110.1)"/><path d="M74.3 126.05q-1.25-8.6-1.5-19.7l-5.1 6.35q-6.1-.4-5.05-15.2 2.5-12.25 9.5 2.5l-9.5-34.15q-4.9-22.1 0-39.25L72.15 0m.65 139.25Q47.75 105 47.45 66.45m26.85 59.6q1.9 13.45 6.1 20.8-6.9 1.75-11.4 15.2l-4.45 8.85-3.15-6.95 2.5-8.2 3.45-2.1q-25.6-6.3-54.65-2.35l3.75 5.7v10.75h-6.3q1.75-4.65-4.45-13.3l-5.7-9.5 4.45-15.2.7-2.25q4.7-14.6 9.9-27.65Q21.7 83.2 29.3 69.1l.9-4.9q.95-5.45 1.45-11.15 1.15-11.8.65-24.55l9.45-22.2q-.85 29.6 10.8 16.5L72.15 0M41.8 35.5l-1.5 3.6-1.4 3.3q-.5 1.25-1.4-.8-.8-2-.8-4.9 0-2.85.8-4.95.9-2 2.05-2t2 2q.85 2.1.25 3.75M29.3 69.1q-1.6 7.8-3.95 15.1M12.7 151.3 7 145.6l2.5-13.3 18.35-12.65q21.5 5.4 44.95 25.95l-5.45 8.05" fill="none" stroke="#000" stroke-linecap="round" stroke-linejoin="round" stroke-opacity=".412" stroke-width=".05"/></g><g id="e"><path d="m22.15-40.3 4.75 3.15Q20.3 5.8-11.85 40.3l-15-14.2q32.9-22.45 49-66.4" fill="#e0e3d0" fill-rule="evenodd" transform="translate(27.6 41.05)"/><path d="m.75 67.15 15 14.2Q47.9 46.85 54.5 3.9L49.75.75" fill="none" stroke="#000" stroke-linecap="round" stroke-linejoin="round" stroke-opacity=".4" stroke-width="1.5"/></g><g id="d"><path d="m-67.1 22.15-.6.7M2.85 29.7 0 27.2m8.3 7.65-2.7-2.6m-8.45-7.45-2.95-2.3M-28.45 8.9l-3.5-1.55m10.2 4.9-3.3-1.7m9.9 5.5-3.3-1.95m-37.6-2.3-3.05 2.3m9.4-6.3-3.25 1.9m10.1-5.15-3.45 1.5m10.85-.15-3.45-1.3m30.05 15.7L-12 18.1m-49.95-1.55-2.65 2.7" fill="none" stroke="#b8bb9d" stroke-linecap="round" stroke-linejoin="round" transform="translate(75.6 116)"/><path d="M22.15-114.3h.05l3.95-1.65.9 2.75-1.25-.35-1.85 2.45 1.95.45-2.35 2.7-1.8-1.95 1.8 1.95 2.35-2.7-1.95-.45 1.85-2.45 1.25.35q18 4.55 32.3 16.8 32.2 27.45.8 43.1-31.4 15.6-75.25 16.45.1-2.55.7-4.55 46.1.65 79.5-19.5 15.55-13.65-8.65-34.2-13.35-11.35-30.55-15.55 7.3 9.1 6.4 16.85-2.2 4.7-4.4 2.15 2.1-9.6-4.35-16.3L22.65-96q-2.55 3.3-3.95 0l3.05-13.9-1.75-1.95q-28.65-4.9-67.2 8.6-30.55 10.5-23.75 37.4 4.3 12.45 30.2 18.85l-.95 4.7q-27.55-10.15-32-21.35-8.85-29.3 23.45-41.45 41.45-15.25 72.4-9.2L20-111.85l2.15-2.45" fill="#660" fill-rule="evenodd" transform="translate(75.6 116)"/><path d="m102.65 2.8-.9-2.75L97.8 1.7h-.05L95.6 4.15l1.75 1.95 1.8 1.95 2.35-2.7-1.95-.45 1.85-2.45 1.25.35q18 4.55 32.3 16.8 32.2 27.45.8 43.1-31.4 15.6-75.25 16.45.1-2.55.7-4.55 46.1.65 79.5-19.5 15.55-13.65-8.65-34.2Q118.7 9.55 101.5 5.35q7.3 9.1 6.4 16.85-2.2 4.7-4.4 2.15 2.1-9.6-4.35-16.3L98.25 20q-2.55 3.3-3.95 0l3.05-13.9M95.6 4.15q-28.65-4.9-67.2 8.6-30.55 10.5-23.75 37.4Q8.95 62.6 34.85 69l-.95 4.7Q6.35 63.55 1.9 52.35q-8.85-29.3 23.45-41.45Q66.8-4.35 97.75 1.7" fill="none" stroke="#000" stroke-linecap="round" stroke-linejoin="round" stroke-opacity=".4" stroke-width=".05"/><path d="M-27 30.75q-1.55 0-2.65-1.1t-1.1-2.65 1.1-2.65 2.65-1.1 2.65 1.1 1.1 2.65-1.1 2.65-2.65 1.1m-16.45-6.35q-.7-.7-1.7-.7t-1.7.7-.7 1.7.7 1.7 1.7.7 1.7-.7.7-1.7-.7-1.7m4.2-4.1q2.3 2.3 2.3 5.5t-2.3 5.45q-2.25 2.3-5.45 2.3t-5.5-2.3q-2.25-2.25-2.25-5.45t2.25-5.5q2.3-2.25 5.5-2.25t5.45 2.25" fill="#fff" fill-rule="evenodd" transform="translate(75.6 116)"/><path d="M48.6 146.75q-1.55 0-2.65-1.1t-1.1-2.65 1.1-2.65 2.65-1.1 2.65 1.1 1.1 2.65-1.1 2.65-2.65 1.1M36.35 136.3q2.3 2.3 2.3 5.5t-2.3 5.45q-2.25 2.3-5.45 2.3t-5.5-2.3q-2.25-2.25-2.25-5.45t2.25-5.5q2.3-2.25 5.5-2.25t5.45 2.25" fill="none" stroke="#000" stroke-linecap="round" stroke-linejoin="round" stroke-width=".05"/></g><use width="55.25" height="82.1" xlink:href="#e" id="c"/></defs></svg>