<svg viewBox="0 0 84.261 103.44" xmlns="http://www.w3.org/2000/svg" xmlns:xlink="http://www.w3.org/1999/xlink"><g transform="translate(-233.38 -148.68)"><use transform="translate(233.4 148.7)" width="84.25" height="103.4" xlink:href="#a"/><use transform="scale(1.3905) rotate(45 -74.54 295.715)" width="27.75" height="18.4" xlink:href="#b"/></g><defs><linearGradient id="c" x1="-819.2" x2="819.2" gradientTransform="matrix(.0117 -.0143 .0157 .0128 253.6 232.55)" gradientUnits="userSpaceOnUse"><stop stop-color="#65d8f3" stop-opacity=".702" offset=".067"/><stop stop-color="#87d6f2" stop-opacity=".702" offset=".514"/><stop stop-color="#d5ebf5" stop-opacity=".651" offset="1"/></linearGradient><linearGradient id="e" x1="-819.2" x2="819.2" gradientTransform="matrix(.0007 .0029 -.0016 .0004 -5.7 -2.9)" gradientUnits="userSpaceOnUse"><stop stop-color="#fff1d1" offset=".051"/><stop stop-color="#feda9e" offset="1"/></linearGradient><linearGradient id="f" x1="-819.2" x2="819.2" gradientTransform="matrix(-.0003 .0029 -.0021 -.0002 5.4 -3.2)" gradientUnits="userSpaceOnUse"><stop stop-color="#fff1d1" offset=".051"/><stop stop-color="#feda9e" offset="1"/></linearGradient><linearGradient id="g" x1="-819.2" x2="819.2" gradientTransform="matrix(0 .0049 -.0049 0 .4 -.5)" gradientUnits="userSpaceOnUse"><stop stop-color="#fff8ec" offset="0"/><stop stop-color="#fff1d1" offset=".271"/><stop stop-color="#d1a16d" offset="1"/></linearGradient><g id="a"><path d="m315.15 169.55-.3.25q-4.45 3.55-7.25-.15l.55.05q2.25 0 3.45-.85l.05-.05h.05l3.45.75m-1.3-3.95q1.45-1.85.2-3.65l.7-.45q.55 1.25.8 3.15l.15.65-1.85.3m-27.35-5.1q8.85 2.9 12.45 1.1 2.35-2.4 1.9-5.4 1.75-1.25 3.55-2.45.5 1.15.55 2.45l-.15 2.05-.9 2.75q-1.3 2.8-3.8 3.95-4.05 1.85-11.3-.7l-1.4-2.2-.9-1.55" fill="#fff5e0" fill-rule="evenodd" transform="translate(-233.4 -148.7)"/><path d="M315.7 165.3q.35 1.25 1.25 1.55-.6 1.4-1.8 2.7l-3.45-.75q1.05-.8 1.05-2l-.05-.1h.05l1.1-1.1 1.85-.3m-7.25-5.15q-1.9.65-3.55 2.95-2.15 3.6-2.2 7.1l-3.55.9q-.2-3.15.95-6.15 2.5-1.15 3.8-3.95l.9-2.75 2.05-1.6-.1.3q0 .9 1.95.9h.5l-.75 2.3m-45.65-.85q2.05-.8 4.25-1.3l.55 3.45q-8.7 1.75-15.7 8.4-3.35 3.2-5.55 6.5l-.65-1 3.15-3.5 4.35-4.65 4.35-3.35 4-2.95q0-.3 1.15-.7l2.55-.55-2.45-.35m26 4.95q-2.55-.85-5.4-2.25l-4.85-.9-.65-1.35q2.5.05 7.8 1.75l1.7.55 1.4 2.2m18.6 22.45-1.1-1.25q-2.8-3.1-4.55-6.1l2.8.15.1.15q3.25 4.7 4.45 7.5l-1.7-.45" fill="#fee4ab" fill-rule="evenodd" transform="translate(-233.4 -148.7)"/><path d="m314.05 161.95-2.05-1.8q-1.85-.65-3.55 0l.75-2.3 1.8-.1q1.5.8 2.75 2.15l1 1.6-.7.45m-11.35 8.25q-.05 1.25.2 2.5-1.2 1.15-1.2 2.55l2.85 4.25-2.8-.15q-2.45-4.2-2.6-8.25l3.55-.9m11.6 30.3q-.55 4.7-3.6 10.1l-.9-.95q1.7-3.5 1.7-6.35l-.45-1.65-.5-.9q1.6-7.95-3.15-14.05l1.7.45h.05v.05q1.45 3.55 2.55 9.5.8 2.9 2.6 3.8m-8.85 17.6-1.2 1.55q-4.55 5.35-11.2 7.7l-.45-2.05q5.75-1.95 11.05-7.25l1.05-1.05.75 1.1m-38.4-60.1 9.8-.35 1.05 2.1.65 1.35-2.85-.2-8.1.55-.55-3.45m-20.7 18.35q-1.45 2.2-2.35 4.45l-1.1-.95q1.1-2.85 2.35-4.05l.45-.45.65 1m-3.85 9.95q-1 8.05 4.45 16.7l-2.4-.35-.65-1.15q-2.05-4.6-2.4-5.95-.6-2.1-.6-5.7 0-2.05.4-4.3l1.2.75" fill="#e5c59a" fill-rule="evenodd" transform="translate(-233.4 -148.7)"/><path d="M310.7 210.6q-2.05 3.6-5.25 7.5l-.75-1.1q2.85-3.1 4.7-6.55l.4-.8.9.95m-17.65 16.75q-4.75 1.7-10.55 1.9l.55-2.9 2.45.15q3.6 0 7.1-1.2l.45 2.05M244 180.8q-1.15 2.75-1.5 5.5l-1.2-.75.95-3.75.65-1.95 1.1.95m2.95 22.2 2.6 3.7-2.05.25-.4-.6-2.55-3.7 2.4.35" fill="#b3946d" fill-rule="evenodd" transform="translate(-233.4 -148.7)"/><path d="M282.5 229.25q-6.25.2-13.65-1.25l-14.65-10.8q-5.3-5.05-8.65-9.95l1.95-.3 2.05-.25 2.65 3.1 5.1 5.15 12.95 9.05q6.45 1.8 12.05 1.65l.9-.05-.15.75-.55 2.9" fill="#a18562" fill-rule="evenodd" transform="translate(-233.4 -148.7)"/><path d="m317.5 165.05-.55 1.8q-.9-.3-1.25-1.55l1.8-.25m-9.5-.5q.55-.4 1.4-.55 1.65.1 2.95 2.95l.35-.25.05.1q0 1.2-1.05 2h-.05l-2.65-.6-1-3.65m-1.6 15.05q3.5 3.95 5.5 8.3l-2.75-.75h-.05q-1.2-2.8-4.45-7.5l-.1-.15 1.85.1m-61.6-5.5q1.9-2.85 4.55-5.65 6.5-6.45 13.45-9.15l2.45.35-2.55.55q-1.15.4-1.15.7l-4 2.95-4.35 3.35-4.35 4.65-3.15 3.5-.9-1.25m32.05-16.45 4.55 1 5.1 1.85.9 1.55-1.7-.55q-5.3-1.7-7.8-1.75l-1.05-2.1m24-1.45-.55-1.8-.65-.9 2.25-2.8q1.75 1.3 2.5 3.05-1.8 1.2-3.55 2.45m-5.7-3.3-.2.15q-1.4 1.2-1.5 2.5l-3 1.1-.1-2q.9-3.6 3.1-5l1.7 3.25m11.7 3.75q1.55-.95 3.05-.95l-.7 2.15h-.5q-1.95 0-1.95-.9l.1-.3" fill="#feecc5" fill-rule="evenodd" transform="translate(-233.4 -148.7)"/><path d="M299.65 153.5q-2.05-2.25-4.5-.6l-1.7-3.25q2.1-1.35 5.5-.6 1.7.75 2.95 1.65l-2.25 2.8m-6.2 2.05q-.1.75.25 1.45l-1.1 2h2.6q1.7.05 2.15-3.2l.85.95q1.45 4.2-2.35 5.1-4.85.05-5.4-5.2l3-1.1" fill="#fef1d6" fill-rule="evenodd" transform="translate(-233.4 -148.7)"/><path d="m317.5 165.05-1.8.25-.15-.65q-.25-1.9-.8-3.15l1.65-1.15q1.35 2.4 1.1 4.7m-9.9 4.6-.35-.45q-.9-3.4.75-4.65l1 3.65 2.65.6-.05.05q-1.2.85-3.45.85l-.55-.05M293.7 157q1.7-2.85 3.65-1.2-.45 3.25-2.15 3.2h-2.6l1.1-2" fill="#fff" fill-rule="evenodd" transform="translate(-233.4 -148.7)"/><path d="M302.9 172.7q.6 3.15 2.9 6.2l.6.7-1.85-.1-2.85-4.25q0-1.4 1.2-2.55m9 15.2q2 4.25 2.5 8.9.15 1.8-.1 3.7-1.8-.9-2.6-3.8-1.1-5.95-2.55-9.5v-.05l2.75.75m-69.25 14.55q-4.5-9-2.65-17.7l1.3.8q-.4 2.25-.4 4.3 0 3.6.6 5.7.35 1.35 2.4 5.95l.65 1.15-1.9-.2m-.7-23.45q1.15-2.5 2.85-4.9l.9 1.25-.45.45q-1.25 1.2-2.35 4.05l-.95-.85m67.95-23.3q2.55-.05 4.95 2.45l1.55 2.2-1.65 1.15-1-1.6q-1.25-1.35-2.75-2.15l-1.8.1.7-2.15m-17.65 67.9q6.3-2.6 11.2-8.5l1.25 1.9-1.05 1.05q-5.3 5.3-11.05 7.25l-.35-1.7m15.8-15.8q1.8-3.65 2.5-7.05l.5.9.45 1.65q0 2.85-1.7 6.35l-1.75-1.85" fill="#eacbae" fill-rule="evenodd" transform="translate(-233.4 -148.7)"/><path d="M245.55 207.25q-1.7-2.45-2.9-4.8l1.9.2 2.55 3.7.4.6-1.95.3m-5.55-22.5q.6-2.9 1.95-5.75l.95.85-.65 1.95-.95 3.75-1.3-.8m43.2 40.85q4.85-.3 9.05-2l.35 1.7q-3.5 1.2-7.1 1.2l-2.45-.15.15-.75m20.25-10.5 1.45-1.9 3.15-5.4 1.75 1.85-.4.8q-1.85 3.45-4.7 6.55l-1.25-1.9" fill="#bb9c80" fill-rule="evenodd" transform="translate(-233.4 -148.7)"/><path d="m83.55 18.15.55-1.8m-.55 1.8q-.6 1.4-1.8 2.7l-.3.25q-4.45 3.55-7.25-.15l-.35-.45q-.9-3.4.75-4.65.55-.4 1.4-.55 1.65.1 2.95 2.95l.35-.25h.05l1.1-1.1q1.45-1.85.2-3.65l-2.05-1.8q-1.85-.65-3.55 0-1.9.65-3.55 2.95-2.15 3.6-2.2 7.1-.05 1.25.2 2.5.6 3.15 2.9 6.2l.6.7q3.5 3.95 5.5 8.3 2 4.25 2.5 8.9.15 1.8-.1 3.7-.55 4.7-3.6 10.1-2.05 3.6-5.25 7.5l-1.2 1.55q-4.55 5.35-11.2 7.7-4.75 1.7-10.55 1.9-6.25.2-13.65-1.25L20.8 68.5q-5.3-5.05-8.65-9.95-1.7-2.45-2.9-4.8-4.5-9-2.65-17.7.6-2.9 1.95-5.75 1.15-2.5 2.85-4.9 1.9-2.85 4.55-5.65 6.5-6.45 13.45-9.15 2.05-.8 4.25-1.3l9.8-.35 4.55 1 5.1 1.85q8.85 2.9 12.45 1.1 2.35-2.4 1.9-5.4l-.55-1.8-.65-.9q-2.05-2.25-4.5-.6l-.2.15q-1.4 1.2-1.5 2.5-.1.75.25 1.45 1.7-2.85 3.65-1.2l.85.95q1.45 4.2-2.35 5.1-4.85.05-5.4-5.2l-.1-2q.9-3.6 3.1-5 2.1-1.35 5.5-.6 1.7.75 2.95 1.65 1.75 1.3 2.5 3.05.5 1.15.55 2.45l-.15 2.05 2.05-1.6Q75 7 76.5 7q2.55-.05 4.95 2.45l1.55 2.2q1.35 2.4 1.1 4.7M45.15 12.4l4.85.9q2.85 1.4 5.4 2.25M45.15 12.4l-2.85-.2-8.1.55q-8.7 1.75-15.7 8.4-3.35 3.2-5.55 6.5-1.45 2.2-2.35 4.45-1.15 2.75-1.5 5.5-1 8.05 4.45 16.7l2.6 3.7 2.65 3.1 5.1 5.15 12.95 9.05q6.45 1.8 12.05 1.65l.9-.05q4.85-.3 9.05-2 6.3-2.6 11.2-8.5l1.45-1.9 3.15-5.4q1.8-3.65 2.5-7.05Q78.75 44.1 74 38l-1.1-1.25q-2.8-3.1-4.55-6.1-2.45-4.2-2.6-8.25-.2-3.15.95-6.15-4.05 1.85-11.3-.7m16-6-.9 2.75q-1.3 2.8-3.8 3.95" fill="none" stroke="#000" stroke-linecap="round" stroke-linejoin="round" stroke-opacity=".4" stroke-width=".2"/><path d="m270.4 221.05.5 6.05-2.8 8.95-1.9-5.6L264 228q-5.5 1.6-12.8-1.45.45-2.95 2.4-6.55l-7.85-1.05 8.95-4.75 3.05-.45q5.05 0 9.45 3.15l3.2 4.15" fill="#8c231d" fill-rule="evenodd" transform="translate(-233.4 -148.7)"/><path d="M252.95 216.65q3.4-1.5 4.3-.85t-1.3 3l-6.8 6.8q-4.55 4.5-2.55 10.4 1.95 5.85-6.05 4.45-8.05-1.55-3.65-9.1 4.3-7.65 8.45-10.5 4.15-2.95 7.6-4.2" fill="#961f1f" fill-rule="evenodd" transform="translate(-233.4 -148.7)"/><path d="m264.6 226.45.3-.5q.2-.2.5-.1.25-.05.5.25l.15.6-.2.4-.55.15q-.3-.05-.5-.3l-.2-.5m-8.15 9.45.3.85-.4.75-.75.25q-.45-.15-.75-.45l-.25-.9.4-.7.75-.2q.35.05.7.4m-5.4 9.7q.45.75.35 1.6-.2.8-.9 1.4l-1.55.3q-.85-.1-1.4-.8-.45-.75-.3-1.6.1-.85.85-1.4.7-.5 1.55-.35t1.4.85m2.7 2.6.4-.65q.3-.3.75-.25t.75.45l.25.8-.4.75-.75.25-.7-.45q-.3-.4-.3-.9m-9-2.1q-1.35.95-3 .65-1.55-.25-2.55-1.55-.95-1.35-.65-2.95.25-1.6 1.6-2.55 1.3-1 2.95-.65 1.65.2 2.55 1.55.9 1.3.7 3-.35 1.6-1.6 2.5m-3.45-11.15q-.3-.5-.25-1 0-.5.45-.8l.8-.2.85.5q.35.4.3.95l-.4.85-.9.2q-.5-.1-.85-.5" fill="#771a1a" fill-opacity=".702" fill-rule="evenodd" transform="translate(-233.4 -148.7)"/><path d="M253.55 238q.95 1.25.85 2.7-.05 1.5-1.15 2.4-1.15.8-2.6.65-1.4-.3-2.35-1.5-1.05-1.25-.95-2.7.15-1.45 1.25-2.35 1.05-.85 2.5-.6 1.5.25 2.45 1.4" fill="#4f1111" fill-opacity=".702" fill-rule="evenodd" transform="translate(-233.4 -148.7)"/><path d="m253.4 238 .7.95.2 1.2-.4.65-.9-.15q-.45-.4-.55-1.1l-.15-1.15q-.15-.4.25-.6.35-.15.85.2m-.4 3.55.35.5q0 .35-.35.55l-.8.25-.75-.35q-.35-.25-.1-.6l.25-.5.6-.2q.45.1.8.35" fill="#ea9999" fill-opacity=".702" fill-rule="evenodd" transform="translate(-233.4 -148.7)"/><path d="M257.25 215.65q.75.5-.35 1.9t-3.55 2.95q-2.4 1.4-4.55 2.05l-2.9.1q-.8-.55.3-1.95 1.15-1.45 3.55-2.95 2.35-1.5 4.5-2.1 2.25-.65 3 0m-18.3 16q-1.4.9-2.3.8-.9-.15-.7-1.25.2-1.2 1.35-2.65 1.15-1.6 2.55-2.5 1.4-1 2.35-.85.85.15.6 1.35-.15 1.1-1.35 2.7-1.15 1.45-2.5 2.4M267.3 236.3q-.2 1.25-1.15 3.7l-2.05 4.4-1.8 2.5q-.7.5-.45-.8.15-1.3 1.1-3.55.95-2.45 2.1-4.35 1.1-2.05 1.75-2.6t.5.7M259.8 249.05l-.6.75-.95.65-.85.1q-.35-.1-.2-.45l.5-.8q.45-.4 1-.55l.85-.1q.3.05.25.4" fill="#fff" fill-opacity=".6" fill-rule="evenodd" transform="translate(-233.4 -148.7)"/><path d="M241 247.35q-6.45-4.9-7.55-11.95-.65-4.25 7.75-13.65 2.25-2.1 6.4-4.25l7.2-3.65q6.9-2.3 13.05 2.9 4.4 3.85 3.5 8.35.3 5.25-5.65 16.9-2.95 8.85-10.7 10.1-7 0-13.9-4.75v-.1l-.1.1" fill="url(#c)" fill-rule="evenodd" transform="translate(-233.4 -148.7)"/><path d="M7.6 98.65Q1.15 93.75.05 86.7-.6 82.45 7.8 73.05q2.25-2.1 6.4-4.25l7.2-3.65q6.9-2.3 13.05 2.9 4.4 3.85 3.5 8.35.3 5.25-5.65 16.9-2.95 8.85-10.7 10.1-7 0-13.9-4.75v-.1l-.05.05" fill="none" stroke="#a14040" stroke-linecap="round" stroke-linejoin="round" stroke-opacity=".502" stroke-width=".05"/></g><g id="d"><path d="M-8.4-1.25q-.15-2.35-2.05-5.9 3 .05 9.15 1.85l-7.1 4.05" fill="#77ba00" fill-rule="evenodd" transform="translate(13.85 11.2)"/><path d="M5.45 9.95Q5.3 7.6 3.4 4.05q3 .05 9.15 1.85" fill="none" stroke="#4d8c2b" stroke-linecap="round" stroke-linejoin="round" stroke-opacity=".702" stroke-width=".05"/><path d="M8.15.05 0-5.15q5.25-1.7 10.25-2.1-2 4.25-2.1 7.3" fill="#77ba00" fill-rule="evenodd" transform="translate(13.85 11.2)"/><path d="M22 11.25q.1-3.05 2.1-7.3-5 .4-10.25 2.1" fill="none" stroke="#498c2b" stroke-linecap="round" stroke-linejoin="round" stroke-opacity=".702" stroke-width=".05"/><path d="m-8.8-2.85 3.4 1.35 1.35 1.25.5 2.35q-1.75-.65-3.85-.75l-1.4-4.2" fill="#77ba00" fill-rule="evenodd" transform="translate(13.85 11.2)"/><path d="m-7.4 1.35-6.45.4q1.1-2.65 5.05-4.6l1.4 4.2" fill="#7cd100" fill-rule="evenodd" transform="translate(13.85 11.2)"/><path d="m6.45 12.55-6.45.4q1.1-2.65 5.05-4.6" fill="none" stroke="#528c2b" stroke-linecap="round" stroke-linejoin="round" stroke-opacity=".702" stroke-width=".05"/><path d="m5.75-2 4.1-.7-1.05 2-1.35 2.6q-3.1.5-5.9 1.55Q1.4.8 5.75-2m-1 1.95q2.3-.9 4.05-.65-1.75-.25-4.05.65" fill="#77ba00" fill-rule="evenodd" transform="translate(13.85 11.2)"/><path d="M7.45 1.9 8.8-.7q.9.1 1.7.6-.8-.5-1.7-.6l1.05-2q2.7 2.25 4.05 5.45-3.7-1-6.45-.85" fill="#7cd100" fill-rule="evenodd" transform="translate(13.85 11.2)"/><path d="M22.65 10.5q-1.75-.25-4.05.65m4.05-.65q.9.1 1.7.6" fill="none" stroke="#5b8c2b" stroke-linecap="round" stroke-linejoin="round" stroke-width=".05"/><path d="m23.7 8.5-4.1.7m-4.2 5.45q2.8-1.05 5.9-1.55 2.75-.15 6.45.85-1.35-3.2-4.05-5.45" fill="none" stroke="#558c2b" stroke-linecap="round" stroke-linejoin="round" stroke-opacity=".702" stroke-width=".05"/><path d="M-2.1 1.05-3.45 3.1l1.35-2.05M4.5 3.1q-4-.55-7.95 0-1.3-1.05-3.65-.9 3-1.9 5.85-2.35 4.1.8 5.75 3.25" fill="#77ba00" fill-rule="evenodd" transform="translate(13.85 11.2)"/><path d="M-7.1 2.2q2.35-.15 3.65.9 3.95-.55 7.95 0-5 1-9.05 4.1-.9-2.8-2.6-5h.05" fill="#7cd100" fill-rule="evenodd" transform="translate(13.85 11.2)"/><path d="m10.4 14.3 1.35-2.05" fill="none" stroke="#5b8c2b" stroke-linecap="round" stroke-linejoin="round" stroke-width=".05"/><path d="M6.7 13.4q1.7 2.2 2.6 5 4.05-3.1 9.05-4.1" fill="none" stroke="#578c2b" stroke-linecap="round" stroke-linejoin="round" stroke-opacity=".702" stroke-width=".05"/><path d="M-3.35-6.4q-.35-1.75 2.9-4l3.8 3.25q-3.45-.2-6.5 1.3l-.2-.55m-3.5 1.85q.55 2.75 3 5.05l-2.7-.05q-1.5-.25-4.3-3.35l4-1.65M5.2.15q2.6-2.9 1.3-5.2l4.7 1Q9.35-.95 7.85-.35L5.2.15" fill="#578234" fill-rule="evenodd" transform="translate(13.85 11.2)"/><path d="M1.3-4.55Q-5.5-.6-6.4-3.05q.7-4.65 2.85-7.7 1.5 3.7 4.85 6.2" fill="#a39171" fill-rule="evenodd" transform="translate(13.85 11.2)"/><path d="M15.15 6.65q-6.8 3.95-7.7 1.5.7-4.65 2.85-7.7 1.5 3.7 4.85 6.2z" fill="none" stroke="#bdab89" stroke-linecap="round" stroke-linejoin="round" stroke-width=".05"/><path d="M-3.35.85q-2.3-3.6-2.65-9 1.6 4.85 5 9.1l-2.35-.1" fill="#b8a17e" fill-rule="evenodd" transform="translate(13.85 11.2)"/><path d="M-6-8.15q.35 5.4 2.65 9Q-5.7.4-6.7-1.55q-.75-4.25.7-6.6" fill="url(#e)" fill-rule="evenodd" transform="translate(13.85 11.2)"/><path d="M2.55-11.2Q5.7-7.65 6-3.25q-.55 1-1.4.85.85-3.7-2.05-8.8" fill="#fff1d1" fill-rule="evenodd" transform="translate(13.85 11.2)"/><path d="M2.55-11.2q2.9 5.1 2.05 8.8-2.9.35-6.95-1.35 4-2.85 4.9-7.45" fill="#ad9877" fill-rule="evenodd" transform="translate(13.85 11.2)"/><path d="m3.3.05-1.9-.3q3.2-3.8 4.55-8.55Q5.3-2.45 3.3.05" fill="#b8a17e" fill-rule="evenodd" transform="translate(13.85 11.2)"/><path d="M3.3.05q2-2.5 2.65-8.85 1.6 2.65 1.1 6.95Q6.05.2 3.3.05" fill="url(#f)" fill-rule="evenodd" transform="translate(13.85 11.2)"/><path d="M2.8-1.55Q1.65-.35 0-.35t-2.85-1.2Q-4-2.7-4-4.35t1.15-2.85Q-1.65-8.35 0-8.35T2.8-7.2Q4-6 4-4.35t-1.2 2.8" fill="#ffd919" fill-rule="evenodd" transform="translate(13.85 11.2)"/><path d="M2.3-6q-.05.4-.45.4T.95-6q-.4-.35-.65-.85t-.2-.9q.1-.35.5-.35l.85.35.75.9q.25.5.1.85" fill="#fff8df" fill-rule="evenodd" transform="translate(13.85 11.2)"/><path d="M4.4.25q-2.2 1.1-4.75 1.1L-3.6.9Q-3-2.45 0-6.05 3.1-4.4 4.4.25" fill="url(#g)" fill-rule="evenodd" transform="translate(13.85 11.2)"/><path d="M18.25 11.45q-1.3-4.65-4.4-6.3-3 3.6-3.6 6.95" fill="none" stroke="#baa789" stroke-linecap="round" stroke-linejoin="round" stroke-width=".05"/><path d="M5.5-1.75 6.75-.2Q2.6 1.9 1.35 1.55 4.1-.1 5.5-1.75M-6.45 0l1.1-1.55q1.6 1.65 4.5 3.3Q-2.1 2.1-6.45 0" fill="#5b941b" fill-rule="evenodd" transform="translate(13.85 11.2)"/></g><use width="27.75" height="18.4" xlink:href="#d" id="b"/></defs></svg>