<svg viewBox="0 0 65.399 63.483" xmlns="http://www.w3.org/2000/svg" xmlns:xlink="http://www.w3.org/1999/xlink"><use transform="translate(.02 .01)" width="65.35" height="63.45" xlink:href="#a"/><defs><g id="a"><path d="m294.65 175.6.05-.05 5.3-6.75q3.75-1.8 7.85 1.95 3.95 4.5 2.7 9.75l-8.5 17.8q-.1-.7.2-1.05 1.5-2.35 2.4-5.1l2-5.45q1.2-2.8 1.9-5.5.65-2.8.45-5.3-.15-2.8-3.75-3.5-1.5-.4-2.7.45l-3.75 2.45q-1.6 1.25-1.7 1.85l-.95-1.2-1.35-.3-.15-.05m-39.35 46.9-9.6 8.95 11.4-12.75 3-3.4q1.25-.05 1.45.5-2.25 1.8-3.55 3.35l-2 2.2q-.75.65-.7 1.15" fill="#f0e0aa" fill-rule="evenodd" transform="translate(-245.6 -168.1)"/><path d="m302.05 198.3-10.7 22.55 16.05-40.7q.9-3.75-1.3-6-1.85-2.15-3.55-1l-4.8 4.9-.3-.35-.35-.55q.1-.6 1.7-1.85l3.75-2.45q1.2-.85 2.7-.45 3.6.7 3.75 3.5.2 2.5-.45 5.3-.7 2.7-1.9 5.5l-2 5.45q-.9 2.75-2.4 5.1-.3.35-.2 1.05m-43.4 21.15-3.35 3.05q-.05-.5.7-1.15l2-2.2q1.3-1.55 3.55-3.35l.05.7-2.95 2.95" fill="#dbb533" fill-rule="evenodd" transform="translate(-245.6 -168.1)"/><path d="m301.95 186.7.15.05q.45 1.6.05 1.05-2.05 2.25-2.85 3.8l-1.1 1.55-.55-1.15 4.3-5.3m-23.15-6.45 4.35-4.85 2.75-.1-.05.1q-1.25.35-1.75.7-2.75 1.1-3.65 4.2l-1.65-.05m15.85-4.65.15.05 1.35.3.95 1.2.35.55-.65.5q-1.9 2.05-2.5 4.95l-.8-2.25h-.4l-2.95-.15q2.75-1.25 4.1-4l.4-1.15" fill="#dcc8c2" fill-rule="evenodd" transform="translate(-245.6 -168.1)"/><path d="m297.75 178.05 1.55 2.55q1.3 2.55 2.25 5.35l.4.75-4.3 5.3-.3-.75-1.95-5.3-1.1-2.8q.6-2.9 2.5-4.95l.65-.5.3.35m-9.1 5.9-.75 1.5q-1.25 2.45-3.85 4.25l-.15-.05-5.75-.65-3.85.15q.9-3.2 2.65-5.15.65-.9 1.55-1.3 1.85-.2 3.75 0 2.85.1 5.65 1l.75.25" fill="#ac7c6f" fill-rule="evenodd" transform="translate(-245.6 -168.1)"/><path d="m295 195.7-2.7 2.75q-1.4 1.25-2.55 1.6l.2-.35v-.2l4.15-3.65q.9-.65.85-2.3l.3.3q-.35.5.05 1.1.4.55-.3.75m-22.3-6q.9-2.9 2.8-4.9l1.15-1.85 1.85-.25q-.9.4-1.55 1.3-1.75 1.95-2.65 5.15-.85.15-1.6.55m11.35 0q2.6-1.8 3.85-4.25l.75-1.5.95.5.85 1.15-1.3 1.3q-1.8 1.95-2.8 4.65l-1.5-1.7-.8-.15" fill="#ccaba2" fill-rule="evenodd" transform="translate(-245.6 -168.1)"/><path d="m298.2 193.15.05.1 1 1.95-1.65.3q-1-1.2-1.65-2.8l-2.05-5.35-2.05-5 1.25-1.45h.4l.8 2.25 1.1 2.8 1.95 5.3.3.75.55 1.15M277.3 215l-.1.2q.1 1.1-1 1.2l-.05-.35-.45-.7-1.45-3.3q-.95-1.9-2.35-5.75l-.1-.05.05-.05 1.15-.9.85.85q.9 3.35 2.75 7.25l.7 1.6" fill="#5a8323" fill-rule="evenodd" transform="translate(-245.6 -168.1)"/><path d="m268.05 198.35 1.2.1 2.7.25 3.1.3 1.35.15-1.45 1.45q-2.45 1.6-3.9 3.85l-.05-.05-8.35-.35q1.25-2.25 2.75-3.35l2.65-2.35m27.05-4.8h-.15q.05 1.65-.85 2.3l-4.15 3.65q-.5-2.2-1.65-4.95l-1.95-3q1-2.7 2.8-4.65l1.3-1.3 2.6 4.2 2.05 3.75" fill="#a36d61" fill-rule="evenodd" transform="translate(-245.6 -168.1)"/><path d="m297.6 195.5-.05.1-2.55.1q.7-.2.3-.75-.4-.6-.05-1.1l-.15-.3-2.05-3.75-2.6-4.2-.85-1.15-.95-.5-.75-.25q-2.8-.9-5.65-1-1.9-.2-3.75 0l-1.85.25h-.3l-.95-1.5 5.5-.35 5.7.45 5.1.6.15.2 2.05 5 2.05 5.35q.65 1.6 1.65 2.8m-21.4 20.9v.3q-1 .75-2.4.25l.7-.25-.65-1.2-1.3-3.1-1.25-3.35-.65-2.05-2.4-.1-2 .25-3.2.1-2.3-.2q-.9.4-1.65.9l-.15-.95-.15-.85.15-.3 12.8.4h.05l.1.05q1.4 3.85 2.35 5.75l1.45 3.3.45.7.05.35" fill="#dfe2a9" fill-rule="evenodd" transform="translate(-245.6 -168.1)"/><path d="m285.85 175.4.35-.05 1.1-.3h3.9q2.4-.05 3.45.55l-.4 1.15q-1.35 2.75-4.1 4l-2.25-.15-5.9-.25-1.55-.05q.9-3.1 3.65-4.2.5-.35 1.75-.7" fill="#bf998e" fill-rule="evenodd" transform="translate(-245.6 -168.1)"/><path d="m286.7 199.7.35 1.7-.5-.15q-1-2.85-2.7-4.8l-.9-.7q-.9-.7-2.05-1.05-1.55-.3-2.75 0-1.25.25-2.2 1.1l-.65.75q-.75 1.2-.25 2.45l-3.1-.3-2.7-.25q.2-3.45 2.5-4.85 1-.5 2.05-.7l3 .1q2.65.7 5.55 1.75 2.8 1.2 3.75 3.55l.6 1.4" fill="#c9332c" fill-rule="evenodd" transform="translate(-245.6 -168.1)"/><path d="m289.75 200.05-.35.25q.05-.1-.3-.1-.85.05-2.4-.5l-.6-1.4q-.95-2.35-3.75-3.55-2.9-1.05-5.55-1.75l-3-.1q-1.2-1.6-1.1-3.2.75-.4 1.6-.55l3.85-.15 5.75.65.15.05.8.15 1.5 1.7 1.95 3q1.15 2.75 1.65 4.95v.2l-.2.35M268.6 220.9l-5.9-.75q-2.2-.6-4.05-.7l2.95-2.95-.05-.7q-.2-.55-1.45-.5l-3 3.4q-1-2.25-1.2-4.65-.25-1.25-.9-2.3l.15-.15 1.85-.15.5.1 3.95.65 1.9.15 1.4.1.9 1.95 1.25 3.1.9 1.95.8 1.45" fill="#863939" fill-rule="evenodd" transform="translate(-245.6 -168.1)"/><path d="M282.7 208.6q.15.7-1.55 2.45L277.3 215l-.7-1.6q2.1-1.8 4.65-3.3l1.45-1.5m-20.5-4.6q.45-2.35 1.8-3.6l2.45-2.25 1.6.2-2.65 2.35q-1.5 1.1-2.75 3.35l-.45-.05m14.2-4.85 1 .1.5.3 1.05.8.15.55q-.6.7-1.8 1.25-2.5 1.25-3.45 4l-1.35-1.35-1.45-.35q1.45-2.25 3.9-3.85l1.45-1.45" fill="#c0998d" fill-rule="evenodd" transform="translate(-245.6 -168.1)"/><path d="M258.95 205.85q.25-.9 1-2-.1.35.1.2l.3-.1 1.85.05.45.05 8.35.35.05.05 1.45.35.5.5-1.15.9-.1.05-12.8-.4m16.45-24.4q-.1-1 .5-1.25l2.9.05 1.65.05 1.55.05 5.9.25 2.25.15 2.95.15-1.25 1.45-.15-.2-5.1-.6-5.7-.45-5.5.35" fill="#a6c761" fill-rule="evenodd" transform="translate(-245.6 -168.1)"/><path d="m276.4 199.15-1.35-.15q-.5-1.25.25-2.45 2.95 3.05 5 4.3l1.9 1.25-.2.05-3.05-1.8-1.05-.8-.5-.3-1-.1m1.75-4.45q1.2-.3 2.75 0 1.15.35 2.05 1.05-.7 1.65 1 6.1l-1.45-2.65-.1-.2q-1.3-2.75-4.25-4.3" fill="#f5d6d3" fill-rule="evenodd" transform="translate(-245.6 -168.1)"/><path d="M286.55 201.25q-1.55-.35-2.6.6-.65.6-1.1 1.7-.8 2.15.55 3.35-.25.2-1.2 0-1.15-1.7-1.75-3.3t-1.35-2.7l-.15-.55 3.05 1.8.2-.05-1.9-1.25q-2.05-1.25-5-4.3l.65-.75q.95-.85 2.2-1.1 2.95 1.55 4.25 4.3l.1.2 1.45 2.65q-1.7-4.45-1-6.1l.9.7q1.7 1.95 2.7 4.8" fill="#e17c77" fill-rule="evenodd" transform="translate(-245.6 -168.1)"/><path d="M282.2 206.9q.05.85.45 1.6l.05.1-1.45 1.5q-2.55 1.5-4.65 3.3-1.85-3.9-2.75-7.25.95-2.75 3.45-4 1.2-.55 1.8-1.25.75 1.1 1.35 2.7t1.75 3.3m-19.15.35 3.2-.1 2-.25-.85 1.5q-1.6 2.15-4.05 3.95l-1.9-.15-3.95-.65q2.2-2.6 4.6-3.8l.95-.5" fill="#875a4e" fill-rule="evenodd" transform="translate(-245.6 -168.1)"/><path d="M273.8 216.95q-2.3.95-3.8 2.8l-1.4 1.15-.8-1.45q3.05-1.15 5.15-2.8l.9-1.15.65 1.2-.7.25m-18.65-5.35q.25-.3.75-.45l1-1.25 2.2-1.95q.75-.5 1.65-.9l2.3.2-.95.5q-2.4 1.2-4.6 3.8l-.5-.1-1.85.15m8.2.75q2.45-1.8 4.05-3.95l.85-1.5 2.4.1.65 2.05q-1 .25-1.65.7-2.3 1.7-4 4.65l-.9-1.95-1.4-.1" fill="#b38577" fill-rule="evenodd" transform="translate(-245.6 -168.1)"/><path d="m271.3 209.05 1.25 3.35 1.3 3.1-.9 1.15q-2.1 1.65-5.15 2.8l-.9-1.95-1.25-3.1q1.7-2.95 4-4.65.65-.45 1.65-.7" fill="#644239" fill-rule="evenodd" transform="translate(-245.6 -168.1)"/><path d="m49.05 7.5.05-.05L54.4.7q3.75-1.8 7.85 1.95 3.95 4.5 2.7 9.75l-8.5 17.8-10.7 22.55 16.05-40.7q.9-3.75-1.3-6-1.85-2.15-3.55-1l-4.8 4.9 1.55 2.55q1.3 2.55 2.25 5.35l.4.75.15.05q.45 1.6.05 1.05-2.05 2.25-2.85 3.8l-1.1 1.55M52 27.4l-.05.1m-2.55.1-2.7 2.75q-1.4 1.25-2.55 1.6M36.6 38.8q.05.85.45 1.6l.05.1q.15.7-1.55 2.45L31.7 46.9m-3.5 1.95q-2.3.95-3.8 2.8L23 52.8m-9.95-1.45L9.7 54.4.1 63.35 11.5 50.6m-1.95-7.1q.25-.3.75-.45l1-1.25 2.2-1.95-.15-.95-.15-.85.15-.3q.25-.9 1-2m2.25.15q.45-2.35 1.8-3.6l2.45-2.25 1.6.2 1.2.1m3.45-8.75q.9-2.9 2.8-4.9l1.15-1.85h-.3l-.95-1.5q-.1-1 .5-1.25m2.9.05 4.35-4.85 2.75-.1-.05.1.35-.05 1.1-.3h3.9q2.4-.05 3.45.55l.15.05 1.35.3.95 1.2m.35.55-.35-.55M29.45 30.9l-3.1-.3-2.7-.25m7.15.7-1.35-.15m1.35.15 1 .1.5.3 1.05.8m.15.55-.15-.55m.15.55q.75 1.1 1.35 2.7t1.75 3.3m-11.2-2.5.05.05" fill="none" stroke="#875a4e" stroke-linecap="round" stroke-linejoin="round" stroke-width=".25"/><path d="m51.95 27.5-2.55.1M30.6 48.3v.3q-1 .75-2.4.25" fill="none" stroke="#5a8323" stroke-linecap="round" stroke-linejoin="round" stroke-width=".25"/><path d="M23.65 30.35q.2-3.45 2.5-4.85 1-.5 2.05-.7" fill="none" stroke="#962721" stroke-linecap="round" stroke-linejoin="round" stroke-width=".25"/><path d="M14.35 35.75q-.1.35.1.2l.3-.1 1.85.05m13.7-23.8 2.9.05" fill="none" stroke="#76ab2e" stroke-linecap="round" stroke-linejoin="round" stroke-width=".25"/><path d="M40.95 33.15q-1.55-.35-2.6.6-.65.6-1.1 1.7-.8 2.15.55 3.35-.25.2-1.2 0" fill="none" stroke="#a62b24" stroke-linecap="round" stroke-linejoin="round" stroke-width=".25"/><path d="M26.15 38.15h.05l.05-.05m-.05.05.1.05" fill="none" stroke="#664139" stroke-linecap="round" stroke-linejoin="round" stroke-width=".05"/></g></defs></svg>