<svg viewBox="0 0 40.931 35.737" xmlns="http://www.w3.org/2000/svg" xmlns:xlink="http://www.w3.org/1999/xlink"><g transform="translate(-1.894 -12.513)"><use transform="translate(1.9 12.5)" width="40.9" height="25.35" xlink:href="#a"/><use transform="matrix(.7513 0 0 1.0625 10.638 43.15)" width="25.3" height="4.8" xlink:href="#b"/></g><defs><path d="M25.35 2.4q-.05 1-3.75 1.7l-8.9.7-8.95-.7Q0 3.4.05 2.4 0 1.4 3.75.7L12.7 0l8.9.7q3.7.7 3.75 1.7" fill-opacity=".6" fill-rule="evenodd" transform="translate(-.05)" id="c"/><use width="25.3" height="4.8" xlink:href="#c" id="b"/><g id="a"><path d="M23.75 34.9q2.45 1.4 5.35 1.75l3.9.3 3.1-.75 1.9-1.05 1.65-1.35 1.3-2.1.4-1.35.4-2.4q.3-3.5-.55-6.8l-.3-1q-.5-1.35-1.35-2.4-1.25-1.35-3.2-1.85-2.25-.3-8.4 3.15l-.35-.55q6.8-3.55 9.3-3.25 2.1.5 3.45 2 1 1.2 1.55 2.8l.25.8q.9 3.55.6 7.35l-.45 2.6-.45 1.4q-.5 1.3-1.35 2.25l-1.8 1.45q-1 .65-2.05 1.1-1.5.7-3.35.85l-4.2-.35q-3.35-.4-6.15-2.1l.8-.5-.8.5-1.2.7h-.05l-2.4-2 5.4-3.35-.1-3.8L27.1 29l.1 3.75-3.45 2.15m-3.6-19 .25-.4.1-.05.15-.1q.2-.15.45-.15l.6.1.4.3.2.4-.4.1-.8.55-.05.05q.7.8.6 1.6l-.4.3-.65-1.2-.1.75.2.55q-.55 0-.85-.4-.3-.35-.3-.85v-.35l.15-.45-1.1-.85-.25-.2q-3.45-2.55-7.7-2.05-3.45.05-5.55 1.9-1.2 1-1.9 2.55-.4.8-.35 1.85l.1 1.2q.7 1.5 2.15 1.95l.6.15 5.45.2L11 24l-3.95.05-1.85-.35h-.1q-2.15-.6-3.1-2.55l-.1-1.35q-.05-1.15.35-2.05 1.05-2.2 2.85-3.5 2.1-1.5 5.2-1.7 5.1-.35 9 2.65l.1.1-.3.2.35-.2.7.6m10.4 8.1-1.65 4.1-2.65-1.5.05-.05h.05l.75-1 1.2-3.4L30.55 24m-12.15.8-.6.15-.65-.95 1.25.8m8.7-4.75 1.05.3-.7.2h-.05l-1.3 1.3 1.05-1.75-.05-.05M13.7 18.4l1-.15.75.8-1.75-.65M11 25.5l.25.55-.1.1v.05l-.05.05q-.65.95-.85 2-.15.55.15 1l.35.5q.75.25 1.7 0h.1l.1.35h-.05l-2.6.25-.45-.6q-.35-.5-.2-1.15.35-1.5 1.5-2.9l.05-.1.1-.1m5 7.45 1.1-1.75-.35 2.05-.05-.05.3.95-1-1.2" fill="#541834" fill-rule="evenodd" transform="translate(-1.9 -12.5)"/><path d="m18.95 22.95-.55 1.85-1.25-.8.65.95.35.6-.45 1.5-.05.1 1.9 2.7-1 .2-3.4-4.9.05-.15 1.25-4.05h.15l2.4 2h-.05m-1.25 4.1L15.2 25l2.5 2.05" fill="#895501" fill-rule="evenodd" transform="translate(-1.9 -12.5)"/><path d="m23.7 18.55.1-.15v-.2q-.1-.25-.5-.15-.6.25-.3.85l.15.15.8-.05.1-.05.95-.1.4.15.1.1.05.15-.1-.1-.4-.2-1.05.15-.95.05-.15-.15q-.4-.75.35-1.05.5-.1.6.2l-.05.25-.1.15m-.5 0v-.1l.2-.15q-.15-.05-.15.15l.05.1.15.05h.15l-.15.05-.25-.1m1.45.7.15-.1q.4-.05.4.35l-.15.05h-.1q-.5.15-.3-.3m-6.85-1.4-.1-.15h-.05v-.25q.05-.3.55-.2.75.3.4 1.05l-.2.15-.95-.05-1-.15-.45.2-.1.1.1-.15.1-.1q.15-.15.4-.15l.9.1.1.05.85.05.1-.15q.3-.6-.3-.85-.4-.1-.45.15v.2l.1.15m.05.05H18l.2-.05v-.1l-.1-.15.2.15-.05.1-.25.1-.15-.05m-1.2.55.2.1q.15.45-.3.3h-.1l-.2-.05q0-.4.4-.35m-2.6 9.2.05-.25-.15-.35-.2-.05q-.3-.05-.3.2-.1-.4.3-.35l.2.05.2.45-.1.3m-.15.25-.2.15.2-.15m1.3 3.45.3.2-.3-.15v-.05m4.25.8-.1-.2.1.2h.05-.05m2.8-.8.2-.25-.15.25h-.05m-3.05.45-.2-.05-.3.1-.05.15q-.05.2.15.25l-.3-.25.1-.15.4-.1.2.05m7.15-5.25h-.05l.8-1-.75 1" fill="#ffc95b" fill-rule="evenodd" transform="translate(-1.9 -12.5)"/><path d="m24.85 16.15 2.45 1.9 3.25 5.9V24l-2.25-1.85v-.05l-.9-1.55h.05l.7-.2-1.05-.3-2.25-3.9m2.6 4.4h-.05.05M11.7 24.1v-.3q.1-.45.45-.75.7-.75 1.65-.85l.25-.05q1.05-.05 1.4-.8l.05-.4q-.15-1.35-1.45-1.1-.75.3-.6.8l.2.3V21l-.35-.4q-.2-.6.7-1 1.6-.25 1.8 1.35l-.1.45q-.45 1.05-1.6 1-1.15.05-1.9.9-.35.3-.45.75l-.05.05m2 3.95-.55.1q-.6-.2-.4-1.15.65-1.5 2.1-.75l.3.3q.65.95-.05 1.9-.55.95-.3 2.1l.4.8-.2-.15q-.35-.35-.4-.75-.25-1 .2-1.9l.1-.2q.55-.95.1-1.65l-.3-.2q-1.2-.65-1.75.6-.15.8.35.95h.4m5.75 4.1h.05v.45q-.25.4-1 .2-1.1-.7-.35-1.75.1-.15.3-.2.8-.45 1.5.25.7.5 1.6.45l.7-.2-.15.15-.65.2q-.8.05-1.45-.35l-.15-.1q-.7-.55-1.3-.25l-.2.2q-.65.85.3 1.45.6.15.75-.2l.05-.3" fill="#f5feb6" fill-rule="evenodd" transform="translate(-1.9 -12.5)"/><path d="M24.45 21.75 19 22.95l-2.4-2 5.55-1.25 2.3 2.05m-11 10.3 2.55.9 1 1.2-.3-.95.05.05 2.5.85h.05l2.4 2-4.6-1.65-1.2-.4-2.45-2m3.65 2.4-.1-.3.1.3" fill="#5a3901" fill-rule="evenodd" transform="translate(-1.9 -12.5)"/><path d="m22.3 16-.2-.4-.4-.3-.6-.1q-.25 0-.45.15l-.15.1-.1.05-.25.4-.7-.6h-.05l-.1-.1 1.1-.55 4.4 1.4.05.1 2.25 3.9.05.05-1.05 1.75 1.3-1.3.9 1.55v.05l-1.2 3.4-.8 1h-.15l.4-2.9-2.1-1.9-2.3-2.05-5.55 1.25h-.15L15.2 25l-.05.15 3.4 4.9 1-.2 1.9-.4 2.1-.45 1.05-2.05.1 3.8-5.4 3.35h-.05l-2.5-.85.35-2.05-1.1 1.75-2.55-.9-.05-.05-.75-1.9-.1-.35-1.4-3.6.1-.1-.25-.55h-.05l-.2-.45 1.4-5.35 1.55-1.3 1.75.65-.75-.8-.35-.4 1.15-.95 2.85-1.3.25.2 1.1.85-.15.45v.35q0 .5.3.85.3.4.85.4h.1l.45-.1.4-.3.25-.2.15-.2.35-1.15-.1-.75m.9 2.55.25.1.15-.05h-.15l-.15-.05-.05-.1q0-.2.15-.15l-.2.15v.1m.5 0 .1-.15.05-.25q-.1-.3-.6-.2-.75.3-.35 1.05l.15.15.95-.05 1.05-.15.4.2.1.1-.05-.15-.1-.1-.4-.15-.95.1-.1.05-.8.05-.15-.15q-.3-.6.3-.85.4-.1.5.15v.2l-.1.15-.1.05.1-.05m.95.7q-.2.45.3.3h.1l.15-.05q0-.4-.4-.35l-.15.1m-6.85-1.4-.1-.15v-.2q.05-.25.45-.15.6.25.3.85l-.1.15-.85-.05-.1-.05-.9-.1q-.25 0-.4.15l-.1.1-.1.15.1-.1.45-.2 1 .15.95.05.2-.15q.35-.75-.4-1.05-.5-.1-.55.2v.25h.05l.1.15.05.05.15.05.25-.1.05-.1-.2-.15.1.15v.1l-.2.05h-.15l-.05-.05m-1.15.6q-.4-.05-.4.35l.2.05h.1q.45.15.3-.3l-.2-.1m-3 2.5-.2-.3q-.15-.5.6-.8 1.3-.25 1.45 1.1l-.05.4q-.35.75-1.4.8l-.25.05q-.95.1-1.65.85-.35.3-.45.75v.6l.05-.35q.1-.45.45-.75.75-.85 1.9-.9 1.15.05 1.6-1l.1-.45q-.2-1.6-1.8-1.35-.9.4-.7 1l.35.4.35.1-.35-.15m.5.15H14h.15l.3-.1.3-.45-.05-.2q-.25-.3-.5 0l.4.1.05.2-.2.3-.3.15m-2.2 3.95-.25-.65.25.65M13 24l-.5.4q-.4-.65.3-1.05l.4-.05q.9.65.35 1.55.55-.9-.35-1.55l-.4.05q-.7.4-.3 1.05l.5-.4m2.85 6.2q.3.35.05.65-.7 0-.7-.8l.2-.35q1-.45 1.45.5-.45-.95-1.45-.5l-.2.35q0 .8.7.8.25-.3-.05-.65m-1.8-2.55.1-.3-.2-.45-.2-.05q-.4-.05-.3.35 0-.25.3-.2l.2.05.15.35-.05.25-.15.25.15-.25m-.35.4.2-.15-.2.15h-.4q-.5-.15-.35-.95.55-1.25 1.75-.6l.3.2q.45.7-.1 1.65l-.1.2q-.45.9-.2 1.9.05.4.4.75l.2.15-.4-.8q-.25-1.15.3-2.1.7-.95.05-1.9l-.3-.3q-1.45-.75-2.1.75-.2.95.4 1.15l.55-.1m1.8 3.5-.3-.2v.05l.3.15.65.15-.65-.15m4 .6h-.05l-.1-.2.1.2-.05.3q-.15.35-.75.2-.95-.6-.3-1.45l.2-.2q.6-.3 1.3.25l.15.1q.65.4 1.45.35l.65-.2.15-.15-.7.2q-.9.05-1.6-.45-.7-.7-1.5-.25-.2.05-.3.2-.75 1.05.35 1.75.75.2 1-.2v-.45m2.95-1.05-.2.25h.05l.15-.25.2-.45-.2.45m-3.25.7.15.15-.15-.15-.2-.05-.4.1-.1.15.3.25q-.2-.05-.15-.25l.05-.15.3-.1.2.05m2.25-1.1.5.05q-.1.55-.7.45l-.3-.2q-.2-.85.5-1.55-.7.7-.5 1.55l.3.2q.6.1.7-.45l-.5-.05" fill="#9b9664" fill-rule="evenodd" transform="translate(-1.9 -12.5)"/><path d="m20.4 3.5-.2-.4-.4-.3-.6-.1q-.25 0-.45.15l-.15.1-.1.05-.25.4m-.45.75-.15.45v.35q0 .5.3.85.3.4.85.4l-.2-.55.1-.75m.65 1.2.4-.3m-.55-1.65.8-.55.4-.1.1.75-.35 1.15-.15.2-.25.2m-.4.3-.45.1h-.1" fill="none" stroke="#470000" stroke-linecap="round" stroke-linejoin="round" stroke-opacity=".38" stroke-width=".5"/><path d="M26.05 6.55q6.15-3.45 8.4-3.15" fill="none" stroke="#541834" stroke-linecap="round" stroke-linejoin="round" stroke-width=".1"/><path d="m21.3 6.05.25.1.15-.05h-.15l-.15-.05-.05-.1q0-.2.15-.15l-.2.15v.1m.5 0 .1-.15.05-.25q-.1-.3-.6-.2-.75.3-.35 1.05l.15.15.95-.05 1.05-.15.4.2.1.1-.05-.15-.1-.1-.4-.15-.95.1-.1.05-.8.05-.15-.15q-.3-.6.3-.85.4-.1.5.15v.2l-.1.15-.1.05m1.05.65.15-.1q.4-.05.4.35l-.15.05h-.1q-.5.15-.3-.3m-6.85-1.4-.1-.15h-.05v-.25q.05-.3.55-.2.75.3.4 1.05l-.2.15-.95-.05-1-.15-.45.2-.1.1.1-.15.1-.1q.15-.15.4-.15l.9.1.1.05.85.05.1-.15q.3-.6-.3-.85-.4-.1-.45.15v.2l.1.15.05.05h.15l.2-.05v-.1l-.1-.15.2.15-.05.1-.25.1-.15-.05m-1.2.55q-.4-.05-.4.35l.2.05h.1q.45.15.3-.3l-.2-.1m-3 2.5-.2-.3q-.15-.5.6-.8 1.3-.25 1.45 1.1l-.05.4q-.35.75-1.4.8l-.25.05q-.95.1-1.65.85-.35.3-.45.75v.3m.05-.05q.1-.45.45-.75.75-.85 1.9-.9 1.15.05 1.6-1l.1-.45q-.2-1.6-1.8-1.35-.9.4-.7 1l.35.4m0-.05.35.15h.15l.3-.15.2-.3-.05-.2-.4-.1q.25-.3.5 0l.05.2-.3.45-.3.1m-.15 0-.35-.1m-1.9 3.05-.05.35.25.65m-.25-.65v-.3m1.85.75q.55-.9-.35-1.55l-.4.05q-.7.4-.3 1.05l.5-.4m3.85 6.2q-.45-.95-1.45-.5l-.2.35q0 .8.7.8.25-.3-.05-.65m-1.8-2.55.05-.25-.15-.35-.2-.05q-.3-.05-.3.2-.1-.4.3-.35l.2.05.2.45-.1.3-.15.25-.2.15-.55.1q-.6-.2-.4-1.15.65-1.5 2.1-.75l.3.3q.65.95-.05 1.9-.55.95-.3 2.1l.4.8.3.2.65.15m-.95-.35-.2-.15q-.35-.35-.4-.75-.25-1 .2-1.9l.1-.2q.55-.95.1-1.65l-.3-.2q-1.2-.65-1.75.6-.15.8.35.95h.4l.2-.15m5.6 4.25h-.05l-.1-.2.1.2m.05 0v.45q-.25.4-1 .2-1.1-.7-.35-1.75.1-.15.3-.2.8-.45 1.5.25.7.5 1.6.45l.7-.2.2-.25.2-.45m-.4.7-.15.15-.65.2q-.8.05-1.45-.35l-.15-.1q-.7-.55-1.3-.25l-.2.2q-.65.85.3 1.45.6.15.75-.2l.05-.3m-.1-.2-.15-.15-.2-.05-.3.1-.05.15q-.05.2.15.25l-.3-.25.1-.15.4-.1.2.05m-3.7-.25-.3-.15v-.05m6.25-1.9q-.7.7-.5 1.55l.3.2q.6.1.7-.45l-.5-.05m1 .4-.15.25h-.05" fill="none" stroke="#fc9d01" stroke-linecap="round" stroke-linejoin="round" stroke-width=".1"/><path d="m12.8 5.75-.35-.4 1.15-.95 2.85-1.3M11.8 5.9l1-.15.75.8-1.75-.65-1.55 1.3-1.4 5.35.2.45m0 .05V13" fill="none" stroke="#000" stroke-linecap="round" stroke-linejoin="round" stroke-width=".05"/><path d="m21.85 22.4-.8.5-1.2.7h-.05l-2.4-2 5.4-3.35-.1-3.8v-.05.05l2.5 2.05.1 3.75-3.45 2.15M17.4 2.7l1.1-.55 4.4 1.4.05.1 2.45 1.9 3.25 5.9m0 .05L27 15.6l-2.65-1.5.05-.05h-.15l.4-2.9-2.1-1.9-5.45 1.2h-.05l-.55 1.85-.6.15.35.6-.45 1.5-.05.1 1.9 2.7 1.9-.4 2.1-.45 1.05-2.05m-.15-5.2-2.3-2.05-5.55 1.25 2.4 2m8.4-2.4h.05l.7-.2-1.05-.3.05.05-1.05 1.75 1.3-1.3h.05m-.05 0 .9 1.55v.05l2.25 1.85m-5.7-7.85 2.25 3.9m-15.95 6.1 1.4 3.6.1.35.75 1.9.05.05 2.55.9 1.1-1.75-.35 2.05 2.5.85h.05M14.7 8.45h-.15L13.3 12.5l2.5 2.05m-2.5-2.05-.05.15 3.4 4.9 1-.2m-6.1 2.2h-.05v-.05m3.6 2.15-1-1.2m.75.3-.05-.05.3.95.1.3 4.6 1.65m-4.6-1.65-1.2-.4-2.45-2m12.85-5.5h.05m.75-1-.8 1m-8.5-1.6-.65-.95 1.25.8m9.9-2.65-1.2 3.4" fill="none" stroke="#000" stroke-linecap="round" stroke-linejoin="round" stroke-opacity=".6" stroke-width=".05"/></g></defs></svg>