<svg viewBox="0 0 43.232 42.2" xmlns="http://www.w3.org/2000/svg" xmlns:xlink="http://www.w3.org/1999/xlink"><use transform="translate(.03 .025)" width="43.2" height="42.45" xlink:href="#a"/><defs><g id="a"><path d="m3.45 26 .05-.6q.35-2.3 1.8-2.45 1.05-.1 2 .65 1.1.85 1.4.9l2.8.8q1.35.15 2.85-1.05l2-2.5q.85-1.3 2-1.75 3.3-2.1 8.05-1.15 3.95 1.35 3.3 3.8-2.6 3.4-1.5 5.3l1.6 1.95q.85 1 .95 2.1l-.05.65q-.95 1.9-1.75 1.9l-3.55-.25q-1.8.15-3.1 1.6-1.1.6-1 1.6l2 2.8.3.65.15.3q.75 1.7.65 3.25-.1 1.75-.75 2.6l-4.55.5q-3.25-.2-5.95-2.1l-2.7-2.55-.3-.55v.7l-.05.3-1.7 2.3-2.2.05-2.4-2.6-1.45-3.45-.15-1.95v-.05l.3-1.15q.35-1.35 1.15-2.05 2.6-.7 2.75-2l-.1-.7-.15-.3.1-1-.95-1L3.45 26m23.2-5.05q-1.6-1.7-4.3-1.65-2.15.15-3.6 1.75 4.25-1.7 7.9-.1m-7.9 3.4-.2-1.15-.65.6.2.65h.05l.6-.1M8.55 34.9l-.7 1.65 1.05.95v.4l2.25.45 1.6 1.05.9-1 2.65-1.55 2-.2.45-1.6 1.65-1.3.4-1.45 1-.85-1.35-3.75.25-.75-1.75-.8-1.25.5-2.15-.1q-2.4.25-4.25 1.7-1.35 1.1-2 2.35-.55 1-.65 2.05l-.1 1.75v.5m5.3-7.3q2.6-.75 4.55.5-3.7.15-7.6 2.05 1.05-1.9 3.05-2.55M9.2 29.15v-.1l-.35-.15-.05.05-.45.75.75.15.1-.7m6.5 9.35 1.8-1-.2-.75-1.75.9.15.85m-4.65.75-.35.65.95.3.2-.85-.75-.2-.05.1M23.2 26.3h-.05l-1.15.35-.15.8 1.05.95.65-1.25-.35-.85" fill="#fefbed" fill-rule="evenodd" transform="translate(-2.1 -5.7)"/><path d="m17.7 26.65 1.4.45.85.95.15.25.05.1.15.7.05.7-1.05.7.4.7-.85 1.85-.05.1-.75-.05-.25 1.35-3.5 2.15-2.3.15-1.05-1.05q1.1.6 2.6.6 2.35-.35 3.75-1.85l.75-1.9-2.5 1.65q-1.75.95-3.5 1.2l-1.35.1.1.05-.7.7-1.55-1.55v-.3l.1-1.75q.1-1.05.65-2.05.65-1.25 2-2.35 1.85-1.45 4.25-1.7l2.15.1m-3.85.95q-2 .65-3.05 2.55 3.9-1.9 7.6-2.05-1.95-1.25-4.55-.5" fill="#fbf36a" fill-rule="evenodd" transform="translate(-2.1 -5.7)"/><path d="m18.75 24.35-.6.1h-.05l-.2-.65.65-.6.2 1.15m1.6 5.45q.1 2.05-1.25 3.95-2.05 2.55-4.7 3.85-1.75.4-3.45 0-1.25-.2-2.15-1.55l-.1-.35-.05-.1-.1-.7v-.2l1.55 1.55.7-.7-.1-.05 1.35-.1q1.75-.25 3.5-1.2l2.5-1.65-.75 1.9q-1.4 1.5-3.75 1.85-1.5 0-2.6-.6L12 36.75l2.3-.15 3.5-2.15.25-1.35.75.05.05-.1.85-1.85-.4-.7 1.05-.7M9.2 29.15l-.1.7-.75-.15.45-.75.05-.05.35.15v.1m1.85 10.1.05-.1.75.2-.2.85-.95-.3.35-.65m4.65-.75-.15-.85 1.75-.9.2.75-1.8 1m7.5-12.2.35.85-.65 1.25-1.05-.95.15-.8 1.15-.35h.05" fill="#f8ce6d" fill-rule="evenodd" transform="translate(-2.1 -5.7)"/><path d="M30.7 32.65q-.25 2.4-1.9 2.6-2.6-.95-4.45-.05-2.75 1.35-2 3.1l.95 2-2-2.8q-.1-1 1-1.6 1.3-1.45 3.1-1.6l3.55.25q.8 0 1.75-1.9M23.65 47.1l-1.05.75-5.9-.3q-4.05-1.05-5.35-2.95l-.9-1.65 2.7 2.55q2.7 1.9 5.95 2.1l4.55-.5M10.1 43.4q-.25 1.5-1.35 3l-2.65.05q-2.25-.8-3.65-5.25-.4-.95-.35-2.15l.1-1.3.15 1.95-.25-.65.25.65 1.45 3.45 2.4 2.6 2.2-.05 1.7-2.3M6.15 31.5 4.8 29.4q-1.15-1.35-1.4-2.7l.05-.7 1.85 3.5.95 1-.1 1m11.55-4.85 1.25-.5 1.75.8-.25.75 1.35 3.75-1 .85-.4 1.45-1.65 1.3-.45 1.6-2 .2-2.65 1.55-.9 1-1.6-1.05-2.25-.45v-.4l-1.05-.95.7-1.65.1.7.05.1.1.35q.9 1.35 2.15 1.55 1.7.4 3.45 0 2.65-1.3 4.7-3.85 1.35-1.9 1.25-3.95l-.05-.7-.15-.7-.05-.1-.15-.25-.85-.95-1.4-.45" fill="#997520" fill-rule="evenodd" transform="translate(-2.1 -5.7)"/><path d="M26.65 20.95q-3.65-1.6-7.9.1 1.45-1.6 3.6-1.75 2.7-.05 4.3 1.65" fill="#fff" fill-rule="evenodd" transform="translate(-2.1 -5.7)"/><path d="m1.35 20.3.05-.6q.35-2.3 1.8-2.45 1.05-.1 2 .65 1.1.85 1.4.9l2.8.8q1.35.15 2.85-1.05l2-2.5q.85-1.3 2-1.75 3.3-2.1 8.05-1.15 3.95 1.35 3.3 3.8-2.6 3.4-1.5 5.3l1.6 1.95q.85 1 .95 2.1l-.05.65q-.25 2.4-1.9 2.6-2.6-.95-4.45-.05-2.75 1.35-2 3.1l.95 2 .3.65.15.3q.75 1.7.65 3.25-.1 1.75-.75 2.6l-1.05.75-5.9-.3q-4.05-1.05-5.35-2.95l-.9-1.65-.3-.25v.4l-.05.3q-.25 1.5-1.35 3L4 40.75q-2.25-.8-3.65-5.25-.4-.95-.35-2.15l.1-1.3V32l.3-1.15q.35-1.35 1.15-2.05 2.6-.7 2.75-2l-.25-1-1.35-2.1Q1.55 22.35 1.3 21l.05-.7 1.85 3.5.95 1-.1 1 .15.3.1.7M.25 34 .1 32.05M.25 34 0 33.35m4.1 6.7-2.4-2.6L.25 34m8.1 3.25-.3-.55v.3m.3.25 2.7 2.55q2.7 1.9 5.95 2.1m11.6-14.95q-.95 1.9-1.75 1.9l-3.55-.25q-1.8.15-3.1 1.6-1.1.6-1 1.6l2 2.8" fill="none" stroke="#b2b2b2" stroke-linecap="round" stroke-linejoin="round" stroke-opacity=".502" stroke-width=".05"/><path d="m15.6 20.95 1.4.45.85.95m.2.35.15.7.05.7q.1 2.05-1.25 3.95-2.05 2.55-4.7 3.85-1.75.4-3.45 0-1.25-.2-2.15-1.55L6.6 30m-.05-.1-.1-.7V29m0-.3.1-1.75q.1-1.05.65-2.05.65-1.25 2-2.35 1.85-1.45 4.25-1.7l2.15.1M6.55 29.9l.05.1" fill="none" stroke="#000" stroke-linecap="round" stroke-linejoin="round" stroke-opacity=".302" stroke-width=".05"/><path d="m42.6 23.35-1.25-1.15q-2.25-1.55-5.05-1.5-2.25 0-4.1-1.1-.75-.45-1-1.2l-.05-.8q.5-2.35 6.15-4.25 1.05-.5 1.55-1.55l.15-.6q-.2-2.4-2.55-3.5-2.55-1.25-5.35-1.35-2.75-.15-5 1.35-1.3.8-2.25 2.05-1.6 1.95-2.5 4.3l-.5 1.15-.55.95-.8.6q-2.05 1.05-4.4 1.1l-5.35.6q-.5.1-.9.4-1.05.7-.85 1.95l.2.8q.5 2.25 1.45 3.1l-.9-.2-.5-.95-.7-1.95-.05-.05q-.25-.95-.15-1.85.15-.95 1.5-1.75T13 17.2q2.95.3 5.65-.9 1.2-.55 1.8-1.8l.8-1.85q.95-2.2 2.35-4.05.55-.8 1.35-1.25 2.4-1.4 5.3-1.65 2.65-.15 5.2.6 2.7.85 4.35 3.2.9 1.25.5 2.7-.35 1.15-1.35 1.7-1.1.55-2.35.9-2.3.55-4.15 2-.35.2-.5.65-.2.4-.05.85.2.95 1.05 1.3l3.5.6q2.95-.1 5.6 1.1 1.15.5 1.9 1.45 1.4 1.95 1.35 4.3-.1 2.6-1.2 4.95-1.25 2.55-3.45 4.35-2 1.65-4.4 2.55-2.5 1-5.15.8l-3.2-.35-.8-.2-.3-.05q-1.3.45-4.65-1.35-.2-.95.6-1.55 2.55 1.9 4.8 1.95l.7.2 5.25.45q2.65-.45 4.15-1.25l3.2-2.4q1.7-1.55 3.05-4.15.6-1.15.6-2.5 0-2.95-1.9-5.15" fill="#6c260d" fill-rule="evenodd" transform="translate(-2.1 -5.7)"/></g></defs></svg>