<svg viewBox="0 0 417.79 228.18" xmlns="http://www.w3.org/2000/svg" xmlns:xlink="http://www.w3.org/1999/xlink"><use width="417.8" height="228.15" xlink:href="#a"/><defs><g id="a"><path d="M-38.7 206.35q-27.65-6.3-27.65-15.2t27.65-15.2q27.6-6.3 66.65-6.3 39.1 0 66.7 6.3t27.6 15.2-27.6 15.2q-27.65 6.3-66.7 6.3-39 0-66.65-6.3" fill="#bbc0b7" fill-rule="evenodd" transform="translate(66.35 11.4)"/><path d="m282.7 136.75-1.4 2.8q5.8 4.8 13.25 6.4 4.5 1 14.75 2 10.5 1.4 13.35 2.1 9.9 2.5 9.6 6.9-18.7-1.5-30.9-4.15-23.1-5.1-23.45-16.65 1.65.65 4.8.6" fill="#e2e2e2" fill-rule="evenodd" transform="translate(66.35 11.4)"/><path d="m193.2 189.9 1.5-4.2-.85 8.1q-.5 3.7 2.75 5.4 4 2.05 11.65 3.35l11.95 1.85q13.15 2.6 29.7 3.35 8.45.35 30 .35l23.25-1.65 22.9-3.25 8.75-.35q5.1-.25 8.05-2.45 2-1.5 3.3-6.05 1.3-4.65 3.4-6.35.5 23.35-18.9 27.65-6.6 1.5-17.95 1l-18.15-.85-44.1-1.4-37.05-1.45-12.75-1.15q-8.4-1.35-11.05-4.95-3.15-4.3-.5-12.6 3.6-8.85 4.1-11.8v7.45" fill="#c6c6c6" fill-rule="evenodd" transform="translate(66.35 11.4)"/><path d="M223.3 37.1q-.95 6.75-6.7 11.75-5.3-6-11.05-10.3-6.05-4.55-18.3-7.85-.65-6.8 3.9-11.05 4.2-3.85 12.15-3.45 8.65.45 14.4 6.2 6.75 6.7 5.6 14.7m13.3-8.45q-1.6-7.65-8.3-13.5-7.3-6.4-19.45-9.4t-21.75 5.5q-4.1 3.65-6.25 8.4-2.15 4.8-1.7 9.3-18.95-3.2-30.35 2.5l2.65 3.1Q131.05 33.5 112 41.2 92.3 49.15 77.8 65 65 78.9 58.6 96.45 52.45 113.4 53 131.4q.6 18 7.9 34.2 7.5 16.8 21.15 29.3t31 18.5q16.8 5.85 34.75 4.85 17.95-.95 34.3-8.6 16.95-7.85 29.7-21.8 21.2-23.1 24.35-54 3.05-30.35-12.4-56.05l4.45.45q3-8.95-5.95-22.2l1.6-.95q7.5-4.9 10.95-12.1 3.35-7.1 1.8-14.35" fill="none" stroke="#a19f85" stroke-linecap="round" stroke-linejoin="round" stroke-width="7"/><path d="M164.6 145q-6.4 17.5-19.15 31.45t-29.7 21.8q-16.35 7.65-34.3 8.6-17.95 1-34.75-4.85-17.35-6-31-18.5t-21.15-29.3q-7.3-16.2-7.9-34.2-.55-18 5.6-34.95 6.4-17.55 19.2-31.45 12.75-13.9 29.7-21.8 16.35-7.65 34.3-8.6 17.95-1 34.75 4.85 17.35 6 31 18.5t21.15 29.3q7.3 16.2 7.85 34.2.6 18-5.6 34.95" fill="#f3f3f3" fill-rule="evenodd" transform="translate(66.35 11.4)"/><path d="M164.95 102q.8 15.7-4.4 30.4-5.3 15.25-16.3 27.2-10.95 12-25.65 18.6-14.2 6.45-29.9 7-15.7.6-30.5-4.7-15.3-5.55-27.4-16.65T11.9 138q-6.6-14.3-7.35-29.95-.8-15.7 4.35-30.4 5.35-15.25 16.3-27.2 11-11.95 25.7-18.6 14.15-6.4 29.9-7 15.7-.55 30.45 4.75 15.3 5.5 27.4 16.6t18.95 25.85q6.6 14.25 7.35 29.95" fill="#fff" fill-rule="evenodd" transform="translate(66.35 11.4)"/><path d="M136.9 54.55q19.6 17.95 20.9 44.35 1.3 26.35-16.45 45.7T97.2 164.95q-26.35 1-45.95-16.95t-20.9-44.35q-1.3-26.35 16.45-45.7T90.95 37.6q26.35-1 45.95 16.95" fill="#9cc545" fill-rule="evenodd" transform="translate(66.35 11.4)"/><path d="M94.2 41.4q28.05 1.1 47.6 32.85-13.9-7.95-28.4-9.95-15.5-2.15-29.05 3-31.8 11.95-44.1 58.6-8.35-21.6-1.8-44.15 5.9-20.15 18.9-28.95 18-12.15 36.85-11.4" fill="#6aac46" fill-rule="evenodd" transform="translate(66.35 11.4)"/><path d="M119.75 89.2q-5.5 21.15-18.15 34.95-5.45 6-15.15 12.35-11.7 7.65-22.65 10.75l5.35-22.75q2.3-9.6 4.45-15.7 7.65-21.35 17.1-34.15 12.25-16.6 31.7-25.95.6 8.55-.05 20.35-.75 13-2.6 20.15" fill-rule="evenodd" transform="translate(66.35 11.4)"/><path d="M124.3 58.05q11.1 0 18.95 7.65t7.85 18.45-7.85 18.45q-7.85 7.6-18.95 7.6t-18.95-7.6q-7.85-7.65-7.85-18.45t7.85-18.45 18.95-7.65M41.3 97.1q0-3.5 2.6-5.95 2.55-2.5 6.2-2.5t6.25 2.5q2.6 2.45 2.6 5.95t-2.6 5.95q-2.55 2.45-6.25 2.45-3.65 0-6.2-2.45-2.6-2.45-2.6-5.95M45.2 124.95q0-5.75 4.05-9.8t9.8-4.05 9.8 4.05 4.05 9.8-4.05 9.8-9.8 4.05-9.8-4.05-4.05-9.8" fill="#fff" fill-rule="evenodd" transform="translate(66.35 11.4)"/><path d="M156.35 45.4q8.4 12.75 5.5 21.45-20.7-.95-47.65-19.15-21.5-14.5-31.75-27.65 11.65-5.8 31.15-2.35 17.05 3.05 25.6 9.45 10.2 7.7 17.15 18.25" fill="#ffde44" fill-rule="evenodd" transform="translate(66.35 11.4)"/><path d="M151.35 11q-5.75-5.75-14.4-6.2-7.95-.4-12.15 3.45-6.05 5.6-2.65 16.95 1.15 4 .85 4.25-.6.55-5.3-3.1-4.95-3.8-5-10.2-.05-6 4-11.8 4.2-5.95 10.7-8.8 7.3-3.15 15.1-1.2 12.15 3 19.45 9.4 6.7 5.85 8.3 13.5 1.55 7.25-1.8 14.35-3.45 7.2-10.95 12.1-6.15 4.05-8.55.4-.95-1.4-.7-3.3t1.55-3q6-4.9 7.1-11.8 1.3-8.15-5.55-15" fill="#ffde44" fill-rule="evenodd" transform="translate(66.35 11.4)"/><path d="M86.05 20.95q3.35-1.85 10.15-2.6 7.45-.85 9.95 1.1 1.7 1.3 5.35 8.4 7.05 9.85 6.25 12.5-1.35 4.9-8.65 1.15-4.3-2.2-9.3-6.55l-6.35-6.75q-3.8-4.2-7-6.05l-.4-1.2M126.4.75q4.35-3.85 9.25-4.35 8.15-.9 10.9 1.2 1.85 1.35 1.7 3.3-.15 1.85-2 2.65l-6.55.3q-5.15-.45-6.95 0-4.55 1.15-8.7 4.85-4.6 4.2-4.8 8.65l-3.1.05-1.6-.4q.2-4.9 4.1-9.25l7.75-7M155.35 34.05l1.2-.8 5.9 1.25q-2.9 5.4-7.1 8.7-2.45-1.65-1.85-4.4l1.85-4.75M160.55 62.95q-1.55 3.25-11.45.45-9.5-2.7-11.55-5.6l.4-.8q5.4.25 15.85-.4 2.35.1 4.9 1.85 3 2.05 1.85 4.5" fill-opacity=".188" fill-rule="evenodd" transform="translate(66.35 11.4)"/><path d="M168.05 19q0 3.6-1.1 6.15t-2.65 2.55-2.7-2.55q-1.1-2.55-1.1-6.15 0-3.65 1.1-6.2 1.15-2.55 2.7-2.55t2.65 2.55q1.1 2.6 1.1 6.2M154.1 53.55q-2.1 2.3-7.55.3t-11.1-7.15-8.15-10.4-.4-7.55 7.55-.3q5.5 2 11.15 7.15 5.6 5.15 8.1 10.4t.4 7.55" fill="#fff99a" fill-rule="evenodd" transform="translate(66.35 11.4)"/><path d="m96.4 39.6 17.35 5.35 6.7-16.9 6.65 16.9 17.35-5.35-9.05 15.75 15 10.25-17.95 2.75 1.35 18.1-13.35-12.3-13.35 12.3 1.3-18.1-17.9-2.75 14.95-10.25L96.4 39.6" fill="#fff" fill-rule="evenodd" transform="translate(66.35 11.4)"/><path d="m116.9 62.9-47.65-2.95 47.65-3 2.95-47.65 3 47.65 47.65 3-47.65 2.95-3 47.7-2.95-47.7" fill="#fff" fill-rule="evenodd" transform="translate(66.35 11.4)"/><path d="M113.4 52.3q2.75-2.6 6.65-2.6t6.65 2.6 2.75 6.3-2.75 6.3-6.65 2.6-6.65-2.6-2.75-6.3 2.75-6.3M183.85 3.65l-7.4 8 7.4 8-10.85-.8-1.65 10.75-6.15-9-9.45 5.4 3.2-10.4-10.1-4 10.1-4-3.15-10.4 9.4 5.45 6.2-9 1.6 10.8 10.85-.8" fill="#fff" fill-rule="evenodd" transform="translate(66.35 11.4)"/><path d="m167.15 14.9-23.5 16.4 21.25-19.2-16.35-23.5L167.7 9.9l23.5-16.4-21.25 19.2 16.35 23.45-19.15-21.25" fill="#fff" fill-rule="evenodd" transform="translate(66.35 11.4)"/><path d="M171.45 8.15q1.35 1.75 1.05 4-.35 2.3-2.15 3.7-1.85 1.45-4.1 1.25-2.3-.15-3.65-1.9-1.4-1.7-1.05-4 .3-2.25 2.15-3.7 1.8-1.45 4.1-1.25 2.25.2 3.65 1.9" fill="#fff" fill-rule="evenodd" transform="translate(66.35 11.4)"/><path d="M161.05 56.05q-3.85-3.9-7.15-9.9-4.25-7.75-3.7-13.25.45-4.5 4.05-6.85l2.2 3.35q-2.05 1.35-2.25 3.9-.45 4.3 3.25 11 3 5.45 6.45 8.95 4 4 13.8 9.85 5.5 3.3 7.95 5.05 9.25 6.45 15.6 15.6 6.3 9.15 8.3 18.95 2.8 13.5.05 32.25-1.6 10.85-6.75 31.35-.55 2.15-2.9 8.05-7.65 19.05-4.85 23.55 1.8 2.95 18.6 5.4l2.65.4 8.7.7 2.15.05 20.95 1 32.25 1.25h3.75l32.2-1.4q21.15-2.95 27.95-11.9 5.05-6.7 2-16.9-2.05-7.2-8.55-13.55-6.55-6.35-14.45-8.95-4.15-1.35-14.45-2.25-11.55-1-16.85-2.9-9-3.2-12.85-11.25-2.75-5.9-4.5-19.1l-1.4-9.1q-4.15-19.8-15.75-37.15-5.45-8.15-13.45-14.45-4.85-3.9-16.45-11.05l-3.75-2.3q-3.55-2.2-10.6-7.6-9.3-7.05-14.15-9.55-5.85-2.95-13.5-3.35-7.7-.4-13.3 2.05l-1.6-3.65q13-5.65 27.8 1.95 5.25 2.65 14.75 9.9 6.3 4.9 10.3 7.35l3.7 2.3 18.1 11.1q10 6.85 15.5 15.1 12.05 18.05 16.3 38.55l1.5 9.35q1.6 12.55 4.15 17.9 3.2 6.7 10.8 9.35 4.6 1.6 15.6 2.55 10.75.95 15.3 2.45 8.95 2.95 16.15 9.95 7.15 7.05 9.5 15.25 3.55 12.2-2.65 20.4-7.65 10.05-29.8 13.3-12.4 1.85-33.6 1.6h-3.7l-32.5-1.25-20.85-1-2.1-.05-9.25-.75-2.6-.4q-18.6-2.65-21.4-7.25-2.45-4 .2-13.35 1.15-4.1 5.85-15.75l2.75-7.6q4.45-17.75 5.85-29.6 2-17-.7-30.2-1.85-9-7.75-17.55-5.9-8.5-14.5-14.55-2.35-1.65-7.75-4.85-10.3-6.15-14.6-10.5" fill="#9b8428" fill-rule="evenodd" transform="translate(66.35 11.4)"/></g></defs></svg>