<svg viewBox="0 0 20.989 26.875" xmlns="http://www.w3.org/2000/svg" xmlns:xlink="http://www.w3.org/1999/xlink"><g transform="translate(-264.5 -187.05)"><use transform="translate(264.45 187.05)" width="21.05" height="26.05" xlink:href="#a"/><use transform="matrix(.0487 -.5666 -.5666 -.0487 281.5 201.19)" width="2.1" height="9.9" xlink:href="#b"/><use transform="matrix(-.0718 -.3912 -.3912 .0718 279.94 199.44)" width="2.1" height="9.9" xlink:href="#b"/><use transform="scale(.503 -.503) rotate(65.733 590.353 229.737)" width="2.1" height="9.9" xlink:href="#b"/><use transform="matrix(.0065 -.0845 -.1114 -.0086 281.7 200.88)" width="8.1" height="8.1" xlink:href="#c"/><use transform="matrix(.0051 -.067 -.0883 -.0068 280.66 200.98)" width="8.1" height="8.1" xlink:href="#c"/><use transform="matrix(.0045 -.058 -.0765 -.0059 280.11 200.42)" width="8.1" height="8.1" xlink:href="#c"/><use transform="matrix(-.0225 -.0605 -.0797 .0297 279.97 199.18)" width="8.1" height="8.1" xlink:href="#c"/><use transform="matrix(-.0178 -.0479 -.0632 .0235 279.41 199.55)" width="8.1" height="8.1" xlink:href="#c"/><use transform="matrix(-.0154 -.0415 -.0547 .0204 278.77 199.22)" width="8.1" height="8.1" xlink:href="#c"/><use transform="matrix(.0196 -.0587 -.0774 -.0258 280.16 202.2)" width="8.1" height="8.1" xlink:href="#c"/><use transform="matrix(.0155 -.0465 -.0613 -.0204 279.5 202.18)" width="8.1" height="8.1" xlink:href="#c"/><use transform="matrix(.0134 -.0403 -.0532 -.0177 279.27 201.52)" width="8.1" height="8.1" xlink:href="#c"/><use transform="matrix(.2203 -.5261 -.5261 -.2203 280 203.14)" width="2.1" height="9.9" xlink:href="#b"/><use transform="scale(.399 -.399) rotate(82.597 636.533 146.357)" width="2.1" height="9.9" xlink:href="#b"/><use transform="matrix(.338 -.3745 -.3745 -.338 278.35 204.12)" width="2.1" height="9.9" xlink:href="#b"/><use transform="matrix(.0321 -.0787 -.1038 -.0424 280.27 202.92)" width="8.1" height="8.1" xlink:href="#c"/><use transform="matrix(.0255 -.0624 -.0823 -.0336 279.23 202.74)" width="8.1" height="8.1" xlink:href="#c"/><use transform="matrix(.0221 -.0541 -.0713 -.0291 278.89 202.02)" width="8.1" height="8.1" xlink:href="#c"/><use transform="matrix(-.0029 -.0646 -.0852 .0039 279.15 200.78)" width="8.1" height="8.1" xlink:href="#c"/><use transform="matrix(-.0023 -.0512 -.0675 .0031 278.47 200.94)" width="8.1" height="8.1" xlink:href="#c"/><use transform="matrix(-.002 -.0444 -.0585 .0027 278.04 200.44)" width="8.1" height="8.1" xlink:href="#c"/><use transform="matrix(.0367 -.05 -.066 -.0484 278.37 203.7)" width="8.1" height="8.1" xlink:href="#c"/><use transform="matrix(.0291 -.0397 -.0523 -.0383 277.81 203.41)" width="8.1" height="8.1" xlink:href="#c"/><use transform="matrix(.0252 -.0344 -.0453 -.0332 277.73 202.73)" width="8.1" height="8.1" xlink:href="#c"/><use transform="translate(266.9 206)" width="5.35" height="7.9" xlink:href="#d"/><use transform="matrix(.6596 -.3458 -.3458 -.6596 276.76 207.37)" width="2.1" height="9.9" xlink:href="#b"/><use transform="scale(.521 -.521) rotate(42.985 764.57 480.36)" width="2.1" height="9.9" xlink:href="#b"/><use transform="matrix(.6518 -.0953 -.0953 -.6518 274.22 207.03)" width="2.1" height="9.9" xlink:href="#b"/><use transform="matrix(.0979 -.0524 -.0691 -.129 277.18 207.37)" width="8.1" height="8.1" xlink:href="#c"/><use transform="matrix(.0776 -.0416 -.0548 -.1023 276.32 206.26)" width="8.1" height="8.1" xlink:href="#c"/><use transform="matrix(.0672 -.036 -.0475 -.0886 276.59 205.31)" width="8.1" height="8.1" xlink:href="#c"/><use transform="matrix(.0509 -.0675 -.089 -.067 277.86 204.27)" width="8.1" height="8.1" xlink:href="#c"/><use transform="matrix(.0403 -.0535 -.0705 -.0531 277.04 203.87)" width="8.1" height="8.1" xlink:href="#c"/><use transform="matrix(.0349 -.0463 -.0611 -.046 277 202.99)" width="8.1" height="8.1" xlink:href="#c"/><use transform="matrix(.0786 -.0198 -.0261 -.1036 274.66 206.57)" width="8.1" height="8.1" xlink:href="#c"/><use transform="matrix(.0623 -.0157 -.0207 -.0821 274.28 205.83)" width="8.1" height="8.1" xlink:href="#c"/><use transform="matrix(.054 -.0136 -.0179 -.0711 274.72 205.09)" width="8.1" height="8.1" xlink:href="#c"/><use transform="rotate(-34.235 451.109 -336.238) scale(.5708)" width="2.1" height="9.9" xlink:href="#b"/><use transform="matrix(.3776 -.1294 .1294 .3776 269.61 196.03)" width="2.1" height="9.9" xlink:href="#b"/><use transform="rotate(-53.58 328.773 -165.359) scale(.5048)" width="2.1" height="9.9" xlink:href="#b"/><use transform="matrix(.0708 -.0472 .0623 .0933 267.5 195.22)" width="8.1" height="8.1" xlink:href="#c"/><use transform="matrix(.0561 -.0374 .0494 .074 267.85 196.2)" width="8.1" height="8.1" xlink:href="#c"/><use transform="matrix(.0486 -.0324 .0428 .0641 268.68 196.39)" width="8.1" height="8.1" xlink:href="#c"/><use transform="matrix(.064 -.01 .0132 .0843 269.8 195.86)" width="8.1" height="8.1" xlink:href="#c"/><use transform="matrix(.0507 -.0079 .0105 .0668 269.81 196.58)" width="8.1" height="8.1" xlink:href="#c"/><use transform="matrix(.0439 -.0069 .0091 .0579 270.31 196.97)" width="8.1" height="8.1" xlink:href="#c"/><use transform="matrix(.0417 -.046 .0606 .0551 267.15 197.28)" width="8.1" height="8.1" xlink:href="#c"/><use transform="matrix(.0331 -.0364 .048 .0436 267.46 197.77)" width="8.1" height="8.1" xlink:href="#c"/><use transform="matrix(.0287 -.0316 .0416 .0378 268.13 197.7)" width="8.1" height="8.1" xlink:href="#c"/><use transform="matrix(.1176 -.5595 .5595 .1176 265.53 199.47)" width="2.1" height="9.9" xlink:href="#b"/><use transform="rotate(-62.815 296.134 -119.958) scale(.3999)" width="2.1" height="9.9" xlink:href="#b"/><use transform="rotate(-97.478 221.478 -16.206) scale(.5056)" width="2.1" height="9.9" xlink:href="#b"/><use transform="matrix(.0183 -.0832 .1097 .0241 265.46 199.15)" width="8.1" height="8.1" xlink:href="#c"/><use transform="matrix(.0145 -.066 .087 .0191 266.45 199.57)" width="8.1" height="8.1" xlink:href="#c"/><use transform="matrix(.0126 -.0572 .0754 .0166 267.14 199.13)" width="8.1" height="8.1" xlink:href="#c"/><use transform="matrix(.0392 -.0517 .0681 .0517 267.62 197.99)" width="8.1" height="8.1" xlink:href="#c"/><use transform="matrix(.0311 -.0409 .054 .041 268.03 198.53)" width="8.1" height="8.1" xlink:href="#c"/><use transform="matrix(.0269 -.0355 .0468 .0355 268.76 198.41)" width="8.1" height="8.1" xlink:href="#c"/><use transform="matrix(-.0018 -.0622 .082 -.0023 266.62 200.86)" width="8.1" height="8.1" xlink:href="#c"/><use transform="matrix(-.0014 -.0493 .065 -.0019 267.24 201.01)" width="8.1" height="8.1" xlink:href="#c"/><use transform="matrix(-.0012 -.0427 .0563 -.0016 267.67 200.46)" width="8.1" height="8.1" xlink:href="#c"/><use transform="matrix(-.3474 -.6607 .6607 -.3474 266.43 204.62)" width="2.1" height="9.9" xlink:href="#b"/><use transform="rotate(-102.421 214.796 -6.639) scale(.5221)" width="2.1" height="9.9" xlink:href="#b"/><use transform="matrix(-.4835 -.4496 .4496 -.4835 268.77 205.79)" width="2.1" height="9.9" xlink:href="#b"/><use transform="matrix(-.0509 -.099 .1305 -.0671 266.12 204.42)" width="8.1" height="8.1" xlink:href="#c"/><use transform="matrix(-.0404 -.0784 .1034 -.0532 267.43 203.97)" width="8.1" height="8.1" xlink:href="#c"/><use transform="matrix(-.035 -.068 .0896 -.0461 267.79 203.04)" width="8.1" height="8.1" xlink:href="#c"/><use transform="matrix(-.0036 -.0846 .1115 -.0047 267.3 201.47)" width="8.1" height="8.1" xlink:href="#c"/><use transform="matrix(-.0028 -.0671 .0884 -.0037 268.19 201.62)" width="8.1" height="8.1" xlink:href="#c"/><use transform="matrix(-.0024 -.0581 .0766 -.0032 268.79 200.91)" width="8.1" height="8.1" xlink:href="#c"/><use transform="matrix(-.0535 -.0611 .0805 -.0706 268.62 205.19)" width="8.1" height="8.1" xlink:href="#c"/><use transform="matrix(-.0424 -.0484 .0638 -.056 269.39 204.78)" width="8.1" height="8.1" xlink:href="#c"/><use transform="matrix(-.0368 -.0419 .0553 -.0485 269.38 203.9)" width="8.1" height="8.1" xlink:href="#c"/><use transform="rotate(-143.055 169.198 59.984) scale(1.0678)" width="2.1" height="9.9" xlink:href="#b"/><use transform="matrix(-.4571 -.5906 .5906 -.4571 267.93 205.26)" width="2.1" height="9.9" xlink:href="#b"/><use transform="rotate(-162.401 152.304 83.82) scale(.9444)" width="2.1" height="9.9" xlink:href="#b"/><use transform="matrix(-.1264 -.0968 .1276 -.1666 267.83 209.52)" width="8.1" height="8.1" xlink:href="#c"/><use transform="matrix(-.1002 -.0768 .1012 -.132 269.29 208.18)" width="8.1" height="8.1" xlink:href="#c"/><use transform="matrix(-.0868 -.0665 .0877 -.1144 269.14 206.71)" width="8.1" height="8.1" xlink:href="#c"/><use transform="matrix(-.0564 -.1072 .1414 -.0743 267.53 205)" width="8.1" height="8.1" xlink:href="#c"/><use transform="matrix(-.0447 -.085 .112 -.0589 268.8 204.69)" width="8.1" height="8.1" xlink:href="#c"/><use transform="matrix(-.0387 -.0736 .0971 -.051 269.16 203.41)" width="8.1" height="8.1" xlink:href="#c"/><use transform="matrix(-.1066 -.0462 .0609 -.1405 271.55 208.97)" width="8.1" height="8.1" xlink:href="#c"/><use transform="matrix(-.0845 -.0366 .0483 -.1114 272.3 208.05)" width="8.1" height="8.1" xlink:href="#c"/><use transform="matrix(-.0732 -.0317 .0418 -.0965 271.78 206.84)" width="8.1" height="8.1" xlink:href="#c"/></g><defs><g id="a"><path d="m10.55 6.65-.25.15-.3-.15-.1-.35.1-.3v-.05q.15-.15.3-.15l.25.15.15.35-.15.35m-.25.15L10 6l.3.8" fill="#96c0cf" fill-rule="evenodd" transform="translate(-5.25 15.95)"/><path d="M3.3 26.05q-.35-1.7-.15-3.6m1.6-.5.3.8" fill="none" stroke="#fff" stroke-linecap="round" stroke-linejoin="round" stroke-width=".05"/><path d="M8 16.75q-.95-4.65-1.9-5.4T5.3 9.5q.5-3.75-2.7-5.8Q.4 2.3.1 1.6v-.3Q.5.8 1.8.6 8.75-.5 15.35.6h.05q4.15 1.25 5.25 2.95 1 1.65-.95 3.85-2.1 2.3-5.5 4.3l-2.15 1.2-2.55 1.85" fill="none" stroke="#28383e" stroke-linecap="round" stroke-linejoin="round" stroke-width=".1"/></g><g id="b" fill-rule="evenodd"><path d="M1.05-4.95q.45 0 .75 1.45L2.1 0l-.3 3.5q-.3 1.45-.75 1.45T.3 3.5 0 0t.3-3.5.75-1.45" fill="#ca8007" transform="translate(0 4.95)"/><path d="M1.6 3.75q-.2.9-.5.9t-.5-.9Q.45 2.8.45 1.5.45.15.6-.75q.2-.95.5-.95t.5.95l.2 2.25-.2 2.25" fill="#9c520a" transform="translate(0 4.95)"/></g><g id="d"><path d="m8.25 5.3-.2 1-.05.35-.15-.2q-.2-.25-.1-.55l.3-.5.2-.1" fill="#474132" fill-rule="evenodd" transform="translate(-7.7 -3)"/><path d="M8.75 3.55h.75l.5.05.4.3-.05 1.35-.3.1q-.35.25-.45.7t.15.8l.5.45v.4L10 9.25 8.55 10.8l-.25-.2Q7.85 8.1 8 6.65l.05-.35.2-1 .2-.8.3-.95" fill="#cdc098" fill-rule="evenodd" transform="translate(-7.7 -3)"/><path d="m10.45 3.15.65.2.45.2-.15.55-.35 1.2-.25-.1-.45.05.05-1.35-.4-.3-.5-.05h-.75V3.5h.05l.25-.4 1.4.05" fill="#eadbc4" fill-rule="evenodd" transform="translate(-7.7 -3)"/><path d="m11.05 5.3.35-1.2.15-.55.8 1.15q.7.7.55 1.25l-.15.35L10 9.25l.25-1.55v-.4l.1.05h.15l.65-.2.4-.65-.1-.85-.4-.35" fill="#83795c" fill-rule="evenodd" transform="translate(-7.7 -3)"/><path d="m10.35 5.25.45-.05.25.1.4.35.1.85-.4.65-.65.2h-.15l-.1-.05-.5-.45q-.25-.35-.15-.8t.45-.7l.3-.1" fill="#5997b6" fill-rule="evenodd" transform="translate(-7.7 -3)"/><path d="M2.75.15 1.35.1 1.1.5h-.05v.05l-.3.95-.2.8-.2 1-.05.35Q.15 5.1.6 7.6l.25.2m3-7.25L3.4.35M5.05 3.3l.15-.35q.15-.55-.55-1.25L3.85.55" fill="none" stroke="#69604b" stroke-linecap="round" stroke-linejoin="round" stroke-width=".25"/><path d="m3.4.35-.65-.2m-.1 2.1.45-.05.25.1m-.8 2 .1.05h.15l.65-.2.4-.65-.1-.85-.4-.35M2.3 6.25 5.05 3.3M.85 7.8 2.3 6.25m.35-4-.3.1q-.35.25-.45.7t.15.8l.5.45" fill="none" stroke="#4d4637" stroke-linecap="round" stroke-linejoin="round" stroke-width=".25"/></g><radialGradient id="e" cx="0" cy="0" r="819.2" gradientTransform="translate(4.05) scale(.0051)" gradientUnits="userSpaceOnUse"><stop stop-color="#cecece" offset="0"/><stop stop-color="#cecece" stop-opacity="0" offset="1"/></radialGradient><path d="M4.05-4.05q1.7 0 2.85 1.15Q8.1-1.7 8.1 0T6.9 2.85q-1.15 1.2-2.85 1.2t-2.9-1.2Q0 1.7 0 0t1.15-2.9q1.2-1.15 2.9-1.15" fill="url(#e)" fill-rule="evenodd" transform="translate(0 4.05)" id="c"/></defs></svg>