<svg viewBox="0 0 38.281 46.15" xmlns="http://www.w3.org/2000/svg" xmlns:xlink="http://www.w3.org/1999/xlink"><g transform="translate(-255.82 -182.9)"><use transform="translate(255.8 182.9)" width="38.3" height="34.2" xlink:href="#a"/><use transform="matrix(.7513 0 0 1.0625 262.44 223.95)" width="25.3" height="4.8" xlink:href="#b"/></g><defs><path d="M25.35 2.4q-.05 1-3.75 1.7l-8.9.7-8.95-.7Q0 3.4.05 2.4 0 1.4 3.75.7L12.7 0l8.9.7q3.7.7 3.75 1.7" fill-opacity=".6" fill-rule="evenodd" transform="translate(-.05)" id="c"/><use width="25.3" height="4.8" xlink:href="#c" id="b"/><g id="a"><path d="m273.15 208.25.05.05-.05-.05" fill="#fc0" fill-rule="evenodd" transform="translate(-255.8 -182.9)"/><path d="M269.85 211.75h.05l-.35.55.3-.55" fill="#f90" fill-rule="evenodd" transform="translate(-255.8 -182.9)"/><path d="m265.2 198.9.4.05.25-.2q2-1.6 4.5-2.05 5.1.75 5.55 3.45.4 2.7-.2 4.05l-1.9 2.7q-.55.6-.65 1.3v.05l.05.05.55 3.05q-1.8.5-3.45 0l-.05.05.85-3.05q-.1-1.3-1.7-2.25-1.4-.8-3.3-.9l-.65-.05h-.05q-1.9 0-3.35.65v-.1l.2-1.35.1-.3V204q-.6-.8-.6-1.85 0-1.35.95-2.3t2.3-.95h.2m13.55.05.65-.05q1.35 0 2.3.95t.95 2.3v.15l-.1.7-.15.55-1 .55q1.15-2.2-.65-4l-3.65-.25q.7-.7 1.65-.9m-11.9 1.35-1.05-.65-.6-.1h-.25q-1.05 0-1.75.75-.8.75-.75 1.85l.15 1 .6.85q1.65-2.1 3.65-3.7m-1.25-1.35.25.05q.8.2 1.45.85-.65-.65-1.45-.85l-.25-.05" fill="#e89a3a" fill-rule="evenodd" transform="translate(-255.8 -182.9)"/><path d="m265.1 211.95.05-.2q.4-1.25 1.95-2.2l.1-.1.6-.3q1.35-.65 3.05-.8l-1 3.4-.3.55.15-.3q-.25.35-.25.8l.05.3.75 1.45 2.7-.05.4 1.05-1.95.15q-.95.35-1.15 1.2l-1.15-.25-1-.4-1.7-.95-.55-.55 1.4-.1-1.4.1-.2-.25.95-.35-.95.35-.55-1.1 1.8-.35-1.8.35-.1-.75.1-.7h1.35-1.35m2.15 2.7 2.65 1.8.35-1.9h-1.3l-.35.05h-.4l-.55.05h-.4" fill="#b76d37" fill-rule="evenodd" transform="translate(-255.8 -182.9)"/><path d="m273.2 208.3.25.05.8 3.4q.4.45.45.95v.4l-.8.25-.05-.05q-.15-.15-.35-.15t-.35.15l-.05.05-.1.3v.05h-1.9v-.05l-.05-.2-.1-.15q-.15-.15-.35-.15t-.35.15l-.05.05-.7-.25-.05-.3q0-.45.25-.8l-.15.3.35-.55h-.05l1-3.4h.25l-.85 3.05.05-.05q1.65.5 3.45 0l-.55-3.05m1.9-2v-.05q1.55-.75 3.7-.7h.05l1.2.05.15.05q.65.65.65 1.6l-1.3-.35q0 .65-.5 1.15t-1.2.5-1.2-.5-.5-1.2l-1.35.25.3-.8m2.45 1.4.4.05q.8-.5-.1-.9-.75.2-.3.85m-13.5-2 .05-.05.1-.05 1.25-.05q2.15-.05 3.7.7l.1.1.25.75h-.05l-1.35-.25q0 .7-.5 1.2t-1.2.5-1.2-.5-.5-1.15l-1.2.35h-.05q-.05-.9.6-1.55m2.05 2 .4.05q.8-.5-.1-.9-.75.2-.3.85" fill="#711015" fill-rule="evenodd" transform="translate(-255.8 -182.9)"/><path d="M265.2 198.9q.15-5.35-4.55-8.35-4.15-2.7-4.7-4.05-.2-.45-.1-.75h.05l.15-.35q.8-1.1 3.4-1.5 12.35-2 24.2 0h.05q7.7 2.3 9.65 5.55 2.1 3.3-1.7 7.5-3.65 4-9.5 7.55l-.05-.15-.05-.25v-.05l.05-.05.25-.35-.25.35-.05.05v.05l.05.25.05.15.2 1.35.05.95q-.05 2.55-1.1 4.65l-.25.5h-1.8 1.8l-1.15 1.55-.65-.15.65.15-.5.55-.5.45-.25.25h-.15l.25-.3.15.05-.15-.05.5-1.1.05-.7v-.2l-.05-.5-.05-.2-.05-.1q-.45-1.2-1.9-2.1-1.05-.65-2.3-.95l-.8-.15-.7-.1-.25-.05-.05-.05v-.05q.1-.7.65-1.3l1.9-2.7q.6-1.35.2-4.05-.45-2.7-5.55-3.45l1.85-.15q3.75 0 6.55 2.4-.95.2-1.65.9l3.65.25q1.8 1.8.65 4l1-.55-.05.1.95-.65q4.75-3.05 7.85-6.45 3.45-3.8 1.65-6.75-1.9-3.05-9.25-5.25h-.05q-11.7-2-23.95 0-2.3.35-3 1.25l-.05.1.05.35q.55 1.25 4.45 3.75 4.95 3.2 4.85 8.75l-.25.2-.4-.05m15.65 8.35q0-.95-.65-1.6l-.15-.05-1.2-.05h-.05q-2.15-.05-3.7.7v.05q-1.4.7-1.5 1.65l.95.1.3.05.55.1 2 .7q1.25.6 1.8 1.2l.3.3q.4.7.4 1.45l1.15-1.5q.7-1.15.9-2.5l-1.1-.6M263.2 204l-.6-.85-.15-1q-.05-1.1.75-1.85.7-.75 1.75-.75h.25l.6.1 1.05.65q-2 1.6-3.65 3.7m-1.15 1.8q1.45-.65 3.35-.65h.05l.65.05q1.9.1 3.3.9 1.6.95 1.7 2.25h-.25q-1.7.15-3.05.8l-.6.3-.1.1q-1.55.95-1.95 2.2l-.05.2h-1.75 1.75l-.1.7.1.75-.65.1.65-.1.55 1.1.2.25h-.1l-.3-.2.2-.05-.2.05-.5-.5-.5-.55-1.1-1.55-.3-.5q-1.1-2.1-1.05-4.65l.05-1m7.2.55-.1-.1q-1.55-.75-3.7-.7l-1.25.05-.1.05-.05.05-1.75.4-.05.75q0 1.95 1 3.55l1.15 1.5q-.05-.75.4-1.45l.25-.3q.55-.6 1.85-1.2l1.95-.7.6-.1.25-.05.95-.1q-.05-.95-1.4-1.65" fill="#922900" fill-rule="evenodd" transform="translate(-255.8 -182.9)"/><path d="m280.85 207.25 1.1.6q-.2 1.35-.9 2.5l-1.15 1.5q0-.75-.4-1.45l-.3-.3 1-.8q.5-.65.6-1.75l.05-.3m-6 .85-.3-.05-.95-.1q.1-.95 1.5-1.65l-.3.8-.05.4.1.6m-10.8-2.4q-.65.65-.6 1.55h.05v.35q.1 1.1.6 1.75l.95.8-.25.3q-.45.7-.4 1.45l-1.15-1.5q-1-1.6-1-3.55l.05-.75 1.75-.4m5.4 1.4h.05l-.25-.75q1.35.7 1.4 1.65l-.95.1-.25.05.05-.6-.05-.45" fill="#e89738" fill-rule="evenodd" transform="translate(-255.8 -182.9)"/><path d="M273.8 214.55h1.3l.3.05h.4l.6.05h.35l-2.6 1.8-.35-1.9m-3.55 0-.35 1.9-2.65-1.8h.4l.55-.05h.4l.35-.05h1.3" fill="#fff3c3" fill-rule="evenodd" transform="translate(-255.8 -182.9)"/><path d="M279.2 210.1q-.55-.6-1.8-1.2l-2-.7-.55-.1-.1-.6.05-.4 1.35-.25q0 .7.5 1.2t1.2.5 1.2-.5.5-1.15l1.3.35-.05.3q-.1 1.1-.6 1.75l-1 .8m-1.65-2.4q-.45-.65.3-.85.9.4.1.9l-.4-.05m-14.05-.45 1.2-.35q0 .65.5 1.15t1.2.5 1.2-.5.5-1.2l1.35.25.05.45-.05.6-.6.1-1.95.7q-1.3.6-1.85 1.2l-.95-.8q-.5-.65-.6-1.75v-.35m2.6.45q-.45-.65.3-.85.9.4.1.9l-.4-.05" fill="#fafcf6" fill-rule="evenodd" transform="translate(-255.8 -182.9)"/><path d="m273.45 208.35.7.1.8.15q1.25.3 2.3.95 1.45.9 1.9 2.1l.05.1.05.2.05.5v.2l-.05.7-.5 1.1-.25.3-1.75-.1-.6-.05-1.05-.05 1.05.05.6.05 1.75.1-.85.75-.4.25-.1.1-1.3.6-.85.3-1.15.2-1.55.1h-.8l-1.25-.15q.2-.85 1.15-1.2l1.95-.15-.4-1.05-2.7.05-.75-1.45.7.25.05-.05q.15-.15.35-.15t.35.15l.1.15.05.2v.05h1.9v-.05l.1-.3.05-.05q.15-.15.35-.15t.35.15l.05.05.8-.25v-.4q-.05-.5-.45-.95l-.8-3.4m.35 6.2-.85-.05.85.05.35 1.9 2.6-1.8h-.35l-.6-.05h-.4l-.3-.05h-1.3m3.95-.4 1 .3-1-.3m-.3-1.1 1.8.3-1.8-.3m1.8-1.1h-1.35 1.35" fill="#855129" fill-rule="evenodd" transform="translate(-255.8 -182.9)"/><path d="m26.35 21.6.2 1.35.05.95q-.05 2.55-1.1 4.65l-.25.5-1.15 1.55-.5.55-.5.45m-8.55-17.8 1.85-.15q3.75 0 6.55 2.4l.65-.05q1.35 0 2.3.95t.95 2.3v.15l-.1.7-.15.55-.05.1m-5.25-3.8q.7-.7 1.65-.9m-11.45.9q-.65-.65-1.45-.85l-.25-.05M6.25 22.9v-.1l.2-1.35.1-.3v-.05q-.6-.8-.6-1.85 0-1.35.95-2.3T9.2 16h.2m-3.15 6.9q1.45-.65 3.35-.65h.05l.65.05q1.9.1 3.3.9 1.6.95 1.7 2.25m-.25 0h.25m-1.25 3.4-.3.55m.7 2.25h-1.3l-.35.05h-.4l-.55.05h-.4m-1.4.1.55.55 1.7.95 1 .4 1.15.25 1.25.15h.8l1.55-.1 1.15-.2.85-.3 1.3-.6.1-.1.4-.25.85-.75h.15l.25-.25M7.55 29.05l1.1 1.55m1 1.05-.5-.5-.5-.55m1 1.05.3.2h.1m2.25 1.5-.5-.2-.35-.2-.15-.1-.7-.45-.05-.05-.2-.15-.4-.35.05.05.35.3m4.1 1.8.45.1.8.05m-2.4-.4.45.15.7.1m.45.1-1.15-.2m9.1-2.05-.1.1-.9.65m-14.3-3.55-.3-.5q-1.1-2.1-1.05-4.65l.05-1m3.8-7.05q2-1.6 4.5-2.05" fill="none" stroke="#630" stroke-linecap="round" stroke-linejoin="round" stroke-width=".1"/><path d="M11.05 17.4 10 16.75l-.6-.1h-.25q-1.05 0-1.75.75-.8.75-.75 1.85l.15 1 .6.85m7.9 9.65v.05m-.85.85 2.7-.05.85.05m1.3 0 1.05.05.6.05 1.75.1m-11.25-.1-1.4.1" fill="none" stroke="#630" stroke-linecap="round" stroke-linejoin="round" stroke-width=".1"/><path d="m23.75 24 1.3.35m-17.35 0v.35q.1 1.1.6 1.75l.95.8m4.4-2 .05-.6-.05-.45" fill="none" stroke="#922900" stroke-linecap="round" stroke-linejoin="round" stroke-width=".1"/><path d="m9.4 16 .4.05.25-.2m16.5 4.9-.25.35-.05.05v.05l.05.25.05.15m-1.1 7.45H27m-3.55 0h1.8M24.1 30.6l5.25.9M19.3 23.4v-.05q1.55-.75 3.7-.7h.05l1.2.05.15.05q.65.65.65 1.6l-.05.3q-.1 1.1-.6 1.75l-1 .8q-.55-.6-1.8-1.2l-2-.7-.55-.1-.1-.6.05-.4m.3-.8-.3.8m-5.35 1.05-.6.1-1.95.7q-1.3.6-1.85 1.2m13.7 4.3-1-.3m-10.5.5 2.65 1.8.35-1.9m-5.15-2.6H5.75m2.9 1.55.65-.1m0-1.45h1.35m-2 1.55-5.25.9m6.45.1-.2.05-3 .9m3.2-.95.95-.35m.3-1.1-1.8.35m13.8 1.1-.15-.05m.5-1.1-1.8-.3m1.8.3.65.15m-1 1 3 .95m-5.15-.8-2.6 1.8-.35-1.9m4.1-2.6h1.35" fill="none" stroke="#922900" stroke-linecap="round" stroke-linejoin="round" stroke-width=".1"/><path d="M18 31.65h1.3l.3.05h.4l.6.05h.35" fill="none" stroke="#630" stroke-linecap="round" stroke-linejoin="round" stroke-width=".1"/></g></defs></svg>