<svg viewBox="0 0 29.248 34.729" xmlns="http://www.w3.org/2000/svg" xmlns:xlink="http://www.w3.org/1999/xlink"><g transform="translate(-411.46 -297.07)"><use transform="translate(411.5 297.09) scale(.8624)" width="33.85" height="36.9" xlink:href="#a"/><use transform="matrix(-.3408 .071 .067 .3214 414.08 321.2)" width="8.1" height="8.1" xlink:href="#b"/><use transform="matrix(-.3408 .071 .067 .3214 419.33 318.95)" width="8.1" height="8.1" xlink:href="#b"/><use transform="matrix(-.9597 .8463 .1365 .1547 428.8 309.22)" width="8.1" height="8.1" xlink:href="#b"/><use transform="matrix(-.2387 .2105 .1591 .1347 421.31 316.25)" width="8.1" height="8.1" xlink:href="#b"/><use transform="translate(413.53 322.96) scale(.8624)" width="2.5" height="10.25" xlink:href="#c"/></g><defs><linearGradient id="d" x1="-819.2" x2="819.2" gradientTransform="matrix(-.0027 -.0058 .0052 -.0024 5.65 9.7)" gradientUnits="userSpaceOnUse"><stop stop-color="#f85656" offset="0"/><stop stop-color="#fa7272" offset=".055"/><stop stop-color="#faafb0" stop-opacity="0" offset="1"/></linearGradient><linearGradient id="e" x1="-819.2" x2="819.2" gradientTransform="matrix(-.0006 -.0063 .0034 -.0003 3.45 13.25)" gradientUnits="userSpaceOnUse"><stop stop-color="#f85656" offset="0"/><stop stop-color="#fa7272" offset=".055"/><stop stop-color="#faafb0" stop-opacity="0" offset="1"/></linearGradient><linearGradient id="f" x1="-819.2" x2="819.2" gradientTransform="matrix(0 -.0047 .0025 0 6.65 13.45)" gradientUnits="userSpaceOnUse"><stop stop-color="#f85656" offset="0"/><stop stop-color="#fa7272" offset=".055"/><stop stop-color="#faafb0" stop-opacity="0" offset="1"/></linearGradient><linearGradient id="h" x1="-819.2" x2="819.2" gradientTransform="matrix(-.0007 -.0058 .0014 -.0024 3.6 16.65)" gradientUnits="userSpaceOnUse"><stop stop-color="#f85656" offset="0"/><stop stop-color="#fa7272" offset=".055"/><stop stop-color="#faafb0" stop-opacity="0" offset="1"/></linearGradient><path d="M4.05-4.05q1.7 0 2.85 1.15Q8.1-1.7 8.1 0T6.9 2.85q-1.15 1.2-2.85 1.2t-2.9-1.2Q0 1.7 0 0t1.15-2.9q1.2-1.15 2.9-1.15" fill="url(#g)" fill-rule="evenodd" transform="translate(0 4.05)" id="b"/><path d="M4 11.9q.45.85.7 2.8t.1 3.9q-.15 2-.6 2.8t-1 0q-.45-.8-.7-2.75t-.1-3.95q.15-1.95.6-2.75l1-.05" fill="url(#h)" fill-rule="evenodd" transform="translate(-2.35 -11.55)" id="c"/><radialGradient id="g" cx="0" cy="0" r="819.2" gradientTransform="translate(4.05) scale(.0051)" gradientUnits="userSpaceOnUse"><stop stop-color="#ff7f7f" offset="0"/><stop stop-color="#ff7f7f" stop-opacity="0" offset="1"/></radialGradient><g id="a"><path d="M9.1 8.4v.05l-.15.3.15-.35" fill="#3f5658" fill-rule="evenodd" transform="translate(0 18.45)"/><path d="m22-3.1-.25.1q-1.55.2-2.7 1.3l-1.1.65-5.25 4.9-.45.4-.7.7-1.15 1.1.05.1.05.75-.05.5-.2.85q-.6 2-2.5 3.8-1.95 1.75-3.15 2.1l-2.05.3-1.05-.2-.2-.1-.65-.5q-.8-.85-.65-2.2l.2-.95q.65-2.05 2.6-3.8 1.9-1.8 3.95-2.25l2-.05q.6-.55 1.3-1.15l2.5-2.3 4.6-4.3.2-.15Q20-5.95 22-3.5v.4m-4.85-.25L15.3-.75l-.15.35.25.6 2.95-4.4-1.2.85M9.1 8.4q.55-1.55-.2-2.4-.8-.85-2.4-.45T3.35 7.3q-1.55 1.4-2.1 2.95l-.2.95q-.1.9.45 1.45.75.85 2.35.5 1.6-.4 3.15-1.8 1.35-1.25 1.95-2.6l.15-.3V8.4" fill="#c5d1d8" fill-rule="evenodd" transform="translate(0 18.45)"/><path d="m17.15-3.35 1.2-.85L15.4.2l-.25-.6.15-.35 1.85-2.6m-8.2 12.1q-.6 1.35-1.95 2.6-1.55 1.4-3.15 1.8-1.6.35-2.35-.5-.55-.55-.45-1.45 4.4-4.65 7.9-2.45" fill="#222e33" fill-rule="evenodd" transform="translate(0 18.45)"/><path d="m1.5 14.25 1.05.2 2.05-.3q1.2-.35 3.15-2.1 1.9-1.8 2.5-3.8l.2-.85.05-.5-.05-.75-.05-.1 1.15-1.1.7-.7.45-.4 5.25-4.9 1.1-.65q1.15-1.1 2.7-1.3l.25-.1v.2l-1.45.95-9.5 8.35q.55 1.55.3 3.4-.3 1.8-1.75 3.2-1.55 1.35-3.55 1.8l-3.1.1-1.45-.65m-.45-3.05.2-.95Q1.8 8.7 3.35 7.3 4.9 5.95 6.5 5.55T8.9 6q.75.85.2 2.4l-.15.35q-3.5-2.2-7.9 2.45" fill="#728f9e" fill-rule="evenodd" transform="translate(0 18.45)"/><path d="m1.5 32.7 1.45.65 3.1-.1q2-.45 3.55-1.8 1.45-1.4 1.75-3.2.25-1.85-.3-3.4l9.5-8.35 1.45-.95v-.6q-2-2.45-4.65 0l-.2.15-4.6 4.3-2.5 2.3q-.7.6-1.3 1.15l-2 .05q-2.05.45-3.95 2.25Q.85 26.9.2 28.95l-.2.95q-.15 1.35.65 2.2l.65.5z" fill="none" stroke="#222e33" stroke-linecap="round" stroke-linejoin="round" stroke-width=".05"/><path d="m15.95-.15-.5.6-.75.3-.55-.2q-.15-.2 0-.55l.55-.6.7-.3q.35 0 .5.2l.05.55" fill="#222e33" fill-rule="evenodd" transform="translate(0 18.45)"/><path d="m20.6-1.25 8.95-.2q2.3-.25 3.2-1.85.85-1.6-2.3-5.7l-.05-.05-4.95-4.55.6-.45q3 2.3 5.5 5.2h.05Q34-5.2 33.8-3.2q-.3 1.9-3.2 2.4l-9.9.1-.1-.55m-1.5-8.1-.9 1.05q-.85.75-.6 1.95v.9l-.9.25q.25-1.5 0-1.9-.35-.65.95-1.8l1.45-.45" fill="#a96901" fill-rule="evenodd" transform="translate(0 18.45)"/><path d="m25.45-13.6-1-.8-.25-.15-.95-.2-.15-.45-3.1-1.85-.85.05-.05-.75.2-.2v.05-.05q.7-.1 1.8.5l2.1 1.35v.05l.35-.45-.3-.8q-.15-1.4.15-1.05 1.4 1.35.95 2.1l.4.35-.05.05v.85h.05l.15.15 1.15.8-.6.45M17.6-5.45l-.3.95-1.8 4.05q.1 1.25-1 .15L16.65-5l.05-.2.9-.25M20.7-.7l-1.8-.05-.3-.55 2 .05.1.55m3.5-13.85-1.1-.65.1-.9-.1.9 1.1.65m.15-1.7-.6-.45-.2.2.2-.2.6.45M24.7-15l-1.5-1.05L24.7-15" fill="#6b4301" fill-rule="evenodd" transform="translate(0 18.45)"/><path d="M24.75-15.9q.3-.3 1.6 0l1 .6-1.3-.05q-1.2-.2-1.35.3v-.6l.05-.25" fill="#884b02" fill-rule="evenodd" transform="translate(0 18.45)"/><path d="m19.15-17 .6 2.45.3 1.35-.65.55L19-14l-.85-2.55.95-1.2.05.75" fill="#8e4f02" fill-rule="evenodd" transform="translate(0 18.45)"/><path d="M20.05-13.2q.25 1.9-.75 3.5l-.2.35-1.45.45.55-.45q1.55-1.2 1.2-3.3l.65-.55" fill="#960" fill-rule="evenodd" transform="translate(0 18.45)"/><path d="m20.6 17.2 8.95-.2q2.3-.25 3.2-1.85.85-1.6-2.3-5.7l-.05-.05-4.95-4.55-1-.8-.25-.15-.95-.2-.15-.45L20 1.4l-.85.05.6 2.45.3 1.35q.25 1.9-.75 3.5l-.2.35-.9 1.05q-.85.75-.6 1.95v.9l-.3.95L15.5 18q.1 1.25-1 .15l2.15-4.7.05-.2q.25-1.5 0-1.9-.35-.65.95-1.8l.55-.45q1.55-1.2 1.2-3.3L19 4.45l-.85-2.55.95-1.2.2-.2v.05V.5q.7-.1 1.8.5l2.1 1.35v.05l.35-.45-.3-.8Q23.1-.25 23.4.1q1.4 1.35.95 2.1l.4.35q.3-.3 1.6 0l1 .6-1.3-.05q-1.2-.2-1.35.3l.2.2 1.15.8q3 2.3 5.5 5.2h.05q2.4 3.65 2.2 5.65-.3 1.9-3.2 2.4l-9.9.1-1.8-.05-.3-.55 2 .05m4.15-14.65-.05.25v.6m0 .05h.05m-.05-.85.05-.05m-.05.25v-.2l.05-.05m-1.2-.6.2-.2.6.45m-1.15.15-.1.9 1.1.65m-1-1.5 1.5 1.05" fill="none" stroke="#28383e" stroke-linecap="round" stroke-linejoin="round" stroke-opacity=".502" stroke-width=".1"/><path d="M7.05 4.95q1.9.85 2.8 2.8t.3 3.9q-.6 2-2.3 2.8-1.75.8-3.65 0T1.4 11.7t-.3-3.95Q1.7 5.8 3.45 5q1.7-.8 3.6-.05" fill="url(#d)" fill-rule="evenodd" transform="translate(0 18.45)"/><path d="M5.1 9.45q.95 1.4 1.15 3.55.25 2.15-.4 3.75-.7 1.6-1.85 1.7-1.15.15-2.15-1.35-.95-1.4-1.2-3.55-.2-2.15.45-3.75.7-1.6 1.85-1.75 1.15-.1 2.15 1.4" fill="url(#e)" fill-rule="evenodd" transform="translate(0 18.45)"/><path d="M8.15 10.75q.6 1.1.6 2.7-.05 1.6-.65 2.75-.65 1.1-1.5 1.1t-1.45-1.1q-.6-1.15-.55-2.75 0-1.6.6-2.7.6-1.15 1.45-1.15t1.5 1.15" fill="url(#f)" fill-rule="evenodd" transform="translate(0 18.45)"/><path d="m7 14.5-.1.05-.1-.05-.05-.1.05-.1.1-.05.1.05.05.1-.05.1m-1.5 1.3-.1.15-.15.1-.2-.1L5 15.8l.05-.2.2-.05.15.05.1.2m-.9-3.55.45.2.2.45-.2.45-.45.2q-.25 0-.45-.2l-.2-.45.2-.45q.2-.2.45-.2M2.1 14.1l.55.2.25.6-.25.55-.55.25q-.35 0-.6-.25l-.2-.55.2-.6.6-.2m1.85 1.45-.05.1-.1.05-.1-.05-.05-.1.05-.1.1-.05.1.05.05.1m.65 1.95-.35.15-.35-.15-.15-.35.15-.35.35-.15q.2 0 .35.15l.15.35-.15.35M7.35 13.8l-.05-.1.05-.1.1-.05.1.05.05.1-.05.1-.1.05-.1-.05m-1.3-1.45-.15-.1-.1-.1.05-.2.15-.05.2.05.1.2-.05.1-.2.1m3.3-.5q-.15.2-.4.2l-.5-.15-.2-.45.2-.45q.2-.2.45-.25l.45.2.2.45-.2.45m-1.7-2.9-.2.55-.55.25-.6-.2L6.05 9q0-.35.25-.6.2-.2.55-.25l.6.2.2.6m-1.4 1.9-.1-.05-.05-.1.05-.1.1-.05.1.05.05.1-.05.1-.1.05m-1.95.7-.15-.35q0-.2.15-.35.15-.2.35-.2l.35.15.15.35-.15.35-.35.15-.35-.1" fill="red" fill-rule="evenodd" transform="translate(0 18.45)"/></g></defs></svg>