<svg viewBox="0 0 17.408 20.236" xmlns="http://www.w3.org/2000/svg" xmlns:xlink="http://www.w3.org/1999/xlink"><use transform="translate(.02 .01)" width="17.4" height="20.2" xlink:href="#a"/><defs><g id="a"><path d="M7.25-12.1q.05-.35 1-.7l.9-.05q-.45.35-.85.55-.85.35-.7.7l-.25-.35-.1-.15" fill="#884b02" fill-rule="evenodd" transform="translate(-1.2 13.15)"/><path d="M7.65-11.55h.1l1.1.05-.2.5-.95-.05h-.2l-.65.3L6.5-11l-2.75.15q-.3 0-.5.4l-.35-.45.05-.2v.05-.05l1.35-.4 1.9-.1.05-.4q-.25-.15-.55-.35-.7-.85-.3-.75 1.45.25 1.45.95l.4.05.1.15.25.35v.05h.05M11.15-.8 10-.05 9.55-.2l1.25-.9.35.3M7.1-2.45l.1.25.15.45.6 3.35q.6.7-.55.55-.35-3.3-.65-3.95l-.05-.15.4-.5m.5-9.1-1.4-.05.3.6 1-.05-1 .05-.3-.6 1.4.05m-.75-.6-.55-.05-.05.2.05-.2.55.05M7.2-2.2h-.3.3" fill="#6b4301" fill-rule="evenodd" transform="translate(-1.2 13.15)"/><path d="m8.85-11.5 5.7 1h.05q3.05 1.2 3.75 2.6.65 1.35-1 2.85l-4.1 2.85-2.1 1.4-.35-.3 1.6-1.1 4-2.8q1.4-1.1 1.25-2.5t-3.9-2.65L8.65-11l.2-.5m-2.4 5.95L6.3-4.5q-.2.8.5 1.45l.3.6-.4.5-.1-.25-.7-.95q-.55-.25-.15-1.5l.7-.9M6.9-2.2h-.3.3m6.35 0h-.85.85" fill="#a96901" fill-rule="evenodd" transform="translate(-1.2 13.15)"/><path d="M5.4-8.45q.95 1.1 1.05 2.55v.35l-.7.9.15-.55q.5-1.4-.65-2.6l.15-.65" fill="#960" fill-rule="evenodd" transform="translate(-1.2 13.15)"/><path d="M3.25-10.45 4.7-9.1l.7.65-.15.65-.8-.7L2.8-9.7l.1-1.2.35.45" fill="#8e4f02" fill-rule="evenodd" transform="translate(-1.2 13.15)"/><path d="M6.05 1.05q.05-.35 1-.7l.9-.05Q7.5.65 7.1.85q-.85.35-.7.7l.05.05h.1l1.1.05 5.7 1h.05q3.05 1.2 3.75 2.6.65 1.35-1 2.85l-4.1 2.85-2.1 1.4-1.15.75-.45-.15 1.25-.9 1.6-1.1 4-2.8q1.4-1.1 1.25-2.5T12.55 3l-5.1-.85-.95-.05h-.2l-.65.3-.35-.25-2.75.15q-.3 0-.5.4L3.5 4.05l.7.65q.95 1.1 1.05 2.55v.35L5.1 8.65q-.2.8.5 1.45l.3.6.1.25.15.45.6 3.35q.6.7-.55.55-.35-3.3-.65-3.95l-.05-.15-.1-.25-.7-.95q-.55-.25-.15-1.5l.15-.55q.5-1.4-.65-2.6l-.8-.7-1.65-1.2.1-1.2.05-.2v.05-.05l1.35-.4 1.9-.1.05-.4Q4.8 1 4.5.8q-.7-.85-.3-.75Q5.65.3 5.65 1l.4.05.1.15.25.35m0 .05h.05m-.3-.4-.1-.15M5 1.55l.3.6 1-.05m-1.25-.95.05-.2.55.05M5 1.55l1.4.05" fill="none" stroke="#28383e" stroke-linecap="round" stroke-linejoin="round" stroke-opacity=".502" stroke-width=".1"/><path d="m1.25 1.25.05.15h-.05v-.15" fill="#cbb670" fill-rule="evenodd" transform="translate(-1.2 13.15)"/><path d="m10.2.95 1.65.5 1.1.6-1.1.6-1.1.4Q4.2 2.4 5.3 1.1L8.05.8l2.15.15" fill="#c59b69" fill-rule="evenodd" transform="translate(-1.2 13.15)"/><path d="m5.1-.8.55-.15L6.8-1.1l.45-.05.05-.1 1 .05.25.05h.35l1.3.15V.95L8.05.8l-2.75.3-.2.05V-.8m-.7 4.4 1.9.35.6.05h.05L7 3.75l.55.25h.05l1.9-.1h.55l.95-.2-.05-.35.05.05.35.25.6-.2.35-.1v2.2L10.5 6 8 6.2l-1.85-.1-1.75-.3V3.6m6.1 2V6v-.4m-1 .1V3.9v1.8m-2.35-.15V4.9v.65m-1-.75v1.3-1.3" fill="#b77e3c" fill-rule="evenodd" transform="translate(-1.2 13.15)"/><path d="M1.3 1.4q.05.4.4.8l.4-.05-.15.35.55.35.8-.1-.4.3.3.1.1.05 1.1.4v2.2l-1.2-.45L2.45 5v-.35V5q-1.2-.7-1.2-1.55V1.4h.05M11-.8l.25.05.6.25.35.15.75-.1-.25.4.6.55.1.3.65.2-.6.25-.2.5-.3.3-1.1-.6-1.65-.5V-1l.65.15.15.05M3.25 4.45 3.3 3.2l-.05 1.25m-1.4-.8.1-1.15-.1 1.15" fill="#c4874d" fill-rule="evenodd" transform="translate(-1.2 13.15)"/><path d="M2.6 1.05q0-.3.15-.55l-.4-.25H2.2L2.3.2l.05.05.7-.05q.35-.4 1.1-.7-.4-.6.3-.1l.65-.2v1.95h-.05l-.9.3q-.65.25-1.05.6-.5-.4-.5-.95v-.05m9.7 2.3.45-.2h.05l-.3-.4.95.1.65-.45q-.3-.45.3-.25l.35-.75v2.05l-.45.95-1.55.95-.45.2v-2.2" fill="#88592d" fill-rule="evenodd" transform="translate(-1.2 13.15)"/><path d="m5.1-.8-.65.2q-.7-.5-.3.1-.75.3-1.1.7l-.7.05L2.3.2l-.1.05h.15l.4.25q-.15.25-.15.55v.05q0 .55.5.95l1.05.6 2.05.6 1.85.1 2.7-.3 1.1-.4 1.1-.6.3-.3.2-.5.6-.25-.65-.2-.1-.3-.6-.55.25-.4-.75.1-.35-.15-.6-.25L11-.8l.2-.45-.2.45-.15-.05L10.2-1l-1.3-.15h-.35L8.3-1.2l-1-.05-.05.1-.45.05-1.15.15-.55.15m.15-.55.4.4-.4-.4 1.45-.2.1.45-.1-.45L8-1.6l1.1.05 1.1.1 1 .2 1.55.45q2 .85 2 2v.2l-.35.75q-.6-.2-.3.25l-.65.45-.95-.1.3.4h-.05l-.45.2-.35.1-.6.2L11 3.4l-.05-.05.05.35-.95.2H9.5L7.6 4h-.05L7 3.75 6.95 4H6.9l-.6-.05-1.9-.35-1.1-.4-.1-.05-.3-.1.4-.3-.8.1-.55-.35.15-.35-.4.05q-.35-.4-.4-.8l-.05-.15V1.2Q1.3.05 3.2-.8l1.9-.55h.15M13.65.4l-.35.1.35-.1M9.1-1.55l-.2.4.2-.4M14 1.8l-.75-.05.75.05m.3-.8h-.25.25M6.1 3.6l.1-.35-.1.35M2 1.05h.6H2" fill="#dbc591" fill-rule="evenodd" transform="translate(-1.2 13.15)"/><path d="M14.75 3.45v.85q0 1.1-2 1.9l-.45.2v-.85l.45-.2 1.55-.95.45-.95" fill="#5b481e" fill-rule="evenodd" transform="translate(-1.2 13.15)"/><path d="M12.3 6.4 8 7.05 4.4 6.6v-.8l1.75.3L8 6.2l2.5-.2 1.8-.45v.85" fill="#7b6228" fill-rule="evenodd" transform="translate(-1.2 13.15)"/><path d="m4.4 6.6-1.2-.4q-1.95-.8-1.95-1.95v-.8q0 .85 1.2 1.55l.75.35 1.2.45v.8M2.45 5v.35V5" fill="#9b7b33" fill-rule="evenodd" transform="translate(-1.2 13.15)"/><path d="m10.75 3.05-2.7.3-1.85-.1-2.05-.6-1.05-.6q.4-.35 1.05-.6l.9-.3h.05l.2-.05q-1.1 1.3 5.45 1.95" fill="#9f6a35" fill-rule="evenodd" transform="translate(-1.2 13.15)"/><path d="m4.45 12.2-.4-.4m5.95.1-.2.45m2.3 1.3.35-.1m-6.85-1.5-.1-.45m2.2.4.2-.4m4.95 2.55h.25m-1.05.75.75.05M5 16.4l-.1.35m4.4 2.4v-.4m-4.35.5v-1.3m1 .1v.65m2.35-1.65v1.8M1.4 14.2H.8m.45 3.95v-.35m0 .7v-.35m.85-1.8-.05 1.25m-1.3-1.95-.1 1.15" fill="none" stroke="#88592d" stroke-linecap="round" stroke-linejoin="round" stroke-width=".05"/><path d="m7.7 2 3.65-.85-2.4 1.75-.25-.2-.2.2-.5.05-.1-.05.35.25-.95.2-1.6-.25L7 2.25l.3.2q-.05-.2.15-.25l.45-.05L7.7 2" fill="#3e2c17" fill-rule="evenodd" transform="translate(-1.2 13.15)"/><path d="M5.2 2.95 5 2.9l1.9-1.35.3.2q-.05-.2.15-.25l.45-.05-.2-.15 3.1-.7-5.5 2.35" fill="#cd0101" fill-rule="evenodd" transform="translate(-1.2 13.15)"/><path d="m10.7.6.55-.15-2.4 1.75L8.6 2l-.2.2-.5.05-.1-.05.35.25-2.65.6-.3-.1L10.7.6" fill="#8a0606" fill-rule="evenodd" transform="translate(-1.2 13.15)"/><path d="m8.3 1.8-.15.25-.25.15-.3-.15-.1-.25.1-.3.3-.1.25.1.15.3" fill="#fc9e9e" fill-rule="evenodd" transform="translate(-1.2 13.15)"/><path d="M13.5 14.7v2.75q0 1.1-2 1.9l-.45.2-4.3.65-3.6-.45-1.2-.4Q0 18.55 0 17.4v-3.05q.05-1.15 1.95-2l1.9-.55 2.9-.25 2.2.15 2.55.65q2 .85 2 2v.2z" fill="none" stroke="#460000" stroke-linecap="round" stroke-linejoin="round" stroke-width=".05"/></g></defs></svg>