<svg viewBox="0 0 40.931 25.337" xmlns="http://www.w3.org/2000/svg" xmlns:xlink="http://www.w3.org/1999/xlink"><g transform="translate(-240.14 -189.36)"><use transform="translate(240.15 189.35)" width="40.9" height="25.35" xlink:href="#a"/><use transform="translate(249.9 191)" width="17.1" height="17" xlink:href="#b"/></g><defs><g id="a"><path d="M1.4 9.75q1.15.7 2.45 1.1l2.9.65 3.9.3 3.1-.75.4-.2 1.5-.85 1.65-1.35 1.3-2.1.4-1.35.4-2.4q.3-3.5-.55-6.8l-.3-1-1.35-2.4Q15.95-8.75 14-9.25q-2.25-.3-8.4 3.15l-.35-.55q6.8-3.55 9.3-3.25 2.1.5 3.45 2 1 1.2 1.55 2.8l.25.8q.9 3.55.6 7.35l-.45 2.6-.45 1.4q-.5 1.3-1.35 2.25l-1.8 1.45-.15.1-1.9 1q-1.5.7-3.35.85l-4.2-.35q-2.7-.3-5.05-1.5l-1.1-.6.8-.5-.8.5-1.2.7h-.05l-2.4-2 5.4-3.35-.1-3.8 2.5 2.05.1 3.75L1.4 9.75m-3.6-19 .25-.4.1-.05.15-.1.45-.15.6.1.4.3.2.4-.4.1-.8.55-.05.05q.7.8.6 1.6l-.4.3-.65-1.2-.1.75.2.55q-.55 0-.85-.4l-.3-.85v-.35l.15-.45-1.1-.85-.25-.2q-3.45-2.55-7.7-2.05-3.45.05-5.55 1.9-1.2 1-1.9 2.55-.4.8-.35 1.85l.1 1.2q.7 1.5 2.15 1.95l.6.15 5.45.2-.15.65-3.95.05-1.85-.35h-.1q-2.15-.6-3.1-2.55l-.1-1.35q-.05-1.15.35-2.05 1.05-2.2 2.85-3.5 2.1-1.5 5.2-1.7 5.1-.35 9 2.65l.1.1-.3.2.35-.2.7.6m10.4 8.1-1.65 4.1-2.65-1.5.05-.05H4l.75-1L5.95-3 8.2-1.15m-12.15.8-.6.15-.65-.95 1.25.8m9-4.25-1.3 1.3L4.8-5.05l-.05-.05 1.05.3-.7.2h-.05m-13.7-2.15 1-.15.75.8-1.75-.65m-2.7 7.1.25.55-.1.1v.05l-.05.05q-.65.95-.85 2-.15.55.15 1l.35.5q.75.25 1.7 0h.1l.1.35h-.05l-2.6.25-.45-.6q-.35-.5-.2-1.15.35-1.5 1.5-2.9l.05-.1.1-.1m5 7.45 1.1-1.75-.35 2.05-.05-.05.3.95-1-1.2" fill="#10040a" fill-rule="evenodd" transform="translate(20.45 12.65)"/><path d="m-.05-9.15-.2-.4-.4-.3-.6-.1-.45.15-.15.1-.1.05-.25.4-.7-.6h-.05l-.1-.1 1.1-.55 4.4 1.4.05.1 2.25 3.9.05.05L3.75-3.3l1.3-1.3.9 1.55V-3L4.75.4 4 1.4h-.2l.4-2.9-2.1-1.9-2.3-2.05-5.55 1.25h-.15L-7.15-.15-7.2 0l3.4 4.9 1-.2 1.9-.4 2.1-.45L2.25 1.8l.1 3.8-5.4 3.35h-.05l-2.5-.85.35-2.05-1.1 1.75-2.55-.9-.05-.05-.75-1.9-.1-.35-1.4-3.6.1-.1-.25-.55h-.05l-.2-.45 1.4-5.35 1.55-1.3 1.75.65-.75-.8-.35-.4 1.15-.95L-4-9.55l.25.2 1.1.85-.15.45v.35l.3.85q.3.4.85.4h.1l.45-.1.4-.3.25-.2.15-.2q.3-.5.35-1.15l-.1-.75M2.3-5.9q-.2.45.3.3h.1l.15-.05-.4-.35-.15.1.15-.1.4.35-.15.05h-.1q-.5.15-.3-.3m-1.05-.65.1-.05.1-.15v-.2q-.1-.25-.5-.15-.6.25-.3.85l.15.15.8-.05.1-.05.95-.1.4.15.1.1.05.15-.1-.1-.4-.2-1.05.15L.7-6l-.15-.15Q.15-6.9.9-7.2q.5-.1.6.2l-.05.25-.1.15.1-.15L1.5-7q-.1-.3-.6-.2-.75.3-.35 1.05L.7-6l.95-.05L2.7-6.2l.4.2.1.1-.05-.15-.1-.1-.4-.15-.95.1-.1.05-.8.05-.15-.15q-.3-.6.3-.85.4-.1.5.15v.2l-.1.15-.1.05-.15.05q-.15 0-.25-.1.1.1.25.1l.15-.05H1.1L.95-6.6.9-6.7l.15-.15-.2.15v.1-.1l.2-.15-.15.15.05.1.15.05h.15M-5.7-6.7l.2.1q.15.45-.3.3h-.1l-.2-.05q0-.4.4-.35-.4-.05-.4.35l.2.05h.1q.45.15.3-.3l-.2-.1m1.15-.6-.1-.15v-.2q.05-.25.45-.15.6.25.3.85l-.1.15-.85-.05-.1-.05-.9-.1-.4.15-.1.1-.1.15.1-.1.45-.2 1 .15.95.05.2-.15q.35-.75-.4-1.05-.5-.1-.55.2v.25h.05l.1.15.05.05.15.05.25-.1.05-.1q-.05-.2-.2-.15l.1.15v.1l-.2.05h-.15.15l.2-.05v-.1l-.1-.15q.15-.05.2.15l-.05.1-.25.1-.15-.05-.05-.05-.1-.15h-.05v-.25q.05-.3.55-.2.75.3.4 1.05l-.2.15-.95-.05-1-.15-.45.2-.1.1.1-.15.1-.1.4-.15.9.1.1.05.85.05.1-.15q.3-.6-.3-.85-.4-.1-.45.15v.2l.1.15M-8.7-4.2l-.2-.3q-.15-.5.6-.8 1.3-.25 1.45 1.1l-.05.4q-.35.75-1.4.8l-.25.05q-.95.1-1.65.85l-.45.75v.6l.05-.35.45-.75q.75-.85 1.9-.9 1.15.05 1.6-1l.1-.45q-.2-1.6-1.8-1.35-.9.4-.7 1l.35.4.35.1-.35-.15m.5.15h-.15.15l.3-.1q.2-.15.3-.45l-.05-.2q-.25-.3-.5 0 .2-.15.4.1l.05.2-.2.3-.3.15M-10.4-.1l-.25-.65.25.65m1.05-1.05q-.1.45-.5.4-.4-.65.3-1.05l.4-.05q.9.65.35 1.55.55-.9-.35-1.55l-.4.05q-.7.4-.3 1.05.4.05.5-.4m2.85 6.2q.3.35.05.65-.7 0-.7-.8l.2-.35q1-.45 1.45.5-.45-.95-1.45-.5l-.2.35q0 .8.7.8.25-.3-.05-.65M-8.3 2.5l.1-.3-.2-.45-.2-.05q-.4-.05-.3.35 0-.25.3-.2l.2.05q.15.15.15.35l-.05.25-.15.25-.2.15.2-.15.15-.25.05-.25q0-.2-.15-.35l-.2-.05q-.3-.05-.3.2-.1-.4.3-.35l.2.05.2.45-.1.3m-.35.4h-.4q-.5-.15-.35-.95.55-1.25 1.75-.6l.3.2q.45.7-.1 1.65l-.1.2q-.45.9-.2 1.9l.4.75.2.15-.4-.8q-.25-1.15.3-2.1.7-.95.05-1.9l-.3-.3q-1.45-.75-2.1.75-.2.95.4 1.15l.55-.1.2-.15-.2.15m2.45 3.65-.65-.15-.3-.2.3.2.65.15m3.3.45-.05.3q-.15.35-.75.2-.95-.6-.3-1.45l.2-.2q.6-.3 1.3.25l.15.1 1.45.35q.35 0 .65-.2l.15-.15q-.35.2-.7.2-.9.05-1.6-.45-.7-.7-1.5-.25l-.3.2q-.75 1.05.35 1.75.75.2 1-.2V7h-.05l-.1-.2-.15-.15-.2-.05-.3.1-.05.15.15.25-.3-.25.1-.15.4-.1.2.05-.2-.05-.4.1-.1.15.3.25-.15-.25.05-.15.3-.1.2.05.15.15.1.2h.05-.05l-.1-.2.1.2M.3 5.5l-.2.45-.2.25.2-.25.2-.45m-7.45.7v.05l.3.15-.3-.15V6.2m11.1-4.8.8-1-.8 1M-.1 6.2h.05l.15-.25-.15.25H-.1m-.8-.65.5.05q-.1.55-.7.45l-.3-.2Q-1.6 5-.9 4.3q-.7.7-.5 1.55l.3.2q.6.1.7-.45l-.5-.05" fill="#322812" fill-rule="evenodd" transform="translate(20.45 12.65)"/><path d="m2.1-3.4-5.45 1.2-2.4-2L-.2-5.45 2.1-3.4m-11 10.3 2.55.9 1 1.2-.3-.95.05.05 2.5.85h.05l2.4 2-4.6-1.65-1.2-.4-2.45-2m3.65 2.4-.1-.3.1.3" fill="#110b00" fill-rule="evenodd" transform="translate(20.45 12.65)"/><path d="m2.5-9 2.45 1.9L8.2-1.2v.05L5.95-3v-.05l-.9-1.55h.05l.7-.2-1.05-.3L2.5-9m2.55 4.4h.05-.05m-15.7 3.55v-.3l.45-.75q.7-.75 1.65-.85L-8.3-3q1.05-.05 1.4-.8l.05-.4Q-7-5.55-8.3-5.3q-.75.3-.6.8l.2.3v.05l-.35-.4q-.2-.6.7-1 1.6-.25 1.8 1.35l-.1.45q-.45 1.05-1.6 1-1.15.05-1.9.9l-.45.75-.05.05m3.5 7.25-.2-.15-.4-.75q-.25-1 .2-1.9l.1-.2q.55-.95.1-1.65l-.3-.2q-1.2-.65-1.75.6-.15.8.35.95h.4l-.55.1q-.6-.2-.4-1.15.65-1.5 2.1-.75l.3.3q.65.95-.05 1.9-.55.95-.3 2.1l.4.8m7.05 0-.15.15q-.3.2-.65.2l-1.45-.35-.15-.1q-.7-.55-1.3-.25l-.2.2q-.65.85.3 1.45.6.15.75-.2l.05-.3h.05v.45q-.25.4-1 .2-1.1-.7-.35-1.75l.3-.2q.8-.45 1.5.25.7.5 1.6.45.35 0 .7-.2" fill="#303224" fill-rule="evenodd" transform="translate(20.45 12.65)"/><path d="m-3.4-2.2-.55 1.85-1.25-.8.65.95.35.6-.45 1.5-.05.1 1.9 2.7-1 .2L-7.2 0l.05-.15L-5.9-4.2h.15l2.4 2h-.05m-1.25 4.1-2.5-2.05 2.5 2.05" fill="#1b1000" fill-rule="evenodd" transform="translate(20.45 12.65)"/><path d="m20.4 3.5-.2-.4-.4-.3-.6-.1-.45.15-.15.1-.1.05-.25.4m-.45.75-.15.45v.35l.3.85q.3.4.85.4l-.2-.55.1-.75m.65 1.2.4-.3m-.55-1.65.8-.55.4-.1.1.75q-.05.65-.35 1.15l-.15.2-.25.2m-.4.3-.45.1h-.1" fill="none" stroke="#0e0000" stroke-linecap="round" stroke-linejoin="round" stroke-opacity=".38" stroke-width=".5"/><path d="m21.85 22.4-.8.5-1.2.7h-.05l-2.4-2 5.4-3.35-.1-3.8v-.05.05l2.5 2.05.1 3.75-3.45 2.15M17.4 2.7l1.1-.55 4.4 1.4.05.1 2.45 1.9 3.25 5.9m0 .05L27 15.6l-2.65-1.5.05-.05h-.15l.4-2.9-2.1-1.9-5.45 1.2h-.05l-.55 1.85-.6.15.35.6-.45 1.5-.05.1 1.9 2.7 1.9-.4 2.1-.45 1.05-2.05m-.15-5.2-2.3-2.05-5.55 1.25 2.4 2m8.1-2.9.05.05-1.05 1.75 1.3-1.3h.05l.7-.2-1.05-.3-2.25-3.9m2.6 4.4h-.05l.9 1.55v.05l2.25 1.85m-19.4 2.15 1.4 3.6.1.35.75 1.9.05.05 2.55.9 1.1-1.75-.35 2.05 2.5.85h.05M14.7 8.45h-.15L13.3 12.5l2.5 2.05m-2.5-2.05-.05.15 3.4 4.9 1-.2m-6.1 2.2h-.05v-.05m3.6 2.15-1-1.2m.75.3-.05-.05.3.95.1.3 4.6 1.65m-4.6-1.65-1.2-.4-2.45-2m13.65-6.5-.8 1h.05m-8.55-1.6-.65-.95 1.25.8m9.9-2.65-1.2 3.4" fill="none" stroke="#000" stroke-linecap="round" stroke-linejoin="round" stroke-opacity=".6" stroke-width=".05"/><path d="M21.3 6.05q.1.1.25.1l.15-.05h-.15l-.15-.05-.05-.1.15-.15-.2.15v.1m.5 0 .1-.15.05-.25q-.1-.3-.6-.2-.75.3-.35 1.05l.15.15.95-.05 1.05-.15.4.2.1.1-.05-.15-.1-.1-.4-.15-.95.1-.1.05-.8.05-.15-.15q-.3-.6.3-.85.4-.1.5.15v.2l-.1.15-.1.05m1.05.65.15-.1.4.35-.15.05h-.1q-.5.15-.3-.3m-6.8-1.35h.15l.2-.05v-.1l-.1-.15q.15-.05.2.15l-.05.1-.25.1-.15-.05-.05-.05-.1-.15h-.05v-.25q.05-.3.55-.2.75.3.4 1.05l-.2.15-.95-.05-1-.15-.45.2-.1.1.1-.15.1-.1.4-.15.9.1.1.05.85.05.1-.15q.3-.6-.3-.85-.4-.1-.45.15v.2l.1.15m-1.15.6q-.4-.05-.4.35l.2.05h.1q.45.15.3-.3l-.2-.1m-3 2.5-.2-.3q-.15-.5.6-.8 1.3-.25 1.45 1.1l-.05.4q-.35.75-1.4.8l-.25.05q-.95.1-1.65.85l-.45.75v.3m.05-.05.45-.75q.75-.85 1.9-.9 1.15.05 1.6-1l.1-.45q-.2-1.6-1.8-1.35-.9.4-.7 1l.35.4m0-.05.35.15h.15l.3-.15.2-.3-.05-.2q-.2-.25-.4-.1.25-.3.5 0l.05.2q-.1.3-.3.45l-.3.1m-.15 0-.35-.1m-1.9 3.05-.05.35.25.65m-.25-.65v-.3m1.85.75q.55-.9-.35-1.55l-.4.05q-.7.4-.3 1.05.4.05.5-.4m3.85 6.2q-.45-.95-1.45-.5l-.2.35q0 .8.7.8.25-.3-.05-.65m-2.15-2.15.2-.15.15-.25.05-.25q0-.2-.15-.35l-.2-.05q-.3-.05-.3.2-.1-.4.3-.35l.2.05.2.45-.1.3m1.15 3.7-.2-.15-.4-.75q-.25-1 .2-1.9l.1-.2q.55-.95.1-1.65l-.3-.2q-1.2-.65-1.75.6-.15.8.35.95h.4l.2-.15m-.2.15-.55.1q-.6-.2-.4-1.15.65-1.5 2.1-.75l.3.3q.65.95-.05 1.9-.55.95-.3 2.1l.4.8.3.2.65.15m6.1-.35-.15.15q-.3.2-.65.2l-1.45-.35-.15-.1q-.7-.55-1.3-.25l-.2.2q-.65.85.3 1.45.6.15.75-.2l.05-.3-.1-.2-.15-.15-.2-.05-.3.1-.05.15.15.25-.3-.25.1-.15.4-.1.2.05m.3.35h-.05l-.1-.2m.15.2v.45q-.25.4-1 .2-1.1-.7-.35-1.75l.3-.2q.8-.45 1.5.25.7.5 1.6.45.35 0 .7-.2l.2-.25.2-.45m-7.15.9-.3-.15v-.05m6.25-1.9q-.7.7-.5 1.55l.3.2q.6.1.7-.45l-.5-.05m1 .4-.15.25h-.05" fill="none" stroke="#321f00" stroke-linecap="round" stroke-linejoin="round" stroke-width=".1"/><path d="M26.05 6.55q6.15-3.45 8.4-3.15" fill="none" stroke="#10040a" stroke-linecap="round" stroke-linejoin="round" stroke-width=".1"/><path d="m12.8 5.75-.35-.4 1.15-.95 2.85-1.3M11.8 5.9l1-.15.75.8-1.75-.65-1.55 1.3-1.4 5.35.2.45m0 .05V13" fill="none" stroke="#000" stroke-linecap="round" stroke-linejoin="round" stroke-width=".05"/></g><g id="b"><path d="m259.75 191.85-.05.15.05-.15-.05.15-.55.5q-1.3 1.2-2.1 1.25L260 191l-.25.85m-2.75 1.9 1.15.95-.5 1.1-.35 1.1.15.1-.2-.05h-.1l-.3-.25-.05-.05-.2-.15-.2-.25-.05-.05-.15-.4.95.95-.15-3m5.6 3-.7.35-.15.05-.9.2 1.15-.55 1.15-.6-.45.5-.1.05m-1.8.6.05.75-1.45 1.3 1.4-2.05m-2.2 1.25.55.75-.45-.35-.1-.1v-.05l-.15-.15-.05-.3.2.2m-3.7-.1.75-.4.2.4.15.45-.35.1-.75-.55m2.25-1.75.15.15-.15-.15m-.9 1.75.25.25h-.1l-.05-.05-.1-.2" fill="#fff" fill-rule="evenodd" transform="translate(-249.9 -191)"/><path d="m259.7 192 .05-.15.25-.85.75 2.45-.25 1.7h-.55l-1.25.1 1-3.25-1 3.25-.55-.55.55.55-.05 1.4-.6 1.1-.25.35-.3-.45-.05-.1-.05.1-.15.2.15.35.05.05.1.45.05.05-.1.05v.05l-.2.05-.05-.05-.1-.15-.15-.3-.1-.65.2-.25-.2.25-.5-1.5.2.25.2.15.05.05.3.25h.1l.2.05-.15-.1.35-1.1.5-1.1-1.15-.95h.05q.8-.05 2.1-1.25l.55-.5m-1.05 5.5-.05.35.1.25-.1-.15-.05-.15.1-.3m2.2-.15.9-.2.15-.05.7-.35-1.75 1.7-.6.8-.1.1-.3.25-.25.15-.05.05-.2-.15-.1-.1.15-.15 1.45-1.3-.05-.75h.05m-1.5 2.25v.05-.05m-1.7-2.45h.05v-.05l-.05.05m-.45.2.25-.3V197v.05l-.25.3-.1.15.1.25v-.4m1.95 2-.5.1.1.35v.6h-.1v-.05l-.25-.05v-.2l-.1-.15v-.05l.15-.35.2-.1-.2.1v-.85l.15.15v.05l.1.1.45.35m-1.05.6-.1-.05-.1.15-.1-.05-.05-.05v-.05l.15-.55.15.05.05.55m.5-2.1v.1-.1m-2.4 3-.45-.3.05-.15-1.05-.8.15-1.1.75.55.3.25-.15 1.1.4.2v.25m2.2.2-.05-.05h.1l-.05.05.35.4.7.45-.2.3-1.3-.75.25-.2.2-.2m2.05-1.05-.15.05-.1-.05v-.05l.25-.35h-.15l1.05-.95.25.05-1.05 1.2-.1.1m.05-4.85h.75l-.5 1.55-.5.65.25-2.2m-4 3.6-.2-1h.2l.35.9-.1-.05v.3h-.1l-.1-.05-.05-.1" fill="#63f" fill-rule="evenodd" transform="translate(-249.9 -191)"/><path d="M259.95 195.15h.55l.25-1.7L260 191l2.95 3.35-.95 2.45-1.15.55h-.05l-1.4 2.05-.15.15.1.1v-.05.05l.2.15.05.05.1-.05.6-.2h.15l-.25.35v.05l.1.05.15-.05.25-.1h.05l.2-.05h.05l-.2.6.35-.25.3-.35.35-.3.05-.05.05-.25-.35-.1.35-.3-.3-.15-.25-.05-.5-.2 1.75-1.7.1-.05.45-.5-.25 2.45-1 .9-1.15 1-.1.1v.05l-.45.15v.3l-.65-.5-.6.2v-.25l-.2.05h-.25l-.4.1-.2-.3-.05.5-.2-.2-.4-.05-.65-.3-.35-.25-.45.25.15-1.1.15-.05h-.05l.05-.1-.25-.65-.2-.4-.3-.65.85-1.65v.3q-.2.3-.25.7-.2.45-.05.95h.1l.1.3h-.25l-.1.15v.05l.2.6.05.05.1.15.05-.2.05-.25.05.05.1.05.05.05h.05l.1.1.1.05h.1v-.3l.1.05v.05l.4.2h.05l.2-.05v-.05l.1-.05-.05-.05-.1-.45v-.05l.1.15h.1v-.05h.1l.1-.05v.05l.1.15.2-.15-.1.25.05.05.3-.2-.1.15-.15.1-.25.1-.3.45.05.05v.15l-.2-.05h-.1v.05l-.05.15v.15l.05.2.2-.15v-.05.05l.1.05v.05l.15.15.1.05.1-.15.1.05.15.2.1.1h.05v.05l.25.05v.05h.1v-.6l-.1-.35.5-.1-.55-.75v-.65l.1.15.05.25.05-.05 1.15-3.15m3-.8-1.7.8 1.7-.8m-5.25 2.8h-.05l.05-.05v.05m.7 3.15h-.05.05m-.8-1.55.5-.15-.5.15m3.2 2.4.05-.6.6-.6.05.55.1.65h-.8m-.3-6-.25 2.2.5-.65.5-1.55h-.75" fill="#0f0172" fill-rule="evenodd" transform="translate(-249.9 -191)"/><path d="m258.7 195.25 1.25-.1-1.15 3.15-.05.05-.05-.25-.1-.25.05-.35v-.85l.05-1.4m-1.7 3.15.15.3h-.1l-.05-.3m1.3 1.8-.05-.05.05-.25v.05l.1.15v.1h-.1m-2.2-1.05-.05.1h.05l-.15.05-.3-.25.35-.1.1.2m.35-.4h.05l.05.1-.1-.1" fill="#e6dfff" fill-rule="evenodd" transform="translate(-249.9 -191)"/><path d="M258.65 196.65v.85l-.1.3.05.15v.65l-.2-.2.05.3v.85l-.4-.15-.15-.05-.25-.1-.05-.05.3-.45.25-.1.15-.1.1-.15-.3.2-.05-.05.1-.25-.2.15-.1-.15v-.05l-.1.05h-.1v.05h-.1l-.1-.15h-.05l-.15-.35.15-.2.05-.1.05.1.3.45.25-.35.6-1.1m.7 2.95v.05-.05m.2.2.05-.05.25-.15.3-.25.1-.1-.35.5h-.05l-.15.05-.1.05-.05-.05m-1.15.5h-.05.05m-.75-.5-.1-.05v-.05.05l-.2.15-.05-.2v-.15l.05-.15v-.05h.1l.2.05v.4m.55 1.45-.35-.3.05-.5.2.3.4-.1h.25l.2-.05v.25l-.5.15h-.1l.05.05-.2.2m-.95-.55v.1l-1.05.05v-.25l-.4-.2.45-.25.35.25.65.3m2.95.45v-.3l.45-.15v-.05l.1-.1h.1l-.05.6-.15.05-.45-.05m-.95 1.05.2-.3.4-.2.1-.1.9.05-.25.55-.95-.25-.25.2-.15.05m1.2-2.2.1-.1.5-.3-.3.3.3-.3.5-.45.35.1-.05.25-.05.05-.35.3-.3.35-.35.25.2-.6h-.05l-.2.05h-.05l-.25.1m1.65-.4.15.85-.65.7-.1-.65-.05-.55.65-.35m-6.2-1.85q-.15-.5.05-.95.05-.4.25-.7v-.3l.15.4.05.05.5 1.5h-1m.2.3.15.45.1.2-.1-.05-.05-.05-.05.25-.05.2-.1-.15-.05-.05-.2-.6v-.05l.1-.15h.25m.1 2.55.4-.2-.4.2" fill="#2b01d3" fill-rule="evenodd" transform="translate(-249.9 -191)"/><path d="m260.25 199.25.6-.8.5.2-1.05.95-.45.15h.05l.35-.5m-3.35-1.5.1.65.05.3h.1l.1.15.05.05h-.05l-.4-.2v-.05l-.35-.9h.4m.6 1.1v-.05.05m-.05-.6-.05-.05h.05v.05m.95 2h-.05l-.05-.05h.1v.05m-.15-.1-.15-.2-.05-.55.4.15-.15.35-.05.25m-.5-.2-.1-.1v-.6l.25.1-.15.55v.05m3 .6 1.15-1 .25.05h-.05l-.65.35-.6.6h-.1m-.2-.65 1.05-1.2.3.15-.35.3-.5.45-.5.3m-4.55-2.15h.3l.2 1-.25-.25-.25-.75" fill="#b5abfe" fill-rule="evenodd" transform="translate(-249.9 -191)"/><path d="m258.95 200.85.6-.2.65.5.45.05.15.1.3.15-.25.2-.9-.05-.1.1-.4.2-.7-.45-.35-.4.05-.05.5-.15" fill="#827bfd" fill-rule="evenodd" transform="translate(-249.9 -191)"/><path d="M9.85.85 9.8 1l-1 3.25-.05 1.4v.85l-.05.35m-1.55-4.1H7.1m1.15.95.55.55m4 1.45.45-.5-1.15.6-1.15.55h-.05l.05.75m-.6 1.15.6-.8m.4-3.3 1.7-.8L10.1 0 7.15 2.75m5.9.6L12.1 5.8m-4.3.35h-.05M7.4 5.9l.15.1v.05l-.25.3v.4m-.1-.25-.2.25m.6 1.05.1-.05m1-.8v.65l.55.75-.5.1M8.5 7.4l-.3.2-.5.15m1-.8v-.1m-1.1.95v.05m.9-.45.2.2m-.2-.2.05.3v.85l.2-.1m-.35.45-.05.25m.05-.25.15-.35-.4-.15M8 8.35l-.15.55m.45 1.35-.35-.3-.2-.2-.4-.05v.1l-1.05.05-.45-.3.05-.15-1.05-.8L5 7.5l.75-.4-.3-.65.85-1.65.95.95-.15-3m3.75 6.8 1.15-1 1-.9.25-2.45M8.55 10h-.1l.05.05.05-.05m-.05.05-.2.2-.25.2 1.3.75.2-.3-.7-.45-.35-.4m1.45-1.3-.15.05m1.05.1.3-.3m-.85 1.55.45.05.15-.05v.15l.3.15-.25.2-.25.55-.95-.25-.25.2-.15.05m1.6-1.65h-.1m-.5-1.3-.35.5m2-.9-.35.3-.5.45m.85-.05.25.05h-.05l.15.85-.65.7h-.8m.65-1.2-.6.6m1.25-.95-.65.35M6.45 5.2l.05.05m.9.65-.15-.15m.05.6-.1.15m.35.7H7.5m-1.4-.45.25.75m.25.25-.2-1m-.3 0H6m.45.95-.1-.2m-.15.65-.1-.2m-.35.1.3.25.15-.05m1.2-.35h-.05m-1.6-.8.2.4.15.45M5 7.5l.75.55m.55 1.8V9.6l-.4-.2m.8 0-.4.2m3.25 1.3.4-.2.1-.1.9.05m-.2-.45.15.1" fill="none" stroke="#fff" stroke-linecap="round" stroke-linejoin="round" stroke-width=".05"/><path d="m256 192.2.75.55.2-1.1.35 1.4.55-.65-.1.6 1.55-.4-1.1.65-.05-.05-.55.25h.25l-.4.2-.3.45q-.2.05-.1.15l-.05.1-.25-.1.2.2-.05.1-.15-.1-.05-.8h-1.6l1.65-.35-1.25-.25 1.3-.05-.8-.8M260.5 193.95l.8.5.2-1 .3 1.35.5-.6-.1.55 1.45-.4-1 .55h-.05l-.55.25.25-.05-.35.25-.3.45q-.2-.05-.05.1l-.1.1-.25-.1.2.2-.05.1-.15-.1v-.75h-1.5l1.5-.3-1.15-.35 1.2.05-.8-.8M259.05 198.1l.55.35.15-.75.2 1 .35-.45-.05.45 1.05-.35-.7.45h-.05q-.2.05-.35.2l.15-.05-.3.2-.2.3-.05.05v.1l-.2-.1.1.15v.05l-.15-.1v-.5h-1.05l1.1-.25-.9-.2h.95l-.6-.55M262.7 199l1.15-.6-.45.5-.8.4-.15.05-.9.2q.55-.3 1.15-.55m-2.6 2.6 1.4-2.05.05.75-1.45 1.3" fill="#fff" fill-rule="evenodd" transform="translate(-249.9 -191)"/><path d="m261.55 199.55.9-.2.15-.05.7-.35-1.75 1.7-.6.8-.1.1-.3.25q-.15.05-.25.15l-.05.05-.2-.15-.1-.1.15-.15 1.45-1.3-.05-.75h.05m-.4 2.65-.15.05-.1-.05v-.05l.25-.35H261l1.05-.95.25.05-1.05 1.2-.1.1m-1.1-.4v.05-.05" fill="#63f" fill-rule="evenodd" transform="translate(-249.9 -191)"/><path d="M262.7 199q-.6.25-1.15.55h-.05l-1.4 2.05-.15.15.1.1v-.05.05l.2.15.05.05.1-.05.6-.2h.15l-.25.35v.05l.1.05.15-.05.25-.1h.05l.2-.05h.05l-.2.6.35-.25.3-.35.35-.3.05-.05.05-.25-.35-.1.35-.3-.3-.15-.25-.05-.5-.2 1.75-1.7.1-.05.45-.5-.25 2.45-2.15 1.9-.1.1v.05l-.45.15v.3l-.65-.5-.6.2v-.25l-.2.05h-.25l-.4.1-.2-.3-.05.5-.2-.2-.4-.05-.65-.3-.35-.25-.45.25.15-1.1.15-.05h-.05l.05-.1-.75-1.7.85-1.65v.3q-.2.3-.25.7-.2.45-.05.95h.1l.1.3h-.25l-.1.15v.05l.2.6.05.05.1.15.05-.2.05-.25.05.05.1.05.05.05h.05l.1.1.1.05h.1v-.3l.1.05v.05l.4.2h.05l.2-.05V201l.9-.4-.1.15-.15.1-.25.1-.3.45.05.05v.15l-.2-.05h-.1v.05l-.05.15v.15l.05.2.2-.15v-.05.05l.1.05v.05l.15.15.1.05.1-.15.1.05.15.2.1.1h.05v.05h-.05l.3.05v.05h.1v-.6l-.1-.35.5-.1-.55-.75v-.65l.1.15.05.25.05-.05 1.15-3.15h.55l-.25 2.2.5-.65.5-1.55 1.7-.8-.95 2.45" fill="#0f0172" fill-rule="evenodd" transform="translate(-249.9 -191)"/><path d="m262.05 200.85-1.05.95-.45.15h.05l.35-.5.6-.8.5.2" fill="#b5abfe" fill-rule="evenodd" transform="translate(-249.9 -191)"/><path d="m261.45 202.1.3-.3.5-.45.35.1-.05.25-.05.05-.35.3-.3.35-.35.25.2-.6h-.05l-.2.05" fill="#2b01d3" fill-rule="evenodd" transform="translate(-249.9 -191)"/><path d="m11.85 10.8.5-.45" fill="none" stroke="#fff" stroke-linecap="round" stroke-linejoin="round" stroke-width=".05"/><path d="M252.2 197.25v.75q.1 1.75-.45 2.35l-.1-4 .5.75.05.05v.1l-.05-.15.05.15m-.45 3.2 1.45-.25.5 1.1.6 1h.15l-.1.05-.15.1h-.4l-.05.05-.25.05h-.35l-.4-.15 1.3-.1-2.3-1.85m5.6-1.75q.1-.6.35-1.25v.65l-.05.1-.1.5-.05.3-.1.1-.45.85.4-1.25m-3.45 6.45.2-.8.45.15.4.1-.15.4-.9.15m2.5-2.65h.95l-.55.15h-.2l-.05-.05h-.2l-.2-.15.25.05m-1.25 1.65-.1.05-.3-.1.4.05m-1.1-1.85h.25-.25m3.5.05-.6-2.4.55.5.05 1.9" fill="#fff" fill-rule="evenodd" transform="translate(-249.9 -191)"/><path d="M251.75 200.35q.55-.6.45-2.35v-.75l1.8 2.9-.8.05.8-.05-1.8-2.9v-.1l-.05-.05-.5-.75 2.35 1.05 1.1 1.35.5-.6.8 1.4.15.85-1.45-1.65-.35.4-.75 1 1 .95.45 1.2.05.4-.5-.05-.1-.05v.1l.1.25.3.15h.1l.4.2h.1l-.05.1.05.05-.1.2-.05-.05h-.25l-.2-.1h-.1l-.5-.35-.05-.3.05.3-1.5-.6h.3l.25-.05.05-.05h.4l.15-.1.1-.05h-.15l-.6-1-.5-1.1-1.45.25v-.1m7.8 3.95-1.4.55v-.35l-.05-.3-.05.05.05-.1v.05l.6.05.75-.3.1.35m-3.05 1.45-.5.1-.1-.15-1.3.3-.7-.85.9-.15.35-.1.75.8.45-.15.15.2m.45-5.8.45-.85.1-.1.05-.3.1-.5.15 2.45.2 1.05v.45l-.05.3v.1l-.25.05-.15-.05v-.2l-.05-1.9-.55-.5m-.8 2.1-.2-.05-.05-.05.25.1m1.2.45-.25.45.35.2.15.1v.05l.2.15.05.05-.05.05h-.05v.05l-.2.1-.1-.05-.05-.05-.15-.05-.05-.05-.2-.35.1-.2-.1.2-.65-.55h.2l.05.05h.2l.55-.15m-.25 1.25h-.1l.05.15v.05l-.1.05v-.05l-.1.05-.05-.05-.3-.5.15-.1.45.4m-1.8 0-.1.05.05.1.1.05.1.1-.2.1h-.1l-.85-.5.1-.15.9.25m.35-2.05.3.3-.15-.05-.15-.25m3.05.35-.05.1-.15.1-.05-.05-.05-.45h-.05l-.05.1v-1.45l.2-.1.25 1.55-.05.2m-1.05.5.05.05-.05-.05m-3.05.1-.1-.35h-.05.05l.1.35.05.2.25.1-.3-.3" fill="#63f" fill-rule="evenodd" transform="translate(-249.9 -191)"/><path d="M251.65 196.35h4.5l1.2 2.35-.4 1.25.6 2.4v.2l.15.05-.05-.05.05.05.25-.05.1-.05v-.05l.05-.2.25-.5h.05l.05.45.05.05.15-.1.05-.1.1-.3.05-.05.05-.2.05-.05.35.55v-.4l-.05-.5v-.4l-.05-.05-.1-.25q-.2.05-.25.2l-.05-.45-1 .5-.15-2.45.05-.1v-.65l1.6 1.8v2.85l.05.05v.2l-.15.4.15.2-.75.15-.3.55-.15-.15-.05.2-.2.2-.2.3h-.35l.35.35h-.3l-.25.3-.7.25-.45.1-.1.5-.75-.8.1-.15-.1-.05-1.05-.35-.7-.25-.65-1.7.2.15.35.7.65.65.15-.05.25.15q-.15.05-.15.2v.15h.1l.25.1.3.15h.1l.15.05-.1-.2-.2-.2.1-.05h.15l.1-.05h.1l.2-.1-.1-.1-.1-.05-.05-.1.1-.05.05.05.2-.1h.2l.05-.05.1-.2-.05-.05.05-.1.2-.5-.2.5h-.1l-.4-.2h-.05l.2-.05V203l.05-.05v-.05l.1-.15v.05l.2.05v-.25l.1.2h.1l.05-.35.05.15-.05.2-.05.25q-.1.35.1.55l.1-.05.1.1-.2.1-.05.15h.05l.05.15.15.15.15.05V204h.05l.1-.05h.05l.1.05.1-.05v.05l.1-.05v-.05l-.05-.15h.1l.25-.05.05.05h.1l.05-.05.2-.1v-.05h.05l.05-.05-.05-.05-.2-.15v-.05l-.15-.1-.35-.2.25-.45h-.95l-.45-.5.2.05.2.1-.05-.05-1.55-2.95.35-.4 1.45 1.65-.15-.85-.8-1.4-.5.6-1.1-1.35-2.35-1.05m8.65 5.5-.5.65-.45-.45-.05-.85.45.35.55.3m-4.15-5.5-.55 1.8.55-1.8m1.4 7.35-.05.05.05-.05" fill="#0f0172" fill-rule="evenodd" transform="translate(-249.9 -191)"/><path d="m254.75 199.15 1.55 2.95.05.05-.2-.1-.25-.1-.25-.25-.65-.6-1-.95.75-1m2.85 4.1v.05-.05m-.2.5-.05-.05-.15-.2.05.05.15.05.05.05-.05.1m-2.15.4h-.1.1m-.05-.65h.1l.2.1-.05.05-.25-.15m-.25 1.1.3.15-.1.15-.35.1.15-.4" fill="#e6dfff" fill-rule="evenodd" transform="translate(-249.9 -191)"/><path d="m259.45 200.5.8.45.05.9-.55-.3-.45-.35.15-.7m.75 2.25.25.55-.85.55v.35l-.05.1-.1-.35.1-.4v-.15l.65-.65m-2.05 1.75-.45.05-.35-.35h.35l.2-.3.2-.2.05-.2.15.15-.2.5-.05.1.05-.05.05.3m-1 .35v.1l-.65.8-.15-.2.1-.45-.1.45-.45.15.1-.5.45-.1.7-.25m-1.2-2.85.45.5-.25-.05.2.15.65.55-.35.2-.15.1-.3.15q-.2-.2-.1-.55l.05-.25.05-.2-.05-.15-.05.35h-.1l-.1-.2v.25l-.2-.05v-.05l-.1.15v.05l-.05.05v.05l-.2.05h-.05l-.3-.15-.1-.25v-.1l.1.05.5.05-.05-.4-.45-1.2.65.6.15.25.15.05m1.6 1.7-.05.05.05-.05m-.85.25-.1.05h-.05v.25l-.15-.05-.15-.15-.05-.15h-.05l.05-.15.2-.1.3.3m-1.65.25h-.15l-.1.05.2.2.1.2-.15-.05h-.1l-.3-.15-.25-.1h-.1v-.15q0-.15.15-.2l.4.1.3.1m-.95-.35-.15.05-.65-.65-.35-.7-.2-.15.4.15h.05l1.5.6-.3.35-.1.15-.2.2m5.25-.9-.15-.2.15-.4v-.2l-.05-.05.05-.05.45.45-.05.1q-.25.2-.4.35m-.65-.9.05-.2.05-.55.05.4-.05-.4.05-.7q.05-.15.25-.2l.1.25.05.05v.4l.05.5v.4l-.35-.55-.05.05-.05.2-.05.05-.1.3m-.6.2-.05.2v.05l-.1.05v-.1l.05-.3v-.45l.1.55m-.4.35-.05-.05.05.05" fill="#2b01d3" fill-rule="evenodd" transform="translate(-249.9 -191)"/><path d="m259.3 200.6.2-.15-.05.05-.15.7.05.85-.05.05v-1.5m-1.75 3.1-.05.05h-.1l.05-.1.1.05m-.2 0-.25.05-.45-.4.35-.2.2.35.15.2m-.5.3-.1-.05h-.05l-.4-.4.2-.1.3.5.05.05m-1-.6.05.05-.05-.05m-.05.25-.05.05h-.2l-.2.1-.05-.05-.9-.25.3-.35.5.35.25.15.05-.05h.25l.05.05m-1.45.35-.25-.15.2-.2.85.5-.4-.05-.4-.1m1.05-.9h-.1.1m3.35-1.25-.25-1.55.3-.15.05.45-.05.7-.05.55m-.45-1.45v1.45l-.2.4-.1-.55-.2-1.05.5-.25" fill="#b5abfe" fill-rule="evenodd" transform="translate(-249.9 -191)"/><path d="m259.9 202.55.3-.05v.25l-.65.65v.15l-.1.4-.75.3-.6-.05v-.05l.2-.5.3-.55.75-.15q.15-.15.4-.35l.15-.05" fill="#827bfd" fill-rule="evenodd" transform="translate(-249.9 -191)"/><path d="M1.85 9.35v.1M3.3 9.2l.8-.05-1.8-2.9-.05-.15m-.5-.75.1 4m-.1-4h4.5l1.2 2.35q.1-.6.35-1.25l1.6 1.8V9.6l.2-.15-.05.05.8.45.05.9-.5.65.1.05.3-.05v.25l.25.55-.85.55v.35l-.05.1-1.4.55v-.35l-.45.05h-.3l-.25.3v.1l-.65.8-.5.1-.1-.15-1.3.3-.7-.85.2-.8-.7-.25-.65-1.7 1.3-.1-2.3-1.85m3.85-2.3.55-1.8M7.8 7.1v-.65M6.05 11l.45.5h.95l-.25.45m-.95-.5-.05.35-.2.5-.05.1.05.05M4.45 13l-.25-.15-.15.05m-.8-1.35h.05m1.25-.25h-.4M4.1 9.15l1 .95.65.6.25.25m.05.05L6 10.95m-.6 1.15h.05m.8-.65.25.05m-.25-.05.2.15.65.55.1-.2m.1.55.15.2m-.15-.2-.2-.35-.35.2m-.15.1.3.5m2.55-1.8-.05-.05V9.6m-1.2 3.6v-.05l-.05.1.05-.05.6.05.75-.3.1-.4v-.15l.65-.65M8.2 13.2l.05.3m-.05-2.25-.05.2m-1.1-2.5.4-1.25m1.5 3-.05-.4.05-.7m-.85 1.1-.2-1.05m1.55 2.3q.15-.15.4-.35l.05-.1m-.45-.45-.05.05m-1.3-.4.1.55m-1.15-2.3.55.5m1.3-.3.05.45m.45.6.05.85m.1-1.55-.15.7m-4.85 1.1h.05l.1.35.3.3m-.25-.1.05.3m-.1-.5.05.2m-.35.8.85.5m-.1.05-.3-.1-.4-.1m.6.6.2.1m-.6-.2.4.1m-.15.4.35-.1.1-.15m-1.35.4.9-.15m-.7-.65.45.15m1.9.6-.1.45.15.2m-.15-.2L6 14.7m3.65-1.4-.1-.35m.3-1.35.15-.05" fill="none" stroke="#fff" stroke-linecap="round" stroke-linejoin="round" stroke-width=".05"/><path d="m249.9 200.2.9-.25-.7-.85 1.35.65-.15-.8.35.5.7-1.45-.2 1.2-.05-.05-.15.65.1-.2-.05.45.1.55q-.15.1.05.1l.05.15-.25.1.25-.05v.1l-.1.1-.6-.55-1.1 1.25.85-1.5-1.05.75.85-.95-1.15.1M254.25 197.95l.9-.25-.65-.8 1.25.65-.15-.75.35.45.7-1.4-.2 1.15h-.05l-.15.6.1-.2-.1.4.15.55q-.15.1.05.15v.05l-.2.1h.25v.1l-.15.05-.55-.45-1 1.1.75-1.35-.95.7.8-.95-1.15.1M256.35 201.8l.6-.2-.45-.55.9.45-.1-.5.25.3.45-1.05-.1.85h-.05l-.1.45.05-.15-.05.3.1.4v.05l.05.1-.15.1.2-.05v.1l-.15.05-.4-.4-.7.85.6-.95-.8.45.6-.65-.75.05M259.45 199.65l.35-1.25v.65l-.05.1-.1.5-.05.3-.1.1-.45.85.55.5.05 1.9-.6-2.4.4-1.25" fill="#fff" fill-rule="evenodd" transform="translate(-249.9 -191)"/><path d="m259.75 199.15.15 2.45.2 1.05v.45l-.05.3v.1l-.25.05-.15-.05v-.2l-.05-1.9-.55-.5.45-.85.1-.1.05-.3.1-.5m.65 2.2.2-.1.25 1.55-.05.2-.05.1-.15.1-.05-.05-.05-.45h-.05l-.05.1v-1.45m-.65 2.15.05.05-.05-.05" fill="#63f" fill-rule="evenodd" transform="translate(-249.9 -191)"/><path d="m259.8 198.4 1.6 1.8v2.85l.05.05v.2l-.15.4.15.2-.75.15-.3.55-.15-.15-.05.2-.2.2-.2.3h-.35l.35.35h-.3l-.25.3-.7.25-.45.1-.1.5-.75-.8.1-.15-.1-.05-1.75-.6-.65-1.7.2.15.35.7.65.65.15-.05.25.15-.15.2v.15h.1l.25.1.3.15h.1l.15.05-.1-.2-.2-.2.1-.05h.15l.1-.05h.1l.2-.1-.1-.1-.1-.05-.05-.1.1-.05.05.05.2-.1h.2l.05-.05.1-.2-.05-.05.3-.95.05.15-.05.2-.05.25q-.1.35.1.55l.1-.05.1.1-.2.1-.05.15h.05l.05.15.15.15.15.05v-.25h.05l.1-.05h.05l.1.05.1-.05v.05l.1-.05v-.05l-.05-.15h.1l.25-.05.05.05h.1l.05-.05-.05.05.25-.15v-.05h.05l.05-.05-.05-.05-.2-.15v-.05l-.15-.1-.35-.2.25-.45h-.95l-.45-.5.2.05.2.1-.05-.05-1.55-2.95.35-.4 1.45 1.65-.15-.85-.8-1.4.55-1.8 1.2 2.35-.4 1.25.6 2.4v.2l.15.05-.05-.05.05.05.25-.05.1-.05v-.05l.05-.2.25-.5h.05l.05.45.05.05.15-.1.05-.1.1-.3.05-.05.05-.2.05-.05.35.55v-.4l-.05-.5v-.4l-.05-.05-.1-.25-.25.2-.05-.45-1 .5-.15-2.45.05-.1v-.65" fill="#0f0172" fill-rule="evenodd" transform="translate(-249.9 -191)"/><path d="m259.9 201.6.5-.25v1.45l-.2.4-.1-.55-.2-1.05" fill="#b5abfe" fill-rule="evenodd" transform="translate(-249.9 -191)"/><path d="m260.95 201.55.25-.2.1.25.05.05v.4l.05.5v.4l-.35-.55-.05.05-.05.2-.05-.4.05-.7" fill="#2b01d3" fill-rule="evenodd" transform="translate(-249.9 -191)"/><path d="m11 11.25.05-.7" fill="none" stroke="#fff" stroke-linecap="round" stroke-linejoin="round" stroke-width=".05"/><path d="m264.75 197.55.1-.15-.1.15-.75.1-2.4.1 3.85-.95-.6.6-.1.15m-.35 5.25 1.3.05-.65.2h-.9l-.1-.05-.9-.25 1.25.05m-7.05-1.9.85-.05-.05.45-.05.5-.35-.15-.4-.75m2.5-1.75.4 1.25 1.25-2.65.55 1.4q-.5.3-.95.7l-.85.8.05.15-.15-.15v-.05l-.2-.4-.1-.25-.1-.3v-.1l.1-.4m1.05 4.7 2.2-1.1-.3.65-1.9.45m-.4-1.1.25.95q-.2-.2-.25-.55l-.05-.05h-.05l.05-.1-.05-.05.05-.05-.05-.15.05-.25.05.25m-.25-2.35v.25-.25m-1.65 1.15.05.35-.1-.1v-.05l.05-.2" fill="#fff" fill-rule="evenodd" transform="translate(-249.9 -191)"/><path d="m264.75 197.55.1-.15.6-.6-.45 2.5-1.15 1.35-.45-.25-1.1-.55 2.45-2.3-2.45 2.3-.7 1.25-1.1.65-.35.15-.1-.5.05-.1-.1.05-.25.1-.05.4v.05l-.05.4-.05.15-.1-.05-.05.05-.15-.05-.05-.05.05-.2-.05-.05v-.25l.25-.65.3-.1-.3.1.25-1.55.1.3.1.25.2.4v.05l.15.15-.05-.15.85-.8q.45-.4.95-.7l.25.7-.25-.7-.55-1.4h.1l2.4-.1.75-.1m-5.35 8.65-.8-1.25.3-.1.3-.05-.05-.05.1.05h-.05l.15.55.4.7-.35.15m-2-2.65-.25-.45.1-.15-.5-1.15.6-.9.4.75.2.45-.7.85.25.4-.1.2m5.75-.8.9.25.1.05h.85l-2.4.65-.95.4-.1.05-.7.1-.05-.05-.1-.15h.05l-.05-.05h-.05v-.05l.25-.1 1.9-.45.3-.65h.05m-.2 1.4.2.15-1.5.55h-.3l-.1-.1v-.05l.45-.2h-.15l1.4-.35m-1.85-2.3-.15.25-.05.25v-.3l.2-.2m-.65-.85h.05-.05m-.5 0 .35-.15v-.05.05l-.35.15-.15.1-.05.25.2-.35m1 1.1-.05.1.05-.1m-.2 1.6-.55-.15-.05.3-.1.2-.15.25-.1.1-.05-.05.05-.05h-.05l-.2-.2.05-.05V204l.05-.05v-.2l.05-.05.3-.2.2.05-.2-.05.4-.75.05.15-.05.05.05.05-.05.1h.05l.05.05q.05.35.25.55m-1.3-.05v-.05q-.15 0-.15.1l-.1-.1v-.05l-.05-.05v-.05l.45-.4.1.15-.25.45m5.1-2.65-1.2 1.1-.75.35 1.25-1.8.7.35m-5.9.9.3-1 .2.1-.15.95-.05-.15-.15.3-.15-.15v-.05" fill="#63f" fill-rule="evenodd" transform="translate(-249.9 -191)"/><path d="m263.4 200.4.45.25 1.15-1.35.45-2.5 1 4.4-2.05 1.6-1.25-.05h-.05l-2.2 1.1-.25.1v.05h.05v.05l.1.15v.15h.3l.45.15h.15l-.45.2v.05l.1.1h.15l.25.1h.05l.15.05h.1l-.45.45.4-.1.45-.1.4-.1.1-.05.15-.2-.25-.2.5-.15-.2-.25-.2-.15-.35-.45 2.4-.65h.05l.65-.2-1.4 2.05-1.25.25-1.5.35h-.1l-.05.05h-.1l-.4-.05-.2.25-.3-.75-.6-.1.1-.2-.15-.05-.25-.2-.4-.05-.05-.4-.25.45-.1-.3-.35-.25-.45-.55-.1-.35-.55-.05.7-.85h.1-.05l.1-.1.05-.7.05-.45.1-.7 1.55-1-.15.25-.6.45-.5.85.1.05-.05.3-.25-.15-.15.1v.1l-.1.6.05.05-.05.15v.05q.05-.1.15-.1l.15-.25.05.1.05.05v.05l.05.05.05.1.15.15.15-.3.05.15.05.05.1.15.1.2.05.05.15.05.05-.05.1.05.05-.15.05-.4v-.05l.1.15.05.05h.15l.1.05-.05.2h.25l-.2.15h.05l.3.05-.1.05-.2.05h-.25q-.3-.05-.5.2v.05l-.05.15-.1-.15-.15-.05v.05l-.15.15-.05.1-.05.15h.2l.1-.05-.05.05.05.1-.05.05.05.1.05.05v.05l.1.1q0-.1.15-.1v.05l.1.3-.05.05.05.05h.05l-.05.05.2.2h.05l-.05.05.05.05.1-.1.15-.25.1-.2.05-.3.55.15-.25-.95.4-.55v.15l-.05.25.05-.05 2.5-2.15m-1.45 6.05-.7-.4.35-.5.8-.25-.25.45-.2.7m4.5-5.25-1.9-.2 1.9.2m-5.95-.2h-.05.05m-.95 3.1h-.05.05m.05-1.65h.55-.55m4.95-1.45-.7-.35-1.25 1.8.75-.35 1.2-1.1" fill="#0f0172" fill-rule="evenodd" transform="translate(-249.9 -191)"/><path d="m262.3 199.85 1.1.55-2.5 2.15-.05.05.1-.5.15-.25.5-.75.7-1.25m-3.05 2v.25l-.1-.05.1-.2m.25 2.15.05-.05.15-.25-.05.05v.2l-.05.05h-.1m-1.4-2-.1.1h.05-.1l-.2-.45.35.15v.2m.5-.15.05.05v.05l-.05-.1" fill="#e6dfff" fill-rule="evenodd" transform="translate(-249.9 -191)"/><path d="m263.1 205.3-.25.85-.9.3.2-.7.25-.45h.7m-2.05 1.2-.45.35-.75-.7-.3.1-.15-.05.35-.15h.45l.1-.05.75.5m-2.15-1.65-.1-.4.25-.45.05.4.4.05.25.2.15.05-.1.2-.55-.1-.1-.05.05.05-.3.05m-.55-.95-.05.1-.9-.45.1-.2h.4-.4l-.25-.4.55.05.1.35.45.55m4.5.8.25.2-.15.2-.1.05-.4.1-.45.1-.4.1.45-.45h-.1l-.15-.05h-.05l-.25-.1h.7l-.4.1.4-.1.65-.15m-1.75-.35h-.3v-.15l.05.05.7-.1.1-.05-.55.3v-.05m-.4-.3V204l.05.05h-.05m.9-2.95-.5.75-.2.2v.15l-.4.55-.05-.25-.05.25-.4.75-.3-.3-.1-.15-.2-.2v-.05q.2-.25.5-.2h.25l.2-.05.1-.05-.3-.05h-.05l.2-.15h-.25l.05-.2-.1-.05h-.15l-.05-.05-.1-.15.05-.4.25-.1.1-.05-.05.1.1.5.35-.15 1.1-.65m-2.05 3h-.05.05m-.4-.75-.05-.1.05-.05-.1.05h-.2l.05-.15.05-.1.15-.15v-.05l.15.05.1.15-.2.35m1.55 2.4.2-.25.4.05h.1l.05-.05h.1l.05.05-.35.5-.15-.05-.4-.25m-.85-6.6-.1.4v.1l-.25 1.55-.35-.2-.2-.1-.25-.15-.1-.05.5-.85.6-.45.15-.25m-1.2 1.9-.05.5-.05.2-.05-.05-.05-.1-.15.25q-.1 0-.15.1v-.05l.05-.15-.05-.05.1-.6v-.1l.15-.1.25.15" fill="#2b01d3" fill-rule="evenodd" transform="translate(-249.9 -191)"/><path d="m263.05 205.15.15.2-.1-.05h-.7l-.8.25-.05-.05 1.5-.35m-.45-1.45.35.45-1.4.35-.45-.15v.05l.55-.3.95-.4m.55.6.2.25-.5.15-.65.15h-.55l1.5-.55m-3.65-3.1-.25.65-.1.2.1.05.05.05-.05.2.05.05-.05-.05-.1-.2-.1-.15-.05-.05.15-.95.35.2m-.05 1.25.05-.05-.05.05m.25-.55v-.05.05m-.1 2.15h-.05l-.05-.05h.1v.05m-.05-.1-.1-.3.25-.45.3.3-.3.2-.15.25m-.4-.45-.05-.1.05-.05.2-.35.05-.15.2.2-.45.4v.05m-.45-2.75.25.15-.3 1-.05-.35.05-.5.05-.3" fill="#b5abfe" fill-rule="evenodd" transform="translate(-249.9 -191)"/><path d="m261.15 206.2.2.25-.3.05-.75-.5-.1.05h-.45l-.4-.7-.15-.55h.05l.55.1.6.1.3.75.4.25.05.2" fill="#827bfd" fill-rule="evenodd" transform="translate(-249.9 -191)"/><path d="m14.95 6.4-.1.15-2.45 2.3-.7 1.25-.5.75-.15.25m4.5-5.3-3.85.95m3.85-.95 1 4.4-2.05 1.6 1.3.05-1.4 2.05-1.25.25.15.2-.1-.05-.25.85-.9.3-.7-.4-.1.15.2.25-.3.05-.45.35-.75-.7-.3.1-.15-.05-.8-1.25.3-.1-.1-.4-.1-.3-.35-.25-.05.1-.9-.45-.25-.45.1-.15-.5-1.15.6-.9.85-.05.1-.7 1.55-1 .4 1.25 1.25-2.65h.1m3.45 5.3.65-.2m-2.35 1.7-.5.15m-1.75-.35h-.15m2.15-1.6h.05l1.25.05m.15-1.8 1.9.2M10.6 10h-.05m1.6-1.85.25.7m-2.05.8.05.15v.05l-.35.15-.2.35m.05-.25-.3.1m0 1.2.1.05m1.3-.25.05-.1m-.05.1-.4.55.25.95-.55-.15m.25-1.05-.3-.05H9.7m-.1-.05-.05.05m1 .05.05.25m-.05-.25-.05.25-.4.75.2.05m-.5.15-.15.25m.15-.25.3-.2-.3-.3m-.1-.15-.45.4m2.3 2.05h.1l1.5-.35m-3.8-.35-.1-.05.05.05h.05m-.05 0-.3.05m2.75-.75.95-.4m-1.9 2.05.4.25.15.05m.35-.5-.05-.05m.1-1.4-.55.3m2-1.65-.3.65m-.4 1.9-.8.25m1.5-.25h-.7m-.2-.45.65-.15m-1.05.25.4-.1m-2.45-5.3v.1m.5 1V9.4m-.3.6-.15.1m-1.1-.35-.05.3-.05.5m.05.35.3-1m-.25-.15-.1-.05m-.05 1.05.05-.2m-.55.55h-.1m.15-.3v.2m.05-.7-.05.5m-.35-.15.2.45m1.35.3-.05-.05M8.3 9.85l-.05.45m-.8-.4.4.75m-.25 1.7-.1.2m.5-.2h-.4l-.25-.4m2.5 3.1-.4-.7-.15-.55m.2 1.4.35-.15h.45l.1-.05.75.5m.05-.5.05.2" fill="none" stroke="#fff" stroke-linecap="round" stroke-linejoin="round" stroke-width=".05"/><path d="m261.35 195.9.45.8.65-.85-.4 1.4.8-.3-.35.5 1.55.35-1.25.05-.05-.05-.6-.05.25.1h-.5l-.45.25q-.2-.1-.15.1l-.1.05-.15-.2.05.25-.05.05-.15-.15.4-.7-1.35-.75 1.5.45-.95-.9 1.15.65-.3-1.05M264.55 199.7l.4.75.65-.8-.4 1.35.7-.3-.35.45 1.45.35h-1.15l-.6-.05.25.1h-.45l-.45.25q-.15-.1-.1.1h-.15l-.1-.2.05.25-.1.05-.05-.15.3-.6-1.25-.75 1.45.45-.95-.8 1.1.55-.25-1M261.15 202.55l.35.55.45-.55-.25.95.5-.2-.25.3 1.05.25h-1.25l.15.05h-.35l-.3.2h-.1l-.05.05-.1-.1v.15h-.05l-.05-.05.25-.5-.95-.55 1.05.4-.6-.65.75.45-.25-.75M265.25 205.1l-.65.2h-.9l-.1-.05-.9-.25 1.25.05 1.3.05m-4.8 1 2.2-1.1-.3.65-1.9.45" fill="#fff" fill-rule="evenodd" transform="translate(-249.9 -191)"/><path d="m262.7 205 .9.25.1.05h.85l-2.4.65-.95.4-.1.05-.7.1-.05-.05-.1-.15h.05l-.05-.05h-.05v-.05q.1-.1.25-.1l1.9-.45.3-.65h.05m-.2 1.4.2.15-1.5.55h-.3l-.1-.1v-.05l.45-.2h-.15l1.4-.35" fill="#63f" fill-rule="evenodd" transform="translate(-249.9 -191)"/><path d="M264.55 205.3h.05l.65-.2-1.4 2.05-2.75.6h-.1l-.05.05h-.1l-.4-.05-.2.25-.3-.75-.6-.1.1-.2-.15-.05-.25-.2-.4-.05-.05-.4-.25.45-.1-.3-.35-.25-.45-.55-.1-.35-.55-.05.7-.85h.1-.05l.1-.1.2-1.85 1.55-1-.15.25-.6.45-.5.85.1.05-.05.3-.25-.15-.15.1v.1l-.1.6.05.05-.05.15v.05l.15-.1.15-.25.05.1.05.05v.05l.05.05.05.1.15.15.15-.3.05.15.05.05.1.15.1.2.05.05.15.05.05-.05.95.1-.1.05-.2.05h-.25q-.3-.05-.5.2v.05l-.05.15-.1-.15-.15-.05v.05l-.15.15-.05.1-.05.15h.2l.1-.05-.05.05.05.1-.05.05.05.1.05.05v.05l.1.1q0-.1.15-.1v.05l.1.3-.05.05.05.05h.05l-.05.05h-.05l.25.2h.05l-.05.05.05.05.1-.1.15-.25.1-.2.05-.3.55.15-.25-.95.4-.55v.15l-.05.25.05-.05 2.5-2.15.45.25-1.25 1.8.75-.35 1.2-1.1 1.9.2-2.05 1.6-1.25-.05h-.05l-2.2 1.1q-.15 0-.25.1v.05h.05v.05l.1.15v.15h.3l.45.15h.15l-.45.2v.05l.1.1h.15l.25.1h.05l.15.05h.1l-.45.45.4-.1.45-.1.4-.1.1-.05.15-.2q-.05-.15-.25-.2l.5-.15-.2-.25-.2-.15-.35-.45 2.4-.65" fill="#0f0172" fill-rule="evenodd" transform="translate(-249.9 -191)"/><path d="m262.15 205.95.35.45-1.4.35-.45-.15v.05l.55-.3.95-.4" fill="#b5abfe" fill-rule="evenodd" transform="translate(-249.9 -191)"/><path d="M262.4 206.95q.2.05.25.2l-.15.2-.1.05-.4.1-.45.1-.4.1.45-.45h-.1l-.15-.05.4-.1.65-.15" fill="#2b01d3" fill-rule="evenodd" transform="translate(-249.9 -191)"/><path d="m11.85 16.1.65-.15" fill="none" stroke="#fff" stroke-linecap="round" stroke-linejoin="round" stroke-width=".05"/></g></defs></svg>