<svg viewBox="0 0 37.98 34" xmlns="http://www.w3.org/2000/svg" xmlns:xlink="http://www.w3.org/1999/xlink"><g transform="translate(-219.47 -208.8)"><use transform="translate(219.45 208.8)" width="38" height="34" xlink:href="#a"/><use transform="translate(223.5 225.5) scale(.6901)" width="7.1" height="8" xlink:href="#b"/></g><defs><path d="M6.35.45q.8.65.75 1.8-.05 1.2-.9 2.25-.85 1-2 1.3t-1.95-.35q-.75-.6-.75-1.85.1-1.2.95-2.2Q3.3.35 4.4.05q1.2-.2 1.95.4m-4.7 7-.75.5-.65-.1-.25-.6q.05-.5.4-.8l.65-.5.65.1.25.6-.3.8" fill="#fff" fill-rule="evenodd" id="c"/><use width="7.1" height="8" xlink:href="#c" id="b"/><g id="a"><path d="m237.1 223.5-.55.05h-.15l.3-.25.15-.15.45-.2-.2.55m-9.7 19.25q-.2-1.5.25-2.9l.85 1.45-.6.65-.5.8" fill="#7c340e" fill-rule="evenodd" transform="translate(-219.45 -208.8)"/><path d="m232.15 236.45-.25.2.05-.1.2-.1m-3.05 5.3h.3l-.15.3-.2.1.05-.4" fill="#6c260d" fill-rule="evenodd" transform="translate(-219.45 -208.8)"/><path d="m230.95 237.2.3-.25v.05l-.3.2" fill="#dca654" fill-rule="evenodd" transform="translate(-219.45 -208.8)"/><path d="m223.95 234.7.1.05v.15l-.1-.2" fill="#ae4913" fill-rule="evenodd" transform="translate(-219.45 -208.8)"/><path d="m17.85 14.15-.2.55M9.6 33.35l.05-.4m-.6-.45-.6.65-.5.8" fill="none" stroke="#6c260d" stroke-linecap="round" stroke-linejoin="round" stroke-width=".1"/><path d="M4.6 26.1v-.15l-.1-.05" fill="none" stroke="#7c340e" stroke-linecap="round" stroke-linejoin="round" stroke-opacity=".502" stroke-width=".1"/><path d="M221.9 219.95q-.5.1-.9.35-1.05.65-.85 1.75.4 2.45 2.2 4.5l-.4.6-1.55-2.75-.75-1.75q-.25-.8-.15-1.6.15-.85 1.5-1.5 1.35-.7 4.15-.7 2.95.3 5.65-.75 1.2-.5 1.8-1.6l.8-1.6q.95-1.9 2.35-3.55.55-.7 1.35-1.1 2.4-1.2 5.3-1.45l5.2.55q2.7.7 4.35 2.75.9 1.1.5 2.4-.35 1-1.35 1.5l-2.35.8-.55.1q-1.15.3-2.3 1.1l-.5.6q-.2.35-.05.75.2.8 1.05 1.1.45.15.9.65.35.4.9.4h.4q2.95-.05 5.6.95 1.15.45 1.9 1.3 1.4 1.65 1.35 3.75-.1 2.25-1.2 4.3-1.25 2.25-3.45 3.85-2 1.4-4.4 2.25-2.5.85-5.15.65l-4-.45-.3-.05-1.85-.65.6-.95 2 .75.7.2 5.25.4q2.65-.4 4.15-1.1l3.2-2.1q1.7-1.35 3.05-3.65.6-1 .6-2.15 0-2.6-1.9-4.55-.55-.6-1.25-1-2.25-1.35-5.05-1.3h-.25q-.8-.05-1.35-.5l-1.2-.95q-.8-.4-1-1.05l-.05-.75q.45-1.7 3.6-2.8l1.25-.4q1.05-.45 1.55-1.35l.15-.5q-.2-2.15-2.55-3.1-2.55-1.1-5.35-1.15-2.75-.15-5 1.15-1.3.7-2.25 1.8-1.6 1.7-2.5 3.75l-.5 1-.55.85-.8.5q-2.05.95-4.4 1l-5.35.5" fill="#6c260d" fill-rule="evenodd" transform="translate(-219.45 -208.8)"/><path d="m231.85 236.6.1-.05-.05.1-.05-.05" fill="#cf8e52" fill-rule="evenodd" transform="translate(-219.45 -208.8)"/><path d="m221.6 237.9-1.2-.55.45-.6q.65-.65 1.2-.7l.6.75-1.05 1.1" fill="#7c340e" fill-rule="evenodd" transform="translate(-219.45 -208.8)"/><path d="M223.85 225.1q.7-.8 1.6-1.3.55-.35 1.15-.55l2-.35 1.55.3 1.05.5.45.25.65.65.5-.5.65-.15-.05.5v.2l.05.1-.2.2-.1.05-.25.45.2.45.65 2.1q.25 1.35-.15 2.7l-.4 1.45-1 1.95-.05.05-.25.35-1.15 1.15h.05-.05l-.1.1-.6.4-.1.25-.05.1.05.45-.3-.35v-.2l-.55.3-1.1.4-.2.05-2.45.05-.3-.1-1.6-.85-.95-1.05-.4-.65-.4-1q-.9-2.6.25-5.45.65-1.8 1.9-3m.2 9.8.1.15.05.05q0-2.65 1.15-3.9-.15 2.05.65 4l.55 1.1 1.9-.45 1.1-.65q1.25-.85 1.5-1.9l-.75-1.25-2.3-2.15q2.6.45 3.95 1.95 1.45-2.2.65-4.95-2.3-.8-4.3.7 1.1-1.85 2.45-2.15l.05-1.2q-.05-.35-1.5-.65l-1.65.45q-.85.4-1.8 1.05l-1 .9.95 2q-1.45-.9-2.1-.15-.8 1.75-.65 3.9.1 1.6.9 2.95l.1.2" fill="#383889" fill-rule="evenodd" transform="translate(-219.45 -208.8)"/><path d="M223.95 234.7q-.8-1.35-.9-2.95-.15-2.15.65-3.9.65-.75 2.1.15l-.95-2 1-.9q.95-.65 1.8-1.05l1.65-.45q1.45.3 1.5.65l-.05 1.2q-1.35.3-2.45 2.15 2-1.5 4.3-.7.8 2.75-.65 4.95-1.35-1.5-3.95-1.95l2.3 2.15.75 1.25q-.25 1.05-1.5 1.9l-1.1.65-1.9.45-.55-1.1q-.8-1.95-.65-4-1.15 1.25-1.15 3.9l-.05-.05-.1-.15v-.15l-.1-.05" fill="#a3b5e0" fill-rule="evenodd" transform="translate(-219.45 -208.8)"/><path d="m231.15 219.9 1.25.1 1.25.35.8.3 1.2.7q-1.65-.75-2.85 1.25l-.75-.5q-.7.25-.8 1.3l-.05.3-1.05-.5-1.55-.3-2 .35q-.6.2-1.15.55-.9.5-1.6 1.3.2-1 .65-1.85l1.1-.75q1-.6 1.95-.85l1.1-.2h1.2q.05-1.1 1.3-1.55m-5.45 22.55-1.15-.5-.7-.35-.75-.5-.7-.55q-.1-2 1.35-2.8l-1.1-.95-.6-.75-.45-.8.05-.05.45-.65.4.65.95 1.05 1.6.85.3.1-.1.15q-.4.55-.1 1l1.6.3q-1.4 1.65-1.05 3.8m9.25-16.95.15.4.45 2.2q.15 2.1-.7 4.35l-1.6 2.75-.3.4-.25.25.05.05-1.35 1-.15.1v-.05h-.05l1.2-1.35h.05l.3-.4q.95-1.4 1.35-3.2l.1-.8q.4-2.35.05-4.7l.7-1" fill="#ad8e45" fill-rule="evenodd" transform="translate(-219.45 -208.8)"/><path d="m231.2 223.7.05-.3q.1-1.05.8-1.3l.75.5.65.5.8 1.05.7 1.35-.7 1q.35 2.35-.05 4.7l-.1.8q-.4 1.8-1.35 3.2l-.3.4h-.05l-1.2 1.35h.05l-.3.25.9-.6.05.05-.5.35-.8.55q-1.95 1.15-3.85 1.1l-1.6-.3q-.3-.45.1-1l.1-.15 2.45-.05.2-.05 1.1-.4.55-.3v.2l.3.35-.05-.45.05-.1.1-.25.6-.4.1-.1h.05-.05l1.15-1.15.25-.35.05-.05 1-1.95.4-1.45q.4-1.35.15-2.7l-.65-2.1-.2-.45.25-.45.1-.05.2-.2-.05-.1v-.2l.05-.5-.65.15-.5.5-.65-.65-.45-.25" fill="#92773a" fill-rule="evenodd" transform="translate(-219.45 -208.8)"/><path d="M232.8 222.6q1.2-2 2.85-1.25l.75.65.9.95-.45.2-.15.15-.3.25h.15l.55-.05.8.35.1.15.2.5.2.4q-1.1-.35-2.05 0l.5.1-.05.15q-.25-.2-.25.6V228q.35 3.9-1.75 7.2v.05l-1.3 1.65-.3.35-.05-.05-1.55 1.3v.05l-.2.15-.55.35-1.15.55-.35.1.8 1.15-.8-.25-.5-.4v1.6h-.05l-1.15-1.95q-.45 1.4-.25 2.9l-.8-.15-.9-.15q-.35-2.15 1.05-3.8 1.9.05 3.85-1.1l.8-.55.5-.35.25-.2-.3.15-.45.3 1.35-1-.05-.05.25-.25.3-.4 1.6-2.75q.85-2.25.7-4.35l-.45-2.2-.15-.4-.7-1.35-.8-1.05-.65-.5" fill="#7d6631" fill-rule="evenodd" transform="translate(-219.45 -208.8)"/><path d="m238.4 224.9.25.5.3 1.05.25 1.05.15 1.05.05.75v1.4l-.15 1.05-.25 1.15-.35 1.15-.45 1.1-.05.05-.45.95-.6 1.05-.65.9-.7.85-.75.8-.8.7-.95.6-.9.55-.85.45-.9.35-.7.2-.85-.45.2-.1.15-.3h-.3l-.25.05v-1.6l.5.4.8.25-.8-1.15.35-.1 1.15-.55.55-.35.2-.15v-.05l1.55-1.3.05.05.3-.35 1.3-1.65v-.05q2.1-3.3 1.75-7.2v-2.25q0-.8.25-.6l.05-.15-.5-.1q.95-.35 2.05 0" fill="#544521" fill-rule="evenodd" transform="translate(-219.45 -208.8)"/><path d="M231.15 219.9q-1.25.45-1.3 1.55h-1.2l-1.1.2q-.95.25-1.95.85l-1.1.75-1.4 1.4-.75 1.05-.65 1.2-.3.7q-1.3 3.4-.3 6.55l.45 1.05.05.05.45.8q-.55.05-1.2.7l-.45.6-.35-1.1-.2-1v-.05l-.15-1-.05-1.1.05-1.1.15-1.05q.05-.6.25-1.1l.3-1.15.45-1.1.5-1.1.6-1 .4-.65.2-.25.7-.85.8-.75.8-.7.9-.65 1.15-.75.7-.25 1.25-.5.95-.2 1.35-.05m-8.75 20.65-.3-.4-.65-.8-.25-.4.4-1.05 1.05-1.1 1.1.95q-1.45.8-1.35 2.8m-.45-15.05q.1.2.4.2-.3 0-.4-.2" fill="#c6ab6f" fill-rule="evenodd" transform="translate(-219.45 -208.8)"/><path d="M224.5 223.25q-.45.85-.65 1.85-1.25 1.2-1.9 3-1.15 2.85-.25 5.45l.4 1-.45.65-.05.05-.05-.05-.45-1.05q-1-3.15.3-6.55l.3-.7.65-1.2.75-1.05 1.4-1.4" fill="#eee6cc" fill-rule="evenodd" transform="translate(-219.45 -208.8)"/><path d="m16.2 12.55-1.2-.7-.8-.3-1.25-.35-1.25-.1m4.5 1.45.75.65.9.95-.45.2-.15.15-.3.25h.15l.55-.05.8.35.1.15.2.5.45.9.3 1.05.25 1.05.15 1.05.05.75v1.4l-.15 1.05-.25 1.15-.35 1.15-.45 1.1-.05.05-.45.95-.6 1.05-.65.9-.7.85-.75.8-.8.7-.95.6-.9.55-.85.45-.9.35-.7.2-.85-.45.2-.1.15-.3h-.3L9.4 33h-.05L8.2 31.05q-.45 1.4-.25 2.9l-.8-.15-.9-.15-1.15-.5-.7-.35-.75-.5-.7-.55-.3-.4-.65-.8-.25-.4.4-1.05-1.2-.55-.35-1.1-.2-1v-.05l-.15-1-.05-1.1.05-1.1.15-1.05q.05-.6.25-1.1l.3-1.15.45-1.1.5-1.1.6-1 .4-.65.2-.25.7-.85.8-.75.8-.7.9-.65 1.15-.75.7-.25 1.25-.5.95-.2 1.35-.05m-8.8 5.8q-.3 0-.4-.2" fill="none" stroke="#6c260d" stroke-linecap="round" stroke-linejoin="round" stroke-width=".1"/><path d="M229.5 224.4q.8.65.75 1.8-.05 1.2-.9 2.25-.85 1-2 1.3t-1.95-.35q-.75-.6-.75-1.85.1-1.2.95-2.2.85-1.05 1.95-1.35 1.2-.2 1.95.4m-4.7 7-.75.5-.65-.1q-.25-.2-.25-.6.05-.5.4-.8.25-.45.65-.5l.65.1.25.6-.3.8" fill="#e6ebf7" fill-rule="evenodd" transform="translate(-219.45 -208.8)"/></g></defs></svg>