<svg viewBox="0 0 55.5 49.609" xmlns="http://www.w3.org/2000/svg" xmlns:xlink="http://www.w3.org/1999/xlink"><g transform="translate(-107.2 -197.69)"><use transform="translate(121.4 197.7)" width="20.35" height="15.75" xlink:href="#a"/><use transform="translate(107.2 207.1)" width="55.5" height="40.2" xlink:href="#b"/></g><defs><g id="b" transform="translate(.05 .05)"><use transform="translate(-.05 -.05)" width="29.55" height="38.9" xlink:href="#c"/><use transform="translate(18.7 1.05)" width="36.75" height="39.1" xlink:href="#d"/></g><g id="e"><path d="m24.55 4.9.05-.05q2-2.9 4.85-3.85V0Q26.3 1.5 24.2 4.45l-.1.05h-.3q-5.85-.65-10.95 2.7-3.4 2.15-7.2 17.2l.55-.05-.8 1.05-2.5 11.3q-.5 1.75-2.9 1.8l1.55.3q3.05-1.6 4.5-5l-.15-.15q4.65-11.9 11.55-21.05 2.9-3.75 6.15-7.15l.15-.1.3-.1.45-.25v-.05l.05-.05M13.2 9.6l4-.3.8-.3-.8.3-4 .3m-1.95 4.45 2.95.15-2.95-.15" fill="#cb9a26" fill-rule="evenodd" transform="translate(.05 .05)"/><path d="M1.55 38.8q1.05-.05 2.3-.7 7.65-4.05 12.65-8.3 1.7-2.45 1.1-5.05.6 1.45 1.6 2.55 3.4-3.5 5.05-7.1l.05-.1q2.9-8.25.2-15.1l-.45.25.1.55-.35.3q-3.25 3.4-6.2 7.2-6.75 9-11.4 20.65l-.15-.15q-1.45 3.4-4.5 5M19.8 21.45q-1.5-3.25.05-8.75l.55-1.65-.55 1.65q-1.55 5.5-.05 8.75m-2.25 3.15.05.15-.05-.15m-2.65.9q-2.05-2.95.45-7.95-2.5 5-.45 7.95" fill="#c08d1f" fill-rule="evenodd" transform="translate(.05 .05)"/><path d="m6.05 33.8.15.15Q10.85 22.3 17.6 13.3q2.95-3.8 6.2-7.2l.35-.3-.1-.55-.3.1-.15.1q-3.25 3.4-6.15 7.15-6.9 9.15-11.55 21.05l.15.15" fill="#c49320" fill-rule="evenodd" transform="translate(.05 .05)"/><path d="M1.6 38.85q1.05-.05 2.3-.7 7.65-4.05 12.65-8.3 1.7-2.45 1.1-5.05.6 1.45 1.6 2.55 3.4-3.5 5.05-7.1l.05-.1q2.9-8.25.2-15.1l.05-.1.05-.05q2-2.9 4.85-3.85v-1q-3.15 1.5-5.25 4.45l-.1.05h-.3Q18 3.9 12.9 7.25 9.5 9.4 5.7 24.45l.55-.05-.8 1.05-2.5 11.3q-.5 1.75-2.9 1.8l1.55.3m22.95-33.8V5l.05-.05M17.65 24.8l-.05-.15" fill="none" stroke="#a26715" stroke-linecap="round" stroke-linejoin="round" stroke-opacity=".6" stroke-width=".1"/><path d="M6.25 34q4.65-11.65 11.4-20.65 2.95-3.8 6.2-7.2l.35-.3m-3.75 5.25-.55 1.65q-1.55 5.5-.05 8.75m-1.8-12.45-.8.3-4 .3m2.15 7.95q-2.5 5-.45 7.95m-.7-11.3-2.95-.15" fill="none" stroke="#a26715" stroke-linecap="round" stroke-linejoin="round" stroke-opacity=".302" stroke-width=".1"/></g><g id="d"><path d="m24.55 5.8-.05-.05q-2.6-2.85-5.55-3.5l-.2-1.15q3.4 1.2 6.05 4.1l.1.15.25-.1h.05q5.75-1.75 11.5 1.2 3.8 1.85 10.4 18.1l-.55.05.95 1.05 4.7 12.3q.8 1.85 3.2 1.55-.65.45-1.5.6-3.35-1.3-5.45-4.9l.15-.2q-6.9-12.55-15.5-21.7-3.6-3.75-7.55-7l-.15-.1h-.25l-.5-.25h-.05v-.1l-.05-.05m12.2 3.35q-1.55.8-4 .4l-.9-.2.9.2q2.45.4 4-.4m2.8 4.75q-1.55.95-2.9.65 1.35.3 2.9-.65" fill="#b98123" fill-rule="evenodd" transform="translate(-18.7 -1.05)"/><path d="m53.9 40.1-2.4-.35q-8.45-3.3-14.2-7.25-2.25-2.5-2.1-5.5l-1.05 3.15q-4.1-3.35-6.4-7.15l-.1-.1q-4.5-8.8-3-16.95l.5.25-.05.5.4.4q3.95 3.2 7.55 7 8.45 9 15.3 21.3l.1-.2q2.1 3.6 5.45 4.9M38.05 27.35q1.55-3.6-1.95-8.9 3.5 5.3 1.95 8.9m-5.65-3.7q.9-3.9-1.7-9.8L29.9 12l.8 1.85q2.6 5.9 1.7 9.8m2.85 3.15-.05.2.05-.2" fill="#a26714" fill-rule="evenodd" transform="translate(-18.7 -1.05)"/><path d="M25.15 6.2h.25l.15.1q3.95 3.25 7.55 7 8.6 9.15 15.5 21.7l-.15.2-.1.2q-6.85-12.3-15.3-21.3-3.6-3.8-7.55-7l-.4-.4.05-.5" fill="#aa7217" fill-rule="evenodd" transform="translate(-18.7 -1.05)"/><path d="M5.85 4.75 5.8 4.7Q3.2 1.85.25 1.2L.05.05q3.4 1.2 6.05 4.1l.1.15.25-.1h.05Q12.25 2.45 18 5.4q3.8 1.85 10.4 18.1l-.55.05.95 1.05 4.7 12.3q.8 1.85 3.2 1.55-.65.45-1.5.6l-2.4-.35q-8.45-3.3-14.2-7.25-2.25-2.5-2.1-5.5l-1.05 3.15q-4.1-3.35-6.4-7.15l-.1-.1q-4.5-8.8-3-16.95l-.1-.15.05.05v.1h.05M16.5 25.95l.05-.2" fill="none" stroke="#661a00" stroke-linecap="round" stroke-linejoin="round" stroke-opacity=".6" stroke-width=".1"/><path d="M29.65 34.35q-6.85-12.3-15.3-21.3-3.6-3.8-7.55-7l-.4-.4m6.75 2.65.9.2q2.45.4 4-.4m-6.85 2.85.8 1.85q2.6 5.9 1.7 9.8m3.7-5.2q3.5 5.3 1.95 8.9m-1.4-12.8q1.35.3 2.9-.65" fill="none" stroke="#661a00" stroke-linecap="round" stroke-linejoin="round" stroke-opacity=".302" stroke-width=".1"/></g><path d="M4.1 14.9Q.2 10.65 0 7.2l.1-1.6Q1.6-.85 12.8.15h1q5.1.95 6.35 3.75.3.8.2 1.7-.05 2.15-1.6 5.65l-.05.15-.9 1.5q-1.1 1.5-2.95 2.85" fill="none" stroke="#600" stroke-linecap="round" stroke-linejoin="round" stroke-width=".05" id="a"/><use width="29.55" height="38.9" xlink:href="#e" id="c"/></defs></svg>