<svg viewBox="0 0 81.078 95.047" xmlns="http://www.w3.org/2000/svg" xmlns:xlink="http://www.w3.org/1999/xlink"><g transform="translate(-234.45 -152.58)"><use transform="translate(246.9 159.3)" width="63.25" height="65.05" xlink:href="#a"/><use transform="matrix(-.0946 .1731 -.1099 -.1041 288.8 219.78)" width="98.65" height="108.05" xlink:href="#b"/><use transform="matrix(-.1099 .098 -.0526 -.1386 278.56 233.45)" width="98.65" height="108.05" xlink:href="#b"/><use transform="matrix(-.0945 -.0547 .056 -.1428 265.59 245.76)" width="98.65" height="108.05" xlink:href="#b"/><use transform="matrix(-.0791 -.1487 .1218 -.1373 254.38 249.15)" width="98.65" height="108.05" xlink:href="#b"/><use transform="matrix(-.106 .0106 .0104 -.1479 268.22 238.37)" width="98.65" height="108.05" xlink:href="#b"/><use transform="matrix(.1238 -.0444 .0112 .1673 234.24 206.91)" width="98.65" height="108.05" xlink:href="#b"/><use transform="matrix(.0992 -.1272 .0756 .1184 233.67 224.08)" width="98.65" height="108.05" xlink:href="#b"/><use transform="matrix(.0991 .0224 -.0332 .1438 245.41 205.63)" width="98.65" height="108.05" xlink:href="#b"/><use transform="matrix(.0258 -.1449 .1011 .0117 240.22 236.77)" width="98.65" height="108.05" xlink:href="#b"/><use transform="matrix(.0886 -.0638 .0313 .1143 242.79 219.48)" width="98.65" height="108.05" xlink:href="#b"/><use transform="matrix(.156 .0056 -.0056 .156 244.05 204.15)" width="98.65" height="108.05" xlink:href="#b"/><use transform="matrix(.0163 -.156 .156 .0163 238.42 239.72)" width="98.65" height="108.05" xlink:href="#b"/><use transform="matrix(.0211 .1536 -.1536 .0211 277.71 208.83)" width="98.65" height="108.05" xlink:href="#b"/><use transform="matrix(.1 .1193 -.1193 .1 262.31 208.91)" width="98.65" height="108.05" xlink:href="#b"/><use transform="rotate(105.935 54.419 215.9) scale(.1304)" width="98.65" height="108.05" xlink:href="#b"/><use transform="matrix(.1141 -.0026 .0026 .1141 248.18 216.47)" width="98.65" height="108.05" xlink:href="#b"/><use transform="matrix(-.1118 .036 -.036 -.1118 273.31 237.91)" width="98.65" height="108.05" xlink:href="#b"/><use transform="matrix(-.0643 .0837 -.0837 -.0643 316.29 163.59)" width="98.65" height="108.05" xlink:href="#b"/><use transform="rotate(36.214 -81.908 535.35) scale(.1056)" width="98.65" height="108.05" xlink:href="#b"/></g><defs><path d="M1.9 60.55Q-1 46.9 1.25 33.1q.85-5.15 3-11.5 2.85-8.55 5.85-11.25 8.75-8 21-9.7 13.05-1.8 22.95 4.9 3.35 2.3 5.2 6.65.75 1.75 2.4 8.15 2.85 11.3-.35 16.3-4.85 7.75-16.55 8.15-6.4-.05-9.55.15-5.4.3-8.8 2-6.4 3.25-9.65 9.15-1.75 3.2-4.1 8.7" fill="none" stroke="#000" stroke-linecap="round" stroke-linejoin="round" stroke-opacity=".302" stroke-width=".5" id="a"/><g id="b" fill-rule="evenodd"><path d="M-42.95-49.7q9.9-8.6 29.45-.05Q6.15-41.3 23.95-20.7 41.7-.1 47.3 20.5t-4.35 29.2-29.55.1q-19.55-8.5-37.35-29.1t-23.4-41.2q-5.55-20.6 4.4-29.2" fill="#045566" transform="translate(49.35 54)"/><path d="M25.9-8.8Q36.95 3.95 40.3 16.75q3.55 12.8-2.6 18.1t-18.35.05q-12.1-5.25-23.15-18T-18.3-8.65t2.7-18.1 18.25-.05q12.2 5.25 23.25 18" fill="#159f66" transform="translate(49.35 54)"/></g></defs></svg>