<svg viewBox="0 0 114.46 152.88" xmlns="http://www.w3.org/2000/svg" xmlns:xlink="http://www.w3.org/1999/xlink"><use transform="translate(-.01 -.023)" width="114.5" height="152.9" xlink:href="#a"/><defs><linearGradient id="f" x1="-819.2" x2="819.2" gradientTransform="matrix(.0271 -.06 .0426 .0193 293.3 187.75)" gradientUnits="userSpaceOnUse"><stop stop-color="#afaf18" offset="0"/><stop stop-color="#b4db11" offset=".616"/></linearGradient><linearGradient id="g" x1="-819.2" x2="819.2" gradientTransform="matrix(.0034 -.0035 .0042 .0041 326.4 187.3)" gradientUnits="userSpaceOnUse"><stop stop-color="#e7e64e" offset="0"/><stop stop-color="#c0f13d" offset="1"/></linearGradient><linearGradient id="h" x1="-819.2" x2="819.2" gradientTransform="matrix(.0289 -.0295 .0335 .0328 291.8 189.45)" gradientUnits="userSpaceOnUse"><stop stop-color="#e7e64e" offset="0"/><stop stop-color="#c0f13d" offset="1"/></linearGradient><linearGradient id="i" x1="-819.2" x2="819.2" gradientTransform="matrix(.0039 -.004 .0032 .0031 274.1 158.55)" gradientUnits="userSpaceOnUse"><stop stop-color="#e7e64e" offset="0"/><stop stop-color="#c0f13d" offset="1"/></linearGradient><linearGradient id="j" x1="-819.2" x2="819.2" gradientTransform="matrix(.0123 -.0125 .0124 .0121 266.05 181.1)" gradientUnits="userSpaceOnUse"><stop stop-color="#a9a818" offset="0"/><stop stop-color="#c0f13d" offset="1"/></linearGradient><linearGradient id="l" x1="-819.2" x2="819.2" gradientTransform="matrix(.0123 -.0125 .0124 .0121 266.05 181.1)" gradientUnits="userSpaceOnUse"><stop stop-color="#e7e64e" offset="0"/><stop stop-color="#c0f13d" offset="1"/></linearGradient><linearGradient id="m" x1="-819.2" x2="819.2" gradientTransform="matrix(.0289 -.0295 .0335 .0328 291.8 189.45)" gradientUnits="userSpaceOnUse"><stop stop-color="#bebd1b" offset="0"/><stop stop-color="#c0f13d" offset="1"/></linearGradient><linearGradient id="n" x1="-819.2" x2="819.2" gradientTransform="matrix(.0031 -.0031 .0075 .0074 301.45 157.2)" gradientUnits="userSpaceOnUse"><stop stop-color="#e7e64e" offset="0"/><stop stop-color="#c0f13d" offset="1"/></linearGradient><linearGradient id="o" x1="-819.2" x2="819.2" gradientTransform="matrix(.0035 -.0036 .009 .0088 317.35 172.85)" gradientUnits="userSpaceOnUse"><stop stop-color="#e7e64e" offset="0"/><stop stop-color="#c0f13d" offset="1"/></linearGradient><linearGradient id="p" x1="-819.2" x2="819.2" gradientTransform="matrix(.0039 -.004 .002 .002 308.65 222.85)" gradientUnits="userSpaceOnUse"><stop stop-color="#e7e64e" offset="0"/><stop stop-color="#c0f13d" offset="1"/></linearGradient><linearGradient id="q" x1="-819.2" x2="819.2" gradientTransform="matrix(.0077 -.0079 .0042 .0041 307.15 221.65)" gradientUnits="userSpaceOnUse"><stop stop-color="#e7e64e" offset="0"/><stop stop-color="#c0f13d" offset="1"/></linearGradient><linearGradient id="r" x1="-819.2" x2="819.2" gradientTransform="matrix(.027 -.0276 .0335 .0327 293.25 187.85)" gradientUnits="userSpaceOnUse"><stop stop-color="#bebd1b" offset="0"/><stop stop-color="#b4db11" offset="1"/></linearGradient><linearGradient id="s" x1="-819.2" x2="819.2" gradientTransform="matrix(.0074 -.0076 .0088 .0086 273.2 207.4)" gradientUnits="userSpaceOnUse"><stop stop-color="#dfde24" offset="0"/><stop stop-color="#b4db11" offset="1"/></linearGradient><linearGradient id="t" x1="-819.2" x2="819.2" gradientTransform="matrix(.0074 -.0076 .0088 .0086 273.2 207.4)" gradientUnits="userSpaceOnUse"><stop stop-color="#e7e64e" offset="0"/><stop stop-color="#c0f13d" offset="1"/></linearGradient><linearGradient id="u" x1="-819.2" x2="819.2" gradientTransform="matrix(.0298 -.0304 .034 .0332 292.05 190.05)" gradientUnits="userSpaceOnUse"><stop stop-color="#60600d" stop-opacity=".514" offset="0"/><stop stop-color="#b4db11" offset=".616"/></linearGradient><radialGradient id="b" cx="0" cy="0" r="819.2" gradientTransform="matrix(-.0106 .0026 -.0027 -.0109 306.65 106.05)" gradientUnits="userSpaceOnUse"><stop stop-color="#beebc4" offset="0"/><stop stop-color="#2eb1b8" offset=".616"/><stop stop-color="#0a2524" offset="1"/></radialGradient><radialGradient id="c" cx="0" cy="0" r="819.2" gradientTransform="matrix(.0108 .0016 -.0016 .0111 258.95 138.05)" gradientUnits="userSpaceOnUse"><stop stop-color="#beebc4" offset="0"/><stop stop-color="#2eb1b8" offset=".616"/><stop stop-color="#0a2524" offset="1"/></radialGradient><radialGradient id="d" cx="0" cy="0" r="819.2" gradientTransform="matrix(.0085 -.002 .002 .0087 269.8 95.75)" gradientUnits="userSpaceOnUse"><stop stop-color="#beebc4" offset="0"/><stop stop-color="#2eb1b8" offset=".616"/><stop stop-color="#0a2524" offset="1"/></radialGradient><radialGradient id="e" cx="0" cy="0" r="819.2" gradientTransform="matrix(.0309 -.0114 .0127 .0344 294.45 179.8)" gradientUnits="userSpaceOnUse"><stop stop-color="#beebc4" offset="0"/><stop stop-color="#2eb1b8" offset=".616"/><stop stop-color="#0a2524" offset="1"/></radialGradient><radialGradient id="k" cx="0" cy="0" r="819.2" gradientTransform="matrix(.6982 -.7136 .7136 .6982 33.85 305.85)" gradientUnits="userSpaceOnUse"><stop stop-color="#30927b" stop-opacity=".2" offset=".094"/><stop stop-color="#307a5e" offset=".529"/><stop stop-color="#0b6875" offset="1"/></radialGradient><g id="a"><path d="M303.65 110.7v.1q-.55 1.25-.4 2.75.1 1.55 1.1 2.7 1.9 2.45 4.65 2.15 5.3-.65 10.05-3.8 7.65-5 16.3-5.75 3.75-.35 7 1.4 6.55 3.5 9.7 10.8 3.4 7.95 3.7 16.9.3 9.75-2.95 18.75-2.85 8.1-7.9 14.8-5.25 7.05-12.6 10.7-5.55 3.25-11.2 4.8l-.85.4q-2.95.8-5.95.6l.1-4.15 6.35-.6 2.25-.5q8-1.8 14.45-7.2 6.4-5.5 9.1-10.45 2.75-4.95 5.1-12.35 2.35-7.45 2.3-17.5-.05-4.5-1.95-8.55-4.15-8.9-12.3-12.55-2.4-1.1-4.9-1.4-8.15-.95-15.5 3.65-5.9 3.65-12.35 3.3-2.45-.15-4.25-2.05-1-1.05-1.3-2.4-.6-2.35.05-5.3l.6-1.1q.6-1.1.75-.3l.9-.05q-.15 1.3.85 0l-.95 2.2h.05m-2.15-.85.05-.25.3-.7-.35.95m4.75-10.1q2.2-3.4 5.35-7.3 2.15-3.2 1.95-7.1-.05-1.15-.5-2-3.95-7-11.7-6.55-8.35.35-15.9 4.6-7.4 3.95-11.35 12.1-2.25 4.6-3.05 9.8-1.35 8.5-.5 17.05l.3 4.3q.15 1.85-.1 3.7-.3 1.7-2 4.1l-3.2 3.85-.2.2v-.05l-.8.85.75-.85-1 .75-.8.05q.2-.75-.85-.3.6-1.15-.8-.35l1.75-1.65 3-3.3q2.35-3.65 2.15-8.45l-.4-6.85q-.6-8.15.45-16 .45-3.35 1.85-6 4.35-8.1 11.65-13.55 6.8-4.7 14.5-6.55 8.35-1.8 15.95 2.55 4.15 2.35 5.15 7.45.75 4-1.15 7.35-2.1 3.4-4.95 6.5-1.65 1.65-3 3.55l-.4-.5h-.05q-.7-.8-1.65-1.25l-.15-.05h-.05l-.25-.1m-49.5 44.15q-5.5 3.95-10.55 8.45-1.15 1.15-1.9 2.7-1.65 3.85.6 7.35 5.1 7.9 13.05 12.1l-.2 2.65-8.35-6.95q-2.8-2.45-4.8-4.8-2.05-2.4-3-5.4-1-3.05 1.5-7.6 2.5-4.6 9.9-9.05l2.55-1.3 1.1 1.75.1.1" fill="#72793c" fill-rule="evenodd" transform="translate(-241.3 -73.7)"/><path d="M303.65 110.7h-.05l.95-2.2q-1 1.3-.85 0l-.9.05q-.15-.8-.75.3l-.6 1.1.05-.1.35-.95-.45 1.05h-.05q-1.65-.95-2.4-2.75-.9-2.2.1-4.35.85-2.2 3.05-3.1 2.05-.8 4.15 0l.25.1h.05l.15.05q.95.45 1.65 1.25h.05l.4.5.7 1.25q.85 2.15 0 4.35-1 2.15-3.15 3.05-1.3.5-2.55.45l-.15-.05" fill="url(#b)" fill-rule="evenodd" transform="translate(-241.3 -73.7)"/><path d="M265.35 136.5q1.2 1.5 1.2 3.45 0 2.35-1.7 4-1.65 1.7-4 1.7t-4.05-1.7l-.15-.15-1.1-1.75V142q-.4-.95-.4-2.05 0-2.35 1.65-4.05 1.7-1.65 4.05-1.65 1.4 0 2.55.6l.2.1-1.75 1.65q1.4-.8.8.35 1.05-.45.85.3l.8-.05 1-.75-.75.85.8-.85v.05" fill="url(#c)" fill-rule="evenodd" transform="translate(-241.3 -73.7)"/><path d="m68.2 105.3-1.55 2.65" fill="none" stroke="#6c260d" stroke-linecap="round" stroke-linejoin="round" stroke-width=".1"/><path d="m270.1 92.4 2.05-.25.2-.05-.8 1.75q.8-1 .7.05l.65-.05q.1.6.6-.25l.55-.8-.3.8.35-.85q1.35.75 1.9 2.2.65 1.75-.15 3.45-.75 1.75-2.5 2.4-1.75.7-3.45-.05l-.1-.05h-.05l-1.35-1-.05-.05-.85-1.4q-.7-1.75.05-3.45.8-1.7 2.55-2.4" fill="url(#d)" fill-rule="evenodd" transform="translate(-241.3 -73.7)"/><path d="M278.7 168.75q6.3-6.45 15.9-6 9.65.4 16.9 7.5 7.2 7.05 7.85 16.65t-5.65 16.05q-6.35 6.45-16 6.05-9.55-.45-16.8-7.5-7.25-7.1-7.9-16.7-.6-9.6 5.7-16.05" fill="url(#e)" fill-rule="evenodd" transform="translate(-241.3 -73.7)"/><path d="M278.7 168.75q6.3-6.45 15.9-6 9.65.4 16.9 7.5 7.2 7.05 7.85 16.65t-5.65 16.05q-6.35 6.45-16 6.05-9.55-.45-16.8-7.5-7.25-7.1-7.9-16.7-.6-9.6 5.7-16.05z" fill="none" stroke="#fff" stroke-linecap="round" stroke-linejoin="round" transform="translate(-241.3 -73.7)"/><path d="M328.1 192.3q-.15-4.5-1.35-8.9l-.75-2.45-.65-1.7q-1.6-3.45-3.55-6.65-3.45-5.85-8.85-10.15l-2.75-2.1q-6.1-3.15-12.4-5.45-2.4-.9-4.85-1.45l-3.45-.05h-3.55l-3.15.2-3.1.4-3 .65q-3.3 1.1-6.2 2.85l-2 1.3-4.15 3.6q-2.75 3.15-4.7 6.9-5.2 8.25-4.4 19 .85 14.7 12.05 25.65 11.45 11.3 26.85 12.1 15.15.75 25.3-9.15l.45-.5q4.15-5.55 5.35-9.2l2.25-7.8.4-1.4z" fill="none" stroke="#6c6c24" stroke-linecap="round" stroke-linejoin="round" transform="translate(-241.3 -73.7)"/><path d="M275.4 171.55q1.3-1.75 3.35-1 1.35.5 2.7 1.3 2.45 1.5 4.9-.1 1.2 2.35-.85 2.55-1.65.1-5.35-1.15l-2.65-1-.95 1.35q-1.9 3.7-1.9 7.8l-.6-.7-.75-1.75q-.5-1.6-.15-3.15l.1-.55.15-.45q.6-1.6 2-3.15m9.7-2.1-3.25-3.5 3.15 1.35q1.6.6 3.3.8l4.3.3-4.05.8-3.45.25m-.7-4.4-1.05.05q.3-.25.7-.4l.45-.55.3-.35.1-.3-.9-.95q2.15-1.65 4.65-3 2.55-1.65 4.95.1l3.7 2.4q2.4 1.35 2.55 4.35.1 1.8-1.9 4.3l-1.5 1.1.85-2.2q.45-2.2-.95-4.2l-11.95-.35m11.15 8v.05l-.25.2.25-.25m1.65 24.35q.4 1.7-.65 3.2-.85.65-2 .45-.6-.1-5.85-5.8 5.75 5.15 8.5 2.15m2.4 13.8.05.05-1.9.25q-1.15 0-2.1-.5l-3.45-1.9q-1.95-1.3-4.15-2.15l1.4.1h.1l-.3-.25-2.15-1.8-3.8-3.1q-2.3-1.3-4.35-3-2.05-1.65-3.65-3.65l-1.55-2.25q-.75-1.05-.4-1.7 3.25-6.05 12.2-6.55-4.4 1.3-9 5.95l1.45 2.85q1.15 1.95 2.65 3.7 2.85 3.35 6.5 5.55l1.55 1-.4.05-.3.1 1.4 1.9 1.05 1.35q2.2.35 4.35 1.3 2.45 1.15 4.8 2.7m5.65-42.9.3-.95 1.85 1.15q1.6 1.25 2.85 2.9 1.75 2.15 2.6 4.9.5 1.8-1.25 2.7l-2.15.6q.6-.4-.15-2.6-.8-2.2-2.85-3.55-1.25-.85-1.45-1.6.1-.45-.45-.95l.05-.25.65-2.35m-.65 10.55h-.8q-1.15.15-2.25.8l-.45.3 1-1.85h.05l1.3.4 1.15.35m.1-9.1v-.3l.15-.3-.15.6m-.7 15.7 1.7.05 4.75.75q2.1.4 4.1 1.25 2.35.95 3.2 3.45.85 2.55.85 5.1l-.45 2-.9.8-3.85 2.3-2.55 1.5q-1 .55-2.05 1.2l1.6-1.25.45-.35.15-.15 1.75-1.85q2.85-3.25 3.6-6.65.55-3.05-2.65-5.45-.95-.75-3.65-1.45l-6.05-1.25m4.15 18.8-1.7 1.1 1.15-.8.55-.3" fill="#6c6c24" fill-rule="evenodd" transform="translate(-241.3 -73.7)"/><path d="m273.3 178.85.75 1.75.6.7 2.95.5 1.9.15q5.1 1.25 7.4-1.4l-.65.7-1.5 1.2-1.6.55-1.75.2-1.7-.05-1.75-.2-1.95-.1q-.95 0-1.6-.7-.7-.7-.85-1.7l-.25-1.3v-.3" fill="#dafc9a" fill-rule="evenodd" transform="translate(-241.3 -73.7)"/><path d="M288.75 200.9q4.65 1.65 5.5 2.65 2.75 3.4 7 4.45l7.95-.2q3.05-1 3.9-1.7-1.25 1.85-4.5 3.4-3.75 1.8-9 1.7-2.35-1.55-4.8-2.7-2.15-.95-4.35-1.3l-1.05-1.35.25-1.5 2.3.4.7-.05.2-1.2q0-1-4.1-2.6" fill="#8fb629" fill-rule="evenodd" transform="translate(-241.3 -73.7)"/><path d="m325.25 179.55.65 1.7q-2.1 1.45-2.5 3.7-.15 1.45.05 2.85.25 1.35.95 2.65l1.35 1.55q.95.85 2.25.6l-.2 5.7-.4 1.4q-1.95 5.6-6.3 9.25l-1.9 1.25q.05 1.75-.7 3.5-1.2 2.1-2.25 4.3-1.45-1.85-3.8-1.7l-4.25.7q-2.15.5-3.95 1.75-2 1.25-3.4 3.05-1.3 2-2.25 4.15l-8.7-.6-3.6-.7-3-.95-.55-.3q-3.45-1.85-5.9-5.2l-.25.05.2-.2q2.25-1.95 3.65-4.6 1.05-2 1.05-4.15 2.3-1.8 5.45-2.2l1.1-.15q2.2.85 4.15 2.15l3.45 1.9q.95.5 2.1.5l1.9-.25-.05-.05q5.25.1 9-1.7 3.25-1.55 4.5-3.4-.85.7-3.9 1.7l-7.95.2q-4.25-1.05-7-4.45-.85-1-5.5-2.65l-1.25-.45 5 .8q-.6-1.6-1.7-3 .7.7-.3-.55l-1.8-2.45q5.25 5.7 5.85 5.8 1.15.2 2-.45 1.05-1.5.65-3.2l-.55-10.3-.1-4.35q.7-2.15 1.75-4.1l1.35-3.3.3-1.5q.1-1.9-2.15-1.25l-2.25.5v-.05l.9-1.25 1.5-1.1q2-2.5 1.9-4.3-.15-3-2.55-4.35l-3.7-2.4q-2.4-1.75-4.95-.1-2.5 1.35-4.65 3l.9.95-.1.3-.3.35-.45.55q-.4.15-.7.4l1.05-.05q1.75 1.15 4.05 1.7l3.1.75q.75 0 1.15.75l-.1.15-4.3-.3q-1.7-.2-3.3-.8l-3.15-1.35 3.25 3.5.4.85.25.35.6 1.1q-2.45 1.6-4.9.1-1.35-.8-2.7-1.3-2.05-.75-3.35 1-1.2-2.2-2.8-4.1-1.55-1.7-3.65-2.95-2.2-1.25-4.7-1.8l4.15-3.55q.95 1.55 2.7 2.2 2.5.95 4.9-.05 2.8-1.25 2.25-4.2l-.65-1.3-1-.85 3-.65 3.1-.35 3.1-.25h3.6l3.45.05 3.1 2.8 3.9 3.45q2.1 1.7 4.8 2.25 2.2.4 4.15-.75l1.3-.85 2.75 2.15q-1.05 2.85-.95 5.8 0 2.6 1.45 4.85 1.6 2.45 3.75 4.1 2.1 1.55 4.6 1.85l3.55.15m-43.05-22.7 1.35.15.95-1.2 2.45-.65q-1.65-.8-3.25-.4-1.6.35-2.7 1.5l1.2.6m27.25 22.75 2.15-.6q1.75-.9 1.25-2.7-.85-2.75-2.6-4.9-1.25-1.65-2.85-2.9l-1.85-1.15-.3.95v-.45l-.4 1.3-.15.3v.3l-2.6 8.35-1 1.85.45-.3q1.1-.65 2.25-.8h.8q2.25.8 4.65.8l.1-.05h.1m-4.85-8.95-.05.25-.1.2.15-.45m-1 14.75q1.35-.3 2.4-1l.15-.25q-2.2-1.25-4.9-1h-.05l-.45 3-.25.3q-1.9 2.1-2.2 4.95l-.1.6q-.2 2.55.3 4.85l.4 1.5q-.65 1-.3 2.1.45 1.55 1.5 2.5l2 1.85-.85-.85 5.55-4.25 3.6-2.85q-5.3 8.55-4.65 8.4l1.85-.7-1.15.8 1.7-1.1.65-.4q1.05-.65 2.05-1.2l2.55-1.5 3.85-2.3.9-.8.45-2q0-2.55-.85-5.1-.85-2.5-3.2-3.45-2-.85-4.1-1.25l-4.75-.75-1.7-.05-.4-.05" fill="url(#f)" fill-rule="evenodd" transform="translate(-241.3 -73.7)"/><path d="m325.9 181.25.75 2.5q1.2 4.35 1.35 8.85-1.3.25-2.25-.6l-1.35-1.55q-.7-1.3-.95-2.65-.2-1.4-.05-2.85.4-2.25 2.5-3.7" fill="url(#g)" fill-rule="evenodd" transform="translate(-241.3 -73.7)"/><path d="M327.4 199.7q-1 3.95-2.4 7.4-2.65 6.75-8.35 11.45l-.15.1-.5.55.25-1.2q1.05-2.2 2.25-4.3.75-1.75.7-3.5l1.9-1.25q4.35-3.65 6.3-9.25m-44.1 24-.75-.25q-4.6-1.8-8.65-4.2l2.8-1.25v.05l.05.05-.15.15.25-.05q2.45 3.35 5.9 5.2l.55.3m4.75-16.75-1.1.15q-3.15.4-5.45 2.2l-1 .25q1.4-1.8 1.1-3.95-.3-2.3-1.9-4-1.55-1.7-3.8-2.35l-2.4-3.15-1.85-2 2.1-1.1 1.55 2.25q1.6 2 3.65 3.65 2.05 1.7 4.35 3l3.8 3.1 2.15 1.8.3.25h-.1l-1.4-.1" fill="url(#h)" fill-rule="evenodd" transform="translate(-241.3 -73.7)"/><path d="m268.4 159.15 2-1.3q2.9-1.8 6.2-2.9l1 .85.65 1.3q.55 2.95-2.25 4.2-2.4 1-4.9.05-1.75-.65-2.7-2.2" fill="url(#i)" fill-rule="evenodd" transform="translate(-241.3 -73.7)"/><path d="M255.5 189.6q-.75-8.3 2.2-15.85 2.4-6.2 6.55-11.05 2.5.55 4.7 1.8 2.1 1.25 3.65 2.95 1.6 1.9 2.8 4.1-1.4 1.55-2 3.15l-.15.45-.1.55q-.35 1.55.15 3.15v.3l.25 1.3q.15 1 .85 1.7.65.7 1.6.7l1.95.1 1.75.2 1.7.05 1.75-.2 1.6-.55 1.5-1.2.65-.7 1.15-2.05.05-.15q.15-.4-.25-3.7 2.35 6.4 4.65 7.7l4.05.4.1 4.35-3.65-2.15-2.6.2q-1.9-.2 6 8.8l-10.85-9.2q-8.95.5-12.2 6.55-.35.65.4 1.7l-2.1 1.1-4.7-4.05q-1.05 1.55-2.9 1.95l-1.2.25q-.2-2.9-1.25-5.4h-.35l-.55 3.1q-.15-1.75-.7-3.25-.85-2.2-2.65-.75l-.4 1.35-1.55.2.1 2.1" fill="url(#j)" fill-rule="evenodd" transform="translate(-241.3 -73.7)"/><path d="M274.65 181.3q0-4.1 1.9-7.8l.95-1.35 2.65 1q3.7 1.25 5.35 1.15.05.8-1.35.9-2.65.15-4.85-1.25-.5.5-.75 1.25-.95 2.6-.05 5.1.35.95 1 1.65l-1.9-.15-2.95-.5m11.1-10.65-.25-.35-.4-.85 3.45-.25q-1.5.4-2.8 1.45m5.8-3.15-3.1-.75q-2.3-.55-4.05-1.7l11.95.35q1.4 2 .95 4.2l-.25-.6q-1.1-2.65-3.8-2.15-1.4.2-1.7.65m-6 17.25 10.85 9.2q-10.05-7.9-10.55-7.4-2.25 1.9-4.2 4.1-1.6 1.75-3.65 2.9l-1.45-2.85q4.6-4.65 9-5.95m19.7-16.45-.65 2.35-.15.45.1-.2q.55.5.45.95l-.1.5q-.65 2.25-.85 4.45-.1 1-.6 1.7l-1.3-.4h-.05l2.6-8.35.15-.6.4-1.3v.45m1.55 31.4-5.55 4.25.85.85-2-1.85q-1.05-.95-1.5-2.5-.35-1.1.3-2.1l-.4-1.5q-.5-2.3-.3-4.85.1 2.95 1.2 5.45 1.1 2.55 2.1 4.25.75 1.2 5.3-2m3.25-13q2.7.7 3.65 1.45 3.2 2.4 2.65 5.45-.75 3.4-3.6 6.65.95-2.45.9-5.3-.2-4.85-3.6-8.25" fill="url(#k)" fill-rule="evenodd" transform="translate(-241.3 -73.7)"/><path d="m255.55 190.85-.05-1.25-.1-2.1 1.55-.2.4-1.35q1.8-1.45 2.65.75.55 1.5.7 3.25l.55-3.1h.35q1.05 2.5 1.25 5.4l1.2-.25q1.85-.4 2.9-1.95 1 1.9 1.85 4.85l-2.65.25q-6.2.05-10.6-4.3m45.2-4.7.45-3h.05q2.7-.25 4.9 1l-.15.25q-1.05.7-2.4 1l-.55.15-1.95.55-.35.05" fill="url(#l)" fill-rule="evenodd" transform="translate(-241.3 -73.7)"/><path d="M261.45 206.55q-2.3-3.75-3.7-7.6-1.5-4-2.2-8.1 4.4 4.35 10.6 4.3l2.65-.25q-.85-2.95-1.85-4.85l4.7 4.05 1.85 2 2.4 3.15 1.25 2.05-.8-.2q-2.55-.55-4.15-2.35l-.7.05q-2.2.35-4.15 1.45-.85.3-1.5.8-1.4.7-2.1 1.9l-2.3 3.6" fill="url(#m)" fill-rule="evenodd" transform="translate(-241.3 -73.7)"/><path d="M292.85 153.75q2.45.55 4.85 1.45 6.3 2.35 12.4 5.45l-1.3.85q-1.95 1.15-4.15.75-2.7-.55-4.8-2.25l-3.9-3.45-3.1-2.8" fill="url(#n)" fill-rule="evenodd" transform="translate(-241.3 -73.7)"/><path d="M312.85 162.8q5.4 4.3 8.85 10.1 1.95 3.25 3.55 6.65l-3.55-.15q-2.5-.3-4.6-1.85-2.15-1.65-3.75-4.1-1.45-2.25-1.45-4.85-.1-2.95.95-5.8" fill="url(#o)" fill-rule="evenodd" transform="translate(-241.3 -73.7)"/><path d="m313.5 221.15-2.1 1.15q-3.45 1.85-7 2.75 1.4-3.6 4.9-5 2.45-.9 4.2 1.1" fill="url(#p)" fill-rule="evenodd" transform="translate(-241.3 -73.7)"/><path d="m316.55 218.9-3.05 2.25q-1.75-2-4.2-1.1-3.5 1.4-4.9 5l-5.8.9q.95-2.15 2.25-4.15 1.4-1.8 3.4-3.05 1.8-1.25 3.95-1.75l4.25-.7q2.35-.15 3.8 1.7l-.25 1.2.5-.55.05.25" fill="url(#q)" fill-rule="evenodd" transform="translate(-241.3 -73.7)"/><path d="M316.65 218.55v.3l-.1.05-.05-.25.15-.1" fill="url(#r)" fill-rule="evenodd" transform="translate(-241.3 -73.7)"/><path d="m273.9 219.25-.7-.6q-1.9-1.3-3.45-2.65l-3.15-3-2.6-3.1-2.55-3.35 2.3-3.6q.7-1.2 2.1-1.9.65-.5 1.5-.8 1.95-1.1 4.15-1.45l.7-.05q1.6 1.8 4.15 2.35l.8.2-1.25-2.05q2.25.65 3.8 2.35 1.6 1.7 1.9 4 .3 2.15-1.1 3.95-.35 2.25-1.35 4.4-.45.85-1.35 1l.35.7-1.4 2.35h-.05l-2.8 1.25" fill="url(#s)" fill-rule="evenodd" transform="translate(-241.3 -73.7)"/><path d="M281.5 209.3q0 2.15-1.05 4.15-1.4 2.65-3.65 4.6l-.05-.05 1.4-2.35-.35-.7q.9-.15 1.35-1 1-2.15 1.35-4.4l1-.25" fill="url(#t)" fill-rule="evenodd" transform="translate(-241.3 -73.7)"/><path d="M297.75 176.5q.05 1.2-.75 2.1-.85.9-2.05.95-1.2 0-2.05-.8-.9-.8-.95-2l.1-.95-.65.25q-.6.05-1-.3-.4-.4-.4-1 .05-.6.5-1.05.45-.55 1.1-.65.6-.1 1 .3.4.35.35 1v.1q.75-.7 1.8-.7 1.15-.1 2.05.75.9.8.95 2" fill="#fff" fill-rule="evenodd" transform="translate(-241.3 -73.7)"/><path d="M263.6 164.55q-4.8 8.1-4.25 18.45.7 15.05 12.05 26.05 11.6 11.35 27.4 11.75 14.15.3 23.3-7.5l-2.15 2.95q-10.4 10.9-25.9 10.1-15.4-.75-26.85-12.05-11.2-11-12.05-25.65-1.05-14.3 8.45-24.1" fill="url(#u)" fill-rule="evenodd" transform="translate(-241.3 -73.7)"/></g></defs></svg>