<svg viewBox="0 0 213.13 190.32" xmlns="http://www.w3.org/2000/svg" xmlns:xlink="http://www.w3.org/1999/xlink"><use transform="translate(.02)" width="213.1" height="190.3" xlink:href="#a"/><defs><g id="a"><path d="M318.9 132.9q4.3-8.75 22.8-15.1H354l-3.05 2.3q-5.4 2.65-11.5 4.4-11.3 2.65-20.3 9.8l-1.3 1.65q4.6 4.65 1.75 10.9l2 1.1q8.05 3.2 17.1 2.95 14.45-.5 27.4 5.4 5.6 2.4 9.3 7.1 6.85 9.5 6.6 21-.5 12.7-5.85 24.25-6.15 12.45-16.9 21.25-9.8 8.05-21.5 12.5-12.25 4.85-25.2 3.9l-15.65-1.7-5.4-1.25-12.2-6.75-6.4-3.5 3.2-5.9 2.4 1.45 16.65 10.05 3.45 1 25.7 2.2q12.95-2.2 20.3-6.1l15.65-11.75q8.3-7.6 14.9-20.3 2.95-5.65 2.95-12.25-.05-14.45-9.3-25.2l-6.1-5.6q-11.05-7.6-24.75-7.35-11 0-20.05-5.4-3.65-2.2-4.85-5.8v-.05l-.05.05q-26.75-25.05-56.4-8.7l-.8.6q-10.05 5.1-21.55 5.35l-26.15 2.95-4.4 1.95q-5.15 3.4-4.15 9.55l.95 3.9q3.2 12.45 22.9 40.7l.1.15-3.7 1.75-.45.2-18.6-33.25-3.4-9.55-.25-.25q-1.25-4.65-.75-9.05.75-4.65 7.35-8.55t20.3-3.65q14.4 1.45 27.65-4.4 1.45-.7 2.85-1v-.1l-.85-.9-14.45-8v-3.9l17.6 10.35q2.15-2.25 3.65-5.25l2.25-5.25h3.35l-1.2 3.05-4.9 9.75q29.9-19.45 47.35.25l.5.5q6.95-.45 9.35.8 1.7-13.7-8.65-26.8 9.05.65 11.65 20.35l-1.25 7.2-.55.95-.25 1.2-.1.2.1-.2.25-1.2.55-.95m-.95 2.55.05-.2-.1.2h.05m.15-.4-.95-2.9q1.2.65 1.2 1.7 0-1.05-1.2-1.7l.95 2.9m-5.3 3.35-.1-.1v.05l-1.8-.3 1.9.45.05.45q1.5.75 2.4 1.4 1 .7 1.2 1.25l.25 1 .7 1.7q-1.25-3-1.25-5.25l.2-.05-.1-.3h-.7l-2.75-.35v.05m2-1.45.75 1.75-.75-1.75m5.15 12.05-2.35-9.8 2.35 9.8-.35-2.15.35 2.15-1.25-2.95 1.25 2.95m-65.4-15.9 2.05.35-2.05-.35m3.05-1.05-3.1-1.2 3.1 1.2" fill="#6c260d" fill-rule="evenodd" transform="translate(-168.9 -105.3)"/><path d="m279.3 236.6.15 1.55-15.15 24.2-3.95-37.9 15.45-23 2.7 27.2-2.4-1.45-3.2 5.9 6.4 3.5m-25.05 26.75-30.8 32.25-.3-.1-1.2-13.6 12.5-14.4-.25-2.2 1.45-9.05-1.95-1.75 1.5-1.4q4.55-.3 1.5-1.35l7.1-6.7 5.05-4.7 2-1.95.95-.25 4.9 1.2.75 19.8-3.2 4.2m-18.1-6.65-.5 1.75.5-1.5v-.25" fill="#efa934" fill-rule="evenodd" transform="translate(-168.9 -105.3)"/><path d="m168.9 232.25 12-6.3.75-.4q20.4 4.1 37.85-1.85l13.35 5.7-11.95-8.9 1.05-.45-27.45-6.1.05-.25 25.25-13.35 3.7-1.75-.1-.15 1.75-.9 5.15.25-17.15 11.9q16.35 1.55 24.65-6.2l8.65.9q13.5-8.95 29.35-2.95l-15.45 23-24.7.5q10.75 1.45 19.35 5.35l-.85.85-.6-.35.6.35q-2.45 2.5-4.3 6.25l-.7 2.1q-16.5 9.2-31-.95 14.3 15.6 25.65 6.5l-7.1 6.7q-3.65-1.35-18.15-3.8-22.9-6.95-26-11.8-10.3 4.3 8.1 15.8l34.55 1.15-1.5 1.4-.75.5-9.65.95-.6.05q-8.45.7-15.85.25L197.3 255q-15.1-3-24.55-12.25l4.25-.45 9.5-1-9.3-4.65.3-1.3.2-.9h-4.4l-1.15-.55-3.25-1.65m73-33.9 3.8.15-6.8 3.9q1.65-1.85 3-4.05m19.05 15.15-2.65-5.3-22.55 5.95v.35l-5.9-.35-.05.65 3.3 4.65.15.65 27.7-6.6" fill="#f4d528" fill-rule="evenodd" transform="translate(-168.9 -105.3)"/><path d="m260.95 213.5-27.7 6.6-.15-.65-3.3-4.65.05-.65 5.9.35v-.35l22.55-5.95 2.65 5.3m-25.75 39.6-34.55-1.15q-18.4-11.5-8.1-15.8 3.1 4.85 26 11.8 14.5 2.45 18.15 3.8 3.05 1.05-1.5 1.35" fill="#fceebe" fill-rule="evenodd" transform="translate(-168.9 -105.3)"/><path d="m245.7 198.5.75 5.9-8.65-.9-.65-.1 1.75-1 6.8-3.9" fill="#9c5f5f" fill-rule="evenodd" transform="translate(-168.9 -105.3)"/><path d="m181.65 225.55 7.3-3.8 1.3-.35q14.15-3.35 28.3.1l2.35-1 11.95 8.9-13.35-5.7q-17.45 5.95-37.85 1.85m48.65-27.75 11.6.55q-1.35 2.2-3 4.05l-1.75 1 .65.1q-8.3 7.75-24.65 6.2l17.15-11.9m18.85 41.7-.3.85-5.05 4.7q-11.35 9.1-25.65-6.5 14.5 10.15 31 .95" fill="#f9dfb5" fill-rule="evenodd" transform="translate(-168.9 -105.3)"/><path d="m264.3 262.35-3.45.35-3.65-29.9-3.05-1.65.85-.85q-8.6-3.9-19.35-5.35l24.7-.5 3.95 37.9m-94.45-19.3v-.1l-.1-1.4-.85-9.3 3.25 1.65.15 8.7.45.15-2.9.3m20.3-22.05 2.7-5.35 1.5-1.75.15.05 27.45 6.1-1.05.45-2.35 1q-14.15-3.45-28.3-.1l-.1-.4m44.3 46.5-12.5 14.4-3.65-9.75 1.45-4.9-1.7-6.1 4.65-5.15 1.2 13.45 10.55-1.95m-56.95-32.15-.3 1.3 9.3 4.65-9.5 1 .15-5.65.35-1.3" fill="#cf8710" fill-rule="evenodd" transform="translate(-168.9 -105.3)"/><path d="m260.85 262.7-6.6.65 3.2-4.2-.75-19.8-.5-2.7-1.7-1.7q-.5-.25-1.25 1l-2.4 2.45-2 1.95.3-.85.7-2.1q1.85-3.75 4.3-6.25l3.05 1.65 3.65 29.9m-54 25.95-3.7-1.55-5.85-32.1 9.55 1.25v32.4M177 242.3l-4.25.45-.45-.15-.15-8.7 1.15.55h4.4l-.2.9-.35 1.3-.15 5.65" fill="#a2690d" fill-rule="evenodd" transform="translate(-168.9 -105.3)"/><path d="m250.85 238.4 2.4-2.45q.75-1.25 1.25-1l1.7 1.7.5 2.7-4.9-1.2-.95.25" fill="#c49b9b" fill-rule="evenodd" transform="translate(-168.9 -105.3)"/><path d="M236.15 256.7v.25l-.5 1.5.5-1.75" fill="#845151" fill-rule="evenodd" transform="translate(-168.9 -105.3)"/><path d="m222.7 256 .6-.05 9.65-.95.75-.5 1.95 1.75-1.45 9.05.25 2.2-10.55 1.95-1.2-13.45.6-.05-.6.05" fill="#ab7070" fill-rule="evenodd" transform="translate(-168.9 -105.3)"/><path d="m188.95 221.75 1.2-.75.1.4-1.3.35" fill="#8f5714" fill-rule="evenodd" transform="translate(-168.9 -105.3)"/><path d="m223.15 295.5-16.3-6.85v-32.4q7.4.45 15.85-.25l-4.65 5.15 1.7 6.1-1.45 4.9 3.65 9.75 1.2 13.6m-20-8.4-31.35-13.2-1.95-30.85 2.9-.3Q182.2 252 197.3 255l5.85 32.1" fill="#e2b310" fill-rule="evenodd" transform="translate(-168.9 -105.3)"/><path d="M148.95 30.65q4.6 4.65 1.75 10.9l.35 2.15-1.25-2.95m-64.2-15.2-.85-1-14.45-8v-3.9L87.9 23m3.15 2.3q29.9-19.45 47.35.25l.5.5q6.95-.45 9.35.8 1.7-13.7-8.65-26.8 9.05.65 11.65 20.35L150 27.6l-.55.95-.25 1.2-.1.2m-.05.2H149l.1-.2m.35-1.4q0-1.05-1.2-1.7l.95 2.9M143.8 33l.1.1m2.75.3-.75-1.75m-2.1 1.4h.05l.05.15-1.9-.45 1.8.3m3.45.7v-.1l-.3.45m-2.85 2.75h.05m-.05 0q-26.75-25.05-56.4-8.7l-2.05-.35m61.8 5.9-.2-.05m1.45.25 2.35 9.8m-66.3-19.15.85.9m0 .1 3.1 1.2" fill="none" stroke="#28383e" stroke-linecap="round" stroke-linejoin="round" stroke-opacity=".502" stroke-width=".1"/><path d="m110.4 131.3.15 1.55-15.15 24.2-3.45.35-6.6.65-30.8 32.25M.85 136.25l-.85-9.3 12-6.3m.75-.4 7.3-3.8 1.2-.75 2.7-5.35 1.5-1.75.2-.2L50.9 95.05m3.6-1.9 1.75-.9 5.15.25 11.6.55 3.8.15.75 5.9q13.5-8.95 29.35-2.95l2.7 27.2" fill="none" stroke="#8f4b1b" stroke-linecap="round" stroke-linejoin="round" stroke-width=".05"/><path d="m54.25 190.2-16.3-6.85-3.7-1.55L2.9 168.6.95 137.75v-.1l-.1-1.4m83.8-10.75.6.35 3.05 1.65 3.65 29.9m-38.15-6.7.6-.05m-50.55-13.2q9.45 9.25 24.55 12.25l9.55 1.25q7.4.45 15.85-.25M8.6 130.05l-.35 1.3L8.1 137m-4.85-8.4.15 8.7.45.15m34.1 13.5v32.4M28.4 149.7l5.85 32.1" fill="none" stroke="#28383e" stroke-linecap="round" stroke-linejoin="round" stroke-opacity=".502" stroke-width=".1"/></g></defs></svg>