<svg viewBox="0 0 277.97 343.35" xmlns="http://www.w3.org/2000/svg" xmlns:xlink="http://www.w3.org/1999/xlink"><use transform="translate(.02)" width="277.9" height="343.35" xlink:href="#a"/><defs><linearGradient id="b" x1="-819.2" x2="819.2" gradientTransform="matrix(.0175 0 0 .0383 350.1 13.4)" gradientUnits="userSpaceOnUse"><stop stop-color="#ffe888" offset="0"/><stop stop-color="#fff2c4" offset="1"/></linearGradient><linearGradient id="c" x1="-819.2" x2="819.2" gradientTransform="matrix(.0256 0 0 .0525 247.05 168.9)" gradientUnits="userSpaceOnUse"><stop stop-color="#dcbb76" offset="0"/><stop stop-color="#dba671" offset="1"/></linearGradient><linearGradient id="d" x1="-819.2" x2="819.2" gradientTransform="matrix(.0423 0 0 .0404 211.3 211.55)" gradientUnits="userSpaceOnUse"><stop stop-color="#dcbb76" offset="0"/><stop stop-color="#dba671" offset="1"/></linearGradient><linearGradient id="e" x1="-819.2" x2="819.2" gradientTransform="matrix(.0195 0 0 .0222 161.25 220.75)" gradientUnits="userSpaceOnUse"><stop stop-color="#dcbb76" offset="0"/><stop stop-color="#dba671" offset="1"/></linearGradient><linearGradient id="f" x1="-819.2" x2="819.2" gradientTransform="matrix(.015 0 0 .0087 175.65 237.55)" gradientUnits="userSpaceOnUse"><stop stop-color="#dcbb76" offset="0"/><stop stop-color="#dba671" offset="1"/></linearGradient><linearGradient id="g" x1="-819.2" x2="819.2" gradientTransform="matrix(.0408 0 0 .035 209.25 149.75)" gradientUnits="userSpaceOnUse"><stop stop-color="#f1e4c9" offset="0"/><stop stop-color="#e7c8a1" offset="1"/></linearGradient><linearGradient id="h" x1="-819.2" x2="819.2" gradientTransform="matrix(.0391 0 0 .031 177.4 186)" gradientUnits="userSpaceOnUse"><stop stop-color="#f1e4c9" offset="0"/><stop stop-color="#e7c8a1" offset="1"/></linearGradient><linearGradient id="i" x1="-819.2" x2="819.2" gradientTransform="matrix(.0195 0 0 .0124 174.35 154.2)" gradientUnits="userSpaceOnUse"><stop stop-color="#f1e4c9" offset="0"/><stop stop-color="#e7c8a1" offset="1"/></linearGradient><linearGradient id="j" x1="-819.2" x2="819.2" gradientTransform="matrix(.0288 0 0 .0199 200.25 194.35)" gradientUnits="userSpaceOnUse"><stop stop-color="#f1e4c9" offset="0"/><stop stop-color="#e7c8a1" offset="1"/></linearGradient><linearGradient id="k" x1="-819.2" x2="819.2" gradientTransform="matrix(.0354 0 0 .0202 216.9 231.2)" gradientUnits="userSpaceOnUse"><stop stop-color="#f1e4c9" offset="0"/><stop stop-color="#e7c8a1" offset="1"/></linearGradient><linearGradient id="l" x1="-819.2" x2="819.2" gradientTransform="matrix(.0186 0 0 .0574 256.9 169.4)" gradientUnits="userSpaceOnUse"><stop stop-color="#f1e4c9" offset="0"/><stop stop-color="#e7c8a1" offset="1"/></linearGradient><linearGradient id="m" x1="-819.2" x2="819.2" gradientTransform="matrix(.0508 0 0 .0275 381 20.95)" gradientUnits="userSpaceOnUse"><stop stop-color="#ffe888" offset="0"/><stop stop-color="#fff2c4" offset="1"/></linearGradient><g id="a"><path d="M193.6 289.95q19.05-6 46-6t46 6q19.05 6.1 19.1 14.75-.05 8.6-19.1 14.6-19.05 6.1-46 6.1t-46-6.1q-19.05-6-19.05-14.6 0-8.65 19.05-14.75" fill="#333" fill-opacity=".741" fill-rule="evenodd" transform="translate(-145 17.95)"/><path d="M364.45-17.75q1.3.5 2.25 2.4-2.95 25.8-27.5 58.6l-1.6.7 26.85-61.7" fill="#fc0" fill-rule="evenodd" transform="translate(-145 17.95)"/><path d="M335.75 44.8q1.5-8.6 4.2-17.65l1.95 4.9-.2-10.45q4.9-14.85 12.95-30.95 6.2-9.8 9.8-8.4l-26.85 61.7-1.85.85" fill="url(#b)" fill-rule="evenodd" transform="translate(-145 17.95)"/><path d="M190.75 62.75q1.5-8.6 4.2-17.65l1.95 4.9-.2-10.45q4.9-14.85 12.95-30.95 6.2-9.8 9.8-8.4 1.3.5 2.25 2.4-2.95 25.8-27.5 58.6" fill="none" stroke="#000" stroke-linecap="round" stroke-linejoin="round" stroke-opacity=".431" stroke-width=".05"/><path d="M245.4 201.2q3.3 5.05 4.2 10.7.35 2.2.35 4.5-3.85.1-4.25 2.5h-.2l.4-4.25q.4-6.6-.5-13.45" fill="#dcbb76" fill-rule="evenodd" transform="translate(-145 17.95)"/><path d="M190.35 158.9q6.35.35 12.8 1.9l8.25 15.15q8 .8 14.65 2.5l-2.15 1.65-13.8-2.05-31.1 7.9 30.45-9.4-6.95-13.65q-20.15-5.25-44.15 1.45 15.65-6.5 32-5.45M161.6 240l1.8-1.1-1.8 1.1-3.4-2.85 5.2 1.75 17 5.75h7.55l2.85 3.1q-17.3 1.1-29.2-7.75m47.85-63.45 1.95-.6-1.95.6" fill="#ebd8b1" fill-rule="evenodd" transform="translate(-145 17.95)"/><path d="M215.15 140.5q-3.8 2.2-7.55 1.9-3.8-.25-5.3-2.85t.15-6.05q1.65-3.35 5.45-5.55t7.6-1.95q3.75.3 5.25 2.9t-.15 5.95q-1.65 3.45-5.45 5.65" fill="#f5ecd8" fill-rule="evenodd" transform="translate(-145 17.95)"/><path d="M242.2 125.95q8.25 2.45 16.5 8.65 9.3 12.25 9 23.1 1.35 13.1-2.8 26.2-5.7 14.95-15.3 28-.9-5.65-4.2-10.7-1.1-8.1-4-16.6-6.45-3.9-15.35-6.15 19.6-23.3 16.15-52.5" fill="url(#c)" fill-rule="evenodd" transform="translate(-145 17.95)"/><path d="M226.05 178.45q8.9 2.25 15.35 6.15 2.9 8.5 4 16.6.9 6.85.5 13.45l-32.35 22.4q-12.15 6.2-25.6 7.6v-6.25l-10.7-7.95-.6-19.8Q202 197 223.9 180.1l2.15-1.65" fill="url(#d)" fill-rule="evenodd" transform="translate(-145 17.95)"/><path d="m176.65 210.65.6 19.8-13.85 8.45-5.2-1.75-1.1-1.1q-12.9-12.9-11.75-33.45 15 11.4 31.3 8.05" fill="url(#e)" fill-rule="evenodd" transform="translate(-145 17.95)"/><path d="m177.25 230.45 10.7 7.95v6.25h-7.55l-17-5.75 13.85-8.45" fill="url(#f)" fill-rule="evenodd" transform="translate(-145 17.95)"/><path d="M242.2 125.95q3.45 29.2-16.15 52.5-6.65-1.7-14.65-2.5l-8.25-15.15q-6.45-1.55-12.8-1.9l-2.75-8.15-11.8-6.65q19.85-18.1 43.4-22.1 12.5-2.1 22.5.4l.5 3.55m-27.05 14.55q3.8-2.2 5.45-5.65 1.65-3.35.15-5.95t-5.25-2.9q-3.8-.25-7.6 1.95t-5.45 5.55q-1.65 3.45-.15 6.05t5.3 2.85q3.75.3 7.55-1.9" fill="url(#g)" fill-rule="evenodd" transform="translate(-145 17.95)"/><path d="M145.35 202.6q.2-3.7.9-7.6 2.7-16.2 12.1-30.65 24-6.7 44.15-1.45l6.95 13.65-30.45 9.4-2.35 24.7q-16.3 3.35-31.3-8.05" fill="url(#h)" fill-rule="evenodd" transform="translate(-145 17.95)"/><path d="m175.8 144.1 11.8 6.65 2.75 8.15q-16.35-1.05-32 5.45 5.6-8.6 13.6-16.6l3.85-3.65" fill="url(#i)" fill-rule="evenodd" transform="translate(-145 17.95)"/><path d="M223.9 180.1Q202 197 176.65 210.65l2.35-24.7 31.1-7.9 13.8 2.05" fill="url(#j)" fill-rule="evenodd" transform="translate(-145 17.95)"/><path d="M187.95 244.65q13.45-1.4 25.6-7.6l32.35-22.4-.4 4.25-.4 2.55q-21.3 21.15-46.95 25.45l-7.35.85-2.85-3.1" fill="url(#k)" fill-rule="evenodd" transform="translate(-145 17.95)"/><path d="M249.6 211.9q9.6-13.05 15.3-28 4.15-13.1 2.8-26.2.3-10.85-9-23.1-8.25-6.2-16.5-8.65l-.5-3.55q10.7 2.6 18.6 10.5 15.2 15.2 10.85 41.05-3.9 22.95-21.2 42.45 0-2.3-.35-4.5" fill="url(#l)" fill-rule="evenodd" transform="translate(-145 17.95)"/><path d="M104.95 234.35q17.3-19.5 21.2-42.45 4.35-25.85-10.85-41.05-7.9-7.9-18.6-10.5-10-2.5-22.5-.4-23.55 4-43.4 22.1M13.35 182.3q5.6-8.6 13.6-16.6l3.85-3.65M.35 220.55q.2-3.7.9-7.6 2.7-16.2 12.1-30.65m3.25 75.65q11.9 8.85 29.2 7.75m-32.6-10.6 3.4 2.85m-3.4-2.85-1.1-1.1Q-.8 241.1.35 220.55m99.75 18.85q-21.3 21.15-46.95 25.45l-7.35.85m54.3-26.3.6-2.55m4.25-2.5q-3.85.1-4.25 2.5" fill="none" stroke="#000" stroke-linecap="round" stroke-linejoin="round" stroke-opacity=".431" stroke-width=".05"/><path d="M81.05 196.4q8.9 2.25 15.35 6.15 2.9 8.5 4 16.6 3.3 5.05 4.2 10.7.35 2.2.35 4.5m-74.15-72.3 11.8 6.65 2.75 8.15q6.35.35 12.8 1.9l8.25 15.15q8 .8 14.65 2.5m-49.4 32.2.6 19.8 10.7 7.95v6.25m57.95-30q.4-6.6-.5-13.45M13.35 182.3q15.65-6.5 32-5.45m-26.95 80-1.8 1.1m29.2 7.75-2.85-3.1m-24.55-5.75 13.85-8.45m-.6-19.8L34 203.9l30.45-9.4m1.95-.6-1.95.6m36.05 42.35-.4 2.55m.4-2.55.4-4.25" fill="none" stroke="#000" stroke-linecap="round" stroke-linejoin="round" stroke-opacity=".431" stroke-width=".05"/><path d="M254.6 138.35q-4.7 5.35 2 9.25l3.2-.3q1.05 10.6-3.6 11.15-6.25-7.25-6.45-16.05 1.75-4 4.85-4.05" fill="#8c6d24" fill-opacity=".612" fill-rule="evenodd" transform="translate(-145 17.95)"/><path d="M331.1 46.5q-45.1-15.9-92.6 3.1-99.2 46-86.75 78.35 2.35 9.8 28.5 12.45l-7.6 6.4q-51.45-14.65-7.25-58.65Q236.7 31.2 301.25 34.8q18.8 1 31.7 5.1v-6.35q5.1-2.3 7.2 4.4l-.8 4.35h.05l2.45 1.15 2.15 1.1q19.5 10.8 16.6 33.15-27.25 53.8-100.8 69.6l-3.2.3q-6.7-3.9-2-9.25 38.3-1.25 76.25-33.9 37.95-32.7 13.7-52.45l-4.5-2-3.15 3.65q-6.6.05-5.6-4.45l2.1-1.9-2.3-.8" fill="#030" fill-rule="evenodd" transform="translate(-145 17.95)"/><path d="m344 44.55-2.15-1.1 80.75-41.5q.7 2.1-.15 5.5-26.2 27.25-78.45 37.1" fill="#fc0" fill-rule="evenodd" transform="translate(-145 17.95)"/><path d="m331.1 46.5 2.3.8-2.1 1.9-15.25 6.45 15.05-9.15" fill="#ffeb9b" fill-rule="evenodd" transform="translate(-145 17.95)"/><path d="m341.85 43.45-2.45-1.15q9.2-8.45 19.95-16.05l-2.75 8.1L366 21.7Q384 9.85 406 .2q14.6-4.25 16.6 1.75l-80.75 41.5" fill="url(#m)" fill-rule="evenodd" transform="translate(-145 17.95)"/><path d="M194.4 60.25q9.2-8.45 19.95-16.05l-2.75 8.1 9.4-12.65q18-11.85 40-21.5 14.6-4.25 16.6 1.75.7 2.1-.15 5.5-26.2 27.25-78.45 37.1m-12.9 1.95-15.05 9.15 15.25-6.45" fill="none" stroke="#000" stroke-linecap="round" stroke-linejoin="round" stroke-opacity=".431" stroke-width=".05"/></g></defs></svg>