<svg viewBox="0 0 118.82 125.4" xmlns="http://www.w3.org/2000/svg" xmlns:xlink="http://www.w3.org/1999/xlink"><use transform="translate(.02)" width="118.8" height="125.4" xlink:href="#a"/><defs><use width="118.8" height="125.4" xlink:href="#b" id="a"/><g id="b"><path d="m48 31.05.4-.3q11.15-9 22.7-16.2L56.75 26.6l6.35-3.4-8.65 8.4-12.95 8.85L24.75 58l12.9-15.8L48 31.05m46.6-28L108.2 2l-.85 1.9-5.4.2-2.95.55-8.2 1.45 3.8-3.05m-75.4 68.3-2.1 4.6-5.8.9-3.6-1.65-3.5-9.55q-.95-3.55-.65-5.6L6.8 68l-.1.95q.15 1.8.95 3.1.7 1.15 2 1.85l5.95-.3 3.6-2.25" fill="#434201" fill-rule="evenodd" transform="translate(.1 .1)"/><path d="m51.1 75.65-.9-2.45-1.4-2.55Q46.4 66.9 42.15 65 39 63.95 37.6 61.6l-.85-1.65-.1-1.15Q31 58.6 38 48.95l5.1-4.2-.8 6.95 1.15 5.9 2.8 3.2 4 7.7 3.95 10.95-3.1-3.8m-34 .3L16 78.2q-4.1 3.1-9.65-.05l-1.9-3.95 3.85 2.65h3l5.8-.9m1.85-42.7q1.1-7 4.25-14 .55-3.95-9.65-1.75-12.05.05-7.7-10.65-.05 10.35 8.7 7.3 6.8-2.05 12.2 3.5Q23.85 26 24.3 34.7l-1.65 2 .65-9.95-4.35 6.5m-9.45 26 1.5.7q2 1.1 2.4 2.5l-4.8 2.4Q7 66.35 6.8 68l-3.25-7.95Q3.7 58.2 4.8 57.6q1.95 0 4.7 1.65m29.65-6.65q-2.3 4.15-2.5 6.2.2-2.05 2.5-6.2" fill="#ab6907" fill-rule="evenodd" transform="translate(.1 .1)"/><path d="m70.05 48.65.35.85-.9 4.8Q65 63.65 58.35 67.05q6.8 12.85.7 24.55l-22.5 18.75L34 125.2l.3-15.9 11.05-10.8L52.1 84q.05-4.7-1-8.35l3.1 3.8-3.95-10.95-4-7.7 3.9 4.3L45 54.2l1.5-6.15 4-9.3 2.35-1.65-4.25 9.15.45 11.25 8.3 13.1-6-13.45 1.9-8.45q-.05 6.7 3.8 15.6 4.25-1.65 6.8-7.95L63.1 61l3.65-5.3q2.15-1.1 3.3-7.05M4.45 74.2q-2.9-6.75-2.95-14.15-4.1-12.65 2.85-19.2 11-1.1 14.6-7.6l4.35-6.5-.65 9.95q-6.1 6.35-14.15 7.15-5.45 2.5.15 13.85l.85 1.55Q6.75 57.6 4.8 57.6q-1.1.6-1.25 2.45-.3 2.05.65 5.6l3.5 9.55 3.6 1.65h-3L4.45 74.2m8.95-11.75q1.45-.85 2.95-1.55l-3.05 3.4-2 4.3 9.7-8.45-4.85 10.4-8.5 1.5q-.8-1.3-.95-3.1l.1-.95q.2-1.65 1.8-3.15l4.8-2.4m44.5 9.1-.55-.95.55.95M3.45 51.9q-2.3.25-1.95 8.15-.35-7.9 1.95-8.15m54.9 15.15-1.3-2.75 1.3 2.75" fill="#8a5506" fill-rule="evenodd" transform="translate(.1 .1)"/><path d="M48 31.05 37.65 42.2 24.75 58 41.5 40.45l12.95-8.85-11.1 10.85-5.35 6.5q-7 9.65-1.35 9.85l.1 1.15.85 1.65-6.75 5.9q-4-.5-11.65 3.85l-3.6 2.25-5.95.3q-1.3-.7-2-1.85l8.5-1.5L21 60.15l-9.7 8.45 2-4.3 3.05-3.4Q31.75 44.15 48 31.05m2.2 42.15-10.45 4.75q-4.2 3.3-3.6 7.75l-.65 12.65-1.55-12.05Q33 80.15 39.1 75.2l9.7-4.55 1.4 2.55m2.65-36.1 7.65-5.45-1.55 5.15-3.25 2.6q-2.45 4-2.45 9.3l-1.9 8.45 6 13.45-8.3-13.1-.45-11.25 4.25-9.15" fill="#412703" fill-rule="evenodd" transform="translate(.1 .1)"/><path d="m54.45 31.6 8.65-8.4 6.5-3.55 3.4-.15q-4.15 3.05-7 5.9-2.35 1-4.8 4.1l-.7 2.15-7.65 5.45-2.35 1.65-4 9.3L45 54.2l5.15 10.9-3.9-4.3-2.8-3.2-1.15-5.9.8-6.95-5.1 4.2 5.35-6.5 11.1-10.85m52.9-27.7 11.25-.4-12.75 2.05L101.5 8l-5.1 5.05 6.95-3.1.4 1.65.4 1.6q-4.55 1.4-8.95 3.2-8.9 3.45-17.25 8.05l-.7-4 7.6-8.45.4-.25Q91.4 8.25 99 4.65l2.95-.55 5.4-.2" fill="#660" fill-rule="evenodd" transform="translate(.1 .1)"/><path d="m105.85 5.55-1.4 3 3.6.2.7 1.1-5 1.75-.4-1.65-6.95 3.1L101.5 8l4.35-2.45M60.5 31.65l.7-2.15q2.45-3.1 4.8-4.1 2.85-2.85 7-5.9 5-3.65 11.85-7.5l-7.6 8.45-7.65 6.35-3.55 1.65Q62.1 33.3 61.65 38l5.9 9.85q1 5.1-.8 7.85L63.1 61l.75-4.65 1.2-5.5-3.6-4.1L58 39.9l.95-3.1 1.55-5.15m8.85-6.6q-1.6-.4-3.35.35 1.75-.75 3.35-.35" fill="#baba01" fill-rule="evenodd" transform="translate(.1 .1)"/><path d="m63.1 23.2-6.35 3.4L71.1 14.55q4.35-2.8 8.8-5.25Q89 4.15 98.4 0l-7.6 6.1L99 4.65q-7.6 3.6-13.75 7.1l-.4.25Q78 15.85 73 19.5l-3.4.15-6.5 3.55m14.85 1.25q-4.9 2.7-9.7 5.8l-2.95 6.4 4.1 10.3.65 1.7q-1.15 5.95-3.3 7.05 1.8-2.75.8-7.85L61.65 38q.45-4.7 4.4-9.55l3.55-1.65 7.65-6.35.7 4" fill="#7e7e01" fill-rule="evenodd" transform="translate(.1 .1)"/><path d="M71.2 14.65q-11.55 7.2-22.7 16.2l-.4.3L37.75 42.3l-12.9 15.8L41.6 40.55l12.95-8.85 8.65-8.4-6.35 3.4L71.2 14.65q4.35-2.8 8.8-5.25Q89.1 4.25 98.5.1l-3.8 3.05 13.6-1.05-.85 1.9 11.25-.4-12.75 2.05-1.4 3 3.6.2.7 1.1-5 1.75.4 1.6q-4.55 1.4-8.95 3.2-8.9 3.45-17.25 8.05-4.9 2.7-9.7 5.8l-2.95 6.4 4.1 10.3.65 1.7.35.85-.9 4.8q-4.5 9.35-11.15 12.75 6.8 12.85.7 24.55l-22.5 18.75-2.55 14.85.3-15.9 11.05-10.8 6.75-14.5q.05-4.7-1-8.35l-.9-2.45-10.45 4.75q-4.2 3.3-3.6 7.75l-.65 12.65-1.55-12.05q-.95-6.15 5.15-11.1l9.7-4.55Q46.5 67 42.25 65.1q-3.15-1.05-4.55-3.4l-6.75 5.9q-4-.5-11.65 3.85l-2.1 4.6-1.1 2.25q-4.1 3.1-9.65-.05l-1.9-3.95q-2.9-6.75-2.95-14.15-4.1-12.65 2.85-19.2 11-1.1 14.6-7.6 1.1-7 4.25-14 .55-3.95-9.65-1.75-12.05.05-7.7-10.65-.05 10.35 8.7 7.3 6.8-2.05 12.2 3.5-2.9 8.35-2.45 17.05l-1.65 2q-6.1 6.35-14.15 7.15-5.45 2.5.15 13.85l.85 1.55 1.5.7q2 1.1 2.4 2.5 1.45-.85 2.95-1.55 15.4-16.75 31.65-29.85m-29.05 2.2 4.35-6.5m14.7 22.2 5.1-4.2-.8 6.95 1.15 5.9 2.8 3.2 3.9 4.3-5.15-10.9 1.5-6.15 4-9.3 2.35-1.65 7.65-5.45.7-2.15q2.45-3.1 4.8-4.1 2.85-2.85 7-5.9l-3.4.15-6.5 3.55M38.1 49.05l5.35-6.5 11.1-10.85M99.1 4.75l2.95-.55 5.4-.2m-1.5 1.65L101.6 8.1l-5.1 5.05 6.95-3.1.4 1.65M99.1 4.75 90.9 6.2l3.8-3.05m-9.75 8.95.4-.25q6.15-3.5 13.75-7.1m-21.75 15.8L69.7 26.9l-3.55 1.65q-3.95 4.85-4.4 9.55l5.9 9.85q1 5.1-.8 7.85 2.15-1.1 3.3-7.05M66.1 25.5q1.75-.75 3.35-.35m-8.85 6.6-1.55 5.15-.95 3.1 3.45 6.85 3.6 4.1-1.2 5.5-.75 4.65 3.65-5.3m-13.9-18.6-4.25 9.15.45 11.25 8.3 13.1-6-13.45 1.9-8.45q0-5.3 2.45-9.3l3.25-2.6m-5.7 11.9q-.05 6.7 3.8 15.6 4.25-1.65 6.8-7.95m13.4-35.9.7 4m6.9-12.45-7.6 8.45m-4.25-.95q5-3.65 11.85-7.5m-27.5 58.6.55.95M46.35 60.9l4 7.7 3.95 10.95-3.1-3.8m-.9-2.45-1.4-2.55M37.7 61.7l-.85-1.65-.1-1.15q-5.65-.2 1.35-9.85M16.45 61l-3.05 3.4-2 4.3 9.7-8.45-4.85 10.4-8.5 1.5q.7 1.15 2 1.85l5.95-.3 3.6-2.25m-5.8-8.9-4.8 2.4q-1.6 1.5-1.8 3.15l-.1.95q.15 1.8.95 3.1m-4.1-12L6.9 68.1m-3.25-7.95q-.3 2.05.65 5.6l3.5 9.55 3.6 1.65 5.8-.9m-7.6-16.7Q6.85 57.7 4.9 57.7q-1.1.6-1.25 2.45m-2.05 0q-.35-7.9 1.95-8.15m7.85 24.95h-3L4.55 74.3m52.6-9.9 1.3 2.75m-21.7-8.25q.2-2.05 2.5-6.2" fill="none" stroke="#000" stroke-linecap="round" stroke-linejoin="round" stroke-opacity=".31" stroke-width=".2"/></g></defs></svg>