<svg width="63" height="76" viewBox="242.6 143.34 62.969 76.163" xmlns="http://www.w3.org/2000/svg" xmlns:xlink="http://www.w3.org/1999/xlink"><defs><radialGradient id="a" cx="0" cy="0" r="819.2" gradientTransform="matrix(-.00891 -.00737 .0054 -.00655 283.1 167.5)" gradientUnits="userSpaceOnUse"><stop stop-color="#412f18" offset="0"/><stop stop-color="#b98046" offset=".596"/></radialGradient><radialGradient id="b" cx="0" cy="0" r="819.2" gradientTransform="matrix(-.01334 -.011 .00809 -.00978 289.4 161.1)" gradientUnits="userSpaceOnUse"><stop stop-color="#412f18" offset="0"/><stop stop-color="#b98046" offset=".596"/></radialGradient><radialGradient id="c" cx="0" cy="0" r="819.2" gradientTransform="matrix(-.01326 -.01094 .00804 -.0097 291 162.45)" gradientUnits="userSpaceOnUse"><stop stop-color="#412f18" offset="0"/><stop stop-color="#b98046" offset=".596"/></radialGradient><radialGradient id="d" cx="0" cy="0" r="819.2" gradientTransform="matrix(-.01076 -.00887 .00652 -.00789 297.2 156.45)" gradientUnits="userSpaceOnUse"><stop stop-color="#412f18" offset="0"/><stop stop-color="#b98046" offset=".596"/></radialGradient><radialGradient id="e" cx="0" cy="0" r="819.2" gradientTransform="matrix(-.01045 -.00864 .00635 -.00768 294.35 154.65)" gradientUnits="userSpaceOnUse"><stop stop-color="#412f18" offset="0"/><stop stop-color="#b98046" offset=".596"/></radialGradient><radialGradient id="f" cx="0" cy="0" r="819.2" gradientTransform="matrix(-.00902 -.00745 .00546 -.00662 287.9 171.15)" gradientUnits="userSpaceOnUse"><stop stop-color="#412f18" offset="0"/><stop stop-color="#b98046" offset=".596"/></radialGradient><radialGradient id="g" cx="0" cy="0" r="819.2" gradientTransform="matrix(-.02234 -.01845 .01354 -.01639 278.7 178.85)" gradientUnits="userSpaceOnUse"><stop stop-color="#412f18" offset="0"/><stop stop-color="#b98046" offset=".596"/></radialGradient><radialGradient id="h" cx="0" cy="0" r="819.2" gradientTransform="matrix(-.02254 -.0186 .01366 -.01653 275.85 176.3)" gradientUnits="userSpaceOnUse"><stop stop-color="#412f18" offset="0"/><stop stop-color="#b98046" offset=".596"/></radialGradient><radialGradient id="i" cx="0" cy="0" r="819.2" gradientTransform="matrix(-.00333 -.00275 .00201 -.00243 264.25 191.7)" gradientUnits="userSpaceOnUse"><stop stop-color="#412f18" offset="0"/><stop stop-color="#b98046" offset=".596"/></radialGradient><radialGradient id="j" cx="0" cy="0" r="819.2" gradientTransform="matrix(-.00577 -.00478 .0035 -.00424 289.8 164.75)" gradientUnits="userSpaceOnUse"><stop stop-color="#159971" offset="0"/><stop stop-color="#93fe92" offset=".604"/><stop stop-color="#f2fff2" offset=".988"/></radialGradient><radialGradient id="k" cx="0" cy="0" r="819.2" gradientTransform="translate(15.75 -2.05) scale(.04187)" gradientUnits="userSpaceOnUse"><stop stop-color="#52351b" offset="0"/><stop stop-color="#9b6b33" offset="1"/></radialGradient><radialGradient id="l" cx="0" cy="0" r="819.2" gradientTransform="matrix(.0094 0 0 .0094 -4.75 -18.65)" gradientUnits="userSpaceOnUse"><stop stop-color="#fff" offset="0"/><stop stop-color="#9b6b33" offset="1"/></radialGradient><radialGradient id="m" cx="0" cy="0" r="819.2" gradientTransform="matrix(.03583 0 0 .03583 -6.1 -15.95)" gradientUnits="userSpaceOnUse"><stop stop-color="#fff" offset="0"/><stop stop-color="#9b6b33" offset="1"/></radialGradient><radialGradient id="n" cx="0" cy="0" r="819.2" gradientTransform="translate(-9.5 -4.25) scale(.01213)" gradientUnits="userSpaceOnUse"><stop stop-color="#ffdc66" offset="0"/><stop stop-color="#a22626" offset="1"/></radialGradient><radialGradient id="o" cx="0" cy="0" r="819.2" gradientTransform="matrix(.0212 0 0 .0212 259.85 198.85)" gradientUnits="userSpaceOnUse"><stop stop-color="#fff" offset="0"/><stop stop-color="#fff" stop-opacity="0" offset="1"/></radialGradient><g id="p"><path d="m299.05 159.15.4 3.1-1.55-4 1.15.9m-5.4 5.05.9 2.8-.25-.4-3.15-5.9-6.45-2.05-.45-.1 2.95.35.65-.35 6.5-3.2.75.6.7.55-1.95 7.1-.2.6m-10.25 12.4.65 2.55-9.45-7.8 2.65.15.95.05 1.7.1 1.3 1.1 1.55 1.25v.05l.35 1.4.3 1.15m-2 2.45-.05 1.9-1.25-2 1.3.1m-8-4.65 1.85-.45.35 1.25-2.2-.8m14.65-21.55 3.1-.2 1.1.95-3.65-.65-.55-.1m7.05 3.1-3.95 4.75 3.95-4.75" fill="#412f18"/><path d="m284.05 179.15-2.65-.1-2.6-.2-1.45-1.15-1.45-1.2-.3-1.3-.35-1.25-.65-2.6 9.45 7.8" fill="#b98046"/><path d="m267 191.7-.4.55-.65-.75-.05-.05q-.4-.35-.85-.45l.5-.55.75.65.7.6" fill="#523a1e"/><path d="m277.25 171.5 5.2-6.35 1.2 4.6-2.45 3-1.3-1.1-1.7-.1-.95-.05m.95.05 4.05-5.2-4.05 5.2" fill="url(#a)"/><path d="m282.45 165.15-.75-3.5 2.55-3.1.45.1 6.45 2.05-6.95 8.35-1.95-7.2 2.45-3.2-2.45 3.2 1.95 7.2-.05.1-.5.6-1.2-4.6" fill="url(#b)"/><path d="m294.55 167-2.55 3.15-3.2-.1-5.15-.3.5-.6.05-.1 6.95-8.35 3.15 5.9.25.4m-.25-.4-2.75 3.1-7.4-.55 7.4.55 2.75-3.1" fill="url(#c)"/><path d="m299.45 162.25-5.8 1.95.2-.6 1.95-7.1 2.1 1.75 1.55 4m-.8-.3-4.8 1.65 4.8-1.65" fill="url(#d)"/><path d="m287.2 158.9.85-6.05.55.1 3.65.65 2.1 1.75-6.5 3.2-.65.35m.65-.35.75-5.6-.75 5.6" fill="url(#e)"/><path d="m288.8 170.05-5.4 6.55-.3-1.15-.35-1.4V174l-1.55-1.25 2.45-3 5.15.3m-1.65.5-4.05 4.9 4.05-4.9" fill="url(#f)"/><path d="m281.35 180.95-4.15.65-5.05 10.75-2.2-.05-2.15.05-.8-.65-.7-.6 11.05-13.4 1.45 1.15 1.3.1 1.25 2m-13.6 10.45 3.5-.1 4.6-9.8-4.6 9.8-3.5.1" fill="url(#g)"/><path d="m265.55 190.45-.8-.65-.85-4.25 9.65-7-.15-4.15 2.2.8.3 1.3 1.45 1.2-11.05 13.4-.75-.65m8.15-10.85-8.7 6.85.65 2.9-.65-2.9 8.7-6.85" fill="url(#h)"/><path d="m266.6 192.25.2.55h-.05l-1.1-.2-1-.8-.65-.9.45-.05.6.15q.45.1.85.45l.05.05.65.75" fill="url(#i)"/><path d="m245.9 219.3-.05-.3 18.9-27.05.4.6.5.05 1.1.2-20.85 26.5" fill="#8c876c"/><path d="m266.8 192.8 10.65 1.8-16.75 21.45-14.8 3.45v-.2l20.85-26.5h.05" fill="#b8b5a0"/><path d="M245.85 219v-.4l17.35-28.9.8 1.2.65.9.1.15-18.9 27.05" fill="#edebe7"/><path d="m245.85 218.6-.1-1.3-.95-12.7.55-.8 15-21.5 2.85 7.4-17.35 28.9" fill="#c8c5b7"/><path d="m299.05 159.15.4 3.1-5.8 1.95.9 2.8-2.55 3.15-3.2-.1-5.4 6.55.65 2.55-2.65-.1-.05 1.9-4.15.65m-7.25 10.7-2.15.05-.8-.65-.4.55.2.55m-2.8-1.9.45-.05.6.15.5-.55-.8-.65-.85-4.25 9.65-7-.15-4.15 1.85-.45-.65-2.6 2.65.15 5.2-6.35-.75-3.5 2.55-3.1 2.95.35.85-6.05 3.1-.2m6.75 5.6 1.55 4m-8.3-1.55 3.15 5.9.25.4m-.9-2.8.2-.6 1.95-7.1m-3.55-2.9-3.65-.65-.55-.1m-.2 5.7 6.5-3.2m-9.65 3.3-.45-.1m2.95.35.65-.35m3.3 2.15-6.45-2.05m-.5 10.4 6.95-8.35 3.95-4.75m-13.9 16.8-1.3-1.1-1.7-.1-.95-.05m6.15 5.1-.3-1.15-.35-1.4V174l-1.55-1.25m2.45-3-1.2-4.6m6.35 4.9-5.15-.3.5-.6.05-.1m-2.8 10-1.3-.1 1.25 2m-1.25-2-1.3-.1-1.45-1.15-11.05 13.4.7.6m10.35-14-1.45-1.2-.3-1.3-2.2-.8m1.85-.45.35 1.25m-1-3.85 9.45 7.8m-19 11.85q.45.1.85.45l.05.05.65.75m-1.05-1.8.75.65" fill="none" stroke="#000" stroke-opacity=".251" stroke-width=".5"/><path d="m293.85 163.6 4.8-1.65m-10.05-9-.75 5.6m-3.15.1-2.45 3.2 1.95 7.2m-1.95-2.7-4.05 5.2m5.95-2.4 7.4.55 2.75-3.1m-11.2 8.85 4.05-4.9m-11.3 10.95-4.6 9.8-3.5.1m-2.1-2.05-.65-2.9 8.7-6.85" fill="none" stroke="#e1cbb5" stroke-width=".5"/><path d="m266.8 192.8 10.65 1.8m-31.55 24.9v-.2l-.05-.3v-.4l-.1-1.3m-.4-13.5 15-21.5 2.85 7.4.8 1.2m.75 1.05-.1-.15-.65-.9m1.65 1.7-.5-.05-.4-.6-18.9 27.05m20.95-26.2h-.05l-20.85 26.5m20.85-26.5-1.1-.2m-19.8 26 17.35-28.9" fill="none" stroke="#bbcab9" stroke-width=".5"/><path d="m277.45 194.6-16.75 21.45-14.8 3.45" fill="none" stroke="#666" stroke-width=".5"/><path d="m245.75 217.3-.95-12.7.55-.8" fill="none" stroke="#fff" stroke-width=".5"/><path d="m273.55 175.9 4.9 4-4.3 5.2-4.9-4 4.3-5.2" fill="#52351b"/><path d="m273.55 175.9 4.9 4-4.3 5.2-4.9-4 4.3-5.2" fill="none" stroke="#000" stroke-opacity=".251" stroke-width=".5"/><path d="m268 184.5 4.9 4-3.15 3.85-4.9-4 3.15-3.85" fill="#52351b"/><path d="m268 184.5 4.9 4-3.15 3.85-4.9-4 3.15-3.85" fill="none" stroke="#000" stroke-opacity=".251" stroke-width=".5"/></g><g id="q"><path d="m-4.9-7.55-.15.05v-.05h.15" fill="#face3a"/><path d="m1.15-30.2 1.95 1.95 1.75 6.8L2.5-16.2 0-17.5l1.25.65 2.95 5-.8.7L4.75-9.5 1.9-2 4-3.65l-.15 7.2 1.2.6-4.9 1.7 3.2.05.05 9.2-1.6.75 1.6.75-.3 3.25 1 1.25-1 .75 1.95.55-3.1 2.95.95 1.15-.95 1.2H0l-4-2.65 5.75-2.5 3.3-.15-3.3.15-3.35.15-1.7-.9v-2.35h4.45L0 19.15l-3.2-2.35v-.95h5l-3.25-1.5-2.3-2.65V9.15L-1.7 6.5l-1.5-1.25v-2.2l3-1.5-.9-.45-2.5-4.35 4.35-5.7-3.6 1.4v-9.95H0l-3.5-4.15-.6-5.55L0-31.35l1.15 1.15M3.4-11.15.75-8.95l2.65-2.2m-2.25 30.6 1.95.4-1.95-.4m-1-13.6-1.85.65 1.85-.65m3.7-2.3-4.05-2 4.05 2" fill="#412f18"/><path d="m3.1-28.25 1.95 1.95v20.45l-.8 1.15v.1l.8.75V11.5q-.15.75-.15 1.65l.05.15-.45 1.5.55.35V27.7l-2.5 3.7h-4.7l-2.9-3.7V15.45l.6-1.15v-.15l-.25-1.3-.35-1.9v-12.7L-3.8-3.4l-.35-1.35-.75-2.8h-.15V-26.3l.95-.9.6 5.55L0-17.5h-2.85v9.95l3.6-1.4-4.35 5.7 2.5 4.35.9.45-3 1.5v2.2l1.5 1.25-3.35 1.1 3.35-1.1-2.05 2.65v2.55l2.3 2.65 3.25 1.5 1.6-.75-.05-9.2-3.2-.05 4.9-1.7-1.2-.6.15-7.2L1.9-2l2.85-7.5-1.35-1.65.8-.7-2.95-5 1.25.65 2.55 1.35L2.5-16.2l2.35-5.25-1.75-6.8m.3 44.85-1.6-.75h-5v.95L0 19.15l1.15.3H-3.3v2.35l1.7.9 3.35-.15-5.75 2.5 4 2.65h1.95l.95-1.2-.95-1.15 3.1-2.95-1.95-.55 1-.75-1-1.25 1.95.45-1.95-.45.3-3.25 1.65.8-1.65-.8m.8-28.45.85-.75-.85.75m.85 39.55h-3.1 3.1M-5.05 18 0 19.15-5.05 18M0-17.5l-5.05-2.6L0-17.5M-1.1 1.1l-3.95-2 3.95 2m-.5 21.6-3.45.15 3.45-.15m-3.1-9.85 3.25 1.5-3.25-1.5m-.35 14.85H0h-5.05m.9-32.45 4.9-4.2-4.9 4.2" fill="#b98046"/><path d="M-5.05-10.35V-26.3l.95-.9L0-31.35l1.15 1.15" fill="none" stroke="#4f0000" stroke-opacity=".251" stroke-width=".5"/><path d="m1.15-30.2 3.9 3.9v20.45l-.8 1.15v.1l.8.75V11.5q-.15.75-.15 1.65l.05.15-.45 1.5.55.35V27.7l-2.5 3.7h-4.7l-2.9-3.7V15.45l.6-1.15v-.15l-.25-1.3-.35-1.9v-12.7L-3.8-3.4l-.35-1.35-.75-2.8-.15.05V-10.35M2.5-16.2l2.55 1.35m-3.8-2 1.25.65m-1.25-.65L0-17.5m.75 8.55 2.65-2.2.8-.7m-.35 15.4 1.2.6-4.9 1.7m1.65 10 1.6.75 1.65.8m0-30-.85.75m.85 32.15-1.95-.45-1.95-.4-1.15-.3L-5.05 18m7 9.7h3.1m-3.3-5.15 3.3-.15m-6.65.3 3.35-.15M0 27.7h1.95m-7-47.8L0-17.5m-1.7 24 1.85-.65M-1.1 1.1l.9.45 4.05 2M-1.7 6.5l-3.35 1.1m6.85 8.25-6.5-3m-.35 10 3.45-.15M-5.05-.9l3.95 2M.75-8.95l-4.9 4.2M0 27.7h-5.05" fill="none" stroke="#4f0000" stroke-opacity=".251" stroke-width=".5"/></g><g id="r"><path d="M290.3 167.6q-.75.9-2.2.85-1.4-.05-2.65-1.15-1.25-.95-1.6-2.4-.35-1.4.4-2.3t2.2-.8 2.7 1.1q1.25 1.05 1.55 2.45.35 1.35-.4 2.25" fill="#003c00"/><path d="m290 164.9.15.45.1.55-.05.4-.4.85q-.4.55-1.1.65h-.6q-1.05-.05-2.05-.85H286l-.4-.4-.5-.6q0-.75.35-1.05l.45-.45.3-.25.8-.35 1.3.15 1.7.9m-3.4 1.85.75.1.1-.05.05-.35q-.6-.7-1.25-.4-.1.05-.05.25l.4.45m2.1-.3-.25.05.45.05-.2-.1v.05l.6-.75q.2-.8-.8-1.3-.65-.3-.95 0 .1.2.35.25l.45.2.1.3q-.1.45-.65.35l-.05.05q.05.6.75.85l.15.05.05-.05" fill="url(#j)"/><path d="m285.1 165.95-.15-.25-.2-.65q-.2-.65 0-1.2l.3-.65.8-.55.55-.1h.2l.2.05h.5l.15.1.6.2.1.1.3.1.4.3.05.05q.75.7 1.1 1.45l-1.7-.9-1.3-.15-.8.35-.3.25-.45.45q-.35.3-.35 1.05" fill="#159971"/><path d="m286.6 166.75-.4-.45q-.05-.2.05-.25.65-.3 1.25.4l-.05.35-.1.05-.75-.1m2.1-.3-.05.05-.15-.05q-.7-.25-.75-.85l.05-.05q.55.1.65-.35l-.1-.3-.45-.2q-.25-.05-.35-.25.3-.3.95 0 1 .5.8 1.3l-.6.75v-.05" fill="#fff"/><path d="m288.7 166.45.2.1-.45-.05.25-.05" fill="#7ceb8c"/><path d="m290 164.9.15.45.1.55-.05.4-.4.85q-.4.55-1.1.65h-.6q-1.05-.05-2.05-.85H286l-.4-.4-.5-.6-.15-.25-.2-.65q-.2-.65 0-1.2l.3-.65.8-.55.55-.1h.2l.2.05h.5l.15.1.6.2.1.1.3.1.4.3.05.05q.75.7 1.1 1.45" fill="none" stroke="#000" stroke-opacity=".243" stroke-width=".5"/></g><g id="s"><path d="M5.75-21.15 7.3-16.3 4.95-9.65l-3.5 3.8 4.3-11.35v-3.95" fill="#6c4b24"/><path d="M-11.2 4.95h1.4l-3.6 3.6 2.2-3.6" fill="#23230c"/><path d="M17.2.85v1L12.15 6.9v15.95l-2.25-7.9L2.4 6.5.05 8.65H-4.5l-3.9 9.2.15-8.5-6.7 3.1h-2.2l.3-1.1h1l6.5-3.25 4.95-5.75L-8.15.4l4.05-1.9h7.25l6.3-4.15 2.75 3.4 5 3.1M-2.7 4.4l-5.55 4.95L-2.7 4.4H.2h-2.9l-1.8 4.25 1.8-4.25" fill="#52351b"/><path d="M2.8-22.15 2-22.4l.8.25" fill="#fff"/><path d="m2-22.4.8.25 1 .35 1.95.65v3.95L1.45-5.85l3.5-3.8h6.6q.45 1 1.3 1.85Q14.6-6.05 17.2-6V.85l-5-3.1-2.75-3.4-6.3 4.15H-4.1L-8.15.4l3.75 1.95-4.95 5.75-6.5 3.25L-12.8.1l-1.15-2.95 3.45-5.25-3.25 2.4 2.65-6.85 5-3.4.05.1q.6 0 1-.35l.35-.45.35-.75 6.35-5m-.95 8.05-.55-1 .55 1m-.55-1H-.95L-2-16.2h-3.05H-2l1.05.85H.5m.15-.5H-.5l-.95-.8H-4.7h3.25l.95.8H.65M-1.6-10.3l-6.15 2.05-3.05 2.4V.9q3.25-6.65 9.2-11.2m-9.6 15.25-2.2 3.6 3.6-3.6h-1.4M.05-14.5l-1-.85 1 .85" fill="url(#k)"/><path d="m-4.75-18.65 5.5-4.2L2-22.4l-6.35 5-.4-1.25" fill="url(#l)"/><path d="M-16.85 11.35-14.1.65-15.75-3l.1-.2 3.05-9.5 5.65-4.3.85 1.05-5 3.4-2.65 6.85 3.25-2.4-3.45 5.25L-12.8.1l-3.05 11.25h-1" fill="url(#m)"/><path d="M-1.6-10.3Q-7.55-5.75-10.8.9v-6.75l3.05-2.4 6.15-2.05" fill="url(#n)"/><path d="m-4.75-18.65.4 1.25m-2.6.4.85 1.05.05.1q.6 0 1-.35l.35-.45.35-.75m-.7 1.2H-2l1.05.85H.5m-1.45 0 1 .85" fill="none" stroke="#a48c66" stroke-width=".5"/><path d="m.5-15.35.55 1m-5.75-2.3h3.25l.95.8H.65" fill="none" stroke="#dcb996" stroke-width=".5"/><path d="M2.8-22.15 2-22.4l-1.25-.45-5.5 4.2M3.8-21.8l1.95.65L7.3-16.3 4.95-9.65h6.6M17.2-6v7.85L12.15 6.9v15.95l-2.25-7.9L2.4 6.5.05 8.65H-4.5l-3.9 9.2.15-8.5-6.7 3.1h-2.2l.3-1.1L-14.1.65-15.75-3l.1-.2 3.05-9.5 5.65-4.3m5.35 6.7Q-7.55-5.75-10.8.9v-6.75l3.05-2.4 6.15-2.05M.2 4.4h-2.9l-1.8 4.25m-3.75.7L-2.7 4.4m-8.5.55h1.4l-3.6 3.6 2.2-3.6" fill="none" stroke="#000" stroke-opacity=".251" stroke-width=".5"/><path d="M11.55-9.65q.45 1 1.3 1.85Q14.6-6.05 17.2-6" fill="none" stroke="#000" stroke-opacity=".251" stroke-width=".5"/></g><path d="M277.1 198.85q0 7.15-5.05 12.15-5.05 5.1-12.2 5.1t-12.2-5.1q-5.05-5-5.05-12.15t5.05-12.2 12.2-5.05 12.2 5.05 5.05 12.2" fill="url(#o)" id="t"/></defs><use xlink:href="#p"/><use transform="matrix(-.46173 -.37627 .38937 -.47783 292.35 159.3)" xlink:href="#q"/><use xlink:href="#r"/><use transform="matrix(-.27402 -.22636 .16612 -.2011 275.25 187.95)" xlink:href="#s"/><use transform="matrix(.27402 .22636 .16612 -.2011 268.6 182.4)" xlink:href="#s"/><use transform="matrix(-.27402 -.22636 .16612 -.2011 298.8 158.4)" xlink:href="#s"/><use transform="matrix(.27402 .22636 .16612 -.2011 292.35 152.9)" xlink:href="#s"/><use xlink:href="#t"/></svg>