<svg viewBox="0 0 36.577 53.05" xmlns="http://www.w3.org/2000/svg" xmlns:xlink="http://www.w3.org/1999/xlink"><use width="36.6" height="53.05" xlink:href="#a"/><defs><use width="36.6" height="53.05" xlink:href="#b" id="a"/><g id="b"><path d="m93.85-40.75.1.05.1.2v.05l.1.25 2.7 9.35.5 1.55-.05.05.05.15-.1-.2-.1-.1h-.05l-.25-.1-3.2-10.85-.1-.25v-.05l-.1-.2-.35-.35.05-.05.7.5m18.5 3.65.05-.05.15 2v1q-.15 6.1-3.65 11.3Q112.35-28.5 112-35v-.05l.35-2.05M77.9-31.35q-.5-13.3 13.4-.05l1.95 1.55q1.2.55 1.45.3.4 1.15-1.45.3L91.3-30.8l-12.95.05-.45-.6m18.65 1.85v-.1l.1.1h-.1" fill="#ececec" fill-rule="evenodd" transform="translate(-76.05 65.5)"/><path d="M112.55-35.15q.2 4.1-1.1 7.75-.85 2.4-2.35 4.65l-.1.15-2.45 2.95-.05.05q-1.35 1.4-2.95 2.7l-.15.1-1.2.9 1.2-.95.1-.1q3.35-2.8 5.4-5.9 3.5-5.2 3.65-11.3v-1m-17.8 16.7-.2-.05-3.8-1.9h-.1l-3.05-1.7 12.9 2.55 1.15 3.6-1.1-.3h-.15L99-16.6l.25-.05h-.1l-1.1-.35q-1.7-.7-3.3-1.45M78-30.95l-.1-.2-.1-.1-.05-.1h.15l.45.6 1.3 1.55 1.4 2-.8-.55-1.1-1.3h-.05l-1.05-1.9H78l-.1-.2.1.2m25.4 14.1v.05-.05m.15-.05-.05-.05.05.05" fill="#dadada" fill-rule="evenodd" transform="translate(-76.05 65.5)"/><path d="M96.85-30.85q.95 1.35 1.55.4.65-.95.7-2.3 6.25-16.6 13.25-4.35l-.35 2.05v.05q-2.1 10.35-11.5 15.4l-4-9 .85-.5-.05-.15.05-.05-.5-1.55m-2.2.65-.05-.1-4.6-8.95-.05-.2-.05-.1v-.15l.15-.5.05-.05.05-.15.6-.5.15-.05.55-.25.85-.1.75.05h.1l-.15.05q-.85.25-1.3.8l-.25.7v.25l.05.2.25.35 4.8 9.4-.85.25-.3.15-.1.1-.65-1.2m7.25 14.3h.3v.05h-.05l-.25-.05m-.25 0h.15l.35.05-.5-.05" fill="#999" fill-rule="evenodd" transform="translate(-76.05 65.5)"/><path d="m100.65-16.05-.25-.05v-.05.05l-1.35-.2 1.35.15.2.05 1.05.15.25.05h-.1.1l.25.05-.35-.05h-.15l-1-.15-.05-.05.05.05M86.8-22.6l-.15-.1q-2.4-1.55-4.35-3.25l-.1-.15-1.15-1.1-1.4-2-1.3-1.55 12.95-.05 1.95 1.55q1.85.85 1.45-.3l-.05-.65.65 1.2 1.2.35v.05l4 9v.05L87.6-22.1l-.8-.5m6.35-18.65-.05.05.35.35.1.2v.05l.1.25 3.2 10.85h-.2l-.1-.1v.1l-4.8-9.4-.25-.35-.05-.2v-.25l.25-.7q.45-.55 1.3-.8l.15-.05" fill="#ccc" fill-rule="evenodd" transform="translate(-76.05 65.5)"/><path d="m96.85-29.5.25.1h.05l.1.1.1.2-.85.5v-.05L95.3-29l.1-.1.3-.15.85-.25h.3" fill="#828282" fill-rule="evenodd" transform="translate(-76.05 65.5)"/><path d="M99.15-16.65h.1l-.25.05-.6-.15-.35-.25 1.1.35" fill="#666" fill-rule="evenodd" transform="translate(-76.05 65.5)"/><path d="m111.45-27.4.1 1.8q-1.35.2-1.75 3.35l-.7-.5q1.5-2.25 2.35-4.65M109-22.6l-.15 1.15-1.95 2.25-.35-.35v1.2q-1.05-.55-2.15 2.2l-.85-.75q1.6-1.3 2.95-2.7l.05.05v-.1L109-22.6m-5.6 5.8-.1 1.05-2 .75-.65-1.05 1 .15.5.05h.05v-.05l1.2-.9m-3 .7-.45.95q-2.15-2-4.45-2.4l-.75-.9q1.6.75 3.3 1.45l.35.25 2 .5v.1l-1.35-.15 1.35.2m-5.85-2.4-.4.6q-1.25-1.3-3-1.3l-.55-1.1-.75.5-2.7-1.3-.35-1.5.8.5 3.05 1.7-.05.1.15-.1 3.8 1.9m-7.9-4.2-.4.5Q84.85-24 83-24l-.7-1.95q1.95 1.7 4.35 3.25m-4.45-3.4-.85.4q-1.05-1.85-2.7-2.2l-.25-2.05.7.9h.05l1.1 1.3.8.55 1.15 1.1" fill="#fcd9a0" fill-rule="evenodd" transform="translate(-76.05 65.5)"/><path d="M112-35q.35 6.5-3.1 12.15-2.05 3.1-5.4 5.9l-.1.1-1.2.95h-.3l-.25-.05-1.15-3.6v-.05q9.4-5.05 11.5-15.4m-10.35 19.1h.15-.15" fill="#a7a7a7" fill-rule="evenodd" transform="translate(-76.05 65.5)"/><path d="m85-61 1.95.85q-2.85.25-4.7 2.55l-.1-.2-.15-1.3.4-.8.1-.25.15-.35h.15L85-61m2.05 2.5.05.1.65.75v.4q-4.8.2-4.4 1.95l-.45-1.4-.25-.35q1.9-2.65 4.4-1.35v-.1m1.3 2.65.3.4v.55q-3.45.05-4.65 2.4l-.55-.7.15-1.25-.05-.1q3.05-2.2 4.8-1.3m1.2 3 .4.55q-3.3-.35-5.1 1.75l-.35-1q1.75-2.8 5.05-1.3m22 27.25.25 4.65-2-1.3q.4-3.15 1.75-3.35m-2.7 4.15-.4 3.85-1.55-1.6 1.95-2.25m-2.3 3.1-.05 4.1-2.1-1.9q1.1-2.75 2.15-2.2m-3.25 2.6-.35 3.25-1.65-2.5 2-.75m-3.35.6-.8 1.85-3.65-4.25q2.3.4 4.45 2.4m-5.8-2.75-1.4 2.1-1.6-3.4q1.75 0 3 1.3m-4.3-1.9-2.15 1.35-.55-2.65 2.7 1.3m-3.6-2.4-1.9 2.2L83-24q1.85 0 3.25 1.8m-4.9-3.5-2.3 1.1-.4-3.3q1.65.35 2.7 2.2m5.7-32.7h.05-.05" fill="#fef4e0" fill-rule="evenodd" transform="translate(-76.05 65.5)"/><path d="m77.05-62.8-.35-.6-.2-.05 12.1-2 .1.05.55.75.15 1.2-.15.55-4.95.25.4.95.3.7-2.2.5q-.5-1.55-.35-3l-.3.2q-4.7 1.7-5.1.5m12.4 11.95 2.6 5.95-2.8.25-2-5.85q1.6-.95 2.2-.35m4.05 9.3.35.8-.7-.5h-.1l-.75-.05 1.2-.25" fill="#c4a773" fill-rule="evenodd" transform="translate(-76.05 65.5)"/><path d="m77.2-61.6-.15-1.05v-.15q.4 1.2 5.1-.5l.3-.2q-.15 1.45.35 3h-.15l-.3-.85L82-63.1v-.05h-.05l-.35.4-.55.65-.8.45-2.3.15-.75-.1m12.05-1.3-.05.25-.15.2-4.35.75-.4-.95 4.95-.25m2.8 18 1.45 3.35-1.2.25-.85.1-.55.25-.1-.05-1.4-1.7-.7-1.25-.75-2.3-.3-.75-1.05-2.95.65-.55 2 5.85 2.8-.25M77.2-60.5l-.2.05.05-.1.15.05" fill="#b9955b" fill-rule="evenodd" transform="translate(-76.05 65.5)"/><path d="m86.95-60.15.2.1-.1 1.55v.1q-2.5-1.3-4.4 1.35l-.4-.55q1.85-2.3 4.7-2.55m.8 2.9v.7l.6.7q-1.75-.9-4.8 1.3l-.1-.35v-.05l-.1-.35q-.4-1.75 4.4-1.95m.9 2.35v.85l.9 1.2q-3.3-1.5-5.05 1.3v-.05l-.15-.45-.35-.45q1.2-2.35 4.65-2.4m1.3 2.6.3.35-.8 1.1q-.6-.6-2.2.35l-.65.55-.2.05-.3.1.15.8-1.4-1.55q1.8-2.1 5.1-1.75" fill="#fde6b0" fill-rule="evenodd" transform="translate(-76.05 65.5)"/><path d="M82.5-60.15 82-61.4l-.2-.85-.25-.4.05-.1.35-.4H82v.05l.35 1.75.3.85-.15.35m3.9 10.25.2-.05L87.65-47l.3.75.75 2.3.7 1.25 1.4 1.7.1.05-.15.05-.6.5-.05.15-.15-.25-1.75-4.45-.05-.2v-.05l-.15-.15-.4-1.2-1.2-3.35" fill="#b48d50" fill-rule="evenodd" transform="translate(-76.05 65.5)"/><path d="M76.3-63.3v.05l.15 1.2.4.7.15.1.15-.05.05-.05v-.25l.75.1 2.3-.15.8-.45.55-.65-.05.1.25.4.2.85.5 1.25-.1.25-.5-1.35-4.65.75h-.05l-.15-.05-.05.1-.2.05-.1-.1-.45-.7-.15-1.2.15-.9h.05m13.6 23.75L86.1-49.8l.3-.1 1.2 3.35.4 1.2.15.15v.05l.05.2 1.75 4.45.15.25-.05.05-.15.5v.15" fill="#9e7c45" fill-rule="evenodd" transform="translate(-76.05 65.5)"/><path d="m76.3-63.3.1-.15h.1l.2.05.35.6v.15l.15 1.05v.25l-.05.05-.15.05-.15-.1-.4-.7-.15-1.2v-.05" fill="#ab8649" fill-rule="evenodd" transform="translate(-76.05 65.5)"/><path d="M.45 2.05h-.1l-.1.15m.2-.15 12.1-2 .1.05.55.75.15 1.2-.15.55-.05.25-.15.2-4.35.75.3.7 1.95.85.2.1L11 7l.05.1.65.75v1.1l.6.7.3.4v1.4l.9 1.2.4.55.3.35-.8 1.1L16 20.6l1.45 3.35.35.8.1.05.1.2v.05l.1.25 2.7 9.35q.95 1.35 1.55.4.65-.95.7-2.3 6.25-16.6 13.25-4.35l.05-.05.15 2q.2 4.1-1.1 7.75l.1 1.8.25 4.65-2-1.3-.7-.5-.1.15-.15 1.15-.4 3.85-1.55-1.6-.35-.35v1.2l-.05 4.1-2.1-1.9-.85-.75-.15.1-.1 1.05L26.9 53l-1.65-2.5-.65-1.05-.05-.05m-.2 0-.45.95-.8 1.85-3.65-4.25-.75-.9-.2-.05-1.8 2.7-1.6-3.4-.55-1.1-.75.5-2.15 1.35-.55-2.65-.35-1.5-.15-.1-.4.5-1.9 2.2-1.35-4-.7-1.95-.1-.15-.85.4L3 40.9l-.4-3.3-.25-2.05-.4-1m-.1-.2-.1-.1-.05-.1m.05 0h.1q-.5-13.3 13.4-.05l1.95 1.55q1.2.55 1.45.3l-.05-.65-.05-.1-4.6-8.95-.05-.2-.05-.1-3.8-10.25.15.8-1.4-1.55-.35-1v-.05l-.15-.45-.35-.45-.55-.7.15-1.25-.05-.1-.1-.35v-.05l-.1-.35-.45-1.4-.25-.35-.4-.55-.1-.2-.15-1.3.4-.8-.5-1.35L1.2 5h-.05l-.4.1-.1-.1-.45-.7-.15-1.2.15-.9h.05m1.6 32.15.1.2m1.1 1.9h.05l1.1 1.3.8.55m-1.95-1.85-.7-.9M6.6 5h.15m4.3 2.1H11Q8.5 5.8 6.6 8.45M6.6 5l-.15.35-.1.25m2.6-1.1-2.2.5m3.8 10.55.65-.55q1.6-.95 2.2-.35m-3.35 1.05.3-.1.2-.05m4.3 9 .55-.25.85-.1M13.5 12.65q-3.3-1.5-5.05 1.3m5.45-.75q-3.3-.35-5.1 1.75m3.5-5.3q-1.75-.9-4.8 1.3m5.1-.35q-3.45.05-4.65 2.4m3.75-4.75q-4.8.2-4.4 1.95m3.6-4.85Q8.05 5.6 6.2 7.9m10.9 16.35H17l-.75-.05m1.55.55-.7-.5m-3.05 1 .05-.15.6-.5m-.65.65-.05.05-.15.5v.15M6.15 39.4 5 38.3m15.45-1.4v-.05m2.65 12h.1m-.25.05 1.4.35h.15l1.1.3.25.05h.3l1.2-.9v-.05m-15.8-5.25 3.05 1.7h.1l3.8 1.9m5.85 2.4v-.05l.05-.1m.1 0 .05.15m-1.6-.5-.6-.15-.35-.25q-1.7-.7-3.3-1.45m-7.95-4.15.8.5m3.15 1.7-.15.1m15.9.7.05-.05 2.45-2.95m-2.45 3.05v-.1m-4.75 3.75h.1l.25.05h.05v-.05m-.4 0h-.15l.5.05m1.35-1.1.05.05q1.6-1.3 2.95-2.7m-24.2-6.35q1.95 1.7 4.35 3.25m22.45-.05q1.5-2.25 2.35-4.65" fill="none" stroke="#69513b" stroke-linecap="round" stroke-linejoin="round" stroke-width=".1"/></g></defs></svg>