<svg viewBox="0 0 95.307 99.05" xmlns="http://www.w3.org/2000/svg" xmlns:xlink="http://www.w3.org/1999/xlink"><use transform="translate(-.03)" width="95.35" height="99.1" xlink:href="#a"/><defs><g id="a"><path d="m293.95 192.05 1.1 1.1 2.7 4.1q2.7 4.75 3.9 9.75l.7 3.25.1 1.15.05.7q.65 6.6-1.5 11.4l-1.3 2.45-1.45 1.85-7.2 4.95-1.8.55q-4.2-6.35-9.5-11.45l14.2-29.8m-35.85 9.45q-7.65-9.05-15.45-13.95l.05-.3q.7-2.6 2.05-4.85l.75-1.05 1.3-1.7q1.35-1.65 3.05-2.75l.85-.5q4.4-2.65 10.45-2.7l-3.05 27.8m11.05 12.15-.3.3.3-.4.05.1h-.05" fill="#9c9a9c" fill-rule="evenodd" transform="translate(-227.3 -150.9)"/><path d="m289.55 233.7-.3-.4 1.8-.55-1.5.95" fill="#d7d8d1" fill-rule="evenodd" transform="translate(-227.3 -150.9)"/><path d="M254.1 216.2q0-.9.45-1.75l7-7.75q-.2-.45.2-.2l.2-.25.6.8.15.15q5.1-5 11.75-8.65 3-1.65 6.35-3l-.4.75q-10.5 7.85-24.15 23.95l-.35-.25q-1.85-2-1.8-3.8" fill="#a7a6a8" fill-rule="evenodd" transform="translate(-227.3 -150.9)"/><path d="M234.1 238.95q-.15-.85.15-1.4l.8-.85q9.7-7.85 19.05-20.5-.05 1.8 1.8 3.8l.35.25.85.7-22 20.35q-.8-1-1-2.15v-.2" fill="#ab8649" fill-rule="evenodd" transform="translate(-227.3 -150.9)"/><path d="m228.7 248.9-.1-.15q-.8-.7-.9-1.8-.15-.65 0-1.2l6.4-6.8v.2q.2 1.15 1 2.15l-6.4 7.6" fill="#aeab8c" fill-rule="evenodd" transform="translate(-227.3 -150.9)"/><path d="m284.35 192.05.05.05-.15.1.1-.15" fill="#eff0ec" fill-rule="evenodd" transform="translate(-227.3 -150.9)"/><path d="m261.95 206.25-3.85-4.75 3.05-27.8 2.95.15 2.1.2 2.05.4q3.45.7 6.7 2.15 2.2.9 4.2 2.05l2.1 1.4-6.8 18.5q-6.65 3.65-11.75 8.65l-.15-.15-.6-.8" fill="#afadaf" fill-rule="evenodd" transform="translate(-227.3 -150.9)"/><path d="m279.75 221.85-.5-.5q-3.2-2.95-6.7-5.45l-2.35-1.65-.1-.05-.95-.55h.05l-.05-.1q4.75-5.35 8.2-11.3l.2-.3.1-.25 2.75-5.4.4-.75q-3.35 1.35-6.35 3l6.8-18.5 1.7 1.15q6.5 4.95 1.4 10.85l-.1.15.15-.1q5.35-3.75 9.55-.05l-14.2 29.8" fill="#c6c4c6" fill-rule="evenodd" transform="translate(-227.3 -150.9)"/><path d="m291.05 232.75 7.2-4.95q-1.25 1.4-2.85 2.55l-4.35 2.4" fill="#969496" fill-rule="evenodd" transform="translate(-227.3 -150.9)"/><path d="m270.1 214.2-8.1 7.65-1.65.5q-1 0-1.95-.55l-1.1-.7-.2-.15-.85-.7q13.65-16.1 24.15-23.95l-2.75 5.4-.1.25-.2.3q-3.45 5.95-8.2 11.3l-.3.4.3-.3.95.55" fill="#8d8b8d" fill-rule="evenodd" transform="translate(-227.3 -150.9)"/><path d="M260.35 222.35q-12.5 9.3-19.95 19.65l-.8.75-1.65.25-.95-.25-.05-.05q-.8-.35-1.5-1.05l-.35-.35 22-20.35.2.15 1.1.7q.95.55 1.95.55" fill="#8a6c3c" fill-rule="evenodd" transform="translate(-227.3 -150.9)"/><path d="m237.95 243-6.55 6.5-1.1.15-.4-.1-1.2-.65 6.4-7.6.35.35q.7.7 1.5 1.05l.05.05.95.25" fill="#9d9973" fill-rule="evenodd" transform="translate(-227.3 -150.9)"/><path d="m309.6 159.3-15.65 32.75q-4.2-3.7-9.55.05l-.05-.05q5.1-5.9-1.4-10.85l-1.7-1.15 5.15-13.9q4 1.7 5.8 2.05l4.35-.35 2.8 1.6-.2-2.9q3.8-2.15 4.05-4.35.45-4.25-.25-6.6l-2.25-4.4 8.1 7.25.8.85" fill="#e4e7ed" fill-rule="evenodd" transform="translate(-227.3 -150.9)"/><path d="m262.55 161.1 1.05-.15h3.85q4.95.25 9.75 1.6 2.9.8 5.7 2l1.4.6 1.6.8.5.2-5.15 13.9-2.1-1.4q-2-1.15-4.2-2.05-3.25-1.45-6.7-2.15l-2.05-.4-2.1-.2-2.95-.15 1.4-12.6" fill="#d3d9e2" fill-rule="evenodd" transform="translate(-227.3 -150.9)"/><path d="M309.6 159.3q2.8 3.1 4.95 7.15 4.45 8.45 6.15 15 2 7.4 1.55 16.2-.45 9.8-1.9 15.25l-22.1 14.9 1.45-1.85 1.3-2.45q2.15-4.8 1.5-11.4l-.05-.7-.1-1.15-.7-3.25q-1.2-5-3.9-9.75l-2.7-4.1-1.1-1.1 15.65-32.75m-66.95 28.25-1.9-1.8-3.65-2.75q.7-3.2 1.8-5.5l1.25-2.5.85-1.45q1.3-2 2.75-3.65l1.2-1.25q6.2-6.1 15.75-7.35l1.85-.2-1.4 12.6q-6.05.05-10.45 2.7l-.85.5q-1.7 1.1-3.05 2.75l-1.3 1.7-.75 1.05q-1.35 2.25-2.05 4.85l-.05.3" fill="#bcc6d3" fill-rule="evenodd" transform="translate(-227.3 -150.9)"/><path d="m298.25 227.8 22.1-14.9-.8 2.35q-2.25 5.9-9.45 13.2l-.9 1.15-1.4 1.55-1.25 1.1v.05l-.35.3-2.85 2.1q-4 2.8-10.25 3.2l-3.55-4.2 1.5-.95 4.35-2.4q1.6-1.15 2.85-2.55" fill="#b3bdcc" fill-rule="evenodd" transform="translate(-227.3 -150.9)"/><path d="M79.25 81.35v.05M13.1 91.1l-.3.4-.5.35.8-.75m13.7-25.8q-.05 1.8 1.8 3.8l.35.25.85.7.2.15 1.1.7q.95.55 1.95.55M53.1 45.4l.4-.75q-3.35 1.35-6.35 3Q40.5 51.3 35.4 56.3l-.15-.15-.6-.8m7.2 7.3q4.75-5.35 8.2-11.3l.2-.3.1-.25 2.75-5.4M42.8 63.3l-.95-.55-.3.3.3-.4.05.1h-.05M6.8 88.05v.2q.2 1.15 1 2.15l.35.35q.7.7 1.5 1.05l.05.05.95.25" fill="none" stroke="#000" stroke-linecap="round" stroke-linejoin="round" stroke-opacity=".4" stroke-width=".05"/><path d="m42.9 63.35-.1-.05" fill="none" stroke="#6f0" stroke-linecap="round" stroke-linejoin="round" stroke-width=".05"/><path d="M93.05 62q1.45-5.45 1.9-15.25.45-8.8-1.55-16.2-1.7-6.55-6.15-15Q85.1 11.5 82.3 8.4M93.05 62l-.8 2.35q-2.25 5.9-9.45 13.2l-.9 1.15-1.4 1.55-1.25 1.1m0 .05-.35.3-2.85 2.1q-4 2.8-10.25 3.2l-3.55-4.2-.3-.4q-4.2-6.35-9.5-11.45l-.5-.5q-3.2-2.95-6.7-5.45l-2.35-1.65m-.1-.05-8.1 7.65-1.65.5q-12.5 9.3-19.95 19.65m-.8.75-1.65.25-6.55 6.5-1.1.15-.4-.1L1.4 98l-.1-.15q-.8-.7-.9-1.8-.15-.65 0-1.2l6.4-6.8q-.15-.85.15-1.4l.8-.85q9.7-7.85 19.05-20.5 0-.9.45-1.75l7-7.75q-.2-.45.2-.2l.2-.25-3.85-4.75q-7.65-9.05-15.45-13.95l-1.9-1.8L9.8 32.1q.7-3.2 1.8-5.5l1.25-2.5.85-1.45q1.3-2 2.75-3.65l1.2-1.25q6.2-6.1 15.75-7.35l1.85-.2 1.05-.15h3.85q4.95.25 9.75 1.6 2.9.8 5.7 2l1.4.6 1.6.8.5.2q4 1.7 5.8 2.05l4.35-.35 2.8 1.6-.2-2.9q3.8-2.15 4.05-4.35.45-4.25-.25-6.6L73.4.3l8.1 7.25.8.85" fill="none" stroke="#000" stroke-linecap="round" stroke-linejoin="round" stroke-opacity=".6" stroke-width=".6"/><path d="m286.7 214.8.1-.2v-.05l.1-.2.8-.9.65-.35q.75 8.6 6.25 13.9l-1.7-.65q-2.45-1.15-4.3-3.8-1.9-2.65-2.15-5.35-.15-1.45.25-2.4" fill="#c7bb67" fill-rule="evenodd" transform="translate(-227.3 -150.9)"/><path d="m295.6 227.2-.2-.05-.8-.15q-5.5-5.3-6.25-13.9l1.4-.15q.75.05 1.6.55 1.05.5 1.75 1.6.75 1.15 1.15 2.95l.5 2.05q.5 2.2 1.3 4l.5 1.75q.15 1-.3 1.25l-.65.1" fill="#ddd5a2" fill-rule="evenodd" transform="translate(-227.3 -150.9)"/><path d="m286.8 214.55-1.75-1.1 4.65-2.2h.05v1.7l-1.4.15-.65.35-.8.9-.1.2m7.2-.55 2.3 5.2-1.55.9-.5-2.05q-.4-1.8-1.15-2.95l.9-1.1m4.15 12.25-1.9 2.45-.65-1.5.65-.1q.45-.25.3-1.25l1.6.4m-2.75.9.75 1.65q-4.25 2.15-8.05-.85l-.05-.15q-4.15-3.05-3.5-8.45.5-3.55 2.15-4.55-.4.95-.25 2.4.25 2.7 2.15 5.35 1.85 2.65 4.3 3.8l1.7.65.8.15" fill="#7b797b" fill-rule="evenodd" transform="translate(-227.3 -150.9)"/><path d="M289.75 211.25 294 214l-.9 1.1q-.7-1.1-1.75-1.6-.85-.5-1.6-.55v-1.7m6.55 7.95 1.85 7.05-1.6-.4-.5-1.75q-.8-1.8-1.3-4l1.55-.9" fill="#cdcccd" fill-rule="evenodd" transform="translate(-227.3 -150.9)"/><path d="m68.3 76.3-.2-.05-.8-.15-1.7-.65q-2.45-1.15-4.3-3.8-1.9-2.65-2.15-5.35-.15-1.45.25-2.4m.2-.45.8-.9.65-.35 1.4-.15q.75.05 1.6.55 1.05.5 1.75 1.6.75 1.15 1.15 2.95l.5 2.05q.5 2.2 1.3 4l.5 1.75q.15 1-.3 1.25l-.65.1z" fill="none" stroke="#000" stroke-linecap="round" stroke-linejoin="round" stroke-opacity=".6" stroke-width=".2"/></g></defs></svg>