<svg width="286" height="268" viewBox="130.35 67 286.4 267.5" xmlns="http://www.w3.org/2000/svg" xmlns:xlink="http://www.w3.org/1999/xlink"><defs><linearGradient id="a" x1="-819.2" x2="819.2" gradientTransform="matrix(.02428 -.01738 .00658 .0092 83.65 -124.2)" gradientUnits="userSpaceOnUse"><stop stop-color="#aabac4" offset="0"/><stop stop-color="#fff" offset=".541"/><stop stop-color="#afbec7" offset="1"/></linearGradient><linearGradient id="b" x1="-819.2" x2="819.2" gradientTransform="matrix(.01524 -.00874 .00339 .0059 83.45 -123.9)" gradientUnits="userSpaceOnUse"><stop stop-color="#3c465e" offset="0"/><stop stop-color="#74a0be" offset="1"/></linearGradient><linearGradient id="c" x1="-819.2" x2="819.2" gradientTransform="matrix(.03082 .00827 -.0101 .03764 65.85 -112.8)" gradientUnits="userSpaceOnUse"><stop stop-color="#aabac4" offset="0"/><stop stop-color="#fff" offset=".541"/><stop stop-color="#afbec7" offset="1"/></linearGradient><linearGradient id="d" x1="-819.2" x2="819.2" gradientTransform="matrix(.05835 -.04915 .00906 .01076 94.65 -76)" gradientUnits="userSpaceOnUse"><stop stop-color="#aabac4" offset="0"/><stop stop-color="#e8e8e8" offset="1"/></linearGradient><linearGradient id="e" x1="-819.2" x2="819.2" gradientTransform="matrix(.00262 -.00183 .00262 .00378 73.8 -123.6)" gradientUnits="userSpaceOnUse"><stop stop-color="#818181" offset="0"/><stop stop-color="#515151" offset="1"/></linearGradient><linearGradient id="f" x1="-819.2" x2="819.2" gradientTransform="matrix(.04268 -.04806 .0056 .00497 7.6 -85.15)" gradientUnits="userSpaceOnUse"><stop stop-color="#aabac4" offset="0"/><stop stop-color="#e8e8e8" offset="1"/></linearGradient><linearGradient id="g" x1="-819.2" x2="819.2" gradientTransform="matrix(.03182 -.02406 .01099 .01453 32.2 -54.25)" gradientUnits="userSpaceOnUse"><stop stop-color="#7f97a5" offset="0"/><stop stop-color="#fff" offset=".769"/></linearGradient><linearGradient id="h" x1="-819.2" x2="819.2" gradientTransform="matrix(0 .01028 -.02441 0 23.2 -27.95)" gradientUnits="userSpaceOnUse"><stop stop-color="#333" offset="0"/><stop stop-color="#5b5b5b" offset="1"/></linearGradient><linearGradient id="i" x1="-819.2" x2="819.2" gradientTransform="matrix(.06496 -.02498 .01642 .04272 36.55 -64.95)" gradientUnits="userSpaceOnUse"><stop stop-color="#3c465e" offset="0"/><stop stop-color="#74a0be" offset="1"/></linearGradient><linearGradient id="j" x1="-819.2" x2="819.2" gradientTransform="matrix(.00142 .01013 -.01488 .0021 -5.15 -15.95)" gradientUnits="userSpaceOnUse"><stop stop-color="#333" offset="0"/><stop stop-color="#5b5b5b" offset="1"/></linearGradient><linearGradient id="k" x1="-819.2" x2="819.2" gradientTransform="matrix(.03128 -.02681 .02089 .02437 -93.8 76.15)" gradientUnits="userSpaceOnUse"><stop stop-color="#a78503" offset="0"/><stop stop-color="#6c4102" offset="1"/></linearGradient><linearGradient id="l" x1="-819.2" x2="819.2" gradientTransform="matrix(.02129 -.02867 .008 .00594 -26.3 -5.7)" gradientUnits="userSpaceOnUse"><stop stop-color="#9f7302" offset="0"/><stop stop-color="#b57902" offset="1"/></linearGradient><linearGradient id="m" x1="-819.2" x2="819.2" gradientTransform="matrix(-.04135 .047 -.00204 -.0018 -101.65 72.65)" gradientUnits="userSpaceOnUse"><stop stop-color="#9f7302" offset="0"/><stop stop-color="#b57902" offset="1"/></linearGradient><linearGradient id="n" x1="-819.2" x2="819.2" gradientTransform="matrix(.01596 0 0 .0205 -91.25 85.05)" gradientUnits="userSpaceOnUse"><stop stop-color="#9f7302" offset="0"/><stop stop-color="#b57902" offset="1"/></linearGradient><use xlink:href="#o" id="p"/><g id="o"><path d="m73.15-124.25-3.7 3.2q-3.25 3.2-3.15 5.65.2 2.45 3.65 2.7t8.15-1.8q4.7-2.1 7.95-5.35 3.2-3.25 3.05-5.65-.15-2.5-3.6-2.75-3.25-.25-8.75 1.8l1.5-3.9q7.25-3.1 12.65-2.7 5.65.4 5.85 4.45.3 4-5 9.35-5.3 5.3-13.05 8.75-7.7 3.4-13.35 3-5.65-.45-5.95-4.45-.25-4.05 5.1-9.3 4-4.05 9.35-6.95l-.7 3.95" fill="url(#a)"/><path d="M76.75-126.45q5.5-2.05 8.75-1.8 3.45.25 3.6 2.75.15 2.4-3.05 5.65-3.25 3.25-7.95 5.35-4.7 2.05-8.15 1.8t-3.65-2.7q-.1-2.45 3.15-5.65l3.7-3.2.7 5.25.8-2.05 2.1-5.4" fill="url(#b)"/><path d="M141.8-125.5q-25.45 21.05-42.55 30.55-29.05 16.1-52.3 10.15-15.35-3.85-14.85-18.7 1.85-6.5 7.65-19.05-4.7 22.4 10.3 28.45 35.45 5.05 91.75-31.4" fill="url(#c)"/><path d="M99.25-94.95q17.1-9.5 42.55-30.55L79.65-56.4l-10.6.85 3.9 1.15 3.95 1.1-27.35 30.35L36.2-24.7l63.05-70.25" fill="url(#d)"/><path d="m73.15-124.25.7-3.95.8 7.15-.8 2.05-.7-5.25" fill="url(#e)"/><path d="M39.75-122.55Q33.95-110 32.1-103.5L-32.3-32l-15.25-.25 87.3-90.3" fill="url(#f)"/><path d="M42-79.3Q26.3-51.2 3.2-33q4.95 3.9 6.05 11.25l-.1 1.25q-.3 1.6-1.15 2.85-2.85 3.25-6.2 3.6 3.6-2 4.4-5.45 1.4-3.6-3.9-10.15-4.05-2.45-9.9-2.4-4.8 0-8 3.05-2.8 2.5-3 5.6-.85-1.15-.3-3.2.5-2.05 1.85-5.15.3-.75 1.2-1.35 2-1.25 3.75-1.8Q34.4-77 42-79.3M-8.65-35.35l-3.45.45 3.45-.45m9.35.75L3.2-33 .7-34.6" fill="url(#g)"/><path d="M3.2-33Q26.3-51.2 42-79.3l1.2-.05-30.4 51.5q.95 2.45-1.5 4.9L9.15-20.5l.1-1.25Q8.15-29.1 3.2-33" fill="url(#h)"/><path d="m72.95-54.4-3.9-1.15 10.6-.85-6.7 2"/><path d="M32.1-103.5q-.5 14.85 14.85 18.7 23.25 5.95 52.3-10.15L36.2-24.7l-23.4-3.15 30.4-51.5-1.2.05Q34.4-77-12.1-34.9q-1.75.55-3.75 1.8-.9.6-1.2 1.35L-32.3-32l64.4-71.5" fill="url(#i)"/><path d="m36.2-24.7 13.35 1.75H11.3q2.45-2.45 1.5-4.9l23.4 3.15m-55.1-1.9-28.65-5.65 30.5.5q-1.35 3.1-1.85 5.15" fill="#333"/><path d="m1.8-14.05-3.2-.3 3.5-4 .15-.55q1.6-5.95-5.4-10.35-5.45-.9-10.4 2l-4.05 4.65-1-.8q.2-3.1 3-5.6 3.2-3.05 8-3.05 5.85-.05 9.9 2.4Q7.6-23.1 6.2-19.5q-.8 3.45-4.4 5.45" fill="url(#j)"/><path d="M-1.4-14.35-23 10.5q-39.6 46.85-75.2 97.15.7-3.55-2.9-5.8l22.95-31q1.1 1.45 1.05 2.9.05-1.45-1.05-2.9-1-1.3-2.95-2.6l-23.2 31.15 1.3 1.45.05.05q2.7 3.35 2.3 6.75l-18.45 24.85q1.9-2.75-.15-7.4-1.5-3.65-6.1-10.3l32.7-40.95-34.85 40.85q-3.65-2.1-6.55-2.45l78.3-88.35q.75.25 1.35.65L-33.7.75q3.05-.25 5.15 1.3l-19.2 21.8q3 1.05 2.85 2.8l37.1-43.6q-3.4-6-12.1-3.05l2.3-2.6 4.05-4.65q4.95-2.9 10.4-2 7 4.4 5.4 10.35l-.15.55-3.5 4M-83.5 60.6l30.55-34.55q-.55-.9-1.45-1.5.9.6 1.45 1.5L-83.5 60.6" fill="url(#k)"/><path d="M-58.1 23.4-19.9-20q8.7-2.95 12.1 3.05l-37.1 43.6q.15-1.75-2.85-2.8l19.2-21.8Q-30.65.5-33.7.75l-20.7 23.8q-.6-.4-1.35-.65l-2.35-.5" fill="url(#l)"/><path d="m-140.5 114.55 79.3-91.25 3.1.1 2.35.5-78.3 88.35q-3.95-.45-6.45 2.3" fill="url(#m)"/><path d="M-98.2 107.65h-2.45q.4-3.4-2.3-6.75l-.05-.05q1.05.45 1.9 1 3.6 2.25 2.9 5.8m-20.9 24.85-.05.05-.1.15q-5.2 1.35-12.85-1.8l5.15-7.8-2.55 2.45-5.05 3.2q-10.05-7.45-6.1-14.05l.15-.15q2.5-2.75 6.45-2.3 2.9.35 6.55 2.45l34.85-40.85-32.7 40.95q4.6 6.65 6.1 10.3 2.05 4.65.15 7.4" fill="#6c4102"/><path d="M-101.1 101.85q-.85-.55-1.9-1l-1.3-1.45 23.2-31.15q1.95 1.3 2.95 2.6l-22.95 31" fill="url(#n)"/><path d="m-132.1 130.9 2.6-5.35 2.55-2.45-5.15 7.8" fill="#960"/><path d="M76.75-126.45q5.5-2.05 8.75-1.8 3.45.25 3.6 2.75.15 2.4-3.05 5.65-3.25 3.25-7.95 5.35-4.7 2.05-8.15 1.8t-3.65-2.7q-.1-2.45 3.15-5.65l3.7-3.2m.7-3.95q-5.35 2.9-9.35 6.95-5.35 5.25-5.1 9.3.3 4 5.95 4.45 5.65.4 13.35-3 7.75-3.45 13.05-8.75 5.3-5.35 5-9.35-.2-4.05-5.85-4.45-5.4-.4-12.65 2.7m21 35.4q17.1-9.5 42.55-30.55-56.3 36.45-91.75 31.4-15-6.05-10.3-28.45-5.8 12.55-7.65 19.05-.5 14.85 14.85 18.7 23.25 5.95 52.3-10.15M36.2-24.7l13.35 1.75L76.9-53.3m2.75-3.1 62.15-69.1M42-79.3Q34.4-77-12.1-34.9l3.45-.45M42-79.3l1.2-.05-30.4 51.5 23.4 3.15m-23.4-3.15q.95 2.45-1.5 4.9h38.25m-38.25 0L9.15-20.5q-.3 1.6-1.15 2.85-2.85 3.25-6.2 3.6l-3.2-.3L-23 10.5q-39.6 46.85-75.2 97.15h-2.45l-18.45 24.85-.05.05-.1.15q-5.2 1.35-12.85-1.8l2.6-5.35-5.05 3.2q-10.05-7.45-6.1-14.05l.15-.15 79.3-91.25 3.1.1L-19.9-20l2.3-2.6-1-.8q-.85-1.15-.3-3.2l-28.65-5.65 87.3-90.3M9.15-20.5l.1-1.25Q8.15-29.1 3.2-33L.7-34.6m-17.75 2.85q.3-.75 1.2-1.35 2-1.25 3.75-1.8m-4.95 3.15-30.5-.5m29.95 9.65 4.05-4.65q4.95-2.9 10.4-2 7 4.4 5.4 10.35l-.15.55-3.5 4m-53 38.9q.9.6 1.45 1.5L-83.5 60.6m27.75-36.7q.75.25 1.35.65m-3.7-1.15 2.35.5m-78.3 88.35q2.9.35 6.55 2.45l34.85-40.85-32.7 40.95q4.6 6.65 6.1 10.3 2.05 4.65.15 7.4M-18.9-26.6q.5-2.05 1.85-5.15m-61.1 102.6q1.1 1.45 1.05 2.9m-21.1 33.9q.7-3.55-2.9-5.8-.85-.55-1.9-1l.05.05q2.7 3.35 2.3 6.75m22.5-36.8q-1-1.3-2.95-2.6l-23.2 31.15 1.3 1.45m-31.05 11.4q-3.95-.45-6.45 2.3m11 11 2.55-2.45-5.15 7.8M1.8-14.05q3.6-2 4.4-5.45" fill="none" stroke="#000" stroke-opacity=".49" stroke-width=".5"/><path d="m73.15-124.25.7-3.95m4.4-2.15-1.5 3.9-2.1 5.4-.8 2.05-.7-5.25" fill="none" stroke="#000" stroke-opacity=".522" stroke-width=".5"/><path d="M99.25-94.95 36.2-24.7m40.7-28.6-3.95-1.1-3.9-1.15 10.6-.85m-5-64.65-.8-7.15m-.9 73.8 6.7-2M-32.3-32l64.4-71.5" fill="none" stroke="#000" stroke-opacity=".478" stroke-width=".5"/></g></defs><use transform="translate(274.95 200.45)" xlink:href="#p"/></svg>