<svg width="154" height="149" viewBox="197.95 126.1 153.55 148.75" xmlns="http://www.w3.org/2000/svg" xmlns:xlink="http://www.w3.org/1999/xlink"><defs><linearGradient id="a" x1="-819.2" x2="819.2" gradientTransform="matrix(.04694 -.03648 .0163 .02097 36.7 -22.1)" gradientUnits="userSpaceOnUse"><stop stop-color="#abc2b7" offset="0"/><stop stop-color="#e8edef" offset="1"/></linearGradient><linearGradient id="b" x1="-819.2" x2="819.2" gradientTransform="matrix(.00574 0 0 .00629 67.55 -69)" gradientUnits="userSpaceOnUse"><stop stop-color="#657979" offset="0"/><stop stop-color="#3c4e55" offset="1"/></linearGradient><linearGradient id="c" x1="-819.2" x2="819.2" gradientTransform="matrix(.04694 -.03648 .0163 .02097 36.7 -22.1)" gradientUnits="userSpaceOnUse"><stop stop-color="#abb9c2" offset="0"/><stop stop-color="#838c92" offset="1"/></linearGradient><linearGradient id="d" x1="-819.2" x2="819.2" gradientTransform="matrix(.04694 -.03648 .0163 .02097 36.7 -22.1)" gradientUnits="userSpaceOnUse"><stop stop-color="#343434" offset="0"/><stop stop-color="#757d82" offset="1"/></linearGradient><linearGradient id="e" x1="-819.2" x2="819.2" gradientTransform="matrix(.00607 0 0 .00388 50.35 -22.8)" gradientUnits="userSpaceOnUse"><stop stop-color="#657979" offset="0"/><stop stop-color="#3c4e55" offset="1"/></linearGradient><linearGradient id="f" x1="-819.2" x2="819.2" gradientTransform="matrix(-.0086 .00497 -.0037 -.0064 -7.45 7.6)" gradientUnits="userSpaceOnUse"><stop stop-color="#343434" offset="0"/><stop stop-color="#757d82" offset="1"/></linearGradient><linearGradient id="g" x1="-819.2" x2="819.2" gradientTransform="matrix(-.0086 .00497 -.0037 -.0064 -7.45 7.6)" gradientUnits="userSpaceOnUse"><stop stop-color="#abc2b7" offset="0"/><stop stop-color="#e8edef" offset="1"/></linearGradient><linearGradient id="h" x1="-819.2" x2="819.2" gradientTransform="matrix(.03943 0 0 .04517 -44.2 37.2)" gradientUnits="userSpaceOnUse"><stop stop-color="#6d2101" offset="0"/><stop stop-color="#674e43" offset="1"/></linearGradient><linearGradient id="i" x1="-819.2" x2="819.2" gradientTransform="matrix(.0365 0 0 .04007 -46.6 33)" gradientUnits="userSpaceOnUse"><stop stop-color="#b84514" offset="0"/><stop stop-color="#9c8630" offset="1"/></linearGradient><linearGradient id="j" x1="-819.2" x2="819.2" gradientTransform="matrix(.00388 0 0 .0058 -22.5 19.3)" gradientUnits="userSpaceOnUse"><stop stop-color="#330f00" offset="0"/><stop stop-color="#674e43" offset="1"/></linearGradient><linearGradient id="k" x1="-819.2" x2="819.2" gradientTransform="matrix(.03943 0 0 .04517 -44.2 37.2)" gradientUnits="userSpaceOnUse"><stop stop-color="#8e5c43" offset="0"/><stop stop-color="#8e5c44" offset="1"/></linearGradient><linearGradient id="l" x1="-819.2" x2="819.2" gradientTransform="matrix(.00342 0 0 .0064 -30 29.35)" gradientUnits="userSpaceOnUse"><stop stop-color="#330f00" offset="0"/><stop stop-color="#674e43" offset="1"/></linearGradient><linearGradient id="m" x1="-819.2" x2="819.2" gradientTransform="matrix(.003 0 0 .00693 -37.45 38)" gradientUnits="userSpaceOnUse"><stop stop-color="#330f00" offset="0"/><stop stop-color="#674e43" offset="1"/></linearGradient><linearGradient id="n" x1="-819.2" x2="819.2" gradientTransform="matrix(-.0086 .00497 -.0037 -.0064 -7.45 7.6)" gradientUnits="userSpaceOnUse"><stop stop-color="#abb9c2" offset="0"/><stop stop-color="#838c92" offset="1"/></linearGradient><use xlink:href="#o" id="p"/><g id="o"><path d="m72.25-74.15-5.7 6.3Q67-71.5 58.8-65.4 28.4-36.05 4.4-6.65L2.6-8q31.35-37.2 51.1-54.45 6.9-6.05 12.4-9.65 2.85-2.25 6.15-2.05M66.9-65.9l9.65-4.9q-7.45 23.4-21.2 44.85L45.4-19.6l4-1.1 4.05-1.15-19.3 29.3-9.2.6-.75-1.55L59.85-49Q65-56.95 66.9-65.9" fill="url(#a)"/><path d="m66.55-67.85 5.7-6.3-5.35 8.25-4.05 2.05 3.7-4" fill="url(#b)"/><path d="m2.6-8 1.8 1.35q24-29.4 54.4-58.75 8.2-6.1 7.75-2.45l-3.7 4 4.05-2.05Q65-56.95 59.85-49L24.2 6.5l-4.85-.25q-2.7-.5 8.8-19.85 11.4-17.65 11.9-20.75.55-3.7-14.25 12.95L12.6-5.35q-2.85 1.7-6.4 0l-1.8-1.3 1.8 1.3q3.55 1.7 6.4 0L25.8-21.4q14.8-16.65 14.25-12.95-11.65 19.5-26.9 37.3-2.85 2.05-6.3-.8L-1.2-5.6Q-5-7.1-8.8-4.45l-8.15 8L-20.4.9-9.95-9.85q5.1-3.5 9-.75L2.6-8" fill="url(#c)"/><path d="m24.95 8.05-4.9.3L18 9.45q-6 3.2-9.55 2.5Q5.6 10.9 4.9 8.55V6.3l-.25-.6Q3.05 2.2-.7-1.25l-.8-.7-1-.35q-1.9-.6-3.3.35l-7.9 8.9q-1.3-1.7-3.25-3.4l8.15-8Q-5-7.1-1.2-5.6l8.05 7.75q3.45 2.85 6.3.8 15.25-17.8 26.9-37.3-.5 3.1-11.9 20.75-11.5 19.35-8.8 19.85l4.85.25.75 1.55m-5.6-1.8q.15 1.1.7 2.1-.55-1-.7-2.1" fill="url(#d)"/><path d="M55.35-25.95 49.4-20.7l-4 1.1 9.95-6.35" fill="url(#e)"/><path d="M4.9 7.4-6.55 6.2V5l11.2.7.25.6v1.1" fill="url(#f)"/><path d="M-6.55 6.2-9 5.95l6.5-8.25 1 .35.8.7L-6.55 5v1.2" fill="url(#g)"/><path d="m-13.7 6.95 1 1.45q1.65 4 0 5.8l-6.6 8.25q-.65-2.7-2.45-5.85 6.25-5.85 4.8-13.05 1.95 1.7 3.25 3.4m-10.15 21.1-3.35 4.2q.1-4.8-2.6-8.15l3-3.4q3.45 2.1 2.95 7.35m-7.7 9.6-3.7 4.6q.9-4.6-1.5-9.9l2-2.05q3.35 1.7 3.2 7.35m-7.45 9.3-16.85 20.9q-4.5 6.55-9.8 6.35-5.9-2.7-9.3-8.35l.45-4.65q1.35-3.2 10.8 2.5 9.05-7.25 22.8-24.8 2 2.95 1.9 8.05" fill="url(#h)"/><path d="m-74.95 65.85-1-1.75q-1.05-2.25 0-4.5Q-51.35 28.2-25.1.9q2.35-1.4 4.7 0l3.45 2.65q1.45 7.2-4.8 13.05l-1.35-2.05q-2.75.8-2.55 4.85l-1.15 1.3-3 3.4q-2.25-.05-3 4.1l-1.95 2.1-2 2.05q-2.25.05-3.15 5.25l-1 1.3q-13.75 17.55-22.8 24.8-9.45-5.7-10.8-2.5l-.45 4.65" fill="url(#i)"/><path d="M-19.3 22.45q-2.3-.6-3.8 1.6-.7-2.35-2.55-4.65-.2-4.05 2.55-4.85l1.35 2.05q1.8 3.15 2.45 5.85" fill="url(#j)"/><path d="M-23.1 24.05q.4 1.2.5 2.5l-1.25 1.5q.5-5.25-2.95-7.35l1.15-1.3q1.85 2.3 2.55 4.65m-7.2 10.55v1.5l-1.25 1.55q.15-5.65-3.2-7.35l1.95-2.1q2.2 3.2 2.5 6.4m-7.85 9.1-.15 2.4-.7.85q.1-5.1-1.9-8.05l1-1.3q1.65 2.9 1.75 6.1" fill="url(#k)"/><path d="M-27.2 32.25q-1.95-.25-3.1 2.35-.3-3.2-2.5-6.4.75-4.15 3-4.1 2.7 3.35 2.6 8.15" fill="url(#l)"/><path d="M-35.25 42.25q-1.45-.25-2.9 1.45-.1-3.2-1.75-6.1.9-5.2 3.15-5.25 2.4 5.3 1.5 9.9" fill="url(#m)"/><path d="M-.7-1.25Q3.05 2.2 4.65 5.7L-6.55 5-.7-1.25" fill="url(#n)"/><path d="M72.25-74.15q-3.3-.2-6.15 2.05-5.5 3.6-12.4 9.65Q33.95-45.2 2.6-8l1.8 1.35 1.8 1.3q3.55 1.7 6.4 0L25.8-21.4q14.8-16.65 14.25-12.95-.5 3.1-11.9 20.75-11.5 19.35-8.8 19.85M66.9-65.9l5.35-8.25M66.9-65.9l9.65-4.9q-7.45 23.4-21.2 44.85L49.4-20.7l4.05-1.15-19.3 29.3-9.2.6-4.9.3L18 9.45q-6 3.2-9.55 2.5Q5.6 10.9 4.9 8.55V7.4L-6.55 6.2-9 5.95l6.5-8.25q-1.9-.6-3.3.35l-7.9 8.9m1 1.45q1.65 4 0 5.8l-6.6 8.25q-2.3-.6-3.8 1.6.4 1.2.5 2.5l-1.25 1.5-3.35 4.2q-1.95-.25-3.1 2.35v1.5l-1.25 1.55-3.7 4.6q-1.45-.25-2.9 1.45l-.15 2.4-.7.85-16.85 20.9q-4.5 6.55-9.8 6.35-5.9-2.7-9.3-8.35l-1-1.75q-1.05-2.25 0-4.5Q-51.35 28.2-25.1.9q2.35-1.4 4.7 0L-9.95-9.85q5.1-3.5 9-.75L2.6-8M4.65 5.7l.25.6v1.1m15.15.95q-.55-1-.7-2.1M-2.5-2.3l1 .35.8.7Q3.05 2.2 4.65 5.7" fill="none" stroke="#000" stroke-opacity=".49" stroke-width=".5"/><path d="m-13.7 6.95 1 1.45m-4.25-4.85q1.95 1.7 3.25 3.4m-3.25-3.4L-20.4.9" fill="none" stroke="#000" stroke-opacity=".49" stroke-width=".5"/></g></defs><use transform="translate(274.95 200.45)" xlink:href="#p"/></svg>