<svg width="217" height="227" viewBox="177.98 305.27 216.74 227.44" xmlns="http://www.w3.org/2000/svg" xmlns:xlink="http://www.w3.org/1999/xlink"><defs><g id="c"><path d="M13.25 23.2q17.6-7.1 25.25-19.55 7.85-.8 4.5 3.05-1.9 1.95-4.15 4.8-5.75 7.25-23.8 17.7 10.4-9.15-1.8-6m37.55 5.45q11-4.85 5.9 5.15-10.85 13.95-23 27.4 7.2-12.95 1-8.6 13.95-11.45 16.1-23.95m26.95 8.8q8.6-9.15 8.65 1.7l-4.2 6.15q-5.65 7.35-10.35 27 2.45-15.55-1.3-6.9-1.85-12 2.5-19.65l4.7-8.3" fill="#063"/><path d="M89.9 43.75q-11.1 7.3-11.6 27.7-1.25-10.4-6.45.85 4.7-19.65 10.35-27l4.2-6.15q3.6-3.7 3.5 4.6m-45.75-28.5-3.25 2.9q-5.6 5.3-18.7 9.55 7.3-6.45-7.15 1.5 18.05-10.45 23.8-17.7Q41.1 8.65 43 6.7q9.25.6 1.15 8.55M56.7 33.8q7.95-7.35 4.9 2.25Q48.05 45.7 41.35 59.6q4.15-9.5-7.65 1.6 12.15-13.45 23-27.4" fill="#004723"/><path d="M48.3 91.15q-.65-9.5-6.2-13.9-4.35-3.4-11.6-3.8l-2.15-.05 1.75-1.75 1.9.3h.5q6.9.4 11.2 3.5 19.75-23.3 31.8-50.95l.7-1.65.6 1.2q2 4.8 2.1 11.15l-1.15 2.25-4.7 8.3q-4.35 7.65-2.5 19.65-3.1 5.4-7.25 10.75-6.15 7.85-13 13.45l-2 1.55M22.75 70.5q-1.8-8.9-6.55-12.75-3.95-3.15-10-2.8l-3.6.55.85-1.9 3.6-.35.4-.05q5.9-.35 9.8 2.65Q31.9 29.8 57.65 13.3l2.8-1.8-.15 1.75q-1.15 10.25-9.5 15.4-2.15 12.5-16.1 23.95l-2.3 1.8-9.65 16.1" fill="#85a193"/><path d="m76.2 22.85-.7 1.65q-9.2 3.4-10.1 13.4-16.1 8.75-23.45 23.95L32 71.95l-1.9-.3 10.6-10.8.65-1.25q6.7-13.9 20.25-23.55 3.5-10.1 14.6-13.2m-54 4.85q13.1-4.25 18.7-9.55l3.25-2.9q3.25-2.65 5.2-3.1 6.05-1.4 11.1-.65l-2.8 1.8-5.75.8q-2.9.65-8.5 6-5.6 5.3-18.7 9.55-4.55 4.25-8.7 9.6-5.4 6.95-8.95 14l-3.6.35Q7.2 45.35 13.5 37.3q4.15-5.35 8.7-9.6" fill="#63786e"/><path d="M75.5 24.5Q63.45 52.15 43.7 75.45q-4.3-3.1-11.2-3.5H32l9.95-10.1Q49.3 46.65 65.4 37.9q.9-10 10.1-13.4M7.05 53.25q3.55-7.05 8.95-14 4.15-5.35 8.7-9.6 13.1-4.25 18.7-9.55 5.6-5.35 8.5-6l5.75-.8Q31.9 29.8 17.25 55.85q-3.9-3-9.8-2.65l-.4.05" fill="#768f83"/><path d="m43.1 95.1-1.2.3q3.3-1.95 6.4-4.25l2-1.55q6.85-5.6 13-13.45 4.15-5.35 7.25-10.75 3.75-8.65 1.3 6.9l-9 8.65Q53.3 89.85 43.1 95.1M.05 61.55 0 59.45q-.05-2.9.35-5.7Q2 37.6 13.25 23.2q12.2-3.15 1.8 6-2.1 2.55-6.05 9.75-6.3 11.4-8.95 22.6" fill="#005c2e"/><path d="M78.3 71.45 77.1 73Q65.85 87.4 50.65 93l-5.5 1.65-2.05.45q10.2-5.25 19.75-14.15l9-8.65q5.2-11.25 6.45-.85M2.6 55.5q-1.5 3.5-2.5 7l-.05-.95Q2.7 50.35 9 38.95q3.95-7.2 6.05-9.75 14.45-7.95 7.15-1.5-4.55 4.25-8.7 9.6-6.3 8.05-10.05 16.3l-.85 1.9" fill="#003b1c"/><path d="m28.35 73.4-1 1-9.8 7.95L33.7 61.2q11.8-11.1 7.65-1.6l-.65 1.25-10.6 10.8-1.75 1.75" fill="#003618"/><path d="m17.55 82.35 5.2-11.85 9.65-16.1 2.3-1.8q6.2-4.35-1 8.6L17.55 82.35" fill="#00542a"/><path d="m76.3 6.55.85.55q5.8 4.55 9.1 10.8l.6 1.2.55 1.25q1.6 6.3.85 13.95-.2 1.9-1.85 4.85-.05-10.85-8.65-1.7l1.15-2.25q-.1-6.35-2.1-11.15l-.6-1.2.95-2.5q2.15-6.8-.85-13.8l-7.05 10.3L56.7 33.8q5.1-10-5.9-5.15 8.35-5.15 9.5-15.4l.15-1.75 2.5-1.95q5.8-3.85 13.35-3m-37.8-2.9q3.25-1.3 6.7-2.15Q54.1-.8 61.8.4 55.25.35 48 2.9q-2.05.8-5 3.8 3.35-3.85-4.5-3.05" fill="#00753a"/><path d="M87.4 20.35q2.95 7.15 2.95 16.35.05 3.55-.45 7.05.1-8.3-3.5-4.6 1.65-2.95 1.85-4.85.75-7.65-.85-13.95M61.8.4l.75.15 1.4.25q6.7 1.5 12.35 5.75-7.55-.85-13.35 3l-2.5 1.95q-5.05-.75-11.1.65-1.95.45-5.2 3.1Q52.25 7.3 43 6.7q2.95-3 5-3.8Q55.25.35 61.8.4m-5.1 33.4 12.55-16.95 7.05-10.3q3 7 .85 13.8l-.95 2.5q-11.1 3.1-14.6 13.2 3.05-9.6-4.9-2.25" fill="#00592a"/><path d="m76.3 6.55.85.55q5.8 4.55 9.1 10.8l.6 1.2.55 1.25q2.95 7.15 2.95 16.35.05 3.55-.45 7.05-11.1 7.3-11.6 27.7L77.1 73Q65.85 87.4 50.65 93l-5.5 1.65-2.05.45-1.2.3q3.3-1.95 6.4-4.25-.65-9.5-6.2-13.9-4.35-3.4-11.6-3.8l-2.15-.05-1 1-9.8 7.95 5.2-11.85q-1.8-8.9-6.55-12.75-3.95-3.15-10-2.8l-3.6.55q-1.5 3.5-2.5 7l-.05-.95-.05-2.1q-.05-2.9.35-5.7Q2 37.6 13.25 23.2q17.6-7.1 25.25-19.55 3.25-1.3 6.7-2.15Q54.1-.8 61.8.4l.75.15 1.4.25q6.7 1.5 12.35 5.75M60.45 11.5l-.15 1.75q-1.15 10.25-9.5 15.4-2.15 12.5-16.1 23.95l-2.3 1.8-9.65 16.1M76.2 22.85l.6 1.2q2 4.8 2.1 11.15l-1.15 2.25M30.1 71.65l-1.75 1.75m15.8-58.15-3.25 2.9q-5.6 5.3-18.7 9.55-4.55 4.25-8.7 9.6-6.3 8.05-10.05 16.3l-.85 1.9m57.85-44q-5.05-.75-11.1.65-1.95.45-5.2 3.1m26.4 50.15q-1.85-12 2.5-19.65l4.7-8.3m-16.15-1.4q3.5-10.1 14.6-13.2m-14.6 13.2Q48.05 45.7 41.35 59.6l-.65 1.25-10.6 10.8m40.45-6.25q-3.1 5.4-7.25 10.75-6.15 7.85-13 13.45l-2 1.55" fill="none" stroke="#000" stroke-opacity=".2"/></g><g id="h" fill="#004723"><path d="M59.2 2.7q.75.15 1.4.7 1.05.9 1.2 2.35.15 1.4-.75 2.5-.95 1.1-2.35 1.2-1.45.15-2.55-.75t-1.2-2.35V5.6q.1 1.2 1 1.9.95.8 2.15.7t2-1.05q.75-.95.65-2.15-.15-1.2-1.05-1.95l-.5-.35M64.3 23.8l-.5-.35q.75.15 1.4.7 1.05.9 1.2 2.35.15 1.4-.75 2.5-.95 1.1-2.35 1.2-1.45.15-2.55-.75t-1.2-2.35v-.75q.1 1.2 1 1.9.95.8 2.15.7t2-1.05q.75-.95.65-2.15-.15-1.2-1.05-1.95M66.85 13l-.5-.35q.75.15 1.4.7 1.05.9 1.2 2.35.15 1.4-.75 2.5-.95 1.1-2.35 1.2-1.45.15-2.55-.75t-1.2-2.35v-.75q.1 1.2 1 1.9.95.8 2.15.7t2-1.05q.75-.95.65-2.15-.15-1.2-1.05-1.95M68.85 3.6l-.5-.35q.75.15 1.4.7 1.05.9 1.2 2.35.15 1.4-.75 2.5-.95 1.1-2.35 1.2-1.45.15-2.55-.75T64.1 6.9v-.75q.1 1.2 1 1.9.95.8 2.15.7t2-1.05q.75-.95.65-2.15-.15-1.2-1.05-1.95M77.2 9.8l-.5-.35q.75.15 1.4.7 1.05.9 1.2 2.35.15 1.4-.75 2.5-.95 1.1-2.35 1.2-1.45.15-2.55-.75t-1.2-2.35v-.75q.1 1.2 1 1.9.95.8 2.15.7t2-1.05q.75-.95.65-2.15-.15-1.2-1.05-1.95"/><path d="m75.6 16.5-.5-.35q.75.15 1.4.7 1.05.9 1.2 2.35.15 1.4-.75 2.5-.95 1.1-2.35 1.2-1.45.15-2.55-.75t-1.2-2.35v-.75q.1 1.2 1 1.9.95.8 2.15.7t2-1.05q.75-.95.65-2.15-.15-1.2-1.05-1.95M83.7 19.55l-.5-.35q.75.15 1.4.7 1.05.9 1.2 2.35.15 1.4-.75 2.5-.95 1.1-2.35 1.2-1.45.15-2.55-.75t-1.2-2.35v-.75q.1 1.2 1 1.9.95.8 2.15.7t2-1.05q.75-.95.65-2.15-.15-1.2-1.05-1.95M51.3 4.7l-.5-.35q.75.15 1.4.7 1.05.9 1.2 2.35.15 1.4-.75 2.5-.95 1.1-2.35 1.2-1.45.15-2.55-.75T46.55 8v-.75q.1 1.2 1 1.9.95.8 2.15.7t2-1.05q.75-.95.65-2.15-.15-1.2-1.05-1.95M83.4 27.4l-.5-.35q.75.15 1.4.7 1.05.9 1.2 2.35.15 1.4-.75 2.5-.95 1.1-2.35 1.2-1.45.15-2.55-.75t-1.2-2.35v-.75q.1 1.2 1 1.9.95.8 2.15.7t2-1.05q.75-.95.65-2.15-.15-1.2-1.05-1.95M89.3 35.8q-.15-1.2-1.05-1.95l-.5-.35q.75.15 1.4.7 1.05.9 1.2 2.35.15 1.4-.75 2.5-.95 1.1-2.35 1.2-1.45.15-2.55-.75t-1.2-2.35v-.75q.1 1.2 1 1.9.95.8 2.15.7t2-1.05q.75-.95.65-2.15M61 35.1q-.05-.7-.6-1.15l-.25-.15.75.4q.65.5.7 1.3.1.85-.4 1.45-.55.65-1.35.7-.85.1-1.45-.45-.65-.5-.7-1.3v-.45q.05.65.6 1.1.5.45 1.2.35.7-.05 1.15-.6.45-.5.35-1.2M54.15 29.55q.65.5.7 1.3.1.85-.4 1.45-.55.65-1.35.7-.85.1-1.45-.45-.65-.5-.7-1.3v-.45q.05.65.6 1.1.5.45 1.2.35.7-.05 1.15-.6.45-.5.35-1.2-.05-.7-.6-1.15l-.25-.15.75.4"/><path d="m58.95 33.2.75.4q.65.5.7 1.3.1.85-.4 1.45-.55.65-1.35.7-.85.1-1.45-.45-.65-.5-.7-1.3v-.45q.05.65.6 1.1.5.45 1.2.35.7-.05 1.15-.6.45-.5.35-1.2-.05-.7-.6-1.15l-.25-.15M51.3 36.35l.75.4q.65.5.7 1.3.1.85-.4 1.45-.55.65-1.35.7-.85.1-1.45-.45-.65-.5-.7-1.3V38q.05.65.6 1.1.5.45 1.2.35.7-.05 1.15-.6.45-.5.35-1.2-.05-.7-.6-1.15l-.25-.15M47.85 42.5l.75.4q.65.5.7 1.3.1.85-.4 1.45-.55.65-1.35.7-.85.1-1.45-.45-.65-.5-.7-1.3v-.45q.05.65.6 1.1.5.45 1.2.35.7-.05 1.15-.6.45-.5.35-1.2-.05-.7-.6-1.15l-.25-.15M43.35 47l.75.4q.65.5.7 1.3.1.85-.4 1.45-.55.65-1.35.7-.85.1-1.45-.45-.65-.5-.7-1.3v-.45q.05.65.6 1.1.5.45 1.2.35.7-.05 1.15-.6.45-.5.35-1.2-.05-.7-.6-1.15l-.25-.15M41.85 52.85l.75.4q.65.5.7 1.3.1.85-.4 1.45-.55.65-1.35.7-.85.1-1.45-.45-.65-.5-.7-1.3v-.45q.05.65.6 1.1.5.45 1.2.35.7-.05 1.15-.6.45-.5.35-1.2-.05-.7-.6-1.15l-.25-.15M37.05 51.8l.75.4q.65.5.7 1.3.1.85-.4 1.45-.55.65-1.35.7-.85.1-1.45-.45-.65-.5-.7-1.3v-.45q.05.65.6 1.1.5.45 1.2.35.7-.05 1.15-.6.45-.5.35-1.2-.05-.7-.6-1.15l-.25-.15M83.6 42.65l-.25-.15.75.4q.65.5.7 1.3.1.85-.4 1.45-.55.65-1.35.7-.85.1-1.45-.45-.65-.5-.7-1.3v-.45q.05.65.6 1.1.5.45 1.2.35.7-.05 1.15-.6.45-.5.35-1.2-.05-.7-.6-1.15M76.95 45.35l-.25-.15q.4.1.75.4.65.5.7 1.3.1.85-.4 1.45-.55.65-1.35.7-.85.1-1.45-.45-.65-.5-.7-1.3v-.45q.05.65.6 1.1.5.45 1.2.35.7-.05 1.15-.6.45-.5.35-1.2-.05-.7-.6-1.15M79.65 51.45q-.05-.7-.6-1.15l-.25-.15.75.4q.65.5.7 1.3.1.85-.4 1.45-.55.65-1.35.7-.85.1-1.45-.45-.65-.5-.7-1.3v-.45q.05.65.6 1.1.5.45 1.2.35.7-.05 1.15-.6.45-.5.35-1.2M74.8 56.05q.65.5.7 1.3.1.85-.4 1.45-.55.65-1.35.7-.85.1-1.45-.45-.65-.5-.7-1.3v-.45q.05.65.6 1.1.5.45 1.2.35.7-.05 1.15-.6.45-.5.35-1.2-.05-.7-.6-1.15l-.25-.15.75.4M78.05 62.6q.65.5.7 1.3.1.85-.4 1.45-.55.65-1.35.7-.85.1-1.45-.45-.65-.5-.7-1.3v-.45q.05.65.6 1.1.5.45 1.2.35.7-.05 1.15-.6.45-.5.35-1.2-.05-.7-.6-1.15l-.25-.15.75.4M43.45 10.4q.65.5.7 1.3.1.85-.4 1.45l-1.35.7q-.85.1-1.45-.45-.65-.5-.7-1.3v-.45q.05.65.6 1.1.5.45 1.2.35.7-.05 1.15-.6.45-.5.35-1.2-.05-.7-.6-1.15L42.7 10q.4.1.75.4M37.8 9.85q.65.5.7 1.3.1.85-.4 1.45-.55.65-1.35.7-.85.1-1.45-.45-.65-.5-.7-1.3v-.45q.05.65.6 1.1.5.45 1.2.35.7-.05 1.15-.6.45-.5.35-1.2-.05-.7-.6-1.15l-.25-.15.75.4M36.95 16.55q.65.5.7 1.3.1.85-.4 1.45-.55.65-1.35.7-.85.1-1.45-.45-.65-.5-.7-1.3v-.45q.05.65.6 1.1.5.45 1.2.35.7-.05 1.15-.6.45-.5.35-1.2-.05-.7-.6-1.15l-.25-.15.75.4M29.85 16.7q.65.5.7 1.3.1.85-.4 1.45-.55.65-1.35.7-.85.1-1.45-.45-.65-.5-.7-1.3v-.45q.05.65.6 1.1.5.45 1.2.35.7-.05 1.15-.6.45-.5.35-1.2-.05-.7-.6-1.15l-.25-.15q.4.1.75.4M25.05 22.4q.65.5.7 1.3.1.85-.4 1.45-.55.65-1.35.7-.85.1-1.45-.45-.65-.5-.7-1.3v-.45q.05.65.6 1.1.5.45 1.2.35.7-.05 1.15-.6.45-.5.35-1.2-.05-.7-.6-1.15L24.3 22q.4.1.75.4"/></g><g id="v"><use xlink:href="#c"/><use transform="matrix(.10574 .0783 -.59486 .80338 64 14.35)" filter="url(#d)" xlink:href="#e"/><use transform="matrix(.11798 .05808 -.44118 .89638 88.4 21.4)" filter="url(#f)" xlink:href="#e"/><use transform="matrix(.07665 .10661 -.80992 .5824 53.6 -5.15)" filter="url(#g)" xlink:href="#e"/><use xlink:href="#h"/></g><g id="w"><path d="M196.7-1.6q1.5-.95 2.15-2.5l.35-1.35-.35 2.05q-.4 1.05-2.15 1.8" fill="#002145"/><path d="m201.2-4.1-.05.3-.35 1.15-.05.15-.5.15.8-1.45.15-.3" fill="#21548c"/><path d="M199.2-5.45q-.1-1-.7-2-1.15-2-3.55-2.7l-4.75.25 3.7-2.25 1.6.35q3.25 1.05 4.8 3.7 1.15 1.95.9 4l-.15.3-.8 1.45-3.55.75q1.75-.75 2.15-1.8l.35-2.05" fill="#033"/><path d="M187.3-7.5v.1q-.75 1.95.35 3.9 1.15 1.95 3.5 2.65l4.5-.2.15-.1.9-.45 3.55-.75q-1.2 1.7-3.45 2.65-3.05 1.25-6.4.3-3.25-1-4.85-3.65Q184.4-5 184.7-7l.15-.35q1.1-2.75 4.25-4.1 2.35-1 4.8-.7l-3.7 2.25-.25.15q-1.8.75-2.65 2.25" fill="#004040"/><path d="M200.75-2.5q-1.2 2.7-4.2 3.95-3.1 1.3-6.4.35-3.3-1-4.85-3.65-1.5-2.5-.6-5.15-.3 2 .85 3.95Q187.15-.4 190.4.6q3.35.95 6.4-.3 2.25-.95 3.45-2.65l.5-.15" fill="#005757"/><path d="M187.3-7.5v.1" fill="none" stroke="#000" stroke-width=".5"/><path d="M199.2-5.45q-.1-1-.7-2-1.15-2-3.55-2.7l-4.75.25-.25.15q-1.8.75-2.65 2.25m9.4 5.9q1.75-.75 2.15-1.8l.35-2.05" fill="none" stroke="#000" stroke-opacity=".051" stroke-width=".5"/><path d="m184.7-7 .15-.35q1.1-2.75 4.25-4.1 2.35-1 4.8-.7l1.6.35q3.25 1.05 4.8 3.7 1.15 1.95.9 4l-.05.3-.35 1.15-.05.15q-1.2 2.7-4.2 3.95-3.1 1.3-6.4.35-3.3-1-4.85-3.65-1.5-2.5-.6-5.15m16.05 4.5-.5.15" fill="none" stroke="#000" stroke-opacity=".302" stroke-width="2"/></g><g id="i"><path d="M28.6 17.65q0 4.8-3.35 8.15t-8.15 3.35q-4.75 0-8.1-3.35t-2.8-4.45q.5-1.15 13.65-4.45Q8.3 10.25 9 9.55q3.35-3.35 8.1-3.35 4.8 0 8.15 3.35t3.35 8.1" fill="#1f8fc7" fill-opacity=".8"/><path d="M20.1.25q5.25.8 9.25 4.8Q34.4 10.1 34.4 17.2t-5.05 12.15Q24.7 34 18.25 34.4 34.75 21.9 20.1.25" fill="#176891" fill-opacity=".8"/><path d="M18.25 34.4H17.2q-7.1 0-12.15-5.05T0 17.2 5.05 5.05 17.2 0l2.9.25Q34.75 21.9 18.25 34.4" fill="#1f8fc7" fill-opacity=".8"/><path d="M20.1.25q5.25.8 9.25 4.8Q34.4 10.1 34.4 17.2t-5.05 12.15Q24.7 34 18.25 34.4H17.2q-7.1 0-12.15-5.05T0 17.2 5.05 5.05 17.2 0l2.9.25" fill="none" stroke="#17170c" stroke-opacity=".251"/><path d="m26.7 14.85 3.1-.95m-7.35-4.65L23.9 5.6m-8.15 2.65-1.7-3.7" fill="none" stroke="#abe3ff" stroke-opacity=".2"/><path d="M1.55 13.9h.1q1.35 4.35 2 5.4 2 3.6 6 3.6l2.4-.3 2.5-.3q1.5 0 2.2.6 1 .85 1 3.1t-1.4 3.9q-1.5 1.8-3.8 1.8-3.55 0-7-4.6-4-5.35-4-13.2" fill="#29b8ff"/><path d="m29.5 8.4.35.35q5.45 7.4 0 17.1L28.5 28q-3.8 3.25-6.9 3.85 6.5-7.15 7-15.45.45-8.35-5.9-14.15 3.5 2.25 6.8 6.15" fill="#176891"/></g><g id="y"><use transform="translate(.45)" xlink:href="#l"/><use transform="matrix(.86603 -.5 .42989 .74457 1.4 6.2)" filter="url(#m)" xlink:href="#n"/><use xlink:href="#o"/></g><g id="p"><path d="m26.2 26.7-.05.05.05-.05" fill="#7a6c66"/><path d="m22.35 22.55-.2.65-.45 1-.05.05-.3.45-.5.4q-1.05.7-2.7.85-3.2.2-6.8-2.05-3.6-2.2-5.55-5.6-1.95-3.35-1.1-5.85.35-.9.95-1.5.55-.55 1.35-.9l1.75-.35q3.2-.25 6.8 2 3.65 2.25 5.6 5.6 1.65 2.95 1.2 5.25" fill="#594e4a"/><path d="m26.15 26.75-.05.05-.5.65-.75.65q-1.55 1.05-4.05 1.25-4.85.35-10.35-3.05-5.45-3.4-8.4-8.5T.4 8.9q.5-1.35 1.4-2.25.85-.9 2.1-1.4l2.65-.55q4.8-.35 10.25 3.05l.95.6q4.85 3.25 7.55 7.9 2.5 4.45 1.85 7.95l-.3 1-.65 1.5-.05.05m-3.8-4.2q.45-2.3-1.2-5.25-1.95-3.35-5.6-5.6-3.6-2.25-6.8-2L7 10.05q-.8.35-1.35.9-.6.6-.95 1.5-.85 2.5 1.1 5.85 1.95 3.4 5.55 5.6 3.6 2.25 6.8 2.05 1.65-.15 2.7-.85l.5-.4.3-.45.05-.05.45-1 .2-.65" fill="#555e51"/><path d="M21.3 3.55q5 3.3 7.75 8.05 2.9 5.1 1.55 8.95l-.5 1.15-.85 1.15-3.05 3.85.65-1.5.3-1q.65-3.5-1.85-7.95-2.7-4.65-7.55-7.9l3.55-4.8" fill="#646e5f"/><path d="M1.8 6.65 5.1 2.5l.1-.15.15-.15Q7 .3 10.3.05 15.1-.3 20.55 3.1l.75.45-3.55 4.8-.95-.6Q11.35 4.35 6.55 4.7l-2.65.55q-1.25.5-2.1 1.4" fill="#798573"/><path d="M21.3 3.55q5 3.3 7.75 8.05 2.9 5.1 1.55 8.95l-.5 1.15-.85 1.15-3.05 3.85-.1.1-.5.65-.75.65q-1.55 1.05-4.05 1.25-4.85.35-10.35-3.05-5.45-3.4-8.4-8.5T.4 8.9q.5-1.35 1.4-2.25L5.1 2.5l.1-.15.15-.15Q7 .3 10.3.05 15.1-.3 20.55 3.1l.75.45" fill="none" stroke="#000" stroke-opacity=".102"/></g><g id="q"><path d="m54.9 6.1-.4-.05q1.25 2.75 1.75 5.5l.95.2-.1 1.1-.2.65-.4.7-.25-2.65-4.2-.65q-.65-2.75-1.7-5.5l4.15.65L54 5l.9 1.1m-5.35-4.55-.85.05 1.65 3.8-5.8-.25 1.8 5.4 5.7.35q.7 3.1.9 6.15l.75.25-.7.75-.05-1-5.3-.85-1.3-5.65-5.75.2-2.2-4.95 6.15-.65L42.9 1.3l5.8.3-.3-.65 1.15.6m-9.5.2.3-.5 1.4-.9.6-.15.55 1.1-2.85.45M38 5l.4.8-1.1.25L38 5m-4 5.95.35.7 6.25-.9 1.65 5.2 5.4.25.75 6.3.5.1-.45.5-.05-.6-4.95-.65-1.2-5.9-6 .3 1.65 5.35 5.55.25.65 6.3-.85 1-3.95-.6.55 4.7-1.05 1.3-4.75-.6-1.2-5.75 6.45.35-1.4-6.95-7.1.4-1.7-4 .55-.75 6.6-1-1.9-4.6-.9.15.55-.85m.75 28.8-.25.25-4.7-.6-1.25-5.65 5.5.2.7 5.8M30.5 45.4l-.55.75-.1.15-3.9-.7-1.5-6.5 5.35.3.7 6m-3.85 5.4-.35.5-.1.15-4.95-.65.8 6.5q-2.5-.35-5.25.05l.1 1.25-.2-.4-.45-.7q.3-.15.55-.15l-1.15-6.75-6.85.6v.2l-.35-.15.35-.05q-.3-2.8-1.25-5.15l6.45-.8-2.15-5.2.25-.3 5.75-.45 2.05 5.8-5.9.15 1.65 5.35 5.6.2-1.35-5.7 6.05.5.7 5.2m-4.45 6.55-.1.2-.05-.25.15.05m-3.95 6.15-.45.7-.1-.1.2-.65.1-.85.25.9M15.9 35.2l.4-.5 6.5-.7 1.65 5.1-6.6.2-1.95-4.1m9.05-11.55.8-1.05 5.05-.6q1.2 3 2.05 6.2l-5.9.3 1.6 5.25-5.75.25-1.9-4.65 6.05-.85q-.9-2.5-2-4.85" fill="#033"/><path d="m17.7 64.1-.2.55-.55.9-.05.05-.5.4q-1.05.7-2.7.85h-.8q-2.85-.1-6-2.05-3.6-2.2-5.55-5.6Q.05 56.95 0 55.1q-.05-.9.25-1.75.2-.55.55-.95l.3-.45.1-.1q.55-.55 1.35-.9l1.75-.35q2-.15 4.15.65l.35.15 2.3 1.2 2.65 2 .55.5 1.95 2.4.45.7.2.4q1.15 2.15 1.1 4l-1.1-4 1.1 4-.1.85-.2.65M7.35 51.45l1.1-.2-1.1.2" fill="#594e4a"/><path d="m54.5 6.05.4.05 1 1.5q1.25 2.25 1.3 4.15l-.95-.2q-.5-2.75-1.75-5.5l-4.15-.65q1.05 2.75 1.7 5.5l4.2.65.25 2.65-.3.4-2.5 2.7-.75-.25q-.2-3.05-.9-6.15l-5.7-.35-1.8-5.4 5.8.25-1.65-3.8.85-.05.75.45q1.65 1 2.95 2.25L54 5l.5 1.05M48.4.95l.3.65-5.8-.3 1.65 3.85-6.15.65 2.2 4.95 5.75-.2 1.3 5.65 5.3.85.05 1-4.1 4.55-.5-.1-.75-6.3-5.4-.25-1.65-5.2-6.25.9-.35-.7 3.3-4.9 1.1-.25L38 5l2.05-3.25 2.85-.45-.55-1.1L43.5 0q2.35-.2 4.9.95m-6.15 15 1.2 5.9 4.95.65.05.6-4.35 5.05-.65-6.3-5.55-.25-1.65-5.35 6-.3m1 13.2-3.4 4.1-.55-4.7 3.95.6m-4.45 5.4-4.05 5.2-.7-5.8-5.5-.2 1.25 5.65 4.7.6-4 5.4-.7-6-5.35-.3 1.5 6.5 3.9.7-3.2 4.5-.7-5.2-6.05-.5-2.05-5.8-5.75.45 3.8-4.55 1.95 4.1 6.6-.2L22.8 34l-6.5.7 4.5-5.6 4.15-5.45q1.1 2.35 2 4.85l-6.05.85L22.8 34l5.75-.25-1.6-5.25 5.9-.3Q32 25 30.8 22l7.1-.4 1.4 6.95-6.45-.35 1.2 5.75 4.75.6m-12.6 16.9-3.9 5.75-.1.15-.15-.05.05.25-3.85 5.95-.25-.9q.05-1.85-1.1-4l-.1-1.25q2.75-.4 5.25-.05l-.8-6.5 4.95.65m-25 .4 5.5-5.95.5-.55 4.65-5.3 2.15 5.2-6.45.8-.35-.7.35.7-.85-.15.85.15Q8.5 48.4 8.8 51.2l6.85-.6 1.15 6.75q-.25 0-.55.15l-1.95-2.4-.55-.5-2.65-2-2.3-1.2v-.2l-.35.05q-2.15-.8-4.15-.65l-1.75.35q-.8.35-1.35.9M25.75 22.6 29.1 18l1.7 4-5.05.6m3.9-5.35 3.8-5.45.9-.15 1.9 4.6-6.6 1M14 45.25l5.9-.15 1.35 5.7-5.6-.2L14 45.25m6.9-15.9-.1-.25.1.25" fill="#003d3d"/><path d="M57.2 11.75q-.05-1.9-1.3-4.15l-1-1.5L54 5m2.5 9.2.4-.7.2-.65.1-1.1m-7.65-10.2.75.45q1.65 1 2.95 2.25L54 5m-.3 12.3 2.5-2.7.3-.4M48.4.95l1.15.6M53 18.05l.7-.75M40.05 1.75l.3-.5 1.4-.9.6-.15L43.5 0q2.35-.2 4.9.95m-8.35.8L38 5m-.7 1.05-3.3 4.9M48.9 22.6l4.1-4.55m-4.55 5.05.45-.5m-4.8 5.55-.85 1-3.4 4.1-1.05 1.3-4.05 5.2-.15.15m-.1.1-4 5.4-.55.75m-.1.15-3.2 4.5-.35.5m-.1.15-3.9 5.75m-.1.15-.1.2-3.85 5.95-.45.7m-.9 1.4-.5.4q-1.05.7-2.7.85h-.8q-2.85-.1-6-2.05-3.6-2.2-5.55-5.6Q.05 56.95 0 55.1q-.05-.9.25-1.75.2-.55.55-.95l.3-.45.1-.1 5.5-5.95.5-.55 4.65-5.3.25-.3 3.8-4.55.4-.5 4.5-5.6 4.15-5.45.8-1.05L29.1 18l.55-.75 3.8-5.45.55-.85m10.1 17.2 4.35-5.05M37.3 6.05 38 5M16.9 58.6q1.15 2.15 1.1 4l-.1.85-.2.65M8.8 51.4l2.3 1.2 2.65 2 .55.5 1.95 2.4.45.7.2.4m-8.45-7.35q-2.15-.8-4.15-.65l-1.75.35q-.8.35-1.35.9" fill="none" stroke="#000" stroke-opacity=".2"/><path d="m54.9 6.1-.4-.05m1.75 5.5.95.2M54 5l.5 1.05m-4.95-4.5-.85.05m4.25 15.45.75.25M48.4.95l.3.65m4.25 15.45.05 1M38 5l.4.8-1.1.25m-3.3 4.9.35.7-.9.15M48.4 22.5l.5.1m-.5-.1.05.6M34.6 39.9l-.1.1m-4.55 6.15-.1.15m-3.55 5-.1.15m-3.9 5.75-.1.15-.15-.05.05.25M7.55 46.05l-.85-.15m.5-.55.35.7M20.8 29.1l.1.25m-4.1 28 .1 1.25 1.1 4 .25.9m-2-6q.3-.15.55-.15m-8-6.15v.2m-.35-.15-1.1.2m1.45-.25-.35.05" fill="none" stroke="#000" stroke-opacity=".2" stroke-width=".5"/></g><g id="A"><use xlink:href="#q"/><use transform="matrix(.10574 .0783 -.59486 .80338 42.6 -2.65)" filter="url(#r)" xlink:href="#e"/></g><g id="s"><path d="m.95 27.25.95-.95.15.25-1.1.7" fill="#004a4a"/><path d="M14.35 37.2h-.05l-.1-.1.15.1" fill="#033"/><path d="m14.2 37.1-.15.45-.45.7v.05l-.4.35q-.85.55-2.2.65-2.55.2-5.45-1.65-2.9-1.75-4.5-4.5Q0 31.35 0 29.85q-.05-.7.2-1.4.15-.45.45-.75l.2-.35.1-.1 1.1-.7 1.4-.3q2.55-.2 5.45 1.6 1.2.75 2.15 1.6l.45.4 1.9 2.5q1.35 2.4 1 4.25l-.2.5" fill="#594e4a"/><path d="M30.75 3.45q1.2 1.1 2.15 2.7 1.3 2.35.95 4.2l-.15.55-.55.85q-7.9 8.35-10.5 12l-8.3 13.45-.15-.1.2-.5q.35-1.85-1-4.25l-1.9-2.5-.45-.4 19.7-26" fill="#450000"/><path d="M1.9 26.3q6.95-7.5 9.55-11.15l8.95-14.1Q20.9.6 21.5.3l1.4-.3q2.6-.15 5.5 1.65l2.35 1.8-19.7 26q-.95-.85-2.15-1.6-2.9-1.8-5.45-1.6l-1.4.3-.15-.25" fill="#600"/><path d="M30.75 3.45q1.2 1.1 2.15 2.7 1.3 2.35.95 4.2l-.15.55-.55.85q-7.9 8.35-10.5 12l-8.3 13.45h-.05m-.7 1.1-.4.35q-.85.55-2.2.65-2.55.2-5.45-1.65-2.9-1.75-4.5-4.5Q0 31.35 0 29.85q-.05-.7.2-1.4.15-.45.45-.75l.2-.35L1.9 26.3q6.95-7.5 9.55-11.15l8.95-14.1Q20.9.6 21.5.3l1.4-.3q2.6-.15 5.5 1.65l2.35 1.8m-19.7 26 .45.4 1.9 2.5q1.35 2.4 1 4.25l-.2.5M.95 27.25l1.1-.7 1.4-.3q2.55-.2 5.45 1.6 1.2.75 2.15 1.6" fill="none" stroke="#000" stroke-opacity=".2"/></g><g id="E"><path d="m75.4 151.5-.35 2.05q-.4 1.05-2.15 1.8 1.5-.95 2.15-2.5l.35-1.35" fill="#002145"/><path d="m76.45 154.6.8-1.45.15-.3-.05.3-.35 1.15-.05.15-.5.15" fill="#21548c"/><path d="m66.4 147.05 3.7-2.25 1.6.35q3.25 1.05 4.8 3.7 1.15 1.95.9 4l-.15.3-.8 1.45-3.55.75q1.75-.75 2.15-1.8l.35-2.05q-.1-1-.7-2-1.15-2-3.55-2.7l-4.75.25" fill="#033"/><path d="m70.1 144.8-3.7 2.25-.25.15q-1.8.75-2.65 2.25v.1q-.75 1.95.35 3.9 1.15 1.95 3.5 2.65l4.5-.2.15-.1.9-.45 3.55-.75q-1.2 1.7-3.45 2.65-3.05 1.25-6.4.3-3.25-1-4.85-3.65-1.15-1.95-.85-3.95l.15-.35q1.1-2.75 4.25-4.1 2.35-1 4.8-.7" fill="#004040"/><path d="M60.9 149.95q-.3 2 .85 3.95 1.6 2.65 4.85 3.65 3.35.95 6.4-.3 2.25-.95 3.45-2.65l.5-.15q-1.2 2.7-4.2 3.95-3.1 1.3-6.4.35-3.3-1-4.85-3.65-1.5-2.5-.6-5.15" fill="#005757"/><path d="M63.5 149.45v.1" fill="none" stroke="#000" stroke-width=".5"/><path d="m66.4 147.05 4.75-.25q2.4.7 3.55 2.7.6 1 .7 2l-.35 2.05q-.4 1.05-2.15 1.8m3.55-.75.5-.15.05-.15.35-1.15.05-.3m-11-5.8-.25.15q-1.8.75-2.65 2.25" fill="none" stroke="#000" stroke-opacity=".051" stroke-width=".5"/><path d="M77.4 152.85q.25-2.05-.9-4-1.55-2.65-4.8-3.7l-1.6-.35q-2.45-.3-4.8.7-3.15 1.35-4.25 4.1l-.15.35m16.05 4.5q-1.2 2.7-4.2 3.95-3.1 1.3-6.4.35-3.3-1-4.85-3.65-1.5-2.5-.6-5.15" fill="none" stroke="#000" stroke-opacity=".302" stroke-width="2"/></g><g id="H"><use xlink:href="#t"/><use transform="matrix(.41489 1.5483 1.5483 -.41489 139.95 -105.6)" filter="url(#u)" xlink:href="#v"/><use xlink:href="#w"/><use transform="translate(186.5 -12.95) scale(.36929)" filter="url(#x)" xlink:href="#y"/><use transform="translate(170.95 -4.45) scale(.84566)" xlink:href="#z"/><use transform="translate(133.45 2.75)" xlink:href="#A"/><use transform="translate(127.7 51.2) scale(.84566)" xlink:href="#z"/><use transform="translate(111.55 60.4)" filter="url(#B)" xlink:href="#C"/><use transform="translate(105.15 81.25) scale(.84566)" xlink:href="#z"/><use transform="translate(67.35 89.15)" xlink:href="#A"/><use transform="translate(63.6 134.05) scale(.84566)" xlink:href="#z"/><use transform="translate(-46.5 132.65) scale(1.6248)" filter="url(#D)" xlink:href="#v"/><use xlink:href="#E"/><use transform="translate(62.7 144) scale(.36929)" filter="url(#F)" xlink:href="#y"/></g><g id="J"><use transform="rotate(5.273 -884.79 460.829) scale(.67355)" filter="url(#G)" xlink:href="#H"/><use transform="matrix(.61807 .05704 -.05704 .61807 42.1 82.85)" filter="url(#I)" xlink:href="#H"/></g><filter id="d"><feColorMatrix in="SourceGraphic" result="cxform" values="1.0 0.0 0.0 0.0 0.0 0.0 1.0 0.0 0.0 0.0 0.0 0.0 1.0 0.0 0.0 0.0 0.0 0.0 0.7890625 0.0"/><feComposite in2="SourceGraphic" operator="in" result="color-xform"/></filter><filter id="f"><feColorMatrix in="SourceGraphic" result="cxform" values="1.0 0.0 0.0 0.0 0.0 0.0 1.0 0.0 0.0 0.0 0.0 0.0 1.0 0.0 0.0 0.0 0.0 0.0 0.6484375 0.0"/><feComposite in2="SourceGraphic" operator="in" result="color-xform"/></filter><filter id="g"><feColorMatrix in="SourceGraphic" result="cxform" values="1.0 0.0 0.0 0.0 0.0 0.0 1.0 0.0 0.0 0.0 0.0 0.0 1.0 0.0 0.0 0.0 0.0 0.0 0.80859375 0.0"/><feComposite in2="SourceGraphic" operator="in" result="color-xform"/></filter><filter id="m"><feColorMatrix in="SourceGraphic" result="cxform" values="1.0 0.0 0.0 0.0 0.0 0.0 1.0 0.0 0.0 0.0 0.0 0.0 1.0 0.0 0.0 0.0 0.0 0.0 0.69921875 0.0"/><feComposite in2="SourceGraphic" operator="in" result="color-xform"/></filter><filter id="r"><feColorMatrix in="SourceGraphic" result="cxform" values="1.0 0.0 0.0 0.0 0.0 0.0 1.0 0.0 0.0 0.0 0.0 0.0 1.0 0.0 0.0 0.0 0.0 0.0 0.5 0.0"/><feComposite in2="SourceGraphic" operator="in" result="color-xform"/></filter><filter id="u"><feColorMatrix in="SourceGraphic" result="color-matrix" values="0.433052003384 0.499707967043 0.0672399997711 0.0 0.0 0.253051996231 0.679708003998 0.0672399997711 0.0 0.0 0.253051996231 0.499707967043 0.247240006924 0.0 0.0 0.0 0.0 0.0 1.0 0.0"/></filter><filter id="x"><feColorMatrix in="SourceGraphic" result="cxform" values="0.5 0.0 0.0 0.0 0.31640625 0.0 0.5 0.0 0.0 0.3984375 0.0 0.0 0.5 0.0 0.4296875 0.0 0.0 0.0 1.0 0.0"/><feComposite in2="SourceGraphic" operator="in" result="color-xform"/><feColorMatrix in="SourceGraphic" result="color-matrix" values="1.5846208334 -0.409516781569 -0.0551040023565 0.0 -0.0297656375915 -0.207379207015 1.38248312473 -0.0551040023565 0.0 -0.0297656338662 -0.207379207015 -0.409516781569 1.73689591885 0.0 -0.0297656357288 0.0 0.0 0.0 1.0 0.0"/></filter><filter id="B"><feColorMatrix in="SourceGraphic" result="color-matrix" values="-2.00381183624 2.75937223434 0.244439795613 0.0 0.0820312574506 0.616187989712 0.139371946454 0.244440063834 0.0 0.0820312425494 0.616188108921 2.75937151909 -2.37555980682 0.0 0.0820312276483 0.0 0.0 0.0 1.0 0.0"/></filter><filter id="D"><feColorMatrix in="SourceGraphic" result="color-matrix" values="0.433052003384 0.499707967043 0.0672399997711 0.0 0.0 0.253051996231 0.679708003998 0.0672399997711 0.0 0.0 0.253051996231 0.499707967043 0.247240006924 0.0 0.0 0.0 0.0 0.0 1.0 0.0"/></filter><filter id="F"><feColorMatrix in="SourceGraphic" result="cxform" values="0.5 0.0 0.0 0.0 0.31640625 0.0 0.5 0.0 0.0 0.3984375 0.0 0.0 0.5 0.0 0.4296875 0.0 0.0 0.0 1.0 0.0"/><feComposite in2="SourceGraphic" operator="in" result="color-xform"/><feColorMatrix in="SourceGraphic" result="color-matrix" values="1.5846208334 -0.409516781569 -0.0551040023565 0.0 -0.0297656375915 -0.207379207015 1.38248312473 -0.0551040023565 0.0 -0.0297656338662 -0.207379207015 -0.409516781569 1.73689591885 0.0 -0.0297656357288 0.0 0.0 0.0 1.0 0.0"/></filter><filter id="G"><feColorMatrix in="SourceGraphic" result="color-matrix" values="1.33999991417 0.0 0.0 0.0 -0.0843359231949 0.0 1.33999991417 0.0 0.0 -0.0843359231949 0.0 0.0 1.33999991417 0.0 -0.0843359231949 0.0 0.0 0.0 1.0 0.0"/></filter><filter id="I"><feColorMatrix in="SourceGraphic" result="cxform" values="1.0 0.0 0.0 0.0 0.0 0.0 1.0 0.0 0.0 0.0 0.0 0.0 1.0 0.0 0.0 0.0 0.0 0.0 0.37109375 0.0"/><feComposite in2="SourceGraphic" operator="in" result="color-xform"/><feColorMatrix in="SourceGraphic" result="color-matrix" values="1.33999991417 0.0 0.0 0.0 0.4391015172 0.0 1.33999991417 0.0 0.0 0.4391015172 0.0 0.0 1.33999991417 0.0 0.4391015172 0.0 0.0 0.0 1.0 0.0"/></filter><use xlink:href="#b" id="e"/><use xlink:href="#i" id="l"/><use xlink:href="#k" id="n"/><use xlink:href="#p" id="z"/><use xlink:href="#s" id="C"/><path d="m94.6 140.75.15-.3-.15.3" fill="#594e4a" id="t"/><path d="M68 34q0 14.1-9.95 24.05T34 68 9.95 58.05 0 34 9.95 9.95 34 0t24.05 9.95T68 34" fill="url(#a)" id="b"/><path d="M14 14q-2.4 2.4-5.8 2.4T2.4 14 0 8.2t2.4-5.8T8.2 0 14 2.4t2.4 5.8T14 14" fill="url(#j)" id="k"/><path d="M12.15 6.65q-.7.65-1.7.65t-1.7-.65-.7-1.55.7-1.55 1.7-.65 1.7.65q.75.65.75 1.55t-.75 1.55" fill="#fff" id="o"/><radialGradient id="a" cx="0" cy="0" r="819.2" gradientTransform="matrix(.0423 0 0 .0423 34 34)" gradientUnits="userSpaceOnUse"><stop stop-color="#fff" offset="0"/><stop stop-color="#fff" stop-opacity="0" offset="1"/></radialGradient><radialGradient id="j" cx="0" cy="0" r="819.2" gradientTransform="matrix(.01105 0 0 .01105 8.2 8.2)" gradientUnits="userSpaceOnUse"><stop stop-color="#f9fede" offset="0"/><stop stop-color="#fff" stop-opacity="0" offset="1"/></radialGradient></defs><use transform="translate(183.9 296.95) scale(.84952)" xlink:href="#J"/></svg>