<svg viewBox="0 0 383.35 359.55" xmlns="http://www.w3.org/2000/svg" xmlns:xlink="http://www.w3.org/1999/xlink"><use transform="translate(.03 .025)" width="383.3" height="359.5" xlink:href="#a"/><defs><g id="a"><path d="M399.35 243.55q-9.5 1.85-18.9 0l-59.05-7.95 6.05 39.45-21.7 41.75-3.9 2.8 1.4-21.9.05-.1v-.1l10.3-23.35 1.05-33.05-7.1-5.95 10.4-6.65-8.85-5.45 17.2-.95 3.75 5 49.75 5.45 19.55 11M246.5 358.6l-65.05 45.85-15.7-4.45-60.8-95.25 2.9-9.15 5.2 4.45 7.75 6.55 49.8 65.65 8.1 5.55 11.9-4 .8-3.9q26.85-15.25 53.75-30.55l1.35 19.25" fill="#96cfe2" fill-rule="evenodd" transform="translate(-104.95 -44.95)"/><path d="m370.8 111.2-.25.2-21.45 23.85 39.75-4.15 43.85 25.75 4.15-6.2-21-43.6-45.05 4.15m-17.8 53 6.8 7.35 29.4-8.45 38.85 23.25-.2-15.2-35.5-25.85L353 164.2m-26 21.7-3.5-15.65-2.45 28.8 21.25-26.5L327 185.9m-22.65 10.15.4-.05-4.85-58.15 65.6-92.9q63.1 27.7 110.2 75.05l12.55 98.45-60.3 11.3q-14.4 11.05-28.6 13.8l-19.55-11-49.75-5.45-3.75-5-17.2.95 8.85 5.45-10.4 6.65 7.1 5.95-1.05 33.05-10.3 23.35v.1h-.1l-65.45-84.7-1.6-1 67.25-10 .95-5.85m30.6 20.7-9.7-5.2 9.45-7.5-17.8 7.65 18.05 5.05m-89.8 122.6q-26.9 15.3-53.75 30.55l-.8 3.9-11.9 4-8.1-5.55-49.8-65.65-7.75-6.55L146 295.4l43.15-37.75L245 339l.15.35" fill="#dbeffa" fill-rule="evenodd" transform="translate(-104.95 -44.95)"/><path d="m353 164.2 39.35-18.9 35.5 25.85.2 15.2-38.85-23.25-29.4 8.45-6.8-7.35m-26 21.7 15.3-13.35-21.25 26.5 2.45-28.8 3.5 15.65m7.95 30.85-18.05-5.05 17.8-7.65-9.45 7.5 9.7 5.2" fill="#56a5ad" fill-rule="evenodd" transform="translate(-104.95 -44.95)"/><path d="M245.15 339.35 245 339l.25.3-.1.05m-56.3-82.1-2.6-3.8 2.95 4.15-.35-.35" fill="#52b74d" fill-rule="evenodd" transform="translate(-104.95 -44.95)"/><path d="m370.8 111.2 45.05-4.15 21 43.6-4.15 6.2-43.85-25.75-39.75 4.15 21.45-23.85.25-.2" fill="#73c4cc" fill-rule="evenodd" transform="translate(-104.95 -44.95)"/><path d="m107.85 295.6 5.05-15.85 57.5-40.85 18.45 18.35.35.35-.05.05L146 295.4l-32.95 4.65-5.2-4.45m113.5-92.9 1.3-.95 81.7-5.7-.95 5.85-67.25 10-.55-.35-14.25-8.85" fill="#eef8fd" fill-rule="evenodd" transform="translate(-104.95 -44.95)"/><path d="m236.15 211.9 1.6 1 65.45 84.7-57.95 41.7-.25-.3-55.85-81.35.05-.05 46.4-46.05.55.35" fill="#1b4096" fill-rule="evenodd" transform="translate(-104.95 -44.95)"/><path d="m170.4 238.9 50.95-36.2 14.25 8.85-46.4 46.05-2.95-4.15 2.6 3.8-18.45-18.35" fill="#6289e3" fill-rule="evenodd" transform="translate(-104.95 -44.95)"/><path d="m301.85 319.6-55.35 39-1.35-19.25.1-.05 57.95-41.7.05.1-1.4 21.9" fill="#132e6a" fill-rule="evenodd" transform="translate(-104.95 -44.95)"/><path d="m199.4 151.1.4-.05-4.85-58.15L260.55 0q63.1 27.7 110.2 75.05l12.55 98.45-60.3 11.3q-14.4 11.05-28.6 13.8-9.5 1.85-18.9 0l-59.05-7.95 6.05 39.45-21.7 41.75-3.9 2.8-55.35 39L76.5 359.5l-15.7-4.45L0 259.8l2.9-9.15 5.05-15.85 57.5-40.85 50.95-36.2 1.3-.95z" fill="none" stroke="#000" stroke-linecap="round" stroke-linejoin="round" stroke-opacity=".251" stroke-width=".05"/><path d="m254.65 261.55 1.75-1.6 18.25 21.4-30.7 16.15-4.4-7.3 24.35-10.75-9.25-17.9m-11.3 19.35-14.45-21.95 14-4.5 10.05 22.25-9.6 4.2m-15.7-8.75-1.75 1.6-18.25-21.4 30.7-16.1 4.45 7.25-24.4 10.8 9.25 17.85" fill="#dfe967" fill-rule="evenodd" transform="translate(-104.95 -44.95)"/></g></defs></svg>