<svg viewBox="0 0 264.9 120.95" xmlns="http://www.w3.org/2000/svg" xmlns:xlink="http://www.w3.org/1999/xlink"><use width="264.9" height="120.95" xlink:href="#a"/><defs><g id="a"><path d="m376.05 242 7.75-3.15 1.1 14.65 19.25 18.35 39.65-12.65-9.45 17.05-34.15 2.7-25.4-16.9-5.7-11.2 6.95-8.85m66.5 7.9-11.05 1.4 8.85-7.9 2.2 6.5m-173.25.6 8.35 5.7-3.45 11.85-16.45 23.55-30.35 19.55-12.3-12 41.4-14.2 11.65-21 1.15-13.45M209.4 281v-6.8l13.15 3-13.15 3.8" fill="#cd8101" fill-rule="evenodd" transform="translate(-192.65 -200.15)"/><path d="m383.8 238.85-7.75 3.15 36.35-30.95 18.15 8.5-46.75 19.3m-176.9 19.1 19.9-23.4q21.15 7.9 42.5 15.95l-1.15 13.45-61.25-6" fill="#fed798" fill-rule="evenodd" transform="translate(-192.65 -200.15)"/><path d="m430.55 219.55 9.8-8.7.6.5 13.45 22.6-14.05 9.45-9.8-23.85m23.05 27.2 3.95 13.25-13.75-.8-1.25-9.3 11.05-3.15m-257.9 6.75 11.2 4.45 2.5 16.25-16.75-3.95 3.05-16.75m6.3 50.9-3-19.6 10.4-3.8 5.7 18.15-13.1 5.25" fill="#fedca5" fill-rule="evenodd" transform="translate(-192.65 -200.15)"/><path d="m434.35 276.25 9.45-17.05 13.75.8v.15l-11.5 18.8-11.7-2.7m20.05-42.3-.8 12.8-11.05 3.15-2.2-6.5 14.05-9.45m-227 77.2-11.5 9.95-13.9-16.4v-.3l13.1-5.25 12.3 12M199 284.8l-6.35-14.55 16.75 3.95v6.8l-10.4 3.8" fill="#cf9f74" fill-rule="evenodd" transform="translate(-192.65 -200.15)"/><path d="m443.8 259.2-39.65 12.65-19.25-18.35-1.1-14.65 46.75-19.3 9.8 23.85-8.85 7.9 11.05-1.4 1.25 9.3m-54.3-7.75 37.25-.75-9.95-3.5-27.3 4.25m-121.35 12.5-11.65 21-41.4 14.2-5.7-18.15 13.15-3.8-13.15-3-2.5-16.25 61.25 6m-41.2 11.2 31.1-11.7-27 5.1-4.1 6.6" fill="#ffb612" fill-rule="evenodd" transform="translate(-192.65 -200.15)"/><path d="m430.55 219.55-18.15-8.5 3-10.9 24.95 10.7-9.8 8.7M195.7 253.5l20.05-26.85 11.05 7.9-19.9 23.4-11.2-4.45" fill="#feedda" fill-rule="evenodd" transform="translate(-192.65 -200.15)"/><path d="m389.5 251.45 27.3-4.25 9.95 3.5-37.25.75m-162.55 23.7 4.1-6.6 27-5.1-31.1 11.7" fill="#fff" fill-rule="evenodd" transform="translate(-192.65 -200.15)"/><path d="m375.4 270.6-4.7-29.55-11.7-16.3h.8l15.6 12.65 6.35 29.25L363.6 299l11.8-28.4" fill="#fed798" fill-rule="evenodd" transform="translate(-192.65 -200.15)"/><path d="m359 224.75 11.7 16.3 4.7 29.55q-10.4-5.7-45-2.4l-46.6 3.15q-7.4-3.6-5.85-21.6l11.25-25H359m-75.05 37.95.2-.2h-.2v.2m6.5 8.2h-.3.3" fill="#ffb612" fill-rule="evenodd" transform="translate(-192.65 -200.15)"/><path d="M375.4 270.6 363.6 299l-61.6 5.55-26.9-18.95q-4.55-16.15-4.7-35.4l18-25.45h.8l-11.25 25q-1.55 18 5.85 21.6l46.6-3.15q34.6-3.3 45 2.4m-81.15 7.55q0-.15.15-.15h-.15v.15" fill="#cd8101" fill-rule="evenodd" transform="translate(-192.65 -200.15)"/><path d="m182.75 37.25-15.6-12.65m-71.4 0-18 25.45M170.95 98.85 189.1 66.5l-6.35-29.25m-105 12.8q.15 19.25 4.7 35.4l26.9 18.95 61.6-5.55" fill="none" stroke="#a95c01" stroke-linecap="round" stroke-linejoin="round" stroke-width=".05"/><path d="m291.85 272-3.75-37.75 7.55-11.35 45.5-6.35 14.05 9 7.25 34.95-35.05 8.8-35.55 2.7" fill="#fedca5" fill-rule="evenodd" transform="translate(-192.65 -200.15)"/><path d="m362.45 260.5-3.6 23.85-28.75 6.45-25.75 2.35-12.5-21.15 35.55-2.7 35.05-8.8" fill="#cf9f74" fill-rule="evenodd" transform="translate(-192.65 -200.15)"/><path d="M353.95 231.7q-1.75 2.7-3.35 5.85-.6.8-.9 2.05 11.5-3.6 20.2 5.55 4.1 4.4 2.35 10.4-1.55 5.1-4.75 1.6-.75-.65-.3-1.9 2.05-6.8-4.1-9.45-8.7-4.6-17.35 1.1-2.25 5.2-4.9 9.6 6.15 1.6 13.1.35.6 0 .95.8.6 4.55-4.3 4.85-3.75.2-7.55-.15l-5.7-1.1-5.35 5.7q-4.6 4.4-9.95 2.85-5.4-1.45-3-6.95 1.55-4.75 5.2-7.75l.95-.8q-2.2-2.2-3.95-4.75-3.3-4.25-.65-8.5.15-.5.95-.65 2.85 1.75 4.1 5.85.5 2.35 2.25 3.65l1.25 1.1q6.45-4.9 13.6-8.55 4.25-9.6 9.95-18.3l.6-.5q4.1 2.55.65 8.05m-17.85 23.4 1.55-3.65q-2.05 1.1-3.75 2.55l2.2 1.1m-3.15 4.6q-1.9-.95-3.5-2.05-3.45 3-6.3 6.75 5.35 1.45 9.65-4.4l.15-.3m-44.85-20.85q2.8 1.55 3.75 5.65l.95 4.1.5 1.9q4.75-3 9.15-6.3 4.4 2.2.15 6.15-3.65 3.15-7.55 5.4 2.05 6.3 4.4 12.45l4.9.65q2.2-5.05 4.9-9.95.15-.5.8-.8 3.95 2.7 1.1 8.35l-1.45 2.85q6.95.95 13.3 5.05 2.2 1.6.95 4.45-1.6 3.3-3.65.6-.5-.45-.65-1.1-5.85-3.15-12.45-3.6-1.45 3-3.35 5.65.35 2.25-.75 4.3-.8 1.55-2.25.8l-.95-.95q-2.35 2.05-5.2 3.45l-5.35.15q-7.45-2.2-5.7-10.55.8-4.75 4.6-6.65 3-1.6 6.3-2.2l-3.65-10.75q-5.5 2.5-11.35 3.45-1.6.35-1.75-1.4-.45-4.1 3.8-4.1 1.9-.15 3.8-1.1l3.8-1.9-3-9.5q-1.45-3.6 1.9-4.55m13.7 35.5v-.15h-.15l.15.15m-5.5-.45q-5.55 0-8.55 5.2h-.15q1.6 6.15 7.45 2.85l2.8-2.2-1.55-5.85" fill="#704027" fill-rule="evenodd" transform="translate(-192.65 -200.15)"/><path d="m281.75 241.35-.3.15.3-.15" fill="#feee98" fill-rule="evenodd" transform="translate(-192.65 -200.15)"/><path d="m342.25 224.15 19.45 4.4 9.3 7.9-28.75-12.3m-60.5 17.2 24.8-18.8 21.65-2.5-25.9 14.2-20.55 7.1m44.25-7.7 26.35-2.7-56.55 10.55 30.2-7.85" fill="#fff" fill-rule="evenodd" transform="translate(-192.65 -200.15)"/><path d="m344.6 261.9 28.75-9.3-13.7 12-15.05-2.7m5.1-22.1h.15l10.4-.8 13.1 4.25q-5.5 2.85-10.9 5.85l-12.75-9.3m-56.75 12.8 13.75 4.4-16.25 4.6H277.2l15.75-9m18.65 8.2q13.3 0 26.4.15l-56.55 4.25 30.15-4.4M326.3 293.5h-17.2l-20.55-7.1 16.75 2.05 21 5.05m20.55-9.65 20.35-3.95q-7.9 3.65-15.65 7.45l-20.65 1.4q7.9-2.55 15.95-4.9" fill="#945b33" fill-opacity=".502" fill-rule="evenodd" transform="translate(-192.65 -200.15)"/></g></defs></svg>