<svg viewBox="0 0 115.35 107.42" xmlns="http://www.w3.org/2000/svg" xmlns:xlink="http://www.w3.org/1999/xlink"><use transform="translate(.03)" width="115.3" height="107.4" xlink:href="#a"/><defs><linearGradient id="b" x1="-819.2" x2="819.2" gradientTransform="matrix(.0078 -.013 .0384 .0231 333.8 221.4)" gradientUnits="userSpaceOnUse"><stop stop-color="#81c0fe" offset=".106"/><stop stop-color="#cce2ff" offset=".961"/></linearGradient><linearGradient id="c" x1="-819.2" x2="819.2" gradientTransform="matrix(.0038 -.0056 .0142 .0094 375.75 236.5)" gradientUnits="userSpaceOnUse"><stop stop-color="#a7d764" offset=".106"/><stop stop-color="#80b35d" offset=".961"/></linearGradient><linearGradient id="d" x1="-819.2" x2="819.2" gradientTransform="matrix(.0104 .008 -.0145 .0188 333.5 232.65)" gradientUnits="userSpaceOnUse"><stop stop-color="#81c0fe" offset=".106"/><stop stop-color="#cce2ff" offset=".961"/></linearGradient><linearGradient id="e" x1="-819.2" x2="819.2" gradientTransform="matrix(-.021 .0009 -.0008 -.0182 333.65 254.2)" gradientUnits="userSpaceOnUse"><stop stop-color="#a7d764" offset=".106"/><stop stop-color="#80b35d" offset=".961"/></linearGradient><linearGradient id="f" x1="-819.2" x2="819.2" gradientTransform="matrix(-.0167 -.0112 .0085 -.0126 308.4 249.1)" gradientUnits="userSpaceOnUse"><stop stop-color="#a7d764" offset=".106"/><stop stop-color="#80b35d" offset=".961"/></linearGradient><linearGradient id="g" x1="-819.2" x2="819.2" gradientTransform="matrix(-.0092 .0094 -.0336 -.0326 281.45 279)" gradientUnits="userSpaceOnUse"><stop stop-color="#cdcdcd" offset=".012"/><stop stop-color="#fff" stop-opacity=".443" offset="1"/></linearGradient><linearGradient id="h" x1="-819.2" x2="819.2" gradientTransform="matrix(.0064 -.0119 .0165 .009 289.15 235.1)" gradientUnits="userSpaceOnUse"><stop stop-color="#81c0fe" offset=".106"/><stop stop-color="#cce2ff" offset=".961"/></linearGradient><linearGradient id="i" x1="-819.2" x2="819.2" gradientTransform="matrix(-.0144 .0084 -.012 -.0206 288.65 272.1)" gradientUnits="userSpaceOnUse"><stop stop-color="#a7d764" offset=".106"/><stop stop-color="#80b35d" offset=".961"/></linearGradient><linearGradient id="j" x1="-819.2" x2="819.2" gradientTransform="matrix(-.0085 .0016 -.003 -.0159 316.7 279)" gradientUnits="userSpaceOnUse"><stop stop-color="#e69797" offset="0"/><stop stop-color="#ebabab" offset="1"/></linearGradient><linearGradient id="k" x1="-819.2" x2="819.2" gradientTransform="matrix(.0033 -.0052 .0307 .0195 339.7 306.6)" gradientUnits="userSpaceOnUse"><stop stop-color="#e69797" offset="0"/><stop stop-color="#ebabab" offset="1"/></linearGradient><linearGradient id="l" x1="-819.2" x2="819.2" gradientTransform="matrix(.007 -.0118 .0128 .0077 304.85 293.5)" gradientUnits="userSpaceOnUse"><stop stop-color="#e69797" offset="0"/><stop stop-color="#ebabab" offset="1"/></linearGradient><linearGradient id="m" x1="-819.2" x2="819.2" gradientTransform="matrix(.0118 -.0023 .0014 .0068 343.7 270.7)" gradientUnits="userSpaceOnUse"><stop stop-color="#e69797" offset="0"/><stop stop-color="#ebabab" offset="1"/></linearGradient><g id="a"><path d="M308.7 225.55q26.65-8.8 45.15-8.35 5.55 8.35 8 12.95l.8 1.25-5.55 5.1-.15-.15-6.65-15.45-41.6 4.65" fill="#97bdf7" fill-rule="evenodd" transform="translate(-272.35 -206.75)"/><path d="m372.2 228.95-9.55 2.45-.8-1.25q-2.45-4.6-8-12.95-18.5-.45-45.15 8.35l5.55 10.95-11.85 2.3v-.15q-5.1-11.4-9.7-20.05 21.55-7.4 43.15-10.65.3-.15.75 0 15.7-.3 20.65 2.5 5.7 3.55 12.35 14l2.3 4q0 .35.3.5" fill="url(#b)" fill-rule="evenodd" transform="translate(-272.35 -206.75)"/><path d="m362.65 231.4 9.55-2.45.15.6q1.25 2.6 6.8 19.7l-8.95 2.35-.45-1.7q-2.95-10.35-7.1-18.5" fill="url(#c)" fill-rule="evenodd" transform="translate(-272.35 -206.75)"/><path d="M369.6 224.45q-6.65-10.45-12.35-14-4.95-2.8-20.65-2.5l22.5-1.2 10.5 17.7" fill="#efefef" fill-rule="evenodd" transform="translate(-272.35 -206.75)"/><path d="m314.25 236.5-5.55-10.95 41.6-4.65 6.65 15.45-39.15 7.2-3.55-7.05" fill="url(#d)" fill-rule="evenodd" transform="translate(-272.35 -206.75)"/><path d="m356.95 236.35.15.15 7.4 19.1-39.75 8.8-1.25-4.2q-3.55-11.55-5.7-16.65l39.15-7.2" fill="url(#e)" fill-rule="evenodd" transform="translate(-272.35 -206.75)"/><path d="m302.4 238.8 11.85-2.3 3.55 7.05q2.15 5.1 5.7 16.65l-11.85 2.35q-3.55-10.8-9.25-23.75" fill="url(#f)" fill-rule="evenodd" transform="translate(-272.35 -206.75)"/><path d="M302.4 238.65v.15l-.15-.15h.15" fill="url(#g)" fill-rule="evenodd" transform="translate(-272.35 -206.75)"/><path d="M292.7 218.6q4.6 8.65 9.7 20.05h-.15l-22.8 21.25q-3.7-12.15-7.1-25.9 8.95-12.3 20.35-15.4" fill="url(#h)" fill-rule="evenodd" transform="translate(-272.35 -206.75)"/><path d="m302.25 238.65.15.15q5.7 12.95 9.25 23.75v.3l-23 25.7q-2.9-7.7-9.2-28.65l22.8-21.25" fill="url(#i)" fill-rule="evenodd" transform="translate(-272.35 -206.75)"/><path d="m370.2 251.6 8.95-2.35 8.3 27.15-18.05 3.1q-12.75 2.3-28.2 6.45-15.55 4.15-20.8 5.85-1.85-8.15-8.75-28.95v-.3l11.85-2.35 1.25 4.2q.9 3.2 4.75 14.9l41.45-9.7 4-.9q0-.65-4.75-17.1" fill="url(#j)" fill-rule="evenodd" transform="translate(-272.35 -206.75)"/><path d="M320.4 291.8q5.25-1.7 20.8-5.85 15.45-4.15 28.2-6.45l18.05-3.1q1.25 9.85-5.4 18.5l-82.3 19.25q11.4-9.4 20.65-22.35" fill="url(#k)" fill-rule="evenodd" transform="translate(-272.35 -206.75)"/><path d="m288.65 288.55 23-25.7q6.9 20.8 8.75 28.95-9.25 12.95-20.65 22.35-5.7-11.7-11.1-25.6" fill="url(#l)" fill-rule="evenodd" transform="translate(-272.35 -206.75)"/><path d="m324.75 264.4 39.75-8.8.15.6 6.3 13.4-41.45 9.7q-3.85-11.7-4.75-14.9" fill="url(#m)" fill-rule="evenodd" transform="translate(-272.35 -206.75)"/><path d="M362.65 231.4q4.15 8.15 7.1 18.5l.45 1.7-5.55 4.6-.15-.6-7.4-19.1 5.55-5.1" fill="#699346" fill-rule="evenodd" transform="translate(-272.35 -206.75)"/><path d="m370.95 269.6-6.3-13.4 5.55-4.6q4.75 16.45 4.75 17.1l-4 .9" fill="#e69797" fill-rule="evenodd" transform="translate(-272.35 -206.75)"/><path d="M36.35 18.8Q63 10 81.5 10.45q5.55 8.35 8 12.95l.8 1.25" fill="none" stroke="#2982ed" stroke-linecap="round" stroke-linejoin="round" stroke-width=".05"/><path d="M41.9 29.75 36.35 18.8m5.55 10.95 3.55 7.05" fill="none" stroke="#c8e0fe" stroke-linecap="round" stroke-linejoin="round" stroke-width=".05"/><path d="m51.15 53.45 1.25 4.2m-1.25-4.2Q47.6 41.9 45.45 36.8" fill="none" stroke="#cae1a8" stroke-linecap="round" stroke-linejoin="round" stroke-width=".05"/><path d="M52.4 57.65q.9 3.2 4.75 14.9l41.45-9.7" fill="none" stroke="#f0c4c4" stroke-linecap="round" stroke-linejoin="round" stroke-width=".05"/><path d="M90.3 24.65q4.15 8.15 7.1 18.5l.45 1.7" fill="none" stroke="#587a29" stroke-linecap="round" stroke-linejoin="round" stroke-width=".05"/><path d="M102.6 61.95q0-.65-4.75-17.1" fill="none" stroke="#d24a4a" stroke-linecap="round" stroke-linejoin="round" stroke-width=".05"/><path d="m27.4 107.4 82.3-19.25q6.65-8.65 5.4-18.5M27.4 107.4q-5.7-11.7-11.1-25.6" fill="none" stroke="#e69999" stroke-linecap="round" stroke-linejoin="round" stroke-width=".05"/><path d="M7.1 53.15Q3.4 41 0 27.25q8.95-12.3 20.35-15.4" fill="none" stroke="#81c0fe" stroke-linecap="round" stroke-linejoin="round" stroke-width=".05"/><path d="M7.1 53.15q6.3 20.95 9.2 28.65" fill="none" stroke="#699346" stroke-linecap="round" stroke-linejoin="round" stroke-width=".05"/><path d="M349.1 220.5q-.9-2.3-.3-5.4.45-3.25 2.3-5.7 1.85-2.3 3.85-2.15 1.85-.15 2.8 2.15.9 2.45.3 5.7-.65 3.1-2.45 5.4-1.85 2.3-3.7 2.45-1.85-.15-2.8-2.45m15.55 46.25q0-2.95 1.7-5.1t4-2.15q2.35 0 3.85 2 1.85 2.15 1.85 5.1 0 2.75-1.85 4.9-1.5 2.15-3.85 2.3-2.3 0-4-2.15-1.7-2-1.7-4.9m-25.25 8.6q2.3 2.95 2.45 6.95-.15 3.85-2.45 6.8-2.15 2.9-5.25 3.05-3.25 0-5.55-2.9-2.3-2.8-2.15-6.65-.15-4 2.15-6.95 2.3-2.9 5.55-2.9 3.1-.15 5.25 2.6m19.55 9.1 3.25.15q1.4.8 1.7 2.65t-.6 3.65q-1.1 1.7-2.8 2.5-1.85.75-3.25 0-1.5-.95-1.85-2.95-.3-1.85.8-3.55.9-1.7 2.75-2.45m-75.2-50.4q1.55-2.75 4.65-.6 2.9 2 5.85 7.7 3.1 6 4.15 12.15.95 5.9-.6 8.65-1.4 3.1-4.35 1.1-3.05-2.2-6.15-8.35-3.05-5.7-4-11.55-1.1-6 .45-9.1m33.9-17.25q2.65 2.6 2.65 5.7 0 2.95-2.65 4.65-2.6 2-6 1.5-3.55-.45-6.15-3.05-2.65-2.5-2.65-5.4 0-3.1 2.65-4.95 2.6-1.85 6.15-1.2 3.4.3 6 2.75m-8.75 40.05q1.05 2.95 1.2 6.2.15 3.2-.75 5.05-.95 1.85-2.15 1.25-1.55-.75-2.65-3.7-1.2-2.75-1.2-6-.3-3.25.6-5.1.95-1.85 2.45-1.25 1.25.8 2.5 3.55m8.15 42.85q.3 1.55-.45 3.4-.65 1.55-1.7 2.45l-.95.65q-1.7.75-3.35 0-1.7-.8-2.2-2.8v-.6q-.3-1.7.5-3.55.6-1.7 1.85-2.45.3-.5.9-.65 1.55-.9 3.1 0 1.7.8 2.3 2.8v.75" fill="#011c59" fill-opacity=".082" fill-rule="evenodd" transform="translate(-272.35 -206.75)"/></g></defs></svg>