<svg viewBox="0 0 52.013 50.205" xmlns="http://www.w3.org/2000/svg" xmlns:xlink="http://www.w3.org/1999/xlink"><use transform="translate(.02 .03)" width="51.95" height="50.15" xlink:href="#a"/><defs><g id="a"><path d="M282.25 289.4q-1.05-9.7-5.75-16.35 13.95-8.8 29.5-16.05 10.1-4.05 21.5 2.8 2.75 10.05-2.35 18.3l-10 9.8-4.05-2.7q7.6-7.1 9.2-17.2l.1-.5.05-.4-.6-.65-2.85-5.2-7.95-.45-15.1 6.2-7.1 7.7-4.6 14.7m28.15 3.2-.65.6.05.05-1.4 1.15 4.3 3.1-.25.05 3.65 5.6-8.4-4.05-1.55.5-2.6.3-.15 3.15-2.35-2.85-2.6 5.05-2.6-6.95-2.35 2.35-.15-.1-6.25 2.9-2.5 2.2 3.15-9.25-.6-.45 6.75-5.05 14.35.6 2.15 1.1" fill="#f2e337" fill-rule="evenodd" transform="translate(-276.5 -255.5)"/><path d="m315.15 287.9-4.75 4.7-2.15-1.1-14.35-.6-6.75 5.05-6.25 3.25 3.6-4.45-1.9.5 1.3-3.65-.05-.05-2.85 1 1.3-3.1-.05-.05 4.6-14.7 7.1-7.7 15.1-6.2 7.95.45 2.85 5.2-.6-.5q-3.45-2.9-8-2.2-8.9 1.45-18.15 7.2-5.85 5.65-5.65 14.2l6.45 1.65 12.85.5 1.5-.2 2.85-1.9 4.05 2.7m-5.35 5.35q3 1.3 11.6 4.15l-8.7.1-4.3-3.1 1.4-1.15" fill="#dea014" fill-rule="evenodd" transform="translate(-276.5 -255.5)"/><path d="m319.85 266.45.6.65-.05.4-.1.5q-1.6 10.1-9.2 17.2l-2.85 1.9-3.35-2.2 3.75-4.3-7.2 2.7 5.2-8.4-11.7 7.7 8.9-10.9 15.4-5.75.6.5" fill="#a25e1d" fill-rule="evenodd" transform="translate(-276.5 -255.5)"/><path d="m319.25 265.95-15.4 5.75-8.9 10.9 11.7-7.7-5.2 8.4 7.2-2.7-3.75 4.3 3.35 2.2-1.5.2-12.85-.5-6.45-1.65q-.2-8.55 5.65-14.2 9.25-5.75 18.15-7.2 4.55-.7 8 2.2" fill="#6a3f13" fill-rule="evenodd" transform="translate(-276.5 -255.5)"/><path d="m33.9 37.1-.65.6.05.05m10.05-26.8.6.65-.05.4m-.1.5q-1.6 10.1-9.2 17.2m8.75-18.75-.6-.5q-3.45-2.9-8-2.2-8.9 1.45-18.15 7.2M31.75 31.6l2.85-1.9m-23.65-.05 6.45 1.65 12.85.5 1.5-.2" fill="none" stroke="#000" stroke-linecap="round" stroke-linejoin="round" stroke-opacity=".302" stroke-width=".05"/><path d="M5.75 33.9Q4.7 24.2 0 17.55 13.95 8.75 29.5 1.5 39.6-2.55 51 4.3q2.75 10.05-2.35 18.3l-10 9.8-4.75 4.7m-.6.65q3 1.3 11.6 4.15l-8.7.1-.25.05 3.65 5.6-8.4-4.05-1.55.5-2.6.3-.15 3.15-2.35-2.85-2.6 5.05-2.6-6.95L17 45.15l-.15-.1-6.25 2.9-2.5 2.2 3.15-9.25-.6-.45L4.4 43.7 8 39.25l-1.9.5 1.3-3.65-.05-.05-2.85 1 1.3-3.1-.05-.05" fill="none" stroke="#000" stroke-linecap="round" stroke-linejoin="round" stroke-opacity=".302" stroke-width=".05"/></g></defs></svg>