<svg viewBox="0 0 314.31 272.09" xmlns="http://www.w3.org/2000/svg" xmlns:xlink="http://www.w3.org/1999/xlink"><use transform="translate(0 -.005)" width="314.3" height="272.1" xlink:href="#a"/><defs><use width="314.3" height="272.1" xlink:href="#b" id="a"/><g id="b"><path d="M28.35-130.2q5.2 3 9.85 7.7 3.05 3.55 4.2 8 5.65 22.7-6.15 43.55Q30.9-61.3 20.9-62.5 12.4-63.55 7-69.05q19.45 8.7 28.1-12.75 5.05-13.35 1.65-27.1l.2-.1 1.85 2.5q-2.25-13.2-10.45-23.7M-47.2-53.45q-1.3 12.1-.85 24.45 1 29.9-8.95 58.4-7.65 22-27.3 33.2l-3.75 2V49.55l.35-.2q17.95-9.5 25.75-29.2 7.8-18.2 10.05-37.5l3.55-28.55 1.15-7.55" fill="#ffa448" fill-rule="evenodd" transform="translate(157.15 136.05)"/><path d="M7-69.05q-2.35-2.35-4.1-5.5Q-2.85-84.8 1.05-96.7q3.05-9.3 11.35-7.5 13.15 2.8 6.4 13.95.9-2.1.65-4.15-.65-4.9-5.1-6.5-6-2.2-8.55 4.45-8.55 20.9 12.3 26.95 4.25 1.25 7.4-1.9 17.55-17.4 7.75-40.8-3.8-9.15-12.45-13.4-15.5-7.55-31.2 1.1-13.25 7.3-21.45 20.2-7.1 11.05-10.3 23.85-3.2 11.95-4.7 24.1l-.35 2.8v.1l-1.15 7.55-3.55 28.55q-2.25 19.3-10.05 37.5-7.8 19.7-25.75 29.2l-.35.2V33.4l2.95-2.15q13.8-10.8 22.05-27 9.65-19.3 10.25-40.9.45-20.45 5.35-40.45 5-20.6 17.15-38 12.2-17.7 31.95-20.05 14.9-1.85 26.7 4.95 8.2 10.5 10.45 23.7l-1.85-2.5-.2.1q3.4 13.75-1.65 27.1Q26.45-60.35 7-69.05" fill="#c60" fill-rule="evenodd" transform="translate(157.15 136.05)"/><path d="M28.35-130.2q5.2 3 9.85 7.7 3.05 3.55 4.2 8 5.65 22.7-6.15 43.55Q30.9-61.3 20.9-62.5 12.4-63.55 7-69.05q-2.35-2.35-4.1-5.5Q-2.85-84.8 1.05-96.7q3.05-9.3 11.35-7.5 13.15 2.8 6.4 13.95.9-2.1.65-4.15-.65-4.9-5.1-6.5-6-2.2-8.55 4.45-8.55 20.9 12.3 26.95 4.25 1.25 7.4-1.9 17.55-17.4 7.75-40.8-3.8-9.15-12.45-13.4-15.5-7.55-31.2 1.1-13.25 7.3-21.45 20.2-7.1 11.05-10.3 23.85-3.2 11.95-4.7 24.1l-.35 2.8m0 .1q-1.3 12.1-.85 24.45 1 29.9-8.95 58.4-7.65 22-27.3 33.2l-3.75 2m0-31.2 2.95-2.15q13.8-10.8 22.05-27 9.65-19.3 10.25-40.9.45-20.45 5.35-40.45 5-20.6 17.15-38 12.2-17.7 31.95-20.05 14.9-1.85 26.7 4.95z" fill="none" stroke="#000" stroke-linecap="round" stroke-linejoin="round" stroke-opacity=".4" transform="translate(157.15 136.05)"/><path d="M72.3-7.8q-4.6-9.45-2.55-20.85 2.45-13.4 16.4-16 30.1-6 55.65 11.35 5 3.4 8.15 8.9 3.95 8 5.6 16.1-9.65-15.2-24.9-23.9l2.3 3.5-.2.2q-15.5-10.5-33.8-9.85Q69.3-36.7 72.3-7.8m-214.9 81.4q7.15-11.8 17.95-22.1 21.4-20.35 51.35-20.5 38.8-.2 75 14.3 14.9 6 30.25 9.7l-9.7-1.85-36.3-8.05q-24.55-5.65-49.85-3.65-27.15 1.35-45.85 20.25-19 19.1-24.7 45.8l-.35-.1q-1-19 4.8-37.15l-3.2 4.2q-9.1 11.45-12.2 25.5l-.1-3.4q-.15-11.7 2.9-22.95" fill="#ffa448" fill-rule="evenodd" transform="translate(157.15 136.05)"/><path d="M72.3-7.8q-3-28.9 26.65-30.55 18.3-.65 33.8 9.85l.2-.2-2.3-3.5q15.25 8.7 24.9 23.9 3.6 18.15-4.45 36.55-10.65 24.3-37.05 32.2-26.1 7.95-53.25 5.3Q34.4 63.2 9.2 54.8q-26.7-8.8-54.05-4.9-23.1 3.45-41.7 16.45-25.2 17.55-22.95 44.7.4 5.1 5.25 7.25 3.15 1.3 6.5 1.7-19.55 11.85-40.75 1.2l6.9 14.35q-9.95-3.55-13.45-13.6-2.85-8.1-2.45-16.65-4.1 4.95-6.2 10.8l-1.9 5.6-1.05.2q.85-26.6 14.05-48.3-3.05 11.25-2.9 22.95l.1 3.4q3.1-14.05 12.2-25.5l3.2-4.2q-5.8 18.15-4.8 37.15l.35.1q5.7-26.7 24.7-45.8 18.7-18.9 45.85-20.25 25.3-2 49.85 3.65l36.3 8.05 9.7 1.85h.1l3.6.8q15.4 3.45 31.3 4.6 16.9 1.55 33.25-2.7 19-4.85 33.15-18.65 16.75-16.4 13.6-39.7-1.8-13-11.5-21.9-24.85-22.95-53-8.05-5.1 2.65-5.25 8.65-.75 29.5 28.2 27.75 9.1-.35 8.8-9.05-.2-6.45-5.95-9.4-2.45-1.25-5.35-1 16.3-3.8 14.55 14.35-1.1 11.5-13.65 11.3-16.1-.2-26.35-12.1-3.2-3.7-5.15-7.7" fill="#c60" fill-rule="evenodd" transform="translate(157.15 136.05)"/><path d="M155.55-8.3q-1.65-8.1-5.6-16.1-3.15-5.5-8.15-8.9-25.55-17.35-55.65-11.35-13.95 2.6-16.4 16Q67.7-17.25 72.3-7.8m83.25-.5q3.6 18.15-4.45 36.55-10.65 24.3-37.05 32.2-26.1 7.95-53.25 5.3Q34.4 63.2 9.2 54.8q-26.7-8.8-54.05-4.9-23.1 3.45-41.7 16.45-25.2 17.55-22.95 44.7.4 5.1 5.25 7.25 3.15 1.3 6.5 1.7m-40.75 1.2 6.9 14.35m-15.9-30.25q-4.1 4.95-6.2 10.8l-1.9 5.6-1.05.2q.85-26.6 14.05-48.3 7.15-11.8 17.95-22.1 21.4-20.35 51.35-20.5 38.8-.2 75 14.3 14.9 6 30.25 9.7m.1 0 3.6.8q15.4 3.45 31.3 4.6 16.9 1.55 33.25-2.7 19-4.85 33.15-18.65 16.75-16.4 13.6-39.7-1.8-13-11.5-21.9-24.85-22.95-53-8.05-5.1 2.65-5.25 8.65-.75 29.5 28.2 27.75 9.1-.35 8.8-9.05-.2-6.45-5.95-9.4-2.45-1.25-5.35-1 16.3-3.8 14.55 14.35-1.1 11.5-13.65 11.3-16.1-.2-26.35-12.1-3.2-3.7-5.15-7.7" fill="none" stroke="#000" stroke-linecap="round" stroke-linejoin="round" stroke-opacity=".4" transform="translate(157.15 136.05)"/></g></defs></svg>