<svg viewBox="0 0 279 218" xmlns="http://www.w3.org/2000/svg" xmlns:xlink="http://www.w3.org/1999/xlink"><use width="279" height="218" xlink:href="#a"/><defs><use width="279" height="218" xlink:href="#b" id="a"/><g id="b"><path d="m84.2-82.8 1.6 1.7 3.35 4.1-3.35-4.1-1.6-1.7m-1.1 5.75-1.15-.05q-3.55-.4-6.7-2.15L72.2-80.7l1.2-2.1-1.2 2.1-1-.35-1.65-.5 1.35-1.25-1.35 1.25q-5.8-1.75-11.9-1.95l-1.35-.05-14.9.25-4.15.4q-4.8.7-9.1 2.3l-.95.45q-7.65-6.55-17-12.1l-2-.8q14.05-2.5 28.75-2.45l32 .1q19 .1 37.15 6.5 10.25 3.6 15.35 13.15l3.1 5.5 1.7 3.15-2.1 4.7-5.3 10.55-.5 1.05q-2.9 6.2-3.85 13.05l.25.45-.35.15.1-.6-.4-.65-.6-.7q-2.25-1.85-5.3-2.3-1.9-.25-3.65-.85-4.5-1.45-9.25-1.3 2.75-3.5 4.05-7.85 2.7-9-3.25-16.25-5.05-6.1-13-9.4m-15.55-12.4q1.7-1.65 3.7-2.4l2.95-.1-2.95.1q-2 .75-3.7 2.4M109.1-55.4v5-5m-7.5-15.8 2.5 3.35 2.5 3.3-2.5-3.3-2.5-3.35m15.8 13.3q.05 3.2 1.45 6.05-1.4-2.85-1.45-6.05M-95.55 65.6q-3.9-4.75-6.25-11.05 10.7 6.6 23.3 7.7 6.8.15 16.2-2.9 4.85-1.6 10.4-4.05 9.25 3.4-7.45 11.25l-1 .1-11.6 1.1q-4.35.35-8.7.15l-9.5-1.15-5.4-1.15m-24.5-60.3.4-.85q3.45-6.75 7.9-12.9l3.6-5.1 3.95-5.65q4.15-5.95 9.2-11.4v6.1-6.1q3.4-4.15 8.15-6.85 2.55-1.45 4.25-2.8l.65-.3.5-.25 2.6-1.65q4.4-2.5 9.35-3.55l6.7-1.45q7.15-1.65 14.5-2.1l14.15.7 5.8 1.05q7.25 1.3 13.75 4.8l4.1 2.2q3.3 1.7 3.95 5.25l1 4.25q1.9 6.45 1.9 13.25-.05 7.1-3.6 13.25-3.5 6.1-7.65 11.8l-5.4 7.15q-3.25 4.35-7.1 8.2-3.65 3.65-7.95 6.45-4.85 3.2-10.2 5.6-6.05 2.8-12.35 5.15l-14.9 5.5q-7.45 2.7-15.2 4.35-7 1.5-14.25 1.35l-2.7-.05q-6.95-9.6-10.7-20.15-4.25-12-4.4-25.25m66.4-37.45L-52-33.8l-1.65 1.65m2.45 13.3 1.7-1.7-1.7 1.7m30.75-5.85.85-5.8-.85 5.8M-40.4-39.65l.95-1.6 2.4-3.35-2.4 3.35-.95 1.6M7.8 4.75l-.05.05-.05-.05h.1m-45.7 7.95 1.05-1.5q2.55-2.8 3.1-6-.55 3.2-3.1 6l-1.05 1.5m13.3-22.45.9-2.4.75-1.75-.75 1.75-.9 2.4m-22.45 40.7 1-4.1 1.5-5.05-1.5 5.05-1 4.1m-13.25 0 3.3-2.5-3.3 2.5m-22.45-4.15 1.7-2.5 1.65-2.5-1.65 2.5-1.7 2.5m7.5-11.6 1.6-2.55.9-1.6-.9 1.6-1.6 2.55m10.8-19.95 6.65-6.65-6.65 6.65M-96-5.5l-.9 2.05L-98-.5l1.1-2.95.9-2.05m16.95 12q-.55-4.8-1.25-9.55-2.9-20.4 1.45-39.4-4.35 19-1.45 39.4.7 4.75 1.25 9.55m-32.95 16-1.75 3.1-1.9 4.95 1.9-4.95 1.75-3.1m6-13q-1 1.5-1.55 3.15Q-108 14-108 15.5q0-1.5.45-2.85Q-107 11-106 9.5m20.75 32.25q.85-1.25 1-2.6.3-1.95-.15-4.05.45 2.1.15 4.05-.15 1.35-1 2.6m20.8 21.6 2.15-4-2.15 4" fill="#97acc4" fill-rule="evenodd" transform="translate(139.5 109)"/><path d="m72.2-80.7 3.05 1.45q3.15 1.75 6.7 2.15l1.15.05q7.95 3.3 13 9.4 5.95 7.25 3.25 16.25-1.3 4.35-4.05 7.85l-1.6 1.8-.25.25q-2.65 2.7-4.85 5.75-6.5 9.1-11.3 19.4-1.35 2.85-1.55 5.9-.8 13.45-.8 26.95 0 3.5-.85 6.8l-1.5 6.1q-1.25.25-1.4-1.85-.25-3.05-1.15-6.1-1.7-5.7-5.55-10.6l-2.3-2.6-1.55-1.3q-.7-.45-1.7-.45l-3.35.4q4.3-7.75 3.85-17.6-.8-18.35-6.75-33.65-8.05-20.7-25.5-35.8l.95-.45q4.3-1.6 9.1-2.3l4.15-.4 14.9-.25 1.35.05q6.1.2 11.9 1.95l1.65.5 1 .35q-1.5 2.65-2.7 5.45L68.4-72l1.1-3.25q1.2-2.8 2.7-5.45m19.75 39.2h1.5-1.5M67.55-77l.65-1.7q.35-1.65 1.35-2.85-1 1.2-1.35 2.85l-.65 1.7m-9.1 3.35q-.85-1.65-1.2-3.45-.7-3.35.4-6.4-1.1 3.05-.4 6.4.35 1.8 1.2 3.45m.8 16.6-.75-4.15-.9-5 .9 5 .75 4.15m6.65 0q0-1.25.3-2.4.9-3.35.55-6.75.35 3.4-.55 6.75-.3 1.15-.3 2.4m1.65 2.45.9-3.3 1.6-5-1.6 5-.9 3.3m5 19.1.15-1.65.7-3.3-.7 3.3-.15 1.65m5-16.6 1.8-2.4 2.35-2.55-2.35 2.55-1.8 2.4m37.2 14.8-.25-.45q.95-6.85 3.85-13.05l.5-1.05 5.3-10.55 2.1-4.7q3.9 7.9 4.3 16.6.65 14.7-.85 29.1-.25 2.4.6 4.8l4.2 12.25 1.65 5.8q1.65 6.55 2.4 13.1 1.25 10.35-.95 20.1-.65 2.85-1.15 5.75-.5 3.1-1.65 6.05-6.25 16.45-16.65 30.35l1.1-4.4q.75-3.35 2-6.55 1.7-4.25 2.35-8.75l.25-2.5.25-6.65q.1-7.5-.6-14.95l-.25-2.9q-.35-4.15-.4-8.3l.25-11.2.3-2.85q1.4-7.8 1.05-15.85l-.35-3.25-1.65-6.75-2.05-6.65q-2.05-6.65-5.65-12.55m9.3 1L123-39.6l-1.45-3.35L123-39.6l1.05 3.3m1.65 15.75-.75-3.3-.9-5.8.9 5.8.75 3.3m-4.15-26.55-1.8-3.2-.9-1.55.9 1.55 1.8 3.2M43.5 19.5q-8.7 45-70.45 57.6-50.7 10.35-68.6-11.5l5.4 1.15 9.5 1.15q4.35.2 8.7-.15l11.6-1.1 1-.1q16.7-7.85 7.45-11.25-5.55 2.45-10.4 4.05l1.15-1.8-1.15 1.8q-9.4 3.05-16.2 2.9-12.6-1.1-23.3-7.7l-1.3-1.45-1.35-1.7-.5-.7 2.7.05Q-95 50.9-88 49.4q7.75-1.65 15.2-4.35l14.9-5.5q6.3-2.35 12.35-5.15 5.35-2.4 10.2-5.6 4.3-2.8 7.95-6.45 3.85-3.85 7.1-8.2L-14.9 7q4.15-5.7 7.65-11.8 3.55-6.15 3.6-13.25 0-6.8-1.9-13.25l-1-4.25q-.65-3.55-3.95-5.25l-4.1-2.2q-6.5-3.5-13.75-4.8l-5.8-1.05-14.15-.7q-7.35.45-14.5 2.1L-69.5-46q-4.95 1.05-9.35 3.55l-2.6 1.65-.5.25-.65.3q-1.7 1.35-4.25 2.8-4.75 2.7-8.15 6.85-5.05 5.45-9.2 11.4l-3.95 5.65-3.6 5.1q-4.45 6.15-7.9 12.9l-.4.85q-.1-6.6.85-13.5l.35-2.25q6.95-19.45 21-33.9 11-11.4 26.45-19.65-4.95 10.55-7.45 21.55 2.5-11 7.45-21.55.8-.75 1.75-.95 51.8-9.9 92.8 22.35l3.05 3.85q20.4 26.1 17.3 58.25M-95-33.5v2.9-2.9m0-6-2.85-4.85L-95-39.5m72.9-9.25v-.85.85m47.3 21.6 1 2.35 1.5 2.6-1.5-2.6-1-2.35M7.8 4.75q11.7-21.4 15.35-47.35Q19.5-16.65 7.8 4.75h-.1l.05.05.05-.05m25.7 3.8.2 3.3q.25 2.1 1.5 3.35-1.25-1.25-1.5-3.35l-.2-3.3M30.2-16.4q0 1.7.15 3.35.35 3.45 1.5 6.65-1.15-3.2-1.5-6.65-.15-1.65-.15-3.35m4.15 43.2q-.75 3.4-.85 6.65.1-3.25.85-6.65m-5.8 16.6 1.4-1.8 1.1-2.35-1.1 2.35-1.4 1.8m-13.3 14.15q.85-.85 1.8-1.5 3.1-2 4-4.35-.9 2.35-4 4.35-.95.65-1.8 1.5" fill="#6584a7" fill-rule="evenodd" transform="translate(139.5 109)"/><path d="M27.2-80.15q17.45 15.1 25.5 35.8-.7 1.6-2.05 2.65-5.1 4-11.4 1.7-2.4-.85-4.75-2.05-2.2-1.1-4.15-2.75-5.7-4.75-10.15-10.6L17.15-59l-3.9-4-4.05-3.85-4.7-4Q-1.85-76-9.7-77.75l-6.6-1.45q-7.35-1.55-14.95-1.95l-7.05-.25-13.3.35q-7.2.4-14.1 2.35l-7.45 2.3q-6.8 2.3-12.95 6l-5.65 3.5-5.15 3.55q-6.2 4.45-11.25 10.3t-9.3 12.25q-3.25 4.9-5.45 10.35-2.4 6.05-3.75 12.4l-.2 1.1q-2.2-3.3-3.3-6.75.1-21.85 9.95-32.25 9.85-10.5 19.6-17.95 16.1-12.3 34.9-18.7 6.45-2.2 13.2-3.7 1.95 1.9 4.5 2.8-2.55-.9-4.5-2.8 8.7-1.9 17.9-2.7 22.1-2.15 42.8 5.95l2 .8q9.35 5.55 17 12.1M72.6 29.4l1.5-6.1q.85-3.3.85-6.8 0-13.5.8-26.95.2-3.05 1.55-5.9 4.8-10.3 11.3-19.4 2.2-3.05 4.85-5.75h.25v-.25l1.6-1.8q4.75-.15 9.25 1.3 1.75.6 3.65.85 3.05.45 5.3 2.3l.6.7.4.65-.1.6-.05 1.35v.05q-1.2 3.85-1.65 8.15-.6 5.6-1.8 11.25l-.3 2-.8 8.3q-.25 2.5-.95 5.05-.45 1.5-1.75 2.65L105.65 3l-1.5 1.45q-1.15 1.25-1.9 2.7Q98.9 13.7 97.15 21l-3.2 13.6-3.25 13.35-1.45 5.85Q87.4 61.45 82 67.4q-3.95 4.45-9.3 7-4.75 2.2-9.9 2.85l-7.5-.2q-.5-8.65 3.65-16.55l9.3-17.35q1.7-3.15 2.55-6.7l1.8-7.05m26.35-70.9H93.7h5.25m12.75 7.25q-.75-.75-.8-1.35-.4-3.5-3.95-2.9 3.55-.6 3.95 2.9.05.6.8 1.35M-61-89.5q-3.15.7-4.7-3.1 1.55 3.8 4.7 3.1" fill="#a699c1" fill-rule="evenodd" transform="translate(139.5 109)"/><path d="M52.7-44.35q5.95 15.3 6.75 33.65.45 9.85-3.85 17.6-4 7.2-12.1 12.6 3.1-32.15-17.3-58.25l-3.05-3.85q-41-32.25-92.8-22.35-.95.2-1.75.95-15.45 8.25-26.45 19.65-14.05 14.45-21 33.9l-.35 2.25q-4.8-4.3-7.65-8.75l.2-1.1q1.35-6.35 3.75-12.4 2.2-5.45 5.45-10.35 4.25-6.4 9.3-12.25t11.25-10.3l5.15-3.55 5.65-3.5q6.15-3.7 12.95-6l7.45-2.3q6.9-1.95 14.1-2.35l13.3-.35 7.05.25q7.6.4 14.95 1.95l6.6 1.45q7.85 1.75 14.2 6.9l4.7 4L13.25-63l3.9 4 3.05 3.6q4.45 5.85 10.15 10.6 1.95 1.65 4.15 2.75 2.35 1.2 4.75 2.05 6.3 2.3 11.4-1.7 1.35-1.05 2.05-2.65m61.7 7.2.35-.15q3.6 5.9 5.65 12.55l2.05 6.65 1.65 6.75.35 3.25q.35 8.05-1.05 15.85l-.3 2.85-.25 11.2q.05 4.15.4 8.3l.25 2.9q.7 7.45.6 14.95l-.25 6.65-.25 2.5q-.65 4.5-2.35 8.75-1.25 3.2-2 6.55l-1.1 4.4-2.15 2.75-3.05 3.95-1.35 1.7-1 1.1-.7.75-.2.2q-5.15 5.3-12.05 8.65-2.2 1.1-4.7 1.5-10.8 1.85-21.9.45-2.6-.35-4.95-1.6-8.45-4.55-10.2-13.75-.45-2.5-.6-5v-.45l7.5.2q5.15-.65 9.9-2.85 5.35-2.55 9.3-7 5.4-5.95 7.25-13.6l1.45-5.85 3.25-13.35 3.2-13.6q1.75-7.3 5.1-13.85.75-1.45 1.9-2.7l1.5-1.45 1.45-1.35Q108.4.5 108.85-1q.7-2.55.95-5.05l.8-8.3.3-2q1.2-5.65 1.8-11.25.45-4.3 1.65-8.15v-.05l.05-1.35M112.95 80.5q-1.6-.1-1.15 2.05.3 1.5-.2 2.65.5-1.15.2-2.65-.45-2.15 1.15-2.05m8.15-42.95q1.1-3.35.85-7.05.25 3.7-.85 7.05m-.15-25.05v-8 8m-1-25q-.5-.5-.75-1.1-1.55-3.85-2.25-7.9.7 4.05 2.25 7.9.25.6.75 1.1m-4.45 80.85q1.55-4.75 1.45-9.85.1 5.1-1.45 9.85" fill="#7c69a3" fill-rule="evenodd" transform="translate(139.5 109)"/><path d="m89.15-77-3.35-4.1-1.6-1.7m-14.65 1.25q-1 1.2-1.35 2.85l-.65 1.7m3.35-5.8-1.35 1.25m4.65-10.4-2.95.1q-2 .75-3.7 2.4m-.8 23.25q.35 3.4-.55 6.75-.3 1.15-.3 2.4m7.5 16.6-.7 3.3-.15 1.65m34.05-29.05-2.5-3.3-2.5-3.35m7.5 20.8v-5m-27.4-1.65-2.35 2.55-1.8 2.4M-49.5-20.55l-1.7 1.7M-52-33.8l-1.65 1.65M-22.1-49.6v.85m-14.95 4.15-2.4 3.35-.95 1.6m20.8 9.15-.85 5.8m-2.5 10.8-.75 1.75-.9 2.4M-33.75 5.2q-.55 3.2-3.1 6l-1.05 1.5m-19.9-24.1-6.65 6.65m-8.3 15.8-.9 1.6-1.6 2.55m-4.15 6.6-1.65 2.5-1.7 2.5M-57 28.45l-3.3 2.5m15.75-9.15-1.5 5.05-1 4.1M-84.4 35.1q.45 2.1.15 4.05-.15 1.35-1 2.6m24.1 15.8-1.15 1.8-2.15 4" fill="none" stroke="#6584a7" stroke-linecap="round" stroke-linejoin="round" transform="translate(139.5 109)"/><path d="M72.2-80.7q-1.5 2.65-2.7 5.45L68.4-72m5-10.8-1.2 2.1m-14.55-2.8q-1.1 3.05-.4 6.4.35 1.8 1.2 3.45m-.85 7.45.9 5 .75 4.15m10.8-5.85-1.6 5-.9 3.3m51.3 2.75q-1.4-2.85-1.45-6.05m1.45 6.05.9 1.55 1.8 3.2m2.5 17.45.9 5.8.75 3.3m-4.15-22.4L123-39.6l1.05 3.3M27.7-22.2l-1.5-2.6-1-2.35M31.85-6.4q-1.15-3.2-1.5-6.65-.15-1.65-.15-3.35m5 31.6q-1.25-1.25-1.5-3.35l-.2-3.3M21.05 51.7q-.9 2.35-4 4.35-.95.65-1.8 1.5m15.8-18.3-1.1 2.35-1.4 1.8m4.95-9.95q.1-3.25.85-6.65" fill="none" stroke="#97acc4" stroke-linecap="round" stroke-linejoin="round" transform="translate(139.5 109)"/><path d="M27.2-80.15q17.45 15.1 25.5 35.8 5.95 15.3 6.75 33.65.45 9.85-3.85 17.6l3.35-.4q1 0 1.7.45l1.55 1.3 2.3 2.6q3.85 4.9 5.55 10.6.9 3.05 1.15 6.1.15 2.1 1.4 1.85l1.5-6.1q.85-3.3.85-6.8 0-13.5.8-26.95.2-3.05 1.55-5.9 4.8-10.3 11.3-19.4 2.2-3.05 4.85-5.75h-1.5m1.5 0 .25-.25 1.6-1.8q2.75-3.5 4.05-7.85 2.7-9-3.25-16.25-5.05-6.1-13-9.4M93.45-41.5h5.5M55.3 77.05v.45q.15 2.5.6 5 1.75 9.2 10.2 13.75 2.35 1.25 4.95 1.6 11.1 1.4 21.9-.45 2.5-.4 4.7-1.5 6.9-3.35 12.05-8.65l.2-.2.7-.75 1-1.1q.5-1.15.2-2.65-.45-2.15 1.15-2.05m-6-119q3.55-.6 3.95 2.9.05.6.8 1.35M8.2-93.05q14.05-2.5 28.75-2.45l32 .1q19 .1 37.15 6.5 10.25 3.6 15.35 13.15l3.1 5.5 1.7 3.15q3.9 7.9 4.3 16.6.65 14.7-.85 29.1-.25 2.4.6 4.8l4.2 12.25 1.65 5.8q1.65 6.55 2.4 13.1 1.25 10.35-.95 20.1-.65 2.85-1.15 5.75-.5 3.1-1.65 6.05-6.25 16.45-16.65 30.35L116 79.55l-3.05 3.95-1.35 1.7m5.35-106.7q.7 4.05 2.25 7.9.25.6.75 1.1m1 17v8m1 18q.25 3.7-.85 7.05M55.6 6.9q-4 7.2-12.1 12.6-8.7 45-70.45 57.6-50.7 10.35-68.6-11.5-3.9-4.75-6.25-11.05l-1.3-1.45-3.95-4.35M55.3 77.05q-.5-8.65 3.65-16.55l9.3-17.35q1.7-3.15 2.55-6.7l1.8-7.05m44.35 29.1q.1 5.1-1.45 9.85m-5.8 18.9q-3.1 3.3-1.75 8.25 1.5 5.5 5 9 4 4 10 4 3.5 0 7-2M110.6 86.3q.6 3.8 3 6.65.85 1.05 2.35 1.55M-52.5-96.3q-2.1-2.05-3.5-5.2l-3-7m11 15q-2.55-.9-4.5-2.8m-13.2 3.7q1.55 3.8 4.7 3.1m-4.7-3.1q-.8-1.9-2.3-3.9m-32.6 22.6q-4.95.2-9.2-.15-5.2-.45-9.4-4.35-2.8-2.6-4.8-6.1m29 53.9v-2.9m0 9v-6.1m16.15-11.85q2.5-11 7.45-21.55-15.45 8.25-26.45 19.65L-95-39.5m-9.95 90.2.5.7 1.35 1.7M23.15-42.6q-41-32.25-92.8-22.35-.95.2-1.75.95m81.6-28.25q9.35 5.55 17 12.1M43.5 19.5q3.1-32.15-17.3-58.25l-3.05-3.85Q19.5-16.65 7.8 4.75l-.05.05m-137.9-28.5-1.85.3q-3.8.6-7 3.9m60.15-22.95q-4.35 19-1.45 39.4.7 4.75 1.25 9.55M-98-.5l1.1-2.95.9-2.05m-23.2-2.7q-.95 6.9-.85 13.5.15 13.25 4.4 25.25l1.9-4.95 1.75-3.1m14.15-66.85q-14.05 14.45-21 33.9l-.35 2.25m11.2 23.7q0-1.5.45-2.85Q-107 11-106 9.5m27.5 52.75q-12.6-1.1-23.3-7.7m-13.85-24q3.75 10.55 10.7 20.15M-117 35.5l1.35-4.95" fill="none" stroke="#000" stroke-linecap="round" stroke-linejoin="round" stroke-opacity=".4" transform="translate(139.5 109)"/><path d="M-52.5-96.3q-6.75 1.5-13.2 3.7m-64.45 68.9q.1-21.85 9.95-32.25 9.85-10.5 19.6-17.95 16.1-12.3 34.9-18.7m73.9-.45 2 .8m-62.7-4.05q8.7-1.9 17.9-2.7 22.1-2.15 42.8 5.95M-119.2-8.2q-4.8-4.3-7.65-8.75-2.2-3.3-3.3-6.75" fill="none" stroke="#000" stroke-linecap="round" stroke-linejoin="round" stroke-opacity=".4" transform="translate(139.5 109)"/></g></defs></svg>