<svg viewBox="0 0 123.33 119.67" xmlns="http://www.w3.org/2000/svg" xmlns:xlink="http://www.w3.org/1999/xlink"><use transform="matrix(.8083 .5882 -.5882 .8083 77.25 -9.42)" width="57.25" height="144.45" xlink:href="#a"/><defs><use width="57.25" height="144.45" xlink:href="#b" id="a"/><g id="b"><path d="m-24.2 48.95-1.2-.7Q8-11.1-15.35-63.35l1.3-.25 4.35-.95q6.55 16 7.9 33.35Q-.5-13.9-4.5-.45q-4.05 13.4-5.8 21.05-1.75 7.6 1.5 8.9l3.9 3.1-1.2 2.85-3.8-3.4-1.25 2.8 3.8 3.3-1 2.15-3.65-3.65-1.65 3.45 3.75 3.3-1.25 2.45-3.8-3.1-1.85 3.45 3.9 2.9-1.25 2.25-4.25-2.2-1.35 2.3 1.35-2.3 4.25 2.2 1.25-2.25-3.9-2.9 1.85-3.45 3.8 3.1 1.25-2.45-3.75-3.3 1.65-3.45 3.65 3.65 1-2.15-3.8-3.3 1.25-2.8 3.8 3.4 1.2-2.85-3.9-3.1.9-2.2 4.05 2.8.75-1.8Q3.55 26 7.2 14.9l8.15-26.25q4.55-15.15 4.45-28.7l-.4-23.05-.35-5.3 1.9-.5 3.05-.9Q26.75 6.5-10.95 56.3l-2.2-1.4-2.2-1.45-4.4-2-4.45-2.5" fill="#e0dcba" fill-rule="evenodd" transform="translate(28.6 72.2)"/><path d="m-14.05-63.6-1.3.25Q8-11.1-25.4 48.25l1.2.7-1.4 1.45-2.5-3.2Q5.45-14.5-20.25-66h4.65l1.55 2.4m35-5.3 1.15-2.8h6.05Q27.75 9.55-3.75 53l-2.05 2.75-3.75 4.6-3-2.35-.6-.5v-2.6l2.2 1.4Q26.75 6.5 24-69.8l-3.05.9" fill="#900" fill-rule="evenodd" transform="translate(28.6 72.2)"/><path d="M-8.8 29.5q-3.25-1.3-1.5-8.9 1.75-7.65 5.8-21.05 4-13.45 2.7-30.75-1.35-17.35-7.9-33.35l9.2-2 .6 2.75 2.3-.45.7 3.2q-1.1.5-2.25.85l.6 3.3.65-.35 1.55-.65.55 3.2-2.25.95.5 3.7 2.3-.65.5 3.95-2.35.3.35 4.15 2.4-.2.25 4.1-2.35.05.15 3.4h2.05l.4 3.55-2.4-.15.05 3.65h2.35l-.05 3.1H3.75L3.6-21h2.35l-.2 3.8h-2.4l-.3 3.2h2.4l-.3 3 3 .8.55-2.7-2.4-.4.65-3.5 2.35.5.75-4.35-2.5.05.7-4.35 2.5-.25.45-3.5-2.45-.05.4-3.2 2.5-.25.5-4.35-2.55.7.3-3.3 2.55-.3.3-3.5-2.6.9.35-4.75 2.65-1 .2-3.4-2.65.7.25-5 2.7-1.35.15-4.05-2.7.55.05-3.6 2.75-.95v-2.05l5.15-1.45.35 5.3.4 23.05q.1 13.55-4.45 28.7L7.2 14.9Q3.55 26-3.1 28.3l.2-.55-4-3 1-2.6 4.15 2.55 1.1-2.95-4.15-2.65.8-2.3 4.25 2.4.9-2.7-4.2-2.55.9-2.9 4.25 2.4 1.05-3.35-4.4-2 .85-2.95 4.3 2.3.95-3.55L.4 2.1l.7-2.75L5.55 1.2l.65-2.6-4.5-1.9.35-2.1 4.9.8.5-2.1-2.7-1.1-2.35-.4.35-2.8h2.4-2.4L2.4-8.2l2.35.4 2.7 1.1-.5 2.1-4.9-.8-.35 2.1 4.5 1.9-.65 2.6L1.1-.65.4 2.1l4.45 1.8-.95 3.55-4.3-2.3-.85 2.95 4.4 2-1.05 3.35-4.25-2.4-.9 2.9 4.2 2.55-.9 2.7L-4 16.8l-.8 2.3 4.15 2.65-1.1 2.95-4.15-2.55-1 2.6 4 3-.2.55-.75 1.8-4.05-2.8-.9 2.2m24.15-90.4H13.8h1.55M-2.3-63.05l2.4-.75-2.4.75M11.1-16.3H9.3h1.8m2.15-15.9h-1.6 1.6M11.9-20.65h-1.85 1.85m.55-4.55h-1.7 1.7M-.45-21H3.6-.45M.9-14h2.15H.9m.8-3.2h1.65H1.7M.9-27.9h2.9H.9m.55 3.1h2.3-2.3M.9-34.95h2.8H.9m.8 3.25 1.35.05.7.1-.7-.1-1.35-.05m-2.95-24.15q1.4-.45 2.7-1.05-1.3.6-2.7 1.05m4.5 13.55-2.35.4 2.35-.4m-2.6 4.15.8-.05 2.1-.15-2.1.15-.8.05m2.25-8.3-2 .25 2-.25M-1.25-59.6l.55-.2 1.55-.4-1.55.4-.55.2m3.7 9.55L.1-49.7l2.35-.35m-.5-3.7q-1.1.6-2.1 1.4 1-.8 2.1-1.4M15.9-49.4l-2.75 1.6 2.75-1.6m-1.05 9.95h-2.4 2.4m0-3.5h-2.1 2.1m.5-15.05-1.7 1.15 1.7-1.15" fill="#edebd8" fill-rule="evenodd" transform="translate(28.6 72.2)"/><path d="m-24.2 48.95-1.2-.7Q8-11.1-15.35-63.35l1.3-.25-1.55-2.4h-4.65Q5.45-14.5-28.1 47.2l2.5 3.2 1.4-1.45 4.45 2.5 1.35-2.3 4.25 2.2 1.25-2.25-3.9-2.9 1.85-3.45 3.8 3.1 1.25-2.45-3.75-3.3 1.65-3.45 3.65 3.65 1-2.15-3.8-3.3 1.25-2.8 3.8 3.4 1.2-2.85-3.9-3.1.9-2.2 4.05 2.8.75-1.8.2-.55-4-3 1-2.6 4.15 2.55 1.1-2.95-4.15-2.65.8-2.3 4.25 2.4.9-2.7-4.2-2.55.9-2.9 4.25 2.4 1.05-3.35-4.4-2 .85-2.95 4.3 2.3.95-3.55L.4 2.1l.7-2.75L5.55 1.2l.65-2.6-4.5-1.9.35-2.1 4.9.8.5-2.1-2.7-1.1-2.35-.4.35-2.8h2.4l3 .8.55-2.7-2.4-.4.65-3.5 2.35.5.75-4.35-2.5.05.7-4.35 2.5-.25.45-3.5-2.45-.05.4-3.2 2.5-.25.5-4.35-2.55.7.3-3.3 2.55-.3.3-3.5-2.6.9.35-4.75 2.65-1 .2-3.4-2.65.7.25-5 2.7-1.35.15-4.05-2.7.55.05-3.6 2.75-.95v-2.05l5.15-1.45 1.9-.5 1.15-2.8h6.05Q27.75 9.55-3.75 53q.05 1.85 2.05 3l1.75.8M-9.7-64.55l-4.35.95M.1-63.8l-.6-2.75-9.2 2M.85-60.2q1.15-.35 2.25-.85l-.7-3.2-2.3.45-2.4.75m16.1 2.15h1.55m-14.5.7.6 3.3.65-.35 1.55-.65.55 3.2-2.25.95.5 3.7 2.3-.65.5 3.95-2.35.3.35 4.15 2.4-.2.25 4.1-2.35.05.15 3.4h2.05l.4 3.55-2.4-.15.05 3.65h2.35l-.05 3.1H3.75L3.6-21h2.35l-.2 3.8h-2.4l-.3 3.2h2.4l-.3 3m15.8-57.9 3.05-.9Q26.75 6.5-10.95 56.3l-2.2-1.4v2.6l.6.5 3 2.35 3.75-4.6L-3.75 53m17.4-109.85 1.7-1.15m-2.6 15.05h2.1m-2.4 3.5h2.4m-1.7-8.35 2.75-1.6M-.15-52.35q1-.8 2.1-1.4M.1-49.7l2.35-.35M.85-60.2l-1.55.4-.55.2M.9-46.2l2-.25m.65 8.1-2.1.15-.8.05M.9-41.9l2.35-.4m-1.8-14.6q-1.3.6-2.7 1.05m5 24.3-.7-.1-1.35-.05m2-3.25H.9M3.75-24.8h-2.3m2.35-3.1H.9m2.45 10.7H1.7M3.05-14H.9m2.7-7H-.45m11.2-4.2h1.7m-2.4 4.55h1.85m-.25-11.55h1.6M9.3-16.3h1.8M-5.8 55.75q2.05 1.9 2.4 4.4.45 3.4-.1 6.95m-3.55-8.9q1.6 2.1-.05 4.25-1.45 2-1.5 4.3-.05 2.5 2.25 3.95m-13.4-19.25 4.4 2 2.2 1.45m-5.65 16.85q2.85-2.45 1.65-6l-.1-.3-1.85.15-.85-.6q-.65-.9.4-1.45 1.6.2 2.3 1.9l.3-.2q4.1-2.5 4.4-7.25" fill="none" stroke="#000" stroke-linecap="round" stroke-linejoin="round" stroke-opacity=".4" transform="translate(28.6 72.2)"/></g></defs></svg>