<svg viewBox="0 0 113.7 253.67" xmlns="http://www.w3.org/2000/svg" xmlns:xlink="http://www.w3.org/1999/xlink"><use transform="translate(.03 .05)" width="113.65" height="253.6" xlink:href="#a"/><defs><g id="a"><path d="M289.9 106.35q-11.85-4.8-25.4-5.1l2.75-.55q6.5-1.05 12.85.85 4.95 1.5 9.8 4.8m-27.75 19.6 3.3-16.35q5.85 4.6 12.2 3.7l-3.2 16.1q-6.35-1.05-12.3-3.45 5.95 2.4 12.3 3.45l-2 9.75q-6.3-1-12.25-3.75l1.95-9.45" fill="#dd9986" fill-rule="evenodd" transform="translate(-189.75 -100.35)"/><path d="M289.9 106.35q2.9 1.95 5.75 4.6l-3.8 18.85q-9.05 1-17.4-.4l3.2-16.1q-6.35.9-12.2-3.7l-3.3 16.35q-3.85-1.55-7.55-3.7l3.85-18.85q3-1.4 6.05-2.15 13.55.3 25.4 5.1m4.05 5.05-23.65-1.5q7.35 2.8 15.45 2.85 5.25-.35 8.2-1.35" fill="#d1775c" fill-rule="evenodd" transform="translate(-189.75 -100.35)"/><path d="M293.95 111.4q-2.95 1-8.2 1.35-8.1-.05-15.45-2.85l23.65 1.5" fill="#cb6345" fill-rule="evenodd" transform="translate(-189.75 -100.35)"/><path d="m288.2 147.65-.9 4.5 3.15 6.55-.05 42.05L279 232.5q-16.7-8.55-34.7-10.6l8.95-44.1.1-.2 26.95 4.8q-14.2-2.9-21.45-13.65l11.7-18.95.45-2.45.7.15q8 1.25 16.5.15m-65.75 197.9-25.85-7.15-6.85-14.4 31.95-155.35 27.75-24.6 1.2-4.65q3.4 2.15 6.95 3.75l.7.3-.75 3.2-27.65 22.8-10 52.6-2.6.35-.3.05-20.3 98.8 2.15 4.55 3.65 7.6 18.05 5 3.95 1.05-2.05 6.1" fill="#6abfe8" fill-rule="evenodd" transform="translate(-189.75 -100.35)"/><path d="m258.3 143.45 1.9-8.05q5.95 2.75 12.25 3.75l-1.45 8.2-.45 2.45-11.7 18.95q7.25 10.75 21.45 13.65l-26.95-4.8-.1.2-8.95 44.1q-11.95-1.35-24.4.15l10-52.6 27.65-22.8.75-3.2" fill="#b6dff3" fill-rule="evenodd" transform="translate(-189.75 -100.35)"/><path d="M260.4 262.5q2.9 4.15 1.9 8.95-1 4.85-5.25 7.5-3.1 1.9-6.6 1.95l-2.85-.3-3.8-1.35q-2.5-1.4-4.2-3.85-2.95-4.15-1.95-8.95.95-4.85 5.25-7.5t9.45-1.6q5.1 1 8.05 5.15m-40.7-39.6q10.4 10.2 21.8 13.35L220.55 338.4l-18.05-5-3.65-7.6 20.85-102.9m23.15 74.3q2.8-1.75 6.1-1.1t5.2 3.4q1.9 2.7 1.3 5.8-.65 3.1-3.45 4.85-2.85 1.75-6.1 1.1-3.3-.7-5.2-3.4-1.95-2.7-1.3-5.8.6-3.1 3.45-4.85m10.3 23.95q1.15.25 1.8 1.2.65.9.45 2.05-.2 1.1-1.2 1.7t-2.15.4q-1.2-.25-1.85-1.2t-.45-2.05 1.2-1.7q1-.65 2.2-.4" fill="#fffff2" fill-rule="evenodd" transform="translate(-189.75 -100.35)"/><path d="M219.9 222.05q12.45-1.5 24.4-.15l-2.8 14.35q-11.4-3.15-21.8-13.35l.2-.85" fill="#f5f9d2" fill-rule="evenodd" transform="translate(-189.75 -100.35)"/><path d="m290 138.8-1.8 8.85q-8.5 1.1-16.5-.15l-.7-.15 1.45-8.2q8.45 1.4 17.55-.35m-39.35.6 2.15-8.15q3.6 2.45 7.4 4.15l-1.9 8.05-.7-.3q-3.55-1.6-6.95-3.75" fill="#65b3c9" fill-rule="evenodd" transform="translate(-189.75 -100.35)"/><path d="M279 232.5q3.55 1.85 7.05 3.95v.05q-21.4 4.75-44.55-.25l2.8-14.35q18 2.05 34.7 10.6m-59.1-10.45-.2.85-2.4-.5 2.6-.35" fill="#e9f198" fill-rule="evenodd" transform="translate(-189.75 -100.35)"/><path d="m290.45 158.7 12.95 26.8-33.05 162.85-17.5 5.6-30.4-8.4 2.05-6.1 25.6 7.15 14.6-4.8 21.35-105.3v-.05q-3.5-2.1-7.05-3.95l11.4-31.75.05-42.05" fill="#3a84c0" fill-rule="evenodd" transform="translate(-189.75 -100.35)"/><path d="M254.6 122.25q3.7 2.15 7.55 3.7l-1.95 9.45q-3.8-1.7-7.4-4.15l1.8-9m19.85 7.15q8.35 1.4 17.4.4l-1.85 9q-9.1 1.75-17.55.35l2-9.75" fill="#934128" fill-rule="evenodd" transform="translate(-189.75 -100.35)"/><path d="M241.5 236.25q23.15 5 44.55.25L264.7 341.8l-14.6 4.8-25.6-7.15-3.95-1.05 20.95-102.15m18.9 26.25q-2.95-4.15-8.05-5.15-5.15-1.05-9.45 1.6t-5.25 7.5q-1 4.8 1.95 8.95 1.7 2.45 4.2 3.85l3.8 1.35 2.85.3q3.5-.05 6.6-1.95 4.25-2.65 5.25-7.5 1-4.8-1.9-8.95m-43.1-40.1 2.4.5-20.85 102.9-2.15-4.55 20.3-98.8.3-.05m35.85 98.75q-1.2-.25-2.2.4-1 .6-1.2 1.7t.45 2.05 1.85 1.2q1.15.2 2.15-.4t1.2-1.7q.2-1.15-.45-2.05-.65-.95-1.8-1.2m-10.3-23.95q-2.85 1.75-3.45 4.85-.65 3.1 1.3 5.8 1.9 2.7 5.2 3.4 3.25.65 6.1-1.1 2.8-1.75 3.45-4.85.6-3.1-1.3-5.8-1.9-2.75-5.2-3.4t-6.1 1.1" fill="#cdd661" fill-rule="evenodd" transform="translate(-189.75 -100.35)"/><path d="m102.1 29.45 3.8-18.85q-2.85-2.65-5.75-4.6M74.75.9q-3.05.75-6.05 2.15L64.85 21.9q3.7 2.15 7.55 3.7 5.95 2.4 12.3 3.45 8.35 1.4 17.4.4l-1.85 9-1.8 8.85-.9 4.5 3.15 6.55 12.95 26.8L80.6 248l-17.5 5.6-30.4-8.4-25.85-7.15L0 223.65 31.95 68.3 59.7 43.7l1.2-4.65 2.15-8.15 1.8-9m9.9-21L77.5.35Q84-.7 90.35 1.2q4.95 1.5 9.8 4.8m-37.1 24.9q3.6 2.45 7.4 4.15Q76.4 37.8 82.7 38.8q8.45 1.4 17.55-.35" fill="none" stroke="#000" stroke-linecap="round" stroke-linejoin="round" stroke-opacity=".251" stroke-width=".05"/></g></defs></svg>