<svg viewBox="0 0 336.44 198.38" xmlns="http://www.w3.org/2000/svg" xmlns:xlink="http://www.w3.org/1999/xlink"><use transform="translate(0 .01)" width="336.45" height="198.35" xlink:href="#a"/><defs><g id="a"><path d="M127.8 302.45q21.65 5.85 33.2-1.7 8.65-6.8 30.2-.9-21.95-8.65-30.6-1.85-11.4 7.4-32.8 4.45" fill="#4a392d" fill-rule="evenodd" transform="translate(-121.75 -108.1)"/><path d="M191.2 299.85q-21.95-8.65-30.6-1.85-11.4 7.4-32.8 4.45" fill="none" stroke="#000" stroke-linecap="round" stroke-linejoin="round" stroke-opacity=".251" transform="translate(-121.75 -108.1)"/><path d="M127.8 302.45q21.65 5.85 33.2-1.7 8.65-6.8 30.2-.9z" fill="none" stroke="#000" stroke-linecap="round" stroke-linejoin="round" stroke-opacity=".251" transform="translate(-121.75 -108.1)"/><path d="M126.9 291.55q51.85-23.2 71.7-74.65 19.85-51.5 12.05-70.35-2.75-9.95-10.5-20.15l-3.8-3.65q-15.5-13.45-18.75 10.6-.9 5.1.55 8.45-4.3-4.7-2.7-13.8 1.95-14.5 7.45-18.15 7.3-4.95 20.95 9.4 9.75 12.9 12.5 28.2 4.35 31.4-11.65 72.3-36.9 63.9-74.05 85.3-9.5-2-3.75-13.5" fill="#4a392d" fill-rule="evenodd" transform="translate(-121.75 -108.1)"/><path d="M126.9 291.55q51.85-23.2 71.7-74.65 19.85-51.5 12.05-70.35-2.75-9.95-10.5-20.15l-3.8-3.65q-15.5-13.45-18.75 10.6-.9 5.1.55 8.45-4.3-4.7-2.7-13.8 1.95-14.5 7.45-18.15 7.3-4.95 20.95 9.4 9.75 12.9 12.5 28.2 4.35 31.4-11.65 72.3-36.9 63.9-74.05 85.3M130.65 305.05q-9.5-2-3.75-13.5z" fill="none" stroke="#000" stroke-linecap="round" stroke-linejoin="round" transform="translate(-121.75 -108.1)"/><path d="m122.25 293.35 1.45-.85q77.05-43.1 152.55-56.3 58.1-8.35 102.4 11.2 14.4 6.35 39.8 21.9 13.55 6.25 20.75 1.3 11.6-8.05 6.95-45.05-1.95-9.85-6.95-15.7l-2.5-2.5 2.5 1.35q21.8 12.2 17.9 28.5-3.15 40.65-17.9 43.35-2.35.45-5-.1-19.25-3.9-25.7-12-42.2-33.1-132.65-25.1-90.45 7.95-137.75 61.25-10.95 4.15-14.4-4.3-1.15-2.8-1.45-6.95" fill="#4a392d" fill-rule="evenodd" transform="translate(-121.75 -108.1)"/><path d="m122.25 293.35 1.45-.85q77.05-43.1 152.55-56.3 58.1-8.35 102.4 11.2 14.4 6.35 39.8 21.9 13.55 6.25 20.75 1.3 11.6-8.05 6.95-45.05-1.95-9.85-6.95-15.7l-2.5-2.5-1.95-1.5M138.1 304.6q47.3-53.3 137.75-61.25 90.45-8 132.65 25.1 6.45 8.1 25.7 12 2.65.55 5 .1 14.75-2.7 17.9-43.35 3.9-16.3-17.9-28.5l-2.5-1.35M138.1 304.6q-10.95 4.15-14.4-4.3-1.15-2.8-1.45-6.95z" fill="none" stroke="#000" stroke-linecap="round" stroke-linejoin="round" stroke-opacity=".251" transform="translate(-121.75 -108.1)"/></g></defs></svg>