<svg viewBox="0 0 152 153.25" xmlns="http://www.w3.org/2000/svg" xmlns:xlink="http://www.w3.org/1999/xlink"><use transform="translate(.02 .02)" width="151.95" height="153.2" xlink:href="#a"/><defs><g id="a"><path d="m324 193.6 15.5-5.2 1.55 48.6-31 9.3 4.65-50.15 9.3-2.55m-134.9-1.55 26.9-26.9 34.1 25.35-21.7 40.3-39.3-38.75" fill="#ed9c16" fill-rule="evenodd" transform="translate(-189.1 -122.8)"/><path d="m282.65 204.95-12.9 48.6-41.35-22.75 21.7-40.3 32.55 14.45" fill="#edcf8b" fill-rule="evenodd" transform="translate(-189.1 -122.8)"/><path d="m228.4 134.15-5.55 13.9-6.85 17.1-26.9 26.9 9.85-34.1 34.1-35.15-4.65 11.35" fill="#8c490c" fill-rule="evenodd" transform="translate(-189.1 -122.8)"/><path d="m324 193.6-9.3 2.55-15.9 4.4-23.15-31.2-52.8-21.3 5.55-13.9 63.55 15.5L324 193.6" fill="#572d07" fill-rule="evenodd" transform="translate(-189.1 -122.8)"/><path d="m299.2 139.35-7.25 10.3-63.55-15.5 4.65-11.35 66.15 16.55" fill="#8c580c" fill-rule="evenodd" transform="translate(-189.1 -122.8)"/><path d="m339.5 188.4-15.5 5.2-32.05-43.95 7.25-10.3 40.3 49.05" fill="#c47311" fill-rule="evenodd" transform="translate(-189.1 -122.8)"/><path d="m314.7 196.15-4.65 50.15-40.3 7.25 12.9-48.6 16.15-4.4 15.9-4.4" fill="#f3bc61" fill-rule="evenodd" transform="translate(-189.1 -122.8)"/><path d="m134.9 70.8-9.3 2.55m-86.3-62L43.95 0m36.7 130.75 40.3-7.25M39.3 108l41.35 22.75M0 69.25 39.3 108" fill="none" stroke="#70380a" stroke-linecap="round" stroke-linejoin="round" stroke-width=".05"/><path d="m120.95 123.5 31-9.3-1.55-48.6-40.3-49.05" fill="none" stroke="#ba7910" stroke-linecap="round" stroke-linejoin="round" stroke-width=".05"/><path d="m304.85 244.05-3.05 1.2-.05.1.5 2.2h.05l6.3 24.45 10.5-2-.1-.3 1.25.35-7.2-25.65-1.45-1.15-1.15-4.2-.05-.25.05.25.65 7.55-2.7 2.05-2.7-.35-.1-1.35-.75-2.9-.95-3.75.95 3.75m.75 30.65-9.25-32.65 7.55-1.75-1.4-5.4 7.2-1.75.7 5.65 5.25-1.2 7.85 32.25-.75 2.6-17.15 2.3v-.05" fill="#d98e11" fill-rule="evenodd" transform="translate(-189.1 -122.8)"/><path d="M302.3 247.55h-.05l-.5-2.2.05-.1 3.05-1.2.75 2.9-3.3.6m3.3 27.2 17.15-2.3.75-2.6 1.05 4.2L305.8 276l-.2-1.25m4.85-35.7 1.15 4.2 1.45 1.15 7.2 25.65-1.25-.35-6.55-23.4-.85-3.05.85 3.05-1.95 4.6-4.65-1.35-.15-1.25 2.7.35 2.7-2.05-.65-7.55" fill="#572d07" fill-rule="evenodd" transform="translate(-189.1 -122.8)"/><path d="m115.75 121.25-.95-3.75-7.55 1.75 9.25 32.65m17.9-4.85-7.85-32.25-5.25 1.2.05.25 1.15 4.2.85 3.05 6.55 23.4.1.3-10.5 2-6.3-24.45 3.3-.6-.75-2.9m-.95-3.75-1.4-5.4 7.2-1.75.7 5.65m2.05 7.5-1.95 4.6-4.65-1.35-.15-1.25-.1-1.35m0 27.8.2 1.25 18.75-1.95-1.05-4.2" fill="none" stroke="#000" stroke-linecap="round" stroke-linejoin="round" stroke-opacity=".251" stroke-width=".05"/></g></defs></svg>