<svg viewBox="0 0 66.745 69.708" xmlns="http://www.w3.org/2000/svg" xmlns:xlink="http://www.w3.org/1999/xlink"><use transform="translate(0 .01)" width="66.75" height="69.7" xlink:href="#a"/><defs><g id="a"><path d="m425.35 205.95.25-.35v.4l-.25-.05" fill="#f30" fill-rule="evenodd" transform="translate(-375.65 -137.9)"/><path d="m376.25 138.75.45-.55q1.45-.9 14.45 12.6l2.9 3.05 6.8 6.6q4.75 4.3 7.15 5.55l4.6 3.35q10.35 2 20 2.35 2.75 2.85 2.5 7.6-5.2 21-15.8 9.85 4.8 6.2 2.55 9.95-5.1 4.1-15.1-11.25 7.05 11.35 4.9 10.6l-1.35-.55q-3.95-1.8-6.45-5.75-11.4-18.45-20.8-38.3-3.55-7.45-6.8-15.1m16.55 21.35q9.15 13.85 21 26.25l.45.45q4.45-1.25 9.15-4.25 1.35-.7 1.6-2.25-1.05-2.25-3.25-3.35-.6-.1-1-.55-5.7-3.15-11.3-6.6-3.9-2.25-8.5-4.1l-.45-1.35-1.65-.35-2.25-2.25-3.8-1.65m24.7 11.7-4.9-2.45 4.9 2.45" fill="#ccc" fill-rule="evenodd" transform="translate(-375.65 -137.9)"/><path d="m392.8 160.1 3.8 1.65 2.25 2.25 1.65.35.45 1.35q4.6 1.85 8.5 4.1 5.6 3.45 11.3 6.6.4.45 1 .55 2.2 1.1 3.25 3.35-.25 1.55-1.6 2.25-4.7 3-9.15 4.25l-.45-.45q-11.85-12.4-21-26.25" fill="#d7d7d7" fill-rule="evenodd" transform="translate(-375.65 -137.9)"/><path d="M388.15 185.8q-2.1-3.75-3.6-7.05l-.85-1.85-1.25-3.1q-.8-2.3-1.25-4.3l-3.55-15.65-.05-.35q-2.45-12.2-1.35-14.75 3.25 7.65 6.8 15.1 9.4 19.85 20.8 38.3 2.5 3.95 6.45 5.75.6 4.25-2.4 5.3h-3.35q-7.85-8.05-14.75-16.65l-1.65-.75" fill="#999" fill-rule="evenodd" transform="translate(-375.65 -137.9)"/><path d="M435.1 179.3q-.2 2.3-1.05 5.1l-.8 2.15-.6 1.4q-2.75 6.1-6.05 10.2l-1.5 1.65q-2.05 2.15-4.3 3.6-3 1.85-6.4 2.85l-1.2.3-.3.05-.25.1-7.95.65q-1.7-.4-2.9-1.4l-.6-.6q-.85-.9-1.35-2.1l-.05-.1-.05-.05-3.85-5.25-1.2-1.75q-3.75-5.5-6.55-10.3l1.65.75q6.9 8.6 14.75 16.65h3.35q3-1.05 2.4-5.3l1.35.55q2.15.75-4.9-10.6 10 15.35 15.1 11.25 2.25-3.75-2.55-9.95 10.6 11.15 15.8-9.85m-9.75 26.65h-.1l.35-.45v.1l-.25.35" fill="#666" fill-rule="evenodd" transform="translate(-375.65 -137.9)"/><path d="m441.95 170.95.05.2-.6.2.55-.4" fill="#fe6a4b" fill-rule="evenodd" transform="translate(-375.65 -137.9)"/><path d="m441.95 170.95.45-.2v.3l-.4.1-.05-.2" fill="#fa8d3f" fill-rule="evenodd" transform="translate(-375.65 -137.9)"/><path d="m434.05 184.4.55-.95-1.8 4.55-.15-.05.6-1.4.8-2.15" fill="#a31401" fill-rule="evenodd" transform="translate(-375.65 -137.9)"/><path d="M.6.85 1.05.3Q2.5-.6 15.5 12.9l2.9 3.05 6.8 6.6q4.75 4.3 7.15 5.55l4.6 3.35q10.35 2 20 2.35 2.75 2.85 2.5 7.6-.2 2.3-1.05 5.1M57 50.05q-2.75 6.1-6.05 10.2l-1.5 1.65q-2.05 2.15-4.3 3.6-3 1.85-6.4 2.85M37 68.8l-7.95.65m-3.5-2q-.85-.9-1.35-2.1l-.05-.1-.05-.05-3.85-5.25-1.2-1.75q-3.75-5.5-6.55-10.3-2.1-3.75-3.6-7.05L8.05 39 6.8 35.9q-.8-2.3-1.25-4.3L2 15.95l-.05-.35Q-.5 3.4.6.85m36.35 30.6 4.9 2.45M57 50.05l.6-1.4.8-2.15" fill="none" stroke="#52371d" stroke-linecap="round" stroke-linejoin="round" stroke-opacity=".502" stroke-width=".5"/></g></defs></svg>