<svg viewBox="0 0 118.95 92.767" xmlns="http://www.w3.org/2000/svg" xmlns:xlink="http://www.w3.org/1999/xlink"><g transform="translate(-233.18 -182.01)"><use transform="matrix(.3618 -.0871 .0871 .3618 304.76 193.95)" width="64.25" height="47.85" xlink:href="#a"/><use transform="translate(233.2 208.7)" width="75.2" height="66.05" xlink:href="#b"/><use transform="translate(308.4 227.65)" width="43.7" height="37.15" xlink:href="#c"/><use transform="matrix(-.1878 0 0 .1878 272.78 182.01)" width="64.25" height="47.85" xlink:href="#a"/></g><defs><g id="a"><path d="m5.3-23.9.1.05 7.25 6.9-.95-.05-5.95-5.8 2.85 7.9 7.75.2-.9-3.55 9.3 5.85-4.6-.2L24.1 3.7l8.05.6-11.1 7.35-.75-3.9-13.55-1.7L-.2 15.5l12.5 5.7-1.4.4-13.4-6.15 5.15-10-10.15-1.2-9.4 6.05 12.35 12.45-2.1 1.1L-18.9 10.4-9.5 4l-9.8-1.25-10.5 4.2 4.9 16.7-1.8.3-5.4-18.35 10.75-3.1-2.1-.25q-4.7-10.1 2.5-18.05l6.2.15-2.6-7.7 1.45-.1 5.75 4.6-1.25.25-4.2-3.55 2.35 6.55 8.85.3-2.5-7.9.85-.1.05.05 7 5.35H-.25l-5.35-4.45 2.9 7.1 9.65.3L4.9-23.9h.4m9.25 13.8L9.4-11.7l.25 2.15 5.05.3-.15-.85M5.1-1.8 16.05-2l-.3-1.05L3.7-5.6l1.4 3.8" fill="#503828" fill-rule="evenodd" transform="translate(32.1 23.9)"/><path d="M5.1-1.8 3.7-5.6l12.05 2.55.3 1.05-10.95.2m9.45-8.3.15.85-5.05-.3-.25-2.15 5.15 1.6" fill="#b02810" fill-rule="evenodd" transform="translate(32.1 23.9)"/><path d="M37.5.05 37.45 0h-.05l.1.05 7.25 6.9-.95-.05-5.95-5.8L40.7 9l7.75.2-.9-3.55 9.3 5.85-4.6-.2 3.95 16.3 8.05.6-11.1 7.35-.75-3.9-13.55-1.7-6.95 9.45 12.5 5.7-1.4.4-13.4-6.15 5.15-10-10.15-1.2-9.4 6.05 12.35 12.45-2.1 1.1L13.2 34.3l9.4-6.4-9.8-1.25-10.5 4.2 4.9 16.7-1.8.3L0 29.5l10.75-3.1-2.1-.25q-4.7-10.1 2.5-18.05l6.2.15-2.6-7.7 1.45-.1 5.75 4.6-1.25.25-4.2-3.55 2.35 6.55 8.85.3L25.2.7l.85-.1h.05v.05l7 5.35h-1.25L26.5 1.55l2.9 7.1 9.65.3L37 0h.4m9.25 13.8-5.15-1.6.25 2.15 5.05.3-.15-.85m-9.45 8.3 10.95-.2-.3-1.05L35.8 18.3l1.4 3.8M26.1.65 26.05.6" fill="none" stroke="#000" stroke-linecap="round" stroke-linejoin="round" stroke-opacity=".302" stroke-width=".05"/></g><g id="b"><path d="m252.2 216.35 1.1-.4 6.8 13.45 8.9-6-4.65-11.5-.55 8.3-1.65.5 1-11.3 1.7-.7 5.65 13.7 6.2-4.15q13.9 6.85 16.95 21.4L292 241.1l11.05-2.45 5.35 19.45-1.4.55-5.1-17.4-11.55 1.25-7.55 6.55 12.25 1.25-1.35 17.2-2.2.1 1.95-16.4-12.2-.85-7.8 6.75 11.75 5.95-6.2 11.3-1.3.4 5.75-10.5-13.1-4.45-10.2 8.85 2.9 3.5-16.7.3 6.6-5.1-15.25-18.85-4.5 3.2 1.85-13.35 3.9 5.2 7.9-5.3-7.45-13.05 1.45 12.3-.85.7-1.65-14.9v-.1l.5-.3 9.75 14.2 9.75-6.55-5.45-12.4-.25 10.35-1.3.75.8-12.8.05-.1m12.5 34.95-2.3-4.85-8.95 9.8.95 1.3 10.3-6.25m-12.45-5.8-2.25-2.7-3.35 5.1.9 1 4.7-3.4" fill="#644633" fill-rule="evenodd" transform="translate(-233.2 -208.7)"/><path d="m264.7 251.3-10.3 6.25-.95-1.3 8.95-9.8 2.3 4.85m-12.45-5.8-4.7 3.4-.9-1 3.35-5.1 2.25 2.7" fill="#dd3315" fill-rule="evenodd" transform="translate(-233.2 -208.7)"/><path d="m19 7.65 1.1-.4 6.8 13.45 8.9-6-4.65-11.5-.55 8.3-1.65.5 1-11.3 1.7-.7 5.65 13.7 6.2-4.15q13.9 6.85 16.95 21.4L58.8 32.4l11.05-2.45L75.2 49.4l-1.4.55-5.1-17.4-11.55 1.25-7.55 6.55 12.25 1.25-1.35 17.2-2.2.1 1.95-16.4-12.2-.85-7.8 6.75L52 54.35l-6.2 11.3-1.3.4 5.75-10.5-13.1-4.45-10.2 8.85 2.9 3.5-16.7.3 6.6-5.1L4.5 39.8 0 43l1.85-13.35 3.9 5.2 7.9-5.3L6.2 16.5l1.45 12.3-.85.7-1.65-14.9-.05-.05.05-.05.5-.3 9.75 14.2 9.75-6.55-5.45-12.4-.25 10.35-1.3.75.8-12.8V7.7l.05-.05-.05.1M31.5 42.6l-10.3 6.25-.95-1.3 8.95-9.8 2.3 4.85m-26.35-28v-.1m13.9 22.3-4.7 3.4-.9-1 3.35-5.1 2.25 2.7" fill="none" stroke="#000" stroke-linecap="round" stroke-linejoin="round" stroke-opacity=".302" stroke-width=".05"/></g><g id="c"><path d="m15.9-12.1-.55-.4L9.2-6.75 5.65-11.6l4.7-5.2-1.3 4.5.75.55 1.7-6.15-.75-.65-5.7 6.1-2.45-3.4q-8.6.85-13.05 8l.55 1.05-5.3-3.45-6.65 9.2.65.55 6.1-8.2 5.8 2.95L-6.6-.8l-6.7-1.75-2.65 9.3 1.15.5 2.2-9.05L-6.05.15l2.8 5.05-7.3.85 1.05 7.2.55.45L-9.9 7l7.75.25L1.5 13.9l-2.2 1.3L8 18.6l-2.45-4L17.2 7.7l1.8 2.5 1.6-7.35q-1.5.95-3.05 2L14.4.5l6.5-5.45-3.2 6.2.35.55 3.8-7.55v-.05l-.25-.25-7.85 5.6-3.9-5.35 5.3-5.5-1.9 5.5.55.65 2.05-6.9.05-.05M2.5 3.85l2.1-2.1 2.85 6.9-.75.55-4.2-5.35m7.65-.6 1.75-.95.75 3.3-.65.35-1.85-2.7" fill="#322319" fill-rule="evenodd" transform="translate(21.85 18.55)"/><path d="M2.5 3.85 6.7 9.2l.75-.55-2.85-6.9-2.1 2.1m7.65-.6L12 5.95l.65-.35-.75-3.3-1.75.95" fill="#6e190a" fill-rule="evenodd" transform="translate(21.85 18.55)"/><path d="m37.75 6.45-.55-.4-6.15 5.75-3.55-4.85 4.7-5.2-1.3 4.5.75.55 1.7-6.15L32.6 0l-5.7 6.1-2.45-3.4q-8.6.85-13.05 8l.55 1.05-5.3-3.45L0 17.5l.65.55 6.1-8.2 5.8 2.95 2.7 4.95L8.55 16 5.9 25.3l1.15.5 2.2-9.05 6.55 1.95 2.8 5.05-7.3.85 1.05 7.2.55.45-.95-6.7 7.75.25 3.65 6.65-2.2 1.3 8.7 3.4-2.45-4 11.65-6.9 1.8 2.5 1.6-7.35q-1.5.95-3.05 2l-3.15-4.35 6.5-5.45-3.2 6.2.35.55 3.8-7.55v-.05l-.25-.25-7.85 5.6-3.9-5.35 5.3-5.5-1.9 5.5.55.65 2.05-6.9h.05v-.05l-.05.05M24.35 22.4l4.2 5.35.75-.55-2.85-6.9-2.1 2.1m19.35-9.6v-.05M32 21.8l1.85 2.7.65-.35-.75-3.3-1.75.95" fill="none" stroke="#000" stroke-linecap="round" stroke-linejoin="round" stroke-opacity=".302" stroke-width=".05"/></g></defs></svg>