<svg viewBox="0 0 283.18 299.47" xmlns="http://www.w3.org/2000/svg" xmlns:xlink="http://www.w3.org/1999/xlink"><use transform="translate(.02 .031)" width="283.15" height="299.4" xlink:href="#a"/><defs><g id="a"><path d="m374.05 88.55 2.1 1.4q2.7 1.35 6.75 2l4.65.4q-2.3 39.45 1.5 80l-.45-.1.45.1-.4.1q4.1 24 18.4 35.65l1.9 7.25q-34.55 21.4-71.55 32.7l-.05-3.15q-.95-26.6-20.65-48.3l.7-.05-.7.05q19.7 21.7 20.65 48.3l.05 3.15q-1 .25.05 0-21.5 6.35-41.7 9.35-51.85 7.75-90.85-4.4-17.7-5.55-28.2-14.25-10.65-8.85-12-19.4-1.45-11.05 7.7-22.35 9.85-12.1 31-23.1 11.4-5.9 29.45-7.25l1.65-.1q-40.6 31.25 81.8 29.6l.4.45-.4-.45 1.1.4q51.85-2.5 33.45-12.65 7.6 1.85 9.65 1.35 14.7-3.65 19.4-21.85 1.5-5.85 2-13.15 1.6-24.05-7.85-61.7m7.3 82.25 1.05-3.15q2.5 3.25 5.75 4.45l.45.15.05.2-.05-.2-.45-.15q-3.25-1.2-5.75-4.45l-1.05 3.15m2.4-7.2-1.35 4.05q-1.35-1.85-2.5-4.25 1.15 2.4 2.5 4.25l1.35-4.05M257.4 201.4q-5.6.2-11.05 1.35l2.7 7-2.7-7q5.45-1.15 11.05-1.35m-12.55-2.5 1.5 3.85q-8.65 1.75-16.9 5.8l-4.65-5.5 4.65 5.5q8.25-4.05 16.9-5.8l-1.5-3.85m-26.75 21.7-3.25-2.95-5.1-4.55 5.1 4.55q7.15-5.5 14.6-9.1-7.45 3.6-14.6 9.1l3.25 2.95m15.9-6.7-4.55-5.35 4.55 5.35m-19.15 3.75q-7.3 5.55-14.3 13 7-7.45 14.3-13" fill="#d13232" fill-rule="evenodd" transform="translate(-129.9 -43.45)"/><path d="M373.6 87.45q.25-1.2 3.2-1.6l7.05.3q4.05.65 6.75 1.95 2.7 1.35 2.55 2.55-.15.8-.15.35-2.1 1.1-3.05 1.2l-2.4.15-4.65-.4q-4.05-.65-6.75-2l-2.1-1.4-.45-1.1m-36.2 160.6q37-11.3 71.55-32.7l2.6 10.05q2 7.45 1.3 12.9-.4 3.15-2.15 8.2-40.25 35.75-90.85 45.9l.4-.5.1-.15q15.25-20.5 17.1-43.7-1.85 23.2-17.1 43.7l-.1.15-.4.5-.45-.15-.4-.15.7-.15-.3.3.3-.3-.7.15q-54.65 13.9-106.5 1.5l.8-4.6-1.25-1.55q-1.15-.85-2.7.25l-1.6 4.85-18-6.7 6.55-10q-.35-1.5-1.05-2.5l-.05-.05q-1.25-1.65-3.5-2l-9.4 12.55Q151.75 273.1 131.7 248q-1.8-5.75-1.8-11.9 0-28.95 40-49.45 15.5-7.9 33.5-12.75-21.15 11-31 23.1-9.15 11.3-7.7 22.35 1.35 10.55 12 19.4 10.5 8.7 28.2 14.25 39 12.15 90.85 4.4 20.2-3 41.7-9.35-1.05.25-.05 0m-17.15 43.85h-.15l-.4.05q.75-.95.4-.05.35-.9-.4.05l.4-.05h.15m-.15 0-.25.5.25-.5" fill="#a52525" fill-rule="evenodd" transform="translate(-129.9 -43.45)"/><path d="m203.05 306.75 2.6-7.85 2.1-6.35 1.6-4.85q1.55-1.1 2.7-.25l-3.75 18.85q-.85-.4-2.15-.65-2.45-.45-3.1 1.1m-35.6-3.1 10.7-14.25 4.15-5.55 9.4-12.55q2.25.35 3.5 2l.05.05-21.8 30.9-.95-.65q-3.35-2-5.05.05" fill="#425e88" fill-rule="evenodd" transform="translate(-129.9 -43.45)"/><path d="m211.35 300.25-1.4 8.05v.1q-1.15 1.8-4.6.85-2.3-.65-2.35-2.4l.05-.1q.65-1.55 3.1-1.1 1.3.25 2.15.65l3.75-18.85 1.25 1.55-.8 4.6-1.15 6.65m-25.95-7.85-10.2 15.45v.05q-1.75 2.1-5.05.3t-2.7-4.55q1.7-2.05 5.05-.05l.95.65-.4.5.4-.5q2.25 1.65 1.75 3.6.5-1.95-1.75-3.6l21.8-30.9q.7 1 1.05 2.5l-6.55 10-1.05-.4 1.05.4-4.35 6.55m24.55 15.9q-.25-1.25-1.55-1.95 1.3.7 1.55 1.95m-1.55-1.95-.1-.05.1.05" fill="#2c3e58" fill-rule="evenodd" transform="translate(-129.9 -43.45)"/><path d="M393 91q-5.95 22.7.3 57.85 1.6 8.9 4.75 22.75 3.5 15.25 9 36.5-14.3-11.65-18.4-35.65l.4-.1 3.55.4 1.8 4.55-1.8-4.55-3.55-.4q-3.8-40.55-1.5-80l2.4-.15q.95-.1 3.05-1.2m-158.5 75.55q7.6-.35 32.1-.35l9.8.5q19.1 1.7 47.95 9.75l23.35 6.65 3.15.8q18.4 10.15-33.45 12.65l-1.1-.4q-122.4 1.65-81.8-29.6m163.55 5.05q-2.9 1.05-5.45 1.15l-1.3-3.35 1.3 3.35q2.55-.1 5.45-1.15m-121.65-4.9q25.1 13.35 39.9 29.45-14.8-16.1-39.9-29.45" fill="#d26231" fill-rule="evenodd" transform="translate(-129.9 -43.45)"/><path d="m410.7 246.5-1.85 4.7q-6.75 16.45-43.85 34.5-25.4 12.35-56.35 17.2-19.9 3.1-42.05 3.1-29.95 0-55.25-5.75l1.15-6.65q51.85 12.4 106.5-1.5l.4.15.45.15q50.6-10.15 90.85-45.9m-205.05 52.4q-10.55-2.75-20.25-6.5l4.35-6.55 18 6.7-2.1 6.35m-27.5-9.5-8.25-3.9q-31.5-16.1-38.2-37.5 20.05 25.1 50.6 35.85l-4.15 5.55m130.5 13.5q6-5.05 10.75-10.65-4.75 5.6-10.75 10.65" fill="#731a1a" fill-rule="evenodd" transform="translate(-129.9 -43.45)"/><path d="m277.15 164.65 1.05 2.05m-90.7-13.6-.7.05q19.7 21.7 20.65 48.3l.05 3.15m51.25-75.6-.05-.2-.45-.15q-3.25-1.2-5.75-4.45l-1.05 3.15m9.95-1.4 1.3 3.35q2.55-.1 5.45-1.15m-9 .75 3.55.4 1.8 4.55m-5.8-5.05.45.1m-9.15-8.95q1.15 2.4 2.5 4.25l1.35-4.05M186.4 152.7q-14.8-16.1-39.9-29.45m39.9 29.45.4.45m-.4-.45 1.1.4m-92.6 6.5 4.65 5.5q8.25-4.05 16.9-5.8l-1.5-3.85m4.2 10.85-2.7-7q5.45-1.15 11.05-1.35m80.05 46.65q-1.85 23.2-17.1 43.7l-.1.15-.4.5.25-.5q.35-.9-.4.05l.4-.05h.15m-1.25.2.4.15.3-.3-.7.15m.4.15.45.15m-90.4-83.85 4.55 5.35m-24.25-.8 5.1 4.55q7.15-5.5 14.6-9.1m-14.6 9.1 3.25 2.95m-22.9 52.7.05.05m-5.5 12.5-1.05-.4m11.85-54.8q7-7.45 14.3-13m-6.55 88.65.1.05m-35.35-1.6.4-.5m145.95-12q-4.75 5.6-10.75 10.65" fill="none" stroke="#000" stroke-linecap="round" stroke-linejoin="round" stroke-opacity=".302" stroke-width=".05"/><path d="M243.7 44q.25-1.2 3.2-1.6l7.05.3q4.05.65 6.75 1.95 2.7 1.35 2.55 2.55-.15.8-.15.35-5.95 22.7.3 57.85 1.6 8.9 4.75 22.75 3.5 15.25 9 36.5m-33-119.55q-.55-.55-.45-1.1l.45 1.1 2.1 1.4q2.7 1.35 6.75 2l4.65.4 2.4-.15q.95-.1 3.05-1.2m-42.15 92.9q7.6 1.85 9.65 1.35 14.7-3.65 19.4-21.85 1.5-5.85 2-13.15 1.6-24.05-7.85-61.7m-139.55 78q7.6-.35 32.1-.35l9.8.5q19.1 1.7 47.95 9.75l23.35 6.65 3.15.8m58.1 31.45-1.9-7.25m1.9 7.25 2.6 10.05q2 7.45 1.3 12.9-.4 3.15-2.15 8.2l-1.85 4.7q-6.75 16.45-43.85 34.5-25.4 12.35-56.35 17.2-19.9 3.1-42.05 3.1-29.95 0-55.25-5.75l-1.4 8.05v.1q-1.15 1.8-4.6.85-2.3-.65-2.35-2.4l.05-.1 2.6-7.85q-10.55-2.75-20.25-6.5L45.3 264.4v.05q-1.75 2.1-5.05.3t-2.7-4.55l10.7-14.25-8.25-3.9q-31.5-16.1-38.2-37.5Q0 198.8 0 192.65q0-28.95 40-49.45 15.5-7.9 33.5-12.75 11.4-5.9 29.45-7.25l1.65-.1m-22 127.05-1.15 6.65m-16.1-26.9q.7 1 1.05 2.5l-6.55 10-4.35 6.55m22.35.15 1.6-4.85q1.55-1.1 2.7-.25l1.25 1.55-.8 4.6m-30.2-9.75-4.15 5.55m17.05-16.1q-1.25-1.65-3.5-2l-9.4 12.55m20.75 22.9q.65-1.55 3.1-1.1 1.3.25 2.15.65m.1.05q1.3.7 1.55 1.95m-36.5-4.05-.95-.65q-3.35-2-5.05.05m6 .6q2.25 1.65 1.75 3.6m32.55-15.3-2.1 6.35" fill="none" stroke="#423213" stroke-linecap="round" stroke-linejoin="round" stroke-opacity=".502" stroke-width=".05"/><path d="M154.95 342.3q-2.8-.8-4.5-2.6-1.8-1.9-1.55-4 1.45-11.7 20.35-20.6 1.25 8.8.8 13.2-.7 6.75-4.15 10.95-4.2 5.05-10.95 3.05" fill="#a52525" fill-rule="evenodd" transform="translate(-129.9 -43.45)"/><path d="M25.05 298.85q6.75 2 10.95-3.05 3.45-4.2 4.15-10.95.45-4.4-.8-13.2-18.9 8.9-20.35 20.6-.25 2.1 1.55 4 1.7 1.8 4.5 2.6z" fill="none" stroke="#000" stroke-linecap="round" stroke-linejoin="round" stroke-opacity=".302" stroke-width=".05"/><path d="M201.65 326.2q-1.05-.15-1.8-.75-.7-.6-.7-1.4-.05-4.4 6.5-8.5.9 3.15.9 4.85.05 2.45-1 4.15-1.35 2.05-3.9 1.65" fill="#a52525" fill-rule="evenodd" transform="translate(-129.9 -43.45)"/><path d="M71.75 282.75q2.55.4 3.9-1.65 1.05-1.7 1-4.15 0-1.7-.9-4.85-6.55 4.1-6.5 8.5 0 .8.7 1.4.75.6 1.8.75z" fill="none" stroke="#000" stroke-linecap="round" stroke-linejoin="round" stroke-opacity=".302" stroke-width=".05"/><path d="M364.35 45q2.5-1.5 5-1.55 2.6-.1 3.95 1.55 7.65 8.9 1.5 28.85-7.3-5-10.25-8.3-4.55-5.1-5.3-10.45-.9-6.45 5.1-10.1" fill="#a52525" fill-rule="evenodd" transform="translate(-129.9 -43.45)"/><path d="M234.45 1.55q-6 3.65-5.1 10.1.75 5.35 5.3 10.45 2.95 3.3 10.25 8.3 6.15-19.95-1.5-28.85Q242.05-.1 239.45 0q-2.5.05-5 1.55z" fill="none" stroke="#000" stroke-linecap="round" stroke-linejoin="round" stroke-opacity=".302" stroke-width=".05"/><path d="M401.1 68.45q1.05.55 1.45 1.45.55.85.25 1.65-1.65 4.3-9.65 5.9.3-3.45.9-5.1.9-2.5 2.6-3.8l4.45-.1" fill="#a52525" fill-rule="evenodd" transform="translate(-129.9 -43.45)"/><path d="m271.2 25-4.45.1q-1.7 1.3-2.6 3.8-.6 1.65-.9 5.1 8-1.6 9.65-5.9.3-.8-.25-1.65-.4-.9-1.45-1.45z" fill="none" stroke="#000" stroke-linecap="round" stroke-linejoin="round" stroke-opacity=".302" stroke-width=".05"/></g></defs></svg>