<svg viewBox="0 0 44.724 38.751" xmlns="http://www.w3.org/2000/svg" xmlns:xlink="http://www.w3.org/1999/xlink"><use transform="translate(.02 .03)" width="44.65" height="38.7" xlink:href="#a"/><defs><g id="a"><path d="M330.6 224.55q3.35 4.65 0 10.25-5.15 8.85-19.8 9.4-13.8-7.1-20.6-14.2l-.3-3.15 5.05-.05 4.15 3.7q4.35 3.2 10.75 6.05l7.7-.65q2.45-.55 4.5-1.45 6.5-2.9 8.55-9.9m-8.2 11.1-.35-1.2.35 1.2m-4.45 1.75-.4-1.5.4 1.5" fill="#4f2d0b" fill-rule="evenodd" transform="translate(-287.6 -205.5)"/><path d="m308.25 210.2.05-1.45-.05 1.45-2.65-.6-1.55-.15q-4 .05-8.55 2.3-2.55 1.9-4.2 5.25v3.7l-1.75.25-.35-6 2.5-4.3 5.95-3.7 6.4-.9 6 1.4 1.95 1.7-1.65 1.9q-.95-.55-2.1-.85m-2.8-1.8.15 1.2-.15-1.2m-.15 7.5h.05l1.75 1.35 3.3 2.65-2.15 2.4-1.55 5.95-7.6 2.25-4.15-3.7h10.35v-10.9m17.8 3.9-7.95.4 2.95-2.15q2.5.6 5 1.75" fill="#59330d" fill-rule="evenodd" transform="translate(-287.6 -205.5)"/><path d="M330.6 224.55q-2.05 7-8.55 9.9l-.3-.9.3.9q-2.05.9-4.5 1.45l-.35-1.3.35 1.3-7.7.65q-6.4-2.85-10.75-6.05l7.6-2.25 1.55-5.95 2.15-2.4 2.45 1.9 2.3-1.6 7.95-.4q3.75 1.7 7.5 4.75m-17.2-2.25-.5.05q-1.75.2-3.4 1.85.2 1.35 1.65 1.1 1.55-1.75 3.85-2.05-.45-.7-1.6-.95m4.9 2.8q-.45-.7-1.6-.95l-.5.05q-1.75.2-3.4 1.85.2 1.35 1.65 1.1 1.55-1.75 3.85-2.05" fill="#6b3c0e" fill-rule="evenodd" transform="translate(-287.6 -205.5)"/><path d="m312 209.15-1.95-1.7-6-1.4-6.4.9-5.95 3.7-2.5 4.3.35 6 1.75-.25h.15l3.65-.45 4.9-.95 5.3-1.25v8.75h-10.35l-5.05.05-2.3-.05.2-5.6.1-.05.6-5.95q1.75-4.85 5.3-6.7 4.1-3.05 9.4-3 6.1.5 9.65 2.55l-.85 1.1m-22.45 11.8-1.65.2 1.65-.2m20.85-1.05-3.3-2.65 7.15-8.35 9.1 5.4-5.25 3.75-2.95 2.15-2.3 1.6-2.45-1.9m-.9 4.3q1.65-1.65 3.4-1.85l.5-.05q1.15.25 1.6.95-2.3.3-3.85 2.05-1.45.25-1.65-1.1m7.2-.05q1.15.25 1.6.95-2.3.3-3.85 2.05-1.45.25-1.65-1.1 1.65-1.65 3.4-1.85l.5-.05" fill="#a05a14" fill-rule="evenodd" transform="translate(-287.6 -205.5)"/><path d="m310.35 211.05 1.65-1.9.85-1.1.1.05 1.3.8-7.15 8.35-1.75-1.35q2.5-2.05 5-4.85m-5.05 4.85v2.15l-5.3 1.25q2.65-1.3 5.3-3.4" fill="#713f0f" fill-rule="evenodd" transform="translate(-287.6 -205.5)"/><path d="M308.25 210.2q1.15.3 2.1.85-2.5 2.8-5 4.85h-.05q-2.65 2.1-5.3 3.4l-4.9.95-3.65.45h-.15V217q1.65-3.35 4.2-5.25 4.55-2.25 8.55-2.3l1.55.15 2.65.6-.05.8.05-.8m-2.45.95-.2-1.55.2 1.55" fill="#41250a" fill-rule="evenodd" transform="translate(-287.6 -205.5)"/><path d="m2.3 21.35.3 3.15q6.8 7.1 20.6 14.2 14.65-.55 19.8-9.4 3.35-5.6 0-10.25-2.05 7-8.55 9.9l.35 1.2M20.7 3.25l-.05 1.45-.05.8m2.15.05 1.65-1.9M1.95 15.45l1.75-.25M18 4.1l-.15-1.2M18 4.1l.2 1.55m7.05-3.1-.85 1.1m2.25-.25-1.3-.8-.1-.05Q21.7.5 15.6 0q-5.3-.05-9.4 3Q2.65 4.85.9 9.7l-.6 5.95 1.65-.2m15.75-2.9v8.75m-10.35 0L11.5 25m11.3-10.6-3.3-2.65-1.75-1.35q2.5-2.05 5-4.85M25.8 16.8q1.15.25 1.6.95m-3.85 2.05q-1.45.25-1.65-1.1m3.35-2.4-2.45-1.9m12.7-.1q-2.5-1.15-5-1.75l5.25-3.75-9.1-5.4M.3 15.65l-.1.05-.2 5.6 2.3.05m10.1-7.55-4.9.95-3.65.45H3.7m25.4 3.45q1.15.25 1.6.95m-3.85 2.05q-1.45.25-1.65-1.1m8.95 7.5.3.9q-2.05.9-4.5 1.45l.4 1.5m-.75-2.8.35 1.3-7.7.65Q15.85 28.2 11.5 25m6.2-14.6q-2.65 2.1-5.3 3.4M43 19.05Q39.25 16 35.5 14.3" fill="none" stroke="#000" stroke-linecap="round" stroke-linejoin="round" stroke-opacity=".302" stroke-width=".05"/><path d="M17.75 10.4h-.05m0 10.9H7.35m14.55-2.6q1.65-1.65 3.4-1.85l.5-.05m1.6.95q-2.3.3-3.85 2.05m6.95-7.25-2.95 2.15-2.3 1.6M2.3 21.35l5.05-.05m23.35-1.7q-2.3.3-3.85 2.05m-1.65-1.1q1.65-1.65 3.4-1.85l.5-.05" fill="none" stroke="#000" stroke-linecap="round" stroke-linejoin="round" stroke-opacity=".302" stroke-width=".05"/></g></defs></svg>