<svg viewBox="0 0 83.175 142.65" xmlns="http://www.w3.org/2000/svg" xmlns:xlink="http://www.w3.org/1999/xlink"><use transform="translate(0 .03)" width="83.15" height="142.6" xlink:href="#a"/><defs><g id="a"><path d="m232.3 193-3.55-.2-2.85.3q-2.85.5-5.65 1.85l-.65-1.45 7.95-2 6.1.4-1.35 1.1m39.05 1.95v-.05l.45-.05-.45.1m11.75 19v.05-.05" fill="#fff" fill-rule="evenodd" transform="translate(-219.6 -120.85)"/><path d="m257.95 245.8-15 6.45V241.4l14.35-6.55.35 3 .3 7.95m9.3 11.8-2.5 1.2-1.35-4.55 2.15-.85 1.7 4.2" fill="#dcdeb1" fill-rule="evenodd" transform="translate(-219.6 -120.85)"/><path d="m283.1 230.25.95 8.4-7.05 2.25-4.65-5.3-2.15 7.45-1.75.55.5-14.2 1.85-5.7 12.3 6.55m-40.15 11.15v-27.35l5.7.45 2.25 1.1.75.4 4.9 12.15.75 6.7-14.35 6.55m34.5 7.5-4.1 3.85-.65-6.25 4.75 2.4m-18.6 3.2-14.5 11.35-3.75-1.1 16.65-10.9 1.6.65" fill="#887e5e" fill-rule="evenodd" transform="translate(-219.6 -120.85)"/><path d="m251.4 194.45 2.1.55-.05.3q-2.8 1.8-2.65 4.25l.35 1.45q-2.6 2.95-5.4 1.2l-.45-1.2q-1.35-1.85-.2-3.7 2.75-2.9 6.3-2.85m5.85-9.55q-.9-1.35-1.15-3.3-.65-5.45.4-6.75l-.2-.25q-.85-4.95 0-6.95l-.45-.45q-.85-4.95 0-6.95l2.85 2.8.25.2.1.1 4.1 2.8 1.1 3.2-2.7 3 3.1 1.7 1.15 2.85-3.85 2.8q-2.85-1.9-5.45-4.85 2.6 2.95 5.45 4.85l1.9 1.15 2.3 1.05-4.15 6.8q-1.75-.35-2.7-1.3-1.4-1.3-2.05-2.5m-.5-13.45 1 1.3 1.4.85 1-.1q.3-.35.05-1l-1-1.3q-.75-.65-1.4-.85l-1 .1q-.3.3-.05 1m2.6-5 1-.1q.3-.35.05-1l-1-1.3-1.4-.85-1 .1q-.3.3-.05 1l1 1.3 1.4.85m2.2 5.9q-2.75-1.9-5.25-4.7 2.5 2.8 5.25 4.7m-4.4 5.45q-.3.3-.05 1 .3.65 1 1.3t1.4.85l1-.1q.3-.35.05-1-.3-.65-1-1.3l-1.4-.85-1 .1m18.45 22.75 3.4-1.2q.3 1.35-.3 2.65l-.3.55-1 1.45-4.55 6.4-.05.1-4-.65-1.95.5q-4.75 1.15-7.2-.35v-.45q4.15 1.35 9.65-.65-4.6-1.55-.85-3.25 2.1-.5 3.85-1.45 2.85-1.55 3.3-3.65" fill="#ed9c16" fill-rule="evenodd" transform="translate(-219.6 -120.85)"/><path d="m259.35 166.45-1.4-.85-1-1.3q-.25-.7.05-1l1-.1 1.4.85 1 1.3q.25.65-.05 1l-1 .1m-2.6 5q-.25-.7.05-1l1-.1q.65.2 1.4.85l1 1.3q.25.65-.05 1l-1 .1-1.4-.85-1-1.3m.4 6.35 1-.1 1.4.85q.7.65 1 1.3.25.65-.05 1l-1 .1q-.7-.2-1.4-.85t-1-1.3q-.25-.7.05-1" fill="#fbfa2f" fill-rule="evenodd" transform="translate(-219.6 -120.85)"/><path d="m227.05 128.35.3.1-.25.1-.05-.2" fill="#1d1417" fill-rule="evenodd" transform="translate(-219.6 -120.85)"/><path d="M254.25 187.95q.95-2.15 3-3.05.65 1.2 2.05 2.5.95.95 2.7 1.3l1.5.15q2.85.1 5.8-2.85 2 2.4 2.2 5.4-4.85 4.65-11.1 3.55-6.25-2.95-6.15-7m20.95 6.2 10.1-2.85-6.3 7.9-.85-1.9-2.95-3.15m20.4-.5 6.2 3.95v.2l-24.4 6.2 1-1.45.3-.55 16.6-5.35.3-3m-69.9 4.65v-.25l3.9-3 .95 2.35 15.65 5.6q.8 1.3 2.1 2.5-13.15-3.05-22.6-7.2m33.05-7.65q1-.4.85-1.25t-1-1.55-1.65-.65q-.85-.05-1.4.55-.55.55-.55 1.35t.55 1.4q.55.55 1.4.55l1.8-.4" fill="#3c5b28" fill-rule="evenodd" transform="translate(-219.6 -120.85)"/><path d="m232.3 193 1.35-1.1.2-.1 2.95-2.3 4.8 1.95 9.8 3q-3.55-.05-6.3 2.85-1.15 1.85.2 3.7l.45 1.2.45.8-15.65-5.6-.95-2.35 2.7-2.05m53-1.7 4.5-1.3 5.8 3.65-.3 3-16.6 5.35q.6-1.3.3-2.65v-.15l6.3-7.9" fill="#81a837" fill-rule="evenodd" transform="translate(-219.6 -120.85)"/><path d="M260.1 136.05q-3.15-.1-5.5-2l-.25-.25q-2.5-2.2-2.5-5.35t2.5-5.4q2.5-2.2 6.05-2.2t6.05 2.2q2.5 2.25 2.5 5.4t-2.5 5.35l-.75.6-1.65.95-.25.1-2.1.55-.65.05h-.95m2.45-11.55q-.85-.05-1.4.55-.55.55-.55 1.35t.55 1.4q.55.55 1.4.55l1.8-.4q1-.4.85-1.25t-1-1.55-1.65-.65" fill="#213216" fill-rule="evenodd" transform="translate(-219.6 -120.85)"/><path d="m255.85 160.25-.4-.45q-.85-4.95 0-6.95l-.4-.5q-1-5.75.3-7.45l-.6-.7-.15-.2q-1.3-7.6 1.3-8.2l-1.85-1.55-.05-.2q2.45 2 5.8 2h1.25q-.25.55-.1 1.5l5.8 4.35-.55 2.1.55 1.6q-9.65-5.85-7.35 1.1 1.65 2.8 7.95 3.85l-.1.4-.45 1.1-.15-.05-.8-.25.7.6.4 1q-8.05-3.6-6.15 2.85 4.1 2.95 6.9 3.2l-.35.95-.1.1h.1l.4 1.2q-7-3.95-8.1 1.6 5.1 3.05 8.5 3.5l-.4 1-.05.1h.1l.35 1q-1.35-.1-4.55 3.35l4.9 2.25-.4.8-3.45-1.2 3.45 1.2h.1l.75 2.65q-1.55-1.3-3.65 2l3.75 1.4-.35 1-.2.35h.3q.65 2.05.5 3.35-2.95 2.95-5.8 2.85l-1.5-.15 4.15-6.8-2.3-1.05-1.9-1.15 3.85-2.8-1.15-2.85-3.1-1.7 2.7-3-1.1-3.2-4.1-2.8-.1-.1-.25-.2-2.85-2.8m9.85-25.85h.05l.65 2.1-2.6-1.05.25-.1 1.65-.95m6.05 60.15 3.45-.4 2.95 3.15.85 1.9v.15l-3.4 1.2.1-1q-.2-2.8-3.9-4.7l-.05-.3M255.9 135.8l10.3 8.2-10.3-8.2m-.45 17.05q5.35 6 11.8 7.6-6.45-1.6-11.8-7.6m7.7 13.3q2.2 1.1 4.55 1.7-2.35-.6-4.55-1.7m5.35 16.5-2.35-.75 2.35.75m-2.65-30.9q-5.7-1.7-10.5-6.85 4.8 5.15 10.5 6.85m-8.05 66.5 8.75.4-2.1 23-2.55-1.4-1.5-11.8-2.6-10.2" fill="#a44f11" fill-rule="evenodd" transform="translate(-219.6 -120.85)"/><path d="m266.4 136.5.05.25q.65 2.7.3 5.15l-5.8-4.35q-.15-.95.1-1.5l.65-.05 2.1-.55 2.6 1.05m.35 9.1q.95 3 .6 4.95-6.3-1.05-7.95-3.85-2.3-6.95 7.35-1.1m.2 7.75q1.35 3.8.75 6.05-2.8-.25-6.9-3.2-1.9-6.45 6.15-2.85m.8 8.3q.9 3.15.4 5.1-3.4-.45-8.5-3.5 1.1-5.55 8.1-1.6m.4 7.2q1 3.5.35 5.6l-4.9-2.25q3.2-3.45 4.55-3.35m.8 9.05q.35 1.95.1 3.4l-3.75-1.4q2.1-3.3 3.65-2" fill="#ae784a" fill-rule="evenodd" transform="translate(-219.6 -120.85)"/><path d="M253.6 195q-.5-4.45.65-7.05-.1 4.05 6.15 7 6.25 1.1 11.1-3.55l-.25 3.05v.15l.1.3v.05l.1.5-.1-.5.45-.1q3.7 1.9 3.9 4.7l-.1 1-4.85 1.7-5.05-.35-2.95.2q-2.9 0-5.2-.8l-1.55-.65q-2.9-1.5-3-3.6-.1-.95.45-1.75l.4-.25-.2-.05h-.05m18.35 2.65q-.25 1.7-2.55 3-1.65.85-3.7 1.25 2.05-.4 3.7-1.25 2.3-1.3 2.55-3l.05-.6q-.05-.85-.55-1.6l.5 2.2" fill="#0b1007" fill-rule="evenodd" transform="translate(-219.6 -120.85)"/><path d="m251.15 201-.35-1.45q-.15-2.45 2.65-4.25-.55.8-.45 1.75.1 2.1 3 3.6l1.55.65q2.3.8 5.2.8l2.95-.2 5.05.35 4.85-1.7q-.45 2.1-3.3 3.65-1.75.95-3.85 1.45l-4.85.5q-4.1 0-7.3-1.25l-1.6-.7-.9-.5q-1.95-1.25-2.65-2.7" fill="#345023" fill-rule="evenodd" transform="translate(-219.6 -120.85)"/><path d="m301.85 198.45.9 15.95-1 15.75-9.4-2.6L283.1 214v-.05l-7.8 2.9q-3.25-3.2-2.5-6.35l.05-.1 4.55-6.4 24.4-6.2.05.65m-58.9 15.6-2.75-.2-2.45-.25q-1.15 2.4-1.6 3.75l-3.6 10.15-1.05 2.95-6.15-5.05 1.15-12.7-.8-14.4q9.45 4.15 22.6 7.2l.65.55.6.4 1.15.85q1.7 1.4 2.05 2.5l.3 1.9v.75l-.5 2.15-.65.4-1 .6-2.25-1.1-5.7-2.85 5.7 2.85-5.7-.45m44.8-1.8-4.65 1.7 4.65-1.7m-54.45.9 4.45.45-4.45-.45" fill="#121e0d" fill-rule="evenodd" transform="translate(-219.6 -120.85)"/><path d="M264.3 243.6h-2l-.4-3.35 2.55 1.4-.15 1.95m-4.65-34.05v.45q2.45 1.5 7.2.35l1.95-.5 4 .65q-.75 3.15 2.5 6.35l-2.65 1-6.1.8-8.75-.4-2.45-.4-3.7-1.85-.75-.4 1-.6.65-.4.5-2.15.95-1.7q.05-2.05 5.65-1.2m-5.85-5.85.9.5 1.6.7q3.3 2.85.3 3.05l-4.35-.2q-1.35-.4-.45-1.1l1.15-.95q1.5-.75.85-2" fill="#c87812" fill-rule="evenodd" transform="translate(-219.6 -120.85)"/><path d="M245.75 202.2q2.8 1.75 5.4-1.2.7 1.45 2.65 2.7.65 1.25-.85 2l-1.15.95q-.9.7.45 1.1l4.35.2q3-.2-.3-3.05 3.2 1.25 7.3 1.25l4.85-.5q-3.75 1.7.85 3.25-5.5 2-9.65.65-5.6-.85-5.65 1.2l-.95 1.7v-.75l-.3-1.9q-.35-1.1-2.05-2.5l-1.15-.85-.6-.4-.65-.55q-1.3-1.2-2.1-2.5l-.45-.8" fill="#fff14f" fill-rule="evenodd" transform="translate(-219.6 -120.85)"/><path d="m268.45 243.6-.15 2.15-3.85-4.1 2.1-23 6.1-.8-1.85 5.85-1.85 5.7-.5 14.2m-16.8-27.6 3.7 1.85 2.45.4 2.6 10.2 1.5 11.8-4.25-2.4-.35-3-.75-6.7-4.9-12.15" fill="#e6bf68" fill-rule="evenodd" transform="translate(-219.6 -120.85)"/><path d="M283.1 214v16.25l-12.3-6.55 1.85-5.85 2.65-1 7.8-2.9v.05" fill="#585745" fill-rule="evenodd" transform="translate(-219.6 -120.85)"/><path d="m268.3 245.75-4-2.15.15-1.95 3.85 4.1m-6-2.15-4.35 2.2-.3-7.95 4.25 2.4.4 3.35" fill="#ffffec" fill-rule="evenodd" transform="translate(-219.6 -120.85)"/><path d="M262.55 124.5q.8-.05 1.65.65t1 1.55-.85 1.25l-1.8.4q-.85 0-1.4-.55-.55-.6-.55-1.4t.55-1.35q.55-.6 1.4-.55" fill="#bde030" fill-opacity=".412" fill-rule="evenodd" transform="translate(-219.6 -120.85)"/><path d="m258.75 190.65-1.8.4q-.85 0-1.4-.55-.55-.6-.55-1.4t.55-1.35q.55-.6 1.4-.55.8-.05 1.65.65t1 1.55-.85 1.25" fill="#bde030" fill-rule="evenodd" transform="translate(-219.6 -120.85)"/><path d="M40.5 15.2q-3.15-.1-5.5-2l-.25-.25q-2.5-2.2-2.5-5.35t2.5-5.4Q37.25 0 40.8 0t6.05 2.2q2.5 2.25 2.5 5.4t-2.5 5.35l-.75.6-1.65.95-.25.1-2.1.55-.65.05h-.95m7.15 121.55-1.7-4.2-2.15.85 1.35 4.55 2.5-1.2m10.2-8.7-4.75-2.4.65 6.25 4.1-3.85m-18.6 3.2-14.5 11.35-3.75-1.1 16.65-10.9 1.6.65" fill="none" stroke="#000" stroke-linecap="round" stroke-linejoin="round" stroke-opacity=".302" stroke-width=".05"/><path d="m12.7 72.15 1.35-1.1m.2-.1 2.95-2.3L22 70.6l9.8 3 2.1.55h.1q-.5-4.45.65-7.05.95-2.15 3-3.05-.9-1.35-1.15-3.3-.65-5.45.4-6.75l-.2-.25q-.85-4.95 0-6.95l-.45-.45q-.85-4.95 0-6.95l-.4-.45Q35 34 35.85 32l-.4-.5q-1-5.75.3-7.45l-.6-.7-.15-.2q-1.3-7.6 1.3-8.2l-1.85-1.55-.05-.2m11.75.35.65 2.1.05.25q.65 2.7.3 5.15l-.55 2.1.55 1.6q.95 3 .6 4.95l-.1.4-.45 1.1-.15-.05-.8-.25.7.6.4 1q1.35 3.8.75 6.05l-.35.95v.1l.4 1.2q.9 3.15.4 5.1l-.4 1 .05.1.35 1q1 3.5.35 5.6l-.35.7.05.1.75 2.65q.35 1.95.1 3.4l-.35 1 .1.35q.65 2.05.5 3.35 2 2.4 2.2 5.4l-.25 3.05v.15h.05l.45-.05 3.45-.4 10.1-2.85 4.5-1.3L76 72.8l6.2 3.95v.2l.05.65m.9 15.95-1 15.75-9.4-2.6-9.25-13.55v-.05l4.65-1.7M20.6 93l-2.45-.25q-1.15 2.4-1.6 3.75l-3.6 10.15m33.65-83.5-10.3-8.2M47.65 39.6Q41.2 38 35.85 32m11.8 7.6.1-.1m.35 7.5.05-.1m-.05.1q-2.35-.6-4.55-1.7m-1.6 6.2 3.1 1.7 3.45 1.2.05-.1m-9.1-11.8 4.1 2.8m-7.3-5.9 2.85 2.8.25.2m-2.65 4.4q2.5 2.8 5.25 4.7M36.9 54q2.6 2.95 5.45 4.85l1.9 1.15 2.3 1.05 2.35.75.2-.35M31.8 73.6q-3.55-.05-6.3 2.85-1.15 1.85.2 3.7l.45 1.2m5.4-1.2-.35-1.45q-.15-2.45 2.65-4.25l.05-.05-.05.05.4-.25-.2-.05H34l-.1.25.15-.25m8.35-6.3q-1.75-.35-2.7-1.3-1.4-1.3-2.05-2.5m-3 3.05q-.1 4.05 6.15 7 6.25 1.1 11.1-3.55m-18.05 3.9q-.55.8-.45 1.75.1 2.1 3 3.6l1.55.65q2.3.8 5.2.8l2.95-.2q2.05-.4 3.7-1.25 2.3-1.3 2.55-3l-.5-2.2-.1-.5v-.05l-.1-.3m.55.25-.5-.25m.5.25q3.7 1.9 3.9 4.7l-.1 1m3.4-1.2v-.15l-.85-1.9-2.95-3.15m-3.75 1.3q.5.75.55 1.6l-.05.6M49.7 65.15Q46.75 68.1 43.9 68l-1.5-.15m-6.65-43.8q4.8 5.15 10.5 6.85M59.1 81.15q.6-1.3.3-2.65m-1.6 4.65 1-1.45.3-.55M48.85 84.8q2.1-.5 3.85-1.45 2.85-1.55 3.3-3.65m-2.8 9.95.05-.1 4.55-6.4m-21.1.9q3.2 1.25 7.3 1.25l4.85-.5m-1.9 13 6.1-.8 2.65-1q-3.25-3.2-2.5-6.35m10.3 3.45L55.7 96M34.2 82.85l.9.5 1.6.7m-2.5-1.2q-1.95-1.25-2.65-2.7m-4.95 2-.45-.8m7.3 10.25v-.75l-.3-1.9q-.35-1.1-2.05-2.5l-1.15-.85-.6-.4-.65-.55q-1.3-1.2-2.1-2.5m5.7 12 .65-.4.5-2.15m-2.15 3.15.75.4 3.7 1.85 2.45.4 8.75.4m-17.9-4.15 2.25 1.1m-13.15-2-4.45-.45m15.35 1.35-5.7-2.85m0 2.4 5.7.45" fill="none" stroke="#2d1f0f" stroke-linecap="round" stroke-linejoin="round" stroke-opacity=".431" stroke-width=".05"/><path d="m82.2 76.75.05.85.9 15.95M47.75 39.6h-.1m.55 7.4h-.1M33.85 74.45l.05-.3m.15 0H34M48.6 54.4h-.1m.7 7.4h-.3M52.2 74l-.45.05m.4-.35.05.3" fill="none" stroke="#352100" stroke-linecap="round" stroke-linejoin="round" stroke-width=".05"/><path d="M63.5 93.15v16.25" fill="none" stroke="#2d1f0f" stroke-linecap="round" stroke-linejoin="round" stroke-opacity=".431" stroke-width=".05"/></g></defs></svg>