<svg viewBox="0 0 103.8 72.15" xmlns="http://www.w3.org/2000/svg" xmlns:xlink="http://www.w3.org/1999/xlink"><use transform="translate(.03 .03)" width="103.75" height="72.1" xlink:href="#a"/><defs><g id="a"><path d="M343.7 186.9q-2.1.75-4.35 2.05-3.8 2.2-5.95 4.8t-1.3 4q.8 1.4 4.1.8l1.15-.25q2.8-.75 5.95-2.55 3.8-2.25 5.95-4.85t1.35-3.95q-.85-1.4-4.15-.8l-2.6.65-.15.1.15-.1 2.6-.65q3.3-.6 4.15.8.8 1.35-1.35 3.95t-5.95 4.85q-3.15 1.8-5.95 2.55-10.05-1.35 6.35-11.4m39.1-15.25 8.7 2.45-1.5 9.35-12.25-3.75-2.15 1.3-1.3-2.05L314.5 214l-3.25 10.1-.1.05-8.85 1.95-1.25-.05-3.35-.2-1.3-.1 3.35-10.95-.15-.3-.85-1.8-.1-.3-1.75-3.8.15 3.75-.3-.05-9-1.6 1.35-6.1.05-.35 18.8 1.25 60.9-34.2 1.2-16.3 10.25.75-3.1 10.4 2.2 4.3-.05.25.3.1 2.1 4.15.15.35.9-3.65m-.9 3.65.35.75-.35-.75m-81.25 41.55-.9-2.05.9 2.05m-2.95 9-1.3-.1 1.3.1" fill="#8b6234" fill-rule="evenodd" transform="translate(-287.75 -154.85)"/><path d="m390 183.45-.6 3.6-13.75-5.95-.05-.05V181l2.15-1.3 12.25 3.75m-93.6 42.3-1.15-.05-1.9-.15 5.2-12.9.2.05.85 1.8.15.3-3.35 10.95-1.15-.05 1.15.05m-7.25-21.5.2-.85.55-2.55 16.85 2.1L366.4 170l1.1-15.15 2.55.15-1.2 16.3-60.9 34.2-18.8-1.25" fill="#bb864a" fill-rule="evenodd" transform="translate(-287.75 -154.85)"/><path d="m337.35 198.3-1.15.25q-3.3.6-4.1-.8-.85-1.4 1.3-4t5.95-4.8q2.25-1.3 4.35-2.05-16.4 10.05-6.35 11.4m42.95-42.55 2.55.2-3.45 14.5-2.2-4.3 3.1-10.4m-.65 15.05 3.15.85-.9 3.65-.15-.35-2.1-4.15m-4.05 10.25-.55.35-.1.05-59.7 34.8.3 10.7-13.25-.85 8.85-1.95.1-.05 3.25-10.1 59.8-35.05 1.3 2.05v.05m-77.05 31.6-.7-.15-.8-.15-.15-3.75 1.75 3.8-.1.25" fill="#604324" fill-rule="evenodd" transform="translate(-287.75 -154.85)"/><path d="m92.55.9 2.55.2-3.45 14.5.25.35 3.15.85 8.7 2.45-1.5 9.35-.6 3.6-13.75-5.95m-.7.35L27.5 61.4l.3 10.7-13.25-.85m-1.25-.05L9.95 71m-2.45-.15-1.9-.15 5.2-12.9-.7-.15m-1.1-.2-9-1.6 1.35-6.1m.25-1.2L2.15 46 19 48.1l59.65-32.95L79.75 0l2.55.15L92.55.9m-3.1 10.4 2.2 4.3-.05.25.3.1L94 20.1m.5 1.1-.35-.75M12 59.95l.9 2.05M11 57.85l.85 1.8m-.95-2.1-.1.25.2.05-.1-.3-1.75-3.8M7.5 70.85l1.15.05 1.3.1" fill="none" stroke="#000" stroke-linecap="round" stroke-linejoin="round" stroke-opacity=".302" stroke-width=".05"/><path d="m49.6 43.45-1.15.25q-3.3.6-4.1-.8-.85-1.4 1.3-4t5.95-4.8q2.25-1.3 4.35-2.05l.15-.1 2.6-.65q3.3-.6 4.15.8.8 1.35-1.35 3.95t-5.95 4.85q-3.15 1.8-5.95 2.55" fill="none" stroke="#bb864a" stroke-linecap="round" stroke-linejoin="round" stroke-width=".05"/><path d="M347.25 189.2h-.05.1l.35.75-.35-.75 1.6.45-.25 1.85-2.05-.8-8.35 4.85.05 1.55-3.1-.2.65-1.65.1-.2h-.05l-1.5-.25.35-1.4 2.3.3 8.35-4.6.2-2.1 2.15.15-.5 2.05-.3-.6.3.6m-11.55 5.3.25.55-.25-.55" fill="#604324" fill-rule="evenodd" transform="translate(-287.75 -154.85)"/><path d="M59.5 34.35h-.05.1-.05l-.3-.6M48.15 40.2l-1.5-.25.35-1.4 2.3.3 8.35-4.6.2-2.1 2.15.15-.5 2.05m.4.75-.35-.75 1.6.45-.25 1.85-2.05-.8-8.35 4.85.05 1.55-3.1-.2.65-1.65.05-.2h.05l-.25-.55m.25.55-.1.2m.05-.2h.05" fill="none" stroke="#000" stroke-linecap="round" stroke-linejoin="round" stroke-opacity=".302" stroke-width=".05"/><path d="M363.75 177.3q-.3-.35-.3-.85 0-.45.3-.8t.8-.35q.45 0 .75.35l.3.8-.3.85q-.3.3-.75.3-.5 0-.8-.3M360.9 182.45q-.3-.35-.3-.85 0-.45.3-.8t.8-.35q.45 0 .75.35l.3.8-.3.85-.75.3q-.5 0-.8-.3M318.1 205.9q-.45-.5-.45-1.25 0-.7.45-1.2.45-.55 1.2-.55.7 0 1.15.55l.45 1.2q0 .75-.45 1.25-.45.45-1.15.45-.75 0-1.2-.45" fill="#c49460" fill-rule="evenodd" transform="translate(-287.75 -154.85)"/></g></defs></svg>