<svg viewBox="0 0 32.493 18.071" xmlns="http://www.w3.org/2000/svg" xmlns:xlink="http://www.w3.org/1999/xlink"><g transform="translate(-292.09 -213.75)"><use transform="matrix(1 0 -.135 .8466 293.2 218)" width="31.95" height="16.3" xlink:href="#a"/><use transform="translate(292.2 223.5)" width="29.75" height="7.1" xlink:href="#b"/><use transform="matrix(1.0899 0 0 .875 292.3 213.75)" width="27.75" height="18.4" xlink:href="#c"/></g><defs><linearGradient id="e" x1="-819.2" x2="819.2" gradientTransform="matrix(.0056 .0062 -.0131 .0119 .2 -.25)" gradientUnits="userSpaceOnUse"><stop stop-color="#e0f7fc" stop-opacity=".702" offset=".067"/><stop stop-color="#e6f6fc" stop-opacity=".702" offset=".514"/><stop stop-color="#f6fafc" stop-opacity=".651" offset="1"/></linearGradient><linearGradient id="g" x1="-819.2" x2="819.2" gradientTransform="matrix(.0007 .0029 -.0016 .0004 -5.7 -2.9)" gradientUnits="userSpaceOnUse"><stop stop-color="#fff1d1" offset=".051"/><stop stop-color="#feda9e" offset="1"/></linearGradient><linearGradient id="h" x1="-819.2" x2="819.2" gradientTransform="matrix(-.0003 .0029 -.0021 -.0002 5.4 -3.2)" gradientUnits="userSpaceOnUse"><stop stop-color="#fff1d1" offset=".051"/><stop stop-color="#feda9e" offset="1"/></linearGradient><linearGradient id="i" x1="-819.2" x2="819.2" gradientTransform="matrix(0 .0049 -.0049 0 .4 -.5)" gradientUnits="userSpaceOnUse"><stop stop-color="#fff8ec" offset="0"/><stop stop-color="#fff1d1" offset=".271"/><stop stop-color="#d1a16d" offset="1"/></linearGradient><g id="d"><path d="M-11.05-1.25h-.5v-.2l.4-.2.6-.1.45.1.1.15-.4.15-.65.1M5.35 1.4q.7.25.25.75-.5.5-1.9.9L.55 3.5l-2.35-.25q-.75-.3-.25-.75.45-.5 1.9-.9l3.1-.45 2.4.25M12.6.5l-.6.25-1.05.1L10.3.8q-.3-.1-.1-.2l.55-.3.95-.1.75.05.15.25M9.5 1.7l1.35.2q.4.25.15.5-.25.3-1.1.5l-1.8.2-1.35-.15Q6.3 2.7 6.6 2.4q.25-.25 1.1-.45l1.8-.25M-5.65 5.1l.85.1q.25.1.1.3l-.7.3-1.15.15-.75-.1-.1-.25q.15-.2.7-.35l1.05-.15m3.1-4.05q.15-.15.6-.25l.9-.15.8.05q.2.1.05.25l-.5.25-1.05.2-.65-.15-.15-.2" fill="#d7e4e3" fill-opacity=".702" fill-rule="evenodd" transform="translate(15.95 8.15)"/><path d="m4.8 3.6 2.5.35q.8.4.25.95t-2.1.9l-3.3.4-2.55-.35q-.9-.35-.3-.9.55-.55 2.15-.9L4.8 3.6" fill="#d6e0e0" fill-opacity=".702" fill-rule="evenodd" transform="translate(15.95 8.15)"/><path d="m4.8 1.5.15.25-.5.25-.6.05H3.3Q3 2 3.2 1.8l.45-.25.65-.15.5.1m-2.5-.3.7.15-.35.3-1.25.2L.1 2l-.6-.05.4-.3 1.1-.3 1.3-.15" fill="#ebf3f4" fill-rule="evenodd" transform="translate(15.95 8.15)"/><path d="m8.65-3.2 3.55 5.65L4.15.5Q1 4.1-5.85 5.45q-1.2-2.1-1.65-5.4l-7.1 1.3 4.85-5.6 2.45-.25 8.45 1.6.05.05 7.45-.35" fill="#d7e2e1" fill-rule="evenodd" transform="translate(15.95 8.15)"/><path d="M9.1-7.55q2.15.3 3.7 1.45l1.9.55q1.05.6 1.25 1.4.15.75-.55 1.35 1.8 4.15-3.6 7.15l-1.65.7-.25.55q-.85 1.2-3.35 1.95l-5.25.6Q-1.45 8-2.85 7.05q-.9-.65-1.4-.7l-2.45.6q-2.7.65-4.75.05-2.05-.7-3.1-1.9-1.1-1.2-.85-3.05l.1-.5q-1.85-2.5 1.7-5.25 3.3-2.65 7.25-3.55 7.4-1.65 15.45-.3" fill="url(#e)" fill-rule="evenodd" transform="translate(15.95 8.15)"/><path d="M25.05.6q2.15.3 3.7 1.45l1.9.55q1.05.6 1.25 1.4.15.75-.55 1.35 1.8 4.15-3.6 7.15l-1.65.7-.25.55q-.85 1.2-3.35 1.95l-5.25.6q-2.75-.15-4.15-1.1-.9-.65-1.4-.7l-2.45.6q-2.7.65-4.75.05-2.05-.7-3.1-1.9-1.1-1.2-.85-3.05l.1-.5M.65 9.7q-1.85-2.5 1.7-5.25Q5.65 1.8 9.6.9 17-.75 25.05.6z" fill="none" stroke="#ccc" stroke-linecap="round" stroke-linejoin="round" stroke-opacity=".251" stroke-width=".05"/></g><g id="b"><path d="M300.35 228.5q.65.1.95.5.35.4.1.85-.25.4-.9.65l-1.3.05q-.7-.15-1-.5-.3-.4-.05-.85.2-.45.85-.6l1.35-.1M294 229.15l-1.5-1.2q-.5-.65-.2-1 .3-.4 1.2-.35.9.1 1.9.65l1.4 1.15q.45.6.15 1t-1.15.35q-.85-.1-1.8-.6" fill="#fff" fill-opacity=".6" fill-rule="evenodd" transform="translate(-292.2 -223.5)"/><path d="M316.05 227.45q1.25-1.05 3-.6M321.45 224q-.7.3-.85 1.45" fill="none" stroke="#467787" stroke-linecap="round" stroke-linejoin="round" stroke-opacity=".702" transform="translate(-292.2 -223.5)"/></g><g id="f"><path d="M-8.4-1.25q-.15-2.35-2.05-5.9 3 .05 9.15 1.85l-7.1 4.05" fill="#77ba00" fill-rule="evenodd" transform="translate(13.85 11.2)"/><path d="M5.45 9.95Q5.3 7.6 3.4 4.05q3 .05 9.15 1.85" fill="none" stroke="#4d8c2b" stroke-linecap="round" stroke-linejoin="round" stroke-opacity=".702" stroke-width=".05"/><path d="M8.15.05 0-5.15q5.25-1.7 10.25-2.1-2 4.25-2.1 7.3" fill="#77ba00" fill-rule="evenodd" transform="translate(13.85 11.2)"/><path d="M22 11.25q.1-3.05 2.1-7.3-5 .4-10.25 2.1" fill="none" stroke="#498c2b" stroke-linecap="round" stroke-linejoin="round" stroke-opacity=".702" stroke-width=".05"/><path d="m-8.8-2.85 3.4 1.35 1.35 1.25.5 2.35q-1.75-.65-3.85-.75l-1.4-4.2" fill="#77ba00" fill-rule="evenodd" transform="translate(13.85 11.2)"/><path d="m-7.4 1.35-6.45.4q1.1-2.65 5.05-4.6l1.4 4.2" fill="#7cd100" fill-rule="evenodd" transform="translate(13.85 11.2)"/><path d="m6.45 12.55-6.45.4q1.1-2.65 5.05-4.6" fill="none" stroke="#528c2b" stroke-linecap="round" stroke-linejoin="round" stroke-opacity=".702" stroke-width=".05"/><path d="m5.75-2 4.1-.7-1.05 2-1.35 2.6q-3.1.5-5.9 1.55Q1.4.8 5.75-2m-1 1.95q2.3-.9 4.05-.65-1.75-.25-4.05.65" fill="#77ba00" fill-rule="evenodd" transform="translate(13.85 11.2)"/><path d="M7.45 1.9 8.8-.7q.9.1 1.7.6-.8-.5-1.7-.6l1.05-2q2.7 2.25 4.05 5.45-3.7-1-6.45-.85" fill="#7cd100" fill-rule="evenodd" transform="translate(13.85 11.2)"/><path d="M22.65 10.5q-1.75-.25-4.05.65m4.05-.65q.9.1 1.7.6" fill="none" stroke="#5b8c2b" stroke-linecap="round" stroke-linejoin="round" stroke-width=".05"/><path d="m23.7 8.5-4.1.7m-4.2 5.45q2.8-1.05 5.9-1.55 2.75-.15 6.45.85-1.35-3.2-4.05-5.45" fill="none" stroke="#558c2b" stroke-linecap="round" stroke-linejoin="round" stroke-opacity=".702" stroke-width=".05"/><path d="M-2.1 1.05-3.45 3.1l1.35-2.05M4.5 3.1q-4-.55-7.95 0-1.3-1.05-3.65-.9 3-1.9 5.85-2.35 4.1.8 5.75 3.25" fill="#77ba00" fill-rule="evenodd" transform="translate(13.85 11.2)"/><path d="M-7.1 2.2q2.35-.15 3.65.9 3.95-.55 7.95 0-5 1-9.05 4.1-.9-2.8-2.6-5h.05" fill="#7cd100" fill-rule="evenodd" transform="translate(13.85 11.2)"/><path d="m10.4 14.3 1.35-2.05" fill="none" stroke="#5b8c2b" stroke-linecap="round" stroke-linejoin="round" stroke-width=".05"/><path d="M6.7 13.4q1.7 2.2 2.6 5 4.05-3.1 9.05-4.1" fill="none" stroke="#578c2b" stroke-linecap="round" stroke-linejoin="round" stroke-opacity=".702" stroke-width=".05"/><path d="M-3.35-6.4q-.35-1.75 2.9-4l3.8 3.25q-3.45-.2-6.5 1.3l-.2-.55M-6.55.45q-1.5-.25-4.3-3.35l4-1.65q.55 2.75 3 5.05l-2.7-.05M5.2.15q2.6-2.9 1.3-5.2l4.7 1Q9.35-.95 7.85-.35L5.2.15" fill="#578234" fill-rule="evenodd" transform="translate(13.85 11.2)"/><path d="M1.3-4.55Q-5.5-.6-6.4-3.05q.7-4.65 2.85-7.7 1.5 3.7 4.85 6.2" fill="#a39171" fill-rule="evenodd" transform="translate(13.85 11.2)"/><path d="M15.15 6.65q-6.8 3.95-7.7 1.5.7-4.65 2.85-7.7 1.5 3.7 4.85 6.2z" fill="none" stroke="#bdab89" stroke-linecap="round" stroke-linejoin="round" stroke-width=".05"/><path d="M-3.35.85q-2.3-3.6-2.65-9 1.6 4.85 5 9.1l-2.35-.1" fill="#b8a17e" fill-rule="evenodd" transform="translate(13.85 11.2)"/><path d="M-6-8.15q.35 5.4 2.65 9Q-5.7.4-6.7-1.55q-.75-4.25.7-6.6" fill="url(#g)" fill-rule="evenodd" transform="translate(13.85 11.2)"/><path d="M2.55-11.2Q5.7-7.65 6-3.25q-.55 1-1.4.85.85-3.7-2.05-8.8" fill="#fff1d1" fill-rule="evenodd" transform="translate(13.85 11.2)"/><path d="M2.55-11.2q2.9 5.1 2.05 8.8-2.9.35-6.95-1.35 4-2.85 4.9-7.45" fill="#ad9877" fill-rule="evenodd" transform="translate(13.85 11.2)"/><path d="m3.3.05-1.9-.3q3.2-3.8 4.55-8.55Q5.3-2.45 3.3.05" fill="#b8a17e" fill-rule="evenodd" transform="translate(13.85 11.2)"/><path d="M3.3.05q2-2.5 2.65-8.85 1.6 2.65 1.1 6.95Q6.05.2 3.3.05" fill="url(#h)" fill-rule="evenodd" transform="translate(13.85 11.2)"/><path d="M2.8-1.55Q1.65-.35 0-.35t-2.85-1.2Q-4-2.7-4-4.35t1.15-2.85Q-1.65-8.35 0-8.35T2.8-7.2Q4-6 4-4.35t-1.2 2.8" fill="#ffd919" fill-rule="evenodd" transform="translate(13.85 11.2)"/><path d="M2.3-6q-.05.4-.45.4T.95-6q-.4-.35-.65-.85t-.2-.9q.1-.35.5-.35l.85.35.75.9q.25.5.1.85" fill="#fff8df" fill-rule="evenodd" transform="translate(13.85 11.2)"/><path d="M4.4.25q-2.2 1.1-4.75 1.1L-3.6.9Q-3-2.45 0-6.05 3.1-4.4 4.4.25" fill="url(#i)" fill-rule="evenodd" transform="translate(13.85 11.2)"/><path d="M18.25 11.45q-1.3-4.65-4.4-6.3-3 3.6-3.6 6.95" fill="none" stroke="#baa789" stroke-linecap="round" stroke-linejoin="round" stroke-width=".05"/><path d="M5.5-1.75 6.75-.2Q2.6 1.9 1.35 1.55 4.1-.1 5.5-1.75M-6.45 0l1.1-1.55q1.6 1.65 4.5 3.3Q-2.1 2.1-6.45 0" fill="#5b941b" fill-rule="evenodd" transform="translate(13.85 11.2)"/></g><use width="31.95" height="16.3" xlink:href="#d" id="a"/><use width="27.75" height="18.4" xlink:href="#f" id="c"/></defs></svg>