<svg viewBox="0 0 85.422 89.95" xmlns="http://www.w3.org/2000/svg" xmlns:xlink="http://www.w3.org/1999/xlink"><use transform="translate(.05 .02)" width="85.35" height="89.9" xlink:href="#a"/><defs><g id="a"><path d="m236.4 170.65 5.4-2.65 15.6-9.6-11.25 14.5v5.75l-7.5 7.6V180l.25-1-2.5-8.35m26.15-1q.7.25 1.4.65l4.7-2.55h2.2l-2.55 2.7-5.2.4-.05-.05-.5-1.15m16.6 18.35 2.9-.6 10.25-1.35 3.75 9.25q-.65 1.65-1.8 3.1l-4.45-2.85-5.3-2.9-32 13.7-13.4-.05q14.95-10.6 30.45-15.7 4.2-1.35 8.4-2.35l1.2-.25m-67.6 44.4v-1.5q1.3-2.5 2.65-4.5-1.65-7.45-1.05-14.65h10.15v12.9l-2.8 4.4-8.95 3.35m2.4-26.4h-2.8q-1.2-4.45.65-9.75l.05-.35 1.2.1 6.1-11.85q4.3-5.9 10.8-10.05 2.25-1.5 4.95-2.7l1.15-1.9-3.5 14.25-.05 7.9-7.6 6.6-3.5-1.25q-2.3 2.9-4.6 9h-2.85m30.7-35.6 1.5 2.5-1.5-2.5M217 197.5q-.65-.8-1.7-.55-1.05.2-1.9 1.35t-1 2.5q-.2 1.35.45 2.15.6.8 1.65.55t1.9-1.35q.85-1.15 1.05-2.5.15-1.35-.45-2.15m17.9-26.1-7 11 7-11m29.05-1.1-.9.5.9-.5m-32.85 33.25q-.55 1.25-1.65 2.15-1.15.85-2.2.85-1.05-.05-1.45-1t.1-2.2 1.65-2.1q1.1-.9 2.2-.85 1.05.05 1.45 1 .4.9-.1 2.15m-16.9 22.85q2.35-3.65 4.7-5.75 3 .8 4.4 4-1.4-3.2-4.4-4-2.35 2.1-4.7 5.75" fill="#d0d0bf" fill-rule="evenodd" transform="translate(-210.7 -158.4)"/><path d="m257.4 158.4 1.9 3.75-1.95 6.65q2.7-.2 5.2.85l.5 1.15.05.05 5.2-.4 2.55-2.7h.3l-1.3 6.6 5.05 5.9 4.25 7.75-1.2.25-6.4-7.5-11.5-3.5-7.85 4.5-4.4 2.5q-5.05 4.05-10.5 11.75l-5.9 13.75-8.5-2.35 2-9.15-2 9.15 8.5 2.35-.15 2.5q3.9-3.15 7.85-5.95l13.4.05 32-13.7 5.3 2.9 4.45 2.85q-3.35 4.25-11.9 7.4V204l-.5-5.1.1-.05q-5.75 2.15-7.75 3l-1.8.8q-20.5 8.85-45.1 22.1l2.5 8.55q3.45 10.45 6.85 14.15l.9.85h-8.75l-3.75-4.25-7.2-10.9q-3.15.15-6.3-.75l8.95-3.35 2.8-4.4v-12.9h-10.15q.2-2.9.8-5.75h2.85q2.3-6.1 4.6-9l3.5 1.25 7.6-6.6.05-7.9 3.5-14.25.35 1.15 2.5 8.35-.25 1v6.25l7.5-7.6v-5.75h6.5-6.5l11.25-14.5M217 197.5q.6.8.45 2.15-.2 1.35-1.05 2.5-.85 1.1-1.9 1.35t-1.65-.55q-.65-.8-.45-2.15.15-1.35 1-2.5t1.9-1.35q1.05-.25 1.7.55m46.9-22.5v-1l-1.25-3 .4-.2-.4.2 1.25 3v1m-15.35-.75 4.25 1.25h2.6l1.95-6.7-1.95 6.7h-2.6l-4.25-1.25m20.75 2.9.55-2.8-.55 2.8M282.35 204l-.4-5.15q4.65-2.1 7.85-3.3-3.2 1.2-7.85 3.3l.4 5.15m-51.25-.45q.5-1.25.1-2.15-.4-.95-1.45-1-1.1-.05-2.2.85-1.15.85-1.65 2.1t-.1 2.2 1.45 1q1.05 0 2.2-.85 1.1-.9 1.65-2.15m-13.25 29.6 4.45-.75q1.65-3.85 1-7.75.65 3.9-1 7.75l-4.45.75m13.4-20.9q-4.8 4.75-3.95 12.5-.85-7.75 3.95-12.5" fill="#9f968a" fill-rule="evenodd" transform="translate(-210.7 -158.4)"/><path d="M282.35 205.8q-.1 7.75-1.95 18.45l-6.45-2.6q1.6-8.45.25-19.8 2-.85 7.75-3l-.1.05.5 5.1v1.8m-30.15-24.05 7.85-4.5 11.5 3.5 6.4 7.5q-4.2 1-8.4 2.35-6.3-8.45-17.35-8.85" fill="#7b7264" fill-rule="evenodd" transform="translate(-210.7 -158.4)"/><path d="m25.7 12.25 5.4-2.65L46.7 0l1.9 3.75-1.95 6.65q2.7-.2 5.2.85.7.25 1.4.65l4.7-2.55h2.5l-1.3 6.6 5.05 5.9 4.25 7.75 2.9-.6m.3 18.4q-.1 7.75-1.95 18.45l-6.45-2.6q1.6-8.45.25-19.8l-1.8.8q-20.5 8.85-45.1 22.1l2.5 8.55q3.45 10.45 6.85 14.15l.9.85H18.1l-3.75-4.25-7.2-10.9Q4 74.9.85 74v-1.5Q2.15 70 3.5 68q-1.65-7.45-1.05-14.65.2-2.9.8-5.75H.45q-1.2-4.45.65-9.75m.05-.35 1.2.1 6.1-11.85q4.3-5.9 10.8-10.05 2.25-1.5 4.95-2.7l1.15-1.9.35 1.15 2.5 8.35-.25 1v6.25m7.5-13.35-1.5-2.5M14.2 39.85l-2 9.15 8.5 2.35 5.9-13.75q5.45-7.7 10.5-11.75l4.4-2.5 7.85-4.5 11.5 3.5 6.4 7.5 1.2-.25M17.2 24l7-11m28.15-.6-.4.2 1.25 3v1m-11.25-2.1h-6.5m11.2-4.1-1.95 6.7h-2.6l-4.25-1.25m21 16.35q4.2-1.35 8.4-2.35m-8.1-13.9-.55 2.8m-6.25-6.35.9-.5m5.6 20.3q-6.3-8.45-17.35-8.85M71.65 47.4v-1.8l-.5-5.1.1-.05q-5.75 2.15-7.75 3m15.6-6.3q-3.2 1.2-7.85 3.3l.4 5.15M20.7 51.35l-.15 2.5q3.9-3.15 7.85-5.95 14.95-10.6 30.45-15.7M3.25 47.6H6.1q2.3-6.1 4.6-9l3.5 1.25m-1.6 26.4q.65 3.9-1 7.75l-4.45.75m5.45-8.5q-1.4-3.2-4.4-4-2.35 2.1-4.7 5.75m13.1-1.65q-.85-7.75 3.95-12.5" fill="none" stroke="#000" stroke-linecap="round" stroke-linejoin="round" stroke-opacity=".302" stroke-width=".05"/><path d="m71.35 29 10.25-1.35 3.75 9.25q-.65 1.65-1.8 3.1-3.35 4.25-11.9 7.4" fill="none" stroke="#000" stroke-linecap="round" stroke-linejoin="round" stroke-opacity=".302" stroke-width=".05"/></g></defs></svg>