<svg viewBox="0 0 83.15 56.927" xmlns="http://www.w3.org/2000/svg" xmlns:xlink="http://www.w3.org/1999/xlink"><use transform="translate(.02)" width="83.1" height="56.9" xlink:href="#a"/><defs><g id="a"><path d="m420.7 186.3-.2.2v-.2h.2" fill="#a25c37" fill-rule="evenodd" transform="translate(-341.3 -148.6)"/><path d="m424.25 181.45.15 13q-3.55 4.1-10.8 6.6-7.3 2.5-15 3.85l.15-12.6q15.55-1.25 21.75-5.8l.65 6.55-.65-6.55.2-.2q2.7-2.1 3.55-4.85" fill="#855e2a" fill-rule="evenodd" transform="translate(-341.3 -148.6)"/><path d="M391.55 169.3q9.9.7 17 2.75l-29.15 8.4 41.1 5.85v.2q-6.2 4.55-21.75 5.8h-.15l-19.2-11.85 12.15-11.15" fill="#eabd88" fill-rule="evenodd" transform="translate(-341.3 -148.6)"/><path d="M360.9 190.95q-6.4-1.2-11.2-3.1-4.2-1.65-7.2-3.8 1-5.9 7.2-9.4 9.4-5.5 30.8-5.6 5.9-.05 11.05.25l-12.15 11.15 19.2 11.85-9.85.35-20.6-.75 11.25-11.45-18.15 10.5h-.35m47.65-18.9q11.15 3.05 15.7 9.4-.85 2.75-3.55 4.85h-.2l-41.1-5.85 29.15-8.4m-58.85 2.6 20.2 2.95-20.2-2.95" fill="#daa854" fill-rule="evenodd" transform="translate(-341.3 -148.6)"/><path d="M349.7 187.85q4.8 1.9 11.2 3.1l2.35 7.15 4.7-6.2h.2l20.6.75 9.85-.35h.15l-.15 12.6q-9.4.85-18.5.5l-16.8-1.45q-7.7-1.05-13.55-3.4-5.85-2.4-8.45-6.55l1.2-9.95q3 2.15 7.2 3.8l-1.55 8.95 1.55-8.95" fill="#a67835" fill-rule="evenodd" transform="translate(-341.3 -148.6)"/><path d="M368.15 191.9h-.2l-4.7 6.2-2.35-7.15h.35l18.15-10.5-11.25 11.45" fill="#80552b" fill-rule="evenodd" transform="translate(-341.3 -148.6)"/><path d="M19.6 42.35q-6.4-1.2-11.2-3.1L6.85 48.2m50.45 8.1q-9.4.85-18.5.5L22 55.35q-7.7-1.05-13.55-3.4Q2.6 49.55 0 45.4l1.2-9.95q1-5.9 7.2-9.4 9.4-5.5 30.8-5.6 5.9-.05 11.05.25 9.9.7 17 2.75 11.15 3.05 15.7 9.4l.15 13q-3.55 4.1-10.8 6.6-7.3 2.5-15 3.85m.15-12.6h-.15l-9.85.35-20.6-.75M8.4 39.25q-4.2-1.65-7.2-3.8M28.6 29 8.4 26.05M79.2 37.9l.65 6.55m3.1-11.6q-.85 2.75-3.55 4.85l-.2.2v-.2m0 .2q-6.2 4.55-21.75 5.8M26.85 43.3h-.2m-7.05-.95h.35" fill="none" stroke="#54473b" stroke-linecap="round" stroke-linejoin="round" stroke-opacity=".6" stroke-width=".05"/><path d="m404.5 174.15-3.1 10.95-5.5-11.15-8.9.75 8.35-5.65-2.9-11.65 6.65 7.3 10.95-10.75-3.7 10.5 12.25 7.45-14.1 2.25m-23.95-18.85 3.45 6.35-6.85-2.45-4.15 4.15.45-6.4-4.1-1.9 5.1-.45 1.7-6 1.05 4.95 7.6-2.1-4.25 3.85" fill="#fff" fill-opacity=".4" fill-rule="evenodd" transform="translate(-341.3 -148.6)"/><path d="m379.2 167.2.3-.2 5.2-1.45-8.35 7.4 7 12.55-13.45-5.1-8.05 7.95.65-12.35-8.05-3.75 10-.8 3.2-11.45 2.25 9.55 9.35-2.5-.05.15" fill="#fff" fill-opacity=".502" fill-rule="evenodd" transform="translate(-341.3 -148.6)"/></g></defs></svg>