<svg viewBox="0 0 64.65 52.675" xmlns="http://www.w3.org/2000/svg" xmlns:xlink="http://www.w3.org/1999/xlink"><use transform="translate(.02 .02)" width="64.6" height="52.65" xlink:href="#a"/><defs><g id="a"><path d="M-24.85 4.95-16.8.5h5.65l7.7 1.8q1.35 1.05 2.8 1.8l6 .25-13.7 3.95-16.5-3.35m.2 21.1-.1.3h-.2l.3-.3" fill="#716d56" fill-rule="evenodd" transform="translate(32.3 26.3)"/><path d="m-6.3 15.75-7.85.25-16.3-4.8-1.15-.85-.6-1-.05-.3-.05-.55.05-.3.2-.8.15-.35Q-21.15-2.05-9.7-.8l.1.05.1-.05 3.7.55 5.8.3L.15 0 .5-.35 2.3-2.1l1-1.15-.35-1.9L4.2-4.1l2.1-1.35-.15-.7.7.45q3.05-1.4 7.5-1.45h.05Q29.5-6.6 30.65 8.8l.15-.05-.2.6.35 2.2-.25.45 1.6 4.75-2.85-3-.5.55.75 2.95-1.75-2.1q-2 1.45-4.75 2.25H23q-6 1.25-12.5.25l-1.05 2.9-1.1-3.3-.4-.05-.4-.1-3.95-1.7.35-1.65q-2.35 2-6.05 1.9l-3.25.1-.05-.05-.9.05m-18.55-10.8 16.5 3.35 13.7-3.95-6-.25q-1.45-.75-2.8-1.8l-7.7-1.8h-5.65l-8.05 4.45m37.45.15.7.7.45.2-1.15-.9m3 3 .1.1v-.1h-.1" fill="#605c48" fill-rule="evenodd" transform="translate(32.3 26.3)"/><path d="m-9.5-.8-.1.05-.1-.05h.2" fill="#454337" fill-rule="evenodd" transform="translate(32.3 26.3)"/><path d="m-7.5-11 .05-.1-.05.1M15.6 8.1h.1v.1l-.1-.1m-3-3 1.15.9-.45-.2-.7-.7" fill="#785744" fill-rule="evenodd" transform="translate(32.3 26.3)"/><path d="m30.8 8.75-.15.05Q29.5-6.6 14.4-7.15l-.5-1.1v-3.85l.3-1.3 1.5-4.65 1.45-3.1q2.05-3.65 4.8-4.75l.05-.05 1.2-.35q3.5 3.35 6.65 17.2L31.5-.95q.7 5.05-.7 9.7" fill="#4b4838" fill-rule="evenodd" transform="translate(32.3 26.3)"/><path d="m22-25.95-.05.05.05-.05" fill="#6e5048" fill-rule="evenodd" transform="translate(32.3 26.3)"/><path d="M13.7 21.95h-1.6l.85-.25.3-.05.45.15v.15" fill="#cbcbcb" fill-rule="evenodd" transform="translate(32.3 26.3)"/><path d="m-6.3 15.75.9-.05.05.05h-.95" fill="#261112" fill-rule="evenodd" transform="translate(32.3 26.3)"/><path d="M22.6 25.5Q11.15 24.25.4 33.35l-.15.35-.2.8-.05.3.05.55.05.3.6 1 1.15.85 16.3 4.8 7.85-.25.9-.05.05.05 3.25-.1q3.7.1 6.05-1.9l-.35 1.65 3.95 1.7.4.1.4.05 1.1 3.3 1.05-2.9q6.5 1 12.5-.25h.2q2.75-.8 4.75-2.25l1.75 2.1-.75-2.95.5-.55 2.85 3L63 38.3l.25-.45-.35-2.2.2-.6m-16.4-15.9h-.05q-4.45.05-7.5 1.45l-.7-.45.15.7-2.1 1.35-1.25-1.05.35 1.9-1 1.15-1.8 1.75-.35.35-.15.05-5.8-.3-3.7-.55M54.25.4q-2.75 1.1-4.8 4.75L48 8.25l-1.5 4.65-.3 1.3v3.85l.5 1.1M54.3.35 55.5 0q3.5 3.35 6.65 17.2l1.65 8.15q.7 5.05-.7 9.7" fill="none" stroke="#000" stroke-linecap="round" stroke-linejoin="round" stroke-opacity=".302" stroke-width=".05"/></g></defs></svg>