<svg viewBox="0 0 61.875 40.25" xmlns="http://www.w3.org/2000/svg" xmlns:xlink="http://www.w3.org/1999/xlink"><use transform="translate(.02 .03)" width="61.85" height="40.2" xlink:href="#a"/><defs><g id="a"><path d="m241.05 192.95 2 .4-.15-.05-1.85-.4.25-.35-.2-.1q2.6-4 7.3-6.7 2.15-1.25 4.6-2.05l.3-.1h.15l2.75.55v-.05l-2.65-.5 2.65-.8v-.05l3.6-.6 6.1-.4 8.3.6 2.95.45 1.4.25 3.5.8.95.25q4.55 3.1.2.1 9 4.4 9.35 4.7l2.85 2.7-1.4.75h.3l1.35-.75.5.65h-.2q2.75 3.55 4 8.35l-.05 4.05q-4 6.9-10.65 10.25-3.1 1.5-6.7 2.3l-7.8.75-7.05-.45-2.75-.4-1.95-.35-.25-.05q-5.5-1.1-9.75-3l-.3-.1-.05-.15-.1-.05.05-.15-.1-.4.5-1.55.1-.25-2.05 1.6-.1.05-.15-.05q-2.7-1.45-4.8-3.25l2.3-1.95.3-.3-3.15 1.5-.2.1q-4.4-4.1-6.2-9.9l-.05-.2-.1-.2.95-2.8h.25l.1-.4-.2-.05.7-2.1.1-.2.25.05m59.15 7.65.55 2.9-.05.1-.55 1.05.05-4.05m-60.1-4.95 2.3.2h-.1l-2.1-.2h-.1m53.75 7.5.1-.3q.45-1.65.25-3.25-.4-2.4-2.4-4.75l-.75-.8-1.45-1.35-.15-.1q-6.15-4.7-16.2-6.1l-1.7-.2-4.95-.3-5.9.45q-2.9.4-5.55 1.3-2.3.75-4.05 1.7l-2.65 1.75-1.15 1.05-.15.2-.4.45-.35.5-1 1.85-.2.7-.2.8q-.35 1.7.15 3.3l.1.25q.95 2.9 4.5 5.6l.45.35q4.55 3.55 11.35 5.2v.05l4.05.8.25.05h.3l.4.05h.25l12-.5 3.15-.65 2.1-.45 1.35-.45.25-.1q1.85-.75 3.35-1.65l2.05-1.45q1.95-1.7 2.75-3.85l.05-.15" fill="#fff" fill-rule="evenodd" transform="translate(-238.9 -181.75)"/><path d="m247.15 192.45 5.2.45-1.25.6-2.65 1.75-1.15 1.05-.15.2-.4.45-.35.5-1.25 2.6q-.5-1.6-.15-3.3l.2-.8.2-.7 1-1.85.35-.5.4-.45" fill="#d6cbba" fill-rule="evenodd" transform="translate(-238.9 -181.75)"/><path d="m247.15 192.45.15-.2 1.15-1.05 2.65-1.75q1.75-.95 4.05-1.7 2.65-.9 5.55-1.3l5.9-.45 4.95.3 1.7.2q10.05 1.4 16.2 6.1l.15.1 1.45 1.35.75.8q2 2.35 2.4 4.75.2 1.6-.25 3.25l-.1.3q-.7-3.8-4.25-6.4l-.15-.1q-6.15-4.7-16.2-6.1l-1.7-.2-4.95-.3-5.9.45q-2.9.4-5.55 1.3-1.55.5-2.8 1.1l-5.2-.45" fill="#ae9875" fill-rule="evenodd" transform="translate(-238.9 -181.75)"/><path d="m300.15 204.65-.05 2.5-.4 1.4-.5 1.6q-3.8 5.75-9.7 8.75l-4.1 1.6q2.15-2.5 4.1-5.6 6.65-3.35 10.65-10.25" fill="#766d3f" fill-rule="evenodd" transform="translate(-238.9 -181.75)"/><path d="m285.4 220.5-2.85.7-5.75.55h-5.05l-4.05-.25-2.75-.4-1.95-.35-.25-.05-.3-.05q-5.25-1.1-9.85-3.45l-.1-.35.5-1.55-.05.05-.25-1.75.3.1q4.25 1.9 9.75 3l.25.05 1.95.35 2.75.4 7.05.45 7.8-.75q3.75-.75 6.95-2.3-1.95 3.1-4.1 5.6m-34.65-4.1-.1.15q-2.6-1.4-4.65-3.15l2.3-1.95-3.1 1.25q-4.3-4-6.1-9.7l-.05-.25-.15-3.05v-.35l.15-.5q1.8 5.8 6.2 9.9l.2-.1.05.1 2.8-1.3-2.3 1.95q2.1 1.8 4.8 3.25l.15.05-.2 3.7m11.7 4.25.55-3.9-.55 3.9" fill="#9e9354" fill-rule="evenodd" transform="translate(-238.9 -181.75)"/><path d="m276.8 221.75-2.05.2-3-.2h5.05m-23.85-6.4-2.2 1.05.2-3.7.1-.05.15.05 1.8-1.4-.5 1.55.1.4-.05.15.1.05.05.15.25 1.75" fill="#877d47" fill-rule="evenodd" transform="translate(-238.9 -181.75)"/><path d="M2.15 11.15v.05m12.4-9.35h.1M35.3.6l3.2.45 1.4.25 2.95.6q1.1.2 6.1 2.4 5 2.15 5.75 3.1l2.05 2.45m.5.65q2.8 3.55 4.05 8.35m-.05 4.05-.05 2.5-.4 1.4M50.6 37.15l-4.1 1.6-2.85.7M0 17.95v-.35l.15-.5m61.1 5.8.05-4.05M24.1 35l-.55 3.9" fill="none" stroke="#000" stroke-linecap="round" stroke-linejoin="round" stroke-opacity=".302" stroke-width=".05"/><path d="m2.15 11.2 2 .4-.15-.05-1.85-.4.25-.35-.2-.1q2.6-4 7.3-6.7 2.15-1.25 4.6-2.05l.3-.1h.15l2.75.55v-.05l-2.65-.5 2.65-.8V1l3.6-.6L27 0l8.3.6 2.95.45 1.4.25 3.5.8.95.25q4.55 3.1.2.1 9 4.4 9.35 4.7l2.85 2.7-1.4.75h.3l1.35-.75.5.65m3.55 16.3-.5 1.6q-3.8 5.75-9.7 8.75m-6.95 2.3L37.9 40l-2.05.2-3-.2-4.05-.25-2.75-.4L24.1 39l-.25-.05-.3-.05q-5.25-1.1-9.85-3.45l-.1-.35.5-1.55-.05.05-2.2 1.05-.1.15q-2.6-1.4-4.65-3.15l2.3-1.95-3.1 1.25q-4.3-4-6.1-9.7M.15 17.1l-.05-.2-.1-.2.95-2.8h.25l.1-.4-.2-.05.7-2.1.1-.2.25.05m-.95 2.7 2.3.2h-.1l-2.1-.2h-.1m53.75 7.5.1-.3q.45-1.65.25-3.25-.4-2.4-2.4-4.75l-.75-.8-1.45-1.35-.15-.1q-6.15-4.7-16.2-6.1l-1.7-.2-4.95-.3-5.9.45q-2.9.4-5.55 1.3-2.3.75-4.05 1.7L9.55 9.45 8.4 10.5l-.15.2m5.2.45q1.25-.6 2.8-1.1 2.65-.9 5.55-1.3l5.9-.45 4.95.3 1.7.2q10.05 1.4 16.2 6.1l.15.1q3.55 2.6 4.25 6.4l-.05.15q-.8 2.15-2.75 3.85l-2.05 1.45q-1.5.9-3.35 1.65l-.25.1-1.35.45-2.1.45-3.15.65-12 .5h-.25l-.4-.05h-.3l-.25-.05-4.05-.8v-.05q-6.8-1.65-11.35-5.2l-.45-.35q-3.55-2.7-4.5-5.6l-.1-.25q-.5-1.6-.15-3.3l.2-.8.2-.7 1-1.85.35-.5.4-.45m5.2.45-1.25.6-2.65 1.75-1.15 1.05-.15.2-.4.45-.35.5-1.25 2.6m37.4 17.15q3.6-.8 6.7-2.3Q57 29.8 61 22.9l.05-4.05q-1.25-4.8-4-8.35h.2m-13.6 24.95-7.8.75-7.05-.45-2.75-.4L24.1 35m3.8-4.35-.65-.05m-20.7-3.7-.2.1q-4.4-4.1-6.2-9.9M6.6 27l-.05-.1 3.15-1.5-.3.3-2.3 1.95q2.1 1.8 4.8 3.25l.15.05.1-.05 2.05-1.6-.1.25-.5 1.55.1.4-.05.15.1.05.05.15.3.1q4.25 1.9 9.75 3l.25.05m-11.8-4.05-.15-.05m1.9 2.7-.25-1.75m-1.75-.9-.2 3.7" fill="none" stroke="#000" stroke-linecap="round" stroke-linejoin="round" stroke-opacity=".302" stroke-width=".05"/></g></defs></svg>