<svg viewBox="0 0 227.6 322.84" xmlns="http://www.w3.org/2000/svg" xmlns:xlink="http://www.w3.org/1999/xlink"><g transform="translate(-157.25 -53.706)"><use transform="translate(157.25 53.7)" width="227.6" height="322.85" xlink:href="#a"/><use transform="matrix(1.3729 1.4154 -1.4154 1.3729 266.74 301.83)" width="32.75" height="25.8" xlink:href="#b"/></g><defs><path d="m11.95-11.8 2.55.1q1.25.3 1.7 1.75.45 1.3-.35 2.4-.7 1.05-2.1 1.5l-1.2.25q-.05 1.8-1.1 3.6-1.7 2.85-5.1 3.95-3.4 1.05-6.4-.3Q-3.1.1-4-2.75q-.95-2.9.8-5.75 1.65-2.85 5.05-3.9l6.45.25q1.15.5 2 1.3.5-.6 1.65-.95M-15.8 9q.8-1.1 2.1-1.5l2.6.05q1.3.45 1.6 1.5.35 1-.45 2.15-.8 1.1-2.1 1.5t-2.6 0q-1.3-.5-1.65-1.5-.35-1.1.5-2.2" fill="#e4e307" fill-opacity=".62" fill-rule="evenodd" transform="translate(16.4 12.9)" id="b"/><g id="a"><path d="m334.1 151.35.3-.45.35.4-.45.3-.2-.25" fill="#336529" fill-rule="evenodd" transform="translate(-157.25 -53.7)"/><path d="m381.55 142.45 2.8 3.8-.45 6-41.75 81.2-4 130.4-8.2 6 9.8-143.6 41.8-83.8m-202.15-10.8-14.05 28.6 26.2 27.6 34.6 38.4-6.6 5.2v9.1l-61.45-70.8-.35-6.9 22-35.6q-.3 2.2-.35 4.4m167.5-20.3.75 1.05q3.35 4.65 6.35 9.5l-1.4 5.15-.3.85q-1.7 4.7-4.3 9-4.05-16.8-21.65-29.25-8.65-6.1-20.5-11.15l-.5-.25q-20.45-5.85-41.6-5.05l-15.65 1.55-.3.05-7.05 1.25q-30.1 8.05-44.3 33.55-.95 1.65-1.8 3.45l-1.85-3.7q-1.45-3.3-2.25-6.65v-.05q1.55-13.75 11.5-24.8l.5-.7 7.35-6.95q22.75-17.25 51.7-15.85 19.3.15 37.65 5.15 7.9 2.25 15.35 6.45 7.95 4.4 15.2 9.95 9.7 7.45 17.1 17.45 3.45 7.35 5.7 15.7-2.25-8.35-5.7-15.7m-155.35 76.5-3.8 5.4 3.8-5.4m42.6-107.2q-20.35 2.45-34 19.6 13.65-17.15 34-19.6m-14.1 160.45 6.7 134.95-7.2-2.6v-132.9l.5.55m105.3-146.85q-27.25-19-68-16.4 40.75-2.6 68 16.4" fill="#caf37b" fill-rule="evenodd" transform="translate(-157.25 -53.7)"/><path d="M354 121.9q-3-4.85-6.35-9.5l-.75-1.05q-7.4-10-17.1-17.45-7.25-5.55-15.2-9.95-7.45-4.2-15.35-6.45-18.35-5-37.65-5.15-28.95-1.4-51.7 15.85l-7.35 6.95-.5.7q-9.95 11.05-11.5 24.8l-9.75-7.3q1.45-7.25 4.95-14.3 18.1-33.15 56.2-42.4 41.45-7.25 76.8 7 21.85 11.15 34.2 28.6 3.9 16.4 1.05 29.65M236.95 68.25q67.3-6.9 96.8 23.2 7.95 8.85 13.15 19.9-5.2-11.05-13.15-19.9-29.5-30.1-96.8-23.2" fill="#d6f59a" fill-rule="evenodd" transform="translate(-157.25 -53.7)"/><path d="m250.6 167.25-.2 1-.2-.05.4-.95" fill="#3e8537" fill-rule="evenodd" transform="translate(-157.25 -53.7)"/><path d="M365.15 127.65q1.35 38.75-33 59.4-24.45 17.1-62.2 15-39.45 1.1-68.8-22.8-22.55-24.15-21.75-47.6.05-2.2.35-4.4-.4-7.05 1.05-13.9l9.75 7.3v.05q.8 3.35 2.25 6.65l1.85 3.7q4.6 8.45 13.5 16.35l4.85 4.05 3.2 2.4 3.75 2.6q15.1 8.15 30.25 11.75l.2.05q25.6 5.95 51.2-1.15l4-1.2 3.4-1.15 1.35-.5q12.45-4.6 21.5-10.85l2.25-1.65.2-.15.45-.3q5.85-4.55 10-9.8l3.25-4.6q2.6-4.3 4.3-9l.3-.85 1.4-5.15q2.85-13.25-1.05-29.65 9.6 15.95 12.2 35.4m-20.2 38.6q13.6-19.45 14.8-34.8-1.2 15.35-14.8 34.8m-130-4-3.25-1.85q-18.7-11-22.35-24.55Q193 149.4 211.7 160.4l3.25 1.85m92.8 29.8q-33.8 8.65-66.8 0 33 8.65 66.8 0m29.2-23.8q-35.45 25.55-83.6 19.2-34.95-5-57.6-26.4 22.65 21.4 57.6 26.4 48.15 6.35 83.6-19.2" fill="#e1f8b8" fill-rule="evenodd" transform="translate(-157.25 -53.7)"/><path d="M334.1 151.75v-.4l.2.25-.2.15" fill="#981314" fill-rule="evenodd" transform="translate(-157.25 -53.7)"/><path d="m293.2 160.6.6.55-.3.15-.3-.7m-80.2-9.15v-.05.05" fill="#c84311" fill-rule="evenodd" transform="translate(-157.25 -53.7)"/><path d="M219.55 240.55v-9.1l.5 9.65-.5-.55" fill="#dca8a0" fill-rule="evenodd" transform="translate(-157.25 -53.7)"/><path d="m339.75 226.25-9.8 143.6-103.2 6.2-6.7-134.95-.5-9.65 6.6-5.2h113.6M248.1 92.75q13.55 1.95 26.95 5.25 15.3 3.9 28.05 13.5 10.45 7.85 11.7 19.8-3.75-2-8-3.15-1.2 2.8-2.9 4.95.35 1.65-.65 3.55-1.25 2.45-3.85 2.8-2.15.4-4.35-.55l-3.25.65q-1.6.05-2.9 1.2v2.85l3.05 5 .6 1.55q-.2 1.1-1.25 1.4-1.9.6-3.3 2.15l-.3.1q1.25 2.9 4 4.95 1.05.8 1.5 1.85l.3.7-4.6 1.85q6.6 2.4 14.3.6l3.6-.2 2.2 1.2-3.4 1.15-4 1.2q-25.6 7.1-51.2 1.15l.2-1 2.45-1.2q.05-1.95-1.45-3.45l-1.8-1.85-3.65-1.65q-1.15-.5-1.95-1.65l-.1-.35q-.3-.8.4-.85l2.05-.4H249q4.05 5.35 10.2 6.2 1.85.4 3.65-.5l1.6-2.05.4-7.7-4.85-3.25-1.65-.85q.35-5.5-1.45-10.45l-.6-.95q-8.35-3-10.95 4-1.15 3-2.05 6.2l-2.45 1.6h-2.45q-2.7-2-3.55-5.55-.4-1.5-1.35-3-1.8-.9-3.6-1.4l-4.1-.2h-1.25q-1.9.8-2.35 2.85-.8 3.7-.5 7.75l-7.75.4q-1.2.85-.95 2.45v.05l-4.85-4.05q-8.9-7.9-13.5-16.35.85-1.8 1.8-3.45 14.2-25.5 44.3-33.55l7.05-1.25.3-.05m-7.1 29.3q-1.15-2.45-3.5-3.75-2.4-1.3-5.05-.95-2.7.4-3.75 2.35-1 1.9.15 4.4 1.15 2.4 3.55 3.7 2.35 1.25 5 .85t3.7-2.3q1-1.9-.1-4.3m63.15 122.6q-22.75-6.85-42.8 8.45-3.8-1.35-7.8 1.7l-1.3 2.4q-2.3 2.3-3.5 7.6-2.35 10.15-1.9 22 2.6 12.4 7.85 14.3l6.15.15q11.6 17.25 38.75 13.8 13.1-1.9 19.7-14.3.9-9.45-2.65-17.85 2.4-2.7 4.3-6.25 1.15-11.85-4.75-22-3.1-5.3-8.85-7.6l-3.2-2.4" fill="#b0af04" fill-rule="evenodd" transform="translate(-157.25 -53.7)"/><path d="m381.55 142.45-41.8 83.8h-113.6l-34.6-38.4-26.2-27.6 14.05-28.6q-.8 23.45 21.75 47.6 29.35 23.9 68.8 22.8 37.75 2.1 62.2-15 34.35-20.65 33-59.4l16.4 14.8m-77.4 102.2 3.2 2.4q5.75 2.3 8.85 7.6 5.9 10.15 4.75 22-1.9 3.55-4.3 6.25 3.55 8.4 2.65 17.85-6.6 12.4-19.7 14.3-27.15 3.45-38.75-13.8l-6.15-.15q-5.25-1.9-7.85-14.3-.45-11.85 1.9-22 1.2-5.3 3.5-7.6l1.3-2.4q4-3.05 7.8-1.7 20.05-15.3 42.8-8.45" fill="#999804" fill-rule="evenodd" transform="translate(-157.25 -53.7)"/><path d="m338.15 363.85 4-130.4 41.75-81.2-3.75 48.4-5.4 93.6-36.6 69.6M348 136.9l-3.25 4.6q-4.15 5.25-10 9.8l-.35-.4-.3.45v.4l-2.25 1.65q-9.05 6.25-21.5 10.85l-1.35.5-2.2-1.2-3.6.2q-7.7 1.8-14.3-.6l4.6-1.85.3-.15-.6-.55q-.45-1.05-1.5-1.85-2.75-2.05-4-4.95l.3-.1q1.4-1.55 3.3-2.15 1.05-.3 1.25-1.4l-.6-1.55-3.05-5v-2.85q1.3-1.15 2.9-1.2l3.25-.65q2.2.95 4.35.55 2.6-.35 3.85-2.8 1-1.9.65-3.55 1.7-2.15 2.9-4.95 4.25 1.15 8 3.15-1.25-11.95-11.7-19.8-12.75-9.6-28.05-13.5-13.4-3.3-26.95-5.25l15.65-1.55q21.15-.8 41.6 5.05l.5.25q11.85 5.05 20.5 11.15 17.6 12.45 21.65 29.25m-135 14.5q-.25-1.6.95-2.45l7.75-.4q-.3-4.05.5-7.75.45-2.05 2.35-2.85h1.25l4.1.2q1.8.5 3.6 1.4.95 1.5 1.35 3 .85 3.55 3.55 5.55h2.45l2.45-1.6q.9-3.2 2.05-6.2 2.6-7 10.95-4l.6.95q1.8 4.95 1.45 10.45l1.65.85 4.85 3.25-.4 7.7-1.6 2.05q-1.8.9-3.65.5-6.15-.85-10.2-6.2h-2.45l-2.05.4q-.7.05-.4.85l.1.35q.8 1.15 1.95 1.65l3.65 1.65 1.8 1.85q1.5 1.5 1.45 3.45l-2.45 1.2-.4.95q-15.15-3.6-30.25-11.75l-3.75-2.6-3.2-2.4v-.05m-54.9 18.35 61.45 70.8v132.9l-56.6-66.4-2-76.2-2.85-61.1" fill="#7b7a02" fill-rule="evenodd" transform="translate(-157.25 -53.7)"/><path d="M241 122.05q1.1 2.4.1 4.3-1.05 1.9-3.7 2.3t-5-.85q-2.4-1.3-3.55-3.7-1.15-2.5-.15-4.4 1.05-1.95 3.75-2.35 2.65-.35 5.05.95 2.35 1.3 3.5 3.75" fill="#e4e307" fill-rule="evenodd" transform="translate(-157.25 -53.7)"/><path d="m383.9 152.25.45-6-2.8-3.8-41.8 83.8-9.8 143.6 8.2-6 4-130.4 41.75-81.2-3.75 48.4-5.4 93.6-36.6 69.6m43.4-221.4-16.4-14.8q1.35 38.75-33 59.4-24.45 17.1-62.2 15-39.45 1.1-68.8-22.8-22.55-24.15-21.75-47.6l-14.05 28.6 26.2 27.6 34.6 38.4h113.6M354 121.9q2.85-13.25-1.05-29.65-12.35-17.45-34.2-28.6-35.35-14.25-76.8-7-38.1 9.25-56.2 42.4-3.5 7.05-4.95 14.3-1.45 6.85-1.05 13.9l-22 35.6.35 6.9 61.45 70.8v-9.1l6.6-5.2m120.75-114.9q-5.2-11.05-13.15-19.9-29.5-30.1-96.8-23.2M348 136.9q2.6-4.3 4.3-9l.3-.85q-2.25-8.35-5.7-15.7m-12.15 39.95q5.85-4.55 10-9.8l3.25-4.6q-4.05-16.8-21.65-29.25-8.65-6.1-20.5-11.15l-.5-.25q-20.45-5.85-41.6-5.05l-15.65 1.55m60.9 72 1.35-.5q12.45-4.6 21.5-10.85l2.25-1.65m.65-.45-.45.3-.2.15m18.5-24.7 1.4-5.15m5.75 9.55q-1.2 15.35-14.8 34.8m20.2-38.6q-2.6-19.45-12.2-35.4m-158.3 38.8q.85-1.8 1.8-3.45 14.2-25.5 44.3-33.55l7.05-1.25.3-.05m2.3 75.5q25.6 5.95 51.2-1.15l4-1.2 3.4-1.15m-118.45-44.1v.05q.8 3.35 2.25 6.65l1.85 3.7q4.6 8.45 13.5 16.35l4.85 4.05 3.2 2.4 3.75 2.6q15.1 8.15 30.25 11.75l.2.05m-70.65-41q-.3 2.2-.35 4.4m8.35 61.6 3.8-5.4m-2.2-52Q193 149.4 211.7 160.4l3.25 1.85m-19.2-1.2q22.65 21.4 57.6 26.4 48.15 6.35 83.6-19.2m-96 23.8q33 8.65 66.8 0m-107.6-91.8q13.65-17.15 34-19.6m-14.6 150.8.5 9.65 6.7 134.95 103.2-6.2m-110.4-129.3.5.55m-.5 132.35 7.2 2.6m-68.65-206.3 2.85 61.1 2 76.2 56.6 66.4v-132.9m37.8-162.7q40.75-2.6 68 16.4" fill="none" stroke="#000" stroke-linecap="round" stroke-linejoin="round" stroke-opacity=".4" transform="translate(-157.25 -53.7)"/></g></defs></svg>