<svg viewBox="0 0 283.18 299.4" xmlns="http://www.w3.org/2000/svg" xmlns:xlink="http://www.w3.org/1999/xlink"><g transform="translate(-146.28 -36.296)"><use transform="translate(146.3 78.5)" width="283.15" height="257.15" xlink:href="#a"/><use transform="translate(196.55 185.24) scale(1.171)" width="32.75" height="25.8" xlink:href="#b"/><use transform="translate(303.6 36.3)" width="101.85" height="229.75" xlink:href="#c"/></g><defs><g id="a"><path d="m211.65 266.15-.05-.05q-1.25-1.65-3.5-2l-7.1 9.5q-25.55-13.55-43.65-42.05 70.05 48.85 125.6 51.3-29.35 5.45-53.55.7l.3-1.75-1.25-1.55q-1.15-.85-2.7.25l-.7 2.1q-9.2-2.2-17.65-5.9l5.3-8.05q-.35-1.5-1.05-2.5" fill="#7b7a02" fill-rule="evenodd" transform="translate(-146.3 -78.5)"/><path d="M409.4 83.8q-2.1 1.1-3.05 1.2l-2.4.15-4.65-.4q-4.05-.65-6.75-2l-2.1-1.4-.45-1.1q.25-1.2 3.2-1.6l7.05.3q4.05.65 6.75 1.95 2.7 1.35 2.55 2.55-.15.8-.15.35m17.7 155.5-1.85 4.7q-6.75 16.45-43.85 34.5-25.4 12.35-56.35 17.2-19.9 3.1-42.05 3.1-29.95 0-55.25-5.75l1.15-6.65q51.85 12.4 106.5-1.5l.3.3.1-.15.45.15q28.6-5.75 53.9-19.65 21.25-2.1 30.3-20.6l6.65-5.65m-205.05 52.4q-10.55-2.75-20.25-6.5l4.35-6.55 18 6.7-2.1 6.35m-27.5-9.5-8.25-3.9q-31.5-16.1-38.2-37.5 20.05 25.1 50.6 35.85l-4.15 5.55m130.5 13.5q5.9-5 10.65-10.5-4.75 5.5-10.65 10.5" fill="#7d9717" fill-rule="evenodd" transform="translate(-146.3 -78.5)"/><path d="M403.95 85.15q-2.25 39.35 1.5 79.85l-.45.05-.45-.15.5.35q4.1 24 18.4 35.65l1.9 7.25q-34.55 21.35-71.5 32.65h-.05l-.05-3.1q-.95-26.4-20.35-47.95 19.4 21.55 20.35 47.95l.05 3.1v.05q-1 .25.05 0-21.5 6.35-41.7 9.35-51.85 7.75-90.85-4.4-17.7-5.55-28.2-14.25-10.65-8.85-12-19.4-1.45-11.05 7.7-22.35 9.85-12.1 31-23.1 11.4-5.9 29.45-7.25l1.65-.1q-40.6 31.25 81.8 29.6l.4.45.3.35.4-.4q51.85-2.5 33.45-12.65 7.6 1.85 9.65 1.35 14.7-3.65 19.4-21.85 1.5-5.85 2-13.15 1.6-24.05-7.85-61.7l2.1 1.4q2.7 1.35 6.75 2l4.65.4m-3.8 71.25-1.35 4.05q-1.35-1.85-2.5-4.25 1.15 2.4 2.5 4.25l1.35-4.05m-2.4 7.2 1.05-3.15q2.5 3.25 5.75 4.45-3.25-1.2-5.75-4.45l-1.05 3.15m-171.6 42.3 5.1 4.55q-7.3 5.55-14.3 13 7-7.45 14.3-13l-5.1-4.55m8.35 7.5-3.25-2.95q7.15-5.5 14.6-9.1l4.55 5.35-4.55-5.35q-7.45 3.6-14.6 9.1l3.25 2.95m39.3-19.2q-5.6.2-11.05 1.35l-1.5-3.85 1.5 3.85q5.45-1.15 11.05-1.35m-8.35 8.35-2.7-7q-8.65 1.75-16.9 5.8l-4.65-5.5 4.65 5.5q8.25-4.05 16.9-5.8l2.7 7" fill="#bfcd1b" fill-rule="evenodd" transform="translate(-146.3 -78.5)"/><path d="m403.95 85.15 2.4-.15q.95-.1 3.05-1.2-5.95 22.7.3 57.85 1.6 8.9 4.75 22.75 3.5 15.25 9 36.5-14.3-11.65-18.4-35.65l.4-.1V165q-3.75-40.5-1.5-79.85m3.75 77.05 1.3 3.35-3.55-.4 3.55.4-1.3-3.35m-156.8-2.85q7.6-.35 32.1-.35l9.8.5q19.1 1.7 47.95 9.75l23.35 6.65 3.15.8q18.4 10.15-33.45 12.65l-1.1-.4q-122.4 1.65-81.8-29.6m41.9.15q25.1 13.35 39.9 29.45-14.8-16.1-39.9-29.45m118 10.6-1.8-4.55q2.55-.1 5.45-1.15-2.9 1.05-5.45 1.15l1.8 4.55" fill="#d2e11e" fill-rule="evenodd" transform="translate(-146.3 -78.5)"/><path d="M405.45 165v.15l-.45-.1.05.2-.5-.35.45.15.45-.05m-71.65 24.35-.4.4-.3-.35-.4-.45 1.1.4-.7.05.7-.05m20 51.45h.05l-.05.05v-.05m51.25-75.55-.05-.2.45.1-.4.1" fill="#d13232" fill-rule="evenodd" transform="translate(-146.3 -78.5)"/><path d="M353.85 240.8q36.95-11.3 71.5-32.65l2.6 10.05q2 7.45 1.3 12.9-.4 3.15-2.15 8.2l-6.65 5.65q3.9-8 5.55-19.05-15.35 32.6-44.5 39.85 4.55.2 8.65-.2-25.3 13.9-53.9 19.65l.4-.5.1-.15-.15-.15q.1-.4-.5.35l-.7.15q-54.65 13.9-106.5 1.5l.5-2.85q24.2 4.75 53.55-.7-55.55-2.45-125.6-51.3 18.1 28.5 43.65 42.05l-2.3 3.05q-30.55-10.75-50.6-35.85-1.8-5.75-1.8-11.9 0-28.95 40-49.45 15.5-7.9 33.5-12.75-21.15 11-31 23.1-9.15 11.3-7.7 22.35 1.35 10.55 12 19.4 10.5 8.7 28.2 14.25 39 12.15 90.85 4.4 20.2-3 41.7-9.35v-.05m29.8-3.05q-.45.6-.2 1.35.25.8.95 1l1.45.05.95-.5 1.15.7 3.6.2q1.9-.6 2.9-2.2.95-1.6.45-3.25t-2.2-2.4l-3.65-.15q-1.9.55-2.85 2.2-.65 1-.65 2.05l-.7.1q-.8.25-1.2.85m-46.9 46.8q15.25-20.5 17.1-43.7-1.85 23.2-17.1 43.7M207.4 276.7q8.45 3.7 17.65 5.9l-.9 2.75-18-6.7 1.25-1.95" fill="#8ba81a" fill-rule="evenodd" transform="translate(-146.3 -78.5)"/><path d="M353.85 240.85q-1.05.25-.05 0l.05-.05v.05m-17.1 43.7-.1.15-.4.5.25-.5-.4.05-.3.3.3-.3.4-.05-.25.5-.45-.15-.4-.15.7-.15q.6-.75.5-.35l.15.15m-.1.15h-.15l.1-.3-.1.3h.15" fill="#a52525" fill-rule="evenodd" transform="translate(-146.3 -78.5)"/><path d="m335.8 285.05-.1.15-.3-.3.4.15" fill="#731a1a" fill-rule="evenodd" transform="translate(-146.3 -78.5)"/><path d="m219.45 299.55 2.6-7.85 2.1-6.35.9-2.75.7-2.1q1.55-1.1 2.7-.25l-3.75 18.85-2.15-.65q-2.45-.45-3.1 1.1m-35.6-3.1 10.7-14.25 4.15-5.55 2.3-3.05 7.1-9.5q2.25.35 3.5 2l.05.05-21.8 30.9-.95-.65q-3.35-2-5.05.05" fill="#425e88" fill-rule="evenodd" transform="translate(-146.3 -78.5)"/><path d="m227.75 293.05-1.4 8.05v.1q-1.15 1.8-4.6.85-2.3-.65-2.35-2.4l.05-.1q.65-1.55 3.1-1.1l2.15.65 3.75-18.85 1.25 1.55-.3 1.75-.5 2.85-1.15 6.65m-25.95-7.85-10.2 15.45v.05q-1.75 2.1-5.05.3t-2.7-4.55q1.7-2.05 5.05-.05l.95.65q2.25 1.65 1.75 3.6.5-1.95-1.75-3.6l-.4.5.4-.5 21.8-30.9q.7 1 1.05 2.5l-5.3 8.05-1.25 1.95-4.35 6.55m23 13.95-.1-.05.1.05q1.3.7 1.55 1.95-.25-1.25-1.55-1.95" fill="#2c3e58" fill-rule="evenodd" transform="translate(-146.3 -78.5)"/><path d="M390.15 265.55q-4.1.4-8.65.2 29.15-7.25 44.5-39.85-1.65 11.05-5.55 19.05-9.05 18.5-30.3 20.6" fill="#706f03" fill-rule="evenodd" transform="translate(-146.3 -78.5)"/><path d="M263.1 5.3q-2.1 1.1-3.05 1.2l-2.4.15-4.65-.4q-4.05-.65-6.75-2l-2.1-1.4q9.45 37.65 7.85 61.7-.5 7.3-2 13.15m-6.3-75.95q.25-1.2 3.2-1.6l7.05.3q4.05.65 6.75 1.95 2.7 1.35 2.55 2.55-.15.8-.15.35-5.95 22.7.3 57.85 1.6 8.9 4.75 22.75 3.5 15.25 9 36.5M243.7 1.75q-.1.55.45 1.1l-.45-1.1m-139.1 79.1q7.6-.35 32.1-.35l9.8.5q19.1 1.7 47.95 9.75l23.35 6.65 3.15.8q7.6 1.85 9.65 1.35Q245.3 95.9 250 77.7m29.05 51.95-1.9-7.25M104.6 80.85l-1.65.1Q84.9 82.3 73.5 88.2m205.55 41.45 2.6 10.05q2 7.45 1.3 12.9-.4 3.15-2.15 8.2l-1.85 4.7q-6.75 16.45-43.85 34.5-25.4 12.35-56.35 17.2-19.9 3.1-42.05 3.1-29.95 0-55.25-5.75l-1.4 8.05v.1q-1.15 1.8-4.6.85-2.3-.65-2.35-2.4l.05-.1 2.6-7.85q-10.55-2.75-20.25-6.5l-10.2 15.45v.05q-1.75 2.1-5.05.3t-2.7-4.55l10.7-14.25-8.25-3.9Q8.5 183.7 1.8 162.3 0 156.55 0 150.4q0-28.95 40-49.45 15.5-7.9 33.5-12.75m9.1 119.7-1.15 6.65m-37.9 4-.95-.65q-3.35-2-5.05.05M54.7 195.1l-2.3 3.05-4.15 5.55m17.1-16.05q.7 1 1.05 2.5l-5.3 8.05-1.25 1.95-4.35 6.55m23.25-2.6.7-2.1q1.55-1.1 2.7-.25l1.25 1.55-.3 1.75-.5 2.85m-27.9-12.8 7.1-9.5q2.25.35 3.5 2m12.55 19.25.9-2.75m-.9 2.75-2.1 6.35m-2.6 7.85q.65-1.55 3.1-1.1l2.15.65m.1.05q1.3.7 1.55 1.95m-36.5-4.05q2.25 1.65 1.75 3.6" fill="none" stroke="#423213" stroke-linecap="round" stroke-linejoin="round" stroke-opacity=".502" stroke-width=".05"/><path d="m259.15 86.65 3.55.4-1.3-3.35m15.75 38.7 1.05 2.05M250 77.7q1.15 2.4 2.5 4.25l1.35-4.05m-66.75 33.35q19.4 21.55 20.35 47.95l.05 3.1m50.75-75.9q-3.25-1.2-5.75-4.45l-1.05 3.15m-64.35 26.15-.3-.35-.4-.45Q171.6 94.35 146.5 81m61 81.35v-.05m-20.7-51.4.7-.05-1.1-.4m72.75-23.8-.45-.1.05.2m9.4-.85q-2.9 1.05-5.45 1.15l1.8 4.55m-6.25-5.2.45.15m-51.15 75.8q-1.85 23.2-17.1 43.7l-.1.15-.4.5.25-.5-.4.05-.3.3.45.15m.35-.8-.1.3h.15m-.85.35-.1.15q-4.75 5.5-10.65 10.5m10.35-10.8.4.15m.3-.3-.7.15m1.2-.5q.1-.4-.5.35m-74.85-93.05 1.5 3.85q5.45-1.15 11.05-1.35m-23.4 12.5-4.55-5.35q-7.45 3.6-14.6 9.1l3.25 2.95m-17.55 10.05q7-7.45 14.3-13l-5.1-4.55M65.3 187.6l.05.05M78.4 220.6l.1.05m-35.35-1.6.4-.5m51.35-101.2 4.65 5.5q8.25-4.05 16.9-5.8l2.7 7" fill="none" stroke="#000" stroke-linecap="round" stroke-linejoin="round" stroke-opacity=".302" stroke-width=".05"/><path d="M185.65 307.9q1.25 8.8.8 13.2-.7 6.75-4.15 10.95-4.2 5.05-10.95 3.05-2.8-.8-4.5-2.6-1.8-1.9-1.55-4 1.45-11.7 20.35-20.6" fill="#7d9717" fill-rule="evenodd" transform="translate(-146.3 -78.5)"/><path d="M39.35 229.4Q20.45 238.3 19 250q-.25 2.1 1.55 4 1.7 1.8 4.5 2.6 6.75 2 10.95-3.05 3.45-4.2 4.15-10.95.45-4.4-.8-13.2z" fill="none" stroke="#000" stroke-linecap="round" stroke-linejoin="round" stroke-opacity=".302" stroke-width=".05"/><path d="M218.05 319q-1.05-.15-1.75-.75-.75-.65-.75-1.4-.05-4.4 6.5-8.5.85 3.2.9 4.85.05 2.5-1 4.2-1.35 2.05-3.9 1.6" fill="#7d9717" fill-rule="evenodd" transform="translate(-146.3 -78.5)"/><path d="M71.75 240.5q2.55.45 3.9-1.6 1.05-1.7 1-4.2-.05-1.65-.9-4.85-6.55 4.1-6.5 8.5 0 .75.75 1.4.7.6 1.75.75z" fill="none" stroke="#000" stroke-linecap="round" stroke-linejoin="round" stroke-opacity=".302" stroke-width=".05"/></g><g id="c"><path d="M388.55 70.45q1.15 1.3 0 2.7-2.15 2.7-7.25 7.45-5.15 4.65-12 7.3-6.8 2.6-11.35 1.5-4.6-1.05-4.1-5.15.45-4.1 5.6-8.85 5.05-4.8 11.85-7.3 6.85-2.6 13.15-.1 3.05 1.15 4.1 2.45-15.45-2.2-32.05 14.65 16.6-16.85 32.05-14.65m-1.5-3.8q-2.4-3.7-1.3-10.6 1-7 4.5-12.55 3.55-5.6 7.6-6.55 4-.9 6.15 3.4 2.05 4.2-.3 10.25-2.5 6-3.55 6.7-1.05.6-5.9 6.8-2.45 3.15-4.3 3.75-1.75.55-2.9-1.2M398.9 40q-8.55 12.35-8.95 27.85.4-15.5 8.95-27.85" fill="#f60" fill-rule="evenodd" transform="translate(-303.6 -36.3)"/><path d="m388.55 70.45 1.55.25m-1.55-.25q1.15 1.3 0 2.7-2.15 2.7-7.25 7.45-5.15 4.65-12 7.3-6.8 2.6-11.35 1.5-4.6-1.05-4.1-5.15.45-4.1 5.6-8.85 5.05-4.8 11.85-7.3 6.85-2.6 13.15-.1 3.05 1.15 4.1 2.45-15.45-2.2-32.05 14.65m30.55-18.45q-2.4-3.7-1.3-10.6 1-7 4.5-12.55 3.55-5.6 7.6-6.55 4-.9 6.15 3.4 2.05 4.2-.3 10.25-2.5 6-3.55 6.7-1.05.6-5.9 6.8-2.45 3.15-4.3 3.75-1.75.55-2.9-1.2m2.9 1.2q.4-15.5 8.95-27.85" fill="none" stroke="#c30" stroke-linecap="round" stroke-linejoin="round" transform="translate(-303.6 -36.3)"/><path d="M383.65 237.75q.4-.6 1.2-.85l.7-.1q0-1.05.65-2.05.95-1.65 2.85-2.2l3.65.15q1.7.75 2.2 2.4t-.45 3.25q-1 1.6-2.9 2.2l-3.6-.2-1.15-.7-.95.5-1.45-.05q-.7-.2-.95-1-.25-.75.2-1.35M304.55 256.5q1.25-1.9 3.75-2.65l2.2-.35q0-3.3 2.05-6.45 3-5.2 9-6.9 5.95-1.9 11.5.45 5.35 2.35 6.9 7.55 1.6 5.2-1.4 10.25-3.15 5.05-9.15 6.95-5.95 1.7-11.35-.65-2.2-.95-3.6-2.2-.95.95-3 1.55l-4.55-.15q-2.2-.6-3-3.15-.8-2.35.65-4.25" fill="#e4e307" fill-rule="evenodd" transform="translate(-303.6 -36.3)"/></g><path d="m11.95-11.8 2.55.1q1.25.3 1.7 1.75.45 1.3-.35 2.4-.7 1.05-2.1 1.5l-1.2.25q-.05 1.8-1.1 3.6-1.7 2.85-5.1 3.95-3.4 1.05-6.4-.3Q-3.1.1-4-2.75q-.95-2.9.8-5.75 1.65-2.85 5.05-3.9l6.45.25q1.15.5 2 1.3.5-.6 1.65-.95M-15.8 9q.8-1.1 2.1-1.5l2.6.05q1.3.45 1.6 1.5.35 1-.45 2.15-.8 1.1-2.1 1.5t-2.6 0q-1.3-.5-1.65-1.5-.35-1.1.5-2.2" fill="#e4e307" fill-opacity=".62" fill-rule="evenodd" transform="translate(16.4 12.9)" id="b"/></defs></svg>