<svg viewBox="0 0 30.2 28.75" xmlns="http://www.w3.org/2000/svg" xmlns:xlink="http://www.w3.org/1999/xlink"><use transform="translate(.03 .03)" width="30.15" height="28.7" xlink:href="#a"/><defs><g id="a"><path d="m212.8 271.8 2.2-.3-.05-1.2 2.6-1.8 3.05-1.25 8.15 6.95 2.1 5.3-9.95-7.2-1.55-.05-1.35.6-2.65 1.35-3.9 2.5-.8.6q-3.65 2.9-6.6 6.75l-.1-.55 6.95-10.35 1.9-1.35m5.9.2 1.15-1.4-1.2-1.3-2.2.9-.45 2.1 2.7-.3m-4.15.95-1.1-.5-1.35 1.25-.05.95 1.45-.1.7-.45h.25l.1-1.05v-.1m1.5 11.5-.75 5.1-4.2 1.25-1.85-3.8 3.4 2.15 2.45-3.4.95-1.3m-6.45-7.65 1.1-.1.4-.9-.7-.6-.8 1.6m19.35 10.35.2 3-3.6.35-2.55-4.7.3.3 3.1 3.05 2.55-2" fill="#f2b7b7" fill-rule="evenodd" transform="translate(-203.95 -267.25)"/><path d="m218.7 272-2.7.3.45-2.1 2.2-.9 1.2 1.3-1.15 1.4m-4.15.95v.1l-.1 1.05h-.25l-.7.45-1.45.1.05-.95 1.35-1.25 1.1.5m-4.95 3.85.8-1.6.7.6-.4.9-1.1.1" fill="#ffecec" fill-rule="evenodd" transform="translate(-203.95 -267.25)"/><path d="M204.05 284.05q2.95-3.85 6.6-6.75l.8-.6 3.9-2.5 2.65-1.35 1.35-.6 1.55.05 9.95 7.2 3.25 8.15-2.65 3.2-11.15 5.1L212 294l-7.25-5.8-.7-4.15m12 .4.4-.55-.35-3-2.75-2.65-3.05 2.95-1.65 1.65-.1 3.7.7.45 1.85 3.8 4.2-1.25.75-5.1m11.8-.8-1.75-2.5-2.4-.45-.85 5 .15.1 2.55 4.7 3.6-.35-.2-3 .8-.7-1.9-2.8" fill="#d98686" fill-rule="evenodd" transform="translate(-203.95 -267.25)"/><path d="m210.3 281.2 3.05-2.95 2.75 2.65.35 3-.4.55-.95 1.3-2-.35-2.8-4.2m12.7 4.6-.15-.1.85-5 2.4.45 1.75 2.5-1 1.75-3.55.7-.3-.3" fill-rule="evenodd" transform="translate(-203.95 -267.25)"/><path d="m209.25 287-.7-.45.1-3.7 1.65-1.65 2.8 4.2 2 .35-2.45 3.4-3.4-2.15m18.6-3.35 1.9 2.8-.8.7-2.55 2-3.1-3.05 3.55-.7 1-1.75" fill="#853636" fill-rule="evenodd" transform="translate(-203.95 -267.25)"/><path d="M8.85 4.55 6.95 5.9 0 16.25l.1.55m26.8-4.55-2.1-5.3L16.65 0 13.6 1.25 11 3.05l-2.15 1.5m-2.5 9.4L9.4 11l2.75 2.65.35 3-.4.55m-6.8 2.55-.7-.45.1-3.7 1.65-1.65 2.8 4.2 2 .35.95-1.3m14.8-4.95 3.25 8.15-2.65 3.2-11.15 5.1-8.3-1.95-7.25-5.8-.7-4.15m11.05 1.7L8.7 21.9l-3.4-2.15m13.75-1.2-.15-.1.85-5 2.4.45 1.75 2.5 1.9 2.8-.8.7m-5.95-1.35.3.3 3.55-.7 1-1.75m-4.55 2.45 3.1 3.05 2.55-2" fill="none" stroke="#000" stroke-linecap="round" stroke-linejoin="round" stroke-opacity=".302" stroke-width=".05"/></g></defs></svg>