<svg viewBox="0 0 52.395 31.406" xmlns="http://www.w3.org/2000/svg" xmlns:xlink="http://www.w3.org/1999/xlink"><use transform="translate(.02 -.03)" width="52.4" height="31.4" xlink:href="#a"/><defs><g id="a"><path d="m268.25 198.05.55-.75 1.5-1.75q-.8.9.3 0 2.2-1.75 4.7-2.95l.35-.2.75-.25.9-.05q-2.1 1.8-3.4 5.95-1.2 3.8 1.25 1.5 2.2 6.5 5.45 6.95 2.95.45 16.8 0l.05.5-2.3.6-1.75.5-.05.05-1.55.55q-4.05 1.5-11.15 2.85l-8-.45-.35-.05q-3.95-.8-4.25-6.45l-.1-6.1.3-.45m11.5 13.65 1.05-.15-1.1.2.05-.05m-6.7 1.05q-1.05.8-1.75.75-.75-.1-1-.45l2.75-.3" fill="#de7a01" fill-rule="evenodd" transform="translate(-261.15 -188.85)"/><path d="m277.3 192.1-.1-.25 7-2.7 1.05-.25 5.05.35.25.05q3.9.8 9.65 2.85 1.2.15 3.25 2.9l-.1.1.1.1.45.4v.05l.45.6.1.1.3 1.15-.25-1.05 1.9 3.1v.05l.5 1.15q.3.8.15 2.65-.2 1.8-5.55 2.7l-1.6.3-2.5.05q-13.85.45-16.8 0-3.25-.45-5.45-6.95-2.45 2.3-1.25-1.5 1.3-4.15 3.4-5.95m6.9.65q-.4 1.15 3.05 2.1 3.4.9 8.5 3.55t7.9 2.25q2.75-.45-2.4-4.6-5.15-4.2-7.85-4.7l-3.25-.4-3.05.4q-2.5.3-2.9 1.4" fill="#f8bd5c" fill-rule="evenodd" transform="translate(-261.15 -188.85)"/><path d="m311.05 202.35.25-.05.75 1.15 1.2 2.1.05.05v.05l.2 1.05-.05 1.6-.15.55-.1.3v.1l-.4.8v.05l-.2.25q-1.7 2.6-6.4 3.8l-4.8-.45h-.05l-1.15.45-1.5.6-.6.2q-9.45 3.4-19.2 4.7l-.65.1.05-.05-1.8.25-.65.05-1.65.15q-6.75.55-10.2-1.75l-.55-.4-.35-.3-.2-.2h-.05l-.6-.7q-.85-1.05-1-2.25l.5-.1q1.2 1.8 3.55.75-1.35 2.1 7.45 2.6h1l2.55-3.1q.3 1.5 1.9 2.1 3.05 1.1 10.8-1.1l9.4-2.85q4.3-1.45 6.45-2.45l-2-2.3q3.55 1.6 3.75 2.05l.55-2.05.5.45q2.35 2.05 3.6.75l-2.55-4.75 3.3.95-.95-3.15m-45.45 6.25.05-.45v-.35l.45-1.95 1.1-5.7q.05-.6.75-1.65l.1 6.1q.3 5.65 4.25 6.45l.35.05 8 .45-.9.15-.05.05-6.65 1-2.75.3-2.1.1-.55-.05q-2.35-.35-2.05-4.5m38.6 3.55-2.8 1.55 2.8-1.55" fill="#c96f01" fill-rule="evenodd" transform="translate(-261.15 -188.85)"/><path d="M284.2 192.75q.4-1.1 2.9-1.4l3.05-.4 3.25.4q2.7.5 7.85 4.7 5.15 4.15 2.4 4.6-2.8.4-7.9-2.25t-8.5-3.55q-3.45-.95-3.05-2.1" fill="#feaa45" fill-rule="evenodd" transform="translate(-261.15 -188.85)"/><path d="m306.9 200.8.3-.05q3.1-.1 4 1.35l-.05.15-.15-.05.05.15.95 3.15-3.3-.95 2.55 4.75q-1.25 1.3-3.6-.75l-.5-.45-.55 2.05q-.2-.45-3.75-2.05l2 2.3q-2.15 1-6.45 2.45l-9.4 2.85q-7.75 2.2-10.8 1.1-1.6-.6-1.9-2.1l-2.55 3.1h-1q-8.8-.5-7.45-2.6-2.35 1.05-3.55-.75l-.5.1q-.3-1.65.35-2.35l2.25-2.35 1.3-1.3.45.05q-.3 4.15 2.05 4.5l.55.05 2.1-.1q.25.35 1 .45.7.05 1.75-.75l6.65-1 1.1-.2-1.05.15.9-.15q7.1-1.35 11.15-2.85l1.55-.55.05-.05 1.75-.5 2.3-.6-.05-.5 2.5-.05 1.6-.3q5.35-.9 5.55-2.7.15-1.85-.15-2.65m-7 5.65h-.05l.3-.05-.25.05" fill="#e27c01" fill-rule="evenodd" transform="translate(-261.15 -188.85)"/><path d="m7.1 9.2.55-.75 1.5-1.75q-.8.9.3 0 2.2-1.75 4.7-2.95l.35-.2.75-.25m.8-.3 7-2.7L24.1.05l5.05.35.25.05q3.9.8 9.65 2.85 1.2.15 3.25 2.9m.45.6v.05l.45.6.1.1m.05.1 1.9 3.1v.05l.5 1.15.3-.05q3.1-.1 4 1.35m.1.2.75 1.15 1.2 2.1.05.05v.05l.2 1.05-.05 1.6-.15.55-.1.3v.1l-.2.4m-.2.45-.2.25q-1.7 2.6-6.4 3.8l-4.8-.45h-.05l-1.15.45-1.5.6-.6.2q-9.45 3.4-19.2 4.7l-.65.1m.05-.05-1.8.25-.65.05-1.65.15q-6.75.55-10.2-1.75l-.55-.4-.35-.3-.2-.2H1.7l-.6-.7Q.25 26.9.1 25.7q-.3-1.65.35-2.35L2.7 21 4 19.7m.45.05.05-.45v-.35L4.95 17l1.1-5.7q.05-.6.75-1.65m38.95 2.3q.3.8.15 2.65-.2 1.8-5.55 2.7l-1.6.3m-2.45.55-2.3.6-1.75.5-.05.05-1.55.55q-4.05 1.5-11.15 2.85l-.9.15 1.05-.15-1.1.2-6.65 1-2.75.3-2.1.1-.55-.05q-2.35-.35-2.05-4.5m35.8 5.1 2.8-1.55" fill="none" stroke="#1f1f16" stroke-linecap="round" stroke-linejoin="round" stroke-opacity=".502" stroke-width=".05"/><path d="m37 12.35-.6-.75q-.65-1-.55-2.25.25-1.2.75-2.1-3.2 2.25-7.15 1.35Q26.8 8 25.8 6.45q-1.4 4.35-7.45 2.3-3.5-1.55-2.9-4 1.65-2.85 6.4.2.5.85.5 1.8-.1.9-1.35.55M22.3.7l.2.3 2.2 2.75q3.3 1.5 5.25 1.6 3.1.2 5.45-1.4m-10.7-.2q1.55 2.2 1.1 2.7m10.8.8h.05V7.2l1.4-1.5 1.2-1.2q.35-.3.8-.5m-26.2 6.15q-1.15-.35-1.6.6t.6 1.35q3.15.75 4.8-.3 2.25-1.7-.55-3.2-6.25-2.45-7.75 1-.3 2.2 1.35 3.65 3.25 1.8 6.9.85 2.05-3 5.65-4.35 4.8-1.9 9.55.2 1.95.8 3.45 2.1l.5.45M17.6 14.1l-1.15 2.2-.15.4" fill="none" stroke="#832201" stroke-linecap="round" stroke-linejoin="round" stroke-opacity=".6" stroke-width=".05"/><path d="M8.2 26q18.25-1.3 35.35-7.9" fill="none" stroke="#feaa45" stroke-linecap="round" stroke-linejoin="round" stroke-width="2"/></g></defs></svg>