<svg viewBox="0 0 81.947 85.073" xmlns="http://www.w3.org/2000/svg" xmlns:xlink="http://www.w3.org/1999/xlink"><use transform="translate(0 .01)" width="81.95" height="85.05" xlink:href="#a"/><defs><g id="a"><path d="m213.8 180.95.2 1.1-.85 1.25q-2.25 2.8-4.65 2.3-2.3-.5-3.55-3.6l-.15.35.35-2.25q.65-2.15 2-2.8 2.35 4.35 6.65 3.65m27.25 3.35q3.6 1.7 6.75-1.95 1.05.9 1.15 3.15l-.2 2.25-.1-.35q-1.8 2.7-3.95 2.65-2.3-.05-3.6-3.3l-.5-1.4.45-1.05m-15.15.85q-.5-1-.3-2.25.1-1.25.75-2l.1-.15q.65-.85 1.45-.75l.4.15q.6.2 1.3.85.45.35.65 1.15l.05.2.2 1.05.05 1.25q-.05 2.75-.9 4.1t-2.1-.65l-1.65-2.95" fill="#f5eed3" fill-rule="evenodd" transform="translate(-186.85 -120.6)"/><path d="m234.9 127.05.15.05v.15l-.15-.2m-1.25 5.1-.05.3.05-.3m-1.3 18.5 1.3-1.75-1.15 2-.05.2-.1-.45m31.65 9.7 1.5-.95.85.2q.3.4.3 1.3l-.35 1.6-1 1.45-.55.35h-.1l-.8-.35q-.8-.65-.9-1.75-.1-1.15 1.05-1.85" fill="#dec696" fill-rule="evenodd" transform="translate(-186.85 -120.6)"/><path d="m263.5 153.35.7.05 1.45.55q1.2.75 1.95 2.4l.8 2.5.1.9.05 1.2-.4 1.4q-1.5 4.2-4.85 5.45l1.25.65-.35.05q1.6 2.4-.3 5.6l-.15.2q-2.4 2.25-4.85.9l.1 3.1-.05 1.3-.65 1.65q-5.45 4.4-9.95-2.25l-.85-1.7q-3.85 4.25-7.4-.15l-1-1.45q-.55-.95-.75-2l-.2-1.25-.9.9q-1.15.5-2.9-1.55-.8-4.3 1.1-8.55-3.85-3.55-3-12.15l.05-.2 1.15-2-1.3 1.75-.4.05-.5-.05-.25-.05q-3.2-.5-4.4-6.6l2.6-.35q-3.55 0-2.75-4.7 1.85-2.2 3.75-3.7l.3.05.15-.45 2.75-1.75q12.95-6.8 26.6 16.7l3.05 3.6.25-.05m-70.45 6.3 1.45-.3q-3.25-2.1-3.7-6.55l-.1-1.4.7-2.05q.55-1.25 1.45-2.2 1.2-1.45 2.65-1.85l1.7-.15.75.1-.15-.45-.3-2.05v-1.7l.1-.95v.95l.8-.75q16.65-15.85 18.45-4.5 12.45-15.5 8.95 2.9-1.2 2.4-1.6 5.7l-.8 4.35q-.4 2.15-.05 3.9l.65 1.9.35.55-.3.15-1.5 1.15-1.6 1.9-1.45 2.35-.15.45q-2.25 6.6-1.3 8.4l.85 1.2.55.5-1.45 1.9q-5.85 5.25-9.25-.6l-1.3 1.5q-6.5 5.25-11.05-.4l-.3-1.75.25-1.3q.4-1.6.9-2.9-2.95.65-4.9-2.15l-.1-.2q-1.25-3.6 1.1-5.5l-.3-.15m40.45-24.9.1-1.65-.1 1.65m-34.25 11.15-1.3-.65 1.3.65M264 160.35q-1.15.7-1.05 1.85.1 1.1.9 1.75l.8.35h.1l.55-.35 1-1.45.35-1.6q0-.9-.3-1.3l-.85-.2-1.5.95m-14.2 10.85q-.4 1.75.35 4.05l.85 1.6.1.1.95.3q1.1-.2 1.9-.8.75-.65 1.15-1.9.4-1.3.2-2.4-.2-1.2-.95-1.55l-2.4-.8q-1.75-.5-2.15 1.4m12.4-17.55 1.05-.25-1.05.25" fill="#f9f2e6" fill-rule="evenodd" transform="translate(-186.85 -120.6)"/><path d="m234.6 127 .05.05h.25l.15.2v-.15h.05l-.05.15-.3.6q-.8 1.9-1.1 4.3l-.05.3q-1.5-1.15-2.75 2.4l-.15.45-.3-.05-.35-.1-.9.05q.35-2.35 1.2-4.15l.95-1.7q1.55-2.35 3.3-2.35m29.95 41.45.8.45.15.05.25.2v-.05l.45.35.75 1.15q1.15 2.05.8 4.8l-.2 1.2-1 2.3q-3.2 1.85-4.9-.05l2.9 4.15v.05q.7 1.4.75 3.15l.05.7-.1 1.45q-.35 3.05-1.95 5.05-1.45 1.65-3.05 1.8-.55 2.65-2.25 4.45-1.95 1.95-4.2 1.85l-.3-.05q-1.95-.25-3.3-1.95-.5 2.5-2.15 4.2l-1.1.9q-1.35.9-2.95.8h-.3q-1.5-.2-2.6-1.15l-1.25-1.55-.05.1-3.85-6.2-1 .2q-5.55.85-8.5-1.5-3.8 1.55-9.35-.7l-1.05-.45-5.65 5.05v-.15l-1.75 1.2-3 .45-.3-.05q-1.75-.3-2.95-1.55l-.9-1.1q-1.35-2.1-1.25-4.6-1.85 1.25-3.95 1l-.3-.05q-2.45-.45-3.95-2.85-1.4-2.2-1.25-4.9-1.7-.55-2.75-2.5-1.25-2.3-.85-5.35l.3-1.45.2-.65q.5-1.7 1.6-2.9l.05-.05 4.05-3.3q-2.3 1.45-5.15-1.15-.45-1.15-.45-2.45l.05-1.25q.35-2.75 2.05-4.45l1.15-.9.4-.15.1-.1.05.05.3-.1h.15l1-.25.3.15q-2.35 1.9-1.1 5.5l.1.2q1.95 2.8 4.9 2.15-.5 1.3-.9 2.9l-.25 1.3.3 1.75q4.55 5.65 11.05.4l1.3-1.5q3.4 5.85 9.25.6l1.45-1.9-.55-.5-.85-1.2q-.95-1.8 1.3-8.4l.15-.45 1.45-2.35 1.6-1.9 1.5-1.15.3-.15-.35-.55-.65-1.9q-.35-1.75.05-3.9l.8-4.35q.4-3.3 1.6-5.7l.5-.9.95-1.3-.6 2.45q-.8 4.7 2.75 4.7l-2.6.35q1.2 6.1 4.4 6.6l.25.05.5.05.4-.05.1.45q-.85 8.6 3 12.15-1.9 4.25-1.1 8.55 1.75 2.05 2.9 1.55l.9-.9.2 1.25q.2 1.05.75 2l1 1.45q3.55 4.4 7.4.15l.85 1.7q4.5 6.65 9.95 2.25l.65-1.65.05-1.3-.1-3.1q2.45 1.35 4.85-.9l.15-.2q1.9-3.2.3-5.6l.35-.05m-66.95-28.4-.6-.15.25.05h.1l.1.05.15.05m4.2 51.85-1.55 1.5 1.55-1.5m-11-5.3.65.15 1.85-.2-1.85.2-.65-.15m23-5.65q-4.3.7-6.65-3.65-1.35.65-2 2.8l-.35 2.25.15-.35q1.25 3.1 3.55 3.6 2.4.5 4.65-2.3l.85-1.25-.2-1.1m27.25 3.35-.45 1.05.5 1.4q1.3 3.25 3.6 3.3 2.15.05 3.95-2.65l.1.35.2-2.25q-.1-2.25-1.15-3.15-3.15 3.65-6.75 1.95m-15.15.85 1.65 2.95q1.25 2 2.1.65t.9-4.1l-.05-1.25-.2-1.05-.05-.2q-.2-.8-.65-1.15-.7-.65-1.3-.85l-.4-.15q-.8-.1-1.45.75l-.1.15q-.65.75-.75 2-.2 1.25.3 2.25m23.9-13.95q.4-1.9 2.15-1.4l2.4.8q.75.35.95 1.55.2 1.1-.2 2.4-.4 1.25-1.15 1.9-.8.6-1.9.8l-.95-.3-.1-.1-.85-1.6q-.75-2.3-.35-4.05m-39.4 27.85q1.6-1.5 2.2-3.6-.6 2.1-2.2 3.6m38.8-1.35 1 1.8-1-1.8m-9.35 5q-1.1-1.8-1.1-4.05 0 2.25 1.1 4.05m20.4-7.5-.65-.05-1.55-.65 1.55.65.65.05" fill="#ebdabe" fill-rule="evenodd" transform="translate(-186.85 -120.6)"/><path d="M197.6 140.05q.2-1.4.55-2.6l.1-.25q2.9-5.65 4.85-5.4 1.9.25 2.8 1.1.1-.85.35-1.55.45-1.4 1.2-2.35 1.3-1.65 2.8-1.45 1.1.15 1.85 1.15.65-2.45 2.1-4.25.85-1.15 1.85-1.75 1.25-.8 2.7-.6 2.3.25 3.7 3l1.2-1.75.65-.7h.1q.8-.8 1.65-1.25 1.25-.65 2.6-.55l.4.05q2.45.25 4.1 2.8l.4.7.1.15.95 2.45q-1.75 0-3.3 2.35l-.95 1.7q-.85 1.8-1.2 4.15l.9-.05.35.1q-1.9 1.5-3.75 3.7l.6-2.45-.95 1.3-.5.9q3.5-18.4-8.95-2.9-1.8-11.35-18.45 4.5l-.8.75v-1m37.5-12.95q.55-1.2 1.4-2.2l.15-.1.5-.6q2-2.1 4.3-1.8l.35.1q1.25.2 2.25 1.15l1.15 1.55.05.05.45.8.65 2q1.85-2.35 4-2.05 1.3.15 2.3 1.25.7.8 1.2 2.1.85 2.05.9 4.6.9-.8 1.9-.7 1.4.2 2.2 2.1l.5 2.55-.05 1.55q.95-.6 2.75-.35 1.75.2 3.05 6.4l.05.2-.15 2.7-.5 2.6-.8 1.95-.2.4-.25.05-3.05-3.6q-13.65-23.5-26.6-16.7v-.65.65l-2.75 1.75q1.25-3.55 2.75-2.4l.05-.3q.3-2.4 1.1-4.3l.3-.6.05-.15m22.5 14.05q.8-1.2 1.7-1.7-.9.5-1.7 1.7m-11.25-13.1.4 2.4-.4-2.4m6.55 9.15q.4-1.45 1.15-2.45l.7-.8-.7.8q-.75 1-1.15 2.45" fill="#fefcfa" fill-rule="evenodd" transform="translate(-186.85 -120.6)"/><path d="M10.75 19.45q.2-1.4.55-2.6l.1-.25q2.9-5.65 4.85-5.4 1.9.25 2.8 1.1.1-.85.35-1.55.45-1.4 1.2-2.35 1.3-1.65 2.8-1.45 1.1.15 1.85 1.15.65-2.45 2.1-4.25.85-1.15 1.85-1.75 1.25-.8 2.7-.6 2.3.25 3.7 3l1.2-1.75.65-.7h.1q.8-.8 1.65-1.25 1.25-.65 2.6-.55l.4.05q2.45.25 4.1 2.8l.4.7.1.15.95 2.45m.45.1h.05q.55-1.2 1.4-2.2l.15-.1.5-.6q2-2.1 4.3-1.8l.35.1q1.25.2 2.25 1.15l1.15 1.55.05.05.45.8.65 2q1.85-2.35 4-2.05 1.3.15 2.3 1.25.7.8 1.2 2.1.85 2.05.9 4.6.9-.8 1.9-.7 1.4.2 2.2 2.1l.5 2.55-.05 1.55q.95-.6 2.75-.35 1.75.2 3.05 6.4l.05.2-.15 2.7-.5 2.6-.8 1.95-.2.4.7.05 1.45.55q1.2.75 1.95 2.4l.8 2.5.1.9.05 1.2-.4 1.4q-1.5 4.2-4.85 5.45l1.25.65.8.45.15.05.25.2v-.05l.45.35.75 1.15q1.15 2.05.8 4.8l-.2 1.2-1 2.3q-3.2 1.85-4.9-.05l2.9 4.15v.05q.7 1.4.75 3.15l.05.7-.1 1.45q-.35 3.05-1.95 5.05-1.45 1.65-3.05 1.8-.55 2.65-2.25 4.45-1.95 1.95-4.2 1.85l-.3-.05q-1.95-.25-3.3-1.95-.5 2.5-2.15 4.2l-1.1.9q-1.35.9-2.95.8h-.3q-1.5-.2-2.6-1.15L53 82.1l-.05.1L49.1 76l-1 .2q-5.55.85-8.5-1.5-3.8 1.55-9.35-.7l-1.05-.45-5.65 5.05v-.15l-1.75 1.2-3 .45-.3-.05q-1.75-.3-2.95-1.55l-.9-1.1q-1.35-2.1-1.25-4.6-1.85 1.25-3.95 1l-.3-.05Q6.7 73.3 5.2 70.9 3.8 68.7 3.95 66q-1.7-.55-2.75-2.5-1.25-2.3-.85-5.35l.3-1.45.2-.65q.5-1.7 1.6-2.9l.05-.05 4.05-3.3q-2.3 1.45-5.15-1.15Q.95 47.5.95 46.2L1 44.95q.35-2.75 2.05-4.45l1.15-.9.4-.15.1-.1.05.05.3-.1h.15l1-.25 1.45-.3q-3.25-2.1-3.7-6.55l-.1-1.4.7-2.05Q5.1 27.5 6 26.55q1.2-1.45 2.65-1.85l1.7-.15.75.1-.15-.45-.3-2.05v-1.7l.1-.95v-.05m-.25-.1.1.05.15.05M48.25 6.5l-.05.15-.3.6q-.8 1.9-1.1 4.3l-.05.3v.65l-.1 1.65M76.4 32.8l.25-.05m-65.55-8.1 1.3.65M6.45 65.95l-1.85.2-.65-.15m9.45 6.8 1.55-1.5M67.9 13.35l-.7.8q-.75 1-1.15 2.45M59.9 9.85l-.4-2.4m12.95 11.4q-.9.5-1.7 1.7M76.4 32.8l-1.05.25M71.2 73.9l1.55.65.65.05m-21.5 3.45q0 2.25 1.1 4.05m10.35-3.2-1-1.8m-36.6-2.25q-.6 2.1-2.2 3.6" fill="none" stroke="#423212" stroke-linecap="round" stroke-linejoin="round" stroke-opacity=".502" stroke-width=".5"/></g></defs></svg>