<svg viewBox="0 0 103.36 73.4" xmlns="http://www.w3.org/2000/svg" xmlns:xlink="http://www.w3.org/1999/xlink"><g transform="translate(-223.77 -163.25)"><use transform="matrix(1 0 0 .9362 223.8 163.27)" width="53.6" height="78.35" xlink:href="#a"/><use transform="matrix(-1 0 0 .9362 327.1 163.27)" width="53.6" height="78.35" xlink:href="#a"/><use transform="translate(244.95 164.1)" width="60.1" height="69.7" xlink:href="#b"/></g><defs><g id="a"><path d="M32.5 10.75h-11q-7-.5-11.25-2.75 4.25 2.25 11.25 2.75h11v17.1q-6.25-.4-13.25-.1L14.4 28l-3.45.7q-1.5.45-2.85 1.2l-1.25.75-.2.1-.05.1q-1.4 2.7-2.35 5.3l-1.1 3.5q-1.1 4.6-.85 9.1l-17.7 2.55q-3.8-3.3-3.9-15-.05-3.15.65-5.45 3.2-11.05 22.65-3.1L7.75 16.5q.95-4.4-3.5-10.75Q5.9 3.45 9.95 2q3.95-1.4 9.8-2 5.4-.65 13.6-.1l-.85 10.85m1.05 64.85.05 2.4-10.85-.7q-5.8-.65-10.6-3.95-2.6-1.7-4.65-4l.85-4.15.15.25q2.95 4.3 8.4 7.3Q23 76 33.55 75.6M-2.8 45.3l.2-.8-.2.8m.2-.8q-.3-6.15 2.75-11.75l-2.2-1.9q-4.5-3.25-8.25-.75l-.5.75q-3.95 6.45-1.9 15.2Q-7.3 44-2.6 44.5" fill="#fdfdff" fill-opacity=".6" fill-rule="evenodd" transform="translate(19.3 .35)"/><path d="m6.65 30.75.2-.1 1.25-.75q1.35-.75 2.85-1.2-.7.5 5.35 2.45 6 1.95 16.3 1.6l.05 2.8-15.75-.75-2.15-.3q-6.8-1.15-8.05-3.65l-.05-.1m1.8 17.15-.05-.05v-.25q-.25-2.05 1.6-2.65h.15q2.85.25 2.25 3.4l-.65.45-.1.05-.8.05q-1.5-.05-2.4-1m24.6 4.4q1.25.15 0 .8l.3 12.15q-2.95 0-4.65-2.45-2.35-3.4-1-7.55 1-3 4.05-3l1.3.05m.4 18.1.1 5.2Q23 76 16.9 72.75q-5.45-3-8.4-7.3l-.15-.25q-2-2.85-3.3-5.75 1.45 2.3 3.65 4.05l1.7 1.15q3.2 2 6.85 3l4.15 1.05 6.7 1.3 5.35.4" fill="#cc210d" fill-rule="evenodd" transform="translate(19.3 .35)"/><path d="M2.3 48.75q-.25-4.5.85-9.1l1.1-3.5q.95-2.6 2.35-5.3l.05-.1.05.1q1.25 2.5 8.05 3.65l2.15.3 15.75.75.4 16.75-1.3-.05q-3.05 0-4.05 3-1.35 4.15 1 7.55 1.7 2.45 4.65 2.45l.05 2.6.75 1.6q.45.75-.7.95L28.1 70l-6.7-1.3-4.15-1.05q-3.65-1-6.85-3L8.7 63.5q-2.2-1.75-3.65-4.05L5 59.4q-2-4.35-2.55-8.7l-.05-.55-.1-1.4m8.65-20.05 3.45-.7 4.85-.25q7-.3 13.25.1l.1 4.9q-10.3.35-16.3-1.6-6.05-1.95-5.35-2.45m-2.5 19.2q.9.95 2.4 1l.8-.05.1-.05.65-.45q.6-3.15-2.25-3.4H10q-1.85.6-1.6 2.65v.25l.05.05" fill="#ff1d11" fill-rule="evenodd" transform="translate(19.3 .35)"/><path d="m-15.4 51.3 17.7-2.55.1 1.4.05.55Q3 55.05 5 59.4l.05.05q1.3 2.9 3.3 5.75l-.85 4.15q-1.8-2-3.15-4.4Q1.95 60.6.4 55.5q-1.6-5.1-10.55-3.1-1.85.4-3.25 0l-2-1.1" fill="#d5dcfd" fill-rule="evenodd" transform="translate(19.3 .35)"/><path d="M10.25 8q4.25 2.25 11.25 2.75h11" fill="none" stroke="#d5dcfd" stroke-linecap="round" stroke-linejoin="round" transform="translate(19.3 .35)"/><path d="M52.65.25q-8.2-.55-13.6.1-5.85.6-9.8 2-4.05 1.45-5.7 3.75 4.45 6.35 3.5 10.75L23.3 28.1Q3.85 20.15.65 31.2q-.7 2.3-.65 5.45.1 11.7 3.9 15m49 26.7-10.85-.7q-5.8-.65-10.6-3.95-2.6-1.7-4.65-4-1.8-2-3.15-4.4-2.4-4.35-3.95-9.45-1.6-5.1-10.55-3.1-1.85.4-3.25 0l-2-1.1m12.8-6.8-.2.8m.2-.8q-4.7-.5-10.1 1.55-2.05-8.75 1.9-15.2l.5-.75q3.75-2.5 8.25.75l2.2 1.9q-3.05 5.6-2.75 11.75" fill="none" stroke="#d5dcfd" stroke-linecap="round" stroke-linejoin="round" stroke-width=".05"/></g><g id="b" fill-rule="evenodd"><path d="M278.45 164.2q7.55-.45 14.8 1.3 6.7 2.5 5.15 4.4-1.6 1.85-2.55 1.55-7.65 2.35-15.9 1.8-6.85-.05-13.8.25l-9.35-.35q-1.3-.35-1.5-1.55l6.25-.25 11.6.9q8.5.2 15.75-2.1t-.85-3.35l-11.45-.65q.3-1.65 1.85-1.95m17.4 12.7h.7l1.7 6.1q-1.45-.8-3.6-1-3.65 1.05-4.3 4.65-.4 1.95 0 3.5l-10.25-.5-.4-.3q-1.9-3.85-1.55-8.35l.55-.35 6.4-.35q5.6-1.2 10.75-3.4m5.7 13.7.95 1.75-1.55.3-.25-.05q.65-.9.85-2" fill="#d5dcfd" transform="translate(-244.95 -164.1)"/><path d="M256.75 194.25q-2.9 4.8-4.4 11.1t-4.25 5.05q-2.8-1.25-3.1-6.1-.35-4.85 1.95-10.25t5.6-9.35q3.3-3.9 6.05-2.65 2.8 1.2 1.95 4.35-.9 3.1-3.8 7.85m21.95-13.6-5.45-.35-13.95-1.8q-3.35-.8-1.75-3.5.9-1.45 14.95-.4t21.9-.85l1.95-.5q.5 1.05.3 2.65l-.8 1q-5.15 2.2-10.75 3.4l-6.4.35m19.55 2.35q3.25 1.6 3.45 5.8l-.15 1.8q-.2 1.1-.85 2l-1.35 1.35q-1.5 1.15-3.4.7h-.2q-4.55-1.2-5.4-4.5-.4-1.55 0-3.5.65-3.6 4.3-4.65 2.15.2 3.6 1" fill="#fff" fill-opacity=".702" transform="translate(-244.95 -164.1)"/><path d="M300.95 192.65q1.85 2.45 3.2 7.25 1.35 4.95.65 10.15-.75 5.2-3.65 10.95t-8.65 9.1q-3.15 1.85-5.35 2.1-1.85 1.4-4.45 1.45l-1.45.15-5.5-.4q-3-1.05-1.45-2.4l.45-.35-1.85.35-6.4-.3q-1.2-.25-.8-1.35.3-.7 1.1-.6 4.75.25 9.25-1l1.05-.3-1.2-.95q-1.95-2-.7-4.5.9-1.8 2.75-2.5l.8-.1 1.15-2q3-6.55 1.15-13.55-1-3.7-3.65-6.65-.45 0-.55-.4-.4-1.4 1.1-1.65l3.8.6q.3-.35.8-.4l2.9 1 10.35-1.65.15-.05q1.9.45 3.4-.7l1.35-1.35.25.05m-3.4 3.1-.65.15q-.5.2-.7.7-.85 2.25 2 2.3l.65-.3q1.75-2.3-1.3-2.85m3.2 8.3.95.1q2-1.2-.25-2.1-1.9.5-.7 2m-9.75-1.5q1.75 4.95 1.05 10.2-.9 6.7-4.9 12.2l2.3-2.45q4.4-5.8 4.9-12.75.25-3-1.35-5.6l-1.1-2.05-2.2-2.15q.8 1.15 1.3 2.6m-5.2-1.7q-2.05-2.2-4.8-3.05 1.5 1.6 2.15 3.9 2.1 6.85.2 13.7-.5 1.8-1.4 3.4l1.85.05q2.05-1.65 3.1-4.05l1.7-5.25q.1-2.7-.75-5.35-.6-1.85-2.05-3.35m-20.9 10.55q-1.1.65-1.9-.35-2.35-3.1 1.45-4.2 4.5 1.95.45 4.55m-1.7.7q5 1.55 2.5 6.3-.85 1.7-2.75 1.85-5.45.4-4.7-3.7-.35-1 .7-2.05 1.05-1.95 3.55-2.25l.7-.15" fill="#cc210d" transform="translate(-244.95 -164.1)"/><path d="M297.55 195.75q3.05.55 1.3 2.85l-.65.3q-2.85-.05-2-2.3.2-.5.7-.7l.65-.15m3.2 8.3q-1.2-1.5.7-2 2.25.9.25 2.1l-.95-.1" fill="#ff1d11" transform="translate(-244.95 -164.1)"/></g></defs></svg>