<svg viewBox="0 0 16.479 25.071" xmlns="http://www.w3.org/2000/svg" xmlns:xlink="http://www.w3.org/1999/xlink"><use transform="translate(.03)" width="16.4" height="25.05" xlink:href="#a"/><defs><g id="a"><path d="M270.15 189.45q2.1-1.7 4.8-1.5 3.25.2 5.4 3t2 6.55-2.55 6.25q-2.6 2.65-4.7 3l.9.6-.55 1.05-1.9-.1.8-.85.15-.8-.25.05-.15-.15q-3.6-3.45-4.65-7.7l-.25-1.3 1.5.4 2.05.2q.35-3.8 1.5-6.65-1.6-.95-3.35-1.05h-1.1l.35-1m9.9 3.95v-1.55q-1.6-2.4-4.2-3.1V190q2.3.95 4.2 3.4m-7.3 9.3q.15 1.95 1.35 3.85-1.2-1.9-1.35-3.85m2.25 3.95.15-.35-.15.35.1.1-.1-.1m.15-.35q1.15 0 2.55-2.15t.8-3.65q-.7 3.25-3.35 5.8" fill="#2fe160" fill-opacity=".314" fill-rule="evenodd" transform="translate(-266.75 -187.9)"/><path d="M280.05 193.4q-1.9-2.45-4.2-3.4v-1.25q2.6.7 4.2 3.1v1.55" fill="#fff" fill-rule="evenodd" transform="translate(-266.75 -187.9)"/><path d="m269.2 197.55.25 1.3q1.05 4.25 4.65 7.7l.15.15.25-.05-.15.8-.8.85-.65-.65 1-.9h.05q-2.55-.35-5.2-3.8-2.15-2.8-2-6.5.2-3.75 2.6-6.25l.8-.75-.35 1-.5.05q-1.25 2.6-1.5 6.45l1.4.6m9.3 2.95q.6 1.5-.8 3.65t-2.55 2.15q2.65-2.55 3.35-5.8" fill="#2fe160" fill-opacity=".624" fill-rule="evenodd" transform="translate(-266.75 -187.9)"/><path d="m270.7 197.95-1.5-.4-1.4-.6q.25-3.85 1.5-6.45l.5-.05h1.1q-1.2 3.55-.2 7.5" fill="#a1471b" fill-rule="evenodd" transform="translate(-266.75 -187.9)"/><path d="M270.9 190.45q1.75.1 3.35 1.05-1.15 2.85-1.5 6.65l-2.05-.2q-1-3.95.2-7.5" fill="#b3592d" fill-rule="evenodd" transform="translate(-266.75 -187.9)"/><path d="M3.4 1.55Q5.5-.15 8.2.05q3.25.2 5.4 3t2 6.55-2.55 6.25q-2.6 2.65-4.7 3l.9.6-.55 1.05-.95-.05q-1.5.8-3.65.75-2 0-3.5 1.05-1 .7-.3 1.35.2.2.55.2H4.7l3.5-.5 3.25-.6 3.75.05q1.6.15 1.1 1.6l-.7.45-3.75.25H10.2M3.4 1.55l-.8.75Q.2 4.8 0 8.55q-.15 3.7 2 6.5 2.65 3.45 5.2 3.8m-.05 0-1 .9.65.65m1.45-1.65.1.1m-.6 1.6-.95-.05" fill="none" stroke="#350606" stroke-linecap="round" stroke-linejoin="round" stroke-opacity=".302" stroke-width=".05"/><path d="M7.35 18.65Q6.15 16.75 6 14.8m2.4 3.6-.15.35m3.5-6.15q-.7 3.25-3.35 5.8" fill="none" stroke="#350606" stroke-linecap="round" stroke-linejoin="round" stroke-opacity=".302" stroke-width=".05"/><path d="m7.1 6.7-1-.2m-.45 4.25.1-1m-4.3 0 .4-.9M1 5.55l1 .2m1.45-3.7v1m4.3.1-.5.9" fill="none" stroke="#7b2100" stroke-linecap="round" stroke-linejoin="round" stroke-width=".05"/></g></defs></svg>