<svg viewBox="0 0 75 128.45" xmlns="http://www.w3.org/2000/svg" xmlns:xlink="http://www.w3.org/1999/xlink"><g transform="translate(-237.52 -135.72)"><use transform="translate(237.55 135.75)" width="74.95" height="128.4" xlink:href="#a"/><use transform="matrix(.5855 0 0 .7463 238.56 140.47)" width="98.5" height="64" xlink:href="#b"/></g><defs><radialGradient id="d" cx="0" cy="0" r="819.2" gradientTransform="scale(.0607)" gradientUnits="userSpaceOnUse"><stop stop-color="#ffa768" stop-opacity=".396" offset="0"/><stop stop-color="#fcffae" stop-opacity=".396" offset=".502"/><stop stop-color="#fff" stop-opacity="0" offset="1"/></radialGradient><path d="M-34.85-22.65Q-20.4-32 0-32t34.8 9.35Q49.25-13.25 49.25 0T34.8 22.6Q20.4 32 0 32t-34.85-9.4q-14.4-9.35-14.4-22.6t14.4-22.65" fill="url(#d)" fill-rule="evenodd" transform="translate(49.25 32)" id="c"/><use width="98.5" height="64" xlink:href="#c" id="b"/><g id="a"><path d="M291 146.6q-1.1.65-2.45.5-1.3-.9-.65-2.55l1.9-5.2-.2.05q-3.25 2.55-4.3 5.9l-.35-1.2q1.85-6.55 10.35-8.35-3.55 5.55-4.3 10.85m-4.85 11.5.65.25 1 1 3-9.25q.15 3.35 1.45 6.65-2.6 5.05-7.25 4.95.75-1.7 1.15-3.6m8.85-12.6q.4-2.3 2.45-2.85-.95 1.25-1.55 2.45l-.9.4m-.05 2.6q-.25 1.4-.05 2.85-1.35-.75-1-2.4l1.05-.45m-25.2 19.2q-2.15-9.25-.95-17.7-1.3 1.4-1.85 3.75l-.85 2.4q-2.05 3.85-2.7 7.9-1.15-1.85-2.6-3.05-1.7 6.2.95 11.65l-3.2-.65-2.2-1.6q-2.1-1.75-4.05-2.15-.45 3.6 2.15 7.25 4.2 5.9 8.1 6l.5-.75.3-.1q1.7 2.25 4.45 2.9 8.8 2.25 12-5.8l-.5.25q-3.15 2.2-6.75 2.75l.45-.5q.95-1.65.3-3.25l-.9.85q-.55.5-1.1.4l.15-.3 1.95-4.95 2.2-2.8q1.7-1 2.4-3.5l.05-.45-2.45 3.95-1.5.5q.9-3.5 1.3-7.05 1.1-3.45 1.15-7.05l-.1.65-.8 2.4q.15-5.7-1.1-11.65l-.3.75q-3.2 9.45-4.05 18.55l-.45.4m-9.7-22.7q-8.65 13.65-2.15 24.05-.1-16.45 17.8-31.3 1.1 2.9 2.1 9.8 6.65 17.05.25 27.4 2.15.85 8.55-9.2 1.4 9.75-4.55 16.1l-1.55 1.5q-3.05 2.65-7.55 4.6l-3.3 1H267l-1.05-.6q-29.3-17.45-5.9-43.35m37.7 19-.3-.2-1.75-1.3q1.35-1 1.3-3 1.7 1.95 1.25 4.3l-.5.2m-3.95 1.9q1.3.75 2.8 1.05-1.4 1.45-3.95 2.5 1.35-1.9 1.15-3.55m-49.55-13.55q-2 8.2-.5 15.4-2.05-1-3.5-2.55 2.2-6.1 4-12.85m.85 20.1q1.25 3.35 3.35 6.45-3.75-.7-6.85-2.85.6-1.7.8-4.05l.15-.5q1.5 1.2 2.25 3 .65-.25-.15-1.1l-.35-.65.8-.3m-6.25 1.35-1.3-1.45.6-1.55.5 1.05.2 1.95" fill="#ffa768" fill-rule="evenodd" transform="translate(-237.55 -135.75)"/><path d="m285.65 146.8.2-.6-.05-.1.1-.15-.05.25.75 2.25.45 3.4 2.75-1.75q-1 3.4-3.3 5.3.2-3.85-.85-8.6m10.25-1.7q-.75 1.5-.95 3l-1.05.45q.15-1.1 1-2.5l.1-.55.9-.4m-26.15 22.2.45-.4q3.7-3.2 5.45-7.65l.8-2.4.1-.65q-.05 3.6-1.15 7.05-.85 2.65-2.3 5.25-.55.95-.05 1.85l1.05-.05 1.5-.5 2.45-3.95-.05.45q-.7 2.5-2.4 3.5l-2.2 2.8q-2.2 2.5-4.8 4.7-.8.65-1.65.65.75.65-.55-.05l-.85-.3-1.25.5q-3.75.35-5.7-3.15-.35-.65-1.3-.6l-1.25-.5 7 .6-1.3-2.2q-2.65-5.45-.95-11.65 1.45 1.2 2.6 3.05.95 1.6 1.7 3.65.6 1.7 1.95 2.8.7-1.25-.25-3l-.15-.5h.15q1.1-.05 1.75.75l.5.5.7-.55m22.95-4.2q1.7-.15 2.75-.8l.25-.2 1.75 1.3.3.2.3.25.05.2-.45 1.05-.1.25q-1.8-1-4.15-1.25l-.7-.95v-.05m-48.35 6.65v.1l-.1-.05q-2.5 1.3-4.7 3.05l-.55-.6-.35-.8-.5-1.05.3-.7.75-2q2.35 1.55 5.05 2.1l.1-.05" fill="#fff59c" fill-rule="evenodd" transform="translate(-237.55 -135.75)"/><path d="M285.3 145.3q1.05-3.35 4.3-5.9l.2-.05-1.9 5.2q-.65 1.65.65 2.55 1.35.15 2.45-.5-.25 1.75-.2 3.5l-3 9.25-1-1-.65-.25.35-2.7q2.3-1.9 3.3-5.3l-2.75 1.75-.45-3.4-.75-2.25.05-.25-.1.15.05.1-.2.6-.35-1.5m-21.9 18.35q.65-4.05 2.7-7.9l.85-2.4q.55-2.35 1.85-3.75-1.2 8.45.95 17.7l-.7.55-.5-.5q-.65-.8-1.75-.75h-.15l.15.5q.95 1.75.25 3-1.35-1.1-1.95-2.8-.75-2.05-1.7-3.65m6.8 3.25q.85-9.1 4.05-18.55l.3-.75q1.25 5.95 1.1 11.65-1.75 4.45-5.45 7.65m5.2-3.65q-.4 3.55-1.3 7.05l-1.05.05q-.5-.9.05-1.85 1.45-2.6 2.3-5.25m-2 9.35-1.95 4.95-.15.3q.55.1 1.1-.4l.9-.85q.65 1.6-.3 3.25l-.45.5q3.6-.55 6.75-2.75l.5-.25q-3.2 8.05-12 5.8-2.75-.65-4.45-2.9l-.3.1-.5.75q-3.9-.1-8.1-6-2.6-3.65-2.15-7.25 1.95.4 4.05 2.15l2.2 1.6 3.2.65 1.3 2.2-7-.6 1.25.5q.95-.05 1.3.6 1.95 3.5 5.7 3.15l1.25-.5.85.3q1.3.7.55.05.85 0 1.65-.65 2.6-2.2 4.8-4.7m19.3-9.5v.05l-.05-.05h.05m.7 1q2.35.25 4.15 1.25l-.95 1.2q-1.5-.3-2.8-1.05l-.4-1.4m4.7-.05-.05-.2-.3-.25.5-.2-.15.65m-54.35 3.3.6 2.4-.1.05q-2.7-.55-5.05-2.1l1.05-2.9q1.45 1.55 3.5 2.55m.6 2.5.75 2.2-.8.3.35.65q.8.85.15 1.1-.75-1.8-2.25-3l-.15.5q-.2 2.35-.8 4.05l-2.75-2.25-.2-1.95.35.8.55.6q2.2-1.75 4.7-3.05l.1.05" fill="#ffc97b" fill-rule="evenodd" transform="translate(-237.55 -135.75)"/><path d="m255.9 207.25.35.35.1.25q-.55 2.25-.1 4.45.6 3-1.1 4.85l-1.45-.35-.25-.35q-1.2-1.8-1.25-3.9l.25-.3q2.05-2.15 3.45-5m8.35 54.55-1.1-2.95 3-11.35-.6-3.7-.65-3.7.15-.2h.4l-.9-2.3-.4-.9-.15-.45q-.3-1.55-.15-3.3.15-1.9 1.05-3.5l8.05-7.5 1.15.15-.05 1.05q-.3 1.1-.35 2.3l.15.2-.05.45v.05l-1.75 18.45-7.8 17.2m-19.6-16.2v-6.8l2.45-3.7 5.05-2.85 5-4.05.9-3.05q1.7.4 3.2 2.85l.35.55q.2 2.65-1.3 4.9l-.35.8-2.8 2-2.75.2-3.85 2.55q-1.6 5.4-5.85 6.6h-.05M276.1 201h.35q2.15.8 2 3.3l-.1.05q-.4 1.1-1.7 1.25-.7-.7-.55-2.05l-1.85-1.85 1.1-.9.75.2m-12.15 6.4q.8-.1.75.5-.9 7.15 3.1 12.2-.2.65-.75.95-.75.45-1.8.3l-.5-.85-3.15-10.35.1-.35q.7-2 1.9-2.2l.35-.2m20.4-3.1.55-.75.15.05 2.6 10.05-.3.85q-.15.35-.8.45-.75-.45-1.05-1.1-.6-1.45-1.9-2.2l.05-.35q.85-3.5.7-7m9.9 1.1.75-.35-.2.6.2.1q2.15 1.35 1.85 3.85l-.25.4-.4.4-.65.3-.3-.2q-1.35-2.3-.45-4.85l-.55-.25" fill="#cbb99a" fill-rule="evenodd" transform="translate(-237.55 -135.75)"/><path d="M255.9 207.25q-1.4 2.85-3.45 5l-.25.3q.05 2.1 1.25 3.9l.25.35 1.45.35q1.7-1.85 1.1-4.85-.45-2.2.1-4.45l-.1-.25-.35-.35m42.6 7.45-1 1-2.65-.6-1.6-2.95-.7-5.8v-5.15l-4.05-3.95-2.95 2 2.95 5.65 2.25 7.2-1.9 4.55-2.15 1.5-1.7-1.5-2.75-4.35v-4.95 4.95l2.75 4.35 1.7 1.5 2.15-1.5 10.95 15.45 5.5 5.75-.6 4.85-.3-.6-1-.9-2.9-2.6-3.9 2.9q-3.8-4.45-3.9-10.3-2.55-.2-5.1-3.55l5.3 13.85v11.75l-4.9 10.3-.05-9 .65.25q.6-.15.6-.9.15-7.3-.85-14.45-1.85-12.7-9.5-22.3-3.8 2.25-4.8 6l.05-1.05-1.15-.15-8.05 7.5q-.9 1.6-1.05 3.5-.15 1.75.15 3.3l-.75-1.45-4.8 2.35-3.35 3.95q-2.05 2.25-4.65 3.55l-3.35 1.8-2.45-.85h.05q4.25-1.2 5.85-6.6l3.85-2.55 2.75-.2 2.8-2 .35-.8q1.5-2.25 1.3-4.9l-.35-.55q-1.5-2.45-3.2-2.85l.8-2.75v-2.9l-.55 1.4h-2.55l-4.35-5.75-.95-5.35.3.4h1.5q2-4.7 5.45-8.5 1.25-1.35 3.4-1.4l.4.2.7.85.15.45q-.05 1.25.25 2.5l.6.85q1 .1 1.65-.45.45-.45 1.1-.8l.2-.85 1.2-3 .05-.15 2.35-.65 1.95-.45 2.2-1.05.25-.2.45.45.85.2.6.65 1.7.2q1.1-.7 1.4-2 .1-.4.5-.55 1.1.35 1.8 1.25l.45.9.55.9q.5.8.55 1.6l-.2 1.9q2.3-1.75 1.75-5.3l-.25-3.55v-.2q3.3-.25 5.95-2l.7-.45q.9 3.4 2.4 6.6.3.6.9 1 .05.75.9 1.1l.6.55.15.6q3.1 4.3 2.4 9.65-.25 1.8.2 3.65m-38.85-6.3v-4.7 4.7l-1.9 2.95 1.7 6.6-.6 1.55h2.05l1.1-1.35-2.35-9v-.75m10.2 10.25v1.6l-2.65 2.15h-2.65l-2.55-4.25 2.55 4.25h2.65l2.65-2.15v-1.6h1.8l-1.4-8.45 2.15-4.85 2.85-.25-3.7-2.55-4.05 3.8v8.4l2.35 2.35v1.55m7.2-9.35-1.8-1v-3.2 3.2l1.8 1 1.95 1.8 2.25-3.75h1v-2.15l-2.45-1.8-1.25 4.9-1.5 1m-13.1-1.9-.35.2q-1.2.2-1.9 2.2l-.1.35 3.15 10.35.5.85q1.05.15 1.8-.3.55-.3.75-.95-4-5.05-3.1-12.2.05-.6-.75-.5m12.15-6.4-.75-.2-1.1.9 1.85 1.85q-.15 1.35.55 2.05 1.3-.15 1.7-1.25l.1-.05q.15-2.5-2-3.3h-.35m8.25 3.3q.15 3.5-.7 7l-.05.35q1.3.75 1.9 2.2.3.65 1.05 1.1.65-.1.8-.45l.3-.85-2.6-10.05-.15-.05-.55.75m9.9 1.1.55.25q-.9 2.55.45 4.85l.3.2.65-.3.4-.4.25-.4q.3-2.5-1.85-3.85l-.2-.1.2-.6-.75.35m-20.45 20.7.05-.45.25.3-.3.15m-9.25 13.8h.5l-.15.2-.35-.2" fill="#968265" fill-rule="evenodd" transform="translate(-237.55 -135.75)"/><path d="m251.25 204.1.15-1 2.75-5.95 3.95-1.7h11.1l4.7-1.8 4.55-3.7 4.65-1.7h4.45l1.15.95-.2.15q-1.8 0-3.6.65-1.85.55-2.95 1.65l.45 1.3-.85 1.85-1.5-.2-.85-.6q-1.35-.1-2.15.45l-.9.5-2.2 1.35-2.5.65h-1.3l-3.8 1.05-1.05.2h-1.9l-.05-.15-.3-.5q-.3-.45-.9-.4l-.65-.45q-4.05 1.95-7.5 5.35l-2.75 2.05" fill="#facd6a" fill-rule="evenodd" transform="translate(-237.55 -135.75)"/><path d="m251.25 204.1 2.75-2.05q3.45-3.4 7.5-5.35l.65.45q.6-.05.9.4l.3.5.05.15h1.9l1.05-.2 3.8-1.05h1.3l2.5-.65 2.2-1.35.9-.5q.8-.55 2.15-.45l.85.6 1.5.2.85-1.85-.45-1.3q1.1-1.1 2.95-1.65 1.8-.65 3.6-.65l.2-.15 2.1 1.75.15.6-.7.45q-2.65 1.75-5.95 2v.2l.25 3.55q.55 3.55-1.75 5.3l.2-1.9q-.05-.8-.55-1.6l-.55-.9-.45-.9q-.7-.9-1.8-1.25-.4.15-.5.55-.3 1.3-1.4 2l-1.7-.2-.6-.65-.85-.2-.45-.45-.25.2-2.2 1.05-1.95.45-2.35.65-.05.15-1.2 3-.2.85q-.65.35-1.1.8-.65.55-1.65.45l-.6-.85q-.3-1.25-.25-2.5l-.15-.45-.7-.85-.4-.2q-2.15.05-3.4 1.4-3.45 3.8-5.45 8.5h-1.5l-.3-.4-.05-.35.85-5.35" fill="#d59458" fill-rule="evenodd" transform="translate(-237.55 -135.75)"/><path d="m292.45 193.5 4.05 1.2q0 2.55.55 5.05l-3.45-4-1.15-2.25M312.5 243v5.9l-3.3 6.25h-2.15v-7.5l-2.35-4.95.6-4.85-5.5-5.75-10.95-15.45 1.9-4.55-2.25-7.2-2.95-5.65 2.95-2 4.05 3.95v5.15l.7 5.8 1.6 2.95q1.45 2.7 0 4.55 9.25 4.5 14 12.75l3.1 12.3.55-1.7M288 263.55l-1.9-1.5v-6.35l-5.1-7.35v4.8l-2.15 6.15-4.55 4.85h-5.5l6.75-9.55 3-24.25-4.75-4.25.3-.15-.25-.3-.15-.2q.05-1.2.35-2.3 1-3.75 4.8-6 7.65 9.6 9.5 22.3 1 7.15.85 14.45 0 .75-.6.9l-.65-.25.05 9m-31.25-23.25-4.6 4.75-4.2 1.7-.85-.3 3.35-1.8q2.6-1.3 4.65-3.55l3.35-3.95 4.8-2.35.75 1.45.15.45.4.9.9 2.3h-.9l-3.6-1.85-4.2 2.25m2.9-31.9v.75l2.35 9-1.1 1.35h-2.05l.6-1.55-1.7-6.6 1.9-2.95m10.2 10.25v-1.55l-2.35-2.35v-8.4l4.05-3.8 3.7 2.55-2.85.25-2.15 4.85 1.4 8.45h-1.8m7.2-9.35 1.5-1 1.25-4.9 2.45 1.8v2.15h-1L279 211.1l-1.95-1.8" fill="#736653" fill-rule="evenodd" transform="translate(-237.55 -135.75)"/><path d="m290.8 190.95.45.35 1.2 2.2 1.15 2.25 3.45 4 2.05 2.4-2.05-2.4q-.55-2.5-.55-5.05l1.85.55 1.8 4.35-1.05 2.55 2.15 5.4-1.1 5.4-1.65 1.75q-.45-1.85-.2-3.65.7-5.35-2.4-9.65l-.15-.6-.6-.55q-.85-.35-.9-1.1-.6-.4-.9-1-1.5-3.2-2.4-6.6l-.15-.6m6.7 24.75.25 1.2 8.8 8.65 4.65 5.45 1.3 8.05V243l-.55 1.7-3.1-12.3q-4.75-8.25-14-12.75 1.45-1.85 0-4.55l2.65.6m-2.3 30.85.95 5.4-1.5 6.6-3.35 5H288l4.9-10.3V241.5l-5.3-13.85q2.55 3.35 5.1 3.55.1 5.85 3.9 10.3l-1.4 5.05" fill="#b2cdbb" fill-rule="evenodd" transform="translate(-237.55 -135.75)"/><path d="m303.4 241.2.7 5.8v5.4l-2.2 1.4-6.7-7.25 1.4-5.05 3.9-2.9 2.9 2.6m-37.85 2.6-4.5 3.3h-4.3v-6.8l4.2-2.25 3.6 1.85.35.2.65 3.7" fill="#51483e" fill-rule="evenodd" transform="translate(-237.55 -135.75)"/><path d="m268.8 264.15-4.55-2.35 7.8-17.2 1.75-18.45v-.05l4.75 4.25-3 24.25-6.75 9.55" fill="#827763" fill-rule="evenodd" transform="translate(-237.55 -135.75)"/><path d="M53.45 10.85q.75-5.3 4.3-10.85-8.5 1.8-10.35 8.35l.35 1.2.35 1.5m.85 8.6-.35 2.7q-.4 1.9-1.15 3.6 4.65.1 7.25-4.95-1.3-3.3-1.45-6.65-.05-1.75.2-3.5m4-1.1q.4-2.3 2.45-2.85-.95 1.25-1.55 2.45-.75 1.5-.95 3-.25 1.4-.05 2.85-1.35-.75-1-2.4.15-1.1 1-2.5l.1-.55m-34.95-.9.8-.9m-.8.9Q13.85 22.5 20.35 32.9q-.1-16.45 17.8-31.3 1.1 2.9 2.1 9.8 6.65 17.05.25 27.4 2.15.85 8.55-9.2 1.4 9.75-4.55 16.1l-1.55 1.5q-3.05 2.65-7.55 4.6l-3.3 1h-2.65l-1.05-.6Q-.9 34.75 22.5 8.85m26.45 10.8q.2-3.85-.85-8.6m3.05 42.4L50 52.5h-4.45l-4.65 1.7-4.55 3.7-4.7 1.8h-11.1l-3.95 1.7-2.75 5.95-.15 1m37.45-14.9 2.1 1.75.45.35 1.2 2.2 4.05 1.2 1.85.55 1.8 4.35-1.05 2.55 2.15 5.4-1.1 5.4-1.65 1.75-1 1 .25 1.2L69 89.8l4.65 5.45 1.3 8.05v9.85l-3.3 6.25H69.5v-7.5l-2.35-4.95-.3-.6-1-.9.7 5.8v5.4l-2.2 1.4-6.7-7.25.95 5.4-1.5 6.6-3.35 5h-3.3l-1.9-1.5v-6.35l-5.1-7.35v4.8l-2.15 6.15-4.55 4.85h-5.5l-4.55-2.35-1.1-2.95 3-11.35-.6-3.7-4.5 3.3h-4.3v-6.8l-4.6 4.75-4.2 1.7-.85-.3-2.45-.85v-6.8l2.45-3.7 5.05-2.85 5-4.05.9-3.05.8-2.75v-2.9l-.55 1.4H18.2l-4.35-5.75-.95-5.35-.05-.35.85-5.35m8.4-.4v5.45l2.35 9L27 86.65h2.65l2.65-2.15v-3.15L29.95 79v-8.4L34 66.8l3.7 2.55v3.2l1.8 1 1.5-1 1.25-4.9 2.45 1.8v7.1l2.75 4.35 1.7 1.5 2.15-1.5 1.9-4.55-2.25-7.2L48 63.5l2.95-2L55 65.45v5.15l.7 5.8 1.6 2.95 2.65.6m-1.8-53.6-.25.2q-1.05.65-2.75.8h-.05l.05.05.7.95.4 1.4q.2 1.65-1.15 3.55 2.55-1.05 3.95-2.5l.95-1.2.1-.25.45-1.05m-2.4-1.95q1.35-1 1.3-3 1.7 1.95 1.25 4.3l-.15.65M59.5 64l-3.45-4-1.15-2.25m6.65 8.65L59.5 64M7.2 14.35l-.5 1.85q-2 8.2-.5 15.4l.6 2.4v.1l.75 2.2q1.25 3.35 3.35 6.45-3.75-.7-6.85-2.85L1.3 37.65 0 36.2l.6-1.55.3-.7.75-2 1.05-2.9q2.2-6.1 4-12.85m52.35 89.55 3.9-2.9 2.9 2.6m-6.8.3-1.4 5.05M21.3 83.75l.6-1.55-1.7-6.6 1.9-2.95m5.25 31.7.65 3.7m-1-3.9.35.2m-8.15.2 4.2-2.25 3.6 1.85" fill="none" stroke="#000" stroke-linecap="round" stroke-linejoin="round" stroke-opacity=".243" stroke-width=".05"/></g></defs></svg>