<svg viewBox="0 0 69.949 62.127" xmlns="http://www.w3.org/2000/svg" xmlns:xlink="http://www.w3.org/1999/xlink"><use transform="translate(0 -.1)" width="69.95" height="62.25" xlink:href="#a"/><defs><g id="a"><path d="m249.1 211.75 8.4-26.75 3.45-3.8 2.3 1.45 26.1-6.35 1.35 3.7-18 6.65-10 11-9.15 17.6-4.45-3.5m-.25 12.55-3.25-1.3 2.15-6.95 4.15 2.35-3.05 5.9m-4.1 1.35 2.85 1.05-.9 1.75-1.5 1.15-1-2.15.55-1.8m63.25-56.3q1.6.3 1.55 1.45-.2 2.05-6.25 4.5l-.9.3-.35-2.4 3.4-.8 2.55-3.05m-9.25 7.6-5 1.9-.45-3.5 5-1.25.45 2.85" fill="#887122" fill-rule="evenodd" transform="translate(-240 -168.85)"/><path d="m249.1 211.75-3.8-3.05q4.35-12.1 10.6-21.95l1.6-1.75-8.4 26.75m-5.5 1.95 4.15 2.35-2.15 6.95-4.15-1.7q1-3.9 2.15-7.6m1.6 15.9q-5.25 3.5-4.75-4.35l.3-1.1 4 1.5-.55 1.8 1 2.15m56.3-59.85 2.55-.3 3.95-.1-2.55 3.05-3.4.8-.55-3.45m-3.8.5.6 3.85-5 1.25-.6-4.4 5-.7m-36.75 10.95 1.85-2.05q10.2-4.7 21.75-6.9l3.1-.5 1.7 4.55-26.1 6.35-2.3-1.45" fill="#d2b02b" fill-rule="evenodd" transform="translate(-240 -168.85)"/><path d="m245.3 208.7 3.8 3.05-1.35 4.3-4.15-2.35 1.7-5m-4.55 15.45.7-2.85 4.15 1.7-.85 2.65-4-1.5m61.3-50.95-3.75.9-.6-3.85 3.8-.5.55 3.45m-9.35-2.25.6 4.4-3.95.95-1.7-4.55 5.05-.8" fill="#fce461" fill-rule="evenodd" transform="translate(-240 -168.85)"/><path d="m247.75 216.05 1.35-4.3 4.45 3.5-1.65 3.15-4.15-2.35M245.6 223l3.25 1.3-1.25 2.4-2.85-1.05.85-2.65m56.8-47.4-3.65 1.35-.45-2.85 3.75-.9.35 2.4m-8.65 3.25L290.7 180l-1.35-3.7 3.95-.95.45 3.5" fill="#e2ac0a" fill-rule="evenodd" transform="translate(-240 -168.85)"/><path d="m5.3 39.85-1.7 5m13.9-28.7-1.6 1.75Q9.65 27.75 5.3 39.85m-.1 20.9Q-.05 64.25.45 56.4l.3-1.1.7-2.85q1-3.9 2.15-7.6m4 13 1.25-2.4 3.05-5.9 1.65-3.15M61.5.9l2.55-.3L68 .5q1.6.3 1.55 1.45-.2 2.05-6.25 4.5l-.9.3-3.65 1.35-5 1.9-3.05 1.15-18 6.65-10 11-9.15 17.6m44.15-45-5 .7m5-.7 3.8-.5m-13.85 2 5.05-.8m-5.05.8-3.1.5Q33 5.6 22.8 10.3l-1.85 2.05m-3.45 3.8 3.45-3.8M7.6 57.85l-.9 1.75-1.5 1.15" fill="none" stroke="#000" stroke-linecap="round" stroke-linejoin="round" stroke-opacity=".302" stroke-width=".8"/></g></defs></svg>