<svg viewBox="0 0 116.87 110.08" xmlns="http://www.w3.org/2000/svg" xmlns:xlink="http://www.w3.org/1999/xlink"><use transform="translate(0 .01)" width="116.85" height="110.05" xlink:href="#a"/><defs><linearGradient id="b" x1="-819.2" x2="819.2" gradientTransform="translate(135.05 -112.9)" gradientUnits="userSpaceOnUse"><stop stop-color="#b38246" offset="0"/><stop stop-color="#835a41" offset="1"/></linearGradient><linearGradient id="c" x1="-819.2" x2="819.2" gradientTransform="translate(135.05 -112.9)" gradientUnits="userSpaceOnUse"><stop stop-color="#b38246" offset="0"/><stop stop-color="#996a4d" offset="1"/></linearGradient><linearGradient id="d" x1="-819.2" x2="819.2" gradientTransform="translate(135.05 -112.9)" gradientUnits="userSpaceOnUse"><stop stop-color="#b38246" offset="0"/><stop stop-color="#b7886a" offset="1"/></linearGradient><linearGradient id="e" x1="-819.2" x2="819.2" gradientTransform="matrix(.069 0 0 .0656 297.95 204.25)" gradientUnits="userSpaceOnUse"><stop stop-color="#b38246" offset="0"/><stop stop-color="#835a41" offset="1"/></linearGradient><linearGradient id="f" x1="-819.2" x2="819.2" gradientTransform="matrix(.0602 .0335 -.0318 .0572 297.55 204.15)" gradientUnits="userSpaceOnUse"><stop stop-color="#b38246" offset="0"/><stop stop-color="#4d3524" offset="1"/></linearGradient><linearGradient id="g" x1="-819.2" x2="819.2" gradientTransform="matrix(.0602 .0335 -.0318 .0572 297.55 204.15)" gradientUnits="userSpaceOnUse"><stop stop-color="#b38246" offset="0"/><stop stop-color="#956942" offset=".682"/><stop stop-color="#4d3524" offset="1"/></linearGradient><g id="a"><path d="m328.2 176.65-.3.05-1.85-5.2-2.35-7.75q-1.15-3.5-2-4.1-3.05-2.15-4.5-1.1-.5.35-.65 1.05l-.05.05.05-.05q.15-.7.65-1.05 1.45-1.05 4.5 1.1.85.6 2 4.1l2.35 7.75 1.85 5.2.3-.05q2.8 6.55 6.2 9.75l.55.55 7.55 7.65-.8.3q5.55 5.9 9.45 11.5l.7 1q3.7 5.5 4.85 8.95-1.15-3.45-4.85-8.95l-.7-1q-3.9-5.6-9.45-11.5l-7.5-7.5q-3.45-3.65-6.3-10.7 2.85 7.05 6.3 10.7l7.5 7.5.8-.3q5.25 5.75 8.95 11.2l.15.2q4.5 6.75 5.1 10.35l.35 1.4.1.75q.15 2.15-1.05 3.9l-1.1.8-.4.1.4-.1 1.1-.8-1.25 1.3h-.25v-.4l-.25-1.35-.05-.25q-1.3-3.75-7.8-10.95l-.7-.7-10.95-11.4-6.6-6.95-.75-.9q-2.75-3.6-6.05-12.65l-.95-2.7q-3.55-10.4-4-13.9l-.05-.15q-.1-1 .05-1.65v-.1l.2-1.05q-.3.5-.3 1.25 0-.75.3-1.25l-.2 1.05-.1.2q-.2.2-.25.55l-.1-.6q-.25-2.1.75-2.85 1.45-1.05 4.5 1.1.85.6 2 4.1l2.35 7.75q1.2 3.7 2.55 6.75m6 10.75.75-.45-.75.45m16.95 19 .45-.4-.45.4m3.85 16.8-.4.35.4-.35m-35.95-61.9-.1 1.15.1 1.1.25.5.25-.5.1-1.1-.1-1.15-.25-.45-.25.45" fill="#4a2d02" fill-rule="evenodd" transform="translate(-240.8 -148.45)"/><path d="M249.25 185.3q1.6 5.95 5.4 13.3l3.3 6 2.1 3.5 1.4 2.5 1.25 3.1.7 2.7-.85-2.55-.45-1.05-.5-1.1-.5-.9-.65-1.1-3.2-5.45-1.7-3.05-1.4-2.75.5.15-.5-.15q-3.55-7.3-4.9-13.15m-7.9 65.4-.3 1.6q-.1-.75-.05-1.65.3-6 7.65-18.9 3.8-6.65 5.3-10.9l.8-3.15.1.7v.65l-.15 1.4-.25.15q-1.45 4.35-5.5 11.5-7.15 12.6-7.6 18.6.45-6 7.6-18.6 4.05-7.15 5.5-11.5l.25-.15q-.35 1.85-1.4 4.55l-2.85 5.9-1.4 2.45-2.05 3.75-3.05 6.25q-1.95 4.3-2.6 7.35m16.6-46.1-.7-.35.7.35m4.6 9.25.15-.15-.15.15m-1.1-3.25-.35.2.35-.2m-7 10 .4-1.55-.4 1.55" fill="#815014" fill-rule="evenodd" transform="translate(-240.8 -148.45)"/><path d="m354.85 223.7-.35.3.1-.3h.25" fill="#4d3524" fill-rule="evenodd" transform="translate(-240.8 -148.45)"/><path d="m320.75 193.75.1.35q1.75 5.8 4.4 10.75 3.45 6.4 8.55 11.25l-3.75 1.7-2.1.9-.1-.1q-3.6-4.15-8.05-11l.35-.15q.8-.35 1.7-.75l-2.1.85-.5-.75-.9-1.4-4.55-7.65.85-1.05-1.25.4-.15-.3q-3.2-5.85-4.7-10.2l-.05-.15-.1-.35.6-.3.35-.25.85-.65 4-3.1 2.2-1.4q1.95 5.45 3.95 12.05l.4 1.3m8.65 23-1.55 1.85 1.55-1.85m-23.35-40.2q-2-6.35-5.65-9.65l8.2-1.25h1.55l2.9 6.1-4.7 3.4-2.05 1.25-.25.15M288.9 162.6l-9.25-1.05v-2.95q.25-1.45 3.05-7.3l.4-.75 9.45.9q-.3 6.95-3.65 11.15m19.6 23.85.5-.65-.5.65m9 9.4-2.85.85 2.85-.85m3.3 10.05-1.55.9 1.55-.9" fill="url(#b)" fill-rule="evenodd" transform="translate(-240.8 -148.45)"/><path d="m270.2 161.7-4.15.45-2.2.4q-1.75-5.4-2.45-8.8l5.6-1.45.05.15q2.75 6.6 3.15 9.25m-5.6-.85.35 1.5-.35-1.5m.95-1.15.5 2.45-.5-2.45" fill="url(#c)" fill-rule="evenodd" transform="translate(-240.8 -148.45)"/><path d="M250.45 170.6q-1.75 3-1.95 7l.05 3.55-.9-.25-.35-.1-.05-.05q-2.85-.95-5.55-2.25l.05-.8.6-9.7q.2-1.3.55-2.4 2.05 1.1 4.3 2.65l1.25.85 1.65 1.2.35.3m4.4 47.45-.1-1.15-.1-.35-.7-1.9q3.55-1.6 7.15-3.85l.5.9.5 1.1-1.8 1.7 1.8-1.7.45 1.05-4.45 4.25-3.4 2.35.15-1.4v-1M244.6 196.5l-1.1-3.45q6.05 3.85 10.65 5.4l1.4 2.75 1.7 3.05-1.6-.75-5.2-3.05-5.85-3.95m9.35 5.3 1.7 1.7-1.7-1.7m6.5 11.3 1.15-1.4-1.15 1.4m-8.05-14 3.15 2.1-3.15-2.1" fill="url(#d)" fill-rule="evenodd" transform="translate(-240.8 -148.45)"/><path d="m308.4 186.1-.3-1.05-.65-2.65-1.15-5.1-.25-.75.25-.15 2.05-1.25 4.7-3.4 3.35 8.65-2.2 1.4-4 3.1-.85.65-.35.25-.6.3m-8-19.2q-2.45-2.15-5.6-3l-5.9-1.3q3.35-4.2 3.65-11.15 3.9.75 7.35 2.2 5.1 2.15 10.25 12h-1.55l-8.2 1.25m-3.65-10.45-.55 5.9.55-5.9m.6 2.65-.45 3.25.45-3.25m11.7 24.75-.95 1.2.95-1.2m0-7.65-2.75 1.1 2.75-1.1m1.15 8.7-1.2.9 1.2-.9" fill="url(#e)" fill-rule="evenodd" transform="translate(-240.8 -148.45)"/><path d="m353.9 222.5.05.25-.9 1.05-.8.7-.7.1q-7.35.55-15.8-6.7l-1.95-1.8q-5.1-4.85-8.55-11.25-2.65-4.95-4.4-10.75l-.1-.35.1-.05-.1.05-.4-1.3q-2-6.6-3.95-12.05l-3.35-8.65-2.9-6.1q-5.15-9.85-10.25-12-3.45-1.45-7.35-2.2l-9.45-.9-.4.75q-2.8 5.85-3.05 7.3v2.95l-4.7-.1-4.75.25q-.4-2.65-3.15-9.25l-.05-.15 2.5-.5q7.3-1.3 13.6-1.25-6.3-.05-13.6 1.25l-2.5.5-5.6 1.45q.7 3.4 2.45 8.8-4.7.95-7.8 2.7-3.7 2.1-5.6 5.35l-.35-.3-1.65-1.2-1.25-.85q-2.25-1.55-4.3-2.65 2.1-7.45 8.65-10.3 4.35-1.95 9.55-3.35l5.25-1.2 2.75-.55q7.95-1.4 14.75-1.25l8.7.95q3.7.8 6.95 2.15 5.5 2.3 11.05 13.6l2.7 5.95 3.3 8.7q1.95 5.55 3.9 12.2l.4 1.2q1.85 5.95 4.8 10.9l-.4.25.4-.25q3.65 6.35 9.05 11.1l-.9.4.9-.4.65.6q10 8.65 18.55 6.2m-25.7-3.5-.25-.3 1.4-.6-1.15.9m-8.4-11.4-.05-.05 2.1-.85q-.9.4-1.7.75l-.35.15m-6-9.85-.4-.65 1.25-.4-.85 1.05m-65.25-16.6.1.75.05.3.55 3.1q1.35 5.85 4.9 13.15-4.6-1.55-10.65-5.4-1.5-5.5-1.7-11.75l-.1-2.8q2.7 1.3 5.55 2.25l.05.05.35.1.9.25m14.85 35.25q.95 3.35 1.1 7.15.2 6.7-2.15 14.7l-.55 1.75-1.15 3.2q-2.2 5.5-5.25 9.45-4 5.2-7.8 5.35-6.3.25-6.2-5.35v-.4l.05-.75q.35-3.2 2.5-8.15l3.05-6.25 2.05-3.75 1.4-2.45 2.85-5.9q1.05-2.7 1.4-4.55l3.4-2.35 4.45-4.25.85 2.55m-9.45-1.75q-1.25-2.95-2.8-5.6-3-4.7-4.7-8.15l-1.85-4.4 5.85 3.95 5.2 3.05 1.6.75 3.2 5.45.65 1.1q-3.6 2.25-7.15 3.85m-12.2-36.95q-.05-4.45.55-9.2l.05-.5-.6 9.7m109.6 46.2 1.7-.1-1.7.1m-73.2-64.75.25 1.4-.25-1.4m.55-1.15.95 3.1-.95-3.1m-26.5-.4q4.15-2.3 9.2-3.85-5.05 1.55-9.2 3.85m-4.05 9.7 2.25 2.25-2.25-2.25m.5 14.6-1-1 1 1m-1.45.25 1 .7-1-.7m65.85-10.4q.05-.1.2-.15-.15.05-.2.15m-2.5-6.1h-.4.4m6 14.65-.15.1.15-.1m-66.35 71.65q.55-.7.55-1.75t-.55-1.8q-.55-.7-1.35-.7t-1.35.7q-.55.75-.55 1.8t.55 1.75q.55.75 1.35.75t1.35-.75" fill="url(#f)" fill-rule="evenodd" transform="translate(-240.8 -148.45)"/><path d="m329.35 218.1.7-.3 3.75-1.7 1.95 1.8q8.45 7.25 15.8 6.7l.7-.1 2.25-.5q-.2 1-4.35 4.05-4.2 3-16.25-4.05-2.55-1.5-5.7-5l1.15-.9" fill="url(#g)" fill-rule="evenodd" transform="translate(-240.8 -148.45)"/><path d="m316.5 159.65.05-.05q.15-.7.65-1.05 1.45-1.05 4.5 1.1.85.6 2 4.1l2.35 7.75 1.85 5.2.3-.05m-11.8-16.8q0-.75.3-1.25l-.2 1.05v.1q-.15.65-.05 1.65l.05.15q.45 3.5 4 13.9l.95 2.7q3.3 9.05 6.05 12.65l.75.9 6.6 6.95 10.95 11.4.7.7q6.5 7.2 7.8 10.95l.05.25.25 1.35v.25m2.1-7.2q-1.15-3.45-4.85-8.95l-.7-1q-3.9-5.6-9.45-11.5l-7.5-7.5q-3.45-3.65-6.3-10.7m7.05 10.25-.75.45m7.5 7.5.8-.3m9.1 11.4-.45.4m2.8 16.35-.9 1.05-.8.7m-27-19.65.4-.25q-2.95-4.95-4.8-10.9l-.1.05m13.05 22.35.9-.4q-5.4-4.75-9.05-11.1m2.55 14.4-.25-.3-.1-.1q-3.6-4.15-8.05-11l-.05-.05-.5-.75-.9-1.4-4.55-7.65-.4-.65-.15-.3q-3.2-5.85-4.7-10.2m-.05-.15-.4-1.4-.65-2.65-1.15-5.1-.25-.75q-2-6.35-5.65-9.65-2.45-2.15-5.6-3l-5.9-1.3-9.25-1.05-4.7-.1-4.75.25-4.15.45-2.2.4q-4.7.95-7.8 2.7-3.7 2.1-5.6 5.35-1.75 3-1.95 7l.05 3.55.1.75m.05.3.55 3.1q1.6 5.95 5.4 13.3l3.3 6 2.1 3.5 1.4 2.5 1.25 3.1.7 2.7q.95 3.35 1.1 7.15.2 6.7-2.15 14.7l-.55 1.75-1.15 3.2q-2.2 5.5-5.25 9.45-4 5.2-7.8 5.35-6.3.25-6.2-5.35l-.1-1.65.05-.3m13.5-32.3v-.35l-.1-1.15-.1-.35-.7-1.9q-1.25-2.95-2.8-5.6-3-4.7-4.7-8.15l-1.85-4.4-1.1-3.45q-1.5-5.5-1.7-11.75l-.1-2.8.05-.8q-.05-4.45.55-9.2l.05-.5q.2-1.3.55-2.4 2.1-7.45 8.65-10.3 4.35-1.95 9.55-3.35l5.25-1.2 2.75-.55q7.95-1.4 14.75-1.25l8.7.95q3.7.8 6.95 2.15 5.5 2.3 11.05 13.6l2.7 5.95 3.3 8.7q1.95 5.55 3.9 12.2l.4 1.2m7.35 25.3q3.15 3.5 5.7 5 12.05 7.05 16.25 4.05 4.15-3.05 4.35-4.05l.1-.3v-.15m-19.9-7.85.65.6q10 8.65 18.55 6.2m.95 1.2-.35.3m-112.15-56-.6 9.7m74.75-16.15q-.15-.35-.15-1.35l.05-.35m.1-.2v.1m-3.25 11.85q-.15.05-.2.15m3.35 8.65.15-.1m-6.4-14.65h.4m-56.4 32.8 1.4 2.75 1.7 3.05.7.35m-3.3-6-.5-.15q-3.55-7.3-4.9-13.15m11.85 25.5-.65-1.1-3.2-5.45m4.85 8.55-.5-1.1-.5-.9.35-.2m1.25 3.1-.15.15.85 2.55m-.85-2.55-.45-1.05m-7.25 6.25v-1m-.15 2.4-.25.15q-1.45 4.35-5.5 11.5-7.15 12.6-7.6 18.6m13.5-31.65-.4 1.55" fill="none" stroke="#4a2d02" stroke-linecap="round" stroke-linejoin="round" transform="translate(-240.8 -148.45)"/><path d="m87.05 70.15 1.55-1.85M67.75 38.15 67.7 38M7.85 33.45l.05.3m81.35 35.6-.7.3-1.15.9M37.6 12.1l-.25-1.4m1.5 1.95-.95-3.1M25.25 13.7l-.5-2.45m-.6 2.65-.35-1.5M9.6 21.1l-2.25-2.25m.3 1.8 1.65 1.2m-2.8 10.5.35.1 1 1m-.45.95-1-.7m49.7-19.8.45-3.25M55.4 13.9l.55-5.9M68.2 37.35l-.5.65m-2.2-9.15 2.75-1.1m-.95 8.85.95-1.2m-.7-8.7-2.05 1.25m2.7 9.4 1.2-.9m4.45 11.8 2.85-.85M73 49.3l.85-1.05-1.25.4m5.85 9.7 1.55-.9m1.05.8-2.1.85m-64.1-4.05-1.7-1.7m7.65 9.9-1.15 1.4m1.65-.3-1.8 1.7m-4.75-13.3-3.15-2.1" fill="none" stroke="#4a2d02" stroke-linecap="round" stroke-linejoin="round" stroke-width=".1"/><path d="M328.2 176.65q-1.35-3.05-2.55-6.75l-2.35-7.75q-1.15-3.5-2-4.1-3.05-2.15-4.5-1.1-1 .75-.75 2.85l.1.6m38.45 62.9.4-.1 1.1-.8q1.2-1.75 1.05-3.9l-.1-.75-.35-1.4m-14.2-21.75-7.55-7.65m7.55 7.65q5.25 5.75 8.95 11.2l.15.2q4.5 6.75 5.1 10.35m-28.5-39.7q2.8 6.55 6.2 9.75l.55.55m18.1 36.85 1.55-.5m0 .25.4-.35m-34.25-29.45.1.35q1.75 5.8 4.4 10.75 3.45 6.4 8.55 11.25m20.7 7.9-2.25.5-.7.1q-7.35.55-15.8-6.7l-1.95-1.8m21.05 7.6 1.25-1.3m-3.05 1.4-1.7.1m-68.25-73.35q-6.3-.05-13.6 1.25l-2.5.5-5.6 1.45q-5.05 1.55-9.2 3.85m60.85 14.15-2.9-6.1q-5.15-9.85-10.25-12-3.45-1.45-7.35-2.2l-9.45-.9m29.95 21.2 3.35 8.65m4.35 13.35-.4-1.3q-2-6.6-3.95-12.05" fill="none" stroke="#b38246" stroke-linecap="round" stroke-linejoin="round" transform="translate(-240.8 -148.45)"/></g></defs></svg>