<svg viewBox="0 0 220.58 208.74" xmlns="http://www.w3.org/2000/svg" xmlns:xlink="http://www.w3.org/1999/xlink"><g transform="translate(-140.03 -53.491)"><use transform="translate(140.05 53.5)" width="220.55" height="208.75" xlink:href="#a"/><use transform="translate(149.8 124.15)" width="169.25" height="123.85" xlink:href="#b"/></g><defs><linearGradient id="c" x1="-819.2" x2="819.2" gradientTransform="matrix(-.0366 .0212 -.017 -.0294 300.65 103)" gradientUnits="userSpaceOnUse"><stop stop-color="olive" offset="0"/><stop stop-color="#515005" offset="1"/></linearGradient><linearGradient id="d" x1="-819.2" x2="819.2" gradientTransform="matrix(.0659 -.0429 .0239 .0367 326.95 142.7)" gradientUnits="userSpaceOnUse"><stop stop-color="#5b5b00" offset="0"/><stop stop-color="#24230b" offset="1"/></linearGradient><g id="a"><path d="M341.55 97.75q.4-7.15-1.6-14.75-5.9-16.1-21.55-15.6l1.55-9.3-9.25 10.35q-6.8 1.6-14.95 5.65l1.45-4.15 1.75-4.8 1.75-4.75q16.3-6.65 31.25-6.4Q346.3 64.2 354 82.35q1.5 9.45.75 17.95l-13.2-2.55m2.85 6.8 9.4 2.4q-3.35 16.5-15.85 29.05-28.8 29.05-71.1 37.85 1.25-6.6 3.1-13.85 12.3-4.45 22.5-9.25 5.7-2.7 10.8-5.5 25.1-14.1 33.8-31.2 2.55-5.1 3.7-10.45l3.65.95m-88.2 13-1 1.45q-1.2 1.25-2.95 1.25-1.65 0-2.85-1.1l1.3-.75q.8-.8.8-1.9v-.25q1.85-2.15 4.7 1.3M249.3 168q.25-2.45.65-5 3-7.25 6 5l.05 4.7-6.7-4.7" fill="#990" fill-rule="evenodd" transform="translate(-140.05 -53.5)"/><path d="M339.95 83q2 7.6 1.6 14.75l2.85 6.8-3.65-.95q-1.15 5.35-3.7 10.45-.45-3.35-1.2-6-3-10.6-10.9-9.05l-5.6 5.65-.25-.25q.4-2.05-1-4.45-3-5.15-14.15-11.95-16.35-4.6-25 14l-.25.95q-2 8.15 13.25-.95 14.05-3.35 13.3 5.25l-.3 1.75q-5.25 13.15-34.95 26.3l-10.05 1.7q-16.55-2.1-21 12-13.25-8.35-8.85-20.45 3.9-10.8 21.85-24.55 18.55-15.3 33.4-24.2 5.45-3.3 10.4-5.7 8.15-4.05 14.95-5.65 12.8 7.5 14.5 26.5l.15-2.55q.35-13.45-6.95-25 15.65-.5 21.55 15.6m-64 34.1-4.5.35q-2.55.65-4.1 1.95-1.6 1.35-1.25 2.55.25.9 1.35 1.3l1 .25 4.55-.25q2.5-.7 4.05-2.05 1.55-1.3 1.25-2.5-.35-1.2-2.2-1.6h-.15m-27.2-3.35-.05.05q-.65 1-.65 2.25 0 1.75 1.2 2.95l.15.15q1.2 1.1 2.85 1.1 1.75 0 2.95-1.25l1-1.45.25-1.5q0-1.75-1.25-3-1.2-1.2-2.95-1.2t-3 1.2l-.5.7" fill="url(#c)" fill-rule="evenodd" transform="translate(-140.05 -53.5)"/><path d="m298.95 65.15-1.75 4.8-.15-8 1.9 3.2m11.75 3.3 9.25-10.35-1.55 9.3q7.3 11.55 6.95 25l-.15 2.55q-1.7-19-14.5-26.5m-69 114.35-16.55-33.4 15.35 13.7q1 10.95 1.2 19.7m7.05-69.05.5-.7q1.25-1.2 3-1.2t2.95 1.2q1.25 1.25 1.25 3l-.25 1.5q-2.85-3.45-4.7-1.3-.1-.95-.8-1.65-.8-.8-1.9-.8l-.05-.05m.55 54.25 6.7 4.7q.05 11.5-.8 18.4l-6.8-4.7q-.45-7.8.9-18.4" fill="#5b5b00" fill-rule="evenodd" transform="translate(-140.05 -53.5)"/><path d="m341.55 97.75 13.2 2.55q3.7 13.2-.95 24.05 1.9-10.6 0-17.4l-9.4-2.4-2.85-6.8m-9.75 78.4q2.55-9.8.35-18.85 6.3 6.2 2.85 18.5-1.95-1.35-3.2.35" fill="#3c3c00" fill-rule="evenodd" transform="translate(-140.05 -53.5)"/><path d="M354.75 100.3q.75-8.5-.75-17.95 3.75 8.9 5.95 19.65 1.55 27.9-12 52-5.25 12.35-12.95 21.8 3.45-12.3-2.85-18.5 2.2 9.05-.35 18.85l-1.7 5.15q-10.3 10.5-24.15 16.7-22.6 3.35-41.35-4.95.3-8.8 2.25-19.2 42.3-8.8 71.1-37.85 12.5-12.55 15.85-29.05 1.9 6.8 0 17.4 4.65-10.85.95-24.05" fill="url(#d)" fill-rule="evenodd" transform="translate(-140.05 -53.5)"/><path d="M303.25 145.25q-5.1 2.8-10.8 5.5-8.7-.5-17.3-.35-2.9.25-4.65 2.45-4.7 5.85-10.35 6.95l.05-.85q.2-2.75 1.75-4.95 3.5-5.95 8.3-7.85l-.25-.5q0-.7 2-3.2l2.6-3.1 1-1-.85-.15q-13.7 1.75-22.7 13.05-.7.85-1.65 1.1-6.25 2.2-4-5.35-2.55 1.25-3.9 3.8.85 8.8 1.25 17.65.35 8.65 1.7 17.1 3.25 20.2-4.9 37.95-5.45-1.75-10.2-6.1l.55-.2q3.05-.05 5.5-1.7l2.55-5.5q3.15-8.85 2.75-27.2-.2-8.75-1.2-19.7l-1.55-14.1q4.45-14.1 21-12l10.05-1.7q29.7-13.15 34.95-26.3l.3-1.75q4.3 6-2.75 11.7-4.5 3.6-9.55 6.8l-7.8 4.8 3.85-.3q-1 3.3-4.5 5.05l.55.1q4.35.9 7.7 3.4.75 1.85-.9 2.95-8.15 5.1-17 .7l-1.75 2.9-2.85.8 2.85-.8 2.85-.15q12.8 4.35 22.75.05h4.55m32.6-37.2q-4.9 10.25-11.6 19.3-4.3 5.75-10.45 6.65 8.7-5.85 10.75-15.3l-2.5.7.9-3.05q.75-1.85 1.75-3.6-1.25.35-2.2 1.1-7.85 5.6-16.05 4.6.9-.45 1.9-.8 8.3-3.55 10.45-12.75l.15.1.4-.35 5.6-5.65q7.9-1.55 10.9 9.05m-17.75-8.1-.65 4.2-.45.35q-6.7.85-10.85-5.5-.85-1.3-2.15-1.75-12.8-3.75-22.15 7.35l-.8-.25q-1.25-.6-2.35-1.4l.25-.95q8.65-18.6 25-14 11.15 6.8 14.15 11.95m13.4 110.85q-.6 2.65-3.15 3.5-8.5 2.95-17.2.1l-3.65 4.45q-2.35-.7-2.3-1.5 0-.75 2.2-3.5l2.85-3.4.35-.4q3.45-3.75 7.55-4.2l3.65.2q5.6 1.2 9.7 4.75m14.05 26.5q-20.2 5.6-78.2 3.25h-.9l-11.5-.55 7.75 1.15-.05.1q-11.5 2.45-23-1.9l-2.9-1.2q14.1-3.3 28.55-3.6l1.1-.2-12.7.25q11.55-4.3 23.85-6.5l13.4-2.35q14.05-2.6 28.45-1.5l-6.6 4q12.25-.8 24.05 2.15 5.9 1.6 9.3 6.15l-.15.4-.45.35m-67.75 6.55q21.25 4.3 29.6 10 3.7 7.45-31.45 7.15-22.6 1.1-41.75.55-18.25-.55-33.3-2.5-10.25-1.4-19.05-3.45l4.5-1.3 4.7-1.7.9-.55-.2-.85-1-.4q-11.35-1.9-22.75.85-4.8-1.7-9-3.65l-1.85-1.15 16.65-4-5.75-1.35L184 239l-19.85-3.85 22.2-1.45q9.55-.25 18.8 2.1l-1.05.65q9.7-.65 19.4.3 4.5-.15 7.55 2.75l.05.85-.3.35-8.85 2.2-5.05-.45q-6.05-.7-10.5-.05t-4.45 2.1v.2h.05q.25 1.3 5.05 2.25 5.15 1.05 12.4 1.05h1.25l2.35 2q-6.5 3.05-14.15 2.5 4.35.5 8.25 2.25l1.9.15 6.15.2 7.05-.25 10.85-.7 5.9-.4-6.2-1q-2.75-.55-3.85-2.1 4.35-3.1 9.6-3.8 9.05-.25 18.15 0l7.95-.7-15.8-.7 4.75-.7 14.2-.9m-118.05-9.7Q120.7 224.95 161 220l.85.05q8.15.5 16.9.15-.8 1.25-.8 1.8 0 1.65 6.6 2.8l4.25.65-9.8 1.9 17.7 2.05-1.3.4q-11.9 1.3-23.55-.35l-7.05 1.25 4.25 1.5-9.3 1.95m22.35-18.35 3.05-3.6q7.15-8.15 16.3-6.2 7 1.5 12.25 5.5l3.1 2.65.95 1 2.4 2.55 3.65.2q4.95 1.05 8.7 3.9l2.1 1.85q4.35 4.4 4.35 5.55 0 1-3.3 1.7l-.7-1.35q-1.45-2.9-4.05-4.7l-.95.75q-10.6 7.35-18.6-2.3l.9-1q1.7-1.95 3.6-3.1l-4.25-4.9q-10.45 6.5-22.7 6.25-5.05-.4-6.8-4.75M286.4 94.9l1.85.1 3.45-1.45q1.9-1.15 3.05-2.3 1.1-1.15.8-1.65-.3-.55-1.85-.15-1.6.4-3.5 1.5t-3 2.25q-1.15 1.15-.8 1.7m-73.85 41.6-.35-1.7q-.3-1.3-1.6-1.95.7 1.65-.2 3.1-.65.95-1.6 1.25l-.9-.65q-.95-.95-.95-2.3t.95-2.3 2.3-.95 2.3.95.95 2.3q0 1.3-.9 2.25m-12 22 .2-4q-.05-2.25-1.15-4.3-1.25-2.3-3.85-3 0 .5.15.9.85 2 .15 4.05l-.45 1.1q-.85 1.75-2.45 2.95-1.55 1.15-3.5 1.5-4.8.85-8.9-1.9l-.45-.3q-.3-1.25-.3-2.55 0-4.55 3.2-7.8 3.25-3.2 7.8-3.2t7.75 3.2q3.25 3.25 3.25 7.8 0 3.05-1.45 5.55m9.95 33.65-.95-.75q-1.6-1.6-1.6-3.9t1.6-3.9 3.9-1.6 3.9 1.6 1.6 3.9q0 1.9-1.05 3.3l-.1-2.8q-.3-2.95-3.2-3.85.25 1.4.15 2.85l-.25 1.35q-1.2 3-4 3.8m87.55-62.25q.5-1.05 1.6-2.3 2.15-2.5 4.8-2l.8.2.15 1.75q-.4 7.95-7.35 2.35m7.6-4 1.05-1.45q1.5-1.75 3.35-1.4 1.65.3 2.85 1.45 0 1.5-1.15 2.55t-2.8 1.05h-.05l-.2-.25q-1.3-1.35-3.05-1.95m-38.2-2.65q-1.1-.4-1.35-1.3-.35-1.2 1.25-2.55 1.55-1.3 4.1-1.95l4.5-.35.1.1q-1.4 1.9-3.35 3.35-2.35 1.75-5.25 2.7m-8.3 43.05q1.3 4.35 1.85 8.9 2.1 17.7-.75 34.95-.55 3.35-3.45 5.1-.95-12.35.75-24.9 1.6-12.1 1.55-24.05h.05m9.8 42q18.35-.15 32.95.95l.15.4q-.6 1.6-2.3 2.2-12.1 3.7-24.7 2.7-7.85-.95-6.1-6.25m15.55-73q-4.9-.8-8.9 3.05 4-3.85 8.9-3.05m-64.35 82.4q-2.25.25-4.3 1.5 2.05-1.25 4.3-1.5m15.35-.35.9-1.85-.9 1.85" fill="#545401" fill-rule="evenodd" transform="translate(-140.05 -53.5)"/><path d="M337.05 114.05q-8.7 17.1-33.8 31.2h-4.55q-.55-1.3-3.85-4.65l-2.1-1.8 2.1 1.8q3.3 3.35 3.85 4.65-9.95 4.3-22.75-.05l-2.85.15 1.75-2.9q8.85 4.4 17-.7 1.65-1.1.9-2.95-3.35-2.5-7.7-3.4l-.55-.1q3.5-1.75 4.5-5.05l-3.85.3 7.8-4.8q5.05-3.2 9.55-6.8 7.05-5.7 2.75-11.7.75-8.6-13.3-5.25-15.25 9.1-13.25.95 1.1.8 2.35 1.4l.8.25q9.35-11.1 22.15-7.35 1.3.45 2.15 1.75 4.15 6.35 10.85 5.5l.45-.35.65-4.2q1.4 2.4 1 4.45l-.15.6-.15-.1q-2.15 9.2-10.45 12.75-1 .35-1.9.8 8.2 1 16.05-4.6.95-.75 2.2-1.1-1 1.75-1.75 3.6l-.9 3.05 2.5-.7q-2.05 9.45-10.75 15.3 6.15-.9 10.45-6.65 6.7-9.05 11.6-19.3.75 2.65 1.2 6m-44.6 36.7q-10.2 4.8-22.5 9.25-1.85 7.25-3.1 13.85-1.95 10.4-2.25 19.2-.3 8.35.85 15.25h3.5q-1.75 5.3 6.1 6.25 12.6 1 24.7-2.7 1.7-.6 2.3-2.2l-.15-.4 8.4.75-.05.45-2.85 3.4q-2.2 2.75-2.2 3.5-.05.8 2.3 1.5l3.65-4.45q8.7 2.85 17.2-.1 2.55-.85 3.15-3.5l1.1 1 2.6 2.75q15.6 4.55 20.75 12.45 2.45 6.75-10.4 10.3l.45-.35.15-.4q-3.4-4.55-9.3-6.15-11.8-2.95-24.05-2.15l6.6-4q-14.4-1.1-28.45 1.5l-13.4 2.35q-12.3 2.2-23.85 6.5l12.7-.25-1.1.2q-14.45.3-28.55 3.6l2.9 1.2q11.5 4.35 23 1.9l.05-.1.45.05 14.65 2.65-14.2.9-4.75.7 15.8.7-7.95.7q-9.1-.25-18.15 0-5.25.7-9.6 3.8 1.1 1.55 3.85 2.1l6.2 1-5.9.4-10.85.7-7.05.25-6.15-.2-1.9-.15q-3.9-1.75-8.25-2.25 7.65.55 14.15-2.5l-2.35-2 11.1-1.05q5.15-1 5.15-2.45t-7-1.4l-8-.2 8.85-2.2.3-.35-.05-.85q-3.05-2.9-7.55-2.75-9.7-.95-19.4-.3l1.05-.65q-9.25-2.35-18.8-2.1l-22.2 1.45-4.4-1 9.3-1.95-4.25-1.5 7.05-1.25q11.65 1.65 23.55.35l1.3-.4-17.7-2.05 9.8-1.9-4.25-.65q-6.6-1.15-6.6-2.8 0-.55.8-1.8 1-1.65 3.35-4.4 1.75 4.35 6.8 4.75 12.25.25 22.7-6.25l4.25 4.9q-1.9 1.15-3.6 3.1l-.9 1q8 9.65 18.6 2.3l.95-.75q2.6 1.8 4.05 4.7l.7 1.35q3.3-.7 3.3-1.7 0-1.15-4.35-5.55l-2.1-1.85q-3.75-2.85-8.7-3.9l-3.65-.2-2.4-2.55q12.75-.6 21.2-5.15l-2.55 5.5q-2.45 1.65-5.5 1.7l-.55.2q4.75 4.35 10.2 6.1 8.15-17.75 4.9-37.95-1.35-8.45-1.7-17.1-.4-8.85-1.25-17.65 1.35-2.55 3.9-3.8-2.25 7.55 4 5.35.95-.25 1.65-1.1 9-11.3 22.7-13.05l.85.15-1 1-2.6 3.1q-2 2.5-2 3.2l.25.5q-4.8 1.9-8.3 7.85-1.55 2.2-1.75 4.95l-.05.85q5.65-1.1 10.35-6.95 1.75-2.2 4.65-2.45 8.6-.15 17.3.35M181.85 255.6q-7.45-1.75-13.85-3.95 11.4-2.75 22.75-.85l1 .4.2.85-.9.55-4.7 1.7-4.5 1.3m-24.7-8.75q-2.5-2.7 10.9-5.35l5.75 1.35-16.65 4m175.55-27.6q4.25-.8 4.25-1.9 0-.75-1.75-2.8 1.75 2.05 1.75 2.8 0 1.1-4.25 1.9M286.4 94.9q-.35-.55.8-1.7 1.1-1.15 3-2.25t3.5-1.5q1.55-.4 1.85.15.3.5-.8 1.65-1.15 1.15-3.05 2.3L288.25 95l-1.85-.1m-77.6 42.3q.95-.3 1.6-1.25.9-1.45.2-3.1 1.3.65 1.6 1.95l.35 1.7-.05.05q-.95.95-2.3.95l-1.4-.3m-28.5 18.3.45.3q4.1 2.75 8.9 1.9 1.95-.35 3.5-1.5 1.6-1.2 2.45-2.95l.45-1.1q.7-2.05-.15-4.05-.15-.4-.15-.9 2.6.7 3.85 3 1.1 2.05 1.15 4.3l-.2 4-1.8 2.2q-3.2 3.25-7.75 3.25t-7.8-3.25q-2.25-2.25-2.9-5.2m37.6 35.3-.55.6q-1.6 1.6-3.9 1.6-1.65 0-2.95-.85 2.8-.8 4-3.8l.25-1.35q.1-1.45-.15-2.85 2.9.9 3.2 3.85l.1 2.8m80.15-60.9q-.55 1-.55 1.85 0 1.7 1.9 2.9l.5.3-.5-.3q-1.9-1.2-1.9-2.9 0-.85.55-1.85 6.95 5.6 7.35-2.35l-.15-1.75-.8-.2q-2.65-.5-4.8 2-1.1 1.25-1.6 2.3m7.6-4-.4-.1.4.1q1.75.6 3.05 1.95l.2.25h.05q1.65 0 2.8-1.05t1.15-2.55q-1.2-1.15-2.85-1.45-1.85-.35-3.35 1.4l-1.05 1.45m8 3q.75-.7.8-1.55-.05-1.2-1.3-2.55l-.25-.3.25.3q1.25 1.35 1.3 2.55-.05.85-.8 1.55m-5.45 6.1q.25-.15.55-.35 1.95-1.2 1.95-2.9l-.35-1.55-1.4-2.1 1.4 2.1.35 1.55q0 1.7-1.95 2.9-.3.2-.55.35m-32.25-17.9h.15q1.85.4 2.2 1.6.3 1.2-1.25 2.5-1.55 1.35-4.05 2.05l-4.55.25-1-.25q2.9-.95 5.25-2.7 1.95-1.45 3.35-3.35l-.1-.1M256 172.7l-.05-4.7q-3-12.25-6-5-.4 2.55-.65 5-1.35 10.6-.9 18.4.5 9.35 3.55 14.6 2.25-1.75 3.25-9.9.85-6.9.8-18.4m3.15-6.4h-.05q.05 11.95-1.55 24.05-1.7 12.55-.75 24.9 2.9-1.75 3.45-5.1 2.85-17.25.75-34.95-.55-4.55-1.85-8.9m10.8 55.7q-3.2-5.9-4.5-13.7 1.3 7.8 4.5 13.7M202 244.7h-.05v-.15l.05.15m12.2-13.15-2.35-.35q-4.7-.85-4.65-2 0-.75 2.2-3.5l1.95-2.4-1.95 2.4q-2.2 2.75-2.2 3.5-.05 1.15 4.65 2l2.35.35" fill="#330" fill-rule="evenodd" transform="translate(-140.05 -53.5)"/><path d="M224.6 125.9q8.3-19.55 57.35-55.9l1.55-.9 1.85 10.7q-14.85 8.9-33.4 24.2-17.95 13.75-21.85 24.55l-5.5-2.65" fill="#cac902" fill-rule="evenodd" transform="translate(-140.05 -53.5)"/><path d="m297.2 69.95-1.45 4.15q-4.95 2.4-10.4 5.7l-1.85-10.7q6.85-4.15 13.55-7.15l.15 8m-72.05 79.45-2.2-4.4v-11q-.25-3.6 1.65-8.1l5.5 2.65q-4.4 12.1 8.85 20.45l1.55 14.1-15.35-13.7" fill="#b1b101" fill-rule="evenodd" transform="translate(-140.05 -53.5)"/><path d="m319.35 104.65-.4.35.15-.6.25.25" fill="olive" fill-rule="evenodd" transform="translate(-140.05 -53.5)"/><path d="m341.55 97.75 13.2 2.55q.75-8.5-.75-17.95Q346.3 64.2 331.95 54q-14.95-.25-31.25 6.4l-1.75 4.75-1.75 4.8-.15-8 1.9 3.2m-3.2 8.95q8.15-4.05 14.95-5.65l9.25-10.35-1.55 9.3q15.65-.5 21.55 15.6M318.4 67.4q7.3 11.55 6.95 25l-.15 2.55q-1.7-19-14.5-26.5m33.7 36.1 9.4 2.4q1.9 6.8 0 17.4 4.65-10.85.95-24.05m-84.8 59.7q-1.85 7.25-3.1 13.85 42.3-8.8 71.1-37.85 12.5-12.55 15.85-29.05m-17.95 1.1q.75 2.65 1.2 6m3.7-10.45 3.65.95-2.85-6.8m-5.7 10.3q-3-10.6-10.9-9.05l-5.6 5.65-.4.35.15-.6q.4-2.05-1-4.45-3-5.15-14.15-11.95-16.35-4.6-25 14l-.25.95q-2 8.15 13.25-.95 14.05-3.35 13.3 5.25m-6.55 38h4.55m-38.65 47.8q18.75 8.3 41.35 4.95 13.85-6.2 24.15-16.7l1.7-5.15q2.55-9.8.35-18.85 6.3 6.2 2.85 18.5 7.7-9.45 12.95-21.8 13.55-24.1 12-52-2.2-10.75-5.95-19.65m-19 93.45q-1.95-1.35-3.2.35m-.3 34.65q-4.1-3.55-9.7-4.75l-3.65-.2q-4.1.45-7.55 4.2l-.35.4-2.85 3.4q-2.2 2.75-2.2 3.5-.05.8 2.3 1.5m24-8.05 1.1 1 2.6 2.75q15.6 4.55 20.75 12.45 2.45 6.75-10.4 10.3-20.2 5.6-78.2 3.25m-.9 0-11.5-.55 7.75 1.15.45.05 14.65 2.65q21.25 4.3 29.6 10 3.7 7.45-31.45 7.15-22.6 1.1-41.75.55-18.25-.55-33.3-2.5-10.25-1.4-19.05-3.45-7.45-1.75-13.85-3.95-4.8-1.7-9-3.65l-1.85-1.15q-2.5-2.7 10.9-5.35L184 239l-19.85-3.85-4.4-1Q120.7 224.95 161 220l.85.05q8.15.5 16.9.15 1-1.65 3.35-4.4l3.05-3.6q7.15-8.15 16.3-6.2 7 1.5 12.25 5.5l3.1 2.65.95 1q12.75-.6 21.2-5.15 3.15-8.85 2.75-27.2l-16.55-33.4-2.2-4.4v-11q-.25-3.6 1.65-8.1 8.3-19.55 57.35-55.9l1.55-.9q6.85-4.15 13.55-7.15m38.15 152.6q1.75 2.05 1.75 2.8 0 1.1-4.25 1.9M295.75 74.1q-4.95 2.4-10.4 5.7-14.85 8.9-33.4 24.2-17.95 13.75-21.85 24.55-4.4 12.1 8.85 20.45 4.45-14.1 21-12l10.05-1.7q29.7-13.15 34.95-26.3l.3-1.75m-92.7 29.25q.9-.95.9-2.25 0-1.35-.95-2.3t-2.3-.95-2.3.95-.95 2.3.95 2.3l.9.65 1.4.3q1.35 0 2.3-.95l.05-.05m-12 22q1.45-2.5 1.45-5.55 0-4.55-3.25-7.8-3.2-3.2-7.75-3.2t-7.8 3.2q-3.2 3.25-3.2 7.8 0 1.3.3 2.55.65 2.95 2.9 5.2 3.25 3.25 7.8 3.25t7.75-3.25l1.8-2.2m38.4-9.5 1.55 14.1q1 10.95 1.2 19.7m-1.2-19.7-15.35-13.7m-14.65 42.75-.95-.75q-1.6-1.6-1.6-3.9t1.6-3.9 3.9-1.6 3.9 1.6 1.6 3.9q0 1.9-1.05 3.3l-.55.6q-1.6 1.6-3.9 1.6-1.65 0-2.95-.85m89.4-57.2-.5-.3q-1.9-1.2-1.9-2.9 0-.85.55-1.85.5-1.05 1.6-2.3 2.15-2.5 4.8-2l1.2.3q1.75.6 3.05 1.95m.25.25 1.4 2.1.35 1.55q0 1.7-1.95 2.9-.3.2-.55.35m-58.8-15.85-.15-.15q-1.2-1.2-1.2-2.95 0-1.25.65-2.25l.05-.05.5-.7q1.25-1.2 3-1.2t2.95 1.2q1.25 1.25 1.25 3l-.25 1.5-1 1.45q-1.2 1.25-2.95 1.25-1.65 0-2.85-1.1l1.3-.75q.8-.8.8-1.9v-.25q-.1-.95-.8-1.65-.8-.8-1.9-.8h-.1m-12.3 101.7 2.55-5.5m34.15-64.65-2.85.8q-4.8 1.9-8.3 7.85m36.75-8.75q-9.95 4.3-22.75-.05l-2.85.15M256 172.7l-.05-4.7q-3-12.25-6-5-.4 2.55-.65 5l6.7 4.7q.05 11.5-.8 18.4-1 8.15-3.25 9.9-3.05-5.25-3.55-14.6-.45-7.8.9-18.4m-.9 18.4 6.8 4.7m11.65-17.25q-1.95 10.4-2.25 19.2-.3 8.35.85 15.25h3.5q18.35-.15 32.95.95l8.4.75.3.05m-45.15-1.75q1.3 7.8 4.5 13.7m-49.25 26h-1.25q-7.25 0-12.4-1.05-4.8-.95-5.05-2.25l-.05-.15v-.05q0-1.45 4.45-2.1t10.5.05l5.05.45 8 .2q7-.05 7 1.4t-5.15 2.45L220.7 248m-2.95-32.85 2.4 2.55 3.65.2q4.95 1.05 8.7 3.9l2.1 1.85q4.35 4.4 4.35 5.55 0 1-3.3 1.7m-24.3-7.6-1.95 2.4q-2.2 2.75-2.2 3.5-.05 1.15 4.65 2l2.35.35m22.2-16.05-.9 1.85m-19.65 1.85q2.05-1.25 4.3-1.5m-8.8 5.6.9-1q1.7-1.95 3.6-3.1m-27.05 6.25-4.25-.65q-6.6-1.15-6.6-2.8 0-.55.8-1.8" fill="none" stroke="#000" stroke-linecap="round" stroke-linejoin="round" stroke-opacity=".4" transform="translate(-140.05 -53.5)"/><path d="M339.95 83q2 7.6 1.6 14.75m-.8 5.85q-1.15 5.35-3.7 10.45-8.7 17.1-33.8 31.2-5.1 2.8-10.8 5.5-10.2 4.8-22.5 9.25m14.55-24.7.55.1q4.35.9 7.7 3.4l2.1 1.8q3.3 3.35 3.85 4.65m6.95-19.35 1.05-1.45q1.5-1.75 3.35-1.4 1.65.3 2.85 1.45l.25.3q1.25 1.35 1.3 2.55-.05.85-.8 1.55m-46.2-5.65q-1.1-.4-1.35-1.3-.35-1.2 1.25-2.55 1.55-1.3 4.1-1.95l4.5-.35h.15q1.85.4 2.2 1.6.3 1.2-1.25 2.5-1.55 1.35-4.05 2.05l-4.55.25-1-.25m2.8 22.9-.25-.5q0-.7 2-3.2l2.6-3.1 1-1q4-3.85 8.9-3.05" fill="none" stroke="#000" stroke-linecap="round" stroke-linejoin="round" stroke-opacity=".4" transform="translate(-140.05 -53.5)"/></g><g id="e" fill="#9b9b02" fill-opacity=".549" fill-rule="evenodd"><path d="M-40.1 26.4q-.65.9-1.95 1.25l-2.45-.1q-1.05-.45-1.3-1.45t.4-1.95q.75-.95 2.05-1.3L-41 23q1.15.45 1.4 1.45t-.5 1.95M16.65-43.65q-.7 1.05-2.1 1.9-1.45.8-2.75.9-1.2.05-1.65-.65-.4-.75.25-1.8.75-1.1 2.2-1.9 1.4-.85 2.65-.9 1.3-.1 1.7.65.45.7-.3 1.8M-45.3-35.4q-.9.95-2.25.95t-2.3-.95q-.9-.9-.9-2.25t.9-2.3q.95-.9 2.3-.9t2.25.9q.95.95.95 2.3t-.95 2.25M-20.85 1.75q-.65.7-1.6.7-1 0-1.65-.7-.65-.65-.65-1.6 0-1 .65-1.65t1.65-.65q.95 0 1.6.65.7.65.7 1.65 0 .95-.7 1.6M-25-51.95l-.5.2-.55-.2-.2-.5.2-.55.55-.2.5.2.25.55q0 .3-.25.5M47.7-44q-.6.65-1.55.65T44.5-44q-.6-.65-.6-1.6t.6-1.6q.7-.65 1.65-.65t1.55.65q.7.65.7 1.6t-.7 1.6M69.5-56.75q-.45.5-1.15.5t-1.15-.5q-.5-.45-.5-1.15 0-.65.5-1.15.45-.45 1.15-.45t1.15.45q.5.5.5 1.15 0 .7-.5 1.15M75.6-60.65l-.5.2-.55-.2-.2-.5.2-.55.55-.2.5.2.25.55-.25.5M-15.55 38.4q-.65.7-1.6.7-1 0-1.65-.7-.65-.65-.65-1.6 0-1 .65-1.65t1.65-.65q.95 0 1.6.65.7.65.7 1.65 0 .95-.7 1.6M83.95 25.4q-.65.7-1.6.7-1 0-1.65-.7-.65-.65-.65-1.6 0-1 .65-1.65t1.65-.65q.95 0 1.6.65.7.65.7 1.65 0 .95-.7 1.6M-67.6 40.15l-7 .7-7.2-.7q-2.8-.65-2.8-1.6 0-1 2.8-1.65l7.2-.65 7 .65q2.95.65 2.95 1.65 0 .95-2.95 1.6M-57.2 61.3l-5.6.65-5.7-.65q-2.25-.65-2.25-1.65 0-.95 2.25-1.6l5.7-.65q3.35 0 5.6.65 2.35.65 2.35 1.6 0 1-2.35 1.65" transform="translate(84.6 61.9)"/></g><use width="169.25" height="123.85" xlink:href="#e" id="b"/></defs></svg>