<svg viewBox="0 0 52.5 76.7" xmlns="http://www.w3.org/2000/svg" xmlns:xlink="http://www.w3.org/1999/xlink"><use width="52.5" height="76.7" xlink:href="#a"/><defs><g id="a"><path d="m37.05 37.85.2-.1.6-.45 1.7-1.1.55-.35.25-.15 1.45-.25.45-.1 1-.2.3-.05.75-.1.85-.15 4.4-.35 1.45-.1h.55l2.15.1-2.45 2.05-.4-.1-.45-.05h-.15l-.7-.1-3.2-.25-2.55.15h-.25l-1.85.25-1.8.45-1.9.6q-.4.1-.75.35h-.2" fill="#fae75f" fill-rule="evenodd" transform="translate(-21.75 -10.7)"/><path d="M23.2 53.35q.45-1.55 1.15-2.85.4-.95.95-1.8l.35-.7q1.45-2.4 3.5-4.5l.45-.5q3.45-3.45 7.45-5.15h.2q.35-.25.75-.35l1.9-.6 1.8-.45 1.85-.25h.25l2.55-.15 3.2.25.7.1h.15l.45.05-.1.2v.05l-.7 1.5-.25.4-2.15 2.25q-.25.15-.4.35-2.95-.8-8.65.75-3.85 1.65-7.65 5.45-2.4 2.85-3.85 6.6l-2.05.1q-.95-.15-1.85-.75" fill="#fdf5bd" fill-rule="evenodd" transform="translate(-21.75 -10.7)"/><path d="M74 59.95q-.45 5.5-2.7 11.45l-.6 1.45q-1.55 3.2-5.85 7l-5.4 3.35 4.1-3.55Q66.05 77 67.7 74l3.6-2.6-3.6 2.6q2.85-5.35 2.95-11.8 2.05-.7 3.35-2.25M31.15 55.8l-2.4 2.7-.95 3.45v.25l8.65 1.55 10.15 3.5 9.75 5.8 3.85 3.15-.6.6-.05.2-.6-.55q-14.15-11.5-31.1-13.4h-.15l-1.05-.1 1.05.1h.15Q28.15 67 29 70.6l.25 1.3.35 1.45-.7-1.2.35-.25-.35.25q-2.15-4.1-2.25-9.2v-.5q0-2.25.35-4.2.5-2.7 1.65-4.9l.1-.1q1.25-2.7 3.35-4.9l.35.7 1.1 2.15-1.1-2.15-.35-.7.25-.25q1.7-1.9 3.8-3.1 1.2-.9 2.45-1.4 1.15-.5 2.45-.85l2.15-.45h.65l2-.15h.1q3 0 5.75.85l2.75 1.1.5.35 2.15 1.4-.25.95.25-.95 2.5 2.25 1.15 1.25.35.35.3.55-.75.5-3.35-1.9-.35 1.2-2.15 3-2.15 1.4h-4.2L41.9 52.4l-.85-2.45q.6.8 1.55 1.3 3.5 1.65 7.9 2.25 4.05.5 6.35-6.65l.2.2-.2-.25-2.65-2-1.05 2.35-8.5.25.35.75-.7-.35-.35-.15q-1.65-1.1-1.05-4.15h-.05l-2.1.35v-.05l.3-1.05-.3 1.05v.05q-.85 3.55 0 5.5l-2.65.6-.1-.25-.15-.4-1.3-3.35h-.1l-.3-.95.3.95h.1l1.3 3.35q-.25.5-1.3 1h-.1l-.25.2-.7.15v.1l-1.2.5-.3-.6-.45.55q-1.55 1.85-2.4 4.6m33.3.55L61.4 59v-.15l-.85-2.1.45.8 2.85-3 .6 1.8m-16.3 7.9-1.6.35-.25-.6 2.65-.95-.7 1.1-.1.1m-7.8-8.35 2.85 4.85-2.15 1.8-.9-.35 2-1.55v-.1l-.1-.15-1.7-4.5M54.2 44.8l.25-.7-.25.7m-11-2.5-.3 1.2.3-1.2" fill="#c79603" fill-rule="evenodd" transform="translate(-21.75 -10.7)"/><path d="m46.3 64-.2.1-.75-2.45 1.35.1 13.7-8.25-.8-2.15.95-.5.1-.1.75-.5 2 3.25.15.45.3.6-2.85 3-.45-.8-11.6 6.3-2.65.95m-5.25-14.05-.3-.6q-.85-1.95 0-5.5l2.1-.35h.05q-.6 3.05 1.05 4.15l.35.15.7.35-.35-.75 8.5-.25 1.05-2.35 2.65 2v.05Q54.55 54 50.5 53.5q-4.4-.6-7.9-2.25-.95-.5-1.55-1.3m-.9 12.25v.05l-.5-.3.25-.35-5.6-10.35 1.2-.5 5 9.65h1.55l.1.15v.1l-2 1.55m8.55-12.5q.5-.4 1-.35 2 .3 3.45-2.2-1.45 2.5-3.45 2.2-.5-.05-1 .35l-4.75-1.3-1.35-.25.5 1.65 4.75 1.3 1.45-1.2-.6-.2M61 57.55q-.25-.8-.1-.95l-.35.15.35-.15q-.15.15.1.95" fill="#fcdc7a" fill-rule="evenodd" transform="translate(-21.75 -10.7)"/><path d="M59.45 83.2 56.6 85q-4.2 2.05-10.25 2.15-3.75 0-7.15-1.05-5.65-1.8-10.05-6.45-2.4-2.6-3.95-5.4l-.45-.7Q22 68.2 22 61.65v-.05l.1-2.4v-.1q.1-1.2.35-2.35.1-1 .35-1.95l.4-1.45q.9.6 1.85.75l2.05-.1q1.45-3.75 3.85-6.6 3.8-3.8 7.65-5.45 5.7-1.55 8.65-.75.15-.2.4-.35l2.15-2.25.25-.4.7-1.5v-.05l.1-.2.4.1.6.1.95.25.3.1.3.05q2.6.8 5 2.35 2.75 1.6 5.15 4.1l1.55 1.85q2.1 2.45 3.4 5.4v.1q2.15 4.9 2.15 10.75v.6q-.1 6.45-2.95 11.8l-4.55-2.1L67.7 74q-1.65 3-4.15 5.65l-4.1 3.55m-35.3-25.85 2.85.9-2.85-.9m7.95-9q-2.1 2.2-3.35 4.9l-.1.1q-1.15 2.2-1.65 4.9-.35 1.95-.35 4.2v.5q.1 5.1 2.25 9.2l-3.7 2.1 3.7-2.1.7 1.2q1.1 1.85 2.75 3.45 3.45 3.65 7.8 5.1l.6.15 2.8-.85.3 1.45 2.1.1q4.65 0 8.5-2.05 1.65-.8 3.1-2l2-1.7.05-.2.6-.6q1.75-2.05 2.95-4.3 2.15-4.2 2.15-9.45 0-3.25-.85-6.1l-.6-1.8-.3-.6-.15-.45-2-3.25-.3-.55-.35-.35-1.15-1.25-2.5-2.25-2.15-1.4-.5-.35L51.7 43l.75-3.35L51.7 43q-2.75-.85-5.75-.85h-.1l-2 .15h-.65l-2.15.45q-1.3.35-2.45.85-1.25.5-2.45 1.4-2.1 1.2-3.8 3.1l-.25.25M53.1 37v.05V37v.05V37m11.15 16.05-.85.45.85-.45M56.6 85l-2.15-4.3L56.6 85m-17.4 1.1.95-4.2-.95 4.2" fill="#fbcd44" fill-rule="evenodd" transform="translate(-21.75 -10.7)"/><path d="m60.2 76.2-3.85-3.15-9.75-5.8-10.15-3.5-8.65-1.55v-.25l.95-3.45 2.4-2.7.6.6 6.6 6.65q1.4 0 1.3-1.1l.5.3v-.05l.9.35 2.15-1.8-2.85-4.85-2.25-5.95 2.65-.6.3.6.85 2.45 6.55 2.05h4.2l2.15-1.4 2.15-3 .35-1.2 3.35 1.9-.1.1-.95.5v.1L45 60.65l.15.5.2.5.75 2.45.2-.1.25.6 1.6-.35q0 1.05 1.25 1.3l12.2-1.8q.5-2.4-.2-4.75l3.05-2.65q.85 2.85.85 6.1 0 5.25-2.15 9.45-1.2 2.25-2.95 4.3M27.85 63.05q16.95 1.9 31.1 13.4l.6.55-2 1.7q-1.45 1.2-3.1 2-3.85 2.05-8.5 2.05l-2.1-.1-.3-1.45-2.8.85-.6-.15q-4.35-1.45-7.8-5.1-1.65-1.6-2.75-3.45l-.35-1.45-.25-1.3q-.85-3.6-1.15-7.55m1.55 4.3Q43 69.05 53 75.2l2.4.05q-12.15-7.75-26.05-11-.8 1.4.05 3.1m27.45-20.5v-.05l.2.25-.2-.2" fill="#fcd661" fill-rule="evenodd" transform="translate(-21.75 -10.7)"/><path d="m45.35 61.65-.2-.5-.15-.5 14.6-9.2v-.1l.8 2.15-13.7 8.25-1.35-.1m-7.25-11.7 2.25 5.95 1.7 4.5H40.5l-5-9.65v-.1l.7-.15.25-.2h.1q1.05-.5 1.3-1l.15.4.1.25m10.6-.25.6.2-1.45 1.2-4.75-1.3-.5-1.65 1.35.25 4.75 1.3" fill="#fdeab0" fill-rule="evenodd" transform="translate(-21.75 -10.7)"/><path d="M31.15 55.8q.85-2.75 2.4-4.6l.45-.55.3.6 5.6 10.35-.25.35-5.5-9.25q-1.1-.15-2.4 3.7l-.6-.6m17.1 8.35.7-1.1 11.6-6.3.85 2.1q-5.4 1.95-13.15 5.3" fill="#f38c01" fill-rule="evenodd" transform="translate(-21.75 -10.7)"/><path d="M53.7 34.5v-.1l.6.15 1.85.6q6.55 2.35 9.3 5.1l.6.6L65.1 43l2.45-.6.95 1.05q-.2-.2-.2-.1-.5 2.05-3.2 2l-1.55-1.85q-2.4-2.5-5.15-4.1-2.4-1.55-5-2.35l-.3-.05-.3-.1-.95-.25-.6-.1 2.45-2.05M61.4 59q.7 2.35.2 4.75l-12.2 1.8q-1.25-.25-1.25-1.3l.1-.1Q56 60.8 61.4 58.85V59m-21.75 2.95q.1 1.1-1.3 1.1l-6.6-6.65q1.3-3.85 2.4-3.7l5.5 9.25m16.5-26.8L53.1 37l3.05-1.85" fill="#ffbf09" fill-rule="evenodd" transform="translate(-21.75 -10.7)"/><path d="M68.3 43.35q1.7 2.75 3 6 1.9 4.85 2.7 10.6-1.3 1.55-3.35 2.25v-.6q0-5.85-2.15-10.75v-.1l2.8-1.4-2.8 1.4q-1.3-2.95-3.4-5.4 2.7.05 3.2-2" fill="#f0b500" fill-rule="evenodd" transform="translate(-21.75 -10.7)"/><path d="M29.4 67.35q-.85-1.7-.05-3.1 13.9 3.25 26.05 11L53 75.2q-10-6.15-23.6-7.85" fill="#fbeb7d" fill-rule="evenodd" transform="translate(-21.75 -10.7)"/><path d="m32.55 23.85 1.85.6q6.55 2.35 9.3 5.1m3.05 3.2q-.2-.2-.2-.1 1.7 2.75 3 6 1.9 4.85 2.7 10.6-.45 5.5-2.7 11.45l-.6 1.45q-1.55 3.2-5.85 7M11.8 40.5l-1.1-2.15-.35-.7M4.9 52.25l1.05.1h.15q16.95 1.9 31.1 13.4l.6.55m1.85-18q.7 2.35.2 4.75l-12.2 1.8q-1.25-.25-1.25-1.3l.1-.1.7-1.1 11.6-6.3.35-.15q-.15.15.1.95l2.85-3M24.55 53.3l-.2.1-.75-2.45-.2-.5m14.45-9.7v-.1l.95-.5.1-.1M18.4 51.5v.05l-.5-.3M14.4 34.3l.3.95h.1l1.3 3.35.15.4M27.2 52.35l-2.65.95m-4.15-3.35-2 1.55m21.25-11.95-.75.5m-.1 6 .45.8m.4 1.45v-.15l-.85-2.1" fill="none" stroke="#000" stroke-linecap="round" stroke-linejoin="round" stroke-opacity=".302" stroke-width=".5"/><path d="m43.1 69.15-5.4 3.35-2.85 1.8q-4.2 2.05-10.25 2.15-3.75 0-7.15-1.05-5.65-1.8-10.05-6.45-2.4-2.6-3.95-5.4l-.45-.7M.25 50.95v-.05l.1-2.4m9.05-3.4q.85-2.75 2.4-4.6m-1.45-2.85q-2.1 2.2-3.35 4.9m-.1.1q-1.15 2.2-1.65 4.9-.35 1.95-.35 4.2v.5M37.8 66.3l.05-.2.6-.6q1.75-2.05 2.95-4.3 2.15-4.2 2.15-9.45 0-3.25-.85-6.1m-23.4-6.4-.3-.6q-.85-1.95 0-5.5v-.05l.3-1.05q-1.3.35-2.45.85-1.25.5-2.45 1.4-2.1 1.2-3.8 3.1l-.25.25m7.55 13.6q.1 1.1-1.3 1.1L10 45.7l-.6-.6M7.85 62.65q1.1 1.85 2.75 3.45 3.45 3.65 7.8 5.1l.6.15m3.1.6 2.1.1q4.65 0 8.5-2.05 1.65-.8 3.1-2l2-1.7M7.15 61.45l.7 1.2m-.7-1.2Q5 57.35 4.9 52.25m41.85-12.2v.1q2.15 4.9 2.15 10.75v.6M36.65 28.7q2.75 1.6 5.15 4.1l1.55 1.85q2.1 2.45 3.4 5.4m-11.65-3.9v-.05l.25-.95-2.15-1.4-.5-.35-.25.7-1.05 2.35q-1.45 2.5-3.45 2.2-.5-.05-1 .35m8.15-2.85q-2.3 7.15-6.35 6.65-4.4-.6-7.9-2.25-.95-.5-1.55-1.3m10.65-6.95 2.75 1.1m6.3 5.25-1.15-1.25-2.5-2.25m-16.05-3.1 2.15-.45h.65l2-.15h.1q3 0 5.75.85m-8.8.5q-.6 3.05 1.05 4.15m-1.05-4.15.3-1.2m-8.9 8.95-.3-.6-.45.55m6.1 10.75.25-.35-5.6-10.35m29.55 3.3-.3-.6-.15-.45-2-3.25-.3-.55m2.75 4.85.6 1.8m3.25 17.65q-1.65 3-4.15 5.65l-4.1 3.55m8.25-9.2q2.85-5.35 2.95-11.8M43.7 29.55l.6.6-.95 2.15M5.25 47.55l-2.85-.9M19 71.35l2.8-.85M7.15 61.45l-3.7 2.1M7.5 61.2l-.35.25m39.6-21.4 2.8-1.4M31.35 26.3v.05-.05l3.05-1.85m-4.45 7.85.75-3.35M41.65 42.8l.85-.45M32.7 70l2.15 4.3M18.4 71.2l-.95 4.2m28.5-12.1 3.6-2.6m-8.15.5 4.55 2.1" fill="none" stroke="#000" stroke-linecap="round" stroke-linejoin="round" stroke-opacity=".302" stroke-width=".5"/><path d="m30.2 49.25 4-10.25-12.1-7.05 11.2 4-.05-2.45 2.3 2.55 12.5-25.35-10.3 26.55L54.7 46.7l-18.25-7.15-6.25 9.7" fill="#fffcf2" fill-rule="evenodd" transform="translate(-21.75 -10.7)"/></g></defs></svg>