<svg width="46" height="46" viewBox="252.25 177.35 45.55 46.2" xmlns="http://www.w3.org/2000/svg" xmlns:xlink="http://www.w3.org/1999/xlink"><defs><g id="a"><path d="M265.1 217.2q-2.3 2.65-3.3 6.35l-.2-1q.35-2.75 1.85-4.95l1-1.15 1.35-.75.1.7-.8.8" fill="#dfdfbf"/><path d="m265.8 215.7-1.35.75-1 1.15q-1.5 2.2-1.85 4.95-.35-2.7.25-5.2l.1-.45q-.05-.7 1.05-1.35l2.8.15" fill="#cc9"/><path d="m265.1 217.2.8-.8-.1-.7-2.8-.15q-1.1.65-1.05 1.35l-.1.45-.4-.5q-.15-.55.5-1.15.65-.55 1.7-.8l1.95-.15q.8.2.95.75t-.45 1.1l-1 .6" fill-opacity=".29"/><path d="m261.6 222.55.2 1q1-3.7 3.3-6.35l.8-.8-.1-.7-2.8-.15q-1.1.65-1.05 1.35l-.1.45m-.25 5.2q-.35-2.7.25-5.2" fill="none" stroke="#000" stroke-opacity=".4" stroke-width=".5"/><path d="M258.25 208.05q-2 3.55-6 6.6l1.35-.4q3.35-2.05 5.15-4.55l.95-1.6.05-1.55-.9.35-.6 1.15" fill="#dfdfbf"/><path d="m259.75 206.55-.05 1.55-.95 1.6q-1.8 2.5-5.15 4.55 3.6-1.3 6.5-3.4l.5-.35q.9-.35 1.15-1.7-.6-2.45-2-2.25" fill="#cc9"/><path d="m258.25 208.05.6-1.15.9-.35q1.4-.2 2 2.25-.25 1.35-1.15 1.7l-.5.35h.85q.75-.2 1.1-1.1t.1-1.95q-.3-1.05-1.05-1.7-.75-.55-1.5-.35-.8.25-1.15 1.1l-.2 1.2" fill-opacity=".29"/><path d="m253.6 214.25-1.35.4q4-3.05 6-6.6l.6-1.15.9-.35q1.4-.2 2 2.25-.25 1.35-1.15 1.7l-.5.35m-6.5 3.4q3.6-1.3 6.5-3.4" fill="none" stroke="#000" stroke-opacity=".4" stroke-width=".5"/><path d="M267.3 187.4q-.9-3.1-.4-7.05l-.5.95q-.75 3-.35 5.4l.4 1.4.85.95.3-.65-.3-1" fill="#dfdfbf"/><path d="m267.3 189.05-.85-.95-.4-1.4q-.4-2.4.35-5.4-1.25 2.75-1.75 5.55v.5q-.35.65.25 1.55 1.7 1.05 2.4.15" fill="#cc9"/><path d="m267.3 187.4.3 1-.3.65q-.7.9-2.4-.15-.6-.9-.25-1.55v-.5l-.45.45q-.3.55 0 1.25.25.7 1 1.15.75.4 1.55.35l1.1-.65q.3-.55 0-1.25l-.55-.75" fill-opacity=".29"/><path d="m266.4 181.3.5-.95q-.5 3.95.4 7.05l.3 1-.3.65q-.7.9-2.4-.15-.6-.9-.25-1.55v-.5m1.75-5.55q-1.25 2.75-1.75 5.55" fill="none" stroke="#000" stroke-opacity=".4" stroke-width=".5"/><path d="M259.85 190.25q-3.55-2-6.6-6l.4 1.35q2.05 3.35 4.55 5.15l1.6.95 1.55.05-.3-.9-1.2-.6" fill="#dfdfbf"/><path d="m261.35 191.75-1.55-.05-1.6-.95q-2.5-1.8-4.55-5.15 1.3 3.6 3.45 6.5l.3.5q.35.9 1.7 1.15 2.45-.6 2.25-2" fill="#cc9"/><path d="m259.85 190.25 1.2.6.3.9q.2 1.4-2.25 2-1.35-.25-1.7-1.15l-.3-.5q-.2.4-.05.85.2.75 1.1 1.1l1.95.1q1.05-.3 1.7-1.05.55-.75.35-1.5-.2-.8-1.05-1.15l-1.25-.2" fill-opacity=".29"/><path d="m253.65 185.6-.4-1.35q3.05 4 6.6 6l1.2.6.3.9q.2 1.4-2.25 2-1.35-.25-1.7-1.15l-.3-.5m-3.45-6.5q1.3 3.6 3.45 6.5" fill="none" stroke="#000" stroke-opacity=".4" stroke-width=".5"/><path d="M294.9 190.65q1.25 2.1 2.05 4.65l-19.4 7.55-1.05-3.3 18.4-8.9" fill="#bf0000"/><path d="M273.05 200.2q-.15-1.85-.8-1.3v-6.05h.05q1.95.4 1.8 2.2l-1.05 5.15m-10.2-11.95 14.8-5.7.1 1.4-11.5 4.85-.55 2.75-2.85 1.8v-5.1m12.1 16.5 18.35-6.8 3.85.45-11.65 4.5-5.45 1.95-2.65.4-2.45-.5m-7.65 13.5-1.85 1.25-.8-4.6 8.45-4.2q-1.95 2.65-6.4 4.5l.6 3.05m-13.9-15.3 12.95-4.7 2.75.5-12.05 4.2h-3.65" fill="#8c0000"/><path d="m280.05 204.85 5.45-1.95 12.2-3.15q-2.1 10.85-8.05 13.55l-21.15 6.25q8.55-3.3 10.1-11.2l1.45-3.5" fill="#900"/><path d="m294.9 190.65-18.4 8.9q-1-2.5-2.4-4.5h.05l6-6.45-7.85 4.25h-.05q-2.5-2.55-6-4.05l11.5-4.85 4.85-1.7q8.4 2.15 12.3 8.4m-17.5 14.6 2.65-.4-1.45 3.5-1.2-3.1m8.1-2.35 11.65-4.5q.65.95.55 1.35l-12.2 3.15" fill="#d50000"/><path d="m276.5 199.55 1.05 3.3-3.45-.45-1.05-2.2 1.05-5.15q1.4 2 2.4 4.5m-4.25-.65q-1.3-1.9-3.15-3.35-1.65-1.3-3.85-1.95l.45-2.05.55-2.75q3.5 1.5 6 4.05h.05l7.85-4.25-6 6.45h-.05q.15-1.8-1.8-2.2h-.05v6.05m-15.55 1.65-3.45-.55q2.75-9.6 9.6-11.75v5.1q-3.6-.25-6.15 7.2m18.25 4.2 2.45.5 1.2 3.1q-1.55 7.9-10.1 11.2l-.55.2-.65.2v-1.7l-.6-3.05q4.45-1.85 6.4-4.5l1.35-2.8.5-3.15m-9.5 14.75q-10-2.9-12.05-16.55h3.65q1.05 9.35 7.6 11.95l.8 4.6" fill="#b00"/><path d="m269.1 195.55-12.4 5q2.55-7.45 6.15-7.2l2.85-1.8-.45 2.05q2.2.65 3.85 1.95m0 3.2q.05 7 5.35 9.15l-1.35 2.8-8.45 4.2q-6.55-2.6-7.6-11.95l12.05-4.2" fill="#600"/><path d="m277.55 202.85 19.4-7.55q-.8-2.55-2.05-4.65m-17.35 12.2-3.45-.45-1.05-2.2q-.15-1.85-.8-1.3-1.3-1.9-3.15-3.35l-12.4 5-3.45-.55q2.75-9.6 9.6-11.75l14.8-5.7.1 1.4 4.85-1.7q8.4 2.15 12.3 8.4m2.25 7.75-3.85-.45-18.35 6.8m22.2-6.35q.65.95.55 1.35-2.1 10.85-8.05 13.55l-21.15 6.25-.55.2-.65.2v-1.7l-1.85 1.25q-10-2.9-12.05-16.55l12.95-4.7 2.75.5q.05 7 5.35 9.15l.5-3.15m-12.1-11.4 2.85-1.8.55-2.75 11.5-4.85m-12.05 7.6-.45 2.05q2.2.65 3.85 1.95m-6.25-2.2q-3.6-.25-6.15 7.2m10.6 17.7-.6-3.05q4.45-1.85 6.4-4.5l1.35-2.8" fill="none" stroke="#000" stroke-opacity=".4" stroke-width=".5"/><path d="m294.7 190.35.2.3q1.25 2.1 2.05 4.65l-11.65 4.55 1.55-1q3.2-2.7 3.2-5.6v-.2l4.65-2.7m-4.9 22.8q0-1.9-2.85-1.9l-6.9 1.05-1.2.05q2.55-1.1 7.85-2.75 4.05-1.5 4.05-3.25 0-2.6-5.3-2.6l-1.3.05 4.3-1.65 3.65-1.05 1.45-.45 4.1-.8q-2.1 10.55-7.8 13.35l-.05-.05" fill="#f90"/><path d="m278.45 215.35-.45-.05 1.2-.2-.75.25m8.4-1.8-.1.1-.2.1-.15-.2h.45m-19.55 6.35.05.05h-.05v-.05m10.35-17.05h-.1l-1.05-.1.3-.45h.15q.25.45.7.55m-4.1-2.1-.05.25-.15-.25.2-.1v.1" fill="#f90" fill-opacity=".22"/><path d="m294.7 190.35-4.65 2.7q-.15-2.45-3.6-2.45l-.8.05q-2.4.25-8.1 1.8l-2 .6 2.45-1.65 4.35-2.65q1.2-.8 1.2-2.15 0-1.7-2.8-1.7-2.9 0-8.4 1.65l.25-.15q1.5-.2 4.45-2l.8-.45 4.75-1.7q8.25 2.1 12.1 8.1m-4.9 22.8.05.05h-.05v-.05" fill="#fc0"/><path d="M290.05 193.05v.2" fill="none" stroke="#000" stroke-opacity=".4" stroke-width=".5"/><path d="m275.5 184.85-.75-.45q1.05-.4 1.35.15l-.6.3m-9.35 4.4-1.45-.55q.45-.55 1.05-.6l1.4.25-.9.4-.1.5m.7 26.5-.65-.35q.35-.6 1.1-.7h.55l-1.1.5.1.55" fill="#ccc"/><path d="m274.75 184.4.75.45-1.35.6q-.3-.45.6-1.05m-8.95 6.5-1.3-.45q-.45-.85 0-1.5l.2-.25 1.45.55-.35 1.65m.4 24.5.65.35.35 2.1-.7-.4q-.8-1-.3-2.05" fill="#666"/><path d="M276.1 184.55q-.3-.55-1.35-.15-.9.6-.6 1.05m-9.45 3.25-.2.25q-.45.65 0 1.5l1.3.45m-1.1-2.2q.45-.55 1.05-.6l1.4.25m-.95 27.05q-.5 1.05.3 2.05l.7.4m.65-3.15h-.55q-.75.1-1.1.7" fill="none" stroke="#000" stroke-opacity=".4" stroke-width=".5"/><path d="m280.2 201.8 1.35-.5.2 2.4-.2.1q-1.15.25-1.25-.2l-.1-1.8" fill="#666"/><path d="m281.75 203.7-.2-2.4.9-.35v1.6q.2.6-.7 1.15" fill="#ccc"/><path d="m280.2 201.8.1 1.8q.1.45 1.25.2l.2-.1m.7-2.75v1.6q.2.6-.7 1.15" fill="none" stroke="#000" stroke-opacity=".4" stroke-width=".5"/><path d="m290.9 197.65.2 2.4-.2.1q-1.15.25-1.25-.2l-.1-1.8 1.35-.5" fill="#666"/><path d="M291.8 197.3v1.6q.2.6-.7 1.15l-.2-2.4.9-.35" fill="#ccc"/><path d="M291.1 200.05q.9-.55.7-1.15v-1.6m-.7 2.75-.2.1q-1.15.25-1.25-.2l-.1-1.8" fill="none" stroke="#000" stroke-opacity=".4" stroke-width=".5"/><path d="m259 199.5.2 2.4-.2.1q-1.15.25-1.25-.2l-.1-1.8 1.35-.5" fill="#666"/><path d="M259.9 199.15v1.6q.2.6-.7 1.15l-.2-2.4.9-.35" fill="#ccc"/><path d="M259.2 201.9q.9-.55.7-1.15v-1.6m-.7 2.75-.2.1q-1.15.25-1.25-.2l-.1-1.8" fill="none" stroke="#000" stroke-opacity=".4" stroke-width=".5"/><path d="m263.45 197.75 1.35-.5.2 2.4-.2.1q-1.15.25-1.25-.2l-.1-1.8" fill="#666"/><path d="m265 199.65-.2-2.4.9-.35v1.6q.2.6-.7 1.15" fill="#ccc"/><path d="m263.45 197.75.1 1.8q.1.45 1.25.2l.2-.1m.7-2.75v1.6q.2.6-.7 1.15" fill="none" stroke="#000" stroke-opacity=".4" stroke-width=".5"/><path d="M287 185.25q2.9-3 4.85-7.9l-.05 1.45q-1.1 3.95-3.05 6.5l-1.3 1.35-1.5.5.1-1 .95-.9" fill="#dfdfbf"/><path d="m285.95 187.15 1.5-.5 1.3-1.35q1.95-2.55 3.05-6.5-.35 4.05-1.6 7.55l-.25.6q-.1 1-1.3 1.6-2.5.1-2.7-1.4" fill="#cc9"/><path d="m287 185.25-.95.9-.1 1q.2 1.5 2.7 1.4 1.2-.6 1.3-1.6l.25-.6.25.85q0 .85-.8 1.45-.75.6-1.85.6t-1.9-.6q-.75-.6-.75-1.45t.75-1.45q.5-.35 1.1-.5" fill-opacity=".29"/><path d="m291.8 178.8.05-1.45q-1.95 4.9-4.85 7.9l-.95.9-.1 1q.2 1.5 2.7 1.4 1.2-.6 1.3-1.6l.25-.6m1.6-7.55q-.35 4.05-1.6 7.55" fill="none" stroke="#000" stroke-opacity=".4" stroke-width=".5"/><path d="M289.35 209.15q2.1 3.6 6.35 6.75l-1.35-.45q-3.55-2.05-5.5-4.65l-1-1.55-.05-1.6.9.35.65 1.15" fill="#dfdfbf"/><path d="M294.35 215.45q-3.85-1.4-6.9-3.5l-.5-.4q-.95-.35-1.25-1.65.55-2.5 2.1-2.25l.05 1.6 1 1.55q1.95 2.6 5.5 4.65" fill="#cc9"/><path d="m287.45 211.95-.9.05q-.8-.25-1.2-1.15t-.1-1.95q.3-1.1 1.1-1.7.75-.55 1.6-.35.8.2 1.2 1.1l.2 1.2-.65-1.15-.9-.35q-1.55-.25-2.1 2.25.3 1.3 1.25 1.65l.5.4" fill-opacity=".29"/><path d="M289.35 209.15q2.1 3.6 6.35 6.75l-1.35-.45q-3.85-1.4-6.9-3.5l-.5-.4q-.95-.35-1.25-1.65.55-2.5 2.1-2.25l.9.35.65 1.15" fill="none" stroke="#000" stroke-opacity=".4" stroke-width=".5"/><path d="M284.2 214q.2 2.25 1.7 4.7l-.6-.5q-1.45-1.85-1.85-3.5l-.1-.95.35-.8.45.35.05.7" fill="#dfdfbf"/><path d="m283.7 212.95-.35.8.1.95q.4 1.65 1.85 3.5-1.8-1.55-2.9-3.25l-.2-.3q-.4-.4-.25-1.05 1-1.1 1.75-.65" fill="#cc9"/><path d="m284.2 214-.05-.7-.45-.35q-.75-.45-1.75.65-.15.65.25 1.05l.2.3-.5-.2q-.4-.3-.4-.8t.45-.95 1.1-.6l1 .2q.4.3.35.8l-.2.6" fill-opacity=".29"/><path d="m285.3 218.2.6.5q-1.5-2.45-1.7-4.7l-.05-.7-.45-.35q-.75-.45-1.75.65-.15.65.25 1.05l.2.3m2.9 3.25q-1.8-1.55-2.9-3.25" fill="none" stroke="#000" stroke-opacity=".4" stroke-width=".5"/></g></defs><use xlink:href="#a"/></svg>