<svg width="81" height="92" viewBox="212.3 147.8 81.3 91.9" xmlns="http://www.w3.org/2000/svg" xmlns:xlink="http://www.w3.org/1999/xlink"><defs><linearGradient id="a" x1="-819.2" x2="819.2" gradientTransform="matrix(0 .00742 -.01834 0 14.2 -27.75)" gradientUnits="userSpaceOnUse"><stop stop-color="#c6ce9f" offset="0"/><stop stop-color="#9aab5c" offset="1"/></linearGradient><linearGradient id="b" x1="-819.2" x2="819.2" gradientTransform="matrix(-.00758 -.0223 .02281 -.00777 -14.9 4.5)" gradientUnits="userSpaceOnUse"><stop stop-color="#fff" offset="0"/><stop stop-color="#b3b3a2" offset=".988"/></linearGradient><linearGradient id="c" x1="-819.2" x2="819.2" gradientTransform="matrix(.00247 -.0014 .00108 .0019 5.8 29)" gradientUnits="userSpaceOnUse"><stop stop-color="#fff" offset="0"/><stop stop-color="#b3b3a2" offset=".988"/></linearGradient><g id="e"><path d="M29.2-29.1v2.9l-10.95 8.4-7.15-.15L-.7-24.3l-.15-3.6 9.55-7.05 4.4-1.75 16.1 7.6" fill="url(#a)"/><path d="m11.1-17.95 7.15.15 10.95-8.4v-2.9l3.9 5.7-2.9-2.1-12.9 10.2-1 2.65-5.2-5.3M-.85-27.9l.15 3.6-3.7.8 3.55-4.4" fill="#bcc790"/><path d="M8.7-34.95-.85-27.9l-3.55 4.4-1.05-1.25q-3.85-2.9-8.5-3.15-2.8-.15-6.8 1.65-4.95 2.05-10.05 7.45l-.8.9-.9 1q6-10.75 15.4-16.6 12.8-8.65 25.8-1.45" fill="#fff"/><path d="M-30.8-18.8q5.1-5.4 10.05-7.45 4-1.8 6.8-1.65 4.65.25 8.5 3.15l1.05 1.25v4.55q-5.25-3.6-9.35-3.85l-2.65.15-1.3.35-.85.25-1.85.65-2.1.95q-2.6 1.3-4.65 3.3-5.8 5.6-7.75 16.55-.25 5.95.8 10.5 1.6 6.75 5.45 12.3 4.55 6.6 13.15 10.15 8.85 3.6 16.75.85 5.4-1.9 10.35-6.85l.3-.3 1.05-1.1H13l3.5 1.6q-25.05 23.2-45.75.35-13.6-19.1-7-35.8 1.65-4.3 3.75-8l.9-1 .8-.9" fill="#757560"/><path d="m11.1-17.95 5.2 5.3 1-2.65 12.9-10.2 2.9 2.1 5.35 14.7-1.8 3.85-12.9 7.8h-1.2V7.1L20.2 26.15l-2.7.85 3.6-19.5V3l-6.15-14.45-4.25-4.7-13.25-7.75 1.85-.4 11.8 6.35m11.45 20.9-6.25-15.6 6.25 15.6" fill="#636f35"/><path d="M-4.4-18.95v-4.55l1.85-.4 13.25 7.75 4.25 4.7L21.1 3v4.5L17.5 27l-1-.45-3.5-1.6h-.05L10.9 24l-3.4-1.55-.25-5.65Q5.65-2.4-5.2-11.95l.8-7" fill="#48502c"/><path d="M-18.55-22.05q-2.5 4.6-3.25 11.15-.1 5.3.7 9.85.95 7.75 4.8 13.3 4.55 6.6 13.15 10.15Q3.3 25 9.25 24.25L10.9 24l-7.35 4.6-2.3 4.6q-7.9 2.75-16.75-.85-8.6-3.55-13.15-10.15-3.85-5.55-5.45-12.3-1.05-4.55-.8-10.5 1.95-10.95 7.75-16.55 2.05-2 4.65-3.3l2.1-.95 1.85-.65" fill="url(#b)"/><path d="m36.65-4.85 1.8-3.85V-5L24.8 4.05 22.55 7.1V2.95h1.2l12.9-7.8" fill="#9aab5c"/><path d="m38.45-5-6.1 19.55-12.15 11.6L22.55 7.1l2.25-3.05L38.45-5" fill="#313619"/><path d="m10.9 24 2.05.95-1.05 1.1-.3.3Q6.65 31.3 1.25 33.2l2.3-4.6L10.9 24" fill="url(#c)"/><path d="m33.1-23.4-3.9-5.7-16.1-7.6-4.4 1.75-9.55 7.05m-4.6 3.15 1.05 1.25 3.55-4.4m-3.55 4.4v4.55l-.8 7Q5.65-2.4 7.25 16.8l.25 5.65L10.9 24l2.05.95H13l3.5 1.6 1 .45M-4.4-18.95q-5.25-3.6-9.35-3.85l-2.65.15-1.3.35-.85.25-1.85.65m32.3 47.45 1.05-1.1M-32.5-16.9l.9-1 .8-.9M38.45-8.7 33.1-23.4m5.35 14.7V-5l-6.1 19.55-12.15 11.6-2.7.85m-50-43.9q6-10.75 15.4-16.6 12.8-8.65 25.8-1.45m7.8 61.5q-25.05 23.2-45.75.35-13.6-19.1-7-35.8 1.65-4.3 3.75-8" fill="none" stroke="#000" stroke-opacity=".31"/><path d="m11.1-17.95 5.2 5.3 1-2.65 12.9-10.2M-.7-24.3l11.8 6.35m-41.9-.85q5.1-5.4 10.05-7.45 4-1.8 6.8-1.65 4.65.25 8.5 3.15m6.7 57.95q5.4-1.9 10.35-6.85l.3-.3M-20.4-21.4l-2.1.95q-2.6 1.3-4.65 3.3-5.8 5.6-7.75 16.55-.25 5.95.8 10.5 1.6 6.75 5.45 12.3 4.55 6.6 13.15 10.15 8.85 3.6 16.75.85m35.4-38.05-12.9 7.8h-1.2V7.1L20.2 26.15m-3.9-38.8 6.25 15.6" fill="none" stroke="#fff" stroke-opacity=".431"/><path d="M-18.55-22.05q-2.5 4.6-3.25 11.15-.1 5.3.7 9.85.95 7.75 4.8 13.3 4.55 6.6 13.15 10.15Q3.3 25 9.25 24.25L10.9 24" fill="none" stroke="#000" stroke-opacity=".31"/></g><g id="d" fill="#fff"><path d="M28.75 0q0 11.9-8.45 20.3-8.4 8.45-20.3 8.45t-20.35-8.45q-8.4-8.4-8.4-20.3t8.4-20.35q8.45-8.4 20.35-8.4t20.3 8.4Q28.75-11.9 28.75 0" fill-opacity=".2"/><path d="M22.15 0q0 9.2-6.55 15.65Q9.15 22.2-.05 22.2t-15.7-6.55Q-22.25 9.2-22.25 0t6.5-15.7 15.7-6.5 15.65 6.5Q22.15-9.2 22.15 0" fill-opacity=".2"/><path d="M16 .65q0 6.8-4.8 11.55Q6.4 17-.35 17t-11.55-4.8Q-16.7 7.45-16.7.65q0-6.75 4.8-11.55t11.55-4.8 11.55 4.8T16 .65" fill-opacity=".2"/><path d="M12.25.7q0 5.25-3.7 8.9-3.7 3.75-8.9 3.75-5.25 0-8.95-3.75Q-13 5.95-13 .7q0-5.2 3.7-8.9t8.95-3.7q5.2 0 8.9 3.7t3.7 8.9" fill-opacity=".2"/><path d="M8.05-.2q0 3.75-2.65 6.4T-1 8.85q-3.7 0-6.35-2.65T-10-.2t2.65-6.4Q-4.7-9.2-1-9.2q3.75 0 6.4 2.6Q8.05-3.95 8.05-.2" fill-opacity=".2"/><path d="M5.9-.25q0 2.9-2.05 4.95-2 2.05-4.9 2.05T-6 4.7Q-8 2.65-8-.25q0-2.85 2-4.9Q-3.95-7.2-1.05-7.2t4.9 2.05Q5.9-3.1 5.9-.25" fill-opacity=".2"/><path d="M4.05-.05q0 2.15-1.55 3.65Q1 5.1-1.1 5.1q-2.15 0-3.65-1.5t-1.5-3.65q0-2.1 1.5-3.6t3.65-1.5q2.1 0 3.6 1.5 1.55 1.5 1.55 3.6" fill-opacity=".2"/><path d="M2.85 0q0 1.65-1.15 2.8Q.55 4-1.1 4t-2.8-1.2Q-5.1 1.65-5.1 0q0-1.6 1.2-2.8 1.15-1.15 2.8-1.15T1.7-2.8Q2.85-1.6 2.85 0" fill-opacity=".2"/><path d="M1.4.35q0 .75-.6 1.35-.55.5-1.35.55-.8-.05-1.35-.55-.55-.6-.55-1.35 0-.85.55-1.4.55-.6 1.35-.6t1.35.6q.6.55.6 1.4"/></g><g id="h"><use xlink:href="#e"/><use transform="translate(13.7 -15.3) scale(.42119)" filter="url(#f)" xlink:href="#g"/></g><filter id="f"><feColorMatrix in="SourceGraphic" result="cxform" values="1.0 0.0 0.0 0.0 0.0 0.0 1.0 0.0 0.0 0.0 0.0 0.0 1.0 0.0 0.0 0.0 0.0 0.0 0.3203125 0.0"/><feComposite in2="SourceGraphic" operator="in" result="color-xform"/></filter><use xlink:href="#d" id="g"/></defs><use transform="translate(255.15 189.95)" xlink:href="#h"/></svg>