<svg viewBox="0 0 234.43 241.1" xmlns="http://www.w3.org/2000/svg" xmlns:xlink="http://www.w3.org/1999/xlink"><use transform="translate(.01 .025)" width="234.4" height="241.05" xlink:href="#a"/><defs><use width="234.4" height="241.05" xlink:href="#b" id="a"/><g id="b"><path d="m31.95 35 2.2-22.8-6.6 20q-6-3-3.85-20.95L25.55.1l1.85-11.25 8.55-20.35-8.55 20.35L14.25 20.2q-.95 1.75-3.15 1.75L18 2.35 11.05 15.7Q8.3 16.85 5.1 14.25l-9.9-42.9-8.3-24.1 2.85 20.55.15 21.25-6.1-11.4-8.2-29.2.5-4.6-7.3-19.1h9.3l6.05-.35q1.8-.1 3.45-.75 2.5-1 1.75-3.55-1.2-4-4.95-6.05l-6.05-3.15q-4.2-2-8.5-3.4-4.35-1.45-8.95-2.25l-4.65-.55-2-2.6q-18.2-11.2-41.05-11.25l10.35-1.45 8.55 2.35 12.35-.95 15.55 1.65 20.35 7.55 1.65.75 25.8 11.6-34.8-24.1-30.15-8.75h15.6l22.55 8.45 34.7 16.3 4.1 9.5-4.15.95q-2.15.65-4 2-1.25.85-1.5 2.3-.25 1.75.15 3.55l.3 3.4q-.05 1.25-.9 2.1-.8 1-2.1 1.2l-4.15.35-5.9-.5Q-6-71.25-8.9-69.15q-1.1.9-1.3 2.1-.25 1.65.6 3.1 1.2 2.2 3.1 3.6 2.6 2 5.65 2.95 3.15 1.05 6.5 1.1l6.05-.45q2.15-.35 4.1-1.3 1.4-.6 2.45-1.75l1.25-1.95.8-2.4q.55-2.15 2.1-3.6 2.05-1.75 4.35-2.75L29-65.35 40.35-54l-4.4 22.5Q28.6-6.45 36.9 7.45q.25 24.05 12.85 55.15l4.85 12.05q18.85 40.55 61.05 30.65l-8.5 3.7q-26.4 3-35.85-6.45-14.75-4.75-25.1-21.2-10.1-11.8-7.65-24.75Q32.7 52.15 27 54.15q-6.15 1.75-9.05 8.95-1.7 4.4-2.25 10.85 3.9 14.7 29.3 46.1l-.4.5-.9-.7Q13.6 93.65 4.35 59.8.15 36.3-11.1 11.75l9.1 12.5-3.1-8.9-23.15-42.75 1.1-11 1.7-2.6-1.2 11.7L-.5 16.05l4.85 8.35q14.15 18.85 25.9 11.8l1.7-1.2M2.45 99l-28.5-39.9-7.05-28.35 1.8-16.3 2.8-26.7.3-2.2q4.5 7.2 7.65 15.25 4.05 10.15 5.9 21.6-2.4 19.5 9.8 45.3Q7.65 83.6 8.5 89.85q0 12.7-17.5-17.5L2.45 99M13.9 68.45q-.3-11.8 5.05-15.65Q8.85 46 .6 27.45l13.3 41M32.65-39.2l2.85-11.35-3.3-7.4-8.5 34.3-12.4 34.6L32.65-39.2M29-65.35l3.2 7.4-3.2-7.4" fill="#30526a" fill-rule="evenodd" transform="translate(117.2 120.5)"/><path d="M25.55.1 23.7 11.25Q21.55 29.2 27.55 32.2l6.6-20-2.2 22.8-1.7 1.2q-13.8.3-21.75-10.35 6.5 3.9 9.5-.7L25.55.1M27 54.15q5.7-2 11.55 2.45-2.45 12.95 7.65 24.75 10.35 16.45 25.1 21.2 9.45 9.45 35.85 6.45l-16.9 7.2q-11.4.3-39.75-20.05-12-8.7-16.4-29.3-11.55-7.75-16.15-3.75 2.9-7.2 9.05-8.95m-1.1 53q-13.8-8-20.1-3.5L2.45 99-9 72.35q17.5 30.2 17.5 17.5Q7.65 83.6-4.85 67.7q-12.2-25.8-9.8-45.3-1.85-11.45-5.9-21.6L-8.6 25.85l13 45.3q7.85 19.95 21.5 36M-63.45 15.7q-12.35-2.35-20.6-14.6L-72 4.65q-29.9-48.5-28.25-33.95l2.1 14.8-17.65-28.95q-2.2-15.5-.9-26.2l7.9-12.9 1.9 15.6-1.1 3-1.7 12.1 5.95 11.75 3.55-16.05-1.5-10.6q3.1-15.2 10.95-11.05l.45-8.05 11.95-8.85q3.4-1.1 6.65-1.55l11.15.45h.1l2.9.8L-79-84.45l20.9-3.2q16.55 3.95 3.45 19.95l9.25-5.65q-5.4 9-7.5 26.4-1.9-14.3-7.75-13.75-5.8.6-15.6 15.8l11.35-29.65q-3.1-9.7-17.55 1.15l-2.2 1.7-7.15 15.55 1.05-21.65-1.05 21.65 7.15-15.55 2.2-1.7q2.6 7.7-1.65 24.45l6.35-6.35.6 15.1q-2.25 1.95-3.35 4.65l-1.9 5 .4 1.7q.85 3.15 4.1 3.2 9.15.05 6.5 7.7l.6.2q8.55 3.15 16.35-1.55l2.25 6.95q4.45 8.95 13.4 7.7l-7.75 7.75q-8.85.25-20.4-9.6L-52.7 7.75q6.8 6.8-10.75 7.95m-13-126.3 5.2-.7 15.55-2.15 15.7 5.9-15.55-1.65-12.35.95-8.55-2.35m12.3-5.3 7-4.6 30.15 8.75 34.8 24.1-25.8-11.6-11.9-8.4-25.65-10.45-8.6 2.2M13.9 68.45l-13.3-41Q8.85 46 18.95 52.8q-5.35 3.85-5.05 15.65m-38.3-120 8.2 29.2 6.1 11.4-.15-21.25-2.85-20.55 8.3 24.1 9.9 42.9q3.2 2.6 5.95 1.45L18 2.35l-6.9 19.6q-3.9-.1-11.6-5.9L-26.65-29.3l1.2-11.7 1.05-10.55m-4.5 15.7 1.75-2.55-1.1 11L-5.1 15.35l3.1 8.9-9.1-12.5q-6.95-15.35-16.6-31.1l-4.7-11.4 3.5-5.1m-44.25-5.45.45-1.35q5.45-9.55 10.85-4.05l-.25 3.25.9 2.8-1.35.15-10.6-.8M32.2-57.95l3.3 7.4-2.85 11.35L11.3 10.95l12.4-34.6 8.5-34.3" fill="#264053" fill-rule="evenodd" transform="translate(117.2 120.5)"/><path d="M25.55.1 18 25.15q-3 4.6-9.5.7Q16.45 36.5 30.25 36.2 18.5 43.25 4.35 24.4L-.5 16.05q7.7 5.8 11.6 5.9 2.2 0 3.15-1.75L27.4-11.15 25.55.1M43.7 119.85q-10.05-8.35-17.8-12.7-13.65-16.05-21.5-36l-13-45.3L-20.55.8q-3.15-8.05-7.65-15.25l.5-4.9q9.65 15.75 16.6 31.1Q.15 36.3 4.35 59.8q9.25 33.85 39.35 60.05M-56.25 17.2l-7.2-1.5q17.55-1.15 10.75-7.95L-66.95-6.5q11.55 9.85 20.4 9.6l7.75-7.75q3.45-.45 7.55-2.55L-39.3 7.25l-16.95 9.95m-60.45-86.85q1.05-8.65 4.45-14.05 6.3-11.7 16.45-19.65 12.75-2.75 8.55 1.75L-98-85.75q9.05-6.75 18.05-13.65 10.75-1.75 8.25 3.15-3.25.45-6.65 1.55l-11.95 8.85-.45 8.05q-7.85-4.15-10.95 11.05l-1.4-10.6-3.8 10.4-1.9-15.6-7.9 12.9m45.45-41.65 7.1-4.6 8.6-2.2 25.65 10.45 11.9 8.4-1.65-.75-20.35-7.55-15.7-5.9-15.55 2.15m-11.2 37.9Q-68-84.25-64.9-74.55L-76.25-44.9q9.8-15.2 15.6-15.8l-1.2 14q-5.4-5.5-10.85 4.05l-.45 1.35-4 1.1-.6-15.1-6.35 6.35q4.25-16.75 1.65-24.45m37.05.05-9.25 5.65q13.1-16-3.45-19.95l-20.9 3.2L-57.55-95q10.35 3.25 20.15 13.55-4.65 2.35-8 8.1m-62.6 9.4q1.2 14.7 7.8 7.8l-3.55 16.05-5.95-11.75 1.7-12.1" fill="#1e3443" fill-rule="evenodd" transform="translate(117.2 120.5)"/><path d="m19.8-86.25 6.95 15.75q-2.3 1-4.35 2.75-1.55 1.45-2.1 3.6l-.8 2.4-1.25 1.95q-1.05 1.15-2.45 1.75-1.95.95-4.1 1.3l-6.05.45q-3.35-.05-6.5-1.1-3.05-.95-5.65-2.95-1.9-1.4-3.1-3.6-.85-1.45-.6-3.1.2-1.2 1.3-2.1 2.9-2.1 6.45-1.75l5.9.5 4.15-.35q1.3-.2 2.1-1.2.85-.85.9-2.1l-.3-3.4q-.4-1.8-.15-3.55.25-1.45 1.5-2.3 1.85-1.35 4-2l4.15-.95m-63.55-9.05 4.65.55q4.6.8 8.95 2.25 4.3 1.4 8.5 3.4l6.05 3.15q3.75 2.05 4.95 6.05.75 2.55-1.75 3.55-1.65.65-3.45.75l-6.05.35h-9.3l-2.9-7.5-5.85-7.55-3.8-5" fill="#617981" fill-rule="evenodd" transform="translate(117.2 120.5)"/><path d="m-31.3 14.45-24.95 2.75 16.95-9.95 8.05-14.45 2.75-5.05-2.8 26.7m-64.5-117.8q4.2-3.2 9-5.8 22.85.05 41.05 11.25l2 2.6 3.8 5 5.85 7.55 2.9 7.5 7.3 19.1-.5 4.6L-25.45-41l-1.7 2.6-1.75 2.55q2.45-24.15-8.5-45.6-9.8-10.3-20.15-13.55l-2.9-.8h-.1l-11.15-.45q2.5-4.9-8.25-3.15-9 6.9-18.05 13.65l10.75-15.85q4.2-4.5-8.55-1.75m55.85 13.05-17.6-4.7 17.6 4.7" fill="#122129" fill-rule="evenodd" transform="translate(117.2 120.5)"/><path d="m-77.15-40.2 4-1.1-3.65 9.15-.35-8.05" fill="#354246" fill-rule="evenodd" transform="translate(117.2 120.5)"/><path d="m-73.15-41.3 10.6.8 1.35-.15 6.75 21.35q-7.8 4.7-16.35 1.55l-.6-.2q2.65-7.65-6.5-7.7-3.25-.05-4.1-3.2l-.4-1.7 1.9-5q1.1-2.7 3.35-4.65l.35 8.05 3.65-9.15" fill="#3c4a4f" fill-rule="evenodd" transform="translate(117.2 120.5)"/><path d="m147.45 156.7 1.7-1.2m75.2 74 8.5-3.7q-42.2 9.9-61.05-30.65l-4.85-12.05q-12.6-31.1-12.85-55.15-8.3-13.9-.95-38.95l-8.55 20.35m79.75 120.15-16.9 7.2q-11.4.3-39.75-20.05-12-8.7-16.4-29.3-11.55-7.75-16.15-3.75-1.7 4.4-2.25 10.85 3.9 14.7 29.3 46.1m-.4.5-.9-.7q-10.05-8.35-17.8-12.7-13.8-8-20.1-3.5l-3.35-4.65-28.5-39.9-7.05-28.35 1.8-16.3-24.95 2.75-7.2-1.5q-12.35-2.35-20.6-14.6l12.05 3.55Q15.3 76.65 16.95 91.2l2.1 14.8L1.4 77.05q-2.2-15.5-.9-26.2Q1.55 42.2 4.95 36.8q6.3-11.7 16.45-19.65 4.2-3.2 9-5.8L40.75 9.9l5.2-.7 7.1-4.6 7-4.6h15.6L98.2 8.45l34.7 16.3 4.1 9.5L143.95 50l2.25 5.15 11.35 11.35-4.4 22.5m81.25 136.45-1.55.35M106.1 132.25q11.25 24.55 15.45 48.05 9.25 33.85 39.35 60.05m-25.75-56.75q2.9-7.2 9.05-8.95M93.3 64.35l-.5 4.6m35.5 73.5q2.2 0 3.15-1.75l13.15-31.35M97.55 20.5 77.2 12.95M45.95 9.2 61.5 7.05l15.7 5.9M59.65 25.5l-2.9-.8h-.1l-11.15-.45q-3.25.45-6.65 1.55L26.9 34.65l-.45 8.05-1.05 21.65 7.15-15.55 2.2-1.7Q49.2 36.25 52.3 45.95L40.95 75.6q9.8-15.2 15.6-15.8 5.85-.55 7.75 13.75 2.1-17.4 7.5-26.4 3.35-5.75 8-8.1 10.95 21.45 8.5 45.6l1.75-2.55 1.7-2.6 1.05-10.55M59.65 25.5Q70 28.75 79.8 39.05m-64.3 14.7-1.4-10.6-3.8 10.4-1.1 3q1.2 14.7 7.8 7.8l-1.5-10.6M55.35 73.8l1.2-14M56 79.85l-.9-2.8.25-3.25m.65 6.05 6.75 21.35 2.25 6.95q4.45 8.95 13.4 7.7 3.45-.45 7.55-2.55l2.75-5.05.3-2.2.5-4.9-4.7-11.4 3.5-5.1M59.65 25.5l17.6 4.7m72.15 32.35 3.3 7.4-2.85 11.35m-.45-18.75-3.2-7.4M91.75 79.5l-1.2 11.7 26.15 45.35q7.7 5.8 11.6 5.9m-22.2-10.2q-6.95-15.35-16.6-31.1m27.2 35.4 4.85 8.35q14.15 18.85 25.9 11.8m-86.5-19 16.95-9.95 8.05-14.45m2.75-5.05-2.8 26.7" fill="none" stroke="#000" stroke-linecap="round" stroke-linejoin="round" stroke-opacity=".4" stroke-width=".05"/><path d="m86 45.25 7.3 19.1M73.45 25.2l3.8 5 5.85 7.55 2.9 7.5m-55.6-33.9q22.85.05 41.05 11.25l2 2.6" fill="none" stroke="#000" stroke-linecap="round" stroke-linejoin="round" stroke-opacity=".4" stroke-width=".05"/><path d="m-71.35-110.65-2.3-.2m14.3 2.1-6-1.2M-48-104.9q-2.65-1.25-5.6-2.25m-47.75 16.55 4.15-4.2m-11.75 13.3q1.5-2.65 3.5-4.85m-7.25 16.05q.5-3.05 1.4-5.75m-1.85 17.5-.1-5.9m23.05-14.4 3.9-4.45m-19.85 46.85-2.9-5.3m8.7 15.9-2.9-5.3m-8.3-15.85-1-5.75m81.2-34.85-2.85-5.2m8.2 16-2.55-5.4m7.15 16.5-2.2-5.6m5.75 17.05-1.6-5.75M-71.8-93.9l5.05-2M-22.8-7.15l.2-1.7M-17.4-2q3.3-1.05 2.8-4.6m-3.35-35.95.8-6m-2.3 18 .8-6m-2.4 17.95.8-5.95m-62.6-80.7q2.4-1.2 4.8-2m-14.7 8.55q2.4-1.95 4.75-3.55m6.1 14.9q2.3-1.95 4.75-3.55m39.3-7.55q-2.25-1.95-4.85-3.6m17 118.9.7-6m-2.1 18 .7-6m1.1 17.7-1.6-5.8m-3.05-31.5L-33.45 8m-39-.35-4.7-3.85m15.45 8.65-5.55-1.95m17.1 4.1-5.85-.8m38.95 48.7-3.35-5m10.15 14.9-3.4-4.9m10.2 14.9-3.4-5M-22.2 52.15l-1.6-5.8m-13.85-34.2q-2.35 1.95-4.95 3.3m52.75 86.95-3.4-5M-24.3 4.85l.7-6M3.35 92.4l-3.4-5" fill="none" stroke="#dbc468" stroke-linecap="round" stroke-linejoin="round" transform="translate(117.2 120.5)"/></g></defs></svg>