<svg viewBox="0 0 230.33 279.74" xmlns="http://www.w3.org/2000/svg" xmlns:xlink="http://www.w3.org/1999/xlink"><use transform="translate(-.02 -.01)" width="230.35" height="279.75" xlink:href="#a"/><defs><use width="230.35" height="279.75" xlink:href="#b" id="a"/><g id="b"><path d="M13.25 7.85q10.8-33.05 37-41.5 6.6-2.15 14.2-2.7Q120.1-16.25 96.5 51.1 81.1 78.8 57.75 85.15q-25.65-.6-38.6-9.05Q21.8 54.65 6.9 39.85q1.2-12.05 3.6-22.2-3.95-9 2.75-9.8" fill="#4b3501" fill-rule="evenodd" transform="translate(115.05 139.75)"/><path d="M19.15 76.1q12.95 8.45 38.6 9.05Q81.1 78.8 96.5 51.1q23.6-67.35-32.05-87.45-7.6.55-14.2 2.7-26.2 8.45-37 41.5Q9.7 1.8 3.65 3.7q13.85-29.3 42.3-46.15-4.15-3.5-12.05-3.25l4.75-2.7h29.8q36.65 7.25 46.1 50.1-1.35 52.35-21.45 74.75-6.35 7.1-14.8 13.85l-15.85 7.55Q32.4 100.95 12 82.2L1.65 63.8v12.7q-47.45 30.2-99.5 43.4-8.25-16.4-10-32.85l50.75-32.6-51.25 22.8q.15-14.85 5.65-29.7h12.2l40.75-11.75L-.3 12.35q6.6-2.35 10.8 5.3-2.4 10.15-3.6 22.2-.65 6.05-.95 12.65.6 14 10.95 22l2.25 1.6" fill="#c90" fill-rule="evenodd" transform="translate(115.05 139.75)"/><path d="M33.9-45.7q7.9-.25 12.05 3.25Q17.5-25.6 3.65 3.7l-53.4 32.1-40.75 11.75h-12.2q4-10.95 10.9-21.9L33.9-45.7m44.4 136q-11.1 8.75-25.9 16.9-57.05 3.6-114.15 32.05-13.8-4.3-24.05-10.45L7 89.85l5-7.7v.05q20.4 18.75 50.45 15.65L78.3 90.3" fill="#c18702" fill-rule="evenodd" transform="translate(115.05 139.75)"/><path d="M13.25 7.85q-6.7.8-2.75 9.8Q6.3 10-.3 12.35L-49.75 35.8 3.65 3.7q6.05-1.9 9.6 4.15m-121.1 79.2q5.8-7.5-.5-9.8l51.25-22.8-50.75 32.6" fill="#8f6401" fill-rule="evenodd" transform="translate(115.05 139.75)"/><path d="M-85.8 128.8q-6.8-4.05-12.05-8.9 52.05-13.2 99.5-43.4V63.8L12 82.2v-.05l-5 7.7-92.8 38.95" fill="#ae8300" fill-rule="evenodd" transform="translate(115.05 139.75)"/><path d="M134.2 215.85q12.95 8.45 38.6 9.05 23.35-6.35 38.75-34.05 23.6-67.35-32.05-87.45-7.6.55-14.2 2.7-26.2 8.45-37 41.5-6.7.8-2.75 9.8-2.4 10.15-3.6 22.2 14.9 14.8 12.25 36.25l-2.25-1.6q-10.35-8-10.95-22 .3-6.6.95-12.65m71.4 50.45q8.45-6.75 14.8-13.85 20.1-22.4 21.45-74.75-9.45-42.85-46.1-50.1h-29.8l-4.75 2.7m-30.25 49.4q6.05-1.9 9.6 4.15m65.05 82.45q-11.1 8.75-25.9 16.9Q110.4 250.55 53.3 279q-13.8-4.3-24.05-10.45-6.8-4.05-12.05-8.9-8.25-16.4-10-32.85 5.8-7.5-.5-9.8.15-14.85 5.65-29.7 4-10.95 10.9-21.9l125.7-71.35m-83.65 81.5 49.45-23.45q6.6-2.35 10.8 5.3M65.3 175.55l53.4-32.1M6.7 217l51.25-22.8L7.2 226.8" fill="none" stroke="#000" stroke-linecap="round" stroke-linejoin="round" stroke-opacity=".322" stroke-width="1.5"/><path d="m13.25-69.8-3.85.1q15 9.45 13.8 33.9 11.2 4.65 19.65-4.35-1.05-4.15-2.45-7.75-4.35 9.55-12.05 3.35-.5-11.8-7.7-18.95l-7.4-6.3" fill="#666" fill-rule="evenodd" transform="translate(115.05 139.75)"/><path d="m13.25-69.8 7.4 6.3q7.2 7.15 7.7 18.95 7.7 6.2 12.05-3.35-8.15-21.35-27.15-21.9" fill="#ccc" fill-rule="evenodd" transform="translate(115.05 139.75)"/><path d="M155.45 91.85q1.4 3.6 2.45 7.75-8.45 9-19.65 4.35 1.2-24.45-13.8-33.9l3.85-.1 7.4 6.3q7.2 7.15 7.7 18.95 7.7 6.2 12.05-3.35-8.15-21.35-27.15-21.9" fill="none" stroke="#000" stroke-linecap="round" stroke-linejoin="round" stroke-opacity=".412" stroke-width="1.5"/><path d="m19.85-118.85-1.6 15.7-7.9-.25q3.55-8.85 3.5-16.65l6 1.2m-122.15 69.5q3.05-5.4 13.9-8.25l-2.15 10.25-1.3-1.2 1.3 1.2 3.25 2.3q2.7 1.55 6.1 2.55l3 .75-8.6 5.75-4.9-2.8q-5-3.4-8.85-8.2l-1.75-2.35m45-58.65 16.05-4.85-5.3 13.55.75 4.25.7 4.25-10.1 2q-1.9-5.05-2.4-9.85t.3-9.35m17.4-15.1.7-5.4q1.5-3.7 3.8-6.25 2.15-2.45 5-3.8 9-2.35 16.45 3.25 4 2.7 3.7 6.85-6.7-4.65-15.8-3.4l-1.1.15q-5.55 2.75-5.6 8.45l1.05 11.65-6.65.85-1.55-12.35m29.6 16.2 3.25-3.5 1.7-4.65 3.55-9.8q3.7-2.9 6 0L-.2-114.6l-5.15-.45 5.15.45-4.45 10.25-3.6 3.6-5.6-2.3 3.55-3.85M6.25-95.25l1.7-2.85 2.4-5.3 7.9.25q-1.35 9.5-8 19l-8.85-5.3 2.95-3.25 1.9-2.55m-36.65-43.3 4.35 6.7-4.35-6.7m-1.15 7.65-3.85-3.85 3.85 3.85m-16.1 25.3 1.1 6.3-1.1-6.3m-39 64.35-5.05 2.45 5.05-2.45m18.95.55 5.35-.15q13-.7 30.75-5.3 4.15-1.5 8.05-2.95 4.5-1.75 8.65-3.45 7.65-3.2 14.15-6.35l4.95 5.55q-14.95 8.2-35 16.85-26.35 7.6-44.35 4.25l7.45-8.45" fill="#aa9155" fill-rule="evenodd" transform="translate(115.05 139.75)"/><path d="M27.6-78.4q2.75-3.15 4.3-6.3.1-4.1-.3-7.9l7.15 3.1v11.25L34.7-74.2q-8.8 8.15-23.4 16.85L5.8-62.3l5.5 4.95-7.1 4-4.95-5.55 6.55-3.4 7.95-4.7q6.65-4.3 11.15-8.55l2.7-2.85M-106 23.7l-5.55-9.1q-3.7-10.6-2.8-19.7l6.05-18.5 6-25.75 1.75 2.35-6.15 35.05-4 15.3 4.7 20.35m17.6-81.3 2.15-10.25 14.9-14.05L-57.3-108q-.8 4.55-.3 9.35l-6.5 14-18.5 18.05-4.7 21.55-3.25-2.3 2.15-10.25m74.35-62 5.65 1.15.55 4.4-7.25.05-2.6 1.4-3.2-5.05 3.2 5.05-2.6 1.4q-1.85 5.1.6 9.3.85 1.4 2.2 2.75l3.65-3.9 5.6 2.3-8.85 8.85-11.2 4.35-1.35-5.95 1.35 5.95q2.15 7.95 5.75 14.45Q-13-77.3-7.7-81.45l1.85-1.6L-1-87.2l2.4-2.25 8.85 5.3-3.65 4.7Q-7.1-68.5-28.95-64.4l14.05 11.85q-4.15 1.7-8.65 3.45l-19.7-16.3-4.9-9.15-4.35-8.15-.75-1.5-1.95-4.55v-.05l10.1-2 1.45 8.5 1.7 2.4 1.65 2.3 6.3 8.95 5.9-2.2q-6.1-10.3-8.3-24.65l-.4-2.85-1.55-12.4 6.65-.85.7 7.7.25 3.15.3 2.35.8 4.9 6.1-2.85 6.05-2.8-6.05 2.8q-1.9-3.15-2.5-7.25-.75-5.1.5-11.6l4.65-2.45 4.6-2.4 2.25.45M-78.2-41.75q4.7.95 10.5 1.05l-7.45 8.45Q-81.5-33.45-86.8-36l8.6-5.75m29.35-44.1-4.4 1.65 4.4-1.65m.7 11.3 7.85-3.05-7.85 3.05m15.8-20.95h-4.05 4.05M-34-68.65l5.05 4.25-5.05-4.25m11.45-4.45q-2.6 1.1-5.55 2.25 2.95-1.15 5.55-2.25" fill="#8e7a46" fill-rule="evenodd" transform="translate(115.05 139.75)"/><path d="M9.3-12.8q-41.25 27.7-86.25 44.95-7.9-22.7 1.8-64.4 18 3.35 44.35-4.25 20.05-8.65 35-16.85v26.55-26.55l7.1-4-2 44.55m-19.55-115.65-3.8 8.85-2.25-.45-4.6 2.4-4.65 2.45-5.45 11.3-.7-7.7-1.05-11.65q.05-5.7 5.6-8.45l1.1-.15q9.1-1.25 15.8 3.4m24 61.45L5.8-62.3l-6.55 3.4q-6.5 3.15-14.15 6.35L-28.95-64.4Q-7.1-68.5 6.6-79.45l3.65-4.7L13.75-67m-76.1 26.15q8.6-10.75 14.2-33.7l4.9 9.15 19.7 16.3q-3.9 1.45-8.05 2.95-17.75 4.6-30.75 5.3m34.05-46.7 11.2-4.35 8.85-8.85.55 19.3Q-13-77.3-22.55-73.1q-3.6-6.5-5.75-14.45m8.6-14.35q-2.45-4.2-.6-9.3l2.6-1.4-2 10.7m-22.25 22 5.55-15.6q2.2 14.35 8.3 24.65l-5.9 2.2-6.3-8.95-1.65-2.3" fill="#35291b" fill-rule="evenodd" transform="translate(115.05 139.75)"/><path d="m25.85-85.85 1.75 7.45-2.7 2.85Q20.4-71.3 13.75-67l-3.5-17.15q6.65-9.5 8-19 7.5 6.4 7.6 17.3M27.4-25.6q-8.95 6.65-18.1 12.8l2-44.55q14.6-8.7 23.4-16.85l-5.6 14.45-1.7 34.15M-76.95 32.15l-7.25 2.7-5.6 1.95q-3.15-9.7-1.65-28.65Q-93-10.7-86.8-36q5.3 2.55 11.65 3.75-9.7 41.7-1.8 64.4m69.1-146.2-2.45 7.15-3.55 3.85-3.65 3.9q-1.35-1.35-2.2-2.75l2-10.7 2.6-1.4 7.25-.05M-45.1-90.8l-.7-4.25 7.45-15.7 1.55 12.4.4 2.85-5.55 15.6-1.7-2.4-1.45-8.5m-8.15 6.6-7.65 16.4-13.7 15.3-6.6 10 6.6-10 13.7-15.3 7.65-16.4.75 1.5 4.35 8.15q-5.6 22.95-14.2 33.7l-5.35.15q-5.8-.1-10.5-1.05l-3-.75q-3.4-1-6.1-2.55l14.75-19.1L-61.7-75.4l6.5-13.35 1.95 4.55m45-16.55 3.6-3.6L-.2-114.6l1.6 11.05L-1-87.2l-4.85 4.15-1.85 1.6-.55-19.3m-15.3 4.4-6.1 2.85-.8-4.9 4.4-5.2q.6 4.1 2.5 7.25M-84.2 34.85q-5.15-14.6-3.65-37.15-1.5 22.55 3.65 37.15M24.9-75.55 21.85-88.7l3.05 13.15" fill="#473724" fill-rule="evenodd" transform="translate(115.05 139.75)"/><path d="m27.6-78.4-1.75-7.45q-.1-10.9-7.6-17.3l1.6-15.7q10.1 10.8 11.75 26.25.4 3.8.3 7.9-1.55 3.15-4.3 6.3m7.1 4.2 4.05-4.05-6.05 20.1v23.2q-2.65 7.35-5.3 9.35l1.7-34.15 5.6-14.45m-124.5 111q-3.4 1.2-7.5-.4l-8.7-12.7-4.7-20.35 4-15.3 6.15-35.05q3.85 4.8 8.85 8.2l4.9 2.8Q-93-10.7-91.45 8.15q-1.5 18.95 1.65 28.65m48.55-149.65 1.35-10.25 1.55 12.35-7.45 15.7-.75-4.25 5.3-13.55m45.45-12 2.4 13.65-.35 15.95-1.9 2.55-2.95 3.25L-1-87.2l2.4-16.35-1.6-11.05 4.4-10.25m-91.5 79.8 4.7-21.55 18.5-18.05 6.5-14q.5 4.8 2.4 9.85v.05l-6.5 13.35-10.85 11.25-14.75 19.1M3-109.6l1.35 16.9L3-109.6m-28.55-5.6q-1.25 6.5-.5 11.6l-4.4 5.2-.3-2.35-.25-3.15 5.45-11.3M-97.9 2.15q-1.35-17.4 6.2-40.95-7.55 23.55-6.2 40.95" fill="#726039" fill-rule="evenodd" transform="translate(115.05 139.75)"/><path d="M27.6-78.4q2.75-3.15 4.3-6.3.1-4.1-.3-7.9-1.65-15.45-11.75-26.25l-1.6 15.7m20.5 24.9V-89.5l-7.15-3.1m3.1 18.4 4.05-4.05-6.05 20.1v23.2q-2.65 7.35-5.3 9.35-8.95 6.65-18.1 12.8-41.25 27.7-86.25 44.95l-7.25 2.7-5.6 1.95q-3.4 1.2-7.5-.4l-8.7-12.7-5.55-9.1q-3.7-10.6-2.8-19.7l6.05-18.5 6-25.75q3.05-5.4 13.9-8.25l2.15-10.25 14.9-14.05L-57.3-108l16.05-4.85 1.35-10.25.7-5.4q1.5-3.7 3.8-6.25 2.15-2.45 5-3.8 9-2.35 16.45 3.25 4 2.7 3.7 6.85l-3.8 8.85 5.65 1.15.55 4.4-2.45 7.15 3.25-3.5 1.7-4.65 3.55-9.8q3.7-2.9 6 0l2.4 13.65-.35 15.95 1.7-2.85 2.4-5.3q3.55-8.85 3.5-16.65l6 1.2M27.6-78.4l-2.7 2.85Q20.4-71.3 13.75-67L5.8-62.3m5.5 4.95q14.6-8.7 23.4-16.85m-66.4-37.4-1.05-11.65q.05-5.7 5.6-8.45l1.1-.15q9.1-1.25 15.8 3.4m-47.35 29.8q-.5-4.8.3-9.35m-.3 9.35q.5 4.8 2.4 9.85m10.1-2-.7-4.25-.75-4.25-1.1-6.3m-54.65 56.25 1.75 2.35q3.85 4.8 8.85 8.2l4.9 2.8q5.3 2.55 11.65 3.75 18 3.35 44.35-4.25 20.05-8.65 35-16.85l7.1-4M-53.25-84.2l-1.95-4.55v-.05m-32.1 43.75q2.7 1.55 6.1 2.55l3 .75q4.7.95 10.5 1.05l5.35-.15m14.2-33.7-4.35-8.15-.75-1.5m-37.3 36.85-1.3-1.2m1.3 1.2 2.15-10.25m1.1 12.55-3.25-2.3M-.75-58.9q-6.5 3.15-14.15 6.35-4.15 1.7-8.65 3.45-3.9 1.45-8.05 2.95-17.75 4.6-30.75 5.3m48.3-78.75-2.25-.45-4.6 2.4-4.65 2.45q-1.25 6.5-.5 11.6.6 4.1 2.5 7.25l-6.1 2.85 1.35 5.95 11.2-4.35 12.45-12.45L-.2-114.6l4.4-10.25m-21.9 12.25 2.6-1.4 7.25-.05m-2.45 7.15-3.55 3.85-3.65 3.9-6.05 2.8m15.85 14.9 1.85-1.6L-1-87.2l2.4-2.25 2.95-3.25 1.9-2.55m4 11.1-3.65 4.7Q-7.1-68.5-28.95-64.4l14.05 11.85m25.15-31.6q6.65-9.5 8-19m-37.95 1.25q-2.45-4.2-.6-9.3l2.6-1.4m-2 10.7q.85 1.4 2.2 2.75M-31-103.9l.25 3.15.3 2.35.8 4.9m-2.05-18.1.7 7.7 5.45-11.3m-21 15.9 5.3-13.55M-45.1-90.8l1.45 8.5 1.7 2.4 1.65 2.3 6.3 8.95 5.9-2.2q-6.1-10.3-8.3-24.65l-.4-2.85-1.55-12.4-1.55-12.35m-8.25 48.55 4.9 9.15 19.7 16.3m-4.75-38.45q2.15 7.95 5.75 14.45Q-13-77.3-7.7-81.45M-28.95-64.4-34-68.65M-.75-58.9l6.55-3.4m-33.9-8.55q2.95-1.15 5.55-2.25" fill="none" stroke="#000" stroke-linecap="round" stroke-linejoin="round" stroke-opacity=".4" transform="translate(115.05 139.75)"/><path d="M133.3 36.6q7.5 6.4 7.6 17.3m-20.05 23.55 5.5 4.95-2 44.55M79.65 5l3.85 3.85M89 7.9l-4.35-6.7m-24.8 49.75 10.1-2m-46.6 52 5.05-2.45m5.45-1.25 6.6-10 13.7-15.3 7.65-16.4 4.4-1.65M59.85 51l-6.5 13.35L42.5 75.6m10.2 23.3q8.6-10.75 14.2-33.7m-38.65 38.55 8.6-5.75m3.05 9.5 7.45-8.45m71.9-12.65-4.95-5.55m19-44.25-7.9-.25m-10.55-11.2-5.15-.45m-15.55-2.6 3.2 5.05-2 10.7m5.85-1.15 5.6 2.3.55 19.3m6.7-5.75 2.4-16.35-1.6-11.05m4.55 21.9-1.35-16.9m-1.6 20.15 8.85 5.3 3.5 17.15m-68.95-21.8V51m13.25 8.85 5.55-15.6h4.05M76.7 29l-7.45 15.7m5.5 17.45L66.9 65.2m16.45-37.05L76.7 29m42.55 57.4v26.55M23.6 147.9q-1.55-18.85 4.65-44.15m-1.05 33.7Q25.7 160 30.85 174.6m9.05-67.1q-9.7 41.7-1.8 64.4m-14.75-70.95q-7.55 23.55-6.2 40.95M136.9 51.05l3.05 13.15" fill="none" stroke="#000" stroke-linecap="round" stroke-linejoin="round" stroke-opacity=".4" stroke-width=".05"/><path d="m-87.7-1.6 2.75-2Q-90 14.25-74.75 38.35q-5.2 10.9-16.45 6.5l-2.85-9.2q8.7 7.25 10.5-3.3-6.55-12.25-5.7-23.4L-87.7-1.6" fill="#666" fill-rule="evenodd" transform="translate(115.05 139.75)"/><path d="m-87.7-1.6-1.55 10.55q-.85 11.15 5.7 23.4-1.8 10.55-10.5 3.3Q-100.9 9.5-87.7-1.6" fill="#ccc" fill-rule="evenodd" transform="translate(115.05 139.75)"/><path d="m21 175.4 2.85 9.2q11.25 4.4 16.45-6.5-15.25-24.1-10.2-41.95l-2.75 2-1.55 10.55q-.85 11.15 5.7 23.4-1.8 10.55-10.5 3.3-6.85-26.15 6.35-37.25" fill="none" stroke="#000" stroke-linecap="round" stroke-linejoin="round" stroke-opacity=".412" stroke-width="1.5"/><path d="M-33.1 7.85q8.95 4.35 9.55-5.05-7.35-9.15-7.7-18.95l.45-9.35 2.4-2.3q-3 16.4 13.8 33.9-3.8 10.5-14.85 9.05-2.15-3.75-3.65-7.3" fill="#666" fill-rule="evenodd" transform="translate(115.05 139.75)"/><path d="m-30.8-25.5-.45 9.35q.35 9.8 7.7 18.95-.6 9.4-9.55 5.05-9-21.05 2.3-33.35" fill="#ccc" fill-rule="evenodd" transform="translate(115.05 139.75)"/><path d="m84.25 114.25-.45 9.35q.35 9.8 7.7 18.95-.6 9.4-9.55 5.05 1.5 3.55 3.65 7.3 11.05 1.45 14.85-9.05-16.8-17.5-13.8-33.9l-2.4 2.3q-11.3 12.3-2.3 33.35" fill="none" stroke="#000" stroke-linecap="round" stroke-linejoin="round" stroke-opacity=".412" stroke-width="1.5"/></g></defs></svg>