<svg width="68" height="83" viewBox="241.41 159.65 68.285 82.801" xmlns="http://www.w3.org/2000/svg" xmlns:xlink="http://www.w3.org/1999/xlink"><defs><linearGradient id="b" x1="-819.2" x2="819.2" gradientTransform="matrix(.01767 -.00966 .0194 .03552 277.1 207.45)" gradientUnits="userSpaceOnUse"><stop stop-color="#65d8f3" stop-opacity=".702" offset=".067"/><stop stop-color="#87d6f2" stop-opacity=".702" offset=".514"/><stop stop-color="#d5ebf5" stop-opacity=".651" offset="1"/></linearGradient><linearGradient id="c" x1="-819.2" x2="819.2" gradientTransform="matrix(.00075 .0029 -.00157 .00041 -5.7 -2.9)" gradientUnits="userSpaceOnUse"><stop stop-color="#fff1d1" offset=".051"/><stop stop-color="#feda9e" offset="1"/></linearGradient><linearGradient id="d" x1="-819.2" x2="819.2" gradientTransform="matrix(-.00034 .00288 -.00212 -.00024 5.4 -3.2)" gradientUnits="userSpaceOnUse"><stop stop-color="#fff1d1" offset=".051"/><stop stop-color="#feda9e" offset="1"/></linearGradient><linearGradient id="e" x1="-819.2" x2="819.2" gradientTransform="matrix(0 .00494 -.00488 0 .4 -.5)" gradientUnits="userSpaceOnUse"><stop stop-color="#fff8ec" offset="0"/><stop stop-color="#fff1d1" offset=".271"/><stop stop-color="#d1a16d" offset="1"/></linearGradient><g id="g"><path d="M270.95 223.9q-1.15-5.6 1.2-10.85l.35-.8q2.95-.1 4.15 2.25l-.15.3q-2.4 5.5-1.05 11.35l.1.5q-1.65.05-4.6-2.75m3.9-15.35.05-.05-.05.05m13.35 26.95 4.4-.75 2.95-1.5q3.25.05 4.45 1.65l-.15.1q-1.25.9-2.9 1.45-2.35.9-4.75.8l-4-1.75m10.25-5.05 1.65-2.85q.95-2.2 1.1-4.5l4.35 1.7q-.15 2.25-1.15 4.55l-.95 1.85-.05.1q-3.3.8-4.95-.85" fill="#fc0"/><path d="M272.5 212.25q.95-2.05 2.35-3.7.75 2.6 4.65 1.45l-.5.55q-1.35 1.75-2.35 3.95-1.2-2.35-4.15-2.25m23.05 21q1.65-1.15 2.9-2.8 1.65 1.65 4.95.85-1.35 2.2-3.4 3.6-1.2-1.6-4.45-1.65" fill="#fee892"/><path d="M306.7 213.8q.9 1.55 1.6 3.45 1.4 3.95 1.15 7.8l-3.9-.25q.3-2.9-.75-5.9l-.15-.4-.75-1.9 2.8-2.8m-31.15 12.85-.1-.5q-1.35-5.85 1.05-11.35l.15-.3q1-2.2 2.35-3.95l.5-.55 1.6-1.6q2.15-1.75 5-2.75 2.05-.75 4.15-.95l-.05 4q-1.5.2-2.9.7-5.25 1.8-7.45 7.1-1.85 4.4-.9 8.95l-3.4 1.2" fill="#8f7301"/><path d="M274.9 208.5q2.65-3.15 6.8-4.65l1.8-.5q5.15.05 6.75 1.35-2.1.2-4.15.95-2.85 1-5 2.75l-1.6 1.6q-3.9 1.15-4.65-1.45l.05-.05" fill="#fedc56"/><path d="M283.5 203.35q4.8-1.15 9.5.7l.6.25 2.7 1.15-1-.3-5.05-.45q-1.6-1.3-6.75-1.35m3 36.55-4.25-1.7-1.4-.65q-4.2-2.2-6.7-6l5.85 3.75q1 1.15 2.25 2.1l2.55 1.7.4.2 1.3.6m-.65-4.7 2.35.3 4 1.75q-2.75-.15-5.55-1.6l-.8-.45m15.35-12.1q.3-3.15-.8-6.4l-1.2-2.6q2.1.7 4.7 2.5l.75 1.9.15.4q1.05 3 .75 5.9l-4.35-1.7" fill="#dbaf02"/><path d="m296.3 205.45.1.05 2.55 1 .25.2q4.8 2.45 7.5 7.1l-2.8 2.8-.95-1.65q-2.5-.25-4.75-2.3-1.65-2.3-4.1-3.75 1.75.35 3.5 1.25 3.35 1.75 5.35 4.8-2-3.05-5.35-4.8-1.75-.9-3.5-1.25l-3.9-.2.05-4 5.05.45 1 .3m-4.05 35.85q-2.4-.1-4.75-1l-1-.4-1.3-.6-.4-.2-2.55-1.7q-1.25-.95-2.25-2.1l-1.25-1.55q-4.9-2.45-6.35-5.4l-.65-1.4-.8-3.05q2.95 2.8 4.6 2.75l.6 2.05q1 2.75 2.6 5.05-1.6-2.3-2.6-5.05l-.6-2.05 3.4-1.2.6 1.9q1.4 3.95 4.25 6.4l2.05 1.45.8.45q2.8 1.45 5.55 1.6l.05 4.05" fill="#b18e01"/><path d="M274.15 231.55q-1-1.45-1.75-3.2 1.45 2.95 6.35 5.4l1.25 1.55-5.85-3.75m24.05-18.9q2.25 2.05 4.75 2.3l.95 1.65q-2.6-1.8-4.7-2.5l-1-1.45" fill="#4b3d01"/><path d="M309.45 225.05q-.2 3.1-1.55 6.15-2.85 6.8-9.45 9.15-3.1 1.1-6.2.95l-.05-4.05q2.4.1 4.75-.8 1.65-.55 2.9-1.45l.15-.1q2.05-1.4 3.4-3.6l.05-.1.95-1.85q1-2.3 1.15-4.55l3.9.25" fill="#c19a02"/><path d="M270.95 223.9q-1.15-5.6 1.2-10.85l.35-.8q.95-2.05 2.35-3.7m.05-.05q2.65-3.15 6.8-4.65l1.8-.5q4.8-1.15 9.5.7l.6.25 2.7 1.15.1.05 2.55 1 .25.2q4.8 2.45 7.5 7.1.9 1.55 1.6 3.45 1.4 3.95 1.15 7.8-.2 3.1-1.55 6.15-2.85 6.8-9.45 9.15-3.1 1.1-6.2.95-2.4-.1-4.75-1l-5.25-2.1-1.4-.65q-4.2-2.2-6.7-6-1-1.45-1.75-3.2l-.65-1.4-.8-3.05m23.15-15q2.45 1.45 4.1 3.75m-4.1-3.75-3.9-.2q-1.5.2-2.9.7-5.25 1.8-7.45 7.1-1.85 4.4-.9 8.95l.6 1.9q1.4 3.95 4.25 6.4l2.05 1.45 2.35.3 4.4-.75 2.95-1.5q1.65-1.15 2.9-2.8l1.65-2.85q.95-2.2 1.1-4.5.3-3.15-.8-6.4l-1.2-2.6-1-1.45" fill="none" stroke="#000" stroke-opacity=".4" stroke-width=".5"/><path d="m275.55 226.65-.1-.5q-1.35-5.85 1.05-11.35l.15-.3m2.85-4.5 1.6-1.6q2.15-1.75 5-2.75 2.05-.75 4.15-.95l5.05.45 1 .3M279.5 210l-.5.55q-1.35 1.75-2.35 3.95m26.3.45q-2-3.05-5.35-4.8-1.75-.9-3.5-1.25m8.85 6.05.95 1.65m1.65 8.2q.3-2.9-.75-5.9l-.15-.4-.75-1.9m-3.9 18.3-.15.1q-1.25.9-2.9 1.45-2.35.9-4.75.8m7.8-2.35q2.05-1.4 3.4-3.6m-17.55 3.9.8.45q2.8 1.45 5.55 1.6m13.35-12.45q-.15 2.25-1.15 4.55l-.95 1.85-.05.1m-27.85-4.65.6 2.05q1 2.75 2.6 5.05l1.25 1.55q1 1.15 2.25 2.1l2.55 1.7.4.2 1.3.6" fill="none" stroke="#ff9" stroke-opacity=".58" stroke-width=".5"/></g><g id="a" fill-opacity=".482"><path d="M36.65 22.65q.55 2 2.6 2 2.8 0 2.8-4.7 0-4.55-2.75-4.05-2.8.5-2.8 4.75l.15 2M37.7 10.5q0-3.6-5.55-6.25-5.55-2.7-5.55 1.7 0 .35 3.95 3.85 3.9 3.5 4.35 3.5 1.45 0 2.2-.95.6-.8.6-1.85m-.6-4.8q6.4 5.7 6.4 13.8t-6.4 13.8Q30.75 39 21.75 39t-15.4-5.7Q0 27.6 0 19.5T6.35 5.7Q12.75 0 21.75 0T37.1 5.7" fill="#d06a6a"/><path d="M37.7 10.5q0 1.05-.6 1.85-.75.95-2.2.95-.45 0-4.35-3.5-3.95-3.5-3.95-3.85 0-4.4 5.55-1.7Q37.7 6.9 37.7 10.5m-1.05 12.15-.15-2q0-4.25 2.8-4.75 2.75-.5 2.75 4.05 0 4.7-2.8 4.7-2.05 0-2.6-2" fill="#e6bbbb"/></g><g id="i"><path d="m251.45 215.95-.5-.8q-3.65-5.4-4.7-12.35-1-16.95 11.35-22.35 7.6-2.4 13.95-2.2 9.85.2 16.75 6.65 21.2 21.45 20.65 29.75-1.65 4.55-6.7 5.15-3.35-.3-4.6-4.7-.4-2.1-2.1-3.55-3.85-3.1-8.4-.8-5.8 3.2-7 8.8-.5 10.5 4.55 13.2 6.05 2.5 3.65 6.15-4.25 3.55-11.8.65-13.2-6.1-25.1-23.6" fill="url(#b)"/><path d="M251.45 215.95q11.9 17.5 25.1 23.6 7.55 2.9 11.8-.65 2.4-3.65-3.65-6.15-5.05-2.7-4.55-13.2 1.2-5.6 7-8.8 4.55-2.3 8.4.8 1.7 1.45 2.1 3.55 1.25 4.4 4.6 4.7 5.05-.6 6.7-5.15.55-8.3-20.65-29.75-6.9-6.45-16.75-6.65-6.35-.2-13.95 2.2-12.35 5.4-11.35 22.35 1.05 6.95 4.7 12.35l.5.8" fill="none" stroke="#000" stroke-opacity=".4" stroke-width=".5"/><path d="M248.4 200.3q3 13.8 13.45 25.9 4.15 1.55 3.55-2.85-7.3-8-12.35-23.15-4.1-5.2-4.65.1m29.4 31.45q-4.65-1.75-8.25-4.4-4.15-.05-2.55 3.7 3.95 4.15 8.7 5.45 6.85-.15 2.1-4.75" fill="#fff" fill-opacity=".482"/><path d="m248.75 188 2.7-3.6 11.75-2.85 21.85 1.4 4.65 5.75-13 .05-3.35 4.1-1.2 10.4-10.25-8.2-9-4.15 3.1-1.7-7.25-1.2" fill-opacity=".212"/></g><g id="f"><path d="m-1.3-5.3-7.1 4.05q-.15-2.35-2.05-5.9 3 .05 9.15 1.85" fill="#77ba00"/><path d="M-8.4-1.25q-.15-2.35-2.05-5.9 3 .05 9.15 1.85" fill="none" stroke="#4d8c2b" stroke-opacity=".702" stroke-width=".5"/><path d="M0-5.15q5.25-1.7 10.25-2.1-2 4.25-2.1 7.3L0-5.15" fill="#77ba00"/><path d="M8.15.05q.1-3.05 2.1-7.3-5 .4-10.25 2.1" fill="none" stroke="#498c2b" stroke-opacity=".702" stroke-width=".5"/><path d="m-7.4 1.35-1.4-4.2 3.4 1.35 1.35 1.25.5 2.35q-1.75-.65-3.85-.75" fill="#77ba00"/><path d="m-8.8-2.85 1.4 4.2-6.45.4q1.1-2.65 5.05-4.6" fill="#7cd100"/><path d="M-8.8-2.85q-3.95 1.95-5.05 4.6l6.45-.4" fill="none" stroke="#528c2b" stroke-opacity=".702" stroke-width=".5"/><path d="m5.75-2 4.1-.7-1.05 2-1.35 2.6q-3.1.5-5.9 1.55Q1.4.8 5.75-2m-1 1.95q2.3-.9 4.05-.65-1.75-.25-4.05.65" fill="#77ba00"/><path d="M7.45 1.9 8.8-.7l1.05-2q2.7 2.25 4.05 5.45-3.7-1-6.45-.85m3.05-2q-.8-.5-1.7-.6.9.1 1.7.6" fill="#7cd100"/><path d="M8.8-.7q-1.75-.25-4.05.65M8.8-.7q.9.1 1.7.6" fill="none" stroke="#5b8c2b" stroke-width=".5"/><path d="m9.85-2.7-4.1.7m-4.2 5.45q2.8-1.05 5.9-1.55 2.75-.15 6.45.85-1.35-3.2-4.05-5.45" fill="none" stroke="#558c2b" stroke-opacity=".702" stroke-width=".5"/><path d="M-7.1 2.2q3-1.9 5.85-2.35 4.1.8 5.75 3.25-4-.55-7.95 0-1.3-1.05-3.65-.9m5-1.15L-3.45 3.1l1.35-2.05" fill="#77ba00"/><path d="M-7.15 2.2h.05q2.35-.15 3.65.9 3.95-.55 7.95 0-5 1-9.05 4.1-.9-2.8-2.6-5" fill="#7cd100"/><path d="m-3.45 3.1 1.35-2.05" fill="none" stroke="#5b8c2b" stroke-width=".5"/><path d="M4.5 3.1q-5 1-9.05 4.1-.9-2.8-2.6-5" fill="none" stroke="#578c2b" stroke-opacity=".702" stroke-width=".5"/><path d="m-.45-10.4 3.8 3.25q-3.45-.2-6.5 1.3l-.2-.55q-.35-1.75 2.9-4M-3.85.5l-2.7-.05q-1.5-.25-4.3-3.35l4-1.65q.55 2.75 3 5.05M5.2.15q2.6-2.9 1.3-5.2l4.7 1Q9.35-.95 7.85-.35L5.2.15" fill="#578234"/><path d="M1.3-4.55Q-5.5-.6-6.4-3.05q.7-4.65 2.85-7.7 1.5 3.7 4.85 6.2" fill="#a39171"/><path d="M1.3-4.55Q-5.5-.6-6.4-3.05q.7-4.65 2.85-7.7 1.5 3.7 4.85 6.2" fill="none" stroke="#bdab89" stroke-width=".5"/><path d="M-6-8.15q1.6 4.85 5 9.1l-2.35-.1q-2.3-3.6-2.65-9" fill="#b8a17e"/><path d="M-3.35.85Q-5.7.4-6.7-1.55q-.75-4.25.7-6.6.35 5.4 2.65 9" fill="url(#c)"/><path d="M4.6-2.4q.85-3.7-2.05-8.8Q5.7-7.65 6-3.25q-.55 1-1.4.85" fill="#fff1d1"/><path d="M4.6-2.4q-2.9.35-6.95-1.35 4-2.85 4.9-7.45 2.9 5.1 2.05 8.8" fill="#ad9877"/><path d="M5.95-8.8Q5.3-2.45 3.3.05l-1.9-.3q3.2-3.8 4.55-8.55" fill="#b8a17e"/><path d="M5.95-8.8q1.6 2.65 1.1 6.95Q6.05.2 3.3.05q2-2.5 2.65-8.85" fill="url(#d)"/><path d="M2.8-1.55Q1.65-.35 0-.35t-2.85-1.2Q-4-2.7-4-4.35t1.15-2.85Q-1.65-8.35 0-8.35T2.8-7.2Q4-6 4-4.35t-1.2 2.8" fill="#ffd919"/><path d="M2.3-6q-.05.4-.45.4T.95-6q-.4-.35-.65-.85t-.2-.9q.1-.35.5-.35l.85.35.75.9q.25.5.1.85" fill="#fff8df"/><path d="M-3.6.9Q-3-2.45 0-6.05 3.1-4.4 4.4.25q-2.2 1.1-4.75 1.1L-3.6.9" fill="url(#e)"/><path d="M4.4.25Q3.1-4.4 0-6.05-3-2.45-3.6.9" fill="none" stroke="#baa789" stroke-width=".5"/><path d="m-6.45 0 1.1-1.55q1.6 1.65 4.5 3.3Q-2.1 2.1-6.45 0M5.5-1.75 6.75-.2Q2.6 1.9 1.35 1.55 4.1-.1 5.5-1.75" fill="#5b941b"/></g><use xlink:href="#a" id="h"/><use xlink:href="#f" id="j"/><path d="m307.85 213.7.55-.8.25.15.15.45.05.05q.45.55-.3 1.85-.65 1.4-1.8 2.3-2.8 2.25-4.9 2-1.25-.15-1.95-1.05-.45-.55-.4-1.05l-.1-.25q.7.45 1.9.4 2.2.05 4.8-2.1l1.75-1.95m-19.65 21.55q.5.6.6 1.45.1 1.45-1.3 2.6-1.25 1-4.45 1.35-3.1.25-3.6-.4l-.1-.15 1.5.15q2.7.1 4.95-1.7 1.25-1 1.2-2.35-.05-.85-.6-1.55l-.3-.4.95.2q.4-.15.8.45l.35.35" fill="#fff" fill-opacity=".502" id="k"/></defs><use xlink:href="#g"/><use transform="matrix(-.24596 .19855 .18179 .22517 286.95 193.55)" xlink:href="#h"/><use transform="matrix(-.18921 .15276 .13983 .1732 274.95 216.85)" xlink:href="#h"/><use transform="matrix(-.43051 .20197 .153 .36755 273.55 184.4)" xlink:href="#h"/><use transform="matrix(-.04503 .10498 .15134 .05165 297.75 203.55)" xlink:href="#h"/><use xlink:href="#i"/><use transform="matrix(1.9376 0 .00003 1.9376 268.25 181.35)" xlink:href="#j"/><use xlink:href="#k"/></svg>