<svg width="53" height="66" viewBox="325.93 133.89 53.307 66.011" xmlns="http://www.w3.org/2000/svg" xmlns:xlink="http://www.w3.org/1999/xlink"><defs><g id="c"><path d="M342.6 158.75q4.9-1.5 10.3.35l.7.25q.65 2.8-1.25 4.1l-.3-.1q-5.6-1.9-10.7-.3l-.5.15q-.35-1.5 1.75-4.45m-8.45 20.7.9-3.9q.35 2.1 1.55 4.2.8 1.4 1.9 2.6.55 3.05-.75 4.25l-.1-.1-1.9-2.6q-1.25-2.15-1.6-4.45m7.45 5.4q1.35.85 2.95 1.4 2.2.65 4.3.7l-.7 4.2q-2.15 0-4.4-.75l-1.85-.75-.2-.15q-1.35-3-.1-4.65" fill="#fc0"/><path d="M353.6 159.35q2.1.8 3.85 1.95h.05q-2.25.95-.5 4.45l-.65-.4q-1.8-1.1-4-1.9 1.9-1.3 1.25-4.1m-15.1 23q1.4 1.5 3.1 2.5-1.25 1.65.1 4.65-2.25-1.05-3.95-2.9 1.3-1.2.75-4.25" fill="#fee892"/><path d="M358.6 191.5q-1.35.95-2.95 1.7-3.4 1.5-7 1.6l-.5-3.65q2.75.15 5.3-1.15l.4-.1 1.55-.85 3.2 2.45m-1.6-25.75 1.75 1.45q2.05 1.9 3.55 4.5 1.05 1.9 1.6 3.8l-3.7.25-1.1-2.7q-2.75-4.75-8.05-6.5l-8.35-.25-1.85-3.1.5-.15q5.1-1.6 10.7.3l.3.1q2.2.8 4 1.9l.65.4" fill="#8f7301"/><path d="M357.5 161.3v.05q3.45 2.3 5.6 6.1l.8 1.7q.85 4.75 0 6.35-.55-1.9-1.6-3.8-1.5-2.6-3.55-4.5l-1.75-1.45q-1.75-3.5.5-4.45" fill="#fedc56"/><path d="M363.9 169.15q1.95 4.3 1.15 8.8l-.15.6-.5 2.35v-.65q.15-2.4-.5-4.75.85-1.6 0-6.35m-33.25 5.2.6-3.3.15-.8.4-1.4q1.25-4.05 4.25-6.6l-2.3 5.65-1.65 2.25-1 2.5-.2.45-.25 1.25m4.25-.95q-.1 1.15.15 2.15l-.9 3.9q-.4-2.6.45-5.3l.3-.75m13.95 13.55q3.05.1 5.8-1.15l2.2-1.35q-.2 2.1-1.45 4.6l-1.55.85-.4.1q-2.55 1.3-5.3 1.15l.7-4.2" fill="#dbaf02"/><path d="m364.4 180.9-.05.3-.05.1-.5 2.45-.1.25q-1.4 4.7-5.1 7.5l-3.2-2.45 1.4-1q2.4-2.05 3.45-5.3.45-1.7.5-3.35 0-1.8-.55-3.65l3.7-.25q.65 2.35.5 4.75v.65m-34-1.1q-.3-2.25.05-4.55l.2-.9.25-1.25.2-.45 1-2.5 1.65-2.25 1.2-1.25q1.7-1.6 4.15-2.7.85-.5 1.75-.75-.9.25-1.75.75-2.45 1.1-4.15 2.7 1.3-4.75 3.75-6.3l1.25-.6q1.25-.65 2.65-1-2.1 2.95-1.75 4.45l1.85 3.1-1.8.7q-3.3 1.6-5.1 4.45l-.9 1.95-.3.75q-.85 2.7-.45 5.3l-3.75.35m27.65 3.7q1.85-1.7 2.7-4.1-.05 1.65-.5 3.35-1.05 3.25-3.45 5.3-.3-2.3 1.25-4.55" fill="#b18e01"/><path d="M336.05 162.25q1.2-1.15 2.65-1.9-2.45 1.55-3.75 6.3l-1.2 1.25 2.3-5.65m20.8 22.2 1.2-.95q-1.55 2.25-1.25 4.55l-1.4 1q1.25-2.5 1.45-4.6" fill="#4b3d01"/><path d="M348.65 194.8q-2.9.05-6-1.05-6.8-2.2-10.25-8.2-1.55-2.9-2-5.75l3.75-.35q.35 2.3 1.6 4.45l1.9 2.6.1.1q1.7 1.85 3.95 2.9l.2.15 1.85.75q2.25.75 4.4.75l.5 3.65" fill="#c19a02"/><path d="m342.7 166.3 8.35.25q5.3 1.75 8.05 6.5l1.1 2.7m-25.3-2.35.9-1.95q1.8-2.85 5.1-4.45l1.8-.7m-7.65 9.25q-.25-1-.15-2.15m.15 2.15q.35 2.1 1.55 4.2.8 1.4 1.9 2.6 1.4 1.5 3.1 2.5 1.35.85 2.95 1.4 2.2.65 4.3.7 3.05.1 5.8-1.15l2.2-1.35 1.2-.95q1.85-1.7 2.7-4.1 0-1.8-.55-3.65" fill="none" stroke="#000" stroke-opacity=".4" stroke-width=".5"/><path d="M357.45 161.3h.05" fill="none" stroke="#ff9" stroke-opacity=".58" stroke-width=".5"/><path d="m357 165.75 1.75 1.45q2.05 1.9 3.55 4.5 1.05 1.9 1.6 3.8.65 2.35.5 4.75v.65m-23.55-17.7.5-.15q5.1-1.6 10.7.3l.3.1q2.2.8 4 1.9l.65.4m-16.15-2.55q-.9.25-1.75.75-2.45 1.1-4.15 2.7l-1.2 1.25-1.65 2.25-1 2.5-.2.45-.25 1.25m4.25-.95-.3.75q-.85 2.7-.45 5.3m3.6 7.15q1.7 1.85 3.95 2.9m-3.95-2.9-.1-.1-1.9-2.6q-1.25-2.15-1.6-4.45m14 11.7q-2.15 0-4.4-.75l-1.85-.75-.2-.15m6.45 1.65q2.75.15 5.3-1.15l.4-.1 1.55-.85m1.4-1q2.4-2.05 3.45-5.3.45-1.7.5-3.35m-3.95 8.65-1.4 1" fill="none" stroke="#ff9" stroke-opacity=".58"/><path d="M357.5 161.35q3.45 2.3 5.6 6.1l.8 1.7q1.95 4.3 1.15 8.8l-.15.6-.5 2.35-.05.3-.05.1-.5 2.45-.1.25q-1.4 4.7-5.1 7.5-1.35.95-2.95 1.7-3.4 1.5-7 1.6-2.9.05-6-1.05-6.8-2.2-10.25-8.2-1.55-2.9-2-5.75-.3-2.25.05-4.55l.2-.9.6-3.3.15-.8.4-1.4q1.25-4.05 4.25-6.6 1.2-1.15 2.65-1.9l1.25-.6q1.25-.65 2.65-1 4.9-1.5 10.3.35l.7.25q2.1.8 3.85 1.95" fill="none" stroke="#000" stroke-opacity=".4" stroke-width=".5"/><path d="M341.05 163.8q4.9-1.5 10.3.35l.7.25q.65 2.8-1.25 4.1l-.3-.1q-5.6-1.9-10.7-.3l-.5.15q-.35-1.5 1.75-4.45m-7.55 16.8q.35 2.1 1.55 4.2.8 1.4 1.9 2.6.55 3.05-.75 4.25l-.1-.1q-1.05-1.2-1.9-2.6-1.25-2.15-1.6-4.45l.9-3.9m6.55 9.3q1.35.85 2.95 1.4l4.3.7-.7 4.2q-2.15 0-4.4-.75l-1.85-.75-.2-.15q-1.35-3-.1-4.65" fill="#fc0"/><path d="M352.05 164.4q2.1.8 3.85 1.95h.05q-2.25.95-.5 4.45l-.65-.4q-1.8-1.1-4-1.9 1.9-1.3 1.25-4.1m-15.1 23q1.4 1.5 3.1 2.5-1.25 1.65.1 4.65-2.25-1.05-3.95-2.9 1.3-1.2.75-4.25" fill="#fee892"/><path d="m357.05 196.55-2.95 1.7q-3.4 1.5-7 1.6l-.5-3.65q2.75.15 5.3-1.15l.4-.1 1.55-.85 3.2 2.45m-1.6-25.75 1.75 1.45q2.05 1.9 3.55 4.5 1.05 1.9 1.6 3.8l-3.7.25-1.1-2.7q-2.75-4.75-8.05-6.5l-8.35-.25-1.85-3.1.5-.15q5.1-1.6 10.7.3l.3.1q2.2.8 4 1.9l.65.4" fill="#8f7301"/><path d="M355.95 166.35v.05q3.45 2.3 5.6 6.1l.8 1.7q.85 4.75 0 6.35-.55-1.9-1.6-3.8-1.5-2.6-3.55-4.5l-1.75-1.45q-1.75-3.5.5-4.45" fill="#fedc56"/><path d="M362.35 174.2q1.95 4.3 1.15 8.8l-.15.6-.5 2.35v-.65q.15-2.4-.5-4.75.85-1.6 0-6.35m-33.25 5.2.6-3.3.15-.8.4-1.4q1.25-4.05 4.25-6.6l-2.3 5.65-1.65 2.25-1 2.5-.2.45-.25 1.25m4.25-.95q-.1 1.15.15 2.15l-.9 3.9q-.4-2.6.45-5.3l.3-.75M347.3 192q3.05.1 5.8-1.15 1.2-.6 2.2-1.35-.2 2.1-1.45 4.6l-1.55.85-.4.1q-2.55 1.3-5.3 1.15l.7-4.2" fill="#dbaf02"/><path d="m362.85 185.95-.05.3-.05.1-.5 2.45-.1.25q-1.4 4.7-5.1 7.5l-3.2-2.45 1.4-1q2.4-2.05 3.45-5.3.45-1.7.5-3.35 0-1.8-.55-3.65l3.7-.25q.65 2.35.5 4.75v.65m-34-1.1q-.3-2.25.05-4.55l.2-.9.25-1.25.2-.45 1-2.5 1.65-2.25 1.2-1.25q1.7-1.6 4.15-2.7.85-.5 1.75-.75-.9.25-1.75.75-2.45 1.1-4.15 2.7 1.3-4.75 3.75-6.3.55-.35 1.25-.6 1.25-.65 2.65-1-2.1 2.95-1.75 4.45l1.85 3.1-1.8.7q-3.3 1.6-5.1 4.45l-.9 1.95-.3.75q-.85 2.7-.45 5.3l-3.75.35m27.65 3.7q1.85-1.7 2.7-4.1-.05 1.65-.5 3.35-1.05 3.25-3.45 5.3-.3-2.3 1.25-4.55" fill="#b18e01"/><path d="M334.5 167.3q1.2-1.15 2.65-1.9-2.45 1.55-3.75 6.3l-1.2 1.25 2.3-5.65m20.8 22.2 1.2-.95q-1.55 2.25-1.25 4.55l-1.4 1q1.25-2.5 1.45-4.6" fill="#4b3d01"/><path d="M347.1 199.85q-2.9.05-6-1.05-6.8-2.2-10.25-8.2-1.55-2.9-2-5.75l3.75-.35q.35 2.3 1.6 4.45.85 1.4 1.9 2.6l.1.1q1.7 1.85 3.95 2.9l.2.15 1.85.75q2.25.75 4.4.75l.5 3.65" fill="#c19a02"/><path d="m341.15 171.35 8.35.25q5.3 1.75 8.05 6.5l1.1 2.7m-17.5-9.45-1.8.7q-3.3 1.6-5.1 4.45l-.9 1.95q-.1 1.15.15 2.15.35 2.1 1.55 4.2.8 1.4 1.9 2.6 1.4 1.5 3.1 2.5 1.35.85 2.95 1.4l4.3.7q3.05.1 5.8-1.15 1.2-.6 2.2-1.35l1.2-.95q1.85-1.7 2.7-4.1 0-1.8-.55-3.65" fill="none" stroke="#000" stroke-opacity=".4" stroke-width=".5"/><path d="M355.9 166.35h.05" fill="none" stroke="#ff9" stroke-opacity=".58" stroke-width=".5"/><path d="m355.45 170.8 1.75 1.45q2.05 1.9 3.55 4.5 1.05 1.9 1.6 3.8.65 2.35.5 4.75v.65m-23.55-17.7.5-.15q5.1-1.6 10.7.3l.3.1q2.2.8 4 1.9l.65.4m-16.15-2.55q-.9.25-1.75.75-2.45 1.1-4.15 2.7l-1.2 1.25-1.65 2.25-1 2.5-.2.45-.25 1.25m4.25-.95-.3.75q-.85 2.7-.45 5.3.35 2.3 1.6 4.45.85 1.4 1.9 2.6l.1.1m3.95 2.9.2.15 1.85.75q2.25.75 4.4.75 2.75.15 5.3-1.15l.4-.1 1.55-.85m-13.7.45q-2.25-1.05-3.95-2.9m19.05 1.45q2.4-2.05 3.45-5.3.45-1.7.5-3.35m-3.95 8.65-1.4 1" fill="none" stroke="#ff9" stroke-opacity=".58"/><path d="M355.95 166.4q3.45 2.3 5.6 6.1l.8 1.7q1.95 4.3 1.15 8.8l-.15.6-.5 2.35-.05.3-.05.1-.5 2.45-.1.25q-1.4 4.7-5.1 7.5l-2.95 1.7q-3.4 1.5-7 1.6-2.9.05-6-1.05-6.8-2.2-10.25-8.2-1.55-2.9-2-5.75-.3-2.25.05-4.55l.2-.9.6-3.3.15-.8.4-1.4q1.25-4.05 4.25-6.6 1.2-1.15 2.65-1.9.55-.35 1.25-.6 1.25-.65 2.65-1 4.9-1.5 10.3.35l.7.25q2.1.8 3.85 1.95" fill="none" stroke="#000" stroke-opacity=".4" stroke-width=".5"/><path d="m374.7 162.8-4-16 3.95 9.55.05 6.45m-8.3-.55 8 .5v.2l-11.3 6.95-5.05-.2 8.35-7.45" fill="#c1e8e8"/><path d="m374.7 162.8-.3-.05-8-.5 4.3-15.45 4 16m-21.8 2.8-1.95-4.7 2.2-14.2 3.5 7.9-3.75 11" fill="#daf1f0"/><path d="m370.7 146.8-4.3 15.45-9.75-7.65 14.05-7.8-17.55-.1 5.9-2.1 11.65 2.2" fill="#eef9f9"/><path d="m358.05 169.7-5.15-4.1 3.75-11-3.5-7.9 17.55.1-14.05 7.8 9.75 7.65-8.35 7.45" fill="#fff"/></g><g id="a"><path d="m35.5 16.1-.3.15-9.7 4.6L20.55 0 35.5 16.1M0 11.3l9.15 6.9 2.8 15.35-5.35-4.2L0 11.3" fill="#daf1f0"/><path d="M35.5 16.1 20.55 0l10.7 8.6 4.25 7.5m-10 4.75 9.7-4.6.1.25-8.7 15.45-6 3 4.9-14.1" fill="#c1e8e8"/><path d="M20.55 0 9.15 18.2l16.35 2.65-4.9 14.1-8.65-1.4-2.8-15.35L0 11.3 20.55 0" fill="#fff"/><path d="m20.55 0 4.95 20.85L9.15 18.2 20.55 0 0 11.3l5.5-6.25L20.55 0" fill="#eef9f9"/><path d="m35.2 16.25.3-.15-4.25-7.5L20.55 0M35.2 16.25l.1.25.2-.4M20.6 34.95l6-3 8.7-15.45M11.95 33.55l8.65 1.4M0 11.3l5.5-6.25L20.55 0m-8.6 33.55-5.35-4.2L0 11.3" fill="none" stroke="#000" stroke-opacity=".4" stroke-width=".5"/><path d="M35.5 16.1 20.55 0l4.95 20.85 9.7-4.6M20.55 0 9.15 18.2l16.35 2.65-4.9 14.1M0 11.3l9.15 6.9 2.8 15.35M20.55 0 0 11.3" fill="none" stroke="#000" stroke-opacity=".4" stroke-width=".5"/></g><g id="b" fill="#fff"><path d="M22.75 14.55V15l.45-.45.35.05-1 .65 1.05.55-.25.25h.5l.45.8-.15 1.2h-1.4v.65l.35.4-.1.05h-2.2v-.55l-.45.45-.8-.9.1-.1h-.15l-.5-.55.8-.95.1-.75.25.25h.6v-1l.15-.1 1.85-.4"/><path d="m20.95 6.4.1-2.1.35-3.25Q21.55 0 21.75 0t.4 1.05l.3 3.25.1 1.6-1.6.5m7.2 3.5Q30 8.3 30.1 8.4l-1.6 2.15-.35-.65m1.95 6.2 8.15.25 6.55.7-6.55.7-8.4.25.25-1.9m-4.05 6.5.05.2-.3-.05.25-.15m-3.55 1.5-.05.9q-.3 4.3-.7 4.3t-.7-4.3v-.5l1.45-.4m-7.5.05-2.8 2.15q-.15-.15 1.95-2.5l.85.35m-5-6.25-2.75-.1-.7-.05-6.55-.7 6.55-.7h.7l3.3-.15-.55 1.7m4.05-6.8q-.45-.6-.35-.7t.65.35l-.3.35" fill-opacity=".322"/><path d="m22.55 5.9.2 5.95q-1.05.35-2 1l.2-6.45 1.6-.5m.2 6.4v.85l-.9-.5.9-.35m1.15 1.6 3.25-3.15 1-.85.35.65-.75.8-2.95 3.2-.9-.65m2.3 2.15 3.9.05-.25 1.9-3.4.05q.35-.95-.25-2m-2.1 4.2.4.45 1.55 1.9-.25.15-1.85-1.5-.7-.6.85-.4m-1.4.65-.2 3.2-1.45.4-.2-3.7 1.3.3.55-.2m-3.05-1.15L15.1 24l-.1.15-.85-.35.35-.4 4.35-4.5.8.85m-1.45-1.7L10 17.9l.55-1.7 7.05-.15-.1.15q.1.95.7 1.85m-.2-2.6-2.8-2.95-1.15-1.4.3-.35 1.4 1.2 2.95 2.65-.6.7-.1.15" fill-opacity=".49"/><path d="M22.75 11.85v.45l-.9.35.9.5v1.4l-1.85.4-.15.1v-2.2q.95-.65 2-1m.45 2.7.7-.65.9.65-1.2 1.25-1.05-.55 1-.65-.35-.05m.65 1.5h2.35q.6 1.05.25 2h-2.3l.15-1.2-.45-.8m-.75 3.05 1 1.15-.85.4-.55-.5v.75l-.55.2-1.3-.3-.05-1.65H23l.1-.05m-2.75-.05-.7.7-.8-.85.7-.75.8.9m-.85-1h-1.3q-.6-.9-.7-1.85l.1-.15h1l-.6-.6.1-.15.6-.7 1.2 1.2-.1.75-.8.95.5.55" fill-opacity=".773"/></g><use xlink:href="#a" id="e"/><use xlink:href="#b" id="f"/><filter id="d"><feColorMatrix in="SourceGraphic" result="cxform" values="1.0 0.0 0.0 0.0 0.0 0.0 1.0 0.0 0.0 0.0 0.0 0.0 1.0 0.0 0.0 0.0 0.0 0.0 0.51953125 0.0"/><feComposite in2="SourceGraphic" operator="in" result="color-xform"/></filter></defs><use xlink:href="#c"/><use transform="matrix(.87296 .48445 -.48445 .87296 356.05 132.9)" filter="url(#d)" xlink:href="#e"/><use transform="matrix(.76227 -.10301 .19408 .74995 332.55 136.15)" xlink:href="#f"/><use transform="matrix(.46001 .18869 -.18869 .46001 329.15 153.8)" xlink:href="#f"/></svg>