<svg width="62" height="77" viewBox="244.49 162.21 61.625 76.532" xmlns="http://www.w3.org/2000/svg" xmlns:xlink="http://www.w3.org/1999/xlink"><defs><use xlink:href="#b" id="c"/><use transform="translate(-148.95 -38)" xlink:href="#c" id="g"/><use xlink:href="#e" id="h"/><g id="b"><path d="m188.65 120.15-1.3-2.4 1.35 2.3-.05.1" fill="#fff433"/><path d="M172.9 64.95v6.55l-.05.7.95 9.35q.5 3.6 1.4 7.15.85 3.6 2.1 7.2 2 5.95 5 12.1l4.9 9.6.15.15 1.3 2.4 2.4 4.1q3.8 6.4 7.75 11.6l2.3 2.9q3.65 4.5 6.45 7l4.55 4.55-11.85-11.15-2.85-3.8q-3.55-4.9-7.1-10.75l-8.7-16.45q-3-6.25-5-12.25l-1.4-4.55-.65-2.9q-.95-3.6-1.45-7.15l-.8-10.35q-.05-2.8.6-6" fill="#f7f128"/><path d="M164.75 85.25q.7 3.95 2.05 8.5 1.85 5.95 4.85 13.1l1 2.35q3.1 7 7.25 15.05h.1q2.65 5.15.3 5.05l-1.85-.5q-3.7-1.65-11.9-7.9-2.65-5.4-4.95-11.25l-2.5-6.9q-2.85-8.2-4.9-17.15l1.1-3.4q4.25-12.1 8.65-3.4.1 3.05.8 6.45" fill="#ffc"/><path d="M168.2 47.25q-3.55 13.5-3.7 18.35v6q.3 6.75 1.6 14.1l.85 4.2 3.85 12.05 4.5 10.6 7.25 13.3 4.5 6.15q5.55 7.1 11.2 13.2 5.85 3.35 13.85 5.1-.7 10.75-11.1 16.45l-.4.2-.75-.6-6.6-5.9-3-3.1q-6.95-7.25-12.85-15.75l-3.85-5.8-5.8-10.1q-3.6-6.8-6.75-14.2l-6.5-17.85q-1.85-6.05-3.15-11.8l-.15-1q-1.15-5.65-1.75-10.9l-.45-6.3q-.25-6.5.5-12.5V51q7.95-22.45 18.7-3.75m-3.45 38q-.7-3.4-.8-6.45-4.4-8.7-8.65 3.4l-1.1 3.4q2.05 8.95 4.9 17.15l2.5 6.9q2.3 5.85 4.95 11.25 8.2 6.25 11.9 7.9l1.85.5q2.35.1-.3-5.05h-.1q-4.15-8.05-7.25-15.05l-1-2.35q-3-7.15-4.85-13.1-1.35-4.55-2.05-8.5" fill="url(#a)"/><path d="M172.9 64.95q-.65 3.2-.6 6l.8 10.35q.5 3.55 1.45 7.15l.65 2.9 1.4 4.55q2 6 5 12.25l8.7 16.45q3.55 5.85 7.1 10.75l2.85 3.8 11.85 11.15q-8-1.75-13.85-5.1-5.65-6.1-11.2-13.2l-4.5-6.15-7.25-13.3-4.5-10.6-3.85-12.05-.85-4.2q-1.3-7.35-1.6-14.1v-6q.15-4.85 3.7-18.35l9.15 4.9-4 6.6q-.35 2.1-.45 6.2" fill="#bf660f"/><path d="m200.6 166.95-.75-.6-6.6-5.9-3-3.1q-6.95-7.25-12.85-15.75l-3.85-5.8-5.8-10.1q-3.6-6.8-6.75-14.2l-6.5-17.85q-1.85-6.05-3.15-11.8l-.15-1q-1.15-5.65-1.75-10.9l-.45-6.3q-.25-6.5.5-12.5V51" fill="none" stroke="#300" stroke-opacity=".361"/></g><g id="e"><path d="M84.35 166.95q-3.15 2.3-7.2 3.05l-1.65.25q-2.7.25-5.5 0l-1.4-.25q-7.4-1.35-15.4-7l-.35-.2.4.2q7.65 4.45 13.35 5.15 7.6.9 11.65-5.15 1.15-1.75 2-4l.3-.75q1.65-4.9 2.05-12.2l.4-12.25q-.1-9.05-1-16.85l-.6-4.4q-1.55-10.1-4.55-18Q73 83.75 68.25 74q-7.3-14.95-16.75-27.35l-1.2-1.55q-5.45-7-11.6-13.15-9.4-6.85-16.35-10.05l-1.05-.5-3.55-1.4q2.75-.3 5.65.1 13.7 1.8 30.05 19.05 7 7.35 13 16.05l2.05 3.15 6.7 11L77.65 74q4 8.1 7.5 17.05 6.7 17.5 8.75 32.55 1.55 11.65.35 21.75-1.05 8.5-3.85 14.15l-.6 1.15-.6 1-.95 1.35q-1.75 2.35-3.9 3.95M60.6 146.4l-2.3 2.85-3.45-3.15 1.75-5.25 2.7 2.45.9.65.5 2 .05.3-.15.15" fill="#e09f0c"/><path d="m63.7 74.2.45.3.85 1.85q9.5 19.6 15.1 43.5-6.2 21.35-12.55 8.8-.9-19.9-18.6-54.65l-2-3.85Q39.3 55.45 63.45 74l.25.2" fill="#ffc"/><path d="M75.2 69.35 77.8 74q2.35 4.5 4.5 9.3l3.6 8.7q6.5 16.55 8.7 30.85 1.85 12.05.55 22.5-1.05 8.4-3.9 13.95l-.5.9-.95 1.55-.95 1.25q-2 2.45-4.5 3.95 2.15-1.6 3.9-3.95l.95-1.35.6-1 .6-1.15q2.8-5.65 3.85-14.15 1.2-10.1-.35-21.75-2.05-15.05-8.75-32.55-3.5-8.95-7.5-17.05l-2.45-4.65m-18.6 71.5.4-1.35 2.5 2-.2 1.8-2.7-2.45" fill="#f7f128"/><path d="m52.85 162.8-2.75-2.1.85-.8q11.7-10.7 9.8-13.3l.15-.15.5-1.1q.85-1.85 1.3-4 .4-2.2.35-6.3l-.4-8.85q.1-16.4-8.05-35.75-3.85-9.1-8.05-16.45-2.65-4.55-5.45-8.5l-1.25-1.7-4.6-5.65q-5.4-5.95-10.2-9.85-5.3-5.45-12.8-8.25-6.15-18.4-12.25 5v-5.2l2.35-8.1Q3.5 29.2 5 27.15q4.2-5.6 11-6.9l.1-.05h.05l1.6-.2 3.55 1.4 1.05.5q6.95 3.2 16.35 10.05 6.15 6.15 11.6 13.15l1.2 1.55Q60.95 59.05 68.25 74q4.75 9.75 8.6 20.55 3 7.9 4.55 18l.6 4.4q.9 7.8 1 16.85l-.4 12.25q-.4 7.3-2.05 12.2l-.3.75q-.85 2.25-2 4-4.05 6.05-11.65 5.15-5.7-.7-13.35-5.15l-.4-.2m7.85-16.3-.1-.1.15-.15-.05.25m3-72.3-.25-.2q-24.15-18.55-16.5-3.85l2 3.85q17.7 34.75 18.6 54.65 6.35 12.55 12.55-8.8-5.6-23.9-15.1-43.5l-.85-1.85-.45-.3" fill="url(#d)"/><path d="m60.75 146.6-.15.15.1-.25.05-.25-.05-.3.2.5-.15.15m-1.25-5.1.7 2.45-.9-.65.2-1.8M39.85 63.8l-4.05-4.75q-4.55-5.05-9-8.85l-1.75-1.9q4.8 3.9 10.2 9.85l4.6 5.65" fill="#fbd602"/><path d="M75.2 69.35 77.8 74q2.35 4.5 4.5 9.3l3.6 8.7q6.5 16.55 8.7 30.85 1.85 12.05.55 22.5-1.05 8.4-3.9 13.95l-.5.9-.95 1.55-.95 1.25q-2 2.45-4.5 3.95-3.15 2.3-7.2 3.05l-1.65.25q-2.7.25-5.5 0l-1.4-.25q-7.4-1.35-15.4-7l-.35-.2-2.75-2.1M0 45.05v-5.2l2.35-8.1Q3.5 29.2 5 27.15q4.2-5.6 11-6.9l.1-.05h.05l1.6-.2q2.75-.3 5.65.1 13.7 1.8 30.05 19.05 7 7.35 13 16.05l2.05 3.15 6.7 11" fill="none" stroke="#300" stroke-opacity=".361"/><path d="m29.4 38.85 9.75 3.2.6-2.6q.3-.9-3.95-5 3.8 1.95 7.35 4.65-13.7-14.35-13.8-2.05l.05 1.8" fill="#fbd602"/><path d="M60.2 50.35q14.1 16.2 23.45 40.4 9.3 24.3 8.4 42.5-.7 13.1-6.4 17.55l.7-7.75q.9-24-11.35-56.1Q64.65 60.1 50.25 40.8q4.75 3.5 9.95 9.55" fill="#bf660f"/><path d="M42.75 44.6q-1.4-1.65-3.9-1.9-2.5-.35-4.75.85-2.2 1.1-2.9 2.9-.65 1.95.7 3.55 1.35 1.55 3.9 1.9 2.5.3 4.75-.8 2.25-1.15 2.9-3.05t-.7-3.45" fill="#fbff9d"/></g><g id="i"><use transform="matrix(-1.2428 .01279 0 1 120.8 11.35)" filter="url(#f)" xlink:href="#g"/><use transform="matrix(-1.2428 .01279 0 1 118.95 -19.85)" xlink:href="#h"/></g><radialGradient id="a" cx="0" cy="0" r="819.2" gradientTransform="matrix(-.07028 .00871 .0671 .18408 186.15 101.35)" gradientUnits="userSpaceOnUse"><stop stop-color="#f2df00" offset=".4"/><stop stop-color="#fff3ce" offset=".455"/><stop stop-color="#f3ff0b" offset=".486"/><stop stop-color="#ecb700" offset="1"/></radialGradient><radialGradient id="d" cx="0" cy="0" r="819.2" gradientTransform="matrix(-.07027 .0087 .0671 .1841 35.7 95.05)" gradientUnits="userSpaceOnUse"><stop stop-color="#f2df00" offset=".4"/><stop stop-color="#fff3ce" offset=".455"/><stop stop-color="#f3ff0b" offset=".486"/><stop stop-color="#ecb700" offset="1"/></radialGradient><filter id="f"><feColorMatrix in="SourceGraphic" result="cxform" values="0.8203125 0.0 0.0 0.0 0.0 0.0 0.8203125 0.0 0.0 0.0 0.0 0.0 0.8203125 0.0 0.0 0.0 0.0 0.0 1.0 0.0"/><feComposite in2="SourceGraphic" operator="in" result="color-xform"/><feColorMatrix in="SourceGraphic" result="color-matrix" values="1.0 0.0 0.0 0.0 0.0 0.0 1.0 0.0 0.0 0.0 0.0 0.0 1.0 0.0 0.0 0.0 0.0 0.0 1.0 0.0"/></filter></defs><use transform="translate(244.95 162.15) scale(.50526)" xlink:href="#i"/></svg>