<svg width="40" height="41" viewBox="260.4 381.4 39.65 40.6" xmlns="http://www.w3.org/2000/svg" xmlns:xlink="http://www.w3.org/1999/xlink"><defs><radialGradient id="a" cx="0" cy="0" r="819.2" gradientTransform="matrix(.06772 -.00822 0 .05128 11.35 -17.9)" gradientUnits="userSpaceOnUse"><stop stop-color="#ffee69" stop-opacity=".8" offset="0"/><stop stop-color="#fef18a" stop-opacity="0" offset="1"/></radialGradient><radialGradient id="d" cx="0" cy="0" r="819.2" gradientTransform="scale(.04198)" gradientUnits="userSpaceOnUse"><stop stop-color="#52493f" offset=".522"/><stop stop-color="#747864" stop-opacity="0" offset="1"/></radialGradient><radialGradient id="e" cx="0" cy="0" r="819.2" gradientTransform="scale(.04198)" gradientUnits="userSpaceOnUse"><stop stop-color="#746136" stop-opacity=".702" offset=".522"/><stop stop-color="#878256" stop-opacity="0" offset="1"/></radialGradient><radialGradient id="f" cx="0" cy="0" r="819.2" gradientTransform="matrix(.05037 0 0 .05037 -.1 -.1)" gradientUnits="userSpaceOnUse"><stop stop-color="#666" offset=".522"/><stop stop-color="#221e00" stop-opacity="0" offset="1"/></radialGradient><radialGradient id="g" cx="0" cy="0" r="819.2" gradientTransform="scale(.04198)" gradientUnits="userSpaceOnUse"><stop stop-color="#666" offset=".522"/><stop stop-color="#221e00" stop-opacity="0" offset="1"/></radialGradient><filter id="i"><feColorMatrix in="SourceGraphic" result="cxform" values="1.0 0.0 0.0 0.0 0.0 0.0 1.0 0.0 0.0 0.0 0.0 0.0 1.0 0.0 0.0 0.0 0.0 0.0 0.37109375 0.0"/><feComposite in2="SourceGraphic" operator="in" result="color-xform"/></filter><filter id="l"><feColorMatrix in="SourceGraphic" result="cxform" values="1.0 0.0 0.0 0.0 0.0 0.0 1.0 0.0 0.0 0.0 0.0 0.0 1.0 0.0 0.0 0.0 0.0 0.0 0.55078125 0.0"/><feComposite in2="SourceGraphic" operator="in" result="color-xform"/></filter><filter id="n"><feColorMatrix in="SourceGraphic" result="cxform" values="1.0 0.0 0.0 0.0 0.0 0.0 1.0 0.0 0.0 0.0 0.0 0.0 1.0 0.0 0.0 0.0 0.0 0.0 0.46875 0.0"/><feComposite in2="SourceGraphic" operator="in" result="color-xform"/></filter><filter id="q"><feColorMatrix in="SourceGraphic" result="cxform" values="1.0 0.0 0.0 0.0 0.0 0.0 1.0 0.0 0.0 0.0 0.0 0.0 1.0 0.0 0.0 0.0 0.0 0.0 0.4609375 0.0"/><feComposite in2="SourceGraphic" operator="in" result="color-xform"/></filter><use xlink:href="#b" id="m"/><use xlink:href="#c" id="o"/><use xlink:href="#h" id="j"/><use transform="matrix(.94524 -.00002 0 .41374 -.4 -.85)" filter="url(#i)" xlink:href="#j" id="p"/><g id="k"><path d="m291.1 383.75.45-.1.45.8-.3.65.65-.15.7 1.4-.7.6-.8-2.05-2.2 2-1.3-1.1.75 1.65-.85-.6.4.9-1.05 1.45h-1.05l1.6.55.9-.55 1.05-.5 2.8-1.45 1.55-1.2.45.5 1.35 1.8.45.8.2 2.15-.9.55-.1-2.45-.2-.4-1.6 1.8-.85-.9.4 1.35-2.5 1.95-1.45.6 1.8 1 .55-.5 4.8-2.1 2 2.1v2.95l-.8.35-.15-2.65-1.6 1.1-1.35-1.1.9 1.55-.8-.45.4.9-3.25 1.9-.65 2.4 1.5-.4 4.15-1.95 2.55 3.75q.6 1.55.3 2.45l-1 .35v-.7l-.1-1.85-.25-.35-2.15 1.35v-1.65l-.75 2.15-.7-.6v1l-4.45 1.7-.05.05-.2.1-.3.25-14.5 9.3h-4.6l-1.4-1.95 1.55-.75v-2.8q1.6 1.7 3.45 2.25 1.4.45 3.05 0 1.75-.45 3.1-2.05l1.15-1.85.75-1.8.25-2.4-.25-1.9-.2-.75-.4-1-.05-.15V401q-1.9-5.15-4.35-6.35l-3.5-.35q-2.65.8-5.1 3.4-1.05 2.4-.75 4.25v.5l.05.65q1.2 5.15 1.2 6.3l-.05.1v.7q-.1 2-1.3 2.45-1.25.35-2.35-.8l-1.15-2.55q-1.65-3.35-3.9-6.5l-.1-.1 8.15-8.4 9.3-7.45 7.4-2.75 3.8-2.3.8-.4.85 1.1-.25.35-.2.3-.9 1.1 1.75-.5m-4.55 1.5-.45.15-.15.45.15.45.45.15.4-.15.2-.45-.2-.45q-.15-.15-.4-.15m-2.4 5.05q.25-.75-.2-1.2-1.05-.95-2.65.2-1.5.95-.75 2.25 1.55 1.2 2.8-.15l.8-1.1m3.1 3.7q-.05-.65-.65-1.15-1.25-.7-2.6 1.2-.8 1.8 0 2.4l.1.05q1 .75 2.5-.95l.65-1.55m5.6-3.35-.25-.4q-.1-.15-.3-.15t-.4.15q-.15.15-.15.4l.15.35.4.2.3-.2.25-.35m.5 5.8.1.15q.15.2.35.2l.35-.2.15-.15v-.15l-.15-.4-.35-.1-.35.1-.1.4v.15m2.35 6.5-.15-.35-.4-.15q-.2 0-.35.15l-.15.35.15.4.35.15.4-.15.15-.4m-6.1-2.9q.05-.55-.45-1.05-1.2-1.75-2.65.15-1.65 1.45-.75 2.7l.15.15.3.2q.4.2 1 0l1.2-.7q1.05-.75 1.2-1.45m1.25 5q.1-.55-.3-1.1-1.05-.5-2.95.85-1.7 1-1.3 2.2l.3.25q.4.25 1.25 0l1.5-.65q1.25-.75 1.5-1.55m-21.75 4.65-.5-.85q-.55-.55-1.35-.55-.75 0-1.3.55t-.55 1.35q0 .55.3 1.05l.25.25q.55.55 1.3.55.8 0 1.35-.55t.55-1.3l-.05-.5" fill="#333"/><path d="m290.45 382.85.65.9-1.75.5.9-1.1.2-.3m-3.9 2.4q.25 0 .4.15l.2.45-.2.45-.4.15-.45-.15-.15-.45.15-.45.45-.15m-2.4 5.05-.8 1.1q-1.25 1.35-2.8.15-.1-1.25 1.35-2.1 1.75-.95 2.25.85m3.1 3.7-.65 1.55q-1.5 1.7-2.5.95-.3-2.55 1.15-3.1 1.35-.55 2 .6m5.6-3.35-.25.35-.3.2-.4-.2-.15-.35q0-.25.15-.4.2-.15.4-.15t.3.15l.25.4m.5 5.8v-.15l.1-.4.35-.1.35.1.15.4v.15l-.15.15-.35.2q-.2 0-.35-.2l-.1-.15m2.35 6.5-.15.4-.4.15-.35-.15-.15-.4.15-.35q.15-.15.35-.15l.4.15.15.35m-9.8-.95q0-2.3 1.7-3.1.95-.5 2 1.15-.15.7-1.2 1.45l-1.2.7q-.6.2-1 0l-.3-.2m4.95 3.05q-.25.8-1.5 1.55l-1.5.65q-.85.25-1.25 0-.1-1.35 2.4-2.7 1.15-.45 1.85.5m-21 4.45-.25-1.8q-.85-2.9-1.05-5.5v-.4q.75-4.1 3.65-5.55 1.1-.65 2.1-.8 1.4-.2 2.85.65 1.2.75 2.25 2.3 1.3 1.95 1.95 3.8.9 2.65.5 5.05-.3 1.85-1.4 3.65-1.35 1.6-3.1 2.05-1.65.45-3.05 0-1.85-.55-3.45-2.25l-1-1.2"/><path d="M266.65 413.15q-.8-.4-1.1-1.3 1.1 1.15 2.35.8 1.2-.45 1.3-2.45v-.7l.05-.1q0-1.15-1.2-6.3l-.05-.65v-.5q.05-4.35 3.95-6.35 1.2-.85 2.35-1 1.5-.25 2.85.5l1.55 1.3.25.25q1.8 2.3 2.75 4.4l.05.15.4 1 .2.75.25 1.9-.25 2.4-.75 1.8-1.15 1.85q1.1-1.8 1.4-3.65.4-2.4-.5-5.05-.65-1.85-1.95-3.8-1.05-1.55-2.25-2.3-1.45-.85-2.85-.65-1 .15-2.1.8-2.9 1.45-3.65 5.55v.4q.2 2.6 1.05 5.5l.25 1.8q0 1.25-.5 2.4-.55 1.2-2.7 1.25m13.9-21.6q-.75-1.3.75-2.25 1.6-1.15 2.65-.2.45.45.2 1.2-.5-1.8-2.25-.85-1.45.85-1.35 2.1m3.55 4.95-.1-.05q-.8-.6 0-2.4 1.35-1.9 2.6-1.2.6.5.65 1.15-.65-1.15-2-.6-1.45.55-1.15 3.1m1.8 5.5-.15-.15q-.9-1.25.75-2.7 1.45-1.9 2.65-.15.5.5.45 1.05-1.05-1.65-2-1.15-1.7.8-1.7 3.1m.7 5.25-.3-.25q-.4-1.2 1.3-2.2 1.9-1.35 2.95-.85.4.55.3 1.1-.7-.95-1.85-.5-2.5 1.35-2.4 2.7" fill="#1a1a1a"/><path d="m292.35 386.95-2.55 1.75-1.05.5-.9.55-1.6-.55h1.05l1.05-1.45-.4-.9.85.6-.75-1.65 1.3 1.1 2.2-2 .8 2.05m3.35 4.9-3.95 2.45-.55.5-1.8-1 1.45-.6 2.5-1.95-.4-1.35.85.9 1.6-1.8.2.4.1 2.45m2.05 5.75-.85.25-4.15 3-1.5.4.65-2.4 3.25-1.9-.4-.9.8.45-.9-1.55 1.35 1.1 1.6-1.1.15 2.65m1 7.85q-2.2.85-4.15 1.8-3.05 1.55-5.4 3.35-2.55 2.15-5.15 3.65l-1.9 1-4.15 2.95v-2h-2.7l14.5-9.3.3-.25.2-.1.05-.05 4.45-1.7v-1l.7.6.75-2.15v1.65l2.15-1.35.25.35.1 1.85v.7M270.7 416.2h-2.15l-1.9-3.05q2.15-.05 2.7-1.25.5-1.15.5-2.4l1 1.2v2.8l-1.55.75 1.4 1.95m11-15.15q-.95-2.1-2.75-4.4l-.25-.25-1.55-1.3q-1.35-.75-2.85-.5-1.15.15-2.35 1-3.9 2-3.95 6.35-.3-1.85.75-4.25 2.45-2.6 5.1-3.4l3.5.35q2.45 1.2 4.35 6.35v.05" fill="#262626"/><path d="M265.7 411.25q-.3-.5-.3-1.05 0-.8.55-1.35t1.3-.55q.8 0 1.35.55l.5.85q-1.15 1.9-2.95.15-.85.45-.45 1.4" fill="#d9be23"/><path d="m269.1 409.7.05.5q0 .75-.55 1.3t-1.35.55q-.75 0-1.3-.55l-.25-.25q-.4-.95.45-1.4 1.8 1.75 2.95-.15" fill="#978418"/><path d="m291.1 383.75.45-.1.45.8-.3.65.65-.15.7 1.4-.7.6-2.55 1.75 2.8-1.45 1.55-1.2.45.5 1.35 1.8.45.8.2 2.15-.9.55-3.95 2.45 4.8-2.1 2 2.1v2.95l-.8.35-.85.25-4.15 3 4.15-1.95 2.55 3.75q.6 1.55.3 2.45l-1 .35q-2.2.85-4.15 1.8-3.05 1.55-5.4 3.35-2.55 2.15-5.15 3.65l-1.9 1-4.15 2.95m-9.45-2-1.9-3.05q-.8-.4-1.1-1.3l-1.15-2.55q-1.65-3.35-3.9-6.5l-.1-.1 8.15-8.4 9.3-7.45 7.4-2.75 3.8-2.3.8-.4.85 1.1-.25.35.65.9-1.75.5.9-1.1.2-.3m-3.9 2.4q.25 0 .4.15l.2.45-.2.45-.4.15-.45-.15-.15-.45.15-.45.45-.15m-6 6.3q-.75-1.3.75-2.25 1.6-1.15 2.65-.2.45.45.2 1.2l-.8 1.1q-1.25 1.35-2.8.15-.1-1.25 1.35-2.1 1.75-.95 2.25.85m4.6-1.1 1.05-.5M268 401.95q.05-4.35 3.95-6.35 1.2-.85 2.35-1 1.5-.25 2.85.5l1.55 1.3.25.25q1.8 2.3 2.75 4.4m-13.7.9v.5l.05.65q1.2 5.15 1.2 6.3l-.05.1v.7q-.1 2-1.3 2.45-1.25.35-2.35-.8m18.55-15.35-.1-.05q-.8-.6 0-2.4 1.35-1.9 2.6-1.2.6.5.65 1.15l-.65 1.55q-1.5 1.7-2.5.95-.3-2.55 1.15-3.1 1.35-.55 2 .6m5.6-3.35-.25.35-.3.2-.4-.2-.15-.35q0-.25.15-.4.2-.15.4-.15t.3.15l.25.4m.5 5.8v-.15l.1-.4.35-.1.35.1.15.4v.15l-.15.15-.35.2q-.2 0-.35-.2l-.1-.15m2.35 6.5-.15.4-.4.15-.35-.15-.15-.4.15-.35q.15-.15.35-.15l.4.15.15.35m-6.1-2.9q.05-.55-.45-1.05-1.2-1.75-2.65.15-1.65 1.45-.75 2.7l.15.15q0-2.3 1.7-3.1.95-.5 2 1.15-.15.7-1.2 1.45l-1.2.7q-.6.2-1 0l-.3-.2m.7 5.25-.3-.25q-.4-1.2 1.3-2.2 1.9-1.35 2.95-.85.4.55.3 1.1-.25.8-1.5 1.55l-1.5.65q-.85.25-1.25 0-.1-1.35 2.4-2.7 1.15-.45 1.85.5m7.9-.3v.7m-28.9 4.05-.25-1.8q-.85-2.9-1.05-5.5v-.4q.75-4.1 3.65-5.55 1.1-.65 2.1-.8 1.4-.2 2.85.65 1.2.75 2.25 2.3 1.3 1.95 1.95 3.8.9 2.65.5 5.05-.3 1.85-1.4 3.65l1.15-1.85.75-1.8.25-2.4-.25-1.9-.2-.75-.4-1-.05-.15m-1.25 9.85q-1.35 1.6-3.1 2.05-1.65.45-3.05 0-1.85-.55-3.45-2.25l-1-1.2q0 1.25-.5 2.4-.55 1.2-2.7 1.25" fill="none" stroke="#fff" stroke-opacity=".322" stroke-width=".5"/><path d="M297.6 395.6v-1m-7.35-11.45-.7-.75m-5.65 6.05-.95-.25m1.75 1.95q.15-.6-.05-1m-4.35.4-.5.75m2.1-1.8q-.4.15-.85.5m-1.25 2.35.2.65.9.5m3.6.15-.8.9m2.7-1.6-1 .1m.65 4.7.95-1m-3.95-.05q0 .65.3 1.05m.3-4.95.6-.75m-.7 2.7-.35.95m-1.3-2 1-.35m12.7-2.5v-.45l-.2-.4m-.8-1.1-.65-.7m-1.6-.25-.4-.95m4.95 7.9-.75-.7m-.45-1.35v-1m-4.15-5.95-.3-.75m-3.45 9.15-.5-.85m.05 2.8.4-.95m8.2 5.05.6.8m-8.8-2.7 1 .05m.05 4.4-.4.3-.3.2m1.7-3.95.45.6m.1 1.05-.5.9m2 6.85-.85.55m-1.75-1.25.55-.25m-.3-3.65q-.4.15-.9.45m2.95 1.6.3-1m-1.5 2.2.55-.5m4 .2-.9.45m2.9-1.25-1 .4m-4.5-2.55-.9-.2m-4.25-4.3.6-.75m-1.9 2.35.55-.8m-.25 2.65-.4-.85m2.35 1.5-.95.05m-2.1-5.6 1.05-.05m.8 8.3q-.35.45-.4.95m.05.85q.25.35.7.45m-6.85 7.9-.9.65m2.6-1.75-.9.6m3.1-1.95-.9.6m2.6-1.65-.9.55m2.5-1.55-.8.5m2.5-1.5-.9.5m2.75-1.8-.8.6m-2.05-1.7 1-.25m-.95-3.15-.7.45m12.6-.3-1.5.5m.95-.65-.05.35m-.35-2.2.25.35.1.55m-1.6-2.5.6.8m0-4.15-.05-1" fill="none" stroke="#fff" stroke-opacity=".502" stroke-width=".5"/><path d="M275.3 416.2h2.7v2l-5.9 3.8-3.55-5.8h2.15l1.45 2 3.15-2" fill="#262626"/><path d="M270.7 416.2h4.6l-3.15 2-1.45-2" fill="#333"/><path d="m278 418.2-5.9 3.8-3.55-5.8" fill="none" stroke="#fff" stroke-opacity=".322" stroke-width=".5"/><path d="m273.25 420.15-.85.5m2.4-1.6-.75.5m2.35-1.7-.8.6m2.4-1.7-.8.5" fill="none" stroke="#fff" stroke-opacity=".502" stroke-width=".5"/><path d="m291.55 383.65.45.8-.3.65.65-.15.7 1.4-.7.6-2.55 1.75 2.8-1.45 1.55-1.2 1.8 2.3.45.8.2 2.15-4.85 3 4.8-2.1 2 2.1v2.95l-.8.35-.85.25-4.15 3 4.15-1.95 2.55 3.75q.6 1.55.3 2.45l-1 .35q-2.2.85-4.15 1.8-3.05 1.55-5.4 3.35-2.55 2.15-5.15 3.65l-1.9 1q-4.1 3.1-10.05 6.75l-5.45-8.85q-.8-.4-1.1-1.3-1.95-4.75-5.05-9.05l-.1-.1 8.15-8.4 9.3-7.45 7.4-2.75 3.8-2.3.8-.4.85 1.1-.25.35.65.9.45-.1" fill="none" stroke="#242631" stroke-opacity=".502"/></g><g id="c" fill-opacity=".102"><path d="M3.75.75 5.15 0Q3.8 1.05 3.25 1.3q-1.9.9-3.2.9 2.3-.7 3.7-1.45M6.45.2l-2.2 1.4-2.9.9q1.4-.35 5.1-2.3M5.7 1.35l1.75-1-1.6 1.15Q3.4 2.65 2.35 2.7q.7-.35 3.35-1.35"/><path d="M3.05 2.4q2.1.6 2.6 1.35-2-.95-3.6-1.35L.4 1.95l2.65.45m.05-.7q1.35.4 2.45 1.2-1.1-.65-5.4-1.7l2.95.5M0 .55l2.25.3q2.7.8 3.2 1.4-.75-.3-3.3-1.25L0 .55"/></g><g id="h"><path d="m5.5-21.3-1.4-1.3.65-.75 3.75.8-.3.15-2.7 1.1" fill="url(#d)"/><path d="m-21.65-9.35-2.2 2.1-.2.1-.3-2.1-1.6-.55-2.05-.7.05-1.5 3.85-1.25.25.35-1.3.9 1.2 1.25 1.25-.1 1.05 1.5M7.6-21.25l.05.15-.1-.1.05-.05" fill="url(#e)"/><path d="m5.5-21.3.5.5-.2.85.7.4-1.8 1.75 2.85 1.15v-1.55l2.75-.85-.8-1.15 1.05-1-2.05-1.35-1.15-.75 1.6-2.25.15.1 4.5-1.5-1.4-2.45 4.15-.25 1.85-4.2 2.25.2 1.55 1.5 4.35.45.6 6.95-2.55 1.5-.45 3.7 3.1 1.45 4.7-3.7L36-19.75l1.4 4.2-1.3 2.75-2.2 1.15-.4-.15v-2.3l-1.9.85v2.1l.45.45-1 .5-1.25 2.65 2.6 3.25 4.5-.9L38-3.25l-.3 2.15-1.45-1.65L34.9-1.2 36.05.25 35 4.15l2.05 4.15-2.75 2.05-.05.05-1.9-1.65-2.75 1.1v3.45l4.2 2.7-.05 4.7-2.5 3.1H28.9l-1.55-1.55 2.1-1.75-.75-.8-2.1.45-.75-1.2-.9 1.35H23.5l-.3-1.35 2.65-2.1-.65-1.35-1.95.9-.8-1.3-3.35 3.15-.7 1.6 2.1-.45.05 2.35 1.65 1.1-.45 1.2 2.1 3.7-1 1.8-1.6.65-2.1 3.65 1 2.2H10.7l3.05 3.05H8.2l-2.9-1.85.3.25-2.05 2.2-1.75-3.05-4.55 1.5-.35-1.05 1.4-.7-5.25-1.1 1.05-1.5-.05-.15 2.55-1.15-1.4-1.5 1.55-1.2 2.85 2.35 1.4-2.1-1.35-1.65.85-1.2-.3-.45 2.1-1.45 4.05.8-1.6-5.7 1.05-.7-1.1-5.65-2.75-2.1-2.05 1.9 2.55 1.8L1 19l-1.1-.95-2.2 3.15 2.2 1.35-1.2 2.5-2.5.35v1.85l.6.65-1.75 1.75-.8-1.7H-7.6v2.9l.5.7-2.1 1.4-.95-2.35-3.45.25-.7 1.8-2.8.85-4.85-3.7 1.05-1.25-1.1-1 1-1.5-.25-2.9-3.85-1.5-.1.05-3.4 2.95-1.9-1.15-1.4-3.4 1.2-2.45-1-3.9 1.1-1.45-1.3-1.55-.1-.1-1.15-1.45h1.25l2.25-3-1.95-2.8-5.55.75 1.35-2.7-1-3.9 1.1-1.45-1.3-1.55.2-.3 5.7.3 1.3-.9.45 1.3 2-1.15.9 1.5 2.6-2.55 2.2-2.1 1.2-1.15-.05-2.15-1 .9-.6-1.05-1.2.3-.55-2.2-2.05-1.2-1.25.7-1.15-.7-.45.3-.3-.4v-3.4l-.1-.2 1.75-.85 2.9 1.95 2.8-2.3 2.7 2.7 3.6-5.6-2.4-1 1.8-2.05-.3-1.35.85-1-2.4-3.1.85-1.75-2.9-.2 1.35-1.35 2.2.3 2-3.6 2.65.35-.5.55 3.15 2.85-1.1 1.25 4.85 3.7 3.45-1.05.85 2.45 4.65-2.25-.4 1.15h1L2.6-26.1l1.7 1.15-1.15 1.4.95.95 1.4 1.3m11.95-7.5-1.95.85v2.1l1.95 1.9 1.65-1.9-1.65-.65v-2.3m6.3 18.65-1.95.85v2.15l1.95 1.85 1.65-1.85-1.65-.7v-2.3m-1.35-8.7v-2.25l-1.9.8v2.15l1.95 1.85 1.65-1.85-1.7-.7M19.95-1.4v.75l-1.9 1.9-1-1.3-1.25 1.2v2.4l1.2.7v1.4l2.2.95.6-2-.9-1.2L20.5.1h2.05l-1.4-1.05-1.2-.45M3.7-19.1H1.85v2.85l2 .75 1-1.9-1.15-1.7M20.75-5.65l-.85 1.4 3.25 1.15-2.4-2.55m3.45 3.6L23.95.1l-1.4 1.05v.5l1.4 3.65h3.3l.4.95 3.95-2-6-1.75 1.3-1.4-1.95-1.15.8-1.55-1.55-.45m-41.4 25.3h-1.85v2.85l2.05.75 1-1.9-1.2-1.7m8.85-15.4v2.85l2 .75 1-1.9-1.15-1.7h-1.85M-23.8-2.9v2.85l2.05.75 1-1.9-1.2-1.7h-1.85m3.35-7.55v2.85l2.05.75 1-1.9-1.15-1.7h-1.9m9.95 31.4 1.1 2.1 2.4-1.5.85 1.5 2.95-1.55-1.05-1.65-2.1.35-.45-3.75-.35-.15.4-1.45-3.1-.65-2.8 3.85.85 3.15 1.3-.25m21.9-7.05-.4-1.95-3.9 2.95 1.05 1.4V18l2.65 3.25 3.05-.95.35.25-.6 2.15 1.95 1.1 2.25-2-.9-1.5-.45-.9-1.95-.45 1.3-1.2-1.75-1.6-.05.1-.35-.2-1.9-.5-.3-1.4-.05-.25m-31.25-1.5-.2-.25-.85.55.1.2.95-.5" fill="url(#f)"/><path d="m11.4 13.9.05.25-.15.3.1-.55" fill="url(#g)"/></g><path d="M38.15 14.8q-11.95 6.7-26.8 8.5l-9.6.6L.1 21.4l-.1-.1 8.15-8.4 9.3-7.45 7.4-2.75 3.8-2.3.8-.4.85 1.1-.25.35.65.9.45-.1.45.8-.3.65.65-.15.7 1.4-.7.6L29.4 7.3l2.8-1.45 1.55-1.2 1.8 2.3.45.8.2 2.15-4.85 3 4.8-2.1 2 2.1v1.9" fill="url(#a)" id="b"/></defs><use xlink:href="#k"/><use transform="translate(260.4 381.4)" filter="url(#l)" xlink:href="#m"/><use transform="scale(-.94447 .94447) rotate(-30 656.426 745.305)" filter="url(#n)" xlink:href="#o"/><use transform="matrix(-.00716 -.10709 .30937 -.02068 274.9 415.25)" xlink:href="#p"/><use transform="matrix(.10022 .21466 -.82663 .63347 281.9 407.05)" xlink:href="#p"/><use transform="matrix(.09724 .20828 -.82663 .63347 283.15 401.85)" filter="url(#q)" xlink:href="#p"/></svg>