<svg width="230" height="234" viewBox="164.31 283.45 230.07 234.09" xmlns="http://www.w3.org/2000/svg" xmlns:xlink="http://www.w3.org/1999/xlink"><defs><g id="b"><path d="M-18.2 12.1q6.1-17.95 6.15-30.15Q-3.6-26.6 21.3-32.1l2.4 15.5q-1 9.35-9.95 32.5l-1.25 1.35v.05l-4.75 2.55q-4.5 2.25-8.5.4L-12.3 14.9l-5.9-2.8" fill="#b07146"/><path d="m-18.2 12.1 5.9 2.8 11.55 5.35q4 1.85 8.5-.4l4.75-2.55Q5.7 24.4-5.1 31.6q-17.35 2.35-18.55-5.2 3.15-7.55 5.45-14.3" fill="#593a1f"/><path d="M12.5 17.3v-.05l1.25-1.35Q22.7-7.25 23.7-16.6l-2.4-15.5q-24.9 5.5-33.35 14.05-.05 12.2-6.15 30.15m30.7 5.2Q5.7 24.4-5.1 31.6q-17.35 2.35-18.55-5.2 3.15-7.55 5.45-14.3" fill="none" stroke="#42301e" stroke-width="1.5"/></g><g id="c"><path d="M39.15 41.65q-6.55 2.8-12.95 1.1 2.15-8 3.5-15.6.15 1.45 1.15 3.45 1.85 3.7 4.3 6.6l4 4.45" fill="#9e6837"/><path d="M-9.6 36.75q-19.45-5.2-30.6-14.25l-11.25-57.15 8.8-8.65q28.1-.7 66.8 8.6Q30.9-33.1 43.8-29l6.95 18.6q2.9 25.5-5.55 48.45-3.05 2.3-6.05 3.6l-4-4.45q-2.45-2.9-4.3-6.6-1-2-1.15-3.45l.05-.4-.1-.25Q22.95 8.3 20.4 8.05L8.05 6.85-5.4 5.9l-.8.05-.15.15-.25.2-.3-.05q.3 1.55.3 8.85 0 5-2.2 16.9l-.8 4.75M24.15-34.7q8.5 18.7 5.7 59.75v.45l-.1 1.2v.05-.05l.1-1.2v-.45q2.8-41.05-5.7-59.75m5.7 61-.1.4.1-.4.05-.35.05-.3-.1-.6.1.6-.05.3-.05.35-.1.45.1-.45" fill="#664222"/><path d="M26.2 42.75q-22.3-2.4-35.8-6l.8-4.75q2.2-11.9 2.2-16.9 0-7.3-.3-8.85l.3.05.25-.2.15-.15.8-.05 13.45.95 12.35 1.2q2.55.25 9.25 18.45l.1.25-.05.4q-1.35 7.6-3.5 15.6" fill="#9e6637"/><path d="M-9.6 36.75q-19.45-5.2-30.6-14.25l-11.25-57.15 8.8-8.65q28.1-.7 66.8 8.6Q30.9-33.1 43.8-29l6.95 18.6q2.9 25.5-5.55 48.45-3.05 2.3-6.05 3.6-6.55 2.8-12.95 1.1-22.3-2.4-35.8-6m39.35-10v-.05l.1-1.2v-.45q2.8-41.05-5.7-59.75m5.6 61.45-.05.4q-1.35 7.6-3.5 15.6m3.65-17.7.1.6-.05.3-.05.35-.1.45m0-.05.1-.4" fill="none" stroke="#42301e" stroke-width="1.5"/><path d="M23.5 24.8q1.25-1.5 3.25-2 3.05 1.35 5.3 4.3-.35 1.6-1.9 3-2.15-2.55-6.65-5.3"/></g><g id="d"><path d="m-22.85 28.7-.15-.4q.95-28.2 5.45-53.8l.3-.4q4.05-1.2 8.2-.75Q-1.8-25.3 5.4-20.1q7.2 5.15 9.15 9.9-3.9 5-7.3 13.4-3.4 8.35-4.25 9.45-.9 1.05-1.25-2.85Q.5 16 .35 21.75q-.2 5.7.4 8.95-3.45 1.5-7.7 2.05-4.3.55-6.45.05l-2.05-.9-2.2-1-5.2-2.2m13.8-55.35q-4.05 11.9-5.55 25.4-2.4 20.9 1.2 34.05-3.6-13.15-1.2-34.05 1.5-13.5 5.55-25.4" fill="#b07146"/><path d="M-17.25-25.9Q-9-38.65-4.4-44.85 0-45.7 3.7-45q17.95 3.3 19.25 42.8L23 2.25Q11.75 15.2 8.4 25.8q1.75 2.9 1 9.25-6.95 9.45-12.1 10.3l-1.9-.8-1.05-.45Q-19 38-22.85 28.7l5.2 2.2 2.2 1 2.05.9q2.15.5 6.45-.05 4.25-.55 7.7-2.05-.6-3.25-.4-8.95Q.5 16 1.75 9.8 2.1 13.7 3 12.65q.85-1.1 4.25-9.45 3.4-8.4 7.3-13.4-1.95-4.75-9.15-9.9-7.2-5.2-14.45-6.55-4.15-.45-8.2.75M7.4 30.9q.35-3.3 1-5.1-.65 1.8-1 5.1M3.7-45Q-5-38.85-9.05-26.65-5-38.85 3.7-45m-9.35 89.1q-5.3-3.35-7.75-11.3 2.45 7.95 7.75 11.3" fill="#6e4726"/><path d="m-22.85 28.7-.15-.4q.95-28.2 5.45-53.8l.3-.4Q-9-38.65-4.4-44.85 0-45.7 3.7-45q17.95 3.3 19.25 42.8L23 2.25Q11.75 15.2 8.4 25.8q1.75 2.9 1 9.25-6.95 9.45-12.1 10.3l-1.9-.8-1.05-.45Q-19 38-22.85 28.7" fill="none" stroke="#42301e" stroke-width="1.5"/><path d="M-13.4 32.8Q-17 19.65-14.6-1.25q1.5-13.5 5.55-25.4Q-5-38.85 3.7-45m-17.1 77.8q2.45 7.95 7.75 11.3M8.4 25.8q-.65 1.8-1 5.1" fill="none" stroke="#422f1d" stroke-opacity=".502" stroke-width="1.5"/><path d="M-14.75 32.2q3.1 1.4 6.95 1.45.4 2.3 0 3.6-3.45-.35-6.95-2.1-.65-1.45 0-2.95M-11.6 13.25q-2.95 1.7-5.2 4.75-2.15-1-2.95-2.1 2.3-2.6 5.75-4.35 1.6.3 2.4 1.7M-7.8-17.2l-6.95.35q-.6-2.65-.35-4.3l7.05.4q.7 1.55.25 3.55M-4.95-25.6q-4.55-1.45-7.35-1.45l.05-2.5 7.05.4q.7 1.55.25 3.55"/></g><g id="e"><path d="M-4.9-26.95q16.4-1.7 34.55 3.2 4.8 1.25 5.9 4.4L26.75-1.5Q18.6 7.05 11 13.85q-2.8 2.2-8.65 3.65-8.25-.15-12.2-3.8-4-3.7-3.95-4.55 2.25-6.25 4.4-14.9 2.65-10.4 4.5-21.2m34.55 3.2Q27.5-16.4 15.3 6.45L2.35 17.5 15.3 6.45q12.2-22.85 14.35-30.2" fill="#b07146"/><path d="M11 13.85Q4.7 19.4-1.2 23.8q-4.3 2.1-9.65 2.95-8 1.35-18.35-.05-7.8-5.3-6.05-14.45l14.5-14.5Q-15.7-14.2-14.7-25.3q4.8-1.15 9.8-1.65-1.85 10.8-4.5 21.2-2.15 8.65-4.4 14.9-.05.85 3.95 4.55 3.95 3.65 12.2 3.8Q8.2 16.05 11 13.85M-22.7 2.2q1.1-2.25 1.95-4.45-.85 2.2-1.95 4.45M2.35 17.5q-6.15 5.1-13.2 9.25 7.05-4.15 13.2-9.25" fill="#593a1f"/><path d="M29.65-23.75q4.8 1.25 5.9 4.4L26.75-1.5Q18.6 7.05 11 13.85 4.7 19.4-1.2 23.8q-4.3 2.1-9.65 2.95-8 1.35-18.35-.05-7.8-5.3-6.05-14.45l14.5-14.5q-.85 2.2-1.95 4.45" fill="none" stroke="#42301e" stroke-width="1.5"/><path d="M-4.9-26.95q16.4-1.7 34.55 3.2m-50.4 21.5Q-15.7-14.2-14.7-25.3q4.8-1.15 9.8-1.65-1.85 10.8-4.5 21.2-2.15 8.65-4.4 14.9-.05.85 3.95 4.55 3.95 3.65 12.2 3.8L15.3 6.45q12.2-22.85 14.35-30.2m-40.5 50.5q7.05-4.15 13.2-9.25" fill="none" stroke="#422f1d" stroke-opacity=".502" stroke-width="1.5"/><path d="M21.15-14.05q3.25-.15 6.6-2.2 1.25 2.4 1.45 4.05-3.15 1.5-6.9 1.5-1.1-1.3-1.15-3.35M19.4 3.3q-.65 1.85-2.3 3.1-3.3-.1-6.5-2-.35-1.65.65-3.5 2.9 1.55 8.15 2.4M12 12.1q-1.15 1.6-3 2.4-3.2-.95-5.8-3.6.1-1.7 1.55-3.25Q7.15 9.9 12 12.1M-3.2 22.6q-.55 1.2-1.95 2.05-2.85-.05-5.6-1.3-.3-1.1.55-2.3 2.5 1 7 1.55M32.75-18.95q.9-1.8.6-3.8-2.4-2.3-6-3.2-1.4.9-2.05 2.95 3.15.95 7.45 4.05"/></g><g id="f"><path d="M-8 6.25Q-7.45 3.6-5.9.7q1.7-3.2 5.35-7.55 3.6-4.45 6.7-5.7l2.9-.6.3 2.05.3 4.55q0 9.4-1 17.35l-.55 3.75-.55 2.9v.05l-1.1-1.35-1.2-1.25-.35-.35-11-7.45-1.9-.85" fill="#b0936b"/><path d="m4.75-24.15 1.05-1.3-.75.95-.3.35M15.1-12.9l-.15 4.4v.25L14.8-4.3v.5l-1.05 14.35-.5 4-.1.65-3.5 10.3-.35.15-2.3-3.9-.5-.7-.15-.15-.8-1.05-5.6-5.3q-3.6-2.7-8.25-4.85h-.05Q-8.4 8-8 6.25l1.9.85 11 7.45.35.35 1.2 1.25 1.1 1.35.2.2.15.2 1 1.35.9-4.7.45-2.65.15-1.05L12.05-4.2l.05-.95.05-1 .1-1.05.05-1.3.25-4.75 2.15.15.4.2m-24 22.35-1.45-.65.4.15q.55.2 1.05.5m-4.25-8.9 3.6-5.45-.85 1.2-1.9 2.9-.85 1.35M6.5 21.05l.1.15.4.55-.4-.55-.1-.15M10 21l-1.1-1.75L10 21m-4.45-1.15.65.8.15.25-.15-.25-.65-.8" fill="#806035"/><path d="M-8 6.25Q-8.55 6-9.05 5.8l-.15-.1-.4-.15-2.55-.95 1.45-2.5.5-.85.85-1.45q8.05-13.7 14.5-21.45l.15-.15.95-1.15q5.65 1.7 6.4 6.25l-.05 2.85-.05.6-.25 4.75-.05 1.3-.1 1.05-.05 1-.05.95-1.65 15.05-.15 1.05-.45 2.65-.9 4.7-1-1.35-.15-.2-.2-.2v-.05l.55-2.9.55-3.75q1-7.95 1-17.35l-.3-4.55-.3-2.05-2.9.6q-3.1 1.25-6.7 5.7Q-4.2-2.5-5.9.7-7.45 3.6-8 6.25" fill="#856f51"/><path d="m5.8-25.45.1-.2q8 .65 9.3 8.45l-.1 4.3-.4-.2-2.15-.15.05-.6.05-2.85q-.75-4.55-6.4-6.25L5.3-21.8l-.15.15Q-1.3-13.9-9.35-.2l-.85 1.45-.5.85-1.45 2.5 2.55.95.4.15.15.1q.5.2 1.05.45Q-8.4 8-8.35 9.7l-.55-.25q-.5-.3-1.05-.5l-.4-.15-.9-.35-3.55-1.3q-.75.5-.3-2.35l.05-.15.1-.5.05-.05v-.05l.15-.35v-.1l1.6-3.05.85-1.35 1.9-2.9.85-1.2 2.9-4.1.1-.1.05-.1 1.25-1.65.35-.5 6.65-8.85 2.8-3.7.2-.25.3-.35.75-.95" fill="#614928"/><path d="m4.75-24.15 1.05-1.3.1-.2q8 .65 9.3 8.45l-.1 4.3-.15 4.4v.25L14.8-4.3v.5l-1.05 14.35-.5 4-.1.65-3.5 10.3-.35.15-2.3-3.9-.5-.7-.15-.15-.8-1.05-5.6-5.3q-3.6-2.7-8.25-4.85h-.05l-.55-.25-1.45-.65-.9-.35-3.55-1.3q-.75.5-.3-2.35l.05-.15.1-.5.05-.05v-.05l.15-.35v-.1l1.6-3.05 3.6-5.45 2.9-4.1.1-.1.05-.1 1.25-1.65.35-.5 6.65-8.85 2.8-3.7.2-.25.3-.35.75-.95M-8 6.25Q-8.55 6-9.05 5.8l-.15-.1-.4-.15-2.55-.95 1.45-2.5.5-.85.85-1.45q8.05-13.7 14.5-21.45l.15-.15.95-1.15q5.65 1.7 6.4 6.25l-.05 2.85-.05.6M7.75 17.7l.15.2 1 1.35.9-4.7.45-2.65.15-1.05L12.05-4.2l.05-.95.05-1 .1-1.05.05-1.3.25-4.75M-9.55-4.9l-.85 1.2-1.9 2.9-.85 1.35M-8 6.25l1.9.85 11 7.45.35.35 1.2 1.25 1.1 1.35m-17.9-8.7.4.15q.55.2 1.05.5M6.35 20.9l-.15-.25-.65-.8m3.35-.6L10 21m-3 .75-.4-.55-.1-.15" fill="none" stroke="#42301e" stroke-width="1.5"/></g><g id="g"><path d="m-4.5-19.55.25-.6.05-.1 1.5-2.95.35-.6.3-.6.5-.7.45-.7.05-.1Q1.6-29.6 4-29.4q1.5.1 2.85 1.45l.1-.05 1.4 2.05 1.65 3.9-1.65-3.9q1.1 1.9 2.1 4.8l-.35-.75-.1-.15-.6-1.05q-1.85-2.8-4.05-2.95-1.9-.15-3.95 2.35l-2.15 3.35-.85 1.6-.65 1.3-1 2.5-.8 2.6-.2.85-.05.05v.05l-3.4-.2-.1-.75q-1.2-7.5-3.25-4l-.75 1.55-.5 1.25-.4 1.2-1 4q-.7 4.45 1.6 5.4l6.35.45v.1l.1 4.8q.5 10 3.6 16.15l.8 1.45q3.9 6.4 7.6 6.2 2-.15 3.55-1.95l.45-.55.4-.55v-.1l.3-.5.2-.4.15-.4h.05q-.9 3.5-2.4 5.5L8.4 28l-2.35 1.35q-5.3 1-10.15-7.3Q-7.2 16.7-7.95 9q-.5-4.15-.25-8.95L-13-.2q-2.9-.25-3.55-2l.05-5.35.1-.8.85-4 .2-.75-.2.75-.85 4-.1.8q.25-2.8 1.15-5.55l.15-.45 2.3-5.2.45-.8q2.75-3.3 4.7-.05l.45.85q.75 1.55 1.35 4.15v.1l.1-.75-.1.75v-.1l.1-.65 1-3.5.35-.8-.45 1.15.45-1.15" fill="#2b0000"/><path d="M-3.15-3.2Q-9.8-3.6-9.8-5.5q0-.7 1.2-1.6 1.5-1.2 3.75-1.25h.7l3.05.15h.05l.05.4q-.25 1.8-.8 2.95l-.25.4q-.45.8-1.1 1.25" fill="#e0c7a1"/><path d="m11.5-18.6.75.9 1.6 2.4q1.4 2.2 2.1 6.95l.6 7.55q.15 4.15-.05 7.4v.1h-.05l-.15-.05-1.5.2q-1.35 0-3.95-2.8T6.25 1.6q-2.05.3-.85 5.5 1.1 5.2 3.05 6.95 1.9 1.75 5.55 2.25l-.3.65-.55 1.1h-.05Q1.75 18.3 2.8-8.35l.05-.8.55-3.2q.7-3.2 1.55-5.15v-.1l.6-1.15.4-.6.45-.5q2.05-2.2 4.95 1.05l.05.05.1.15m1.05 37.65-.4.65v-.1l.4-.55" fill="#d4c7ad"/><path d="M11.45 21.75h-.05l-.15.4-.2.4-.3.5v.1q-3.4 1.35-8.3-3-5.9-8.1-5.6-23.25v-.1q.65-.45 1.1-1.25l.25-.4Q-1.25-6-1-7.8l-.05-.4v-.15L-1.3-9.4q.25-1.25 1.4-2.95l.4-.55 2.1-2.55 1-1 1.35-1.05q-.85 1.95-1.55 5.15l-.55 3.2-.15.8Q2.15-4.5 1.75.6q1.65 22.75 9.1 19.7l1.3-.7v.1l-.7 1.95v.1M-4.3-11.4v-.05l.05-.05v.1h-.05" fill="#c22020"/><path d="m-5.75-2.5-6.35-.45q-2.3-.95-1.6-5.4l1-4 .4-1.2.5-1.25.75-1.55q2.05-3.5 3.25 4l.1.75 3.4.2H-3.9q1.15 0 1.85.7.5.45.75 1.3l.25 1.05v.15h-.05l-3.05-.15h-.7Q-7.1-8.3-8.6-7.1q-1.2.9-1.2 1.6 0 1.9 6.65 2.3-.95.65-2.2.7h-.4m-1.85-8-.1-1v-.1.1l.1 1" fill="#9c8566"/><path d="m10.75 23.15-.4.55-.45.55q-1.55 1.8-3.55 1.95-3.7.2-7.6-6.2l-.8-1.45q-3.1-6.15-3.6-16.15l-.1-4.8v-.1h.4q1.25-.05 2.2-.7v.1q-.3 15.15 5.6 23.25 4.9 4.35 8.3 3m-15-34.65.2-.85.8-2.6 1-2.5.65-1.3.85-1.6L1.4-23.7q2.05-2.5 3.95-2.35 2.2.15 4.05 2.95l.6 1.05.1.15.35.75.1.2.1.25.1.15v.05l.05.1v.05l.05.1.05.05v.05l.55 1.4.05.15-.1-.15-.05-.05q-2.9-3.25-4.95-1.05l-.45.5-.4.6-.6 1.15v.1L3.6-16.45l-1 1L.5-12.9l-.4.55q-1.15 1.7-1.4 2.95-.25-.85-.75-1.3-.7-.7-1.85-.7h-.35v-.1" fill="#540505"/><path d="m16.5 6.7-.6 4.5-1.05 3.3-.05.1-.8 1.7q-3.65-.5-5.55-2.25Q6.5 12.3 5.4 7.1q-1.2-5.2.85-5.5 2-.35 4.6 2.45t3.95 2.8l1.5-.2.15.05h.05m-3.35 11.35-.6 1-.4.55-1.3.7Q3.4 23.35 1.75.6q.4-5.1.95-8.95l.15-.8-.05.8Q1.75 18.3 13.1 18.05h.05" fill="#91866f"/><path d="M8.35-25.95 6.95-28l-.1.05Q5.5-29.3 4-29.4q-2.4-.2-5.05 3.5l-.05.1-.45.7-.5.7-.3.6-.35.6-1.5 2.95-.05.1-.25.6-.45 1.15-.9 3.15-.1.75v-.1q-.6-2.6-1.35-4.15l-.45-.85q-1.95-3.25-4.7.05l-.45.8-2.3 5.2-.15.45-.2.75-.85 4-.1.8-.05 5.35q.65 1.75 3.55 2l4.8.25q-.25 4.8.25 8.95.75 7.7 3.85 13.05 4.85 8.3 10.15 7.3L8.4 28l.65-.75q1.5-2 2.4-5.5h-.05l-.15.4-.2.4-.3.5v.05m0 .05-.4.55-.45.55q-1.55 1.8-3.55 1.95-3.7.2-7.6-6.2l-.8-1.45q-3.1-6.15-3.6-16.15l-.1-4.8v-.1l-6.35-.45q-2.3-.95-1.6-5.4l1-4 .4-1.2.5-1.25.75-1.55q2.05-3.5 3.25 4l.1.75 3.4.2v-.05l.05-.05.2-.85.8-2.6 1-2.5.65-1.3.85-1.6L1.4-23.7q2.05-2.5 3.95-2.35 2.2.15 4.05 2.95l.6 1.05-1.65-3.9q1.1 1.9 2.1 4.8l.1.2.1.25.1.15v.05l.05.1v.05l.05.1.05.05v.05l.55 1.4.05.15.75.9 1.6 2.4q1.4 2.2 2.1 6.95l.6 7.55q.15 4.15-.05 7.4v.1l-.6 4.5-1.05 3.3-.05.1-.8 1.7-.3.65-.55 1.1-.6 1-.4.65-.7 1.95v.1M-4.5-19.55l-.35.8-.1.35m-1 3.8.1-.65m1.55 3.85H-3.9q1.15 0 1.85.7.5.45.75 1.3m6.25-8.15v-.05l.6-1.15.4-.6.45-.5q2.05-2.2 4.95 1.05l.05.05.1.15m-19.2 7v.1l.1 1m4.45 7.3q.65-.45 1.1-1.25l.25-.4Q-1.25-6-1-7.8l-.05-.4v-.15L-1.3-9.4m11.75-11.75-.35-.75-.1-.15M2.85-9.15l-.15.8Q2.15-4.5 1.75.6q1.65 22.75 9.1 19.7l1.3-.7.4-.55M4.95-17.5q-.85 1.95-1.55 5.15l-.55 3.2m9.3 28.85v-.1M-3.15-3.2q-.95.65-2.2.7h-.4M-16.5-7.55q.25-2.8 1.15-5.55" fill="none" stroke="#42301e" stroke-width="1.5"/></g><g id="h"><path d="m32.75-2.75-.05.45V-2l.1.55-.05-.25.15.75.15.65q.5.8 1.05.8.65 0 1-.8l.4-1.05v-.95q0-.95-.4-1.65-.35-.7-1-.7h-.05q-.6.05-1 .7V-4l-.05.05q-.2.55-.25 1.2m-12.7-.3q-.75-.9-1.85-1h-.25q-1.2 0-2.1 1-.6.75-.7 1.7l-.05.6v.2q.05 1.3.75 2.25.9.95 2.1.95l.55-.05q.9-.15 1.55-.9.8-.95.9-2.25v-.2l-.1-.65q-.15-.9-.8-1.65M-.95 0l-.15-1.35q-.3-.95-.9-1.7-1-1.2-2.4-1.2-1.45 0-2.5 1.2l-.75 1.7L-7.8 0v.2q.1 1.65.9 2.85Q-5.85 4.3-4.4 4.3-3 4.3-2 3.05-1.05 1.85-.95.2V0M-20.4-16.6h70.8q-1.95 9.35 0 25.1-21.45 5.95-39.1 7.75-20.3 1.3-31.85-.75-1.7-13.7.15-32.1m-6.25 30.75Q-42.05 10.1-52.1.25V-16.6h26.2q-1.65 12.6-.75 30.75"/><path d="M20.05-3.05q.65.75.8 1.65l.1.65v.2q-.1 1.3-.9 2.25-.65.75-1.55.9l-.55.05q-1.2 0-2.1-.95-.7-.95-.75-2.25v-.2l.05-.6q.1-.95.7-1.7.9-1 2.1-1h.25q1.1.1 1.85 1m13-.9q.4-.65 1-.7h.05q.65 0 1 .7.4.7.4 1.65v.95L35.1-.3q-.35.8-1 .8-.55 0-1.05-.8l-.15-.65-.15-.75.05.25-.1-.55V-2.3l.05-.45.3-1.2M-.95 0v.2Q-1.05 1.85-2 3.05-3 4.3-4.4 4.3q-1.45 0-2.5-1.25-.8-1.2-.9-2.85V0l.15-1.35.75-1.7q1.05-1.2 2.5-1.2 1.4 0 2.4 1.2.6.75.9 1.7L-.95 0m-19.6 15.5.1.75-6.1.45-.1-2.55q-.9-18.15.75-30.75h5.5q-1.85 18.4-.15 32.1" fill="#9d7437"/><path d="M20.05-3.05q.65.75.8 1.65l.1.65v.2q-.1 1.3-.9 2.25-.65.75-1.55.9l-.55.05q-1.2 0-2.1-.95-.7-.95-.75-2.25v-.2l.05-.6q.1-.95.7-1.7.9-1 2.1-1h.25q1.1.1 1.85 1m13-.9q.4-.65 1-.7h.05q.65 0 1 .7.4.7.4 1.65v.95L35.1-.3q-.35.8-1 .8-.55 0-1.05-.8l-.15-.65-.15-.75.05.25-.1-.55V-2.3l.05-.45m.3-1.2-.3 1.2M-.95 0v.2Q-1.05 1.85-2 3.05-3 4.3-4.4 4.3q-1.45 0-2.5-1.25-.8-1.2-.9-2.85V0l.15-1.35.75-1.7q1.05-1.2 2.5-1.2 1.4 0 2.4 1.2.6.75.9 1.7L-.95 0M-20.4-16.6h70.8q-1.95 9.35 0 25.1-21.45 5.95-39.1 7.75-20.3 1.3-31.85-.75l.1.75-6.1.45-.1-2.55Q-42.05 10.1-52.1.25V-16.6h26.2q-1.65 12.6-.75 30.75m6.25-30.75q-1.85 18.4-.15 32.1" fill="none" stroke="#42301e" stroke-width="1.5"/><path d="M55.05-15.35q-3.4 2.05-9.45 1.85-6.1-.25-7.25-.85L37-15q-1.2 0-3.05-2.55l-3.7-4.95q-2.45 1.3-7.3 2.95-6.3 2.05-9.25 2.05l-8.9-.75-7.7-.75H-3q-2.25.2-17.05 3.4-15.55 3.35-30.55 3.35-2.75 0-5.05-1.05l-1.35-.65q-1-2.8-.3-6.5 18.5-9.4 79.1-11.9l31.8 7.3q6.95 4.6 1.45 9.7" fill="#ebdbc3"/><path d="M29.7-10q-5.05-1.45-10.5-2.25 5.45.8 10.5 2.25M-57-13.95l1.35.65q2.3 1.05 5.05 1.05 15 0 30.55-3.35Q-5.25-18.8-3-19h.1l7.7.75 8.9.75q2.95 0 9.25-2.05 4.85-1.65 7.3-2.95l3.7 4.95Q35.8-15 37-15l1.35.65q1.15.6 7.25.85 6.05.2 9.45-1.85L53.1-11.6q-21.85 8-33.9-.65Q-3.15-15.5-32.5-8q-19.3 3.5-21-1.5-2.55-1.8-3.5-4.45" fill="#b0936b"/><path d="M55.05-15.35q5.5-5.1-1.45-9.7l-31.8-7.3q-60.6 2.5-79.1 11.9-.7 3.7.3 6.5.95 2.65 3.5 4.45 1.7 5 21 1.5 29.35-7.5 51.7-4.25 12.05 8.65 33.9.65l1.95-3.75" fill="none" stroke="#42301e" stroke-width="1.5"/><path d="M19.2-12.25q5.45.8 10.5 2.25" fill="none" stroke="#422f1d" stroke-opacity=".502" stroke-width="1.5"/><path d="M-59.6 11.4Q-58.3 1-53.3-2.1l13.35 7.55Q-19.3 3.15.35 12.1 28 13 41.95 4.3l8.3-7.3q8.5 5.9 9.65 16.15l-1.35.55q-1.85.1-2.35.6l-1.1 1.65q-2.75 3.1-15.95 6.8-3.45 1.05-9.2 1.7l-6.7.75q-1.25.25-3 1l-2.35.55-12.2-1.9q-13.1-2-24.25-2.25l-22.95-1.2-5.6-1.05-5.7-.8q-1.15.05-3.85-3.5-1.8-2.25-2.95-4.65m19.65-5.95L-46 6.3l6.05-.85m44.9 8.85-4.6-2.2 4.6 2.2" fill="#ebdbc3"/><path d="M59.9 13.15q.35 3.45-.05 7.4-11.9 7.45-28 11.3-53.75 2.2-86.1-6.6l-5.8-8.7.45-5.15q1.15 2.4 2.95 4.65 2.7 3.55 3.85 3.5l5.7.8 5.6 1.05 22.95 1.2q11.15.25 24.25 2.25l12.2 1.9 2.35-.55q1.75-.75 3-1l6.7-.75q5.75-.65 9.2-1.7 13.2-3.7 15.95-6.8l1.1-1.65q.5-.5 2.35-.6l1.35-.55" fill="#b0936b"/><path d="M59.9 13.15q.35 3.45-.05 7.4-11.9 7.45-28 11.3-53.75 2.2-86.1-6.6l-5.8-8.7.45-5.15Q-58.3 1-53.3-2.1l13.35 7.55Q-19.3 3.15.35 12.1 28 13 41.95 4.3l8.3-7.3q8.5 5.9 9.65 16.15M.35 12.1l4.6 2.2M-46 6.3l6.05-.85" fill="none" stroke="#332720" stroke-opacity=".6" stroke-width="1.5"/></g><path d="M126.1 19.85q-4.8 3.05-8.75 6.25-7.3 5.65-12.05 11.8 2.05 6.95 2.05 14.65 0 21.45-15.8 36.55m3.3-51.1q5.85-9 16.9-17.3" fill="none" stroke="#332720" stroke-opacity=".6" stroke-width="1.5" id="a"/><use xlink:href="#a" id="i"/></defs><use transform="matrix(-1.2001 .69289 .69289 1.2001 280.7 483.15)" xlink:href="#b"/><use transform="matrix(-1.2001 .69289 .69289 1.2001 277.85 413.8)" xlink:href="#c"/><use transform="matrix(-1.2001 .69289 .69289 1.2001 345.25 400.25)" xlink:href="#d"/><use transform="matrix(-1.2001 .69289 .69289 1.2001 318.8 481.05)" xlink:href="#e"/><use transform="matrix(-1.2001 .69289 .69289 1.2001 337.15 435.5)" xlink:href="#f"/><use transform="matrix(-1.2001 .69289 .69289 1.2001 238.35 444.55)" xlink:href="#g"/><use transform="matrix(-1.2001 .69289 .69289 1.2001 251.15 347.7)" xlink:href="#h"/><use transform="matrix(-.17764 -.0223 .17711 .43633 229.25 431.25)" xlink:href="#i"/></svg>