<svg viewBox="0 0 123.2 124.2" xmlns="http://www.w3.org/2000/svg" xmlns:xlink="http://www.w3.org/1999/xlink"><use width="123.2" height="124.2" xlink:href="#a"/><defs><g id="a"><path d="M257.35 254.15v1.4l-3.1 6-2 .5-6.5-3.15h-2.15l-1.1-2.35v-1.1l1.1-.3 1.15 1h2.35l5.15 3.25 1.1-.85 3.5-6.2.5.7v1.1m-28.15-13.2v1.4l-3.1 6-2 .5-6.5-3.15h-2.15l-1.1-2.35v-.45l1.1-.95 1.15 1h2.35l5.15 3.25 1.1-.85 3.5-6.2.5.7v1.1m-5.5-23.65-.1-.95 3.7.25q-.3.15-.45.75v.75l-1.25-.3-.65-.15-.6-.2-.65-.15m13.75-54.3 2-4.2q4.2 2.35 7.7 11.7l-.15 2.8-11.75-5.65 2.2-4.65M292 194.55l-11.75-5.65 1.9-4.05 2.55-5.35q4.35 2.7 7.6 9.5l-.3 5.55m-22.6-10.5-11.75-5.65 4.2-8.9q4.65 1.9 7.85 9.4l-.3 5.15m11.5 55.2q7.15-2.65 20 2.3l.8.5q-10.35-.55-11.2 2.6-3.6-2.45-6.75-1.45-1.55-1.8-2.85-3.95m-25.65-9.2-.25.5v.75l-1.25-.3-.65-.2-.6-.15-.7-.45v-.45l3.45.3m-29.4 4.6v2.3l.45 1.2.2.7-.2.35-1.9 3.1-.65-4.5 2.1-3.15m28.15 13.1v2.4l.65 1.9.25.5.05.2-1.9 3.1-1.4-4.1 2.35-4" fill="#5fc2b8" fill-rule="evenodd" transform="translate(-213.85 -138.35)"/><path d="m248.8 138.85 11.3 26.25 1.15 2.7-4.5 1.75q1 4.8-1.75 10.95l-.5.15-2.9-1.4.4-.25q3.1-2.6-1.55-7l-3.45 1.3.15-2.8.3-5.25-.3 5.25q-3.5-9.35-7.7-11.7l2.05-4.4q1.6 7.4 5.95 10.85l1.35-26.4m14.55 27.5 1.2-2.6q1.2 6.75 5.45 9.2l-.3 5.95.3-5.95 1.2-23.35 11.45 26.6 2.95 1.3 1.65-3.5q1.15 5.65 5.4 8.9l1.15-22.8 11.5 26.75.95 2.2-14.25 5.5.3-5.55q-3.25-6.8-7.6-9.5l-2.55 5.35q-7.2.5-12.9 2.55l-.4.35-3-1.5.05-.1q3.4-1.7 9.75-2.15 8.8-2 6.15-4.7l-12.4 4.75.3-5.15q-3.2-7.5-7.85-9.4l1.5-3.15m56.9 27.05 1.5 4.65-1.5 2.25-.9 1.25h-4.1l-12.65-4.25 4.9-1.7 7 2.7-7-2.7-4.9 1.7-10.35 3.6-2.25 3.9-3.25 1.75-2.75-.75 1.4-2.05.1-.35v-3.6q.75-2.1 3-2.4l13-4.25 5.9-.85q5.45-.1 9.35 2.8 4 2.35 3.5-1.7m-11.8 55.45-.7 2.95-3.5-.4-13.75 2.9-6.05-2.25v-1.35l1.7.85 2.2-.05 1.4-.05.45-3.1-.7-1.8.7 1.8q-3.7-1.95-6.45-5.15 3.15-1 6.75 1.45.3 2.5 3.5 3.25l14.75-.5-.3 1.45M225.4 223.2l-1-2.4.55-3.15.65.15v4.15l-.2 1.25m58.25-44.65-1-2.35 1 2.35m1.95-1.05-.9 2 .9-2m7.05 5.4-.35 6.1.35-6.1m-36.6 47.05.95 1.45v.4-.4l-.95-1.45 6.35 2.2 1.3 6.6-.2 1.4-1.55 1.6.75-1.95-.85-4.9-.25-1.35-4.6-1.75v5.25q-.7.75-1.45-.35l.5-6.75m33.6 22.05.1-.55-.1.55m-37.1-18.05.55-3.15.65.2v4.15l-.2 1.25-1-2.45M228.2 217.1h.05l.6 1.1v.4-.4l-.6-1.1L234 219l1.6 6.25-.25 1.7-1.55 1.6.75-1.95-.85-4.9-.25-1.35-4.6-1.75v5.25q-.6.65-1.2 0l.55-6.75m-5.65 24-1 .3q-.6 0-1.05-.3l-.4-.6.4-.65 1.05-.25 1 .25.45.65-.45.6m25.8 12.8q0-.3.35-.55l.9-.2.85.2q.4.25.4.55l-.4.5-.85.25-.9-.25q-.35-.2-.35-.5" fill="#318279" fill-rule="evenodd" transform="translate(-213.85 -138.35)"/><path d="m241.5 154.4 7.3-15.55-1.35 26.4q-4.35-3.45-5.95-10.85m18.6 10.7 3.25 1.25-1.5 3.15-4.2 8.9 11.75 5.65 12.4-4.75q2.65 2.7-6.15 4.7-6.35.45-9.75 2.15l-.05.1-11.35-5.6.5-.15q2.75-6.15 1.75-10.95l4.5-1.75-1.15-2.7m4.45-1.35 6.65-14.15-1.2 23.35q-4.25-2.45-5.45-9.2m22.7 10.25 6.55-13.9-1.15 22.8q-4.25-3.25-5.4-8.9m18.05 12.85 6.55 3.75 8.4 2.8q.5 4.05-3.5 1.7-3.9-2.9-9.35-2.8l-5.9.85-13 4.25-19.65-9.65.4-.35q5.7-2.05 12.9-2.55l-1.9 4.05 11.75 5.65 14.25-5.5-.95-2.2m15.7 17.1 2.5 1.1 1.75 3.35-1.6 4-1.2.25-.35.1-2.1.4-1-.5-1.75-.85.4-2.25h2.5l1.6-1.9-.75-3.7m-2 29.9 1.5 1.95-1.1 1.65-.5 1.1-2.25.65v-.05l.65-1.75-2.4-2.7-.5-.55-3.4-.5v-1.5l2.5-1 2.9.85 1.5.4 1.1 1.45m-76.5 21.6v-1.05l4.1-2.85.9-2.4h.85l.75 1.75.75.4 2.5-4.4 1.65.6v.25l-2.35 4 1.4 4.1 1.9-3.1-.05-.2-.25-.5 1.7-.4.5.7-3.5 6.2-1.1.85-5.15-3.25h-2.35l-1.15-1-1.1.3m-28.15-12.55v-1.7l4.1-2.85.9-2.4h.85l.15.35.5 1.15.1.25.75.4 2.5-4.4 1.65.6v.35l-2.1 3.15.65 4.5 1.9-3.1.2-.35 1.7-.4.5.7-3.5 6.2-1.1.85-5.15-3.25h-2.35l-1.15-1-1.1.95m10.05-22.1-.55-1.35-.15-2.15.65.15.6.2-.55 3.15m-.8-4.45-.15-1.8 1.5-.6.4-.2q3.9-.45 7.75 1.7l.65.75 1 1.55q1 1.85 1.35 4.2l-.45 2.95-.05.35L234 219l-5.75-1.9h-.05l-.55 6.75-.8-1.5v-5q.15-.6.45-.75l-3.7-.25m0-46.8 5.4-4.15 8.45-2.4-2.2 4.65L247 173.3l3.45-1.3q4.65 4.4 1.55 7l-.4.25-23.1-11.45-4.9 1.75m78.1 72.5 4.95 3 .45.5 1.65 1.85-14.75.5q-3.2-.75-3.5-3.25.85-3.15 11.2-2.6m-39.8-12.65 1 1.55.7 1.6.65 2.6-.45 2.95-.1.65-1.3-6.6-6.35-2.2-.5 6.75-.55-1.15v-5l.25-.5q.3-.55.8-.1-.5-.45-.8.1l-3.45-.3-.2-2 1.5-.6.4-.2q3.9-.45 7.75 1.7l.65.75m-9.4 1.25.6.15-.55 3.15-.55-1.3-.2-2.45.7.45m-25.2-14.05q.35-.25.9.5-.55-.75-.9-.5m-4.75 24.5.45-.6-.45-.65-1-.25-1.05.25-.4.65.4.6q.45.3 1.05.3l1-.3m25.8 12.8q0 .3.35.5l.9.25.85-.25.4-.5q0-.3-.4-.55l-.85-.2-.9.2q-.35.25-.35.55" fill="#91d5cd" fill-rule="evenodd" transform="translate(-213.85 -138.35)"/><path d="M335.1 235.5q-4.4.05-10.1-3.6l-3.85-5.45.3-1.7.1-.45.5-4.45.1-2.6q5.15 11.05 12.95 18.25m-64.5 12.4-9.5-3.9.85-2.25 1.55-1.6q2.35 5 7.1 7.75m-28.15-13.2-9.5-3.9.85-2.25 1.55-1.6q2.35 5 7.1 7.75m-17.5-23.05q-.8-1.65-1.3-3.4-.7-2.45-.75-5.05l2.55 1.65q-.3 1.95-.45 4.05l-.05 2.75m77.65-14.35 12.65 4.25h1.4q1.8 3.5 2.25 8h-1.25l-.4 2.25 1.75.85q1.2 9.85-2.6 19.35l-2.9-.85-2.5 1v1.5l3.4.5.5.55q-2.2 6.8-7.8 10.85l-.45-.5-4.95-3-.8-.5q-12.85-4.95-20-2.3-3.05-5.15-4.6-12.5.65-3.6 1.55-6.9 2-7.15 5.3-12.7l.85-1.35 2.75.75 3.25-1.75 2.25-3.9 10.35-3.6m-34.7 12.55.6 2.45-1.15-.7-1.1-.65-4.25-2.55-4.95-2-1.7-.4-.6-1.85 13 6.15.15-.45m-4.8 16.35 3.05 1.75 6.35 3.1h1.85l1.55 4.3-11-5.05-1.3 2.25-.7-1.6.2-4.35v-.4m-6.6-2.8q0-.5.35-.9.4-.35.9-.35t.85.35q.4.4.4.9t-.4.85l-.2.2-.65.2q-.5 0-.9-.4l-.35-.7v-.15m67.8 6.1.8 1.05-.8-1.05m-1.35-2.2.85 1.35-.85-1.35m3.3-.25-.85-1.3.85 1.3m-3.7-6.2-.5-1 .5 1m.85 1.65-.5-.95.5.95m3.75 9.55 1.4.7-1.4-.7m-2.25-7-1.05-1.8 1.05 1.8m2.85 4.05-1.05-1.4 1.05 1.4m1.5 1.85-.85-1 .85 1m1.85 1.8-.8-.85.8.85m-1.45.45 1.45.55-1.45-.55m-7.7-7.85.5 1.05-.5-1.05m3.65 5.75.75.6-.75-.6m-85.85-34.45.6 2.45-1.15-.7-1.1-.65-4.25-2.55-4.95-2-1.7-.4-.6-1.85 13 6.15.15-.45M228.65 210q-.3-.35-.3-.9t.3-.95q.3-.35.7-.35t.7.35l.3.95-.3.9-.7.4q-.4 0-.7-.4m6.65.45 3.15 1.75 14.85 8.35-.1 1.45-.1 2.25-17.2-8.7-1.15 2.2.2-4.25.35-3.05m-7.6 17.9q.35.35.35.85t-.35.8q-.3.35-.8.35t-.85-.35q-.3-.3-.3-.8t.3-.85q.35-.3.85-.3t.8.3m27.35 12.95q.45 0 .75.3l.3.75-.3.75q-.3.3-.75.3l-.75-.3q-.3-.3-.3-.75t.3-.75.75-.3" fill="#3c1e00" fill-rule="evenodd" transform="translate(-213.85 -138.35)"/><path d="m320.25 200.3.75 3.65.75 3.7-1.6 1.9h-1.25q-.45-4.5-2.25-8h2.7l.9-1.25m2.2 12.35q4.85 12 14.05 20.25.3 2.25-1.4 2.6-7.8-7.2-12.95-18.25l-.05-4.5.35-.1m-1.3 13.8q-.8 3.8-2.15 7.4l-1.1-1.45-1.5-.4q3.8-9.5 2.6-19.35l1 .5 2.1-.4.05 4.5-.1 2.6-.5 4.45-.1.45-.3 1.7m-4.5 12.75q-2.95 6.05-8.2 9.65l.3-1.45-1.65-1.85q5.6-4.05 7.8-10.85l2.4 2.7-.65 1.75v.05m-91.7-25.25v-2.3l.05-2.75 1.1.5 6.5 3 1.25.6-.1 3.2-.65-.75q-3.85-2.15-7.75-1.7l-.4.2m-2.05-10.75-2.9-1.7.8-7.5.35-3.8 7.35 3.85-1.2 3.15 1.2-3.15.4-.85 4.95 2 4.25 2.55-.55 1.05-1.35 2.8-1.05-.55-7.85-3.85q-1.3 3.65-1.85 7.65l-2.55-1.65m62.6-3.4v3.6l-.1.35-1.4 2.05-.85 1.35q-3.3 5.55-5.3 12.7-.9 3.3-1.55 6.9 1.55 7.35 4.6 12.5 1.3 2.15 2.85 3.95 2.75 3.2 6.45 5.15l-.45 3.1-1.4.05q-6-4.8-9.75-10.9l-14.35-5.45-.65-2.6 1.3-2.25 11 5.05-1.55-4.3h-1.85l-6.35-3.1q-.95-6.2 1.15-11.05.45-1.05 1.05-2l7 3.65q2-6.8 5.6-12.6 2.05-3.2 4.55-6.15-2.5 2.95-4.55 6.15l-7.05-3.75.35-1.85.85-1.8-.5-1.65-12.95-5.35-2 3-13.6-7.25.9-1.95-.5-1.65-12.95-5.35-1.1 1.65-6.5-3.5 2.55-4.4 21.45 10.4 2.8 1.35 13.2 6.45 2.95 1.4 16.65 8.1m-11.25 22.95 1.1-4.2-1.1 4.2m-10-11.6-.6 1.25-.75 1.65.75-1.65.6-1.25m-7.2-4.75 4.95 2 4.25 2.55-1.2 2.2-.9 2.2-7.5-3.65-1.4-.7.9-2.5-.9 2.5q-1.5 4.5-1.95 9.55l-14.85-8.35q-1.3-4.65.4-9.3l.8-1.85 1.4-.45 15.1 7.9.9-2.1m.05 3.9.35-1.1.45-1.25-.45 1.25-.35 1.1m19.2 16.45-.55 3.55-1.4.75 1.4-.75.55-3.55m-17.7-2.5-.1.25 2 .9v1.4-1.4l1.45.7q-.1 1.6-.05 3.3l-.65-.75q-3.85-2.15-7.75-1.7l-.4.2-1.5.6.2 2v.45l-15.7-8.25q-.35-2.35-1.35-4.2l1.15-2.2 17.2 8.7.1-2.25 1.45.7 1.8.85.05-.15v.15l.35.7q.4.4.9.4l.65-.2.2-.2m-4.2 1.55.25-3.1-.25 3.1m2.6 9.65v-3.65l4.6 1.75.25 1.35-.8 2.35-1.1-.5-2.95-1.3m-2-4.15v3.25l-1.25-.55v-3l1.25.3m5.5 3.75-.55 1.7.55-1.7m18.1 5.55q-1.55-2.5-2.7-5.25 1.15 2.75 2.7 5.25m-50.1-43.7.9-2.35-.9 2.35m-2.65 14.7.25-2.2-.25 2.2m10.65-13.35-.7 1.4.7-1.4m16.6 28.9v-2.9 2.9m-24.25-4.2v-4.35l4.6 1.75.25 1.35-1 2.95-1-.45.65-2.55-.65 2.55-2.85-1.25m-2-4.85v4l-1.25-.55v-3.75l1.25.3m5.8-4.2-.05-1.5.05 1.5" fill="#ba5e01" fill-rule="evenodd" transform="translate(-213.85 -138.35)"/><path d="m265.85 186.25 3 1.5q-2.2 1.9 0 3.95l-2.95-1.4q-1.45-1.55-.05-4.05m-13.15-2.4-2.8-1.35q-.55-1.9 1.7-3.25l2.9 1.4q-2.55.95-1.8 3.2" fill="#1f504a" fill-rule="evenodd" transform="translate(-213.85 -138.35)"/><path d="m261.1 244-3.75 10.15v-1.1l-1-1.4-.85.2 1-1.45 4.55-13.15.8-2.35.85 4.9-.75 1.95-.85 2.25M247 232.95l-1.05 1.75h-3.5q-4.75-2.75-7.1-7.75l.25-1.7.05-.35 1.05 1.55q2 2.65 4.6 4.35l4.55 1.55 1.15.6m-14.05-2.15-3.75 10.15v-1.1l-1-1.4-.85.2 1-1.45 4.35-12.55 1-2.95.85 4.9-.75 1.95-.85 2.25m41.65-33.9.5 1.65-.85 1.8-5.75 11.95-.6-2.45q1.6-4.95 3.9-8.8 1.25-2.25 2.8-4.15m-10.45 18.45.9-2.2 1.2-2.2 1.1.65-1.1 2.2-.9 2.15q-1.75 4.7-2.25 10.25v.4l-.2 4.35-1-1.55q-.05-1.7.05-3.3.35-5.95 2.2-10.75m-17.7-31.65.5 1.65-.9 1.95-.15.25-5.55 11.55-.6-2.45q1.9-5.85 4.7-10.2l2-2.75m-8.35 14.05 1.1.65-.5 1q-.7 1.35-1.25 2.8-1.5 3.85-2.15 8.25l-.35 3.05-.2 4.25-1-1.55.1-3.2q.3-6.35 2.35-11.4l1.35-2.8.55-1.05" fill="#630" fill-rule="evenodd" transform="translate(-213.85 -138.35)"/><path d="m284.45 250.7-9.3-4.55-1.15-.6-4.55-1.55q-3.1-2-5.3-5.4l-.35-.5.45-2.95 14.35 5.45q3.75 6.1 9.75 10.9l-2.2.05-1.7-.85M253.4 237l-6.4-4.05-1.15-.6-4.55-1.55q-2.6-1.7-4.6-4.35l-1.05-1.55.45-2.95 15.7 8.25.2 2.45.55 1.3 1 2.45-.15.6m20.85-36.65-.35 1.85-2.75 13.75-2.35-1.75-.45.7q-.6.95-1.05 2-2.1 4.85-1.15 11.05l-3.05-1.75q.5-5.55 2.25-10.25l.9-2.15 1.1-2.2 1.15.7 5.75-11.95m-3.5-2.8-2-.65 2 .65m-11.1-3 2-3 12.95 5.35q-1.55 1.9-2.8 4.15-2.3 3.85-3.9 8.8l-.15.45-13-6.15q1.8-4.8 4.9-9.6m.95 3.5-.85 1.25.85-1.25m2.4-3.25-1 1.05 1-1.05m-3.15 9.1 1.25.75-1.25-.75m-1.25-2.75-.6 1.5.6-1.5m4.4 4.4 1.75.6-1.75-.6m3.6 1.35v-1.5 1.5m2.5-6.25 1.15-1.75-1.15 1.75m-2.1-4.5-2-1 2 1m.35 7.9.5-1.4-.5 1.4M232.4 180l1.1-1.65 12.95 5.35-2 2.75q-2.8 4.35-4.7 10.2l-.15.45-13-6.15q2.05-5.45 5.8-10.95m13.5 7.55-3.25 12.5-1.6.55-1.4.45-.8 1.85q-1.7 4.65-.4 9.3l-3.15-1.75q.65-4.4 2.15-8.25.55-1.45 1.25-2.8l.5-1 1.15.7 5.55-11.55m-4.75-2.85-1.95-1.05 1.95 1.05m-2.65-1.45-1.8-.95 1.8.95m3.35 1.8 1.15.1-.35.35-1.35 1.45 1.35-1.45.35-.35-1.15-.1m-11.95 2.7q.35-1.2.95-2.2-.6 1-.95 2.2m1.55-3.15.45-.7-.45.7m1.45-1.8 1.6-1.4 1.3.4-1.3-.4-1.6 1.4m2.5 9.55-1-.4 1 .4m-2.85-1.15-1.25-.5 1.25.5m-3.2-1.3.3-1.25-.3 1.25m10.65-1.25-.9 1.65.9-1.65m-1.35 2.6q-.4 1.05-.65 2.15l-1.1-.45 1.1.45q.25-1.1.65-2.15" fill="#a95401" fill-rule="evenodd" transform="translate(-213.85 -138.35)"/><path d="m225.55 177.2-2.7-3.9.75-3.75 4.9-1.75 23.1 11.45q-2.25 1.35-1.7 3.25l-21.45-10.4-2.55 4.4-.35.7m43.3 10.55 19.65 9.65q-2.25.3-3 2.4l-16.65-8.1q-2.2-2.05 0-3.95m-14.35-7.1 11.35 5.6q-1.4 2.5.05 4.05l-13.2-6.45q-.75-2.25 1.8-3.2m-26.05-8.55-1.95-.95 1.95.95" fill="#276962" fill-rule="evenodd" transform="translate(-213.85 -138.35)"/><path d="m248.5 249.5 1.1-1.95q2.55-4.5 3.8-10.55l.15-.6.2-1.25V234l1.25.55v1l.55 1.15q.75 1.1 1.45.35v-1.6l2.95 1.3 1.1.5-4.55 13.15-1 1.45-.85.2-.65-1.9v-2.65l-1.65-.6-2.5 4.4-.75-.4-.6-1.4m-28.15-13.2 1.1-1.95q2.65-4.75 3.95-11.15l.2-1.25v-.4l1.25.55v.25l.8 1.5q.6.65 1.2 0v-.9l2.85 1.25 1 .45-4.35 12.55-1 1.45-.85.2-.2-.7-.45-1.2v-2.65l-1.65-.6-2.5 4.4-.75-.4-.1-.25-.5-1.15m.8-46.1.1-.9 1.75-7.75 2.55-4.35.35-.7 6.5 3.5q-3.75 5.5-5.8 10.95l.6 1.85 1.7.4-.4.85-7.35-3.85m59.8 15.75q-3.6 5.8-5.6 12.6l-7-3.65.45-.7 2.35 1.75 2.75-13.75 7.05 3.75m-23.9.45-.9 2.1-15.1-7.9 1.6-.55 3.25-12.5.15-.25 13.6 7.25q-3.1 4.8-4.9 9.6l.6 1.85 1.7.4m-1.8 4.6 1.4.7 7.5 3.65q-1.85 4.8-2.2 10.75l-1.45-.7-2-.9.1-.25q.4-.35.4-.85t-.4-.9q-.35-.35-.85-.35t-.9.35q-.35.4-.35.9l-.05.15-1.8-.85-1.45-.7.1-1.45q.45-5.05 1.95-9.55m5.3 13.55-.05.85.05-.85m1.65-8.7-.8 2.7.8-2.7m-1.25 4.9q-.25 1.3-.35 2.6.1-1.3.35-2.6m-3.55 23.75.75-2.3-.75 2.3m1.05-3.3.9-2.65-.9 2.65m1.25-3.7.25-.75-.25.75M225 208.9q.15-2.1.45-4.05.55-4 1.85-7.65l7.85 3.85-.7 1.8.7-1.8 1.05.55q-2.05 5.05-2.35 11.4l-1.25-.6-6.5-3-1.1-.5m1.7-4.8.15-.65.15-.8-.15.8-.15.65m7.25.1q-.35 1-.55 2 .2-1 .55-2m-5.3 5.8q.3.4.7.4l.7-.4.3-.9-.3-.95q-.3-.35-.7-.35t-.7.35q-.3.4-.3.95t.3.9m-2.5-1.9.25-2.05-.25 2.05m6.5 3.05-.05 1.25.05-1.25m.5-3.95-.4 2.7.4-2.7m-5.85-6 .75-2.75-.75 2.75m27.85 16.95.4-2.3-.4 2.3m-.45 3.15.2-1.6-.2 1.6m-29.45 6.55.55-1.75-.55 1.75m1.75 9-.7 1.3.7-1.3m-2.95-5.7.65-1.8-.65 1.8m-1.65 3.55 1.05-2.2-1.05 2.2m5.3-6.35q-.3-.3-.8-.3t-.85.3q-.3.35-.3.85t.3.8q.35.35.85.35t.8-.35q.35-.3.35-.8t-.35-.85m-1.6-3.35.35-1.55-.35 1.55m2.95 7.4 1.15-3-1.15 3m1.6-4.4.75-2.4-.75 2.4m-3.1 7.75.8-1.7-.8 1.7m27.5 5.55q-.45 0-.75.3t-.3.75.3.75l.75.3q.45 0 .75-.3l.3-.75-.3-.75q-.3-.3-.75-.3m-1.45-.95.4-1.7-.4 1.7m-1.15 3.55.85-2.4-.85 2.4m-1.4 3.25.95-2.1-.95 2.1m3.1-9.35.1-1.25-.1 1.25m-5.05 13.1 1.25-2.3-1.25 2.3m6.4-.85.5-1.4-.5 1.4m-33.75-14.15-.9 1.55.9-1.55m34.15-21.45.75-2.75-.75 2.75m.4 33.25.7-2.05-.7 2.05" fill="#e37302" fill-rule="evenodd" transform="translate(-213.85 -138.35)"/><path d="m275.15 246.15-1.05 1.75h-3.5q-4.75-2.75-7.1-7.75l.2-1.4.1-.65.35.5q2.2 3.4 5.3 5.4l4.55 1.55 1.15.6" fill="#5c2e01" fill-rule="evenodd" transform="translate(-213.85 -138.35)"/><path d="M27.65 16.05 34.95.5l11.3 26.25L49.5 28l1.2-2.6 6.65-14.15 11.45 26.6 2.95 1.3 1.65-3.5 6.55-13.9 11.5 26.75L98 52.25l8.4 2.8 1.5 4.65-1.5 2.25.75 3.65 2.5 1.1 1.75 3.35-1.6 4-1.2.25q4.85 12 14.05 20.25.3 2.25-1.4 2.6-4.4.05-10.1-3.6l-3.85-5.45q-.8 3.8-2.15 7.4l1.5 1.95-1.1 1.65-.5 1.1-2.25.65q-2.95 6.05-8.2 9.65l-.7 2.95-3.5-.4-13.75 2.9-6.05-2.25v-1.35l-9.3-4.55-1.05 1.75h-3.5l-9.5-3.9-3.75 10.15v1.4l-3.1 6-2 .5-6.5-3.15h-2.15l-1.1-2.35v-2.15l4.1-2.85.9-2.4h.85l.15.35 1.1-1.95q2.55-4.5 3.8-10.55l-6.4-4.05-1.05 1.75h-3.5l-9.5-3.9-3.75 10.15v1.4l-3.1 6-2 .5-6.5-3.15H1.6L.5 105v-2.15L4.6 100l.9-2.4h.85l.15.35L7.6 96q2.65-4.75 3.95-11.15l-1-2.4L10 81.1l-.15-2.15-.1-.95-.15-1.8 1.5-.6v-2.3q-.8-1.65-1.3-3.4-.7-2.45-.75-5.05l-2.9-1.7.8-7.5.35-3.8.1-.9 1.75-7.75 2.55-4.35-2.7-3.9.75-3.75 5.4-4.15 8.45-2.4 2-4.2 2.05-4.4M33.6 26.9 34.95.5m53.8 58.45 4.9-1.7 7 2.7m-11.9-1 12.65 4.25h4.1l.9-1.25m.75 3.65.75 3.7-1.6 1.9h-2.5l-.4 2.25 1.75.85 1 .5 2.1-.4.35-.1M91.45 48.5l.95 2.2m-26-.15 1.9-4.05 2.55-5.35.9-2m-.1 22.3v3.6l-.1.35-1.4 2.05 2.75.75 3.25-1.75 2.25-3.9 10.35-3.6M68.8 37.85l1 2.35m9 4.35 1.15-22.8M48 31.15 49.5 28m-3.25-1.25 1.15 2.7m-3.6 10.6 4.2-8.9m7.85 9.4.3-5.95 1.2-23.35m-1.5 29.3-.3 5.15M55 53.35l16.65 8.1m-10.9-2.9.5 1.65-.85 1.8m-5.5-3.45 2 .65m-11.1-3 2-3 12.95 5.35q-1.55 1.9-2.8 4.15-2.3 3.85-3.9 8.8l.6 2.45L60.4 62m-12.25-4.5 1-1.05m-3.25 4.5.85-1.25m2.3 16 .75-1.65.6-1.25m2-.2-4.25-2.55-4.95-2-.9 2.1-.9 2.5q-1.5 4.5-1.95 9.55l-.1 1.45-.1 2.25v2.9l-1.5.6.2 2M52.4 72.6l1.1.65 1.15.7M50.9 67.8l-1.75-.6m-5-2.9.6-1.5m2.5 3.5L46 65.55m-1.95 4.05-.45 1.25-.35 1.1m9.5-4.9v1.5m1.3 2.95-.15.45-13-6.15.6 1.85 1.7.4M54 64.3l-.5 1.4m-2.35-8.9 2 1m3.25 2.75-1.15 1.75M55 53.35l-2.95-1.4-13.2-6.45-2.8-1.35-21.45-10.4-2.55 4.4-.35.7m6.85 2.8 1.1-1.65 12.95 5.35.5 1.65-.9 1.95-.15.25m13.75 7q-3.1 4.8-4.9 9.6m37.55-15.15-.3 5.55m-8 11.25-.85 1.35Q66 74.35 64 81.5q-.9 3.3-1.55 6.9 1.55 7.35 4.6 12.5 7.15-2.65 20 2.3l.8.5 4.95 3 .45.5m7.8-10.85-.5-.55-3.4-.5v-1.5l2.5-1 2.9.85m-24.1-43 .35-6.1m-25.3 28.7-1.1 2.2-.9 2.15q-1.75 4.7-2.25 10.25l3.05 1.75 6.35 3.1h1.85l1.4-.75.55-3.55m-19.8-3.35q0-.5.35-.9.4-.35.9-.35t.85.35q.4.4.4.9t-.4.85l-.2.2-.65.2q-.5 0-.9-.4l-.35-.7v-.15m4 2 .05-.85m-5.9-1.85-.25 3.1m6.2-2.45q.1-1.3.35-2.6m.45-2.2.8-2.7m-.3 13.55 1 1.55.2-4.35v-.4m-2.6.6v-1.4m-3.5 6.4v-.4l-.95-1.45q-.5-.45-.8.1l-.25.5v5l.55 1.15q.75 1.1 1.45.35v-5.25l4.6 1.75.25 1.35.85 4.9-.75 1.95 1.55-1.6.2-1.4m-3.75-2 .55-1.7m3.75.1-.65-2.6-.7-1.6m-1-1.55-.65-.75q-3.85-2.15-7.75-1.7l-.4.2m22.05 19-1.15-.6-4.55-1.55q-3.1-2-5.3-5.4l-.35-.5-.1.65m-4.35-.2-.9 2.65m-.3 1-.75 2.3m4.55-2.75-.85 2.25M43 114l.5.7v1.1m13.25-6.25q-4.75-2.75-7.1-7.75m45.25 7.25-1.65-1.85m-17.6 1 .7 1.8-.45 3.1-.1.55m-8.75-12.75q1.3 2.15 2.85 3.95 2.75 3.2 6.45 5.15m-5.75 2.35 1.7.85 2.2-.05 1.4-.05M50.4 96.8l-.45 2.95M46.1 98.4l-.25.75m-3.2 12.9-1 1.45.85-.2.5.7-3.5 6.2-1.1.85-5.15-3.25H30.9l-1.15-1m78.55-37.9-.05-4.5m-.95 13.7.3-1.7.1-.45.5-4.45.1-2.6m.75 4.3.5.95m-1.35-2.65.5 1m2.85 4.9.85 1.3m-2.45 1.6-.85-1.35m2.15 3.25-.8-1.05m-5.3 4.35-1.1-1.45-1.5-.4m9.95-.3-.75-.6m-3.15-4.7-.5-1.05m9.15 8.4-1.45-.55m.65-1.3.8.85m-2.7-2.8.85 1m-2.55-3.25 1.05 1.4M110 84.9l1.05 1.8m3.65 7.7-1.4-.7m-10.5 7.15v-.05l.65-1.75-2.4-2.7m-6.15 12.7-.3 1.45m-61-83.6-.3 5.25-.15 2.8m-5.7 13.65 1.35-1.45.35-.35-1.15-.1m-5.15-2.75 1.8.95m.7.4 1.95 1.05m5.3-1-2 2.75q-2.8 4.35-4.7 10.2l.6 2.45 5.55-11.55m-19.4-16.4 1.95.95m7.35 9.7-1.3-.4-1.6 1.4m-1 1.1-.45.7m-.6.95q-.6 1-.95 2.2m1.4 2.95 1.25.5m1.85.75 1 .4m-6.5.85-1.7-.4-.6-1.85q2.05-5.45 5.8-10.95M15.8 50.3l-.3 1.25m-2.05 7.3 1.2-3.15.4-.85 4.95 2 4.25 2.55 1.1.65 1.15.7M15.55 56.2l-.9 2.35M11.1 73.3l.05-2.75q.15-2.1.45-4.05l-2.55-1.65m11.55-.35.7-1.8m-7.85-3.85q-1.3 3.65-1.85 7.65m7.95 1.35q.2-1 .55-2m-6.95-1.55-.15.8-.15.65m1.95 5.9q-.3-.35-.3-.9t.3-.95q.3-.35.7-.35t.7.35l.3.95-.3.9-.7.4q-.4 0-.7-.4m4.1-.1.4-2.7m-.55 5.2.05-1.25m-6.25-5.1-.25 2.05m1.9-9.65-.75 2.75m-1.2 8.2-.25 2.2M23.05 54.6l1.1.45q.25-1.1.65-2.15m.45-.95.9-1.65m-.8 9.75-.5 1q-.7 1.35-1.25 2.8-1.5 3.85-2.15 8.25l3.15 1.75m1.3-15.55-.15.45-13-6.15m8.65-23.3 2.2-4.65M21.95 61.3l.7-1.4m18.4 21.45-.2 1.6m.85-5.45-.4 2.3m-19.5 6.75 1.05 1.55q2 2.65 4.6 4.35L32 94l1.15.6m6.1-2.15-.6-.15m-.7-.45.2 2.45.55 1.3 1 2.45.2-1.25v-4.15l1.25.3m-1.9-.5.65.2m-1.95-.8v-.45m1.75 6.65-.15.6M21.45 72.1l-.35 3.05-.2 4.25-1-1.55-.65-.75q-3.85-2.15-7.75-1.7l-.4.2m2.7 9.9q.6.65 1.2 0v-5.65l-.6-1.1h-.05q-.55-.75-.9-.5-.3.15-.45.75v5l.8 1.5m8.45-1.9-.45 2.95-.05.35-.25 1.7q2.35 5 7.1 7.75m-8.75-13L19.6 82 15 80.25m4.85 3.1.85 4.9-.75 1.95 1.55-1.6m-7 10.25-1 1.45.85-.2 1 1.4v1.1m3.15-19.3-.65 2.55m3.05-6.45q1 1.85 1.35 4.2M11.1 79.3l-.6-.2m1.25.35-.65-.15m.45 5.55.2-1.25v-4.15l1.25.3m-1.05 8-.55 1.75m.6 6.8v2.3l.45 1.2.7-1.3M7 99.1l.1.25.75.4 2.5-4.4 1.65.6v.35m.45 4.55.2-.35-.2-.7M9.6 94.15l-1.05 2.2m2.3-5.35-.65 1.8m9.75-2.6-.85 2.25M13.85 90q.35.35.35.85t-.35.8q-.3.35-.8.35t-.85-.35q-.3-.3-.3-.8t.3-.85q.35-.3.85-.3t.8.3m.65 5.7-.8 1.7m3.85-10.15-.75 2.4m-.45 1.4-1.15 3m-2.6-8.95-.35 1.55m.4 13.85.85-.2m-4.8 2.45-1 .3q-.6 0-1.05-.3l-.4-.6.4-.65 1.05-.25 1 .25.45.65-.45.6m-7.1.85 1.15 1H5.1l5.15 3.25 1.1-.85 3.5-6.2m26.35 2.15q.45 0 .75.3l.3.75-.3.75q-.3.3-.75.3l-.75-.3q-.3-.3-.3-.75t.3-.75.75-.3m-1.05-2.65-.4 1.7m-4.5 10.55.75.4 2.5-4.4 1.65.6v2.65l.65 1.9.85-.2m-3.5-6.8-.95 2.1m2.25-5.65-.85 2.4m2.2 8.15.25.5m-6.55 1.35q0-.3.35-.55l.9-.2.85.2q.4.25.4.55l-.4.5-.85.25-.9-.25q-.35-.2-.35-.5m.75-3-.6-1.4m7.5-.85-.5 1.4m-5.15-1.45-1.25 2.3M40.4 98.2l-.1 1.25m-33.8-1.5L7 99.1l.9-1.55M39.45 82.2 24.6 73.85m-5.85.2.05 1.5m24.35 31.75-.7 2.05m.35-36-.75 2.75" fill="none" stroke="#000" stroke-linecap="round" stroke-linejoin="round" stroke-opacity=".412" stroke-width=".5"/><path d="M105.05 71.2q-.45-4.5-2.25-8m-31.15-1.75q-2.5 2.95-4.55 6.15-3.6 5.8-5.6 12.6l-1.1 4.2M50.3 77l.9-2.2 1.2-2.2m40.85 34.6q5.6-4.05 7.8-10.85m1.5-2.7q3.8-9.5 2.6-19.35M48.1 87.75q-.1 1.6-.05 3.3m.05-3.3q.35-5.95 2.2-10.75m-3.1 21.9.8-2.35m14.05.45-1.55-4.3m14 20.45q-6-4.8-9.75-10.9M62.05 97q1.15 2.75 2.7 5.25M47.2 98.9l-4.55 13.15M108.3 78.9q5.15 11.05 12.95 18.25M20 74.65q.3-6.35 2.35-11.4l1.35-2.8.55-1.05M19.9 77.85l.1-3.2M18.85 86.3l1-2.95m-1 2.95L14.5 98.85" fill="none" stroke="#fc0" stroke-linecap="round" stroke-linejoin="round" stroke-opacity=".431" stroke-width=".5"/><path d="m248.8 138.85 11.3 26.25 3.25 1.25 7.85-16.75 11.45 26.6 2.95 1.3 8.2-17.4 11.5 26.75 6.55 3.75 8.4 2.8 1.5 4.65-1.5 2.25.75 3.65 2.5 1.1 1.75 3.35-1.6 4-1.2.25q4.85 12 14.05 20.25.3 2.25-1.4 2.6-4.4.05-10.1-3.6l-3.85-5.45q-.8 3.8-2.15 7.4l1.5 1.95-1.1 1.65-.5 1.1-2.25.65v-.05.05q-2.95 6.05-8.2 9.65l-.7 2.95-3.5-.4-13.75 2.9-6.05-2.25v-1.35l-9.3-4.55-1.05 1.75h-3.5l-9.5-3.9-3.75 10.15v1.4l-3.1 6-2 .5-6.5-3.15h-2.15l-1.1-2.35v-2.15l4.1-2.85.9-2.4h.85l.15.35 1.1-1.95q2.55-4.5 3.8-10.55l-6.4-4.05-1.05 1.75h-3.5l-9.5-3.9-3.75 10.15v1.4l-3.1 6-2 .5-6.5-3.15h-2.15l-1.1-2.35v-2.15l4.1-2.85.9-2.4h.85l.15.35 1.1-1.95q2.65-4.75 3.95-11.15l-1.55-3.75-.4-4.9 1.5-.6v-2.3q-.8-1.65-1.3-3.4-.7-2.45-.75-5.05l-2.9-1.7.8-7.5.35-3.8.1-.9 1.75-7.75 2.55-4.35-2.7-3.9.75-3.75 5.4-4.15 8.45-2.4z" fill="none" stroke="#000" stroke-linecap="round" stroke-linejoin="round" stroke-opacity=".4" transform="translate(-213.85 -138.35)"/></g></defs></svg>