<svg viewBox="0 0 62.404 61.196" xmlns="http://www.w3.org/2000/svg" xmlns:xlink="http://www.w3.org/1999/xlink"><use transform="translate(.001 -.004)" width="62.4" height="61.2" xlink:href="#a"/><defs><g id="a"><path d="M-5.9-26.15q-2.4 1.7-3.85 3.7-3.95 1-6.75 3.4l-.45.35-.25.05-2.6 2.3-.25.9-.85 1.15-.9.55-1.15 2q-5.6 9.7-4.45 22.4l.9 6.5q-4.15-5.9-4.2-13.3-.1-10.9 7.25-20.1 2.45-3.15 5.6-5.3l2.1-1.3q3.25-1.85 7.15-2.75l2.5-.55h.2" fill="#fff" fill-rule="evenodd" transform="translate(31.2 30.6)"/><path d="m4.8-30.05.2.25q-5.6.45-8.6 3.15-1.45 1.3-2.25 3.15Q-6.9-21.25-7-18.2-7.25-9.3.1-5.6-2.2-2.6-5-.05l-1.85-1.5-.2-.2.2.2q-2.1.45-3.95 1.25L-13.4 1q-.55-.8-1.6-3.65-1.05-2.9-1.8-7.75-.55-3.6.3-8.65 2.8-2.4 6.75-3.4 1.45-2 3.85-3.7l.05-.05.15-.1-.45.05 1.55-1.1q4.8-3.1 9.4-2.7M-7.05-1.75q-8.85-12.4-2.85-20.5l.15-.2-.15.2q-6 8.1 2.85 20.5M16.9-21.4l1.9 1.3 1.2 1.05q2.8 6.95 0 12.2-2.85 5.25-6.05 8.45h-.35l-.25.4L12 1.1Q10.25.05 8.35-.65l-.3-.1h-.1l-1 .55Q4.1 1.05.6 1.3l-1.85-.05 1.5-1.3Q2.35-2 3.8-4.2l3.75.65 2.1-.15q.45-.2 3.8-2.45t4.65-8.65l-.25-3.35-.95-3.25M8.55-1.05l-.5.3.5-.3 2.4-1.6q6.95-5.2 7.15-12.15-.2 6.95-7.15 12.15l-2.4 1.6M14.3 3.8l.65-.5q3.6 3.3 3.65 7.65l-.1 1.65-.05-.35-.15-3.65-1.2-2.55-2.4-1.95-.4-.3m-7 3.85q2.55 7.45-.15 15.1V23l3-1.15Q6 23.85.85 24.1h-.2q-.35-.45-.5-3.5-.3-4.2-.1-7.55Q.2 9.7-.2 8.75q4.05-.05 7.5-1.1M16 17.6l.55-.75.3-.3L16 17.6m-18.8 6.45q-6.7-.4-11.7-3.75-5.7-3.85-5.7-9.35 0-4.35 3.6-7.65l.65.55-.6.25q.05.3-.25.55l-.5.05-.55.55q-2.1 3.95-1.55 8.8 2.15 4.5 8.55 7.75-3.7-4.05-.5-.75l1.8-13.65q3.3 1.1 7.2 1.3l.05 4.8q.1 2.95-.2 5.9l-.35 3.65.05 1" fill="#c69500" fill-rule="evenodd" transform="translate(31.2 30.6)"/><path d="m20-19.05 1.85 1.75q9 9.2 8.85 20.6-.15 11.45-9.15 19.15Q12.6 30.1-.05 30.1q-12.6 0-21.65-7.65-2.85-2.5-4.8-5.3l-.9-6.5q-1.15-12.7 4.45-22.4l1.15-2 .9-.55.85-1.15.25-.9 2.6-2.3.25-.05.45-.35q-.85 5.05-.3 8.65.75 4.85 1.8 7.75Q-13.95.2-13.4 1l-1.1.7q-1.15.75-2.1 1.6-3.6 3.3-3.6 7.65 0 5.5 5.7 9.35 5 3.35 11.7 3.75l2 .1 1.45-.05-1.45.05-2-.1-.05-1 .35-3.65q.3-2.95.2-5.9l-.05-4.8 1.55.05h.6q.4.95.25 4.3-.2 3.35.1 7.55.15 3.05.5 3.5h.2q5.15-.25 9.3-2.25l2.4-1.05q1.3-.45 2-1.55l.6-.15.85-1.5.85-1.05q.45-.55 1.2-.95.5-1.4.45-3l.1-1.65q-.05-4.35-3.65-7.65L13.35 2l.25-.4h.35q3.2-3.2 6.05-8.45 2.8-5.25 0-12.2" fill="#fc3" fill-rule="evenodd" transform="translate(31.2 30.6)"/><path d="m14.3 3.8.4.3 2.4 1.95 1.2 2.55.15 3.65.05.35q-.4 2.1-1.65 3.95 1.25-1.85 1.65-3.95.05 1.6-.45 3-.75.4-1.2.95l-.3.3-.55.75-.85 1.5-.6.15q-.7 1.1-2 1.55l-2.4 1.05-3 1.15v-.25q2.7-7.65.15-15.1 3-1 5.6-2.7l1.4-1.15M16 17.6q-1.25 1.45-3.1 2.7l-2.75 1.55 2.75-1.55q1.85-1.25 3.1-2.7M-9.55 7.4l-1.8 13.65q-3.2-3.3.5.75-6.4-3.25-8.55-7.75-.55-4.85 1.55-8.8l.55-.55.5-.05q.3-.25.25-.55l.6-.25 1.45 1.1q2.25 1.5 4.95 2.45" fill="#9b7500" fill-rule="evenodd" transform="translate(31.2 30.6)"/><path d="m.05-25.35 1.1-.9.1-.2.05-.4v-.25l-.1-.2q-.5-.75-1.5-.55-.35.05-.7.4-1.4 1.6-2.35 3.55.15.95-.2 1.75-1 2.2-.6 4.7l.4.45.95 1.25.1.6q.75 2.75 3 4.25l.7-.45.3-.35q.2-.6-.25-1.1-3.75-4.65-2.25-10l.35-.7.9-1.85M.1-5.6Q-7.25-9.3-7-18.2q.1-3.05 1.15-5.3.8-1.85 2.25-3.15 3-2.7 8.6-3.15 1.35 1.95 1.9 4.25h-.1q-2.9 0-5 2.05-2.1 2.1-2.1 5 0 2.95 2.1 5 .95.95 2.1 1.5Q2.25-8.6.1-5.6m9.1-19.55q-.45-2.45-1.8-4.4 4.5 1.4 8.8 6.45l.1.15.6 1.55.95 3.25.25 3.35q-1.3 6.4-4.65 8.65T9.65-3.7l-2.1.15L3.8-4.2q2.1-3.3 2.75-7.2h.25q2.95 0 5.05-2.1 2.1-2.05 2.1-5 0-2.9-2.1-5-1.2-1.2-2.65-1.65m-.45 17.7-.1.6q3.5 1.5 6.7-1.85l.25-.65v-.4l-.05-.2q-.2-.75-1-.8Q12-9 9-7.9l-.25.45" fill="#6a4a15" fill-rule="evenodd" transform="translate(31.2 30.6)"/><path d="m6.9-25.55 2.3.4q1.45.45 2.65 1.65 2.1 2.1 2.1 5 0 2.95-2.1 5-2.1 2.1-5.05 2.1h-.25Q5.1-11.45 3.9-12q-1.15-.55-2.1-1.5-2.1-2.05-2.1-5 0-2.9 2.1-5 2.1-2.05 5-2.05h.1m1.2 5.1-.05.6q0 1.2.6 2.05.6.9 1.45.9t1.45-.9q.65-.85.65-2.05t-.65-2.05q-.6-.85-1.45-.85t-1.45.85l-.2.3-.25.4q-.25.4-.1.75m-6.65 3 .1.4Q2.7-14.95 4-14q2.7 1.6 5.25.85 2.75-.5 3.2-2.7-3.05 0-5.9-.9-3-1.3-2.15-6.25l1.35-1.45q-2 .3-3.5 2.3l-.8 1.45v.15L1-20.1q0 1.45.45 2.65" fill="#790632" fill-rule="evenodd" transform="translate(31.2 30.6)"/><path d="M1.45-17.45q.8 2.3 3.4 3.7l.35-.1.5-.35.2-.65v-.4l-.25-.35q-2.25-1.85-2.7-4.55l-.2-.2-.75-.4-.35.1-.2.1v-.15l.8-1.45q1.5-2 3.5-2.3L4.4-23q-.85 4.95 2.15 6.25 2.85.9 5.9.9-.45 2.2-3.2 2.7Q6.7-12.4 4-14q-1.3-.95-2.45-3.05l-.1-.4" fill="#9b094b" fill-rule="evenodd" transform="translate(31.2 30.6)"/><path d="m10.5-20.4.25-.1q.6-.3.6-.95l-.1-.2q-.2-.75-1-.8l-.35.1-.25.15-.7.25-.5.35.2-.3q.6-.85 1.45-.85t1.45.85q.65.85.65 2.05t-.65 2.05q-.6.9-1.45.9t-1.45-.9q-.6-.85-.6-2.05l.05-.6.3.3q.2.55 1 .7l.5-.2q.5-.25.6-.75" fill="#6c0635" fill-rule="evenodd" transform="translate(31.2 30.6)"/><path d="m9.65-22.2-.4.45-.05.2-.15.05-.65.6v.75l-.3-.3q-.15-.35.1-.75l.25-.4.5-.35.7-.25" fill="#feedf5" fill-rule="evenodd" transform="translate(31.2 30.6)"/><path d="m5-29.8-.2-.25 1.2.15 1.4.35q1.35 1.95 1.8 4.4l-2.3-.4q-.55-2.3-1.9-4.25M-5-.05Q-2.2-2.6.1-5.6q2.15-3 3.8-6.4 1.2.55 2.65.6Q5.9-7.5 3.8-4.2 2.35-2 .25-.05l-1.5 1.3Q-3.3 1-5-.05" fill="#835b01" fill-rule="evenodd" transform="translate(31.2 30.6)"/><path d="M10.5-20.4v-.2l-.1-.2q-.2-.75-1-.8l-.2.05.05-.2.4-.45.25-.15.35-.1q.8.05 1 .8l.1.2q0 .65-.6.95l-.25.1m-9.05-.15.2-.1.35-.1.75.4.2.2q.45 2.7 2.7 4.55l.25.35v.4l-.2.65-.5.35-.35.1q-2.6-1.4-3.4-3.7Q1-18.65 1-20.1l.45-.45" fill="#f404d7" fill-rule="evenodd" transform="translate(31.2 30.6)"/><path d="m9.2-21.55.2-.05q.8.05 1 .8l.1.2v.2q-.1.5-.6.75l-.5.2q-.8-.15-1-.7v-.75l.65-.6.15-.05" fill="#fee0fb" fill-rule="evenodd" transform="translate(31.2 30.6)"/><path d="m.05-25.35-.9 1.85-.35.7q-1.5 5.35 2.25 10 .45.5.25 1.1l-.3.35-.7.45q-2.25-1.5-3-4.25l-.1-.6-.95-1.25-.4-.45q-.4-2.5.6-4.7.35-.8.2-1.75.95-1.95 2.35-3.55.35-.35.7-.4 1-.2 1.5.55l.1.2v.25l-.05.4-.1.2-1.1.9m8.7 17.9L9-7.9q3-1.1 5.55-2.85.8.05 1 .8l.05.2v.4l-.25.65q-3.2 3.35-6.7 1.85l.1-.6" fill="#ad650e" fill-rule="evenodd" transform="translate(31.2 30.6)"/><path d="M36.2.8 36 .55m-9.8 30Q29 28 31.3 25M36.2.8q1.35 1.95 1.9 4.25m2.3.4q-.45-2.45-1.8-4.4m-.85 18.15q-.65 3.9-2.75 7.2-1.45 2.2-3.55 4.15l-1.5 1.3M35.1 18.6Q33.45 22 31.3 25" fill="none" stroke="#000" stroke-linecap="round" stroke-linejoin="round" stroke-width=".1"/><path d="m-6.15-26.25.45-.05" fill="none" stroke="#000" stroke-linecap="round" stroke-linejoin="round" transform="translate(31.2 30.6)"/><path d="m-5.7-26.3-.15.1-.05.05q-2.4 1.7-3.85 3.7l-.15.2q-6 8.1 2.85 20.5M7.4-29.55 6-29.9l-1.2-.15m11.5 7.1.6 1.55m1.2 6.6-.25-3.35-.95-3.25M8.55-1.05l2.4-1.6q6.95-5.2 7.15-12.15M-1.25 1.25Q-3.3 1-5-.05" fill="none" stroke="#5c3a03" stroke-linecap="round" stroke-linejoin="round" transform="translate(31.2 30.6)"/><path d="M4.8-30.05q-4.6-.4-9.4 2.7l-1.55 1.1m-.9 24.5.2.2L-5-.05m12.4-29.5q4.5 1.4 8.8 6.45l.1.15m.6 1.55 1.9 1.3 1.2 1.05 1.85 1.75q9 9.2 8.85 20.6-.15 11.45-9.15 19.15Q12.6 30.1-.05 30.1q-12.6 0-21.65-7.65-2.85-2.5-4.8-5.3-4.15-5.9-4.2-13.3-.1-10.9 7.25-20.1 2.45-3.15 5.6-5.3l2.1-1.3q3.25-1.85 7.15-2.75l2.5-.55h.2m4.65 27.4L.6 1.3q3.5-.25 6.35-1.5l1-.55h.1l.5-.3m-.5.3.3.1q1.9.7 3.65 1.75l1.35.9m.95 1.8.65-.5-1.6-1.3m.95 1.8-1.4 1.15q-2.6 1.7-5.6 2.7Q3.85 8.7-.2 8.75h-.6l-1.55-.05q-3.9-.2-7.2-1.3-2.7-.95-4.95-2.45l-1.45-1.1-.65-.55q.95-.85 2.1-1.6l1.1-.7 2.6-1.3q1.85-.8 3.95-1.25m17 23.4 2.75-1.55q1.85-1.25 3.1-2.7m.85-1.05q1.25-1.85 1.65-3.95l.1-1.65q-.05-4.35-3.65-7.65m-4.8 18.55Q6 23.85.85 24.1h-.2l-1.45.05-2-.1q-6.7-.4-11.7-3.75-5.7-3.85-5.7-9.35 0-4.35 3.6-7.65m33.45 13.25L16 17.6" fill="none" stroke="#5c3a03" stroke-linecap="round" stroke-linejoin="round" transform="translate(31.2 30.6)"/><path d="m38.1 5.05 2.3.4q1.45.45 2.65 1.65 2.1 2.1 2.1 5 0 2.95-2.1 5-2.1 2.1-5.05 2.1h-.25q-1.45-.05-2.65-.6-1.15-.55-2.1-1.5-2.1-2.05-2.1-5 0-2.9 2.1-5 2.1-2.05 5-2.05h.1" fill="none" stroke="#854a05" stroke-linecap="round" stroke-linejoin="round" stroke-width=".1"/><path d="M39.3 10.15q-.15-.35.1-.75l.25-.4.5-.35.7-.25m-1.25 2.05-.3-.3" fill="none" stroke="#b30237" stroke-linecap="round" stroke-linejoin="round" stroke-width=".1"/></g></defs></svg>