<svg viewBox="0 0 11.01 13.652" xmlns="http://www.w3.org/2000/svg" xmlns:xlink="http://www.w3.org/1999/xlink"><use transform="scale(.2056)" width="53.5" height="66.4" xlink:href="#a"/><defs><g id="a" transform="translate(26.75 33.2)"><use transform="translate(-26.75 -24.65)" width="53.5" height="57.85" xlink:href="#b"/><use transform="translate(-14.4 -33.2)" width="27.35" height="25.5" xlink:href="#c"/><use transform="translate(-11.7 -27.6)" width="19.7" height="15.25" xlink:href="#d"/><use transform="matrix(-1.3799 .2875 .2711 1.3014 10.302 -30.121)" width="8.1" height="8.1" xlink:href="#e"/></g><g id="b"><path d="M4.55-23.45q-.75-.2-.35-.9.15-.25.45-.3.9.25.4 1.05-.2.25-.5.15" fill="#b94a00" fill-rule="evenodd" transform="translate(26.75 24.65)"/><path d="m-11.1-7.25 8.2-.3Q2.9-6.8 8.25-3.1L6.3-1.35l-.4-.3Q1.4-4.8-4.2-5.3l-2.15-.1-2.45.15q-1.55-.9-2.3-2" fill="#ccc" fill-rule="evenodd" transform="translate(26.75 24.65)"/><path d="m14.2 29.25-.4.25q-3.25 1.95-7 2.9l2.05-1.75q5-5 6.05-11.55l.25-3.4v-.15l-.05-.95q-.4-8-6.25-13.8L6.3-1.35 8.25-3.1l.15.1 2.15 1.65q2.85 2.4 4.9 5.3 2.65 5.35 2.7 11.15v1.55q-.15 2.8-.9 5.7-.9 3.5-3.05 6.9m-40.5-15.9-.45-6.4V6.9l.05-2.05.2.75q.05-1 1.2-2.9 1.6-2.8 4.7-5.2 3.05-2.4 4.9-3.3l1.65-.7.95-.3 1.05-.2.8-.2.15-.05q.75 1.1 2.3 2l-.6.05-4.3 1-.45.2-1.8.75-.15.1L-18-1.9Q-19.7-.85-22.75 3t-3.55 10.35" fill="#fff" fill-rule="evenodd" transform="translate(26.75 24.65)"/><path d="m16.95-13.35 1.95 1.75q6.75 6.65 7.7 15.65l-.5 2-.1.2q-1.1 7.5-7.85 8.85-.05-5.8-2.7-11.15-2.05-2.9-4.9-5.3L8.4-3q2-1.25 3.8-2.85 3.6-3.25 4.75-7.5M-26.7 4.85l.25-2.1.2-1.3.65-2.45q.9-2.9 2.55-5.5 1.65-2.7 4.1-5.1l3.45-2.9.4 1.15q1.4 3.35 3.85 6.15l-.8.2-1.05.2-.95.3-1.65.7q-1.85.9-4.9 3.3-3.1 2.4-4.7 5.2-1.15 1.9-1.2 2.9l-.2-.75" fill="#c5d1d8" fill-rule="evenodd" transform="translate(26.75 24.65)"/><path d="M-15.5-14.5q6.2-3.75 13.35-4.7 5.2-.4 10.15 1.25l4.35 1.55q2.4 1.25 4.6 3.05-1.15 4.25-4.75 7.5Q10.4-4.25 8.4-3l-.15-.1Q2.9-6.8-2.9-7.55l-8.2.3-.15.05q-2.45-2.8-3.85-6.15l-.4-1.15m4.3 45.4q-2.6-1.2-4.9-2.95l.25-.5q3.35-5.75 6.35-11.7 2.8 2.55 6.15 3.95l-3.7 5.65q-2 2.95-4.15 5.55" fill="#6d8f9c" fill-rule="evenodd" transform="translate(26.75 24.65)"/><path d="m26.6 4.05.15 2.9q-.05 8.8-5.15 15.55l-2.45 2.8-.25.2-4.7 3.75q2.15-3.4 3.05-6.9.75-2.9.9-5.7V15.1Q24.9 13.75 26 6.25l.1-.2.5-2" fill="#5e7c88" fill-rule="evenodd" transform="translate(26.75 24.65)"/><path d="M6.8 32.4q-3.25.8-6.8.8l-2.75-.1q3.95-.15 10.95-6.55t-1.3-5.3l-1.75.05q-4.6 0-8.5-1.6-3.35-1.4-6.15-3.95l-.6-.6q-3.95-3.95-5.9-10.3-5.85-1.6-9.05 11.6l-1.25-3.1q.5-6.5 3.55-10.35T-18-1.9l1.9-1.25.15-.1 1.8-.75q0 3.05.35 4.45 1.95 6.35 5.9 10.3l.6.6q2.8 2.55 6.15 3.95 3.9 1.6 8.5 1.6l1.75-.05q3.15-.25 6-1.3l.05.15-.25 3.4q-1.05 6.55-6.05 11.55L6.8 32.4" fill="#34454b" fill-rule="evenodd" transform="translate(26.75 24.65)"/><path d="M-2.75 33.1q-4.55-.45-8.45-2.2 2.15-2.6 4.15-5.55l3.7-5.65q3.9 1.6 8.5 1.6l1.75-.05q8.3-1.1 1.3 5.3T-2.75 33.1m-13.35-5.15-2.85-2.45q-4.15-4.1-6.1-9.05 3.2-13.2 9.05-11.6 1.95 6.35 5.9 10.3l.6.6q-3 5.95-6.35 11.7l-.25.5" fill="#54717a" fill-rule="evenodd" transform="translate(26.75 24.65)"/><path d="M11.25 10.15q6.2-3.75 13.35-4.7 5.2-.4 10.15 1.25l4.35 1.55q2.4 1.25 4.6 3.05l1.95 1.75q6.75 6.65 7.7 15.65l.15 2.9q-.05 8.8-5.15 15.55l-2.45 2.8-.25.2-4.7 3.75-.4.25q-3.25 1.95-7 2.9-3.25.8-6.8.8l-2.75-.1q-4.55-.45-8.45-2.2-2.6-1.2-4.9-2.95L7.8 50.15q-4.15-4.1-6.1-9.05L.45 38 0 31.6v-.05l.05-2.05.25-2.1.2-1.3.65-2.45q.9-2.9 2.55-5.5 1.65-2.7 4.1-5.1l3.45-2.9m6.7 9.25 2.45-.15 2.15.1q5.6.5 10.1 3.65l.4.3 2.55 2.15q5.85 5.8 6.25 13.8l.05.95v.15l-.25 3.4Q40.6 50.3 35.6 55.3l-2.05 1.75M12.6 20.65l-1.8.75-.15.1-1.9 1.25Q7.05 23.8 4 27.65T.45 38M12.6 20.65l.45-.2 4.3-1 .6-.05m23.9 20.8q-2.85 1.05-6 1.3l-1.75.05q-4.6 0-8.5-1.6-3.35-1.4-6.15-3.95l-.6-.6q-3.95-3.95-5.9-10.3-.35-1.4-.35-4.45M41.9 40.2h-.05" fill="none" stroke="#34454b" stroke-linecap="round" stroke-linejoin="round" stroke-opacity=".631" stroke-width=".05"/></g><g id="f"><path d="m3.25-12.5 2.1.65q3.3 1.35 5.6 4.25l.5.65q1 1.5 1.6 3.1.9 2.7.45 5.75l-.2 1.15q-.65 2.5-2.25 4.5l-2.4 2.3-.45.3q-1.5 1-3.05 1.6-2.2.8-4.6.8h-.4l-2.1-.2-3.45-.95q-3.25-1.35-5.5-4.2-3.05-3.8-2.75-8.3l.15-1.15.6-2.4q1.3-3.55 4.7-5.9l.6-.4q2.95-1.8 6.3-1.95l2.75.1.5.05 1.3.25M2.4-1.95l-.25-.1-.45.25q-.25.45 0 .7l.2-.4.5-.45" fill="url(#g)" fill-rule="evenodd" transform="translate(13.7 12.95)"/><path d="m16.1 11-.25-.1-.45.25q-.25.45 0 .7l.2-.4.5-.45" fill="none" stroke="red" stroke-linecap="round" stroke-linejoin="round" stroke-width=".05"/><path d="m16.95.45 2.1.65q3.3 1.35 5.6 4.25l.5.65q1 1.5 1.6 3.1.9 2.7.45 5.75L27 16q-.65 2.5-2.25 4.5l-2.4 2.3-.45.3q-1.5 1-3.05 1.6-2.2.8-4.6.8h-.4l-2.1-.2-3.45-.95Q5.05 23 2.8 20.15q-3.05-3.8-2.75-8.3L.2 10.7l.6-2.4q1.3-3.55 4.7-5.9l.6-.4Q9.05.2 12.4.05l2.75.1.5.05 1.3.25" fill="none" stroke="red" stroke-linecap="round" stroke-linejoin="round" stroke-opacity=".592" stroke-width=".05"/></g><path d="M-4.55-25q.55 1.1.4 2.1l.2-.05 1-.1q.5.15.7.7.25.5.1 1-.2.45-.7.7l-1 .05q-.45-.2-.7-.65l-.05-.3Q-5.25-20.5-6.35-20l-2.85.1q-1.45-.5-2.15-1.9-.6-1.4-.1-2.85.55-1.45 1.9-2.15l2.9-.15q1.45.55 2.1 1.95M.7-27.4l1.45-.1q.75.3 1.05 1 .35.7.1 1.45-.25.7-1 1.05l-1.45.05q-.7-.25-1.05-.95-.3-.7-.05-1.4.25-.75.95-1.1m-5.35 11.35v.35l-.2.3h-.35l-.25-.2-.05-.4.25-.25h.35l.25.2m10.5-2.6q1.3.45 1.8 1.7.6 1.15.15 2.45t-1.7 1.9l-2.45.05Q2.4-13 1.75-14.2q-.5-1.2-.05-2.5t1.6-1.85l2.55-.1" fill="#fe1f1f" fill-rule="evenodd" transform="translate(11.7 27.6)" id="d"/><path d="M4.05-4.05q1.7 0 2.85 1.15Q8.1-1.7 8.1 0T6.9 2.85q-1.15 1.2-2.85 1.2t-2.9-1.2Q0 1.7 0 0t1.15-2.9q1.2-1.15 2.9-1.15" fill="url(#h)" fill-rule="evenodd" transform="translate(0 4.05)" id="e"/><radialGradient id="h" cx="0" cy="0" r="819.2" gradientTransform="translate(4.05) scale(.0051)" gradientUnits="userSpaceOnUse"><stop stop-color="#fff" offset="0"/><stop stop-color="#fff" stop-opacity="0" offset="1"/></radialGradient><linearGradient id="g" x1="-819.2" x2="819.2" gradientTransform="matrix(.0203 -.0244 .0126 .0105 13.85 -16.8)" gradientUnits="userSpaceOnUse"><stop stop-color="#f85656" offset="0"/><stop stop-color="#fa7272" offset=".055"/><stop stop-color="#faafb0" stop-opacity="0" offset="1"/></linearGradient><use width="27.35" height="25.5" xlink:href="#f" id="c"/></defs></svg>