<svg viewBox="0 0 52.223 77.826" xmlns="http://www.w3.org/2000/svg" xmlns:xlink="http://www.w3.org/1999/xlink"><use transform="translate(0 .03)" width="52.2" height="77.8" xlink:href="#a"/><defs><g id="a"><path d="M275 166.45q-.7-1.85-4.4-2.3-7.3-.65-8.65 2.5-.5 1.15-.15 2.65l.05.35q4.8 11 13.8 10.4l.7-4.55 2.6 3.4-1.2 2.55q-7.75.6-15.05-5.1l-1.3-2.95q-1.2-2.7-1.4-4.7-.35-2.85 1.1-4.45.8-.85 2-1.35 12.05-3.65 14 4.55l-.85 3.4q-1.25-.45-1.15-2.9l-.1-1.5m-4.4 5.5q-.3 1 1.1 1.85l-2.85-.35q-1.3-3.75.8-4.4-.35 2.1.45 2.7.2.2.5.2" fill="#693" fill-rule="evenodd" transform="translate(-248.85 -161.55)"/><path d="M262.7 176.35q7.3 5.7 15.05 5.1l-1.25 2.75q-6.15 1.05-10.4-3.2-1.85-1.9-3.4-4.65" fill="#55802b" fill-rule="evenodd" transform="translate(-248.85 -161.55)"/><path d="M275.1 167.95q-.1 2.45 1.15 2.9-1.4 2.75-4.35 2.95h-.2q-1.4-.85-1.1-1.85 1 .25 3.15-.95l.05-.05q1.1-1.7 1.3-3" fill="#94c95f" fill-rule="evenodd" transform="translate(-248.85 -161.55)"/><path d="m28.9 19.9 1.2-2.55-2.6-3.4-.7 4.55q-9 .6-13.8-10.4l-.05-.35q-.35-1.5.15-2.65 1.35-3.15 8.65-2.5 3.7.45 4.4 2.3m1.25 4.4.85-3.4q-1.95-8.2-14-4.55-1.2.5-2 1.35-1.45 1.6-1.1 4.45.2 2 1.4 4.7l1.3 2.95m15.05 5.1-1.25 2.75q-6.15 1.05-10.4-3.2-1.85-1.9-3.4-4.65m12.4-8.4q-.2 1.3-1.3 3l-.05.05q-2.15 1.2-3.15.95m1.3 1.85q2.95-.2 4.35-2.95m-6.15.9q-.8-.6-.45-2.7-2.1.65-.8 4.4l2.85.35" fill="none" stroke="#000" stroke-linecap="round" stroke-linejoin="round" stroke-opacity=".6" stroke-width=".5"/><path d="M296.35 171.05q-1.45 3.15-2.8 5.15l-6.95.85 4.65 1.55q-5.25 4.25-17 5.65v-.05l.3-.5 10.2-7.9 11.6-4.75" fill="#693" fill-rule="evenodd" transform="translate(-248.85 -161.55)"/><path d="M274.55 183.7q6.05-12.65 21.85-12.8l-.05.15-11.6 4.75-10.2 7.9" fill="#94c95f" fill-rule="evenodd" transform="translate(-248.85 -161.55)"/><path d="M47.5 9.5q-1.45 3.15-2.8 5.15l-6.95.85 4.65 1.55q-5.25 4.25-17 5.65v-.05m.3-.5Q31.75 9.5 47.55 9.35" fill="none" stroke="#000" stroke-linecap="round" stroke-linejoin="round" stroke-opacity=".6" stroke-width=".5"/><path d="m254 197.3-3.25-5.8.2-.05h.05q2.85.1 4.85 2.8l.15.25v.1l-2 2.7m42.75-13.65q-.5 2.9-1.8 5.75l-.05-.05-.1.4-.65 1.6v.5l-.45.8-.15-.05.1.1-.05.05h-.1q-1.3 4.15.35 9.65-.85-2.6-2.35-4.45l-2.15-2.35.45-.2h-.3v-.05h-.3q-1.95-3.45-1.5-5.9.65 1.05 1.75 1.8 1.55 1 4.05 1.5-2.5-.5-4.05-1.5l7.3-7.6m-1.9 48.25 1.95 3.4-6.55-1.9q-2.3 1.3-5 2.45l2.7-3.85.2-.5.15-.35 6.55.75m-21.05 6.95h-.25l-2.6-.3q-1.1-1.75-1.15-3.35v-.1q0-.8.3-1.55l1.15.25 2.9.15.9-.05 1.5-.5q-1 1-1.65 2.2-.8 1.55-1.1 3.25m-17.8-8.4q.6-1.7 2-3.5l2.35 2.25.1.15-4.45 1.1m-5.45-14.1-.35-1.25-.2-1.55.15-.6q.7-2.3 2.75-2.5-.65 1.7.85 3.35l.45.5-.1.05v.1l-1.3.15q-1.4.3-2.25 1.75m43.15-23.7.45-1.3-.45 1.3m-3.45 40.75-2.45-.85.15-.55-.15.55 2.45.85" fill="#4b7225" fill-rule="evenodd" transform="translate(-248.85 -161.55)"/><path d="M256 194.6v-.05l.75-.9.6-.8q6.3-8.2 12.05-9.9l.5-.1 3-.3q8.4.5 12.95 1.8l2.85 1.1q3.8-3.05 8.4-5.4l-.05 1.15-10 6.75.05.1-7.55-2.1.05.55-6.65-1.1-7.8 1.5-6.45 6.15-2.8 3.35.1-1.8m38.95-5.2.15.15.45.6v-.05l1.05 1.3q4.5 6 4.2 17.7l-.3 4.7-.2 1.55q-.65 5.15-2.75 9.25l1.15-7.25.3-7.05-2.5-12.4.55-.8-3.4-4.4-.1-.1.15.05.45-.8v-.5l.65-1.6.15-.35m-45.3 15.15.5-1.3.8-1.5.45-.8 1.35-1.9-.85 2.35-2.25 3.15m39.05-19.1-1.85 1.45.2 1.05-.2-1.05 1.85-1.45m4.95 7.25.05-.05-.05.05m1.25 17.5-.05 1.75-5.25 1.4 5.3-3.15m-8.55 19.1q-1.1 1.65-4.95 3.65l-.35.8-6.15 1.85q.65-1.2 1.65-2.2l-1.5.5-1.75-6.65q2.55 1.35 3.6 5.95l3.85-1.15q3.25-1.25 5.6-2.75m-32.8-20.05 5.4 2.65-2.15 1.1-3.85-2.75.6-1m.55 5.2.2 1.35q1.15 4.1 2.6 5.85l4.55 5.45 4.3 4.55q1.3 1.1 4.35 1.9-.3.75-.3 1.55-2.1-.15-4.15-2.2l-8.5-8.6-3.2-4.6-1.15-5.1 1.3-.15m22.45 18.95.35-.2-.35.2" fill="#b9d77b" fill-rule="evenodd" transform="translate(-248.85 -161.55)"/><path d="m254 197.3 2-2.7-.1 1.8 2.8-3.35 6.45-6.15 7.8-1.5 6.65 1.1-.05-.55 7.55 2.1.6 1.4-.6-1.4-.05-.1 10-6.75-.3 2.45-7.3 7.6q-1.1-.75-1.75-1.8-.45 2.45 1.5 5.9h-.05q-3.05-3-5.9-3.8-2.85-.85-6.1-1.05-2.6-.2-5.5 0l-1.15.15q-2.8.25-5.75 1.7-2.4 1.2-5.6 5.25-.8.9-2.4 3.85l-1.85 3.6-.35.75-.1.35q-.7 1.4-.9 2.95v.15l-.6 1-.05.2q-2.05.2-2.75 2.5l-.15.6-.35-2.05q-.6-2.05-.55-3.55l.1-1.6q.15-.95.45-1.8l2.25-3.15.85-2.35 1.25-1.75m2-2.75v-.05l-.15-.25q-2-2.7-4.85-2.8 3.95-.75 6.35 1.4l-.6.8-.75.9m41.55 30.05-.15.3q-1.45 2.85-3.65 5.15l1.1 1.85-6.55-.75q1.1-2.3 4.05-3.35l1.4 2.25-1.4-2.25q-2.95 1.05-4.05 3.35l-.15.35-.2.5-2.7 3.85-2.05.9q-3.95 1.5-9.45 2.35l.05-.25q.3-1.7 1.1-3.25l6.15-1.85.35-.8q3.85-2 4.95-3.65l1.25-1 .3-.2q5.45-4.55 6.6-11.8v-.35l.25-2.15.1-1.85.05-1.75v-1.1q-.1-3.8-1.05-6.7-1.65-5.5-.35-9.65h.1l.05-.05 3.4 4.4-.55.8 2.5 12.4-.3 7.05-1.15 7.25m-26.6 13.95q-2.9-1.25-4.65-2.8l-4.85-5.3q-2.75 1.45-5.8 1.45.05-.75.35-1.45l4.45-1.1-.1-.15-2.35-2.25q-3.35-3.25-4.15-4.3-2.2-2.65-3.25-6.25l-.05-.05q.85-1.45 2.25-1.75l1.15 5.1 3.2 4.6 8.5 8.6q2.05 2.05 4.15 2.2v.1q.05 1.6 1.15 3.35m2.8-43.35 2.85-2.75-1.85 4.4-1-1.65m0 43.9q.85-.25.05-.25.8 0-.05.25m-13.3-9.75 1 1.1-1-1.1" fill="#693" fill-rule="evenodd" transform="translate(-248.85 -161.55)"/><path d="M271.65 190.5q2.9-.2 5.5 0l-.55 1.95-2.85 2.75q-1.5-2.55-2.1-4.7m23.2 21.45-.1 1.85-.25 2.15v.35l-4.95-2.95h.05l5.25-1.4M256.8 213l-2.6 1.3-.45-.5q-1.5-1.65-.85-3.35l.05-.2 3.85 2.75m14.45 20.8q.45-3.65 1.25-6.85l.8.3 1.75 6.65-.9.05-2.9-.15" fill="#35501b" fill-rule="evenodd" transform="translate(-248.85 -161.55)"/><path d="M2.15 29.9H2.1l-.2.05 3.25 5.8 2-2.7V33m-5-3.1q3.95-.75 6.35 1.4 6.3-8.2 12.05-9.9m19.3 2.5q3.8-3.05 8.4-5.4l-.05 1.15-.3 2.45q-.5 2.9-1.8 5.75l.15.15.45.55 1.05 1.3q4.5 6 4.2 17.7l-.3 4.7-.2 1.55q-.65 5.15-2.75 9.25m-.15.3Q47.1 66.2 44.9 68.5l1.1 1.85 1.95 3.4-6.55-1.9q-2.3 1.3-5 2.45l-2.05.9q-3.95 1.5-9.45 2.35m.05-.25h-.25l-2.6-.3q-2.9-1.25-4.65-2.8l-4.85-5.3q-2.75 1.45-5.8 1.45.05-.75.35-1.45.6-1.7 2-3.5Q5.8 62.15 5 61.1q-2.2-2.65-3.25-6.25m-.05-.05-.35-1.25-.2-1.55-.35-2.05Q.2 47.9.25 46.4l.1-1.6Q.5 43.85.8 43l.5-1.3.8-1.5.45-.8 1.35-1.9 1.25-1.75M8.5 31.3l-.6.8-.75.9M4.7 47.7v-.15q.2-1.55.9-2.95l.1-.35.35-.75 1.85-3.6q1.6-2.95 2.4-3.85 3.2-4.05 5.6-5.25 2.95-1.45 5.75-1.7l1.15-.15q2.9-.2 5.5 0 3.25.2 6.1 1.05 2.85.8 5.9 3.8m-1.45-5.9-.6-1.4-.05-.1-.2-1.05 1.85-1.45m-12.1 7 .55-1.95m-3.4 4.7 1 1.65 1.85-4.4m12.85-1.2q-1.1-.75-1.75-1.8m1.65 6.15 2.15 2.35q1.5 1.85 2.35 4.45.95 2.9 1.05 6.7v1.1L46 50.4l-.1 1.85-.25 2.15v.35q-1.15 7.25-6.6 11.8l-.3.2-1.25 1m7.15-36.55q-2.5-.5-4.05-1.5m-17.8-.75q.6 2.15 2.1 4.7m21.15-5.85.05.05-.15.35-.65 1.6-.45 1.3-.1.1h-.1m2.05-2.65v.05l-.45-.6m-.2-.2-.1.4m-21 49.1q.8 0-.05.25m14.55-7.95q1.1-2.3 4.05-3.35l1.4 2.25m-4.15-16.7h-.05l4.95 2.95M4.7 47.7l5.4 2.65-2.15 1.1-2.7 1.35v.1M16.9 70.1q1.3 1.1 4.35 1.9l1.15.25q.45-3.65 1.25-6.85l.8.3q2.55 1.35 3.6 5.95l3.85-1.15q3.25-1.25 5.6-2.75M5.6 44.6l.45-1.1m6.55 25.4-1-1.1-.1-.15-2.35-2.25m30.3 4.2-.15.35m-.2.5-.15.55 2.45.85m-13.35-.2-.35.2-1.5.5-.9.05-2.9-.15m23.65-23.6-5.3 3.15m-36.7-2.9.05-.2.6-1m.65 5.05-.45-.5q-1.5-1.65-.85-3.35" fill="none" stroke="#000" stroke-linecap="round" stroke-linejoin="round" stroke-opacity=".6" stroke-width=".5"/><path d="m21.05 21.3 3-.3q8.4.5 12.95 1.8l2.85 1.1m-34.6 29 .2 1.35q1.15 4.1 2.6 5.85l4.55 5.45 4.3 4.55" fill="none" stroke="#f3e8a3" stroke-linecap="round" stroke-linejoin="round" stroke-width=".5"/></g></defs></svg>