<svg width="56" height="76" viewBox="265.55 178.12 56.204 76.152" xmlns="http://www.w3.org/2000/svg" xmlns:xlink="http://www.w3.org/1999/xlink"><defs><g id="a"><path d="m44.05 96.1-.45 2.15 1.85-28.3L72.3 34 45.45 69.95l-1.85 28.3.45-2.15M49.3 1.65q9.4-2 19.8-3.3Q79.5-3 89.05 4.85 54.3 120.4 28.5 208.5q-4.8-25.65-10.65-44.85Q12.15 106.35 24 49 29.95 4.35 49.3 1.65m-5.7 96.6L26.45 182.2 43.6 98.25m5.05-78.9-3.2 50.6 3.2-50.6" fill="#96651d" fill-opacity=".471"/><path d="M49.3 1.65q9.4-2 19.8-3.3Q79.5-3 89.05 4.85 54.3 120.4 28.5 208.5q-4.8-25.65-10.65-44.85Q12.15 106.35 24 49 29.95 4.35 49.3 1.65" fill="none" stroke="#000" stroke-opacity=".341" stroke-width="4"/><path d="M72.3 34 45.45 69.95l-1.85 28.3.45-2.15m1.4-26.15 3.2-50.6M26.45 182.2 43.6 98.25" fill="none" stroke="#000" stroke-opacity=".251" stroke-width=".5"/></g><g id="c"><path d="M44.9 55.55q1.5-7.05 5.95-13.65 6.65-9.85 20.1-18.15l1.6-.9 5.1 6.55-5.1-6.55q4.6-2.8 9.3-4.95 8.1.75 14.4 2.25l-18.6 9.25q-21.6 13.9-28.2 32.25L49 63.3l-3 12.4-1.35-5.8q-.15-6.15.25-14.35l.6 1.15-.05-.4-.55-.75" fill="#fff"/><path d="M44.65 69.9 46 75.7l3-12.4.45-1.65q6.6-18.35 28.2-32.25l18.6-9.25q-6.3-1.5-14.4-2.25 6.9-3.35 15.2-6.5 9.25-3 16.5-7.4 17.65 4.95 22.6 12.6l-20.25 6.35 12.8 18-8.4 15.6-8.85 3.05 5.25-13.65.4-1.25q3.35-11.2-5.05-17.85-5.45-4.3-15.8-6.7 10.35 2.4 15.8 6.7L96.85 39.7l-17.3 27.55-.75.3Q58.2 72 52.05 75.25q-3.35 1.8-4 2.65L46 75.7q-.75-2.55-1.35-5.8m149.5-39.95-5.45 14.6-9.6-22.4q-4.85-10-16-16.8 6.5 8.8 7.6 15.3l-13.8-2q-8.95-9.05-31.35-14.5Q142.9.9 161.35 0q15.5 5.15 32.05 22 2.3 3.4.75 7.95" fill="#f2e4c1"/><path d="M38.6 6q2.45-.05 4.2 1.7 1.8 1.8 1.8 4.3 0 2.45-1.8 4.2-1.75 1.8-4.2 1.8-2.5 0-4.3-1.8-1.75-1.75-1.7-4.2-.05-2.4 1.7-4.3 1.5-1.5 3.7-1.65l.6-.05M9 29.4l1.55 1.15q1.8 1.8 1.8 4.4 0 2.5-1.8 4.35-1.85 1.8-4.35 1.8-2.6 0-4.4-1.8Q0 37.45 0 34.95q0-2.6 1.8-4.4t4.4-1.8q1.5 0 2.8.65" fill="#e98727"/><path d="m61.85 92.55-8-8.45-3.9-4.2q-2.1-.15-1.2-1.25-1.3-.05-.7-.75.65-.85 4-2.65Q58.2 72 78.8 67.55l.55-.1.15-.05q7.2-1.8 15.9-3.3h14.3l7 7.35-7-7.35 1.75-4.5q22.1 4.4 41.25 0 5.2-18.3-9.2-36.65 15.35 7.85 20 31.6h12.8q4.4-11.2 0-26.8l10.4 23.2v12.8h4.8q8.95-2.7 10.2-19.35l1.05 4.15q3.9 18.65-8.95 26.2l-16.6-6.85h-30.1l-30.4 3.55-5.25 5.6-16.05 10.5-2.3 5.6 2.1 4.65-.05.05h-14l-19.3-5.3M49.95 79.9l-1.2-1.25-.7-.75.7.75 1.2 1.25" fill="#8f7f5f"/><path d="m53.85 84.1 8 8.45-5.7 19.2q-3.45-.75-5.4-1.65-3.85-1.7-2.3-3.95l5.4-22.05m47.55 17.6q2.95 1.6 5.7 3.75l-5.6 9.5-6.25-2.55 6.15-10.7m10.05 7.6 12.45-.05 7.3 5.55-5.55 8.9q-8-7.1-9.3-8.75-2.3-3.2-4.9-5.65m76.35 9.95-3.3 5.2q0-8.05-2.85-16.65l6.15 11.45" fill="#995210"/><path d="M112.05 26.85q8.4 6.65 5.05 17.85l-.35.9-.05.35-5.25 13.65 8.85-3.05 8.4-15.6-12.8-18 20.25-6.35Q131.2 8.95 113.55 4q5.65 1.45 8.15.9l3.85-.75q22.4 5.45 31.35 14.5l13.8 2q-1.1-6.5-7.6-15.3 11.15 6.8 16 16.8l9.6 22.4 5.45-14.6q5.05 6.35 7.55 14.45-1.25 16.65-10.2 19.35h-4.8v-12.8l-10.4-23.2q4.4 15.6 0 26.8h-12.8q-4.65-23.75-20-31.6 14.4 18.35 9.2 36.65-19.15 4.4-41.25 0l-1.75 4.5H95.4q-8.7 1.5-15.9 3.3l-.15.05-.55.1.75-.3 17.3-27.55 15.2-12.85m-32.5 40.4-.2.2.2-.2" fill="#b5a179"/><path d="m61.85 92.55 19.3 5.3h14l.05-.05-2.1-4.65 2.3-5.6 16.05-10.5 5.25-5.6 30.4-3.55h30.1l16.6 6.85 3.2 4.9v7l8.4 21.05-14.3 6.35-3.3 5.2-6.15-11.45-2.65-6.7-6.25.1-15.1-3.7 3.35 8.45h-24.25l-5.55 8.85-7.3-5.55-12.45.05v-.05l-.95-.9-3.4-2.9 3.4 2.9.95.9q-1.85 2.7-2.6 4.95-.9 2.4-1.8 3.1h-6.8l-5-4.9 6.25 2.55 5.6-9.5q-2.75-2.15-5.7-3.75-6.4-3.4-6.25-3.85h.1-.1l-14.7 9.6-4.85 4.3H56.15l5.7-19.2M159.3 75.7l3.85 6.75-8.9 6.6 3.4 8.45-3.4-8.45 8.9-6.6-3.85-6.75M95.25 97.85l-.05-.05.05.05" fill="#6b3a0b"/><path d="M50.75 110.1q1.95.9 5.4 1.65H75.6l4.85-4.3v8.05q-4 8.85-6.7 16.2-3.5 9.45-4.9 16.35-1.1 5.1-1.3 10.3-.45 8.6 1.35 17.5l2.15 3.2 5.25 7.9q.1-9.65 1.45-18.9 2.7-19.25 10.7-37.1 2.65-5.9 5.85-11.6l9.65 4.9q-2.2 1.85-2.65 3l-1 3.1q-2.35 8-2.35 18.6 0 25.4 11.45 44.65l1.75 2.8-16.5 2.75-9.45 1.55-16.05-6.75q-2.65-.2-4.7-.05l-20.9-9.1q-11.7-18.25-6.9-51.2l.6-3.95q1.55-9.05 4.25-19.1l16.8 5.6-7.55-6.05m86-4.15H161l18.75 12.45 2.45 7.75 1.6 5.95.25 1.1 2.45 10.85.25 2.25 4.35-32.25 14.3-6.35 7.55 4.2q1.2 6.2 1.9 12.6 1.3 12.4.65 25.25-1.7 31.1-12.8 44.65-11.15 13.55-16.95 15.65h-.05v.05q-11.9 14.4-23.2 11.7l-3.65.5-9.7-.1q-6.3 1.95-11.95 2.25-7.4.35-13.75-2.15l-32.9.2h-1.4l-4.05-.2q-10.6-.9-19.75-6.45 42.45 3.75 57.15-5.35 3.5-2.2 5.4-5.15 17.75-21.85 17.6-55.6l-8.75-43.8m35.7 90.7q9.65-16.85 14.2-42.8.3-4.35.1-7.55.2 3.2-.1 7.55-4.55 25.95-14.2 42.8m-23.3 25.55q15.65-10.5 6.7-17.4-11.8-8.6-27.65 11.1-2.35 2.9-4.75 6.4 2.4-3.5 4.75-6.4 15.85-19.7 27.65-11.1 8.95 6.9-6.7 17.4m-54.5-23.05q-2-10.8 6.4-9 3.35.75 8.35 3.45-5-2.7-8.35-3.45-8.4-1.8-6.4 9m91.05 10.9q-3.05-10.85-23.2 11.75 20.15-22.6 23.2-11.75" fill="#c27b12"/><path d="M40.05 194.15q-14.2-14.85-12.55-36.4 1.15-15.3 2.4-23.8.55-3.9 1.15-6.4l.85-3q2.2-7.55 7.65-20v4.2l-6.05 26.2q-5.25 22.55 0 44.4l6.55 14.8m151.05-80.1-4.35 32.25-.25-2.25-2.45-10.85-.25-1.1.65-6.05.05-1.6 6.6-10.4m-65.45 9.65 6.65 31.45-6.6 27.4-14.55 13.85q2.7-2.7 8.55-12t6.45-27.1q.55-17.75-.8-25.1l-.8-3.1-.85-2.3.65-1 1.3-2.1m-35-10.1v3.75l-7.35 15.2q-8.4 23.25-12.25 46.5l-2.15-3.2 9.7-37.3q.9-3.7 2.2-7.2 3.55-9.55 9.85-17.75m-17.5 83.6q7.45 3.95 10.8 4.4t3.35 1.05-3.35 1.05l-8.05.45-8.05-.45q-3.35-.45-5-3.45-1.65-3.05.6-5.05t9.7 2" fill="#fde279"/><path d="M48.45 106.15q-1.55 2.25 2.3 3.95l7.55 6.05-16.8-5.6q-2.7 10.05-4.25 19.1l-.6 3.95q-4.8 32.95 6.9 51.2l20.9 9.1q2.05-.15 4.7.05l16.05 6.75 9.45-1.55 16.5-2.75 14.55-13.85 6.6-27.4-6.65-31.45 5.55-8.9 5.55-8.85 8.75 43.8q.15 33.75-17.6 55.6-1.9 2.95-5.4 5.15-14.7 9.1-57.15 5.35-8.75-5.35-24.15-20.5l-1.15-1.2-6.55-14.8q-5.25-21.85 0-44.4l6.05-26.2v-4.2l8.9 1.6m16.9 109.7q-9.35-12.25-8-17.7.9-3.8 7.1-4.25-6.2.45-7.1 4.25-1.35 5.45 8 17.7m43.5-101.65 3 4.5q-5.25 3.3-7.9 5.55l-9.65-4.9q-3.2 5.7-5.85 11.6-8 17.85-10.7 37.1-1.35 9.25-1.45 18.9l-5.25-7.9q3.85-23.25 12.25-46.5l7.35-15.2v-3.75l4.6-1.2 5 4.9h6.8q.9-.7 1.8-3.1m-35.7 83q-7.45-4-9.7-2t-.6 5.05q1.65 3 5 3.45l8.05.45 8.05-.45q3.35-.45 3.35-1.05t-3.35-1.05-10.8-4.4" fill="#e3ac2d"/><path d="m72.55 22.85-1.6.9q-13.45 8.3-20.1 18.15-4.45 6.6-5.95 13.65-.4 8.2-.25 14.35m33-40.5-5.1-6.55Q44.3-6.85 41.2 6.05M81.85 17.9q-4.7 2.15-9.3 4.95m23.7-2.7q-6.3-1.5-14.4-2.25l-3.25-.3m17.65 2.55q10.35 2.4 15.8 6.7 8.4 6.65 5.05 17.85l-.35.9-.05.35-5.25 13.65m2.1-55.6q-7.25 4.4-16.5 7.4-8.3 3.15-15.2 6.5M38 6.05l.6-.05m9.45 71.9L46 75.7q-.75-2.55-1.35-5.8m9.2 14.2 8 8.45 19.3 5.3h14.1-.1q-.15.45 6.25 3.85 2.95 1.6 5.7 3.75l3.4 2.9.95.9v.05q2.6 2.45 4.9 5.65 1.3 1.65 9.3 8.75M95.4 87.55l16.05-10.5m5.25-5.6-7-7.35H95.4q-8.7 1.5-15.9 3.3l-.15.05-.55.1Q58.2 72 52.05 75.25q-3.35 1.8-4 2.65l.7.75 1.2 1.25 3.9 4.2-5.4 22.05q-1.55 2.25 2.3 3.95 1.95.9 5.4 1.65H75.6l4.85-4.3 14.7-9.6M49.95 79.9q-2.1-.15-1.2-1.25-1.3-.05-.7-.75m31.3-10.45.2-.2-.75.3m52.4 47.25 5.55-8.85H161l-3.35-8.45-3.4-8.45 8.9-6.6-3.85-6.75m34.85-45.75q1.55-4.55-.75-7.95-16.55-16.85-32.05-22-18.45.9-35.8 4.15l-3.85.75q-2.5.55-8.15-.9m-3.85 60.1 1.75-4.5m5.25 11.85 30.4-3.55h30.1l16.6 6.85q12.85-7.55 8.95-26.2l-1.05-4.15m-7.55-14.45q5.05 6.35 7.55 14.45m-7.9 30.35 3.2 4.9v7l8.4 21.05 7.55 4.2q1.2 6.2 1.9 12.6 1.3 12.4.65 25.25-1.7 31.1-12.8 44.65-11.15 13.55-16.95 15.65l-.05.05q-11.9 14.4-23.2 11.7l-3.65.5-4.6.2-3.15-.1-.85-.1-1.1-.1q-6.3 1.95-11.95 2.25-7.4.35-13.75-2.15l-32.9.2h-1.4l-4.05-.2q-10.6-.9-19.75-6.45-8.75-5.35-24.15-20.5l-1.15-1.2q-14.2-14.85-12.55-36.4 1.15-15.3 2.4-23.8.55-3.9 1.15-6.4l.85-3q2.2-7.55 7.65-20l8.9 1.6m156.95 1.55-14.3 6.35-6.6 10.4-.05 1.6-.65 6.05.25 1.1 2.45 10.85.25 2.25q.2 3.2-.1 7.55-4.55 25.95-14.2 42.8m13.25 13.4v.05m-4.05-102.3q2.85 8.6 2.85 16.65M157.65 97.5l15.1 3.7 6.25-.1 2.65 6.7M161 105.95l18.75 12.45 2.45 7.75 1.6 5.95m-52.6-17.3-5.55 8.9m-14.5 72.7-16.5 2.75-9.45 1.55-16.05-6.75q-2.65-.2-4.7-.05-6.2.45-7.1 4.25-1.35 5.45 8 17.7m38.6-91.6q2.65-2.25 7.9-5.55l-3-4.5q-.9 2.4-1.8 3.1h-6.8l-5-4.9-4.6 1.2m13.3 10.65q-2.2 1.85-2.65 3l-1 3.1q-2.35 8-2.35 18.6 0 25.4 11.45 44.65l1.75 2.8q2.7-2.7 8.55-12t6.45-27.1q.55-17.75-.8-25.1l-.8-3.1-.85-2.3q-.55-1.2.65-1l1.3-2.1m-16.8-9.5q.75-2.25 2.6-4.95m12.9 16.55-.65 1m-28.45-14.4 6.15-10.7m-32.5 74.15 9.7-37.3q.9-3.7 2.2-7.2 3.55-9.55 9.85-17.75m-10.2-6.15v8.05q-4 8.85-6.7 16.2-3.5 9.45-4.9 16.35-1.1 5.1-1.3 10.3-.45 8.6 1.35 17.5m40.5 17.75q-5-2.7-8.35-3.45-8.4-1.8-6.4 9m28.8 23.15q2.4-3.5 4.75-6.4 15.85-19.7 27.65-11.1 8.95 6.9-6.7 17.4l9.7.1m3.65-.5q20.15-22.6 23.2-11.75M9 29.4q20.7-17.75 41.85 12.5" fill="none" stroke="#000" stroke-opacity=".353" stroke-width=".5"/><path d="m95.2 97.8.05.05" fill="none" stroke="#0f0" stroke-width=".5"/><path d="M38.6 6q2.45-.05 4.2 1.7 1.8 1.8 1.8 4.3 0 2.45-1.8 4.2-1.75 1.8-4.2 1.8-2.5 0-4.3-1.8-1.75-1.75-1.7-4.2-.05-2.4 1.7-4.3 1.5-1.5 3.7-1.65M9 29.4l1.55 1.15q1.8 1.8 1.8 4.4 0 2.5-1.8 4.35-1.85 1.8-4.35 1.8-2.6 0-4.4-1.8Q0 37.45 0 34.95q0-2.6 1.8-4.4t4.4-1.8q1.5 0 2.8.65" fill="none" stroke="#ffb945" stroke-width="4.5"/></g><g id="b"><path d="m7.7 2.9-.55-1.05.55 1.05q.9 2.55.55 6.1-.4 3.75-2.05 6.35-1.45 2.4-3.1 2.65l-.45-.85Q1.6 14.55 2 10.8t2.05-6.4q1.45-2.3 3.1-2.55h.05l.35.75.15.3" fill="#fef7e0"/><path d="M7.2 1.85h-.05Q6.15.3 4.7.3l-.35.05Q2.65.55 1.2 2.9-.45 5.55-.85 9.3q-.35 3.55.55 6.05-.9-2.5-.55-6.05.4-3.75 2.05-6.4Q2.65.55 4.35.35L4.7.3q1.45 0 2.45 1.55-1.65.25-3.1 2.55Q2.4 7.05 2 10.8t.65 6.35l.45.85h-.4q-1.9 0-3-2.65-1.05-2.6-.65-6.35t2-6.4Q2.7 0 4.6 0q1.6 0 2.6 1.85" fill="#b5a179"/><path d="M7.15 1.85 7.7 2.9m-.55-1.05Q6.15.3 4.7.3l-.35.05Q2.65.55 1.2 2.9-.45 5.55-.85 9.3q-.35 3.55.55 6.05l.15.3.4.85q.95 1.8 2.55 1.8 1.9 0 3.55-2.65 1.6-2.6 2-6.35T7.7 2.9" fill="none" stroke="#000" stroke-opacity=".353" stroke-width=".5"/></g><g id="f"><use xlink:href="#c"/><use transform="translate(68.3 40.3)" xlink:href="#d"/><use transform="translate(47.2 50.55)" xlink:href="#d"/></g><g id="g"><use transform="matrix(.44214 .11423 -.05504 .42628 82.75 17.4)" xlink:href="#e"/><use transform="matrix(.26125 .22942 -.19757 .2294 128.25 45.7)" xlink:href="#e"/><use transform="translate(0 72.75)" xlink:href="#f"/><use transform="rotate(14.998 73.109 521.657) scale(.48816)" xlink:href="#e"/><use transform="rotate(45.002 55.297 236.592) scale(.35887)" xlink:href="#e"/></g><use xlink:href="#a" id="e"/><use xlink:href="#b" id="d"/></defs><use transform="translate(265.55 176.9) scale(.26003)" xlink:href="#g"/></svg>