<svg viewBox="0 0 107.85 89.546" xmlns="http://www.w3.org/2000/svg" xmlns:xlink="http://www.w3.org/1999/xlink"><use transform="translate(.03 .02)" width="107.8" height="89.5" xlink:href="#a"/><defs><g id="a" transform="translate(.1 .1)"><use transform="translate(-.1 -.1)" width="107.8" height="89.5" xlink:href="#b"/><use transform="matrix(.1389 .0372 -.0351 .1311 88.7 40.75)" width="116" height="116" xlink:href="#c"/><use transform="matrix(.1389 .0372 -.0351 .1311 4.05 28.75)" width="116" height="116" xlink:href="#c"/><use transform="matrix(.1389 .0372 -.0351 .1311 60.95 68.25)" width="116" height="116" xlink:href="#c"/></g><g id="b"><path d="M64.05 16.75 77.95 12q5.8-2.35 11.6 0-1.25 8.5-7.75 14l-2.55-2.15q-5.15-3.9-12.45-6.3l-2.75-.8m43.55 30.7q-1.65 9.3-7.25 13.75Q96 64 88.4 65.45h-4.45l1.55-9.05q2.8 1 8.85 0 6.65-4.45 13.25-8.95M79.95 75.4q.9 6.7-5.2 12.6l-1.75.8q-3.9 1.3-8.25-.8-2.45-1-4.35-2.1 5.15.55 9.55-1.7 3.7-1.65 3.6-4.1-.3-2.75-1-5.7-1.15-3.4-6.6-6.8l-7.45-1.7 7.2-.9q11.7 4.8 14.25 10.4M29 73.7q-4.65 1.4-9.25 0l-11.6-1.05h11l8.8-5.85-3.2-6.4h4.8l4.8 10.8L29 73.7M17.25 55.25l-5.7-4.2Q6.4 47 4.15 42.9.5 36.45 0 31.3l7.1 9.75 8.55 4.1 1.6-2.8v12.9m11.5-34.85q-1.1-5.35 0-10Q30.6 4.55 34.35 0l7.8 7.8 2.75 7.45-5.8 1.1q-5.95 1.45-10.35 4.05" fill="#c79625" fill-rule="evenodd" transform="translate(.1 .1)"/><path d="M81.8 26q2.95 2.75 5 6.1 1.9 3.2 2.65 6.35l.45 3.4v1.6q-.25 3.45-1.9 6.9l-.7 1.25-1.3 2.05-2.2 2.55-.65.65-.95.85-.5.4-.55.45-.5.4-1.7 1.1-.3.2-.7.4-.25.15-.55.3-.85.45-3.75 1.6-.55.2-.8.25-.2.05-2.9.8-2.4.55-7.2.9-2.1.05-8.15-.7h-.05l-3.7 2.55 3.05-5.6 4.1-2.85v-.05q6.1.6 12.15-.9 4.2-1.05 7.35-2.85 3.4-2 5.6-4.85l1.15-1.75.25-.4.25-.55 1.15-3.3.2-1.3.05-.45V41.8q-.05-1.5-.45-3.05l-1.45-3.4-.4-.7-.7-1.1-.8-1.05-1.25-1.45-.75-.75-.2-.15 7.95 2.05-4.6-5.4 2.1-2.95L81.8 26M29.6 47.95q3.4 4.85 9.6 7.85l2.75 5.4-4.1 4.2-3.3-4.45Q30.45 59 27.3 56.5l-.65-.55-.75-.65-1-.95-2.25-2.5-.55-.7-.65-.9-.2-.3-.85-1.3-.75-1.3-.4-.85-.05-.05-.5-1.1q-.75-1.8-1.1-3.55l-.35-2.5v-.65q-.1-2.85.9-5.65.6-1.9 1.7-3.75l.1-.2 8.3 3.8q-1.8 3.25-1.75 6.6l.05.45q.1 2.6 1.4 5.25l.15.3v.05l.1.2.65 1.1.75 1.15m51.55-9.25-1.8.05 1.8-.05m3.25-.1-.75.05.75-.05m3.2-.1-.75.05.75-.05m-1.3.05-1.25.05 1.25-.05m3.15-.1-1.15.05 1.15-.05m-6.65.2-.7.05.7-.05M74.1 59l1.4 1.65L74.1 59m1.85 2.15.35.4-.35-.4m-40.25-1.5-1.15 1.3 1.15-1.3m-13.4-12.9-2.25.5 2.25-.5m4.6-1.05 1.2-.25-1.2.25m-.45.1-3.85.85 3.85-.85m12.75 10-1.45 1.65 1.45-1.65m9.9 7.9-.85 1.55.85-1.55m2.55-4.35-1 1.7 1-1.7m-1.3 2.2-.95 1.65.95-1.65m22.3-4.25.2.25-.2-.25m.6.75.35.4-.35-.4m-2.1-2.5 1.05 1.25-1.05-1.25" fill="#ea8915" fill-rule="evenodd" transform="translate(.1 .1)"/><path d="M19.95 29.05Q21 27.2 22.4 25.6q2.65-3 6.35-5.2 4.4-2.6 10.35-4.05l5.8-1.1q6.45-.8 12.95.2l6.2 1.3 2.75.8q7.3 2.4 12.45 6.3l-2.1 2.95 4.6 5.4-7.95-2.05-.25-.25-2.1-1.7-1.25-.8-1.1-.65-.75-.45-2.6-1.25-.2-.05-1-.4-1.7-.6q-3.15-1.05-6.3-1.55l-1.95-.25-3.5-.15h-1.45l-1.9.15-1.05.1-1.2.2-1.3.2-1.15.25-.5.15q-7.2 1.75-11.3 5.75L28.9 28l2.35.85q-1.7 1.65-2.85 3.7l-.15.3-8.3-3.8m37.75-12.7.15-.9-.15.9M28.4 27.8l-.35-.1.35.1m-2.3-.85-1.05-.35 1.05.35m30.75-6.05-.3 1.55.3-1.55m-32.6 5.4-1.85-.7 1.85.7m33.1-8.15.05-.25-.05.25m-.2 1.1.1-.55-.1.55" fill="#efa74e" fill-rule="evenodd" transform="translate(.1 .1)"/><path d="M76.75 50.7q-4.5-6.45-13.9-9.5-3.15-1.05-6.3-1.55-7.05-1.1-14 .65-8.8 2.15-12.95 7.65l-.75-1.15-.65-1.1.2-.35-.45-.2q-1.3-2.65-1.4-5.25l-.05-.45q-.05-3.35 1.75-6.6l.15-.3q1.15-2.05 2.85-3.7 4.1-4 11.3-5.75l.5-.15 1.15-.25 1.3-.2 1.2-.2 1.05-.1 1.9-.15h1.45l3.5.15 1.95.25q3.15.5 6.3 1.55l1.7.6 1 .4.2.05 2.6 1.25.75.45 1.1.65 1.25.8 2.1 1.7.25.25.2.15.75.75L76 32.5l.8 1.05.7 1.1.4.7 1.45 3.4q.4 1.55.45 3.05v1.15l-.05.45-.2 1.3L78.4 48l-.25.55-.25.4-1.15 1.75m-20.2-11.05v-17.2 17.2" fill="#884717" fill-rule="evenodd" transform="translate(.1 .1)"/><path d="M89.9 43.45q9.85-3.8 17.7 4-6.6 4.5-13.25 8.95-6.05 1-8.85 0l.5-2.75 1.3-2.05.7-1.25q1.65-3.45 1.9-6.9M60.4 85.9q-3.2-1.9-5.05-4-3.25-3.8-2.8-6.9.15-5.25 3.85-9.05l2.1-.05 7.45 1.7q5.45 3.4 6.6 6.8.7 2.95 1 5.7.1 2.45-3.6 4.1-4.4 2.25-9.55 1.7M8.15 72.65 5.95 72l5.6-6 7.8-3.3 5.4-2.3 3.2 6.4-8.8 5.85h-11M0 31.3h5.7q5.9.25 12.45 1.7-1 2.8-.9 5.65v3.7l-1.6 2.8-8.55-4.1L0 31.3" fill="#e3c764" fill-rule="evenodd" transform="translate(.1 .1)"/><path d="m88.4 65.45-1.1 2.15q-2.7 4.6-7.35 7.8Q77.4 69.8 65.7 65l2.4-.55 2.9-.8.2-.05.8-.25.55-.2 3.75-1.6.85-.45.55-.3.25-.15.7-.4.3-.2 1.7-1.1.5-.4.55-.45.5-.4.95-.85.65-.65 2.2-2.55-.5 2.75-1.55 9.05h4.45M55.35 81.9q-5.4-.1-10.85-1.4V67.8l3.7-2.55h.05l8.15.7q-3.7 3.8-3.85 9.05-.45 3.1 2.8 6.9m-13.4-20.7v13l-4.05 4.2h-.05q-5-2-8.85-4.7l5.35-2.5-4.8-10.8h-4.8l-5.4 2.3q-1.9-3.75-2.1-7.45V39.3l.35 2.5q.35 1.75 1.1 3.55l.5 1.1.05.05.4.85.75 1.3.85 1.3.2.3.65.9.55.7 2.25 2.5 1 .95.75.65.65.55q3.15 2.5 7.25 4.45l3.3 4.45 4.1-4.2m-23.2-13.65-1.5.3 1.5-.3m19.1 30.85v-13 13" fill="#aa591e" fill-rule="evenodd" transform="translate(.1 .1)"/><path d="m64.15 16.85 13.9-4.75q5.8-2.35 11.6 0-1.25 8.5-7.75 14 2.95 2.75 5 6.1 1.9 3.2 2.65 6.35l.45 3.4v1.6q9.85-3.8 17.7 4-1.65 9.3-7.25 13.75-4.35 2.8-11.95 4.25l-1.1 2.15q-2.7 4.6-7.35 7.8.9 6.7-5.2 12.6l-1.75.8q-3.9 1.3-8.25-.8-2.45-1-4.35-2.1-3.2-1.9-5.05-4-5.4-.1-10.85-1.4V67.9l3.05-5.6 4.1-2.85v-.05q6.1.6 12.15-.9 4.2-1.05 7.35-2.85 3.4-2 5.6-4.85-4.5-6.45-13.9-9.5-3.15-1.05-6.3-1.55-7.05-1.1-14 .65-8.8 2.15-12.95 7.65 3.4 4.85 9.6 7.85l2.75 5.4v13L38 78.5h-.05q-5-2-8.85-4.7-4.65 1.4-9.25 0l-11.6-1.05-2.2-.65 5.6-6 7.8-3.3q-1.9-3.75-2.1-7.45l-5.7-4.2Q6.5 47.1 4.25 43 .6 36.55.1 31.4h5.7q5.9.25 12.45 1.7.6-1.9 1.7-3.75l.1-.2q1.05-1.85 2.45-3.45 2.65-3 6.35-5.2-1.1-5.35 0-10Q30.7 4.65 34.45.1l7.8 7.8L45 15.35q6.45-.8 12.95.2l6.2 1.3 2.75.8q7.3 2.4 12.45 6.3l2.55 2.15M78 35.45l1.45 3.4 1.8-.05m-4.35-5.15.35.55m-2.4-3.05 1.25 1.45m6.1 6.2.7-.05m5.5-.15 1.15-.05m-4.4.15 1.25-.05m.55 0 .75-.05m-3.95.15.75-.05m5.5 4.85q-.25 3.45-1.9 6.9l-.7 1.25-1.3 2.05-.5 2.75m-6.15-17.65q.4 1.55.45 3.05v1.15l-.05.45m-.2 1.3-1.15 3.3-.25.55-.25.4-1.15 1.75m6.4 6.15-.95.85m-.5.4-.55.45m-.5.4-1.7 1.1m-1 .6-.25.15-.55.3-.85.45-3.75 1.6m-.55.2-.8.25m-.2.05-2.9.8-2.4.55q11.7 4.8 14.25 10.4M76.4 61.65l-.35-.4m-.45-.5-1.4-1.65m14.3 6.45h-4.45l1.55-9.05m.5-2.75-2.2 2.55M57.95 15.55l-.15.9M28.85 20.5q4.4-2.6 10.35-4.05l5.8-1.1M29 28.1l2.35.85q4.1-4 11.3-5.75l.5-.15m1.15-.25 1.3-.2m1.2-.2 1.05-.1m1.9-.15h1.45m3.5.15 1.95.25.3-1.55m-31.8 5.7 1.05.35m1.95.75.35.1M17.35 39.4v-.65q-.1-2.85.9-5.65m9.8 12.15q-1.3-2.65-1.4-5.25l-.05-.45q-.05-3.35 1.75-6.6l.15-.3q1.15-2.05 2.85-3.7M22.5 25.7l1.85.7m-7 16.05V39.4l.35 2.5q.35 1.75 1.1 3.55l.5 1.1.05.05m2 3.45.2.3m.65.9.55.7m2.25 2.5 1 .95m.75.65.65.55q3.15 2.5 7.25 4.45l1.15-1.3m-7.6-14.2-.15-.3m.45.2-.2.35.65 1.1.75 1.15m-1.5-2.5v.05l.1.2m.2-.35-.3.1-1.2.25m-6.85 1.55 2.25-.5m-5.05 8.5v-12.9m0 5.5 1.5-.3m6 12.85h4.8l4.8 10.8-5.35 2.5m-4.25-13.3-5.4 2.3m3.25-16.05 3.85-.85m39.1-20.8.2.05m2.6 1.25.75.45m1.1.65 1.25.8m2.1 1.7.25.25.2.15m-17.45-7.85q3.15.5 6.3 1.55l1.7.6m-7.3-5.9-.1.55M57.5 18l-.05.25m-.8 4.3v17.2M37.95 65.5l-3.3-4.45m3.2-3.5 1.45-1.65m2.75 5.4-4.1 4.2v13m12.8-17.35 1-1.7m-3.4 5.9.85-1.55m7.3 2.25-8.15-.7h-.05l-3.7 2.55m4.9-4.6.95-1.65M58.6 66l-2.1.05q-3.7 3.8-3.85 9.05-.45 3.1 2.8 6.9M72.3 56.9l-1.05-1.25m2.45 2.9-.35-.4m-.4-.5-.2-.25m-6.95 7.7-7.2.9" fill="none" stroke="#774b20" stroke-linecap="round" stroke-linejoin="round" stroke-width=".25"/></g><radialGradient id="e" cx="0" cy="0" r="819.2" gradientTransform="translate(58 58) scale(.0715)" gradientUnits="userSpaceOnUse"><stop stop-color="#fff" offset="0"/><stop stop-color="#fff" stop-opacity="0" offset=".882"/></radialGradient><path d="M99 16.95q17 17 17 41.05T99 99q-16.95 17-41 17T16.95 99Q0 82.05 0 58t16.95-41.05Q33.95 0 58 0t41 16.95" fill="url(#e)" fill-rule="evenodd" id="d"/><use width="116" height="116" xlink:href="#d" id="c"/></defs></svg>