<svg width="69" height="75" viewBox="65.413 29.85 69.082 74.819" xmlns="http://www.w3.org/2000/svg" xmlns:xlink="http://www.w3.org/1999/xlink"><defs><filter id="c"><feColorMatrix in="SourceGraphic" result="cxform" values="0.0 0.0 0.0 0.0 0.0 0.0 0.0 0.0 0.0 0.19921875 0.0 0.0 0.0 0.0 0.19921875 0.0 0.0 0.0 1.0 0.0"/><feComposite in2="SourceGraphic" operator="in" result="color-xform"/></filter><filter id="e"><feColorMatrix in="SourceGraphic" result="cxform" values="0.0 0.0 0.0 0.0 0.0 0.0 0.0 0.0 0.0 0.19921875 0.0 0.0 0.0 0.0 0.19921875 0.0 0.0 0.0 1.0 0.0"/><feComposite in2="SourceGraphic" operator="in" result="color-xform"/></filter><filter id="f"><feColorMatrix in="SourceGraphic" result="cxform" values="0.0 0.0 0.0 0.0 0.0 0.0 0.0 0.0 0.0 0.19921875 0.0 0.0 0.0 0.0 0.19921875 0.0 0.0 0.0 1.0 0.0"/><feComposite in2="SourceGraphic" operator="in" result="color-xform"/></filter><filter id="g"><feColorMatrix in="SourceGraphic" result="cxform" values="0.0 0.0 0.0 0.0 0.0 0.0 0.0 0.0 0.0 0.19921875 0.0 0.0 0.0 0.0 0.19921875 0.0 0.0 0.0 1.0 0.0"/><feComposite in2="SourceGraphic" operator="in" result="color-xform"/></filter><filter id="h"><feColorMatrix in="SourceGraphic" result="cxform" values="0.0 0.0 0.0 0.0 0.0 0.0 0.0 0.0 0.0 0.19921875 0.0 0.0 0.0 0.0 0.19921875 0.0 0.0 0.0 1.0 0.0"/><feComposite in2="SourceGraphic" operator="in" result="color-xform"/></filter><filter id="i"><feColorMatrix in="SourceGraphic" result="cxform" values="0.0 0.0 0.0 0.0 0.0 0.0 0.0 0.0 0.0 0.19921875 0.0 0.0 0.0 0.0 0.19921875 0.0 0.0 0.0 1.0 0.0"/><feComposite in2="SourceGraphic" operator="in" result="color-xform"/></filter><filter id="j"><feColorMatrix in="SourceGraphic" result="cxform" values="0.0 0.0 0.0 0.0 0.0 0.0 0.0 0.0 0.0 0.19921875 0.0 0.0 0.0 0.0 0.19921875 0.0 0.0 0.0 1.0 0.0"/><feComposite in2="SourceGraphic" operator="in" result="color-xform"/></filter><filter id="k"><feColorMatrix in="SourceGraphic" result="cxform" values="0.0 0.0 0.0 0.0 0.0 0.0 0.0 0.0 0.0 0.19921875 0.0 0.0 0.0 0.0 0.19921875 0.0 0.0 0.0 1.0 0.0"/><feComposite in2="SourceGraphic" operator="in" result="color-xform"/></filter><filter id="l"><feColorMatrix in="SourceGraphic" result="cxform" values="0.0 0.0 0.0 0.0 0.0 0.0 0.0 0.0 0.0 0.265625 0.0 0.0 0.0 0.0 0.3984375 0.0 0.0 0.0 1.0 0.0"/><feComposite in2="SourceGraphic" operator="in" result="color-xform"/></filter><filter id="m"><feColorMatrix in="SourceGraphic" result="cxform" values="0.0 0.0 0.0 0.0 0.0 0.0 0.0 0.0 0.0 0.265625 0.0 0.0 0.0 0.0 0.3984375 0.0 0.0 0.0 1.0 0.0"/><feComposite in2="SourceGraphic" operator="in" result="color-xform"/></filter><filter id="n"><feColorMatrix in="SourceGraphic" result="cxform" values="0.0 0.0 0.0 0.0 0.0 0.0 0.0 0.0 0.0 0.265625 0.0 0.0 0.0 0.0 0.3984375 0.0 0.0 0.0 1.0 0.0"/><feComposite in2="SourceGraphic" operator="in" result="color-xform"/></filter><filter id="o"><feColorMatrix in="SourceGraphic" result="cxform" values="0.0 0.0 0.0 0.0 0.0 0.0 0.0 0.0 0.0 0.265625 0.0 0.0 0.0 0.0 0.3984375 0.0 0.0 0.0 1.0 0.0"/><feComposite in2="SourceGraphic" operator="in" result="color-xform"/></filter><filter id="p"><feColorMatrix in="SourceGraphic" result="cxform" values="0.0 0.0 0.0 0.0 0.0 0.0 0.0 0.0 0.0 0.265625 0.0 0.0 0.0 0.0 0.3984375 0.0 0.0 0.0 1.0 0.0"/><feComposite in2="SourceGraphic" operator="in" result="color-xform"/></filter><filter id="q"><feColorMatrix in="SourceGraphic" result="cxform" values="0.0 0.0 0.0 0.0 0.0 0.0 0.0 0.0 0.0 0.265625 0.0 0.0 0.0 0.0 0.3984375 0.0 0.0 0.0 1.0 0.0"/><feComposite in2="SourceGraphic" operator="in" result="color-xform"/></filter><filter id="r"><feColorMatrix in="SourceGraphic" result="cxform" values="0.0 0.0 0.0 0.0 0.0 0.0 0.0 0.0 0.0 0.265625 0.0 0.0 0.0 0.0 0.3984375 0.0 0.0 0.0 1.0 0.0"/><feComposite in2="SourceGraphic" operator="in" result="color-xform"/></filter><filter id="s"><feColorMatrix in="SourceGraphic" result="cxform" values="0.0 0.0 0.0 0.0 0.0 0.0 0.0 0.0 0.0 0.265625 0.0 0.0 0.0 0.0 0.3984375 0.0 0.0 0.0 1.0 0.0"/><feComposite in2="SourceGraphic" operator="in" result="color-xform"/></filter><filter id="t"><feColorMatrix in="SourceGraphic" result="cxform" values="0.0 0.0 0.0 0.0 0.0 0.0 0.0 0.0 0.0 0.265625 0.0 0.0 0.0 0.0 0.3984375 0.0 0.0 0.0 1.0 0.0"/><feComposite in2="SourceGraphic" operator="in" result="color-xform"/></filter><filter id="u"><feColorMatrix in="SourceGraphic" result="cxform" values="0.0 0.0 0.0 0.0 0.0 0.0 0.0 0.0 0.0 0.265625 0.0 0.0 0.0 0.0 0.3984375 0.0 0.0 0.0 1.0 0.0"/><feComposite in2="SourceGraphic" operator="in" result="color-xform"/></filter><filter id="v"><feColorMatrix in="SourceGraphic" result="cxform" values="0.0 0.0 0.0 0.0 0.0 0.0 0.0 0.0 0.0 0.265625 0.0 0.0 0.0 0.0 0.3984375 0.0 0.0 0.0 1.0 0.0"/><feComposite in2="SourceGraphic" operator="in" result="color-xform"/></filter><filter id="w"><feColorMatrix in="SourceGraphic" result="cxform" values="0.0 0.0 0.0 0.0 0.0 0.0 0.0 0.0 0.0 0.265625 0.0 0.0 0.0 0.0 0.3984375 0.0 0.0 0.0 1.0 0.0"/><feComposite in2="SourceGraphic" operator="in" result="color-xform"/></filter><filter id="x"><feColorMatrix in="SourceGraphic" result="cxform" values="0.0 0.0 0.0 0.0 0.0 0.0 0.0 0.0 0.0 0.19921875 0.0 0.0 0.0 0.0 0.19921875 0.0 0.0 0.0 1.0 0.0"/><feComposite in2="SourceGraphic" operator="in" result="color-xform"/></filter><filter id="y"><feColorMatrix in="SourceGraphic" result="cxform" values="0.0 0.0 0.0 0.0 0.0 0.0 0.0 0.0 0.0 0.19921875 0.0 0.0 0.0 0.0 0.19921875 0.0 0.0 0.0 1.0 0.0"/><feComposite in2="SourceGraphic" operator="in" result="color-xform"/></filter><filter id="z"><feColorMatrix in="SourceGraphic" result="cxform" values="0.0 0.0 0.0 0.0 0.0 0.0 0.0 0.0 0.0 0.19921875 0.0 0.0 0.0 0.0 0.19921875 0.0 0.0 0.0 1.0 0.0"/><feComposite in2="SourceGraphic" operator="in" result="color-xform"/></filter><filter id="A"><feColorMatrix in="SourceGraphic" result="cxform" values="0.0 0.0 0.0 0.0 0.0 0.0 0.0 0.0 0.0 0.19921875 0.0 0.0 0.0 0.0 0.19921875 0.0 0.0 0.0 1.0 0.0"/><feComposite in2="SourceGraphic" operator="in" result="color-xform"/></filter><filter id="B"><feColorMatrix in="SourceGraphic" result="cxform" values="0.0 0.0 0.0 0.0 0.0 0.0 0.0 0.0 0.0 0.19921875 0.0 0.0 0.0 0.0 0.19921875 0.0 0.0 0.0 1.0 0.0"/><feComposite in2="SourceGraphic" operator="in" result="color-xform"/></filter><filter id="C"><feColorMatrix in="SourceGraphic" result="cxform" values="0.0 0.0 0.0 0.0 0.0 0.0 0.0 0.0 0.0 0.19921875 0.0 0.0 0.0 0.0 0.19921875 0.0 0.0 0.0 1.0 0.0"/><feComposite in2="SourceGraphic" operator="in" result="color-xform"/></filter><filter id="D"><feColorMatrix in="SourceGraphic" result="cxform" values="0.0 0.0 0.0 0.0 0.0 0.0 0.0 0.0 0.0 0.19921875 0.0 0.0 0.0 0.0 0.19921875 0.0 0.0 0.0 1.0 0.0"/><feComposite in2="SourceGraphic" operator="in" result="color-xform"/></filter><filter id="E"><feColorMatrix in="SourceGraphic" result="cxform" values="0.0 0.0 0.0 0.0 0.0 0.0 0.0 0.0 0.0 0.19921875 0.0 0.0 0.0 0.0 0.19921875 0.0 0.0 0.0 1.0 0.0"/><feComposite in2="SourceGraphic" operator="in" result="color-xform"/></filter><filter id="F"><feColorMatrix in="SourceGraphic" result="cxform" values="0.0 0.0 0.0 0.0 0.09765625 0.0 0.0 0.0 0.0 0.34375 0.0 0.0 0.0 0.0 0.32421875 0.0 0.0 0.0 1.0 0.0"/><feComposite in2="SourceGraphic" operator="in" result="color-xform"/></filter><filter id="G"><feColorMatrix in="SourceGraphic" result="cxform" values="0.0 0.0 0.0 0.0 0.09765625 0.0 0.0 0.0 0.0 0.34375 0.0 0.0 0.0 0.0 0.32421875 0.0 0.0 0.0 1.0 0.0"/><feComposite in2="SourceGraphic" operator="in" result="color-xform"/></filter><filter id="H"><feColorMatrix in="SourceGraphic" result="cxform" values="0.0 0.0 0.0 0.0 0.09765625 0.0 0.0 0.0 0.0 0.34375 0.0 0.0 0.0 0.0 0.32421875 0.0 0.0 0.0 1.0 0.0"/><feComposite in2="SourceGraphic" operator="in" result="color-xform"/></filter><filter id="I"><feColorMatrix in="SourceGraphic" result="cxform" values="0.0 0.0 0.0 0.0 0.09765625 0.0 0.0 0.0 0.0 0.34375 0.0 0.0 0.0 0.0 0.32421875 0.0 0.0 0.0 1.0 0.0"/><feComposite in2="SourceGraphic" operator="in" result="color-xform"/></filter><filter id="J"><feColorMatrix in="SourceGraphic" result="cxform" values="0.0 0.0 0.0 0.0 0.09765625 0.0 0.0 0.0 0.0 0.34375 0.0 0.0 0.0 0.0 0.32421875 0.0 0.0 0.0 1.0 0.0"/><feComposite in2="SourceGraphic" operator="in" result="color-xform"/></filter><filter id="K"><feColorMatrix in="SourceGraphic" result="cxform" values="0.0 0.0 0.0 0.0 0.09765625 0.0 0.0 0.0 0.0 0.34375 0.0 0.0 0.0 0.0 0.32421875 0.0 0.0 0.0 1.0 0.0"/><feComposite in2="SourceGraphic" operator="in" result="color-xform"/></filter><filter id="L"><feColorMatrix in="SourceGraphic" result="cxform" values="0.0 0.0 0.0 0.0 0.09765625 0.0 0.0 0.0 0.0 0.34375 0.0 0.0 0.0 0.0 0.32421875 0.0 0.0 0.0 1.0 0.0"/><feComposite in2="SourceGraphic" operator="in" result="color-xform"/></filter><filter id="M"><feColorMatrix in="SourceGraphic" result="cxform" values="0.0 0.0 0.0 0.0 0.09765625 0.0 0.0 0.0 0.0 0.34375 0.0 0.0 0.0 0.0 0.32421875 0.0 0.0 0.0 1.0 0.0"/><feComposite in2="SourceGraphic" operator="in" result="color-xform"/></filter><filter id="N"><feColorMatrix in="SourceGraphic" result="cxform" values="0.0 0.0 0.0 0.0 0.09765625 0.0 0.0 0.0 0.0 0.34375 0.0 0.0 0.0 0.0 0.32421875 0.0 0.0 0.0 1.0 0.0"/><feComposite in2="SourceGraphic" operator="in" result="color-xform"/></filter><filter id="O"><feColorMatrix in="SourceGraphic" result="cxform" values="0.0 0.0 0.0 0.0 0.09765625 0.0 0.0 0.0 0.0 0.34375 0.0 0.0 0.0 0.0 0.32421875 0.0 0.0 0.0 1.0 0.0"/><feComposite in2="SourceGraphic" operator="in" result="color-xform"/></filter><filter id="P"><feColorMatrix in="SourceGraphic" result="cxform" values="0.0 0.0 0.0 0.0 0.0 0.0 0.0 0.0 0.0 0.265625 0.0 0.0 0.0 0.0 0.3984375 0.0 0.0 0.0 1.0 0.0"/><feComposite in2="SourceGraphic" operator="in" result="color-xform"/></filter><filter id="Q"><feColorMatrix in="SourceGraphic" result="cxform" values="0.0 0.0 0.0 0.0 0.0 0.0 0.0 0.0 0.0 0.265625 0.0 0.0 0.0 0.0 0.3984375 0.0 0.0 0.0 1.0 0.0"/><feComposite in2="SourceGraphic" operator="in" result="color-xform"/></filter><filter id="R"><feColorMatrix in="SourceGraphic" result="cxform" values="0.0 0.0 0.0 0.0 0.0 0.0 0.0 0.0 0.0 0.265625 0.0 0.0 0.0 0.0 0.3984375 0.0 0.0 0.0 1.0 0.0"/><feComposite in2="SourceGraphic" operator="in" result="color-xform"/></filter><filter id="S"><feColorMatrix in="SourceGraphic" result="cxform" values="0.0 0.0 0.0 0.0 0.0 0.0 0.0 0.0 0.0 0.265625 0.0 0.0 0.0 0.0 0.3984375 0.0 0.0 0.0 1.0 0.0"/><feComposite in2="SourceGraphic" operator="in" result="color-xform"/></filter><filter id="T"><feColorMatrix in="SourceGraphic" result="cxform" values="0.0 0.0 0.0 0.0 0.0 0.0 0.0 0.0 0.0 0.265625 0.0 0.0 0.0 0.0 0.3984375 0.0 0.0 0.0 1.0 0.0"/><feComposite in2="SourceGraphic" operator="in" result="color-xform"/></filter><filter id="U"><feColorMatrix in="SourceGraphic" result="cxform" values="0.0 0.0 0.0 0.0 0.0 0.0 0.0 0.0 0.0 0.265625 0.0 0.0 0.0 0.0 0.3984375 0.0 0.0 0.0 1.0 0.0"/><feComposite in2="SourceGraphic" operator="in" result="color-xform"/></filter><filter id="V"><feColorMatrix in="SourceGraphic" result="cxform" values="0.3203125 0.0 0.0 0.0 -0.109375 0.0 0.71875 0.0 0.0 -0.09375 0.0 0.0 0.73828125 0.0 0.3984375 0.0 0.0 0.0 1.0 0.0"/><feComposite in2="SourceGraphic" operator="in" result="color-xform"/></filter><filter id="W"><feColorMatrix in="SourceGraphic" result="cxform" values="0.3203125 0.0 0.0 0.0 -0.109375 0.0 0.71875 0.0 0.0 -0.09375 0.0 0.0 0.73828125 0.0 0.3984375 0.0 0.0 0.0 1.0 0.0"/><feComposite in2="SourceGraphic" operator="in" result="color-xform"/></filter><filter id="X"><feColorMatrix in="SourceGraphic" result="cxform" values="0.3203125 0.0 0.0 0.0 -0.109375 0.0 0.71875 0.0 0.0 -0.09375 0.0 0.0 0.73828125 0.0 0.3984375 0.0 0.0 0.0 1.0 0.0"/><feComposite in2="SourceGraphic" operator="in" result="color-xform"/></filter><filter id="Y"><feColorMatrix in="SourceGraphic" result="cxform" values="0.3203125 0.0 0.0 0.0 -0.109375 0.0 0.71875 0.0 0.0 -0.09375 0.0 0.0 0.73828125 0.0 0.3984375 0.0 0.0 0.0 1.0 0.0"/><feComposite in2="SourceGraphic" operator="in" result="color-xform"/></filter><filter id="Z"><feColorMatrix in="SourceGraphic" result="cxform" values="0.3203125 0.0 0.0 0.0 -0.109375 0.0 0.71875 0.0 0.0 -0.09375 0.0 0.0 0.73828125 0.0 0.3984375 0.0 0.0 0.0 1.0 0.0"/><feComposite in2="SourceGraphic" operator="in" result="color-xform"/></filter><filter id="aa"><feColorMatrix in="SourceGraphic" result="cxform" values="0.3203125 0.0 0.0 0.0 -0.109375 0.0 0.71875 0.0 0.0 -0.09375 0.0 0.0 0.73828125 0.0 0.3984375 0.0 0.0 0.0 1.0 0.0"/><feComposite in2="SourceGraphic" operator="in" result="color-xform"/></filter><filter id="ab"><feColorMatrix in="SourceGraphic" result="cxform" values="0.3203125 0.0 0.0 0.0 -0.109375 0.0 0.71875 0.0 0.0 -0.09375 0.0 0.0 0.73828125 0.0 0.3984375 0.0 0.0 0.0 1.0 0.0"/><feComposite in2="SourceGraphic" operator="in" result="color-xform"/></filter><filter id="ac"><feColorMatrix in="SourceGraphic" result="cxform" values="0.3203125 0.0 0.0 0.0 -0.109375 0.0 0.71875 0.0 0.0 -0.09375 0.0 0.0 0.73828125 0.0 0.3984375 0.0 0.0 0.0 1.0 0.0"/><feComposite in2="SourceGraphic" operator="in" result="color-xform"/></filter><filter id="ad"><feColorMatrix in="SourceGraphic" result="cxform" values="0.3203125 0.0 0.0 0.0 -0.109375 0.0 0.71875 0.0 0.0 -0.09375 0.0 0.0 0.73828125 0.0 0.3984375 0.0 0.0 0.0 1.0 0.0"/><feComposite in2="SourceGraphic" operator="in" result="color-xform"/></filter><filter id="ae"><feColorMatrix in="SourceGraphic" result="cxform" values="0.3203125 0.0 0.0 0.0 -0.109375 0.0 0.71875 0.0 0.0 -0.09375 0.0 0.0 0.73828125 0.0 0.3984375 0.0 0.0 0.0 1.0 0.0"/><feComposite in2="SourceGraphic" operator="in" result="color-xform"/></filter><filter id="af"><feColorMatrix in="SourceGraphic" result="cxform" values="0.3203125 0.0 0.0 0.0 -0.109375 0.0 0.71875 0.0 0.0 -0.09375 0.0 0.0 0.73828125 0.0 0.3984375 0.0 0.0 0.0 1.0 0.0"/><feComposite in2="SourceGraphic" operator="in" result="color-xform"/></filter><filter id="ag"><feColorMatrix in="SourceGraphic" result="cxform" values="0.3203125 0.0 0.0 0.0 -0.109375 0.0 0.71875 0.0 0.0 -0.09375 0.0 0.0 0.73828125 0.0 0.3984375 0.0 0.0 0.0 1.0 0.0"/><feComposite in2="SourceGraphic" operator="in" result="color-xform"/></filter><filter id="ah"><feColorMatrix in="SourceGraphic" result="cxform" values="0.3203125 0.0 0.0 0.0 -0.109375 0.0 0.71875 0.0 0.0 -0.09375 0.0 0.0 0.73828125 0.0 0.3984375 0.0 0.0 0.0 1.0 0.0"/><feComposite in2="SourceGraphic" operator="in" result="color-xform"/></filter><filter id="ai"><feColorMatrix in="SourceGraphic" result="cxform" values="0.3203125 0.0 0.0 0.0 -0.109375 0.0 0.71875 0.0 0.0 -0.09375 0.0 0.0 0.73828125 0.0 0.3984375 0.0 0.0 0.0 1.0 0.0"/><feComposite in2="SourceGraphic" operator="in" result="color-xform"/></filter><filter id="aj"><feColorMatrix in="SourceGraphic" result="cxform" values="0.3203125 0.0 0.0 0.0 -0.109375 0.0 0.71875 0.0 0.0 -0.09375 0.0 0.0 0.73828125 0.0 0.3984375 0.0 0.0 0.0 1.0 0.0"/><feComposite in2="SourceGraphic" operator="in" result="color-xform"/></filter><filter id="ak"><feColorMatrix in="SourceGraphic" result="cxform" values="0.3203125 0.0 0.0 0.0 -0.109375 0.0 0.71875 0.0 0.0 -0.09375 0.0 0.0 0.73828125 0.0 0.3984375 0.0 0.0 0.0 1.0 0.0"/><feComposite in2="SourceGraphic" operator="in" result="color-xform"/></filter><filter id="al"><feColorMatrix in="SourceGraphic" result="cxform" values="0.3203125 0.0 0.0 0.0 -0.109375 0.0 0.71875 0.0 0.0 -0.09375 0.0 0.0 0.73828125 0.0 0.3984375 0.0 0.0 0.0 1.0 0.0"/><feComposite in2="SourceGraphic" operator="in" result="color-xform"/></filter><filter id="am"><feColorMatrix in="SourceGraphic" result="cxform" values="0.3203125 0.0 0.0 0.0 -0.109375 0.0 0.71875 0.0 0.0 -0.09375 0.0 0.0 0.73828125 0.0 0.3984375 0.0 0.0 0.0 1.0 0.0"/><feComposite in2="SourceGraphic" operator="in" result="color-xform"/></filter><filter id="an"><feColorMatrix in="SourceGraphic" result="cxform" values="0.3203125 0.0 0.0 0.0 -0.109375 0.0 0.71875 0.0 0.0 -0.09375 0.0 0.0 0.73828125 0.0 0.3984375 0.0 0.0 0.0 1.0 0.0"/><feComposite in2="SourceGraphic" operator="in" result="color-xform"/></filter><filter id="ao"><feColorMatrix in="SourceGraphic" result="cxform" values="0.3203125 0.0 0.0 0.0 -0.109375 0.0 0.71875 0.0 0.0 -0.09375 0.0 0.0 0.73828125 0.0 0.3984375 0.0 0.0 0.0 1.0 0.0"/><feComposite in2="SourceGraphic" operator="in" result="color-xform"/></filter><filter id="ap"><feColorMatrix in="SourceGraphic" result="cxform" values="0.00390625 0.0 0.0 0.0 -0.19921875 0.0 0.00390625 0.0 0.0 -0.109375 0.0 0.0 0.00390625 0.0 0.44921875 0.0 0.0 0.0 0.00390625 0.0"/><feComposite in2="SourceGraphic" operator="in" result="color-xform"/></filter><filter id="aq"><feColorMatrix in="SourceGraphic" result="cxform" values="0.00390625 0.0 0.0 0.0 -0.19921875 0.0 0.00390625 0.0 0.0 -0.109375 0.0 0.0 0.00390625 0.0 0.44921875 0.0 0.0 0.0 0.00390625 0.0"/><feComposite in2="SourceGraphic" operator="in" result="color-xform"/></filter><filter id="ar"><feColorMatrix in="SourceGraphic" result="cxform" values="0.00390625 0.0 0.0 0.0 -0.19921875 0.0 0.00390625 0.0 0.0 -0.109375 0.0 0.0 0.00390625 0.0 0.44921875 0.0 0.0 0.0 0.00390625 0.0"/><feComposite in2="SourceGraphic" operator="in" result="color-xform"/></filter><filter id="as"><feColorMatrix in="SourceGraphic" result="cxform" values="0.00390625 0.0 0.0 0.0 -0.19921875 0.0 0.00390625 0.0 0.0 -0.109375 0.0 0.0 0.00390625 0.0 0.44921875 0.0 0.0 0.0 0.00390625 0.0"/><feComposite in2="SourceGraphic" operator="in" result="color-xform"/></filter><filter id="at"><feColorMatrix in="SourceGraphic" result="cxform" values="0.00390625 0.0 0.0 0.0 -0.19921875 0.0 0.00390625 0.0 0.0 -0.109375 0.0 0.0 0.00390625 0.0 0.44921875 0.0 0.0 0.0 0.00390625 0.0"/><feComposite in2="SourceGraphic" operator="in" result="color-xform"/></filter><filter id="au"><feColorMatrix in="SourceGraphic" result="cxform" values="0.00390625 0.0 0.0 0.0 -0.19921875 0.0 0.00390625 0.0 0.0 -0.109375 0.0 0.0 0.00390625 0.0 0.44921875 0.0 0.0 0.0 0.00390625 0.0"/><feComposite in2="SourceGraphic" operator="in" result="color-xform"/></filter><filter id="av"><feColorMatrix in="SourceGraphic" result="cxform" values="0.00390625 0.0 0.0 0.0 -0.19921875 0.0 0.00390625 0.0 0.0 -0.109375 0.0 0.0 0.00390625 0.0 0.44921875 0.0 0.0 0.0 0.00390625 0.0"/><feComposite in2="SourceGraphic" operator="in" result="color-xform"/></filter><filter id="aw"><feColorMatrix in="SourceGraphic" result="cxform" values="0.00390625 0.0 0.0 0.0 -0.19921875 0.0 0.00390625 0.0 0.0 -0.109375 0.0 0.0 0.00390625 0.0 0.44921875 0.0 0.0 0.0 0.00390625 0.0"/><feComposite in2="SourceGraphic" operator="in" result="color-xform"/></filter><filter id="ax"><feColorMatrix in="SourceGraphic" result="cxform" values="0.00390625 0.0 0.0 0.0 -0.19921875 0.0 0.00390625 0.0 0.0 -0.109375 0.0 0.0 0.00390625 0.0 0.44921875 0.0 0.0 0.0 0.00390625 0.0"/><feComposite in2="SourceGraphic" operator="in" result="color-xform"/></filter><filter id="ay"><feColorMatrix in="SourceGraphic" result="cxform" values="0.00390625 0.0 0.0 0.0 -0.19921875 0.0 0.00390625 0.0 0.0 -0.109375 0.0 0.0 0.00390625 0.0 0.44921875 0.0 0.0 0.0 0.00390625 0.0"/><feComposite in2="SourceGraphic" operator="in" result="color-xform"/></filter><filter id="az"><feColorMatrix in="SourceGraphic" result="cxform" values="0.00390625 0.0 0.0 0.0 -0.19921875 0.0 0.00390625 0.0 0.0 -0.109375 0.0 0.0 0.00390625 0.0 0.44921875 0.0 0.0 0.0 0.00390625 0.0"/><feComposite in2="SourceGraphic" operator="in" result="color-xform"/></filter><filter id="aA"><feColorMatrix in="SourceGraphic" result="cxform" values="0.73828125 0.0 0.0 0.0 0.0 0.0 0.73828125 0.0 0.0 0.0 0.0 0.0 0.73828125 0.0 0.0 0.0 0.0 0.0 1.0 0.0"/><feComposite in2="SourceGraphic" operator="in" result="color-xform"/></filter><filter id="aB"><feColorMatrix in="SourceGraphic" result="cxform" values="0.73828125 0.0 0.0 0.0 0.0 0.0 0.73828125 0.0 0.0 0.0 0.0 0.0 0.73828125 0.0 0.0 0.0 0.0 0.0 1.0 0.0"/><feComposite in2="SourceGraphic" operator="in" result="color-xform"/></filter><g id="b"><path d="M111.35 56.2h.4l.55.1q6.85 1 11.65 6.2 4.95 5.45 4.6 12.3-.25 6.95-5.75 11.2-5.1 4-11.85 3.55l-1.9-.2q-3.65-.5-6.85-2.35 2.65-.9 4.95-2.75 5.45-4.3 5.7-11.15.35-6.9-4.6-12.35-2.1-2.25-4.65-3.8 3.55-1.15 7.75-.75" fill="#033"/><path d="m110.95 89.55-1.05-.05-.85-.15q-6.4.2-14-1.2l-2.3-.6q-6.4-1.15-10.9-6.05-5-5.45-4.7-12.3.4-6.95 5.8-11.2 5.45-4.3 12.65-3.55 7.9.1 15.75 1.75h.4l.55.1q6.85 1 11.65 6.2 4.95 5.45 4.6 12.3-.25 6.95-5.75 11.2-5.1 4-11.85 3.55l-1.9-.2q-3.65-.5-6.85-2.35-2.45-1.5-4.65-3.85-5.05-5.4-4.65-12.25.3-6.85 5.8-11.2 2.3-1.8 4.9-2.75 3.55-1.15 7.75-.75m-7.75.75q2.55 1.55 4.65 3.8 4.95 5.45 4.6 12.35-.25 6.85-5.7 11.15-2.3 1.85-4.95 2.75" fill="none" stroke="#000"/></g><g id="d"><path d="M-42.95-49.7q9.9-8.6 29.45-.05Q6.15-41.3 23.95-20.7 41.7-.1 47.3 20.5t-4.35 29.2-29.55.1q-19.55-8.5-37.35-29.1t-23.4-41.2q-5.55-20.6 4.4-29.2" fill="#690"/><path d="M25.9-8.8Q36.95 3.95 40.3 16.75q3.55 12.8-2.6 18.1t-18.35.05q-12.1-5.25-23.15-18T-18.3-8.65t2.7-18.1 18.25-.05q12.2 5.25 23.25 18" fill="#9f0"/></g><g id="a"><path d="M15.45.05q5.2.25 8.95 3.3 4.2 3.35 4.2 8.1t-4.2 8.1l-.65.5Q3.6 18.55 2.5 12.3q-.15-.75 0-1.55.25-1.65 1.6-3.55 2.35-3 7.55-7L10 1.6q2.8.7 1.9.9l-.7.05q-1.4.25-1.4.55l.05.05q-1.25.6-1.25 1.1 0 .55 1.85 1l.2.05Q8.6 7.7 8.6 9.35q-.05 1.9 2.15 3.25 2.2 1.3 5.3 1.3t6.45-1.1q3.3-1.15 3.75-3.05T25.5 5.7q-1.25-2.2-6.15-3.35L16.7 2Q15.65 2 15 .25l.45-.2" fill="#b5501a"/><path d="m16.7 2 2.65.35q4.9 1.15 6.15 3.35 1.2 2.15.75 4.05T22.5 12.8q-3.35 1.1-6.45 1.1t-5.3-1.3q-2.2-1.35-2.15-3.25 0-1.65 2.05-4.05l4.25.35 4.45-.4q1.8-.45 1.85-1-.05-.6-1.85-1.1h-.05V3.1q0-.3-1.4-.55-.6-.1-1.2-.55" fill="#8a3d13"/><path d="m21.3 21.5 3.7-.1q0 .85-1.9 1.55l1.5.2q3.65.7 3.65 1.7 0 .95-3.65 1.65l-8.7.65-8.75-.65q-3.65-.7-3.6-1.65-.05-1 3.6-1.7l.8-.1q-1.9-.6-2.8-2.25l.1-.05.45.65-.05-.55Q7.2 22 9.25 22.5l5.05.45q3.9-.05 7-1.45M7.95 23.05l.6.15q2.8.75 6.8.75l6.8-.75.95-.25-.95.25-6.8.75q-4 0-6.8-.75l-.6-.15" fill="#727107"/><path d="M23.75 20.05 21.3 21.5q-3.1 1.4-7 1.45-5.95-.05-10.15-3.4l-1.65-1.6Q0 15.1 0 11.45t2.5-6.5l1.65-1.6Q7.4.75 11.65.2q-5.2 4-7.55 7-1.35 1.9-1.6 3.55-.15.8 0 1.55 1.1 6.25 21.25 7.75M11.95.15 14.3 0H14.9l.55.05-.45.2-.05-.1-.1-.15-.05.35-2.85-.2" fill="#793511"/><path d="m10.65 5.3-.2-.05q-1.85-.45-1.85-1 0-.5 1.25-1.1.1.25 1.35.45l3.35.25 3.35-.25 1.4-.45h.05q1.8.5 1.85 1.1-.05.55-1.85 1l-4.45.4-4.25-.35" fill="#e2753a"/><path d="m11.65.2.1-.1.2.05L10 1.6 11.65.2M15 .25l-.2.1.05-.35.1.15.05.1" fill="#eda985"/><path d="M15 .25Q15.65 2 16.7 2q.6.45 1.2.55 1.4.25 1.4.55v.05l-1.4.45-3.35.25-3.35-.25q-1.25-.2-1.35-.45L9.8 3.1q0-.3 1.4-.55l.7-.05q.9-.2-1.9-.9L11.95.15l2.85.2.2-.1" fill="#f5d1be"/><path d="M15.45.05q5.2.25 8.95 3.3 4.2 3.35 4.2 8.1t-4.2 8.1l-.65.5-2.45 1.45 3.7-.1q0 .85-1.9 1.55l1.5.2q3.65.7 3.65 1.7 0 .95-3.65 1.65l-8.7.65-8.75-.65q-3.65-.7-3.6-1.65-.05-1 3.6-1.7l.8-.1q-1.9-.6-2.8-2.25l-.05.05q-.3.25-.2-.6l.55.45.2.15Q7.2 22 9.25 22.5l5.05.45q-5.95-.05-10.15-3.4l-1.65-1.6Q0 15.1 0 11.45t2.5-6.5l1.65-1.6Q7.4.75 11.65.2l.1-.1.2.05L14.3 0H14.9l.55.05-.45.2-.2.1-2.85-.2L10 1.6 11.65.2q-5.2 4-7.55 7-1.35 1.9-1.6 3.55-.15.8 0 1.55 1.1 6.25 21.25 7.75m-.65 2.9-.95.25-6.8.75q-4 0-6.8-.75l-.6-.15m-2.3-2.2.05.55-.45-.65-.1.05-.25-.55.35.5.2-.05m15.85.8q-3.1 1.4-7 1.45" fill="none" stroke="#000" stroke-opacity=".302"/></g><use xlink:href="#a" id="aC"/></defs><use xlink:href="#b"/><use transform="matrix(-.10738 -.00285 -.02109 .10365 122.6 75.85)" filter="url(#c)" xlink:href="#d"/><use transform="matrix(-.07999 -.05782 -.07532 .08656 120.4 82.55)" filter="url(#e)" xlink:href="#d"/><use transform="matrix(-.08978 .03287 .02008 .08072 115.9 77.85)" filter="url(#f)" xlink:href="#d"/><use transform="matrix(-.06407 -.05145 -.06584 .07018 121.8 86.8)" filter="url(#g)" xlink:href="#d"/><use transform="matrix(-.07999 -.05782 -.07532 .08656 110.95 77.8)" filter="url(#h)" xlink:href="#d"/><use transform="matrix(-.06407 -.05145 -.06584 .07018 112.35 82.05)" filter="url(#i)" xlink:href="#d"/><use transform="matrix(-.0108 .0729 -.14261 -.0041 125.5 88.3)" filter="url(#j)" xlink:href="#d"/><use transform="matrix(.0606 .05228 -.10358 .03197 110.65 86.95)" filter="url(#k)" xlink:href="#d"/><use transform="matrix(.0577 -.07314 .10916 .05061 92.15 88.95)" filter="url(#l)" xlink:href="#d"/><use transform="matrix(-.09308 -.00484 -.00438 -.06694 111.95 92.8)" filter="url(#m)" xlink:href="#d"/><use transform="matrix(-.06908 -.07855 .10153 -.0407 100 97)" filter="url(#n)" xlink:href="#d"/><use transform="matrix(-.11295 -.04501 .0494 -.07654 106.15 93.7)" filter="url(#o)" xlink:href="#d"/><use transform="matrix(-.01881 -.07422 .1015 -.00476 98.15 91.45)" filter="url(#p)" xlink:href="#d"/><use transform="matrix(-.07999 .02327 -.0421 -.06082 110.05 91.1)" filter="url(#q)" xlink:href="#d"/><use transform="matrix(-.01013 -.08873 .12282 .00328 101.1 94.55)" filter="url(#r)" xlink:href="#d"/><use transform="matrix(-.07591 .03194 -.05374 -.05888 119.4 90.4)" filter="url(#s)" xlink:href="#d"/><use transform="matrix(-.11269 -.04419 .04828 -.07648 113.15 98.75)" filter="url(#t)" xlink:href="#d"/><use transform="matrix(-.12157 .00328 -.01915 -.0886 115.5 93.4)" filter="url(#u)" xlink:href="#d"/><use transform="matrix(-.0704 -.05987 .07529 -.04392 107.55 94.5)" filter="url(#v)" xlink:href="#d"/><use transform="matrix(-.04463 .05228 -.07843 -.03864 116.7 89.5)" filter="url(#w)" xlink:href="#d"/><use transform="matrix(.07965 .05307 -.05785 .0749 122.4 61.6)" filter="url(#x)" xlink:href="#d"/><use transform="matrix(.09862 .00508 -.0066 .09204 119.35 66.95)" filter="url(#y)" xlink:href="#d"/><use transform="matrix(.04173 .0662 -.07144 .0397 125.95 66.3)" filter="url(#z)" xlink:href="#d"/><use transform="matrix(.08264 .00085 -.0019 .07709 115.2 68.85)" filter="url(#A)" xlink:href="#d"/><use transform="matrix(.09862 .00508 -.0066 .09204 129.55 68.8)" filter="url(#B)" xlink:href="#d"/><use transform="matrix(.08264 .00085 -.0019 .07709 125.5 70.7)" filter="url(#C)" xlink:href="#d"/><use transform="matrix(-.04358 .05063 .10596 .0703 111.6 67.85)" filter="url(#D)" xlink:href="#d"/><use transform="matrix(-.08067 .00142 .05232 .0727 123.2 74.7)" filter="url(#E)" xlink:href="#d"/><use transform="matrix(.10623 -.05566 .116 .07237 75.8 82.8)" filter="url(#F)" xlink:href="#d"/><use transform="matrix(.121 -.01831 .05334 .07452 84.5 81)" filter="url(#G)" xlink:href="#d"/><use transform="matrix(-.04304 -.0907 .15105 -.00941 85.95 96.6)" filter="url(#H)" xlink:href="#d"/><use transform="matrix(-.11725 -.07202 .10535 -.05647 95.4 95.25)" filter="url(#I)" xlink:href="#d"/><use transform="matrix(.01794 -.07297 .13078 .02342 86.6 91.1)" filter="url(#J)" xlink:href="#d"/><use transform="matrix(.10695 -.01901 .0521 .06638 88.15 87.2)" filter="url(#K)" xlink:href="#d"/><use transform="matrix(.15495 -.00124 .02934 .09154 90.9 80.1)" filter="url(#L)" xlink:href="#d"/><use transform="matrix(-.14725 .0161 -.05399 -.08962 110.7 92.95)" filter="url(#M)" xlink:href="#d"/><use transform="matrix(-.13158 -.01794 .00824 -.07443 100.9 92.1)" filter="url(#N)" xlink:href="#d"/><use transform="matrix(-.05977 -.0647 .10265 -.02385 93.85 90.7)" filter="url(#O)" xlink:href="#d"/><use transform="matrix(.02415 -.084 .12033 .02757 103.35 60)" filter="url(#P)" xlink:href="#d"/><use transform="matrix(-.08748 .01431 -.03049 -.06517 123 59.8)" filter="url(#Q)" xlink:href="#d"/><use transform="matrix(-.09457 -.06334 .07723 -.06102 113.7 66.35)" filter="url(#R)" xlink:href="#d"/><use transform="matrix(-.12161 -.02127 .01517 -.0857 118.15 61.8)" filter="url(#S)" xlink:href="#d"/><use transform="matrix(-.04665 -.0694 .09143 -.02551 109.85 61.25)" filter="url(#T)" xlink:href="#d"/><use transform="matrix(-.0643 .03938 -.06276 -.05136 120.8 58.5)" filter="url(#U)" xlink:href="#d"/><use transform="matrix(.0075 -.07591 .11436 .01607 87.65 61.6)" filter="url(#V)" xlink:href="#d"/><use transform="matrix(.04445 -.053 .08546 .03801 90.45 57.45)" filter="url(#W)" xlink:href="#d"/><use transform="matrix(.08626 .00194 .00954 .05873 93.4 54.75)" filter="url(#X)" xlink:href="#d"/><use transform="matrix(.10786 .03674 -.0393 .0685 98.6 53.9)" filter="url(#Y)" xlink:href="#d"/><use transform="matrix(.07187 -.02243 .0438 .0524 95.15 56.15)" filter="url(#Z)" xlink:href="#d"/><use transform="matrix(-.07282 .03719 -.06595 -.05518 117.2 58)" filter="url(#aa)" xlink:href="#d"/><use transform="matrix(-.02667 .06108 -.09491 -.02704 112.4 54.8)" filter="url(#ab)" xlink:href="#d"/><use transform="matrix(-.07835 .00993 -.02612 -.05504 111.55 59.05)" filter="url(#ac)" xlink:href="#d"/><use transform="matrix(.03177 .05408 -.0761 .01396 107.2 53.45)" filter="url(#ad)" xlink:href="#d"/><use transform="matrix(-.04106 .03755 -.0619 -.0335 108.6 56.4)" filter="url(#ae)" xlink:href="#d"/><use transform="matrix(-.15846 .00815 -.0304 -.11595 108.2 90.7)" filter="url(#af)" xlink:href="#d"/><use transform="matrix(-.1322 -.03293 .03021 -.09197 98.3 88.7)" filter="url(#ag)" xlink:href="#d"/><use transform="matrix(-.04362 -.08539 .11417 -.02142 91.3 86.4)" filter="url(#ah)" xlink:href="#d"/><use transform="matrix(.01523 -.11378 .1609 .02467 86.5 81.35)" filter="url(#ai)" xlink:href="#d"/><use transform="matrix(-.08518 -.06622 .08238 -.05386 93.1 84.35)" filter="url(#aj)" xlink:href="#d"/><use transform="matrix(.11569 .06415 -.07582 .07626 84.75 62.1)" filter="url(#ak)" xlink:href="#d"/><use transform="matrix(.13881 .01378 -.00262 .09906 80.7 67.7)" filter="url(#al)" xlink:href="#d"/><use transform="matrix(.06337 .07515 -.09747 .03697 90 67.5)" filter="url(#am)" xlink:href="#d"/><use transform="matrix(.0924 -.04236 .07028 .0721 80.95 73)" filter="url(#an)" xlink:href="#d"/><use transform="matrix(.09892 .03278 -.03395 .06782 86.35 71.05)" filter="url(#ao)" xlink:href="#d"/><use transform="matrix(-.10652 -.04358 .06398 -.0737 93.85 80)" filter="url(#ap)" xlink:href="#d"/><use transform="matrix(-.06036 -.0585 .08528 -.042 88.9 75.85)" filter="url(#aq)" xlink:href="#d"/><use transform="matrix(.02136 -.08437 .12231 .0142 77.8 72.65)" filter="url(#ar)" xlink:href="#d"/><use transform="matrix(-.04715 -.07924 .11536 -.033 85.9 72.8)" filter="url(#as)" xlink:href="#d"/><use transform="matrix(.05782 -.06012 .08687 .03943 81.55 67.95)" filter="url(#at)" xlink:href="#d"/><use transform="matrix(-.08766 -.01735 .02577 -.06052 91.65 72.8)" filter="url(#au)" xlink:href="#d"/><use transform="matrix(.094 -.00061 .00023 .06479 85.05 64.9)" filter="url(#av)" xlink:href="#d"/><use transform="matrix(.06502 .0724 -.10548 .04529 97.45 60.2)" filter="url(#aw)" xlink:href="#d"/><use transform="matrix(.1116 .0373 -.05489 .07713 91.25 63.75)" filter="url(#ax)" xlink:href="#d"/><use transform="matrix(.01434 .07101 -.10315 .01035 99.05 65.4)" filter="url(#ay)" xlink:href="#d"/><use transform="matrix(.08252 -.02712 .0388 .05669 87 66.4)" filter="url(#az)" xlink:href="#d"/><use transform="matrix(-.0027 -.0866 .12077 .00842 77.45 76.95)" filter="url(#aA)" xlink:href="#d"/><use transform="matrix(-.00739 .04971 -.07039 -.01134 103.65 55.2)" filter="url(#aB)" xlink:href="#d"/><use transform="matrix(-.08675 -.06502 .10866 -.03627 86.2 66.15)" xlink:href="#d"/><use transform="matrix(-.13177 -.03589 .04602 -.06558 92.45 63.2)" xlink:href="#d"/><use transform="matrix(-.02997 -.06232 .11302 -.00589 83.4 61.5)" xlink:href="#d"/><use transform="matrix(-.08665 .02112 -.0544 -.05055 96.65 61.05)" xlink:href="#d"/><use transform="matrix(.06958 -.03561 .07904 .0437 82.5 58.05)" xlink:href="#d"/><use transform="translate(85.95 29.85)" xlink:href="#aC"/></svg>