<svg width="139" height="171" viewBox="206.8 106.95 139.25 171.35" xmlns="http://www.w3.org/2000/svg" xmlns:xlink="http://www.w3.org/1999/xlink"><defs><radialGradient id="a" cx="0" cy="0" r="819.2" gradientTransform="matrix(-.07027 .0087 .0671 .1841 322.15 216.85)" gradientUnits="userSpaceOnUse"><stop stop-color="#f2df00" offset=".4"/><stop stop-color="#fff3ce" offset=".455"/><stop stop-color="#f3ff0b" offset=".486"/><stop stop-color="#ecb700" offset="1"/></radialGradient><radialGradient id="b" cx="0" cy="0" r="819.2" gradientTransform="matrix(-.07028 .00871 .0671 .18408 222.15 88.35)" gradientUnits="userSpaceOnUse"><stop stop-color="#f2df00" offset=".4"/><stop stop-color="#fff3ce" offset=".455"/><stop stop-color="#f3ff0b" offset=".486"/><stop stop-color="#ecb700" offset="1"/></radialGradient><radialGradient id="c" cx="0" cy="0" r="819.2" gradientTransform="matrix(-.07028 .00871 .0671 .18408 37.2 50.35)" gradientUnits="userSpaceOnUse"><stop stop-color="#f2df00" offset=".4"/><stop stop-color="#fff3ce" offset=".455"/><stop stop-color="#f3ff0b" offset=".486"/><stop stop-color="#ecb700" offset="1"/></radialGradient><radialGradient id="e" cx="0" cy="0" r="819.2" gradientTransform="matrix(-.07028 .00871 .0671 .18408 186.15 101.35)" gradientUnits="userSpaceOnUse"><stop stop-color="#f2df00" offset=".4"/><stop stop-color="#fff3ce" offset=".455"/><stop stop-color="#f3ff0b" offset=".486"/><stop stop-color="#ecb700" offset="1"/></radialGradient><radialGradient id="i" cx="0" cy="0" r="819.2" gradientTransform="matrix(-.07027 .0087 .0671 .1841 75.4 75.2)" gradientUnits="userSpaceOnUse"><stop stop-color="#f2df00" offset=".4"/><stop stop-color="#fff3ce" offset=".455"/><stop stop-color="#f3ff0b" offset=".486"/><stop stop-color="#ecb700" offset="1"/></radialGradient><radialGradient id="j" cx="0" cy="0" r="819.2" gradientTransform="matrix(-.07027 .0087 .0671 .1841 55 86.5)" gradientUnits="userSpaceOnUse"><stop stop-color="#f2df00" offset=".4"/><stop stop-color="#fff3ce" offset=".455"/><stop stop-color="#f3ff0b" offset=".486"/><stop stop-color="#ecb700" offset="1"/></radialGradient><radialGradient id="k" cx="0" cy="0" r="819.2" gradientTransform="matrix(-.07027 .0087 .0671 .1841 35.7 95.05)" gradientUnits="userSpaceOnUse"><stop stop-color="#f2df00" offset=".4"/><stop stop-color="#fff3ce" offset=".455"/><stop stop-color="#f3ff0b" offset=".486"/><stop stop-color="#ecb700" offset="1"/></radialGradient><radialGradient id="l" cx="0" cy="0" r="819.2" gradientTransform="matrix(-.07027 .0087 .0671 .1841 40.6 96.85)" gradientUnits="userSpaceOnUse"><stop stop-color="#f2df00" offset=".2"/><stop stop-color="#aa420b" offset=".455"/><stop stop-color="#f3ff0b" offset=".486"/><stop stop-color="#ecb700" offset="1"/></radialGradient><g id="f"><path d="m223.35 104.75 1.3 2.4.05-.1-1.35-2.3" fill="#fff433"/><path d="M201.35 43.15q-.7 4.6-.85 9.45v6q.3 6.75 1.6 14.1l.85 4.2 3.85 12.05 4.5 10.6 7.25 13.3 4.5 6.15q5.55 7.1 11.2 13.2l7.15 7.15 1.7-5.3-6.8-7.85-.05-.05-2.85-3.8q-3.55-4.9-7.1-10.75l-8.7-16.45q-3-6.25-5-12.25l-1.4-4.55-.65-2.9q-.95-3.6-1.45-7.15l-.8-10.35q-.1-7.85.35-12.4l-7.3-2.4" fill="#e09f0c"/><path d="M208.65 45.55q-.45 4.55-.35 12.4l.8 10.35q.5 3.55 1.45 7.15l.65 2.9 1.4 4.55q2 6 5 12.25l8.7 16.45q3.55 5.85 7.1 10.75l2.85 3.8.05.05 6.8 7.85.45-1.3q-2.8-2.5-6.45-7l-2.3-2.9q-3.95-5.2-7.75-11.6l-2.4-4.1-1.3-2.4-.15-.15-4.9-9.6q-3-6.15-5-12.1-1.25-3.6-2.1-7.2-.9-3.55-1.4-7.15l-.95-9.35.05-.7v-.05q-.15-9.2.45-12.7l-.7-.2" fill="#f7f128"/><path d="m214.45 115.8 1.85.5q2.35.1-.3-5.05h-.1q-4.15-8.05-7.25-15.05l-1-2.35q-3-7.15-4.85-13.1-1.35-4.55-2.05-8.5-.7-3.4-.8-6.45-4.4-8.7-8.65 3.4l-1.1 3.4q2.05 8.95 4.9 17.15l2.5 6.9q2.3 5.85 4.95 11.25 8.2 6.25 11.9 7.9" fill="#ffc"/><path d="M214.45 115.8q-3.7-1.65-11.9-7.9-2.65-5.4-4.95-11.25l-2.5-6.9q-2.85-8.2-4.9-17.15l1.1-3.4q4.25-12.1 8.65-3.4.1 3.05.8 6.45.7 3.95 2.05 8.5 1.85 5.95 4.85 13.1l1 2.35q3.1 7 7.25 15.05h.1q2.65 5.15.3 5.05l-1.85-.5m26.95 23.55-7.15-7.15q-5.65-6.1-11.2-13.2l-4.5-6.15-7.25-13.3-4.5-10.6-3.85-12.05-.85-4.2q-1.3-7.35-1.6-14.1v-6q.15-4.85.85-9.45L185.5 38v.15q-.75 6-.5 12.5l.45 6.3q.6 5.25 1.75 10.9l.15 1q1.3 5.75 3.15 11.8L197 98.5q3.15 7.4 6.75 14.2l5.8 10.1 3.85 5.8q5.9 8.5 12.85 15.75l3 3.1q3.75 3.65 7.35 6.5l4.8-14.6" fill="url(#b)"/></g><g id="d"><path d="m39.7 69.15.05-.1-1.35-2.3 1.3 2.4" fill="#fff433"/><path d="M16.4 5.15q-.7 4.6-.85 9.45v6q.3 6.75 1.6 14.1l.85 4.2 3.85 12.05 4.5 10.6 7.25 13.3L38.1 81q5.55 7.1 11.2 13.2l7.15 7.15 1.7-5.3-6.8-7.85-.05-.05-2.85-3.8q-3.55-4.9-7.1-10.75l-8.7-16.45q-3-6.25-5-12.25l-1.4-4.55-.65-2.9q-.95-3.6-1.45-7.15l-.8-10.35q-.1-7.85.35-12.4l-7.3-2.4" fill="#e09f0c"/><path d="m58.15 96.05.45-1.3q-2.8-2.5-6.45-7l-2.3-2.9q-3.95-5.2-7.75-11.6l-2.4-4.1-1.3-2.4-.15-.15-4.9-9.6q-3-6.15-5-12.1-1.25-3.6-2.1-7.2-.9-3.55-1.4-7.15l-.95-9.35.05-.7v-.05q-.15-9.2.45-12.7l-.7-.2q-.45 4.55-.35 12.4l.8 10.35q.5 3.55 1.45 7.15l.65 2.9 1.4 4.55q2 6 5 12.25l8.7 16.45q3.55 5.85 7.1 10.75l2.85 3.8.05.05 6.8 7.85" fill="#f7f128"/><path d="m29.5 77.8 1.85.5q2.35.1-.3-5.05h-.1Q26.8 65.2 23.7 58.2l-1-2.35q-3-7.15-4.85-13.1-1.35-4.55-2.05-8.5-.7-3.4-.8-6.45-4.4-8.7-8.65 3.4l-1.1 3.4q2.05 8.95 4.9 17.15l2.5 6.9q2.3 5.85 4.95 11.25 8.2 6.25 11.9 7.9" fill="#ffc"/><path d="M16.4 5.15.55 0v.15q-.75 6-.5 12.5l.45 6.3q.6 5.25 1.75 10.9l.15 1q1.3 5.75 3.15 11.8l6.5 17.85q3.15 7.4 6.75 14.2l5.8 10.1 3.85 5.8q5.9 8.5 12.85 15.75l3 3.1q3.75 3.65 7.35 6.5l4.8-14.6-7.15-7.15Q43.65 88.1 38.1 81l-4.5-6.15-7.25-13.3-4.5-10.6L18 38.9l-.85-4.2q-1.3-7.35-1.6-14.1v-6q.15-4.85.85-9.45M29.5 77.8q-3.7-1.65-11.9-7.9-2.65-5.4-4.95-11.25l-2.5-6.9q-2.85-8.2-4.9-17.15l1.1-3.4Q10.6 19.1 15 27.8q.1 3.05.8 6.45.7 3.95 2.05 8.5 1.85 5.95 4.85 13.1l1 2.35q3.1 7 7.25 15.05h.1q2.65 5.15.3 5.05l-1.85-.5" fill="url(#c)"/></g><g id="h"><path d="m188.65 120.15.05-.1-1.35-2.3 1.3 2.4" fill="#fff433"/><path d="M165.35 56.15q-.7 4.6-.85 9.45v6q.3 6.75 1.6 14.1l.85 4.2 3.85 12.05 4.5 10.6 7.25 13.3 4.5 6.15q5.55 7.1 11.2 13.2l7.15 7.15 1.7-5.3-6.8-7.85-.05-.05-2.85-3.8q-3.55-4.9-7.1-10.75l-8.7-16.45q-3-6.25-5-12.25l-1.4-4.55-.65-2.9q-.95-3.6-1.45-7.15l-.8-10.35q-.1-7.85.35-12.4l-7.3-2.4" fill="#e09f0c"/><path d="m207.1 147.05.45-1.3q-2.8-2.5-6.45-7l-2.3-2.9q-3.95-5.2-7.75-11.6l-2.4-4.1-1.3-2.4-.15-.15-4.9-9.6q-3-6.15-5-12.1-1.25-3.6-2.1-7.2-.9-3.55-1.4-7.15l-.95-9.35.05-.7v-.05q-.15-9.2.45-12.7l-.7-.2q-.45 4.55-.35 12.4l.8 10.35q.5 3.55 1.45 7.15l.65 2.9 1.4 4.55q2 6 5 12.25l8.7 16.45q3.55 5.85 7.1 10.75l2.85 3.8.05.05 6.8 7.85" fill="#f7f128"/><path d="m178.45 128.8 1.85.5q2.35.1-.3-5.05h-.1q-4.15-8.05-7.25-15.05l-1-2.35q-3-7.15-4.85-13.1-1.35-4.55-2.05-8.5-.7-3.4-.8-6.45-4.4-8.7-8.65 3.4l-1.1 3.4q2.05 8.95 4.9 17.15l2.5 6.9q2.3 5.85 4.95 11.25 8.2 6.25 11.9 7.9" fill="#ffc"/><path d="M165.35 56.15 149.5 51v.15q-.75 6-.5 12.5l.45 6.3q.6 5.25 1.75 10.9l.15 1q1.3 5.75 3.15 11.8l6.5 17.85q3.15 7.4 6.75 14.2l5.8 10.1 3.85 5.8q5.9 8.5 12.85 15.75l3 3.1q3.75 3.65 7.35 6.5l4.8-14.6-7.15-7.15q-5.65-6.1-11.2-13.2l-4.5-6.15-7.25-13.3-4.5-10.6-3.85-12.05-.85-4.2q-1.3-7.35-1.6-14.1v-6q.15-4.85.85-9.45m13.1 72.65q-3.7-1.65-11.9-7.9-2.65-5.4-4.95-11.25l-2.5-6.9q-2.85-8.2-4.9-17.15l1.1-3.4q4.25-12.1 8.65-3.4.1 3.05.8 6.45.7 3.95 2.05 8.5 1.85 5.95 4.85 13.1l1 2.35q3.1 7 7.25 15.05h.1q2.65 5.15.3 5.05l-1.85-.5" fill="url(#e)"/></g><g id="o"><use xlink:href="#f"/><use transform="translate(166.6 44)" xlink:href="#g"/><use xlink:href="#h"/></g><g id="m"><path d="M57.45.15q9.05-1 19.35 5.3 7.8 4.8 16.35 13.85 8.25 8.65 15.1 19.15l6.7 11q5.45 10.15 9.9 21.75l1.05 2.8q10.75 29.35 8.1 51.5-1.2 9.35-4.45 15.25-2.25 3.95-5.5 6.35-3.8 2.75-8.85 3.3l-4.45.1 1.15-2.6q9.35-2.9 10.4-21.7l.4-12.25q-.1-11.65-1.55-21.25-1.55-10.1-4.6-18l-.25-.7q-13.45-37.45-37.9-61.95l-3-2.15q-8.2-5.7-14.35-8.35l-3.6-1.4m9 55.05 2.05 3.15 6.7 11L77.65 74q4 8.1 7.5 17.05 6.7 17.5 8.75 32.55 1.55 11.65.35 21.75-1.05 8.5-3.85 14.15l-.6 1.15-.6 1-.95 1.35q-1.75 2.35-3.9 3.95-3.15 2.3-7.2 3.05l-1.65.25q-2.7.25-5.5 0l-1.4-.25q-7.4-1.35-15.4-7l-.35-.2.4.2q7.65 4.45 13.35 5.15 7.6.9 11.65-5.15 1.15-1.75 2-4l.3-.75q1.65-4.9 2.05-12.2l.4-12.25q-.1-9.05-1-16.85l-.6-4.4q-1.55-10.1-4.55-18Q73 83.75 68.25 74q-7.3-14.95-16.75-27.35l-1.2-1.55q-5.45-7-11.6-13.15-9.4-6.85-16.35-10.05l-1.05-.5-3.55-1.4q2.75-.3 5.65.1 13.7 1.8 30.05 19.05 7 7.35 13 16.05m24.8 104.1q6.7-1.9 9.25-11.7l.2-.75q.95-4.05 1.25-9.35l.4-12.25-.1-3.15q-.25-9.8-1.5-18.05Q99.2 93.95 96.2 86q-2.2-6.15-4.7-12-11.6-27.1-29.65-46.65l-2.2-2.3V25l-1.6-1.6q-9.4-6.85-16.35-10.1l-1-.45-3.6-1.35q2.55-.3 5.2 0 13.9 1.55 30.5 19.1 6.45 6.8 12.05 14.75l3 4.45 6.7 11q3.4 6.3 6.45 13.2l3.5 8.5q6.3 16.45 8.5 30.7 1.9 12.65.6 23.6-.8 6.5-2.6 11.3l-1 2.3-.85 1.7q-2.25 3.95-5.5 6.35-3.8 2.75-8.8 3.3-2.5.25-5.05 0l.95-1.55.5-.9M18.95 44.6l.5.2.6.15.1-.1.9 1 1.6 2.05.2.35-.4 1.55-.05.2-.25 2.3-7.3-2.4.45-2.6v-.05l1.05-4.5 2.2 1.6h.05l.35.25m41.25 99.35.5 2 .05.3-2.45 3-3.45-3.15 1.75-5.25 2.7 2.45.9.65" fill="#e09f0c"/><path d="m57.45.15 3.6 1.4Q67.2 4.2 75.4 9.9l3 2.15q24.45 24.5 37.9 61.95l.25.7q3.05 7.9 4.6 18 1.45 9.6 1.55 21.25l-.4 12.25q-1.05 18.8-10.4 21.7 1.8-4.75 2.6-11.1 1.35-11.1-.8-24.05 3.05-2.3 6.1-12.8-3.2-13.7-7.65-25.95-3.35-9.15-7.4-17.5l-.9-1.85-.45-.35q-18.85-14.5-18.55-8.95-5.6-7.95-12.05-14.75-16.6-17.55-30.5-19.1 1.55-3.45 3.8-5.8Q50.5.85 57.45.15" fill="url(#i)"/><path d="M84.85 45.35q-.3-5.55 18.55 8.95l.45.35.9 1.85q4.05 8.35 7.4 17.5 4.45 12.25 7.65 25.95-3.05 10.5-6.1 12.8-2.3-13.6-8.4-29.3l-3.65-8.7-.35-.75q-3.15-6.9-6.75-13.2l-6.7-11-3-4.45m-18.4 9.85q4 .75 16.55 10.45l.5.35.85 1.85L87.2 74q7.5 17.1 12.25 37.3-2.45 8.35-4.85 11.55-2.2-14.3-8.7-30.85l-3.6-8.7q-2.15-4.8-4.5-9.3l-2.6-4.65-6.7-11-2.05-3.15m-2.75 19 .45.3.85 1.85q9.5 19.6 15.1 43.5-6.2 21.35-12.55 8.8-.9-19.9-18.6-54.65l-2-3.85Q39.3 55.45 63.45 74l.25.2" fill="#ffc"/><path d="m111.9 147.9-1.15 2.6-.65 1.15q-2.6 4.45-6.45 6.8 3.25-2.4 5.5-6.35l.85-1.7 1-2.3q1.8-4.8 2.6-11.3 1.3-10.95-.6-23.6-2.2-14.25-8.5-30.7L101 74q-3.05-6.9-6.45-13.2 3.6 6.3 6.75 13.2l.35.75 3.65 8.7q6.1 15.7 8.4 29.3 2.15 12.95.8 24.05-.8 6.35-2.6 11.1m12.15-.8q3.25-2.4 5.5-6.35 3.25-5.9 4.45-15.25 2.65-22.15-8.1-51.5l-1.05-2.8q-4.45-11.6-9.9-21.75 3.8 6.65 7.1 13.95l3.6 8.75.7 1.85q11.2 29.45 8.55 51.45-1.15 9.15-4.45 14.9-2.55 4.4-6.4 6.75M75.2 69.35 77.8 74q2.35 4.5 4.5 9.3l3.6 8.7q6.5 16.55 8.7 30.85 1.85 12.05.55 22.5-1.05 8.4-3.9 13.95l-.5.9-.95 1.55-.95 1.25q-2 2.45-4.5 3.95 2.15-1.6 3.9-3.95l.95-1.35.6-1 .6-1.15q2.8-5.65 3.85-14.15 1.2-10.1-.35-21.75-2.05-15.05-8.75-32.55-3.5-8.95-7.5-17.05l-2.45-4.65M22.15 52.3l.25-2.3.85.7-.45 1.8-.65-.2m34.45 88.55.4-1.35 2.5 2-.2 1.8-2.7-2.45" fill="#f7f128"/><path d="M94.6 122.85q2.4-3.2 4.85-11.55Q94.7 91.1 87.2 74l-2.85-6.15L83.5 66l-.5-.35q-12.55-9.7-16.55-10.45-6-8.7-13-16.05Q37.1 21.9 23.4 20.1q4.75-7.7 13.7-8.6l3.6 1.35 1 .45q6.95 3.25 16.35 10.1l1.6 1.6v.05l2.2 2.3Q79.9 46.9 91.5 74q2.5 5.85 4.7 12 3 7.95 4.55 18.05 1.25 8.25 1.5 18.05l.1 3.15-.4 12.25q-.3 5.3-1.25 9.35l-.2.75q-2.55 9.8-9.25 11.7 2.85-5.55 3.9-13.95 1.3-10.45-.55-22.5" fill="url(#j)"/><path d="m17.75 20 3.55 1.4 1.05.5q6.95 3.2 16.35 10.05 6.15 6.15 11.6 13.15l1.2 1.55Q60.95 59.05 68.25 74q4.75 9.75 8.6 20.55 3 7.9 4.55 18l.6 4.4q.9 7.8 1 16.85l-.4 12.25q-.4 7.3-2.05 12.2l-.3.75q-.85 2.25-2 4-4.05 6.05-11.65 5.15-5.7-.7-13.35-5.15l-.4-.2-2.75-2.1 4.75-14.6 3.45 3.15 2.45-3-.15.5.3-.3.5-1.1q.85-1.85 1.3-4 .4-2.2.35-6.3l-.4-8.85q.1-16.4-8.05-35.75-3.85-9.1-8.05-16.45-2.65-4.55-5.45-8.5l-1.25-1.7-4.6-5.65Q26.7 48.7 19.55 44.4l-.95-.05h-.05l-2.2-1.6-1.05 4.5v.05l-.45 2.6L0 45.05v-5.2l2.35-8.1Q3.5 29.2 5 27.15q4.2-5.6 11-6.9l1.75-.25M63.7 74.2l-.25-.2q-24.15-18.55-16.5-3.85l2 3.85q17.7 34.75 18.6 54.65 6.35 12.55 12.55-8.8-5.6-23.9-15.1-43.5l-.85-1.85-.45-.3" fill="url(#k)"/><path d="m19.45 44.8-.05-.05.65.2-.6-.15m.7.05-.6-.45q7.15 4.3 15.7 13.75l4.6 5.65-4.05-4.75q-7.45-8.25-14.75-13.2l-.9-1M22.4 50l.05-.2.8.9-.85-.7m37.1 91.5.7 2.45-.9-.65.2-1.8m1.2 4.45.2.5-.3.3.15-.5-.05-.3" fill="#fbd602"/><path d="m19.4 44.75-.45-.15-.35-.25.95.05.6.45-.1.1-.65-.2" fill="url(#l)"/><path d="m126.05 123.2-.7 7.75q5.7-4.45 6.4-17.55.9-18.2-8.4-42.5Q114 46.7 99.9 30.5q-5.2-6.05-9.95-9.55 14.4 19.3 24.75 46.15 12.25 32.1 11.35 56.1" fill="#bf660f"/><path d="M78.55 22.85q-2.5-.35-4.75.85-2.2 1.1-2.9 2.9-.65 1.95.7 3.55 1.35 1.55 3.9 1.9 2.5.3 4.75-.8 2.25-1.15 2.9-3.05t-.7-3.45q-1.4-1.65-3.9-1.9" fill="#fbff9d"/><path d="m49.8 27.45 9.75 3.2.6-2.6q.3-.9-3.95-5Q60 25 63.55 27.7q-13.7-14.35-13.8-2.05l.05 1.8" fill="#fbd602"/><path d="m105.65 134.6-.7 7.75q5.7-4.45 6.4-17.55.9-18.2-8.4-42.5Q93.6 58.1 79.5 41.9q-5.2-6.05-9.95-9.55 14.4 19.3 24.75 46.15 12.25 32.1 11.35 56.1" fill="#bf660f"/><path d="M62.05 36.15q-1.4-1.65-3.9-1.9-2.5-.35-4.75.85-2.2 1.1-2.9 2.9-.65 1.95.7 3.55 1.35 1.55 3.9 1.9 2.5.3 4.75-.8 2.25-1.15 2.9-3.05t-.7-3.45" fill="#fbff9d"/><path d="m29.4 38.85 9.75 3.2.6-2.6q.3-.9-3.95-5 3.8 1.95 7.35 4.65-13.7-14.35-13.8-2.05l.05 1.8" fill="#fbd602"/><path d="m86.35 143.05-.7 7.75q5.7-4.45 6.4-17.55.9-18.2-8.4-42.5-9.35-24.2-23.45-40.4-5.2-6.05-9.95-9.55Q64.65 60.1 75 86.95q12.25 32.1 11.35 56.1" fill="#bf660f"/><path d="M42.75 44.6q-1.4-1.65-3.9-1.9-2.5-.35-4.75.85-2.2 1.1-2.9 2.9-.65 1.95.7 3.55 1.35 1.55 3.9 1.9 2.5.3 4.75-.8 2.25-1.15 2.9-3.05t-.7-3.45" fill="#fbff9d"/></g><use xlink:href="#d" id="g"/><use xlink:href="#m" id="p"/><path d="m285.8 163.9.65-2.25v5.2l-1-.3.35-2.65" fill="url(#a)" id="n"/></defs><use xlink:href="#n"/><use transform="translate(58.05 101.05)" xlink:href="#o"/><use transform="translate(208.5 107.8)" xlink:href="#p"/></svg>