<svg width="63" height="78" viewBox="245.5 67.8 62.9 78.2" xmlns="http://www.w3.org/2000/svg" xmlns:xlink="http://www.w3.org/1999/xlink"><defs><radialGradient id="a" cx="0" cy="0" r="819.2" gradientTransform="matrix(.03674 0 0 .03674 273.55 116.65)" gradientUnits="userSpaceOnUse"><stop stop-color="#bd8e60" offset=".102"/><stop stop-color="#f7c695" offset=".827"/></radialGradient><radialGradient id="b" cx="0" cy="0" r="819.2" gradientTransform="matrix(.02118 0 0 .02118 294.6 100.2)" gradientUnits="userSpaceOnUse"><stop stop-color="#bd8e60" offset=".102"/><stop stop-color="#f7c695" offset=".827"/></radialGradient><radialGradient id="c" cx="0" cy="0" r="819.2" gradientTransform="matrix(.01563 0 0 .0111 284.4 88.4)" gradientUnits="userSpaceOnUse"><stop stop-color="#bd8e60" offset=".102"/><stop stop-color="#f7c695" offset=".827"/></radialGradient><g id="d"><path d="M299.45 105.75q1.5 3.55 1.9 7.15l.05.15-.05-.15q-1.2.95-2.75.25-1.7-.8-3.95 0l-.6.2q-.9.05-1.8.45l-.7.5-.05.05.05-.05.7-.5q.9-.4 1.8-.45l1.8.2q1.9.55 3.1 2.1 1 1.35 1.35 3l.3 4-.1 1.6-.35 4q-.4 2.15-1.05 2.95l-.1.1q-3.7 2.65-9.05 8.7-5.4 6-16.5 5.75t-19.55-8.7q-8.4-8.4-8.4-20.3t8.4-20.35q8.45-8.4 20.35-8.6 4.4-.1 8.25 1.15-.15 1.1.05 2.2l.1.4q.4 1.5 1.15 2.7 1.6 2.6 3.95 4.9 2.3 2.25 5.55.9l.85.55q2.9 2.3 5.3 5.15m-8.3 8.85.35-.25h-.05l-.3.25-.1.05-1.65.1q-.95-6.2-4.5-9.6-1.8-1.8-4.1-2.7-2.55-1.5-5.5-1.8h-.1l-1.5-.05q-6.05 0-11.15 4.65t-4.45 11q.6 6.3 2.8 9l3.8 4.05q1.55 1.4 3.55 1.7l2.05.35.15.05 2.25.3 1 .05 4.75-.8.05-.05q2.85-1.05 5.25-3.4l.05-.1.25-.25 1.65-2.05.05-.05.9-1.5.05-.05.55-1.25 2.35-.25q1.65.1 2.95 4.4 1.35 4.25 1.7.45.35-3.85-.85-5.7-1.8-2.95-5.15-2.85l.15-1.5 1.1-.95v-.05l.55-.4.9-.65.2-.15" fill="url(#a)"/><path d="m300.9 92.15-.35 1.1q-.7 1.6-2.05 2.95-1.5 1.5-3.35 2.2v.05q2.75 3.6 4.3 7.3-2.4-2.85-5.3-5.15l-.85-.55q-3.25 1.35-5.55-.9-2.35-2.3-3.95-4.9-.75-1.2-1.15-2.7l.15-.2q3.6 3.15 8.25 3.35 4.7.15 8.6-1.85l1.25-.7m-26.65-4.35-.2-1.35 6.15-.45q2-.5 4.05-1.95-1.6 2.1-1.75 4.85v.05q-3.85-1.25-8.25-1.15m16.35 10.75q.95.45 2.05.3l2.5-.4-2.5.4q-1.1.15-2.05-.3m-2.2 18.25-.15 1.5-.05.4-.3 1.65-.05.05-.5 1.55v.05l-.1.25-.55 1.25-.05.05-.9 1.5-.05.05-1.65 2.05-.25.25-.05.1q-2.4 2.35-5.25 3.4l-.05.05-4.75.8-1-.05-2.25-.3-.15-.05-2.05-.35q-2-.3-3.55-1.7l-3.8-4.05q-2.2-2.7-2.8-9-.65-6.35 4.45-11t11.15-4.65l1.5.05h.1q2.95.3 5.5 1.8-2.55-.95-5.65-.9l-1.35.1q-5.05.55-8.4 4.5-3.85 4.5-4.05 9.6-.25 5.05 3.35 10.1 2.7 3.8 5.85 4.6l2.2.25 5.4-.6 1.25-.45 1.65-.9 2.35-1.7 1.9-2.3.9-1.45.65-1.35.05-.15.45-1.55.3-1.65v-.3q.15-.85.75-1.5" fill="#c99665"/><path d="M301.4 113.05q.65 6.7-.55 9.75l-.25-.15v-.3.3l-.3-4q-.35-1.65-1.35-3-1.2-1.55-3.1-2.1l-1.8-.2.6-.2q2.25-.8 3.95 0 1.55.7 2.75-.25l.05.15m-10.25 1.55-.2.15-.9.65-.55.4-.1-1.05 1.65-.1.1-.05m-2.9 3.7q3.35-.1 5.15 2.85 1.2 1.85.85 5.7-.35 3.8-1.7-.45-1.3-4.3-2.95-4.4l-2.35.25.1-.25v-.05l.5-1.55.05-.05.3-1.65.05-.4" fill="#d2a982"/><path d="m289.65 80.4 2.2-.25q3.9 0 6.65 2.75t2.75 6.65l-.35 2.6-1.25.7q-3.9 2-8.6 1.85-4.65-.2-8.25-3.35l-.15.2-.1-.4q-.2-1.1-.05-2.2v-.05q.15-2.75 1.75-4.85l.95-1.15q1.95-1.95 4.45-2.5" fill="url(#b)"/><path d="m274.05 86.45-.05-.7q0-3.6 2.55-6.2 2.6-2.55 6.2-2.55t6.15 2.55l.75.85q-2.5.55-4.45 2.5l-.95 1.15Q282.2 85.5 280.2 86l-6.15.45" fill="url(#c)"/><path d="m274.05 86.45-.05-.7q0-3.6 2.55-6.2 2.6-2.55 6.2-2.55t6.15 2.55l.75.85 2.2-.25q3.9 0 6.65 2.75t2.75 6.65l-.35 2.6-.35 1.1q-.7 1.6-2.05 2.95-1.5 1.5-3.35 2.2v.05q2.75 3.6 4.3 7.3 1.5 3.55 1.9 7.15l.05.15q.65 6.7-.55 9.75l-.25.45V122.35v.3l-.1 1.6-.35 4q-.4 2.15-1.05 2.95m-.1.1q-3.7 2.65-9.05 8.7-5.4 6-16.5 5.75t-19.55-8.7q-8.4-8.4-8.4-20.3t8.4-20.35q8.45-8.4 20.35-8.6l-.2-1.35m10.2-2.4.95-1.15q1.95-1.95 4.45-2.5m-7.15 8.55q-.15 1.1.05 2.2l.1.4q.4 1.5 1.15 2.7m-1.3-5.3v-.05q.15-2.75 1.75-4.85m-10 3.75q4.4-.1 8.25 1.15m12.65 9.5-2.5.4q-1.1.15-2.05-.3m.9 15.8.05-.05.7-.5q.9-.4 1.8-.45l1.8.2q1.9.55 3.1 2.1 1 1.35 1.35 3l.3 4m-9.45-8.05.3-.25h.05l-.35.25-.2.15-.9.65-.55.4v.05l-1.1.95m-7.6-14.35q2.3.9 4.1 2.7 3.55 3.4 4.5 9.6l.1 1.05m-8.7-13.35q-2.55-.95-5.65-.9l-1.35.1q-5.05.55-8.4 4.5-3.85 4.5-4.05 9.6-.25 5.05 3.35 10.1 2.7 3.8 5.85 4.6l2.2.25 5.4-.6 1.25-.45 1.65-.9 2.35-1.7 1.9-2.3.9-1.45.65-1.35.05-.15.45-1.55.3-1.65v-.3q.15-.85.75-1.5" fill="none" stroke="#a37a49" stroke-width=".5"/><path d="M281.2 81.55q-.7-.55-.65-1.25-.05-.7.65-1.2.65-.5 1.65-.5.95 0 1.6.5.7.5.7 1.2t-.7 1.25q-.65.5-1.6.5-1 0-1.65-.5m-14.65 9.25q1.15-.4 2.45-.55l.55-.1q2.5-.45 5.2-.1 3.7.35 6.7 1.8-.15 1.65 1.2 3.35-2.55-1.35-5.6-2-8.9-2.05-16.9 4.25-7.15 5.5-8.95 14.25-1.85 8.35 1.55 15 3.4 6.8 8.65 9.25 5.65 2.55 10.05 2.45l-3.05.4-2.4.05q-3.65-.35-7.05-2-7.1-3.3-9.95-10.95-1.65-4.15-1.65-8.5-.05-3.5 1.05-7.2 2.35-8.7 9.3-14.5 4.2-3.6 8.85-4.9m27.65-5.05q-.95.7-2.25.7-1.35 0-2.3-.7-.9-.75-.9-1.7 0-1 .9-1.7.95-.7 2.3-.7 1.3 0 2.25.7t.95 1.7q0 .95-.95 1.7" fill="#fff" fill-opacity=".302"/><path d="m276.6 83.6-4.8-1.6m9.6-4 .4-10.2m-2.6 11.8-2.8-5.2m16.2 6.8V75m4.4 13.8 11.4-3.2m-12.2-2 6-8.2m-8.4 9.8 2.6-8.6m-13 2 2-4" fill="none" stroke="#666" stroke-width=".5"/></g></defs><use xlink:href="#d"/></svg>