<svg viewBox="0 0 349.7 238.3" xmlns="http://www.w3.org/2000/svg" xmlns:xlink="http://www.w3.org/1999/xlink"><use transform="translate(0 .002)" width="349.7" height="238.5" xlink:href="#a"/><defs><use width="349.7" height="238.5" xlink:href="#b" id="a"/><g id="b"><path d="m50.6-75.85 8.45-.05 29.9-1.3q14.1-1.2 27.5-5.6 12.6-4.1 22.75-12.4 11.85-9.7 21.85-21.7 4.4-1.7 9-1.85 3.4-.1 3.65 3.85l.15 9.65-6.1-.15q-12.6 6.15-22.1 16.05-4.75 5-8.2 10.75-9.6 15.85-7.25 33.7.4 3.15 3.45 3.4l1.8.1-1.25 1.6q-10.3 12.95-24.05 22.1Q96.5-8.65 81.1-2.7L63.9 3.7q-13.25 4.8-26.65 8.95-4.65 1.45-9.2 3.35-17.7 7.45-33.95 18.05-9.25 6.05-16.25 14.85-5.1 6.5-8.35 14l-1.75 4.45q-1.65 4.75-1.95 9.8l.05 7.95.25 2.1q-8.65.1-16.1-3.85-1.4-.75-2.95-1-4.2-.65-8.1-2.95-9.35-7.25-12.75-9.4 2.9-18.65-3.95-36.35-1.4-3.55-3.45-6.2-6.9-8.85-15.6-2.2-1.2.95-1.95 2.35-3.1 5.55-5.1 11.5l-.95-5q-2.1-20.2 16.35-42.4 10.6-6.95 21.75-13.25 3.3-1.85 6.9-3.1 15.3-5.35 31.05-9.6 9.85-2.65 19.9-4.15l6.65-.95Q1.65-33.8-4-29.05q-11.1 9.4-24.95 13.95l-2.4.55q-3.4 1.05-6.5 3.1Q-54.5-.6-57.65 19.15q-.65 4 1.75 7.25 3.6 4.9 9.75 5.75 12.15 1.9 22.2-5.05 5.45-3.7 11.2-6.7Q-4.2 15.9 2.9 9.25L25.35-11.6q14.5-13.1 34.2-14.65 6.9-.5 13.8-1.75 11.95-2.1 21.7-9.25 12.55-9.3 13.3-24.4-.85-1.3-2.1-1.85-7-2.85-14.3-.35-18.65 6.4-37.75 2.35-1.15-.2-1.95-.9-6.65-5.7-1.65-13.45m-167.9 31.8q6.7-3.8 13.75-7.05 13.65-6.3 28-10.55Q-59.4-66.4-42.8-69.3l5.35-.9.85 1.5q-.35 1.5-1.15 2.6-2.9 3.7-6.9 6.55-14.45 9.95-31.8 13.25l-10.3 2.4q-15.05 3.65-29.95 1.15l-.6-1.3m86.4 28.15-.45 1.35.45-1.35m98.05.25-5.1-1.7Q49.95-16.1 39.9-9.2q-4.25 2.95-6.3 7.3L35.3.7q5.45 1.15 11.1-.1 7.15-1.25 13.45-4.7 7.45-3.95 7.3-11.55M-119.9 1.8q-2.9 4.4-5.25 9.2-4.75 9.85-11.9 18-1.85 2.1-4.15 2.6-7.4 1.5-13.6-3.65l-.75-.65q2.15-8.5 7-15.75 10.6-15.75 28.65-9.75" fill="#4e9801" fill-rule="evenodd" transform="translate(174.35 119.25)"/><path d="m173.85-105.25-.2 4.35q-.1 1.5-.7 2.95-7.55 18.4-20.55 33.35-7.15 8.15-12.9 17.35l-4.05 5.85-1.8-.1q-3.05-.25-3.45-3.4-2.35-17.85 7.25-33.7 3.45-5.75 8.2-10.75 9.5-9.9 22.1-16.05l6.1.15m-342.15 116q2.25-4.7 5.2-9.1 9.7-14.55 21.55-27.3 7.15-7.75 16.15-13.5 4-2.55 8.1-4.9l.6 1.3q14.9 2.5 29.95-1.15l10.3-2.4q17.35-3.3 31.8-13.25 4-2.85 6.9-6.55.8-1.1 1.15-2.6l-.85-1.5q15.25-2.45 30.65-3.75l33.9-1.7 23.5-.2q-5 7.75 1.65 13.45.8.7 1.95.9 19.1 4.05 37.75-2.35 7.3-2.5 14.3.35 1.25.55 2.1 1.85-.75 15.1-13.3 24.4Q85.3-30.1 73.35-28q-6.9 1.25-13.8 1.75-19.7 1.55-34.2 14.65L2.9 9.25Q-4.2 15.9-12.75 20.4q-5.75 3-11.2 6.7-10.05 6.95-22.2 5.05-6.15-.85-9.75-5.75-2.4-3.25-1.75-7.25 3.15-19.75 19.8-30.6 3.1-2.05 6.5-3.1l2.4-.55Q-15.1-19.65-4-29.05q5.65-4.75 1.8-10.3l51.2-7.1.2.85 2.85-1.3q-3.1-1.45-7.95-2.15l-17-1.35-5-.1q-6.55-.2-13 .3l-8 .35q-19.7.3-38.95 5.15l-10.1 2.7Q-66.5-36.9-84-29.15q-9.8 4.4-18.05 11.05-10.6 8.6-17.85 19.9-18.05-6-28.65 9.75-4.85 7.25-7 15.75-8.25-7.15-12.75-16.55m235.45-26.4q.15 7.6-7.3 11.55Q53.55-.65 46.4.6q-5.65 1.25-11.1.1l-1.7-2.6q2.05-4.35 6.3-7.3 10.05-6.9 22.15-8.15l5.1 1.7m-171 54.75q2-5.95 5.1-11.5.75-1.4 1.95-2.35 8.7-6.65 15.6 2.2 2.05 2.65 3.45 6.2Q-70.9 51.35-73.8 70l-1.2-.7q-12-5.95-20.65-15.45-6.1-6.75-8.2-14.75" fill="#799702" fill-rule="evenodd" transform="translate(174.35 119.25)"/><path d="M-67.45 109.3q-4.95-3.2-9.35-7.35-10.4-9.8-19.8-20.35l-1-5.2q-1.15-5.7-2.9-11.15-4.1-13.1-3.35-26.15 2.1 8 8.2 14.75Q-87 63.35-75 69.3l1.2.7-.4 3.05q-2.35 19.15 6.75 36.25m-78.15-45.4q-6.3-2.35-12.05-6.2-16.5-11.15-15.25-30.6l-.95-.2q1.85-8.45 5.55-16.15 4.5 9.4 12.75 16.55-4.35 17.85 6.9 32.65l3.05 3.95m25.7-62.1q7.25-11.3 17.85-19.9Q-93.8-24.75-84-29.15-66.5-36.9-47.95-42l10.1-2.7q19.25-4.85 38.95-5.15l8-.35q6.45-.5 13-.3l5 .1 17 1.35q4.85.7 7.95 2.15l-3.05.45-51.2 7.1-6.65.95q-10.05 1.5-19.9 4.15Q-44.5-30-59.8-24.65q-3.6 1.25-6.9 3.1-11.15 6.3-21.75 13.25l-4.65 3.1q-9.15 6.25-13.8 16.65-4.2-6.15-10.85-8.75l-2.15-.9" fill="#5f7502" fill-rule="evenodd" transform="translate(174.35 119.25)"/><path d="M21 81.65q3.9 0 5.1 2.45.5 1 .5 2-.2 8.35-7.75 13.65-7.7 5.45-16.85 9.05-13.9 5.4-28.85 8.45l-8.1 1.3-9.8-.35q-12.45-2.3-22.7-8.9-9.1-17.1-6.75-36.25l.4-3.05q3.4 2.15 12.75 9.4 3.9 2.3 8.1 2.95 1.55.25 2.95 1 7.45 3.95 16.1 3.85 1.5 10.6 11.65 15.55 4.85 2.35 17.75.2 12.9-2.2 25.5-21.3m-117.6-.05-5.5-6.35-3.5-4.4q-.85-1.15-1.85-1.95-2.35-1.95-5.4-2.15l-4.05-.25q-6.05-.25-12.05.25l-7.8-.4q-4.55-.9-8.85-2.45l-3.05-3.95q-11.25-14.8-6.9-32.65l.75.65q6.2 5.15 13.6 3.65 2.3-.5 4.15-2.6 7.15-8.15 11.9-18 2.35-4.8 5.25-9.2l2.15.9q6.65 2.6 10.85 8.75 4.65-10.4 13.8-16.65l4.65-3.1q-18.45 22.2-16.35 42.4l.95 5q-.75 13.05 3.35 26.15 1.75 5.45 2.9 11.15l1 5.2M49-46.45l3.05-.45-2.85 1.3-.2-.85m-155.9 57.9q-5.35 4.45-7.95 11.65-1.05 3-1.4 6.05-.65 5.95-.9 11.95-.35 6.85 2.4 12.9 3.4 7.35 7.85 14.1-4.45-6.75-7.85-14.1-2.75-6.05-2.4-12.9.25-6 .9-11.95.35-3.05 1.4-6.05 2.6-7.2 7.95-11.65" fill="#360" fill-rule="evenodd" transform="translate(174.35 119.25)"/><path d="M-30.5 62.9q-.1 2.7 1.7 4.05.9.65 1.25 1.45 1.85 4.3 6.55 6.9 2.85 1.6 6.15 2.6l4.7 1.7q2.25 1 4.4 1.3l18.85 1.2 5.95-.35 1.95-.1q-12.6 19.1-25.5 21.3-12.9 2.15-17.75-.2Q-32.4 97.8-33.9 87.2l-.25-2.1-.05-7.95q.3-5.05 1.95-9.8l1.75-4.45" fill="#285100" fill-rule="evenodd" transform="translate(174.35 119.25)"/><path d="m50.6-75.85 8.45-.05 29.9-1.3q14.1-1.2 27.5-5.6 12.6-4.1 22.75-12.4 11.85-9.7 21.85-21.7 4.4-1.7 9-1.85 3.4-.1 3.65 3.85l.15 9.65-.2 4.35q-.1 1.5-.7 2.95-7.55 18.4-20.55 33.35-7.15 8.15-12.9 17.35l-4.05 5.85-1.25 1.6q-10.3 12.95-24.05 22.1Q96.5-8.65 81.1-2.7L63.9 3.7q-13.25 4.8-26.65 8.95-4.65 1.45-9.2 3.35-17.7 7.45-33.95 18.05-9.25 6.05-16.25 14.85-5.1 6.5-8.35 14-.1 2.7 1.7 4.05.9.65 1.25 1.45 1.85 4.3 6.55 6.9 2.85 1.6 6.15 2.6l4.7 1.7q2.25 1 4.4 1.3l18.85 1.2 5.95-.35 1.95-.1q3.9 0 5.1 2.45.5 1 .5 2-.2 8.35-7.75 13.65-7.7 5.45-16.85 9.05-13.9 5.4-28.85 8.45l-8.1 1.3-9.8-.35q-12.45-2.3-22.7-8.9-4.95-3.2-9.35-7.35-10.4-9.8-19.8-20.35l-5.5-6.35-3.5-4.4q-.85-1.15-1.85-1.95-2.35-1.95-5.4-2.15l-4.05-.25q-6.05-.25-12.05.25l-7.8-.4q-4.55-.9-8.85-2.45-6.3-2.35-12.05-6.2-16.5-11.15-15.25-30.6m-.95-.2q1.85-8.45 5.55-16.15 2.25-4.7 5.2-9.1 9.7-14.55 21.55-27.3 7.15-7.75 16.15-13.5 4-2.55 8.1-4.9 6.7-3.8 13.75-7.05 13.65-6.3 28-10.55Q-59.4-66.4-42.8-69.3l5.35-.9q15.25-2.45 30.65-3.75l33.9-1.7 23.5-.2m-157.5 87.3q4.65-10.4 13.8-16.65l4.65-3.1q10.6-6.95 21.75-13.25 3.3-1.85 6.9-3.1 15.3-5.35 31.05-9.6 9.85-2.65 19.9-4.15l6.65-.95 51.2-7.1 3.05-.45m-158.95 115q-4.45-6.75-7.85-14.1-2.75-6.05-2.4-12.9.25-6 .9-11.95.35-3.05 1.4-6.05 2.6-7.2 7.95-11.65m73 75.75-.25-2.1-.05-7.95q.3-5.05 1.95-9.8l1.75-4.45m-3.4 24.3q1.5 10.6 11.65 15.55 4.85 2.35 17.75.2 12.9-2.2 25.5-21.3" fill="none" stroke="#000" stroke-linecap="round" stroke-linejoin="round" stroke-opacity=".4" transform="translate(174.35 119.25)"/><path d="M224.95 43.4q-5 7.75 1.65 13.45.8.7 1.95.9 19.1 4.05 37.75-2.35 7.3-2.5 14.3.35 1.25.55 2.1 1.85-.75 15.1-13.3 24.4-9.75 7.15-21.7 9.25-6.9 1.25-13.8 1.75-19.7 1.55-34.2 14.65l-22.45 20.85q-7.1 6.65-15.65 11.15-5.75 3-11.2 6.7-10.05 6.95-22.2 5.05-6.15-.85-9.75-5.75-2.4-3.25-1.75-7.25 3.15-19.75 19.8-30.6 3.1-2.05 6.5-3.1l.45-1.35m98.05.25q.15 7.6-7.3 11.55-6.3 3.45-13.45 4.7-5.65 1.25-11.1.1l-1.7-2.6q2.05-4.35 6.3-7.3 10.05-6.9 22.15-8.15l5.1 1.7M348.2 14l-6.1-.15Q329.5 20 320 29.9q-4.75 5-8.2 10.75-9.6 15.85-7.25 33.7.4 3.15 3.45 3.4l1.8.1M57.05 75.2l.6 1.3q14.9 2.5 29.95-1.15l10.3-2.4q17.35-3.3 31.8-13.25 4-2.85 6.9-6.55.8-1.1 1.15-2.6l-.85-1.5m35.25 30.85q3.85 5.55-1.8 10.3-11.1 9.4-24.95 13.95l-2.4.55m-88.55 16.35 2.15.9q6.65 2.6 10.85 8.75m-13-9.65q-18.05-6-28.65 9.75-4.85 7.25-7 15.75-4.35 17.85 6.9 32.65l3.05 3.95m71.8 6.1q2.9-18.65-3.95-36.35-1.4-3.55-3.45-6.2-6.9-8.85-15.6-2.2-1.2.95-1.95 2.35-3.1 5.55-5.1 11.5-.75 13.05 3.35 26.15 1.75 5.45 2.9 11.15l1 5.2m22.8-11.6-.4 3.05q-2.35 19.15 6.75 36.25" fill="none" stroke="#6c0" stroke-linecap="round" stroke-linejoin="round" stroke-opacity=".4" stroke-width="3"/></g></defs></svg>