<svg viewBox="0 0 264.13 331.66" xmlns="http://www.w3.org/2000/svg" xmlns:xlink="http://www.w3.org/1999/xlink"><g transform="translate(-115.95 15.799)"><use transform="matrix(1.0295 0 -.2226 .7565 194.55 55.549)" width="203.95" height="294.05" xlink:href="#a"/><use transform="translate(115.95 -15.8)" width="203.95" height="294.05" xlink:href="#a"/><use transform="matrix(.5301 .3759 -.2226 .7565 195.02 49.222)" width="203.95" height="294.05" xlink:href="#a"/><use transform="matrix(.6436 0 0 .7565 116.29 63.849)" width="203.95" height="294.05" xlink:href="#a"/></g><defs><g id="a" transform="translate(101.95 147.85)"><use transform="translate(-101.95 -61.75)" width="203.95" height="207.95" xlink:href="#b"/><use transform="rotate(-90 4.9 -35.558) scale(1.2857)" width="91.15" height="36" xlink:href="#c"/></g><g id="b"><path d="M69.3-59.95q1.85-1.45 4.8-.2 31 48 26.25 93.85-4.75 45.8-40.45 82.75-35.75 36.95-87.3 26.4l-8.5-1.9q-28.1-6.7-53.9-18.7-5.4-2.45-11.15.35l7.05-8.65q-2.45-5.9-.6-9.65 25.85 24.55 58.6 29.5 14.6 2.2 30.55.5 51.8-5.7 78.55-51.25Q99 38.95 89.05-12.1q-5.1-26-19.75-47.85" fill="#a0b5b9" fill-rule="evenodd" transform="translate(101.95 61.75)"/><path d="M69.3-59.95Q83.95-38.1 89.05-12.1 99 38.95 73.2 83.05 46.45 128.6-5.35 134.3q-15.95 1.7-30.55-.5-32.75-4.95-58.6-29.5 2.6-5.3 13.6-6.35 16.1 19.2 39.95 27.45l5.05 1.6q30.8 8.6 59.8-6.05 44.9-22.7 56.6-73.05 12-51.55-14.45-94.95 0-10.45 3.25-12.9" fill="#c7c7c7" fill-rule="evenodd" transform="translate(101.95 61.75)"/><path d="M176.05 1.6q-2.95-1.25-4.8.2Q168 4.25 168 14.7q26.45 43.4 14.45 94.95-11.7 50.35-56.6 73.05-29 14.65-59.8 6.05l-5.05-1.6q-23.85-8.25-39.95-27.45-11 1.05-13.6 6.35-1.85 3.75.6 9.65L1 184.35" fill="none" stroke="#000" stroke-linecap="round" stroke-linejoin="round" stroke-opacity=".212" stroke-width="2"/><path d="M1 184.35q5.75-2.8 11.15-.35 25.8 12 53.9 18.7l8.5 1.9q51.55 10.55 87.3-26.4 35.7-36.95 40.45-82.75 4.75-45.85-26.25-93.85z" fill="none" stroke="#000" stroke-linecap="round" stroke-linejoin="round" stroke-opacity=".212" stroke-width="2"/></g><g id="d" fill-rule="evenodd"><path d="M21.75-13.3q5.95 1.05 13.1 4.25Q42-5.9 42 .3T30.65 10.75Q19.25 15 0 15t-32.9-4.4Q-41 8-44.25 4.75q76.8.95 66-18.05" fill="#9f7700" transform="translate(47.05 18)"/><path d="M-44.25 4.75q1.7-3.35 1.7-7.7t11.65-8.2T0-15q11.95 0 21.75 1.7 10.8 19-66 18.05" fill="#c59901" transform="translate(47.05 18)"/><path d="m23.7-15.6.75-.1q1.25 0 2.1.85.9.9.9 2.15t-.9 2.1q-.85.9-2.1.9-1.1 0-1.9-.7.75-.2 1.3-.8.9-.85.9-2.1t-.9-2.15l-.15-.15m-10.35-.7q.9-.85 2.15-.85t2.1.85q.9.9.9 2.15t-.9 2.1q-.85.9-2.1.9t-2.15-.9q-.85-.85-.85-2.1t.85-2.15M2.1-17.15q.9.9.9 2.15t-.9 2.1q-.85.9-2.1.9t-2.15-.9Q-3-13.75-3-15t.85-2.15Q-1.25-18 0-18t2.1.85m1.3 2.3q0-1.25.85-2.15.9-.85 2.15-.85t2.1.85q.9.9.9 2.15t-.9 2.1q-.85.9-2.1.9t-2.15-.9q-.85-.85-.85-2.1m32.4 4.9q0 1.25-.9 2.1-.85.9-2.1.9t-2.15-.9q-.85-.85-.85-2.1t.85-2.15q.9-.85 2.15-.85t2.1.85q.9.9.9 2.15m2.3 2.7q.9-.85 2.15-.85t2.1.85q.9.9.9 2.15t-.9 2.1q-.85.9-2.1.9T38.1-3q-.85-.85-.85-2.1t.85-2.15m6 10.85q0 1.25-.9 2.1-.85.9-2.1.9t-2.15-.9q-.85-.85-.85-2.1t.85-2.15Q39.85.6 41.1.6t2.1.85q.9.9.9 2.15M31.45 9.1q0-1.25.85-2.15.9-.85 2.15-.85t2.1.85q.9.9.9 2.15t-.9 2.1q-.85.9-2.1.9t-2.15-.9q-.85-.85-.85-2.1m-3.6 1.05q.9.9.9 2.15t-.9 2.1q-.85.9-2.1.9t-2.15-.9q-.85-.85-.85-2.1t.85-2.15q.9-.85 2.15-.85t2.1.85M16.8 11q1.25 0 2.1.85.9.9.9 2.15t-.9 2.1q-.85.9-2.1.9t-2.15-.9q-.85-.85-.85-2.1t.85-2.15q.9-.85 2.15-.85M5.7 12.65q.9-.85 2.15-.85t2.1.85q.9.9.9 2.15t-.9 2.1q-.85.9-2.1.9t-2.15-.9q-.85-.85-.85-2.1t.85-2.15M1.9 15q0 1.25-.9 2.1-.85.9-2.1.9t-2.15-.9q-.85-.85-.85-2.1t.85-2.15q.9-.85 2.15-.85t2.1.85q.9.9.9 2.15M-44.35-6.6q.9-.85 2.15-.85t2.1.85q.9.9.9 2.15t-.9 2.1q-.85.9-2.1.9t-2.15-.9q-.85-.85-.85-2.1t.85-2.15m19.8-7.9q.9.9.9 2.15t-.9 2.1q-.85.9-2.1.9t-2.15-.9q-.85-.85-.85-2.1t.85-2.15q.9-.85 2.15-.85t2.1.85m-12.9 2.85q.9-.85 2.15-.85t2.1.85q.9.9.9 2.15t-.9 2.1q-.85.9-2.1.9t-2.15-.9q-.85-.85-.85-2.1t.85-2.15m31.6-3.1q0 1.25-.9 2.1-.85.9-2.1.9t-2.15-.9q-.85-.85-.85-2.1t.85-2.15q.9-.85 2.15-.85t2.1.85q.9.9.9 2.15m-8.85.8q0 1.25-.9 2.1-.85.9-2.1.9t-2.15-.9q-.85-.85-.85-2.1t.85-2.15q.9-.85 2.15-.85t2.1.85q.9.9.9 2.15m-2.4 25.5q.9.9.9 2.15t-.9 2.1q-.85.9-2.1.9t-2.15-.9q-.85-.85-.85-2.1t.85-2.15q.9-.85 2.15-.85t2.1.85m4.8.95q.9-.85 2.15-.85t2.1.85q.9.9.9 2.15t-.9 2.1q-.85.9-2.1.9t-2.15-.9q-.85-.85-.85-2.1t.85-2.15m-13.65-2.7q.9.9.9 2.15t-.9 2.1q-.85.9-2.1.9t-2.15-.9q-.85-.85-.85-2.1t.85-2.15q.9-.85 2.15-.85t2.1.85M-37.9 6.3l.95-.15q1.25 0 2.1.85.9.9.9 2.15t-.9 2.1q-.85.9-2.1.9t-2.15-.9q-.85-.85-.85-2.1 0-.8.4-1.45.65-.25 1.15-.8l.5-.6m-4.75.6-1.4.35q-1.25 0-2.15-.9-.85-.85-.85-2.1t.85-2.15q.9-.85 2.15-.85t2.1.85l.05.05-.75.5q-.85.9-.85 2.15t.85 2.1" fill-opacity=".212" transform="translate(47.05 18)"/><path d="m22.55-10.4-.8.1q-1.25 0-2.15-.9-.85-.85-.85-2.1t.85-2.15q.9-.85 2.15-.85 1.15 0 1.95.7l.15.15q.9.9.9 2.15t-.9 2.1q-.55.6-1.3.8M4.65-.95q1.25 0 2.1.85.9.9.9 2.15t-.9 2.1q-.85.9-2.1.9t-2.15-.9q-.85-.85-.85-2.1T2.5-.1q.9-.85 2.15-.85m6.9-1.45q.9-.85 2.15-.85t2.1.85q.9.9.9 2.15t-.9 2.1q-.85.9-2.1.9t-2.15-.9Q10.7 1 10.7-.25t.85-2.15m8.05-4.9q.9-.85 2.15-.85t2.1.85q.9.9.9 2.15t-.9 2.1q-.85.9-2.1.9t-2.15-.9q-.85-.85-.85-2.1t.85-2.15M-6.55 1.2q.9-.85 2.15-.85t2.1.85q.9.9.9 2.15t-.9 2.1q-.85.9-2.1.9t-2.15-.9q-.85-.85-.85-2.1t.85-2.15m-4.85.75q.9.9.9 2.15t-.9 2.1q-.85.9-2.1.9t-2.15-.9q-.85-.85-.85-2.1t.85-2.15q.9-.85 2.15-.85t2.1.85m-9.05.45q.9.9.9 2.15t-.9 2.1q-.85.9-2.1.9t-2.15-.9q-.85-.85-.85-2.1t.85-2.15q.9-.85 2.15-.85t2.1.85m-8.15 2.35q0 1.25-.9 2.1-.85.9-2.1.9t-2.15-.9q-.85-.85-.85-2.1t.85-2.15q.9-.85 2.15-.85t2.1.85q.9.9.9 2.15m-13.3-2.6q.6-.35 1.4-.35 1.25 0 2.1.85.9.9.9 2.15 0 .85-.4 1.5l-.5.6q-.5.55-1.15.8l-.95.1q-1.25 0-2.15-.9-.85-.85-.85-2.1t.85-2.15l.75-.5" fill="#9f7700" fill-opacity=".212" transform="translate(47.05 18)"/></g><use width="91.15" height="36" xlink:href="#d" id="c"/></defs></svg>