<svg viewBox="0 0 33.682 23.59" xmlns="http://www.w3.org/2000/svg" xmlns:xlink="http://www.w3.org/1999/xlink"><use transform="matrix(.9921 .1219 -.1219 .9921 2.72 -2.09)" width="32.5" height="24.85" xlink:href="#a"/><defs><use width="32.5" height="24.85" xlink:href="#b" id="a"/><g id="b"><path d="m6.25-15.85 6.2 4.2 3.45 4.3-4.8-3.1q-2.15-3.45-4.85-5.4" fill="#afe1ed" fill-opacity=".8" fill-rule="evenodd" transform="translate(16.55 17.65)"/><path d="m11.1-10.45 4.8 3.1q.15 2.5-.1 4.7L11.7-3.7l-.6-6.75" fill="#88adb8" fill-opacity=".8" fill-rule="evenodd" transform="translate(16.55 17.65)"/><path d="M15.8-2.65Q15.5-.2 14.7 1.9l-3.65.85q.8-2.3.65-6.45l4.1 1.05" fill="#607982" fill-opacity=".8" fill-rule="evenodd" transform="translate(16.55 17.65)"/><path d="M32.45 10.3q.15 2.5-.1 4.7-.3 2.45-1.1 4.55l-3.65.85M32.45 10.3 29 6l-6.2-4.2" fill="none" stroke="#e0f4f7" stroke-linecap="round" stroke-linejoin="round" stroke-opacity=".502" stroke-width=".05"/><path d="M-9.8 7.2q-3.55-.5-6-2.2V1.5l2.35-6.55 2.2-1.95 3.35.95 3.55 2.6Q-6.45-.45-7 1.3l-.8 3q-1.7 1.25-2 2.9m-4.5-7.6-.15 2.35 1.15-.8 1-1.9.3-1.75-1.15.25L-14.3-.4m-.35 5.9.45-1.15-.2-1-.7.85.45 1.3" fill="#afe1ed" fill-opacity=".8" fill-rule="evenodd" transform="translate(16.55 17.65)"/><path d="m-4.35-3.45 3.25 1.8L.6 3.2l-2.35 1.55q-.7-1.05-2.35-.9-1.7.1-2.85 1.95l-.15 1.25-2.7.15q.3-1.65 2-2.9l.8-3q.55-1.75 2.65-4.75" fill="#607982" fill-opacity=".8" fill-rule="evenodd" transform="translate(16.55 17.65)"/><path d="m-15.8 5-.75-.55q.1-2.85.4-3.85l2.55-6.65 1.85-1.1.5.15-2.2 1.95-2.35 6.55V5m1.5-5.4 1.15-1.85L-12-2.5l-.3 1.75-1 1.9-1.15.8.15-2.35m-.35 5.9-.45-1.3.7-.85.2 1-.45 1.15" fill="#f5faf9" fill-opacity=".702" fill-rule="evenodd" transform="translate(16.55 17.65)"/><path d="m12.2 14.2 3.25 1.8 1.7 4.85-2.35 1.55q-.7-1.05-2.35-.9-1.7.1-2.85 1.95l-.15 1.25-2.7.15" fill="none" stroke="#e0f4f7" stroke-linecap="round" stroke-linejoin="round" stroke-opacity=".502" stroke-width=".05"/><path d="M6.75 24.85q-3.55-.5-6-2.2L0 22.1q.1-2.85.4-3.85l2.55-6.65 1.85-1.1.5.15 3.35.95 3.55 2.6z" fill="none" stroke="#e0f4f7" stroke-linecap="round" stroke-linejoin="round" stroke-opacity=".502" stroke-width=".05"/><path d="m4.35-11.75-.05.05-.05-.15.1.1" fill="#897c5a" fill-rule="evenodd" transform="translate(16.55 17.65)"/><path d="m4.3-11.7.05-.05 6-.85q1.6 4.2 2.05 9l-5.05.55-1.45-4.1.9-.3.35-.8L9-9.45l-3.65.55-1.05-2.8" fill="#88adb8" fill-opacity=".8" fill-rule="evenodd" transform="translate(16.55 17.65)"/><path d="m10.35-12.6-6 .85-.1-.1-.4-.65q-.95-.3-1.35-1-1.05-.35-2.2-1.05L-1.85-16H-6.5L0-17.5q4-1.1 10.35 4.9m-6-3.95-2.45.95 2.6.4 1.45-.65-1.6-.7" fill="#afe1ed" fill-opacity=".8" fill-rule="evenodd" transform="translate(16.55 17.65)"/><path d="m-6.9-15.95.4-.05h4.65L.3-14.55q1.15.7 2.2 1.05.4.7 1.35 1l.4.65-1 1.5Q0-14.7-6.8-15.1l-.1-.85" fill="#768685" fill-rule="evenodd" transform="translate(16.55 17.65)"/><path d="M5.35-8.9 9-9.45l-1.85 1.2-.35.8-.9.3-.55-1.75m2 5.85 5.05-.55-2.2 7.1H7.25L7.2.55q-.1-1.7.15-3.6" fill="#607982" fill-opacity=".8" fill-rule="evenodd" transform="translate(16.55 17.65)"/><path d="m4.3-11.7 1.05 2.8.55 1.75 1.45 4.1Q7.1-1.15 7.2.55l.05 2.95-.6.1Q6.2-1.05 6.3-3.1l-3.05-7.25 1-1.5.05.15" fill="#697877" fill-rule="evenodd" transform="translate(16.55 17.65)"/><path d="m4.35-16.55 1.6.7-1.45.65-2.6-.4 2.45-.95" fill="#f5faf9" fill-opacity=".702" fill-rule="evenodd" transform="translate(16.55 17.65)"/><path d="M28.95 14.05q-.45-4.8-2.05-9m-3.1 16.1h2.95l2.2-7.1M10.05 1.65l-.4.05m.4-.05 6.5-1.5q4-1.1 10.35 4.9" fill="none" stroke="#e0f4f7" stroke-linecap="round" stroke-linejoin="round" stroke-opacity=".502" stroke-width=".05"/><path d="m-6.75-16.2.15-.05-.05.1-.1-.05" fill="#f2573c" fill-rule="evenodd" transform="translate(16.55 17.65)"/><path d="m-5.05-3.5 2.7 4.15.55.9h.05l.3.5 1.7 3.5-1.1.1-1.35-3.1-3.1-4.9-5.4-2.4-3-.55-.4-1.4.85.15 2.8.45 5.4 2.6" fill="#768685" fill-rule="evenodd" transform="translate(16.55 17.65)"/><path d="M3.25-10.8H2.7l-.7.5-.4 1.35H.3l-.5.45-3 2.9-.15.15.05.6-1.7 1.3-.05.05-5.4-2.6-2.8-.45 1.55-2.7 3.55-4.35 1.85-1.8 3.7.8 2.05.7 2.1 1.1 1.7 2" fill="#afe1ed" fill-opacity=".8" fill-rule="evenodd" transform="translate(16.55 17.65)"/><path d="m3.25-10.8 1.2 3.45 1.7 1.7-3.1 2.2L1.5-1.8l6-3.1-.35-1.5.6 2.55-9.2 5.9-.3-.5L1.5-.05-1.55 0l-.8.65-2.7-4.15.05-.05 1.7-1.3-.05-.6.15-.15 3-2.9.5-.45h1.3L2-10.3l.7-.5h.55" fill="#88adb8" fill-opacity=".8" fill-rule="evenodd" transform="translate(16.55 17.65)"/><path d="m-5-3.55-.05.05.05-.05" fill="#cf4a33" fill-rule="evenodd" transform="translate(16.55 17.65)"/><path d="m6.15-5.65 1-.75.35 1.5-6 3.1 1.55-1.65 3.1-2.2m-8.5 6.3.8-.65L1.5-.05l-3.25 1.6-.6-.9m.9 1.4 9.2-5.9v.05q.35 2.25.15 6.45L.25 5.55l-1.7-3.5" fill="#607982" fill-opacity=".8" fill-rule="evenodd" transform="translate(16.55 17.65)"/><path d="M7.15-6.4v-.05.05m-8.9 7.95h-.05l-.55-.9.6.9" fill="#8c3223" fill-rule="evenodd" transform="translate(16.55 17.65)"/><path d="M7.75-3.85v.05-.05" fill="#7a6e50" fill-rule="evenodd" transform="translate(16.55 17.65)"/><path d="M4.85-12.15q1.45 2.8 2.3 5.75l-1 .75-1.7-1.7-1.2-3.45.7-.8.9-.55" fill="#cae3e3" fill-opacity=".6" fill-rule="evenodd" transform="translate(16.55 17.65)"/><path d="m4.85-12.15-.9.55-.7.8-1.7-2-2.1-1.1-2.05-.7-3.7-.8-1.85 1.8-3.55 4.35-1.55 2.7-.85-.15q.7-.85 2.45-4.4 1.35-2.7 4.9-5.1l.1.05.05-.1q4.3-1.05 11.45 4.1" fill="#f5faf9" fill-opacity=".702" fill-rule="evenodd" transform="translate(16.55 17.65)"/><path d="M23.7 11.25q-.85-2.95-2.3-5.75m-2.85 1.85-.4 1.35m-4.95 3.5.05.6m-1.75 1.35 2.7 4.15m.6.9.3.5 1.7 3.5m7.5-9.4-.6-2.55m.6 2.6q.35 2.25.15 6.45l-7.65 2.9M2.85 12.35l-.4-1.4q.7-.85 2.45-4.4 1.35-2.7 4.9-5.1l.15-.05Q14.25.35 21.4 5.5m2.9 8.35v-.05m-12.8.35-5.4-2.6-2.8-.45-.85-.15m9.05 3.2.05-.05m3.25 5.1-.6-.9" fill="none" stroke="#e0f4f7" stroke-linecap="round" stroke-linejoin="round" stroke-opacity=".502" stroke-width=".05"/></g></defs></svg>