<svg viewBox="0 0 159.97 272.25" xmlns="http://www.w3.org/2000/svg" xmlns:xlink="http://www.w3.org/1999/xlink"><use transform="translate(.02 .025)" width="160" height="272.2" xlink:href="#a"/><defs><g id="a"><path d="M240.85 235.7q1.6-6.15 1.95-11.55l.1-4.15-.45-4.05q-1.6-10.85-10.65-13.9-6.8-2.3-17.85-.2 12.75-20.5 5.7-30.55-2.35-3.45-5.5-4.7-1.45-.6-3.05-.7l-13.2-2.15 21.55-11.65q4.05-3.05 11.85-4.8t12.6-3.85l4.8-2.15 2.5-1.1q1.1-.55 2.15-1 10.2-5.1 13.65-10.2l.45-.7 3.7-13.25q2.45-3.45 6.3-5.6 4.9-2.75 12.15-3.35l1.65-.15 1.45 1.5q7.2 7.55 7.9 24.9.65 46.25-19 85.4l-5.15 8.9-3.35-2.25-32.25 11.3m9.35-90.8h-.15l-3.25 1.15-5.95 1.8 17.3 4.7q8.35 11.35 19.65 31.3-7.45-23.9-8.85-49.25-6.7 5.75-18.75 10.3" fill="#c76401" fill-rule="evenodd" transform="translate(-154.9 -85.1)"/><path d="M291.25 105.95h1.25l.55-.1q1.9-.1 5.4 3.4 2.5-.05 6.05 3.35 24.65 47.45-9.55 106.15-1.5 6.6-7.05 15.4l-11.45-7.5 5.15-8.9q19.65-39.15 19-85.4-.7-17.35-7.9-24.9l-1.45-1.5" fill="#feac25" fill-rule="evenodd" transform="translate(-154.9 -85.1)"/><path d="M250.2 144.9q12.05-4.55 18.75-10.3 1.4 25.35 8.85 49.25-11.3-19.95-19.65-31.3l-17.3-4.7 5.95-1.8 3.25-1.15h.15" fill="#ac5602" fill-rule="evenodd" transform="translate(-154.9 -85.1)"/><path d="M277.45 109.45q-.3-9.85-3.7-24.35 10.85 10.1 15.85 21-7.25.6-12.15 3.35" fill="#fff" fill-rule="evenodd" transform="translate(-154.9 -85.1)"/><path d="M287.9 234.15q-18.15 28.5-79.45 80.15-14.95 12.6-32.45 26.6l-2.95 2.25L155 357.3l-.1-.15 16.5-14.8 18.3-17.05 22.75-22.25q44.05-44.4 64-76.4l11.45 7.5" fill="#734731" fill-rule="evenodd" transform="translate(-154.9 -85.1)"/><path d="m154.9 357.15 14.8-15.8q25.45-27.8 42.1-50.75l2.9-4.15 1.6-2.25q19.3-28.15 24.55-48.5l32.25-11.3 3.35 2.25q-19.95 32-64 76.4L189.7 325.3l-18.3 17.05-16.5 14.8" fill="#2f1d13" fill-rule="evenodd" transform="translate(-154.9 -85.1)"/><path d="M85.95 150.6q1.6-6.15 1.95-11.55l.1-4.15-.45-4.05q-1.6-10.85-10.65-13.9-6.8-2.3-17.85-.2 12.75-20.5 5.7-30.55-2.35-3.45-5.5-4.7-1.45-.6-3.05-.7L43 78.65 64.55 67q4.05-3.05 11.85-4.8T89 58.35l4.8-2.15 2.5-1.1q1.1-.55 2.15-1 10.2-5.1 13.65-10.2l.45-.7 3.7-13.25q2.45-3.45 6.3-5.6-.3-9.85-3.7-24.35 10.85 10.1 15.85 21m1.65-.15h1.25l.55-.1q1.9-.1 5.4 3.4 2.5-.05 6.05 3.35 24.65 47.45-9.55 106.15-1.5 6.6-7.05 15.4-18.15 28.5-79.45 80.15-14.95 12.6-32.45 26.6l-2.95 2.25L.1 272.2l-.1-.15m122.55-247.7q4.9-2.75 12.15-3.35" fill="none" stroke="#000" stroke-linecap="round" stroke-linejoin="round" stroke-opacity=".302" stroke-width=".05"/></g></defs></svg>