<svg viewBox="0 0 185.8 120.88" xmlns="http://www.w3.org/2000/svg" xmlns:xlink="http://www.w3.org/1999/xlink"><use transform="translate(0 .02)" width="185.8" height="120.85" xlink:href="#a"/><defs><g id="a"><path d="m306.3 138.75 7.2 2.6-4.8 2.2-3.5-1.3 1.05-3.5h.05m-60.55 8-22.85 9.7-.05-3.9 24.05-10.2-1.15 4.4" fill="#b9b155" fill-rule="evenodd" transform="translate(-163 -120)"/><path d="m335.95 138.15 9.65 36.65-108.15 51.65-5.5-40.9 104-47.4" fill="#c4c400" fill-rule="evenodd" transform="translate(-163 -120)"/><path d="m169.8 190.95 14.2-27.7 47.95 22.3 5.5 40.9-67.65-35.5" fill="#e1e70a" fill-rule="evenodd" transform="translate(-163 -120)"/><path d="m330.35 136.1 5.6 2.05-52 23.7-8.9-3-52.15-2.4 22.85-9.7 59.45-4.5 3.5 1.3 4.8-2.2-7.2-2.6 24.05-2.65m-116.8 14.6 22.85-9.7 10.5 1.35-24.05 10.2-9.3-1.85" fill="#f7fa7e" fill-rule="evenodd" transform="translate(-163 -120)"/><path d="m236.4 141 34.05-14.45 8.4 2.25-31.95 13.55-10.5-1.35m64.35-15.65 29.6 10.75-24.05 2.65h-.05l-27.35-9.95 21.85-3.45m4.45 16.9-59.45 4.5 33.1-14.05 26.35 9.55" fill="#fafca0" fill-rule="evenodd" transform="translate(-163 -120)"/><path d="m306.25 138.75-1.05 3.5-26.35-9.55-33.1 14.05 1.15-4.4 31.95-13.55h.05l27.35 9.95" fill="#9f9842" fill-rule="evenodd" transform="translate(-163 -120)"/><path d="m270.45 126.55 15.5-6.55 14.8 5.35-21.85 3.45h-.05l-8.4-2.25" fill="#fdfee0" fill-rule="evenodd" transform="translate(-163 -120)"/><path d="m184 163.25 29.55-12.55 9.3 1.85-14.6 6.2 4.4 2.05 10.25-4.35 52.15 2.4 8.9 3-52 23.7-47.95-22.3" fill="#eaf466" fill-rule="evenodd" transform="translate(-163 -120)"/><path d="m222.85 152.55.05 3.9-10.25 4.35-4.4-2.05 14.6-6.2" fill="#cac57d" fill-rule="evenodd" transform="translate(-163 -120)"/><path d="m346.6 176.95 2.2 4.75-112.95 59.15-72.85-45.2 3.4-2.35 70.15 38.4q55-27.35 110.05-54.75" fill="#dbd7a6" fill-rule="evenodd" transform="translate(-163 -120)"/><path d="m345.6 174.8 1 2.15q-55.05 27.4-110.05 54.75l-70.15-38.4 3.4-2.35 67.65 35.5L345.6 174.8" fill="#b9b153" fill-rule="evenodd" transform="translate(-163 -120)"/><path d="m167.35 16.1 5.6 2.05 9.65 36.65-108.15 51.65-5.5-40.9 104-47.4M6.8 70.95 21 43.25 50.55 30.7 73.4 21l34.05-14.45L122.95 0l14.8 5.35 29.6 10.75M21 43.25l47.95 22.3M6.8 70.95l67.65 35.5" fill="none" stroke="#000" stroke-linecap="round" stroke-linejoin="round" stroke-opacity=".4" stroke-width=".05"/></g></defs></svg>