<svg viewBox="0 0 58.55 49.8" xmlns="http://www.w3.org/2000/svg" xmlns:xlink="http://www.w3.org/1999/xlink"><use width="58.55" height="49.8" xlink:href="#a"/><defs><g id="a"><path d="M279.6 180.55v.3l-.55 10.55-.1.2-10.45 18.9.75-34.9 10.35 4.95m20.6 20.3-7 9.65-.05.1h-.3v.05l-.2.1-12.1 5.15 10.15-17.95h.05l9.45 2.9m.95 20.95-14.55 1.85.6-.4 3.6-2.5v-.1l10.35 1.15m-15.95-9.9 6.25-11.95-6.25 11.95m-5.6-31.05-8.9 7.8 8.9-7.8" fill="#bbf" fill-rule="evenodd" transform="translate(-245.7 -175.05)"/><path d="m279.05 191.4.3.4 11.2 5.9.15.25-10.15 17.95 12.1-5.15.2-.1-2.05 10v.1l-3.6 2.5-.6.4-3.05.7H270.9l-6.65-5.45-18.05-25.85 22.6-17.25.45-.2-.75 34.9 10.45-18.9.1-.2m-5.3 13.25 5.55-.55 4.2-6.95-4.6-2.15h-.05l-5.1 9.65m19.2 5.95h.1-.15.05m-32.6-13.45L255.2 189l-5.35 3.55 4.75 8.2 5.75-3.6m-10.05-1.8-3.45-2.05 3.45 2.05m27.25 28.1L270.7 217l-11.75-16.8L270.7 217l6.85 6.45M266.95 192l-5.55 4.85 5.55-4.85m12.2 31.45 3.5-6.7-3.5 6.7" fill="#f2f2ff" fill-rule="evenodd" transform="translate(-245.7 -175.05)"/><path d="m273.75 204.65 5.1-9.65h.05l4.6 2.15-4.2 6.95-5.55.55m-13.4-7.5-5.75 3.6-4.75-8.2 5.35-3.55 5.15 8.15" fill="#fff" fill-rule="evenodd" transform="translate(-245.7 -175.05)"/><path d="m279.35 191.8 14.15 3.95 6.9 4.8-.2.3-9.45-2.9.05-.1-.25-.15-11.2-5.9m13.95 18.75 10.45 2.7-2.4 8.45-.2.1-10.35-1.15 2.05-10 .05-.05-.05.05v-.05h.3l.15-.05" fill="#d5d5ff" fill-rule="evenodd" transform="translate(-245.7 -175.05)"/><path d="m279.6 180.85.3-.3m11.55 19.4-6.25 11.95m-14.5-23.25 8.9-7.8m-32.75 12.45 3.45 2.05m32.35 21.4-3.5 6.7m-17.75-26.6 5.55-4.85" fill="none" stroke="#ceceff" stroke-linecap="round" stroke-linejoin="round" transform="translate(-245.7 -175.05)"/><path d="M279.6 180.55v.3l-.55 10.55-.1.2" fill="none" stroke="#000" stroke-linecap="round" stroke-linejoin="round" transform="translate(-245.7 -175.05)"/><path d="m279.05 191.4.3.4 14.15 3.95 6.9 4.8-.2.3-7 9.65-.05.1.1-.05h.05l10.45 2.7-2.4 8.45-.2.1-14.55 1.85-3.05.7H270.9l-6.65-5.45-18.05-25.85 22.6-17.25.3-.25.15.05 10.35 4.95m-10.35-4.95-.45.2m21.9 22.15-.15-.25.25.15-.1.1h.05m2.1 12.7-.2.1m.5-.15.05-.1m-.15.1h-.15l-.05.05m.05-.05h.05m-.05 0h-.05m.45-.05-.15.05m-2.35 10.15v-.1" fill="none" stroke="#000" stroke-linecap="round" stroke-linejoin="round" transform="translate(-245.7 -175.05)"/><path d="m278.95 191.6-10.45 18.9.75-34.9m21.3 22.1-11.2-5.9m11.4 6.15 9.45 2.9m-7.55 9.9-12.1 5.15 10.15-17.95m2.25 12.65h.2m-.3.05-2.05 10 10.35 1.15m-8.3-11.2v.05m-5.65 12.6 3.6-2.5" fill="none" stroke="#8c8cff" stroke-linecap="round" stroke-linejoin="round" transform="translate(-245.7 -175.05)"/><path d="M258.95 200.2 270.7 217l6.85 6.45" fill="none" stroke="#e1e1ff" stroke-linecap="round" stroke-linejoin="round" transform="translate(-245.7 -175.05)"/></g></defs></svg>