<svg viewBox="0 0 118.51 35.824" xmlns="http://www.w3.org/2000/svg" xmlns:xlink="http://www.w3.org/1999/xlink"><use transform="translate(.03 .05)" width="118.45" height="35.75" xlink:href="#a"/><defs><g id="a"><path d="m234.8 171.5.45 1.1-.25.15-.45-1.15.25-.1" fill="#660" fill-rule="evenodd" transform="translate(-214.6 -156.35)"/><path d="m235.25 172.6 1.15 2.65-.95-1-.45-1.5.25-.15m8.25 10.5 1.05.35q3 2.35 5.45 2.15l-3.75.5-2.75-3" fill="#ff6" fill-rule="evenodd" transform="translate(-214.6 -156.35)"/><path d="m214.6 165.15.1-1 .15.95-.25.05" fill="#cc0" fill-rule="evenodd" transform="translate(-214.6 -156.35)"/><path d="M313.75 175.4q3.75.3 6.6-.65l.05.2-5.2 1.3-1.05.1-.4-.95m-61.65 11.75H245l-4.55-6.05-1.1-1.2-3.9-4.75-6.2-2.85-1-.15q-3.75 2.3-10.05 1-2.35-2.55-.3-4.6-2.45-1.75-3.05-3.45l-.15-.95q.35-3.7 2.15-6 2-2.65 4.15-1.45 2.1 1.15 7 2.35t5.25 4.8q2.3 12.3 10.9 18.25 4 2.7 7.65 2.9l.05.4.25 1.75m-16.85-14.55-.45-1.1-3.5-8.35q-3.8-3.55-9.55-4.6l-3 .3q-3.9 2.6-1.3 7.25 3.75.9 2.9 4.75 5.7.5 8.95-2 3.5-.9 5.25 2.75l.45 1.15.45 1.5.95 1-1.15-2.65m8.25 10.5 2.75 3 3.75-.5q-2.45.2-5.45-2.15l-1.05-.35" fill="#ff9" fill-rule="evenodd" transform="translate(-214.6 -156.35)"/><path d="m320.35 174.75 1.8-.75-.2-1.45q0-2.75 1.35-3.9 1.3-1.2 2.65.35 1.4 1.55 4.25 1.2 2.85-.4 2.85 2.35v1.25q-.65 2.95-4.15 3.65-2.6.65-5.2-3.35l-3.3.85-.05-.2m-30.05-.45q-1.95-1.7-2.3-2.8-22.1-4.85 8.7-.35l5.6 1.75q-13.3-.15-12 1.4m-55.75-2.7q-1.75-3.65-5.25-2.75-3.25 2.5-8.95 2 .85-3.85-2.9-4.75-2.6-4.65 1.3-7.25l3-.3q5.75 1.05 9.55 4.6l3.5 8.35-.25.1" fill="#ffc" fill-rule="evenodd" transform="translate(-214.6 -156.35)"/><path d="M264.15 163.55q8-6.15 15.95-5.2l3.15.6q10.1 2.95 17.85 6.6 8.05 5.5 9.5 9.9-6.75 6.85-16.65 9.75l-1.35.35-.5.1-10.4 2.5-19.75 3.95h-4.3q-4.05-9.1 8.6-11.1-5.85-2.45-4.65-6.05 3.55-4.8 8.55-7.05 12.6-5.75 34.25 4.8-13.6-13.25-33.25-7.7-4.85 1.95-8 5.25-2.3-2.25 1-6.7m26.15 10.75q-1.3-1.55 12-1.4l-5.6-1.75q-30.8-4.5-8.7.35.35 1.1 2.3 2.8m-1.6 6.1-3.7 3.7 21.9-8.3-18.2 4.6" fill="#600" fill-rule="evenodd" transform="translate(-214.6 -156.35)"/><path d="M301.1 165.55q8.1 3.85 13.55 8.55l-.9 1.3.4.95 1.05-.1 5.2-1.3 3.3-.85q2.6 4 5.2 3.35 3.5-.7 4.15-3.65l-.5 3.45q-.55 1.9-3.5 1.9t-5-1.9q-.95-.9-1.5-2-4.5.15-7.8 2.5l-1.4 2.05q-9.55 2.9-19.4 5.4 9.9-2.9 16.65-9.75-1.45-4.4-9.5-9.9m-43.45 26.55q-4.65-.3-5.55-4.95l-.25-1.75-.05-.4q4.85-15.1 10.5-19.95l1.85-1.5q-3.3 4.45-1 6.7 3.15-3.3 8-5.25 19.65-5.55 33.25 7.7-21.65-10.55-34.25-4.8-5 2.25-8.55 7.05-1.2 3.6 4.65 6.05-12.65 2-8.6 11.1m-18.3-12.2q-5.25-5.7-9.7-6.25-2.4 2.15-6 2.15-1.85 0-3.45-.8l-1.8.45q-1.45 0-2.45-1.05-1.05-1-1.05-2.45 0-1.05.6-1.9-1-2.2-.9-4.9l.25-.05q.6 1.7 3.05 3.45-2.05 2.05.3 4.6 6.3 1.3 10.05-1l1 .15 6.2 2.85 3.9 4.75m49.35.5 18.2-4.6-21.9 8.3 3.7-3.7m-36.45 4.95-.4.05.4-.05m61.6-8.95.3-.05.6 1.4-.6-1.4-.3.05" fill-rule="evenodd" transform="translate(-214.6 -156.35)"/><path d="M49.55 7.2q8-6.15 15.95-5.2l3.15.6q10.1 2.95 17.85 6.6 8.1 3.85 13.55 8.55l-.9 1.3q3.75.3 6.6-.65l1.8-.75-.2-1.45q0-2.75 1.35-3.9 1.3-1.2 2.65.35 1.4 1.55 4.25 1.2 2.85-.4 2.85 2.35v1.25l-.5 3.45q-.55 1.9-3.5 1.9t-5-1.9q-.95-.9-1.5-2-4.5.15-7.8 2.5l-1.4 2.05q-9.55 2.9-19.4 5.4L78 29.2l-.5.1-10.4 2.5-19.75 3.95h-4.3q-4.65-.3-5.55-4.95h-7.1l-4.55-6.05-1.1-1.2q-5.25-5.7-9.7-6.25-2.4 2.15-6 2.15-1.85 0-3.45-.8l-1.8.45q-1.45 0-2.45-1.05Q.3 17.05.3 15.6q0-1.05.6-1.9-1-2.2-.9-4.9l.1-1q.35-3.7 2.15-6Q4.25-.85 6.4.35q2.1 1.15 7 2.35t5.25 4.8q2.3 12.3 10.9 18.25 4 2.7 7.65 2.9 4.85-15.1 10.5-19.95l1.85-1.5M37.5 30.8l-.25-1.75-.05-.4m.05.4.4-.05m62.5-7.6-.6-1.4-.3.05m-.1-1 .4.95" fill="none" stroke="#000" stroke-linecap="round" stroke-linejoin="round" stroke-opacity=".4" stroke-width=".05"/></g></defs></svg>