<svg viewBox="0 0 107.54 57.303" xmlns="http://www.w3.org/2000/svg" xmlns:xlink="http://www.w3.org/1999/xlink"><g transform="translate(-316.35 -150.5)"><use transform="matrix(1.2105 0 0 .3254 321.6 180.2)" width="79.3" height="79.3" xlink:href="#a"/><use transform="translate(316.35 150.5)" width="107.55" height="57.3" xlink:href="#b"/></g><defs><g id="b" transform="translate(53.75 28.65)"><use transform="translate(-53.75 -28.65)" width="107.55" height="57.3" xlink:href="#e"/><use transform="matrix(-1.256 -1.2168 1.2168 -1.256 -15.55 16.95)" width="3.95" height="5.6" xlink:href="#f"/><use transform="matrix(-.3589 1.2041 1.2041 .3589 -20.7 -2.3)" width="3.95" height="5.6" xlink:href="#f"/><use transform="matrix(-.3589 1.2041 1.2041 .3589 -10.6 -4.05)" width="3.95" height="5.6" xlink:href="#f"/><use transform="translate(-29.6 -26.3)" width="62.05" height="42.5" xlink:href="#g"/></g><g id="e"><path d="m-16.65-24.65-3.5 3.8q-1.7 5.35 0 4.3 5.8-2.65 7.25-8.1-.9-2.7-3.75 0m11.45 11-7.1-6.15q-1.4 3.05-5.15 4.85-2.6 1.55-5.25.7l-.7-1.5q.8-8.3 6.25-11.25 3.3-1.75 6.15-.85l6.25 5.6v6q0 1.3-.45 2.6m17.45 3.3L3.75-8.6l-7.6-3.6.4-1.4.8-6.75 2.15 1.9q6.45 4.75 12.75 8.1" fill="url(#h)" fill-rule="evenodd" transform="translate(53.75 28.65)"/><path d="m-20.15-20.85 3.5-3.8q2.85-2.7 3.75 0-1.45 5.45-7.25 8.1-1.7 1.05 0-4.3m-2.55 6.6q2.65.85 5.25-.7 3.75-1.8 5.15-4.85l7.1 6.15q-1 2.85-4.15 5.75 4.2-1.5 5.5-4.3l7.6 3.6 8.5-1.75Q14.6-9.1 16.95-8l-1.55.35-26.95 3.25q-7.25-2.4-11.15-9.85m-24.15 31.2q3.7-2.25 4.4-8.45l14.2-1.35 4.05 2.7-1.45-2.55 31.1-3.7q-2.3 3.15-5.7 6l-6.1 3.6-3.95 2.35-34.6 1.55-1.95-.15m.95-9.8q-.05 3-1.7 6.95-1.95.2-1.9-4.55l1.3-3.6q.25 1.7 2.3 1.2m52.2-4.1q17.45-1.9 33.05-6.65l6.1-1.9 2.5-.8 4.6 3.5q1.95 5.65-1.2 9.25-.7 5.4-54.8 8.7L1.1 11.2q2.65-2.25 5.2-8.15m3.95 19.7-.2-2.95h4.65l.45.8-4.9 2.15M-40.3 24.1l-2.2 4.05-10.75-6.5 10.5 4.35 2.45-1.9" fill="#6f2914" fill-rule="evenodd" transform="translate(53.75 28.65)"/><path d="M-5.2-13.65q.45-1.3.45-2.6v-3l2.1-1.1-.8 6.75-.4 1.4q-1.3 2.8-5.5 4.3 3.15-2.9 4.15-5.75m-23.05 20.8q-1.4-4.7-4.6-6.8l1.4-3.15 1.85-1.6q4.45 2.4 4.05 5.65l-1.6 3.5 1.5 2.55 1.45 2.55-4.05-2.7m21.9 6.05 6.1-3.6q3.4-2.85 5.7-6L7.35.4 6.3 3.05q-2.55 5.9-5.2 8.15l-4.55 3.95-2.9-1.95m45.7-16.8 7.8-5.1-1.7 3.2-6.1 1.9" fill="#55210f" fill-rule="evenodd" transform="translate(53.75 28.65)"/><path d="M-11.55-4.4 15.4-7.65 16.95-8l22.4-5.3 7.8 4.6-7.8 5.1Q23.75 1.15 6.3 3.05L7.35.4l-1.9 3.2-31.1 3.7-1.5-2.55 1.6-3.5q.4-3.25-4.05-5.65h18.05m-16.7 11.55-14.2 1.35q-.7 6.2-4.4 8.45-4.7-.85-5.35-5.75 0-5.65 2.7-7.55h1.45l-.15 2.25v.05l-1.3 3.6q-.05 4.75 1.9 4.55 1.65-3.95 1.7-6.95 0-1.95-.65-3.5h1.1l8.6-4.85q2.25.4 4 1.55 3.2 2.1 4.6 6.8" fill="url(#i)" fill-rule="evenodd" transform="translate(53.75 28.65)"/><path d="m10.05 19.8-3.5-.8q6.15-2.05 8.15.8h-4.65m-50.35 4.3-2.45 1.9-10.5-4.35 12.95 2.45" fill="#9a5018" fill-rule="evenodd" transform="translate(53.75 28.65)"/><path d="m6.55 19 3.5.8.2 2.95q-4.8-2.4-3.7-3.75" fill="#8a3b17" fill-rule="evenodd" transform="translate(53.75 28.65)"/><path d="M-16.65-24.65q2.85-2.7 3.75 0-1.45 5.45-7.25 8.1-1.7 1.05 0-4.3m14.95 7.2q.45-1.3.45-2.6v-6l-6.25-5.6q-2.85-.9-6.15.85-5.45 2.95-6.25 11.25l.7 1.5q3.9 7.45 11.15 9.85L15.4-7.65 16.95-8q-2.35-1.1-4.7-2.35-6.3-3.35-12.75-8.1l-2.15-1.9-.8 6.75-.4 1.4q-1.3 2.8-5.5 4.3 3.15-2.9 4.15-5.75m-23.05 20.8q-1.4-4.7-4.6-6.8-1.75-1.15-4-1.55l-8.6 4.85h-1.1q.65 1.55.65 3.5-.05 3-1.7 6.95-1.95.2-1.9-4.55m1.3-3.65.15-2.25h-1.45q-2.7 1.9-2.7 7.55.65 4.9 5.35 5.75l1.95.15 34.6-1.55 3.95-2.35 6.1-3.6q3.4-2.85 5.7-6L7.35.4 6.3 3.05q-2.55 5.9-5.2 8.15l-4.55 3.95q54.1-3.3 54.8-8.7 3.15-3.6 1.2-9.25l-4.6-3.5-2.5.8-6.1 1.9 7.8-5.1-7.8-4.6L16.95-8m-42.6 15.3 1.45 2.55-4.05-2.7m-4.6-6.8 1.4-3.15 1.85-1.6h18.05m-14.1 11.7-1.5-2.55 1.6-3.5q.4-3.25-4.05-5.65m26.95-15.95-2.1 1.1m1.3 34.4-2.9-1.95m53.5-21.9-1.7 3.2m-35.4 25.3-3.5-.8q-1.1 1.35 3.7 3.75l-.2-2.95h4.65q-2-2.85-8.15-.8m3.7 3.75 4.9-2.15-.45-.8m-67.95 1.85 10.75 6.5 2.2-4.05-2.45 1.9-10.5-4.35 12.95 2.45m-7.9-18.15q.25 1.7 2.3 1.2" fill="none" stroke="#1a1306" stroke-linecap="round" stroke-linejoin="round" stroke-opacity=".302" transform="translate(53.75 28.65)"/></g><g id="j" fill-rule="evenodd"><path d="M2.25 4.85H2.2l.15-.1-.1.1M3.6.15h-.05.05" fill="#4d3434"/><path d="m2.2 4.85-1.05.05Q.8 4.4.85 3.55t.6-1.75q.5-.9 1.2-1.4.5-.3.9-.25h.05q.45.3.35 1.25-.05 1-.7 2.15l-.9 1.2-.15.1" fill="#8e3a28"/><path d="M3.55.15q-.4-.05-.9.25-.7.5-1.2 1.4-.55.9-.6 1.75t.3 1.35l1.05-.05h.05l-.5.35q-.8.6-1.3.3Q-.1 5.2 0 4.2t.75-2.1Q1.4.95 2.2.4 3-.2 3.55.15" fill="#552314"/></g><g id="g" fill-rule="evenodd"><path d="m-14.25-4.6 6.45-.7q3.15 3.75 3.65 8.05l.1.8v.7Q-4.1 5.8-6.25 9.1l-.85 1.45-3.05 5.65-3.15-.1q1.45-.8 2.85-3.8Q-9.1 9.25-9.1 7.15l-.1-1.95-.25-2.1q-1-5.45-4.8-7.7" fill="#cb7d5e" fill-opacity=".498" transform="translate(29.6 26.3)"/><path d="m-29.6-4 9.85-.1q4.85.15 5.95 7 .25 1.45.35 3.25v1.3q-.05 1.8-2.8 5.55l-2.05 2.6-.4.45-6.95.1q1.95-.55 4.05-2.8 2.3-2.55 2.45-5.35v-.5q0-2.35-.6-4.15-1.1-3.15-3.85-4.9-2.4-1.65-6-2.3V-4" fill="#cdbc5c" fill-opacity=".502" transform="translate(29.6 26.3)"/><path d="M18.75 1.25q-.65-5.15-5.45-8l9.8-2.85q-.75-.8 5.6.65Q32.6-7.9 32.4 0l.05.6q-.2 4.4-1.55 10.85-.15.25-.15.5l-15.35 2.6Q17.6 10 18.45 6.4q.5-2.75.3-5.15" fill="#cb7d5e" fill-opacity=".498" transform="translate(29.6 26.3)"/><path d="M-4.65-21.2q2.2 2.65-2.55 6.7l-2.35 1.85-1 .7q-1.35.9-5.6 1.4l-2.95.2-.55.05-3.45-3.6q1.4.75 4.15.7 3.05-.1 5.3-1.5l.35-.25q1.85-1.2 2.9-2.4 1.9-2.25 1.95-4.55.1-2.15-1.15-4.3l.1-.1 4.85 5.1" fill="#cdbc5c" fill-opacity=".502" transform="translate(29.6 26.3)"/></g><linearGradient id="h" x1="-819.2" x2="819.2" gradientTransform="matrix(.0118 .0093 -.007 .0089 -6 -12.95)" gradientUnits="userSpaceOnUse"><stop stop-color="#c8681f" offset="0"/><stop stop-color="#9e321d" offset="1"/></linearGradient><linearGradient id="i" x1="-819.2" x2="819.2" gradientTransform="matrix(.0405 -.005 .0014 .0118 -3.25 1.75)" gradientUnits="userSpaceOnUse"><stop stop-color="#c8681f" offset="0"/><stop stop-color="#9e321d" offset="1"/></linearGradient><use width="79.3" height="79.3" xlink:href="#c" id="a"/><use width="3.95" height="5.6" xlink:href="#j" id="f"/><radialGradient id="d" cx="0" cy="0" r="819.2" gradientTransform="scale(.0494)" gradientUnits="userSpaceOnUse"><stop stop-opacity=".396" offset="0"/><stop stop-opacity="0" offset="1"/></radialGradient><path d="M28-28.05Q39.65-16.4 39.65 0T28 28Q16.4 39.65 0 39.65T-28.05 28q-11.6-11.6-11.6-28t11.6-28.05Q-16.4-39.65 0-39.65t28 11.6" fill="url(#d)" fill-rule="evenodd" transform="translate(39.65 39.65)" id="c"/></defs></svg>