<svg viewBox="0 0 64.6 64.6" xmlns="http://www.w3.org/2000/svg" xmlns:xlink="http://www.w3.org/1999/xlink"><use width="64.6" height="64.6" xlink:href="#a"/><defs><use width="64.6" height="64.6" xlink:href="#b" id="a"/><g id="b"><path d="m20.4-12.85 2.05 1.9 3.25 3.7q.3 5.6 1.05 11.15 1 7.3-4 11.4l-4.3-12.9h-.1l.4 7.3q.15 3.6.75 7.1.75 4.25-2.1 6.65-5.3 4.6-12.25 5.65-10.9 1.9-20.6-3.9l6.8 8.45-4-1.4q-11.7-4.3-18.6-14.7-.55-2.9-.55-6 0-7.3 2.85-13.4-.5 2.3-.3 4.75l.4 5.1.75 4.85.25-.05.45-2.55q.95-4.4 3.65-8l3.1-3.95q.7-.85 1.25-1.8l.2-.25-.5 1.85q-.4 2.65-.4 5.3l.1 1 .2.3q0-.85.65-1.4l1.65-1.6 3.7-3.7 2.1-1.7 2-1.3q.65-.4 1.4-.9l.4-.15 1.1-.35 2.2-.35Q.6-7.2 5.8-6.7l4.05.8q3.45 1 6.9 1.7-.8-1.95-2.75-3.1l-3.45-1.8-3.7-1.45-2.1-.65-.7-.4.3-.2q2.5-1.1 5.3-1.35l10.75.3" fill="#d2c079" fill-rule="evenodd" transform="translate(32.3 20.75)"/><path d="M-31.25 17.55q6.9 10.4 18.6 14.7l4 1.4-6.8-8.45q9.7 5.8 20.6 3.9 6.95-1.05 12.25-5.65 2.85-2.4 2.1-6.65-.6-3.5-.75-7.1l-.4-7.3h.1l4.3 12.9q5-4.1 4-11.4Q26-1.65 25.7-7.25q6.1 8.15 6.1 18.8l-.1 2.95-7.55 13.05q-4.4 2.4-8.95 4.3-3.2 1.4-6.85 1.85-5.9 1.05-11.9-.8l3.05 4.05-9.15-2.1q-11.3-3.2-19.95-11.4-1.15-2.85-1.65-5.9" fill="#c1a846" fill-rule="evenodd" transform="translate(32.3 20.75)"/><path d="m20.4-12.85-10.75-.3q-2.8.25-5.3 1.35l-.3.2.7.4 2.1.65 3.7 1.45L14-7.3q1.95 1.15 2.75 3.1-3.45-.7-6.9-1.7L5.8-6.7Q.6-7.2-4.6-6.75l-2.2.35-1.1.35-.4.15q-.75.5-1.4.9l-2 1.3-2.1 1.7-3.7 3.7-1.65 1.6q-.65.55-.65 1.4l-.2-.3-.1-1q0-2.65.4-5.3l.5-1.85-.2.25q-.55.95-1.25 1.8l-3.1 3.95q-2.7 3.6-3.65 8l-.45 2.55-.25.05-.75-4.85-.4-5.1q-.2-2.45.3-4.75 2.3-4.95 6.45-9.1 9.35-9.3 22.5-9.3 11.7 0 20.4 7.4m-35.95-.6-1.4.6q-3.6 1.35-6.15 4.6l-2.05 2.5q-1.05 1.3-1.6 3.05-.2.6-.7 1.05.15.5.7-.3 2.45-3.6 6.35-5.65l.9-.6.45-.35-.6 1q-.85 1.3-.7 2.85 2.8-3.45 6.65-6.1 2.55-1.8 5.6-2.45.35-.05.2-.6l-.4-.55-1.6-.4q-1.95-.05-3.8.65l-1.85.7" fill="#eae1bf" fill-rule="evenodd" transform="translate(32.3 20.75)"/><path d="M31.7 14.5q-.95 11.25-9.25 19.5l-.15.15-3.5 1.35q-7.45 2.6-15.5 2.7l3.45 1.55-2.15.8q-8.55 2.6-16.95.15l-.05.2-1.5-.65q-4.65-2.3-8.6-6.25-4.8-4.8-7.1-10.55 8.65 8.2 19.95 11.4l9.15 2.1-3.05-4.05q6 1.85 11.9.8 3.65-.45 6.85-1.85 4.55-1.9 8.95-4.3L31.7 14.5M6.75 39.75q1-.35.2.1l-.2-.1" fill="#998433" fill-rule="evenodd" transform="translate(32.3 20.75)"/><path d="M22.3 34.15q-9.25 9.2-22.3 9.2-6.7 0-12.4-2.45l.05-.2q8.4 2.45 16.95-.15l2.15-.8L3.3 38.2q8.05-.1 15.5-2.7l3.5-1.35m-15.55 5.6.2.1q.8-.45-.2-.1" fill="#6f6025" fill-rule="evenodd" transform="translate(32.3 20.75)"/><path d="m-15.55-13.45 1.85-.7q1.85-.7 3.8-.65l1.6.4.4.55q.15.55-.2.6-3.05.65-5.6 2.45-3.85 2.65-6.65 6.1-.15-1.55.7-2.85l.6-1-.45.35-.9.6q-3.9 2.05-6.35 5.65-.55.8-.7.3.5-.45.7-1.05.55-1.75 1.6-3.05l2.05-2.5q2.55-3.25 6.15-4.6l1.4-.6" fill="#fff" fill-rule="evenodd" transform="translate(32.3 20.75)"/><path d="m25.7-7.25-3.25-3.7-2.05-1.9m-49.35 11q-2.85 6.1-2.85 13.4 0 3.1.55 6M25.7-7.25q6.1 8.15 6.1 18.8l-.1 2.95q-.95 11.25-9.25 19.5l-.15.15q-9.25 9.2-22.3 9.2-6.7 0-12.4-2.45l-1.5-.65q-4.65-2.3-8.6-6.25-4.8-4.8-7.1-10.55-1.15-2.85-1.65-5.9m2.3-19.4q2.3-4.95 6.45-9.1 9.35-9.3 22.5-9.3 11.7 0 20.4 7.4" fill="none" stroke="#000" stroke-linecap="round" stroke-linejoin="round" stroke-opacity=".314" transform="translate(32.3 20.75)"/><path d="m16.2-3.05.05-.25h3.6l.1.25q.95 5.2.95 12.85-1.15 14.45-3.6 19l-4.55.15q2-.9 3.5-18.45.5-7.85-.25-13.45l.2-.1" fill="#f79433" fill-rule="evenodd" transform="translate(32.3 20.75)"/><path d="m15.95-3.1-.1-.6q-.85-5.5-2.3-9.95L12.3-17.9q2.15.9 4.2 2.2l.95 3.15q1.45 4.45 2.4 9.25h-3.6l-.05.25-.25-.05M10.2-4.15l-.15-.8q-.85-4.75-2.2-8.7-1.05-3.15-1.8-6.05l2.8.65q.8 3.1 1.95 6.5 1.4 4.1 2.35 8.5l-1.5.1-1.45-.2" fill="#f9ae64" fill-rule="evenodd" transform="translate(32.3 20.75)"/><path d="m13.15-4.05.1.2q1.15 5.55.85 14.05-.6 14.1-2.95 18.6l-1.5.3-2.15-.15.5-1q1.25-3.5 2.7-17.05.55-9-.5-15.05l1.45.2 1.5-.1" fill="#f48313" fill-rule="evenodd" transform="translate(32.3 20.75)"/><path d="m15.95-3.1.25.05-.2.1-.05-.15" fill="#b45c07" fill-rule="evenodd" transform="translate(32.3 20.75)"/><path d="m-2.15 30.85 1.95-.25.75-.15 1.35.6q5.35 2.3 10.7 2.45 7.45-1.15 14.95-5.9-2.05 3.4-5.1 6.4l-.15.15-.3.35-1.9.85-3.85 1.4q-7.25.35-18.4-5.9M-27.3 2.75l4.2 6v.1q-.95 1.8-1.15 4.05L-29 6.05l-.25-.35q1-2.25 1.95-2.95" fill="#8a4806" fill-rule="evenodd" transform="translate(32.3 20.75)"/><path d="m-22.9 6.65-3.5-4.9q.5-.5 5.4-3.2l.4.6.2.4q-1.65 4.15-2.5 7.1M5 25.5l.3.15q4.05 1.85 8.25 2.4 3.3-.6 6.65-1.85l1.3-.55q4.45-1.75 8.95-4.65l-1.6 4.2q-7.75 5-15.45 5.95l-5.4-.5v-.05h-.15l-.95-.2q-3.25-.8-6.45-2.35L5 25.5" fill="#b45c07" fill-rule="evenodd" transform="translate(32.3 20.75)"/><path d="m.45 28.05-1.8-1q1.5-2.45 2.1-3.9Q2.85 24.5 5 25.5L.45 28.05M-9.1 21.7Q-16 15.9-22.9 6.65q.85-2.95 2.5-7.1 6.6 10.75 13.5 17.5l-2.2 4.65M-26.4 1.75-28.85-2q1.55-3.35 3.95-6.3l3.9 6.85q-4.9 2.7-5.4 3.2m-.9 1q-.95.7-1.95 2.95l-1.55-2.4 1.3-3.9 2.2 3.35" fill="#f79433" fill-rule="evenodd" transform="translate(32.3 20.75)"/><path d="m-9.95 23.3-1.7 3.6q-6.1-5.35-12.15-13.4l-.45-.6q.2-2.25 1.15-4.05l.1-.05q6.5 8.85 13.05 14.5m6.25 9.5.45-2.1.95.15h.15Q9 37.1 16.25 36.75l-3.2.8q-8.4.2-16.75-4.75" fill="#f48313" fill-rule="evenodd" transform="translate(32.3 20.75)"/><path d="M-9.95 23.3q3.75 3.3 7.5 5.5v.05l-.7 1.45-.1.4-.45 2.1q-3.85-2.3-7.7-5.65l-.25-.25 1.7-3.6m8.6 3.75q-3.9-2.15-7.75-5.35l2.2-4.65q3.8 3.6 7.65 6.1-.6 1.45-2.1 3.9" fill="#f9ae64" fill-rule="evenodd" transform="translate(32.3 20.75)"/></g></defs></svg>