<svg viewBox="0 0 46.717 82.187" xmlns="http://www.w3.org/2000/svg" xmlns:xlink="http://www.w3.org/1999/xlink"><use transform="matrix(-1.1465 .1051 0 1.1965 59.69 -6.7)" width="62.95" height="84.4" xlink:href="#a"/><defs><g id="a" transform="translate(29 52.8)"><use transform="matrix(1.5128 -1.2541 .8755 1.9507 -29.019 -10.722)" width="15.4" height="21.7" xlink:href="#b"/><use transform="matrix(-1.9315 -.5506 -.5935 2.4377 33.939 -34.322)" width="15.4" height="21.7" xlink:href="#b"/><use transform="matrix(1.9308 .0478 -.0795 2.4467 -14.213 -52.806)" width="15.4" height="21.7" xlink:href="#b"/></g><g id="c" transform="translate(14.85 32.85)"><use transform="matrix(.7 0 0 .7 -14.85 -32.85)" width="29.5" height="49.55" xlink:href="#d"/><use transform="matrix(.6034 -.1914 .1914 .6034 -6.021 -25.81)" width="3.95" height="5.45" xlink:href="#e"/><use transform="matrix(.5204 -.3594 .3594 .5204 -3.796 -20.722)" width="3.95" height="5.45" xlink:href="#e"/><use transform="scale(.6339) rotate(-45.447 -33.29 15.352)" width="3.95" height="5.45" xlink:href="#e"/><use transform="scale(.6339) rotate(-45.447 -34.007 8.078)" width="3.95" height="5.45" xlink:href="#e"/><use transform="rotate(-45.442 -15.444 7.91) scale(.5215)" width="3.95" height="5.45" xlink:href="#e"/><use transform="translate(-14.15 -25.55)" width="18.35" height="17.5" xlink:href="#f"/><use transform="matrix(-.6696 -.3136 -.3136 .6696 2.853 -26)" width="3.95" height="5.45" xlink:href="#e"/></g><g id="g"><path d="m19.85 12.1.05.05h-.05v-.05" fill="url(#h)" fill-rule="evenodd" transform="translate(.5 .5)"/><path d="m11.55 48.2-.15-.05.15-.05v.1" fill="#471111" fill-rule="evenodd" transform="translate(.5 .5)"/><path d="m11.4 48.15-.1-.05-.35-.15-.9-.6-.1-.05-.7-1.4-6.3-12.75Q0 26.8 0 25.2q0-1.4 2.55-3.1l.8-.55q3-1.85 4.2-1.85 2.65 0 4.7 6.3l.2.35V26l-.7-11.5-.3-4.6-.2-3.4q0-2.3 3.65-4.5l1.1-.6q1.55 1.85 2.7 5.25 1.15 3.35 1.15 5.45v.05l-.65 6.05.3 4-.3 5.7 1.85 10.6.3 4.6q0 .8.45 2.05 0 .5-2.1.5l-1.8-.5h-.45q0 1.7-1.3 1.7l-1.65-.2q-.7 0-.75.25-.05.45-2.2 1.2l-.15.05m1.2-36.75-1.15-1.5 1.15 1.5m-2.55 17.15 3.4 5.95v1.7l-1.6-2.9 1.6 2.9v-1.7l-3.4-5.95m9.8-16.4q-2.7 1.85-4.95.95 2.25.9 4.95-.95M9.45 37.2l-.75-1.75.75 1.75m4-1 4.5 8.2-4.5-8.2m-1.15 7.65-2-4.7 2 4.7" fill="#91680c" fill-rule="evenodd" transform="translate(.5 .5)"/><path d="M22.4 16.85 23 21l-.6-4.15M16 1.4q.95-.55 1.8-.85Q19.3 0 20.55 0l.6.1q2.85 1 4.3 11.4l.7 6.4.95 13.15q.4 6 .95 7.6.85 2.6.15 8.95l-.5.15-1.25.35-1.25.3-1.85.35-1.5.15-1.35.1-1.95.05h-.3l-5.65-.55-1.05-.3v-.1q2.15-.75 2.2-1.2.05-.25.75-.25l1.65.2q1.3 0 1.3-1.7h.45l1.8.5q2.1 0 2.1-.5-.45-1.25-.45-2.05l-.3-4.6-1.85-10.6.3-5.7-.3-4 .65-6.05h.05l-.05-.05q0-2.1-1.15-5.45-1.15-3.4-2.7-5.25m6.15 8.7-2.25 2.05 2.25-2.05m.35 28.7.6 4.8-.6-4.8m-1.75-13.65.2 1.4-.2-1.4m2.7.15.3 4.1-2.3 1.35.5 3.75-.5-3.75-.2-1.85.2 1.85 2.3-1.35-.3-4.1" fill="#7b5200" fill-rule="evenodd" transform="translate(.5 .5)"/><path d="m23.5 21.5-.6-4.15m-2.5-4.7 2.25-2.05m-10.7-.2 1.15 1.5m7.25.75h.05m-5 .95q2.25.9 4.95-.95m-8 21.15 1.6 2.9V35l-3.4-5.95m.25 10.6 2 4.7m5.65.55-4.5-8.2m-4.75-.75.75 1.75m12.5-2.7-.5-3.75-.2-1.85m.2 1.85 2.3-1.35-.3-4.1m-2.5 1.25-.2-1.4M23.6 44.1l-.6-4.8" fill="none" stroke="#000" stroke-linecap="round" stroke-linejoin="round" stroke-opacity=".2" stroke-width=".3"/><path d="M16 1.4q.95-.55 1.8-.85Q19.3 0 20.55 0l.6.1q2.85 1 4.3 11.4l.7 6.4.95 13.15q.4 6 .95 7.6.85 2.6.15 8.95m-16.65.6-.15-.05-.1-.05-.35-.15-.9-.6-.1-.05-.7-1.4-6.3-12.75Q0 26.8 0 25.2q0-1.4 2.55-3.1l.8-.55q3-1.85 4.2-1.85 2.65 0 4.7 6.3l.2.35V26l-.7-11.5-.3-4.6-.2-3.4q0-2.3 3.65-4.5l1.1-.6" fill="none" stroke="#000" stroke-linecap="round" stroke-linejoin="round" stroke-opacity=".302" transform="translate(.5 .5)"/><path d="M19.8 1.5q1.35 0 1.6.85.2.85-.85 2-1.05 1.1-2.8 1.9-1.75.75-3.15.7-1.4-.1-1.6-.95t.85-1.95l1-.9q.8-.6 1.8-1 1.75-.8 3.1-.7l.05.05" fill="#7b5200" fill-rule="evenodd" transform="translate(.5 .5)"/><path d="M20.3 2q1.35 0 1.6.85.2.85-.85 2-1.05 1.1-2.8 1.9-1.75.75-3.15.7-1.4-.1-1.6-.95t.85-1.95l1-.9" fill="none" stroke="#000" stroke-linecap="round" stroke-linejoin="round" stroke-opacity=".302" stroke-width=".5"/><path d="M3.2 22.6q.6-.45 1.45-.75 1.4-.55 2.55-.4 1.15.1 1.4.8.2.7-.65 1.6-.8.85-2.2 1.4l-2.6.45q-1.1-.1-1.35-.8-.25-.75.6-1.6l.8-.7" fill="#7b5200" fill-rule="evenodd" transform="translate(.5 .5)"/><path d="M7.7 21.95q1.15.1 1.4.8.2.7-.65 1.6-.8.85-2.2 1.4l-2.6.45q-1.1-.1-1.35-.8-.25-.75.6-1.6l.8-.7" fill="none" stroke="#000" stroke-linecap="round" stroke-linejoin="round" stroke-opacity=".302" stroke-width=".5"/></g><g id="i" fill-rule="evenodd"><path d="M3.6.15h-.05.05m-1.4 4.7.15-.1-.1.1H2.2" fill="#2b1c27" transform="translate(0 -.15)"/><path d="m1.7 5.1.5-.25h.05l-.5.35-.05-.1" fill="#2e577e" transform="translate(0 -.15)"/><path d="M3.55.15h.05q.45.3.35 1.25-.05 1-.7 2.15l-.9 1.2-.15.1-.5.25-.55-.2Q.8 4.4.85 3.55t.6-1.75q.5-.9 1.2-1.4.5-.3.9-.25" fill="#865d01" transform="translate(0 -.15)"/><path d="M2.65.4q-.7.5-1.2 1.4-.55.9-.6 1.75t.3 1.35l.55.2.05.1q-.8.6-1.3.3Q-.1 5.2 0 4.2t.75-2.1Q1.4.95 2.2.4l.4-.25.05.25" fill="#865d01" transform="translate(0 -.15)"/></g><g id="f" fill-rule="evenodd"><path d="m3.75-17.75.45 3.25Q2.45-12.9.4-12.65l-.4.05h-.3q-.75 0-2.35-1.1l-.75-.45Q-5-15.2-6.15-15.7v-1.6q.4.75 1.9 1.45 1.45.7 2.45.7l.95-.05 1-.1q2.6-.5 3.6-2.45" fill="#985b4b" fill-opacity=".498" transform="translate(14.15 25.55)"/><path d="m3-25.55.2 5q0 2.45-3.25 3l-1.55.2h-.65q-.9-.05-2.7-1.4L-6.2-19.8l-.25-.2-.15-3.55q.3 1 1.4 2.05 1.25 1.2 2.6 1.25h.25l1.95-.3q1.5-.55 2.3-1.95.75-1.25 1-3.05H3" fill="#9a9149" fill-opacity=".502" transform="translate(14.15 25.55)"/><path d="M-8.95-13.45q1.8-.75 2.25-2.8l2.15 3.3q.2-.35.45 2.1Q-4-9.3-6.9-8.6l-.2.05-4.1.5h-.2l-2.75-5.35 3.3.3 1.9-.35" fill="#985b4b" fill-opacity=".498" transform="translate(14.15 25.55)"/></g><use transform="matrix(.5856 -.1754 .0954 .5223 .02 3.598)" width="20.65" height="34.7" xlink:href="#c" id="b"/><use width="29.5" height="49.55" xlink:href="#g" id="d"/><use width="3.95" height="5.45" xlink:href="#i" id="e"/><linearGradient id="h" x1="-819.2" x2="819.2" gradientTransform="matrix(-.0033 -.0239 .0304 -.0042 25.15 24.1)" gradientUnits="userSpaceOnUse"><stop stop-color="#55364a" offset="0"/><stop stop-color="#7b6172" offset="1"/></linearGradient></defs></svg>