<svg viewBox="0 0 94.391 102.13" xmlns="http://www.w3.org/2000/svg" xmlns:xlink="http://www.w3.org/1999/xlink"><use transform="translate(-1.57 -1.22)" width="96.75" height="109.7" xlink:href="#a"/><defs><g id="a" transform="translate(10.25 10.3)"><use transform="matrix(-1.0226 -.4205 -.6426 .9562 76.601 3.737)" width="14.4" height="31" xlink:href="#b"/><use transform="matrix(.9389 -.1348 .5787 1.1447 3.545 -8.36)" width="14.4" height="31" xlink:href="#b"/><use transform="matrix(-.9246 .1605 .6063 1.1392 24.55 -9.01)" width="14.4" height="31" xlink:href="#b"/><use transform="matrix(-1.0939 -.4333 -.4487 1.1326 77.703 47.921)" width="14.4" height="31" xlink:href="#b"/><use transform="matrix(-.7227 -.6782 -.7582 .808 86.458 57.407)" width="14.4" height="31" xlink:href="#b"/><use transform="matrix(-.2691 -.9557 -1.0684 .3009 86.517 72.643)" width="14.4" height="31" xlink:href="#b"/><use transform="matrix(.1694 -.9796 -1.0951 -.1893 82.442 83.764)" width="14.4" height="31" xlink:href="#b"/><use transform="matrix(.8064 -.5836 .6524 .9014 -6.367 60.985)" width="14.4" height="31" xlink:href="#b"/><use transform="rotate(-47.357 10.219 13.245) scale(.9976)" width="14.4" height="31" xlink:href="#b"/><use transform="matrix(1.0777 0 0 .7495 13.4 .15)" width="48.15" height="39.9" xlink:href="#c"/><use transform="matrix(-.8098 -.7511 -.9358 .67 63.798 22.292)" width="14.4" height="31" xlink:href="#b"/><use transform="matrix(-1.06 -.3812 -.5412 .8408 44.378 20.076)" width="14.4" height="31" xlink:href="#b"/><use transform="matrix(-1.0256 .7746 1.019 .6049 19.127 13.436)" width="14.4" height="31" xlink:href="#b"/><use transform="translate(.05 10.4)" width="74.85" height="75.7" xlink:href="#d"/><use transform="rotate(-54.938 62.779 45.159) scale(.9964)" width="14.4" height="31" xlink:href="#b"/><use transform="matrix(.8064 -.5836 .5459 .5677 7.707 73.792)" width="14.4" height="31" xlink:href="#b"/><use transform="matrix(.443 -.8882 .9929 .4953 34.547 81.175)" width="14.4" height="31" xlink:href="#b"/><use transform="matrix(.2696 -.9566 .7792 .1061 21.849 86.385)" width="14.4" height="31" xlink:href="#b"/><use transform="matrix(-.4918 -1.0663 -1.0173 .4691 67.83 84.871)" width="14.4" height="31" xlink:href="#b"/><use transform="matrix(.9389 -.1348 .5787 1.1447 -6.355 43.641)" width="14.4" height="31" xlink:href="#b"/><use transform="matrix(.9389 -.1348 .2592 1.0511 10.818 51.708)" width="14.4" height="31" xlink:href="#b"/><use transform="matrix(-1.3549 -.1945 -.374 1.5169 79.951 39.395)" width="14.4" height="31" xlink:href="#b"/><use transform="matrix(-.9866 -.0025 .0825 .9655 57.648 53.358)" width="14.4" height="31" xlink:href="#b"/></g><g id="e"><path d="m-3-14-.15 2.55-3.6-4.15 1.35-4.25L-3-14m-.35 5.7.15.15.45.4L-1.3-6.4 2-2.7l.4.45h-.05l-7.25-4.9-2.85-4.55 1.85 1.3.8.6 1.75 1.5m-3.8-6.05.05.25-.1-.15.05-.1" fill="#ffd466" fill-rule="evenodd" transform="translate(8 19.95)"/><path d="m-1.05-9 2.5-1-.55-1.25.7-.65.15 4.9-.95.15L-1.05-9m-.25 2.6-1.45-1.35.4-.4 2.4 1.4-1.35.35" fill="#e9c466" fill-rule="evenodd" transform="translate(8 19.95)"/><path d="M-1.05-9 .8-6.85l-.75.1-2.4-1.4-.35-.2L-1.05-9" fill="#ffe670" fill-rule="evenodd" transform="translate(8 19.95)"/><path d="m2.4-2.25 1.85.4L6.4 2.6-.45-2.5l-.5-.35-.15-.1 3.45.7h.05" fill="#e8d16f" fill-rule="evenodd" transform="translate(8 19.95)"/><path d="M-3.15-11.45-3.3-8.7l-1.8-1.1-.8-.6-1.2-3.7-.05-.25-.85-2.7 1.25 1.45 3.6 4.15M1.4 3.7l.85-.15-.75.6-4.85 3.9.95-3.75 3.8-.6M-4.9-7.15l7.25 4.9-3.45-.7.15.1L-4.8-3.9l.4-.5-3.45-4.75 2.95 2" fill="#fccd70" fill-rule="evenodd" transform="translate(8 19.95)"/><path d="M.9-11.25 1.45-10l-2.5 1-1.65.65-.5.2-.15-.15.05-.4.15-2.75.5-8.5 3.55 8.7m-.1 4.4L1.75-7l1.95-.05L2-2.7l-3.3-3.7 1.35-.35.75-.1" fill="#ffea7f" fill-rule="evenodd" transform="translate(8 19.95)"/><path d="M-.45-2.5 1.4 3.7m.1.45 1.95 6.4" fill="none" stroke="#ffe670" stroke-linecap="round" stroke-linejoin="round" transform="translate(8 19.95)"/></g><g id="c" fill-rule="evenodd"><path d="m46.6 24.4-1.25 2.75q-4.2 5.7-15.4 7.1Q18.75 35.6 8.9 25q.6-3.1 2.1-5.75 1.05-1.9 2.55-3.55l1.6-1.85.7-1.55q.2-.65 3.15-6.1Q22 .65 24.4.95q1.9.25 2.8 1.1l.35.35q1.15.35.9 1.1L46.6 24.4" fill="url(#f)"/><path d="M27.2 2.05q-.9-.85-2.8-1.1Q22 .65 19 6.2q-2.95 5.45-3.15 6.1l-.7 1.55-1.6 1.85q-1.5 1.65-2.55 3.55Q9.5 21.9 8.9 25q9.85 10.6 21.05 9.25 11.2-1.4 15.4-7.1l1.25-2.75.5.6q.8.9 1.05 2.2.05 3.9-3.65 6.2-7.05 4.45-14.35 5.85-10.35 2-21.35-2.05-4.85-1.85-7-4.9l-.25-.35q-.85-1.3-1.2-2.8L.2 28.7q-.25-1.25-.2-2.65L.7 25l5.6-6.5.3-.3L21.25 1.3q1.1-1.25 2.7-1.3 1.5.05 2.6 1.3l.65.75" fill="#edd596"/><path d="m6.6 18.2-.3.3-.45.15.75-.45" fill="#d1ad59"/></g><g id="d"><path d="M8.45 22.5v-1.4L5.5 18.05l1.7-.5 1.35-.4 4.85-1.4 2.55-.75 1.5-.45v-.05l.8-.3-6.55 7.55q-.55.55-.85 1.25l.1 2-2.5-2.5m4.95-6.75.3.5-.3-.5m2.75-.2-.2-.55.2.55m-7.35 2.1-.25-.5.25.5m58.65 4.4-.4.6-.6-.9-1-1.2-3.4-3.9.95.1 1.45.15 2.45.6-.4.5.4-.5 1.8.45.5.45-.5-.45.55.15-.05.3-.2 1.35q-.65.8-1.55 2.3" fill="#403020" fill-rule="evenodd" transform="translate(-.05 -10.4)"/><path d="M7.25 34.45 5.95 23.4l-.35-3.3-.15-1.05 3 3.45 2.5 2.5q1 .9 1.7 1.25l4.85 2.25 4.15 1q15.55 3.5 26.6 2.85l2.8-.25 1.75-.25q-7.45 6.8-20.6 6.9h-1.15l-7.9-.05-3.7-.1-.5 2.2q-1.35 6.95.6 13.65 2.1 7.3 1.9 14.9l3.65 1q17.05 4.4 35.3 5.2 1.3.05 1.85 1.45l-2.05 1.3-3.1 1.05Q39.2 84.7 17.75 78.3l-.25-.15-.4.15-5.65.25q.75-.2 2.45-2.4 1.7-2.25 0-3.55l-.8-.7q-1.2-1.15-1.85-2.65l-.2-.45Q5.1 55.25 7.9 45.75l-.15-.65h.7l-1.2-10.65q5.5 3.65 11.7 6.35-6.2-2.7-11.7-6.35" fill="#866f48" fill-rule="evenodd" transform="translate(-.05 -10.4)"/><path d="m52.8 31.85-1.75.25q2.15-.75 4.2-1.7-3.45 1.25-7 1.95-11.05.65-26.6-2.85l-4.15-1-4.85-2.25q-.7-.35-1.7-1.25l-.1-2q.3-.7.85-1.25l6.55-7.55 7.3-3.8q-4.1 2.6-6.05 4.4l-.55.45q-1.5 2.9-2.4 5.9-.15.4-.15.85 3.35 2.65 7.2 4.05 4.1 1 8.4 1.4 10.95 1 21.6-1.8 6.45-1.7 11.85-5.1l1 1.2.6.9-2.15 3.6-.05.1-.4.7v.05l-2.9 1.9-1 .65v.05l-.35.2q-3.35 1.3-7.4 1.95" fill="#aa8259" fill-rule="evenodd" transform="translate(-.05 -10.4)"/><path d="m18.95 40.8.5-2.2 3.7.1 7.9.05h1.15q13.15-.1 20.6-6.9 4.05-.65 7.4-1.95l.3.1.05-.3 1-.7-1 .7v-.05l1-.65 2.9-1.9v-.05l.4-.7.05-.1 2.15-3.6.4-.6.65-1 .8-.75q.55-.45 1.2-.75l-.4 1.7-.15.6q-2 7.25.95 13.75l-6.05-4.45v-.05l-2.15-.6q-3.05 3.2-6.95 5.4-4.7 2.6-10.65 3.7-10.2 1.95-19.65.25l-.7-.35 1.05.55 1.7 1 6.15 1.85.45.15q3.15.95 6.45.95l1.1-.05 5.5.55q.85.1 1.6-.4l.2-.05-.55.45-.55.5.95.15-.5-.1 1.45-.4 3.3-1.15.3-.05q6.5-.95 12.6-3.05l.65-.25 4.35-1.75-.1 4.2q-2.3 1.25-4.9 2.15l-2.95.9-4.4.95-5.6.7.3-2.9q7.25-.7 12.65-4-5.4 3.3-12.65 4l-.3 2.9-2.35.15q-1.15 1.2-2.75 1.7l-4.55.25-4.75-.45-3.8-.3.5.5 2.8.05q.5 0 1 .4l-3.25.2q5.6 6.3 7.85 16l.15.3 5.25.95 1.5.2q3.15-2.7 5.4-6.1l.9-1.45q2.6-4.5 3.7-10.05 5.9 14.1 2.3 21.5 1.95-.6 3.85-.45-.35 1.45 3.9 3.85l-5.8.95v.1l-2.2 1.4q-.55-1.4-1.85-1.45-18.25-.8-35.3-5.2l-3.65-1q.2-7.6-1.9-14.9-1.95-6.7-.6-13.65 13.15 5.7 29.15 6.9l-.6 1.45.6-1.45q-16-1.2-29.15-6.9m30.9 2.5-1.4-.05-1.5.1q9.95-3.25 19-8.5-2.85 6.95-11.5 8.2L53 43.2l-1.55.1h-1.6l.2-.4-.2.4m8.25 27.35-2.5-9.5 2.5 9.5M11.05 68.8l.2.45q-.65-.25-.2-.45m41.4-19.85 1.5-.3 6.5-1.55 4.15.8q.25.05.35.45-5.5 1.25-11.15 1.9l-1.45.15.1-1.45-.1 1.45-2.25.2-1.65.15-1.6.05-8.9.05L48.9 49.6l3.55-.65m-5.4 1.4-.2.45.2-.45m6.05-8.65-.1 1.5.1-1.5m-3 4 2.8-1.3.05-.95-.05.95-2.8 1.3m-2 2 1.25-3.05-1.25 3.05m8 25 1.6-.3-3-.05-4.6.5 6-.15m-8 .95.6-6.6-.6 6.6" fill="#a78e58" fill-rule="evenodd" transform="translate(-.05 -10.4)"/><path d="m49.35 44.65-1.45.4.5.1-.95-.15.55-.5.55-.45-.2.05q-.75.5-1.6.4l-5.5-.55-1.1.05q-3.3 0-6.45-.95l-.45-.15-6.15-1.85-1.7-1-1.05-.55.7.35q9.45 1.7 19.65-.25 5.95-1.1 10.65-3.7 3.9-2.2 6.95-5.4l2.15.6v.05l6.05 4.45.05.7q-2.3 2.4-5 4.1 2.7-1.7 5-4.1l.8 13.75q.8 13.7-5 20.65-1.9-.15-3.85.45 3.6-7.4-2.3-21.5-1.1 5.55-3.7 10.05l-.9 1.45q-2.25 3.4-5.4 6.1l-1.5-.2-5.25-.95-.15-.3q-2.25-9.7-7.85-16l3.25-.2q-.5-.4-1-.4l-2.8-.05-.5-.5 3.8.3 4.75.45 4.55-.25q1.6-.5 2.75-1.7l2.35-.15 5.6-.7 4.4-.95 2.95-.9q2.6-.9 4.9-2.15l.1-4.2-4.35 1.75-.65.25q-6.1 2.1-12.6 3.05l.05-.25-.05.25-.3.05-3.3 1.15.5-1.35-.5 1.35M53 43.2l1.45-.15q8.65-1.25 11.5-8.2-9.05 5.25-19 8.5l1.5-.1 1.4.05h1.6l1.55-.1m-.65 7.2 1.45-.15q5.65-.65 11.15-1.9-.1-.4-.35-.45l-4.15-.8-6.5 1.55-1.5.3.15-1.65-.15 1.65-3.55.65-10.95 1.25 8.9-.05 1.6-.05 1.65-.15 2.25-.2-.25 2.3.25-2.3M48.7 67.05l1.4-16.45-1.4 16.45m4.4-15.35 2.5 9.45-2.5-9.45m3 21-6 .15 4.6-.5 3 .05-1.6.3m-10-20 .75-1.9-.75 1.9" fill="#c2b68b" fill-rule="evenodd" transform="translate(-.05 -10.4)"/><path d="m13.1 71.9.8.7q1.7 1.3 0 3.55-1.7 2.2-2.45 2.4l5.65-.25h.65q21.45 6.4 39.35 1.05l3.1-1.05q2.35 0 4.15-.8l.1.6q0 3.3-9.25 5.65Q46 86.1 32.95 86.1t-22.3-2.35q-9.2-2.35-9.2-5.65t9.2-5.65l2.45-.55" fill="#666" fill-opacity=".353" fill-rule="evenodd" transform="translate(-.05 -10.4)"/><path d="M70.1 19.55q-.65.3-1.2.75l-.8.75-.65 1q.9-1.5 1.55-2.3 1.3-1.75 1.1-.2M60.55 29.7l-.05.3-.3-.1.35-.2m1.7 47.3 2.2-1.4v-.1l5.8-.95q-4.7 1.05-5.5 2.4l-.3.45v.05l-.1.05q-1.8.8-4.15.8l2.05-1.3M17.1 78.3l.4-.15.25.15h-.65" fill="#e6e1ce" fill-rule="evenodd" transform="translate(-.05 -10.4)"/><path d="m51.05 32.1-2.8.25q3.55-.7 7-1.95-2.05.95-4.2 1.7" fill="url(#g)" fill-rule="evenodd" transform="translate(-.05 -10.4)"/><path d="m8.4 12.1-3-3.45.15 1.05.35 3.3 1.3 11.05m45.55-2.6L51 21.7l-2.8.25q-11.05.65-26.6-2.85l-4.15-1-4.85-2.25q-.7-.35-1.7-1.25l-2.5-2.5m62.1 13.8-.05-.7q-2.95-6.5-.95-13.75l.15-.6.4-1.7m-2.65 2.5-.4.6-2.15 3.6-.05.1-.4.7m0 .05-2.9 1.9-1 .7-.35.2q-3.35 1.3-7.4 1.95m17.45 42.7q-4.25-2.4-3.9-3.85M11 58.4Q5.05 44.85 7.85 35.35l-.15-.65h.7L7.2 24.05M11 58.4l.2.45q.65 1.5 1.85 2.65l.8.7q1.7 1.3 0 3.55-1.7 2.2-2.45 2.4l5.65-.25h.65q21.45 6.4 39.35 1.05l3.1-1.05m8.8-58.55q1.3-1.75 1.1-.2m-2.65 2.5q.9-1.5 1.55-2.3M70.5 25.9l.8 13.75q.8 13.7-5 20.65m3.9 3.85q-4.7 1.05-5.5 2.4l-.3.45m0 .05-.1.05q-1.8.8-4.15.8" fill="none" stroke="#5a4530" stroke-linecap="round" stroke-linejoin="round" stroke-width="2"/><path d="m7.15 7.15-4-1.65m2.1 6.3L3.5 13.55M5.55 9.7 0 10.4m13.35-5.05L12.6 4.1m3.3.5-.85-2.25M8.5 6.75l-1.85-3.7m2.8 3.15-.7-3.15m58.1 4.05 1.35-1.95m3.95-3.05L69.2 7.6v.1m-.05.3 5.35.3m-3.85 1.75 4.2.7m-11.9-4.4 1.4-3.65m1.4 2.8.7-1.75m-5.55.7L61.6 2" fill="none" stroke="#5a4530" stroke-linecap="round" stroke-linejoin="round" stroke-width=".05"/><path d="m5.9 13-1.35.2M15.9 4.6l.2.55m-2.45.7-.3-.5M8.5 6.75l.25.5M18.2 3.8l-.8.3m49.45 3-.4.5m.4-.5-2.45-.6-1.45-.15-.95-.1m6.95 3.1.2-1.35-.5-.45-1.8-.45m2.35.6-.05.3m.05-.3-.55-.15m.85 3.9 1.85 1.05" fill="none" stroke="#435555" stroke-linecap="round" stroke-linejoin="round" stroke-width=".05"/><path d="M7.2 24.05q5.5 3.65 11.7 6.35m30.4 3.85.5-1.35m3.15-.1-.05.25-.05.95-2.8 1.3M65.5 30q2.7-1.7 5-4.1M47.45 38.75l.6-1.45q-16-1.2-29.15-6.9m36.65 20.35 2.5 9.5M7.2 24.05l-1.15-.75m65 2-.55.6M52.3 40l-.25 2.3M65.5 30q-5.4 3.3-12.65 4l-.3 2.9-.15 1.65-.1 1.45m-2.25.2-1.4 16.45-.6 6.6m7.5-12.5-2.5-9.45m-6.25-.9.2-.45m3-7.45-.2.4m3.15-.1.1-1.5m-3.75 2.95-1.25 3.05m-1.25 3.1-.75 1.9" fill="none" stroke="#4b3927" stroke-linecap="round" stroke-linejoin="round" stroke-width="2"/></g><linearGradient id="f" x1="-819.2" x2="819.2" gradientTransform="matrix(-.0147 -.0009 .0012 -.0197 20.95 19.05)" gradientUnits="userSpaceOnUse"><stop stop-color="#ffebba" offset="0"/><stop stop-color="#edd596" offset="1"/></linearGradient><linearGradient id="g" x1="-819.2" x2="819.2" gradientTransform="matrix(-.0116 .0003 -.0006 -.023 43.05 15.05)" gradientUnits="userSpaceOnUse"><stop stop-color="#e2e1c7" offset="0"/><stop stop-color="#c8ab91" offset="1"/></linearGradient><use width="14.4" height="31" xlink:href="#e" id="b"/></defs></svg>