<svg viewBox="0 0 120.97 123.19" xmlns="http://www.w3.org/2000/svg" xmlns:xlink="http://www.w3.org/1999/xlink"><g transform="translate(-47.419 -31.677)"><use transform="matrix(1.1378 -.0162 .2986 .7984 34.394 73.816)" width="35.9" height="94.05" xlink:href="#a"/><use transform="matrix(-.888 .2278 .3074 .7493 85.09 47.746)" width="35.9" height="94.05" xlink:href="#a"/><use transform="matrix(.7905 -.3783 .2289 .8503 75.71 48.819)" width="36.5" height="90.4" xlink:href="#b"/><use transform="matrix(.9857 .2165 -.1708 .9756 105.14 29.829)" width="36.5" height="90.4" xlink:href="#b"/><use transform="matrix(-.9285 -.4532 -.2854 .6015 171.4 68.206)" width="13.35" height="79.55" xlink:href="#c"/><use transform="matrix(-1.0129 -.2513 -.0697 .5094 142.39 60.5)" width="13.35" height="79.55" xlink:href="#c"/><use transform="matrix(-1.1609 -.3965 -.2241 .8627 163.82 51.41)" width="13.35" height="79.55" xlink:href="#c"/><use transform="matrix(.9019 .4272 -.3198 .8814 147.56 63.653)" width="18.2" height="83.85" xlink:href="#d"/><use transform="matrix(1.0777 0 0 .7495 83 66.2)" width="48.15" height="39.9" xlink:href="#e"/><use transform="translate(69.65 76.45)" width="74.85" height="75.7" xlink:href="#f"/><use transform="matrix(.8167 .5744 -.5099 .689 161.46 81.227)" width="18.2" height="83.85" xlink:href="#d"/><use transform="matrix(.5578 .1472 -.1026 .6204 132.6 100.77)" width="18.2" height="83.85" xlink:href="#d"/><use transform="matrix(.91 -.2062 .2062 .91 61.732 83.116)" width="20" height="77.25" xlink:href="#g"/><use transform="matrix(.6209 -.2822 .3248 .6272 53.17 104.04)" width="20" height="77.25" xlink:href="#g"/><use transform="matrix(.7787 -.1764 .0594 .4907 86.334 117.52)" width="20" height="77.25" xlink:href="#g"/></g><defs><g id="h" fill-rule="evenodd"><path d="m-1.35-43.9 1.5 2.25 1.1 5.4-.05.05v.05l2.15 4.6-.9 4.85 1.7-3.2.25 4.4.65 12.75L3-15.45l.8-2.8-1.6-2.3-.75-1.05v-.1l1-5-1.4 2.65L.1-30.8l1.1-5.35-3.05 9.9-.95-5.8 1.45-11.85m7.6 13.05 2.9-6.1-.9 5.4-2.55 4 .55-3.3m-1.2 18.1 4.8-18.05-2.7 20.25-1.85 1.7-.25-3.9M3.4-7.4l-.15-.05-.8-.3.55-1.1h.2l.2 1.45m-5.3-7.35-2.5-10.1.2-7.05L.1-14.65l1 5.8H-.4l-1.5-5.9M.8-18.3l-1.65-2.15L.5-23l.9 1.3v.3l-.6 3.1m1.7 4.55.65 4.6-.15.3H1.1l1.4-4.9" fill="#060" transform="translate(17.95 47)"/><path d="m.15-41.65-1.5-2.25L-1-47l1.15 5.35m-2.95 9.6.95 5.8 3.05-9.9.05-.1.2-.2 2-6.65.45 8.75-.55 2.8-2.15-4.6L.1-30.8l.95 6.75.35 2.35L.5-23l-1.35 2.55L.8-18.3l-.7 3.65-4.3-17.25.15-3.6 1.25 3.45M1.45-21.6l.75 1.05-.5 1.15.4 2.75L.8-18.3l.6-3.1.05-.2M3-15.45l2.05 2.7L4.4-25.5l1.3-2.05 2.55-4-3.2 18.8.25 3.9L3.65-7.3l-.25-.1-.2-1.45-.05-.3-.65-4.6-.4-2.9.9 1.2m4.15 4.9 1.1-2.95 1.8-7.75L8.95-13l-1.8 2.45M-.4-8.85l-1.95-2.75-2.2-7.25 2.65 4.1 1.5 5.9m2.85 1.1-1.25-.4-.1-.7H3l-.55 1.1" fill="#0c0" transform="translate(17.95 47)"/><path d="m3.35-31.55.55-2.8.25 4.45-.8-1.65" fill="#0f3" transform="translate(17.95 47)"/><path d="m3.35-31.55.8 1.65-.25-4.45 4.15-11.5-3.9 15.95-1.7 3.2.9-4.85m-2.3 7.5 1.4-2.65-1 5H1.4l-.35-2.35m1.15 3.5 1.6 2.3-.8 2.8-.9-1.2.4 2.9-1.4 4.9.1.7 1.25.4.8.3L3.1-4.9l-.05 6.8.35 7.65-.6 1.8-.55-2.45L.2-.4l1.15 1.85L1-8.25-.25-8.7l-.15-.15h1.5l-1-5.8.7-3.65 1.3 1.65-.4-2.75.5-1.15m2.2-4.95-.25-4.4 3.8-11.6-.05.8-1.65 9.85-.55 3.3-1.3 2.05m2.75 14.95L5.3-8.15l-.25 1.3-1.4-.45L5.3-8.85l1.85-1.7M4.45 29.8Q3.1 38.45 5.8 42.95l-.85.15-1.3 3.95q-.55-3-.7-5.95l-.1-2.1-1.3-24.25h.1v-.05l-.15-2.15.05-.2.25-1.1L4.45 29.8M-4.2-31.9l-3.05-12.25 3.2 8.65-.15 3.6M3.15-9.15l.05.3H3l.15-.3m-1.5 23.9.5 6.35-.45-6.25-.05-.1" fill="#090" transform="translate(17.95 47)"/><path d="m4.65 18.9 5.3-8.35 8-1.35-.75.4-.7.35-1 .7-.4.5v.4L12.3 14q-2.8 2.45-4.85 5.35-2.85 4.05-2.75 9-.45-3-.55-6l.15-1.75.3-1.15.05-.55" fill="#7aa202" transform="translate(17.95 47)"/><path d="M1.3 12.3Q.05 8.35-2.25 4.55l.95-7.3L.2-.4l2.05 9.3-.45 2.35-.7-4.8.1 1.6.3 4.3h-.05l-.15-.05" fill="#61a00a" transform="translate(17.95 47)"/><path d="M-2.25 4.55-5-.5l-1.1-1.9q-.75-1.25-.65-2.7l.1-.1 3.5 2.6L-5.3-9l4 6.25-.95 7.3" fill="#baf702" transform="translate(17.95 47)"/><path d="m1.45 12.95-.15-.65.15.05h.1l-.05.2-.05.4" fill="#89c201" transform="translate(17.95 47)"/><path d="M1.45 12.35h.05-.05" fill="#ccbd02" transform="translate(17.95 47)"/><path d="m4.7 28.35-.25 1.45L1.8 11.25l.45-2.35.55 2.45 1.8 8.1-.3 1.15-.15 1.75q.1 3 .55 6m-3.2-15-.05-.4.05-.4.15 2.15-.15-1.35" fill="#b48701" transform="translate(17.95 47)"/><path d="m3.4 9.55.1 1.25q.35 4 1.15 8.1l-.05.55-1.8-8.1.6-1.8" fill="#690" transform="translate(17.95 47)"/><path d="m-15.55 11.8 3.55 2.75.2.45-.2.5-3.55.7-1.35-.35q-.85-.35-1-3.3-.2-2.95.8-2.15l1.55 1.4" fill="#9acc02" transform="translate(17.95 47)"/><path d="M1.65 14.7v.05h-.1l.1-.05" fill="#a76903" transform="translate(17.95 47)"/><path d="m1.55 14.75-.05-1.4.15 1.35-.1.05" fill="#6d5201" transform="translate(17.95 47)"/><path d="M-11.05 15.75h.6l1.15 19.5-.85.15-1.3 3.95.4-23.6" fill="#5c8301" transform="translate(17.95 47)"/></g><g id="b"><path d="M.05-22.15 0-21.6l-1.8-8.05.4-.5-.05-.5.25-.85.1 1.25 1.15 8.1" fill="#690" fill-rule="evenodd" transform="translate(22.55 84.4)"/><path d="m-3.15-28.1-.15-.65.15.05h.05l-.05.45v.15" fill="#89c201" fill-rule="evenodd" transform="translate(22.55 84.4)"/><path d="M-15.65-25.3h.6l1.15 19.5-.85.15-1.3 3.95.4-23.6" fill="#5c8301" fill-rule="evenodd" transform="translate(22.55 84.4)"/><path d="m-16.6-25.55-3.55.7q-.75-.1-1.35-.35-.85-.35-1-3.3-.2-2.95.8-2.15l1.55 1.4 3.55 2.75.2.45-.2.5" fill="#9acc02" fill-rule="evenodd" transform="translate(22.55 84.4)"/><path d="m-1.2-31.5-.25.85-.4-2.5L-2-49.6l.75-.65-.25 4.3-.05 6.8.35 7.65M-2.7-52l.05.05v.05l-.05-.1m.65.65L-2-49.6l-.35-1.15.25-.65.05.05" fill="#dea701" fill-rule="evenodd" transform="translate(22.55 84.4)"/><path d="m-3.05-27.9.1 1.55-.15-1.35v-.05l.05-.15m-.1-.1v-.25.25" fill="#b48701" fill-rule="evenodd" transform="translate(22.55 84.4)"/><path d="M-3.3-28.75h.2v.05h-.05l-.15-.05" fill="#ccbd02" fill-rule="evenodd" transform="translate(22.55 84.4)"/><path d="m-3.05-26.3-.05-1.4.15 1.35-.1.05" fill="#6d5201" fill-rule="evenodd" transform="translate(22.55 84.4)"/><path d="M-2.95-26.35v.05h-.1l.1-.05" fill="#a76903" fill-rule="evenodd" transform="translate(22.55 84.4)"/><path d="m7.5-65.3 2.85-2.3 3.6 2.2v.05l-1.1 3.9-2.15 1.7 2.4-.05.7-.1-.65.45-1.65.9.85 1.2-2.9 2.4-1.6-.75-.35 1.2L5.3-53l-1.25-1.55-.35 1.9L.65-55.9l.4-1.55 1.75-.5L.95-59.2l.9-6.65 1.45 1.4 4.1-5.05-1.3 9.35-.8.55-.65.45 4.5-1.3-1.55-.75v-.1l4.35-3.25-1.5.25-2.9.85-.05-1.85m-2.2 5.7.8-6.3-.6.8-.2 5.5m-.85.95 5.3.7-.1-.7-5.65-.1-.75-4-1.15-1 .15.85.1 3.15 1.65 1-1.2.8.25.2 1.2-.2.2-.7m2.1 2.9-1.05-1.2-3.15-.15 1.3.45.7.2-.15.95 2.5.55-.15-.8m-5.5-1.7L3.2-54.7l-.15-.65-2-2.1M0-21.6l-.3 1.15-.15 1.75q.1 3 .55 6l-.25 1.45-2.5-17.2.85-1.2L0-21.6m-3.15-6.1v-.55l.05-.45v-.05h-.2l-2.65-9.2.4-1.4v-.05l-.95-.55-.9-3.15-1.1.6.65.95-2.25 1.8-1.2-.55-.3.9-1.65 1.15-.95-1.15-.25 1.45-2.35-2.5.3-1.2 1.35-.35-1.45-1 .7-5.05 1.1 1.1 3.15-3.85-1 7.1-.6.4-.5.35 3.45-1-1.2-.55v-.05l3.3-2.5-1.15.2-2.2.65v-1.45l2.15-1.7.35.2-1.6-5.75 2.75 6.45 1.25.75v.05L-7-46.4l1.1 2.6 1.5 2.35 1.6 7.2q1-.85.1-14.5l-.4-1.2-.1-.85-.45-.85-1.3-2.35 1.35 1.2-2.65-8.2-5.25-5.65-.05-.05-.5.4-2.4 2.15-.4-2.8-5.15.8 4.25-1.5.9.7-.95-2.45 3.75 3.1-.4-4.15-1.4-1 3-3.55 1.25-1.15 4.05-.6-.95 6.1-3 .45-1.55-1.7L-8-73.7l1.35-.5-.15-.9-.55.1-6.5 3.55 2.8-.45 1.7 3.8-1.2.65v-.1l-.05.05-.45.35 4.8 6.15 3.55 9 .05.1v-.05L-3-70.1l.95 18.45v.1L.45-58l-1.95 6.7.9.45-.65.6-.75.65-.05-1.75v-.2l-.05.15-.25.65-.3-1.15-.05 3.15.7-.85.15 16.45-1.3 5.3v.15m-.05-23.1-.4-2 .4 2m-10.05 7.5.6-4.8-.45.65-.15 4.15m4.1-.1 1.65-.05-.25-1-1.4 1.05m-4.75.85 4.05.55-.1-.55-4.3-.05-.6-3.05-.85-.8.1.65.1 2.4 1.25.8-.9.6.15.15.95-.15.15-.55m-5.4 2.75v-.15l.2-.55-.2.7m4.8-1.25.55.2-.15.7 1.9.45-.1-.65-.8-.9-2.4-.1 1 .3m-2-.6 1.65 2.1-.1-.5-1.55-1.6M-3-31.2l-.5-3.4.1 1.6.3 4.1.1-2.3" fill="#066" fill-rule="evenodd" transform="translate(22.55 84.4)"/><path d="m7.4-69.5.1 4.2.05 1.85 2.9-.85-2.85 3v.1l1.55.75-4.5 1.3.65-.45.8-.55 1.3-9.35M4.45-58.65l-.2.7-1.2.2-.25-.2 1.2-.8-1.65-1-.1-3.15L4-58.75l.45.1m1.05 1.7 1.05 1.2-2.2-.7 2.35 1.5-2.5-.55.15-.95-.7-.2v-.05l1.85-.25m-6.95 26.3.05.5-.4.5-.85 1.2-.4.55-.05.15-.05.05v-.15l1.3-5.3.4 2.5m-10.2-20.15.1 3.15v1.45l2.2-.65-2.15 2.3v.05l1.2.55-3.45 1 .5-.35.6-.4 1-7.1m-7.15-23-3.4-3.25 6.8 5.4-3.55-4.75-.55-3.65 4.85 9.05-4.05-9.25 2.55 3.85 1.5 5.4.2 1.3 2.4 3.4-1.3-3.95.9-.2.4 4.15-3.75-3.1.95 2.45-.9-.7-.9-.75 1.25-2.15-3.45 2.35.85-1.95 2.6-.4-3.4-3.25m9.3 3.6 1.3 1.4-1.15.7-1.7-3.8-2.8.45L-8-73.7l-3.05 1.8 1.55 1.7m-4.4 27.65-.15.55-.95.15-.15-.15.9-.6-1.25-.8-.1-2.4 1.35 3.2.35.05m1.7 2.85-1.9-.45.15-.7-.55-.2 1.4-.2.8.9-1.65-.5 1.75 1.15" fill="#003000" fill-rule="evenodd" transform="translate(22.55 84.4)"/><path d="m10.45-64.3 1.5-.25L7.6-61.3l2.85-3M5.3-59.6l.2-5.5.6-.8-.8 6.3m-3.05-3.3-.15-.85 1.15 1 .75 4 5.65.1.1.7-5.3-.7-.45-.1-1.75-4.15m4.3 7.15.15.8-2.35-1.5 2.2.7m-5.5-1.7 2 2.1.15.65-2.15-2.75M-14.65-71l1.3.75 1.3 3.95-2.4-3.4-.2-1.3-4.85-9.05-.15-1 .95.8 4.05 9.25m.8-.45.5-2.15.1.1.1-.1-.7 2.15M-3-70.1l.75-1.2.2 19.65L-3-70.1m-9.35-7.55-.2.3.1-.35.1.05m10 26.9L-2-49.6l-.7.85.05-3.15.3 1.15m-7 3.9 1.15-.2-3.3 2.5 2.15-2.3m-3.9 3.55.15-4.15.45-.65-.6 4.8m-2.35-2.5-.1-.65.85.8.6 3.05 4.3.05.1.55-4.05-.55-.35-.05-1.35-3.2m3.3 5.45.1.65-1.75-1.15 1.65.5m-4.2-1.3 1.55 1.6.1.5-1.65-2.1" fill="#063" fill-rule="evenodd" transform="translate(22.55 84.4)"/><path d="m0-21.6.05-.55.85-1.4q-1 4.3-.8 10.85-.45-3-.55-6l.15-1.75.3-1.15m-.15 10.35Q-1.5-2.6 1.2 1.9l-.85.15L-.95 6q-.55-3-.7-5.95l-.1-2.1-1.3-24.25h.1v-.05l-.1-1.55.4-.55 2.5 17.2m-2.8-15.05.5 6.35q-.1-3.1-.45-6.25l-.05-.1M-4.4-41.45l1.15 1.85-.45-12.05h.05l.45.85.1.85.4 1.2q.9 13.65-.1 14.5l-1.6-7.2" fill="#047b4f" fill-rule="evenodd" transform="translate(22.55 84.4)"/><path d="m-20-66.15-2.5-7.1 3.7-.55 3.4 3.25-2.6.4-.85 1.95 3.45-2.35-1.25 2.15.9.75-4.25 1.5m-2.2-10.9 1.65-5.9 5.3 2 .2 1.5.4 8.45-1.5-5.4-2.55-3.85-.95-.8.15 1 .55 3.65 3.55 4.75-6.8-5.4m8.85 3.45-1.2-2.6 1.45-5.6 3.3-2.6.9 6.05-4.25 4.75-.1.1-.1-.1m1-4.05-.1-.05-.1.35.2-.3m-1.5 6.2 6.5-3.55.55-.1.15.9-1.35.5-5.85 2.25" fill="#0d9168" fill-rule="evenodd" transform="translate(22.55 84.4)"/><path d="m-3.6-52.8.4 2" fill="none" stroke="#003000" stroke-linecap="round" stroke-linejoin="round" transform="translate(22.55 84.4)"/></g><g id="i"><path d="m4.9-21.65-3.3 2.9q1.1-4.4.4-7.55l-.15-3.3 3.25-2.9q1.2 5.6-.2 10.85m-6.55 8 4.6 4.3.95 7.15-2.1 9.75-.05 1.3-.9-6.7q-4.4-8.5-5.8-17.05l3.3 1.25" fill="#395726" fill-rule="evenodd" transform="translate(6.65 39.5)"/><path d="M1.85-29.6 2-26.3q.7 3.15-.4 7.55l3.3-2.9-2 7.9q2.05-3 3.8-4.65 0 7.8-2.8 16.2l-.95-7.15-4.6-4.3q-4-5.3-5-12.75 2.2-.9 4.8 2.35-.9-7.4-.15-15.45 2.3 3.8 3.85 9.9" fill="#3a7000" fill-rule="evenodd" transform="translate(6.65 39.5)"/><path d="m1.8 7.55.8 32" fill="none" stroke="#35781f" stroke-linecap="round" stroke-linejoin="round" transform="translate(6.65 39.5)"/></g><g id="j"><path d="m-3-16-6.1-12.85 4.3 1.65.2-14.45 4.35 12.1.65 1.6.9 8.35L3.8-24l.8 10.6 4.5-5.3L5.2-2.05 3.5-9.6-3-16" fill="#b0930c" fill-rule="evenodd" transform="translate(9.1 41.65)"/><path d="m-3-16 6.5 6.4 1.7 7.55-2.65 10.1v1.4L1 2.3l-9.9-16.35L-3-16m6.8-8-2.5 4.4-.9-8.35-.65-1.6 3.2-6.4Q3.3-30 3.8-24" fill="#9f7c00" fill-rule="evenodd" transform="translate(9.1 41.65)"/><path d="m2.55 8.05 2.4 33.65" fill="none" stroke="#b0930c" stroke-linecap="round" stroke-linejoin="round" transform="translate(9.1 41.65)"/></g><g id="e" fill-rule="evenodd"><path d="M27.2 2q-.9-.8-2.8-1-2.4-.35-5.35 5.15l-3.2 6.2-.75 1.5-1.55 1.9q-1.5 1.65-2.55 3.5Q9.5 21.9 8.9 25q9.85 10.6 21.05 9.2t15.4-7.05l1.25-2.75.5.6q.85.95 1.05 2.2.05 3.9-3.65 6.25-7.05 4.4-14.35 5.8-10.35 2-21.3-2.05-4.9-1.85-7.1-4.9l-.2-.35q-.85-1.3-1.2-2.8l-.1-.5q-.3-1.25-.25-2.6L.7 25l5.65-6.5.25-.3L21.25 1.3q1.1-1.25 2.7-1.3 1.55.05 2.65 1.3l.6.7" fill="#e6e1ce"/><path d="m46.6 24.4-1.25 2.75q-4.2 5.65-15.4 7.05T8.9 25q.6-3.1 2.1-5.75 1.05-1.85 2.55-3.5l1.55-1.9.75-1.5 3.2-6.2Q22 .65 24.4 1q1.9.2 2.8 1l.35.4q1.15.35.9 1.1L46.6 24.4" fill="url(#k)"/><path d="m6.6 18.2-.25.3-.5.15.75-.45" fill="#c0ab7a"/></g><g id="f"><path d="m83 81.8.3.5-.3-.5 2.55-.75.2.55-.2-.55 1.5-.45v-.05l.8-.3-6.55 7.55q-.55.55-.85 1.25l.1 2-2.5-2.5v-1.4L75.1 84.1l1.7-.5 1.35-.4L83 81.8m-4.6 1.9-.25-.5.25.5m58.25 5-.6-.9-1-1.2-3.4-3.9.95.1 1.45.15 2.45.6-.4.5.4-.5 1.8.45.55.15-.05.3-.2 1.35-1.55 2.3-.4.6m1.65-4.7.5.45-.5-.45" fill="#403020" fill-rule="evenodd" transform="translate(-69.65 -76.45)"/><path d="M80.55 91.05q1 .9 1.7 1.25l4.85 2.25 4.15 1q15.55 3.5 26.6 2.85l2.8-.25 1.75-.25q-7.45 6.8-20.6 6.9h-1.15l-7.9-.05-3.7-.1-.5 2.2q-1.35 6.95.6 13.65 2.1 7.3 1.9 14.9.25 1.45 7.5 5.2t20 2.4 13.3.05l-2.05 1.3-3.1 1.05q-17.9 5.35-39.35-1.05l-.25-.15-.4.15-5.65.25q.75-.2 2.45-2.4 1.7-2.25 0-3.55l-.8-.7q-1.2-1.15-1.85-2.65l-.2-.45Q74.7 121.3 77.5 111.8l-.15-.65h.7l-1.2-10.65-1.3-11.05-.35-3.3-.15-1.05 3 3.45 2.5 2.5" fill="#866f48" fill-rule="evenodd" transform="translate(-69.65 -76.45)"/><path d="M122.4 97.9q4.05-.65 7.4-1.95l.3.1.05-.3v-.05l1-.65 2.9-1.9v-.05l.4-.7.05-.1 2.15-3.6.4-.6.65-1 .8-.75 1.2-.75-.4 1.7-.15.6q-2 7.25.95 13.75l-6.05-4.45v-.05l-2.15-.6q-3.05 3.2-6.95 5.4-4.7 2.6-10.65 3.7-10.2 1.95-19.65.25l-.7-.35 1.05.55 1.7 1 6.15 1.85.45.15q3.15.95 6.45.95l1.1-.05 5.5.55q.85.1 1.6-.4l.2-.05-.55.45-.55.5.95.15-.5-.1 1.45-.4 3.3-1.15.3-.05q6.5-.95 12.6-3.05l.65-.25 4.35-1.75-.1 4.2q-2.3 1.25-4.9 2.15l-2.95.9-4.4.95-5.6.7-2.35.15q-1.15 1.2-2.75 1.7l-4.55.25-4.75-.45-3.8-.3.5.5 2.8.05q.5 0 1 .4l-3.25.2q5.6 6.3 7.85 16l.15.3 5.25.95 1.5.2q3.15-2.7 5.4-6.1l.9-1.45q2.6-4.5 3.7-10.05 5.9 14.1 2.3 21.5 1.95-.6 3.85-.45-.35 1.45 3.9 3.85l-5.8.95v.1l-2.2 1.4q-.55-1.4-13.3-.05t-20-2.4-7.5-5.2q.2-7.6-1.9-14.9-1.95-6.7-.6-13.65l.5-2.2 3.7.1 7.9.05h1.15q13.15-.1 20.6-6.9m7.75-2.15 1-.7-1 .7m-49.5 39.1.2.45q-.65-.25-.2-.45m41.95-25.6-1.55.1h-1.6l-1.4-.05-1.5.1q9.95-3.25 19-8.5-2.85 6.95-11.5 8.2l-1.45.15m.95 5.45 6.5-1.55 4.15.8.35.45-11.15 1.9-1.45.15-2.25.2-1.65.15-1.6.05-8.9.05 10.95-1.25 3.55-.65 1.5-.3m3.75 23.75-3-.05-4.6.5 6-.15 1.6-.3" fill="#a78e58" fill-rule="evenodd" transform="translate(-69.65 -76.45)"/><path d="M135.95 136.75q-1.9-.15-3.85.45 3.6-7.4-2.3-21.5-1.1 5.55-3.7 10.05l-.9 1.45q-2.25 3.4-5.4 6.1l-1.5-.2-5.25-.95-.15-.3q-2.25-9.7-7.85-16l3.25-.2q-.5-.4-1-.4l-2.8-.05-.5-.5 3.8.3 4.75.45 4.55-.25q1.6-.5 2.75-1.7l2.35-.15 5.6-.7 4.4-.95 2.95-.9q2.6-.9 4.9-2.15l.1-4.2-4.35 1.75-.65.25q-6.1 2.1-12.6 3.05l-.3.05-3.3 1.15-1.45.4.5.1-.95-.15.55-.5.55-.45-.2.05q-.75.5-1.6.4l-5.5-.55-1.1.05q-3.3 0-6.45-.95l-.45-.15-6.15-1.85-1.7-1-1.05-.55.7.35q9.45 1.7 19.65-.25 5.95-1.1 10.65-3.7 3.9-2.2 6.95-5.4l2.15.6v.05l6.05 4.45.05.7.8 13.75q.8 13.7-5 20.65m-8.65 1.7-1.6.3-6 .15 4.6-.5 3 .05m-3.75-23.75-1.5.3-3.55.65-10.95 1.25 8.9-.05 1.6-.05 1.65-.15 2.25-.2 1.45-.15 11.15-1.9-.35-.45-4.15-.8-6.5 1.55m-.95-5.45 1.45-.15q8.65-1.25 11.5-8.2-9.05 5.25-19 8.5l1.5-.1 1.4.05h1.6l1.55-.1" fill="#c2b68b" fill-rule="evenodd" transform="translate(-69.65 -76.45)"/><path d="m82.7 137.95.8.7q1.7 1.3 0 3.55-1.7 2.2-2.45 2.4l5.65-.25h.65q21.45 6.4 39.35 1.05l3.1-1.05q2.35 0 4.15-.8l.1.6q0 3.3-9.25 5.65-9.2 2.35-22.25 2.35t-22.3-2.35q-9.2-2.35-9.2-5.65t9.2-5.65l2.45-.55" fill="#666" fill-opacity=".353" fill-rule="evenodd" transform="translate(-69.65 -76.45)"/><path d="m129.8 95.95.35-.2-.05.3-.3-.1m9.9-10.35-1.2.75-.8.75-.65 1 1.55-2.3q1.3-1.75 1.1-.2m-53 58.75.4-.15.25.15h-.65m43.1 0 2.05-1.3 2.2-1.4v-.1l5.8-.95q-4.7 1.05-5.5 2.4l-.3.45v.05l-.1.05q-1.8.8-4.15.8" fill="#e6e1ce" fill-rule="evenodd" transform="translate(-69.65 -76.45)"/><path d="M117.85 98.4q3.55-.7 7-1.95l-4.2 1.7-2.8.25" fill="url(#l)" fill-rule="evenodd" transform="translate(-69.65 -76.45)"/><path d="m87.85 80.25 7.3-3.8q-4.1 2.6-6.05 4.4l-.55.45q-1.5 2.9-2.4 5.9-.15.4-.15.85 3.35 2.65 7.2 4.05 4.1 1 8.4 1.4 10.95 1 21.6-1.8 6.45-1.7 11.85-5.1l1 1.2.6.9-2.15 3.6-.05.1-.4.7v.05l-2.9 1.9-1 .65v.05l-.35.2q-3.35 1.3-7.4 1.95l-1.75.25 4.2-1.7q-3.45 1.25-7 1.95-11.05.65-26.6-2.85l-4.15-1-4.85-2.25q-.7-.35-1.7-1.25l-.1-2q.3-.7.85-1.25l6.55-7.55" fill="#d1c4a4" fill-rule="evenodd" transform="translate(-69.65 -76.45)"/><path d="M10.9 14.6q1 .9 1.7 1.25l4.85 2.25 4.15 1q15.55 3.5 26.6 2.85m2.8-.25 1.75-.25q4.05-.65 7.4-1.95l.35-.2m1-.7 2.9-1.9m0-.05.4-.7.05-.1 2.15-3.6M51 21.7l-2.8.25m19.2-10.3-.4.6m1.95-2.9q1.3-1.75 1.1-.2l-.4 1.7-.15.6m-8 7.15-1 .7m5.8 41q5.8-6.95 5-20.65l-.8-13.75-.05-.7q-2.95-6.5-.95-13.75m-2.1.2 1.55-2.3M8.4 12.1l-3-3.45.15 1.05.35 3.3 1.3 11.05L8.4 34.7h-.7l.15.65Q5.05 44.85 11 58.4l.2.45q.65 1.5 1.85 2.65l.8.7q1.7 1.3 0 3.55-1.7 2.2-2.45 2.4l5.65-.25h.65q21.45 6.4 39.35 1.05l3.1-1.05M10.9 14.6l-2.5-2.5m61.8 52.05q-4.25-2.4-3.9-3.85m-1.9 6.75-.1.05q-1.8.8-4.15.8m10.05-3.75q-4.7 1.05-5.5 2.4l-.3.45" fill="none" stroke="#5a4530" stroke-linecap="round" stroke-linejoin="round" stroke-width="2"/><path d="M13.35 5.35 12.6 4.1m3.3.5-.85-2.25m47.9 4 1.4-3.65m2.5 4.4 1.35-1.95m3.95-3.05L69.2 7.6v.1m-3.45-2.2.7-1.75m-5.55.7L61.6 2m9.05 8.05 4.2.7M69.15 8l5.35.3M7.15 7.15l-4-1.65m6.3.7-.7-3.15m-.25 3.7-1.85-3.7m-1.4 8.75L3.5 13.55M5.55 9.7 0 10.4" fill="none" stroke="#5a4530" stroke-linecap="round" stroke-linejoin="round" stroke-width=".05"/><path d="m15.9 4.6.2.55m-2.45.7-.3-.5M8.5 6.75l.25.5m53.25-1 .95.1M17.4 4.1l.8-.3m48.65 3.3-2.45-.6-1.45-.15m3.9.75-.4.5m3.05 3.85 1.85 1.05m-2.4-3.15.2-1.35-.5-.45-1.8-.45m2.3.9.05-.3-.55-.15M5.9 13l-1.35.2" fill="none" stroke="#435555" stroke-linecap="round" stroke-linejoin="round" stroke-width=".05"/><path d="m46.3 40.55.6-1.45q-16-1.2-29.15-6.9-6.2-2.7-11.7-6.35L4.9 25.1m65 2-.55.6q-2.3 2.4-5 4.1-5.4 3.3-12.65 4l-.8 8.3m1-1 5 18.95M51.7 35.8l-2.8 1.3m-2 2 1.95-4.8m-3 7.45-.95 2.35m4-2.1-2 23.05m5-31.95-.2 2.7" fill="none" stroke="#b35e00" stroke-linecap="round" stroke-linejoin="round" stroke-width="2"/><path d="m47.45 38.75.6-1.45q-16-1.2-29.15-6.9-6.2-2.7-11.7-6.35l-1.15-.75m47 18 5 18.95m-5-28.95-.2 2.7q7.25-.7 12.65-4 2.7-1.7 5-4.1l.55-.6M52.85 34l-.8 8.3m-2-2.1-2 23.05M47 39.95l-.95 2.35m2-5L50 32.5m2.85 1.5-2.8 1.3" fill="none" stroke="#ff8c00" stroke-linecap="round" stroke-linejoin="round" stroke-width="2"/></g><g id="m"><path d="m1.65 20.95 1.4-.2-1.3 1.35-8.8 8.95 2.5-9.2 6.2-.9M.95-10.9 3.4-5.25l-1.25.2-3.5-3.9-.55-.6L.95-10.9m3.7 17.3-2.8-1.15L-5.3.95l-.35-1-4.35-12.3 4.25 5.4L4.65 6.4M-7.5-24.5l-.05-.65-.7-6.8 1.65 3.8 4.75 10.85-.95 6.8-2.6-2.95-1.1-1.65-1-9.4" fill="#ffd512" fill-rule="evenodd" transform="translate(10 38.4)"/><path d="m4.25 5.25.55 1.2-.15-.05-10.4-13.35-3.45-11.7 2.7 3.55 1.1 1.65 2.45 3.95.2.4.65 1.05 2 3.65Q2.2.15 4.25 5.25M-7.5-24.5l-.15-.3.1-.35.05.65m.9-3.65 3.25-10.25L-1-23.6l-.85 6.3-4.75-10.85" fill="#ffb700" fill-rule="evenodd" transform="translate(10 38.4)"/><path d="m4.95-5.4 3.15.1L4.25 5.25Q2.2.15-.1-4.4l2.25-.65 1.25-.2 1.55-.15m-.3-10.65.5 3.15-4.2 2-2.85 1.35-.85.45-.2-.4.15-1 .95-6.8.85-6.3 2.1-14.6 3.55 22.15m-10.3 16 .35 1 7.15 4.3L-.7 4.1l.2.25-5.85-3.2.7-1.2" fill="#ffe15e" fill-rule="evenodd" transform="translate(10 38.4)"/><path d="m4.65-16.05 1.25-1.5L4.95-5.4l-1.55.15L.95-10.9l4.2-2-.5-3.15m-6.75 8 .75-.9 3.5 3.9-2.25.65-2-3.65" fill="#db9d00" fill-rule="evenodd" transform="translate(10 38.4)"/><path d="m4.8 6.45 2.85 1.3L10 19.05.2 5.4l-.7-1.05-.2-.25 2.55 1.15 2.8 1.15.15.05" fill="#d9b20f" fill-rule="evenodd" transform="translate(10 38.4)"/><path d="m.2 5.4 1.45 15.55m.1 1.15 1.5 16.25" fill="none" stroke="#ffd512" stroke-linecap="round" stroke-linejoin="round" transform="translate(10 38.4)"/></g><use width="35.9" height="94.05" xlink:href="#h" id="a"/><use width="13.35" height="79.55" xlink:href="#i" id="c"/><use width="18.2" height="83.85" xlink:href="#j" id="d"/><use width="20" height="77.25" xlink:href="#m" id="g"/><linearGradient id="k" x1="-819.2" x2="819.2" gradientTransform="matrix(-.0147 -.0009 .0012 -.0197 20.95 19.05)" gradientUnits="userSpaceOnUse"><stop stop-color="#fff" offset="0"/><stop stop-color="#e6e1ce" offset="1"/></linearGradient><linearGradient id="l" x1="-819.2" x2="819.2" gradientTransform="matrix(-.0116 .0003 -.0006 -.023 112.65 81.1)" gradientUnits="userSpaceOnUse"><stop stop-color="#e2e1c7" offset="0"/><stop stop-color="#c8ab91" offset="1"/></linearGradient></defs></svg>