<svg viewBox="0 0 64.6 138.97" xmlns="http://www.w3.org/2000/svg" xmlns:xlink="http://www.w3.org/1999/xlink"><use transform="translate(.025 .025)" width="64.55" height="138.9" xlink:href="#a"/><defs><g id="a"><path d="M4.65-69q4.1 4.8 5.35 10.6l.1.65.1.3 1.2 28.15.1.95Q12.1-11 13.65 2.6v.55Q15.7 32.45 27.4 48l4.6 3.55-.1.2-6.9-.1v-.3Q9.75 38.6 7.2 21.15q-2.3 18.2 4.95 32.35l-.25.2-.75 1.3-.3 1.8-.1.95q-.65 3.8-4.2 4.95l-5.9.75H.2Q-9.6 45.1-9.95 0q-10.5 35.8-6.6 65.1v.1q-.55.25-.95.6-1.2.75-2.7 1.2-10.4-11.05-11.7-25.45l.25-4.95q.45-9 2.8-29.95 2.2-19.45 2.55-30.25.45-16.8-2.15-30.5Q-8-58.55 4.65-69" fill-rule="evenodd" transform="translate(32.1 69)"/><path d="m32 51.55.3.2.05.1-.45-.1.1-.2m-7 .1-2.75-.1 2.75-.2v.3M12.25 53.5l-.35.2.25-.2h.1M-32 41.55V39.5l.1 2.05h-.1" fill="#555ba0" fill-rule="evenodd" transform="translate(32.1 69)"/><path d="m22.25 51.55-9.7 1.85h-.1l-.3.1Q4.9 39.35 7.2 21.15 9.75 38.6 25 51.35l-2.75.2M.2 63.45h-6q-7.15-.1-10.75 1.75v-.1q-3.9-29.3 6.6-65.1Q-9.6 45.1.2 63.45" fill="#2d2d2d" fill-rule="evenodd" transform="translate(32.1 69)"/><path d="m12.45 53.4-.1.1h-.2l.3-.1" fill="#43487e" fill-rule="evenodd" transform="translate(32.1 69)"/><path d="m-20.2 67 2.7 2.6.2.2q-9.65.8-14.8-3.65l.1-24.6h.1q1.3 14.4 11.7 25.45" fill="#a7a7a7" fill-rule="evenodd" transform="translate(32.1 69)"/><path d="M36.75 0q4.1 4.8 5.35 10.6l.1.65.1.3 1.2 28.15.1.95Q44.2 58 45.75 71.6v.55Q47.8 101.45 59.5 117l4.6 3.55.45.3h-.1l-.45-.1-6.9-.1-2.75-.1-9.7 1.85m-.1 0-.1.1h-.1m-.35.2-.75 1.3-.3 1.8-.1.95q-.65 3.8-4.2 4.95l-5.9.75H26.3q-7.15-.1-10.75 1.75-.55.25-.95.6-1.2.75-2.7 1.2l2.7 2.6.2.2q-9.65.8-14.8-3.65m44.25-12.65-.25.2M.2 110.55H.1M11.9 136Q1.5 124.95.2 110.55" fill="none" stroke="#0f121c" stroke-linecap="round" stroke-linejoin="round" stroke-width=".05"/><path d="M-10.95-14.2q-2.05.7-3.55 2.6-1.3 2-1.3 4.15 0 2.1 1.3 3.05 1.5 1.05 3.55.35Q-8.9-4.8-7.6-6.8q1.5-1.9 1.5-4 0-2.15-1.5-3.2-1.3-.95-3.35-.2m-8.6 11.55q0-5.85 3.9-11.3 3.95-5.4 9.55-7.35t9.5.75q3.95 2.75 3.95 8.6 0 3.5-1.3 6.85l-4.5 1.55Q-1.65.05 4.15.8l-2.6.9q-3.35 3.5-7.65 5-5.25 1.8-8.95-.4l2.4-.85V.95l-5.6 1.95q-1.3-2.25-1.3-5.55m22.4-13.2-3-.2q-1.85.65-3.15 2.3-1.15 1.75-1.15 3.7t1.15 2.7q1.3.9 3.15.25 1.9-.65 3-2.35 1.3-1.6 1.3-3.55t-1.3-2.85m1.1 22.5q0 1.2-.55 2.15-.55 1-1.3 1.25T.8 9.7Q.25 9.15.25 7.95q0-1.15.55-2.1.55-1 1.3-1.25t1.3.35q.55.55.55 1.7m-7.45 3.8q0 .95-.75 2-.55.95-1.5 1.25l-1.65-.15Q-8 12.95-8 12q0-1 .6-1.95.75-1.05 1.65-1.4.95-.3 1.5.3.75.5.75 1.5m-11.75 2.5q0-1 .55-1.9.75-.9 1.7-1.2l1.5.1q.7.45.7 1.45 0 .95-.7 1.85-.6.9-1.5 1.25l-1.7-.15q-.55-.45-.55-1.4" fill="#fff" fill-rule="evenodd" transform="translate(32.1 69)"/></g></defs></svg>