<svg viewBox="0 0 17.3 37.179" xmlns="http://www.w3.org/2000/svg" xmlns:xlink="http://www.w3.org/1999/xlink"><g transform="translate(-245.42 -177.32)"><use transform="translate(245.45 177.35)" width="17.25" height="37.15" xlink:href="#a"/><use transform="matrix(1.756 -.038 -.0281 -1.2175 250.44 197.98)" width="2.1" height="9.9" xlink:href="#b"/><use transform="matrix(1.1793 -.2506 -.3434 -.8142 255.3 194.23)" width="2.1" height="9.9" xlink:href="#b"/><use transform="matrix(1.4735 .325 .4911 -1.0271 245.47 195.58)" width="2.1" height="9.9" xlink:href="#b"/><use transform="matrix(.2617 -.0073 -.0086 -.2392 251.34 198.27)" width="8.1" height="8.1" xlink:href="#c"/><use transform="matrix(.2075 -.0058 -.0069 -.1896 250.68 196.07)" width="8.1" height="8.1" xlink:href="#c"/><use transform="matrix(.1797 -.005 -.0059 -.1643 252.27 194.72)" width="8.1" height="8.1" xlink:href="#c"/><use transform="matrix(.1787 -.063 -.1161 -.1622 256.07 194.21)" width="8.1" height="8.1" xlink:href="#c"/><use transform="matrix(.1416 -.0499 -.092 -.1285 254.72 193.02)" width="8.1" height="8.1" xlink:href="#c"/><use transform="matrix(.1227 -.0432 -.0797 -.1113 255.52 191.65)" width="8.1" height="8.1" xlink:href="#c"/><use transform="matrix(.1864 .027 .0549 -.1711 246.93 195.24)" width="8.1" height="8.1" xlink:href="#c"/><use transform="matrix(.1478 .0213 .0436 -.1356 246.82 193.9)" width="8.1" height="8.1" xlink:href="#c"/><use transform="matrix(.1281 .0185 .0377 -.1175 248.7 193.18)" width="8.1" height="8.1" xlink:href="#c"/><use transform="matrix(.4568 -.3673 -.3366 -.6773 256.42 200.9)" width="2.1" height="9.9" xlink:href="#b"/><use transform="matrix(.246 -.3729 -.3115 -.389 256.74 197.83)" width="2.1" height="9.9" xlink:href="#b"/><use transform="matrix(.4798 -.108 -.147 -.6728 254.48 200.58)" width="2.1" height="9.9" xlink:href="#b"/><use transform="matrix(.0676 -.0557 -.067 -.1324 256.77 200.94)" width="8.1" height="8.1" xlink:href="#c"/><use transform="matrix(.0536 -.0441 -.0531 -.105 256.02 199.78)" width="8.1" height="8.1" xlink:href="#c"/><use transform="matrix(.0465 -.0382 -.046 -.091 256.04 198.77)" width="8.1" height="8.1" xlink:href="#c"/><use transform="matrix(.0305 -.0705 -.0747 -.0681 256.9 197.68)" width="8.1" height="8.1" xlink:href="#c"/><use transform="matrix(.0242 -.0559 -.0592 -.0539 256.24 197.32)" width="8.1" height="8.1" xlink:href="#c"/><use transform="matrix(.021 -.0484 -.0513 -.0467 256.11 196.39)" width="8.1" height="8.1" xlink:href="#c"/><use transform="matrix(.0569 -.0216 -.0316 -.1068 254.73 200.13)" width="8.1" height="8.1" xlink:href="#c"/><use transform="matrix(.0451 -.0172 -.0251 -.0846 254.35 199.34)" width="8.1" height="8.1" xlink:href="#c"/><use transform="matrix(.0391 -.0149 -.0217 -.0733 254.69 198.6)" width="8.1" height="8.1" xlink:href="#c"/><use transform="matrix(.5126 .4255 .2451 -.6436 248.49 199.54)" width="2.1" height="9.9" xlink:href="#b"/><use transform="matrix(.3911 .1681 .0706 -.5128 250.7 198.79)" width="2.1" height="9.9" xlink:href="#b"/><use transform="matrix(.356 .5437 .3547 -.4124 247.54 196.99)" width="2.1" height="9.9" xlink:href="#b"/><use transform="matrix(.0768 .0626 .0473 -.1272 248.66 199.87)" width="8.1" height="8.1" xlink:href="#c"/><use transform="matrix(.0608 .0496 .0375 -.1009 249 198.56)" width="8.1" height="8.1" xlink:href="#c"/><use transform="matrix(.0527 .043 .0325 -.0874 249.67 198.3)" width="8.1" height="8.1" xlink:href="#c"/><use transform="matrix(.0645 .0124 .0003 -.1142 250.9 198.96)" width="8.1" height="8.1" xlink:href="#c"/><use transform="matrix(.0511 .0098 .0003 -.0905 250.75 198.02)" width="8.1" height="8.1" xlink:href="#c"/><use transform="matrix(.0443 .0085 .0002 -.0784 251.3 197.52)" width="8.1" height="8.1" xlink:href="#c"/><use transform="matrix(.048 .0614 .0514 -.0755 248.04 197.21)" width="8.1" height="8.1" xlink:href="#c"/><use transform="matrix(.038 .0486 .0407 -.0598 248.34 196.49)" width="8.1" height="8.1" xlink:href="#c"/><use transform="matrix(.033 .0421 .0353 -.0518 248.96 196.51)" width="8.1" height="8.1" xlink:href="#c"/><use transform="matrix(.8377 -.1094 -.1978 -1.1636 253.68 204.71)" width="2.1" height="9.9" xlink:href="#b"/><use transform="matrix(.5285 -.2888 -.2882 -.7647 255.48 200.89)" width="2.1" height="9.9" xlink:href="#b"/><use transform="matrix(.757 .2496 .0803 -1.003 250.95 202.66)" width="2.1" height="9.9" xlink:href="#b"/><use transform="matrix(.1246 -.0179 -.0404 -.2285 254.16 204.93)" width="8.1" height="8.1" xlink:href="#c"/><use transform="matrix(.0988 -.0142 -.032 -.1811 253.48 202.88)" width="8.1" height="8.1" xlink:href="#c"/><use transform="matrix(.0856 -.0123 -.0277 -.1569 254.06 201.59)" width="8.1" height="8.1" xlink:href="#c"/><use transform="matrix(.0763 -.0677 -.0803 -.1503 255.83 200.91)" width="8.1" height="8.1" xlink:href="#c"/><use transform="matrix(.0605 -.0536 -.0637 -.1191 255.01 199.83)" width="8.1" height="8.1" xlink:href="#c"/><use transform="matrix(.0524 -.0465 -.0552 -.1032 255.17 198.47)" width="8.1" height="8.1" xlink:href="#c"/><use transform="matrix(.0936 .018 .0005 -.166 251.6 202.27)" width="8.1" height="8.1" xlink:href="#c"/><use transform="matrix(.0742 .0143 .0004 -.1315 251.35 201.03)" width="8.1" height="8.1" xlink:href="#c"/><use transform="matrix(.0643 .0124 .0003 -.114 252.1 200.21)" width="8.1" height="8.1" xlink:href="#c"/><use transform="matrix(.4634 -.5851 -.4995 -.7166 257.87 198.05)" width="2.1" height="9.9" xlink:href="#b"/><use transform="matrix(.2203 -.5271 -.4226 -.3753 257.64 194.26)" width="2.1" height="9.9" xlink:href="#b"/><use transform="matrix(.5331 -.2783 -.2811 -.7695 255.54 198.21)" width="2.1" height="9.9" xlink:href="#b"/><use transform="matrix(.0684 -.0882 -.099 -.1398 258.2 197.92)" width="8.1" height="8.1" xlink:href="#c"/><use transform="matrix(.0542 -.0699 -.0785 -.1108 257.12 196.8)" width="8.1" height="8.1" xlink:href="#c"/><use transform="matrix(.047 -.0606 -.068 -.096 257.08 195.49)" width="8.1" height="8.1" xlink:href="#c"/><use transform="matrix(.0233 -.0948 -.0972 -.0594 257.84 193.99)" width="8.1" height="8.1" xlink:href="#c"/><use transform="matrix(.0185 -.0751 -.077 -.0471 257.01 193.69)" width="8.1" height="8.1" xlink:href="#c"/><use transform="matrix(.016 -.0651 -.0667 -.0408 256.72 192.62)" width="8.1" height="8.1" xlink:href="#c"/><use transform="matrix(.0617 -.0437 -.0541 -.1196 255.77 197.58)" width="8.1" height="8.1" xlink:href="#c"/><use transform="matrix(.0489 -.0346 -.0429 -.0948 255.22 196.73)" width="8.1" height="8.1" xlink:href="#c"/><use transform="matrix(.0424 -.03 -.0372 -.0821 255.45 195.73)" width="8.1" height="8.1" xlink:href="#c"/><use transform="matrix(.6597 .3577 .1742 -.8546 248.44 198.68)" width="2.1" height="9.9" xlink:href="#b"/><use transform="matrix(.4772 .0834 -.0044 -.6426 250.82 197.13)" width="2.1" height="9.9" xlink:href="#b"/><use transform="matrix(.4995 .5489 .3387 -.6084 246.92 196.01)" width="2.1" height="9.9" xlink:href="#b"/><use transform="matrix(.0986 .0522 .0331 -.1686 248.72 199.08)" width="8.1" height="8.1" xlink:href="#c"/><use transform="matrix(.0781 .0414 .0262 -.1336 248.79 197.39)" width="8.1" height="8.1" xlink:href="#c"/><use transform="matrix(.0677 .0358 .0227 -.1158 249.61 196.87)" width="8.1" height="8.1" xlink:href="#c"/><use transform="matrix(.0761 -.0048 -.0187 -.1384 251.08 197.31)" width="8.1" height="8.1" xlink:href="#c"/><use transform="matrix(.0603 -.0038 -.0148 -.1097 250.76 196.24)" width="8.1" height="8.1" xlink:href="#c"/><use transform="matrix(.0523 -.0033 -.0128 -.095 251.3 195.43)" width="8.1" height="8.1" xlink:href="#c"/><use transform="matrix(.0654 .0596 .0464 -.1072 247.51 196.03)" width="8.1" height="8.1" xlink:href="#c"/><use transform="matrix(.0518 .0472 .0368 -.085 247.7 195.09)" width="8.1" height="8.1" xlink:href="#c"/><use transform="matrix(.0449 .0409 .0319 -.0736 248.47 195)" width="8.1" height="8.1" xlink:href="#c"/><use transform="matrix(.9438 -.3899 -.4212 -1.3481 255.33 203.32)" width="2.1" height="9.9" xlink:href="#b"/><use transform="matrix(.5588 -.5121 -.4585 -.8373 256.72 198.14)" width="2.1" height="9.9" xlink:href="#b"/><use transform="matrix(.9109 .0696 -.0749 -1.2392 251.87 201.73)" width="2.1" height="9.9" xlink:href="#b"/><use transform="matrix(.1401 -.0599 -.0844 -.2642 255.94 203.47)" width="8.1" height="8.1" xlink:href="#c"/><use transform="matrix(.1111 -.0475 -.0669 -.2094 254.82 201.15)" width="8.1" height="8.1" xlink:href="#c"/><use transform="matrix(.0962 -.0412 -.058 -.1815 255.28 199.44)" width="8.1" height="8.1" xlink:href="#c"/><use transform="matrix(.0763 -.1054 -.1173 -.1573 257.18 198.04)" width="8.1" height="8.1" xlink:href="#c"/><use transform="matrix(.0605 -.0835 -.093 -.1247 256.08 197)" width="8.1" height="8.1" xlink:href="#c"/><use transform="matrix(.0524 -.0724 -.0806 -.108 256.03 195.34)" width="8.1" height="8.1" xlink:href="#c"/><use transform="matrix(.1105 -.007 -.0271 -.2011 252.51 201.06)" width="8.1" height="8.1" xlink:href="#c"/><use transform="matrix(.0876 -.0056 -.0215 -.1594 251.99 199.55)" width="8.1" height="8.1" xlink:href="#c"/><use transform="matrix(.0759 -.0048 -.0186 -.1381 252.78 198.36)" width="8.1" height="8.1" xlink:href="#c"/><use transform="matrix(.4756 -.3425 -.2982 -.6926 255.08 189.33)" width="2.1" height="9.9" xlink:href="#b"/><use transform="matrix(.2658 -.359 -.289 -.4039 255.48 186.3)" width="2.1" height="9.9" xlink:href="#b"/><use transform="matrix(.4843 -.0829 -.1095 -.6783 253.09 188.91)" width="2.1" height="9.9" xlink:href="#b"/><use transform="matrix(.0705 -.052 -.0594 -.1355 255.39 189.3)" width="8.1" height="8.1" xlink:href="#c"/><use transform="matrix(.0559 -.0412 -.0471 -.1074 254.69 188.18)" width="8.1" height="8.1" xlink:href="#c"/><use transform="matrix(.0484 -.0357 -.0408 -.0931 254.82 187.13)" width="8.1" height="8.1" xlink:href="#c"/><use transform="matrix(.0343 -.0687 -.0707 -.0717 255.74 186.14)" width="8.1" height="8.1" xlink:href="#c"/><use transform="matrix(.0272 -.0545 -.0561 -.0568 255.08 185.73)" width="8.1" height="8.1" xlink:href="#c"/><use transform="matrix(.0236 -.0472 -.0486 -.0492 255 184.75)" width="8.1" height="8.1" xlink:href="#c"/><use transform="matrix(.0579 -.0186 -.0257 -.1081 253.45 188.39)" width="8.1" height="8.1" xlink:href="#c"/><use transform="matrix(.0459 -.0148 -.0203 -.0857 253.08 187.7)" width="8.1" height="8.1" xlink:href="#c"/><use transform="matrix(.0398 -.0128 -.0176 -.0742 253.42 186.9)" width="8.1" height="8.1" xlink:href="#c"/><use transform="matrix(.4875 .4507 .2798 -.6289 247.21 187.56)" width="2.1" height="9.9" xlink:href="#b"/><use transform="matrix(.3806 .1878 .0987 -.5075 249.36 186.91)" width="2.1" height="9.9" xlink:href="#b"/><use transform="matrix(.3248 .5603 .3764 -.3927 246.39 184.99)" width="2.1" height="9.9" xlink:href="#b"/><use transform="matrix(.0731 .0663 .0541 -.1244 247.38 187.9)" width="8.1" height="8.1" xlink:href="#c"/><use transform="matrix(.0579 .0526 .0429 -.0986 247.68 186.6)" width="8.1" height="8.1" xlink:href="#c"/><use transform="matrix(.0502 .0456 .0372 -.0854 248.5 186.4)" width="8.1" height="8.1" xlink:href="#c"/><use transform="matrix(.0636 .0157 .0066 -.1138 249.62 187.11)" width="8.1" height="8.1" xlink:href="#c"/><use transform="matrix(.0504 .0125 .0053 -.0902 249.53 186.17)" width="8.1" height="8.1" xlink:href="#c"/><use transform="matrix(.0437 .0108 .0045 -.0782 250.03 185.67)" width="8.1" height="8.1" xlink:href="#c"/><use transform="matrix(.0444 .0637 .0554 -.0726 246.88 185.19)" width="8.1" height="8.1" xlink:href="#c"/><use transform="matrix(.0352 .0504 .0439 -.0575 247.12 184.48)" width="8.1" height="8.1" xlink:href="#c"/><use transform="matrix(.0305 .0437 .038 -.0499 247.85 184.6)" width="8.1" height="8.1" xlink:href="#c"/><use transform="matrix(.8411 -.0657 -.133 -1.1701 252.16 192.99)" width="2.1" height="9.9" xlink:href="#b"/><use transform="matrix(.5428 -.2605 -.2451 -.7771 254.11 189.25)" width="2.1" height="9.9" xlink:href="#b"/><use transform="matrix(.7408 .288 .1355 -.9957 249.48 190.78)" width="2.1" height="9.9" xlink:href="#b"/><use transform="matrix(.1252 -.0114 -.0276 -.2298 252.56 193.23)" width="8.1" height="8.1" xlink:href="#c"/><use transform="matrix(.0992 -.009 -.0219 -.1822 252.04 191.09)" width="8.1" height="8.1" xlink:href="#c"/><use transform="matrix(.086 -.0078 -.019 -.1578 252.68 189.84)" width="8.1" height="8.1" xlink:href="#c"/><use transform="matrix(.0798 -.0635 -.0718 -.154 254.44 189.27)" width="8.1" height="8.1" xlink:href="#c"/><use transform="matrix(.0632 -.0504 -.0569 -.122 253.73 188.19)" width="8.1" height="8.1" xlink:href="#c"/><use transform="matrix(.0548 -.0436 -.0493 -.1057 253.95 186.83)" width="8.1" height="8.1" xlink:href="#c"/><use transform="matrix(.0923 .0228 .0096 -.1654 250.16 190.42)" width="8.1" height="8.1" xlink:href="#c"/><use transform="matrix(.0732 .0181 .0076 -.1311 250.02 189.13)" width="8.1" height="8.1" xlink:href="#c"/><use transform="matrix(.0634 .0157 .0066 -.1136 250.82 188.41)" width="8.1" height="8.1" xlink:href="#c"/><use transform="matrix(.4942 -.5593 -.4584 -.7402 256.57 186.51)" width="2.1" height="9.9" xlink:href="#b"/><use transform="matrix(.2487 -.514 -.4005 -.396 256.58 182.71)" width="2.1" height="9.9" xlink:href="#b"/><use transform="matrix(.5467 -.2498 -.2377 -.7815 254.23 186.62)" width="2.1" height="9.9" xlink:href="#b"/><use transform="matrix(.0731 -.0844 -.091 -.1445 256.92 186.44)" width="8.1" height="8.1" xlink:href="#c"/><use transform="matrix(.0579 -.0669 -.0721 -.1145 255.94 185.31)" width="8.1" height="8.1" xlink:href="#c"/><use transform="matrix(.0502 -.0579 -.0625 -.0992 255.9 184)" width="8.1" height="8.1" xlink:href="#c"/><use transform="matrix(.0284 -.0933 -.0936 -.0643 256.78 182.51)" width="8.1" height="8.1" xlink:href="#c"/><use transform="matrix(.0225 -.0739 -.0742 -.051 256 182.21)" width="8.1" height="8.1" xlink:href="#c"/><use transform="matrix(.0195 -.0641 -.0643 -.0441 255.71 181.08)" width="8.1" height="8.1" xlink:href="#c"/><use transform="matrix(.0639 -.0403 -.0474 -.122 254.54 185.94)" width="8.1" height="8.1" xlink:href="#c"/><use transform="matrix(.0507 -.032 -.0375 -.0967 254 185.14)" width="8.1" height="8.1" xlink:href="#c"/><use transform="matrix(.0439 -.0277 -.0325 -.0838 254.28 184.14)" width="8.1" height="8.1" xlink:href="#c"/><use transform="matrix(.6379 .3907 .2208 -.8429 247.16 186.67)" width="2.1" height="9.9" xlink:href="#b"/><use transform="matrix(.4711 .1078 .0311 -.6408 249.65 185.27)" width="2.1" height="9.9" xlink:href="#b"/><use transform="matrix(.4676 .573 .3712 -.5889 245.81 183.87)" width="2.1" height="9.9" xlink:href="#b"/><use transform="matrix(.0954 .0571 .0423 -.1663 247.43 187.07)" width="8.1" height="8.1" xlink:href="#c"/><use transform="matrix(.0756 .0453 .0335 -.1319 247.56 185.38)" width="8.1" height="8.1" xlink:href="#c"/><use transform="matrix(.0655 .0392 .029 -.1142 248.43 184.91)" width="8.1" height="8.1" xlink:href="#c"/><use transform="matrix(.0761 -.0008 -.011 -.1389 249.89 185.41)" width="8.1" height="8.1" xlink:href="#c"/><use transform="matrix(.0603 -.0007 -.0087 -.1101 249.64 184.3)" width="8.1" height="8.1" xlink:href="#c"/><use transform="matrix(.0523 -.0006 -.0075 -.0954 250.18 183.59)" width="8.1" height="8.1" xlink:href="#c"/><use transform="matrix(.0619 .0628 .0522 -.1045 246.39 183.97)" width="8.1" height="8.1" xlink:href="#c"/><use transform="matrix(.049 .0497 .0414 -.0828 246.58 183.04)" width="8.1" height="8.1" xlink:href="#c"/><use transform="matrix(.0425 .0431 .0358 -.0717 247.45 182.94)" width="8.1" height="8.1" xlink:href="#c"/><use transform="matrix(.9623 -.3398 -.3454 -1.3655 253.76 191.66)" width="2.1" height="9.9" xlink:href="#b"/><use transform="matrix(.5853 -.4815 -.4108 -.8584 255.43 186.6)" width="2.1" height="9.9" xlink:href="#b"/><use transform="matrix(.9043 .1165 -.0063 -1.2391 250.38 189.88)" width="2.1" height="9.9" xlink:href="#b"/><use transform="matrix(.143 -.0525 -.0696 -.2678 254.38 191.83)" width="8.1" height="8.1" xlink:href="#c"/><use transform="matrix(.1133 -.0416 -.0552 -.2122 253.37 189.46)" width="8.1" height="8.1" xlink:href="#c"/><use transform="matrix(.0982 -.036 -.0478 -.1839 253.94 187.74)" width="8.1" height="8.1" xlink:href="#c"/><use transform="matrix(.0819 -.1011 -.1083 -.1628 255.89 186.46)" width="8.1" height="8.1" xlink:href="#c"/><use transform="matrix(.0649 -.0802 -.0858 -.1291 254.8 185.37)" width="8.1" height="8.1" xlink:href="#c"/><use transform="matrix(.0563 -.0694 -.0743 -.1118 254.9 183.75)" width="8.1" height="8.1" xlink:href="#c"/><use transform="matrix(.1106 -.0012 -.0159 -.2018 251.06 189.22)" width="8.1" height="8.1" xlink:href="#c"/><use transform="matrix(.0876 -.001 -.0126 -.16 250.7 187.7)" width="8.1" height="8.1" xlink:href="#c"/><use transform="matrix(.076 -.0009 -.0109 -.1386 251.49 186.56)" width="8.1" height="8.1" xlink:href="#c"/><use transform="matrix(.3144 -.247 -.2241 -.4643 256.21 207.65)" width="2.1" height="9.9" xlink:href="#b"/><use transform="matrix(.1707 -.2524 -.2093 -.2676 256.39 205.57)" width="2.1" height="9.9" xlink:href="#b"/><use transform="matrix(.328 -.0701 -.0949 -.4598 254.87 207.38)" width="2.1" height="9.9" xlink:href="#b"/><use transform="matrix(.0466 -.0374 -.0446 -.0908 256.38 207.62)" width="8.1" height="8.1" xlink:href="#c"/><use transform="matrix(.0369 -.0297 -.0354 -.072 255.89 206.89)" width="8.1" height="8.1" xlink:href="#c"/><use transform="matrix(.032 -.0257 -.0306 -.0624 255.97 206.15)" width="8.1" height="8.1" xlink:href="#c"/><use transform="matrix(.0214 -.0479 -.0504 -.047 256.55 205.49)" width="8.1" height="8.1" xlink:href="#c"/><use transform="matrix(.0169 -.0379 -.04 -.0372 256.06 205.2)" width="8.1" height="8.1" xlink:href="#c"/><use transform="matrix(.0147 -.0329 -.0346 -.0322 255.99 204.58)" width="8.1" height="8.1" xlink:href="#c"/><use transform="matrix(.039 -.0143 -.0207 -.073 255.03 207.1)" width="8.1" height="8.1" xlink:href="#c"/><use transform="matrix(.0309 -.0114 -.0164 -.0579 254.82 206.58)" width="8.1" height="8.1" xlink:href="#c"/><use transform="matrix(.0267 -.0098 -.0142 -.0501 255.01 206.05)" width="8.1" height="8.1" xlink:href="#c"/><use transform="matrix(.3461 .2939 .1722 -.437 250.75 206.61)" width="2.1" height="9.9" xlink:href="#b"/><use transform="matrix(.2653 .1175 .0522 -.3491 252.24 206.13)" width="2.1" height="9.9" xlink:href="#b"/><use transform="matrix(.2384 .3733 .2452 -.2785 250.09 204.93)" width="2.1" height="9.9" xlink:href="#b"/><use transform="matrix(.0518 .0432 .0332 -.0864 250.87 206.9)" width="8.1" height="8.1" xlink:href="#c"/><use transform="matrix(.0411 .0343 .0263 -.0685 251.04 205.98)" width="8.1" height="8.1" xlink:href="#c"/><use transform="matrix(.0356 .0297 .0228 -.0593 251.56 205.79)" width="8.1" height="8.1" xlink:href="#c"/><use transform="matrix(.0439 .0089 .0011 -.0779 252.35 206.27)" width="8.1" height="8.1" xlink:href="#c"/><use transform="matrix(.0348 .0071 .0009 -.0617 252.3 205.65)" width="8.1" height="8.1" xlink:href="#c"/><use transform="matrix(.0301 .0061 .0008 -.0535 252.65 205.27)" width="8.1" height="8.1" xlink:href="#c"/><use transform="matrix(.0322 .0422 .0356 -.0511 250.46 205.06)" width="8.1" height="8.1" xlink:href="#c"/><use transform="matrix(.0256 .0334 .0282 -.0405 250.59 204.56)" width="8.1" height="8.1" xlink:href="#c"/><use transform="matrix(.0221 .029 .0245 -.0351 251.1 204.59)" width="8.1" height="8.1" xlink:href="#c"/><use transform="matrix(.572 -.0683 -.1256 -.7948 254.32 210.28)" width="2.1" height="9.9" xlink:href="#b"/><use transform="matrix(.3626 -.1929 -.1904 -.5235 255.54 207.64)" width="2.1" height="9.9" xlink:href="#b"/><use transform="matrix(.5141 .1758 .0628 -.6832 252.44 208.78)" width="2.1" height="9.9" xlink:href="#b"/><use transform="matrix(.0851 -.0113 -.0257 -.1561 254.65 210.38)" width="8.1" height="8.1" xlink:href="#c"/><use transform="matrix(.0675 -.0089 -.0204 -.1237 254.18 208.95)" width="8.1" height="8.1" xlink:href="#c"/><use transform="matrix(.0584 -.0077 -.0177 -.1072 254.62 208.08)" width="8.1" height="8.1" xlink:href="#c"/><use transform="matrix(.0526 -.0456 -.0536 -.1031 255.77 207.62)" width="8.1" height="8.1" xlink:href="#c"/><use transform="matrix(.0417 -.0361 -.0425 -.0817 255.22 206.88)" width="8.1" height="8.1" xlink:href="#c"/><use transform="matrix(.0361 -.0313 -.0368 -.0708 255.35 206.04)" width="8.1" height="8.1" xlink:href="#c"/><use transform="matrix(.0637 .013 .0016 -.1131 252.89 208.56)" width="8.1" height="8.1" xlink:href="#c"/><use transform="matrix(.0505 .0103 .0013 -.0897 252.69 207.66)" width="8.1" height="8.1" xlink:href="#c"/><use transform="matrix(.0438 .0089 .0011 -.0777 253.25 207.16)" width="8.1" height="8.1" xlink:href="#c"/><use transform="matrix(.3206 -.3955 -.3349 -.4923 257.11 205.69)" width="2.1" height="9.9" xlink:href="#b"/><use transform="matrix(.1544 -.3577 -.2851 -.259 257.06 203.08)" width="2.1" height="9.9" xlink:href="#b"/><use transform="matrix(.3657 -.1858 -.1855 -.5267 255.57 205.81)" width="2.1" height="9.9" xlink:href="#b"/><use transform="matrix(.0473 -.0596 -.0664 -.0961 257.37 205.59)" width="8.1" height="8.1" xlink:href="#c"/><use transform="matrix(.0375 -.0473 -.0526 -.0761 256.61 204.86)" width="8.1" height="8.1" xlink:href="#c"/><use transform="matrix(.0325 -.0409 -.0456 -.066 256.58 203.97)" width="8.1" height="8.1" xlink:href="#c"/><use transform="matrix(.0166 -.0645 -.0658 -.0413 257.17 202.92)" width="8.1" height="8.1" xlink:href="#c"/><use transform="matrix(.0132 -.0511 -.0521 -.0327 256.61 202.73)" width="8.1" height="8.1" xlink:href="#c"/><use transform="matrix(.0114 -.0443 -.0452 -.0283 256.38 202.01)" width="8.1" height="8.1" xlink:href="#c"/><use transform="matrix(.0424 -.0293 -.036 -.0819 255.7 205.33)" width="8.1" height="8.1" xlink:href="#c"/><use transform="matrix(.0336 -.0232 -.0285 -.0649 255.32 204.81)" width="8.1" height="8.1" xlink:href="#c"/><use transform="matrix(.0291 -.0201 -.0247 -.0562 255.5 204.13)" width="8.1" height="8.1" xlink:href="#c"/><use transform="matrix(.4469 .2488 .1256 -.5814 250.73 206.08)" width="2.1" height="9.9" xlink:href="#b"/><use transform="matrix(.3247 .0604 .0022 -.4381 252.39 205.02)" width="2.1" height="9.9" xlink:href="#b"/><use transform="matrix(.3362 .3779 .2357 -.4123 249.78 204.19)" width="2.1" height="9.9" xlink:href="#b"/><use transform="matrix(.0668 .0363 .0239 -.1147 250.9 206.31)" width="8.1" height="8.1" xlink:href="#c"/><use transform="matrix(.0529 .0288 .0189 -.0909 251.02 205.17)" width="8.1" height="8.1" xlink:href="#c"/><use transform="matrix(.0459 .0249 .0164 -.0788 251.58 204.82)" width="8.1" height="8.1" xlink:href="#c"/><use transform="matrix(.0519 -.0027 -.0116 -.0945 252.6 205.13)" width="8.1" height="8.1" xlink:href="#c"/><use transform="matrix(.0412 -.0022 -.0092 -.0749 252.34 204.35)" width="8.1" height="8.1" xlink:href="#c"/><use transform="matrix(.0357 -.0019 -.008 -.0649 252.73 203.86)" width="8.1" height="8.1" xlink:href="#c"/><use transform="matrix(.0441 .0411 .0325 -.0728 250.12 204.19)" width="8.1" height="8.1" xlink:href="#c"/><use transform="matrix(.0349 .0326 .0258 -.0577 250.3 203.58)" width="8.1" height="8.1" xlink:href="#c"/><use transform="matrix(.0303 .0282 .0223 -.05 250.81 203.5)" width="8.1" height="8.1" xlink:href="#c"/><use transform="matrix(.6466 -.2588 -.2764 -.9222 255.37 209.26)" width="2.1" height="9.9" xlink:href="#b"/><use transform="matrix(.3851 -.345 -.3059 -.5743 256.41 205.74)" width="2.1" height="9.9" xlink:href="#b"/><use transform="matrix(.6206 .0542 -.0412 -.8454 253.05 208.13)" width="2.1" height="9.9" xlink:href="#b"/><use transform="matrix(.096 -.0398 -.0555 -.1808 255.77 209.33)" width="8.1" height="8.1" xlink:href="#c"/><use transform="matrix(.0761 -.0316 -.044 -.1433 255.08 207.78)" width="8.1" height="8.1" xlink:href="#c"/><use transform="matrix(.0659 -.0273 -.0381 -.1241 255.35 206.55)" width="8.1" height="8.1" xlink:href="#c"/><use transform="matrix(.0529 -.0713 -.0787 -.1081 256.67 205.64)" width="8.1" height="8.1" xlink:href="#c"/><use transform="matrix(.0419 -.0565 -.0624 -.0857 255.9 204.95)" width="8.1" height="8.1" xlink:href="#c"/><use transform="matrix(.0363 -.049 -.0541 -.0742 255.92 203.8)" width="8.1" height="8.1" xlink:href="#c"/><use transform="matrix(.0754 -.0039 -.0169 -.1373 253.47 207.66)" width="8.1" height="8.1" xlink:href="#c"/><use transform="matrix(.0598 -.0031 -.0134 -.1088 253.1 206.64)" width="8.1" height="8.1" xlink:href="#c"/><use transform="matrix(.0518 -.0027 -.0116 -.0943 253.7 205.83)" width="8.1" height="8.1" xlink:href="#c"/></g><defs><g id="a"><path d="m245.5 206.9.1-1.35q.1-2.4.75-8l.65-8.05q.15-4.5-.55-8.15 5.45-1.2 8.85-4 1.05 1.3 1.4 2.85l.05.15v.1l.35 7.5v.25q.15 4.65.6 8.3v.15q.55 7.8 3.65 11.95l1.25.95-.05.05h-1.85v-.1q-4.05-3.4-4.75-8.05-.6 4.85 1.35 8.65l-.1.05-.2.35-.05.45-.05.25q-.2 1.05-1.1 1.35l-1.6.2h-.1q-2.65-4.9-2.7-16.95-2.85 9.55-1.8 17.4l-.25.15-.7.35q-2.8-2.95-3.15-6.8" fill="#760101" fill-rule="evenodd" transform="translate(-245.45 -177.35)"/><path d="M257.35 210.05v.05h-.05l.05-.05" fill="#43487e" fill-rule="evenodd" transform="translate(-245.45 -177.35)"/><path d="m260 209.55-2.6.5h-.05l-.05.05q-1.95-3.8-1.35-8.65.7 4.65 4.75 8.05l-.7.05m-5.9 3.2h-1.6q-1.9-.05-2.9.45-1.05-7.85 1.8-17.4.05 12.05 2.7 16.95" fill="#300" fill-rule="evenodd" transform="translate(-245.45 -177.35)"/><path d="m262.6 209.55.1.1-.15-.05.05-.05m-1.9.05-.7-.05.7-.05v.1m-3.4.5-.1.05.1-.05m-11.8-3.2v-.55.55" fill="#555ba0" fill-rule="evenodd" transform="translate(-245.45 -177.35)"/><path d="m248.65 213.7.75.75q-2.55.2-3.95-1l.05-6.55q.35 3.85 3.15 6.8" fill="#fe8181" fill-rule="evenodd" transform="translate(-245.45 -177.35)"/><path d="m.05 29.55.1-1.35q.1-2.4.75-8l.65-8.05Q1.7 7.65 1 4q5.45-1.2 8.85-4 1.05 1.3 1.4 2.85l.05.15v.1l.35 7.5v.25q.15 4.65.6 8.3v.15q.55 7.8 3.65 11.95l1.25.95.1.1-.15-.05h-1.85l-.7-.05-2.6.5m-.05 0v.05h-.05l-.1.05-.2.35-.05.45-.05.25q-.2 1.05-1.1 1.35l-1.6.2h-1.7q-1.9-.05-2.9.45L3.9 36l-.7.35.75.75q-2.55.2-3.95-1l.05-6.55q.35 3.85 3.15 6.8" fill="none" stroke="#0f121c" stroke-linecap="round" stroke-linejoin="round" stroke-width=".05"/></g><g id="b" fill-rule="evenodd"><path d="M1.05-4.95q.45 0 .75 1.45L2.1 0l-.3 3.5q-.3 1.45-.75 1.45T.3 3.5 0 0t.3-3.5.75-1.45" fill="#fc4103" transform="translate(0 4.95)"/><path d="M1.6 3.75q-.2.9-.5.9t-.5-.9Q.45 2.8.45 1.5.45.15.6-.75q.2-.95.5-.95t.5.95l.2 2.25-.2 2.25" fill="#e52905" transform="translate(0 4.95)"/></g><radialGradient id="d" cx="0" cy="0" r="819.2" gradientTransform="translate(4.05) scale(.0051)" gradientUnits="userSpaceOnUse"><stop stop-color="#fe6868" offset="0"/><stop stop-color="#fe6868" stop-opacity="0" offset="1"/></radialGradient><path d="M4.05-4.05q1.7 0 2.85 1.15Q8.1-1.7 8.1 0T6.9 2.85q-1.15 1.2-2.85 1.2t-2.9-1.2Q0 1.7 0 0t1.15-2.9q1.2-1.15 2.9-1.15" fill="url(#d)" fill-rule="evenodd" transform="translate(0 4.05)" id="c"/></defs></svg>