<svg viewBox="0 0 76.525 164.77" xmlns="http://www.w3.org/2000/svg" xmlns:xlink="http://www.w3.org/1999/xlink"><use transform="translate(0 .025)" width="76.5" height="164.7" xlink:href="#a"/><defs><g id="a"><path d="m324.3 114.45.15 4.15.15 1.15.1 3.7-3.65.1-9.3.3q-.15-3.65-.15-7.3l-.35 5.15-.15 2.15-31.35.95.05-7.5q15.95 1.65 31.9-2.05h.05l12.55-.8m.45 9.95q.75 17.8 2.35 32.15v.6q2.5 34.8 16.4 53.2l5.4 4.2-.15.2-8.2-.1v-.3l-3.2-2.9-.55-1.15.3.9-.65-.65q-14.35-13.85-17-32.1l-.55 5q-6.25-29.55-7.15-58.65l9.25-.3q-1.75 22.25 2.2 43.8l.6 2.85-.6-2.85q-3.95-21.55-2.2-43.8l3.75-.1m-.3 93.7-.3.55-.35 2.15q-4.65-7.35-8.4-14.55-12.55-23.55-16.15-46.4l-.1-6.5-.5 1.8-2.25 8.45q-1.25-7.05-1.85-14.1l1.05 17.1q-1.85 7.9-3.1 15.55-3.4-26.95-3.45-54.3-.8 30.6 2.45 61.3-1.95 15.4-1.25 29.65l-.05.05q-8.65-15.25-8.8-32.45-.25 21.7 9.55 41.5l.3 2.75v.15q-.55.25-1.05.6l-.7.5 3.05-.2-3.1.65-2.5.5q-12.35-13.05-13.9-30.15l.35-5.9q.55-10.7 3.35-35.5 2.55-22.75 3-35.55l31.3-.95-.25 4.6q-.9 23.55 1.05 47.15-3.3-11.45-4.8-17.95.75 9.95 5.4 25.65 4.3 14.35 11.8 33.45l.2.4M279.8 116.85l-.15-6.25q22.2 1.9 44.25-4.9l.35 8.3-12.5.8.35-5-.35 5q-16 3.7-31.95 2.05m-.25-7.85-.9-10.65q22.55 5.55 45.1 3.4l.15 3.95q-22.2 6-44.35 3.3m-1-11.35-.75-5 16.05 2 .2-.05v.1l2.25.15q13.9.8 27.1-1.1l.3 7.3q-22.6 2.2-45.15-3.4M277.7 92l-.5-2.8q6.35-1.4 12.05-3.2l2.25-.75q4.6-1.6 8.8-3.55 9.9.95 18.65-4.3l1.15-.6q1.8 3.3 2.65 6.95-11.7 7.2-29.05 10.35-7.9-.6-16-2.1m23.75-10.85q8.4-4.1 15.05-9.55 2.1 2.45 3.6 5.2l-1.15.6q-8.3 4.45-17.5 3.75m21.4 3.15.05.6.15.35.3 7.85q-13.3 2-27.4 1.15 15.95-3.15 26.9-9.95m-28.8 10.4-.2-.05.2.05m17.55 21.85.1-1.3-.1 1.3m9.65 4.75-.2 2.25.2-2.25m-39.85 65.1.05-2.3.05-1.35.15-2.05q.15-3.1.65-6.25-.5 3.15-.65 6.25l-.15 2.05-.05 1.35-.05 2.3m42.4-15.25q1.45 21.15 13 39.15-8.95-19.25-13-39.15" fill="#f1f3f2" fill-rule="evenodd" transform="translate(-272.95 -71.6)"/><path d="m324.25 114 .05.45-12.55.8h-.05l.05-.45-.05.45q-15.95 3.7-31.9 2.05v-.45q15.95 1.65 31.95-2.05l12.5-.8m.45 9.45.05.95-3.75.1-9.25.3v-.95l9.3-.3-.05.95.05-.95 3.65-.1m12.65 91.1-9.55 1.9q-5.35-16.6-8.9-33l.55-5q2.65 18.25 17 32.1l.9.9 1.4 3.05-1.4-3.05 3.2 2.9-1.8.15h-.55l-.85.05m-9.8 1.9-1.75.3h-.1l-.35.15-.3.2-.6 1-.2-.4q-7.9-25.3-12.4-41.15-1.95-23.6-1.05-47.15 1.4 29 8 57 3.6 15.15 8.75 30.05m-3.75 4.35-.15 1.1q-.7 4.15-4.3 5.65l-.2-.3q-12.55-22.95-18.85-46.1-2.4-8.75-3.9-17.55l2.25-8.45.5-1.8.1 6.5q3.6 22.85 16.15 46.4 3.75 7.2 8.4 14.55m-28.2-54.2q2.2 13.35 5.9 26.35 5.1 18.15 13.1 35.6l-2.9.1h-10.8q-5.45-23.1-8.4-46.5 1.25-7.65 3.1-15.55m-4.1 22.55q2.05 19.9 5.85 39.85l-2.7.5-4.4-10.7q-.7-14.25 1.25-29.65m-11.75-63.4v-.95l31.35-.95-.05.95-31.3.95m-.1-15.15-.05-.9-.05-.7q22.15 2.7 44.35-3.3-22.05 6.8-44.25 4.9m-1-12.25-.1-.7q22.55 5.6 45.15 3.4l.05.7q-22.55 2.15-45.1-3.4m-.85-5.7-.1-.65q8.1 1.5 16 2.1 17.35-3.15 29.05-10.35l.05.35.05.2q-10.95 6.8-26.9 9.95 14.1.85 27.4-1.15l.05.6v.05q-13.2 1.9-27.1 1.1l-2.25-.15v-.1l-.2.05-16.05-2m22.5-10.95 1.15-.55q9.2.7 17.5-3.75-8.75 5.25-18.65 4.3" fill="#d1d8d6" fill-rule="evenodd" transform="translate(-272.95 -71.6)"/><path d="m348.9 214.55.3.2.15.15h-.15l-.45-.15.15-.2m-10.15 0h-1.4l.85-.05h.55v.05m-13.3 2.35-.4.2.3-.2h.1m-52.4-10.5-.1-5.85.1 2.15v3.7m65.15 8.15v-.05.05" fill="#555ba0" fill-rule="evenodd" transform="translate(-272.95 -71.6)"/><path d="m325.7 216.75-.15.15h-.2l.35-.15" fill="#43487e" fill-rule="evenodd" transform="translate(-272.95 -71.6)"/><path d="M319.35 227.55h-.1l-.1-.3.2.3m-29.1-8.75v.15l-.05-.1.05-.05m47.1-7.35-.25-.25-.3-.9.55 1.15" fill="#d9d2c4" fill-rule="evenodd" transform="translate(-272.95 -71.6)"/><path d="m290.95 227.9 1.25 2.5q-.5.15-.95.4v-.15l-.3-2.75" fill="#bcb098" fill-rule="evenodd" transform="translate(-272.95 -71.6)"/><path d="m290 235.85.05.05.15.1.2.2h-.35v-.05l-.05-.3m.05.05v.25-.25" fill="#fff" fill-rule="evenodd" transform="translate(-272.95 -71.6)"/><path d="m286.95 232.85 3.05 3 .05.3v.05q-10.95.85-17-4.1v-29.4q1.55 17.1 13.9 30.15" fill="#bbc4bf" fill-rule="evenodd" transform="translate(-272.95 -71.6)"/><path d="m51.3 42.4.05.45.15 4.15.15 1.15.1 3.7.05.95q.75 17.8 2.35 32.15v.6q2.5 34.8 16.4 53.2l5.4 4.2.3.2.25.15h-.25l-.45-.15-8.2-.1-1.8-.1h-1.4l-9.55 1.9h-.25l-1.75.3m-.1 0-.15.15h-.1m-.4.2-.6 1-.3.55-.35 2.15-.15 1.1q-.7 4.15-4.3 5.65h-.1l-.1-.3q-12.55-22.95-18.85-46.1-2.4-8.75-3.9-17.55m-.8 3q2.2 13.35 5.9 26.35 5.1 18.15 13.1 35.6l-2.9.1h-10.8q-5.45-23.1-8.4-46.5-3.4-26.95-3.45-54.3m2.45 61.3q2.05 19.9 5.85 39.85l-2.7.5-4.4-10.7m0 .15-.05-.1Q8.6 132 8.45 114.8 8.2 136.5 18 156.3m1.25 2.5.05-.05.05.2-.1-.15q-.5.15-.95.4m1.3.9.35-.05-.3.4-.05-.35m-5.6 1.15 3.05 3 .05.05.15.1.2.2h-.35q-10.95.85-17-4.1v-25.7m0-3.7.35-5.9Q1 114.5 3.8 89.7q2.55-22.75 3-35.55v-.95l.05-7.5v-.45L6.7 39l-.05-.9-.05-.7-.9-10.65-.1-.7-.75-5-.1-.65-.5-2.8q6.35-1.4 12.05-3.2l2.25-.75q4.6-1.6 8.8-3.55l1.15-.55Q36.9 5.45 43.55 0q2.1 2.45 3.6 5.2 1.8 3.3 2.65 6.95l.05.35.05.2.05.6.15.35.3 7.85.05.6m0 .05.3 7.3.05.7.15 3.95.35 8.3-12.5.8-.05.45-.1 1.3-.35 5.15-.15 2.15-.05.95h.7v-.95q-.15-3.65-.15-7.3M52.4 145.3l-.3.2m-.8.6.2.4m14.3-3.6v.05m-19.85-31.1q3.55 16.4 8.9 33m10.4-1.95v.05m.55-.05-1.4-3.05-.55-1.15.3.9M46 5.8l1.15-.6M46 5.8q-8.3 4.45-17.5 3.75M4.75 20.4q8.1 1.5 16 2.1Q38.1 19.35 49.8 12.15M23 22.65q14.1.85 27.4-1.15m-2.3 30.45.2-2.25m-9.15-11.5-.35 5q-16 3.7-31.95 2.05M38.1 53.2l-.25 4.6q1.4 29 8 57 3.6 15.15 8.75 30.05M48.05 52.9l.05-.95m-38.75 50.9q-.5 3.15-.65 6.25l-.15 2.05-.05 1.35-.05 2.3m42.4-15.25-.6-2.85q-3.95-21.55-2.2-43.8m-9.15 52.05Q35.6 93.5 34.1 87q.75 9.95 5.4 25.65Q43.8 127 51.3 146.1q-7.9-25.3-12.4-41.15-1.95-23.6-1.05-47.15m.95-4.6q.9 29.1 7.15 58.65m5-77.75q-22.2 6-44.35 3.3m-1-11.35q22.55 5.6 45.15 3.4m.1 119.75q-4.65-7.35-8.4-14.55Q29.9 111.1 26.3 88.25m-9.2 76.35v-.05l-.05-.3m.05.3v-.25m29.3-8.35-.2-.3M.1 131.1v3.7M14 161.25Q1.65 148.2.1 131.1m50.75-31.55q1.45 21.15 13 39.15" fill="none" stroke="#7b6b53" stroke-linecap="round" stroke-linejoin="round" stroke-opacity=".502" stroke-width=".05"/><path d="M50.45 22.1v.05m-11.7 21.5h.05m-17.9-20.6.2.05m17.7 29.15 9.3-.3 3.65-.1M6.8 53.2l31.35-.95" fill="none" stroke="#7b6b53" stroke-linecap="round" stroke-linejoin="round" stroke-opacity=".502" stroke-width=".05"/></g></defs></svg>