<svg viewBox="0 0 71.9 158.24" xmlns="http://www.w3.org/2000/svg" xmlns:xlink="http://www.w3.org/1999/xlink"><use transform="translate(.03 .03)" width="71.85" height="158.2" xlink:href="#a"/><defs><g id="a"><path d="m284.65 181.95.9 21.2 8.85 48.25 6.3 20.45q-2.4 1-5.6 1.9-6.2-5.15-9.5-20.15v8.05l-5.1-9.5q.4 10.8 6.6 21.55-5.95-.85-7.75-4.7-9-25.95-9.9-57.2-.7-14.85.3-30.05l14.9.2m-18.5-.2-.7 5.85q-4.55 44.55.8 79.85l.7 4.45.65 4.45q-1.2 4.15-6.55 2.9l-1.9-.65-.3-12.15-3.1 10.8q-5.4-2.5-9.8-6.2l4.45-22.55-6.2 11q4.55-9.4 6.85-23.5l.4-2.4 6.2-53.85 8.5 2m-11.05-4.4q-3.55 42.5-12.45 77.85l-3.6-5.25q2.3-9.45 4.25-19.8 1.8 2.1 2.95-5.25 1.45-9.05-.5-9 3.1-19.75 5.1-42.5l4.25 3.95m19.5 29.7q-2.2-1.5 0 8.8v4.75q4.95 4.45 2.2-9.15l-2.2-4.4m-17.95 52.45 1.45-7.7-1.1-7-1.8 7.35q-.6 9.6 1.45 7.35m29.7-22 2.95 4.75q0-10.65-2.95-13.95-3.1-1.05 0 9.2" fill="#d0cc95" fill-rule="evenodd" transform="translate(-239.05 -121.35)"/><path d="m293.3 176.1.1 2.5.05.3q2.5 44.4 12.05 79.65-9.55-35.25-12.05-79.65 4.7 43.45 17.45 75.45l-5.4 4.2 2.1 7.5-.6 1.35-7.8-11.2 5.45 13.55q-1.6 1.1-3.95 2.1l-6.3-20.45-8.85-48.25-.9-21.2 8.65-5.85m-23.55 5.65q-1 15.2-.3 30.05.9 31.25 9.9 57.2l-3.15-.55-3.95-10.05v10.35q-3 .75-5.3 3.15l-.7-4.45q-5.35-35.3-.8-79.85l.7-5.85h3.6m17.35 91.95q-6.2-10.75-6.6-21.55l5.1 9.5v-8.05q3.3 15 9.5 20.15-4.65.45-8-.05m-29.45-93.95-6.2 53.85-.4 2.4q-2.3 14.1-6.85 23.5l6.2-11-4.45 22.55q-3.15-2.7-5.8-6.05l2.5-9.8q8.9-35.35 12.45-77.85l2.55 2.4m-1.9 97.5 3.1-10.8.3 12.15-3.4-1.35m.9-17.75q-2.05 2.25-1.45-7.35l1.8-7.35 1.1 7-1.45 7.7m17.95-52.45 2.2 4.4q2.75 13.6-2.2 9.15v-4.75q-2.2-10.3 0-8.8m11.75 30.45q-3.1-10.25 0-9.2 2.95 3.3 2.95 13.95l-2.95-4.75" fill="#b9b362" fill-rule="evenodd" transform="translate(-239.05 -121.35)"/><path d="m293.3 176.1-8.65 5.85-1.3-31.9 9.5 2 .45 24.05m-19.4-28q-3.1 17-4.15 33.65h-3.6l4.2-34.4 3.55.75m-16.65-3.5 4.35.9-3.95 34.25-2.55-2.4.8-11 1.35-21.75" fill="#a69f4a" fill-rule="evenodd" transform="translate(-239.05 -121.35)"/><path d="m283.35 150.05 1.3 31.9-14.9-.2q1.05-16.65 4.15-33.65l9.45 1.95m-21.75-4.55 8.75 1.85-4.2 34.4-8.5-2 3.95-34.25m-8.7-1.85 4.35.95-1.35 21.75-.8 11-4.25-3.95q1.25-14.3 2.05-29.75" fill="#c5bf7a" fill-rule="evenodd" transform="translate(-239.05 -121.35)"/><path d="m54.4 57.55-.05-.3-.1-2.5-.45-24.05-9.5-2-9.45-1.95m26.8 123.75q2.35-1 3.95-2.1m2.35-2.35.6-1.35-2.1-7.5Q56.9 101.95 54.4 57.55 59.1 101 71.85 133l-5.4 4.2M30.4 90.45q.9 31.25 9.9 57.2 1.8 3.85 7.75 4.7 3.35.5 8 .05 3.2-.9 5.6-1.9M26.4 66.25q-4.55 44.55.8 79.85l.7 4.45q2.3-2.4 5.3-3.15m3.95-.3 3.15.55M31.3 26l3.55.75m-12.3-2.6L31.3 26M6.9 149.7q4.4 3.7 9.8 6.2l3.4 1.35 1.9.65q5.35 1.25 6.55-2.9l-.65-4.45M13.85 22.3l4.35.95 4.35.9M16.05 56Q12.5 98.5 3.6 133.85l-2.5 9.8q2.65 3.35 5.8 6.05m6.95-127.4.05-1.15M16.05 56l.8-11m-5.05 7.05q1.25-14.3 2.05-29.75m-9.6 86.5Q2.3 119.15 0 128.6l3.6 5.25m3.1-39.3q3.1-19.75 5.1-42.5" fill="none" stroke="#000" stroke-linecap="round" stroke-linejoin="round" stroke-opacity=".4" stroke-width=".05"/><path d="m65.6 148.4-5.45-13.55 7.8 11.2M33.2 147.4v-10.35l3.95 10.05M6.7 94.55q1.95-.05.5 9-1.15 7.35-2.95 5.25" fill="none" stroke="#000" stroke-linecap="round" stroke-linejoin="round" stroke-opacity=".4" stroke-width=".05"/><path d="M291.25 129.65q4.3 4.5 6.1 10.05-1.5 19.5-15.2 27.05-16.3 7-29.1-4 6.55-4.2 4.5-4.8l-6 2.4-.95-1.9q3.1-.9 2-1.45l-3.2-.75-3.95-4.5-.15-1.15q10.75 10.25 29.5 6.95 4.85-1.2 8.6-3.7 1.1.95 2.55.95 1.75 0 3-1.45t1.3-3.45q-.05-1.35-.6-2.45 2.85-6.5 1.6-17.8m-8.35 23.6-.05.1-.1-.15.15.05" fill="#80838d" fill-rule="evenodd" transform="translate(-239.05 -121.35)"/><path d="M256 126.5q4.35-3.25 9.55-4.45l6.35-.7q3.35 0 6.35.7 7.05 1.65 12.5 7.1l.5.5q1.25 11.3-1.6 17.8l-.7-1-.95-.85q-.95-.6-2.05-.6-1.8 0-3.1 1.45-1.25 1.45-1.2 3.45-.05 1.9 1.1 3.3l.1.15.55.5q-3.75 2.5-8.6 3.7-18.75 3.3-29.5-6.95l-.1-2.55q0-9.45 5.7-16.55 5.9 2.55 11 7.45-2.95-5.3-9.35-9.4l.45-.4 1.4-1.35q6.75 5.45 11.05 12.15-2.55-7.7-9.45-13.45m12 7.25q-.15.5-.15 1.1 0 1.8 1.05 3.1 1.1 1.3 2.6 1.3t2.55-1.3q.95-1.1 1.1-2.55v-.55q0-1.8-1.1-3.1-1.05-1.3-2.55-1.3t-2.6 1.3q-.7.85-.9 2m-9.05 20.15.3-.3q1.2-1.2 1.2-2.9t-1.2-2.9-2.9-1.2q-1.25 0-2.25.7l-.65.5q-1.2 1.2-1.2 2.9t1.2 2.9 2.9 1.2q1.5 0 2.6-.9" fill="#a6a5ab" fill-rule="evenodd" transform="translate(-239.05 -121.35)"/><path d="M250.6 164.25q.05-2.15-1.9-2.8l2.85-1.1 6-2.4q2.05.6-4.5 4.8l-2.45 1.5m-3.05-5.05q1.05-2.2-1.35-3.7l6.4 1.5q1.1.55-2 1.45l-3.05.75m3.35-27.7q2.8.4 1.65-1.95 6.4 4.1 9.35 9.4-5.1-4.9-11-7.45m3.5-3.7q2.2.8 1.6-1.3 6.9 5.75 9.45 13.45-4.3-6.7-11.05-12.15m33.6 17.8.95.85.7 1q.55 1.1.6 2.45-.05 2-1.3 3.45t-3 1.45q-1.45 0-2.55-.95l-.55-.5.05-.1q3.75 1.1 5.1-1.35 1.85-3.15 0-6.3m-12.85-10.2q-.15 1.45-1.1 2.55-1.05 1.3-2.55 1.3t-2.6-1.3q-1.05-1.3-1.05-3.1 0-.6.15-1.1 1.2 4.1 3.15 4.4 3 .25 4-2.75m-16.2 18.5q-1.1.9-2.6.9-1.7 0-2.9-1.2t-1.2-2.9 1.2-2.9l.65-.5q-1.3 2.3 0 5.35 2.05 1.65 4.85 1.25" fill="#52525b" fill-rule="evenodd" transform="translate(-239.05 -121.35)"/><path d="M282.75 153.2q-1.15-1.4-1.1-3.3-.05-2 1.2-3.45 1.3-1.45 3.1-1.45 1.1 0 2.05.6 1.85 3.15 0 6.3-1.35 2.45-5.1 1.35l-.15-.05M268 133.75q.2-1.15.9-2 1.1-1.3 2.6-1.3t2.55 1.3q1.1 1.3 1.1 3.1v.55q-1 3-4 2.75-1.95-.3-3.15-4.4m-13.9 13.55q1-.7 2.25-.7 1.7 0 2.9 1.2t1.2 2.9-1.2 2.9l-.3.3q-2.8.4-4.85-1.25-1.3-3.05 0-5.35" fill-rule="evenodd" transform="translate(-239.05 -121.35)"/><path d="M297.35 139.7q1.25 3.9 1.25 8.35 0 11.05-7.85 18.85-7.8 7.85-18.85 7.85-11.1 0-18.9-7.85l-2.4-2.65 2.45-1.5q12.8 11 29.1 4 13.7-7.55 15.2-27.05m-48.65 21.75-1.15-2.25 3.05-.75.95 1.9-2.85 1.1m-2.5-5.95q-.55-1.85-.75-3.75l3.95 4.5-3.2-.75" fill="#777b86" fill-rule="evenodd" transform="translate(-239.05 -121.35)"/><path d="M16.95 5.15Q21.3 1.9 26.5.7l6.35-.7q3.35 0 6.35.7 7.05 1.65 12.5 7.1l.5.5q4.3 4.5 6.1 10.05 1.25 3.9 1.25 8.35 0 11.05-7.85 18.85-7.8 7.85-18.85 7.85-11.1 0-18.9-7.85l-2.4-2.65q.05-2.15-1.9-2.8L8.5 37.85q1.05-2.2-1.35-3.7-.55-1.85-.75-3.75l-.15-1.15-.1-2.55q0-9.45 5.7-16.55 2.8.4 1.65-1.95l.45-.4 1.4-1.35q2.2.8 1.6-1.3" fill="none" stroke="#000" stroke-linecap="round" stroke-linejoin="round" stroke-opacity=".4" stroke-width=".05"/><path d="M48.95 24.25q1.85 3.15 0 6.3-1.35 2.45-5.1 1.35l-.15-.05" fill="none" stroke="#000" stroke-linecap="round" stroke-linejoin="round" stroke-opacity=".4" stroke-width=".05"/><path d="m272.5 151.9-.4-.1.75-.35-.35.45m-5.2 10.85-.15.85q-.4-.1-1.15-.75l1.25-.8.05.7m-2.75-11.9-.55-.25.3-.85.2.45q.55.95 1.75 1l-.3.15q-.9-.5-1.4-.5m9.2-4.6-3 1.75-3.55-5.55 6.55 3.8m-23.8-8.95.65 1.25q.75 1.05.75 1.65 0 1.3-1.85 3.1-1.85 1.75-1.85 3.25 0 2.15 2.75 2.25v.05q-.6 1.6-.1 2.35l.65 1.05-.25.55q-3.2-.15-5 .6l-.25-1.65-.15-1.15-.1-2.55q0-4.3 1.2-8.1 2.2-2.3 3.55-2.65m40.3 26.35-.05-.85.2-.1.35 2.85.3 1.05-.3.3-1.65 1.55q1.15-3.9 1.15-4.8m-.1-10.25.8-.15 2.7 3.75 2.15 3.15-1.45 2.4-.9-3.65q-.55-1.65-2.4-4.25l-.9-1.25m-3.6 10.15v.15q-2.15 4.9-2.3 8.1-5.6 2.95-12.35 2.95-8.35 0-14.85-4.45l.4-.55q3.4-4.2 5.85-4.2l1.05.9q1.2.9 2.85.9 3.8 0 3.8-4.35 0-1.65-.8-3.45l-.85-1.85q0-1.7 1.6-2.05l.3 1.15.15.55.3 1.5q.4 2 1.7 3.2l3.1 3.15.05 1.75q.3 1.3 2.6 1.3 2.95 0 7.4-4.7m-6.55.3.1.05h-.05l-.05-.05m-1.1-7.7-.7 1.35-1.6.25q-1 0-1.45-.8l-.25-1.8.3-1q.6-1.4 1.85-1.4 2.6 0 2.6 1.9l.05.35-.8 1.15m5.65-4.25.5.95-1.35-.15-.65.05-.05-.3q.85-.1 1.55-.55m-1 4.65q.65 0 .65.65 0 .95-.75 1.55l-2.1 1.4-.2-.1q1.45-1.15 1.95-3.2.25-.3.45-.3m.15-20.05.25-.1 8.85 4.4 5.4 2.3q.4 2.35.4 4.95l-.2 3.7q-1.95-4.3-6.75-8.25l-5.45-4.15q-2.5-1.9-2.5-2.85" fill="#6ff" fill-opacity=".09" fill-rule="evenodd" transform="translate(-239.05 -121.35)"/></g></defs></svg>