<svg viewBox="0 0 93.9 239.8" xmlns="http://www.w3.org/2000/svg" xmlns:xlink="http://www.w3.org/1999/xlink"><use transform="translate(.02 .025)" width="93.85" height="239.75" xlink:href="#a"/><defs><g id="a"><path d="M4.9 47.85H3.6" fill="none" stroke="#000" stroke-linecap="round" stroke-linejoin="round" stroke-opacity=".4" stroke-width=".05"/><path d="m222.45 157.85 17 72.9q1.4 14.5.35 26.75l-14-56.5q.5-16.45-3.35-43.15m3.6 78.3-14.8 4.65q.45 20.55-3.3 41.05l-8.5-43.25 2.8 2.3 11.1-20.65q2.9 5.05 5.95 4.8 2.9-2.7 4.55-8.65l2.2 19.75m-36.5 20.4q-4-6.3-7.85-13.05l-7.7-36.65q.6-9.1.7-21.7v-2.1l6.2 38.15 8.65 35.35m-23.7 9.9q-5.7-8.95-9.55-22.25-4.45-42.25-5.4-85.75 6.1 59.6 15.4 69.75l-.45 38.25" fill="#ffd83c" fill-rule="evenodd" transform="translate(-146.4 -42.1)"/><path d="M211.45 121.35q.35 2.9 1.55 7.1 1.95 7 3.6 4.45l5.85 24.95q3.85 26.7 3.35 43.15l-6.75-27.3 4.8 42.7q-1.65 5.95-4.55 8.65-3.05.25-5.95-4.8l2.9-5.45-14.8-81 10-12.45m-60.55 37.1q-.55-22.2-.2-44.7l15.75 17.4 7.9 52 .35-.1v2.1q-.1 12.6-.7 21.7l-7.1-34.05-.6 55.4q-9.3-10.15-15.4-69.75m59.75-7.6q-3.95-11.55-2.55 0 2.2 11.9 2.55 7.45.35-4.55 0-7.45" fill="#bf0000" fill-rule="evenodd" transform="translate(-146.4 -42.1)"/><path d="M150.7 113.75q.1-11.9.55-23.8l55.1-1.05 6.15 26.5q-1.5 1.25-1.05 5.95l-10 12.45 14.8 81-2.9 5.45q-7.5-12.8-14.6-59.6 8.3 65.55.7 77.95-.95 1.4-2.1 2.1-4.55 3.5-9.7-12.15-6.15-18.45-13.05-63.35l.1 17.85-.35.1-7.9-52-15.75-17.4m73.15 102.65-4.8-42.7 6.75 27.3q-.35 9.35-1.95 15.4M174 206.85q-1.5 24.6-6.3 22.65l-1.4-1.3.6-55.4 7.1 34.05" fill="#900" fill-rule="evenodd" transform="translate(-146.4 -42.1)"/><path d="m239.8 257.5-.35 2.8q-4.4-12.05-13.4-24.15l-2.2-19.75q1.6-6.05 1.95-15.4l14 56.5m-31.85 24.35q-9.45-11.2-18.4-25.2v-.1l-8.65-35.35-6.2-38.15-.1-17.85q6.9 44.9 13.05 63.35 5.15 15.65 9.7 12.15 1.15-.7 2.1-2.1 7.6-12.4-.7-77.95 7.1 46.8 14.6 59.6l-11.1 20.65-2.8-2.3 8.5 43.25M181.7 243.5H171q-2.8 12.1-3.4 25.55l-1.75-2.6.45-38.25 1.4 1.3q4.8 1.95 6.3-22.65l7.7 36.65" fill="#fc0" fill-rule="evenodd" transform="translate(-146.4 -42.1)"/><path d="M65.05 79.25q.35 2.9 1.55 7.1 1.95 7 3.6 4.45l5.85 24.95 17 72.9q1.4 14.5.35 26.75l-.35 2.8q-4.4-12.05-13.4-24.15l-14.8 4.65q.45 20.55-3.3 41.05-9.45-11.2-18.4-25.2m0-.1q-4-6.3-7.85-13.05H24.6q-2.8 12.1-3.4 25.55l-1.75-2.6q-5.7-8.95-9.55-22.25-4.45-42.25-5.4-85.75-.55-22.2-.2-44.7.1-11.9.55-23.8l55.1-1.05 6.15 26.5q-1.5 1.25-1.05 5.95m1.9 98.9q2.9 5.05 5.95 4.8 2.9-2.7 4.55-8.65 1.6-6.05 1.95-15.4.5-16.45-3.35-43.15m-47.75 25.2-.1-17.85q6.9 44.9 13.05 63.35 5.15 15.65 9.7 12.15 1.15-.7 2.1-2.1 7.6-12.4-.7-77.95 7.1 46.8 14.6 59.6m-39.35-13.4q.6-9.1.7-21.7v-2.1m-.7 23.8q-1.5 24.6-6.3 22.65l-1.4-1.3M4.5 116.35q6.1 59.6 15.4 69.75" fill="none" stroke="#000" stroke-linecap="round" stroke-linejoin="round" stroke-opacity=".4" stroke-width=".05"/><path d="m167.25 107.2 30.9-.25 2.95 25.9-13.65 17.05-17.5-20.8-2.7-21.9" fill="#900" fill-rule="evenodd" transform="translate(-146.4 -42.1)"/><path d="m201.1 132.85 4.75 42.7-12.35 16.1-17.75-15.5-5.8-47.05 17.5 20.8 13.65-17.05" fill="#bf0000" fill-rule="evenodd" transform="translate(-146.4 -42.1)"/><path d="m205.85 175.55 2.35 20.65-11.3 24.25-18.2-20.15-2.95-24.15 17.75 15.5 12.35-16.1m-19.1 19.95q.7-.7.7-1.65 0-.9-.7-1.6t-1.65-.7-1.65.7-.7 1.6q0 .95.7 1.65t1.65.7 1.65-.7m16.2-3.4q-.6-.55-1.4-.55t-1.4.55q-.6.6-.6 1.4 0 .85.6 1.4.6.6 1.4.6t1.4-.6q.6-.55.6-1.4 0-.8-.6-1.4m-10.25 10.4q.7.7 1.6.7.95 0 1.55-.7.7-.6.7-1.5 0-.95-.7-1.65-.6-.6-1.55-.6-.9 0-1.6.6-.6.7-.6 1.65 0 .9.6 1.5" fill="#666" fill-rule="evenodd" transform="translate(-146.4 -42.1)"/><path d="M186.75 195.5q-.7.7-1.65.7t-1.65-.7-.7-1.65q0-.9.7-1.6t1.65-.7 1.65.7.7 1.6q0 .95-.7 1.65m5.95 7q-.6-.6-.6-1.5 0-.95.6-1.65.7-.6 1.6-.6.95 0 1.55.6.7.7.7 1.65 0 .9-.7 1.5-.6.7-1.55.7-.9 0-1.6-.7m10.25-10.4q.6.6.6 1.4 0 .85-.6 1.4-.6.6-1.4.6t-1.4-.6q-.6-.55-.6-1.4 0-.8.6-1.4.6-.55 1.4-.55t1.4.55" fill="#999" fill-rule="evenodd" transform="translate(-146.4 -42.1)"/><path d="m20.25 60.75.6 4.35 30.9-.25 2.95 25.9 4.75 42.7 2.35 20.65-11.3 24.25-18.2-20.15-2.95-24.15L23.55 87l-2.7-21.9m8.5 68.95 17.75 15.5 12.35-16.1" fill="none" stroke="#000" stroke-linecap="round" stroke-linejoin="round" stroke-opacity=".4" stroke-width=".05"/><path d="M179.9 96.95q2.45-5.75.8-17.3 5.95 24.4 8.75 20.2 5-8.85 2.7-37.55 5.35 28.2 10.7 27.5 3.85-15.25 1.3-46.3l8.05 52.4q-8.05 20.5-25.45 40.25l-6.85-39.2M146.4 42.1l10.15 45.75q4.2 5.7 6.05-24.3 4.8 28.7 9.6 35.7l-1.4 19.6q-11.55-13.4-21.5-28.35l-2.9-48.4" fill="#ffd83c" fill-rule="evenodd" transform="translate(-146.4 -42.1)"/><path d="M204.15 43.5q2.55 31.05-1.3 46.3-5.35.7-10.7-27.5 2.3 28.7-2.7 37.55-2.8 4.2-8.75-20.2 1.65 11.55-.8 17.3l-5.5-31.5-2.2 33.8q-4.8-7-9.6-35.7-1.85 30-6.05 24.3L146.4 42.1q26.15 10.05 57.75 1.4" fill="#bf0000" fill-rule="evenodd" transform="translate(-146.4 -42.1)"/><path d="m179.9 96.95 6.85 39.2q-8.4-8.3-15.95-17.3l1.4-19.6q2.1 3.05 4.2 1.9 2.3-1.4 3.5-4.2" fill="#fc0" fill-rule="evenodd" transform="translate(-146.4 -42.1)"/><path d="m172.2 99.25 2.2-33.8 5.5 31.5q-1.2 2.8-3.5 4.2-2.1 1.15-4.2-1.9" fill="#900" fill-rule="evenodd" transform="translate(-146.4 -42.1)"/><path d="M40.35 94.05Q57.75 74.3 65.8 53.8L57.75 1.4Q26.15 10.05 0 0m24.4 76.75q7.55 9 15.95 17.3M2.9 48.4q9.95 14.95 21.5 28.35M0 0l2.9 48.4" fill="none" stroke="#000" stroke-linecap="round" stroke-linejoin="round" stroke-opacity=".4" stroke-width=".05"/></g></defs></svg>