<svg viewBox="0 0 109.55 236.86" xmlns="http://www.w3.org/2000/svg" xmlns:xlink="http://www.w3.org/1999/xlink"><use transform="translate(.02 .02)" width="109.5" height="236.8" xlink:href="#a"/><defs><g id="a"><path d="M192.3 143.45q0 7.45.35 14.6 2.25 129.3 25.65 201.75-8.1 0-16.55-5.2-12.35-97.8-12.05-195.55 0-7.8-11.7-18.2l14.3 2.6m44.2 197.5q-8.8-23.7-11.4-52.95-1.95-23.4-3.55-46.75 8.1 59.45 24.05 93.85-4.9 2.3-9.1 5.85m26.3-13.3q-12-54.25-13.65-88.35 8.45 42.2 29.25 85.4-8.1.35-15.6 2.95" fill="#e8d397" fill-rule="evenodd" transform="translate(-178 -123)"/><path d="M192.3 143.45q37.35-1.95 28.9-20.45 24.4 7.15 25.35 14.3 11.7 105.55 40.95 187.75l-9.1-.35q-20.8-43.2-29.25-85.4 1.65 34.1 13.65 88.35-8.75 2.25-17.2 7.45-15.95-34.4-24.05-93.85 1.6 23.35 3.55 46.75 2.6 29.25 11.4 52.95l2.9 10.1q-10.05 9.1-21.1 8.75-23.4-72.45-25.65-201.75-.35-7.15-.35-14.6" fill="#f8eec7" fill-rule="evenodd" transform="translate(-178 -123)"/><path d="m100.4 201.7 9.1.35Q80.25 119.85 68.55 14.3 67.6 7.15 43.2 0q8.45 18.5-28.9 20.45L0 17.85q11.7 10.4 11.7 18.2-.3 97.75 12.05 195.55 8.45 5.2 16.55 5.2 11.05.35 21.1-8.75l-2.9-10.1q4.2-3.55 9.1-5.85 8.45-5.2 17.2-7.45m15.6-2.95q-8.1.35-15.6 2.95" fill="none" stroke="#5a401d" stroke-linecap="round" stroke-linejoin="round" stroke-opacity=".341" stroke-width=".05"/><path d="M199.8 178.55q10.4-.35 17.55 6.8 7.1 7.5 6.8 18.2.3 10.7-6.8 18.5-7.15 7.5-17.55 7.5-4.9 0-8.8-1.3l-1.3-47.45q4.55-2.25 10.1-2.25" fill="#fff" fill-rule="evenodd" transform="translate(-178 -123)"/><path d="M21.8 55.55q10.4-.35 17.55 6.8 7.1 7.5 6.8 18.2.3 10.7-6.8 18.5-7.15 7.5-17.55 7.5-4.9 0-8.8-1.3L11.7 57.8q4.55-2.25 10.1-2.25z" fill="none" stroke="#5a401d" stroke-linecap="round" stroke-linejoin="round" stroke-opacity=".341" stroke-width=".05"/><path d="M208.7 209.4q-2.3 2.35-5.4 2.35t-5.45-2.35q-2.3-1.55-2.3-4.65t2.3-4.65q2.35-2.3 5.45-2.3 3.1-.8 5.4 1.55 2.35 2.3 2.35 5.4 0 2.35-2.35 4.65" fill="#620000" fill-rule="evenodd" transform="translate(-178 -123)"/><path d="M251.1 169.45q3.6 22.1 6.85 44.15-4.25 2.95-9.45 3.25-8.1 0-13.95-6.8Q229 203.2 229 193.5q0-10.1 5.55-17.25 5.85-6.8 13.95-6.8 1.3-.35 2.6 0" fill="#fff" fill-rule="evenodd" transform="translate(-178 -123)"/><path d="M73.1 46.45q3.6 22.1 6.85 44.15-4.25 2.95-9.45 3.25-8.1 0-13.95-6.8Q51 80.2 51 70.5q0-10.1 5.55-17.25 5.85-6.8 13.95-6.8 1.3-.35 2.6 0z" fill="none" stroke="#5a401d" stroke-linecap="round" stroke-linejoin="round" stroke-opacity=".341" stroke-width=".05"/><path d="M253.4 197.5q-1.8 2.2-4.25 2.2t-4.3-2.2q-1.8-1.4-1.8-4.3 0-2.85 1.8-4.3 1.85-2.15 4.3-2.15 2.45-.75 4.25 1.45 1.85 2.15 1.85 5 0 2.15-1.85 4.3" fill="#620000" fill-rule="evenodd" transform="translate(-178 -123)"/><path d="M226.1 224.35q3.25-2.6 8.1-3.6l7.8-.3q3.25.65 3.6 2.6-.35 1.95-3.6 4.2-3.25 2.3-7.8 3.6l-8.1.3q-3.25-.65-3.25-2.6 0-2.25 3.25-4.2" fill="#f99" fill-rule="evenodd" transform="translate(-178 -123)"/><path d="M48.1 101.35q3.25-2.6 8.1-3.6l7.8-.3q3.25.65 3.6 2.6-.35 1.95-3.6 4.2-3.25 2.3-7.8 3.6l-8.1.3q-3.25-.65-3.25-2.6 0-2.25 3.25-4.2z" fill="none" stroke="#5a401d" stroke-linecap="round" stroke-linejoin="round" stroke-opacity=".341" stroke-width=".05"/><path d="M257.55 220.35q1.05 8.45-7.65 7.25 3.9-3.1 7.2-6.9l.2-.3.25-.05m-23.65 16.2q-2.7 9.05-12.2 3.6 6.45-1.35 12.2-3.6m-23.4 4.9q-5.8 6.75-12.2.5l2.75.1 9.45-.6" fill="#fff" fill-rule="evenodd" transform="translate(-178 -123)"/><path d="m80.75 95.85-1.2 1.5q1.05 8.45-7.65 7.25-7.05 5.55-16 8.95-2.7 9.05-12.2 3.6l-11.2 1.3q-5.8 6.75-12.2.5l-6.4-.3m65.65-21.3-.25.05-.2.3q-3.3 3.8-7.2 6.9m-39.4 13.85-9.45.6-2.75-.1m35.6-5.4q-5.75 2.25-12.2 3.6" fill="none" stroke="#5a401d" stroke-linecap="round" stroke-linejoin="round" stroke-opacity=".341" stroke-width=".05"/></g></defs></svg>