<svg viewBox="0 0 107.4 154.15" xmlns="http://www.w3.org/2000/svg" xmlns:xlink="http://www.w3.org/1999/xlink"><use width="107.4" height="154.15" xlink:href="#a"/><defs><linearGradient id="c" x1="-819.2" x2="819.2" gradientTransform="matrix(-.0172 -.0561 .0257 -.0079 -12.2 -14.25)" gradientUnits="userSpaceOnUse"><stop stop-color="#738136" offset="0"/><stop stop-color="#94a257" offset="1"/></linearGradient><linearGradient id="d" x1="-819.2" x2="819.2" gradientTransform="matrix(.0149 .0085 -.0079 .0139 -9.3 -22.9)" gradientUnits="userSpaceOnUse"><stop stop-color="#633195" offset="0"/><stop stop-color="#3a1d57" offset="1"/></linearGradient><linearGradient id="e" x1="-819.2" x2="819.2" gradientTransform="matrix(.0167 .0096 -.0055 .0096 -16.85 -7.75)" gradientUnits="userSpaceOnUse"><stop stop-color="#d6e2af" offset="0"/><stop stop-color="#aab776" offset="1"/></linearGradient><linearGradient id="f" x1="-819.2" x2="819.2" gradientTransform="matrix(.0169 .0045 -.0035 .013 -26.8 -69.1)" gradientUnits="userSpaceOnUse"><stop stop-color="#d6e2af" offset="0"/><stop stop-color="#aab776" offset="1"/></linearGradient><linearGradient id="g" x1="-819.2" x2="819.2" gradientTransform="matrix(.0089 .0089 -.0048 .0048 -30.85 -53.8)" gradientUnits="userSpaceOnUse"><stop stop-color="#d6e2af" offset="0"/><stop stop-color="#aab776" offset="1"/></linearGradient><linearGradient id="h" x1="-819.2" x2="819.2" gradientTransform="matrix(.0146 .0252 -.0298 .0172 -26.45 -48.75)" gradientUnits="userSpaceOnUse"><stop stop-color="#738136" offset="0"/><stop stop-color="#3d4224" offset="1"/></linearGradient><linearGradient id="i" x1="-819.2" x2="819.2" gradientTransform="matrix(.0058 .0215 -.0092 .0025 -17.7 31.75)" gradientUnits="userSpaceOnUse"><stop stop-color="#180c25" offset="0"/><stop stop-color="#3a1d57" offset="1"/></linearGradient><linearGradient id="j" x1="-819.2" x2="819.2" gradientTransform="matrix(.0144 .017 -.0263 .0224 -14.85 9.2)" gradientUnits="userSpaceOnUse"><stop stop-color="#633195" offset="0"/><stop stop-color="#3a1d57" offset="1"/></linearGradient><linearGradient id="k" x1="-819.2" x2="819.2" gradientTransform="matrix(.008 -.0046 .0075 .0131 29.05 49.7)" gradientUnits="userSpaceOnUse"><stop stop-color="#180c25" offset="0"/><stop stop-color="#3a1d57" offset="1"/></linearGradient><use width="107.4" height="154.15" xlink:href="#b" id="a"/><g id="b"><path d="m6.3-20.5-1.65 4.9-2.2 2.75h-3.4V-9l.45.35-7.55-.8v-.05l-3.05-3.4-2.3-1.15-1.1 1.35v1.3l-10.05-3-11.4-6.65-2.1-9.25-3.3-26.6q6.75 8.5 17 12.9l14.45 3.35q-17.05-5.15-24.05-14.8l-7.8-10.45 8.1 3.5 4.8 3.95q8 3.3 16.85 1.9l8.1-2.05q3.35 19.65 9 35.15l1.2 2.95m-35.45-46.45q6.4-1.9 10.1-6l1.55-2.7 1.95 2.75-1.75 3.55q-3.45 2.3-11.85 2.4m22-4.65q1.05 1.85 1.7 4.25-2.1 4.05-6.85 4.55-16 2.15-26.2-3.6l9.65 1.8h12.1l6.85-3.35 2.75-3.65M-34.9-16.25-26-6.4l-2.05.75h-4.5l-2.35-10.6M-21.05-1.3-8.9 7.35l2.2 1-1.45 1.15 1.1 2.05L-10 13.1h-2.75v-2.75h-2.4l-2.3 2.95v1.85l-3.4 1.1-1.3-2.95v-9l1.1-4.05V-1.3M7.6 19.65 9 21.4v2.75h2.65l1.4-.9-2.3-3.6 2.3-2.3 2.95 1.1V29.1l1.1 1.8-2.95 2.3-5.65 1.75-4.05 3.65-6.15 1.8h-5.6l-2.05-4.3v-2.25l-3.85-3.35-1.1-1.85 2.25-2.75 3.6 1.65 1.85 1.55h2.7v-2.9l-2.3-1.4 2.1-2.7h3.15L.4 23.9v2l2.95 1.2 2.25-2.75-2.5-1.85 1.35-2.85H7.6M-6.2-34.9l-2.5 2.15-3.8 6.35.55 2.75 2.6 1.95 4.5-2.2L-3-29.15l-.9-5.75h-2.3l2.55-2.1-2.55 2.1m-5.2 13.95-.55-2.7.55 2.7m-8.55.3-1.1-2.35-8.85-4.3-2.35-.45-2.35-.5 2.35.5-1.05 1.55 2.05 4.75 4.75 3.8 5.45-.85 1.1-2.15 1.1 2.35-1.1-2.35" fill="url(#c)" fill-rule="evenodd" transform="translate(53.7 77.1)"/><path d="m6.3-20.5 1.1 2.55Q9.55-12.8 12-8.1l-6.7.05-5.8-.6L-.95-9v-3.85h3.4l2.2-2.75 1.65-4.9m-18.25-3.15-.55-2.75 3.8-6.35 2.5-2.15h2.3l.9 5.75-1.85 5.25-4.5 2.2-2.6-1.95m-20.3-4.1 2.35.45 8.85 4.3 1.1 2.35-1.1 2.15-5.45.85-4.75-3.8-2.05-4.75 1.05-1.55M-14.5-11.4v-1.3l1.1-1.35 2.3 1.15 3.05 3.4-6.45-1.9" fill="url(#d)" fill-rule="evenodd" transform="translate(53.7 77.1)"/><path d="M-.5-8.65 3.75-5.2 5.1-.45 8.25 1.6v3.15L6.5 7.25l-3.6 1.1V6.3L1.7 4.75H-.7v2.2L1.05 9.5-.7 11.1l-3.4-1.55V9.5l-2.1-1.55-.5.4-2.2-1-12.15-8.65v-3.2l-2.75-2.75-2.2.85-8.9-9.85-1.05-4.8 11.4 6.65 10.05 3v8.65l2.2 1.1 2.05-3.85 3.85 1.65 1.35-2.3-3-3.3 7.55.8" fill="url(#e)" fill-rule="evenodd" transform="translate(53.7 77.1)"/><path d="m-.5-8.65 5.8.6L12-8.1q1.6 3.25 3.4 6.25 6.2 10.8 13.65 19l3.05 3.55-5.95-.75-16.8-4.3L-.7 11.1l1.75-1.6L-.7 6.95v-2.2h2.4L2.9 6.3v2.05l3.6-1.1 1.75-2.5V1.6L5.1-.45 3.75-5.2-.5-8.65m-7.55-.8 3 3.3-1.35 2.3-3.85-1.65-2.05 3.85-2.2-1.1v-8.65l6.45 1.9v.05M-26-6.4l2.2-.85 2.75 2.75v3.2l-1.1-.8L-26-6.4M-6.7 8.35l.5-.4 2.1 1.55v.05l-2.6-1.2" fill="#5e2f8d" fill-rule="evenodd" transform="translate(53.7 77.1)"/><path d="M-50.6-70.45h3.75l8.9 2.5 2.95 1.1.1-.25 5.75.15q8.4-.1 11.85-2.4l1.75-3.55-1.95-2.75 5.2-.95q3.2 1.65 5.15 5l-2.75 3.65-6.85 3.35h-12.1l-9.65-1.8q10.2 5.75 26.2 3.6 4.75-.5 6.85-4.55l.6 2.55.95 6.2-8.1 2.05q-8.85 1.4-16.85-1.9l-4.8-3.95-8.1-3.5q-1.9-1.65-5.05-2.9l-3.8-1.65" fill="url(#f)" fill-rule="evenodd" transform="translate(53.7 77.1)"/><path d="m-37.95-67.95 3.05.85-.1.25-2.95-1.1M-4.1 9.55l3.4 1.55-.7.65h-2.7v-2.2" fill="#9fac66" fill-rule="evenodd" transform="translate(53.7 77.1)"/><path d="m-41.75-65.9 7.8 10.45q7 9.65 24.05 14.8L-24.35-44q-10.25-4.4-17-12.9l-1.45-7.7-4-4.2q3.15 1.25 5.05 2.9" fill="url(#g)" fill-rule="evenodd" transform="translate(53.7 77.1)"/><path d="m-36.3-9.45-1.75-8.5q-4.25-21.5-7.2-45.95l-2.45-2.45-3.85 2.45-1.65-1.65 1.85-4.9h.75l3.8 1.65 4 4.2 1.45 7.7 3.3 26.6 2.1 9.25 1.05 4.8 2.35 10.6-3.75-3.8m-11.4-56.9-2.55-2.5-1.3 2 1.3-2 2.55 2.5" fill="url(#h)" fill-rule="evenodd" transform="translate(53.7 77.1)"/><path d="M1 71.6q.05 2.45.4 4.95-7.3-8.4-13.3-18.25-4.15-6.75-7.65-14.2-6.25-13.2-10.55-28.5-2.4-8.45-4.5-17.45l-1.7-7.6 3.75 3.8.8 3.8q4.2 20.25 11.25 37.65l3.8 8.3q3.7 7.7 7.85 14.2Q-4.2 65.7 1 71.6" fill="url(#i)" fill-rule="evenodd" transform="translate(53.7 77.1)"/><path d="m32.1 20.7 2.8 3.4 3.35 4.15 2.35 3.05 5.7 7.95 5.6 8.7-18.9-9.8q-2.75-1.45-6.6-.6l-2.15.6-13.5 9.75-2.85 2.9Q5.05 54 2.6 58.3l-.25.45Q.75 64.95 1 71.6q-5.2-5.9-9.85-13.3-4.15-6.5-7.85-14.2l-3.8-8.3q-7.05-17.4-11.25-37.65l-.8-3.8h4.5L-26-6.4l3.85 4.3 1.1.8V.25l-1.1 4.05v9l1.3 2.95 3.4-1.1V13.3l2.3-2.95h2.4v2.75H-10l2.95-1.55-1.1-2.05 1.45-1.15 2.6 1.2v2.2h2.7l.7-.65 10.05 4.55 16.8 4.3 5.95.75M7.6 19.65H4.45L3.1 22.5l2.5 1.85-2.25 2.75L.4 25.9v-2l-1.35-1.8H-4.1l-2.1 2.7 2.3 1.4v2.9h-2.7l-1.85-1.55-3.6-1.65-2.25 2.75 1.1 1.85 3.85 3.35v2.25l2.05 4.3h5.6l6.15-1.8 4.05-3.65 5.65-1.75 2.95-2.3-1.1-1.8V18.45l-2.95-1.1-2.3 2.3 2.3 3.6-1.4.9H9V21.4l-1.4-1.75" fill="url(#j)" fill-rule="evenodd" transform="translate(53.7 77.1)"/><path d="m51.9 47.95 1.3 2.2q-7.6-3.75-14.95-5.8-4.3-1.25-8.55-1.85l-3.3.75q-8.35 2.25-15.25 7.05L7.9 53.05q-2.65 2.4-5.15 5.25l-.4.45.25-.45q2.45-4.3 5.3-7.5l2.85-2.9 13.5-9.75 2.15-.6q3.85-.85 6.6.6l18.9 9.8M21.15 43.8q-5.25 2.6-10 6.5 4.75-3.9 10-6.5" fill="url(#k)" fill-rule="evenodd" transform="translate(53.7 77.1)"/><path d="M65.7 69q-2.45-4.7-4.6-9.85L60 56.6l-1.65 4.9-2.2 2.75h-3.4v3.85l.45.35m12.5.55q1.6 3.25 3.4 6.25 6.2 10.8 13.65 19l3.05 3.55 2.8 3.4 3.35 4.15 2.35 3.05 5.7 7.95 5.6 8.7 1.3 2.2q-7.6-3.75-14.95-5.8-4.3-1.25-8.55-1.85l-3.3.75q-8.35 2.25-15.25 7.05l-3.25 2.75q-2.65 2.4-5.15 5.25l-.4.45q-1.6 6.2-1.35 12.85.05 2.45.4 4.95-7.3-8.4-13.3-18.25-4.15-6.75-7.65-14.2Q27.9 108 23.6 92.7q-2.4-8.45-4.5-17.45l-1.7-7.6-1.75-8.5q-4.25-21.5-7.2-45.95L6 10.75 2.15 13.2.5 11.55l1.85-4.9h4.5l8.9 2.5 3.05.85 5.75.15q6.4-1.9 10.1-6l1.55-2.7L41.4.5q3.2 1.65 5.15 5 1.05 1.85 1.7 4.25l.6 2.55.95 6.2q3.35 19.65 9 35.15L60 56.6m-7 31.6 1.75-1.6L53 84.05v-2.2h2.4l1.2 1.55v2.05l3.6-1.1 1.75-2.5V78.7l-3.15-2.05-1.35-4.75-4.25-3.45m-7.55-.8 3 3.3-1.35 2.3-3.85-1.65-2.05 3.85-2.2-1.1V64.4l1.1-1.35 2.3 1.15 3.05 3.4v.05M27.7 70.7l2.2-.85 2.75 2.75v3.2M47 85.45l.5-.4 2.1 1.55v.05m11.7 10.1 1.4 1.75v2.75h2.65l1.4-.9-2.3-3.6 2.3-2.3 2.95 1.1v10.65l1.1 1.8-2.95 2.3-5.65 1.75-4.05 3.65-6.15 1.8h-5.6l-2.05-4.3v-2.25l-3.85-3.35-1.1-1.85 2.25-2.75 3.6 1.65 1.85 1.55h2.7v-2.9l-2.3-1.4 2.1-2.7h3.15l1.35 1.8v2l2.95 1.2 2.25-2.75-2.5-1.85 1.35-2.85h3.15m3.55 30.65q4.75-3.9 10-6.5M11.95 11.2l7.8 10.45q7 9.65 24.05 14.8M15.2 10.7q10.2 5.75 26.2 3.6m-16.85-4.15q8.4-.1 11.85-2.4m-34.25 2.5 1.3-2L6 10.75m.9-2.45q3.15 1.25 5.05 2.9m29.8 42.25-.55-2.75 3.8-6.35 2.5-2.15 2.55-2.1m-2.55 2.1h2.3l.9 5.75-1.85 5.25-4.5 2.2-2.6-1.95.55 2.7m-20.85-6.8 2.35.45 8.85 4.3 2.2 4.7m-13.4-9.45-2.35-.5m14.65 7.6-1.1 2.15-5.45.85-4.75-3.8-2.05-4.75 1.05-1.55m-4.05 18.3 3.75 3.8m6.55-.75-2.05.75h-4.5m25.85 14-1.45 1.15 1.1 2.05-2.95 1.55h-2.75v-2.75h-2.4l-2.3 2.95v1.85l-3.4 1.1-1.3-2.95v-9l1.1-4.05V75.8M53 88.2l-.7.65h-2.7v-2.2" fill="none" stroke="#000" stroke-linecap="round" stroke-linejoin="round" stroke-opacity=".4" stroke-width=".5"/><path d="M7.4-17.95 6.3-20.5l-1.2-2.95q-5.65-15.5-9-35.15l-.95-6.2-.6-2.55q-.65-2.4-1.7-4.25-1.95-3.35-5.15-5l-5.2.95-1.55 2.7q-3.7 4.1-10.1 6l-5.75-.15-11.95-3.35h-4.5l-1.85 4.9 1.65 1.65 3.85-2.45 2.45 2.45q2.95 24.45 7.2 45.95l1.75 8.5 1.7 7.6q2.1 9 4.5 17.45 4.3 15.3 10.55 28.5 3.5 7.45 7.65 14.2 6 9.85 13.3 18.25-.35-2.5-.4-4.95-.25-6.65 1.35-12.85l.4-.45q2.5-2.85 5.15-5.25l3.25-2.75q6.9-4.8 15.25-7.05l3.3-.75q4.25.6 8.55 1.85 7.35 2.05 14.95 5.8l-1.3-2.2-5.6-8.7-5.7-7.95-2.35-3.05-3.35-4.15-2.8-3.4-3.05-3.55q-7.45-8.2-13.65-19-1.8-3-3.4-6.25-2.45-4.7-4.6-9.85z" fill="none" stroke="#000" stroke-linecap="round" stroke-linejoin="round" stroke-opacity=".4" transform="translate(53.7 77.1)"/></g></defs></svg>