<svg viewBox="0 0 14.484 35.544" xmlns="http://www.w3.org/2000/svg" xmlns:xlink="http://www.w3.org/1999/xlink"><g transform="translate(4.95 2.082)"><use transform="matrix(.1652 .0084 -.0584 .2322 -2.707 17.318)" width="14.7" height="17.55" xlink:href="#a"/><use transform="matrix(.1652 .0084 -.0584 .2322 -4.467 -.18)" width="81.3" height="142" xlink:href="#b"/><use transform="matrix(.1652 .0084 -.0584 .2322 -3.255 -1.726)" width="109.2" height="128.9" xlink:href="#c"/><use transform="matrix(.1652 .0084 -.0584 .2322 -3.956 -2.456)" width="123.4" height="151.9" xlink:href="#d"/><use transform="matrix(-1.7868 0 0 1.7868 7.143 20.086)" width="4.4" height="5" xlink:href="#e"/></g><defs><use width="81.3" height="142" xlink:href="#f" id="b"/><use width="109.2" height="128.9" xlink:href="#g" id="c"/><use width="4.4" height="5" xlink:href="#h" id="e"/><g id="g"><path d="M-49.6-55.3q1.4 2.45 6.35 8.9t10.7 13.4l1.55 1.85 12.6 14.65L-5.3-2.7q9.25 9.45 21.6 19.25T.3 56.3Q24.1 47 25.6 18.9l.75.05 2.05 1-.6-.85-2.7-2.65q-3.35-3.1-5.05-5.6-.55-.8-.5-5.4 0-4.6-9-19.5t-16.9-28.6 15.6 32Q17 3.95 6.7-.75-5.25-12.35-7.95-17.2l-7.6-14.4q-4.85-9.5-4.85-14.7 0-1.05.9-3.8l.85-2.75q0-2.15-1.6-6.3.2-.1.35-.15l4.9-4.9q2.15-1 3.5 1.8L.1-39.05Q15.2-8.6 30.3 16.5q2.95 5.2 7.55 11.2 6.65 8.6 16.75 18.8-12-.9-25.1.55-15.65 1.15-26.7 17.4-11.65-14.5-21.35-33.5-15.3-37.05-27.2-76.15-2.05-5.5-8.85-10.9l5 .8m78.75 74.55-1.35-.15 1.35.15" fill="#1e2f33" fill-rule="evenodd" transform="translate(54.6 64.45)"/><path d="m-49.6-55.3 14.55 2.25q8.45.3 13.35-1.65l1.35-2.8q-3.85 1.85-9.3 2.1l9.4-3.75q1.6 4.15 1.6 6.3l-.85 2.75q-.9 2.75-.9 3.8 0 5.2 4.85 14.7l7.6 14.4Q-5.25-12.35 6.7-.75q10.3 4.7 2.55-9.9-23.5-45.7-15.6-32t16.9 28.6 9 19.5q-.05 4.6.5 5.4 1.7 2.5 5.05 5.6l2.7 2.65-1.45-.15 1.45.15.6.85-2.05-1-.75-.05Q24.1 47 .3 56.3q28.35-29.95 16-39.75T-5.3-2.7l-13.1-13.8L-31-31.15-32.55-33q-5.75-6.95-10.7-13.4t-6.35-8.9m73.45 73.9 1.75.3-1.75-.3" fill="#2c4349" fill-rule="evenodd" transform="translate(54.6 64.45)"/><path d="m80.2 83.35-1.75-.3m1.75.3.75.05 1.45.15 1.35.15" fill="none" stroke="#000" stroke-linecap="round" stroke-linejoin="round" stroke-opacity=".302" stroke-width=".05"/></g><g id="d"><path d="m6.55-31.2-5.1-9.9-3.25-6.55L-13.4-71q-1.35-2.8-3.5-1.8l-4.9 4.9-9.75 3.9q5.45-.25 9.3-2.1l-1.35 2.8q-4.9 1.95-13.35 1.65L-56.5-64.7l-2.05-1.6 2.75-1.9q11.1 3.55 19.4 4.1l14.15-5.35 5.1-6.25 5 1.55Q9.55-25.9 35.5 15.5q12.15 16.55 25.95 26.7-48.4-7.75-58.4 16.25L.9 55.85q11.05-16.25 26.7-17.4Q40.7 37 52.7 37.9q-17.05-17.25-24.3-30L24 .4Q15.3-14.45 6.6-31.1l-.05-.1M-31.55-64q-2.3.1-4.85-.1 2.55.2 4.85.1" fill-rule="evenodd" transform="translate(61.7 75.95)"/><path d="m.6-40.35 2.3 9-2.25.8-.1.15q-3.35 3.85-9.45 3.3 7.95-1.55 6.75-9.05l.1-1.15L.6-40.35m-40 6.35q8.1 1.9 15.25 5l.5 1.45-.5-1.45q5.4 4.8 8.55 4.35-.8 2-5.3-.55l-1.25-.75-.4-.4.4.4h-.3q-6.05-.5-11.25 1.65l-5.7-9.7M22.75.75 25.4 7.3l-3.1-.4-.4-.5.4.5q-2.7 3.95-8.7 1.05 6.5 2.7 5.6-5.75 1.6-.85 3.55-1.45m-2.3 2.6q-.65-.3-1.25-1.15.6.85 1.25 1.15m-42.95 7.6 4.55-.8Q-4.3 12.6 5.3 9.35-2.55 18.8-12.95 18l-3.7 3-5.85-10.05m20.35-47.1 2.7 5.75-2.7-5.75" fill="#fff" fill-rule="evenodd" transform="translate(61.7 75.95)"/><path d="m.6-40.35.85-.75 5.1 9.9-3.65-.15-2.3-9m-42.05 6.1 2.05.25 5.7 9.7q-1.95.75-3.75 1.9l-4-11.85M24 .4l4.4 7.5-3-.6L22.75.75 24 .4m-48.9 11q3-.85 2.4-.45L-16.65 21q-.55 1.2-2.45 4l-1.35-2.65-4.45-10.95" fill="#dab869" fill-rule="evenodd" transform="translate(61.7 75.95)"/><path d="m6.55-31.2-5.1-9.9-3.25-6.55L-13.4-71q-1.35-2.8-3.5-1.8l-4.9 4.9-9.75 3.9q5.45-.25 9.3-2.1l-1.35 2.8q-4.9 1.95-13.35 1.65L-56.5-64.7q6.8 5.4 8.85 10.9l6.2 19.55 4 11.85Q-32.25-7.2-25 11.15M6.6-31.1Q15.3-14.45 24 .4l4.4 7.5q7.25 12.75 24.3 30-12-.9-25.1.55Q11.95 39.6.9 55.85M-19.1 25l-1.35-2.65-4.45-10.95m5.8 13.6q9.2 17.4 20 30.85" fill="none" stroke="#960" stroke-linecap="round" stroke-linejoin="round" stroke-opacity=".271" transform="translate(61.7 75.95)"/><path d="m62.6 131.8 2.15 2.6q10-24 58.4-16.25-13.8-10.15-25.95-26.7Q71.25 50.05 49.55 1.8l-5-1.55-5.1 6.25-14.15 5.35q2.55.2 4.85.1m34.6 122.45q7.95 9.45 16.8 16.9-14.1 1.75-26.25-4.8-10.35-14.05-15.85-34.1L11.3 20.9 6 15.55.25 17v-3.65l2.9-3.7 2.75-1.9q11.1 3.55 19.4 4.1M3.15 9.65l2.05 1.6m.8 4.3-2.2-2.2-1.75 1.9" fill="none" stroke="#000" stroke-linecap="round" stroke-linejoin="round" stroke-opacity=".4" stroke-width=".5"/><path d="m63.15 34.85-.85.75m2.3 9 3.65.15.05.1M20.25 41.7l2.05.25q8.1 1.9 15.25 5 5.4 4.8 8.55 4.35-.8 2-5.3-.55L39.55 50h-.1m22.8-4.45q-3.35 3.85-9.45 3.3l-2.2 1.5m11.65-4.8.1-.15 2.25-.8m21.1 31.75-1.25.35m2.65 6.55 3 .6m-6.1-1 3.1.4m-6.2-5.1q.9 8.45-5.6 5.75 6 2.9 8.7-1.05m-3.1-4.7q1.6-.85 3.55-1.45M52.8 48.85q7.95-1.55 6.75-9.05l.1-1.15 2.65-3.05M39.25 50Q33.2 49.5 28 51.65q-1.95.75-3.75 1.9M36.7 87.1l.1.25q3-.85 2.4-.45l4.55-.8Q57.4 88.55 67 85.3q-7.85 9.45-18.25 8.65m-3.7 3 3.7-3m-6.6 7.3.45-.3q1.9-2.8 2.45-4" fill="none" stroke="#300" stroke-linecap="round" stroke-linejoin="round" stroke-opacity=".522" stroke-width=".05"/><path d="m37.55 46.95-.45-1.2m25.25-.35.25.65-.35-.5-2.7-5.75M84 82.85l.25.3.55.65m-1.2-1.45.4.5m-3.4-5.15.3.45q.6.85 1.25 1.15m-22.5-40.65q-1.4 1.55-1.65.85M39.55 50l.5.5.25.2.5.05M39.55 50l-.4-.4m.3.4.6.5m-.6-.5h-.2m9.5 43.95.2.55m-10.9-46.1-.5-1.45" fill="none" stroke="#000" stroke-linecap="round" stroke-linejoin="round" stroke-opacity=".302" stroke-width=".05"/></g><g id="h"><path d="m-5.7-1.95-.1-.2v-.1l.7-.2.2.2-.8.3m1.55-.55.2-.25.2.3.45.05.05.05-.4.45-.5-.1h-.05l.05-.5m-.7 2.45L-4.9-.1l-.2-.1-.05-.05h-.1l.05-.05.15-.3.05.05.5.35-.05.1-.1.15h-.05l-.15-.1M-5-1.25l-.1-.05.2-.15.1-.1h.2v.05l-.05.15v.05h-.05l-.05.15-.25-.1m1.4.7h-.25l-.2-.15.4.15h.05-.05l-.4-.15q.45-.2.85-.5h.15l.15.15-.2.2-.15.1-.25.1-.1.1m-.1.8-.3-.1.05-.2.5.05-.05.2-.2.05" fill="#fff" fill-rule="evenodd" transform="translate(6.6 2.75)"/><path d="m-2.25-.75.05.2q0 .45-.25.5v-.2l.15-.45.05-.05" fill="#ebe5da" fill-rule="evenodd" transform="translate(6.6 2.75)"/><path d="M-2.45.05q0 .85-.3 1.05l-.6.5.2.3-.5.2-.4-.45q.25.6-.7.6l-.15-.35-.5.15-.7-.4.4-.35-.35-.45L-6.1.8l-.3.1-.2-.4.7-.1-.45-.5.3-.25H-6q.2.1.35.8l1.9.05.3-.15.6.1.1-.15.15-.15.15-.1m-3.2 1.25.1.05V1.3h-.15.05" fill="#d4cab6" fill-rule="evenodd" transform="translate(6.6 2.75)"/><path d="m-4.9-2.25.05.2q.15-.1.15-.3l.25-.05.1.1.2-.2-.05.5h.05l.5.1.4-.45q.35.35.25.6.6.15.6.5l.15.5-.05.05-.15.45v.3l-.15.1-.15.15-.1.15-.6-.1-.3.15-1.9-.05q-.15-.7-.35-.8V-.4l-.2-.05-.2-.1q-.25-.2.4-.75l-.35-.2.45-.3.45.25h.05l-.3-.4.8-.3m.35 2.15.05-.1-.5-.35-.05-.05-.15.3-.05.05h.1l.05.05.2.1.05.05.15.1h.05l.1-.15m-.05-1.4v-.05h-.2l-.1.1-.2.15.1.05.25.1.05-.15h.05v-.05l.05-.15m-.15.35h.05l.05-.15-.05.15h-.05m.7.45.2.15h.25l.3-.15.2-.15-.2.15-.3.15.1-.1.25-.1.15-.1.2-.2-.15-.15h-.15q-.4.3-.85.5m-1.05.5.25.15-.25-.15m1.4.45.15.05.05-.05V.2v.05l-.05.05-.15-.05.2-.05.05-.2-.5-.05-.05.2.3.1m-1-.2h.05-.05" fill="#f0ede6" fill-rule="evenodd" transform="translate(6.6 2.75)"/><path d="M.9.8.8.6V.5l.7-.2.2.2.05.2Q1.9.6 1.9.4l.25-.05.1.1.2-.2.2-.25.2.3.45.05.05.05q.35.35.25.6.6.15.6.5l.15.5.05.2q0 .45-.25.5v.1q0 .85-.3 1.05l-.6.5.2.3-.5.2-.4-.45q.25.6-.7.6l-.15-.35-.5.15-.7-.4.4-.35-.35-.45-.05-.05-.3.1-.2-.4.7-.1-.45-.5.3-.25H.6v-.05L.4 2.3l-.2-.1q-.25-.2.4-.75l-.35-.2.45-.3.45.25h.05L.9.8m.85 1.9.15.1m.05 0 .1-.15M1.6 1.5l.25.1m.1-.15V1.4L2 1.25m-.05.2-.05.15h-.05M3 2.2h-.05l-.4-.15m.95-.15-.2.15-.3.15m-1.25.5-.25-.15m1.6.4V3l-.05.05-.45-.15m-.65-.1H1.9M.95 4.05h.1v.05l-.1-.05H.9" fill="none" stroke="#000" stroke-linecap="round" stroke-linejoin="round" stroke-opacity=".302" stroke-width=".05"/></g><path d="m0 0 14.7 17.55" fill="none" stroke="#0f0" stroke-linecap="round" stroke-linejoin="round" stroke-width=".05" id="a"/><path d="M-35.7-69.4q6.8 5.4 8.85 10.9 11.9 39.1 27.2 76.15 9.7 19 21.35 33.5l2.15 2.6q7.95 9.45 16.8 16.9-14.1 1.75-26.25-4.8Q4.05 51.8-1.45 31.75l-28.15-91.5-5.3-5.35-5.75 1.45v-3.65l2.9-3.7 2.05 1.6" fill="#497c8a" fill-rule="evenodd" transform="translate(40.65 71)" id="f"/></defs></svg>