<svg viewBox="0 0 36.817 42.25" xmlns="http://www.w3.org/2000/svg" xmlns:xlink="http://www.w3.org/1999/xlink"><g transform="translate(-263.98 -381.85)"><use transform="translate(264.25 381.85)" width="36.55" height="42.25" xlink:href="#a"/><use transform="translate(273.2 382.35)" width="24.95" height="21.85" xlink:href="#b"/><use transform="matrix(.1462 -.1524 .2622 .0251 260.64 420.74)" width="75.15" height="78.5" xlink:href="#c"/><use transform="translate(264.75 413.2)" width="18.75" height="10.4" xlink:href="#d"/><use transform="translate(264.75 385.9)" width="32.05" height="37.7" xlink:href="#e"/></g><defs><radialGradient id="f" cx="0" cy="0" r="819.2" gradientTransform="matrix(.0205 0 0 .0287 289.85 405.75)" gradientUnits="userSpaceOnUse"><stop stop-opacity=".502" offset="0"/><stop stop-opacity="0" offset=".886"/></radialGradient><radialGradient id="h" cx="0" cy="0" r="819.2" gradientTransform="matrix(.0439 0 0 .0495 -.7 -17.75)" gradientUnits="userSpaceOnUse"><stop stop-color="#ffee69" stop-opacity=".8" offset="0"/><stop stop-color="#fef18a" stop-opacity="0" offset="1"/></radialGradient><radialGradient id="j" cx="0" cy="0" r="819.2" gradientTransform="scale(.042)" gradientUnits="userSpaceOnUse"><stop stop-color="#52493f" offset=".522"/><stop stop-color="#747864" stop-opacity="0" offset="1"/></radialGradient><radialGradient id="k" cx="0" cy="0" r="819.2" gradientTransform="scale(.042)" gradientUnits="userSpaceOnUse"><stop stop-color="#746136" stop-opacity=".702" offset=".522"/><stop stop-color="#878256" stop-opacity="0" offset="1"/></radialGradient><radialGradient id="l" cx="0" cy="0" r="819.2" gradientTransform="translate(-.1 -.1) scale(.0504)" gradientUnits="userSpaceOnUse"><stop stop-color="#666" offset=".522"/><stop stop-color="#221e00" stop-opacity="0" offset="1"/></radialGradient><radialGradient id="m" cx="0" cy="0" r="819.2" gradientTransform="scale(.042)" gradientUnits="userSpaceOnUse"><stop stop-color="#666" offset=".522"/><stop stop-color="#221e00" stop-opacity="0" offset="1"/></radialGradient><radialGradient id="n" cx="0" cy="0" r="819.2" gradientTransform="matrix(.0205 0 0 .0124 270.55 422.55)" gradientUnits="userSpaceOnUse"><stop stop-opacity=".502" offset="0"/><stop stop-opacity="0" offset=".886"/></radialGradient><radialGradient id="p" cx="0" cy="0" r="819.2" gradientTransform="matrix(.021 .0106 -.0193 .0382 33.3 44.25)" gradientUnits="userSpaceOnUse"><stop stop-opacity=".502" offset="0"/><stop stop-opacity="0" offset="1"/></radialGradient><path d="m24.05 7.65.9 1.95-.7.8q-9 10.1-21.2 11.45Q5.1 20 3.6 16.9L3 19.15q-1.3-2.4-.9-6.5l-1.65 1.9.15-1.45q.45-1.8 1.9-3.45l.45-.45-2.35.15-.6.1q2-2.25 3.95-3.6l3.85-1.9-1.1-.3q1.8-.95 3.8-.75L7.65 0q1.7.4 3.15.95 4.05 1.45 6.2 4l-.1-1.9q.65 1.1 2.1 2.05l1.4.75.4-1.35q.3 2.35 1.95 4.15l1.3-1" fill="url(#h)" fill-rule="evenodd" id="g"/><path d="M264.75 417.4q.9-2.05 2.7-4l3.1-.2q6.35 0 10.9 2.7l2.05 1.5q-.65 2-.35 5.4l-1.4-3.75q-1.3 2.35-4.1 2.9l.5-1.7q-4.4 2.95-8.7 3.35l1.6-2.6-2.55-.2-1.3.3q.65-1.3 2.95-3-3.4-1.25-5.4-.7" fill="url(#n)" fill-rule="evenodd" transform="translate(-264.75 -413.2)" id="d"/><path d="M40.5 38.35q-1.45 1.35-2 2.85l.6-1.9q-.25-.05-.35.15l-.5.1-1.35 2.1-.3.6q-1 2.05-.6 3.2-1.45-.05-1.85-.5-.7 2.25-.2 3.75l.85 2.5-.95-.6.1.65q.25 2-.8 3.15l-.95-1.5q.05 5.6-2.6 7.55.3-1.1-1.05-2.45-1.45 1.95-1 6.7l-1.4-3.75q-1.3 2.35-4.1 2.9l.5-1.7q-4.4 2.95-8.7 3.35l1.6-2.6-2.55-.2q-.75 0-1.3.3.65-1.3 2.95-3-3.4-1.25-5.4-.7 1.6-3.55 5.8-6.95l-2.55.5 1.65-1.6Q15.55 50 17.7 49q.95-.45 2.05-.85l.7-.2-1.65-.85.6-.15 1.2-.8q2.1-1.85.6-5l-.6 2.25q-1.3-2.4-.9-6.5l-1.65 1.9.15-1.45q.45-1.8 1.9-3.45l.45-.45-2.35.15-.6.1.45-.45 1.35-1.4q3.05-2.45 8.2-1.5l-.9-1.65 2.3 1.15V27.8q1.55 1.2 1.75 2.95-1.55-.1-2.2 1.25h.75q-1.05.85-1.15 2.4l2.55.2q-.75.05-1.1 1 1.15-.7 1.7 0-.4.75 0 1.5.8-.55 1.55 0-.75.45-.55 1.4h.75q-.45.45 0 1.05.95-.8 1.9 0 .3.65 0 1.65.95-.3 1.1-1.15.65.5.55 1.4l.3-.4q.45-.8.4-1.85l.35.95.05-.65q.2-1.2-.8-2.1l-.65-.5q-2.65-2-1.25-5.35.75 0 .6 1.1.7-.25.8-.7.75.95 1 2.4l.55-1.55q.1 1.6 1.4 3.15l.2-1.95.3 1.2 1.35-.2-.95 1.75q.55.65.55 1.35l-.3.25" fill="url(#p)" fill-rule="evenodd" transform="translate(-9.15 -27.8)" id="o"/><use width="24.95" height="21.85" xlink:href="#g" id="b"/><use width="75.15" height="78.5" xlink:href="#i" id="c"/><use width="32.05" height="37.7" xlink:href="#o" id="e"/><g id="a"><path d="M295.95 391q-1.65-1.8-1.95-4.15l-.4 1.35-1.4-.75q-1.45-.95-2.1-2.05l.1 1.9q-2.15-2.55-6.2-4l-3.15-.95 2.85 2.9q-2-.2-3.8.75l1.1.3-3.85 1.9q-1.95 1.35-3.95 3.6l.6-.1 2.35-.15-.45.45q-1.45 1.65-1.9 3.45l-.15 1.45 1.65-1.9q-.4 4.1.9 6.5l.6-2.25q1.5 3.15-.6 5l-1.2.8-.6.15 1.65.85-.7.2-2.05.85q-2.15 1-3.65 2.25l-1.65 1.6 2.55-.5q-4.2 3.4-5.8 6.95 2-.55 5.4.7-2.3 1.7-2.95 3l1.3-.3 2.55.2-1.6 2.6q4.3-.4 8.7-3.35l-.5 1.7q2.8-.55 4.1-2.9l1.4 3.75q-.45-4.75 1-6.7 1.35 1.35 1.05 2.45 2.65-1.95 2.6-7.55l.95 1.5q1.05-1.15.8-3.15l-.1-.65.95.6-.85-2.5q-.5-1.5.2-3.75.4.45 1.85.5-.4-1.15.6-3.2l1.65-2.7.5-.1-.05.05-.15.35v.05l.15.3.1.1-.3.9.4-.85h.15l.35-.15.15-.3v-.05l-.1-.3 1.05-1.2.3-.25q0 .65-.55 1.4-.05 1.65 1.05 2.3l.65-1.15q1 1.2 0 2.8 1.2-.2 1.5-1.55 2.65-3-.35-7.05h-.1l-1.35-2.95z" fill="none" stroke="#000" stroke-linecap="round" stroke-linejoin="round" stroke-opacity=".302" transform="translate(-264.25 -381.85)"/><path d="m273.8 391.7-.6.1q2-2.25 3.95-3.6l3.85-1.9-1.1-.3q1.8-.95 3.8-.75l-2.85-2.9 3.15.95q4.05 1.45 6.2 4l-.1-1.9q.65 1.1 2.1 2.05l1.4.75.4-1.35q.3 2.35 1.95 4.15l1.3-1 1.65 3.6q-1.65 2.35-1.5 4.75l-.5-2 .35-.75v-.15l.35-2.05q-1.1.3-2.05-.4l-.6-.75-.1 1.7q-1.5-1.65-1.2-3.4l-.55 1.8-.9-.5q-2.7-1.65-3.9-4l.1 1.85q-2.7-1.8-3.8-3.95l.05 2.15-2.35-1.1 1.1 1.7-6.15.15q-2.45 1.35-3.45 3.05m0 3.75q.45-1.8 1.9-3.45l.45-.45q.9-.55 2.05-.55-3.7 2.05-4.4 4.45" fill="#c9cdb4" fill-rule="evenodd" transform="translate(-264.25 -381.85)"/><path d="M273.8 391.7q1-1.7 3.45-3.05l6.15-.15-1.1-1.7 2.35 1.1-.05-2.15q1.1 2.15 3.8 3.95l-.1-1.85q1.2 2.35 3.9 4l.9.5.55-1.8q-.3 1.75 1.2 3.4l.1-1.7.6.75q.95.7 2.05.4l-.35 2.05-.15.15-1 .85q-2-1.75-3.9-2.55l-5.8-.15q-1.85 1.15-3.55 1.45-.1 1.05 1.55 1.65-2.9.85-3.7 3.95-.8 2.95-3.6 4.3l1.95.55q-.4 1.65-2.45 2.35-2.1.45-4.05 1.35l-.45.2q2.25.1 2.2 1.8-4.5-.3-9.55 6.05 1.6-3.55 5.8-6.95l-2.55.5 1.65-1.6q1.5-1.25 3.65-2.25l2.05-.85.7-.2-1.65-.85.6-.15 1.2-.8q2.1-1.85.6-5l-.6 2.25q-1.3-2.4-.9-6.5l-1.65 1.9.15-1.45q.7-2.4 4.4-4.45-1.15 0-2.05.55l-2.35.15m3.85 30.25.5-1.7q.8-.45 1.55-.95l-2.05 2.65m-8.2 1.65 1.6-2.6h1l-2.6 2.6m-2.25-2.5q.65-1.3 2.95-3l.85.4q-1.25.05-3.8 2.6m9.9-25.4v-1.65q-.85 1.95-.75 3.55.3-1.5.75-1.9m4.1-5.65v-.65q-.75-.05-1.65.6l1.65.05m6.7 1.15v-.55q-.95-.2-1.45-1.2.35 1.3 1.45 1.75m-5.85 1.25q-1.35.55-1.8 2 1.05-1.1 1.8-.55v-1.45m-2.55 8-.7-1.35q-.05 1.4-.6 2.8l1.3-1.45" fill="#928565" fill-rule="evenodd" transform="translate(-264.25 -381.85)"/><path d="M296.1 396.45q-1.45 1.35-2 2.85l.6-1.9q-.25-.05-.35.15l-.5.1-1.65 2.7q-1 2.05-.6 3.2-1.45-.05-1.85-.5-.7 2.25-.2 3.75l.85 2.5-.95-.6.1.65q.25 2-.8 3.15l-.95-1.5q.05 5.6-2.6 7.55.3-1.1-1.05-2.45-1.45 1.95-1 6.7l-1.4-3.75q-1.3 2.35-4.1 2.9l2.05-2.65q-.75.5-1.55.95-4.4 2.95-8.7 3.35l2.6-2.6h-1l-2.55-.2-1.3.3q2.55-2.55 3.8-2.6l-.85-.4q-3.4-1.25-5.4-.7 5.05-6.35 9.55-6.05.05-1.7-2.2-1.8l.45-.2q1.95-.9 4.05-1.35 2.05-.7 2.45-2.35l-1.95-.55q2.8-1.35 3.6-4.3.8-3.1 3.7-3.95-1.65-.6-1.55-1.65 1.7-.3 3.55-1.45l5.8.15q1.9.8 3.9 2.55m-19-.75q-.45.4-.75 1.9-.1-1.6.75-3.55v1.65m10.8-4.5q-1.1-.45-1.45-1.75.5 1 1.45 1.2v.55m-6.7-1.15-1.65-.05q.9-.65 1.65-.6v.65m.85 2.4v1.45q-.75-.55-1.8.55.45-1.45 1.8-2m-2.55 8-1.3 1.45q.55-1.4.6-2.8l.7 1.35" fill="#81755c" fill-rule="evenodd" transform="translate(-264.25 -381.85)"/><path d="M33 13.6v.15l-.35.75.5 2q-.15-2.4 1.5-4.75L33 8.15l-1.3 1Q30.05 7.35 29.75 5l-.4 1.35-1.4-.75q-1.45-.95-2.1-2.05l.1 1.9q-2.15-2.55-6.2-4L16.6.5l2.85 2.9q-2-.2-3.8.75l1.1.3-3.85 1.9q-1.95 1.35-3.95 3.6l.6-.1M33 13.6l-.15.15-1 .85q-1.45 1.35-2 2.85l.6-1.9q-.25-.05-.35.15l-.5.1-1.65 2.7q-1 2.05-.6 3.2-1.45-.05-1.85-.5-.7 2.25-.2 3.75l.85 2.5-.95-.6.1.65q.25 2-.8 3.15l-.95-1.5q.05 5.6-2.6 7.55.3-1.1-1.05-2.45-1.45 1.95-1 6.7l-1.4-3.75q-1.3 2.35-4.1 2.9l.5-1.7q-4.4 2.95-8.7 3.35l1.6-2.6-2.55-.2-1.3.3q.65-1.3 2.95-3-3.4-1.25-5.4-.7Q2.1 32 6.3 28.6l-2.55.5 1.65-1.6q1.5-1.25 3.65-2.25l2.05-.85.7-.2-1.65-.85.6-.15 1.2-.8q2.1-1.85.6-5l-.6 2.25q-1.3-2.4-.9-6.5l-1.65 1.9.15-1.45q.45-1.8 1.9-3.45l.45-.45-2.35.15" fill="none" stroke="#000" stroke-linecap="round" stroke-linejoin="round" stroke-opacity=".302" stroke-width=".5"/><path d="m292.9 397.3-.45-.4q-.6-.1-1.15.6-.5-.95 0-1.35-1.1-.45-2.25 0-.3-1.45.6-1.7-1-.65-2.05 0-.2-.9.55-1.3-.1-.7-1.1-.5l.45-.35q-.65-1.05-2.55-.8.7-1.2 1.95-1.35 0-.85-.55-1.3l-1.15-.5q1.85-1.2 3.05-.8l2.35 2.1q-1.4 3.35 1.25 5.35 1.7 1.05 1.45 2.6l-.05.65-.35-.95m4 2.6q-.65-1.2-.35-2.6 1.8-.05 1.05-1.7l-.8-.55q1.05-.95 0-1.95l1.9-.15q3 4.05.35 7.05-.3 1.35-1.5 1.55 1-1.6 0-2.8l-.65 1.15m2.15-1.4v1.5-1.5" fill="#c9cdb4" fill-rule="evenodd" transform="translate(-264.25 -381.85)"/><path d="M286.35 388.85q.55.45.55 1.3-1.25.15-1.95 1.35 1.9-.25 2.55.8l-.45.35q1-.2 1.1.5-.75.4-.55 1.3 1.05-.65 2.05 0-.9.25-.6 1.7 1.15-.45 2.25 0-.5.4 0 1.35.55-.7 1.15-.6l.45.4q.1 1.35-.7 2.25.1-.9-.55-1.4-.15.85-1.1 1.15.3-1 0-1.65-.95-.8-1.9 0-.45-.6 0-1.05h-.75q-.2-.95.55-1.4-.75-.55-1.55 0-.4-.75 0-1.5-.55-.7-1.7 0 .35-.95 1.1-1l-2.55-.2q.1-1.55 1.15-2.4h-.75q.65-1.35 2.2-1.25m9.5 8.75q1.1-1.45 0-2.75l.95-1.75q1.05 1 0 1.95l.8.55q.75 1.65-1.05 1.7-.3 1.4.35 2.6-1.1-.65-1.05-2.3" fill="#928565" fill-rule="evenodd" transform="translate(-264.25 -381.85)"/><path d="m294.15 397.95.15-.35q.15-.15.35-.15l.35.15.15.35v.05l-.15.3-.35.15-.35-.15-.15-.3v-.05" fill="#4a4435" fill-rule="evenodd" transform="translate(-264.25 -381.85)"/><path d="M26.35 7.8q.75 0 .6 1.1.7-.25.8-.7m.95.65v.6m-.05 6 .35.95.05-.65q.25-1.55-1.45-2.6-2.65-2-1.25-5.35m-5.4-1.3 1.15.5q-1.55-.1-2.2 1.25h.75q-1.05.85-1.15 2.4l2.55.2q-.75.05-1.1 1 1.15-.7 1.7 0-.4.75 0 1.5.8-.55 1.55 0-.75.45-.55 1.4h.75q-.45.45 0 1.05.95-.8 1.9 0 .3.65 0 1.65.95-.3 1.1-1.15.65.5.55 1.4.8-.9.7-2.25m2.95.3q1.1-1.45 0-2.75l.95-1.75-1.35.2-.3-1.2m-1 5.85v.05m1 0v-.05m1.75 1.95.65-1.15q1 1.2 0 2.8 1.2-.2 1.5-1.55v-1.5m-.35-5.55q3 4.05.35 7.05m-2.15-.1q-1.1-.65-1.05-2.3" fill="none" stroke="#000" stroke-linecap="round" stroke-linejoin="round" stroke-opacity=".302" stroke-width=".5"/><path d="m29.05 15.75.85.35.15-.35q.15-.15.35-.15l.35.15.15.35.7-.35m-1.7.4.15.3.35.15.35-.15.15-.3q.4.9.25 2.9m-1.25-2.9q-.7 1.5-.5 2.85v1" fill="none" stroke="#000" stroke-linecap="round" stroke-linejoin="round" stroke-opacity=".702" stroke-width=".5"/><path d="m294.2 388.9.05-.05.1.4-.15.25v-.6m3.1 2.15-.35-.8.3-.25.4.8-.15.3-.05.3-.15-.35m-6.1-.3.85-.05.05.15-.05.15.35.6.7.65.1-.05.1-.8.25.5.6.8.75 1.05.1-.05v-1.5l.25.4v.05l.45.65h.1l.25-.1.45-.1v.05q-.6.7-.6 1.7l.2.9.15.6-.15.1q-1.45 1.35-2 2.85l.6-1.9q-.25-.05-.35.15l-.5.1-1.65 2.7q-1 2.05-.6 3.2-1.45-.05-1.85-.5-.6 2-.3 3.4l.1.35.85 2.5-.95-.6.1.65q.25 2-.8 3.15l-.95-1.5q.05 5.6-2.6 7.55.3-1.1-1.05-2.45-1.45 1.95-1 6.7l-1.4-3.75q-.9 1.6-2.5 2.4l-.3-.45q-2.5-3.5-3.65-7.8l-.3-1.3q-.55-2.5-.6-5.3l.5-.15.45-.2.7-.2-1.65-.85.5-.1.1-.05 1.2-.8q2.1-1.85.6-5l-.6 2.25q-.7-1.3-.9-3.15.6-2.4 1.65-4.55l.3-.6q.75-1.45 1.7-2.75 1.65-2.3 3.6-3.8 4.1.85 3.8 2.2-1.55-.1-2.2 1.25h.75q-1.05.85-1.15 2.4l2.55.2q-.75.05-1.1 1 1.15-.7 1.7 0-.4.75 0 1.5.8-.55 1.55 0-.75.45-.55 1.4h.75q-.45.45 0 1.05.95-.8 1.9 0 .3.65 0 1.65.95-.3 1.1-1.15.65.5.55 1.4.8-.9.7-2.25l.35.95.05-.65q.25-1.55-1.45-2.6-2.65-2-1.25-5.35.75 0 .6 1.1m6.05 6.7.15.1v.8l-.2-.85.05-.05" fill="url(#f)" fill-rule="evenodd" transform="translate(-264.25 -381.85)"/></g><g id="i" fill-rule="evenodd"><path d="m5.5-21.3-1.4-1.3.65-.75 3.75.8-.3.15-2.7 1.1" fill="url(#j)" transform="translate(37.15 38.8)"/><path d="m-21.65-9.35-2.2 2.1-.2.1-.3-2.1-1.6-.55-2.05-.7.05-1.5 3.85-1.25.25.35-1.3.9 1.2 1.25 1.25-.1 1.05 1.5M7.6-21.25l.05.15-.1-.1.05-.05" fill="url(#k)" transform="translate(37.15 38.8)"/><path d="m5.5-21.3.5.5-.2.85.7.4-1.8 1.75 2.85 1.15v-1.55l2.75-.85-.8-1.15 1.05-1-2.05-1.35-1.15-.75 1.6-2.25.15.1 4.5-1.5-1.4-2.45 4.15-.25 1.85-4.2 2.25.2 1.55 1.5 4.35.45.6 6.95-2.55 1.5-.45 3.7 3.1 1.45 4.7-3.7L36-19.75l1.4 4.2-1.3 2.75-2.2 1.15-.4-.15v-2.3l-1.9.85v2.1l.45.45-1 .5-1.25 2.65 2.6 3.25 4.5-.9L38-3.25l-.3 2.15-1.45-1.65L34.9-1.2 36.05.25 35 4.15l2.05 4.15-2.75 2.05-.05.05-1.9-1.65-2.75 1.1v3.45l4.2 2.7-.05 4.7-2.5 3.1H28.9l-1.55-1.55 2.1-1.75-.75-.8-2.1.45-.75-1.2-.9 1.35H23.5l-.3-1.35 2.65-2.1-.65-1.35-1.95.9-.8-1.3-3.35 3.15-.7 1.6 2.1-.45.05 2.35 1.65 1.1-.45 1.2 2.1 3.7-1 1.8-1.6.65-2.1 3.65 1 2.2H10.7l3.05 3.05H8.2l-2.9-1.85.3.25-2.05 2.2-1.75-3.05-4.55 1.5-.35-1.05 1.4-.7-5.25-1.1 1.05-1.5-.05-.15 2.55-1.15-1.4-1.5 1.55-1.2 2.85 2.35 1.4-2.1-1.35-1.65.85-1.2-.3-.45 2.1-1.45 4.05.8-1.6-5.7 1.05-.7-1.1-5.65-2.75-2.1-2.05 1.9 2.55 1.8L1 19l-1.1-.95-2.2 3.15 2.2 1.35-1.2 2.5-2.5.35v1.85l.6.65-1.75 1.75-.8-1.7H-7.6v2.9l.5.7-2.1 1.4-.95-2.35-3.45.25-.7 1.8-2.8.85-4.85-3.7 1.05-1.25-1.1-1 1-1.5-.25-2.9-3.85-1.5-.1.05-3.4 2.95-1.9-1.15-1.4-3.4 1.2-2.45-1-3.9 1.1-1.45-1.3-1.55-.1-.1-1.15-1.45h1.25l2.25-3-1.95-2.8-5.55.75 1.35-2.7-1-3.9 1.1-1.45-1.3-1.55.2-.3 5.7.3 1.3-.9.45 1.3 2-1.15.9 1.5 2.6-2.55 2.2-2.1 1.2-1.15-.05-2.15-1 .9-.6-1.05-1.2.3-.55-2.2-2.05-1.2-1.25.7-1.15-.7-.45.3-.3-.4v-3.4l-.1-.2 1.75-.85 2.9 1.95 2.8-2.3 2.7 2.7 3.6-5.6-2.4-1 1.8-2.05-.3-1.35.85-1-2.4-3.1.85-1.75-2.9-.2 1.35-1.35 2.2.3 2-3.6 2.65.35-.5.55 3.15 2.85-1.1 1.25 4.85 3.7 3.45-1.05.85 2.45 4.65-2.25-.4 1.15h1L2.6-26.1l1.7 1.15-1.15 1.4.95.95 1.4 1.3m11.95-7.5-1.95.85v2.1l1.95 1.9 1.65-1.9-1.65-.65v-2.3M21.8-9.3v2.15l1.95 1.85 1.65-1.85-1.65-.7v-2.3l-1.95.85m.6-9.55v-2.25l-1.9.8v2.15l1.95 1.85 1.65-1.85-1.7-.7M19.95-1.4v.75l-1.9 1.9-1-1.3-1.25 1.2v2.4l1.2.7v1.4l2.2.95.6-2-.9-1.2L20.5.1h2.05l-1.4-1.05-1.2-.45M3.7-19.1H1.85v2.85l2 .75 1-1.9-1.15-1.7M20.75-5.65l-.85 1.4 3.25 1.15-2.4-2.55m3.45 3.6L23.95.1l-1.4 1.05v.5l1.4 3.65h3.3l.4.95 3.95-2-6-1.75 1.3-1.4-1.95-1.15.8-1.55-1.55-.45m-41.4 25.3h-1.85v2.85l2.05.75 1-1.9-1.2-1.7m11.85-13.7-1.15-1.7h-1.85v2.85l2 .75 1-1.9M-23.8-2.9v2.85l2.05.75 1-1.9-1.2-1.7h-1.85m3.35-7.55v2.85l2.05.75 1-1.9-1.15-1.7h-1.9m9.95 31.4 1.1 2.1 2.4-1.5.85 1.5 2.95-1.55-1.05-1.65-2.1.35-.45-3.75-.35-.15.4-1.45-3.1-.65-2.8 3.85.85 3.15 1.3-.25m21.9-7.05-.4-1.95-3.9 2.95 1.05 1.4V18l2.65 3.25 3.05-.95.35.25-.6 2.15 1.95 1.1 2.25-2-.9-1.5-.45-.9-1.95-.45 1.3-1.2-1.75-1.6-.05.1-.35-.2-1.9-.5-.3-1.4-.05-.25m-31.25-1.5-.2-.25-.85.55.1.2.95-.5" fill="url(#l)" transform="translate(37.15 38.8)"/><path d="m11.4 13.9.05.25-.15.3.1-.55" fill="url(#m)" transform="translate(37.15 38.8)"/></g></defs></svg>