<svg viewBox="0 0 259.25 88.25" xmlns="http://www.w3.org/2000/svg" xmlns:xlink="http://www.w3.org/1999/xlink"><use width="259.25" height="88.25" xlink:href="#a"/><defs><g id="a"><path d="m212.3.25.55.7q8.6 16.45 21.4 26.05l-.3.25-.15.05-19.95 2.6-7.35.85 7.35-.85-6.65.9-.3.3-.4-.35-.35-.15q-15.6-7.95-22.5-20.95l-.1-.35.45-.55-.45.55-.1-.35.55-.2.3-.1 21.1-6.55 6.65-2.1.25.25-6.9 1.85 6.9-1.85m-9.4 13.7-1.25 3.75 2.1.4q2.3-.7 2.5-3.3-.1-2-2.1-2.9l-1.25 2.05m6.25-5.4 5.8 8.75v2.05q1.3.75 2.85.3l.5-.3q1-3.6-2.5-8.3l-6.65-2.5M29.75 36.3q-3.45-3.4-7.85-6.2l-.15-.1q-3.55-2.25-7.65-4.15v-.05l-.3-.4L56.7 4 64.85.4l.05.05q6.15 18.9 22.6 35.85L41.8 63.55 87.5 36.3 42.2 64.1l-.4-.55q-.9-15.3-10.6-25.8L37.8 42l3.45-1.7-3.45-8.65-.3.05q-3.75 2.75-7.75 4.6M14.1 25.85 64.9.45l-50.8 25.4m39.55 15.8h1.05l2.75-3.1q.3-3.35-2.55-4.9l-.9-.25-1.05 2.05-1.7.7-1.75 2.75.35 2.05q1.65 1.2 3.8.7M64.2 23.9q-5.15-3.05-4-2.9l-2.15-1.15q0-6.7-2.35-1.95l-2.75 5.15 8.7.3q.4-.35 2.55.55" fill="#cfac5f" fill-rule="evenodd" transform="translate(1.05 1.5)"/><path d="m212.85.95.4-.35 15.1 6.65q.85 3.6 3.2 7.35l1.25 1.9q6.35 9 21 19.15l.55.6-20.4-9 .45-.05-.15-.2q-12.8-9.6-21.4-26.05m17.5 13.4 1.2.25-1.2-.25M235 26.6l18.8 9.05L235 26.6" fill="#a67a33" fill-rule="evenodd" transform="translate(1.05 1.5)"/><path d="m209.15 8.55 6.65 2.5q3.5 4.7 2.5 8.3l-.5.3q-1.55.45-2.85-.3V17.3l-5.8-8.75m-6.25 5.4 1.25-2.05q2 .9 2.1 2.9-.2 2.6-2.5 3.3l-2.1-.4 1.25-3.75m-19.25-4.3q6.9 13 22.5 20.95l.35.15.4.35-.3.3-40.85 30.85-.4-.75 40-30.7-40 30.7.4.75-3.25 2.4-.55-.55 3.4-2.6-3.4 2.6-12.15-12.15 4.8-5.85-4.65 6 4.65-6 21.05-26.55 8-9.9M31.2 37.75l-1.45-1.45q4-1.85 7.75-4.6l.3-.05 3.45 8.65L37.8 42l-6.6-4.25m22.45 3.9q-2.15.5-3.8-.7l-.35-2.05 1.75-2.75 1.7-.7L54 33.4l.9.25q2.85 1.55 2.55 4.9l-2.75 3.1h-1.05m74.2-3.3 8.65 7 12.55 15.8-3.4-2L124.9 46.9l20.75 12.25 3.4 2 1.35 1.7-4.35-2.7-.4-1 .4 1L124.9 46.9l-8.05-5Q101.9 31.75 100.9 17l26.95 21.35M64.2 23.9q-2.15-.9-2.55-.55l-8.7-.3 2.75-5.15q2.35-4.75 2.35 1.95L60.2 21q-1.15-.15 4 2.9" fill="#b08235" fill-rule="evenodd" transform="translate(1.05 1.5)"/><path d="m228.35 7.25.15-.3 7.55 3.45-1.45 4.85-3.05-.65q-2.35-3.75-3.2-7.35m-14.5 22.65 19.95-2.6.15-.05 20.4 9-.55-.6 2.9 1.35-.35 7.3-21.75-12.4-27.8 3.6-39.5 30.25-1.55-3.5L206.6 31.4l.6-.6 6.65-.9m-192.1.1-15.7 8.25L0 33.7l.45-1.05 13.6-6.8h.05q4.1 1.9 7.65 4.15m65.75 6.3 29.3 6 .35.05 7.75 4.55 21.15 13.25.85 1.55.05.05-3.65 3.1-11.35-7.25L133 56l-1.05 1.6-16.15-10.3L87.35 44l-55.3 33.25-3.95-4.85.75-1.1 12.95-7.75.4.55 45.3-27.8" fill="#6d4b23" fill-rule="evenodd" transform="translate(1.05 1.5)"/><path d="m64.85.4.1.05.25.1 11.9 5.4 23.75 11 .05.05q1 14.75 15.95 24.9l-.05.35v.05l-29.3-6 29.3 5.95-29.3-5.95Q71.05 19.35 64.9.45h.05-.05L64.85.4" fill="#d9b780" fill-rule="evenodd" transform="translate(1.05 1.5)"/><path d="M116.8 42.3v-.05l.3.05h.05-.05l-.3-.05.05-.35.3.4v.05l-.05-.05.05.05-.35-.05" fill="#cb9d52" fill-rule="evenodd" transform="translate(1.05 1.5)"/><path d="M229.55 8.45 214.3 1.5l-.15.05-.8.2m-6.9 1.85 6.9-1.85m-28.3 8.5.3-.1m21.1-6.55L185.1 9.25m22.1 22.85.35.15 7.35-.85 19.95-2.6m-49.8-18.55-.45.55-7.9 10.25m52.85-12.6 7.55 3.45m17.75 25.25 2.9 1.35m-89.4 28.75 3.05 6.8.55 12.1m82.9-49-18.8-9.05M1.5 34.15l13.6-6.8h.05M66 1.95l.8-.45M42.85 65.05l45.7-27.25M65.95 1.95l-50.8 25.4m51.1-25.3 11.9 5.4 24.9 10.95 25.85 21.45 8.65 7 12.55 15.8 1.9 1.1M66 1.95h-.05m51.9 41.8-29.3-5.95m13.4-19.3 26.95 21.35m-2.95 8.55 20.75 12.25 3.4 2m-3-1 .85 1.55m.05.05 4 7.2-1.8 16.3m56.2-54.45-40 30.7.4.75 1.55 3.5M163 65.6l3.4-2.6M151 53.6l12 12-.7.55M151 53.6l-1.4 1.95 2.35.3M151 53.6l4.65-6 21.05-26.55m-30 39.6.4 1M125.95 48.4l-7.75-4.55m30 15.35 8.7.8m-11.6-5 4.3.55m1.5 9.85h11.7m-44.95-21.65.3.05h.05m-.05 0 .05.05m15.85 13.65L133 59.1l-4.35 6.3M29.9 72.8l12.95-7.75" fill="none" stroke="#65451f" stroke-linecap="round" stroke-linejoin="round" stroke-width="3"/><path d="m232.6 16.1-1.2-.25m5.7-3.95-1.45 4.85-3.05-.65m25.15 22.4-.35 7.3-21.75-12.4-27.8 3.6-39.5 30.25-.45.3M22.95 31.6l-.15-.1-15.7 8.25-6.05-4.55m146.9 28 .05.05m-15-4.15 11.35 7.25 3.65-3.1m-15-4.15-16.15-10.3-28.45-3.3-55.3 33.25-3.95-4.85" fill="none" stroke="#65451f" stroke-linecap="round" stroke-linejoin="round" stroke-width=".05"/></g></defs></svg>