<svg viewBox="0 0 21.446 39.495" xmlns="http://www.w3.org/2000/svg" xmlns:xlink="http://www.w3.org/1999/xlink"><g transform="translate(-264.55 -180.25)"><use transform="matrix(-.9101 -.1251 .1251 -.9101 268.52 200.94)" width="2.25" height="16" xlink:href="#a"/><use transform="rotate(-156.858 152.842 70.727) scale(.6425)" width="2.25" height="16" xlink:href="#a"/><use transform="matrix(-.7961 .1622 -.1622 -.7961 273.12 198.75)" width="2.25" height="16" xlink:href="#a"/><use transform="matrix(-.1355 -.0199 .0262 -.1786 268.84 195.47)" width="8.1" height="8.1" xlink:href="#b"/><use transform="matrix(-.1074 -.0158 .0208 -.1416 269.47 193.87)" width="8.1" height="8.1" xlink:href="#b"/><use transform="matrix(-.093 -.0136 .018 -.1227 268.73 192.85)" width="8.1" height="8.1" xlink:href="#b"/><use transform="matrix(-.0872 -.057 .0751 -.115 266.8 192.17)" width="8.1" height="8.1" xlink:href="#b"/><use transform="matrix(-.0692 -.0452 .0596 -.0912 267.61 191.42)" width="8.1" height="8.1" xlink:href="#b"/><use transform="matrix(-.0599 -.0391 .0516 -.079 267.34 190.37)" width="8.1" height="8.1" xlink:href="#b"/><use transform="matrix(-.0995 .0099 -.013 -.1311 271.45 193.48)" width="8.1" height="8.1" xlink:href="#b"/><use transform="matrix(-.0788 .0078 -.0103 -.1039 271.64 192.47)" width="8.1" height="8.1" xlink:href="#b"/><use transform="matrix(-.0683 .0068 -.009 -.0901 270.74 191.86)" width="8.1" height="8.1" xlink:href="#b"/><use transform="matrix(.176 -.3486 -.281 -.4236 283.29 196.52)" width="2.25" height="16" xlink:href="#a"/><use transform="matrix(.0668 -.3134 -.2221 -.2213 282.62 193.03)" width="2.25" height="16" xlink:href="#a"/><use transform="matrix(.2292 -.1668 -.1829 -.4556 281.65 196.89)" width="2.25" height="16" xlink:href="#a"/><use transform="matrix(.0259 -.0525 -.0555 -.0826 281.72 193.88)" width="8.1" height="8.1" xlink:href="#b"/><use transform="matrix(.0205 -.0416 -.044 -.0655 281.18 193.22)" width="8.1" height="8.1" xlink:href="#b"/><use transform="matrix(.0178 -.0361 -.0381 -.0567 281 192.48)" width="8.1" height="8.1" xlink:href="#b"/><use transform="matrix(.0044 -.0563 -.0492 -.035 281.3 191.54)" width="8.1" height="8.1" xlink:href="#b"/><use transform="matrix(.0035 -.0446 -.039 -.0277 280.86 191.41)" width="8.1" height="8.1" xlink:href="#b"/><use transform="matrix(.003 -.0387 -.0338 -.024 280.69 190.8)" width="8.1" height="8.1" xlink:href="#b"/><use transform="matrix(.0258 -.0261 -.0333 -.0708 280.53 193.69)" width="8.1" height="8.1" xlink:href="#b"/><use transform="matrix(.0204 -.0207 -.0264 -.0561 280.26 193.18)" width="8.1" height="8.1" xlink:href="#b"/><use transform="matrix(.0177 -.0179 -.0229 -.0486 280.29 192.6)" width="8.1" height="8.1" xlink:href="#b"/><use transform="matrix(.3312 .2101 .0232 -.5076 277.18 197.55)" width="2.25" height="16" xlink:href="#a"/><use transform="matrix(.2277 .048 -.0455 -.3812 278.53 195.84)" width="2.25" height="16" xlink:href="#a"/><use transform="matrix(.2696 .3241 .1164 -.362 275.68 195.05)" width="2.25" height="16" xlink:href="#a"/><use transform="matrix(.0494 .0306 .004 -.1001 277.43 194.66)" width="8.1" height="8.1" xlink:href="#b"/><use transform="matrix(.0392 .0243 .0032 -.0794 277.34 193.62)" width="8.1" height="8.1" xlink:href="#b"/><use transform="matrix(.0339 .0211 .0027 -.0688 277.69 193.28)" width="8.1" height="8.1" xlink:href="#b"/><use transform="matrix(.0351 -.0031 -.0181 -.082 278.42 193.53)" width="8.1" height="8.1" xlink:href="#b"/><use transform="matrix(.0278 -.0025 -.0143 -.065 278.16 192.91)" width="8.1" height="8.1" xlink:href="#b"/><use transform="matrix(.0241 -.0021 -.0124 -.0563 278.35 192.43)" width="8.1" height="8.1" xlink:href="#b"/><use transform="matrix(.0344 .0351 .0143 -.0638 276.69 192.81)" width="8.1" height="8.1" xlink:href="#b"/><use transform="matrix(.0273 .0278 .0114 -.0505 276.65 192.25)" width="8.1" height="8.1" xlink:href="#b"/><use transform="matrix(.0237 .0241 .0098 -.0438 277.01 192.18)" width="8.1" height="8.1" xlink:href="#b"/><use transform="matrix(.4128 -.2343 -.2872 -.7984 282.58 202.09)" width="2.25" height="16" xlink:href="#a"/><use transform="matrix(.2254 -.3055 -.27 -.4953 282.77 197.12)" width="2.25" height="16" xlink:href="#a"/><use transform="matrix(.4286 .0384 -.1187 -.7349 279.86 200.71)" width="2.25" height="16" xlink:href="#a"/><use transform="matrix(.0612 -.036 -.0572 -.1565 281.08 197.28)" width="8.1" height="8.1" xlink:href="#b"/><use transform="matrix(.0485 -.0285 -.0453 -.124 280.38 195.85)" width="8.1" height="8.1" xlink:href="#b"/><use transform="matrix(.042 -.0247 -.0393 -.1075 280.51 194.84)" width="8.1" height="8.1" xlink:href="#b"/><use transform="matrix(.0284 -.0628 -.0652 -.0929 281.26 194.03)" width="8.1" height="8.1" xlink:href="#b"/><use transform="matrix(.0225 -.0498 -.0517 -.0737 280.71 193.4)" width="8.1" height="8.1" xlink:href="#b"/><use transform="matrix(.0195 -.0431 -.0448 -.0638 280.58 192.46)" width="8.1" height="8.1" xlink:href="#b"/><use transform="matrix(.051 -.0045 -.0262 -.1192 279.36 195.83)" width="8.1" height="8.1" xlink:href="#b"/><use transform="matrix(.0404 -.0036 -.0208 -.0945 278.98 194.93)" width="8.1" height="8.1" xlink:href="#b"/><use transform="matrix(.035 -.0031 -.018 -.0819 279.27 194.23)" width="8.1" height="8.1" xlink:href="#b"/><use transform="matrix(.1447 -.5062 -.3709 -.4215 284.08 194.13)" width="2.25" height="16" xlink:href="#a"/><use transform="matrix(.0291 -.4193 -.2769 -.1908 282.83 190.03)" width="2.25" height="16" xlink:href="#a"/><use transform="matrix(.2294 -.2989 -.2671 -.5001 282.34 195.22)" width="2.25" height="16" xlink:href="#a"/><use transform="matrix(.0211 -.076 -.0732 -.0819 282 191.43)" width="8.1" height="8.1" xlink:href="#b"/><use transform="matrix(.0167 -.0603 -.058 -.0649 281.28 190.86)" width="8.1" height="8.1" xlink:href="#b"/><use transform="matrix(.0145 -.0522 -.0502 -.0563 281.05 189.93)" width="8.1" height="8.1" xlink:href="#b"/><use transform="matrix(-.0032 -.0723 -.0594 -.0246 281.19 188.7)" width="8.1" height="8.1" xlink:href="#b"/><use transform="matrix(-.0025 -.0574 -.0471 -.0195 280.74 188.68)" width="8.1" height="8.1" xlink:href="#b"/><use transform="matrix(-.0022 -.0497 -.0408 -.0169 280.37 187.97)" width="8.1" height="8.1" xlink:href="#b"/><use transform="matrix(.0247 -.0428 -.0469 -.0758 280.69 191.66)" width="8.1" height="8.1" xlink:href="#b"/><use transform="matrix(.0196 -.034 -.0372 -.0601 280.3 191.14)" width="8.1" height="8.1" xlink:href="#b"/><use transform="matrix(.017 -.0294 -.0322 -.052 280.23 190.41)" width="8.1" height="8.1" xlink:href="#b"/><use transform="matrix(.3959 .1341 -.0469 -.6458 277.46 197.88)" width="2.25" height="16" xlink:href="#a"/><use transform="matrix(.2584 -.0289 -.1048 -.4604 278.74 195.16)" width="2.25" height="16" xlink:href="#a"/><use transform="matrix(.3441 .3011 .0769 -.4997 275.48 195.28)" width="2.25" height="16" xlink:href="#a"/><use transform="matrix(.059 .0191 -.0099 -.1272 277.34 194.12)" width="8.1" height="8.1" xlink:href="#b"/><use transform="matrix(.0467 .0152 -.0079 -.1008 277.08 192.86)" width="8.1" height="8.1" xlink:href="#b"/><use transform="matrix(.0405 .0131 -.0068 -.0873 277.43 192.35)" width="8.1" height="8.1" xlink:href="#b"/><use transform="matrix(.0383 -.0176 -.0317 -.0959 278.28 192.39)" width="8.1" height="8.1" xlink:href="#b"/><use transform="matrix(.0304 -.0139 -.0251 -.076 277.9 191.66)" width="8.1" height="8.1" xlink:href="#b"/><use transform="matrix(.0263 -.0121 -.0217 -.0658 278.04 190.97)" width="8.1" height="8.1" xlink:href="#b"/><use transform="matrix(.0431 .0306 .0067 -.0856 276.27 192.15)" width="8.1" height="8.1" xlink:href="#b"/><use transform="matrix(.0341 .0243 .0053 -.0678 276.18 191.42)" width="8.1" height="8.1" xlink:href="#b"/><use transform="matrix(.0296 .021 .0046 -.0588 276.53 191.24)" width="8.1" height="8.1" xlink:href="#b"/><use transform="matrix(.4226 -.4554 -.4314 -.8893 284.13 201.33)" width="2.25" height="16" xlink:href="#a"/><use transform="matrix(.2054 -.4715 -.3691 -.5158 283.62 195.03)" width="2.25" height="16" xlink:href="#a"/><use transform="matrix(.479 -.1194 -.2362 -.8755 280.87 200.71)" width="2.25" height="16" xlink:href="#a"/><use transform="matrix(.0624 -.0691 -.0855 -.174 281.75 195.85)" width="8.1" height="8.1" xlink:href="#b"/><use transform="matrix(.0495 -.0547 -.0678 -.1379 280.82 194.41)" width="8.1" height="8.1" xlink:href="#b"/><use transform="matrix(.0429 -.0474 -.0587 -.1195 280.79 193.08)" width="8.1" height="8.1" xlink:href="#b"/><use transform="matrix(.0224 -.0898 -.0854 -.0911 281.5 191.72)" width="8.1" height="8.1" xlink:href="#b"/><use transform="matrix(.0177 -.0712 -.0676 -.0722 280.77 191.19)" width="8.1" height="8.1" xlink:href="#b"/><use transform="matrix(.0154 -.0617 -.0586 -.0625 280.49 190)" width="8.1" height="8.1" xlink:href="#b"/><use transform="matrix(.0557 -.0256 -.046 -.1393 279.59 194.76)" width="8.1" height="8.1" xlink:href="#b"/><use transform="matrix(.0441 -.0203 -.0365 -.1104 279.1 193.75)" width="8.1" height="8.1" xlink:href="#b"/><use transform="matrix(.0382 -.0176 -.0316 -.0957 279.28 192.79)" width="8.1" height="8.1" xlink:href="#b"/><use transform="translate(264.9 181.05)" width="21.1" height="38.7" xlink:href="#c"/><use transform="matrix(-.1686 .01 -.0037 .2925 270.72 184.82)" width="8.1" height="8.1" xlink:href="#b"/><use transform="matrix(-.1686 .01 -.0037 .2925 276.16 184.62)" width="8.1" height="8.1" xlink:href="#b"/><use transform="matrix(-.1686 .01 -.0037 .2925 274.72 180.22)" width="8.1" height="8.1" xlink:href="#b"/><use transform="matrix(-.5275 .4712 -.4209 -.0951 281.25 194.74)" width="8.1" height="8.1" xlink:href="#b"/><use transform="matrix(-1.3946 -.0135 .0135 -1.3946 273.81 211.73)" width="2.25" height="16" xlink:href="#a"/><use transform="rotate(-164.125 148.47 83.635) scale(.9754)" width="2.25" height="16" xlink:href="#a"/><use transform="matrix(-1.1677 .3973 -.3973 -1.1677 280.29 207.6)" width="2.25" height="16" xlink:href="#a"/><use transform="matrix(-.2079 -.0039 .0051 -.274 273.33 203.46)" width="8.1" height="8.1" xlink:href="#b"/><use transform="matrix(-.1648 -.0031 .0041 -.2172 273.83 200.93)" width="8.1" height="8.1" xlink:href="#b"/><use transform="matrix(-.1427 -.0027 .0035 -.1882 272.49 199.51)" width="8.1" height="8.1" xlink:href="#b"/><use transform="matrix(-.1423 -.0691 .091 -.1876 269.48 198.91)" width="8.1" height="8.1" xlink:href="#b"/><use transform="matrix(-.1128 -.0547 .0722 -.1487 270.61 197.6)" width="8.1" height="8.1" xlink:href="#b"/><use transform="matrix(-.0977 -.0474 .0625 -.1288 269.95 196.07)" width="8.1" height="8.1" xlink:href="#b"/><use transform="matrix(-.1479 .034 -.0448 -.195 276.78 199.99)" width="8.1" height="8.1" xlink:href="#b"/><use transform="matrix(-.1172 .027 -.0356 -.1545 276.89 198.43)" width="8.1" height="8.1" xlink:href="#b"/><use transform="matrix(-.1016 .0234 -.0308 -.1339 275.42 197.64)" width="8.1" height="8.1" xlink:href="#b"/><use transform="matrix(-1.3675 .2785 -.2785 -1.3675 277.76 208.31)" width="2.25" height="16" xlink:href="#a"/><use transform="matrix(-.9739 -.0648 .0648 -.9739 271.03 202.55)" width="2.25" height="16" xlink:href="#a"/><use transform="matrix(-1.0595 .6331 -.6331 -1.0595 283.27 202.97)" width="2.25" height="16" xlink:href="#a"/><use transform="matrix(-.2042 .0397 -.0523 -.2692 275.61 200.39)" width="8.1" height="8.1" xlink:href="#b"/><use transform="matrix(-.1619 .0314 -.0415 -.2134 275.57 197.81)" width="8.1" height="8.1" xlink:href="#b"/><use transform="matrix(-.1403 .0273 -.0359 -.1849 273.95 196.65)" width="8.1" height="8.1" xlink:href="#b"/><use transform="matrix(-.1537 -.0378 .0498 -.2027 270.9 196.72)" width="8.1" height="8.1" xlink:href="#b"/><use transform="matrix(-.1219 -.03 .0395 -.1607 271.64 195.15)" width="8.1" height="8.1" xlink:href="#b"/><use transform="matrix(-.1056 -.026 .0342 -.1392 270.76 193.81)" width="8.1" height="8.1" xlink:href="#b"/><use transform="matrix(-.1376 .0643 -.0847 -.1814 278.29 196.23)" width="8.1" height="8.1" xlink:href="#b"/><use transform="matrix(-.109 .0509 -.0671 -.1438 277.97 194.68)" width="8.1" height="8.1" xlink:href="#b"/><use transform="matrix(-.0945 .0441 -.0581 -.1246 276.44 194.2)" width="8.1" height="8.1" xlink:href="#b"/></g><defs><g id="a" fill="#58b8eb" fill-rule="evenodd"><path d="m1.85-10.9.5 3.3v9.05l-.8 3.45H1.5l-.05-4V.65l.1-1.95.5 2-.4-3.9.4-5.4-.2-2.3" transform="translate(-.1 11.1)"/><path d="M.1.8v-3.05l1.2-7 .55-1.85v.2l.2 2.3-.4 5.4.4 3.9-.5-2-.1 1.95V.9l-.9 1.2L.1.8" transform="translate(-.1 11.1)"/><path d="m1.5 4.9-.95-.1-.4-2.15L.1.8l.45 1.3.9-1.2.05 4" transform="translate(-.1 11.1)"/></g><g id="c" fill-rule="evenodd"><path d="m20.9 11.3-3.3-5.1-6.75-15.1-1.35-6.25.05-.05 3.15 6.55.25.5 1.3 3.3L11.9-7.9l3.55 6.25 3.5 9.2 1.95 3.75" fill="#71c2ee" transform="translate(0 18.9)"/><path d="m15-9.45 2.35 5L20.6 8.1l.5 3.5-.2-.3-1.95-3.75-3.5-9.2L11.9-7.9l2.35 3.05-1.3-3.3-.2-.5.55-2.65L15-9.45" fill="#dff7ff" transform="translate(0 18.9)"/><path d="m9.55-15.2 1.65-.6 2.35 3.3.05-.05 1.4 3.1-1.7-1.85-.55 2.65h-.05L9.55-15.2" fill="#9ccff3" transform="translate(0 18.9)"/><path d="m12.1-5 .7 4.15-2.05-4.1 2.8 8.1 1.9 11.55 1.45 4.75-2.7-6.75L9.8-6.35l-.15-7.55.1-.05 2.2 8.35.15.6" fill="#71c2ee" transform="translate(0 18.9)"/><path d="m16.9 19.45-1.45-4.75-1.9-11.55-2.8-8.1 2.05 4.1L12.1-5l-.1-.6 1.2-2.95L14.8-6 16.35.3l.9 15.35-.2 4.15-.15-.35" fill="#dff7ff" transform="translate(0 18.9)"/><path d="m11.95-5.6-2.2-8.35 2-.3 2.05 4.3h.05L14.8-6l-1.6-2.55L12-5.6h-.05" fill="#9ccff3" transform="translate(0 18.9)"/><path d="m11.4 19.05-2.15-6.9L6.35-7.2l.45-7.6h.1l1.55 8.55.1.6.35 4.15-1.65-4.2 2.1 8.3 1 11.6 1.05 4.85" fill="#71c2ee" transform="translate(0 18.9)"/><path d="m11.35-6.45 1.05 6.4-.3 15.4-.6 4.1-.1-.4-1.05-4.85-1-11.6-2.1-8.3L8.9-1.5l-.35-4.15-.05-.6L9.95-9.1l1.4 2.65" fill="#dff7ff" transform="translate(0 18.9)"/><path d="m6.9-14.8 2.1-.15 1.65 4.5h.05l.65 4-1.4-2.65L8.5-6.25h-.05L6.9-14.8" fill="#9ccff3" transform="translate(0 18.9)"/><path d="M5.9 10.25 4.75 5.3 3.8-8.5l.7-5.3h.1l.6 6.05.05.45.05 2.95-.95-3.05.95 5.95.15 8.25.45 3.45" fill="#71c2ee" transform="translate(0 18.9)"/><path d="m7.25-7.75.4 4.6L6.55 7.7l-.6 2.8-.05-.25-.45-3.45-.15-8.25-.95-5.95.95 3.05-.05-2.95v-.45l1.15-1.9.85 1.9" fill="#dff7ff" transform="translate(0 18.9)"/><path d="M4.6-13.8h1.45l.9 3.25H7l.25 2.8-.85-1.9-1.15 1.9H5.2l-.6-6.05" fill="#9ccff3" transform="translate(0 18.9)"/><path d="m1.35-16.3.5.1.1.05 1.2 1.35-.25.1-1.55-1.6m5.35 3.45-.05.15-3.85-1.85.15-.05.2-.05.1.05 3.45 1.75" fill="#dff7ff" transform="translate(0 18.9)"/><path d="m1.95-16.15 3.4 1.65.4.4q-.6-.6-2.7-1.35-.45.15.85.95l2.6 1.35.2.25v.05L3.25-14.6l.05-.05-.15-.15-1.2-1.35" fill="#c1f3ff" transform="translate(0 18.9)"/><path d="M1.4-13.85 0-15.6l1.35-.7 1.55 1.6-.15.15-1.35.7" fill="#a8daf4" transform="translate(0 18.9)"/><path d="m5.75-14.1.75.95-2.6-1.35q-1.3-.8-.85-.95 2.1.75 2.7 1.35m.9 1.4-.1.25-1.05.55-4.1-1.95 1.35-.7h.05l3.85 1.85" fill="#9ccff3" transform="translate(0 18.9)"/><path d="M10.5-17.6v-.1h.25l-.1-.05h-.15l-.05.1.05.05m.35-1.15.2-.15.9.1-.35 1.15-1.7 1.85-.65-.05L9.1-16l.3-1.15 1.45-1.6" fill="#8896da" transform="translate(0 18.9)"/><path d="m8.65-15.3 4.2.95 1.9-2.8-.1-.1q-1.8.9-4.25.95l1.7.65-2.15-.25-1.3.6" fill="#dff7ff" transform="translate(0 18.9)"/><path d="m14.65-17.25-5 .3-1 1.65 1.3-.6 2.15.25-1.7-.65q2.45-.05 4.25-.95" fill="#71c2ee" transform="translate(0 18.9)"/><path d="m11.95-15.05-.3-.1h-.1l-1.05.75.15.25 1.3-.9m-4 1.1v.2l2.7-.25-.05-.1-.15-.1h-.05l-2.45.25" fill="#dff7ff" transform="translate(0 18.9)"/><path d="m11.55-15.15-2.4.15-.3.25 1.9-.2q.25.35-.75.55l-1.85.25-.2.15v.05l2.45-.25v-.1l.1-.1 1.05-.75" fill="#c1f3ff" transform="translate(0 18.9)"/><path d="m11.3-12.8 1.25-1-.6-1.25-1.3.9.05.15.6 1.2" fill="#a8daf4" transform="translate(0 18.9)"/><path d="m8.85-14.75-.7.6L10-14.4q1-.2.75-.55l-1.9.2m-.9 1v.2l.5.9 2.85-.15-.6-1.2h-.05l-2.7.25" fill="#9ccff3" transform="translate(0 18.9)"/><path d="m4.05-15.05 1.05.75-.15.25-1.3-.9.3-.1h.1m1.15.95 2.45.25v.2l-2.7-.25L5-14l.15-.1h.05" fill="#dff7ff" transform="translate(0 18.9)"/><path d="m5.1-14.3-1.05-.75 2.4.15.3.25-1.9-.2q-.25.35.75.55l1.85.25.2.15v.05L5.2-14.1v-.1l-.1-.1" fill="#c1f3ff" transform="translate(0 18.9)"/><path d="m3.65-14.95 1.3.9-.05.15-.6 1.2-1.25-1 .6-1.25" fill="#a8daf4" transform="translate(0 18.9)"/><path d="M7.45-14.05 5.6-14.3q-1-.2-.75-.55l1.9.2.7.6M4.3-12.7l.6-1.2h.05l2.7.25v.2l-.5.9-2.85-.15" fill="#9ccff3" transform="translate(0 18.9)"/></g><radialGradient id="d" cx="0" cy="0" r="819.2" gradientTransform="translate(4.05) scale(.0051)" gradientUnits="userSpaceOnUse"><stop stop-color="#58b8eb" offset="0"/><stop stop-color="#58b8eb" stop-opacity="0" offset="1"/></radialGradient><path d="M4.05-4.05q1.7 0 2.85 1.15Q8.1-1.7 8.1 0T6.9 2.85q-1.15 1.2-2.85 1.2t-2.9-1.2Q0 1.7 0 0t1.15-2.9q1.2-1.15 2.9-1.15" fill="url(#d)" fill-rule="evenodd" transform="translate(0 4.05)" id="b"/></defs></svg>