<svg viewBox="0 0 13.9 33.232" xmlns="http://www.w3.org/2000/svg" xmlns:xlink="http://www.w3.org/1999/xlink"><use width="13.9" height="33.25" xlink:href="#a"/><defs><g id="a"><path d="m288.45 183.3-.05-.65q2.1-.45 3.55-1.45l2.45-2 .05.2v.3l-2.1 2.6-.4.45-3.5.55m3.65-1.8.25.8-.25-.8m-1.4 1 .4-.5-.4.5m7.8 24.2-.4-.45-.1-.1.9-1.55 1.05 1.95h-.05l-.4 1.05h-.05l-.85-.8-.1-.1m-2.45.05.35.95.35.8-.05.05-.2.3-.05.45v.2q-.2.95-1.05 1.2l-1.4.2h-.1l-.7-1.6-.2-.55-.05-.15q2.2.65 3.1-1.85m0 1.9-.45-.1.45.1m-1.4 1.3-.1-.7.1.7m-4.8 1.35-.2.15-.65.3-.8-1-.5-.85 1.95-1.15.05.7.15 1.85m9.7-4.8h-.7.7m-10.25 4.15-.25-.75.25.75" fill="#a74e12" fill-rule="evenodd" transform="translate(-286.15 -179.2)"/><path d="m288.45 183.3 3.5-.55.4-.45 2.1-2.6q2.1 19.1 4.45 24.9l-.9 1.55q-2.05-2.45-2.5-5.45-.4 2.95.5 5.95l.05.1q-.9 2.5-3.1 1.85-.4-1.3-.75-5.8t-1.15-7.15q-.05 2.35-.8 6.9-.7 4.1-.6 6.2l-1.95 1.15q-.95-1.8-1.15-4.3l.65-8.35q1.25-11.2 1.25-13.95M294 182l-.1.9.1-.9m-.15 4.75-.55-1.75.55 1.75m-.1 6.65-1.25.15 1.25-.15m1.7 2.85-.1-1.2.1 1.2m-.85-5.85.2-.8-.2.8m-4.6 4.7-1 1.3 1-1.3m.05-4 .3-1.95-.3 1.95m2.65-1.5-.5-1.3.5 1.3m-1-4.7-.7.7.7-.7m-2.4.8.3-1-.3 1m7.5 12.7-.5.5.5-.5m.6 3.8-.1-.8.1.8m-2.7 3-.95-.9.95.9m-4.9-5.2-.3-1.4.3 1.4m-1.55 3.3.65-1.5-.65 1.5m.45 3.3-1-.6 1 .6m5.4-4.9-.7.5.7-.5m.65-2.5-1.15-1.05 1.15 1.05m-.6 8.65-.6-1.2.6 1.2" fill="#633a1d" fill-rule="evenodd" transform="translate(-286.15 -179.2)"/><path d="m298 206.15.1.1.4.45-2.1 1-.35-.95-.05-.1q-.9-3-.5-5.95.45 3 2.5 5.45m-8.35 2.6q-.1-2.1.6-6.2.75-4.55.8-6.9.8 2.65 1.15 7.15t.75 5.8l.05.15.2.55-3.5.15-.05-.7" fill="#462b15" fill-rule="evenodd" transform="translate(-286.15 -179.2)"/><path d="M299.45 207.6h.05l-.05.05v-.05m.45-1.05h.05-.05" fill="#cf3e29" fill-rule="evenodd" transform="translate(-286.15 -179.2)"/><path d="m296.8 208.5-.1.05.05-.05h.05m2-.85.65-.05v.05h-.65m1.1-1.1h.1l.05.05H300l-.1-.05" fill="#555ba0" fill-rule="evenodd" transform="translate(-286.15 -179.2)"/><path d="m298.5 206.7.1.1.85.8-.65.05-1.95.85h-.1l-.35-.8 2.1-1m-4.6 4.2h-1.45l-2.6.4-.15-1.85 3.5-.15.7 1.6m3.8-3.3-.35.1.35-.1m-5.2 2.2-.35.7.35-.7" fill="#88400f" fill-rule="evenodd" transform="translate(-286.15 -179.2)"/><path d="m289 211.75.65.6v.05q-2.3.2-3.5-.85l.1-1.4 1.95.6.8 1" fill="#ce7759" fill-rule="evenodd" transform="translate(-286.15 -179.2)"/><path d="m286.25 210.15.3-4.55q.2 2.5 1.15 4.3l.5.85-1.95-.6" fill="#8d6745" fill-rule="evenodd" transform="translate(-286.15 -179.2)"/><path d="m289.65 212.35.05.05h-.05v-.05" fill="#fff" fill-rule="evenodd" transform="translate(-286.15 -179.2)"/><path d="m11.2 28.5.35-.1M6 31.3l.35-.7" fill="none" stroke="#eb8d50" stroke-linecap="round" stroke-linejoin="round" stroke-width=".05"/><path d="m6.2 3.1-.25-.8m-1 .5-.4.5M8.4 30.05l.1.7m.95-1.4.45.1m2.8-2.15h.7M2.9 30.7l.25.75" fill="none" stroke="#f1b085" stroke-linecap="round" stroke-linejoin="round" stroke-width=".05"/><path d="m7.75 3.7.1-.9m-3 3.6.7-.7m.5 3.4.5 1.3M4.2 9.95l-.3 1.95m-1.05 5.3 1-1.3m4.8-5.5-.2.8m.75 4.65.1 1.2m-2.95-2.7 1.25-.15m-.45-8.4.55 1.75M3.45 5.5l-.3 1m8 15.7.1.8m-1.1-3.3.5-.5M7.6 25.1l.95.9m-5.2-6.6.3 1.4m-2.1 6 1 .6m.2-4.8-.65 1.5m5.35-5.15L8.6 20m-1.35 3 .7-.5m-.55 4.95.6 1.2" fill="none" stroke="#bb7037" stroke-linecap="round" stroke-linejoin="round" stroke-width=".05"/></g></defs></svg>