<svg viewBox="0 0 12.3 32.85" xmlns="http://www.w3.org/2000/svg" xmlns:xlink="http://www.w3.org/1999/xlink"><use width="12.3" height="32.85" xlink:href="#a"/><defs><linearGradient id="b" x1="-819.2" x2="819.2" gradientTransform="matrix(-.0007 .0129 -.0116 -.0007 9.8 3.75)" gradientUnits="userSpaceOnUse"><stop stop-color="#f85656" offset="0"/><stop stop-color="#fa7272" offset=".055"/><stop stop-color="#faafb0" stop-opacity="0" offset="1"/></linearGradient><linearGradient id="c" x1="-819.2" x2="819.2" gradientTransform="matrix(-.0027 -.0058 .0052 -.0024 10.1 4.85)" gradientUnits="userSpaceOnUse"><stop stop-color="#f85656" offset="0"/><stop stop-color="#fa7272" offset=".055"/><stop stop-color="#faafb0" stop-opacity="0" offset="1"/></linearGradient><linearGradient id="d" x1="-819.2" x2="819.2" gradientTransform="matrix(-.0006 -.0063 .0034 -.0003 7.9 8.4)" gradientUnits="userSpaceOnUse"><stop stop-color="#f85656" offset="0"/><stop stop-color="#fa7272" offset=".055"/><stop stop-color="#faafb0" stop-opacity="0" offset="1"/></linearGradient><linearGradient id="e" x1="-819.2" x2="819.2" gradientTransform="matrix(0 -.0047 .0025 0 11.1 8.6)" gradientUnits="userSpaceOnUse"><stop stop-color="#f85656" offset="0"/><stop stop-color="#fa7272" offset=".055"/><stop stop-color="#faafb0" stop-opacity="0" offset="1"/></linearGradient><linearGradient id="f" x1="-819.2" x2="819.2" gradientTransform="matrix(-.0007 -.0058 .0014 -.0024 8.05 11.8)" gradientUnits="userSpaceOnUse"><stop stop-color="#f85656" offset="0"/><stop stop-color="#fa7272" offset=".055"/><stop stop-color="#faafb0" stop-opacity="0" offset="1"/></linearGradient><g id="a"><path d="m7.1 3.1.25.65-.25.65-.65.25q-.4 0-.65-.25l-.3-.65q0-.4.3-.65.25-.3.65-.3l.65.3M7.25 5.05l.15.35-.15.35-.35.2-.4-.2-.1-.35.1-.35.4-.1.35.1M12.5 1.6q.55.55.55 1.3 0 .7-.55 1.25-.5.5-1.25.5T10 4.15q-.5-.55-.5-1.25 0-.75.5-1.3.5-.5 1.25-.5t1.25.5M13.9 8.7l.15.35-.15.35-.35.15-.35-.15-.15-.35q0-.2.15-.35.1-.15.35-.15.2 0 .35.15M11.2-10.15l-.25.4-.55.15-.4-.3-.1-.5.3-.45.5-.1.45.3.05.5M10.1-9.25 9.9-9l-.25.05Q9.45-9 9.4-9.1l-.05-.3.15-.25.3-.05.25.2.05.25M14.35-7.3l-.6.85-1 .15-.8-.6q-.3-.45-.2-.95.15-.55.6-.85l1-.15q.5.05.8.5.3.5.2 1.05M10.45-3.65l-.15.25-.3.05-.25-.15-.05-.3.2-.2.25-.1.25.2.05.25" fill="#fe1f1f" fill-rule="evenodd" transform="translate(-4.35 14.25)"/><path d="m13.1-14.25-.3.45q-1.15 1.65.3 2.25.95.4 1.85.5l1.7-.2-.9 1.2q-.55.8-1 2.8-.45 1.95-.5 5t.35 4.8v.4l.35 5.65q-6.8 20-10.6 0l.35-6.1Q4.65-3.05 7.45-9.3q1.3-2.3 2.65-3.2 1.2-1.1 2-1.25v-.05l1-.45" fill="url(#b)" fill-rule="evenodd" transform="translate(-4.35 14.25)"/><path d="M8.15-3.4h.35l.3.3v.45l-.3.25-.45-.05-.2-.25v-.4l.3-.3M9.25-3h.15l.2.15v.25l-.2.15-.25-.05-.1-.1v-.25l.2-.15M8.65-6.6q.45-.2.85 0l.5.6-.05.8-.55.5-.75-.05-.6-.55.05-.8.55-.5M12.75-5.6l.25-.05.1.2v.25l-.15.1h-.2l-.15-.15q-.1-.1-.05-.2l.2-.15" fill="#fe1f1f" fill-rule="evenodd" transform="translate(-4.35 14.25)"/><path d="M4.7 16.15q-.6.65-1.5.65t-1.55-.65q-.6-.6-.6-1.5t.6-1.55q.65-.6 1.55-.6t1.5.6q.65.65.65 1.55t-.65 1.5zM8.8 12.55q-.4.4-.95.4-.6 0-1.05-.4-.35-.4-.35-1 0-.55.35-1 .45-.4 1.05-.4.55 0 .95.4l.45 1q0 .6-.45 1zM4.55 22.7q-.4.45-1 .45t-1-.45q-.4-.35-.4-.95t.4-1.05q.4-.4 1-.4t1 .4q.45.45.45 1.05z" fill="none" stroke="red" stroke-linecap="round" stroke-linejoin="round" stroke-opacity=".471" stroke-width=".05"/><path d="M11.5.1q1.9.85 2.8 2.8t.3 3.9q-.6 2-2.3 2.8-1.75.8-3.65 0t-2.8-2.75-.3-3.95Q6.15.95 7.9.15q1.7-.8 3.6-.05" fill="url(#c)" fill-rule="evenodd" transform="translate(-4.35 14.25)"/><path d="M9.55 4.6Q10.5 6 10.7 8.15q.25 2.15-.4 3.75-.7 1.6-1.85 1.7-1.15.15-2.15-1.35-.95-1.4-1.2-3.55-.2-2.15.45-3.75.7-1.6 1.85-1.75 1.15-.1 2.15 1.4" fill="url(#d)" fill-rule="evenodd" transform="translate(-4.35 14.25)"/><path d="M12.6 5.9q.6 1.1.6 2.7-.05 1.6-.65 2.75-.65 1.1-1.5 1.1t-1.45-1.1Q9 10.2 9.05 8.6q0-1.6.6-2.7.6-1.15 1.45-1.15t1.5 1.15" fill="url(#e)" fill-rule="evenodd" transform="translate(-4.35 14.25)"/><path d="m11.45 9.65-.1.05-.1-.05-.05-.1.05-.1.1-.05.1.05.05.1-.05.1m-1.5 1.3-.1.15-.15.1-.2-.1-.05-.15.05-.2.2-.05.15.05.1.2m-.9-3.55q.25 0 .45.2l.2.45-.2.45q-.2.2-.45.2l-.45-.2-.2-.45.2-.45.45-.2m-2.5 1.85.55.2.25.6-.25.55-.55.25q-.35 0-.6-.25l-.2-.55.2-.6q.25-.2.6-.2M8.4 10.7l-.05.1-.1.05-.1-.05-.05-.1.05-.1.1-.05.1.05.05.1m.65 1.95-.35.15q-.2 0-.35-.15l-.15-.35.15-.35q.15-.15.35-.15l.35.15.15.35-.15.35M11.8 8.95l-.05-.1.05-.1.1-.05.1.05.05.1-.05.1-.1.05-.1-.05M10.5 7.5l-.15-.1-.1-.1.05-.2.15-.05.2.05.1.2-.05.1-.2.1m3.3-.5-.4.2-.5-.15-.2-.45.2-.45.45-.25.45.2.2.45-.2.45m-1.7-2.9-.2.55-.55.25q-.35.05-.6-.2l-.25-.55q0-.35.25-.6.2-.2.55-.25l.6.2.2.6M10.7 6l-.1-.05-.05-.1.05-.1.1-.05.1.05.05.1-.05.1-.1.05m-1.95.7-.15-.35.15-.35.35-.2.35.15.15.35-.15.35-.35.15-.35-.1" fill="red" fill-rule="evenodd" transform="translate(-4.35 14.25)"/><path d="M8.45 7.05q.45.85.7 2.8t.1 3.9q-.15 2-.6 2.8t-1 0q-.45-.8-.7-2.75t-.1-3.95Q7 7.9 7.45 7.1l1-.05" fill="url(#f)" fill-rule="evenodd" transform="translate(-4.35 14.25)"/></g></defs></svg>