<svg viewBox="0 0 36.875 93.449" xmlns="http://www.w3.org/2000/svg" xmlns:xlink="http://www.w3.org/1999/xlink"><use transform="translate(.02)" width="36.85" height="93.4" xlink:href="#a"/><defs><g id="a"><path d="m264.95 216.35.1-.1v.2l-.1-.1" fill="#87705f" fill-rule="evenodd" transform="translate(-254.1 -154.15)"/><path d="m265.15 216.3-.1.15v-.2l.1.05" fill="#2f2d1a" fill-rule="evenodd" transform="translate(-254.1 -154.15)"/><path d="m263.5 247.4.1.1h-.1v-.1" fill="#fff" fill-rule="evenodd" transform="translate(-254.1 -154.15)"/><path d="M265.05 216.25q2.65-15.3 3.35-17.6l.25 12.7.05.5q-1.35.6-3.55 4.45l-.1-.05" fill="#452549" fill-rule="evenodd" transform="translate(-254.1 -154.15)"/><path d="m255.9 208.35.3-5.45q1.35-12.5 1.6-19.45.3-10.8-1.35-19.65 13.15-2.9 21.3-9.65 2.65 3.1 3.5 6.85l.05.4.8 18.35.05.6q.4 11.2 1.45 19.95v.35q.85 14.4 3.15 21.4l-3.05 1.45-3.95-5.5-.3-1.8-.15 1.2-4.95-8.85-1.95 3-3.75-.2-.25-12.7q-.7 2.3-3.35 17.6l-.1.1-2.4 2.45-.05.15-3.95 6.45-2.65-17.05m22.7-25.05-3.25 6.25-1.9 8.75 6.2 3.3 1.65-9.15-2-1.5-.7-7.65m-2.1-.15.7-8.7-4.2 7 2.3 3.05 1.2-1.35m.7 22.85 6.2 9.8q-2.2-6.4-.95-12.55L277.2 206m-19.4-6.85 2.2 8.2 3.2-7.25q-.65-1-3.35-.45l.65-11-2.25 7.7-.45 2.8" fill="#7c4383" fill-rule="evenodd" transform="translate(-254.1 -154.15)"/><path d="M286.75 222.05q1.3 4.45 4.2 9.25l-1.9.3.1 2.25q-7.7-8.3-9.4-15.85l3.95 5.5 3.05-1.45m-7.45 3.45-3.3-3.1.5-2.4-2.65 1.6-2.25 6.5 4.1 1.2 2 4.85-2 .7-1.65-1-1.25 1.95h.95l-1.55 3.9q-1.6-8.5-2.55-15.95l.8.6-.35-2.75-.85-1.2-.55-8.55-.05-.5 3.75.2 1.95-3 4.95 8.85q-.4 4.45 0 8.1m-15.8 8.25-3.15 3.55 1.35 3.45 1.3 1.2v.5l-1.3 3.15q-6.65-7-7.5-16.3l.25-3.3q.25-7.8 1.45-17.65l2.65 17.05 3.95-6.45.05-.15 2.4-2.45.1.1-1.55 16.2q-.15.6 0 1.1m8.45-15.7 4.8.75-1.8-7.1-3 6.35" fill="#7e4767" fill-rule="evenodd" transform="translate(-254.1 -154.15)"/><path d="m289.15 233.85-6.1-2.15-2.55-2.2 2.3-1.65q-3.35-.5-3.5-2.35-.4-3.65 0-8.1l.15-1.2.3 1.8q1.7 7.55 9.4 15.85m-16.95 5.85-3.55-1.5.25-.9-4.95-4.2-.45.65q-.15-.5 0-1.1l1.55-16.2.1-.15q2.2-3.85 3.55-4.45l.55 8.55-1.2.2-.95 2.9 1.1 1.3 1.45-1.05q.95 7.45 2.55 15.95m-10.5 5.9 1.8 1.8v.1q-5.9.5-9.4-2.4l.1-15.8q.85 9.3 7.5 16.3" fill="#573147" fill-rule="evenodd" transform="translate(-254.1 -154.15)"/><path d="m7.6 91.45 1.9 1.9h-.1q-5.9.5-9.4-2.4m.1-15.8q.85 9.3 7.5 16.3z" fill="none" stroke="#7b6b53" stroke-linecap="round" stroke-linejoin="round" stroke-width=".05"/></g></defs></svg>