<svg viewBox="0 0 97.316 94.417" xmlns="http://www.w3.org/2000/svg" xmlns:xlink="http://www.w3.org/1999/xlink"><use transform="translate(-5.9 .01) scale(.4517)" width="241.7" height="213.1" xlink:href="#a"/><defs><g id="a" transform="translate(1.7)"><use transform="translate(48.15)" width="111.3" height="173" xlink:href="#b"/><use transform="matrix(-.3646 .5077 -.5077 -.3646 240 101.36)" width="77.05" height="214.35" xlink:href="#c"/><use transform="matrix(-.4836 .396 -.396 -.4836 223 163.51)" width="77.05" height="214.35" xlink:href="#c"/><use transform="matrix(.6867 .3868 .3067 -.5444 30.983 183.31)" width="77.05" height="214.35" xlink:href="#c"/><use transform="matrix(.3654 .6177 .4897 -.2897 -1.72 88.463)" width="77.05" height="214.35" xlink:href="#c"/><use transform="translate(96.15 33.3)" width="18.3" height="17.7" xlink:href="#d"/><use transform="translate(116.8 29.35)" width="18.3" height="17.7" xlink:href="#d"/><use transform="translate(123.15 62.4)" width="18.3" height="17.7" xlink:href="#d"/><use transform="translate(93.9 69.2)" width="18.3" height="17.7" xlink:href="#d"/></g><g id="b"><path d="m123.3 9.45.6.9.5.8q.2 1-.65 1.9-5.6-8-15.5-10.6L108 2.4Q102.75 1 96.35 1.15l3.85.75q5.9 1.2 4.65 1.95H86.9q-3.3.35-5.4 3.1v3.3h-1.2l-.9-1.7-11.65-.7q-6.55 0-14.25 1.75-.35 1.45 10.3 3.2l1.65.25 11.6 3.4 1.85.5 1 .3 3.2.9v2.8Q76.7 20.1 71 18.7q-8-1.95-14.65-4.9l5.2 2.65q7.15 3.75 4.2 3.65-10.25-3.1-16.6-7.95.7-.85 3.6-2.9l.15-.15q2.55-1.8 25.4-2.85Q84 .45 101.2 0q16.65 2.3 22.1 9.45m5.65 14.45-.25.55-2 1.05-3.7 2-12.75 1.85q-2.95.45-7.95-1.35l.05-.4q.15-1.55-.8-5l-.25-.85q-2.5-.6-5.4-3.1 8.8.55 15.25.15l1.6-.1q8-.65 12.05-2.85l3.15 5.6 1.15 2.1-.15.35" fill="#e85019" fill-rule="evenodd" transform="translate(-48.15)"/><path d="m128 25.55-.5 5.8 7.2 22.6 8.8 3.85-14.55-33.9.15-.35-1.15-2.1 3.4 1.6 14.95 36 1.55 3.8-27.75 8.7q-14.4 2.9-28.8-3.8-4.9-10.9 6.2-24.5 8.75.7 25.7-9.3V28.9q3.2-1.3 4.8-3.35m-16.85-6.75q-6.45.4-15.25-.15l-3.1 2.9q-1.8 1.65-3.35.4-2.35-1-1.1-6.05l.1-.05q6.65-.7 16.05-.4l1.25.05 5.4 3.3m32.9 47.9q7.15 19.1 14.55 48.85l.85 3.55-8.95 2.05q-11.7 7.45-27.2 8.8l-29-4.4q-10.15-15.1-1.8-34.4 8.8 2.4 17.6 0l25.2-9.6 13.8 32.2 7.1 1.35-13.7-45.75 1.55-2.65m9 67.25q-.9 7.05-2.6 14.05v.05L146.7 157l-28.2 5.35q-7.35-5.6-10.4-12l10.4-.4q12.8-.9 25.6-7.6v11.8l3.15-3.05 3.95-15.4 1.85-1.75" fill="#c06407" fill-rule="evenodd" transform="translate(-48.15)"/><path d="M123.75 13.05q.85-.9.65-1.9l6.95 11.9-3.4-1.6-3.15-5.6q-4.05 2.2-12.05 2.85l-1.6.1-5.4-3.3 4.15.15h8.1q4.35-1.1 5.75-2.6m4.95 11.4.25-.55 14.55 33.9-8.8-3.85-7.2-22.6.5-5.8.7-1.1m13.8 44.9 13.7 45.75-7.1-1.35-13.8-32.2 7.2-12.2m1.6 73 7.1-6.65-3.95 15.4-3.15 3.05v-11.8" fill="#fff024" fill-rule="evenodd" transform="translate(-48.15)"/><path d="M83.1 20.95v-4.3l5.25-.75q-1.25 5.05 1.1 6.05 1.55 1.25 3.35-.4l3.1-2.9-6.2 10.9-8.2-1.35h-.05l.55-1.5 1.1-2.95v-2.8m64.75 41.9-3.8 3.85-9.15 7.05-9.05 2.35 9.05-2.35 9.15-7.05-1.55 2.65-7.2 12.2-25.2 9.6q-8.8 2.4-17.6 0-8.35 19.3 1.8 34.4l29 4.4q15.5-1.35 27.2-8.8l8.95-2.05-5.6 6.25-.8 8.6-1.85 1.75-7.1 6.65q-12.8 6.7-25.6 7.6l-10.4.4q3.05 6.4 10.4 12l28.2-5.35 3.75-8.95V148q-1.65 6.65-4 13.25L128.9 173l-14.2-2.35q-13.55-8.8-21-24.3 18 .6 37.2-4.8l12.5-10.3-19.55 5.9-6.9 1.95-4.1 1.15q-3.75-.95-27.55-2.25-12.25-15.75-10.35-30.25 7.2-10.1 8.75-20.2 7.65 1.85 22.8 0l19.35-11.45-17.45 4.5H85.7q-11.4-23.9 0-43.45l13.6-.4 22.4-7.35.95-.3.1-.05.45-.15v5.05q-16.95 10-25.7 9.3-11.1 13.6-6.2 24.5 14.4 6.7 28.8 3.8l27.75-8.7m-4.45 68.4 10.45-5.9-10.45 5.9" fill="#812c07" fill-rule="evenodd" transform="translate(-48.15)"/><path d="m122.75 29.05.45-.15-.45.15M88.35 15.9v-.05.05" fill="#b5a179" fill-rule="evenodd" transform="translate(-48.15)"/><path d="M49.15 12.15Q55.5 17 65.75 20.1q2.95.1-4.2-3.65Q65.6 17.9 71 18.7q5.7 1.4 12.1 2.25v2.8L82 26.7l-.55 1.5Q58.95 25.1 49 17l-.35-.6q-1.15-2.3.5-4.25m33.95 6-3.2-.9.55-2.25q.8-1.95-.35-3.3l-.5 3.2-.7 2.05-1.85-.5.5-1.8.7-4.55q-3.5-1-7.9 0l-6.55 2.7q-10.65-1.75-10.3-3.2 7.7-1.75 14.25-1.75l11.65.7.9 1.7h1.2v-3.3q2.1-2.75 5.4-3.1h17.95q1.25-.75-4.65-1.95l7.8.5.25.05q9.9 2.6 15.5 10.6-1.4 1.5-5.75 2.6-5.45-9.3-29.85-9.6h-3.4l-2.45 2.8.75 2 .5 1.4q-1.6-1.3-.45 4.4v1.5m45.6 6.3-.7 1.1q-1.6 2.05-4.8 3.35l-.45.15-.1.05-.95.3q-8.7 2.65-27 .35l1.2-11.1q2.9 2.5 5.4 3.1l.25.85q.95 3.45.8 5l-.05.4q5 1.8 7.95 1.35L123 27.5l3.7-2 2-1.05M78.25 10.1l2.05.15-2.05-.15" fill="#c24215" fill-rule="evenodd" transform="translate(-48.15)"/><path d="m61.55 16.45-5.2-2.65Q63 16.75 71 18.7q-5.4-.8-9.45-2.25M100.2 1.9l-3.85-.75Q102.75 1 108 2.4l-7.8-.5" fill="#68390b" fill-rule="evenodd" transform="translate(-48.15)"/><path d="m83.05 10.85 2.05 5.45h-.05.05-.05l-1.95.35q-1.15-5.7.45-4.4l-.5-1.4" fill="#995210" fill-rule="evenodd" transform="translate(-48.15)"/><path d="m85.1 16.3 3.25-.4-5.25.75 1.95-.35h.05" fill="#f2e4c1" fill-rule="evenodd" transform="translate(-48.15)"/><path d="m114.7 170.65-14.15-2.4q-16.3-13.65-23.95-30.7-3.2 0-8.6-2.8Q66.2 109 72.65 80.6l-4.9-3.65q1-19.85 8-33.85 6.85-13.8 5.75-14.9l8.2 1.35 6.2-10.9-1.2 11.1q18.3 2.3 27-.35l-22.4 7.35-13.6.4q-11.4 19.55 0 43.45h22.7l17.45-4.5-19.35 11.45q-15.15 1.85-22.8 0-1.55 10.1-8.75 20.2-1.9 14.5 10.35 30.25 23.8 1.3 27.55 2.25l4.1-1.15 6.9-1.95 19.55-5.9-12.5 10.3q-19.2 5.4-37.2 4.8 7.45 15.5 21 24.3m-38.1-33.1 8.7.45-8.7-.45m9.1-56.95H72.65 85.7" fill="#3d0200" fill-rule="evenodd" transform="translate(-48.15)"/><path d="M75.15 9.45Q69.7 2.3 53.05 0q-17.2.45-22.9 6.25Q7.3 7.3 4.75 9.1l-.15.15Q1.7 11.3 1 12.15m16.3.9-1.65-.25Q5 11.05 5.35 9.6m70.9 1.55-.5-.8M80.8 23.9l-.25.55-.7 1.1m.95-1.65.15-.35-1.15-2.1-3.15-5.6q-4.05 2.2-12.05 2.85l-1.6.1q-6.45.4-15.25-.15l-1.2 11.1q18.3 2.3 27-.35M33.3 28.2Q10.8 25.1.85 17l-.35-.6q-1.15-2.3.5-4.25m73.6 16.9.45-.15q3.2-1.3 4.8-3.35M37.55 80.6h22.7l17.45-4.5 9.05-2.35 9.15-7.05M74.6 29.05l-.1.05m-4.65-13.45Q64.4 6.35 40 6.05h-3.4l-2.45 2.8m2.8 7.45h-.05m-4.75-6.05-2.05-.15m-14.45 2.7 6.55-2.7q4.4-1 7.9 0m75.6 115.25-10.45 5.9-19.55 5.9-6.9 1.95-4.1 1.15q-3.75-.95-27.55-2.25l-8.7-.45M24.5 80.6h13.05" fill="none" stroke="#000" stroke-linecap="round" stroke-linejoin="round" stroke-opacity=".353" stroke-width=".05"/><path d="m75.75 10.35-.6-.9m-40.2 11.5v-2.8l-3.2-.9-1-.3-1.85-.5-11.6-3.4m58.3 0q.85-.9.65-1.9l6.95 11.9 14.95 36 1.55 3.8-3.8 3.85q7.15 19.1 14.55 48.85l.85 3.55-5.6 6.25-.8 8.6Q104 141 102.3 148q-1.65 6.65-4 13.25L80.75 173l-14.2-2.35-14.15-2.4q-16.3-13.65-23.95-30.7-3.2 0-8.6-2.8Q18.05 109 24.5 80.6l-4.9-3.65q1-19.85 8-33.85 6.85-13.8 5.75-14.9h-.05l.55-1.5 1.1-2.95v-2.8M57.6 15.5l-1.25-.05q-9.4-.3-16.05.4l-.1.05m17.4-.4 4.15.15h8.1q4.35-1.1 5.75-2.6m-41.45-4.2.75 2 2.05 5.45 3.25-.4m-5.25.75v1.5m1.95-1.85h.05m-.05 0-1.95.35M30.1 10.1l-.7 4.55-.5 1.8m1.85.5.7-2.05.5-3.2q1.15 1.35.35 3.3l-.55 2.25" fill="none" stroke="#000" stroke-linecap="round" stroke-linejoin="round" stroke-opacity=".353" stroke-width=".05"/><path d="m75.05 28.9-.45.15" fill="none" stroke="#0f0" stroke-linecap="round" stroke-linejoin="round" stroke-width=".05"/><path d="m108 2.4.25.05" fill="none" stroke="#68390b" stroke-linecap="round" stroke-linejoin="round" transform="translate(-48.15)"/><path d="m124.1 26 1.9-.4m-4.2-4.8 1.9-.45m-20.8-18.4 2.05.15m2.05.2 1 .1m-2.15 20.05 2.05-.1m-6.05.25 2-.05m13.95-1.05 2-.3m-6 .75 2-.2m-5.95.5 1.95-.1M98.9 1.9h2m-6.05.3 2-.2m-6.05.85 2.05-.35M86.9 3.85l1.9-.55m9.15 19.35 2-.05m16.1 4.4 2-.2m-6 .45 2-.1m-6 .3 1.95-.1m-5.95.25 2-.05m-5.95.05h1.95m18-1 2-.25m-59.7-9.6 2.05.65m2.05.5 2.05.4m2.1.3.4.1m-19.25-7.65 1.6 1.25m1.7 1.15 1.8 1m1.85.85 1.95.8" fill="none" stroke="#c24215" stroke-linecap="round" stroke-linejoin="round" transform="translate(-48.15)"/><path d="m116.95 10.6 1.6 1.4m-5.05-3.55 1.8.95m-9.45-3.3 1.95.4m-5.95-.9 2 .2m15.85 7.6.55.8M109.7 7l1.9.65m-13.65-2.2 1.95.05m-5.95 0 2-.05M67.4 23.85l1.9.55m-5.75-1.8 1.95.65M48.65 16.4l1.8.9m1.85.85 1.8.8m1.9.8 1.85.75m17.45 5.3 2 .35m-6-1.25 2 .45m-13.55-4.1 1.9.7m17.65 4.5 2 .2" fill="none" stroke="#e85019" stroke-linecap="round" stroke-linejoin="round" transform="translate(-48.15)"/></g><g id="e"><path d="m48.65 19.35-3.2 50.6L72.3 34 45.45 69.95l-1.85 28.3.45-2.15-.45 2.15 1.85-28.3 3.2-50.6m.65-17.7q9.4-2 19.8-3.3Q79.5-3 89.05 4.85 54.3 120.4 28.5 208.5q-4.8-25.65-10.65-44.85Q12.15 106.35 24 49 29.95 4.35 49.3 1.65m-5.7 96.6L26.45 182.2 43.6 98.25" fill="#ffd52b" fill-opacity=".471" fill-rule="evenodd" transform="translate(-14 3.85)"/><path d="M58.3 37.85 31.45 73.8l-1.85 28.3.45-2.15m1.4-26.15 3.2-50.6m-22.2 162.85L29.6 102.1" fill="none" stroke="#000" stroke-linecap="round" stroke-linejoin="round" stroke-opacity=".251" stroke-width=".05"/><path d="M35.3 5.5q9.4-2 19.8-3.3Q65.5.85 75.05 8.7 40.3 124.25 14.5 212.35 9.7 186.7 3.85 167.5-1.85 110.2 10 52.85 15.95 8.2 35.3 5.5" fill="none" stroke="#990f00" stroke-linecap="round" stroke-linejoin="round" stroke-opacity=".702" stroke-width="4"/></g><g id="f"><path d="M3.9 3.45h.15l1.3.15q3.4.45 5.25 2.95.9 1.3 1.2 2.75.2 1.4-.2 2.9-.8 3.1-3.7 4.95-3 1.9-6.4 1.45-3.4-.5-5.2-3-1.85-2.55-1.05-5.6.8-3.15 3.75-5 2.3-1.5 4.9-1.55" fill="url(#g)" fill-rule="evenodd" transform="translate(5 -1)"/><path d="M8.9 2.45h.15" fill="none" stroke="#000" stroke-linecap="round" stroke-linejoin="round" stroke-opacity=".353" stroke-width=".05"/><path d="m10.4 7.4.35-1.05q-.1-.6-.65-1.1-.5-.4-1.1-.4-.65 0-1.05.4-.35.5-.25 1.1t.6 1.05l1.15.45q.6 0 .95-.45m-.9-5.05.95.7q2.35 2.05 2.8 5 .2 1.5-.15 2.8-2.8 2.65-5.6 2.65-3-.15-5.15-3.65-3.85-11.3 7.15-7.5" fill="#f2e4c1" fill-rule="evenodd" transform="translate(5 -1)"/><path d="M13.1 10.85 11.95 13q-1.8 2.05-4.7 2.1Q4.35 15.05 2 13-.4 10.95-.85 8.05-1.3 5.1.5 3.05 2.2 1 5.15 1q2.25 0 4.2 1.25l.15.1q-11-3.8-7.15 7.5 2.15 3.5 5.15 3.65 2.8 0 5.6-2.65" fill="#8f7f5f" fill-rule="evenodd" transform="translate(5 -1)"/><path d="M10.4 7.4q-.35.45-.95.45L8.3 7.4q-.5-.45-.6-1.05t.25-1.1q.4-.4 1.05-.4.6 0 1.1.4.55.5.65 1.1L10.4 7.4" fill="#fff" fill-rule="evenodd" transform="translate(5 -1)"/><path d="m14.35 1.25.15.1" fill="none" stroke="#000" stroke-linecap="round" stroke-linejoin="round" stroke-opacity=".353" stroke-width=".05"/></g><use width="77.05" height="214.35" xlink:href="#e" id="c"/><use width="18.3" height="17.7" xlink:href="#f" id="d"/><radialGradient id="g" cx="0" cy="0" r="819.2" gradientTransform="matrix(.0096 -.0061 .006 .0082 3.4 11.05)" gradientUnits="userSpaceOnUse"><stop stop-opacity=".251" offset=".839"/><stop stop-opacity="0" offset="1"/></radialGradient></defs></svg>