<svg viewBox="0 0 13.775 34.894" xmlns="http://www.w3.org/2000/svg" xmlns:xlink="http://www.w3.org/1999/xlink"><use transform="translate(.02)" width="13.75" height="34.85" xlink:href="#a"/><defs><g id="a"><path d="M272.15 206.25v-.05.1-.05" fill="#87705f" fill-rule="evenodd" transform="translate(-268.1 -183.05)"/><path d="M272.15 206.3v-.1h.05l-.05.1" fill="#2f2d1a" fill-rule="evenodd" transform="translate(-268.1 -183.05)"/><path d="m271.6 217.85.05.05h-.05v-.05" fill="#fff" fill-rule="evenodd" transform="translate(-268.1 -183.05)"/><path d="m276 196.25-.7 3.25q1.15.6 2.3 1.25l.65-3.4-.75-.6-.25-2.85-1.25 2.35m-7.25 7 .1-2 .6-7.3q.15-4.05-.5-7.3 4.9-1.1 7.95-3.6 1 1.15 1.3 2.55l.05.15.3 6.85v.2q.15 4.2.55 7.45v.15q.3 5.35 1.15 8l-1.1.5-1.5-2.05-.1-.65-.05.45-1.85-3.3-.75 1.1-1.2-.05h-.2l-.1-4.75-1.25 6.55v.05l-.95.95-1.45 2.45-1-6.4m7.95-.85 2.3 3.65q-.8-2.4-.35-4.7l-1.95 1.05m-7.25-2.55.85 3.05 1.2-2.7q-.25-.4-1.25-.2l.2-4.1-.8 2.9-.2 1.05" fill="#3a6428" fill-rule="evenodd" transform="translate(-268.1 -183.05)"/><path d="m272.15 206.2 1.25-6.55.1 4.75.05.15q-.5.25-1.35 1.65h-.05" fill="#1f3515" fill-rule="evenodd" transform="translate(-268.1 -183.05)"/><path d="M280.25 208.4q.5 1.65 1.6 3.45l-.7.1v.85q-2.85-3.1-3.5-5.95l1.5 2.05 1.1-.5m-2.75 1.25-1.25-1.15.2-.9-1 .6-.85 2.45 1.55.45.75 1.8-.75.25-.6-.35-.5.7h.35l-.55 1.45-.95-5.95.3.25-.15-1.05-.3-.45-.2-3.2-.05-.15h.2l1.2.05.75-1.1 1.85 3.3q-.15 1.65 0 3m-5.9 3.1-1.2 1.3.5 1.3.5.45v.2l-.5 1.15q-2.5-2.6-2.8-6.05l.1-1.25q.1-2.9.55-6.6l1 6.4 1.45-2.45.95-.95v.05l-.55 6.05v.4m4.95-5.6-.7-2.65-1.1 2.4 1.8.25" fill="#85884d" fill-rule="evenodd" transform="translate(-268.1 -183.05)"/><path d="m281.15 212.8-2.25-.8-.95-.85.85-.6q-1.25-.2-1.3-.9-.15-1.35 0-3l.05-.45.1.65q.65 2.85 3.5 5.95m-6.3 2.15-1.35-.55.1-.35-1.85-1.55-.15.25v-.4l.55-6.05.05-.1q.85-1.4 1.35-1.65l.2 3.2-.45.1-.35 1.05.4.5.55-.4.95 5.95" fill="#50522e" fill-rule="evenodd" transform="translate(-268.1 -183.05)"/><path d="m270.9 217.15.7.7v.05q-2.2.15-3.5-.9v-5.9q.3 3.45 2.8 6.05" fill="#2c2d1a" fill-rule="evenodd" transform="translate(-268.1 -183.05)"/><path d="m2.8 34.1.75.75H3.5q-2.2.15-3.5-.9m2.8.15Q.3 31.5 0 28.05" fill="none" stroke="#7b6b53" stroke-linecap="round" stroke-linejoin="round" stroke-width=".05"/><path d="m275.9 192.35-1.55-.65 1.5-3.15 2 1.45-3 5.55 1.05-3.2" fill="#be2121" fill-rule="evenodd" transform="translate(-268.1 -183.05)"/><path d="m274.25 195.7-3.4-2.8 1.65-3.6 1.95.8-.9 1.9 1.7.8-1 2.9" fill="#df4444" fill-rule="evenodd" transform="translate(-268.1 -183.05)"/></g></defs></svg>