<svg viewBox="0 0 15.55 33.432" xmlns="http://www.w3.org/2000/svg" xmlns:xlink="http://www.w3.org/1999/xlink"><use transform="translate(.02 .03)" width="15.5" height="33.4" xlink:href="#a"/><defs><g id="a"><path d="M282.6 212.25h.05l.05.05-.15-.05h.05m-1.7 0h-.65l.65-.05v.05m-3.05.45-.1.05.05-.05h.05" fill="#555ba0" fill-rule="evenodd" transform="translate(-267.2 -183.25)"/><path d="m270.7 216.55.05.05h-.05v-.05" fill="#cf0" fill-rule="evenodd" transform="translate(-267.2 -183.25)"/><path d="M276 183.25q1 1.15 1.3 2.55l.05.15.3 6.85v.2q.15 4.2.55 7.45v.15q.45 7 3.3 10.75l1.1.9h-1.7v-.05q-3.65-3.1-4.25-7.3-.6 4.4 1.15 7.8l-.05.05-.2.3-.05.45v.2q-.2.95-1.05 1.2l-1.4.2h-.1q-2.4-4.45-2.45-15.25-2.5 8.6-1.6 15.65l-.2.15-.65.3q-2.55-2.7-2.85-6.15l.05-.95.05-.2v-.6l.1-.9.55-5.7.6-7.3q.15-4.05-.5-7.3 4.9-1.1 7.95-3.6" fill="#b4b3a0" fill-rule="evenodd" transform="translate(-267.2 -183.25)"/><path d="m280.25 212.25-2.35.45h-.1q-1.75-3.4-1.15-7.8.6 4.2 4.25 7.3l-.65.05m-5.3 2.85h-1.45l-2.6.4q-.9-7.05 1.6-15.65.05 10.8 2.45 15.25" fill="#88876c" fill-rule="evenodd" transform="translate(-267.2 -183.25)"/><path d="m270.05 215.95.65.6v.05q-2.3.2-3.5-.85v-5.95q.3 3.45 2.85 6.15" fill="#bfbeae" fill-rule="evenodd" transform="translate(-267.2 -183.25)"/><path d="M10.7 29.45h-.05" fill="none" stroke="#0f121c" stroke-linecap="round" stroke-linejoin="round" stroke-width=".05"/><path d="M8.8 0q1 1.15 1.3 2.55l.05.15.3 6.85v.2q.15 4.2.55 7.45v.15q.45 7 3.3 10.75l1.1.9h.05l.05.05-.15-.05h-2.3l-2.35.45m-.15.05-.2.3-.05.45v.2q-.2.95-1.05 1.2l-1.4.2H6.3l-2.6.4-.2.15-.65.3.65.6.05.05H3.5q-2.3.2-3.5-.85m10.6-3.05-.05.05m-7.7 3.2Q.3 30 0 26.55" fill="none" stroke="#141f0d" stroke-linecap="round" stroke-linejoin="round" stroke-opacity=".502" stroke-width=".05"/><path d="M272 190.2h.05-.05" fill="#c8dbc8" fill-rule="evenodd" transform="translate(-267.2 -183.25)"/><path d="M276.6 190.25h-.05.05m-4.55-.1v.05H272l.05-.05" fill="#5e1313" fill-rule="evenodd" transform="translate(-267.2 -183.25)"/><path d="m269.95 192.8-.1-.05.1.05" fill="#f4cccc" fill-rule="evenodd" transform="translate(-267.2 -183.25)"/><path d="m274.85 189.2.25-.55q.4-.6.95-.85t1 0q.4.2.4.75t-.4 1.15l-.45.55h-.05q-.3-1-1.7-1.05m-5 3.55h-.05q-.4-.25-.4-.8t.4-1.15 1-.85q.55-.25.95 0 .15.05.3.2l-.05.05q-1.4.95-2.15 2.55m6.25.1-.3.7-.6.6h-.6q-.3-.15-.3-.5 0-.4.3-.75l.6-.55q.35-.15.6 0 .3.1.3.5m-2.8 2.9-.35.1-.15-.1.15-.25.35-.25.4-.1q.15 0 .15.1l-.15.25-.4.25m-.85-1.7-.35.9-.7.65q-.45.2-.75 0-.35-.15-.35-.6t.35-.9l.75-.65q.4-.2.7 0 .35.15.35.6" fill="#80772f" fill-rule="evenodd" transform="translate(-267.2 -183.25)"/><path d="m276.55 190.25.3 1.35q-.05 1.5-1.1 3.1-1.1 1.6-2.65 2.3l-2.6.1q-1.1-.6-1.1-2.1 0-1.1.55-2.2l-.1-.05q.75-1.6 2.15-2.55h.05l1.05-.65q.95-.45 1.7-.35h.05q1.4.05 1.7 1.05m-3.25 5.5.4-.25.15-.25q0-.1-.15-.1l-.4.1-.35.25-.15.25.15.1.35-.1m2.8-2.9q0-.4-.3-.5-.25-.15-.6 0l-.6.55q-.3.35-.3.75 0 .35.3.5h.6l.6-.6.3-.7m-3.65 1.2q0-.45-.35-.6-.3-.2-.7 0l-.75.65q-.35.45-.35.9t.35.6q.3.2.75 0l.7-.65.35-.9" fill="#fcfbf5" fill-rule="evenodd" transform="translate(-267.2 -183.25)"/><path d="m7.65 5.95.25-.55q.4-.6.95-.85t1 0q.4.2.4.75t-.4 1.15L9.4 7h-.05l.3 1.35q-.05 1.5-1.1 3.1-1.1 1.6-2.65 2.3l-2.6.1q-1.1-.6-1.1-2.1 0-1.1.55-2.2l-.1-.05H2.6q-.4-.25-.4-.8t.4-1.15 1-.85q.55-.25.95 0 .15.05.3.2v.05L5.9 6.3q.95-.45 1.7-.35h.05Q9.05 6 9.35 7M8.9 9.6l-.3.7-.6.6h-.6q-.3-.15-.3-.5 0-.4.3-.75L8 9.1q.35-.15.6 0 .3.1.3.5m-2.8 2.9-.35.1-.15-.1.15-.25.35-.25.4-.1q.15 0 .15.1l-.15.25-.4.25M4.8 6.95h.05m-.05 0Q3.4 7.9 2.65 9.5m2.6 1.3-.35.9-.7.65q-.45.2-.75 0-.35-.15-.35-.6t.35-.9l.75-.65q.4-.2.7 0 .35.15.35.6" fill="none" stroke="#000" stroke-linecap="round" stroke-linejoin="round" stroke-opacity=".502" stroke-width=".05"/></g></defs></svg>