<svg viewBox="0 0 173.15 114.15" xmlns="http://www.w3.org/2000/svg" xmlns:xlink="http://www.w3.org/1999/xlink"><use transform="translate(.03 .02)" width="173.1" height="114.1" xlink:href="#a"/><defs><g id="a"><path d="m355.05 194.85 5.95-5.6q2.8 3.5 6.1 6.8l3.4 2.9 3.7 2.75 1.85 1.25.4.3 3.3 2.35 2.5 1.95 2.3 1.65 1.55 1.1q1.4.95 3 1.7 1.75.8 3.4 1.9l1.1.8 2.25 1.35.55.25 2.55 1.3 5.25 2.65 1.35.75.35.25 2.5 1.6 5.1 3.05-5.3 8.2-.5-.3q-2.3-1.45-4.8-2.25l-.65-.2-.35-.15-3.7-1.3-2-.65-1.8-.4q-2.6-.45-5.05-1.45l-.35-.15-2-.9-2.2-1.3q-3.15-2-5.8-4.55l-2.35-2.25-1.1-1.05-1.4-1.25-4.9-4.4-.85-.75-3.65-3.25-2.9-3.25-6.8-9.45m31.25-4-2.5-2.15-.5-.5-1.35-1.3-1.8-1.55-4.65-4.25v-10.2q3.75 3.7 7.9 7.05l3.7 2.8 2.05 1.4 2.45 1.7 6.6 4.35 2.55 1.65 1.1.7 6.75 4.15.4.2 1.55 1.05.45.25 1.75 1.2q3.4 2.15 7 4l2 1 .25.15 1.1.55 1.05.5 4.95 2.3 1.45.8.65.4 4.05 1.95-4.9 7.3q-2.1-.7-3.9-2.15l-1-.65-1.95-.9-2.5-1.05-2.2-.95h-.05l-5.2-2.1-1.95-.75-4-1.95-1.95-1.25-2.7-1.85-2.1-1.4-5.7-3.85v-.05l-2-1.5-5-3.8-1.15-.8-.7-.5m-9.25 10.95 4.55-5.3 2.75-3.25q6.2 1.9 8.75 6.85l-5.05 5.6-.15.2-4.25-3.15-.65-.75-5.95-.2m26.3-15.7-.1-1.25-1.7-1.35-.65-.15q-4-1.55-7.9-1.55l4.05-6.55 8.1 4.9q-.1.3-.05.65.15 2.4-1.15 4.4l-.6.9m-8.15 4.5q5.6 7.65 16.1 14.15 7.35 4.45 16.3 4l-3.4-1.3-22.95-12.7q-3.45-1.95-6.05-4.15m19.15 3.4.3-1.1q.7-3 1.65-5.95l11.4 6.95-2.2 2.05-3.25 2.95-.35.35-1.15-3.3q-.85-.65-1.85-.95-2.2-.9-4.55-1m-8.4 14.2 4.35 3.55.35.35.4.05-2.8 4.35-.25-.05q-3.25-2.15-6.2-2.15l2.25-3.15 1.9-2.95m.85 46.6 1.75.9.2.1 1 .45.9.45 4.25 2 1.25.7.55.3 3.5 1.7-4.25 6.3q-1.8-.6-3.35-1.85l-.85-.55-1.7-.75-2.15-.95-1.9-.8h-.05l-4.5-1.8-1.65-.7q-1.8-.7-3.45-1.65l-1.7-1.1-2.35-1.6-1.8-1.2-4.95-3.35-1.7-1.3q-2.15-1.85-4.35-3.3l-1-.7-.55-.4-2.2-1.85-.4-.45-1.2-1.1-1.55-1.4-.4-.35-1.1-.8-.85-.55-1.7-.75-2.15-.95-1.9-.8h-.05l-4.5-1.8-1.65-.7-3.45-1.65-1.7-1.1-2.35-1.6-1.8-1.2-4.95-3.35-1.7-1.3q-2.15-1.85-4.35-3.3l-1-.7-.55-.4-2.2-1.85-.4-.45-1.2-1.1-1.55-1.4-4-3.65V203l.6-.05q2.95 2.85 6.25 5.5l3.15 2.4 1.8 1.2 2.1 1.5 5.7 3.75 2.2 1.45.95.6 5.8 3.55.4.2 1.35.9.35.25 1.55 1 6 3.45 1.75.9.2.1 1 .45.35.2v-1.25l.6-.05 3.6 3.3 2.65 2.2 2.5 1.95-2.5-1.95-2.65-2.2.6.25 1.25.7.55.3 3.5 1.7-.75 1.2.65.45 1.8 1.2 2.1 1.5 5.7 3.75 2.2 1.45.95.6 5.8 3.55.4.2 1.35.9.35.25 1.55 1 6 3.45m6.85-6.45-1.9 1.75-2.75 2.55-.3.3q-.3-1.35-1-2.85-.8-.55-1.6-.8-1.9-.8-3.95-.9l.25-.95 1.4-5.1 9.85 6m-48.15-13.8 3.1 2.7 3.6 3.3-3.6-3.3-3.1-2.7 3.1.45v-1.4l-19.25-10.65q-3-1.7-5.25-3.6 4.85 6.65 13.95 12.25 3.5 2.1 7.45 2.95m45.15 25.5-19.8-11q-3-1.7-5.25-3.6 4.85 6.65 13.95 12.25 6.3 3.85 14.05 3.45l-2.95-1.1m-17.5-41.15-.6-1q-3.5-5.5-10.55-7.65-2.85-.9-4.95-2.8l1 2q7.75 6.25 16.35 10.65l-1.25-1.2m-25.5-5.2.85.95.1.2q2.25 2.65 5.75 3.25l-2.65 1.95-1.35 1.1 1.8 1.1-1.9 1.75-2.75 2.55-.3.3q-.3-1.35-1-2.85-.8-.55-1.6-.8-1.9-.8-3.95-.9l.25-.95 1.4-5.1 2.5 1.5 2.85-4.05m16.05 24.15 3.55-5.65-2.55-1.55 2.55-1.9 5.95 4.6 1.55.25-1.9 2.05 1.35.8-.05.55q.15 2.05-.95 3.8l-.55.8-.1-1.1-1.45-1.15-.55-.1q-3.45-1.4-6.85-1.4m-7.45 9.9q5.35 1.65 7.55 5.95l-4.35 4.85-.15.15q-1.65-1.5-3.65-2.75l-.6-.65-5.1-.15 3.9-4.55 2.4-2.85m23.05 16.35-2.4 3.75-.25-.05q-2.8-1.85-5.35-1.85l1.95-2.7 1.65-2.55 3.75 3.05.3.3.35.05m-4.75 7.65.3.2 2.15 1.4 4.4 2.65-4.55 7.05-.4-.25q-2-1.25-4.2-1.95l-.55-.2-.3-.1-3.2-1.15-1.75-.55-1.5-.35-4.4-1.25-.3-.1-1.7-.8-1.9-1.1q-2.7-1.75-5-3.95l-2.05-1.95-1-.9-1.2-1.1-4.2-3.8-.75-.65-3.15-2.8-2.15-2.3-.35-.5-.85-1.25-.6.9-.4-.25q-2-1.25-4.2-1.95l-.55-.2-.3-.1-3.2-1.15-1.75-.55-1.5-.35-4.4-1.25-.3-.1-1.7-.8-1.9-1.1-5-3.95-2.05-1.95-1-.9-1.2-1.1-4.2-3.8-.75-.65-3.15-2.8q-1.45-1.3-2.5-2.8l-5.85-8.15 5.1-4.85q2.45 3 5.3 5.85l2.9 2.55 3.25 2.35 1.55 1.1.4.25 2.8 2.05 2.15 1.65 2 1.45 1.35.95 2.6 1.45 2.95 1.65.9.7 1.95 1.15.5.25 2.2 1.05 4.55 2.35 1.15.65.3.2.65.4 2.05-1.95q2.45 3 5.3 5.85l2.9 2.55 3.25 2.35 1.55 1.1.4.25 2.8 2.05 2.15 1.65 2 1.45 1.35.95 2.6 1.45q1.5.7 2.95 1.65l.9.7q.9.65 1.95 1.15l.5.25 2.2 1.05 4.55 2.35 1.15.65m-6.5-40.6-.8 1v.05-.05l.8-1m-42.3-25.05 6.95 4.25-.05.55q.15 2.05-.95 3.8l-.55.8-.1-1.1-1.45-1.15-.55-.1q-3.45-1.4-6.85-1.4l3.55-5.65m-11 15.55q5.35 1.65 7.55 5.95l-4.35 4.85-.15.15q-1.65-1.5-3.65-2.75-.55-.3-.6-.65l-5.1-.15 3.9-4.55 2.4-2.85m-8.65 21.5-2.3 1.65-.85.65 2.5 1.55-1.9 1.75-2.75 2.55-.3.3q-.3-1.35-1-2.85-.8-.55-1.6-.8-1.9-.8-3.95-.9l.25-.95 1.4-5.1 2.45 1.5 2.25-3.15.75.8.05.15q1.95 2.3 5 2.85m-7.5 10.3 1.75.9.2.1 1 .45.9.45 4.25 2 1.25.7.55.3 3.5 1.7-4.25 6.3q-1.8-.6-3.35-1.85-.4-.35-.85-.55l-1.7-.75-2.15-.95-1.9-.8h-.05l-4.5-1.8-1.65-.7-3.45-1.65-1.7-1.1-2.35-1.6-1.8-1.2-4.95-3.35-1.7-1.3-4.35-3.3-1-.7-.55-.4-2.2-1.85-.4-.45-1.2-1.1-1.55-1.4-4-3.65v-8.15l.6-.05q2.95 2.85 6.25 5.5l3.15 2.4 1.8 1.2 2.1 1.5 5.7 3.75 2.2 1.45.95.6 5.8 3.55.4.2 1.35.9.35.25 1.55 1 6 3.45m23.75-9.6-.55-.9q-3-4.75-9.05-6.6-2.5-.8-4.35-2.4l.9 1.7q6.7 5.4 14.15 9.2l-1.1-1m7.45-4 1.95-2.7 1.65-2.55q1.8 1.65 3.75 3.05l.3.3.35.05-2.4 3.75-.25-.05q-2.8-1.85-5.35-1.85m-5.1 5.6.05.05.25.05-.3-.1m5.65 2.9.6.8 5 6.9-5-6.9-.6-.8m-6.65 8.2-1.65 1.75-7-4.35 2.15-1.65 5.15 4 1.35.25m18.1 8.9.75.8.05.15q1.95 2.3 5 2.85l-2.3 1.65-2.05 1.8-4.95-2.3.4-.6 3.1-4.35m24.45 6.15.25.05-.3-.1.05.05m-16.35-11.55.9 1.7q6.7 5.4 14.15 9.2l-1.1-1-.55-.9q-3-4.75-9.05-6.6-2.5-.8-4.35-2.4m13.65 24.35-7-4.35 2.15-1.65 5.15 4 1.35.25-1.65 1.75m-88.05-47.9 3.55-5.65 6.95 4.25-.05.55q.15 2.05-.95 3.8l-.55.8-.1-1.1-1.45-1.15-.55-.1q-3.45-1.4-6.85-1.4m15.6 26.25-2.4 3.75-.25-.05q-2.8-1.85-5.35-1.85l1.95-2.7 1.65-2.55 3.75 3.05.3.3.35.05m-4.75 7.65.3.2 2.15 1.4 4.4 2.65-4.55 7.05-.4-.25q-2-1.25-4.2-1.95l-.55-.2-.3-.1-3.2-1.15-1.75-.55-1.5-.35-4.4-1.25-.3-.1-1.7-.8-1.9-1.1-5-3.95-2.05-1.95-1-.9-1.2-1.1-4.2-3.8-.75-.65-3.15-2.8q-1.45-1.3-2.5-2.8l-5.85-8.15 5.1-4.85q2.45 3 5.3 5.85l2.9 2.55 3.25 2.35 1.55 1.1.4.25 2.8 2.05 2.15 1.65 2 1.45 1.35.95 2.6 1.45 2.95 1.65.9.7 1.95 1.15.5.25 2.2 1.05 4.55 2.35 1.15.65m-24.6-16.6 3.9-4.55 2.4-2.85q5.35 1.65 7.55 5.95l-4.35 4.85-.15.15-3.65-2.75-.6-.65-5.1-.15m-11.65 15.25.4-.6 3.1-4.35.75.8.05.15q1.95 2.3 5 2.85l-2.3 1.65-2.05 1.8-4.95-2.3m12.5-8.65q6.7 5.4 14.15 9.2l-1.1-1-.55-.9q-3-4.75-9.05-6.6-2.5-.8-4.35-2.4l.9 1.7m15.45 9.85.25.05-.3-.1.05.05m-7.55 6.8 5.15 4 1.35.25-1.65 1.75-7-4.35 2.15-1.65m12.15-29.35q-3-1.7-5.25-3.6 4.85 6.65 13.95 12.25 6.3 3.85 14.05 3.45l-2.95-1.1-19.8-11" fill="#f60" fill-rule="evenodd" transform="translate(-262.15 -170.9)"/><path d="m369.25 211.55 4.9 4.4 1.4 1.25-1.2.9q-3.5-.6-5.75-3.25l-.1-.2-.85-.95 1.6-2.15m19.75 15.7.35.15q2.45 1 5.05 1.45l1.8.4 2 .65-3.45 3.7-1.55-.25-5.95-4.6 1.6-1.35.15-.15m16.55-6.25-1.35-.75-5.25-2.65.3-.35 2.55-2.95q2.95 0 6.2 2.15l.25.05-2.65 4.4-.05.1m-21-11.8-2.3-1.65-2.5-1.95-3.3-2.35-.4-.3.25-.25.75-.9 5.95.2.65.75 4.25 3.15-3.35 3.3m1.75-18.35.7.5 1.15.8 5 3.8 2 1.5v.05l-2 2.55-.05.05q-2.55-4.95-8.75-6.85l1.95-2.4m21.3 15 4 1.95 1.95.75-1 1.45-1.5 2.15-.4-.05-.35-.35-4.35-3.55 1.55-2.2.1-.15m12.15-4.45q-3.6-1.85-7-4l1.15-2.15.2-.5.25-.75q2.35.1 4.55 1 1 .3 1.85.95l1.15 3.3-2.15 2.15m-19-11.55-2.55-1.65-6.6-4.35 1.15-1.65.25-.4q3.9 0 7.9 1.55l.65.15 1.7 1.35.1 1.25-.9 1.35-1.7 2.4m1.4 58.55q2.05.1 3.95.9.8.25 1.6.8.7 1.5 1 2.85l-1.9 1.85-6-3.45 1-1.85.15-.4.2-.7m-11.75-3.55-2.2-1.45-5.7-3.75 1-1.45.2-.35q3.4 0 6.85 1.4l.55.1 1.45 1.15.1 1.1-.75 1.15-1.5 2.1m-25.1-16.15-6-3.45 1-1.85.15-.4.2-.7q2.05.1 3.95.9.8.25 1.6.8.7 1.5 1 2.85l-1.9 1.85m-16.4-9.95-2.2-1.45-5.7-3.75 1-1.45.2-.35q3.4 0 6.85 1.4l.55.1 1.45 1.15.1 1.1-.75 1.15-1.5 2.1m-12.45.85.55.4 1 .7q2.2 1.45 4.35 3.3l1.7 1.3-1.7 2.25-.05.05q-2.2-4.3-7.55-5.95l1.7-2.05m18.4 12.95 3.45 1.65 1.65.7-.85 1.25-1.3 1.85-.35-.05-.3-.3q-1.95-1.4-3.75-3.05l1.35-1.95.1-.1m23.1 13.15.55.4 1 .7q2.2 1.45 4.35 3.3l1.7 1.3-1.7 2.25-.05.05q-2.2-4.3-7.55-5.95l1.7-2.05m18.4 12.95q1.65.95 3.45 1.65l1.65.7-.85 1.25-1.3 1.85-.35-.05-.3-.3-3.75-3.05 1.35-1.95.1-.1m.55 9.2-2.3 3.8-.05.1-1.15-.65-4.55-2.35.25-.25 2.2-2.55q2.55 0 5.35 1.85l.25.05m-68.45-38.8 5.1.15q.05.35.6.65 2 1.25 3.65 2.75l-2.9 2.85-2-1.45-2.15-1.65-2.8-2.05-.4-.25.2-.25.7-.75m-1.35 13.3-1 .8q-3.05-.55-5-2.85l-.05-.15-.75-.8 1.4-1.9 4.2 3.8 1.2 1.1m-6.6 9.25-1.9 1.85-6-3.45 1-1.85.15-.4.2-.7q2.05.1 3.95.9.8.25 1.6.8.7 1.5 1 2.85m26.85-8.95.25-.25 2.2-2.55q2.55 0 5.35 1.85l.25.05-.6.95-1.7 2.85-.05.1-1.15-.65-4.55-2.35m7.1-.45.35.5-.35-.5m14.6 13.95.2-.25.7-.75 5.1.15.6.65q2 1.25 3.65 2.75l-2.9 2.85-2-1.45-2.15-1.65-2.8-2.05-.4-.25m-5.85 7.4 4.2 3.8 1.2 1.1-1 .8q-3.05-.55-5-2.85l-.05-.15-.75-.8 1.4-1.9m17.05 13.6.3.1 4.4 1.25 1.5.35 1.75.55-3 3.25-1.35-.25-5.15-4 1.45-1.15.1-.1m-41.5-26.1.3.1 4.4 1.25 1.5.35 1.75.55-3 3.25-1.35-.25-5.15-4 1.45-1.15.1-.1M294.3 238.3l1-1.45.2-.35q3.4 0 6.85 1.4l.55.1 1.45 1.15.1 1.1-.75 1.15-1.5 2.1-2.2-1.45-5.7-3.75m-6.25 8.1 1.7-2.05.55.4 1 .7 4.35 3.3 1.7 1.3-1.7 2.25-.05.05q-2.2-4.3-7.55-5.95m20.1 10.9 3.45 1.65 1.65.7-.85 1.25-1.3 1.85-.35-.05-.3-.3-3.75-3.05 1.35-1.95.1-.1m.55 9.2-2.3 3.8-.05.1-1.15-.65-4.55-2.35.25-.25 2.2-2.55q2.55 0 5.35 1.85l.25.05m-27.85-11.7.2-.25.7-.75 5.1.15.6.65 3.65 2.75-2.9 2.85-2-1.45-2.15-1.65-2.8-2.05-.4-.25m-7.25 9.3 1.4-1.9 4.2 3.8 1.2 1.1-1 .8q-3.05-.55-5-2.85l-.05-.15-.75-.8m18.45 11.7.3.1 4.4 1.25 1.5.35 1.75.55-3 3.25-1.35-.25-5.15-4 1.45-1.15.1-.1" fill="#bf4d00" fill-rule="evenodd" transform="translate(-262.15 -170.9)"/><path d="M395.2 190.6q2.6 2.2 6.05 4.15l22.95 12.7 3.4 1.3q-8.95.45-16.3-4-10.5-6.5-16.1-14.15m-29.7 43.95q-3.95-.85-7.45-2.95-9.1-5.6-13.95-12.25 2.25 1.9 5.25 3.6l19.25 10.65v1.4l-3.1-.45m45.15 25.5 2.95 1.1q-7.75.4-14.05-3.45-9.1-5.6-13.95-12.25 2.25 1.9 5.25 3.6l19.8 11m-17.5-41.15 1.25 1.2q-8.6-4.4-16.35-10.65l-1-2q2.1 1.9 4.95 2.8 7.05 2.15 10.55 7.65l.6 1m-50.8 24.95 1.1 1q-7.45-3.8-14.15-9.2l-.9-1.7q1.85 1.6 4.35 2.4 6.05 1.85 9.05 6.6l.55.9m2.35 1.6.3.1-.25-.05-.05-.05m41.55 26.15-.05-.05.3.1-.25-.05m-16.35-11.55q1.85 1.6 4.35 2.4 6.05 1.85 9.05 6.6l.55.9 1.1 1q-7.45-3.8-14.15-9.2l-.9-1.7m-87.3.35-.9-1.7q1.85 1.6 4.35 2.4 6.05 1.85 9.05 6.6l.55.9 1.1 1q-7.45-3.8-14.15-9.2m15.45 9.85-.05-.05.3.1-.25-.05m4.6-22.55 19.8 11 2.95 1.1q-7.75.4-14.05-3.45-9.1-5.6-13.95-12.25 2.25 1.9 5.25 3.6" fill="#fe9f6d" fill-rule="evenodd" transform="translate(-262.15 -170.9)"/><path d="m98.85 18.35-1.9-2.4m-4.7 7.1.65.9 6.8 9.45 2.9 3.25 3.65 3.25.85.75 4.9 4.4 1.4 1.25 1.1 1.05 2.35 2.25q2.65 2.55 5.8 4.55l2.2 1.3 2 .9.35.15q2.45 1 5.05 1.45l1.8.4 2 .65 3.7 1.3.35.15.65.2q2.5.8 4.8 2.25l.5.3 1.8.85 2.7 1.1m.8-10.15-5.1-3.05-2.5-1.6-.35-.25-1.35-.75-5.25-2.65-2.55-1.3-.55-.25-2.25-1.35-1.1-.8q-1.65-1.1-3.4-1.9-1.6-.75-3-1.7l-1.55-1.1-2.3-1.65-2.5-1.95-3.3-2.35-.4-.3-1.85-1.25-3.7-2.75-3.4-2.9q-3.3-3.3-6.1-6.8m14.5-8.15 4.65 4.25 1.8 1.55 1.35 1.3.5.5 2.5 2.15.7.5 1.15.8 5 3.8 2 1.5v.05l5.7 3.85 2.1 1.4 2.7 1.85 1.95 1.25 4 1.95 1.95.75 5.2 2.1h.05l2.2.95 2.5 1.05 1.95.9 1 .65q1.8 1.45 3.9 2.15l.5.15m4.4-7.45-4.05-1.95-.65-.4-1.45-.8-4.95-2.3-1.05-.5-1.1-.55-.25-.15-2-1q-3.6-1.85-7-4l-1.75-1.2-.45-.25-1.55-1.05-.4-.2-6.75-4.15-1.1-.7-2.55-1.65-6.6-4.35-2.45-1.7-2.05-1.4-3.7-2.8Q117.1 3.7 113.35 0m0 10.2-3.6-3m5.15 23.7 4.55-5.3 2.75-3.25 1.95-2.4m10.75-15.6.05-.05q.4-.65.95-1.2m5.3 12.1.6-.9q1.3-2 1.15-4.4-.05-.35.05-.65V9.2q.5-1.95 1.8-3.05m-9.9-1.8-4.05 6.55-.25.4-1.15 1.65m9.15 6 1.7-2.4.9-1.35m12.95.85.1-.35q.45-1.45 1.25-2.8l.45-.6m-3.75 10.8-.25.75-.2.5-1.15 2.15m3.55-10.45Q153.2 19 152.5 22l-.3 1.1m7.55 5.25.35-.35 3.25-2.95 2.2-2.05.05-.05q.6-.65 1.1-.8l.6-.3m-9.7 8.65 2.15-2.15M143.8 37.3l1.55-2.2.1-.15m3.45 6.3 1.5-2.15 1-1.45m-2.5 3.6-2.8 4.35-2.65 4.4-.05.1m-3.75-6.7-2.55 2.95-.3.35m4.85 24.75.1-.35q.4-1.25 1.1-2.4l.4-.5m8.1-13.2 1.9 1.05m-8.6 27.85 1.75.9.2.1 1 .45.9.45 4.25 2 1.25.7.55.3 3.5 1.7m-4.25 6.3.45.15m-2.75-19.5.05-.05q.55-.6 1-.75l.5-.2m-6.5 5.6.3-.3 2.75-2.55 1.9-1.75m-9.85-6-1.4 5.1-.25.95m6.55 4.55-1.9 1.85-6-3.45-1.55-1-.35-.25-1.35-.9-.4-.2-5.8-3.55-.95-.6-2.2-1.45-5.7-3.75-2.1-1.5-1.8-1.2-.65-.45-2.5-1.95-2.65-2.2-3.6-3.3m-.6 1.3-.35-.2-1-.45-.2-.1-1.75-.9-6-3.45-1.55-1-.35-.25-1.35-.9-.4-.2-5.8-3.55-.95-.6-2.2-1.45-5.7-3.75-2.1-1.5-1.8-1.2-3.15-2.4q-3.3-2.65-6.25-5.5m-.6 8.2 4 3.65 1.55 1.4 1.2 1.1.4.45 2.2 1.85.55.4 1 .7q2.2 1.45 4.35 3.3l1.7 1.3 4.95 3.35 1.8 1.2 2.35 1.6 1.7 1.1 3.45 1.65 1.65.7 4.5 1.8h.05l1.9.8 2.15.95 1.7.75.85.55 1.1.8-3.6-3.3-3.1-2.7M139.3 90.1l4.5 1.8h.05l1.9.8 2.15.95 1.7.75.85.55q1.55 1.25 3.35 1.85M125.75 35l.15-.2 5.05-5.6.05-.05 2-2.55m6.65 16.8 2.25-3.15 1.9-2.95m-28.9-6.4-.75.9-.25.25m-8.4 10.75 1.6-2.15m5.1 6.55 1.2-.9m-5.2 3.95 1.35-1.1 2.65-1.95m-2.2 4.15.05-.05 1-.75.5-.2m-8.9-3.5 2.85-4.05m5.15 18.65.6.25 1.25.7.55.3 3.5 1.7m-11.5-8.45.3-.3 2.75-2.55 1.9-1.75m-6.85 6.45 1.9-1.85M98.5 51.4l-.2.7-.15.4-1 1.85M115.8 74.8l-2.2-1.85-.4-.45-1.2-1.1-1.55-1.4-.4-.35m10.3-.9 1-1.45.2-.35 3.55-5.65v-.05l.8-1m-3.35-.5 2.55-1.9 1.6-1.35.15-.15M123.4 80.5l-1.7-1.3q-2.15-1.85-4.35-3.3l-1-.7-.55-.4-1.7 2.05m7.55 5.95.05-.05 1.7-2.25 4.95 3.35 1.8 1.2 2.35 1.6 1.7 1.1q1.65.95 3.45 1.65l1.65.7-.85 1.25-1.3 1.85-2.4 3.75-2.3 3.8-.05.1.3.2 2.15 1.4 4.4 2.65 1.65.85M130.5 70.7l.55-.8q1.1-1.75.95-3.8l.05-.55v-.05q.4-1.7 1.55-2.6m-2.9 1.85 1.9-2.05 3.45-3.7m-5.55 11.7-.75 1.15-1.5 2.1M122.4 38.3l3.35-3.3m-35.2 4.45v-.05q.4-1.7 1.55-2.6m-8.5-1.6-3.55 5.65M89 44.6l.55-.8q1.1-1.75.95-3.8l.05-.55M83.6 35.2v-.05l.8-1m2.35 13.7 1.5-2.1.75-1.15m11.15.75.1-.35q.4-1.25 1.1-2.4l.4-.5m-1.6 3.25-1.4 5.1-.25.95m-24.2-2.7-1.7 2.05m7.55 5.95.05-.05 1.7-2.25m-3.05-11.75 1-1.45.2-.35m-4.4 20.85.15-.15 4.35-4.85M66.3 58.15l-.7.75-.2.25.4.25 2.8 2.05 2.15 1.65 2 1.45 2.9-2.85m-9.35-3.55 3.9-4.55 2.4-2.85M52.4 47.3q2.45 3 5.3 5.85l2.9 2.55 3.25 2.35 1.55 1.1M63.3 76.1l.05-.05q.55-.6 1-.75l.5-.2m11.75 5.05-1.7-.8-1.9-1.1-5-3.95-2.05-1.95-1-.9-1 .8-2.3 1.65-.85.65m2.5 1.55-1.9 1.75-2.75 2.55-.3.3-1.9 1.85 1.75.9.2.1 1 .45.9.45 4.25 2 1.25.7.55.3 3.5 1.7m-4.25 6.3.45.15m-6.5-29.05 4.2 3.8 1.2 1.1m7.8-6.9 1.35.95 2.6 1.45 2.95 1.65.9.7 1.95 1.15.5.25 2.2 1.05.25-.25 2.2-2.55 1.95-2.7 1.65-2.55 1.35-1.95.1-.1m-1.8 13.1.3.2.65.4m2.05-1.95-1.25-1.6-1.7 2.85-.05.1-1.15-.65-4.55-2.35m10.45-4.65 1.3-1.85.85-1.25m-2.15 3.1-2.4 3.75-.6.95-.35-.5m1.6 2.1q2.45 3 5.3 5.85l2.9 2.55 3.25 2.35 1.55 1.1.2-.25.7-.75 3.9-4.55 2.4-2.85M95 86.9l-.35-.5-.85-1.25-5-6.9-.6-.8m5 8.6 1.55.75.25.1 2.15 2.3 3.15 2.8.75.65 4.2 3.8 1.2 1.1 1 .9 2.05 1.95q2.3 2.2 5 3.95l1.9 1.1 1.7.8.3.1 4.4 1.25 1.5.35 1.75.55 3.2 1.15.3.1.55.2q2.2.7 4.2 1.95l.4.25 1.55.75 2.3.9m-54-31.4 3.2 1.15.3.1.55.2q2.2.7 4.2 1.95l.4.25m-16.6-5.9.3.1 4.4 1.25 1.5.35 1.75.55-3 3.25-1.65 1.75-.6.6m26.15 10.35 1-.8m-10.3 1.95.4-.6 3.1-4.35 1.4-1.9m-5.9 8.05 1-1.2m4.95 2.3 2.05-1.8 2.3-1.65M75.05 81.4l1.45-1.15.1-.1m-1.55 1.25-2.15 1.65m-21.8 5.7 4.5 1.8h.05l1.9.8 2.15.95 1.7.75q.45.2.85.55 1.55 1.25 3.35 1.85m35.5 6.35-.95 1.25m34.05-15.3-.1.1-1.35 1.95m5.9-9.35 1-1.85.15-.4.2-.7m-10.85 17.55 1.95-2.7 1.65-2.55m-6.05 8.05-2.2-1.05-.5-.25q-1.05-.5-1.95-1.15l-.9-.7q-1.45-.95-2.95-1.65l-2.6-1.45-1.35-.95-2-1.45-2.15-1.65-2.8-2.05-.4-.25m22.25 9.8-2.2 2.55-.25.25 4.55 2.35 1.15.65M117.15 87.8l.15-.15 4.35-4.85m-7.4 7.85 2.9-2.85m-2.75 21.35 2.15-1.65 1.45-1.15.1-.1m2.7 7.85.6-.6 1.65-1.75 3-3.25M50.8 45.2l1.6 2.1m-5.1 4.85 5.85 8.15q1.05 1.5 2.5 2.8l3.15 2.8.75.65-1.4 1.9m-21.25-8.5v-.05l.8-1M27.6 73.45l-2.2-1.85-.4-.45-1.2-1.1-1.55-1.4-4-3.65-3.15-2.6m3.75-5.6q2.95 2.85 6.25 5.5l3.15 2.4 1.8 1.2 2.1 1.5 1-1.45.2-.35 3.55-5.65m6.95 4.25v-.05q.4-1.7 1.55-2.6M25.9 75.5l1.7-2.05.55.4 1 .7 4.35 3.3 1.7 1.3 4.95 3.35 1.8 1.2 2.35 1.6 1.7 1.1 3.45 1.65 1.65.7-.85 1.25-1.3 1.85-2.4 3.75-2.3 3.8-.05.1.3.2 2.15 1.4 4.4 2.65 1.65.85M32.15 67.4l5.7 3.75 2.2 1.45 1.5-2.1.75-1.15.55-.8q1.1-1.75.95-3.8l.05-.55m-3.8 8.4.95.6 5.8 3.55.4.2 1.35.9.35.25 1.55 1 1-1.85.15-.4.2-.7.25-.95 1.4-5.1.1-.35q.4-1.25 1.1-2.4l.4-.5m.85 4.75 2.25-3.15M47.3 52.15l-.6-.8m-41 20.7-1.6-2.1m1.6 2.1q2.45 3 5.3 5.85l2.9 2.55 3.25 2.35 1.55 1.1.2-.25.7-.75 3.9-4.55 2.4-2.85m7.55 5.95.05-.05 1.7-2.25M18.7 83.9l.4.25 2.8 2.05 2.15 1.65 2 1.45 2.9-2.85m-16.1 4.85-.75-.65-3.15-2.8q-1.45-1.3-2.5-2.8L.6 76.9l-.6-.8m7.95 22.05.4-.6 3.1-4.35 1.4-1.9 4.2 3.8 1.2 1.1 1 .9 2.05 1.95 5 3.95 1.9 1.1 1.7.8.3.1 4.4 1.25 1.5.35 1.75.55 3.2 1.15.3.1.55.2q2.2.7 4.2 1.95l.4.25q.75.45 1.55.75l2.3.9m-43.4-13.1 1-1.2m4.95 2.3 2.05-1.8 2.3-1.65 1-.8m-5.35 4.25-.95 1.25m32.6-13.25 1.35-1.95.1-.1m-5.05 7.3-2.2 2.55-.25.25 4.55 2.35 1.15.65m6.25-20.4 6 3.45M40.95 93.7 42.9 91l1.65-2.55m-11.1-7L29.1 86.3l-.15.15m-2.9 2.85 1.35.95L30 91.7l2.95 1.65.9.7 1.95 1.15.5.25 2.2 1.05m-10.15 9.65-2.15 1.65m7 4.35 1.65-1.75 3-3.25m-5.25 5.6.6-.6m-4.85-6L29.8 105l.1-.1m31.9-67.25 3.15 2.6" fill="none" stroke="#666" stroke-linecap="round" stroke-linejoin="round" stroke-opacity=".502" stroke-width=".05"/></g></defs></svg>