<svg viewBox="0 0 175.78 98.98" xmlns="http://www.w3.org/2000/svg" xmlns:xlink="http://www.w3.org/1999/xlink"><g transform="translate(-173.94 -128.52)"><use transform="rotate(-24.572 448.582 -400.791) scale(.6504)" width="28.05" height="59" xlink:href="#a"/><use transform="matrix(.6233 .1821 -.1821 .6233 316.7 141.3)" width="28.05" height="59" xlink:href="#a"/><use transform="matrix(.4642 .4545 -.4545 .4642 290.1 127.8)" width="28.05" height="59" xlink:href="#a"/><use transform="rotate(-80.731 200.005 -5.229) scale(.6494)" width="28.05" height="59" xlink:href="#a"/><use transform="matrix(1.0117 1.0797 -.3285 .3078 332.15 155.7)" width="28.05" height="59" xlink:href="#a"/><use transform="translate(196.65 145.05)" width="135.3" height="82.45" xlink:href="#b"/><use transform="matrix(1.4368 0 0 1.1385 214.95 131.45)" width="69.4" height="69.4" xlink:href="#c"/></g><defs><g id="a" fill="#725510" fill-rule="evenodd"><path d="M18.55 54.65v3.25h-8q-1.65 0-2.85-1.2-1.15-1.15-1.15-2.8Q8.45 51.25 13.8 0q-2.5 50.65 4.75 54.65"/><path d="m15.6 54.15.65 3.15-7.85 1.6q-1.6.35-3.05-.6Q4 57.4 3.7 55.8 5 52.8 0 1.55q7.7 50.1 15.6 52.6"/><path d="m17.55 55.85-.75 1.3-3.2-1.8q-.65-.4-.8-1.1-.25-.75.1-1.45 1.4-.6 15.15-19.9-12.5 19.7-10.5 22.95"/><path d="M16.45 55 16 56.4l-3.5-1.15q-.75-.25-1.1-.9t-.1-1.4q1.15-.9 10.8-22.55-8.3 21.8-5.65 24.6"/></g><g id="b"><path d="M206 190.35v-9.85l18.3 12.7 4.6 3.2-5.2-.95-.8 3.4 1.2 2.75.7 1.55 3.35 3.4-12.7-6.2-9.45-10m14.95 4.6 2.75.5.6-2.25-.6 2.25-2.75-.5m47.9-.1 15.95-6.4-8.75 3.7-7.1 2.95-.3.15-.2.05-.55.25.5-.55.45-.15m-4.8 3.25-1.35.7v-.1l1.35-.6m-39.25 5.05-1.7-1.7-.7-.75.5-1.85-.5 1.85.7.75 1 .15-1-.15 1.7 1.7m-1.7-1.7-4.3-.75 4.3.75" fill="#764514" fill-rule="evenodd" transform="translate(-196.65 -145.05)"/><path d="m321.95 173.25-7.8 3.2.5-.25-1.5.65.7-.3-.9.4-.5.2-9.7 4.05-18.9-6.95-.85-.3 3.45-1.45-5.65-16.8 41.15 17.55m-87.55 7.4 1.05 2.4-3.65-1.25 3.65 1.25-1.65.7-.5.35-1.5-2.3 2.6-1.15m-8.05 7.9-1.8 3.7.75-3.1 1.05-.6m23.2-3.45 1.3 2.4-1.05.4-3.35-1.15 3.1-1.65m6.5 4.9-6.25-2.1 1.05-.4 5.45 2.4 1.2-.55.6 1.35-2.05-.7.25-.1-.25.1m26.2-14.25-1.8-.75 2.35-.5-.55 1.25m.75-1.8 3.8-.4-2.95.7 2.95-.7-3.8.4m-6.95 18.2 8.75-3.7.05.2-8.75 3.65-.05-.15m14.4-21.35 2.7-1.15-2.7 1.15m-4 1.7 2.15-.9-2.15.9" fill="url(#d)" fill-rule="evenodd" transform="translate(-196.65 -145.05)"/><path d="m251.5 217.9 5.2 2.55H269l50.7-22.3 9.5-15.05v6.35l-9.5 15.05-50.7 22.3h-12.3l-41.25-20.1-9.45-10v-6.35l9.45 10 12.7 6.2 23.35 11.35" fill="#57320f" fill-rule="evenodd" transform="translate(-196.65 -145.05)"/><path d="m284.8 188.45.1.2h-.05l-.05-.2" fill="#8d5334" fill-rule="evenodd" transform="translate(-196.65 -145.05)"/><path d="m250.85 187.5 14.5-6.15 6.85 1.3-6.85-1.3 9.45-3.95 3.2.95-3.2-.95 5.65-2.4 1.8.75.55-1.25.2-.55.85.3-1.05.25 1.05-.25 18.9 6.95-17.85 7.45-.1-.2-15.95 6.4-.25-.6-6.45-2.15-4.05-1.4-.6-1.35-1.2.55-5.45-2.4m12-.5-5.35 2.35 5.35-2.35m5.75 2.2-6.45 2.9 6.45-2.9m18.05-11.6-4.4-1.85 4.4 1.85" fill="#a8633e" fill-rule="evenodd" transform="translate(-196.65 -145.05)"/><path d="M262.7 198.8q-1.05.35-2.8 2.25l-.35-1.2 3.15-1.15v.1" fill="#7c482e" fill-rule="evenodd" transform="translate(-196.65 -145.05)"/><path d="m268.75 195.45-.1-.2.3-.15 7.1-2.95.05.15-7.1 3-.25.15" fill="#613823" fill-rule="evenodd" transform="translate(-196.65 -145.05)"/><path d="m258 213.8-6.5 4.1-23.35-11.35-3.35-3.4-.7-1.55-1.2-2.75.8-3.4 5.2.95-4.6-3.2.25-.95 1.8-3.7.4-.25 6.55-4.2.5-.35 1.65-.7 3.35 1.15-3.4 1.4 3.4-1.4 7.65 2.55-3.1 1.7 3.1-1.7 3.35 1.15 6.25 2.1 2.05.7 4.05 1.4-6.55 2.85 6.55-2.85 6.45 2.15.25.6-.45.15-.5.55.55-.25.2-.05.1.2-2.45 1.1-2.25 1.55-1.35.6-3.15 1.15.35 1.2q-1.8 1.85-2 2.45-2.3 6.55.1 10.3m-26.25-23.2-5-2.3 5 2.3m-4.3 11.55-3.35-.55 3.35.55m23.8-10.05 4.8-2.1-4.8 2.1" fill="#9b5b39" fill-rule="evenodd" transform="translate(-196.65 -145.05)"/><path d="m206 180.5 7.25-10.6 40.7-17.8h18.4l8.45 3.6 5.65 16.8-3.45 1.45-.2.55-2.35.5-2.45-1 2.45 1-5.65 2.4-6.2-1.95 6.2 1.95-9.45 3.95-14.5 6.15-1.3-2.4 1.7-.95-1.7.95-3.1 1.65-7.65-2.55-3.35-1.15-1.05-2.4-2.6 1.15-3.65 1.6 3.65-1.6 1.5 2.3-6.55 4.2-.4.25-1.05.6-.75 3.1-.25.95-18.3-12.7m38.05 1.45-5.25 2.25 5.25-2.25m-17.3 6.35-4.35-2 4.35 2m-7.25-10.65 12.3 4.15-12.3-4.15m37.55 2.15 8.3 1.55-8.3-1.55" fill="#c07b56" fill-rule="evenodd" transform="translate(-196.65 -145.05)"/><path d="M329.2 178.85v4.25l-9.5 15.05-50.7 22.3h-12.3l-5.2-2.55 6.5-4.1.95 1.2.25.15q4.15 3.25 12.5.2h.1q11.3-3.45 22.5-8 11.1-4.65 22.1-10.4l.45-.3q3.05-2.95 2.95-5.4.1-2.75-3.2-4.75l-.45-.2-.2-.05-.7.1q-18.85 5.95-35.8 13.85-4.2 1.95-8.25 4l-.7.6q20.1-3.7 38.3-13.55 7.9-.95 8 0-.15 1.35-1.85 3.05l-44.25 18.25-.05.05q-6.35 2.25-9.55.25l-.25-.85q-1.35-5.9 7.6-11.75 1.85-1.25 4.7-2.85 9.6-5.6 30.5-15.9l9.3-4.55.9-.4.3-.1 7.8-3.2 7.25 5.6" fill="#43230c" fill-rule="evenodd" transform="translate(-196.65 -145.05)"/><path d="m312.95 176.95-9.3 4.55q-20.9 10.3-30.5 15.9-2.85 1.6-4.7 2.85-8.95 5.85-7.6 11.75l.25.85q3.2 2 9.55-.25l.05-.05 44.25-18.25q1.7-1.7 1.85-3.05-.1-.95-8 0-18.2 9.85-38.3 13.55l.7-.6q4.05-2.05 8.25-4 16.95-7.9 35.8-13.85l.7-.1.2.05.45.2q3.3 2 3.2 4.75.1 2.45-2.95 5.4l-.45.3q-11 5.75-22.1 10.4-11.2 4.55-22.5 8h-.1q-8.35 3.05-12.5-.2l-.25-.15-.95-1.2q-2.4-3.75-.1-10.3.2-.6 2-2.45 1.75-1.9 2.8-2.25l1.35-.7 2.25-1.55 2.45-1.1.25-.15 7.1-3 8.75-3.65h.05l17.85-7.45 9.7-4.05.5-.2" fill="#603424" fill-rule="evenodd" transform="translate(-196.65 -145.05)"/><path d="m132.55 33.8-7.25-5.6m7.25 9.85v6.35l-9.5 15.05-50.7 22.3h-12.3L18.8 61.65l-9.45-10V45.3m0-9.85 7.25-10.6 40.7-17.8h18.4l8.45 3.6L125.3 28.2" fill="none" stroke="#412618" stroke-linecap="round" stroke-linejoin="round" stroke-width=".05"/><path d="m37.75 35.6-2.6 1.15L38.8 38l3.35 1.15 5.25-2.25m-10.25 1.8-.5.35-6.55 4.2 5 2.3m7.05-6.4-3.4 1.4m-3.6-3.8-3.65 1.6m-1.4 4.9-.4.25-1.05.6-.75 3.1-.25.95-.6 2.25-2.75-.5m7.95 1.45-5.2-.95-.8 3.4-.5 1.85.7.75 1 .15 3.35.55m4.35-20.35-12.3-4.15m2.9 8.65 4.35 2m24.5-4.15-1.7.95-3.1 1.65-3.1 1.7m7.5-.95 14.5-6.15-8.3-1.55m-1 10.2-6.25-2.1-3.35-1.15-7.65-2.55m12.05 3.3-1.05.4m7.7 1.45-1.2.55-.25.1 2.05.7m-.6-1.35 5.35-2.35m-.7 5.1-4.05-1.4m4.05 1.4-6.55 2.85m.45-4.95-4.8 2.1m29.2-17.1 1.8.75 4.4 1.85m-3.85-3.1-2.35.5-2.45-1m4.8.5 1.05-.25 2.95-.7-3.8.4 3.45-1.45m-11.65 4.9 3.2.95m2.45-3.35-5.65 2.4-6.2-1.95m-3.25 5.9 6.85 1.3m2.6-5.25L68.7 36.3m3.25 12.9-6.45-2.15 6.45-2.9m20-17.6-2.15.9m6.7-2.85-2.7 1.15M28.15 58.1l3.35 3.4m-5.05-5.1 1.7 1.7m-6-2.45 4.3.75" fill="none" stroke="#57320f" stroke-linecap="round" stroke-linejoin="round" stroke-width=".05"/><path d="M232.8 158.3q-.6.7-1.05 1.55l-.25.4.05.4-.35-.3-.9-1.4 2.5-.65m.7 8.5h-.35l.05-.2h.15l.1-.15.05.35" fill="#f5eed5" fill-rule="evenodd" transform="translate(-196.65 -145.05)"/><path d="M225 156.7v.15l-.05-.15h.05m-4.7 2.45q-.5.6-1.3.15l1.05-.3.25.15" fill="#f5eed3" fill-rule="evenodd" transform="translate(-196.65 -145.05)"/><path d="m223.5 171.2-.25-.6.35-.05-.1.65" fill="#4f301c" fill-rule="evenodd" transform="translate(-196.65 -145.05)"/><path d="m232.8 158.3.35-.45q1.1-1.4 2.8-2.1l4-.1.5.55.8.95 1.25-.2 1.1-.1q12.85 4.8 2.95 18.95l-38.1 5.95q-9.2-8.3.9-17.6l1.05-.2 2.25.05.9.25.85.35q.3-1.3 1.05-2.35.8-1.35 2.25-2.25l1.3-.7q.8.45 1.3-.15.65-.9 1.6-1.45l1.45-.5 1.65-.35v-.15l1.25.15q1.15.2 2.3.85.95.5 1.75 1.25l.9 1.4.35.3-.05-.4.25-.4q.45-.85 1.05-1.55m-9.3 12.9.1-.65-.35.05.25.6m10-4.4-.05-.35-.1.15h-.15l-.05.2h.35" fill="#c07b56" fill-rule="evenodd" transform="translate(-196.65 -145.05)"/><path d="m46.95 11.8-1.1.1-1.25.2-.8-.95-.5-.55-4 .1q-1.7.7-2.8 2.1l-.35.45q-.6.7-1.05 1.55l-.25.4.05.4-.35-.3-.9-1.4q-.8-.75-1.75-1.25-1.15-.65-2.3-.85l-1.25-.15h-.05l.05.15-1.65.35-1.45.5q-.95.55-1.6 1.45-.5.6-1.3.15l-1.3.7q-1.45.9-2.25 2.25-.75 1.05-1.05 2.35l-.85-.35-.9-.25-2.25-.05-1.05.2m10.7-5.15-1.05.3" fill="none" stroke="#423213" stroke-linecap="round" stroke-linejoin="round" stroke-opacity=".502" stroke-width=".05"/><path d="m199.4 183.3.85.5.25.15.2-.05-.15.2q-.45.2-.75.55l-.4-1.35m4.5-.55-.1-.05.15-.05h.05v.2h-.1v-.1" fill="#f5eed5" fill-rule="evenodd" transform="translate(-196.65 -145.05)"/><path d="M198.75 187.6h.05-.05m1.45 2.5q.3.25.1.7l-.15-.6.05-.1" fill="#f5eed3" fill-rule="evenodd" transform="translate(-196.65 -145.05)"/><path d="m199.4 183.3-.25-.2q-.8-.6-1.25-1.45-.45-1.15-.15-2.2l.25-.3.5-.45-.15-.65-.05-.6q2.25-7.2 10.25-2.15l-1.2 1.25q.85 1.5-.95 9.8l2.15-.45-.25.05-.05 7.6 4.6 2.35q-4.25 5.25-9.6 0l-.15-.55-.05-1.2.1-.5.2-.5-1.3-.5-1.3-1.15-.45-.7q.2-.45-.1-.7l-.85-.85-.3-.75-.25-.9h-.05l.05-.7.35-1.3q.25-.55.65-.95.3-.35.75-.55l.15-.2-.2.05-.25-.15-.85-.5m4.5-.55v.1h.1v-.2h-.05l-.15.05.1.05" fill="#764514" fill-rule="evenodd" transform="translate(-196.65 -145.05)"/><path d="m1.65 32.4.05.6.15.65-.5.45-.25.3q-.3 1.05.15 2.2.45.85 1.25 1.45l.25.2.85.5.25.15.2-.05-.15.2q-.45.2-.75.55-.4.4-.65.95l-.35 1.3-.05.7h.05l.25.9.3.75.85.85q.3.25.1.7l.45.7 1.3 1.15 1.3.5-.2.5-.1.5.05 1.2.15.55m-3.1-5.7.15.6" fill="none" stroke="#423213" stroke-linecap="round" stroke-linejoin="round" stroke-opacity=".502" stroke-width=".05"/><path d="m259.5 146.35 1 .35 1.9 1.15.7.65.55.75q.9-.95 2.1-1.5 1.35-.75 3.05-.85l1.5.05q.45.8 1.2.5 1-.4 2.1-.45l1.5.3q.85.15 1.6.55l.1-.15.95.75 1.65 1.9.85 1.95.1 1.65.15.5.15-.4.4-.25q.8-.5 1.7-.8l.5-.2 3.5-.4q2.15.35 3.5 1.85l.2.75.15 1.2 1.2.45 1 .5q8.75 10.6-6.9 17.85 4.25-10.85-18.3-9.9 13.8-1.9 13.25-2.5-1.3-1.05-2.6-1.8l.85-.1.15-.3-.15.05-.2-.05-.1.1-.85.1q-6.2-3.5-12.4-.15.4-7.35-16.25-3.05-3.2-8.05 10.2-11.05" fill="#84512f" fill-rule="evenodd" transform="translate(-196.65 -145.05)"/><path d="M282.75 153q-.9.3-1.7.8l-.4.25-.15.4-.15-.5-.1-1.65 2.5.7" fill="#f5eed5" fill-rule="evenodd" transform="translate(-196.65 -145.05)"/><path d="m276.8 147.7-.1.15.05-.15h.05m-5.3-.25q-.75.3-1.2-.5l1.05.3.15.2" fill="#f5eed3" fill-rule="evenodd" transform="translate(-196.65 -145.05)"/><path d="m73.65 1.9-1.5-.05q-1.7.1-3.05.85-1.2.55-2.1 1.5l-.55-.75-.7-.65-1.9-1.15-1-.35m33.3 10.8-1-.5-1.2-.45-.15-1.2-.2-.75q-1.35-1.5-3.5-1.85l-3.5.4-.5.2q-.9.3-1.7.8L84 9l-.15.4-.15-.5-.1-1.65-.85-1.95-1.65-1.9-.95-.75h-.05l-.05.15q-.75-.4-1.6-.55l-1.5-.3q-1.1.05-2.1.45-.75.3-1.2-.5l1.05.3" fill="none" stroke="#423213" stroke-linecap="round" stroke-linejoin="round" stroke-opacity=".502" stroke-width=".05"/><path d="m307.85 160.2.4-.15 2.6-.3q1.6.3 2.6 1.4l.1.55.15.9.9.3.75.35q6.45 7.85-5.15 13.25l-26.6-10.3q-2.85-8.7 7.1-10.9l.7.25q.75.35 1.45.85l.5.5.4.55q.65-.7 1.55-1.1 1-.55 2.25-.65l1.1.05q.35.55.9.35l1.55-.3 1.1.2 1.2.4.05-.1.75.55 1.2 1.4.65 1.45.05 1.25.1.35.1-.3.35-.2 1.2-.6m-2.55 5.5-.1.05-.15-.05-.1.1.25.15.1-.25m-7.95-.2.2-.75-.35-.2-.05.5.2.45m1.6-1.3 1.3-1 1.6-1.15-1.7 1.1-.65.4-.75.3q-.15.1.1.45l.1-.1" fill="#84512f" fill-rule="evenodd" transform="translate(-196.65 -145.05)"/><path d="m306.05 159.7 1.8.5-1.2.6-.35.2-.1.3-.1-.35-.05-1.25m-.75 6-.1.25-.25-.15.1-.1.15.05.1-.05" fill="#f5eed5" fill-rule="evenodd" transform="translate(-196.65 -145.05)"/><path d="m298.65 155.75.8.2.1.15q-.55.2-.9-.35m4.75.65.05-.1-.05.1" fill="#f5eed3" fill-rule="evenodd" transform="translate(-196.65 -145.05)"/><path d="m298.95 164.2-.1.1q-.25-.35-.1-.45l.75-.3.65-.4 1.7-1.1-1.6 1.15-1.3 1m-1.6 1.3-.2-.45.05-.5.35.2-.2.75" fill="#4f301c" fill-rule="evenodd" transform="translate(-196.65 -145.05)"/><path d="m111.2 15.15.4-.15 2.6-.3q1.6.3 2.6 1.4l.1.55.15.9.9.3.75.35m-24.65-7.95.7.25q.75.35 1.45.85l.5.5.4.55q.65-.7 1.55-1.1 1-.55 2.25-.65l1.1.05.8.2m.1.15 1.55-.3 1.1.2 1.2.4.05-.1.75.55 1.2 1.4.65 1.45.05 1.25.1.35.1-.3.35-.2 1.2-.6m-8.3-4.1q-.55.2-.9-.35" fill="none" stroke="#423213" stroke-linecap="round" stroke-linejoin="round" stroke-opacity=".502" stroke-width=".05"/><path d="m329.3 189.45-.9-.8-.25-.2h-.25l.25-.2.95-.45.2 1.65m.55-8q-.35-.35 0-.8l.05.7-.05.1" fill="#764514" fill-rule="evenodd" transform="translate(-196.65 -145.05)"/><path d="M327.6 174.1v.7l-.2 1.4-.2.55-.3.5q.75.3 1.35.9l1.25 1.6.35.9q-.35.45 0 .8l.75 1.15.2.95.05 1.1.1-.05v.05l-.2.75-.7 1.4-.95 1-.95.45-.25.2h.25l.25.2.9.8.25.25q.75.85 1.05 1.95.3 1.35-.25 2.55l-.4.25-.65.45.05.8-.05.7q-4.2 7.7-9.3 2.4 4.45-14.25-3.45-26.75 6-5.15 11.05 2.05" fill="#43230c" fill-rule="evenodd" transform="translate(-196.65 -145.05)"/><path d="m133.2 35.6-.35-.9-1.25-1.6q-.6-.6-1.35-.9l.3-.5.2-.55.2-1.4v-.7m1.7 22.3.05-.7-.05-.8.65-.45.4-.25q.55-1.2.25-2.55-.3-1.1-1.05-1.95l-.25-.25-.9-.8-.25-.2h-.25l.25-.2.95-.45.95-1 .7-1.4.2-.75v-.05l-.1.05-.05-1.1-.2-.95-.75-1.15q-.35-.35 0-.8l.05.7" fill="none" stroke="#423213" stroke-linecap="round" stroke-linejoin="round" stroke-opacity=".502" stroke-width=".05"/><path d="M80.15 2.35h-.05l-.05.15q-.75-.4-1.6-.55l-1.5-.3q-1.1.05-2.1.45-.75.3-1.2-.5l-1.5-.05q-1.7.1-3.05.85-1.1.5-1.95 1.35l-.2.1-.5-.7-.7-.65-1.9-1.15-1-.35Q54 2.95 52.65 8.8l-6.2 2.7-.6.1-1.25.2-.8-.95-.5-.55-4 .1q-1.7.7-2.8 2.1l-.35.45q-.6.7-1.05 1.55l-.25.4.05.4-.35-.3-.9-1.4q-.8-.75-1.75-1.25-1.15-.65-2.3-.85l-1.25-.15h-.05l.05.15-1.65.35-1.45.5q-.95.55-1.6 1.45-.5.6-1.3.15l-1.3.7q-1.45.9-2.25 2.25-.75 1.05-1.05 2.35l-.85-.35-.9-.25-2.25-.05-1.05.2Q7.55 23.5 7.4 28q-4.2-.85-5.75 4.1l.05.6.15.65-.5.45-.25.3q-.3 1.05.15 2.2.45.85 1.25 1.45l.25.2.85.5.25.15.2-.05-.15.2q-.45.2-.75.55-.4.4-.65.95l-.35 1.3-.05.7h.05l.25.9.3.75.85.85q.3.25.1.7l.45.7 1.3 1.15 1.3.5-.2.5-.1.5.05 1.2.15.55q2.3 2.3 4.45 2.6l7.75 8.2 41.25 20.1h12.3l50.7-22.3 2.55-4q3.8 1.9 7.05-4.1l.05-.7-.05-.8.65-.45.4-.25q.55-1.2.25-2.55-.3-1.1-1.05-1.95l-.35-.35-.8-.7-.25-.2h-.25l.25-.2.95-.45.1-.1.85-.9.7-1.4.2-.75v-.05l-.1.05-.05-1.1-.2-.95-.75-1.15q-.35-.35 0-.8l-.35-.9-.3-.55-.95-1.05-.65-.5-.7-.4.05-.1.25-.4.2-.55.2-1.4v-.7q-4.25-6.1-9.2-3.35l-.85-1.15q.55-2.95-2.2-6.35l-.75-.35-.9-.3-.15-.9-.1-.55q-1-1.1-2.6-1.4l-2.6.3-.4.15-1.2.6-.35.2-.1.3-.1-.35-.05-1.25-.65-1.45-1.2-1.4-.75-.55-.05.1-1.2-.4-1.1-.2-1.55.3q-.55.2-.9-.35l-1.1-.05q-1.25.1-2.25.65-.9.4-1.55 1.1l-.4-.55-.5-.5q-.7-.5-1.45-.85l-.7-.25-.2.05-.05-.35-.2-.75q-1.35-1.5-3.5-1.85l-3.5.4-.5.2q-.9.3-1.7.8l-.4.25-.15.4-.15-.5-.1-1.65L82.75 5 81.1 3.1z" fill="none" stroke="#000" stroke-linecap="round" stroke-linejoin="round" stroke-width="2"/></g><radialGradient id="e" cx="0" cy="0" r="819.2" gradientTransform="translate(34.7 34.7) scale(.0435)" gradientUnits="userSpaceOnUse"><stop stop-color="#feeaa3" stop-opacity=".471" offset=".114"/><stop stop-color="#fefea3" stop-opacity="0" offset="1"/></radialGradient><linearGradient id="d" x1="-819.2" x2="819.2" gradientTransform="matrix(-.0028 .0105 -.065 -.0172 259.65 193.3)" gradientUnits="userSpaceOnUse"><stop stop-color="#84512f" offset="0"/><stop stop-color="#764514" offset="1"/></linearGradient><path d="M59.2 10.15q10.2 10.2 10.2 24.55T59.2 59.2Q49.05 69.4 34.7 69.4T10.15 59.2Q0 49.05 0 34.7t10.15-24.55Q20.35 0 34.7 0t24.5 10.15" fill="url(#e)" fill-rule="evenodd" id="c"/></defs></svg>