<svg viewBox="0 0 206.9 57.356" xmlns="http://www.w3.org/2000/svg" xmlns:xlink="http://www.w3.org/1999/xlink"><use transform="translate(0 .01)" width="206.9" height="57.35" xlink:href="#a"/><defs><linearGradient id="c" x1="-819.2" x2="819.2" gradientTransform="matrix(.0547 .0147 -.0099 .037 -11.65 -4.15)" gradientUnits="userSpaceOnUse"><stop stop-color="#8ca5bd" offset="0"/><stop stop-color="#394e64" offset="1"/></linearGradient><use width="206.9" height="57.35" xlink:href="#b" id="a"/><g id="b"><path d="M6.6-11.35h1.3q12.9-.3 25.35-5.35 5.75-2.35 11.3-2.85l-3.65 1.5-4.85 2.25q-4.7 2.2-8.8 5.4l-4.9 4.2Q18.45-2.5 13.8.15L11.4 1.6Q7.9 3.85 4.2 5.9L1.45 7.2-4.4 9.55l-3.2 1.15-7.75 2.25q-5.3 1.3-10.7 1.4l-2.25.2q-3.85.6-6-2.4v-.1.1l-.1-.15.1.05q-.05-2.4 2.15-3.95 4.7-3.3 10-5.45l11-4.3q4.7-1.8 9.35-3.75 4.1-1.75 7.4-4.95l1-1m-20.5-13.6q-.2 1.75-1.4 3-1.25 1.4-2.95 2.25-1.75.95-3.7 1.3l-.9.1-.85-.25q-.7-.45-1.6-.35l-.65.2-.65.35-.7.55q-.75.8-1.65 1.45l-.9.5q-1.75.85-3.7.4-.45-.1-.85-.35-1.6-1.1-3.15-2.35l-.85-.6-3.1-2q-.95-.65-2.05-.95l-3.45-.9-.5-.1 2.2-.3q7.95-.7 15.15-.1l2.2.05q1.45-.9 2.4-1.9 3.7-4.3 9.1-2.85l1.1.85L-14-25.1l.1.15m-82.7 30.5h-.25l-4.7.2-.45.05q-1 .25-.95-.5.75-1 1.95-1.3l.85-.25 2-.7.85-.2q3.9-.7 7.5-2.3l-.55.65-3.15 2.25-.9.5-.65.3q-.85.6-1.55 1.3m18.2-11.1 2.85.35 5.65.8q.95.05 1.65-.4l1.15-.45.55-.2q.65-.35 2.8-2.2-1.75 4.3-3.1 8.8-.9 2.95-3.05 5.1l-1.4-.95q-.75-.2-1.2-.9l-.8-1.15-2.1-3-.65-1.4-.5-1.1.55.5.5.15-.5-.15-.55-.5-1.15-2.15-.7-1.15m5.55 7.8-.35-.6.35.6" fill="#b0c1d2" fill-rule="evenodd" transform="translate(103.45 28.65)"/><path d="M-7-15.5q5.3 4.05 13.6 4.15l-1 1Q2.3-7.15-1.8-5.4q-4.65 1.95-9.35 3.75l-11 4.3q-5.3 2.15-10 5.45-2.2 1.55-2.15 3.95l-.1-.05q-1.25-1.85-1.05-4.2l.15-1q.2-1.15 1.2-1.95L-28.55.1l2.25-1.6q4.7-2.85 9.3-5.9 4.4-2.95 8.35-6.6L-7-15.5" fill="#687f96" fill-rule="evenodd" transform="translate(103.45 28.65)"/><path d="M44.55-19.55q8.7-.75 16.9 3.05l1.85 1.05q-3.8 1.05-7.35 2.65-3.75 1.65-7.2 3.9l-5.5 3.85-5.85 4.2q-3.15 2.1-5.6 5L30.15 5.8Q28.2 7.5 26.9 9.65q-1.55 2.45 1.05 4.2l.65.35q2.2.9 2.5 3.6l.2 1.3q.1.75.45 1.35l.6 1.2.45.7q1.55 1.75 3.75.65l.55-.55.7-1.2q.95-2.05.7-4.4l-.15-1.3q-.35-2.1 1.5-3.35l4.6-3.15Q48.8 6.1 53.7 4.3q1.6-.55 3.05-1.35l2.95-1.5L63.45-.1 70.9-3l3.7-1.4q9.05 1.2 18.25-.25 5.1-1 10.1.45-20 4.4-39.2 11.5-1.3.5-2.5 1.15 6.5 2.85 13.25 5.15-3.45 1.7-7.1 2l-.75.1q-11.2-5-21.85 1.3-1.25.75-.55 2.15 1.15 2.2 3.65 3.05 4.1 1.5 8.45 1.95-7.45-.25-13.5 3.5l-1.4.55-.45-.5q-9.35.35-12.1-8.3-1.45-4.55-6.2-5.95-11-3.35-21.55 1.1-16.05 6.7-32.8 5.55-3.35-.15-6-2.45-3-2.75-2-7.25 0-4.45-.35-8.9l-.1-1.25q-.85-7.7-3.9-14.75-2.15-4.85-7.05-5.15-1.1-.05-2.2.55-2.2 1.3-3.4 3.6-3.8 7.3-5.2 15.5-.25 1.55-1.1 2.85L-66.3 8.5l-.4.55-.95.75q-.8.5-1.75.6-2.7.35-4.15-2.3-2.3-4.25-5-8.15L-80.2-2.3q-1.2-1.65-2.9-1.85-1.6-.25-2.5 1.3l-.65 1.15q-1.95 3.55-5.3 5.6l-.6.35-1.15.55q-1.5.7-3.3.75.7-.7 1.55-1.3l.65-.3.9-.5 3.15-2.25.55-.65.05-.05.4-.45q.95-2.35 2.45-4.2 1.6-2.65 5.15-1.75l2.4.3.95.05.7 1.15 1.15 2.15.5 1.1.65 1.4 2.1 3 .8 1.15q.45.7 1.2.9l1.4.95q2.15-2.15 3.05-5.1 1.35-4.5 3.1-8.8l.6-1.5.9-2.1 2.5-6.15q.5-1.3 2.35-2.7 2.35-1.75 5.95-2.05l2.9-.4.25-.05.8-.1.5.1 3.45.9q1.1.3 2.05.95l3.1 2 .85.6Q-36-16.9-34.4-15.8q.4.25.85.35 1.95.45 3.7-.4l.9-.5q.9-.65 1.65-1.45l.7-.55.65-.35.65-.2q.9-.1 1.6.35l.85.25.9-.1q1.95-.35 3.7-1.3 1.7-.85 2.95-2.25 1.2-1.25 1.4-3 2.45 6.1 6.9 9.45L-8.65-14Q-12.6-10.35-17-7.4q-4.6 3.05-9.3 5.9L-28.55.1l-5.55 4.75q-1 .8-1.2 1.95l-.15 1q-.2 2.35 1.05 4.2l.1.15q2.15 3 6 2.4l2.25-.2q5.4-.1 10.7-1.4l7.75-2.25 3.2-1.15L1.45 7.2 4.2 5.9q3.7-2.05 7.2-4.3L13.8.15q4.65-2.65 8.55-6.35l4.9-4.2q4.1-3.2 8.8-5.4l4.85-2.25 3.65-1.5m-88.9-.65-1-.4q-1.9-.6-2.95-2 1.05 1.4 2.95 2l1 .4m83.6 43.15-.7-.5q-.85-.35-.75-1.2-.1.85.75 1.2l.7.5M4.35 9.05 3 9.6q-1.25.4-2.2 1.1.95-.7 2.2-1.1l1.35-.55M-7.3 12.3l-1.25.65-2 .75 2-.75 1.25-.65m22.65-5.15-2.9.45-1-.15 1 .15 2.9-.45m10 1.9-1.6-.25-2.85-.5 2.85.5 1.6.25M-37 8.1V4.55 8.1m.2-7.5v-1.9V.6m-.5-6.65q-.4-.85-.3-1.85.25-1.85-.65-2.4.9.55.65 2.4-.1 1 .3 1.85m-2.45-8.9-.65-1.1-1.15-1.3 1.15 1.3.65 1.1M-21.2 14.9l-1.25.2-1.65.1 1.65-.1 1.25-.2m-10 .95-1.3-.35q-1.65-.55-2.25-2.2.6 1.65 2.25 2.2l1.3.35m-47.5-20.7q.85 1.4 2.15 2.6-1.3-1.2-2.15-2.6" fill="url(#c)" fill-rule="evenodd" transform="translate(103.45 28.65)"/><path d="M63.3-15.45q4.1 2.65 5.55 7.9.65 2.35 3.2 2.75l2.55.4L70.9-3 63.45-.1 59.7 1.45l-2.95 1.5q-1.45.8-3.05 1.35-4.9 1.8-9.25 4.75l-4.6 3.15q-1.85 1.25-1.5 3.35l.15 1.3q.25 2.35-.7 4.4l-.7 1.2-.55.55q-2.2 1.1-3.75-.65l-.45-.7-.6-1.2q-.35-.6-.45-1.35l-.2-1.3q-.3-2.7-2.5-3.6l-.65-.35q-2.6-1.75-1.05-4.2 1.3-2.15 3.25-3.85l1.65-1.65q2.45-2.9 5.6-5l5.85-4.2 5.5-3.85q3.45-2.25 7.2-3.9 3.55-1.6 7.35-2.65M33.75 15.2l-1.25-.95q-.9-.6-1.3-1.3.4.7 1.3 1.3l1.25.95" fill="#1c2731" fill-rule="evenodd" transform="translate(103.45 28.65)"/><path d="M-40.1.25q-.6.35-1.9.5l-4.25.15q-2.3-.1-4.15.75l-2.9 1.4q-4.3 2.25-8.5 4.65-2.25 1.25-4.9 1.35l.4-.55 3.35-5.65q.85-1.3 1.1-2.85 1.4-8.2 5.2-15.5 1.2-2.3 3.4-3.6 1.1-.6 2.2-.55 4.9.3 7.05 5.15 3.05 7.05 3.9 14.75" fill="#394e64" fill-rule="evenodd" transform="translate(103.45 28.65)"/><path d="M6.6-11.35h1.3q12.9-.3 25.35-5.35 5.75-2.35 11.3-2.85 8.7-.75 16.9 3.05l1.85 1.05q4.1 2.65 5.55 7.9.65 2.35 3.2 2.75l2.55.4q9.05 1.2 18.25-.25 5.1-1 10.1.45-20 4.4-39.2 11.5-1.3.5-2.5 1.15 6.5 2.85 13.25 5.15-3.45 1.7-7.1 2l-.75.1q-11.2-5-21.85 1.3-1.25.75-.55 2.15 1.15 2.2 3.65 3.05 4.1 1.5 8.45 1.95l1.9.1M-7-15.5q5.3 4.05 13.6 4.15m-40.9 23.4v.1M-7-15.5q-4.45-3.35-6.9-9.45m-33.6 2.25-.8.1q1.05 1.4 2.95 2l1 .4M31.2 12.95q.4.7 1.3 1.3l1.25.95m4.05 6.05q-.1.85.75 1.2l.7.5m17.1 1.2q-7.45-.25-13.5 3.5l-1.4.55-.45-.5q-9.35.35-12.1-8.3-1.45-4.55-6.2-5.95-11-3.35-21.55 1.1-16.05 6.7-32.8 5.55-3.35-.15-6-2.45-3-2.75-2-7.25 0-4.45-.35-8.9l-.1-1.25q-.6.35-1.9.5l-4.25.15q-2.3-.1-4.15.75l-2.9 1.4q-4.3 2.25-8.5 4.65-2.25 1.25-4.9 1.35l-.95.75q-.8.5-1.75.6-2.7.35-4.15-2.3-2.3-4.25-5-8.15L-80.2-2.3q-1.2-1.65-2.9-1.85-1.6-.25-2.5 1.3l-.65 1.15q-1.95 3.55-5.3 5.6l-.6.35-1.15.55q-1.5.7-3.3.75h-.25l-4.7.2-.45.05q-1 .25-.95-.5.75-1 1.95-1.3l.85-.25 2-.7.85-.2q3.9-.7 7.5-2.3l.05-.05.4-.45q.95-2.35 2.45-4.2 1.6-2.65 5.15-1.75l2.4.3.95.05 2.85.35 5.65.8q.95.05 1.65-.4l1.15-.45.55-.2q.65-.35 2.8-2.2l.6-1.5.9-2.1 2.5-6.15q.5-1.3 2.35-2.7 2.35-1.75 5.95-2.05l2.9-.4.25-.05M20.9 8.3l2.85.5 1.6.25m-13.9-1.6 1 .15 2.9-.45m-25.9 6.55 2-.75 1.25-.65m8.1-1.6Q1.75 10 3 9.6l1.35-.55M-40.1.25q-.85-7.7-3.9-14.75-2.15-4.85-7.05-5.15-1.1-.05-2.2.55-2.2 1.3-3.4 3.6-3.8 7.3-5.2 15.5-.25 1.55-1.1 2.85L-66.3 8.5l-.4.55m19.2-31.75 2.2-.3q7.95-.7 15.15-.1l2.2.05q1.45-.9 2.4-1.9 3.7-4.3 9.1-2.85l1.1.85L-14-25.1l.1.15m-27.65 7.6 1.15 1.3.65 1.1m1.5 4.65q.9.55.65 2.4-.1 1 .3 1.85m.5 4.75V.6m-.2 3.95V8.1m2.25 5.2q.6 1.65 2.25 2.2l1.3.35m7.1-.65 1.65-.1 1.25-.2m-50.1-9.6 1.4.95q2.15-2.15 3.05-5.1 1.35-4.5 3.1-8.8m-12.8 5.4.55.5.5.15m-1.05-.65q-1.3-1.2-2.15-2.6m5.5 6.5.35.6" fill="none" stroke="#000" stroke-linecap="round" stroke-linejoin="round" stroke-opacity=".4" transform="translate(103.45 28.65)"/></g></defs></svg>