<svg viewBox="0 0 330.35 191.4" xmlns="http://www.w3.org/2000/svg" xmlns:xlink="http://www.w3.org/1999/xlink"><use width="330.35" height="191.4" xlink:href="#a"/><defs><use width="330.35" height="191.4" xlink:href="#b" id="a"/><g id="b"><path d="m164.05-53.9-.1.25q-5.15 1.15-10.7 1.4L142.5-50.9q-25.55 4.95-48.25 17.25L89.1-30.8q-2.45 1.4-5.35 1.95l-2.15.2q1.65-4.1 4.45-7.8 1.4-1.75-.15-2.95-12.75 1.8-24.45 7.6l-13.9 7.25q-7.45 4.1-14.6 8.85-4.9 3.3-9.55 6.95L-13.7 4.2q1.45-3.75 1.5-7.95.05-2.45-2.05-2.8-5.05.85-9.4 4Q-30.2 2.1-35.4 8.15q-2.35 2.8-3.15 6.3Q-48.5 9.7-51.3-1.15-52.55-5.7-57.05-7q-7-2-14.3-2.2l.15-.05q5.8-2.25 9.55-7 1.55-1.95-.05-3.7-1.25-1.4-8.25-.8-4.55 2.7-7.15 8.15-1 2.15-.05 2.8l1.15.7-27.95 4.25Q-117-2.5-129.45 2q-7.1 2.55-14.15 4.9l-6.5 2.05 4.1-5.35q8.6-10.7 18.45-20.2 4.3-4.15 9.1-7.8l-1.55 4.75q-.5 1.85.6 3.2l.85.8q2.6 2 5.9 1.35 7.75-1.5 14.95-5 8.95-4.35 17.45-9.5 10.35-6.2 17.5-15.8l.85-1.45 1.1-.3 7.15-2.05q23.55 9.05 51.45.45l2.05-.25-1.6 7.55q46.55.55 90.4-15.45 6.65-2.45 13.5-.55l-6.2 4.4.35 1.8q7.5 2.85 14.05-1.95 3.55-2.6 4.3-7 .55-3.1.05-6.2l1.5.55q3.75 1.3 7.65 2 5.2.95 10.2 2.45 3.8 1.15 7.7 1.85 11.5 2.1 22.3 4.85m-290.5 43.1 7.05-5.65-7.05 5.65m246.9-39.5-11.95 4.25 11.95-4.25m-19.05 7.75L90.85-36.2l10.55-6.35m36-14.1-11.25 3.5 11.25-3.5m-198.2 13.5 8.65-3-8.65 3m43.1 18.5q-7.15 1.3-9.65 8.6-.65 2.1.75 3.1 2.45 1.8 5.5.8 4.35-1.45 6.55-5.25 1.7-2.9-.25-5-1.25-1.35-2.9-2.25m-117.2 21.6-8.7 9.95 8.7-9.95" fill="#666637" fill-rule="evenodd" transform="translate(165.15 95.7)"/><path d="M114.7-65.6q.5 3.1-.05 6.2-.75 4.4-4.3 7-6.55 4.8-14.05 1.95l-.35-1.8 6.2-4.4q-6.85-1.9-13.5.55-43.85 16-90.4 15.45l1.6-7.55-2.05.25q-27.9 8.6-51.45-.45l19.35-5.85q13-4.05 25-10.15 6.45-3.3 12.6-7 7.45-4.55 14.15-10.1 7.9-6.6 15.4-13.7h.05q2.2 1.35 4.35 1.85 9.55 2.25 19.3 3.1-15.8 2.8-30.1 10.65-8.25 4.55-15.85 9.95-7.55 5.3-7.05 13.6 0 .9 2.9.9 4.65 0 9.15-1.25 6.25-1.65 12.25-3.95 12.65-4.9 24.5-11.2l4.45-2.5q4 1.7 7.65 2.2l3.55.2h3.6Q61.55-66.6 58-56.6q7.75 1.65 14.95-3l5.1-3.4 3.25-2.4q.7-.5 1.75-.5 2.35.05 4.5-1l3.35-1.3q3.25-.95 6.4-2.2l3.65-.45q4.5.4 8.6 2.75 2.5 1.45 5.15 2.5M23.4-8.75Q13.9-1.3 5.7 7.75q-1.4 1.55-2.15 3.7l4.8-.25 9.7-3.05q5.55-2.1 11.3-3.9 8.65-2.65 17.2-5Q39.65 2 33.85 7.3l-19.2 17.35Q11.8 27.2 9.5 30.2q-6.3 8-13.15 15.55Q-5.4 47.6-6.9 49.6q-1.7 2.3-3 4.85-8.05 15.8-13.2 32.85l-.95 3.65-.5 2.75-.4 1.5-3.9-2.65q-6.35-4.6-14.1-6.8l-1.45-.55q12.25-13.55 17.8-30.15.45-1.4.45-2.8 0-.35-.35-.7-7 2.15-13.3 7.35-4.95 4.1-10.35 7.7-8.25 5.55-15.75 12.05-1.25 1.05-2.65.45l-1.65-.95q-5-3.75-11.3-5.55-3.7-1-7.25-2.55L-99.4 65.6l-2.95-1.2q.25-2.4 3.35-3.95 2.7-1.4 5.15-3.3 12.45-9.6 19.15-23.65.6-1.25-.55-1.9-3.15-1.85-6.35-.1l-1.45.7q6.8-11.85 6.8-25.05 0-.4-.9-.15-1.95.5-3.6 1.8-7.35 5.7-13.95 12.45l-4.9 4.45q-3.4 2.75-7.2 3.8-.6.2-1.25-.3-3.25-2.45-7.2-2.75l6.3-12.25q3.7-6.75 2.3-13.5-7.1.6-11.35 6.7l-6.85 9.35q-3.3 4.35-6.15 9-6.15 9.95-9.05 20.1l-.25 2.1-.35.45-24-17.65q8.6-13.6 14.55-21.8l6.5-2.05q7.05-2.35 14.15-4.9 12.45-4.5 25.5-6.85L-76-9.1l4.65-.1q7.3.2 14.3 2.2 4.5 1.3 5.75 5.85 2.8 10.85 12.75 15.6l-.05.4q-.35 1.9 1.1 2.95 2.45 1.75 5.5 1.45 4-.4 7.35-2.6 3.7-2.4 6.65-5.75 2.8-3.1 4.3-6.7L23.4-8.75m-50-46.05 11.15-4.5-11.15 4.5m38.05-19.5 9-7.35-9 7.35m-56.4 26.15 9.85-3.65-9.85 3.65M-6.6-63.3l8.15-5.5-8.15 5.5m28.3 73.7-8.45 7.7 8.45-7.7m-172.1 6.35-7.05 9.85 7.05-9.85M26.65-84.9l7.75-5.6-7.75 5.6m-52.2 156.65-4.95 12.7 4.95-12.7m11.3-22.6-7.8 13.45 7.8-13.45M4.05 26.6-7.2 40 4.05 26.6" fill="#52522e" fill-rule="evenodd" transform="translate(165.15 95.7)"/><path d="m163.95-53.65.75-.1-.65-.15q-10.8-2.75-22.3-4.85-3.9-.7-7.7-1.85-5-1.5-10.2-2.45-3.9-.7-7.65-2l-1.5-.55M-53.65-48.4l-7.15 2.05-1.1.3-.85 1.45q-7.15 9.6-17.5 15.8-8.5 5.15-17.45 9.5-7.2 3.5-14.95 5-3.3.65-5.9-1.35l-.85-.8m283.35-37.2q-5.15 1.15-10.7 1.4L142.5-50.9q-25.55 4.95-48.25 17.25L89.1-30.8q-2.45 1.4-5.35 1.95l-2.15.2q1.65-4.1 4.45-7.8 1.4-1.75-.15-2.95-12.75 1.8-24.45 7.6l-13.9 7.25q-7.45 4.1-14.6 8.85-4.9 3.3-9.55 6.95Q13.9-1.3 5.7 7.75q-1.4 1.55-2.15 3.7l4.8-.25 9.7-3.05q5.55-2.1 11.3-3.9 8.65-2.65 17.2-5Q39.65 2 33.85 7.3l-19.2 17.35Q11.8 27.2 9.5 30.2q-6.3 8-13.15 15.55Q-5.4 47.6-6.9 49.6q-1.7 2.3-3 4.85-8.05 15.8-13.2 32.85l-.95 3.65-.5 2.75-.4 1.5-3.9-2.65q-6.35-4.6-14.1-6.8l-1.45-.55q12.25-13.55 17.8-30.15.45-1.4.45-2.8 0-.35-.35-.7-7 2.15-13.3 7.35-4.95 4.1-10.35 7.7-8.25 5.55-15.75 12.05-1.25 1.05-2.65.45l-1.65-.95q-5-3.75-11.3-5.55-3.7-1-7.25-2.55L-99.4 65.6l-2.95-1.2q.25-2.4 3.35-3.95 2.7-1.4 5.15-3.3 12.45-9.6 19.15-23.65.6-1.25-.55-1.9-3.15-1.85-6.35-.1l-1.45.7q6.8-11.85 6.8-25.05 0-.4-.9-.15-1.95.5-3.6 1.8-7.35 5.7-13.95 12.45l-4.9 4.45q-3.4 2.75-7.2 3.8-.6.2-1.25-.3-3.25-2.45-7.2-2.75l6.3-12.25q3.7-6.75 2.3-13.5-7.1.6-11.35 6.7l-6.85 9.35q-3.3 4.35-6.15 9-6.15 9.95-9.05 20.1l-.25 2.1v.7l-.35-.25-24-17.65q8.6-13.6 14.55-21.8l4.1-5.35q8.6-10.7 18.45-20.2 4.3-4.15 9.1-7.8l-1.55 4.75q-.5 1.85.6 3.2m65.75-31.95 19.35-5.85q13-4.05 25-10.15 6.45-3.3 12.6-7 7.45-4.55 14.15-10.1 7.9-6.6 15.4-13.7h.05q2.2 1.35 4.35 1.85 9.55 2.25 19.3 3.1-15.8 2.8-30.1 10.65-8.25 4.55-15.85 9.95-7.55 5.3-7.05 13.6 0 .9 2.9.9 4.65 0 9.15-1.25 6.25-1.65 12.25-3.95 12.65-4.9 24.5-11.2l4.45-2.5q4 1.7 7.65 2.2l3.55.2h3.6Q61.55-66.6 58-56.6q7.75 1.65 14.95-3l5.1-3.4 3.25-2.4q.7-.5 1.75-.5 2.35.05 4.5-1l3.35-1.3q3.25-.95 6.4-2.2l3.65-.45q4.5.4 8.6 2.75 2.5 1.45 5.15 2.5M-71.35-9.2l.15-.05q5.8-2.25 9.55-7 1.55-1.95-.05-3.7-1.25-1.4-8.25-.8-4.55 2.7-7.15 8.15-1 2.15-.05 2.8l1.15.7 4.65-.1m32.8 23.65q.8-3.5 3.15-6.3 5.2-6.05 11.75-10.7 4.35-3.15 9.4-4 2.1.35 2.05 2.8-.05 4.2-1.5 7.95m-4-28.85q-7.15 1.3-9.65 8.6-.65 2.1.75 3.1 2.45 1.8 5.5.8 4.35-1.45 6.55-5.25 1.7-2.9-.25-5-1.25-1.35-2.9-2.25m-20.85 39.1-.05.4q-.35 1.9 1.1 2.95 2.45 1.75 5.5 1.45 4-.4 7.35-2.6 3.7-2.4 6.65-5.75 2.8-3.1 4.3-6.7" fill="none" stroke="#000" stroke-linecap="round" stroke-linejoin="round" stroke-opacity=".4" transform="translate(165.15 95.7)"/><path d="m-119.4-16.45-7.05 5.65m252.6-42.35 11.25-3.5M90.85-36.2l10.55-6.35m7.1-3.5 11.95-4.25m-172.6 4.15-8.65 3m25.7-8.65-9.85 3.65m65.4-33.5-9 7.35m-26.9 15-11.15 4.5m28.15-14-8.15 5.5m-137 70.2 8.7-9.95m-22.55 29.65 7.05-9.85M13.25 18.1l8.45-7.7M-7.2 40 4.05 26.6m-26.1 36 7.8-13.45m-16.25 35.3 4.95-12.7M34.4-90.5l-7.75 5.6" fill="none" stroke="#b8bb9d" stroke-linecap="round" stroke-linejoin="round" transform="translate(165.15 95.7)"/></g></defs></svg>