<svg viewBox="0 0 272.28 85.6" xmlns="http://www.w3.org/2000/svg" xmlns:xlink="http://www.w3.org/1999/xlink"><use transform="translate(.03 .03)" width="272.25" height="85.55" xlink:href="#a"/><defs><linearGradient id="d" x1="-819.2" x2="819.2" gradientTransform="matrix(.0099 -.0099 .0382 .0382 73.8 -2.4)" gradientUnits="userSpaceOnUse"><stop stop-color="#713c00" offset="0"/><stop stop-color="#8b602f" offset="1"/></linearGradient><linearGradient id="e" x1="-819.2" x2="819.2" gradientTransform="matrix(.031 -.011 .0156 .0439 -25.95 2.1)" gradientUnits="userSpaceOnUse"><stop stop-color="#713c00" offset="0"/><stop stop-color="#8b602f" offset="1"/></linearGradient><linearGradient id="f" x1="-819.2" x2="819.2" gradientTransform="matrix(-.0269 .0071 -.014 -.0528 4.4 -1.25)" gradientUnits="userSpaceOnUse"><stop stop-color="#966b33" offset="0"/><stop stop-color="#bb8b44" offset="1"/></linearGradient><linearGradient id="g" x1="-819.2" x2="819.2" gradientTransform="matrix(-.013 .0005 -.0001 -.0029 104.5 11.9)" gradientUnits="userSpaceOnUse"><stop stop-color="#966b33" offset="0"/><stop stop-color="#bb8b44" offset="1"/></linearGradient><linearGradient id="h" x1="-819.2" x2="819.2" gradientTransform="matrix(-.0392 .0016 -.0008 -.0193 41.35 24.7)" gradientUnits="userSpaceOnUse"><stop stop-color="#966b33" offset="0"/><stop stop-color="#bb8b44" offset="1"/></linearGradient><linearGradient id="i" x1="-819.2" x2="819.2" gradientTransform="matrix(0 -.0039 .0159 0 56.4 21.35)" gradientUnits="userSpaceOnUse"><stop stop-color="#713c00" offset="0"/><stop stop-color="#3a1e01" offset="1"/></linearGradient><linearGradient id="j" x1="-819.2" x2="819.2" gradientTransform="matrix(-.0098 0 0 -.0042 -88.7 30.4)" gradientUnits="userSpaceOnUse"><stop stop-color="#966b33" offset="0"/><stop stop-color="#bb8b44" offset="1"/></linearGradient><g id="a" transform="translate(136.1 42.75)"><use transform="translate(-136.1 -42.75)" width="272.25" height="85.55" xlink:href="#b"/><use transform="translate(-41.15 -5.7)" width="143.4" height="38.85" xlink:href="#c"/></g><g id="b"><path d="M70.25 7.7q-3.3-1.35-9.35-2.75Q45.25 1.3 31.05-6.75q-5.05-2.85-9.6-5.9 22.9 3.8 38.85-1.65 1.65-.55 3.2-1.2l3.55-1.7q55.7 12 66.5 17.6-6.05 4.5-15.9 8.45l-7.05-.15-1.2-.25 3.65 1.7-4.8 2.45L93.8 9.9l-1.9-.5 1.9.7q6 2.15 8.45 3.7-15.2 8.3-36.5 11.3-3.95-3.6 7.75-13.5l.1-.1.1-.15q1.4-1.7-3.45-3.65M62.9-11.55l.15-.9.45-3.05-.45 3.05-.15.9" fill="url(#d)" fill-rule="evenodd" transform="translate(136.1 42.75)"/><path d="M21.45-12.65q4.55 3.05 9.6 5.9Q45.25 1.3 60.9 4.95q6.05 1.4 9.35 2.75-13.4 1.6-24.05 7.35l-13.4 5.2h-.05l-50.1 19.3q-32.6-1.2-45.6-3.75l18-9-.65.15-28.6 3.9-57.7-3.2q7.45-1.15 17.45-4.35l.5-.15 2.1-.7.15-.1 9.25-3.35 2.7-1.1 5.65-2.3q23.1-9.65 42.6-24l3.55-2.7 2.95-2.3q6.3-5.05 12.15-10.55l7.3-7.25 2.3-2.45 2.3-2.55q8-13.1 16 0l3.3 3.9q9.6 10.7 23.1 19.65m-43.8-21.05-.9.05.9-.05m-2 3.2q-.45-.55-1.2-.7.75.15 1.2.7M-52.1 1.6q-8 .35-7.35 3.2 3.95-1.6 5.35 0 4.4-1.6 2-3.2m-47.65 16.3 1.05.95-1.05-.95m-12.1 4.55.35.25.85.75-.85-.75-.35-.25m9.5-2.75-.1-.7.1.7m-11.35 4.45-.1-.7-.15-.3.15.3.1.7" fill="url(#e)" fill-rule="evenodd" transform="translate(136.1 42.75)"/><path d="m60.3-14.3 1-1q.7-1.4.4-4.2 2.05.05 1.8 4-1.55.65-3.2 1.2" fill="#7e4e18" fill-rule="evenodd" transform="translate(136.1 42.75)"/><path d="m110.6 8.7 7.05.15Q127.5 4.9 133.55.4q4.25 2.2 1.5 3.4l-16.45 6.65-8-1.75" fill="url(#f)" fill-rule="evenodd" transform="translate(136.1 42.75)"/><path d="m93.8 9.9 14.45 2.7 4.8-2.45q4 2.2.1 2.45l-3.75 1.45L93.8 9.9" fill="url(#g)" fill-rule="evenodd" transform="translate(136.1 42.75)"/><path d="M70.25 7.7q4.85 1.95 3.45 3.65l-.2.2v.05q-11.7 9.9-7.75 13.5 21.3-3 36.5-11.3 2.55 1.55 1.4 2.45-32.15 13.35-41.6 11.3-2.85-5.85 6.3-14.25l.65-.6q3.95-6.95-25.65 8l-9.1 3.4-23.6 8.8-26.6 9.9q-54.85-2.65-47-7 13 2.55 45.6 3.75l50.1-19.3h.05l13.4-5.2Q56.85 9.3 70.25 7.7" fill="url(#h)" fill-rule="evenodd" transform="translate(136.1 42.75)"/><path d="m73.7 11.35-.1.15-.1.1v-.05l.2-.2m-187.65 11.8q-.65-1.15-2.9-2.05 1.1-1.75 5 1.35l-2.1.7m11.5-4.15q-.45-1.75-3.7-3.1 1.4-2.25 6.4 2l-2.7 1.1M73.5 11.55h.05-.05" fill="#713c00" fill-rule="evenodd" transform="translate(136.1 42.75)"/><path d="m62.05 27.55-1.6-.55-17.1-6.3q29.6-14.95 25.65-8l-.65.6q-9.15 8.4-6.3 14.25" fill="url(#i)" fill-rule="evenodd" transform="translate(136.1 42.75)"/><path d="m-51.5-8.4-2.25-1.45q3.15-2.25 5-1.85-2-1.65-.7-1.9 1.95-1.55 4.45.2l-2.95 2.3-3.55 2.7" fill="#744107" fill-rule="evenodd" transform="translate(136.1 42.75)"/><path d="M-25.55-31.2q-1.55-.35-4.15.7-.6-2.7 6.45-3.15l-2.3 2.45" fill="#845724" fill-rule="evenodd" transform="translate(136.1 42.75)"/><path d="M-54.1 4.8q-1.4-1.6-5.35 0-.65-2.85 7.35-3.2 2.4 1.6-2 3.2" fill="#744006" fill-rule="evenodd" transform="translate(136.1 42.75)"/><path d="m-45.6 26.95-29.35 6.85q-75.15-1.25-57.95-6l1-.15 57.7 3.2 28.6-3.9" fill="url(#j)" fill-rule="evenodd" transform="translate(136.1 42.75)"/><path d="M157.55 30.1q4.55 3.05 9.6 5.9 14.2 8.05 29.85 11.7 6.05 1.4 9.35 2.75 4.85 1.95 3.45 3.65l-.1.15-.1.1q-11.7 9.9-7.75 13.5m36.5-11.3q-2.45-1.55-8.45-3.7l-1.9-.7 1.9.5m19.25.25-3.65-1.7 1.2.25m22.95-8.3q-10.8-5.6-66.5-17.6l-3.55 1.7m-3.2 1.2q-15.95 5.45-38.85 1.65-13.5-8.95-23.1-19.65l-3.3-3.9q-8-13.1-16 0m154.5 36.6q4.25 2.2 1.5 3.4L254.7 53.2l-8-1.75m-8.35 5.1q2.55 1.55 1.4 2.45-32.15 13.35-41.6 11.3l-1.6-.55-17.1-6.3-9.1 3.4-23.6 8.8-26.6 9.9q-54.85-2.65-47-7l18-9-.65.15-29.35 6.85Q-14 75.3 3.2 70.55M249.15 52.9q4 2.2.1 2.45l-3.75 1.45-15.6-4.15m-20.25 1.65h-.05l.2-.2m-4.7 1.35q3.95-6.95-25.65 8" fill="none" stroke="#502f21" stroke-linecap="round" stroke-linejoin="round" stroke-opacity=".651" stroke-width=".05"/><path d="m199.6 27.25-.45 3.05-.15.9m.6-3.95q.25-3.95-1.8-4 .3 2.8-.4 4.2l-1 1m-81.25-21.9-2.3 2.55.9-.05M3.2 70.55l1-.15q7.45-1.15 17.45-4.35l.5-.15q-.65-1.15-2.9-2.05 1.1-1.75 5 1.35l.15-.1 9.25-3.35q-.45-1.75-3.7-3.1 1.4-2.25 6.4 2l5.65-2.3q23.1-9.65 42.6-24m6.5-5q6.3-5.05 12.15-10.55l7.3-7.25q-1.55-.35-4.15.7-.6-2.7 6.45-3.15m-2.3 2.45q.75.15 1.2.7M84 44.35q-8 .35-7.35 3.2 3.95-1.6 5.35 0M37.4 61.6l-1.05-.95m-2.7 1.1.1.7m-8.3 3.75-.85-.75-.35-.25m-2.1.7.15.3.1.7" fill="none" stroke="#502f21" stroke-linecap="round" stroke-linejoin="round" stroke-opacity=".651" stroke-width=".05"/></g><path d="M74.05-14.2q.55.65-6.25.45-6.75-.5-4-1.35 4.8-1.5 7.9-.75 3.05.45 2.35 1.65m21 4.85Q96-8 83.95-8.4q-11.9-1-7.05-2.8 8.45-3.05 14-1.5 5.4.9 4.15 3.35m-113.4-3.85q-1.45-3.95 4.65-5.35 6.25-2.5 15.8 2.35 5.5 2.85-7.95 4.45-13.6.65-12.5-1.45M4.85 3.6Q33.3-3.95 25.8 6.55h.05q3.5 1.25 1.45 3.85L3.7 19.2q3.6-2.45 1.85-4.85-27.35 8.5-23.55 2.8.95-2.65 14.65-5.35-29 4-23.9-2.15Q-20.3-.4 4.85 3.6M-34.6 5.3q.65 1.35-7.65.95-8.25-1-4.85-2.8 5.8-3.05 9.65-1.5 3.75.9 2.85 3.35" fill="#900" fill-opacity=".396" fill-rule="evenodd" transform="translate(48.1 19.4)" id="k"/><use width="143.4" height="38.85" xlink:href="#k" id="c"/></defs></svg>