<svg viewBox="0 0 213.18 58.214" xmlns="http://www.w3.org/2000/svg" xmlns:xlink="http://www.w3.org/1999/xlink"><use transform="translate(.03 .04)" width="213.15" height="58.15" xlink:href="#a"/><defs><linearGradient id="b" x1="-819.2" x2="819.2" gradientTransform="matrix(.1299 0 0 .0265 275.55 207.2)" gradientUnits="userSpaceOnUse"><stop stop-color="#eed56f" offset="0"/><stop stop-color="#f3dca5" offset=".49"/><stop stop-color="#9d5f26" offset="1"/></linearGradient><linearGradient id="c" x1="-819.2" x2="819.2" gradientTransform="matrix(.0361 0 0 1 342.9 2.5)" gradientUnits="userSpaceOnUse"><stop stop-color="#9f5524" offset="0"/><stop stop-color="#e29f3a" offset=".714"/><stop stop-color="#e6a84d" offset="1"/></linearGradient><linearGradient id="d" x1="-819.2" x2="819.2" gradientTransform="matrix(.1251 -.0887 .0259 .0365 340.6 138.45)" gradientUnits="userSpaceOnUse"><stop stop-color="#ae1515" offset="0"/><stop stop-color="#8c8c8c" offset=".714"/><stop stop-color="#f76c5e" offset="1"/></linearGradient><linearGradient id="e" x1="-819.2" x2="819.2" gradientTransform="matrix(.0125 -.0125 .0392 .0392 266.6 185)" gradientUnits="userSpaceOnUse"><stop stop-color="#ae1515" offset="0"/><stop stop-color="#8c8c8c" offset=".714"/><stop stop-color="#f76c5e" offset="1"/></linearGradient><linearGradient id="f" x1="-819.2" x2="819.2" gradientTransform="matrix(.0469 -.0348 .027 .0364 278.7 182.2)" gradientUnits="userSpaceOnUse"><stop stop-color="#ae1515" offset="0"/><stop stop-color="#8c8c8c" offset=".714"/><stop stop-color="#f76c5e" offset="1"/></linearGradient><linearGradient id="g" x1="-819.2" x2="819.2" gradientTransform="matrix(.0468 -.0269 .0185 .0322 291.7 181.2)" gradientUnits="userSpaceOnUse"><stop stop-color="#ae1515" offset="0"/><stop stop-color="#8c8c8c" offset=".714"/><stop stop-color="#f76c5e" offset="1"/></linearGradient><linearGradient id="h" x1="-819.2" x2="819.2" gradientTransform="matrix(.0095 -.0026 .0023 .0087 353.1 193.55)" gradientUnits="userSpaceOnUse"><stop stop-color="#ae1515" offset="0"/><stop stop-color="#8c8c8c" offset=".714"/><stop stop-color="#f76c5e" offset="1"/></linearGradient><linearGradient id="i" x1="-819.2" x2="819.2" gradientTransform="matrix(.0088 -.0023 .0023 .0087 360.55 191.55)" gradientUnits="userSpaceOnUse"><stop stop-color="#ae1515" offset="0"/><stop stop-color="#8c8c8c" offset=".714"/><stop stop-color="#f76c5e" offset="1"/></linearGradient><linearGradient id="j" x1="-819.2" x2="819.2" gradientTransform="matrix(-.0306 0 0 -.0074 336 200.7)" gradientUnits="userSpaceOnUse"><stop stop-color="#ae1515" offset="0"/><stop stop-color="#8e8787" offset=".235"/><stop stop-color="#8c8c8c" offset=".69"/><stop stop-color="#f76c5e" offset="1"/></linearGradient><linearGradient id="k" x1="-819.2" x2="819.2" gradientTransform="matrix(-.0127 .0034 -.0023 -.0087 345 195.75)" gradientUnits="userSpaceOnUse"><stop stop-color="#ae1515" offset="0"/><stop stop-color="#711006" offset="1"/></linearGradient><linearGradient id="l" x1="-819.2" x2="819.2" gradientTransform="matrix(-.0062 -.0016 .0029 -.0112 324.45 197)" gradientUnits="userSpaceOnUse"><stop stop-color="#350606" offset="0"/><stop stop-color="#711006" offset="1"/></linearGradient><linearGradient id="m" x1="-819.2" x2="819.2" gradientTransform="matrix(.1299 0 0 .0265 275.55 207.2)" gradientUnits="userSpaceOnUse"><stop stop-color="#350606" offset="0"/><stop stop-color="#711006" offset="1"/></linearGradient><linearGradient id="n" x1="-819.2" x2="819.2" gradientTransform="matrix(-.0306 0 0 -.0074 336 200.7)" gradientUnits="userSpaceOnUse"><stop stop-color="#350606" offset="0"/><stop stop-color="#711006" offset="1"/></linearGradient><linearGradient id="o" x1="-819.2" x2="819.2" gradientTransform="matrix(-.0903 -.0238 .0111 -.042 251.55 202.55)" gradientUnits="userSpaceOnUse"><stop stop-color="#350606" offset="0"/><stop stop-color="#711006" offset="1"/></linearGradient><linearGradient id="p" x1="-819.2" x2="819.2" gradientTransform="matrix(.0065 -.0244 .0827 .0219 252.3 189.7)" gradientUnits="userSpaceOnUse"><stop stop-color="#b50f0f" offset="0"/><stop stop-color="#8c8c8c" offset=".714"/><stop stop-color="#ed975f" offset="1"/></linearGradient><g id="a"><path d="M340.7 206.75h-.1l-.35-.05.45.05m-7.5-10.85.5-.15.65 2.3-.45.25-.7-2.4" fill="url(#b)" fill-rule="evenodd" transform="translate(-168.85 -170.9)"/><path d="m332.2 191.4.45.05-.05.9-.4-.95" fill="url(#c)" fill-rule="evenodd" transform="translate(-168.85 -170.9)"/><path d="m169.1 215.2 4.2-1.05.25.6-4.45.45" fill="url(#d)" fill-rule="evenodd" transform="translate(-168.85 -170.9)"/><path d="M173.3 214.15h.05l.2.6-.25-.6" fill="url(#e)" fill-rule="evenodd" transform="translate(-168.85 -170.9)"/><path d="m173.55 214.75-.2-.6.2.6" fill="url(#f)" fill-rule="evenodd" transform="translate(-168.85 -170.9)"/><path d="m325.75 185.25.9.3-.75.05-.15-.35" fill="url(#g)" fill-rule="evenodd" transform="translate(-168.85 -170.9)"/><path d="M332.65 191.45h.05l-.1.9.05-.9" fill="url(#h)" fill-rule="evenodd" transform="translate(-168.85 -170.9)"/><path d="M332.7 191.45h.05l-.15.9.1-.9" fill="url(#i)" fill-rule="evenodd" transform="translate(-168.85 -170.9)"/><path d="m334.35 198.05.4 1.3.65 2.2-.5.2v-.05l-1-3.4.45-.25" fill="url(#j)" fill-rule="evenodd" transform="translate(-168.85 -170.9)"/><path d="m332.75 191.45 17 2.35 17.95.7q6.3 0 9.85.15-3.6 0-8.3.9-3.3.6-5.5 1.3-2 .55-3.2 1.2h-.05q-3.7 1.8-12.2 4.3l-7.8 2.1q-4.3-.45-5.1-2.9l-.65-2.2-.4-1.3-.65-2.3-.6-1.9-.05-.3-.45-1.2.15-.9" fill="url(#k)" fill-rule="evenodd" transform="translate(-168.85 -170.9)"/><path d="m340.25 206.7-25.95-2.55q2.7-2.6 3.75-5.5 1.05-2.75 4.3-7.1 3-4 4.5-3.65 2.45 1.05 4.2 3.5l1.3 2.35.05.1.4.85.4 1.2.7 2.4 1 3.4v.05l.7 2.15q.75 2.3 4.65 2.8" fill="url(#l)" fill-rule="evenodd" transform="translate(-168.85 -170.9)"/><path d="m332.4 193.85.65-.3.05.3.6 1.9-.5.15-.4-1.2-.4-.85" fill="url(#m)" fill-rule="evenodd" transform="translate(-168.85 -170.9)"/><path d="m377.55 194.65 3.95.35.25.05.25 2.35-.3-.05-3.95-.35q-3.65-.05-8.3.85-6.2 1.25-8.75 2.55-3.7 1.8-12.2 4.3l-7.8 2.05-.45-.05q-3.9-.5-4.65-2.8l-.7-2.15.5-.2q.8 2.45 5.1 2.9l7.8-2.1q8.5-2.5 12.2-4.3h.05q1.2-.65 3.2-1.2 2.2-.7 5.5-1.3 4.7-.9 8.3-.9" fill="url(#n)" fill-rule="evenodd" transform="translate(-168.85 -170.9)"/><path d="m325.9 185.6.75-.05q2.45 1.05 4.2 3.5.75 1 1.35 2.35l.4.95.45 1.2-.65.3-.05-.1-1.3-2.35q-1.75-2.45-4.2-3.5-1.5-.35-4.5 3.65-3.25 4.35-4.3 7.1-1.05 2.9-3.75 5.5-3 2.95-8 5.6l-9.4 6.05q-6.2 3.8-13.05 4.8-6.1.85-10.65 5.3l-2.75 2.45q-1.35.9-2.85.35-6.55-2.55-19.75-3.85-17.2-1.75-29.15-4.4-6.75-1.5-24.4-2.5l-20.55-.85-4.5.45-.15-2.35 4.45-.45 4.6.2 16.15.7q17.5.95 24.25 2.45 11.95 2.65 29.1 4.4 13.25 1.3 19.75 3.85 1.5.55 2.9-.35.55-.35 2.7-2.45 4.55-4.45 10.65-5.3 6.9-1 13.1-4.8l9.35-6.05q9.55-5 11.8-11.1 1-2.75 4.3-7.1l1.75-2.1q1.1-1.2 1.95-1.5" fill="url(#o)" fill-rule="evenodd" transform="translate(-168.85 -170.9)"/><path d="m325.75 185.25.15.35q-.85.3-1.95 1.5l-1.75 2.1q-3.3 4.35-4.3 7.1-2.25 6.1-11.8 11.1l-9.35 6.05q-6.2 3.8-13.1 4.8-6.1.85-10.65 5.3-2.15 2.1-2.7 2.45-1.4.9-2.9.35-6.5-2.55-19.75-3.85-17.15-1.75-29.1-4.4-6.75-1.5-24.25-2.45l-16.15-.7-4.6-.2-.2-.6q5.05-1.5 12.35-4.75 4.6-2.05 8.6-3.5 5.7-2.1 10.25-2.95 23.7-4.45 31.65-8.4 4.25-2.1 7.45-6.2l4.9-7.45q2.75-4.5 5.35-6.5 3.55-2.9 8.95-3.4 2.25-.25 9.05 4.35 6.95 4.65 13.2 7.45l6.75 1.05 9.7 1.1q4.35-.4 19.55-.3l4.65.6" fill="url(#p)" fill-rule="evenodd" transform="translate(-168.85 -170.9)"/><path d="M156.75 14.3q-2.45-.75-4.65-.6-15.35 0-19.5.3l-9.75-1.1-6.75-1q-5.9-2.7-13.25-7.5Q96-.2 93.85.1q-5.45.45-9 3.4-2.65 2-5.25 6.5l-5 7.4q-3.2 4.2-7.45 6.2Q59.2 27.65 35.6 32q-4.4.85-10.35 3-3.65 1.25-8.6 3.5Q6 43.2.1 44.3l.15 2.3 4.5-.4 20.5.8q17.9 1.05 24.4 2.5 12.05 2.7 29.2 4.5 10.1.95 16.4 2.7l3 1 .35.1q1.6.65 2.85-.4l2.7-2.4q4.7-4.55 10.7-5.3 6.9-1.05 13-4.8l9.4-6.1 3.5-2 4.5-3.6 26 2.6h.4l7.85-2q8.9-2.7 12.15-4.3 2.3-1.2 8.85-2.6l8.25-.8 3.9.3.35.1-.25-2.4h-.25l-3.9-.4-9.95-.1-17.9-.7-17.6-2.4-1.3-2.4q-1.85-2.45-4.2-3.5z" fill="none" stroke="#a7762e" stroke-linecap="round" stroke-linejoin="round" stroke-width=".25"/></g></defs></svg>