<svg width="80" height="135" viewBox="235.15 3.9 80 134.85" xmlns="http://www.w3.org/2000/svg" xmlns:xlink="http://www.w3.org/1999/xlink"><defs><linearGradient id="a" x1="-819.2" x2="819.2" gradientTransform="matrix(.00732 0 0 .00156 -.2 -4.45)" gradientUnits="userSpaceOnUse"><stop stop-color="#b59e1f" offset="0"/><stop stop-color="#746014" offset=".51"/><stop stop-color="#ead684" offset=".784"/><stop stop-color="#ae9820" offset="1"/></linearGradient><linearGradient id="b" x1="-819.2" x2="819.2" gradientTransform="matrix(.00989 0 0 .00403 1.4 -8.25)" gradientUnits="userSpaceOnUse"><stop stop-color="#999" offset="0"/><stop stop-color="#404040" offset=".553"/><stop stop-color="#2b2b2b" offset=".769"/><stop stop-color="#9a9998" offset="1"/></linearGradient><linearGradient id="c" x1="-819.2" x2="819.2" gradientTransform="matrix(.01578 0 0 .0021 1.4 -12.25)" gradientUnits="userSpaceOnUse"><stop stop-color="#b59e1f" offset="0"/><stop stop-color="#746014" offset=".51"/><stop stop-color="#ead684" offset=".784"/><stop stop-color="#ae9820" offset="1"/></linearGradient><linearGradient id="d" x1="-819.2" x2="819.2" gradientTransform="matrix(.00574 0 0 .04584 .4 33.75)" gradientUnits="userSpaceOnUse"><stop stop-color="#b59e1f" offset="0"/><stop stop-color="#746014" offset=".51"/><stop stop-color="#ead684" offset=".784"/><stop stop-color="#ae9820" offset="1"/></linearGradient><linearGradient id="e" x1="-819.2" x2="819.2" gradientTransform="matrix(.00436 0 0 .00491 .95 75.75)" gradientUnits="userSpaceOnUse"><stop stop-color="#b59e1f" offset="0"/><stop stop-color="#746014" offset=".51"/><stop stop-color="#ead684" offset=".784"/><stop stop-color="#ae9820" offset="1"/></linearGradient><linearGradient id="f" x1="-819.2" x2="819.2" gradientTransform="matrix(-.0068 0 0 -.00455 1.95 56.95)" gradientUnits="userSpaceOnUse"><stop stop-color="#999" offset="0"/><stop stop-color="#4d4d4d" offset=".51"/><stop stop-color="#d5d5d5" offset=".784"/><stop stop-color="#999" offset="1"/></linearGradient><linearGradient id="g" x1="-819.2" x2="819.2" gradientTransform="matrix(-.0057 0 0 -.0044 2.5 44.6)" gradientUnits="userSpaceOnUse"><stop stop-color="#999" offset="0"/><stop stop-color="#4d4d4d" offset=".51"/><stop stop-color="#d5d5d5" offset=".784"/><stop stop-color="#999" offset="1"/></linearGradient><linearGradient id="h" x1="-819.2" x2="819.2" gradientTransform="matrix(-.0144 0 0 -.02649 15.85 51.95)" gradientUnits="userSpaceOnUse"><stop stop-color="#999" offset="0"/><stop stop-color="#6f6f6f" offset=".51"/><stop stop-color="#d5d5d5" offset="1"/></linearGradient><use xlink:href="#i" id="j"/><g id="i"><path d="m-17.2-12.75-.95-1.45h-1.75q-2.3-.85-2.5-2.75l-4.95 3.05-6.9-1.95q-3.1-1.8-3.9-4.4v-1.95l3.25 3.3 1.75-.8 1.35 2.2h4.7l2.5-3.3h-5.55q-3.4-.95-5.8-3.6l-3.55-3.85q-.7-2.85.6-3 .35 3.25 2.7 4.1v-2.2h1.4v2.75q1.85 2.4 5.6 2.8 2.65-.05 4.6-1.45l.55-.3-1.65-.15q-.55-1.05-.3-2.4.2-.9-.9-1.8-1.2.6-1.2 2.6-1.85-1.6-.9-3.7 2.25-2.85 5.45-4.75l-5.75.3-1.65 1.9q-1.25-3.55 1-7.15 2.8-1.9 5.9-2.2 4.05 1.5 5.25 4.95l-1.65 2.25q3.15 1.15 4.15 3.55l2.3.4 2.25 2.75 1.15-1.3.1 2.85h.7l-.6 1.55h1.1l-1.4.75q1.75 1.35 3.75 1.6-1.65-1.25-2.75-5.8l-.45-4.3q1.2-.6 1.95-.6l-1.3-2.4 2.8 1-.4-2.7 2.3 2 2.7-.9.65-2.95q1.15-3.3 4.55-3.6h3l-.4-1.45q-1.2-2.35.4-5.5 3.65-2.8 7.7-1.2l2 4.4 2.1 1.1 1.8-.5-1.8 1.5 1.3.5-3.6 2.5h-2.7l-3-1.2-1.1.75 1 .35 2.5 5-1.1 2.1-1.2-1.5-1.1 2.8H7.6v.85l1.15.7.9 4.15 2.6 2.6v-4.25l-.65-.7-1.75.8v-1.6l.9-1.05-.2-1.15h1.2l1.2-1.5 1 .4.2.4 4.2-3.2 3.2-9.1q.15-.7 1.1-.6v1.4l-1.8 10.3-5.95 2.8.35.7-1.55 1.6.9 2.8.95-3.1 1.3 1.5 2.3-1.3 1-2.6 5-1.45-2-1.65 2.3.6-2.1-2.5 1.4-4.45 5.9-1.8 2.9 2.2L35.3-39l2 1.6 2-.8-2.1 2.6 2 1-2.6 1.2-4.35.9-4.6-2.3.2.65 2.2 1.35 1.8 4.1-2-.5-1.1 3.1-1.8.5-.5 1.1 5.6.5q1.55-1.6 1.7-3.2 2.5-1.3 5.15-.3l.9.8-3.85.8q0 1.7-1.4 2.4l2.3 4.05-.9 2.3-1.8-2.1v-2.45H33.1l-2.65 5.35h-2.4l-3.2-2.2q-.2 1.7-1.9 2.05l-2.6-.45-2.8 1.2-.8 2.5q-16.5-1.6-33.95.5m25.45-12.1-1.4-2.1q-.2 1.15-1.4 2.2l-1.2.4q-.8 1.1 0 2.2l3.4-.5 2.3-1.1-1.7-1.1m6.9-1.15.5 2.7 1.2.9.5-2.8-2.2-.8m13.6 6.45 1.75-2.05h-3.75v1l2 1.05M-6.5-28.7q-.1 2.55 2.8 3.8v-2.7l.15-1.6q-.75-.4-1.25-.9l-1.7-.3v1.7"/><path d="M8.75-4.95q.8 1.45-1 1.8H5.6q-5.7-1.3-10.8 0h-2.65q-2-.6-1.3-1.8Q1-8.1 8.75-4.95" fill="url(#a)"/><path d="m12.2-10.65-1.6 5.7H8.75Q1-8.1-9.15-4.95h-1.15l-2.2-5.7q12.8-1.8 24.7 0" fill="url(#b)"/><path d="M-17.2-12.75q17.45-2.1 33.95-.5L13.3-10.5l-1.1-.15q-11.9-1.8-24.7 0l-1.05.15-3.65-2.25" fill="url(#c)"/><path d="M5.6 6.3V41q-1.2-.1-2.45.55v6.65q1.3-.5 2.45-.45v5.45l-2.45.55v6.9q1.25-.45 2.45-.45v11Q4.5 69.7.25 69.95q-5.25.1-5.45 1.35V.2Q2.05-.3 5.6 6.3" fill="url(#d)"/><path d="M4.2 72.2q.75.2.6 1.05l.85 6.55Q3.8 78.5.4 78.6q-3.6.15-5.25 1.2l.8-6.7q.1-.8 1-.95l.15-.05q3.3-.6 6.05-.1l1.05.2" fill="url(#e)"/><path d="m5.6 71.2-1.4 1-1.05-.2v-1.05q-2.85-1.1-6.05 0v1.15l-.15.05q-2.45 0-2.15-.85.2-1.25 5.45-1.35Q4.5 69.7 5.6 71.2m.05 8.6q-.1 1.1-5.05 1.5-5.2-.25-5.45-1.5Q-3.2 78.75.4 78.6q3.4-.1 5.25 1.2" fill="#7c681c"/><path d="M3.15 70.95V72q-2.75-.5-6.05.1v-1.15q3.2-1.1 6.05 0" fill="#b59e1f"/><path d="M5.6-3.15V6.3Q2.05-.3-5.2.2v-3.35q5.1-1.3 10.8 0" fill="#836f22"/><path d="M5.6 53.2q1.2 0 2.25.55v6.9q-1.1-.45-2.25-.45-1.2 0-2.45.45v-6.9l2.45-.55" fill="url(#f)"/><path d="M5.6 47.75q-1.15-.05-2.45.45v-6.65Q4.4 40.9 5.6 41q1 0 1.95.55v6.65l-1.95-.45" fill="url(#g)"/><path d="M28.65 30.25h1.15V41.8h-1.15V30.25m-5.75 11.7-3.6 4.6h-1.6l3.75-4.6h1.45m1.35 4.75h1.45v9.85h-1.45V46.7m-5 9.85 3.05 4.65h-1.1l-.05-.1L18 56.55h1.25m9.15 4.75h1.4v12.35h-1.4V61.3" fill="#eaeaea"/><path d="M5.6 38.8q8.05-1.7 12.5-8.55h10.55V41.8H23l-.1.15h-1.45l-3.75 4.6h1.6l-.15.15h5.1v9.85H18l3.15 4.55.05.1h1.1l.05.1H28.4v12.35H18.35Q17.15 68.2 5.6 64.3v-4.1q1.15 0 2.25.45v-6.9Q6.8 53.2 5.6 53.2v-5.45l1.95.45v-6.65Q6.6 41 5.6 41v-2.2" fill="url(#h)"/><path d="M5.6 38.8q8.05-1.7 12.5-8.55H29.8V41.8H23l-.1.15-3.6 4.6-.15.15h6.55v9.85h-6.45l3.05 4.65.45.1H29.8v12.35H18.35Q17.15 68.2 5.6 64.3m-19.15-74.8-3.65-2.25m22.8 60.5q-1.15-.05-2.45.45v-6.65Q4.4 40.9 5.6 41v-2.2m0 2.2q1 0 1.95.55v6.65l-1.95-.45v5.45q1.2 0 2.25.55v6.9q-1.1-.45-2.25-.45v4.1m13.7-17.75h-1.6l3.75-4.6h1.45m5.75-.15V30.25m-5.9 31.05h-.4l-.05-.1h-1.1l-.05-.1L18 56.55h1.25m9.15 17.1V61.3M5.6 60.2q-1.2 0-2.45.45v-6.9l2.45-.55m18.65 3.35V46.7" fill="none" stroke="#582c1f" stroke-opacity=".659" stroke-width=".5"/><path d="M5.6-3.15V38.8m0 25.5v6.9l-1.4 1q.75.2.6 1.05l.85 6.55q-.1 1.1-5.05 1.5-5.2-.25-5.45-1.5l.8-6.7q.1-.8 1-.95-2.45 0-2.15-.85V-3.15M3.15 72l1.05.2m-1.05-1.25V72m-6.05.1-.15.05m.15-.05v-1.15" fill="none" stroke="#582c1f" stroke-opacity=".659" stroke-width=".5"/></g></defs><use transform="translate(275.35 57.45)" xlink:href="#j"/></svg>