<svg width="143" height="213" viewBox="234.4 77.1 142.95 213.35" xmlns="http://www.w3.org/2000/svg" xmlns:xlink="http://www.w3.org/1999/xlink"><defs><g id="a"><path d="m361.95 166.25-2.8-1-4.05-1.45-7.6-2.7-6.25-2.35q-2.8-1-5.65-2.45l-.75-.35q-3.3-1.7-5.25-5.25-2.05-3.65.55-5.85l-2.1-.1q-1.95 2.95-1.85 6.15-.4 5.1 2 9.9 1 2 2.35 3.75.8 1.2 2.25 2.25l2.9.4.65-.05h.5l1.05-.05.75-.05 19-.6h.5l.05-.05 3.75-.15M332.6 164l14.25.15 11.3 2.3-11.3-2.3-14.25-.15m-2.85-8.25 5.85.55-5.85-.55" fill="#484848"/><path d="M357.65 166.45h.5-.5" fill="#a88e2d"/><path d="M335.6 156.3q2.85 1.45 5.65 2.45l6.25 2.35 7.6 2.7 4.05 1.45 2.8 1 .35.05 15.05-.55-1.5-2.1q-2.6-3.2-7.9-6.6-7.2-4.6-15.75-7.85-3.2-1.3-12.4-2.9l-9.65-1.45q-2.6 2.2-.55 5.85 1.95 3.55 5.25 5.25l.75.35 3.25.35.75.45 12.1 1.2-12.1-1.2-.75-.45-3.25-.35m37.7 5.8.85 1.05.25.45-24.25-9.15 8.8 1.1-3.4-1.9-3.2-1.8-4.45-2.45q.45-.45 6.65 1.85t12.65 6.35q4.55 2.95 6.1 4.5l2.55 1.55-2.55-1.55m-33.8-14q6.3 1.7 12.85 3.75-6.55-2.05-12.85-3.75m7.35 7.95q-4.85-1.05-8 .6 3.15-1.65 8-.6m5.7-2.8 3 .4-3-.4" fill="#626262"/><path d="m355.55 153.65 3.4 1.9-8.8-1.1 24.25 9.15-.25-.45-.85-1.05q-4.8-2.9-8.4-4.4-4.55-1.75-5.05-3.45l-4.3-.6 4.3.6q.5 1.7 5.05 3.45 3.6 1.5 8.4 4.4-1.55-1.55-6.1-4.5-6.45-4.05-12.65-6.35t-6.65-1.85l4.45 2.45 3.2 1.8m4.3.6-7.5-2.4 7.5 2.4" fill="#b3b3b3"/><path d="m336.75 167.15 1.15-.05-1.05.05h-.1" fill="#fed370"/><path d="m330.1 144.4.45.15.05-.05-.5-.1" fill-opacity=".2"/><path d="m335.6 156.3 3.25.35.75.45 12.1 1.2m6.45 8.15-11.3-2.3-14.25-.15m40.7-1.9 2.55 1.55m-20.3-10 4.3.6q.5 1.7 5.05 3.45 3.6 1.5 8.4 4.4m-20.95-10.25q-6.55-2.05-12.85-3.75m16.05 5.55-3-.4m-13.7 3.4q3.15-1.65 8-.6m-11.25.25-5.85-.55m22.6-3.9 7.5 2.4" fill="none" stroke="#000" stroke-opacity=".302" stroke-width=".5"/><path d="m358.2 166.4-.05.05.05-.05 3.75-.15.35.05 15.05-.55-1.5-2.1q-2.6-3.2-7.9-6.6-7.2-4.6-15.75-7.85-3.2-1.3-12.4-2.9l-9.65-1.45-2.1-.1q-1.95 2.95-1.85 6.15-.4 5.1 2 9.9 1 2 2.35 3.75.8 1.2 2.25 2.25l2.9.4.65-.05h.4l1.15-.05.75-.05 19-.6h.5m-21.3.7h-.1" fill="none" stroke="#484848"/><path d="m264.4 105.45 1.35 2.85 1.95 4.15 3.65 7.7 2.9 6.45 2.4 6.05.3.85q1.2 3.75 0 7.85-1.15 4.3-4.75 3.95l1.5 1.65q3.65-.75 6-3.2 4.05-3.5 5.85-8.9.8-2.25 1.1-4.6.3-1.45 0-3.35l-1.9-2.45-.55-.5-.35-.3-.85-.8-.55-.55-14.7-13.7-.4-.4-2.95-2.75m20.25 23.7-10.5-10.8-6.8-10.15 6.8 10.15 10.5 10.8m-4.05 8.35-3.95-4.85 3.95 4.85" fill="#484848"/><path d="m267.75 108.6-.4-.4.4.4" fill="#a88e2d"/><path d="m276.65 132.65-2.4-6.05-2.9-6.45-3.65-7.7-1.95-4.15-1.35-2.85-.25-.25-11.65-10.85-.5 2.7q-.45 4.3 1.05 10.85 1.95 8.85 5.85 17.65 1.45 3.35 7.15 11.4l6.15 8.35q3.6.35 4.75-3.95 1.2-4.1 0-7.85l-.3-.85-2.15-2.7-.2-.85-8.2-9.95 8.2 9.95.2.85 2.15 2.7m-23.9-32.55.2-1.4.2-.55 11.25 25-5.75-7.45 1.1 4 1.05 3.75 1.5 5.15q-.65.05-3.55-6.35Q255.8 115.9 254 108q-1.2-5.55-1.25-7.9l-.75-3.05.75 3.05m14.85 35.75-6.8-12.4 6.8 12.4m.5-11.45q2.8 4.4 6.4 5.55-3.6-1.15-6.4-5.55m-6.4-2.15-1.95-2.55 1.95 2.55" fill="#626262"/><path d="m259.75 119.7-1.1-4 5.75 7.45-11.25-25-.2.55-.2 1.4q1.45 5.8 3.05 9.55 2.05 4.7 1.2 6.4l2.75 3.65-2.75-3.65q.85-1.7-1.2-6.4-1.6-3.75-3.05-9.55.05 2.35 1.25 7.9 1.8 7.9 4.75 14.25 2.9 6.4 3.55 6.35l-1.5-5.15-1.05-3.75m-2.75-3.65 3.8 7.4-3.8-7.4" fill="#b3b3b3"/><path d="m283.9 123.65-.85-.8H283l.85.8h.05" fill="#fed370"/><path d="m271.85 145.7-.2-.45h-.05l.25.45" fill-opacity=".2"/><path d="m276.65 132.65-2.15-2.7-.2-.85-8.2-9.95m1.25-10.95 6.8 10.15 10.5 10.8m-31.9-29.05-.75-3.05m7.75 22.65-2.75-3.65q.85-1.7-1.2-6.4-1.6-3.75-3.05-9.55m8.05 23.35 6.8 12.4m-7.85-16.15 1.95 2.55m12.8 7.7q-3.6-1.15-6.4-5.55m8.55 8.25 3.95 4.85m-19.8-14.05-3.8-7.4" fill="none" stroke="#000" stroke-opacity=".302" stroke-width=".5"/><path d="m267.35 108.2-2.95-2.75-.25-.25-11.65-10.85-.5 2.7q-.45 4.3 1.05 10.85 1.95 8.85 5.85 17.65 1.45 3.35 7.15 11.4l6.15 8.35 1.5 1.65q3.65-.75 6-3.2 4.05-3.5 5.85-8.9.8-2.25 1.1-4.6.3-1.45 0-3.35l-1.9-2.45-.55-.5-.3-.3-.85-.8-.6-.55-14.7-13.7-.4-.4M283 122.85h.05m.8.8h.05" fill="none" stroke="#484848"/></g><g id="b"><path d="M11.7-18.7v-8.4h5.8v64.2h-2.45v-52.05L11.7-18.7" fill="#3a3a32"/><path d="m11.7-18.7 3.35 3.75V37.1H11.7v-55.8m1.55 55.8v-52.05V37.1" fill="#6c6c5b"/><path d="M13.25-14.95V37.1" fill="none" stroke="#cfd3c2"/></g><g id="c"><path d="M294.05 247.7h.45l-.15 5.3-.2 8.4-1.95.1q-5.45-8.3 1.85-13.8m-.5 36.85-.1 5.3-5.05.2q-8.75-6.45 1.85-13.75l3.55-.15-.25 8.4m-18.1.8-5.45.25.25-8.4 7.3-.35q6.8 3.25-2.1 8.5m5.8-23.4-10.65.5.25-9.1 9.35-.4.1-4.6 4.4-.2q5 7.2-3.45 13.8" fill="#d58f1e"/><path d="m294.35 253 4.3-.2-.8 31.55-4.3.2.25-8.4-3.55.15-.95.05.35-14.75 2.55-.1 1.95-.1.2-8.4" fill="#8f6114"/><path d="m288.4 290.05-8 .4.1-5.3-5.05.2q8.9-5.25 2.1-8.5l11.75-.5.95-.05q-10.6 7.3-1.85 13.75m1.25-28.45-8.4.35q8.45-6.6 3.45-13.8l9.35-.45q-7.3 5.5-1.85 13.8l-2.55.1" fill="#f3c55a"/><path d="M294.05 247.7h.45l-.15 5.3 4.3-.2m-.8 31.55-4.3.2-.1 5.3-5.05.2-8 .4.1-5.3-5.05.2-5.45.25.25-8.4 7.3-.35 11.75-.5.35-14.75-8.4.35-10.65.5.25-9.1 9.35-.4.1-4.6 4.4-.2 9.35-.45" fill="none" stroke="#5f3707" stroke-width=".5"/><path d="m332.4 197.3-1.05 1.2q-6.55 7.2-15.05 10.45-4.6 1.75-9.75 2.35l-2.45.25q-16.35 1.05-28.25-12T264 164.15q0-14.55 4.9-26.5 2.55-6.15 6.5-11.65 11.45-15.75 27.7-15.75 16.2 0 27.6 15.75 11.45 15.8 11.45 38.15 0 21.25-9.75 33.15m-25.85 14 7.05-7.7 1.4-14.5-5.9-12.4-26.15-11.35-2.4-14.8-11.65-12.9 11.65 12.9 2.4 14.8 26.15 11.35 5.9 12.4-1.4 14.5 2.7 5.35-2.7-5.35-7.05 7.7" fill="#c90"/><path d="m332.4 197.3-1.05 1.2q-6.55 7.2-15.05 10.45-4.6 1.75-9.75 2.35l-2.45.25q-16.35 1.05-28.25-12T264 164.15q0-14.55 4.9-26.5 2.55-6.15 6.5-11.65 11.45-15.75 27.7-15.75 16.2 0 27.6 15.75 11.45 15.8 11.45 38.15 0 21.25-9.75 33.15m-63.5-59.65 11.65 12.9 2.4 14.8 26.15 11.35 5.9 12.4-1.4 14.5 2.7 5.35m-2.7-5.35-7.05 7.7" fill="none" stroke="#000" stroke-opacity=".4" stroke-width=".5"/><path d="M341.95 158.05q-9-.7-16.4-4.25-3.35-1.6-7.9-4.6l-8.05-5.15q-10.65-6.6-21.9-9.8-7.15-2-15.6-3.1 1.5-2.65 3.3-5.15 2.55-3.5 5.3-6.2 23.8 10.45 53.85 12.3 6.3 11.5 7.4 25.95M339 185.4q-2.45 6.8-6.6 11.9l-1.05 1.2q-5.6 6.15-12.6 9.45-4.95-1.2-9.7-3.65-3.8-1.9-16.15-10.35-10.45-7.15-18.85-10.4-3.9-1.5-8.05-2.5-2.05-7.65-2-16.9l.2-6q6.95.85 14.9 4.1 4.3 1.7 20.45 9.75 13.5 6.65 23.2 9.75 8.05 2.55 16.25 3.65" fill="#900" fill-opacity=".702"/><path d="m285.9 115.55-1.3 6.4q-2.3 12.3-2.3 18.5 0 8.6 3.6 18.5 3.85 10.75 10.85 19.6 13.7 17.3 33.65 20.95-6.2 6.4-14.1 9.45-4.6 1.75-9.8 2.35l-2.4.2q-16.35 1.05-28.2-11.95-11.9-13.05-11.9-35.4 0-14.55 4.9-26.5 2.55-6.1 6.5-11.65 4.85-6.65 10.5-10.45" fill-opacity=".302"/><path d="M303.05 110.25q16.25 0 27.65 15.75 11.45 15.85 11.45 38.15 0 15.25-5.05 25.7v-3.35q0-11-.35-14.95-1.35-14.7-6.65-26.45-11.25-25.05-37.8-32.9 5.1-1.95 10.75-1.95" fill="#fff" fill-opacity=".29"/><path d="m314.8 131.8 16.9-15.2 10.95-14.25-10.95 14.25-16.9 15.2m27.2-28.95.65-.5.05-.05 4.7-3.85-2.1 4-3.15 5.85-5.9 10.8-4.7 9.15q-2.15 4-3.85 8.45l-.5 1.2q-1.9 5.25.05 11.05 1.85 6.05 7.6 5.55l-2.4 2.35q-5.85-1.05-9.65-4.5-6.55-4.95-9.45-12.55-1.25-3.15-1.75-6.4-.5-2.1 0-4.75l3.05-3.45.9-.75.55-.4 1.35-1.15.9-.75 23.65-19.3m-20.7 40.7 6.4-6.85-6.4 6.85" fill="#484848"/><path d="m342.65 102.35-.65.5.65-.55v.05" fill="#a88e2d"/><path d="M334.85 154.5q-5.75.5-7.6-5.55-1.95-5.8-.05-11.05l.5-1.2q1.7-4.45 3.85-8.45l4.7-9.15 5.9-10.8 3.15-5.85 2.1-4 .45-.35 18.75-15.25q.6 1.65.8 3.8.7 6-1.65 15.25-3.15 12.45-9.45 24.85-2.35 4.7-11.5 16.05-7.65 9.45-9.95 11.7m9.85-36.8-13.2 14-.35 1.2-3.45 3.8 3.45-3.8.35-1.2 13.2-14m21.5-26.75q.05-1.4-.3-2l-.3-.75-18.2 35.15 9.3-10.45-1.75 5.6-3.2 3.6 3.2-3.6-1.75 5.3-2.35 7.25q1 .05 5.7-8.95 4.75-8.95 7.6-20.05 1.95-7.8 2.05-11.1l1.2-4.3-1.2 4.3m-23.95 50.3q5.55-8.4 10.95-17.45-5.4 9.05-10.95 17.45m-.75-16.15q-4.55 6.25-10.35 7.8 5.8-1.55 10.35-7.8" fill="#626262"/><path d="m354.95 118.5 1.75-5.6-9.3 10.45 18.2-35.15.3.75q.35.6.3 2-2.35 8.1-4.9 13.45-3.35 6.6-1.95 9l-4.4 5.1 4.4-5.1q-1.4-2.4 1.95-9 2.55-5.35 4.9-13.45-.1 3.3-2.05 11.1-2.85 11.1-7.6 20.05-4.7 9-5.7 8.95l2.35-7.25 1.75-5.3m4.4-5.1-6.15 10.4 6.15-10.4" fill="#b3b3b3"/><path d="m317.45 122.9-1.35 1.15-.1.05 1.4-1.2h.05" fill="#fed370"/><path d="m335.45 155.1.35-.65h.05l-.4.65" fill-opacity=".2"/><path d="M342.65 102.35 331.7 116.6l-16.9 15.2m27.85-29.45v-.05m-14.95 34.4-6.4 6.85m6.4-6.85 3.45-3.8.35-1.2 13.2-14m21.5-26.75 1.2-4.3m-12.45 31.85 4.4-5.1q-1.4-2.4 1.95-9 2.55-5.35 4.9-13.45m-13 32.85q-5.4 9.05-10.95 17.45m12.7-22.75-3.2 3.6m-20.6 10.8q5.8-1.55 10.35-7.8m11.7-1.3 6.15-10.4" fill="none" stroke="#000" stroke-opacity=".302" stroke-width=".5"/><path d="m342 102.85.65-.5.05-.05h-.05m-.65.55-23.65 19.3m-2.8 2.3-.9.75-3.05 3.45q-.5 2.65 0 4.75.5 3.25 1.75 6.4 2.9 7.6 9.45 12.55 3.8 3.45 9.65 4.5l2.4-2.35m13-56.4 18.75-15.25q.6 1.65.8 3.8.7 6-1.65 15.25-3.15 12.45-9.45 24.85-2.35 4.7-11.5 16.05-7.65 9.45-9.95 11.7m12.55-56.05.45-.35m-.45.35-4.7 3.85m-25.25 20.6h-.05l-1.4 1.2.1-.05m-.55.4q.2-.15.45-.35m1.4-1.2.95-.75" fill="none" stroke="#484848"/><path d="m276.85 187.6-10.2 9.9-9.55 6.45 9.55-6.45 10.2-9.9m-19.4 15.95-.35.4h-.05l-2.55 2.75 2.65-1.25 3.95-1.85q3.55-1.75 7.25-3.4l6.1-2.8q2.75-1.25 5.7-2.25l.8-.3q3.55-1.1 7.45.05 4.05 1.05 3.7 4.45l1.55-1.4q-.7-3.45-3-5.65-3.3-3.85-8.4-5.55-2.1-.75-4.3-1.05-1.4-.3-3.2 0l-2.3 1.8-.5.5-.3.35-.75.8-.5.55-12.95 13.85m27.3-12.15-4.6 3.75 4.6-3.75" fill="#484848"/><path d="m257.1 203.95.35-.4-.4.4h.05" fill="#a88e2d"/><path d="M292.1 199.35q.35-3.4-3.7-4.45-3.9-1.15-7.45-.05l-.8.3q-2.95 1-5.7 2.25l-6.1 2.8q-3.7 1.65-7.25 3.4l-3.95 1.85-2.65 1.25-.25.25-10.25 11 2.55.5q4.05.4 10.25-1 8.35-1.85 16.7-5.55 3.1-1.35 10.75-6.75l7.85-5.8m-24.7 5.75 9.4-7.7.8-.2 2.55-2.05-2.55 2.05-.8.2-9.4 7.7m-17.95 12.65-1.35-.2-.5-.15 23.6-10.7-7.05 5.45 3.75-1.05 2.45-1.85-2.45 1.85 3.6-1 4.85-1.35q.05.55-6 3.35-6 2.75-13.45 4.45l-7.45 1.2-2.9.7 2.9-.7m33.75-14.05q-5.65 3.25-11.7 6.4 6.05-3.15 11.7-6.4m-10.8-.45q4.15-2.65 5.2-6.05-1.05 3.4-5.2 6.05" fill="#626262"/><path d="m267.9 211.1-3.75 1.05 7.05-5.45-23.6 10.7.5.15 1.35.2q5.45-1.4 9-2.9 4.45-1.95 6.05-1.15l3.4-2.6-3.4 2.6q-1.6-.8-6.05 1.15-3.55 1.5-9 2.9l7.45-1.2q7.45-1.7 13.45-4.45 6.05-2.8 6-3.35l-4.85 1.35-3.6 1m-3.4 2.6 7-3.6-7 3.6" fill="#b3b3b3"/><path d="m270.9 189.15.75-.8.05-.05-.8.8v.05" fill="#fed370"/><path d="m292.5 199.7-.45.2.45-.2" fill-opacity=".2"/><path d="m257.1 203.95 9.55-6.45 10.2-9.9m-19.75 16.35h-.05m23.1-8.8 4.6-3.75m-4.6 3.75-2.55 2.05-.8.2-9.4 7.7m-17.95 12.65-2.9.7m21.35-7.35-3.4 2.6q-1.6-.8-6.05 1.15-3.55 1.5-9 2.9m22.05-7.65q6.05-3.15 11.7-6.4m-15.3 7.4 2.45-1.85m7.25-12.05q-1.05 3.4-5.2 6.05m-.9 6.85-7 3.6" fill="none" stroke="#000" stroke-opacity=".302" stroke-width=".5"/><path d="m257.45 203.55-.35.4h-.05m.4-.4 12.95-13.85m1.55-1.7.5-.5 2.3-1.8q1.8-.3 3.2 0 2.2.3 4.3 1.05 5.1 1.7 8.4 5.55 2.3 2.2 3 5.65l-1.55 1.4m-37.85 7.6-10.25 11 2.55.5q4.05.4 10.25-1 8.35-1.85 16.7-5.55 3.1-1.35 10.75-6.75l7.85-5.8m-37.6 7.35-.25.25m.25-.25 2.55-2.75m13.85-14.8v-.05l.8-.8-.05.05m.3-.35-.25.3m-.8.8-.5.6" fill="none" stroke="#484848"/><path d="m252.05 172.15 2.6-1.2 3.85-1.7 7.15-3.15q2.9-1.45 5.85-2.75 2.7-1.2 5.15-2.75l.65-.4q2.85-1.9 3.2-5.6.5-3.75-3.55-5.8l2.3-.25q3.7 2.85 5.25 6.1 3.05 5.05 2.8 10-.1 2.1-.7 3.95-.25 1.25-1.35 2.4l-3.05.55h-1.35l-1.3.05h-.8l-21.8.45h-.55l-.05.05-4.3.05m31.9-4-15.9 1-11.65 2.9 11.65-2.9 15.9-1m-.95-8.5-6.35.95 6.35-.95" fill="#484848"/><path d="M256.4 172.1v-.05h.55l-.55.05" fill="#a88e2d"/><path d="M276.65 160.6q-2.45 1.55-5.15 2.75-2.95 1.3-5.85 2.75l-7.15 3.15-3.85 1.7-2.6 1.2h-.4l-17.25.3q.1-1.05.55-2.2 1.3-3.3 5.6-7.05 5.75-5.05 13.7-8.8 2.9-1.45 12.5-3.6 7.95-1.75 10.2-2 4.05 2.05 3.55 5.8-.35 3.7-3.2 5.6l-.65.4-3.45.55-.6.5-13.1 1.85 13.1-1.85.6-.5 3.45-.55m-39.6 7.95q-.45.65-.4 1.15v.45l22.65-10.6-9.4 1.65 2.8-2.15 2.75-1.95 3.75-2.75q-.7-.4-6.5 2.25t-11 7.15q-3.65 3.15-4.65 4.8l-2.1 1.7 2.1-1.7m30.95-16-12.55 4.55 12.55-4.55m-4.2 8.45q4.95-1.3 9.4.15-4.45-1.45-9.4-.15m-7.9-2.5-3.2.55 3.2-.55" fill="#626262"/><path d="m252.7 159.05-2.8 2.15 9.4-1.65-22.65 10.6v-.45q-.05-.5.4-1.15 3.95-3.2 7.25-4.85 4.2-2.05 3.95-3.8l4.45-.85-4.45.85q.25 1.75-3.95 3.8-3.3 1.65-7.25 4.85 1-1.65 4.65-4.8 5.2-4.5 11-7.15t6.5-2.25l-3.75 2.75-2.75 1.95m-4.45.85 7.2-2.8-7.2 2.8" fill="#b3b3b3"/><path d="m280.9 171.6-1.3.05-.05-.05 1.3-.05.05.05" fill="#fed370"/><path d="m276.7 148.3-.45.15.45-.15" fill-opacity=".2"/><path d="m276.65 160.6-3.45.55-.6.5-13.1 1.85m-3.1 8.6v-.05l11.65-2.9 15.9-1m-46.9.4-2.1 1.7m17.75-11.2-4.45.85q.25 1.75-3.95 3.8-3.3 1.65-7.25 4.85m18.4-11.45 12.55-4.55m-15.3 6.5 3.2-.55m17.3 2.65q-4.45-1.45-9.4-.15m12.85-.4 6.35-.95m-27.55-2.55-7.2 2.8" fill="none" stroke="#000" stroke-opacity=".302" stroke-width=".5"/><path d="M256.35 172.1h.05m0-.05-.05.05-4.3.05h-.4l-17.25.3q.1-1.05.55-2.2 1.3-3.3 5.6-7.05 5.75-5.05 13.7-8.8 2.9-1.45 12.5-3.6 7.95-1.75 10.2-2l2.3-.25q3.7 2.85 5.25 6.1 3.05 5.05 2.8 10-.1 2.1-.7 3.95-.25 1.25-1.35 2.4l-3.05.55h-.85l-.45.05-1.3.05-.85-.05-21.8.45h-.55m23.15-.45.05.05m1.25-.1.05.05" fill="none" stroke="#484848"/><path d="m311.1 119.65 1-13.7 2.6-10-2.6 10-1 13.7m3.55-23.2.05-.5v-.05l.1-3.65-1.05 2.2-1.5 3.3-2.8 6.15-2.4 5.1-2.4 4.35-.4.65q-1.65 2.4-4.85 2.75-3.3.45-5-3.05l-.25 2q2.45 3.15 5.25 4.5 4.35 2.55 8.7 2.25l3.35-.55q1.1-.25 2.05-1.2l.55-2.7v-1.1l.05-1.05.05-.75.5-18.65m-10.9 22.35.9-5.45-.9 5.45" fill="#484848"/><path d="m314.7 95.95-.05.5.05-.5" fill="#a88e2d"/><path d="M294.4 113.7q1.7 3.5 5 3.05 3.2-.35 4.85-2.75l.4-.65 2.4-4.35 2.4-5.1 2.8-6.15 1.5-3.3 1.05-2.2v-.4l.4-14.75q-.95.1-1.9.5-2.9 1.1-6.15 4.8-4.45 5-7.75 11.8-1.3 2.55-3.2 10.75-1.55 6.85-1.8 8.75m12.85-15.05-1.7 11.2-.45.55-.45 2.95.45-2.95.45-.55 1.7-11.2m4.55-19.25.95-.35h.45l-9.35 19.5 1.5-8.05-1.85 2.4-.55 2.75.55-2.75-1.8 2.35-2.35 3.25q-.4-.6 2-5.6 2.35-5.05 6.25-9.5 2.8-3.15 4.2-4l1.5-1.8-1.5 1.8m-14.05 26.65 3.95-10.8-3.95 10.8m7.35-3.65q-1.25 4.2 0 8-1.25-3.8 0-8" fill="#626262"/><path d="m303.5 92.9 1.85-2.4-1.5 8.05 9.35-19.5h-.45l-.95.35q-2.8 3.45-4.25 6.25-1.8 3.6-3.3 3.4l-.75 3.85.75-3.85q1.5.2 3.3-3.4 1.45-2.8 4.25-6.25-1.4.85-4.2 4-3.9 4.45-6.25 9.5-2.4 5-2 5.6l2.35-3.25 1.8-2.35m.75-3.85-2.55 6.2 2.55-6.2" fill="#b3b3b3"/><path d="m314.1 115.85-.05 1.05.05.05.05-1.1h-.05" fill="#fed370"/><path d="m294 113.55.1-.4v-.05l-.1.45" fill-opacity=".2"/><path d="m314.7 95.95-2.6 10-1 13.7m-6.45-6.3-.9 5.45m.9-5.45.45-2.95.45-.55 1.7-11.2m4.55-19.25 1.5-1.8m-9.8 15.3.75-3.85q1.5.2 3.3-3.4 1.45-2.8 4.25-6.25m-10.1 15.85-3.95 10.8m5.75-13.15-.55 2.75m2.15 14.75q-1.25-3.8 0-8m-3.4-7.15 2.55-6.2" fill="none" stroke="#000" stroke-opacity=".302" stroke-width=".5"/><path d="m314.65 96.45.05-.5v-.05.05m-.05.5-.5 18.65m-.1 2.2v.7l-.55 2.7q-.95.95-2.05 1.2l-3.35.55q-4.35.3-8.7-2.25-2.8-1.35-5.25-4.5l.25-2m20.4-21.85.4-14.75q-.95.1-1.9.5-2.9 1.1-6.15 4.8-4.45 5-7.75 11.8-1.3 2.55-3.2 10.75-1.55 6.85-1.8 8.75m20.4-21.45v-.4m0 .4-.1 3.65m-.6 19.95h.05l-.05 1.1-.05-.05m0 .4.05-.35m.05-1.1v-.75" fill="none" stroke="#484848"/><path d="m343.4 194.85-2.4-2-3.5-2.9-6.5-5.35q-2.65-2.35-5.3-4.55-2.45-2-4.55-4.3l-.6-.65q-2.4-2.85-1.75-6.75.5-4.1 5.25-5.05l-2.3-.95q-4.65 1.9-7.1 4.9-4.5 4.4-5.6 9.7-.5 2.15-.35 4.25-.1 1.45.75 2.9l3.05 1.45.8.25.5.2 1.3.35.9.3 22.3 6.65.65.2v.05l4.45 1.3m-31.85-13.3 16.15 5.6 11.25 6.35-11.25-6.35-16.15-5.6m3.35-8.65 6.25 2.85-6.25-2.85" fill="#484848"/><path d="M338.95 193.55v-.05l-.65-.2.65.25" fill="#a88e2d"/><path d="M321.15 175.75q2.1 2.3 4.55 4.3 2.65 2.2 5.3 4.55l6.5 5.35 3.5 2.9 2.4 2 .4.1 17.65 5.3q.25-1.2.05-2.55-.4-3.85-3.8-9-4.6-6.9-11.75-13.1-2.65-2.35-11.95-7.35-7.75-4.05-9.95-4.95-4.75.95-5.25 5.05-.65 3.9 1.75 6.75l.6.65 3.4 1.55.5.65q6.5 2.8 13 5.7-6.5-2.9-13-5.7l-.5-.65-3.4-1.55m38.7 19.6.05 1.3-.1.5-20.45-17.55 9.2 4.4-2.35-3.05-2.3-2.85-3.05-3.95q.75-.25 6.1 4.2 5.25 4.5 9.4 10.65 2.85 4.35 3.5 6.35l1.65 2.35-1.65-2.35m-27.65-25.6q5.85 3.95 11.7 8.35-5.85-4.4-11.7-8.35m2.05 10.05q-4.75-2.85-9.7-2.5 4.95-.35 9.7 2.5m8.8-.35 3.15 1.5-3.15-1.5" fill="#626262"/><path d="m346.2 180.95 2.35 3.05-9.2-4.4 20.45 17.55.1-.5-.05-1.3q-3.25-4.45-6.2-7.15-3.8-3.35-3.05-5.1l-4.4-2.15 4.4 2.15q-.75 1.75 3.05 5.1 2.95 2.7 6.2 7.15-.65-2-3.5-6.35-4.15-6.15-9.4-10.65-5.35-4.45-6.1-4.2l3.05 3.95 2.3 2.85m4.4 2.15-6.7-5 6.7 5" fill="#b3b3b3"/><path d="m313.75 185.95 1.35.4-1.3-.35-.05-.05" fill="#fed370"/><path d="m324.4 162.8.4.35.05-.05-.45-.3" fill-opacity=".2"/><path d="m321.15 175.75 3.4 1.55.5.65q6.5 2.8 13 5.7m.9 9.9v-.05l-11.25-6.35-16.15-5.6m48.3 13.8 1.65 2.35m-15.3-16.75 4.4 2.15q-.75 1.75 3.05 5.1 2.95 2.7 6.2 7.15M343.9 178.1q-5.85-4.4-11.7-8.35m14 11.2-3.15-1.5m-18.5-2.15q4.95-.35 9.7 2.5m-13.1-4.05-6.25-2.85m29 5.2 6.7 5" fill="none" stroke="#000" stroke-opacity=".302" stroke-width=".5"/><path d="M338.95 193.5v.05l4.45 1.3.4.1 17.65 5.3q.25-1.2.05-2.55-.4-3.85-3.8-9-4.6-6.9-11.75-13.1-2.65-2.35-11.95-7.35-7.75-4.05-9.95-4.95l-2.3-.95q-4.65 1.9-7.1 4.9-4.5 4.4-5.6 9.7-.5 2.15-.35 4.25-.1 1.45.75 2.9l3.05 1.45.8.25.45.15 1.35.4.9.3 22.3 6.65.65.2M313.8 186l-.05-.05" fill="none" stroke="#484848"/></g></defs><use xlink:href="#a"/><use transform="rotate(.977 -12566.298 16368.127) scale(1.92668)" xlink:href="#b"/><use xlink:href="#c"/></svg>