<svg viewBox="0 0 294.65 234.3" xmlns="http://www.w3.org/2000/svg" xmlns:xlink="http://www.w3.org/1999/xlink"><g transform="translate(-98 -31.7)"><use transform="scale(2.7098) rotate(54.902 -4.876 123.552)" width="5.8" height="64.7" xlink:href="#a"/><use transform="translate(98 31.7)" width="294.65" height="220.65" xlink:href="#b"/></g><defs><g id="a"><path d="M11.7-18.7v-8.4h5.8v64.2h-2.45v-52.05L11.7-18.7" fill="#3a3a32" fill-rule="evenodd" transform="translate(-11.7 27.1)"/><path d="m11.7-18.7 3.35 3.75V37.1H11.7v-55.8m1.55 55.8v-52.05V37.1" fill="#6c6c5b" fill-rule="evenodd" transform="translate(-11.7 27.1)"/><path d="M13.25-14.95V37.1" fill="none" stroke="#cfd3c2" stroke-linecap="round" stroke-linejoin="round" transform="translate(-11.7 27.1)"/></g><g id="b"><path d="m166.2 218.05.5.4-6.1 4.25-9.75 6.75-2.15-1.85q3.65-12.2 17.5-9.55m-42.15 29.9-6.15 4.2-5.6-4.8q-1.8-13.9 17.55-9.5l3.95 3.35q-4.95 3.4-9.75 6.75m-19.9-17.15-5.95-5.15 9.75-6.75 7.95 6.9q3.45 9.4-11.75 5m32.5-13.6L125 207.15l10.6-7.35 10.25 8.85 5.25-3.65 4.8 4.15q-2.9 10.9-19.25 8.05" fill="#d58f1e" fill-rule="evenodd" transform="translate(-98 -31.7)"/><path d="m160.6 222.7 4.7 4.05L128.75 252l-4.7-4.05q4.8-3.35 9.75-6.75l-3.95-3.35-1-.9 17.05-11.75 2.8 2.4 2.15 1.85 9.75-6.75" fill="#8f6114" fill-rule="evenodd" transform="translate(-98 -31.7)"/><path d="m112.3 247.35-8.75-7.55 6.15-4.2-5.55-4.8q15.2 4.4 11.75-5l12.95 11.15 1 .9q-19.35-4.4-17.55 9.5m33.6-22.15-9.25-8q16.35 2.85 19.25-8.05l10.3 8.9q-13.85-2.65-17.5 9.55l-2.8-2.4" fill="#f3c55a" fill-rule="evenodd" transform="translate(-98 -31.7)"/><path d="m68.2 186.35.5.4-6.1 4.25 4.7 4.05M30.75 220.3l-4.7-4.05-6.15 4.2-5.6-4.8-8.75-7.55 6.15-4.2-5.55-4.8-5.95-5.15 9.75-6.75 7.95 6.9 12.95 11.15L47.9 193.5l-9.25-8L27 175.45l10.6-7.35 10.25 8.85 5.25-3.65 4.8 4.15 10.3 8.9z" fill="none" stroke="#5f3707" stroke-linecap="round" stroke-linejoin="round" stroke-width=".4"/><path d="m345.35 104.65-95 87h-.5.5l-14.4 13.2-8.6-1.45v-.2l7.5-41.05 3.95-21.85-20.45-3.1-11.05-1.65 5.8-8.1 32-8.6 15.5-25.7 8.65-1.85 35.55 22.5 31.85-11.8 8.7 2.65m-58.7 5.85-13.2 7-1 .5 1-.5-11.9.95 11.9-.95 13.2-7m-3.35 7.9-9.85-.9 9.85.9" fill="#c7aa83" fill-rule="evenodd" transform="translate(-98 -31.7)"/><path d="M386.95 117.5v.05l-1 17.65-1.7 29.75-.6.55-18.7 17.8-86.3 28.65-42.7-7.1 14.4-13.2 95-87 41.6 12.85M267.4 190l-17.05 1.65L267.4 190m88.15-42.55 5.7-11.25 4.55-.7-.25.45.25-.45-4.55.7-5.7 11.25m12.35-12.25-2.1.3 7.45-15.25-7.45 15.25 2.1-.3" fill="#c09f74" fill-rule="evenodd" transform="translate(-98 -31.7)"/><path d="m387.15 117.55 4.1 21.75-1 15.6q-3.3-19.05-4.3-19.7l1-17.65h.2m-.65 75.9-48.15 37.8-2.3-20.55.2-.05 28.7-27.35 18.7-17.8 2.85 27.95" fill="#715633" fill-rule="evenodd" transform="translate(-98 -31.7)"/><path d="m390.25 154.9 1.9 11.25-5.65 27.3-2.85-27.95.6-.55 1.7-29.75q1 .65 4.3 19.7m-51.9 76.35-6.15.8 2.25-21.25 1.6-.1 2.3 20.55m-103.5-69.1-10.35-3.75-6.15-21.2 20.45 3.1-3.95 21.85" fill="#85663d" fill-rule="evenodd" transform="translate(-98 -31.7)"/><path d="m364.95 183.3-28.7 27.35-.2.05-1.6.1-42 3.5-13.8-2.35 86.3-28.65m-146.6-46.1 6.15 21.2-15.55-5.65-2.15-16.5.5-.7 11.05 1.65" fill="#ba9767" fill-rule="evenodd" transform="translate(-98 -31.7)"/><path d="m332.2 232.05-39.2 5-63.75-14.75-1.9-18.9 8.6 1.45 42.7 7.1 13.8 2.35 42-3.5-2.25 21.25" fill="#a07b49" fill-rule="evenodd" transform="translate(-98 -31.7)"/><path d="m387 116.8.15.75 4.1 21.75-1 15.6m-51.9 76.35-6.15.8-39.2 5 1.4.3m92.55-119.85v.05m.2 0-.2-.05-41.6-12.85m-138.05 30.9 5.8-8.1 32-8.6 15.5-25.7 8.65-1.85 35.55 22.5 31.85-11.8 8.7 2.65m27.9 15.6-7.45 15.25 2.1-.3m-2.35.75.25-.45-4.55.7-5.7 11.25m28.1 18.05.6-.55 1.7-29.75 1-17.65m-50.9 93.15.2-.05 28.7-27.35 18.7-17.8 2.85 27.95m-107.85 18.5 13.8 2.35 42-3.5 1.6-.1 2.3 20.55m-3.9-20.45-2.25 21.25M224.5 158.4l10.35 3.75 3.95-21.85-20.45-3.1m6.15 21.2-15.55-5.65-2.15-16.5-.1-.8.6.1 11.05 1.65m-11.55-.95.5-.7m28.65 69.3 42.7 7.1m-51.3-8.55 1.9 18.9L293 237.05l-2.5.3m-63.15-34.15-.05.2h.05v-.2l-.15-1.2m.15 1.4 8.6 1.45m-1.1-42.7-7.5 41.05" fill="none" stroke="#000" stroke-linecap="round" stroke-linejoin="round" stroke-opacity=".502" transform="translate(-98 -31.7)"/><path d="m390.25 154.9 1.9 11.25m-6.2-30.95q1 .65 4.3 19.7M392.15 166.15l-5.65 27.3-48.15 37.8m-88-39.6L267.4 190m5.05-72 1-.5-11.9.95m11.9-.95 13.2-7m-13.2 7 9.85.9m-33.45 73.25h.5" fill="none" stroke="#000" stroke-linecap="round" stroke-linejoin="round" stroke-opacity=".502" transform="translate(-98 -31.7)"/><path d="M324.7 122.85q7.9 2.4 14.5 7.05 13.75 9.65 13.8 23.4l-.35 4.15Q351 167.5 341.2 175.2h-.05l-1.95 1.45q-13.75 9.7-33.2 9.7-19.5 0-33.3-9.7l-3.55-2.8 11.1-10.25q1.5 1.4 3.3 2.7 9.25 6.5 22.35 6.5 13.05 0 22.3-6.5l1.3-1q6.65-5.15 7.75-11.95l.2-2.75q0-9.25-9.25-15.7-4.95-3.5-11.05-5.15l7.55-6.9" fill="#bfe8fb" fill-rule="evenodd" transform="translate(-98 -31.7)"/><path d="M269.15 173.85Q259 165.05 259 153.3q0-13.75 13.7-23.4 13.8-9.65 33.3-9.65 10.1 0 18.7 2.6l-7.55 6.9q-5.2-1.4-11.25-1.4-13.1 0-22.35 6.55-9.25 6.45-9.2 15.7-.05 7.35 5.9 13l-11.1 10.25" fill="#e1f4fd" fill-rule="evenodd" transform="translate(-98 -31.7)"/><path d="M315.5 131.3q4.35 1.4 8 4.05 7.85 5.65 7.75 13.5l-.15 2.4q-1.05 5.75-6.7 10.15l-1.15.8q-8 5.5-19.15 5.4-11.2-.1-19.05-5.75l-1.55-1.2 32-29.35" fill="#bfe8fb" fill-rule="evenodd" transform="translate(-98 -31.7)"/><path d="M283.5 160.65q-6.3-5.25-6.25-12.3.05-7.9 8.05-13.35 7.95-5.5 19.15-5.4 6 .05 11.05 1.7l-32 29.35" fill="#e7f7fe" fill-rule="evenodd" transform="translate(-98 -31.7)"/><path d="M246.05 105.5 260.15.75m-75.1 100.6-10.85-66.2M211.7 32.05l.6-20m2.35 105.35 3.55-17.65M161.7 54.4l-.6-4.7m4.7 37.1-.6-10m41.8 28.25 1.8-29.4m-40.05 33.5-1.8-16.45m-2.9-21.8-1.2-6.5m46.5 4.75 1.2-21.8m-2.95 99.5 5.9-24.15" fill="none" stroke="#fff" stroke-linecap="round" stroke-linejoin="round" stroke-width="1.5"/></g></defs></svg>