<svg viewBox="0 0 115.15 136" xmlns="http://www.w3.org/2000/svg" xmlns:xlink="http://www.w3.org/1999/xlink"><g transform="translate(-256.55 -92.6)"><use transform="translate(283.35 163.9)" width="35.5" height="64.7" xlink:href="#a"/><use transform="translate(256.55 92.6)" width="115.15" height="78.3" xlink:href="#b"/></g><defs><g id="a"><path d="M2.8-1.15h.45V8.6H1.5q-5-6 1.3-9.75m.45 26.25v3.75h-4.5Q-8.95 24 .1 19.1h3.15v6m-16 0h-4.75v-6h6.4q6.15 2.5-1.65 6M-8.1 8.6h-9.4V2.1h8.25v-3.25h3.9Q-.85 4.2-8.1 8.6" fill="#d58f1e" fill-rule="evenodd" transform="translate(18 27.1)"/><path d="M7-18.7v-8.4h10.5v64.2H13v-52.05L7-18.7" fill="#3a3a32" fill-rule="evenodd" transform="translate(18 27.1)"/><path d="M7 2.6v-21.3l6 3.75V37.1H7V2.6m2.75 34.5v-52.05V37.1" fill="#6c6c5b" fill-rule="evenodd" transform="translate(18 27.1)"/><path d="M-1.25 28.85h-7V25.1h-4.5q7.8-3.5 1.65-6H.1q-9.05 4.9-1.35 9.75m.5-20.25H-8.1q7.25-4.4 2.75-9.75H2.8Q-3.5 2.6 1.5 8.6H-.75" fill="#f3c55a" fill-rule="evenodd" transform="translate(18 27.1)"/><path d="M3.25 2.6H7v22.5H3.25v-6h-4V8.6h4v-6" fill="#8f6114" fill-rule="evenodd" transform="translate(18 27.1)"/><path d="M2.8-1.15h.45V2.6H7m0 22.5H3.25v3.75h-11.5V25.1h-9.25v-6H-.75V8.6H-17.5V2.1h8.25v-3.25H2.8" fill="none" stroke="#5f3707" stroke-linecap="round" stroke-linejoin="round" transform="translate(18 27.1)"/><path d="M9.75-14.95V37.1" fill="none" stroke="#cfd3c2" stroke-linecap="round" stroke-linejoin="round" transform="translate(18 27.1)"/></g><g id="b"><path d="m332.2 128.15-3.8-1.1 2.4-1.15.8 1.25.6 1m6.55 14.35-8.4-3.8 5.8-2.85q1.4 3.15 2.6 6.65m-37.15 16.9v-3.7h23v3.7h-23m16.25-18.5.6.4.45.55q.65 1 .65 2.45 0 1.5-.65 2.55-.7 1-1.6 1l-.65-.2-.85-.75-.05-.05-.4-.8-.25-1.05v-.7q-.05-1.45.65-2.45l.8-.85.75-.2.55.1m-11.05 6.7-.7-.75-.15-.35q-.45-.85-.5-1.85v-.35q0-1.45.65-2.45.4-.65.95-.9l.65-.15.7.2.85.85.55 1.35.15 1.1q-.05 1.5-.7 2.55-.65 1-1.55 1l-.9-.25" fill="#6d4f1b" fill-rule="evenodd" transform="translate(-256.55 -92.6)"/><path d="m330.8 125.9-2.4 1.15 3.8 1.1q2.15 3.55 3.95 7.7l-5.8 2.85 8.4 3.8q2.1 6.1 3.65 13.2h-11l.3-3.85q0-8.95-5.2-15.25-2.05-2.5-4.4-4.05 3-4.75 7.1-8.9l1.6 2.25m-41.4 18.75q1.3-4.2 2.8-7.85l4.8 1.35-7.6 6.5m6.45-15.75 2-3.4 1.6 1.7-3.6 1.7" fill="#b8921d" fill-rule="evenodd" transform="translate(-256.55 -92.6)"/><path d="M299.95 166.2v-6.8h26.85v4.1l-5.05 3.5-21.8-.8" fill="#a67728" fill-rule="evenodd" transform="translate(-256.55 -92.6)"/><path d="M326.8 163.5v4.85l-2.7 2.15h-24.15v-4.3l21.8.8 5.05-3.5" fill="#886120" fill-rule="evenodd" transform="translate(-256.55 -92.6)"/><path d="M322.1 132.55q2.35 1.55 4.4 4.05 5.2 6.3 5.2 15.25l-.3 3.85h-17.3q.45-3.85 1.35-7.4l.35-1.4.85.75.65.2q.9 0 1.6-1 .65-1.05.65-2.55 0-1.45-.65-2.45l-.45-.55-.6-.4.3-.8q1.65-3.95 3.95-7.55" fill="#e2ba1b" fill-rule="evenodd" transform="translate(-256.55 -92.6)"/><path d="M329.2 123.65q-4.1 4.15-7.1 8.9-3.7-2.3-8.1-2.3-7.35 0-12.55 6.35-5.2 6.3-5.15 15.25 0 2 .25 3.85h-10.2q1.4-5.95 3.05-11.05l7.6-6.5-4.8-1.35q1.7-4.35 3.65-7.9l3.6-1.7-1.6-1.7 2.35-3.3q7.55-9.65 16.2-7.9 6.8 1.4 12.8 9.35m-17.1-4.8q-1.4-1.4-3.9-.8-2.55.55-4.7 2.7t-2.7 4.7.85 3.9q1.35 1.35 3.45.25t4.15-3.4l3.1-4.15q1.1-1.85-.25-3.2" fill="#eccd1c" fill-rule="evenodd" transform="translate(-256.55 -92.6)"/><path d="M312.1 118.85q1.35 1.35.25 3.2l-3.1 4.15q-2.05 2.3-4.15 3.4t-3.45-.25q-1.4-1.35-.85-3.9t2.7-4.7 4.7-2.7q2.5-.6 3.9.8" fill="#f9eeb5" fill-rule="evenodd" transform="translate(-256.55 -92.6)"/><path d="M301.6 155.7h-5.05q-.25-1.85-.25-3.85-.05-8.95 5.15-15.25 5.2-6.35 12.55-6.35 4.4 0 8.1 2.3-2.3 3.6-3.95 7.55l-.3.8-.55-.1-.75.2-.8.85q-.7 1-.65 2.45v.7l.25 1.05.4.8.05.05-.35 1.4q-.9 3.55-1.35 7.4h-12.5m8.2-12.5-.55-1.35-.85-.85-.7-.2-.65.15q-.55.25-.95.9-.65 1-.65 2.45v.35q.05 1 .5 1.85l.15.35.7.75.9.25q.9 0 1.55-1 .65-1.05.7-2.55l-.15-1.1" fill="#efd643" fill-rule="evenodd" transform="translate(-256.55 -92.6)"/><path d="m75.65 35.55-.6-1-.8-1.25-1.6-2.25m2.2 32.05h11Q84.3 56 82.2 49.9m-2.6-6.65q-1.8-4.15-3.95-7.7m3.95 7.7q1.4 3.15 2.6 6.65m-11.95 21v4.85l-2.7 2.15H43.4V66.8h1.65v-3.7H29.8q1.4-5.95 3.05-11.05 1.3-4.2 2.8-7.85 1.7-4.35 3.65-7.9l2-3.4 2.35-3.3q7.55-9.65 16.2-7.9 6.8 1.4 12.8 9.35m-4.6 35.75h2.2v4.1m-2.2-7.8v3.7m6.8-3.7h-6.8" fill="none" stroke="#000" stroke-linecap="round" stroke-linejoin="round" stroke-opacity=".302" stroke-width=".8"/><path d="M65.55 39.95q2.35 1.55 4.4 4.05 5.2 6.3 5.2 15.25l-.3 3.85" fill="none" stroke="#b8921d" stroke-linecap="round" stroke-linejoin="round" stroke-width=".4"/><path d="M40 63.1q-.25-1.85-.25-3.85Q39.7 50.3 44.9 44q5.2-6.35 12.55-6.35 4.4 0 8.1 2.3M53.25 50.6l.15 1.1q-.05 1.5-.7 2.55-.65 1-1.55 1l-.9-.25" fill="none" stroke="#f9eeb5" stroke-linecap="round" stroke-linejoin="round" stroke-width=".4"/><path d="m61.9 48.7.45.55q.65 1 .65 2.45 0 1.5-.65 2.55-.7 1-1.6 1l-.65-.2" fill="none" stroke="#f3e17a" stroke-linecap="round" stroke-linejoin="round" stroke-width=".4"/><path d="M314.6 101.05q-.4.45-.4 1.05t.4.95q.4.4 1 .4t1-.4q.4-.35.4-.95t-.4-1.05q-.4-.35-1-.35t-1 .35m-.25-.65q.85-.85 2.1-.85 1.3 0 2.2.85.85.9.85 2.15 0 1.3-.85 2.15-.9.9-2.2.9l-1.1-.2q-.6-.25-1-.7-.9-.85-.9-2.15 0-1.25.9-2.15m-6.9.65q-.4.45-.4 1.05t.4.95q.4.4 1 .4t1-.4q.4-.35.4-.95t-.4-1.05q-.4-.35-1-.35t-1 .35m3 4.35-1.1.2q-1.25 0-2.15-.9-.85-.85-.85-2.15 0-1.25.85-2.15.9-.85 2.15-.85 1.3 0 2.15.85.9.9.9 2.15 0 1.3-.9 2.15l-1.05.7" fill="#efd643" fill-rule="evenodd" transform="translate(-256.55 -92.6)"/><path d="M314.6 101.05q.4-.35 1-.35t1 .35q.4.45.4 1.05t-.4.95q-.4.4-1 .4t-1-.4q-.4-.35-.4-.95t.4-1.05m-7.15 0q.4-.35 1-.35t1 .35q.4.45.4 1.05t-.4.95q-.4.4-1 .4t-1-.4q-.4-.35-.4-.95t.4-1.05" fill="#fbf6d9" fill-rule="evenodd" transform="translate(-256.55 -92.6)"/><path d="M57.8 7.8q-.9.9-.9 2.15 0 1.3.9 2.15.4.45 1 .7l1.1.2q1.3 0 2.2-.9.85-.85.85-2.15 0-1.25-.85-2.15-.9-.85-2.2-.85-1.25 0-2.1.85m-3.9 5-1.1.2q-1.25 0-2.15-.9-.85-.85-.85-2.15 0-1.25.85-2.15.9-.85 2.15-.85 1.3 0 2.15.85.9.9.9 2.15 0 1.3-.9 2.15l-1.05.7M53.9 12.8v28.3m4.9-28.3v28.3" fill="none" stroke="#000" stroke-linecap="round" stroke-linejoin="round" stroke-opacity=".302" stroke-width=".8"/><path d="m371 107.55-12.05 11.6-4.7.55-1.65 3.5q-14.8 5.8-20.85 14.95l-.6-.25q1.55-13.4 15.25-20.3 3.65-1.85 12.75-5.15 7.6-2.8 11.85-4.9m-42.15 19.25q-2.7-18.25 13.75-33.35l-6.35 13.1.3 4.65-2 .85q-4.05 7.75-5.7 14.75" fill="#efd643" fill-rule="evenodd" transform="translate(-256.55 -92.6)"/><path d="m352.6 123.2 1.65-3.5 4.7-.55 12.05-11.6q.1-.15.3-.2-4.75 13.7-17.85 23.85-12.9 9.9-21.7 6.95 6.05-9.15 20.85-14.95m-10-29.75.45-.45q-1.95 7.35-3.7 19.9-2.35 9.75-10.5 13.9 1.65-7 5.7-14.75l2-.85-.3-4.65 6.35-13.1" fill="#f3e17a" fill-rule="evenodd" transform="translate(-256.55 -92.6)"/><path d="M75.2 45.55q6.05-9.15 20.85-14.95M78 19.45q-4.05 7.75-5.7 14.75" fill="none" stroke="#000" stroke-linecap="round" stroke-linejoin="round" stroke-opacity=".302" stroke-width=".4"/><path d="M114.45 14.95q-4.25 2.1-11.85 4.9-9.1 3.3-12.75 5.15-13.7 6.9-15.25 20.3l.6.25m39.25-30.6q.1-.15.3-.2Q110 28.45 96.9 38.6 84 48.5 75.2 45.55M86.5.4q-1.95 7.35-3.7 19.9-2.35 9.75-10.5 13.9" fill="none" stroke="#000" stroke-linecap="round" stroke-linejoin="round" stroke-opacity=".302" stroke-width=".8"/><path d="M72.3 34.2Q69.6 15.95 86.05.85" fill="none" stroke="#000" stroke-linecap="round" stroke-linejoin="round" stroke-opacity=".302" stroke-width=".8"/><path d="m293.9 112.5-.25-.5-2.45-1.3 1.55-5.3-.15-.25-7.2-11.9q16.65 15.2 14 33.55-1.65-6.8-5.5-14.3m-36.35-4.8q5.4 6.95 11.95 12.1l4.5-.3 3 4.25q13.6 5.7 19.5 14.4-8.85 2.95-21.75-6.95-13.15-10.15-17.8-23.85l.05.05.55.3m18.05 15.5 1.4.55-1.4-.55" fill="#efd643" fill-rule="evenodd" transform="translate(-256.55 -92.6)"/><path d="m285.4 93.25 7.2 11.9.15.25-1.55 5.3 2.45 1.3.25.5q3.85 7.5 5.5 14.3-8.2-4.15-10.55-13.9-1.75-12.55-3.7-19.9l.25.25m-27.85 14.45q4.25 2.05 11.5 4.75 9.1 3.3 12.7 5.15 13.75 6.9 15.3 20.3l-.55.25q-5.9-8.7-19.5-14.4l-3-4.25-4.5.3q-6.55-5.15-11.95-12.1" fill="#f3e17a" fill-rule="evenodd" transform="translate(-256.55 -92.6)"/><path d="M42.85 34.2q-1.65-6.8-5.5-14.3m-16.9 11.25q13.6 5.7 19.5 14.4m-19.5-14.4-1.4-.55" fill="none" stroke="#000" stroke-linecap="round" stroke-linejoin="round" stroke-opacity=".302" stroke-width=".4"/><path d="M28.6.4q1.95 7.35 3.7 19.9 2.35 9.75 10.55 13.9m-2.9 11.35.55-.25Q38.95 31.9 25.2 25q-3.6-1.85-12.7-5.15Q5.25 17.15 1 15.1m38.95 30.45Q31.1 48.5 18.2 38.6 5.05 28.45.4 14.75l.05.05" fill="none" stroke="#000" stroke-linecap="round" stroke-linejoin="round" stroke-opacity=".302" stroke-width=".8"/><path d="M28.85.65 28.6.4m.25.25q16.65 15.2 14 33.55z" fill="none" stroke="#000" stroke-linecap="round" stroke-linejoin="round" stroke-opacity=".302" stroke-width=".8"/><path d="M326.8 168.1q4.65-2.1.1-3.2 5.7-2.6-.05-3.95 5.8-2.6-.05-3.95v-.85q13.6 4 0 12.95v-1" fill="#6d4f1b" fill-rule="evenodd" transform="translate(-256.55 -92.6)"/><path d="M326.8 157q5.85 1.35.05 3.95 5.75 1.35.05 3.95 4.55 1.1-.1 3.2v-3.15l.1-.05-.1-.05V161l.05-.05h-.05V157" fill="#b8921d" fill-rule="evenodd" transform="translate(-256.55 -92.6)"/><path d="M70.25 75.5v1q13.6-8.95 0-12.95v4.8h.05l-.05.05v3.85l.1.05-.1.05z" fill="none" stroke="#000" stroke-linecap="round" stroke-linejoin="round" stroke-opacity=".302" stroke-width=".4"/><path d="M299.65 157v-.85q-13.6 4 0 12.95v-1q-4.65-2.1-.1-3.2-5.7-2.6.05-3.95-5.8-2.6.05-3.95" fill="#6d4f1b" fill-rule="evenodd" transform="translate(-256.55 -92.6)"/><path d="M299.65 168.1v-3.15l-.1-.05.1-.05V161l-.05-.05h.05V157q-5.85 1.35-.05 3.95-5.75 1.35-.05 3.95-4.55 1.1.1 3.2" fill="#b8921d" fill-rule="evenodd" transform="translate(-256.55 -92.6)"/><path d="M43.1 75.5v-3.15l-.1-.05.1-.05V68.4l-.05-.05h.05v-4.8q-13.6 4 0 12.95z" fill="none" stroke="#000" stroke-linecap="round" stroke-linejoin="round" stroke-opacity=".302" stroke-width=".4"/></g></defs></svg>