<svg viewBox="0 0 120.4 170.65" xmlns="http://www.w3.org/2000/svg" xmlns:xlink="http://www.w3.org/1999/xlink"><g transform="translate(-167.65 -76.9)"><use transform="translate(167.65 93.2)" width="120.4" height="37.85" xlink:href="#a"/><use transform="translate(204.95 79.45)" width="35" height="168.1" xlink:href="#b"/><use transform="translate(194.6 111.95)" width="45.8" height="53.05" xlink:href="#c"/><use transform="translate(208.65 76.9)" width="73.65" height="43.65" xlink:href="#d"/></g><defs><g id="a"><path d="M283.05 125.55q-9.25 5-22.25 5-3.25 0-14.6-2.85l-12.5-3.3-21.45-4.25 11.35-2.8.35-.1.4-.05q10.7 0 16.55 1.35 3.35.8 8 2.5 9.35 2.65 12.75 3.2l13.4 1.55 8-.25" fill="#2f3e27" fill-rule="evenodd" transform="translate(-167.65 -93.2)"/><path d="m256.7 119.5 1.6-2.1 1.2.75-1.05 1.75q15.85 3.7 22.2 3.7 4.4 0 6.85-1l.05.05q-2.15 1.6-4.5 2.9l-8 .25-13.4-1.55q-3.4-.55-12.75-3.2-4.65-1.7-8-2.5-5.85-1.35-16.55-1.35l-.4.05q8.15-2.8 11.35-2.8l14.9 3.45 3-3.5 2 .55-1.95 3.7 1.6.4 1.85.45" fill="url(#e)" fill-rule="evenodd" transform="translate(-167.65 -93.2)"/><path d="M258.45 119.9q15.85 3.7 22.2 3.7 4.4 0 6.85-1m.05.05q-2.15 1.6-4.5 2.9-9.25 5-22.25 5-3.25 0-14.6-2.85l-12.5-3.3-21.45-4.25 11.35-2.8.35-.1q8.15-2.8 11.35-2.8l14.9 3.45m3.05.75 1.6.4 1.85.45" fill="none" stroke="#000" stroke-linecap="round" stroke-linejoin="round" stroke-opacity=".302" transform="translate(-167.65 -93.2)"/><path d="m89.05 26.3 1.6-2.1 1.2.75-1.05 1.75m-8.25-2 3-3.5 2 .55-1.95 3.7" fill="none" stroke="#000" stroke-linecap="round" stroke-linejoin="round" stroke-opacity=".302" stroke-width=".6"/><path d="m180.6 107.25 10.6.6 21.6-.45q2.15 0 6.3.95l3.2.85 1.8.8-9.8 1.4-10.55.65q-9.3 0-16.45-1.45-6.35-1.3-7.85-3l-.05-.2 1.2-.15m8.35-.9-6.4-.75-10.8-1q5.2 4.8 12.5 6.9t20.15 2.1q7.45 0 17.9-2.3 8.6-1.9 11.55-3.35.95-1.3.95-2.75 0-1.6-2.55-3.45l-1.35-.9h-.05l-.05-.3-.3-6.9-1.85-.05.3 9.55-5.1 4.65-2.5-1.4 3.65-4.75-4.05.3-3.15-6.3-1.3.2 2.3 6.9-4.3 3.75-.1-.05-2.45-2 1.15-1.7-1.9.5-1.25-2.7-1.25-2.75-1.4-.05.8 5.5-3.25 3.35-2.95-2.25q-5.05 2.25-9.3 2.25l-3.65-.25M231 103.5l-.15-2.65.15 2.65m-59.3 2.25-.25.15.2-.1.05-.05" fill="#72824a" fill-rule="evenodd" transform="translate(-167.65 -93.2)"/><path d="m188.95 106.35 3.65.25q4.25 0 9.3-2.25l2.95 2.25 3.25-3.35-.8-5.5-2.45-.1-.2 2.9-.2 2.3.2-2.3q-3.4.1-8.45 2.15-4.15 1.65-7.25 3.65m21-5.8 1.25 2.7 1.9-.5-1.15 1.7 2.45 2 .1.05 4.3-3.75-2.3-6.9-.95.1-.1 4.3v1.8l-2.35.7 2.35-.7v-1.8l-5.5.3m9.95-.7 1.05 2.1 4.05-.3-3.65 4.75 2.5 1.4 5.1-4.65-.3-9.55-2.3-.1-.2 5.9-.1 2.2H226l-1 .05 1-.05h.05l.1-2.2-.9-.05-5.35.5m-15.45 3-.05.2.05-.2m-.05.2-2.5 1.3 2.5-1.3m-32.65 1.55-3.6-.4 3.8 2.4q4.4 2.7 10.5 4.6 10.5 3.2 21.65 3.2 11.65 0 19.6-1.7 7.9-1.7 10.15-4.75-2.95 1.45-11.55 3.35-10.45 2.3-17.9 2.3-12.85 0-20.15-2.1t-12.5-6.9m-.05 1.15-.05.05-.2.1.25-.15" fill="#556136" fill-rule="evenodd" transform="translate(-167.65 -93.2)"/><path d="m180.6 107.25-1.2.15.05.2q1.5 1.7 7.85 3 7.15 1.45 16.45 1.45l10.55-.65 9.8-1.4-1.8-.8-3.2-.85q-4.15-.95-6.3-.95l-21.6.45-10.6-.6" fill="#8a934a" fill-rule="evenodd" transform="translate(-167.65 -93.2)"/><path d="m171.75 104.6 10.8 1 6.4.75m15.7-5.8q-3.4.1-8.45 2.15-4.15 1.65-7.25 3.65m15.45-3.3.05-.2m29.4 5.1q-2.25 3.05-10.15 4.75-7.95 1.7-19.6 1.7-11.15 0-21.65-3.2-6.1-1.9-10.5-4.6l-3.8-2.4 3.6.4m62.1 3.35q.95-1.3.95-2.75 0-1.6-2.55-3.45-.1-.65-1.45-1.2m-4.65-1.15-.9-.05-5.35.5m12.35 1.9-1.35-.9h-.05m-15.4-.6-5.5.3" fill="none" stroke="#000" stroke-linecap="round" stroke-linejoin="round" stroke-opacity=".302" transform="translate(-167.65 -93.2)"/><path d="m21.3 13.15 3.65.25q4.25 0 9.3-2.25l2.5-1.3m2.9-5.3 1.4.05 1.25 2.75 1.25 2.7 1.9-.5 2.35-.7v-1.8l.1-4.3.95-.1 1.3-.2 3.15 6.3 4.05-.3 1-.05h.05l.1-2.2.2-5.9 2.3.1 1.85.05.3 6.9.05.3.15 2.65M37 7.35l.2-2.9 2.45.1m-2.85 5.1.2-2.3" fill="none" stroke="#000" stroke-linecap="round" stroke-linejoin="round" stroke-opacity=".302" stroke-width=".6"/></g><g id="b"><path d="M3.25 25.1v3.75h-4.5Q-8.95 24 .1 19.1h3.15v6m-16 0h-4.75v-6h6.4q6.15 2.5-1.65 6M-8.1 8.6h-9.4V2.1h8.25v-3.25h3.9Q-.85 4.2-8.1 8.6M2.8-1.15h.45V8.6H1.5q-5-6 1.3-9.75" fill="#d58f1e" fill-rule="evenodd" transform="translate(17.5 130.5)"/><path d="M9.75-86.3v-43.25l3.25-.95q2.7.15 4.5 3.4V37.1H13V-84.15L9.75-86.3" fill="#3a3a32" fill-rule="evenodd" transform="translate(17.5 130.5)"/><path d="m7-88.1 2.75 1.8L13-84.15V37.1H7V-88.1M9.75 37.1V-86.3 37.1" fill="#6c6c5b" fill-rule="evenodd" transform="translate(17.5 130.5)"/><path d="M-1.25 28.85h-7V25.1h-4.5q7.8-3.5 1.65-6H.1q-9.05 4.9-1.35 9.75m.5-20.25H-8.1q7.25-4.4 2.75-9.75H2.8Q-3.5 2.6 1.5 8.6H-.75" fill="#f3c55a" fill-rule="evenodd" transform="translate(17.5 130.5)"/><path d="M7 25.1H3.25v-6h-4V8.6h4v-6H7v22.5" fill="#8f6114" fill-rule="evenodd" transform="translate(17.5 130.5)"/><path d="M7-88.1v-40l1.65-1.1 1.1-.35v43.25L7-88.1" fill="#5e5e51" fill-rule="evenodd" transform="translate(17.5 130.5)"/><path d="M9.75-86.3V37.1" fill="none" stroke="#cfd3c2" stroke-linecap="round" stroke-linejoin="round" transform="translate(17.5 130.5)"/><path d="M9.75-86.3v-43.25" fill="none" stroke="#998" stroke-linecap="round" stroke-linejoin="round" transform="translate(17.5 130.5)"/></g><g id="f"><path d="m25.65 3.6.2 1.05q0 2.55-4.95 5.5-4.45 2.65-6.6 2.65-1.85 0-1.9-2.35-1.65 1.9-3 4.25l3.3-.55L14 15.2l-.4 1.6-.25.95-.25.55-.25.45q-3.1 3.2-5.6.3-1.55 3.65-2.7 8.15L6.2 30l-.7 4.5q.05 2.35-.55 5Q3.8 44.85 0 51.35l1 .45 3.85-4.4 5.9-4.15 6.15-1.45 7.5.35 4.4-1.4 4.1-3.05v-1.1q-2.15-1.9-2.3-5.05-.1-1.55.3-2.9l.05-.15-.75-.65 1.4-3.45q1.75-1.95 5.65-3.25 2.45.05 3.75 2.05l1.75-3.45 1.2-7.55-1.55-4.4q-.9-.85-2.15-1.55L41 7.4q.75 1.35.95 2.5l.1.95-.05.95.2 1.7q0 4.95-2 6.05l-5.25.5-2.45.3q-1.25 0-1.75-.45-3.9 4.25-3.9 9.9 0 1.05.55 2.35 0 1.45-6.25 1.45-4.55 0-5.7-.7-1.2-.7-1.2-3.55 0-.9.3-1.35l-.95.05 2.65-3.75.1-1.05v-.05l.05-.1 1-.4 1.6-2.35-1.25-.15 1.75-2.9h1.65l1.9-2.75-2.4-.45 1-1.1-1 1.1 2.4.45q1.7.55 2.05 1.6l-.05.1-1 1.15.75.1h.5q2-.2 2-1.7l-.35-.5q-.5-.45-1.85-.95L21.65 13l.95-1.15.9.1.95-1.3 1.85-.1 1.35-1.7q-1.25-.65-2.5-1.05l.7-.9-.7.9q1.25.4 2.5 1.05 1.4.7 2.85 1.7-.55 1.25-1.35 1.75l-1.35.3-.6-.1q.3.5 1.45.5h.1l2.45-.3 1.55-1.55q-.3-.45-1.7-1.35-1.75-1.15-5.2-2.9l.95-1.25 2.8 1.4.1-.15-.55-2.15-1.95-1.2-1.55.05m-13.1 27.75q-.6-2.6 1.05-3.3-1.65.7-1.05 3.3m6.65-8.05q3.3-.55 3.3-1.35 0-.65-3.25-.95l-.1 1.3h.8l-.75 1M6.15 24.35q0-1.85 1.65-2.25l2.75-.25 3.05-1.55 1.25-.75.6-.25q1.1 0 1.1 1.15 0 5.5-8.95 5.5-1.45 0-1.45-1.6m7.45 14.4q0-1.75 5.05-1.8h.3l1.25.05 2.85.85.65.3q0 1.2-5 1.2l-2.05-.15-2.35.25q-.7 0-.7-.7" fill="#545f36" fill-rule="evenodd" transform="translate(.45 .45)"/><path d="m27.2 3.55 1.95 1.2.55 2.15-.1.15 3.6 1.75q2.1.15 2.25-1.8l-4.5-3.25-3.75-.2m.45 5.3-1.35 1.7-1.85.1-.95 1.3 3.7.55.6.1 1.35-.3q.8-.5 1.35-1.75-1.45-1-2.85-1.7m-4.6 5.7-1.9 2.75H19.5l-1.75 2.9 1.25.15-1.6 2.35-1 .4-.05.1v.05l-.1 1.05-2.65 3.75.95-.05.7.05.3.05V28l3.65-4.7.75-1h-.8l.1-1.3.1-1.15v-.05h2.7l.15-.15 1.85-2.25 1-1.15.05-.1q-.35-1.05-2.05-1.6m7.9 13.95q.35-1.2 1.05-2.25 1.6-2.5 3.95-2.9 2.75-.4 5.4 2.25 4.85-9.35 3.05-14.65-.6-1.8-2-3.15l1.55 4.4-1.2 7.55L41 23.2q-1.3-2-3.75-2.05-3.9 1.3-5.65 3.25l-1.4 3.45.75.65m1.95 9.2-4.1 3.05-4.4 1.4-7.5-.35-6.15 1.45-5.9 4.15L1 51.8l.85.35Q12.45 41 22.8 43.5q5 .45 10-4.35l.1-.1V37.7M5.5 34.5l.7-4.5-1.65-2.8-.35 1.35q1.2 2.7 1.3 5.95m8.1-17.7.4-1.6-1.3-1.05-3.3.55-.35.7.7.6q3.95-1.05 3.85.8" fill="#3e4727" fill-rule="evenodd" transform="translate(.45 .45)"/><path d="M12.4 10.45q.05 2.35 1.9 2.35 2.15 0 6.6-2.65 4.95-2.95 4.95-5.5l-.2-1.05h-.05q-7.85.65-13.2 6.85m17.2-3.4-2.8-1.4-.95 1.25q3.45 1.75 5.2 2.9 1.4.9 1.7 1.35L31.2 12.7l-2.45.3h-.1q-1.15 0-1.45-.5l-3.7-.55-.9-.1-.95 1.15 3.45 1.35q1.35.5 1.85.95l.35.5q0 1.5-2 1.7h-.5l-.75-.1-1.85 2.25-.15.15h-2.7v.05l-.1 1.15q3.25.3 3.25.95 0 .8-3.3 1.35L15.55 28v.1l-.3-.05-.7-.05q-.3.45-.3 1.35 0 2.85 1.2 3.55 1.15.7 5.7.7 6.25 0 6.25-1.45-.55-1.3-.55-2.35 0-5.65 3.9-9.9.5.45 1.75.45l2.45-.3 5.25-.5q2-1.1 2-6.05l-.2-1.7.05-.95-.1-.95q-.2-1.15-.95-2.5l-.75-1.15-1.2-.55q-.9-.4-2-.7l-.2-.05-1.55-.9Q31.8 1.95 29.5 0q-.5.15-.9.5l-.8 1 3.15 2.25L35.45 7q-.15 1.95-2.25 1.8l-3.6-1.75M6.15 24.35q0 1.6 1.45 1.6 8.95 0 8.95-5.5 0-1.15-1.1-1.15l-.6.25-1.25.75-3.05 1.55-2.75.25q-1.65.4-1.65 2.25m7.45 14.4q0 .7.7.7l2.35-.25 2.05.15q5 0 5-1.2l-.65-.3L20.2 37l-1.25-.05h-.3q-5.05.05-5.05 1.8" fill="#656c36" fill-rule="evenodd" transform="translate(.45 .45)"/><path d="M2.3 52.6q10.6-11.15 20.95-8.65M12.85 10.9q5.35-6.2 13.2-6.85m.05 0L27.65 4m2.4 3.5-2.8-1.4-.95 1.25-.7.9q1.25.4 2.5 1.05 1.4.7 2.85 1.7-.55 1.25-1.35 1.75l-1.35.3-.6-.1-3.7-.55-.9-.1-.95 1.15-1 1.1 2.4.45q1.7.55 2.05 1.6l-.05.1M14.05 28.5q-1.65.7-1.05 3.3M40.7 6.7l-1.2-.55q-.9-.4-2-.7l-.2-.05-1.55-.9q-3.5-2.1-5.8-4.05-.5.15-.9.5l-.8 1L31.4 4.2 27.65 4m15.2 4.25q-.9-.85-2.15-1.55m-21 14.75.1-1.15v-.05h2.7l.15-.15M31.4 4.2l4.5 3.25q-.15 1.95-2.25 1.8l-3.6-1.75m1.35 21.45q.35-1.2 1.05-2.25 1.6-2.5 3.95-2.9 2.75-.4 5.4 2.25 4.85-9.35 3.05-14.65-.6-1.8-2-3.15M31.35 29.1q-.4 1.35-.3 2.9.15 3.15 2.3 5.05v.85M1.45 52.25l-1-.45q3.8-6.5 4.95-11.85M5 27.65q1.15-4.5 2.7-8.15 2.5 2.9 5.6-.3l.25-.45m-3.7-3.6q1.35-2.35 3-4.25m10.4 33.05q5 .45 10-4.35l.1-.1v-1.35M5 27.65 4.65 29q1.2 2.7 1.3 5.95m3.9-19.8-.35.7.7.6q3.95-1.05 3.85.8m5.65 4.2-.1 1.3h.8m-5.4 5.7-.95.05M1.45 52.25l.85.35z" fill="none" stroke="#000" stroke-linecap="round" stroke-linejoin="round" stroke-opacity=".302" stroke-width=".9"/></g><g id="d"><path d="m238.05 84 .05 2.95 2.9 1.25.2-.25q1.4-1.6 4.2-2.3l2.15 1.15q-2.65.6-3.3 2.25l3.65 1.8.35-.05q-1.1-1.1-1.1-1.95 0-1.25 7.55-1.25l2.7.2q-.55-.7-.65-1.35-1.5-.8-1.5-1.95v-.1q0-1.4.85-2.15h-.75q-2.9 0-6.8 1-4 1-6.15 1l-3.15-.55-1.15.75-.05-.45m16.85 10.7.45.5-6.6-2.1-.3 1.3-2.7-.55v-1.6l-3.05-1.9q-.75.35-.3 2.15l-2.3-.2-.2-.15q-1.05-1.45-.45-2.3l.05-.05-3.15-1.15q-.3 1.1-.45 2.25l-3-.5-2.5-4.1-8.5-.3q4.75.85 4.75 2.25 0 .6-4.45.95l-5.05.2q-2.85-.1-3.5.7t-2.45.8l-1.65-.15q.75 1.55 3.05 2.2 4.5-1.8 5.6-1.9l7.7-.8 5.35.25q3.15.35 3.15 1.25l-.1.1q1.75.5 1.75 1.45 0 1-2.7 1.9-2.4.8-4.55.8l-1.75-.2q0 1.65 5.65 5.65 7.4 4.95 16.6 6.45l.45.05q9.15 1.3 17.35 5.15 8.1 3.8 8.85 6.95 2.2-2.65 2.2-3.55-3.05-7.15-3.05-8 0-1.7 3.35-4.15t3.35-4.45l-.3-1.5q-.55-1.6-2.2-3.05l-.55-.35q-1.5-.8-6.8-3.25l-.75-.4-1.15.1 1.6.85 1.2.75 3.85 2.2q3.4 2.1 3.4 3.7-4.9 8.15-8.1 5.85-2.4-1.1-5.75-3.8-3.35-2.8-8-4.85l-3.35-1.45m-15.85 2.55q.95-1.1 5.15-1.1 8.45 0 13.65 1.9 2.45 1.05 4 2.25l1.9 1.4.25.2q3.75 2.1 5.5 3.65 3 2.55 6.45 8.45v1.25l-.85.5q-7.75-5.15-9.7-5.85-2.05-.65-13.3-3.15l-3.15-.75q-8.7-1.85-12.6-3.7-2.15-1.1-4.45-3.45 6.15-.35 7.15-1.6" fill="#72824a" fill-rule="evenodd" transform="translate(-208.65 -76.9)"/><path d="m237.2 82.5-1.15-.3q-2.95 0-2.95 2.7 0 .9.25 1.65h-.65l-2.3-.25 2.5 4.1 3 .5q.15-1.15.45-2.25l3.15 1.15-.05.05q-.6.85.45 2.3l.2.15 2.3.2q-.45-1.8.3-2.15l3.05 1.9v1.6l2.7.55.3-1.3 6.6 2.1-.45-.5q-2.15-2-4.3-2.55L253 91l-1.85-.9-2.9.7-.35.05-3.65-1.8q.65-1.65 3.3-2.25l-2.15-1.15q-2.8.7-4.2 2.3l-.2.25-2.9-1.25-.05-2.95q-.1-.95-.75-1.4l-.1-.1m-24.6 10.45 4 .4q.95-.7 2.45-1.15 4.9-1 8.35-1h.95q4.1.05 5.95.65l.1-.1q0-.9-3.15-1.25l-5.35-.25-7.7.8q-1.1.1-5.6 1.9m44.15-6.5v-.35q0-1.15 1.3-2.2 1.05-.8 2.4-1.15l3-.35 4.85.5q-3.25-2.45-8-4.05-4.3-1.45-7.45-1.45-4 0-13.6 6.3l3.15.55q2.15 0 6.15-1 3.9-1 6.8-1h.75q-.85.75-.85 2.15v.1q0 1.15 1.5 1.95" fill="#556136" fill-rule="evenodd" transform="translate(-208.65 -76.9)"/><path d="m248.25 90.8 2.9-.7 1.85.9-2.4 1.15q2.15.55 4.3 2.55l3.35 1.45q4.65 2.05 8 4.85 3.35 2.7 5.75 3.8 3.2 2.3 8.1-5.85 0-1.6-3.4-3.7l-3.85-2.2-1.2-.75-1.6-.85-3.35.2q-3.25 0-6.6-1.8-1.85-1-2.7-2.05l-2.7-.2q-7.55 0-7.55 1.25 0 .85 1.1 1.95M221.9 86h-.45l-2.6.05q-9.7.3-9.7 3.05 0 .95.4 1.65l1.65.15q1.8 0 2.45-.8t3.5-.7l5.05-.2q4.45-.35 4.45-.95 0-1.4-4.75-2.25m17.15 11.25q-1 1.25-7.15 1.6 2.3 2.35 4.45 3.45 3.9 1.85 12.6 3.7l3.15.75q11.25 2.5 13.3 3.15 1.95.7 9.7 5.85l.85-.5V114q-3.45-5.9-6.45-8.45-1.75-1.55-5.5-3.65l-.25-.2-1.9-1.4q-1.55-1.2-4-2.25-5.2-1.9-13.65-1.9-4.2 0-5.15 1.1" fill="#8a934a" fill-rule="evenodd" transform="translate(-208.65 -76.9)"/><path d="m230.4 86.3 2.3.25h.65q-.25-.75-.25-1.65 0-2.7 2.95-2.7l1.15.3m.1.1q.65.45.75 1.4m-7.65 2.3-8.5-.3h-.45l-2.6.05q-9.7.3-9.7 3.05 0 .95.4 1.65.75 1.55 3.05 2.2l4 .4q.95-.7 2.45-1.15 4.9-1 8.35-1h.95q4.1.05 5.95.65 1.75.5 1.75 1.45 0 1-2.7 1.9-2.4.8-4.55.8l-1.75-.2q0 1.65 5.65 5.65 7.4 4.95 16.6 6.45l.45.05q9.15 1.3 17.35 5.15 8.1 3.8 8.85 6.95 2.2-2.65 2.2-3.55-3.05-7.15-3.05-8 0-1.7 3.35-4.15t3.35-4.45l-.1-.5m-.2-1q-.55-1.6-2.2-3.05l-.55-.35m-6.8-3.25-.75-.4-1.15.1-3.35.2q-3.25 0-6.6-1.8-1.85-1-2.7-2.05-.55-.7-.65-1.35v-.35q0-1.15 1.3-2.2 1.05-.8 2.4-1.15l3-.35 4.85.5q-3.25-2.45-8-4.05-4.3-1.45-7.45-1.45-4 0-13.6 6.3l-1.15.75-.05-.45" fill="none" stroke="#000" stroke-linecap="round" stroke-linejoin="round" stroke-opacity=".302" transform="translate(-208.65 -76.9)"/><path d="m29.4 7.1.05 2.95 2.9 1.25.2-.25q1.4-1.6 4.2-2.3L38.9 9.9q-2.65.6-3.3 2.25l3.65 1.8.35-.05 2.9-.7 1.85.9-2.4 1.15q2.15.55 4.3 2.55l.45.5" fill="none" stroke="#000" stroke-linecap="round" stroke-linejoin="round" stroke-opacity=".302" stroke-width=".6"/></g><linearGradient id="e" x1="-819.2" x2="819.2" gradientTransform="matrix(.0311 .0037 -.0011 .0093 248.95 121.6)" gradientUnits="userSpaceOnUse"><stop stop-color="#2b3924" offset="0"/><stop stop-color="#3f5436" offset="1"/></linearGradient><use width="45.8" height="53.05" xlink:href="#f" id="c"/></defs></svg>