<svg viewBox="0 0 65.714 129.04" xmlns="http://www.w3.org/2000/svg" xmlns:xlink="http://www.w3.org/1999/xlink"><g transform="translate(-242.1 -135.46)"><use transform="translate(246.5 135.45)" width="61.3" height="54.8" xlink:href="#a"/><use transform="translate(246.6 184.25)" width="53.5" height="16.55" xlink:href="#b"/><use transform="translate(242.1 199.8)" width="35.5" height="64.7" xlink:href="#c"/></g><defs><g id="a"><path d="M250.95 138.95v-1.05h-3.55v46.5h1.7v.75H247V136q17.15-.15 32.15.3l10.4.4q17.45 8 4.4 18.85l-7.9 6.1 9.5 1.45q8.05 1.85 10.6 5.45 2.35 3.35 0 8.2l-1.1 1.95q-2.05 3.15-5.85 6.85l-5.65-.05q1.4-.5 3.2-2.6 3.25-3.85 3.7-4.9 2.85-6.65-3.75-9.95l-.85.3-1.1-1.3-.25-.3-1.65-1.15-10.15-3q15.1 9.9 6.2 17.95h5q-.1.3.25.9l.05.05v-.1h.05l-.05.1-.05-.05H294l-.4.1q-.15-.05 0 1.1-2.2-1.7-5.75-1.7-4.45-.05-2.85-.15l-13.1.25-7.5.1-8.1.2.4-17.4h-3.5l2.85-.15 9.3-.25q7.3.25 14.65.1h.25q.95.05 1.4-.8.75-1.4.25-2.1 5.35 1.5 10.95 4.85-5.6-3.35-10.95-4.85l-.3-.25-.2-.15-.1-.05q8-6.05 12-12.95.65-5.15-4.6-6.6 5.25 1.45 4.6 6.6-4 6.9-12 12.95l-.1-.05-.6-.1-.85-.1h-1.35l-17.75-.6-7.1.2h-.15v-.3h2.5v-20h-1.4l-1.1-.15h.1l.7-.05-1.5-.1-1.75-.1m37.15 1.6q-15.55-3.2-33.9-1.4 18.35-1.8 33.9 1.4m-34.6-1.35 1.45.15-1.45-.15m38.5 46.3-2.3-.05-.6.05.15-.05h.45-.45q2-.8 2.3-.25l.45.3m4.5-16.15.4.2q1.6.7 1.3 4l-.4.9-3.25 6.6q3.8-8.45 1.95-11.7m1.2 19.2v1.2h-48.6v-1.4l39.75.1 8.85-.1v.2l-8.85-.1 8.85.1m-19.3-28.5-22.5-.85 22.5.85m1.25-15.6-20.25-.3.15 10.2 22.75.1q8.9-8.6-2.65-10m-19.4 32.1 24.15-.05q5.6-8.6-2-9.85l-22.15-.15v10.05" fill="#555548" fill-rule="evenodd" transform="translate(-246.5 -135.45)"/><path d="M249.1 184.4h-1.7v-46.5h3.55v46.5h-1.85m43.75-18.8 1.65 1.15.25.3 1.1 1.3-.15.1q-.4.3.8.9 1.85 3.25-1.95 11.7l-.4.85q1.6-4.85.65-3.8l-.6 2.45h-5.3q8.9-8.05-6.2-17.95l10.15 3 1.9 1.45-1.9-1.45" fill="#3a3a32" fill-rule="evenodd" transform="translate(-246.5 -135.45)"/><path d="m250.95 138.95 1.75.1 1.5.1-.7.05h-.1l-.3-.05-.4.2v-.3 20.3h.7v.3h.15l7.1-.2 17.75.6h1.35l.85.1.6.1.2.1.2.15.3.25q.5.7-.25 2.1-.45.85-1.4.8H280q-7.35.15-14.65-.1l-9.3.25-2.85.15h-.7v17.6h.2l.15.35.05.15v.1h.95l.85-.1 38.9.6.6-1.15-.6 1.15-38.9-.6 3.2-.5-1.3-.05-.3-.15 8.1-.2 7.5-.1 13.1-.25q-1.6.1 2.85.15 3.55 0 5.75 1.7-.15-1.15 0-1.1l.4-.1h.15l.05.05-.05-.05q-.35-.6-.25-.9h.3l.6-2.45q.95-1.05-.65 3.8l.4-.85 3.25-6.6.4-.9q.3-3.3-1.3-4l-.4-.2q-1.2-.6-.8-.9l.15-.1.85-.3q6.6 3.3 3.75 9.95-.45 1.05-3.7 4.9-1.8 2.1-3.2 2.6H292l-.45-.3q-.3-.55-2.3.25h-5.35l-8.5-.15-6.35-.05h-11.2l-8.75-.1 8.75.1h1.25l-10 .1v-.95h1.85v-45.45m2.15.2.35.05-.35-.05m43.4 30.2-.65-1 .65 1m-2.25 12.05h-.05v.1l.05-.1m-41.55-22.05v4.6-4.6m25.7.7 2.2.1-2.2-.1" fill="#44443c" fill-rule="evenodd" transform="translate(-246.5 -135.45)"/><path d="m253.1 139.15.3.05 1.1.15h1.4v19.85l-2.5.15 2.5-.15v.15h-3.2v-20l.4-.2m1.6 42.9-.85.1h-.95v-.1l-.05-.15-.15-.35h-.2v-17.6h4.2l-.4 17.4.3.15 1.3.05-3.2.5h-1.8 1.8m-2-.5v-17.6 17.6" fill="#727163" fill-rule="evenodd" transform="translate(-246.5 -135.45)"/><path d="M254.2 139.15q18.35-1.8 33.9 1.4m-34.7-1.35h.05l-.35-.05m1.85.2-1.45-.15h-.05m-.75-.15v20.3m.6 0h.1l2.5-.15 22.5.85m-24.9-20.85.7-.05m27.1 21.15q8-6.05 12-12.95.65-5.15-4.6-6.6m6.05 26.3 1.1 1.3.65 1q1.85 3.25-1.95 11.7l-.4.85m.1-.5-.05.1-.6 1.15-38.9-.6h-1.8m-.05-.15-.15-.35m0-17.6v-4.6m40.15 6.25 1.9 1.45m2.95 21.5v1.2h-48.6v-1.4l39.75.1 8.85-.1v.2l-8.85-.1m4-22.85q-5.6-3.35-10.95-4.85m-.3-.25.3.25m-.6-.45.1.05m-.8-.2.6.1.1.05m-.7-.15-2.2-.1m-25.7 3.9v17.6" fill="none" stroke="#cfd3c2" stroke-linecap="round" stroke-linejoin="round" transform="translate(-246.5 -135.45)"/><path d="M247 185.15V136q17.15-.15 32.15.3l10.4.4q17.45 8 4.4 18.85l-7.9 6.1 9.5 1.45q8.05 1.85 10.6 5.45 2.35 3.35 0 8.2l-1.1 1.95q-2.05 3.15-5.85 6.85l-5.65-.05H292l-2.3-.05m-.45 0h-5.35l-8.5-.15-6.35-.05m-19.95-.1H247v.85m42.25-.55h.45m-10.05-41-20.25-.3.15 10.2 22.75.1q8.9-8.6-2.65-10m-19.4 32.1 24.15-.05q5.6-8.6-2-9.85l-22.15-.15v10.05m-11.15 8.6 8.75.1h1.25" fill="none" stroke="#414038" stroke-linecap="round" stroke-linejoin="round" transform="translate(-246.5 -135.45)"/><path d="M269.05 185.25h-9.95l-10 .1" fill="none" stroke="#44443c" stroke-linecap="round" stroke-linejoin="round" transform="translate(-246.5 -135.45)"/></g><g id="b"><path d="m11.4-20.45-2.45 1H-11.2l-2.6-1h25.2" fill="#3e3d35" fill-rule="evenodd" transform="translate(28 20.95)"/><path d="M-11.2-19.45H25V-4.9h-52.5v-14.55h16.3m-13.9 2.8v5.8h48.6v-5.8h-48.6m48.4-.4h-48.2 48.2" fill="#555548" fill-rule="evenodd" transform="translate(28 20.95)"/><path d="M23.5-16.65v5.8h-48.6v-5.8h48.6" fill="#3a3a32" fill-rule="evenodd" transform="translate(28 20.95)"/><path d="m8.95-19.45 2.45-1m-25.2 0 2.6 1H25V-4.9h-52.5v-14.55h16.3" fill="none" stroke="#3a3a32" stroke-linecap="round" stroke-linejoin="round" transform="translate(28 20.95)"/><path d="M-25.1-16.65h48.6m-48.4-.4h48.2" fill="none" stroke="#cfd3c2" stroke-linecap="round" stroke-linejoin="round" transform="translate(28 20.95)"/></g><g id="c"><path d="M2.8-1.15h.45V8.6H1.5q-5-6 1.3-9.75M.1 19.1h3.15v9.75h-4.5Q-8.95 24 .1 19.1m-12.85 6h-4.75v-6h6.4q6.15 2.5-1.65 6M-8.1 8.6h-9.4V2.1h8.25v-3.25h3.9Q-.85 4.2-8.1 8.6" fill="#d58f1e" fill-rule="evenodd" transform="translate(18 27.1)"/><path d="M13 37.1v-52.05L7-18.7v-8.4h10.5v64.2H13" fill="#3a3a32" fill-rule="evenodd" transform="translate(18 27.1)"/><path d="m7-18.7 6 3.75V37.1H7v-55.8m2.75 3.75V37.1v-52.05" fill="#6c6c5b" fill-rule="evenodd" transform="translate(18 27.1)"/><path d="M1.5 8.6h-9.6q7.25-4.4 2.75-9.75H2.8Q-3.5 2.6 1.5 8.6M-.75 19.1H.1q-9.05 4.9-1.35 9.75h-7V25.1h-4.5q7.8-3.5 1.65-6H-.75" fill="#f3c55a" fill-rule="evenodd" transform="translate(18 27.1)"/><path d="M7 2.6v22.5H3.25v-6h-4V8.6h4v-6H7" fill="#8f6114" fill-rule="evenodd" transform="translate(18 27.1)"/><path d="M2.8-1.15h.45V2.6H7m-7.75 6v10.5m4 6H7m-3.75 0v3.75h-11.5V25.1h-9.25v-6H-.75M-8.1 8.6h-9.4V2.1h8.25v-3.25H2.8M-.75 8.6H-8.1" fill="none" stroke="#5f3707" stroke-linecap="round" stroke-linejoin="round" transform="translate(18 27.1)"/><path d="M9.75 37.1v-52.05" fill="none" stroke="#cfd3c2" stroke-linecap="round" stroke-linejoin="round" transform="translate(18 27.1)"/></g></defs></svg>