<svg viewBox="0 0 92.65 69.689" xmlns="http://www.w3.org/2000/svg" xmlns:xlink="http://www.w3.org/1999/xlink"><use transform="translate(.03 .01)" width="92.6" height="69.65" xlink:href="#a"/><defs><g id="a"><path d="m230.55 180.15.35-1.85 2.25-2.2q16.05-3.3 26.1-8.3l25.85-2.55q10-.5 18.1 1.8l9.75 3.5q5.65 3.75 7.8 7.3-5.65 6-14.8 8.5l-19.1 3.8h-26.6l.75 2.1-1.45-.15-11.3-1.2-.95-.75q-3.85-2.5-6.35-2.3l-1.15 1.75q-3.2-1.6-6.4-3.25l-2.85-6.2m85.7 23.25q2.25 1.9 3.5 4.05L311.7 214l-18.3 2.25 17.9-6.8 4.95-6.05m-52.6 22.65-2.1 7.25-1 .75 2.2-16.05v-6.3l-4.5 5.8v-8.8l-4.8 2.4-.2-1.15 7.3-7 1.05.95 1.15.95 2.15 1.95 1.9 1.65v6.75l-2.55 8.8-.6 2.05m-1.55-36.8-1.85.9 1.85-.9q2.05-1.25 2.7-2.9 26.2 1.95 44.4-7.05l2.75-1.45q.25-2.15-5-4.3-15.05-3.65-36.15-2-1.55-2.4-7.5-1.25-4.65.7-4.55 2.25l-14.8 5-6.05 4.05q-.75 1.7 1.8 3 1.6.8 4.5 1.5h16.55l1.35 3.15" fill="#ff0" fill-rule="evenodd" transform="translate(-228.65 -165.15)"/><path d="m317.1 188.15-.7 12.25q-6.05 1.3-7.2-3.25.85-7.6 7.9-9m-72.55 32.15q-4.7-2.9-9.4-2.3l1.65-1.3 1.65-1.25q3.1-1.2 4.25 1.55l1.85 3.3m-4.75-30.7 1.15-1.75q2.5-.2 6.35 2.3l.95.75q1.8 1.7.95 3.85-1.5 3.6-8 2.65-3.95-3.05-2.5-6.05l1.1-1.75m18.95-17.05q-.1-1.55 4.55-2.25 5.95-1.15 7.5 1.25.2 5.55-5.75 5-4.65-.5-6.3-4m33.2 24.05q0-1.55 1.35-2.65t3.25-1.1 3.25 1.1 1.35 2.65-1.35 2.7q-1.35 1.1-3.25 1.1t-3.25-1.1q-1.35-1.15-1.35-2.7m-8.35 12.1q3.1-.05 5.35 1.8 2.2 1.75 2.2 4.35 0 2.55-2.2 4.35-2.25 1.8-5.35 1.8t-5.3-1.8q-2.25-1.8-2.2-4.35-.05-2.6 2.2-4.35 2.2-1.85 5.3-1.8m-44.9-1.25q-.2 2.4-2.25 3-4.2-2.15-2.75-4.25 2.95-1.75 5 1.25" fill="#8db044" fill-rule="evenodd" transform="translate(-228.65 -165.15)"/><path d="M320.75 177.85q0 4.7-3.5 7.75l-.15 2.55q-7.05 1.4-7.9 9 1.15 4.55 7.2 3.25l-.15 3-4.95 6.05-17.9 6.8 18.3-2.25 8.05-6.55q1.15 1.9 1.5 4-.2 1.8-1.1 3.15l-.4-2.9-1 2.25-6.55 3.25-23.8 5.55-24.15 1.25 2.55-8.8v-6.75l-1.9-1.65 1.4-1.1q2.2-5.15-2-10.3l-2.55-1-.75-2.15-.75-2.1h26.6l19.1-3.8q9.15-2.5 14.8-8.5m-92.1 30.1v-2.8l2.75-2 1.25-14.3-3-4.25.9-4.45 2.85 6.2q3.2 1.65 6.4 3.25l-1.1 1.75q-1.45 3 2.5 6.05 6.5.95 8-2.65.85-2.15-.95-3.85l11.3 1.2.7 2.8-1.5.5-3.75 7.75 1.9 3.3-3.65 3.5.2 1.15 2.75 11.8-8-2.15-5.5-3.75q-1.15-2.75-4.25-1.55l-1.65 1.25q-5.05-2.45-8.15-8.75m11.05-23.35q-2.55-1.3-1.8-3l6.05-4.05 14.8-5q1.65 3.5 6.3 4 5.95.55 5.75-5 21.1-1.65 36.15 2 5.25 2.15 5 4.3l-2.75 1.45q-16.6-3.8-43.9-1.25-13.65 1.2-25.6 6.55m52.25 12q0 1.55 1.35 2.7 1.35 1.1 3.25 1.1t3.25-1.1q1.35-1.15 1.35-2.7t-1.35-2.65-3.25-1.1-3.25 1.1-1.35 2.65m-36.1 13.3 2.4-1.2v8.8l4.5-5.8v6.3l-2.2 16.05-3.55-15.6-1.15-8.55m27.75-1.2q-3.1-.05-5.3 1.8-2.25 1.75-2.2 4.35-.05 2.55 2.2 4.35 2.2 1.8 5.3 1.8t5.35-1.8q2.2-1.8 2.2-4.35 0-2.6-2.2-4.35-2.25-1.85-5.35-1.8m-44.9-1.25q-2.05-3-5-1.25-1.45 2.1 2.75 4.25 2.05-.6 2.25-3" fill="#decd01" fill-rule="evenodd" transform="translate(-228.65 -165.15)"/><path d="M320.15 214.6q-.95 1.45-2.65 2.4-12.25 5.1-28.1 7.5l-25.75 1.55.6-2.05 24.15-1.25 23.8-5.55 6.55-3.25 1-2.25.4 2.9m-59.6 19.45-1 .75-2.8-10-11.3-2.8-.9-1.7-1.85-3.3 5.5 3.75 8 2.15-2.75-11.8 2.4-1.2 1.15 8.55 3.55 15.6M235.15 218q-4.55-3.25-6.5-7.3v-2.75q3.1 6.3 8.15 8.75l-1.65 1.3m24.4-25.9 1.45.15.75 2.15-1.5.5-.7-2.8m2.55-2.85-1.35-3.15H244.2q-2.9-.7-4.5-1.5 11.95-5.35 25.6-6.55 27.3-2.55 43.9 1.25-18.2 9-44.4 7.05-.65 1.65-2.7 2.9m-5.35 35.55-.55-1.9.55 1.9" fill="#beb001" fill-rule="evenodd" transform="translate(-228.65 -165.15)"/><path d="m258.75 195.4 4 2q2.9 4.8 0 7.45l-1.15-.95q1.2-1.55.15-4.25l-1.2-1.25q-2.15 2.25 0 4.55l-3.65 3.5-1.9-3.3 3.75-7.75" fill="#933000" fill-rule="evenodd" transform="translate(-228.65 -165.15)"/><path d="m258.75 195.4 3-1 2.55 1q4.2 5.15 2 10.3l-1.4 1.1-2.15-1.95q2.9-2.65 0-7.45l-4-2" fill="#c30" fill-rule="evenodd" transform="translate(-228.65 -165.15)"/><path d="M260.55 202.95q-2.15-2.3 0-4.55l1.2 1.25q1.05 2.7-.15 4.25l-1.05-.95" fill="#642100" fill-rule="evenodd" transform="translate(-228.65 -165.15)"/><path d="m1.9 15 .35-1.85 2.25-2.2q16.05-3.3 26.1-8.3L56.45.1q10-.5 18.1 1.8l9.75 3.5q5.65 3.75 7.8 7.3 0 4.7-3.5 7.75L88.45 23l-.7 12.25-.15 3q2.25 1.9 3.5 4.05 1.15 1.9 1.5 4-.2 1.8-1.1 3.15-.95 1.45-2.65 2.4-12.25 5.1-28.1 7.5L35 60.9l-2.1 7.25-2 1.5-2.8-10-11.3-2.8-.9-1.7q-4.7-2.9-9.4-2.3-4.55-3.25-6.5-7.3V40l2.75-2L4 23.7l-3-4.25.9-4.45m30.45 12.1L31.6 25m1.85-.9-1.35-3.15H15.55q-2.9-.7-4.5-1.5-2.55-1.3-1.8-3l6.05-4.05m63-4q5.25 2.15 5 4.3l-2.75 1.45q-18.2 9-44.4 7.05m-4.55 8.55-1.5.5m4 9.45 2.15 1.95 1.4-1.1q2.2-5.15-2-10.3l-2.55-1-1.5.5m.3 8.05q-2.15-2.3 0-4.55l1.2 1.25m-.15 4.25 1.15.95m-1.75-12.6.75 2.15m-1.2 8.55 1.05.95m-4.7 2.55 3.65-3.5m-7.1 8.15 2.75 11.8.55 1.9m8.15-18 1.9 1.65v6.75l-2.55 8.8-.6 2.05M24.8 45.95l-.2-1.15 3.65-3.5-1.9-3.3 3.75-7.75" fill="none" stroke="#000" stroke-linecap="round" stroke-linejoin="round" stroke-opacity=".4" stroke-width=".05"/><path d="m31.6 25 1.85-.9m2.7-2.9q-.65 1.65-2.7 2.9" fill="none" stroke="#000" stroke-linecap="round" stroke-linejoin="round" stroke-opacity=".4" stroke-width=".05"/></g></defs></svg>