<svg viewBox="0 0 428.05 301.05" xmlns="http://www.w3.org/2000/svg" xmlns:xlink="http://www.w3.org/1999/xlink"><use transform="translate(.02 .026)" width="428" height="301" xlink:href="#a"/><defs><linearGradient id="b" x1="-819.2" x2="819.2" gradientTransform="matrix(.0736 0 0 .0811 387.9 198.9)" gradientUnits="userSpaceOnUse"><stop stop-color="#7d5500" offset="0"/><stop stop-color="#745c03" offset="1"/></linearGradient><linearGradient id="c" x1="-819.2" x2="819.2" gradientTransform="matrix(.0197 0 0 .0693 278.35 208.6)" gradientUnits="userSpaceOnUse"><stop stop-color="#7d5500" offset="0"/><stop stop-color="#745c03" offset="1"/></linearGradient><linearGradient id="d" x1="-819.2" x2="819.2" gradientTransform="matrix(.0344 0 0 .066 195.9 187.75)" gradientUnits="userSpaceOnUse"><stop stop-color="#7d5500" offset="0"/><stop stop-color="#745c03" offset="1"/></linearGradient><linearGradient id="e" x1="-819.2" x2="819.2" gradientTransform="matrix(.1705 .0149 -.0086 .0979 312.05 186.7)" gradientUnits="userSpaceOnUse"><stop stop-color="#6c4900" offset="0"/><stop stop-color="#683600" offset="1"/></linearGradient><linearGradient id="f" x1="-819.2" x2="819.2" gradientTransform="matrix(.0926 .0033 -.0014 .0394 324.1 111.55)" gradientUnits="userSpaceOnUse"><stop stop-color="#533800" offset="0"/><stop stop-color="#683600" offset="1"/></linearGradient><linearGradient id="g" x1="-819.2" x2="819.2" gradientTransform="matrix(.1269 0 0 .0318 319.55 113.8)" gradientUnits="userSpaceOnUse"><stop stop-color="#6f4a00" offset="0"/><stop stop-color="#6b2d03" offset="1"/></linearGradient><linearGradient id="h" x1="-819.2" x2="819.2" gradientTransform="matrix(.1747 -.0076 .002 .0465 314.7 117.85)" gradientUnits="userSpaceOnUse"><stop stop-color="#9b7928" offset="0"/><stop stop-color="#9c9127" offset="1"/></linearGradient><linearGradient id="i" x1="-819.2" x2="819.2" gradientTransform="matrix(.0166 .0287 -.0183 .0106 475.15 155.6)" gradientUnits="userSpaceOnUse"><stop stop-color="#5b3e00" offset="0"/><stop stop-color="#534a02" offset="1"/></linearGradient><linearGradient id="j" x1="-819.2" x2="819.2" gradientTransform="matrix(0 .0864 -.0232 0 300.65 252.65)" gradientUnits="userSpaceOnUse"><stop stop-color="#5b3e00" offset="0"/><stop stop-color="#534a02" offset="1"/></linearGradient><linearGradient id="k" x1="-819.2" x2="819.2" gradientTransform="matrix(-.0125 .0808 -.0254 -.0039 224.3 235.9)" gradientUnits="userSpaceOnUse"><stop stop-color="#5b3e00" offset="0"/><stop stop-color="#534a02" offset="1"/></linearGradient><linearGradient id="l" x1="-819.2" x2="819.2" gradientTransform="matrix(-.0246 .0246 -.0118 -.0118 144.7 144.1)" gradientUnits="userSpaceOnUse"><stop stop-color="#5b3e00" offset="0"/><stop stop-color="#534a02" offset="1"/></linearGradient><linearGradient id="m" x1="-819.2" x2="819.2" gradientTransform="matrix(0 .0338 -.0199 0 258.4 127.7)" gradientUnits="userSpaceOnUse"><stop stop-color="#5b3e00" offset="0"/><stop stop-color="#534a02" offset="1"/></linearGradient><linearGradient id="n" x1="-819.2" x2="819.2" gradientTransform="matrix(0 .0265 -.0172 0 377.3 114.45)" gradientUnits="userSpaceOnUse"><stop stop-color="#5b3e00" offset="0"/><stop stop-color="#534a02" offset="1"/></linearGradient><linearGradient id="o" x1="-819.2" x2="819.2" gradientTransform="matrix(.018 0 0 .0139 449.65 111.7)" gradientUnits="userSpaceOnUse"><stop stop-color="#795200" offset="0"/><stop stop-color="#766a01" offset="1"/></linearGradient><linearGradient id="p" x1="-819.2" x2="819.2" gradientTransform="matrix(.0234 0 0 .0094 301.55 148)" gradientUnits="userSpaceOnUse"><stop stop-color="#795200" offset="0"/><stop stop-color="#766a01" offset="1"/></linearGradient><linearGradient id="q" x1="-819.2" x2="819.2" gradientTransform="matrix(.0235 0 0 .0104 237.2 140.7)" gradientUnits="userSpaceOnUse"><stop stop-color="#795200" offset="0"/><stop stop-color="#766a01" offset="1"/></linearGradient><linearGradient id="r" x1="-819.2" x2="819.2" gradientTransform="matrix(.0121 0 0 .0113 174.45 110.95)" gradientUnits="userSpaceOnUse"><stop stop-color="#795200" offset="0"/><stop stop-color="#766a01" offset="1"/></linearGradient><linearGradient id="s" x1="-819.2" x2="819.2" gradientTransform="matrix(-.0122 .0033 -.0023 -.0087 250.25 83.45)" gradientUnits="userSpaceOnUse"><stop stop-color="#795200" offset="0"/><stop stop-color="#766a01" offset="1"/></linearGradient><linearGradient id="t" x1="-819.2" x2="819.2" gradientTransform="matrix(.0298 0 0 .0056 402.65 83.15)" gradientUnits="userSpaceOnUse"><stop stop-color="#795200" offset="0"/><stop stop-color="#766a01" offset="1"/></linearGradient><linearGradient id="u" x1="-819.2" x2="819.2" gradientTransform="matrix(.0336 0 0 .0479 453.3 156.25)" gradientUnits="userSpaceOnUse"><stop stop-color="#806000" offset="0"/><stop stop-color="#7d7d02" offset="1"/></linearGradient><linearGradient id="v" x1="-819.2" x2="819.2" gradientTransform="matrix(.008 0 0 .1118 321.35 234.8)" gradientUnits="userSpaceOnUse"><stop stop-color="#806000" offset="0"/><stop stop-color="#7d7d02" offset="1"/></linearGradient><linearGradient id="w" x1="-819.2" x2="819.2" gradientTransform="matrix(.0182 0 0 .1053 248.1 223.55)" gradientUnits="userSpaceOnUse"><stop stop-color="#806000" offset="0"/><stop stop-color="#7d7d02" offset="1"/></linearGradient><linearGradient id="x" x1="-819.2" x2="819.2" gradientTransform="matrix(.0322 0 0 .0378 160.4 147.55)" gradientUnits="userSpaceOnUse"><stop stop-color="#806000" offset="0"/><stop stop-color="#7d7d02" offset="1"/></linearGradient><linearGradient id="y" x1="-819.2" x2="819.2" gradientTransform="matrix(.0108 0 0 .0352 235.65 108.1)" gradientUnits="userSpaceOnUse"><stop stop-color="#806000" offset="0"/><stop stop-color="#7d7d02" offset="1"/></linearGradient><linearGradient id="z" x1="-819.2" x2="819.2" gradientTransform="matrix(.0082 0 0 .0366 396.85 108)" gradientUnits="userSpaceOnUse"><stop stop-color="#806000" offset="0"/><stop stop-color="#7d7d02" offset="1"/></linearGradient><linearGradient id="A" x1="-819.2" x2="819.2" gradientTransform="matrix(.0168 .0168 -.0063 .0063 498.7 213.7)" gradientUnits="userSpaceOnUse"><stop stop-color="#537750" offset="0"/><stop stop-color="#425a3f" offset="1"/></linearGradient><linearGradient id="B" x1="-819.2" x2="819.2" gradientTransform="matrix(-.0144 -.0144 .0217 -.0217 311.75 345.25)" gradientUnits="userSpaceOnUse"><stop stop-color="#537750" offset="0"/><stop stop-color="#425a3f" offset="1"/></linearGradient><linearGradient id="C" x1="-819.2" x2="819.2" gradientTransform="matrix(-.0052 -.0014 .0086 -.0324 231.05 332.9)" gradientUnits="userSpaceOnUse"><stop stop-color="#537750" offset="0"/><stop stop-color="#425a3f" offset="1"/></linearGradient><linearGradient id="D" x1="-819.2" x2="819.2" gradientTransform="rotate(-134.692 101.091 69.015) scale(.0091 .02)" gradientUnits="userSpaceOnUse"><stop stop-color="#537750" offset="0"/><stop stop-color="#425a3f" offset="1"/></linearGradient><linearGradient id="E" x1="-819.2" x2="819.2" gradientTransform="matrix(.0313 0 0 .0146 300.05 320.05)" gradientUnits="userSpaceOnUse"><stop stop-color="#fff" offset="0"/><stop stop-color="#c8d5c4" offset="1"/></linearGradient><linearGradient id="F" x1="-819.2" x2="819.2" gradientTransform="matrix(.0305 0 0 .0151 218.6 302.6)" gradientUnits="userSpaceOnUse"><stop stop-color="#fff" offset="0"/><stop stop-color="#c8d5c4" offset="1"/></linearGradient><linearGradient id="G" x1="-819.2" x2="819.2" gradientTransform="matrix(.0069 0 0 .0213 135.6 165.25)" gradientUnits="userSpaceOnUse"><stop stop-color="#fff" offset="0"/><stop stop-color="#c8d5c4" offset="1"/></linearGradient><g id="a"><path d="m414.95 139-1-9 6 4 5 27-10-22m-4.3 102.15h-5.35l-2.85-2.65.15-6.85q5.05 1.55 8.05 9.5m12.8-26.8 1.8-3.55-5.95-9.5-1.8-9.55 11.3 17.3-2.95 8.9-2.4-3.6" fill="#6c4900" fill-rule="evenodd" transform="translate(-110.4 -78)"/><path d="m448.2 222.4-37.55 18.75q-3-7.95-8.05-9.5l-.3 13.7q-9.65 4.8-19.35 9.65-24.05 7.95-49.65 10.35 3.1-52.6-5.65-109.95l87.3-16.4 10 22-5-27 10.1-1.5q2.6 46 18.15 89.9m-28.9-21.1 1.75 9.5 2.4 3.55 2.4 3.6 2.95-8.9-11.3-17.3 1.8 9.55" fill="url(#b)" fill-rule="evenodd" transform="translate(-110.4 -78)"/><path d="m287.3 265.4-19.35-2.4-5.75-2.15q10.9-48.6 8.25-109.05l24.1 3.6-7.25 110" fill="url(#c)" fill-rule="evenodd" transform="translate(-110.4 -78)"/><path d="M215.1 241.8 181 215l-8-10-4-40-1.25-2.25 3.9-11.55 6.65 4.8 5.4-8.45V133.7q14.75 8.65 40.35 10.85l-8.95 97.25M194 192q-19.3-41.2-21-33l19.75 54.8q23.5 25.75 1.25-21.8" fill="url(#d)" fill-rule="evenodd" transform="translate(-110.4 -78)"/><path d="M428.9 125.75q5.2-1.7 9.8-3.6l7 2.7 12.7-6.2 3.75 12.55-2.2 11.8 5 8-5.6 12.2 8.6 39.8-7 13-12.75 6.4q-15.55-43.9-18.15-89.9 1.5-.7 2.95-1.45l-4.1-5.3m-95.6 139.6q-22.4 2.15-46 .05l7.25-110h12.65l3.75-7.2 7 .8 7.9-.4-2.35 6.8h4.15q8.75 57.35 5.65 109.95m-71.1-4.5L217.95 244l-2.85-2.2 8.95-97.25 20.05 2.4 3.45-6.2 5.2.6 14.8 1.75-5.25 6.9 8.15 1.8q2.65 60.45-8.25 109.05m-94.45-98.1L164 156l7-10-5.55-31.4 9.5.5q2.95 5.25 9.6 9.95l-4 5.2 3.15 3.45v13.85l-5.4 8.45-6.65-4.8-3.9 11.55M194 192q22.25 47.55-1.25 21.8L173 159q1.7-8.2 21 33" fill="url(#e)" fill-rule="evenodd" transform="translate(-110.4 -78)"/><path d="m405.55 89.6-5.35 44.6q-7.35 2.65-15.1 4.85l-12.85-4.45h-6.05l2.45-46.35 12.05.35 10.85-6.6h9.65l-.55 7.4 4.9.2M229.5 84.35l11.25-1.1 5.7 5.65q6.05-.2 12-.15L264 139.9l-11.25 1.45-5.2-.6-11.65-1.35-3.45-49.65-2.95-5.4" fill="url(#f)" fill-rule="evenodd" transform="translate(-110.4 -78)"/><path d="m405.55 89.6 24.4 1.4q21.15.75 30 10l-4 12q-7.3 5-17.25 9.15-4.6 1.9-9.8 3.6-6.95 2.3-14.95 4.25l1 9-9-7-5.75 2.2 5.35-44.6m-36.9-1.35-2.45 46.35h-60.7l-41.5 5.3-5.55-51.15 10.5.25q49.85-2.05 99.7-.75m-136.2 1.5 3.45 49.65-28.95-3.4q-14.1-5.05-22.4-10.95-6.65-4.7-9.6-9.95-1.4-2.5-1.95-5.1l9-12q25.75-6.2 50.45-8.25" fill="url(#g)" fill-rule="evenodd" transform="translate(-110.4 -78)"/><path d="M459.95 101q-8.85-9.25-30-10l-24.4-1.4-4.9-.2.55-7.4h20.75q31.9 2.55 44 15v14l-3.8 20.2-3.75-12.55-12.7 6.2-7-2.7q9.95-4.15 17.25-9.15l4-12m-59.75 33.2 5.75-2.2 9 7-87.3 16.4h-4.15l2.35-6.8q32.4-2 59.25-9.55 7.75-2.2 15.1-4.85m13.75-4.2q8-1.95 14.95-4.25l4.1 5.3q-1.45.75-2.95 1.45l-10.1 1.5-6-4m-248.5-15.4L165 112l14-18q24.75-6.7 50.5-9.65l2.95 5.4Q207.75 91.8 182 98l-9 12q.55 2.6 1.95 5.1l-9.5-.5m75.3-31.35 34.2-1.25h116.6l-10.85 6.6-12.05-.35q-49.85-1.3-99.7.75l-10.5-.25q-5.95-.05-12 .15l-5.7-5.65m-4.85 56.15 11.65 1.35-3.45 6.2-20.05-2.4q-25.6-2.2-40.35-10.85l-3.15-3.45 4-5.2q8.3 5.9 22.4 10.95l28.95 3.4m31.65 3.7 43.4 5.1-3.75 7.2h-12.65l-24.1-3.6-8.15-1.8 5.25-6.9" fill="url(#h)" fill-rule="evenodd" transform="translate(-110.4 -78)"/><path d="m289.8 56.2 5.75-2.2 9 7-1-9q8-1.95 14.95-4.25 5.2-1.7 9.8-3.6Q338.25 40 345.55 35l4-12M290.8 4h20.75q31.9 2.55 44 15v14l-3.8 20.2-2.2 11.8 5 8-5.6 12.2 8.6 39.8-7 13-12.75 6.4-37.55 18.75h-5.35l-2.85-2.65-.15 6.85q-9.65 4.8-19.35 9.65-24.05 7.95-49.65 10.35-22.4 2.15-46 .05l-19.35-2.4-5.75-2.15L107.55 166l-2.85-2.2L70.6 137l-8-10-4-40-5-9 7-10-5.55-31.4-.45-2.6 14-18q24.75-6.7 50.5-9.65l11.25-1.1L164.55 4H290.8m-35 52.6h6.05l12.85 4.45q7.75-2.2 15.1-4.85m-74.35 14.4q32.4-2 59.25-9.55m34.2 62.25 1.75 9.5 2.4 3.55 1.8-3.55-5.95-9.5M153.6 61.9l41.5-5.3h60.7m-130.3 4.8 11.65 1.35 5.2.6 11.25-1.45M74.15 47.05q8.3 5.9 22.4 10.95l28.95 3.4M64.55 37.1q2.95 5.25 9.6 9.95M62.6 32q.55 2.6 1.95 5.1m77.8 26.25 14.8 1.75 43.4 5.1 7 .8 7.9-.4" fill="none" stroke="#000" stroke-linecap="round" stroke-linejoin="round" stroke-opacity=".4" stroke-width=".05"/><path d="m339.2 185.4.15 3q.65-.45.6-1.45-.1-1-.75-1.7v.15m2.95-2.05q.95 1.5.9 3.15 0 1.95-1.2 4.15-1.3 2.4-2.8 2.4-1.8 0-3.9-5.1-1.8-4.3-1.8-5.5 0-.9.15-1.8l1.65-.3q5.1 0 7 3m35.8-6.15q1.25 2.25 1.25 4.75 0 1.5-.75 5.7l-1.45.6q-2.15-1.25-3.9-3.2-1.8-2.1-1.8-3.55 0-1.75.65-4.3.7-2.85 1.45-2.85 2.9 0 4.55 2.85m21.65 13.15q2.9-3.3 3.9-3.3 3.75 0 5.75 4.25 0 .95-4 6.1-4.1 5.25-5.05 5.25-2 0-3-3.55l-.6-3.75q0-1.6 3-5m27.75-23.85v5.9l-1.5.75q-1.5-1.05-1.5-3.95 0-2.75 1.5-3.9.95.4 1.5 1.2m-50.95 61.65q-1.75 0-2.85 1.35-.9 1.1-.9 2.45 0 .9 1.85 4.05 2.25 3.85 4.4 3.85 3.75 0 3.75-4.5-2.35-7.2-6.25-7.2m69.1-42.2q1.7-6.95 4.85-11.75 1.3 15.55 10.45 15.55 2.3 0 3.85-2.05l3.3 15.3-7 13-50.3 25.15h-5.35l-2.85-2.65-.15 6.85-7 3.5q-.95-.9-2.6-.9-9.85 0-14.25 7.75l-.45.9q-21.75 6.6-44.7 8.75-22.4 2.15-46 .05l-19.35-2.4-50-19-13.55-10.65.5-5.15q.35-2.1 0-4.05-.75-3.9-4.35-3.9-3.25 0-3.95 7L181 215l-8-10-3.45-34.6 1.55 4.55q2.15 3.9 6.85 3.9l2.15-.25q3.45-.9 3.95-5l-.15-2.05-.25-4.45.3-2.25q21.55 35.7 24.4 35.7 4.6 0 5.75-4.35.3-1.15.3-5.4l-1.2-15.15q0-2 1.25-3.65.15 6.3 2.35 9.95l3.4 4.75 6.75 8.45q1.55 2 5.5 13.5 1.7 4.05 3.45 6.55l.5 1.2q1.45 2.7 4.9 2.8h.2q2.35 0 3.9-1.3 5.95-.95 24.35-8.4l1.45-.6q-.85 5.15-.3 9.85 1.15 9.55 8.55 9.55 4.6 0 7.25-5.55l3-7 .95-.85q3.25-2.7 9.7-4.4 4.35-1.15 7.7-2.5.55 3 1.4 5.65 3.6 11.05 10.35 11.05 5.45 0 6.15-4.55-.2-5.15.3-6.5 1.05-2.85 6.85-8.3l4.3-3.9.25-.2.4 1.55q1.8 6.35 3.95 11.65 6.85 16.85 14.25 16.85 3.45 0 5.1-2.4 1.2-1.65 1.2-3.6-1.2-8.95-1.2-10.45 0-4.95.75-6.8.8-2 3.65-3.35 3.3-1.6 4.05-2.5l1.3 5.65q2.1 5.35 6.5 5.35 3.6 0 5.95-4.7l2.3 1.25 1.4 3.1q3.75 7.4 6.6 9.3 1.65 2.55 5.15 2.55 5.75 0 8.7-12.6l.4-2.4 2.05.45q5.8 0 6.45-6.6.25-2.05-.1-4.75l-.1-.75 2.95 3.6 1.7 9.15 2.4 3.55 1.8-3.55-5.35-8.5q6.05 6.95 8.75 7.25h.2q2.05 0 3.55-1.15 1.4 1.15 3.65 1.15 3.45 0 5.1-3.45l.95-2.65 1.25-6.05q1.35-8.45 2.15-11.45M186.75 147.9q1.85 0 2.75 1.65 1.75 1.3 1.75 1.8 0 1.5-1 3.35l-.2 2.25-.15 6.1q.15.45-1.35.45-1.7 0-4.1-5.7-1.3-.65-2.1-2.7l-.8-3.15q0-1.4 1.35-2.7 1.4-1.35 3.15-1.35l.35.05.35-.05m14.7 15.6q.8 0 3 5.45 0 1.8-1.5 3.45-1.7 1.95-4.2 1.95l-1.95-.3q-.15-.9-.15-2.55 0-1.5 1.8-4.7 1.85-3.3 3-3.3m-21.7-4.8-.6 9.45q-.3.75-1.8.75t-2.4-2.1q-.6-1.4-.6-2.25l.75-8.55 1.65-.3q2.85 0 3 3m97.6 31.55-.15.7-.2.6q-.2.3-1.15.3-.75 0-2.1-3.45-1.2-3.1-1.2-3.7 0-1.1.2-1.25l1.3-.1q2.4 0 3.3 6.9m5.4 17.7q0 1.5-1.35 6.15l-1.35.6q-1.5-.8-1.5-3.75 0-1.45.9-3.35.95-1.95 1.8-1.95 1.5 0 1.5 2.3m-12.9 26.8q-3.75 0-3.75 4.05t3.75 4.05 3.75-4.05-3.75-4.05" fill="#600" fill-opacity=".4" fill-rule="evenodd" transform="translate(-110.4 -78)"/><path d="m503.5 170.1-.85.9-20.25 16.15-1.6 2.25q-24.05-20.4-38.2-66.25 14-2.85 21.8-20.15 10.2 41.85 39.1 67.1" fill="url(#i)" fill-rule="evenodd" transform="translate(-110.4 -78)"/><path d="M282.1 308.1q7.9-66.7.95-154.8 18.4 5.35 32.05-1.2-.3 1.75-.3 3.85 9.3 75.55.75 170.5l-33.95-14.1.5-4.25" fill="url(#j)" fill-rule="evenodd" transform="translate(-110.4 -78)"/><path d="M201.75 290.25Q216.2 227.8 218 144.2q-.3-3.25-.05-5.6 14.65 12.5 31.4 10.25 1.8 71.95-16.15 160.95l-32.4-15.6.95-3.95" fill="url(#k)" fill-rule="evenodd" transform="translate(-110.4 -78)"/><path d="M164.5 105q-.3 12.9 7.9 15.2-15.7 30.5-38.4 54l-2-22 2.5-2.7q16.75-18.9 28.3-41.7.75-1.6 1.7-2.8" fill="url(#l)" fill-rule="evenodd" transform="translate(-110.4 -78)"/><path d="m274.65 82.55-.55 7.35q-1.8 27.95.55 54.95l-11.6-1.6-1.25-4.65q-2.65-1.75-5.3-1.1l-12-.5q-3.05-21.6-2.2-47.1l.15-4.65q17.2 7.4 32.2-2.7" fill="url(#m)" fill-rule="evenodd" transform="translate(-110.4 -78)"/><path d="M390.15 137.95q-15.65 5-26.95 6.25 4.15-25.85 2.85-54.3l-.45-7.45q11.15 7.75 24.7 4.25l.25 3.2q1.8 26.45-.4 48.05" fill="url(#n)" fill-rule="evenodd" transform="translate(-110.4 -78)"/><path d="M464.4 103q-7.8 17.3-21.8 20.15l-1-3.35q-2.8-3.3-6.7-2.65 14.6-4.05 20.7-15.35 4.3-3.55 8.8 1.2" fill="url(#o)" fill-rule="evenodd" transform="translate(-110.4 -78)"/><path d="M283.05 153.3q-2.4-12.8 3.5-13 17.4 4.75 34.2 3.2-1.15.4-2.2 1.3-2.7 2.5-3.45 7.3-13.65 6.55-32.05 1.2" fill="url(#p)" fill-rule="evenodd" transform="translate(-110.4 -78)"/><path d="M217.95 138.6q.55-6.55 4.85-6.4 8.3 2.8 16.6 4.15l5.1.65 12 .5q-1.15.3-2.35 1.1-3.95 2.95-4.8 10.25-16.75 2.25-31.4-10.25" fill="url(#q)" fill-rule="evenodd" transform="translate(-110.4 -78)"/><path d="M172.4 120.2q-8.2-2.3-7.9-15.2 3.05-3.85 7.9-3.2l6.8 2.4q-.95 8.4 5.2 14.4-6-4.6-12 1.6" fill="url(#r)" fill-rule="evenodd" transform="translate(-110.4 -78)"/><path d="M236.6 79.4q16.7 2.45 32.35-1.4 2.85-.05 5.7 4.55-15 10.1-32.2 2.7-2.9-5.05-5.85-5.85" fill="url(#s)" fill-rule="evenodd" transform="translate(-110.4 -78)"/><path d="M365.6 82.45q1.5-4.2 6-3.85 11.15 2.1 23.25 0-1.3.6-2.45 1.9-2.6 2.6-2.1 6.2-13.55 3.5-24.7-4.25" fill="url(#t)" fill-rule="evenodd" transform="translate(-110.4 -78)"/><path d="M442.6 123.15q14.15 45.85 38.2 66.25l-4.3 6.05Q449.2 168.1 438 127.4q-4.9-4.55-8.4-2l-3.6 2q-1.05-3.8 3.2-7.6 3.1-2.2 5.7-2.65 3.9-.65 6.7 2.65l1 3.35" fill="url(#u)" fill-rule="evenodd" transform="translate(-110.4 -78)"/><path d="M320.75 143.5q2.55-.9 5.4.8l1.75 4.75-2.8-.25q-4.35-1.5-5.3 6.7 9.6 70.55.8 163.2l-.4 4.3-4.65 3.45q8.55-94.95-.75-170.5 0-2.1.3-3.85.75-4.8 3.45-7.3 1.05-.9 2.2-1.3" fill="url(#v)" fill-rule="evenodd" transform="translate(-110.4 -78)"/><path d="m263.05 143.25-2.75-.45q-4.15-1.7-5.95 5.95 2.55 67.2-15.35 154.05l-.85 4.05-4.95 2.95q17.95-89 16.15-160.95.85-7.3 4.8-10.25 1.2-.8 2.35-1.1 2.65-.65 5.3 1.1l1.25 4.65" fill="url(#w)" fill-rule="evenodd" transform="translate(-110.4 -78)"/><path d="M172.4 120.2q6-6.2 12-1.6 3.35 4.6 2 7.6l-5.2-2.4q-3.55-2.8-8.4 2.4-13 26.9-31.5 49.4l-2.45 2.9-4.85-4.3q22.7-23.5 38.4-54" fill="url(#x)" fill-rule="evenodd" transform="translate(-110.4 -78)"/><path d="M239.4 136.35q-2.55-22.7-1.5-46.45v-.75q-2.8-4.8-6.6-4.5l-4.5 1.2q1.5-3.6 6.45-6.05 1.05-.55 2.1-.55h.2l1.05.15q2.95.8 5.85 5.85l-.15 4.65q-.85 25.5 2.2 47.1l-5.1-.65" fill="url(#y)" fill-rule="evenodd" transform="translate(-110.4 -78)"/><path d="M394.85 78.6q2.45-1.2 5.4.25l3.3 3.35h-3.95q-3.3-.55-5.4 4.5l.2 3.2q1.3 24.5-.2 46.85l-4.05 1.2q2.2-21.6.4-48.05l-.25-3.2q-.5-3.6 2.1-6.2 1.15-1.3 2.45-1.9" fill="url(#z)" fill-rule="evenodd" transform="translate(-110.4 -78)"/><path d="m480.8 189.4 1.6-2.25 37.2 40.25-10.8 6.8-34-36.4 1.7-2.35 4.3-6.05" fill="url(#A)" fill-rule="evenodd" transform="translate(-110.4 -78)"/><path d="m325.7 323.6-4.45 47.8-11.35 7.6 4.6-46.95 11.2-8.45" fill="url(#B)" fill-rule="evenodd" transform="translate(-110.4 -78)"/><path d="m243.6 307.8-9.2 44.8-12 6.4 9.2-44 12-7.2" fill="url(#C)" fill-rule="evenodd" transform="translate(-110.4 -78)"/><path d="M141.1 182.75 122 207.4l-11.6-8.8 21.2-24.4 9.5 8.55" fill="url(#D)" fill-rule="evenodd" transform="translate(-110.4 -78)"/><path d="m320.6 318.7 5.1 4.9-11.2 8.45-40.1-19.15 7.7-4.8-.5 4.25 33.95 14.1 4.65-3.45.4-4.3" fill="url(#E)" fill-rule="evenodd" transform="translate(-110.4 -78)"/><path d="m239 302.8 4.6 5-12 7.2-38-20.8 8.15-3.95-.95 3.95 32.4 15.6 4.95-2.95.85-4.05" fill="url(#F)" fill-rule="evenodd" transform="translate(-110.4 -78)"/><path d="m134.5 149.5-2.5 2.7 2 22 4.85 4.3 2.45-2.9-.2 7.15-9.5-8.55-1.65-25.85.45-.55 4.1 1.7m3.9 29.5.45-.5-.45.5" fill="url(#G)" fill-rule="evenodd" transform="translate(-110.4 -78)"/><path d="m502.65 171 .95-.8-.1-.1 3.3-1.9 31.6 34-18.8 25.2-37.2-40.25L502.65 171M309.9 379q-20.85-4.6-39.8-20.45 4.25-20.4 4.3-45.65l40.1 19.15-4.6 46.95m-87.5-20q-20.3-5.75-37.6-22 6.3-18.95 8.8-42.8l38 20.8-9.2 44m-112-160.4v-26l19.55-24.25 1.65 25.85-21.2 24.4" fill="#859c83" fill-rule="evenodd" transform="translate(-110.4 -78)"/><path d="m393.1 92.1-.85.9.95-.8-.1-.1Q364.2 66.85 354 25m16.4 86.4 1.6-2.25L392.25 93m16.95 56.4 18.8-25.2-31.6-34-3.3 1.9M279.75 59.95q-15.65 5-26.95 6.25 4.15-25.85 2.85-54.3l-.45-7.45q1.5-4.2 6-3.85 11.15 2.1 23.25 0 2.45-1.2 5.4.25l3.3 3.35h-3.95q-3.3-.55-5.4 4.5l.2 3.2q1.3 24.5-.2 46.85l-4.05 1.2m-69.4 5.55q2.55-.9 5.4.8l1.75 4.75-2.8-.25q-4.35-1.5-5.3 6.7 9.6 70.55.8 163.2l5.1 4.9-4.45 47.8-11.35 7.6q-20.85-4.6-39.8-20.45 4.25-20.4 4.3-45.65l7.7-4.8q7.9-66.7.95-154.8-2.4-12.8 3.5-13 17.4 4.75 34.2 3.2m-5.2 182.95 4.65-3.45.4-4.3M324.5 39.15q14.6-4.05 20.7-15.35 4.3-3.55 8.8 1.2m12.1 92.45Q338.8 90.1 327.6 49.4q-4.9-4.55-8.4-2l-3.6 2q-1.05-3.8 3.2-7.6 3.1-2.2 5.7-2.65m41.6 78.3-1.7 2.35 34 36.4 10.8-6.8m-38.8-38-4.3 6.05M163.7 11.9q-1.8 27.95.55 54.95l-11.6-1.6-2.75-.45q-4.15-1.7-5.95 5.95 2.55 67.2-15.35 154.05l4.6 5-9.2 44.8-12 6.4q-20.3-5.75-37.6-22 6.3-18.95 8.8-42.8l8.15-3.95Q105.8 149.8 107.6 66.2q-.3-3.25-.05-5.6.55-6.55 4.85-6.4 8.3 2.8 16.6 4.15-2.55-22.7-1.5-46.45m6.6 47.1 12 .5q2.65-.65 5.3 1.1l1.25 4.65M74 40.6q-6.15-6-5.2-14.4L62 23.8q-4.85-.65-7.9 3.2-.95 1.2-1.7 2.8-11.55 22.8-28.3 41.7l-2.5 2.7 2 22 4.85 4.3 2.45-2.9-.2 7.15-19.1 24.65L0 120.6v-26l19.55-24.25.45-.55 4.1 1.7M74 40.6q3.35 4.6 2 7.6l-5.2-2.4q-3.55-2.8-8.4 2.4-13 26.9-31.5 49.4m91.9 134.2 4.95-2.95.85-4.05M134.1 59l-5.1-.65M28.45 100.5l-.45.5m94.8 130.8-32.4-15.6.95-3.95m113.8 36.2-33.95-14.1.5-4.25M126.2 1.4q16.7 2.45 32.35-1.4 2.85-.05 5.7 4.55l-.55 7.35m-36.2 0v-.75q-2.8-4.8-6.6-4.5l-4.5 1.2q1.5-3.6 6.45-6.05 1.05-.55 2.1-.55h.2l1.05.15" fill="none" stroke="#000" stroke-linecap="round" stroke-linejoin="round" stroke-opacity=".4" stroke-width=".05"/><path d="m289 333 1.45-.3 1.2 7.15L289 333m-.85 10.95q1.55 0 2.65-1.15.85-.95 1-2l.85 5.6q2.6 11.5 7.4 11.5 1.2 0 2.35-.75 1.55-1.05 1.55-2.8 0-.8-2.8-10.55 1.75 1.55 3.95 2.1-.25.4-.25.75 0 .85.85 1.5l3.05 2.55q-2.75 3.55-2.75 7.35 0 3.9 3.6 3.9 1 0 2.05-.95 1.95-1.8 4.25-6.75l1.55-3.55 1.45.2q3.3 0 4.05-3.45l.15-4.2q.7-4.15-.65-5.85l2.05-.7-3.25 34.7-11.35 7.6q-7-1.55-13.8-4.35l.6-.4q5.55-3.5 5.55-5.4-.4-3.7-3.6-3.7-2.05 0-3-.6l-.8-.35q.4-1.1.4-2.1 0-3.9-3.6-3.9-2.6 0-4.9 4.1l-1.15 2.25q-2.5.2-3.15 3-4.1-2.55-8.05-5.55-.25-3.8-3.65-3.8l-.6.05q2.6-12.4 3.6-26.6 1.55-.2 5.75-1.7l1.3 6.35q2.45 7.65 7.35 7.65m-73.5 11.75q1.25.5 2 1.45l-8.25-3.55 6.25 2.1m-3.35-27.35-.4 3q0 3.9 3.6 3.9 3.8 0 6.45-15.7 2.95 2.7 6.9 3.8-.15 3.6-.15 7.3l.15 2.35v.3q.7 2.55 3.5 2.55 3.55 0 4.2-10.9v-1.05q2.35-.7 5.45-3.25l-6.6 31.95-4.8 2.6q-2.05-5.1-4-5.1l-1.35.25q-1.1.35-1.65 1.35l-.85-.8q-4.3-3.75-11.6-3.75-1.25 0-2.4.8-1.5 1-1.5 2.75 0 1.65 1.4 2.55-12-6.1-22.85-16.25 4.45-13.4 7-29.2 1.5 2 3.55 2.9 2.1 14.6 4.6 16.25v.35q0 3.9 3.6 3.9 3.7 0 7.75-2.85M117.1 195.3l.15-.65 1.4-5.5.35-1.8q-.3-3.7-3.65-3.7-2.5 0-4.95 7.3V172.6l12.1-15 .65.85 1.45 2-.3.9-2.6 3.9q-3 4.45-3 5.95 0 1.9.3 2.45.85 1.55 4.35 2.3l.1.5-1.1 2.15q-2.35 4.35-2.35 7.7l.05 1.2.05.5q.25 1.85.95 3.3 2 4.4 7.1 4.65l1.5 1.55-7.65 9.9-5.05-3.8.05-.05q3.75-2.85 3.75-4.6 0-3.55-3.65-3.65m397.45 26.6-.05-.15.1-.9.05.25q.4.55.8 1.8l.8 3.4q.5 1.45 1.4 2.35l-2 1.25-.4-.6q.95-1.05.95-3.2-1.55-3.35-1.65-4.2m23.3-20.3.55.6-5.25 7.1-1.75-1.7 2.9-2.1q2.65-2.25 3.55-3.9m-52.75 4.15.15.15 4.85 4.55q1.25 1.45 1.95 5.05l.2 1-9.1-9.75 1.95-1m12.3-9.05 3.95-6.9q4.65 2.1 7.75 2.1 4.15 0 6.45-2.75 2.75 2.3 5.7 2.3 3.15 0 3.6-2.75l1.3.3 7.25 7.85q-1.65.9-4.9 3.85l-2.3 2.15q-4.15-3.5-5.5-3.5-1.7 0-2.75 1.25-.9 1.1-.9 2.4l5.75 7.7q-1.25.6-1.65 2.1-.35 2.85-1.05 3.5-4.65-3.1-7.55-3.1-1.9 0-3.15 1.3l-.7-1.85q-3.2-8.15-7.1-8.15-1.6 0-2.5.75-1.1.85-1.1 2.85l2.25 6.15q2.65 6.9 5.4 13l3.3 6.9-.05.05-8.8-16.8q-3-7.75-5.25-12.2l-2.4-3.95 1.8-1.3q2.4-1.9 3.15-3.25" fill="#600" fill-opacity=".2" fill-rule="evenodd" transform="translate(-110.4 -78)"/></g></defs></svg>