<svg viewBox="0 0 94.8 59.146" xmlns="http://www.w3.org/2000/svg" xmlns:xlink="http://www.w3.org/1999/xlink"><g transform="translate(-228.05 -170.4)"><use transform="matrix(-1.0755 0 -.9429 -.9335 305.13 184.87)" width="59.3" height="14.45" xlink:href="#a"/><use transform="translate(289.2 170.4)" width="29.8" height="38.85" xlink:href="#b"/><use transform="translate(284.65 189.45)" width="38.2" height="35.15" xlink:href="#c"/><use transform="translate(259.5 194.9)" width="23.85" height="34.65" xlink:href="#d"/><use transform="translate(228.05 187.3)" width="32.05" height="36.2" xlink:href="#e"/><use transform="translate(242.07 181.87) scale(1.1293)" width="59.3" height="14.45" xlink:href="#a"/><use transform="translate(261.4 187.7)" width="20.35" height="11.65" xlink:href="#f"/><use transform="translate(284.45 181.55)" width="27.75" height="15" xlink:href="#g"/><use transform="translate(229.3 179.55)" width="30.85" height="15.5" xlink:href="#h"/></g><defs><use width="59.3" height="14.45" xlink:href="#i" id="a"/><use width="29.8" height="38.85" xlink:href="#j" id="b"/><use width="38.2" height="35.15" xlink:href="#k" id="c"/><use width="23.85" height="34.65" xlink:href="#l" id="d"/><use width="32.05" height="36.2" xlink:href="#m" id="e"/><use width="20.35" height="11.65" xlink:href="#n" id="f"/><use width="27.75" height="15" xlink:href="#o" id="g"/><use width="30.85" height="15.5" xlink:href="#p" id="h"/><g id="i"><path d="M23.95-5.35q1.95-.5 3 .35L19-1.25q-.65-.95-2.4-1.2 3.65-1.2 7.35-2.9M-29.4-2v-.35q1.2-3.65 3.45-2.2l4.15 1.8Q-22.4-.8-21.9.9L-29.4-2m17.1 2L4.1.5q1.85 1.2 2.65 2.35-7.8 1.7-17.35.65-1.5-1.7-1.7-3.5" fill="#965a00" fill-rule="evenodd" transform="translate(29.65 7.2)"/><path d="M19-1.25 26.95-5q.95.8 1.05 2.8l-1.05.65-8 3.6q.8-2.15.05-3.3m-11.85 7Q.55 7.1-5.6 7q-3.3-1.7-5-3.5 9.55 1.05 17.35-.65 1.1 1.5.4 2.9m-25.35-.8Q-22.95 3.5-27.45 1q-2-1.05-1.95-3l7.5 2.9q.75 2.3 3.7 4.05" fill="#5f3900" fill-rule="evenodd" transform="translate(29.65 7.2)"/><path d="m26.95-5 2.1-1.2.1.65Q30-3.7 28-2.2q-.1-2-1.05-2.8m-8 7.05Q12.9 4.5 7.15 5.75q.7-1.4-.4-2.9 5.5-1.15 10.55-3.2l1.7-.9q.75 1.15-.05 3.3M-5.6 7q-6.5-.2-12.6-2.05Q-21.15 3.2-21.9.9l11.3 2.6q1.7 1.8 5 3.5" fill="#601c00" fill-rule="evenodd" transform="translate(29.65 7.2)"/><path d="M26.95-5q-1.05-.85-3-.35l2.1-1q2.45-1.25 3 .15L26.95-5M16.6-2.45q1.75.25 2.4 1.2l-1.7.9Q12.25 1.7 6.75 2.85 5.95 1.7 4.1.5q6.15-.8 12.5-2.95m-38.4-.3Q-17.1-.9-12.3 0q.2 1.8 1.7 3.5L-21.9.9q-.5-1.7.1-3.65" fill="#892900" fill-rule="evenodd" transform="translate(29.65 7.2)"/><path d="m55.7.85-2.1 1q-3.7 1.7-7.35 2.9M3.7 2.65l4.15 1.8q4.7 1.85 9.5 2.75l16.4.5q6.15-.8 12.5-2.95" fill="none" stroke="#000" stroke-linecap="round" stroke-linejoin="round" stroke-opacity=".4" stroke-width=".5"/><path d="M53.6 1.85q1.95-.5 3 .35.95.8 1.05 2.8 2-1.5 1.15-3.35L58.7 1q-.55-1.4-3-.15m-9.45 3.9q1.75.25 2.4 1.2m9-.95-1.05.65-8 3.6q-6.05 2.45-11.8 3.7-6.6 1.35-12.75 1.25-6.5-.2-12.6-2.05Q6.7 10.7 2.2 8.2q-2-1.05-1.95-3v-.35q1.2-3.65 3.45-2.2m32.7 7.4q1.1 1.5.4 2.9m11.8-3.7q.8-2.15.05-3.3m-12.25 4.1q-.8-1.15-2.65-2.35m-16.4-.5q.2 1.8 1.7 3.5 1.7 1.8 5 3.5M7.75 8.1q-.5-1.7.1-3.65m3.6 7.7Q8.5 10.4 7.75 8.1" fill="none" stroke="#000" stroke-linecap="round" stroke-linejoin="round" stroke-opacity=".4" stroke-width=".5"/></g><g id="j"><path d="M9.65-15q2.65.4 5 7.3L8.7-10l-2.5-2.7v2.5l-3.7-1.3q2.85-2.95 7.15-3.5" fill="#606000" fill-rule="evenodd" transform="translate(14.9 19.4)"/><path d="M2.5-11.5 1.1-9.75l-14.9-5.65q2.45-4.35 9.4-3.65L9.65-15q-4.3.55-7.15 3.5" fill="#cc0" fill-rule="evenodd" transform="translate(14.9 19.4)"/><path d="M1.1-9.75.25-5-.5 4.05q-.2 4.1.05 7.15-5.55-12.45-14-15l-.1-1.2q-.35-4.9.75-10.4L1.1-9.75" fill="#baba00" fill-rule="evenodd" transform="translate(14.9 19.4)"/><path d="M1.35 17.95q-7.9-7.05-13.4-8.75-1.95-5.7-2.4-13 8.45 2.55 14 15 .35 4.75 1.8 6.75" fill="#a8a800" fill-rule="evenodd" transform="translate(14.9 19.4)"/><path d="M-.5 4.05 4 7.3v5.2l2.5-2.95 5.75 2.65Q5 21.3 1.95 18.55l-.6-.6q-1.45-2-1.8-6.75Q-.7 8.15-.5 4.05" fill="#baba00" fill-rule="evenodd" transform="translate(14.9 19.4)"/><path d="M24.55 4.4q2.65.4 5 7.3L23.6 9.4l-2.5-2.7v2.5l-3.7-1.3L16 9.65m-.85 4.75-.75 9.05 4.5 3.25v5.2l2.5-2.95 5.75 2.65q-7.25 9.1-10.3 6.35l-.6-.6q-7.9-7.05-13.4-8.75-1.95-5.7-2.4-13l-.1-1.2M1.1 4Q3.55-.35 10.5.35L24.55 4.4q-4.3.55-7.15 3.5m-2.95 22.7q-.25-3.05-.05-7.15m1.85 13.9q-1.45-2-1.8-6.75M16 9.65l-.85 4.75m-14.8 0Q0 9.5 1.1 4" fill="none" stroke="#000" stroke-linecap="round" stroke-linejoin="round" stroke-opacity=".4" stroke-width=".5"/></g><g id="k"><path d="m-8.9 14.05 1.25-1.7q1.7-2.2 3.7-4 1.7-1.55 3.6-2.8Q.75 4.8 1.9 4.2l1.25-.65 2.9 3.35-2.5 1.75Q3 13.05.4 17.2q-4 .65-8-1.95l-1.3-1.2" fill="#cc0" fill-rule="evenodd" transform="translate(19.1 17.55)"/><path d="m-7.1-3.35-1.2-.95-3.5.05v4.7l-3.9 3.15q-2.8-7-3.15-16.5l14.25-4.4q.2 5.4 1.95 10.35l-4.45 3.6" fill="#606000" fill-rule="evenodd" transform="translate(19.1 17.55)"/><path d="m-7.1-3.35 4.45-3.6Q-.7-1.4 3.15 3.55L1.9 4.2Q.75 4.8-.35 5.55q-1.9 1.25-3.6 2.8-2 1.8-3.7 4l-1.25 1.7Q-13.3 9.8-15.7 3.6l3.9-3.15 1.15 9.1.9-.65q1.65-1.3 3.4-2.35Q-4.1 5.2-1.8 4.25l2.75-1-8.05-6.6m2.2 4.95-3.95 3.25V-.4l3.95 2" fill="#baba00" fill-rule="evenodd" transform="translate(19.1 17.55)"/><path d="M.4 17.2Q3 13.05 3.55 8.65l2.5-1.75 6.55-4.8q-.2 1.95-1.15 4.7 2.95-3.05 3-6.05l4.4-2.5q-1.4 6.4-5.95 10.4Q6.65 10.5.4 17.2" fill="#969600" fill-rule="evenodd" transform="translate(19.1 17.55)"/><path d="m-11.8.45 4.7-3.8 8.05 6.6-2.75 1q-2.3.95-4.55 2.3Q-8.1 7.6-9.75 8.9l-.9.65-1.15-9.1m6.9 1.15-3.95-2v5.25L-4.9 1.6" fill="#baba00" fill-rule="evenodd" transform="translate(19.1 17.55)"/><path d="M-11.8.45v-4.7l3.5-.05 1.2.95-4.7 3.8" fill="#606000" fill-rule="evenodd" transform="translate(19.1 17.55)"/><path d="M16.45 10.6Q14.7 5.65 14.5.25L.25 4.65q.35 9.5 3.15 16.5m6.8 10.45 1.3 1.2q4 2.6 8 1.95 2.6-4.15 3.15-8.55l2.5-1.75-2.9-3.35q-3.85-4.95-5.8-10.5m-6.25 21q-4.4-4.25-6.8-10.45m21.75 3.3 6.55-4.8q-.2 1.95-1.15 4.7 2.95-3.05 3-6.05l4.4-2.5q-1.4 6.4-5.95 10.4-6.25 1.85-12.5 8.55" fill="none" stroke="#000" stroke-linecap="round" stroke-linejoin="round" stroke-opacity=".4" stroke-width=".5"/><path d="m-10.4-.9 4.2-3.4 7.45 7.75v-.8L2.4 4.6l-10.45 8Q-9.2 11.45-9.7 10l-.7-10.9m4.3 10.65 5.75-4.2L-7.1-.6l1 10.35" fill="#772300" fill-rule="evenodd" transform="translate(19.1 17.55)"/><path d="m2.4 4.6 1.1 1.9-9.9 7.3-1.65-1.2 10.45-8" fill="#893512" fill-rule="evenodd" transform="translate(19.1 17.55)"/><path d="m-10.4-.9-.3-4.05 2.6-1.35 1.9 2-4.2 3.4" fill="#651100" fill-rule="evenodd" transform="translate(19.1 17.55)"/><path d="m12.9 13.25-1.9-2-2.6 1.35.3 4.05m4.2-3.4L20.35 21v-.8l1.15 1.95 1.1 1.9-9.9 7.3-1.65-1.2Q9.9 29 9.4 27.55l-.7-10.9M13 27.3l-1-10.35 6.75 6.15L13 27.3" fill="none" stroke="#000" stroke-linecap="round" stroke-linejoin="round" stroke-opacity=".2" stroke-width=".5"/></g><g id="l"><path d="m8.95 6.45.8 4.7q-7.6 2.55-15.2 1l-1.4 3.1h-.05l-.05-3.4-2.3-.7 1-5.75q8.6-2.3 17.2 1.05" fill="#cc0" fill-rule="evenodd" transform="translate(11.9 17.3)"/><path d="M8.05-7.95q-.05 7.3.9 14.4Q.35 3.1-8.25 5.4q.75-5.45 1.15-12L8.05-7.95m1.7 19.1L11.5 9.5q.95 4.55-3.25 7.6-6.55-2.6-15.1-1.85l1.4-3.1q7.6 1.55 15.2-1m-16.65 4.1-2.25.2q-2.15-.15-2.5-5.95l2.4 1.65 2.3.7.05 3.4" fill="#a8a800" fill-rule="evenodd" transform="translate(11.9 17.3)"/><path d="M8.5-17.05q-.45 4.6-.45 9.1L-7.1-6.6q.3-4.95.35-10.45H8.5" fill="#606000" fill-rule="evenodd" transform="translate(11.9 17.3)"/><path d="M20.4.25q-.45 4.6-.45 9.1-.05 7.3.9 14.4l.8 4.7 1.75-1.65q.95 4.55-3.25 7.6-6.55-2.6-15.1-1.85H5l-2.25.2Q.6 32.6.25 26.8l2.4 1.65 1-5.75q.75-5.45 1.15-12 .3-4.95.35-10.45m-2.5 28.2 2.3.7.05 3.4m16.65-4.1q-7.6 2.55-15.2 1l-1.4 3.1" fill="none" stroke="#000" stroke-linecap="round" stroke-linejoin="round" stroke-opacity=".4" stroke-width=".5"/><path d="M-5.45 4.4H-2l.2.2Q-.65 5.75 1 5.75T3.8 4.6h.05l1.8.75-.8 1.05Q3 8.5.35 8.5T-4.2 6.4q-.8-.9-1.25-2" fill="#893512" fill-rule="evenodd" transform="translate(11.9 17.3)"/><path d="M-5.45 4.4q-.6-1.4-.6-3.05 0-2.95 1.85-5.05Q-2.3-5.8.35-5.8t4.5 2.1q1.9 2.1 1.9 5.05 0 2.25-1.1 4l-1.8-.75q1.1-1.2 1.1-2.8Q4.95.15 3.8-1T1-2.15-1.8-1t-1.15 2.8q0 1.5.95 2.6h-3.45" fill="#772300" fill-rule="evenodd" transform="translate(11.9 17.3)"/><path d="M17.55 22.65q1.1-1.75 1.1-4 0-2.95-1.9-5.05-1.85-2.1-4.5-2.1T7.7 13.6q-1.85 2.1-1.85 5.05 0 1.65.6 3.05m3.45 0q-.95-1.1-.95-2.6 0-1.65 1.15-2.8t2.8-1.15 2.8 1.15 1.15 2.8q0 1.6-1.1 2.8h-.05q-1.15 1.15-2.8 1.15t-2.8-1.15l-.2-.2m7.65.95-.8 1.05q-1.85 2.1-4.5 2.1T7.7 23.7q-.8-.9-1.25-2" fill="none" stroke="#000" stroke-linecap="round" stroke-linejoin="round" stroke-opacity=".2" stroke-width=".5"/></g><g id="m"><path d="m8.95 13.05-2.8 2.75q-3.55 3.3-9.1 1.35l-2.4-1.6q7.65.3 8.55-3.1-4.45 3-10.95 1.45l-2.05-1.35q5.8.25 7.5-3.65-4.75 2.7-9.5 2.3l-3.95-2.6q8.6.7 13-5.8l11.7 10.25" fill="#cc0" fill-rule="evenodd" transform="translate(16 18.1)"/><path d="M.75-6.15q1.05-5 1.1-11.7l13.85 5.2q.4 8.25-1.2 14.6Q7.3-.7.75-6.15" fill="#4e4e00" fill-rule="evenodd" transform="translate(16 18.1)"/><path d="M.75-6.15Q7.3-.7 14.5 1.95q-1.7 6.55-5.55 11.1L-2.75 2.8Q-.4-.65.75-6.15" fill="#a8a800" fill-rule="evenodd" transform="translate(16 18.1)"/><path d="M30.5 20.05q1.6-6.35 1.2-14.6L17.85.25q-.05 6.7-1.1 11.7m13.75 8.1q-1.7 6.55-5.55 11.1l-2.8 2.75q-3.55 3.3-9.1 1.35l-2.4-1.6q7.65.3 8.55-3.1-4.45 3-10.95 1.45L6.2 30.65q5.8.25 7.5-3.65-4.75 2.7-9.5 2.3L.25 26.7q8.6.7 13-5.8 2.35-3.45 3.5-8.95" fill="none" stroke="#000" stroke-linecap="round" stroke-linejoin="round" stroke-opacity=".4" stroke-width=".5"/><path d="M-.95 4.65 3.2 2.7l-1-7.15 3.55.75.3 5.05L11.5-1.2l1.2 3.55-6.4 2.4.4 6.3L4 8.8l-.4-3.05-2.25.85-2.3-1.95" fill="#772300" fill-rule="evenodd" transform="translate(16 18.1)"/><path d="m6.7 11.05.1 1.9-2.4-1.05L4 8.8l2.7 2.25M1.35 6.6-1.7 7.75l-.4-2.55 1.15-.55 2.3 1.95" fill="#893512" fill-rule="evenodd" transform="translate(16 18.1)"/><path d="m15.05 22.75 4.15-1.95-1-7.15 3.55.75.3 5.05 5.45-2.55 1.2 3.55-6.4 2.4.4 6.3.1 1.9L20.4 30l-.4-3.1-.4-3.05-2.25.85-3.05 1.15-.4-2.55z" fill="none" stroke="#000" stroke-linecap="round" stroke-linejoin="round" stroke-opacity=".2" stroke-width=".5"/></g><g id="n"><path d="M-8.65-2.3Q1 2.45 9.9.25q.15 2-.1 4.3Q2.65 6-4.05 5.45l-.1-3.7-1.8 3.5-3.95-.7q-.15-4 1.25-6.85" fill="#cc0" fill-rule="evenodd" transform="translate(10.15 5.8)"/><path d="M-8.65-2.3q.9-1.9 2.5-3.25Q.7-2.5 8.35-4.8 9.6-2.6 9.9.25 1 2.45-8.65-2.3" fill="#f0f024" fill-rule="evenodd" transform="translate(10.15 5.8)"/><path d="M20.05 6.05Q19.75 3.2 18.5 1 10.85 3.3 4 .25 2.4 1.6 1.5 3.5m18.55 2.55q.15 2-.1 4.3-7.15 1.45-13.85.9L6 7.55l-1.8 3.5-3.95-.7Q.1 6.35 1.5 3.5" fill="none" stroke="#000" stroke-linecap="round" stroke-linejoin="round" stroke-opacity=".4" stroke-width=".5"/></g><g id="o"><path d="M9.1-5.9q4.1 2.3 4.55 8.25l-5.3.3-3.1-4.5v4.9L-5 7.25q-1.2-3.75-2.3-6Q1.7-.8 9.1-5.9" fill="#cc0" fill-rule="evenodd" transform="translate(13.85 7.5)"/><path d="M9.1-5.9Q1.7-.8-7.3 1.25-7.85.15-8.35-.6q-1.2-1.65-2.3-1.7Q-1.1-3.35 4.9-7.25q2.45.3 4.2 1.35" fill="#f0f024" fill-rule="evenodd" transform="translate(13.85 7.5)"/><path d="M-8.35-.6-13.6.8q1-2.3 2.1-2.9l.85-.2q1.1.05 2.3 1.7" fill="#606000" fill-rule="evenodd" transform="translate(13.85 7.5)"/><path d="M6.55 8.75q1.1 2.25 2.3 6l10.25-4.2v-4.9l3.1 4.5 5.3-.3q-.45-5.95-4.55-8.25M6.55 8.75Q6 7.65 5.5 6.9M.25 8.3q1-2.3 2.1-2.9l.85-.2Q12.75 4.15 18.75.25q2.45.3 4.2 1.35M3.2 5.2q1.1.05 2.3 1.7" fill="none" stroke="#000" stroke-linecap="round" stroke-linejoin="round" stroke-opacity=".4" stroke-width=".5"/></g><g id="p"><path d="M-9.35-5.9Q-2.75.05 6.7 1.7 4.55 3.95 3.2 7.5L-9.9 1.7-7-2.5-12.35.6l-2.8-1.25q2.15-3.5 5.8-5.25" fill="#cc0" fill-rule="evenodd" transform="translate(15.4 7.75)"/><path d="M8.3.2 6.7 1.7Q-2.75.05-9.35-5.9-7.1-7.05-4.2-7.5.5-2.8 11.95-1.75 9.95-1.1 8.3.2" fill="#f0f024" fill-rule="evenodd" transform="translate(15.4 7.75)"/><path d="M8.3.2q1.65-1.3 3.65-1.95L15.2 2.2 8.3.2" fill="#4e4e00" fill-rule="evenodd" transform="translate(15.4 7.75)"/><path d="m22.1 9.45 1.6-1.5q1.65-1.3 3.65-1.95Q15.9 4.95 11.2.25 8.3.7 6.05 1.85m16.05 7.6q-2.15 2.25-3.5 5.8L5.5 9.45l2.9-4.2-5.35 3.1L.25 7.1q2.15-3.5 5.8-5.25m24.55 8.1L27.35 6" fill="none" stroke="#000" stroke-linecap="round" stroke-linejoin="round" stroke-opacity=".4" stroke-width=".5"/></g></defs></svg>