<svg viewBox="0 0 95.629 77.779" xmlns="http://www.w3.org/2000/svg" xmlns:xlink="http://www.w3.org/1999/xlink"><g transform="translate(-227.17 -161.06)"><use transform="translate(227.4 161.3)" width="95.15" height="77.3" xlink:href="#a"/><use transform="translate(292.9 209.45)" width="16.7" height="28" xlink:href="#b"/><use transform="translate(227.15 161.05)" width="95.65" height="77.8" xlink:href="#c"/></g><defs><linearGradient id="d" x1="-819.2" x2="819.2" gradientTransform="matrix(.0017 -.0005 .0006 .0022 33.45 -24.6)" gradientUnits="userSpaceOnUse"><stop stop-color="#f8efe0" offset="0"/><stop stop-color="#fff" offset=".988"/></linearGradient><linearGradient id="e" x1="-819.2" x2="819.2" gradientTransform="matrix(-.0406 -.0057 .0023 -.0164 -7.05 -26.35)" gradientUnits="userSpaceOnUse"><stop stop-color="#dccd63" offset="0"/><stop stop-color="#ebdda5" offset=".988"/></linearGradient><linearGradient id="f" x1="-819.2" x2="819.2" gradientTransform="matrix(.0333 0 0 .0133 -5.7 -24.75)" gradientUnits="userSpaceOnUse"><stop stop-color="#6b5a17" offset="0"/><stop stop-color="#998a22" offset=".533"/><stop stop-color="#685717" offset=".988"/></linearGradient><linearGradient id="g" x1="-819.2" x2="819.2" gradientTransform="matrix(.0006 -.0024 .0024 .0006 1.45 -5.5)" gradientUnits="userSpaceOnUse"><stop stop-color="#79691a" offset="0"/><stop stop-color="#998a22" offset=".988"/></linearGradient><linearGradient id="h" x1="-819.2" x2="819.2" gradientTransform="matrix(.0072 .0072 -.0088 .0088 12.7 .7)" gradientUnits="userSpaceOnUse"><stop stop-color="#bfac2b" offset="0"/><stop stop-color="#a78c25" offset=".988"/></linearGradient><linearGradient id="i" x1="-819.2" x2="819.2" gradientTransform="matrix(-.0085 0 0 -.003 7.45 -8.55)" gradientUnits="userSpaceOnUse"><stop stop-color="#dccd63" offset="0"/><stop stop-color="#ebdda5" offset=".988"/></linearGradient><linearGradient id="j" x1="-819.2" x2="819.2" gradientTransform="matrix(0 -.0103 .0015 0 17.75 -.35)" gradientUnits="userSpaceOnUse"><stop stop-color="#79691a" offset="0"/><stop stop-color="#998a22" offset=".988"/></linearGradient><linearGradient id="k" x1="-819.2" x2="819.2" gradientTransform="matrix(.002 -.002 .0048 .0048 34.85 -19.75)" gradientUnits="userSpaceOnUse"><stop stop-color="#f8efe0" offset="0"/><stop stop-color="#fff" offset=".988"/></linearGradient><linearGradient id="l" x1="-819.2" x2="819.2" gradientTransform="matrix(.0022 -.0013 .0018 .0032 34.85 -14.4)" gradientUnits="userSpaceOnUse"><stop stop-color="#f8efe0" offset="0"/><stop stop-color="#fff" offset=".988"/></linearGradient><linearGradient id="m" x1="-819.2" x2="819.2" gradientTransform="matrix(.002 -.0076 .0027 .0007 29.05 -14.1)" gradientUnits="userSpaceOnUse"><stop stop-color="#79691a" offset="0"/><stop stop-color="#998a22" offset=".988"/></linearGradient><linearGradient id="n" x1="-819.2" x2="819.2" gradientTransform="matrix(.0014 -.0054 .0024 .0006 23.75 -7.35)" gradientUnits="userSpaceOnUse"><stop stop-color="#79691a" offset="0"/><stop stop-color="#998a22" offset=".988"/></linearGradient><linearGradient id="o" x1="-819.2" x2="819.2" gradientTransform="matrix(-.0016 -.0027 .0035 -.002 37.85 -9.35)" gradientUnits="userSpaceOnUse"><stop stop-color="#e8ca97" offset="0"/><stop stop-color="#996922" offset=".988"/></linearGradient><linearGradient id="p" x1="-819.2" x2="819.2" gradientTransform="matrix(-.001 -.0017 .0019 -.0011 36.65 -10.7)" gradientUnits="userSpaceOnUse"><stop stop-color="#e8ca97" offset="0"/><stop stop-color="#996922" offset=".988"/></linearGradient><linearGradient id="q" x1="-819.2" x2="819.2" gradientTransform="matrix(-.0022 -.0164 .0082 -.0011 38.05 -7.3)" gradientUnits="userSpaceOnUse"><stop stop-color="#e8ca97" offset="0"/><stop stop-color="#996922" offset=".988"/></linearGradient><linearGradient id="r" x1="-819.2" x2="819.2" gradientTransform="matrix(-.0039 -.0068 .0055 -.0032 37.15 -11.6)" gradientUnits="userSpaceOnUse"><stop stop-color="#e8ca97" offset="0"/><stop stop-color="#996922" offset=".988"/></linearGradient><linearGradient id="s" x1="-819.2" x2="819.2" gradientTransform="matrix(-.0027 -.0016 .0041 -.0072 40.05 -.65)" gradientUnits="userSpaceOnUse"><stop stop-color="#e8ca97" offset="0"/><stop stop-color="#996922" offset=".988"/></linearGradient><linearGradient id="t" x1="-819.2" x2="819.2" gradientTransform="matrix(-.0141 -.0141 .0108 -.0108 -12.2 4.6)" gradientUnits="userSpaceOnUse"><stop stop-color="#dccd63" offset="0"/><stop stop-color="#ebdda5" offset=".988"/></linearGradient><linearGradient id="u" x1="-819.2" x2="819.2" gradientTransform="matrix(-.0048 .0084 -.0077 -.0044 .5 20.95)" gradientUnits="userSpaceOnUse"><stop stop-color="#bfac2b" offset="0"/><stop stop-color="#a78c25" offset=".988"/></linearGradient><linearGradient id="v" x1="-819.2" x2="819.2" gradientTransform="matrix(-.008 -.008 .0033 -.0033 .5 2.1)" gradientUnits="userSpaceOnUse"><stop stop-color="#79691a" offset="0"/><stop stop-color="#998a22" offset=".988"/></linearGradient><linearGradient id="w" x1="-819.2" x2="819.2" gradientTransform="matrix(0 .0105 -.0064 0 -41.85 -7.3)" gradientUnits="userSpaceOnUse"><stop stop-color="#bfac2b" offset="0"/><stop stop-color="#a78c25" offset=".988"/></linearGradient><linearGradient id="x" x1="-819.2" x2="819.2" gradientTransform="matrix(-.0045 -.0045 .0046 -.0046 -26.9 -17.3)" gradientUnits="userSpaceOnUse"><stop stop-color="#f1efe4" offset="0"/><stop stop-color="#fff" offset=".988"/></linearGradient><linearGradient id="y" x1="-819.2" x2="819.2" gradientTransform="matrix(.0033 .0121 -.0114 .0031 -29.45 -3.65)" gradientUnits="userSpaceOnUse"><stop stop-color="#f1efe4" offset="0"/><stop stop-color="#e4e0cb" offset=".988"/></linearGradient><linearGradient id="z" x1="-819.2" x2="819.2" gradientTransform="matrix(.0017 -.0066 .0044 .0012 -30.5 -5.6)" gradientUnits="userSpaceOnUse"><stop stop-color="#79691a" offset="0"/><stop stop-color="#998a22" offset=".988"/></linearGradient><linearGradient id="A" x1="-819.2" x2="819.2" gradientTransform="matrix(0 .0087 -.0057 0 -28.4 1.15)" gradientUnits="userSpaceOnUse"><stop stop-color="#bfac2b" offset="0"/><stop stop-color="#a78c25" offset=".988"/></linearGradient><linearGradient id="B" x1="-819.2" x2="819.2" gradientTransform="matrix(-.006 -.0016 .0006 -.0022 -6.75 -7)" gradientUnits="userSpaceOnUse"><stop stop-color="#dccd63" offset="0"/><stop stop-color="#ebdda5" offset=".988"/></linearGradient><linearGradient id="C" x1="-819.2" x2="819.2" gradientTransform="matrix(0 -.0119 .0063 0 -17.8 1.95)" gradientUnits="userSpaceOnUse"><stop stop-color="#cec79f" offset="0"/><stop stop-color="#b9ac79" offset=".988"/></linearGradient><linearGradient id="D" x1="-819.2" x2="819.2" gradientTransform="matrix(.0037 -.0139 .0047 .0013 -17.05 1.95)" gradientUnits="userSpaceOnUse"><stop stop-color="#79691a" offset="0"/><stop stop-color="#998a22" offset=".988"/></linearGradient><linearGradient id="E" x1="-819.2" x2="819.2" gradientTransform="matrix(-.0026 .0098 -.0118 -.0031 -10.2 10.45)" gradientUnits="userSpaceOnUse"><stop stop-color="#bfac2b" offset="0"/><stop stop-color="#a78c25" offset=".988"/></linearGradient><linearGradient id="F" x1="-819.2" x2="819.2" gradientTransform="matrix(.0013 -.0022 .001 .0006 -7.9 19.35)" gradientUnits="userSpaceOnUse"><stop stop-color="#79691a" offset="0"/><stop stop-color="#998a22" offset=".988"/></linearGradient><linearGradient id="G" x1="-819.2" x2="819.2" gradientTransform="matrix(.0022 .0013 -.0004 .0007 -25.05 14.8)" gradientUnits="userSpaceOnUse"><stop stop-color="#cec79f" offset="0"/><stop stop-color="#b9ac79" offset=".988"/></linearGradient><linearGradient id="H" x1="-819.2" x2="819.2" gradientTransform="matrix(-.0025 .0095 -.0049 -.0013 4 .7)" gradientUnits="userSpaceOnUse"><stop stop-color="#f90" stop-opacity=".678" offset="0"/><stop stop-color="#ba7001" stop-opacity=".678" offset=".988"/></linearGradient><linearGradient id="I" x1="-819.2" x2="819.2" gradientTransform="matrix(-.0027 .0102 -.0038 -.001 -3.4 .65)" gradientUnits="userSpaceOnUse"><stop stop-color="#ec0202" stop-opacity=".678" offset="0"/><stop stop-color="#900" stop-opacity=".678" offset=".988"/></linearGradient><g id="a"><path d="M30.25-25.4q2.9-1.75 5.8.45l.55 1.45q-3.4-1.85-6.2.35v-.4l-.15-1.85" fill="url(#d)" fill-rule="evenodd" transform="translate(47.6 38.65)"/><path d="M-47.1-27.6q-.6-2.05.35-3.8 3.8-3.75 17.95-5.1l22.45-1.85Q16.6-38.9 25.2-32.6q4.3 2.9 5.05 7.2l.15 1.85v.4l-.05.55-.3 2.05-.8 2.7q-.9 2.25-2.45 3.65l-1.85-2.4q3.3-4.2 1.05-10.25-1.2-3.65-11.05-7-20.9-3.7-49.1.25l-1.55.25q-15.7 2.7 2.1 14.35l-1.95.55-1.05 1.55q-9.15-6.15-10.5-10.7" fill="url(#e)" fill-rule="evenodd" transform="translate(47.6 38.65)"/><path d="m19.85-14.2-.3-.25q-1.25-.75-2.9.6-2.9-1.65-7.95-2.9-10.75-1.05-18.3.05l-2-2.9q-.85.2-.8 3.4-3.8.8-6.65 2.25-5.75-2.3-9.5-5.6h-3.1l-1.95.55q-17.8-11.65-2.1-14.35l1.55-.25q28.2-3.95 49.1-.25 9.85 3.35 11.05 7 2.25 6.05-1.05 10.25L23-16.7l-.65 1.45-.4.85q-.35-.85-.9-.95l-.6.6-.6.55" fill="url(#f)" fill-rule="evenodd" transform="translate(47.6 38.65)"/><path d="M36.65 5 38 6.5l-1.15.75-.4-.65-1.4-1.3 1.4 1.3.4.65-4-1.05-1.9-2.25.2-1 .3-.1.4-.15q.4.9 1.25 1.55.75.6 1.95 1.05l.45.2 1.05.3.1-.8m-15.7 4.15-.05.55q-.2 1.5-.75 2.25-.75-.1-1.2-1.05 1-2.7.3-6.25.9-1.75.25-6.25 1.25-2.3.3-6.35l.05-.6Q20-11.6 17.95-12q-.55-1.3-2-1.25l.7-.6q1.65-1.35 2.9-.6l.3.25.8 1.2-.35.2-1.9.1-.45.7.45-.7 1.9-.1.55.5.1 2.05.1 1.65.15 2.4.1 3.1v5.3l-.2 4.5-.1 1.6-.05.85m-.5-23.9.6-.6q.55.1.9.95l.2.45.25.85.15.9.15 1.1-.9-1 .9 1 .05.1.7 5.2.45 3.2q-.65.45-.85 1.15L22.3-6q.5.35 1.15.2-.65.15-1.15-.2l-.5-6.1-1.35-2.65m1.9-.5L23-16.7l1.95.1q-1.35.35-1.7 1.7.35-1.35 1.7-1.7l1.85 2.4.55 2.15q-.1 1.85-.95 2.55.85-.7.95-2.55l1.1 4.4L27.2-8l-.7.3-.1-1.8q-1.15-3.8-3.15-5.4l-.9-.35m-2.55 7.3q.95.25 1.4 1.75-.45-1.5-1.4-1.75m8.85 17.3q.7.2 1.2-.25l.3-1.35.8 1.5-1.2 1.5q-2.35 1.05-3.95-2-3.45-2.65-3-4.7.3-.15.65.15l1.45 1.9q.75 1.65.9 2.65-.15-1-.9-2.65 1.55 1.95 2.75 2.75l.5.35.5.15m4.45-5.1q-.55.75-.25 1.95-.3-1.2.25-1.95M19.5-1.6Q20.55.85 21.3.25q-.75.6-1.8-1.85m8.65 10.8q.9.55 1.4 1.25l.2.3-.2-.3q-.5-.7-1.4-1.25M21.1 6.7q-1.1.25-1.85-2.05.75 2.3 1.85 2.05" fill="#d5a54a" fill-rule="evenodd" transform="translate(47.6 38.65)"/><path d="M2.6-6.1q1.05 2.25 0 2.95-1.5-.45-2-2.4l-.95-.95L1-7.75 2.6-6.1" fill="url(#g)" fill-rule="evenodd" transform="translate(47.6 38.65)"/><path d="M16.15 10.75q-2.7 1.1-5.8 2l-3.6-9.8-9.8-5.8-1.7-2.75 5.35.05q.5 1.95 2 2.4 1.05-.7 0-2.95 8.95-.85 14.95-2.8.4 10.65-1 19.45l-.4.2" fill="url(#h)" fill-rule="evenodd" transform="translate(47.6 38.65)"/><path d="M2.6-6.1 1-7.75q8.3-.95 13.95-2.8l.9-.3.5-.2 1.15.35 1.05 1.4v.05l-1 .35q-6 1.95-14.95 2.8" fill="url(#i)" fill-rule="evenodd" transform="translate(47.6 38.65)"/><path d="M38 6.5q.75 1.25-.15 2.1l-.7.5-1 .05-.8-.2L33.6 7.9l-2.9-2.65.05-.35.2-.95 1.9 2.25q.2.75.75 1.7-.55-.95-.75-1.7l4 1.05q.4.85.3 1.85.1-1-.3-1.85L38 6.5m-15.8 3.85q-.95.35-1.25-1.2L21 8.3q.95 1.15 1.85-1.15l-.9-2.1q-.25-.75.2-1.75l-.85-1.1v-5.3l-.1-3.1-.15-2.4-.1-1.65-.1-2.05-.55-.5.35-.2-.8-1.2.6-.55 1.35 2.65-.95-.2.95.2.5 6.1.75 4.55-.1.25v.3q-1.1-.05-1.65-2.2.55 2.15 1.65 2.2-.05 1.05 1.1 2.15h.05l-.25 1.1-.4 1.85q-.35-.3-.65-.15-.45 2.05 3 4.7.2 1.1-.35 1.3.55-.2.35-1.3 1.6 3.05 3.95 2l1.2-1.5.45.8-.6 2.4h-3.15l-2.2-2.4-2.6-2.9-.25 1.25-.4 1.95m-2.05 1.6q-.6.75-1.65.65-2-.35-2.35-1.85l.4-.2 1.8-.8.1-.95.45-5.5v-6.55l.6 1.65-.6-1.65-.25-4.65-.1-1.35v-.05l-1.05-1.4.3-.9.15-.4-.15.4-.3.9-1.15-.35-.5.2-.9.3 1-2.7q1.45-.05 2 1.25 2.05.4 1.9 3.45l-.05.6-1.15.05 1.15-.05q.95 4.05-.3 6.35.65 4.5-.25 6.25L18.9 3.3l.35 1.35q.7 3.55-.3 6.25.45.95 1.2 1.05m1.8-26.35.4-.85.9.35v.1q-.25.9 0 2.25-.25-1.35 0-2.25v-.1q2 1.6 3.15 5.4l.1 1.8-.65.3-.65-1.75q.7 0 1.2-.35-.5.35-1.2.35L24.15-12l-.9-.55-.85-.55-.25-.85-.2-.45m-.9 5.8q.4 2.05 1.25 2.6-.85-.55-1.25-2.6m-.4-4.4.2.7-.2-.7m.45 19.7.2-4.5.85 1.1q-.45 1-.2 1.75l.9 2.1q-.9 2.3-1.85 1.15l.1-1.6m.85-1.65q.4-.85.85-1-.45.15-.85 1m.2-1.75.55-.95h1.15-1.15l-.55.95m7.9 9.15q.15-.9-.3-1.7.45.8.3 1.7M18.6 9.65l-.15-.85.15.85.2.9.15.35-.15-.35-.2-.9-.25.1-.15 1 .15-1 .25-.1" fill="#960" fill-rule="evenodd" transform="translate(47.6 38.65)"/><path d="m18.55-9.25.1 1.35.25 4.65V3.3l-.45 5.5-.1.95-1.8.8q1.4-8.8 1-19.45l1-.35" fill="url(#j)" fill-rule="evenodd" transform="translate(47.6 38.65)"/><path d="M36.6-23.5q1.2 3 3.7 6.3-2.75-1.3-5.6-.25-4.45 1.15-4.6 7.7l-.5-1.35q-.05-5.4.45-9.45l.3-2.05.05-.55q2.8-2.2 6.2-.35" fill="url(#k)" fill-rule="evenodd" transform="translate(47.6 38.65)"/><path d="m40.3-17.2 1.8 2.1-.05.05q-2.85-2.35-7.5 0-3.45 1.45-3.5 6.25l-.5.35-.45-1.3q.15-6.55 4.6-7.7 2.85-1.05 5.6.25" fill="url(#l)" fill-rule="evenodd" transform="translate(47.6 38.65)"/><path d="m22.4-13.1.85.55.9.55-1.45.9-.15-1.1-.15-.9" fill="#dccd63" fill-rule="evenodd" transform="translate(47.6 38.65)"/><path d="M26.8-14.2q1.55-1.4 2.45-3.65l.8-2.7q-.5 4.05-.45 9.45l.1 3.8-1.25-.35-1.1-4.4-.55-2.15" fill="url(#m)" fill-rule="evenodd" transform="translate(47.6 38.65)"/><path d="M-12.4-16.2q-.05-3.2.8-3.4l2 2.9q-1.45-1.5-2.8.5m42.5 6.45.45 1.3-.7.4.1.85-.25-.1-.1-3.8.5 1.35" fill="#7b701c" fill-rule="evenodd" transform="translate(47.6 38.65)"/><path d="m30.55-8.45.5-.35 1.25-.75 1.65.2 1.5.15 2.05.25 1.65 1.5-1.9 1.7-4.1.05v.05l.8.95-2.1 1.5-1.15-.15h-.1l-.1-.4-.35.3-2.4-.35L29-5.6l-2.25 1.65-2.2-2.85 1.95-.9.7-.3 2.5.7.25.1 1.05.3 1.45.4.7.8-.7-.8L31-6.9l-1.15-1.15.7-.4" fill="#f3f1de" fill-rule="evenodd" transform="translate(47.6 38.65)"/><path d="m25.2-9.15.65 1.75-1.3.6V-3l-.65.4-.45-3.2-.7-5.2-.05-.1 1.45-.9 1.05 2.85" fill="url(#n)" fill-rule="evenodd" transform="translate(47.6 38.65)"/><path d="m26.85 32.55-.1-.85 1.75-16.45.6-2.8h1.7l.6-2.4q1.3 1.75 3.5 2l-2.5 20.2q-1.85 3.35-5.55.3m-9.7 1.8 5.05-24 .4-1.95 2.05 4.15q1.2 2.35 2.85 2.7L23.05 36.1q-3.4 3.4-5.9-1.75M23.9-2.6l.65-.4v.8l-.2.4q-.2.65.85 1.45 1.05.85 2.75 1.3l1.2.25.85.05h.2l.75-.05q1.1-.15 1.45-.65l.05-.2.05-.3.25-.9.2-.55.9.15 2.9-.25h.05q1.25-.35 1.4-1v-.3l.15-.9.65.85.15.9v.1L37.2-.6q-1.8.7-3.95.6l-.5-.85.5.85.2.7-.05.4-.5.95 3.05.05-.45 3.4-.45-.2q-1.2-.45-1.95-1.05-.85-.65-1.25-1.55l.7-.35q-3.1.55-6.8-.85-2.45-1.65-2.7-2.95.2-.7.85-1.15m8.65 4.95.35-.3-.35.3m-3 2.55-.9 4.45-.5-.15-.5-.35q-1.2-.8-2.75-2.75l-1.45-1.9.4-1.85q2.55 2.3 5.7 2.55" fill="#bfdcdf" fill-rule="evenodd" transform="translate(47.6 38.65)"/><path d="m24.55-6.8 2.2 2.85v2.85l.95-2.7h.05l2.4.35.45.1h.1l1.15.15-1.65 4.45H30l-.85-.05-1.2-.25Q26.25.5 25.2-.35q-1.05-.8-.85-1.45l.2-.4v-4.6m9.4 2.1-.8-.95v-.05l4.1-.05-.5 4.25-2.9.25-.9-.15 1-3.3" fill="#e1d9a6" fill-rule="evenodd" transform="translate(47.6 38.65)"/><path d="m37.6-.1-.15.1-.25.15-.15 1.15-1.1.8-3.05-.05.5-.95.05-.4.3.05q1.95.1 3.45-.6-1.5.7-3.45.6l-.3-.05-.2-.7q2.15.1 3.95-.6l1.95-1.25Q38.95-.8 37.6-.1M22.95-.9v-.3l.1-.25q.25 1.3 2.7 2.95 3.7 1.4 6.8.85l-.7.35-.4.15-.3.1-1.35.25-2.2-.15q-2.2-.5-3.5-1.8 1.3 1.3 3.5 1.8l2.2.15 1.35-.25-.2 1-.2.95h-1.2q-3.15-.25-5.7-2.55l.25-1.1h-.05Q22.9.15 22.95-.9m7.2 8.65.55-2.5 2.9 2.65 1.75 1.05-.45 3.1q-2.2-.25-3.5-2l-.45-.8-.8-1.5m-7.55.65.25-1.25 2.6 2.9 2.2 2.4h.7l-.75 2.2-.1.6q-1.65-.35-2.85-2.7L22.6 8.4" fill="#92c4c9" fill-rule="evenodd" transform="translate(47.6 38.65)"/><path d="M26.75-3.95 29-5.6l-1.25 1.8h-.05l-.95 2.7v-2.85m5.1.75 2.1-1.5-1 3.3-.2.55-.25.9-.05.3-.05.2q-.35.5-1.45.65l-.75.05 1.65-4.45m7.3-4.25-.4 1.9-.4 1.85-.15.9v.3q-.15.65-1.4 1h-.05l.5-4.25 1.9-1.7" fill="#c5b752" fill-rule="evenodd" transform="translate(47.6 38.65)"/><path d="m35.45-9.2-1.5-.15q1.25-3.85 4.95-2.85 2.4.75 2.85 3.9-.45 3.2-3 2.75l.4-1.9.05-1.15q.65-1.25-1.05-1.95-1.85-.85-2.7 1.35" fill="url(#o)" fill-rule="evenodd" transform="translate(47.6 38.65)"/><path d="m39.15-7.45-1.65-1.5-2.05-.25q.85-2.2 2.7-1.35 1.7.7 1.05 1.95l-.05 1.15" fill="url(#p)" fill-rule="evenodd" transform="translate(47.6 38.65)"/><path d="m42.5-14.8.35.45q1.6 1.75 1.75 5.3-.6 12 2.7 23-.75 1.5-4.35-4.25L41.9 5.95Q43.7 1 43.25-6.7l.6-3.25q-1.85-5.8-6.6-4.35-4.2.65-4.95 4.75l-1.25.75q.05-4.8 3.5-6.25 4.65-2.35 7.5 0l.45.25" fill="url(#q)" fill-rule="evenodd" transform="translate(47.6 38.65)"/><path d="m33.95-9.35-1.65-.2q.75-4.1 4.95-4.75 4.75-1.45 6.6 4.35l-.6 3.25Q42.1-3.45 39-2.85l-.65-.85.4-1.85q2.55.45 3-2.75-.45-3.15-2.85-3.9-3.7-1-4.95 2.85" fill="url(#r)" fill-rule="evenodd" transform="translate(47.6 38.65)"/><path d="m41.9 5.95-.6 1.95-3.7-8q1.35-.7 1.55-1.75v-.1l-.15-.9q3.1-.6 4.25-3.85Q43.7 1 41.9 5.95" fill="url(#s)" fill-rule="evenodd" transform="translate(47.6 38.65)"/><path d="m37.05 1.3-.4 3.7-.1.8-1.05-.3.45-3.4 1.1-.8m-.9 7.85-2.7 23.65q-1.75 2.65-4.3 2.1-1.85-.55-2.3-2.35 3.7 3.05 5.55-.3l2.5-20.2.45-3.1.8.2m-7.65 6.1L23.9 36.6q-2.05 2.5-4.65 1.5-2.15-1.05-2.1-3.75 2.5 5.15 5.9 1.75l4.45-20.85.1-.6.75-2.2h.75l-.6 2.8M30.75 4.9l-.05.35-.55 2.5-.3 1.35q-.5.45-1.2.25l.9-4.45h1.2" fill="#ebf4f5" fill-rule="evenodd" transform="translate(47.6 38.65)"/><path d="M8.85 13.15q1.05 3.2 1.55 6.35v2.45q-2.6 6.4-7.55 11.8h-3.6q2.4-.55 8.05-10.2 1.15-1.7.8-3.75-1.6-8.7-6.2-15.85l-13.15-6.6-4.8-3.65 1.95-.75 3.95 2.95L4.2 3.3q2.95 4.95 4.65 9.85" fill="url(#t)" fill-rule="evenodd" transform="translate(47.6 38.65)"/><path d="m-.75 33.75-7.8-11.55L-.1 7.7l2-3.75Q6.5 11.1 8.1 19.8q.35 2.05-.8 3.75-5.65 9.65-8.05 10.2" fill="url(#u)" fill-rule="evenodd" transform="translate(47.6 38.65)"/><path d="m10.35 12.75-1.5.4Q7.15 8.25 4.2 3.3l-14.35-7.4-3.95-2.95 1.7.4 7.65 1.05 1.7 2.75 9.8 5.8 3.6 9.8" fill="url(#v)" fill-rule="evenodd" transform="translate(47.6 38.65)"/><path d="M-36.6 3.25q-5.5-2.75-8.7-7.8Q-47-6.4-46.4-9.1q1-8.35-.7-18.5 1.35 4.55 10.5 10.7V3.25" fill="url(#w)" fill-rule="evenodd" transform="translate(47.6 38.65)"/><path d="m-35.55-18.45 15.6 7.25-1.2 1.05-15.45-6.75 1.05-1.55" fill="#fff" fill-rule="evenodd" transform="translate(47.6 38.65)"/><path d="m-33.6-19 1.95-.55h3.1q3.75 3.3 9.5 5.6l4.45 1.5-5.35 1.25-15.6-7.25 1.95-.55" fill="url(#x)" fill-rule="evenodd" transform="translate(47.6 38.65)"/><path d="m-31.9-6.35.3-5.55 1.05.5-.4 4.35-.95.7m-2.95-1.4.9.45.2 6.4.65.35 1.6.85v5.1l1.35.85 3.3 2-.05 1.35-5.65-3.8.25-4.55-2.55-1.6v-7.4M-24 5.05l-.1 1.4-2.6-1.75 1.15-.75 1.55 1.1" fill="#cec79f" fill-rule="evenodd" transform="translate(47.6 38.65)"/><path d="m-35 8.65-1.6-1.6V-16.9l15.45 6.75-1.75 25.5-12.1-6.7m3.4-20.55-.3 5.55-2.05-.95-.9-.45v7.4l2.55 1.6-.25 4.55 5.65 3.8.05-1.35.15-3.55 2.6 1.75.1-1.4.3-3.8.3-3.85-1.5-.6-1.55-.65.1-2.8.1-2.85-4.3-1.9-1.05-.5" fill="url(#y)" fill-rule="evenodd" transform="translate(47.6 38.65)"/><path d="m-31.9-6.35.95-.7.4-4.35 4.3 1.9-.1 2.85-3.1-1.6v3.8l-3.4-1-.25 4.9-.65-.35-.2-6.4 2.05.95" fill="url(#z)" fill-rule="evenodd" transform="translate(47.6 38.65)"/><path d="m-26.85 8.25-3.3-2 .1-2.7-1.45-1.8V.3l-1.6-.85.25-4.9 3.4 1v-3.8l3.1 1.6-.1 2.8 1.55.65-.05 2.55 1.25 1.9-.3 3.8-1.55-1.1-1.15.75-.15 3.55" fill="url(#A)" fill-rule="evenodd" transform="translate(47.6 38.65)"/><path d="m-30.15 6.25-1.35-.85V1.75l1.45 1.8-.1 2.7m5.25-9.45 1.5.6-.3 3.85-1.25-1.9.05-2.55" fill="#998a22" fill-rule="evenodd" transform="translate(47.6 38.65)"/><path d="m-14.1-7.05-1.95.75-2.45-1.85 2.85-1.05 3 .6.25 1.95-1.7-.4-2.5-1.8 2.5 1.8" fill="#bfac2b" fill-rule="evenodd" transform="translate(47.6 38.65)"/><path d="m-.35-6.5.95.95-5.35-.05-7.65-1.05-.25-1.95Q-6.8-7.55-1.3-7.45l.95.95" fill="url(#B)" fill-rule="evenodd" transform="translate(47.6 38.65)"/><path d="m-18.1 16.2-.65.5-3.1.65-1.05-2 1.75-25.5 1.2-1.05 5.35-1.25 1.95 1.25v2.6l-3-.6-2.85 1.05Q-20.4 3.5-19.75 15.2l1.65 1m2.45-25.4.95-.4-.95.4M-19.7 16l-.05-.8.05.8" fill="url(#C)" fill-rule="evenodd" transform="translate(47.6 38.65)"/><path d="m-16.9 16.9-1.2-.7-1.65-1Q-20.4 3.5-18.5-8.15l2.45 1.85q-2 12-.85 23.2" fill="url(#D)" fill-rule="evenodd" transform="translate(47.6 38.65)"/><path d="m-9.9 21-7-4.1q-1.15-11.2.85-23.2l4.8 3.65L1.9 3.95l-2 3.75L-9.9 21" fill="url(#E)" fill-rule="evenodd" transform="translate(47.6 38.65)"/><path d="M-8.55 22.2-9.9 21-.1 7.7l-8.45 14.5" fill="url(#F)" fill-rule="evenodd" transform="translate(47.6 38.65)"/><path d="M-21.85 17.35-35 8.65l12.1 6.7 1.05 2" fill="url(#G)" fill-rule="evenodd" transform="translate(47.6 38.65)"/><path d="M77.85 13.25q2.9-1.75 5.8.45l.55 1.45q1.2 3 3.7 6.3l1.8 2.1.4.3.35.45q1.6 1.75 1.75 5.3-.6 12 2.7 23-.75 1.5-4.35-4.25L89.5 44.6l-.6 1.95-3.7-8-.15.1-.25.15-.15 1.15-.4 3.7 1.35 1.5q.75 1.25-.15 2.1l-.7.5-1 .05-2.7 23.65q-1.75 2.65-4.3 2.1-1.85-.55-2.3-2.35l-.1-.85L76.1 53.9l-4.6 21.35q-2.05 2.5-4.65 1.5-2.15-1.05-2.1-3.75l5.05-24q-.95.35-1.25-1.2l-.05.55q-.2 1.5-.75 2.25-.6.75-1.65.65-2-.35-2.35-1.85-2.7 1.1-5.8 2l-1.5.4Q57.5 55 58 58.15v2.45q-2.6 6.4-7.55 11.8h-3.6l-7.8-11.55-1.35-1.2-7-4.1-1.2-.7-.65.5-3.1.65-13.15-8.7-1.6-1.6v-3.8q-5.5-2.75-8.7-7.8-1.7-1.85-1.1-4.55 1-8.35-.7-18.5-.6-2.05.35-3.8 3.8-3.75 17.95-5.1L41.25.3Q64.2-.25 72.8 6.05q4.3 2.9 5.05 7.2L78 15.1v.4m-13.75 9.3q1.65-1.35 2.9-.6l.3.25.6-.55.6-.6q.55.1.9.95l.4-.85.65-1.45 1.95.1q3.3-4.2 1.05-10.25-1.2-3.65-11.05-7m-50.65.5Q-3.8 8 14 19.65l1.95-.55h3.1q3.75 3.3 9.5 5.6 2.85-1.45 6.65-2.25 1.35-2 2.8-.5 7.55-1.1 18.3-.05 5.05 1.25 7.95 2.9l-.7.6m2 1.25.45-.7 1.9-.1.35-.2-.8-1.2M48.6 30.9l-1.35 1.25-.95-.95q-5.5-.1-11.35-1.15v-2.6L33 26.2l-4.45-1.5m37 1.95-.15.4-.3.9 1.05 1.4v.05l.1 1.35 1.15-.05m-2.3-2.75-1.15-.35-.5.2-.9.3q-5.65 1.85-13.95 2.8m18.5 6.15-.6-1.65v6.55l.35 1.35q.75 2.3 1.85 2.05l.2-4.5V38.9q-.75.6-1.8-1.85m-.85-6.3.25 4.65m-3.95-7.3 1-2.7m.6 23.8 1.8-.8.1-.95.45-5.5M77.7 28.9l.45 1.3.5-.35q.05-4.8 3.5-6.25 4.65-2.35 7.5 0l.45.25M77.65 18.1l.3-2.05.05-.55m-8.45 8.75.2.45.25.85.85.55q-.25-1.35 0-2.25v-.1q.35-1.35 1.7-1.7l1.85 2.4m3.25-6.35q-.5 4.05-.45 9.45l.5 1.35m-3.7.25q.85-.7.95-2.55l-.55-2.15m-.95 6.8.65-.3m-.1-1.8q-.5.35-1.2.35l.65 1.75-1.3.6m9.4 2.1-.8-.95v-.05l-.7-.8-1.45-.4-1.05-.3-.25-.1-2.5-.7-.7.3m3.45.5-.1-.85.7-.4m-2.1.8-1.1-4.4m2.25.95.1 3.8m-8.5 1.1-.15-2.4-.1-1.65-.1-2.05-.55-.5m1.5.7.9 1-.15-1.1-.15-.9m-1.55.8.95.2m.95 1.1-.05-.1.05.1.7 5.2.45 3.2.65-.4v-3.8m-.4-5.2-.9-.55m1.95 3.4-1.05-2.85m-1.2 11.1v-.3l.1-.25q.2-.7.85-1.15m-1.6-3.4q-.85-.55-1.25-2.6m3.5 5.6v.8l-.2.4q-.2.65.85 1.45 1.05.85 2.75 1.3l1.2.25.85.05h.2l.75-.05q1.1-.15 1.45-.65l.05-.2.05-.3.25-.9.2-.55 1-3.3m-12.65 1.6q.55 2.15 1.65 2.2-.05 1.05 1.1 2.15h.05q1.3 1.3 3.5 1.8l2.2.15 1.35-.25.3-.1.4-.15.7-.35m-9.1-8.15q-.65.15-1.15-.2m-1 6.25v-3.35l-.1-3.1q-.45-1.5-1.4-1.75m19.35.5-1.65-1.5-2.05-.25-1.5-.15-1.65-.2-1.25.75m8.15.2-.05 1.15-.4 1.9m-5.6-.1v-.05m-.2 4.3.9.15 2.9-.25m-4 .65.5.85.2.7-.05.4-.5.95-.35.3m6.6-4.2v-.1l-.15-.9-.65-.85-.15.9v.3q-.15.65-1.4 1h-.05m1.6-2.2.4-1.85m.4 3.7q-.2 1.05-1.55 1.75m-16.75-12.2-.2-.7m16 18-.1.8-1.05-.3-.45-.2 1.4 1.3.4.65m.35-7.1q-1.5.7-3.45.6l-.3-.05M78.3 43.9l.05-.35M76.25 48q.7.2 1.2-.25l.3-1.35.55-2.5 2.9 2.65q-.55-.95-.75-1.7-.3-1.2.25-1.95.75.6 1.95 1.05m-4.1-1.35-.2.95m1.1-2.2q.4.9 1.25 1.55m-1.95-1.3-.2 1m0 5.3.45.8-.6 2.4h-1.7l-.6 2.8m6.85-6.3-1.75-1.05m3.55 1.2q.1-1-.3-1.85m-1.5 1.7.8.2M71.7 39.9l-.25 1.1H70.3l-.55.95-.85-1.1m-.3 6.1q.95 1.15 1.85-1.15l-.9-2.1q-.25-.75.2-1.75m.65.75q-.45.15-.85 1m1.5-.85q-.35-.3-.65-.15m3 4.7q-.15-1-.9-2.65l-1.45-1.9.4-1.85m-2.85 5.95-.05.85m.15-2.45-.1 1.6m1.6.1.25-1.25 2.6 2.9q.55-.2.35-1.3m3.95 2-.2-.3q-.5-.7-1.4-1.25l-.5-.35q-1.2-.8-2.75-2.75M69.8 49l.4-1.95m5.75 4.05h-.7l-2.2-2.4m5.5-.8-.8-1.5m-2 1.45.5.15m.45 3.1h-.75m1.4-1.7q.45.8.3 1.7m-13.5-1.9-.4.2m4 1.2q-.75-.1-1.2-1.05l-.15-.35-.2-.9-.25.1-.15 1m.25-1.95.15.85m-9.75 3.5q-1.7-4.9-4.65-9.85l-14.35-7.4-3.95-2.95M14 19.65l-1.95.55L11 21.75V41.9m4.7-9.6.95-.7.4-4.35-1.05-.5m-2.35 4.6-.9-.45m7.95 17.35.05-1.35-3.3-2-1.35-.85v-5.1l-1.6-.85-.65-.35-.2-6.4 2.05.95m5.55-.3.1-2.85-4.3-1.9M23.9 39.9l.3-3.85-1.5-.6-1.55-.65.1-2.8m2.65 7.9-.3 3.8-.1 1.4m-2.6-1.75-.15 3.55m14.2-16.85-3-.6-.95.35 2.5 1.8M31 29.8l-1.9.7q-1.9 11.65-1.25 23.35l1.65 1m3.4-25.8-.95.4m-4.1 24.4.05.8m-7-11.3 1.15-.75 1.55 1.1" fill="none" stroke="#000" stroke-linecap="round" stroke-linejoin="round" stroke-opacity=".4" stroke-width=".5"/><path d="M30.4-23.15q2.8-2.2 6.2-.35m3.7 6.3q-2.75-1.3-5.6-.25-4.45 1.15-4.6 7.7" fill="none" stroke="#006" stroke-linecap="round" stroke-linejoin="round" stroke-opacity=".702" transform="translate(47.6 38.65)"/><path d="M83.05 29.45q.85-2.2 2.7-1.35 1.7.7 1.05 1.95m-.45 3.05q2.55.45 3-2.75-.45-3.15-2.85-3.9-3.7-1-4.95 2.85m9.3 2.65.6-3.25q-1.85-5.8-6.6-4.35-4.2.65-4.95 4.75m6.7 6.7q3.1-.6 4.25-3.85" fill="none" stroke="#755526" stroke-linecap="round" stroke-linejoin="round" stroke-opacity=".498" stroke-width=".5"/></g><g id="b" fill-rule="evenodd"><path d="M5.15-13.45q2.1-1.2 3.2.2l-2.2 22q-3.1 3.15-4.85 0L2.75-10.7l1.8-.35.6-2.4" fill="url(#H)" transform="translate(8.35 14)"/><path d="M1.15-7.8-3.2 12.6q-3.25 3.3-5.15-1.2l4.75-22.55 1.45 1.5L.45-8.5l.7.7" fill="url(#I)" transform="translate(8.35 14)"/></g><path d="M30.25-25.4q2.9-1.75 5.8.45l.55 1.45q1.2 3 3.7 6.3l1.8 2.1-.05.05.45.25.35.45q1.6 1.75 1.75 5.3-.6 12 2.7 23-.75 1.5-4.35-4.25L41.9 5.95l-.6 1.95-3.7-8-.15.1-.25.15L36.65 5 38 6.5q.75 1.25-.15 2.1l-.7.5-1 .05-2.7 23.65q-1.75 2.65-4.3 2.1-1.85-.55-2.3-2.35l-.1-.85 1.75-16.45-4.6 21.35q-2.05 2.5-4.65 1.5-2.15-1.05-2.1-3.75l5.05-24q-.95.35-1.25-1.2l-.05.55q-.2 1.5-.75 2.25-.6.75-1.65.65-2-.35-2.35-1.85-2.7 1.1-5.8 2l-1.5.4q1.05 3.2 1.55 6.35v2.45q-2.6 6.4-7.55 11.8h-3.6l-7.8-11.55L-9.9 21l-8.2-4.8-.65.5-3.1.65L-35 8.65l-1.6-1.6v-3.8q-5.5-2.75-8.7-7.8Q-47-6.4-46.4-9.1q1-8.35-.7-18.5-.6-2.05.35-3.8 3.8-3.75 17.95-5.1l22.45-1.85Q16.6-38.9 25.2-32.6q4.3 2.9 5.05 7.2M8.7-16.75q-10.75-1.05-18.3.05-1.45-1.5-2.8.5-3.8.8-6.65 2.25l4.45 1.5 1.95 1.25v2.6Q-6.8-7.55-1.3-7.45l.95.95L1-7.75q8.3-.95 13.95-2.8l1-2.7.7-.6q-2.9-1.65-7.95-2.9" fill="none" stroke="#000" stroke-linecap="round" stroke-linejoin="round" stroke-opacity=".388" transform="translate(47.85 38.9)" id="c"/></defs></svg>