<svg viewBox="0 0 110.13 79.965" xmlns="http://www.w3.org/2000/svg" xmlns:xlink="http://www.w3.org/1999/xlink"><use transform="translate(.02) scale(.6559)" width="167.9" height="121.9" xlink:href="#a"/><defs><linearGradient id="c" x1="-819.2" x2="819.2" gradientTransform="matrix(.0153 0 0 .0358 -36.75 -30.3)" gradientUnits="userSpaceOnUse"><stop stop-color="#cfc77c" offset="0"/><stop stop-color="#a39843" offset=".992"/></linearGradient><linearGradient id="d" x1="-819.2" x2="819.2" gradientTransform="matrix(.005 0 0 .0192 -44.95 -31.15)" gradientUnits="userSpaceOnUse"><stop stop-color="#cfc77c" offset="0"/><stop stop-color="#a39843" offset=".992"/></linearGradient><linearGradient id="e" x1="-819.2" x2="819.2" gradientTransform="matrix(.0148 0 0 .02 -53.85 -34.1)" gradientUnits="userSpaceOnUse"><stop stop-color="#cfc77c" offset="0"/><stop stop-color="#a39843" offset=".992"/></linearGradient><linearGradient id="f" x1="-819.2" x2="819.2" gradientTransform="matrix(.0184 0 0 .0174 -55.15 -23.05)" gradientUnits="userSpaceOnUse"><stop stop-color="#cfc77c" offset="0"/><stop stop-color="#a39843" offset=".992"/></linearGradient><linearGradient id="g" x1="-819.2" x2="819.2" gradientTransform="matrix(.0144 0 0 .0212 -54.8 -31.45)" gradientUnits="userSpaceOnUse"><stop stop-color="#cfc77c" offset="0"/><stop stop-color="#a39843" offset=".992"/></linearGradient><linearGradient id="h" x1="-819.2" x2="819.2" gradientTransform="matrix(.0148 0 0 .0105 -55.15 -6.3)" gradientUnits="userSpaceOnUse"><stop stop-color="#cfc77c" offset="0"/><stop stop-color="#a39843" offset=".992"/></linearGradient><linearGradient id="i" x1="-819.2" x2="819.2" gradientTransform="matrix(.0035 .002 -.001 .0018 -59.8 -2.5)" gradientUnits="userSpaceOnUse"><stop stop-color="#543201" offset="0"/><stop stop-color="#653d01" offset=".992"/></linearGradient><linearGradient id="j" x1="-819.2" x2="819.2" gradientTransform="matrix(.0145 0 0 .0159 -48.1 -5.4)" gradientUnits="userSpaceOnUse"><stop stop-color="#cfc77c" offset="0"/><stop stop-color="#a39843" offset=".992"/></linearGradient><linearGradient id="k" x1="-819.2" x2="819.2" gradientTransform="matrix(.008 0 0 .0033 -47.55 -1.8)" gradientUnits="userSpaceOnUse"><stop stop-color="#cfc77c" offset="0"/><stop stop-color="#a39843" offset=".992"/></linearGradient><linearGradient id="l" x1="-819.2" x2="819.2" gradientTransform="matrix(.0038 .0022 -.0015 .0026 -49.2 2.8)" gradientUnits="userSpaceOnUse"><stop stop-color="#543201" offset="0"/><stop stop-color="#653d01" offset=".992"/></linearGradient><linearGradient id="m" x1="-819.2" x2="819.2" gradientTransform="matrix(.0035 .013 -.0161 .0043 -27.65 21.65)" gradientUnits="userSpaceOnUse"><stop stop-color="#bb8e4d" offset="0"/><stop stop-color="#bd8853" offset="1"/></linearGradient><linearGradient id="n" x1="-819.2" x2="819.2" gradientTransform="matrix(0 -.0063 .0409 0 3.85 -16.7)" gradientUnits="userSpaceOnUse"><stop stop-color="#543201" offset="0"/><stop stop-color="#653d01" offset=".992"/></linearGradient><linearGradient id="o" x1="-819.2" x2="819.2" gradientTransform="matrix(.017 .017 -.0261 .0261 .45 7.4)" gradientUnits="userSpaceOnUse"><stop stop-color="#cdb37a" offset="0"/><stop stop-color="#cba473" offset="1"/></linearGradient><linearGradient id="p" x1="-819.2" x2="819.2" gradientTransform="matrix(.0042 0 0 .0026 0 -11.35)" gradientUnits="userSpaceOnUse"><stop stop-color="#d8e17b" offset="0"/><stop stop-color="#95951e" offset=".992"/></linearGradient><linearGradient id="q" x1="-819.2" x2="819.2" gradientTransform="matrix(.0022 0 0 .0009 2.95 -14.65)" gradientUnits="userSpaceOnUse"><stop stop-color="#d8e17b" offset="0"/><stop stop-color="#95951e" offset=".992"/></linearGradient><linearGradient id="r" x1="-819.2" x2="819.2" gradientTransform="matrix(.0048 0 0 .0026 -5.55 -5.3)" gradientUnits="userSpaceOnUse"><stop stop-color="#d8e17b" offset="0"/><stop stop-color="#95951e" offset=".992"/></linearGradient><linearGradient id="s" x1="-819.2" x2="819.2" gradientTransform="matrix(-.0002 .0013 -.0043 -.0006 -8.65 -4)" gradientUnits="userSpaceOnUse"><stop stop-color="#bb8e4d" offset="0"/><stop stop-color="#bd8853" offset="1"/></linearGradient><linearGradient id="t" x1="-819.2" x2="819.2" gradientTransform="matrix(-.0004 .0024 -.0061 -.0009 1.6 -8.45)" gradientUnits="userSpaceOnUse"><stop stop-color="#bb8e4d" offset="0"/><stop stop-color="#bd8853" offset="1"/></linearGradient><linearGradient id="u" x1="-819.2" x2="819.2" gradientTransform="matrix(-.0002 .0011 -.0038 -.0005 -4.05 -10.25)" gradientUnits="userSpaceOnUse"><stop stop-color="#bb8e4d" offset="0"/><stop stop-color="#bd8853" offset="1"/></linearGradient><linearGradient id="v" x1="-819.2" x2="819.2" gradientTransform="matrix(-.0002 .0011 -.0043 -.0007 -1.8 -3.15)" gradientUnits="userSpaceOnUse"><stop stop-color="#bb8e4d" offset="0"/><stop stop-color="#bd8853" offset="1"/></linearGradient><linearGradient id="w" x1="-819.2" x2="819.2" gradientTransform="matrix(-.0004 .0023 -.0009 -.0001 -5.35 -1.6)" gradientUnits="userSpaceOnUse"><stop stop-color="#bb8e4d" offset="0"/><stop stop-color="#bd8853" offset="1"/></linearGradient><linearGradient id="x" x1="-819.2" x2="819.2" gradientTransform="matrix(.0071 0 0 .0151 38.05 -12.6)" gradientUnits="userSpaceOnUse"><stop stop-color="#cfc77c" offset="0"/><stop stop-color="#a39843" offset=".992"/></linearGradient><linearGradient id="y" x1="-819.2" x2="819.2" gradientTransform="matrix(.0241 0 0 .0229 55.45 -22.8)" gradientUnits="userSpaceOnUse"><stop stop-color="#cfc77c" offset="0"/><stop stop-color="#a39843" offset=".992"/></linearGradient><linearGradient id="z" x1="-819.2" x2="819.2" gradientTransform="matrix(.0024 0 0 .0072 31.1 -12.8)" gradientUnits="userSpaceOnUse"><stop stop-color="#cfc77c" offset="0"/><stop stop-color="#a39843" offset=".992"/></linearGradient><linearGradient id="A" x1="-819.2" x2="819.2" gradientTransform="matrix(.0105 0 0 .0106 44.1 -7.8)" gradientUnits="userSpaceOnUse"><stop stop-color="#cfc77c" offset="0"/><stop stop-color="#a39843" offset=".992"/></linearGradient><linearGradient id="B" x1="-819.2" x2="819.2" gradientTransform="matrix(.0202 0 0 .0158 63.2 -21)" gradientUnits="userSpaceOnUse"><stop stop-color="#cfc77c" offset="0"/><stop stop-color="#a39843" offset=".992"/></linearGradient><linearGradient id="C" x1="-819.2" x2="819.2" gradientTransform="matrix(.0213 0 0 .0089 58.2 -5.2)" gradientUnits="userSpaceOnUse"><stop stop-color="#cfc77c" offset="0"/><stop stop-color="#a39843" offset=".992"/></linearGradient><linearGradient id="D" x1="-819.2" x2="819.2" gradientTransform="matrix(.0154 0 0 .0033 48.9 2.4)" gradientUnits="userSpaceOnUse"><stop stop-color="#cfc77c" offset="0"/><stop stop-color="#a39843" offset=".992"/></linearGradient><linearGradient id="E" x1="-819.2" x2="819.2" gradientTransform="matrix(.0179 0 0 .007 57.85 -6.75)" gradientUnits="userSpaceOnUse"><stop stop-color="#cfc77c" offset="0"/><stop stop-color="#a39843" offset=".992"/></linearGradient><linearGradient id="F" x1="-819.2" x2="819.2" gradientTransform="matrix(.0141 0 0 .0128 59.55 -15.2)" gradientUnits="userSpaceOnUse"><stop stop-color="#cfc77c" offset="0"/><stop stop-color="#a39843" offset=".992"/></linearGradient><linearGradient id="G" x1="-819.2" x2="819.2" gradientTransform="matrix(.0089 0 0 .0084 67.75 -16.05)" gradientUnits="userSpaceOnUse"><stop stop-color="#cfc77c" offset="0"/><stop stop-color="#a39843" offset=".992"/></linearGradient><linearGradient id="H" x1="-819.2" x2="819.2" gradientTransform="matrix(.0026 .0098 -.0054 .0014 75.8 12.4)" gradientUnits="userSpaceOnUse"><stop stop-color="#b07700" offset="0"/><stop stop-color="#b76f04" offset=".992"/></linearGradient><linearGradient id="I" x1="-819.2" x2="819.2" gradientTransform="matrix(-.0013 .0049 -.001 -.0003 70.95 -1.5)" gradientUnits="userSpaceOnUse"><stop stop-color="#543201" offset="0"/><stop stop-color="#653d01" offset=".992"/></linearGradient><linearGradient id="J" x1="-819.2" x2="819.2" gradientTransform="matrix(-.0177 .0199 -.0112 -.0099 49.2 14.1)" gradientUnits="userSpaceOnUse"><stop stop-color="#543201" offset="0"/><stop stop-color="#653d01" offset=".992"/></linearGradient><linearGradient id="K" x1="-819.2" x2="819.2" gradientTransform="matrix(.0026 0 0 .001 79.95 47.5)" gradientUnits="userSpaceOnUse"><stop stop-color="#aca042" offset="0"/><stop stop-color="#756d2d" offset=".992"/></linearGradient><linearGradient id="L" x1="-819.2" x2="819.2" gradientTransform="matrix(.0054 0 0 .0026 77.95 46.9)" gradientUnits="userSpaceOnUse"><stop stop-color="#7a7930" offset="0"/><stop stop-color="#95951e" offset=".992"/></linearGradient><linearGradient id="M" x1="-819.2" x2="819.2" gradientTransform="matrix(.015 .0087 -.0062 .0107 74.25 38.4)" gradientUnits="userSpaceOnUse"><stop stop-color="#e6e2b9" offset="0"/><stop stop-color="#d0c884" offset=".992"/></linearGradient><linearGradient id="N" x1="-819.2" x2="819.2" gradientTransform="matrix(.0018 .0007 -.0009 .0023 79.5 55.3)" gradientUnits="userSpaceOnUse"><stop stop-color="#aca042" offset="0"/><stop stop-color="#756d2d" offset=".992"/></linearGradient><linearGradient id="O" x1="-819.2" x2="819.2" gradientTransform="matrix(.0054 0 0 .0026 77.35 53.75)" gradientUnits="userSpaceOnUse"><stop stop-color="#7a7930" offset="0"/><stop stop-color="#95951e" offset=".992"/></linearGradient><linearGradient id="P" x1="-819.2" x2="819.2" gradientTransform="matrix(-.0032 .0118 -.0194 -.0052 59.25 24.75)" gradientUnits="userSpaceOnUse"><stop stop-color="#960" offset="0"/><stop stop-color="#653d01" offset=".992"/></linearGradient><linearGradient id="Q" x1="-819.2" x2="819.2" gradientTransform="matrix(.0055 0 0 .0038 63 26.1)" gradientUnits="userSpaceOnUse"><stop stop-color="#7a7930" offset="0"/><stop stop-color="#95951e" offset=".992"/></linearGradient><linearGradient id="R" x1="-819.2" x2="819.2" gradientTransform="matrix(.0032 0 0 .0013 59.7 23.6)" gradientUnits="userSpaceOnUse"><stop stop-color="#aca042" offset="0"/><stop stop-color="#756d2d" offset=".992"/></linearGradient><linearGradient id="S" x1="-819.2" x2="819.2" gradientTransform="matrix(.0088 .0152 -.0085 .0049 65.9 39.55)" gradientUnits="userSpaceOnUse"><stop stop-color="#cdb37a" offset="0"/><stop stop-color="#cba473" offset="1"/></linearGradient><linearGradient id="T" x1="-819.2" x2="819.2" gradientTransform="matrix(.0035 .0132 -.0095 .0025 63.35 43)" gradientUnits="userSpaceOnUse"><stop stop-color="#bb8e4d" offset="0"/><stop stop-color="#bd8853" offset="1"/></linearGradient><linearGradient id="U" x1="-819.2" x2="819.2" gradientTransform="matrix(.0005 .0019 -.0033 .0009 61.65 27.95)" gradientUnits="userSpaceOnUse"><stop stop-color="#bb8e4d" offset="0"/><stop stop-color="#bd8853" offset="1"/></linearGradient><linearGradient id="V" x1="-819.2" x2="819.2" gradientTransform="matrix(-.0018 .0069 -.0042 -.0011 51.15 36)" gradientUnits="userSpaceOnUse"><stop stop-color="#543201" offset="0"/><stop stop-color="#653d01" offset=".992"/></linearGradient><linearGradient id="W" x1="-819.2" x2="819.2" gradientTransform="matrix(.0069 0 0 .0038 69.8 33.05)" gradientUnits="userSpaceOnUse"><stop stop-color="#7a7930" offset="0"/><stop stop-color="#95951e" offset=".992"/></linearGradient><linearGradient id="X" x1="-819.2" x2="819.2" gradientTransform="matrix(.0028 0 0 .0013 72.8 32.6)" gradientUnits="userSpaceOnUse"><stop stop-color="#aca042" offset="0"/><stop stop-color="#756d2d" offset=".992"/></linearGradient><linearGradient id="Y" x1="-819.2" x2="819.2" gradientTransform="matrix(.0021 0 0 .0025 73.1 35.45)" gradientUnits="userSpaceOnUse"><stop stop-color="#aca042" offset="0"/><stop stop-color="#756d2d" offset=".992"/></linearGradient><linearGradient id="Z" x1="-819.2" x2="819.2" gradientTransform="matrix(.0005 .002 -.0046 .0012 67.7 35.05)" gradientUnits="userSpaceOnUse"><stop stop-color="#bb8e4d" offset="0"/><stop stop-color="#bd8853" offset="1"/></linearGradient><linearGradient id="aa" x1="-819.2" x2="819.2" gradientTransform="matrix(.0026 0 0 .0011 65.4 25.45)" gradientUnits="userSpaceOnUse"><stop stop-color="#aca042" offset="0"/><stop stop-color="#756d2d" offset=".992"/></linearGradient><linearGradient id="ab" x1="-819.2" x2="819.2" gradientTransform="matrix(.0036 0 0 .0031 67.05 28.55)" gradientUnits="userSpaceOnUse"><stop stop-color="#aca042" offset="0"/><stop stop-color="#756d2d" offset=".992"/></linearGradient><linearGradient id="ac" x1="-819.2" x2="819.2" gradientTransform="matrix(.0004 .0014 -.0034 .0009 72.75 41.05)" gradientUnits="userSpaceOnUse"><stop stop-color="#bb8e4d" offset="0"/><stop stop-color="#bd8853" offset="1"/></linearGradient><linearGradient id="ad" x1="-819.2" x2="819.2" gradientTransform="matrix(.0058 0 0 .0031 74.4 39.55)" gradientUnits="userSpaceOnUse"><stop stop-color="#7a7930" offset="0"/><stop stop-color="#95951e" offset=".992"/></linearGradient><linearGradient id="ae" x1="-819.2" x2="819.2" gradientTransform="matrix(.0032 0 0 .0013 77.65 39.55)" gradientUnits="userSpaceOnUse"><stop stop-color="#aca042" offset="0"/><stop stop-color="#756d2d" offset=".992"/></linearGradient><linearGradient id="af" x1="-819.2" x2="819.2" gradientTransform="matrix(.0014 0 0 .0027 76.8 42.8)" gradientUnits="userSpaceOnUse"><stop stop-color="#aca042" offset="0"/><stop stop-color="#756d2d" offset=".992"/></linearGradient><linearGradient id="ag" x1="-819.2" x2="819.2" gradientTransform="matrix(.0003 .0013 -.0029 .0008 75.8 48.8)" gradientUnits="userSpaceOnUse"><stop stop-color="#bb8e4d" offset="0"/><stop stop-color="#bd8853" offset="1"/></linearGradient><linearGradient id="ah" x1="-819.2" x2="819.2" gradientTransform="matrix(.0007 0 0 .0031 78.7 50.8)" gradientUnits="userSpaceOnUse"><stop stop-color="#aca042" offset="0"/><stop stop-color="#756d2d" offset=".992"/></linearGradient><linearGradient id="ai" x1="-819.2" x2="819.2" gradientTransform="matrix(-.0026 .0169 -.0116 -.0018 32.35 22.65)" gradientUnits="userSpaceOnUse"><stop stop-color="#bb8e4d" offset="0"/><stop stop-color="#bd8853" offset="1"/></linearGradient><linearGradient id="aj" x1="-819.2" x2="819.2" gradientTransform="rotate(120 7.843 12.083) scale(.0044 .0022)" gradientUnits="userSpaceOnUse"><stop stop-color="#d8e17b" offset="0"/><stop stop-color="#95951e" offset=".992"/></linearGradient><linearGradient id="ak" x1="-819.2" x2="819.2" gradientTransform="matrix(-.0009 .0061 -.0016 -.0002 23.5 11.95)" gradientUnits="userSpaceOnUse"><stop stop-color="#bb8e4d" offset="0"/><stop stop-color="#bd8853" offset="1"/></linearGradient><linearGradient id="al" x1="-819.2" x2="819.2" gradientTransform="matrix(.0053 .0093 -.0022 .0013 18.7 15.15)" gradientUnits="userSpaceOnUse"><stop stop-color="#d8e17b" offset="0"/><stop stop-color="#95951e" offset=".992"/></linearGradient><linearGradient id="am" x1="-819.2" x2="819.2" gradientTransform="matrix(-.0009 .0061 -.0055 -.0008 14.7 11.35)" gradientUnits="userSpaceOnUse"><stop stop-color="#bb8e4d" offset="0"/><stop stop-color="#bd8853" offset="1"/></linearGradient><linearGradient id="an" x1="-819.2" x2="819.2" gradientTransform="matrix(.0018 -.0018 .0012 .0012 15.55 20.9)" gradientUnits="userSpaceOnUse"><stop stop-color="#d8e17b" offset="0"/><stop stop-color="#95951e" offset=".992"/></linearGradient><linearGradient id="ao" x1="-819.2" x2="819.2" gradientTransform="matrix(-.0009 .0059 -.0087 -.0013 18.95 23.45)" gradientUnits="userSpaceOnUse"><stop stop-color="#bb8e4d" offset="0"/><stop stop-color="#bd8853" offset="1"/></linearGradient><linearGradient id="ap" x1="-819.2" x2="819.2" gradientTransform="matrix(-.0011 .0041 -.0026 -.0007 14.8 37)" gradientUnits="userSpaceOnUse"><stop stop-color="#d8e17b" offset="0"/><stop stop-color="#95951e" offset=".992"/></linearGradient><linearGradient id="aq" x1="-819.2" x2="819.2" gradientTransform="matrix(0 .0064 -.0034 0 3.1 35.85)" gradientUnits="userSpaceOnUse"><stop stop-color="#d8e17b" offset="0"/><stop stop-color="#95951e" offset=".992"/></linearGradient><linearGradient id="ar" x1="-819.2" x2="819.2" gradientTransform="matrix(-.0002 .0017 -.0069 -.001 -2.75 35)" gradientUnits="userSpaceOnUse"><stop stop-color="#a0783d" offset="0"/><stop stop-color="#805933" offset="1"/></linearGradient><linearGradient id="as" x1="-819.2" x2="819.2" gradientTransform="matrix(.0031 0 0 .0045 4.25 39.45)" gradientUnits="userSpaceOnUse"><stop stop-color="#aca042" offset="0"/><stop stop-color="#756d2d" offset=".992"/></linearGradient><linearGradient id="at" x1="-819.2" x2="819.2" gradientTransform="matrix(.0045 0 0 .002 10.45 37.6)" gradientUnits="userSpaceOnUse"><stop stop-color="#aca042" offset="0"/><stop stop-color="#756d2d" offset=".992"/></linearGradient><linearGradient id="au" x1="-819.2" x2="819.2" gradientTransform="matrix(-.0002 .0017 -.0055 -.0007 10.2 36.45)" gradientUnits="userSpaceOnUse"><stop stop-color="#bb8e4d" offset="0"/><stop stop-color="#bd8853" offset="1"/></linearGradient><linearGradient id="av" x1="-819.2" x2="819.2" gradientTransform="matrix(.0201 .0079 -.0051 .0128 .1 45.25)" gradientUnits="userSpaceOnUse"><stop stop-color="#cfc77c" offset="0"/><stop stop-color="#a79c3f" offset=".992"/></linearGradient><linearGradient id="aw" x1="-819.2" x2="819.2" gradientTransform="matrix(.0036 0 0 .0043 14.3 41.95)" gradientUnits="userSpaceOnUse"><stop stop-color="#aca042" offset="0"/><stop stop-color="#756d2d" offset=".992"/></linearGradient><linearGradient id="ax" x1="-819.2" x2="819.2" gradientTransform="matrix(.0036 0 0 .0021 19.8 40.35)" gradientUnits="userSpaceOnUse"><stop stop-color="#aca042" offset="0"/><stop stop-color="#756d2d" offset=".992"/></linearGradient><linearGradient id="ay" x1="-819.2" x2="819.2" gradientTransform="matrix(.0031 .0018 -.0022 .0038 19.6 44.25)" gradientUnits="userSpaceOnUse"><stop stop-color="#e6e2b9" offset="0"/><stop stop-color="#d0c884" offset=".992"/></linearGradient><linearGradient id="az" x1="-819.2" x2="819.2" gradientTransform="matrix(.0034 .002 -.0011 .002 11.7 40.2)" gradientUnits="userSpaceOnUse"><stop stop-color="#e6e2b9" offset="0"/><stop stop-color="#d0c884" offset=".992"/></linearGradient><linearGradient id="aA" x1="-819.2" x2="819.2" gradientTransform="matrix(-.0006 .0023 -.0028 -.0007 23.95 38.4)" gradientUnits="userSpaceOnUse"><stop stop-color="#d8e17b" offset="0"/><stop stop-color="#95951e" offset=".992"/></linearGradient><linearGradient id="aB" x1="-819.2" x2="819.2" gradientTransform="matrix(.0048 0 0 .0032 24.25 44.5)" gradientUnits="userSpaceOnUse"><stop stop-color="#aca042" offset="0"/><stop stop-color="#756d2d" offset=".992"/></linearGradient><linearGradient id="aC" x1="-819.2" x2="819.2" gradientTransform="matrix(.0088 .0152 -.0085 .0049 65.9 39.55)" gradientUnits="userSpaceOnUse"><stop stop-color="#bb8e4d" offset="0"/><stop stop-color="#bd8853" offset="1"/></linearGradient><linearGradient id="aD" x1="-819.2" x2="819.2" gradientTransform="matrix(.0024 .0009 -.0012 .0031 77.45 57.85)" gradientUnits="userSpaceOnUse"><stop stop-color="#7a7930" offset="0"/><stop stop-color="#95951e" offset=".992"/></linearGradient><linearGradient id="aE" x1="-819.2" x2="819.2" gradientTransform="matrix(-.005 .0087 -.0023 -.0013 -20.8 12.2)" gradientUnits="userSpaceOnUse"><stop stop-color="#d8e17b" offset="0"/><stop stop-color="#95951e" offset=".992"/></linearGradient><linearGradient id="aF" x1="-819.2" x2="819.2" gradientTransform="matrix(-.0011 .007 -.0039 -.0006 -17.85 10.5)" gradientUnits="userSpaceOnUse"><stop stop-color="#bb8e4d" offset="0"/><stop stop-color="#bd8853" offset="1"/></linearGradient><linearGradient id="aG" x1="-819.2" x2="819.2" gradientTransform="matrix(-.0006 .0041 -.0075 -.0012 -19.8 21.45)" gradientUnits="userSpaceOnUse"><stop stop-color="#bb8e4d" offset="0"/><stop stop-color="#bd8853" offset="1"/></linearGradient><linearGradient id="aH" x1="-819.2" x2="819.2" gradientTransform="matrix(-.0018 -.0018 .0013 -.0013 -18.7 19.95)" gradientUnits="userSpaceOnUse"><stop stop-color="#d8e17b" offset="0"/><stop stop-color="#95951e" offset=".992"/></linearGradient><linearGradient id="aI" x1="-819.2" x2="819.2" gradientTransform="matrix(-.0009 .0061 -.003 -.0004 -26.75 10.6)" gradientUnits="userSpaceOnUse"><stop stop-color="#bb8e4d" offset="0"/><stop stop-color="#bd8853" offset="1"/></linearGradient><linearGradient id="aJ" x1="-819.2" x2="819.2" gradientTransform="matrix(.0019 .0032 -.0019 .0011 -25.9 9.6)" gradientUnits="userSpaceOnUse"><stop stop-color="#d8e17b" offset="0"/><stop stop-color="#95951e" offset=".992"/></linearGradient><linearGradient id="aK" x1="-819.2" x2="819.2" gradientTransform="matrix(.019 .011 -.0087 .015 -42.3 20.35)" gradientUnits="userSpaceOnUse"><stop stop-color="#543201" offset="0"/><stop stop-color="#653d01" offset=".992"/></linearGradient><linearGradient id="aL" x1="-819.2" x2="819.2" gradientTransform="matrix(0 .0101 -.005 0 -36.65 24.6)" gradientUnits="userSpaceOnUse"><stop stop-color="#a0783d" offset="0"/><stop stop-color="#805933" offset="1"/></linearGradient><linearGradient id="aM" x1="-819.2" x2="819.2" gradientTransform="matrix(.0019 0 0 .0026 -27.45 25.6)" gradientUnits="userSpaceOnUse"><stop stop-color="#a0783d" offset="0"/><stop stop-color="#805933" offset="1"/></linearGradient><linearGradient id="aN" x1="-819.2" x2="819.2" gradientTransform="matrix(.0009 .0033 -.0023 .0006 -21.95 34.1)" gradientUnits="userSpaceOnUse"><stop stop-color="#d8e17b" offset="0"/><stop stop-color="#95951e" offset=".992"/></linearGradient><linearGradient id="aO" x1="-819.2" x2="819.2" gradientTransform="matrix(.0028 0 0 .0017 -25.55 37.05)" gradientUnits="userSpaceOnUse"><stop stop-color="#a0783d" offset="0"/><stop stop-color="#805933" offset="1"/></linearGradient><linearGradient id="aP" x1="-819.2" x2="819.2" gradientTransform="matrix(.0035 0 0 .0041 -21.45 40.05)" gradientUnits="userSpaceOnUse"><stop stop-color="#aca042" offset="0"/><stop stop-color="#756d2d" offset=".992"/></linearGradient><linearGradient id="aQ" x1="-819.2" x2="819.2" gradientTransform="matrix(.0061 0 0 .0021 -15.95 35.25)" gradientUnits="userSpaceOnUse"><stop stop-color="#a0783d" offset="0"/><stop stop-color="#805933" offset="1"/></linearGradient><linearGradient id="aR" x1="-819.2" x2="819.2" gradientTransform="matrix(.0005 .0017 -.0035 .0009 -28.9 33.4)" gradientUnits="userSpaceOnUse"><stop stop-color="#d8e17b" offset="0"/><stop stop-color="#95951e" offset=".992"/></linearGradient><linearGradient id="aS" x1="-819.2" x2="819.2" gradientTransform="matrix(.0031 0 0 .0013 -32.3 38.3)" gradientUnits="userSpaceOnUse"><stop stop-color="#a0783d" offset="0"/><stop stop-color="#805933" offset="1"/></linearGradient><linearGradient id="aT" x1="-819.2" x2="819.2" gradientTransform="matrix(.004 0 0 .0036 -27.1 41.3)" gradientUnits="userSpaceOnUse"><stop stop-color="#aca042" offset="0"/><stop stop-color="#756d2d" offset=".992"/></linearGradient><linearGradient id="aU" x1="-819.2" x2="819.2" gradientTransform="matrix(0 .0043 -.0023 0 -9.1 34.15)" gradientUnits="userSpaceOnUse"><stop stop-color="#d8e17b" offset="0"/><stop stop-color="#95951e" offset=".992"/></linearGradient><linearGradient id="aV" x1="-819.2" x2="819.2" gradientTransform="matrix(-.0002 .0014 -.0035 -.0005 -5.65 33.5)" gradientUnits="userSpaceOnUse"><stop stop-color="#bb8e4d" offset="0"/><stop stop-color="#bd8853" offset="1"/></linearGradient><linearGradient id="aW" x1="-819.2" x2="819.2" gradientTransform="matrix(.0027 0 0 .0049 -9.6 38.9)" gradientUnits="userSpaceOnUse"><stop stop-color="#aca042" offset="0"/><stop stop-color="#756d2d" offset=".992"/></linearGradient><linearGradient id="aX" x1="-819.2" x2="819.2" gradientTransform="matrix(.0074 .0181 -.0044 .0018 -47.35 16.6)" gradientUnits="userSpaceOnUse"><stop stop-color="#960" offset="0"/><stop stop-color="#653d01" offset=".992"/></linearGradient><linearGradient id="aY" x1="-819.2" x2="819.2" gradientTransform="matrix(.0027 .0016 -.0009 .0016 -56.35 7.95)" gradientUnits="userSpaceOnUse"><stop stop-color="#543201" offset="0"/><stop stop-color="#653d01" offset=".992"/></linearGradient><linearGradient id="aZ" x1="-819.2" x2="819.2" gradientTransform="matrix(0 .0052 -.0069 0 -49.05 17.15)" gradientUnits="userSpaceOnUse"><stop stop-color="#960" offset="0"/><stop stop-color="#653d01" offset=".992"/></linearGradient><linearGradient id="ba" x1="-819.2" x2="819.2" gradientTransform="matrix(.0031 0 0 .0034 -53.4 17.55)" gradientUnits="userSpaceOnUse"><stop stop-color="#7a7930" offset="0"/><stop stop-color="#95951e" offset=".992"/></linearGradient><linearGradient id="bb" x1="-819.2" x2="819.2" gradientTransform="matrix(-.0173 .0099 -.0061 -.0107 -70.75 32.05)" gradientUnits="userSpaceOnUse"><stop stop-color="#e6e2b9" offset="0"/><stop stop-color="#d0c884" offset=".992"/></linearGradient><linearGradient id="bc" x1="-819.2" x2="819.2" gradientTransform="matrix(.0037 0 0 .0028 -57.15 18.1)" gradientUnits="userSpaceOnUse"><stop stop-color="#aca042" offset="0"/><stop stop-color="#756d2d" offset=".992"/></linearGradient><linearGradient id="bd" x1="-819.2" x2="819.2" gradientTransform="matrix(-.0148 .0148 -.0057 -.0057 -65.9 35.25)" gradientUnits="userSpaceOnUse"><stop stop-color="#cdb37a" offset="0"/><stop stop-color="#cba473" offset="1"/></linearGradient><linearGradient id="be" x1="-819.2" x2="819.2" gradientTransform="matrix(-.0008 .001 -.0027 -.0021 -52.7 19.35)" gradientUnits="userSpaceOnUse"><stop stop-color="#7a7930" offset="0"/><stop stop-color="#95951e" offset=".992"/></linearGradient><linearGradient id="bf" x1="-819.2" x2="819.2" gradientTransform="matrix(.0012 0 0 .0008 -52.1 15.9)" gradientUnits="userSpaceOnUse"><stop stop-color="#aca042" offset="0"/><stop stop-color="#756d2d" offset=".992"/></linearGradient><linearGradient id="bg" x1="-819.2" x2="819.2" gradientTransform="matrix(-.0008 .001 -.0027 -.0021 -59.3 23.55)" gradientUnits="userSpaceOnUse"><stop stop-color="#bb8e4d" offset="0"/><stop stop-color="#bd8853" offset="1"/></linearGradient><linearGradient id="bh" x1="-819.2" x2="819.2" gradientTransform="matrix(.0035 0 0 .0034 -60.35 21.45)" gradientUnits="userSpaceOnUse"><stop stop-color="#7a7930" offset="0"/><stop stop-color="#95951e" offset=".992"/></linearGradient><linearGradient id="bi" x1="-819.2" x2="819.2" gradientTransform="matrix(-.011 .0139 -.0073 -.0058 -58.35 34.9)" gradientUnits="userSpaceOnUse"><stop stop-color="#bb8e4d" offset="0"/><stop stop-color="#bd8853" offset="1"/></linearGradient><linearGradient id="bj" x1="-819.2" x2="819.2" gradientTransform="matrix(.0041 0 0 .0037 -64.2 23.6)" gradientUnits="userSpaceOnUse"><stop stop-color="#aca042" offset="0"/><stop stop-color="#756d2d" offset=".992"/></linearGradient><linearGradient id="bk" x1="-819.2" x2="819.2" gradientTransform="matrix(.0043 0 0 .0034 -67.65 27.85)" gradientUnits="userSpaceOnUse"><stop stop-color="#7a7930" offset="0"/><stop stop-color="#95951e" offset=".992"/></linearGradient><linearGradient id="bl" x1="-819.2" x2="819.2" gradientTransform="matrix(-.0007 .0009 -.0022 -.0018 -66.5 29.85)" gradientUnits="userSpaceOnUse"><stop stop-color="#bb8e4d" offset="0"/><stop stop-color="#bd8853" offset="1"/></linearGradient><linearGradient id="bm" x1="-819.2" x2="819.2" gradientTransform="matrix(.0023 0 0 .0011 -69.85 27.9)" gradientUnits="userSpaceOnUse"><stop stop-color="#aca042" offset="0"/><stop stop-color="#756d2d" offset=".992"/></linearGradient><linearGradient id="bn" x1="-819.2" x2="819.2" gradientTransform="matrix(.0031 0 0 .003 -71.35 31)" gradientUnits="userSpaceOnUse"><stop stop-color="#aca042" offset="0"/><stop stop-color="#756d2d" offset=".992"/></linearGradient><linearGradient id="bo" x1="-819.2" x2="819.2" gradientTransform="matrix(.0027 0 0 .0053 -76.3 37.65)" gradientUnits="userSpaceOnUse"><stop stop-color="#aca042" offset="0"/><stop stop-color="#756d2d" offset=".992"/></linearGradient><linearGradient id="bp" x1="-819.2" x2="819.2" gradientTransform="matrix(.0049 0 0 .0034 -74.45 34.45)" gradientUnits="userSpaceOnUse"><stop stop-color="#7a7930" offset="0"/><stop stop-color="#95951e" offset=".992"/></linearGradient><linearGradient id="bq" x1="-819.2" x2="819.2" gradientTransform="matrix(-.0007 .0009 -.0018 -.0014 -73.15 36.55)" gradientUnits="userSpaceOnUse"><stop stop-color="#bb8e4d" offset="0"/><stop stop-color="#bd8853" offset="1"/></linearGradient><linearGradient id="br" x1="-819.2" x2="819.2" gradientTransform="matrix(.0041 0 0 .0043 -77.6 42.45)" gradientUnits="userSpaceOnUse"><stop stop-color="#7a7930" offset="0"/><stop stop-color="#95951e" offset=".992"/></linearGradient><linearGradient id="bs" x1="-819.2" x2="819.2" gradientTransform="matrix(.002 0 0 .0033 -79.2 43.05)" gradientUnits="userSpaceOnUse"><stop stop-color="#aca042" offset="0"/><stop stop-color="#756d2d" offset=".992"/></linearGradient><linearGradient id="bt" x1="-819.2" x2="819.2" gradientTransform="matrix(-.0008 .0009 -.002 -.0016 -76.15 45.8)" gradientUnits="userSpaceOnUse"><stop stop-color="#bb8e4d" offset="0"/><stop stop-color="#bd8853" offset="1"/></linearGradient><linearGradient id="bu" x1="-819.2" x2="819.2" gradientTransform="matrix(.0039 .0015 -.0007 .0018 -77.65 48.25)" gradientUnits="userSpaceOnUse"><stop stop-color="#7a7930" offset="0"/><stop stop-color="#95951e" offset=".992"/></linearGradient><linearGradient id="bv" x1="-819.2" x2="819.2" gradientTransform="scale(.1019 .0738)" gradientUnits="userSpaceOnUse"><stop stop-color="#330" stop-opacity=".153" offset="0"/><stop stop-color="#a99701" stop-opacity=".102" offset=".992"/></linearGradient><use width="167.9" height="121.9" xlink:href="#b" id="a"/><g id="b"><path d="m37.35-22.4.6-2.55h.55l-3.65 17-2.65 4.2-.05-3.1.75-1.25.2-.4.35-.6-.35.6-.65-5.9q-.8-2.8-2.15-4.3l1.1-1.05q2.7 4.3 2.05 10.65l1.3-2.25 2.6-11.05m3.05.45q1.3-2.4 2.75-4.5 2.8-4.3 6-7.45l.5.4-3.8 4.65L39.9-17.8v-3.25l.5-.9m-68.25 1.4 1.95-3.35.45.25L-30-14.8l-1.95 7.1-.35-5.3-2.9-6.65 2.4 2.15 1.3-4.55.55 6.85 2.55-4.4.55-.95M35.7-7.4l5.95-10.45 1.05.7h.05L35.7-3.25V-7.4m3.5 1.95q6.5-5.65 10.15-11l1.2 1L46-8.95l-6.8 5.5v-2m12.2-13.1 1.3-1 4.55-3.3q5.55-3.75 11.4-6.2 6.75-1.9 9.95-5.8l.55.9-9.5 6.6-8.35 4.25-8.65 8.85.45-2.65-1.7-1.65M52.25-9 45.2-5.05 40.15-2.8 46.7-8l4.3-2.8.85 1.2.4.6m-5.2-16.55 18.3-13.25 7.85-3.7 1 .9-7.5 3.2-6 4.5-16 16.55v-3.55l1.25-3.9 1.1-.75m24.1 1.15-3.7 4.95-2.5 3.35v.05l-.35.4-1.65 1.6 1.65-1.6.45-.35 3.7-3 5.75-4.65.3.75L60.45-9.2 55.9-7.15l4.55-2.05 4.4-2.3 3.8-2.2 1.85-1.2 1.35 2.4-6.65 4.15-13 3.65.45-1.25 3.25-1.2 7.05-6.9L54.4-9.4l6.05-6.7 10.7-8.3M-66.4-14.9l.85-1.25 5.6 3.6 3.15 2.05 3.8 1.7q1.3 1.1 2.75 2.05Q-47.3-4.85-44-3.5l5.5-.3-10.45-4.8-9.9-8.7 1.05-1.15 1.7 1.15 4.65 2.85q5.65 3.2 11.35 4.9L-36.25-1l-.4.7-6.8 4.8-6.1 1.95-6.65-1-.4-1q4.75.65 8.2-.6l1.3-.55 1.75-1L-43 .95l2-1.15-5.2-.85-7.9-3.45v-.7l-3.85-.3 2.2-2.1-3.1-1.05-7.55-6.25m-3.1-22.35.65-1.05q6.45 12.4 16.35 19.35l.3.2 4.6 2.8 1 .45.25.15-.2.05.45 2.2-13-7.4h-1.6l-1.5-1.6-7.3-15.15m3.55-11.6 1.15-1.65q3.15 9.4 9.15 18.25l4.9 6.45q2.5 2.85 4.9 4.8l1.85 1.35 1.85.65.4 1.1-3.1.2-6.45-4.35-9.3-14.6-5.35-12.2m6.65.65.95-.55q6 6.05 11.1 16.6l.55 5.95-1.05.8-4.45-11.05q-2.75-6.35-7.1-11.75m11 1.35h1.8l.6 4.15q.95 4.85 3 8.9l-1.4 1.05-.45 3.8-3.1-10.6-.45-7.3m3.55 3.7 1.35-.55 1.9 7.25-3.25-6.7m-3.5-16.45.95-.85q5.7 8.15 10.5 18.85l-.1 7.6-6.55-17.15-4.8-8.45m10.7 10.15 1.15-.5q3.55 7.4 5.55 15.2l-1.6 8.5-2.15-14.65-2.95-8.55m6.8 6.1h.75q2.9 7.1 2.7 14.2l-2 4.55v-11.7l-1.45-7.05M50.3-2.95 64.8-6.3q4.45-.9 7.75-4.9l2.15-3.1.8 1.8-5 5.4-11.3 5.05-3 .9 1.5-2.4-5.95 1.25-1.45-.65M42.75-.2q6 .2 12-1.25l-1.9 3.55H63.5l-2 1.25L45.85 3l1.95-1.85-7.55.7 2.5-2.05M66.8 23q-2.3-.05-4.5 1.2l-4.25-1.7 1.7-1q3.75-.05 7.15 1.2l-.1.3M40.75 5.95l-.05-.2.2.1-.15.1M75.1 31.5h-.05.05m-3.75 2.2h.05-.05m4.3 7-.05-.1h.25l-.2.1m-117.6-72.75 1.05-.6q.95 5.2 2.25 9.45l1.6 4.7 1.2 2.75 2.6 4.95-1.5 1.5-5.05-11.25-2.15-11.5M-54.1-5.2v-.65L-44-3.5l-10.1-2.35v.65m-5.3 25.55.2.25-.05-.05-.15-.2m-11.25 6.7V27v.05" fill="#e6e2b9" fill-rule="evenodd" transform="translate(83.95 60.95)"/><path d="m-27.65-26.05-.65 5.6-.1.85-2.55 4.4-.55-6.85-1.3 4.55-2.4-2.15 2.9 6.65.35 5.3 1.95-7.1 4.55-8.85 1.25.7-1.25 1.95q-2.5 4.15-4.15 10.7l.05 2.05v2.05l-5.1 2.5-1.6 2.7-3.85-8.55-.75-5.85L-43-31.5l1.05-.55-.95-1.75q-2.05-4.05-3-8.9l1.1-.4.05-.05 3.25 6.7-1.9-7.25.75-.3q-2.5-8.15-6.6-14.7l1-.9 4.8 8.45L-36.9-34l.1-7.6 1.5 3.5q-1.1-6.3-3.45-10.85l1.2-.5 2.95 8.55 2.15 14.65 1.6-8.5.7 3.05q.15-5.65-1.4-11.65h.8l1.45 7.05v11.7l2-4.55-.35 3.1m-13.25-6.6-1.05.6 2.15 11.5 5.05 11.25 1.5-1.5-2.6-4.95-1.2-2.75-1.6-4.7q-1.3-4.25-2.25-9.45m7.2 12.6-1.15-14.85-.45-3.2.45 3.2 1.15 14.85m3.1-6.65q.4-2.45.45-5-.05 2.55-.45 5m-8.35-4.4-3.7-12.9 3.7 12.9" fill="url(#c)" fill-rule="evenodd" transform="translate(83.95 60.95)"/><path d="m-45.9-29.2-.2-.55q-2.6-7.1-2.95-17.1h.75l.45 7.3 3.1 10.6.45-3.8 1.4-1.05.95 1.75-1.05.55 2.15 16.1-.9-2.5-.4-1.1-3.75-10.2" fill="url(#d)" fill-rule="evenodd" transform="translate(83.95 60.95)"/><path d="M-50.75-25.8q-2.95-12.3-9.55-21.8l1-.6q4.35 5.4 7.1 11.75l4.45 11.05 1.05-.8-.55-5.95 1.1 2.4.25.55 3.75 10.2-1.85-.65-1.85-1.35q-2.4-1.95-4.9-4.8" fill="url(#e)" fill-rule="evenodd" transform="translate(83.95 60.95)"/><path d="m-60.45-13.4-1.95-3.25q-5-9.1-7.8-19.5l.7-1.1 7.3 15.15 1.5 1.6h1.6l13 7.4-.45-2.2.2-.05 3.35 1.3-1.85-3.65 3.1-.2.9 2.5.75 5.85q-5.7-1.7-11.35-4.9l-4.65-2.85-1.7-1.15-1.05 1.15-1.1 1.15.75 1q2.8 3.6 6.2 6.35l-3.8-1.7-3.15-2.05-.5-.85" fill="url(#f)" fill-rule="evenodd" transform="translate(83.95 60.95)"/><path d="M-52.5-18.95Q-61.35-32.55-66.55-48l.6-.85 5.35 12.2 9.3 14.6 6.45 4.35 1.85 3.65-3.35-1.3-.25-.15-1-.45-4.6-2.8-.3-.2" fill="url(#g)" fill-rule="evenodd" transform="translate(83.95 60.95)"/><path d="M-61.9-5.6q-2.9-3.25-5.4-8l.9-1.3 7.55 6.25 3.1 1.05-2.2 2.1 3.85.3v2.1Q-49.25.7-43 .95l-2.35 1.35-11.25-3.5-2.45-1.7-2.8-2.65-.05-.05" fill="url(#h)" fill-rule="evenodd" transform="translate(83.95 60.95)"/><path d="m-28.3-20.45.45-.1-.55.95.1-.85m66.55 3.05-.65.95.45-1.75.35.05-.15.75m16.2-6.25-.85.4.5-.5.35.1m-7.4-1.9-1.1.75.2-1 .9.25M28.2 45.15l-.2.05.15-.15.05.1m-61.25-4.55-.1-.05v-.1l.1.15M-61.9-5.55v-.05l.05.05h-.05m1.25-7.45.2-.4.5.85-.7-.45M64.6-15.65l.35-.4v-.05l.1.1-.45.35m.35-.4.1.05-.1-.05M66.8 23l.1-.3-.1.3M40.9 5.85l-.2-.1h.2v.1m-97.5-1.4.4 1 .75 1.9-.2.1-.3-1-.65-2m17.7 5.95v.05-.1.05-.05l.05.05h-.05m-15.25 6.7.15.05-.2.1.05-.15m1.75-.45-.05-.05v-.05h.05v.1" fill="#d4d0c8" fill-rule="evenodd" transform="translate(83.95 60.95)"/><path d="m-60.75-1.8-1.15-3.75h.05l2.8 2.65 1.2 3.6-2.9-2.5" fill="url(#i)" fill-rule="evenodd" transform="translate(83.95 60.95)"/><path d="m-58.85-17.3 9.9 8.7 10.45 4.8-5.5.3q-3.3-1.35-6.25-3.25Q-51.7-7.7-53-8.8q-3.4-2.75-6.2-6.35l-.75-1 1.1-1.15m2.65 22.75 6.65 1 6.1-1.95 6.8-4.8-1.2 2.05-1.1.75-1.25 2.7q-7.65 3.25-15.25 2.15l-.75-1.9" fill="url(#j)" fill-rule="evenodd" transform="translate(83.95 60.95)"/><path d="m-54.1-4.5 7.9 3.45 5.2.85-2 1.15Q-49.25.7-54.1-3.1v-1.4" fill="url(#k)" fill-rule="evenodd" transform="translate(83.95 60.95)"/><path d="m-45.35 2.3-1.75 1-1.3.55L-57.85.7l-1.2-3.6 2.45 1.7 11.25 3.5" fill="url(#l)" fill-rule="evenodd" transform="translate(83.95 60.95)"/><path d="M38.5-24.95h-.55l-.6 2.55q-14.7-2.25-29.2-1.55v-1.7Q8-29.4 5.8-29.95l.35-.1q17.4-.55 37 3.6-1.45 2.1-2.75 4.5l-1.75-.25.4-2.75h-.55M4.65-28.8q2.25 1.65 2.2 4.35-16.2.25-32.3 3.45l1.25-1.95-1.25-.7-.45-.25-1.95 3.35-.45.1.65-5.6q14.8-3.3 29.65-3.85l.5-.05q1.05.6 2.15 1.15m62.8 9.35 1.3.45-3.7 3-.1-.1 2.5-3.35m3.75 1.4 1.95.75q3.25 1.3 2.7 4.45l-.2.75-.15-.4-.8-1.8-2.15 3.1-.7-1.3-1.35-2.4-1.85 1.2-.85-.85 3.4-3.5m-128.85 32.6q.25-2.4.25-5.35l2.7 1.1.3.9-.25 2.95-2.15.15-.85.25m-.65-8.35-2.45-8 2.9 2.5 1.25 3.75.65 2-2.35-.25" fill="#b07700" fill-rule="evenodd" transform="translate(83.95 60.95)"/><path d="m-31.2-1.35.7-.65-1.7 8.65q.75 11.6 4.1 15.05l-.55 1.6q-1.05 3.05-.35 3.5l.6.95 1.4-.7 1.15-3.1q6.35 5.75 15.05 7.8l-.2 2.3q-2.45-1.65-9.95 1.55l-.65-4.7q-.15-1.75-.95-1.5-1.05.45-1.2 2.6-.1 1.95.25 3.7-1.95-.25-4.35 1.55-1.3-2.45-2.4-5.25-.7-1.75-1.4-1.5-.9.45-.4 2.6.6 2.25 1.65 4.15l-2.2.7Q-42.8 27.3-36.95 8.4l1.9-2 3.85-7.75" fill="url(#m)" fill-rule="evenodd" transform="translate(83.95 60.95)"/><path d="M8.15-23.95q14.5-.7 29.2 1.55l-2.6 11.05-1.3 2.25q.65-6.35-2.05-10.65l-1.1 1.05-1.15 1q3.2 2.35 3.05 9.35l-7.9-1.6-.7-.45q-7.9-4.65-16.25-4.05l-.6-.2q1.45-3.65 1.4-9.3m-1.3-.5Q7.2-18.1 5.45-15l-.2-.05q-3.55-.7-7.4.1l-.65.4-.45.05-1.6.1q-8.3.55-15.25 5l-9.45 1.15-.05-2.05q1.65-6.55 4.15-10.7 16.1-3.2 32.3-3.45" fill="url(#n)" fill-rule="evenodd" transform="translate(83.95 60.95)"/><path d="M-2.8-14.55q6.85-.35 6.3.65l3.85-.55q8.35-.6 16.25 4.05l.7.45q3 1.85 5.95 4.5L30-5.2l-1.2 1.35L28.4-5l-.9 1.05-.95 1V1.6l5 7.4q2.65 3.15 5.3 2.5l-.5-1.85 2.3.5Q42.6 27.1 26.05 42.5l-1.2-.6q1.3-2.2 2-4.95-.45-2.75-1.7-1.5l-.6 1.35q-.4 2.2-1.8 4.75-1.4-1.8-5.5-2.9l-.8-.2q.95-2.2 1.5-4.85-.45-3.25-1.7-1.8l-.6 1.6-1.1 4.15q-5.4-3.1-8.7-2.85l-.25-2.65q-.45-2.45-1.7-3.25-.9-.5-.9 1.35l-.15 5.25q-2.3-1.7-5.6-1.8-2.15-1.45-5.6-1.65.15-.85.55-1.2 1-.95-.45-1.8-1.4-.5-1.6.45-.7 1.1-.95 2.35-8.7-2.05-15.05-7.8L-23 19q3.05 3.75 7.6 5.65h1.5l-.35-1.05q.25-.35-.2-1.5-3.8-2.9-6.5-6.2 2.8-6 6.8-8.85l-.1-1.8q.8-1.5-.8-1.45l-1.7 1.4q-3.55 3.05-6.6 7.5-2.2-3.2-3.25-7.85-.95-.85-1.15.55l-1 1.85q-.15 2.2 1.4 5.4l1.9 3.25q-1.45 2.5-2.65 5.8-3.35-3.45-4.1-15.05L-30.5-2l1-.8.8-.65 7.5-5.2 1.1-.75q6.95-4.45 15.25-5l1.6-.1.45-.05m5 1.45 1.3-.8-1.3.8-5.5-.2-1.9.3-1.1.65q-.5.9.35 1.35-2.1.9-.85 1.25h5.1l-2 2.6-6.8.2-1.1.65q-.4.7.1 1.15l-.8 1.7 5.85-.45 1.05.3-.9 3.6.65.35L-4.3-3.3l5.45 1.55q1-.6.3-1.55.45-.25.05-1.15 0-1-1.05-1.45-1.55-.7-3.2-1.05l2.4-2.85 7 1.4.05-.9q.5-.25.1-1.2 0-1-1.05-1.45l-.85-.35-2.7-.8M24.3 6.15q-.25-1.05-.95-.55L23 7q-1.1 4.1-2.9 6.8-2.9-4.3-6.2-7.3l-.2-.2-1.65-1.4q-1.2-.05-1 .8l-.45 1.9q4.25 3.85 7.25 9.3-2.7 3.35-6.4 6.3-.55 1.5.05 1.6v1.35q5.15-2.55 8.2-6.25 2.85 4.8 4.1 9.2l1.65-.45.1-.75q.7-.4-.35-3.5-1.4-4.4-3.2-7.6 2.15-1.7 3.2-7l-.65-2.75-.25-.9" fill="url(#o)" fill-rule="evenodd" transform="translate(83.95 60.95)"/><path d="m2.2-13.1 2.7.8.85.35q1.05.45 1.05 1.45.4.95-.1 1.2l-1.45-.15q-2.95-1-6.05-1.25l-4.5.05-.1-.15-.55-.2q-.85-.45-.35-1.35l1.1-.65 1.9-.3 5.5.2" fill="url(#p)" fill-rule="evenodd" transform="translate(83.95 60.95)"/><path d="m5.45-15 1.3.35.6.2-3.85.55q.55-1-6.3-.65l.65-.4q3.85-.8 7.4-.1l.2.05" fill="url(#q)" fill-rule="evenodd" transform="translate(83.95 60.95)"/><path d="M-2.75-6.95Q-1.1-6.6.45-5.9q1.05.45 1.05 1.45.4.9-.05 1.15l-1.5-.1L-5-4.55q-2.75-.35-5.6-.05l-.1-.15-.8-.4q-.5-.45-.1-1.15l1.1-.65 6.8-.2.95.2" fill="url(#r)" fill-rule="evenodd" transform="translate(83.95 60.95)"/><path d="m-5.4-3.6-1.05-.3-5.85.45.8-1.7.8.4.1.15q2.85-.3 5.6.05l-.4.95" fill="url(#s)" fill-rule="evenodd" transform="translate(83.95 60.95)"/><path d="m6.7-9.3-.05.9-7-1.4-2.4 2.85-.95-.2 2-2.6.9-.95q3.1.25 6.05 1.25l1.45.15" fill="url(#t)" fill-rule="evenodd" transform="translate(83.95 60.95)"/><path d="M-1.7-9.75h-5.1q-1.25-.35.85-1.25l.55.2.1.15 4.5-.05-.9.95" fill="url(#u)" fill-rule="evenodd" transform="translate(83.95 60.95)"/><path d="M1.45-3.3q.7.95-.3 1.55L-4.3-3.3l-1.1-.3.4-.95L-.05-3.4l1.5.1" fill="url(#v)" fill-rule="evenodd" transform="translate(83.95 60.95)"/><path d="M-4.3-3.3-5.65.35-6.3 0l.9-3.6 1.1.3" fill="url(#w)" fill-rule="evenodd" transform="translate(83.95 60.95)"/><path d="M38.5-24.95h.55l-.4 2.75-.6 4-.45 1.75.65-.95-2.55 10v4.15l7.05-13.9 1.15.75L37.45-4 35.5-.2l-3.3-3.55 2.65-4.2 3.65-17" fill="url(#x)" fill-rule="evenodd" transform="translate(83.95 60.95)"/><path d="m38.65-22.2 1.75.25-.5.9-1.5 2.9-.35-.05.6-4m29.15 7.65.85.85-3.8 2.2 2.95-3.05" fill="#960" fill-rule="evenodd" transform="translate(83.95 60.95)"/><path d="m38.25-17.4.15-.75 1.5-2.9v3.25l5.95-11.05 3.8-4.65.95.7q-3.5 2-4.45 7l-.2 1-1.25 3.9v3.55l16-16.55 6-4.5 7.5-3.2 1.05.95q-7.75 1.9-15.5 10.85l-5.65 6.05-.5.5.85-.4Q62.1-27.5 67.8-33l.85 3.95q-5.85 2.45-11.4 6.2l-4.55 3.3-1.3 1-.6.5-1.45 1.6q-3.65 5.35-10.15 11L37.45-4l6.45-12.4-1.15-.75h-.05l-1.05-.7L35.7-7.4l2.55-10m9 .85 6.35-6.7-6.35 6.7" fill="url(#y)" fill-rule="evenodd" transform="translate(83.95 60.95)"/><path d="m33.1-8.5-.2.4-.75 1.25v-.75l.05-.75q.15-7-3.05-9.35l1.15-1q1.35 1.5 2.15 4.3l.65 5.9m-.2.4-.7-.25.7.25" fill="url(#z)" fill-rule="evenodd" transform="translate(83.95 60.95)"/><path d="m37.45-4 1.75-1.45v2l6.8-5.5 4.55-6.5 1.2.95L46.7-8l-6.55 5.2 5.05-2.25L52.25-9l.45.65L48-4.7 43.2-1l-2.45.7-4.4 1.2-.15-.2-.7-.9L37.45-4" fill="url(#A)" fill-rule="evenodd" transform="translate(83.95 60.95)"/><path d="m49.35-16.45 1.45-1.6.6-.5 1.7 1.65-.45 2.65 8.65-8.85 8.35-4.25 9.5-6.6.6.95q-3.9 4.2-9.6 7.3l-9.65 7.25-8.65 8.85-.85-1.2L46.7-8l5.05-6.5-1.2-.95-1.2-1" fill="url(#B)" fill-rule="evenodd" transform="translate(83.95 60.95)"/><path d="M40.75-.3 43.2-1l7.1-1.95 1.45.65 5.95-1.25-1.5 2.4 3-.9L70.5-7.1l5-5.4.15.4-.95 2.6q-1.1 2.15-3 3.95l-.75.65Q69.6-3.85 68-2.95L58.15 2.1h-5.3l1.9-3.55q-6 1.45-12 1.25l-2-.1" fill="url(#C)" fill-rule="evenodd" transform="translate(83.95 60.95)"/><path d="m36.35.9 4.4-1.2 2 .1-2.5 2.05 7.55-.7L45.85 3l15.65.35-1.35.8q-5.65-.4-11.45-.1L39.05 5.1H39L36.35.9" fill="url(#D)" fill-rule="evenodd" transform="translate(83.95 60.95)"/><path d="M43.2-1 48-4.7l4.65-1.25-.45 1.25 13-3.65 6.65-4.15.7 1.3q-3.3 4-7.75 4.9L50.3-2.95 43.2-1" fill="url(#E)" fill-rule="evenodd" transform="translate(83.95 60.95)"/><path d="m48-4.7 4.7-3.65-.45-.65-.4-.6 8.65-8.85 9.65-7.25 1 1.3-10.7 8.3-6.05 6.7 8.55-4.65-7.05 6.9-3.25 1.2L48-4.7" fill="url(#F)" fill-rule="evenodd" transform="translate(83.95 60.95)"/><path d="m74.8-22.9.3.75-3.9 4.1-3.4 3.5-2.95 3.05-4.4 2.3L74.8-22.9" fill="url(#G)" fill-rule="evenodd" transform="translate(83.95 60.95)"/><path d="M74.7-9.5Q71.35.3 72.15 9.2l5 12.65q.35 2.1.1 3.75-.3 2.1-1.45 3.45l-.5-.5q.5-3.2-.6-6.35L70.15 7.85q-.5-2.65-.4-5.25v-.05l1.8-3 .15-5.1q1.9-1.8 3-3.95" fill="url(#H)" fill-rule="evenodd" transform="translate(83.95 60.95)"/><path d="m70.95-4.9.75-.65-.15 5.1-1.8 3q.05-3.75 1.2-7.45" fill="url(#I)" fill-rule="evenodd" transform="translate(83.95 60.95)"/><path d="m37.15 43.3-8.95 1.85-.05-.1q.2-.8-.95-1.95.9.5 2.15.6l.95-.65q12-10.05 12-24.25 0-6.65-2.65-12.4l1.1-.45.15-.1v-.1l7.8-1.7q5.8-.3 11.45.1l1.35-.8 2-1.25h-5.35L68-2.95q1.6-.9 2.95-1.95-1.15 3.7-1.2 7.45v.05l-5.1 5.45 4.25 2-1.55 2-6.45-1.35q-6.15-.6-12.95 1.1l-2.2 14.7q-2.15 10.15-8.6 16.8" fill="url(#J)" fill-rule="evenodd" transform="translate(83.95 60.95)"/><path d="m77.85 47.1 1-.25q1.55-.3 3.2 0l-.2 1.45H78.1l-.25-1.2" fill="url(#K)" fill-rule="evenodd" transform="translate(83.95 60.95)"/><path d="M82.05 46.85q-1.65-.3-3.2 0l-1 .25q-1.8.5-3.45 1.8l-.45.1q-.75-.05-.1-2.2 1.7-1.35 3.45-1.8l.7-.1.3-.05 3.4.35q1.15.85.35 1.65" fill="url(#L)" fill-rule="evenodd" transform="translate(83.95 60.95)"/><path d="m75.8 29.05.9 1.05q8 8.65 6.5 18.4-.5 3.45-1.55 5.45V54l-.2-.1.3-1.35q.1-1.2-.8-.8l-1.9 1.2q.5-1.75-.1-4.65h2.9l.2-1.45q.8-.8-.35-1.65l-3.4-.35-.3.05-1.4-4.3h2.35l1.35-.2-1.35-1.85q.55-.8-.55-1.4l-3.6.1-2.35-3.8 2.2-.55.45-1.4q.95-1-.35-1.5l-.15-.05q-2.3-.05-4.55.8l-5-4.7 2.5-.9-.4-.6q.8-1.05-.35-1.55l.1-.3q4.55 1.7 8.4 5.85l.5.5" fill="url(#M)" fill-rule="evenodd" transform="translate(83.95 60.95)"/><path d="M81.65 54q-.7 1.25-1.55 1.9-1.15.9-2.7.8l-.1-.05.4-.9q1.9-.45 3.75-1.85l.2.1" fill="url(#N)" fill-rule="evenodd" transform="translate(83.95 60.95)"/><path d="m79.05 52.95 1.9-1.2q.9-.4.8.8l-.3 1.35q-1.85 1.4-3.75 1.85l-.65.1-3.4-.4-.45-.4q-.55-.65.1-1.25 1.6.3 3.2.05l1.85-.55.7-.35" fill="url(#O)" fill-rule="evenodd" transform="translate(83.95 60.95)"/><path d="m47.4 40.5-10.25 2.8q6.45-6.65 8.6-16.8l2.2-14.7q6.8-1.7 12.95-1.1l6.45 1.35 1.55-2-4.25-2 5.1-5.45q-.1 2.6.4 5.25L74.7 22.2q1.1 3.15.6 6.35-3.85-4.15-8.4-5.85-3.4-1.25-7.15-1.2l-1.7 1-.95.5q-2.25.05-3.4 1.85l-.15.3-3.35 4.05-2.45 5.75-.35 5.55" fill="url(#P)" fill-rule="evenodd" transform="translate(83.95 60.95)"/><path d="M62.3 24.2q2.2-1.25 4.5-1.2 1.15.5.35 1.55-2 .25-3.85 1.3-2 1.1-3.95 3.15l-.25.15q-1.05.55-.3-2.1 1.3-1.4 2.7-2.35l.8-.5" fill="url(#Q)" fill-rule="evenodd" transform="translate(83.95 60.95)"/><path d="m58.05 22.5 4.25 1.7-.8.5q-2.1-1.1-4.4-1.7l.95-.5" fill="url(#R)" fill-rule="evenodd" transform="translate(83.95 60.95)"/><path d="m40.7 5.75-1.65-.65 9.65-1.05-7.8 1.7h-.2" fill="#754f00" fill-rule="evenodd" transform="translate(83.95 60.95)"/><path d="M77.3 45q-1.75.45-3.45 1.8-.65 2.15.1 2.2l-.3 1.4 1.7-.35 2.75-1.75.35 2.6-.1 2.4-1.85.55q-1.6.25-3.2-.05-.65.6-.1 1.25v1.55l3.25 1.25-.65.75q-7.05 1.4-10.45-3.8v-3.55Q61.75 40.8 55.1 33.4q-1.65-1-1.55-8.25l.15-.3q1.15-1.8 3.4-1.85 2.3.6 4.4 1.7-1.4.95-2.7 2.35-.75 2.65.3 2.1l1.15.85 3.85-3.6 2.2 1.9 2.85 2.8q-2.35 1-4.6 2.9l-.15.55q-.45 1.45 0 1.65v1.45l7-3.95 2.6 3.8q-2.05.7-4 2.4-.8 2.5.3 2.15v.9l5.3-2.35.05.1 1.2 2.9.45 1.4" fill="url(#S)" fill-rule="evenodd" transform="translate(83.95 60.95)"/><path d="m74.5 59.65-.8.45q-14.15 2.35-15.45-10.4l-4.1-11.35-1.5-4.05q-.7-6.4.9-9.15-.1 7.25 1.55 8.25 6.65 7.4 10.25 17.85v3.55q3.4 5.2 10.45 3.8l-1.3 1.05" fill="url(#T)" fill-rule="evenodd" transform="translate(83.95 60.95)"/><path d="m59.1 29.15.25-.15q1.95-2.05 3.95-3.15l.8.55-3.85 3.6-1.15-.85" fill="url(#U)" fill-rule="evenodd" transform="translate(83.95 60.95)"/><path d="M54.15 38.35 47.4 40.5l.35-5.55 2.45-5.75 3.35-4.05q-1.6 2.75-.9 9.15l1.5 4.05" fill="url(#V)" fill-rule="evenodd" transform="translate(83.95 60.95)"/><path d="M70.05 30.75q2.25-.85 4.55-.8l.15.05q1.3.5.35 1.5h-.05q-2.3.2-4.5 1.15-2.75 1.15-5.3 3.3l-.85.25q-.45-.2 0-1.65l.15-.55q2.25-1.9 4.6-2.9l.9-.35" fill="url(#W)" fill-rule="evenodd" transform="translate(83.95 60.95)"/><path d="m75.1 31.5-.45 1.4-2.2.55-1.05.25h-.05l-.8-1.05q2.2-.95 4.5-1.15h.05" fill="url(#X)" fill-rule="evenodd" transform="translate(83.95 60.95)"/><path d="m72.45 33.45 2.35 3.8-.8.25-2.6-3.8 1.05-.25" fill="url(#Y)" fill-rule="evenodd" transform="translate(83.95 60.95)"/><path d="m70.55 32.65.8 1.05h.05l-7 3.95V36.2l.85-.25q2.55-2.15 5.3-3.3" fill="url(#Z)" fill-rule="evenodd" transform="translate(83.95 60.95)"/><path d="M63.3 25.85q1.85-1.05 3.85-1.3l.4.6-2.5.9-.95.35-.8-.55" fill="url(#aa)" fill-rule="evenodd" transform="translate(83.95 60.95)"/><path d="m64.1 26.4.95-.35 5 4.7-.9.35-2.85-2.8-2.2-1.9" fill="url(#ab)" fill-rule="evenodd" transform="translate(83.95 60.95)"/><path d="m70.3 42.05.25-.1Q72.7 40.1 75 39.3l.6 1.3-5.3 2.35v-.9" fill="url(#ac)" fill-rule="evenodd" transform="translate(83.95 60.95)"/><path d="m74.8 37.25 3.6-.1q1.1.6.55 1.4l-.2.2q-1.9-.1-3.75.55-2.3.8-4.45 2.65l-.25.1q-1.1.35-.3-2.15 1.95-1.7 4-2.4l.8-.25" fill="url(#ad)" fill-rule="evenodd" transform="translate(83.95 60.95)"/><path d="m78.95 38.55 1.35 1.85-1.35.2H75.6l-.6-1.3q1.85-.65 3.75-.55l.2-.2" fill="url(#ae)" fill-rule="evenodd" transform="translate(83.95 60.95)"/><path d="m78 44.9-.7.1-.45-1.4-1.2-2.9.2-.1h.75l1.4 4.3" fill="url(#af)" fill-rule="evenodd" transform="translate(83.95 60.95)"/><path d="m77.85 47.1.25 1.2-2.75 1.75-1.7.35.3-1.4.45-.1q1.65-1.3 3.45-1.8" fill="url(#ag)" fill-rule="evenodd" transform="translate(83.95 60.95)"/><path d="M78.1 48.3h.85q.6 2.9.1 4.65l-.7.35.1-2.4-.35-2.6" fill="url(#ah)" fill-rule="evenodd" transform="translate(83.95 60.95)"/><path d="M26.55-2.95 27.3.2l.35 1.55q2.9 4.7 7.5 5.95h3.15l-.6-.4 1.95-.9q2.65 5.75 2.65 12.4 0 14.2-12 24.25l-.95.65q-1.25-.1-2.15-.6l-1.15-.6q16.55-15.4 12.6-32.35l-2.3-.5.5 1.85q-2.65.65-5.3-2.5l-5-7.4v-4.55" fill="url(#ai)" fill-rule="evenodd" transform="translate(83.95 60.95)"/><path d="M20.1 13.8Q21.9 11.1 23 7l.35-1.4q.7-.5.95.55l.1.95.05.4q-.35 4.35-2.85 8.6l-1.5-2.3" fill="url(#aj)" fill-rule="evenodd" transform="translate(83.95 60.95)"/><path d="m24.55 7.05.65 2.75q-1.05 5.3-3.2 7l-.4-.7q2.5-4.25 2.85-8.6l-.05-.4.15-.05" fill="url(#ak)" fill-rule="evenodd" transform="translate(83.95 60.95)"/><path d="m24.3 6.15.25.9-.15.05-.1-.95m-81.8 17.7-.05.3-.15-.05.2-.25" fill="#cdb37a" fill-rule="evenodd" transform="translate(83.95 60.95)"/><path d="M22 16.8q1.8 3.2 3.2 7.6 1.05 3.1.35 3.5-.4.2-1.3-.4l-.7-1.5q-1.6-4.45-3.65-7.4-.9-2.25-1.35-2.6-3.15-5.3-6.95-9.15l-.35-.55-.2-.6q-.2-.85 1-.8l1.65 1.4.2.2q3.3 3 6.2 7.3l1.5 2.3.4.7" fill="url(#al)" fill-rule="evenodd" transform="translate(83.95 60.95)"/><path d="M17.85 16.9q-3-5.45-7.25-9.3l.45-1.9.2.6.35.55q3.8 3.85 6.95 9.15l-.7.9" fill="url(#am)" fill-rule="evenodd" transform="translate(83.95 60.95)"/><path d="M11.5 24.8q-.6-.1-.05-1.6 3.7-2.95 6.4-6.3l.7-.9q.45.35 1.35 2.6-2.95 3.1-7.1 5.8-.9.5-1.3.4" fill="url(#an)" fill-rule="evenodd" transform="translate(83.95 60.95)"/><path d="m25.55 27.9-.1.75-1.65.45q-1.25-4.4-4.1-9.2-3.05 3.7-8.2 6.25V24.8q.4.1 1.3-.4 4.15-2.7 7.1-5.8 2.05 2.95 3.65 7.4l.7 1.5q.9.6 1.3.4" fill="url(#ao)" fill-rule="evenodd" transform="translate(83.95 60.95)"/><path d="m14.55 37.55 1.1-4.15.6-1.6q1.25-1.45 1.7 1.8-.55 2.65-1.5 4.85-1.55 3.45-4 5.85-.55.9-1.1.8l-.6-.4v-1.2l1-1.15 2.05-3.1.35-.8.4-.9" fill="url(#ap)" fill-rule="evenodd" transform="translate(83.95 60.95)"/><path d="m5.85 34.7-.05 1.1q-.3 3.85-2.85 5.95-.35.65-1.25.35l-.65-.35q-1.5-1.35-.05-2t1.75-3.45l.1-.9.15-5.25q0-1.85.9-1.35 1.25.8 1.7 3.25l.25 2.65" fill="url(#aq)" fill-rule="evenodd" transform="translate(83.95 60.95)"/><path d="m2.85 35.4-.1.9q-6.2-3-11.1-.6l-.1-1.4q2.65-1.05 5.7-.7 3.3.1 5.6 1.8" fill="url(#ar)" fill-rule="evenodd" transform="translate(83.95 60.95)"/><path d="m5.8 35.8 1 .15v.9l-.35 1.65q-.5 1.7-1.85 3.25l-2.05 1.4-.85-1.05q.9.3 1.25-.35 2.55-2.1 2.85-5.95" fill="url(#as)" fill-rule="evenodd" transform="translate(83.95 60.95)"/><path d="M6.8 35.95q4.9.65 7.35 2.5l-.35.8q-3.2-2-7-2.4v-.9" fill="url(#at)" fill-rule="evenodd" transform="translate(83.95 60.95)"/><path d="m5.8 35.8.05-1.1q3.3-.25 8.7 2.85l-.4.9q-2.45-1.85-7.35-2.5l-1-.15" fill="url(#au)" fill-rule="evenodd" transform="translate(83.95 60.95)"/><path d="M28 45.2Q16.2 53.15.95 53.4q-17.4.3-30-9.25l-4-3.55-.1-.15q-.45-.55.25-1.2l2.55-.75 2.2 3.15 4 2.65.3-.95.1-.05q.9-.9-.75-1.85-1.5-.85-2.7-3 .65-1.5 2.85-1.7l1.85 3.65 3.2 3 .75-1.2q1.15-.9-.2-1.85-1.3-.9-1.9-3.35 3.55-2.65 8.9-2.05l1.05 3.7q.35 2.5 2.9 4.25l.4-1.3q.35-.25.05-1.45l-1-4.45q4.9-2.4 11.1.6-.3 2.8-1.75 3.45t.05 2l.65.35.85 1.05 2.05-1.4q1.35-1.55 1.85-3.25 3.55 1.1 5.3 3.85l-1 1.15v1.2l.6.4.95.35 1.5-1.55q.5 3.05 5.85 2.45l.05.05.6.3 1.1.45 2.3-2.3 1.4-1.8L28 45.2" fill="url(#av)" fill-rule="evenodd" transform="translate(83.95 60.95)"/><path d="m16.45 38.45.8.2-.35.7-1.6 3-3 3.1-.95-.35q.55.1 1.1-.8 2.45-2.4 4-5.85" fill="url(#aw)" fill-rule="evenodd" transform="translate(83.95 60.95)"/><path d="M17.25 38.65q4.1 1.1 5.5 2.9l-.3.55q-2.2-2.1-5.55-2.75l.35-.7" fill="url(#ax)" fill-rule="evenodd" transform="translate(83.95 60.95)"/><path d="m13.8 43.9 1.5-1.55 1.6-3q3.35.65 5.55 2.75-1 1.55-2.8 3.25v1q-5.35.6-5.85-2.45" fill="url(#ay)" fill-rule="evenodd" transform="translate(83.95 60.95)"/><path d="m6.45 38.5.35-1.65q3.8.4 7 2.4l-2.05 3.1Q10 39.6 6.45 38.5" fill="url(#az)" fill-rule="evenodd" transform="translate(83.95 60.95)"/><path d="M22.75 41.55q1.4-2.55 1.8-4.75l.6-1.35q1.25-1.25 1.7 1.5-.7 2.75-2 4.95-1.4 2.4-3.5 4.1l-.15.2q-.45.5-.9.5l-.6-.3-.05-.05v-1q1.8-1.7 2.8-3.25l.3-.55" fill="url(#aA)" fill-rule="evenodd" transform="translate(83.95 60.95)"/><path d="m26.05 42.5 1.15.6q1.15 1.15.95 1.95l-.15.15-2.9-2.15-1.4 1.8-2.3 2.3-1.1-.45q.45 0 .9-.5l.15-.2q2.1-1.7 3.5-4.1l1.2.6" fill="url(#aB)" fill-rule="evenodd" transform="translate(83.95 60.95)"/><path d="m77.7 55.75-.4.9-.05.05-.05.1-.75 1.05-3.25-1.25v-1.55l.45.4 3.4.4.65-.1" fill="url(#aC)" fill-rule="evenodd" transform="translate(83.95 60.95)"/><path d="m80.1 55.9-.3 1.75q-2.15 1.65-4.4 1.95l-.9.05 1.3-1.05.65-.75.75-1.05.2-.1q1.55.1 2.7-.8" fill="url(#aD)" fill-rule="evenodd" transform="translate(83.95 60.95)"/><path d="M-29 26.8q-.7-.45.35-3.5l.55-1.6q1.2-3.3 2.65-5.8l.5-.9 1.6-2.3q3.05-4.45 6.6-7.5l1.7-1.4q1.6-.05.8 1.45l-.3.5q-3.95 3.85-7.2 9.15-.5.35-1.4 2.6-1.8 2.45-3.25 5.95l-.55 1.45-.7 1.5q-1 .65-1.35.4" fill="url(#aE)" fill-rule="evenodd" transform="translate(83.95 60.95)"/><path d="M-21.75 14.9q3.25-5.3 7.2-9.15l.3-.5.1 1.8q-4 2.85-6.8 8.85l-.8-1" fill="url(#aF)" fill-rule="evenodd" transform="translate(83.95 60.95)"/><path d="m-14.25 23.6.35 1.05h-1.5q-4.55-1.9-7.6-5.65l-2.85 4.95-.55-.5q1.45-3.5 3.25-5.95 3 3.1 7.3 5.8 1.25.65 1.6.3" fill="url(#aG)" fill-rule="evenodd" transform="translate(83.95 60.95)"/><path d="m-21.75 14.9.8 1q2.7 3.3 6.5 6.2.45 1.15.2 1.5-.35.35-1.6-.3-4.3-2.7-7.3-5.8.9-2.25 1.4-2.6" fill="url(#aH)" fill-rule="evenodd" transform="translate(83.95 60.95)"/><path d="m-24.95 15-.5.9-1.9-3.25q-1.55-3.2-1.4-5.4l1-1.85-.1 1q.3 4.35 2.9 8.6" fill="url(#aI)" fill-rule="evenodd" transform="translate(83.95 60.95)"/><path d="m-23.35 12.7-1.6 2.3q-2.6-4.25-2.9-8.6l.1-1q.2-1.4 1.15-.55 1.05 4.65 3.25 7.85" fill="url(#aJ)" fill-rule="evenodd" transform="translate(83.95 60.95)"/><path d="M-33.15 40.55q-8.2-3.15-15.9-7.65l2.1-5.5q.9-3.05 0-7.05l-.25-.5q2 3 3.05 1.5-1.65-6.85.7-12.4l-9.2 2.2-2.05-.85-.95-2.85.2-.1q7.6 1.1 15.25-2.15l-.5 1 1.25.4 1.25.35-.7 1.4v2.1q-1.5 4.2-1.8 9.2-.7 11.2 5.9 18.95l.5.6 1.4.05q-.7.65-.25 1.2v.1" fill="url(#aK)" fill-rule="evenodd" transform="translate(83.95 60.95)"/><path d="M-36.95 8.4q-5.85 18.9 4.35 29.55l-2.2.65q-6.6-7.75-5.9-18.95.3-5 1.8-9.2v-.05h.05l1.9-2" fill="url(#aL)" fill-rule="evenodd" transform="translate(83.95 60.95)"/><path d="m-25.85 23.95-1.15 3.1-1.4.7-.6-.95q.35.25 1.35-.4l.7-1.5.55-1.45.55.5" fill="url(#aM)" fill-rule="evenodd" transform="translate(83.95 60.95)"/><path d="M-23.5 35.7q-.35-1.75-.25-3.7.15-2.15 1.2-2.6.8-.25.95 1.5l.65 4.7.3 1.4q.6 2.45 1.9 3.35 1.35.95.2 1.85-1.25.45-1.75-.5-2.1-2.15-2.95-4.95l-.25-1.05" fill="url(#aN)" fill-rule="evenodd" transform="translate(83.95 60.95)"/><path d="M-27.85 37.25q2.4-1.8 4.35-1.55l.25 1.05h-1.1q-2.2.2-2.85 1.7l-.65-1.2" fill="url(#aO)" fill-rule="evenodd" transform="translate(83.95 60.95)"/><path d="M-24.35 36.75h1.1q.85 2.8 2.95 4.95.5.95 1.75.5l-.75 1.2-3.2-3-1.85-3.65" fill="url(#aP)" fill-rule="evenodd" transform="translate(83.95 60.95)"/><path d="M-20.95 35.6q7.5-3.2 9.95-1.55l.05 1-.8-.1q-5.35-.6-8.9 2.05l-.3-1.4" fill="url(#aQ)" fill-rule="evenodd" transform="translate(83.95 60.95)"/><path d="M-30.4 37.25q-1.05-1.9-1.65-4.15-.5-2.15.4-2.6.7-.25 1.4 1.5 1.1 2.8 2.4 5.25l.65 1.2q1.2 2.15 2.7 3 1.65.95.75 1.85l-.1.05-.4.1-1-.3-.4-.35q-2.5-1.95-4.1-4.45l-.65-1.1" fill="url(#aR)" fill-rule="evenodd" transform="translate(83.95 60.95)"/><path d="m-32.6 37.95 2.2-.7.65 1.1-.6.15-2.55.75-1.4-.05-.5-.6 2.2-.65" fill="url(#aS)" fill-rule="evenodd" transform="translate(83.95 60.95)"/><path d="m-30.35 38.5.6-.15q1.6 2.5 4.1 4.45l.4.35 1 .3.4-.1-.3.95-4-2.65-2.2-3.15" fill="url(#aT)" fill-rule="evenodd" transform="translate(83.95 60.95)"/><path d="m-11 34.05.2-2.3q.25-1.25.95-2.35.2-.95 1.6-.45 1.45.85.45 1.8-.4.35-.55 1.2l-.1 2.35.1 1.4 1 4.45q.3 1.2-.05 1.45l-.35.05q-1.2-.5-2.1-2.6-.9-2.15-1.1-4l-.05-1" fill="url(#aU)" fill-rule="evenodd" transform="translate(83.95 60.95)"/><path d="m-8.45 34.3.1-2.35q3.45.2 5.6 1.65-3.05-.35-5.7.7" fill="url(#aV)" fill-rule="evenodd" transform="translate(83.95 60.95)"/><path d="m-11.75 34.95.8.1q.2 1.85 1.1 4 .9 2.1 2.1 2.6l.35-.05-.4 1.3q-2.55-1.75-2.9-4.25l-1.05-3.7" fill="url(#aW)" fill-rule="evenodd" transform="translate(83.95 60.95)"/><path d="M-48.4 3.85q-3.45 1.25-8.2.6L-57.85.7l9.45 3.15" fill="url(#aX)" fill-rule="evenodd" transform="translate(83.95 60.95)"/><path d="m-57.4 9.2-.9-3 2.35.25.3 1 .95 2.85-2.7-1.1" fill="url(#aY)" fill-rule="evenodd" transform="translate(83.95 60.95)"/><path d="m-54.7 10.3 2.05.85 9.2-2.2q-2.35 5.55-.7 12.4-1.05 1.5-3.05-1.5l-.75-1.15q-1.2-1.8-2.4-2.6h-.3l-.45.1-.7-.9q-1.1-1.05-2.85-1.15l.25-2.95-.3-.9" fill="url(#aZ)" fill-rule="evenodd" transform="translate(83.95 60.95)"/><path d="M-55.85 15.85q-.3-1.15.6-1.05l.5.1 1.65 1 .65.65v.05l.05.05 1.4 2.1q.4 1.1 0 1.45l-.4.15q-.8-1.7-1.8-2.6l-.1-.1-.55-.4-.15-.1-.15-.05q-.5-.25-.95-.35l-.45-.05-.3-.85" fill="url(#ba)" fill-rule="evenodd" transform="translate(83.95 60.95)"/><path d="M-80.2 45.5h-.05q-4.7-3.65-2.55-13.85 11.25-13.4 25.15-17.1l.85-.25 2.15-.15q1.75.1 2.85 1.15l-1.3.6-1.65-1-.5-.1q-.9-.1-.6 1.05l-1.4.85 1.15.55-4.05 2.45q-1.1-.85-2.3-1-1.35-.15-.35 1.9l-.9.9.85.45-4.65 4.1q-1.3-.8-2.75-.95-1.65-.15-.4 1.9v.05l-1.1 1 1.9.5-4.05 4.35q-1.65-1-3.5-1.2-1.7-.15-.65 1.6l-.45.95 2.5 1.05-1.95 3.1-.5 3-1.4-2.45q-1.45-.3-.95 1.4l.55 3.1 2.65 2.35.2.95.15.55-.15.2-2.8-2" fill="url(#bb)" fill-rule="evenodd" transform="translate(83.95 60.95)"/><path d="m-55.85 15.85.3.85.45.05q.45.1.95.35l-.05.15-.5.2-.7.35q-1.7.9-3.55 2.25l-.45.3v.05l-.75-.7 4.05-2.45-1.15-.55 1.4-.85" fill="url(#bc)" fill-rule="evenodd" transform="translate(83.95 60.95)"/><path d="M-51 20.2q.4-.35 0-1.45l-1.4-2.1v-.1l1.3-.35.45-.1h.3q1.2.8 2.4 2.6l-1.45 5.7Q-56.5 37-67.35 44.95l-6.55 3.95q-1.95.35-3.5-2.15l-.2-.95q1.35 1.8 3.1 1.45V45.9q.5-.3 0-1.75-1.95-.65-3.35-2.05v-.05q.15-2 .95-3.9l2.05-2.5 2.35 2.55 1.15-.95q1.45-.1.55-1.6-1.05-1.3-2.2-2.15l4.25-4.65 3.45 3.25.4-1.45q1.25-.1.5-1.6-.95-1.3-2-2.2l-.2-.2 4.9-4.5 2.6 2.25 1.4 1.7.15-1.95.05-.3q.1-.35-.15-1l-.05-.2-1.5-2.05-.2-.25.45-.3q1.85-1.35 3.55-2.25l.7-.35 2.2 2.35 1.35 2.15.15-1.75" fill="url(#bd)" fill-rule="evenodd" transform="translate(83.95 60.95)"/><path d="m-54 17.15.15.1.55.4.1.1q1 .9 1.8 2.6l.4-.15-.15 1.75-1.35-2.15-2.2-2.35.5-.2.2-.1" fill="url(#be)" fill-rule="evenodd" transform="translate(83.95 60.95)"/><path d="m-52.45 16.55-.65-.65 1.3-.6.7.9-1.3.35h-.05" fill="url(#bf)" fill-rule="evenodd" transform="translate(83.95 60.95)"/><path d="m-57.55 24.15-.15 1.95-1.4-1.7-2.6-2.25.75-.6.3-.25.35.25q.05 0 .15.1l.3.3q.95.85 1.7 2.3l.45-.15.15.05" fill="url(#bg)" fill-rule="evenodd" transform="translate(83.95 60.95)"/><path d="m-59.2 20.6 1.5 2.05.05.2q.25.65.15 1l-.2.25-.45.15q-.75-1.45-1.7-2.3l-.3-.3q-.1-.1-.15-.1l-.35-.25-.2-.1q-.9-.55-1.95-.6-1-2.05.35-1.9 1.2.15 2.3 1l.75.7.2.2" fill="url(#bh)" fill-rule="evenodd" transform="translate(83.95 60.95)"/><path d="M-49.05 32.9Q-55.1 46.5-66.2 52.15q-5.55 2.2-8.85-1.15-1.05-1.1-1.9-2.8l-.15-.5-.15-.4-.15-.55q1.55 2.5 3.5 2.15l6.55-3.95Q-56.5 37-49.4 24.4l1.45-5.7.75 1.15.25.5q.9 4 0 7.05l-2.1 5.5" fill="url(#bi)" fill-rule="evenodd" transform="translate(83.95 60.95)"/><path d="m-61.7 22.15-4.9 4.5h-.05l-.85-.6 4.65-4.1-.85-.45.9-.9q1.05.05 1.95.6l-.1.35-.75.6" fill="url(#bj)" fill-rule="evenodd" transform="translate(83.95 60.95)"/><path d="M-66.4 26.85q1.05.9 2 2.2.75 1.5-.5 1.6-1.15-1.7-2.55-2.6l-.35-.25-.15-.05q-1.25-.65-2.7-.75-1.25-2.05.4-1.9 1.45.15 2.75.95l.85.6.25.2" fill="url(#bk)" fill-rule="evenodd" transform="translate(83.95 60.95)"/><path d="m-64.9 30.65-.4 1.45-3.45-3.25.75-.8.2-.25.35.25q1.4.9 2.55 2.6" fill="url(#bl)" fill-rule="evenodd" transform="translate(83.95 60.95)"/><path d="m-68 28.05-.75.8-1.1-.3-1.9-.5 1.1-1V27q1.45.1 2.7.75l-.05.3" fill="url(#bm)" fill-rule="evenodd" transform="translate(83.95 60.95)"/><path d="M-68.75 28.85-73 33.5l-.9-.6 4.05-4.35 1.1.3" fill="url(#bn)" fill-rule="evenodd" transform="translate(83.95 60.95)"/><path d="m-74.85 35.65-2.05 2.5q-.8 1.9-.95 3.9h-.05l-.55-.65.5-3 1.95-3.1-2.5-1.05.45-.95.2.3q2.05.1 3.8 1.15l-.8.9" fill="url(#bo)" fill-rule="evenodd" transform="translate(83.95 60.95)"/><path d="M-73 33.5q1.15.85 2.2 2.15.9 1.5-.55 1.6-1.2-1.6-2.7-2.5-1.75-1.05-3.8-1.15l-.2-.3q-1.05-1.75.65-1.6 1.85.2 3.5 1.2l.9.6" fill="url(#bp)" fill-rule="evenodd" transform="translate(83.95 60.95)"/><path d="m-71.35 37.25-1.15.95-2.35-2.55.8-.9q1.5.9 2.7 2.5" fill="url(#bq)" fill-rule="evenodd" transform="translate(83.95 60.95)"/><path d="M-77.85 42.1q1.4 1.4 3.35 2.05.5 1.45 0 1.75-.3.2-.95 0-1.3-.55-2.35-1.45L-79.2 43l-1.6-2.65q-.5-1.7.95-1.4l1.4 2.45.55.65.05.05" fill="url(#br)" fill-rule="evenodd" transform="translate(83.95 60.95)"/><path d="m-80.8 40.35 1.6 2.65 1.4 1.45.2 1.35-2.65-2.35-.55-3.1" fill="url(#bs)" fill-rule="evenodd" transform="translate(83.95 60.95)"/><path d="M-74.5 45.9v1.35q-1.75.35-3.1-1.45l-.2-1.35q1.05.9 2.35 1.45.65.2.95 0" fill="url(#bt)" fill-rule="evenodd" transform="translate(83.95 60.95)"/><path d="M-75.05 51q-2.1-.9-3.6-2.85l-1.55-2.65 2.8 2 .3.2.15.5q.85 1.7 1.9 2.8" fill="url(#bu)" fill-rule="evenodd" transform="translate(83.95 60.95)"/><path d="M5.8-29.95q2.2.55 2.35 4.3v1.7q.05 5.65-1.4 9.3L5.45-15q1.75-3.1 1.4-9.45.05-2.7-2.2-4.35.15-.8 1.15-1.15" fill="#513300" fill-rule="evenodd" transform="translate(83.95 60.95)"/><path d="m26.55-2.95.95-1 1.8 5.5-2-1.35-.75-3.15m2.25-.9L30-5.2l2.4 6.5-3.15-4 3.15 4 1.25 1.55 2.65 1.1L39 5.1l-2.7-1.15-2.1-2.85q-1.6-2.55-2-4.85L35.5-.2l.7.9.15.2L39 5.1h.05l1.65.65.05.2-1.1.45-1.95.9.6.4h-3.15q-4.6-1.25-7.5-5.95L27.3.2l2 1.35 2 1.4-2.05-5.65-.45-1.15M37.7 7.3l-6.4-4.35 6.4 4.35M-29.8-3.45h-1.15l-.1.15-1.8 1.5-3 2.55-.4 1.6 6.45-5.8h1.1-1.1m1.15-1.6-.05 1.6-.8.65-1 .8-.7.65-1.1 1.05q-3.15 3.2-5.1 7.15 1.95-3.95 5.1-7.15l1.1-1.05-3.85 7.75-3.8 4-.05-.05v-2l.7-1.4-1.25-.35 2.3-5.35-.7.5 1.2-2.05 3.75-3.15 4.25-1.6m-4.2 3.25-4.3 3.05 4.3-3.05m-4.55 8.65.75-2.9.4-1.6-.4 1.6-.75 2.9m.75-2.9-1.55 3 1.55-3" fill="#330" fill-rule="evenodd" transform="translate(83.95 60.95)"/><path d="m32.15-6.85.05 3.1q.4 2.3 2 4.85l2.1 2.85-2.65-1.1L32.4 1.3 30-5.2l.25-.25 1.9-2.15v.75m-4.65 2.9L28.4-5l.4 1.15.45 1.15 2.05 5.65-2-1.4-1.8-5.5M-36.25-1l1.6-2.7 5.1-2.5.9-.45v1.6l-4.25 1.6-3.75 3.15.4-.7m0 3.35.4-1.6 3-2.55 1.8-1.5.1-.15h1.15l-6.45 5.8m-1.6-.6.7-.5-2.3 5.35-1.25-.4.5-1 1.25-2.7 1.1-.75" fill="#360" fill-rule="evenodd" transform="translate(83.95 60.95)"/><path d="m121.3 38.55.6-2.55h1.1l-.4 2.75 1.75.25q1.3-2.4 2.75-4.5-19.6-4.15-37-3.6m31.2 7.65-2.6 11.05-1.3 2.25-.35.6-.2.4-.75 1.25.05 3.1q.4 2.3 2 4.85l2.1 2.85-2.65-1.1-1.25-1.55M89.4 45.95l1.3.35m-4.75-15.25Q71.1 31.6 56.3 34.9l-.65 5.6.45-.1 1.95-3.35.45.25 1.25.7-1.25 1.95m32.8 6.55-.6-.2m-9.55.1.65-.4q3.85-.8 7.4-.1l.2.05m-1.95 1.1-1.3.8 2.7.8.85.35q1.05.45 1.05 1.45.4.95-.1 1.2m-13 9.3.9-3.6m1.7-3.55 2-2.6M78 49.95q-.85-.45-.35-1.35l1.1-.65 1.9-.3 5.5.2m-3 2.4q3.1.25 6.05 1.25l1.45.15m33.2-11.75.5-.9M122 42.75l.6-4m30-6.85-.85-3.95q-5.7 5.5-13.35 9.35l-.85.4m-15.2 5.1 1.5-2.9m9.75-12.45-.5-.4q-3.2 3.15-6 7.45m-10.95 18.1q.15-7-3.05-9.35l1.15-1 1.1-1.05q2.7 4.3 2.05 10.65M110.5 58l.95-1 .9-1.05.4 1.15 1.2-1.35.25-.25 1.9-2.15.05-.75m-3.4 4.5.45 1.15 3.15 4m-.25-8.9v.75m42.05-34.75 1.05.95q-7.75 1.9-15.5 10.85l-5.65 6.05.35.1m19.75-17.95-1-.9-7.85 3.7L131 35.4l-1.1.75M163.1 27l.6.95q-3.9 4.2-9.6 7.3l1 1.3-3.7 4.95 1.3.45 5.75-4.65.6 1.5-3.9 4.1 1.95.75q3.25 1.3 2.7 4.45l-.2.75-.95 2.6q-3.35 9.8-2.55 18.7l5 12.65q.35 2.1.1 3.75-.3 2.1-1.45 3.45l.9 1.05q8 8.65 6.5 18.4-.5 3.45-1.55 5.45v.05q-.7 1.25-1.55 1.9l-.3 1.75q-2.15 1.65-4.4 1.95l-.9.05-.8.45q-14.15 2.35-15.45-10.4l-4.1-11.35-1.5-4.05q-.7-6.4.9-9.15M34.9 93.85q-6.05 13.6-17.15 19.25-5.55 2.2-8.85-1.15-2.1-.9-3.6-2.85l-1.55-2.65H3.7Q-1 102.8 1.15 92.6 12.4 79.2 26.3 75.5q.25-2.4.25-5.35l-.9-3-2.45-8-1.15-3.75v-.05q-2.9-3.25-5.4-8l.9-1.3.85-1.25 4.9 3.15.2-.4-1.95-3.25q-5-9.1-7.8-19.5l.7-1.1.65-1.05Q21.55 35.05 31.45 42 22.6 28.4 17.4 12.95l.6-.85 1.15-1.65q3.15 9.4 9.15 18.25l4.9 6.45q-2.95-12.3-9.55-21.8l1-.6.95-.55q6 6.05 11.1 16.6l1.1 2.4.25.55-.2-.55q-2.6-7.1-2.95-17.1h2.55l.6 4.15 1.1-.4m.05-.05 1.35-.55.75-.3q-2.5-8.15-6.6-14.7l1-.9.95-.85q5.7 8.15 10.5 18.85l1.5 3.5q-1.1-6.3-3.45-10.85l1.2-.5 1.15-.5q3.55 7.4 5.55 15.2l.7 3.05q.15-5.65-1.4-11.65h1.55q2.9 7.1 2.7 14.2l-.35 3.1m96.3-3q6.75-1.9 9.95-5.8l.55.9m-33 8.15-.2 1m.2-1 .9.25m2.6-7.95.95.7q-3.5 2-4.45 7m7.95 2.05-.5.5m18.95 12.05-.7-1.3m-7.25-3.15.35-.4v-.05l2.5-3.35m-5.95 22.8 2-1.25h-5.35l9.85-5.05q1.6-.9 2.95-1.95l.75-.65q1.9-1.8 3-3.95m-2.15-1.7 2.15-3.1.8 1.8.15.4m-11.05-3.55.45-.35-.1-.05m2.85 1.5-2.95 3.05 3.8-2.2 1.85-1.2 1.35 2.4m-6.8-3.5 3.7-3m-.95 4.45 3.4-3.5m6.65 65.15.25 1.2m-.4 7.45-.4.9-.05.05h.15l-.2.1-.75 1.05m.95-1.15q1.55.1 2.7-.8m-4.8-27.35.5.5m-8.9-6.35q-3.4-1.25-7.15-1.2l-1.7 1-.95.5q2.3.6 4.4 1.7M124.7 66.9l.15-.1-.2-.1-1.65-.65h-.05l-2.7-1.15m4.6 1.8h-.2m8-1.7q5.8-.3 11.45.1l1.35-.8m14.3 55.25.65-.75m1.9-4.55.1-2.4-.35-2.6m-24.4-23.45q1.15-1.8 3.4-1.85m13.45 9.65.8 1.05h.05l2.6 3.8m-9.9-11.1-.8-.55m5.85 5.25-2.85-2.8-2.2-1.9m11.5 14.2-.6-1.3m.65 1.4-.05-.1m.05.1 1.2 2.9.45 1.4m-2-16.45q-3.85-4.15-8.4-5.85m-27.25-16.3-1.95.9.6.4h-3.15q-4.6-1.25-7.5-5.95l-.35-1.55-.75-3.15m-.5 45.45 1.15.6q.9.5 2.15.6m10.3-37.3 1.1-.45m-9.45-3 6.4 4.35m-8.4-5.75-2-1.35m4 2.75-2-1.4M100.4 99.4l.8.2q4.1 1.1 5.5 2.9m2.1.35 1.2.6m-20.25-6.7 1 .15q4.9.65 7.35 2.5m14 6.6q.2-.8-.95-1.95m48.6 15.5-1.3 1.05m2.75-2.95-.05.1M123 66.05l9.65-1.05m-19.45-6.75 2.05 5.65M42 28.9l1.05-.6M22.1 55.4l-.05-.05m25.65 4.6 1.6-2.7 5.1-2.5V52.7l-.05-2.05Q56 44.1 58.5 39.95m-19.9 23.3-1.75 1-1.3.55q-3.45 1.25-8.2.6l.4 1M23.3 47.95l.7.45-.5-.85m15.1 15.7-11.25-3.5-2.45-1.7-2.8-2.65m33.45-14.05.55-.95m-.45.1-.1.85m-1.4 16.15H53l-.1.15-1.8 1.5-3 2.55-.8 3.2-.75 2.9m7.6-10.3h1.1l.05-1.6m-8 4.75-1.2 2.05.7-.5 4.3-3.05m1.65.45-3.85 7.75-1.9 2m7.95 18.4q-.7-.45.35-3.5l.55-1.6m-1.45-27.9.9-.45v1.6m25.4-9.45.45-.05m2 3.85-.9.95M78 49.95l.55.2.1.15 4.5-.05m-4.2 6.15-.4.95M69.7 66.2l-.3.5q-3.95 3.85-7.2 9.15l.8 1q2.7 3.3 6.5 6.2.45 1.15.2 1.5-.35.35-1.6-.3-4.3-2.7-7.3-5.8-1.8 2.45-3.25 5.95L57 85.85l-.7 1.5q-1 .65-1.35.4M69.7 66.2q.8-1.5-.8-1.45l-1.7 1.4q-3.55 3.05-6.6 7.5l-1.6 2.3-.5.9q-1.45 2.5-2.65 5.8m4.75-9q-2.2-3.2-3.25-7.85-.95-.85-1.15.55l-.1 1q.3 4.35 2.9 8.6m-15.25-9.8 1.25-2.7 1.1-.75m-1.05 8.6v-2l.7-1.4-1.25-.35-1.25-.4.5-1Q36.1 69.4 28.5 68.3l-.75-1.9m9 14.4.25.5q.9 4 0 7.05l-2.1 5.5M45.05 71.4v-.1m0 .05h.05l1.9-2m-1.25-1.45 1.55-3m14.9 10.95q-.5.35-1.4 2.6M59.6 97.7h1.1m-9.9 3.7q-.45-.55.25-1.2l-1.4-.05m3.95-.7.6-.15m-.6.15-2.55.75m5.7-.8q.65-1.5 2.85-1.7m16-1.05q4.9-2.4 11.1.6M73 96l-.8-.1m-8.9 2.05q3.55-2.65 8.9-2.05M32.15 76.25q-1.1-1.05-2.85-1.15l-2.15.15-.85.25m2.95 2.9-.7.35q-1.7.9-3.55 2.25l-.45.3m-2.3 1.8-4.9 4.5m-2.15 2.2-4.25 4.65M9.1 96.6l-2.05 2.5q-.8 1.9-.95 3.9v.05m.25 3.7.2.95M36 79.65q-1.2-1.8-2.4-2.6m-.3 0-.45.1-1.3.35h-.05m-1.55.6-.2.1-.5.2m2.9-2.15.7.9m-9.55 5.1-.3.25-.75.6m2.3-1.75v-.05M36 79.65l.75 1.15M17.3 87.6h.05m-1.2 1.15-.2.25-.75.8m-5.3 5.9-.8.9m-2.75 10.15-.2-1.35m.7 3.25.15.5q.85 1.7 1.9 2.8m-2.2-3.7.15.4-.3-.2-2.8-2m2.95 1.8-.15-.55" fill="none" stroke="#000" stroke-linecap="round" stroke-linejoin="round" stroke-opacity=".4" stroke-width=".5"/><path d="m90.1 30.9-.35.1q-1 .35-1.15 1.15 2.25 1.65 2.2 4.35.35 6.35-1.4 9.45m-.8-13.8q-1.1-.55-2.15-1.15l-.5.05m-4.8 15.35q6.85-.35 6.3.65l3.85-.55M81.2 54q1.65.35 3.2 1.05 1.05.45 1.05 1.45.4.9-.05 1.15M72.45 55.8q-.5-.45-.1-1.15l1.1-.65 6.8-.2.95.2m33 1.5q-2.95-2.65-5.95-4.5m-.7-.45q-7.9-4.65-16.25-4.05m24.85 10.7 3.3 3.55.7.9.15.2 2.65 4.2M138.1 99.3l-6.75 2.15-10.25 2.8-8.95 1.85-.2.05q-11.8 7.95-27.05 8.2-17.4.3-30-9.25l-4-3.55-.1-.05q-8.2-3.15-15.9-7.65M166 107.8q-1.65-.3-3.2 0l-1 .25m4.2-.25q.8-.8-.35-1.65l-3.4-.35-.3.05-.7.1q-1.75.45-3.45 1.8-.65 2.15.1 2.2l.45-.1q1.65-1.3 3.45-1.8m1.2 5.85 1.9-1.2q.9-.4.8.8l-.3 1.35q-1.85 1.4-3.75 1.85l-.65.1-3.4-.4-.45-.4q-.55-.65.1-1.25 1.6.3 3.2.05l1.85-.55.7-.35m-16.75-28.75q2.2-1.25 4.5-1.2m-4.5 1.2-.8.5q-1.4.95-2.7 2.35-.75 2.65.3 2.1l.25-.15q1.95-2.05 3.95-3.15 1.85-1.05 3.85-1.3.8-1.05-.35-1.55M154 91.7q2.25-.85 4.55-.8l.15.05q1.3.5.35 1.5H159q-2.3.2-4.5 1.15-2.75 1.15-5.3 3.3l-.85.25q-.45-.2 0-1.65l.15-.55q2.25-1.9 4.6-2.9l.9-.35m4.75 6.5 3.6-.1q1.1.6.55 1.4m-4.95-1.05.8-.25m.2 2.05q-2.3.8-4.45 2.65l-.25.1q-1.1.35-.3-2.15 1.95-1.7 4-2.4m1 1.8q1.85-.65 3.75-.55l.2-.2m-49.6 5.15.95-.65q12-10.05 12-24.25 0-6.65-2.65-12.4m-19.55 7.4q1.8-2.7 2.9-6.8l.35-1.4q.7-.5.95.55m-2.3 10.65q1.8 3.2 3.2 7.6 1.05 3.1.35 3.5m-14.05-3.1q-.6-.1-.05-1.6 3.7-2.95 6.4-6.3l.7-.9q.45.35 1.35 2.6 2.05 2.95 3.65 7.4l.7 1.5q.9.6 1.3.4M95 66.65q-.2-.85 1-.8l1.65 1.4.2.2q3.3 3 6.2 7.3l1.5 2.3q2.5-4.25 2.85-8.6l-.05-.4-.1-.95m-2.7 9.95.4.7M95 66.65l.2.6.35.55q3.8 3.85 6.95 9.15m-7.05 8.8q.4.1 1.3-.4 4.15-2.7 7.1-5.8M98.5 98.5l1.1-4.15.6-1.6q1.25-1.45 1.7 1.8-.55 2.65-1.5 4.85m6.3 3.1q1.4-2.55 1.8-4.75l.6-1.35q1.25-1.25 1.7 1.5-.7 2.75-2 4.95-1.4 2.4-3.5 4.1l-.15.2q-.45.5-.9.5l-.6-.3-.05-.05v-1q1.8-1.7 2.8-3.25l.3-.55m-16.9-6.85-.05 1.1m8.35 2.65.4-.9m-8.7-2.85L89.55 93q-.45-2.45-1.7-3.25-.9-.5-.9 1.35l-.15 5.25-.1.9q-.3 2.8-1.75 3.45t.05 2l.65.35q.9.3 1.25-.35 2.55-2.1 2.85-5.95m8 3.45.35-.8m-.35.8-2.05 3.1-1 1.15v1.2l.6.4q.55.1 1.1-.8 2.45-2.4 4-5.85m11.55 6.75.15-.15M52.75 59.6l.7-.65 1-.8.8-.65 7.5-5.2 1.1-.75q6.95-4.45 15.25-5l1.6-.1M46.55 67.8q1.95-3.95 5.1-7.15l1.1-1.05m.8 38.6q-1.05-1.9-1.65-4.15-.5-2.15.4-2.6.7-.25 1.4 1.5 1.1 2.8 2.4 5.25m4.35-1.55q-.35-1.75-.25-3.7.15-2.15 1.2-2.6.8-.25.95 1.5l.65 4.7M72.95 95l.2-2.3m-.7-36.9.8.4.1.15q2.85-.3 5.6.05l4.95 1.15 1.5.1M45.05 71.3v.1q-1.5 4.2-1.8 9.2-.7 11.2 5.9 18.95M60.7 97.7l-.25-1.05m2.85 1.3-.3-1.4m-12.1 5-.1-.15m-1.15-1.25-.5-.6m10.95 4.75.1-.05q.9-.9-.75-1.85-1.5-.85-2.7-3l-.65-1.2m-1.9 1.1-.65-1.1m.65 1.1q1.6 2.5 4.1 4.45l.4.35 1 .3.4-.1m5.3-1.15q-1.25.45-1.75-.5-2.1-2.15-2.95-4.95m14.9-4.8-.1 2.35.1 1.4 1 4.45q.3 1.2-.05 1.45l-.35.05q-1.2-.5-2.1-2.6-.9-2.15-1.1-4l-.05-1m2.65-2.1q.15-.85.55-1.2 1-.95-.45-1.8-1.4-.5-1.6.45-.7 1.1-.95 2.35m-7.75 10.45q1.15-.9-.2-1.85-1.3-.9-1.9-3.35m-32.45-21.1-1.65-1-.5-.1q-.9-.1-.6 1.05l.3.85.45.05q.45.1.95.35l.15.05.15.1.55.4.1.1q1 .9 1.8 2.6l.4-.15q.4-.35 0-1.45l-1.4-2.1-.05-.05v-.05l-.65-.65m-6.1 4.7 1.5 2.05.05.2q.25.65.15 1l-.2.25-.45.15q-.75-1.45-1.7-2.3l-.3-.3q-.1-.1-.15-.1l-.35-.25m-5.75 5.55q1.05.9 2 2.2.75 1.5-.5 1.6m-8.1 2.85q1.15.85 2.2 2.15.9 1.5-.55 1.6m-6.5 4.85q1.4 1.4 3.35 2.05.5 1.45 0 1.75M24.7 81.5l.05.05m-.05-.05-.15-.15-.75-.7q-1.1-.85-2.3-1-1.35-.15-.35 1.9 1.05.05 1.95.6l.2.1M16.45 87l.85.6m-1.15 1.15.35.25q1.4.9 2.55 2.6M16 88.7l.15.05m-6.1 5.1.9.6m6.6-6.65-.25-.2m-4 .35q-1.25-2.05.4-1.9 1.45.15 2.75.95M16 88.7q-1.25-.65-2.7-.75m-3.25 5.9q-1.65-1-3.5-1.2-1.7-.15-.65 1.6l.2.3q2.05.1 3.8 1.15 1.5.9 2.7 2.5m-7.1 4.15.55.65m-2.9-1.7 1.6 2.65 1.4 1.45q1.05.9 2.35 1.45.65.2.95 0m-3.95-4.5L4.1 99.9q-1.45-.3-.95 1.4m2.95 1.75-.05-.05" fill="none" stroke="#000" stroke-linecap="round" stroke-linejoin="round" stroke-opacity=".4" stroke-width=".5"/><path d="m24.3-9.95-.7-.45m8.6 2.05.7.25m-.7-.25-7.9-1.6m-44.4.55-9.45 1.15" fill="none" stroke="#000" stroke-linecap="round" stroke-linejoin="round" stroke-opacity=".4" transform="translate(83.95 60.95)"/><path d="M8.15-23.95q14.5-.7 29.2 1.55m-62.8 1.4q16.1-3.2 32.3-3.45" fill="none" stroke="#fdb100" stroke-linecap="round" stroke-linejoin="round" stroke-opacity=".4" transform="translate(83.95 60.95)"/><path d="M41.05 27.15q-2.05-4.05-3-8.9m5.05 27.3-2.15-16.1L42 28.9l-.95-1.75m2 1.15q.95 5.2 2.25 9.45l1.6 4.7 1.2 2.75m-6.3-3.25-3.75-10.2M37.6 45.6l-.25-.15-1-.45-4.6-2.8-.3-.2m10.75 1.05.9 2.5.75 5.85 3.85 8.55m-5.5-16.9-.4-1.1m-8.6-6.8q2.5 2.85 4.9 4.8l1.85 1.35m3.9 10.1q-5.7-1.7-11.35-4.9l-4.65-2.85-1.7-1.15-1.05 1.15L24 44.8l.75 1q2.8 3.6 6.2 6.35 1.3 1.1 2.75 2.05 2.95 1.9 6.25 3.25l-10.1-2.35v2.75q4.85 3.8 11.1 4.05l-2.35 1.35m4.35-2.5-2 1.15m6.35-1.25.4-.7M24 48.4l3.15 2.05m26.65-21.2q-.05 2.55-.45 5m-4.7-11.4.45 3.2 1.15 14.85m5.3.45L53 45.75m-11.7-28.8 3.7 12.9M122.35 42.8l-.15.75-2.55 10 5.95-10.45 1.05.7m.05 0 1.15.75-6.45 12.4 1.75-1.45q6.5-5.65 10.15-11l1.45-1.6.6-.5 1.3-1 4.55-3.3q5.55-3.75 11.4-6.2m-15.05 5.8-6.35 6.7m-11.75 16.35 1.95-3.8m-1.1 4.9 4.4-1.2 2.45-.7 4.8-3.7 4.7-3.65-.45-.65-.4-.6-.85-1.2-4.3 2.8 5.05-6.5-1.2-.95-1.2-1m-6.6 16.25-2-.1m2.45-.7 7.1-1.95 14.5-3.35q4.45-.9 7.75-4.9M136.6 55l-4.65 1.25m7.9-2.45 4.55-2.05 4.4-2.3m-8.95 4.35L136.6 55m17.5-19.75-9.65 7.25-8.65 8.85m11.1-4.45 1.65-1.6m-6.45 17.75h-5.3l1.9-3.55q-6 1.45-12 1.25m20.2-13.85-7.05 6.9" fill="none" stroke="#686815" stroke-linecap="round" stroke-linejoin="round" stroke-opacity=".4" stroke-width=".5"/><path d="m73.2-42.5 2.05 1.85q-7.75 1.9-15.5 10.85l-5.65 6.05.35.1Q62.1-27.5 67.8-33l.85 3.95q6.75-1.9 9.95-5.8L79.75-33q-3.9 4.2-9.6 7.3l1 1.3-3.7 4.95 1.3.45 5.75-4.65.6 1.5-3.9 4.1 1.95.75q3.25 1.3 2.7 4.45l-.2.75-.95 2.6Q71.35.3 72.15 9.2l5 12.65q.35 2.1.1 3.75-.3 2.1-1.45 3.45l.9 1.05q8 8.65 6.5 18.4-.5 3.45-1.55 5.45V54q-.7 1.25-1.55 1.9l-.3 1.75q-2.15 1.65-4.4 1.95l-.9.05-.8.45q-14.15 2.35-15.45-10.4l-4.1-11.35-6.75 2.15-10.25 2.8-8.95 1.85-.2.05Q16.2 53.15.95 53.4q-17.4.3-30-9.25l-4-3.55-.1-.05q-8.2-3.15-15.9-7.65-6.05 13.6-17.15 19.25-5.55 2.2-8.85-1.15-2.1-.9-3.6-2.85l-1.55-2.65h-.05q-4.7-3.65-2.55-13.85 11.25-13.4 25.15-17.1.25-2.4.25-5.35l-4.5-14.75v-.05q-2.9-3.25-5.4-8l1.75-2.55 4.9 3.15.2-.4-1.95-3.25q-5-9.1-7.8-19.5l1.35-2.15q6.45 12.4 16.35 19.35-8.85-13.6-14.05-29.05l1.75-2.5q3.15 9.4 9.15 18.25l4.9 6.45q-2.95-12.3-9.55-21.8l1.95-1.15q6 6.05 11.1 16.6l1.1 2.4.25.55-.2-.55q-2.6-7.1-2.95-17.1h2.55l.6 4.15 1.1-.4.05-.05 2.1-.85q-2.5-8.15-6.6-14.7l1.95-1.75q5.7 8.15 10.5 18.85l1.5 3.5q-1.1-6.3-3.45-10.85l2.35-1q3.55 7.4 5.55 15.2l.7 3.05q.15-5.65-1.4-11.65H-30q2.9 7.1 2.7 14.2l-.35 3.1q35.55-7.85 70.8-.4 2.8-4.3 6-7.45l1.45 1.1q-3.5 2-4.45 7l.9.25 18.3-13.25 7.85-3.7m4.05 99.2-.05.1.2-.1-.1-.05-.05.05M-67.8 27.8l-.15-.05-.05.3.2-.25m6.95-6.6-.1.35.3-.25-.2-.1m1.45-.85v.05l.15.15-.15-.2m-7 6.5-.2-.2h-.05l.25.2m-11.5 15.2.05.05v-.05h-.05m.5 5.45.3.2-.15-.4-.15.2" fill="url(#bv)" fill-rule="evenodd" transform="translate(83.95 60.95)"/><path d="M3.25-30q-15.4.5-30.9 3.95l.35-3.1q.2-7.1-2.7-14.2h-1.55q1.55 6 1.4 11.65l-.7-3.05q-2-7.8-5.55-15.2l-2.35 1q2.35 4.55 3.45 10.85l-1.5-3.5q-4.8-10.7-10.5-18.85l-1.95 1.75q4.1 6.55 6.6 14.7l-2.1.85-.05.05-1.1.4-.6-4.15h-2.55q.35 10 2.95 17.1l.2.55-.25-.55-1.1-2.4q-5.1-10.55-11.1-16.6l-1.95 1.15q6.6 9.5 9.55 21.8l-4.9-6.45q-6-8.85-9.15-18.25l-1.75 2.5q5.2 15.45 14.05 29.05-9.9-6.95-16.35-19.35l-1.35 2.15q2.8 10.4 7.8 19.5l1.95 3.25-.2.4-4.9-3.15-1.75 2.55q2.5 4.75 5.4 8v.05l4.5 14.75q0 2.95-.25 5.35-13.9 3.7-25.15 17.1-2.15 10.2 2.55 13.85h.05l1.55 2.65q1.5 1.95 3.6 2.85 3.3 3.35 8.85 1.15 11.1-5.65 17.15-19.25 7.7 4.5 15.9 7.65l.1.05 4 3.55q12.6 9.55 30 9.25Q16.2 53.15 28 45.2l.2-.05 8.95-1.85 10.25-2.8 6.75-2.15 4.1 11.35q1.3 12.75 15.45 10.4l.8-.45.9-.05q2.25-.3 4.4-1.95l.3-1.75q.85-.65 1.55-1.9v-.05q1.05-2 1.55-5.45 1.5-9.75-6.5-18.4l-.9-1.05q1.15-1.35 1.45-3.45.25-1.65-.1-3.75l-5-12.65Q71.35.3 74.7-9.5l.95-2.6.2-.75q.55-3.15-2.7-4.45l-1.95-.75 3.9-4.1-.6-1.5L68.75-19l-1.3-.45 3.7-4.95-1-1.3q5.7-3.1 9.6-7.3l-1.15-1.85q-3.2 3.9-9.95 5.8L67.8-33q-5.7 5.5-13.35 9.35l-.35-.1 5.65-6.05q7.75-8.95 15.5-10.85L73.2-42.5l-7.85 3.7-18.3 13.25-.9-.25q.95-5 4.45-7l-1.45-1.1q-3.2 3.15-6 7.45-18.85-4-37.8-3.6-1.05 2.45-2.1.05m-62.5 50.55-.15-.15v-.05l.15.2m-1.6.65.2.1-.3.25.1-.35M-68 28.05l.05-.3.15.05-.2.25m1.4-1.4h-.05l.25.2-.2-.2m-11.3 15.4h.05v.05l-.05-.05m.5 5.45.15-.2.15.4-.3-.2m154.6 9.3.2-.1-.1-.05-.05.05-.05.1" fill="none" stroke="#000" stroke-linecap="round" stroke-linejoin="round" stroke-opacity=".4" transform="translate(83.95 60.95)"/></g></defs></svg>