<svg viewBox="0 0 84.517 53.821" xmlns="http://www.w3.org/2000/svg" xmlns:xlink="http://www.w3.org/1999/xlink"><use transform="translate(0 -.02)" width="84.5" height="53.85" xlink:href="#a"/><defs><linearGradient id="b" x1="-819.2" x2="819.2" gradientTransform="matrix(.0203 -.0098 .0042 .0087 -14.9 -13.55)" gradientUnits="userSpaceOnUse"><stop stop-color="#c0993f" offset="0"/><stop stop-color="#e1cea6" offset="1"/></linearGradient><linearGradient id="c" x1="-819.2" x2="819.2" gradientTransform="matrix(.0068 -.0018 .0013 .005 -11.7 -13.95)" gradientUnits="userSpaceOnUse"><stop stop-color="#665222" offset="0"/><stop stop-color="#403315" offset="1"/></linearGradient><linearGradient id="d" x1="-819.2" x2="819.2" gradientTransform="matrix(-.0153 0 0 -.0091 -25 -1.25)" gradientUnits="userSpaceOnUse"><stop stop-color="#8f7330" offset="0"/><stop stop-color="#665122" offset="1"/></linearGradient><linearGradient id="e" x1="-819.2" x2="819.2" gradientTransform="matrix(.0019 0 0 .0028 -25.1 -4.95)" gradientUnits="userSpaceOnUse"><stop stop-color="#666" offset="0"/><stop stop-color="#404040" offset=".988"/></linearGradient><linearGradient id="f" x1="-819.2" x2="819.2" gradientTransform="matrix(.0049 0 0 .007 -23.9 -6.1)" gradientUnits="userSpaceOnUse"><stop stop-color="#666" offset="0"/><stop stop-color="#404040" offset=".988"/></linearGradient><linearGradient id="g" x1="-819.2" x2="819.2" gradientTransform="matrix(-.0153 0 0 -.0091 -25 -1.25)" gradientUnits="userSpaceOnUse"><stop stop-color="#665222" offset="0"/><stop stop-color="#403315" offset="1"/></linearGradient><linearGradient id="h" x1="-819.2" x2="819.2" gradientTransform="matrix(0 -.0029 .0027 0 23.7 -21.1)" gradientUnits="userSpaceOnUse"><stop stop-color="#c0993f" offset="0"/><stop stop-color="#e1cea6" offset="1"/></linearGradient><linearGradient id="i" x1="-819.2" x2="819.2" gradientTransform="matrix(0 -.0053 .0054 0 20.75 -5.25)" gradientUnits="userSpaceOnUse"><stop stop-color="#efe3d1" offset="0"/><stop stop-color="#f3ebe0" offset="1"/></linearGradient><linearGradient id="j" x1="-819.2" x2="819.2" gradientTransform="matrix(-.009 .009 -.0148 -.0148 6.35 -7.95)" gradientUnits="userSpaceOnUse"><stop stop-color="#e4d0b1" offset="0"/><stop stop-color="#d8ba8d" offset=".988"/></linearGradient><linearGradient id="k" x1="-819.2" x2="819.2" gradientTransform="matrix(.0081 -.0046 .0031 .0054 9.15 -19.35)" gradientUnits="userSpaceOnUse"><stop stop-color="#efe3d1" offset="0"/><stop stop-color="#f3ebe0" offset="1"/></linearGradient><linearGradient id="l" x1="-819.2" x2="819.2" gradientTransform="matrix(.0016 -.0016 .0047 .0047 22.25 -16.85)" gradientUnits="userSpaceOnUse"><stop stop-color="#8f7330" offset="0"/><stop stop-color="#665122" offset="1"/></linearGradient><linearGradient id="m" x1="-819.2" x2="819.2" gradientTransform="matrix(-.0138 .0071 -.0046 -.0089 26.25 8.3)" gradientUnits="userSpaceOnUse"><stop stop-color="#e4d0b1" offset="0"/><stop stop-color="#d8ba8d" offset=".988"/></linearGradient><linearGradient id="n" x1="-819.2" x2="819.2" gradientTransform="matrix(.0172 -.0072 .0022 .0051 18.65 4.75)" gradientUnits="userSpaceOnUse"><stop stop-color="#efe3d1" offset="0"/><stop stop-color="#f3ebe0" offset="1"/></linearGradient><linearGradient id="o" x1="-819.2" x2="819.2" gradientTransform="matrix(-.0052 .0021 -.0012 -.0029 29.7 13.4)" gradientUnits="userSpaceOnUse"><stop stop-color="#d7b88a" offset="0"/><stop stop-color="#b59260" offset=".988"/></linearGradient><linearGradient id="p" x1="-819.2" x2="819.2" gradientTransform="matrix(.0017 .0064 -.0052 .0014 -.6 18)" gradientUnits="userSpaceOnUse"><stop stop-color="#d7b88a" offset="0"/><stop stop-color="#b59260" offset=".988"/></linearGradient><linearGradient id="q" x1="-819.2" x2="819.2" gradientTransform="matrix(0 -.0037 .0034 0 0 11.7)" gradientUnits="userSpaceOnUse"><stop stop-color="#c59856" offset="0"/><stop stop-color="#916a33" offset=".988"/></linearGradient><linearGradient id="r" x1="-819.2" x2="819.2" gradientTransform="matrix(-.0008 -.003 .0014 -.0004 -8.9 -4.45)" gradientUnits="userSpaceOnUse"><stop stop-color="#665222" offset="0"/><stop stop-color="#403315" offset="1"/></linearGradient><linearGradient id="s" x1="-819.2" x2="819.2" gradientTransform="matrix(.003 -.0052 .0054 .0031 -8.8 10.8)" gradientUnits="userSpaceOnUse"><stop stop-color="#d7b88a" offset="0"/><stop stop-color="#c59856" offset=".988"/></linearGradient><linearGradient id="t" x1="-819.2" x2="819.2" gradientTransform="matrix(-.0005 -.0021 .0058 -.0015 -10.75 4.5)" gradientUnits="userSpaceOnUse"><stop stop-color="#c59856" offset="0"/><stop stop-color="#916a33" offset=".988"/></linearGradient><g id="a"><path d="M-40.85-7.8v-.25q-.1-1.7 3.6-3.4 8.9-3.75 16-5.5v1.55q-20.05 5.05-17 7.65.7.8 3 1l-1.85.85-.75-.95-.7.7q-1.8-.7-2.3-1.65m5.3 3.05 3.25-2 3.5-.35-.95 1.55.9.7-.15.05q-3.1.75-6.55.05" fill="url(#b)" fill-rule="evenodd" transform="translate(42.25 26.95)"/><path d="M-21.25-15.4v3.55q-4.65.5-7.55 4.75l-3.5.35 2.25-.9-2.4.05-2.8.85q-2.3-.2-3-1-3.05-2.6 17-7.65" fill="url(#c)" fill-rule="evenodd" transform="translate(42.25 26.95)"/><path d="M-21.25-11.85v.65q-1.95 1.45-3.5 3.45L-27.85-4l-1-.85-.9-.7.95-1.55q2.9-4.25 7.55-4.75m-20 13.95-.5-.45q.7-2.7 1.95-4.7l1.45-1.9.6-.6.65-.35 1.85-.85 2.8-.85q-4.1 2.15-5.4 3.6-2.05 2.25-3.4 6.1m17.7-9.25-.1-.05.1-.05v.1m-.1-.05q-1.8 1.7-3 4.05h-.05l-.6-.45q2.15-3.05 3.65-3.6" fill="#898989" fill-rule="evenodd" transform="translate(42.25 26.95)"/><path d="m-39.35.4-1 2.55-.9-.85q1.35-3.85 3.4-6.1 1.3-1.45 5.4-3.6l2.4-.05-2.25.9-3.25 2-.4.3-1.1 1.1Q-38.4-1.8-39.35.4" fill="#434343" fill-rule="evenodd" transform="translate(42.25 26.95)"/><path d="M-21.25-1.95v7.4l-5.95.65-2-2.4 3.05-3.95 3.3 2.05q1.1-.95 1.6-3.75M-34.4 6l-3.75-.45-1.2-1.4.05-2.05 2.35-2.95 4.1 4.75L-34.4 6m2.9-5.05-4.45-5.4.4-.3q3.45.7 6.55-.05l-.65 1.15 1.45 1.25-2.85 3.85-.45-.5" fill="url(#d)" fill-rule="evenodd" transform="translate(42.25 26.95)"/><path d="m-27.2 6.1 2.25 2.75-.8.9-4.05-5.15.5-1 .1.1 2 2.4m-7.25 3.45 2.1 1.9-.6.85-2.15-1.8.65-.95M-39.5 7.4l.45-.95 2.8 2L-34.4 6l1.55-2.1.75-1 1.05-1.45 2.85-3.85.9-1.2.6.45-9.4 13.05-3.4-2.5m3.2-11.5.35-.35 4.45 5.4-.45.5-4.35-5.55" fill="#960" fill-rule="evenodd" transform="translate(42.25 26.95)"/><path d="m-25.75 9.75-.5.5-3.25-4.05-1.45-1.85 1.05-1.45-1.05 1.45-1.25 1.8-2.35 3.3.1.1-.65.95 2.15 1.8-.4.55-6.4-5 .25-.45 3.4 2.5 9.4-13.05h.05l.65.5-3.9 5.55.6.7-.5 1 4.05 5.15m-12.8-15.9.7-.7.75.95-.65.35-.6.6-.7-.8.5-.4m2.25 2.05 4.35 5.55.45-.5.45.5-1.05 1.45-4.95-6.25.75-.75" fill="#6f4a00" fill-rule="evenodd" transform="translate(42.25 26.95)"/><path d="m-39.8-3.05-1.05-4.75q.5.95 2.3 1.65l-.5.4.7.8-1.45 1.9" fill="#6d5724" fill-rule="evenodd" transform="translate(42.25 26.95)"/><path d="m-23.65-7.2.1.05q-.3 1.85-2.45 4.5l-.65-.5q1.2-2.35 3-4.05" fill="url(#e)" fill-rule="evenodd" transform="translate(42.25 26.95)"/><path d="M-21.25-11.2v8.6q-.65 1.2-1.6 2.25L-26-2.65q2.15-2.65 2.45-4.5v-.1l-.1.05q-1.5.55-3.65 3.6l-.55-.4 3.1-3.75q1.55-2 3.5-3.45" fill="url(#f)" fill-rule="evenodd" transform="translate(42.25 26.95)"/><path d="M-21.25-2.6v.65q-.5 2.8-1.6 3.75l-3.3-2.05-3.05 3.95-.1-.1-.6-.7 3.9-5.55 3.15 2.3q.95-1.05 1.6-2.25m-8.25 8.8-2.7-.05 1.25-1.8 1.45 1.85m-9.8-4.1-.05-1.7q.95-2.2 2.3-3.75l4.95 6.25-.75 1-4.1-4.75-2.35 2.95M-27.85-4l.55.4-.9 1.2-1.45-1.25.65-1.15.15-.05 1 .85" fill="url(#g)" fill-rule="evenodd" transform="translate(42.25 26.95)"/><path d="M1.4 18.9q-.1-1.7 3.6-3.4 8.9-3.75 16-5.5m0 22.4-5.95.65 2.25 2.75-.8.9-.5.5-3.25-4.05-2.7-.05-2.35 3.3.1.1 2.1 1.9-.6.85-.4.55-6.4-5 .25-.45.45-.95 2.8 2 1.85-2.45-3.75-.45-1.2-1.4.05-2.05-.05-1.7-1 2.55-.9-.85-.5-.45q.7-2.7 1.95-4.7L1.4 19.15m2.3 1.65.7-.7.75.95L7 20.2q-2.3-.2-3-1-3.05-2.6 17-7.65m-11.2 7.8L7 20.2m-.7 2.3-1.1 1.1 4.95 6.25 1.05-1.45-.45-.5-4.45-5.4.4-.3 3.25-2 2.25-.9-2.4.05m-4.65 1.7-.65.35-.6.6-1.45 1.9m1.25-3.1-.5.4.7.8m14.8-2.2v-.1l-.1.05m-2.35 4.55q2.15-2.65 2.45-4.5m-3.75 3.55q2.15-3.05 3.65-3.6m-4.55 4.8.9-1.2m4.45 3.25q.95-1.05 1.6-2.25m0-9.25q-4.65.5-7.55 4.75l-.95 1.55m.95-1.55-3.5.35m3 10.35-.6-.7-1.05 1.45 1.45 1.85m2.3-.1-2-2.4-.1-.1m-3.55.3-1.55 2.1m2.3-3.1-.75 1m.65 2.25 1.25-1.8m2.75-6.75L11.2 28.4m1.15 1.45 3.9-5.55M2.9 27.35q.95-2.2 2.3-3.75" fill="none" stroke="#000" stroke-linecap="round" stroke-linejoin="round" stroke-opacity=".4" stroke-width=".5"/><path d="m15.6 23.8.65.5 3.15 2.3m-5-3.65.55.4.6.45h.05m-2.2-1.7 1 .85m-1.9-1.55.9.7" fill="none" stroke="#000" stroke-linecap="round" stroke-linejoin="round" stroke-opacity=".4" stroke-width=".5"/><path d="m22.15-25.25.1.2 1.8 7.2 1.5 3.5q.7 1.15.2 1.75l-2.8-5.45-1.5-5.4.7-1.8" fill="url(#h)" fill-rule="evenodd" transform="translate(42.25 26.95)"/><path d="m22.25-10.2.9 3.75-1.8 2.1 2.1-1q.25 3.25 1.7 5.4-2.9 1.8-5.7 3.2l.3-5.75-3 3.35-.4-6.9.3.2q1.7 0 .6-1.2l-.9-.5 1.5-9.3 1.3-2.75q1.75 4.55 3.1 9.4" fill="url(#i)" fill-rule="evenodd" transform="translate(42.25 26.95)"/><path d="m18.65-20.95.5 1.35-1.3 2.75-1.5 9.3-1.7-.9 1-3.1q.3-.9-.7-.2l-1.1 2.8-3.8-2q-.95.45 0 1.3l3.5 2-1.6 4.7q0 1.3.8 1l1.6-5.3 2 1.2.4 6.9 3-3.35-.3 5.75-3.1 1.45.2-2.05q-.5-1.2-1 0l.05 2.4-6.3 2.1-.65-4.5q-.9-1.3-1 .5L8.2 7.4q-4.85 1.1-9.45.85-1.6.1-1.55 3.25l-1.6-.5-1.4-3.8-.1-1.55-.55-4.45q-1.15-6.8-3-10.65l-.2-.4-2.4-.5-1.85.45-1.65.35L-13.9-12q2.75 1.15 5.95 1.85l6.8-.6q5.65-1.3 8.55-3.35l-3.15.65q6.7-2.8 10.1-6.55-3.65 4.5-9.5 8.5l3.9-1.65 7.55-5.3 2.1-3.15.25.65M1.35-7.05l-4.6-2.6q-1.25-.4-.7 1l4.8 2.7q1.6.05.5-1.1m5.1 6.9q1.25.95 1-.8l-2.9-4.1q-1.35-.45-1.1 1.1l3 3.8" fill="url(#j)" fill-rule="evenodd" transform="translate(42.25 26.95)"/><path d="M-3.5-11.75q6.65-2.65 12.15-6.2l8-4.8.8.5.9.6.05.05-2.1 3.15-7.55 5.3-3.9 1.65q5.85-4 9.5-8.5-3.4 3.75-10.1 6.55l3.15-.65q-2.9 2.05-8.55 3.35l-6.8.6q-3.2-.7-5.95-1.85 5.7.6 10.4.25l6.45-1.05-6.45 1.05" fill="url(#k)" fill-rule="evenodd" transform="translate(42.25 26.95)"/><path d="M-21.25-11.85v-3.55l5.2-1.25q34.65-10.9 35.8-7.8-.65.95-2.3 2.2l-.8-.5-8 4.8q-5.5 3.55-12.15 6.2-4.7.35-10.4-.25l-1.65 2.45-4.35.95q-.1-1.55-.5-3.2l-.05-.15-.8.1" fill="url(#c)" fill-rule="evenodd" transform="translate(42.25 26.95)"/><path d="M-21.25-15.4v-1.55l5.7-1.2q4.3-1.05 8.4-2.7 8.85-3.2 22.5-5.5 5.75-.4 6.8 1.1l-.7 1.8q-.9 1.5-2.8 2.5l-.25-.65-.05-.05-.9-.6q1.65-1.25 2.3-2.2-1.15-3.1-35.8 7.8l-5.2 1.25m7.35 5.5q2.5.2 2.7 1.2-4.15 1.65-8.8 2.35l.1-2.25 4.35-.95 1.65-.35" fill="url(#b)" fill-rule="evenodd" transform="translate(42.25 26.95)"/><path d="m25.75-12.6-.2.15-3.3 2.25q-1.35-4.85-3.1-9.4l-.5-1.35q1.9-1 2.8-2.5l1.5 5.4 2.8 5.45" fill="url(#l)" fill-rule="evenodd" transform="translate(42.25 26.95)"/><path d="m16.35-7.55.9.5q1.1 1.2-.6 1.2l-.3-.2-2-1.2-1.6 5.3q-.8.3-.8-1l1.6-4.7-3.5-2q-.95-.85 0-1.3l3.8 2 1.1-2.8q1-.7.7.2l-1 3.1 1.7.9" fill="#900" fill-rule="evenodd" transform="translate(42.25 26.95)"/><path d="m6.45-.15-3-3.8q-.25-1.55 1.1-1.1l2.9 4.1q.25 1.75-1 .8m-5.1-6.9q1.1 1.15-.5 1.1l-4.8-2.7q-.55-1.4.7-1l4.6 2.6m15 11.75q-.4.15-.75.35l-.05-2.4q.5-1.2 1 0l-.2 2.05M9.3 7.15l-1.1.25-.55-4.25q.1-1.8 1-.5l.65 4.5" fill="#333" fill-rule="evenodd" transform="translate(42.25 26.95)"/><path d="m39-4.6.05.05 1.9 3.7-3.3 4.2 4.1-1.8q.15 4.3-1 8.4h-3.2L35.7 11.5l-25.2 6.75q-3.1 1.25-6.15 3.7l.2-1.85-.2-2.65 4.2-2.5-4.7.9L2.8 12.5l-.45-1.05q9.75-.6 19.8-3.2Q34.8 1.95 39-4.6M25.55 8.95l12.1-5.6-12.1 5.6m10.4.5-24.7 7.2 24.7-7.2" fill="url(#m)" fill-rule="evenodd" transform="translate(42.25 26.95)"/><path d="M25.15.05q4.6-2.95 9.4-6.9 2.9.45 4.45 2.25-4.2 6.55-16.85 12.85-10.05 2.6-19.8 3.2-1.5-3.05-3.6-3.2 4.6.25 9.45-.85l1.1-.25 6.3-2.1q.35-.2.75-.35l3.1-1.45q2.8-1.4 5.7-3.2" fill="url(#n)" fill-rule="evenodd" transform="translate(42.25 26.95)"/><path d="m40.75 9.95-.7 2.1-4 .9-1.2.8q-12.45 2.3-24.9 6.1-4.15 1.95-7.2 6 1.15-1.85 1.6-3.9 3.05-2.45 6.15-3.7l25.2-6.75 1.85-1.55h3.2" fill="url(#o)" fill-rule="evenodd" transform="translate(42.25 26.95)"/><path d="M2.75 25.85q-2.3 1.35-5-.6l-3.3-8.5v-1.4q0-4.55-.25-8.15l1.4 3.8 1.6.5q.1 2.5 1.25 7.05 1.1 2.7 2.9 3 .7-.9 3.2-1.45l-.2 1.85q-.45 2.05-1.6 3.9" fill="url(#p)" fill-rule="evenodd" transform="translate(42.25 26.95)"/><path d="m2.8 12.5 1.05 3.35 4.7-.9-4.2 2.5.2 2.65q-2.5.55-3.2 1.45.55-1.05-.7-5.3l-.9-2.7q.75.25 3.05-1.05" fill="#d7b88a" fill-rule="evenodd" transform="translate(42.25 26.95)"/><path d="m-14.45 18.85-2.8 1.2q1.75-3.45 2.2-7.45.25-2.15.2-4.45l1.5.3h.05v5.1l-1.15 5.3m15.1-2.6q1.25 4.25.7 5.3-1.8-.3-2.9-3 .7-2.15 2.2-2.3" fill="#e4d0b1" fill-rule="evenodd" transform="translate(42.25 26.95)"/><path d="M-1.25 8.25q2.1.15 3.6 3.2l.45 1.05Q.5 13.8-.25 13.55l.9 2.7q-1.5.15-2.2 2.3Q-2.7 14-2.8 11.5q-.05-3.15 1.55-3.25" fill="url(#q)" fill-rule="evenodd" transform="translate(42.25 26.95)"/><path d="M-21.25-11.2v-.65l.8-.1.05.15-.85.6" fill="#898989" fill-rule="evenodd" transform="translate(42.25 26.95)"/><path d="M-21.25-2.6v-8.6l.85-.6q.4 1.65.5 3.2l-.1 2.25q-.3 1.9-1.1 3.55l-.15.2" fill="url(#f)" fill-rule="evenodd" transform="translate(42.25 26.95)"/><path d="M-21.25-1.95v-.65l.15-.2-.15.85" fill="url(#g)" fill-rule="evenodd" transform="translate(42.25 26.95)"/><path d="m-15.2 4.1-6.05 1.35v-7.4l.15-.85q.8-1.65 1.1-3.55 4.65-.7 8.8-2.35l.15-.05L-8.45 2q-3.3 1.25-6.75 2.1" fill="url(#d)" fill-rule="evenodd" transform="translate(42.25 26.95)"/><path d="m-11.05-8.75-.15.05q-.2-1-2.7-1.2l1.85-.45 2.4.5.2.4-1.6.7" fill="#6d5724" fill-rule="evenodd" transform="translate(42.25 26.95)"/><path d="m-11.05-8.75 1.6-.7q1.85 3.85 3 10.65l-2 .8-2.6-10.75" fill="url(#r)" fill-rule="evenodd" transform="translate(42.25 26.95)"/><path d="m-5.55 15.35-6.3 2.5v-4.4l-1.8 5-.8.4 1.15-5.3V8.4l7.4-2.75.1 1.55q.25 3.6.25 8.15" fill="url(#s)" fill-rule="evenodd" transform="translate(42.25 26.95)"/><path d="M-14.85 8.15q-.05-2-.35-4.05 3.45-.85 6.75-2.1l2-.8.55 4.45-7.4 2.75-.05.05-1.5-.3" fill="url(#t)" fill-rule="evenodd" transform="translate(42.25 26.95)"/><path d="m-13.35 8.45.05-.05v.05h-.05" fill="#efe3d1" fill-rule="evenodd" transform="translate(42.25 26.95)"/><path d="m64.4 1.7.1.2 1.8 7.2 1.5 3.5q.7 1.15.2 1.75l-.2.15-3.3 2.25.9 3.75-1.8 2.1 2.1-1q.25 3.25 1.7 5.4 4.6-2.95 9.4-6.9 2.9.45 4.45 2.25l.05.05 1.9 3.7-3.3 4.2 4.1-1.8q.15 4.3-1 8.4l-.7 2.1-4 .9-1.2.8Q64.65 43 52.2 46.8q-4.15 1.95-7.2 6-2.3 1.35-5-.6l-3.3-8.5v-1.4l-6.3 2.5v-4.4l-1.8 5-.8.4L25 47q1.75-3.45 2.2-7.45.25-2.15.2-4.45-.05-2-.35-4.05L21 32.4M21 10l5.7-1.2q4.3-1.05 8.4-2.7Q43.95 2.9 57.6.6q5.75-.4 6.8 1.1M60.9 6l.5 1.35q1.75 4.55 3.1 9.4M59.7 4.7l-.8-.5-8 4.8q-5.5 3.55-12.15 6.2l6.45-1.05m15.45-8.8-.05-.05-.9-.6q1.65-1.25 2.3-2.2-1.15-3.1-35.8 7.8L21 11.55m37.6 7.85.9.5q1.1 1.2-.6 1.2l-.3-.2m3.1 9.3q2.8-1.4 5.7-3.2M60.65 5.35l.25.65m-4.3.95q-3.65 4.5-9.5 8.5m-3.5 4.45L39 17.3q-1.25-.4-.7 1l4.8 2.7q1.6.05.5-1.1m5.1 6.9q1.25.95 1-.8l-2.9-4.1q-1.35-.45-1.1 1.1l3 3.8m9.9-7.4-1.7-.9 1-3.1q.3-.9-.7-.2L56.1 18l-3.8-2q-.95.45 0 1.3l3.5 2-1.6 4.7q0 1.3.8 1l1.6-5.3 2 1.2m21.3 9.4-12.1 5.6M57.85 32q.35-.2.75-.35l.2-2.05q-.5-1.2-1 0l.05 2.4-6.3 2.1-1.1.25q-4.85 1.1-9.45.85 2.1.15 3.6 3.2m17.1-8.2-3.1 1.45m-7.05 2.45-.65-4.5q-.9-1.3-1 .5l.55 4.25m-3.65 12.7-.2-2.65 4.2-2.5-4.7.9-1.05-3.35q-2.3 1.3-3.05 1.05l.9 2.7q1.25 4.25.7 5.3.7-.9 3.2-1.45l-.2 1.85q-.45 2.05-1.6 3.9m.05-13.35-.45-1.05m8.9 5.2 24.7-7.2M21.15 24.15l-.15.2m.85-9.2L21.8 15l-.8.1m11.8 2.4-.2-.4-2.4-.5-1.85.45-1.65.35 1.65-2.45q5.7.6 10.4.25m-16.5 5.4q-.3 1.9-1.1 3.55m1.1-3.55.1-2.25q-.1-1.55-.5-3.2m4.85 2.25-4.35.95m11.45 10.6 2-.8q-1.15-6.8-3-10.65m3 10.65.55 4.45.1 1.55q.25 3.6.25 8.15m2.75-3.85Q39.4 35.3 41 35.2m-13.95-4.15q3.45-.85 6.75-2.1m6.9 16.55q-1.15-4.55-1.25-7.05M43.6 48.5q-1.8-.3-2.9-3" fill="none" stroke="#000" stroke-linecap="round" stroke-linejoin="round" stroke-opacity=".4" stroke-width=".5"/><path d="m22.25-25.05 1.8 7.2 1.5 3.5q.7 1.15.2 1.75l-.2.15-3.3 2.25.9 3.75-1.8 2.1 2.1-1q.25 3.25 1.7 5.4 4.6-2.95 9.4-6.9 2.9.45 4.45 2.25l.05.05 1.9 3.7-3.3 4.2 4.1-1.8q.15 4.3-1 8.4l-.7 2.1-4 .9-1.2.8q-12.45 2.3-24.9 6.1-4.15 1.95-7.2 6-2.3 1.35-5-.6l-3.3-8.5v-1.4l-6.3 2.5v-4.4l-1.8 5-3.6 1.6q1.75-3.45 2.2-7.45.25-2.15.2-4.45-.05-2-.35-4.05-6 1.7-12 2l2.25 2.75-1.3 1.4-3.25-4.05-2.7-.05-2.35 3.3 2.2 2-1 1.4-6.4-5 .7-1.4 2.8 2L-34.4 6l-3.75-.45-1.2-1.4.05-2.05-.05-1.7-1 2.55-1.4-1.3q.7-2.7 1.95-4.7l-1.05-4.75v-.25q-.1-1.7 3.6-3.4 12.65-5.35 21.7-6.7 4.3-1.05 8.4-2.7 8.85-3.2 22.5-5.5 5.75-.4 6.8 1.1z" fill="none" stroke="#000" stroke-linecap="round" stroke-linejoin="round" stroke-opacity=".4" transform="translate(42.25 26.95)"/></g></defs></svg>