<svg viewBox="0 0 198.2 161.27" xmlns="http://www.w3.org/2000/svg" xmlns:xlink="http://www.w3.org/1999/xlink"><use transform="translate(.01 -3.432)" width="202.4" height="171.1" xlink:href="#a"/><defs><g id="a" transform="translate(89.15 114.75)"><use transform="matrix(.9441 .2364 0 1 -76.957 -47.856)" width="151.9" height="68.3" xlink:href="#b"/><use transform="matrix(1.0441 .3958 -.2739 .6669 7.854 25.318)" width="30.65" height="23.4" xlink:href="#c"/><use transform="matrix(1.8421 .2553 .2471 -1.7831 -20.218 -35.6)" width="26.65" height="44.4" xlink:href="#d"/><use transform="matrix(1.0507 .2631 0 1 -75.398 -53.282)" width="151.9" height="68.3" xlink:href="#b"/><use transform="matrix(1.021 .4429 -.2263 .6901 -6.06 13.847)" width="30.65" height="23.4" xlink:href="#c"/><use transform="matrix(-1.7831 -.2471 .2471 -1.7831 102.25 -3.681)" width="26.65" height="44.4" xlink:href="#d"/><use transform="matrix(1.0961 .127 0 1 -77.35 -53.297)" width="151.9" height="68.3" xlink:href="#b"/><use transform="translate(-79 -56.35)" width="151.9" height="68.3" xlink:href="#b"/><use transform="translate(-80.35 -26.3)" width="40.3" height="50.5" xlink:href="#e"/><use transform="translate(19.35 -9.7)" width="30.65" height="23.4" xlink:href="#c"/><use transform="matrix(1 -.0549 0 1 50.8 6.934)" width="30.65" height="23.4" xlink:href="#c"/><use transform="translate(-89.15 -6.85)" width="34" height="33.4" xlink:href="#f"/><use transform="matrix(.7308 .1987 0 1 -76.402 -51.101)" width="30.45" height="39.05" xlink:href="#g"/><use transform="translate(-57 -33.95)" width="30.45" height="39.05" xlink:href="#g"/></g><g id="h"><path d="M60.1-19.95 46.7-25.2q-13.05-5.2-43.6-5.55l-.55-.1q-35.7-1.5-64.85 11.05l-.5.25q-7.1 4.9-9.85 10.5-1.75 3.55-.2 10.45 5.2 6.35 19.15 11.4 22.25 8.05 53.75 8.05T53.8 12.8Q66.4 8.25 71.9 2.6q.8-.85 1.8-6.25-.3-11.15-13.6-16.3M-75.15 3.65q-.8-2.05-.8-4.15v-6.15q0-11.4 22.25-19.45T.05-34.15 53.8-26.1q19.85 7.2 22 17.05l.15 22.95q-.35 2.3-1.7 4.4V2.75l-7.9 7.15Q31 26.4-11.65 22.8-58.4 18.7-73.4 3.35l-1.6-6.7-.15 7" fill="#5c3d00" fill-rule="evenodd" transform="translate(75.95 34.15)"/><path d="M74.25 18.3Q69.7 25.4 53.8 29.8 31.55 36 .05 33.35T-53.7 20.8q-18.1-8.1-21.45-17.15l.15-7 1.6 6.7q15 15.35 61.75 19.45 42.65 3.6 78-12.9l7.9-7.15V18.3" fill="#4b2d00" fill-rule="evenodd" transform="translate(75.95 34.15)"/><path d="M-72.65-9.05q2.75-5.6 9.85-10.5l.5-.25q29.15-12.55 64.85-11.05l.55.1q30.55.35 43.6 5.55l13.4 5.25q13.3 5.15 13.6 16.3-1 5.4-1.8 6.25-5.5-6.1-18.1-11.7Q31.55-19 .05-21.65T-53.7-18.1l-6.6 2.15Q-69.7-11-72.85 1.4q-1.55-6.9.2-10.45" fill="#2d1b00" fill-rule="evenodd" transform="translate(75.95 34.15)"/><path d="M149.65 30.5q-1 5.4-1.8 6.25-5.5 5.65-18.1 10.2Q107.5 55 76 55t-53.75-8.05Q8.3 41.9 3.1 35.55M.8 37.8Q0 35.75 0 33.65V27.5Q0 16.1 22.25 8.05T76 0t53.75 8.05q19.85 7.2 22 17.05m.15 22.95q-.35 2.3-1.7 4.4-4.55 7.1-20.45 11.5Q107.5 70.15 76 67.5T22.25 54.95Q4.15 46.85.8 37.8m14.85-19.6 6.6-2.15Q44.5 9.85 76 12.5t53.75 12.55q12.6 5.6 18.1 11.7" fill="none" stroke="#000" stroke-linecap="round" stroke-linejoin="round" stroke-opacity=".412" stroke-width=".05"/><path d="M136.05 14.2q13.3 5.15 13.6 16.3M3.1 35.55q-1.55-6.9.2-10.45m148.45 0 .15 22.95M15.65 18.2Q6.25 23.15 3.1 35.55" fill="none" stroke="#000" stroke-linecap="round" stroke-linejoin="round" stroke-opacity=".412" stroke-width=".05"/></g><g id="i"><path d="M6.45-7.55q1.1-.05 1.95-.4L8.6-8l2.5-.55q1.35 3.1 2.25 8.9.4 2.4.3 4.1v.1q-9.3 5.05-20.8 4.6V7.5q-2.9-7.85-1.7-11.55l.05-.15L6.45-7.55M-8.9 11.7l-.25-.1.25.1" fill="#666" fill-rule="evenodd" transform="translate(17 11.7)"/><path d="M-10.85 10.25h-4.35V10L-17-3.8l3.7-1.25.1.3q3.05 8.05 2.05 14.4l.3.6" fill-opacity=".29" fill-rule="evenodd" transform="translate(17 11.7)"/><path d="m8.65-9.55 1.65-.55.8 1.55L8.6-8q.7-.35.7-.8l-.65-.75M3.7-8.15l.4.2 2.15.4h.2L-8.8-4.2l-.05.15q-1.2 3.7 1.7 11.55v3.9l-1.75.3-.25-.1q2.1-2.95.05-8l-2.35-9.15q7.9-.8 15.15-2.6" fill="#333" fill-rule="evenodd" transform="translate(17 11.7)"/><path d="M8.65-9.55 8.4-9.7l-.95-.25 2.65-.5.2.35-1.65.55M-13.5-6.1 3.35-9.2l-.15.4q0 .35.5.65-7.25 1.8-15.15 2.6L-9.1 3.6q2.05 5.05-.05 8l-1.25-.45-.75-1.5q1-6.35-2.05-14.4l-.1-.3-.3-.95.1-.1" fill="#ccc" fill-rule="evenodd" transform="translate(17 11.7)"/><path d="M13.65 4.55q-.1 2.05-.9 3l-19.9 3.85V9.15q11.5.45 20.8-4.6" fill="#999" fill-rule="evenodd" transform="translate(17 11.7)"/><path d="m10.1-10.45-2.65.5.95.25.25.15.65.75q0 .45-.7.8l-.2.05q-.85.35-1.95.4h-.2l-2.15-.4-.4-.2q-.5-.3-.5-.65l.15-.4-16.85 3.1 1.35-2L8.9-11.7l1.2 1.25" fill="#fff" fill-rule="evenodd" transform="translate(17 11.7)"/><path d="m27.3 1.6-.2-.35L25.9 0 4.85 3.6l-1.35 2m23.8-4 .8 1.55q1.35 3.1 2.25 8.9.4 2.4.3 4.1m0 .1q-.1 2.05-.9 3L9.85 23.1l-1.75.3-.25-.1-1.25-.45-.75-1.5q1-6.35-2.05-14.4l-.1-.3-.3-.95.1-.1" fill="none" stroke="#000" stroke-linecap="round" stroke-linejoin="round" stroke-opacity=".412" stroke-width=".05"/></g><g id="j"><path d="m1.1 22.1-.25 2.05-.1.6-.25.9-2.2-2.85.05.5v.55l.15 1.3-2.8-5.55-.1-.2.1 2.25-1.3-4-.45-2.3q.05-.25-.05-.4l-.05-.25-.3-.65-.05-1-.05.05q-.4 2.7-1 2.85l.05-1.35.05-.15.45-1.55.2-.4.1-.25.4-.9q1.8 0 1.75 3.65l.75-1.25.8 5.6 1.05-.7.45 1.8 1-.15-.7-1.65 2.3 3.45" fill="#9f773c" fill-rule="evenodd" transform="translate(18.35 11.6)"/><path d="m-1.5 25.15.45 2.6q.5 2.95-.25 4.75l-.3-.35q0-.25-1.1-2.05l.2 1.15q.05 1-.3 1.55l-.4-.55-3.1-4.8-.05.1q-.4.4.65 5.1l-1.05-1.35q-1.9-2.2-2.05-5.95v-1.3l.05.35q.15 2.65 1.35 5.35.15-3.55.6-5l1-3.35q-.85-3.6-.3-6.45.1.15.05.4l.45 2.3 1.3 4-.1-2.25.1.2 2.8 5.55m-7.55-3.35-1.35 1.9 1.2-2.9.15 1m.8-3.85.75-3.35-.05 1.35q.6-.15 1-2.85l.05-.05.05 1 .3.65-2.3 5.3.2-2.05" fill="#beae70" fill-rule="evenodd" transform="translate(18.35 11.6)"/><path d="m-8.8 24.05.2-2.95-.45.7-.15-1 .55-1.55.25-.6.15-.7-.2 2.05 2.3-5.3.05.25q-.55 2.85.3 6.45l-1 3.35q-.45 1.45-.6 5-1.2-2.7-1.35-5.35l-.05-.35" fill="#e3e3e3" fill-rule="evenodd" transform="translate(18.35 11.6)"/><path d="m-6.3 11.35.05-.15.45-.75.7-2.05q.55-1.85 3.15-.25 2.7 4.8 3.55 10.5l.15.8-.3-.15q-1.8-1.1-1.9-.85l1.7 1.6-.15 2.05-2.3-3.45.7 1.65-1 .15-.45-1.8-1.05.7-.8-5.6-.75 1.25q.05-3.65-1.75-3.65" fill="#72562d" fill-rule="evenodd" transform="translate(18.35 11.6)"/><path d="m12.05 22.95.05-.15.45-.75.7-2.05q.55-1.85 3.15-.25 2.7 4.8 3.55 10.5l.15.8-.3-.15q-1.8-1.1-1.9-.85l1.7 1.6-.15 2.05-.25 2.05-.1.6-.25.9-2.2-2.85.05.5v.55l.15 1.3.45 2.6q.5 2.95-.25 4.75l-.3-.35q0-.25-1.1-2.05l.2 1.15q.05 1-.3 1.55l-.4-.55-3.1-4.8-.05.1q-.4.4.65 5.1L11.6 42.9q-1.9-2.2-2.05-5.95v-1.3l.2-2.95-.45.7-1.35 1.9 1.2-2.9.55-1.55.25-.6.15-.7.75-3.35m.5-1.7.2-.4.1-.25.4-.9z" fill="none" stroke="#000" stroke-linecap="round" stroke-linejoin="round" stroke-opacity=".243" stroke-width=".05"/><path d="m-1.85-1.5-.2.65v.2l.55-.55v.6q-.9 2.25-2.35 3.15-1.55.85-2.85.9-1.35.05-.95-.3L-5.2.8l2.6-2.3-.15.55q.25-.1.85-.55h.05" fill="#a67e44" fill-rule="evenodd" transform="translate(18.35 11.6)"/><path d="m16.5 10.1-.2.65v.2l.55-.55v.6q-.9 2.25-2.35 3.15-1.55.85-2.85.9-1.35.05-.95-.3l2.45-2.35 2.6-2.3-.15.55q.25-.1.85-.55l.05-.1z" fill="none" stroke="#000" stroke-linecap="round" stroke-linejoin="round" stroke-opacity=".243" stroke-width=".05"/><path d="M3 15.95 1.15 19.1l-.6.85L-.5 21.3l-1.6-6.1-.3.8-.3.85-.65 2.25-.85-10.9v-.4l-1.3 3.75.55-7.4q.3-2.6.85-4.1l.2-.65.05-.45-.1-1.2.65-1.7h-.15Q-5.95.2-6.95.1L-6-2.1l.15-.2L-4-4.5l.55-.55.3-.35 1.3-1.2q2.9 1.3.45 7.15l2-1.5-2.5 9.65 2.15-.5-.45 3.25 1.75.5v-3.2L3 15.95" fill="#9f773c" fill-rule="evenodd" transform="translate(18.35 11.6)"/><path d="m-3.35 19.1-1.05 4.6q-1.1 5.15-3.65 7.55l-.2-.8-.4-4.1q0 .7-.45 2-.65 1.7-1.45 2.35l-.35-1.15-1.85-9.85-.15.05q-.85.35-2.4 8.7l-.75-2.9q-1.65-4.85.65-11.05l.9-2.05-.2.55q-1.5 4.5-1.3 9.6 2.55-5.65 4.25-7.75 2.2-3.1 3.95-4.7Q-6.75 3.7-3.9-.6l-.2.65q-.55 1.5-.85 4.1l-.55 7.4 1.3-3.75v.4l.85 10.9M-13.4 8.55l-3.5 2.25 3.9-4-.4 1.75m3.9-5.65 3.5-5-.95 2.2q1 .1 3.5-4.05h.15l-.65 1.7.1 1.2L-11.2 6l1.7-3.1" fill="#beae70" fill-rule="evenodd" transform="translate(18.35 11.6)"/><path d="m-14.5 12.45 2.25-4.7-1.15.8.4-1.75 2-2.15.75-.85.75-.9-1.7 3.1 7.35-7.05-.05.45q-2.85 4.3-3.9 10.75-1.75 1.6-3.95 4.7-1.7 2.1-4.25 7.75-.2-5.1 1.3-9.6l.2-.55" fill="#e3e3e3" fill-rule="evenodd" transform="translate(18.35 11.6)"/><path d="m-1.85-6.6.15-.15 1.2-.95q.4-.15 2.6-2.85 2.15-2.75 5.25 1.7 1.2 9.65-1.2 19.5l-.35 1.4-.35-.45Q3.25 8.55 2.9 9l1.65 3.65L3 15.95l-1.45-7.2v3.2l-1.75-.5.45-3.25-2.15.5L.6-.95l-2 1.5Q1.05-5.3-1.85-6.6" fill="#72562d" fill-rule="evenodd" transform="translate(18.35 11.6)"/><path d="m16.5 5 .15-.15 1.2-.95q.4-.15 2.6-2.85 2.15-2.75 5.25 1.7 1.2 9.65-1.2 19.5l-.35 1.4-.35-.45q-2.2-3.05-2.55-2.6l1.65 3.65-1.55 3.3-1.85 3.15-.6.85-1.05 1.35-1.6-6.1-.3.8-.3.85L15 30.7l-1.05 4.6q-1.1 5.15-3.65 7.55l-.2-.8-.4-4.1q0 .7-.45 2-.65 1.7-1.45 2.35l-.35-1.15L5.6 31.3l-.15.05q-.85.35-2.4 8.7l-.75-2.9Q.65 32.3 2.95 26.1l.9-2.05 2.25-4.7-1.15.8-3.5 2.25 3.9-4 2-2.15.75-.85.75-.9 3.5-5m2-2.4.55-.55.3-.35L16.5 5z" fill="none" stroke="#000" stroke-linecap="round" stroke-linejoin="round" stroke-opacity=".243" stroke-width=".05"/><path d="M-3.65 11.05h.1q.75.25 1.3 1.3l.2.4.3.85.25 1.05.1.35-.5-.35.5.35.25 1.3.05 2.05-.15.85v.1l-.15-.6-.1-.1q0 1-.4 1.5l-.4.75-.6-.5-1.2-2.15v-.3l-.6.7-.15-.7.15-3.5-.1.2-.65 1.15v-.2q.2-1.6 1.1-3l.5-.95.2-.55m-.65 6.15.2.7-.2-.7m3.15-.9-1.15-.55 1.15.55" fill="#ab953e" fill-rule="evenodd" transform="translate(18.35 11.6)"/><path d="m14.7 20.2.2 1.8-.2.55v.1h.1q.75.25 1.3 1.3l.2.4.3.85.25 1.05.1.35 1.3.8m-3.55-4.75-.2.55-.5.95q-.9 1.4-1.1 3v.2l.65-1.15.1-.2-.15 3.5.15.7.6-.7-.2-.7m2.4-2.55.5.35.25 1.3.5.35m-.5-.35.05 2.05-.15.85v.1l-.15-.6-.1-.1q0 1-.4 1.5l-.4.75-.6-.5-1.2-2.15v-.3m1.8-2.15 1.15.55" fill="none" stroke="#000" stroke-linecap="round" stroke-linejoin="round" stroke-opacity=".243" stroke-width=".05"/><path d="m-4 4.35.6.8.05.1.2-1.4.15-.2h.05l.25-.3.3-.3.1.5v.2l.15.2.6 1.25.15.5q.5 1.35.4 2.6l-.4 1.9q-.3.9-.75 1.6-.95 1.35-1.05.75l-.5-4.2-.3-4" fill="#ccc39f" fill-rule="evenodd" transform="translate(18.35 11.6)"/><path d="m-1.4 10.2.4-1.9q.1-1.25-.4-2.6l.85 1.1Q.8 9.3.65 12.75l-.05.05-2-2.6" fill="#9f773c" fill-rule="evenodd" transform="translate(18.35 11.6)"/><path d="m14.35 15.95.3 4 .5 4.2q.1.6 1.05-.75.45-.7.75-1.6l.4-1.9q.1-1.25-.4-2.6l-.15-.5-.6-1.25-.15-.2m0-.2.15.4" fill="none" stroke="#000" stroke-linecap="round" stroke-linejoin="round" stroke-opacity=".243" stroke-width=".05"/><path d="M1.95 12.65H2l.8.8.3.75.15.65.05.2-.3-.2.3.2.15.8-.7-.35.7.35.05 1.25-.1.5v.05l-.1-.35-.05-.05-.25.9-.25.45-.35-.3-.75-1.3v-.2l-.35.45-.1-.45.1-2.1-.05.1-.4.7v-.1q.1-1 .65-1.85l.3-.55.15-.35m-.4 3.75.1.4-.1-.4" fill="#ab953e" fill-rule="evenodd" transform="translate(18.35 11.6)"/><path d="m20.3 22.75.1 1.1-.1.35v.05h.05l.8.8.3.75.15.65.05.2.8.5m-2.15-2.9-.15.35-.3.55Q19.3 26 19.2 27v.1l.4-.7.05-.1-.1 2.1.1.45.35-.45-.1-.4m1.45-1.55.3.2.15.8.3.2m-1-.55.7.35.05 1.25-.1.5v.05l-.1-.35-.05-.05-.25.9-.25.45-.35-.3-.75-1.3v-.2" fill="none" stroke="#000" stroke-linecap="round" stroke-linejoin="round" stroke-opacity=".243" stroke-width=".05"/><path d="m-16.2 12.65 2.25-.7h-.15l-1-.2v-.05l2.75.05 1.35.15q0 .7-.65 1.4l-1.6 1.25q-.2-.25-.25.2l-1 .55-.25.1-1.3.55-.7.1.35-.25v-.1l-1.2.05-.75-.1.2-.5 1.35-1.6.25-.15.35-.75-.35.75q-.2-.15-.7-.2l.5-.4.55-.15m1.9 1.55-.2 1.1.2-1.1" fill="#e3e3e3" fill-rule="evenodd" transform="translate(18.35 11.6)"/><path d="m3.25 23.35 1 .2h.15l-2.25.7-.35.75-.25.15-1.35 1.6-.2.5.75.1 1.2-.05v.1l-.35.25.7-.1L3.6 27l.25-.1.2-1.1m-.8-2.5-.05.05h.05m.6 3.55 1-.55q.05-.45.25-.2l1.6-1.25q.65-.7.65-1.4L6 23.35l-2.75-.05m6-.55-1.4.7-.5.05M5.1 26.15v.05l-.25.15-.35 1.2m-2.35-3.3-.55.15-.5.4q.5.05.7.2" fill="none" stroke="#000" stroke-linecap="round" stroke-linejoin="round" stroke-opacity=".243" stroke-width=".05"/><path d="M7.65-3.2Q6.9-1.55 6.9-.3l-.2.2-.4-2.85v2.6Q5.4-2.7 4.9-3.2v.85l-.1.5V-.3q.3 2.6 1.05 4.8l.3.75.9 1.75.45.75.8 1.2L8 7.2l-.15-1.3Q7.4 2.25 7.7-1.45L7.65-3.2" fill="#ccc39f" fill-rule="evenodd" transform="translate(18.35 11.6)"/><path d="m4.8-.85-.4 5q0 4.05.65 5.3l1.1-4.2-.3-.75Q5.1 2.3 4.8-.3v-.55" fill="#7d5e30" fill-rule="evenodd" transform="translate(18.35 11.6)"/><path d="M23.25 8.4v.85l-.1.5v1.55q.3 2.6 1.05 4.8m.3.75.9 1.75.45.75.8 1.2-.3-1.75-.15-1.3q-.45-3.65-.15-7.35L26 8.4" fill="none" stroke="#000" stroke-linecap="round" stroke-linejoin="round" stroke-opacity=".243" stroke-width=".05"/><path d="M-6.95 11.75q-.2 1.7.15 2.9l-.15.2-1-2.6.65 2.4q-1.3-2-1.8-2.35l.2.8.1.5.25.95.15.55 1.95 4.2.45.65 1.15 1.4.55.6.9.95-.65-1.55-.45-1.15q-1.3-3.35-1.95-6.8l-.5-1.65" fill="#ccc39f" fill-rule="evenodd" transform="translate(18.35 11.6)"/><path d="m-8.55 14.55.9 4.7q1 3.75 1.85 4.85l-.2-4.15-.45-.65-1.95-4.2-.15-.55" fill="#7d5e30" fill-rule="evenodd" transform="translate(18.35 11.6)"/><path d="m9.25 23.9.2.8.1.5.25.95.15.55 1.95 4.2m.45.65 1.15 1.4.55.6.9.95-.65-1.55-.45-1.15q-1.3-3.35-1.95-6.8l-.5-1.65" fill="none" stroke="#000" stroke-linecap="round" stroke-linejoin="round" stroke-opacity=".243" stroke-width=".05"/><path d="m-13 4.5.05-.05q1-.2 1.95 0l1 .15q0 .5-.5 1.05l-1.1.9q-.15-.2-.2.15l-.75.4h-.1l-1.05.45-.5.05.3-.2v-.05l-.85.05-.6-.05.15-.45 1-1.1.2-.15.25-.5-.25.5-.55-.1.4-.3.4-.1 1.65-.5-.1-.05-.8-.1m.55 1.75-.1.85.1-.85" fill="#e3e3e3" fill-rule="evenodd" transform="translate(18.35 11.6)"/><path d="m5.4 16.05-.1.05h.05l.8.1.1.05-1.65.5-.25.5-.2.15-1 1.1-.15.45.6.05.85-.05V19l-.3.2.5-.05 1.05-.45h.1l.1-.85m-.5-1.8q1-.2 1.95 0l1 .15h.4l.95-.55M5.8 18.7l.75-.4q.05-.35.2-.15l1.1-.9q.5-.55.5-1.05m-1.6 1.95v.05l-.2.1-.25.85m-1.7-2.4-.4.1-.4.3.55.1" fill="none" stroke="#000" stroke-linecap="round" stroke-linejoin="round" stroke-opacity=".243" stroke-width=".05"/><path d="M-9.3 19.55h.05q.45.2.8 1.1l.1.35.2.75.2 1.2-.3-.3.3.3.15 1.1-.7-.5.7.5.05 1.8-.1.7v.05l-.1-.5-.05-.05q0 .85-.25 1.3l-.25.6-.35-.4-.75-1.85v-.3l-.35.65-.1-.65.1-2.95-.05.15-.4.95v-.1q.1-1.45.65-2.65l.3-.75.15-.5m-.4 5.3.1.55-.1-.55" fill="#ab953e" fill-rule="evenodd" transform="translate(18.35 11.6)"/><path d="m9.05 29 .1 1.55-.1.5v.1h.05q.45.2.8 1.1l.1.35.2.75.2 1.2.8.7m-2.15-4.1-.15.5-.3.75q-.55 1.2-.65 2.65v.1l.4-.95.05-.15L8.3 37l.1.65.35-.65-.1-.55m1.45-2.2.3.3.15 1.1.3.3m-1-.8.7.5.05 1.8-.1.7v.05l-.1-.5-.05-.05q0 .85-.25 1.3l-.25.6-.35-.4-.75-1.85V37" fill="none" stroke="#000" stroke-linecap="round" stroke-linejoin="round" stroke-opacity=".243" stroke-width=".05"/><path d="m-10.15 11.6-.4 1.65-.05.1-.45-1.7-.2-.05h-.05l-.3-.2-.1.05-.3-.2q.1.4.05.8v.2l-.05.35-.45 2.25v.7q-.2 2.35.15 3.95l.75 2.1 1.05 1.55 1.2.05-.35-5.95q-.15-4.2-.45-5.65h-.05" fill="#ccc39f" fill-rule="evenodd" transform="translate(18.35 11.6)"/><path d="m-11.55 21.6-.75-2.1q-.35-1.6-.15-3.95l-.6 2.3q-.95 4.45-.05 8.9h.05l1.5-5.15" fill="#9f773c" fill-rule="evenodd" transform="translate(18.35 11.6)"/><path d="M8.2 23.2h.05q.3 1.45.45 5.65l.35 5.95-1.2-.05L6.8 33.2l-.75-2.1q-.35-1.6-.15-3.95v-.7l.45-2.25.05-.35m0-.2-.05.55" fill="none" stroke="#000" stroke-linecap="round" stroke-linejoin="round" stroke-opacity=".243" stroke-width=".05"/><path d="m-6.25 21.5.2 1.05v.35q.15 1.1-.2 2.05l-.65 1.25-.9 1.1q-.95.8-.85.3l.45-3.15.55-3.05h.05l.25.75v.05l.4-.95.15-.1.05-.05.25-.15h.05l.2-.1-.05.35v.15l.05.15" fill="#ccc39f" fill-rule="evenodd" transform="translate(18.35 11.6)"/><path d="m-6.05 22.9.4 1.05q.55 2.05-.3 4.55H-6l-.9-2.3.65-1.25q.35-.95.2-2.05" fill="#9f773c" fill-rule="evenodd" transform="translate(18.35 11.6)"/><path d="m12.05 32.8.05.3.2 1.05v.35m-.85 3.3-.9 1.1q-.95.8-.85.3l.45-3.15.55-3.05h.05m1.3-.05.05.15m-.65 4.7.65-1.25q.35-.95.2-2.05" fill="none" stroke="#000" stroke-linecap="round" stroke-linejoin="round" stroke-opacity=".243" stroke-width=".05"/><path d="M4.35 6.3q-.55 1-.55 1.75l-.15.1-.3-1.7V8l-1-1.7v.5l-.05.3v.95q.2 1.55.75 2.85l.2.45.65 1.05.35.45.55.7-.2-1.05-.1-.75q-.35-2.2-.1-4.4L4.35 6.3" fill="#ccc39f" fill-rule="evenodd" transform="translate(18.35 11.6)"/><path d="m2.3 7.7-.35 3q0 2.4.5 3.15l.8-2.5-.2-.45Q2.5 9.6 2.3 8.05V7.7" fill="#7d5e30" fill-rule="evenodd" transform="translate(18.35 11.6)"/><path d="M20.7 17.9v.5l-.05.3v.95q.2 1.55.75 2.85m.2.45.65 1.05.35.45.55.7-.2-1.05-.1-.75q-.35-2.2-.1-4.4l-.05-1.05" fill="none" stroke="#000" stroke-linecap="round" stroke-linejoin="round" stroke-opacity=".243" stroke-width=".05"/></g><g id="e"><path d="m-80.35-14.7 1.65-10.05 4.75 6.45 16.4 11.15 4.85 1.4-2.35 21.8-1.95-.7-19.45-20.6-3.9-9.45" fill="#666" fill-rule="evenodd" transform="translate(80.35 26.3)"/><path d="m-44.75-6.05 3.7.95v9.3h-2.2l2.2 6.1H-43l2.95 5.6h-1v5.25l-3.1-1.55-2.2-1.05-4.4-2.15 1.8-18 .55-5.4 3.65.95" fill-opacity=".29" fill-rule="evenodd" transform="translate(80.35 26.3)"/><path d="M-78.45-26.3h5.8q.55 3.4 8.1 8.1l20.05 8.1 3.45 5-3.7-.95-1.35-2.9q-1.8 1.2-3.65 2.35L-57-8.3l-15.55-11.4-5.9-6.6m34.3 45.9-6.55 4.6-2.4-7.45 2.2-22 1.95 3.65-1.8 18-.3 2.4 2.3 1.95 2.4-2.2 2.2 1.05" fill="#ccc" fill-rule="evenodd" transform="translate(80.35 26.3)"/><path d="m-78.45-26.3 5.9 6.6L-57-8.3l7.25 1.7q1.85-1.15 3.65-2.35L-48.4-7l-.55 5.4-1.95-3.65-1.8-.5-4.85-1.4-16.4-11.15-4.75-6.45.25-1.55" fill="#fff" fill-rule="evenodd" transform="translate(80.35 26.3)"/><path d="m-50.7 24.2-8.1-7.3-17.35-20.05q-4.25-4.35-4.2-11.55l3.9 9.45L-57 15.35l3.9 1.4 2.4 7.45" fill="#999" fill-rule="evenodd" transform="translate(80.35 26.3)"/><path d="m-46.1-8.95 1.35 2.9L-48.4-7l2.3-1.95m-8.95 25 2.35-21.8 1.8.5-2.2 22-1.95-.7m6.3 4.7-2.3-1.95.3-2.4 4.4 2.15-2.4 2.2" fill="#333" fill-rule="evenodd" transform="translate(80.35 26.3)"/><path d="m39.3 21.2-3.45-5L15.8 8.1Q8.25 3.4 7.7 0H1.9m33.7 20.25 3.7.95m-3.1 24.7-6.55 4.6-8.1-7.3L4.2 23.15Q-.05 18.8 0 11.6L1.65 1.55 1.9 0m30.05 19.3 2.3-1.95M31.4 24.7l.55-5.4 3.65.95m-6 22.45-.3 2.4 2.3 1.95m2.4-2.2-4.4-2.15 1.8-18M34 44.85l2.2 1.05" fill="none" stroke="#000" stroke-linecap="round" stroke-linejoin="round" stroke-opacity=".412" stroke-width=".05"/></g><g id="f"><path d="M-65.6 11.05v.05-.05" fill="#990" fill-rule="evenodd" transform="translate(89.15 6.85)"/><path d="m-82.45 6.05-1.8 3.4.4 1.75q.9 3.2 3.4 4.25 2.8.45 5.55-.7 1.65 1.4 1.1 2.85-.45 1.25-2.65 2.5l-5.85-1.7q-5.1-3.55-6.4-10.05l2.6-2.3h3.65" fill="#fdbe2d" fill-rule="evenodd" transform="translate(89.15 6.85)"/><path d="m-68.6 4.75 3.35 2.45-.35 3.85v.05l2.8 3.75H-66l.4-3.75-4.15 4.55-4.05 1.95q.55-1.45-1.1-2.85 3.4-1.5 6.7-5.4l-.4-1.55q-.25-1.45 0-3.05" fill="#c90" fill-rule="evenodd" transform="translate(89.15 6.85)"/><path d="m-65.6 11.05 3.2 1.55 7.25 7.75-5.2 2.15q-5.2-1.9-12.5 2.3-2.5 1.45-6.15 1.75-6.2-3.65-9.15-10.55-1.65-4.2-.55-7.65 1.3 6.5 6.4 10.05l5.85 1.7q2.2-1.25 2.65-2.5l4.05-1.95 4.15-4.55v-.05m-.4 3.8h3.2l-2.8-3.75-.4 3.75m-1.85 3.7-5 6.25 5-6.25" fill="#7e5801" fill-rule="evenodd" transform="translate(89.15 6.85)"/><path d="m-83.85 11.2.75-1.3q.75 2.85 3.3 3.25 1.8.3 4.45-.6l4.15-9.45-1.35 7.5 3.95-2.8.4 1.55q-3.3 3.9-6.7 5.4-2.75 1.15-5.55.7-2.5-1.05-3.4-4.25" fill="#878601" fill-rule="evenodd" transform="translate(89.15 6.85)"/><path d="M-65.3-3.85q-2.8 4.85-3.3 8.6-.25 1.6 0 3.05l-3.95 2.8 1.35-7.5-4.15 9.45q-2.65.9-4.45.6.65-9.5 14.5-17" fill="#baba01" fill-rule="evenodd" transform="translate(89.15 6.85)"/><path d="M-83.1 9.9q8.45-13.95 18.6-15.1l-.8 1.35q-13.85 7.5-14.5 17-2.55-.4-3.3-3.25" fill="#fefe78" fill-rule="evenodd" transform="translate(89.15 6.85)"/><path d="M-82.45 6.05q6.4-10.65 19-12.9L-64.5-5.2Q-74.65-4.05-83.1 9.9l-.75 1.3-.4-1.75 1.8-3.4" fill="#ffe" fill-rule="evenodd" transform="translate(89.15 6.85)"/><path d="M24.65 1.65 25.7 0q-12.6 2.25-19 12.9l-1.8 3.4.4 1.75q.9 3.2 3.4 4.25 2.8.45 5.55-.7m10.4-19.95L23.85 3q-2.8 4.85-3.3 8.6l3.35 2.45-.35 3.85 3.2 1.55M34 27.2l-5.2 2.15q-5.2-1.9-12.5 2.3-2.5 1.45-6.15 1.75Q3.95 29.75 1 22.85q-1.65-4.2-.55-7.65l2.6-2.3H6.7m16.85 5v.05m-.4 3.75.4-3.75m-3-3.3q-.25-1.45 0-3.05m0 3.05.4 1.55q-3.3 3.9-6.7 5.4m2.05 10.05 5-6.25" fill="none" stroke="#000" stroke-linecap="round" stroke-linejoin="round" stroke-opacity=".412" stroke-width=".05"/></g><g id="k"><path d="m-11.15-10.95.2.15-.2-.1v-.05" fill="#990" fill-rule="evenodd" transform="translate(14.85 19.5)"/><path d="m-9.15-10.1 1.3-2.3q3.2.45 5.55 3.15Q2.15-2.1.4 6.75-.2 3.25-1.1.5l-7.25 4.95 5.9-8.25-.95-3.05-2.55-3.1-3.2-1.15" fill="#878601" fill-rule="evenodd" transform="translate(14.85 19.5)"/><path d="M-4.5 9.45q-4 2.25-7.25 10.1l-.65-1.9q-.05-20.75 6.45-26.6l2.55 3.1.95 3.05-5.9 8.25L-1.1.5Q-.2 3.25.4 6.75L0 8.65q-2.4-.45-4.5.8" fill="#baba01" fill-rule="evenodd" transform="translate(14.85 19.5)"/><path d="M-12.95 15.75Q-14.2-2.2-9.15-10.1l3.2 1.15q-6.5 5.85-6.45 26.6l-.55-1.9" fill="#fefe78" fill-rule="evenodd" transform="translate(14.85 19.5)"/><path d="m-11.15-10.9.2.1-.2-.15.95-1.5 2.35.05-1.3 2.3q-5.05 7.9-3.8 25.85-4.2-14.65.8-24.85l1-1.8" fill="#ffe" fill-rule="evenodd" transform="translate(14.85 19.5)"/><path d="m8-11.55.8 1.05.95 7.65L15.6 11.7l-2.6-.25-2.65-4.8q-.45 1.95-1.1.85-1.05-1.65-1.9.6-1.8-3.35-2.15-10 .4-3.6-3.15-7.25Q6.9-5.95 8-11.55m1.75 8.7.9 7.05-.05.65.05-.65-.9-7.05" fill="#c90" fill-rule="evenodd" transform="translate(14.85 19.5)"/><path d="M-11.15-10.95v.05l-1 1.8-1.65-3.15 4-2.15q5.05-1.4 8.9 2.75l2.95 2.5Q5.6-5.5 5.2-1.9q.35 6.65 2.15 10 .85-2.25 1.9-.6.65 1.1 1.1-.85l2.65 4.8-8.25-.75-1.6.8-3.25 1.6-4.4-3.65q2.1-1.25 4.5-.8l.4-1.9q1.75-8.85-2.7-16-2.35-2.7-5.55-3.15l-2.35-.05-.95 1.5M6.4 9.9l-1.65.8 1.65-.8" fill="#7e5801" fill-rule="evenodd" transform="translate(14.85 19.5)"/><path d="M-13.8-12.25v-3.7l7.1-3.55q8.3.1 14.7 7.95-1.1 5.6-5.95 2.4l-2.95-2.5q-3.85-4.15-8.9-2.75l-4 2.15" fill="#fdbe2d" fill-rule="evenodd" transform="translate(14.85 19.5)"/><path d="M3.7 8.55v.05l-1 1.8q-5 10.2-.8 24.85M7 7.1l-2.35-.05-.95 1.5m-1 1.85L1.05 7.25v-3.7L8.15 0q8.3.1 14.7 7.95l.8 1.05.95 7.65 5.85 14.55M18 31l-3.25 1.6-4.4-3.65q-4 2.25-7.25 10.1l-.65-1.9-.55-1.9M7 7.1q3.2.45 5.55 3.15 4.45 7.15 2.7 16l-.4 1.9q-2.4-.45-4.5.8m15.1-4.6.05-.65-.9-7.05m-5 13.55 1.65-.8" fill="none" stroke="#000" stroke-linecap="round" stroke-linejoin="round" stroke-opacity=".412" stroke-width=".05"/></g><use width="151.9" height="68.3" xlink:href="#h" id="b"/><use width="30.65" height="23.4" xlink:href="#i" id="c"/><use width="26.65" height="44.4" xlink:href="#j" id="d"/><use width="30.45" height="39.05" xlink:href="#k" id="g"/></defs></svg>