<svg viewBox="0 0 253.21 152.18" xmlns="http://www.w3.org/2000/svg" xmlns:xlink="http://www.w3.org/1999/xlink"><use transform="translate(.01)" width="253.2" height="152.2" xlink:href="#a"/><defs><g id="a"><path d="M171.25 167.75q5.25 2.65 11 3.95 17.2 3.9 38.2-4.4 1.75-.7 3.55-1.3 34.65-12.3 68.6 2.5 11.7 5.1 23.35 13.45 12.25 8.05 30.35 9.8l6.55 5.1Q318 194.3 300 180.45q-35.75-19.35-71.5-8l-3.95 1.75q-22.4 9.4-40.8 5.55-5.3-1.1-10.25-3.3-5.65-2.95-9.6-5.9-11.45-8.65-8.4-17.6 35.35-22.25 91-28.5 44.25.75 89.95 15.5 13.35 3.95 25.65 10.5l-7.05 2.3q-86-35.3-151.55-13.8-41.8 10.75-32.25 28.8-12.35-8.1-10.75-13.3-1.6 5.2 10.75 13.3m203.05-1.7 7.05-3.4q10.75 8 20.6 18.3l-.5 6.1q-9.2 8.2-27.7 9.8l-7.35-5 4.7-.4 5.8-.7q18.3-5.2-2.6-24.7m21.15 16.4q-2.15 6.25-18.55 8.3 16.4-2.05 18.55-8.3" fill="#9d8455" fill-rule="evenodd" transform="translate(-148.85 -124.35)"/><path d="M182.25 171.7q-5.75-1.3-11-3.95-9.55-18.05 32.25-28.8 65.55-21.5 151.55 13.8l-7.45 35.8q-16.7-12.05-55-20.05-33.95-14.8-68.6-2.5-22.6-.6-41.75 5.7m188.85 19.75 3.2-25.4q20.9 19.5 2.6 24.7l-5.8.7" fill="#3d3321" fill-rule="evenodd" transform="translate(-148.85 -124.35)"/><path d="M163.9 170.55q3.95 2.95 9.6 5.9 4.95 2.2 10.25 3.3 4.25 36.65-10.9 50.9-7.9-8.3-14.75-18.45-5.3-26.55 5.8-41.65m60.65 3.65 3.95-1.75q35.75-11.35 71.5 8 18 13.85 52.85 16.4l-11.35 62.1q-52.6 16.15-101.5 7.5-19.8-3.45-36.5-12.35-2.2-44.5 21.05-79.9m149.2 22.65q18.5-1.6 27.7-9.8-2.75 29.45-12 52.4-11.7 5.9-23.25 10.65l7.55-53.25" fill="#5e4f33" fill-rule="evenodd" transform="translate(-148.85 -124.35)"/><path d="M155.5 152.95q-3.05 8.95 8.4 17.6-11.1 15.1-5.8 41.65-4.25-6.25-8.1-13.25-3.7-24.85 5.5-46" fill="#685539" fill-rule="evenodd" transform="translate(-148.85 -124.35)"/><path d="M183.75 179.75q18.4 3.85 40.8-5.55-23.25 35.4-21.05 79.9-16.9-9-30.65-23.45 15.15-14.25 10.9-50.9" fill="#4d3f2b" fill-rule="evenodd" transform="translate(-148.85 -124.35)"/><path d="M352.85 196.85q11.6.8 20.9 0l-7.55 53.25q-12.45 5.1-24.7 8.85l11.35-62.1" fill="#b18b34" fill-rule="evenodd" transform="translate(-148.85 -124.35)"/><path d="m355.05 152.75 6.4 2.7q7.65 5.75 12.85 10.6l-3.2 25.4-4.7.4q-7.6.55-14.45.25l-4.35-3.55 7.45-35.8" fill="#91722b" fill-rule="evenodd" transform="translate(-148.85 -124.35)"/><path d="m352.85 196.85-6.55-5.1 5.65.35q6.85.3 14.45-.25l7.35 5q-9.3.8-20.9 0m2.2-44.1 7.05-2.3q9.95 5.25 19.25 12.2l-7.05 3.4q-5.2-4.85-12.85-10.6l-6.4-2.7" fill="#ca2" fill-rule="evenodd" transform="translate(-148.85 -124.35)"/><path d="M33.4 47.35q-5.75-1.3-11-3.95-12.35-8.1-10.75-13.3m185.8 37.3q-18.1-1.75-30.35-9.8-11.65-8.35-23.35-13.45-33.95-14.8-68.6-2.5-1.8.6-3.55 1.3-21 8.3-38.2 4.4 19.15-6.3 41.75-5.7m138.1-15.55q-12.3-6.55-25.65-10.5Q141.9.85 97.65.1 42 6.35 6.65 28.6q-9.2 21.15-5.5 46 3.85 7 8.1 13.25Q16.1 98 24 106.3q13.75 14.45 30.65 23.45 16.7 8.9 36.5 12.35 48.9 8.65 101.5-7.5l-.25 1.25m40.1-97.55q-9.3-6.95-19.25-12.2m-14.5 38.1 4.35 3.55q6.85.3 14.45-.25l4.7-.4 5.8-.7q16.4-2.05 18.55-8.3m-49.15 9.3 5.65.35m-4.35-3.55q-16.7-12.05-55-20.05M252.6 62.7l.5-6.1q-9.85-10.3-20.6-18.3m20.1 24.4q-2.75 29.45-12 52.4-11.7 5.9-23.25 10.65-12.45 5.1-24.7 8.85" fill="none" stroke="#000" stroke-linecap="round" stroke-linejoin="round" stroke-opacity=".4" stroke-width=".2"/><path d="M22.4 43.4q-9.55-18.05 32.25-28.8Q120.2-6.9 206.2 28.4l6.4 2.7q7.65 5.75 12.85 10.6 20.9 19.5 2.6 24.7" fill="none" stroke="#fff" stroke-linecap="round" stroke-linejoin="round" stroke-opacity=".251" stroke-width=".2"/><path d="m182.65 259.65 5.7-6.3-9.7 3.25 30.55-17.35 10 11.65-31.15 16.5 12.05-14.8-17.45 7.05" fill="#cc2a39" fill-rule="evenodd" transform="translate(-148.85 -124.35)"/><path d="m182.65 259.65-31.8 12.8 27.8-15.85 9.7-3.25-5.7 6.3" fill="#eaa959" fill-rule="evenodd" transform="translate(-148.85 -124.35)"/><path d="m336.3 182.45-5.7 6.3 9.7-3.25-30.55 17.35-10-11.65 31.15-16.5-12.05 14.8 17.45-7.05" fill="#cc2a39" fill-rule="evenodd" transform="translate(-148.85 -124.35)"/><path d="m336.3 182.45 31.8-12.8-27.8 15.85-9.7 3.25 5.7-6.3" fill="#eaa959" fill-rule="evenodd" transform="translate(-148.85 -124.35)"/><path d="m311.9 229.4-6.35-2.5q1.3-9-1.1-17.55l6.7-2.05q2.9 10.75.75 22.1M202.35 234q-1.35-6.8-.7-13.65l7.5-.25q-.65 5.45.15 10.8l-6.95 3.1" fill="#fff" fill-rule="evenodd" transform="translate(-148.85 -124.35)"/><path d="m305.5 227.15.05-.25 6.35 2.5-1.05 4.45-1 3.3q-1.25 3.65-2.85 6.95l-5.55-3.3 1.95-5.05q1.5-4.35 2.1-8.6m-77.05 42.6q-13.5-7.2-20.95-21.25-3.75-7.1-5.15-14.5l6.95-3.1q1.05 7.55 4.85 14.75 6.6 12.4 18.55 18.65l-4.25 5.45m-26.8-49.4q.55-6.35 2.75-12.85 3.4-10.2 9.95-18l7.95 2.2q-7.3 7.65-10.85 18.2-1.7 5.15-2.3 10.2l-7.5.25" fill="#e7f1f5" fill-rule="evenodd" transform="translate(-148.85 -124.35)"/><path d="m305.5 227.15-.1-.15.15-.1-.05.25m-75.9-41.75.8-.55 11.6 83.1q-5.05-1.45-9.3-3.65-11.95-6.25-18.55-18.65-3.8-7.2-4.85-14.75-.8-5.35-.15-10.8.6-5.05 2.3-10.2 3.55-10.55 10.85-18.2 3.2-3.45 7.3-6.3" fill-rule="evenodd" transform="translate(-148.85 -124.35)"/><path d="M290.3 256.2q7.1-6.45 11.15-15.4l5.55 3.3q-5 10.3-13.55 17.75-5.1 4.3-11.35 7.6-8.45 4.5-17.15 6.1-.1-3.15-.05-6.4 7.2-1.45 14.3-5.2 6.3-3.35 11.1-7.75m20.85-48.9-6.7 2.05q-1.3-4.75-3.8-9.35-7.45-14.15-21.9-20.25l4-6.25q15.7 6.95 23.95 22.6 2.95 5.6 4.45 11.2M248.8 276q-4.5-.55-9.05-1.85-6.15-1.7-11.3-4.4l4.25-5.45q4.25 2.2 9.3 3.65l.25.1q4.1 1.15 8.1 1.6L248.8 276m-34.45-86.5q3.9-4.85 9.05-8.8l6.2 4.7q-4.1 2.85-7.3 6.3l-7.95-2.2" fill="#9ec2e2" fill-rule="evenodd" transform="translate(-148.85 -124.35)"/><path d="M264.35 176.05q-8.8-1.05-17.35 1.2l-.05-.05q-5.75 1.5-11.35 4.5l-2.05 1.15q-1.6.9-3.15 2l-.8.55-6.2-4.7q4-3.05 8.7-5.55 20.6-10.85 42.45-4.7 4.3 1.25 8.2 3.05l-4 6.25q-2.95-1.25-6.15-2.15-4.1-1.15-8.25-1.55m.6 99.5q-8 1.5-16.15.45l1.55-6.35 2.75.3 11.8-.8q-.05 3.25.05 6.4" fill="#3e6397" fill-rule="evenodd" transform="translate(-148.85 -124.35)"/><path d="m305.4 227 .1.15q-.6 4.25-2.1 8.6l-1.95 5.05q-4.05 8.95-11.15 15.4L247 177.25q8.55-2.25 17.35-1.2L305.4 227" fill="#542120" fill-rule="evenodd" transform="translate(-148.85 -124.35)"/><path d="m305.55 226.9-.15.1-41.05-50.95q4.15.4 8.25 1.55 3.2.9 6.15 2.15 14.45 6.1 21.9 20.25 2.5 4.6 3.8 9.35 2.4 8.55 1.1 17.55M247 177.25l43.3 78.95q-4.8 4.4-11.1 7.75-7.1 3.75-14.3 5.2l-11.8.8-19.55-87.1 2.05-1.15q5.6-3 11.35-4.5l.05.05" fill="#2c1010" fill-rule="evenodd" transform="translate(-148.85 -124.35)"/><path d="M230.4 184.85q1.55-1.1 3.15-2l19.55 87.1-2.75-.3q-4-.45-8.1-1.6l-.25-.1-11.6-83.1" fill="#692727" fill-rule="evenodd" transform="translate(-148.85 -124.35)"/><path d="m156.65 102.8.05-.25M115.5 51.7q-8.8-1.05-17.35 1.2m43.3 78.95q7.1-6.45 11.15-15.4l1.95-5.05q1.5-4.35 2.1-8.6m6.4 2.25q2.15-11.35-.75-22.1M155.6 85q2.4 8.55 1.1 17.55m6.35 2.5L162 109.5l-1 3.3q-1.25 3.65-2.85 6.95-5 10.3-13.55 17.75-5.1 4.3-11.35 7.6-8.45 4.5-17.15 6.1-8 1.5-16.15.45-4.5-.55-9.05-1.85-6.15-1.7-11.3-4.4-13.5-7.2-20.95-21.25-3.75-7.1-5.15-14.5-1.35-6.8-.7-13.65.55-6.35 2.75-12.85 3.4-10.2 9.95-18 3.9-4.85 9.05-8.8 4-3.05 8.7-5.55 20.6-10.85 42.45-4.7 4.3 1.25 8.2 3.05 15.7 6.95 23.95 22.6 2.95 5.6 4.45 11.2M129.9 55.4q14.45 6.1 21.9 20.25 2.5 4.6 3.8 9.35m-40.1-33.3q4.15.4 8.25 1.55 3.2.9 6.15 2.15m-45.2 3.1 2.05-1.15q5.6-3 11.35-4.5M81.55 60.5q1.55-1.1 3.15-2m19.55 87.1 11.8-.8q7.2-1.45 14.3-5.2 6.3-3.35 11.1-7.75m-60.7-70.8.8-.55m11.6 83.1.25.1q4.1 1.15 8.1 1.6l2.75.3m-11.1-2q-5.05-1.45-9.3-3.65Q71.9 133.7 65.3 121.3q-3.8-7.2-4.85-14.75-.8-5.35-.15-10.8.6-5.05 2.3-10.2Q66.15 75 73.45 67.35q3.2-3.45 7.3-6.3" fill="none" stroke="#000" stroke-linecap="round" stroke-linejoin="round" stroke-opacity=".4" stroke-width=".2"/><path d="M269.15 207.2q1.8 1.3 4.85 7.45 3.3 6.6 2.5 9.15-.55 1.65-1.3 2.2-1.2 1-3.75.25-3.3-.9-7.5-7.95-4.2-7-8.2-8.15-2.95-.8-4.8-.55-2 .3-2.45 1.65-.25.8 1.7 3.05l4.3 4.75q6.05 7.4 4.15 13.05-.6 1.8-1.8 3-2.45 2.45-6.25 1.35-3.7-1.05-6.25-4.1-1.9-2.45-2.7-5.4l-1.7-8.05-.25-1.8h-.6l-.15.05q-1.4 3.05-3.1 8.15-.7 1.85-1.45 2.6 1.3 3.05 2.85 5.35 4.6 6.7 12.6 8.95 11.3 3.2 19.7-3.25 6.05-4.6 8.35-11.55 2.4-7.1-2.9-15.7-6.15-9.95-20.35-14.65.45 2.8 6.25 6.15 3.6 2.1 8.25 4m-6.55-11.3q13.05 7 17.9 16.05 4.8 9.1 1.4 19.15-3.35 9.95-12.85 15-9.6 5.1-19.8 2.25-10.15-2.85-15-12-2.4-4.55-3.5-10.4-1-5.7-.7-12.65.55-14 10-19.2 7.3-4 16.8-.75 2.75 1 5.75 2.55" fill="#690" fill-rule="evenodd" transform="translate(-148.85 -124.35)"/><path d="M269.15 207.2q-4.65-1.9-8.25-4-5.8-3.35-6.25-6.15 14.2 4.7 20.35 14.65 5.3 8.6 2.9 15.7-2.3 6.95-8.35 11.55-8.4 6.45-19.7 3.25-8-2.25-12.6-8.95-1.55-2.3-2.85-5.35.75-.75 1.45-2.6 1.7-5.1 3.1-8.15l.15-.05h.6l.25 1.8 1.7 8.05q.8 2.95 2.7 5.4 2.55 3.05 6.25 4.1 3.8 1.1 6.25-1.35 1.2-1.2 1.8-3 1.9-5.65-4.15-13.05l-4.3-4.75q-1.95-2.25-1.7-3.05.45-1.35 2.45-1.65 1.85-.25 4.8.55 4 1.15 8.2 8.15 4.2 7.05 7.5 7.95 2.55.75 3.75-.25.75-.55 1.3-2.2.8-2.55-2.5-9.15-3.05-6.15-4.85-7.45" fill="#537601" fill-rule="evenodd" transform="translate(-148.85 -124.35)"/><path d="M113.75 71.55q13.05 7 17.9 16.05 4.8 9.1 1.4 19.15-3.35 9.95-12.85 15-9.6 5.1-19.8 2.25-10.15-2.85-15-12-2.4-4.55-3.5-10.4-1-5.7-.7-12.65.55-14 10-19.2 7.3-4 16.8-.75 2.75 1 5.75 2.55z" fill="none" stroke="#000" stroke-linecap="round" stroke-linejoin="round" stroke-opacity=".4" stroke-width=".2"/><path d="M268.1 215.85q-8.7 3.05-13.85 8.65-3.5 8.65.65 9.6 5.15 3.8 8 3.15 6.05-4.85 6.8-14.25l4.85 2.25 1.55 5.45-8.15 10.25q-9.3 6-15.2-.75l-5.25-7.7.6-10.55q3-8.55 9.85-11.95-2.6-5.25-10.9-6l-5.45 8.45.85 5.95-6.25.9-1.8-11.55 5.25-8.3q4.5-4.05 12.35-2.35l15.1 7.85q5.6 4.05 1 10.9" fill="#9f0" fill-opacity=".522" fill-rule="evenodd" transform="translate(-148.85 -124.35)"/><path d="m266.5 209.9 9.25-3.9q13.2-5.3 25.45-8.15 15.65-3.55 1.1 5.1l-20.7 12.45-1.2-2.7 9.35-6.7-10.6 4q-10.65 4.2-21.1 9.25l8.45-9.35m25.95-4.95-2.7 1.05 2.7-1.05m-46.1 14.5-10.95 11.8q-1.6.9-3.15 1.9l-6.15 3.9-3.65 2.4q5.65-1.7 11.35-3.3l.95 1.8-25.3 11.6q-10.6 2.5-1.55-5.65 9.1-8.2 22.3-15.7 8.05-4.65 16.15-8.75m-27.4 22.15 3.5-2.15-3.5 2.15" fill="#fff" fill-rule="evenodd" transform="translate(-148.85 -124.35)"/><path d="m266.5 209.9-8.45 9.35H258q-11.4 5.45-22.6 12l10.95-11.8v-.05q10.05-5.1 20.15-9.5m12.65.1 10.6-4-9.35 6.7-1.25-2.7m-45.35 26.15q-5.7 1.6-11.35 3.3l3.65-2.4 6.15-3.9 1.55 3" fill="#eceff2" fill-rule="evenodd" transform="translate(-148.85 -124.35)"/><path d="m131.55 88.35 1.2 2.7 20.7-12.45q14.55-8.65-1.1-5.1-12.25 2.85-25.45 8.15l-9.25 3.9q-10.1 4.4-20.15 9.5v.05q-8.1 4.1-16.15 8.75-13.2 7.5-22.3 15.7-9.05 8.15 1.55 5.65l25.3-11.6-.95-1.8m24.25-16.9q10.45-5.05 21.1-9.25l10.6-4 2.7-1.05m-13.3 5.05 1.25 2.7m-45 18.55q11.2-6.55 22.6-12h.05m-35.6 20.2-3.5 2.15m13.3-8.45q1.55-1 3.15-1.9m-12.95 8.2 3.65-2.4 6.15-3.9 1.55 3" fill="none" stroke="#000" stroke-linecap="round" stroke-linejoin="round" stroke-opacity=".4" stroke-width=".2"/><path d="m274.75 204.85 5.8-8.35-7.65 6.45q-19.6 16.5-36.7 36.85l-4.4 5.65-2.95 3.65 9.35-7.55 2.15 1.85-20.1 19.1q-9.25 5.75-3.45-4.75 5.8-10.6 15.8-21.95 17-19.35 35.7-35.5 10.75-9.25 21.45-15.95 13.6-8.45 2.8 4.35l-13.3 15.8-3.4 1.4-1.1-1.05m-48.25 47.1 2.35-2.85-2.35 2.85m57.35-58.15-3.3 2.7 3.3-2.7" fill="#fff" fill-rule="evenodd" transform="translate(-148.85 -124.35)"/><path d="m280.55 196.5-5.8 8.35-1.85-1.9 7.65-6.45m-42.35 45.05-9.35 7.55 2.95-3.65 4.4-5.65 2 1.75" fill="#eceff2" fill-rule="evenodd" transform="translate(-148.85 -124.35)"/><path d="m125.9 80.5 1.1 1.05 3.4-1.4 13.3-15.8q10.8-12.8-2.8-4.35-10.7 6.7-21.45 15.95-18.7 16.15-35.7 35.5-10 11.35-15.8 21.95-5.8 10.5 3.45 4.75l20.1-19.1-2.15-1.85M80 124.75l-2.35 2.85m48.25-47.1-1.85-1.9q-19.6 16.5-36.7 36.85l2 1.75m34.7-38.6 7.65-6.45 3.3-2.7m-55 55.3 2.95-3.65 4.4-5.65" fill="none" stroke="#000" stroke-linecap="round" stroke-linejoin="round" stroke-opacity=".4" stroke-width=".2"/><path d="M243.7 198.65q-.85.95-1.7.7-1.1-.3-1.2-1.3l.1-.95q.5-1.5 2.45-1.7 1.85-.25 1.15 1.85-.2.7-.8 1.4m-1.85 3.95q2-1.75 4.3-1.6 1.8 1.6 2.25 3.95.3 1.85-.25 3.5-.25.7-2.05 2.1-1.9 1.55-2.75 1.3-2.6-.7-3.45-3.6l-.3-2.6q.55-1.65 2.25-3.05m-6.15-2.4q2.2-2.45 2.35.6l-.9 3.3q-.55 2.2-.6 3.6-.15 2.95.4 9.2l.4 5.75-.55.9q-.7.55-1.6.3-2.85-.8-2.6-10.6l.85-9.6q.45-1.45 2.25-3.45m4.7 31.85 1.3 2.6q2.5 4.05 9.75 6.1 4.45 1.25 7.3 1.2l2.45-.15.7.3.1.15-.1.5q-.35 1.15-4.7 2.1-4.7.95-7.85.05-5.7-1.6-9.9-8.2-3.6-5.6-3.1-7.2l1.55.05 1.2 1.1q.8.2 1.3 1.4m36.35 2.65-1.25.2q-1.05-.3-1.05-1.2l.25-.65q.6-1.75 1.95-1.2 1.4.55.95 2l-.85.85m-5.05 6.3q-1.85 1.15-3.6.65-1.2-.35-1.2-1.1l.25-.75q.7-2 3.9-2.6 3.25-.65 2.25 2.25-.2.6-1.6 1.55" fill="#fff" fill-opacity=".58" fill-rule="evenodd" transform="translate(-148.85 -124.35)"/></g></defs></svg>