<svg viewBox="0 0 237.51 148.44" xmlns="http://www.w3.org/2000/svg" xmlns:xlink="http://www.w3.org/1999/xlink"><use transform="translate(.01 -.02)" width="237.5" height="148.45" xlink:href="#a"/><defs><linearGradient id="b" x1="-819.2" x2="819.2" gradientTransform="matrix(-.041 -.0235 .0077 -.0134 395.35 203.25)" gradientUnits="userSpaceOnUse"><stop stop-color="#fab430" offset="0"/><stop stop-color="#fcc87a" offset=".988"/></linearGradient><linearGradient id="c" x1="-819.2" x2="819.2" gradientTransform="matrix(.0429 .0167 -.011 .0282 376.15 221.55)" gradientUnits="userSpaceOnUse"><stop stop-color="#d17a03" offset="0"/><stop stop-color="#b74b04" offset=".988"/></linearGradient><linearGradient id="d" x1="-819.2" x2="819.2" gradientTransform="matrix(-.0124 -.0071 .0031 -.0053 379.05 247)" gradientUnits="userSpaceOnUse"><stop stop-color="#fab430" offset="0"/><stop stop-color="#fcc87a" offset=".988"/></linearGradient><linearGradient id="e" x1="-819.2" x2="819.2" gradientTransform="matrix(.0018 .0031 -.0205 .012 350.7 249.6)" gradientUnits="userSpaceOnUse"><stop stop-color="#e49e81" offset="0"/><stop stop-color="#e17252" offset=".988"/></linearGradient><linearGradient id="f" x1="-819.2" x2="819.2" gradientTransform="matrix(.0107 .0184 -.039 .0226 344.75 274.3)" gradientUnits="userSpaceOnUse"><stop stop-color="#c9433c" offset="0"/><stop stop-color="#7e2323" offset=".988"/></linearGradient><linearGradient id="g" x1="-819.2" x2="819.2" gradientTransform="matrix(.0047 0 0 .0034 324.3 178.55)" gradientUnits="userSpaceOnUse"><stop stop-color="#be6f03" offset="0"/><stop stop-color="#753c02" offset=".988"/></linearGradient><linearGradient id="h" x1="-819.2" x2="819.2" gradientTransform="matrix(.0096 0 0 .0041 330.4 174.45)" gradientUnits="userSpaceOnUse"><stop stop-color="#e49e81" offset="0"/><stop stop-color="#df5331" offset=".988"/></linearGradient><linearGradient id="i" x1="-819.2" x2="819.2" gradientTransform="matrix(-.002 .002 -.0033 -.0033 331.15 181.9)" gradientUnits="userSpaceOnUse"><stop stop-color="#be6f03" offset="0"/><stop stop-color="#753c02" offset=".988"/></linearGradient><linearGradient id="j" x1="-819.2" x2="819.2" gradientTransform="matrix(.0031 .0008 -.0008 .003 327.8 189.05)" gradientUnits="userSpaceOnUse"><stop stop-color="#c9433c" offset="0"/><stop stop-color="#a72e2e" offset=".988"/></linearGradient><linearGradient id="k" x1="-819.2" x2="819.2" gradientTransform="matrix(.0037 0 0 .0028 322.6 193.95)" gradientUnits="userSpaceOnUse"><stop stop-color="#be6f03" offset="0"/><stop stop-color="#753c02" offset=".988"/></linearGradient><linearGradient id="l" x1="-819.2" x2="819.2" gradientTransform="matrix(-.0016 .0009 -.0028 -.0048 328.3 197.45)" gradientUnits="userSpaceOnUse"><stop stop-color="#be6f03" offset="0"/><stop stop-color="#753c02" offset=".988"/></linearGradient><linearGradient id="m" x1="-819.2" x2="819.2" gradientTransform="matrix(.008 0 0 .0034 301.3 238.9)" gradientUnits="userSpaceOnUse"><stop stop-color="#e49e81" offset="0"/><stop stop-color="#df5331" offset=".988"/></linearGradient><linearGradient id="n" x1="-819.2" x2="819.2" gradientTransform="matrix(-.0173 -.0099 .0043 -.0076 314.85 243.8)" gradientUnits="userSpaceOnUse"><stop stop-color="#fab430" offset="0"/><stop stop-color="#fcc87a" offset=".988"/></linearGradient><linearGradient id="o" x1="-819.2" x2="819.2" gradientTransform="matrix(.002 .0073 -.0064 .0017 288.35 294.55)" gradientUnits="userSpaceOnUse"><stop stop-color="#c9433c" offset="0"/><stop stop-color="#7e2323" offset=".988"/></linearGradient><linearGradient id="p" x1="-819.2" x2="819.2" gradientTransform="matrix(.0029 .0017 -.0022 .0038 322.8 205.8)" gradientUnits="userSpaceOnUse"><stop stop-color="#c9433c" offset="0"/><stop stop-color="#a72e2e" offset=".988"/></linearGradient><linearGradient id="q" x1="-819.2" x2="819.2" gradientTransform="matrix(-.0015 0 0 -.0062 325.65 215.9)" gradientUnits="userSpaceOnUse"><stop stop-color="#be6f03" offset="0"/><stop stop-color="#753c02" offset=".988"/></linearGradient><linearGradient id="r" x1="-819.2" x2="819.2" gradientTransform="matrix(.0047 0 0 .0035 319.1 211.3)" gradientUnits="userSpaceOnUse"><stop stop-color="#be6f03" offset="0"/><stop stop-color="#753c02" offset=".988"/></linearGradient><linearGradient id="s" x1="-819.2" x2="819.2" gradientTransform="matrix(.0042 .0024 -.0019 .0032 320.95 221.65)" gradientUnits="userSpaceOnUse"><stop stop-color="#c9433c" offset="0"/><stop stop-color="#a72e2e" offset=".988"/></linearGradient><linearGradient id="t" x1="-819.2" x2="819.2" gradientTransform="matrix(.0052 .0089 -.0171 .0099 302.5 275.8)" gradientUnits="userSpaceOnUse"><stop stop-color="#c9433c" offset="0"/><stop stop-color="#7e2323" offset=".988"/></linearGradient><g id="a"><path d="M321.1 173.35q.75-.45 1.5-.75 1.25 4.25 15.6 5.2-.3.75-1.1 1.35-2.25 1.35-8.8.15l-.8-.15q-6.25-1.25-7-3.35-.3-1.05.6-2.45m-26.4 67.85 2.45.6q-3.5 2.3-6.55 5.95-1.2 1.55-2.25 3.2.7-1.65 1.8-3.35 2-3.35 4.55-6.4m-12.95 31.85q0-.75.15-1.5v1.5h-.15" fill="#c9433c" fill-rule="evenodd" transform="translate(-215.6 -170.8)"/><path d="m325.65 193.65-4.25-1.25-1.8-.75q-1.25-.75-1.25-2 0-1.5 1.85-2.55 4.85 6.05 14.45 4.4-.1 1.55-1.65 2.45l-.6.1q-2.15.8-5.05 0l-1.7-.4m-10.35 14.8q-.75-.8-.75-1.7 0-1.05.6-1.65 5.5 5 15.55 4.4l-1.2 1.2-.9.45q-2.15.8-5.1 0l-.4-.15-5.5-1.5q-1.55-.45-2.3-1.05m13.1 15.65.2.8q-.2 1.35-1.4 2.15l-.95.4q-2.1.8-5 0l-5.95-1.65q-2.1-.6-2.75-1.7-.3-.4-.3-1.05 0-1.4 1.35-2.3 5.05 4.6 14.8 3.35" fill="#932e28" fill-rule="evenodd" transform="translate(-215.6 -170.8)"/><path d="m332.4 194.05.6-.1-.15.45-.45-.35" fill="#be6f03" fill-rule="evenodd" transform="translate(-215.6 -170.8)"/><path d="M338.3 176.1q64.8 11.1 104.05 40.85 8.8 4 10.5 15.4l-.3 2.15q-2.75 7.8-36 10.95 16.5-2.45 5.45-9.9 21.85-1.05 20.15-5.8l-24.55-16.9q-39.35-19.7-82.45-29.75l1.95-3.95q.8-.6 1.1-1.35.3-.8.1-1.7" fill="url(#b)" fill-rule="evenodd" transform="translate(-215.6 -170.8)"/><path d="M315.3 290.75q.75-2 .95-4.1-.2-4.1-3.05-7.05-3.1-3-7.2-3t-7.15 3q-3.05 2.95-2.9 7.05-.15 4.1 2.9 7.15 1.2 1.2 2.6 2-4.6-1.1-8.1-4.6-4.9-4.7-4.9-11.4 0-6.55 4.9-11.3 4.7-4.85 11.45-4.85 6.55 0 11.25 4.85 4.9 4.75 4.9 11.3 0 6.7-4.9 11.4l-.75-.45m61.6-48.65v.2-.2m22.15 5.55-2.5-.8 2.75-.15-.25.95" fill="url(#c)" fill-rule="evenodd" transform="translate(-215.6 -170.8)"/><path d="m376.9 242.3 14.35-2.3 29.4-4.6 1.85-.3-.5.45q11.05 7.45-5.45 9.9l-17.25 1.25-2.75.15-25.9 2.3q-1.35-4.45-3.05-5.65l9.3-1.2m43.75-6.9 1.35.15-1.35-.15" fill="url(#d)" fill-rule="evenodd" transform="translate(-215.6 -170.8)"/><path d="m322.3 239.85 8.7.9 36.6 2.75q1.7 1.2 3.05 5.65L331.8 247q-4.3-4.9-9.5-7.15" fill="url(#e)" fill-rule="evenodd" transform="translate(-215.6 -170.8)"/><path d="m427.5 293.95.75.6-2.25.45 1.5-1.05" fill="url(#f)" fill-rule="evenodd" transform="translate(-215.6 -170.8)"/><path d="M320.5 179.75v-3.95q.75 2.1 7 3.35l.8.15-.5 2.15-7.3-1.7" fill="url(#g)" fill-rule="evenodd" transform="translate(-215.6 -170.8)"/><path d="M322.6 172.6q8.55-4.3 15.7 3.5.2.9-.1 1.7-14.35-.95-15.6-5.2" fill="url(#h)" fill-rule="evenodd" transform="translate(-215.6 -170.8)"/><path d="M328.3 179.3q6.55 1.2 8.8-.15l-1.95 3.95-4-.9-1.35 4.7q-1.5-.6-3.35-.75l1.35-4.7.5-2.15" fill="url(#i)" fill-rule="evenodd" transform="translate(-215.6 -170.8)"/><path d="M326.45 186.15q1.85.15 3.35.75l2.4 1.1q2.35 1.65 2.45 3.5-9.6 1.65-14.45-4.4.15-.2.6-.3 2.3-1.1 5.65-.65" fill="url(#j)" fill-rule="evenodd" transform="translate(-215.6 -170.8)"/><path d="m319.6 191.65 1.8.75 4.25 1.25-.6 2.55-5.45-1.8v-2.75" fill="url(#k)" fill-rule="evenodd" transform="translate(-215.6 -170.8)"/><path d="m325.05 196.2.6-2.55 1.7.4q2.9.8 5.05 0l.45.35-2 3.05h-3.65l-1.05 6.55-2.95-.65 1.85-7.15" fill="url(#l)" fill-rule="evenodd" transform="translate(-215.6 -170.8)"/><path d="M294.7 241.2q.5-.75 1.1-1.35l3.5-3.7 8.55 1.55q-5.8.75-10.7 4.1l-2.45-.6" fill="url(#m)" fill-rule="evenodd" transform="translate(-215.6 -170.8)"/><path d="M297.15 241.8q4.9-3.35 10.7-4.1l14.45 2.15q5.2 2.25 9.5 7.15l-34.65-5.2" fill="url(#n)" fill-rule="evenodd" transform="translate(-215.6 -170.8)"/><path d="m296.4 303.9-11.75-2.45q-3.35-9.8-3.2-20.95 0-3.8.3-7.45h.15q0 14.8 8.7 25.15 2.75 3.35 5.8 5.7" fill="url(#o)" fill-rule="evenodd" transform="translate(-215.6 -170.8)"/><path d="M315.15 205.1q.6-.8 1.8-1.25 2.35-1.1 5.65-.6l.6.1 2.95.65 2.25 1.1q2.3 1.65 2.45 3.45-.15.5-.15.95-10.05.6-15.55-4.4" fill="url(#p)" fill-rule="evenodd" transform="translate(-215.6 -170.8)"/><path d="M323.5 211.15q2.95.8 5.1 0l.9-.45v3.2l-3.25 1.85-1 5.2q-1.25-.65-2.65-.95l.3-5.8.2-3.05h.4" fill="url(#q)" fill-rule="evenodd" transform="translate(-215.6 -170.8)"/><path d="m322.9 214.2-6.35-1.85-1.25-3.9q.75.6 2.3 1.05l5.5 1.5v.15l-.2 3.05" fill="url(#r)" fill-rule="evenodd" transform="translate(-215.6 -170.8)"/><path d="M322.6 220q1.4.3 2.65.95l.9.4q1.2.95 1.8 1.85l.45.9q-9.75 1.25-14.8-3.35.5-.45 1.1-.6 2.25-1.05 5.65-.6l2.25.45" fill="url(#s)" fill-rule="evenodd" transform="translate(-215.6 -170.8)"/><path d="m315.3 290.75.75.45-2.45 2.15q1.1-1.2 1.7-2.6" fill="url(#t)" fill-rule="evenodd" transform="translate(-215.6 -170.8)"/><path d="M410.6 300.05q-2.15.6-4.45 1.5-24.1 8.9-85.2 5.5-12.95-1.2-24.55-3.15-3.05-2.35-5.8-5.7-8.7-10.35-8.7-25.15v-1.5q-.15.75-.15 1.5-.3 3.65-.3 7.45-.15 11.15 3.2 20.95-41.3-9.6-60.8-32.35-4.75-4.85-5.4-11.6 25.2 27.15 40.75 13.4-28.8-24.05-37.35-51.05-.75-7.5-2.9-14.45 4.25 11.7 25.9 21.65l49.85 14.15q-2.55 3.05-4.55 6.4-1.1 1.7-1.8 3.35 1.05-1.65 2.25-3.2 3.05-3.65 6.55-5.95l34.65 5.2 38.85 2.15 25.9-2.3 2.5.8q30.9 10.6 22.25 29.7-9 19.8-10.7 22.7m-94.55-8.85q4.9-4.7 4.9-11.4 0-6.55-4.9-11.3-4.7-4.85-11.25-4.85-6.75 0-11.45 4.85-4.9 4.75-4.9 11.3 0 6.7 4.9 11.4 3.5 3.5 8.1 4.6-1.4-.8-2.6-2-3.05-3.05-2.9-7.15-.15-4.1 2.9-7.05 3.05-3 7.15-3t7.2 3q2.85 2.95 3.05 7.05-.2 2.1-.95 4.1-.6 1.4-1.7 2.6l2.45-2.15" fill="#ffce09" fill-rule="evenodd" transform="translate(-215.6 -170.8)"/><path d="M218.45 257.5q-.4-4.25.8-9.3l.3-3.35q3.2-13.1 2.3-25 8.55 27 37.35 51.05-15.55 13.75-40.75-13.4" fill="#d9ad00" fill-rule="evenodd" transform="translate(-215.6 -170.8)"/><path d="M219.55 244.85q1.55-18.3-3.2-38.1-1.65-7.3 2-16 35.05-21.2 85.65-19.4l17.1 2q-.9 1.4-.6 2.45v3.95q-34.3-3.5-71.05 6.1-41.5 12.05-9.3 31.9 12.35 5.6 26.2 10.05 15.55 4.85 32.95 8.35l-3.5 3.7q-.6.6-1.1 1.35l-49.85-14.15q-21.65-9.95-25.9-21.65 2.15 6.95 2.9 14.45.9 11.9-2.3 25" fill="#ffd942" fill-rule="evenodd" transform="translate(-215.6 -170.8)"/><path d="M266.35 227.8q-13.85-4.45-26.2-10.05-32.2-19.85 9.3-31.9 36.75-9.6 71.05-6.1l7.3 1.7-1.35 4.7q-3.35-.45-5.65.65-.45.1-.6.3-1.85 1.05-1.85 2.55 0 1.25 1.25 2v2.75l5.45 1.8-1.85 7.15-.6-.1q-3.3-.5-5.65.6-1.2.45-1.8 1.25-.6.6-.6 1.65 0 .9.75 1.7l1.25 3.9 6.35 1.85-.3 5.8-2.25-.45q-3.4-.45-5.65.6-.6.15-1.1.6-1.35.9-1.35 2.3 0 .65.3 1.05l-5.3 2.65q-19.4-2.75-40.9 1.05" fill="#cca400" fill-rule="evenodd" transform="translate(-215.6 -170.8)"/><path d="m452.55 234.5-15.1 54.6q-4.95 2.45-9.95 4.85L426 295q-4.4 1.1-15.4 5.05 1.7-2.9 10.7-22.7 8.65-19.1-22.25-29.7l.25-.95 17.25-1.25q33.25-3.15 36-10.95M329.8 186.9l1.35-4.7 4 .9q43.1 10.05 82.45 29.75l24.55 16.9q1.7 4.75-20.15 5.8l.5-.45-1.85.3-29.4 4.6-14.35 2.3v-.2l-14.05-4.4q-15.05-5.05-33.5-7.8l-2.15-2.85q1.2-.8 1.4-2.15l-.2-.8-.45-.9q-.6-.9-1.8-1.85l-.9-.4 1-5.2 3.25-1.85v-3.2l1.2-1.2q0-.45.15-.95-.15-1.8-2.45-3.45l-2.25-1.1 1.05-6.55h3.65l2-3.05.15-.45q1.55-.9 1.65-2.45-.1-1.85-2.45-3.5l-2.4-1.1" fill="#b38e00" fill-rule="evenodd" transform="translate(-215.6 -170.8)"/><path d="M3.95 74.05q1.55-18.3-3.2-38.1-1.65-7.3 2-16Q37.8-1.25 88.4.55l17.1 2q.75-.45 1.5-.75 8.55-4.3 15.7 3.5 64.8 11.1 104.05 40.85 8.8 4 10.5 15.4l-.3 2.15-15.1 54.6q-4.95 2.45-9.95 4.85l-1.5 1.05q-4.4 1.1-15.4 5.05-2.15.6-4.45 1.5-24.1 8.9-85.2 5.5-12.95-1.2-24.55-3.15l-11.75-2.45q-41.3-9.6-60.8-32.35-4.75-4.85-5.4-11.6-.4-4.25.8-9.3l.3-3.35m79.75-8.7Q66.3 61.85 50.75 57q-13.85-4.45-26.2-10.05-32.2-19.85 9.3-31.9M104.9 5q-.3-1.05.6-2.45M92.25 66.9l-8.55-1.55m37.8-57q-2.25 1.35-8.8.15l-.5 2.15-1.35 4.7q1.85.15 3.35.75l2.4 1.1q2.35 1.65 2.45 3.5m2.45-12.35q.8-.6 1.1-1.35m.1-1.7q.2.9-.1 1.7m-9.9 1.5-.8-.15q-6.25-1.25-7-3.35m-.3 11.3q.15-.2.6-.3 2.3-1.1 5.65-.65m-.8 7.5-4.25-1.25-1.8-.75m5.45 4.55.6-2.55 1.7.4q2.9.8 5.05 0l.6-.1q1.55-.9 1.65-2.45m-14.45-4.4q-1.85 1.05-1.85 2.55 0 1.25 1.25 2M99.55 34.3q.6-.8 1.8-1.25 2.35-1.1 5.65-.6l.6.1 1.85-7.15M99.7 37.65q-.75-.8-.75-1.7 0-1.05.6-1.65m15.55 4.4q0-.45.15-.95-.15-1.8-2.45-3.45l-2.25-1.1-2.95-.65m-7.9 5.1q.75.6 2.3 1.05l5.5 1.5.4.15q2.95.8 5.1 0l.9-.45 1.2-1.2m-7.6 1.5v.15l-.2 3.05-.3 5.8q1.4.3 2.65.95l.9.4q1.2.95 1.8 1.85l.45.9.2.8q-.2 1.35-1.4 2.15l2.15 2.85q18.45 2.75 33.5 7.8l14.05 4.4m0 .2 14.35-2.3 29.4-4.6 1.85-.3m-.5.45q21.85-1.05 20.15-5.8L202 42.05m-90.4 14.2-.95.4q-2.1.8-5 0L99.7 55q-2.1-.6-2.75-1.7l-5.3 2.65Q72.25 53.2 50.75 57M98 49.95q.5-.45 1.1-.6 2.25-1.05 5.65-.6l2.25.45m-10.05 4.1q-.3-.4-.3-1.05 0-1.4 1.35-2.3M92.25 66.9l14.45 2.15 8.7.9L152 72.7l9.3-1.2m22.4 4.4 17.25-1.25q33.25-3.15 36-10.95m-30.55 1.05-1.35-.15" fill="none" stroke="#000" stroke-linecap="round" stroke-linejoin="round" stroke-opacity=".4" stroke-width=".5"/><path d="M79.1 70.4q.5-.75 1.1-1.35l3.5-3.7m-4.6 5.05q-2.55 3.05-4.55 6.4-1.1 1.7-1.8 3.35 1.05-1.65 2.25-3.2 3.05-3.65 6.55-5.95 4.9-3.35 10.7-4.1m8.2 53.5q4.9-4.7 4.9-11.4 0-6.55-4.9-11.3-4.7-4.85-11.25-4.85-6.75 0-11.45 4.85-4.9 4.75-4.9 11.3 0 6.7 4.9 11.4 3.5 3.5 8.1 4.6-1.4-.8-2.6-2-3.05-3.05-2.9-7.15-.15-4.1 2.9-7.05 3.05-3 7.15-3t7.2 3q2.85 2.95 3.05 7.05-.2 2.1-.95 4.1m.75.45L98 122.55q1.1-1.2 1.7-2.6m-33.4-17.7q0 14.8 8.7 25.15 2.75 3.35 5.8 5.7m25.9-64.05q5.2 2.25 9.5 7.15m38.85 2.15Q153.7 73.9 152 72.7m-82.95 57.95q-3.35-9.8-3.2-20.95 0-3.8.3-7.45" fill="none" stroke="#5e0000" stroke-linecap="round" stroke-linejoin="round" stroke-opacity=".4" stroke-width=".5"/><path d="M308.15 221.1q0-1.25 2-.6 2.6-1.25 5.95 1.2 20.25 9.6 20.1 18.6-4.4.75-10.65 65.25 10.35 3.5-8.85 11.6-11.3 4.7-19.85-1.7-2.4-22.25-3.65-55.5-.6-14.3 14.95-38.85" fill="#ab0707" fill-rule="evenodd" transform="translate(-215.6 -170.8)"/><path d="M278.4 288.65q-3.95-18.6-.6-32.05 3.2-14 5.2-18.6 2-5.3 11.9-12.35 7.3-5.15 13.25-5.8l-2.75 1.25h2.75q-15.55 24.55-14.95 38.85 1.25 33.25 3.65 55.5-10.5-5.8-17.8-25.6l-.65-1.85v.65" fill="#f51818" fill-rule="evenodd" transform="translate(-215.6 -170.8)"/><path d="M62.8 117.85q-3.95-18.6-.6-32.05 3.2-14 5.2-18.6 2-5.3 11.9-12.35 7.3-5.15 13.25-5.8M89.8 50.3h2.75q0-1.25 2-.6 2.6-1.25 5.95 1.2 20.25 9.6 20.1 18.6-4.4.75-10.65 65.25 10.35 3.5-8.85 11.6-11.3 4.7-19.85-1.7-10.5-5.8-17.8-25.6-.65-.6-.65-1.2v-.65l.65 1.85" fill="none" stroke="#000" stroke-linecap="round" stroke-linejoin="round" stroke-opacity=".388" stroke-width=".25"/><path d="M294.45 230.85q4.1-8.1 10.95-6.25 6.25 1.7 2.75 10.5-2.9 8.7-5.35 21.8-1.95 12.7-3.2 27.9 0 7.35-1.5 10.55-1.55 3.05-8.25-12.95-6.85-16.2-3.2-29.9t7.8-21.65" fill="#fffbfb" fill-opacity=".541" fill-rule="evenodd" transform="translate(-215.6 -170.8)"/></g></defs></svg>