<svg viewBox="0 0 243.31 118.12" xmlns="http://www.w3.org/2000/svg" xmlns:xlink="http://www.w3.org/1999/xlink"><g transform="translate(-155.14 -87.8)"><use transform="translate(184.95 108.5)" width="185.7" height="38.8" xlink:href="#a"/><use transform="translate(155.15 87.8)" width="243.3" height="116.05" xlink:href="#b"/><use transform="rotate(-.04 224720 .05)" width="9.9" height="34.15" xlink:href="#c"/><use transform="translate(212.85 123.4)" width="74.75" height="82.5" xlink:href="#d"/></g><defs><g id="a"><path d="m-63.65-12.1-.1-.15q-3.45-4.55-7.95-.9v.2q-1.45 13.45-.65 27.2 9.35 6.9 8.7-26.35" fill="#645526" fill-rule="evenodd" transform="translate(92.85 19.4)"/><path d="M-72.35 14.25v.6l.1.95.9 1.3q3.2 3.95 7.25 1.15 1.8-14.05 1.2-29.15l-.75-1.2q.65 33.25-8.7 26.35" fill="#5f5124" fill-rule="evenodd" transform="translate(92.85 19.4)"/><path d="m29.2 7.3-.1-.15q-3.45-4.55-7.95-.9v.2q-1.45 13.45-.65 27.2v.6l.1.95.9 1.3q3.2 3.95 7.25 1.15 1.8-14.05 1.2-29.15z" fill="none" stroke="#534921" stroke-linecap="round" stroke-linejoin="round" stroke-opacity=".502" stroke-width=".05"/><path d="M-92.55 10.5v.6l.1.95.9 1.3q3.2 3.95 7.25 1.15 1.8-14.05 1.2-29.15l-.75-1.2q.65 33.25-8.7 26.35" fill="#5f5124" fill-rule="evenodd" transform="translate(92.85 19.4)"/><path d="m-83.85-15.85-.1-.15q-3.45-4.55-7.95-.9v.2q-1.45 13.45-.65 27.2 9.35 6.9 8.7-26.35" fill="#645526" fill-rule="evenodd" transform="translate(92.85 19.4)"/><path d="m9 3.55-.1-.15Q5.45-1.15.95 2.5v.2Q-.5 16.15.3 29.9v.6l.1.95.9 1.3q3.2 3.95 7.25 1.15 1.8-14.05 1.2-29.15z" fill="none" stroke="#534921" stroke-linecap="round" stroke-linejoin="round" stroke-opacity=".502" stroke-width=".05"/><path d="M92.55 9.6q.8-13.75-.65-27.2l-.05-.2q-4.45-3.65-7.9.9l-.1.15Q83.2 16.5 92.55 9.6" fill="#645526" fill-rule="evenodd" transform="translate(92.85 19.4)"/><path d="M92.55 9.6q-9.35 6.9-8.7-26.35l-.8 1.2q-.55 15.1 1.2 29.15 4.1 2.8 7.25-1.15l.95-1.3.05-.95.05-.6" fill="#5f5124" fill-rule="evenodd" transform="translate(92.85 19.4)"/><path d="m176.7 2.65.1-.15q3.45-4.55 7.9-.9l.05.2q1.45 13.45.65 27.2m-8.7-26.35-.8 1.2q-.55 15.1 1.2 29.15 4.1 2.8 7.25-1.15l.95-1.3.05-.95.05-.6" fill="none" stroke="#534921" stroke-linecap="round" stroke-linejoin="round" stroke-opacity=".502" stroke-width=".05"/></g><g id="b"><path d="M158.9 144.8q1.75-7.1 22.45-12.6-8.1 16.95-1.15 24.8l-4.6 1.35q-8.45-2.95-12.6-6.6-3.45-3.05-4-6.6v-.05l-.05-.3h-.05m207.95-13.95q26.25 6.05 27.95 14.2l.05.35.05.2q-1.05 5.25-8.9 9.45-3.35 1.75-7.95 3.3-4.5-1.45-10.25-2.8v-.4q6.8-7.75-.95-24.3" fill="#594e24" fill-rule="evenodd" transform="translate(-155.15 -87.8)"/><path d="M181.35 132.2q5.3-1.45 11.95-2.8 34.6-6.95 83.5-6.95t83.5 6.95l6.55 1.45q7.75 16.55.95 24.3v.4l-7.5-1.65q-34.6-6.95-83.5-6.95t-83.5 6.95q-7.35 1.45-13.1 3.1-6.95-7.85 1.15-24.8m-22.45 12.6h.05-.05m204.7 7.05q-86.15-17.85-178 .35 91.85-18.2 178-.35m0-16q-86.15-17.85-178 .35 91.85-18.2 178-.35" fill="#6c5e2b" fill-rule="evenodd" transform="translate(-155.15 -87.8)"/><path d="M394.95 145.1q6.5 16.55 0 31.65l-.1.3q-.7 4.3-8.25 8.05 5.5-15.45-.6-30.05 7.85-4.2 8.9-9.45v.55l.05-1.05M164.8 183.95q-5.1-2.95-6.1-6.2l-.15-.6q-6.45-15.2.25-31.95l.2-.05q.55 3.55 4 6.6-2.15 15.85 1.8 32.2" fill="#ceba73" fill-rule="evenodd" transform="translate(-155.15 -87.8)"/><path d="M386.6 185.1q-8.65 4.25-26.3 7.8-14.2 2.85-30.75 4.55l9.5-31.1 21.25-3.45 8-1.75q5.4-1.3 9.75-2.8 4.6-1.55 7.95-3.3 6.1 14.6.6 30.05m-118.25 14.7q-43.5-.55-75.05-6.9-20-4-28.5-8.95-3.95-16.35-1.8-32.2 4.15 3.65 12.6 6.6l4.45 1.4 5.3 1.4 7.95 1.75q31.75 6.4 75.55 6.9l-.5 30" fill="#c0a649" fill-rule="evenodd" transform="translate(-155.15 -87.8)"/><path d="m329.55 197.45-10.85.95-41.9 1.45-8.45-.05.5-30 7.95.05 18.2-.25q23.95-.7 44.05-3.25l-9.5 31.1" fill="#9f8a40" fill-rule="evenodd" transform="translate(-155.15 -87.8)"/><path d="m239.7 57.6.1-.3q6.5 16.55 0 31.65l-.1.3q-.7 4.3-8.25 8.05-8.65 4.25-26.3 7.8-14.2 2.85-30.75 4.55l-10.85.95-41.9 1.45-8.45-.05q-43.5-.55-75.05-6.9-20-4-28.5-8.95-5.1-2.95-6.1-6.2l-.15-.6q-6.45-15.2.25-31.95v-.05l.1-.35Q5.5 49.9 26.2 44.4q5.3-1.45 11.95-2.8 34.6-6.95 83.5-6.95t83.5 6.95l6.55 1.45q26.25 6.05 27.95 14.2l.05.35.05.2.05-.5-.05 1.05v-.55q-1.05 5.25-8.9 9.45m-7.95 3.3q-4.35 1.5-9.75 2.8l-8 1.75-21.25 3.45q-20.1 2.55-44.05 3.25l-18.2.25-7.95-.05q-43.8-.5-75.55-6.9l-7.95-1.75-5.3-1.4-4.45-1.4Q12 67.6 7.85 63.95q-3.45-3.05-4-6.6v-.05L3.8 57l-.15.35m209 10.4q5.75 1.35 10.25 2.8 4.6-1.55 7.95-3.3M25.05 69.2q5.75-1.65 13.1-3.1 34.6-6.95 83.5-6.95t83.5 6.95l7.5 1.65m-192.2 2.8 4.6-1.35" fill="none" stroke="#232312" stroke-linecap="round" stroke-linejoin="round" stroke-opacity=".502" stroke-width=".5"/><path d="M30.45 48.4q91.85-18.2 178-.35m-178 16.35q91.85-18.2 178-.35" fill="none" stroke="#232312" stroke-linecap="round" stroke-linejoin="round" stroke-opacity=".502" stroke-width=".05"/><path d="M366.85 96.45q26.25 6.05 27.95 14.2l.05.35.05.2q-1.05 5.25-8.9 9.45-3.35 1.75-7.95 3.3-4.5-1.45-10.25-2.8v-.4q6.8-7.75-.95-24.3M158.9 110.4q1.75-7.1 22.45-12.6-8.1 16.95-1.15 24.8l-4.6 1.35q-8.45-2.95-12.6-6.6-3.45-3.05-4-6.6v-.05l-.05-.3h-.05" fill="#594e24" fill-rule="evenodd" transform="translate(-155.15 -87.8)"/><path d="M181.35 97.8q5.3-1.45 11.95-2.8 34.6-6.95 83.5-6.95T360.3 95l6.55 1.45q7.75 16.55.95 24.3v.4l-7.5-1.65q-34.6-6.95-83.5-6.95t-83.5 6.95q-7.35 1.45-13.1 3.1-6.95-7.85 1.15-24.8m-22.45 12.6h.05-.05m204.7-8.95q-86.15-17.85-178 .35 91.85-18.2 178-.35m0 16q-86.15-17.85-178 .35 91.85-18.2 178-.35" fill="#6c5e2b" fill-rule="evenodd" transform="translate(-155.15 -87.8)"/><path d="M394.95 110.7q6.5 16.55 0 31.65l-.1.3q-.7 4.3-8.25 8.05 5.5-15.45-.6-30.05 7.85-4.2 8.9-9.45v.55l.05-1.05M164.8 149.55q-5.1-2.95-6.1-6.2l-.15-.6q-6.45-15.2.25-31.95l.2-.05q.55 3.55 4 6.6-2.15 15.85 1.8 32.2" fill="#ceba73" fill-rule="evenodd" transform="translate(-155.15 -87.8)"/><path d="M386.6 150.7q-8.65 4.25-26.3 7.8-10.15 2.05-21.5 3.5l-9.35-23.35-24.05 3.1q-4.5-3.25-10.4-6.55 37.35-1.1 65.3-6.7l8-1.75q5.4-1.3 9.75-2.8 4.6-1.55 7.95-3.3 6.1 14.6.6 30.05m-118.25 14.7q-43.5-.55-75.05-6.9-20-4-28.5-8.95-3.95-16.35-1.8-32.2 4.15 3.65 12.6 6.6l4.45 1.4 5.3 1.4 7.95 1.75q31.75 6.4 75.55 6.9l-.5 30" fill="#c0a649" fill-rule="evenodd" transform="translate(-155.15 -87.8)"/><path d="M295 135.2q5.9 3.3 10.4 6.55l24.05-3.1L338.8 162l-20.1 2-41.9 1.45-8.45-.05.5-30 7.95.05 18.2-.25" fill="#9f8a40" fill-rule="evenodd" transform="translate(-155.15 -87.8)"/><path d="M26.2 10q5.3-1.45 11.95-2.8Q72.75.25 121.65.25t83.5 6.95l6.55 1.45q26.25 6.05 27.95 14.2l.05.35.1-.3q6.5 16.55 0 31.65l-.1.3q-.7 4.3-8.25 8.05-8.65 4.25-26.3 7.8-10.15 2.05-21.5 3.5l-20.1 2-41.9 1.45-8.45-.05q-43.5-.55-75.05-6.9-20-4-28.5-8.95-5.1-2.95-6.1-6.2l-.15-.6q-6.45-15.2.25-31.95v-.05l.1-.35Q5.5 15.5 26.2 10m213.55 13.4-.05-.2m.05.2v.55l.05-1.05-.05.5q-1.05 5.25-8.9 9.45m-18.2.5q5.75 1.35 10.25 2.8 4.6-1.55 7.95-3.3m-7.95 3.3q-4.35 1.5-9.75 2.8l-8 1.75q-27.95 5.6-65.3 6.7l-18.2.25-7.95-.05q-43.8-.5-75.55-6.9l-7.95-1.75-5.3-1.4-4.45-1.4 4.6-1.35q5.75-1.65 13.1-3.1 34.6-6.95 83.5-6.95t83.5 6.95l7.5 1.65m-192.2 2.8Q12 33.2 7.85 29.55M3.8 22.6l.05.3v.05q.55 3.55 4 6.6M3.8 22.6l-.15.35" fill="none" stroke="#232312" stroke-linecap="round" stroke-linejoin="round" stroke-opacity=".502" stroke-width=".5"/><path d="M30.45 30q91.85-18.2 178-.35M30.45 14q91.85-18.2 178-.35" fill="none" stroke="#232312" stroke-linecap="round" stroke-linejoin="round" stroke-opacity=".502" stroke-width=".05"/><path d="m183.65 74.2.2.55" fill="none" stroke="#000" stroke-linecap="round" stroke-linejoin="round" stroke-opacity=".302" stroke-width=".05"/><path d="m336.85 150.55.1-.15q3.45-4.55 7.95-.9v.2q1.45 13.45.65 27.2-9.35 6.9-8.7-26.35" fill="#ca9a40" fill-rule="evenodd" transform="translate(-155.15 -87.8)"/><path d="M345.55 176.9v.6l-.1.95-.9 1.3q-3.2 3.95-7.25 1.15-1.8-14.05-1.2-29.15l.75-1.2q-.65 33.25 8.7 26.35" fill="#987229" fill-rule="evenodd" transform="translate(-155.15 -87.8)"/><path d="m181.7 62.75.1-.15q3.45-4.55 7.95-.9v.2q1.45 13.45.65 27.2v.6l-.1.95-.9 1.3q-3.2 3.95-7.25 1.15-1.8-14.05-1.2-29.15z" fill="none" stroke="#232312" stroke-linecap="round" stroke-linejoin="round" stroke-opacity=".502" stroke-width=".05"/><path d="M365.75 173.15v.6l-.1.95-.9 1.3q-3.2 3.95-7.25 1.15-1.8-14.05-1.2-29.15l.75-1.2q-.65 33.25 8.7 26.35" fill="#987229" fill-rule="evenodd" transform="translate(-155.15 -87.8)"/><path d="m357.05 146.8.1-.15q3.45-4.55 7.95-.9v.2q1.45 13.45.65 27.2-9.35 6.9-8.7-26.35" fill="#ca9a40" fill-rule="evenodd" transform="translate(-155.15 -87.8)"/><path d="m201.9 59 .1-.15q3.45-4.55 7.95-.9v.2q1.45 13.45.65 27.2v.6l-.1.95-.9 1.3q-3.2 3.95-7.25 1.15-1.8-14.05-1.2-29.15z" fill="none" stroke="#232312" stroke-linecap="round" stroke-linejoin="round" stroke-opacity=".502" stroke-width=".05"/><path d="M180.65 172.25q-.8-13.75.65-27.2l.05-.2q4.45-3.65 7.9.9l.1.15q.65 33.25-8.7 26.35" fill="#ca9a40" fill-rule="evenodd" transform="translate(-155.15 -87.8)"/><path d="M180.65 172.25q9.35 6.9 8.7-26.35l.8 1.2q.55 15.1-1.2 29.15-4.1 2.8-7.25-1.15l-.95-1.3-.05-.95-.05-.6" fill="#987229" fill-rule="evenodd" transform="translate(-155.15 -87.8)"/><path d="m34.2 58.1-.1-.15q-3.45-4.55-7.9-.9l-.05.2q-1.45 13.45-.65 27.2m8.7-26.35.8 1.2q.55 15.1-1.2 29.15-4.1 2.8-7.25-1.15L25.6 86l-.05-.95-.05-.6" fill="none" stroke="#232312" stroke-linecap="round" stroke-linejoin="round" stroke-opacity=".502" stroke-width=".05"/><path d="M274.55 203.85h-.85l.05-.3.8.3" fill="#584943" fill-rule="evenodd" transform="translate(-155.15 -87.8)"/><path d="M312.2 172.05q-30.2.75-63.9-3.4v-33.8l33.75 3.85.1-.5 14.65-.75q10.3 16.9 15.4 34.6m-8.05 30.45-29.6 1.35-.8-.3h-.45l-19.65-2.3-5.35-.85v-26.85q33.7 4.15 63.9 3.4l.95-.15q2.05 15-9 25.7" fill="#887837" fill-rule="evenodd" transform="translate(-155.15 -87.8)"/><path d="m296.8 137.45 23.95-1.2 12.4 30.1-.1 1q-8.25 2.7-20.85 4.7-5.1-17.7-15.4-34.6m16.35 39.35q11.45-1.85 19.2-4.35l-.95 6.95-14.1 22.55-13.15.55q11.05-10.7 9-25.7" fill="#c0a649" fill-rule="evenodd" transform="translate(-155.15 -87.8)"/><path d="m141.65 49.65 23.95-1.2 12.4 30.1-.1 1q-8.25 2.7-20.85 4.7-30.2.75-63.9-3.4h-1.8M158 89q11.45-1.85 19.2-4.35l-.95 6.95-14.1 22.55-13.15.55-29.6 1.35h-.85l-.4-.3-19.65-2.3-5.35-.85m0-26.85q33.7 4.15 63.9 3.4L158 89M93.15 47.05l33.75 3.85.1-.5 14.65-.75m-23.1 66.4.05-.3h-.45m.45 0 .8.3" fill="none" stroke="#000" stroke-linecap="round" stroke-linejoin="round" stroke-opacity=".302" stroke-width=".05"/></g><g id="c"><path d="m-4.05-14.4.1-.15Q-.5-19.1 4-15.45v.2q1.45 13.45.65 27.2-9.35 6.9-8.7-26.35" fill="#6f5c29" fill-rule="evenodd" transform="translate(4.95 17.05)"/><path d="M4.65 11.95v.6l-.1.95-.9 1.3q-3.2 3.95-7.25 1.15Q-5.4 1.9-4.8-13.2l.75-1.2q-.65 33.25 8.7 26.35" fill="#655425" fill-rule="evenodd" transform="translate(4.95 17.05)"/><path d="M.9 2.65 1 2.5q3.45-4.55 7.95-.9v.2Q10.4 15.25 9.6 29v.6l-.1.95-.9 1.3Q5.4 35.8 1.35 33-.45 18.95.15 3.85z" fill="none" stroke="#4d4420" stroke-linecap="round" stroke-linejoin="round" stroke-opacity=".502" stroke-width=".05"/></g><g id="d"><path d="m31.95 11.75.1-.15-.05.15h-.05" fill="#475801" fill-rule="evenodd" transform="translate(37.35 41.25)"/><path d="M17.85-31.5q-4.5-4.4-12-5.7 7.5 1.3 12 5.7m14.2 26.75q-2.1-10.5-9.55-18.55-4.2-4.55-9.15-7.2-7.1-3.85-15.65-3.85-7-.05-13 2.55-6.5 2.75-11.8 8.5l-2.15 2.45Q-30.8-25-26.9-30q7.2-5.9 15.45-8.75 12.5-5.55 25.3 1.3 11 4.6 18.4 12.7 2.05 2.55 1.75 5.1-2.1 3.6-1 6.35 1.25 5 4.2 7.6 1.1 3.6-3.3 28.4-.4 1.95-1.45 3.75L32 11.75l.05-.15q.75-3.95.75-8.15 0-4.3-.75-8.2m-30.5-33.2q-13.25-1.5-27.8 9.3 14.55-10.8 27.8-9.3" fill="#d7cba2" fill-rule="evenodd" transform="translate(37.35 41.25)"/><path d="M32.45 26.45q-2.9 4.9-11.05 8.6-4.9 2.4-9.8 3.25 5.95-2.8 10.9-8.15l3.95-4.95q4.1-6.15 5.55-13.45l.45 14.7" fill="#b6a254" fill-rule="evenodd" transform="translate(37.35 41.25)"/><path d="m-13.9-22.25-8.4 12.3-.2.05-12.95 4.55.45-5.2q2-5.55 5.75-10.3l2.15-2.45q5.3-5.75 11.8-8.5l1.4 9.55" fill="#fc0" fill-rule="evenodd" transform="translate(37.35 41.25)"/><path d="m13.35-30.5-6.5 8.85-.05-.05-20.7-.55-1.4-9.55q6-2.6 13-2.55 8.55 0 15.65 3.85m-35.8 20.75L-17.3 4.4l-.05.05-7.25 16.6h-.05l-7.15-.5-5.25-11.5-.25-2.6 1.85-11.8L-22.5-9.9l.05.15" fill="#ebb601" fill-rule="evenodd" transform="translate(37.35 41.25)"/><path d="M32.05-4.75 15.8-8.9 6.85-21.65l6.5-8.85q4.95 2.65 9.15 7.2 7.45 8.05 9.55 18.55" fill="#dcab01" fill-rule="evenodd" transform="translate(37.35 41.25)"/><path d="M6.85-21.65 15.8-8.9 8.75 5.75v.05L-17.3 4.45V4.4l-5.15-14.15.15-.2 8.4-12.3 20.7.55.05.05" fill="#d6a601" fill-rule="evenodd" transform="translate(37.35 41.25)"/><path d="m15.8-8.9 16.25 4.15q.75 3.9.75 8.2 0 4.2-.75 8.15l-.1.15-6.5 11.4-.05.1-11.55-1.65h-.15L8.75 5.8v-.05L15.8-8.9m-48.95 30.6q-3.05-5.85-3.9-12.65l5.25 11.5-1.35 1.15M-37.3 6.45l-.05-3q-.05-4.5.8-8.6.55-2.8 1.55-5.4l-.45 5.2-1.85 11.8" fill="#c99c01" fill-rule="evenodd" transform="translate(37.35 41.25)"/><path d="m8.75 5.8 4.95 15.8.05.1L-.85 35H-.9l-17.5-3.65-6.25-10.25.05-.05 7.25-16.6h.05L8.75 5.8" fill="#be9401" fill-rule="evenodd" transform="translate(37.35 41.25)"/><path d="M-18.15 37.25q-4.85-2.65-8.95-7.1-3.7-3.95-6.05-8.45l1.35-1.15 7.15.5v.05l6.25 10.25.25 5.9" fill="#ad8701" fill-rule="evenodd" transform="translate(37.35 41.25)"/><path d="m.6 41.1-2.9.15q-8.7-.05-15.85-4l-.25-5.9L-.9 35v.05L.6 41.1" fill="#9e7b01" fill-rule="evenodd" transform="translate(37.35 41.25)"/><path d="m13.85 21.6 11.55 1.65h.1l-.05-.1 6.5-11.4H32q-1.45 7.3-5.55 13.45l-3.95 4.95q-4.95 5.35-10.9 8.15l-3.15 1.25Q4.7 40.8.6 41.1l-1.5-6.05.05-.05 14.6-13.3.1-.1" fill="#8f7001" fill-rule="evenodd" transform="translate(37.35 41.25)"/><path d="M8.1 20.4q-1.55-4.15 2.35-9.15 7.2-5.9 15.45-8.75 12.5-5.55 25.3 1.3 11 4.6 18.4 12.7 2.05 2.55 1.75 5.1-2.1 3.6-1 6.35 1.25 5 4.2 7.6 1.1 3.6-3.3 28.4-.4 1.95-1.45 3.75-2.9 4.9-11.05 8.6-4.9 2.4-9.8 3.25L45.8 80.8q-3.75 1.25-7.85 1.55l-2.9.15q-8.7-.05-15.85-4-4.85-2.65-8.95-7.1-3.7-3.95-6.05-8.45Q1.15 57.1.3 50.3l-.25-2.6-.05-3q-.05-4.5.8-8.6.55-2.8 1.55-5.4 2-5.55 5.75-10.3" fill="none" stroke="#000" stroke-linecap="round" stroke-linejoin="round" stroke-opacity=".302" stroke-width=".05"/><path d="M43.2 4.05q7.5 1.3 12 5.7M11.1 12.6Q25.65 1.8 38.9 3.3" fill="none" stroke="#fff" stroke-linecap="round" stroke-linejoin="round" stroke-width=".4"/></g></defs></svg>