<svg viewBox="0 0 243.31 116.88" xmlns="http://www.w3.org/2000/svg" xmlns:xlink="http://www.w3.org/1999/xlink"><g transform="translate(-127.09 -141)"><use transform="translate(156.9 161.7)" width="185.7" height="38.8" xlink:href="#a"/><use transform="translate(127.1 141)" width="243.3" height="116.05" xlink:href="#b"/><use transform="rotate(-.04 300720 .067)" width="9.9" height="34.15" xlink:href="#c"/><use transform="translate(193.8 182.5)" width="52.3" height="75.35" xlink:href="#d"/></g><defs><g id="a"><path d="m-63.65-12.1-.1-.15q-3.45-4.55-7.95-.9v.2q-1.45 13.45-.65 27.2 9.35 6.9 8.7-26.35" fill="#714016" fill-rule="evenodd" transform="translate(92.85 19.4)"/><path d="M-72.35 14.25v.6l.1.95.9 1.3q3.2 3.95 7.25 1.15 1.8-14.05 1.2-29.15l-.75-1.2q.65 33.25-8.7 26.35" fill="#6c3c14" fill-rule="evenodd" transform="translate(92.85 19.4)"/><path d="m29.2 7.3-.1-.15q-3.45-4.55-7.95-.9v.2q-1.45 13.45-.65 27.2v.6l.1.95.9 1.3q3.2 3.95 7.25 1.15 1.8-14.05 1.2-29.15z" fill="none" stroke="#603411" stroke-linecap="round" stroke-linejoin="round" stroke-opacity=".502" stroke-width=".05"/><path d="M-92.55 10.5v.6l.1.95.9 1.3q3.2 3.95 7.25 1.15 1.8-14.05 1.2-29.15l-.75-1.2q.65 33.25-8.7 26.35" fill="#6c3c14" fill-rule="evenodd" transform="translate(92.85 19.4)"/><path d="m-83.85-15.85-.1-.15q-3.45-4.55-7.95-.9v.2q-1.45 13.45-.65 27.2 9.35 6.9 8.7-26.35" fill="#714016" fill-rule="evenodd" transform="translate(92.85 19.4)"/><path d="m9 3.55-.1-.15Q5.45-1.15.95 2.5v.2Q-.5 16.15.3 29.9v.6l.1.95.9 1.3q3.2 3.95 7.25 1.15 1.8-14.05 1.2-29.15z" fill="none" stroke="#603411" stroke-linecap="round" stroke-linejoin="round" stroke-opacity=".502" stroke-width=".05"/><path d="M92.55 9.6q.8-13.75-.65-27.2l-.05-.2q-4.45-3.65-7.9.9l-.1.15Q83.2 16.5 92.55 9.6" fill="#714016" fill-rule="evenodd" transform="translate(92.85 19.4)"/><path d="M92.55 9.6q-9.35 6.9-8.7-26.35l-.8 1.2q-.55 15.1 1.2 29.15 4.1 2.8 7.25-1.15l.95-1.3.05-.95.05-.6" fill="#6c3c14" fill-rule="evenodd" transform="translate(92.85 19.4)"/><path d="m176.7 2.65.1-.15q3.45-4.55 7.9-.9l.05.2q1.45 13.45.65 27.2m-8.7-26.35-.8 1.2q-.55 15.1 1.2 29.15 4.1 2.8 7.25-1.15l.95-1.3.05-.95.05-.6" fill="none" stroke="#603411" stroke-linecap="round" stroke-linejoin="round" stroke-opacity=".502" stroke-width=".05"/></g><g id="b"><path d="m339.65 208.7.1-.35v.4l-.1-.05M130.9 198h-.05.05" fill="#6c5e2b" fill-rule="evenodd" transform="translate(-127.1 -141)"/><path d="M358.55 238.3q-8.65 4.25-26.3 7.8-14.2 2.85-30.75 4.55l9.5-31.1q11.2-1.45 21.25-3.45l8-1.75q5.4-1.3 9.75-2.8 4.6-1.55 7.95-3.3 6.1 14.6.6 30.05M240.3 253q-43.5-.55-75.05-6.9-20-4-28.5-8.95-3.95-16.35-1.8-32.2 4.15 3.65 12.6 6.6l4.45 1.4 5.3 1.4 7.95 1.75q31.75 6.4 75.55 6.9l-.5 30" fill="#ea8915" fill-rule="evenodd" transform="translate(-127.1 -141)"/><path d="m301.5 250.65-10.85.95-41.9 1.45-8.45-.05.5-30 7.95.05 18.2-.25q23.95-.7 44.05-3.25l-9.5 31.1" fill="#aa591e" fill-rule="evenodd" transform="translate(-127.1 -141)"/><path d="M366.9 198.3q6.5 16.55 0 31.65l-.1.3q-.7 4.3-8.25 8.05 5.5-15.45-.6-30.05 7.85-4.2 8.9-9.45v.55l.05-1.05m-230.15 38.85q-5.1-2.95-6.1-6.2l-.15-.6q-6.45-15.2.25-31.95l.2-.05q.55 3.55 4 6.6-2.15 15.85 1.8 32.2" fill="#f3bd7a" fill-rule="evenodd" transform="translate(-127.1 -141)"/><path d="M338.8 184.05q26.25 6.05 27.95 14.2l.05.35.05.2q-1.05 5.25-8.9 9.45-3.35 1.75-7.95 3.3-4.5-1.45-10.25-2.8v-.4q6.8-7.75-.95-24.3M130.85 198q1.75-7.1 22.45-12.6-8.1 16.95-1.15 24.8l-4.6 1.35q-8.45-2.95-12.6-6.6-3.45-3.05-4-6.6v-.05l-.05-.3h-.05" fill="#673612" fill-rule="evenodd" transform="translate(-127.1 -141)"/><path d="m153.3 185.4 11.95-2.8q34.6-6.95 83.5-6.95t83.5 6.95l6.55 1.45q7.75 16.55.95 24.3l-.1.35-7.4-1.6q-34.6-6.95-83.5-6.95t-83.5 6.95q-7.35 1.45-13.1 3.1-6.95-7.85 1.15-24.8m182.25 19.65q-86.15-17.85-178 .35 91.85-18.2 178-.35m0-16q-86.15-17.85-178 .35 91.85-18.2 178-.35" fill="#9f541c" fill-rule="evenodd" transform="translate(-127.1 -141)"/><path d="m26.2 44.4 11.95-2.8q34.6-6.95 83.5-6.95t83.5 6.95l6.55 1.45q26.25 6.05 27.95 14.2l.05.35.1-.3q6.5 16.55 0 31.65l-.1.3q-.7 4.3-8.25 8.05-8.65 4.25-26.3 7.8-14.2 2.85-30.75 4.55l-10.85.95-41.9 1.45-8.45-.05q-43.5-.55-75.05-6.9-20-4-28.5-8.95-5.1-2.95-6.1-6.2l-.15-.6q-6.45-15.2.25-31.95v-.05l.1-.35Q5.5 49.9 26.2 44.4m-1.15 24.8q5.75-1.65 13.1-3.1 34.6-6.95 83.5-6.95t83.5 6.95l7.4 1.6.1.05q5.75 1.35 10.25 2.8 4.6-1.55 7.95-3.3 7.85-4.2 8.9-9.45v.55l.05-1.05-.05.5-.05-.2m-16.8 12.95q-4.35 1.5-9.75 2.8l-8 1.75q-10.05 2-21.25 3.45-20.1 2.55-44.05 3.25l-18.2.25-7.95-.05q-43.8-.5-75.55-6.9l-7.95-1.75-5.3-1.4-4.45-1.4Q12 67.6 7.85 63.95q-3.45-3.05-4-6.6v-.05L3.8 57l-.15.35m16.8 13.2 4.6-1.35" fill="none" stroke="#232312" stroke-linecap="round" stroke-linejoin="round" stroke-opacity=".502" stroke-width=".5"/><path d="M30.45 48.4q91.85-18.2 178-.35m-178 16.35q91.85-18.2 178-.35" fill="none" stroke="#232312" stroke-linecap="round" stroke-linejoin="round" stroke-opacity=".502" stroke-width=".05"/><path d="m339.75 174.35-.1-.05.1-.35v.4M130.9 163.6h-.05.05" fill="#6c5e2b" fill-rule="evenodd" transform="translate(-127.1 -141)"/><path d="M358.55 203.9q5.5-15.45-.6-30.05 7.85-4.2 8.9-9.45v.55l.05-1.05q6.5 16.55 0 31.65l-.1.3q-.7 4.3-8.25 8.05m-227.6-39.95q.55 3.55 4 6.6-2.15 15.85 1.8 32.2-5.1-2.95-6.1-6.2l-.15-.6q-6.45-15.2.25-31.95l.2-.05" fill="#f3bd7a" fill-rule="evenodd" transform="translate(-127.1 -141)"/><path d="M266.95 188.4q5.9 3.3 10.4 6.55l24.05-3.1 9.35 23.35-20.1 2-41.9 1.45-8.45-.05.5-30 7.95.05 18.2-.25" fill="#aa591e" fill-rule="evenodd" transform="translate(-127.1 -141)"/><path d="M266.95 188.4q37.35-1.1 65.3-6.7l8-1.75q5.4-1.3 9.75-2.8 4.6-1.55 7.95-3.3 6.1 14.6.6 30.05-8.65 4.25-26.3 7.8-10.15 2.05-21.5 3.5l-9.35-23.35-24.05 3.1q-4.5-3.25-10.4-6.55m-119.4-11.25 4.45 1.4 5.3 1.4 7.95 1.75q31.75 6.4 75.55 6.9l-.5 30q-43.5-.55-75.05-6.9-20-4-28.5-8.95-3.95-16.35-1.8-32.2 4.15 3.65 12.6 6.6" fill="#ea8915" fill-rule="evenodd" transform="translate(-127.1 -141)"/><path d="m339.65 174.3-7.4-1.6q-34.6-6.95-83.5-6.95t-83.5 6.95q-7.35 1.45-13.1 3.1-6.95-7.85 1.15-24.8l11.95-2.8q34.6-6.95 83.5-6.95t83.5 6.95l6.55 1.45q7.75 16.55.95 24.3l-.1.35m-4.1-19.65q-86.15-17.85-178 .35 91.85-18.2 178-.35m0 16q-86.15-17.85-178 .35 91.85-18.2 178-.35" fill="#9f541c" fill-rule="evenodd" transform="translate(-127.1 -141)"/><path d="M357.95 173.85q-3.35 1.75-7.95 3.3-4.5-1.45-10.25-2.8v-.4q6.8-7.75-.95-24.3 26.25 6.05 27.95 14.2l.05.35.05.2q-1.05 5.25-8.9 9.45m-205.8 1.95-4.6 1.35q-8.45-2.95-12.6-6.6-3.45-3.05-4-6.6v-.05l-.05-.3h-.05q1.75-7.1 22.45-12.6-8.1 16.95-1.15 24.8" fill="#673612" fill-rule="evenodd" transform="translate(-127.1 -141)"/><path d="M222.9 36.15q-4.35 1.5-9.75 2.8l-8 1.75q-27.95 5.6-65.3 6.7m43.8 26.8q11.35-1.45 21.5-3.5 17.65-3.55 26.3-7.8m-.6-30.05q-3.35 1.75-7.95 3.3-4.5-1.45-10.25-2.8l-.1-.05-7.4-1.6q-34.6-6.95-83.5-6.95t-83.5 6.95q-7.35 1.45-13.1 3.1l-4.6 1.35 4.45 1.4 5.3 1.4 7.95 1.75q31.75 6.4 75.55 6.9l7.95.05 18.2-.25M211.7 8.65q26.25 6.05 27.95 14.2l.05.35.1-.3q6.5 16.55 0 31.65l-.1.3q-.7 4.3-8.25 8.05m8.3-39.5-.05-.2m.05.2v.55l.05-1.05-.05.5q-1.05 5.25-8.9 9.45M26.2 10l11.95-2.8Q72.75.25 121.65.25t83.5 6.95l6.55 1.45M3.75 22.6Q5.5 15.5 26.2 10M3.8 22.6l.05.3v.05q.55 3.55 4 6.6 4.15 3.65 12.6 6.6M3.8 22.6l-.15.35V23q-6.7 16.75-.25 31.95l.15.6q1 3.25 6.1 6.2m-6-38.8.1-.35m179.9 51.6-20.1 2-41.9 1.45-8.45-.05q-43.5-.55-75.05-6.9-20-4-28.5-8.95" fill="none" stroke="#232312" stroke-linecap="round" stroke-linejoin="round" stroke-opacity=".502" stroke-width=".5"/><path d="M30.45 30q91.85-18.2 178-.35M30.45 14q91.85-18.2 178-.35" fill="none" stroke="#232312" stroke-linecap="round" stroke-linejoin="round" stroke-opacity=".502" stroke-width=".05"/><path d="m183.65 74.2.2.55" fill="none" stroke="#000" stroke-linecap="round" stroke-linejoin="round" stroke-opacity=".302" stroke-width=".05"/><path d="M317.5 230.1v.6l-.1.95-.9 1.3q-3.2 3.95-7.25 1.15-1.8-14.05-1.2-29.15l.75-1.2q-.65 33.25 8.7 26.35" fill="#5b6f11" fill-rule="evenodd" transform="translate(-127.1 -141)"/><path d="m308.8 203.75.1-.15q3.45-4.55 7.95-.9v.2q1.45 13.45.65 27.2-9.35 6.9-8.7-26.35" fill="#8ba81a" fill-rule="evenodd" transform="translate(-127.1 -141)"/><path d="m181.7 62.75.1-.15q3.45-4.55 7.95-.9v.2q1.45 13.45.65 27.2v.6l-.1.95-.9 1.3q-3.2 3.95-7.25 1.15-1.8-14.05-1.2-29.15z" fill="none" stroke="#232312" stroke-linecap="round" stroke-linejoin="round" stroke-opacity=".502" stroke-width=".05"/><path d="m329 200 .1-.15q3.45-4.55 7.95-.9v.2q1.45 13.45.65 27.2-9.35 6.9-8.7-26.35" fill="#8ba81a" fill-rule="evenodd" transform="translate(-127.1 -141)"/><path d="M337.7 226.35v.6l-.1.95-.9 1.3q-3.2 3.95-7.25 1.15-1.8-14.05-1.2-29.15l.75-1.2q-.65 33.25 8.7 26.35" fill="#5b6f11" fill-rule="evenodd" transform="translate(-127.1 -141)"/><path d="m201.9 59 .1-.15q3.45-4.55 7.95-.9v.2q1.45 13.45.65 27.2v.6l-.1.95-.9 1.3q-3.2 3.95-7.25 1.15-1.8-14.05-1.2-29.15z" fill="none" stroke="#232312" stroke-linecap="round" stroke-linejoin="round" stroke-opacity=".502" stroke-width=".05"/><path d="M152.6 225.45q-.8-13.75.65-27.2l.05-.2q4.45-3.65 7.9.9l.1.15q.65 33.25-8.7 26.35" fill="#8ba81a" fill-rule="evenodd" transform="translate(-127.1 -141)"/><path d="M152.6 225.45q9.35 6.9 8.7-26.35l.8 1.2q.55 15.1-1.2 29.15-4.1 2.8-7.25-1.15l-.95-1.3-.05-.95-.05-.6" fill="#5b6f11" fill-rule="evenodd" transform="translate(-127.1 -141)"/><path d="m34.2 58.1-.1-.15q-3.45-4.55-7.9-.9l-.05.2q-1.45 13.45-.65 27.2m8.7-26.35.8 1.2q.55 15.1-1.2 29.15-4.1 2.8-7.25-1.15L25.6 86l-.05-.95-.05-.6" fill="none" stroke="#232312" stroke-linecap="round" stroke-linejoin="round" stroke-opacity=".502" stroke-width=".05"/><path d="M246.5 257.05h-.85l.05-.3.8.3" fill="#584943" fill-rule="evenodd" transform="translate(-127.1 -141)"/><path d="M220.25 188.05 254 191.9l.1-.5 14.65-.75q10.3 16.9 15.4 34.6-30.2.75-63.9-3.4v-33.8m55.85 67.65-29.6 1.35-.8-.3h-.45l-19.65-2.3-5.35-.85v-26.85q33.7 4.15 63.9 3.4l.95-.15q2.05 15-9 25.7" fill="#9f541c" fill-rule="evenodd" transform="translate(-127.1 -141)"/><path d="m268.75 190.65 23.95-1.2 12.4 30.1-.1 1q-8.25 2.7-20.85 4.7-5.1-17.7-15.4-34.6M285.1 230q11.45-1.85 19.2-4.35l-.95 6.95-14.1 22.55-13.15.55q11.05-10.7 9-25.7" fill="#ea8915" fill-rule="evenodd" transform="translate(-127.1 -141)"/><path d="m93.15 47.05 33.75 3.85.1-.5 14.65-.75 23.95-1.2 12.4 30.1-.1 1q-8.25 2.7-20.85 4.7-30.2.75-63.9-3.4h-1.8M158 89q11.45-1.85 19.2-4.35l-.95 6.95-14.1 22.55-13.15.55-29.6 1.35h-.85l-.4-.3-19.65-2.3-5.35-.85m0-26.85q33.7 4.15 63.9 3.4L158 89m-39.45 27.05.05-.3h-.45m.45 0 .8.3" fill="none" stroke="#000" stroke-linecap="round" stroke-linejoin="round" stroke-opacity=".302" stroke-width=".05"/></g><g id="c"><path d="m-4.05-14.4.1-.15Q-.5-19.1 4-15.45v.2q1.45 13.45.65 27.2-9.35 6.9-8.7-26.35" fill="#a76122" fill-rule="evenodd" transform="translate(4.95 17.05)"/><path d="M4.65 11.95v.6l-.1.95-.9 1.3q-3.2 3.95-7.25 1.15Q-5.4 1.9-4.8-13.2l.75-1.2q-.65 33.25 8.7 26.35" fill="#9d591e" fill-rule="evenodd" transform="translate(4.95 17.05)"/><path d="M.9 2.65 1 2.5q3.45-4.55 7.95-.9v.2Q10.4 15.25 9.6 29v.6l-.1.95-.9 1.3Q5.4 35.8 1.35 33-.45 18.95.15 3.85z" fill="none" stroke="#854919" stroke-linecap="round" stroke-linejoin="round" stroke-opacity=".502" stroke-width=".05"/></g><g id="d"><path d="m240.1 204.6-.65.05v-1.25l.65 1.2M207.05 189.75l-6.95-.1-2.25 2.8v53.3l2.35 2.9 1.85.15-.75 2.8-.95 3.55-3.8-.25-2.75-2.85v-67.2l2.45-2.3 7.1-.05 1.55 3 1.6 3.15.55 1.1m32.85 34.35-.45-19.45.65-.05 2.9-.2 2.05-.15 1.05 51.15-2.4 2.45-15.55-.95-.7-1.35-.85-1.65-3.35-1.15-9.6-3.25 24.75 1.6 2-2.5-.4-19.55-.1-4.95M204.8 189l1.7-.35-1.7.35m-4.75 62.3 1.25.3-1.25-.3m4.85-65.8-2.1.5 2.1-.5m38.3 21.15-.2-2.25.2 2.25m-19.5 44.85-.45 1.25.45-1.25m16.8-45.1-.4-1.8.4 1.8m-11.1 48.25-1.95.9 1.95-.9" fill="#8ba81a" fill-rule="evenodd" transform="translate(-193.8 -182.5)"/><path d="m239.45 203.4-.2-10.05-4.7-3.05-27.5-.55-.55-1.1-1.6-3.15-1.55-3 37.55.7 3.75 3.4.4 17.65-2.05.15-2.9.2-.65-1.2m-39.1 51.75.95-3.55.75-2.8 11.6.7 9.6 3.25-.3.75.3-.75 3.35 1.15.85 1.65q-.25.15-.55.25.3-.1.55-.25l.7 1.35-27.8-1.75m6.35-70.1-1.8.45 1.8-.45m1.15 3.3-1.35.3 1.35-.3m35.05 15 .1 1.05-.1-1.05m-39.1 48.9-2.5-.65 2.5.65" fill="#c0e13e" fill-rule="evenodd" transform="translate(-193.8 -182.5)"/><path d="M197.85 219.95v-27.5l2.25-2.8 6.95.1 27.5.55 4.7 3.05.2 10.05v1.25l.45 19.45q-20.35-1-42.05-4.15m40.1-26.75-37.9-2.25 2.5 4.1 29.4 6.7 6-8.55m2.05 35.85.4 19.55-2 2.5-24.75-1.6-11.6-.7-1.85-.15-2.35-2.9v-20.9q21.75 3.2 42.15 4.2" fill="#9f541c" fill-rule="evenodd" transform="translate(-193.8 -182.5)"/><path d="M197.85 219.95q21.7 3.15 42.05 4.15l.1 4.95q-20.4-1-42.15-4.2v-4.9" fill="#532c0f" fill-rule="evenodd" transform="translate(-193.8 -182.5)"/><path d="m237.95 193.2-6 8.55-29.4-6.7-2.5-4.1 37.9 2.25" fill="#ea8915" fill-rule="evenodd" transform="translate(-193.8 -182.5)"/><path d="m13.25 7.25-6.95-.1-2.25 2.8v27.5q21.7 3.15 42.05 4.15l-.45-19.45V20.9l-.2-10.05-4.7-3.05-27.5-.55-.55-1.1-1.7.35M9.55 0l-7.1.05L0 2.35v67.2l2.75 2.85 3.8.25.95-3.55-1.25-.3M11.1 3l1.8-.45M9.55 0l1.55 3 1.6 3.15 1.35-.3M9 3.5l2.1-.5M9.55 0 47.1.7l3.75 3.4.4 17.65L52.3 72.9l-2.4 2.45-15.55-.95-27.8-1.75M49.2 21.9l2.05-.15m-2.05.15.2 2.25M46.1 41.6l.1 4.95.4 19.55-2 2.5L19.85 67l9.6 3.25.45-1.25m15.75-48.1.65 1.2 2.9-.2-.1-1.05m-2.8 1.25.4 1.8m-1.05-1.75.65-.05M4.05 42.35v-4.9m4.2 28.85-1.85-.15-2.35-2.9v-20.9q21.75 3.2 42.15 4.2M8.25 66.3l-.75 2.8 2.5.65M29.15 71l.3-.75 3.35 1.15.85 1.65 1.95-.9m-2.5 1.15q.3-.1.55-.25l.7 1.35M19.85 67l-11.6-.7" fill="none" stroke="#000" stroke-linecap="round" stroke-linejoin="round" stroke-opacity=".302" stroke-width=".05"/></g></defs></svg>