<svg viewBox="0 0 82.15 93.18" xmlns="http://www.w3.org/2000/svg" xmlns:xlink="http://www.w3.org/1999/xlink"><use transform="translate(0 -.02)" width="82.15" height="93.2" xlink:href="#a"/><defs><g id="a"><path d="M246.2 157.65q10.25-2.6 19.9-3.2l1.5 5.8q-9.5.25-18.5 2.35l-2.9-4.95m52.75 3.7.75-1 .35 5.95-4 3.1.35-1.35q-3.55 4.05-10.35 4.45l-.25-1.45q-3.8 5.1-13.15 4.6l-.3-.95v-.05q-4.9 5.65-13.2 2.65V176q-6.45 5.05-16.2.1l.1-4.25q7.95 2 15.85-.55 6.65 1.45 12.85-1.95 6.7.4 13.3-3.45 4.1 0 7.55-1.75l3.1-2.05q1.95.4 3.25-.75m6 13.15q5.55 11.6 9.8 49.4l-3.2 1.25-.05-.1-8.65 4.3v-.1l-.05.05-3.55 3.35-9.8 1.05-.05-.05-1.25-4.25-21.4.25-5.65 5.2-5.8-2.3-.15-6.65 3.7-1.05q2.2-.65 3.65-.6l2.25-.55q1.45-.5 2.3-.35l-.5-8.7-.35-9.35-.3-8.2-2.8.05-2.8.35-2.65.4-2.65.7q-1.95 1.1-2.9 1.3-1.2-8.1-3.9-12.9 32.8-1.25 56.75-12.5m-34.3-3.35q-3.6 2.4-10.8 1.4 7.2 1 10.8-1.4m-11.55 4 .05.85-.05-.85m9.4 30.3-2.3-.15 2.3.15m-8.2-9.75v1.8-1.8M255 194v4.6-4.6m13.95 20.65h-2.4 2.4m-10.7-41.35q-7.45 2.65-14.15.3 6.7 2.35 14.15-.3m27.45-2.75.1.5-.1-.5m-13.6 3.15.25.95-.25-.95m12.3-5.35q-4.65 3-11.1 2.5 6.45.5 11.1-2.5m13.6 23.4 3.1-.35-3.1.35q-20.75 3.1-22.1 29.3 7.95-19 22.1-29.3m-22.2 31 .1-1.7-.1 1.7m19.85-58.2q-3.55 2.5-8.9 2.6 5.35-.1 8.9-2.6m4.4 49.8-5.3-1.25-4.8 9 2.65 4.2 2.75-.4 2.1-4.3 5.9-1.65-3.3-5.6m-18.8 6.5-2.1 5.45 6.2-.2-.35-5.55-3.75.3m-18.55 5.2-.2-1.8.2 1.8" fill="#8d700a" fill-rule="evenodd" transform="translate(-233.9 -153.85)"/><path d="m266.1 154.45 3.25-.15q4.55-.3 8.65-.1l1.05 6.4-8.2-.35h-3.25l-1.5-5.8" fill="#775f09" fill-rule="evenodd" transform="translate(-233.9 -153.85)"/><path d="M234.3 166.2q0-3.3 1.65-5.6l10.25-2.95 2.9 4.95q-5.15 1.15-10.15 2.95-.65 1.4-.7 4l-3.95-3.35" fill="#513e1a" fill-rule="evenodd" transform="translate(-233.9 -153.85)"/><path d="m300.05 166.3.15 2.85-.35.15q2.65.15 5.1 5.2Q281 185.75 248.2 187q-2.05-3.7-4.8-5.85l15.8-.9-15.8.9-.2-.2v-.05l-.1-1.15v-.1q-4.7-.6-8.95-4.25v-8.7l.15-.5 3.95 3.35q2.55 1.65 4.8 2.3l-.1 4.25q9.75 4.95 16.2-.1v1.3l.05 2.95-.05-2.95q8.3 3 13.2-2.65v.05l.3.95q9.35.5 13.15-4.6l.25 1.45q6.8-.4 10.35-4.45l-.35 1.35-.45 1.7.45-1.7 4-3.1m-44.9 59.6q-.6-14.95-3.05-26 .95-.2 2.9-1.3l2.65-.7 2.65-.4 2.8-.35 2.8-.05.3 8.2-1.1-.1 1.1.1.35 9.35.5 8.7q-.85-.15-2.3.35l-2.25.55-.25-2.05.25 2.05q-1.45-.05-3.65.6l-3.7 1.05m-12.05-46.25-.15-3.55.15 3.55m16.1.6q2.95.9 3.1 3.35-.15-2.45-3.1-3.35 7.1-.7 14.1-2.2-7 1.5-14.1 2.2m-4.2 21v-2.65 2.65m5.3-3.75v2.3-2.3m26.05-23.2-.3-1.8.3 1.8.35.1q4.45-1.5 8.9-3.3-4.45 1.8-8.9 3.3l-.35-.1.05.2-.05-.2m12 0q-.1-2.5-2.75-3.2l4.25-1.8-4.25 1.8q2.65.7 2.75 3.2m-9.2 3.2q-.1-2.35-2.45-3.1l-.3.1.3-.1q2.35.75 2.45 3.1m-15.85.55-.65-2.4.65 2.4q6.55-1.45 13.1-3.55-6.55 2.1-13.1 3.55 2.5.75 2.45 3.2.05-2.45-2.45-3.2m-8.2 36.6h1.45-1.45" fill="#795c26" fill-rule="evenodd" transform="translate(-233.9 -153.85)"/><path d="M278 154.2q6.65.4 12.2 2.2 5.85.9 8.75 4.95-1.3 1.15-3.25.75l-3.1 2.05q-.65-2.25-3.85-3.15l-9.7-.4-1.05-6.4" fill="#413305" fill-rule="evenodd" transform="translate(-233.9 -153.85)"/><path d="m315.3 229 .5 4.7-.2.1-.15.1-1.5.5q-7.45 2.5-9.15 3.3l-.55.15-2 .5L315.3 229m-28.9 11.4-15.25 1.4-3.95.55q-7.15 1.45-11.1 3.8l-.1.05-.95.6.2-8.85 5.15 1.7 3.2-3 7.5-.9.7-1.95 7.45-1.3.05 1.1 7.1 6.8m-17.3-8.65-1.35 1.4-1.35-.3 1.05-1.5 1.65.4" fill="#575e04" fill-rule="evenodd" transform="translate(-233.9 -153.85)"/><path d="m315.45 233.9-1.25.75-.25-.25 1.5-.5m-12.6-4.55-.05-.05.05-.05v.1" fill="#675207" fill-rule="evenodd" transform="translate(-233.9 -153.85)"/><path d="m314.75 223.9.55 5.1-13.05 9.35-15.45 2-.4.05-7.1-6.8-.05-1.1-7.45 1.3-.7 1.95-7.5.9-3.2 3-5.15-1.7.05-5.4 5.8 2.3 5.65-5.2 21.4-.25 1.25 4.25.05.05 9.8-1.05 3.55-3.35.05.05 8.65-4.3.05.1 3.2-1.25m.85 9.9h.15l-.3.1.15-.1m-34.35-12.95 3.75-.3.35 5.55-6.2.2 2.1-5.45m-12.15 10.9-1.65-.4-1.05 1.5 1.35.3 1.35-1.4" fill="#606705" fill-rule="evenodd" transform="translate(-233.9 -153.85)"/><path d="m300.05 214.35 3.3 5.6-5.9 1.65-2.1 4.3-2.75.4-2.65-4.2 4.8-9 5.3 1.25" fill="#675b05" fill-rule="evenodd" transform="translate(-233.9 -153.85)"/><path d="M298 191.75q-14.15 10.3-22.1 29.3 1.35-26.2 22.1-29.3" fill="#796009" fill-rule="evenodd" transform="translate(-233.9 -153.85)"/><path d="M.4 12.35q0-3.3 1.65-5.6L12.3 3.8Q22.55 1.2 32.2.6l3.25-.15Q40 .15 44.1.35q6.65.4 12.2 2.2 5.85.9 8.75 4.95M9.2 25.9v-.1q-4.7-.6-8.95-4.25v-9.3l.15.1 3.95 3.35q.05-2.6.7-4 5-1.8 10.15-2.95 9-2.1 18.5-2.35h3.25l8.2.35M.4 12.35l-.15.5m4.1 2.85q2.55 1.65 4.8 2.3m49.55-7.7q-.65-2.25-3.85-3.15l-9.7-.4" fill="none" stroke="#000" stroke-linecap="round" stroke-linejoin="round" stroke-opacity=".6" stroke-width=".5"/><path d="M259.85 172.55q7.2 1 10.8-1.4m-26.55 2.45q6.7 2.35 14.15-.3m15.05-2.45q6.45.5 11.1-2.5" fill="none" stroke="#d0a50f" stroke-linecap="round" stroke-linejoin="round" transform="translate(-233.9 -153.85)"/><path d="m25.25 22.15-.05-.85m.1 5.1-.05-2.95v-1.3m3.15 7.6q-.15-2.45-3.1-3.35m1.1 17.25 2.8-.35 2.8-.05.3 8.2 2.3.15m-8.2-7.95-2.65.4-2.65.7v2.65m-2.9-1.35q.95-.2 2.9-1.3v-4.6m5.3 3.5v-1.8m0 4.1v-2.3m4.8 7.7 1.1.1.35 9.35h2.4m27.1-45.25.35-1.35m-10.35 4.45.3 1.8m9.25-3.2.45-1.7m-10 3.1-.25-1.45m-13.15 4.6.65 2.4m-.65-2.4-.3-.95m3.4 6.55q.05-2.45-2.45-3.2M28.6 70.4l2.25-.55q1.45-.5 2.3-.35l-.5-8.7H31.2m-2.85 7.55.25 2.05q-1.45-.05-3.65.6l-3.7 1.05m7.35-1.65.2 1.8" fill="none" stroke="#000" stroke-linecap="round" stroke-linejoin="round" stroke-opacity=".302" stroke-width=".05"/><path d="m65.8 6.5.35 5.95.15 2.85m-.35.15q2.65.15 5.1 5.2 5.55 11.6 9.8 49.4l.55 5.1.5 4.7m-.05.1-.3.1m-1.5.5q-7.45 2.5-9.15 3.3l-.55.15-2 .5-15.45 2-.4.05-15.25 1.4-3.95.55q-7.15 1.45-11.1 3.8l-.1.05-.95.6.2-8.85.05-5.4-.15-6.65q-.6-14.95-3.05-26-1.2-8.1-3.9-12.9-2.05-3.7-4.8-5.85l-.2-.2v.2m0-.2v-.05l-.1-1.15m-.15-3.65.15 3.55M9.15 18l-.1 4.25m71 58.3 1.5-.5" fill="none" stroke="#000" stroke-linecap="round" stroke-linejoin="round" stroke-width=".5"/><path d="m66.3 15.3-.35.15-4.25 1.8q2.65.7 2.75 3.2M9.5 27.3h-.2l-.25-.1.15-.05.1-.05m16-.7-15.8.9m-.2 0-.1-.15m43.25-6.7.35.1q4.45-1.5 8.9-3.3m-9.2 3.4.3-.1q2.35.75 2.45 3.1m-15.85.55q6.55-1.45 13.1-3.55M39.4 24.2q-7 1.5-14.1 2.2" fill="none" stroke="#000" stroke-linecap="round" stroke-linejoin="round" stroke-opacity=".302" stroke-width=".05"/><path d="m65.05 7.5.75-1M9.15 18q7.95 2 15.85-.55 6.65 1.45 12.85-1.95 6.7.4 13.3-3.45 4.1 0 7.55-1.75l3.1-2.05q1.95.4 3.25-.75" fill="none" stroke="#000" stroke-linecap="round" stroke-linejoin="round" stroke-width=".5"/><path d="m52.5 20.65-.05-.2m-.55-3.25-.1-.5m-13.35 4.1-.25-.95" fill="none" stroke="#000" stroke-linecap="round" stroke-linejoin="round" stroke-width=".05"/><path d="m67.2 37.55-3.1.35Q43.35 41 42 67.2l-.1 1.7" fill="none" stroke="#675207" stroke-linecap="round" stroke-linejoin="round" stroke-width=".5"/><path d="M286.75 167.15q5.35-.1 8.9-2.6" fill="none" stroke="#d0a50f" stroke-linecap="round" stroke-linejoin="round" transform="translate(-233.9 -153.85)"/></g></defs></svg>