<svg viewBox="0 0 112.87 77.847" xmlns="http://www.w3.org/2000/svg" xmlns:xlink="http://www.w3.org/1999/xlink"><use transform="translate(-1.57 .01) scale(.4651)" width="246.05" height="169.35" xlink:href="#a"/><defs><g id="a" transform="translate(1.45)"><use transform="translate(12.65)" width="231.95" height="131.15" xlink:href="#b"/><use transform="translate(-1.45 40.1)" width="129.4" height="129.25" xlink:href="#c"/></g><g id="b"><path d="M190.7 7.3q7.05 1.95 13.6 4.4 24.45 9.2 32.55 21.35.7 5.7 3.1 11.15v.05q-4.15 10.75-13.9 17.3-9.8 6.5-17.25 9.3-15.4 5.8-33.9 8.75l-2.45.4-1.3.15-.65.1-29.8 2.3h-1.3l-1.2.05h-8.95l-.85-.05-9.3-.3-4.5-.25-47.9 22.8h7.2q6.1 8.4-12 10.8h8.4l32.65 13.8Q80 126 54.1 116.25q-5.05-1.9-9.75-4.8-8.55-5.3-16.15-13.85l-.2-.2q-2.75-2.9-4.9-5.9-8.25-11.15-10-22.85-1.7-11.35 2.7-23.2 2.3-6.15 6.2-12.4-.4.9.3 2.5.8 1.8.75 2.5l-.05.15-.05.5-.05 1.3.05 1.3.1.75Q24.35 53.4 41 62.4l4.6 2.3q3.9 1.85 8.5 3.55 16.4 6.2 36.4 9.15l24.1 2.25 9.3.3h.2l.65.05-.65-.05.65.05h8.95l.8-.05h1.7l8.7-.7h.15l.45-.05h.35L166 77.65l.65-.1 1.3-.15q19.95-2.95 36.35-9.15 7.45-2.8 13.15-5.85 17.15-9.3 18-21.1l.05-1.3-.05-1.3Q219.7 16.85 183.1 8.6q-34.45-9.9 7.6-1.3m-76.1 73.55v-1.2 1.2M13.1 68.65l2.7-23.2-2.7 23.2" fill="#bb8044" fill-rule="evenodd" transform="translate(-12.65)"/><path d="M239.95 44.2v.05q2.6 6 3.75 11.8 2.1 10.75-.8 20.7-3.25 10.8-12.5 20.65l-.2.2q-11.85 13.4-25.9 18.65-18.45 6.95-35.4 10.7 42.5-28.15 6-47.35 18.5-2.95 33.9-8.75 7.45-2.8 17.25-9.3 9.75-6.55 13.9-17.3v-.05m-41.65 64.6q27.1-10.6 44.6-32.05-17.5 21.45-44.6 32.05m-6.4-24q34-8.15 51.8-28.75-17.8 20.6-51.8 28.75" fill="url(#d)" fill-rule="evenodd" transform="translate(-12.65)"/><path d="M22 33.05Q26.75 22 54.1 11.7 83.3.7 123.9.05l5.2-.05h.2l5.2.05 9.9.35 9.95.65q19.7 1.7 36.35 6.25-42.05-8.6-7.6 1.3 36.6 8.25 52.35 30.1v2.6q-.85 11.8-18 21.1-5.7-3.1-13.15-5.9-15.2-5.7-33.5-8.6Q210.75 33 154.35 5.05l-9.95-.65-9.9-.35-5.2-.05h-.2l-5.2.05Q83.3 4.7 54.1 15.7q-24.45 9.2-29.7 21.35-1.1 2.45-1.35 5l-.1-.75v-2.6l.05-.5.05-.15q.05-.7-.75-2.5-.7-1.6-.3-2.5" fill="#86683e" fill-rule="evenodd" transform="translate(-12.65)"/><path d="M168.9 126.95q-18.05 3.9-34.4 4.2h-10.6q-10.15-.2-20.95-1.75L70.3 115.6h-8.4q18.1-2.4 12-10.8h-7.2L114.6 82l4.5.25 9.3.3.85.05h8.95l1.2-.05h1.3l29.8-2.3.65-.1 1.3-.15 2.45-.4q36.5 19.2-6 47.35" fill="url(#e)" fill-rule="evenodd" transform="translate(-12.65)"/><path d="M23.05 42.05q.25-2.55 1.35-5Q29.65 24.9 54.1 15.7q29.2-11 69.8-11.65l5.2-.05h.2l5.2.05 9.9.35 9.95.65Q210.75 33 170.8 47.9q-16.85-2.75-36.3-3.05l-5.2-.05h-.2l-5.2.05q-40.6.65-69.8 11.65-7.45 2.8-13.1 5.9-16.65-9-17.95-20.35" fill="#685231" fill-rule="evenodd" transform="translate(-12.65)"/><path d="M178.05 7.3q7.05 1.95 13.6 4.4 24.45 9.2 32.55 21.35.7 5.7 3.1 11.15v.05q2.6 6 3.75 11.8 2.1 10.75-.8 20.7-3.25 10.8-12.5 20.65l-.2.2q-11.85 13.4-25.9 18.65-18.45 6.95-35.4 10.7-18.05 3.9-34.4 4.2h-10.6q-10.15-.2-20.95-1.75-22.95-3.4-48.85-13.15-5.05-1.9-9.75-4.8-8.55-5.3-16.15-13.85l-.2-.2q-2.75-2.9-4.9-5.9Q2.2 80.35.45 68.65q-1.7-11.35 2.7-23.2 2.3-6.15 6.2-12.4Q14.1 22 41.45 11.7 70.65.7 111.25.05l5.2-.05h.2l5.2.05 9.9.35 9.95.65q19.7 1.7 36.35 6.25m44.75 31.4.05 1.3-.05 1.3q-.85 11.8-18 21.1-5.7 3.05-13.15 5.85-16.4 6.2-36.35 9.15l-1.3.15-.65.1-20.15 1.55m-.25 0h-.1m-.45.05h-.15l-8.7.7h-1.7l-.8.05h-8.95l-.65-.05h-.2l-9.3-.3v1.2m56.2-32.95q18.3 2.9 33.5 8.6 7.45 2.8 13.15 5.9m-46.65-14.5q-16.85-2.75-36.3-3.05l-5.2-.05h-.2l-5.2.05q-40.6.65-69.8 11.65-7.45 2.8-13.1 5.9l4.6 2.3q3.9 1.85 8.5 3.55 16.4 6.2 36.4 9.15l24.1 2.25m21.6.3h-1.3M10.3 38.7v2.6l.1.75Q11.7 53.4 28.35 62.4" fill="none" stroke="#000" stroke-linecap="round" stroke-linejoin="round" stroke-opacity=".353" stroke-width=".05"/><path d="M231.05 56.05q-17.8 20.6-51.8 28.75m51-8.05q-17.5 21.45-44.6 32.05M3.15 45.45l-2.7 23.2" fill="none" stroke="#fff" stroke-linecap="round" stroke-linejoin="round" stroke-opacity=".353" stroke-width=".05"/></g><g id="c" transform="translate(-3.45 .7)"><use transform="translate(23.25 9.4)" width="109.6" height="101.8" xlink:href="#f"/><use transform="matrix(.2608 .3084 .1261 -.1962 19.516 86.672)" width="77.05" height="214.35" xlink:href="#g"/><use transform="matrix(.2608 .5509 .1754 -.1272 6.226 65.753)" width="77.05" height="214.35" xlink:href="#g"/><use transform="matrix(-.3684 .0502 -.058 -.2695 67.866 107.39)" width="77.05" height="214.35" xlink:href="#g"/><use transform="matrix(-.5079 .3686 -.1813 -.2498 101.04 100.17)" width="77.05" height="214.35" xlink:href="#g"/><use transform="matrix(-.2145 -.2145 .211 -.2181 44.294 77.163)" width="190.35" height="169.8" xlink:href="#h"/></g><g id="f"><path d="m72.9 31.4-.1-.05h.15l-.05.05M62.75 13.8l-.05-.1.1.1h-.05M43.1 89.05H43l-.25-.15.3.1.05.05m1.65 1.15v-.05l1.1.85-.6-.45-.5-.35" fill="#b5a179" fill-rule="evenodd" transform="translate(-23.25 -9.4)"/><path d="m53.35 37.35.85.55 1.35.8-.4.2-1.8-1.55M39.1 67.15l1.8.3-.7.3-.15.05-1.15-.6-.95-.55 1.15.5m6.9 39.7-.15-.1.05-.05.1.15m-7.85-6.55-1-1.15 1.05 1.1-.05.05m6.5-30.3 1.35.55.1.25-1.45-.8" fill="#8f7f5f" fill-rule="evenodd" transform="translate(-23.25 -9.4)"/><path d="m96.6 55.6.25 5 .05 1.8-.3-6.8M82 22.85l.15-.1.15.6-.1-.15-.2-.35M35.3 64.7l2.6 1.8 1.2.65-1.15-.5-.15-.1-2.65-1.7.15-.15m4.9 3.05q2.7 1.35 6.45 2.75h.05l7.75 3.05-7.9-2.75-.25-.1-.3-.15.3.15-.2.1-.1-.25-1.35-.55-1.85-.85-.65-.3-2.1-1.05.15-.05m5.65 39-.5-.35-.05-.05.05.05.5.35M30.25 89.1l-.05-.1.05.05v.05m2.95-68.3-.05-.1.4-.15-.35.25m15.65 72.4.35.25-.35-.25" fill="#f2e4c1" fill-rule="evenodd" transform="translate(-23.25 -9.4)"/><path d="m81.05 21.75.95 1.1.2.35.1.15q.5 1 .5 2.2 0 2.5-2.3 4.25-2.2 1.7-5.7 1.75l-1.85-.2h-.15l.05-.05q-1.65-1.6-1.65-3.75 0-2.5 2.25-4.25 1.05-.8 2.3-1.2l3.25-.55 2.05.2m-18.3-7.95h.05l.4.65.45 1.1.15 1.25q0 2.05-1.5 3.5-1.45 1.5-3.5 1.5-1-1.3-1-3t1-3l.45-.55 1.15-.85q1.05-.6 2.35-.6" fill="#fef7e0" fill-rule="evenodd" transform="translate(-23.25 -9.4)"/><path d="m62.8 13.8-.1-.1.5.75-.4-.65m-25 78.65h-.05v-.05l.05.05m-.15 1.45v.05l-.05-.05h.05" fill="#fff" fill-rule="evenodd" transform="translate(-23.25 -9.4)"/><path d="m37.15 99.15-.1-.1-.1-.15.15-.15.1.15-.05.25" fill="#c06407" fill-rule="evenodd" transform="translate(-23.25 -9.4)"/><path d="M37.6 93.9h.05-.05" fill="#fff024" fill-rule="evenodd" transform="translate(-23.25 -9.4)"/><path d="M113.35 38.5h12.9l3.55 3.8-6.4 2.8-10.95-2.75.9-3.85M100.75 81l3.95-6.2h17.4v.75l-10.4 2.15-4.9 3.3h-6.05M74.5 11.05 57.7 27q-11.35 5-11.8-5l.1 10.05 4.6 3.35 2.75 1.95 1.8 1.55.4-.2q3.8 2.2 6.85 2.45L51.6 48l-7.4-4.2-10.5-11.55q-2.05 5.65-3.35 10.1-2.5 8.2-2.65 10.5l-.3 3.3 1.7 2.8q1.1 1.65 2.8 3.25l3.25 2.65 2.65 1.7.15.1.95.55 1.15.6 2.1 1.05.65.3 1.85.85 1.45.8-2.1.9-13.95-6.95q-3 .85 7.15 10.05-9.1-.35-13.75-9.6l-.2-3.95v-1q.3-4.55 2.45-8-1.35-4-1.1-7.9 1.25-5.35 3.6-9Q29 34 30.05 32.9l2.2-2.35q1.9-1.9 3.9-3.45 2.1-1.65 4.35-2.9 2.6-1.55 5.4-2.6l8.9-7.8q-1 1.3-1 3t1 3l.45.5q.9.9 2.05 1.3l1.5.2q2.05 0 3.5-1.5 1.5-1.45 1.5-3.5l-.15-1.25-.45-1.1-.5-.75-.35-.4-.05-.05q-1.45-1.45-3.5-1.45-1.35 0-2.4.6l2.7-2.4 13.55.4 1.85.65M32.4 26.8q-5.8-6.8-6-10.4 1.35-5.25 4.3-6.65L35 12.2q-4.35 7.3-3.35 8.5-.05 1.7.75 6.1M45.9 22v-.4.4M25.7 52.25l1.2 2.85.5 1.05-.5-1.05-1.2-2.85m4 29.8q2.75 2.4 6.55 3.8l1 .55.55.35v.05h.05-.05l-1.55.2q-1.95.6-.25 3.2l.35.5 1.4 1.7v.05h.05l.8.85q-.45.2-.95.6h-.05l-7.35-4.85q-1.1-3.85-.55-7" fill="#ede0be" fill-rule="evenodd" transform="translate(-23.25 -9.4)"/><path d="M74.5 11.05q6 2.45 10.2 8.5h.05l1.3 1.95q-5.65-6.65-4.1.5l.2.75-.15.1-.95-1.1-.5-.4-.05-.05q-1.15-.9-2.55-1.3l-.1-.05-.8-.2-2.05-.2q-1.75 0-3.25.55-1.25.4-2.3 1.2-2.25 1.75-2.25 4.25 0 2.15 1.65 3.75l.1.05.5.45q1.5 1.15 3.35 1.55l.1.05q15.05 11.75-10.5 9.75-3.05-.25-6.85-2.45l-1.35-.8-.85-.55-2.75-1.95-4.6-3.35L45.9 22q.45 10 11.8 5l16.8-15.95M51.6 48q-27 8.15-16.3 16.7l-.15.15-3.25-2.65q-1.7-1.6-2.8-3.25l-1.7-2.8.3-3.3q.15-2.3 2.65-10.5 1.3-4.45 3.35-10.1L44.2 43.8l7.4 4.2M36.95 98.9l-2.05-2.55q-2.65-3.5-4.65-7.25v-.05l7.35 4.85.05.05v-.05q.5-.4.95-.6l-.8-.85-.05-.05-1.4-1.7-.35-.5q-1.7-2.6.25-3.2l1.55-.2h.05-.05v-.05l-.55-.35-1-.55q-3.8-1.4-6.55-3.8l-.05-.05-2.15-3.5q-3.45-5.45-4.05-13.3 4.65 9.25 13.75 9.6-10.15-9.2-7.15-10.05L44 71.7l2.1-.9.2-.1.25.1 7.9 2.75-8.65.65q-20.35 4.35-9.2 11.5 1.55 1 3.8 2.1l.2.15.85.75-.8-.75q.95.4.8.75.7-.05.25.3v.05l1.6.95 1.95 4.85-1 .35q-12.75-3.05-7.15 3.55l-.15.15m9.45-7.45 2.45 1.75-2.45-1.75m-4.7-2.4-3.85-2.25-.05-.05.05.05 3.85 2.25h-.05.05m3.55 1.5v.05l-.5-.4.5.35" fill="#aba719" fill-rule="evenodd" transform="translate(-23.25 -9.4)"/><path d="m112.45 42.35 10.95 2.75 6.4-2.8 3.05 8.5-2.1 11.25q-7.35 3.65-17.65-.55l-3.8-1.5 3.15-17.65M93.8 73.45l1.45 4.25-.9 3.3q-11.5 5.05-25.4 4.35-6.9-.35-14.3-2.1-7.75.45-6.8 4.75.4 1.85 2.55 4.5l3.2 3.5-4.3-2.5-.1-.05.1.05 4.3 2.5q5.1 2.05 10.6 3.2 6.35 1.3 13.3 1.45l3.1 2.75q-7.6 4-18.55 4.45l-13.55-.5q-2.3-.8-2.6-.65l-.05.05-.5-.35-.05-.05.05.05-4.05-3.05-3.15-3.05.05-.05-1.05-1.1.05-.25-.1-.15q-5.6-6.6 7.15-3.55l1-.35L43.3 90l-1.6-.95V89q.45-.35-.25-.3.15-.35-.8-.75l.8.75-.85-.75-.2-.15q-2.25-1.1-3.8-2.1-11.15-7.15 9.2-11.5l8.65-.65-7.75-3.05h-.05q-3.75-1.4-6.45-2.75l.7-.3-1.8-.3-1.2-.65-2.6-1.8Q24.6 56.15 51.6 48l10.8-6.85q25.55 2 10.5-9.75l.05-.05 1.85.2q3.5-.05 5.7-1.75 2.3-1.75 2.3-4.25 0-1.2-.5-2.2l-.15-.6-.2-.75q-1.55-7.15 4.1-.5 7.4 11.2 6.8 17.25l-3.1 1.85 2.45 1.8 2.4 1.8q-5.5 3.05-13.15 4.25-9.75 1.5-23.05-.05-9.35 12.1 11.8 27.7l-5.5-.55-6.6-1.2-3.65-.8 3.65.8 6.6 1.2 5.5.55 1.85.05 5.3-.1q7.45-.35 16.45-2.6m34.95-24.1q0-.85-.6-1.45-.55-.55-1.4-.55t-1.45.55q-.55.6-.55 1.45t.55 1.4q.6.6 1.45.6t1.4-.6q.6-.55.6-1.4m-55.95-18q-1.85-.4-3.35-1.55l-.5-.45-.1-.05q-1.65-1.6-1.65-3.75 0-2.5 2.25-4.25 1.05-.8 2.3-1.2 1.5-.55 3.25-.55l2.05.2.8.2.1.05q1.4.4 2.55 1.3l.05.05.5.4-2.05-.2-3.25.55q-1.25.4-2.3 1.2-2.25 1.75-2.25 4.25 0 2.15 1.65 3.75l-.05.05m-10.4 9.8q12.75 2.6 21.1 1.25 3.5-.55 6.25-1.8-2.75 1.25-6.25 1.8-8.35 1.35-21.1-1.25m38.35 48.7 4.45-1.7 2-7.15h-.4l4.9-3.3 10.4-2.15 1.85 14.6-5.55 3.5-17.65-3.8M35.9 24.75l-3.5 2.05q-.8-4.4-.75-6.1-1-1.2 3.35-8.5l3.3 4.25q-4.3.5-4.75 4.1l-.4.15.05.1 2.7 3.95m84.3 66.8q0-.65-.6-1.15-.6-.45-1.45-.45t-1.45.45q-.6.5-.6 1.15t.6 1.1q.6.5 1.45.5t1.45-.5q.6-.45.6-1.1m1.05-5.85q0-.8-.6-1.4-.55-.55-1.35-.55t-1.4.55q-.55.6-.55 1.4t.55 1.35q.6.6 1.4.6t1.35-.6q.6-.55.6-1.35m-2.2-7.85q-.7 0-1.2.5t-.5 1.2.5 1.2 1.2.5 1.2-.5.5-1.2-.5-1.2-1.2-.5m6.25-18.6q-.45.4-.45 1t.45 1q.5.4 1.15.4t1.1-.4q.5-.4.5-1t-.5-1q-.45-.4-1.1-.4t-1.15.4m2.8-5.55q-.55-.55-1.3-.55t-1.3.55-.55 1.3.55 1.3 1.3.55 1.3-.55.55-1.3-.55-1.3m-65.4-40 .05.1q-1.3 0-2.35.6l-1.15.85-.45.55q-1 1.3-1 3t1 3l-1.5-.2q-1.15-.4-2.05-1.3l-.45-.5q-1-1.3-1-3t1-3l1.6-1.4q1.05-.6 2.4-.6 2.05 0 3.5 1.45l.05.05.35.4M46.4 91.45 43.3 90l3.1 1.45 2.45 1.75-2.45-1.75m2.8 2-.35-.25.35.25m-7.5-4.4h-.05.05m1.4 0-.05-.05-.3-.1.25.15h.1l.4.15-.35-.15h-.05m1.65 1.15.5.4v-.05l.6.45-1.1-.85v.05" fill="#6d8a32" fill-rule="evenodd" transform="translate(-23.25 -9.4)"/><path d="m96.55 55.2.05.4.3 6.8q0 5.4-.75 10.4l-2.35.65q-9 2.25-16.45 2.6l-5.3.1-1.85-.05Q49.05 60.5 58.4 48.4q13.3 1.55 23.05.05 7.65-1.2 13.15-4.25 1.4 5.25 1.95 11m32.2-5.85q0 .85-.6 1.4-.55.6-1.4.6t-1.45-.6q-.55-.55-.55-1.4t.55-1.45q.6-.55 1.45-.55t1.4.55q.6.6.6 1.45M94.35 81l-.95 2.9-.05.25q-2.1 5.6-5.3 10.6l-1.1 1.6-3.25 4.2-6.2.1q-6.95-.15-13.3-1.45-5.5-1.15-10.6-3.2l-3.2-3.5q-2.15-2.65-2.55-4.5-.95-4.3 6.8-4.75 7.4 1.75 14.3 2.1 13.9.7 25.4-4.35M80.6 103.4l-.05.3q-5.85 5.25-12.9 6.85h-.15l-6.2.65h-1.15q-7.6-.3-14.15-4.35l-.1-.15q.3-.15 2.6.65l13.55.5Q73 107.4 80.6 103.4m38.45-25.55q.7 0 1.2.5t.5 1.2-.5 1.2-1.2.5-1.2-.5-.5-1.2.5-1.2 1.2-.5m2.2 7.85q0 .8-.6 1.35-.55.6-1.35.6t-1.4-.6q-.55-.55-.55-1.35t.55-1.4q.6-.55 1.4-.55t1.35.55q.6.6.6 1.4m-1.05 5.85q0 .65-.6 1.1-.6.5-1.45.5t-1.45-.5q-.6-.45-.6-1.1t.6-1.15q.6-.45 1.45-.45t1.45.45q.6.5.6 1.15m7.9-37.85q.55.55.55 1.3t-.55 1.3-1.3.55-1.3-.55-.55-1.3.55-1.3 1.3-.55 1.3.55m-2.8 5.55q.5-.4 1.15-.4t1.1.4q.5.4.5 1t-.5 1q-.45.4-1.1.4t-1.15-.4q-.45-.4-.45-1t.45-1" fill="#485c21" fill-rule="evenodd" transform="translate(-23.25 -9.4)"/><path d="m113.35 38.5-.9 3.85L101.9 46l-7.3-1.8-2.4-1.8q14-.8 21.15-3.9m-19 42.5h11.45l-12.4 2.9.95-2.9M38.3 16.45l7.6 5.15q-2.8 1.05-5.4 2.6-4.45.2-7.3-3.4l.35-.25q.45-3.6 4.75-4.1" fill="#995210" fill-rule="evenodd" transform="translate(-23.25 -9.4)"/><path d="m109.3 60-12.75-4.8q-.55-5.75-1.95-11l7.3 1.8 10.55-3.65L109.3 60M93.4 83.9l12.4-2.9h1.4l-2 7.15-4.45 1.7-12.7 4.9q3.2-5 5.3-10.6l.05-.25M36.15 27.1l-.25-2.35-2.7-3.95q2.85 3.6 7.3 3.4-2.25 1.25-4.35 2.9" fill="#68390b" fill-rule="evenodd" transform="translate(-23.25 -9.4)"/><path d="M106.55 32.9 103 29.1H90.1l-.9 3.85-3.15 17.65-12.75-4.8.05.4.25 5 .05 1.8q0 5.4-.75 10.4l-2.35.65L72 68.3l-.9 3.3h6.4l3.95-6.2h17.4v.75l.5-.15m7.2-33.1 3.05 8.5-2.1 11.25q-7.35 3.65-17.65-.55l-3.8-1.5m19.45-10.65q0 .85-.6 1.4-.55.6-1.4.6t-1.45-.6q-.55-.55-.55-1.4t.55-1.45q.6-.55 1.45-.55t1.4.55q.6.6.6 1.45M62.8 12.1l-1.3-1.95h-.05q-4.2-6.05-10.2-8.5M22.65 12.6l.1 10.05 4.6 3.35 2.75 1.95.85.55 1.35.8q3.8 2.2 6.85 2.45m10.4-9.8q-1.85-.4-3.35-1.55l-.5-.45-.1-.05q-1.65-1.6-1.65-3.75 0-2.5 2.25-4.25 1.05-.8 2.3-1.2 1.5-.55 3.25-.55l2.05.2.8.2.1.05q1.4.4 2.55 1.3l.05.05.5.4.95 1.1.2.35.1.15q.5 1 .5 2.2 0 2.5-2.3 4.25-2.2 1.7-5.7 1.75l-1.85-.2h-.15M62.8 12.1q7.4 11.2 6.8 17.25l-3.1 1.85 2.45 1.8q14-.8 21.15-3.9m-18.75 5.7-2.4-1.8m-2.45-1.8q-2.75 1.25-6.25 1.8-8.35 1.35-21.1-1.25m-7.95 32.4 3.65.8 6.6 1.2 5.5.55m26.4-20.5.3 6.8M71.1 71.6l-.95 2.9-.05.25q-2.1 5.6-5.3 10.6l12.7-4.9 4.45-1.7 2-7.15H77.5M64.8 85.35l-1.1 1.6-3.25 4.2-6.2.1 3.1 2.75m-.05.3q-5.85 5.25-12.9 6.85h-.15l-6.2.65H36.9q-7.6-.3-14.15-4.35l-.15-.1-.5-.35-4.05-3.05-3.15-3.05-1-1.15-.1-.1-.1-.15-2.05-2.55Q9 83.45 7 79.7l-.05-.1q-1.1-3.85-.55-7l-2.15-3.5Q.8 63.65.2 55.8L0 51.85v-1q.3-4.55 2.45-8-1.35-4-1.1-7.9 1.25-5.35 3.6-9 .8-1.35 1.85-2.45L9 21.15q1.9-1.9 3.9-3.45l-.25-2.35-3.5 2.05q-5.8-6.8-6-10.4Q4.5 1.75 7.45.35l4.3 2.45 3.3 4.25 7.6 5.15 8.9-7.8.45-.55L33.15 3l2.7-2.4L49.4 1l1.85.65m44.55 66.8q.7 0 1.2.5t.5 1.2-.5 1.2-1.2.5-1.2-.5-.5-1.2.5-1.2 1.2-.5M98 76.3q0 .8-.6 1.35-.55.6-1.35.6t-1.4-.6q-.55-.55-.55-1.35t.55-1.4q.6-.55 1.4-.55t1.35.55q.6.6.6 1.4m-1.05 5.85q0 .65-.6 1.1-.6.5-1.45.5t-1.45-.5q-.6-.45-.6-1.1t.6-1.15q.6-.45 1.45-.45t1.45.45q.6.5.6 1.15m1.9-16 1.85 14.6-5.55 3.5-17.65-3.8m27.35-36.15q.55.55.55 1.3t-.55 1.3-1.3.55-1.3-.55-.55-1.3.55-1.3 1.3-.55 1.3.55m-2.8 5.55q.5-.4 1.15-.4t1.1.4q.5.4.5 1t-.5 1q-.45.4-1.1.4t-1.15-.4q-.45-.4-.45-1t.45-1M71.35 34.8q1.4 5.25 1.95 11M39.45 4.3l-.35-.4-.05-.05Q37.6 2.4 35.55 2.4q-1.35 0-2.4.6l-1.6 1.4q-1 1.3-1 3t1 3l.45.5q.9.9 2.05 1.3l1.5.2m3.9-8.1.5.75.45 1.1.15 1.25q0 2.05-1.5 3.5-1.45 1.5-3.5 1.5m-12.9-.2v.4m-12.7-1.2 2.7 3.95m-2.35-4.2q.45-3.6 4.75-4.1m-5.1 4.35.35-.25m2.6 6.55q2.1-1.65 4.35-2.9 2.6-1.55 5.4-2.6M11.9 55.45 8.65 52.8q-1.7-1.6-2.8-3.25l-1.7-2.8-.5-1.05-1.2-2.85m12.25 14.4-.15-.1-2.65-1.7m2.8 1.8.95.55 1.15.6 2.1 1.05.65.3 1.85.85 1.35.55.3.15.25.1 7.9 2.75m-12.75 15.5 1.6.95 3.1 1.45m2.8 2 .1.05 4.3 2.5M14 77l-1-.55q-3.8-1.4-6.55-3.8l-.05-.05M14 77l.55.35.05.05 3.85 2.25m7.5 4.4-2.8-2m47.4-18q-9 2.25-16.45 2.6l-5.3.1-1.85-.05m7.3 24.55q-6.95-.15-13.3-1.45-5.5-1.15-10.6-3.2" fill="none" stroke="#000" stroke-linecap="round" stroke-linejoin="round" stroke-opacity=".353" stroke-width=".05"/></g><g id="i"><path d="m48.65 19.35-3.2 50.6L72.3 34 45.45 69.95l-1.85 28.3.45-2.15-.45 2.15 1.85-28.3 3.2-50.6m.65-17.7q9.4-2 19.8-3.3Q79.5-3 89.05 4.85 54.3 120.4 28.5 208.5q-4.8-25.65-10.65-44.85Q12.15 106.35 24 49 29.95 4.35 49.3 1.65m-5.7 96.6L26.45 182.2 43.6 98.25" fill="#59a50e" fill-opacity=".471" fill-rule="evenodd" transform="translate(-14 3.85)"/><path d="M58.3 37.85 31.45 73.8l-1.85 28.3.45-2.15m1.4-26.15 3.2-50.6m-22.2 162.85L29.6 102.1" fill="none" stroke="#000" stroke-linecap="round" stroke-linejoin="round" stroke-opacity=".251" stroke-width=".05"/><path d="M35.3 5.5q9.4-2 19.8-3.3Q65.5.85 75.05 8.7 40.3 124.25 14.5 212.35 9.7 186.7 3.85 167.5-1.85 110.2 10 52.85 15.95 8.2 35.3 5.5" fill="none" stroke="#247534" stroke-linecap="round" stroke-linejoin="round" stroke-opacity=".702" stroke-width="4"/></g><g id="j"><path d="m28.95 21.1-1.5.1q-4.4 0-7.5-3.1t-3.1-7.5l.1-1.55q.5 4.7 3.95 8.15 3.4 3.4 8.05 3.9-4.65-.5-8.05-3.9-3.45-3.45-3.95-8.15.45-3.3 2.85-5.75-.2.9-.25 1.9v.05q-.45 1.7-.65 3.6 2.2 8.3 11.1 9.75 1.9.25 3.95-.6l.3-.15.9.05-.2.2q-2.55 2.55-6 3" fill="url(#k)" fill-rule="evenodd" transform="translate(22.7 9.6)"/><path d="M21.4-2.75q3.85-3.5 9.2-3.5 5.7 0 9.7 4.05 4 4 4.05 9.7-.05 4.5-2.6 8-3.4 2.35-6.6 2.4l-.9-.05h-.35l.05.15q-2.05.85-3.95.6-8.9-1.45-11.1-9.75.2-1.9.65-3.6V5.2q.05-1 .25-1.9l.05-.45q.5-2.95 1.55-5.6m140.3 24.1q-3.4 2.35-6.6 2.4l-.9-.05h-.35l.05.15q-2.05.85-3.95.6-8.9-1.45-11.1-9.75.2-1.9.65-3.6v-.05q.05-1 .25-1.9l.05-.45q.3-1.65.75-3.2l.8-2.4q3.85-3.5 9.2-3.5 5.7 0 9.7 4.05 4 4 4.05 9.7-.05 4.5-2.6 8" fill="#e98727" fill-rule="evenodd" transform="translate(22.7 9.6)"/><path d="M39.8 14.65Q26.7 30.75 22.7 152.6M163.25 15.1l-1-.4q-20.2-6.95-48.85 87.5-5.4 17.9-11.15 39.4M42.55 12.45q-1.45.55-2.75 2.2" fill="none" stroke="#000" stroke-linecap="round" stroke-linejoin="round" stroke-opacity=".341" stroke-width="1.75"/><path d="M22.7 152.6Q5.4 159.1 0 169.8m102.25-28.2q-17.6.1-44 7.05" fill="none" stroke="#000" stroke-linecap="round" stroke-linejoin="round" stroke-opacity=".102" stroke-width=".05"/><path d="M44.1 6.85q3.85-3.5 9.2-3.5 5.7 0 9.7 4.05 4 4 4.05 9.7-.05 4.5-2.6 8L63 26.8q-4 4-9.7 4l-1.65-.1q-4.65-.5-8.05-3.9-3.45-3.45-3.95-8.15l-.05-1.55q-.05-1.3.2-2.45.65-4.15 3.8-7.25l.5-.55m140.3 24.1-1.45 1.7q-4 4-9.7 4l-1.65-.1q-4.65-.5-8.05-3.9-3.45-3.45-3.95-8.15m2.65-9.8q-2 2.6-2.5 5.8m2.5-5.8 1.3-1.45.5-.55q3.85-3.5 9.2-3.5 5.7 0 9.7 4.05 4 4 4.05 9.7-.05 4.5-2.6 8" fill="none" stroke="#ffb945" stroke-linecap="round" stroke-linejoin="round" stroke-width="6.75"/></g><linearGradient id="d" x1="-819.2" x2="819.2" gradientTransform="matrix(.1352 0 0 .0599 133.8 82.1)" gradientUnits="userSpaceOnUse"><stop stop-color="#835a1f" offset=".361"/><stop stop-color="#9c6938" offset="1"/></linearGradient><linearGradient id="e" x1="-819.2" x2="819.2" gradientTransform="matrix(.1352 0 0 .0599 133.8 82.1)" gradientUnits="userSpaceOnUse"><stop stop-color="#674718" offset=".635"/><stop stop-color="#9c6938" offset="1"/></linearGradient><linearGradient id="k" x1="-819.2" x2="819.2" gradientTransform="matrix(.0043 -.0025 .5 .866 12.1 .7)" gradientUnits="userSpaceOnUse"><stop stop-color="#d57311" offset="0"/><stop stop-color="#8d7761" offset=".871"/></linearGradient><use width="77.05" height="214.35" xlink:href="#i" id="g"/><use width="190.35" height="169.8" xlink:href="#j" id="h"/></defs></svg>