<svg viewBox="0 0 153.85 101.34" xmlns="http://www.w3.org/2000/svg" xmlns:xlink="http://www.w3.org/1999/xlink"><g transform="translate(-198.03 -149.28)"><use transform="translate(198.05 149.3)" width="153.8" height="101.3" xlink:href="#a"/><use transform="translate(214.45 210.5)" width="46.75" height="36.6" xlink:href="#b"/><use transform="matrix(-1 0 0 1 333.15 210.5)" width="46.75" height="36.6" xlink:href="#b"/></g><defs><g id="a"><path d="M337 162.7v-.05l-.05.1-3.85 2.1-.2-.1-.05.05-3.5 8.85-3.1 3.3q-2.75-3.65-7.75-6.85l-1.85-1.15-1.5-.85-.55-.3 13.9-6.25 8.5 1.1v.05m-138.85 30.8h6.15q6.85.25 14.4 2l-.1 1.35-.3 3.8-.1 2.35-3.15 5.4-9.2-4.4-7.7-10.5m14.15-30.8v-.05l8.5-1.1 14.05 6.25-2.2 1.25q-6.3 3.65-9.55 7.95l-3.15-3.35-3.5-8.9-4.15-2.05m54.65-3.2 4.7-6.3 5.6-3.8 6.4 5.8 2.55 4.6-11.5-.55-5.45.15-2.3.1M331.7 203l-.05-2.35-.35-3.8-.1-1.35q7.55-1.75 14.4-2h6.15l-7.7 10.5-9.2 4.4-3.15-5.4" fill="#e3c764" fill-rule="evenodd" transform="translate(-198.05 -149.3)"/><path d="M337 162.65v.05l-6.35 19.3-1.35 1.3q-.75-3.35-3.05-6.35l3.1-3.3 3.5-8.85.05-.05.2.1 3.85-2.1.05-.1m-117.2 58.8-9.15-6.65-8-8.8-4.5-12.5 7.7 10.5 9.2 4.4 3.15-5.4q-.1 7.6 1.55 15.4l-.05 1.4.1 1.65m.3-38.1-1.4-1.35-6.4-19.3 4.15 2.05 3.5 8.9 3.15 3.35q-2.25 3-3 6.35M331.7 203l3.15 5.4 9.2-4.4 7.7-10.5-4.5 12.5-8 8.8-9.1 6.65.05-1.65-.05-1.4q1.65-7.8 1.55-15.4" fill="#c79625" fill-rule="evenodd" transform="translate(-198.05 -149.3)"/><path d="M326.25 176.95q2.3 3 3.05 6.35l.25 1.35.15 1.75v.4l-.05 1.4-.05.7q-.6 4.1-3.3 7.75l-.25 2.15-2.55 9.1v-8.2l-4.65 3.6-3.1 1.85-2.15 1.1-5.8 2.6-.65.25q-8.55 3.15-17.95 3.9-3.8-1.8-12.2-2.85 14.25-.25 25.3-4.2l1.9-.7 4.5-2L311 202l2.35-1.4.6-.45 3.45-2.7 2.45-2.65 6.4 1.85h.05-.05l-6.4-1.85q2.5-3.3 3-6.95l.05-.6.05-.9v-.3l-.15-1.95q-.2-1.6-.8-3.1-1.05-2.6-3.2-5l-.9-.95q-1.7-1.65-3.95-3.2-1.75-1.2-3.8-2.3l-1.45-.75q-8.7-4.4-19.65-6.05l-3.45-.5-11.3-.6-2.7.05h-2.2l-2.45-2.2 2.45 2.2q-8 .5-14.4 1.9-3.45.7-6.65 1.75-4.45 1.45-8.45 3.45-1.6.8-3.05 1.65-3.6 2.1-6 4.5l-.35.3q-2.6 2.65-3.8 5.6l-.6 1.9q-.45 1.6-.4 3.3v.6l.1 1.35.05.25q.65 4.15 3.95 7.8l-5.8 1.65 5.8-1.65q1.95 2.15 4.9 4.15l-3.1 3.75-1-.65q-4.05-2.65-6.6-5.6-3.4-3.95-4.1-8.4l-.05-.3-.15-2.2v-.5q.05-1.5.4-2.95.75-3.35 3-6.35 3.25-4.3 9.55-7.95l2.2-1.25.95-.5q4.6-2.3 9.75-3.95 9.75-3.1 21.4-3.85l2.3-.1 2.35 2.3-2.35-2.3 5.45-.15 11.5.55 2.15.25 3.05.45q12.35 1.9 22.2 6.8l1 .55.55.25 1.5.85 1.85 1.15q5 3.2 7.75 6.85m-39.55 69.8-.1.05.1-.05m39.6-50.1h-.05.05m-2.8 3.05-6.1-2.25 6.1 2.25m-77.95-36.35 2.8 2-2.8-2M219.7 186.3l6 .35-6-.35m68.65-26.25-2.75 2.2 2.75-2.2m30.15 10.05-4.55 1.75 4.55-1.75m-29.45-7.35 2.35-2.25-2.35 2.25m40.65 23.65-6.75-.05 6.75.05m-21.9 22.45-3.6-3.6 3.6 3.6m-.65.25-4.85-3.15 4.85 3.15m-39.05 1.1q-4.5.3-8.75 2.4-5.1-.35-11.05-2.1l4.25-2.65-4.25 2.65q-4.5-1.35-9.4-3.45l3.4-2.05q5.3 1.7 10.25 2.85 8.2 1.9 15.55 2.35" fill="#ea8915" fill-rule="evenodd" transform="translate(-198.05 -149.3)"/><path d="M329.65 188.9q3.6 15.15 0 29.55l.05 1.35-.05 1.25v.25q-1 10.45-16.05 17.95-11.7 5.9-26.9 7.5 12.05-9.8 9.25-24.95-1.55-6.4-6.75-8.8 9.4-.75 17.95-3.9l.65-.25 5.8-2.6 2.15-1.1 3.1-1.85 4.65-3.6v8.2l2.55-9.1.25-2.15q2.7-3.65 3.3-7.75h.05m-65.95 57.95q-15.85-1.55-27.9-7.6-14.9-7.45-16-17.8l-.1-1.65.05-1.4q-1.65-7.8-1.55-15.4l.1-2.35.3-3.8.15-1.35q.4-3.1 1.15-6.2.7 4.45 4.1 8.4 2.55 2.95 6.6 5.6l1 .65v6.45h3.1l4.2-3.35q4.9 2.1 9.4 3.45 5.95 1.75 11.05 2.1-5.55 2.65-6.4 8.8-2.9 17.55 10.75 25.45m45.3-36.8-1.2-1.2 1.2 1.2m-85.05-6.65.05-5.7-.05 5.7m57.55-14.85q-16.1 4-28.65-4.55-4.4-4.35-4.5-9.4v-9.25q3.2-1.05 6.65-1.75 6.4-1.4 14.4-1.9h2.2l2.7-.05 11.3.6v3.55l3.45 6.8v-9.85q10.95 1.65 19.65 6.05l1.45.75-4.5 7.45q-3.6 4.65-16.4 9.15l-5.4 1.75-2.35.65v-2.75 2.75m-9.9-26.85v25.9l-2.2-25.9 2.2 25.9v-25.9M255 183v-19.4V183m34.05-20.25v9.85l-3.45-6.8v-3.55l3.45.5m.2 23.4V182v4.15m17.9 33.25v-10.3 10.3m.65 0v-10.55 10.55m-44.95-.5q2.9-2.05 5.95-2.95 3.75-1.15 7.8-.5 3.9.55 8.05 2.75l-4.8 11q.45 4.75 3.3 8.6l1.5 1.8h3.8q-2.5 3.7-8.3 5.95l-3.3 1.05h-4.2q-7.95-2.05-12-8h4.4l.75-1.7q.9-2.55 1.85-7.3l-4.8-10.7m13.75 3.1v-6.55V222m-3.95 12.4v12.2-12.2m7.45 5.4.05 5.75-.05-5.75m-33.45 3.4v-12 12m1.65-22v-10.7 10.7m-16.7-6.2v-4.6 4.6m37.2 10.4v-9.45 9.45m-46.35-2-2.65-1.95 2.65 1.95" fill="#aa591e" fill-rule="evenodd" transform="translate(-198.05 -149.3)"/><path d="M236.85 170.45q1.45-.85 3.05-1.65 4-2 8.45-3.45v9.25q.1 5.05 4.5 9.4 12.55 8.55 28.65 4.55v5.35-5.35l2.35-.65 5.4-1.75v8.6-8.6q12.8-4.5 16.4-9.15l4.5-7.45q2.05 1.1 3.8 2.3 2.25 1.55 3.95 3.2-1.05 7.05-3.95 13.4v-16.6 16.6l-2.5 4.75q-2.2 4.35-6.55 5.85-7.15-2.95-15.65-4.3l-7.75-.85-7.2-.25q-12.3 0-22.4 2.65l-4.85-1.25-2.4-.65q-6.5-3.15-7.75-7.8-1.4-8.75-.05-16.15m10.2 16.15v8.45-8.45m1.3-7.35v-4.65 4.65M234.7 210.4h-3.1v-6.45l3.1-3.75v10.2" fill="#a0541b" fill-rule="evenodd" transform="translate(-198.05 -149.3)"/><path d="m319.85 194.8-2.45 2.65-3.45 2.7v-11.7 11.7l-.6.45L311 202l-2.3-1.2q-1.85-.95-3.8-1.75 4.35-1.5 6.55-5.85l2.5-4.75q2.9-6.35 3.95-13.4l.9.95q2.15 2.4 3.2 5 .6 1.5.8 3.1l.15 1.95v.3l-.05.9-.05.6q-.5 3.65-3 6.95m-94.15-8.15v-.6q-.05-1.7.4-3.3l.6-1.9q1.2-2.95 3.8-5.6l.35-.3q2.4-2.4 6-4.5-1.35 7.4.05 16.15 1.25 4.65 7.75 7.8l2.4.65v2.75-2.75l4.85 1.25-4.85 1.5q-3.75 1.25-7.15 3-1.2.6-5.2 3.4v-4q-2.95-2-4.9-4.15-3.3-3.65-3.95-7.8l-.05-.25-.1-1.35m4.85-2.25-.05-9.15.05 9.15m4.15 19.8q1.7-2.9.6-3.6l-.6-.4.6.4q1.1.7-.6 3.6" fill="#884717" fill-rule="evenodd" transform="translate(-198.05 -149.3)"/><path d="m286.6 246.8-5.3 2.4q-4.65 2.05-9.4.85t-8.2-3.2q-13.65-7.9-10.75-25.45.85-6.15 6.4-8.8 4.25-2.1 8.75-2.4l8.9-.05q8.4 1.05 12.2 2.85 5.2 2.4 6.75 8.8 2.8 15.15-9.25 24.95l-.1.05m-1.95-28.6v-2q-11.9-6.3-21.8.7v2l4.8 10.7q-.95 4.75-1.85 7.3h-3.7l-1.45 1.7q4.05 5.95 12 8h4.2l3.3-1.05q5.8-2.25 8.3-5.95l-1.15-1.8h-4.15q-2.85-3.85-3.3-8.6l4.8-11" fill="#3e1e11" fill-rule="evenodd" transform="translate(-198.05 -149.3)"/><path d="M284.65 216.2v2q-4.15-2.2-8.05-2.75-4.05-.65-7.8.5-3.05.9-5.95 2.95v-2q9.9-7 21.8-.7m-1.5 21.6h4.15l1.15 1.8h-3.8l-1.5-1.8m-22.5.8 1.45-1.7h3.7l-.75 1.7h-4.4" fill="#774b20" fill-rule="evenodd" transform="translate(-198.05 -149.3)"/><path d="M138.95 13.4v-.05l-8.5-1.1-13.9 6.25.55.3 1.5.85M131.25 34l1.35-1.3 6.35-19.3v-.05m-116.9 20.7-1.4-1.35-6.4-19.3v-.05l8.5-1.1L36.8 18.5m-2.2 1.25 2.2-1.25" fill="none" stroke="#000" stroke-linecap="round" stroke-linejoin="round" stroke-opacity=".322" stroke-width=".25"/><path d="M128.2 27.65q2.3 3 3.05 6.35l.25 1.35.15 1.75v.4l-.05 1.4v.7q3.6 15.15 0 29.55l.05 1.35-.05 1.25m-13-52.1 1.85 1.15q5 3.2 7.75 6.85M131.6 72q-1 10.45-16.05 17.95-11.7 5.9-26.9 7.5l-.1.05-5.3 2.4q-4.65 2.05-9.4.85t-8.2-3.2Q49.8 96 37.75 89.95q-14.9-7.45-16-17.8L12.6 65.5l-8-8.8L.1 44.2h6.15q6.85.25 14.4 2l-.1 1.35.15-1.35q.4-3.1 1.15-6.2l-.05-.3-.15-2.2V37q.05-1.5.4-2.95.75-3.35 3-6.35 3.25-4.3 9.55-7.95m2.2-1.25.95-.5q4.6-2.3 9.75-3.95 9.75-3.1 21.4-3.85l4.7-6.3L79.2.1l6.4 5.8 2.55 4.6 2.15.25 3.05.45q12.35 1.9 22.2 6.8l1 .55.55.25m14.45 20.8.05-.7m-.05.7q-.6 4.1-3.3 7.75m-2.8 3.05L120.8 54l-3.1 1.85-2.15 1.1-5.8 2.6 1.2 1.2m17.25-13.4h.05m-6.45-1.85-2.45 2.65m34.35-3.95h-6.15q-6.85.25-14.4 2l.1 1.35.35 3.8.05 2.35m20.05-9.5-4.5 12.5-8 8.8-9.1 6.65.05-1.65-.05-1.4q1.65-7.8 1.55-15.4M38.8 21.15q1.45-.85 3.05-1.65 4-2 8.45-3.45l-2.8-2m-19.85 23.3v-.6q-.05-1.7.4-3.3l.6-1.9q1.2-2.95 3.8-5.6l.35-.3q2.4-2.4 6-4.5M49 45.75V37.3M32.45 25.95l.05 9.15m1.05 19.55-1-.65q-4.05-2.65-6.6-5.6l-.05 5.7m5.85-7.35q-3.3-3.65-3.95-7.8l-.05-.25-.1-1.35-6-.35m4.3 11.4 5.8-1.65q1.95 2.15 4.9 4.15l.6.4q1.1.7-.6 3.6 4-2.8 5.2-3.4 3.4-1.75 7.15-3v-2.75M53.85 47q10.1-2.65 22.4-2.65l7.2.25v-8.1M50.3 25.3v4.65M25.95 48.4q-3.4-3.95-4.1-8.4M71.2 10.1l-2.3.1 2.45 2.2h2.2l-2.35-2.3 5.45-.15 11.5.55m-14.6 1.9 2.7-.05 11.3.6 2.75-2.2m-40 5.3q3.2-1.05 6.65-1.75 6.4-1.4 14.4-1.9l2.2 25.9V12.4M49 48.5l4.85-1.5m3.1-32.7v19.4M50.3 16.05v9.25M91 13.45q10.95 1.65 19.65 6.05l1.45.75q2.05 1.1 3.8 2.3l4.55-1.75m-32.9-7.85v3.55L91 23.3v-9.85l-3.45-.5m5.8-1.75L91 13.45m.2 19.25v4.15m0 8.6v-8.6m28.65-11.1.9.95q2.15 2.4 3.2 5 .6 1.5.8 3.1l.15 1.95v.3l6.75.05m-6.75-.05-.05.9-.05.6q-.5 3.65-3 6.95m-1.95-19.75q-1.7-1.65-3.95-3.2v28.3l3.45-2.7m-35.9-3.55 7.75.85q8.5 1.35 15.65 4.3 1.95.8 3.8 1.75l2.3 1.2 2.35-1.4.6-.45m-6.15 8.7-.65.25v10.3m0-10.3q-8.55 3.15-17.95 3.9 5.2 2.4 6.75 8.8 2.8 15.15-9.25 24.95m17.5-41.5 3.6 3.6V70.1m3.2-17.4-2.3 1.25-4.5 2-1.9.7 4.85 3.15m-22.5 7.1q-11.9-6.3-21.8.7m0 2q2.9-2.05 5.95-2.95 3.75-1.15 7.8-.5 3.9.55 8.05 2.75m1.95 28.6.1-.05m-9.7-36.6-8.9.05q-4.5.3-8.75 2.4-5.55 2.65-6.4 8.8Q52 89.65 65.65 97.55m12.9-31.4v6.55m-28.3-11.5q5.95 1.75 11.05 2.1m-6.8-4.75-4.25 2.65q-4.5-1.35-9.4-3.45m-7.3 3.35v4.6m16.7-4.5v10.7m-1.65 10v12m33.5 2.35-.05-5.75m-7.45 6.8V85.1m-3.85-18.45v9.45m-.7-15.2q-7.35-.45-15.55-2.35-4.95-1.15-10.25-2.85m60 .95q-11.05 3.95-25.3 4.2 8.4 1.05 12.2 2.85m-69.4 8.45-.1-1.65.05-1.4q-1.65-7.8-1.55-15.4l.1-2.35.3-3.8m1.2 24.6 2.65 1.95" fill="none" stroke="#774b20" stroke-linecap="round" stroke-linejoin="round" stroke-width=".25"/><path d="M128.25 47.35 128 49.5l-2.55 9.1v-8.2m2.8-3.05h-.05l-6.4-1.85m-2.45 2.65 6.1 2.25M86.6 68.9v-2m-21.8.7v2m21.8-.7-4.8 11q.45 4.75 3.3 8.6h4.15l1.15 1.8q-2.5 3.7-8.3 5.95l-3.3 1.05h-4.2q-7.95-2.05-12-8l1.45-1.7h3.7q.9-2.55 1.85-7.3l-4.8-10.7m20.3 18.9 1.5 1.8h3.8M40.85 57.75l-4.2 3.35h-3.1m34.2 26.5L67 89.3h-4.4M44.25 55.7l-3.4 2.05m-4.2-6.85v10.2m0-10.2-3.1 3.75v6.45" fill="none" stroke="#774b20" stroke-linecap="round" stroke-linejoin="round" stroke-width=".25"/></g><g id="c"><path d="m46.55 18.05-5-.35q0-3.75-4.55-6.9l5-.35q4.35 1.25 4.55 7.6m-19.1-6.45 5.15-.4q2.85 2.5 3.85 4.8.55 1.4.45 2.7l-4.85 1.05-.1-1.25q-.45-3.5-4.5-6.9" fill="#774b20" fill-rule="evenodd" transform="translate(.1 .1)"/><path d="m41.55 17.7 5 .35q.05 2.55-.55 5.9L38.55 25l-10.5.35-11 5.55-.45 1.5-1.7.4 1.05-.9.1-4.75-1.15-.9-2.85-2.05 2.1-2.55-3.25-5.25-3.65-.25-1.15-.05-.25-1.9-1.2-1.6.6-.75 1.8-2.5 1.5-2.15.15-.5 3.4 5.25-.2 1.4-.05.2-.15.8 4.25 6.6-.15.25.15.8.35 1.85 2.25 2.6 6-5.1 2.5-.5.1-.05 4.8-1 .1-.05.45.8-.45-.8 4.85-1.05 4.65-1 .7.95-.7-.95m-3.05 3.75-1.6-2.75 1.6 2.75m-23.2.7.65-.15-.65.15m2.55 6.1-.8 2.65.8-2.65" fill="#3e1e11" fill-rule="evenodd" transform="translate(.1 .1)"/><path d="M37 10.8q4.55 3.15 4.55 6.9l-4.65 1q.1-1.3-.45-2.7-1-2.3-3.85-4.8l4.4-.4M9.85 2.95v-.1l.95-.25 2.25 1.95.4.3L17.3 7.6q1.15 3.3-1.35 5.25-2 1.3-4.05.5l.2-1.4L8.7 6.7l.3-.95.85-2.8M23.1 12.4l.55-.5 3.8-.3q4.05 3.4 4.5 6.9l.1 1.25-.1.05-4.8 1-.1.05q1.3-4.7-3.95-8.45" fill="#6d441d" fill-rule="evenodd" transform="translate(.1 .1)"/><path d="m17.3 7.6 5.6 4 .2.8q5.25 3.75 3.95 8.45l-2.5.5-6 5.1-2.25-2.6-.35-1.85 3.05-.95q2.15-1.75.45-4.4l-3.15-2.8 3.15 2.8q1.7 2.65-.45 4.4l-3.05.95-.15-.8.15-.25-4.25-6.6.15-.8.05-.2q2.05.8 4.05-.5 2.5-1.95 1.35-5.25m5.25 5.2.55-.4-.55.4" fill="#603d1a" fill-rule="evenodd" transform="translate(.1 .1)"/><path d="m5.65 36.35-1.35.05-1.05-3.2 3.3-4.65v-1.6l-.4.1-4-1.3.1-1.85 3.05-4.5.75-3.35.05.05 1.15.05-.75 4.65.5 5.95 3.85-1.1 1.2-1.45 2.85 2.05-8.2 4.45-1.05 5.65m-.4-24.5L3.05 9.7.3 1.6l1.55-.05.1-.05 1.7 4.25 3.4 3.6-1.8 2.5m1.3 15.1.45-.2-.45.2" fill="#c79625" fill-rule="evenodd" transform="translate(.1 .1)"/><path d="m14.9 32.8-3.55 3.05-5.7.5L6.7 30.7l8.2-4.45 1.15.9-.1 4.75-1.05.9M1.85 1.55 0 .55 4.05 0l5.8 2.95L9 5.75 8.55 7.2l-1.5 2.15-3.4-3.6-1.7-4.25-.1.05m5.4 14.6 3.65.25 3.25 5.25-2.1 2.55-1.2 1.45L7 26.75l-.5-5.95.75-4.65" fill="#e3c764" fill-rule="evenodd" transform="translate(.1 .1)"/><path d="M46.65 18.15q-.2-6.35-4.55-7.6m-5 .35q4.55 3.15 4.55 6.9l.7.95M37 18.8l1.6 2.75m8.05-3.4q.05 2.55-.55 5.9M23 11.7l.2.8q5.25 3.75 3.95 8.45m.1-.05-.1.05m-11.1 1.15-.65.15m16.75-2.4.45.8M37 18.8q.1-1.3-.45-2.7-1-2.3-3.85-4.8m-5.15.4q4.05 3.4 4.5 6.9l.1 1.25M12 13.45q2.05.8 4.05-.5Q18.55 11 17.4 7.7m-1.35 14.4 3.05-.95q2.15-1.75.45-4.4l-3.15-2.8m-4.4-.5-.05.2" fill="none" stroke="#3e1e11" stroke-linecap="round" stroke-linejoin="round" stroke-width=".25"/><path d="m42.1 10.55-5 .35m9 13.15-7.45 1.05-10.5.35-11 5.55-.45 1.5-1.7.4-3.55 3.05-5.7.5-1.35.05-1.05-3.2 3.3-4.65v-1.6l-.4.1-4-1.3.1-1.85 3.05-4.5.75-3.35m.05.05-.25-1.9-1.2-1.6.6-.75m4.6-8.9v-.1l.95-.25 2.25 1.95m.4.3L23 11.7m.2.8.55-.5 3.8-.3 5.15-.4 4.4-.4m-13.9 1.6-.55.4M6.2 16.2l1.15.05 3.65.25 3.25 5.25-2.1 2.55L15 26.35l1.15.9-.1 4.75-1.05.9m-7.9-6.05 3.85-1.1 1.2-1.45m5 6.7.8-2.65M7.1 26.85l-.45.2" fill="none" stroke="#000" stroke-linecap="round" stroke-linejoin="round" stroke-opacity=".322" stroke-width=".25"/><path d="M5.35 11.95 3.15 9.8.4 1.7M.1.65 4.15.1l5.8 2.95-.85 2.8-.45 1.45-1.5 2.15-1.8 2.5" fill="none" stroke="#000" stroke-linecap="round" stroke-linejoin="round" stroke-opacity=".322" stroke-width=".25"/></g><use width="46.75" height="36.6" xlink:href="#c" id="b"/></defs></svg>