<svg viewBox="0 0 245.29 134.85" xmlns="http://www.w3.org/2000/svg" xmlns:xlink="http://www.w3.org/1999/xlink"><use width="245.3" height="134.85" xlink:href="#a"/><defs><use width="245.3" height="134.85" xlink:href="#b" id="a"/><g id="b"><path d="M239.55 22.65q6.5 16.55 0 31.65l-.1.3-.4 1.3.35 1.1v.1l.05.25.05.2v.55l.05-1.05q6.5 16.55 0 31.65l-.1.3q-.7 4.3-8.25 8.05-8.65 4.25-26.3 7.8-14.2 2.85-30.75 4.55l-10.85.95-19.65 1.05-3.6 10.4-.95 3.95-.45-.05-.85 5.4-1.6.15-2.7.3-16 .8-3.55-.05-18.1-1.2-7.75-1.05-4.8-9.25.05-.05-5.45-10.5q-21.95-1.75-40-5.4-20-4-28.5-8.95-5.1-2.95-6.1-6.2l-.15-.6q-6.45-15.2.25-31.95l.2-.05v-.05l-.05-.3H3.5l.15-.55-.35-.9-.15-.6q-6.45-15.2.25-31.95l.2-.05v-.05l-.05-.3H3.5q1.75-7.1 22.45-12.6 5.3-1.45 11.95-2.8Q72.5 0 121.4 0t83.5 6.95l6.55 1.45q26.25 6.05 27.95 14.2v.1l.05.25.05.2v.55l.05-1.05" fill="#d0bc93" fill-rule="evenodd" transform="translate(1.25 1.25)"/><path d="M240.8 23.9q6.5 16.55 0 31.65l-.1.3-.4 1.3.35 1.1v.1l.05.25m.1-.3q6.5 16.55 0 31.65l-.1.3q-.7 4.3-8.25 8.05-8.65 4.25-26.3 7.8-14.2 2.85-30.75 4.55l-10.85.95-19.65 1.05-3.6 10.4-.95 3.95m-1.3 5.35-1.6.15-2.7.3-16 .8-3.55-.05-18.1-1.2-7.75-1.05-4.8-9.25.05-.05-5.45-10.5q-21.95-1.75-40-5.4-20-4-28.5-8.95-5.1-2.95-6.1-6.2l-.15-.6q-6.45-15.2.25-31.95m.1-.4.15-.55-.35-.9-.15-.6q-6.45-15.2.25-31.95m.1-.4Q6.5 16.5 27.2 11q5.3-1.45 11.95-2.8 34.6-6.95 83.5-6.95t83.5 6.95l6.55 1.45q26.25 6.05 27.95 14.2v.1l.05.25.05.2m.05-.5-.05 1.05v-.55m0 34.4v.55l.05-1.05m-.05.5-.05-.2M4.8 23.6l.05.3v.05l-.2.05m.1-.4h.05M4.75 58h.05l.05.3v.05l-.2.05m134.4 73.95.85-5.4.45.05" fill="none" stroke="#000" stroke-linecap="round" stroke-linejoin="round" stroke-width="2.5"/><path d="m240.7 24.2.1-.3m-.1 34.7.1-.3-.05.5m-236.1-.4v-.05l.1-.35m-.1-34v-.05l.1-.35m236 .8.05-.5m-236-.3-.15.35M4.8 58l-.15.35" fill="none" stroke="#000" stroke-linecap="round" stroke-linejoin="round" stroke-opacity=".498" stroke-width=".5"/><path d="m140.35 127-1.3 5.35" fill="none" stroke="#000" stroke-linecap="round" stroke-linejoin="round" stroke-opacity=".498" stroke-width=".05"/><path d="M211.45 8.4q26.25 6.05 27.95 14.2v.1l.05.25.05.2q-1.05 5.25-8.9 9.45-3.35 1.75-7.95 3.3-4.5-1.45-10.25-2.8v-.4q6.8-7.75-.95-24.3m27.6 47.5.35 1.1v.1l.05.25.05.2q-1.05 5.25-8.9 9.45-3.35 1.75-7.95 3.3l-7.5-2.15q10.15-2.6 16.05-5.5 6.35-3.2 7.85-6.75M3.5 22.35q1.75-7.1 22.45-12.6-8.1 16.95-1.15 24.8-2.45.65-4.6 1.35-8.45-2.95-12.6-6.6-3.45-3.05-4-6.6v-.05l-.05-.3H3.5M9.4 61.5q5 2.9 14 5.5l1.4 1.95q-2.45.65-4.6 1.35-8.45-2.95-12.6-6.6-3.45-3.05-4-6.6v-.05l-.05-.3.3-.25q1.4 2.6 5.55 5" fill="#949185" fill-rule="evenodd" transform="translate(1.25 1.25)"/><path d="M211.45 8.4q7.75 16.55.95 24.3l-.1.35-7.4-1.6q-26.3-5.3-60.9-6.55v-.1l-12.35-4.1-16.6-5.55-.9 4.7-8.15 8.7-9 2-10.85-7 .4 1.95q-27.1 1.6-48.65 5.95-7.35 1.45-13.1 3.1-6.95-7.85 1.15-24.8 5.3-1.45 11.95-2.8Q72.5 0 121.4 0t83.5 6.95l6.55 1.45m19.15 24.2q7.85-4.2 8.9-9.45v.55l.05-1.05q6.5 16.55 0 31.65l-.1.3-.4 1.3q-1.5 3.55-7.85 6.75 2.2-6.1 2.55-12.05.55-9.15-3.15-18m8.95 24.45q6.5 16.55 0 31.65l-.1.3q-.7 4.3-8.25 8.05 5.5-15.45-.6-30.05 7.85-4.2 8.9-9.45v.55l.05-1.05m-65.4 52.35-10.85.95-19.65 1.05 2.55-7.3-3.85 3.2-3.55-11.7 4.35-.65-.25-5-.2-3v-.3l-.65-5.15q20.8-.7 38.65-2.8l-.15-4.4-17.25 1.65L143.85 77l7.05-8.1-.4-10.35-.15-4.9 23.7-3.05 6.55 16.3.1-3.2.75-1.2v6.55q0 2.7.15 5.1.1 2.35.35 4.4l.5 3.7q1.9 10.55 7.45 6.8l.25.4-.1.95-.9 1.3q-3.2 3.95-7.25 1.15l-.7-6.45-7.05 23m-34.1 12.4-.95 3.95-.45-.05-4.75-9.15 6.15 5.25m62.55-80.9-17.35 2.8q-16.35 2.15-35.2 3.05v-.4l-.25-6.45-.05-1.2.5-3.25.1-.35q29.2 1.4 52.25 5.8m-1.8 30.35q-.15-5.6.1-11.3l.75-1.2q-.15 7.05.2 12.3.1 2.35.35 4.35 1.6 14.15 7.9 9.9l.25.4-.1.95-.9 1.3q-3.2 3.95-7.25 1.15-.85-6.65-1.15-13.45-.15-2.2-.15-4.4M181.2 86.4l-.5-7.7.5 7.7m-.6-19.5-.05 7.4.05-7.4M33.95 57.85l.8 1.2.1 10.8-.15 4.35q-.3 7.1-1.15 14-4.1 2.8-7.25-1.15l-.95-1.3-.05-.95.25-.4q6.35 4.35 7.95-10.5l.3-4.3q.3-5.05.15-11.75M68.6 45l-11.7-1.4-16.7-2.7q16.2-3.1 35.4-4.7l-4.25 5.6-2.5 3.2h-.25m21.95 21.4 4.7 5.4 15.15-3.15 6.05.95.3 14.65-11-4.85-10.9-4.9-1.2 7.5-9.85-7.3 6.75-8.3m38.6-1 2.05 2.25 4.7 5.2q-.35 1.55-.3 3.15l-.05 2.55-1.3-1.55-5.1-11.6M56.9 43.6l14.45-1.8-14.45 1.8M30.2 29.75q31.9-6.3 63.1-8.3l-7.15 2.1 7.15-2.1q-31.2 2-63.1 8.3m63.1-8.3 21.75-6.3-21.75 6.3m91.95 22.25q-17.65-2.65-35.45-3.8 17.8 1.15 35.45 3.8M110 107.15q-.5 2.25-.7 4.55l-.15 1.5-.05 1.8v.65l-6.65-4.9-4.5-5 13.25-3.25q-.75 2.25-1.2 4.65m36.2-3.05-3.05-9.15 3.05 9.15M96 96.8l4.25 2.55-9.35 1.1L96 96.8m19.25-3.15L106.1 91l7.3-1.45 1.85 4.1m-20-21.85-.4 2.7.4-2.7M208.2 13.4q-86.15-17.85-178 .35 91.85-18.2 178-.35m0 16q-37.7-7.8-76.55-8.7 38.85.9 76.55 8.7" fill="#a6a397" fill-rule="evenodd" transform="translate(1.25 1.25)"/><path d="M222.65 35.9q4.6-1.55 7.95-3.3 3.7 8.85 3.15 18-.35 5.95-2.55 12.05-5.9 2.9-16.05 5.5l-4.6 1.1q-.25-5.7-.85-11.35v-.2q-4.5-3.65-7.95.9l-.1.15.1-.15q3.45-4.55 7.95-.9v.2q.6 5.65.85 11.35l.1 4.4 2.25-.55q5.4-1.3 9.75-2.8 4.6-1.55 7.95-3.3 6.1 14.6.6 30.05-8.65 4.25-26.3 7.8-14.2 2.85-30.75 4.55l7.05-23 .7 6.45q4.05 2.8 7.25-1.15l.9-1.3.1-.95v-.6q.35-5.75.3-11.45.05 5.7-.3 11.45l-.25.2q-5.55 3.75-7.45-6.8l-.5-3.7q-.25-2.05-.35-4.4-.15-2.4-.15-5.1V62.5l-.75 1.2-.1 3.2-6.55-16.3-23.7 3.05-.3-6.9q18.85-.9 35.2-3.05l17.35-2.8 2.3-.45 8-1.75q5.4-1.3 9.75-2.8m-84.85 95.2-1.6.15.05-1.3q-.15-5.9-3.35-10.45-2.9-4.05-5.4-4-3.6.05-8.3 2.35-7.4 3.65-7.25 10.35.05 2.1 2 4.1l-18.1-1.2-12.55-10.3.05-.05 8.55-2.3-10.95-2.3-3.05-5.9q-21.95-1.75-40-5.4-20-4-28.5-8.95-3.95-16.35-1.8-32.2 4.15 3.65 12.6 6.6l4.45 1.4.35.1.05-2.95.05-1.35-1.7-.5q-9-2.6-14-5.5-1.2-5-1.85-9.9-1.45-11.25.05-22.3 4.15 3.65 12.6 6.6l4.45 1.4 5.3 1.4 7.95 1.75 2.3.45 16.7 2.7L68.6 45l-.05.4 2.6 6.45-.6 3.7.9 9.45-.9-9.45.6-3.7.55-3.75 9-5.3 7.85 8-.8-10.55v-.05l13.45-4.95 18 24.7 3-.6q1.75 1.85 3.1 1.85 2.15-.1 3.9-1.6 1.8-1.55 2.8-1.55 1.5-.05 2.9 1.2l1.55 1.7-5.25 6.7-2.05-2.25-12.7 4.2-6.05-.95-15.15 3.15-4.7-5.4L83 59.9 71.45 65l.35 3.45-.65 4-.4 2.75q-17.8-1.75-32.85-4.75l-3.05-.6-.1-10.8-.9-1.35q-3.45-4.55-7.9-.9l-.05.2q-.55 5.2-.8 10.5.25-5.3.8-10.5l.05-.2q4.45-3.65 7.9.9l.1.15q.15 6.7-.15 11.75l-.3 4.3q-1.6 14.85-7.95 10.5l-.3-.2q-.35-6.25-.25-12.4-.1 6.15.25 12.4l.05.6.05.95.95 1.3q3.15 3.95 7.25 1.15.85-6.9 1.15-14l3.2.65q14.75 2.95 32.15 4.7L68 92.35l2.95 8.6 3.45 2.5-2.55-24.6L83.8 74.7l9.85 7.3 1.2-7.5 10.9 4.9-12.05 2.65-.05-.05v.05L91.8 94.3l4.2 2.5-5.1 3.65-.05.05-.9 6.1-.5 3.1 6.55 3.85 13.1 2.1V115l.05-1.8.15-1.5q.2-2.3.7-4.55l16.6 4.15q4.4-8.45 11.55-10.65-7.15 2.2-11.55 10.65-8.95-5.1-13.45-11l-.75-1.05.8-1.75q.9-1.95 2.05-3.85l-1.85-4.1L116 89l.75-4.75 17.5-7.25 1.3 1.55q-.15 4.35-1.25 5.2-.75.35-1.05.8-.45.6-.4 2.4l.3 1.6L142.3 90l.55-.05h.05l.25 5-4.35.65-4.3.65 3.65 4.4.65-5.05 3.55 11.7-2.3 14.5-6.15-5.25 4.75 9.15-.85 5.4M190.35 73l-.85-11.35v-.2q-4.5-3.65-7.95.9l-.1.15.1-.15q3.45-4.55 7.95-.9v.2l.85 11.35.1 4.4 10.5-1.75q.3 6.8 1.15 13.45 4.05 2.8 7.25-1.15l.9-1.3.1-.95v-.6l-.25.2q-6.3 4.25-7.9-9.9-.25-2-.35-4.35-.35-5.25-.2-12.3l-.75 1.2q-.25 5.7-.1 11.3L190.35 73m20 12.1q.35-5.75.3-11.45.05 5.7-.3 11.45M87.95 32.55l-1.4-7.05-.4-1.95 10.85 7-9.05 2m39.1-.7L106 28.55l8.15-8.7 25.25 13.9-12.35-1.9m-49.15 78.4-3.5-6.8 15.55 3.15-15.55-3.15 3.5 6.8m24.7 17.45q1.65 1.15 2.65 1.15l2.9-1.3q2.8-1.55 2.8-2.55-3.9-6.1-4.9-6.05-6.1 1.45-6 5.5 0 1.35 1.75 2.7l-.15.3q0 .4.35.4l.6-.15" fill="#e9e2cb" fill-rule="evenodd" transform="translate(1.25 1.25)"/><path d="M212.4 32.7v.4l-.1-.05.1-.35M3.55 22.35H3.5h.05m0 34.4H3.5h.05" fill="#6c5e2b" fill-rule="evenodd" transform="translate(1.25 1.25)"/><path d="M210.35 85.1v.6l-.25-.4.25-.2m-20.2 3.75v.6l-.25-.4.25-.2M25.25 84.2l.3.2-.25.4-.05-.6" fill="#5b6f11" fill-rule="evenodd" transform="translate(1.25 1.25)"/><path d="m23.4 67 1.7.5-.05 1.35-.25.1L23.4 67m126.85-31.55-3.5-.55 3.6.2-.1.35" fill="#9f541c" fill-rule="evenodd" transform="translate(1.25 1.25)"/><path d="m71.15 72.45.65-4-.35-3.45L83 59.9l7.55 6.5-6.75 8.3-11.95 4.15-.7-6.4m0-20.6-2.6-6.45 12.15-2.6-12.15 2.6.3-.4 2.5-3.2 4.25-5.6.85-1.1 11.5-2.55 9.05-2 9-2-.8 5.15-4 1.55 4-1.55 12.4 5.3q.3 1.35 1.45 2.95 1.5 2.25 3.3 2.6.05 2.15-1.25 4.15-1.4 2.05-1.3 5.9.05 2.1 2.1 4.4l.3.35-3 .6-18-24.7-13.45 4.95-3.8-3.9-3.25 6.5-9 5.3-.55 3.75M96 113.55l-6.55-3.85.5-3.1.4.1 7.6-.95 4.5 5-6.45 2.8" fill="#dad5c5" fill-rule="evenodd" transform="translate(1.25 1.25)"/><path d="m143.65 111.4-3.6 10.4 2.3-14.5 3.85-3.2-2.55 7.3m-47.8 19.7-7.75-1.05-4.8-9.25 12.55 10.3m-12.5-10.35-2.4-4.6 10.95 2.3-8.55 2.3M9.4 95.9q-5.1-2.95-6.1-6.2l-.15-.6q-6.45-15.2.25-31.95l.2-.05q.55 3.55 4 6.6-2.15 15.85 1.8 32.2M3.65 56.2l-.35-.9-.15-.6q-6.45-15.2.25-31.95l.2-.05q.55 3.55 4 6.6-1.5 11.05-.05 22.3.65 4.9 1.85 9.9-4.15-2.4-5.55-5l-.2-.3m67.1 19 .4-2.75.7 6.4 2.55 24.6-3.45-2.5-2.95-8.6 2.05-12.8.7-4.35m9.95-32.4 3.25-6.5 3.8 3.9v.05l.8 10.55-7.85-8m24.5-9.1.8-5.15 21.05 3.3q-9.6 4.05-9.55 6.25l.1.9-12.4-5.3m11.25 35.9 12.7-4.2 5.1 11.6-17.5 7.25-.3-14.65m14.75-1.95 5.25-6.7.05.05.8.85q1.55 1.8 3.5 2.8-3.95 3.8-4.9 8.2l-4.7-5.2m-17.05-47.8.9-4.7 16.6 5.55L144 24.8v.4l-.85 9.15-3.75-.6-25.25-13.9m24 80.8-3.65-4.4 4.3-.65-.65 5.05M126.6 111.3l-16.6-4.15q.45-2.4 1.2-4.65l-13.25 3.25-7.6.95-.4-.1.9-6.1.05-.05 9.35-1.1L96 96.8l-4.2-2.5 1.85-12.25h.05l12.05-2.65 11 4.85L116 89l-2.6.55-7.3 1.45 9.15 2.65q-1.15 1.9-2.05 3.85l-.8 1.75-1.2 3.25 1.2-3.25.75 1.05q4.5 5.9 13.45 11m-17.5 4.35-13.1-2.1 6.45-2.8 6.65 4.9" fill="#c9c5b6" fill-rule="evenodd" transform="translate(1.25 1.25)"/><path d="m68.55 45.4.05-.4h.25l-.3.4M93.7 82.05h-.05V82l.05.05" fill="#ea8915" fill-rule="evenodd" transform="translate(1.25 1.25)"/><path d="m141.8 79.35.25 2.15.65 5.15-.25-.05-6.9-8.05.05-2.55q-.05-1.6.3-3.15l5.9 6.5M117.6 39l-.1-.9q-.05-2.2 9.55-6.25l12.35 1.9 3.75.6 3.6.55 3.5.55-.5 3.25-9.05 10.1 9.05-10.1.05 1.2.25 6.45.35 9.95-.3.65q0 .4.35.7l.05.9.4 10.35-10.05-13.4-.15-6.7-17.65-7.5-.25-.25-.05.1L117.6 39m23.1 2.6-.55.15.1.45.3-.05q.15.2.6.2l.55-.1.15-.1 1.3-.05 1.65-.85-.3-.35.3-.25q-.65-.75-3-.7l-.55.4 2 .5-1.3.35-.25-.1q-.75.2-1 .5m-4.15-.65-.15-.45q-2.7.15-2.7.8l.05.45h.45l1.2-.15q1.15-.25 1.15-.65m-2.6-1.5q0 .8 1.1.8.5-.05.65-.5l-.1-.3q-.6-.45-1.25-.4-.4 0-.4.4m10.8.2q.9.65 1.3.65l.4-.45q-2.35-2.1-2.9-2.1l-.4.45.45.45-1.25-.05-.45.45q.55.8 1.75.8l.8-.1.3-.1m.35-1.4.55-.5q-.9-1.5-2.15-1.45l-.4.45q1.3 1.5 2 1.5m2 19.1h-.15q-.9.15-.9.65l.05.45.65-.1q.65-.2.65-.55l-.3-.45" fill="#63591d" fill-opacity=".612" fill-rule="evenodd" transform="translate(1.25 1.25)"/><path d="m136.2 131.25-2.7.3-16 .8-3.55-.05q-1.95-2-2-4.1-.15-6.7 7.25-10.35 4.7-2.3 8.3-2.35 2.5-.05 5.4 4 3.2 4.55 3.35 10.45l-.05 1.3M143.85 77l-2.05 2.35-5.9-6.5q.95-4.4 4.9-8.2-1.95-1-3.5-2.8l-.8-.85-.05-.05-1.55-1.7q-1.4-1.25-2.9-1.2-1 0-2.8 1.55-1.75 1.5-3.9 1.6-1.35 0-3.1-1.85l-.3-.35q-2.05-2.3-2.1-4.4-.1-3.85 1.3-5.9 1.3-2 1.25-4.15-1.8-.35-3.3-2.6-1.15-1.6-1.45-2.95l5.15 2.15.05-.1.25.25 17.65 7.5.15 6.7-4.4 5.45 4.4-5.45-18.65 3.85 18.65-3.85 10.05 13.4-7.05 8.1m-21.1-35.85.3.15-.3-.15m6.35 13.15.3-.3-1.15-1.25q-.95-.85-1.3-.8l-.35.45q.15.55 1.2 1.35l1 .6q-.35.1-.55.3-1.15-.95-2.35-.9l-.45.45q.1.2 1.35.95l.95.5-4.2-.25-.3.45q.5.95 3.55.9l.95-.05q.8-.2.8-.6l-.1-.3.45-.45-.2-.25 3.5.35.45-.05v-.9l-3.1-.25-.45.05m.4-2.1q-.5 0-.5.4l4.8 1.4.45-.45q-1-1-4.75-1.35m20.9 4.1.05 1.35q-.35-.3-.35-.7l.3-.65m-17-3.75.45-.45q-.7-.9-1.55-.85l-.3.45q.35.85 1.4.85m10.1 16.15q-.55.15-.5.45v.25l-2.5 1.15q0 .45.5.45l1.6-.55q1.6-.6 1.6-1.05l-.1-.1.75-.35-.15-.35-.15-.05.5-.1q1.35-.45 1.35-.85l-.15-.45q-2.6.5-3.05 1-1.1-.95-2.25-.9l-.5.45q.8 1 2.55 1l.3-.2.2.2m-2.35-2.4 1.25.45 1.45 1 .45-.5q-.95-1.45-2.7-1.4l-.45.45m3.5 3.25q.55 0 .5.45l1.2-.15q-.65.4-.6 1.05l.15.4.3.05 1.15-1.4-.4-.4.55-.65-.3-.45-1.15.05q-1.2.55-1.4 1.05m-1.6 1.85q-1.2.45-1.2 1.3l.1.35.35.1.6-.25q.6-.45.6-1.05-.05-.5-.45-.45m-7.5 7.15 6.9 8.05.25.05v.3l.2 3h-.05l-.55.05-9.15-1.45-.3-1.6q-.05-1.8.4-2.4.3-.45 1.05-.8 1.1-.85 1.25-5.2m-.6 6.35.2.4q2-.05 2-1.2l-.3-.45q-1.95.45-1.9 1.25m2.5.5.5-.45-.35-.4-.55.4.4.45m5 1.2.25.35-.25-.35m-37.5 36.8.35-.3q-1.45-2.3-2.7-2.3l-.45.45q.15.45.6.9l-.95-.25q-.45 0-.4.45 0 .6.85.9-.65.1-.85.4v.15h-.05q-1 0-.95.45l2.45.65-1.1.45.15.4 2.6-.65.75.4-1.5.65-1.95 1q-1.75-1.35-1.75-2.7-.1-4.05 6-5.5 1-.05 4.9 6.05 0 1-2.8 2.55l-2.9 1.3q-1 0-2.65-1.15l2.15-.95q2.4-1.2 2.4-1.7l-.15-.45-.4.05-1.1.75.3-.3-.85-.75.65-.45-.25-.45-.4-.05m-.65-.05h.1-.1m-.85-2.75 1.5 1.75.4-.4-.65-1q-.6-.85-.9-.8l-.35.45m19.85 1q-.5 0-.5.45 0 .7 1.75.7.45-.05.85-.45l-.15-.35-1.95-.35m7.3 5.8q-1.5.05-1.5 1.05l.15.35q1.65-.05 1.65-.95l-.3-.45m-12.4-3.6-.25.05q-.45-.5-1-.5-.4 0-.4.45 0 .4.35.6l-.1.1.15.2-.15.1-.6-.1q-.85-.15-.8.5l.95.4 1.2.3.4-.4.8.25 1.95.5.1.25-2.4-.25-.15-.05q.05-.2-.3-.15l-.25.1h-.3l-.45.45-2.2 1.25q0 .35.4.4v.2h.45q-1.05.5-1 .85l.15.5h.6q.55-.35 1.95-.6l.8-.45.75-.45.65-.1 1 .25-3.8 1.45q0 .45.45.45 1.5-.05 3.7-1.1.3 0 .45.3l.35-.05.1-.65v-.2l.3-.3q-.55-.65-1.55-.85l.7-.05.7-.45-.15-.1.4-.25q.55-.05.9-.4v-.2q-.6-.4-1-.4l-.65.35-.05-.1.1-.1q-.3-.45-2.1-.95h-.1l.95-.35 1.05.1v-.6l.15-.15q-.4-.65-3.15-.85l-.5.45.45.35m12 5.7.15.3q.8.15 1.15-.6l-.4-.45q-.9.15-.9.75m-13.2-1.85.9-.5.95.2-1.6.35-.25-.05m-12.8-3.35h.2l-.2.1v-.1m3.05 2.25.45-.25q.5-.3.5-.95l-.55-.45-.8 1.2q0 .45.4.45" fill="#878723" fill-opacity=".6" fill-rule="evenodd" transform="translate(1.25 1.25)"/><path d="m128.8 54.35-1-.6q-1.05-.8-1.2-1.35l.35-.45q.35-.05 1.3.8L129.4 54l-.3.3-.3.05m-.1.75.2.25-.45.45.1.3q0 .4-.8.6l-.95.05q-3.05.05-3.55-.9l.3-.45 4.2.25-.95-.5q-1.25-.75-1.35-.95l.45-.45q1.2-.05 2.35.9l-.05.05.1.35.4.05m12-13.5q.25-.3 1-.5l.25.1-1.25.4m1.15.55-.15.1-.55.1q-.45 0-.6-.2h1.3m-7.9-2.7q0-.4.4-.4.65-.05 1.25.4l.1.3q-.15.45-.65.5-1.1 0-1.1-.8m10.8.2-.3.1-.8.1q-1.2 0-1.75-.8l.45-.45 1.25.05 1.15 1m.35-1.4q-.7 0-2-1.5l.4-.45q1.25-.05 2.15 1.45l-.55.5m-3.95 28.05.45-.45q1.75-.05 2.7 1.4l-.45.5-1.45-1-1.25-.45m3.4 2.25.15.05.15.35-.75.35.1.1q0 .45-1.6 1.05L141 71q-.5 0-.5-.45l2.5-1.15v-.25q-.05-.3.5-.45l.1.1.95-.25m-1.25-.05-.3.2q-1.75 0-2.55-1l.5-.45q1.15-.05 2.25.9l-.05.2.15.15m-.25 2.9q.4-.05.45.45 0 .6-.6 1.05l-.6.25-.35-.1-.1-.35q0-.85 1.2-1.3m-8.1 13.5q-.05-.8 1.9-1.25l.3.45q0 1.15-2 1.2l-.2-.4m2.5.5-.4-.45.55-.4.35.4-.5.45m-35.2 37.85q-.85-.3-.85-.9-.05-.45.4-.45l.95.25q-.45-.45-.6-.9l.45-.45q1.25 0 2.7 2.3l-.35.3-.55-.05h-.1l-1.5-.15-.55.05m.6 1.65-2.45-.65q-.05-.45.95-.45h.05l.05.2 2.75.3v.1l-1.35.5m.6-4.3.35-.45q.3-.05.9.8l.65 1-.4.4-1.5-1.75m19.85 1 1.95.35.15.35q-.4.4-.85.45-1.75 0-1.75-.7 0-.45.5-.45m-5.1 2.2 1.25.35 1.5.15.3-.3v.6l-1.05-.1-.95.35-2-.45-.3.3-.15-.2.1-.1q-.35-.2-.35-.6 0-.45.4-.45.55 0 1 .5l.25-.05m3.15 2.1.05.1.65-.35q.4 0 1 .4v.2q-.35.35-.9.4l-.4.25-.2-.35-.75-.05-.1-.25h.3l.35-.35m-3.25 2.85-.8.45q-1.4.25-1.95.6h-.6l-.15-.5q-.05-.35 1-.85l2.5.3m-2.95-.5q-.4-.05-.4-.4l2.2-1.25h-.05q.3.35 1 .55l-.9.5-.9-.1q-.8 0-1.05.5l.1.2m2.55-2.1.25-.1q.35-.05.3.15l.15.05-.7-.1m.25-.65-.4.4-1.2-.3-.95-.4q-.05-.65.8-.5l.6.1-.05.05q.15.25 1.2.65" fill="#c7cd41" fill-rule="evenodd" transform="translate(1.25 1.25)"/><path d="m129.1 54.3.45-.05 3.1.25v.9l-.45.05-3.5-.35-.4-.05-.1-.35.05-.05q.2-.2.55-.3l.3-.05m.4-2.1q3.75.35 4.75 1.35l-.45.45-4.8-1.4q0-.4.5-.4m11.05-10.05-.3.05-.1-.45.55-.15 1.25-.4 1.3-.35-2-.5.55-.4q2.35-.05 3 .7l-.3.25.3.35-1.65.85-1.3.05h-1.3m-4-1.2q0 .4-1.15.65l-1.2.15h-.45l-.05-.45q0-.65 2.7-.8l.15.45m7.05-2.3-.45-.45.4-.45q.55 0 2.9 2.1l-.4.45q-.4 0-1.3-.65l-1.15-1m3.5 18.7.3.45q0 .35-.65.55l-.65.1-.05-.45q0-.5.9-.65h.15m-13.7-4.8q-1.05 0-1.4-.85l.3-.45q.85-.05 1.55.85l-.45.45m10.1 16.15-.35-.35.05-.2q.45-.5 3.05-1l.15.45q0 .4-1.35.85l-.5.1-.95.25-.1-.1m1.15.85q.2-.5 1.4-1.05l1.15-.05.3.45-.55.65.4.4-1.15 1.4-.3-.05-.15-.4q-.05-.65.6-1.05l-1.2.15q.05-.45-.5-.45m-39.7 53.85.4.05.25.45-.65.45.85.75-.3.3 1.1-.75.4-.05.15.45q0 .5-2.4 1.7l-2.15.95-.6.15q-.35 0-.35-.4l.15-.3 1.95-1 1.5-.65-.75-.4-2.6.65-.15-.4 1.1-.45 1.35-.5.2-.1h-.2l-2.75-.3-.05-.2v-.15q.2-.3.85-.4l.55-.05 1.5.15h.1l.55.05m25.65 4 .3.45q0 .9-1.65.95l-.15-.35q0-1 1.5-1.05m-9.35-3.4-.3.3-1.5-.15-1.25-.35-.45-.35.5-.45q2.75.2 3.15.85l-.15.15m-4.3.7.3-.3 2 .45h.1q1.8.5 2.1.95l-.45.45h-.3l-1.95-.5-.8-.25q-1.05-.4-1.2-.65l.05-.05.15-.1m4.8 2.2.15.1-.7.45-.7.05q1 .2 1.55.85l-.3.3v.2l-.1.65-.35.05q-.15-.3-.45-.3-2.2 1.05-3.7 1.1-.45 0-.45-.45l3.8-1.45-1-.25-.65.1-.75.45-2.5-.3h-.45v-.2l-.1-.2q.25-.5 1.05-.5l.9.1.25.05 1.6-.35-.95-.2q-.7-.2-1-.55h.05l.45-.45h.3l.7.1 2.4.25.75.05.2.35m8.45 2.6q0-.6.9-.75l.4.45q-.35.75-1.15.6l-.15-.3m-22.95-2.95q-.4 0-.4-.45l.8-1.2.55.45q0 .65-.5.95l-.45.25" fill="#bcbb32" fill-rule="evenodd" transform="translate(1.25 1.25)"/><path d="m150.05 46.75.3 6.9.15 4.9-.05-.9-.05-1.35-.35-9.95v.4M144 25.2v-.4.4" fill="#d0bc93" fill-rule="evenodd" transform="translate(1.25 1.25)"/><path d="m3.5 56.75.15-.55.2.3-.3.25H3.5" fill="#673612" fill-rule="evenodd" transform="translate(1.25 1.25)"/><path d="m240.75 24.4-.05-.2-.05-.25v-.1q-1.7-8.15-27.95-14.2m.95 24.7q5.75 1.35 10.25 2.8 4.6-1.55 7.95-3.3 7.85-4.2 8.9-9.45l.05-.5-.1.3m.05.2v.55l.05-1.05q6.5 16.55 0 31.65l-.1.3-.4 1.3.35 1.1v.1l.05.25.1-.3q6.5 16.55 0 31.65l-.1.3q-.7 4.3-8.25 8.05-8.65 4.25-26.3 7.8-14.2 2.85-30.75 4.55l-10.85.95-19.65 1.05m-65.75-1.15q-21.95-1.75-40-5.4-20-4-28.5-8.95-5.1-2.95-6.1-6.2l-.15-.6q-6.45-15.2.25-31.95v-.05l.1-.35.15-.55-.35-.9-.15-.6q-6.45-15.2.25-31.95v-.05l.1-.35Q6.5 16.5 27.2 11q5.3-1.45 11.95-2.8 34.6-6.95 83.5-6.95t83.5 6.95l6.55 1.45m11.2 27.5q-4.35 1.5-9.75 2.8l-8 1.75-2.3.45-17.35 2.8Q170.15 47.1 151.3 48m40.3 26.25 10.45-1.75m9.75-2 4.6-1.1q10.15-2.6 16.05-5.5m-18.9-29.6.1.05m10.25 37.2q-4.35 1.5-9.75 2.8l-2.25.55m-9.7 2-10.5 1.75m24.7-9.25 7.5 2.15q4.6-1.55 7.95-3.3 7.85-4.2 8.9-9.45l-.05-.2m.05.2v.55l.05-1.05-.05.5m-.45-1.65q-1.5 3.55-7.85 6.75m-87.2-37.75q34.6 1.25 60.9 6.55l7.4 1.6M181.8 75.55l-17.25 1.65-19.45 1.05m-1.8 4.5q20.8-.7 38.65-2.8m-140.5-37.8-2.3-.45-7.95-1.75-5.3-1.4-4.45-1.4Q13 34.2 8.85 30.55m1.8 32.2q5 2.9 14 5.5l1.7.5m9.75 2.35 3.05.6q15.05 3 32.85 4.75m-2.15-30.2-11.7-1.4-16.7-2.7q16.2-3.1 35.4-4.7m10.95-10.7q-27.1 1.6-48.65 5.95-7.35 1.45-13.1 3.1-2.45.65-4.6 1.35m0 34.4q2.15-.7 4.6-1.35l.25-.1m-.05 2.95-.35-.1-4.45-1.4Q13 68.6 8.85 64.95m61.25-18.7h-.25M148 36.15l3.6.2q29.2 1.4 52.25 5.8M4.8 23.6l.05.3v.05q.55 3.55 4 6.6M4.8 23.6l-.15.35M4.8 58l-.15.35M4.8 58l.05.3v.05q.55 3.55 4 6.6m-3.95-7.5.2.3q1.4 2.6 5.55 5M71.3 80.8q-17.4-1.75-32.15-4.7l-3.2-.65" fill="none" stroke="#000" stroke-linecap="round" stroke-linejoin="round" stroke-opacity=".498" stroke-width=".5"/><path d="m181.85 68.15.1-3.2.75-1.2.1-.15q3.45-4.55 7.95-.9v.2l.85 11.35.1 4.4q.05 5.7-.3 11.45v.6l-.1.95-.9 1.3q-3.2 3.95-7.25 1.15l-.7-6.45m19.6-15.15q-.15-5.6.1-11.3l.75-1.2.1-.15q3.45-4.55 7.95-.9v.2q.6 5.65.85 11.35l.1 4.4q.05 5.7-.3 11.45v.6l-.1.95-.9 1.3q-3.2 3.95-7.25 1.15-.85-6.65-1.15-13.45-.15-2.2-.15-4.4m-20.1 7.45-.15-4.4.05-7.4m.1 11.8.5 7.7m-156.1-18.9q.25-5.3.8-10.5l.05-.2q4.45-3.65 7.9.9l.9 1.35.1 10.8m-9.8-1 .05-1.35m-.05 1.35-.05 2.95q-.1 6.15.25 12.4m9.45-10q-.3 7.1-1.15 14-4.1 2.8-7.25-1.15L26.6 87l-.05-.95-.05-.6m9.45-10 .15-4.35M144.9 112.65l-3.6 10.4-.95 3.95-1.3 5.35-1.6.15-2.7.3-16 .8-3.55-.05-18.1-1.2-7.75-1.05-4.8-9.25.05-.05-2.4-4.6-3.05-5.9M151.3 48l.3 6.9m-6.5 23.35-2.05 2.35.25 2.15M72 76.45l.4-2.75.65-4-.35-3.45-.9-9.45.6-3.7-2.6-6.45.3-.4 2.5-3.2-14.45 1.8m18.7-7.4.85-1.1 11.5-2.55-1.4-7.05-.4-1.95 7.15-2.1q-31.2 2-63.1 8.3M72.6 43.05l4.25-5.6m12.15 4-3.8-3.9-3.25 6.5 7.85 8L89 41.5v-.05l13.45-4.95 4-1.55.8-5.15-9 2-9.05 2M72.4 53.1l.55-3.75 9-5.3-12.15 2.6m2.9 19.6 11.55-5.1 7.55 6.5 4.7 5.4 15.15-3.15 6.05.95 12.7-4.2 2.05 2.25 5.25-6.7 4.4-5.45-18.65 3.85-3 .6-18-24.7m12.95-15.4.9-4.7-21.75 6.3m24.3 17.55-12.4-5.3m21.85-1.85-21.05-3.3 8.15-8.7L140.65 35l3.75.6.85-9.15v-.4l-12.35-4.1-16.6-5.55m8 26.15 17.65 7.5 9.05-10.1.5-3.25-3.5-.55-3.6-.55m-20.1 6.95-.3-.15-5.15-2.15m26.4-14.1v.3m0-.4v.1m5.75 13.8.05 1.2q17.8 1.15 35.45 3.8m-35.2 2.65v.4m-.25-6.85.25 6.45.35 9.95.05 1.35.05.9-.15-4.9m-9.5 1.85-.15-6.7m-4.8 24.05-4.7-5.2m4.7 5.2 5.9 6.5m9.1-10.45-.4-10.35m.4 10.35-10.05-13.4M140.65 35l-12.35-1.9m-30.05-1.3-10.85-7m48.1 53.45 1.3 1.55 6.9 8.05m.25.05-.65-5.15m-3.9 19.15-3.65-4.4 4.3-.65 4.35-.65-.25-5-.2-3-.25-.35m.25.35v-.3m-4.05 39.05-4.75-9.15 6.15 5.25 2.3-14.5-3.55-11.7-.65 5.05q-7.15 2.2-11.55 10.65l-16.6-4.15q-.5 2.25-.7 4.55l-.15 1.5-.05 1.8v.65l-13.1-2.1-6.55-3.85.5-3.1-15.55-3.15 3.5 6.8m65.75 1.15 2.55-7.3-3.85 3.2m.8-12.35 3.05 9.15m-32.8-14.55 2.6-.55.75-4.75-11-4.85-12.05 2.65h-.05l-1.85 12.25 4.2 2.5 4.25 2.55-9.35 1.1-.05.05-.9 6.1.4.1 7.6-.95 13.25-3.25 1.2-3.25.8-1.75q.9-1.95 2.05-3.85l-9.15-2.65 7.3-1.45 1.85 4.1M107 80.65l-10.9-4.9-1.2 7.5.05.05m-.05 0v-.05l-9.85-7.3L73.1 80.1l2.55 24.6-3.45-2.5-2.95-8.6 2.05-12.8.7-4.35M103.7 112l6.65 4.9m-13.1-2.1 6.45-2.8-4.5-5m28.65 5.55q-8.95-5.1-13.45-11l-.75-1.05m-2.4 7.9q.45-2.4 1.2-4.65m-20.3-2.05 5.1-3.65m42.65 28.9-.85 5.4M118 85.5l17.5-7.25-5.1-11.6m-33.3 65.7-12.55-10.3m.05-.05 8.55-2.3-10.95-2.3m13.9-41.65.4-2.7m55.65-2.9-7.05 8.1m-53.3-10.6-6.75 8.3M73.1 80.1l-.7-6.4m45.3-2.85.3 14.65m14.9-63.55q38.85.9 76.55 8.7M31.45 15q91.85-18.2 178-.35" fill="none" stroke="#000" stroke-linecap="round" stroke-linejoin="round" stroke-opacity=".498" stroke-width=".05"/></g></defs></svg>