<svg viewBox="0 0 323.52 173.99" xmlns="http://www.w3.org/2000/svg" xmlns:xlink="http://www.w3.org/1999/xlink"><g transform="translate(-63.669 -125.5)"><use transform="matrix(1 0 0 .7348 297.45 200.95)" width="31.85" height="107.15" xlink:href="#a"/><use transform="matrix(.866 -.5 .3674 .6364 317.76 204.82)" width="31.85" height="107.15" xlink:href="#a"/><use transform="matrix(.9659 .2588 -.1902 .7098 271.93 216.58)" width="31.85" height="107.15" xlink:href="#a"/><use transform="matrix(.9659 .2588 -.1902 .7098 235.63 216.58)" width="31.85" height="107.15" xlink:href="#a"/><use transform="matrix(-.8344 0 0 .7348 215.27 210.65)" width="31.85" height="107.15" xlink:href="#a"/><use transform="matrix(-.8344 0 0 .7348 193.22 206.7)" width="31.85" height="107.15" xlink:href="#a"/><use transform="matrix(-.806 -.216 -.1902 .7098 169.85 195.72)" width="31.85" height="107.15" xlink:href="#a"/><use transform="matrix(-.7226 -.4172 -.3674 .6364 145.71 185.51)" width="31.85" height="107.15" xlink:href="#a"/><use transform="translate(279.35 125.55)" width="38.85" height="34.75" xlink:href="#b"/><use transform="rotate(14.999 -416.564 950.782)" width="53.55" height="124.9" xlink:href="#c"/><use transform="rotate(14.999 -406.639 1026.176)" width="53.55" height="124.9" xlink:href="#c"/><use transform="rotate(14.999 -430.653 867.243)" width="53.55" height="124.9" xlink:href="#c"/><use transform="rotate(14.999 -449.4 783.544)" width="53.55" height="124.9" xlink:href="#c"/><use transform="rotate(14.999 -487.685 720.191)" width="53.55" height="124.9" xlink:href="#c"/><use transform="rotate(14.999 -410.792 1103.23)" width="53.55" height="124.9" xlink:href="#c"/><use transform="translate(263.7 151.1)" width="13.7" height="13.85" xlink:href="#d"/><use transform="rotate(-38.009 373.56 -309.727) scale(.9996)" width="53.55" height="124.9" xlink:href="#c"/><use transform="matrix(-.8077 -.4663 -.6163 .6445 182.04 165.23)" width="53.55" height="124.9" xlink:href="#c"/><use transform="translate(157.15 153.4)" width="35.9" height="21.5" xlink:href="#e"/><use transform="matrix(-.9008 -.2414 -.3089 .8141 191.34 165.17)" width="53.55" height="124.9" xlink:href="#c"/><use transform="translate(279.35 158.05)" width="14.8" height="14.6" xlink:href="#f"/><use transform="matrix(.92 -.3907 .3907 .92 261.49 164.84)" width="53.55" height="124.9" xlink:href="#c"/><use transform="translate(268.35 164.6)" width="14.3" height="13.8" xlink:href="#g"/><use transform="translate(254.55 162.05)" width="53.55" height="124.9" xlink:href="#c"/><use transform="translate(254 168.9)" width="14.3" height="13.8" xlink:href="#h"/><use transform="rotate(14.999 -499.366 1008.63)" width="53.55" height="124.9" xlink:href="#c"/><use transform="translate(170.4 165.8)" width="13.7" height="13.8" xlink:href="#i"/><use transform="matrix(-1.0877 0 0 .8744 203.5 163.65)" width="53.55" height="124.9" xlink:href="#c"/><use transform="translate(193.15 170)" width="13.7" height="13.8" xlink:href="#j"/><use transform="matrix(-.8153 0 0 1 222.76 163.65)" width="53.55" height="124.9" xlink:href="#c"/><use transform="translate(211.7 172.4)" width="13.9" height="12.6" xlink:href="#k"/><use transform="matrix(-.9905 0 .1515 1 244.39 166)" width="53.55" height="124.9" xlink:href="#c"/><use transform="translate(200.4 149.45)" width="55.7" height="37.2" xlink:href="#l"/></g><defs><g id="m" fill-rule="evenodd"><path d="M-11.4 7q-6.05-25.4-4-57.4l11.8-3.15Q-2.7-30.9 2.3-9.2l-7.45-14.4q.3 30.45 11 58.3-14-24.8-16.5-57.5L-11.4 7" fill="#f06" transform="translate(15.9 53.55)"/><path d="m-11.4 7 .75-29.8q2.5 32.7 16.5 57.5-10.7-27.85-11-58.3L2.3-9.2q3.25 14.3 8.3 28.15 10.75 26.5 0 34.65Q-5 34.05-11.4 7" fill="#ffa4a4" transform="translate(15.9 53.55)"/></g><g id="b"><path d="M293.7 153.45q10.55 1.7 21.1-3.3 6.8 2.9 0 7.6-14.85 1.7-22.9-3.35l1.8-.95m-9.35 1.2q12.25-11.65 19.9-29 6.35-.85 7.75 4.2-12.2 16.55-27.65 24.8" fill="#960" fill-rule="evenodd" transform="translate(-279.35 -125.55)"/><path d="M312 129.85q.55 2.05.3 5.1-6.95 12-18.6 18.5l-1.8.95q8.05 5.05 22.9 3.35-16.1 4.9-32.2.4l-3.25.85 3.2-2.65 1.8-1.7q15.45-8.25 27.65-24.8m-29.4 28.3q4.95-1.55 9.3-3.75-4.35 2.2-9.3 3.75" fill="#533800" fill-rule="evenodd" transform="translate(-279.35 -125.55)"/><path d="M32.65 4.3q.55 2.05.3 5.1-6.95 12-18.6 18.5 10.55 1.7 21.1-3.3 6.8 2.9 0 7.6-16.1 4.9-32.2.4L0 33.45M24.9.1q6.35-.85 7.75 4.2m-18.3 23.6-1.8.95q-4.35 2.2-9.3 3.75" fill="none" stroke="#000" stroke-linecap="round" stroke-linejoin="round" stroke-width=".05"/><path d="M5 29.1Q17.25 17.45 24.9.1" fill="none" stroke="#000" stroke-linecap="round" stroke-linejoin="round" stroke-width=".05"/></g><g id="n"><path d="M-26.75-54.3q6-12 15-6.3Q4.8-51.05 14.8-23.7 3.9-41.9-7.05-48 8.1-7.95 12.65 34.75 3.45-4-17.3-53.5q-.2 34.4 15.25 87.55-14.65-35.1-24.7-88.35" fill="#004700" fill-rule="evenodd" transform="translate(26.75 62.45)"/><path d="M-2.05 34.05Q-17.5-19.1-17.3-53.5 3.45-4 12.65 34.75 8.1-7.95-7.05-48 3.9-41.9 14.8-23.7q6.1 16.65 9.75 39.85 4.55 24.65 0 46.2Q14.45 63.7 3.2 45.8.5 40.2-2.05 34.05" fill="#476a00" fill-rule="evenodd" transform="translate(26.75 62.45)"/><path d="M41.55 38.75Q31.55 11.4 15 1.85q-9-5.7-15 6.3m41.55 30.6q6.1 16.65 9.75 39.85 4.55 24.65 0 46.2-10.1 1.35-21.35-16.55" fill="none" stroke="#000" stroke-linecap="round" stroke-linejoin="round" stroke-opacity=".478" stroke-width=".05"/><path d="M0 8.15Q10.05 61.4 24.7 96.5m5.25 11.75q-2.7-5.6-5.25-11.75" fill="none" stroke="#000" stroke-linecap="round" stroke-linejoin="round" stroke-opacity=".478" stroke-width=".05"/></g><g id="d"><path d="M264.05 161.4q-1.4-8.1 2.75-10.3 5.05 6.55 10.25 2.75 1.45 6.65-2.75 10.3-6.1 2.45-10.25-2.75" fill="#533800" fill-rule="evenodd" transform="translate(-263.7 -151.1)"/><path d="M.35 10.3q4.15 5.2 10.25 2.75 4.2-3.65 2.75-10.3Q8.15 6.55 3.1 0-1.05 2.2.35 10.3z" fill="none" stroke="#000" stroke-linecap="round" stroke-linejoin="round" stroke-width=".05"/></g><g id="e"><path d="M157.15 169.5q.65-8.2 5.3-9.2 3.15 7.55 9.2 5.3-.35 6.75-5.3 9.2-6.6.75-9.2-5.3" fill="#960" fill-rule="evenodd" transform="translate(-157.15 -153.4)"/><path d="M0 16.1q2.6 6.05 9.2 5.3 4.95-2.45 5.3-9.2-6.05 2.25-9.2-5.3-4.65 1-5.3 9.2z" fill="none" stroke="#000" stroke-linecap="round" stroke-linejoin="round" stroke-width=".05"/><path d="M182.3 166.45q-5.3-6.3-2.75-10.3 7.55 3.15 10.25-2.75 4.55 5.05 2.75 10.3-4.1 5.15-10.25 2.75" fill="#533800" fill-rule="evenodd" transform="translate(-157.15 -153.4)"/><path d="M25.15 13.05q6.15 2.4 10.25-2.75Q37.2 5.05 32.65 0q-2.7 5.9-10.25 2.75-2.55 4 2.75 10.3z" fill="none" stroke="#000" stroke-linecap="round" stroke-linejoin="round" stroke-width=".05"/></g><g id="f"><path d="M284.95 172.55q-6.8-4.7-5.35-9.2 8.15 1.05 9.2-5.3 5.7 3.65 5.35 9.2-2.65 6.05-9.2 5.3" fill="#960" fill-rule="evenodd" transform="translate(-279.35 -158.05)"/><path d="M5.6 14.5q6.55.75 9.2-5.3.35-5.55-5.35-9.2Q8.4 6.35.25 5.3-1.2 9.8 5.6 14.5z" fill="none" stroke="#000" stroke-linecap="round" stroke-linejoin="round" stroke-width=".05"/></g><g id="g"><path d="M271.9 177.6q-5.25-6.3-2.75-10.25 7.6 3.1 10.25-2.75 4.55 5.05 2.75 10.25-4.05 5.2-10.25 2.75" fill="#960" fill-rule="evenodd" transform="translate(-268.35 -164.6)"/><path d="M3.55 13q6.2 2.45 10.25-2.75Q15.6 5.05 11.05 0 8.4 5.85.8 2.75-1.7 6.7 3.55 13z" fill="none" stroke="#000" stroke-linecap="round" stroke-linejoin="round" stroke-width=".05"/></g><g id="h"><path d="M257.55 181.9q-5.25-6.3-2.75-10.25 7.6 3.1 10.25-2.75 4.55 5.05 2.75 10.25-4.05 5.2-10.25 2.75" fill="#960" fill-rule="evenodd" transform="translate(-254 -168.9)"/><path d="M3.55 13q6.2 2.45 10.25-2.75Q15.6 5.05 11.05 0 8.4 5.85.8 2.75-1.7 6.7 3.55 13z" fill="none" stroke="#000" stroke-linecap="round" stroke-linejoin="round" stroke-width=".05"/></g><g id="i"><path d="M170.75 176.05q-1.45-8.1 2.75-10.25 5 6.5 10.25 2.75 1.45 6.65-2.75 10.25-6.15 2.5-10.25-2.75" fill="#960" fill-rule="evenodd" transform="translate(-170.4 -165.8)"/><path d="M.35 10.25Q4.45 15.5 10.6 13q4.2-3.6 2.75-10.25Q8.1 6.5 3.1 0-1.1 2.15.35 10.25z" fill="none" stroke="#000" stroke-linecap="round" stroke-linejoin="round" stroke-width=".05"/></g><g id="j"><path d="M193.5 180.25q-1.45-8.1 2.75-10.25 5 6.5 10.25 2.75 1.45 6.65-2.75 10.25-6.15 2.5-10.25-2.75" fill="#960" fill-rule="evenodd" transform="translate(-193.15 -170)"/><path d="M.35 10.25Q4.45 15.5 10.6 13q4.2-3.6 2.75-10.25Q8.1 6.5 3.1 0-1.1 2.15.35 10.25z" fill="none" stroke="#000" stroke-linecap="round" stroke-linejoin="round" stroke-width=".05"/></g><g id="k"><path d="M213.45 183.05q-3.5-7.45 0-10.65 6.5 5 10.6 0 3.1 6.05 0 10.65-5.3 3.95-10.6 0" fill="#960" fill-rule="evenodd" transform="translate(-211.7 -172.4)"/><path d="M1.75 10.65q5.3 3.95 10.6 0 3.1-4.6 0-10.65-4.1 5-10.6 0-3.5 3.2 0 10.65z" fill="none" stroke="#000" stroke-linecap="round" stroke-linejoin="round" stroke-width=".05"/></g><g id="l"><path d="M239.3 184.7q-3.5-7.45 0-10.65 6.5 5 10.6 0 3.1 6.05 0 10.65-5.3 3.95-10.6 0" fill="#960" fill-rule="evenodd" transform="translate(-200.4 -149.45)"/><path d="M38.9 35.25q5.3 3.95 10.6 0 3.1-4.6 0-10.65-4.1 5-10.6 0-3.5 3.2 0 10.65z" fill="none" stroke="#000" stroke-linecap="round" stroke-linejoin="round" stroke-width=".05"/><path d="M224.5 160.1q-3.5-7.45 0-10.65 6.5 5 10.6 0 3.1 6.05 0 10.65-5.3 3.95-10.6 0" fill="#533800" fill-rule="evenodd" transform="translate(-200.4 -149.45)"/><path d="M24.1 10.65q5.3 3.95 10.6 0 3.1-4.6 0-10.65-4.1 5-10.6 0-3.5 3.2 0 10.65z" fill="none" stroke="#000" stroke-linecap="round" stroke-linejoin="round" stroke-width=".05"/><path d="M202.15 161.45q-3.5-7.45 0-10.65 6.5 5 10.6 0 3.1 6.05 0 10.65-5.3 3.95-10.6 0" fill="#533800" fill-rule="evenodd" transform="translate(-200.4 -149.45)"/><path d="M1.75 12q5.3 3.95 10.6 0 3.1-4.6 0-10.65-4.1 5-10.6 0-3.5 3.2 0 10.65z" fill="none" stroke="#000" stroke-linecap="round" stroke-linejoin="round" stroke-width=".05"/><path d="M243.95 161.45q-3.5-7.45 0-10.65 6.5 5 10.6 0 3.1 6.05 0 10.65-5.3 3.95-10.6 0" fill="#533800" fill-rule="evenodd" transform="translate(-200.4 -149.45)"/><path d="M43.55 12q5.3 3.95 10.6 0 3.1-4.6 0-10.65-4.1 5-10.6 0-3.5 3.2 0 10.65z" fill="none" stroke="#000" stroke-linecap="round" stroke-linejoin="round" stroke-width=".05"/></g><use width="31.85" height="107.15" xlink:href="#m" id="a"/><use width="53.55" height="124.9" xlink:href="#n" id="c"/></defs></svg>