<svg viewBox="0 0 135.37 183.91" xmlns="http://www.w3.org/2000/svg" xmlns:xlink="http://www.w3.org/1999/xlink"><use transform="translate(-9.68) scale(1.4424)" width="100.55" height="135.15" xlink:href="#a"/><defs><linearGradient id="g" x1="-819.2" x2="819.2" gradientTransform="matrix(.0276 .048 -.0254 .0146 18.3 -10.5)" gradientUnits="userSpaceOnUse"><stop stop-color="#d7a700" offset="0"/><stop stop-color="#ffc809" offset=".251"/><stop stop-color="#fdc609" offset=".675"/><stop stop-color="#d7a700" offset="1"/></linearGradient><linearGradient id="h" x1="-819.2" x2="819.2" gradientTransform="matrix(.0498 0 0 .0678 -1.35 3.95)" gradientUnits="userSpaceOnUse"><stop stop-color="#bf9500" offset="0"/><stop stop-color="#a97601" offset="1"/></linearGradient><linearGradient id="i" x1="-819.2" x2="819.2" gradientTransform="matrix(.0268 .0371 -.0141 .0101 -27.85 37.4)" gradientUnits="userSpaceOnUse"><stop stop-color="#d7a700" offset="0"/><stop stop-color="#ffc809" offset=".251"/><stop stop-color="#fdc609" offset=".675"/><stop stop-color="#d7a700" offset="1"/></linearGradient><linearGradient id="o" x1="-819.2" x2="819.2" gradientTransform="matrix(-.0134 -.0234 .0492 -.0282 12.4 23.75)" gradientUnits="userSpaceOnUse"><stop stop-color="#a80" offset="0"/><stop stop-color="#a87500" offset="1"/></linearGradient><linearGradient id="p" x1="-819.2" x2="819.2" gradientTransform="matrix(.0075 -.0129 .0044 .0025 30.15 -35.6)" gradientUnits="userSpaceOnUse"><stop stop-color="#d3a800" offset="0"/><stop stop-color="#d2b540" offset="1"/></linearGradient><linearGradient id="q" x1="-819.2" x2="819.2" gradientTransform="matrix(0 -.02 .0118 0 14.65 -34.25)" gradientUnits="userSpaceOnUse"><stop stop-color="#d3a800" offset="0"/><stop stop-color="#d2b540" offset="1"/></linearGradient><linearGradient id="r" x1="-819.2" x2="819.2" gradientTransform="matrix(-.0068 -.0255 .0327 -.0088 -10.15 14.55)" gradientUnits="userSpaceOnUse"><stop stop-color="#d3a800" offset="0"/><stop stop-color="#d2b540" offset="1"/></linearGradient><linearGradient id="u" x1="-819.2" x2="819.2" gradientTransform="matrix(.053 0 0 .0696 -1.3 2.45)" gradientUnits="userSpaceOnUse"><stop stop-color="#fce7b6" stop-opacity=".471" offset="0"/><stop stop-color="#fff" stop-opacity=".702" offset="1"/></linearGradient><linearGradient id="v" x1="-819.2" x2="819.2" gradientTransform="matrix(-.0048 .0496 -.041 -.004 1.65 1.65)" gradientUnits="userSpaceOnUse"><stop stop-color="#fee18b" stop-opacity=".392" offset="0"/><stop stop-color="#fee18b" stop-opacity=".173" offset="1"/></linearGradient><g id="a" transform="translate(54.45 59.45)"><use transform="translate(-47.75 -59.45)" width="93.85" height="127.5" xlink:href="#b"/><use transform="translate(-38.45 -39.8)" width="72.2" height="99.15" xlink:href="#c"/><use transform="translate(-43.2 -53.05)" width="83.8" height="111.25" xlink:href="#d"/><use transform="matrix(.2341 .4332 -.5 .866 -22.503 -33.66)" width="24.8" height="24.8" xlink:href="#e"/><use transform="matrix(-.0138 .4922 -.48 .2771 -6.477 -47.09)" width="24.8" height="24.8" xlink:href="#e"/><use transform="matrix(.6998 .7402 -.3649 1.3619 -32.553 -9.966)" width="24.8" height="24.8" xlink:href="#e"/><use transform="matrix(1.7802 1.8829 -.8266 2.2565 -33.975 -26.978)" width="24.8" height="24.8" xlink:href="#e"/><use transform="matrix(.0471 -1.6778 1.3625 -.6319 8.021 62.191)" width="24.8" height="24.8" xlink:href="#e"/><use transform="translate(-47.25 -58.95)" width="92.85" height="126.5" xlink:href="#f"/></g><g id="b"><path d="M-18.7-49.85q11.85-10.9 22.5-8.75 13.4 2.65 27.45 23.05 14 20.35 14.35 47.5.35 25.05-13.15 40.4-7.25 3.25-6.2-4.4 13.5-13.8 13.2-37.25Q39.1-13.15 26.8-31 14.5-48.95 2.75-51.25q-9.25-1.85-19.45 7.4-4.55-.9-2-6" fill="url(#g)" fill-rule="evenodd" transform="translate(47.75 59.45)"/><path d="M-16.7-43.85q10.2-9.25 19.45-7.4Q14.5-48.95 26.8-31q12.3 17.85 12.65 41.7.3 23.45-13.2 37.25l-.4.4Q15.1 59.05 2.1 59.5l-7.7-.65Q-23.25 55.5-34.35 41.4t-6.3-38.8l1.2-5.4q5.05-21.05 17-35.05l5.75-6" fill="url(#h)" fill-rule="evenodd" transform="translate(47.75 59.45)"/><path d="M-18.7-49.85q-2.55 5.1 2 6l-5.75 6q-11.95 14-17 35.05-1.8-3.05-4.85-.6 5.8-24 19.4-39.95l6.2-6.5m44.95 97.8q-1.05 7.65 6.2 4.4l-2.3 2.5Q17.5 67.45 2.1 67.55q3.55-4.05 0-8.05 13-.45 23.75-11.15l.4-.4" fill="#d7a700" fill-rule="evenodd" transform="translate(47.75 59.45)"/><path d="m2.1 67.55-7.8-.75Q-25.8 63-38.4 46.95q-12.65-16.05-7.2-44.2l1.3-6.15q3.05-2.45 4.85.6l-1.2 5.4q-4.8 24.7 6.3 38.8T-5.6 58.85l7.7.65q3.55 4 0 8.05" fill="url(#i)" fill-rule="evenodd" transform="translate(47.75 59.45)"/><path d="M32.45 52.35Q45.95 37 45.6 11.95q-.35-27.15-14.35-47.5Q17.2-55.95 3.8-58.6q-10.65-2.15-22.5 8.75m51.15 102.2-2.3 2.5Q17.5 67.45 2.1 67.55l-7.8-.75Q-25.8 63-38.4 46.95q-12.65-16.05-7.2-44.2l1.3-6.15q5.8-24 19.4-39.95l6.2-6.5" fill="none" stroke="#9e6003" stroke-linecap="round" stroke-linejoin="round" stroke-opacity=".561" transform="translate(47.75 59.45)"/></g><g id="c" transform="translate(36.1 53.7)"><use transform="translate(-36.1 -45.4)" width="72.2" height="90.85" xlink:href="#j"/><use transform="translate(-30.938 -53.7) scale(.7515)" width="83.45" height="115.55" xlink:href="#k"/><use transform="translate(-28.25 -16.7)" width="59.25" height="53.25" xlink:href="#l"/></g><g id="j" fill-rule="evenodd"><path d="M-14.1 22.25q2.45 2.45 2.45 5.9T-14.1 34q-2.4 2.45-5.85 2.45t-5.9-2.45q-2.4-2.4-2.4-5.85t2.4-5.9q2.45-2.4 5.9-2.4t5.85 2.4" fill="#826500" transform="translate(36.1 45.4)"/><path d="M-3.55 28.4q2.45 2.45 2.45 5.9t-2.45 5.85q-2.4 2.45-5.85 2.45t-5.9-2.45q-2.4-2.4-2.4-5.85t2.4-5.9q2.45-2.4 5.9-2.4t5.85 2.4" fill="#826500" transform="translate(36.1 45.4)"/><path d="M-1.35 20.15q2.2 2.25 2.2 5.4t-2.2 5.35q-2.2 2.25-5.4 2.25-3.15 0-5.4-2.25-2.2-2.2-2.2-5.35t2.2-5.4q2.25-2.2 5.4-2.2 3.2 0 5.4 2.2" fill="#826500" transform="translate(36.1 45.4)"/><path d="M6.8 30.1q2.45 2.45 2.45 5.9T6.8 41.85Q4.4 44.3.95 44.3t-5.9-2.45q-2.4-2.4-2.4-5.85t2.4-5.9q2.45-2.4 5.9-2.4t5.85 2.4" fill="#826500" transform="translate(36.1 45.4)"/><path d="M20.75 28.4q2.45 2.45 2.45 5.9t-2.45 5.85q-2.4 2.45-5.85 2.45T9 40.15q-2.4-2.4-2.4-5.85T9 28.4q2.45-2.4 5.9-2.4t5.85 2.4M29.65 13.25q2 2 2 4.8t-2 4.75q-1.95 1.95-4.75 1.95-2.75 0-4.75-1.95-1.95-1.95-1.95-4.75t1.95-4.8q2-1.95 4.75-1.95 2.8 0 4.75 1.95M-17.2 6.35q2.45 2.45 2.45 5.9t-2.45 5.85q-2.4 2.45-5.85 2.45t-5.9-2.45q-2.4-2.4-2.4-5.85t2.4-5.9q2.45-2.4 5.9-2.4t5.85 2.4" fill="#826500" transform="translate(36.1 45.4)"/><path d="M-16.8 17.2q2.45 2.45 2.45 5.9t-2.45 5.85q-2.4 2.45-5.85 2.45t-5.9-2.45q-2.4-2.4-2.4-5.85t2.4-5.9q2.45-2.4 5.9-2.4t5.85 2.4M-24.7 2.55q1.95 1.95 1.95 4.75 0 2.75-1.95 4.7t-4.7 1.95q-2.8 0-4.75-1.95t-1.95-4.7q0-2.8 1.95-4.75T-29.4.6q2.75 0 4.7 1.95M12.55 12.6q1.25 1.25 1.25 3.05 0 1.75-1.25 3-1.2 1.25-3 1.25-1.75 0-3-1.25t-1.25-3q0-1.8 1.25-3.05t3-1.25q1.8 0 3 1.25M17.45-4.55q2 2 2 4.8t-2 4.75Q15.5 6.95 12.7 6.95 9.95 6.95 7.95 5 6 3.05 6 .25t1.95-4.8q2-1.95 4.75-1.95 2.8 0 4.75 1.95M-11.1-14.75Q-9.15-12.8-9.15-10q0 2.75-1.95 4.7t-4.7 1.95q-2.8 0-4.75-1.95T-22.5-10q0-2.8 1.95-4.75t4.75-1.95q2.75 0 4.7 1.95M4.8 17.6q1.95 1.95 1.95 4.75 0 2.75-1.95 4.7T.1 29q-2.8 0-4.75-1.95t-1.95-4.7q0-2.8 1.95-4.75T.1 15.65q2.75 0 4.7 1.95" fill="#826500" transform="translate(36.1 45.4)"/><path d="M15.2 22.45q1.95 1.95 1.95 4.75 0 2.75-1.95 4.7t-4.7 1.95q-2.8 0-4.75-1.95T3.8 27.2q0-2.8 1.95-4.75t4.75-1.95q2.75 0 4.7 1.95" fill="#826500" transform="translate(36.1 45.4)"/><path d="M26.65 23.9q1.95 1.95 1.95 4.75 0 2.75-1.95 4.7t-4.7 1.95q-2.8 0-4.75-1.95t-1.95-4.7q0-2.8 1.95-4.75t4.75-1.95q2.75 0 4.7 1.95" fill="#826500" transform="translate(36.1 45.4)"/><path d="M32.85 14.6q1.95 1.95 1.95 4.75 0 2.75-1.95 4.7T28.15 26q-2.8 0-4.75-1.95t-1.95-4.7q0-2.8 1.95-4.75t4.75-1.95q2.75 0 4.7 1.95M14 34.05q1.95 1.95 1.95 4.75 0 2.75-1.95 4.7t-4.7 1.95q-2.8 0-4.75-1.95T2.6 38.8q0-2.8 1.95-4.75T9.3 32.1q2.75 0 4.7 1.95" fill="#826500" transform="translate(36.1 45.4)"/><path d="M1.25 33.35Q3.2 35.3 3.2 38.1q0 2.75-1.95 4.7t-4.7 1.95q-2.8 0-4.75-1.95t-1.95-4.7q0-2.8 1.95-4.75t4.75-1.95q2.75 0 4.7 1.95" fill="#826500" transform="translate(36.1 45.4)"/><path d="M-4.95 30.95Q-3 32.9-3 35.7q0 2.75-1.95 4.7t-4.7 1.95q-2.8 0-4.75-1.95t-1.95-4.7q0-2.8 1.95-4.75T-9.65 29q2.75 0 4.7 1.95" fill="#826500" transform="translate(36.1 45.4)"/><path d="M-14.75 27.05Q-12.8 29-12.8 31.8q0 2.75-1.95 4.7t-4.7 1.95q-2.8 0-4.75-1.95t-1.95-4.7q0-2.8 1.95-4.75t4.75-1.95q2.75 0 4.7 1.95" fill="#826500" transform="translate(36.1 45.4)"/><path d="M-18.3 23.9q1.95 1.95 1.95 4.75 0 2.75-1.95 4.7T-23 35.3q-2.8 0-4.75-1.95t-1.95-4.7q0-2.8 1.95-4.75t4.75-1.95q2.75 0 4.7 1.95" fill="#826500" transform="translate(36.1 45.4)"/><path d="M-23.15 18.35q1.95 1.95 1.95 4.75 0 2.75-1.95 4.7t-4.7 1.95q-2.8 0-4.75-1.95t-1.95-4.7q0-2.8 1.95-4.75t4.75-1.95q2.75 0 4.7 1.95" fill="#826500" transform="translate(36.1 45.4)"/><path d="M-24.45 15.9q1.95 1.95 1.95 4.75 0 2.75-1.95 4.7t-4.7 1.95q-2.8 0-4.75-1.95t-1.95-4.7q0-2.8 1.95-4.75t4.75-1.95q2.75 0 4.7 1.95M-.4 3.2Q.85 4.45.85 6.25q0 1.75-1.25 3-1.2 1.25-3 1.25-1.75 0-3-1.25t-1.25-3q0-1.8 1.25-3.05t3-1.25q1.8 0 3 1.25M11.05-17.75q1.25 1.25 1.25 3.05 0 1.75-1.25 3-1.2 1.25-3 1.25-1.75 0-3-1.25t-1.25-3q0-1.8 1.25-3.05t3-1.25q1.8 0 3 1.25M17.6-30.3q1.25 1.25 1.25 3.05 0 1.75-1.25 3-1.2 1.25-3 1.25-1.75 0-3-1.25t-1.25-3q0-1.8 1.25-3.05t3-1.25q1.8 0 3 1.25M14-44.15q1.25 1.25 1.25 3.05 0 1.75-1.25 3-1.2 1.25-3 1.25-1.75 0-3-1.25t-1.25-3q0-1.8 1.25-3.05t3-1.25q1.8 0 3 1.25M30.4-30.3q1.25 1.25 1.25 3.05 0 1.75-1.25 3-1.2 1.25-3 1.25-1.75 0-3-1.25t-1.25-3q0-1.8 1.25-3.05t3-1.25q1.8 0 3 1.25M26.75-19.5Q28-18.25 28-16.45q0 1.75-1.25 3-1.2 1.25-3 1.25-1.75 0-3-1.25t-1.25-3q0-1.8 1.25-3.05t3-1.25q1.8 0 3 1.25" fill="#826500" transform="translate(36.1 45.4)"/><path d="M23.2-17.75q1.25 1.25 1.25 3.05 0 1.75-1.25 3-1.2 1.25-3 1.25-1.75 0-3-1.25t-1.25-3q0-1.8 1.25-3.05t3-1.25q1.8 0 3 1.25M22.2-4.6q1.25 1.25 1.25 3.05 0 1.75-1.25 3-1.2 1.25-3 1.25-1.75 0-3-1.25t-1.25-3q0-1.8 1.25-3.05t3-1.25q1.8 0 3 1.25" fill="#826500" transform="translate(36.1 45.4)"/><path d="M21.8-14.85q2 2 2 4.8t-2 4.75q-1.95 1.95-4.75 1.95-2.75 0-4.75-1.95-1.95-1.95-1.95-4.75t1.95-4.8q2-1.95 4.75-1.95 2.8 0 4.75 1.95M13.95 7.45q2 2 2 4.8t-2 4.75Q12 18.95 9.2 18.95q-2.75 0-4.75-1.95-1.95-1.95-1.95-4.75t1.95-4.8q2-1.95 4.75-1.95 2.8 0 4.75 1.95" fill="#826500" transform="translate(36.1 45.4)"/><path d="M5.85-13.7q1.95 1.95 2 4.75-.05 2.75-2 4.7T1.15-2.3q-2.8 0-4.75-1.95t-1.9-4.7q-.05-2.8 1.9-4.75t4.75-1.95q2.75 0 4.7 1.95" fill="#997600" transform="translate(36.1 45.4)"/><path d="M31.2-14.4q2.45 2.45 2.45 5.9T31.2-2.65Q28.8-.2 25.35-.2t-5.9-2.45q-2.4-2.4-2.4-5.85t2.4-5.9q2.45-2.4 5.9-2.4t5.85 2.4M33.65 3q2.45 2.45 2.45 5.9t-2.45 5.85q-2.4 2.45-5.85 2.45t-5.9-2.45q-2.4-2.4-2.4-5.85T21.9 3Q24.35.6 27.8.6T33.65 3" fill="#826500" transform="translate(36.1 45.4)"/><path d="M25.55 16.35Q28 18.8 28 22.25t-2.45 5.85q-2.4 2.45-5.85 2.45t-5.9-2.45q-2.4-2.4-2.4-5.85t2.4-5.9q2.45-2.4 5.9-2.4t5.85 2.4" fill="#826500" transform="translate(36.1 45.4)"/><path d="M15.75 24.35q2.45 2.45 2.45 5.9t-2.45 5.85q-2.4 2.45-5.85 2.45T4 36.1q-2.4-2.4-2.4-5.85t2.4-5.9q2.45-2.4 5.9-2.4t5.85 2.4" fill="#826500" transform="translate(36.1 45.4)"/><path d="M19.45 18.35q1.95 1.95 2 4.75-.05 2.75-2 4.7t-4.7 1.95q-2.8 0-4.75-1.95t-1.9-4.7q-.05-2.8 1.9-4.75t4.75-1.95q2.75 0 4.7 1.95M7.25 31.2q1.95 1.95 2 4.75-.05 2.75-2 4.7t-4.7 1.95q-2.8 0-4.75-1.95t-1.9-4.7q-.05-2.8 1.9-4.75t4.75-1.95q2.75 0 4.7 1.95M-11.15 23.9q1.95 1.95 2 4.75-.05 2.75-2 4.7t-4.7 1.95q-2.8 0-4.75-1.95t-1.9-4.7q-.05-2.8 1.9-4.75t4.75-1.95q2.75 0 4.7 1.95M-19.7 10.55q1.95 1.95 2 4.75-.05 2.75-2 4.7t-4.7 1.95q-2.8 0-4.75-1.95t-1.9-4.7q-.05-2.8 1.9-4.75t4.75-1.95q2.75 0 4.7 1.95" fill="#997600" transform="translate(36.1 45.4)"/><path d="M-2.95 21.75Q-1 23.7-1 26.5q0 2.75-1.95 4.7t-4.7 1.95q-2.8 0-4.75-1.95t-1.95-4.7q0-2.8 1.95-4.75t4.75-1.95q2.75 0 4.7 1.95M11.85 27.95q1.95 1.95 1.95 4.75 0 2.75-1.95 4.7t-4.7 1.95q-2.8 0-4.75-1.95T.45 32.7q0-2.8 1.95-4.75T7.15 26q2.75 0 4.7 1.95" fill="#826500" transform="translate(36.1 45.4)"/><path d="M17.35 22.95q2.45 2.45 2.45 5.9t-2.45 5.85q-2.4 2.45-5.85 2.45T5.6 34.7q-2.4-2.4-2.4-5.85t2.4-5.9q2.45-2.4 5.9-2.4t5.85 2.4" fill="#826500" transform="translate(36.1 45.4)"/></g><g id="k" transform="translate(41.7 57.75)"><use transform="translate(-41.7 -57.75)" width="83.45" height="115.55" xlink:href="#m"/><use transform="matrix(.7581 0 0 .4073 -4.5 43.25)" width="24.8" height="24.8" xlink:href="#e"/><use transform="rotate(45 -51.313 -18.458) scale(.4336 .4073)" width="24.8" height="24.8" xlink:href="#e"/><use transform="translate(-31.8 27.9)" width="41.6" height="16.8" xlink:href="#n"/></g><g id="m"><path d="m33.45-32.85-.65 3.15Q30-19.5 17.25-11.5 22-8.95 26.1-4.7 36.65 6.25 36.8 21.55l-.25 5.2q-1.3-.7-2.55-.35-2 .5-2.75 3.4-.75 3 .25 6.65.45 1.75 1.2 3.15-1.85 3.4-4.6 6.15-8.8 8.9-21.95 11.1-13.2 2.2-19.7-.7l-8.5.9q-2.05-10.45 2.4-11.65Q5.15 45.75-1-.2q6.65-7.05 2.65-48.35l1.2 3.05q3.1 8.4 3.6 17.35Q6.9-19.65 5-10.7q9.7-.9 19.35-36.85v3.1q-.2 7.75-2.35 14.8-1.85 5.85-5 11.25 5.7 1.45 16.45-14.45m-31 31.4 1.7-5.65.85-3.6-.85 3.6-1.7 5.65M7.7-6.5l3.3-3.6q3.45-4 6-8.3-2.55 4.3-6 8.3L7.7-6.5m6.35-3.15 3.2-1.85-3.2 1.85m-18.1 65.8h-9.5 9.5" fill="url(#o)" fill-rule="evenodd" transform="translate(41.7 57.75)"/><path d="m22-29.65 2.25-2.45q10.35-8.9 9.2-.75Q22.7-16.95 17-18.4q3.15-5.4 5-11.25" fill="url(#p)" fill-rule="evenodd" transform="translate(41.7 57.75)"/><path d="M6.45-28.15Q8.8-38.6 13.45-49q10.65-18.2 10.9 1.45Q14.7-11.6 5-10.7q1.9-8.95 1.45-17.45" fill="url(#q)" fill-rule="evenodd" transform="translate(41.7 57.75)"/><path d="M-33.75 33.25q-.85-2.5-1.25-5.2-.5-2.75-.55-5.65v-.6l.1-3.45q-3.05-.35-6.1 6.2l-.15-.05.15-2.1.25-1.15q.45-1.5 1.3-3.05l.9-1.45 1.4-1.65q.95-1 2.1-1.65l.9-.45 1-3.65q2.55-7.5 8.55-13.7 8.45-8.8 19.7-10.65-3.05-13.75-2.8-29.35 1.6-14.55 5.3-11.95-5.85 14.2.25 51.35l-1.8-6.15Q-40 .4-27.85 41.7q-3.3-3.05-5.9-8.45M-5.45-15l.95 3.9-.95-3.9M-34.7 13q-.6 2.6-.75 5.35.15-2.75.75-5.35" fill="#d2c286" fill-rule="evenodd" transform="translate(41.7 57.75)"/><path d="M-22.05 57.05q-4.25-1.45-3.15-9.4V43.7q-1.4-.8-2.65-2Q-40 .4-4.5-11.1l1.8 6.15Q-8.8-42.1-2.95-56.3q2 1.4 4.6 7.75Q5.65-7.25-1-.2q6.15 45.95-18.65 45.6-4.45 1.2-2.4 11.65" fill="url(#r)" fill-rule="evenodd" transform="translate(41.7 57.75)"/><path d="m34.2 41.8-1.5-2.2q-.75-1.4-1.2-3.15-1-3.65-.25-6.65.75-2.9 2.75-3.4 8.4 13.4.2 15.4m-75.6-15.25-.3-1.7v-.35l.15.05q3.05-6.55 6.1-6.2l-.1 3.45v.6q-2.35 3.75-5.85 4.15m-.3-1.7.15-.3-.15.3" fill="#d3a800" fill-rule="evenodd" transform="translate(41.7 57.75)"/><path d="M36.55 26.75 38.1 28q2.1 2.2 3.1 5.85.95 3.65.25 6.55-.75 3-2.75 3.55t-4.1-1.7l-.4-.45q8.2-2-.2-15.4 1.25-.35 2.55.35m-61.75 20.9q-6.05-6.45-8.55-14.4 2.6 5.4 5.9 8.45 1.25 1.2 2.65 2v3.95m-9.8-19.6-.35.2q-2.65 1.55-4.5.45-1.15-.7-1.55-2.15 3.5-.4 5.85-4.15.05 2.9.55 5.65" fill="#a80" fill-rule="evenodd" transform="translate(41.7 57.75)"/><path d="m.15 82.3-.15.3" fill="none" stroke="#00d300" stroke-linecap="round" stroke-linejoin="round" stroke-width=".05"/><path d="m63.7 28.1 2.25-2.45q10.35-8.9 9.2-.75l-.65 3.15q-2.8 10.2-15.55 18.2 4.75 2.55 8.85 6.8Q78.35 64 78.5 79.3l-.25 5.2 1.55 1.25q2.1 2.2 3.1 5.85.95 3.65.25 6.55-.75 3-2.75 3.55t-4.1-1.7l-.4-.45-1.5-2.2q-1.85 3.4-4.6 6.15-8.8 8.9-21.95 11.1-13.2 2.2-19.7-.7l-8.5.9q-4.25-1.45-3.15-9.4-6.05-6.45-8.55-14.4-.85-2.5-1.25-5.2l-.35.2q-2.65 1.55-4.5.45Q.7 85.75.3 84.3L0 82.6v-.35l.15-2.1L.4 79q.45-1.5 1.3-3.05l.9-1.45L4 72.85q.95-1 2.1-1.65l.9-.45 1-3.65q2.55-7.5 8.55-13.7 8.45-8.8 19.7-10.65Q33.2 29 33.45 13.4q1.6-14.55 5.3-11.95 2 1.4 4.6 7.75l1.2 3.05q3.1 8.4 3.6 17.35 2.35-10.45 7-20.85 10.65-18.2 10.9 1.45v3.1q-.2 7.75-2.35 14.8-1.85 5.85-5 11.25-2.55 4.3-6 8.3l-3.3 3.6m9.55-5-3.2 1.85m-9.05-1.05-.85 3.6-1.7 5.65m4-26.7q.45 8.5-1.45 17.45m27.7 50.3q-.75-1.4-1.2-3.15-1-3.65-.25-6.65.75-2.9 2.75-3.4 1.25-.35 2.55.35M37.2 46.65l-.95-3.9M39 52.8l-1.8-6.15m-20.7 54.8v3.95M6.25 76.1q.15-2.75.75-5.35m-.85 9.4v-.6l.1-3.45m.45 9.7q-.5-2.75-.55-5.65m22 33.75h9.5" fill="none" stroke="#000" stroke-linecap="round" stroke-linejoin="round" stroke-opacity=".263" stroke-width=".05"/></g><g id="l" fill-rule="evenodd"><path d="M25.55 18.95Q28 21.4 28 24.85t-2.45 5.85q-2.4 2.45-5.85 2.45t-5.9-2.45q-2.4-2.4-2.4-5.85t2.4-5.9q2.45-2.4 5.9-2.4t5.85 2.4" fill="#826500" transform="translate(28.25 16.7)"/><path d="M21.25 12.35q1.95 1.95 2 4.75-.05 2.75-2 4.7t-4.7 1.95q-2.8 0-4.75-1.95t-1.9-4.7q-.05-2.8 1.9-4.75t4.75-1.95q2.75 0 4.7 1.95M23.9-15.35q1.35 1.35 1.35 3.3t-1.35 3.3Q22.5-7.4 20.6-7.4q-1.95 0-3.3-1.35t-1.35-3.3 1.35-3.3 3.3-1.35q1.9 0 3.3 1.35M-20.3-9.1q1.35 1.35 1.35 3.3t-1.35 3.3q-1.4 1.35-3.3 1.35-1.95 0-3.3-1.35t-1.35-3.3 1.35-3.3 3.3-1.35q1.9 0 3.3 1.35M29.65 1.15Q31 2.5 31 4.45t-1.35 3.3q-1.4 1.35-3.3 1.35-1.95 0-3.3-1.35t-1.35-3.3 1.35-3.3 3.3-1.35q1.9 0 3.3 1.35M9.05 28.6q1.35 1.35 1.35 3.3t-1.35 3.3q-1.4 1.35-3.3 1.35-1.95 0-3.3-1.35T1.1 31.9t1.35-3.3 3.3-1.35q1.9 0 3.3 1.35" fill="#997600" transform="translate(28.25 16.7)"/></g><g id="d"><path d="M8-49.5q11.15 7.9 18.3 17.8 7.9 11 10.95 24.5 3.45 15.5.4 34.3M33.55 38q-1.55 5.65-7.3 9.95m-7.4 6.1-1.75 1.1m-37.75-95-5.15 6.2m-15.8 42q-.4 9.4 1.15 17.15 1.9 9.65 6.75 16.7m7 7q6.5 5.6 12.7 7.3M.85-51.55l-4.3.3" fill="none" stroke="url(#u)" stroke-linecap="round" stroke-linejoin="round" stroke-width="3" transform="translate(43.2 53.05)"/><path d="M-10.05-31.5q8.5 0 15.75 10.25Q13-11 14.7 3.55t-3.2 24.8Q6.65 38.6-1.9 38.65q-8.55-.05-15.85-10.3Q-25 18.1-26.7 3.55t3.15-24.8q4.9-10.25 13.5-10.25M.25-47.1q44.7 24.25 31.2 78.55-7.2 23.05-28.15 26.7l-.1.05q-10.5-1.85-14.65-4.8-15.9-5.25-23.1-28.55 31.35 31.05 47.9 12.1 26.4-47.25-24.9-81.2 3.75-3.2 11.8-2.85" fill="url(#v)" fill-rule="evenodd" transform="translate(43.2 53.05)"/></g><g id="f" fill-rule="evenodd"><path d="M3.8-58.6q13.4 2.65 27.45 23.05 14 20.35 14.35 47.5.35 25.05-13.15 40.4l-2.3 2.5Q17.5 67.45 2.1 67.55l-7.8-.75Q-25.8 63-38.4 46.95q-12.65-16.05-7.2-44.2l1.3-6.15q5.8-24 19.4-39.95l6.2-6.5q11.85-10.9 22.5-8.75" fill="url(#w)" transform="translate(47.25 58.95)"/><path d="M13.95-43.55q4.55 2.6 8.55 8.35 4.05 5.75 5.2 11.3 1.05 5.55-1.4 7.6-2.5 2-7.05-.6-4.6-2.6-8.65-8.35t-5.1-11.3q-1.15-5.5 1.3-7.55 2.5-2.05 7.15.55" fill="#fff" fill-opacity=".498" transform="translate(47.25 58.95)"/><path d="M15.75-39.85q2.75 1.6 5.2 5.1t3.15 6.9q.65 3.35-.85 4.6T19-23.6q-2.85-1.6-5.3-5.1t-3.1-6.85q-.7-3.35.8-4.6t4.35.3M26.75-11.4q5.5-.6 7.75 4.9 2.2 5.4 2.1 26.5-.1 21.05-17.05 29.75Q31.4 35.1 24.45 4.2 22-9.45 26.75-11.4" fill="#fff" fill-opacity=".498" transform="translate(47.25 58.95)"/></g><radialGradient id="t" cx="0" cy="0" r="819.2" gradientTransform="translate(.7 -.65) scale(.0167)" gradientUnits="userSpaceOnUse"><stop stop-color="#c18d5d" offset="0"/><stop stop-color="#c19393" stop-opacity=".161" offset="1"/></radialGradient><radialGradient id="w" cx="0" cy="0" r="819.2" gradientTransform="matrix(.111 0 0 .111 10 31.15)" gradientUnits="userSpaceOnUse"><stop stop-color="#e00" stop-opacity=".114" offset="0"/><stop stop-color="#d39c00" stop-opacity=".102" offset="1"/></radialGradient><path d="M8.75-8.8Q12.4-5.15 12.4 0T8.75 8.75Q5.15 12.4 0 12.4t-8.8-3.65q-3.6-3.6-3.6-8.75t3.6-8.8q3.65-3.6 8.8-3.6t8.75 3.6" fill="url(#t)" fill-rule="evenodd" transform="translate(12.4 12.4)" id="s"/><path d="M-22.65 35.4q-4.6-.6-8.65-7m26.6 14q7.55 3.6 14 0" fill="none" stroke="#000" stroke-linecap="round" stroke-linejoin="round" stroke-opacity=".361" transform="translate(31.8 -27.9)" id="n"/><use width="24.8" height="24.8" xlink:href="#s" id="e"/></defs></svg>