<svg viewBox="0 0 72.8 96.9" xmlns="http://www.w3.org/2000/svg" xmlns:xlink="http://www.w3.org/1999/xlink"><use width="72.8" height="96.9" xlink:href="#a"/><defs><g id="a"><path d="M268.65 243.65q-9-2.45-15.85-11.85-4.5-6.15-6.8-13.55 18.95 15.25 42.1 13.05-7.1 7.4-19.45 12.35" fill="#eadfb3" fill-rule="evenodd" transform="translate(-238.55 -152)"/><path d="M246 218.25q-2.05-6.6-2.35-14.15l-.05-2.9q-.05-10.4 7.15-24.4 1.75-3.45 3.75-6.2 5.1-7.05 9.4-10.1 5.1-3.8 11.25-3.75l3 .25q4.4.65 8.25 3.5 2.2 1.6 4.65 4.25 2.2 2.45 4.7 5.85 2.15 3 3.8 6.2l2.85 6.15q4.3 10.2 4.3 18.25 0 8.6-2.15 16-2.3 8-7.1 14.6-9.25 12.65-22.3 12.7l-6.5-.85Q281 238.7 288.1 231.3q-23.15 2.2-42.1-13.05" fill="#db6f02" fill-rule="evenodd" transform="translate(-238.55 -152)"/><path d="M296.9 212.05q5.7 2.3 8.2 5.65 2.55 3.4 1.05 6.75-1.6 3.6-7.6 6.3.85-10-32.4-21 17.95-2.9 30.75 2.3" fill="#a63200" fill-rule="evenodd" transform="translate(-238.55 -152)"/><path d="M292.4 208.65q-.05 9.4-4.95 16.1-4.75 6.8-11.5 6.8-6.8 0-11.7-6.8-4.75-6.7-4.75-16.1 0-9.45 4.75-16.25 4.9-6.65 11.7-6.6 6.75-.05 11.5 6.6 4.9 6.8 4.95 16.25" fill="#ff814a" fill-opacity=".8" fill-rule="evenodd" transform="translate(-238.55 -152)"/><path d="M296.2 209.65q0 12.3-6.3 21.1-6.3 8.75-15.15 8.75t-15.15-8.75q-6.3-8.8-6.3-21.1 0-12.35 6.3-21.1t15.15-8.75 15.15 8.75 6.3 21.1m-3.8-1q-.05-9.45-4.95-16.25-4.75-6.65-11.5-6.6-6.8-.05-11.7 6.6-4.75 6.8-4.75 16.25 0 9.4 4.75 16.1 4.9 6.8 11.7 6.8 6.75 0 11.5-6.8 4.9-6.7 4.95-16.1" fill="#f38e62" fill-opacity=".4" fill-rule="evenodd" transform="translate(-238.55 -152)"/><path d="M254.55 208.15q1.45 1.5 1.45 3.55t-1.45 3.55q-1.5 1.45-3.55 1.45t-3.55-1.45q-1.45-1.5-1.45-3.55t1.45-3.55q1.5-1.45 3.55-1.45t3.55 1.45" fill="#ffc848" fill-rule="evenodd" transform="translate(-238.55 -152)"/><path d="M255.25 207.1q1.9 1.9 1.9 4.5t-1.9 4.5q-1.85 1.9-4.45 1.9-2.65 0-4.55-1.9-1.85-1.9-1.85-4.5t1.85-4.5q1.9-1.9 4.55-1.85 2.6-.05 4.45 1.85m-.7 1.05q-1.5-1.45-3.55-1.45t-3.55 1.45q-1.45 1.5-1.45 3.55t1.45 3.55q1.5 1.45 3.55 1.45t3.55-1.45q1.45-1.5 1.45-3.55t-1.45-3.55" fill="#ffd571" fill-opacity=".4" fill-rule="evenodd" transform="translate(-238.55 -152)"/><path d="M303.9 176.1q5.7 6.5-8.85 12 8.5-6.25 6.65-12.5l2.2.5" fill="#a63200" fill-rule="evenodd" transform="translate(-238.55 -152)"/><path d="M286.4 169.95q3.8 0 6.5 2.7 2.75 2.7 2.75 6.55 0 3.8-2.75 6.5-2.7 2.75-6.5 2.8-3.85-.05-6.6-2.8-2.75-2.7-2.7-6.5-.05-3.85 2.7-6.55t6.6-2.7" fill="#eadfb3" fill-rule="evenodd" transform="translate(-238.55 -152)"/><path d="M286.4 169.95q-3.85 0-6.6 2.7t-2.7 6.55q-.05 3.8 2.7 6.5 2.75 2.75 6.6 2.8 3.8-.05 6.5-2.8 2.75-2.7 2.75-6.5 0-3.85-2.75-6.55-2.7-2.7-6.5-2.7m-.65-2.45q4.95 0 8.55 3.55 3.55 3.55 3.55 8.55t-3.55 8.55q-3.6 3.55-8.55 3.55-5.05 0-8.6-3.55t-3.55-8.55 3.55-8.55 8.6-3.55" fill="#eadfb3" fill-opacity=".4" fill-rule="evenodd" transform="translate(-238.55 -152)"/><path d="M250.2 172.7q3.65 9.6 22.15 14.25-32.95 6.35-28.6-4.4l6.45-9.85" fill="#a63200" fill-rule="evenodd" transform="translate(-238.55 -152)"/><path d="M279.45 161.6q1.75 1.75 1.75 4.2t-1.75 4.2-4.2 1.75-4.2-1.75-1.65-4.2q-.1-2.45 1.65-4.2t4.2-1.75 4.2 1.75" fill="#f9e2b5" fill-rule="evenodd" transform="translate(-238.55 -152)"/><path d="M282.55 166.1q0 3.1-2.2 5.35-2.25 2.25-5.5 2.35-3.2-.1-5.45-2.35t-2.25-5.35q0-3.2 2.25-5.45 2.25-2.35 5.45-2.35 3.25 0 5.5 2.35 2.2 2.25 2.2 5.45m-3.1-4.5q-1.75-1.75-4.2-1.75t-4.2 1.75-1.65 4.2q-.1 2.45 1.65 4.2t4.2 1.75 4.2-1.75 1.75-4.2-1.75-4.2" fill="#f9e2b5" fill-opacity=".4" fill-rule="evenodd" transform="translate(-238.55 -152)"/><path d="m289.35 157.85 1 .85.7.6.25.25.6.55q3.05 3.05 6.45 7.55 2.5 3.3 4.35 6.8 2.35 4.4 4.05 8.5 4.1 10.1 4.1 18.15v1.9l-1.8 13.3-.5 1.9-6.45 13.85-1.8 2.5q-10.5 13.85-25.35 13.85-14.9 0-25.4-13.85-4.1-5.35-6.55-11.6l3.1-4.4q2.3 7.2 6.7 13.25 6.85 9.4 15.85 11.85l6.5.85q13.05-.05 22.3-12.7t9.25-30.6q0-10.4-7.15-24.4-1.65-3.2-3.8-6.2-2.5-3.4-4.7-5.85-2.1-2.25-3.95-3.7l2.25-3.2" fill="#734731" fill-rule="evenodd" transform="translate(-238.55 -152)"/><path d="M243 222.95q-3.35-8.35-3.85-18.3l-.05-.55v-1.2l-.05-1.8q0-11.35 8.15-26.65 2-3.75 4.3-6.8 5.8-7.65 10.65-11 5.85-4.15 12.8-4.15t12.85 4.15l1.55 1.2-2.25 3.2-.7-.55q-3.85-2.85-8.25-3.5l-3-.25q-6.15-.05-11.25 3.75-4.3 3.05-9.4 10.1-2 2.75-3.75 6.2-7.2 14-7.15 24.4l.05 2.9q.3 7.55 2.35 14.15l.1.3-3.1 4.4" fill="#a96747" fill-rule="evenodd" transform="translate(-238.55 -152)"/><path d="m289.35 157.85 1 .85m-51.25 44.2-.05-1.8q0-11.35 8.15-26.65 2-3.75 4.3-6.8 5.8-7.65 10.65-11 5.85-4.15 12.8-4.15t12.85 4.15l1.55 1.2M291.9 160.1q3.05 3.05 6.45 7.55 2.5 3.3 4.35 6.8 2.35 4.4 4.05 8.5 4.1 10.1 4.1 18.15v1.9l-1.8 13.3-.2.9-.3 1-6.45 13.85-1.8 2.5q-10.5 13.85-25.35 13.85-14.9 0-25.4-13.85-4.1-5.35-6.55-11.6-3.35-8.35-3.85-18.3" fill="none" stroke="#feac25" stroke-linecap="round" stroke-linejoin="round" transform="translate(-238.55 -152)"/><path d="M287.45 175.3q0 2.05-1.45 3.5-1.45 1.5-3.5 1.55-2.05-.05-3.5-1.55-1.4-1.45-1.4-3.5 0-2.1 1.4-3.55 1.45-1.55 3.5-1.55t3.5 1.55q1.45 1.45 1.45 3.55m-2-2.95q-1.15-1.15-2.7-1.15t-2.65 1.15q-1.15 1.15-1.1 2.75-.05 1.6 1.1 2.75 1.1 1.15 2.65 1.15t2.7-1.15q1.1-1.15 1.1-2.75t-1.1-2.75" fill="#f9e2b5" fill-opacity=".4" fill-rule="evenodd" transform="translate(-238.55 -152)"/><path d="M285.45 172.35q1.1 1.15 1.1 2.75t-1.1 2.75q-1.15 1.15-2.7 1.15t-2.65-1.15q-1.15-1.15-1.1-2.75-.05-1.6 1.1-2.75 1.1-1.15 2.65-1.15t2.7 1.15" fill="#f4eed8" fill-rule="evenodd" transform="translate(-238.55 -152)"/><path d="M265.35 213.6q2.15 2.15 2.15 5.2t-2.15 5.25q-2.2 2.2-5.25 2.2t-5.25-2.2-2.1-5.25q-.1-3.05 2.1-5.2 2.2-2.2 5.25-2.2t5.25 2.2" fill="#f9e2b5" fill-rule="evenodd" transform="translate(-238.55 -152)"/><path d="M269.25 219.2q0 3.9-2.85 6.7-2.8 2.8-6.8 2.9-4.05-.1-6.85-2.9t-2.8-6.7q0-4.05 2.8-6.85 2.8-2.9 6.85-2.9 4 0 6.8 2.9 2.85 2.8 2.85 6.85m-3.9-5.6q-2.2-2.2-5.25-2.2t-5.25 2.2q-2.2 2.15-2.1 5.2-.1 3.05 2.1 5.25t5.25 2.2 5.25-2.2q2.15-2.2 2.15-5.25t-2.15-5.2" fill="#f9e2b5" fill-opacity=".4" fill-rule="evenodd" transform="translate(-238.55 -152)"/><path d="M285.6 240.8q-4.7 2.25-11.15 2.15-6.5-.1-10.8-2.25-4.35-2.15-4.3-2.9l4.5.25q4.5 1 10.95 1.05 6.4 0 10.95-1 4.55-1.05 4.55-.3t-4.7 3" fill="#c16202" fill-rule="evenodd" transform="translate(-238.55 -152)"/><path d="M269.4 185.5q-.9-.9-2.15-.9t-2.15.9-.85 2.15q-.05 1.25.85 2.15t2.15.9 2.15-.9.9-2.15-.9-2.15m1.6 2.3q0 1.6-1.15 2.75t-2.8 1.2q-1.65-.05-2.8-1.2t-1.15-2.75q0-1.65 1.15-2.8 1.15-1.2 2.8-1.2t2.8 1.2q1.15 1.15 1.15 2.8" fill="#f9e2b5" fill-opacity=".4" fill-rule="evenodd" transform="translate(-238.55 -152)"/><path d="M269.4 185.5q.9.9.9 2.15t-.9 2.15-2.15.9-2.15-.9-.85-2.15q-.05-1.25.85-2.15t2.15-.9 2.15.9" fill="#f4eed8" fill-rule="evenodd" transform="translate(-238.55 -152)"/><path d="M284.15 161.05q.95 1 .95 2.35 0 1.3-.95 2.3-.95.95-2.3.95t-2.3-.95q-.95-1-.95-2.3 0-1.35.95-2.35.95-.95 2.3-.95t2.3.95" fill="#ffc848" fill-rule="evenodd" transform="translate(-238.55 -152)"/><path d="M284.6 160.4q1.25 1.2 1.25 2.9t-1.25 2.95q-1.2 1.25-2.9 1.25t-2.95-1.25q-1.2-1.25-1.2-2.95t1.2-2.9q1.25-1.25 2.95-1.25t2.9 1.25m-.45.65q-.95-.95-2.3-.95t-2.3.95q-.95 1-.95 2.35 0 1.3.95 2.3.95.95 2.3.95t2.3-.95q.95-1 .95-2.3 0-1.35-.95-2.35" fill="#ffd571" fill-opacity=".4" fill-rule="evenodd" transform="translate(-238.55 -152)"/><path d="M274.8 158.45q7-1 7.75 5.65.8 6.6-11.9 13.45-12.8 6.8-16.5 16.95-3.7 10.1-6.55 10.55-2.9.5-2.25-7.25.6-7.7 5.4-17.25 4.8-9.6 10.95-15.35 6.1-5.75 13.1-6.75" fill="#fff5ae" fill-opacity=".4" fill-rule="evenodd" transform="translate(-238.55 -152)"/><path d="M308.7 217.3q-5.35 15.5-11.3 20.25-7.15 5.75-19.6 1.8-13.15-4.15-19.3-15.9 17 13.85 37.2 6.85 8.7-3 13-13m-54.3-43.5q-5.55 2.7-9.4 6l-.9.8.35-.85q4.9-11.15 14.55-20 18.85-.75 32 4.2-23.25 3.25-36.6 9.85m38.9 67.55q-6.2 5.95-15.5 6.75-9.75-3.2-14.6-16.4 12.4 11.9 30.1 9.65M240.05 194.25l1.25-6.45q2.95 7.6 10.15 12 9.7 5.9 28.55 7.25-29.15 2.8-39.95-12.8" fill="#734731" fill-rule="evenodd" transform="translate(-238.55 -152)"/><path d="M302.45 200.2q-7.95 9.85-19.05 14.5-9.95 4.15-20.2 3.45-9.8-.75-16.45-5.6-6.9-5.05-7.65-12.65l1.1-8.2q1.65 6.05 7.1 10.45 5.55 4.6 13.7 6.3 19.05 3.95 41.45-8.25m1.5-24.1h-.05l-2.2-.5q-16.7-3.65-42.3.05 25.85-13.45 41.4-5.25l3.15 5.7" fill="#734731" fill-rule="evenodd" transform="translate(-238.55 -152)"/></g></defs></svg>