<svg width="61.27" height="54.31" viewBox="193.55 218.8 60.924 53.807" xmlns="http://www.w3.org/2000/svg" xmlns:xlink="http://www.w3.org/1999/xlink"><defs><g id="a"><path d="m198.5 252.05.05-.1q2.2-1.9 5.2-2.4 1.55.25 2.9.9 1.2.6 2.3 1.5 3.05 3.5 4 7.65-2.7.9-1.9 4.35l-.05.1-.8.35q-1 .65-2.2.95l-5 .35-.15-.2-.05-.7-.45-.2v.05l-.15.2-1-1 .1-.05q1.2-.95 1.05-2.5-1.45-1.05-3.05-.4l-.25-.6q-.95-2.65-.85-5.75l.3-2.5m9.45-9.1q2.4-10 9.85-18.35 5.35-4.6 12.65-5.8 7.3 1.2 12.65 5.8l.2.2q.55 2.95.65 6 .2 7.5-2.1 13.8l-.55 1.5q-3.95-1.5-7.5.9-.4 3.8 2.55 6l.3.2q-1.15 1.25-2.5 2.35l-.25-.5-.1-.05-1 .4q-.3.9-.2 1.75l-.4.45q-5.95.75-12.15-.8-2.9-.7-5.4-2.25-.85-.55-1.85-.95l-.15-.25q1.85-8.25-4.7-10.4M218.2 240q1.75 6.5 6 1.1 2.1-2.6-1-3.9l.2-.4q-3.35-.3-5 2.8l-.2.4m22.2-8.2q-1.5-1.2-3.6-1.4l1.6-.2h-3.6q-3 3.5-3.6 8.4l.8.45-2.8 3.35-.2 1 4.25-3.85.15.05-.05 1.2q-.15.9.45 1.4.45 0 .65-.4l.3-.8.05-.2q.2-.4.3.15l.35.6.55.25.65-.75.15-.05h.6l.2-1.4q3.5-1.9 3.2-6l-.4-1.8m-12.2-4.6-1.95-.5q-.75.8-.65 2.1v.2q1 .7 2.4.4.45-.65.35-1.6l-.15-.6m-1.95-.5.35-.3-.8.2.45.1m13.35 17.5 1.4-.2q.75-.7.35-1.7l-.35-.3-.6.2q-1.6-.05-1.05 1.55l.25.45m-39.95 15.1-.25-.1-.15.15q-.15.4.15.7l.6.05.1-.15q.2-.7-.45-.65m2.3-5h-1.45l.65.1q-.9.05-1.5.55-.15.35-.15.75-.15 1.7 1.3 2.5l.1.6h.3l.25.3.25-.1.15-.25q0-.2.1-.05l.05.1.1.3.25.2.2-.6v-.5h.05l1.75 1.6-.1-.45-1.15-1.35.35-.2q-.25-2.05-1.5-3.5m29.05-2.1h-1.4l-.2 1.4 1.6.2q.8-.4.5-1.1l-.5-.5m-27.7 11.45q-.15.3.2.45l.65-.05-.05-.6h-.6l-.2.2m3.75-6.6h-.4l.05.15q-1.25.55-.4 1.65 1 1.3 1.7.9.45-.25.75-1.4l-.05-.15q-.6-1.1-1.65-1.15m-2.4-4-.05.25.15.65 1-.15v-.1q.05-.55-.25-.85l.15-.05-.35-.1.2.15-.85.2" fill="#fffdea"/><path d="m216.9 268.7-3.75-2.55q-1.2 2.65-3.85 4.15.55-1.4-.05-2.85-.65-1.5-2.35-1.25l-.1.1q-.3.1-.45.45l-.35.5v.5l.3.2.4.9-1.55.4-.05-.75.2-.55v-.2l-.4-.4-2.35-.15q-2.05-.1-3.3 1.5l-.5-.15-.3-.15-.1-.3.1-.5.05-.1.65-.1.15-.15.1-.25-.25-1.05q-.65-.05-1.25-.45l-.6-.2-.45-.6-.75-2.35q-.75-2.45-.9-4.95 1.1-2.85 3.3-5.35l-.3 2.5q-.1 3.1.85 5.75l.25.6q1.6-.65 3.05.4.15 1.55-1.05 2.5l-.1.05 1 1 .15-.2v-.05l.45.2.05.7.15.2 5-.35q1.2-.3 2.2-.95l.8-.35.05-.1q-.8-3.45 1.9-4.35-.95-4.15-4-7.65-1.1-.9-2.3-1.5.1-1.8.5-3.6l.25-1.25.55-2.65q6.55 2.15 4.7 10.4l.15.25q1 .4 1.85.95 2.5 1.55 5.4 2.25 6.2 1.55 12.15.8l.4-.45q-.1-.85.2-1.75l1-.4.1.05.25.5q1.35-1.1 2.5-2.35l-.3-.2q-2.95-2.2-2.55-6 3.55-2.4 7.5-.9l.55-1.5q2.3-6.3 2.1-13.8-.1-3.05-.65-6 5.25 6 8 12.85-.45 6.05-2.25 11.95l-1.85 5.6-1 1.4q-.75.05-1.45.5-1.5 1.05-3.15 1.1l-.6 2.6.25.55.45.3 1.5.35.2.2.2 1.2-.3.65-.65.45-1.25.3q-3.1-3.8-8-3.6-2.95-.55-5.8.4l-.8.8-.15.2-.05.4.6 1.4-.2 1.8-3.8-1 1-2.2.8-.4v-1.2l-.95-1.3L223 259l-.2-.2q-4.25-.5-5.8 3.05-1.45 3.45-.1 6.85m1.3-28.7.2-.4q1.65-3.1 5-2.8l-.2.4q3.1 1.3 1 3.9-4.25 5.4-6-1.1m19.6-7h-.8q-2.25.85-2.2 3.2v.4q.95.6 2.2.4h.8l1-1.8q.1-.85-.45-1.55l-.55-.65m-9.6-5.8.15.6q.1.95-.35 1.6-1.4.3-2.4-.4v-.2q-.1-1.3.65-2.1l1.95.5m12.2 4.6.4 1.8q.3 4.1-3.2 6l-.2 1.4h-.6l-.15.05-.65.75-.55-.25-.35-.6q-.1-.55-.3-.15l-.05.2-.3.8q-.2.4-.65.4-.6-.5-.45-1.4l.05-1.2-.15-.05-4.25 3.85.2-1 2.8-3.35-.8-.45q.6-4.9 3.6-8.4h3.6l-1.6.2q2.1.2 3.6 1.4m-14.15-5.1-.45-.1.8-.2-.35.3m13.35 17.5-.25-.45q-.55-1.6 1.05-1.55l.6-.2.35.3q.4 1-.35 1.7l-1.4.2m-37.65 12.6q0-1-.9-1.35h-.3l-.25.3q-.25.25-.2.65l.45.75h.3l.9-.2v-.15m0-2.5q1.25 1.45 1.5 3.5l-.35.2 1.15 1.35.1.45-1.75-1.6h-.05v.5l-.2.6-.25-.2-.1-.3-.05-.1q-.1-.15-.1.05l-.15.25-.25.1-.25-.3h-.3l-.1-.6q-1.45-.8-1.3-2.5 0-.4.15-.75.6-.5 1.5-.55l-.65-.1h1.45m-2.3 5q.65-.05.45.65l-.1.15-.6-.05q-.3-.3-.15-.7l.15-.15.25.1m31.35-7.1.5.5q.3.7-.5 1.1l-1.6-.2.2-1.4h1.4m-26.35.85.85-.2-.2-.15.35.1-.15.05q.3.3.25.85v.1l-1 .15-.15-.65.05-.25m2.4 4q1.05.05 1.65 1.15l.05.15q-.3 1.15-.75 1.4-.7.4-1.7-.9-.85-1.1.4-1.65l-.05-.15h.4m-3.75 6.6.2-.2h.6l.05.6-.65.05q-.35-.15-.2-.45m9.65-4.05.25 1.1.1.5.2 1.65q.1 1.7-.3 3.25l-.05.05.05-.05q.4-1.55.3-3.25l-.2-1.65-.1-.5-.25-1.1" fill="#d9cebf"/><path d="M251.3 237.65q1.5 3.8 2.2 7.95 1.7 6.85 0 13-3.65 7.95-12.65 11.65l-2.4.85q-4 1.2-8 1.2t-7.95-1.2l-2.45-.85q-1.7-.7-3.15-1.55-1.35-3.4.1-6.85 1.55-3.55 5.8-3.05l.2.2 1.05 1.1.95 1.3v1.2l-.8.4-1 2.2 3.8 1 .2-1.8-.6-1.4.05-.4.15-.2.8-.8q2.85-.95 5.8-.4 4.9-.2 8 3.6l1.25-.3.65-.45.3-.65-.2-1.2-.2-.2-1.5-.35-.45-.3-.25-.55.6-2.6q1.65-.05 3.15-1.1.7-.45 1.45-.5l1-1.4 1.85-5.6q1.8-5.9 2.25-11.95m-42 32.65-1.3.65-1 .35-3.25.5-3.3-.5-.95-.35q-3.7-1.55-5.2-4.85-.75-2.55 0-5.4.25-1.7.9-3.3.15 2.5.9 4.95l.75 2.35.45.6.6.2q.6.4 1.25.45l.25 1.05-.1.25-.15.15-.65.1-.05.1-.1.5.1.3.3.15.5.15q1.25-1.6 3.3-1.5l2.35.15.4.4v.2l-.2.55.05.75 1.55-.4-.4-.9-.3-.2v-.5l.35-.5q.15-.35.45-.45l.1-.1q1.7-.25 2.35 1.25.6 1.45.05 2.85m28.5-37.3.55.65q.55.7.45 1.55l-1 1.8h-.8q-1.25.2-2.2-.4v-.4q-.05-2.35 2.2-3.2h.8m-35.85 23.8v.15l-.9.2h-.3l-.45-.75q-.05-.4.2-.65l.25-.3h.3q.9.35.9 1.35" fill="#bca887"/><path d="M251.3 237.65q1.5 3.8 2.2 7.95 1.7 6.85 0 13-3.65 7.95-12.65 11.65l-2.4.85q-4 1.2-8 1.2t-7.95-1.2l-2.45-.85q-1.7-.7-3.15-1.55l-3.75-2.55q-1.2 2.65-3.85 4.15l-1.3.65-1 .35-3.25.5-3.3-.5-.95-.35q-3.7-1.55-5.2-4.85-.75-2.55 0-5.4.25-1.7.9-3.3 1.1-2.85 3.3-5.35l.05-.1q2.2-1.9 5.2-2.4 1.55.25 2.9.9.1-1.8.5-3.6l.25-1.25.55-2.65q2.4-10 9.85-18.35 5.35-4.6 12.65-5.8 7.3 1.2 12.65 5.8l.2.2q5.25 6 8 12.85m-38.35 21.95q-.95-4.15-4-7.65-1.1-.9-2.3-1.5m6.5 15.7.05-.05q.4-1.55.3-3.25l-.2-1.65-.1-.5-.25-1.1" fill="none" stroke="#5a451b" stroke-width=".5"/></g></defs><use width="100%" height="100%" xlink:href="#a" transform="translate(-.125 .156)"/></svg>