<svg viewBox="0 0 38.203 45.522" xmlns="http://www.w3.org/2000/svg" xmlns:xlink="http://www.w3.org/1999/xlink"><g transform="translate(-255.6 -177.48)"><use transform="translate(255.6 195.55)" width="22.35" height="27.45" xlink:href="#a"/><use transform="matrix(.0994 .1101 -.1101 .0994 289.5 185.25)" width="5.75" height="99.05" xlink:href="#b"/><use transform="matrix(-.0994 -.1101 .1047 -.0945 268.3 205.5)" width="5.75" height="99.05" xlink:href="#b"/><use transform="matrix(-.1101 .0994 -.0994 -.1101 288.95 206.55)" width="5.75" height="99.05" xlink:href="#b"/><use transform="matrix(.1101 -.0994 .0945 .1047 268.65 185.35)" width="5.75" height="99.05" xlink:href="#b"/><use transform="rotate(2.975 -3423.772 5613.76) scale(.1484)" width="5.75" height="99.05" xlink:href="#b"/><use transform="matrix(-.1482 -.0075 .0072 -.1408 278.45 209.9)" width="5.75" height="99.05" xlink:href="#b"/><use transform="rotate(92.897 53.744 237.66) scale(.1484)" width="5.75" height="99.05" xlink:href="#b"/><use transform="matrix(.0075 -.1482 .1408 .0072 264.45 195.4)" width="5.75" height="99.05" xlink:href="#b"/><use transform="translate(271.1 187.85)" width="15.9" height="15.9" xlink:href="#c"/><use transform="matrix(-.0618 .1036 -.1036 -.0618 285.75 190.35)" width="134.8" height="48.9" xlink:href="#d"/><use transform="matrix(.1036 .0618 -.0618 .1036 273.55 189.1)" width="134.8" height="48.9" xlink:href="#d"/><use transform="matrix(-.1036 -.0618 .0618 -.1036 284.2 202.6)" width="134.8" height="48.9" xlink:href="#d"/><use transform="matrix(-.0295 -.117 .117 -.0295 277.85 204.5)" width="134.8" height="48.9" xlink:href="#d"/><use transform="matrix(-.117 .0295 -.0295 -.117 287.35 196.75)" width="134.8" height="48.9" xlink:href="#d"/><use transform="matrix(.1355 -.0475 .0018 .092 282.6 184.8)" width="5.75" height="99.05" xlink:href="#b"/><use transform="matrix(-.1355 .0475 -.0017 -.0874 283.75 202.75)" width="5.75" height="99.05" xlink:href="#b"/><use transform="matrix(-.0018 -.092 .1288 -.0451 270.15 198.9)" width="5.75" height="99.05" xlink:href="#b"/><use transform="matrix(.0946 -.0986 .0971 .0314 273.15 191)" width="5.75" height="99.05" xlink:href="#b"/><use transform="matrix(-.0946 .0986 -.0923 -.0299 292.85 196.65)" width="5.75" height="99.05" xlink:href="#b"/><use transform="matrix(-.0971 -.0314 .0899 -.0937 274.45 203.5)" width="5.75" height="99.05" xlink:href="#b"/><use transform="translate(276.8 188.05)" width="13.55" height="11.35" xlink:href="#e"/><use transform="matrix(.0337 .0601 -.1049 .0589 283.8 188.25)" width="134.8" height="48.9" xlink:href="#d"/><use transform="matrix(.1049 -.0589 .0337 .0601 275.6 196.25)" width="134.8" height="48.9" xlink:href="#d"/><use transform="matrix(-.1049 .0589 -.0337 -.0601 291.3 191.45)" width="134.8" height="48.9" xlink:href="#d"/><use transform="matrix(-.0981 -.0009 .0503 -.0842 288.8 196.05)" width="134.8" height="48.9" xlink:href="#d"/><use transform="matrix(-.0503 .0842 -.0981 -.0009 289.2 188.3)" width="134.8" height="48.9" xlink:href="#d"/><use transform="matrix(.0247 -.0968 .054 .0344 279.1 180.25)" width="5.75" height="99.05" xlink:href="#b"/><use transform="matrix(-.054 -.0344 .0234 -.092 282.45 192.9)" width="5.75" height="99.05" xlink:href="#b"/><use transform="matrix(-.0207 -.0928 .0556 -.0441 279 188.1)" width="5.75" height="99.05" xlink:href="#b"/><use transform="matrix(-.0556 .0441 -.0197 -.0882 286.8 192.2)" width="5.75" height="99.05" xlink:href="#b"/><use transform="translate(281.85 178.7)" width="5.4" height="8.8" xlink:href="#f"/><use transform="matrix(.0478 .0036 -.0063 .0835 281.55 180.85)" width="134.8" height="48.9" xlink:href="#d"/><use transform="matrix(.0063 -.0835 .0478 .0036 283 188.65)" width="134.8" height="48.9" xlink:href="#d"/><use transform="matrix(-.0063 .0835 -.0478 -.0036 286.3 177.75)" width="134.8" height="48.9" xlink:href="#d"/><use transform="matrix(-.0383 .0565 -.0294 -.0616 287.95 181)" width="134.8" height="48.9" xlink:href="#d"/><use transform="matrix(.0294 .0616 -.0383 .0565 283.65 177.75)" width="134.8" height="48.9" xlink:href="#d"/></g><defs><linearGradient id="g" x1="-819.2" x2="819.2" gradientTransform="matrix(0 -.0327 .0035 0 2.85 50.75)" gradientUnits="userSpaceOnUse"><stop stop-color="#f90" stop-opacity=".471" offset=".114"/><stop stop-color="#ff0" stop-opacity="0" offset="1"/></linearGradient><linearGradient id="h" x1="-819.2" x2="819.2" gradientTransform="matrix(-.0022 -.0115 .0036 -.0007 277.85 189.65)" gradientUnits="userSpaceOnUse"><stop stop-color="#ff0" stop-opacity="0" offset="0"/><stop stop-color="#f90" offset="1"/></linearGradient><linearGradient id="i" x1="-819.2" x2="819.2" gradientTransform="matrix(-.0115 .0022 -.0007 -.0036 272.9 197)" gradientUnits="userSpaceOnUse"><stop stop-color="#ff0" stop-opacity="0" offset="0"/><stop stop-color="#f90" offset="1"/></linearGradient><linearGradient id="j" x1="-819.2" x2="819.2" gradientTransform="matrix(-.0972 -.0055 .0017 -.0302 15.55 21.45)" gradientUnits="userSpaceOnUse"><stop stop-color="#ff0" stop-opacity="0" offset="0"/><stop stop-color="#f90" offset="1"/></linearGradient><linearGradient id="k" x1="-819.2" x2="819.2" gradientTransform="matrix(-.0092 -.0005 .0017 -.0025 278.65 193.4)" gradientUnits="userSpaceOnUse"><stop stop-color="#ff0" stop-opacity="0" offset="0"/><stop stop-color="#f90" offset="1"/></linearGradient><linearGradient id="l" x1="-819.2" x2="819.2" gradientTransform="matrix(-.0054 .0082 -.0029 -.0002 280.65 198.1)" gradientUnits="userSpaceOnUse"><stop stop-color="#ff0" stop-opacity="0" offset="0"/><stop stop-color="#f90" offset="1"/></linearGradient><linearGradient id="m" x1="-819.2" x2="819.2" gradientTransform="matrix(-.0039 .0052 -.0008 -.002 282.5 185.85)" gradientUnits="userSpaceOnUse"><stop stop-color="#ff0" stop-opacity="0" offset="0"/><stop stop-color="#f90" offset="1"/></linearGradient><linearGradient id="n" x1="-819.2" x2="819.2" gradientTransform="matrix(.0026 .0063 -.0012 .0016 286.05 186.5)" gradientUnits="userSpaceOnUse"><stop stop-color="#ff0" stop-opacity="0" offset="0"/><stop stop-color="#f90" offset="1"/></linearGradient><g id="a"><path d="m277.15 196.75.4-.7-.1.2-.4.75-.8 1.35-.55.85-.1.2-2.2 3.55-.3.55-.1.45.05-.45 1.8-3.05.85-1.25.55-.85.9-1.6" fill="#ffc" fill-rule="evenodd" transform="translate(-255.6 -195.55)"/><path d="M277.45 196.25q-1.95 4.65-4 7.35l-.3.3v.05l-.1.05H273v-.05l.1-.45.3-.55 2.2-3.55.1-.2.55-.85.8-1.35.4-.75" fill="#fefd8f" fill-rule="evenodd" transform="translate(-255.6 -195.55)"/><path d="m256.4 220.5.15-.15.85-.8 1.05-1 1.5-1.5.55-.6q4.7-4.8 5.8-7.2.1-.55 1.15-.6h.1q.35-1.85 5-5.75l.45-.35-.2.35q-.25.65.05.45-4 2.2-4.8 6l-.8.7.35-.6q-.4.45-.85.5l-.15-.05-.05-.05-.05.1-2.35 3.3-.2.1.1-.05-.05.05.1-.05.6-.35-1.8 2.65-.75 1.15-.4.65-1.05 1.6-.05.05q-.35.05.4-1.6l-.1.15.05-.15-.1.15-.55 1v.05q-.6 1.15-.3 1.45l-.65 1.05v-.05l-.05.05-.25-.25-.65-.35.5-1.05.1-.2.6-.95h.05l.1-.15.2-.25-1 1.1-.85 1.05-.55.2h-.5l-.5.1q-.15 0-.2.1" fill="#a86651" fill-rule="evenodd" transform="translate(-255.6 -195.55)"/><path d="M273 204q-3.9 2.2-4.65 5.95-.5.8-1.1.7.6.05 1.05-.7l.25-.95.35-.8q1.15-2.55 4.1-4.2h-.05l.1-.5 1.65-2.85.15-.2-1.8 3.05-.05.45v.05m-7.15 8.1-2.65 4.1-.45.7-.4.6-2.7 4.3v-.05l1.4-2.3 1.7-2.55.45-.7.5-.8.7-1 1.45-2.3m7.15-9.55.65-.6-.75 1.2-.05.5q-3.1 1.75-4.2 4.5l-.3.8-.15.65q-.65 1.05-1.5.55l-2.65 4.2-.65 1-.35.55-.4.55-.2.35-.4.65-1.3 1.95-1.2 2-.1-.15-.05-.1.65-1.05q-.3-.3.3-1.45v-.05l.55-1h.05l.1-.15q-.75 1.65-.4 1.6l.05-.05 1.05-1.6.4-.65.75-1.15 1.8-2.65-.6.35.05-.05 2.35-3.3.05-.1.05.05.15.05q.45-.05.85-.5l-.35.6.8-.7q.8-3.8 4.8-6-.3.2-.05-.45l.2-.35m-6.15 7.9v.05-.05m-2.8 2.85h.05l-.1.05.05-.05m-5.7 7.4-.25-.25-.25-.15h-.1l.4-.15.8-.65-.5 1.05-.1.15m.7-1.4.1-.25.5-.7-.6.95" fill="#8e5846" fill-rule="evenodd" transform="translate(-255.6 -195.55)"/><path d="m266.85 210.5-1 1.6-1.45 2.3-.7 1-.5.8-.45.7-1.7 2.55-1.4 2.3v.1l-.15.3-.5.3h-.3l-.25.05-.4-.05-.6-.2-.5-.25-.55-.5-.2-.4.7.4.1.05.5.15.35.05h.3q.55 0 .8-.3v-.05l.15-.3v-.2l.25.25.05-.05v.05l.05.1.1.15 1.2-2 1.3-1.95.4-.65.2-.35.4-.55.35-.55.65-1 2.65-4.2q.85.5 1.5-.55l.15-.65.3-.8q1.1-2.75 4.2-4.5l.05-.5.75-1.2.05-.1 1.1-1.4-.1.2-1.65 2.85-.1.5h.05q-2.95 1.65-4.1 4.2l-.35.8-.25.95q-.45.75-1.05.7l-.4-.2v.05m-2.7 2.75-.05.05h-.05l-.1.05.2-.1m-3.2 4.35h-.05l.1-.15-.05.15m-3.35 2.7.55-.2.85-1.05 1-1.1-.2.25-.1.15h-.05l-.5.7-.1.25-.1.2-.8.65-.4.15h.1l.25.15.25.25-.1.15-.15-.3-.4-.25h-.1" fill="#6f4335" fill-rule="evenodd" transform="translate(-255.6 -195.55)"/><path d="m259.6 221.95-.05.15-.05.05.1-.2m-3.4-.85.1-.45.1-.15q.05-.1.2-.1l.5-.1h.6l.4.25.15.3.2-.3.65.35v.2l-.15.3v.05q-.25.3-.8.3h-.3l-.35-.05-.5-.15-.1-.05-.7-.4" fill="#85503f" fill-rule="evenodd" transform="translate(-255.6 -195.55)"/><path d="m21.55 1.2.4-.7-.1.2q-1.95 4.65-4 7.35l-.3.3v.05l-.1.05h-.05q-3.9 2.2-4.65 5.95-.5.8-1.1.7.6.05 1.05-.7l.25-.95.35-.8q1.15-2.55 4.1-4.2h-.05l.1-.5L19.1 5.1l.15-.2.85-1.25.55-.85.9-1.6m-10.3 13.75-1 1.6-2.65 4.1-.45.7-.4.6-2.7 4.3v.05l-.15.3-.5.3h-.3l-.25.05-.4-.05-.6-.2-.5-.25-.55-.5-.2-.4.1-.45.1-.15.15-.15.85-.8 1.05-1 1.5-1.5.55-.6q4.7-4.8 5.8-7.2.1-.55 1.15-.6h.1q.35-1.85 5-5.75L17.4 7l.65-.6m.05-.1 1.1-1.4-.1.2m-1.65 2.85-.05.45v.05m-6.15 6.45v.05-.05l.4.2m-7.6 11.15v-.05l1.4-2.3 1.7-2.55.45-.7.5-.8.7-1 1.45-2.3m-6.55 9 .05.05" fill="none" stroke="#000" stroke-linecap="round" stroke-linejoin="round" stroke-width=".05"/><path d="m258.45 222.5-.5-.05-.6-.2-1.05-.75q-.35-.5-.1-.85l.1-.15.15-.1v-.05q8.25-7.8 9.75-11.1.1-.6 1.25-.6.35-1.85 5-5.75 1.05-.75 2.3-2.45l.85-1.25.55-.85 1.3-2.3-.3.7m-9.9 13.9-.4-.15" fill="none" stroke="#000" stroke-linecap="round" stroke-linejoin="round" transform="translate(-255.6 -195.55)"/></g><g id="c" fill-rule="evenodd"><path d="M278.3 201.8q-1.3-2.1-2.1-5.3t-.65-5.6q.2-2.75 1.5-3 1.25-.35 2.7 1.9 1.35 2.1 2.15 5.3t.6 5.6q-.2 2.75-1.45 3-1.3.35-2.75-1.9m-1.4-5.45q.75 3.05 2 5 1.15 1.75 1.95 1.65.8-.3.95-2.35.15-2.35-.6-5.4-.8-3.05-2-5-1.15-1.75-1.95-1.65-.8.3-.95 2.35-.2 2.35.6 5.4" fill="url(#h)" transform="translate(-271.1 -187.85)"/><path d="M285.05 196.55q-2.1 1.3-5.3 2.1t-5.6.65q-2.75-.2-3-1.5-.35-1.25 1.9-2.7 2.1-1.35 5.3-2.15l5.6-.6q2.75.2 3 1.45.35 1.3-1.9 2.75m-5.45 1.4q3.05-.75 5-2 1.75-1.15 1.65-1.95-.3-.8-2.35-.95-2.35-.15-5.4.6-3.05.8-5 2-1.75 1.15-1.65 1.95.3.8 2.35.95 2.35.2 5.4-.6" fill="url(#i)" transform="translate(-271.1 -187.85)"/></g><g id="e" fill-rule="evenodd"><path d="m287.25 195.25-4.95.5-4.2-.55q-1.75-.65-1.15-1.55.5-.9 2.95-1.5l4.85-.5 4.3.55q1.75.7 1.15 1.6-.5.9-2.95 1.45m-4.65 0 4.7-.5q1.9-.45 2.3-.95.3-.65-1.05-1.1l-4.1-.55-4.65.5q-1.85.4-2.25 1-.3.55 1 1.05 1.5.55 4.05.55" fill="url(#k)" transform="translate(-276.8 -188.05)"/><path d="M287.7 189.85q-.4 1.65-1.75 3.9L283 197.7q-1.8 1.8-2.85 1.7-1.05.05-.7-1.75.35-1.65 1.7-3.95 1.35-2.25 3-3.9 1.75-1.8 2.8-1.75 1.05 0 .75 1.8m-2.35 3.9q1.3-2.2 1.65-3.75.3-1.4-.35-1.45-.7.05-2.05 1.4-1.55 1.55-2.85 3.75t-1.65 3.75q-.25 1.4.35 1.45l2.05-1.4q1.55-1.55 2.85-3.75" fill="url(#l)" transform="translate(-276.8 -188.05)"/></g><g id="f" fill-rule="evenodd"><path d="m286.9 181.6-1.65 3-1.9 2.25-1.35.05q-.35-.6.25-2.25.55-1.5 1.6-3.05 1.05-1.5 1.95-2.2l1.35-.1q.3.65-.25 2.3m-1.8 2.65q1-1.45 1.5-2.9.5-1.25.3-1.7-.2-.4-1 .2-.9.65-1.9 2.1-1 1.5-1.5 2.95-.45 1.2-.3 1.7.25.35 1-.2l1.9-2.15" fill="url(#m)" transform="translate(-281.85 -178.7)"/><path d="M284 179.25q.8.85 1.6 2.5l1.1 3.2q.35 1.75-.05 2.3-.4.65-1.35-.25-.8-.8-1.6-2.5-.8-1.65-1.1-3.2-.35-1.8.05-2.35.4-.65 1.35.3m1.35 2.8-1.55-2.4q-.7-.7-.95-.35-.25.45 0 1.75l1.1 3.1q.75 1.6 1.5 2.4.75.7 1 .35.25-.45-.05-1.75l-1.05-3.1" fill="url(#n)" transform="translate(-281.85 -178.7)"/></g><path d="M5.75 0v99.05H0V0h5.75" fill="url(#g)" fill-rule="evenodd" id="b"/><path d="M67.4 0q27.25 0 46.5 6.4 21.5 7.2 20.9 18.05.6 10.85-20.9 18-19.25 6.45-46.5 6.45t-46.5-6.45Q-.6 35.3 0 24.45-.6 13.6 20.9 6.4 40.15 0 67.4 0M112 12.1Q93.55 6 67.4 6t-44.6 6.1Q6.55 17.5 6 24.45q.55 6.9 16.8 12.3 18.45 6.15 44.6 6.15t44.6-6.15q16.25-5.4 16.8-12.3-.55-6.95-16.8-12.35" fill="url(#j)" fill-rule="evenodd" id="d"/></defs></svg>