<svg viewBox="0 0 71.914 79.238" xmlns="http://www.w3.org/2000/svg" xmlns:xlink="http://www.w3.org/1999/xlink"><g transform="translate(-336.41 -167.45)"><use transform="translate(336.45 167.45)" width="71.85" height="79.2" xlink:href="#a"/><use transform="rotate(45.001 -61.585 546.922)" width="16.3" height="45.4" xlink:href="#b"/><use transform="translate(338.05 185.55)" width="57.1" height="59.05" xlink:href="#c"/><use transform="rotate(45.001 -31.477 558.492)" width="16.3" height="45.4" xlink:href="#b"/></g><defs><radialGradient id="d" cx="0" cy="0" r="819.2" gradientTransform="matrix(-.0102 -.0102 .0064 -.0064 342.8 244.25)" gradientUnits="userSpaceOnUse"><stop stop-color="#f8f468" offset="0"/><stop stop-color="#fbb64b" offset=".486"/><stop stop-color="#f35f3a" offset="1"/></radialGradient><radialGradient id="e" cx="0" cy="0" r="819.2" gradientTransform="matrix(.0178 .0178 -.0178 .0178 396.8 174.75)" gradientUnits="userSpaceOnUse"><stop stop-color="#f8f468" offset="0"/><stop stop-color="#fbb64b" offset=".486"/><stop stop-color="#f35f3a" offset="1"/></radialGradient><radialGradient id="f" cx="0" cy="0" r="819.2" gradientTransform="rotate(-135.038 235.05 19.667) scale(.0277)" gradientUnits="userSpaceOnUse"><stop stop-color="#f8fe6d" offset="0"/><stop stop-color="#fca945" offset=".506"/><stop stop-color="#f89587" offset=".78"/><stop stop-color="#fd758a" offset=".988"/></radialGradient><radialGradient id="g" cx="0" cy="0" r="819.2" gradientTransform="matrix(-.0177 -.0177 .0177 -.0177 375.9 212.45)" gradientUnits="userSpaceOnUse"><stop stop-color="#f8fe6d" offset="0"/><stop stop-color="#fca945" offset=".506"/><stop stop-color="#f89587" offset=".78"/><stop stop-color="#fd758a" offset=".988"/></radialGradient><radialGradient id="h" cx="0" cy="0" r="819.2" gradientTransform="matrix(-.0122 -.0122 .0122 -.0122 380.7 207.95)" gradientUnits="userSpaceOnUse"><stop stop-color="#a3e2fa" offset=".322"/><stop stop-color="#d2fcf9" offset=".6"/><stop stop-color="#d6fef8" offset="1"/></radialGradient><radialGradient id="i" cx="0" cy="0" r="819.2" gradientTransform="matrix(-.0196 -.0196 -.0196 .0196 390.45 196.9)" gradientUnits="userSpaceOnUse"><stop stop-color="#f8fe6d" offset="0"/><stop stop-color="#fca945" offset=".506"/><stop stop-color="#f89587" offset=".78"/><stop stop-color="#fd758a" offset=".988"/></radialGradient><radialGradient id="j" cx="0" cy="0" r="819.2" gradientTransform="scale(-.025 .025) rotate(-45 891.777 23134.923)" gradientUnits="userSpaceOnUse"><stop stop-color="#f8fe6d" offset="0"/><stop stop-color="#fca945" offset=".506"/><stop stop-color="#f89587" offset=".78"/><stop stop-color="#fd758a" offset=".988"/></radialGradient><radialGradient id="k" cx="0" cy="0" r="819.2" gradientTransform="matrix(-.0122 -.0122 -.0122 .0122 398.5 190.15)" gradientUnits="userSpaceOnUse"><stop stop-color="#a3e2fa" offset=".322"/><stop stop-color="#d2fcf9" offset=".6"/><stop stop-color="#d6fef8" offset="1"/></radialGradient><radialGradient id="l" cx="0" cy="0" r="819.2" gradientTransform="rotate(135.036 154.923 182.903) scale(.0106)" gradientUnits="userSpaceOnUse"><stop stop-color="#f8fe6d" offset="0"/><stop stop-color="#fca945" offset=".506"/><stop stop-color="#f89587" offset=".78"/><stop stop-color="#fd758a" offset=".988"/></radialGradient><radialGradient id="m" cx="0" cy="0" r="819.2" gradientTransform="matrix(-.0143 .0248 .0248 .0143 389.7 196.7)" gradientUnits="userSpaceOnUse"><stop stop-color="#f8fe6d" offset="0"/><stop stop-color="#fca945" offset=".506"/><stop stop-color="#f89587" offset=".78"/><stop stop-color="#fd758a" offset=".988"/></radialGradient><radialGradient id="n" cx="0" cy="0" r="819.2" gradientTransform="matrix(-.013 .0224 .0224 .013 374.85 187.3)" gradientUnits="userSpaceOnUse"><stop stop-color="#f8fe6d" offset="0"/><stop stop-color="#fca945" offset=".506"/><stop stop-color="#f89587" offset=".78"/><stop stop-color="#fd758a" offset=".988"/></radialGradient><radialGradient id="o" cx="0" cy="0" r="819.2" gradientTransform="matrix(-.0089 .0154 .0154 .0089 380.8 190.5)" gradientUnits="userSpaceOnUse"><stop stop-color="#a3e2fa" offset=".322"/><stop stop-color="#d2fcf9" offset=".6"/><stop stop-color="#d6fef8" offset="1"/></radialGradient><radialGradient id="p" cx="0" cy="0" r="819.2" gradientTransform="rotate(45.49 -10.1 562.487) scale(.0097)" gradientUnits="userSpaceOnUse"><stop stop-color="#fff" offset="0"/><stop stop-color="#fff" stop-opacity="0" offset="1"/></radialGradient><radialGradient id="q" cx="0" cy="0" r="819.2" gradientTransform="matrix(-.0089 .0089 .0089 .0089 371.2 208.35)" gradientUnits="userSpaceOnUse"><stop stop-color="#f8fe6d" offset="0"/><stop stop-color="#fca945" offset=".506"/><stop stop-color="#f89587" offset=".78"/><stop stop-color="#fd758a" offset=".988"/></radialGradient><radialGradient id="r" cx="0" cy="0" r="819.2" gradientTransform="matrix(-.008 .008 .008 .008 366 202.75)" gradientUnits="userSpaceOnUse"><stop stop-color="#f8fe6d" offset="0"/><stop stop-color="#fca945" offset=".506"/><stop stop-color="#f89587" offset=".78"/><stop stop-color="#fd758a" offset=".988"/></radialGradient><radialGradient id="s" cx="0" cy="0" r="819.2" gradientTransform="matrix(-.0055 .0055 .0055 .0055 368.1 204.75)" gradientUnits="userSpaceOnUse"><stop stop-color="#a3e2fa" offset=".322"/><stop stop-color="#d2fcf9" offset=".6"/><stop stop-color="#d6fef8" offset="1"/></radialGradient><radialGradient id="t" cx="0" cy="0" r="819.2" gradientTransform="matrix(-.0542 0 0 .0339 -1.8 -1.8)" gradientUnits="userSpaceOnUse"><stop stop-color="#f9bb8b" offset="0"/><stop stop-color="#fc8c74" offset=".486"/><stop stop-color="#f54967" offset="1"/></radialGradient><radialGradient id="u" cx="0" cy="0" r="819.2" gradientTransform="matrix(-.042 0 0 .0262 .55 17.7)" gradientUnits="userSpaceOnUse"><stop stop-color="#f9bb8b" offset="0"/><stop stop-color="#fc8c74" offset=".486"/><stop stop-color="#f54967" offset="1"/></radialGradient><radialGradient id="v" cx="0" cy="0" r="819.2" gradientTransform="matrix(-.0284 0 0 .0177 -2.55 -7.1)" gradientUnits="userSpaceOnUse"><stop stop-color="#f9bb8b" offset="0"/><stop stop-color="#fc8c74" offset=".486"/><stop stop-color="#f54967" offset="1"/></radialGradient><radialGradient id="w" cx="0" cy="0" r="819.2" gradientTransform="rotate(44.994 -77.476 554.647) scale(.0543)" gradientUnits="userSpaceOnUse"><stop stop-color="#f8f468" offset="0"/><stop stop-color="#fbb64b" offset=".486"/><stop stop-color="#f35f3a" offset="1"/></radialGradient><radialGradient id="x" cx="0" cy="0" r="819.2" gradientTransform="rotate(44.997 -113.878 536.172) scale(.042)" gradientUnits="userSpaceOnUse"><stop stop-color="#f8f468" offset="0"/><stop stop-color="#fbb64b" offset=".486"/><stop stop-color="#f35f3a" offset="1"/></radialGradient><radialGradient id="y" cx="0" cy="0" r="819.2" gradientTransform="matrix(.0201 .0201 -.0201 .0201 376.05 211.7)" gradientUnits="userSpaceOnUse"><stop stop-color="#f8f468" offset="0"/><stop stop-color="#fbb64b" offset=".486"/><stop stop-color="#f35f3a" offset="1"/></radialGradient><radialGradient id="z" cx="0" cy="0" r="819.2" gradientTransform="rotate(135.099 151.912 173.27) scale(.0048)" gradientUnits="userSpaceOnUse"><stop stop-color="#f8fe6d" offset="0"/><stop stop-color="#fca945" offset=".506"/><stop stop-color="#f89587" offset=".78"/><stop stop-color="#fd758a" offset=".988"/></radialGradient><radialGradient id="A" cx="0" cy="0" r="819.2" gradientTransform="rotate(-44.997 456.786 -300.19) scale(.014)" gradientUnits="userSpaceOnUse"><stop stop-color="#f8fe6d" offset="0"/><stop stop-color="#fca945" offset=".506"/><stop stop-color="#f89587" offset=".78"/><stop stop-color="#fd758a" offset=".988"/></radialGradient><radialGradient id="B" cx="0" cy="0" r="819.2" gradientTransform="matrix(.009 -.009 .009 .009 339.7 229.25)" gradientUnits="userSpaceOnUse"><stop stop-color="#f8fe6d" offset="0"/><stop stop-color="#fca945" offset=".506"/><stop stop-color="#f89587" offset=".78"/><stop stop-color="#fd758a" offset=".988"/></radialGradient><radialGradient id="C" cx="0" cy="0" r="819.2" gradientTransform="matrix(.0062 -.0062 .0062 .0062 342 231.65)" gradientUnits="userSpaceOnUse"><stop stop-color="#a3e2fa" offset=".322"/><stop stop-color="#d2fcf9" offset=".6"/><stop stop-color="#d6fef8" offset="1"/></radialGradient><radialGradient id="D" cx="0" cy="0" r="819.2" gradientTransform="scale(.014 -.014) rotate(45 32810.93 21515.328)" gradientUnits="userSpaceOnUse"><stop stop-color="#f8fe6d" offset="0"/><stop stop-color="#fca945" offset=".506"/><stop stop-color="#f89587" offset=".78"/><stop stop-color="#fd758a" offset=".988"/></radialGradient><radialGradient id="E" cx="0" cy="0" r="819.2" gradientTransform="matrix(.009 -.009 -.009 -.009 353.4 242.95)" gradientUnits="userSpaceOnUse"><stop stop-color="#f8fe6d" offset="0"/><stop stop-color="#fca945" offset=".506"/><stop stop-color="#f89587" offset=".78"/><stop stop-color="#fd758a" offset=".988"/></radialGradient><radialGradient id="F" cx="0" cy="0" r="819.2" gradientTransform="matrix(.0062 -.0062 -.0062 -.0062 351 240.65)" gradientUnits="userSpaceOnUse"><stop stop-color="#a3e2fa" offset=".322"/><stop stop-color="#d2fcf9" offset=".6"/><stop stop-color="#d6fef8" offset="1"/></radialGradient><radialGradient id="G" cx="0" cy="0" r="819.2" gradientTransform="matrix(-.0038 -.0038 .0038 -.0038 344.7 238.35)" gradientUnits="userSpaceOnUse"><stop stop-color="#f8fe6d" offset="0"/><stop stop-color="#fca945" offset=".506"/><stop stop-color="#f89587" offset=".78"/><stop stop-color="#fd758a" offset=".988"/></radialGradient><g id="a"><path d="M336.6 239.35q-.55-2.45.75-3.75t3.7-.7q2.45.55 4.55 2.65t2.6 4.5q.6 2.4-.7 3.7t-3.75.75q-2.4-.5-4.5-2.6t-2.65-4.55m4.5 4.4 1.35.15.05-.45q-.5-.9-1.3-1-.75.15-.35 1.05l.3.3-.05-.05m3.6-.1-.1-.2q4.1.9 2.1-3-1.15-2.25-3-3 .35 1.25 1.15 2.75l.7 1.6-1.2-.2-.8-.1q.2.9.9 1.8l.25.35" fill="url(#d)" fill-rule="evenodd" transform="translate(-336.45 -167.45)"/><path d="m344.7 243.65-.25-.35q-.7-.9-.9-1.8l.8.1 1.2.2-.7-1.6q-.8-1.5-1.15-2.75 1.85.75 3 3 2 3.9-2.1 3l.1.2m-3.6.1.05.05-.3-.3q-.4-.9.35-1.05.8.1 1.3 1l-.05.45-1.35-.15" fill="#fdfdbd" fill-rule="evenodd" transform="translate(-336.45 -167.45)"/><path d="M.15 71.9q-.55-2.45.75-3.75t3.7-.7q2.45.55 4.55 2.65t2.6 4.5q.6 2.4-.7 3.7t-3.75.75q-2.4-.5-4.5-2.6T.15 71.9z" fill="none" stroke="#f3653b" stroke-linecap="round" stroke-linejoin="round" stroke-opacity=".361" stroke-width=".05"/><path d="M408.3 182.65q.05 5.15-3.65 8.85-3.65 3.65-8.85 3.65t-8.85-3.65q-3.7-3.7-3.65-8.85 0-5.2 3.65-8.85 3.7-3.7 8.85-3.65 5.15-.05 8.85 3.65 3.65 3.65 3.65 8.85m-8-7.6q-1.3-1-2.9.3l-.35 1.15q.7 1.6 2.5 1.5 1.65-.75 1.25-2.55l-.5-.5v.1m-8.15 2.05.15.35q-8.75.15-6.35 7.95 1.4 4.5 5.25 5.25 0-2.7-1.15-5.55-.65-1.65-.75-3.35l2.6-.2 1.8-.2q0-2-1.15-3.65l-.4-.6" fill="url(#e)" fill-rule="evenodd" transform="translate(-336.45 -167.45)"/><path d="m392.15 177.1.4.6q1.15 1.65 1.15 3.65l-1.8.2-2.6.2q.1 1.7.75 3.35 1.15 2.85 1.15 5.55-3.85-.75-5.25-5.25-2.4-7.8 6.35-7.95l-.15-.35m8.15-2.05v-.1l.5.5q.4 1.8-1.25 2.55-1.8.1-2.5-1.5l.35-1.15q1.6-1.3 2.9-.3" fill="#fdfdbd" fill-rule="evenodd" transform="translate(-336.45 -167.45)"/><path d="M71.85 15.2q.05 5.15-3.65 8.85-3.65 3.65-8.85 3.65t-8.85-3.65q-3.7-3.7-3.65-8.85 0-5.2 3.65-8.85 3.7-3.7 8.85-3.65 5.15-.05 8.85 3.65 3.65 3.65 3.65 8.85z" fill="none" stroke="#f3653b" stroke-linecap="round" stroke-linejoin="round" stroke-opacity=".361" stroke-width=".05"/><path d="m371.2 215.55-.25-.05-.2-.2q1.8-1.5 3.1-3.5 2.2-3.3 3.35-7.95.6-2.5 3.25-2.95l2.65-.25h.2l-.15-.05q-5.45-.95-10.6.6 8.05-7.65 15.7-2.8 1.5.9 2.85 2.15l-1.2.3-7.3 1.6q-1.6.4-2.45 1.55-1.25 1.85-1.7 4.3-.65 3.55-3.95 5.75-1.6 1-3.3 1.5" fill="url(#f)" fill-rule="evenodd" transform="translate(-336.45 -167.45)"/><path d="m388.45 215-.4-7-.15-2.05q-3.4 11.3-16.7 9.6 1.7-.5 3.3-1.5 3.3-2.2 3.95-5.75.45-2.45 1.7-4.3.85-1.15 2.45-1.55l7.3-1.6 1.2-.3 1.25 1.25q.85.85 1 1.4l.05 1.05-.9 2.2q-.7 5.5-4.05 8.55" fill="url(#g)" fill-rule="evenodd" transform="translate(-336.45 -167.45)"/><path d="m388.45 215-.15.15.15-.15" fill="url(#h)" fill-rule="evenodd" transform="translate(-336.45 -167.45)"/><path d="m54.65 33.1 1.25 1.25q.85.85 1 1.4l.05 1.05-.9 2.2q-.7 5.5-4.05 8.55M52 47.55l-.4-7-.15-2.05q-3.4 11.3-16.7 9.6" fill="none" stroke="#faf29c" stroke-linecap="round" stroke-linejoin="round" stroke-width=".05"/><path d="m391.1 200.55-2.2-2.8q-4.85-7.65 2.8-15.7-1.55 5.15-.55 10.55l.05.15-.05-.15.05-.05q-.05-1.15.2-2.6.5-2.7 3-3.3 4.65-1.15 7.9-3.3 2.05-1.35 3.55-3.15l.2.2.05.25q-.55 1.75-1.5 3.3-2.2 3.3-5.75 3.95-2.45.45-4.3 1.7-1.15.85-1.55 2.45l-1.6 7.3-.3 1.2" fill="url(#i)" fill-rule="evenodd" transform="translate(-336.45 -167.45)"/><path d="M405.55 197.9q-3.05 3.35-8.55 4.05l-2.2.9-1.05-.05-1.4-1-1.25-1.25.3-1.2 1.6-7.3q.4-1.6 1.55-2.45 1.85-1.25 4.3-1.7 3.55-.65 5.75-3.95.95-1.55 1.5-3.3 1.7 13.3-9.6 16.7l2.05.15 7 .4" fill="url(#j)" fill-rule="evenodd" transform="translate(-336.45 -167.45)"/><path d="m405.55 197.9.15-.15-.15.15" fill="url(#k)" fill-rule="evenodd" transform="translate(-336.45 -167.45)"/><path d="M69.1 30.45q-3.05 3.35-8.55 4.05l-2.2.9-1.05-.05-1.4-1-1.25-1.25M69.65 13.2q1.7 13.3-9.6 16.7l2.05.15 7 .4z" fill="none" stroke="#faf29c" stroke-linecap="round" stroke-linejoin="round" stroke-width=".05"/><path d="M388.2 200.25q-1-2.4-.05-3.35l3.3.1q2.4 1 4.8 3.4t3.4 4.8.1 3.3q-.95.95-3.35-.05-2.35-1.05-4.75-3.45t-3.45-4.75" fill="url(#l)" fill-rule="evenodd" transform="translate(-336.45 -167.45)"/><path d="M51.75 32.8q-1-2.4-.05-3.35l3.3.1q2.4 1 4.8 3.4t3.4 4.8.1 3.3q-.95.95-3.35-.05-2.35-1.05-4.75-3.45t-3.45-4.75z" fill="none" stroke="#faf29c" stroke-linecap="round" stroke-linejoin="round" stroke-width=".05"/><path d="m393.1 195.1-2.2 2.9q-6.35 6.9-16.4 1.4 5.55.2 10.7-2.2l.15-.1-.15.1-.05-.05-2.7.45q-2.8.25-4.05-2.1-2.4-4.35-5.4-6.95-1.9-1.7-4.1-2.7l.2-.3.2-.1 3.7.6q3.9 1.35 5.5 4.7 1.05 2.35 2.8 3.8 1.15 1 2.85.9l7.7-.35h1.25" fill="url(#m)" fill-rule="evenodd" transform="translate(-336.45 -167.45)"/><path d="M386.6 181.4q4.2 2.15 6.4 7.4l1.45 2.05.25 1-.65 1.65-.9 1.5-.05.1h-1.25l-7.7.35q-1.7.1-2.85-.9-1.75-1.45-2.8-3.8-1.6-3.35-5.5-4.7l-3.7-.6q12.8-5.25 19.2 5.15l-.4-2.1-1.5-7.1" fill="url(#n)" fill-rule="evenodd" transform="translate(-336.45 -167.45)"/><path d="m386.6 181.4-.2-.1.2.1" fill="url(#o)" fill-rule="evenodd" transform="translate(-336.45 -167.45)"/><path d="M50.15 13.95q4.2 2.15 6.4 7.4L58 23.4l.25 1-.65 1.65-.9 1.5-.05.1" fill="none" stroke="#faf29c" stroke-linecap="round" stroke-linejoin="round" stroke-width=".05"/><path d="M32.85 18q12.8-5.25 19.2 5.15l-.4-2.1-1.5-7.1z" fill="none" stroke="#faf29c" stroke-linecap="round" stroke-linejoin="round" stroke-width=".05"/><path d="M402.65 180.95q-2.35 2.3-5.65 2.3-3.25-.05-5.55-2.35-2.3-2.35-2.25-5.6.05-3.3 2.4-5.6 2.3-2.25 5.55-2.25 3.25.05 5.55 2.4 2.3 2.3 2.25 5.55 0 3.3-2.3 5.55" fill="url(#p)" fill-rule="evenodd" transform="translate(-336.45 -167.45)"/><path d="m372.85 208.1-1.25.95q-3.5 2.2-7.15-1.25l4.8.3.05-.05-.05.05-.05-.05-1.15-.15q-1.25-.15-1.5-1.3-.5-2.1-1.5-3.6l-1.4-1.6.1-.1h.1q.8.2 1.5.7 1.5 1 1.8 2.6.2 1.1.75 1.95l1.1.7 3.3.7.55.15" fill="url(#q)" fill-rule="evenodd" transform="translate(-336.45 -167.45)"/><path d="M371.65 201.6q1.55 1.35 1.85 3.85l.4 1-.05.45-.4.6-.6.6-.55-.15-3.3-.7-1.1-.7q-.55-.85-.75-1.95-.3-1.6-1.8-2.6-.7-.5-1.5-.7 6-.8 7.55 4.35l.05-.95.2-3.1" fill="url(#r)" fill-rule="evenodd" transform="translate(-336.45 -167.45)"/><path d="m371.65 201.6-.1-.1.1.1" fill="url(#s)" fill-rule="evenodd" transform="translate(-336.45 -167.45)"/><path d="M35.2 34.15q1.55 1.35 1.85 3.85l.4 1-.05.45-.4.6-.6.6M27.4 33.85q6-.8 7.55 4.35l.05-.95.2-3.1z" fill="none" stroke="#faf29c" stroke-linecap="round" stroke-linejoin="round" stroke-width=".05"/></g><g id="b"><path d="m-5.6-21.5 6.55 3.9v8.85l-2.8 3.15-5.25-2.05.05-.05h-.25q-.85.4-.85 1.05v.9Q-6.6-4.6-4.25-3.9l.6.25L-1.1-1l2.85 15.9 5.65 1.15V16q.65 0 .75-.35.1-.5-.45-.55l.25-.55q-4.5-3.8-5.55-7.95-.1-.55.45-.9Q2 1.3 1.65-3.15 1.55-4.5 3.75-5q1.8-.4 2.5-1.3-4.75-3.1-2.1-8.05.4-.75.65-.35l-1.25-2.1q3.95-2.65-3.7-5.4l-4.6-.35-.85 1.05M-7.1-7.65l-.2-.05.2.05" fill="url(#t)" fill-rule="evenodd" transform="translate(8.15 22.7)"/><path d="M1.75 14.9-1.1-1l-2.55-2.65q1.55 12.8 3.5 25.8l.2.55q1.2-3.25 1.7-7.6v-.2" fill="url(#u)" fill-rule="evenodd" transform="translate(8.15 22.7)"/><path d="m-7.1-7.65 5.25 2.05 2.8-3.15v-8.85l-6.55-3.9q7.65 6.05 4.1 12.9-.65 1.3-2.4 1.4-.1.3-1.75-.3l-1.4-.2-.05.05" fill="url(#v)" fill-rule="evenodd" transform="translate(8.15 22.7)"/><path d="m1.1 15 1.4.2q1.65.6 1.75.3 1.75-.1 2.4-1.4 3.55-6.85-4.1-12.9L3.4.15 8 .5q7.65 2.75 3.7 5.4L12.95 8q-.25-.4-.65.35-2.65 4.95 2.1 8.05-.7.9-2.5 1.3-2.2.5-2.1 1.85.35 4.45 1.2 8.85-.55.35-.45.9 1.05 4.15 5.55 7.95l-.25.55q.55.05.45.55-.1.35-.75.35v.05L9.9 37.6M4.5 19.05l-.6-.25q-2.35-.7-3.9-1.85v-.9Q0 15.4.85 15m.25 0H.85m3.65 4.05q1.55 12.8 3.5 25.8l.2.55q1.2-3.25 1.7-7.6v-.2" fill="none" stroke="#f54d68" stroke-linecap="round" stroke-linejoin="round" stroke-opacity=".361" stroke-width=".05"/><path d="M2.55 1.2 9.1 5.1v8.85L6.3 17.1l-5.25-2.05M9.9 37.6 7.05 21.7 4.5 19.05M.85 15l.2.05" fill="none" stroke="#f54d68" stroke-linecap="round" stroke-linejoin="round" stroke-opacity=".361" stroke-width=".05"/></g><g id="c"><path d="M348.1 233.65q-2.55-1.65-5.35-2.75l.1-.1q-.5-.4-.1-.9.45-.65.9-.3l.4-.8q7.5-1.1 13-5.1.7-.5.7-1.3 5.55-4.35 10.85-9.15 1.6-1.5.65-3.65-.85-1.65-.35-3.25 6.9-.1 10.6-7.6.6-1.1-.05-.85l3.25-1.45q.25-5.85 8.75-3.55 2.45.75 3.7 2.9l-.6 1.8-9.05-.25-10.05 10.05-1.6 5.5 6.05 1.45.05-.15.2.2q.05 1.05-.6 1.8l-1 1q-2.45.25-4.9-.7l-.7-.1-4.8 1.2-20.05 16.05m32.05-19.25-.25-.05.25.05" fill="url(#w)" fill-rule="evenodd" transform="translate(-338.05 -185.55)"/><path d="m372.95 216.4-31.75 26.75-.7.5q2.85-4.55 7.4-9.8l.2-.2 20.05-16.05 4.8-1.2" fill="url(#x)" fill-rule="evenodd" transform="translate(-338.05 -185.55)"/><path d="M394.55 197.6q-12.3 1.4-17.55 11.65-.95 1.95.15 3.35-.3.4 1.6.8.7.2 1.2.8l-.05.15-6.05-1.45 1.6-5.5 10.05-10.05 9.05.25" fill="url(#y)" fill-rule="evenodd" transform="translate(-338.05 -185.55)"/><path d="M10.05 48.1Q7.5 46.45 4.7 45.35l.1-.1q-.5-.4-.1-.9.45-.65.9-.3l.4-.8q7.5-1.1 13-5.1.7-.5.7-1.3 5.55-4.35 10.85-9.15 1.6-1.5.65-3.65-.85-1.65-.35-3.25 6.9-.1 10.6-7.6.6-1.1-.05-.85l3.25-1.45q.25-5.85 8.75-3.55 2.45.75 3.7 2.9l-.6 1.8q-12.3 1.4-17.55 11.65-.95 1.95.15 3.35-.3.4 1.6.8.7.2 1.2.8l.2.2q.05 1.05-.6 1.8l-1 1q-2.45.25-4.9-.7l-.7-.1L3.15 57.6l-.7.5q2.85-4.55 7.4-9.8l.2-.2" fill="none" stroke="#f3653b" stroke-linecap="round" stroke-linejoin="round" stroke-opacity=".361" stroke-width=".05"/><path d="M10.05 48.1 30.1 32.05l4.8-1.2m21.6-18.8-9.05-.25L37.4 21.85l-1.6 5.5 6.05 1.45.25.05" fill="none" stroke="#f3653b" stroke-linecap="round" stroke-linejoin="round" stroke-opacity=".361" stroke-width=".05"/><path d="M379.65 187.3q-.5-1.1-.05-1.55l1.5.1q1.1.4 2.2 1.5 1.05 1.05 1.5 2.2.45 1.05.05 1.45-.45.45-1.5 0-1.1-.5-2.15-1.55-1.1-1.1-1.55-2.15" fill="url(#z)" fill-rule="evenodd" transform="translate(-338.05 -185.55)"/><path d="M41.6 1.75Q41.1.65 41.55.2l1.5.1q1.1.4 2.2 1.5 1.05 1.05 1.5 2.2.45 1.05.05 1.45-.45.45-1.5 0-1.1-.5-2.15-1.55-1.1-1.1-1.55-2.15z" fill="none" stroke="#faf29c" stroke-linecap="round" stroke-linejoin="round" stroke-width=".05"/><path d="m345.7 236.95-.15-.65-.8-3.7q-.2-.8-.8-1.2-.85-.65-2.15-.85-1.8-.3-2.9-2l-.75-1.65.05-.15.1-.1q.7.9 1.75 1.55 1.65 1.15 4 1.7 1.3.3 1.5 1.7l.1 1.3v.1l.05-.05q.5-2.8-.3-5.4 3.9 4.1 1.45 7.95l-1.15 1.45" fill="url(#A)" fill-rule="evenodd" transform="translate(-338.05 -185.55)"/><path d="m345.7 236.95-.6.6-.7.5-.55.05-1.1-.5q-2.8-.3-4.3-2l3.5-.2 1.05-.05q-5.75-1.75-4.85-8.45l.75 1.65q1.1 1.7 2.9 2 1.3.2 2.15.85.6.4.8 1.2l.8 3.7.15.65" fill="url(#B)" fill-rule="evenodd" transform="translate(-338.05 -185.55)"/><path d="m338.45 235.6-.1-.1.1.1" fill="url(#C)" fill-rule="evenodd" transform="translate(-338.05 -185.55)"/><path d="M.4 50.05q1.5 1.7 4.3 2l1.1.5.55-.05.7-.5.6-.6M.1 41.35q-.9 6.7 4.85 8.45l-1.05.05-3.5.2z" fill="none" stroke="#faf29c" stroke-linecap="round" stroke-linejoin="round" stroke-width=".05"/><path d="M345.7 236.95q.75-.65 1.45-1.15 3.85-2.45 7.95 1.45l-5.35-.25h-.1.1l1.3.1q1.4.2 1.7 1.5.55 2.35 1.7 4 .65 1.05 1.55 1.75l-.1.1-.15.05-1.65-.75q-1.7-1.1-2-2.9-.2-1.3-.85-2.15-.4-.6-1.2-.8l-3.7-.8-.65-.15" fill="url(#D)" fill-rule="evenodd" transform="translate(-338.05 -185.55)"/><path d="M347.05 244.2q-1.7-1.5-2-4.3l-.5-1.1.05-.55.5-.7.6-.6.65.15 3.7.8q.8.2 1.2.8.65.85.85 2.15.3 1.8 2 2.9l1.65.75q-6.7.9-8.45-4.85l-.05 1.05-.2 3.5" fill="url(#E)" fill-rule="evenodd" transform="translate(-338.05 -185.55)"/><path d="m347.05 244.2.1.1-.1-.1" fill="url(#F)" fill-rule="evenodd" transform="translate(-338.05 -185.55)"/><path d="M9 58.65q-1.7-1.5-2-4.3l-.5-1.1.05-.55.5-.7.6-.6M17.7 58.95q-6.7.9-8.45-4.85l-.05 1.05-.2 3.5z" fill="none" stroke="#faf29c" stroke-linecap="round" stroke-linejoin="round" stroke-width=".05"/><path d="m345.95 235.5 1.65-.1q.5.5-.05 1.7-.5 1.2-1.7 2.4t-2.45 1.75l-1.65.05q-.45-.45.05-1.65.55-1.25 1.75-2.45t2.4-1.7" fill="url(#G)" fill-rule="evenodd" transform="translate(-338.05 -185.55)"/><path d="m7.9 49.95 1.65-.1q.5.5-.05 1.7-.5 1.2-1.7 2.4T5.35 55.7l-1.65.05q-.45-.45.05-1.65.55-1.25 1.75-2.45t2.4-1.7z" fill="none" stroke="#faf29c" stroke-linecap="round" stroke-linejoin="round" stroke-width=".05"/></g></defs></svg>