<svg viewBox="0 0 350.15 334.5" xmlns="http://www.w3.org/2000/svg" xmlns:xlink="http://www.w3.org/1999/xlink"><g transform="translate(-114.65 32.799)"><use transform="translate(114.65 47.55)" width="282.45" height="254.15" xlink:href="#a"/><use transform="matrix(.8148 .5162 -.5162 .8148 372.24 -38.993)" width="87.5" height="104.45" xlink:href="#b"/><use transform="translate(308.45 40.4)" width="156.35" height="87.5" xlink:href="#c"/></g><defs><g id="a"><path d="m378.45 64.3 13.25 12.9Q258.6 167.3 133.15 292l-6.35-6.65L378.45 64.3" fill="#695a3a" fill-rule="evenodd" transform="translate(-114.65 -47.55)"/><path d="m391.7 77.2 4.9 5.45q-146.65 88.2-258.15 215.45l-5.3-6.1Q258.6 167.3 391.7 77.2" fill="#51452d" fill-rule="evenodd" transform="translate(-114.65 -47.55)"/><path d="m126.8 285.35-5.2-5.45Q252.85 177 361.75 48.05l16.7 16.25L126.8 285.35" fill="#806c46" fill-rule="evenodd" transform="translate(-114.65 -47.55)"/><path d="m378.45 64.3 13.25 12.9 4.9 5.45q-146.65 88.2-258.15 215.45l-5.3-6.1-6.35-6.65-5.2-5.45Q252.85 177 361.75 48.05z" fill="none" stroke="#000" stroke-linecap="round" stroke-linejoin="round" stroke-opacity=".302" transform="translate(-114.65 -47.55)"/><path d="m201.3 154.55-.05-.55h.6l-.55.55" fill="#463526" fill-rule="evenodd" transform="translate(-114.65 -47.55)"/><path d="m167.9 245.85-.8.8-1.5.3q-.8.55-1.55.4-6 2.75-11.95 5.75 5.6-2.6 11.4-4.9l.7-.2 2.5-1-8.15 7.95-1.3.55-2.85-.8q2.55-1.5 5.65-2.55.95-.35 1.55-.85l-9.35 2.3-1 .25-.15-.25-1.6.85-2.3-.65q6.45-3.75 13.15-7.2-3.85.7-7.65 1.7-5.4 5.45-14.85 5.25l-.7-.4q-2.3.8-4.4 1.85l-2.9-.75q2.55-1.55 5.65-2.6.9-.3 1.6-.8l-10.4 2.55-.15-.35q6.1-2.8 12.35-5.3l.7-.3 4.9-1.85-1.95-.1-.4.05-.2.05q-.85.6-1.55.4-7.4 3.35-14.6 7.1l-2.3-.65q6.5-3.8 13.15-7.25-5.95 1.1-12 3.1l-.9.35-1.95.65q-1.95.75-4.05.55 3.85-1.95 7.85-3.7l1.6-.7.7-.3-.55.2-1.45.4q-5.55 1.75-10.95 4.4l-.3-.5h.05q6.2-4.1 13.2-6.55l.05-.05h.05l-12.8 2.7 12.65-3.3.6-.2-13.1-.85.9-1.05 14.3-.9.75-.05h.4l-.4-.3-.4-.25-4.35-2.95-7.3 1.35 6.2-2.1q-3.1-2.25-4-3.5l-.15-.15.7-.25q4.15.95 8.15 2.45l5-1.5.15-.05-4.4-5.25-.7-1.05-.05-.1-.75-.65.6-.35.3-.05q.25-.2.6-.3l.55.35q6.9.2 13.55 1.9l2.45-.15-3.55-3.15-.5.1-3.8.7 3.75-1.25-5.55-4.3q-2.1-1.55-.5-2.5l4.75 2.2.3-.1q4.1.95 8.05 2.4l.9-2.55.8.25-.5 1.95 2.45-.75.25-2.05-3.05-3.65-.8-1.15-.75-.6.65-.4h.25q.25-.25.6-.35l.55.35 3.2.2.85-6.25h.85q-.15 3.25-.05 6.4l2.15.3 2.5-4.35h.05l-3.2-2.45q-2.1-1.55-.5-2.5 3.85 1.65 7.65 3.7 2.8-4 6.75-7l.1.1h.05-.05q-3.3 3.65-5.45 7.65l2.4 1.35.9.65 1.65-4.45.85.2q-.9 3.4-1.55 6.75l.75 1.9 1.95-2.3.35-1.05.2-1.45-1-.75.55-.4h.55q.8-7.75 1.9-15.35h.8q-.2 5.35.15 10.55 2.35-4.9 5.2-9.45l-1.35 5.7.1-.05 1.2.45 2.15-4.3v-.05q3.05-5.15 7.9-8.8l.15.1h-.05q-3.7 4.2-6.05 8.8l-.65 1.3q-.85 1.9-1.55 3.9l4.2 2.1.3-.15.1.15-.2.1.15.05 1.3-1.75q2.35-2.9 5.4-5.2l.15.05h-.05q-2.6 2.9-4.55 6.15l-.95 1.45 2.4 1.4 1.35.9.4 1.65.65.05.4-1.05.1-.25.75.15-.15.8-.15.5h.65l.6-.05.4-.95q.9-9.1 2.2-18h.8q-.25 5.4.15 10.55 2.35-4.85 5.2-9.4l-2.15 8.5.45-.35 1.05-.6q1.1-3.15 2.75-5.8 3.05-5.2 7.85-8.8l.15.05v.05q-3.75 4.1-6.1 8.75-3.15 6.25-3.85 13.4l.2-.2 1.25-1.15.75-.15.5.05 1 .3q2.4-1.55 5.15-2.7l.1.15-3.65 2.95.15.1.8-.35.25-.25q2.85-.25 5.6 0l-13.15 9.6-2.8-1.95-.5-9.75q-.25 6.7-3.6 11.85l-2.5-2 .2 3.25q-3.05 2.65-7.15 1.05-3.25-1.45-2.65-5-.85 4.2-3.65 6.95-2.35-4.35-2.6-10.3-.05 6.1-2.55 11.95l-1.35-.4-2.45-2.75q1.4 2.85.25 5.4-7.55-.45-15-5.05 4.85 4.8 6.4 11.65-10.7-1.4-21.5-8.75l7.3 5.85v-.05l.5.35.4.2.2.15.1.1-.1.1h-.05q5.85 1.85 7.65 6.1-8.35-.1-18.65-2.9 9.95 3.45 18.15 8.9l-1.65 1.45q-4.45 7-12.7 7.85l23.35-1.9m12.65-45.1-.4 1.4.45-.3.6-.35-.65-.75m4.15 3.45.05-.05-1.3-1-.65 3.05 1.25-.95.65-1.05m-.3 3.2.2.05h.6l.8.25.9-1.8-1.05-.8-.1.05-1 .9-.35 1.35m.7-2.95-.05.15.15-.05-.1-.1m2.95 3.55-.15.2.25.1.55-.35.25-.25-.25-.25-.65.55m18.4 1.35-.6.6.7-.3-.1-.3m-44.75-1.1-1.05 4.2.1-.1.9.4.3.05 1.5-3.15-1.75-1.4m6.25 5.95.3.25.15-.45-3.5-3.1-.85 2.35 2.85.7 1.05.25m-29.65 23.2.45-.35-.55.35h.1" fill="#630" fill-rule="evenodd" transform="translate(-114.65 -47.55)"/><path d="M204.85 213.5q-34.45 25.4-29.7 25.35l-7.25 7-23.35 1.9q8.25-.85 12.7-7.85l1.65-1.45q-8.2-5.45-18.15-8.9 10.3 2.8 18.65 2.9-1.8-4.25-7.65-6.1h.05l.1-.1-.1-.1-.2-.15-.4-.2-.5-.35v.05l-7.3-5.85q10.8 7.35 21.5 8.75-1.55-6.85-6.4-11.65 7.45 4.6 15 5.05 1.15-2.55-.25-5.4l2.45 2.75 1.35.4q2.5-5.85 2.55-11.95.25 5.95 2.6 10.3 2.8-2.75 3.65-6.95-.6 3.55 2.65 5 4.1 1.6 7.15-1.05l-.2-3.25 2.5 2q3.35-5.15 3.6-11.85l.5 9.75 2.8 1.95m-3.35-6h.05l-.1-.1.05.1m-26 13.25-.05.05.05-.05m10.7 1.85-.05-.2-.2.2v.2l.25-.2" fill="#93410b" fill-rule="evenodd" transform="translate(-114.65 -47.55)"/><path d="m267.05 236.8.55.1.1-.5-.65.4" fill="#463526" fill-rule="evenodd" transform="translate(-114.65 -47.55)"/><path d="m170.8 249.5-1 .6-.55 1.15-.1.2q-.75.7-.75 1.5l-8.15 10.4 7.15-10.1.45-.65 1.55-2.2-9.55 6.25-.85 1.15.15 2.95 3.75-4.95q.5-.85 1.1-1.4l-4.2 8.6-.55 1 .3.15-1.25 1.45.15 2.35 9.95-11.25-3.4 7.1q-6.45 4.1-8.25 13.3-.15.35.2.75l-2.8 3.95.1 3q2.1-2.2 3.75-5l1.15-1.35-4.7 9.55.3.25v-.05l7.85-10.85.4-.65 2.85-4.3-.3 1.9h.05l-.2.4-.05.2q-.75.6-.75 1.4-4.85 6.5-10.1 12.65l.15 2.4 9.9-11.3q-2.4 5.65-5.6 11.1l-.55.8-1.1 1.7q-1.1 1.8-1.4 3.9l5.35-6.9 1.05-1.4.4-.6-.25.55-.8 1.25q-2.9 5.1-6.6 9.7l.45.45q5.3-5.25 9.2-11.5l.1-.1v.05q.05.5-5.45 11.9l6-11.65.3-.6-2 13 1.2-.65q2.2-6.9 4-13.7l.2-.8.1-.35.15.2.05.3.15.35 1.9 4.9-2.85 6.8 3.35-5.55q1.55 3.55 2.55 4.7l.15.1.35-.6q.05-4.25-.55-8.5l2.5-4.5.05-.2 4.2 5.5 1 1 .4.85.5-.55.1-.25.45-.55-.25-.6q1.35-6.75 1.15-13.65l.65-2.3 2.3 4.1-.2.5-1.5 3.55 2-3.35 3 6.3q1.1 2.4 2.35 1.05l-1.1-5.1.15-.25q0-4.2-.55-8.35l2.6-.35v-.85l-2.05.05 1.2-2.25 2.1.2 2.85 3.85 1.05 1 .4.85.5-.55.05-.25.5-.55-.25-.6.5-3.2 6.3.6.2-.85-6.25-1.35.2-2.2 4.75-1.45h.05l1.65 3.6q1.1 2.4 2.3 1.05-.75-4.15-1.9-8.3 4.5-1.8 8.25-5.05v-.1h-.05q-4.25 2.4-8.65 3.65l-.8-2.6-.4-1.1 4.65-.6.05-.85-6.95.05-1.75-1.15 2.7-1.4 1.1-.15 1.45.2.55 1.1.5-.5.15-.5 15.4 1.5.2-.8q-5.35-.95-10.35-2.45 5.3-1.2 10.4-3.05l-5.9.1h.1l-.2-1.35 4.7-1.15h.05q5.65-1.85 10.25-5.8l-.05-.1h-.05q-4.85 2.75-9.85 4l-1.4.35-4.15.6-1.15-4.55.2-.25-.1-.05-.15.1v-.1l2-.85q3.35-1.7 6.25-4.2l-.05-.15v.05q-3.45 1.9-6.95 3.15l-1.7.5-.8-2.6-.55-1.5-1.5-.7.05-.7 1.1-.15.25-.05v-.8l-.75.05h-.5l.2-1.2 1.05-.2 18.05 1.8.2-.8q-5.3-.95-10.25-2.45 5.2-1.2 10.3-3.05l-8.75.3.45-.4.75-.9q3.3-.4 6.3-1.4 5.7-1.85 10.3-5.75l-.05-.15v.05q-4.85 2.7-9.9 4-6.8 1.7-13.9.8l.25-.15 1.35-1 .3-.6.1-.55-.1-1 3.7-4.5-.05-.1-3.75 2.9v-.15l.55-.7.25-.2 1.25-5.45-12.25 10.75 1.3 3.15 9.35 2.55q-6.5-1.2-12.25.95l1.4 2.9-3.2-.9q-3.15 2.4-2.5 6.75.7 3.45 4.3 3.7-4.3-.15-7.6 2 3.75 3.25 9.45 4.75-5.95-1.25-12.2-.1l.1 1.4 2.1 3q-2.45-2-5.15-1.4-1.25 7.45 1.7 15.7-3.65-5.75-10-8.75-.95 10.7 3.85 22.9l-4.15-8.4.1-.05-.25-.55-.1-.35-.1-.3-.05-.1-.15.05-.05.05q-.45-6.1-4.25-8.75-1.7 8.15-1.2 18.8-1.25-10.4-4.75-19.65l-1.75 1.3q-7.8 2.85-10.45 10.75l7-22.4m46.65-2.55L216 247l.45-.35.4-.5.6.8m-5.65-5.2.05-.25.1-.55-.05-.8 1.9-.5.6 1.2-.1.05-1.05.8-1.45.05m3.05-.05h-.15l.1-.1.05.1m-2.8-3.6-.3.05v-.25l.5-.45.3-.2.15.3-.65.55m2.95 4.05h.05l.7 1.45-3.1-.05 1.2-1 1.15-.4m-.3-22.3-.7.4.45-.6.25.2m-8.6 43.85-4.3.1h.05l-.2-1.05v-.3l3.4-.75 1.05 2m-4.5-7.35-.15-.35.45-.05 2.3 4.05-2.55.35-.05-2.95v-1.05m-29.1 23.85.5-.35-.45.45-.05-.1" fill="#630" fill-rule="evenodd" transform="translate(-114.65 -47.55)"/><path d="M210.3 220.5q-32.25 28.05-31.15 23.45l-8.35 5.55-7 22.4q2.65-7.9 10.45-10.75l1.75-1.3q3.5 9.25 4.75 19.65-.5-10.65 1.2-18.8 3.8 2.65 4.25 8.75l.05-.05.15-.05.05.1.1.3.1.35.25.55-.1.05 4.15 8.4q-4.8-12.2-3.85-22.9 6.35 3 10 8.75-2.95-8.25-1.7-15.7 2.7-.6 5.15 1.4l-2.1-3-.1-1.4q6.25-1.15 12.2.1-5.7-1.5-9.45-4.75 3.3-2.15 7.6-2-3.6-.25-4.3-3.7-.65-4.35 2.5-6.75l3.2.9-1.4-2.9q5.75-2.15 12.25-.95l-9.35-2.55-1.3-3.15m5.2 4.6-.05-.05.05.05m-18.65 22.4-.05.05.05-.05m.55-10.8.15.1q-.15.1-.25.15h-.2l.3-.25" fill="#93410b" fill-rule="evenodd" transform="translate(-114.65 -47.55)"/></g><g id="d" fill-rule="evenodd"><path d="m23.05-13.2.2-.05-.1.15-.1-.1m0 17 .2-.05-.1.15-.1-.1m14.2 6.15.25.3h-.25v-.3" fill="#463526" transform="translate(43 74.25)"/><path d="m37.25 10.25-7.85-.6-.65.2 14.45 3.4H26.05v2.25l-7.6.85Q15.6 25.1 5.2 27.65l-.7-.15L1 30.2h-2.75q1.9-1.95 4.4-3.65l1.2-1.1q-4.2 2.2-8.55 4.75h-.55q4.9-4.1 10-7.95l.55-.4 4-2.9q-.35-.5-.2-1.25l-.3.1q.4.75-1.75 1.75l-.15.1q-.6.7-1.3.75l-11.15 9.8h-2.2q4.85-4.95 9.9-9.6Q-4.1 23.55-10 27.8q-1.6 1.15-3.5 1.45 3.75-3.35 7.85-6.6-5.4 3.25-10.25 7.55h-.7q5.4-6.2 12.25-10.55-9.8 1.8-19.15 4.1 9.95-4.1 19.85-7.15l-.5-.15q-10.45-3.3-11-4.75l.9.05q7.75-.35 15.3 1.35l.95.15 1.6 1.05.85.55q-5.3-4.8-11.85-9.1-2-1.35-.6-2.25 5.45 2 10.75 4.75L4 9q.45 1.95 1.4 3.8.6 1.1.8 2.25l.95.3-.9-1.85L7.4 9.65Q7.75 1.25 8.5-7q.05-.5.75-.25.05 5.05.65 9.9 1.9-4.6 4.35-8.9l-1.6 7.9.4-.35.95-.55q.9-2.95 2.25-5.5 2.55-4.9 6.8-8.45l.1.1Q19.9-9.15 18-4.75 15.4 1.1 15.1 7.7l.15-.2 1.15-1.1.6-.15h.5l.9.2q2.15-1.5 4.65-2.65l.1.1-3.25 2.9.35.1.5-.4.25-.25L27 6l5.05-.4L34 5l10.25.95.25.3q-5.2 0-10.1 1.1l3.3.45q.3.05.55.45-3.55-.3-7.05-.1l-1.7.55 7.75 1.25v.3m-26.4-1.7.9 4.1.15-.2Q11 10.3 11 8l-.15.55m4.25 3.65v.1q.4-.35.8-.5l-.25-.6-.55.9v.1" fill="#604178" transform="translate(43 74.25)"/><path d="m42.2-4.75.05 1-.35-1h.3" fill="#463526" transform="translate(43 74.25)"/><path d="M42.2-4.75h-.3.3" fill="#960" transform="translate(43 74.25)"/><path d="M-37.65-46.75v3q.5 11.25 7.8 20.4 1.55 2 3.75 3.05Q-11-12.8-2.15 1.6-5.25-15.6-1-32.55 4.4-54.15 25.5-61q5.2 1.9 8.7 5.9 6.4 7.35 5.8 15.35h-2.7q.35-11.8-11.05-18.25Q16-54.25 8.85-46.25 6.7-43.9 5.3-41.05-5.05-19.7 3.15 3.15q3.65 10.15 8.1 20.1L5.1 17.5q-5.75-1.05-10.75-4.4-5.25-3.45-8.55-8.7-4.2-6.75-9.55-12.65l-3.6.6q-5.85 1.6-10.3 5.9h-3.25q5.8-10.8 17.9-10Q-11.9 3.4 3 14.55l-.8-1.5Q.95 10.65-.65 8.6l-2.1-3.1Q-10.4-8.3-24.3-15.45q-9.55-5.05-13.4-15.7-2.9-8-3-15.6h3.05" fill="#604178" transform="translate(43 74.25)"/><path d="M-37.65-46.75h-3.05q-.1-6.45 1.8-12.6 2.4-7.7 7.9-14.9l6.9.7q1 3.1 2.55 6.3.7 1.45 1.9 2.5l1.95 2q2.55 3.1 2.4 6.7-2.2 2.85-5.8 3.4-5.5 1.15-9.15-2.85 1.55-1.2 3.75-1.65l9.25-.35-5.25-6.25-3.35-7.15-5.9.4-2.95 7.75-.2.65q-1.7 5.6-2.45 11.5l-.3 3.85m-3.25 45h3.25L-39.75.5l-.95 3.6 4.45 5.7 4.45-1.05 1-2.6 1.6.5.25.65q.2 1.25-.55 2.6-1 1.8-2.75 3.1-3.45.35-6.2-1.5-2.9-2.1-4.55-5.25.05-3.85 1.65-7.1l.45-.9m78.2-38H40q-.35 4.8-3.25 9.8-5 8.75-15 4.95l-2.3 4.65 3.8 2.6q9.9-3.2 18.25 2.75l.7 10.25h-.3L38.5-14l-16.25-.75-5.25-4.5-.25-3.75 5.5-6q2 1.35 4.55 1.4 8.95.1 10.25-9.35l.25-2.8" fill="#e4e0f3" transform="translate(43 74.25)"/></g><g id="c"><path d="m392.65 61.85-1.75 3.05-.05.15-.1-.25.2-.5.15-.25q-.1-2.7-.75-5.15-.45-2.1-.45-4.35l.2-1.75-2.4-8.55q-.1-.15-.3-.15.8 4.4.7 8.7l-.9-2.75-.4-.35q.8 2.95 1.15 5.95l-.2 1.55-2.2-6.4-.25.05 1.75 6.55-.05.6-5.1-11.75 2.7 14.55-1.8.35.5 6.6q-6.65 3.75-7.1 12.95 0 .3.3.6l-1.65 3.35.4 2.35 2.25-4.3q.3-.65.75-1.15l-2.5 7.95.05.5 4.9-9.7.25-.55 1.1-2.4.5.4v.15l-.1.15q-.45.6-.4 1.2l-6.1 10.85-.1.15.35 1.85 6.25-9.85q-1.4 5.75-3.9 11.4-.7 1.55-.65 3.2l4.15-7.7q-1.8 5.1-4.55 9.9l.1.6q4.2-5.55 6.65-12.05.1 8.65-.3 16.95 1.7-8.9 2.6-17.65l.05-.35.2.45q4.35 8.4 5.65 8.6l-.2-.75-1.2-5.8q3.2 3 7.15 4.65 6.15 2.55 11.8 6.2.25 1.65.1 3.1-.4 5.25-3.2 9.7l.5 2.75q7.9-6.55 5.35-16.75-8.6-4.3-16.1-10.05.95.65 1.3-.4l-2.5-4.1-.1-.1.15.05q12.45 4.45 20.45 15.2 5.6 7.35 14.85 8.95 7.05 1.3 13.2.2l-.5-2.55-2.45.45q-9.2 1.25-17.8-3.55-1.85-1-3.05-2.75-8.5-11.7-21.6-17 14.45 0 27.55-6.2 16.7-7.8 18.95-26.8-2.35-4.15-6.2-6.5-7-4.35-13.4-2.65l.45 2.3q9.55-2.1 16.6 6.65-1.45 9.25-6.8 16.55-1.55 2.2-3.7 3.8-15.7 12.05-35.55 8.55l-7.95-1.55 1.95-1.05 13.4-3.5q.4-.1.1-.65l-8.2.95 6.6-5.05q-3.15 1.2-6.2 2.55l.2-.4.3-.9q2.3-1.2 4.1-2.75 3.6-2.9 5.85-7.05l-.15-.05q-2.65 3.35-5.95 5.6-4.25 3.1-9.5 4.35l-.15.05.15-.2.7-1.15v-.5l-.1-.4-.25-.8 1.4-4.35-.15-.05m-1.8 11.2-3.45-.15.1-.2 3.8.1-.45.25m-7.15 2.85v.2l-.4-.1.4-.1m4.25-6.55-.65.6-.1.05h-.05l.25-.8.55.15m8.5 19.2-7.8-6.55-.2-.75-.35-.35.5.15.25.1q3.65 3.1 7.15 6.95l.45.45" fill="#f2bf24" fill-rule="evenodd" transform="translate(-308.45 -40.4)"/><path d="m406.9 112.7-1.45 2.1-2.8 1.35-5.35-2.9.2-3.95 1.9-1.25-.65-1.25-.55-.1q-1.05 0-2.05.85-1.25 1.1-2.1 2.8.3 2.95 2.25 5.05 2.15 2.15 4.95 3.1 3.15-.65 5.55-2.5l.6-.55-.5-2.75m37.1-4.25q5.25-.9 9.95-3.4 5.9-3.25 10.85-8.95l-1.65-5.8-5.5-1.2q-1.3-.4-2.35-1.25l-1.95-1.4q-2.9-1.65-5.85-.95-1.95 2.25-1.8 5.4-.1 4.9 3.75 7.35.75-1.5.75-3.45.35-4-1.15-7.9l5.9 3.5 6.35 1.8.55 5.05-5.8 3.65-.5.3q-4.25 2.3-8.95 3.85l-3.1.85.5 2.55M425.5 40.9q-3.85 1.05-7.45 4.25-6.3 5.55-1.65 13.5l-3.4 2.7-2.7-2.85q1.05-8.9-5.15-15.1l-8.45.95.05.25 8.1 1.5L408 59.8l4.5 3.75 3.1-.3 3.95-5.6q-1.35-1.5-1.8-3.65-1.5-7.65 5.95-10.15l2.25-.65-.45-2.3" fill="#83521d" fill-rule="evenodd" transform="translate(-308.45 -40.4)"/><path d="m396.7 44.35.05.25-.05-.25" fill="#960" fill-rule="evenodd" transform="translate(-308.45 -40.4)"/><path d="m396.7 44.35-.8.1.85.15-.05-.25m9.95 15-.05-.15-.1.1.15.05M392.8 61.9v-.15l-.15.1.15.05" fill="#463526" fill-rule="evenodd" transform="translate(-308.45 -40.4)"/><path d="m385.55 50.8-.3-.15.05.2.25-.05" fill="#f1f876" fill-rule="evenodd" transform="translate(-308.45 -40.4)"/><path d="m377.5 112.9-.05-.25-.1-.35 1.15 2.25q.95 2.1 2.65 4.05l-.4-1.1-.7-1.6q-.65-1.45.15-1.4l-.2-.15-.05-.05q-1.25-.55-.3-.2l.3.1q-3.4-6.8-.85-3.95l3.65 3.95.3.15q-.05-.35.4-.05l2.65 2.3-1.35-2.15-1.05-1.9.25.15 1.3.9q.6.55.9.35l-.3-.55-.5-.75-.4-.45.65.7 1.4 1.45 3.9 4.2q.95 1.1 1.6 1.4l-2.25-2.8q-5.55-7.8-7.7-14.9l-.55-1.5-.15-.35h-.05l.05-.1-.05.1h.05q4.3 2.35 9 9.15l.55-.45q-4.4-5.45-8.7-9.5l-.2-.05-.25-.35.25.35.2.05-.45-.4-.2-.15.55.1.4.35.1.05-.1-.3-.6-1.1q.05-.05.1.05h.3l.5.35q.6.55 1.2.9l-.1-.3-.25-.6-.1-.5.1-.3.85.85-.1-.3-.55-.75-.5-.7-1.25-1.7.85.45 2.4 2.2.4.4.05-.05-5-8.45.1-.1.35-.3.4-.8.45-.85 2.5 1q4.45 1.9 6.45 3.55 2.1 1.65-3.2-4.15-5.25-5.75-4.65-6.35.5-.4.25-1.4l-1.15.1q-.8.35-2.15-.35.1-.85.8-1.25l.85-.45q.35-.2-.3-.75l-1.8 1.15-.35.05q-.65.05-1.35-.85l.3-.25 1.95-1.85-3.65 3-2.05 2.85.05 1.7-.05-.05q-.45-.15-.65-.7l-.3.35.4 1.2.7 2 .55 1.35-.9-1q.15 1.25.7 2.75l-1.2-1.3 1 1.95q-.45-.6-.75-.55l.55 1.1.25.35-.4-.4q-.3-.15-.05.45l1.35 2.25-1.2-1.2-2.4-2 .45 1q.95 1.6.1.75l-.05-.05 1 2.2-.75-.7.65 2.25-1.3-1.25.25 1.6-.7-.55.5 1.75-.95-.95 1.15 2.9-1.95-1.75.15.3.8 1.9-1.75-2.05.05.15q.1.85 1 2.1l-1.7-1.85.6 1.7-.7-.75-1.15-1 .25.75q-.2.75.25 1.85l-1.55-2.3v.6q.05 1.3-.95.25l-.05-.1q-.3.05-.2.55.05.35-.4-.6l-.1-.1q-.35.9-.4 1.8l-1.3-2-.4 1.35.7 1.8-1.75-.8.85 3.25 1.05 2.95.8 1.55 1.5-3.1 1.65 2.6-.75 2.75 2.35 5 2.55 3.15-1.55-4.6q-.35-1.1-.2-1.85.05-.45.75-.1.6.35.25-.55h-.05l-.1-.3.15.3.65 1 .75.8.55-.65.4.05.25.5.75 1.45.35.7q-.55-1.9-.5-3.45l.1-1.65.35-.1.4.35 1.55 2.15h.15m4.2-13.2-1.5-1.6.55-.45 1.3 1.4-1.3-1.4-.55.45 1.5 1.6.6.4-.35.2-.1.1v-.1l-.05-.05v-.05l-.1-.5m3.4 9.7-1.7-1.3-.15-.15-.7-.9-.2-.2-.1-.25q-.95-1.25-1.2-2.45l-.2-.85-.05-.4-.4-.85q-.5-.75-.4-1.25l.1-.05.55.05.65.3.4.95.15.65.05.15.5 1.25.35 1 .1.35.35.9.2.45q.35.9 1.05 1.8l.65.8m-.5-13.5.35.55-1.5-1.6-.8-.9-.2-.15q-.7-.25-1.25-.9l-.1-.05.45-.4q.3-.15.05-.65l-.4-.65-.05-.15-.3-.55q.55.55.7 1l.25.35 1.45 2.3 1.35 1.8m-2.8 4.5h.05-.05m-15.75-7.15q-.8-2.45-.2-4.8.05-.2.25-.1l.9.3.95.35q-.2-1.35 0-2.7l.4-.6.5-.8-.2-.3q-.3-.3-.7.1l-3.7 4.2-.7.8q-1.05 1.4-2.5 1.9l-.4.2-.75.6-5.05 4.4-1 .75-.35.1-.4.15-1 .15q-.3.1-.3.5-.2 1.2.05 2.35l.15.5.1.2q-.3.25-.6 0v.05q1.8 1.8 3.25 4.05l1.1 2.65.05.9-.25 3.4h.2q.85-1.9 1.15-3.8.2-1.05 0-1.95l-.05-.5.85.95.45.85.05.05-.05-3.15v-.8q-.15-1-.7-1.8l-.2-.25q1.25.95 2.05 2.25l-.15-1.45q-.15-1.75.2-3.5l.6-2.65.55-3.2q0-.8.55-1.3.25-.3.7-.3l1.75.4 2.4.9.05-.05" fill="#f5eed3" fill-rule="evenodd" transform="translate(-308.45 -40.4)"/><path d="m369.95 115.7-2.35-5 .75-2.75-1.65-2.6-1.5 3.1-.8-1.55-1.05-2.95-.85-3.25 1.75.8-.7-1.8.4-1.35 1.3 2q.05-.9.4-1.8l.1.1q.45.95.4.6-.1-.5.2-.55l.05.1q1 1.05.95-.25v-.6l1.55 2.3q-.45-1.1-.25-1.85l-.25-.75 1.15 1 .7.75-.6-1.7 1.7 1.85q-.9-1.25-1-2.1l-.05-.15 1.75 2.05-.8-1.9-.15-.3 1.95 1.75-1.15-2.9.95.95-.5-1.75.7.55-.25-1.6 1.3 1.25-.65-2.25.75.7-1-2.2.05.05q.85.85-.1-.75l-.45-1 2.4 2 1.2 1.2-1.35-2.25q-.25-.6.05-.45l.4.4-.25-.35-.55-1.1q.3-.05.75.55l-1-1.95 1.2 1.3q-.55-1.5-.7-2.75l.9 1-.55-1.35-.7-2-.4-1.2.3-.35q.2.55.65.7l.05.05-.05-1.7 2.05-2.85 3.65-3 3-2.75-11.35 5.8q-4.7 4.75-10.8 7.8l-.2-.2-.05.05.25.15-.25-.15-5.4 4.85q-6.8 5.8-9.95 14.5l-.35 1.05.5 1.1 4.6-3 1.85.55 1.1 22.3 2.85-13.3.2.25-.35.55 5 5.2.05-.1-2.2-2.45 8.8 7.05q-3.25-4.1-5.25-8.3l2.85 2.65-.7-1.05q-1.1-1.45-1.2-2.6l-.05-.75 1.15.65.25.3.15.05-.2-.3 7.95 6.7-4.1-8.05 1.05 1.3m14.65-19.8-1.35-1.8-1.45-2.3-.25-.35q-.15-.45-.7-1l.3.55.05.15.4.65q.25.5-.05.65l-.45.4.1.05q.55.65 1.25.9l.2.15.8.9 1.5 1.6-.35-.55m.5 13.5-.65-.8q-.7-.9-1.05-1.8l-.2-.45-.35-.9-.1-.35-.35-1-.5-1.25-.05-.15-.15-.65-.4-.95-.65-.3-.55-.05-.1.05q-.1.5.4 1.25l.4.85.05.4.2.85q.25 1.2 1.2 2.45l.1.25.2.2.7.9.15.15 1.7 1.3m-33.6-7.9q.3.25.6 0l-.1-.2-.15-.5q-.25-1.15-.05-2.35 0-.4.3-.5l1-.15.4-.15.35-.1 1-.75 5.05-4.4.75-.6.4-.2q1.45-.5 2.5-1.9l.7-.8 3.7-4.2q.4-.4.7-.1l.2.3-.5.8-.4.6q-.2 1.35 0 2.7l-.95-.35-.9-.3q-.2-.1-.25.1-.6 2.35.2 4.8l-.05.05-2.4-.9-1.75-.4q-.45 0-.7.3-.55.5-.55 1.3l-.55 3.2-.6 2.65q-.35 1.75-.2 3.5l.15 1.45q-.8-1.3-2.05-2.25l.2.25q.55.8.7 1.8v.8l.05 3.15-.05-.05-.45-.85-.85-.95.05.5q.2.9 0 1.95-.3 1.9-1.15 3.8l-.2.8v-.8.8l.2-.8h-.2l.25-3.4-.05-.9-1.1-2.65q-1.45-2.25-3.25-4.05l-.25-.25.25.2-.25-.2.25.25v-.05m6.85 8.7q.3-.9-.05-2.05.35 1.15.05 2.05m7.7-16.95.1.15-.15-.1.15.1-.1-.15m-6.65 11.15.4 1.6.25.45-.25-.45-.4-1.6" fill="#fffdea" fill-rule="evenodd" transform="translate(-308.45 -40.4)"/><path d="m73.4 60 .15.35.55 1.5q2.15 7.1 7.7 14.9l2.25 2.8q-.65-.3-1.6-1.4l-3.9-4.2-1.4-1.45-.65-.7.4.45.5.75.3.55q-.3.2-.9-.35l-1.3-.9-.25-.15 1.05 1.9 1.35 2.15L75 73.9q-.45-.3-.4.05l-.3-.15-3.65-3.95Q68.1 67 71.5 73.8l-.3-.1q-.95-.35.3.2l.05.05.2.15q-.8-.05-.15 1.4l.7 1.6.4 1.1q-1.7-1.95-2.65-4.05L68.9 71.9l.1.35.05.25-.1.2-.05-.2-1.55-2.15-.4-.35-.35.1-.1 1.65q-.05 1.55.5 3.45l-.35-.7-.75-1.45-.25-.5-.4-.05-.55.65-.75-.8-.65-1-.15-.3.1.3h.05q.35.9-.25.55-.7-.35-.75.1-.15.75.2 1.85l1.55 4.6-2.55-3.15m10.8-39.85-1.95 1.85-.3.25q.7.9 1.35.85l.35-.05 1.8-1.15q.65.55.3.75l-.85.45q-.7.4-.8 1.25 1.35.7 2.15.35l1.15-.1q.25 1-.25 1.4-.6.6 4.65 6.35 5.3 5.8 3.2 4.15-2-1.65-6.45-3.55l-2.5-1-.45.85-.4.8-.35.3-.1.1 5 8.45.5.65-.55-.6-.4-.4-2.4-2.2-.85-.45 1.25 1.7.5.7.55.75.1.3-.85-.85-.1.3.1.5.25.6.1.3q-.6-.35-1.2-.9l-.5-.35h-.3q-.05-.1-.1-.05l.6 1.1.1.3.05.1-.15-.15-.4-.35-.55-.1.2.15.25.35.2.05-.1-.3v-.15m-.9.55.1.5v.05l.05.05-.05.1h.05q4.3 2.35 9 9.15l.55-.45q-4.4-5.45-8.7-9.5m4.1-.8.7.75m-5.25-.35.45.4m-.85.7v.1h-.05m.15-.1h-.05l-.1-.05m.05.05h.1l-.1.1m.1-.1.35-.2-.6-.4M52.9 46.15l.05-.05m.2.2-.25-.15L47.5 51q-6.8 5.8-9.95 14.5l-.35 1.05.5 1.1 4.6-3 1.85.55 1.1 22.3 2.85-13.3.2.25-.35.55 5 5.2.45.35-.4-.45-2.2-2.45 8.8 7.05q-3.25-4.1-5.25-8.3l2.85 2.65-.7-1.05q-1.1-1.45-1.2-2.6l-.05-.75 1.15.65.25.3.15.05-.2-.3 7.95 6.7v.05l.4.4-.4-.45-4.1-8.05 1.05 1.3m-8.35-29q6.1-3.05 10.8-7.8l11.35-5.8-3 2.75M67 75.2l.15.8m4.35-2.1v-.1q.75.35.35.25l-.1.05" fill="none" stroke="#600" stroke-linecap="round" stroke-linejoin="round" stroke-opacity=".69" stroke-width=".05"/><path d="m76.65 69-1.7-1.3-.15-.15-.7-.9-.2-.2-.1-.25q-.95-1.25-1.2-2.45l-.2-.85-.05-.4-.4-.85q-.5-.75-.4-1.25l.1-.05.55.05.65.3.4.95.15.65.05.15.5 1.25.35 1 .1.35.35.9.2.45q.35.9 1.05 1.8l.65.8m-.5-13.5.35.55-1.5-1.6-.8-.9-.2-.15q-.7-.25-1.25-.9l-.1-.05.45-.4q.3-.15.05-.65l-.4-.65-.05-.15-.3-.55q.55.55.7 1l.25.35 1.45 2.3 1.35 1.8" fill="none" stroke="#fffdea" stroke-linecap="round" stroke-linejoin="round" stroke-width=".05"/><path d="m382.05 99.05-1.3-1.4-.55.45 1.5 1.6" fill="none" stroke="#f5eed3" stroke-linecap="round" stroke-linejoin="round" transform="translate(-308.45 -40.4)"/><path d="m43.05 61.1-.25-.2.25.25m4.15 11v.8l.2-.8m2.4-4.45.05.05q.35 1.15.05 2.05m7.65-16.9.15.1-.1-.15m-6 13.2-.25-.45-.4-1.6" fill="none" stroke="#d9cebf" stroke-linecap="round" stroke-linejoin="round" stroke-width=".05"/><path d="m329.65 59 .2.15.3.15-1.8-1.7q-1.75-1.5-3.15-3.75l.95.75 1.35 1.1q1.2 1.05 1.4.25l.05.25v.05q.2 1.3.15.3l-.05-.25q5.55 5.15 3.5 1.9l-2.7-4.65v-.3q.3.2.1-.35l-1.4-3.2 1.65 1.9 1.55 1.55-.05-.3-.55-1.5q-.3-.75-.05-.95l.4.4.55.75.4.5-.5-.75-1-1.9-2.9-4.9q-.85-1.2-.95-1.95l2.1 3q5.85 7.55 12.1 11.65l1.25.9.35.25v.1l.1-.05-.1.05v-.1q-1.1-4.8-6.25-11.25l.6-.35q3.95 5.75 6.65 11V58l.25.3-.25-.3v-.25l.25.55.1.25.05-.5-.25-.6h.05l.2.2.45.4.4.45.05-.1.1-.3-.25-.55-.45-1.45.25.15.5.45q.15.25.4.2l.3.05-.25-.55-.1-.3-.15-.25.25.15.5.8.55.7 1.3 1.65-.25-.95-1.35-2.95-.3-.45.05-.05 6.65 7.2.15-.1.4-.2.45-.1.4-.1 1-.2-.25-2.65q-.6-4.8-1.6-7.2-1-2.45 3.1 4.25 4 6.65 4.7 6.25.55-.35 1.45.2l-.4 1.05q-.55.75-.3 2.15.9.15 1.4-.35l.7-.75q.3-.25.65.5-1 .5-1.6 1.4l-.15.35q-.25.65.45 1.5l.35-.2 2.3-1.35-3.95 2.65-3.35 1.15-1.6-.55v.15q.05.45.5.8l-.4.15q-.4-.15-1-.7-1.3-1.05-1.8-1.2l-1.05-.95.7 1.15-2.45-1.5.9 1.55-1.6-1.5q.5.6.35.85l-.9-.85-.3-.3.3.45-.5-.05-1.75-1.95.85 1.55 1.2 2.85-.8-.75q-1.3-1.3-.65-.3l-.05.05-1.85-1.55.45.95-1.9-1.3.8 1.6-1.45-.75.3.9-1.5-1 .6 1.2-2.45-1.95 1.15 2.4-.25-.25q-1.05-.7-1.55-1.35l1.4 2.3-.1-.1q-.8-.3-1.75-1.55l1.3 2.2-1.45-1.05.55.9q.95 1.5.55 1.35-.35-.4-.65-.45-.75-.05-1.65-.8l1.7 2.1-.55-.15q-1.2-.45-.5.8l.1.15q-.15.3-.6 0l.5.55.05.15-1.85-.15 1.5 1.85-1.35-.05-1.55-1.15.3 1.9-2.9-1.7-2.55-1.9-1.2-1.15 3.35-.65-2.05-2.25-2.8-.05-4.1-3.65-2.35-3.45 4 2.85q.9.7 1.75.7.4.05.25-.65-.2-.7.55-.15v.05l.3.2-.3-.25-.75-.9-.55-.95.8-.35.15-.3-.5-.45-1.15-1.1-.6-.55q1.7 1.1 3.2 1.5l1.55.35.25-.35-.2-.45-1.65-2.15.05-.1m13.85-.35 1.1 1.9.6-.35-.95-1.65.95 1.65-.6.35-1.1-1.9-.25-.6-.25.25q0-.25-.1.1h.1v.05l.1.05.4.15m-8.35-5.95.8 2 .1.2.6.9.15.25.25.2q.95 1.2 2.05 1.85l.7.4.4.2.7.6 1.05.75.1-.05.1-.6-.15-.75-.75-.55-.6-.35-.15-.15-1-.75-.85-.7-.3-.2-.85-.55-.3-.3-1.45-1.5-.6-.9m12.8 4.35-.4-.45 1.15 1.85.6 1.05.05.15.5 1.45.05.1.5-.3q.25-.2.7.2l.45.55.55.55-.7-1-.3-.35-1.8-2-1.35-1.8m-5.05 1.4v-.05.05m0-.05v-.05.05m2.4 17.15q2.05 1.45 4.5 1.65l.15-.3v-.95l-.1-1q1.25.6 2.55.75l.75-.15q.4-.2.9-.25l.25.2q.2.4-.35.7l-5.05 2.4-1 .35q-1.55.7-2.55 1.85l-.3.4-.7.5-5.7 3.65-1 .7-.25.25-.25.4-.35.95-.6.1q-1.2-.15-2.25-.75l-.4-.25-.2-.15q-.35.15-.2.55-1.3-2.3-3-4.2l-2.2-1.9-.9-.3-3.25-.7.05-.2q2-.25 3.95 0 1.05.1 1.9.5l.4.2-.65-1-.7-.7-.05-.1 3.05.95.75.3q.85.35 1.55 1.15l.2.25q-.6-1.5-1.6-2.65l1.35.6q1.6.6 3.35.8l2.8.2 3.2.35 1.4-.15.45-.6.15-1.75-.15-2.6.1-.05" fill="#f5eed3" fill-rule="evenodd" transform="translate(-308.45 -40.4)"/><path d="m324.85 65.5 4.1 3.65 2.8.05 2.05 2.25-3.35.65 1.2 1.15 2.55 1.9 2.9 1.7-.3-1.9 1.55 1.15 1.35.05-1.5-1.85 1.85.15-.05-.15-.5-.55q.45.3.6 0l-.1-.15q-.7-1.25.5-.8l.55.15-1.7-2.1q.9.75 1.65.8.3.05.65.45.4.15-.55-1.35l-.55-.9L342 70.9l-1.3-2.2q.95 1.25 1.75 1.55l.1.1-1.4-2.3q.5.65 1.55 1.35l.25.25-1.15-2.4 2.45 1.95-.6-1.2 1.5 1-.3-.9 1.45.75-.8-1.6 1.9 1.3-.45-.95 1.85 1.55.05-.05q-.65-1 .65.3l.8.75-1.2-2.85-.85-1.55L350 67.7l.5.05-.3-.45.3.3.9.85q.15-.25-.35-.85l1.6 1.5-.9-1.55 2.45 1.5-.7-1.15 1.05.95q.5.15 1.8 1.2.6.55 1 .7l.4-.15q-.45-.35-.5-.8v-.15l1.6.55 3.35-1.15 3.95-2.65 3.5-2.05-8.85 9.25q-5.9 3.1-10.6 8.1l.15.25-.05.05-.1-.3.1.3-6.2 3.8q-7.5 4.9-16.75 5.45h-1.1l-.8-.8 4.1-3.55v-1.95l-21.1-7.4L322 78.6l-.1-.25-.6.15-3.65-6.3h.15l1.7 2.85-4.25-10.45q3 4.3 6.45 7.4l-1.7-3.5.75 1q1.1 1.45 2.15 1.85l.7.25-.25-1.25-.2-.35-.05-.2.3.3-4.2-9.5 6.55 6.2-.9-1.3m23.1-8.45 1.35 1.8 1.8 2 .3.35.7 1-.55-.55-.45-.55q-.45-.4-.7-.2l-.5.3-.05-.1-.5-1.45-.05-.15-.6-1.05-1.15-1.85.4.45m-12.8-4.35.6.9 1.45 1.5.3.3.85.55.3.2.85.7 1 .75.15.15.6.35.75.55.15.75-.1.6-.1.05-1.05-.75-.7-.6-.4-.2-.7-.4q-1.1-.65-2.05-1.85l-.25-.2-.15-.25-.6-.9-.1-.2-.8-2m-2 34.45q-.15-.4.2-.55l.2.15.4.25q1.05.6 2.25.75l.6-.1.35-.95.25-.4.25-.25 1-.7 5.7-3.65.7-.5.3-.4q1-1.15 2.55-1.85l1-.35 5.05-2.4q.55-.3.35-.7l-.25-.2q-.5.05-.9.25l-.75.15q-1.3-.15-2.55-.75l.1 1v.95l-.15.3q-2.45-.2-4.5-1.65l-.15-.15.05.2-.05-.2.15.15-.1.05.15 2.6-.15 1.75-.45.6-1.4.15-3.2-.35-2.8-.2q-1.75-.2-3.35-.8l-1.35-.6q1 1.15 1.6 2.65l-.2-.25q-.7-.8-1.55-1.15l-.75-.3-3.05-.95.05.1.7.7.65 1-.4-.2q-.85-.4-1.9-.5-1.95-.25-3.95 0l-.85-.05.8.25-.8-.25.85.05-.05.2 3.25.7.9.3 2.2 1.9q1.7 1.9 3 4.2l.2.35-.2-.35.2.35-.2-.35m-6.35-9.05q1 0 1.9.65-.9-.65-1.9-.65m5.85.65-1.4-.8-.4-.3.4.3 1.4.8" fill="#fffdea" fill-rule="evenodd" transform="translate(-308.45 -40.4)"/><path d="m34.45 17.95-.35-.25-1.25-.9q-6.25-4.1-12.1-11.65l-2.1-3q.1.75.95 1.95L22.5 9l1 1.9.5.75-.4-.5-.55-.75-.4-.4q-.25.2.05.95l.55 1.5.05.3-1.55-1.55-1.65-1.9 1.4 3.2q.2.55-.1.35v.3l2.7 4.65q2.05 3.25-3.5-1.9l.05.25q.05 1-.15-.3v-.05l-.05-.25q-.2.8-1.4-.25l-1.35-1.1-.95-.75q1.4 2.25 3.15 3.75l1.8 1.7-.3-.15-.2-.15H21l.15.1 1.65 2.15.2.45-.25.35-1.55-.35q-1.5-.4-3.2-1.5l.6.55 1.15 1.1.5.45-.15.3-.8.35.55.95.75.9.3.25-.3-.2v-.05q-.75-.55-.55.15.15.7-.25.65-.85 0-1.75-.7l-4-2.85 2.35 3.45m41.3.9-2.3 1.35-.35.2q-.7-.85-.45-1.5l.15-.35q.6-.9 1.6-1.4-.35-.75-.65-.5l-.7.75q-.5.5-1.4.35-.25-1.4.3-2.15l.4-1.05q-.9-.55-1.45-.2-.7.4-4.7-6.25-4.1-6.7-3.1-4.25 1 2.4 1.6 7.2l.25 2.65-1 .2-.4.1-.45.1-.4.2-.15.1-6.65-7.2-.45-.65-.55-.9m.95 1.6.3.45 1.35 2.95.25.95-1.3-1.65-.55-.7-.5-.8-.25-.15.15.25.1.3.25.55-.3-.05q-.25.05-.4-.2l-.5-.45-.25-.15.45 1.45.25.55-.1.3-.05.1-.4-.45-.45-.4-.35-.35.1.15.25.6-.05.5-.1-.25-.25-.3v-.25l.25.2.15.1m-.8.6-.4-.15-.1-.05V18l-.1.05v-.1q-1.1-4.8-6.25-11.25l.6-.35q3.95 5.75 6.65 11m2.35-2.95-.4-.7m-1.7 4.2-.25-.55m-1 .65v.05m.1-.05v-.1q0-.25-.1.1h.1m0-.1.05.1-.05.05m-.1-.1V18m.1-.1.25-.25.25.6m6.8 23.35.05-.05m-.15-.25.1.3-6.2 3.8q-7.5 4.9-16.75 5.45h-1.1l-.8-.8 4.1-3.55v-1.95L0 37.15l13.55 1.05-.1-.25-.6.15-3.65-6.3-.2-.5.35.5 1.7 2.85L6.8 24.2q3 4.3 6.45 7.4l-1.7-3.5.75 1q1.1 1.45 2.15 1.85l.7.25-.25-1.25-.2-.35-.05-.2.3.3-4.2-9.5v-.05l-.3-.5.3.55 6.55 6.2-.9-1.3m25.35 16.2q4.7-5 10.6-8.1l8.85-9.25L57.7 26M18 19.8l-.75-.35m3.25-3.6.1.05-.1-.45-.05.1" fill="none" stroke="#600" stroke-linecap="round" stroke-linejoin="round" stroke-opacity=".69" stroke-width=".05"/><path d="m26.7 12.3.8 2 .1.2.6.9.15.25.25.2q.95 1.2 2.05 1.85l.7.4.4.2.7.6 1.05.75.1-.05.1-.6-.15-.75-.75-.55-.6-.35-.15-.15-1-.75-.85-.7-.3-.2-.85-.55-.3-.3-1.45-1.5-.6-.9m12.8 4.35-.4-.45 1.15 1.85.6 1.05.05.15.5 1.45.05.1.5-.3q.25-.2.7.2l.45.55.55.55-.7-1-.3-.35-1.8-2-1.35-1.8" fill="none" stroke="#fffdea" stroke-linecap="round" stroke-linejoin="round" stroke-width=".05"/><path d="m344.25 58.55.95 1.65-.6.35-1.1-1.9" fill="none" stroke="#f5eed3" stroke-linecap="round" stroke-linejoin="round" transform="translate(-308.45 -40.4)"/><path d="m24.7 46.75.2.35-.2-.35m-9.35-7.1-.8-.25.85.05m4.9-1-.05-.1q-.9-.65-1.9-.65m18.4-2.5-.05-.2.15.15m-14.45 2.1.4.3 1.4.8" fill="none" stroke="#d9cebf" stroke-linecap="round" stroke-linejoin="round" stroke-width=".05"/></g><use width="87.5" height="104.45" xlink:href="#d" id="b"/></defs></svg>