<svg viewBox="0 0 408.85 315.55" xmlns="http://www.w3.org/2000/svg" xmlns:xlink="http://www.w3.org/1999/xlink"><g transform="translate(-53.425 -37.725)"><use transform="matrix(1.0879 -.3931 .3395 .9394 248.33 183.77)" width="64.15" height="38.25" xlink:href="#a"/><use transform="matrix(1.1251 -.2672 .2307 .9715 175.28 240.16)" width="64.15" height="38.25" xlink:href="#a"/><use transform="matrix(1.1459 -.1522 .1314 .9895 104.89 282.91)" width="64.15" height="38.25" xlink:href="#a"/><use transform="translate(53.45 142.9)" width="284.45" height="210.35" xlink:href="#b"/><use transform="matrix(1.2121 -.2542 .2195 1.0467 335.08 104.56)" width="64.15" height="38.25" xlink:href="#a"/><use transform="matrix(3.5685 -1.5827 .4486 1.9906 395.58 86.505)" width="14.3" height="14.3" xlink:href="#c"/><use transform="translate(432.8 75.9)" width="13" height="14.65" xlink:href="#d"/><use transform="matrix(2.5549 -1.5124 .8107 1.3696 369.96 102.46)" width="20.25" height="18.95" xlink:href="#e"/><use transform="translate(71 37.75)" width="391.25" height="301.85" xlink:href="#f"/></g><defs><g id="g"><path d="M58.35 5.15q2.1 1.85 3.25 3.7.45 1.45 0 2.9-.4 1.5-1.3 2.5-1.6 1.15-4.15 1.4-2.1-.3-3.1-1-1.45-1.3-2-2.65l-1.55 1.65-.8-.5-.55 1.2-1 .4-.9-.3-.35.8L44 16l-.85-.6-.3 1.05-1.95.75-.8-1.15-.05.1q0 .85-.4 1.55l-2.05.8 1.3-1.4q-8.85 4.35-18.25 8l3.45-.7q-3.25 2.1-7 3.4l-2.05 2 .6 2.95q.15 1.3-.65 2.25-1.1.7-3.25 1.05-1.65-.35-2.4-1.25-1.05-2.25-.8-4.7l-.55.7H4.85q-1.5-.35-3-1.9-.75-2.15 0-4.1l.35-2.95.95-1.45Q5.2 19 7.6 18.8q3.45 1.55 5.25 3.3l14.6-5.95 14.85-7.5 2.35-.9.5-2.1L46.35 3q1.4-1.95 4.2-3l3 1.25q1.3 1.2 1.85 2.35.3 1.1 0 2.15l2.05-.4.9-.2m-3.75.75.8-.15-.8.1-1.3.1L52.75 8q-3.1 2.05-7 1.4 1.25.25 2.45.75 2.85.95 5.25-.85 1.75-1.4 1.15-3.4M12.2 22.35l.65-.25-.65.25m42-10.4.1.2 1.65 1.05q1.65-.2 2.85-1.5v-.15q.1-1.4-.45-2.7l.05.4-.35-.9-.15-.1-.35-.35.2.35q.3.7.2 1.4l-.2.05-.65.15.15.05.65.35-1.05.3.8.1.25.2v.35l-.1.3-.85-.15.3.3q.25.25-.1.45l-.4.05-.7-.3-.05-.1-.1.55q0 .4-.4.3l-1.3-.65M25.75 20.4l8.4-4.5-21.25 9.35 2.95-.45 9.9-4.4" fill="#f3ebda" fill-rule="evenodd" transform="translate(.05 .05)"/><path d="M8.55 30.1q-.25 2.45.8 4.7.75.9 2.4 1.25Q13.9 35.7 15 35q.8-.95.65-2.25l-.6-2.95 2.05-2q3.75-1.3 7-3.4l-3.45.7q9.4-3.65 18.25-8l-1.3 1.4 2.05-.8q.4-.7.4-1.55l.05-.1.8 1.15 1.95-.75.3-1.05.85.6 1.9-.75.35-.8.9.3 1-.4.55-1.2.8.5L51.05 12q.55 1.35 2 2.65 1 .7 3.1 1 2.55-.25 4.15-1.4.9-1 1.3-2.5.45-1.45 0-2.9-1.15-1.85-3.25-3.7 1.9.15 3.3 1.1 1.7 1.6 2.4 3.4.05 2.25-.85 4.5-.65 1.05-2.05 2.1-1.7 1.15-3.75 1.55-1.5 0-3.15-.75l-3.3-1.65-20.75 8.25-12.45 6.6.1 3.8q-.15.8-1.05 1.75l-1.75 1.55q-.9.6-2.7.8-2.6-.3-3.5-.8-1.2-.9-1.45-1.95-.4-1.4 0-2.8-1.65.3-2.3 0Q2.15 31.7.8 30q-1.15-2.65-.6-5.15l2-3-.35 2.95q-.75 1.95 0 4.1 1.5 1.55 3 1.9H8l-.6.7v1.1-1.1l.6-.7.55-.7m48.9-24.75-2.05.4q.3-1.05 0-2.15-.55-1.15-1.85-2.35l-3-1.25h3.05q2.45.65 3.35 1.65.65 1.5.5 3v.7m-2.85.55q.6 2-1.15 3.4-2.4 1.8-5.25.85-1.2-.5-2.45-.75 3.9.65 7-1.4l.55-2.05 1.3-.1v.05m-.4 6.05 1.3.65q.4.1.4-.3l.1-.55.05.1.7.3.4-.05q.35-.2.1-.45l-.3-.3.85.15.1-.3v-.35l-.25-.2-.8-.1 1.05-.3-.65-.35-.15-.05.65-.15.2-.05q.1-.7-.2-1.4l-.2-.35.35.35.15.1.35.9-.05-.4q.55 1.3.45 2.7v.15q-1.2 1.3-2.85 1.5l-1.65-1.05-.1-.2m-4.05 3.1.8.35-.8-.35m-24.4 5.35-9.9 4.4-2.95.45 21.25-9.35-8.4 4.5m-8 9.85-.05-1.4.05 1.4" fill="#a79d91" fill-rule="evenodd" transform="translate(.05 .05)"/><path d="m58.4 5.2-.9.2-2.05.4M50.6.05q-2.8 1.05-4.2 3L45.2 5.7l-.5 2.1-2.35.9-14.85 7.5-14.6 5.95-.65.25M58.4 5.2q1.9.15 3.3 1.1 1.7 1.6 2.4 3.4.05 2.25-.85 4.5-.65 1.05-2.05 2.1-1.7 1.15-3.75 1.55-1.5 0-3.15-.75L51 15.45 30.25 23.7 17.8 30.3l.1 3.8q-.15.8-1.05 1.75L15.1 37.4q-.9.6-2.7.8-2.6-.3-3.5-.8-1.2-.9-1.45-1.95-.4-1.4 0-2.8-1.65.3-2.3 0-2.95-.9-4.3-2.6Q-.3 27.4.25 24.9l2-3 .95-1.45q2.05-1.4 4.45-1.6 3.45 1.55 5.25 3.3M50.6.05h3.05Q56.1.7 57 1.7q.65 1.5.5 3v.7M51 15.45l-.8-.35M17.75 28.9l.05 1.4m-9.75.55.55-.7m-1.15 2.5v-1.1l.6-.7" fill="none" stroke="#000" stroke-linecap="round" stroke-linejoin="round" stroke-opacity=".502" stroke-width=".1"/></g><g id="b"><path d="m281 176.35 20.95 6.1q9.95-20.4 27.7-32.55l8.25 4.6q-20.35 14.7-32.55 39.45l-24.6-17.25.25-.35m-75.2 54.9 30.4 10.25q19.45-25.75 46.85-43.2l11.75 7.8q-35.7 21.95-59.8 55.45l-29.35-30.15.15-.15M135.2 307l9.8 15.3q-38.25 8.3-65.2 30.95l-26.35-51.5 1.75-.6 30.5 28.4q24-19.45 49.5-22.55m76.55-50.5 13.7 13.75q-40.6 11.85-63.65 44.7l-33.15-41.2 2.8-1.6 37.15 20.3q18.45-22.95 43.15-35.95" fill="#a58a7a" fill-rule="evenodd" transform="translate(-53.45 -142.9)"/><path d="M281 176.35q25.65-13.4 36.3-33.45l12.35 7q-17.75 12.15-27.7 32.55l-20.95-6.1-.25.35-.1-.05.35-.3m-75.2 54.9q39.45-13.9 60.6-44.05l16.65 11.1q-27.4 17.45-46.85 43.2l-30.4-10.25m-150.6 69.9q37.75-1.95 62.3-21.65l17.7 27.5q-25.5 3.1-49.5 22.55l-30.5-28.4m156.55-44.65q-24.7 13-43.15 35.95l-37.15-20.3q49.45-8.65 61.4-34.65l18.9 19" fill="#dec7a1" fill-rule="evenodd" transform="translate(-53.45 -142.9)"/><path d="m276.2 7-12.35-7q-10.65 20.05-36.3 33.45l-.35.3.1.05 24.6 17.25.6.45M276.2 7l8.25 4.6Q264.1 26.3 251.9 51.05m-22.3 4.35-16.65-11.1q-21.15 30.15-60.6 44.05M229.6 55.4l11.75 7.8q-35.7 21.95-59.8 55.45L152.2 88.5l.15-.15m-70.6 75.75 9.8 15.3q-38.25 8.3-65.2 30.95L0 158.85l1.75-.6q37.75-1.95 62.3-21.65l17.7 27.5M78 129.25l-2.8 1.6 33.15 41.2q23.05-32.85 63.65-44.7l-13.7-13.75M78 129.25q49.45-8.65 61.4-34.65l18.9 19" fill="none" stroke="#000" stroke-linecap="round" stroke-linejoin="round" stroke-opacity=".251" stroke-width=".05"/></g><g id="h"><path d="M-.65 7.05q-1.5-.15-2.75-.85l-1.55-1.25Q-7.1 2.9-7.1-.05t2.15-5.05q2.05-2.1 5-2.1l.75.05q1.5.15 2.85.9Q-1.7-4.8-2.9.15-4.1 4.9-.65 7.05" fill="#dcdcdc" fill-rule="evenodd" transform="translate(7.1 7.2)"/><path d="M-.65 7.05Q-4.1 4.9-2.9.15q1.2-4.95 6.55-6.4L5.1-5.1Q7.15-3 7.2-.05q-.05 2.95-2.1 5Q2.95 7.05.05 7.1l-.7-.05" fill="#fff" fill-rule="evenodd" transform="translate(7.1 7.2)"/><path d="M10.75.95Q9.4.2 7.9.05L7.15 0q-2.95 0-5 2.1Q0 4.2 0 7.15t2.15 5L3.7 13.4q1.25.7 2.75.85m4.3-13.3L12.2 2.1q2.05 2.1 2.1 5.05-.05 2.95-2.1 5-2.15 2.1-5.05 2.15l-.7-.05" fill="none" stroke="#746330" stroke-linecap="round" stroke-linejoin="round" stroke-width=".05"/></g><g id="i"><path d="m7.9-8.3-3.55.25q-2.1.4-4.1 2.1l.5-1.2.75-.95 6.4-.2M.2-5.9q.35.15 4.2-1.25Q.35-4 1.3-2L-.45-3.25q-.1.85-2.25 1.55Q1.7-1.4 4-.3-.2-1.4-3.3-.7l-1.2-.95q-3.2-2.95-5.55-1.6l1.15-.95q2.3-.5 4.35 1.45 2.2-.8 2.25-1.5Q-.9-4.65.2-5.9m-.55 9.65q.2.95 1 2.05-1.4-.7-2.1-.2l.05.65-.05-.65q4.5 3.7 7.1 3.65-.7.75-5.4-.7-1.35-.95-1.65-2.3-1.8-1.5-1.9-2.95l-.1-.25q1.75 1.2 3.05.7" fill="#b35042" fill-rule="evenodd" transform="translate(10.15 9.45)"/><path d="M8.15-8.25q1.3.15 1.95.6l-2.85.1q-1.9-.3-2.85.4Q.55-5.75.2-5.9l.05-.05q2-1.7 4.1-2.1L7.9-8.3l.25.05M4-.3Q.5.5-.4 1.9q-.25.8.05 1.85-1.3.5-3.05-.7-.25-.4-1.25-1.1Q-6 .9-6.15-.6q-.15-1.2-1.35-2-1.25-.85-2.65-.5l.1-.15Q-7.7-4.6-4.5-1.65l1.2.95q3.1-.7 7.3.4M.65 5.8q.55.3 1.15.75 1.85.75 3.85 2.7-2.6.05-7.1-3.65.7-.5 2.1.2" fill="#8c3935" fill-rule="evenodd" transform="translate(10.15 9.45)"/><path d="M1.3-2 4-.3Q1.7-1.4-2.7-1.7q2.15-.7 2.25-1.55L1.3-2M-8.9-4.2q.9-.55 2.05-.65t2.65.7l1.9-.1q-.05.7-2.25 1.5Q-6.6-4.7-8.9-4.2" fill="#f48a8a" fill-rule="evenodd" transform="translate(10.15 9.45)"/><path d="M10.1-7.65q-.65-.45-1.95-.6L7.9-8.3l-6.4.2q1.3-1.35 3.95-1.35 3.5.3 4.65 1.8" fill="#f8abab" fill-rule="evenodd" transform="translate(10.15 9.45)"/><path d="m11.45 7.45 2.7 1.7q-3.5.8-4.4 2.2-.25.8.05 1.85.2.95 1 2.05.55.3 1.15.75 1.85.75 3.85 2.7-.7.75-5.4-.7-1.35-.95-1.65-2.3-1.8-1.5-1.9-2.95l-.1-.25q-.25-.4-1.25-1.1Q4.15 10.35 4 8.85q-.15-1.2-1.35-2Q1.4 6 0 6.35m8.75 9.35-.05-.65q.7-.5 2.1.2" fill="none" stroke="#602624" stroke-linecap="round" stroke-linejoin="round" stroke-width=".05"/><path d="M14.55 2.3q.95-.7 2.85-.4l2.85-.1Q19.1.3 15.6 0q-2.65 0-3.95 1.35M10.4 3.5l.5-1.2.75-.95M0 6.35l.1-.15 1.15-.95q.9-.55 2.05-.65t2.65.7l1.9-.1q1.4-.4 2.5-1.65m4.2-1.25q-4.05 3.15-3.1 5.15" fill="none" stroke="#602624" stroke-linecap="round" stroke-linejoin="round" stroke-width=".05"/><path d="m18.3 1.2-.25-.05M10.4 3.5l-.05.05M5.65 7.8Q2.45 4.85.1 6.2" fill="none" stroke="#602624" stroke-linecap="round" stroke-linejoin="round" stroke-width=".05"/></g><g id="f"><path d="m403.55 41.45.6 8.8L413 54.7l-.05.1-1.2.05-3.35.2-3.6.35q-3.1 3.95-4.6 5.25l-2.55 2.15-3.9 2.55-2.4 1.2-4.25 1.6-7.75 1.05-.65.05-4.85 3.05-9.1 5.6-1.55 2-4.7 6.55-7.45 10.35-4.3 5.85-5.2 7.2-2.1 2.95-.45 3.35v.1l-.45 2.7-1 5.2q-2.8 12.15-7.75 19.25-4.45 6.4-8.55 9.35l.2-.1q-7.7-1.7-15.35-2.4l-13.15-5.65 6.6-10.8 10.85-28.95.65-.55q25.9-22.55 48.2-43.05l.4-.45 1.95-6.6q9.45 2.8 20 1.75l.7-.05q11.8-5.05 21.25-14.45m-91.4 102.05q-7.25-3.4-4.15-12.55l-6.5 9.15 10.65 3.4m71.95-77.45-6.6-2.7-4.05 5.65 5.05-2.9 5.6-.05m-47.45 48.35 5.4-9.75-7.2 8.35-1.45 17.2q2.6-7.75 3.25-15.8m64.95-61.1.15-.4 3.6.05-4-2.8-.1-.05-7.05 10.65q4.6-1.8 7.4-7.45m-39.7 20.75-9 16.2 10.45-14.15 3.75-2.4-5.2.35" fill="#feefc5" fill-rule="evenodd" transform="translate(-71 -37.75)"/><path d="m412.95 54.8-.85 1.35-.35-1.3.35 1.3-3.2 5.3-.9 1.4-3.2-7.45 3.6-.35 3.35-.2 1.2-.05M402.3 65.85l-3.85 2.25-.8-5.3 2.55-2.15q.9 1.75 2.1 5.2m-5.75 3.85-.55.75-2.75 1.95-.35 4.8-1.9-1.9-4.35 3.5-2.65 3.35-3.2-.75.05-3.9-.05-.65 7.3-6.05.55-.9 3.2 3.55-.5-6.9 2.4-1.2 2.8 4.35M378.4 86.8l-2.6 2.7-.65 5.65L372.5 97l.2 6.3-4.55-1.35 1.5 7.45-6.15.8 2.15 7.95-5 1.25 1.2 5.45q-2.45-.05-5.35.85l-1.55.6q-5.6 2.15-7.95 6.15-4.2 5.75-5.9 8.6l-.2.35q-2.6 4.65-.15 6.7l4.55 4.25-.2.2q-6.85-4.8-11.55-2.1-1.4.9-4.65 1.8l-4.55 1.15-3 .6-.15-1.15.05-.1q4.1-2.95 8.55-9.35 4.95-7.1 7.75-19.25l2.6.15-1.6-5.35.45-2.7 5.3 2.3-2.75-8.7 5.2-7.2 3.45 2.2q-3.25 7.55-6.1 15.3 5.85-1.6 12.1-5.5 1.8-1.15 3.3.25l.5-1.7-.65-2.95 3.4-6.95 2.1.45 6.4-10.8 1.4-5.45 4.8-4.5.95 3.8m-38.05 53.35.55 1.25-.55-1.25m10.7-43.35 7.45-10.35q.05.35.25.5-2.6 4.95-5.05 10l-2 4.5-.65-4.65m57.25-36.6.6 1.25-.6-1.25" fill="#352720" fill-rule="evenodd" transform="translate(-71 -37.75)"/><path d="m345.85 152.85 1.4 1.25-1.25-.9-.9-.65.2-.2.55.5.15.35-.15-.35M363.2 79.9l1.55-2 9.1-5.6q2.3 6.2 3.6 10.7l-4.8 4.5-1.4 5.45-6.4 10.8-2.1-.45-3.4 6.95.65 2.95-.5 1.7q-1.5-1.4-3.3-.25-6.25 3.9-12.1 5.5 2.85-7.75 6.1-15.3l2.2 1.5-.7-4.9 2-4.5q2.45-5.05 5.05-10l1.7 3.4q4.6 8.6 5 7.95.75-1.75-1.35-13.7l-.9-4.7m16.15-10.7 7.75-1.05 1.55 1.75-.55.9-7.3 6.05-.15-1.7q-.4-3.1-1.3-5.95" fill="#875c34" fill-rule="evenodd" transform="translate(-71 -37.75)"/><path d="M408 62.85q2.8 7.4 2.95 11.15.25 5.2-1.35 19.95-4.45-19.45-7.3-28.1-1.2-3.45-2.1-5.2 1.5-1.3 4.6-5.25l3.2 7.45m-9.55 5.25.9 5.8-2.8-4.2-2.8-4.35 3.9-2.55.8 5.3M380.8 81.4q-.1 3.75-.7 7.6-1 5.9-1.1 2.35l-.6-4.55-.95-3.8q-1.3-4.5-3.6-10.7l4.85-3.05.65-.05q.9 2.85 1.3 5.95l.15 1.7.05.65-.05 3.9m-42.25 37.55 1.6 5.35-2.6-.15 1-5.2m.45-2.7v-.1l.45-3.35 2.1-2.95 2.75 8.7-5.3-2.3m7.75-13.6 4.3-5.85.65 4.65.7 4.9-2.2-1.5-3.45-2.2m11.75-16.2 4.7-6.55.9 4.7q2.1 11.95 1.35 13.7-.4.65-5-7.95l-1.7-3.4q-.2-.15-.25-.5m28.6-18.3 4.25-1.6.5 6.9-3.2-3.55-1.55-1.75" fill="#b3ae88" fill-rule="evenodd" transform="translate(-71 -37.75)"/><path d="m412.1 56.15 1.45 6.05q2.95 5.4.7 13.45l-5.35-14.2 3.2-5.3m-71.2 85.25 4.95 11.45-.55-.5-4.55-4.25q-2.45-2.05.15-6.7" fill="#432e29" fill-rule="evenodd" transform="translate(-71 -37.75)"/><path d="m292.95 144.6-3.35-1.45q7.05-9.5 9.05-14.95l6.6-17.35.9-2.2 2.2-5.55 29.85-25.6 19.05-19.3 3.1-7.8q3 1.2 7.3 1.85l12.55-.45 2.7-.85q3.8-1.5 7.45-3.65 6.65-3.85 12.9-9.55l.3 3.7q-9.45 9.4-21.25 14.45l-.7.05q-10.55 1.05-20-1.75l-1.95 6.6-.4.45q-22.3 20.5-48.2 43.05l-.65.55-10.85 28.95-6.6 10.8m91.15-78.55-5.6.05-5.05 2.9 4.05-5.65 6.6 2.7m-22.2 8 5.2-.35-3.75 2.4-10.45 14.15 9-16.2m39.7-20.75q-2.8 5.65-7.4 7.45l7.05-10.65.1.05 4 2.8-3.6-.05-.15.4" fill="#fddb80" fill-rule="evenodd" transform="translate(-71 -37.75)"/><path d="m221.95 106.85-3.35-1.45q7.05-9.5 9.05-14.95l6.6-17.35.9-2.2 2.2-5.55 29.85-25.6 19.05-19.3 3.1-7.8q3 1.2 7.3 1.85l12.55-.45 2.7-.85q3.8-1.5 7.45-3.65Q326 5.7 332.25 0l.3 3.7.6 8.8 8.85 4.45-.05.1m-.85 1.35 1.45 6.05q2.95 5.4.7 13.45l-5.35-14.2-.6-1.25m-.3 2.65q2.8 7.4 2.95 11.15.25 5.2-1.35 19.95-4.45-19.45-7.3-28.1m-61.4 75.55 4.95 11.45.15.35m-.9-.65q-6.85-4.8-11.55-2.1-1.4.9-4.65 1.8l-4.55 1.15-3 .6-.15-1.15.05-.1.2-.1q-7.7-1.7-15.35-2.4l-13.15-5.65m47.95-3.2-.55-1.25m71.4-85.3.35 1.3" fill="none" stroke="#000" stroke-linecap="round" stroke-linejoin="round" stroke-opacity=".302" stroke-width=".05"/><path d="m298.35 140.2 12.55-17.75q-5.95 17.7 7.95 24.25l-20.5-6.5M336.9 113.95q-.85 11-4.4 21.55l2-23.45 9.8-11.35-7.4 13.25" fill="#fddb80" fill-rule="evenodd" transform="translate(-71 -37.75)"/><path d="m460.2 134.25-4.7-5.75 4.55-9.8-.05-.05-1.05.95-2.75 2.6-3.15 2.75-6.9.6-3.35.9q-2.35.65-4.75 1.65-1.25.55-2.6 1.25l-4.4 2.5-6.95 5.75-.55.4-5.8 2.2-10.7 4.15h-10.2l-12.2-.05H365.7q-1.15-.9-2.35-1.65l-.05-.05-2.05-1.2-3.85-2.25q-9.5-4.95-17.8-5.1-7.4-.2-12.55 1.45l.3-.1q-5.25 7.2-11.05 13.95l-7.35 14.1 11.75.95 26.1 8.3.8-.2q34.55-7.75 64.85-13.75l.6-.15 5.5 2.3q6.05-9.3 15.25-17.35l.6-.5q12.65-6.65 25.8-8.8m-135 14.15q-3.9 7.9 4.15 10.85l-10.8-.15 6.65-10.7m104.6-12.9-3.7 7-6.7-.05 5.85-2.35 4.55-4.6m-67.4 10.15 10.25 1.3-10.85.95-11.4-9q6.75 2.45 12 6.75m89.25-16.85.35.1 2.9-2.95-1.6 4.95-.05.15-12.05-.6q4.8-2.7 10.45-1.65m-44.6 20.1L390 146.65l16.95-.1 4.5-1.7-4.4 4.05" fill="#feefc5" fill-rule="evenodd" transform="translate(-71 -37.75)"/><path d="m460 118.65-1.5-.1.45 1.05-.45-1.05-5.8-.55-1.6-.05 1.95 7 3.15-2.75 2.75-2.6 1.05-.95m-15.25 2.2-4.5 1.75 2.55 3.85 3.35-.9q-.3-1.8-1.4-4.7m-6.95 2.4-.9-.05-3.4 1.1-3.15-2.55-.35 2.7-5.7 1.5-4.15.15-2.15 3 2.35 2.3.35.45 9.55-2.35 1 .05.5-4.7 3.7 4.5q1.35-.7 2.6-1.25l-.25-4.85m-24.95 4.65-3.75.55-3.9-2.85-3.3 1.1-3.5-3.9-2.9 4.4-3.3-5.55-5.4 4.55-3-6.5-4.8 3.35-2.25-4.2q-2 2-4.85 3.9l-1.65.9q-5.85 3.25-10.15 2.85l-9.9-.3h-.35q-4.85-.65-4.15-3.85l1.25-6.25h-.3q-2.75 8.45-8.2 10.7-1.65.6-4.85 2.75l-4.35 3-2.8 2.1.55.8.05.05q5.15-1.65 12.55-1.45 8.3.15 17.8 5.1l2-2.2 1.85 4.45 2.05 1.2 2.95-5.65 2.9 7.35h8.5l1.5-4.1q-7.15-1.85-14.05-4.1 5.7-3.8 13.1-6.65 2.15-.75 2.55-2.8l1.45.6 1.2 2.3 6.9 1.3 1.45-1.95 11.65 1.2q2.2.95 4.4 2.05l6.55-1.2-1.5-3.05m-62.7-.55-.3-1.15.3 1.15m34.5 16.95 12.2.05-.05-.5-10.05-1.8-4.35-1.05 2.25 3.3M453 119.25l-.3-1.25.3 1.25" fill="#352720" fill-rule="evenodd" transform="translate(-71 -37.75)"/><path d="m347.05 115.35.4-1.9-.5 1.6-.3 1.05h.3l.1-.75-.1-.3.1.3m57.55 29h2.45l10.7-4.15q-1.8-5.5-3.4-9.25l-6.55 1.2q-2.2-1.1-4.4-2.05l-11.65-1.2-1.45 1.95-6.9-1.3-1.2-2.3-1.45-.6q-.4 2.05-2.55 2.8-7.4 2.85-13.1 6.65 6.9 2.25 14.05 4.1l.9-2.65 2.35 3.45 4.35 1.05 10.05 1.8-.65-3.4q-1.4-8.9-.7-8.8 1.7.4 7.05 9.25l2.1 3.45m19.5-6.75 6.95-5.75.2-2.3-1-.05-9.55 2.35.95 1.15q1.5 2.1 2.45 4.6" fill="#875c34" fill-rule="evenodd" transform="translate(-71 -37.75)"/><path d="M451.1 117.95q-2.05-6.7-4.15-9.05-2.9-3.25-13-10.65 8 15.1 10.8 22.6 1.1 2.9 1.4 4.7l6.9-.6-1.95-7m-10.85 4.65-2.7-4.15.25 4.8.25 4.85q2.4-1 4.75-1.65l-2.55-3.85M418 129.1q-2.25-2.1-5.1-3.85-4.25-2.75-2.25-.55 1.05 1.1 2.2 3.2l1.5 3.05q1.6 3.75 3.4 9.25l5.8-2.2.55-.4q-.95-2.5-2.45-4.6l-.95-1.15-.35-.45-2.35-2.3m-56.75 12.3-1.85-4.45-2 2.2 3.85 2.25m2.05 1.2.05.05q1.2.75 2.35 1.65h3.45l-2.9-7.35-2.95 5.65m14.35 1.7h7l-2.25-3.3-2.35-3.45-.9 2.65-1.5 4.1m19.2.05h7.75l-2.1-3.45q-5.35-8.85-7.05-9.25-.7-.1.7 8.8l.65 3.4.05.5m34.2-12.5 4.4-2.5-3.7-4.5-.5 4.7-.2 2.3" fill="#b3ae88" fill-rule="evenodd" transform="translate(-71 -37.75)"/><path d="m458.5 118.55-2.4-4.7q-.85-5.7-7.45-8.6L452.7 118l5.8.55m-108.65 7.65-2.8-10.85-.1.75-1.25 6.25q-.7 3.2 4.15 3.85" fill="#432e29" fill-rule="evenodd" transform="translate(-71 -37.75)"/><path d="M308.95 163.45 307.1 167q11.4-.15 16.2 1.5l15.7 4.85 2.05.6 5.15 1.5 39.5-9.15 26.95-4.15 7.15 2.1q1.75-3.2 4.85-7.1 5.05-6.35 10.55-10 1.25-.9 2.65-1.7 4-2.2 8.25-3.85 7.7-3.2 16.15-4.9l-2.05-2.45q-13.15 2.15-25.8 8.8l-.6.5q-9.2 8.05-15.25 17.35l-5.5-2.3-.6.15q-30.3 6-64.85 13.75l-.8.2-26.1-8.3-11.75-.95M429.8 135.5l-4.55 4.6-5.85 2.35 6.7.05 3.7-7m-22.75 13.4 4.4-4.05-4.5 1.7-16.95.1 17.05 2.25m44.6-20.1q-5.65-1.05-10.45 1.65l12.05.6.05-.15 1.6-4.95-2.9 2.95-.35-.1" fill="#fddb80" fill-rule="evenodd" transform="translate(-71 -37.75)"/><path d="m237.95 125.7-1.85 3.55q11.4-.15 16.2 1.5l15.7 4.85 2.05.6 5.15 1.5 39.5-9.15 26.95-4.15 7.15 2.1q1.75-3.2 4.85-7.1 5.05-6.35 10.55-10 1.25-.9 2.65-1.7 4-2.2 8.25-3.85 7.7-3.2 16.15-4.9l-2.05-2.45-4.7-5.75 4.55-9.8-.05-.05m-1.5-.1-2.4-4.7q-.85-5.7-7.45-8.6l4.05 12.75.3 1.25m-1.9-1.3q-2.05-6.7-4.15-9.05-2.9-3.25-13-10.65 8 15.1 10.8 22.6m-94.9 5.35-2.8-10.85m-.4.75q-2.75 8.45-8.2 10.7-1.65.6-4.85 2.75l-4.35 3-2.8 2.1.55.8.05.05.3-.1q-5.25 7.2-11.05 13.95l-7.35 14.1m38-48.4.1.3m2.8 10.85.3 1.15m108.8-7.75-.45-1.05" fill="none" stroke="#000" stroke-linecap="round" stroke-linejoin="round" stroke-opacity=".302" stroke-width=".05"/><path d="m315.95 161.65 20.75.35q-15.4-5.7-7.9-20.95l-12.85 20.6M362.95 145.65q-7.25-5.8-16.4-9.15l15.6 12.25 14.7-1.25-13.9-1.85" fill="#fddb80" fill-rule="evenodd" transform="translate(-71 -37.75)"/><path d="M91.1 288.6q2.9-5.05 9.65-4.65l23.5 32.25-10.55 4.9-22.6-32.5m27.65-13.35 5.8-2.8 20 34.3-10.25 4.8-15.55-36.3M137.9 266q5.9-6.1 15.3-7.4l23.2 33.3-16.7 7.8-21.8-33.7m23.25-11.2q2.6-5.1 7.4-3.6l27.85 31.4-10.75 5-24.5-32.8M93 330.75 71 296.6q4.6-4.7 11.2-2.85l20.1 32.7-9.3 4.3" fill="#dd3700" fill-rule="evenodd" transform="translate(-71 -37.75)"/><path d="m91.1 288.6 22.6 32.5-11.4 5.35-20.1-32.7-.4-.65q7.1.85 9.3-4.5m33.15 27.6-23.5-32.25q9.45.7 18-8.7l15.55 36.3-10.05 4.65m.3-43.75q7.75.55 13.35-6.45l21.8 33.7-15.15 7.05-20-34.3m28.65-13.85q6 1.9 7.95-3.8l24.5 32.8-9.25 4.3-23.2-33.3" fill="#9d2700" fill-rule="evenodd" transform="translate(-71 -37.75)"/><path d="m113.7 321.1 10.55-4.9 7.5 10.3q-3.85 5.2-10.7 3.85l-.75.25-6.6-9.5m82.7-38.5 7.8 8.75q-4.35 4.45-11.35 4.05l-1.1.4-.6-.75-5.5-7.45 10.75-5m-13.35 18.85.8 1.05q-3.25 6.6-11.5 9.5l-.95.35-2.9 1-8.8-13.65 16.7-7.8 6.65 9.55m-31.2 17.85q-4.65 5-12.3 4.45l-5.25-12.2 10.25-4.8 7.3 12.55m-44.4 15.5q-2.5 5.55-8.85 4.65l-5.6-8.7 9.3-4.3 5.15 8.35" fill="#8c2300" fill-rule="evenodd" transform="translate(-71 -37.75)"/><path d="M191.15 295.05q-6.45 1.05-8.1 6.4l-6.65-9.55 9.25-4.3 5.5 7.45m-22.65 18.3q-9.3-1.35-16.65 5.95l-7.3-12.55 15.15-7.05 8.8 13.65m-28.95 10.4q-5-1.95-7.8 2.75l-7.5-10.3 10.05-4.65 5.25 12.2m-19.25 6.85q-7.05-1.15-12.85 4.2l-5.15-8.35 11.4-5.35 6.6 9.5" fill="#6a1b00" fill-rule="evenodd" transform="translate(-71 -37.75)"/><path d="M29.75 246.2q-6.75-.4-9.65 4.65l22.6 32.5 6.6 9.5q-7.05-1.15-12.85 4.2-2.5 5.55-8.85 4.65L22 293 0 258.85q4.6-4.7 11.2-2.85l-.4-.65q7.1.85 9.3-4.5m33.15 27.6-23.5-32.25q9.45.7 18-8.7l5.8-2.8q7.75.55 13.35-6.45 5.9-6.1 15.3-7.4 6 1.9 7.95-3.8 2.6-5.1 7.4-3.6l27.85 31.4 7.8 8.75q-4.35 4.45-11.35 4.05l-.9.7-.2-.3-.6-.75q-6.45 1.05-8.1 6.4l.8 1.05q-3.25 6.6-11.5 9.5l-.95.35-2.9 1q-9.3-1.35-16.65 5.95-4.65 5-12.3 4.45-5-1.95-7.8 2.75-3.85 5.2-10.7 3.85l-.75.25.75-.25m38.65-30.65-21.8-33.7M73.55 269l-20-34.3m9.75 39.1-15.55-36.3m13 51.25-7.5-10.3m10.05-4.65 5.25 12.2m12.3-4.45L73.55 269M31.3 288.7l5.15 8.35m-5.15-8.35L11.2 256m109.55 2.05 1.1-.4m-7.2-7.8 5.5 7.45m-5.5-7.45-24.5-32.8m15.25 37.1 6.65 9.55m-6.65-9.55-23.2-33.3m6.5 41.1 8.8 13.65" fill="none" stroke="#000" stroke-linecap="round" stroke-linejoin="round" stroke-opacity=".302" stroke-width=".05"/></g><use width="64.15" height="38.25" xlink:href="#g" id="a"/><use width="14.3" height="14.3" xlink:href="#h" id="c"/><use width="20.25" height="18.95" xlink:href="#i" id="e"/><path d="m433.3 81.75 5.95 1 .6-6.35m5.45 7.55-6.05-1.2-.8 7.3" fill="none" stroke="#666" stroke-linecap="round" stroke-linejoin="round" transform="translate(-432.8 -75.9)" id="d"/></defs></svg>