<svg viewBox="0 0 99.281 92.15" xmlns="http://www.w3.org/2000/svg" xmlns:xlink="http://www.w3.org/1999/xlink"><use transform="translate(.03 .02)" width="99.25" height="92.1" xlink:href="#a"/><defs><g id="a"><path d="m233.65 296.1-2-2.45 26.45-27.05 2.25-3.8 10.2.65.85 1.1 20.6-2.75 5.7-10-.15-1.8q.05-2.85 1.15-4.35l1.35-1.85-1.75-13.25.9-1.2 15.2.85q.45-2.1-.35-4.05 3.35 1.8 3.7 5.35l-16.45-1.1 3.4 14.65-1.05 5.15-3.35 3.2-7.3 11.95-.05.25-21.05 2-.1-1.25-1.7 1.3-9.4.7.3 1.9-8.05 9.95.95-3.2-20.25 19.1" fill="#765b23" fill-rule="evenodd" transform="translate(-231.65 -207.2)"/><path d="M317.75 231.5v.75l-15.2 1.9 3.5 10.85.95 1.65q-.2 4.15-1.9 7.8l-10.8 13.8-24.4 1.9-1.7 1.35-3.85 1.05-28.15 26.75-2.55-3.2L253.9 277l-.95 3.2 8.05-9.95-.3-1.9 9.4-.7 1.7-1.3.1 1.25 21.05-2 .05-.25 7.3-11.95 3.35-3.2 1.05-5.15-3.4-14.65 16.45 1.1" fill="#523f18" fill-rule="evenodd" transform="translate(-231.65 -207.2)"/><path d="M86.1 24.3v.75l-15.2 1.9 3.5 10.85.95 1.65q-.2 4.15-1.9 7.8l-10.8 13.8-24.4 1.9-1.7 1.35-3.85 1.05L4.55 92.1 2 88.9l-2-2.45L26.45 59.4l2.25-3.8 10.2.65.85 1.1 20.6-2.75 5.7-10-.15-1.8q.05-2.85 1.15-4.35l1.35-1.85-1.75-13.25.9-1.2 15.2.85q.45-2.1-.35-4.05 3.35 1.8 3.7 5.35z" fill="none" stroke="#000" stroke-linecap="round" stroke-linejoin="round" stroke-opacity=".302" stroke-width=".05"/><path d="M314.25 228.3q-5.75-.9-5.1-10 7.5 2.6 5.1 10" fill="#50925f" fill-rule="evenodd" transform="translate(-231.65 -207.2)"/><path d="M82.6 21.1q-5.75-.9-5.1-10 7.5 2.6 5.1 10z" fill="none" stroke="#000" stroke-linecap="round" stroke-linejoin="round" stroke-opacity=".302" stroke-width=".05"/><path d="M317.05 230.45q-5.95-12.4 12.8-23.25 4.8 18.05-12.75 23.25h-.05" fill="#85c47b" fill-rule="evenodd" transform="translate(-231.65 -207.2)"/><path d="M85.4 23.25Q79.45 10.85 98.2 0q4.8 18.05-12.75 23.25z" fill="none" stroke="#000" stroke-linecap="round" stroke-linejoin="round" stroke-opacity=".302" stroke-width=".05"/></g></defs></svg>