<svg viewBox="0 0 94.748 96.713" xmlns="http://www.w3.org/2000/svg" xmlns:xlink="http://www.w3.org/1999/xlink"><use transform="translate(0 .01)" width="94.75" height="96.7" xlink:href="#a"/><defs><g id="a"><path d="M90.3 24.9 68.95 3.5" fill="none" stroke="#000" stroke-linecap="round" stroke-linejoin="round" stroke-opacity=".6" stroke-width=".6"/><path d="M291.6 167.75q.2-4.45 3.4-11.55l.2-.4q3.6-2.6 6.65-3.05 3.95.85 9.35 4.85-5.05-1.25-9 .7l-1.3.75-3.4-2.5 1.65 4.05q-1.55 1.75-2.15 4.25-.65 2.6 2.05 8.25l-4.25 3.1q-2.2-2.95-3.05-7.35v-.2l-.15-.9" fill="#b8e0f5" fill-rule="evenodd" transform="translate(-227.5 -152.2)"/><path d="M301.85 152.75q-3.05.45-6.65 3.05l-.2.4q-3.2 7.1-3.4 11.55-.7-4.1.15-7.6 1.45-6 5.5-7.35 2-.6 4.6-.05" fill="#ebf5fc" fill-rule="evenodd" transform="translate(-227.5 -152.2)"/><path d="M74.35.55q-2.6-.55-4.6.05-4.05 1.35-5.5 7.35-.85 3.5-.15 7.6m.15.9v.2q.85 4.4 3.05 7.35m4.25-3.1q-2.7-5.65-2.05-8.25.6-2.5 2.15-4.25m1.75-1.55 1.3-.75q3.95-1.95 9-.7-5.4-4-9.35-4.85" fill="none" stroke="#000" stroke-linecap="round" stroke-linejoin="round" stroke-opacity=".6" stroke-width=".6"/><path d="m67.3 24 4.25-3.1m.1-12.5L70 4.35l3.4 2.5" fill="none" stroke="#000" stroke-linecap="round" stroke-linejoin="round" stroke-opacity=".6" stroke-width=".6"/><path d="m308.1 178 1.5-.1q2.5-.65 4.25-2.2l4.05 1.7-.95-1.3-.1-.15 3-7.65q2.95 5.55 1.75 9.25-1.25 4.1-7.3 5.6l-6.95.25.75-5.4" fill="#b8e0f5" fill-rule="evenodd" transform="translate(-227.5 -152.2)"/><path d="m316.85 175.95-1.5-1.95.75-1.3q1.95-4.05.75-9.05l3 4.65-3 7.65" fill="#ebf5fc" fill-rule="evenodd" transform="translate(-227.5 -152.2)"/><path d="m307.35 183.4-1.7-.25q-4.4-.9-7.35-2.95l3.1-4.3q4.2 2 6.7 2.1l-.75 5.4" fill="#7cc6ed" fill-rule="evenodd" transform="translate(-227.5 -152.2)"/><path d="m70.8 28 3.1-4.3m12.45-.2 4.05 1.7-.95-1.3m-.1-.15-1.5-1.95" fill="none" stroke="#000" stroke-linecap="round" stroke-linejoin="round" stroke-opacity=".6" stroke-width=".6"/><path d="m79.85 31.2-1.7-.25q-4.4-.9-7.35-2.95m3.1-4.3q4.2 2 6.7 2.1l1.5-.1q2.5-.65 4.25-2.2m1.5-1.7.75-1.3q1.95-4.05.75-9.05l3 4.65q2.95 5.55 1.75 9.25-1.25 4.1-7.3 5.6l-6.95.25" fill="none" stroke="#000" stroke-linecap="round" stroke-linejoin="round" stroke-opacity=".6" stroke-width=".6"/><path d="m298.65 170.9 1.35-1.4 5.75 6.55-11.05 11.2-1.15-1.4-.75 3.3q-23.75 21.05-48.75 49.1l-1.75-.3-.1-.1v.1l.1 2.1-8.3 8.35-6-.05.25-2.05 2.35.25.95-.9 5.7-4.9.05.05.45-.45 1.4-1.3 1.65-1.4-.1-1.5-.1-.15 2.05-.4 2.65-2.6 46.5-45.8.8-2.5 5.4-5.15 3.95-3.7-3.3-4.95m-5.1 14.95-.95-1.15.95 1.15m-51.35 52-1.5-1.7 1.5 1.7m-3.5 4.85-1.4-1.9-5.05 5.5-.7-.65.7.65 5.05-5.5 1.4 1.9" fill="#5c512c" fill-rule="evenodd" transform="translate(-227.5 -152.2)"/><path d="m228.25 246.3.4-4.15 8.35-8.5 1.7.3.1.05.05-2.25q28.55-25.6 50.3-51.2l1.3 1.5.5-3.3 7.7-7.85 3.3 4.95-3.95 3.7-5.4 5.15-.4-.55 5.8-4.6-5.8 4.6.4.55-.8 2.5-46.5 45.8-2.65 2.6-2.05.4.1.15.1 1.5-1.65 1.4-1.4 1.3-.45.45-.05-.05L236 239l1.25 1.75-5.7 4.9-.95.9-2.35-.25m64.65-65.6-1.95 1.95-.5-.6.5.6 1.95-1.95M273.7 200l-1.75 1.85 1.75-1.85 10-10.4-10 10.4 1.35 1.6 5.8-5.95-5.8 5.95-1.35-1.6m18.5-15.85-3.05 2.7 3.05-2.7m-2.55-.25 1.3-1.25-1.3 1.25M238.8 234l1.8 2-1.8-2m36.25-32.4L245.3 233l29.75-31.4m-45.15 42.6 1.65 1.45-1.65-1.45" fill="#8e7c44" fill-rule="evenodd" transform="translate(-227.5 -152.2)"/><path d="m71.15 18.7 1.35-1.4 5.75 6.55" fill="none" stroke="#000" stroke-linecap="round" stroke-linejoin="round" stroke-opacity=".6" stroke-width=".6"/><path d="m14.8 85.75-.1-.1v.1M65.1 32.5l.95 1.15m-3.1-3.8.5.6 1.95-1.95m5.1-1.15-5.8 4.6.4.55M13.2 83.95l1.5 1.7m48.75-55.2-1.3 1.25m-.5 2.95 3.05-2.7m-8.5 5.45-10 10.4 1.35 1.6 5.8-5.95m-8.9 6.2 1.75-1.85M9.75 88.55l.05.05.45-.45 1.4-1.3M8.5 86.8l1.25 1.75m-5.7 4.9.7.65 5.05-5.5 1.4 1.9m1.9-6.7-1.8-2M4.05 93.45 2.4 92m15.4-11.2 29.75-31.4" fill="none" stroke="#000" stroke-linecap="round" stroke-linejoin="round" stroke-width=".05"/><path d="m305.75 176.05-11.05 11.2-1.15-1.4-.75 3.3q-23.75 21.05-48.75 49.1l-1.75-.3m-.1 0 .1 2.1-8.3 8.35-6-.05.25-2.05.4-4.15 8.35-8.5 1.7.3.1.05.05-2.25q28.55-25.6 50.3-51.2l1.3 1.5.5-3.3 7.7-7.85z" fill="none" stroke="#000" stroke-linecap="round" stroke-linejoin="round" stroke-opacity=".6" transform="translate(-227.5 -152.2)"/><path d="m305.65 168.5-1.7-1.75 3.9-3.85 3.55 3.6-5.75 2" fill="#b8e0f5" fill-rule="evenodd" transform="translate(-227.5 -152.2)"/><path d="m311.4 166.5.3.25-3.85 3.9-2.2-2.15 5.75-2" fill="#7cc6ed" fill-rule="evenodd" transform="translate(-227.5 -152.2)"/><path d="m78.15 16.3-1.7-1.75 3.9-3.85 3.55 3.6.3.25-3.85 3.9z" fill="none" stroke="#000" stroke-linecap="round" stroke-linejoin="round" stroke-opacity=".6" stroke-width=".6"/><path d="m310.05 172.05-.55-.6 2.6-2.6 1.8 1.8-3.85 1.4" fill="#b8e0f5" fill-rule="evenodd" transform="translate(-227.5 -152.2)"/><path d="m313.9 170.65.8.8-2.6 2.65-2.05-2.05 3.85-1.4" fill="#7cc6ed" fill-rule="evenodd" transform="translate(-227.5 -152.2)"/><path d="m82.55 19.85-.55-.6 2.6-2.6 2.6 2.6-2.6 2.65z" fill="none" stroke="#000" stroke-linecap="round" stroke-linejoin="round" stroke-opacity=".6" stroke-width=".6"/><path d="m301.1 162.65-.2-.3 2.55-2.65 2.2 2.2-4.55.75" fill="#b8e0f5" fill-rule="evenodd" transform="translate(-227.5 -152.2)"/><path d="m305.65 161.9.45.45-2.65 2.65-2.35-2.35 4.55-.75" fill="#7cc6ed" fill-rule="evenodd" transform="translate(-227.5 -152.2)"/><path d="m78.15 9.7.45.45-2.65 2.65-2.35-2.35-.2-.3 2.55-2.65z" fill="none" stroke="#000" stroke-linecap="round" stroke-linejoin="round" stroke-opacity=".6" stroke-width=".6"/></g></defs></svg>