<svg viewBox="0 0 56.174 58.164" xmlns="http://www.w3.org/2000/svg" xmlns:xlink="http://www.w3.org/1999/xlink"><g transform="translate(-246.9 -170.89)"><use transform="translate(250.65 170.9)" width="52.4" height="53.2" xlink:href="#a"/><use transform="rotate(-127.789 182.77 43.301) scale(.1725)" width="5.75" height="99.05" xlink:href="#b"/><use transform="matrix(.1057 .1363 -.1295 .1004 286.85 192.6)" width="5.75" height="99.05" xlink:href="#b"/><use transform="matrix(.1363 -.1057 .1057 .1363 263 189.6)" width="5.75" height="99.05" xlink:href="#b"/><use transform="matrix(-.1363 .1057 -.1004 -.1295 284.7 215.9)" width="5.75" height="99.05" xlink:href="#b"/><use transform="matrix(-.1711 -.0216 .0216 -.1711 272.15 220.55)" width="5.75" height="99.05" xlink:href="#b"/><use transform="matrix(.1711 .0216 -.0206 .1626 275.45 186.65)" width="5.75" height="99.05" xlink:href="#b"/><use transform="matrix(.0216 -.1711 .1711 .0216 256.45 201.35)" width="5.75" height="99.05" xlink:href="#b"/><use transform="matrix(-.0216 .1711 -.1626 -.0206 290.45 204.65)" width="5.75" height="99.05" xlink:href="#b"/><use transform="rotate(-127.8 179.941 50.585) scale(.1426)" width="5.75" height="99.05" xlink:href="#b"/><use transform="matrix(.0874 .1127 -.1071 .0831 272.05 205.85)" width="5.75" height="99.05" xlink:href="#b"/><use transform="rotate(-37.784 423.14 -266.808) scale(.1426)" width="5.75" height="99.05" xlink:href="#b"/><use transform="matrix(-.1127 .0874 -.0831 -.1071 270.2 225.2)" width="5.75" height="99.05" xlink:href="#b"/><use transform="matrix(-.1415 -.0179 .0179 -.1415 259.85 229.05)" width="5.75" height="99.05" xlink:href="#b"/><use transform="matrix(.1415 .0179 -.017 .1345 262.6 201)" width="5.75" height="99.05" xlink:href="#b"/><use transform="matrix(.0179 -.1415 .1415 .0179 246.9 213.15)" width="5.75" height="99.05" xlink:href="#b"/><use transform="matrix(-.0179 .1415 -.1345 -.017 275 215.9)" width="5.75" height="99.05" xlink:href="#b"/><use transform="rotate(-127.78 176.753 42.677) scale(.095)" width="5.75" height="99.05" xlink:href="#b"/><use transform="matrix(.0582 .0751 -.0714 .0553 265.85 196.6)" width="5.75" height="99.05" xlink:href="#b"/><use transform="rotate(-37.765 411.183 -271.89) scale(.095)" width="5.75" height="99.05" xlink:href="#b"/><use transform="matrix(-.0751 .0582 -.0553 -.0714 264.6 209.45)" width="5.75" height="99.05" xlink:href="#b"/><use transform="matrix(-.0942 -.0119 .0119 -.0942 257.75 212)" width="5.75" height="99.05" xlink:href="#b"/><use transform="matrix(.0942 .0119 -.0113 .0896 259.55 193.3)" width="5.75" height="99.05" xlink:href="#b"/><use transform="matrix(.0119 -.0942 .0942 .0119 249.1 201.45)" width="5.75" height="99.05" xlink:href="#b"/><use transform="matrix(-.0119 .0942 -.0896 -.0113 267.8 203.25)" width="5.75" height="99.05" xlink:href="#b"/><use transform="matrix(.1026 .0668 -.0654 .103 288.85 183.25)" width="5.75" height="99.05" xlink:href="#b"/><use transform="matrix(-.1026 -.0668 .0621 -.0979 276.55 204)" width="5.75" height="99.05" xlink:href="#b"/><use transform="matrix(-.0654 .103 -.1026 -.0668 293.05 200.4)" width="5.75" height="99.05" xlink:href="#b"/><use transform="matrix(.0654 -.103 .0975 .0635 272.4 187.8)" width="5.75" height="99.05" xlink:href="#b"/><use transform="matrix(.1187 -.0256 .0263 .1201 279.6 181.75)" width="5.75" height="99.05" xlink:href="#b"/><use transform="matrix(-.1187 .0256 -.025 -.1141 285.45 205.3)" width="5.75" height="99.05" xlink:href="#b"/><use transform="matrix(.0263 .1201 -.1187 .0256 294.55 190.95)" width="5.75" height="99.05" xlink:href="#b"/><use transform="matrix(-.0263 -.1201 .1129 -.0243 271.25 196.75)" width="5.75" height="99.05" xlink:href="#b"/><use transform="matrix(.0848 .0553 -.054 .0852 293.35 174.35)" width="5.75" height="99.05" xlink:href="#b"/><use transform="matrix(-.0848 -.0553 .0514 -.081 283.15 191.55)" width="5.75" height="99.05" xlink:href="#b"/><use transform="matrix(-.054 .0852 -.0848 -.0553 296.85 188.55)" width="5.75" height="99.05" xlink:href="#b"/><use transform="matrix(.054 -.0852 .0806 .0525 279.8 178.15)" width="5.75" height="99.05" xlink:href="#b"/><use transform="matrix(.0982 -.0212 .0218 .0993 285.7 173.15)" width="5.75" height="99.05" xlink:href="#b"/><use transform="matrix(-.0982 .0212 -.0207 -.0944 290.6 192.6)" width="5.75" height="99.05" xlink:href="#b"/><use transform="matrix(.0218 .0993 -.0982 .0212 298.1 180.75)" width="5.75" height="99.05" xlink:href="#b"/><use transform="matrix(-.0218 -.0993 .0933 -.0201 278.85 185.5)" width="5.75" height="99.05" xlink:href="#b"/><use transform="matrix(.0565 .0368 -.036 .0567 296.3 184.95)" width="5.75" height="99.05" xlink:href="#b"/><use transform="matrix(-.0565 -.0368 .0342 -.0539 289.5 196.35)" width="5.75" height="99.05" xlink:href="#b"/><use transform="matrix(-.036 .0567 -.0565 -.0368 298.6 194.4)" width="5.75" height="99.05" xlink:href="#b"/><use transform="matrix(.036 -.0567 .0537 .035 287.25 187.45)" width="5.75" height="99.05" xlink:href="#b"/><use transform="matrix(.0654 -.0141 .0145 .0662 291.2 184.1)" width="5.75" height="99.05" xlink:href="#b"/><use transform="matrix(-.0654 .0141 -.0138 -.0629 294.45 197.1)" width="5.75" height="99.05" xlink:href="#b"/><use transform="matrix(.0145 .0662 -.0654 .0141 299.4 189.2)" width="5.75" height="99.05" xlink:href="#b"/><use transform="matrix(-.0145 -.0662 .0622 -.0134 286.6 192.35)" width="5.75" height="99.05" xlink:href="#b"/></g><defs><radialGradient id="d" cx="0" cy="0" r="819.2" gradientTransform="rotate(-135.209 176.708 38.98) scale(.0062)" gradientUnits="userSpaceOnUse"><stop stop-color="#f90" stop-opacity=".471" offset=".114"/><stop stop-color="#ff0" stop-opacity="0" offset="1"/></radialGradient><radialGradient id="e" cx="0" cy="0" r="819.2" gradientTransform="rotate(-135.951 174.12 45.698) scale(.0032)" gradientUnits="userSpaceOnUse"><stop stop-color="#f90" stop-opacity=".471" offset=".114"/><stop stop-color="#ff0" stop-opacity="0" offset="1"/></radialGradient><radialGradient id="f" cx="0" cy="0" r="819.2" gradientTransform="matrix(.0158 .0074 -.0074 .0158 289.1 184.85)" gradientUnits="userSpaceOnUse"><stop stop-color="#f90" stop-opacity=".471" offset=".114"/><stop stop-color="#ff0" stop-opacity="0" offset="1"/></radialGradient><radialGradient id="g" cx="0" cy="0" r="819.2" gradientTransform="matrix(.0015 .0007 -.0007 .0015 289.9 178.2)" gradientUnits="userSpaceOnUse"><stop stop-color="#f90" stop-opacity=".471" offset=".114"/><stop stop-color="#ff0" stop-opacity="0" offset="1"/></radialGradient><radialGradient id="h" cx="0" cy="0" r="819.2" gradientTransform="matrix(.0015 .0007 -.0007 .0015 285.85 181.55)" gradientUnits="userSpaceOnUse"><stop stop-color="#f90" stop-opacity=".471" offset=".114"/><stop stop-color="#ff0" stop-opacity="0" offset="1"/></radialGradient><radialGradient id="i" cx="0" cy="0" r="819.2" gradientTransform="translate(280.25 189.5) scale(.002)" gradientUnits="userSpaceOnUse"><stop stop-color="#f90" stop-opacity=".471" offset=".114"/><stop stop-color="#ff0" stop-opacity="0" offset="1"/></radialGradient><radialGradient id="j" cx="0" cy="0" r="819.2" gradientTransform="rotate(24.62 -298.755 731.562) scale(.0033)" gradientUnits="userSpaceOnUse"><stop stop-color="#f90" stop-opacity=".471" offset=".114"/><stop stop-color="#ff0" stop-opacity="0" offset="1"/></radialGradient><radialGradient id="l" cx="0" cy="0" r="819.2" gradientTransform="matrix(.003 .0014 -.0014 .003 288.6 190)" gradientUnits="userSpaceOnUse"><stop stop-color="#f90" stop-opacity=".471" offset=".114"/><stop stop-color="#ff0" stop-opacity="0" offset="1"/></radialGradient><radialGradient id="m" cx="0" cy="0" r="819.2" gradientTransform="translate(287.75 195.7) scale(.002)" gradientUnits="userSpaceOnUse"><stop stop-color="#f90" stop-opacity=".471" offset=".114"/><stop stop-color="#ff0" stop-opacity="0" offset="1"/></radialGradient><radialGradient id="n" cx="0" cy="0" r="819.2" gradientTransform="rotate(-135.209 188.213 38.445) scale(.0062)" gradientUnits="userSpaceOnUse"><stop stop-color="#f90" stop-opacity=".471" offset=".114"/><stop stop-color="#ff0" stop-opacity="0" offset="1"/></radialGradient><radialGradient id="o" cx="0" cy="0" r="819.2" gradientTransform="rotate(-135.951 180.028 50.142) scale(.0032)" gradientUnits="userSpaceOnUse"><stop stop-color="#f90" stop-opacity=".471" offset=".114"/><stop stop-color="#ff0" stop-opacity="0" offset="1"/></radialGradient><radialGradient id="p" cx="0" cy="0" r="819.2" gradientTransform="matrix(-.0033 -.0033 .0033 -.0033 272.8 203.7)" gradientUnits="userSpaceOnUse"><stop stop-color="#f90" stop-opacity=".471" offset=".114"/><stop stop-color="#ff0" stop-opacity="0" offset="1"/></radialGradient><radialGradient id="q" cx="0" cy="0" r="819.2" gradientTransform="matrix(-.0033 -.0033 .0033 -.0033 264.05 205.4)" gradientUnits="userSpaceOnUse"><stop stop-color="#f90" stop-opacity=".471" offset=".114"/><stop stop-color="#ff0" stop-opacity="0" offset="1"/></radialGradient><radialGradient id="r" cx="0" cy="0" r="819.2" gradientTransform="rotate(-135.099 173.87 56.864) scale(.0024)" gradientUnits="userSpaceOnUse"><stop stop-color="#f90" stop-opacity=".471" offset=".114"/><stop stop-color="#ff0" stop-opacity="0" offset="1"/></radialGradient><radialGradient id="s" cx="0" cy="0" r="819.2" gradientTransform="rotate(-135.099 176.884 54.18) scale(.0024)" gradientUnits="userSpaceOnUse"><stop stop-color="#f90" stop-opacity=".471" offset=".114"/><stop stop-color="#ff0" stop-opacity="0" offset="1"/></radialGradient><linearGradient id="c" x1="-819.2" x2="819.2" gradientTransform="matrix(.0203 -.0044 .0045 .0205 285.15 191.8)" gradientUnits="userSpaceOnUse"><stop stop-color="#ff0" stop-opacity="0" offset="0"/><stop stop-color="#f90" offset="1"/></linearGradient><linearGradient id="k" x1="-819.2" x2="819.2" gradientTransform="matrix(.0078 .0074 -.0036 .0039 284.95 207.6)" gradientUnits="userSpaceOnUse"><stop stop-color="#ff0" stop-opacity="0" offset="0"/><stop stop-color="#f90" offset="1"/></linearGradient><linearGradient id="t" x1="-819.2" x2="819.2" gradientTransform="matrix(.0203 -.0044 .0045 .0205 280.15 196.8)" gradientUnits="userSpaceOnUse"><stop stop-color="#ff0" stop-opacity="0" offset="0"/><stop stop-color="#f90" offset="1"/></linearGradient><linearGradient id="u" x1="-819.2" x2="819.2" gradientTransform="matrix(0 -.0327 .0035 0 2.85 50.75)" gradientUnits="userSpaceOnUse"><stop stop-color="#f90" stop-opacity=".471" offset=".114"/><stop stop-color="#ff0" stop-opacity="0" offset="1"/></linearGradient><path d="M5.75 0v99.05H0V0h5.75" fill="url(#u)" fill-rule="evenodd" id="b"/><g id="a"><path d="M275.95 180.3q-2.95-1.65-3.7-1.1-.6.8 1.45 4.2l1.45 2.2 1.55 2 1.8 2.1.1.45q.25.7.9 1l.55.2.2.4.05.3-.25.7H280l-.65.3h-.05l-.4-.1-.3-.2q-2.85-2.9-4.8-5.6l-1.8-2.75q-3.1-5.1-1.2-6.65 1.45-1.75 5.95.75l.75.4q1.85 1.1 3.8 2.6l3.45 2.95.05.05 1.85 1.8 1.2 1.2h-.1q-1 .35-1.45 1.25l-1.05-1.05-4.6-4.15q-2.2-1.75-4.2-2.9v-.05l-.5-.3" fill="url(#c)" fill-rule="evenodd" transform="translate(-250.65 -170.9)"/><path d="M273.8 187.15q1.95 2.7 4.8 5.6l.3.2.4.1h.05l-.05.2-.35-.2h-.05l-.35-.1h-.05l-7.4-4.5v.05l-.05-.05q1.2-1.1 2.75-1.3m4.7 2.55-1.8-2.1 1.25.95.55.6v.55m-3.35 7.2-.65.05q-2.05 0-3.5-1.4-1.45-1.45-1.45-3.5 0-1.1.4-1.95l.15.1 7.75 4.7.5.25-.4.4q-.4 0-.65.25l-.25.45-.95.45-.95.2" fill="url(#d)" fill-rule="evenodd" transform="translate(-250.65 -170.9)"/><path d="M270.4 198.4v.05l-.05-.1.05.05m-3.15-1.95 1.85 3.95q-1.65-1.4-3.15-2.3l-.6-.35q.15-.7.7-1.25l.5-.45.7.4" fill="url(#e)" fill-rule="evenodd" transform="translate(-250.65 -170.9)"/><path d="M275.15 185.6q-.2-2.65.8-5.3l.5.3v.05q2 1.15 4.2 2.9-.2.8-.15 1.65 0 1.4.4 2.65-.6-.25-1.25 0-.7.25-1 .9l-.15.4-.55-.6-1.25-.95-1.55-2m6.15-4.1q-1.95-1.5-3.8-2.6l-.75-.4q2.45-4.85 7.6-6.75 5.45-1.95 10.65.5 5.25 2.4 7.2 7.85t-.45 10.7q-1.45 3-3.8 4.9-1.45-1.35-3.4-1.35l-1.1.1-1.1-1.6 2.5-1.8q2.4-2.45 2.4-5.95 0-3.25-2.15-5.55l.55.7-.8-.95q-1.65-1.6-3.8-1.75l-.05-.05q2 .1 3.5 1.45l.3.25.1.15.2.2-.2-.2-.1-.15-.3-.25q-2.4-2.2-5.7-2.2-3.5.05-5.9 2.55-1.05 1-1.6 2.2m-1.05 10.25-.2-.4.65-.05-.45.45m5.25 5.1-1.75-1 .35-.1q1-.4 1.5-1.35.3-.7.2-1.4 1.45.55 3.1.55l1.4-.1 1.35 1.85-.6.5q-1.3 1.25-1.4 3.05h-.75l-1.45-.85-.1-.15-.35-.5 1.4.1 1-.95q.3-.65.05-1.35-.25-.75-.9-1.05l-1.4-.05q-.7.25-1 .9-.3.55-.15 1.15v.05l-.5.7m3.1-18.95q-1.25.45-2.25 1.45l-.75.9.8-1q.95-1 2.2-1.4v.05" fill="url(#f)" fill-rule="evenodd" transform="translate(-250.65 -170.9)"/><path d="m287.85 187.5-1.2-1.2-1.85-1.8-.1-.9v-.15l.1-1 .45.35.7.15v.5q.1 1.9 1.5 3.35l.75.6-.35.1m8.55-4.15V183q-.05-1.55-.8-2.7l.75 1.45.25 1.8q0 2.45-1.75 4.2-1.55 1.6-3.7 1.75l-.1-.4-.5-.85h.65q2.15 0 3.7-1.5 1.35-1.45 1.5-3.4m-5.3-5.7q2 .1 3.55 1.5l-.15-.05-.1-.15q-1.4-1.15-3.25-1.15l-.05-.15m-2.55.8-1.15.9-.8 1.1-.2-.1-.7-.1.7-.85q.95-1 2.15-1.4v.45m-34.7 40.25.25.55-.25.65-.6.25-.6-.25-.25-.6q0-.35.25-.6l.6-.25q.35 0 .6.25" fill="#feeabc" fill-rule="evenodd" transform="translate(-250.65 -170.9)"/><path d="m291.15 177.8-.05 1.05-.3.4-.45.25-1.05-.05q-.5-.25-.65-.75l-.1-.25V178l.05-.1v-.05l.05-.2q.25-.5.8-.7l1 .05.55.5.05.05.05.1.05.15" fill="url(#g)" fill-rule="evenodd" transform="translate(-250.65 -170.9)"/><path d="m290.8 179.25.3-.4.05-1.05q1.85 0 3.25 1.15l.1.15.15.05q-1.55-1.4-3.55-1.5l-.05-.1q2.15.15 3.8 1.75l.8.95.7 1.5-.75-1.45q.75 1.15.8 2.7v.35l-5.55.05-.05-4.15m4.95 2.55-.5-.6q-.4-.2-1.05.25l-2.05.75q-1.45.3-.9.5l2.15.1q1.55-.15 1.8 0t.5-.25l.05-.75" fill="#5ad1fe" fill-rule="evenodd" transform="translate(-250.65 -170.9)"/><path d="m280.65 183.55 4.6 4.15 1.05 1.05-.05.1q-.45 1-.1 2 .35 1.05 1.35 1.5l2 .15.05-.05.75 1-1.4.1q-1.65 0-3.1-.55l-.15-.65q-.35-1-1.3-1.45l-1.8-.2-.55-.7q.15-.55-.05-1.05-.25-.75-.9-1.05l-.15-.05q-.4-1.25-.4-2.65-.05-.85.15-1.65m4.1.9-3.45-2.95q.55-1.2 1.6-2.2 2.4-2.5 5.9-2.55 3.3 0 5.7 2.2-1.5-1.35-3.5-1.45l-.55-.5-1-.05q-.55.2-.8.7l-.05.2q-1.25.4-2.2 1.4l-.8 1-.2.05q-.55.2-.8.7-.2.5 0 1.05l.15.35q-.1.5-.05 1.05l.05 1m7.6 8.4L291 191.1q.35-.8.15-1.6 2.15-.15 3.7-1.75 1.75-1.75 1.75-4.2l-.25-1.8-.7-1.5-.55-.7q2.15 2.3 2.15 5.55 0 3.5-2.4 5.95l-2.5 1.8" fill="#fec210" fill-rule="evenodd" transform="translate(-250.65 -170.9)"/><path d="m290.8 179.25.05 4.15-4.9.05v-.5l.35-.1.75-.65.05-1.05-.5-.7.8-1.1 1.15-.9.1.25q.15.5.65.75l1.05.05.45-.25m-2.25-1.25q-1.2.4-2.15 1.4l-.7.85h-.1l.75-.9q1-1 2.25-1.45l-.05.1m-3.8 4.4.05.05-.1 1q-.05-.55.05-1.05" fill="#006595" fill-rule="evenodd" transform="translate(-250.65 -170.9)"/><path d="m286.6 180.45.5.7-.05 1.05-.75.65-.35.1-.7-.15-.45-.35-.05-.05-.15-.35q-.2-.55 0-1.05.25-.5.8-.7l.2-.05h.1l.7.1.2.1" fill="url(#h)" fill-rule="evenodd" transform="translate(-250.65 -170.9)"/><path d="m284.8 184.5-.05-.05-.05-1v.15l.1.9m1.15-1.05 4.9-.05.05 4.85h-.35l-.8-.6-1.55-.25-.75-.6q-1.4-1.45-1.5-3.35" fill="#015878" fill-rule="evenodd" transform="translate(-250.65 -170.9)"/><path d="m295.75 181.8-.05.75q-.25.4-.5.25t-1.8 0l-2.15-.1q-.55-.2.9-.5l2.05-.75q.65-.45 1.05-.25l.5.6m-3.7 2.75q.3 1.35.75 2 .4.6.2.95t-.55.5l-.75-.1-.25-.45.05-1.7q-.15-1.5.05-2 .2-.55.5.8" fill="#f9ffff" fill-rule="evenodd" transform="translate(-250.65 -170.9)"/><path d="m290.85 183.4 5.55-.05q-.15 1.95-1.5 3.4-1.55 1.5-3.7 1.5h-.3l-.05-4.85m1.2 1.15q-.3-1.35-.5-.8-.2.5-.05 2l-.05 1.7.25.45.75.1q.35-.15.55-.5t-.2-.95q-.45-.65-.75-2" fill="#0cbcfe" fill-rule="evenodd" transform="translate(-250.65 -170.9)"/><path d="m280.05 191.35-.55-.2q-.65-.3-.9-1l-.1-.45v-.55l.15-.4q.3-.65 1-.9.65-.25 1.25 0l.15.05q.65.3.9 1.05.2.5.05 1.05l-.1.3-1 .95-.2.05-.65.05" fill="url(#i)" fill-rule="evenodd" transform="translate(-250.65 -170.9)"/><path d="m279.35 193.05.65-.3h.05l.25-.7-.05-.3.45-.45.2-.05 1-.95.1-.3.55.7-.2.05-.3.15-.5.3-.35.35-.35.55q-.45.95-.1 2l-1-.6h-.1v-.05h-.05l-.3-.2.05-.2m-12.8 12.85 5.1-4.75.15.25.1.25.25.4-.4.95q-.25.85.45.4l.5-.3.1.2q-.75.6-1.95 1.55l-.8.6-2.7 2.05-1.6 1.2.35.65-2 2.05 2-2.05.35.65-1.85 1.85h-.05l-.45-.45h-.05l-1.25-1.2v-.05l1-1-1 1h-.05l-.3-.35.75-.75.6.1 1.6-1.15 1.65-1.1-.15-.25-.1-.25-.25-.5m5.45-5.8.45-.45.35.2.1.1-.1.1.1-.1.25.1h-.5l-.65.05m6.35-4.95.45.15.8.45.6.35-.65.6-.45-.45-.35-.4q-.3-.3-.75-.3h-.05l.4-.4M274 198.1l1.15-1.2.95-.2.95-.45-.05.3q0 .4.3.7l.4.4.45.5-1.85 1.85-.4-.55-.15-.35-1-.6h-.1v-.05h-.05l-.3-.2-.3-.15m-6.6 9.45.25.25.5.45-.25.25-.3-.6.05-.1-.05.1-.2-.35m-4.2 5.7-5.35 5.45-.65-.3 5.5-5.55-5.5 5.55-.45-.05q-.65 0-1.1.35l-1.3-.7 6.7-6.75 1.15 1.15.45.4.05.05.45.4h.05m16.8-20.5-.55.6.55-.6m-.4 3-.5.5.5-.5m.45-3 1.15-1.2-1.15 1.2m-2.35 4.9-1.8 1.8 1.8-1.8m-4.35 5q.95-.6.1.15l-.1-.15M255.6 217.4l5.8-5.8-5.8 5.8m18.85-19.05 1.65-1.65-1.65 1.65" fill="#a1664c" fill-rule="evenodd" transform="translate(-250.65 -170.9)"/><path d="m283.75 195.85-1.65-.25q-1-.45-1.35-1.5t.1-2l.35-.55.35-.35.5-.3.3-.15.2-.05 1.8.2q.95.45 1.3 1.45l.15.65q.1.7-.2 1.4-.5.95-1.5 1.35l-.35.1" fill="url(#j)" fill-rule="evenodd" transform="translate(-250.65 -170.9)"/><path d="M279.55 196.7q3.05 3.25 4.8 6.2l.95 1.75-1.4-.8-2.1-1.25q-1.45-2.15-3.65-4.45l-.45-.5-.4-.4q-.3-.3-.3-.7l.05-.3.25-.45q.25-.25.65-.25h.05q.45 0 .75.3l.35.4.45.45m6.35 10.5q-.05.8-.65 1.25v.05q-1.3 1.65-5.6-.9-1.65-1-3.4-2.4l-2.8-2.4q.85-.75-.1-.15l-.25-.2q-.3-.3-.3-.7t.3-.7q.25-.3.7-.3.4-.05.7.25l1.85 1.7 4.35 3.2q2.55 1.5 3.15 1.15.15-.3-.1-.95l1.6.85.55.25" fill="url(#k)" fill-rule="evenodd" transform="translate(-250.65 -170.9)"/><path d="M286.3 188.75q.45-.9 1.45-1.25h.1l.35-.1 1.55.25.8.6.5.85.1.4q.2.8-.15 1.6v.05q-.5.95-1.45 1.3l-.05.05-2-.15q-1-.45-1.35-1.5-.35-1 .1-2l.05-.1" fill="url(#l)" fill-rule="evenodd" transform="translate(-250.65 -170.9)"/><path d="M286 196.1q-.15-.6.15-1.15.3-.65 1-.9l1.4.05q.65.3.9 1.05.25.7-.05 1.35l-1 .95-1.4-.1-1-1.25" fill="url(#m)" fill-rule="evenodd" transform="translate(-250.65 -170.9)"/><path d="m297.95 195.7.05.1q1.45 1.4 1.45 3.5 0 2-1.4 3.45-1.45 1.45-3.5 1.45t-3.5-1.4l-.7-.85 4.9.15q1.9-1.55-1.15-6.65l-.65-1 1.1-.1q1.95 0 3.4 1.35m-6.3-.4.75 1.2q2 3.35 1.45 4.2-.9.55-4.25-1.45l.05-.4q.1-1.8 1.4-3.05l.6-.5" fill="url(#n)" fill-rule="evenodd" transform="translate(-250.65 -170.9)"/><path d="M276.75 211.8q-.75.7-1.8.75-1.1-.05-1.8-.75l-.4-.45q1.95.75 2.7-.2v-.05q1.2-.9-.3-3.65.9.05 1.6.75t.75 1.8q-.05 1.05-.75 1.8" fill="url(#o)" fill-rule="evenodd" transform="translate(-250.65 -170.9)"/><path d="m271.65 201.15-.35-.8.7-.25.65-.05h.5l.2.1.45.15.8.45.6.35.4.25q.55.6.75 1.35l-1.85-1.7q-.3-.3-.7-.25-.45 0-.7.3-.3.3-.3.7t.3.7l.25.2.1.15 2.8 2.4-.8 1.15-.65.5-2-3.55-.1-.2-.55-1.05-.25-.4-.1-.25-.15-.25" fill="url(#p)" fill-rule="evenodd" transform="translate(-250.65 -170.9)"/><path d="m261.1 203.2.35-.4q.45-.5 1.05-.75l1.6 3.35q-1.55-1.35-3-2.2m4.3 4.8-1.6 1.15-.6-.1-1.75-1q-1.1-1.1-1.1-2.6l.05-.35 3.05 2.4.7.25h.1q.35-.05.6-.3l.1-.2.1.15.15.25.2.35" fill="url(#q)" fill-rule="evenodd" transform="translate(-250.65 -170.9)"/><path d="m257.85 218.7.25.25q.55.55.55 1.35 0 .75-.55 1.3-.6.55-1.35.6l-.35-.05h-.15l-.25-.1-.6-.4q-.6-.6-.55-1.35-.05-.8.55-1.35l.25-.25q.45-.35 1.1-.35l.45.05.65.3" fill="url(#r)" fill-rule="evenodd" transform="translate(-250.65 -170.9)"/><path d="M253.7 223.85h-.3l-.5-.05-1.4-.75q-.85-.9-.85-2.1-.05-.9.4-1.55l.45-.5q.85-.9 2.05-.9.95 0 1.7.55-.65-.45-1.45-.45-1.1 0-1.85.75t-.7 1.85q-.05 1.05.75 1.8.75.75 1.85.75 1.05 0 1.8-.75l.35-.45.25.1-.6.85q-.8.8-1.95.85m1.75-5.2.1.1-.1-.1" fill="#ba8201" fill-rule="evenodd" transform="translate(-250.65 -170.9)"/><path d="m256.4 222.15-.6.85q-.9.9-2.1.85 1.15-.05 1.95-.85l.6-.85h.15m-5.35-2.75.5-.6q.85-.9 2.1-.9l.7.1 1.3.7-.25.25q-.6.55-.55 1.35-.05.75.55 1.35l.6.4-.35.45q-.75.75-1.8.75-1.1 0-1.85-.75-.8-.75-.75-1.8-.05-1.1.7-1.85t1.85-.75q.8 0 1.45.45-.75-.55-1.7-.55-1.2 0-2.05.9l-.45.5m4.4-.75.1.1-.1-.1m-1.6.05q-.25-.25-.6-.25l-.6.25q-.25.25-.25.6l.25.6.6.25.6-.25.25-.65-.25-.55" fill="#fc3" fill-rule="evenodd" transform="translate(-250.65 -170.9)"/><path d="M262.45 219.2q-.6-.6-.55-1.35-.05-.8.55-1.35.55-.6 1.35-.6.75 0 1.35.6.55.55.55 1.35 0 .75-.55 1.3-.6.55-1.35.6-.8 0-1.35-.55" fill="url(#s)" fill-rule="evenodd" transform="translate(-250.65 -170.9)"/><path d="m266.55 196.05-1.45-.85-.15-.1q-2.5-1.45-3.15-1.05-.45.7.65 3.15l.85 1.8.4.95.6 1.25 1.1 2.25.9 1.9.25.55.25.5.1.25.15.25-1.65 1.1-.2-.35-.15-.25-.1-.15-.1.2q-.25.25-.6.3h-.1l-.7-.25-3.05-2.4-.45-.25-1.65-.85.85 1.65.75 1.15 2.55 3 .3.35h.05v.05l1.25 1.2h.05l.45.45h.05q1.45 1.25 2.8 2.05h-.05l.25.1 1.4.7h.05l-.85-1.6v-.05l-.4-.6-1.35-2.45-.7-1.3 1.6-1.2.05.05.2.35.3.6 1.9 3.35.1.2.25.4q1.5 2.75.3 3.65v.05q-.75.95-2.7.2l-1.4-.75-3.15-2.35h-.05l-.45-.4-.05-.05-.45-.4-1.15-1.15q-2.2-2.25-3.45-4.25l-.2-.3q-1.85-3.15-.55-4.1.85-1.2 3.5.15l.6.35.15.1q1.45.85 3 2.2l-1.6-3.35-.55-1.15-1.3-2.9v.05q-1.9-4.15-.25-5.45 1.4-1.65 5.65.85l.05.05v-.05l7.4 4.5h.05l.35.1h.05l.05.05.3.15.3.2h.05v.05h.1l1 .6.15.35.4.55.8.6 1.65.25 3.05 1.75 2.1 1.25 1.4.8q2.75 1.55 3.55 1.05.55-.85-1.45-4.2l-.75-1.2-1.35-1.85-.75-1q.55-.2.95-.6l.5-.7v-.05l1 1.25.35.5.1.15 1 1.45.65 1q3.05 5.1 1.15 6.65l-4.35.1-.55-.25-1.6-.85-.15-.1-8-4.65-.4-.25-.6-.35-.8-.45-.45-.15-.2-.1-.25-.1-.1-.1-.35-.2-2.05-1.25-.05-.05-3.1-1.9-.7-.4" fill="url(#t)" fill-rule="evenodd" transform="translate(-250.65 -170.9)"/><path d="m5.75 51.25-.6.85q-.9.9-2.1.85h-.3M.4 48.5l.5-.6Q1.75 47 3 47l.7.1m42-36.25-.7-1.5-.55-.7-.2-.2-.1-.15-.3-.25q-2.4-2.2-5.7-2.2-3.5.05-5.9 2.55-1.05 1-1.6 2.2m13.2-2.55q-1.5-1.35-3.5-1.45m-2.4.35q-1.25.4-2.2 1.4l-.8 1M30 12.65q-.2.8-.15 1.65 0 1.4.4 2.65m1.1 2.15.55.7m3.25 2.3q1.45.55 3.1.55l1.4-.1m-5.55-9-.05-1Q34 12 34.1 11.5m7.6 10.45 2.5-1.8q2.4-2.45 2.4-5.95 0-3.25-2.15-5.55M5 47.8l-1.3-.7" fill="none" stroke="#cd9a01" stroke-linecap="round" stroke-linejoin="round" stroke-width=".5"/><path d="m40.15 8.35.05 4.15 5.55-.05m-10.45.1 4.9-.05.05 4.85" fill="none" stroke="#fefefe" stroke-linecap="round" stroke-linejoin="round" stroke-width=".5"/><path d="M29.35 21.85h.05m1.15-1.2.35-.35.5-.3m-2.6 2.45.55-.6m1.2-1.2-1.15 1.2m-7.25 7.3.1-.1m-9.1 9.2-1 1m-1.4 1.45-5.8 5.8m20.5-20.7-1.65 1.65" fill="none" stroke="#cfa69c" stroke-linecap="round" stroke-linejoin="round" stroke-width=".5"/><path d="m21.35 29.2.45-.45m7.75-3.55-.65.6m-5.55 1.4L24.5 26m-7 11.35-.25.25m-4.7 4.75L7.2 47.8m-3.5-.7 6.7-6.75M30.05 20.4l-.45.45m-1.15 4.5.5-.5m-1.45 2.4-1.85 1.85m-.4-.55 1.8-1.8M13.45 40.5l2-2.05m1.5-1.45.05-.1m-5.2 2 .75-.75m-.5 3.8-5.5 5.55m7.4-6.55 1.85-1.85" fill="none" stroke="#58382b" stroke-linecap="round" stroke-linejoin="round" stroke-width=".5"/></g></defs></svg>