<svg viewBox="0 0 159.13 152.11" xmlns="http://www.w3.org/2000/svg" xmlns:xlink="http://www.w3.org/1999/xlink"><g transform="translate(-226.65 -118.69)"><use transform="matrix(.4996 1.0381 -1.492 1.2243 383.01 114.18)" width="27.15" height="108.7" xlink:href="#a"/><use transform="matrix(-.7927 -.7927 -1.4941 1.4941 307.49 200.34)" width="17.05" height="50.6" xlink:href="#b"/><use transform="matrix(-.8281 -.8281 -.7068 .7068 295.14 188.68)" width="20.85" height="18.25" xlink:href="#c"/></g><defs><use width="27.15" height="108.7" xlink:href="#d" id="a"/><use width="17.05" height="50.6" xlink:href="#e" id="b"/><use width="20.85" height="18.25" xlink:href="#f" id="c"/><g id="d"><path d="M2.65 17v-.1h.05l-.05.1m-4.4 19.45h.1-.1M7.5 42.8h-.05v-.05l.05.05" fill="#a08c4e" fill-rule="evenodd" transform="translate(4.95 2.6)"/><path d="m-1 38.25.1.15-.1-.15" fill="#645320" fill-rule="evenodd" transform="translate(4.95 2.6)"/><path d="M2.65 16.9v.1l-2.6 3.1v-3.55L-4.7 1.2.55-2.35l2.1 17.2v2.05-2.05L.55-2.35l8.4 4.85q-1.8 6-.85 18.2l.25 1-1.75-2.2-1.35-1.75-.45-.15-.95-.3q-1.2 5.25.05 10.9l-1.25-3.5V17l.05-.1h-.05M-.25 30Q0 26.4.95 26.8l2.1 4.4.85 8.4-1.45 2.95-1.9-1.05-1.45-3.1Q.55 40.65 2 40.25l.65-.7-.15-7.65-1.55-3.35L-.25 30M4.3 57.45l1.4.4-1.55-7.1 1-11.15v10.25L7.7 61 6 58.45 4.75 59.7l-.45-2.25M-1.55 30.9v2.4l1.9 2.3.8-3.15v4.6H-.2l-1.45-.6h-.1V35.4l-.85-2.3 1.05-2.2m10.5 13.7 1.85 2.95.3 1.9.15 1.05-1.9-2.7v2.95L8 47.8l-.15 5.65 2 4.85 1 9.2-1.9-9.9-2.3-5.65.8-4.6V42.8h.05l1.25 3.9.2-2.1" fill="#514215" fill-rule="evenodd" transform="translate(4.95 2.6)"/><path d="m.05 20.1 2.6-3.1v7.7l1.25 3.5q-1.25-5.65-.05-10.9l.95.3-.55 8.65 1.8 5.45 1.4 11.1v4.55l-.8 4.6 2.3 5.65 1.9 9.9-1-9.2-2-4.85L8 47.8l1.35 2.95V47.8l1.9 2.7.85 5.85 5.85 18.2.05.15.1.6.8 3.7.3 1.65-.8 2.1h-1.7l-3.75-7.55v-4.6q.75-2.1 1.45 1.45l1.45 5.05-1.45-5.05q-.7-3.55-1.45-1.45v.1l-.85 6.15 3.15 7.2-1.35 4.4v4.3l-1.5 4.1 1.55 5.7 1.95 3.05-4.45-2.5-1.25-2.7 1.25-4.85q0-8.65-3.15-16.55l-1.8-3.15.05-2.3.9 1.45h1.5l-.85-7.5q-.7-3-1.45-1.9v5.1l.8-1.75.05 3.6-1.9-1.75V66l.4-1.8-1.25-1.75V59.7L6 58.45 7.7 61 5.15 49.85V39.6l-1 11.15 1.55 7.1-1.4-.4-.05-.2-1.4-6.95v-2.95L.55 43.8v-2.3l1.9 1.05L3.9 39.6l-.85-8.4-2.1-4.4Q0 26.4-.25 30l1.2-1.45L2.5 31.9l.15 7.65-.65.7q-1.45.4-2.9-1.85l-.1-.15-.75-1.6v-.2h.1l1.45.6h1.35v-4.6l-.8 3.15-1.9-2.3v-4.8l1.6-3.2v-5.2m6.55-.6 1.75 2.2 1.3 6 .75 16.1 1.75 2.9-1.05 2.75-.3-1.9-1.85-2.95-.85-7.95.75-.4-3-10.4.75-6.35m3.75 50.7q-1.05-4.65-2.9-6.9l-1.05-.85L6 64.2l.4-1.75 1.05.85q1.85 2.25 2.9 6.9M.55 24.3l-.5 1 .5-1m17.6 75.65-.9-4.8q-.45-3.25-1.55-.5l-.15.4-.6 7.1-.15-.3-.8-5.65 1.85-5.65q1.05-1.2 2.1 1.45L19 98.5l-.85 1.45" fill="#64521b" fill-rule="evenodd" transform="translate(4.95 2.6)"/><path d="m4.8 17.6.45.15L6.6 19.5l-.75 6.35 3 10.4-.75.4.85 7.95-.2 2.1-1.25-3.9-.05-.05v.05l-1.4-11.1-1.8-5.45.55-8.65M18.9 79l1.35 2.7-1.45 4.6 1.25 4.4 1.9 4.4v4.5l-2.5 4.55q-.8.55-1.5.7l-1.65 1-.4-.25-1.95-3.05-1.55-5.7 1.5-4.1v-4.3l1.35-4.4-3.15-7.2.85-6.15v4.5l3.75 7.55h1.7l.8-2.1-.3-1.65M6.55 73.55 5.6 72.1v-1.3l1.9 1.75-.05-3.6-.8 1.75v-5.1q.75-1.1 1.45 1.9l.85 7.5h-1.5l-.9-1.45m8.4 28.6.6-7.1.15-.4q1.1-2.75 1.55.5l.9 4.8.85-1.45-1.05-6.5q-1.05-2.65-2.1-1.45L14 96.2l.8 5.65.15.3 1.05 1.9q.85.9 1.95.8-1.1.1-1.95-.8l-1.05-1.9" fill="#735e20" fill-rule="evenodd" transform="translate(4.95 2.6)"/><path d="M5.5.25.25 3.8 5 19.15v3.55m8.3 1.6-.25-1q-.95-12.2.85-18.2L5.5.25m0 43.85 1.9 1.05 1.45-2.95L8 33.8l-2.1-4.4q-.95-.4-1.2 3.2M4.05 41l1.45 3.1v2.3l2.3 3.55v2.95l1.4 6.95m.9-17.65v10.25l2.55 11.15-1.7-2.55L9.7 62.3v2.75l1.25 1.75M3.4 33.5l-1.05 2.2.85 2.3v.4m9.85.85.85 7.95 1.85 2.95.3 1.9 1.05-2.75-1.75-2.9-.75-16.1-1.3-6m-.85 21.1-.05-.05v4.6l-.8 4.6 2.3 5.65 1.9 9.9m.4-17-.15-1.05m-3.6-6.65 1.25 3.9.2-2.1M5 27.9l.5-1m-2.1 6.6v-2.4L5 27.9v-5.2m11.2 30.4.85 5.85 5.85 18.2.05.15m.1.6.8 3.7 1.35 2.7-1.45 4.6L25 93.3l1.9 4.4v4.5l-2.5 4.55q-.8.55-1.5.7l-1.65 1-.4-.25-4.45-2.5-1.25-2.7 1.25-4.85q0-8.65-3.15-16.55l-1.8-3.15.05-2.3-.95-1.45v-6.1l.4-1.8M9.7 62.3l-.45-2.25m-6.05-21v.2l.75 1.6.1.15" fill="none" stroke="#000" stroke-linecap="round" stroke-linejoin="round" stroke-opacity=".4" stroke-width=".05"/><path d="M7.6 19.6v-2.15L5.5.25M7.6 19.6v7.7l1.25 3.5m2.1 36 .4-1.75 1.05.85q1.85 2.25 2.9 6.9M6.1 35.05l-.8 3.15-1.9-2.3v-2.4m8.1 42.65.9 1.45h1.5l-.85-7.5q-.7-3-1.45-1.9v5.1m6.3 0v-.1q.75-2.1 1.45 1.45l1.45 5.05m3.05 1.9.3 1.65-.8 2.1h-1.7L17.9 77.8v-4.5m2 31.45 1.05 1.9q.85.9 1.95.8m-3-2.7-.15-.3-.8-5.65 1.85-5.65q1.05-1.2 2.1 1.45l1.05 6.5-.85 1.45" fill="none" stroke="#a48e4b" stroke-linecap="round" stroke-linejoin="round" stroke-opacity=".69" stroke-width=".05"/><path d="m13.05 23.3 1.55 7 .75 16.1 1.75 2.9-1.05 2.75 1 6.9 5.85 18.2.95 4.45 1.35 2.7-1.45 4.6L25 93.3l1.9 4.4v4.5l-2.5 4.55q-.8.55-1.5.7l-1.65 1-4.85-2.75-1.25-2.7 1.25-4.85q0-8.65-3.15-16.55l-1.8-3.15.05-2.3-.95-1.45v-6.1l.4-1.8-1.25-1.75V62.3l-1.9-9.4v-2.95L5.5 46.4v-2.3l-2.3-4.85V38l-.85-2.3 1.05-2.2v-2.4L5 27.9v-8.75L.25 3.8 5.5.25l8.4 4.85q-1.8 6-.85 18.2z" fill="none" stroke="#000" stroke-linecap="round" stroke-linejoin="round" stroke-opacity=".2" stroke-width=".5"/></g><g id="e"><path d="m-1.5 17.55 2.3 1.6v3.15l-2.75 2.75-3.15-1.7-3.15-4.8v-8.6L-3.65-.1 1.4-6l5.9-19.05 1 1.85L2.65-5.8-.5 1.15l-1.25 11.1v4l.25 1.3.45 2.65.15.85-.15-.85-.45-2.65m-1.7-5.1q.3-4.8-1.05-3.55-2.1 3.45-1.45 8.4l3.35 4.2 1.3-1.3-1.3 1.3-3.35-4.2q-.65-4.95 1.45-8.4 1.35-1.25 1.05 3.55" fill="#6d591d" fill-rule="evenodd" transform="translate(8.5 25.3)"/><path d="m7 42.85-.25-1.3v-4L8 26.45l3.15-6.95L16.8 2.1l-1-1.85L9.9 19.3l-5.05 5.9-4.6 10.05v8.6l3.15 4.8 3.15 1.7L9.3 47.6v-3.15L7 42.85l.45 2.65.15.85m-.15-.85-1.3 1.3-3.35-4.2q-.65-4.95 1.45-8.4 1.35-1.25 1.05 3.55" fill="none" stroke="#000" stroke-linecap="round" stroke-linejoin="round" stroke-opacity=".4" stroke-width=".05"/><path d="m16.8 2.1-1-1.85L9.9 19.3l-5.05 5.9-4.6 10.05v8.6l3.15 4.8 3.15 1.7L9.3 47.6v-3.15L7 42.85l-.25-1.3v-4L8 26.45l3.15-6.95z" fill="none" stroke="#000" stroke-linecap="round" stroke-linejoin="round" stroke-opacity=".2" stroke-width=".5"/></g><g id="f"><path d="M6.45 7.15Q3.35 8.4-.5 8.9q-3.15-.55-4.85-2.55v-4.5q-1.3-7-4.7-9.95-.6-1.5 3.1 0l6.5 10.05-6.1-7.25 3.35 7.95L.9 5.8l5.55 1.35" fill="#8a924d" fill-rule="evenodd" transform="translate(10.4 9.1)"/><path d="M6.45 7.15.9 5.8l-4.1-3.15-3.35-7.95 6.1 7.25L1.65 4l8.55 1.2Q8.5 6.35 6.45 7.15" fill="#6f753e" fill-rule="evenodd" transform="translate(10.4 9.1)"/><path d="M9.95 11.05 3.45 1Q-.25-.5.35 1q3.4 2.95 4.7 9.95v4.5q1.7 2 4.85 2.55 3.85-.5 6.95-1.75M3.85 3.8l6.1 7.25 2.1 2.05 8.55 1.2q-1.7 1.15-3.75 1.95" fill="none" stroke="#000" stroke-linecap="round" stroke-linejoin="round" stroke-opacity=".4" stroke-width=".05"/><path d="M.35 1q3.4 2.95 4.7 9.95v4.5q1.7 2 4.85 2.55 3.85-.5 6.95-1.75 2.05-.8 3.75-1.95l-8.55-1.2-2.1-2.05L3.45 1Q-.25-.5.35 1z" fill="none" stroke="#000" stroke-linecap="round" stroke-linejoin="round" stroke-opacity=".2" stroke-width=".5"/></g></defs></svg>