<svg viewBox="0 0 49.38 55.89" xmlns="http://www.w3.org/2000/svg" xmlns:xlink="http://www.w3.org/1999/xlink"><g transform="translate(-249.6 -172.67)"><use transform="translate(249.6 179)" width="40.85" height="49.55" xlink:href="#a"/><use transform="matrix(.035 .0228 -.0223 .0352 268.25 204.55)" width="69.4" height="69.4" xlink:href="#b"/><use transform="matrix(.035 .0228 -.0223 .0352 271.4 203.1)" width="69.4" height="69.4" xlink:href="#b"/><use transform="matrix(.0241 .0157 -.0154 .0242 267.05 202.9)" width="69.4" height="69.4" xlink:href="#b"/><use transform="matrix(.018 .0117 -.0115 .0182 270.7 199.35)" width="69.4" height="69.4" xlink:href="#b"/><use transform="matrix(.0241 .0157 -.0154 .0242 270.7 206.85)" width="69.4" height="69.4" xlink:href="#b"/><use transform="matrix(.018 .0117 -.0115 .0182 273.15 197.8)" width="69.4" height="69.4" xlink:href="#b"/><use transform="matrix(.0515 .0438 -.043 .0519 272.45 201.45)" width="5.75" height="99.05" xlink:href="#c"/><use transform="matrix(-.0515 -.0438 .0409 -.0493 264.25 211.95)" width="5.75" height="99.05" xlink:href="#c"/><use transform="matrix(-.043 .0519 -.0515 -.0438 273.6 211.15)" width="5.75" height="99.05" xlink:href="#c"/><use transform="matrix(.043 -.0519 .049 .0416 263.15 202.8)" width="5.75" height="99.05" xlink:href="#c"/><use transform="matrix(.0669 -.0057 .006 .0677 267.5 199.95)" width="5.75" height="99.05" xlink:href="#c"/><use transform="matrix(-.0669 .0057 -.0057 -.0643 269.05 213.3)" width="5.75" height="99.05" xlink:href="#c"/><use transform="matrix(.006 .0677 -.0669 .0057 275.05 206.05)" width="5.75" height="99.05" xlink:href="#c"/><use transform="matrix(-.006 -.0677 .0636 -.0054 261.9 207.6)" width="5.75" height="99.05" xlink:href="#c"/><use transform="matrix(.0426 .0362 -.0356 .0429 275.6 196.95)" width="5.75" height="99.05" xlink:href="#c"/><use transform="matrix(-.0426 -.0362 .0338 -.0408 268.8 205.65)" width="5.75" height="99.05" xlink:href="#c"/><use transform="matrix(-.0356 .0429 -.0426 -.0362 276.5 204.95)" width="5.75" height="99.05" xlink:href="#c"/><use transform="matrix(.0356 -.0429 .0405 .0344 267.85 198.05)" width="5.75" height="99.05" xlink:href="#c"/><use transform="matrix(.0553 -.0047 .005 .056 271.5 195.75)" width="5.75" height="99.05" xlink:href="#c"/><use transform="matrix(-.0553 .0047 -.0047 -.0532 272.75 206.75)" width="5.75" height="99.05" xlink:href="#c"/><use transform="matrix(.005 .056 -.0553 .0047 277.75 200.75)" width="5.75" height="99.05" xlink:href="#c"/><use transform="matrix(-.005 -.056 .0526 -.0045 266.85 202.05)" width="5.75" height="99.05" xlink:href="#c"/><use transform="matrix(.0284 .0241 -.0237 .0286 276.45 202.9)" width="5.75" height="99.05" xlink:href="#c"/><use transform="matrix(-.0284 -.0241 .0225 -.0272 271.9 208.7)" width="5.75" height="99.05" xlink:href="#c"/><use transform="matrix(-.0237 .0286 -.0284 -.0241 277.05 208.25)" width="5.75" height="99.05" xlink:href="#c"/><use transform="matrix(.0237 -.0286 .027 .0229 271.3 203.65)" width="5.75" height="99.05" xlink:href="#c"/><use transform="matrix(.0368 -.0031 .0033 .0373 273.7 202.1)" width="5.75" height="99.05" xlink:href="#c"/><use transform="matrix(-.0368 .0031 -.0031 -.0354 274.6 209.45)" width="5.75" height="99.05" xlink:href="#c"/><use transform="matrix(.0033 .0373 -.0368 .0031 277.9 205.5)" width="5.75" height="99.05" xlink:href="#c"/><use transform="matrix(-.0033 -.0373 .035 -.003 270.65 206.3)" width="5.75" height="99.05" xlink:href="#c"/><use transform="rotate(32.364 -164.54 568.294) scale(.103)" width="69.4" height="69.4" xlink:href="#b"/><use transform="matrix(.0526 .0333 -.0333 .0526 288.8 179.9)" width="69.4" height="69.4" xlink:href="#b"/><use transform="matrix(.0526 .0333 -.0333 .0526 286.6 171.85)" width="69.4" height="69.4" xlink:href="#b"/><use transform="matrix(.0526 .0333 -.0333 .0526 296.15 174.4)" width="69.4" height="69.4" xlink:href="#b"/></g><defs><path d="M59.2 10.15q10.2 10.2 10.2 24.55T59.2 59.2Q49.05 69.4 34.7 69.4T10.15 59.2Q0 49.05 0 34.7t10.15-24.55Q20.35 0 34.7 0t24.5 10.15" fill="url(#d)" fill-rule="evenodd" id="b"/><path d="M5.75 0v99.05H0V0h5.75" fill="url(#e)" fill-rule="evenodd" id="c"/><radialGradient id="d" cx="0" cy="0" r="819.2" gradientTransform="translate(34.7 34.7) scale(.0435)" gradientUnits="userSpaceOnUse"><stop stop-color="#f90" stop-opacity=".471" offset=".114"/><stop stop-color="#ff0" stop-opacity="0" offset="1"/></radialGradient><linearGradient id="e" x1="-819.2" x2="819.2" gradientTransform="matrix(0 -.0327 .0035 0 2.85 50.75)" gradientUnits="userSpaceOnUse"><stop stop-color="#f90" stop-opacity=".471" offset=".114"/><stop stop-color="#ff0" stop-opacity="0" offset="1"/></linearGradient><g id="a"><path d="m277.15 198.8.8-1.1 1.85-2.95q-2.9 6.2-5.95 9.6l-.05.1-.25.35-.05-.05q-5.4 2.65-6.75 7.55-.85 1.35-1.95.65v-.05l-5.2 7.25-5.05 7.1v.05l-.2.45q-.3.35-1 .3l-.9-.05-.85-.3q-.9-.5-1.3-1.05-.4-.65-.05-1.15l.15-.15.15-.2h.05q11.4-9.6 13.55-13.9.2-.75 1.7-.7.6-2.4 6.95-7.15 1.4-.9 3.2-3.05z" fill="none" stroke="#000" stroke-linecap="round" stroke-linejoin="round" transform="translate(-249.6 -179)"/><path d="m265.55 213.1-.55-.25h-.05l-3.45 5-.95 1.2-.75 1.1-.65.8-.3.4-.25.4-1.8 2.45-2.05 2.9v.15l-.05.1-.1.3h-.1q-.3.35-1 .35h-.45l-.45-.1-.35-.15-.45-.15-.6-.35-.7-.65-.25-.5.9.55.2.05.6.2.45.05.4.05q.75.05 1.05-.3l.05-.05.2-.45v-.2l.3.25v.1l.05-.05h.05l.05.2.1.15 1.75-2.55 1.8-2.45.55-.8.35-.45.55-.7.5-.7.95-1.25 3.7-5.35h.05q1 .7 1.8-.4l.3.2.05.05q-.7 1-1.45.85m-4.4 3.2v.05l-.15.1.25-.15h-.1m-8.95 8.75.75-.2q.8-.4 1.15-1.35.5-.7 1.35-1.35l-.25.35-.15.2H255l-.7.85-.15.3-.15.25-1.1.85-.5.15h.15l.3.15.25.4-.1.2-.2-.4-.45-.35-.05-.05h-.1m4.55-3.25.15-.2-.15.2" fill="#6f4335" fill-rule="evenodd" transform="translate(-249.6 -179)"/><path d="M267 212.25q-.65 1.05-1.45.85.75.15 1.45-.85l-.05-.05.05.05m-2 .6-5.15 7.3-.65.8-.6.8q-2.8 3.85-3.85 5.5v-.15l2.05-2.9 1.8-2.45.25-.4.3-.4.65-.8.75-1.1.95-1.2 3.45-5h.05m1-1.25.05.05-.5.65.85-.45.25.15q-.8 1.1-1.8.4h-.05l-3.7 5.35-.95 1.25-.5.7-.55.7-.35.45-.55.8-1.8 2.45-1.75 2.55-.1-.15-.05-.2.85-1.3q-.25-.4.6-1.9l.8-1.3.2-.2q-1.15 2.1-.75 2.05l.15-.1 1.55-2.05.5-.7 1.1-1.5 2.5-3.35-.95.5.1-.1v-.05q1.3-.95 3.45-4.1l.1-.15h.05l.15.1q.6-.05 1.1-.55m-12.9 14.05-.25-.4-.3-.15h-.15l.5-.15 1.1-.85-.7 1.4-.2.15m1.05-1.8.15-.3.7-.85-.85 1.15" fill="#8e5846" fill-rule="evenodd" transform="translate(-249.6 -179)"/><path d="m250.6 225.3.15-.25.05.05 1.2-1q.7-.7 1.4-1.25l2.1-1.85.8-.7q6.45-6.05 8.05-9.1.1-.3.35-.45l1.3.85q-.5.5-1.1.55l-.15-.1h-.05l-.1.15q-2.15 3.15-3.45 4.1h.1l-.25.15.15-.1-.1.1.95-.5-2.5 3.35-1.1 1.5-.5.7-1.55 2.05-.15.1q-.4.05.75-2.05l-.2.2-.8 1.3q-.85 1.5-.6 1.9l-.85 1.3h-.05l-.05.05v-.1l-.3-.25-.8-.5.7-1.4.15-.25.85-1.15h.05l.15-.2.25-.35q-.85.65-1.35 1.35-.35.95-1.15 1.35l-.75.2h-.7l-.6.1q-.2 0-.3.15m15.8-13.45-.85.45.5-.65.35.2m-9.65 9.95.15-.2-.15.2" fill="#a86651" fill-rule="evenodd" transform="translate(-249.6 -179)"/><path d="m254.7 227.35-.1.25v.05l.1-.3m-4.45-1.25q0-.4.15-.6l.2-.2q.1-.15.3-.15l.6-.1h.8l.05.05.45.35.2.4.1-.2.2-.15.8.5v.2l-.2.45-.05.05q-.3.35-1.05.3l-.4-.05-.45-.05-.6-.2-.2-.05-.9-.55" fill="#85503f" fill-rule="evenodd" transform="translate(-249.6 -179)"/><path d="m274.6 202.05 1.5-1.75-.1.2.15-.25 1.25-1.55.75-1.05 1.9-2.95-.15.25.2-.25q-3 6.15-6 9.55l-.1.15-.3.3-.15.1q-5.25 2.6-6.55 7.45l-.05-.05.4-1.15.5-1.05q1.75-3.3 5.65-5.2h.05-.05q-3.9 1.9-5.65 5.2l-.5 1.05-.4 1.15-.3-.2-.25-.15-.35-.2-.05-.05-1.3-.85q.4-.3 1.4-.3.5-2.4 6.9-7.15l.65-.45.85-.7.1-.1m1.4-1.55-2.4 3.65q-.25.55-.1.65-.15-.1.1-.65l2.4-3.65" fill="#600" fill-rule="evenodd" transform="translate(-249.6 -179)"/><path d="m25 23.05 1.5-1.75-.1.2.15-.25 1.25-1.55.75-1.05 1.9-2.95-.15.25.2-.25q-3 6.15-6 9.55l-.1.15-.3.3-.15.1q-5.25 2.6-6.55 7.45-.65 1.05-1.45.85l-.55-.25-5.15 7.3-.65.8-.6.8q-2.8 3.85-3.85 5.5l-.05.1-.1.3h-.1m.1 0-.05.05q-.3.35-1.05.3h-.45L3 48.9l-.35-.15-.45-.15-.6-.35-.7-.65-.25-.5q0-.4.15-.6l.2-.2.15-.25.05.05 1.2-1q.7-.7 1.4-1.25L5.9 42l.8-.7q6.45-6.05 8.05-9.1.1-.3.35-.45.4-.3 1.4-.3.5-2.4 6.9-7.15l.65-.45.85-.7m-.95 2.65h-.05Q20 27.7 18.25 31l-.5 1.05-.4 1.15m6.55-7.4q-.15-.1.1-.65l2.4-3.65M5.15 48.25v-.15l2.05-2.9L9 42.75l.25-.4.3-.4.65-.8.75-1.1.95-1.2 3.45-5h.05m.55.25q.75.15 1.45-.85l-.05-.05M2.7 46.05l.05.05" fill="none" stroke="#000" stroke-linecap="round" stroke-linejoin="round" stroke-width=".05"/><path d="M281.9 203.75q-1.55 3.2 5.55-.3l2.1-1.1-1.8 1.25q-7.5 5.15-7.25 2.05l.2-.2q.5 1.35 2.2.7-1.2.35-1.7-1.2l.7-1.2m-3.5-.85-.75.6-.8.6q-.1-.05-.15.05l-.55.5-.25-.1.05-.05q-4.2 1.15-3.5.55.95-.25 3.95-1.95l2.7-2.4.9-1 .75-1.5q.4-1.45-.65-2.45 1.05 1.25-.4 2.45-.85.1-1.05-1.6v-1.8l.1-.55.15-1.3-.7 1.9q-.5 1.75-.45 3.2l.1 1.3-1.3.45-1.8.65-.75-.8-.15-.1.05-.1-.05.1-.2.55-.8 1.6.45-1.05.2-.55q.35-1.45-.15-2.15l-.5-.5q-3.6-3.35-.95-5.95l1.7-1.3.2-.1-.05.25q-.95 3.2.5 3.55l-.15 1.2h.05l-.5.05q-1.05-.35-.8-2.25l.1-.9-.35.6q-.65 1.05-.4 3-.1 1.15 1.95 2.5l-.25 1.35h.25l1.4-.4 1.2-.6q.7-.7.65-1.7l-.2-.75-.2-.65-.1-.6-.2-.65-.05-.55v-1q.15-.85.65-1.3l.2-.1q.55-.5 1.5-.45l.25-.1h.05l.5-.05 1.25-.55q1.05-.65 2-1.85l1.05-1.65 1.35-3.8.8-3.7-.2 4.25-.2 1.55-.25 1.15-.45 1.5q1.15.45 2.35 1.3l-2.6-.5q-.85 1.85-2.15 3l-1.05.9-.6.4-.2.35q-.2.4-.25.9v.9l.7 1.4.55.6q.6 1 .2 2.25l-.95 1.5-.8.9-1.95 1.55m5.85-4.7q-.4 1.6.1 2l.2.1q1.1.3 4.05-2.1l.85-.7-.6.85-2.65 2.75q-.9.65-1.85.8 1.1-.4 1.55-1l.1-.25q-.2.05-.35.2-1.05.35-2.1-.85l.15-.15q.2-.8.55-1.65" fill="#fe9225" fill-rule="evenodd" transform="translate(-249.6 -179)"/><path d="M281.2 204.95q.5 1.55 1.7 1.2-1.7.65-2.2-.7l.5-.5m-8.75.1q-.85.2-.3-.6l.8-1q.7-1 1.35-1.5l1.05-.9-.6-.6 1.8-.65 1.3-.45-.1-1.3q-.05-1.45.45-3.2l.7-1.9-.15 1.3-.1.55v1.8q.2 1.7 1.05 1.6 1.45-1.2.4-2.45 1.05 1 .65 2.45l-.75 1.5-.9 1-2.7 2.4q-3 1.7-3.95 1.95m11.9-3.15-1.05-.2-.25-.15.5-1.55q1.05 1.2 2.1.85.15-.15.35-.2l-.1.25q-.45.6-1.55 1m-10.2-3.8q-2.05-1.35-1.95-2.5-.25-1.95.4-3l.35-.6-.1.9q-.25 1.9.8 2.25l.5-.05q-.15.65-.15 1.35l.05.35.05.25.05 1.05" fill="#feb56b" fill-rule="evenodd" transform="translate(-249.6 -179)"/><path d="m281.9 203.75-.7 1.2-.7.7-.85.25q-.65-.15-1.1-1.05l-.5-1.4.3-.5q1.85 3.6 3.4-.35l1.7-4.4-.6 1.25-.95 1.5-1.45 1.3q-1.15.8-.1-.9l.8-.9.95-1.5q.4-1.25-.2-2.25l-.55-.6-.15-.3 2.5.05.85-1.15q2-3.5 4.15-3.2-1.75-.9-4.15 1.25-1.55 1.9-2.9.8l-.75-.65.2-.35.6-.4.2.45q.85 1.15 1.65-.2 3.3-4.45 6.9-.1-3.35-.9-5.1 2.55l-.55 1.7-.55 1.65q-.35.85-.55 1.65l-.15.15-.5 1.55-1.15 2.2m-5.2.4q-1.4 4.05-.05 3.05 1.2-1.2 3.4-.35-2.85.25-3.9 3.35-1.1 3-1.95-2.25l.5-.8q-.05 1.85.65 1.9 1.15-.1 1.3-1.15l-1.2.05q-.4-.65.05-1.95l1.2-1.85m-3.75-.7-1.7.4.7-.95.75-.95.15-.25.8-1.6.2-.55.15.1.75.8.6.6-1.05.9q-.65.5-1.35 1.5m1.3-9.55.6-2.35.7-1.6q1.15-2.3 3.25-4.1-3.6 6.15-.7 3.35l.3-.2q2.5-2.45 5.35-1.95l-.7 1.1q-2 .15-2 1.85l-1.25.55-.5.05h-.05l.2-.45.05-.05q1.05-1.65 2.4-2.2-1.55 0-4.2 2.9l-.25.2-.15.25q-.5.45-.65 1.3-.95 2.7-.65-1.1l.25-1.05-.6 1.2q-.65 1.6-.9 3.55l-.15.9-.05.7v.3q-.05.75.25 1.3l.75.6q.1-1.35.5-2.35.35-1 .85-1.85l.1.6.2.65.2.75-.25.6-.4 1.1-1.2.6-1.4.4h-.25l.25-1.35-.05-1.05-.05-.25-.05-.35q0-.7.15-1.35h-.05l.15-1.2" fill="#f87c01" fill-rule="evenodd" transform="translate(-249.6 -179)"/><path d="m278.35 202.95.05-.05 1.95-1.55q-1.05 1.7.1.9l1.45-1.3.95-1.5.6-1.25-1.7 4.4q-1.55 3.95-3.4.35m-3.65 4.2.8-1.15q-.45 1.3-.05 1.95l1.2-.05q-.15 1.05-1.3 1.15-.7-.05-.65-1.9m4.55-16.55-.25.1q-.95-.05-1.5.45l-.2.1.15-.25.25-.2q2.65-2.9 4.2-2.9-1.35.55-2.4 2.2l-.05.05-.2.45m-2.6 1.95v1l.05.55.2.65q-.5.85-.85 1.85-.4 1-.5 2.35l-.75-.6q-.3-.55-.25-1.3v-.3l.05-.7.15-.9q.25-1.95.9-3.55l.6-1.2-.25 1.05q-.3 3.8.65 1.1m4.25.35.75.65q1.35 1.1 2.9-.8 2.4-2.15 4.15-1.25-2.15-.3-4.15 3.2l-.85 1.15-2.5-.05-.55-1.1v-.9q.05-.5.25-.9" fill="#feaf61" fill-rule="evenodd" transform="translate(-249.6 -179)"/><path d="m271.25 203.85-.95 1.55-.25-.05q-.65-.2.8-1.4-.95.15.65-1.55.55-.6-.15-1.2-.85-1.65.3-1.65l1.35.05.3-.5.15.25-.1.55-.45.45-.15.05-.1.1-.3.1-.05-.05q-.8.15.25 1.1l.1.1-.7 1.15-.7.95" fill="#de7001" fill-rule="evenodd" transform="translate(-249.6 -179)"/><path d="m282.75 191.25-.85 1.35-.2-.45 1.05-.9" fill="#c4a773" fill-rule="evenodd" transform="translate(-249.6 -179)"/><path d="m24.3 20.45-.05.1" fill="none" stroke="#000" stroke-linecap="round" stroke-linejoin="round" stroke-width=".05"/></g></defs></svg>