<svg viewBox="0 0 113.85 91.55" xmlns="http://www.w3.org/2000/svg" xmlns:xlink="http://www.w3.org/1999/xlink"><use width="113.85" height="91.55" xlink:href="#a"/><defs><linearGradient id="b" x1="-819.2" x2="819.2" gradientTransform="matrix(.011 -.0152 .0292 .0211 256.8 165.4)" gradientUnits="userSpaceOnUse"><stop stop-color="#4f310d" offset="0"/><stop stop-color="#fff" offset="1"/></linearGradient><g id="a"><path d="m259.75 181.75.5.25h-.2l-.35-.05.05-.2m10-1.8-.1-.4-41.05-21.65q6.5-3.35 14.7-.5l1.6.6 36.05 24.2-.1.4q-6.1-2.05-11-1.8l-.1-.85M217.7 169.9l.95-1.7.25-.1-.95 1.95-.25-.15" fill="url(#b)" fill-rule="evenodd" transform="translate(-200.2 -132.6)"/><path d="m273 139.4 1.75-5.3h3.5l34.3 23q-2.3 4.85-4.7 8.8l.15-2.4-.7-.5-34.3-23.6m-57.1 45.9-1.45-.95v-6.1l36.55 18 .05.5.15 3.5-.65 2.8v.05l-.8 4.9-33.8-22.65-.05-.05m-.85-9.35-.1-.05.3-.8.25-.1-.45.95m1.8-3.7-.05-.55.9-1.8.25.15-1.1 2.2" fill="#4f310d" fill-rule="evenodd" transform="translate(-200.2 -132.6)"/><path d="m215.75 185.65.15-.35.05.05-.2.3m22.9 29-.5.15-1.25.3-1.35.25q-5.15.7-8.1-2.9l-.5-.65-1.25-2.25-.05-.1-.3-.45q-.3-.7-.25-1.3v-.1l-.3.15q-6.8.15-5.95-6.45l.25-.3 2.2 4 .1.2q1.75 1.4 3.85 1.75l.25-.5.35-.3.9.95.6-.05-.55.1.2.95v.25q3.2 6.7 10.1 6.35l.75-.05h.2l.5-.1.05.1h.05" fill="#b6711f" fill-rule="evenodd" transform="translate(-200.2 -132.6)"/><path d="M214.05 193.5v-.95q.1-3.25 1.2-5.9l.5-1 .2-.3 33.8 22.65.8-4.9v-.05l.65-2.8.45 8.8-.2.1q-7.4-1.15-14.4-5.25t-14.35-6.65q-7.4-2.55-8.65-3.75m72-11.15.15.25.05.05h.05l.05.35.4 2.3-.05.05-1 .3-3.15 1.1q-4.55 1.2-8.15-.15-1.65 2.05-3.25 3.15l-1.3-8.95q4.9-.25 11 1.8h.05l1.25.4-1.2-.8 5.1.15m.15.25.5 2.75-.5-2.75" fill="#855b36" fill-rule="evenodd" transform="translate(-200.2 -132.6)"/><path d="m307.8 166.55.05.1-.05.05v-.15m-72.25 48.8-2 .3q-3.4 0-6.2-3.1l-.55-.7-1.4-2.05-.1-.15.35-.2.05.1 1.25 2.25.5.65q2.95 3.6 8.1 2.9m-21.4-20.2-.05-.55.25.4-.2.15m23.9 19.5.25-.3.25.2-.5.1m-12.95-6.95-.3.05.3-.15v.1" fill="#fcefdc" fill-rule="evenodd" transform="translate(-200.2 -132.6)"/><path d="M214.1 194.6v-.05l-.05-1.05q1.25 1.2 8.65 3.75 7.35 2.55 14.35 6.65t14.4 5.25l.2-.1.15 3.6q-7.15 7.05-13.15 2h-.05l-.05-.1-.25-.2q-2.95-2.65-5.65-8.2l-1.5-.55-.1-.05-3.65-1.35q-4.35-1.85-8.6-4.55-2.75-2.15-4.45-4.65l-.25-.4m57.05-4.85q1.6-1.1 3.25-3.15 3.6 1.35 8.15.15l.1.35-8.9 2.4-2.35 1.95-.25-1.7m36.65-23q1.65 2.75-.4 5.8l.4-5.8" fill="#a37143" fill-rule="evenodd" transform="translate(-200.2 -132.6)"/><path d="M307.85 166.65q1.25 1.65 1.45 4 .25 2.5-.8 4.25l-1.3 1.4.2-3.75q2.05-3.05.4-5.8v-.05l.05-.05m-6.35 17.85-.3.5q-1.2 1.95-2.9 2.5l3.2-3m-3.75 3.1h-.05.05m-9.85 3.95-.95.1q-2.25 0-4.15-2-1.55 2-3.85 2h-.5q-.15 4.75-2.3 8.3-1.35 2.2-3.05 3.4l-1.7-11.9 2.35-1.95 8.9-2.4 4.2-1.1.05-.05.3 1.95.7 3.65m-35.7 29.35q-2.5 2.75-6 2.75-4.65 0-8.4-4.7-1.3-1.65-2.25-3.6l1.35-.25 1.25-.3.5-.15q6 5.05 13.15-2l.4 8.25m-26.9-11.25q-3.95-.2-7.2-4.25-3.35-4.25-3.95-10.25l.2-.15q1.7 2.5 4.45 4.65 4.25 2.7 8.6 4.55l3.65 1.35.1.05 1.5.55q2.7 5.55 5.65 8.2l-.25.3h-.2l-.75.05q-6.9.35-10.1-6.35v-.25l-.2-.95.55-.1-.6.05-.9-.95-.35.3-.25.5q-2.1-.35-3.85-1.75l-.1-.2-2.2-4-.25.3q-.85 6.6 5.95 6.45l.3-.05q-.05.6.25 1.3l.3.45-.35.2M286.85 186l.35 1.9-.35-1.9" fill="#be8e63" fill-rule="evenodd" transform="translate(-200.2 -132.6)"/><path d="M243.35 157.15q3.8.4 7.25.1l30.7 20.3 2.5 1.65 2.25 3.15-5.1-.15L244.9 158l-1.6-.6.05-.25" fill="#9a8975" fill-rule="evenodd" transform="translate(-200.2 -132.6)"/><path d="m243.3 157.4-.45-.3.5.05-.05.25" fill="#963" fill-rule="evenodd" transform="translate(-200.2 -132.6)"/><path d="m282.55 186.75 3.15-1.1 1-.3.05-.05.15.65-.05.05-4.2 1.1-.1-.35m4.15-1.4.15.65-.15-.65" fill="#e3b058" fill-rule="evenodd" transform="translate(-200.2 -132.6)"/><path d="m280.95 182.2 1.2.8-1.25-.4.05-.4" fill="#c18448" fill-rule="evenodd" transform="translate(-200.2 -132.6)"/><path d="m280.85 182.6.1-.4-.05.4h-.05" fill="#a86f37" fill-rule="evenodd" transform="translate(-200.2 -132.6)"/><path d="m222.1 162.6 5.65-5.15.85.45 41.05 21.65.1.4h-.1q-4.45-.35-9.35 1.95l-.05.05v.05l-.5-.25.15-.3-37.8-18.85m28.5-5.35-.1-.05 9.3-2.5 4.3-3.05.2.25-.2-.25v-.05l-.1-.1 8.65-12.35.35.25 34.3 23.6q-1.7 1-3.15 2.25-4.85 4.1-7.3 10.65l-31-23 30.35 23.9-1.7 2-2.8 2.25-1.2.65-1.55.65-2.6.65-.05-.35h-.05l-.05-.05-.15-.25-2.25-3.15-19.5-27.25v-.05l-.4.25.05.05 17.35 25.35-30.7-20.3m37.7 36.05-.05.05-.05-.2.1.15m-73.85-15.05L214 178l1.05-2.05.45-.95 1.35-2.75 1.1-2.2.95-1.95 2.1-4.35-.1-.05h.05l.05.05 38.75 18-.05.2.35.05h.2-.25l-.6 2.9-.75 2.45q-2.1 5.7-6.1 8.5l-1.5.9-.05-.5-36.55-18m49.65-26.65 1.75 1.3-1.75-1.3" fill="#fffddf" fill-rule="evenodd" transform="translate(-200.2 -132.6)"/><path d="M260.25 182v-.05l.05-.05-.05.1m-39.3-18.3 1.15-1.1-1.1 1.15-.05-.05" fill="#9dacbf" fill-rule="evenodd" transform="translate(-200.2 -132.6)"/><path d="m222.1 162.6 37.8 18.85-.15.3-38.75-18 1.1-1.15m38.2 19.3q4.9-2.3 9.35-1.95h.1l.1.85 1.3 8.95.25 1.7 2.05 14.35-7.5.25-5.95 1.45-3.1 2.7-1.1 7.25-3.5 5.95-.1-2.5-.4-8.25-.15-3.6-.45-8.8-.15-3.5 1.5-.9q4-2.8 6.1-8.5l.75-2.45.6-2.9h.25l.05-.1m47.55-16-.05.65v.2l-.4 5.8-.2 3.75-.2 2.95-5.5 5.25-3.2 3-.35.3-.2-.2-.7-10.85-.05-.75-.15-.1q2.45-6.55 7.3-10.65 1.45-1.25 3.15-2.25l.7.5-.15 2.4m-10.15 21.7-9.4 5.7-.1-.15-.3-1.6-.7-3.65-.3-1.95-.15-.65-.4-2.3 2.6-.65 1.55-.65 1.2-.65 2.8-2.25 1.7-2-30.35-23.9 31 23 .15.1.05.75.7 10.85h-.05m-16.4-10.05-17.35-25.35-.05-.05.4-.25v.05l19.5 27.25-2.5-1.65M260 207.5l.25-25.5-.25 25.5" fill="#bab9ac" fill-rule="evenodd" transform="translate(-200.2 -132.6)"/><path d="m264.1 151.65-.1-.15.1.1v.05m33.85 36.15-.2.2v-.4l.2.2" fill="#fff" fill-rule="evenodd" transform="translate(-200.2 -132.6)"/><path d="M112.35 24.5q-2.3 4.85-4.7 8.8M15.7 52.7l-1.45-.95m1.5 1-.05-.05m.05.05 33.8 22.65.8-4.9v-.05l.65-2.8M80.75 49.6l5.1.15M80.7 50h-.05q-6.1-2.05-11-1.8" fill="none" stroke="#613c10" stroke-linecap="round" stroke-linejoin="round" stroke-width="3"/><path d="m307.8 166.55.05.1q1.25 1.65 1.45 4 .25 2.5-.8 4.25l-1.3 1.4m-5.7 8.2-.3.5q-1.2 1.95-2.9 2.5m-.55.1h-.05m-9.8 3.95-.95.1q-2.25 0-4.15-2-1.55 2-3.85 2h-.5q-.15 4.75-2.3 8.3-1.35 2.2-3.05 3.4m-20.9 17.55q-2.5 2.75-6 2.75-4.65 0-8.4-4.7-1.3-1.65-2.25-3.6l-2 .3q-3.4 0-6.2-3.1l-.55-.7-1.4-2.05-.1-.15q-3.95-.2-7.2-4.25-3.35-4.25-3.95-10.25l-.05-.55m0-.05-.05-1.05v-.95q.1-3.25 1.2-5.9l.5-1 .15-.35" fill="none" stroke="#960" stroke-linecap="round" stroke-linejoin="round" transform="translate(-200.2 -132.6)"/><path d="m78.05 1.5 34.3 23" fill="none" stroke="#960" stroke-linecap="round" stroke-linejoin="round" stroke-width="3"/><path d="M86.05 50.05h.05" fill="none" stroke="#300" stroke-linecap="round" stroke-linejoin="round" stroke-width=".75"/><path d="m28.4 25.3-.85-.45L21.9 30m47.65 17.35-.1-.4L28.4 25.3m22-.65-.1-.05 9.3-2.5 4.3-3.05m-.1-.15 8.65-12.35.35.25m34.85 26.5-.05.65v.2l-.4 5.8-.2 3.75m-8.9 11.2-.35.3m-.25-.2-9.4 5.7m-.1-.15-.3-1.6M59.8 74.9l-3.1 2.7-1.1 7.25-3.5 5.95-.1-2.5-.4-8.25-.15-3.6-.45-8.8-.15-3.5-.05-.5-36.55-18-.45-.25 1.05-2.05m.45-.95 1.35-2.75m2.05-4.15 2.1-4.35-.1-.05h.05L21.9 30m-1.1 1.15 38.75 18M18.7 35.5l-.95 1.95-1.1 2.2M15.3 42.4l-.45.95M64.1 19.3l-.2-.25m.2.25v.05L83.6 46.6l2.25 3.15.15.25M65.65 20.3 63.9 19m-3.85 30.4-.25 25.5m26.7-22.15L86 50m-16.45-2.65.1.85m1.3 8.95.25 1.7 1.7 11.9m-22.5-46.1 30.7 20.3 2.5 1.65m23.5-16.2L72.8 6.8m34.3 23.6.7.5-.15 2.4M97.55 55l-.7-10.85-.05-.75-.15-.1-31-23M87 55.3l.7 3.65M87 55.3l-.35-1.9-.15-.65M97.55 55h-.05m3.8-3.1-3.2 3" fill="none" stroke="#666" stroke-linecap="round" stroke-linejoin="round" stroke-width=".75"/><path d="m59.55 49.15.5.25m3.85-30.35-.1-.15m33.95 36.3-.2.2V55M63.9 19l-.1-.1" fill="none" stroke="#300" stroke-linecap="round" stroke-linejoin="round" stroke-width=".75"/><path d="m107 43.7-.2 2.95-5.5 5.25M72.9 70.75l.35 2.45-7.5.25-5.95 1.45m9.85-26.7 1.3 8.95M88.1 60.7l-.05.05M86 50l.05.05" fill="none" stroke="#666" stroke-linecap="round" stroke-linejoin="round" stroke-width=".75"/><path d="m59.55 49.15-.05.2" fill="none" stroke="#300" stroke-linecap="round" stroke-linejoin="round" stroke-width=".75"/><path d="m212.95 167.1.75.3 4.6 1.8-2.35 5.3-.1.2-1.05 2.25-8.25-3.95-.45-.25-1.15-.85-1.7-1.25 1.75.4 3.5-.55q2.9-.9 4.45-3.4m-7.95 3.95-.05.85.05-.85m10.95 3.45-2.25-7.1 2.25 7.1m-7.45-4-1.95 2.5 1.95-2.5m49.15 21.5h.35l3.5 1.75.65-1.2-.45 1.3-1.2 3.65 1.2-3.65 2.2 1.1 4.9 2.25 5.9 2.4 5.75 1.85v.05l.75.2 3.1.7 4.85.4.1-.75.05.05-.15.7-.3 1.35v.05l-.75 3.3-3.8-1-.1.25-3.75-1.75-.05.1-1.65-.65-.15.25-4-1.6.1-3.5-.1 3.5-.05.2-6.9-3.05-.15.35-6.5-2.85-3.5-1.75.15-4m3.85 1.75-1.8 3.35 1.8-3.35m7.3 3.45-1.15 3.05 1.15-3.05m25.65-.2.35 5.35.2.15-.5 3.45.2.1-.2-.05-.5 3.2-5.9-1.7.75-3.3v-.05l.3-1.35 1.4-.2q1.85-.4 2.75-1.6 1-1.45 1.15-4m.05 9v-.05.05m.3-3.65-1.5-1.35 1.5 1.35m-10.5.05v4.1-4.1m-3.85 2.6.75-3.25v-.05.05l-.75 3.25m-1.7-.55 1.7-2.95-1.7 2.95" fill="#bab9ac" fill-rule="evenodd" transform="translate(-200.2 -132.6)"/><path d="m202.4 170.05-1.95-1.45 1.7-7.1 3.05-4.25.7 4-.5 3.4-3 5.4 3-5.4.5-3.4.7 4.1 4.65 1.1.25.2.1-.05h.05l1.3.5q-1.55 2.5-4.45 3.4l-3.5.55-1.75-.4-.85-.6m2.6 1 .4-6.4-.4 6.4m6.5-4.4-3 3.85 3-3.85m50 27.1L258 192h-.35l.05-2.7 5.3 1.6-.85 1.65.85-1.65 7.3 2.1-.05.15 4.55 1.65-.1 4.8.1-4.8 7.1 3.6 2.4.9v.15l4.95 2.6.95-.45 1.1-2.4.1.1 2.15-4.1.85 1.2.05.6q-.15 2.55-1.15 4l-1.9-1.7 1.9 1.7q-.9 1.2-2.75 1.6l-1.4.2.15-.7-.05-.05-.1.75-4.85-.4-3.1-.7-.75-.2v-.05l1.35-2.4-.6 2.65.6-2.65-1.35 2.4-5.75-1.85-5.9-2.4-4.9-2.25-2.2-1.1.45-1.3-.65 1.2m7.3 3.45 1.45-4.05-1.45 4.05m15.5 5.2v-2.95 2.95m-2.4-4-.1.65.2-.4.1-.15-.2-.1" fill="#fffddf" fill-rule="evenodd" transform="translate(-200.2 -132.6)"/><path d="m2.2 37.45 3-5.4.5-3.4M11.4 34h.05m4.3 7.9-.1.2m-4.35-8.05.1-.05m-6.65 5.3.05-.85m3.5-.55 3-3.85m-6.1-2-.4 6.4m1.55 1.95 1.95-2.5m5.2-3.1 2.25 7.1M61.3 61.15l.65-1.2.85-1.65m-3.3 6.2 1.8-3.35m-1 3.75 1.2-3.65.45-1.3M60.3 64.9l.5.25m6.65 2.5 1.15-3.05m-8.3.3.5.25m9.25-4.6L68.6 64.6m5.9 2.4.1-4.8m9.5 4.5v3.1m7-3.2.1.1 1.9 1.7 1.5 1.35.2.15m-10.7 4v.3m-3.85-1.8-.05.1m-1.65-.65-.15.25m-4-1.6v.2h-.05m-6.9-3.05-.15.35m2.75-7.45.05-.15m18.85 9.8.15-.7-.05-.05m-.1.75-.3 1.35v.05l-.75 3.3m-3.8-1v-4.1m-3.1-.7v.05l-.75 3.25m1.35-5.95.2-.4.1-.15-.2-.1m-1.45 3.05v.05l-1.7 2.95M81 69.1l.6-2.65-1.35 2.4M74.5 67l-.1 3.5" fill="none" stroke="#666" stroke-linecap="round" stroke-linejoin="round" stroke-width=".25"/><path d="m5.7 28.65-.7-4-3.05 4.25L.25 36l1.95 1.45m3.5-8.8.7 4.1 4.65 1.1.35.15m.05 0 1.3.5.75.3 4.6 1.8-2.35 5.3m-.1.2-1.05 2.25-8.25-3.95-.45-.25-1.15-.85-1.7-1.25-.85-.6M62.8 58.3l-5.3-1.6-.05 2.7-.15 4 3 1.5m.5.25L67.3 68m7.3-5.8-4.55-1.65m4.55 1.65 7.1 3.6 2.4.9m0 .15 4.95 2.6L90 69l1.1-2.4m.1.1 2.15-4.1.85 1.2.05.6.35 5.35m.2.15-.5 3.45v.05l-.5 3.2-5.9-1.7-3.8-1m0 .3-.1-.05-3.75-1.75m-.05.1-1.65-.65m-.15.25-4-1.6m-.05.2-6.9-3.05m2.65-7.25-7.3-2.1" fill="none" stroke="#666" stroke-linecap="round" stroke-linejoin="round" stroke-width=".5"/></g></defs></svg>