<svg viewBox="0 0 56.15 50.19" xmlns="http://www.w3.org/2000/svg" xmlns:xlink="http://www.w3.org/1999/xlink"><use transform="translate(.02 .02)" width="56.1" height="50.15" xlink:href="#a"/><defs><g id="a"><path d="M317.95 207.25q.95 5.35 2.3 10.45h.65l.4.2.5.15q.7.15 1.4.65l-.5.15-1.8 1.5.3.15 1.4.2.6.15 3.05 1.15 1.85.3q.75 0 1.25 1l-1 .75q-.95.4-1.5 1.9.7.65 1.55.4l1.05-.25q.45-.1.35.85-1.2-.1-2.3.4-.2.05-.35.25-.55.45-.45 1.65h3.4l-5.2.3-3.75-.75-1.2-1.4-.05.1q-.2.45 0 1.05l-.5-.1-.55-1.2-.95-2.15-.55-1.45v1.45q-.8-1.15-1.4-2.8v2l-.7-2.3q.1.85-.2 1l-.35-1.35-.1-.4v.6q-.1.4-.35-.35-.45-1.1-.65-2.75v1.85l-.45 3.35-.4-1.15q-.45-1.95-.45-.65l-.05.1-.85-2.55-.1 1.15-1.05-2.3-.15 1.95-1-1.45-.15.95-.9-1.8-.1 1.5-1.25-3.15-.25 2.8-.1-.3-.7-2.15.1 2.95-.1-.15q-.55-.75-.8-2.5v2.8l-.75-1.8v1.15q.05 2-.2 1.65l-.3-.8q-.7-.45-1.15-1.65l.45 2.95-.45-.4q-.95-1.2-.95.4l.05.15q-.35.25-.6-.3-.25-.25.15.8l-.05.15-1.6-1.15.35 2.6-1.25-.75-.8-2-.8 2-1.8-3.3q-.7-1.5-1.25-3.15l-.6-1.8 3.55 1.3-.65-3.25-2.6-1.65-1.85-5.75-.3-4.45 2.2 4.85q.5 1.15 1.2 1.65.35.2.65-.5.25-.75.6.2v.05l.15.3-.15-.35-.2-1.3q-.2-1.15 0-1.15l.95.1.3-.25-.2-.65-.5-1.75-.25-.8q.95 1.95 2.15 3.2l1.3 1.15.45-.15.05-.6-.4-2.85.15-.1.15.25.15.35-.75-2.65q-.8-2.4-.9-5.25l.45 1.2.7 1.85q.55 1.7 1.25.9l.45-.85q.35-1.25.8-1.8l.3.9q.3.8.6.1l.15-.35q.2.4.35-.25l.55-2.05.35 1 .6 2.3.15-.35.25-1.65q.1-.9.5-.95l.2.65.1 1 .05.55v-.9l.05-2.3.05-6.25q-.15-1.6.2-2.3l.25 3.95q1.35 10.35 5 17.65l.6 1.6.2.4q1.7-5.1.4-14.05h.75q.55 7.65.1 14v.05l-.1.6V209l.1-.3-.1.3v.75l.35-.55.1-.65v-.05l.15.35.15.65.2.65.1-.1.15-.25.15-.65.3-1.65.2.35.2.65.25.5.3.15.05-.65.05-.35.05-.3.1.3.2 2 .3 2.3.3-1.05.3-3.55v-.6h.15m-4.85 2.1v2.45h.75v-2.05 2.05h-.75v-2.45l.15-.7-.4.15q.1-.25-.15 0v-.05.05l-.05.05.05-.05v.05l.05.05.05.1.3.35m-.4-.6-.05.1h.05-.05l.05-.1m5.4.9v2.4l-.05 1.3-.05.25q-.25.75-.25 1.65v.1h.6q.35-.05.55.55l.1.75.05.15.2.65-.1-1.3-.15-.5-.5-2.85-.3-2.5-.1-.65m-8.95-7.15q-.4-1-.5-2.2l-.05-1.2-.4 2.35v.2l.1 1.25v.35l.05.3q.25 1.65.85 2.8l.5.85.25.4.35.9q.15 1 .55 1.3h.15l.45-.5.25-.7-.4-1-.35-.65-.1-.25-.5-1.3q-.3-.45-.45-1.1l-.15-.3-.45-1-.15-.5" fill="#f5eed3" fill-rule="evenodd" transform="translate(-278.4 -185.15)"/><path d="m291.75 205.4 1.85 5.75 2.6 1.65.65 3.25-3.55-1.3.6 1.8q.55 1.65 1.25 3.15l1.8 3.3.8-2 .8 2 1.25.75-.35-2.6 1.6 1.15.05-.15q-.4-1.05-.15-.8.25.55.6.3l-.05-.15q0-1.6.95-.4l.45.4-.45-2.95q.45 1.2 1.15 1.65l.3.8q.25.35.2-1.65v-1.15l.75 1.8v-2.8q.25 1.75.8 2.5l.1.15-.1-2.95.7 2.15.1.3.25-2.8 1.25 3.15.1-1.5.9 1.8.15-.95 1 1.45.15-1.95 1.05 2.3.1-1.15.85 2.55.05-.1q0-1.3.45.65l.4 1.15.45-3.35v-1.85q.2 1.65.65 2.75.25.75.35.35v-.6l.1.4.35 1.35q.3-.15.2-1l.7 2.3v-2q.6 1.65 1.4 2.8v-1.45l.55 1.45.95 2.15.55 1.2.5.1q-.2-.6 0-1.05l.05-.1 1.2 1.4 3.75.75 5.2-.3h4.4q-6.55 5.25-13.4 3.75-7.3-.35-14.45 1.8v.35h-.1q-3.95-.1-7.95.1-9.75.45-18.8-4.2l-1.05-.6-.35-1.2 9.4-1-2.45-1.9-1.1-5.35-1.25.25-1.15-5.35-.7-.15.1-7.95.1.05.05 3.6 1.8-12.15q.45 5.65 1.95 10.5l.35-4.25.15 1.4q.3 1.95 1.05 2.95l.5.65.45-1.4v-.4l.05-.15.1.4 1.35-11.25 2.75 9.45-.15-1.8m17.4-2.9.15.5.45 1 .15.3q.15.65.45 1.1l.5 1.3.1.25.35.65.4 1-.25.7-.45.5h-.15q-.4-.3-.55-1.3l-.35-.9-.25-.4-.5-.85q-.6-1.15-.85-2.8l-.05-.3v-.35l-.1-1.25v-.2l.4-2.35.05 1.2q.1 1.2.5 2.2m8.95 7.15.1.65.3 2.5.5 2.85.15.5.1 1.3-.2-.65-.05-.15-.1-.75q-.2-.6-.55-.55h-.6v-.1q0-.9.25-1.65l.05-.25.05-1.3v-2.4m-11.45 25.15-.1.35.1-.35" fill="#fffdea" fill-rule="evenodd" transform="translate(-278.4 -185.15)"/><path d="M51.7 44.1h-3.4q-.1-1.2.45-1.65.15-.2.35-.25 1.1-.5 2.3-.4.1-.95-.35-.85L50 41.2q-.85.25-1.55-.4.55-1.5 1.5-1.9l1-.75q-.5-1-1.25-1l-1.85-.3-3.05-1.15-.6-.15-1.4-.2-.3-.15 1.8-1.5.5-.15q-.7-.5-1.4-.65l-.5-.15-.4-.2h-.65q-1.35-5.1-2.3-10.45l-.15-.85v-1.2m0 2.05v.6l-.3 3.55-.3 1.05-.3-2.3-.2-2-.1-.3-.05.3-.05.35-.05.65-.3-.15-.25-.5-.2-.65-.2-.35-.3 1.65-.15.65-.15.25-.1.1-.2-.65-.15-.65-.15-.35v-.15.2l-.1.65-.35.55m-.75-.4-.3-.35-.05-.1-.05-.05h-.05l.05-.1-.2-.4-.6-1.6q-3.65-7.3-5-17.65L28.25 0q-.35.7-.2 2.3L28 8.55l-.05 2.3v.9l-.05-.55-.1-1-.2-.65q-.4.05-.5.95l-.25 1.65-.15.35-.6-2.3-.35-1-.55 2.05q-.15.65-.35.25l-.15.35q-.3.7-.6-.1l-.3-.9q-.45.55-.8 1.8l-.45.85q-.7.8-1.25-.9l-.7-1.85-.45-1.2q.1 2.85.9 5.25l.75 2.65-.15-.35-.15-.25-.2-.1.05.2.4 2.85-.05.6-.45.15-1.3-1.15q-1.2-1.25-2.15-3.2l.25.8.5 1.75.2.65-.3.25-.95-.1q-.2 0 0 1.15l.2 1.3.15.35-.15-.3V22q-.35-.95-.6-.2-.3.7-.65.5-.7-.5-1.2-1.65l-2.2-4.85.3 4.45M51.7 44.1h4.4q-6.55 5.25-13.4 3.75-7.3-.35-14.45 1.8m0 .35h-.1q-3.95-.1-7.95.1-9.75.45-18.8-4.2l-1.05-.6L0 44.1l9.4-1-2.45-1.9-1.1-5.35-1.25.25-1.15-5.35-.7-.15.1-7.95.1-.6v.65L3 26.3l1.8-12.15q.45 5.65 1.95 10.5l.35-4.25.15 1.4q.3 1.95 1.05 2.95l.5.65.45-1.4v-.4l.05-.15.1.4 1.35-11.25v-.75.75l2.75 9.45-.15-1.8m22.2 3.3q.45-6.35-.1-14h-.75q1.3 8.95-.4 14.05v.05q.25-.25.15 0l.4-.15-.15.7m4.7-2.1v-.85m-3.95 2.95.1-.6v-.05l-.1.3v.75m.1-1 .15.35.1.1m-1.55-.35.05-.05v.05l.15-.05-.1.1M17.8 16.2l-.45-.75M28.15 50l.1-.35" fill="none" stroke="#600" stroke-linecap="round" stroke-linejoin="round" stroke-opacity=".69" stroke-width=".05"/><path d="M313.85 209.75v2.05h-.75v-2.45" fill="none" stroke="#f5eed3" stroke-linecap="round" stroke-linejoin="round" transform="translate(-278.4 -185.15)"/><path d="M39.7 24.5v2.4l-.05 1.3-.05.25q-.25.75-.25 1.65v.1h.6q.35-.05.55.55l.1.75.05.15.2.65-.1-1.3-.15-.5-.5-2.85-.3-2.5-.1-.65m-8.95-7.15q-.4-1-.5-2.2l-.05-1.2-.4 2.35v.2l.1 1.25v.35l.05.3q.25 1.65.85 2.8l.5.85.25.4.35.9q.15 1 .55 1.3h.15l.45-.5.25-.7-.4-1-.35-.65-.1-.25-.5-1.3q-.3-.45-.45-1.1l-.15-.3-.45-1-.15-.5" fill="none" stroke="#fffdea" stroke-linecap="round" stroke-linejoin="round" stroke-width=".05"/></g></defs></svg>