<svg viewBox="0 0 88.254 83.954" xmlns="http://www.w3.org/2000/svg" xmlns:xlink="http://www.w3.org/1999/xlink"><use width="88.25" height="83.95" xlink:href="#a"/><defs><g id="a"><path d="M263.05 168.2q3.5 2.15 7 5.2 10.45 9.2 18.6 25.1l2.25 4.7 3.6 8.5q-1.5-5.5-.75-10.15.45-3.1 1.85-5.85 4.2-8.25 16.05-7.45-6.25 1-9.25 3.25-2.4 1.85-3.85 5.65-1.5 3.95-1.55 6.4 0 8.35 9.35 20.5-1.7-4.5.5-8 .35 8.1 5.7 10.25 5.9 1.2 4.2-8.65 4.35 8.2-.5 12.8l-5.9 8.05-4.45 1.45q-8.2 2.3-16.35 2.2 2.3-3.9 2.4-6.55.1-1.85-1.15-4.9-1.55-4-7.05-8.85-9.85-8.85-21.7-.9 8-10.85 28.25 2.6-7.65-33-19.05-44.9-4.5-4.75-9.4-7.75l1.2-2.7" fill="#464b60" fill-rule="evenodd" transform="translate(-230.85 -158.5)"/><path d="m236.15 173.75-1.55 3.05q-1.25 2.8-.8 7.3.3 3.3 2.7 6.55 3.8 5.25 10.55 4.4-7.9 1.3-12.45-4.1-5.4-6.45-2.35-17.4l.1-.2 1.1-2.25 2.7 2.65" fill="#c6b193" fill-rule="evenodd" transform="translate(-230.85 -158.5)"/><path d="m263.05 168.2-1.2 2.7q-6.05-3.7-12.65-4.8-7.85-1.4-13.05 7.65l-2.7-2.65q4.9-8.9 14.5-8.15 7.6.6 15.1 5.25" fill="#9a7d52" fill-rule="evenodd" transform="translate(-230.85 -158.5)"/><path d="M31 12.4q4.9 3 9.4 7.75 11.4 11.9 19.05 44.9Q39.2 51.6 31.2 62.45q11.85-7.95 21.7.9 5.5 4.85 7.05 8.85 1.25 3.05 1.15 4.9-.1 2.65-2.4 6.55 8.15.1 16.35-2.2L79.5 80l5.9-8.05q4.85-4.6.5-12.8 1.7 9.85-4.2 8.65-5.35-2.15-5.7-10.25-2.2 3.5-.5 8-9.35-12.15-9.35-20.5.05-2.45 1.55-6.4 1.45-3.8 3.85-5.65 3-2.25 9.25-3.25-11.85-.8-16.05 7.45-1.4 2.75-1.85 5.85-.75 4.65.75 10.15l-3.6-8.5L57.8 40q-8.15-15.9-18.6-25.1-3.5-3.05-7-5.2-7.5-4.65-15.1-5.25Q7.5 3.7 2.6 12.6l-1.1 2.25-.1.2Q-1.65 26 3.75 32.45q4.55 5.4 12.45 4.1l3.25-.75 1.2-.4M31 12.4q-6.05-3.7-12.65-4.8Q10.5 6.2 5.3 15.25L3.75 18.3q-1.25 2.8-.8 7.3.3 3.3 2.7 6.55 3.8 5.25 10.55 4.4" fill="none" stroke="#000" stroke-linecap="round" stroke-linejoin="round" stroke-opacity=".353" stroke-width=".6"/><path d="M265.65 206.65q10.2-5.25 21.3 12.55-8.85-8.15-21.3-12.55" fill="#5a637e" fill-rule="evenodd" transform="translate(-230.85 -158.5)"/><path d="M34.8 48.15q12.45 4.4 21.3 12.55Q45 42.9 34.8 48.15z" fill="none" stroke="#000" stroke-linecap="round" stroke-linejoin="round" stroke-opacity=".353" stroke-width=".6"/><path d="M283.45 169.8q-.05 7.35 6.05 23.7-18.15-31.05.25-34.7-6.25 3.65-6.3 11" fill="#6a7393" fill-rule="evenodd" transform="translate(-230.85 -158.5)"/><path d="M52.6 11.3q-.05 7.35 6.05 23.7Q40.5 3.95 58.9.3q-6.25 3.65-6.3 11z" fill="none" stroke="#000" stroke-linecap="round" stroke-linejoin="round" stroke-opacity=".353" stroke-width=".6"/></g></defs></svg>