<svg viewBox="0 0 63.6 63.229" xmlns="http://www.w3.org/2000/svg" xmlns:xlink="http://www.w3.org/1999/xlink"><use width="63.6" height="63.25" xlink:href="#a"/><defs><g id="a"><path d="M273.15 209.5q.85 5.1-3.4 3.65-2-.65-2.85-2.65-3-7.15-3.1-14.9-.15-7.85 1.7-15.6 1.25-5.25 3.15-10.05l-.05.25-.1.3-1.65 8.45q-.15 1.6-.15 3.25v.9q.5 10.85 4.2 21l2.25 5.4m-12.1-9.05q1.4 4.25.75 8.45l-.4.45q-1.65.65-2.2-.7l-5.65-14.35-5.15-12.65-1.15-2.85-2.8-7v-.55q8.6 11.45 14.9 25.25 1.05 1.95 1.7 3.95m39.45 5.15q-5.55 5.6-12.9 7.1-9.4 1.95-11.05-7.3-1.35-7.55-.85-15.2.25-4.05.85-8 1.95-5.4 4.9-10.75-4.65 18-1.8 31.3.7 3.2 1.85 6.15l.7 1.4.15.25.1.05q.85.65 1.3.7v.05l1.65.1.8.05h.15q1.7-.2 4-1.25 3.95-1.75 9.2-6.65l6.7-6.2-5.75 8.2" fill="#ffe6c8" fill-rule="evenodd" transform="translate(-243.15 -168.35)"/><path d="m268.6 170.2.05-.25q-1.9 4.8-3.15 10.05-1.85 7.75-1.7 15.6.1 7.75 3.1 14.9.85 2 2.85 2.65 4.25 1.45 3.4-3.65l.15.25q-1.7-13.8 3.25-27.55-.6 3.95-.85 8-.5 7.65.85 15.2 1.65 9.25 11.05 7.3 7.35-1.5 12.9-7.1-5.75 7.4-12.65 14-6.4 5.55-16.45 9.4l-4.25 1.4q-4.75 1.5-8.85-.3-6.75-3.45-10.4-10.5l-2.35-6.1q-2.25-6.6-1.8-14.55.1-2.5.5-4.8l.35-1.8 4.7 11.75q1.9-13.25-2.05-25.3l1.15 2.85 5.15 12.65 5.65 14.35q.55 1.35 2.2.7l.4-.45q.65-4.2-.75-8.45l.95 2.25q-3.7-20 7.05-33.85l-.45 1.35m-24.15 1.05v.55l-.8-1.55.8 1" fill="#f90" fill-rule="evenodd" transform="translate(-243.15 -168.35)"/><path d="m285.4 211.45.8.05m-3.75-.9 2.95.85" fill="none" stroke="#000" stroke-linecap="round" stroke-linejoin="round" transform="translate(-243.15 -168.35)"/><path d="m268.6 170.2.45-1.35Q258.3 182.7 262 202.7l-.95-2.25q-.65-2-1.7-3.95-6.3-13.8-14.9-25.25l-.8-1 .8 1.55 2.8 7q3.95 12.05 2.05 25.3l-4.7-11.75-.35 1.8q-.4 2.3-.5 4.8-.45 7.95 1.8 14.55l2.35 6.1q3.65 7.05 10.4 10.5 4.1 1.8 8.85.3l4.25-1.4q10.05-3.85 16.45-9.4 6.9-6.6 12.65-14m-23.95-23.4q-4.95 13.75-3.25 27.55l-.15-.25-2.25-5.4q-3.7-10.15-4.2-21v-.9q0-1.65.15-3.25l1.65-8.45.1-.3m13.6 40.1-.7-1.4q-1.15-2.95-1.85-6.15-2.85-13.3 1.8-31.3-2.95 5.35-4.9 10.75m9.8 29.3q1.7-.2 4-1.25 3.95-1.75 9.2-6.65l6.7-6.2-5.75 8.2" fill="none" stroke="#000" stroke-linecap="round" stroke-linejoin="round" stroke-opacity=".502" transform="translate(-243.15 -168.35)"/></g></defs></svg>