<svg viewBox="0 0 100.93 69.162" xmlns="http://www.w3.org/2000/svg" xmlns:xlink="http://www.w3.org/1999/xlink"><use transform="translate(-.02)" width="100.95" height="69.15" xlink:href="#a"/><defs><g id="a"><path d="m236.75 192.2-.1-.05.2-.15-.1.2m26.95 40.15-.05-.2.2.15-.15.05m-4.6-3.55-.2-.3.2.3m14.9-18.05-.15.25.15-.3v.05m25.15.95.4-1.1-.4 3.35q-.35-.45-.3-.8l.1-.35.2-1.1m4.75 17.05-.15.1-.05.05v-.05l-.05-.05.25-.05m-26.75-.85-.05-.05-.1-.05.15.1" fill="#ba7001" fill-rule="evenodd" transform="translate(-224.5 -165.4)"/><path d="m236.65 192.15.1.05q-3.05 5.9-2.8 12.6.2 5.55 4.05 9.45-.65-5.45 1.5-10.5 3.65-8.7 12.75-12.1 10.15-3.85 20.85-5.75 4.75-.75 8.15-4.2 1.6-1.65 2.3-3.8 1.55-4.9 5.1-8.55 1.6-1.7 3.65-2.9l3.1-.5.05.5q-4.95 2.9-5.3 5.6-.55 4.65-2.15 8.6-1.9 4.5-4.55 6.5-1.15.8-5.95 2.1l-9.2 2.5-.3.1-2.65.95-2.05.85-1.5.3-.05.5q-5.05 2.9-4.35 6.55.9 4.4 2.4 7.05l.45.75.05.05.65.95.1.2.35-.9q-.3 7.6 4.8 13.25 2.8 3.15 6.5 5.55.8.95 2.45 1.95h.05l.15.1.05.05h.05l.05.05 3 1.55h.05l.15.05h-.7l-4.75-.3-3.1-.55-5-1.45-1.3-.5-3.55-1.65v-.05l-.1-.05-.65-.35q-.45.2-.65.55l-.15.85v.05l.15.3.2.3q.7 1 2.85 2.35l.05.05.35.2.2.15.15.1.4.2.25.15.25.1.05.05.05.2q-11.8 4.3-29-2.2l-.1-.05-3.85-3.45.05-.45-.6-.1q-5.85-6.35-5.1-13.35l.1-.45q.3-1.75 1.15-4.15 1.9-5.55 5.15-10.1l.25-.35 4.9-5.55m76.6-5.8-5.35 5.25-.95 1q-4.2 4.45-6.3 12.35-.8 2.85-1.5 6.75l-.2 1.1-.1.35q-.05.35.3.8-1.2 5.45-5.2 9.65-4.6 4.75-10.95 6.55l-.35-.1-5.5-2.15-.15-.1-.1-.05q-1.15-5 .5-9.85 2.65-7.9 9.15-13.25 6.25-5.2 13.25-9.35 6.95-4.2 13.45-8.95m6.8 11.75q-8.05 1.3-10.65 7.5-2.6 6.45-1.95 11.25l-.1 4.65-.4 2.15-1.35 3.1-.05.05-.15.25-1.5 1.7-.25.05q-2.05-8.75-5.2.1.05-2.5-.9-2.9 3.75-5.45 6-11.95 2.2-6.5 6.75-11.5 3.95-4.45 9.75-4.45m-69.55 22.1-.25-.2.15.15.1.05" fill="#e4dab8" fill-rule="evenodd" transform="translate(-224.5 -165.4)"/><path d="m236.75 192.2.1-.2q9.5-8.55 24.35-8.2 10.55.2 15.3-2 3.45-1.6 4.55-5.15.65-4.1 1.55-5.85 1.45-2.95 6.3-3.8l3.4-.55q-2.05 1.2-3.65 2.9-3.55 3.65-5.1 8.55-.7 2.15-2.3 3.8-3.4 3.45-8.15 4.2-10.7 1.9-20.85 5.75-9.1 3.4-12.75 12.1-2.15 5.05-1.5 10.5-3.85-3.9-4.05-9.45-.25-6.7 2.8-12.6m35.95 35.7q-3.7-2.4-6.5-5.55-5.1-5.65-4.8-13.25l.1-.2q2.2-4.2 8.5-3.7l.25.55-2 1q-4 2.7-.35 8.1 2 3 3.75.6l1.7-3.3.5-1.15.15-.25 1.45-3.15q3-6.4 6.5-9.95 5-5.1 12-5.9 11-1.25 19.25-5.75l.2.2-.15.15q-6.5 4.75-13.45 8.95-7 4.15-13.25 9.35-6.5 5.35-9.15 13.25-1.65 4.85-.5 9.85l-5-2.55q-.45 1.3.8 2.7m26.85-17.3q2.05-4.6 7.55-9.2 6.8-5.6 17.85-3.7l-4.9.4q-5.8 0-9.75 4.45-4.55 5-6.75 11.5-2.25 6.5-6 11.95-1.35-.6-4.7 2.9-2.65 3.35-9.85 1.25 6.35-1.8 10.95-6.55 4-4.2 5.2-9.65l.4-3.35" fill="#f1ecda" fill-rule="evenodd" transform="translate(-224.5 -165.4)"/><path d="m230.2 226.1.6.1-.05.45-.55-.55m31.55-31.65.05-.5 1.5-.3-1.55.8M250.5 220.2l-.1-.05-.15-.15.25.2" fill="#f17e0e" fill-rule="evenodd" transform="translate(-224.5 -165.4)"/><path d="m236.65 192.15-4.9 5.55-.25.35q-3.25 4.55-5.15 10.1-.85 2.4-1.15 4.15m-.1.45q-.75 7 5.1 13.35l.55.55 3.85 3.45.1.05q17.2 6.5 29 2.2m-.05-.2-.05-.05-.25-.1-.25-.15-.4-.2-.15-.1-.2-.15-.35-.2-.05-.05q-2.15-1.35-2.85-2.35l-.2-.3-.15-.3v-.05l.15-.85q.2-.35.65-.55l.65.35.1.05v.05l3.55 1.65 1.3.5 5 1.45 3.1.55 4.75.3h.7l-.15-.05h-.05l-3-1.55-.05-.05h-.05l-.05-.05-.15-.1h-.05q-1.65-1-2.45-1.95m-11.3-18.8-.35.9-.1-.2-.65-.95-.05-.05-.45-.75q-1.5-2.65-2.4-7.05-.7-3.65 4.35-6.55m1.55-.8 2.05-.85 2.65-.95.3-.1 9.2-2.5q4.8-1.3 5.95-2.1 2.65-2 4.55-6.5 1.6-3.95 2.15-8.6.35-2.7 5.3-5.6m-.05-.5-3.1.5M236.85 192q9.5-8.55 24.35-8.2 10.55.2 15.3-2 3.45-1.6 4.55-5.15.65-4.1 1.55-5.85 1.45-2.95 6.3-3.8l3.4-.55m-29 27.2-1.55.8m33.65-28.5.15-.05.55.1-.3.25q-.15.05-.35.2m17.95 19.75.7-.65-.9.45q-8.25 4.5-19.25 5.75-7 .8-12 5.9-3.5 3.55-6.5 9.95l-1.45 3.15-.15.25-.5 1.15-1.7 3.3q-1.75 2.4-3.75-.6-3.65-5.4.35-8.1l2-1m-.25-.55q-6.3-.5-8.5 3.7l-.1.2m52-22.9-.15.15-5.35 5.25-.95 1q-4.2 4.45-6.3 12.35-.8 2.85-1.5 6.75l.4-1.1q2.05-4.6 7.55-9.2 6.8-5.6 17.85-3.7l-4.9.4q-8.05 1.3-10.65 7.5-2.6 6.45-1.95 11.25l-.1 4.65-.4 2.15-1.35 3.1-.2.3-1.5 1.7-.15.1-.05.05v-.05l-.05-.05q-2.05-8.75-5.2.1.05-2.5-.9-2.9-1.35-.6-4.7 2.9-2.65 3.35-9.85 1.25l-.35-.1-5.5-2.15-.05-.05-.2-.1-5-2.55q-.45 1.3.8 2.7m26.45-16.2-.2 1.1-.1.35q-.05.35.3.8M270 205.2l.85.15-.25.25-.35.15m-6.6 26.4.2.15-.15.05m-38.6-19.6.05-.25.05-.2" fill="none" stroke="#000" stroke-linecap="round" stroke-linejoin="round" stroke-opacity=".502" transform="translate(-224.5 -165.4)"/></g></defs></svg>