<svg viewBox="0 0 258.65 214.2" xmlns="http://www.w3.org/2000/svg" xmlns:xlink="http://www.w3.org/1999/xlink"><use transform="translate(.03 .02)" width="258.6" height="214.15" xlink:href="#a"/><defs><g id="a"><path d="M322.9 232.6q56.05 16.15 110.15 15.75l-17.35 4.05-56.55-2.7q-34-2.9-65.65-19.85l11.6 13-28.05-16.4 25.35 23.25 21.85 9.6q9.05 7 21.05 11-29.75 5.95-54.55-5.55l16.4 11.65-49.9-10.3q-21.6-13.65-36.95-35.55l6.8 13q4.55 17.35 15.1 27.35 14.05 9.25 29.45 17.8-16.4-10.25-29.05-24.25 24.1 13.8 46.1 15.35 4.05 4.6 9 8.65 15.95 13.1 40.95 20.1l-11.65 2.3q-45.1.65-74.55-22.15v10.25Q230.6 286.4 196 253.8q-6.4-9.8-11.95-20.5l21.2 6.85 15.05 5.45q-29.45-27.4-41.1-57.05-2.6-8.65-4.75-18.2 9.6 15.05 36.25 37.6l8.2 6.85q-23.05-37.6-37.95-85.95-2.3-9.8-3.75-19.4 15.75 33.75 38.3 56.1l19.15 23.25q-16.6-23-19-38.95 14.1 20.1 41.55 38.25l18.5 11.65q-18.55-16.25-23.95-32.45 49.2 45.1 100.55 58.45l-3.9 2.35-35.75-5.75-42.4-15.75 52.65 26m-115.35-56.1-.95-1.35.95 1.35q.6 2.45 1.9 5.15l.4.75 10.45 22.85 20.5 16.4 24.65 8.2-18.5-16.4q-25.8-18.5-39.4-36.95" fill="#c90" fill-rule="evenodd" transform="translate(-174.45 -109.45)"/><path d="M415.7 252.4q-45 9.35-91.45 6.9l-21.85-9.6-25.35-23.25 28.05 16.4-11.6-13q31.65 16.95 65.65 19.85l56.55 2.7m-70.4 17.9 7 2q-31.8 13.15-63.6 7.5-22-1.55-46.1-15.35-8.65-9.55-15.5-20.9l-6.8-13q15.35 21.9 36.95 35.55l49.9 10.3-16.4-11.65q24.8 11.5 54.55 5.55M327 310.85q-34.05 5.6-64.3-2.3l9.6 15.05q-47.1-25.2-76.3-69.8 34.6 32.6 56.45 45.15V288.7q29.45 22.8 74.55 22.15m-121.75-70.7q-16.3-19.3-26.05-51.6 11.65 29.65 41.1 57.05l-15.05-5.45m5.45-32.2q-20.9-40.95-29.75-79.1 14.9 48.35 37.95 85.95l-8.2-6.85m4.8-42.4-6.85-27.35q2.95 5.9 7 11.65 2.4 15.95 19 38.95l-19.15-23.25m41.7 22.55-10.25-25.3 4.8 4.5q5.4 16.2 23.95 32.45l-18.5-11.65m91.2 40q-11.05 5.75-25.5 4.5l-52.65-26 42.4 15.75 35.75 5.75m-101.45-14.65 18.5 16.4-24.65-8.2-20.5-16.4-10.45-22.85q3.6 6.7 11.8 14.65 16.75 15.3 25.3 16.4" fill="#9f7800" fill-rule="evenodd" transform="translate(-174.45 -109.45)"/><path d="M148.45 123.15Q204.5 139.3 258.6 138.9l-17.35 4.05q-45 9.35-91.45 6.9 9.05 7 21.05 11l7 2q-31.8 13.15-63.6 7.5 4.05 4.6 9 8.65 15.95 13.1 40.95 20.1l-11.65 2.3q-34.05 5.6-64.3-2.3l9.6 15.05q-47.1-25.2-76.3-69.8-6.4-9.8-11.95-20.5l21.2 6.85Q14.5 111.4 4.75 79.1 2.15 70.45 0 60.9q9.6 15.05 36.25 37.6Q15.35 57.55 6.5 19.4 4.2 9.6 2.75 0q15.75 33.75 38.3 56.1L34.2 28.75q2.95 5.9 7 11.65 14.1 20.1 41.55 38.25L72.5 53.35l4.8 4.5q49.2 45.1 100.55 58.45l-3.9 2.35q-11.05 5.75-25.5 4.5M32.15 65.7l.95 1.35Q46.7 85.5 72.5 104M35 72.2q-1.3-2.7-1.9-5.15m2.3 5.9q3.6 6.7 11.8 14.65 16.75 15.3 25.3 16.4m-19.85 30.1q4.55 17.35 15.1 27.35 14.05 9.25 29.45 17.8Q80.8 169 68.15 155q-8.65-9.55-15.5-20.9" fill="none" stroke="#513600" stroke-linecap="round" stroke-linejoin="round" stroke-opacity=".4" stroke-width=".05"/></g></defs></svg>