<svg viewBox="0 0 67.203 64.813" xmlns="http://www.w3.org/2000/svg" xmlns:xlink="http://www.w3.org/1999/xlink"><use transform="translate(0 .01)" width="67.2" height="64.8" xlink:href="#a"/><defs><g id="a"><path d="m307.5 166-.05.2-.65-.35.7.15m13.6 4.4 1.55 1.2-.45.35-1.1-1.55m-6.8 27.65 1 .25-.9.25-.1-.5m-.85 14.2-.2.15-.15.05.35-.2M260 210.6l-.1-.55h.05l.05.55m23.75-52.6-.4-.05h-.1l.1-.4.4.45m-3.95-1.2-.05-.05v-.1l-.05-.6.1.75m4.35-1.45.05-.35h.05l-.1.35" fill="#804f93" fill-rule="evenodd" transform="translate(-259.1 -148.45)"/><path d="m298.15 175.1-.75-3.2 1.3-.4.2.5-.75 3.1m-29.9-14.6-.4 1.95-.75-.45.05-.1 1.1-1.4" fill="#525667" fill-rule="evenodd" transform="translate(-259.1 -148.45)"/><path d="m306.8 165.85.85-6.5 3.05-6 5-1.1-.75 5.3q-5.75-1.7-7.45 8.45l-.7-.15m15.85 5.75q3.35 3.2 3.25 8.9-.1 9.3-10.05 10.45l6.1-4.05q2.75-2.45 2.45-9.6-.25-2.3-2.2-5.35l.45-.35m-6.45 9.2-.05 1-.15.35q-2.8.15-3.65 1.85-.6 1.25.15 2 1 .95 2.15 1.15l-1.8.75-2.75-2.75 1.7-3.65 4.4-.7m4.9.4q-.15-6.1-5.15-6.95l.1-.55 1.95.15.2-.8-.05-.35.15.1 1.05.65.2.15.3.3q2.85 2.5 1.25 7.3m-9.45-6.75q-6.7 1.5-7.75 11-1.15 8.25 10.4 12.6l.1.5q-3.65 1.1-3.45 3.6L309.4 201q-4.25-3.6-7-9.5l-1.65.85q-2.35-5.2 1.65-12.6l.25-.3q2.05-4.65 6.3-6.5l.5-.25.35-.1.15-.05 2.45-.4.15.6v.1l-.05.05-1 .55-.1.05.25.95m11.55 25.05h1l.6.05h.1l-.05 1.25h-.05l-3.9.55-3.15.85q-8.5 2.8-4.3 10.05l-.35.2q-6.05-6.05-2.4-8.5l.25-.1q1.9-1.65 6.3-2.95l3.35-.85 2.6-.55m-19.4 7.5q-11.5-5.65-27.15 3.05l-16.65.55-.05-.55 15.55-1.8q4.55-2.35 8.5-3.6 12.85-4.2 19.8 2.35m-6.4-35.1q-.9-2.75-2.75-5.55-4.6-7-10.9-8.35l-.4-.45-3.55-.75-.1-.75 4.45-.7.1-.35q3.45.8 6.3 3.7l.3.35q5.35 4.4 7.85 12.45l-1.3.4m-30.8-5.65v.05q-1.6 3.95-.9 9.45.5 3.7 2.1 5.8l-2.6-.65q-3.4-8.15-.8-14.2l.3-.6q1.1-2.3 2.4-4.1l.75.45-1.95 3.35.7.45m13.85 9.6q-.4.1-.85.3-1.6 1.5-.1 2.8-2.55 1.3-3.5-.85l-.1-.95 1.5.1 1.6-2.35 1.45.95m.15-3.7q1.7 0 3.35 1.15l.9 1 .1.1q3.05 3.65 1.4 7.15-3.6 6.45-11.6 6.25l7.25-3.7.2-.05.3-.45q3.4-4.25 1.75-8.75l-3.65-2.7" fill="#844385" fill-rule="evenodd" transform="translate(-259.1 -148.45)"/><path d="m306.8 165.85-.9-.45q.4-3.5 1.1-6.25 2-8.2 6.6-10.1l.35-.2q1.85-.25 1.75 3.4l-5 1.1-3.05 6-.85 6.5m12.4 3.65q1 .35 1.9.9l1.1 1.55q1.95 3.05 2.2 5.35.3 7.15-2.45 9.6l-6.1 4.05-1.45.1q-8.6-.4-5.85-7.7 2.3-4.35 7.7-4.05l-.05 1.5-4.4.7-1.7 3.65 2.75 2.75 1.8-.75q1.5.3 3.35-.7 2.85-1.65 3.1-4.4v-.85q1.6-4.8-1.25-7.3l-.3-.3-.2-.15-1.05-.65-.15-.1-.1-.5-1.6-.5.3-.9 2.1-.15.05-.1.15-.7.15-.35m-3.9 28.8 7.9 1.2-2.6.55-3.35.85q-4.4 1.3-6.3 2.95l-.25.1q-3.65 2.45 2.4 8.5l-1.65.4q-3.6-3.85-7.65-5.85-6.95-6.55-19.8-2.35-3.95 1.25-8.5 3.6l-15.55 1.8h-.05l-.4-2.25 6.3-.5h.05l.25 1.05v.05l9.95-1.8-.15-.55 5.15-2.05-.35-.55 1.1-.7-.45-.3 2.45-1.5.75.7 6.35-4.9.9.65h.05v-.05l4.25-5.35-1.1-.6 2.2-4.2-1.4-.3q1.4-3.3 2.2-7.05.5-2.3.15-4.75l.75-3.1-.2-.5q-2.5-8.05-7.85-12.45l-.3-.35q-2.85-2.9-6.3-3.7h-.05l.1-.8-4.45-.8-.1-.6 1.4-.25-.3-.6 2.25-.35-.1-.6v-.05l-4.65-.4-.15-.65q2.35-.4 4.8.05 5.3 1.05 10.85 6.25l.2.2q10.8 11.75 8.15 20.2 2.4-4.3 5.45-6.25l.3.6 2.75-.85.25.6v.1l-1.2 1-.1.05.15.3h.1l.05.4-.15.05-.35.1-.5.25q-4.25 1.85-6.3 6.5l-.25.3q-4 7.4-1.65 12.6l1.65-.85q2.75 5.9 7 9.5l1.55 1.15q-.2-2.5 3.45-3.6l.9-.25m-47.5-16.75q2.15 2.8 6.45 2.5 6.5-.85 7.75-5 1.1-3.95-1.55-3.2l-1.45-.95-1.6 2.35-1.5-.1q-.2-3.35 1.65-4.2 1.55-.85 3.05-.8l3.65 2.7q1.65 4.5-1.75 8.75l-.3.45-.2.05-7.25 3.7-2.65-.25q-7.6-1.4-10.5-9.5-1.85-7 1.3-14.25l1.5-2.95-.05 1.6-.8 2.6 4.1-4.85.6.3-1.1 1.4-.05.1q-1.3 1.8-2.4 4.1l-.3.6q-2.6 6.05.8 14.2l2.6.65m28.85 11.75-1.1 2.55 1.1.3.6-2.7-.6-.15M283 203.2l.55.8 2.2-1.05-.95-.7-1.8.95" fill="#a36ba3" fill-rule="evenodd" transform="translate(-259.1 -148.45)"/><path d="M307.65 170.35q2.7-1.75 5.85-1.7h.3l4.25.45 1.15.4-.15.35-.15.7-.05.1-2.1.15-.3.9 1.6.5.1.5q-2.25-1-5.75-.55l-2.45.4-.05-.4h-.1l-.15-.3.1-.05 1.2-1v-.1l-.25-.6-2.75.85-.3-.6m-41.8 36.95q8.1-1.05 14.55-4.35l.95-.5.45.3-1.1.7.35.55-5.15 2.05.15.55-9.95 1.8v-.05l-.25-1.05m17.95-6.35 1.35-.95q7.2-5.25 10.65-13.1l1.4.3-2.2 4.2 1.1.6-4.25 5.35v.05h-.05l-.9-.65-6.35 4.9-.75-.7m-19.4-40.1q1.35-2.4 3.3-4.85 5.1-5.25 10.5-6.1l.15.65 4.65.4v.05l.1.6-2.25.35.3.6-1.4.25.1.6 4.45.8-.1.8q-4.9-1.15-11 1.7-2.65 1.15-4.95 3.8l-.6-.3-4.1 4.85.8-2.6.05-1.6M283 203.2l1.8-.95.95.7-2.2 1.05-.55-.8" fill="#ccb5c4" fill-rule="evenodd" transform="translate(-259.1 -148.45)"/><path d="m315.95 174.25-2.45-.1-1.85.3-.25-.95.1-.05 1-.55.05-.05v-.1l-.15-.6q3.5-.45 5.75.55l.05.35-.2.8-1.95-.15-.1.55m-32.7-16.3q-8.95-.8-13.8 4.05-1.85 1.85-2.85 4.25l-.7-.45 1.95-3.35.4-1.95q2.3-2.65 4.95-3.8 6.1-2.85 11-1.7l-.05.35-4.45.7.05.6v.1l.05.05 3.55.75-.1.4m13.4 35.35.6.15-.6 2.7-1.1-.3 1.1-2.55" fill="#b18fa6" fill-rule="evenodd" transform="translate(-259.1 -148.45)"/><path d="M64.1 51.05h1l.6.05h.1l-.05 1.25h-.05l-3.9.55-3.15.85q-8.5 2.8-4.3 10.05l-.2.15L54 64" fill="none" stroke="#000" stroke-linecap="round" stroke-linejoin="round" stroke-opacity=".302" stroke-width=".8"/><path d="M56.6 3.8Q56.7.15 54.85.4l-.35.2q-4.6 1.9-6.6 10.1-.7 2.75-1.1 6.25l.9.45m8.9-13.6-.75 5.3q-5.75-1.7-7.45 8.45l-.05.2-.65-.35m.85 4.5q2.7-1.75 5.85-1.7h.3l4.25.45 1.15.4q1 .35 1.9.9l1.55 1.2q3.35 3.2 3.25 8.9-.1 9.3-10.05 10.45l-1.45.1q-8.6-.4-5.85-7.7 2.3-4.35 7.7-4.05l-.05 1.5-.05 1-.15.35q-2.8.15-3.65 1.85-.6 1.25.15 2 1 .95 2.15 1.15 1.5.3 3.35-.7 2.85-1.65 3.1-4.4v-.85q-.15-6.1-5.15-6.95l-2.45-.1-1.85.3q-6.7 1.5-7.75 11-1.15 8.25 10.4 12.6l1 .25 7.9 1.2M54 64l-1.65.4q-3.6-3.85-7.65-5.85-11.5-5.65-27.15 3.05L.9 62.15l-.1-.55-.4-2.25 6.3-.5h.05q8.1-1.05 14.55-4.35l.95-.5 2.45-1.5 1.35-.95q7.2-5.25 10.65-13.1 1.4-3.3 2.2-7.05.5-2.3.15-4.75l-.75-3.2q-.9-2.75-2.75-5.55-4.6-7-10.9-8.35l-.4-.05h-.1q-8.95-.8-13.8 4.05Q8.5 15.4 7.5 17.8v.05q-1.6 3.95-.9 9.45.5 3.7 2.1 5.8 2.15 2.8 6.45 2.5 6.5-.85 7.75-5 1.1-3.95-1.55-3.2-.4.1-.85.3-1.6 1.5-.1 2.8-2.55 1.3-3.5-.85l-.1-.95q-.2-3.35 1.65-4.2 1.55-.85 3.05-.8 1.7 0 3.35 1.15l.9 1 .1.1q3.05 3.65 1.4 7.15-3.6 6.45-11.6 6.25L13 39.1q-7.6-1.4-10.5-9.5-1.85-7 1.3-14.25l1.5-2.95Q6.65 10 8.6 7.55q5.1-5.25 10.5-6.1 2.35-.4 4.8.05 5.3 1.05 10.85 6.25l.2.2q10.8 11.75 8.15 20.2 2.4-4.3 5.45-6.25" fill="none" stroke="#000" stroke-linecap="round" stroke-linejoin="round" stroke-opacity=".302" stroke-width=".8"/></g></defs></svg>