<svg viewBox="0 0 74.25 65.65" xmlns="http://www.w3.org/2000/svg" xmlns:xlink="http://www.w3.org/1999/xlink"><use width="74.25" height="65.65" xlink:href="#a"/><defs><g id="a"><path d="m292.4 174.3.2-1.25q0-1.4-.95-2.4-.6-.6-1.4-.8l-.3-.05-.7-.1-.95.15q-.8.2-1.4.8-1 1-1 2.4t1 2.35q.95 1 2.35 1 .95 0 1.7-.45l.7-.55.75-1.1" fill="#dace65" fill-rule="evenodd" transform="translate(-221.75 -151.45)"/><path d="m70.65 22.85.2-1.25q0-1.4-.95-2.4-.6-.6-1.4-.8l-.3-.05-.7-.1-.95.15q-.8.2-1.4.8-1 1-1 2.4t1 2.35q.95 1 2.35 1 .95 0 1.7-.45l.7-.55z" fill="none" stroke="#000" stroke-linecap="round" stroke-linejoin="round" stroke-opacity=".302" stroke-width=".8"/><path d="M263.25 201.2v.05h.05l-.05-.05" fill="#d7b7df" fill-rule="evenodd" transform="translate(-221.75 -151.45)"/><path d="m237.05 172.95-1.15.4.15.35 1.2-.2-.2-.55" fill="#ab7dc4" fill-rule="evenodd" transform="translate(-221.75 -151.45)"/><path d="M242.55 176.6v.1l.05.05-.05-.15m-5.75.05h.15v-.1l-.15.1m38.55-16.15-.05.15.05-.05v-.1" fill="#804f93" fill-rule="evenodd" transform="translate(-221.75 -151.45)"/><path d="m239.15 178.1 2.45-.1 1.85.3.25-.95-.1-.05-1-.55-.05-.05v-.1l.15-.6q-3.5-.45-5.75.55v.1l-.05.25.2.8 1.95-.15.1.55m32.7-16.3q8.95-.8 13.8 4.05 1.85 1.85 2.85 4.25l.7-.45-1.95-3.35-.4-1.95q-2.3-2.65-4.95-3.8-6.1-2.85-11-1.7l.05.35 4.45.7-.05.6v.1l-.05.05-3.55.75.1.4" fill="#42aed7" fill-rule="evenodd" transform="translate(-221.75 -151.45)"/><path d="M247.45 174.2q-2.7-1.75-5.85-1.7h-.3l-4.25.45.2.55-1.2.2.15.7.05.1 2.1.15.3.9-1.6.5-.1.5q2.25-1 5.75-.55l.1-.35v-.05l2.5.4.15-.3-.1-.05-1.2-1v-.1l.25-.6 2.75.85.3-.6m41.8 36.95q-8.1-1.05-14.55-4.35l-.95-.5-.45.3 1.1.7-.35.55 5.15 2.05-.15.55 9.95 1.8v-.05l.25-1.05m-17.95-6.35-1.35-.95q-7.2-5.25-10.65-13.1l-1.4.3 2.2 4.2-1.1.6 4.25 5.35.05.05.9-.65 6.35 4.9.75-.7m19.4-40.1q-1.35-2.4-3.3-4.85-5.1-5.25-10.5-6.1l-.15.65-4.65.4v.05l-.1.6 2.25.35-.3.6 1.4.25-.1.6-4.45.8.1.8q4.9-1.15 11 1.7 2.65 1.15 4.95 3.8l.6-.3 4.1 4.85-.8-2.6-.05-1.6m-20.4 41.4-.95.7 2.2 1.05.55-.8-1.8-.95" fill="#a4ddee" fill-rule="evenodd" transform="translate(-221.75 -151.45)"/><path d="m248.3 169.7.9-.45q-1.55-13.8-7.7-16.35l-.35-.2q-1.85-.25-1.75 3.4l5 1.1 3.05 6 .85 6.5m28.6-15.95q-2.35-.4-4.8.05-5.3 1.05-10.85 6.25l-.2.2q-10.8 11.75-8.15 20.2-2.4-4.3-5.45-6.25l-.3.6-2.75-.85-.25.6v.1l1.2 1 .1.05-.15.3-2.5-.4v.05l-.1.35 2.45.4.15.05.35.1.5.25q4.25 1.85 6.3 6.5l.25.3q4 7.4 1.65 12.6l-1.65-.85q-2.75 5.9-7 9.5l-1.55 1.15q.2-2.75-4.35-3.85l-7.9 1.2q9.2 1.7 12.25 4.35l.25.1q3.65 2.45-2.4 8.5l1.65.4q3.6-3.85 7.65-5.85 6.95-6.55 19.8-2.35 3.95 1.25 8.5 3.6l15.6 1.8.4-2.25-6.3-.5h-.05l-.25 1.05v.05l-9.95-1.8.15-.55-5.15-2.05.35-.55-1.1-.7.45-.3-2.45-1.5-.75.7-6.35-4.9-.9.65h-.05v-.05l-4.25-5.35 1.1-.6-2.2-4.2 1.4-.3q-1.4-3.3-2.2-7.05-.5-2.3-.15-4.75l-.75-3.1.2-.5q2.5-8.05 7.85-12.45l.3-.35q2.9-2.9 6.35-3.7l-.1-.8 4.45-.8.1-.6-1.4-.25.3-.6-2.25-.35.1-.6v-.05l4.65-.4.15-.65m-41 19.6q-1 .35-1.9.9-3 4-3.3 6.9-.3 7.15 2.45 9.6l6.1 4.05 1.45.1q8.6-.4 5.85-7.7-2.3-4.35-7.7-4.05l.05 1.5 4.4.7L245 189l-2.75 2.75-1.8-.75q-1.5.3-3.35-.7-2.85-1.65-3.1-4.4v-.85q-1.6-4.8 1.25-7.3l.3-.3.2-.15 1.05-.65.15-.1.1-.5 1.6-.5-.3-.9-2.1-.15-.05-.1-.15-.7-.15-.35m51.4 12.05q-2.15 2.8-6.45 2.5-6.5-.85-7.75-5-1.1-3.95 1.55-3.2l1.45-.95 1.6 2.35 1.5-.1q.2-3.35-1.65-4.2-1.55-.85-3.05-.8l-3.65 2.7q-1.65 4.5 1.75 8.75l.3.45.2.05 7.25 3.7 2.65-.25q7.6-1.4 10.5-9.5 1.85-7-1.3-14.25l-1.5-2.95.05 1.6.8 2.6-4.1-4.85-.6.3q1.95 2.25 3.55 5.6l.3.6q2.6 6.05-.8 14.2l-2.6.65m-29.45 11.9.6-.15 1.1 2.55-1.1.3-.6-2.7m12.45 8.8 1.8.95-.55.8-2.2-1.05.95-.7" fill="#7bc1dc" fill-rule="evenodd" transform="translate(-221.75 -151.45)"/><path d="m248.3 169.7-.85-6.5-3.05-6-5-1.1q.05 2 .75 5.3 5.8-1.7 7.5 8.65l.65-.35m-14.3 4.55-1.55 1.2q-3.35 3.2-3.25 8.9.1 9.3 10.05 10.45l-6.1-4.05q-2.75-2.45-2.45-9.6.3-2.9 3.3-6.9m4.9 10.4.05 1 .15.35q2.8.15 3.65 1.85.6 1.25-.15 2-1 .95-2.15 1.15l1.8.75L245 189l-1.7-3.65-4.4-.7m-4.9.4q.15-6.1 5.15-6.95l-.1-.55-1.95.15-.2-.8.05-.25h-.15l-1.05.65-.2.15-.3.3q-2.85 2.5-1.25 7.3m9.45-6.75q6.7 1.5 7.75 11 1.15 8.25-10.4 12.6l-1 .25q4.55 1.1 4.35 3.85l1.55-1.15q4.25-3.6 7-9.5l1.65.85q2.35-5.2-1.65-12.6l-.25-.3q-2.05-4.65-6.3-6.5l-.5-.25-.35-.1-.15-.05-2.45-.4-.15.6.05.15 1 .55.1.05-.25.95m-11.55 25.05h-1l-.6.05h-.1l.05 1.25h.05q16.95 1.8 11.35 11.45l.2.15.15.05q6.05-6.05 2.4-8.5l-.25-.1q-3.05-2.65-12.25-4.35m19.4 7.5q11.5-5.65 27.15 3.05l16.65.55.1-.55-15.6-1.8q-4.55-2.35-8.5-3.6-12.85-4.2-19.8 2.35m5.65-31.9q.55-4.25 3.5-8.75 4.6-7 10.9-8.35l.4-.05h.1l-.1-.4 3.55-.75.05-.15.05-.6-4.45-.7-.05-.35q-3.45.8-6.35 3.7l-.3.35q-5.35 4.4-7.85 12.45l-.2.5.75 3.1m31.55-8.85v.05q1.6 3.95.9 9.45-.5 3.7-2.1 5.8l2.6-.65q3.4-8.15.8-14.2l-.3-.6q-1.6-3.35-3.55-5.6l.4 1.95 1.95 3.35-.7.45m-13.85 9.6.85.3q1.6 1.5.1 2.8 2.55 1.3 3.5-.85l.1-.95-1.5.1-1.6-2.35-1.45.95m-.15-3.7q-1.7 0-3.35 1.15-4.3 4.25-2.4 8.25 3.6 6.45 11.6 6.25l-7.25-3.7-.2-.05-.3-.45q-3.4-4.25-1.75-8.75l3.65-2.7m-16.65 21.3.6 2.7 1.1-.3-1.1-2.55-.6.15" fill="#5ba4b0" fill-rule="evenodd" transform="translate(-221.75 -151.45)"/><path d="M10.15 51.9h-1l-.6.05h-.1l.05 1.25h.05Q25.5 55 19.9 64.65l.2.15.15.05" fill="none" stroke="#000" stroke-linecap="round" stroke-linejoin="round" stroke-opacity=".302" stroke-width=".8"/><path d="M17.65 4.65q-.1-3.65 1.75-3.4l.35.2Q25.9 4 27.45 17.8l-.9.45m-8.9-13.6q.05 2 .75 5.3 5.8-1.7 7.5 8.65l.65-.35M55.15 2.3q-2.35-.4-4.8.05Q45.05 3.4 39.5 8.6l-.2.2Q28.5 20.55 31.15 29q-2.4-4.3-5.45-6.25-2.7-1.75-5.85-1.7h-.3l-4.25.45-1.15.4q-1 .35-1.9.9L10.7 24q-3.35 3.2-3.25 8.9.1 9.3 10.05 10.45l1.45.1q8.6-.4 5.85-7.7-2.3-4.35-7.7-4.05l.05 1.5.05 1 .15.35q2.8.15 3.65 1.85.6 1.25-.15 2-1 .95-2.15 1.15-1.5.3-3.35-.7-2.85-1.65-3.1-4.4v-.85q.15-6.1 5.15-6.95l2.45-.1 1.85.3q6.7 1.5 7.75 11 1.15 8.25-10.4 12.6l-1 .25-7.9 1.2m10.1 12.95 1.65.4q3.6-3.85 7.65-5.85 11.5-5.65 27.15 3.05l16.65.55.1-.55.4-2.25-6.3-.5h-.05q-8.1-1.05-14.55-4.35l-.95-.5-2.45-1.5-1.35-.95Q41 47.15 37.55 39.3q-1.4-3.3-2.2-7.05-.5-2.3-.15-4.75.55-4.25 3.5-8.75 4.6-7 10.9-8.35l.4-.05h.1q8.95-.8 13.8 4.05 1.85 1.85 2.85 4.25v.05q1.6 3.95.9 9.45-.5 3.7-2.1 5.8-2.15 2.8-6.45 2.5-6.5-.85-7.75-5-1.1-3.95 1.55-3.2l.85.3q1.6 1.5.1 2.8 2.55 1.3 3.5-.85l.1-.95q.2-3.35-1.65-4.2-1.55-.85-3.05-.8-1.7 0-3.35 1.15-4.3 4.25-2.4 8.25 3.6 6.45 11.6 6.25l2.65-.25q7.6-1.4 10.5-9.5 1.85-7-1.3-14.25l-1.5-2.95q-1.35-2.4-3.3-4.85-5.1-5.25-10.5-6.1" fill="none" stroke="#000" stroke-linecap="round" stroke-linejoin="round" stroke-opacity=".302" stroke-width=".8"/><path d="m226.75 193.7-1.55.1-.2.1-1 .85-.5 2.2 1.55 2.1 2.25-.5 1.25-1.15.1-.75q0-1.35-.95-2.3l-.55-.45-.4-.2M281 157.4l.15-.95q0-1.75-1.7-3.15-1.65-1.4-3.9-1.45h-.2l.05.05-2.6 1-1.2 1.05.05 2.15 2.1 1.75 5.35.4 1.8-.65.1-.2m-24.25 45.5q.5-1 .45-2.05-.05-1.75-1.3-3.75l-1.25-1.45-.1-.1q-.7-.45-1.5-.4-.8 0-1.5.45l-.1.65-1.45 2.35.5 3.5 1.9 2.35 2.25-.1 2.1-1.45" fill="#eee8b7" fill-rule="evenodd" transform="translate(-221.75 -151.45)"/><path d="m228.55 197.4-1.25 1.15-2.25.5-1.55-2.1.5-2.2 1-.85.2-.1 1.55-.1-1.35-.3q-1.35 0-2.3.95t-.95 2.3.95 2.3 2.3.95 2.3-.95l.85-1.55m46.8-45.55q-2.3 0-3.95 1.45-1.65 1.4-1.65 3.15 0 1.7 1.65 2.2l3.95.55 4.1-.5q1.05-.35 1.45-1.1l-1.8.65-5.35-.4-2.1-1.75-.05-2.15 1.2-1.05 2.6-1-.05-.05m-23.8 43.75-1.25 1.2q-1.2 1.6-1.55 3.7-.3 2.05 1 3.6t3.1 1.55 3.1-1.5l.8-1.25-2.1 1.45-2.25.1-1.9-2.35-.5-3.5 1.45-2.35.1-.65" fill="#dace65" fill-rule="evenodd" transform="translate(-221.75 -151.45)"/><path d="m5.4 42.45.55.45q.95.95.95 2.3l-.1.75m52.45-40L59.4 5q0-1.75-1.7-3.15Q56.05.45 53.8.4h-.2M35 51.45q.5-1 .45-2.05-.05-1.75-1.3-3.75L32.9 44.2m-.1-.1q-.7-.45-1.5-.4-.8 0-1.5.45" fill="none" stroke="#8d7c21" stroke-linecap="round" stroke-linejoin="round" stroke-width=".05"/><path d="m6.8 45.95-.85 1.55q-.95.95-2.3.95t-2.3-.95-.95-2.3.95-2.3 2.3-.95l1.35.3M53.6.4q-2.3 0-3.95 1.45Q48 3.25 48 5q0 1.7 1.65 2.2l3.95.55 4.1-.5q1.05-.35 1.45-1.1m-29.35 38-1.25 1.2q-1.2 1.6-1.55 3.7-.3 2.05 1 3.6t3.1 1.55 3.1-1.5l.8-1.25" fill="none" stroke="#000" stroke-linecap="round" stroke-linejoin="round" stroke-opacity=".302" stroke-width=".8"/></g></defs></svg>