<svg viewBox="0 0 89.3 105.6" xmlns="http://www.w3.org/2000/svg" xmlns:xlink="http://www.w3.org/1999/xlink"><g transform="translate(-72.1 -19.5)"><use transform="translate(72.1 20.65)" width="87.5" height="104.45" xlink:href="#a"/><use transform="translate(73.9 19.5)" width="87.5" height="104.45" xlink:href="#a"/></g><defs><use width="87.5" height="104.45" xlink:href="#b" id="a"/><g id="b" fill-rule="evenodd"><path d="m23.05-13.2.2-.05Q19.95-9.2 18-4.75 15.4 1.1 15.1 7.7l.15-.2 1.15-1.1.6-.15h.5l.9.2q2.15-1.5 4.65-2.65l.2-.05L19.9 6.8l.35.1.5-.4.25-.25L27 6l5.05-.4L34 5l10.25.95.25.3q-5.2 0-10.1 1.1l3.3.45q.3.05.55.45-3.55-.3-7.05-.1l-1.7.55 7.75 1.25.25.3-8.1-.6-.65.2 14.45 3.4H26.05v2.25l-7.6.85Q15.6 25.1 5.2 27.65l-.7-.15L1 30.2h-2.75q1.9-1.95 4.4-3.65l1.2-1.1q-4.2 2.2-8.55 4.75h-.55q4.9-4.1 10-7.95l.55-.4 4-2.9q-.35-.5-.2-1.25l-.3.1q.4.75-1.75 1.75l-.15.1q-.6.7-1.3.75l-11.15 9.8h-2.2q4.85-4.95 9.9-9.6Q-4.1 23.55-10 27.8q-1.6 1.15-3.5 1.45 3.75-3.35 7.85-6.6-5.4 3.25-10.25 7.55h-.7q5.4-6.2 12.25-10.55-9.8 1.8-19.15 4.1 9.95-4.1 19.85-7.15l-.5-.15q-10.45-3.3-11-4.75l.9.05q7.75-.35 15.3 1.35l.95.15 1.6 1.05.85.55q-5.3-4.8-11.85-9.1-2-1.35-.6-2.25 5.45 2 10.75 4.75L4 9q.45 1.95 1.4 3.8.6 1.1.8 2.25l.95.3-.9-1.85L7.4 9.65Q7.75 1.25 8.5-7q.05-.5.75-.25.05 5.05.65 9.9 1.9-4.6 4.35-8.9l-1.6 7.9.4-.35.95-.55q.9-2.95 2.25-5.5 2.55-4.9 6.8-8.45M15.1 12.2v.1q.4-.35.8-.5l-.25-.6-.55.9v.1m-4.25-3.65.9 4.1.15-.2Q11 10.3 11 8l-.15.55" fill="#2f2319" transform="translate(43 74.25)"/><path d="M-40.7-46.75h3.05v3q.5 11.25 7.8 20.4 1.55 2 3.75 3.05Q-11-12.8-2.15 1.6-5.25-15.6-1-32.55 4.4-54.15 25.5-61q5.2 1.9 8.7 5.9 6.4 7.35 5.8 15.35h-2.7q.35-11.8-11.05-18.25Q16-54.25 8.85-46.25 6.7-43.9 5.3-41.05-5.05-19.7 3.15 3.15q3.65 10.15 8.1 20.1L5.1 17.5q-5.75-1.05-10.75-4.4-5.25-3.45-8.55-8.7-4.2-6.75-9.55-12.65l-3.6.6q-5.85 1.6-10.3 5.9h-3.25q5.8-10.8 17.9-10Q-11.9 3.4 3 14.55l-.8-1.5Q.95 10.65-.65 8.6l-2.1-3.1Q-10.4-8.3-24.3-15.45q-9.55-5.05-13.4-15.7-2.9-8-3-15.6m82.9 42 .05 1-.35-1h.3" fill="#2f2319" transform="translate(43 74.25)"/><path d="M-40.7-46.75q-.1-6.45 1.8-12.6 2.4-7.7 7.9-14.9l6.9.7q1 3.1 2.55 6.3.7 1.45 1.9 2.5l1.95 2q2.55 3.1 2.4 6.7-2.2 2.85-5.8 3.4-5.5 1.15-9.15-2.85 1.55-1.2 3.75-1.65l9.25-.35-5.25-6.25-3.35-7.15-5.9.4-2.95 7.75-.2.65q-1.7 5.6-2.45 11.5l-.3 3.85h-3.05m80.7 7q-.35 4.8-3.25 9.8-5 8.75-15 4.95l-2.3 4.65 3.8 2.6q9.9-3.2 18.25 2.75l.7 10.25h-.3L38.5-14l-16.25-.75-5.25-4.5-.25-3.75 5.5-6q2 1.35 4.55 1.4 8.95.1 10.25-9.35l.25-2.8H40m-77.65 38L-39.75.5l-.95 3.6 4.45 5.7 4.45-1.05 1-2.6 1.6.5.25.65q.2 1.25-.55 2.6-1 1.8-2.75 3.1-3.45.35-6.2-1.5-2.9-2.1-4.55-5.25.05-3.85 1.65-7.1l.45-.9h3.25" fill="#640" transform="translate(43 74.25)"/></g></defs></svg>