<svg viewBox="0 0 65.944 73.447" xmlns="http://www.w3.org/2000/svg" xmlns:xlink="http://www.w3.org/1999/xlink"><g transform="translate(-305.3 -208.6)"><use transform="translate(307.8 233.55)" width="60" height="47.45" xlink:href="#a"/><use transform="translate(319.55 233.8)" width="34" height="17.9" xlink:href="#b"/><use transform="translate(312.4 244.95)" width="51" height="33.25" xlink:href="#c"/><use transform="translate(305.3 209.3)" width="65.35" height="72.7" xlink:href="#d"/><use transform="matrix(-1 0 0 .9362 371.2 208.62)" width="34.35" height="78.4" xlink:href="#e"/><use transform="matrix(1 0 0 .9362 305.35 208.62)" width="34.35" height="78.4" xlink:href="#e"/></g><defs><g id="a"><path d="m12.2-14.4 7.4-.8q7.2-1 8.05-2.4 2.85 5.5 2.25 12.9-.55 7.4-4.3 13.95-4.05 6.95-10.5 10.55-6.4 3.55-13.85 3.9l-3.9.05Q18 14.85 12.2-14.4M4.45-3.35q-.95.75-2.3.75T-.2-3.35q-.95-.75-.95-1.85t.95-1.85q1-.75 2.35-.75t2.3.75q1 .75 1 1.85t-1 1.85M1.6 1.45q.25-.3.6-.3t.55.3L3 2.2l-.25.75-.55.3q-.35 0-.6-.3l-.2-.75.2-.75" fill="#0d0d0d" fill-rule="evenodd" transform="translate(30 23.7)"/><path d="M27.65-17.6q-.85 1.4-8.05 2.4l-7.4.8-12.2.35-19.65-1.15q-4.9-.7-8.3-2.3l.3-.85q.8-1.45 8-2.45L0-21.95l7.3.2-.05-.05 12.35 1q8.15 1.15 8.15 2.8l-.1.4m-32.5-2q-.85-.8-2.1-.8t-2.15.8q-.85.8-.85 1.95v.15l5.95.3.05-.45q0-1.15-.9-1.95" fill="#1e1e1e" fill-rule="evenodd" transform="translate(30 23.7)"/><path d="M12.2-14.4Q18 14.85-2.65 23.75q-6.8-.4-12.45-3.55-6.45-3.6-10.5-10.55-3.75-6.55-4.3-13.95-.6-7.45 1.95-13.2 3.4 1.6 8.3 2.3L0-14.05l12.2-.35M1.6 1.45l-.2.75.2.75q.25.3.6.3l.55-.3L3 2.2l-.25-.75q-.2-.3-.55-.3t-.6.3m2.85-4.8q1-.75 1-1.85t-1-1.85q-.95-.75-2.3-.75t-2.35.75q-.95.75-.95 1.85t.95 1.85q1 .75 2.35.75t2.3-.75m-27.15-1.2q0 1.9 1.25 3.25T-18.4.05t3.05-1.35 1.25-3.25-1.25-3.25-3.05-1.35-3.05 1.35-1.25 3.25" fill="#131313" fill-rule="evenodd" transform="translate(30 23.7)"/><path d="M-22.7-4.55q0-1.9 1.25-3.25t3.05-1.35 3.05 1.35 1.25 3.25-1.25 3.25T-18.4.05t-3.05-1.35-1.25-3.25M-4.85-19.6q.9.8.9 1.95l-.05.45-5.95-.3v-.15q0-1.15.85-1.95.9-.8 2.15-.8t2.1.8" fill="#161616" fill-rule="evenodd" transform="translate(30 23.7)"/><path d="m27.35 47.45 3.9-.05q7.45-.35 13.85-3.9 6.45-3.6 10.5-10.55Q59.35 26.4 59.9 19q.6-7.4-2.25-12.9m-30.3 41.35q-6.8-.4-12.45-3.55-6.45-3.6-10.5-10.55Q.65 26.8.1 19.4q-.6-7.45 1.95-13.2" fill="none" stroke="#0c0a08" stroke-linecap="round" stroke-linejoin="round" stroke-opacity=".6" stroke-width=".05"/><path d="M4.45-23.7q.85-.1 1.5.5l.55.65.15.4v.25l.05.2v.15h-.1l-.05.05-2.3.25H4.2l-1.8-.25h-.05v-.35l.15-.5.4-.65q.6-.65 1.55-.7" fill="#161616" fill-rule="evenodd" transform="translate(30 23.7)"/><path d="m16.2-20.55.95 1.15.2.7.1.45v.55l-.15.05-.1.05-3.9.4h-.15l-3-.4h-.1l-.05-.2.05-.15v-.25l.2-.85.7-1.2q1.05-1.05 2.6-1.1 1.55-.15 2.65.8" fill="#121212" fill-rule="evenodd" transform="translate(30 23.7)"/></g><g id="b" fill="#fff" fill-rule="evenodd"><path d="m353.2 237.8-.8.25-.85-.25q-.3-.25-.3-.6t.3-.6q.35-.25.85-.25l.8.25.35.6-.35.6M342.1 251.45l-.8.25-.85-.25q-.3-.25-.3-.6t.3-.6q.35-.25.85-.25t.8.25q.35.25.35.6l-.35.6M322.2 251.35q-.4.35-1.1.35-.65 0-1.15-.35-.4-.35-.4-.85 0-.45.4-.8.5-.35 1.15-.35.7 0 1.1.35.5.35.5.8l-.5.85M332.8 238.25l-.8.25-.85-.25q-.3-.25-.3-.6t.3-.6q.35-.25.85-.25l.8.25.35.6-.35.6M344 234.8l-.55.15-.6-.15-.2-.45.2-.4.6-.15q.35 0 .55.15l.2.4-.2.45" transform="translate(-319.55 -233.8)"/></g><g id="c" fill="#fefea2" fill-rule="evenodd"><path d="m-20.15 25.3 2.7-.85L-19 27.2l1.4 1.75-2.4-1-2.05 2.25.65-2.4-3.8-.8 2.7-.75-.15-3.65 2.5 2.7m-.65 7.75.85-1.65.45 1.8 1.45.3-1.4.8.15 1.15-.75-1.05-1.55.5.9-.9-1.5-1.35 1.4.4" fill-opacity=".4" transform="translate(25.2 -11.5)"/><path d="m-18.1 31.65-.1-.05-1-.85 2.75.7 1.65-3.25.8 3.55 2.85.6-2.7 1.6.35 2.25-1.6-2-2.9.9 1.7-1.8-1.85-1.65h.05" fill-opacity=".502" transform="translate(25.2 -11.5)"/><path d="m.8 37.7.1-3.85L3.65 37l2.85-.95-2.3 2.5 1.95 3.6-2.75-1.8-2.7 4.4L1 41l-4.65-1.4L.8 37.7m9.45 4.1-1.7-1.75 2.45.2 1-1.7.4 2.1 1.5.3-1.6.6-.05 2.1-.8-1.55-2.3 1.35 1.1-1.65" fill-opacity=".4" transform="translate(25.2 -11.5)"/><path d="m9.65 37.8-.05.1-1.6.9 2.05-3.1-3.25-3.55 4.75.55 2-3.3.85 4.1 2.9.55-3.15 1.1L14 39.2l-1.5-2.9-2.85 1.55v-.05" fill-opacity=".502" transform="translate(25.2 -11.5)"/><path d="m22.65 17.3 3.15 1.5-3.7 1.15-.2 2.7-1.25-2.9-3.7.25 2.55-1.6-2.65-3.9 2.95 1.7 3-3.3-.15 4.4m-7 6.2 2.15-.65-1.15 1.9 1.05 1.5-1.95-.5L15 26.9q0-.8.15-1.55l-1.8-.9h1.6L14.7 22l.95 1.5" fill-opacity=".4" transform="translate(25.2 -11.5)"/><path d="m19.2 24.6-.05-.15-.15-1.6 1.8 2.9 4.15-1.4-2.3 3.75 2 2.9-3.7-.9-1.6 2.25.3-3.1-3.25-1.55 2.95-.2-.2-2.95.05.05" fill-opacity=".502" transform="translate(25.2 -11.5)"/><path d="m-5.1 16.1 4.45-.95-2.95 4 1.95 3-3.55-1.9-3.6 3.2 1.35-3.65-5.85-1.9 4.45-.7.3-5.7 3.45 4.6m-2.2 12 1.6-2.4.4 2.9 2.25.65-2.35 1.05.1 1.8-1.15-1.7-2.4.5 1.5-1.3-2.1-2.3 2.15.8" fill-opacity=".4" transform="translate(25.2 -11.5)"/><path d="m-2.8 26.35-.15-.05-1.5-1.6 4.2 1.6 3.15-4.85.7 5.75 4.35 1.35-4.55 2.1.2 3.55-2.15-3.4-4.65 1 2.95-2.6-2.6-2.85h.05" fill-opacity=".502" transform="translate(25.2 -11.5)"/></g><g id="d" fill-rule="evenodd"><path d="m357 221.1-.8 1-4.45 1.7-1 .3-.1-.2-9.2.4.15 1.65-2.55-.1-5.45-.35-13.25-1.8q-2.65-.8-.3-2.85 1.4-1.25 6.3-1.4l8.2.35h.1q12.25 1.05 20.1-.85l1.95-.5q.5 1.05.3 2.65m-37.75 6.25q2.45 1.3 1.65 4.25-.9 3.1-3.8 7.85-2.9 4.8-4.4 11.1t-4.25 5.05q-2.8-1.25-3.1-6.1-.35-4.85 1.95-10.25 2.3-5.3 5.5-9.2l-.55 1.05q-2.25 4.15-3.3 8.7 4.1-.85 6.8-5.4 2.05-3.45 3.5-7.05" fill="#fff" fill-opacity=".702" transform="translate(-305.3 -209.3)"/><path d="m348.4 212-11.45-.65q.3-1.65 1.85-1.95 7.55-.45 14.8 1.3 6.7 2.5 5.15 4.4-1.6 1.85-2.55 1.55-7.65 2.35-15.9 1.8h-5.65l-8.15.25h-.15l-9.2-.35q-1.3-.35-1.5-1.55l6.25-.25 11.6.9q8.5.2 15.75-2.1t-.85-3.35" fill="#d5dcfd" transform="translate(-305.3 -209.3)"/><path d="M357.55 228.45q-.75-1.85 1-4.4 1.1-1.45 2.4-.55.75.45-.3 1.4-.1 4.95 3.35 6.1 1.4 3.75 3.75 7.95 2.3 4.15 2.8 9.8.45 5.6-1.1 10.7-1.6 5.1-4 9.45-2.1 3.7-5.1 6.4l-2.7 2q-3.65 2.5-7.9 3.5l-2.7.45-3.2.4-5.9.35-.1-.1 6.1-.65q2.9-.3 5.55-1.3t5.05-2.65q2.45-1.55 4.4-3.65t3.4-4.75q2.4-4.35 4-9.45 1.55-5.1 1.35-10.75-.2-5.7-2.25-11.2-1.1-3.1-2.75-5.8-2.5-.7-3.85-1.7l-.05-.05v-.05l-1.25-1.45" fill="#beccfc" fill-opacity=".561" transform="translate(-305.3 -209.3)"/><path d="m358.85 230 1.1 2.25.05.1 1.35 4.6.1.4v.05l.3 1.25 1 3.65.75 3.6.65 3.5.35 3.6q.1 1.9-.65 3.6-.85 1.85-2.75 2-.95.05-1.45-.5-1.35-1.45-2.35-3.15l-.8-1.9q-.55-1.75-.75-3.55l-.35-3.5.6 2.8-.45-2.85-.05-.35-.2-.35q-3.05-13.6-2.7-15.3.35-2.05 1.7-3.25 1.3.15 2.25.85l1 .9 1.25 1.45v.05l.05.05" fill="#fff" fill-opacity=".902" transform="translate(-305.3 -209.3)"/></g><g id="e" fill="none" stroke="#d5dcfd" stroke-linecap="round" stroke-linejoin="round"><path d="M34.35.25q-8.2-.55-13.6.1-5.85.6-9.8 2Q6.9 3.8 5.25 6.1q4.45 6.35 3.5 10.75L5 28.1q-1.65 2.7-2.75 5.8Q.2 39.4 0 45.1q-.2 5.65 1.4 10.75 1.55 5.1 3.95 9.45 2.95 5.25 7.8 8.4 4.8 3.3 10.6 3.95l9 .75" stroke-width=".05"/><path d="M10.25 8q4.25 2.25 11.25 2.75h11" transform="translate(1 .35)"/></g></defs></svg>