<svg viewBox="0 0 70.55 70.55" xmlns="http://www.w3.org/2000/svg" xmlns:xlink="http://www.w3.org/1999/xlink"><g transform="translate(-243.85 -191.05)"><use transform="translate(243.85 191.05)" width="70.55" height="70.55" xlink:href="#a"/><use transform="translate(246.15 194.35)" width="65.8" height="65.4" xlink:href="#b"/><use transform="matrix(.4081 0 0 .4473 253.3 200.28)" width="139.7" height="111.2" xlink:href="#c"/><use transform="translate(252.65 197.35)" width="58.8" height="54.45" xlink:href="#d"/></g><defs><g id="b"><path d="M52.8 11.9q-5-5-11.2-7.05l-4.5-1.1-1.65-.2-3.15-.15-4.15.3-3.15.6q-3.8.9-7.2 2.9-3.2 1.85-6.05 4.7l-.6.6q-6 6.3-7.45 14.55-.25 1.35-.35 2.8-.1 1.25-.05 2.55-.05 2.5.35 4.85Q5 46.2 11.75 52.9q8.5 8.5 20.55 8.55 12-.05 20.5-8.55t8.5-20.5-8.5-20.5m-6.05-8.7q4.65 2.3 8.65 6.3 9.5 9.5 9.55 22.95Q64.9 45.9 55.4 55.4t-22.9 9.5q-13.5 0-23-9.5Q2.55 48.45.7 39.35q-.7-3.3-.7-6.9 0-1.5.15-2.95l.4-3.1Q2.2 16.75 9.5 9.5l.2-.25q2.75-2.7 5.85-4.6Q19.6 2.1 24.3.95l4.55-.8L32.5 0l4.1.25 2.35.35q4.1.75 7.8 2.6" fill="#e4d399" fill-rule="evenodd" transform="translate(.35)"/><path d="M52.8 11.9q8.5 8.5 8.5 20.5t-8.5 20.5-20.5 8.55q-12.05-.05-20.55-8.55Q5 46.2 3.65 37.25q-.4-2.35-.35-4.85-.05-1.3.05-2.55.1-1.45.35-2.8 1.45-8.25 7.45-14.55l.6-.6q2.85-2.85 6.05-4.7 3.4-2 7.2-2.9l3.15-.6 4.15-.3 3.15.15 1.65.2 4.5 1.1q6.2 2.05 11.2 7.05" fill="#ece0ac" fill-rule="evenodd" transform="translate(.35)"/><path d="M46.75 3.2q4.65 2.3 8.65 6.3 9.5 9.5 9.55 22.95Q64.9 45.9 55.4 55.4t-22.9 9.5q-13.5 0-23-9.5Q2.55 48.45.7 39.35M.15 29.5l.4-3.1" fill="none" stroke="#262600" stroke-linecap="round" stroke-linejoin="round" stroke-opacity=".302" transform="translate(.35)"/><path d="M42.6 59.5q-4.05 1-9.8 1t-9.8-1-4.05-2.4T23 54.7t9.8-1 9.8 1 4.05 2.4-4.05 2.4" fill="#e4d399" fill-rule="evenodd" transform="translate(.35)"/></g><g id="c"><path d="m129.55 43.5-5.75-.5-14.3-13.25-8.85-4.2 3.35.6v.3l7 .2 16.75 13.1 1.8 3.75M102.3 71.75l-11.6.3-2.05-5.1v-.05h-.05l-34.1 8.05h-.05l.75 4.6-17.65 4.2-.9-5.25-26.15-9.95-4.1-11 3.7-11.75-1.6-2.45 9-14 2.75 2.75L43.6 20.95l-2.2-6.75 22.65-9.25 7 19.9 5.4-1.35 39.2 32.3 4.15 9.25-1 4.65-1.7-2.65-14.95-.6.15 5.3m-16.55 7.4 13.75.3-10.05 12.1L61.8 90.5l.3 11.85-20.15-1-16.1 2.6L13 97.3l-1.5-6.15-6.6-3.85-1.6-8.95 15.3 4.35 2.8 9.9 39.45-9.2-.1-3.55 23.45-3.8.05.15 1.5 2.95" fill="#ae896a" fill-opacity=".698" fill-rule="evenodd" transform="translate(.5 .5)"/><path d="m123.8 43 5.75.5 9.15 19.3-9.8 25.9-8.25-1.55-.25-.05-.4-1.05 7.1-1.3 6.85-23.05L123.8 43M104 26.15l-3.35-.6-2.2-16.1 3.75 1.15 1.8 15.55" fill="#785941" fill-opacity=".698" fill-rule="evenodd" transform="translate(.5 .5)"/><path d="m121.5 71.75 1.1-6.25-4.3-10.7L105 43.4l7.3-1.45L123.8 43l10.15 18.7-6.85 23.05-7.1 1.3.4 1.05-.2-.05v5.5l-22.15 12.2L71.8 108l-2.9-2.85v-.45l-.35-5.5 26-.7 17.4-10 8.4-10.45.75-4.1.4-2.2M98.45 9.45l2.2 16.1L73.7 20.6 66.9.05l31.55 9.4M26.2 25.6l-5.9 3.2-3.4-3.65 9.3.45m1.5 53.6v.05l3.65 8.7-7.45 1.85-3.3-9.65-.15-.55 7.2-.4h.05m16.2 24.35-9 6.65-10.1-4.95 19.1-1.7" fill="#493627" fill-opacity=".698" fill-rule="evenodd" transform="translate(.5 .5)"/><path d="m100.65 25.55 8.85 4.2L123.8 43l-11.5-1.05-7.3 1.45 13.3 11.4 4.3 10.7-1.1 6.25-5.1-2.55-.05-.15-8.6-.1-2.35-.05.35 6.05-9.7.1 9.7-.1-.35-6.05 2.35.05.85 6.75-16.75 18.05h-27.7l.75 10.75-21-.95-19.1 1.7-13-6.45-1.75-6.65-7.1-4.65L0 72.9l.15-.05 20.45 7.3 3.3 9.65 7.45-1.85 7.35-1.85-11-6.85v-.05l-.55-1.2L7.8 69.75l-4-10.6L7.55 47.4l-2.2-5.25L16.75 25l.15.15 3.4 3.65 5.9-3.2 13.1-7-1.6-6.45L66.7 0l.2.05 6.8 20.55 26.95 4.95M58.6 77.25l.25 3.8L38.7 86.1l20.15-5.05-.25-3.8 1.2.95 25.65-5.65.7-1.65 2.25 4.25 7.65-.1-10.2-4.65-.25-.45-.55.1q-12.5 2-26.5 6.3l.05.7v.2m43.7-5.5-.15-5.3 14.95.6 1.7 2.65 1-4.65-4.15-9.25-39.2-32.3-5.4 1.35-7-19.9L41.4 14.2l2.2 6.75L20.25 32.1l-2.75-2.75-9 14 1.6 2.45-3.7 11.75 4.1 11 26.15 9.95.9 5.25 17.65-4.2-.75-4.6h.05l34.1-8.05h.05v.05l2.05 5.1 11.6-.3m-16.55 7.4-1.5-2.95-.05-.15-23.45 3.8.1 3.55-39.45 9.2-2.8-9.9-15.3-4.35 1.6 8.95 6.6 3.85L13 97.3l12.85 6.65 16.1-2.6 20.15 1-.3-11.85 27.65 1.05 10.05-12.1-13.75-.3m-58.1.05h.05-.05" fill="#916c4f" fill-opacity=".698" fill-rule="evenodd" transform="translate(.5 .5)"/><path d="m121.5 71.75-.4 2.2-.75 4.1-8.4 10.45-17.4 10-26 .7.35 5.5-4-.2-.75-10.75h27.7L108.6 75.7l-.85-6.75 8.6.1.05.15 5.1 2.55m-93.8 7.5 11 6.85-7.35 1.85-3.65-8.7m58.15-8.85 10.2 4.65-7.65.1-2.25-4.25-.3-.5m35.25 3.55-3.5.15-1.2-4.9 1.2 4.9 3.5-.15" fill="#71553e" fill-opacity=".698" fill-rule="evenodd" transform="translate(.5 .5)"/><path d="M7.8 69.75 27.15 78l.55 1.2h-.05l-7.2.4.15.55-20.45-7.3 7.65-3.1m50.8 7.5v-.2l-.05-.7q14-4.3 26.5-6.3l.55-.1.25.45.3.5-.7 1.65L59.8 78.2l-1.2-.95" fill="#c5aa94" fill-opacity=".698" fill-rule="evenodd" transform="translate(.5 .5)"/><path d="m129.55 43.5-1.8-3.75L111 26.65l-7-.2v-.3M68.9 104.7v.45l2.9 2.85 26.25-3.25 22.15-12.2v-5.5l.2.05M66.9.05 66.7 0l-29 12.15 1.6 6.45-13.1 7m-9.3-.45-.15-.15-11.4 17.15 2.2 5.25L3.8 59.15l4 10.6m90.65-60.3 3.75 1.15 1.8 15.55m16.65 61 8.25 1.55 9.8-25.9-9.15-19.3m-64.65 61 4 .2m-52-79.55 9.3.45m-1.4 79.65-13-6.45-1.75-6.65-7.1-4.65L0 72.9l.15-.05 7.65-3.1m57.1 34.75-21-.95-9 6.65-10.1-4.95M66.9.05l31.55 9.4" fill="none" stroke="#000" stroke-linecap="round" stroke-linejoin="round" stroke-opacity=".208" transform="translate(.5 .5)"/><path d="M7.8 69.75 27.15 78l.55 1.2v.05m11 6.85 20.15-5.05-.25-3.8m0-.2-.05-.7q14-4.3 26.5-6.3l.55-.1.25.45m10.2 4.65 9.7-.1-.35-6.05 2.35.05 8.6.1.05.15 1.2 4.9 3.5-.15M86.15 70.9l-.3-.5m.3.5 2.25 4.25 7.65-.1M23.9 89.8l7.45-1.85-3.65-8.7m3.65 8.7 7.35-1.85" fill="none" stroke="#674d36" stroke-linecap="round" stroke-linejoin="round" stroke-opacity=".698" transform="translate(.5 .5)"/><path d="m120.9 87.6.25.05" fill="none" stroke="#ae896a" stroke-linecap="round" stroke-linejoin="round" stroke-opacity=".698" stroke-width=".05"/><path d="M101.6 53q-4.35 4.4-10.55 4.4T80.45 53t-4.4-10.6 4.4-10.6q4.4-4.35 10.6-4.35t10.55 4.35q4.45 4.4 4.45 10.6T101.6 53" fill="url(#e)" fill-rule="evenodd" transform="translate(.5 .5)"/><path d="M18.5 67.6q-1.8 3.5-5.05 4.05-3.3.6-6.1-2.05-2.85-2.65-3.6-7-.8-4.3.95-7.8 1.8-3.45 5.1-4.05 3.25-.55 6.05 2.05 2.9 2.7 3.7 7 .75 4.35-1.05 7.8" fill="url(#f)" fill-rule="evenodd" transform="translate(.5 .5)"/><path d="m77.45 52.1 10.35 6.35q-6 1.2-12.05 2.85 1.75-3.55 1.75-7.7l-.05-1.5" fill="#493627" fill-opacity=".698" fill-rule="evenodd" transform="translate(.5 .5)"/><path d="M48.5 70.8q-3.45-1.4-6.35-4-6.05-5.45-6.05-13.2 0-7.7 6.05-13.2 6.1-5.5 14.65-5.5t14.6 5.5q5.5 4.95 6.05 11.7l.05 1.5q0 4.15-1.75 7.7-13.45 3.65-27.25 9.5M22.95 44.9q4.45 0 7.55 2.8 3.15 2.85 3.15 6.85T30.5 61.4q-3.1 2.8-7.55 2.85-4.45-.05-7.6-2.85-3.1-2.85-3.1-6.85t3.1-6.85q3.15-2.8 7.6-2.8" fill="#f7f3f0" fill-opacity=".698" fill-rule="evenodd" transform="translate(.5 .5)"/><path d="m85.45 53.75 9.05-3.4M81.95 51.5l6.5-7.45m-11 8.05 10.35 6.35" fill="none" stroke="#000" stroke-linecap="round" stroke-linejoin="round" stroke-opacity=".208" transform="translate(.5 .5)"/><path d="M49 71.3q-3.45-1.4-6.35-4-6.05-5.45-6.05-13.2 0-7.7 6.05-13.2 6.1-5.5 14.65-5.5t14.6 5.5q5.5 4.95 6.05 11.7m-54.5-7.2q4.45 0 7.55 2.8 3.15 2.85 3.15 6.85T31 61.9q-3.1 2.8-7.55 2.85-4.45-.05-7.6-2.85-3.1-2.85-3.1-6.85t3.1-6.85q3.15-2.8 7.6-2.8m52.8 16.4Q78 58.25 78 54.1l-.05-1.5" fill="none" stroke="#000" stroke-linecap="round" stroke-linejoin="round" stroke-opacity=".208" stroke-width="2"/><path d="m88.3 58.95 1.1-.2m-1.1.2q-6 1.2-12.05 2.85Q62.8 65.45 49 71.3q-5.45 2.25-10.9 4.9M89.4 58.75l3.9 3.9 7.9-2.75 3.55 2.75" fill="none" stroke="#000" stroke-linecap="round" stroke-linejoin="round" stroke-opacity=".208" stroke-width="1.5"/><path d="M116.25 61.45q-6.85-3.5-8.2 4.3v.3l-2-1.15q3.75-5.2.7-10.75l1.45-.25q2 6.55 7.75 3.9l.6 3.8-.3-.15" fill="#916c4f" fill-opacity=".698" fill-rule="evenodd" transform="translate(.5 .5)"/><path d="m116.25 61.45-.1.75q-5.45-2.75-7.25 3.75l-.85-.2q1.35-7.8 8.2-4.3" fill="#473627" fill-opacity=".698" fill-rule="evenodd" transform="translate(.5 .5)"/></g><g id="d" fill-rule="evenodd"><path d="M299.6 222.4q2.7-3.4 4.7-4.1 1.8-.7 3.9.7 4.2 2.8 2.95 9-1.2 5.75-6.45 11.75-5.55 6.25-12.7 9.5-8.05 3.65-15.5 2.1l-4.2-.85q-1.85-.5-2.55-1.65-.6-.95-.5-2 .1-1 .75-1.35 1.15-.7 5.9-2.25 4.95-1.6 8.15-3.35 4.9-2.75 8.6-7.15l2.95-4.4q2.45-3.9 4-5.95" fill="#87a848" fill-opacity=".302" transform="translate(-252.65 -197.35)"/><path d="M275.15 219.2q-5.15 4.05-11.1 4.4-5.95.3-9.15-3.25-3.2-3.6-1.85-9.05 1.4-5.45 6.6-9.55 5.15-4.05 11.1-4.35 5.95-.35 9.2 3.25 3.2 3.6 1.75 9.05-1.35 5.4-6.55 9.5" fill="#f8f3ed" fill-opacity=".2" transform="translate(-252.65 -197.35)"/><path d="M253.7 209.9q1.25-4.6 5.6-8.05t9.4-3.65q5.05-.35 7.75 2.7t1.55 7.65q-1.2 4.65-5.55 8.1-4.4 3.35-9.4 3.7-5.05.3-7.7-2.75-2.75-3.05-1.65-7.7" fill="#f8f3ed" fill-opacity=".2" transform="translate(-252.65 -197.35)"/><path d="M254.75 209.6q1.05-4 4.8-6.95 3.8-3 8.15-3.25t6.7 2.35q2.4 2.65 1.35 6.65t-4.85 6.95q-3.75 3-8.1 3.25-4.35.2-6.65-2.4-2.4-2.65-1.4-6.6" fill="#f8f3ed" fill-opacity=".6" transform="translate(-252.65 -197.35)"/><path d="M261.5 204.15q2.15-1.7 4.6-1.8 2.5-.15 3.8 1.35 1.35 1.5.75 3.75t-2.75 3.95q-2.1 1.7-4.6 1.85-2.45.1-3.8-1.35-1.3-1.5-.75-3.75.55-2.3 2.75-4" fill="#fff" fill-opacity=".8" transform="translate(-252.65 -197.35)"/></g><radialGradient id="e" cx="0" cy="0" r="819.2" gradientTransform="translate(91.05 42.4) scale(.0194)" gradientUnits="userSpaceOnUse"><stop stop-color="#dc7e4e" stop-opacity=".698" offset="0"/><stop stop-color="#dc8051" stop-opacity="0" offset="1"/></radialGradient><radialGradient id="f" cx="0" cy="0" r="819.2" gradientTransform="matrix(.0102 -.0018 .0024 .0135 11.65 61.2)" gradientUnits="userSpaceOnUse"><stop stop-color="#dc7e4e" stop-opacity=".698" offset="0"/><stop stop-color="#dc8051" stop-opacity="0" offset="1"/></radialGradient><path d="M314.4 226.35q0 14.6-10.3 24.95-10.35 10.3-24.95 10.3-14.65 0-25-10.3-10.3-10.35-10.3-24.95 0-14.65 10.3-24.95 10.35-10.35 25-10.35 14.6 0 24.95 10.35 10.3 10.3 10.3 24.95m-3.75.3q0-13.1-9.2-22.35-9.25-9.25-22.35-9.2-13.1-.05-22.35 9.2-9.2 9.25-9.2 22.35t9.2 22.35q9.25 9.2 22.35 9.25 13.1-.05 22.35-9.25 9.2-9.25 9.2-22.35" fill="#fff" fill-opacity=".4" fill-rule="evenodd" transform="translate(-243.85 -191.05)" id="a"/></defs></svg>