<svg viewBox="0 0 11.852 11.413" xmlns="http://www.w3.org/2000/svg" xmlns:xlink="http://www.w3.org/1999/xlink"><use transform="translate(-.014 -.432)" width="11.9" height="12.05" xlink:href="#a"/><defs><path d="M1.4-2.4q.5-.2.65.3.15.45-.2 1.3L.75.95l-1.3 1.9q-.6.85-.75.4V2.5l-.3.25q-.25 0-.4-1.3L-2.05-1l.4-2q.3-.75.4-.15.05.55.9 1.05l1.2.05.55-.35" fill="#f4ffdb" fill-rule="evenodd" transform="translate(2.1 3.4)" id="i"/><path d="M4.7-2.3q-.1.25.15.7L5.3-.35l-.1-.2q0 .25-.75.55l-5.5 2.35Q-2.5.55-5.2.2l-.15-.55.25-.1L.1-1.7l3.6-.5 1-.1" fill="#bbdeb5" fill-rule="evenodd" transform="translate(5.35 2.3)" id="l"/><path d="M.15 2.5q2.7.35 4.15 2.15 4.65-2.1 5.5-2.35.75-.3.75-.55l.1.2Q10.5 1.2 10.2.7l-.15-.7-1 .1-3.6.5-5.2 1.25-.25.1" fill="none" stroke="#c26a0b" stroke-linecap="round" stroke-linejoin="round" stroke-opacity=".502" stroke-width=".05" id="k"/><path d="m2.7-2.9.9.65 1.85 1.1-.35-.15q.3.2-.2.65l-3 3.55q-3.45-1.4-6.65-1.15l-.75-.5.15-.15Q-3.3-.35-1.3-1.25q1.9-.95 3.1-1.3l.9-.35" fill="#bbdeb5" fill-rule="evenodd" transform="translate(5.5 2.9)" id="o"/><path d="M.6 4.65Q3.8 4.4 7.25 5.8q2.45-3.1 3-3.55.5-.45.2-.65l.35.15L8.95.65 8.05 0l-.9.35q-1.2.35-3.1 1.3Q2.05 2.55 0 4" fill="none" stroke="#c26a0b" stroke-linecap="round" stroke-linejoin="round" stroke-opacity=".502" stroke-width=".05" id="n"/><path d="M3.9 0q-.05 1.3-1.15 2.3l-.1.05q-1.15.9-2.7.9l-1.1-.15q-.9-.2-1.6-.8-1.1-1-1.1-2.3.05-1.35 1.2-2.3 1.15-1 2.75-.95h.4v.05l.05-.05q1.3.1 2.25.95 1.1.95 1.1 2.3" fill="#f4ffdb" fill-rule="evenodd" transform="translate(3.85 3.25)" id="s"/><path d="M3.9-.05q-.05 1.3-1.15 2.3l-.1.05Q.25 1.3.5-3.25l.05-.05q1.3.1 2.25.95 1.1.95 1.1 2.3" fill="#fff" fill-opacity=".451" fill-rule="evenodd" transform="translate(-.5 3.3)" id="r"/><path d="M1.25-4.2Q2-2.9 4.1-.85L5.1.2q1.05 1.35.85 2.25-.6 2.2-2.65 2.2l-7.25-.55q-2.85-.2-1.6-2.6l2.45-4.55q.8-1.25 1.6-1.45l2.75.3" fill="#f4ffdb" fill-rule="evenodd" transform="translate(5.95 4.6)" id="x"/><path d="M2.25-1.8Q4.3-.95 4.6-.3L3.3.85-2.1 2.3l-.5.25q-2.25.05-2.05-1.2L-4.5.9h-.05l.05-.1.1-.15.05.05.95-.95q.85-.6 1-1.8l2.9-.4 1.75.65" fill="#bbdeb5" fill-rule="evenodd" transform="translate(4.65 2.5)" id="y"/><use transform="matrix(-.7 0 0 .7 11.91 .015)" width="17" height="17.2" xlink:href="#b" id="a"/><use width="4.2" height="6.8" xlink:href="#h" id="c"/><use width="4.2" height="6.8" xlink:href="#i" id="h"/><use width="10.65" height="4.65" xlink:href="#l" id="j"/><use width="10.95" height="5.8" xlink:href="#o" id="m"/><use width="7.75" height="6.5" xlink:href="#s" id="q"/><use width="11.95" height="9.25" xlink:href="#x" id="t"/><use width="9.25" height="5.05" xlink:href="#y" id="v"/><g id="b" transform="translate(9.8 13.55)"><use transform="translate(3 -10)" width="4.2" height="6.8" xlink:href="#c"/><use transform="matrix(.558 -.0457 0 .558 -6.12 -.79)" width="10.65" height="4.65" xlink:href="#d"/><use transform="matrix(.558 -.0457 0 .558 -2.149 .437)" width="10.95" height="5.8" xlink:href="#e"/><use transform="translate(-2.85 -6.6)" width="7.75" height="6.5" xlink:href="#f"/><use transform="rotate(4.796 157.339 -113.835) scale(.9997)" width="13.5" height="9.95" xlink:href="#g"/></g><g id="d"><use width="10.65" height="4.65" xlink:href="#j"/><use width="10.65" height="4.65" xlink:href="#k"/></g><g id="e" transform="translate(8.6 .1)"><use transform="translate(-8.6 -.1)" width="10.95" height="5.8" xlink:href="#m"/><use transform="translate(-8.45 -.1)" width="10.8" height="5.8" xlink:href="#n"/></g><g id="f" transform="translate(3.85 3.35)"><use transform="translate(.5 -3.35)" width=".05" height=".05" xlink:href="#p"/><use transform="translate(-3.85 -3.35)" width="7.75" height="6.5" xlink:href="#q"/><use transform="translate(.5 -3.3)" width="3.4" height="5.6" xlink:href="#r"/></g><g id="p" fill-rule="evenodd"><path d="M.5-3.35h.05L.5-3.3v-.05" fill="#ffcf9a" transform="translate(-.5 3.35)"/><path d="M.5-3.3v-.05.05" fill="#ff6000" transform="translate(-.5 3.35)"/></g><g id="g" transform="translate(6.9 5.45)"><use transform="translate(-5.35 -5.45)" width="11.95" height="9.25" xlink:href="#t"/><use transform="translate(-4.35 -5.1)" width="10.25" height="7.5" xlink:href="#u"/><use transform="translate(-6.9 -.55)" width="9.25" height="5.05" xlink:href="#v"/><use transform="translate(-5.5 -3.35)" width="7.75" height="7.75" xlink:href="#w"/></g><g id="u" fill-rule="evenodd"><path d="M2 1.9Q.45-.3.05-3.9q-.05-1 1.8-1.2.75 1.3 2.85 3.35l1 1.05Q6.75 3.65 2 1.9" fill="#fff" fill-opacity=".451" transform="translate(4.35 5.1)"/><path d="M-3.8-.6-4-.85q-.45-.75-.3-1.7l.6-1.65q.45-.7 1.05-.65l.35.05Q-3.7-2.95-3.8-.6" fill="#fff" transform="translate(4.35 5.1)"/><path d="M-2.3-4.8q.35.15.6.7l.5 2.05Q-1.1-.7-1.7-.4q-.65.3-1.25.3-.45-.05-.85-.5.1-2.35 1.5-4.2" fill="#ffffed" transform="translate(4.35 5.1)"/><path d="M.4-4.8Q2.5-.9 1.1.45L-.35.15q-1-.35-.95-1.85 0-1.5.45-2.3.4-.8 1.25-.8" fill="#fff" transform="translate(4.35 5.1)"/><path d="M.4-4.8q.8-.05 1.6.75.75.7 1.1 1.8t-.25 1.9T1.4.5L1.1.45Q2.5-.9.4-4.8" fill="#ffffed" transform="translate(4.35 5.1)"/></g><g id="w" fill-rule="evenodd"><path d="M-4.45 4.4q3.1-1.65 6.7-2.6L.95 2.95l-5.4 1.45" fill="#2e1700" fill-opacity=".302" transform="translate(5.5 3.35)"/><path d="M2.15-.2 1.9.05 1.55-.1l-.2-.2.1-.4.25-.15.35.05.2.35-.1.25M-3.35-2.7l-.25.25q-.25 0-.35-.15l-.2-.2.1-.4.25-.15.35.05.2.35-.1.25" fill="#2e1700" transform="translate(5.5 3.35)"/><path d="M-3.35.65-4 1.8l-.9.95q-.45.35-.55.2l.05-.7.7-1.15.85-.95.6-.2q.1.15-.1.7" fill="#ffffe0" fill-opacity=".6" transform="translate(5.5 3.35)"/></g></defs></svg>