<svg viewBox="0 0 42.4 39.058" xmlns="http://www.w3.org/2000/svg" xmlns:xlink="http://www.w3.org/1999/xlink"><use width="42.4" height="39.05" xlink:href="#a"/><defs><g id="a"><path d="M17.6 36.05q2.45-2.35 4.45 0-.55 6.35-2.25 4.4t-2.2-4.4M17.3 34.4q-.55 6.35-2.25 4.4t-2.2-4.4q2.45-2.35 4.45 0" fill="#83c188" fill-rule="evenodd" transform="translate(-2.15 -1.85)"/><path d="M6.4 17.6q-1.3 2.7-1.75 5.55-1.25 6.8-1.2 7.75l-1.05-.4q-.6-7 2.3-13.25l1.7.35" fill="#bbc18c" fill-rule="evenodd" transform="translate(-2.15 -1.85)"/><path d="m9.2 10.25 1.55.55q-2.8 3.3-4.35 6.8l-1.7-.35q1.65-3.65 4.5-7" fill="#fff" fill-rule="evenodd" transform="translate(-2.15 -1.85)"/><path d="m10.75 10.8.55-.6 6.4-6.95-.45 1.8-.4 2.6q-1 8.45 2.4 16.25v.05q-2.55 4.8-2.4 9.85Q9.6 32.75 5.4 31.55l-1.15-.35H4.2l-.3-.15-.45-.15q-.05-.95 1.2-7.75.45-2.85 1.75-5.55 1.55-3.5 4.35-6.8" fill="#83c188" fill-rule="evenodd" transform="translate(-2.15 -1.85)"/><path d="m17.7 3.25-6.4 6.95-.55.6-1.55-.55Q12.7 6 18 2.1l-.3 1.15" fill="#ffffed" fill-rule="evenodd" transform="translate(-2.15 -1.85)"/><path d="m15.55 1.4.3-1.15M1.3 29.05l.45.15.3.15m.05 0 1.15.35q4.2 1.2 11.45 2.25-.15-5.05 2.4-9.85v-.05q-3.4-7.8-2.4-16.25l.4-2.6.45-1.8M.25 28.65l1.05.4" fill="none" stroke="#768f5d" stroke-linecap="round" stroke-linejoin="round" stroke-opacity=".702" stroke-width=".5"/><path d="m20.25 10.3 2.2.85.25 3.1L26 13.1l2.75 2.1 1.5-2.8 3.6-.15-1.2-2.75h.05l2.8 2.3-3.05 2 .4 3.65-3.6-.8-2.3 2.8-1.95-3-3.6.35.7-3.6-2.8-2.25.95-.65" fill="#83c188" fill-rule="evenodd" transform="translate(-2.15 -1.85)"/><path d="M32.7 9.5h-.05l1.2 2.75-3.6.15-1.5 2.8L26 13.1l-3.3 1.15-.25-3.1-2.2-.85 2.1-1.35-.35-3.6 3.55.75 2.25-2.8 2 3 3.65-.35-.75 3.55" fill="#ffffed" fill-rule="evenodd" transform="translate(-2.15 -1.85)"/><path d="m30.55 7.65.75-3.55-3.65.35-2-3-2.25 2.8-3.55-.75.35 3.6-2.1 1.35-.95.65 2.8 2.25-.7 3.6 3.6-.35 1.95 3 2.3-2.8 3.6.8-.4-3.65 3.05-2z" fill="none" stroke="#768f5d" stroke-linecap="round" stroke-linejoin="round" stroke-opacity=".702" stroke-width=".5"/><path d="M12.8 27.85q.05-1.4.5-1.6.85-1 3.2-1.45l1.2.15q1.85.4 3.55 2L22 28q.5.7.65 2.65l.05 1.4v.1l-3.05 1.4h-2.8l-1.5-.65-2.55-1v-4.05l2.55 3.85v-.05h3.9-3.9v.05l-2.55-3.85m2.55 3.85v1.2-1.2" fill="#83c188" fill-rule="evenodd" transform="translate(-2.15 -1.85)"/><path d="m12.8 31.9 2.55 1 1.5.65h2.8l3.05-1.4-.05 1.15-.05.25-.05.3-.95 2.05q-.55.7-2.8 1.25L17.15 37q-2.5-.95-3.15-1.65-.7-.8-.95-1.55l-.25-1.35v-.55m2.55 2.15V32.9v1.15" fill="#b6c7a7" fill-rule="evenodd" transform="translate(-2.15 -1.85)"/><path d="M20.55 30.3v-.1l-.05-1.4q-.15-1.95-.65-2.65l-.75-1.05q-1.7-1.6-3.55-2l-1.2-.15q-2.35.45-3.2 1.45-.45.2-.5 1.6l2.55 3.85v-.05h3.9M10.65 26v4.05l2.55 1v-1.2m-2.55.2v.55l.25 1.35q.25.75.95 1.55.65.7 3.15 1.65l1.65.15q2.25-.55 2.8-1.25L20.4 32l.05-.3.05-.25.05-1.15-3.05 1.4h-2.8l-1.5-.65v1.15" fill="none" stroke="#768f5d" stroke-linecap="round" stroke-linejoin="round" stroke-opacity=".702" stroke-width=".5"/><path d="M14.55 36.8v-2.45q1.4.95 3.7 1.65v2.15l-1.6 1.05-2.1-2.4" fill="#d2d9b7" fill-rule="evenodd" transform="translate(-2.15 -1.85)"/><path d="M12.4 34.95V32.5q1.4.95 3.7 1.65v2.15l-1.6 1.05z" fill="none" stroke="#768f5d" stroke-linecap="round" stroke-linejoin="round" stroke-opacity=".702" stroke-width=".5"/><path d="m43.5 24-.1-.15 1.15-.7-1.05.85" fill-rule="evenodd" transform="translate(-2.15 -1.85)"/><path d="m43.4 23.85.1.15q-2.65 2.45-1.85 4.4l-5.2-.8-.3.2q-6.5 3.3-12.7 5.1l-.55-1.3Q30 30 36.15 26.95L33.4 24.5h4.95l5.05-.65" fill="#83c188" fill-rule="evenodd" transform="translate(-2.15 -1.85)"/><path d="M19.3 11.85q2.85.5 5.05 2.65 2.75 2.8 2.75 6.75l.05 4.25.05.4v.15q-.05 2-2.85 3.4l-2.55.9v-11.3l-2.5-7.2" fill="#656d4e" fill-rule="evenodd" transform="translate(-2.15 -1.85)"/><path d="m19.3 11.85 2.5 7.2v.65q-6.6 2.5-13.2-1.6h-.05q.65-2 2.3-3.6 2.8-2.8 6.7-2.8l1.75.15" fill="#afbd8f" fill-rule="evenodd" transform="translate(-2.15 -1.85)"/><path d="M8.55 18.2v-.1h.05l-.05.1" fill="#788761" fill-rule="evenodd" transform="translate(-2.15 -1.85)"/><path d="M21.8 19.7v10.65l-4.25.5q-3.8 0-6.7-1.4-2.9-1.45-2.9-3.4v-.15l.1-.4.1-5.65 6.3 8.4v-5.2l-6.3-3.2.4-1.65.05-.1q6.6 4.1 13.2 1.6" fill="#b6c7a7" fill-rule="evenodd" transform="translate(-2.15 -1.85)"/><path d="m19.65 28.5 2.55-.9q2.8-1.4 2.85-3.4v-.15l-.05-.4-.05-4.25q0-3.95-2.75-6.75Q20 10.5 17.15 10" fill="none" stroke="#768f5d" stroke-linecap="round" stroke-linejoin="round" stroke-opacity=".702" stroke-width=".5"/><path d="M8.85 25.5v-3.75l.1-1.45 5.9 2.85v5.2l-6-2.85" fill="#83c188" fill-rule="evenodd" transform="translate(-2.15 -1.85)"/><path d="m6.7 23.65 6 2.85v-5.2l-5.9-2.85" fill="none" stroke="#768f5d" stroke-linecap="round" stroke-linejoin="round" stroke-opacity=".702" stroke-width=".5"/><path d="m24.8 14.75.15-.15 1 1.15-1.15-1" fill="#dce8bc" fill-rule="evenodd" transform="translate(-2.15 -1.85)"/><path d="m12.8 13.75 3.55 1.75q-2.2 1.75-2.9 4.8L10.3 19q.8-3.45 2.5-5.25" fill="#fff" fill-rule="evenodd" transform="translate(-2.15 -1.85)"/><path d="M13.45 20.3q-.3 1.05-.35 2.3v10.05L9.9 31V20.9l.4-1.9 3.15 1.3" fill="#d2d9b7" fill-rule="evenodd" transform="translate(-2.15 -1.85)"/><path d="m24.95 14.6-.15.15q-1.75-1.25-3.4-1.25 3.35 1.85 4.15 4.1l-3.85 1.3q-1.05-2.85-4.4-4.05l-.95.65-3.55-1.75q.85-.85 1.9-1.35l.65-.2 2.8-.45q3.95 0 6.8 2.85" fill="#ffffed" fill-rule="evenodd" transform="translate(-2.15 -1.85)"/><path d="m22.65 12.9 1.15 1m-9.6-.25.95-.65q3.35 1.2 4.4 4.05l3.85-1.3q-.8-2.25-4.15-4.1 1.65 0 3.4 1.25M11.3 18.45q-.3 1.05-.35 2.3V30.8l-3.2-1.65m3.55-10.7q.7-3.05 2.9-4.8" fill="none" stroke="#768f5d" stroke-linecap="round" stroke-linejoin="round" stroke-opacity=".702" stroke-width=".5"/><path d="M16.2 18.3q0-.55.3-.85.35-.35.9-.35.5 0 .85.35l.3.85-.3.85-.85.3-.9-.3q-.3-.35-.3-.85" fill="#ffc" fill-rule="evenodd" transform="translate(-2.15 -1.85)"/><path d="M22.2 35.8q0-1.25.95-2.15.9-.95 2.15-.95t2.2.95q.9.9.9 2.15t-.9 2.2q-.95.9-2.2.9t-2.15-.9q-.95-.95-.95-2.2" fill="#83c188" fill-rule="evenodd" transform="translate(-2.15 -1.85)"/><path d="M20.05 33.95q0 1.25.95 2.2.9.9 2.15.9t2.2-.9q.9-.95.9-2.2t-.9-2.15q-.95-.95-2.2-.95T21 31.8q-.95.9-.95 2.15z" fill="none" stroke="#768f5d" stroke-linecap="round" stroke-linejoin="round" stroke-opacity=".702" stroke-width=".5"/><path d="m22.2 22.45 3.05-1.15v3.3l-3.05 2.75v-4.9" fill="#eaefd1" fill-rule="evenodd" transform="translate(-2.15 -1.85)"/><path d="m25.25 21.3-3.05 1.15V19q1.15-2.55 3.05-5.35v7.65M22.7 36.95l-3.1-1.45v-2.2l3.1 1.55v2.1" fill="#d2d9b7" fill-rule="evenodd" transform="translate(-2.15 -1.85)"/><path d="m27.8 29.3 3.05 1.5q-4.05 2-8.15 4.05l-3.1-1.55 2.7-1.35q.5.4.6 1.35l.1-.05 4.45-2.55h.05l.3-1.4" fill="#b6c087" fill-rule="evenodd" transform="translate(-2.15 -1.85)"/><path d="m25.25 27.25 2.2 3.45L23 33.25l2.25-6" fill="#83c188" fill-rule="evenodd" transform="translate(-2.15 -1.85)"/><path d="m22.2 27.35 3.05-2.75V13.65q1.8.7 2.95 1.9V25.6l.7-.2q1.3-.4 2.25.45-1.25.5-1.95 1.25-1 1-1.4 2.2l-.3 1.4h-.05l-2.2-3.45-2.25 6-.1.05q-.1-.95-.6-1.35-.4-.35-1.1-.25-.75.05-1.95.85.95-1.9 2.25-3l.7-.5v-1.7m8.65 3.45V33l-8.15 3.95v-2.1q4.1-2.05 8.15-4.05m-5.6-6.2v2.65-2.65" fill="#b6c7a7" fill-rule="evenodd" transform="translate(-2.15 -1.85)"/><path d="M20.05 20.6v4.9l3.05-2.75v-3.3m0-.2V11.8q-1.9 2.8-3.05 5.35v3.45m3.05-8.8q1.8.7 2.95 1.9v10.05l.7-.2q1.3-.4 2.25.45-1.25.5-1.95 1.25-1 1-1.4 2.2l3.05 1.5v2.2l-8.15 3.95-3.1-1.45v-2.2l2.7-1.35q-.4-.35-1.1-.25-.75.05-1.95.85.95-1.9 2.25-3l.7-.5v-1.7m5.25 3.35h.05l.3-1.4m-4.8 3.95-.1.05q-.1-.95-.6-1.35m5.15-1.25-4.45 2.55m2.25-6v-2.65" fill="none" stroke="#768f5d" stroke-linecap="round" stroke-linejoin="round" stroke-opacity=".702" stroke-width=".5"/></g></defs></svg>