<svg viewBox="0 0 15.907 24.03" xmlns="http://www.w3.org/2000/svg" xmlns:xlink="http://www.w3.org/1999/xlink"><use transform="translate(-2.486 -.188) scale(.3962)" width="50.5" height="61.1" xlink:href="#a"/><defs><g id="a"><use transform="translate(-.025) scale(2.5)" width="20.2" height="24.4" xlink:href="#b"/><use transform="translate(6.3 .5)" width="40.1" height="60.6" xlink:href="#c"/></g><g id="d" transform="translate(9.9 17.55)"><use transform="matrix(.4887 -.8695 .8695 .4887 -3.228 -.747)" width="2.5" height="2.75" xlink:href="#e"/><use transform="matrix(.0773 .3037 -.1469 .0428 3.54 -3.25)" width="10.1" height="20.6" xlink:href="#f"/><use transform="translate(.2 -2.55)" width="2.5" height="2.75" xlink:href="#e"/><use transform="translate(.498 -.463) scale(.3155)" width="5.05" height="4.3" xlink:href="#g"/><use transform="translate(-1.852 -.113) scale(.3155)" width="5.05" height="4.3" xlink:href="#g"/><use transform="matrix(.7048 .1345 -.1874 .9817 -.028 -8.234)" width="3.9" height="8.45" xlink:href="#h"/><use transform="translate(-.402 -.113) scale(.3155)" width="5.05" height="4.3" xlink:href="#g"/><use transform="matrix(.2884 -.1263 .1263 .2884 -9.903 -12.81)" width="37.35" height="37.75" xlink:href="#i"/></g><g id="j" fill-rule="evenodd"><path d="M.2 1.15v.05-.05" fill="#ffffea" transform="translate(1.25 1.4)"/><path d="m.65.4-.2.4L.3.55.25.45l.2-.2H.5L.65.4m-.5.9-.05.05-.45-.15L-.7.8V.75l.6.3.25.25M-1.2.4l.1-.55.2.5.05.65-.35-.6m.3-.85.35-.25.75 1.85v.05Q-.15.3-.9-.45M0-1.1l.35-.2L.7-.2.65.2.6 0 0-1.1" fill="#648461" transform="translate(1.25 1.4)"/><path d="m.35-1.3.15-.1.4.4-.2.8-.35-1.1M-1.1-.15V-.3l.2-.15Q-.15.3.2 1.2L-.9.35l-.2-.5m.55-.55L0-1.1.6 0 .45.25l-.2.2-.15.2.1.5L-.55-.7" fill="#ffffed" transform="translate(1.25 1.4)"/><path d="m.9-1 .3.35.05.05-.6 1L.5.25H.45L.6 0l.05.2.05-.4.2-.8M.45.8l-.25.35-.1-.5.15-.2.05.1.15.25m-.25.4-.05.1-.25-.25-.6-.3V.8l.35.4-.5-.2-.4-.1.05-.5.35.6L-.9.35l1.1.85" fill="#d3f1c6" transform="translate(1.25 1.4)"/></g><g id="k" fill-rule="evenodd"><path d="M1.55-12.05h-.1.1M1.5-10.9l.05.05H1.5v-.05" fill="#2e1700" transform="translate(5 20.6)"/><path d="m4.1-19.9.9.45.1.55-2.2 2.6-.95-.8.4-.95q.55-1.1 1.75-1.85M1.55-5.7v2.6l-.15.05-.4.15q-.7.25-1.4.9l1.35-.1h.45l.15.05V0H-1.1v-.35h.05l.85-.1 1.3.1Q.4-1-.25-1.25l-.4-.15-.4-.1h-.05v-1.95l.85-.1 1.3.1q-.7-.65-1.35-.9l-.4-.15 1.85-1 .4-.2" fill="#d3f1c6" transform="translate(5 20.6)"/><path d="m-1.45-14.95-.05-.4q1.7-1.4 3.4-.4l-.25 2.5H1.6l-.15.05-.35.1-.4.15q-.7.25-1.4.9l1.35-.1.8.1h.1L1.5-10.9l-1.8-.25-.95-.25-.1-2.25 1.2-.25 1.3.1q-.7-.65-1.35-.9l-1.25-.25m1.6-5.65.65.55q.85 2-.65 3.15l-.2-.15q-1.5-2.05.2-3.55m1.35 9.75L1.45-9.8h-.1l-.15.05-.35.1-.4.15q-.7.25-1.4.9L.4-8.7l.8.1h.15l.1.05.05 2-.35.1-.4.15-1.85.95L.7-5.5h.45l-1.85 1-.4.2v-2.55L-.15-7l1.3.1q-.7-.65-1.35-.9l-.95-.25-.05-2.15.95-.15q1.25-.55 1.75-.5m-6-8.4.9.15 2.6 2.45-.55.8Q-3.5-16.3-5-18.4l.5-.85" fill="#ffffed" transform="translate(5 20.6)"/><path d="m-1.45-14.95 1.25.25q.65.25 1.35.9l-1.3-.1-1.2.25-.05-.8-.05-.5m.2 3.55.95.25 1.8.25v.05q-.5-.05-1.75.5l-.95.15-.05-1.2m2.7-.65-.8-.1-1.35.1q.7-.65 1.4-.9l.4-.15.35-.1.15-.05h.05l-.1 1.2h-.1m0 2.25v1.25l-.1-.05H1.2l-.8-.1-1.35.1q.7-.65 1.4-.9l.4-.15.35-.1.15-.05h.1m.05 3.25.05.85-.4.2H.7l-1.8.15L.75-6.3l.4-.15.35-.1m.05 3.45v1.05L1.4-2.1H.95L-.4-2q.7-.65 1.4-.9l.4-.15.15-.05M-1.1-.35V-1.5h.05l.4.1.4.15Q.4-1 1.1-.35l-1.3-.1-.85.1h-.05m0-3.1v-.85l.4-.2.4.15q.65.25 1.35.9l-1.3-.1-.85.1m0-3.4-.05-1.2.95.25q.65.25 1.35.9L-.15-7l-.95.15" fill="#648461" transform="translate(5 20.6)"/></g><g id="l" fill-rule="evenodd"><path d="m-2.55-.25 1.75.5 2.85-.8.3 1.9-2.95.85-2.1-.65.15-1.8" fill="#d3f1c6" transform="translate(2.7 2.1)"/><path d="M-2.55-.25v-.4L-.3-2.1l2.2.9.15.65-2.85.8-1.75-.5" fill="#ffffed" transform="translate(2.7 2.1)"/></g><g id="m" fill-rule="evenodd"><path d="m-.6-1.6.1 1.05-1.3.25v-.75l.05-.05q.7-.2 1.15-.5M0 .85l.55.7-2.05-.35-.05-.05-.05-.2-.1-.3.5.05 1.1.15H0M1.95 3.4l-.1.35H1.8l-1.25.3-1.2-.8v-.5l2.6.65" fill="#648461" transform="translate(1.95 4.25)"/><path d="m-.3.2.3.65h-.1L-1.2.7l.9-.5m.85 1.35.25.2 1.05.85.1.05v.1L.7 2.4l-1.25-.55-.1.9v.5l-.05.7-.05.05h-.4L-1 1.9-1.4 4h-.55l.45-.7.1-.55v-.7l-.15-.9.05.05 2.05.35" fill="#ffffed" transform="translate(1.95 4.25)"/><path d="m-1.75-1.1.05-.25q.45-1.35.4-2.65l1.15-.25q-.5 1-.45 2.65-.45.3-1.15.5m1.25.55.1.7h.1V.2l-.9.5-.5-.05-.1-.6V-.3l1.3-.25m2.45 3.3v.65l-2.6-.65.1-.9L.7 2.4l1.25.35m-1.4 1.3-.6.15-.5-.4-.15.15.05-.7 1.2.8M-1.15 4h-.25l.4-2.1-.15 2.1" fill="#d3f1c6" transform="translate(1.95 4.25)"/></g><g id="n"><path d="m-6.6 6.95.05-.05v.05h-.05m-10-3.75.05-.05-.05.05" fill="#ffffea" fill-rule="evenodd" transform="translate(26.7 17.45)"/><path d="M2.7-4.85h-.1.1" fill="#2e1700" fill-rule="evenodd" transform="translate(26.7 17.45)"/><path d="m6 3.25-.05.1V3.3L6 3.25" fill="#f7cf7e" fill-rule="evenodd" transform="translate(26.7 17.45)"/><path d="M-5.55 16.25v.2l-2.55-.1v-.05l2.55-.05" fill="#554c38" fill-rule="evenodd" transform="translate(26.7 17.45)"/><path d="M7.75-15.25 7.7-13.9q0 .95-1.4 3.8-1.65 3.25-3.6 5.25h-.05Q3.55-5.95 4-8.7l.2-1 3.55-5.55M1.5-8.1Q.8-5.45-3.2-3.3l1.85-2.6.7-1.2 2.15-1M-10-5.4l1.7 1.05-.4.1q-.7 0-2.05-.7l.75-.45m-1.7 1.15q.6.55 1.8 1.15 1.7.85 3 1.15l-2-.15-3.65-2.05.55.1.3-.2m-7.6.6q1.5 1 3.05 1.7Q-17-2.1-20-3.45l.7-.2m2.75 6.8q.05-.3.45-.3l4.3-1.2 1 .35q-1.7 0-5.1 2.6l-1 .85-1.35 1.25-1.4-.95.4-.7.5-.5q-.15-.2.25-.2l1.9-1.15.05-.05m18.25.1q-2.8-2.4-6.5-4l.05-.15 2.05.45q1.6 0 4.7 1.9l.5.3Q4.65 3.1 5.55 4.2 5.15 5.25 5 6.9q-1.45-2-3.3-3.65M6.55.9l-.1.1Q6.6 2.25 6 3.25l-.05.05Q4.8 1.05 3.2-1.1q.1-.15.25-.1L6.5.85l.05.05m.95 11.85-3.15 2.2-2.2-1.25.9-.6 1.8.1 2.65-.45m-26.15.65L-21 11.5l-.3-1.05 1.6.2 1.7.95 2.6.85.1.15q-.45.15-.85.45l-2.5.35" fill="#648461" fill-rule="evenodd" transform="translate(26.7 17.45)"/><path d="m7.75-15.25 1.4-2.2.05 3.05-2.35 9.65-4.7 2.7.4.4L2 1.45q-3.1-1.9-4.7-1.9L-4.75-.9l-.05.15q3.7 1.6 6.5 4l-.2.95-.7-.8q-4.95-1.3-6.7 3.15l-.65.35.65-.35Q-4.15 2.1.8 3.4l.7.8q1.7 2.05 2.4 4.45Q2.4 6.75.1 6.2L-1.2 6q-2.75.05-4.5 2.15l-.55.75-.05.65Q-7.15 7.6-9.2 6.7q-2.9-1.2-5.5.55l-1.65 1.3-.35.3.2-.7-.1-.4-1.65-1.05 1.35-1.25 1-.85Q-12.5 2-10.8 2l-1-.35-4.3 1.2q-.4 0-.45.3L-15.5.9l-.7.25-.55-2.05-7.3-.25-.1.15-1.4 1.6Q-26.6-.75-26.7-1.9l6.7-1.55q3 1.35 3.75 1.5-1.55-.7-3.05-1.7l4.5-1.05 2.25.55L-8.9-2.1l2 .15q-1.3-.3-3-1.15-1.2-.6-1.8-1.15l.95-.7q1.35.7 2.05.7l.4-.1L-10-5.4l.3-.15 1.45 1.25 2.7.1-4.6-6.65 6.8 3.7 1.15.2.75.25.8-.4-.7 1.2-1.85 2.6q4-2.15 4.7-4.8l2.35-1.1.35-.5-.2 1q-.45 2.75-1.35 3.85H2.6h.1q1.95-2 3.6-5.25 1.4-2.85 1.4-3.8l.05-1.35M-6.6 6.95l-.3-.2Q-8.7 2.3-13.6 3.6q-2.05 2.1-2.9 4.55.85-2.45 2.9-4.55 4.9-1.3 6.7 3.15l.3.2h.05V6.9l-.05.05m8.3 9L-.1 18.9l-2.2-.3q.3-1.25-.05-2.5l4.05-.15m-10.65.4-.1 1.5-1.5.15-.6 1.6h-.25l-2.5-3.45 4.95.2M-21 11.5l-1.4-1.35 1.1.3.3 1.05" fill="#ffffed" fill-rule="evenodd" transform="translate(26.7 17.45)"/><path d="m-10.15-10.85 4.6 6.65-2.7-.1-1.45-1.25 1.35-.7-2.25-4.85.45.25M-25.55.6l1.4-1.6.1-.15 7.3.25.55 2.05.7-.25-1.05 2.25-.05.05-1.9 1.15q-.4 0-.25.2l-.5.5-.4.7-.2-.1-1-.7q-3.3-2.4-4.7-4.35M1.5 4.2l.2-.95Q3.55 4.9 5 6.9q-.15.85-.15 1.95l-.15 1.2 5.95-.15-3.15 2.85-2.65.45-1.8-.1-.9.6 2.2 1.25-1.55.95-1.1.05-4.05.15-2.75.1-.45.05-2.55.05v.05h-.85l-4.95-.2h-.6l-4.15-2.75 2.5-.35q.4-.3.85-.45l2.1 1.85 1.8 1.05h.45l.6-.05.65-.3q1.9-.5 7.9.1l.35.05q.85-.3 1.6-.8l1.1-.8.4-.35.45-.45.55-.65Q3.7 11.05 4.1 9.5l-.2-.85q-.7-2.4-2.4-4.45M2 1.45l.55-3.1-.4-.4 4.7-2.7L9.2-14.4l.25 13.15L6.55.9 6.5.85 3.45-1.2q-.15-.05-.25.1 1.6 2.15 2.75 4.4v.05l-.4.85q-.9-1.1-3.05-2.45l-.5-.3m-21.7 9.2 3-.3 1.3 2.1-2.6-.85-1.7-.95" fill="#d3f1c6" fill-rule="evenodd" transform="translate(26.7 17.45)"/><path d="m-.1 18.9-.6.95q-1.25.7-2.25.3l.65-1.55 2.2.3m-8.95-1.05.4 2.05-1.7-.1-.8-.2.6-1.6 1.5-.15m-7.65-7.5-.25-.65.25-.85.35-.3 1.65-1.3q2.6-1.75 5.5-.55 2.05.9 2.9 2.85l.05-.65.55-.75Q-3.95 6.05-1.2 6l1.3.2q2.3.55 3.8 2.45l.2.85q-.4 1.55-1.45 2.75l-.55.65-.45.45-.4.35-1.1.8q-.75.5-1.6.8l-.35-.05q-6-.6-7.9-.1l-.65.3-.6.05h-.45l-1.8-1.05-2.1-1.85-.1-.15-1.3-2.1" fill="#fffff1" fill-rule="evenodd" transform="translate(26.7 17.45)"/><path d="M10.2 25.6q.85-2.45 2.9-4.55 4.9-1.3 6.7 3.15l.3.2h.05v-.05l.65-.35q1.75-4.45 6.7-3.15l.7.8M10 26.3l.2-.7m20.4.5q-.7-2.4-2.4-4.45M10 27.8l-.25-.65.25-.85m20.6-.2.2.85q-.4 1.55-1.45 2.75l-.55.65-.45.45-.4.35-1.1.8q-.75.5-1.6.8l-.35-.05q-6-.6-7.9-.1l-.65.3-.6.05h-.45l-1.8-1.05-2.1-1.85-.1-.15-1.3-2.1m10.4-.8.05-.65" fill="none" stroke="#2e1700" stroke-linecap="round" stroke-linejoin="round" stroke-opacity=".302" stroke-width=".05"/><path d="m.3 4.55 1-.05.75.65.55 1.05q.3.5.15 1.05-.15.5-.6.8l-1 .05-.75-.65-.6-1.05q-.25-.55-.1-1.05l.6-.8M-8.05 5.85q.45.3.6.85l.25 1.15q.1.55-.15 1.05-.3.45-.8.6l-.95-.2q-.5-.35-.6-.9l-.25-1.15q-.15-.55.15-1l.75-.6q.5-.15 1 .2" fill="#444327" fill-rule="evenodd" transform="translate(26.7 17.45)"/></g><use transform="matrix(1.3 0 0 1.3 -.02 -.015)" width="15.55" height="18.8" xlink:href="#d" id="b"/><use width="2.5" height="2.75" xlink:href="#j" id="e"/><use width="10.1" height="20.6" xlink:href="#k" id="f"/><use width="5.05" height="4.3" xlink:href="#l" id="g"/><use width="3.9" height="8.45" xlink:href="#m" id="h"/><use width="37.35" height="37.75" xlink:href="#n" id="i"/><path d="m27.25.1 7 15.15-1.9 3.1v.25q.65 1 .5 2.25v1q0 1.15.5 2.75l.65 2 .35 1.15q3.15-.4 5.65-2.5l-1.9 3.85-2 3.4L35 34l-1 .5-.65 4.6q-.85 1.15-2 1.25V38.6q-.25-1.35-1.1-2.35l-2.5 1.25-.25.25q-.15 0-.15.1l.15.15h-.15l-.1.75-.4 3.35-.25 2.25.25.15-.1.1.35 2.25.9 2.4.35.85.25.5 3.65-2.5 1.35 1.4.9 1.1v.15l.5-.25q.1-.15.35-.15 0-.1.15-.1l.25-.15q1 1.5 1 3.4H35.5l-.65.1q-.25 0-.5.15l-.5.1-.6.15-.5.25-1 1.5.5.1.1.75.4 1.9-3 .85.1.25-3.1.9-2.15-.65v-.1l-2.6.75-2.15-.65.15-2.25 1-.6-1.75-1.25-.5-.25-.65-5.75v-.65l1.9-.5 1.35-.25h.25l1.4 2.4.1-.65.15-2 .1-1v-1.75l.15-1.85.1-.25h-.35q-2-.9-3.75-2.15l-.65.25-5-.85-3-.9L9.1 39l1.15-.25 1.5-.4q1.5-.6 2.75-1.6l-.5-.4-.15-1-.1-.6-.25-.4-2-.35-1.65-.25H9.6l-1.25-.25q-4.1-1-6.25-2.15-1.5-.85-2-1.85l10-7.5 2.9-.65.1-.25.65-1 .5-.85.25-.25 1-1.15-4.15-3.6 8.4.75q.6-.25 1.25-.4h.75l4-4.5 1.5-10m9 46.15Q35.6 48 36 50l.5.5.5-2.9-.15-1-.6-.35m.6 5.35q.9 1.25 1.65.15l.1-.75q-1.1-1.5-1.75.35v.25m.4 2.75 1.85 1.75.25-.1-.1-1q-.65-1.15-1.25-1.4l-.65-.25-.1 1M24.6 39.1l-.35.15.1.35.25-.5m-1.35 17.4 1.35.5.15.75v-.15l.25-.1-1-1.5-.4.5-.1.1-.25-.1" fill="none" stroke="#000" stroke-linecap="round" stroke-linejoin="round" stroke-opacity=".6" stroke-width=".25" id="c"/></defs></svg>