<svg viewBox="0 0 19.957 21.302" xmlns="http://www.w3.org/2000/svg" xmlns:xlink="http://www.w3.org/1999/xlink"><g transform="translate(-.775 -.825)"><use transform="translate(.9 .95) scale(1.2267)" width="16.1" height="17.15" xlink:href="#a"/><use transform="translate(.8 .85)" width="19.9" height="21.25" xlink:href="#b"/></g><defs><path d="M19.55 3.8q-.7.3-1.45 1.1L15.45.2 15.4.1l.05.15q.15 2.05-.4 3.35l-.4-.05h-.5q-.1-.6-.6-1.1-.4-.3-.7-.45l-.9-.15q-.95-.1-1.6.6-.6.55-.6 1.4l-.85.25q-.25.05-.5.25L6.6 4.1l-.5.05q-.85-1.1-1.15-3.05V.75q-1 2.2-1.6 5.2.05.6.45 1.1-1.75-.3-3.7.05.3 1.4 1.6 2.7v.05l1.05-.6-.4 1.4q.6 1.05 1.75 1.3h1.05l-.1.3q.15 1.05 1.15 1.9-.95.95-1.85 2.55.15.6.6.75.65.35 1.95-.35l.05.3.25.75.1.05q-.45.15-.75.4-.5.6-.05 1.4 1.15 1.2 3.1 1.15 1.1-.25 1.55-1l1.45-.1 1.6-.55q1.2.8 2.3.3 1-.75.45-2.1-.3-.35-.55-.45l.1-.7-.35-1.1q1.15.3 1.75 0l.55-.75-1.1-1.15.55-.85v-.15q0-1.15-.5-1.75l1.35-.5q.75-.45 1.05-1.55.1-1.1-1.15-2.2l.9-.25z" fill="none" stroke="#000" stroke-linecap="round" stroke-linejoin="round" stroke-opacity=".498" stroke-width=".25" id="b"/><use width="16.1" height="17.15" xlink:href="#c" id="a"/><g id="c"><path d="M10.05 9.2 10 9l.05-.05q.4-1.2 1.4-1.2.9-.05 1.45.7v.05l.15.35-3 .35m1.45-.35q-.15-.6-.6-.25.45-.35.6.25m.85-.3q-.3-.15-.3.25 0-.4.3-.25m.8 3.95-.8-1.1-.55-.35-.55-.1.85-.6q1.35.5 2.45 2.15-.45.25-1.4 0m-3.7-1.7Q9.3 12 8.8 12.9l-.5.5-.1.15q-.7.75-1.55 1.05l-.75.2q.35.75 1.2 1.15l1.95.4q-.3.6-1.3.8-1.55.05-2.5-.95-.4-.65 0-1.15l.65-.3-.1-.05-.2-.6v-.25q-1.05.55-1.6.3 1.05-2.1 2.35-3l.2-.1-.1-.05.3-.5 2.7.3m2.1 5 1-.55.55-.65.2-.65.45.35q.5 1.15-.35 1.75-.9.4-1.85-.25m-3.8-3.9L5.6 13.85l2.15-1.95M5.9 14.75v.05-.05" fill="#d3f1c6" fill-rule="evenodd"/><path d="m11.25 10.95.55.1.55.35.8 1.1.25.9-.1.55-.2.65-.55.65-1 .55-1.3.45-1.2.1-1.95-.4q-.85-.4-1.2-1.15l.75-.2q.85-.3 1.55-1.05l.1-.15.5-.5q.5-.9.65-2.1l1.8.15" fill="#648461" fill-rule="evenodd"/><path d="M14.55 12.5q-1.1-1.65-2.45-2.15l.5-.3q1.25.35 2.4 1.85l-.45.6M6.45 11l.1.05-.2.1q-1.3.9-2.35 3l-.5-.65q1.15-2.05 2.45-2.75l.5.25" fill="#bbdeb5" fill-rule="evenodd"/><path d="m5.35 8.6-.05.05-.05-.15.1.1" fill="#dbb338" fill-rule="evenodd"/><path d="m8.9 4.6.15-.35m1 4.95L10 9l.05-.05q.4-1.2 1.4-1.2.9-.05 1.45.7v.05l.15.35m-1-.05q0-.4.3-.25m-1.45.05q.45-.35.6.25m-.25 2.1.55.1.55.35.8 1.1q.95.25 1.4 0m-3.3-1.55-1.8-.15Q9.3 12 8.8 12.9l-.5.5-.1.15q-.7.75-1.55 1.05l-.75.2q.35.75 1.2 1.15l1.95.4 1.2-.1 1.3-.45 1-.55.55-.65.2-.65.1-.55-.25-.9m-.55-2.45q1.25.35 2.4 1.85l-.45.6m-1.25 1.45.45.35q.5 1.15-.35 1.75-.9.4-1.85-.25m-5.6-5.05q-1.3.7-2.45 2.75l.5.65q.55.25 1.6-.3l2.15-1.95m-1.3-.9.3-.5 2.7.3m-.4 5.55q-.3.6-1.3.8-1.55.05-2.5-.95-.4-.65 0-1.15l.65-.3-.1-.05-.2-.6v-.25m.3.95v-.05" fill="none" stroke="#2e1700" stroke-linecap="round" stroke-linejoin="round" stroke-opacity=".302" stroke-width=".05"/><path d="m5.9 12.2.8-1.75 5.05.55.55.4.85 1.1q-1.5 1.45-4.3 1.15l-.5-.1Q6.6 13.2 5.9 12.2" fill="#2e1700" fill-opacity=".302" fill-rule="evenodd"/><path d="M13.2 8.2q.25-1.15.65-2.1l.55-1v.65l.45.7.1.7-.35.75-.9.7-.5-.4m1.45-1.1q0-.75-.8-1 .8.25.8 1" fill="#bbdeb5" fill-rule="evenodd"/><path d="M13.2 8.2q-.7-.8-.15-2.15 1.6-2.5 2.85-3.05l-.05 2-.7.2q1.05.95.95 1.85-.25.9-.85 1.25l-1.35.4-.2-.1.9-.7.35-.75-.1-.7-.45-.7V5.1l-.55 1q-.4.95-.65 2.1" fill="#d3f1c6" fill-rule="evenodd"/><path d="m13.7 8.6.2.1 1.35-.4q.6-.35.85-1.25.1-.9-.95-1.85l.7-.2.05-2q-1.25.55-2.85 3.05-.55 1.35.15 2.15.25-1.15.65-2.1l.55-1m-.7 3.5-.5-.4m.65-2.1q.8.25.8 1" fill="none" stroke="#2e1700" stroke-linecap="round" stroke-linejoin="round" stroke-opacity=".302" stroke-width=".05"/><path d="M8.2 5q1.25-.4 2.8 0 1.4.55 2.2 2.55l-.05.45q1.45.35 1.4 2.25-1.3 2.35-4.25 2.45H8.65q.55-.9.25-2.8l-.6-.8Q8 7.4 8.2 5" fill="#d3f1c6" fill-rule="evenodd"/><path d="m8.65 12.7-2.25-.35Q4.25 11.3 4.1 9.9 4.35 8.3 5.7 8q-.3-.75.1-1.5.5-1.25 2.05-1.4L8.2 5q-.2 2.4.1 4.1l.6.8q.3 1.9-.25 2.8" fill="#bbdeb5" fill-rule="evenodd"/><path d="M8.2 5q1.25-.4 2.8 0 1.4.55 2.2 2.55l-.05.45q1.45.35 1.4 2.25-1.3 2.35-4.25 2.45H8.65l-2.25-.35Q4.25 11.3 4.1 9.9 4.35 8.3 5.7 8q-.3-.75.1-1.5.5-1.25 2.05-1.4z" fill="none" stroke="#2e1700" stroke-linecap="round" stroke-linejoin="round" stroke-opacity=".302" stroke-width=".05"/><path d="M5.6 9.05 3.95 8.9q-.8-.2-1.15-1v-.7l-.2-.65 1.95.7 1.15 1.1-.1.7m-2-1.3q.05-.6.95-.5-.9-.1-.95.5" fill="#bbdeb5" fill-rule="evenodd"/><path d="m2.6 6.55.2.65v.7q.35.8 1.15 1l1.65.15-.1.6H3.25q-.9-.15-1.35-1.1l.3-1.1-.85.45H1.3Q.3 6.85 0 5.7q3.5-.65 5.95 1.25l-.25 1.4-1.15-1.1-1.95-.7" fill="#d3f1c6" fill-rule="evenodd"/><path d="m2.6 6.55 1.95.7 1.15 1.1m.25-1.4Q3.5 5.05 0 5.7q.3 1.15 1.3 2.2h.05l.85-.45-.3 1.1q.45.95 1.35 1.1H5.5m-.95-2.4q-.9-.1-.95.5" fill="none" stroke="#2e1700" stroke-linecap="round" stroke-linejoin="round" stroke-opacity=".302" stroke-width=".05"/><path d="m12.9 9.6.45-1.75q.45.6.65 1.8l-1.1-.05" fill="#fff" fill-rule="evenodd"/><path d="M14 9.65h.05l.1.1-.15-.1" fill="#2e1700" fill-opacity=".498" fill-rule="evenodd"/><path d="m6.6 10.95-.1-.05q-.05-.35.25-.65l6.15-.65.45-1.75q.45.6.65 1.8h.05m.1.1.15.35m-.3-.45.15.1M12.9 9.6l1.1.05" fill="none" stroke="#2e1700" stroke-linecap="round" stroke-linejoin="round" stroke-opacity=".302" stroke-width=".05"/><path d="M12.5.05V0l.05.05h-.05" fill="#fffff4" fill-rule="evenodd"/><path d="M12.5.05h.05l.65 3.15.15 2.6-1.55.05q-1.15-.95-1.55-2.45h-.05q.65-.65 1.65-.6l.4.05q.45-1.05.25-2.8m.1 3-.35-.2.35.2" fill="#f7ffdc" fill-rule="evenodd"/><path d="m12.55.05 2.25 4q.1.8-.55 1.35l-.9.4-.15-2.6-.65-3.15" fill="#ffffed" fill-rule="evenodd"/><path d="M12.55.05 12.5 0v.05m.05 0 2.25 4q.1.8-.55 1.35l-.9.4-1.55.05q-1.15-.95-1.55-2.45h-.05q.65-.65 1.65-.6l.4.05q.45-1.05.25-2.8m-.25 2.8.35.2" fill="none" stroke="#2e1700" stroke-linecap="round" stroke-linejoin="round" stroke-opacity=".302" stroke-width=".05"/><path d="M5.1 5.6v.2l-.05-.2h.05" fill="#fffaa2" fill-rule="evenodd"/><path d="M5.05 5.6h.05-.05" fill="#977d79" fill-rule="evenodd"/><path d="m8.65 6.8-.1-.45q-.15-1.3.65-3.45l1.7.25q1.55.7 2.6 2.6v.4l-1.35.5-2.95.2-.55-.05" fill="#648461" fill-rule="evenodd"/><path d="M5.05 5.6v-.85q.8-.9 2.15-1.5l2-.35q-.8 2.15-.65 3.45l.1.45h-.1l-3.4-.85-.05-.15v-.2h-.05" fill="#536243" fill-rule="evenodd"/><path d="M8.55 6.8h.1l.55.05 2.95-.2 1.35-.5V5.6l.35.05L14.3 7l-.25.55q-.9.75-2.7 1.05H8.5q-.2-.5.05-1.8" fill="#ffffed" fill-rule="evenodd"/><path d="m5.1 5.8.05.15 3.4.85Q8.3 8.1 8.5 8.6h-.1l-2.6-.4-1.15-.5-.1-.7.1-1.3.4-.1.05.2m.05.15-.3-.05.3.05" fill="#f7ffdc" fill-rule="evenodd"/><path d="M5.1 5.6v.2l.05.15 3.4.85h.1m4.85-1.05V5.6l.35.05L14.3 7l-.25.55q-.9.75-2.7 1.05H8.4l-2.6-.4-1.15-.5-.1-.7.1-1.3.4-.1h.05m-.25.3.3.05m8.35-.2v.4l-1.35.5-2.95.2-.55-.05" fill="none" stroke="#2e1700" stroke-linecap="round" stroke-linejoin="round" stroke-opacity=".302" stroke-width=".05"/><path d="m9.2 2.9-2 .35q-1.35.6-2.15 1.5v.85l.05.2m4.1-2.9 1.7.25q1.55.7 2.6 2.6" fill="none" stroke="#2e1700" stroke-linecap="round" stroke-linejoin="round" stroke-opacity=".302" stroke-width=".05"/><path d="m10.4 1.5.55.4q.55.5.55 1.25 0 .7-.55 1.25-.45.4-1.05.5l.35-.35q.6-.65.6-1.6 0-.85-.45-1.45" fill="#ffffed" fill-rule="evenodd"/><path d="M9.9 4.9h-.2q-.75 0-1.3-.5-.55-.55-.55-1.25 0-.75.55-1.25.55-.55 1.3-.55l.7.15q.45.6.45 1.45 0 .95-.6 1.6l-.35.35" fill="#f7ffdc" fill-rule="evenodd"/><path d="M9.9 4.9h-.2q-.75 0-1.3-.5-.55-.55-.55-1.25 0-.75.55-1.25.55-.55 1.3-.55l.7.15.55.4q.55.5.55 1.25 0 .7-.55 1.25-.45.4-1.05.5z" fill="none" stroke="#2e1700" stroke-linecap="round" stroke-linejoin="round" stroke-opacity=".302" stroke-width=".05"/><path d="m4 .75-.3 3.1q-.1.6.5 1.2l2.6.2-.65.95-2.6-.2q-.8-.45-.85-1.25Q3.2 2.3 4 .5v.25" fill="#f7ffdc" fill-rule="evenodd"/><path d="m4.95 3.3.4-.1q1-.15 1.8.4v.05l-.35 1.6-2.6-.2q-.6-.6-.5-1.2L4 .75q.25 1.6.95 2.55l-.3.2.3-.2" fill="#ffffed" fill-rule="evenodd"/><path d="m6.8 5.25.35-1.6V3.6q-.8-.55-1.8-.4l-.4.1-.3.2m.3-.2Q4.25 2.35 4 .75m2.8 4.5-.65.95-2.6-.2q-.8-.45-.85-1.25Q3.2 2.3 4 .5v.25" fill="none" stroke="#2e1700" stroke-linecap="round" stroke-linejoin="round" stroke-opacity=".302" stroke-width=".05"/></g></defs></svg>