<svg viewBox="0 0 10.724 14.949" xmlns="http://www.w3.org/2000/svg" xmlns:xlink="http://www.w3.org/1999/xlink"><use transform="matrix(-1.0952 0 0 1.1037 11.398 .03)" width="10.4" height="13.5" xlink:href="#a"/><defs><g id="a" transform="translate(3.95 12.85)"><use transform="translate(-.75 -12.85)" width="7.2" height="12.45" xlink:href="#b"/><use transform="translate(-3.2 -5.25)" width="5.9" height="5.9" xlink:href="#c"/><use transform="matrix(-.8 0 -.3111 1 -1.066 -3.6)" width="2.55" height="2.65" xlink:href="#d"/><use transform="translate(-1.4 -3.15)" width="2.55" height="2.65" xlink:href="#d"/><use transform="translate(-3.3 -10.35)" width="5.65" height="8.3" xlink:href="#e"/></g><g id="f"><path d="M4.6-9.9q.55.8.4 1.85v.1q-.2 1.05-.8 1.1l-.75-.3 1 3.75Q4.7-.55 3.15.3l-2.1.2q-1.1.2-2.4-.6l-.75-.55q-.25-1.25.65-3.65 1-2.55.9-4.2Q-.6-10.25.5-11.1q1.2-.95 2.1-.7.9.2 2 1.9" fill="#bae7b5" fill-rule="evenodd" transform="translate(2.15 11.85)"/><path d="M5-8.05v.1q-.2 1.05-.8 1.1L3.45-8.3q-.4-.4-.2.3l.2.85 1 3.75Q4.7-.55 3.15.3l-2.1.2q1.1-1.2 1.55-3 .45-1.95-.2-3.55-1.4-3.45-.15-4.4Q3.55-12 5-8.05" fill="#fff" fill-opacity=".2" fill-rule="evenodd" transform="translate(2.15 11.85)"/><path d="m4.2-6.85-.75-.3-.2-.85q-.2-.7.2-.3l.75 1.45" fill="#2e1700" fill-opacity=".4" fill-rule="evenodd" transform="translate(2.15 11.85)"/><path d="m-1.35-.1-.75-.55q-.25-1.25.65-3.65 1-2.55.9-4.2Q-.6-10.25.5-11.1-.55-9.5.45-7q1.4 4.85-1.8 6.9" fill="#bae7b5" fill-rule="evenodd" transform="translate(2.15 11.85)"/><path d="M2.65.75q1.2-.95 2.1-.7.9.2 2 1.9.55.8.4 1.85v.1q-.2 1.05-.8 1.1m-.75-.3 1 3.75q.25 2.85-1.3 3.7l-2.1.2q-1.1.2-2.4-.6l-.75-.55Q-.2 9.95.7 7.55q1-2.55.9-4.2Q1.55 1.6 2.65.75z" fill="none" stroke="#2e1700" stroke-linecap="round" stroke-linejoin="round" stroke-opacity=".302" stroke-width=".05"/></g><g id="g"><path d="m.8.3.05.05H.8V.3" fill="#ffbe17" fill-rule="evenodd" transform="translate(2.65 5.5)"/><path d="m-1.3-4.9 1.9-.6q.95-.05 2.25 1.5l.4 2.45q0 1-.75 1.4L2.25 0 1.5.2.85.35.8.3l-2.6-.5q-1.4-.8-.45-2.95l.1-.2.05-.05v-.05l.15-.35.65-1.1" fill="#bae7b5" fill-rule="evenodd" transform="translate(2.65 5.5)"/><path d="M1.35.6.7 1.7m-.15.4-.05.05M4.9 5.5l.25-.15q.75-.4.75-1.4L5.5 1.5M3.4 5.85h.05" fill="none" stroke="#d17012" stroke-linecap="round" stroke-linejoin="round" stroke-width=".05"/><path d="M.85 5.3q.85.75 2.55.55" fill="none" stroke="#ebb14b" stroke-linecap="round" stroke-linejoin="round" stroke-width=".05"/><path d="m2.5-.15-.3-1.7-1 .85q.05-1.05-.65-2-1.6-1.45-2.7-.35l.85-1.55 1.9-.6q.95-.05 2.25 1.5l.4 2.45q0 1-.75 1.4" fill="#2e1700" fill-opacity=".2" fill-rule="evenodd" transform="translate(2.65 5.5)"/><path d="M.5 2.15 1.35.6m4.15.9.4 2.45q0 1-.75 1.4l-.25.15-1.45.35" fill="none" stroke="#c7b099" stroke-linecap="round" stroke-linejoin="round" stroke-width=".05"/><path d="M.55-3q.7.95.65 2L.8.35H.75Q-1.45.6-2.3-.75q-.45-.65-.2-1.65l.35-.95q1.1-1.1 2.7.35" fill="#fff" fill-rule="evenodd" transform="translate(2.65 5.5)"/><path d="m-2.5-2.4.35-.95q1.1-1.1 2.7.35.7.95.65 2-2.65.35-3.7-1.4" fill="#2e1700" fill-opacity=".2" fill-rule="evenodd" transform="translate(2.65 5.5)"/><path d="M.15 3.1q-.25 1 .2 1.65.85 1.35 3.05 1.1" fill="none" stroke="#2e1700" stroke-linecap="round" stroke-linejoin="round" stroke-opacity=".302" stroke-width=".05"/></g><g id="h"><path d="M1.3.05q.15.8-.95 2.4l-1.6-.05q-.1-.95.55-2.15l2-.2" fill="#bae7b5" fill-rule="evenodd" transform="translate(1.25 -.05)"/><path d="M2.55 0q.15.8-.95 2.4L0 2.35Q-.1 1.4.55.2" fill="none" stroke="#c7b099" stroke-linecap="round" stroke-linejoin="round" stroke-width=".05"/></g><g id="i"><path d="M-1.9-1.45q-.45-2.05.7-3.75.95.25 1.55 3.45l-.5.9q-.95.6-1.75-.6" fill="#bae7b5" fill-rule="evenodd" transform="translate(2.15 5.2)"/><path d="M.25 3.75Q-.2 1.7.95 0 1.9.25 2.5 3.45" fill="none" stroke="#c7b099" stroke-linecap="round" stroke-linejoin="round" stroke-width=".05"/><path d="m1.65-3.55.7.6Q4.4.8 1.05 2.8l-1.95.25-1.05-.85Q-2.75-.65-.5-3.45l.25-.15.55-.2 1.35.25" fill="#f4ffdb" fill-rule="evenodd" transform="translate(2.15 5.2)"/><path d="m3.8 1.65.7.6Q6.55 6 3.2 8l-1.95.25L.2 7.4q-.8-2.85 1.45-5.65l.25-.15.55-.2z" fill="none" stroke="#ffbe17" stroke-linecap="round" stroke-linejoin="round" stroke-width=".05"/><path d="m-.25-3.6.55-.2 1.35.25Q-.2-1.85-.6-1q-.55-2.1.35-2.6" fill="#fff" fill-opacity=".4" fill-rule="evenodd" transform="translate(2.15 5.2)"/><path d="m-.9 3.05-1.05-.85Q-2.75-.65-.5-3.45l.25-.15q-.9.5-.35 2.6-1.05 2.4-.3 4.05" fill="#bae7b5" fill-rule="evenodd" transform="translate(2.15 5.2)"/><path d="m3.8 1.65.7.6Q6.55 6 3.2 8l-1.95.25L.2 7.4q-.8-2.85 1.45-5.65l.25-.15.55-.2z" fill="none" stroke="#c7b099" stroke-linecap="round" stroke-linejoin="round" stroke-width=".05"/><path d="m.3.6.35-.65q.75-1 1.25-.55.7 1.65.15 2.45l-.85.7Q1.55 1.25.3.6" fill="#fff9c8" fill-rule="evenodd" transform="translate(2.15 5.2)"/><path d="M.3.6q1.25.65.9 1.95l-1 .15Q-.25 1.85.3.6" fill="#667854" fill-rule="evenodd" transform="translate(2.15 5.2)"/><path d="m3.2-4.7.1-.15q.35.7-.5 3.8L1.8-1q-.95-.1-1-1.3.65-1.95 2.4-2.4" fill="#bae7b5" fill-rule="evenodd" transform="translate(2.15 5.2)"/><path d="m2.75-1-1 .05q-.25-1.5 1.5-3.85.65.8-.5 3.8" fill="#667854" fill-rule="evenodd" transform="translate(2.15 5.2)"/><path d="M5.4.4Q3.55 1 2.9 2.95M5.4.4q.65.8-.5 3.8" fill="none" stroke="#c7b099" stroke-linecap="round" stroke-linejoin="round" stroke-width=".05"/><path d="m-1.85 2.15-.25-.7q-.2-.7.2-2.3.2-.45.45.5l.1.65q-.55.6-.5 1.85" fill="#fff9c8" fill-rule="evenodd" transform="translate(2.15 5.2)"/><path d="M-1.85 2.15Q-1.9.9-1.35.3q.1 1.2-.1 1.95-.15.35-.4-.1" fill="#667854" fill-rule="evenodd" transform="translate(2.15 5.2)"/></g><use width="7.2" height="12.45" xlink:href="#f" id="b"/><use width="5.9" height="5.9" xlink:href="#g" id="c"/><use width="2.55" height="2.65" xlink:href="#h" id="d"/><use width="5.65" height="8.3" xlink:href="#i" id="e"/></defs></svg>