<svg viewBox="0 0 61.203 59.737" xmlns="http://www.w3.org/2000/svg" xmlns:xlink="http://www.w3.org/1999/xlink"><g transform="translate(-1.802 -5.5)"><use transform="translate(1.888 6.273) scale(2.1354)" width="28.65" height="29.25" xlink:href="#a"/><use transform="translate(10.05 5.5)" width="48.75" height="59.6" xlink:href="#b"/></g><defs><g id="c" transform="translate(27.55 48.45)"><use transform="rotate(-143.652 10.704 2.063) scale(.9976)" width="20.95" height="13.65" xlink:href="#d"/><use transform="matrix(-1 0 0 1 -7.85 -1.55)" width="11.35" height="6.5" xlink:href="#e"/><use transform="matrix(-1 0 0 1 -2.9 -11.8)" width="15.1" height="11.65" xlink:href="#f"/><use transform="translate(7.45 -2.6)" width="11.35" height="6.5" xlink:href="#e"/><use transform="translate(-11.75 -.4)" width="11.75" height="7" xlink:href="#g"/><use transform="matrix(-.983 0 .2216 1.0568 -.856 -15.649)" width="11.3" height="17.65" xlink:href="#h"/><use transform="translate(1.3 -12.2)" width="15.1" height="11.65" xlink:href="#f"/><use transform="translate(-7.85 -18.4)" width="11" height="19.6" xlink:href="#i"/><use transform="translate(-.05 -.1)" width="11.7" height="7" xlink:href="#j"/><use transform="matrix(.983 0 -.206 1.0568 .678 -15.849)" width="11.3" height="17.65" xlink:href="#h"/><use transform="translate(-27.565 -48.451) scale(.6313)" width="90.75" height="62.65" xlink:href="#k"/></g><g id="l"><path d="m.2-4.4 1.15-.1q2.9 1.35 2.3 4.55-.6 3.15-2.75 4t-2.85 0L-3 2.55q-.35-.6-7.35 2.95-4.35 3.5-5.6 3.25-1.3-.25-1-1.5.6-3.15 5.85-5.5 2.85-1.3 7.65-2.8Q-1.3-1.85-.65-3L.2-4.4" fill="#bbdeb5" fill-rule="evenodd" transform="translate(17.1 4.8)"/><path d="m17.3.4-.85 1.4q-.65 1.15-2.8 1.95-4.8 1.5-7.65 2.8Q.75 8.9.15 12.05q-.3 1.25 1 1.5 1.25.25 5.6-3.25 7-3.55 7.35-2.95l1.05 1.5q.7.85 2.85 0t2.75-4q.6-3.2-2.3-4.55z" fill="none" stroke="#2e1700" stroke-linecap="round" stroke-linejoin="round" stroke-opacity=".302" stroke-width=".25"/></g><g id="m"><path d="m5.4 5.7-2.8-.1-3.15-.15Q-2.75 5.1-2.65 2q.1-2.05 2.5-2.4l.9-.1Q2.55.05 3.9 2q1.5 2 1.5 3.7M1.15 2.25Q2.95 3.6 3 5.15l-.4.45.4-.45q-.05-1.55-1.85-2.9" fill="#fffff1" fill-rule="evenodd" transform="translate(2.75 .6)"/><path d="m.75-.5 2.5.15L4.7.1l.85.2q2.95 2 2.95 3.4T6.65 4.95q-.25.6-1.25.75Q5.4 4 3.9 2 2.55.05.75-.5M4.7 1.65q2.1 1.3 2.1 2.75l-.15.55.15-.55q0-1.45-2.1-2.75" fill="#fff" fill-rule="evenodd" transform="translate(2.75 .6)"/><path d="M3.5.1 6 .25 7.45.7l.85.2q2.95 2 2.95 3.4T9.4 5.55q-.25.6-1.25.75l-2.8-.1-3.15-.15Q0 5.7.1 2.6.2.55 2.6.2m6.8 5.35L9.55 5q0-1.45-2.1-2.75M5.35 6.2l.4-.45Q5.7 4.2 3.9 2.85" fill="none" stroke="#2e1700" stroke-linecap="round" stroke-linejoin="round" stroke-opacity=".302" stroke-width=".25"/></g><g id="n"><path d="M2.4-2.4q5.95 3.65 5.95 8.75 0 1-.75 2.45L.3 8.45Q-3.6 6.1-3.1 1l.75-1.15Q-.7-2 2.4-2.4" fill="#bbdeb5" fill-rule="evenodd" transform="translate(3.25 2.6)"/><path d="m4.05-2.5 1.45.25L8.9.6q4.65 4.25 1.7 7.55l-3 .65q.75-1.45.75-2.45 0-5.1-5.95-8.75l1.65-.1" fill="#d3f1c6" fill-rule="evenodd" transform="translate(3.25 2.6)"/><path d="m10.85 11.4 3-.65q2.95-3.3-1.7-7.55L8.75.35 7.3.1m3.55 11.3-7.3-.35Q-.35 8.7.15 3.6" fill="none" stroke="#2e1700" stroke-linecap="round" stroke-linejoin="round" stroke-opacity=".302" stroke-width=".25"/></g><g id="g"><path d="m-4.35-.3.95.15Q-.8.2-.3 2.4q.75 3.4-1.45 3.8l-3.3.15-2.85.1q-1.1-.2-1.5-.8-1.9.2-2.2-1.35-.3-1.5 2.4-3.7l.85-.2 1.45-.45 2.55-.25M-8 2.1q-1.95 1.4-1.65 2.95l.25.6-.25-.6Q-9.95 3.5-8 2.1m3.85.65Q-5.8 4.2-5.5 5.85l.45.5-.45-.5q-.3-1.65 1.35-3.1" fill="#fffff1" fill-rule="evenodd" transform="translate(11.75 .4)"/><path d="M7.4.1 4.85.35 3.4.8l-.85.2Q-.15 3.2.15 4.7q.3 1.55 2.2 1.35l-.25-.6Q1.8 3.9 3.75 2.5M6.7 6.75 10 6.6q2.2-.4 1.45-3.8-.5-2.2-3.1-2.55m-6 5.8q.4.6 1.5.8l2.85-.1-.45-.5q-.3-1.65 1.35-3.1" fill="none" stroke="#2e1700" stroke-linecap="round" stroke-linejoin="round" stroke-opacity=".302" stroke-width=".25"/></g><g id="o"><path d="M-1-1.45Q.65 1.45.65 6.4q0 5.45 2.6 7.5-2.7.15-4.1 1.9V7.6q-.3-6.05-2.5-6.4L-4 0q0-1 3-1.45" fill="#bbdeb5" fill-rule="evenodd" transform="translate(4 1.75)"/><path d="M-1-1.45.3-1.6l4.4-.1q1.8.25 2.5 1.1-.85 8.9-.6 12.35l.35 2.45L5.9 14l-1.35-.1h-1.3Q.65 11.85.65 6.4.65 1.45-1-1.45" fill="#d3f1c6" fill-rule="evenodd" transform="translate(4 1.75)"/><path d="m8.55 15.65 1.35.1 1.05.2-.35-2.45q-.25-3.45.6-12.35M.65 2.95q2.2.35 2.5 6.4v8.2q1.4-1.75 4.1-1.9" fill="none" stroke="#2e1700" stroke-linecap="round" stroke-linejoin="round" stroke-opacity=".302" stroke-width=".25"/></g><g id="p"><path d="M-3.3.9Q-1.85.3-.35.3q3.2 0 3.2 1.25l-.5 1.2Q-2.3 5.7-3 7l-2.05 4.5q.25-2.35.8-4.2l-.15-.4-2.2 1.4-.05-.1q0-.45 1.85-3.1v-.45l.2-1.95.4-.65.9-1.15" fill="#fffff1" fill-rule="evenodd" transform="translate(6.75 5.95)"/><path d="M-3.3.9Q-1.95-.7.6-2.95l3.55-2.9v19.4L2.4 12.8q-3.35-1.5-5.15-3.4-1.2 1.05-2.4 3.25l.1-1.15L-3 7q.7-1.3 5.35-4.25l.5-1.2Q2.85.3-.35.3q-1.5 0-2.95.6m2.15 7.6-1.6.9 1.6-.9" fill="#fffff3" fill-rule="evenodd" transform="translate(6.75 5.95)"/><path d="M10.9.1 7.35 3Q4.8 5.25 3.45 6.85L2.55 8l-.4.65-.2 1.95v.45Q.1 13.7.1 14.15m1.6 3.3-.1 1.15q1.2-2.2 2.4-3.25l1.6-.9m-1.6.9q1.8 1.9 5.15 3.4l1.75.75M.15 14.25l2.2-1.4.15.4q-.55 1.85-.8 4.2" fill="none" stroke="#2e1700" stroke-linecap="round" stroke-linejoin="round" stroke-opacity=".302" stroke-width=".25"/></g><g id="j"><path d="M7.95 2.35Q9.9 3.75 9.6 5.3l-.25.65.25-.65q.3-1.55-1.65-2.95M4.3 0l2.55.2L8.3.65l.85.25q2.65 2.15 2.4 3.7-.3 1.5-2.2 1.35-.4.6-1.5.75L5 6.6l-3.3-.1Q-.55 6.1.25 2.7.7.5 3.35.1L4.3 0m-.2 3q1.65 1.45 1.35 3.1-.05.35-.45.5.4-.15.45-.5.3-1.65-1.35-3.1" fill="#fffff1" fill-rule="evenodd" transform="translate(.05 .1)"/><path d="m9.4 6.05.25-.65Q9.95 3.85 8 2.45M4.35.1 6.9.3l1.45.45.85.25q2.65 2.15 2.4 3.7-.3 1.5-2.2 1.35-.4.6-1.5.75l-2.85-.1-3.3-.1Q-.5 6.2.3 2.8.75.6 3.4.2m1.65 6.5q.4-.15.45-.5.3-1.65-1.35-3.1" fill="none" stroke="#2e1700" stroke-linecap="round" stroke-linejoin="round" stroke-opacity=".302" stroke-width=".25"/></g><g id="q"><path d="m-22-34.55-.25-.1.55-.7-.3.8" fill="#ebd6c4" fill-rule="evenodd" transform="translate(44.85 50.45)"/><path d="m20.4-32.2.5 1.15 1.4 3.5 3.85 14.35q2.1 8-3.05 13.95l-.35.4-1.7 1.6.85-2.9-2.75-4.45Q3.95-6.95-8.1-5.65q-12 1.25-12.15 2.1l-2.9 5.25 1 3.05-.85-.6-1-.8-2.85-2.6q-5.1-5.95-2.95-13.95l4-14.35 1.4-3.5.55-1.15.45-.8.4-.5.75-1.15.25.1-2.25 6.3L-18.3-23q6.15 1.75 15.6 1.75 12.95-.15 18.2-1.95l4.85-4.55.05-4.45" fill="#d3f1c6" fill-rule="evenodd" transform="translate(44.85 50.45)"/><path d="m20.4-32.2-.05 4.45-4.85 4.55q-5.25 1.8-18.2 1.95-9.45 0-15.6-1.75l-5.95-5.25 2.25-6.3.3-.8 1.5-1.65 1.4-1.3q4.5-3.8 11.2-5.1l2.6-.45 1.2-.1 2.05-.05h.15l2.05.05 1.2.1 2.6.45q6.65 1.3 11.15 5.1 1.9 1.55 3.4 3.65l.75 1.15.35.5.5.8M-22.15 4.75l-1-3.05 2.9-5.25q.15-.85 12.15-2.1Q3.95-6.95 19.15-4.6L21.9-.15l-.85 2.9-1.85 1.4q-3.65 2.6-7.4 4.3Q6 11.05 0 11.5h-.05l-1.9.1-5.2-.25-1.85-.3q-3.1-.55-6.3-1.65Q-17.9 8-20 6.25l.05-.1-2.2-1.4" fill="#f7ffdc" fill-rule="evenodd" transform="translate(44.85 50.45)"/><path d="m21.05 2.75 1.7-1.6.35-.4q5.15-5.95 3.05-13.95L22.3-27.55l-1.4-3.5-.5-1.15-.5-.8-.35-.5-.75-1.15q-1.5-2.1-3.4-3.65-4.5-3.8-11.15-5.1l-2.6-.45-1.2-.1L-1.6-44h-.15l-2.05.05-1.2.1-2.6.45q-6.7 1.3-11.2 5.1l-1.4 1.3-1.5 1.65m-.55.7L-23-33.5l-.4.5-.45.8-.55 1.15-1.4 3.5-4 14.35q-2.15 8 2.95 13.95l2.85 2.6 1 .8.85.6m43.2-2-1.85 1.4q-3.65 2.6-7.4 4.3Q6 11.05 0 11.5h-.05l-1.9.1-5.2-.25-1.85-.3q-3.1-.55-6.3-1.65Q-17.9 8-20 6.25l.05-.1-2.2-1.4m-.1-39.4.55-.7" fill="none" stroke="#2e1700" stroke-linecap="round" stroke-linejoin="round" stroke-opacity=".302" transform="translate(44.85 50.45)"/><path d="m1.9-39.8 1.05-2-1.05 2m1.05-2q3.85 1.1 6.95 3.1-3.4 4.85-7.35 4.85-4.05 0-7.7-2.25l-1.65-1.2v-5.75l.4-.05 2.5-1.7 1.15-1.1q1.55-1.65 2.2-3.75l2.7-.3q.05 1.2-1.85 6.2Q2.05-43.9 4.05-49l3.45-.25-4.55 7.45" fill="#f7ffdc" fill-rule="evenodd" transform="translate(44.85 50.45)"/><path d="m2.95-41.8-1.05 2m1.05-2 4.55-7.45-3.45.25q-2 5.1-3.75 5.25 1.9-5 1.85-6.2M2.15-49.95l-2.7.3q-.65 2.1-2.2 3.75m-1.15 1.1-2.5 1.7-.4.05" fill="none" stroke="#2e1700" stroke-linecap="round" stroke-linejoin="round" stroke-opacity=".302" transform="translate(44.85 50.45)"/><path d="m-20.2-24.85-2.25.7-3.85 1.65-.05-.05q-1.3-2.8-1.65-7.3l-.3-5.3q-.55-13.7.05-14.3l1.25.4q-.75 4.65 1.15 13.95l.45 1.55.15.95.2.1 1.75 3.55q1.45 2.7 3.1 4.1" fill="#d3f1c6" fill-rule="evenodd" transform="translate(44.85 50.45)"/><path d="M-11.45-40.65q-.65 2.9-.25 4.9l.3.6q-1.3 5.75-6.3 8.85-2.5 1.15-2.5 1.45-1.65-1.4-3.1-4.1l-1.75-3.55q6.45 1.55 8.7-3.15-4.4-7.85-9.05-9.5-1.25-.45-1.35.75l.1 1.05 1.25 9.8-.45-1.55q-1.9-9.3-1.15-13.95 5 1.75 15.55 8.4" fill="#f7ffdc" fill-rule="evenodd" transform="translate(44.85 50.45)"/><path d="m-26.65-43.35-.1-1.05q.1-1.2 1.35-.75 4.65 1.65 9.05 9.5-2.25 4.7-8.7 3.15l-.2-.1-.15-.95-1.25-9.8" fill="#fffff3" fill-rule="evenodd" transform="translate(44.85 50.45)"/><path d="m-26.3-22.5-.05-.05q-1.3-2.8-1.65-7.3l-.3-5.3q-.55-13.7.05-14.3l1.25.4q5 1.75 15.55 8.4m-15.2-2.7-.1-1.05q.1-1.2 1.35-.75 4.65 1.65 9.05 9.5" fill="none" stroke="#2e1700" stroke-linecap="round" stroke-linejoin="round" stroke-opacity=".302" transform="translate(44.85 50.45)"/><path d="M-14.4-30q2.6-.4 5.35 1.2 4 1.5 7.25 6.95.85 2.75 0 6.5-.7 2.75-4.4 6.2-6.6 2-12.9-.35-3.4-1.75-3.9-10.05 2.25-8.5 8.6-10.45" fill="#fffff1" fill-rule="evenodd" transform="translate(44.85 50.45)"/><path d="M30.45 20.45q2.6-.4 5.35 1.2 4 1.5 7.25 6.95.85 2.75 0 6.5-.7 2.75-4.4 6.2-6.6 2-12.9-.35-3.4-1.75-3.9-10.05 2.25-8.5 8.6-10.45z" fill="none" stroke="#2e1700" stroke-linecap="round" stroke-linejoin="round" stroke-opacity=".302" stroke-width=".25"/><path d="m-11.65-26.6 1.5.1q1.95.5 3.35 1.8l1.05 1.2.35.65q.7 1.35.95 2.8v.1q.15 1.45-.25 3-.65 2.65-2.8 4.35-8.9-2.45-7.15-9.35.9-3.65 3-4.65" fill="#648461" fill-rule="evenodd" transform="translate(44.85 50.45)"/><path d="m-7.5-12.6-.85.5q-2.65 1.85-5.6 1.15-3.1-.8-4.85-3.7-1.5-2.85-.7-6 .75-3.15 3.45-4.9 2.15-1.25 4.4-1.05-2.1 1-3 4.65-1.75 6.9 7.15 9.35" fill="#526142" fill-rule="evenodd" transform="translate(44.85 50.45)"/><path d="m-7.05-22.25-1.65.15q-1-.2-1.3-1.05-.35-.7 0-1.3 0-.65.65-1.1.65-.65 1.65-.35.65.2 1.3 1.1.3.65.3 1.5-.3.65-.95 1.05" fill="#fff" fill-rule="evenodd" transform="translate(44.85 50.45)"/><path d="M38.15 50.75Q35 47.25 22.5 47.1 10.15 46.7.1 50.85" fill="none" stroke="#2e1700" stroke-linecap="round" stroke-linejoin="round" stroke-opacity=".302" stroke-width=".25"/><path d="M38.05 50.35q-5.4-2-16.3 1.85-10.9 3.55-16.25 10.35" fill="none" stroke="#2e1700" stroke-linecap="round" stroke-linejoin="round" stroke-opacity=".302" stroke-width=".25"/><path d="M23.35-49.05q.75 4.65-1.1 13.95l-.45 1.55 1.25-9.8.1-1.05q-.15-1.2-1.4-.75-4.65 1.65-9.05 9.5 2.25 4.7 8.7 3.15l-1.7 3.55q-1.5 2.7-3.15 4.1L14.1-26.3q-5.05-3.1-6.35-8.85l.3-.6q.4-2-.2-4.9 10.55-6.65 15.5-8.4" fill="#f7ffdc" fill-rule="evenodd" transform="translate(44.85 50.45)"/><path d="m23.35-49.05 1.25-.4q.6.6.05 14.3l-.25 5.3q-.4 4.5-1.65 7.3l-.05.05q-.95-.35-3.85-1.65l-2.3-.7q1.65-1.4 3.15-4.1l1.7-3.55.25-.1.15-.95.45-1.55q1.85-9.3 1.1-13.95" fill="#d3f1c6" fill-rule="evenodd" transform="translate(44.85 50.45)"/><path d="m21.8-33.55-.15.95-.25.1q-6.45 1.55-8.7-3.15 4.4-7.85 9.05-9.5 1.25-.45 1.4.75l-.1 1.05-1.25 9.8" fill="#fffff3" fill-rule="evenodd" transform="translate(44.85 50.45)"/><path d="m22.7-22.5.05-.05q1.25-2.8 1.65-7.3l.25-5.3q.55-13.7-.05-14.3l-1.25.4q-4.95 1.75-15.5 8.4m15.2-2.7.1-1.05q-.15-1.2-1.4-.75-4.65 1.65-9.05 9.5" fill="none" stroke="#2e1700" stroke-linecap="round" stroke-linejoin="round" stroke-opacity=".302" transform="translate(44.85 50.45)"/><path d="M8.9-30q2.6-.4 5.35 1.2 4 1.5 7.25 6.95.85 2.75 0 6.5-.7 2.75-4.4 6.2-6.6 2-12.9-.35Q.8-11.25.3-19.55 2.55-28.05 8.9-30" fill="#fffff1" fill-rule="evenodd" transform="translate(44.85 50.45)"/><path d="M53.75 20.45q2.6-.4 5.35 1.2 4 1.5 7.25 6.95.85 2.75 0 6.5-.7 2.75-4.4 6.2-6.6 2-12.9-.35-3.4-1.75-3.9-10.05 2.25-8.5 8.6-10.45z" fill="none" stroke="#2e1700" stroke-linecap="round" stroke-linejoin="round" stroke-opacity=".302" stroke-width=".25"/><path d="m11.65-26.6 1.5.1q1.95.5 3.35 1.8l1.05 1.2.35.65.95 2.8v.1q.15 1.45-.25 3-.65 2.65-2.8 4.35-8.9-2.45-7.15-9.35.9-3.65 3-4.65" fill="#648461" fill-rule="evenodd" transform="translate(44.85 50.45)"/><path d="m15.8-12.6-.85.5q-2.65 1.85-5.6 1.15-3.1-.8-4.85-3.7-1.5-2.85-.7-6 .75-3.15 3.45-4.9 2.15-1.25 4.4-1.05-2.1 1-3 4.65-1.75 6.9 7.15 9.35" fill="#526142" fill-rule="evenodd" transform="translate(44.85 50.45)"/><path d="M17.15-23.3q-.3.65-.95 1.05l-1.65.15q-1-.2-1.3-1.05-.35-.7 0-1.3 0-.65.65-1.1.65-.65 1.65-.35.65.2 1.3 1.1l.3 1.5" fill="#fff" fill-rule="evenodd" transform="translate(44.85 50.45)"/><path d="M52.6 50.75q3.15-3.5 15.65-3.65 12.35-.4 22.4 3.75" fill="none" stroke="#2e1700" stroke-linecap="round" stroke-linejoin="round" stroke-opacity=".302" stroke-width=".25"/><path d="M52.7 50.35q5.4-2 16.3 1.85 10.9 3.55 16.25 10.35" fill="none" stroke="#2e1700" stroke-linecap="round" stroke-linejoin="round" stroke-opacity=".302" stroke-width=".25"/><path d="m5.8-6.55.3.3Q8.7-3.6 8.7.1T6.1 6.4-.2 9l-1.2-.05-.25-2.2q0-5.65 3.85-7.9Q3.9-2.25 5-3.9q.65-1.2.65-2.35l.15-.3" fill="#fffff1" fill-rule="evenodd" transform="translate(44.85 50.45)"/><path d="M-1.4 8.95q-2.95-.4-5.15-2.55Q-9.1 3.8-9.1.1t2.55-6.35Q-3.9-8.8-.2-8.8q3.5 0 6 2.25l-.15.3Q5.65-5.1 5-3.9 3.9-2.25 2.2-1.15q-3.85 2.25-3.85 7.9l.25 2.2" fill="#fffff3" fill-rule="evenodd" transform="translate(44.85 50.45)"/><path d="M-1.4 8.95q-2.95-.4-5.15-2.55Q-9.1 3.8-9.1.1t2.55-6.35Q-3.9-8.8-.2-8.8q3.5 0 6 2.25l.3.3Q8.7-3.6 8.7.1T6.1 6.4-.2 9z" fill="none" stroke="#2e1700" stroke-linecap="round" stroke-linejoin="round" stroke-opacity=".302" transform="translate(44.85 50.45)"/><path d="m-.2-.8-4.2-4.5h8.85L.15-.55-.2-.8" fill="#648461" fill-rule="evenodd" transform="translate(44.85 50.45)"/><path d="m44.65 49.65-4.2-4.5h8.85L45 49.9l-.35-.25 2.75 2.75m-2.55-2.55L42.3 52.3" fill="none" stroke="#2e1700" stroke-linecap="round" stroke-linejoin="round" stroke-opacity=".302" stroke-width=".25"/></g><use transform="matrix(.5 0 0 .5 -.025 -.025)" width="57.3" height="58.5" xlink:href="#c" id="a"/><use width="20.95" height="13.65" xlink:href="#l" id="d"/><use width="11.35" height="6.5" xlink:href="#m" id="e"/><use width="15.1" height="11.65" xlink:href="#n" id="f"/><use width="11.3" height="17.65" xlink:href="#o" id="h"/><use width="11" height="19.6" xlink:href="#p" id="i"/><use width="90.75" height="62.65" xlink:href="#q" id="k"/><path d="M34.45 6.65q-1.1 2.85-2.15 3.4l-.2-.05H32q1.2-3.25 1.15-4l-1.8.2q-.4 1.35-1.45 2.5l-.8.75-.9.65-1.6.3q-2.05.35-3.75 1.1-6.2-3.85-9.3-4.9l-.85-.3q-.4.45 0 9.7-.05 1.85.15 3.5.2 2.4.75 4.15l-1.9 7.1q-1.05 3.7.25 6.75.6 1.35 1.65 2.65l1.15 1.1.8.65.7.55.55.4 1.5.95-.05.05 1.2.9.05.25-.95.15Q16.5 46.6 14.9 48.2q-5 4.55-1.8 8.1l1.2.25-.55.15q-3.2 2.1-3.2 3.65 0 1.45 2 1.3.25.6 1.3.8l3-.1 1.85.05q.45 1.2 2.2 1 .45.7 1.6.85l3.1-.1 3.45-.15q2.3-.4 1.65-3.8l.25.25-.8-3.75 1.55.8-.6 2.7v.1l.05-.1q-.8 3.65 1.6 4.1l3.5.15 3.05.1q1.15-.15 1.6-.85 2 .15 2.35-1.45l-.05-.95 1.4-.05 3 .1q1-.15 1.35-.8 1.95.2 1.95-1.3V59q4.7.7 6.9-1.3 1-.9.05-1.85-.9-1.1-6.85-.8l-3.1-.55q1.45-3.05-2.6-6.75l-3.05-2.65.35-1.3 2.1-1.35 1.25-1 1.1-1 .1-.05.15-.25q1.15-1.35 1.75-2.85 1.25-2.95.3-6.55l-1.95-7.2q.6-1.7.8-4.05l.2-3.5q.3-9.25-.1-9.7l-.85.3q-3 1.05-9.15 4.9-1.7-.75-3.65-1.1l-.25-.05 2.4-3.95z" fill="none" stroke="#254b43" stroke-linecap="round" stroke-linejoin="round" stroke-opacity=".498" transform="translate(-10.05 -5.5)" id="b"/></defs></svg>