<svg viewBox="0 0 175.36 163.88" xmlns="http://www.w3.org/2000/svg" xmlns:xlink="http://www.w3.org/1999/xlink"><g transform="translate(-187.74 -118.52)"><use transform="translate(362.55 282.1)" width=".55" height=".3" xlink:href="#a"/><use transform="matrix(3.4972 0 0 1.7486 210.74 207.62)" width="25.6" height="25.6" xlink:href="#b"/><use transform="translate(187.75 118.55)" width="135.75" height="136.4" xlink:href="#c"/></g><defs><radialGradient id="e" cx="0" cy="0" r="819.2" gradientTransform="scale(.015)" gradientUnits="userSpaceOnUse"><stop stop-color="#0d141c" stop-opacity=".333" offset=".333"/><stop stop-color="#101a24" stop-opacity="0" offset="1"/></radialGradient><radialGradient id="f" cx="0" cy="0" r="819.2" gradientTransform="matrix(-.0194 .0079 .0069 .0245 261.4 224.5)" gradientUnits="userSpaceOnUse"><stop stop-color="#fff" offset=".694"/><stop stop-color="#d1b579" offset=".745"/></radialGradient><radialGradient id="g" cx="0" cy="0" r="819.2" gradientTransform="matrix(.008 -.0043 .0031 .023 275.8 217.5)" gradientUnits="userSpaceOnUse"><stop stop-color="#fff" offset=".694"/><stop stop-color="#d1b579" offset=".745"/></radialGradient><path d="m362.55 282.1.55.3h-.15l-.4-.3" fill-rule="evenodd" transform="translate(-362.55 -282.1)" id="a"/><path d="M9.05-9.05Q12.8-5.3 12.8 0T9.05 9.05 0 12.8t-9.05-3.75T-12.8 0t3.75-9.05T0-12.8t9.05 3.75" fill="url(#e)" fill-rule="evenodd" transform="translate(12.8 12.8)" id="d"/><use width="25.6" height="25.6" xlink:href="#d" id="b"/><g id="c"><path d="M264.05 208.2q9.15-6.05 25.35 3.15.9.4 1.6 1 5.25 3.5 1.1 6.05-8.1 5.7-22.3 7.7h-1.1q-10.25-5.5-9.35-13.75 2-2.55 4.5-3.95l.2-.2" fill="#78f5f5" fill-opacity=".2" fill-rule="evenodd" transform="translate(-187.75 -118.55)"/><path d="M76.3 89.65q9.15-6.05 25.35 3.15.9.4 1.6 1 5.25 3.5 1.1 6.05-8.1 5.7-22.3 7.7h-1.1q-10.25-5.5-9.35-13.75 2-2.55 4.5-3.95" fill="none" stroke="#e4fdfd" stroke-linecap="round" stroke-linejoin="round" stroke-opacity=".2" stroke-width=".05"/><path d="M287.3 213.15q4.15 2.55.85 4.45-6.4 4.1-17.7 5.55h-.85q-8.15-4-7.4-10 1.55-1.85 3.55-2.85-2.85 1.7 2.45 7.4 11.8.6 19.1-4.55" fill="#c2a561" fill-rule="evenodd" transform="translate(-187.75 -118.55)"/><path d="M287.3 213.15q-7.3 5.15-19.1 4.55-5.3-5.7-2.45-7.4l.15-.15q7.25-4.4 20.1 2.3.75.3 1.3.7" fill="#d5bf91" fill-rule="evenodd" transform="translate(-187.75 -118.55)"/><path d="M262.2 213.15q-.75 6 7.4 10h.85l-2.15 2.15q-8.1-4-7.25-10 .55-2 1.15-2.15" fill="#7a6130" fill-opacity=".502" fill-rule="evenodd" transform="translate(-187.75 -118.55)"/><path d="M82.7 104.6q11.3-1.45 17.7-5.55 3.3-1.9-.85-4.45-.55-.4-1.3-.7-12.85-6.7-20.1-2.3m-.15.15q-2 1-3.55 2.85-.75 6 7.4 10h.85z" fill="none" stroke="#000" stroke-linecap="round" stroke-linejoin="round" stroke-opacity=".302" stroke-width=".05"/><path d="M281 216.5q-1.25 7.7-7 13.55-7.95 8.1-20 7.85-12.1-.3-20.05-8.4-4.5-4.65-5.45-11.2 24.8 17.25 52.5-1.8" fill="#c2a561" fill-rule="evenodd" transform="translate(-187.75 -118.55)"/><path d="m281 208.7.1 1.65q.3 3.15-.1 6.15-27.7 19.05-52.5 1.8-.4-2.75-.15-5.65 25.1 13.6 52.65-3.95" fill="#866d35" fill-rule="evenodd" transform="translate(-187.75 -118.55)"/><path d="M277.95 198.4q2.35 4.8 3.05 10.3-27.55 17.55-52.65 3.95.15-2.7.7-5.45.25-1.4.65-2.75l7.55.15 5.65.25 2.05-.7 2.3-1.5q2.75 1.8 6.45.4l3.85-1.35q8.5 1.1 14.95-2.45l5.45-.85" fill="#745f2e" fill-rule="evenodd" transform="translate(-187.75 -118.55)"/><path d="m229.7 204.45.55-2.2q1.65-5.35 4-9.75 2.45-4.5 5.75-7.8 7.4-7.55 15.1-5.35l1.05.3q7.7 2.75 15.25 10l.95.95q2.85 2.9 4.8 6.3l.8 1.5-5.45.85q-6.45 3.55-14.95 2.45l-3.85 1.35q-3.7 1.4-6.45-.4l-2.3 1.5-2.05.7-5.65-.25-7.55-.15" fill="#43361b" fill-rule="evenodd" transform="translate(-187.75 -118.55)"/><path d="m41.95 85.9.55-2.2q1.65-5.35 4-9.75 2.45-4.5 5.75-7.8 7.4-7.55 15.1-5.35l1.05.3q7.7 2.75 15.25 10l.95.95q2.85 2.9 4.8 6.3l.8 1.5q2.35 4.8 3.05 10.3l.1 1.65q.3 3.15-.1 6.15-1.25 7.7-7 13.55-7.95 8.1-20 7.85-12.1-.3-20.05-8.4-4.5-4.65-5.45-11.2-.4-2.75-.15-5.65.15-2.7.7-5.45.25-1.4.65-2.75z" fill="none" stroke="#000" stroke-linecap="round" stroke-linejoin="round" stroke-opacity=".302" stroke-width=".05"/><path d="M260.15 206.7q5.35.7 7.8 8.2v.45q2.2 6.7 2.2 9.85v.15q-.25 1.1-1.5 1.75l-.4.45-6.45 2.85q-3.7 1.5-7.95.85-3.85-1.25-4.8-6.45-.95-5.35 1.95-12.35 1.2-2.6 3.25-4.25 2.75-1.9 5.9-1.5" fill="url(#f)" fill-rule="evenodd" transform="translate(-187.75 -118.55)"/><path d="M276.45 202.3q2.5 4 3.3 8.65.85 4.65-.15 7.65-1.2 3.05-2.7 3.85l-2.75 1.25-.15-.15q-.7-.15-.95-.7-.7-2.45-1.5-9.05v-.25q-1-7.4.65-10.85.85-2.05 2.2-1.9.95 0 2.05 1.5" fill="url(#g)" fill-rule="evenodd" transform="translate(-187.75 -118.55)"/><path d="M260.15 206.7q5.35.7 7.8 8.2v.45l1 3q-9.9 1.35-19.75.15.4-2.9 1.8-6.05 1.2-2.6 3.25-4.25 2.75-1.9 5.9-1.5M280.05 213.8q-3.05 2.65-7.95 4.25l-.55-4.25v-.25q-.85-7.25.8-10.55.85-2.2 2.05-2.05.95 0 2.05 1.35 2.5 4 3.3 8.8l.3 2.7" fill="#d1b479" fill-opacity=".282" fill-rule="evenodd" transform="translate(-187.75 -118.55)"/><path d="m263.3 215.85.65-.45.3-.95q0-.55-.3-.8l-.65-.55h-.15q.8-1.4 2.05-1.25 1.35-.15 2.45 1.5.85 1.8.85 4.1 0 2.2-.85 3.85-1.1 1.95-2.45 1.95-1.25 0-2.35-1.95-.95-1.65-.95-3.85 0-1.35.45-2.3l.1.25q.3.45.85.45M273.05 210.7l.5-.35.2-.8-.2-.7-.5-.45h-.1q.6-1.15 1.5-1.05 1-.1 1.8 1.3.6 1.45.6 3.4 0 1.8-.6 3.2-.8 1.6-1.8 1.6-.9 0-1.7-1.6-.7-1.4-.7-3.2 0-1.15.3-1.95l.1.25.6.35" fill="#252016" fill-rule="evenodd" transform="translate(-187.75 -118.55)"/><path d="M256.35 172.65q9.4 3.5 18.45 12.2l1.25 1.2q3.45 3.5 5.9 7.7l1.05 1.9q2.8 5.9 3.65 12.55l.2 1.9q.35 4-.2 7.65-1.55 9.25-8.55 16.55-9.75 9.75-24.35 9.4-14.8-.3-24.6-10.1-5.4-5.75-6.6-13.75-.5-3.3-.15-6.8.15-3.3.85-6.8l.85-3.3.55-2.6q2.1-6.6 4.85-11.85 3.15-5.55 7.15-9.6 8.9-9.2 18.3-6.6.7 0 1.4.35" fill="#78f5f5" fill-opacity=".2" fill-rule="evenodd" transform="translate(-187.75 -118.55)"/><path d="M68.6 54.1q9.4 3.5 18.45 12.2l1.25 1.2q3.45 3.5 5.9 7.7l1.05 1.9q2.8 5.9 3.65 12.55l.2 1.9q.35 4-.2 7.65-1.55 9.25-8.55 16.55-9.75 9.75-24.35 9.4-14.8-.3-24.6-10.1-5.4-5.75-6.6-13.75-.5-3.3-.15-6.8.15-3.3.85-6.8l.85-3.3.55-2.6q2.1-6.6 4.85-11.85 3.15-5.55 7.15-9.6 8.9-9.2 18.3-6.6.7 0 1.4.35z" fill="none" stroke="#e4fdfd" stroke-linecap="round" stroke-linejoin="round" stroke-opacity=".2" stroke-width=".05"/><path d="M235.8 221.3q2.65-1.6 5.9-2.2 7.95 3.05 7.3 16.05l-.8 1.25q-9.75 12.8-19.55 17.9-4.45 2.45-4.9-4.3v-2.2q1.05-20.8 11.85-26.5h.2" fill="#78f5f5" fill-opacity=".2" fill-rule="evenodd" transform="translate(-187.75 -118.55)"/><path d="M48.05 102.75q2.65-1.6 5.9-2.2 7.95 3.05 7.3 16.05l-.8 1.25q-9.75 12.8-19.55 17.9-4.45 2.45-4.9-4.3v-2.2q1.05-20.8 11.85-26.5" fill="none" stroke="#e4fdfd" stroke-linecap="round" stroke-linejoin="round" stroke-opacity=".2" stroke-width=".05"/><path d="M226.2 246.85q8.15-3.7 13.55-14.3-2.25-7.4-5.1-5.85 1.85-1.15 4.1-1.55 5.6 2.15 5.15 11.25l-.55.9q-6.85 8.95-13.7 12.55-3.15 1.7-3.45-3" fill="#c2a561" fill-rule="evenodd" transform="translate(-187.75 -118.55)"/><path d="M234.65 226.7q2.85-1.55 5.1 5.85-5.4 10.6-13.55 14.3v-1.6q.7-14.55 8.3-18.55h.15" fill="#d5bf91" fill-rule="evenodd" transform="translate(-187.75 -118.55)"/><path d="m243.35 237.3.55-.9q.45-9.1-5.15-11.25.45-.55 2.6 0 5.4 2.15 5 11.25l-3 .9" fill="#7a6130" fill-opacity=".502" fill-rule="evenodd" transform="translate(-187.75 -118.55)"/><path d="M38.45 128.3q.3 4.7 3.45 3 6.85-3.6 13.7-12.55l.55-.9q.45-9.1-5.15-11.25-2.25.4-4.1 1.55m-.15 0q-7.6 4-8.3 18.55v1.6z" fill="none" stroke="#000" stroke-linecap="round" stroke-linejoin="round" stroke-opacity=".302" stroke-width=".05"/><path d="M296.6 138.15q-1.2-2.6-4.1-4.25-2.9-1.5-5.5-1.5-2.85.25-4.25 2.45-1.2 1.95.15 4.65.95 2.6 4 4.15 2.7 1.75 5.75 1.6 2.75-.55 3.95-2.3 1.4-2.2 0-4.8M298 145q-1.4 2.6-5.1 3.15-3.55.15-7.1-1.9-3.6-2.05-4.95-5.25-1.8-3.4-.15-6 1.5-2.6 5.2-2.9 3.45-.1 7 1.95 3.55 1.9 5.2 5.35 1.4 3.15-.1 5.6" fill="#d9ceb7" fill-rule="evenodd" transform="translate(-187.75 -118.55)"/><path d="M296.6 138.15q1.4 2.6 0 4.8-1.2 1.75-3.95 2.3-3.05.15-5.75-1.6-3.05-1.55-4-4.15-1.35-2.7-.15-4.65 1.4-2.2 4.25-2.45 2.6 0 5.5 1.5 2.9 1.65 4.1 4.25" fill="#ede8de" fill-rule="evenodd" transform="translate(-187.75 -118.55)"/><path d="M242.3 126.55q-10.85 1.95-17.3 6.25-5.9 4.6-3.8 8.85.5 1.4 7.6.15l13.5-1.35q29.65-3.25 29.3-7.55-.3-4.4-9.35-6.3-9.1-1.85-19.95-.05m-34.1 19q8.9-10.4 23.25-16.3 22.7-9.4 50.05 3.95 8.9 4.25 15.3 8.05-85.65 38.8-88.6 4.3" fill="#a00101" fill-rule="evenodd" transform="translate(-187.75 -118.55)"/><path d="M307.2 148.4q-65.25 42.7-113.15 29 1.15-7.5 5.9-18.6 3.15-7.5 8.25-13.25 2.95 34.5 88.6-4.3v.1q5.3 3.45 10.4 7.05" fill="#850101" fill-rule="evenodd" transform="translate(-187.75 -118.55)"/><path d="M313.15 156v1.55q0 6.6-11.9 14.6-14.5 10.2-38.7 17.05-24.35 6.6-44.15 5.9-17.6-.6-22.55-6.8-.65-.7-1-1.65-1.65-3.45-.8-9.25 47.9 13.7 113.15-29 3.8 3.1 5.1 5.85l.85 1.75" fill="#750101" fill-rule="evenodd" transform="translate(-187.75 -118.55)"/><path d="M195.85 188.3q4.95 6.2 22.55 6.8 19.8.7 44.15-5.9 24.2-6.85 38.7-17.05 11.9-8 11.9-14.6V156l.65 1.05.15.45q3.8 7.9-10.85 18-14.85 10.2-39.2 16.95-24.25 6.7-43.85 6.05-19.75-.7-23.55-8.45l-.65-1.75" fill="#55482b" fill-rule="evenodd" transform="translate(-187.75 -118.55)"/><path d="M242.3 126.55q10.85-1.8 19.95.05 9.05 1.9 9.35 6.3.35 4.3-29.3 7.55l-13.5 1.35q-7.1 1.25-7.6-.15-2.1-4.25 3.8-8.85 6.45-4.3 17.3-6.25" fill="#ca0202" fill-rule="evenodd" transform="translate(-187.75 -118.55)"/><path d="m8.1 69.75.65 1.75q3.8 7.75 23.55 8.45 19.6.65 43.85-6.05 24.35-6.75 39.2-16.95 14.65-10.1 10.85-18l-.15-.45-.65-1.05" fill="none" stroke="#000" stroke-linecap="round" stroke-linejoin="round" stroke-opacity=".302" stroke-width=".05"/><path d="M200.4 194.15q3.7 1.65 9.75 2.2 5.75.7 12.45-1.9l22.2-9.9 1.8-1.5q1.2 1.4 2.7 2.35 11.1 8.1 24.95-2.9l-4.8 6.3-1.2 1.4 1.2-1.4 4.8-6.3 2.9-4.9q3.55-7 6.15-15.65l.55-2.6 2.6-1.5q-1.35 13.3-9.45 26.85-.4 2.5.55 3.45 1.65 1.75 7.15-.45 4.35-1.75 11.35-6.15 3.15-2.6 5.9-5.6 8.5-8.8 11.5-18.65v.15q-.8 12.75-12.35 22.75-3.15 3.8 3.45 1.35l-4.5 3.3-2.75 2.05-6.3 3.55q-4.8 1.4-4.7-1.9l-2.05 1.1q-16 7.4-16 .55l-1.65 1.5q-9.45 6.7-20.15 1.35l-.15.15-1.5-8.65 1.5 8.65q-6.3 5.6-15.9 5.75-3.85 1.95-9.15 1.4l-9.9-1.8q-7.55-2.05-10.95-4.4m85.9-5.6 1.65-1.1q4.4-2.9 8.1-5.9-3.7 3-8.1 5.9l-1.65 1.1m-63.7 5.9q3.15 2.6 7.8 4.5-4.65-1.9-7.8-4.5" fill="#99824d" fill-rule="evenodd" transform="translate(-187.75 -118.55)"/><path d="M291 190.45q-9.45 4.8-18.4 5.5-6.4 3.55-14.9 2.45l-3.85 1.4q-3.7 1.35-6.45-.45l-2.35 1.55-2.05.65-1.65.15h-.8l-2.75-.4-.15.15-.25-.15-16.15-.95q5.3.55 9.15-1.4 3 1.4 7 2.35-4-.95-7-2.35 9.6-.15 15.9-5.75l.15-.15q10.7 5.35 20.15-1.35l1.65-1.5q0 6.85 16-.55l2.05-1.1q-.1 3.3 4.7 1.9m-43.6 8.9-1.1-6.15 1.1 6.15m25.2-3.4q6.3-3 11.65-6.3-5.35 3.3-11.65 6.3m-6-4.25q-4 4.1-8.9 6.7 4.9-2.6 8.9-6.7" fill="#73613a" fill-rule="evenodd" transform="translate(-187.75 -118.55)"/><path d="M246.6 183.05q1.2-1.35 2.7-2.3 5.25-4.55 9.9-7.7 6.55-4.65 12.05-7.1 5.5-2.6 12.6-6.6l-.55 2.6q-9.6 2.75-19.75 9.35l-.4.65q-1.75 4.55.3 8.5 6.55 3.15 13.7-2.85l-2.9 4.9q-13.85 11-24.95 2.9-1.5-.95-2.7-2.35m39.85-25.2q14-8.65 19.05-6.7 5.5 2.3 7.95 5.9l1.65 1.35q.7 8.2-6.15 15.5-1.25 2.45 1.35 2.6l-5.75 5.05q-6.6 2.45-3.45-1.35 11.55-10 12.35-22.75v-.15q-8.1-8.9-13.55-1.5-3.55 9.85-9.05 16.45-4.8 6.7 11.1 3.7-2.75 3-5.9 5.6-7 4.4-11.35 6.15-5.5 2.2-7.15.45-.95-.95-.55-3.45 8.1-13.55 9.45-26.85m27-.8v.25-.25" fill="#b39b66" fill-rule="evenodd" transform="translate(-187.75 -118.55)"/><path d="M315.1 158.4q2.75 2.75 1.25 8.9-1.1 4-6.05 9.2-2.6-.15-1.35-2.6 6.85-7.3 6.15-15.5m-37.95 19.2q-7.15 6-13.7 2.85-2.05-3.95-.3-8.5l.4-.65q10.15-6.6 19.75-9.35-2.6 8.65-6.15 15.65m24.8-1.65q-15.9 3-11.1-3.7 5.5-6.6 9.05-16.45 5.45-7.4 13.55 1.5-3 9.85-11.5 18.65" fill="#c0ad83" fill-rule="evenodd" transform="translate(-187.75 -118.55)"/><path d="M10.2 72.75q.25 1.1 1.65 2.3.25.3.8.55 3.7 1.65 9.75 2.2 5.75.7 12.45-1.9l22.2-9.9 1.8-1.5q1.2-1.35 2.7-2.3 5.25-4.55 9.9-7.7Q78 49.85 83.5 47.4q5.5-2.6 12.6-6.6l2.6-1.5q14-8.65 19.05-6.7 5.5 2.3 7.95 5.9l1.65 1.35q2.75 2.75 1.25 8.9-1.1 4-6.05 9.2L116.8 63l-4.5 3.3-2.75 2.05-6.3 3.55q-9.45 4.8-18.4 5.5-6.4 3.55-14.9 2.45l-3.85 1.4q-3.7 1.35-6.45-.45l-2.35 1.55-2.05.65-1.65.15h-.8l-2.9-.25-.25-.15-16.15-.95-9.9-1.8q-7.55-2.05-10.95-4.4m82.9-32.2.55-2.6M58.55 74.65 57.05 66m1.5 8.65 1.1 6.15m19.2-7.65 1.65-1.5 1.2-1.4 4.8-6.3 2.9-4.9q3.55-7 6.15-15.65M108.3 63q3.15-2.6 5.9-5.6m11.5-18.65v-.25M108.3 63q-3.7 3-8.1 5.9L98.55 70l-2.05 1.1q-5.35 3.3-11.65 6.3m40.85-38.65q-3 9.85-11.5 18.65M49.65 82.75q-4-.95-7-2.35-4.65-1.9-7.8-4.5m35.1 3.95q4.9-2.6 8.9-6.7" fill="none" stroke="#000" stroke-linecap="round" stroke-linejoin="round" stroke-opacity=".2" stroke-width=".05"/><path d="M202.6 165.3q2.9.8 4.25 4.1 1.1 3.4 0 7.4-.95 3.95-3.7 6.15-2.9 2.45-5.75 1.65-2.9-.8-4.1-4.25-1.1-3.3-.15-7.25 1.1-4 3.85-6.3 2.7-2.35 5.6-1.5m-9.45 8.2q-.7 3.15.15 5.75.95 2.75 3.25 3.45 2.35.65 4.7-1.4 2.15-1.65 2.85-4.9.95-3.15 0-5.9-1.1-2.6-3.3-3.3-2.3-.7-4.5 1.25-2.2 1.9-3.15 5.05" fill="#d9ceb7" fill-rule="evenodd" transform="translate(-187.75 -118.55)"/><path d="M193.15 173.5q.95-3.15 3.15-5.05 2.2-1.95 4.5-1.25 2.2.7 3.3 3.3.95 2.75 0 5.9-.7 3.25-2.85 4.9-2.35 2.05-4.7 1.4-2.3-.7-3.25-3.45-.85-2.6-.15-5.75" fill="#ede8de" fill-rule="evenodd" transform="translate(-187.75 -118.55)"/><path d="M216.85 136.35q-3.55-.1-6.7 1.95-2.9 2.2-4.1 5.45-1.25 3.3.25 6.05 1.65 2.6 5.2 2.85 3.15.45 6.15-2.05 3.3-1.9 4.4-5.45 1.1-3.3-.4-5.9t-4.8-2.9m7.95 2.6q1.8 3.45.55 7.7-1.5 4.1-5.5 6.85-3.8 2.85-7.95 2.3-4.25-.25-6.3-3.4-1.9-3.45-.4-7.7 1.5-3.95 5.2-6.85 4-2.7 8.1-2.45 4.25.4 6.3 3.55" fill="#d9ceb7" fill-rule="evenodd" transform="translate(-187.75 -118.55)"/><path d="M216.85 136.35q3.3.3 4.8 2.9t.4 5.9q-1.1 3.55-4.4 5.45-3 2.5-6.15 2.05-3.55-.25-5.2-2.85-1.5-2.75-.25-6.05 1.2-3.25 4.1-5.45 3.15-2.05 6.7-1.95M233.3 164.85q1.1-3.7 4.1-5.6 3.15-1.9 6.45-1.1 3.45 1.25 5.05 4.65 1.4 3.6.45 7.3-1.25 3.7-4.4 5.6-3 2.05-6.3.7-3.45-.85-5.1-4.25-1.5-3.6-.25-7.3" fill="#ede8de" fill-rule="evenodd" transform="translate(-187.75 -118.55)"/><path d="M233.3 164.85q-1.25 3.7.25 7.3 1.65 3.4 5.1 4.25 3.3 1.35 6.3-.7 3.15-1.9 4.4-5.6.95-3.7-.45-7.3-1.6-3.4-5.05-4.65-3.3-.8-6.45 1.1-3 1.9-4.1 5.6m-2.9.7q1.55-4.5 5.25-7.1 3.95-2.35 8.05-1.1 4.25 1.35 6.3 5.6 1.8 4.5.55 9.2-1.5 4.65-5.45 6.95-3.85 2.6-7.95 1.1-4.25-1.2-6.3-5.45-1.95-4.4-.45-9.2M258.1 129.1q-.95 2.75-4.4 4.5-3.55 2.1-7.8 1.95-4.4 0-7-1.95-2.6-2.05-1.75-4.75.95-2.5 4.25-4.7 3.55-1.75 7.95-1.75 4.25 0 6.95 1.75 2.35 2.2 1.8 4.95m-1.5-.8q.4-2.35-1.5-4-2.05-1.5-5.65-1.65-3.4.15-6.15 1.8-2.75 1.5-3.3 3.55-.65 2.2 1.25 3.85 2.05 1.65 5.75 1.35 3.3.3 6.05-1.35 2.85-1.5 3.55-3.55" fill="#d9ceb7" fill-rule="evenodd" transform="translate(-187.75 -118.55)"/><path d="M256.6 128.3q-.7 2.05-3.55 3.55-2.75 1.65-6.05 1.35-3.7.3-5.75-1.35-1.9-1.65-1.25-3.85.55-2.05 3.3-3.55 2.75-1.65 6.15-1.8 3.6.15 5.65 1.65 1.9 1.65 1.5 4" fill="#ede8de" fill-rule="evenodd" transform="translate(-187.75 -118.55)"/><path d="M270 140.9q-1.2 2.6.3 5.2 1.65 2.6 5.05 3.55l6.3.15q3.15-1.25 4.4-3.7.95-2.75-.4-5.35-1.65-2.45-5.05-3.7-3.3-.95-6.45.15-3.05 1.2-4.15 3.7m-2.85.25q1.5-3.15 5.2-4.65 4-1.35 8.1 0 4.25 1.35 6.3 4.5 1.75 3.3.55 6.75-1.5 3-5.5 4.35-3.85 1.55-7.95.15-4.25-1.35-6.3-4.5-1.9-3.45-.4-6.6" fill="#d9ceb7" fill-rule="evenodd" transform="translate(-187.75 -118.55)"/><path d="M270 140.9q1.1-2.5 4.15-3.7 3.15-1.1 6.45-.15 3.4 1.25 5.05 3.7 1.35 2.6.4 5.35-1.25 2.45-4.4 3.7l-6.3-.15q-3.4-.95-5.05-3.55-1.5-2.6-.3-5.2" fill="#ede8de" fill-rule="evenodd" transform="translate(-187.75 -118.55)"/><path d="m195.65 199.7-2.05-1.5-1.75-1.75-1.1-1.8-.75-1.95-1.1-1.8q-1.75-4.05-.8-10.7 1.25-8.6 6.45-21.1 3.45-8.45 9.15-15.1 9.75-11.85 25.65-18.5 25-10.55 55.1 4.55 9.9 4.7 17 9.1v.15l11.3 7.95q4.25 3.55 5.7 6.8l.95 1.8.6 1.3.15.3q.8.5 1.45 1.3 3 3.1 1.25 10.1-1.1 4.55-6.6 10.4-2.7 2.9-6.3 5.8l-5.05 3.75-3 2.3-6.9 4.05q-10.55 5.5-20.35 6.3-7.05 4.1-16.5 2.8l-4.1 1.6q-4.1 1.45-7.25-.5l-2.5 1.65-2.2.8-1.9.15h-.95l-3-.5-.15.2-.3-.2-17.8-1.1-10.85-1.95q-7.9-2.3-11.65-4.7h.15" fill="#78f5f5" fill-opacity=".2" fill-rule="evenodd" transform="translate(-187.75 -118.55)"/><path d="m195.5 199.7-.5-.35.65.35h-.15" fill-rule="evenodd" transform="translate(-187.75 -118.55)"/><path d="m7.9 81.15-2.05-1.5L4.1 77.9 3 76.1l-.75-1.95-1.1-1.8Q-.6 68.3.35 61.65q1.25-8.6 6.45-21.1 3.45-8.45 9.15-15.1Q25.7 13.6 41.6 6.95q25-10.55 55.1 4.55 9.9 4.7 17 9.1v.15L125 28.7q4.25 3.55 5.7 6.8l.95 1.8.6 1.3.15.3q.8.5 1.45 1.3 3 3.1 1.25 10.1-1.1 4.55-6.6 10.4-2.7 2.9-6.3 5.8l-5.05 3.75-3 2.3-6.9 4.05Q96.7 82.1 86.9 82.9q-7.05 4.1-16.5 2.8l-4.1 1.6q-4.1 1.45-7.25-.5l-2.5 1.65-2.2.8-1.9.15h-.95l-3-.5-.15.2-.3-.2-17.8-1.1-10.85-1.95q-7.9-2.3-11.65-4.7m.15 0h-.15" fill="none" stroke="#e4fdfd" stroke-linecap="round" stroke-linejoin="round" stroke-opacity=".2" stroke-width=".05"/><path d="M278.75 132.45q.15-.6.45-1 1.85-3.25 6.4-3.7 4.3-.15 8.75 2.65 4.55 2.35 6.7 6.75 1.55 4-.3 7.25-.15.15-.15.45l-5.85-4.15q-8.85-5.9-16-8.25" fill="#78f5f5" fill-opacity=".2" fill-rule="evenodd" transform="translate(-187.75 -118.55)"/><path d="M91 13.9q.15-.6.45-1 1.85-3.25 6.4-3.7 4.3-.15 8.75 2.65 4.55 2.35 6.7 6.75 1.55 4-.3 7.25-.15.15-.15.45" fill="none" stroke="#e4fdfd" stroke-linecap="round" stroke-linejoin="round" stroke-opacity=".2" stroke-width=".05"/><path d="M227.1 137.45q2.4 4.4.7 10-1.85 5.3-6.85 8.7-4.7 3.65-9.85 2.95-5.3-.3-7.85-4.3-2.45-4.4-.45-9.85 1.75-5.15 6.3-8.7 5-3.65 10.3-3.4 5.25.6 7.7 4.6" fill="#78f5f5" fill-opacity=".2" fill-rule="evenodd" transform="translate(-187.75 -118.55)"/><path d="M39.35 18.9q2.4 4.4.7 10-1.85 5.3-6.85 8.7-4.7 3.65-9.85 2.95-5.3-.3-7.85-4.3-2.45-4.4-.45-9.85 1.75-5.15 6.3-8.7 5-3.65 10.3-3.4 5.25.6 7.7 4.6z" fill="none" stroke="#e4fdfd" stroke-linecap="round" stroke-linejoin="round" stroke-opacity=".2" stroke-width=".05"/><path d="M234.35 126.8q1.15-3.1 5.3-5.9 4.4-2.35 10-2.35 5.25 0 8.7 2.35 2.85 2.8 2.15 6.15-1 3.55-5.3 5.9-4.55 2.65-9.85 2.35-5.55 0-8.7-2.35-3.3-2.8-2.3-6.15" fill="#78f5f5" fill-opacity=".2" fill-rule="evenodd" transform="translate(-187.75 -118.55)"/><path d="M46.6 8.25q1.15-3.1 5.3-5.9Q56.3 0 61.9 0q5.25 0 8.7 2.35 2.85 2.8 2.15 6.15-1 3.55-5.3 5.9-4.55 2.65-9.85 2.35-5.55 0-8.7-2.35-3.3-2.8-2.3-6.15z" fill="none" stroke="#e4fdfd" stroke-linecap="round" stroke-linejoin="round" stroke-opacity=".2" stroke-width=".05"/><path d="M289.9 140.7q2.15 4.25.7 8.65-2 3.85-6.95 5.45-4.6 2.1-9.75.15-5.4-1.6-7.85-5.6-2.55-4.4-.55-8.5 1.7-4 6.4-6.05 5-1.75 10.15 0 5.3 1.9 7.85 5.9" fill="#78f5f5" fill-opacity=".2" fill-rule="evenodd" transform="translate(-187.75 -118.55)"/><path d="M102.15 22.15q2.15 4.25.7 8.65-2 3.85-6.95 5.45-4.6 2.1-9.75.15-5.4-1.6-7.85-5.6-2.55-4.4-.55-8.5 1.7-4 6.4-6.05 5-1.75 10.15 0 5.3 1.9 7.85 5.9z" fill="none" stroke="#e4fdfd" stroke-linecap="round" stroke-linejoin="round" stroke-opacity=".2" stroke-width=".05"/><path d="M227.65 165.6q2-5.6 6.55-9 5-3.1 10.15-1.45 5.25 1.6 7.85 7.2 2.1 5.9.7 11.9-2 5.9-6.85 9-4.85 3.25-10 1.35-5.15-1.5-7.85-7.1-2.3-5.6-.55-11.9" fill="#78f5f5" fill-opacity=".2" fill-rule="evenodd" transform="translate(-187.75 -118.55)"/><path d="M39.9 47.05q2-5.6 6.55-9 5-3.1 10.15-1.45 5.25 1.6 7.85 7.2 2.1 5.9.7 11.9-2 5.9-6.85 9-4.85 3.25-10 1.35-5.15-1.5-7.85-7.1-2.3-5.6-.55-11.9z" fill="none" stroke="#e4fdfd" stroke-linecap="round" stroke-linejoin="round" stroke-opacity=".2" stroke-width=".05"/><path d="M208.05 168.9q1.45 4.4 0 9.55-1 5.15-4.55 7.8-3.55 3.4-7.15 2.2-3.55-1-5.1-5.4-1.3-4.3-.15-9.45 1.4-5.15 4.7-8.1 3.4-2.8 7.15-1.75 3.55.85 5.1 5.15" fill="#78f5f5" fill-opacity=".2" fill-rule="evenodd" transform="translate(-187.75 -118.55)"/><path d="M20.3 50.35q1.45 4.4 0 9.55-1 5.15-4.55 7.8-3.55 3.4-7.15 2.2-3.55-1-5.1-5.4-1.3-4.3-.15-9.45 1.4-5.15 4.7-8.1 3.4-2.8 7.15-1.75 3.55.85 5.1 5.15z" fill="none" stroke="#e4fdfd" stroke-linecap="round" stroke-linejoin="round" stroke-opacity=".2" stroke-width=".05"/></g></defs></svg>