<svg viewBox="0 0 14.235 17.905" xmlns="http://www.w3.org/2000/svg" xmlns:xlink="http://www.w3.org/1999/xlink"><use transform="translate(.019 .034)" width="14.25" height="18.7" xlink:href="#a"/><defs><g id="b" transform="translate(4.45 11)"><use transform="translate(2.7 -4.5)" width="3.4" height="3.35" xlink:href="#c"/><use transform="matrix(-.1299 -.3375 -.4678 -.1227 4.208 2.827)" width="8.95" height="5.3" xlink:href="#d"/><use transform="matrix(.352 .0635 -.0753 .4176 -4.06 -2.697)" width="8.95" height="5.3" xlink:href="#d"/><use transform="translate(-3.45 -11)" width="7.65" height="11.45" xlink:href="#e"/></g><g id="c"><path d="M2.8-2.85q0-.65.5-1.1.4-.45 1.1-.45.65 0 1.1.45l.5 1-.4.3q-.55.35-1.25.35-.75 0-1.25-.35l-.3-.2" fill="#fffff1" fill-rule="evenodd" transform="translate(-2.7 4.5)"/><path d="m2.8-2.85.3.2q.5.35 1.25.35.7 0 1.25-.35l.4-.3v.15q-.05.65-.5 1.1t-1.1.45q-.7 0-1.1-.45-.5-.45-.5-1.1v-.05" fill="#ffffed" fill-rule="evenodd" transform="translate(-2.7 4.5)"/><path d="m3.3 1.55-.5-1Q2.35.1 1.7.1 1 .1.6.55.1 1 .1 1.65m3.2-.1v.15q-.05.65-.5 1.1t-1.1.45Q1 3.25.6 2.8.1 2.35.1 1.7v-.05" fill="none" stroke="#bbdeb5" stroke-linecap="round" stroke-linejoin="round" stroke-width=".25"/></g><g id="e" transform="translate(3.85 5.7)"><use transform="translate(.7 2.85)" width=".05" height="0" xlink:href="#f"/><use transform="translate(-3.75 -5.6)" width="7.45" height="11.25" xlink:href="#g"/><use transform="translate(-3.85 -5.7)" width="7.65" height="11.45" xlink:href="#h"/></g><g id="h"><path d="m3.55 6.2-.05.6M2.15 5.6l-.1.65" fill="none" stroke="#648461" stroke-linecap="round" stroke-linejoin="round" stroke-width=".25"/><path d="m.7 2.85-.55.85-.45-1.15 1 .3M-1.75 2l-.5.95-.5-1.3 1 .35" fill="#fffff1" fill-rule="evenodd" transform="translate(3.85 5.7)"/><path d="m2.95-4.35.5 2.8.25 5q.1.85-.65 1.5l-.9.7-2.1-.15-2.85-1.2q-.75-.3-.95-2.55L-2.4 3.4q.7.8 3 .8h1.2l1.15-2.4v-6.15" fill="#2e1700" fill-opacity=".302" fill-rule="evenodd" transform="translate(3.85 5.7)"/><path d="m6.8 1.35.5 2.8.25 5q.1.85-.65 1.5l-.9.7-2.1-.15L1.05 10Q.3 9.7.1 7.45M3.15.1l-.2 3.1q1.15.3 1.85.9" fill="none" stroke="#648461" stroke-linecap="round" stroke-linejoin="round" stroke-width=".25"/></g><path d="M.15-1.85q1.45-.7 2.4.9T.8 1.6L-3.55 3l-2.4.05Q-6.75 2.6-4 .7-1.3-1.2.15-1.85" fill="#648461" fill-rule="evenodd" transform="translate(6.15 2.05)" id="d"/><path d="M.7 2.85h.05H.7" fill="#ffedbf" fill-rule="evenodd" transform="translate(-.7 -2.85)" id="f"/><path d="m2.95-4.4.5 2.8.25 5q.1.85-.65 1.5l-.9.7-2.1-.15-2.85-1.2q-.75-.3-.95-2.55.25-2.3 1.05-4.1l1.4-2.75.6-.5-.2 3.1q1.15.3 1.85.9.9-1.65 2-2.75M.7 2.85h.05l-1.05-.3.45 1.15.55-.85m-2.95.1.5-.95-1-.35.5 1.3" fill="#f7ffdc" fill-rule="evenodd" transform="translate(3.75 5.65)" id="i"/><use transform="matrix(-1.35 0 0 1.35 14.258 0)" width="10.55" height="13.85" xlink:href="#b" id="a"/><use width="7.45" height="11.25" xlink:href="#i" id="g"/></defs></svg>