<svg viewBox="0 0 50.387 63.252" xmlns="http://www.w3.org/2000/svg" xmlns:xlink="http://www.w3.org/1999/xlink"><g transform="translate(-249.77 -168.35)"><use transform="translate(249.75 168.35)" width="50.4" height="63.25" xlink:href="#a"/><use transform="translate(254.9 202.9)" width="40.45" height="23.5" xlink:href="#b"/></g><defs><g id="a"><path d="m1.35-2.9 1.1-2.9 5.75-.85.65-1.4 1.45 1-.7.1-.35 1.05L2.8-4.45l-.2 1.5L15.05.2 21.2 3l-8.55-8.5L20.9 0l1.85 4 .3 2.85-.75.5-.1.55-.35.3-.2.5L1.6 4.3l-.3.15-.5-.05.55-7.3m-1.9.25L-3.2 4.2l-18.65 2.75.25-3.25L-9.05-9.15l7.4 3.4 2.2 1.3-1.1 1.8m-.75-28q3.5-.65 6.2 4 2.7 4.7 3 12.8l-.05 1.9-1.45 1q-8.2 3.45-15.45-1.4-.3-6.45 2-12.05Q-4.8-30-1.3-30.65M-20.25 3.4l.25-.05-.25-.45v.5M-8-12.7l.25.1.1-.2-.05-.25-.45.25.15.1m14.8-1.4-14.5 1.05L6.8-14.1M-2.1-2.3h-.05.05M-20 3.35-2.15-2.3-20 3.35M1.85 2.9h.45L2 2.3l-.15.6M5.25-12l-12.9-.8 12.9.8M-20.3 5.45l-.15-1.25-.25 1.3.4-.05" fill="#2663be" fill-opacity=".502" fill-rule="evenodd" transform="translate(25.2 31.6)"/><path d="m-.4 4.3.15-.05q9.5 3.75 19.9 4.9l.3.1.15.15.6.7-.35.25q-7.9 5.4-17.15 7.95l-2.8-.05q-10.7-3.7-20.75-9.1l-.55.3-.05-.05q1.65-2.55 5.3-3.15L-.4 4.3m0 2.95q.15 4.25.15 8.45 0-4.2-.15-8.45m.15 8.45-.2.8.2.05v-.85m-18.7-6.8.15.05.05-.1-.2.05" fill="#3747bb" fill-opacity=".502" fill-rule="evenodd" transform="translate(25.2 31.6)"/><path d="m20.35 10.35-1.75 4.9-1.75 7.1-.75.3v.05l-.45.25q-1.3.95-2.8 1.5Q6.45 26.65.25 29l-.1.2-1.95-.3q-5.55-1.15-9.9-4.85l-9.2-14.6.55-.3q10.05 5.4 20.75 9.1l2.8.05q9.25-2.55 17.15-7.95m-30.5 13.15 20.2-.9.65.25-.65-.25-20.2.9" fill="#193197" fill-opacity=".502" fill-rule="evenodd" transform="translate(25.2 31.6)"/><path d="m27.8 28.65 12.45 3.15 6.15 2.8m-19.85-5.9-1.9.25M3.6 35.3l-.85.25m10.75 20.1-2.65.9m31.9.5-1.9-.75m-4.95-1.85-.65-.25-20.2.9M4.95 35l.25-.05M17.55 18.8l-.35.1m-.15-.1.45-.25L32 17.5m-15.85 1.75L15 19.8m8.05 9.5h.05m-.05 0L5.2 34.95m20.7-5.2q-.9 3-1.1 6.15m-7.25-17.1 12.9.8m-5.5 27.7q0-4.2-.15-8.45m.15 8.45v.85M34.7 18.2l-1.6-.45" fill="none" stroke="#2964bf" stroke-linecap="round" stroke-linejoin="round" stroke-width=".05"/><path d="m-12.7-10.05-.95-2.4 1.85.5q-.3.55.2 1.15.5.45 1.25.4 4.15 2.1 8.5 3.6l.25-.1q.25-.15.35-.45-3.45-2.4-7.9-3.5l-.55-.5 10.8 3q-.55.55-.45.8v.45l1.65-.15q1.65-.05 3.35-.65 2-.5 4-1.4-3.75 3.15-8.4 4L.7-5.35Q-6.1-7.05-12.45-10l-.15-.15-.1.05v.05m23.75-.5L9.65-9.3q.8-1.3 1.95-2.2l-.5.85-.05.1m.8-1.4q.05-.65-.75-.65l-.3.3-.4-.15H10l.4-.25 1.95-.15-.5.9m-1.45-.5v-.25.25m2.55 38.5q-.55.5-1.5.9L5.7 29.2l-.1-7-.1-9.4q.75 3.35 2.25 5.8 2.45 4.15 5.2 7.45" fill="#1e56af" fill-opacity=".502" fill-rule="evenodd" transform="translate(25.2 31.6)"/><path d="M6.05-23.35q-1.35-2.9-3.5-5.45l-.45.25q1.05 2.7 1.5 5.4.7 4.7-.55 9.55l-.85.85.4.55.7-.05q2.65-.75 4.85-2.4-.25-4.7-2.1-8.7m-1.55.05.45.45-.3.1-.15-.55m-5.05-5.35.05-.15q.45-.8-.4-1.15l-1.45.75q-1.55.95-2.7 2.55l-.4.7Q-9-20.05-7.9-12.65l7.05 1.55q.35-.3.25-.7-1.95-6.7-1.4-13.45l.35-3 1.1-.4m-12.15 18.6v-.05l.1-.05.15.15Q-6.1-7.05.7-5.35l.55.05q4.65-.85 8.4-4-2 .9-4 1.4-1.7.6-3.35.65L.65-7.1v-.45q-.1-.25.45-.8l-10.8-3-2.1-.6q0-4 .85-7.55.9-3.8 2.5-6.4 3.3-5.3 7.9-5.2 4.55.05 7.8 5.5 3.2 5.4 3.15 12.9l-.7.35.3-.1h.4l.4.15.3-.3q.8 0 .75.65l-.25.45.25-.45-.05.15-.05.2-.15.1q-1.15.9-1.95 2.2l1.4-1.25q7.85 4.75 12.9 12.2 1.1 1.6.6 3.55-2.4 8.75-5.45 17.25l-1.35 3.45L1.4 30.8l-4.35-5.7q-2.8-3.45-6.55-6.35l-6.95-5.55-1.65-1.45q-1.85-1.8-3.15-3.6 1.35 2.15 2.35 4.05l.15.25 4.7 9.6q1.7 3.6 5.45 4.7 3.4.95 5.95 2.9l.9.6-12.4-5.1q-6-9.35-10.3-19.5-.55-1.3.15-2.55 3.25-6.1 8.6-10.6l3-2.55.25.05-.25-.05m13.8 1.7 8.9-4.1-8.9 4.1m-13.6-.3q-2.2 1.2-3.95 3.25-3.4 3.85-5.85 8.3 2.65 1.35 4.9-.45 6.1-5 13.7-6.05l.2-.05q.3-.15.4-.45l-.05-.1Q-8.05-6-12.5-8.65m18.4-1.3-.1.1q-.45.25-.35.7 1.55.7 3.6-.25l2-1.75.1-.2q.15-.8-.75-.8-1.85 1.7-4.5 2.2M2.65-3.2q8.85 4.25 18.4 6.5l.35-.75-9.65-9.4q-.7-.35-1.25-.8-2.75 2.9-6.85 3.75l-.7.15-.3.55M22.4 4.4q-3.9 1.35-8.5 3.05-4.25 1.5-8.4 3.65 1.65 1.1 3.4 1.55 4.05 1.1 4.6 4.3.8 5.05.95 8.65 1.45-1.55 2.3-3.85 1.45-4.25 3.2-8.5Q21.7 8.9 22.4 4.4m-9.45 21.65q-2.75-3.3-5.2-7.45-1.5-2.45-2.25-5.8l.1 9.4.1 7 5.75-2.25q.95-.4 1.5-.9m-21.8-13.9Q-5.7 14.05-4 16.9q1.55 2.6 2.9 5.9 1.45 3.55 3.2 7.1-.85-3.6-1.3-7.25Q.2 18 0 11.95q-1.7-1.75-5.35-2.2-4.4-.5-8.6-1.7l-.6-.15-5.8-2L-23 4.8q.85 1.15 2.3 1.8h.05Q-17.7 7.85-15 9.05l.5.2.2.1q2.75 1.2 5.45 2.8" fill="#2663be" fill-opacity=".502" fill-rule="evenodd" transform="translate(25.2 31.6)"/><path d="M5.9-9.95q2.65-.5 4.5-2.2.9 0 .75.8l-.1.2-2 1.75q-2.05.95-3.6.25-.1-.45.35-.7l.1-.1" fill="#5079d4" fill-opacity=".2" fill-rule="evenodd" transform="translate(25.2 31.6)"/><path d="m-.55-28.65-1.1.4-.35 3Q-2.55-18.5-.6-11.8q.1.4-.25.7l-7.05-1.55q-1.1-7.4 2.45-13.3l.4-.7q1.15-1.6 2.7-2.55l1.45-.75q.85.35.4 1.15l-.05.15m-9.15 17.3.55.5q4.45 1.1 7.9 3.5-.1.3-.35.45l-.25.1q-4.35-1.5-8.5-3.6-.75.05-1.25-.4-.5-.6-.2-1.15l2.1.6m7.95 41.6-.9-.6q-2.55-1.95-5.95-2.9-3.75-1.1-5.45-4.7l-4.7-9.6-.15-.25q-1-1.9-2.35-4.05 1.3 1.8 3.15 3.6l1.65 1.45 6.95 5.55q3.75 2.9 6.55 6.35l4.35 5.7.2.35-1.05-.1-2.3-.8M-12.5-8.65Q-8.05-6-3.15-4.2l.05.1q-.1.3-.4.45l-.2.05q-7.6 1.05-13.7 6.05-2.25 1.8-4.9.45 2.45-4.45 5.85-8.3 1.75-2.05 3.95-3.25m3.65 20.8q-2.7-1.6-5.45-2.8l-.2-.1-.5-.2q-2.7-1.2-5.65-2.45h-.05q-1.45-.65-2.3-1.8l2.65 1.1 5.8 2 .6.15q4.2 1.2 8.6 1.7 3.65.45 5.35 2.2.2 6.05.8 10.7.45 3.65 1.3 7.25-1.75-3.55-3.2-7.1-1.35-3.3-2.9-5.9-1.7-2.85-4.85-4.75m9.4 18.9.85-.25-.85.25" fill="#113e96" fill-opacity=".502" fill-rule="evenodd" transform="translate(25.2 31.6)"/><path d="M3.6-23.15q-.45-2.7-1.5-5.4l.45-.25q2.15 2.55 3.5 5.45l-1.1.5-.45-.45-.9.15" fill="#6584df" fill-opacity=".8" fill-rule="evenodd" transform="translate(25.2 31.6)"/><path d="M6.05-23.35q1.85 4 2.1 8.7-2.2 1.65-4.85 2.4l-.7.05-.4-.55.85-.85q1.25-4.85.55-9.55l.9-.15.15.55.3-.1 1.1-.5M2.65-3.2l.3-.55.7-.15q4.1-.85 6.85-3.75.55.45 1.25.8l9.65 9.4-.35.75Q11.5 1.05 2.65-3.2M22.4 4.4q-.7 4.5-2.45 8.85-1.75 4.25-3.2 8.5-.85 2.3-2.3 3.85-.15-3.6-.95-8.65-.55-3.2-4.6-4.3-1.75-.45-3.4-1.55 4.15-2.15 8.4-3.65 4.6-1.7 8.5-3.05" fill="#6584df" fill-opacity=".502" fill-rule="evenodd" transform="translate(25.2 31.6)"/><path d="M12.5 21.55v-.05m.1-.05.15.15q6.35 2.95 13.15 4.65l.55.05q4.65-.85 8.4-4m-8.55.95-10.8-3m-2.1-.6 2.1.6m-2.75 1.35-.25-.05m23.75-.5-1.4 1.25m1.95-2.2.25-.45m-1.85-.5-8.9 4.1m10.5-3.15-.5.85m-1.1-1.8.4-.25v.25m-9 43.25-.85.25" fill="none" stroke="#2964bf" stroke-linecap="round" stroke-linejoin="round" stroke-width=".05"/><path d="m-11.8-11.95-1.85-.5.95 2.4-3 2.55Q-21.05-3-24.3 3.1q-.7 1.25-.15 2.55 4.3 10.15 10.3 19.5l12.4 5.1m3.15.55 16.35-4.9 1.35-3.45q3.05-8.5 5.45-17.25.5-1.95-.6-3.55-5.05-7.45-12.9-12.2m-22.85-1.4q0-4 .85-7.55.9-3.8 2.5-6.4 3.3-5.3 7.9-5.2 4.55.05 7.8 5.5 3.2 5.4 3.15 12.9l1.95-.15-.5.9M1.4 30.8l.2.35-1.05-.1-2.3-.8" fill="none" stroke="#2964bf" stroke-linecap="round" stroke-linejoin="round" transform="translate(25.2 31.6)"/></g><g id="b"><path d="M276.25 226.4q-2.05.05-4.05-.65l-11.6-4.1-5.7-14.65 1.85-2.4 11.6 2.6q3.85 1 6.6.85-1.15 11.15 1.3 18.35" fill="#dacea5" fill-rule="evenodd" transform="translate(-254.9 -202.9)"/><path d="m274.95 208.05 2.25-.4 16.3-4.75 1.85 3-3.7 15.5-13.2 4.75-2.2.25q-2.45-7.2-1.3-18.35" fill="#e6ddc1" fill-rule="evenodd" transform="translate(-254.9 -202.9)"/><path d="m22.55 2 .45-.15" fill="none" stroke="#54473b" stroke-linecap="round" stroke-linejoin="round" stroke-opacity=".6" stroke-width=".05"/><path d="M273 209.75v-1h3.65v1h1.5v-1h1.9l-.05 2.1-.9 1.4 2.1 11.85h-1l-.45-2.8h-1.5l.1 2.8h-9.6l1.95-11.75-.95-.9v-2.7h1.75v1h1.5m-.9 8 1.2.15.25-3.2-.9.1h-.1l-.45 2.95-.3.2h.25v-.05l.05-.15m5.85-3.6v-.05l-.9.05.65 2.95.85-.25-.6-2.7" fill="#36543a" fill-rule="evenodd" transform="translate(-254.9 -202.9)"/><path d="m272.1 217.75.45-2.95h.1l.9-.1-.25 3.2-1.2-.15m5.85-3.6.6 2.7-.85.25-.65-2.95.9-.05v.05" fill="#e7ed70" fill-rule="evenodd" transform="translate(-254.9 -202.9)"/></g></defs></svg>