<svg viewBox="0 0 78.55 98.753" xmlns="http://www.w3.org/2000/svg" xmlns:xlink="http://www.w3.org/1999/xlink"><g transform="translate(-241.2 -353.6)"><use transform="translate(241.2 354.05)" width="78.55" height="98.3" xlink:href="#a"/><use transform="matrix(.1231 0 0 .1826 269.96 384.59)" width="354" height="177" xlink:href="#b"/><use transform="matrix(.0643 0 0 .0763 270.56 353.6)" width="354" height="177" xlink:href="#b"/><use transform="matrix(.0214 0 0 .0536 294.31 395.55)" width="354" height="177" xlink:href="#b"/><use transform="translate(256.9 426.1)" width="28.25" height="8.6" xlink:href="#c"/><use transform="translate(258.15 390.25)" width="47" height="43.35" xlink:href="#d"/><use transform="translate(256.9 389.2)" width="49.4" height="45.45" xlink:href="#e"/><use transform="translate(263.25 398.95)" width="42.45" height="31.1" xlink:href="#f"/></g><defs><g id="a"><path d="M314.6 439.15q0 5.45-7.75 9.3-7.75 3.9-18.7 3.9t-18.7-3.9q-7.8-3.85-7.75-9.3-.05-5.5 7.75-9.35 7.75-3.9 18.7-3.9t18.7 3.9q7.75 3.85 7.75 9.35" fill-opacity=".302" fill-rule="evenodd" transform="translate(-241.2 -354.05)"/><path d="M312.35 393.1q3 6.7 3.15 14.7-.15 14.2-10.2 24.25-10 10-24.2 10.2-14.4-.2-24.4-10.2-10.05-10.05-10.05-24.25 0-8 3.2-14.7-.5 1.15-.35 2.5 0 6.55 9.2 11.05 9.35 4.5 22.4 4.5t22.2-4.5q9.4-4.5 9.4-11.05 0-1.35-.35-2.5m-41.45 34.1-.15-.15v.3q-.7 1-.7 2.5 0 2.2 1.5 3.7t3.7 1.5q2.15 0 3.65-1.5t1.5-3.7v-.15q0-2-1.5-3.5t-3.65-1.5q-2.2 0-3.7 1.5l-.65 1m18.2 4.35q-.15-1.2-.8-2-.7-.7-1.7-.7-.15-.15-.35 0-1.15-.15-2 .7-.8.8-.8 2l.15.65q0 .7.65 1.35.85.65 2 .85 1.2-.2 2.05-.85.65-.85.8-2m-7.5 4q-.5.5-.5 1.15 0 .5.5 1 .5.55 1.15.55.7 0 1-.55l.7-1q-.2-.65-.7-1.15-.3-.5-1-.5-.65 0-1.15.5" fill="#476f75" fill-rule="evenodd" transform="translate(-241.2 -354.05)"/><path d="m296.3 395.1 2.65.35q2.2 0 3.85-.7 1.7-.65 1.7-3 0-2.15-1.5-3.85-1.7-1.5-3.85-1.5-2.2 0-3.85 1.5-1.5 1.7-1.5 3.85l.15 1q.2 1.5 1.35 2l1 .35m-46.45-2q.8-1.85 1.85-3.35 2.3-2.85 7-5.15 9.35-4.55 22.4-4.55t22.2 4.55q4.7 2.3 7.05 5l2 3.5q.35 1.15.35 2.5 0 6.55-9.4 11.05-9.15 4.5-22.2 4.5t-22.4-4.5q-9.2-4.5-9.2-11.05-.15-1.35.35-2.5m19.55-3q-2.2-2.2-5.35-2-3.2-.2-5.35 2-2.2 2.35-2.2 5.5 0 3 2.05 4.2 2 .8 5.15.8 3.2 0 5.5-.8l.85-.5q1.5-1.35 1.5-3.7 0-2.15-.8-3.65l-1.35-1.85m1.5 37.1.65-1q1.5-1.5 3.7-1.5 2.15 0 3.65 1.5t1.5 3.5v.15q0 2.2-1.5 3.7t-3.65 1.5q-2.2 0-3.7-1.5t-1.5-3.7q0-1.5.7-2.5 0-.15.15-.15m10.7 8.35q.5-.5 1.15-.5.7 0 1 .5.5.5.7 1.15l-.7 1q-.3.55-1 .55-.65 0-1.15-.55-.5-.5-.5-1 0-.65.5-1.15m7.5-4q-.15 1.15-.8 2-.85.65-2.05.85-1.15-.2-2-.85-.65-.65-.65-1.35l-.15-.65q0-1.2.8-2 .85-.85 2-.7.2-.15.35 0 1 0 1.7.7.65.8.8 2" fill="#63a6ba" fill-rule="evenodd" transform="translate(-241.2 -354.05)"/><path d="m296.3 395.1-1-.35q-1.15-.5-1.35-2l-.15-1q0-2.15 1.5-3.85 1.65-1.5 3.85-1.5 2.15 0 3.85 1.5 1.5 1.7 1.5 3.85 0 2.35-1.7 3-1.65.7-3.85.7l-2.65-.35m-26.9-5 1.35 1.85q.8 1.5.8 3.65 0 2.35-1.5 3.7l-.85.5q-2.3.8-5.5.8-3.15 0-5.15-.8-2.05-1.2-2.05-4.2 0-3.15 2.2-5.5 2.15-2.2 5.35-2 3.15-.2 5.35 2" fill="#79b3c4" fill-rule="evenodd" transform="translate(-241.2 -354.05)"/><path d="m312.9 394.4-7.4-10.95-.6-.6-1.15-1.1-1.6-1.3-9.75-5.5Q287.05 373 281 373q-14.2 0-24.25 10.2l-2.4 2.6-7.6 21.6v.05l7.6 21.6 2.4 2.65 1.7 1.6 1.45 1.25 9.8 5.4q5.35 1.95 11.55 1.95 14.05 0 24.25-10 10-10.2 10-24.25 0-7.2-2.6-13.25m-64.4-9.65q1.85-2.85 4.35-5.35 11.5-11.35 27.75-11.35 16 0 27.55 11.35 2.85 2.85 3.2 3.85 3.5 4.7 4.65 7.35 2.2 4.7 3 9.85.5 3.05.5 6.2v.5q0 16.05-11.35 27.6-11.55 11.35-27.55 11.35-16.25 0-27.75-11.35-11.05-11.2-11.4-26.75v-.85l.2-4.65q.5-5.35 2.5-9.9 1.65-4.15 4.35-7.85" fill="#997539" fill-opacity=".502" fill-rule="evenodd" transform="translate(-241.2 -354.05)"/><path d="m254.35 429.05-7.6-21.6v-.05l7.6-21.6 2.4-2.6Q266.8 373 281 373q6.05 0 11.4 1.95l9.75 5.5 1.6 1.3 1.15 1.1.6.6 7.4 10.95q2.35 6 2.35 13 0 14.05-10 24.25-10.2 10-24.25 10-6 0-11.3-1.75l-9.8-5.4-1.45-1.25-1.7-1.6-2.4-2.6" fill="#997539" fill-opacity=".302" fill-rule="evenodd" transform="translate(-241.2 -354.05)"/><path d="M7.3 30.7q-2.7 3.7-4.35 7.85-2 4.55-2.5 9.9l-.2 4.65v.85Q.6 69.5 11.65 80.7q11.5 11.35 27.75 11.35 16 0 27.55-11.35Q78.3 69.15 78.3 53.1v-.5q0-3.15-.5-6.2-.8-5.15-3-9.85-1.15-2.65-4.65-7.35-.35-1-3.2-3.85Q55.4 14 39.4 14q-16.25 0-27.75 11.35-2.5 2.5-4.35 5.35z" fill="none" stroke="#000" stroke-linecap="round" stroke-linejoin="round" stroke-opacity=".302" stroke-width=".5"/><path d="M285.3 354.95q1.35.65 2.2 1.65.85.95 2.75 1.05l2.2.3q-1.3.6-3 .6-2 0-3.3-.7-1.4-.65-1.4-1.7 0-.65.55-1.2m8.85 6.85-2.55 16.85-.05.5-.2.85v.55q-.25 1.2-1.7 2.2l-.45.3 2.5-17.85h-.15l.15-.1.45-.35q1.7-1.3 2-2.95m-19.7 21.9-.75-.3-1.15-.75q-1.5-1.05-1.85-2.3v-.05l-.05-.25-2.55-15.55-.2-.85-.2-1.55.25.75q.6 1.2 2.1 2.25l.65.35.25.15q.15 1.05 1.6 2.8 1.4 1.8 3.2 1.15l.05-.1 1.45 12.6h-.05q-1.05.1-1.85.6-.65.45-.9 1.05" fill="#8a5702" fill-rule="evenodd" transform="translate(-241.2 -354.05)"/><path d="M292.45 357.95q1.4 1.25 1.85 2.9l-.15.95q-.3 1.65-2 2.95l-.45.35-.15.1-.85.45-.4.3-.8.35-2.75-4.5q-2.15-3.4-5.7-3.6l-5.3-.75q-2.15-.6-3.15-1.45 3.5-1.45 8.3-1.45l4.4.4q-.55.55-.55 1.2 0 1.05 1.4 1.7 1.3.7 3.3.7 1.7 0 3-.6m-24.75 4.15-.05-.2-.2-1.2q.3-1.2 1.25-2.2l2.9 1.85 3.35 2.1q-1.45.1-2.6.8-1.45.85-1.45 2.1l.05.25-.25-.15-.65-.35q-1.5-1.05-2.1-2.25l-.25-.75m12.4 4.7.9 1.1h-.1l-2.3-.15h-.05l.5-.2.1-.05.05-.05h.05l.85-.65" fill="#de961e" fill-rule="evenodd" transform="translate(-241.2 -354.05)"/><path d="M281 367.9h.4l.5-.05v1.45l-.35-.55-.55-.85.55.85.35.55v15.3q-1.25-1.5-3.15-2.15l-1.5-.4-1.45-12.6 2.8-1.7 2.3.15h.1m6.65 4.9q.1-1.1.65-1.2l1.15-.5q.75-.4.85.45l.05 1.55-.15 1.85q-.3.9-.85.6l-1.35-1q-.65-.65-.35-1.75" fill="#774b02" fill-rule="evenodd" transform="translate(-241.2 -354.05)"/><path d="m289.2 383.05-.5.35q-2.1.95-4.8 1.3l-.5.05-.25.05h-.6l-.3.1h-1.1l-3.65-.35-3.05-.85q.25-.6.9-1.05.8-.5 1.85-.6h.05l1.5.4q1.9.65 3.15 2.15v-16.75l5.95-.95 1.65-.6.8-.35.4-.3.85-.45h.15l-2.5 17.85m-14.25-20.6.85-.05q2.05-.05 3.45.85 1.45.85 1.45 2.1 0 .75-.6 1.45l-.85.65h-.05l-.05.05-.1.05-.5.2h.05l-2.8 1.7-.05.1q-1.8.65-3.2-1.15-1.45-1.75-1.6-2.8l-.05-.25q0-1.25 1.45-2.1 1.15-.7 2.6-.8m7.5 7.65-.55-.8.55.8m5.2 2.7q-.3 1.1.35 1.75l1.35 1q.55.3.85-.6l.15-1.85-.05-1.55q-.1-.85-.85-.45l-1.15.5q-.55.1-.65 1.2" fill="#6a4302" fill-rule="evenodd" transform="translate(-241.2 -354.05)"/><path d="M272.6 356q1 .85 3.15 1.45l5.3.75q3.55.2 5.7 3.6l2.75 4.5-1.65.6-5.95.95-.5.05h-.4l-.9-1.1q.6-.7.6-1.45 0-1.25-1.45-2.1-1.4-.9-3.45-.85l-.85.05-3.35-2.1-2.9-1.85 1.35-1.15 1.45-.85 1.1-.5" fill="#bb7e1a" fill-rule="evenodd" transform="translate(-241.2 -354.05)"/><path d="M285.3 354.95q1.35.65 2.2 1.65.85.95 2.75 1.05l2.2.3q1.4 1.25 1.85 2.9m-2.7 17.8-.05.5m-.2 1.4q-.25 1.2-1.7 2.2l-.45.3-.5.35q-2.1.95-4.8 1.3l-.5.05-.25.05-.9.1h-1.1l-3.65-.35-3.05-.85-.75-.3-1.15-.75q-1.5-1.05-1.85-2.3m-3.25-19.65q.3-1.2 1.25-2.2m16.6-3.55-4.4-.4q-4.8 0-8.3 1.45l-1.1.5-1.45.85-1.35 1.15M294.3 360.85l-.15.95-2.55 16.85m-.05.5-.2.85v.55m-20.65-.2v-.05m-.05-.25-2.55-15.55m-.2-.85-.2-1.55m-.05-.2-.2-1.2" fill="none" stroke="#000" stroke-linecap="round" stroke-linejoin="round" stroke-opacity=".302" transform="translate(-241.2 -354.05)"/><path d="m26.5 8.05-.05-.2m1.05-3.4-.55-.3m4.45-2.2q1 .85 3.15 1.45l5.3.75q3.55.2 5.7 3.6l2.75 4.5.8-.35.4-.3m1.45-.9q1.7-1.3 2-2.95M27.5 4.45l2.9 1.85 3.35 2.1m5.15 4.35.9 1.1h.4m6.45-1 1.65-.6m2.95-8.35q-1.3.6-3 .6-2 0-3.3-.7-1.4-.65-1.4-1.7 0-.65.55-1.2m-6.7 12.8h-.05m-10.6-4.9-.25-.75m3.25 3.5-.25-.15m10.3 2.45h-.1l-2.3-.15m2.4.15.55.85.35.55.55.8" fill="none" stroke="#000" stroke-linecap="round" stroke-linejoin="round" stroke-opacity=".302" stroke-width=".5"/><path d="M250.25 403.6q-.7-5.5 2.5-10.85 3.15-5.5 8.15-7.85 5.05-2.35 8.9 0 4 2.15 4.5 7.85.5 5.65-1.85 11.85t-7.85 7.85q-5.35 1.5-9.55-.85-4.3-2.5-4.8-8" fill="#fff" fill-opacity=".251" fill-rule="evenodd" transform="translate(-241.2 -354.05)"/><path d="M294.3 380.25q4.5-2.85 10-.2 5.55 2.85 8.9 9.55 3.15 6.65 2.3 13.35-.8 6.7-5.65 9.7t-10.9 1.15q-6.15-2-8.5-9.5-2.5-7.7-1.65-14.55.8-6.85 5.5-9.5" fill-opacity=".153" fill-rule="evenodd" transform="translate(-241.2 -354.05)"/><path d="m294.7 377.05-1.45.8-2.95 1.15-.05.05-5.3 1.05-3.65.2q-3.85 0-7.15-.8l-.45-.05q-1.6-.45-3.05-1.05l-.15-.05-1.15-.5-2.5-1.55q-2.5-2-2.5-4.5 0-3.2 4.15-5.5l.95 4.55v.3l.15 1q.5 1.75 3.25 3.15 3.4 1.7 8.25 1.7l4.05-.35q2.3-.45 4.2-1.35 3-1.6 3.3-3.7l.1-.25.7-5.4q4.75 2.4 4.75 5.85 0 1.4-.75 2.7l-.15.1q-.85 1.25-2.5 2.4l-.1.05" fill="#813a26" fill-opacity=".302" fill-rule="evenodd" transform="translate(-241.2 -354.05)"/><path d="m297.3 374.6.05 1q0 1.05-.75 1.85l-1.8 1.35-.1-1.75.1-.05q1.65-1.15 2.5-2.4m-7.05 4.45q.7 1.85-1.05 2.1l-3.9.6-.5.05-3.1.25-4.35-.05-2.35-.5q-.3-.1-.5-1l-.35-1q3.3.8 7.15.8l3.65-.2 5.3-1.05m-19.6-.65q.05 1.2-.35 1.7l-2.4-1.3q-1.05-.7-1.05-1.7v-.8l2.5 1.55 1.15.5.15.05" fill="#813925" fill-opacity=".502" fill-rule="evenodd" transform="translate(-241.2 -354.05)"/><path d="m268.55 366.35 1 4.7.2 1 .5 1 1 1 .65.5 1 .5 2.15.85q2.7.8 6.2 1l6-.85 2.2-1 1.15-.5.7-.65 1.3-1.5.2-.7.15-.65-.15-.7.65-4.3q4.35 2.15 4.7 5.3v.35q0 3.5-4.85 6l-1.2.5q-.5.2-.8.35-3.2 1.2-7.05 1.5l-2.85.2h-1q-4.3-.2-7.85-1.2l-1.8-.65-.7-.35-.65-.35-1.85-1q-2.85-2-3-4.5-.15-.35 0-.5 0-3.15 4-5.35" fill="#c7bb92" fill-opacity=".502" fill-rule="evenodd" transform="translate(-241.2 -354.05)"/><path d="M298.15 371.35q.5 1.05.5 2.05 0 3.5-5.05 6l-2.3 1q-4.35 1.5-9.9 1.5-6 0-10.5-1.85h-.35l-1.15-.65q-5-2.5-5-6-.2-.7.15-1.2.15 2.5 3 4.5l1.85 1 .65.35.7.35 1.8.65q3.55 1 7.85 1.2h1l2.85-.2q3.85-.3 7.05-1.5.3-.15.8-.35l1.2-.5q4.85-2.5 4.85-6v-.35" fill="#c7bb92" fill-opacity=".8" fill-rule="evenodd" transform="translate(-241.2 -354.05)"/><path d="M291.3 380.4q-.2 1.35-1.7 2.35l-.3.3-.7.35q-2.5 1.2-6.35 1.5h-.3q-.35-.15-.55 0h-.15l-3.65-.3-3.2-.85-.65-.35-1.2-.65q-1.5-1.2-1.65-2.7 4.5 1.85 10.5 1.85 5.55 0 9.9-1.5" fill="#c4b58f" fill-opacity=".302" fill-rule="evenodd" transform="translate(-241.2 -354.05)"/><path d="M56.95 17.3q.5 1.05.5 2.05 0 3.5-5.05 6l-2.3 1q-4.35 1.5-9.9 1.5-6 0-10.5-1.85h-.35l-1.15-.65q-5-2.5-5-6-.2-.7.15-1.2" fill="none" stroke="#000" stroke-linecap="round" stroke-linejoin="round" stroke-opacity=".302" stroke-width=".5"/><path d="M293.45 366.05q4.35 2.15 4.7 5.3m-33.6.85q-.15-.35 0-.5 0-3.15 4-5.35" fill="none" stroke="#000" stroke-linecap="round" stroke-linejoin="round" stroke-opacity=".302" transform="translate(-241.2 -354.05)"/><path d="M301 432.1q0 1.45-5.9 2.5l-14.25 1.05-14.25-1.05q-5.95-1.05-5.9-2.5-.05-1.45 5.9-2.5l14.25-1.05 14.25 1.05q5.9 1.05 5.9 2.5" fill-opacity=".302" fill-rule="evenodd" transform="translate(-241.2 -354.05)"/><path d="M272.45 416.4q-1.05-8.6 3.9-16.95 4.95-8.6 12.75-12.25 7.85-3.65 13.85 0 6.25 3.4 7 12.25.8 8.85-2.85 18.5t-12.25 12.25q-8.35 2.35-14.85-1.3-6.8-3.9-7.55-12.5" fill="#fff" fill-opacity=".251" fill-rule="evenodd" transform="translate(-241.2 -354.05)"/></g><g id="i"><path d="m34.05 4.05 4.25-1.2 2.85-.8q.6-.25.75-.85L46.85 0v8l-11.6-1-1.2-2.95L35.25 7l-6.4 7.85L20.9 6.9 18.75 9v4.6h-8.5V7.25v6.35H9.9L4 18.25l-.15-.05L0 17.25V0l6.65 3.6.15.15q.4.45 1.6.8l-1.9 1.2L0 3.15l10.25 4.1v-2.3l.55.05.35.1 1.95.05 4.35 1 4.25-.3 2.05.05 2.6-.1q.6 8 3.4-.8 2 .75 3.3-.8l1-.15m12.8 14.8v9.4l-13.8-2.3-.05-.05.05.05L33 26v-.1l-.75-5.9-3.05-3.7 17.65 2.55m-29.4-12.7 3.45.75-3.45-.75M8.4 23.6l8.1 1.65.1.3 2.3 6.2-.05.05-.45.35-.15.1-11.05-.7.05-.05L9 24.25l-.6-.65" fill="#ebebeb" fill-opacity=".78" fill-rule="evenodd"/><path d="m35.25 7 11.6 1v10.85L29.2 16.3l-.45-.55.75-.25-.65-.65.65.65-.75.25.45.55 3.05 3.7.75 5.9v.1l-3 5-.5-.5.5.5-11.1.75-2.3-6.2L19.5 19l-.75.25V9l2.15-2.1 7.95 7.95L35.25 7M0 34.6V17.25l3.85.95 4.55 5.4.6.65-1.75 7.25-.05.05L0 34.6M8.4 4.55l1.1.25.75.15v2.3L6.5 5.75l1.9-1.2M19.5 19l9.25-3.25L19.5 19" fill="#dfdfdf" fill-opacity=".78" fill-rule="evenodd"/><path d="M46.85 28.25q.4 6.3-.3 9.15l-.1.1-1.6.65-.2.05-3 1q-.65.25-.95.65l-.7.2-8.15 3.15 3.4-7.2L30 31l3-5 .05-.05 13.8 2.3H41.1h5.75M24 43.15q-8.7 1.4-24-6.4V34.6l7.2-3.05 11.05.7-.1.1L24 43.15m16.85-5.1h.45l3.55.1-3.55-.1h-.45M10.25 13.6h8.5v5.65l.75-.25-2.9 6.55-.1-.3-8.1-1.65-4.55-5.4.15.05 5.9-4.65h.35" fill="#cecece" fill-opacity=".78" fill-rule="evenodd"/><path d="M31.85 43.2H25.3L24 40.05v3.1l-5.85-10.8.1-.1.15-.1.45-.35.05-.05L30 31l5.25 5-3.4 7.2" fill="#d9d9d9" fill-opacity=".78" fill-rule="evenodd"/><path d="M34.05 4.05 35.25 7l11.6 1m-15 35.2H25.3M24 40.05v3.1m-10.9-38 4.35 1m8.9-.35q.6 8 3.4-.8 2 .75 3.3-.8m13.8 24.05H41.1m3.75 9.9-3.55-.1h-.45m-12-23.2.65.65-.75.25.45.55 17.65 2.55M20.9 6.9l7.95 7.95L35.25 7m-6.05 9.3 3.05 3.7.75 5.9.05.05 13.8 2.3m-36.6-23.3v8.65h8.5V9l2.15-2.1-3.45-.75M0 3.15l6.5 2.6 1.9-1.2m1.85 9.05H9.9L4 18.25l-.15-.05 4.55 5.4 8.1 1.65.1.3L19.5 19l-.75.25V13.6m-14.9 4.6L0 17.25m7.2 14.3.05-.05L9 24.25l-.6-.65M6.5 5.75l3.75 1.5m8 25 .15-.1.45-.35.05-.05-2.3-6.2m1.65 6.7-.1.1L24 43.15M0 34.6l7.2-3.05 11.05.7M33 25.9v.1l-3 5 5.25 5-3.4 7.2M30 31l-.5-.5m.5.5-11.1.75m9.85-16L19.5 19" fill="none" stroke="#bcbcbc" stroke-linecap="round" stroke-linejoin="round" stroke-opacity=".78" stroke-width=".05"/></g><g id="e" fill="none" stroke-linecap="round" stroke-linejoin="round" stroke-opacity=".78" stroke-width="1.5"><path d="M.75 37.65 1.8 1.15q7.45 7.15 25.15 5.7l2.85 5.05 1.3-5.45.55-.1q5.4-.7 16.15-5.6" stroke="#8d8d8d"/><path d="M47.8.75 48.65 37q-6.1 6.95-21.15 7.7" stroke="#5e5e5e"/></g><g id="f"><path d="m281.6 414.5.75-.1v-.05l.45.45 7.9-5.4v.05l2.75-2 1.65-2.25 4.65-3-.65 1.45 3.25-.6-1.75 1.7 1.75.2-3.6.45 1.45.6-1.2.4-.05.55 4.45-1.7-.8 1 3.1.4-3.3 1.8-1.95-.2.7.85-2.65 1.5-4.6.45h-.1l-.1-.05-3.55 2.1-.05.05-6.15 3.65.75 1.2 5-1.95.05.05v-.05l4.6-1.7.75-1.5q4.1-1.7 8.1-3.3l-1.9 2.45 1.65.6-1.1.55-.95-.2.45.4-1 .4-1.2-.3.75.6q-1.4.45-2.5 1.25l-.95.4-2-.7-4.8 1.85-4.6 1.7-.4 3.45-.1.05-3.8 2.65-1.3.7-4.5 2.3-1.05.5-2.65 1.4-3.75.45-1.4-3 .7-3.2 1.45-1.5 3.4-2.35.3-.5 1.55-1-.15.3 6.05-4.15 2.1-.15.1-.1v.1l.5.85.7-.55-.7.55-.5-.85h-.1l-.65 1.7.65-1.7h.1m15.5-7.75.2-1.65-1.95 2.8 1.95-2.8-.2 1.65-.1.75 1-.85-.9.1m1.9-.35.1-.6-1.1.85 1.1-.85-.1.6m-8.75 5.95-.05.05 3.45-2.05 1.7-2.45-1-.1-3.7 2.45h.05l-7.5 5.15.4.85 6.65-3.9m-9.35 7.05-.15-.7-.2-.65 2.35-1.3.7-.5-.7.5-2.35 1.3.2.65 2.45-1.45.75-.45-.75.45-2.45 1.45.15.7 2.9-1.1-.6-1.05.6 1.05.9-.3-.9.3-2.9 1.1.2.6 2.9-1 1.05-.45-1.05.45-2.9 1-.2-.6m3.1-.4-.2 2-2.5-.3-.2-.7.2.7 2.5.3.2-2m-5.7 5.75 1.15.65-1.15-.65m-3.35 2.95-1.05-.25-1.8-1.75.3-4.9.95-2-.95 2-.3 4.9 1.8 1.75 1.05.25m-3.3-7.7-.55.9-.1 5.25 1.5 1.95 1.4.1-1.4-.1-1.5-1.95.1-5.25.55-.9m8.9-1.95-.15-.75.4-1 .05-.1 1.2-.85h.05-.05l-1.2.85-.05.1-.4 1 2-1.4.8-.5-.8.5-2 1.4.15.75m1.8-3.65.1.05-.1-.05m.55 2.35-.5-.85.5.85" fill-opacity=".251" fill-rule="evenodd" transform="translate(-263.25 -398.95)"/><path d="m18.35 15.55.75-.1v-.05l.45.45 7.9-5.4v.05l2.75-2 1.65-2.25 4.65-3-.65 1.45 3.25-.6-1.75 1.7 1.75.2-3.6.45 1.45.6-1.2.4-.05.55 4.45-1.7-.8 1 3.1.4-3.3 1.8-1.95-.2.7.85-2.65 1.5-4.6.45m-.1 0-.1-.05-3.55 2.1m-.05.05-6.15 3.65.75 1.2 5-1.95m.05 0 4.6-1.7.75-1.5q4.1-1.7 8.1-3.3l-1.9 2.45 1.65.6m-1.1.55-.95-.2.45.4m-1 .4-1.2-.3.75.6m-2.5 1.25-.95.4-2-.7-4.8 1.85-4.6 1.7-.4 3.45-.1.05-3.8 2.65-1.3.7-4.5 2.3-1.05.5L8 30.65l-3.75.45-1.4-3 .7-3.2L5 23.4l3.4-2.35.3-.5 1.55-1-.15.3 6.05-4.15 2.1-.15-.65 1.7-.05.1-.4 1 2-1.4.8-.5.4.85L27 13.4m-8.65 2.15.5.85.7-.55m15.2-8.15 1.1-.85-.1.6m-3.65 1.5 1.95-2.8-.2 1.65.9-.1-1 .85.1-.75m-6.9 5.65 3.45-2.05 1.7-2.45-1-.1-3.7 2.45h.05l-7.5 5.15m-1.1-.05h-.05l-1.2.85m2.75.05-.7.5-2.35 1.3.2.65 2.45-1.45.75-.45m-.75.45.6 1.05.9-.3m-.9.3-2.9 1.1.2.6 2.9-1 1.05-.45m-2.65-2.65.5.85m-1.3-2.25h-.1m.95-.05-.1-.05m-1.95 2.9.15.75m-6.65 10.15-1.4-.1-1.5-1.95.1-5.25.55-.9m1.7-1.2-.95 2-.3 4.9 1.8 1.75 1.05.25m4.5-2.3-1.15-.65m2.8-4.75.2.7 2.5.3.2-2m-3.25-.3.15.7" fill="none" stroke="#010101" stroke-linecap="round" stroke-linejoin="round" stroke-opacity="0" stroke-width=".05"/><path d="m39.7 13.65-1.1.55m-.5.2-1 .4m-.45.3q-1.4.45-2.5 1.25" fill="none" stroke="#010101" stroke-linecap="round" stroke-linejoin="round" stroke-opacity="0" stroke-width=".05"/><path d="m296.2 403.1.1-.5-1.05.85 1.05-.85-.1.5-.05.65 4.4-1.7-.75 1 3.1.4-3.25 1.75-2.05-.2.75.9-2.65 1.4-4.6.5q1.85-1.25 3.65-2.4l-3.9 1.75 1.65-2.5-1-.1 1.3-1.35-2.1 1 1.55-2.25 4.65-3-.6 1.5 3.3-.6-1.8 1.65 1.7.25-3.55.45 1.4.6-1.15.3m-1.95.45.3-1.65-2.05 2.75 2.05-2.75-.3 1.65-.1.75 1.1-.85-1 .1m-2.7 7.6.75-1.6q4.05-1.65 8.1-3.2l-1.85 2.4 1.6.6-1.1.5-.95-.15.45.4-1 .45-1.15-.35.65.6q-1.4.45-2.4 1.25l-1 .45-2-.7q1.3-.8 2.6-1.45l-2.7.8" fill="#d0bc93" fill-rule="evenodd" transform="translate(-263.25 -398.95)"/><path d="m290.7 404.2 2.1-1-1.3 1.35-3.7 2.45.05.05-7.5 5.1-.75.55-2 1.4.3-1 .1-.1v-.1l1.3-.8.7-.5 7.85-5.4v.05l2.85-2.05m.4 3.6-.1-.05-.1.05q-1.75 1-3.55 2.1v.05l-6.25 3.65q-.35.15-.7.4l-2.45 1.45-.2-.65 2.3-1.35.8-.45 6.6-3.9v.05q1.65-1.05 3.4-2l3.9-1.75q-1.8 1.15-3.65 2.4m-9.2 6.95 5.05-1.9v.05l.05-.05 4.55-1.7 2.7-.8q-1.3.65-2.6 1.45l-4.8 1.85-4.65 1.7-.95.35-2.95 1.1-.2-.7 2.9-1 .9-.35" fill="#752f0b" fill-rule="evenodd" transform="translate(-263.25 -398.95)"/><path d="m263.65 421.9.3-1.3 1.55-1.5 3.35-2.35-.6.95v.8l.05.4-2.85 1.55-1.8 1.45m6.9-6.35 6.05-4.2 2.1-.05-.7 1.6v.1l-.1.1-8.4 5.35.05-.5.05-.35.95-2.05m8.25-4.25.75-.1v-.05l.1.05.35.4-.7.5-.05-.1-.45-.7m.75-.1h.1-.1" fill="#92831d" fill-rule="evenodd" transform="translate(-263.25 -398.95)"/><path d="m272.15 424.5-1 .45-1.4-.1-.85-.95-.75-1 .15-4-.05-.4 1.3-.55-.05.5-.25 4 1 .9.85.9 1.05.25m6.55-13.2.05-.1.05.1h-.1.1l.45.7.05.1-1.3.8.7-1.6m1.7 2.7.6 1.1-2.9 1-.15-.65 2.45-1.45m-2.1 2.8 2.95-1.1-.25 2.1-2.55-.3-.15-.7m-.7-2.7 2-1.4.45.75-2.3 1.35-.15-.7" fill="#3d2e0c" fill-rule="evenodd" transform="translate(-263.25 -398.95)"/><path d="m281.1 413.6.8 1.15-.9.35-.6-1.1q.35-.25.7-.4m1.1 1.75-.35 3.35-.1.1-.2.15-2.85-.2-8.45 4.6-1-.9.25-4 8.4-5.35-.3 1 .15.7.2.65.15.65.2.7.15.7 2.55.3.25-2.1.95-.35M263.85 425l-.6-1.2.4-1.9 1.8-1.45 2.85-1.55-.15 4 .75 1-3.2 1.3-1.85-.2m15.75-12.3.75-.55.5.85-.8.45-.45-.75" fill="#554a11" fill-rule="evenodd" transform="translate(-263.25 -398.95)"/><path d="m281.55 418.95-3.6 2.5-1.3.7-4.5 2.35-1.05-.25-.85-.9 8.45-4.6 2.85.2m-10.4 6-2.75 1.4-3.7.45-.85-1.8 1.85.2 3.2-1.3.85.95 1.4.1m-2.3-8.2.35-.45 1.55-1-.2.25-.95 2.05-.05.35-1.3.55v-.8l.6-.95m6.65 4.7 1.15.7-1.15-.7" fill="#453d0e" fill-rule="evenodd" transform="translate(-263.25 -398.95)"/><path d="m32 4.5 1.05-.85-.1.5 1.15-.3-1.4-.6 3.55-.45-1.7-.25L36.35.9l-3.3.6.6-1.5L29 3l-1.55 2.25m.8.35 1 .1 2.05-2.75L31 4.6l1-.1-1.1.85.1-.75m1.95-.45-.05.65 4.4-1.7-.75 1 3.1.4-3.25 1.75-2.05-.2.75.9-2.65 1.4-4.6.5m-.1-.05-.1.05q-1.75 1-3.55 2.1m0 .05-6.25 3.65.8 1.15 5.05-1.9m.05 0 4.55-1.7.75-1.6q4.05-1.65 8.1-3.2L35.3 9.8l1.6.6m-1.1.5-.95-.15.45.4m-1 .45-1.15-.35.65.6m-2.4 1.25-1 .45-2-.7-4.8 1.85-4.65 1.7-.35 3.35-.1.1-.2.15-3.6 2.5-1.3.7-4.5 2.35-1 .45-2.75 1.4-3.7.45-.85-1.8-.6-1.2.4-1.9.3-1.3 1.55-1.5L5.6 17.8l.35-.45 1.55-1-.2.25 6.05-4.2 2.1-.05-.7 1.6 1.3-.8m-.5-.8.75-.1v-.05l.1.05.35.4 7.85-5.4v.05l2.85-2.05M17.1 13.2l7.5-5.1-.05-.05 3.7-2.45m-.65 2.6 1.65-2.5m-5.05 4.5q1.65-1.05 3.4-2m-11.2 4.05h-.1m-.75.1h-.1m.55.7-.45-.7m2.2 3.8.9-.35m-1.5-.75.6 1.1-2.9 1 .2.7 2.95-1.1.95-.35m-1.8-1.35q.35-.25.7-.4m-3.5.5 2-1.4.75-.55.5.85 6.6-3.9m-9.55 4-.3 1 .15.7 2.3-1.35-.45-.75M6.25 19.5l-.25 4 1 .9.85.9 1.05.25m5.85-11.6v.1m-.25 1.8.2.65 2.45-1.45M14.7 16.5l.15.65m.2.7.15.7 2.55.3.25-2.1m-1.2-2.25.8-.45m-.85-1.4-.7.5M7.9 26l-1.4-.1-.85-.95-.75-1 .15-4-.05-.4v-.8l.6-.95m7.8 5.4-1.15-.7M6.3 19l-.05.5m.05-.5.05-.35.95-2.05" fill="none" stroke="#47392b" stroke-linecap="round" stroke-linejoin="round" stroke-opacity=".624" stroke-width=".05"/><path d="m36.9 10.4-1.1.5m-.5.25-1 .45m-.5.25q-1.4.45-2.4 1.25" fill="none" stroke="#261b0a" stroke-linecap="round" stroke-linejoin="round" stroke-opacity=".663" stroke-width=".05"/></g><path d="M125.15-62.6Q177-36.65 177 0t-51.85 62.55Q73.3 88.5 0 88.5t-125.15-25.95Q-177 36.65-177 0t51.85-62.6Q-73.3-88.5 0-88.5t125.15 25.9" fill="url(#h)" fill-rule="evenodd" transform="translate(177 88.5)" id="g"/><path d="M27.5 7.8Q17.75 8.5.75.75" fill="none" stroke="#5e5e5e" stroke-linecap="round" stroke-linejoin="round" stroke-opacity=".78" stroke-width="1.5" id="c"/><use width="354" height="177" xlink:href="#g" id="b"/><use width="47" height="43.35" xlink:href="#i" id="d"/><radialGradient id="h" cx="0" cy="0" r="819.2" gradientTransform="scale(.2191 .1096)" gradientUnits="userSpaceOnUse"><stop stop-color="#ffff50" stop-opacity=".965" offset=".408"/><stop stop-color="#fff1ba" stop-opacity="0" offset="1"/></radialGradient></defs></svg>