<svg viewBox="0 0 58.409 55.035" xmlns="http://www.w3.org/2000/svg" xmlns:xlink="http://www.w3.org/1999/xlink"><g transform="translate(-251.13 -176.59)"><use transform="translate(251.1 176.6)" width="58.45" height="55.05" xlink:href="#a"/><use transform="matrix(.0138 -.2906 -.2906 -.0138 308.1 202)" width="26.7" height="23.4" xlink:href="#b"/><use transform="matrix(.0066 -.1382 -.1382 -.0066 300.35 196.4)" width="26.7" height="23.4" xlink:href="#b"/><use transform="matrix(.0055 -.1154 -.1154 -.0055 292.7 183.8)" width="26.7" height="23.4" xlink:href="#b"/><use transform="matrix(.0066 -.1382 -.1382 -.0066 304.15 194)" width="26.7" height="23.4" xlink:href="#b"/><use transform="matrix(.0115 -.2433 -.2433 -.0115 299.8 190)" width="26.7" height="23.4" xlink:href="#b"/><use transform="translate(253.25 190.6)" width="38.4" height="39.1" xlink:href="#c"/></g><defs><g id="a"><path d="M253.25 212.45v.6q-.3 6.5 4.7 11.4 5 4.85 12.35 5.2 7.4.35 12.8-4 5.5-4.4 5.8-10.9l-.05-.5.05-.2v-.2l-.25-.35-.55-.4-3.9-1.25-.4-.1-.6-.1-11.85-1.35h-9.8l-3 .25q-4.85.6-5.2 1.65l-.1.25q.2 1.15 5.1 2.2l2.95.55 9.7.9h.1l11.85-.1-11.85.1h-.1l-9.7-.9-2.95-.55q-4.9-1.05-5.1-2.2m30.8 3.4 3.95-.9.6-.3.25-.4-.25.4-.6.3-3.95.9h-.45l-.65.15.65-.15h.45" fill="#702e5e" fill-opacity=".702" fill-rule="evenodd" transform="translate(-251.1 -176.6)"/><path d="m37.75 37.65.05-.2v-.2l-.25-.35-.55-.4-3.9-1.25-.4-.1-.6-.1-11.85-1.35m-.1 0h-9.7l-3 .25q-4.85.6-5.2 1.65l-.1.15v.1m29.7 3.55L20 39.5h-.1l-9.7-.9-2.95-.55q-4.9-1.05-5.1-2.2m35.6 1.8-.25.4-.6.3-3.95.9h-.45l-.65.15" fill="none" stroke="#d5b1eb" stroke-linecap="round" stroke-linejoin="round" stroke-width=".05"/><path d="m298.65 184.45 2.8 3.35.2.3.5 2.85q-.9.65-2.3.55 3.25 1.55 2.95 4.8l-2.25.2q2.35 2.45 1.15 3.65-.6.55-2 .85-1.05.25-1.75-.35 1.25 1.45-.95 2.1-2.85.85-3.9-1.9.9 3.15-.85 3.9-3.3-1.55-4.85.9l-1.25 1.55q-2.05-1.75-3.9-4.4l-.3-.7 15.15-6.75v.05l1.55-10.95m3.05 15.7q-2.25-2-4.6-4.75 2.35 2.75 4.6 4.75" fill="#b9874a" fill-rule="evenodd" transform="translate(-251.1 -176.6)"/><path d="m279.9 189.8 7.8-11.65.45-.8q1.35-1.05 5.3 2.1 2.55 2 5.2 5l-1.55 10.95v-.05l-1.95-2.4q-4.25-5.45-6.25-9.95-1.55-3.4-1.2-4.85-.35 1.45 1.2 4.85 2 4.5 6.25 9.95l1.95 2.4-15.15 6.75.3.7-.1-.15-.35-.5q-2.4-3.45-3.2-6.6-.75-2.95.25-4.15l1.05-1.6m12.8 19.4.9-.25-.9.3v-.05" fill="#d2b88c" fill-rule="evenodd" transform="translate(-251.1 -176.6)"/><path d="m252.25 216.1 5.85 6.2 6.65 1.15 10.05-6.8 5.05-12 .3-.3q3.05 4.15 6.5 6.3l.2.15q1.6.95 2.9 1.2l-.15 3.4q-1.05 7.9-7.3 12.4-6.25 4.45-14.05 2.95-8.35-1.7-12.95-8.1-2.2-3.05-3.05-6.55m41.35-7.15q-.3 2-1.15 2.6-1.1.8-2.7.45-1.3-.25-2.9-1.2l-.2-.15q-3.45-2.15-6.5-6.3l2-1.7.1.15q1.85 2.65 3.9 4.4l1.8 1.4q2 1.3 3.35 1.25l1.1-.4h.05l.15-.1.1-.05.9-.35" fill="#99c" fill-opacity=".702" fill-rule="evenodd" transform="translate(-251.1 -176.6)"/><path d="m293.6 208.95-.9.35v-.05l.9-.3" fill="#990" fill-rule="evenodd" transform="translate(-251.1 -176.6)"/><path d="M252.25 216.1q-1-3.85-.4-8.25 1-7.9 7.25-12.4t14.1-2.9l2.35.6q0 1 .3 2.3.85 4.15 4.1 8.65l.2.25-.2-.25q-3.25-4.5-4.1-8.65-.3-1.3-.3-2.3-.05-2.3 1.35-3.3l3-.05-1.05 1.6q-1 1.2-.25 4.15.8 3.15 3.2 6.6l.35.5-2 1.7-.3.3-5.05 12-10.05 6.8-6.65-1.15-5.85-6.2" fill="#99c" fill-opacity=".502" fill-rule="evenodd" transform="translate(-251.1 -176.6)"/><path d="m301.65 188.1 1.6 2.1q2.95 4.1 4.55 7.7 2.05 4.55.7 5.6l-.15.15-.3.1-14.45 5.2-.9.25-.1.15-1.3.5q-1.35.05-3.35-1.25l-1.8-1.4 1.25-1.55q1.55-2.45 4.85-.9 1.75-.75.85-3.9 1.05 2.75 3.9 1.9 2.2-.65.95-2.1.7.6 1.75.35 1.4-.3 2-.85 1.2-1.2-1.15-3.65l2.25-.2q.3-3.25-2.95-4.8 1.4.1 2.3-.55l-.5-2.85m6.4 15.65q-1.5.3-4.8-2.3l-1.55-1.3 1.55 1.3q3.3 2.6 4.8 2.3" fill="#825a33" fill-rule="evenodd" transform="translate(-251.1 -176.6)"/><path d="m27.75 14.8 1.05-1.6m7.8-11.65Q36.25 3 37.8 6.4q2 4.5 6.25 9.95l1.95 2.4v.05q2.35 2.75 4.6 4.75l1.55 1.3q3.3 2.6 4.8 2.3m-16.75 6.1 1.3-.5m1-.4-.9.35-.1.05" fill="none" stroke="#960" stroke-linecap="round" stroke-linejoin="round" stroke-width=".05"/><path d="m29.05 27.75-.2-.25q-3.25-4.5-4.1-8.65-.3-1.3-.3-2.3m6.6 9.5-.35-.5q-2.4-3.45-3.2-6.6-.75-2.95.25-4.15m7.3 15.8 1.8 1.4q2 1.3 3.35 1.25m1.3-.5-.15.1h-.05l-1.1.4m-11.15-5.5q3.05 4.15 6.5 6.3l.2.15q1.6.95 2.9 1.2m-7.5-9.2-.1-.15m.1.15q1.85 2.65 3.9 4.4" fill="none" stroke="#67afaf" stroke-linecap="round" stroke-linejoin="round" stroke-width=".05"/><path d="m279.9 189.8 7.8-11.65.45-.8q1.35-1.05 5.3 2.1 2.55 2 5.2 5l2.8 3.35.2.3 1.6 2.1q2.95 4.1 4.55 7.7 2.05 4.55.7 5.6l-.15.15-.3.1-14.45 5.2" fill="none" stroke="#960" stroke-linecap="round" stroke-linejoin="round" transform="translate(-251.1 -176.6)"/><path d="m275.55 193.15-2.35-.6q-7.85-1.6-14.1 2.9t-7.25 12.4q-.6 4.4.4 8.25m23.3-22.95q-.05-2.3 1.35-3.3l3-.05m13.7 19.15q-.3 2-1.15 2.6-1.1.8-2.7.45l-.15 3.4q-1.05 7.9-7.3 12.4-6.25 4.45-14.05 2.95-8.35-1.7-12.95-8.1-2.2-3.05-3.05-6.55" fill="none" stroke="#67afaf" stroke-linecap="round" stroke-linejoin="round" transform="translate(-251.1 -176.6)"/></g><g id="d"><path d="M.3.5q1.15-1.35 5.75 1 4.65 2.35 10.05 7t8.45 8.85q3 4.2 1.85 5.55-.25.35-.8.45-1.55.3-4.95-1.45-4.65-2.35-10.05-7-5.4-4.6-8.4-8.85Q-.4 2.45.05.95l.1-.3L.3.5" fill="#9c783d" fill-rule="evenodd"/><path d="M.3.5q1.15-1.35 5.75 1 4.65 2.35 10.05 7t8.45 8.85q3 4.2 1.85 5.55-.25.35-.8.45-1.55.3-4.95-1.45-4.65-2.35-10.05-7-5.4-4.6-8.4-8.85Q-.4 2.45.05.95l.1-.3z" fill="none" stroke="#960" stroke-linecap="round" stroke-linejoin="round" stroke-width=".05"/></g><g id="c" fill-opacity=".702" fill-rule="evenodd"><path d="m276.6 194.75.1.05q1.25 3.35 3.4 6.4l-.1.25-.55.4q-3.3-2.15-3.55-6.45l.3-.4.4-.25m-.6-3.65q.25-.3.6-.4l.4-.1.15.15q.55.8.3 1.95l-.5.8-.65.1q-1.05-.95-.3-2.5m-7.15 2.05 1.9-.05q3.75 1.9 3.9 5.9-.45.6-1.2.65-8.05 0-4.6-6.5m-2.55 1.75.05 2q-7.5 5.1-12.3 12.7l-.15-1.1q.2-12.95 12.4-13.6" fill="#f2f3f9" transform="translate(-253.25 -190.6)"/><path d="m288.45 213.85-1.05 3.9q-3.75 10.3-14.6 11.95 8.9-9.4 6.15-22.15l.25-.45.5-.2.5 1.15h.65l7.6 5.8m3.2-2.9q-3.6 1.1-6.6-1.25-2.15-1.7-3-4.3-.3-1-.05-2l.1.05q3.25 4.45 8.15 6.85l1.4.65m-38.4 3.45.5-.6q4.6 7.35 11.4 12.9 3.6-.75 7.25.1l-.5.45q-4.4 1.95-8.75.15-8.8-3.7-9.9-13" fill="#414281" transform="translate(-253.25 -190.6)"/></g><use width="26.7" height="23.4" xlink:href="#d" id="b"/></defs></svg>