<svg viewBox="0 0 90.17 94.245" xmlns="http://www.w3.org/2000/svg" xmlns:xlink="http://www.w3.org/1999/xlink"><g transform="translate(-229.86 -153.36)"><use transform="translate(229.85 163.25)" width="81.25" height="26.35" xlink:href="#a"/><use transform="matrix(1.49 0 0 1.49 238.85 153.37)" width="50.4" height="63.25" xlink:href="#b"/><use transform="translate(234.8 182.6)" width="85.25" height="57.3" xlink:href="#c"/></g><defs><g id="a" fill-rule="evenodd"><path d="m267.6 185.8.4.25-.45-.1.05-.15" fill="#0c9" transform="translate(-229.85 -163.25)"/><path d="M237.1 174.9q4.65-2.6 9.75-1.15 0 4.4 5.8 7.75l-12.1-.45 4.1-3-5.45.2-2.65 2.2-1.5-.5q1.75-1.65 2.05-5.05m13.05.2q4.1 2.15 8.5 6.85 4.85 1.25 8.95 3.85l-.05.15q-6.05-2.55-11.7-3.8-6.45-3.85-5.7-7.05" fill="#bef" transform="translate(-229.85 -163.25)"/><path d="M238.25 189.05q-2.95-.75-5.95-2.25l-.1-.05q-2.65-3.35-2.3-4.9l.1-.3 1.55-1.95 1.2.05-.4 1.9 2.6-1.5.1-.1 1.5.5 2.65-2.2 5.45-.2-4.1 3-5.15.95q4.15.5 7.35 1.35-4.55 2.3-4.5 5.7m13.1-1.15q-5.8 2.45-11.85 1.4.35-3.05 4.65-5.55 5.2 1.6 7.2 4.15" fill="#64d9ff" transform="translate(-229.85 -163.25)"/><path d="M231.55 179.6q2.7-3.15 5.55-4.7-.3 3.4-2.05 5.05H235l-.05.1-2.6 1.5.4-1.9-1.2-.05m15.3-5.85q1.6.45 3.3 1.35-.75 3.2 5.7 7.05l-3.2-.65q-5.8-3.35-5.8-7.75m-7.35 15.55-1.25-.25q-.05-3.4 4.5-5.7l1.4.4q-4.3 2.5-4.65 5.55" fill="#fff" transform="translate(-229.85 -163.25)"/><path d="m267.55 185.95-9.35-2.25q-3.4 2.75-6.85 4.2-2-2.55-7.2-4.15l-1.4-.4q-3.2-.85-7.35-1.35l5.15-.95 12.1.45 3.2.65q5.65 1.25 11.7 3.8" fill="#047d7a" transform="translate(-229.85 -163.25)"/><path d="m283.1 189-.3.25.15-.35.15.1" fill="#0c9" transform="translate(-229.85 -163.25)"/><path d="M305.45 169.5h-.1v-.05l.1.05" fill="#fc0" transform="translate(-229.85 -163.25)"/><path d="M282.95 188.9q1.8-4.35 5-7.65 1-6.5 3.1-10.4 2.2 2.95-.8 9.45-3.75 3.65-7.15 8.7l-.15-.1m10-20.75q3.2-3.6 8.15-2.95 1.95 3.35 4.25 4.25v.05l-.95 1.1-3.2-1.1-4.35 2.05 4.75 1.3q-4.85 1.85-9.2 5.5 2.75-5.8.55-10.2" fill="#bef" transform="translate(-229.85 -163.25)"/><path d="m307.85 167.65 2.25 1.35.2.25q1.05 1.4.75 5.9l-.05.05q-1.55 2.8-3.5 4.75-1.7-3.4-6.4-3.85 2-2.2 5-4.45-2.35.4-4.5 1.2l-4.75-1.3 4.35-2.05 3.2 1.1.95-1.1h.1l2.8.45-1.3-1.75.9-.55m-1.2 13.1q-4.15 3.6-9.9 3.5.2-3.4 3.45-7.15 4.6.7 6.45 3.65" fill="#64d9ff" transform="translate(-229.85 -163.25)"/><path d="m307.5 179.95-.85.8q-1.85-2.95-6.45-3.65l.9-1q4.7.45 6.4 3.85m-16.45-9.1q.85-1.6 1.9-2.7 2.2 4.4-.55 10.2l-2.15 1.95q3-6.5.8-9.45m10.05-5.65q3 .4 6.75 2.45l-.9.55 1.3 1.75-2.8-.45-.1-.05q-2.3-.9-4.25-4.25" fill="#fff" transform="translate(-229.85 -163.25)"/><path d="M296.75 184.25q-3.5-.05-7.55-1.4l-6.1 6.15q3.4-5.05 7.15-8.7l2.15-1.95q4.35-3.65 9.2-5.5 2.15-.8 4.5-1.2-3 2.25-5 4.45l-.9 1q-3.25 3.75-3.45 7.15" fill="#047d7a" transform="translate(-229.85 -163.25)"/><path d="M270.05 187.65h.15l.05.3-.2-.3" fill="#0c9" transform="translate(-229.85 -163.25)"/><path d="M259.75 180.85q-4.9-1.1-7.5-5.05 2.25-2.2 6.35-1.9 1.75 3.9 1.15 6.95m-8.05-5.9q-1.15-2.1-1.75-4.85v-.05q.8-4 2.05-5.05l.25-.15 2.2-.75.65.65-1.5 1.25 2.55.2.5 1.15 2.95-.35 3.2 2.65-4.35.25q-1.65-1.15-3.5-1.95 1.95 2.6 3.15 4.9-4.1-.55-6.4 2.1" fill="#64d9ff" transform="translate(-229.85 -163.25)"/><path d="M267.85 170.2q.75 3.8.05 9.7 1.85 3.55 2.3 7.75h-.15q-1.6-5.1-3.85-9-.95-6.35 1.65-8.45m-7.1-6.9q4.35.35 6.15 4.15-2.95 3.45-2.05 9.05-2.8-4.05-6.4-6.6l4.35-.25-3.2-2.65-2.95.35-.5-1.15q2.1-.4 4.6-2.9" fill="#bef" transform="translate(-229.85 -163.25)"/><path d="M266.2 178.65q2.25 3.9 3.85 9l-3.6-6.6-6.7-.2q.6-3.05-1.15-6.95l-.5-1.05q-1.2-2.3-3.15-4.9 1.85.8 3.5 1.95 3.6 2.55 6.4 6.6l1.35 2.15" fill="#047d7a" transform="translate(-229.85 -163.25)"/><path d="M267.85 170.2q-2.6 2.1-1.65 8.45l-1.35-2.15q-.9-5.6 2.05-9.05l.95 2.75m-15.6 5.6-.55-.85q2.3-2.65 6.4-2.1l.5 1.05q-4.1-.3-6.35 1.9m2.2-11.7q3.65-1.05 6.3-.8-2.5 2.5-4.6 2.9l-2.55-.2 1.5-1.25-.65-.65" fill="#fff" transform="translate(-229.85 -163.25)"/></g><g id="b"><path d="m1.35-2.9 1.1-2.9 5.75-.85.65-1.4 1.45 1-.7.1-.35 1.05L2.8-4.45l-.2 1.5L15.05.2 21.2 3l-8.55-8.5L20.9 0l1.85 4 .3 2.85-.75.5-.1.55-.35.3-.2.5L1.6 4.3l-.3.15-.5-.05.55-7.3m-1.9.25L-3.2 4.2l-18.65 2.75.25-3.25L-9.05-9.15l7.4 3.4 2.2 1.3-1.1 1.8m-.75-28q3.5-.65 6.2 4 2.7 4.7 3 12.8l-.05 1.9-1.45 1q-8.2 3.45-15.45-1.4-.3-6.45 2-12.05Q-4.8-30-1.3-30.65m-18.7 34-.25-.45v.5l.25-.05L-2.15-2.3-20 3.35M-2.1-2.3h-.05.05m-5.55-10.5-.05-.25-.45.25.15.1.25.1.1-.2 12.9.8-12.9-.8m9.5 15.7h.45L2 2.3l-.15.6m4.95-17-14.5 1.05L6.8-14.1M-20.3 5.45l-.15-1.25-.25 1.3.4-.05" fill="#005e9b" fill-opacity=".408" fill-rule="evenodd" transform="translate(25.2 31.6)"/><path d="m-.4 4.3.15-.05q9.5 3.75 19.9 4.9l.3.1.15.15.6.7-.35.25q-7.9 5.4-17.15 7.95l-2.8-.05q-10.7-3.7-20.75-9.1l-.55.3-.05-.05q1.65-2.55 5.3-3.15L-.4 4.3m.15 11.4-.2.8.2.05v-.85q0-4.2-.15-8.45.15 4.25.15 8.45m-18.7-6.8.15.05.05-.1-.2.05" fill="#003395" fill-opacity=".408" fill-rule="evenodd" transform="translate(25.2 31.6)"/><path d="m20.35 10.35-1.75 4.9-1.75 7.1-.75.3v.05l-.45.25q-1.3.95-2.8 1.5Q6.45 26.65.25 29l-.1.2-1.95-.3q-5.55-1.15-9.9-4.85l-9.2-14.6.55-.3q10.05 5.4 20.75 9.1l2.8.05q9.25-2.55 17.15-7.95m-30.5 13.15 20.2-.9.65.25-.65-.25-20.2.9" fill="#001160" fill-opacity=".408" fill-rule="evenodd" transform="translate(25.2 31.6)"/><path d="m27.8 28.65 12.45 3.15 6.15 2.8m-19.85-5.9-1.9.25M3.6 35.3l-.85.25m10.75 20.1-2.65.9m25.05-2.1-.65-.25-20.2.9m27.7 1.95-1.9-.75M4.95 35l.25-.05 17.85-5.65h.05m-5.6-10.75-.45.25m.15.1.35-.1 12.9.8m-14.3-.35L15 19.8m10.9 9.95q-.9 3-1.1 6.15m-7.3-17.35L32 17.5m-7.05 29.8q0-4.2-.15-8.45m.15 8.45v.85M34.7 18.2l-1.6-.45" fill="none" stroke="#005f9c" stroke-linecap="round" stroke-linejoin="round" stroke-opacity=".906" stroke-width=".05"/><path d="M11.05-10.55 9.65-9.3q.8-1.3 1.95-2.2l-.5.85-.05.1m.8-1.4q.05-.65-.75-.65l-.3.3-.4-.15H10l.4-.25 1.95-.15-.5.9M1.1-8.35q-.55.55-.45.8v.45l1.65-.15q1.65-.05 3.35-.65 2-.5 4-1.4-3.75 3.15-8.4 4L.7-5.35Q-6.1-7.05-12.45-10l-.15-.15-.1.05v.05l-.95-2.4 1.85.5q-.3.55.2 1.15.5.45 1.25.4 4.15 2.1 8.5 3.6l.25-.1q.25-.15.35-.45-3.45-2.4-7.9-3.5l-.55-.5 10.8 3m9.3-4.1v-.25.25m2.55 38.5q-.55.5-1.5.9L5.7 29.2l-.1-7-.1-9.4q.75 3.35 2.25 5.8 2.45 4.15 5.2 7.45" fill="#004a84" fill-opacity=".408" fill-rule="evenodd" transform="translate(25.2 31.6)"/><path d="m-.55-28.65.05-.15q.45-.8-.4-1.15l-1.45.75q-1.55.95-2.7 2.55l-.4.7Q-9-20.05-7.9-12.65l7.05 1.55q.35-.3.25-.7-1.95-6.7-1.4-13.45l.35-3 1.1-.4m6.6 5.3q-1.35-2.9-3.5-5.45l-.45.25q1.05 2.7 1.5 5.4.7 4.7-.55 9.55l-.85.85.4.55.7-.05q2.65-.75 4.85-2.4-.25-4.7-2.1-8.7m-1.55.05.45.45-.3.1-.15-.55m-17.2 13.25.25.05-.25-.05v-.05l.1-.05.15.15Q-6.1-7.05.7-5.35l.55.05q4.65-.85 8.4-4l1.4-1.25q7.85 4.75 12.9 12.2 1.1 1.6.6 3.55-2.4 8.75-5.45 17.25l-1.35 3.45L1.4 30.8l-4.35-5.7q-2.8-3.45-6.55-6.35l-6.95-5.55-1.65-1.45q-1.85-1.8-3.15-3.6 1.35 2.15 2.35 4.05l.15.25 4.7 9.6q1.7 3.6 5.45 4.7 3.4.95 5.95 2.9l.9.6-12.4-5.1q-6-9.35-10.3-19.5-.55-1.3.15-2.55 3.25-6.1 8.6-10.6l3-2.55m24.3-1.45q-1.15.9-1.95 2.2-2 .9-4 1.4-1.7.6-3.35.65L.65-7.1v-.45q-.1-.25.45-.8l8.9-4.1-8.9 4.1-10.8-3-2.1-.6q0-4 .85-7.55.9-3.8 2.5-6.4 3.3-5.3 7.9-5.2 4.55.05 7.8 5.5 3.2 5.4 3.15 12.9l-.7.35.3-.1h.4l.4.15.3-.3q.8 0 .75.65l-.05.15-.05.2-.15.1.25-.45-.25.45m-24.1 2.85q-2.2 1.2-3.95 3.25-3.4 3.85-5.85 8.3 2.65 1.35 4.9-.45 6.1-5 13.7-6.05l.2-.05q.3-.15.4-.45l-.05-.1Q-8.05-6-12.5-8.65m18.4-1.3-.1.1q-.45.25-.35.7 1.55.7 3.6-.25l2-1.75.1-.2q.15-.8-.75-.8-1.85 1.7-4.5 2.2M2.65-3.2q8.85 4.25 18.4 6.5l.35-.75-9.65-9.4q-.7-.35-1.25-.8-2.75 2.9-6.85 3.75l-.7.15-.3.55M22.4 4.4q-3.9 1.35-8.5 3.05-4.25 1.5-8.4 3.65 1.65 1.1 3.4 1.55 4.05 1.1 4.6 4.3.8 5.05.95 8.65 1.45-1.55 2.3-3.85 1.45-4.25 3.2-8.5Q21.7 8.9 22.4 4.4m-9.45 21.65q-2.75-3.3-5.2-7.45-1.5-2.45-2.25-5.8l.1 9.4.1 7 5.75-2.25q.95-.4 1.5-.9m-21.8-13.9Q-5.7 14.05-4 16.9q1.55 2.6 2.9 5.9 1.45 3.55 3.2 7.1-.85-3.6-1.3-7.25Q.2 18 0 11.95q-1.7-1.75-5.35-2.2-4.4-.5-8.6-1.7l-.6-.15-5.8-2L-23 4.8q.85 1.15 2.3 1.8h.05Q-17.7 7.85-15 9.05l.5.2.2.1q2.75 1.2 5.45 2.8" fill="#005e9b" fill-opacity=".408" fill-rule="evenodd" transform="translate(25.2 31.6)"/><path d="M5.9-9.95q2.65-.5 4.5-2.2.9 0 .75.8l-.1.2-2 1.75q-2.05.95-3.6.25-.1-.45.35-.7l.1-.1" fill="#007ebb" fill-opacity=".106" fill-rule="evenodd" transform="translate(25.2 31.6)"/><path d="m-.55-28.65-1.1.4-.35 3Q-2.55-18.5-.6-11.8q.1.4-.25.7l-7.05-1.55q-1.1-7.4 2.45-13.3l.4-.7q1.15-1.6 2.7-2.55l1.45-.75q.85.35.4 1.15l-.05.15m-1.2 58.9-.9-.6q-2.55-1.95-5.95-2.9-3.75-1.1-5.45-4.7l-4.7-9.6-.15-.25q-1-1.9-2.35-4.05 1.3 1.8 3.15 3.6l1.65 1.45 6.95 5.55q3.75 2.9 6.55 6.35l4.35 5.7.2.35-1.05-.1-2.3-.8M-12.5-8.65Q-8.05-6-3.15-4.2l.05.1q-.1.3-.4.45l-.2.05q-7.6 1.05-13.7 6.05-2.25 1.8-4.9.45 2.45-4.45 5.85-8.3 1.75-2.05 3.95-3.25m2.8-2.7.55.5q4.45 1.1 7.9 3.5-.1.3-.35.45l-.25.1q-4.35-1.5-8.5-3.6-.75.05-1.25-.4-.5-.6-.2-1.15l2.1.6m.85 23.5q-2.7-1.6-5.45-2.8l-.2-.1-.5-.2q-2.7-1.2-5.65-2.45h-.05q-1.45-.65-2.3-1.8l2.65 1.1 5.8 2 .6.15q4.2 1.2 8.6 1.7 3.65.45 5.35 2.2.2 6.05.8 10.7.45 3.65 1.3 7.25-1.75-3.55-3.2-7.1-1.35-3.3-2.9-5.9-1.7-2.85-4.85-4.75m9.4 18.9.85-.25-.85.25" fill="#00245e" fill-opacity=".408" fill-rule="evenodd" transform="translate(25.2 31.6)"/><path d="M3.6-23.15q-.45-2.7-1.5-5.4l.45-.25q2.15 2.55 3.5 5.45l-1.1.5-.45-.45-.9.15" fill="#008fcc" fill-opacity=".706" fill-rule="evenodd" transform="translate(25.2 31.6)"/><path d="M6.05-23.35q1.85 4 2.1 8.7-2.2 1.65-4.85 2.4l-.7.05-.4-.55.85-.85q1.25-4.85.55-9.55l.9-.15.15.55.3-.1 1.1-.5M2.65-3.2l.3-.55.7-.15q4.1-.85 6.85-3.75.55.45 1.25.8l9.65 9.4-.35.75Q11.5 1.05 2.65-3.2M22.4 4.4q-.7 4.5-2.45 8.85-1.75 4.25-3.2 8.5-.85 2.3-2.3 3.85-.15-3.6-.95-8.65-.55-3.2-4.6-4.3-1.75-.45-3.4-1.55 4.15-2.15 8.4-3.65 4.6-1.7 8.5-3.05" fill="#008fcc" fill-opacity=".408" fill-rule="evenodd" transform="translate(25.2 31.6)"/><path d="m12.75 21.6-.25-.05m23.75-.5-1.4 1.25q-3.75 3.15-8.4 4l-.55-.05q-6.8-1.7-13.15-4.65l-.15-.15m24.2-1.35.25-.45m-1.85-.5-8.9 4.1M12.5 21.5v.05m24.3-1.45-.5.85m-22.9-1.3 2.1.6 10.8 3m9.3-4.35v.25m-.4 0 .4-.25m-9 43.5-.85.25" fill="none" stroke="#005f9c" stroke-linecap="round" stroke-linejoin="round" stroke-opacity=".906" stroke-width=".05"/><path d="m-12.7-10.05-3 2.55Q-21.05-3-24.3 3.1q-.7 1.25-.15 2.55 4.3 10.15 10.3 19.5l12.4 5.1m3.15.55 16.35-4.9 1.35-3.45q3.05-8.5 5.45-17.25.5-1.95-.6-3.55-5.05-7.45-12.9-12.2m-23.75.5-.95-2.4 1.85.5q0-4 .85-7.55.9-3.8 2.5-6.4 3.3-5.3 7.9-5.2 4.55.05 7.8 5.5 3.2 5.4 3.15 12.9l1.95-.15-.5.9M1.4 30.8l.2.35-1.05-.1-2.3-.8" fill="none" stroke="#005f9c" stroke-linecap="round" stroke-linejoin="round" stroke-opacity=".906" transform="translate(25.2 31.6)"/></g><g id="c" fill-rule="evenodd"><path d="m276 227 3.15 2.95-1.85 2.2q1.3-.15 1.35 1.25l2.2-2.5q3.15.95 4.1 5.35l4-4.7q-4.05-1-5.25-3.7l2.1-2.35q-1.35-.05-1.65-1.35l-1.8 1.95-2.65-2.6 5.8-5.4 1.25-4.3-5.05.5-5.75 5.55-.05-.05q.1-3.5.5-7.25l3.35-.65 24.3-7.05 2.75 4.5-5.5 23.05-19.65 7.1-3.3.4q-1.2-3.6-1.85-7.8l-.5-5.1" fill="#e6ddc1" transform="translate(-234.8 -182.6)"/><path d="m275.9 219.8-5.65-5.5-5.05-.5 1.25 4.3 5.8 5.4-2.7 2.6-1.75-1.95q-.35 1.3-1.7 1.35l2.1 2.35q-1.2 2.7-5.25 3.7l4.05 4.7q.9-4.4 4.1-5.35l2.15 2.5q.05-1.4 1.4-1.25l-1.85-2.2 3.15-3 .05.05.5 5.1q.65 4.2 1.85 7.8-3 0-6-1L255 232.75 246.55 211l2.75-3.6 17.25 3.85q5.8 1.5 9.85 1.3-.4 3.75-.5 7.25" fill="#dacea5" transform="translate(-234.8 -182.6)"/><path d="m266.45 218.1-1.25-4.3 5.05.5 5.7 5.55 5.75-5.55 5.05-.5-1.25 4.3-5.8 5.4 2.65 2.6 1.8-1.95q.3 1.3 1.65 1.35l-2.1 2.35q1.2 2.7 5.25 3.7l-4 4.7q-.95-4.4-4.1-5.35l-2.2 2.5q-.05-1.4-1.35-1.25l1.85-2.2-3.2-3-3.15 3 1.85 2.2q-1.35-.15-1.4 1.25l-2.15-2.5q-3.2.95-4.1 5.35l-4.05-4.7q4.05-1 5.25-3.7l-2.1-2.35q1.35-.05 1.7-1.35l1.75 1.95 2.7-2.6-5.8-5.4" fill="#426580" transform="translate(-234.8 -182.6)"/><path d="M245.05 197.9q-2.3 1.9-4.15 4.15 4.6-2.3 8.5-3.6-2.15 5 1.15 8-3.6 1.25-8 1.85l-.1.05q-5.85-1.25-7-2.8l-.2-.35-.35-2.75 1.15-.7 1.45 1.9 1.15-3.15 1.9-.6.5-3.6 5.1-3.75-1.1 5.35m6.15 0q6.6-2 11-1.05-3.25 5.95-10.15 8.95-2.65-2.9-.85-7.9" fill="#64d9ff" transform="translate(-234.8 -182.6)"/><path d="M265.65 187.15 261 188.8q-9.95.8-12.3-2.45l14.8.45 2.15.35m-8.35 3.15q-7.15 3.25-12.25 7.6l1.1-5.35-5.1 3.75-.5 3.6-1.9.6h-.05q.15-2.65-2.85-5.85 2-5.3 8.4-7.35 4.25 3.85 13.15 3" fill="#bef" transform="translate(-234.8 -182.6)"/><path d="m261 188.8 4.65-1.65-.9 1.65q-.65 4.5-2.55 8.05-4.4-.95-11 1.05l-1.8.55q-3.9 1.3-8.5 3.6 1.85-2.25 4.15-4.15 5.1-4.35 12.25-7.6l3.7-1.5" fill="#047d7a" transform="translate(-234.8 -182.6)"/><path d="m261 188.8-3.7 1.5q-8.9.85-13.15-3 2.05-.65 4.55-.95 2.35 3.25 12.3 2.45m-11.6 9.65 1.8-.55q-1.8 5 .85 7.9l-1.5.65q-3.3-3-1.15-8m-14.5 4q-.4-4.5.85-7.8 3 3.2 2.85 5.85h.05l-1.15 3.15-1.45-1.9-1.15.7" fill="#fff" transform="translate(-234.8 -182.6)"/><path d="m309.8 194.45-1.15-5.35 5.15 3.75.45 3.6 1.95.6 1.1 3.15 1.45-1.9 1.2.7-.4 2.75-.15.35q-1.2 1.55-7 2.8l-.1-.05q-4.45-.6-8-1.85 3.25-3 1.1-8 3.9 1.3 8.5 3.6-1.85-2.25-4.1-4.15m-6.15 0q1.75 5-.85 7.9-6.95-3-10.15-8.95 4.35-.95 11 1.05" fill="#64d9ff" transform="translate(-234.8 -182.6)"/><path d="m316.2 197.05-1.95-.6-.45-3.6-5.15-3.75 1.15 5.35q-5.15-4.35-12.3-7.6 8.9.85 13.2-3 6.35 2.05 8.4 7.35-3.05 3.2-2.9 5.85m-27-13.35 2.1-.35 14.85-.45q-2.4 3.25-12.35 2.45l-4.6-1.65" fill="#bef" transform="translate(-234.8 -182.6)"/><path d="M297.5 186.85q7.15 3.25 12.3 7.6 2.25 1.9 4.1 4.15-4.6-2.3-8.5-3.6l-1.75-.55q-6.65-2-11-1.05-1.95-3.55-2.6-8.05l-.85-1.65 4.6 1.65q1.9.7 3.7 1.5" fill="#047d7a" transform="translate(-234.8 -182.6)"/><path d="M316.2 197.05q-.15-2.65 2.9-5.85 1.2 3.3.85 7.8l-1.2-.7-1.45 1.9-1.1-3.15m-5.5-13.2q-4.3 3.85-13.2 3-1.8-.8-3.7-1.5 9.95.8 12.35-2.45 2.45.3 4.55.95M305.4 195q2.15 5-1.1 8l-1.5-.65q2.6-2.9.85-7.9l1.75.55" fill="#fff" transform="translate(-234.8 -182.6)"/><path d="m291.45 205.15.15-.05.65 2.4h-.05l-.75-2.35" fill="#360" transform="translate(-234.8 -182.6)"/><path d="M293.8 213.85q-4.7 1.05-11.3-1.55-5.75-3.65-5.65-9.25 7.1 6.85 15.35 4.45l.4 1.2.4 1.3 2.3.95-1.5 2.9m-16.3-14.5q1.1-3.6 4.15-7.8 2.75.75 5.35-.3l4.4 13.8q-8.05 1.75-13.9-5.7" fill="#bef" transform="translate(-234.8 -182.6)"/><path d="m289.8 189.55 1.65-1.55q2.8.85 4.9 2.15-1.8 6-5.9 9.1-.75-4.9-.65-9.7m8.65 2.1q5.5 4.75 4.15 13.6l-.3.7q-2.85 6.6-8.5 7.9l1.5-2.9-2.3-.95-.4-1.3-.35-1.2-.65-2.4-.7-3.2q5.7-2.1 7.55-10.25" fill="#64d9ff" transform="translate(-234.8 -182.6)"/><path d="m296.35 190.15 2.1 1.5q-1.85 8.15-7.55 10.25l-.45-2.65q4.1-3.1 5.9-9.1m-19.5 12.9q0-1.75.65-3.7 5.85 7.45 13.9 5.7l.05.1.75 2.35q-8.25 2.4-15.35-4.45" fill="#fff" transform="translate(-234.8 -182.6)"/><path d="m287 191.25 2.8-1.7q-.1 4.8.65 9.7l.45 2.65.7 3.2-.15.05-.05-.1-4.4-13.8" fill="#047d7a" transform="translate(-234.8 -182.6)"/><path d="M270.1 208.6h-.05.05" fill="#360" transform="translate(-234.8 -182.6)"/><path d="m276.6 191.6 2.5-.55q2.55 2.1 4.15 4.3-4.95 4.4-10.85 5.15 1.7-4.75 4.2-8.9m8.1 6.1q3.5 6.9-2.45 14.05l-.65.45q-6.35 4.45-13.05 2.8l3.05-1.85-1.95-1.95.2-1.35.25-1.25.55-2.4.9-3.15q7.05.9 13.15-5.35" fill="#64d9ff" transform="translate(-234.8 -182.6)"/><path d="M258.55 194.2q2.95-2.65 8.4-4.85 2.5 2 5.85 2.35l-2.35 14.35q-9.45-2.45-11.9-11.85m10 20.8q-5.5-1.4-11.2-6.9-4.3-6.1-1.35-10.95 4.05 9.55 14.05 11.45l-.2 1.25-.2 1.35 1.95 1.95-3.05 1.85" fill="#bef" transform="translate(-234.8 -182.6)"/><path d="M256 197.15q.9-1.55 2.55-2.95 2.45 9.4 11.9 11.85l-.4 2.55q-10-1.9-14.05-11.45m27.25-1.8 1.45 2.35q-6.1 6.25-13.15 5.35.35-1.3.85-2.55 5.9-.75 10.85-5.15" fill="#fff" transform="translate(-234.8 -182.6)"/><path d="m272.8 191.7 3.8-.1q-2.5 4.15-4.2 8.9-.5 1.25-.85 2.55l-.9 3.15-.55 2.4h-.05l.4-2.55 2.35-14.35" fill="#047d7a" transform="translate(-234.8 -182.6)"/></g></defs></svg>