<svg viewBox="0 0 280.24 319.37" xmlns="http://www.w3.org/2000/svg" xmlns:xlink="http://www.w3.org/1999/xlink"><use transform="translate(-.01 -.026)" width="280.25" height="319.4" xlink:href="#a"/><defs><g id="a"><path d="M326.75 167.6q-12.65-26.2-38.7-46.45 22.4-4.65-5.25-17.9T233.75 86Q209 78.6 191.7 76.05l3.35-8.7q57.6 6.7 125 49.8l-.1 1.65q-.9 21.7 6.8 48.8M177.85 178l8.5 4.7q2.45 16.25 13.7 12.45 10.85 35 50 70-47.25-22.85-72.2-87.15m97.55 75.15q3.9-3 8.2-2.65l.85 1.95q-4.75-1-9.05.7m-89.65-86.8-6.8-1.3-6.7-2.9q7.6-9.65 15.45-16.4-1.55 11.65-1.95 20.6m-29.3-87.05q-6.65-8.1-18.35-13.15h16.95l7.2 10.2q-3.5 1.1-5.8 2.95" fill="#900" fill-rule="evenodd" transform="translate(-134.85 -40.25)"/><path d="M334.25 193.35v.05l-.05-.05h.05m13.5 69.15-.05-.4.05.35v.05m-102.7-138.6h.85l-.65.3-.2-.3" fill="#963" fill-rule="evenodd" transform="translate(-134.85 -40.25)"/><path d="m334.25 193.35 1.5.6q-5.45-13.8-9-26.35 6 12.45 9 26.35l.1.25q8.7 21.95 22.2 46.95-11.2-18.25-23.8-47.75v-.05m-70.2 32.8q3.2 2.55 5.6 6.95 4 7.4 5.75 20.05 4.3-1.7 9.05-.7 11.85 6.7 10.1 23.6l4.4-15.25q19.8 17.9 34.1 48.35-21.9-21.2-38.5-33.05-32.4-23.2-44.5-10.95-28-45.75 14-39m30.5 49.95v-.05.05-.05.05" fill="#c90" fill-rule="evenodd" transform="translate(-134.85 -40.25)"/><path d="M406.6 282.85q.05-.1.2-.1 4-2.2 7.8-5.1-.75 5.7-1.15 10.5-9.2 3.7-11.85 15.25l-11.5 2.75 8.7-5.8.1-.05q8.95-12.4 7.6-17.25l.1-.2" fill="red" fill-rule="evenodd" transform="translate(-134.85 -40.25)"/><path d="M413.45 288.15q-1.45 16.75 1.15 22.5-17-5.85-34 8 2.4-8.5 0-25 7.5 0 10.25-4.8l-.25 12.3 2.6-13.4q6.85-1.5 13.1-4.75l.2.05q1.35 4.85-7.6 17.25l-.1.05-8.7 5.8 11.5-2.75q2.65-11.55 11.85-15.25" fill-rule="evenodd" transform="translate(-134.85 -40.25)"/><path d="M191.7 76.05q-32.5 9.4 67.35 28.1-2.75 4.15-4.4 7.6 1.75 13.2 13.45 14.4l-2.25 8.55q9.8 11.05 17.7 33.45 9.1-16.05 18.2 0 9.75-32.2 22.55.8 5.05 13 9.95 24.4h-.05l.05.05q-3.85 12.85 2.95 32.8-6.95-12.65-18.15-21.05-11.55-11.1-23.05-10.6l-1.95 12.6-3.45-15.05q-15.65-12.9-31.3-17.95l.2-.8-.25.8q-7.1-2.3-14.2-3 11.6-25.8.2-46.95l.65-.3h-.85v-16.05q-2.9-1.4-5.8-2.55-28.45-6.7-38.15 0l-36.15 2.55q.75-17.25-8.5-28.55 2.3-1.85 5.8-2.95l-7.2-10.2q26.1-.95 34.55-12.5 19 .15-28.05-11.3l14.7-1.15q12.5-.45 28.8.35 36.9 18.85-10 25.8l-3.35 8.7m182 266.05-2.3-1.85.55-.7q.75 1.2 1.9 2.4l-.15.15M186.35 182.7l-8.5-4.7q-2.95-7.65-5.6-15.85l6.7 2.9 6.8 1.3q12.45 6.5 26.85 5.3-.25 13.05 18.5 17.5 10.6 13.35 26.5 12.5-8.15 8.35 24 7.5-11.55 13.5-2.15 30.8 8.85 11.6 23.6 10.2l-4.1 10.65-4.4 15.25q1.75-16.9-10.1-23.6l-.85-1.95q-4.3-.35-8.2 2.65-1.75-12.65-5.75-20.05-2.4-4.4-5.6-6.95-79.2-60.35-77.7-43.45" fill="#663" fill-rule="evenodd" transform="translate(-134.85 -40.25)"/><path d="M371.35 340.2q-10.15-8.45-19.45-21.15l-17.85-10.75 7-6.15 1.1-11.35 6.95 20.85 22.85 27.9-.6.65m-19.45-21.15q-5.6-7.7-10.85-16.9 5.25 9.2 10.85 16.9" fill="#ff9" fill-rule="evenodd" transform="translate(-134.85 -40.25)"/><path d="m372.65 327.35 4.7 2.25q-4.5-1.05-6.25 1.55-1.65 4.4.85 8.4l-.55.7 2.3 1.85h.05l1.45 1.15-.4.8q-9.95-3.6-9.65 7.75-4.95-26.25-32.1-42.65l1-.85 17.85 10.75q9.3 12.7 19.45 21.15l.6-.65-22.85-27.9-6.95-20.85q.9-7.85 2.25-14.7-.6 21.75 8.7 35.55 9.8 10.4 19.55 15.7m-1.3 12.85.05.05-.05-.05" fill="#990" fill-rule="evenodd" transform="translate(-134.85 -40.25)"/><path d="m374.8 344.05.4-.8 5.1 3.45q-3.05-1.8-5.5-2.65" fill="#cc3" fill-rule="evenodd" transform="translate(-134.85 -40.25)"/><path d="M326.75 167.6q3.55 12.55 9 26.35l-1.5-.6q-4.9-11.4-9.95-24.4-12.8-33-22.55-.8-9.1-16.05-18.2 0-7.9-22.4-17.7-33.45l2.25-8.55q-11.7-1.2-13.45-14.4 1.65-3.45 4.4-7.6-99.85-18.7-67.35-28.1Q209 78.6 233.75 86q21.4 4 49.05 17.25t5.25 17.9q26.05 20.25 38.7 46.45m7.5 25.8q12.6 29.5 23.8 47.75-6.2 7.95-10.3 21.3l-.05-.35.05.4q-1.9 6.2-3.35 13.6-1.35 6.85-2.25 14.7l-1.1 11.35-7 6.15-1 .85q-14.3-30.45-34.1-48.35l4.1-10.65q-14.75 1.4-23.6-10.2-9.4-17.3 2.15-30.8-32.15.85-24-7.5-15.9.85-26.5-12.5-18.75-4.45-18.5-17.5-14.4 1.2-26.85-5.3.4-8.95 1.95-20.6-7.85 6.75-15.45 16.4-34.6-12.65-14.15-25 6.25-16.35 6.85-29.3l36.15-2.55q9.7-6.7 38.15 0 2.9 1.15 5.8 2.55v16.05l.2.3q11.4 21.15-.2 46.95 7.1.7 14.2 3h.05q15.65 5.05 31.3 17.95l3.45 15.05 1.95-12.6q11.5-.5 23.05 10.6 11.2 8.4 18.15 21.05-6.8-19.95-2.95-32.8M205.05 41.55l24 1.6q30.35-15.85 91 74-67.4-43.1-125-49.8 46.9-6.95 10-25.8m-18.7 141.15q-1.5-16.9 77.7 43.45-42-6.75-14 39-39.15-35-50-70-11.25 3.8-13.7-12.45M138.1 66.15q-11.2-19.35 23.45-23.8 47.05 11.45 28.05 11.3-8.45 11.55-34.55 12.5H138.1" fill="#300" fill-rule="evenodd" transform="translate(-134.85 -40.25)"/><path d="m259.25 174.15.25-.8-.2.8h-.05" fill="#333" fill-rule="evenodd" transform="translate(-134.85 -40.25)"/><path d="m334.25 193.35 1.5.6q-5.45-13.8-9-26.35m31.3 73.55q-13.5-25-22.2-46.95l-.1-.25m-1.55-.6h.05m72.55 89.4q4-2.2 7.8-5.1-.75 5.7-1.15 10.5-1.45 16.75 1.15 22.5-17-5.85-34 8l-7.95 8.7 4.7 2.25q1.9.45 4.25 1.55m-33.85-68.7-.05-.35.05.4v-.05q4.1-13.35 10.3-21.3m-10.3 21.35q-1.9 6.2-3.35 13.6-.6 21.75 8.7 35.55 9.8 10.4 19.55 15.7m-30.5-36.55q.9-7.85 2.25-14.7m36.2 42.55q2.4-8.5 0-25 7.5 0 10.25-4.8l-.25 12.3 2.6-13.4q6.85-1.5 13.1-4.75m-34.9 57.25 2.3 1.85m.15-.15q-1.15-1.2-1.9-2.4l-22.85-27.9-6.95-20.85-1.1 11.35q5.25 9.2 10.85 16.9l-17.85-10.75-1 .85q27.15 16.4 32.1 42.65-.3-11.35 9.65-7.75m-3.4-3.8-.05-.05q-10.15-8.45-19.45-21.15m23.3 24.2-1.45-1.15h-.05m.15-.15 1.35 1.3 5.1 3.45.75.45m-9.1-7.6q-2.5-4-.85-8.4 1.75-2.6 6.25-1.55m-43.3-21.3 7-6.15m25 57q-.25-3.8-.9-7.35m15.15-5.1q-3.05-1.8-5.5-2.65M229.05 43.15q30.35-15.85 91 74l-.1 1.65q-.9 21.7 6.8 48.8m-154.5-5.45q2.65 8.2 5.6 15.85 24.95 64.3 72.2 87.15m-77.8-103q-34.6-12.65-14.15-25 6.25-16.35 6.85-29.3.75-17.25-8.5-28.55-6.65-8.1-18.35-13.15M294.55 276.1v-.05.05q16.6 11.85 38.5 33.05m-38.5-33.05q-32.4-23.2-44.5-10.95" fill="none" stroke="#000" stroke-linecap="round" stroke-linejoin="round" stroke-opacity=".6" transform="translate(-134.85 -40.25)"/><path d="m406.5 283.05.1-.2m-.1.2q1.35 4.85-7.6 17.25l-.1.05-8.7 5.8 11.5-2.75q2.65-11.55 11.85-15.25" fill="none" stroke="#000" stroke-linecap="round" stroke-linejoin="round" transform="translate(-134.85 -40.25)"/><path d="M406.6 282.85q.05-.1.2-.1" fill="none" stroke="#fff" stroke-linecap="round" stroke-linejoin="round" transform="translate(-134.85 -40.25)"/><path d="m205.05 41.55 24 1.6m-67.5-.8 14.7-1.15q12.5-.45 28.8.35m-66.95 24.6q-11.2-19.35 23.45-23.8" fill="none" stroke="#000" stroke-linecap="round" stroke-linejoin="round" stroke-opacity=".6" transform="translate(-134.85 -40.25)"/></g></defs></svg>