<svg viewBox="0 0 297.29 284.1" xmlns="http://www.w3.org/2000/svg" xmlns:xlink="http://www.w3.org/1999/xlink"><use transform="translate(-.028 -.002)" width="297.3" height="284.1" xlink:href="#a"/><defs><g id="a"><path d="m340.95 91.8-.4-.85q2.3-1.1 3.1-1.1l-2.7 1.95M205.5 282.85l-.4.25.1-.7.3.45M50.6 135.4l.15-2.85q1.25-15.6 7.2-28-.75 27.65 49.1 39.5 11.65 24.75 0 34 21.85-8.95 33 0 38.05 14.4 77 59.3h-18Q191.8 229.5 180 221q-14.25-2.1-26.95-4.95l-11.35-2.75q-9-2.35-17.1-5.1-6.1-2.05-11.7-4.35-23.1-9.45-37.75-22.7-6.65-6.05-11.55-12.8-10.55-14.7-13-32.95m15.8-44.05q6.5-7.9 15.75-13.95 10.75 1.65 25.35 1.65 16.35 0 27.9-2.1Q147 74.9 147 72t-11.6-5q-10.75-1.9-25.6-2.05 18.25-5.4 42.2-6.95 35.1-9.25 65.5-13.8 22.5 18 10.55 39.85-44.25-16-38 34-37.8 55-72.05 39 13.05-18 7.4-36.6-5.7-18.6-9.45-19.7 29.05 63.2-49.55-9.4m164.65-49q29.3-3.5 53.9-2.35 26.6-2.2 18-20 9.7 18 32 18-17.55 11.8-24.55 21.95-70.25 51.2-107.35 59.1-28.95-43.05 38-28l-10-48.7m16.4 151.75q3.6 5.8 12.5 6.9l.65 2.55q-18.8 63.7-56.55-11.5-73.95 2.2-20.05-63l54.05-12Q257.8 95 300.2 74.25q-13.4 10.45-23.35 22.6-23.95 29.2-27.9 68.15-7.05 20.15-1.5 29.1" fill="#fc9" fill-rule="evenodd" transform="translate(-48.65 -19.5)"/><path d="M252.05 278.1q-3.7 5.5-5 3-26.1-9.55-41.55 1.75l-.3-.45L207 272q22.05-9.55 28.95 0l16.1 6.1-16.1-6.1q33.5-30.95 24.65-68.45 9.4 36.65 5.05 46.8-8.8 20.6-13.6 27.75m-87.65-39.45-2.05-.45-10.3-3.05q-4.85-1.7-10.6-4-6.85-2.75-15-6.35l-3.45-1.55-10.95-5.1-16.75-8.2-13.95-7.1-3.95-2.2-2.7-1.65q-6.1-4-10.75-8.85-19.2-20.05-13.45-54.75h.05q-.15 5.65.55 10.65l-.5-10.65q2.45 18.25 13 32.95 4.9 6.75 11.55 12.8 14.65 13.25 37.75 22.7 5.6 2.3 11.7 4.35 8.1 2.75 17.1 5.1l11.35 2.75q12.7 2.85 26.95 4.95l-2 13.05q.8 7.6-13.6 4.6M334.95 38v15q-24.95 8.55-12.9 18.05-7.3 7.1-13.75 14.6-7.65-.1-2.15-15.5 1.55-4.45 4.25-10.2-2.7 5.75-4.25 10.2l-.2-.15q.85-4.8 4.45-10.05 7-10.15 24.55-21.95m-50.2 81.15q-9.6 17.1-15.7 35.9-5.7-11.8 7.8-58.2-7.05 44.15 7.9 22.3M77.4 200.65l17.9 9.3-17.9-9.3" fill="#c96" fill-rule="evenodd" transform="translate(-48.65 -19.5)"/><path d="M57.95 104.55q3.45-7.15 8.45-13.2 78.6 72.6 49.55 9.4 3.75 1.1 9.45 19.7 5.65 18.6-7.4 36.6 34.25 16 72.05-39-6.25-50 38-34Q240 62.2 217.5 44.2l13.55-1.85 10 48.7q-66.95-15.05-38 28 37.1-7.9 107.35-59.1-3.6 5.25-4.45 10.05l-4.55 3.4-1.2.85q-42.4 20.75-62.15 42.8l-54.05 12q-53.9 65.2 20.05 63 37.75 75.2 56.55 11.5 8.85 37.5-24.65 68.45-6.9-9.55-28.95 0 9.6-15.5-7.95-34.65h18q-38.95-44.9-77-59.3-11.15-8.95-33 0 11.65-9.25 0-34-49.85-11.85-49.1-39.5" fill="#fff" fill-rule="evenodd" transform="translate(-48.65 -19.5)"/><path d="M205.2 282.4q1.7-12.1-6.15-22.35-5.3-19.45-21.05-26l2-13.05q11.8 8.5 19.05 16.35Q216.6 256.5 207 272l-1.8 10.4M305.95 70l.2.15q-5.5 15.4 2.15 15.5-9.25 10.75-16.8 22.35-3.55 5.5-6.75 11.15-14.95 21.85-7.9-22.3 9.95-12.15 23.35-22.6l1.2-.85 4.55-3.4m-36.9 85.05q-15.5 8.6-21.6 39.05-5.55-8.95 1.5-29.1 3.95-38.95 27.9-68.15-13.5 46.4-7.8 58.2" fill="#f96" fill-rule="evenodd" transform="translate(-48.65 -19.5)"/><path d="m340.95 91.8-.15.05-4.1 2.95-.65.45-4.25 3.8q-4.35 4.3-6.75 8.6l-.05.05q-3.45 6.15-2.95 12.35-43 37.5-24 67 36.3 50.75 0 90.05l-64.6 24.85Q215.15 275.5 171 291.1q14.15-14.45 0-32-24.3-20.05-59.35-40.1l.4-.85 10.95 5.1 3.45 1.55q8.15 3.6 15 6.35 5.75 2.3 10.6 4l10.3 3.05 2.05.45q22.6 5.4 34.65 21.4 7.85 10.25 6.15 22.35l-.1.7.4-.25q15.45-11.3 41.55-1.75 1.3 2.5 5-3l30-28q-12.25-15.4-13-69.05.3-31.2 20-43 8.75-33.15 31.1-45.95 5.9 4.35 2.6 7.2-5.45 4.75 6.75-2.35 7.4-4.3 11.05-6l.4.85" fill="#c00" fill-rule="evenodd" transform="translate(-48.65 -19.5)"/><path d="M320.15 92.1q-22.35 12.8-31.1 45.95-19.7 11.8-20 43 .75 53.65 13 69.05l-30 28q4.8-7.15 13.6-27.75 4.35-10.15-5.05-46.8l-.65-2.55q-8.9-1.1-12.5-6.9 6.1-30.45 21.6-39.05 6.1-18.8 15.7-35.9 3.2-5.65 6.75-11.15 7.55-11.6 16.8-22.35 7.95 3.55 11.85 6.45m-121.1 167.95q-12.05-16-34.65-21.4 14.4 3 13.6-4.6 15.75 6.55 21.05 26" fill="#600" fill-rule="evenodd" transform="translate(-48.65 -19.5)"/><path d="M111.65 219q35.05 20.05 59.35 40.1 14.15 17.55 0 32 44.15-15.6 62.45 10.85l64.6-24.85q36.3-39.3 0-90.05-19-29.5 24-67-.5-6.2 2.95-12.35l.05-.05q2.4-4.3 6.75-8.6l4.25-3.8.65-.45 4.1-2.95.15-.05 2.7-1.95-2.75 2.7-1.2 1.2-10.15 9.55-4.5 4.35 11.3-12.25.35-.6m3.85-3.85q-3.65 1.7-11.05 6-12.2 7.1-6.75 2.35 3.3-2.85-2.6-7.2m-68.1 186q-3.7 5.5-5 3-26.1-9.55-41.55 1.75l-.4.25.1-.7q1.7-12.1-6.15-22.35m-34.65-21.4-2.05-.45-10.3-3.05q-4.85-1.7-10.6-4-6.85-2.75-15-6.35l-3.45-1.55-10.95-5.1m-.4.85-16.35-9.05-13.95-7.1-3.95-2.2-2.7-1.65q-6.1-4-10.75-8.85-19.2-20.05-13.45-54.75l.05-.3.05.3.15-2.85q1.25-15.6 7.2-28 3.45-7.15 8.45-13.2 6.5-7.9 15.75-13.95 10.75 1.65 25.35 1.65 16.35 0 27.9-2.1Q147 74.9 147 72t-11.6-5q-10.75-1.9-25.6-2.05 18.25-5.4 42.2-6.95 35.1-9.25 65.5-13.8l13.55-1.85q29.3-3.5 53.9-2.35 26.6-2.2 18-20 9.7 18 32 18v15q-24.95 8.55-12.9 18.05-7.3 7.1-13.75 14.6 7.95 3.55 11.85 6.45m20.4-1.15q2.3-1.1 3.1-1.1.45-.35.85-.6l.55-.5q1.05-.7-.55.5l-3.6 3.3m-11.35 10.75 11.4-11.5m-34.8-21.65q1.55-4.45 4.25-10.2-3.6 5.25-4.45 10.05l-4.55 3.4-1.2.85q-13.4 10.45-23.35 22.6-7.05 44.15 7.9 22.3-9.6 17.1-15.7 35.9-15.5 8.6-21.6 39.05 3.6 5.8 12.5 6.9l.65 2.55q9.4 36.65 5.05 46.8-8.8 20.6-13.6 27.75l-16.1-6.1q-6.9-9.55-28.95 0l-1.8 10.4M306.15 70.15q-5.5 15.4 2.15 15.5-9.25 10.75-16.8 22.35-3.55 5.5-6.75 11.15m25.65-59.2q7-10.15 24.55-21.95m-58.1 58.85q-23.95 29.2-27.9 68.15-7.05 20.15-1.5 29.1m21.6-39.05q-5.7-11.8 7.8-58.2M50.6 135.4l.5 10.65q-.7-5-.55-10.65v-.3M180 221q-14.25-2.1-26.95-4.95l-11.35-2.75q-9-2.35-17.1-5.1-6.1-2.05-11.7-4.35-23.1-9.45-37.75-22.7-6.65-6.05-11.55-12.8-10.55-14.7-13-32.95m7.35-30.85q-.75 27.65 49.1 39.5 11.65 24.75 0 34 21.85-8.95 33 0 38.05 14.4 77 59.3h-18Q216.6 256.5 207 272M95.3 209.95l16.75 8.2m-16.75-8.2-17.9-9.3m121.65 36.7Q191.8 229.5 180 221l-2 13.05q15.75 6.55 21.05 26m-34.65-21.4q14.4 3 13.6-4.6m55.45 67.9q.5.6 1.6 1.15m25.55-99.55q8.85 37.5-24.65 68.45" fill="none" stroke="#000" stroke-linecap="round" stroke-linejoin="round" stroke-opacity=".4" transform="translate(-48.65 -19.5)"/></g></defs></svg>