<svg viewBox="0 0 88.254 113.2" xmlns="http://www.w3.org/2000/svg" xmlns:xlink="http://www.w3.org/1999/xlink"><use width="88.25" height="113.2" xlink:href="#a"/><defs><g id="a"><path d="m262.2 147.1 3.1 20q-1.1.2-1.95.7l-2.8-16.65-.4-2.85q.95-.7 2.05-1.2m29.5 13.15 2.85-1.55.35.15q1.55.7 2.55 1.7l.55.55-3.05 1.6-.05-.05-.65-.7q-1-1-2.55-1.7m-10 18.5 16.9-8 1.7 2.9-14.25 5.75 4.55 8.25.3.4q7.25 15.8 10.75 28 1.2 5.25 1.05 6.05-.35.7-.05 4.5.1 7.6-3.4 11.2-3.65 7.4-11.4 10.45l-4.45-7.55 4.45 7.55-3.45 1.1-2.55 2-1.55-.65-2.45-7.9 3.4-1.1 2.15-1q3.25-1.8 6.1-4.3l.25.45q1.65 3 5.85 3.75-3.95-2.35-4.45-6 7.9-9.3 4.85-22-.8-2.55-1.3-4.9l-.6-1.9q-2.4-8.15-4.95-14.25-2.7-5.95-5.5-10.05l-.15-.2-.45-.7-.5-.6-.45-.6-.4-.65m20.15-12.5-3.25 1.3q-.5-.85-1.7-1.2l2.85-1.5.35.1q1.25.35 1.75 1.3M274.4 255.5v.05l-.45-.05-.15-.05h-4.65l-5.75-1.8q-2.35-.75-4.5-2.2l-.1-.1-.65-1.45q5.45 3.1 11.45 3.45h2.25q-.75-2.4-1.9-4.25l4.45 6.4h-.45.45m-40.05-31.35-.85-2.5 8.6-.7.4 1.1q.05.6.4 1.3l-8.55.8m68.45-40.7 3.4 4.35 1.8 7.5-1.75.55h-.6q-6.15-.05-10.35-3.15l-.25-.15-.4-1.75q4.6 4 11.3 3.2l-.3-2.55q-.75-4.5-2.85-8m-55.5 47.4q5.85 7.65 16.85 12.05l.35.1 2.85.7.4.05q5.35.2 10.1-.95l2.45 7.9q-5.45-.35-10.45-1.7-1.9-2.8-5-4.65-2.05.4-3.5 1.5-3.95-2.05-7.6-4.5-6.2-5.6-6.45-10.5m3.6-50.7-.05.05-.85 1.6-2.65-7.65 3.55 6m-7.5 7 1.7 4.65-.7 1.55q-2.5 2.95-5.65 2l-.8-.95-.6-.65.7.1q3.4.15 6.1-2.9-.2-2.1-.75-3.8m37.85 54.55 3.15 7.65-3.15-7.65" fill="#849f9f" fill-rule="evenodd" transform="translate(-230.85 -143.35)"/><path d="M290.4 159.55q-5.45-6.4-9.2-9.4l-.95-.65q-5.75-4.35-11.8-4.35l-2.05.2 4.55-1.55.7-.05q6.05 0 11.8 4.35l.95.65q3.75 2.95 9.2 9.35l-3.2 1.45 3.2-1.45.2.25q.35.1.75.35l-2.85 1.55-1.1-.5-.2-.2m5.15 6.5.05-.25q.3-1.5-.6-3l-.05-.1 3.05-1.6.2.3q.9 1.55.55 3.1v.15l1 .2-2.85 1.5-1.35-.3m3.05 4.7q.55-1.65.3-2.6l-.3-.6 3.25-1.3.25.5q.25.9-.25 2.5l-.05.1 1.7 2.9q7.45 13.65 13.65 36.2 1.5 5.35 1.55 10.5.05 14.05-10.65 24.25-5.75 5.4-13 8.25 5.35-2.65 9.8-6.85 10.7-10.2 10.65-24.25-.05-5.15-1.55-10.5-6.2-22.55-13.65-36.2l-1.7-2.9 3.25-1.5-3.25 1.5m.15-6.25-3.15 1.3 3.15-1.3" fill="#658383" fill-rule="evenodd" transform="translate(-230.85 -143.35)"/><path d="m266.4 145.35 2.05-.2q6.05 0 11.8 4.35l.95.65q3.75 3 9.2 9.4l.2.2 1.1.5-.05.05-9.85 11.8 12.45-10.15.65.7.05.05.05.1q.9 1.5.6 3l-.05.25-15.25 10.9 15.25-10.9 1.35.3-7.9 6.3 9.9-4.5q.25.95-.3 2.6l-16.9 8-1.4-1.8-1.95-2.4-2.5-2.75-1-.9q-4.45-3.95-9.3-3.85l-.25.05-3.1-20q1.85-1.05 3.9-1.65l.3-.1m24.2 14.4-12.25 14.8 12.25-14.8m-4.05 1.45.05-2.55-6.95-7.25-10.7-4.8-3.1 2q12.45 2.1 20.7 12.6m1.3 87.05q7.75-3.05 11.4-10.45 3.5-3.6 3.4-11.2-.3-3.8.05-4.5.15-.8-1.05-6.05-3.5-12.2-10.75-28l-.3-.4-4.55-8.25 14.25-5.75q7.45 13.65 13.65 36.2 1.5 5.35 1.55 10.5.05 14.05-10.65 24.25-4.45 4.2-9.8 6.85l-.95.45-3.25 1.3q-.8 3.9-4.4 1.3-1.7 2.9-4.7.7l-7.35.3-4.45-6.4-.1-.1q5 1.35 10.45 1.7l1.55.65 2.55-2 2.05 5.15-2.05-5.15 3.45-1.1 3 4.95-3-4.95m-29.05 3.1q-14.15-7.6-21.3-20.3-2-3.5-3.15-6.9l8.55-.8 2.1 4.15 2.3 3.35q.25 4.9 6.45 10.5 3.65 2.45 7.6 4.5-.75.3-1.25.95-1.3 1.1-2 2.95v.05l.05.1.65 1.45m-25.3-29.7q-1.25-.8-1.5-1.7l9.7-.6.4 1.6-8.6.7m-1.3-3.65.4-.75q-1.35-1.25-1.35-2.8l9.9 1.85v.1l.2 1.5.15.85-9.3-.75m-.4-6.1.5-.9 1.65.7 2.25-14.15 3.25 1.5-1.6-4.45.1-.2.8.95q3.15.95 5.65-2l.7-1.55-1.7-4.65-.1-.3-.55-1.25q-.65-1.45-1.55-2.55l3.75-13.15 2.2 2.1.35-6.7.15-.25q3.85-7.25 9.3-10.65l-.15-.55q1.6-2.85 3.75-2.7l2.8 16.65q-1.4.4-2.5 1.15l-3.9-14.55 3.9 14.55q-5.6 3.15-9.8 10.95l-.15.25-3.55-6 2.65 7.65-.25.5q-4.8 9.7-8.1 25.95-.25.9-.35 1.9-.35 2.3-.25 4.6l.05.85-9.3-3.7m71-28.45-1-1.5-2.05-2.55q-2.2 1.9-3.45 4.2-1.85 3.1-2.2 6.9l.55.3.4 1.75.25.15q4.2 3.1 10.35 3.15h.6l1.75-.55-1.8-7.5-3.4-4.35m-61.75 31.3-7.1-3.05 7.1 3.05m-8.45 2.5 8.75.65-8.75-.65m49.15 37.95-1.45-4.5 1.45 4.5" fill="#cfdada" fill-rule="evenodd" transform="translate(-230.85 -143.35)"/><path d="M294.25 161.95 281.8 172.1l9.85-11.8.05-.05q1.55.7 2.55 1.7m-7.7-.75q-8.25-10.5-20.7-12.6l3.1-2 10.7 4.8 6.95 7.25-.05 2.55m12.35 6.95-9.9 4.5 7.9-6.3q1.2.35 1.7 1.2l.3.6m-66.9 51.8q-.3-.9.2-1.95l9.3.75.2.6-9.7.6m-.75-5.5q-.05-1.25.55-2.55l9.3 3.7.05.7-9.9-1.85m1.05-3.45q-.05-3.15.7-6.3 8.05-39.95 23.15-53.4 1.1-4.25 4-3l.4 2.85q-2.15-.15-3.75 2.7l.15.55q-5.45 3.4-9.3 10.65l-.15.25-.35 6.7-2.2-2.1-3.75 13.15-.4-.4q-2.8 4-3.4 9.25-.25.8-.15 1.85h.1l.6.65-.1.2 1.6 4.45-3.25-1.5-2.25 14.15-1.65-.7m23.85-59.7.65 2.55-.65-2.55" fill="#e7edea" fill-rule="evenodd" transform="translate(-230.85 -143.35)"/><path d="m265.3 167.1.25-.05q4.85-.1 9.3 3.85l1 .9 5.1 9.7q10.45 21.95 9.35 34.3-5.7-1.15-9.65-1.15-3.9-3-8.95-5 3.45 2.2 6.5 5.15l-1 .1q-2.15.25-3.55 1.05l-8 2.9q-19.45 2.25-24.35-8.7.1-1 .35-1.9 3.3-16.25 8.1-25.95l.25-.5q1.45-1.4 3.1-1.8-2.55 3.3-4.55 7.7-3.6 7.5-4.15 14-.65 6.35 2.1 8.3 2.8 1.9 4.6-9.25 1.7-11.35 5.05-17 .8-1.55 1.9-2.85 1.35.85 2.9 2.4-1.05-2.2-2.25-3.35 2.5-2.95 5.5-4.35 4.7-2.35 1.3-3.75-3.25-1.55-8.35 3.35-1.6 1.5-2.95 3.3-1.55.25-3.15 1.4 4.2-7.8 9.8-10.95 1.1-.75 2.5-1.15.85-.5 1.95-.7m2.55 15.2q-.3-.3-.65-.25-.45 0-.55.4l-.15.9q-.1.35.15.65l.55.3.6-.35.3-.8-.25-.85m-4.55 7.15q.85-.9.9-2.1-.1-1.25-.9-2-.85-.9-1.95-.9-1.15.1-1.95.95-.85.9-.8 2.15 0 1.1.8 2 .8.75 1.9.75 1.1-.1 2-.85m-3.85 16.85q.8-.05 1.45-.8t.65-1.85q0-1.25-.6-2.05-.65-.8-1.45-.75-1-.15-1.2.95l-.4 2q-.15 1 .3 1.75.3.55 1.25.75m1.15-11.35q-.4-.55-1-.5-.65-.15-1.1.3-.45.25-.45.75-.1.45.5.8l1.05.3.95-.1.45-.7q-.1-.6-.4-.85m18.1-10.25q-2.2-1.4-4.15-.45-2 .7-2.6 3.15-.75 2.3.3 5l.8 1.45q.7 1.25 1.9 2.15l.4.3q1.95 1.3 4.1.7l1-.45 1.25-1.4.6-1.35q.65-2.45-.3-5.1-1.1-2.8-3.3-4" fill="#7ccaff" fill-rule="evenodd" transform="translate(-230.85 -143.35)"/><path d="M254.2 178.5q1.35-1.8 2.95-3.3 5.1-4.9 8.35-3.35 3.4 1.4-1.3 3.75-3 1.4-5.5 4.35-1.95-1.95-4.5-1.45m3.85 2.4q-1.1 1.3-1.9 2.85-3.35 5.65-5.05 17-1.8 11.15-4.6 9.25-2.75-1.95-2.1-8.3.55-6.5 4.15-14 2-4.4 4.55-7.7 2.35-.65 4.95.9" fill="#b7e2ff" fill-rule="evenodd" transform="translate(-230.85 -143.35)"/><path d="M278.7 184.7q2.2 1.2 3.3 4 .95 2.65.3 5.1l-.6 1.35-1.25 1.4-1 .45q-2.15.6-4.1-.7l-.4-.3q-1.2-.9-1.9-2.15l-.8-1.45q-1.05-2.7-.3-5 .6-2.45 2.6-3.15 1.95-.95 4.15.45" fill="#fff" fill-rule="evenodd" transform="translate(-230.85 -143.35)"/><path d="m267.85 182.3.25.85-.3.8-.6.35-.55-.3q-.25-.3-.15-.65l.15-.9q.1-.4.55-.4.35-.05.65.25m-7.25 12.65q.3.25.4.85l-.45.7-.95.1-1.05-.3q-.6-.35-.5-.8 0-.5.45-.75.45-.45 1.1-.3.6-.05 1 .5m-1.15 11.35q-.95-.2-1.25-.75-.45-.75-.3-1.75l.4-2q.2-1.1 1.2-.95.8-.05 1.45.75.6.8.6 2.05 0 1.1-.65 1.85t-1.45.8" fill="#c4e8ff" fill-rule="evenodd" transform="translate(-230.85 -143.35)"/><path d="M263.3 189.45q-.9.75-2 .85-1.1 0-1.9-.75-.8-.9-.8-2-.05-1.25.8-2.15.8-.85 1.95-.95 1.1 0 1.95.9.8.75.9 2-.05 1.2-.9 2.1" fill="#e1f3ff" fill-rule="evenodd" transform="translate(-230.85 -143.35)"/><path d="m294.65 190.8-.55-.3q.35-3.8 2.2-6.9-1.2 3-1.35 6.25l.05-.05q5.3 3.4 10.65 1.65l.3 2.55q-6.7.8-11.3-3.2m-16.45 24q-3.05-2.95-6.5-5.15 5.05 2 8.95 5 4.5 3.45 7.2 8.15 2.95 5.2 3.3 11.8l-.8.9-.25.25q-.5-6.1-3.25-10.95-2.5-4.35-6.45-7.6l-2.2-2.4m-27.35-34.6.05-.05.15-.25q1.6-1.15 3.15-1.4 2.55-.5 4.5 1.45 1.2 1.15 2.25 3.35-1.55-1.55-2.9-2.4-2.6-1.55-4.95-.9-1.65.4-3.1 1.8l.85-1.6m-7.45 6.95q.55 1.7.75 3.8-2.7 3.05-6.1 2.9l-.7-.1h-.1q-.1-1.05.15-1.85l1.2.35q2.3.35 5-1.8h.05q-.2-2.6-.9-4.85l.55 1.25.1.3m26.2 66.2q-.2-2.55-1.9-4.95-1.25-1.8-3.15-3.2v-.05q-1.6.15-2.85.85-.9.25-1.6.8.5-.65 1.25-.95 1.45-1.1 3.5-1.5 3.1 1.85 5 4.65l.1.1q1.15 1.85 1.9 4.25h-2.25" fill="#1f94a0" fill-rule="evenodd" transform="translate(-230.85 -143.35)"/><path d="M241.3 210.15q4.9 10.95 24.35 8.7l8-2.9q1.4-.8 3.55-1.05l1-.1 2.2 2.4q3.1 3.75 5.4 8.4-15.15 18-41.85-2.4l-1.45-1.15-.4-1.1-.4-1.6-.2-.6-.15-.85-.2-1.5v-.1l-.05-.7-.05-.85q-.1-2.3.25-4.6m39.35 4.5q3.95 0 9.65 1.15-.4 3-1.45 5.45l-1 1.55q-2.7-4.7-7.2-8.15" fill="#7de0fd" fill-rule="evenodd" transform="translate(-230.85 -143.35)"/><path d="M298.95 181.15q-.15 0-.15.1-2.5 2.55-2.8 6.45 2.45-3 5.5-3.5 0-1.45-1.5-2.9-.45-.5-1.05-.15m-2.65 2.45q1.25-2.3 3.45-4.2l2.05 2.55 1 1.5q2.1 3.5 2.85 8-5.35 1.75-10.65-1.65l-.05.05q.15-3.25 1.35-6.25m-53.55 2q.7 2.25.9 4.85h-.05q-2.7 2.15-5 1.8l-1.2-.35q.6-5.25 3.4-9.25l.4.4q.9 1.1 1.55 2.55m-1.45-1.65-.05-.05-.25-.1q-.25-.05-.45.35-.95 1.1-.85 2.2l.55.1q1.35.45 2.75 2.35-.25-3-1.7-4.85m16.85 65.95-.05-.1v-.05q.7-1.85 2-2.95.7-.55 1.6-.8 1.25-.7 2.85-.85v.05q1.9 1.4 3.15 3.2 1.7 2.4 1.9 4.95-6-.35-11.45-3.45m.95-.85q0 .5.6.8 1.5 1.05 2.7.95-.6-2.3.55-4.25l.3-.4-.8.15q-2.35.7-3.3 2.6l-.05.15" fill="#12ccf3" fill-rule="evenodd" transform="translate(-230.85 -143.35)"/><path d="M298.95 181.15q.6-.35 1.05.15 1.5 1.45 1.5 2.9-3.05.5-5.5 3.5.3-3.9 2.8-6.45 0-.1.15-.1m-57.65 2.8q1.45 1.85 1.7 4.85-1.4-1.9-2.75-2.35l-.55-.1q-.1-1.1.85-2.2.2-.4.45-.35l.25.1.05.05m17.8 65.1.05-.15q.95-1.9 3.3-2.6l.8-.15-.3.4q-1.15 1.95-.55 4.25-1.2.1-2.7-.95-.6-.3-.6-.8" fill="#c5f2fc" fill-rule="evenodd" transform="translate(-230.85 -143.35)"/><path d="M291.15 234.6q.5 3.65 4.45 6-4.2-.75-5.85-3.75l-.25-.45.6-.65.25-.25.8-.9" fill="#779595" fill-rule="evenodd" transform="translate(-230.85 -143.35)"/><path d="m290.1 235.75-.6.65q-1.4-5.9-3.7-10.8-2.3-4.65-5.4-8.4 3.95 3.25 6.45 7.6 2.75 4.85 3.25 10.95" fill="#166a74" fill-rule="evenodd" transform="translate(-230.85 -143.35)"/><path d="m275.85 171.8 2.5 2.75 1.95 2.4 1.4 1.8.4.65.45.6.5.6.45.7.15.2q2.8 4.1 5.5 10.05 2.55 6.1 4.95 14.25l.6 1.9q.5 2.35 1.3 4.9 3.05 12.7-4.85 22-.35-6.6-3.3-11.8l1-1.55q1.05-2.45 1.45-5.45 1.1-12.35-9.35-34.3l-5.1-9.7m13.65 64.6q-2.85 2.5-6.1 4.3l-2.15 1-3.4 1.1q-4.75 1.15-10.1.95l-.4-.05-2.85-.7-.35-.1q-11-4.4-16.85-12.05l-2.3-3.35-2.1-4.15q-.35-.7-.4-1.3l1.45 1.15q26.7 20.4 41.85 2.4 2.3 4.9 3.7 10.8" fill="#0293bd" fill-rule="evenodd" transform="translate(-230.85 -143.35)"/><path d="M62.75 14.75q-5.45-6.4-9.2-9.35l-.95-.65Q46.85.4 40.8.4l-.7.05L35.55 2l-.3.1q-2.05.6-3.9 1.65m32.35 11.6q-.4-.25-.75-.35l-.2-.25M71 25.9q.5-1.6.25-2.5l-.25-.5m-3.85-5.15.2.3q.9 1.55.55 3.1v.15l1 .2.35.1q1.25.35 1.75 1.3m-7.3-7.55.35.15q1.55.7 2.55 1.7l.55.55M71 25.9l-.05.1 1.7 2.9Q80.1 42.55 86.3 65.1q1.5 5.35 1.55 10.5.05 14.05-10.65 24.25-5.75 5.4-13 8.25l-.95.45-3.25 1.3q-.8 3.9-4.4 1.3-1.7 2.9-4.7.7l-7.35.3m-.6-.05H38.3l-5.75-1.8q-2.35-.75-4.5-2.2m-.1-.1q-14.15-7.6-21.3-20.3-2-3.5-3.15-6.9l-.85-2.5q-1.25-.8-1.5-1.7-.3-.9.2-1.95l.4-.75Q.4 72.65.4 71.1q-.05-1.25.55-2.55l.5-.9q-.05-3.15.7-6.3Q10.2 21.4 25.3 7.95q1.1-4.25 4-3 .95-.7 2.05-1.2" fill="none" stroke="#000" stroke-linecap="round" stroke-linejoin="round" stroke-opacity=".6" stroke-width=".8"/><path d="m35.55 2 2.05-.2q6.05 0 11.8 4.35l.95.65q3.75 3 9.2 9.4m-25.1 7.55.25-.05q4.85-.1 9.3 3.85l1 .9 2.5 2.75 1.95 2.4 1.4 1.8.4.65m8.5-19.65-.2-.2m.2.2 1.1.5m2.55 1.7q-1-1-2.55-1.7m3.85 5.8.05-.25q.3-1.5-.6-3l-.05-.1m-.05-.05-.65-.7m4.35 8.8q.55-1.65.3-2.6m-2-1.8-1.35-.3m-13 13.95.5.6.45.7.15.2q2.8 4.1 5.5 10.05 2.55 6.1 4.95 14.25l.6 1.9q.5 2.35 1.3 4.9 3.05 12.7-4.85 22l-.8.9-.25.25-.6.65q-2.85 2.5-6.1 4.3m16.9-67.05-1.7-2.9m0-3.2.3.6m-40 83.3-.1-.1m38.1-85q1.2.35 1.7 1.2M30 25.6q1.1-.75 2.5-1.15m-13.6 14.5q-4.8 9.7-8.1 25.95-.25.9-.35 1.9m1.2 11.9q.05.6.4 1.3l2.1 4.15 2.3 3.35q5.85 7.65 16.85 12.05m3.6.85q5.35.2 10.1-.95l3.4-1.1 2.15-1m-33.4-58.9.85-1.6m.2-.3q4.2-7.8 9.8-10.95m4.45-1.85q-1.1.2-1.95.7M10.2 71.4q-.1-2.3.25-4.6m-.2 5.45-.05-.85m.3 3.15-.2-1.5m0-.1-.05-.7m.4 3.15-.15-.85m.35 1.45-.2-.6m1 3.3-.4-1.1-.4-1.6m32.7 36.15h-.45M69.45 30.3Q76.9 43.95 83.1 66.5q1.5 5.35 1.55 10.5.05 14.05-10.65 24.25-4.45 4.2-9.8 6.85" fill="none" stroke="#000" stroke-linecap="round" stroke-linejoin="round" stroke-opacity=".302" stroke-width=".6"/><path d="m59.55 16.2 3.2-1.45M47.5 31.2l12.25-14.8m-10.3 17.2L64.7 22.7M50.85 35.4l16.9-8L71 25.9M52.55 97.35 57 104.9l3 4.95m4.75-87.4 3.15-1.3M25.95 10.5l.15.55L30 25.6m2.5-1.15L29.7 7.8l-.4-2.85m-3.35 5.55-.65-2.55m8 91.6.35.1 2.85.7.4.05M3.1 68.35l7.1 3.05m-7.1-3.05-1.65-.7m9.05 6.9-8.75-.65m9.5 3.7-8.6.7m50.9 27.7-3.15-7.65m-.95 9 1.45 4.5m2.65-5.85 2.05 5.15m-6.15-3.8L47 99.45" fill="none" stroke="#000" stroke-linecap="round" stroke-linejoin="round" stroke-opacity=".302" stroke-width=".6"/><path d="M27.85 36.6q1.2 1.15 2.25 3.35m-9.9-3.4q1.6-1.15 3.15-1.4" fill="none" stroke="#b7e2ff" stroke-linecap="round" stroke-linejoin="round" stroke-width=".6"/><path d="m43.1 112.15-.15-.05" fill="none" stroke="#000" stroke-linecap="round" stroke-linejoin="round" stroke-opacity=".6" stroke-width=".6"/><path d="M60.3 91.25q.5 3.65 4.45 6M20.05 36.8l-3.55-6" fill="none" stroke="#e7edea" stroke-linecap="round" stroke-linejoin="round" stroke-width=".6"/><path d="M23.35 35.15q2.55-.5 4.5 1.45" fill="none" stroke="#e1f3ff" stroke-linecap="round" stroke-linejoin="round" stroke-width=".6"/><path d="M40.85 66.3q5.05 2 8.95 5m7.2 8.15q2.95 5.2 3.3 11.8M57 79.45q-2.7-4.7-7.2-8.15" fill="none" stroke="#b7e2ff" stroke-linecap="round" stroke-linejoin="round" stroke-width=".6"/></g></defs></svg>