<svg viewBox="0 0 109.85 111.35" xmlns="http://www.w3.org/2000/svg" xmlns:xlink="http://www.w3.org/1999/xlink"><use width="109.85" height="111.35" xlink:href="#a"/><defs><g id="a"><path d="m264.6 151.05.05-5.5 2.3-.35 5.45-.7v.6l-5.4 1.6.05 4.1-2.45.25m7.85 7.25v.9l-5.65 1.85-.5 2.15-1.6.3-.05-4.4 6-.6 1.8-.2m19.25 10 2.8-2.95 6.35 5.45-.5.6-5.95-2.25-.95.45-1.75-1.3m9.4-9.8 4.5-4.65 2.1 1.6 4.6 3.9-.75.7-4.8-1.75-.5-.1-.85-.45-.1.15-2.2 2.35-2-1.75m7.15 34.35 3.95-.05v2.75l-3.7-.4-.25-2.3m14.2-.25 7.1-.05.05 2.9.1 2.35-4.95-.45h-.1l-1.8 4.3-.3.05v-1.95l-.05-4.3-.05-2.85m-8.55 43.9.95 1-4.55 3.85-2.15 1.8-8.2-8.35 2.05-1.75.65-.6.15-.15 4.3 3.6.15.15 2.6 2 4.05-1.55m-41.05 18.9-5.15-.75-2.5-.35v-9.85l2.45.3 1.05.1h.05l.2 4.85.2 3.3 3.7 2.4m-7.75-19.5v-.5l.35.1 1.7.35.05.25-2.1-.2m-18.8-9.7-.1.1-4.85-5.55.85-.95 3.1 4 1 2.4m-10.55 10.7-.5.6-3.25-3.75-1.4-1.9 5.7-5.85 1.45 1.8.15.15-1.8 3.75-.1.2-1.05 2.25.8 2.75m-14.55-35.7-.95.05v-6.95l7.65-.15v3.75l-3.7.6-2.6.45-.4 2.25m13.6-7.1 1.6-.1q-.25 1.25-.2 2.7l-1.45.35v-.15l.05-2.8m0-25.65-3.2-3.3 1.4-1.65 3.15-3.9 3.3 3.25-.35.5-2.7-1.05-2.7 1.85-.7-.65.7.65 2.5 2.55-1.4 1.75m9.65-.6 3.95 3.9-.7.65-5.05-2.45 1.8-2.1M266 147.3v1-1m.95-2.1.05 1.5-.05-1.5m-33.4 20.15.5.55-.5-.55m-9.05 30.25-.75-.05.75.05m-.3 2.05v.85-.85m-3.95-1.1 7.65-.1-7.65.1m11.75 37.2 5.75-5.95-5.75 5.95m2.65-4-.55.5.55-.5m70.45-73.25-.75.75.75-.75m2.6-1.05-2.3 2.3 2.3-2.3m19.3 38.7h-1.25H327m-.55 2.1-.05.65.05-.65m3.15-.8h-7.1 7.1m-19.3 45.9-8.3-8.3 8.3 8.3m-5.4-4 .6.8-.6-.8m-38.15 11.6-.1.95.1-.95m.95 5.7-.05-9.9.05 9.9" fill="#d6d6d6" fill-rule="evenodd" transform="translate(-220.05 -144.3)"/><path d="M312.2 192.8q2.45.75 4.6 0l5.65-.2.05 2.85.05 4.3q-2.7 1.05-5.65-2.3l-.1-4.65.1 4.65q-2.4 1.95-4.7-1.75v-2.9m-11.95 30.65q1.2 1.5 3.2 2.8.8 1.75 3.05 2.95l-3.7 3.1-.15.15q-1.65-.75-1.85-3.8-1.8-1.15-2.3-3.35l1.75-1.85m-35.05 21q.7-1.8-.1-3.45.6-2.6 0-5.1l2.1.2q2.5 3.3.9 5.2 1.9 1.65.6 3.55l-1.05-.1-2.45-.3m-37.3-50.3 2.8-.1q2 .6 4.1.05l-.05 2.8q-2.1 2.15-4.05.65-1.45 1.25-2.8.4v-3.8m11.55-31.3.45.65q.75 1.2 2.2 2 .85 1.3 2.35 2.35l-1.8 2.1-.05.05q-2.7.15-1.7-3.1-2.15.15-1.9-3.5l.1-.05.35-.5m25.2-3.75q.75-2.2.05-3.7.35-2.6-.1-4.35l2.45-.25.2-.05q2.95 1.85 1.8 4.1l-4.35.55 4.35-.55q2.15 1.3 1.6 3.65l-6 .6m-22.55 6.4-1.2 1.4 1.2-1.4m-11.4 28.55v3.5-3.5m72.75 32.2-2.65 2.4 2.65-2.4M265.1 241l3 .3-3-.3" fill="#928f4e" fill-rule="evenodd" transform="translate(-220.05 -144.3)"/><path d="m272.4 145.1-.05 4.95-5.1.7-.2.05-.05-4.1 5.4-1.6m.05 14.1-.05 3.55-3.45.15-2.65.3.5-2.15 5.65-1.85m39.1.85-3.85 3.9-4.6-3.7 2.2-2.35.1-.15.85.45.5.1 4.8 1.75m-11.2 11.35-2.2 2.2-2-1.85-2.7-2.15.95-.45 5.95 2.25m29.35 26.4v3.9l-6.85-.05 1.8-4.3h.1l4.95.45m-17.45 3.85h-3.5v-2.4l-.25-4.1 3.7.4v.15l.05 5.95m-5.75 27.55 7.4 7.3-4.05 1.55-2.6-2-.15-.15-4.3-3.6 3.7-3.1m-33.5 7.1v.35l-5.8-.55-.05-.25.4.05 1.85.2 3.6.2m.05 9.1v10.05l-.2-.05-3.7-2.4-.2-3.3-.2-4.85 4.3.55M247 225.55l-.7.65-1-2.4 1.7 1.75m-6.05 6.1-5.2 5.25-.8-2.75 1.05-2.25.1-.2 1.8-3.75 3.05 3.7m-4.75-30.35h-1.45v-4.25l1.45-.35-.1 2.7.1 1.9m-8.3-.05-6.7-.05.4-2.25 2.6-.45 3.7-.6v3.35m15.5-24.05-3.75-3.8 2.95-3.4.05-.05 5.05 2.45q-1.4 1.2-2.6 2.75l-1.7 2.05m24.3-29.7.5-.05-.5.05m-28.6 15.85-.1.05-2.8 3.3-2.5-2.55 2.7-1.85 2.7 1.05m-4.3 1.05.3-.35-.3.35m34.7 85.45-.55-.15.55.15" fill="#a3a3a3" fill-rule="evenodd" transform="translate(-220.05 -144.3)"/><path d="M272.35 150.05q-.65 2.25.1 4.4-.45 1.85 0 3.85l-1.8.2q.55-2.35-1.6-3.65 1.15-2.25-1.8-4.1l5.1-.7m22.15 15.3q2.25-1.2 3.05-3.1 2.2-1.8 3.55-3.75l2 1.75 4.6 3.7q-2.45 1.3-3.75 3.75-1.75 1.15-3.1 3.1l-6.35-5.45m28.05 36.35q-2.9-.85-5.6 0-2.3-.6-4.7-.05l-.05-5.95q2.3 3.7 4.7 1.75 2.95 3.35 5.65 2.3v1.95m-13.8-.05q-.6 12.45-8.5 21.8l-1.75 1.85q.5 2.2 2.3 3.35.2 3.05 1.85 3.8l-.65.6-2.05 1.75q-.9-2.2-2.85-2.9-1.2-1.8-2.65-3.1-8.9 6.85-19.75 7.45l-1.7-2.1q-1.35-.95-2.55-1.35l-.75-.4-3.4-1.35q-.7-.4-1.2-.5-6.25-2.55-12.25-4.15l-.55-.2-.65-.5-2.5-2.4q-2.45-2.6-4.15-5.4l-.3-.65q-2.25-3.5-3.6-7.4-1.9-5.55-4.15-2.35-.7-3.05-.75-6.2l-.1-1.9.1-2.7q-.05-1.45.2-2.7 1.25-9.35 7-16.8l1.7-2.05q1.2-1.55 2.6-2.75l.7-.65q2.2-2.1 4.8-3.7l5.45.65q1.35-.4 3.4 0h2.7l6.25-.3 1.5-.2 9-1.8q3 .5 7.55 4.65l5.95 5.85 3.3 3.8q1.6 6.55 4.3 12.25l1.55 3.05 1.15 1.9.35.55q1.35 1.75 3.1 1.85v1.35m-35.75 35q-.8 2.25 0 5.15-.7 1.55.05 3.6l-4.3-.55h-.05q1.3-1.9-.6-3.55 1.6-1.9-.9-5.2l5.8.55M243.4 229q-.2.1-.25.45-1.5.5-2.2 2.2l-3.05-3.7-.15-.15-1.45-1.8q1.45-.6 2.05-2.15l1.55-1.2 3.5 6.35m-8.65-27.7q-1.95-.7-4.05-.05-1.4-.6-2.8 0v-3.3q1.35.85 2.8-.4 1.95 1.5 4.05-.65v4.4m4.9-27.9q-.8-1.9-2.25-2.35-1.2-1.8-2.6-2.6l1.4-1.75 2.8-3.3q-.25 3.65 1.9 3.5l-3.5 4.15 3.5-4.15q-1 3.25 1.7 3.1l-2.95 3.4m32.8-18.95-3.4.4 3.4-.4m.05 16.2q-1.95-.15-3.9.05l-3.85.55q-6.4 1.2-11.4 5.35-1.85 1.4-3.4 3.3l-1.8 2.15q-4.05 5.3-5.05 11.85-.5 2.4-.35 5.15l.1 2.3.05.25q.4 7.1 4.3 12.95 1.15 1.8 2.8 3.65l2.15 2.05-2.15-2.05q-1.65-1.85-2.8-3.65l6.55-6.75q1.6 5.4 5.05 5.65l-6.65 6.8q3.55 3.35 8.1 5.25v.25h.55v-.1q1.9.7 4.25 1.2l3.9.55 3.95.05q7.6-.55 13.85-5.05h1.1q3.85 0 8.1-1.8.05-.15.45-.2.25-.3.7-.55 2.1-1.7 3.05-4.7l.3-1.05q-.1-5.45-2-10.25l.2-2.25.1-2.7q0-3.05-.55-5.9.55 2.85.55 5.9l-.1 2.7-10.6-.1q3.05-4.2-.2-8.3l10.35-.2q-.9-4.1-2.8-7.55v-.3h-.15q-1.55-2.7-3.55-4.9l-2.4-2.35q-1.95-1.9-3.9-3.1-5.9-3.85-12.9-4.15m-7.75 7.35q4.35-2.2 7.9.8l-.05 6.35-2-.45h-1.9q-2.2-.05-3.85.7l-.1-7.4m-11.6 9.2q.9-4.5 5.85-5.1l4.05 4.1q-1.85.85-3.2 2.6-1.35 1.25-2.2 2.95l-4.5-4.55m21.55 3.2.7.7q.95.9 1.65 2.15-2.15.15-3.75.75l-.55-.6q-1.2-1.2-2.55-1.55l-1.6-.1-1.3.1q-1.75.25-2.8 1.7-.5.35-.85 1l-.5 1q-.4.9-.3 2.2-.05.95.3 2.05l.75 1.35 1.95 5.65-.2-.15q-1.45-.6-2.65-1.45l-.25-1.2-.4-2.85v-2.25l.2-2.15q.9-4.6 5.3-5.75 1-.55 2.6-.6l3.05-.05 1.2.05m-14.45 10.7q-.6-1.6-.55-3.15 0 1.5.6 3.1l-.05.05m19.45-11-1.75-1.9q-1.55-1.5-3.15-2.3l6.95-7.25q5.2 1.25 5.7 5.8l-6.9 7.1-.85-1.45m-30.4 3.7 7.65-.1q-.7 1.8-.65 4 0 1.9.55 3.65l-6.65.05q-2.45-3.45-.9-7.6m-18.6 7.45v-3.7 3.7m7.65 22.6 4.8 5.6-4.8-5.6m46.9-15.65 8.05 7.95-3.6 3.9-2.25 1.95-7.95-8q5.95.15 5.75-5.8m-12.5 8.2.15 4.9q-4.05 3.8-7.9.4l-.05-6.25q3.4 4.15 7.8.95m.25 25.4-4.9-.5 4.9.5m24.55-79.55 6.4 5.45-6.4-5.45m19.4 39.45-.05-4.25.05 4.25m-22.5 27.1 2.2-1.75 1.85-1.75-1.85 1.75-2.2 1.75m2.65 3.1 3.7-3.25-3.7 3.25" fill="#55542d" fill-rule="evenodd" transform="translate(-220.05 -144.3)"/><path d="M272.4 162.75q10.45-.15 19.3 5.55l1.75 1.3 2.7 2.15 2 1.85q4.6 4.7 7.35 10.45l.45 1.15.3.7.05 1.15.45.05q.9 2.7 1.5 5.75l.25 2.3.25 4.1v1.05q-1.75-.1-3.1-1.85l-.35-.55-1.15-1.9-1.55-3.05q-2.7-5.7-4.3-12.25l-3.3-3.8-5.95-5.85q-4.55-4.15-7.55-4.65l-9 1.8-1.5.2-6.25.3h-2.7q-2.05-.4-3.4 0l-5.45-.65q5.2-3.3 11.5-4.55l1.6-.3 2.65-.3 3.45-.15m2.3 73.5-1.7.05-3.6-.2-1.85-.2-.4-.05-1.7-.35-.35-.1q-4.35-.85-8.05-2.65l-1.05-.5-.15-.05-1.55-.85-2.15-1.4v-.65l-1.05-.05-4.1-3.7-1.7-1.75-3.1-4q-3.85-5.75-5.25-12.3 2.25-3.2 4.15 2.35 1.35 3.9 3.6 7.4l.3.65q1.7 2.8 4.15 5.4l2.5 2.4.65.5.55.2q6 1.6 12.25 4.15.5.1 1.2.5l3.4 1.35.75.4q1.2.4 2.55 1.35l1.7 2.1m23.75-32.4q1.9 4.8 2 10.25l-.3 1.05q-.95 3-3.05 4.7-.45.25-.7.55-.4.05-.45.2-4.25 1.8-8.1 1.8h-1.1q.2-.3.7-.4l2.25-1.95 3.6-3.9q4.1-5.5 5.15-12.3m-24.75-3-1.05-2 1.9.05-.85 1.95m-8.15-1.9-.1.05.1-.05.9 1.45-.2-.25-.8-1.15-.15-.5.25.45" fill="#7a7941" fill-rule="evenodd" transform="translate(-220.05 -144.3)"/><path d="M246.2 226.3q-1.7.85-2.8 2.7l-3.5-6.35 1.45-1.9 4.85 5.55m18.55-55.05 3.85-.55q1.95-.2 3.9-.05l.15 8.15q-3.55-3-7.9-.8v-6.75m20.65 3.55q1.95 1.2 3.9 3.1l2.4 2.35-4.25 4.2q-.5-4.55-5.7-5.8l3.65-3.85m-12.5 52.65-3.95-.05-3.9-.55-.05-5.15q3.85 3.4 7.9-.4v6.15m-30.05-26.1-.1-2.3q-.15-2.75.35-5.15l6.2-.1q-1.55 4.15.9 7.6l-7.35-.05m5.3-19.3 1.8-2.15q1.55-1.9 3.4-3.3l5.65 5.5q-4.95.6-5.85 5.1l-5-5.15m14.1 22.5v-.05l-.1-.1q-1.45-1.55-1.9-3.3l.05-.05q.5 1.7 1.95 3.2l.05.05q.05-.05.1.05l-.15.2m19-11.3 6.6-.05q3.25 4.1.2 8.3h-6.65l.05-.15.55-3.75q-.1-2.3-.75-4.35m-8.6 5.6 1.05 2-.85 1.1q-1.8 1.7-4.2 1.75l-.75-.05-1.45-3.25q.75.65 2.05.8 1.4-.05 2.4-.95.95-1.05.95-2.4l-.2-1.25 1 2.25m7.95 4.75 4.65 4.6q.2 5.95-5.75 5.8l-4.6-4.65 3.15-2.3q1.6-1.6 2.55-3.45m-7.85 6.55v6.25q-4.4 3.2-7.8-.95V210l3.85.65 2.45-.1 1.5-.4m-13.95 3.3q-3.45-.25-5.05-5.65l4-4.1q.75 1.55 2.15 2.95 1.25 1.2 2.7 2.2l.45.35-4.25 4.25" fill="#3e3d20" fill-rule="evenodd" transform="translate(-220.05 -144.3)"/><path d="M263.05 186.2q.75-.55 1.8-.8 1.65-.75 3.85-.7h1.9l2 .45q.65.05 1.45.45l.75.3q1.6.8 3.15 2.3l1.75 1.9.85 1.45.7 1.7q.65 2.05.75 4.35l-.55 3.75-.05.15-.8 2.1q-.95 1.85-2.55 3.45l-3.15 2.3-2.15.8-1.5.4-2.45.1-3.85-.65-1.9-.8-.45-.35q-1.45-1-2.7-2.2-1.4-1.4-2.15-2.95l-.9-2.35q-.55-1.75-.55-3.65-.05-2.2.65-4 .15-1.1.7-1.95.85-1.7 2.2-2.95 1.35-1.75 3.2-2.6m11.65 4.2-1.2-.8-1.6-.7q-1.5-.55-3-.35l-.2.05-2.85.4q-1.7.5-3 1.8 1.3-1.35 2.9-1.95 1.25-.6 2.95-.6-1.75-.05-3 .55-1.9.65-3.35 2.3l-.1.05q-1.4 1.35-2 3.2-.6 1.45-.55 3.4v.2q-.05 1.55.55 3.15.45 1.75 1.9 3.3l.1.1v.05l.75.65q1.2.85 2.65 1.45l.2.15.7.15 1.45.3q.05-.15.2 0h.55l.2.05 3.35-.55q1.65-.8 3.1-2.1 1.65-1.75 2.35-3.8l.1-.3.25-1.2.05-1.5v-.35l-.2-1.85-.35-1.15-.55-1.25q-.7-1.25-1.65-2.15l-.7-.7" fill="#ffe243" fill-rule="evenodd" transform="translate(-220.05 -144.3)"/><path d="M259.7 197.95v-.2q-.05-1.95.55-3.4.6-1.85 2-3.2l.1-.05q1.45-1.65 3.35-2.3 1.25-.6 3-.55-1.7 0-2.95.6-1.6.6-2.9 1.95 1.3-1.3 3-1.8l2.85-.4.2-.05q1.5-.2 3 .35l1.6.7 1.2.8-1.2-.05-3.05.05q-1.6.05-2.6.6-4.4 1.15-5.3 5.75l-.2 2.15v2.25l.4 2.85.25 1.2-.75-.65.15-.2q-.05-.1-.1-.05l-.05-.05q-1.45-1.5-1.95-3.2-.6-1.6-.6-3.1m18.15 2.6-.1.3q-.7 2.05-2.35 3.8-1.45 1.3-3.1 2.1l-3.35.55-.2-.05h-.55q-.15-.15-.2 0l-1.45-.3-.7-.15-1.95-5.65.6.75.1.1q1.3 1.4 3.3 1.65l.75.05q2.4-.05 4.2-1.75l.85-1.1.85-1.95v-1.2l-.15-1.35 3.45 4.2m-15-9.75-.5.3.5-.3" fill="#292916" fill-rule="evenodd" transform="translate(-220.05 -144.3)"/><path d="m277.05 193.25.55 1.25.35 1.15.2 1.85v.35l-.05 1.5-.25 1.2-3.45-4.2-.6-1.65-.5-.7q1.6-.6 3.75-.75" fill="#72713d" fill-rule="evenodd" transform="translate(-220.05 -144.3)"/><path d="m263.9 201.15-.75-1.35q-.35-1.1-.3-2.05-.1-1.3.3-2.2l.5-1q.35-.65.85-1 1.05-1.45 2.8-1.7l1.3-.1 1.6.1q1.35.35 2.55 1.55l.55.6.5.7.6 1.65.15 1.35v1.2l-1.9-.05-1-2.25-.05-.05-.05-.1v-.05l-.3-.5-.4-.45-.45-.4q-1-.65-1.9-.6-1.45 0-2.35 1.05-1 .9-.9 2.3v.15l.05.55.15.5.8 1.15.2.25 1.45 3.25q-2-.25-3.3-1.65l-.1-.1-.6-.75m6.3-9.3-.6 2.25.6-2.25m-7.05 7.95.9-.2-.9.2m0-4.25 1.3.5-1.3-.5m.5-1 1.2.65-1.2-.65m3.65-2.7.2 1.65-.2-1.65M264.6 202l1.25-1.1-1.25 1.1m9.2-7.3-1.35.9 1.35-.9" fill="#969450" fill-rule="evenodd" transform="translate(-220.05 -144.3)"/><path d="m265.3 198.5-.05-.55v-.15q-.1-1.4.9-2.3.9-1.05 2.35-1.05.9-.05 1.9.6l.45.4.4.45q-1.65 5.1-5.7 3.05l-.25-.45" fill="#b3b06f" fill-rule="evenodd" transform="translate(-220.05 -144.3)"/><path d="m271.65 196.6.2 1.25q0 1.35-.95 2.4-1 .9-2.4.95-1.3-.15-2.05-.8l-.9-1.45q4.05 2.05 5.7-3.05l.3.5v.05l.05.1.05.05" fill="#616032" fill-rule="evenodd" transform="translate(-220.05 -144.3)"/><path d="m44.55 6.75.05-5.5L46.9.9l5.45-.7v.6l-.05 4.95q-.65 2.25.1 4.4-.45 1.85 0 3.85v.9l-.05 3.55M71.65 24l2.8-2.95q2.25-1.2 3.05-3.1 2.2-1.8 3.55-3.75l4.5-4.65 2.1 1.6 4.6 3.9-.75.7-3.85 3.9q-2.45 1.3-3.75 3.75-1.75 1.15-3.1 3.1l-.5.6-2.2 2.2m10.1 19.25 3.95-.05q2.45.75 4.6 0l5.65-.2 7.1-.05.05 2.9.1 2.35v3.9l-6.85-.05-.3.05q-2.9-.85-5.6 0-2.3-.6-4.7-.05h-3.5m-8.5 21.8q1.2 1.5 3.2 2.8.8 1.75 3.05 2.95l7.4 7.3.95 1-4.55 3.85-2.15 1.8-8.2-8.35q-.9-2.2-2.85-2.9-1.2-1.8-2.65-3.1M52.95 92v.35q-.8 2.25 0 5.15-.7 1.55.05 3.6v10.05l-.2-.05-5.15-.75-2.5-.35v-9.85q.7-1.8-.1-3.45.6-2.6 0-5.1v-.5m-18.1-9.85-.7.65-.1.1q-1.7.85-2.8 2.7-.2.1-.25.45-1.5.5-2.2 2.2l-5.2 5.25-.5.6-3.25-3.75-1.4-1.9 5.7-5.85q1.45-.6 2.05-2.15l1.55-1.2 1.45-1.9.85-.95m-6-18.5H14.7q-1.95-.7-4.05-.05-1.4-.6-2.8 0l-6.7-.05-.95.05V50l7.65-.15 2.8-.1q2 .6 4.1.05l1.6-.1m7-16.8-3.75-3.8q-.8-1.9-2.25-2.35-1.2-1.8-2.6-2.6l-3.2-3.3 1.4-1.65 3.15-3.9 3.3 3.25.45.65q.75 1.2 2.2 2 .85 1.3 2.35 2.35l3.95 3.9m16.3-8.25-.05-4.4q.75-2.2.05-3.7.35-2.6-.1-4.35L47 6.5l-.05-4.1L46.9.9M45.95 4V3m1.25 3.45-.2.05m1.15-3.35-.5.05m4.65 2.55-5.1.7m1.8 4.1 3.4-.4m0 3.85-1.8.2-6 .6m4.4-4.25-4.35.55m.05 15.85v6.75m7.9.8-.15-8.15M38.95 37.8l-5.65-5.5m11.5 8.8-.1-7.4m7.85 7.15.05-6.35M43 41.9l-4.05-4.1m21.55 9.45 6.9-7.1m-5.7-5.8-6.95 7.25m16.9-5.65-4.25 4.2m-5.7-5.8 3.65-3.85m-51.7-10.65-.7-.65m6.1-.15-.1.05-2.8 3.3-2.5-2.55m7.2 2.75 1.2-1.4m-3-2.15.35-.5m3.2 7.1-.05.05-2.95 3.4m4.8-5.55-1.8 2.1M14 21.6l-.5-.55m2.65 1.35-1.4 1.75m6.1-1.55-3.5 4.15m-2.3-7-.3.35m8.3 29.5 6.2-.1 7.65-.1m.7-1.95-4.5-4.55-5-5.15M14.7 57v-4.2m0-.05v-.15l.05-2.8m-4.1 3.45v3.7m19.5.15-7.35-.05m7.35.05 6.65-.05M4.15 54.2v-.85m-.45-2.1.75.05m3.4 2.3v-1.45l-7.65.1m10.45 1v-3.5m-2.8 7.2V53.6m0-1.45v-2.3m10 33.8-.15-.15-5.75 5.95m8.95-2.1-3.05-3.7m-1.8 3.75-.1.2m-1.9-1.65.55-.5M26.15 82l-4.85-5.55m-3.6 7.05-1.45-1.8m6.85 3.45-4.8-5.6m42.9-30.6 6.6-.05 10.35-.2m-16.8 8.5H68m-7.45 2.1 4.65 4.6 8.05 7.95m-20.55-6v6.25l.15 4.9v6.15m2-18.1 4.6 4.65M40.2 56.8l.05-.05m-1.5 12.4L43 64.9m-5.3-5.5-4 4.1-6.55 6.75M44.9 65.7v5.45m.05 6.25-.05-6.25m2.25 20.65-2.1-.2M45 82.55l-.05-5.15m22.45.3-7.95-8m-6.5 22.65-5.8-.55m.9 5.2 4.9.5m-14.2-28.35-6.65 6.8m53.25-62.5 2.3-2.3m-3.35 1.8.75-.75m2.6 7.45-4.6-3.7-2-1.75m5.15-.3.5.1m-3.65 1.95 2.2-2.35M80.8 26.5l-6.35-5.45m9.45 2.35-6.4-5.45m28.85 34.65.05-.65m-.7-2.1h1.25m-10.1 3.3.05 4.25m-.05-4.25-.1-4.65m5.75 6.95-.05-4.3-.05-2.85m.1 9.1v-1.75m-.05-4.5h7.1m-17.4.25v-2.9m0 2.9.05 5.95m-11.45 27 2.65-2.4m-.8 6.2-.65.6 8.3 8.3M82.75 88l-.15.15m-1.85-3.8-3.7 3.25m4.9 1.15L79.9 90.5m5.55 3.35-.6-.8m2.35-1.3-.15-.15m-4.3-3.6 3.7-3.1M78.6 57.3 68 57.2m-21.4 48.4.1-.95m1.95-4.1-1.05-.1.05 9.9m1.05-9.8h-.05m-.6-3.55-3-.3m3.85 8.7.55.15m-1.85-5.1-2.45-.3m7.85.95-4.3-.55" fill="none" stroke="#000" stroke-linecap="round" stroke-linejoin="round" stroke-opacity=".6" stroke-width=".4"/><path d="M272.4 162.75q10.45-.15 19.3 5.55l1.75 1.3 2.7 2.15 2 1.85q4.6 4.7 7.35 10.45l.45 1.15.3.7m-55.15 43.35-4.1-3.7-1.7-1.75-3.1-4q-3.85-5.75-5.25-12.3-.7-3.05-.75-6.2l-.1-1.9.1-2.7q-.05-1.45.2-2.7 1.25-9.35 7-16.8l1.7-2.05q1.2-1.55 2.6-2.75l.7-.65q2.2-2.1 4.8-3.7 5.2-3.3 11.5-4.55l1.6-.3 2.65-.3 3.45-.15m23 22.7q1.9 3.45 2.8 7.55.55 2.85.55 5.9l-.1 2.7-.2 2.25m-11.7 18.55q-6.25 4.5-13.85 5.05l-3.95-.05-3.9-.55q-2.35-.5-4.25-1.2m32.5-9.5q4.1-5.5 5.15-12.3m-11 18.15q-.5.1-.7.4m6.55-6.25-3.6 3.9-2.25 1.95" fill="none" stroke="#989650" stroke-linecap="round" stroke-linejoin="round" transform="translate(-220.05 -144.3)"/><path d="m264.75 171.25 3.85-.55q1.95-.2 3.9-.05 7 .3 12.9 4.15 1.95 1.2 3.9 3.1l2.4 2.35q2 2.2 3.55 4.9m-35 40.35q-4.55-1.9-8.1-5.25L250 218.2q-1.65-1.85-2.8-3.65-3.9-5.85-4.3-12.95l-.05-.25-.1-2.3q-.15-2.75.35-5.15 1-6.55 5.05-11.85l1.8-2.15q1.55-1.9 3.4-3.3 5-4.15 11.4-5.35" fill="none" stroke="#000" stroke-linecap="round" stroke-linejoin="round" stroke-opacity=".8" transform="translate(-220.05 -144.3)"/><path d="M259.7 197.95v-.2q-.05-1.95.55-3.4.6-1.85 2-3.2l.1-.05q1.45-1.65 3.35-2.3 1.25-.6 3-.55-1.7 0-2.95.6-1.6.6-2.9 1.95 1.3-1.3 3-1.8l2.85-.4.2-.05q1.5-.2 3 .35l1.6.7 1.2.8m-15 7.55q0 1.5.6 3.1.5 1.7 1.95 3.2l.05.05q.05-.05.1.05l-.15.2m17.45-14.45.85 1.45.7 1.7q.65 2.05.75 4.35l-.55 3.75-.05.15-.8 2.1q-.95 1.85-2.55 3.45l-3.15 2.3-2.15.8-1.5.4-2.45.1-3.85-.65-1.9-.8-.45-.35m-.25-17.75.5-.3" fill="none" stroke="#ceaf00" stroke-linecap="round" stroke-linejoin="round" transform="translate(-220.05 -144.3)"/><path d="M263.05 186.2q.75-.55 1.8-.8 1.65-.75 3.85-.7h1.9m7.35 10.95.2 1.85m-.05 1.85-.25 1.2-.1.3q-.7 2.05-2.35 3.8-1.45 1.3-3.1 2.1l-3.35.55-.2-.05h-.55m-.2 0-1.45-.3m-8.9-15.2q.85-1.7 2.2-2.95 1.35-1.75 3.2-2.6m11.75-.3q1.6.8 3.15 2.3l1.75 1.9m-4.9-4.2-.75-.3m-17.1 8.1q.15-1.1.7-1.95m-.8 9.6q-.55-1.75-.55-3.65-.05-2.2.65-4m5.65 15.15q-1.45-1-2.7-2.2-1.4-1.4-2.15-2.95l-.9-2.35" fill="none" stroke="#fff1a4" stroke-linecap="round" stroke-linejoin="round" transform="translate(-220.05 -144.3)"/><path d="m54.5 54.6-1.9-.05m-3.05-4.75.6-2.25m-5.75 4.2-1.3-.5m.9 4.05-.9.2m4.35-6.3-.2-1.65M44.8 50.9l-1.2-.65m2.2 6.35-1.25 1.1m7.85-6.4 1.35-.9" fill="none" stroke="#3e3d20" stroke-linecap="round" stroke-linejoin="round" stroke-width=".2"/><path d="m51.6 52.3.2 1.25q0 1.35-.95 2.4-1 .9-2.4.95-1.3-.15-2.05-.8m-1.15-1.9-.05-.55v-.15q-.1-1.4.9-2.3.9-1.05 2.35-1.05.9-.05 1.9.6l.45.4.4.45.3.5m0 .05.05.1.05.05m-6.35 1.9.15.5.8 1.15.2.25" fill="none" stroke="#3e3d20" stroke-linecap="round" stroke-linejoin="round" stroke-width=".4"/><path d="M51.5 52.1v.05m-6.1 2.55.1-.05-.25-.45m1.15 1.9-.9-1.45" fill="none" stroke="#3e3d20" stroke-linecap="round" stroke-linejoin="round" stroke-width=".4"/><path d="M306.75 187.1q.9 2.7 1.5 5.75m.5 8.8q-.6 12.45-8.5 21.8l-1.75 1.85-1.85 1.75-2.2 1.75q-8.9 6.85-19.75 7.45l-1.7.05m-7.9-.9q-4.35-.85-8.05-2.65l-1.05-.5-.15-.05-1.55-.85-2.15-1.4m56.6-29.65v-1.05l-.25-4.1-.25-2.3m-41.1 43-1.7-.35-.35-.1m2.05.45.4.05 1.85.2 3.6.2m35.75-36v1.35" fill="none" stroke="#292916" stroke-linecap="round" stroke-linejoin="round" transform="translate(-220.05 -144.3)"/></g></defs></svg>