<svg viewBox="0 0 83.95 111.81" xmlns="http://www.w3.org/2000/svg" xmlns:xlink="http://www.w3.org/1999/xlink"><use width="83.95" height="111.8" xlink:href="#a"/><defs><g id="a"><path d="m283.6 181.6-9.1-15h.15l20.2-.7-8.8 12.35-2.35 3.4-.1-.05M250 167.55l9.25-.4-3.9 7.1-3.9 7.05-.05-.2-6.8-12.95-.2-.45 5.6-.15m8.75 11 7.8-15.05 9.15 16.95 1.75 3.25 9.5 17.6 4.75 8.9-24.95-2.95-.35-.65-.3.6-21.05-2.55 5.2-9.9 8.5-16.2m8.45-11.2-2.1 3.1 6.95 13.65 3.5-.35-8.35-16.4m9.45 21.55 1.1-1.75-22.25-.9.5.9 4.1 7.55 6.3 11.9.75-1.25 9.5-16.45m5.25-13.5 1.3 2.8 8.25-10.85-4.05-.4-5.5 8.45m-31.4.65.95 1.95 5.05-9.6-2.75.15-3.25 7.5m36.9 31.5-8.65-17.2-1.95 3.05 7.15 13.9 3.45.25m-24.5-2.75-8.05-15.65-1.2 2.7 5.55 12.8 3.7.15" fill="#fbf862" fill-rule="evenodd" transform="translate(-233 -144.05)"/><path d="m274.5 166.6-1.4-.1 3.35 5.9 3.1 10 1.8-1.15 1.25 2.3.95-1.9h.15l2.35-3.4 9.75-1.65-.1 14.75-.3.35-16.05-9.15-3.65-2.1-9.15-16.95-7.8 15.05-3.4-4.3 3.9-7.1-9.25.4-2.7-3.5-2.35-2.9 27.4-2.1 2.3 7.5-.05.05h-.1M256 187.15l14.15 1.15-10.05 6.4-4.1-7.55m34.8 50.5-3.35 3.25-12.75-24.2-.4-.85 3.45-3.9 1.45-1.75 11.55 1.45 1-1.35-.05-.1-4.75-8.9 8.45-9.6.3.1-.35 38.7q-2.05 3.9-4.55 7.15" fill="#5a87c9" fill-rule="evenodd" transform="translate(-233 -144.05)"/><path d="m276.45 172.4-3.35-5.9 1.4.1 9.1 15-.05.05-.95 1.9-1.25-2.3-4.9-8.85m-4.1-13.35-27.4 2.1-4.25.2.05-2.6h.2l58-4.1-.6 66.85q-1.2 4.85-3 9l.35-38.7v-.45l.1-14.75.2-19.25-23.65 1.7m4.3 29.85-6.5-.6-14.15-1.15-.5-.9 22.25.9-1.1 1.75m-32.05-20.75 6.8 12.95-.6.95-7.3-14.1 1.1.2m6.45 38.65-6.9-.8.8-1.4.1.05 21.05 2.55.3-.6.35.65 24.95 2.95.05.1-1 1.35-11.55-1.45-5.45-.65-22.7-2.75" fill="#294a7c" fill-rule="evenodd" transform="translate(-233 -144.05)"/><path d="m283.55 181.65.05-.05.1.05h-.15m-8.95-15.05.05-.05v.05h-.05m-27.3-2.55 2.7 3.5-5.6.15.2.45-1.1-.2 7.3 14.1.6-.95.05.2 3.9-7.05 3.4 4.3-8.5 16.2-9.4-5.85-.1-22.45 6.55-2.4m28.4 16.4 3.65 2.1-1.9 1.15-1.75-3.25m19.7 11.25.3-.35v.45l-.3-.1m-30.35 12.35 2.1 1.3-.75 1.25-1.35-2.55m22.4 36.85-2.25 1.7q-.4.15-.7.45-8 4.75-17.45 2.25l-4.85-1.85q-6.25-3.05-11.35-9.2-3.55-4.45-5.95-9.65l-.35-.75 6.05-1.4 24.1-5.75 12.75 24.2m-13.75-7.3.05-.1h.05v-.05q1.15-1.4 1.5-3.25l.15-1.1q-.05-3.15-2.15-5.8-2.2-2.75-5.1-3.15l-.7-.1q-2.5-.2-4.25 1.5-.9.65-1.3 1.7l-.1.1q-1.55 1.65-1.75 3.75l-.05.55-.05.45q-.1 2.35 1.55 4.85l.05.15.6.75q1.85 2 5.25 2.65l2.45.15q2.1.05 3.8-3.05" fill="#4677c2" fill-rule="evenodd" transform="translate(-233 -144.05)"/><path d="m276.45 172.4 4.9 8.85-1.8 1.15-3.1-10m-1.8-5.85-2.3-7.5 23.65-1.7-.2 19.25-9.75 1.65 8.8-12.35-20.2.7v-.05m-29.7-5.4 2.35 2.9-6.55 2.4-.05-5.1 4.25-.2m6.1 45.65 22.7 2.75 4 2.4-3.45 3.9.4.85-24.1 5.75.45-15.65" fill="#779bd2" fill-rule="evenodd" transform="translate(-233 -144.05)"/><path d="m267.2 167.35 8.35 16.4-3.5.35-6.95-13.65 2.1-3.1m14.7 8.05 5.5-8.45 4.05.4-8.25 10.85-1.3-2.8m-31.4.65 3.25-7.5 2.75-.15-5.05 9.6-.95-1.95m36.9 31.5-3.45-.25-7.15-13.9 1.95-3.05 8.65 17.2m-24.5-2.75-3.7-.15-5.55-12.8 1.2-2.7 8.05 15.65" fill="#fdfcbd" fill-rule="evenodd" transform="translate(-233 -144.05)"/><path d="m279.35 182.55 16.05 9.15-8.45 9.6-9.5-17.6 1.9-1.15m-9.2 5.75 6.5.6-9.5 16.45-2.1-1.3-4.95-9.35 10.05-6.4m3.6 21.25 5.45.65-1.45 1.75-4-2.4" fill="#335b99" fill-rule="evenodd" transform="translate(-233 -144.05)"/><path d="m240.7 161.35.05 5.1.1 22.45.05 23.5q1.25 6.15 3.65 11.45l.35.75q2.4 5.2 5.95 9.65 5.1 6.15 11.35 9.2l4.85 1.85q9.45 2.5 17.45-2.25.3-.3.7-.45l2.25-1.7 3.35-3.25q7.35-7.6 8.85-16.4l.3-1.2.65-67.75-59.25 4.95-.4 1.5h-.2l-.05 2.6m-5.65-8.75 76.15-8.05h.2l-.2 14.85-.55 48.7-.25 18.65-.1.45q-5.2 17.5-18.4 24.4l-2.75 1.25q-4.85 1.95-10.1 2.2h-2.25l-2.85-.25-3.35-.5-3.25-.8-2.1-.8-4-2.55q-16-11.2-22.85-26.9-1.9-4.3-3.1-8.95l-.25-61.7" fill="#fbfaf1" fill-rule="evenodd" transform="translate(-233 -144.05)"/><path d="m240.95 158.75.4-1.5 59.25-4.95-.65 67.75-.3 1.2q-1.5 8.8-8.85 16.4 2.5-3.25 4.55-7.15 1.8-4.15 3-9l.6-66.85-58 4.1m24.3 93.95q-4.2-1.5-7.85-3.7-6-3.75-11.05-9.55-6.35-7.3-9.9-16.55l-1.1-3.4q-.95-2.7-1.55-5.45l-.3-61.35 1.55-.1.25 61.7q1.2 4.65 3.1 8.95 6.85 15.7 22.85 26.9l4 2.55" fill="#d6d19e" fill-rule="evenodd" transform="translate(-233 -144.05)"/><path d="M244.55 223.85q-2.4-5.3-3.65-11.45l-.05-23.5 9.4 5.85-5.2 9.9-.1-.05-.8 1.4 6.9.8-.45 15.65-6.05 1.4" fill="#2f548c" fill-rule="evenodd" transform="translate(-233 -144.05)"/><path d="M271.85 226.3q-.7.6-1.6.5-1-.25-1.55-.95-.75-.85-.65-1.65-.1-1 .65-1.45.5-.55 1.6-.25.85 0 1.55.85.6.7.65 1.7 0 .75-.65 1.25" fill="#fdaaaa" fill-rule="evenodd" transform="translate(-233 -144.05)"/><path d="M271.85 226.3q.65-.5.65-1.25-.05-1-.65-1.7-.7-.85-1.55-.85-1.1-.3-1.6.25-.75.45-.65 1.45-.1.8.65 1.65.55.7 1.55.95.9.1 1.6-.5m1.9 7.2q-9.4-1.2-11.8-10.25.4-1.05 1.3-1.7 1.75-1.7 4.25-1.5l.7.1q2.9.4 5.1 3.15 2.1 2.65 2.15 5.8l-.15 1.1q-.35 1.85-1.5 3.25v.05h-.05" fill="#fa5857" fill-rule="evenodd" transform="translate(-233 -144.05)"/><path d="M261.85 223.35q-.6 1.25-.5 3l.1 1.6q.1 1.1.75 2.35l1.05 1.65q1.95 2.55 4.85 3.3 2.95.5 5.1-1.1.2-.45.5-.55-1.7 3.1-3.8 3.05l-2.45-.15q-3.4-.65-5.25-2.65l-.6-.75-.05-.15q-1.65-2.5-1.55-4.85l.05-.45.05-.55q.2-2.1 1.75-3.75" fill="#254370" fill-rule="evenodd" transform="translate(-233 -144.05)"/><path d="M273.7 233.6q-.3.1-.5.55-2.15 1.6-5.1 1.1-2.9-.75-4.85-3.3l-1.05-1.65q-.65-1.25-.75-2.35l-.1-1.6q-.1-1.75.5-3l.1-.1q2.4 9.05 11.8 10.25l-.05.1" fill="#a50505" fill-rule="evenodd" transform="translate(-233 -144.05)"/><path d="m311.4 144.55 5.05 3.05-.15 14.45-5.1-2.65.2-14.85" fill="#cac284" fill-rule="evenodd" transform="translate(-233 -144.05)"/><path d="m316.3 162.05-.55 45.6-5.1.45.55-48.7 5.1 2.65m-37.25 93.05-.45-.05h.45v.05" fill="#bcb463" fill-rule="evenodd" transform="translate(-233 -144.05)"/><path d="m315.75 207.65-.25 19.4v.05l-5.2.1.1-.45.25-18.65 5.1-.45" fill="#9c9443" fill-rule="evenodd" transform="translate(-233 -144.05)"/><path d="M315.5 227.1q-5.15 17.8-18.5 24.8-7.15 3.65-15.1 3.45l-2.85-.25v-.05q5.25-.25 10.1-2.2l2.75-1.25q13.2-6.9 18.4-24.4l5.2-.1" fill="#746d32" fill-rule="evenodd" transform="translate(-233 -144.05)"/><path d="M265.25 252.7q-4.2-1.5-7.85-3.7-6-3.75-11.05-9.55-6.35-7.3-9.9-16.55l-1.1-3.4q-.95-2.7-1.55-5.45l-.3-61.35 1.55-.1 76.15-8.05m.2 0 5.05 3.05-.15 14.45-.55 45.6-.25 19.4v.05q-5.15 17.8-18.5 24.8-7.15 3.65-15.1 3.45l-2.85-.25-.45-.05h-1.8l-2.85-.25-3.35-.5-3.25-.8-2.1-.8" fill="none" stroke="#000" stroke-linecap="round" stroke-linejoin="round" stroke-opacity=".8" transform="translate(-233 -144.05)"/><path d="M78.2.5h.2" fill="none" stroke="#6f0" stroke-linecap="round" stroke-linejoin="round" stroke-width=".2"/></g></defs></svg>