<svg width="119" height="112" viewBox="216.65 143.6 119.15 112.35" xmlns="http://www.w3.org/2000/svg" xmlns:xlink="http://www.w3.org/1999/xlink"><defs><g id="a"><path d="M318.25 145.9q5.25 2.15 8.3 6.25 1.65 2.2 2.7 5 1 2.9 1.25 6.05 0 4-1.7 8.1l-2.2 2.65h-.05l-3.35-.7q.05-.4.4-.7l.5-.85.3-.85.3-.75 2.35-6.1q.3.05.4-3.15-.2-1.8-.9-3.35l-1.5-2.4-2.3-2.7q-4.95-4.3-11.3-5.65-5.15-.75-10 1l-.1.05.1-2.7 2.8-.65 2.4-.35q4.9-.5 9.9 1.2l1 .35.2.05.5.2m-83.55 12.5q4.05 1.35 6.65 5.7l.75 1.45-2.15 1.5q-.7-2.2-2.05-3.7l-3.7-2.6h-.25l.75-2.35m7.75 8.3q.6 1.4.85 3.05 1.05-.75 2.2-1.35 2.95-1.6 6.2-2.75l2.1-.65.65-.15.15-.05 1.25-.35.9 4.05-.7.2q-7.05 1.6-12.65 5.55l-2.35 1.65-.8.6-1.6 1.55-2.6 2.8q-2.8 2.95-4.55 6.4-.9 1.3-1.45 2.75-2.45 5.4-2.75 11.6l-.1 3.1q-.05 2.7.35 5.5l.15 1.15-.2.1-.15.05-2.6.85q-.75-3.9-.7-7.9-.1-3.65.45-7l.4-2q.65-2.95 1.75-5.7l-.65-.1-1.5-.6.9-2.2 1.1.45 1.1.25q2.15-5.05 6.1-9.4l1.8-1.85 1.1-1.25q1.9-1.95 4-3.35.1-.3.35-.3l-.4-2.55-.3-.8 2.2-1.35m-17.75-6.95.45.85q1.35-1.05 2.5-1.45l2.1-.15-.1-1.15h.95l.15 2.25v.1q-2.3-.5-4.8.9-3.55 1.75-6 5.75-1.25 2.4-1.4 4.9-.3 2.7-.1 4.65l.6 2.2.2.75.75 2.1-1.9.85q-.85-1.9-1.2-3.9-.25-1.45-.2-2.9-.05-1.55.2-3.05l.2-.95q.2-1.5.7-2.6l.5.1h.05q1.9-5.15 4.4-6.55l-.5-.7q.05-.3.45-.5l.25-.2.05.05.95.8.65-.75-.2-.45-.25-.65.55-.3m18.6 10q-1.25.65-2.35 1.65 1.1-1 2.35-1.65m-21.8 14.2q1.2 1.45 2.8 2.5l-.95 2q-2.1-1.2-3.65-3.2l1.8-1.3m85.4 36q1.7-5.65 1.9-11.85l-.05-1.05q-.35-11.1-6-19.75l-.65-1.05-1.55-2.1-.4-.5q-3.35-4-7.6-7.25l-3.35-2.3-2-1.15-1.35-.8-3.2-1.45q-10.2-4.25-21.55-2.85l-.25.05-.05-4.4.5-.05 7.6-.5 2.4.1 1.85.15h.15l3.65.55 1.6.3 2.1.55h.1l1.85.6q.2-2.05.95-3.95l2.75.7q-1 2-1.25 4.1l1.35.5q2.9 1.2 5.9 3.05l1.85 1.05 2.7 1.9q6.6 4.8 11.05 11.15l2.35-.55 2.1-.75 1.7 2.05-4.15.95-.7.2-1.3-1.9 1.3 1.9.7 1.05.1.2 2.4 4.9v.1l1.25 3.45.95 3.85.55 3.35.1.6.25 3.55v.35q.15 4.8-.7 9.3l-.35 1.7-3.6 5.05-4.3-2.35q-.05-.4.35-.75m-79.3-32.4q-.55 1-.95 2.2.4-1.2.95-2.2m67.15-39.7 1.05 2.55q-3.4 1.65-5.8 4.3-2.4 3-3.25 5.9l-2.7-.95q.3-1 1-1.9 3.35-6.35 9.7-9.9m19.75 33.65q3-1.75 5.6-4.1l2.45.95-4.1 3.6-2.7 1.3-1.25-1.75m-31.9-16.3 2.45.85-2.45-.85m-56.25 52.85q-.65-1.5-.95-2.9l2.85-1.3q2.05 8.25 8.25 15.55 3.05 3.65 6.8 6.65l-.75 1.6-7.9-6.45-8-12.6v-.05l-.3-.5M287 241.2l.35-.1q3.3-1.7 6.55-3.95 6.55-5.1 10.35-11.5l3.15 2.5q-1.7 3.95-4.1 6.95l-2.35 2.45-.25.2-.55.5-.3.1q-10.1 6.8-20.5 9.25l-4.55.85-1.45.2-3.15-.7-.4-2.95q9.1-.05 17.2-3.8m-39.15-2.15q4.45 2.6 9.85 4.1l4.45 1.05 6.75.7.3 2.8-1.35-.05-2.8-.2-.8-.1-3.1-.5q-6.15-1.2-12.1-4l-1.45-1.25.25-2.55" fill="#cfdada"/><path d="m323.2 173.25 3.35.7h.05l-.05.05-2.35 2.95-3-.9 1.65-2.2q.05-.4.35-.6m-81.1-7.7.35 1.15-2.2 1.35-.2-.8-.1-.2 2.15-1.5m-8.9-7.55 1.5.4-.75 2.35-1.85-.4v-.1l.2-2.3.05-.05h.25l.6.1-.85-.1.85.1m-15.1 24.3 1.9-.85.15.35.8 1.4-1.9 1.05-.65-1.35-.3-.6m42.75-14.4-2.5.3-1.6.3-.9-4.05 1.5-.35.4.35-.4-.35.35-.05 3.1-.55.05 4.4m-36.1 44.45 2.6-.85.15-.05.2-.1.4 1.65.15.85-2.85 1.3-.25-.9-.4-1.9m70-64.5q1.55-.9 3.4-1.6.1-.15.45-.25l.5 2.85-3.3 1.55-1.05-2.55m-11.2 13.4.5-1.6 2.7.95-.45 1.35-2.75-.7m-25.85 2.8.05.4-.05-.4m.05.4.6 3.75-.6-3.75m48.8 56.25 4.3 2.35-1.95 2.85-3.55-2.15 3.55 2.15-1.5 2.25-3.15-2.5 1.1-1.9.95-2.4q0-.4.25-.65M269.8 245l.4 2.95-1-.25-.3-2.8.9.1m-25.15-8 .95.8 1.75 1 .5.25-.25 2.55-.75-.5.5-2.3-.5 2.3-1.95-1.55.7-1.75-.7 1.75-2.35-1.9.75-1.6 1.35.95m-16.55-24-2.95 1.25 2.95-1.25" fill="#88844f"/><path d="m301.35 147.8.1-.05q4.85-1.75 10-1 6.35 1.35 11.3 5.65l2.3 2.7 1.5 2.4q.7 1.55.9 3.35-.1 3.2-.4 3.15l-2.35 6.1q1.8-5.35.1-10.6-2.7-7.2-10.35-9.8-6.5-2.3-13.1-.1v-1.8m25.25 26.15 2.2-2.65-1.35 2.8-.85-.15m-2.7 4.95q-3.3 3.2-7.45 5.45l-.7-1.1 2.7-1.3 4.1-3.6.35.1 1 .45m-9.7 6.4-3 .95-1.3.4-.7-1.05.7-.2 4.15-.95.15.85m-80.25-24.55h.25l3.7 2.6q1.35 1.5 2.05 3.7l-.55.35-.45-.95q-2-3.5-5.2-4.7l.2-1m-9.55-.05.2.45-.65.75-.95-.8 1.4-.4m-5.35 17.9-.6-2.2q-.2-1.95.1-4.65.15-2.5 1.4-4.9 2.45-4 6-5.75 2.5-1.4 4.8-.9l.05 1.1q-3.85-.25-7.05 2.65-3.7 3.1-4.7 8.4-.65 3.2 0 6.25m20.75-10.25.45-.3.3.8.4 2.55q-.25 0-.35.3-.2-1.85-.8-3.35m56-17.95.65 1.25q-5.15 2.9-7.85 8.05l-.7 1.25-1.15-.35q.85-2.9 3.25-5.9 2.4-2.65 5.8-4.3m-9.5 11.55 1.05.3q-.8 2.1-.95 4.3l-1.35-.5q.25-2.1 1.25-4.1M271 249.5l-.4-.05-.4-1.5 3.15.7 1.45-.2 4.55-.85q10.4-2.45 20.5-9.25l.3-.1.55-.5.25-.2 2.35-2.45q2.4-3 4.1-6.95l2.15 1.65q-2.4 3.5-5.55 6.65l-2.05 1.85-.45.4-3.1 2.45-.2.1q-3.25 2.25-6.75 3.95-1.95.9-3.9 1.6l-.35.1q-4 1.45-8.3 2.15l-3 .4-1.4.05H271m-1.5-.1-2.25-.2-1.85-.2-2.9-.5-1.15-.25q-7.7-1.7-13.85-5.15l.1-1.5 1.45 1.25q5.95 2.8 12.1 4l3.1.5.8.1 2.8.2 1.35.05.3 1.7m-27.8-10.2-1.5-1.25-1.15-1-4.95-5.2-3.85-5.35-1.4-2.45-1.15-2.4-1.15-2.9-.2-.6.3.5v.05l8 12.6 7.9 6.45-.85 1.55m69.15-16.15 3.6-5.05-.45 1.65-1.45 4.3-1.7-.9" fill="#99b0b0"/><path d="m327.45 174.1-.45.9-.45.55-1.2 1.7-1.45 1.65-1-.45 1.3-1.5 2.35-2.95.05-.05.85.15m-11 10.25-2.25.95-.15-.85 1.7-1.2.7 1.1M295.8 150.4l3.3-1.55q1.1-.55 2.25-1.05v1.8l-1.9.6q-.2 0-.1.1-1.6.5-2.9 1.35l-.65-1.25m-9.05 10.2 1.15.35q-.35.6-.55 1.3l-1.05-.3.45-1.35m-16.15 88.85-1.1-.05-.3-1.7 1 .25.4 1.5m-23.1-6.35-1-.6-2.25-1.45-2.55-1.85.85-1.55 2.35 1.9-.65 1.5.65-1.5 1.95 1.55.75.5-.1 1.5m65.05-19.15L311 227.3l-1.45 2.5-2.15-1.65 1.5-2.25 1.95-2.85 1.7.9M311 227.3l-2.1-1.4 2.1 1.4m-64.5 15.2.35-1.4-.35 1.4" fill="#514f2f"/><path d="m301.45 145.1-.1 2.7q-1.15.5-2.25 1.05l-.5-2.85q1.35-.65 2.85-.9m22.75 31.85-1.3 1.5-.35-.1-2.45-.95q.4-.65 1.1-1.35l3 .9m-93.45-16.85-.15-2.25h1.1l.6.1-.2 2.3-1.35-.15m-11.05 25.15-.65-1 1.9-1.05.55.75-1.8 1.3m4.6 1.2 1.1.4-.9 2.2-1.15-.6.95-2m88.05-4.05q1-.55 2.15-.9l1.25 1.75-1.7 1.2-1.7-2.05" fill="#6f6b40"/><path d="M328.8 171.3q1.7-4.1 1.7-8.1-.25-3.15-1.25-6.05-1.05-2.8-2.7-5-3.05-4.1-8.3-6.25 3.95.75 8.3 3.5l.25.15q9 9.25 5.35 20.3-1.8 5.65-5.6 9.85-4.7 5.1-12.55 7.85l-3.95-.85 3.95.85 1.5 3.95-1.3.15.95 2.6 1-.7 1.45 5.65-1.5-.05.5 2.65 1.35-.65.35 2.5-1.65-.3-.15 2.95 1.95-.75q.4 6.45-.95 12.7l-1.5-1.1-.5 2.1 1.9-.55q-1 4.3-2.85 8.45-4.2 7-9.6 11.95l-.6-1.7-1.6 1.25 1.85.8-2 1.65-.75-1.7-2.8 2.25 1.7.85q-4.25 2.95-9.1 4.8l-.15-1.45-3.3 1.45 1.1.85-.55.15-10.05 1.15h-2.8l3-.4q4.3-.7 8.3-2.15l.35-.1q1.95-.7 3.9-1.6 3.5-1.7 6.75-3.95l.2-.1 3.1-2.45.45-.4 2.05-1.85q3.15-3.15 5.55-6.65l1.45-2.5 1.55-3.35 1.45-4.3.45-1.65.35-1.7q.85-4.5.7-9.3v-.35l-.25-3.55-.1-.6-.55-3.35-.95-3.85-1.25-3.45v-.1l-2.4-4.9.05-.15-.15-.05 1.3-.4 3-.95 2.25-.95q4.15-2.25 7.45-5.45l1.45-1.65 1.2-1.7.45-.55.45-.9 1.35-2.8m-94.1-12.9v-.15l5.25.95q5.15 4.1 5.55 9.2-1.15.6-2.2 1.35-.25-1.65-.85-3.05l-.35-1.15-.75-1.45q-2.6-4.35-6.65-5.7" fill="#3f545c"/><path d="m241.1 178.1.65-.5.25.45-.9.05m66.2 28.5v.25l-.3-.2.3-.05" fill="#fff2e8"/><path d="M230.75 160.2v-.1l1.35.15v.1l1.85.4-.2 1-1.75-.35-.15-.05-1.05-.05-.05-1.1m8.65 7.2.55-.35.1.2.2.8-.45.3-.4-.95" fill="#4d4a2d"/><path d="m229.65 157.85.1 1.15-2.1.15q-1.15.4-2.5 1.45l-.45-.85q2.3-1.6 4.95-1.9m-7.4 3.9.5.7q-2.5 1.4-4.4 6.55h-.05l-.5-.1q1.3-4.3 4.45-7.15" fill="#e3eaea"/><path d="M252.5 198.8h1.5l1.7.05v-.05l.15.05.8.1-.8.4-1.9.3-1.85-.3-.75-.45q-.1-.2.75 0l.4-.1m2.2-3.95q.15-.35.4-.25.15-.05.4.2l.1.45-.1.55-.4.1-.4-.15-.15-.45q-.05-.4.15-.45m13-.2.25.5-.2.5-.45.2-.45-.25-.15-.45V195l.35.1.65-.45m2.6 4.25h.45l.9.15-.85.4-2.1.25-2.15-.3-.95-.35q0-.25.9-.25h.25l1.8.1h1.75" fill="#161e21"/><path d="M253 192.6q-.45-.05-.75.45-.35.3-.25 1.05-.05.5.3.9l.75.5.75-.5.25-1-.3-1.05q-.35-.45-.75-.35m-.5 6.2-.95-.75q-1.1-1.1-1.05-2.6-.05-1.6 1.05-2.75.9-1.2 2.35-1.15 1.45-.1 2.6 1.05.65.65.95 1.55l.15 1.15q-.05 1.6-1 2.75l-.75.65-.15.1v.05l-1.7-.05h-1.5m2.2-3.95q-.2.05-.15.45l.15.45.4.15.4-.1.1-.55-.1-.45q-.25-.25-.4-.2-.25-.1-.4.25m13.05-.25.3-.95q-.05-.75-.35-1-.3-.4-.7-.4-.5-.05-.75.45-.3.35-.25 1 0 .5.3 1.05l.4.25v.15l.15.45.45.25.45-.2.2-.5-.25-.5.05-.05m-3.05-.6q.25-.9.95-1.55 1.1-1.3 2.7-1.3 1.6-.1 2.9 1.15 1.2 1.15 1.25 2.95-.05 1.6-1.15 2.8l-1.05.85h-1.75l-1.8-.1-.2-.1-.85-.65q-1.15-1.15-1.1-2.75l.1-1.3" fill="#ffead9"/><path d="M253 192.6q.4-.1.75.35l.3 1.05-.25 1-.75.5-.75-.5q-.35-.4-.3-.9-.1-.75.25-1.05.3-.5.75-.45m13.7 2.4-.4-.25q-.3-.55-.3-1.05-.05-.65.25-1 .25-.5.75-.45.4 0 .7.4.3.25.35 1l-.3.95-.05.05-.65.45-.35-.1" fill="#fff"/><path d="m262.85 209.85-2.95 1.45v-.1l-.9-1.25 3.85-.1" fill="#5e7c88"/><path d="m227.55 210.2.55-7.6 3.3 4.5 8.85 11.9 8.95-.7-1.85 7.7-1.55 6.1-1.15 4.9-1.35-.95q-3.75-3-6.8-6.65-6.2-7.3-8.25-15.55l-.15-.85-.4-1.65-.15-1.15m29.7-39.4h.95q9.2-1.45 18.45.1l.75.1q3.1 1.4 6.15 3.3 3.7 2.05 7.3 4.5l3.35 2.65 3.95 3.4-2.8.75-1.2.3-.15.15-2.1.55q-4.45-8.3-16.65-10.7-4.4-.85-7.25 3.25l-1.65 2.3-3.85-1.1-5.25-9.55m33 50.35 2.85.4-3.3 11.3h-5l-.95.2-9.5.2-11.6-11.75-3.15-3.35q14.3.2 30.65 3m-50-2.15-6.95.9 6.95-.9m-6.95.9q-.25-1.1-1-2.05.75.95 1 2.05.1.95-.45 2.05.55-1.1.45-2.05" fill="#5563bf"/><path d="M255.55 204.05h.95l-2.55 14.1-4.75.15-8.95.7-8.85-11.9 4.45-3.7q.8 3.35 3.4 5.45 6.1 4.95 11.95-.1l4.35-4.7m36.35-17.45 2.1-.55.15-.15 1.2-.3 6.5 17.05-13.7 13.1-6.65-2.6q3.05-.25 6.5-2.15 3.95-2.45 5-7.1 2.45-10.4-1.1-17.3m-17.55 46.65 9.5-.2.95-.2h5l-2.45 8.25-.35.1q-8.1 3.75-17.2 3.8l-.9-.1-6.75-.7-4.45-1.05 16.65-9.9" fill="#3a469a"/><path d="M241.75 177.6v-.15l.2-.15 1.1-.7q6.75-4.7 14.2-5.8l5.25 9.55 3.85 1.1q-7.8 12.35 1.3 23.45l-11.15-.85h-.95q8.45-11.65-1.45-23.85-2.7-3.45-6.15-2.05-2.85 1-4.85 2.45-.95-.3-1.1-2.55l-.25-.45M307 206.65l-.1 13.3q-.4.35-.35.75-.25.25-.25.65l-.95 2.4-1.1 1.9q-3.8 6.4-10.35 11.5-3.25 2.25-6.55 3.95l2.45-8.25 3.3-11.3-2.85-.4-2.1-5.4 13.7-13.1 5.15 4m-51.15-42.2-1.25.35.35-4.2 2.4 3.5-1.5.35m-2.05.55-2.1.65-1.1-7.25 3.2 6.6m-28.9 30.45-.4 2-4.1-1.55 4.5-.45m46.4-32.4-2.4-.1.75-3.7 1.65 3.8m2 .15q1.25-3.6 4.35-5.9-1.65 3.45-.7 6.45l-3.65-.55m5.25.85 1.95-2.55.15 3.1-2.1-.55m37.6 29.5-1 .7-.95-2.6 1.3-.15 4.3-.5-3.65 2.55m1.45 5.65 4.1.1-3.75 1.85-1.35.65-.5-2.65 1.5.05m.7 4.45 3.6.65-3.45 1.25-1.95.75.15-2.95 1.65.3m-.8 14.6-.1.45-1.9.55.5-2.1 1.5 1.1m-12.55 20.85-.35.35-1.85-.8 1.6-1.25.6 1.7m-2.35 2 1.35 2.9-3.2-1.5-1.7-.85 2.8-2.25.75 1.7m-10.95 6.2.3 2.85-2.65-2-1.1-.85 3.3-1.45.15 1.45m-12.95 2.15-1.95 4.65-2.5-3.9-1.9 5.75-1.35-6.45h2.8l.45.7.25-.7 1.4-.05h2.8m-11.45-.25-1.05 3-.8-3.2 1.85.2m-3.3-.45-1.55 5.65-1.05-6.15 1.15.25 1.45.25m-23.75-10.8-4.55 3.95 3.4-4.95 1.15 1m-9.95-11.55-4.45 1.6 3.05-4.05 1.4 2.45m-2.55-4.85-6.5.65q2.65-1.8 5.35-3.55l1.15 2.9m69.5.7-4.1-.7 4.1.7q-.3-1.7.55-3.05-.85 1.35-.55 3.05.1 1.25.9 2.9-.8-1.65-.9-2.9m-37.6-4.1 3.15 3.35 11.6 11.75-16.65 9.9q-5.4-1.5-9.85-4.1l-.5-.25-1.75-1-.95-.8 1.15-4.9 1.55-6.1 1.85-7.7 4.75-.15q2.7-.15 5.65 0m-2.95 3.5q-1.35 3.2-.65 6.7.3-2.7 2.65-3.65.35 1.75 1.7 2.35.85-1.25.95-3.2 1.4.15 2.3 1.4.35-1.85-.55-3.35l-6.4-.25" fill="#343f8b"/><path d="M227.55 210.2q-.4-2.8-.35-5.5l.1-3.1q.3-6.2 2.75-11.6.55-1.45 1.45-2.75 1.75-3.45 4.55-6.4l2.6-2.8 1.6-1.55.8-.6 2.35-1.65q5.6-3.95 12.65-5.55l.7-.2 1.6-.3 2.5-.3.25-.05q11.35-1.4 21.55 2.85l3.2 1.45 1.35.8 2 1.15 3.35 2.3q4.25 3.25 7.6 7.25l.4.5 1.55 2.1.65 1.05q5.65 8.65 6 19.75l.05 1.05q-.2 6.2-1.9 11.85l.1-13.3.3.2v-.25q-1.25-9.8-7.75-19.75l-.5-.8-.7-.9-.2-.3-3.95-3.4-3.35-2.65q-3.6-2.45-7.3-4.5-3.05-1.9-6.15-3.3l-.75-.1q-9.25-1.55-18.45-.1h-.95q-7.45 1.1-14.2 5.8l-1.1.7-.2.15v.15l-.65.5-4.15 3.55q-.4.25-.55.6-2 2-3.4 4.45-.95 1.4-1.7 3.1-.6 1.05-.95 2.25l-2.3 10.55h.05l-.55 7.6m29.1 11.45 6.4.25q.9 1.5.55 3.35-.9-1.25-2.3-1.4-.1 1.95-.95 3.2-1.35-.6-1.7-2.35-2.35.95-2.65 3.65-.7-3.5.65-6.7" fill="#171c3c"/><path d="m324.7 170.1-.3.75-.3.85-.5.85q-.35.3-.4.7-.3.2-.35.6l-1.65 2.2q-.7.7-1.1 1.35-2.6 2.35-5.6 4.1-1.15.35-2.15.9l-2.1.75-2.35.55q-4.45-6.35-11.05-11.15l-2.7-1.9q7.65-3.6 10.15 3.75 2.45-2.6 1.65-5.2-.9-2.9-4.05-3.65-3.35-.9-6.7 1.35-1.7.9-2.9 2.7-3-1.85-5.9-3.05.15-2.2.95-4.3.2-.7.55-1.3l.7-1.25q2.7-5.15 7.85-8.05 1.3-.85 2.9-1.35-.1-.1.1-.1l1.9-.6q6.6-2.2 13.1.1 7.65 2.6 10.35 9.8 1.7 5.25-.1 10.6M220 181.45l-.75-2.1-.2-.75q-.65-3.05 0-6.25 1-5.3 4.7-8.4 3.2-2.9 7.05-2.65l1.05.05.15.05 1.75.35q3.2 1.2 5.2 4.7l.45.95.4.95q.6 1.5.8 3.35-2.1 1.4-4 3.35-.85-1.1-1.8-1.65-2.2-1.2-4 .05-1.9 1-2.3 3.25-.45 2.05 1 3.7 1.25-5.65 6-4.1l-1.8 1.85q-3.95 4.35-6.1 9.4l-1.1-.25-1.1-.45-1.1-.4q-1.6-1.05-2.8-2.5l-.55-.75-.8-1.4-.15-.35m23.1-.85q2-1.45 4.85-2.45 3.45-1.4 6.15 2.05 9.9 12.2 1.45 23.85l-4.35 4.7q-5.85 5.05-11.95.1-2.6-2.1-3.4-5.45l-.1-.6q-2.15-9.7 1.15-15.8 1.4-2.95 4.15-5 .9-.85 2.05-1.4m24.55 24.3q-9.1-11.1-1.3-23.45l1.65-2.3q2.85-4.1 7.25-3.25 12.2 2.4 16.65 10.7 3.55 6.9 1.1 17.3-1.05 4.65-5 7.1-3.45 1.9-6.5 2.15-4.9.25-9.3-3.55-2.75-2.5-4.55-4.7m-11.8-6.2.75-.65q.95-1.15 1-2.75l-.15-1.15q-.3-.9-.95-1.55-1.15-1.15-2.6-1.05-1.45-.05-2.35 1.15-1.1 1.15-1.05 2.75-.05 1.5 1.05 2.6l.95.75-.4.1q-.85-.2-.75 0l.75.45 1.85.3 1.9-.3.8-.4-.8-.1v-.15m-3.8-7.35q4.8-1.75 5.4 2.8-.6-4.55-5.4-2.8m18.25 7.55 1.05-.85q1.1-1.2 1.15-2.8-.05-1.8-1.25-2.95-1.3-1.25-2.9-1.15-1.6 0-2.7 1.3-.7.65-.95 1.55l-.1 1.3q-.05 1.6 1.1 2.75l.85.65-.05.1q-.9 0-.9.25l.95.35 2.15.3 2.1-.25.85-.4-.9-.15h-.45m.25-8.1q-5.5-1.45-5.85 3.2.35-4.65 5.85-3.2" fill="#3a3956"/><path d="M228.1 202.6h-.05l2.3-10.55q.35-1.2.95-2.25.75-1.7 1.7-3.1 1.4-2.45 3.4-4.45.15-.35.55-.6l4.15-3.55.9-.05q.15 2.25 1.1 2.55-1.15.55-2.05 1.4-2.75 2.05-4.15 5-3.3 6.1-1.15 15.8l.1.6-4.45 3.7-3.3-4.5m70.05-17.75.2.3.7.9.5.8q6.5 9.95 7.75 19.75l-.3.05-5.15-4-6.5-17.05 2.8-.75m-41.65 19.2 11.15.85q1.8 2.2 4.55 4.7 4.4 3.8 9.3 3.55l6.65 2.6 2.1 5.4q-16.35-2.8-30.65-3-2.95-.15-5.65 0l2.55-14.1m0 5.4q3.55 2.7 4.75 5.95 1.5-4.05 5.4-5.45-5.4-1.35-10.15-.5" fill="#29326d"/><path d="M235.5 176.3q-4.75-1.55-6 4.1-1.45-1.65-1-3.7.4-2.25 2.3-3.25 1.8-1.25 4-.05.95.55 1.8 1.65l-1.1 1.25m56.8-6.7q1.2-1.8 2.9-2.7 3.35-2.25 6.7-1.35 3.15.75 4.05 3.65.8 2.6-1.65 5.2-2.5-7.35-10.15-3.75l-1.85-1.05m-29.45 40.25-3.85.1.9 1.25v.1l2.95-1.45m-6.35-.4q4.75-.85 10.15.5-3.9 1.4-5.4 5.45-1.2-3.25-4.75-5.95" fill="#27273a"/><path d="m318.25 145.9-.5-.2m-.2-.05-1-.35q-5-1.7-9.9-1.2l-2.4.35-2.8.65m26 29-.45.9m-15.8 11.25-1.3.4m-66.6-16.9q1.05-.75 2.2-1.35M233.2 158l1.5.4m-5.05-.55q-2.65.3-4.95 1.9m-.55.3.25.65m-1.45.35-.25.2q-.4.2-.45.5m-4.45 7.15q-.5 1.1-.7 2.6l-.2.95q-.25 1.5-.2 3.05-.05 1.45.2 2.9.35 2 1.2 3.9m12.5-24.45h-.95m2.7.05h.25l.6.1m-.85-.1-.05.05-.6-.1h-1.1m-7.6 3.25 1.4-.4m-6.6 8.2q1.3-4.3 4.45-7.15m-3.2 22.5-.65-1.35-.3-.6m1.6 2.95-.65-1m35.4-19.4-.65.15m-2.1.65q-3.25 1.15-6.2 2.75m-22.15 20.05 1.15.6m.4 6.4q.65-2.95 1.75-5.7l-.65-.1-1.5-.6m0 8.4q-.55 3.35-.45 7-.05 4 .7 7.9m-1.4-23.9q-2.1-1.2-3.65-3.2M298.6 146q-.35.1-.45.25-1.85.7-3.4 1.6m3.85-1.85q1.35-.65 2.85-.9m-32.55 17.85-7.6.5-.5.05m16.15.25 1.6.3m2.2.55 1.85.6q.2-2.05.95-3.95l.5-1.6q.3-1 1-1.9 3.35-6.35 9.7-9.9m-23.45 15.2 1.85.15m-15.45.85-.35.05m.35-.05 3.1-.55m49.2 23.35-.1-.2M271 249.5l-.4-.05-1.1-.05-2.25-.2m-1.85-.2-1.45-.25m-2.6-.5q-7.7-1.7-13.85-5.15l-1-.6-2.25-1.45-2.55-1.85-1.5-1.25m-1.15-1-4.95-5.2-3.85-5.35m-1.4-2.45-1.15-2.4m-1.15-2.9-.2-.6q-.65-1.5-.95-2.9l-.25-.9-.4-1.9" fill="none" stroke="#000" stroke-opacity=".8" stroke-width=".8"/><path d="m324.7 170.1-.3.75m-.8 1.7q-.35.3-.4.7m-21.85-23.65q6.6-2.2 13.1.1 7.65 2.6 10.35 9.8 1.7 5.25-.1 10.6m-100-10.35-.55.3m-4.15 21.4-.75-2.1m14.5-17.6q3.2 1.2 5.2 4.7l.45.95m-8.6-6.1 1.05.05.15.05 1.75.35m-14.7 16.85q-.65-3.05 0-6.25 1-5.3 4.7-8.4 3.2-2.9 7.05-2.65m10.15 10.1q1.1-1 2.35-1.65m-3.5-1.4-.4-.95m1.2 4.3q.1-.3.35-.3m-.35.3q-.2-1.85-.8-3.35m-18.85 14.85-.8-1.4-.15-.35m.95 1.75.55.75q1.2 1.45 2.8 2.5l1.1.4 1.1.45 1.1.25q2.15-5.05 6.1-9.4l1.8-1.85 1.1-1.25q1.9-1.95 4-3.35m16.15-3.2-.7.2q-7.05 1.6-12.65 5.55l-2.35 1.65-.8.6-1.6 1.55-2.6 2.8q-2.8 2.95-4.55 6.4-.9 1.3-1.45 2.75-2.45 5.4-2.75 11.6l-.1 3.1q-.05 2.7.35 5.5m79.35 9.75q1.7-5.65 1.9-11.85l-.05-1.05q-.35-11.1-6-19.75l-.65-1.05-1.55-2.1-.4-.5q-3.35-4-7.6-7.25l-3.35-2.3-2-1.15-1.35-.8-3.2-1.45q-10.2-4.25-21.55-2.85l-.25.05-2.5.3-1.6.3m-30.1 21.25q.4-1.2.95-2.2m.1 23.8-.15-1.15m28.3-11.5.75-.65q.95-1.15 1-2.75l-.15-1.15q-.3-.9-.95-1.55-1.15-1.15-2.6-1.05-1.45-.05-2.35 1.15-1.1 1.15-1.05 2.75-.05 1.5 1.05 2.6l.95.75h1.5l1.7.05v-.05l.15-.1m0 .15.8.1-.8.4-1.9.3-1.85-.3-.75-.45q-.1-.2.75 0l.4-.1m2.2-3.95q-.2.05-.15.45l.15.45.4.15.4-.1.1-.55-.1-.45q-.25-.25-.4-.2-.25-.1-.4.25m13-.2.25.5-.2.5-.45.2-.45-.25-.15-.45V195m-2-1q.25-.9.95-1.55 1.1-1.3 2.7-1.3 1.6-.1 2.9 1.15 1.2 1.15 1.25 2.95-.05 1.6-1.15 2.8l-1.05.85h.45l.9.15-.85.4-2.1.25-2.15-.3-.95-.35q0-.25.9-.25h.25l-.2-.1-.85-.65q-1.15-1.15-1.1-2.75l.1-1.3m23.2-33.05.7-1.25q2.7-5.15 7.85-8.05 1.3-.85 2.9-1.35-.1-.1.1-.1l1.9-.6m-14 12.65q.2-.7.55-1.3m-2.85 5.1 1.35.5q.15-2.2.95-4.3m-.95 4.3q2.9 1.2 5.9 3.05m1.85 1.05 2.7 1.9q6.6 4.8 11.05 11.15l2.35-.55 2.1-.75q1-.55 2.15-.9 3-1.75 5.6-4.1.4-.65 1.1-1.35l1.65-2.2q.05-.4.35-.6m-38.15-7.2-2.45-.85m11.55 5.45-1.85-1.05m16.9 16-1.3-1.9m2 2.95-.7-1.05m-2.3 34.35q-.4.35-.35.75-.25.25-.25.65l-.95 2.4-1.1 1.9q-3.8 6.4-10.35 11.5-3.25 2.25-6.55 3.95m9.85-18.85q-.3-1.7.55-3.05m-10.75 22q-8.1 3.75-17.2 3.8l-.9-.1-6.75-.7-4.45-1.05m39.5-20.9q.1 1.25.9 2.9m-31.35-26.35 1.8.1h1.75m-14.45-.05-.15-.05M244.65 237l.95.8 1.75 1 .5.25q4.45 2.6 9.85 4.1m-14.4-7.1 1.35.95m-16.95-25.65.4 1.65.15.85q2.05 8.25 8.25 15.55 3.05 3.65 6.8 6.65" fill="none" stroke="#333" stroke-opacity=".4" stroke-width=".5"/><path d="m317.75 145.7-.2-.05m-7.65 41 .15.05m3.95.85q7.85-2.75 12.55-7.85 3.8-4.2 5.6-9.85 3.65-11.05-5.35-20.3l-.25-.15q-4.35-2.75-8.3-3.5m-72.75 22.5q-.4-5.1-5.55-9.2l-5.25-.95-1.5-.25-.85-.1m-.65-.05.65.05m-7.45 37.55-4.5.45 4.1 1.55m46.8-34.4-1.65-3.8-.75 3.7m4.4.25q1.25-3.6 4.35-5.9-1.65 3.45-.7 6.45m1.6.3 1.95-2.55.15 3.1m-23.3-.5-2.4-3.5-.35 4.2m-2.9.85-1.1-7.25 3.2 6.6m61.7 26.5-1.5-3.95m1.5 3.95 4.3-.5-3.65 2.55 1.45 5.65 4.1.1-3.75 1.85.35 2.5 3.6.65-3.45 1.25q.4 6.45-.95 12.7m-.1.45q-1 4.3-2.85 8.45-4.2 7-9.6 11.95l-.35.35-2 1.65 1.35 2.9-3.2-1.5q-4.25 2.95-9.1 4.8l.3 2.85-2.65-2-.55.15-10.05 1.15-1.95 4.65-2.5-3.9-1.9 5.75-1.35-6.45m-3.75-.3-1.05 3-.8-3.2m-1.45-.25-1.55 5.65-1.05-6.15m-21.15-10.3-4.55 3.95 3.4-4.95m-8.8-10.55-4.45 1.6 3.05-4.05m-1.15-2.4-6.5.65q2.65-1.8 5.35-3.55m47.95 30.85-.25.7" fill="none" stroke="#000" stroke-opacity=".8" stroke-width=".8"/><path d="M328.8 171.3q1.7-4.1 1.7-8.1-.25-3.15-1.25-6.05-1.05-2.8-2.7-5-3.05-4.1-8.3-6.25m10.55 25.4-1.35 2.8m-.45.9-.45.55-1.2 1.7-1.45 1.65q-3.3 3.2-7.45 5.45l-2.25.95-3 .95m-76.5-27.85q4.05 1.35 6.65 5.7l.75 1.45.35 1.15q.6 1.4.85 3.05m69.1 22-2.4-4.9m4.45 31.15.35-1.7q.85-4.5.7-9.3v-.35l-.25-3.55-.1-.6-.55-3.35-.95-3.85-1.25-3.45m2.05 26.15-.45 1.65-1.45 4.3-1.55 3.35-1.45 2.5q-2.4 3.5-5.55 6.65l-2.05 1.85-.45.4-3.1 2.45-.2.1q-3.25 2.25-6.75 3.95-1.95.9-3.9 1.6m-.35.1q-4 1.45-8.3 2.15l-3 .4" fill="none" stroke="#272727" stroke-opacity=".4" stroke-width=".5"/><path d="M229.5 180.4q-1.45-1.65-1-3.7.4-2.25 2.3-3.25 1.8-1.25 4-.05.95.55 1.8 1.65m20.15-6.55-.9-4.05m-31.1 47.9 2.6-.85m.15-.05.2-.1m33.1-47.85.05 4.4m-3.1-3.45-.05-.4m.65 4.15-.6-3.75m-.3 29.7q-.6-4.55-5.4-2.8m15.7 3.25-.05.05m-1 .35.35.1.65-.45m-3-.65q.35-4.65 5.85-3.2m21.75-21.2q1.2-1.8 2.9-2.7 3.35-2.25 6.7-1.35 3.15.75 4.05 3.65.8 2.6-1.65 5.2m2.25 46.3 4.3 2.35 1.7.9m-7.2-.2 3.55 2.15 2.1 1.4m-20.75-6.15 2.85.4 4.1.7m-6.95-1.1q-16.35-2.8-30.65-3-2.95-.15-5.65 0l-4.75.15m20.6 26.7.4 2.95.4 1.5m36.8-21.3-3.15-2.5m3.15 2.5 2.15 1.65m-69.3-10.8 8.95-.7m-4.3 21.25-.65 1.5m3.1-2.25-.5 2.3-.35 1.4m1.1-.9.25-2.55m-2.95.5.7-1.75m2 3.8-.1 1.5m21.7 4.6-.3-2.8m.3 2.8.3 1.7m-26.2-13.35-.75 1.6-.85 1.55m-16.3-24.05 2.85-1.3m-3.1.4 2.95-1.25m5.2 6.9 6.95-.9" fill="none" stroke="#333" stroke-opacity=".4" stroke-width=".5"/><path d="m310.05 186.7 3.95.85" fill="none" stroke="#272727" stroke-opacity=".4" stroke-width=".5"/><path d="m254.6 164.8-.15.05m2.9-.75.4.35" fill="none" stroke="#6f0" stroke-width=".5"/><path d="M233.3 219.9q.1.95-.45 2.05m-.55-4.1q.75.95 1 2.05" fill="none" stroke="#000" stroke-opacity=".4" stroke-width=".5"/><path d="m241.1 178.1.9-.05-.25-.45v-.15l-.7-1.55m15-7.2 6.25 11.25 1.05-.9m-1.05.9.2.4.95.25 1-1.6m1.9 2.45-2.9-.85-.85 1.75m-.3-2.4-1.8 1.55m33.25 2.1.4 2.3 1.2-.3 5.2-1.45m-8.65 2.45 2.1-.55.15-.15m2.1 4.95.9-.4-1.25-3.35-.65.55m1.9 2.8 1.35-.5m-3.15-4.35.55 1.5.8-1m-54.7-8.05 1.3-.75m-.2 3.3q-.95-.3-1.1-2.55m56.65 29 2 1.05m-5.5-3.7 1.4 1.35m12.25 2.35-6.95-5.45-10.55 10.1-3.15 3 .85 2.15 1.75-.6m-.7-5.35 1.25.8m-2.3 5.15 1.25 3.25m-2.25-2.9 1-.35m4-4.15 1.1.55m-3.15 12.15.8-.1 1.35-4.8m-1.35 4.8 1 .15m-7.65 7.05-.3-.7-.95.2.4 1m.55-1.2-.8-1.25m7.75-5.25-1.95 6.5-2.45 8.25-.35.1m-2.2-8.35h5m-26.15-29.5.8 1.3 1.1.1-.85-1.4m-.25 1.3.8 1.55m.3-1.45 2.1.15m-2.1-.15.6 1.05m-10.6-1.75h.95l1.7.2.55-1.35m-.55 1.35h.6l.5-1.1m5.15 1.5-5.65-.4-.35.85m-.25-.85-.55 1.15m-1.15-1.35-1.75 9.75 1.25-.15m-2.1.3.85-.15-.8 4.35m-4.75.15-1.85 7.7-.85 3.65 1.1.85m.4-4.3.95.15m-4.3 10.65 1.15-4.9-.9-.3m1.05-2.4.55.25-.7 2.45 1.55.4m-2.05-7 2.05.5m15.65-4.25 6.05 6.1 1.4-.8m-2.2 1.35.8-.55 5.3 5.4 9.5-.2-.6-2.05m-18.3 9.65-.45-1.55-.55.3.5 1.4m-.75-4 .8 2.3 9.85-5.85m-16.65 9.9 6.25-3.75-.8-2.3m25-21.35-6.65-2.6m-52.75-8.3.5-.6-1.15-1.65h-.05l-.75-1m2.6 2.1-.65.55.45.6.5-.65m10.05 14.8-8.85-11.9-1.7-2.25-.45.35m9.6 10.35.35-.85m-3.05-3 .25-.45m-1.65 2-.45.75m2.95 2.85-.25.35m-1.15-13.8-4.45 3.7m65.75-16.65 4.7 12.2M262.75 221.5l-3.15-3.35" fill="none" stroke="#9aa3da" stroke-width=".5"/></g></defs><use xlink:href="#a"/></svg>