<svg viewBox="0 0 204.7 229.05" xmlns="http://www.w3.org/2000/svg" xmlns:xlink="http://www.w3.org/1999/xlink"><use width="204.7" height="229.05" xlink:href="#a"/><defs><g id="a"><path d="m348.3 135.85-7.55-6.75h26.4l-14.6 11.15-3.5-3.65-.75-.75m-35.15-22.15-3.9-1.25q-10.05-3-21-3.7l33.9-21.2-9 26.15m-61.65-.75q-11.9 3.75-22.45 10.75l14.65-37.65 7.8 26.9m-45.35 31.6q-6.95 8.5-11.6 18l-6.85-30.5 18.45 12.5m-16.95 31.6q-2.75 9.25-3.6 19.3l-12.9-.4 16.5-18.9" fill="#c00" fill-rule="evenodd" transform="translate(-172.6 -85.95)"/><path d="m306.95 143.35 7.35 1.35 5.85-3.65 8.45-1.55-13.45-10.95L336.7 138l11.6-2.15.75.75 3.5 3.65q4.4 4.8 8 9.95l-4.1 1.35L364.5 182l-10.25-29.75-7.1 2.3v12.5l-4.6-11-15.4 5-1 .45v8.05L322.7 163l-2.05.9-3.5-7.35q-4.65-7-10.2-13.2m2.3-30.9-3.25 6.2 16.15 7.9-17.3-5.75-4.15 7.75 4.45 6.5h-6.55q-16.85-15.1-40.5-23.95 7.85-1.85 16.2-2.35l6.9-.25 7.05.25q10.95.7 21 3.7m-19.9 85.1h6.35l7.95 75.5q4.45-5.65 8.2-11.3l.8 5.3-.55 7.1 12.05 2.4-12.6 3.95-1.3 15.8q-8.7 2.65-18.1 3.65l-2.8-102.4m23.75 62.25 1.8-3 4.25.75-6.05 2.25m9.05-17.3q6.3-15 7.45-30.3h.05l5.5-4.15-2.4 6.7 10.4 8.55 10.5-7.25-8.5 11 2.7 13.4 12.8-8.4-11.35 15.45 4.05 20.3-4.3 4.55q-5.95 5.95-12.4 10.65v-8.8l-5 1.85 5-3.8v-7.7l-1.9-2.9-13.6 3.4 11.3-6.9-2.55-3.9-6.25 1.3 4.6-3.8-6.1-9.25m7.6-40.55q-.45-11.7-3.85-23.55l5.95.8 5.8-13.65v14.4l1 .1 13.4 11.95 3.1-5.95v8.7l21.65 19.3q-.75 8.05-2.7 15.6l-8.45-11.55-7.5 5.95 4.5-10.1-2.5-3.4-13.8-3.9-6.7 6.4 2.7-7.5-12.6-3.6m-118.85-16.8 1.5-.1q4.45 0 7.55 3.15 3.2 3.2 3.2 7.6 0 4.45-3.2 7.55-3.1 3.2-7.55 3.2l-3.05-.4q-2.55-.75-4.55-2.8-1.4-1.4-2.2-3.05 2.5 2.25 5.85 2.25l2.5-.35q2.05-.6 3.65-2.25 2.6-2.55 2.6-6.15t-2.6-6.2q-1.6-1.6-3.65-2.2l-.05-.25" fill="#f90" fill-rule="evenodd" transform="translate(-172.6 -85.95)"/><path d="M348.3 135.85 336.7 138l-21.55-9.45 13.45 10.95-8.45 1.55-5.85 3.65-7.35-1.35q-3.95-4.35-8.35-8.3h6.55l-4.45-6.5 4.15-7.75 17.3 5.75-16.15-7.9 3.25-6.2 3.9 1.25q10.7 3.7 20.35 10.1l7.25 5.3 7.55 6.75m-18.65 76.35-.05-.05q.35-5.1.15-10.2l12.6 3.6-2.7 7.5 6.7-6.4 13.8 3.9 2.5 3.4-4.5 10.1 7.5-5.95 8.45 11.55q-5.5 21.1-20.75 38.15l-4.05-20.3 11.35-15.45-12.8 8.4-2.7-13.4 8.5-11-10.5 7.25-10.4-8.55 2.4-6.7-5.5 4.15m-9-48.3 2.05-.9 3.45 6.55v-8.05l1-.45 15.4-5 4.6 11v-12.5l7.1-2.3L364.5 182l-8.05-30.45 4.1-1.35 3.65 5.65q13 21.65 13 48.65 0 4.85-.4 9.55l-21.65-19.3v-8.7l-3.1 5.95-13.4-11.95-1-.1v-14.4l-5.8 13.65-5.95-.8q-2.1-7.25-5.25-14.5m16 119.1q-12.25 8.9-26.4 13.3l1.3-15.8 12.6-3.95-12.05-2.4.55-7.1-.8-5.3 1.25-1.95 6.05-2.25-4.25-.75q4.2-7.15 7.25-14.3l6.1 9.25-4.6 3.8 6.25-1.3 2.55 3.9-11.3 6.9 13.6-3.4 1.9 2.9v7.7l-5 3.8 5-1.85v8.8" fill="#300" fill-rule="evenodd" transform="translate(-172.6 -85.95)"/><path d="M333.5 123.8q-9.65-6.4-20.35-10.1l9-26.15 11.35 36.25m-75.4-12.7q-3.35.8-6.6 1.85l-7.8-26.9 30.6 22.7q-8.35.5-16.2 2.35m-34.95 16.8q-5.1 3.95-9.85 8.7-3.85 3.85-7.15 7.95l-18.45-12.5 35.45-4.15m-37.55 67.55q-.4 4.45-.4 9.05l.2 6.1-12.7-15.55 12.9.4m166.95-55.2 14.6-11.15-2.95 26.75-3.65-5.65q-3.6-5.15-8-9.95" fill="#900" fill-rule="evenodd" transform="translate(-172.6 -85.95)"/><path d="M298.6 135.05h-.9l-5.85 10.5 5.85 3h-7.5l-9.5 17 27.65-17.15-8.65-6.35 7.25 1.3q5.55 6.2 10.2 13.2l3.5 7.35-24.45 10.65 29.7 3.85q3.4 11.85 3.85 23.55l-19.1-5.4 18.95 15.6.05.05h-.05q-1.15 15.3-7.45 30.3l-1.25-1.85-6.75 1.4 3.75-5.95-13.25-20.05 6.3 40.05 3.95.7-1.8 3-1.5.55.25 1.4q-3.75 5.65-8.2 11.3l-7.95-75.5h-6.35v-2.7h-5.85l-96.2 30.5q-1.5-7.15-1.9-14.75l-.2-6.1q0-4.6.4-9.05.85-10.05 3.6-19.3 2.1-7.05 5.35-13.6 4.65-9.5 11.6-18 3.3-4.1 7.15-7.95 4.75-4.75 9.85-8.7l5.9-4.2q10.55-7 22.45-10.75 3.25-1.05 6.6-1.85 23.65 8.85 40.5 23.95m-88.25 50.2-1.9-.2q-3.6 0-6.2 2.55-2.55 2.6-2.55 6.2t2.55 6.15l.35.35q.8 1.65 2.2 3.05 2 2.05 4.55 2.8l3.05.4q4.45 0 7.55-3.2 3.2-3.1 3.2-7.55 0-4.4-3.2-7.6-3.1-3.15-7.55-3.15l-1.5.1-.55.1.55-.1.05.25-.6-.15" fill="#fc0" fill-rule="evenodd" transform="translate(-172.6 -85.95)"/><path d="M298.6 135.05q4.4 3.95 8.35 8.3l-7.25-1.3 8.65 6.35-27.65 17.15 9.5-17h7.5l-5.85-3 5.85-10.5h.9m13.25 126.7-.25-1.4 1.5-.55-1.25 1.95m3.05-4.95-3.95-.7-6.3-40.05 13.25 20.05-3.75 5.95 6.75-1.4 1.25 1.85q-3.05 7.15-7.25 14.3m14.7-44.65-18.95-15.6 19.1 5.4q.2 5.1-.15 10.2m-3.7-33.75-29.7-3.85 24.45-10.65q3.15 7.25 5.25 14.5" fill="#630" fill-rule="evenodd" transform="translate(-172.6 -85.95)"/><path d="M283.5 194.85h5.85v2.7l2.8 102.4q1 14-8.25 14.9-2.45.25-4.2-.65 4.85-2.05 6-9.65l-2.2-109.7M179.05 236.5l98.15-34.45-3.5 6-14.9 5.05-22.3 7.55-16.7 5.65-21.95 7.45-7.5 2.55q-7.95 2.45-11.3.2" fill="#f69" fill-rule="evenodd" transform="translate(-172.6 -85.95)"/><path d="m187.3 225.35 96.2-30.5 2.2 109.7q-1.15 7.6-6 9.65-3.85-2-4.4-9.35-.15-2.05-.05-4.5l-.2-12.05-.35-21.2-.2-10.8-.35-23.25-.45-25 3.5-6-98.15 34.45q-1.85-1.3-2.35-3.95.3-4.6 10.6-7.2" fill="#f99" fill-rule="evenodd" transform="translate(-172.6 -85.95)"/><path d="m202.6 200.3-.35-.35q-2.55-2.55-2.55-6.15t2.55-6.2q2.6-2.55 6.2-2.55l1.9.2.6.15q2.05.6 3.65 2.2 2.6 2.6 2.6 6.2t-2.6 6.15q-1.6 1.65-3.65 2.25l-2.5.35q-3.35 0-5.85-2.25" fill="#fff" fill-rule="evenodd" transform="translate(-172.6 -85.95)"/><path d="m197.85 233.75 21.95-7.45q.3 9.6-5.95 13.7 1.95-7.75-15.45-4.85l-.55-1.4m38.65-13.1 22.3-7.55q1.65 11.15-6.85 14.65.5-9.5-15-5.6l-.45-1.5m37.65 12.4.35 23.25q-7.25 1.25-10.45-2.4 8.65-3.15 7-20l3.1-.85m.55 34.05.35 21.2.2 12.05q-.1 2.45.05 4.5-5.9-.85-9.4-3.15 6.85-3.1 5.3-10.4l-5.45-3.65 1.9-1.85q-1.7-1.3-2.85-3.35 9.15-2.5 8.85-15.2l1.05-.15m.35 21.2q-4.55-.25-7.4-2.5 2.85 2.25 7.4 2.5" fill="#cc9" fill-rule="evenodd" transform="translate(-172.6 -85.95)"/><path d="M251.95 227.75q-2.3.9-5.25 1.3-7.3.05-9.75-6.9 15.5-3.9 15 5.6m21.7 39.5q.3 12.7-8.85 15.2-.85-1.5-1.35-3.4.7-9.9 10.2-11.8m-9.6-13.35q-1.9-2.2-2.35-6.1.55-10.75 9.35-13.9 1.65 16.85-7 20m1.85 47.8q-1.95-1.25-3.2-2.9-1.5-6.05 3.05-11.15l5.45 3.65q1.55 7.3-5.3 10.4M213.85 240q-1.7 1.1-3.9 1.8-7.35 2.6-11.55-6.65 17.4-2.9 15.45 4.85" fill="#e1e1c3" fill-rule="evenodd" transform="translate(-172.6 -85.95)"/><path d="m175.7 49.9-7.55-6.75-7.25-5.3q-9.65-6.4-20.35-10.1l-3.9-1.25M85.5 25.15q-3.35.8-6.6 1.85Q67 30.75 56.45 37.75l-5.9 4.2q-5.1 3.95-9.85 8.7-3.85 3.85-7.15 7.95-6.95 8.5-11.6 18-3.25 6.55-5.35 13.6-2.75 9.25-3.6 19.3-.4 4.45-.4 9.05l.2 6.1q.4 7.6 1.9 14.75l96.2-30.5h5.85v2.7m58.95-61.7.75.75 3.5 3.65 14.6-11.15h-26.4m-82.65-18q7.85-1.85 16.2-2.35L71.1.1 78.9 27m22.8-4.2 6.9-.25 7.05.25 33.9-21.2 11.35 36.25M115.65 22.8q10.95.7 21 3.7m3.9 1.25 9-26.15m54.65 126.5q.4-4.7.4-9.55 0-27-13-48.65l-3.65-5.65q-3.6-5.15-8-9.95M6.45 150.55q3.35 2.25 11.3-.2l7.5-2.55 21.95-7.45 16.7-5.65 22.3-7.55 14.9-5.05.45 25 .35 23.25.2 10.8.35 21.2.2 12.05q-.1 2.45.05 4.5.55 7.35 4.4 9.35M79.35 141.8q-2.3.9-5.25 1.3-7.3.05-9.75-6.9l-.45-1.5m22.3-7.55q1.65 11.15-6.85 14.65m19.1 6.15 3.1-.85m102.65-19q-.75 8.05-2.7 15.6-5.5 21.1-20.75 38.15l-4.3 4.55q-5.95 5.95-12.4 10.65-12.25 8.9-26.4 13.3-8.7 2.65-18.1 3.65 1 14-8.25 14.9-2.45.25-4.2-.65m87.45-185.1L191.6 69.9M92.2 196.5q1.15 2.05 2.85 3.35 2.85 2.25 7.4 2.5m-11-34.4q-1.9-2.2-2.35-6.1.55-10.75 9.35-13.9m-7 20q3.2 3.65 10.45 2.4m-.85 10.95 1.05-.15m-9.9 15.35q-.85-1.5-1.35-3.4.7-9.9 10.2-11.8m-7.75 34.45q-1.95-1.25-3.2-2.9-1.5-6.05 3.05-11.15l1.9-1.85m-1.75 15.9q3.5 2.3 9.4 3.15m16.85-4.9-2.8-102.4m-60.3-73.85L71.1.1m-56 46 35.45-4.15M30 114.35l-.35-.35q-2.55-2.55-2.55-6.15t2.55-6.2q2.6-2.55 6.2-2.55l1.9.2.55-.1M30 114.35q2.5 2.25 5.85 2.25l2.5-.35q2.05-.6 3.65-2.25 2.6-2.55 2.6-6.15t-2.6-6.2q-1.6-1.6-3.65-2.2l-.6-.15M12.8 124.65.1 109.1l16.5-18.9M6.45 150.55q-1.85-1.3-2.35-3.95.3-4.6 10.6-7.2m11.1 9.8-.55-1.4M13 109.5l-12.9-.4m33.45-50.5L15.1 46.1l6.85 30.5m19.3 77.45q-1.7 1.1-3.9 1.8-7.35 2.6-11.55-6.65m15.45 4.85q6.25-4.1 5.95-13.7" fill="none" stroke="#000" stroke-linecap="round" stroke-linejoin="round" stroke-opacity=".4" stroke-width=".2"/></g></defs></svg>