<svg width="39" height="44" viewBox="256.35 175.85 38.5 44.2" xmlns="http://www.w3.org/2000/svg" xmlns:xlink="http://www.w3.org/1999/xlink"><defs><g id="a"><path d="M291.55 206.85q2.5 6.05-.05 11.25-.75-5.25.05-11.25" fill="#f49302"/><path d="M291.55 206.85q2.5 6.05-.05 11.25-.75-5.25.05-11.25" fill="none" stroke="#000" stroke-opacity=".302" stroke-width=".5"/><path d="M292.35 205.9q2.5 2.95 2.2 9.5-1.45-3.75-2.2-9.5" fill="#8a6923"/><path d="M292.35 205.9q2.5 2.95 2.2 9.5-1.45-3.75-2.2-9.5" fill="none" stroke="#000" stroke-opacity=".302" stroke-width=".5"/><path d="M258.85 204.7q-.7 5.75-2.2 9.5-.25-6.55 2.2-9.5" fill="#8a6923"/><path d="M258.85 204.7q-2.45 2.95-2.2 9.5 1.5-3.75 2.2-9.5" fill="none" stroke="#000" stroke-opacity=".302" stroke-width=".5"/><path d="M258.9 205.65q.8 6 .05 11.25-2.5-5.2-.05-11.25" fill="#d27e03"/><path d="M258.9 205.65q-2.45 6.05.05 11.25.75-5.25-.05-11.25" fill="none" stroke="#000" stroke-opacity=".302" stroke-width=".5"/><path d="M264.65 187.15q-.7 1.85-2.45 1.85-3.35-7 2.45-1.85" fill="#615527"/><path d="M262.2 189q-3.35-7 2.45-1.85" fill="none" stroke="#382510" stroke-opacity=".502" stroke-width=".5"/><path d="M288.8 192q.55 1.85-2.25 1.7l-1.6-2-2.4-2.5q-1.6-1.35-3.25-2.25l2.4-2 .05.05q2.85 1.65 5.2 4.45l1.85 2.55m-21.4-6.35-.4.15q-2.55.85-4.7 2.9l1.9-2.2q2.4-2.3 5.45-3.2l-2.25 2.35" fill="#92846f"/><path d="m282.55 189.2 2.4 2.5 1.6 2q1.35 2.15 2.15 4.5-2.35-1.35-4.8-1.3l-.35-.55-1.35-1.8q-2.65-3.25-6.2-4.5l-1.4-.4 3.1-2.25 4.85 1.8M260 210.15l1.15-3.2.35.85q.95 2.15 2.45 4.1 3.15 3.8 7.3 4.95v2.6q-5.2-1.4-9.05-6.1l-1.95-2.85-.25-.35m3.95-18 .6-.35-.55.35h-.05m13.25 24.9.8-.2q2.3-.75 4.2-2.6l1.55-1.8.9-1.25.15-.4q.65 1.05.7 5l-.55.55q-3.4 3.2-8 3.7l.25-3" fill="#e2dccb"/><path d="M279.3 186.95q1.65.9 3.25 2.25l-4.85-1.8-6.55-2.35 2.5.1q2.7.35 5.05 1.6l.6.2" fill="#e7d992"/><path d="M286.55 193.7q2.8.15 2.25-1.7 2.7 4.4 2.9 9.6v.8q0 7.2-4.75 11.7 2.8-3.95 2.8-9.45 0-3.45-1.05-6.45-.8-2.35-2.15-4.5" fill="#716044"/><path d="m281.7 184.95-2.4 2-.6-.2q-2.35-1.25-5.05-1.6l-2.5-.1q-2 0-3.75.6l2.25-2.35.35-.1 5.6-.3q3.2.4 6.1 2.05" fill="#a09176"/><path d="M288.7 198.2q1.05 3 1.05 6.45 0 5.5-2.8 9.45l-1.45 1.7q-.05-3.95-.7-5 1.2-2.6 1.2-5.9 0-4.35-2.1-8 2.45-.05 4.8 1.3m-14.35-8.6-1.2-.25-1.75-.1-1.8.55-3.95 1.1-1.1.9-.6.35q-3.7 3.65-3.7 9.4 0 2.85.9 5.4l-1.15 3.2q-2.5-4.45-2.5-9.7 0-7.25 4.7-11.7l.1-.05q2.15-2.05 4.7-2.9l.4-.15q1.75-.6 3.75-.6l6.55 2.35-3.1 2.25-.25-.05m1.3 27.65 1.55-.2-.25 3-3.3-.1-1.45-.25-.95-.25v-2.6l1.05.2.85.1 2.5.1" fill="#d5cab3"/><path d="m269.6 189.8 1.8-.55 1.75.1 1.2.25.25.05 1.4.4q-1.35.6-2.65 1.65-1.7 1.4-3.7 3.7l-.05-5.6m13.95 6.55.35.55q2.1 3.65 2.1 8 0 3.3-1.2 5.9l-.15.4q-.3-.7-.95-1.1-1.55-.25-2.8.75-2.9 2.35-2.9 6l-.8.2-1.55.2-1-1.85.55-.3-1.8-4.55-.5.2q1.5-4.3 3.1-7.4 3.25-5.95 7.55-7m-13.9-.95.55 3.4 1.15-.2 1.25 5.85-2.3.7 1.7 5.95.85-.35v.05l-.55 6.25-1.05-.2q-4.15-1.15-7.3-4.95-1.5-1.95-2.45-4.1l1.4-2.9q1.85-3.85 4.5-7.05l2.25-2.45" fill="#675221"/><path d="m269.6 189.8.05 5.6-2.25 2.45q-2.65 3.2-4.5 7.05l-1.4 2.9-.35-.85q-.9-2.55-.9-5.4 0-5.75 3.7-9.4h.05l.55-.35 1.1-.9 3.95-1.1m3.25 21 .05-.05.5-.2 1.8 4.55-.55.3 1 1.85-2.5-.1-.85-.1.55-6.25" fill="#614d1f"/><path d="M269.65 195.4q2-2.3 3.7-3.7 1.3-1.05 2.65-1.65 3.55 1.25 6.2 4.5l1.35 1.8q-4.3 1.05-7.55 7-1.6 3.1-3.1 7.4h-.05.05l-.05.05v-.05l-.85.35-1.7-5.95 2.3-.7-1.25-5.85-1.15.2-.55-3.4m8.35 21.45q0-3.65 2.9-6 1.25-1 2.8-.75.65.4.95 1.1l-.9 1.25-1.55 1.8q-1.9 1.85-4.2 2.6" fill="#6d5623"/><path d="m288.8 192-1.85-2.55q-2.35-2.8-5.2-4.45m5.2 29.1q4.75-4.5 4.75-11.7v-.25m0-.55q-.2-5.2-2.9-9.6m-18.8-8.8 5.6-.3q3.2.4 6.1 2.05m-7.35 4.65-1.2-.25-1.75-.1-1.8.55m6.4.25-1.4-.4m-4.95-6.35q-3.05.9-5.45 3.2l-1.9 2.2-.1.05q-4.7 4.45-4.7 11.7 0 5.25 2.5 9.7l.25.35 1.95 2.85q3.85 4.7 9.05 6.1l.95.25 1.45.25 3.3.1m-15.8-13.1q-.9-2.55-.9-5.4 0-5.75 3.7-9.4l.6-.35 1.1-.9 3.95-1.1m6.4.25q3.55 1.25 6.2 4.5l1.35 1.8.35.55m.9 13.9q1.2-2.6 1.2-5.9 0-4.35-2.1-8m-8.25 20.35 1.55-.2.8-.2m6.65-5.65.15-.4m.7 5 1.45-1.7m-14.65 2.95-1.05-.2q-4.15-1.15-7.3-4.95-1.5-1.95-2.45-4.1l-.35-.85m11.15 10.1.85.1 2.5.1m9-6.05-.9 1.25-1.55 1.8q-1.9 1.85-4.2 2.6m7.5-1.05-.55.55q-3.4 3.2-8 3.7" fill="none" stroke="#382510" stroke-opacity=".502" stroke-width=".5"/><path d="m269.6 189.8.05 5.6.55 3.4 1.15-.2 1.25 5.85-2.3.7 1.7 5.95.85-.35h.05l.5-.2 1.8 4.55-.55.3 1 1.85m-2.8-6.5v.05" fill="none" stroke="#382510" stroke-opacity=".302" stroke-width=".5"/><path d="m283.5 212.75.1.05-1.4 1.45q-3.75 3.6-9.05 2.95-5.35-.7-9.15-5.3-3.75-4.6-3.75-10.35 0-5.7 3.7-9.35-2.4 3.25-2.4 7.9 0 5.7 3.75 10.3 3.8 4.6 9.15 5.3 5.3.65 9.05-2.95" fill="#382510" fill-opacity=".302"/><path d="M281.25 196.75q-3.8-4.55-9.1-5.2l-1.75-.15-5.7 1.7-1.7 1.25q-1.25 1.2-2.05 2.65.95-2.75 3.05-4.85l1.7-1.25 5.7-1.65 1.75.1q5.3.7 9.05 5.2 3.85 4.55 3.85 10.35 0 3.85-1.65 6.7.65-2.05.65-4.5 0-5.8-3.8-10.35" fill="#332e26" fill-opacity=".702"/><path d="m281.65 194.1 1.1-3.5.2 5.05-1.3-1.55m-13.25 24.35.6-2.25 2-.7-1.05 1-.5 2.5-1.05-.55M275.75 201.05l-2.95 14.1.1-5.35 2.85-8.75" fill="#382510" fill-opacity=".8"/><path d="M280.15 193.2 275.5 213l.65-7.35 4-12.45" fill="#382510" fill-opacity=".502"/><path d="m287.75 208.75-2-.75-.55-1.05.6-2.5-.95-3.6.55-.85.3 1 .4.5h2.25l.3-.1.25-.15 2.3.9-1.45 5.8-2 .8m1.7-6.35-3.8-.1 1.35.85 2.45-.75" fill="#f49302"/><path d="m288.9 201.25.7-.3 1.65-1.45v-1.75l-.4-1 1.25.2 1.05 1.6.65 2.55-.95 4.85-2.6 2.8-1.6.3-.9-.3 2-.8 1.45-5.8-2.3-.9" fill="#8a6923"/><path d="m289.45 202.4-2.45.75-1.35-.85 3.8.1" fill="#feb445"/><path d="m287.75 208.75-2-.75-.55-1.05.6-2.5-.95-3.6.55-.85.3 1 .4.5h2.25l.3-.1.25-.15.7-.3 1.65-1.45v-1.75l-.4-1 1.25.2 1.05 1.6.65 2.55-.95 4.85-2.6 2.8-1.6.3-.9-.3" fill="none" stroke="#31280b" stroke-opacity=".302" stroke-width=".5"/><path d="m258.75 204.3.2.1.15.05h1.15l.2-.3.05-.55.3.45-.15 2 .65 1.4-.2.6-.9.4-1.1-.45-1.4-3.25 1.05-.45m-.1.6 1.35.45.6-.5-1.95.05" fill="#d27e03"/><path d="m258.75 204.3-1.05.45 1.4 3.25 1.1.45-.5.15-.8-.15-1.6-1.55-.95-2.7v-1.4l.35-.9.7-.1-.1.55.2.95.95.8.3.2" fill="#8a6923"/><path d="m258.65 204.9 1.95-.05-.6.5-1.35-.45" fill="#feb445"/><path d="m260.2 208.45.9-.4.2-.6-.65-1.4.15-2-.3-.45-.05.55-.2.3h-1.15l-.15-.05-.2-.1m1.45 4.15-.5.15-.8-.15-1.6-1.55-.95-2.7v-1.4l.35-.9.7-.1-.1.55.2.95.95.8.3.2" fill="none" stroke="#31280b" stroke-opacity=".302" stroke-width=".5"/><path d="m272.15 214.6-.85-.75q-.95-1.15-.9-2.55 0-1.45.95-2.25.95-.85 2.3-.65t2.3 1.3l.35.5-4.15 4.4" fill="#a08034"/><path d="M276.3 210.2q.55.95.5 2 0 1.4-.9 2.3-1 .85-2.3.65-.8-.1-1.45-.55l4.15-4.4" fill="#64431c"/><path d="M275.65 211.6q.35.75.3 1.65 0 1.4-.9 2.3-1 .85-2.3.65t-2.25-1.3q-.95-1.15-.9-2.55 0-1.45.95-2.25.85-.75 2-.65h.25l.2.05.3.05h-.2q1.25.45 2.55 2.05" fill="#796128"/><path d="M273.3 209.55h1.9l.45 2.05q-1.3-1.6-2.55-2.05h.2" fill="#d6a533"/><path d="m271.25 211.75.2-.25q.5-.5 1.25-.4l1.25.8q.6.6.55 1.35 0 .75-.5 1.2-1.8-.1-2.75-2.7" fill="#3e2d13"/><path d="m274 214.45-.05.05q-.55.5-1.3.4-.75-.15-1.25-.7-.5-.7-.5-1.45 0-.6.35-1 .95 2.6 2.75 2.7" fill="#5c542e"/><path d="m265.5 199.65-3.55-5.1.9-1.2 2.05-.25 2.35.55 1.9 2.1-3.65 3.9" fill="#8e7e66"/><path d="m269.4 195.6.2-.35 1.1 4-.3 2.65-1.8 2.15-3.1-4.4 3.65-3.9.05.05.2-.2" fill="#716044"/><path d="m269.4 195.6.2-.35 1.1 4-.3 2.65-1.8 2.15-3.1-4.4-3.55-5.1.9-1.2 2.05-.25 2.35.55 1.9 2.1.25-.15-.2.2-.05-.05" fill="none" stroke="#000" stroke-opacity=".302" stroke-width=".5"/><path d="m269.7 200.05-.8.55h.55l-.45 2.45-1.2.95-1.75 1-.8-1.15-.1 1.4-3.15-.6v.05l-1.6-1.5-.4-.55-.45-.95q-.55-1.3-.5-2.8.1-2.35 1.65-3.7l.9-.55q1.3-.7 3-.35 2.2.45 3.75 2.35 1.15 1.6 1.35 3.4m-6.7-2.3-.25.15q-.7.6-.7 1.6-.05 1.05.55 2.05.8.8 1.75 1 1 .2 1.75-.4l.55-.75.2-.95q.05-1-.6-1.9-.7-.9-1.65-1.1-.9-.2-1.6.3" fill="#e2dccb"/><path d="m266.65 201.4-.55.75q-.75.6-1.75.4-.95-.2-1.75-1-.6-1-.55-2.05 0-1 .7-1.6l.25-.15-.15.15-.15.45q-.25.65-.1 1.4.3.85 1 1.5l3.05.15" fill="#978b47"/><path d="M263 197.75q.7-.5 1.6-.3.95.2 1.65 1.1.65.9.6 1.9l-.2.95-3.05-.15q-.7-.65-1-1.5-.15-.75.1-1.4l.15-.45.15-.15" fill="#5c542e"/><path d="M262 204.7v-.05l3.15.6.1-1.4.8 1.15 1.75-1 1.2-.95.45-2.45h-.55l.8-.55v.95l-.25 1.65-.55 1.05-.9.95q-1.65 1.4-3.85.9-1.2-.2-2.15-.85" fill="#aaa080"/><path d="m261.6 194.65-.9.55q-1.55 1.35-1.65 3.7-.05 1.5.5 2.8m.45.95.4.55 1.6 1.5q.95.65 2.15.85 2.2.5 3.85-.9l.9-.95" fill="none" stroke="#000" stroke-opacity=".302" stroke-width=".5"/><path d="m280.05 194.8 2.85.55 2.1 3.55-8.55-1.7 2.2-1.75 1.4-.65" fill="#716044"/><path d="m280.05 194.8 2.85.55 2.1 3.55-8.55-1.7 2.2-1.75 1.4-.65" fill="none" stroke="#000" stroke-opacity=".302" stroke-width=".5"/><path d="M282.95 203.6q.35-.7.25-1.55-.1-1.1-.95-1.9t-1.95-.85q-.75 0-1.3.4l-.45.35q-.6.7-.5 1.8.1.9.65 1.7l.85.5 1.4.45 1.05-.05.65-.5.3-.35m-5.75 2.65-.35-.3q-1.8-1.8-2.1-4.2-.25-2.45 1.25-4.15t3.85-1.6q2.45.1 4.3 1.85 1.05 1.05 1.6 2.3l.4 4.05q-.25.95-.85 1.7l-2.15 1.25-2.1.3-.65-.2-.2-1.2-.35 1.05-2.65-.85" fill="#e2dccb"/><path d="m282.95 203.6-.3.35-.65.5-3.3-.9q-.55-.8-.65-1.7-.1-1.1.5-1.8l.45-.35q-.4.55-.3 1.4.15.9.7 1.7l3.25.9.3-.1" fill="#978b47"/><path d="M279 199.7q.55-.4 1.3-.4 1.1.05 1.95.85t.95 1.9q.1.85-.25 1.55l-.3.1-3.25-.9q-.55-.8-.7-1.7-.1-.85.3-1.4" fill="#5c542e"/><path d="m282 204.45-1.05.05-1.4-.45-.85-.5 3.3.9" fill="#e0c585"/><path d="m285.75 200.15.55 2q.1 1.1-.15 2.05l-.4-4.05m-.45 5.75-.3.35q-1.45 1.7-3.8 1.6-2.25-.1-4-1.6l2.65.85.35-1.05.2 1.2.65.2 2.1-.3 2.15-1.25" fill="#aaa080"/><path d="m285.75 200.15.55 2q.1 1.1-.15 2.05t-.85 1.7l-.3.35q-1.45 1.7-3.8 1.6-2.25-.1-4-1.6" fill="none" stroke="#000" stroke-opacity=".302" stroke-width=".5"/><path d="M283.45 188.55q-.65-.4-.9-1.05l-.1-.25 1.85-2.45-.85 3.75" fill="#bbaf2b"/><path d="m282.45 187.25-.1-.4q4.6-7.3 3.15 2.3-1.3-.05-2.05-.6l.85-3.75-1.85 2.45" fill="#696316"/><path d="M282.35 186.85q4.6-7.3 3.15 2.3" fill="none" stroke="#382510" stroke-opacity=".502" stroke-width=".5"/><path d="m272.25 184-.45-.25q1.35-7.9 3.4.25l-1.95.3-.55-2.3-.45 2" fill="#696316"/><path d="m273.25 184.3-.95-.3h-.05l.45-2 .55 2.3" fill="#978e24"/><path d="M271.8 183.75q1.35-7.9 3.4.25" fill="none" stroke="#382510" stroke-opacity=".502" stroke-width=".5"/></g></defs><use xlink:href="#a"/></svg>