<svg width="34" height="44" viewBox="258.3 177.95 34.35 44" xmlns="http://www.w3.org/2000/svg" xmlns:xlink="http://www.w3.org/1999/xlink"><defs><linearGradient id="a" x1="-819.2" x2="819.2" gradientTransform="matrix(-.00735 -.00572 .00562 -.00722 284.7 191.5)" gradientUnits="userSpaceOnUse"><stop stop-color="#755c24" offset="0"/><stop stop-color="#836d27" offset=".988"/></linearGradient><linearGradient id="b" x1="-819.2" x2="819.2" gradientTransform="matrix(-.00035 -.00572 .0048 -.0003 275.6 193.65)" gradientUnits="userSpaceOnUse"><stop stop-color="#755c24" offset="0"/><stop stop-color="#836d27" offset=".988"/></linearGradient><g id="c"><path d="m263.95 184.15 1.95-4.3q-4.7 2.7-7.6 9.3 3.3-2.7 5.65-5" fill="#435203"/><path d="M263.95 184.15q-2.35 2.3-5.65 5 2.9-6.6 7.6-9.3" fill="none" stroke="#000" stroke-opacity=".302" stroke-width=".5"/><path d="M289.1 183.25q3.4 4.7 3.55 11.9-2-4-3.35-7.2l-.2-4.7" fill="#435203"/><path d="M289.3 187.95q1.35 3.2 3.35 7.2-.15-7.2-3.55-11.9" fill="none" stroke="#000" stroke-opacity=".302" stroke-width=".5"/><path d="M262.7 210.2q-2.35-10.5.2-15.7.75 5.25-.2 15.7" fill="#2d4806"/><path d="M262.7 210.2q-2.35-10.5.2-15.7.75 5.25-.2 15.7" fill="none" stroke="#000" stroke-opacity=".302" stroke-width=".5"/><path d="M259 208.1q1.75-11.95 4.75-17.3-1.1 5.9-4.75 17.3" fill="#2d4806"/><path d="M259 208.1q1.75-11.95 4.75-17.3-1.1 5.9-4.75 17.3" fill="none" stroke="#000" stroke-opacity=".302" stroke-width=".5"/><path d="M288.5 207.2q.15 3.25-.3 7.35-.8-4-1.25-7.25.75-1.65 1.55-.1" fill="#596f04"/><path d="M288.5 207.2q-.8-1.55-1.55.1-.75-5.1-.65-8.35 1.9 3 2.2 8.25" fill="#435203"/><path d="M286.95 207.3q.45 3.25 1.25 7.25.45-4.1.3-7.35m-1.55.1q-.75-5.1-.65-8.35 1.9 3 2.2 8.25" fill="none" stroke="#000" stroke-opacity=".302" stroke-width=".5"/><path d="m290.75 205.25 1.9 6.6-2.6-6.1q.15-1.5.7-.5" fill="#596f04"/><path d="M290.75 205.25q-.55-1-.7.5-2.75-6.6-3.95-10.6 2.4 3.45 4.65 10.1" fill="#435203"/><path d="m290.05 205.75 2.6 6.1-1.9-6.6m-.7.5q-2.75-6.6-3.95-10.6 2.4 3.45 4.65 10.1" fill="none" stroke="#000" stroke-opacity=".302" stroke-width=".5"/><path d="m283.2 182.8.65-.65.6-.65.3-.1-.85 1.45h-.05l-.65-.05" fill="#ca0202"/><path d="m283.2 182.8.65.05-.25 3.5-.65-3.3.25-.25m3.6 22.7-1.25.95-.15.1-.55-1.75v2.2l-.7.55-1.05 5.3-.65 1.3q-1.55.05-2.5-4.8l-.1-.75.45-1.65q.6-1.8.3-3.75l-.35-2.15-.2-.5-1.2-1.6V196.4l.55-.85q.6 1.55 1.5 1.45 1.9-1.6 1.7-2.2.3-3.25 1.9-4l.6-.2q.9-.05 1.25.7 0 1.2-.5 2.3l-1.15 3.25-.2-6.05.2 6.05-1.5 4.3 1.5-3.1q1.3-2.55 2.25-3.9.8 1.2 1.3 4.3l.15.65v.65l-.1 2.55-1.5 3.2m-5.05 9.9-1.1 2.05-.65-.1q1-2.6 1.75-1.95m3.1-11.9-.15-5.45.15 5.45m-3.2-5.9-.35.4-.1 1.1.1 1.3.3 1.15q.2.4.35-.65l.15-1.8-.15-1.1-.3-.4" fill="#a03111"/><path d="m282.45 214.15-.7 1.25q-.75-.65-1.75 1.95l-.55-.1.65-2.35.35-1.5-.2-1.55-.3-2.5q.95 4.85 2.5 4.8m-7.4 7.6-1.15-.2.25-1.9.9 2.1m13.35-22.65v.15-.15m-18.8-15.05.6.1h.2l1.2 2.15-2.1-1.65.1-.6m12.05 13.55.3.4.15 1.1-.15 1.8q-.15 1.05-.35.65l-.3-1.15-.1-1.3.1-1.1.35-.4m-4.8 6.05.15-1.05.25-1.65.6.65.4 3 .1 1.05v.8q-.45 4.1-.95 2.05-.55-2.05-.6-4.55l.05-.3" fill="#836d27"/><path d="m283.9 182.85.85-1.45 1.6-.55h1.05l-1.55 2.05-1.95-.05m-20.45-3.1 2.4-1.5q-.4 1.65-.15 2.25-1.15-1.25-2.25-.75m6.6 3.65.55-.8h2.15l-2.55 1.55-.6-.1.45-.65" fill="#d8ca7c"/><path d="m287.4 180.85 1.55.7-1.7 2.75-1.4-1.4 1.55-2.05m-21.55-2.6.45-.3 3.55 4.65-2.1 1.05-2.05-3.15q-.25-.6.15-2.25m6.9 4.35 2.7 4.15-1.45 1-1.2.75-1.2-2.2-1.2-2.15h-.2l2.55-1.55m4.2 2.3.45-.45.7-.8 3.85.45-.9.5-1.95.7h-.05l-1.25-.25.9-.55-.9.55-.75-.1-.1-.05" fill="#b19741"/><path d="m288.95 181.55.15.1q1 3.7 1.3 9.25l.1 2-.9 7.45-.7 1.1-.5-2.2V198.3l-.1-5.5-.45-5.35-.6-3.15 1.7-2.75m-8.95 35.8-1.4 2.1-2.4 2.5 2.65-4.8 1.25-2.25-.65 2.35.55.1m-11.15-6.5-1.8 1.1.45-.5.55-.6.8-.15v.15m1-28.25.2.8-.45.65-.1.6-.25 1.25-1.1-.6-.2-1.55v-.05l-.2-.05 2.1-1.05" fill="#64431c"/><path d="m268.55 188.85-.2 1.05-1.2.05-.45.4-.2.35q-.55.95-.9 3.1l-.15.55-1.35 1.05q-1.35-.35-1.45-3.55l-.05-.45v-.1l.1-.4v-.05q.6-2.4 2.6-3.55 1.45-.8 3.05-.4l.2 1.95m10.8.2-.3-3.75h.05l1.95-.7-1.3.8-.4 3.65" fill="#6f5122"/><path d="m290.5 192.9-.1 6.2-1.75 3.75-1.85 2.65 1.5-3.2.6-.85-.6.85.1-2.55v-.5l.5 2.2.7-1.1.8-1.25-.8 1.25.9-7.45m-4.95 13.55-.05.35-.1.3-.9 3.6-1.4 2.15 1.05-5.3.7-.55.55-.45.15-.1" fill="#560000"/><path d="m276.2 221.95-.3-.05-.85-.15-.9-2.1-.2-.4v-.05l-.75-1.65-.05-4.35-2.8-4.3 1.6-7.85-1.55-6.25 1.2-2.45.25.25-.25 4.25.95-3.5q.95 1.2 1.3 2.65l1.05 4.5q.15.95.8 1.55l.15 3.3.2-3h.05l.1-.45.2-.75q.7-2.45 1.75-3.3l.7-1.35v2.45l.15 3.8.85 5.85.1.75.3 2.5-1.4 5.3-2.65 4.8m.65-18.3-.05.3q.05 2.5.6 4.55.5 2.05.95-2.05v-.8l-.1-1.05-.4-3-.6-.65-.25 1.65-.15 1.05m-2.95 8.65-.15-1.35.15 1.35m1.85-3.9-.35 1.3.2 2.3-.2-2.3.35-1.3m.15 13.5-.25-2.5.25 2.5" fill="#d7d02c"/><path d="m263.95 206.65-2.5-5.95q-.85-3.55-.5-4.7l.7 2.25-.6-4q.55-4.55 1.45-5.55l.1 2.6v.1l.05.45q.1 3.2 1.45 3.55l1.35-1.05.15-.55q.35-2.15.9-3.1l.95 11.75-.35 3.25q-.45 1.65-1 2.3-.85.65-2.15-1.35m3.8-7.35q.55.7.85 2.05.35 1.45-.8 3.1l-.05-1.5-.05-.75-.15-2.7.05-.35.15.15" fill="#686e11"/><path d="m273.9 221.55-4.6-8.4-.45-2.3v-.15l-1-4.55-.05-1.7q1.15-1.65.8-3.1-.3-1.35-.85-2.05v-2.7 2.7l-.15-.15.15-2.55.25-5.25.3-1.25.45.25q1.55.8 2.85 2l-1.2 2.45 1.55 6.25-1.6 7.85 2.8 4.3.05 4.35.75 1.65v.05l.2.4-.25 1.9m1.55-34.8 1.5-1.85.1.05v.9q.3 3.7-1.75 5.75-1-.55-1.1-1.75l-.2-2.1 1.45-1" fill="#bbaf2a"/><path d="M273.95 219.2v.05-.05" fill="#eae17a"/><path d="m269.25 185.9-.05.1-.65 2.85-.2-1.95-.2-1.6 1.1.6m-1.4 20.25 1 4.55-.8.15-.1-2.7-.1-2m12.4 5.7.2 1.55-.35 1.5-1.25 2.25 1.4-5.3" fill="#382510"/><path d="m261.75 180.7 1.7-.95q1.1-.5 2.25.75l2.05 3.15.2.05v.05l.2 1.55.2 1.6q-1.6-.4-3.05.4-2 1.15-2.6 3.55v.05l-.1.4-.1-2.6-.05-1.2-.15-2.85.2-.15-.1-2.4q-.15-.9-.65-1.4m7.45 5.3.05-.1.25-1.25 2.1 1.65 1.2 2.2-.05.25-.35 2-.8 1.6q-1.3-1.2-2.85-2l-.45-.25.05-.2.2-1.05.65-2.85m6.5 16.05.35.3-.2 3-.15-3.3" fill="#755c24"/><path d="m284.7 196.85 1.15-3.25q.5-1.1.5-2.3l.6 2.85q-.95 1.35-2.25 3.9l-1.5 3.1 1.5-4.3v1.2-1.2" fill="#922910"/><path d="m267.5 211.45.45-3.3.1 2.7-.55.6" fill="#978e24"/><path d="m260.5 194.5.1-3.2v-.15.1l1.05 7-.7-2.25-.45-1.5" fill="#60600f"/><path d="m278.85 198.95 1.2 1.6.2.5.35 2.15q.3 1.95-.3 3.75l-.45 1.65-.85-5.85-.15-3.8" fill="#b97a1d"/><path d="M283.85 182.85h.05l1.95.05 1.4 1.4.6 3.15.45 5.35.1 5.5v.8l-.15-.65q-.5-3.1-1.3-4.3l-.6-2.85q-.35-.75-1.25-.7l-.6.2q-1.6.75-1.9 4 .2.6-1.7 2.2-.9.1-1.5-1.45l-.55.85.5-7.35.4-3.65 1.3-.8.9-.5 1-1.05.65 3.3.25-3.5m.6 6.25.05 1.7-.05-1.7" fill="url(#a)"/><path d="m271.6 192.35.8-1.6.35-2 .05-.25 1.2-.75.2 2.1q.1 1.2 1.1 1.75 2.05-2.05 1.75-5.75v-.9l.75.1 1.25.25.3 3.75-.5 7.35v.1l-.7 1.35q-1.05.85-1.75 3.3l-.2.75-.1.45h-.05l-.35-.3q-.65-.6-.8-1.55l-1.05-4.5q-.35-1.45-1.3-2.65l-.25-.25-.45-.5-.25-.25m5.65 3.7.25-2.85-.1-2.35.4-5.8-.4 5.8.1 2.35-.25 2.85" fill="url(#b)"/><path d="m285.4 206.55-.55.45v-2.2l.55 1.75" fill="#796124"/><path d="m271.85 192.6.45.5.25.25-.95 3.5.25-4.25" fill="#7d6525"/><path d="M260.6 191.15h.05l-.05.1v-.1" fill="#bbaf2b"/><path d="m261.45 200.7-.95-2.8v-3.4l.45 1.5q-.35 1.15.5 4.7m-.85-9.55.35-4.9.6-5.5.2-.05q.5.5.65 1.4l.1 2.4-.2.15.15 2.85.05 1.2q-.9 1-1.45 5.55l-.45-3 .05-.1h-.05" fill="#94a707"/><path d="m267.05 211.95-.15.1q-1.55-2.45-2.8-5.1l-.15-.3q1.3 2 2.15 1.35.55-.65 1-2.3l.35-3.25-.95-11.75.2-.35.45-.4 1.2-.05-.05.2-.3 1.25-.25 5.25-.15 2.55-.05.35.15 2.7.05.75.05 1.5.05 1.7.1 2-.45 3.3-.45.5" fill="#695c1b"/><path d="m284.75 181.4-.3.1-.6.65-.65.65m.65.05h.05m.85-1.45 1.6-.55h1.05l1.55.7.15.1q1 3.7 1.3 9.25m.1 2-.1 6.2-1.75 3.75-1.85 2.65-1.25.95-.05.35m-.1.3-.9 3.6-1.4 2.15-.65 1.3-.7 1.25-1.1 2.05-.65-.1-1.4 2.1-2.4 2.5-.3-.05-.85-.15-1.15-.2-4.6-8.4-.45-2.3-1.8 1.1-.15.1q-1.55-2.45-2.8-5.1l-.15-.3-2.5-5.95-.95-2.8v-3.4l.1-3.2v-.15l.35-4.9.6-5.5.2-.05 1.7-.95 2.4-1.5.45-.3 3.55 4.65.2.8.55-.8h2.15l2.7 4.15 1.5-1.85.1-.1m.35-.35.7-.8 3.85.45 1-1.05.25-.25m5.1 10-.45-5.35-.6-3.15m2.35 16.05-.7 1.1-.6.85-1.5 3.2m3.6-6.4-.8 1.25m-4.75 6.65.55-.45.15-.1m-.7.55-.7.55m4.15-5.25.1-2.55m-18.35-16.35-.45.65-.1.6-.25 1.25m-.05.1-.65 2.85-.2 1.05-.05.2-.3 1.25-.25 5.25-.15 2.55-.05.35.15 2.7m5.05-13.45.05-.25m-5.05-4.85.2.05v.05m-.15 20.7.05 1.7 1 4.55v.15m5.1 8.35v.05l.2.4.9 2.1m3.8-25.25v-.1l.5-7.35m2.6-4.95-.9.5-1.3.8-.4 3.65m-.25-3.75h-.05m-5.05 2.45-1.2.75m2.65-1.75-1.45 1m4.85 11.2.15 3.8.85 5.85.1.75.3 2.5.2 1.55-.35 1.5-.65 2.35.55.1m-1.15-20.85v2.45m-11.1 4 .05 1.5m-.3 7 .55-.6-.1-2.7-.1-2m.2 4.7.8-.15m-1.8 1.25.45-.5m11.35 5.7 1.25-2.25m-1.25 2.25 1.4-5.3m-4.05 10.1 2.65-4.8m-4.95 4.4.25-1.9" fill="none" stroke="#382510" stroke-opacity=".502" stroke-width=".5"/><path d="M284.7 196.85v1.2l.15 5.45m-.35-12.7.2 6.05m-.2-6.05-.05-1.7m.4 15.7v2.2m-17.1-10.4v2.7m10.05-14.25-.4 5.8.1 2.35-.25 2.85m.55-11 .9-.55m-11 17.7.05.75m7.85 9.05-.2-2.3.35-1.3m-2 2.55.15 1.35m1.75 7.1.25 2.5" fill="none" stroke="#382510" stroke-opacity=".302" stroke-width=".5"/><path d="m262.5 188.7-.05-1.2" fill="none" stroke="#000" stroke-opacity=".251" stroke-width=".5"/><path d="m275.1 190.6-.35 7.4-3.2-.7.7-7.1m-.7 7.1v5.65m2.95-.35.25-4.6" fill="none" stroke="#382510" stroke-opacity=".302" stroke-width=".5"/><path d="m278.35 213.6-.25.7-.55.15-.6-.45q-.25-.35-.25-.8 0-.4.25-.65t.6-.15q.3.05.55.45l.25.75m-4-6.5q.5.7.5 1.55 0 .9-.5 1.4t-1.15.3q-.7-.15-1.2-.85t-.5-1.6q0-.85.5-1.35t1.2-.35q.65.2 1.15.9m-1.6 5.95-.45.05h-.1l-.1.25-.3.1-.3-.2-.1-.4.1-.3.15-.15v-.3l.2-.5q.15-.2.45-.15l.45.4.2.55-.2.65m.3 4.3-.1-.3.1-.25.2-.05.25.15.1.3-.1.25-.25.1-.2-.2" fill="#b97a1d"/></g></defs><use xlink:href="#c"/></svg>