<svg width="89" height="123" viewBox="230.35 138.1 89.3 122.85" xmlns="http://www.w3.org/2000/svg" xmlns:xlink="http://www.w3.org/1999/xlink"><defs><g id="a" fill="#fff"><path d="M14.55 21.15q2.7 0 4.6-1.9t1.9-4.6-1.9-4.6-4.6-1.9-4.6 1.9-1.9 4.6 1.9 4.6 4.6 1.9m3.85 45.6-42.75-24.7 34.9-53 42.75 24.7-34.9 53"/><path d="m18.4 66.75-42.75-24.7 34.9-53 42.75 24.7-34.9 53" stroke="#000" stroke-opacity=".102"/><path d="M14.55 21.15q-2.7 0-4.6-1.9t-1.9-4.6 1.9-4.6 4.6-1.9 4.6 1.9 1.9 4.6-1.9 4.6-4.6 1.9" stroke="#000" stroke-opacity=".153"/></g><g id="b" fill="#fff"><path d="m92.9 13.95 7.65 26.55-53.7 28.65L4.4 55.85-12.3 16.3l28-18.6q7.4 4.75 19.25 8.1l7.45 6.35q6.2 6.3 8.65 5.6l13.75 1.8 12.45 9.3-.15-10.8 15.8-4.1" fill-opacity=".4"/><path d="M10.55-5.25 15.7-2.3l4.6-3.1M105 38.1l-4.45 2.4 1.6 5.55m-9.25-32.1 7.65 26.55-53.7 28.65 19.2 6M91.6 9.4l1.3 4.55 8.5-.8M15.7-2.3q7.4 4.75 19.25 8.1l7.45 6.35q6.2 6.3 8.65 5.6l13.75 1.8 12.45 9.3-.15-10.8 15.8-4.1M5.55 58.6 4.4 55.85l-16.95-5.3m59.4 18.6-2.4 1.25m2.4-1.25L4.4 55.85-12.3 16.3l-14.05 9.3m14.05-9.3-4.3-10.1m32.3-8.5-28 18.6" stroke="#17170c" stroke-opacity=".251"/></g><g id="c"><path d="m4.9 35.3-3.05-6.35.4-.7-1-.1L0 25.1q3.3-6.4 8-12.25l2.65-3.2q2.45-2.9 3.15-3.2l1.9-.8 6-2.3Q26.85 1.4 34.95 0l4.3 10.3.85 1.95q-7.35 1.25-13.65 3.15l-1.15.3-4.45 1.5 3.1 6.9 1 2.3v.05l-.25.05-1.75.3q-.85.25-1.55.6-1.5.8-2.45 2.05l-.8-2.1-1.4-3.45-1.3-3.35-2.5 2.9L4.9 35.3m20.4-21.7 3.05-.85q5.85-1.6 10.9-2.45-5.05.85-10.9 2.45l-3.05.85M7.8 19.95l-5.55 8.3 5.55-8.3M3.45 30l2.4-2.15L3.45 30M16 18.4l-5.35-8.75L16 18.4m0-9.55q15.3-6.15 20.2-4.6Q31.3 2.7 16 8.85M71.8 91.2l.3.6 1.5 3.3q2.15 5 5.4 14.05l.8 2.25q-11.5 7.65-19.7 11.45-9.2-.3-19.65-3.45l-2.8-5.95 4.95 1.3 2.85.25-2.85-.25-4.95-1.3-1.4-3.5-.5-1.1q-1.4-4-1.2-4.35l4.4-.15 2 .3.3.9.5 1.2q1.85 4.85 1.65 6.15l-4.5-.85-1.3-3.45-1.85.25 1.85-.25-.35-1.55q1.4 0 2.2.5-.8-.5-2.2-.5l.35 1.55 1.3 3.45 4.5.85q7.3.45 12.45.05l.75-.35q2.25-.9 3.8-1.85 3.6-1.9 7.15-4.65-1.1.75-2.4-2.9l-1.9-5.5.55-.85.8-.95q2.45-2.6 7.2-4.7M28.35 12.75l-.3-1.2 3.65-1.05-3.65 1.05.3 1.2m-.3-1.2q-2.9.85-5.5 1.9 2.6-1.05 5.5-1.9m39.5 94.55.1-.1 1.45-1.2q1.65-1.2 2.65-1.85-.4-1.9-1.3-3.85l-1.4-2.6q-.5-.4-1.85 1.9 1.35-2.3 1.85-1.9l1.4 2.6q.9 1.95 1.3 3.85-1 .65-2.65 1.85l-1.45 1.2-.1.1m-26.95 8.8 2.6.8 5.8.75-5.8-.75-2.6-.8m2.6.8-.6-.95.6.95m23.35 1.5L79 109.15l-12.45 8.05" fill="#9c7541"/><path d="m4.9 35.3 8.05-11.85 2.5-2.9 1.3 3.35-3.8-.45q-3.45 7.2-2.45 8.65l.6.85.2.35-.85 1q-.3.05-.75.25l-.4.35v.05h-.15l-4.25.35m15.95-18.1 4.45-1.5-.5 1.55-3.95-.05m5.6-1.8q6.3-1.9 13.65-3.15l4.75.25-.7.1-1.3.2-.55.3-8.35 1.7-.65.15-.3.1-6.55.35m6.5 30.55.1.1.6 1.65v.05Q31 50.45 27 50.85h-.25l-.8-2.3 1.45-.05 2.5-.7q1.65-.55 2.9-1.7l.15-.15" fill="#45331a"/><path d="m9.3 34.9.4-.35q.45-.2.75-.25l3.35 5.9-1.1.65-3.4-5.95m35.55-22.4.75 1.9 1.15 2.75.6 1.5-2.05 1-2-4.55-1-2 .55-.3 1.3-.2.7-.1M62.2 55.25l.9 2.25 4.2 10.75.5 1.3L70.3 76l.75 1.9.55 1.45 3.9 10.3-2.25.95-4.3-11.5-.6-1.6v-.05l-2.75-7.2-.55-1.3-1.95-5.15.1-1.7q-.45-.95-1.45-1.8l-.2-.4-1.5-3.85 2.15-.8M33 15.05l.2.05 4.45 1.65.45.15.3.15h.05q.65 2.6.35 6.7v.05l-4.6 2.8.2-.3q.55-1.2.45-3.9-.05-3.85-.7-4.8-1.8-.85-7.7-2.2l6.55-.35m.85 32.6.35.7.9 1.75 2.75 4.8.65 1.1 3.85 5.85.3.5h.1l.25.3-3.9-.5-1.45-3.85v-.05l-4-10.5.2-.1m5.5 11.3-1.7-.65 1.7.65M29.7 76.6l1.25 3.25.5 1.25q3.45 8.85 7.7 21.35l-.65.25.05.05-.85-.05v-.05l-7.55-21.1-.5-1.3-3.2-8.15-1.05-2.75 1.2-.45.45 1.1-.45-1.1.45 1.1.8 1.8.6 1.3.1.5v.05l-.05 1.7q.3.65 1.2 1.25m38.65.85L70.3 76l-1.95 1.45m.6 1.65 2.65.25-2.65-.25m2.1-1.2-2.7-.4 2.7.4m-27.65 35q.2-1.3-1.65-6.15l-.5-1.2-.3-.9 3.7-1.8q2.75 5.55 2.8 8.5l-3.85 1.5-.2.05" fill="#614725"/><path d="m18.15 27.35.8 2.1-.1.2q-.6.85-.95 1.9l-.05.2-.5 1.4q-.4 1.4-.45 2.9l.15 2.1-.05.05-.3.2q-1.15-.05-5.4-5.15v.05l-.2-.35-.6-.85q-1-1.45 2.45-8.65 2.3 1.2 5.2 3.9m6.8-.9v-.05l-1-2.3q.1-4 .85-6.85l.5-1.55 1.15-.3q5.9 1.35 7.7 2.2.65.95.7 4.8.1 2.7-.45 3.9l-.2.3-1.3.85-1.75 1.15-.1-.05-.9-.7-1.5-.75-1.4-.5-2.3-.15m-7.5 33.65-2.1-2.85q-4.9-7.1-4.9-11.55 0-3 2.25-4.85-1.35 1.8-1.15 4.45.35 4.45 4.9 11.2l2.2 3.1 3.15 3.9 2 2.35 2.8 3.05-1.2.45-4.75-5.3-3.2-3.95m29.9-41.45q-7.55 4.75 7.35 26.5l7.5 10.1-2.15.8-7.5-9.75Q40.25 29.15 43 22.45l.05-.15q.6-1.5 1.95-2.45l.3-.2 2.05-1m-16.85 2.8q-1.7-1.05-2.7-.75-.55 1.35-.55 3l.15 2.85 3.65.9 1.4.05.45-.05-.45.05-1.4-.05-3.65-.9-.15-2.85q0-1.65.55-3 1-.3 2.7.75M14.55 32.2q0-1.85.75-2.4.65.1 2.55 1.95-1.9-1.85-2.55-1.95-.75.55-.75 2.4m28.85 80.7.2-.05 3.85-1.5q8.45 1.05 12.95-.6-1.55.95-3.8 1.85l-.75.35q-5.15.4-12.45-.05" fill="#8a6739"/><path d="m10.45 34.3.85-1v-.05q4.25 5.1 5.4 5.15l-2.9 1.8-3.35-5.9M45.3 19.65l-.3.2-6.2 3.9q.3-4.1-.35-6.7h-.05l-.3-.15-.45-.15-4.45-1.65-.2-.05.3-.1.65-.15 8.35-1.7 1 2 2 4.55" fill="#997f5d"/><path d="M15.35 57.25q-4.05 2.5-6.4 2.85-2.2-.2-4.8-6.4-1.55-5.6-.55-10.8 1.05-3.4 6.85 2.8l-.9.2.9-.2q0 4.45 4.9 11.55m37.9-19.75-2.55-3.15q-4.7-9.5.9-12.25 3.55-1.25 6-2.5l2.95-1.8q-.9-7.35 1.15-7.85.8-.2 1.9.55 4.65 3.55 9 11.2.45 3.55-.2 6.25-.35 1.65-1.2 2.95l-.15.35-.3.15-.35.25-3.5 2.15-3.25 1.8-4.45 1.85-1.05.35-4.9-.3m-1.9-11.25.85-.4-.05.7.05-.7-.85.4m2.3-1.8-.2.8-1.25.6q.05-.65.25-1.35l5.7-2.6-5.7 2.6q-.2.7-.25 1.35l1.25-.6.2-.8m.35-2.6-1.55 2.65-1.35.7 1.35-.7L54 21.85m-.65 5.1.1-1.7 2.9-1.35-2.9 1.35-.1 1.7m7.55-6.85-.35-2.3.35 2.3" fill="#518195"/><path d="m17.45 60.1-5.6 2.15q-3.55.3-4.5-1l-.9-1.75Q5 56.6 4.15 53.7q2.6 6.2 4.8 6.4 2.35-.35 6.4-2.85l2.1 2.85m47.3-21.45-3.95 1.6q-2.3.35-3.55 0-1.25-.4-2.25-1.2l-1.75-1.55 4.9.3 1.05-.35 4.45-1.85 3.25-1.8 3.5-2.15.35-.25.3-.15.15-.35q.85-1.3 1.2-2.95.65-2.7.2-6.25 1.1 2.3 1.8 4.75 1.15 5.9-4.3 9.45l-5.35 2.75" fill="#283f4a"/><path d="m16.75 23.9 1.4 3.45q-2.9-2.7-5.2-3.9l3.8.45m7.2.2-3.1-6.9 3.95.05q-.75 2.85-.85 6.85M40.1 12.25l-.85-1.95L34.95 0l4.9.6H40v.05L51.35 2.8l6.25 16.8q-2.45 1.25-6 2.5-5.6 2.75-.9 12.25l2.55 3.15L55 39.05q1 .8 2.25 1.2 1.25.35 3.55 0l3.95-1.6L89.3 104.3l-6.55 4.6v.05l-2.95 2.45-.8-2.25q-3.25-9.05-5.4-14.05l-1.5-3.3-.3-.6 1.45-.6 2.25-.95-3.9-10.3-.55-1.45-.75-1.9-2.5-6.45-.5-1.3-4.2-10.75-.9-2.25-7.5-10.1q-14.9-21.75-7.35-26.5l-.6-1.5-1.15-2.75-.75-1.9-4.75-.25M34.85 65.8l-.45.15-3.4-1 8.1-2.8 3.9.5-8.15 3.15" fill="#2b1e0e"/><path d="m12.7 40.85 1.1-.65 2.9-1.8.3-.2.15.45.35 1.65q.4 1.5 1.35 3.05Q22.3 51.1 27 51.5q1.55 4.25 2.95 9.35l-2.15.7 2.5.7.7 2.7 3.4 1 .45-.15.2.5-.6-.05-1.5-.2-.2-.05-.6-.05h-.05l-5-.35-.9.1q-1.85-.5-1-3.3l.45-1.15-.95 1.3-2.9.95-3.15-3.9-2.2-3.1q-4.55-6.75-4.9-11.2-.2-2.65 1.15-4.45m32.3-21q-1.35.95-1.95 2.45l-.05.15q-2.75 6.7 9.55 23.85l-4.15 2.9-3.05-.15 2.6.45q3.95 1 2.3 3.05-3 2.75-4.95 6l-.65 1-.8 1.6-.3.55-.2.75-.6-.1h-.1l-.3-.5-1.55-3.6q.35-2.5 1.7-4.95l-4 2.7-.65-1.1-2.75-4.8-.7-1.35q6-6.25.75-14.9l-.3-.75q-1.3-2.55-3.35-4.25l-.35-.25 1.75-1.15 1.3-.85 4.6-2.8v-.05l6.2-3.9M59.4 60.7v-.15l2.15-.65.2.4q1 .85 1.45 1.8l-.1 1.7v.05q-.55 3.65-1.8 5.95-1.9 3.65-5.35 3.95H54.6l-3.35 2.75q-3.6 2.7-6.25 3.65l-2.8.5q-1.65-.1-2.75-1.25l-.95.25q-4.65.8-2.55-1.15l-2.7-.35q-1.9-.45-3.55-1.55-.9-.6-1.2-1.25l.05-1.7v-.05l-.1-.5q2.85-1.95 7-3.85l.8-.2.55-.15-.15-.25q3.95-1.75 8.95-3.55l.4.45.7-.2q11.9-3.95 12.8-2.8.65.95.25 1.15 2.2-1.2 1.2-3.25l-.95.15-.6.1m-20.25 41.75 1.05-.35 2.25-.3h.4l1.8.4 2.3.95.5.25.75 1.1 2.1 1.7-2.1-1.7-.75-1.1.35-.45q1.05-1.1 5-1.55l6.9-.25H61q-.65-.85 1.85-3.3l.95-1-.55.85 1.9 5.5q1.3 3.65 2.4 2.9-3.55 2.75-7.15 4.65-4.5 1.65-12.95.6-.05-2.95-2.8-8.5l-5.35-.45-.75.35-.05-.05.65-.25m9.25-36.4 4.35.15-4.35-.15M37.25 68.8l-.45.1.45-.1m-10-.15v.15-.05L27 68.1v-.05l-.05-.1.1.15.2.65v.05V68.65m7.6 2.85q.8-.95 2.45-1.8-2.3.75-4.1 2.35 1.8-1.6 4.1-2.35-1.65.85-2.45 1.8m11.7-5.55q6.15-1.05 12-1.35-5.85.3-12 1.35" fill="#ebdbc3"/><path d="m21.8 63.5 2.9-.95.95-1.3-.45 1.15q-.85 2.8 1 3.3l-1.35-.05 1.35.05q-.15 1.65.4 3.2l-2.8-3.05-2-2.35m10.3 2.45h.05l-.05.15v-.15m.65.05.2.05v.2l-.2-.25m2.3.3-.2-.5L43 62.65l-.25-.3.6.1.2-.75.4 1q.55 1.15 1.65 2.4-5 1.8-8.95 3.55l-1.6-2.35m-4.75-4.05-2.5-.7 2.15-.7.35 1.4M27 51.5q-4.7-.4-8.15-8.15l1.9 2.4.35.35q2.35 2.35 4.7 2.45h.15l.8 2.3.25.65m-9.85-12.85L17 38.2l.05-.05.1.5m35.4 7.65 7.5 9.75 1.5 3.85-2.15.65q-.3-6.1-5.6-8.8-.8-.45-1.7-.75-.4.25-.85.6l-1 .95q1.65-2.05-2.3-3.05l-2.6-.45 3.05.15 4.15-2.9m-19.6-.35q1.35-1.25 2.15-3.25 1.8-4.4.15-8.5l-.1-.35q5.25 8.65-.75 14.9l-.55-1.1-.8-1.65H33l-.05-.05M38.5 56l4-2.7q-1.35 2.45-1.7 4.95l1.55 3.6L38.5 56m20.3 4.75.6-.05.6-.1.95-.15q1 2.05-1.2 3.25.4-.2-.25-1.15-.9-1.15-12.8 2.8l-.1-.15 3.45-1.7q4.25-1.85 8.4-2.65l.35-.1m-5-9-.45-1.65q-1.55-.65-4.95-.9 3.4.25 4.95.9l.45 1.65m-18.35 17.5q-4.15 1.9-7 3.85l-.6-1.3-.8-1.8 1.1 1.65.45-.2q2.95-1.25 6.85-2.2m-10.75-6.7q-1 1.8-.9 3.3-.1-1.5.9-3.3m3.45 9.1-.3.15.3-.15" fill="#b0936b"/><path d="m35.15 33.85.1.35q1.65 4.1-.15 8.5-.8 2-2.15 3.25l-.15.15q-1.25 1.15-2.9 1.7l-2.5.7-1.45.05h-.15q-2.35-.1-4.7-2.45 2.4 1.4 4.55 1.6 2.65.3 5-1.25l1.85-1.7q2.15-2.65 2.1-7.1-.15-4.15-1.55-6.7l-1.55-2.1q2.05 1.7 3.35 4.25l.3.75" fill="#9d6615"/><path d="M18.95 29.45q.95-1.25 2.45-2.05.7-.35 1.55-.6l1.75-.3.25-.05 2.3.15 1.4.5 1.5.75.9.7.1.05.35.25 1.55 2.1q1.4 2.55 1.55 6.7.05 4.45-2.1 7.1l-1.85 1.7q-2.35 1.55-5 1.25-2.15-.2-4.55-1.6l-.35-.35-1.9-2.4q-.95-1.55-1.35-3.05l-.35-1.65-.1-.5-.15-2.1q.05-1.5.45-2.9l.5-1.4.05-.2q.35-1.05.95-1.9l.1-.2m.45 1.45.1-.05.7-.9q.75-1 3-1.65 1.2-.35 2.5 0 1.1.35 2.35 1.2l.9.55q1.9 1.1 2.35.7v-.15l-1.15-1.35-.6-.5q-1.45-1.1-3.25-1.5l-1.05-.15q-1.3-.05-2.5.45-1.6.65-2.3 1.15l-.6.55-.2.55-.1.1-.15.7-.1.2v.25l.1-.15m.65 1.95-.4.85q-.4 1.35-.45 2.85v.15q0 1.05.3 2.15.6 2.75 2.85 4.5l1.95 1.1.2.05 2.35.2.45-.05 1.1-.3.8-.4q1.15-.75 1.9-2.2l.05-.2.15-.3q1.2-3 .1-5.75-1.15-2.8-3.45-4.2l-.45-.25-.25-.15-.6-.3-.15-.05q-1.65-.55-3.4 0l-.35.1q-1.7.6-2.6 2.05l-.1.15" fill="#e6ad3d"/><path d="m19.3 30.8.1-.2.15-.7.1-.1.2-.55.6-.55q.7-.5 2.3-1.15 1.2-.5 2.5-.45l1.05.15q1.8.4 3.25 1.5l.6.5 1.15 1.35v.15q-.45.4-2.35-.7l-.9-.55q-1.25-.85-2.35-1.2-1.3-.35-2.5 0-2.25.65-3 1.65l-.7.9-.1.05-.1-.1" fill="#f4d7ac"/><path d="m19.4 30.9-.1.15v-.25l.1.1" fill="#e66666"/><path d="m20.05 32.85.1-.15q.9-1.45 2.6-2.05l.35-.1q1.75-.55 3.4 0l.15.05.6.3.25.15.45.25q2.3 1.4 3.45 4.2 1.1 2.75-.1 5.75l-.15.3-.05.2q-.75 1.45-1.9 2.2l-.8.4-1.1.3-.45.05-2.35-.2-.2-.05-1.95-1.1q-2.25-1.75-2.85-4.5-.3-1.1-.3-2.15v-.15q.05-1.5.45-2.85l.4-.85m8.25 5.75q-1.35 1.25-2.3 1.55l-2.55.15-.55-.05-1.15-.1q-.55-.05-.35.9.2.85 2.2 1.95l.45.25q1.8.75 3.35.45 1.9-.5 3-2.8l.25-.6q.85-1.85.45-2.7-.4-.95-.85-.85-.55.05-.65.35l-.15.25-.2.25-.95 1" fill="#d4c7ad"/><path d="m28.3 38.6.95-1 .2-.25.15-.25q.1-.3.65-.35.45-.1.85.85.4.85-.45 2.7l-.25.6q-1.1 2.3-3 2.8-1.55.3-3.35-.45L23.6 43q-2-1.1-2.2-1.95-.2-.95.35-.9l1.15.1.55.05 2.55-.15q.95-.3 2.3-1.55" fill="#91866f"/><path d="m31 64.95-.7-2.7-.35-1.4q-1.4-5.1-2.95-9.35l-.25-.65H27q4-.4 6.65-3.1l4 10.5v.05l1.45 3.85-8.1 2.8m2.7-4.05 3.95-2.65-3.95 2.65" fill="#a67c45"/><path d="m33.05 46.05.8 1.6-.2.1v-.05l-.6-1.65" fill="#8c4c0c"/><path d="m26.2 65.7.9-.1q-.25.65.15 3.05v.1l-.2-.65-.1-.15.05.1v.05l.25.65V68.9l1.35 2.55-.45.2-1.1-1.65-.45-1.1q-.55-1.55-.4-3.2m5.95.25.6.05.2.25v.2l-.25.1-.4-.05-.2-.2v-.2l.05-.15m2.3.3.6.05 1.6 2.35.15.25-.55.15-.05-.15-1.15-1.85-.6-.8m9.1-4.55.3-.55.55 1.2q.65 1.15 1.85 2.45l.35.4-.6.35-.4-.45q-1.1-1.25-1.65-2.4l-.4-1m1.1-2.15.65-1 .45.15.25.35.05.5-.5.4h-.5l-.4-.4m6.6-7.95q.45-.35.85-.6.9.3 1.7.75 5.3 2.7 5.6 8.8v.15l-.6.05q-.65-4.05-2.55-5.8-2.55-2.35-5-3.35" fill="#332720"/><path d="m27.1 65.6 5 .35v.35l.2.2.4.05.25-.1v-.4l1.5.2.6.8q-7.6-.05-7.8 1.6-.4-2.4-.15-3.05m16.75-4.45.8-1.6.4.4h.5l.5-.4-.05-.5-.25-.35-.45-.15q1.95-3.25 4.95-6l1-.95q2.45 1 5 3.35-4-2.65-11.85 7.4l-.55-1.2" fill="#c7b195"/><path d="m73.25 90.6-1.45.6q-4.75 2.1-7.2 4.7-.6-2.35-2.55-2.4-2.05-.1-4.15 2.6-.15 1.05 1.45 4.3l.35.75-6.9.25-1.1-2.9q-1.15-.9-4.55.25-.25.4 0 1.65l-2.5.1q-.3.4-.1 1.2l.1.5-1.8-.4.05-.5q.15-1.1-.3-2.75-2.05-1-3.4-.7-.3 1.05.75 3.7l.25.55-1.05.35q-4.25-12.5-7.7-21.35l-.5-1.25-1.25-3.25q1.65 1.1 3.55 1.55l.05 1.4q.2 2.6.75 2.85 3.55.7 4.5 0 .4-.1.15-1.9l-.2-.85.95-.25q1.1 1.15 2.75 1.25l.25.7.2.8q2.45-.15 2.7-.7l.4 1q4.15.3 6.75-2.6.35-.25-.95-2.85l-.3-.5 3.35-2.75h1.35l.35.7q1.15 2.15 1.75 2.2 3.05.05 5.45-3.85l-2.2-3q1.25-2.3 1.8-5.95v-.05l1.95 5.15.55 1.3 2.75 7.2v.05l.6 1.6 4.3 11.5" fill="#24190b"/><path d="M56.25 54.95q1.9 1.75 2.55 5.8l-.35.1q-4.15.8-8.4 2.65l-3.45 1.7-.35-.4q-1.2-1.3-1.85-2.45 7.85-10.05 11.85-7.4m-21.2 12.1 1.15 1.85.05.15-.8.2q-3.9.95-6.85 2.2l-1.35-2.55v-.25q.2-1.65 7.8-1.6" fill="#fff4e5"/><path d="m61.3 69.8.55.75q-1.1 2.75-5.55 3.9l-.35-.7q3.45-.3 5.35-3.95m-22.8 9.85.2.85q-4.85.65-5.4-.95l-.05-1.4 2.7.35q-2.1 1.95 2.55 1.15m1.7 22.45-.25-.55q.05-.95 2.95-.25l-.05.5h-.4l-2.25.3m4.45.1-.1-.5q.8-.25 2.45.35 0-.45.3-1l.25 1.25.25.65-.35.45-.5-.25-2.3-.95" fill="#b38649"/><path d="m61.85 70.55 1.65 2.25q-2.4 3.9-5.45 3.85-.6-.05-1.75-2.2 4.45-1.15 5.55-3.9M51.55 77q1.3 2.6.95 2.85-2.6 2.9-6.75 2.6l-.4-1q-.25.55-2.7.7l-.2-.8q.95.5 2.7-.65 6.95-1.45 6.4-3.7m-11.6 24.55q-1.05-2.65-.75-3.7 1.35-.3 3.4.7.45 1.65.3 2.75-2.9-.7-2.95.25m19.4-1.15q-1.6-3.25-1.45-4.3 2.1-2.7 4.15-2.6 1.95.05 2.55 2.4l-.8.95-.95 1q-2.8 1.55-3.5 2.55m-14.2-19.7.2.75-.2-.75" fill="#f7cd91"/><path d="m51.25 76.5.3.5q.55 2.25-6.4 3.7-1.75 1.15-2.7.65l-.25-.7 2.8-.5q2.65-.95 6.25-3.65m8.45 24.65-.35-.75q.7-1 3.5-2.55-2.5 2.45-1.85 3.3h-1.3M45.15 80.7l-.15-.55.15.55m2.65 22.25-.25-.65q1.85-1.15 5.25-.9-3.95.45-5 1.55" fill="#c2914f"/><path d="m46 65.55.6-.35.1.15-.7.2" fill="#991919"/><path d="M38.7 80.5q.25 1.8-.15 1.9-.95.7-4.5 0-.55-.25-.75-2.85.55 1.6 5.4.95" fill="#d4a261"/><path d="M37.7 102.65v.05l.85.05.75-.35 5.35.45-3.7 1.8-2-.3-4.4.15q1.4-1.15 3.15-1.85v.05-.05" fill="#ad7c3c"/><path d="M44.55 101.7q-.2-.8.1-1.2l2.5-.1q-.25-1.25 0-1.65 3.4-1.15 4.55-.25l1.1 2.9q-3.4-.25-5.25.9l-.25-1.25q-.3.55-.3 1-1.65-.6-2.45-.35m2.75-.65-.15-.65.15.65" fill="#e6b879"/><path d="m2.25 28.25-.4.7L4.9 35.3l8.05-11.85 2.5-2.9 1.3 3.35 1.4 3.45.8 2.1q.95-1.25 2.45-2.05.7-.35 1.55-.6l1.75-.3.25-.05v-.05l-1-2.3-3.1-6.9 4.45-1.5 1.15-.3q6.3-1.9 13.65-3.15l-.85-1.95q-5.05.85-10.9 2.45l-3.05.85M10.65 9.65 8 12.85Q3.3 18.7 0 25.1l1.25 3.05 1 .1 5.55-8.3M9.3 34.9l.4-.35q.45-.2.75-.25l.85-1-.2-.35-.6-.85q-1-1.45 2.45-8.65l3.8.45M4.9 35.3l4.25-.35h.15v-.05l3.4 5.95 1.1-.65-3.35-5.9m6.25 4.1q-1.15-.05-5.4-5.15v.05M4.15 53.7q.85 2.9 2.3 5.8l.9 1.75q.95 1.3 4.5 1l5.6-2.15-2.1-2.85q-4.9-7.1-4.9-11.55 0-3 2.25-4.85-1.35 1.8-1.15 4.45.35 4.45 4.9 11.2l2.2 3.1 3.15 3.9M4.15 53.7Q2.6 48.1 3.6 42.9q1.05-3.4 6.85 2.8l-.9.2M24.7 62.55l.95-1.3m.55 4.45.9-.1 5 .35h.05l.6.05.2.05 1.5.2.6.05m-.2-.5-.45.15-3.4-1-.7-2.7m-.35-1.4q-1.4-5.1-2.95-9.35m-8.15-8.15q-.95-1.55-1.35-3.05l-.35-1.65M17 38.2l-.3.2-2.9 1.8M34.95 0q-8.1 1.4-13.25 3.35l-6 2.3-1.9.8q-.7.3-3.15 3.2M57.6 19.6 51.35 2.8 40 .65m0-.05h-.15l-4.9-.6 4.3 10.3m5.6 2.2.75 1.9 1.15 2.75.6 1.5q-7.55 4.75 7.35 26.5l7.5 10.1.9 2.25 4.2 10.75.5 1.3L70.3 76l.75 1.9.55 1.45 3.9 10.3-2.25.95-1.45.6.3.6 1.5 3.3q2.15 5 5.4 14.05l.8 2.25 2.95-2.45m0-.05 6.55-4.6-24.55-65.65-3.95 1.6q-2.3.35-3.55 0-1.25-.4-2.25-1.2l-1.75-1.55-2.55-3.15q-4.7-9.5.9-12.25 3.55-1.25 6-2.5l2.95-1.8q-.9-7.35 1.15-7.85.8-.2 1.9.55 4.65 3.55 9 11.2 1.1 2.3 1.8 4.75 1.15 5.9-4.3 9.45l-5.35 2.75m-17.4-20-2.05 1-.3.2q-1.35.95-1.95 2.45m-.05.15q-2.75 6.7 9.55 23.85l7.5 9.75 2.15-.8M42.3 13.1l.55-.3 1.3-.2.7-.1-4.75-.25m5.2 7.4-2-4.55-1-2-8.35 1.7-.65.15-.3.1.2.05 4.45 1.65.45.15.3.15h.05q.65 2.6.35 6.7l6.2-3.9M26.45 15.4q5.9 1.35 7.7 2.2.65.95.7 4.8.1 2.7-.45 3.9l-.2.3 4.6-2.8v-.05m-3.65 10.1.1.35q1.65 4.1-.15 8.5-.8 2-2.15 3.25l.1.1 1.15 2.3m.95-14.5-.3-.75q-1.3-2.55-3.35-4.25M21.1 46.1q2.35 2.35 4.7 2.45h.15l1.45-.05 2.5-.7q1.65-.55 2.9-1.7l.15-.15M34.2 26.6l-1.3.85-1.75 1.15.35.25m19.6-3.65 1.35-.7L54 21.85m4.15.05-5.7 2.6q-.2.7-.25 1.35l1.25-.6.2-.8m-1.5 2.1.05-.7-.85.4m-18.45 1.2-.45.05-1.4-.05-3.65-.9-.15-2.85q0-1.65.55-3 1-.3 2.7.75m-5.7-4.2.5-1.55m6.4-5.2-3.65 1.05.3 1.2m-10.5 19q-1.9-1.85-2.55-1.95-.75.55-.75 2.4m4.4-2.75-.1.2q-.6.85-.95 1.9l-.05.2-.5 1.4q-.4 1.4-.45 2.9l.15 2.1.1.5m2.9-5.8-.4.85q-.4 1.35-.45 2.85v.15q0 1.05.3 2.15.6 2.75 2.85 4.5l1.95 1.1.2.05 2.35.2.45-.05 1.1-.3.8-.4q1.15-.75 1.9-2.2l.05-.2.15-.3q1.2-3 .1-5.75-1.15-2.8-3.45-4.2l-.45-.25-.25-.15-.6-.3-.15-.05q-1.65-.55-3.4 0l-.35.1q-1.7.6-2.6 2.05l-.1.15m-1.9-5.5q-2.9-2.7-5.2-3.9m18.2 5.15-.1-.05-.9-.7-1.5-.75-1.4-.5-2.3-.15m-.15-9.2q-.75 2.85-.85 6.85m-3.1-6.9 3.95.05m-2.25-3.8q2.6-1.05 5.5-1.9m-11 26.6-.05.05m1.85 5.15 1.9 2.4.35.35m5.65 4.75-.8-2.3m.8 2.3.25.65m6.65-3.75 4 10.5v.05l1.7.65M35.1 50.1l2.75 4.8.65 1.1m2.3 2.25 1.55 3.6.3.5h.1l.6.1m.2-.75.3-.55.8-1.6.65-1q1.95-3.25 4.95-6m-4.9-3.5 3.05.15q3.4.25 4.95.9l.45 1.65q-.8-.45-1.7-.75-.4.25-.85.6 2.45 1 5 3.35 1.9 1.75 2.55 5.8l.6-.05v-.15q-.3-6.1-5.6-8.8M35.1 50.1l-.9-1.75m-1.15-2.3.6 1.65v.05m27.9 12.15-1.5-3.85m-8.8-4.45-1 .95m-5.6 7 .4.4h.5l.5-.4-.05-.5-.25-.35-.45-.15M33 15.05l-6.55.35m34.1 2.4.35 2.3m-4.55 3.8-2.9 1.35-.1 1.7m19.9 63.65-4.3-11.5-.6-1.6v-.05l-2.75-7.2-.55-1.3-1.95-5.15v.05q-.55 3.65-1.8 5.95l2.2 3q-2.4 3.9-5.45 3.85-.6-.05-1.75-2.2l-.35-.7H54.6l-3.35 2.75.3.5q1.3 2.6.95 2.85-2.6 2.9-6.75 2.6l-.4-1q-.25.55-2.7.7l-.2-.8-.25-.7q-1.65-.1-2.75-1.25l-.95.25.2.85q.25 1.8-.15 1.9-.95.7-4.5 0-.55-.25-.75-2.85l-.05-1.4q-1.9-.45-3.55-1.55l1.25 3.25.5 1.25q3.45 8.85 7.7 21.35l1.05-.35-.25-.55q-1.05-2.65-.75-3.7 1.35-.3 3.4.7.45 1.65.3 2.75l-.05.5 1.8.4-.1-.5q-.2-.8.1-1.2l2.5-.1q-.25-1.25 0-1.65 3.4-1.15 4.55-.25l1.1 2.9 6.9-.25-.35-.75q-1.6-3.25-1.45-4.3 2.1-2.7 4.15-2.6 1.95.05 2.55 2.4 2.45-2.6 7.2-4.7M61.55 59.9l.2.4q1 .85 1.45 1.8l-.1 1.7m-16.5 1.4 3.45-1.7q4.25-1.85 8.4-2.65l.35-.1m2.15-.3-.95.15-.6.1m8.95 16.8 2.7.4m.55 1.45-2.65-.25M70.3 76l-1.95 1.45M61.3 69.8q-1.9 3.65-5.35 3.95m7.85 23.1.8-.95m-1.75 1.95q-2.5 2.45-1.85 3.3h-1.3m.7 9.6q3.6-1.9 7.15-4.65-1.1.75-2.4-2.9l-1.9-5.5.55-.85-.95 1m4.35.55q1.35-2.3 1.85-1.9l1.4 2.6q.9 1.95 1.3 3.85-1 .65-2.65 1.85l-1.45 1.2-.1.1m-24-44.4.4 1q.55 1.15 1.65 2.4l.4.45.6-.35-.35-.4q-1.2-1.3-1.85-2.45l-.55-1.2m8.9 5.05-4.35-.15m-9.3-3.9 3.9.5-.25-.3m-6.5 6.7.55-.15-.15-.25-1.6-2.35m1.75 2.6.45-.1m-2.2-1.75 1.15 1.85.05.15-.8.2m-7 3.85.1.5m0 .05-.05 1.7q.3.65 1.2 1.25m3.25-10.35v.2l-.25.1-.4-.05-.2-.2v-.2l.05-.15m2.3.3.6.8m-7.8 1.6v.25l1.35 2.55q2.95-1.25 6.85-2.2m-2.25 2.8q1.8-1.6 4.1-2.35-1.65.85-2.45 1.8M43 62.65l-8.15 3.15m3.65 13.85q-4.65.8-2.55-1.15l-2.7-.35m18-1.65q-3.6 2.7-6.25 3.65l.15.55m.2.75-.2-.75m-.15-.55-2.8.5m-12.25-19.8.35 1.4m-6.5 3.6q-.1-1.5.9-3.3m.15 3.1 1.35.05q-.15 1.65.4 3.2l.45 1.1 1.1 1.65.45-.2m-1.35-2.7-.2-.65-.1-.15.05.1v.05l.25.65v.05-.05m0-.1q-.4-2.4-.15-3.05m-1.7 3.75 1.05 2.75 3.2 8.15.5 1.3 7.55 21.1v.05l.85.05m-.05-.05.65-.25M26.6 68.9l.45 1.1.8 1.8.3-.15m-2.75-2.3 1.2-.45-2.8-3.05-2-2.35m-4.35-3.4 3.2 3.95 4.75 5.3m2.45 2.45.6 1.3m16.2 29.75-5.35-.45-.75.35m4.3-.95h-.4l-2.25.3m-2.5.55v.05m-3.15 1.8q-.2.35 1.2 4.35l1.85-.25-.35-1.55q1.4 0 2.2.5m1.5-2.9-2-.3-4.4.15q1.4-1.15 3.15-1.85m3.25 2 .3.9.5 1.2q1.85 4.85 1.65 6.15l.2-.05 3.85-1.5q-.05-2.95-2.8-8.5l-3.7 1.8m6.6-2.35.25.65q1.05-1.1 5-1.55m-5.25.9-.25-1.25m-.15-.65.15.65m.15 2.35-.5-.25-2.3-.95m2.8 1.2.75 1.1 2.1 1.7m-2.5-3.25-.35.45M31 64.95l8.1-2.8-1.45-3.85m-4.9 7.7.2.25M49 116.45l-5.8-.75-2.6-.8m-2.95-1.45 2.8 5.95q10.45 3.15 19.65 3.45 8.2-3.8 19.7-11.45m-42.15 2.05 4.95 1.3 2.85.25m-9.7-6.15.5 1.1 1.4 3.5m4.95 1.3.6.95m.2-2.8-4.5-.85-1.3-3.45m22.8 2.15q-1.55.95-3.8 1.85l-.75.35q-5.15.4-12.45-.05m35.6-3.75-12.45 8.05m-6.15-6.45q-4.5 1.65-12.95.6m11.1-46.75q-5.85.3-12 1.35m-4.2-4.1L38.5 56m-.85 2.25L33.7 60.9M5.85 27.85 3.45 30m7.2-20.35L16 18.4M36.2 4.25Q31.3 2.7 16 8.85" fill="none" stroke="#332720" stroke-opacity=".612" stroke-width=".5"/></g><use xlink:href="#c" id="d"/></defs><use transform="translate(230.35 138.1)" xlink:href="#d"/></svg>