<svg viewBox="0 0 117.47 111.34" xmlns="http://www.w3.org/2000/svg" xmlns:xlink="http://www.w3.org/1999/xlink"><use transform="translate(.02 -.01)" width="117.45" height="111.35" xlink:href="#a"/><defs><g id="a"><path d="M312.6 146.5q1.45-.15 2.55 1.2v.1q.3 2.05-.25 3.75l-2.75-.15.45-4.9m1.6 33.05.6 4.5.35 2.7-.2 5q-.75 6.95-1.1 13.9l.05-2.15-1.5-.4h-.05q.05-5.75.6-11.4l-.05-4.2-.1-1.25 2.2-.35-.2-1.85-.3-1.85-1.85.2h-.05l-.3-1.8-.05-.35v-.15l1.95-.55m-.5 29.05-.1 5.35-1.9.45q-.05-3.35.3-5.6l1.7-.2m.25 9.35v2.85l-1.95.25-.05-1.65-.2-.9 2.2-.55m0 5.7v.35l-.2-.05-.4-.25.55.05.05-.1m0 2v2.45l-2-.5q-.05-.2.05-.45l.1-.2v-1.45l1.85.1v.05m.15 4.8 1.7 13.5-2.25 1q-1.1-7.25-1.45-14.7l2 .2m-43.7 4.7q.05 10 1.6 18.7l-3.25 1.2-.3-2.8-.25-2.55-.05-1.9-.1-.95-.05-.95q-.35-4.95-.35-9.95v-.9l2.75.1m-34.8-3.6.8 8.4-2.25.9q-.5-4.45-.6-8.65l1.6-.7.45.05m-4.05 8.4-1.6.6 1-6.5.6 5.9m3.85-78.7 2.45.9-.4 4.6-.05.25-.3 3.6-.75-1.6-.7-1.1-.65-.5.2-2.65.2-1.3-.15.15.15-2.35M259.55 147l1.75.7v.25l-1.55.25-.2-1.2m9.7-2q1.35.25 2.1 1.95l.15.3-.15 5.1-2.5-1.5 2.5 1.5-.4 12.3-2.45.25-.2-1.35q.4-1.3 0-2.85.65-.7.05-1.4.05-3.8.35-7.45l.15-1 .2-1.5h-.15l.1-1.55h.2l.1-1.4h-.2q0-.75.15-1.4m31.2 3.5 2.15.95-.85 4.9-.35.3-.95-6.15m-40.55 1 1.1-.2-.4 2.7-.35.15-.35-2.65M235 167.4l2.45-.65-2.45.65m2.4-.4-1.75.9 1.75-.9" fill="#55542d" fill-rule="evenodd" transform="translate(-216.25 -144.3)"/><path d="m311.55 146.5 1.1-.2-.05.2-.45 4.9-1.2.05.6-4.95m2.45 79.1-.05.05v-.05h.05m-.45 19.35h-.05l-16.25-1.1.5-9.45 1.95-.2 1.65 9.75 2.55.2 3.6.35-3.6-10.6 4.2-.55.25.05v-1.6l-.05-2.05 3.8.5q.35 7.45 1.45 14.7m-44.8 10.1.05.1-13.05-1.45.15-2.65 12.55 1.55v-.35l.3 2.8m-12.5-9.6.3-11.05.95.15.35 3.6.8-.15-.35-3.4 3.35.2-.05 3.35h.75l-.05 1.5.75.05 1.05.4.55.15 1.05.5 1-5.4.05-.25.9-.05v.9l-.95-.6.95.6q0 5 .35 9.95l-.1-.9-3.3.1v-1.9l-1.05.1 1.05-.1v1.9l-8.35.35m-22.1-4.6.05.15-2.55-.2-.1-.85-.6-5.9-1 6.5v.1l-3.05-.2 2-6.25 4.65-2q.1 4.2.6 8.65m-9.25-.6-1.35-.05.8-10.2.1-3.05 2.35-.2-.05 1-2.3.95-.1 1.3 2.4-1.3v1.1l2.2.5-1.35 3.3q-1.35.9-2.55 2.1.95-.5 2.05-.75l-2.2 5.3m-.35-19.15-.05-8.2 2.6 1.05-.2 6.8-2.35.35m-.15-10.55-.1-1.25h2.85l-.05 1.85-2.7-.6m-.15-2.35-.05-1.3h2.95v1.05l-2.9.25m-.05-2.15.05-2.5.35-3.95 2.75-.5-.1 4.2-.1 2.85-2.95-.1m.6-8.45.6-9.85.25.05 1-.1.85-.1v.75l-.15 8.95-2.55.3m.35-32.5-.1-2.3 2.05-.3-.15 2.25-1.8.35m3.7-2.85 6.55-1.1v.1l-.15 2.35-1.9 2.3q-2.2-1.45-4.8-1.4l.3-2.25m28.4-9.9-.3-2.25 2.95-.6.35 2.65-2.95.95-.05-.75m-.35-3.55-.2-1.55 2.85-.5v.25l.2 1.2-2.85.6m4.4-1.1.2-1.35q3.5-1.8 7.75-1.5v.15q-.15.65-.15 1.4l-7.8 1.55v-.25m36.6 9.9-1.1-8.6 3.4-.65h.25v.15l.95 6.15q-1.65.95-3.1 2.45l-.35.5h-.05m4.7-8.15.25-1.55 6.6-1.05-.05 4.85h-.1q-1.9.2-3.5.75l.15-4.95-2.1.4.1 5.35q-1.2.4-2.2 1.1l.85-4.9m5.35 31.2 1.6-.1 2.7-.45v.15l.05.35.3 1.8-.25.05-4.4-.05v-1.75m0 6.4 4.85-.8.1 1.25-4.95.15 4.95-.15.05 4.2-4.9.45 4.9-.45q-.55 5.65-.6 11.4v.1l.05-.1 1.5.4-5.75-.15-.1-11.2-.1-4.5v-.6M260.6 152l.4-2.7 8-1.5-.1 1.55-8.3 2.65m8.1-.15q-.3 3.65-.35 7.45l-10.65 2.8-.2-5.8 11.2-4.45m-2.9 91.2-1.2.15.05-2.95-.05 2.95 1.2-.15m43.65-31.9-1.3-.4 1.3.4m-1.3-2 3.85-.35q-.35 2.25-.3 5.6l-3.5.85-.05-4.5v-1.6m3.6 9.35.2.9.05 1.65-3.75.4-.05-2.1 3.55-.85m-3.4 6.75 3.75.25v1.45l-.1.2q-.1.25-.05.45l-3.6-.75v-1.6m1.3 6.35-1.3.2 1.3-.2m-1.55 3.75v-2 2M235 167.4l-.3-.45-.05-.1-.85-.6 1.4-1.5-.2 2.65m-5 63.15 1.55.25-2 1.4.45-1.65m-5.75-27 3-.25-3 .25m2.55-15.3.7.1-.7-.1" fill="#7b7a41" fill-rule="evenodd" transform="translate(-216.25 -144.3)"/><path d="m309.45 146.85 2.1-.4v.05l-.6 4.95-.6 5.45-1.05-.3.1-4.9.05-4.85m-1.5 40.2-3.85.65-.05-.8-.15-1.55 1.85-.2 9.05-1.1.2 1.85-2.2.35-4.85.8" fill="#b0b08e" fill-rule="evenodd" transform="translate(-216.25 -144.3)"/><path d="m303.95 153.25-.1-5.35 2.1-.4-.15 4.95-.15 5.7-1.6.55-.1-5.45m-77.2 74.5 1.45-.55.25.75-1.7.75-2.4 1.3.1-1.3 2.3-.95v.95-.95" fill="#89895f" fill-rule="evenodd" transform="translate(-216.25 -144.3)"/><path d="M314.9 151.55h.05q3.4.5 6.3 2.55 5.3 3.6 5.45 9.85 0 6.15-5.1 11.15-3.3 3.05-7.4 4.45l-1.95.55-2.7.45-1.6.1-2.35-.05-1-.25.65-3.2-1.3-.4-.3.85-.65-.6-1.15 2.65-3.65-2.15-.15-.1q-1.7-1.35-2.7-2.9l3.45-2.65-.8-.65-3.15 2.55q-1.45-2.6-1.4-5.7l4.9-.9-.25-.7-1.15.2-.1-1.25-3.3.5q.15-1.35.7-2.55.95-3.05 3.5-5.6-.1-.15.15-.1v-.05h.05l.35-.5q1.45-1.5 3.1-2.45l.35-.3q1-.7 2.2-1.1l.1 5.45 1.6-.55.15-5.7q1.6-.55 3.5-.75h.1l-.1 4.9 1.05.3.6-5.45 1.2-.05 2.75.15m-1.3 62.4q9.35-1.95 19.6-2-10.3 3.55-19.25 6l-2.2.55-3.55.85q-10.2 2.25-18.85 3.05 8.95-4.65 18.85-7.15l3.5-.85 1.9-.45m.35 14.15.1.05q4.45 1.2 8.9 3.1l-8.85-.8-2-.2-3.8-.5q-11.2-1.55-19.55-4.2 9.8-.75 19.6 1.3l3.6.75 2 .5m-89.45-15.2q-3.55-1.55-7-3.2l6.9.85 2.7.6q11.2 2.55 22.15 9.6-10.75-2.2-22.15-6.8l-2.6-1.05m.9-25.15q-3.55-.2-5.95-2.75-1.2-1.25-1.85-2.6-1-2.25-.85-4.95-.05-2.05.55-3.75.15-.85.55-1.5.7-1.65 1.95-3.15 2.25-2.95 5.35-3.95l1.8-.35-.15 1.9.85-.1.75-.1.15-1.95q2.6-.05 4.8 1.4l-1.15 1.35.35.3 1.25-1.3.85.6.05.1.3.45.65.5.7 1.1.75 1.6.15.4q.45 1.6.5 3.8v.05l-.05-.05-1.65.45-.1 1.05-.95.2.05 1.15h2.4q-.7 2.5-2.2 4.75l-1.6-1.9-1.1 1.65 1.55 1.7-2.35 2-.45-1.2-.9.45.45 1.4-3.25 1.05q-.1-.05-.1.05l-.85.1-1 .1-.25-.05m71.4 1.1.2.45.9 3.6.3 4.15-.2 2.85-3.2-.45-.7 1.5-.15.3-.1 2.6h.1l3.05 1.05-.95 2.65-1.7-.7-.95 2.3-2.1-1.1-1 2.4 3 1.6-.9 1.2q-5.65 6.5-13.3 6.45-6.3-.05-10.8-4.5l-.25-.2-1.4-1.6-1.3-1.85 1.15-1.1-1-1.5-1.15 1.05-1-2.45q-.8-2.05-1.15-4.2-.4-2.2-.35-4.6.05-5.75 2.2-10.45l.1-.15 1.2-2.1 1.5-2.25 1-1.2.2-.3 1.1 1.6.5-.5-.95-1.7q0-.25.15-.25l.2-.2q3.75-3.7 8.6-4.6l.25 1.75h.2v-1.9l1.1-.05q7.55-.85 13.15 5.1 2.95 3.15 4.45 7.3m-61.15-20.95-.15.85.15-.85m19.75 30.95q-.1 1.6-1 2.95-.9 1.25-2.05 1.25-1.3-.05-2.05-1.1-.85-1.2-.8-2.85-.05-1.7.85-2.85.8-1.35 2.1-1.35 1.15-.1 2.05 1.1.8 1.15.9 2.85m-23.85 31.95q7.75-4.9 17.7-7.2-6.25 4.25-14.1 7.9l-1.6.7-4.65 2q-.95.3-1.8.75-1.1.25-2.05.75 1.2-1.2 2.55-2.1l1.95-1.4 2-1.4" fill="#3f545c" fill-rule="evenodd" transform="translate(-216.25 -144.3)"/><path d="M307.95 180.65v1.75h-2.3l.1 2.75-1.85.2.15 1.55-4 1.15-.45-1.3.45 1.3-3.25.8q-1.5-4.15-4.45-7.3-5.6-5.95-13.15-5.1l-1.1.05.15-5.1-1.3.1.7 5.15q-4.85.9-8.6 4.6l-.2.2q-.15 0-.15.25l-1.55-2.7-.7.95 1.6 2.35-.2.3-1 1.2-1.5 2.25-1.2 2.1-7.35-2.9-4.7-13-1.55-4.55 7.05-1.2 2-.35-.1 2.35 1.3-.15.05-2.45 3.8-.45.35 2.55 1.6-.2-.05-2.65 1.95-.25 2.45-.25 6.95-.6.95-3.25.8 3.05 1.7-.05 2-4.8.2 4.65 10.7-.3q-.55 1.2-.7 2.55l-1.3.25-.3 1-1 .2-.1 1.25 2.6-.55q-.05 3.1 1.4 5.7l-1.45 1.2.6.55 1.35-1q1 1.55 2.7 2.9l.15.1 3.65 2.15-.7 1.55 1.15.2-.25.7 2.05.4.5-2.15 1 .25 2.35.05m-53.7-9.2-2.15.8 2.15-.8m8.05 13.05-.6 1.4.6-1.4m-6.55-7.75-.75.4.75-.4" fill="#ffeee1" fill-rule="evenodd" transform="translate(-216.25 -144.3)"/><path d="m302.3 181.4-1.15-.2.7-1.55L303 177l.65.6-1.35 3.8m-8.85-13.35-2.6.55.1-1.25 1-.2 5-.5 1.15-.2.25.7-4.9.9M258.3 234.4l-.15.2q.1-.15.15 0l.35 3.4-.8.15-.35-3.6-.25-3.35.7-.05.35 3.25m-23.05-52 2.35 2.75-1.05 1.15-2.45-2.45-1.55-1.7 1.1-1.65 1.6 1.9" fill="#777753" fill-rule="evenodd" transform="translate(-216.25 -144.3)"/><path d="m304.6 180.35-.5 2.15-2.05-.4.25-.7 1.35-3.8.3-.85 1.3.4-.65 3.2" fill="#939366" fill-rule="evenodd" transform="translate(-216.25 -144.3)"/><path d="M297.75 234.4q-14.1 1.05-27.35.75l-2.75-.1-.9.05.5-2.5-2.6-.45v-.05l.2-1.75-1.85.1-.3.05h-.05l-.05.9-1.05.05.1 3.35-3.35-.2q-.05-.15-.15 0l.15-.2 9.75-19.4.25.2q4.5 4.45 10.8 4.5 7.65.05 13.3-6.45l.9-1.2 2.75 1.65.9-2.55-.75-.55 1.4-2.4-1.55-.65.95-2.65 3.1 1.2.5-4.5.15-1.3-2.75-.4.2-2.85-.3-4.15-.9-3.6-.2-.45 3.25-.8 4-1.15.05.8 3.85-.65v.6l.1 4.5.1 11.2-3.75.25.2 1.05.15 1.75-1.65.15.6 3 4.4-.35.05-.05v1.6l.05 4.5q-9.9 2.5-18.85 7.15 8.65-.8 18.85-3.05l.05 2.1-2.8.25.85 1.55-.75 1.7 2.8.3v1.6q-9.8-2.05-19.6-1.3 8.35 2.65 19.55 4.2l.05 2.05v1.6l-.25-.05-4.2.55-.65-1.95-1.2.15-2.65.2.3 1.9-1.95.2m-47.2-66.7 1.55 4.55-.85.35.85-.35 4.7 13 1.15 3.3-16.25 11.05-.75-1.45.75 1.45-3.4 2.4-2.35-.95-7.1-2.8-.05-.1-.2-1-1.25.15.15-8.95v-.75q0-.1.1-.05l3.25-1.05 1.2 3.35.85-.55-1.15-3.45 2.35-2 2.45 2.45 1.05-1.15-2.35-2.75q1.5-2.25 2.2-4.75l4.15-.05.05-1.7-.65-.6-.55-1.4-2.7.9q-.05-2.2-.5-3.8 6.45-1.9 13.3-3.3m50.25 22.5-.75-2.15.75 2.15M267.6 223l-1.15-.4 1.15.4m-31.2-23.65-.45 1.7.45-1.7m15.35-20.25 1.1-.55-1.1.55" fill="#fff9f4" fill-rule="evenodd" transform="translate(-216.25 -144.3)"/><path d="m307.95 182.4 4.4.05.25-.05h.05l1.85-.2.3 1.85-9.05 1.1-.1-2.75h2.3" fill="#9c9c72" fill-rule="evenodd" transform="translate(-216.25 -144.3)"/><path d="m256.95 150.1-.35.1-.15-1.35.45-.05 2.85-.6 1.55-.25 7.8-1.55h.2l-.1 1.4h-.2l-8 1.5-1.1.2-2.95.6m3.9 15.8-.05 2.45-1.3.15.1-2.35.2-2.4.1-1.4.95-.1v3.65" fill="#7d7d57" fill-rule="evenodd" transform="translate(-216.25 -144.3)"/><path d="m266.55 165.15.05 2.65-1.6.2-.35-2.55-.1-.75-.35-2.5-.1-.7 2.2-.5.05.4.15 2.7.05 1.05m34.05 36.45-.5 4.5-3.1-1.2-3.05-1.05h-.1l.1-2.6.15-.3 6.5.65m-40.35-49.45.35-.15 8.3-2.65h.15l-.2 1.5-.35.05-11.4 2.95-.1-.4.3-.35 2.95-.95m17.4 24.5-.7-5.15 1.3-.1-.15 5.1v1.9h-.2l-.25-1.75" fill="#626244" fill-rule="evenodd" transform="translate(-216.25 -144.3)"/><path d="M255.9 251.05h-.05l.15-2.2 12.2.85.25 2.55v.35l-12.55-1.55m.25-4.1.05-1.5h.05l8.35-.35 3.3-.1.1.9.05.95-11.9.1m12.35-96.05.35-.05-.15 1-11.2 4.45h-.15l-.15-1.45-.1-1 11.4-2.95m-10.65 3.65-.65.3.65-.3" fill="#71714f" fill-rule="evenodd" transform="translate(-216.25 -144.3)"/><path d="M224.45 226.95q-.5-.8 0-1.25h2.35v1.05l-2.35.2m43.9-67.65q.6.7-.05 1.4l-1.95.7-.05-.4-2.2.5.1.7-3.35 1.15v-1.1l-.95.1-.1 1.4-2.05.65q-.65-1.05-.05-2.3l10.65-2.8" fill="#ededde" fill-rule="evenodd" transform="translate(-216.25 -144.3)"/><path d="M224.35 224.35q-.1-.8.2-1.25l2.35-.45-.05 1.7h-2.5m35.25-58.2-2 .35q-.35-1.1.15-2.1l2.05-.65-.2 2.4m8.7-5.45q.4 1.55 0 2.85l-1.8.55-.15-2.7 1.95-.7m-7.45 2.65 3.35-1.15.35 2.5-3.7 1.2v-2.55" fill="#d3d3ab" fill-rule="evenodd" transform="translate(-216.25 -144.3)"/><path d="M224.55 223.1q-.35-1.2 0-2l2.35-.35v1.9l-2.35.45m43.95-58.2-1.95.25-.05-1.05 1.8-.55.2 1.35m-3.85.55-3.8.45 3.7-1.2.1.75" fill="#ebebd8" fill-rule="evenodd" transform="translate(-216.25 -144.3)"/><path d="m296.05 207.55 1.55.65-1.4 2.4-2.8-1.45.95-2.3 1.7.7m-28-25.25-1.6-2.35.7-.95 1.55 2.7.95 1.7-.5.5-1.1-1.6m-2.7 29.25-1.95 1.75-1-1.45 1.95-1.85 1.15-1.05 1 1.5-1.15 1.1" fill="#7c7c56" fill-rule="evenodd" transform="translate(-216.25 -144.3)"/><path d="M256.55 234.4q-10.8-.9-20.95-2.85l-.45-.05q7.85-3.65 14.1-7.9-9.95 2.3-17.7 7.2l-1.55-.25.7-2-.95-.1-.8 1.85-2.2-.5v-1.1l1.7-.75-.25-.75-1.45.55.05-1v-1.05l.95-.1v-1.2l-.9-.05.05-1.7v-1.9l.2-6.8q11.4 4.6 22.15 6.8-10.95-7.05-22.15-9.6l.05-1.85 1.55-.1-.3-1.3-1.25.05v-1.05h2.05l-.05-.55h-.05l-1.95-.2.1-2.85.1-4.2 1.6-.4-.1-.45 7.1 2.8 2.35.95 3.4-2.4 16.25-11.05-1.15-3.3 7.35 2.9-.1.15q-2.15 4.7-2.2 10.45-.05 2.4.35 4.6.35 2.15 1.15 4.2l1 2.45-1.95 1.85 1 1.45 1.95-1.75 1.3 1.85 1.4 1.6-9.75 19.4-.35-3.25-.7.05.25 3.35-.95-.15m-13.75-32.9-1.1-1.9 1.1 1.9m19.35 18.25.55.5-.55-.5m-1.95-30.6.6-1.7-.6 1.7m-4.8 9.7q-.1-1.7-.9-2.85-.9-1.2-2.05-1.1-1.3 0-2.1 1.35-.9 1.15-.85 2.85-.05 1.65.8 2.85.75 1.05 2.05 1.1 1.15 0 2.05-1.25.9-1.35 1-2.95m-12 9.1-.3 1.65 8.8-1.5-.2-.75-8.3.6m2.55-1.15 8.95-1.55-.15-.8-8.4.7-.4 1.65m-11.3-2.45.35-1.15-.35 1.15m23.7 23.6.9.35-.9-.35" fill="#fff4ec" fill-rule="evenodd" transform="translate(-216.25 -144.3)"/><path d="m295.35 174.5-1.35 1-.6-.55 1.45-1.2 3.15-2.55.8.65-3.45 2.65m-3.4-7.35.3-1 1.3-.25 3.3-.5.1 1.25-5 .5" fill="#6f6f4d" fill-rule="evenodd" transform="translate(-216.25 -144.3)"/><path d="m298 199.9 2.75.4-.15 1.3-6.5-.65.7-1.5 3.2.45m-1.8 10.7.75.55-.9 2.55-2.75-1.65-3-1.6 1-2.4 2.1 1.1 2.8 1.45m-33.6 20.8.05-.9h.05l.3-.05 1.85-.1-.2 1.75v.05l-.55 7.95-1.05-.4-.75-.05.05-1.5.25-6.75m1.15-.35-.75-.6.75.6m-20.35-23.1 8.3-.6.2.75-8.8 1.5.3-1.65m2.55-1.15.4-1.65 8.4-.7.15.8-8.95 1.55" fill="#696949" fill-rule="evenodd" transform="translate(-216.25 -144.3)"/><path d="m261.65 234.8-.1-3.35 1.05-.05-.25 6.75h-.75l.05-3.35m3-2.65 2.6.45-.55 2.75-1 5.4-1.05-.5-.55-.15.55-7.95" fill="#8a8a60" fill-rule="evenodd" transform="translate(-216.25 -144.3)"/><path d="m313.85 205.65.05.05h-.05l-1.85-.25-7.25.95-.15-1.75-.2-1.05 3.75-.25 5.75.15-.05 2.15" fill="#797955" fill-rule="evenodd" transform="translate(-216.25 -144.3)"/><path d="m313.9 205.7-.05.05-.15 2.85-1.7.2-3.85.35-.05.05-4.4.35-.6-3 1.65-.15 7.25-.95 1.85.25h.05m.05 15.1v2.85l-.05.1-.55-.05-7.05-.45-.85-1.55 2.8-.25 3.75-.4 1.95-.25m-11.9 11.3 1.2-.15.65 1.95 3.6 10.6-3.6-.35-1.85-12.05" fill="#888860" fill-rule="evenodd" transform="translate(-216.25 -144.3)"/><path d="M313.95 223.8v.05-.05m0 .2.05.05v1.4l-.05.15h.05-.05l-1.85-.1-3.75-.25-2.8-.3.75-1.7 7.05.45.4.25.2.05" fill="#686848" fill-rule="evenodd" transform="translate(-216.25 -144.3)"/><path d="m299.7 234.2-.3-1.9 2.65-.2 1.85 12.05-2.55-.2-1.65-9.75" fill="#6d6d4e" fill-rule="evenodd" transform="translate(-216.25 -144.3)"/><path d="m226.9 240.45-2-.2 2.2-5.3q.85-.45 1.8-.75l-2 6.25m.9-78.05 1.05-.15-.3 2.25-.15 1.95-.75.1.15-4.15m1.15 67.9.8-1.85.95.1-.7 2-1.05-.25 1.05.25-.45 1.65-1.95 1.4 1.35-3.3" fill="#a5a57c" fill-rule="evenodd" transform="translate(-216.25 -144.3)"/><path d="M227.1 162.5v-.05l.7-.05-.15 4.15-.85.1.15-1.9.15-2.25m6.7 3.75-1.25 1.3-.35-.3 1.15-1.35 1.9-2.3.15-.15-.2 1.3-1.4 1.5m7.2 9.05.65.6-.05 1.7-4.15.05h-2.4l-.05-1.15.95-.2 5.05-1" fill="#84845b" fill-rule="evenodd" transform="translate(-216.25 -144.3)"/><path d="m224.2 206.9-.05.05.05-.9 2.95.1v.75-.75l1.95.2h.05l.05.55h-5m.4-8.2.2-1.1 2.55-.3v1.1-1.1l1.25-.15.2 1-.15.1-1.3.15-2.75.3m13.15-23.85v-.05l2.7-.9.55 1.4-5.05 1 .1-1.05 1.65-.45.05.05m-6 11 1.15 3.45-.85.55-1.2-3.35-.45-1.4.9-.45.45 1.2" fill="#a0a076" fill-rule="evenodd" transform="translate(-216.25 -144.3)"/><path d="M224.3 209.3h-.05l-.05-1.1h.05l2.9-.25 1.25-.05.3 1.3-1.55.1v-1.35 1.35h-2.85m.3-9.7-.15.05.15-.95 2.75-.3 1.3-.15.15-.1.05.1.1.45-1.6.4v-.7.7l-2.75.5m4.05-1.35h.2-.2" fill="#83835a" fill-rule="evenodd" transform="translate(-216.25 -144.3)"/><path d="M224.45 225.7h-.2v-1.35h2.6l.9.05v1.2l-.95.1h-2.35m2.4-1.35-.05 1.35.05-1.35" fill="#99996a" fill-rule="evenodd" transform="translate(-216.25 -144.3)"/><path d="m256 248.85.15-1.9 11.9-.1.1.95.05 1.9-12.2-.85" fill="#959568" fill-rule="evenodd" transform="translate(-216.25 -144.3)"/><path d="m311.55 146.5 1.1-.2-.05.2q1.45-.15 2.55 1.2v.1q.3 2.05-.25 3.75m.05 0q3.4.5 6.3 2.55 5.3 3.6 5.45 9.85 0 6.15-5.1 11.15-3.3 3.05-7.4 4.45l.6 4.5.35 2.7-.2 5q-.75 6.95-1.1 13.9m.05.05-.05.05-.15 2.85-.1 5.35q9.35-1.95 19.6-2-10.3 3.55-19.25 6v5.7m0 .35.05.05v1.4l-.05.15h.05m-.05.05v2.45l.1.05q4.45 1.2 8.9 3.1l-8.85-.8 1.7 13.5-2.25 1m-.05 0-16.25-1.1.5-9.45q-14.1 1.05-27.35.75.05 10 1.6 18.7l-3.25 1.2.05.1-13.05-1.45.15-2.65h-.05l.15-2.2.15-1.9.05-1.5h.05l.3-11.05q-10.8-.9-20.95-2.85l.8 8.4-2.25.9.05.15-2.55-.2-.1-.85-1.6.6m0 .1-3.05-.2-2-.2-1.35-.05.8-10.2.1-3.05q-.5-.8 0-1.25h-.2v-1.35h.1q-.1-.8.2-1.25-.35-1.2 0-2l-.05-8.2q-3.55-1.55-7-3.2l6.9.85-.1-1.25h-.05l-.05-1.1h.05l-.05-1.3-.05.05.05-.9.05-2.5.35-3.95-.15.05.15-.95.2-1.1.6-9.85q-3.55-.2-5.95-2.75-1.2-1.25-1.85-2.6-1-2.25-.85-4.95-.05-2.05.55-3.75.15-.85.55-1.5.7-1.65 1.95-3.15 2.25-2.95 5.35-3.95l-.1-2.3 2.05-.3m.7-.1 1.05-.15 6.55-1.1v.1l2.45.9-.4 4.6m1.1-.3q10.55-5.2 18.7-14.1l-.3-2.25-.35.1-.15-1.35.45-.05-.2-1.55 2.85-.5m0 .25 1.75.7.2-1.35q3.5-1.8 7.75-1.5v.15q1.35.25 2.1 1.95l.15.3-.15 5.1q11.85 6.6 26.4 5.4m.15-.15-1.1-8.6 3.4-.65m.25.15 2.15.95.25-1.55 6.6-1.05 2.1-.4v.05m-17.3 16.85-10.7.3-.2-4.65-2 4.8-1.7.05-.8-3.05-.95 3.25-6.95.6m-13.35 1.85-7.05 1.2m43.7-4.35q.95-3.05 3.5-5.6m-26.4-5.4-.4 12.3m-13.85-10.8.1 1q-7.6 8.35-18.65 11.6-.6.25-1.15.55l-.3 3.6m20.6-8.5-.2-5.8h-.15l-.15-1.45M237.25 171q6.45-1.9 13.3-3.3m7.05-1.2q-.35-1.1.15-2.1-.65-1.05-.05-2.3" fill="none" stroke="#000" stroke-linecap="round" stroke-linejoin="round" stroke-opacity=".8" transform="translate(-216.25 -144.3)"/><path d="M81.5 13.45q-.1-.15.15-.1v-.05M84 4.05h.2m10.5 3.1 1.2-.05 2.75.15m-9.1.9q1.6-.55 3.5-.75h.1m-7.65 2.65-.35.3q-1.65.95-3.1 2.45l-.35.5h-.05m6.05-4.35q-1.2.4-2.2 1.1M96 35.8l-2.7.45-1.6.1-2.35-.05-1-.25M96 35.8l1.95-.55m-12.35.1-3.65-2.15-.15-.1q-1.7-1.35-2.7-2.9m-.5-.75q-1.45-2.6-1.4-5.7m.1-2.15q.15-1.35.7-2.55m13.7 24.3 4.95-.15M52.1 15q.6.7-.05 1.4.4 1.55 0 2.85l.2 1.35m-.85 71.05v-.9m40.4-42.9 4.9-.45M41.05 8.8 41 8.05M20.85 26.3l.15.4m-2.25-3.6-.3-.45-.05-.1-.85-.6m-.45-.35q-2.2-1.45-4.8-1.4m-1.6.25-1.8.35m10.5 2.8-.65-.5m.65.5.7 1.1.75 1.6m.65 4.2q-.05-2.2-.5-3.8m.5 3.85v-.05m-.3 2.85q-.7 2.5-2.2 4.75m-1.15 1.45-2.35 2m-.9.65-3.25 1.05q-.1-.05-.1.05l-.85.1-1 .1-.25-.05M11 59l-3 .25" fill="none" stroke="#000" stroke-linecap="round" stroke-linejoin="round" stroke-opacity=".6" stroke-width=".4"/><path d="m34.3 23.4 1.55 4.55 2.15-.8M87.8 42.6l-4 1.15.75 2.15m-1.2-3.45.45 1.3-3.25.8M51.8 70.7l-9.75 19.4-.15.2m4.55-4.1.3-.05.75.6m.4-42.9-7.35-2.9 1.15 3.3L25.45 55.3l1.1 1.9m18.9-15.6.6-1.4m.4 35.75-.55-.5m4.3 2.85 1.15.4m-6.8-35.55-.6 1.7m-31.35 9.1 7.1 2.8.45-1.7M35 28.3l.85-.35 4.7 13m-3.95-6.7-1.1.55m3.25-1.95.75-.4m-14.8 21.4.75 1.45-3.4 2.4-2.35-.95m-.95 2.15-.35 1.15m-5.8-6.1h-.2M43 84l-.9-.35" fill="none" stroke="#ffd8bb" stroke-linecap="round" stroke-linejoin="round" stroke-width=".2"/><path d="M91.7 36.35v1.75m-37-17.75-2.45.25-1.95.25m-1.9.3-3.8.45m-1.25.25-2 .35m.55 68.1q.1-.15.15 0l3.35.2m5.1.3.9-.05 2.75.1m37.55-48.1v.6l.1 4.5.1 11.2m0 5.8v1.6l.05 4.5m.05 6.2-.05-2.1m-4.3 14.55 4.2-.55.25.05v-1.6l-.05-2.05m.05-2.9v-1.6m-8.65 8.95-1.95.2M11.25 43.3v.75L11.1 53m0 1.8L11 59l-.1 2.85m0 .75v1.05m0 1.35-.05 1.85m0 2.8-.2 6.8v1.9l-.05 1.7m-.05 1.35v1.05l-.05 1m0 .95v1.1l2.2.5m1.05.25 1.55.25m3.6.7.45.05M11.1 54.8V53m-.2 9.6v-.75m0 3.15v-1.35m-.4 20.75v-.95m3.25 2.8L12.7 86m-2.15-4.6.05-1.35m30.65 10.2-.95-.15" fill="none" stroke="#000" stroke-linecap="round" stroke-linejoin="round" stroke-opacity=".6" stroke-width=".4"/><path d="m21.2 22.45 1.1-.3m30.3-15.6 2.5 1.5M52.25 6.6l.35-.05m-11.65 4 .65-.3m-22.35 14.2.15-.85 1.75-.9m.05-.25-2.45.65" fill="none" stroke="#626244" stroke-linecap="round" stroke-linejoin="round" stroke-width=".2"/><path d="m50.45 91.05.95.6m-3 4.3-.05 2.95 1.2-.15m42.35-32.3 1.3.4m-1.35 22.2v2m.25-3.55 1.3-.2M11.25 44.05l-.7-.1M47.3 99l1.05-.1v1.9" fill="none" stroke="#adab63" stroke-linecap="round" stroke-linejoin="round" stroke-width=".2"/><path d="M97.3 100.65h-.05" fill="none" stroke="#6f0" stroke-linecap="round" stroke-linejoin="round" stroke-width=".2"/></g></defs></svg>