<svg viewBox="0 0 92.103 82.3" xmlns="http://www.w3.org/2000/svg" xmlns:xlink="http://www.w3.org/1999/xlink"><g transform="translate(-229.45 -158.8)"><use transform="translate(229.45 158.8)" width="92.1" height="82.3" xlink:href="#a"/><use transform="matrix(1.1316 1.504 -.9092 1.5105 301.25 186.15)" width="14.05" height="17.7" xlink:href="#b"/><use transform="matrix(-.9891 -.2991 .7324 -.874 254 181.6)" width="14.05" height="17.7" xlink:href="#b"/><use transform="matrix(.9781 0 0 1 275.7 182.05)" width="14.05" height="17.7" xlink:href="#b"/><use transform="matrix(-.4671 .7268 -.6043 -.9663 246 206.35)" width="14.05" height="17.7" xlink:href="#b"/></g><defs><g id="a"><path d="M267 159.95q-6.55 1-12.1 3.65l-.3 1-.95-.3q-1.05.45-2 1.05l-1.15.65q-3.4 2-6.4 4.65l.1 1-.7-.45q-.95.7-1.65 1.55-4.05 3.95-6.65 8.4l.15 1.25-1.35.9q-3.55 7.1-3.75 15.65-.3 11.35 6 20.6-5.5-9-5.2-19.6.3-15.1 11.65-26.25 3.6-3.6 7.8-6.25l-.1 5.65 2.7 3.95q-2.2 1.55-4.2 3.55-8.15 8.05-8.35 19.1-.15 5.6 1.8 10.5l.1.2q.45 1.25 1.2 2.55l.1.1-2.15 2.4-1.05-.3-4.25 3.55 8.25-4.3.05.05.2.35-9.35 5.55q-2.7-4.2-4.05-8.75-.6-1.8-.9-3.55l-.35-2.25q-.55-3.15-.35-6.4.05-2.85.45-5.35l.2-1.05q.9-5.5 3.5-10.35l.9-1.65q1.05-1.95 2.45-3.7l2.1-2.6 1.75-1.9q4.3-4.45 9.35-7.45l1.1-.65.1-.05q6.95-3.8 15.3-4.95l.05.15-.05.1m-15.3 6.8q6.95-4.15 15.4-5.65h.05l.9 10.5q-7.75.8-13.85 4.7l-2.3-3.4-.2-6.15m18.5-5.85.15-1.55h.55l.8-.1 1.85-.1.35.2h.2l.8-.1 1.5-.1 1.25.05.65.05q5.95.45 11.45 2.4l3.6 9.7.7 1.6-1.45 6.35-.55-.5q-9.65-8.15-22.5-7.3h-.15l.8-10.6m5.7 79.85-1.6.05-5.45-.25-7.7-1.35 2.25-4.05 1.65-2.95-1.6-3.1 5.85.6q11 .45 19.85-4.8 0-.1.15-.1 2.7.65 5.7 3.05-1.8-1.65-3-4.95l1.45-1.1 4.2-4.25 10.2 8.3-5.35 4.95q-11.25 8.85-25 9.85l-1.6.1m-15.7-1.8q-2.45-.7-4.7-1.6l.4-1.3 2.6-7.8 3.25.6 2 3.2-1.45 2.85-3.15-1 3.15 1-2.1 4.05m-7.35-2.85q-7.25-3.55-12.8-9.75L237.3 223l1.45-1.2.1-.1 6.9-5.6 1.5 1.85.95 1.05q4.3 4.55 9.85 7l-5.2 10.1m46.65-48.05q-1.9-3.85-4.95-6.9l-.6-.6.85-6.65 1.9-.15 10.15-1q10.5 10.6 11.1 25.6l-3.95 1.1 3.95.65v.15q-.15 13.8-8.8 24.15l-10.85-7.7q3.1-4.1 4.45-8.9l6.5.05-6.05-2q1.3-8.5-2-16.65l8.35-4.65-10 3.65-.05-.15m-23.3-20 .15.2q-1 .05 1.65 2.2 3.55 2.3 5-2 .55-3.4-.45-3.1v-.25l-.25-.5-.75-.95-1.1-.55-1.35-.1q-1.5.05-2.5 1.05-.6.6-.8 1.35-.25.45-.2.95l.15.9.45.8m19.05 4.55-.45-.3-2.75-9.75q2.5 1.05 4.95 2.45 2.85 1.7 5.7 4l3 2.6-10.45 1m-8.7-4.25q3.65 1.05 6.8 3-3.15-1.95-6.8-3m25.7 24.55-.9-1.05-1.35-.75-1.45-.2q-1.75-.05-2.95 1-.65.6-.9 1.4-.3.45-.2 1-.1.5.2 1 .1.5.5.95l.15.2q-1.05 0 2.05 2.45 4.05 2.75 5.55-1.85.65-3.6-.5-3.4v-.25l-.2-.5m-37.1 43q-6.05.55-11.75-.75 5.7 1.3 11.75.75m18.8-6.8-.2-.5-.85-1.15-1.2-.85-1.4-.25q-1.65-.15-2.7.75-.7.55-.9 1.3-.2.4-.15.95-.05.5.15 1 .05.45.5.95l.15.2q-1.1-.05 1.75 2.55 3.8 3.05 5.35-1.4.55-3.45-.5-3.3v-.25m-52.7-44.85-.6-.95q-.5-.45-.95-.55l-1.1-.2q-1.25 0-2.1.9-.5.45-.7 1.2-.15.45-.15.95l.1.75q.05.35.4.75l.1.2q-.8.05 1.35 2.1 2.95 2.25 4.15-1.65.55-3.1-.35-2.9v-.25l-.15-.35m6.85 38.65-.65-1q-.55-.5-1.05-.7-.6-.3-1.1-.25-1.3-.1-2.2.75-.55.45-.75 1.15-.15.4-.15.9l.15.9q0 .35.35.8l.1.2q-.75.05 1.45 2.3 3.05 2.65 4.25-1.25.6-3.2-.25-3.1v-.2l-.15-.5m56-39.85q-3.1-5.65-7.4-9.3 4.3 3.65 7.4 9.3m.2-9.25q5.8 5 8 11-2.2-6-8-11m-54.75 1.9q-4.3 1.9-7.5 6.9 3.2-5 7.5-6.9m18 57.9q8.7 1.3 17-1.7-8.3 3-17 1.7" fill="#5c0301" fill-rule="evenodd" transform="translate(-229.45 -158.8)"/><path d="M250.5 167.45q-4.2 2.65-7.8 6.25-11.35 11.15-11.65 26.25-.3 10.6 5.2 19.6-6.3-9.25-6-20.6.2-8.55 3.75-15.65l1.35-.9-.15-1.25q2.6-4.45 6.65-8.4.7-.85 1.65-1.55l.7.45-.1-1q3-2.65 6.4-4.65l1.15-.65q.95-.6 2-1.05l.95.3.3-1q5.55-2.65 12.1-3.65l.1 1.15q-8.45 1.5-15.4 5.65l-1.2.7m-5.95 46.95-8.25 4.3 4.25-3.55 1.05.3 2.15-2.4.8 1.35m27.8-40.45.05.45.2 3.45.1-.85.3-3.15h1.45q4.75.1 6.4 3.25 1.6 3.1-4.3 4.1-5.95 1-9.5 5.5-3.6 4.4-6.45 6.15-2.85 1.7-4.45-1.45-1.65-3.1.85-7.4 2.45-4.35 7.55-7.3 4-2.35 7.8-2.75" fill="#f5ed89" fill-rule="evenodd" transform="translate(-229.45 -158.8)"/><path d="m267 159.95.05-.1v.1l.1 1.15h-.05l-.1-1.15m2.4 11.6v-.05h.15l-.15.05m30.15 16.65-.05-.15.05.15" fill="#739191" fill-rule="evenodd" transform="translate(-229.45 -158.8)"/><path d="m235.45 220.35 9.35-5.55.95 1.3-6.9 5.6-.1.1-3.3-1.45m31.7-59.25-.1-1.15v-.1l3.15 1.05-.8 10.6v.05l-1.35.05-.9-10.5m-11.25 74.95-2.95.1-.1-.05 5.2-10.1q.5.25.85 1.15l2.05.4 2.05.35 5.8.7q13.05.85 23-7.35 6.85-5.85 9.2-13.45h1.3l-.25-2.3-.4-.15q-.1-.2.05-.3l.45-5.1q-.05-5.4-1.85-10l-.05-.2-.7-1.55 10-3.65-8.35 4.65q3.3 8.15 2 16.65l6.05 2-6.5-.05q-1.35 4.8-4.45 8.9l-.65.85-4.2 4.25-1.45 1.1q1.2 3.3 3 4.95-3-2.4-5.7-3.05-.15 0-.15.1-8.85 5.25-19.85 4.8l-5.85-.6-1.7-.25-3.25-.6-2.6 7.8" fill="#a20602" fill-rule="evenodd" transform="translate(-229.45 -158.8)"/><path d="M267.05 159.95v-.1.1" fill="#ae9f7e" fill-rule="evenodd" transform="translate(-229.45 -158.8)"/><path d="m253.1 177.05-2.7-3.95.1-5.65 1.2-.7.2 6.15 2.3 3.4-1.1.75m8.05 62.15-.95-.25 2.1-4.05 1.45-2.85-2-3.2 1.7.25 1.6 3.1-1.65 2.95-1.1-.25 1.1.25-2.25 4.05m32.8-58.65-.5-.55-.85-.7 1.45-6.35-.7-1.6 1.45.95-1.45-.95-3.6-9.7 2.3.9 2.75 9.75.45.3 1.45 1.15-1.45-1.15 10.45-1 1.15 1.15-10.15 1-1.9.15-.85 6.65m4.35 36.15 10.85 7.7-1.3 1.45-10.2-8.3.65-.85" fill="#fff024" fill-rule="evenodd" transform="translate(-229.45 -158.8)"/><path d="m244.8 214.8-.2-.35-.05-.05-.8-1.35-.1-.1q-.75-1.3-1.2-2.55l-.1-.2q-1.95-4.9-1.8-10.5.2-11.05 8.35-19.1 2-2 4.2-3.55l1.1-.75q6.1-3.9 13.85-4.7l1.35-.05.15-.05q12.85-.85 22.5 7.3l.55.5.85.7.5.55.6.6q3.05 3.05 4.95 6.9l.05.15.7 1.55-.2.15.25.05q1.8 4.6 1.85 10l-.45 5.1q-.15.1-.05.3l.4.15.25 2.3H301q-2.35 7.6-9.2 13.45-9.95 8.2-23 7.35l-5.8-.7-2.05-.35-2.05-.4q-.35-.9-.85-1.15-5.55-2.45-9.85-7l-.95-1.05q4.85 4.25 11.9 6.15l2.05-3.7-1.3 3.9q3.75 1.35 7.75 1.7l2-.3q.55-4.3-.05-9.35.75 5.55 2.6 8.8l5.55-.15q3.8-.9 5.3-4.2.3-4.65-5.7-12.25 6.45 7.4 11.25 7.95 3.7-.2 6.1-4.5l3-6.2q-5.5-3.2-11.7-5.2-1.55-.6-3-.95l3.35.55q6.6 1.05 12.1 3.55 1.3-4.8.95-9.6l-.6-4.15-6.35.1-1.3.1 1.4-.35 5.7-1.35-2.8-5.45-1.8-1.75-.05-.1-1.35-1.15q-9.4-7.8-22.9-7.6l-.1 1.4-1.05.3-.1-1.6q-10.25 1.55-17.45 8.8-8.2 8.05-8.35 19.15-.2 5.5 1.75 10.4l1.6 3.3 2.1-2.4q7.2-7.25 16-11.6-6.65 4.25-14.55 11.85-1.3 1.05-3.45 4.05l-.95-1.3m31.55-46.55-.15-.2q4-.05 6.1-3.45l.25.5v.25l.1.55q-.05 1.25-1.1 2.25-1.1.95-2.55 1.15-1.4 0-2.45-.8l-.2-.25m35.9 24.65.2.5v.25l.1.6q0 1.4-1.2 2.45-1.25.95-2.8 1-1.75-.05-2.95-1l-.25-.25-.15-.2q4.65.15 7.05-3.35m-18.5 35.7.2.5v.25l.1.6q-.05 1.3-1.15 2.25-1.1.85-2.65.75-1.6-.15-2.65-1.15l-.25-.3-.15-.2q4.35.45 6.55-2.7m-52.5-44.35.15.35v.25l.1.55q-.05 1.2-1 2.1-.85.75-2 .85-1.3 0-2.05-.8l-.2-.25-.1-.2q3.3.1 5.1-2.85m6.85 38.65.15.5v.2l.05.5q-.1 1.25-.95 2.1-.95.75-2.2.75-1.3-.1-2.1-1.05l-.2-.25-.15-.2q3.5.4 5.4-2.55" fill="#990602" fill-rule="evenodd" transform="translate(-229.45 -158.8)"/><path d="M244.05 210.9q-1.95-4.9-1.75-10.4.15-11.1 8.35-19.15 7.2-7.25 17.45-8.8l.1 1.6q-3.25.95-6.55 2.95-.65.35-1.2.75-1.85-.35-2.85-1.55l1.4 2.55q-4.9 3.6-7.35 8.4-3.15 6-.65 10.35l.7 1.15q-.75 4.15.25 7.95 0-5.2 1.6-6.55 2.05.5 3.8-.55 3.85-2.4 8.5-8.6 4.6-6.2 12.8-7.6 8.15-1.4 5.65-5.75t-9.1-4.5l-2 .05-.05.65H273l-.3 3.15-.3-2.6-.05-.45-.1-.65-3 .55.1-1.4q13.5-.2 22.9 7.6l1.35 1.15q.4 4.15-1.05 8.65l-1.4.35 1.3-.1-1 2.55q-2 4-5.1 7.55l-3.35-.55q1.45.35 3 .95-2.55 2.55-5.65 4.85-7.75 5.5-17.35 6.85-6.5.95-13.8-.25 7.9-7.6 14.55-11.85-8.8 4.35-16 11.6l-3.7-.9" fill="#eb9327" fill-rule="evenodd" transform="translate(-229.45 -158.8)"/><path d="m278.3 159.1 2.55.1q4.25.25 8.2 1.3l.25.05 2.35.65q4.4 1.4 8.55 3.8 2.85 1.7 5.7 4 15.1 12.1 15.25 30.7v.5l-.1.15-3.1-1.95v-.05q-.6-15-11.1-25.6l-1.15-1.15-3-2.6q-2.85-2.3-5.7-4-2.45-1.4-4.95-2.45l-2.3-.9q-5.5-1.95-11.45-2.4v-.15m41.55 42.55 1.25.95q-.9 13.3-10 23.2-2.4 2.6-5.4 5-12.5 9.85-28.2 10v-.15q13.75-1 25-9.85l5.35-4.95 1.3-1.45q8.65-10.35 8.8-24.15l1.9 1.4m-37.3-36.3q1-.3.45 3.1-1.45 4.3-5 2-2.65-2.15-1.65-2.2l.2.25q1.05.8 2.45.8 1.45-.2 2.55-1.15 1.05-1 1.1-2.25l-.1-.55m29.9 28.3q1.15-.2.5 3.4-1.5 4.6-5.55 1.85-3.1-2.45-2.05-2.45l.25.25q1.2.95 2.95 1 1.55-.05 2.8-1 1.2-1.05 1.2-2.45l-.1-.6m-18.5 35.7q1.05-.15.5 3.3-1.55 4.45-5.35 1.4-2.85-2.6-1.75-2.55l.25.3q1.05 1 2.65 1.15 1.55.1 2.65-.75 1.1-.95 1.15-2.25l-.1-.6m-52.55-44.5q.9-.2.35 2.9-1.2 3.9-4.15 1.65-2.15-2.05-1.35-2.1l.2.25q.75.8 2.05.8 1.15-.1 2-.85.95-.9 1-2.1l-.1-.55m6.85 38.75q.85-.1.25 3.1-1.2 3.9-4.25 1.25-2.2-2.25-1.45-2.3h.05l.2.25q.8.95 2.1 1.05 1.25 0 2.2-.75.85-.85.95-2.1l-.05-.5" fill="#470301" fill-rule="evenodd" transform="translate(-229.45 -158.8)"/><path d="M273.55 159.15h.9l.65-.05 1.3.05-1.5.1-.8.1h-.2l-.35-.2m-30.75 66.5-.1-.2.15.2h-.05" fill="#e3dcbf" fill-rule="evenodd" transform="translate(-229.45 -158.8)"/><path d="m293.6 181.2.05.1 1.8 1.75 2.8 5.45-5.7 1.35q1.45-4.5 1.05-8.65m-1.15 8.9 6.35-.1.6 4.15q.35 4.8-.95 9.6-5.5-2.5-12.1-3.55 3.1-3.55 5.1-7.55l1-2.55M286 200.6q6.2 2 11.7 5.2l-3 6.2q-2.4 4.3-6.1 4.5-4.8-.55-11.25-7.95 6 7.6 5.7 12.25-1.5 3.3-5.3 4.2l-5.55.15q-1.85-3.25-2.6-8.8.6 5.05.05 9.35l-2 .3q-4-.35-7.75-1.7l1.3-3.9-2.05 3.7q-7.05-1.9-11.9-6.15l-1.5-1.85q2.15-3 3.45-4.05 7.3 1.2 13.8.25 9.6-1.35 17.35-6.85 3.1-2.3 5.65-4.85m-8.7-36.55q-.35.4-.35.9-.05.3.2.6l.15.2.95.25q.45-.05.9-.45l.4-.85q0-.5-.4-.8-.35-.35-.85-.2-.6-.05-1 .35m-1.1 4-.45-.8-.15-.9q-.05-.5.2-.95.2-.75.8-1.35 1-1 2.5-1.05l1.35.1 1.1.55.75.95q-2.1 3.4-6.1 3.45m28.3 26.25q-.1-.55.2-1 .25-.8.9-1.4 1.2-1.05 2.95-1l1.45.2 1.35.75.9 1.05q-2.4 3.5-7.05 3.35-.4-.45-.5-.95-.3-.5-.2-1m1.95-2.3q-.45.35-.35.9-.1.35.2.65l.1.15 1.15.4q.55 0 1.05-.4l.45-.85q0-.6-.45-.9-.45-.4-1.05-.35-.7-.05-1.1.4m-17.05 37.4.95-.35.45-.8q-.05-.6-.45-.95t-.95-.35q-.65-.1-1.05.25t-.35.9q-.05.3.2.65l.15.2 1.05.45m-2.2 1.9q-.45-.5-.5-.95-.2-.5-.15-1-.05-.55.15-.95.2-.75.9-1.3 1.05-.9 2.7-.75l1.4.25 1.2.85.85 1.15q-2.2 3.15-6.55 2.7m-51.05-44.2q-.35-.4-.4-.75l-.1-.75q0-.5.15-.95.2-.75.7-1.2.85-.9 2.1-.9l1.1.2q.45.1.95.55l.6.95q-1.8 2.95-5.1 2.85m2.45-2.2.35-.7-.3-.75q-.35-.35-.75-.3-.5-.05-.75.3-.35.3-.35.8l.2.55.1.2q.2.3.75.35l.75-.45m9.15 26.9-2.1 2.4-1.6-3.3 3.7.9m-4.3 10.75.15.6.1.2q.3.35.8.4l.8-.3.35-.8-.35-.8q-.35-.4-.75-.35-.5-.05-.8.25-.35.25-.3.8m-.75 2.9q-.35-.45-.35-.8l-.15-.9q0-.5.15-.9.2-.7.75-1.15.9-.85 2.2-.75.5-.05 1.1.25.5.2 1.05.7l.65 1q-1.9 2.95-5.4 2.55" fill="#c06407" fill-rule="evenodd" transform="translate(-229.45 -158.8)"/><path d="m268.2 174.15 1.05-.3 3-.55.1.65q-3.8.4-7.8 2.75-5.1 2.95-7.55 7.3-2.5 4.3-.85 7.4 1.6 3.15 4.45 1.45 2.85-1.75 6.45-6.15 3.55-4.5 9.5-5.5 5.9-1 4.3-4.1-1.65-3.15-6.4-3.25h-1.3l.05-.65 2-.05q6.6.15 9.1 4.5t-5.65 5.75q-8.2 1.4-12.8 7.6-4.65 6.2-8.5 8.6-1.75 1.05-3.8.55-1.6 1.35-1.6 6.55-1-3.8-.25-7.95l-.7-1.15q-2.5-4.35.65-10.35 2.45-4.8 7.35-8.4l-1.4-2.55q1 1.2 2.85 1.55.55-.4 1.2-.75 3.3-2 6.55-2.95m9.1-10.1q.4-.4 1-.35.5-.15.85.2.4.3.4.8l-.4.85q-.45.4-.9.45l-.95-.25-.15-.2q-.25-.3-.2-.6 0-.5.35-.9M272.7 177l-.1.85-.2-3.45.3 2.6m33.75 15q.4-.45 1.1-.4.6-.05 1.05.35.45.3.45.9l-.45.85q-.5.4-1.05.4l-1.15-.4-.1-.15q-.3-.3-.2-.65-.1-.55.35-.9m-17.05 37.4-1.05-.45-.15-.2q-.25-.35-.2-.65-.05-.55.35-.9t1.05-.25q.55 0 .95.35t.45.95l-.45.8-.95.35m-50.8-44.5-.75.45q-.55-.05-.75-.35l-.1-.2-.2-.55q0-.5.35-.8.25-.35.75-.3.4-.05.75.3l.3.75-.35.7m4.85 37.65q-.05-.55.3-.8.3-.3.8-.25.4-.05.75.35l.35.8-.35.8-.8.3q-.5-.05-.8-.4l-.1-.2-.15-.6" fill="#f2bf60" fill-rule="evenodd" transform="translate(-229.45 -158.8)"/><path d="m321.15 200.45-1.3 1.2-1.9-1.4v-.15l-3.95-.65 3.95-1.1v.05l3.1 1.95.1.1" fill="#5c5030" fill-rule="evenodd" transform="translate(-229.45 -158.8)"/><path d="m300.3 189.95-.25-.05.2-.15.05.2" fill="#baebd8" fill-rule="evenodd" transform="translate(-229.45 -158.8)"/><path d="M321.15 200.2v.25l-.1-.1.1-.15m-43.65 40.6-1.6-.05 1.6-.1v.15" fill="#98844e" fill-rule="evenodd" transform="translate(-229.45 -158.8)"/><path d="M37.6 1.05 37.55.9q-8.35 1.15-15.3 4.95m-.1.05-1.1.65Q16 9.55 11.7 14l-1.75 1.9-2.1 2.6q-1.4 1.75-2.45 3.7l-.9 1.65Q1.9 28.7 1 34.2l-.2 1.05q-.4 2.5-.45 5.35-.2 3.25.35 6.4l.35 2.25q.3 1.75.9 3.55Q3.3 57.35 6 61.55m31.6-60.5 3.15 1.05.15-1.55h.55l.8-.1 1.85-.1h.9l.65-.05 1.3.05h1.25l.65-.05 2.55.1q4.25.25 8.2 1.3m.25.05 2.35.65q4.4 1.4 8.55 3.8 2.85 1.7 5.7 4 15.1 12.1 15.25 30.7v.5m-.05 2.4q-.9 13.3-10 23.2-2.4 2.6-5.4 5-12.5 9.85-28.2 10l-1.6-.05-1.6.05-5.45-.25-7.7-1.35-.95-.25q-2.45-.7-4.7-1.6l.4-1.3-2.95.1-.1-.05q-7.25-3.55-12.8-9.75L7.85 64.2 9.3 63 6 61.55M44.1.35l.35.2h.2l.8-.1 1.5-.1L48.2.4l.65.05" fill="none" stroke="#000" stroke-linecap="round" stroke-linejoin="round" stroke-opacity=".702" stroke-width=".6"/><path d="m46.75 9.25-.45-.8-.15-.9q-.05-.5.2-.95.2-.75.8-1.35 1-1 2.5-1.05l1.35.1 1.1.55.75.95m22.2 29.7q-.1-.55.2-1 .25-.8.9-1.4 1.2-1.05 2.95-1l1.45.2 1.35.75.9 1.05M57.75 72.5q-.45-.5-.5-.95-.2-.5-.15-1-.05-.55.15-.95.2-.75.9-1.3 1.05-.9 2.7-.75l1.4.25 1.2.85.85 1.15M6.7 28.3q-.35-.4-.4-.75l-.1-.75q0-.5.15-.95.2-.75.7-1.2.85-.9 2.1-.9l1.1.2q.45.1.95.55l.6.95m1.45 41.2q-.35-.45-.35-.8l-.15-.9q0-.5.15-.9.2-.7.75-1.15.9-.85 2.2-.75.5-.05 1.1.25.5.2 1.05.7l.65 1" fill="none" stroke="#eeedd1" stroke-linecap="round" stroke-linejoin="round" stroke-width=".2"/><path d="m46.9 9.45-.15-.2m6.1-3.45.25.5m-6.2 3.15.2.25q1.05.8 2.45.8 1.45-.2 2.55-1.15 1.05-1 1.1-2.25l-.1-.55M82.8 34.1l.2.5m-7.1 3.05-.15-.2q-.4-.45-.5-.95-.3-.5-.2-1m7.95-.65.1.6q0 1.4-1.2 2.45-1.25.95-2.8 1-1.75-.05-2.95-1l-.25-.25M64.3 69.8l.2.5m-6.6 2.4-.15-.2m6.75-1.95.1.6q-.05 1.3-1.15 2.25-1.1.85-2.65.75Q59.2 74 58.15 73l-.25-.3M11.8 25.45l.15.35M6.8 28.5l-.1-.2m5.25-2.25.1.55q-.05 1.2-1 2.1-.85.75-2 .85-1.3 0-2.05-.8l-.2-.25m11.85 35.6.15.5m0 .2.05.5q-.1 1.25-.95 2.1-.95.75-2.2.75-1.3-.1-2.1-1.05l-.2-.25-.15-.2" fill="none" stroke="#000" stroke-linecap="round" stroke-linejoin="round" stroke-opacity=".502" stroke-width=".2"/><path d="m15.35 56-.2-.35m-.95-1.5q-.75-1.3-1.2-2.55m-.1-.2q-1.95-4.9-1.8-10.5.2-11.05 8.35-19.1 2-2 4.2-3.55M38.6 12.8l1.35-.05v-.05M17.8 59.15l.95 1.05q4.3 4.55 9.85 7 .5.25.85 1.15m41.4-37.2-.25-.05.2-.15-.7-1.55-.05-.15q-1.9-3.85-4.95-6.9l-.6-.6-.5-.55-.85-.7-.55-.5q-9.65-8.15-22.5-7.3l-.15.05m30.85 18.2.05.2M24.75 17.5l-1.1.75M15.1 55.6l-.8-1.35m2 3.05-.95-1.3m2.45 3.15-1.5-1.85m22.3-44.5q-7.75.8-13.85 4.7" fill="none" stroke="#000" stroke-linecap="round" stroke-linejoin="round" stroke-opacity=".6" stroke-width=".5"/><path d="M67.25 14.95 65.8 13.8l-.45-.3-1.45-.95q-3.15-1.95-6.8-3m-23.15 66.8q5.7 1.3 11.75.75m-12.85-1 1.1.25m-1.1-.25-3.15-1m25.4-2q-8.3 3-17 1.7m-25.5-51q3.2-5 7.5-6.9M82.85 26q-2.2-6-8-11m-7.6-.05q4.3 3.65 7.4 9.3" fill="none" stroke="#eb9327" stroke-linecap="round" stroke-linejoin="round" stroke-width=".2"/><path d="M91.7 41.4v.25M62.6 3.75l-2.3-.9m2.3.9q2.5 1.05 4.95 2.45 2.85 1.7 5.7 4l3 2.6 1.15 1.15q10.5 10.6 11.1 25.6v.05l3.1 1.95.1.1M48.85.45Q54.8.9 60.3 2.85M79.7 65.6q8.65-10.35 8.8-24.15v-.15l-3.95-.65 3.95-1.1m-10.1 27.5 1.3-1.45m8.8-24.15 1.9 1.4m-12 24.2L73.05 72q-11.25 8.85-25 9.85l-1.6.1" fill="none" stroke="#000" stroke-linecap="round" stroke-linejoin="round" stroke-opacity=".502" stroke-width=".3"/><path d="m29.45 68.35 2.05.4 2.05.35 5.8.7q13.05.85 23-7.35Q69.2 56.6 71.55 49" fill="none" stroke="#f2bf60" stroke-linecap="round" stroke-linejoin="round" stroke-width=".8"/><path d="m91.7 41.65-1.3 1.2 1.25.95" fill="none" stroke="#000" stroke-linecap="round" stroke-linejoin="round" stroke-width=".8"/></g><g id="b" fill-opacity=".396" fill-rule="evenodd"><path d="M9.15 0 14 2.5l.05 6.15-3.75.45-3.4-5.75L9.15 0" fill="#a58b5a"/><path d="m0 10.85 5.65-2L1.5 13.9 0 10.85" fill="#c2b192"/><path d="m11.05 17.1-2.9.6.4-4.25 2.25 1.25.25 2.4" fill="#baa681"/></g></defs></svg>