<svg viewBox="0 0 92 98.964" xmlns="http://www.w3.org/2000/svg" xmlns:xlink="http://www.w3.org/1999/xlink"><use transform="translate(.025 .039)" width="91.95" height="98.9" xlink:href="#a"/><defs><g id="a"><path d="M5.1-37.85Q3.85-39.3 5-41.3q.85-1.45 2.75-1.7 2.5-.35 5 .65t3.65 3.05q1.15 2.1 1.15 4.5.1 1.7-.6 3.05 1.4 1.8.4 4.2L16-25.15Q15.8-2.9-1.1 15.25q-.65.6-.05-.05l-4.65 4.65-.25.2-.4-.1-.25.1q-1.4.5-1.1-1.15.25-2.25 1.35-4.45l1.8-3.9.2-.25q11-13.1 12.8-24.7l.25-2.2q2.75-4.1 1.25-8.25L7.8-23.2h-.1l.15.1-.1.05q-.55.95.2 1.65-.9.6-2.1 0-2.2-1.15-1.9-3.6v-.05l-.05-.15q.25-2.25 1.75-4.1.65.4.9 1.15.35 1.2-.2 2.1l.85-1.6q.45-1.1 1.6-1.2L7.15-30.7Q6.2-31.75 7-32.75l-1-.5q-1.15-.55-2.25-.7-1.1-.25-2.1 0l-.15.05-2 .75-.45.5 2.3.7q1.25.3 2.35.9l-1.45 1.6q-.85.65-1.4 1.7l-.9 2.1-.55 2.3q-.15.65.1 1.35l1.7-1.8 1.9-1.1.75-.15.1.05q-4.05 1.45-2.3 3.65l1.3.25q-1.3 1.55-3.6.05-2.3-1.45-2.7-3.75-.55-2.4.8-4.45l.7-.8q1.35-1.2 3.4-.6-2.75-2.25-3.8.4l-1.4-.8Q-5.9-32.5-4-35.1q1.85-2.75 4.5-3.45l2.05-.2q1.25.5 2.1 1.3l2.3 2.15q1.4 1.35 2.3 1.25l1.6-.3q.65-.25.1-1.45l-2-4q.1 1.5-.25 1.75-.7 2.25-2.85.9l-.75-.7m11.7 6.3.15-.2-.15.2-.75 1.05-1.35 1.2-1.55 1.15.85.05q2.4.35 2.75-1l.05-2.45" fill="#fbeef2" fill-rule="evenodd" transform="translate(45.95 49.45)"/><path d="m5.1-37.85.75.7Q8-35.8 8.7-38.05q.35-.25.25-1.75l2 4q.55 1.2-.1 1.45l-1.6.3q-.9.1-2.3-1.25l-2.3-2.15q-.85-.8-2.1-1.3 1.4.1 2.55.9m-1.25 12.8-.75.15-1.9 1.1L-.5-22q-.25-.7-.1-1.35l.55-2.3.9-2.1q.55-1.05 1.4-1.7l1.45-1.6q-1.1-.6-2.35-.9l-2.3-.7.45-.5 2-.75.15-.05q1-.25 2.1 0 1.1.15 2.25.7l1 .5q-.8 1 .15 2.05l1.65 1.85q-1.15.1-1.6 1.2l-.85 1.6q.55-.9.2-2.1-.25-.75-.9-1.15-1.5 1.85-1.75 4.1l.05.15h-.1M7.8-23.2l2.05-1.65q1.5 4.15-1.25 8.25l.1-2.85-.1 2.85-.35 2.15.45-5-.2-3.15-.45-.3-.2-.2-.05-.1M-4.65 10.55l-1.8 3.9q-1.1 2.2-1.35 4.45-.3 1.65 1.1 1.15l.25-.1.4.1q-3.4 3.25-6.95 5.9L-15.75 24q-.6-.55-1.25-.9l4.35-4v-.05q4.4-4.35 8-8.5m21.45-42.1-.05 2.45q-.35 1.35-2.75 1l-.85-.05 1.55-1.15 1.35-1.2.75-1.05" fill="#f0bdcc" fill-rule="evenodd" transform="translate(45.95 49.45)"/><path d="M62.9 17.7q.7-1.35.6-3.05 0-2.4-1.15-4.5Q61.2 8.1 58.7 7.1t-5-.65q-1.9.25-2.75 1.7-1.15 2 .1 3.45l.75.7q2.15 1.35 2.85-.9m-6.15-.7-2.05.2q-2.65.7-4.5 3.45-1.9 2.6.35 4.05l1.4.8q1.05-2.65 3.8-.4-2.05-.6-3.4.6l-.7.8q-1.35 2.05-.8 4.45.4 2.3 2.7 3.75 2.3 1.5 3.6-.05l-1.3-.25q-1.75-2.2 2.3-3.65-.3 2.45 1.9 3.6 1.2.6 2.1 0-.75-.7-.2-1.65l.1-.05m-2.2-6.2q-1.5 1.85-1.75 4.1l.05.15v.05m-8.4 35.3-.2.25m-1.4 9.5.25-.2 4.65-4.65m.05.05q16.9-18.15 17.1-40.4l1.35-2.4q1-2.4-.4-4.2l-.15.2M62 18.95l.75-1.05m-11.7-6.3q-1.15-.8-2.55-.9m-4.8 8.5.4.2m10.35 7.45-.45-.3-.3-.15M28.95 72.55q.65.35 1.25.9l2.75 1.95q3.55-2.65 6.95-5.9" fill="none" stroke="#c47198" stroke-linecap="round" stroke-linejoin="round" stroke-width=".05"/><path d="m54.55 32.85-.25 2.2q-1.8 11.6-12.8 24.7M54.65 30l-.1 2.85m.1-2.85-.2-3.15M33.3 68.55l-4.35 4M41.3 60q-3.6 4.15-8 8.5" fill="none" stroke="#c47198" stroke-linecap="round" stroke-linejoin="round" stroke-width=".05"/><path d="M-8.15-16.25q-1-.9-.3-2.25.4-.95 1.8-1.2l3.7.25q1.85.55 2.9 1.85t1.3 2.8q.25 1.15-.15 2.05 1.2 1.1.65 2.65L1-8.45Q3 5.8-7.55 18.05q-.35.45 0-.05l-2.95 3.25-.15.1-.35-.1-.15.15q-.95.3-.9-.75 0-1.45.55-2.9l.95-2.6.15-.15q6.7-8.8 6.95-16.3l-.05-1.45q1.55-2.75.1-5.35l-1.35 1.2h-.05.1l-.1.05q-.3.65.35 1.05L-6-5.75q-1.7-.65-1.75-2.2v-.15q0-1.45.85-2.7l.8.75q.3.75.05 1.35l.45-1.1q.25-.7 1.05-.8l-1.4-1.1q-.8-.7-.25-1.4l-.8-.25-1.7-.4-1.55.1-.1.05-1.35.55-.3.35 1.75.35 1.75.55-.9 1.05-.8 1.1-.5 1.45-.15 1.45.2.85 1.05-1.15 1.3-.8.5-.15.05.05q-2.8 1.05-1.3 2.4l1 .1q-.8 1.1-2.6.2T-13-7.55q-.6-1.55.15-2.9l.45-.6q.85-.7 2.4-.45-2.2-1.35-2.7.4l-1.1-.45q-1.75-.85-.65-2.6 1.1-1.8 2.95-2.4l1.5-.15q.95.25 1.6.75l1.9 1.3q1.15.8 1.75.7l1.15-.25q.45-.2-.1-.95l-1.8-2.5q.25.95 0 1.1-.3 1.5-1.95.7l-.7-.4M1-12.6l.1-.15-.1.15-.45.7-.85.75-1.05.8.65.05q1.8.15 1.85-.75L1-12.6" fill="#fbeef2" fill-rule="evenodd" transform="translate(45.95 49.45)"/><path d="m-8.15-16.25.7.4q1.65.8 1.95-.7.25-.15 0-1.1l1.8 2.5q.55.75.1.95l-1.15.25q-.6.1-1.75-.7l-1.9-1.3q-.65-.5-1.6-.75 1 0 1.85.45M-7.8-8l-.5.15-1.3.8-1.05 1.15-.2-.85.15-1.45.5-1.45.8-1.1.9-1.05-1.75-.55-1.75-.35.3-.35 1.35-.55.1-.05 1.55-.1 1.7.4.8.25q-.55.7.25 1.4l1.4 1.1q-.8.1-1.05.8l-.45 1.1q.25-.6-.05-1.35l-.8-.75q-.85 1.25-.85 2.7v.1h-.05m3.05 1.1 1.35-1.2q1.45 2.6-.1 5.35l-.25-1.8.25 1.8-.05 1.4-.2-3.2-.45-2.05-.35-.2-.15-.1h-.05m-5.8 22.05-.95 2.6q-.55 1.45-.55 2.9-.05 1.05.9.75l.15-.15.35.1-4.5 4q-1.15-.45-2.2-1.1l-1-.6 2.75-2.7.05-.05 5-5.75M1-12.6l.15 1.55q-.05.9-1.85.75l-.65-.05 1.05-.8.85-.75.45-.7" fill="#f0bdcc" fill-rule="evenodd" transform="translate(45.95 49.45)"/><path d="M47.05 36.7q.4-.9.15-2.05-.25-1.5-1.3-2.8T43 30l-3.7-.25q-1.4.25-1.8 1.2-.7 1.35.3 2.25l.7.4q1.65.8 1.95-.7m-4.5-.15-1.5.15q-1.85.6-2.95 2.4-1.1 1.75.65 2.6l1.1.45q.5-1.75 2.7-.4-1.55-.25-2.4.45l-.45.6q-.75 1.35-.15 2.9.55 1.4 2.35 2.3t2.6-.2l-1-.1q-1.5-1.35 1.3-2.4.05 1.55 1.75 2.2l1.55-.05q-.65-.4-.35-1.05l.1-.05m-2.2-3.9q-.85 1.25-.85 2.7v.15m-2.65 22.95-.15.15m-.1 6.2.15-.1 2.95-3.25m0 .05Q48.95 55.25 46.95 41l.75-1.65q.55-1.55-.65-2.65l-.1.15m-.45.7.45-.7M37.8 33.2q-.85-.45-1.85-.45m-2.7 5.6.3.05m8.2 4.45-.35-.2-.25-.05M27.6 73.1l1 .6q1.05.65 2.2 1.1l4.5-4" fill="none" stroke="#c47198" stroke-linecap="round" stroke-linejoin="round" stroke-width=".05"/><path d="m42.45 46.7.05 1.45q-.25 7.5-6.95 16.3M42.2 44.9l.25 1.8m-.25-1.8-.45-2.05M30.35 70.4l-2.75 2.7m7.8-8.5-5 5.75" fill="none" stroke="#c47198" stroke-linecap="round" stroke-linejoin="round" stroke-width=".05"/><path d="M28.1-43.95q-.9-2.05 1.1-4.2 1.45-1.45 3.75-1.3 2.9.25 5.4 2.1 2.5 1.8 3.05 4.6.6 2.8-.15 5.65-.55 2.05-1.85 3.5 1 2.5-1 5.1l-2.35 2.55q-8 26.5-33.3 43.85-1 .55-.05-.15l-6.95 4.45-.3.15-.5-.25-.3.05q-1.7.25-.8-1.7 1.1-2.55 3.1-4.95L.3 11.3l.35-.2q17-12.8 23.05-26.25l1.05-2.55q4.5-4.2 4.25-9.5-1.85 1.1-2.95 1.5l-.05-.05.1.1-.15.05q-.95 1-.3 2-1.25.5-2.35-.55-2.15-1.95-1-4.8l.05-.05.05-.15q1.1-2.6 3.4-4.45.55.7.6 1.65 0 1.45-.9 2.45l1.5-1.75q.9-1.15 2.2-1L28-34.9q-.8-1.55.55-2.5l-.95-.85-2.35-1.45-2.4-.55-.2.1-2.5.4-.7.4 2.35 1.5q1.35.65 2.35 1.7-1 .8-2.2 1.45l-2.1 1.7-1.8 2.35q-1 1.25-1.4 2.5-.4.8-.35 1.65l2.55-1.65 2.5-.8h.95q-5.05.7-3.8 3.8.15.5 1.4.6-2.05 1.6-4.1-.85-2.1-2.35-1.8-5.15.25-3 2.45-5.1l1.15-.8q1.9-1.05 4 .2-2.35-3.4-4.45-.5l-1.35-1.3q-2-2.35 1.05-5 3.05-2.7 6.3-2.9l2.45.3q1.2.85 1.85 2.05l1.9 3.2q1.15 1.9 2.15 2.1h1.9q.8-.15.6-1.7l-.9-5.3q-.3 1.8-.8 2.05-1.65 2.5-3.6.3-.45-.5-.6-1M39.15-33.4l.25-.2-.25.2L38-32.35l-1.95 1.05-2.2 1 1 .3q2.65 1 3.4-.55.7-1.5.9-2.85" fill="#fbeef2" fill-rule="evenodd" transform="translate(45.95 49.45)"/><path d="M28.1-43.95q.15.5.6 1 1.95 2.2 3.6-.3.5-.25.8-2.05L34-40q.2 1.55-.6 1.7h-1.9q-1-.2-2.15-2.1l-1.9-3.2q-.65-1.2-1.85-2.05 1.5.4 2.5 1.7m-5.85 15h-.9l-2.5.8-2.55 1.65q-.05-.85.35-1.65.4-1.25 1.4-2.5l1.8-2.35 2.1-1.7q1.2-.65 2.2-1.45-1-1.05-2.35-1.7l-2.35-1.5.7-.4 2.5-.4.2-.1 2.4.55 2.35 1.45.95.85q-1.35.95-.55 2.5l1.2 2.65q-1.3-.15-2.2 1l-1.5 1.75q.9-1 .9-2.45-.05-.95-.6-1.65-2.3 1.85-3.4 4.45l-.05.15-.1.05m3.8 3.25q1.1-.4 2.95-1.5.25 5.3-4.25 9.5l1.05-3.35-1.05 3.35-1.15 2.45 2.2-5.8.85-3.8-.4-.55-.15-.25-.05-.05M.3 11.3l-3.35 4.2q-2 2.4-3.1 4.95-.9 1.95.8 1.7l.3-.05.5.25q-5 2.9-9.9 5.2-1.45-1.35-2.5-3.05l-1.1-1.4 6.35-3.6.05-.1q6.5-4.05 11.95-8.1m38.85-44.7q-.2 1.35-.9 2.85-.75 1.55-3.4.55l-1-.3 2.2-1L38-32.35l1.15-1.05" fill="#f0bdcc" fill-rule="evenodd" transform="translate(45.95 49.45)"/><path d="M85.35 15.85q1.3-1.45 1.85-3.5.75-2.85.15-5.65-.55-2.8-3.05-4.6Q81.8.25 78.9 0q-2.3-.15-3.75 1.3-2 2.15-1.1 4.2.15.5.6 1 1.95 2.2 3.6-.3m-6.7-2.4-2.45-.3q-3.25.2-6.3 2.9-3.05 2.65-1.05 5l1.35 1.3q2.1-2.9 4.45.5-2.1-1.25-4-.2l-1.15.8q-2.2 2.1-2.45 5.1-.3 2.8 1.8 5.15 2.05 2.45 4.1.85-1.25-.1-1.4-.6-1.25-3.1 3.8-3.8-1.15 2.85 1 4.8 1.1 1.05 2.35.55-.65-1 .3-2l.15-.05m-.3-7.95q-2.3 1.85-3.4 4.45l-.05.15-.05.05M46.6 60.55l-.35.2M41.4 71.8l.3-.15 6.95-4.45m.05.15Q74 50 82 23.5l2.35-2.55q2-2.6 1-5.1l-.25.2m-1.15 1.05 1.15-1.05M74.05 5.5q-1-1.3-2.5-1.7m-8.45 8.9.45.3m9.05 11.6-.4-.55-.3-.2m-44 48.7 1.1 1.4q1.05 1.7 2.5 3.05 4.9-2.3 9.9-5.2" fill="none" stroke="#c47198" stroke-linecap="round" stroke-linejoin="round" stroke-width=".05"/><path d="m70.7 31.75-1.05 2.55Q63.6 47.75 46.6 60.55M71.75 28.4l-1.05 3.35m1.05-3.35.85-3.8M34.25 68.95l-6.35 3.6m18.35-11.8q-5.45 4.05-11.95 8.1" fill="none" stroke="#c47198" stroke-linecap="round" stroke-linejoin="round" stroke-width=".05"/><path d="M-1.6-5.8q-.5-.85.25-1.8.55-.65 1.5-.65 1.3 0 2.5.7t1.65 1.8q.4 1.15.25 2.4-.1.9-.55 1.5.6 1.05-.15 2.2L3 1.5Q1.2 12.8-8.75 20.9q-.4.25 0-.1l-2.8 2.1-.1.05-.2-.1-.15.05q-.7.1-.45-.65l1.05-2.2 1.2-1.85.15-.1Q-3.5 12.2-1.7 6.4l.3-1.1Q.35 3.4-.15 1.15l-1.15.7h-.05v.1-.05q-.35.45 0 .9l-1.1-.15q-1-.8-.7-2v-.1Q-2.85-.6-1.9-1.4q.25.25.35.65Q-1.5-.1-1.8.3l.55-.75Q-1-1-.4-.95L-1.05-2q-.45-.65.05-1.1l-.45-.3-1.1-.55-1.1-.15-.05.05-1.05.25-.25.2 1.05.5q.65.25 1.15.7l-.9.65-.8.8-.6 1-.5 1.1v.7l1-.75 1-.4.45-.05q-2.15.45-1.4 1.7.05.2.65.25-.8.65-1.9-.25-1.05-.95-1.05-2.1Q-6.95-1-6.1-2l.4-.35 1.8-.05-2-.05-.65-.5Q-7.6-3.9-6.4-5.1q1.15-1.25 2.55-1.4l1.05.1.95.75 1.05 1.3q.6.8 1.05.75h.8q.35-.1.2-.75L.5-6.55q0 .75-.2.9-.55 1.1-1.5.2l-.4-.35m5.45 4.1L4-1.85l-.6.6-.75.5-.9.5.45.1q1.2.3 1.45-.35l.2-1.2" fill="#fbeef2" fill-rule="evenodd" transform="translate(45.95 49.45)"/><path d="m-1.6-5.8.4.35q.95.9 1.5-.2.2-.15.2-.9l.75 2.2q.15.65-.2.75h-.8q-.45.05-1.05-.75l-1.05-1.3-.95-.75q.7.1 1.2.6M-3.15.65-3.6.7l-1 .4-1 .75v-.7l.5-1.1.6-1 .8-.8.9-.65q-.5-.45-1.15-.7L-5-3.6l.25-.2 1.05-.25.05-.05 1.1.15 1.1.55.45.3q-.5.45-.05 1.1L-.4-.95q-.6-.05-.85.5L-1.8.3q.3-.4.25-1.05-.1-.4-.35-.65-.95.8-1.25 1.95v.1m1.85 1.2 1.15-.7Q.35 3.4-1.4 5.3l.25-1.45-.25 1.45-.35 1.1.6-2.55.1-1.6L-1.2 2l-.15-.05.05-.1m-8.9 16.35-1.2 1.85-1.05 2.2q-.25.75.45.65l.15-.05.2.1-3.95 2.5-1.25-1.2-.6-.6 2.5-1.65.05-.05 4.7-3.75M3.85-1.7l-.2 1.2Q3.4.15 2.2-.15l-.45-.1.9-.5.75-.5.45-.45" fill="#f0bdcc" fill-rule="evenodd" transform="translate(45.95 49.45)"/><path d="M49.95 47.6q.45-.6.55-1.5.15-1.25-.25-2.4-.45-1.1-1.65-1.8t-2.5-.7q-.95 0-1.5.65-.75.95-.25 1.8l.4.35q.95.9 1.5-.2m-3.1-.75-1.05-.1q-1.4.15-2.55 1.4-1.2 1.2-.15 2.15l.65.5 2 .05-1.8.05-.4.35q-.85 1-.75 2.25 0 1.15 1.05 2.1 1.1.9 1.9.25-.6-.05-.65-.25-.75-1.25 1.4-1.7-.3 1.2.7 2l1.1.15q-.35-.45 0-.9v.05m-.55-3.35q-.95.8-1.25 1.95v.1m-6.9 17.45-.15.1M34.3 72.4l.1-.05 2.8-2.1m0 .1q9.95-8.1 11.75-19.4l.85-1.15q.75-1.15.15-2.2l-.15.15m-.45.45.45-.45m-5.45-4.1q-.5-.5-1.2-.6M40.05 47l.2.1m4.65 4.6-.15-.25-.15-.1M28.5 73.1l.6.6 1.25 1.2 3.95-2.5" fill="none" stroke="#c47198" stroke-linecap="round" stroke-linejoin="round" stroke-width=".05"/><path d="m44.55 54.75-.3 1.1q-1.8 5.8-8.35 11.7m8.9-14.25-.25 1.45m.25-1.45.1-1.6M31 71.45l-2.5 1.65m7.25-5.45-4.7 3.75" fill="none" stroke="#c47198" stroke-linecap="round" stroke-linejoin="round" stroke-width=".05"/><path d="M6.65-23.35q-.85-1.2.3-2.75.75-1.1 2.25-1.25 1.95-.1 3.8.85 1.75.95 2.4 2.65.7 1.85.5 3.7-.15 1.4-.85 2.45.95 1.55-.1 3.4l-1.25 1.85q-2.4 17.9-17.1 31.5-.55.45 0-.05l-4.05 3.45-.2.2-.3-.15-.25.1q-1.05.3-.7-1.05.45-1.75 1.5-3.45l1.75-3.05.2-.15Q4.25 5 6.8-4.3L7.2-6Q9.75-9.2 9-12.6l-1.8 1.25h-.05l.1.05-.1.05q-.45.75.05 1.3l-1.6-.1q-1.6-1.05-1.15-3v-.15Q4.9-15 6.2-16.4l.6 1q.15.95-.35 1.7l.8-1.3q.5-.85 1.3-.85l-1.05-1.6q-.6-.9.1-1.65l-.7-.5-1.7-.7-1.55-.1-.15.05-1.6.5-.35.35 1.65.7q.95.35 1.7.9l-1.3 1.15-1.2 1.3-.95 1.65Q1-12.85.85-12q-.15.55-.05 1.1l1.45-1.35 1.55-.7.6-.1h.05q-3.25.9-2.1 2.85.2.25.95.2l-2.7-.1q-1.65-1.35-1.75-3.2-.15-1.95 1.05-3.5l.7-.65q1.1-.85 2.6-.3-1.85-1.95-2.95.15l-.95-.7q-1.6-1.35.1-3.35 1.65-2.05 3.8-2.45l1.6-.05L6.25-23l1.55 1.9q.95 1.1 1.6 1.15l1.3-.2q.5-.2.25-1.2l-1.15-3.3q-.05 1.2-.4 1.4-.75 1.8-2.25.55l-.5-.65m8.3 5.8.1-.15-.1.15-.65.8-1.2.85q-.6.5-1.3.85l.7.15q1.8.4 2.15-.7.35-1.05.3-1.95" fill="#fbeef2" fill-rule="evenodd" transform="translate(45.95 49.45)"/><path d="m6.65-23.35.5.65q1.5 1.25 2.25-.55.35-.2.4-1.4l1.15 3.3q.25 1-.25 1.2l-1.3.2Q8.75-20 7.8-21.1L6.25-23 4.8-24.15q1.05.15 1.85.8M4.4-13.05l-.6.1-1.55.7L.8-10.9q-.1-.55.05-1.1.15-.85.6-1.8l.95-1.65 1.2-1.3 1.3-1.15q-.75-.55-1.7-.9l-1.65-.7.35-.35 1.6-.5.15-.05 1.55.1 1.7.7.7.5q-.7.75-.1 1.65l1.05 1.6q-.8 0-1.3.85l-.8 1.3q.5-.75.35-1.7l-.6-1Q4.9-15 4.45-13.2v.1l-.05.05m2.8 1.7L9-12.6Q9.75-9.2 7.2-6l.35-2.25L7.2-6l-.45 1.65.8-3.9.15-2.55-.3-.35-.2-.2m-12.85 26.4L-7.4 18.1q-1.05 1.7-1.5 3.45-.35 1.35.7 1.05l.25-.1.3.15-5.9 4.3-1.95-1.7-.85-.85 3.7-2.95v-.05l7-6.35m20.6-32.6q.05.9-.3 1.95-.35 1.1-2.15.7l-.7-.15q.7-.35 1.3-.85l1.2-.85.65-.8" fill="#f0bdcc" fill-rule="evenodd" transform="translate(45.95 49.45)"/><path d="M61 31.75q.7-1.05.85-2.45.2-1.85-.5-3.7-.65-1.7-2.4-2.65-1.85-.95-3.8-.85-1.5.15-2.25 1.25-1.15 1.55-.3 2.75l.5.65q1.5 1.25 2.25-.55m-4.6-.9-1.6.05q-2.15.4-3.8 2.45-1.7 2-.1 3.35l.95.7q1.1-2.1 2.95-.15-1.5-.55-2.6.3l-.7.65q-1.2 1.55-1.05 3.5.1 1.85 1.75 3.2l2.7.1q-.75.05-.95-.2-1.15-1.95 2.1-2.85-.45 1.95 1.15 3l1.6.1q-.5-.55-.05-1.3l.1-.05m-1.05-5.1q-1.3 1.4-1.75 3.2v.15m-9.9 27.95-.2.15m-2 7.6.2-.2 4.05-3.45m0 .05q14.7-13.6 17.1-31.5l1.25-1.85q1.05-1.85.1-3.4l-.1.15m-.65.8.65-.8m-8.3-5.8q-.8-.65-1.85-.8m-4.55 6.55.35.15m7.1 6.65-.3-.35-.25-.1M29.6 73.85l.85.85 1.95 1.7 5.9-4.3" fill="none" stroke="#c47198" stroke-linecap="round" stroke-linejoin="round" stroke-width=".05"/><path d="m53.15 43.45-.4 1.7q-2.55 9.3-12.25 19.2m13-23.15-.35 2.25m.35-2.25.15-2.55M33.3 70.9l-3.7 2.95m10.7-9.35-7 6.35" fill="none" stroke="#c47198" stroke-linecap="round" stroke-linejoin="round" stroke-width=".05"/><path d="M26.95-15.7q-4.9 0-3.75 3.05.25.55 1.4.8-2 1.2-4-1.35-2.1-2.6-1.8-5.1.25-2.85 2.45-4.45l1.15-.65q1.75-.65 3.9.75-2.25-3.6-4.35-1.15l-1.3-1.35q-1.95-2.5 1.05-4.6 2.95-2.2 6.15-1.85l2.4.55q1.2 1.05 1.85 2.25l1.8 3.2q1.15 2 2.1 2.3l1.85.25q.85-.05.7-1.5l-.85-5.1q-.4 1.6-.85 1.75-1.6 2.2-3.5-.1-.5-.6-.65-1.15-.9-2 1.15-3.7 1.4-1.25 3.65-.8 2.85.65 5.3 2.75 2.4 2 3 4.7.5 2.8-.25 5.3-.5 1.85-1.8 3 1 2.5-.95 4.75-1.15 1.25-2.35 2Q32.55 12.9 7.6 25.8q-.85.45 0-.05L.8 28.9l-.3.15-.45-.3h-.3q-1.65-.05-.8-1.7Q0 24.75 2 22.8l3.35-3.5.3-.2Q22.3 9.35 28.3-2.5l1.1-2.25q4.4-3.4 4.2-8.4-1.85.75-2.95.9l-.05.05.1.1-.1.05q-1.05.8-.35 1.8-1.25.35-2.3-.8-2.05-2.1-1-4.65l.05-.05.05-.15q1.1-2.35 3.35-3.75.55.7.6 1.65-.05 1.4-.9 2.1l1.5-1.4q.85-1 2.15-.65l-1.2-2.65q-.75-1.55.6-2.2l-.95-.95-2.3-1.7q-1.1-.65-2.3-.8h-.2l-2.45.05-.7.35q1.15.95 2.3 1.65l2.3 1.9q-1.05.6-2.2 1.1-1.15.4-2.1 1.3l-1.75 2q-.95 1.05-1.4 2.15-.35.7-.3 1.5 1.1-.8 2.5-1.15l2.4-.45.95.1v.05m16.6-2 .2-.2-.2.2-1.2.8-1.9.75-2.1.65.9.45q2.6 1.3 3.3-.05.75-1.35 1-2.6" fill="#fbeef2" fill-rule="evenodd" transform="translate(45.95 49.45)"/><path d="m26.95-15.75-.95-.1-2.4.45q-1.4.35-2.5 1.15-.05-.8.3-1.5.45-1.1 1.4-2.15l1.75-2q.95-.9 2.1-1.3 1.15-.5 2.2-1.1l-2.3-1.9q-1.15-.7-2.3-1.65l.7-.35 2.45-.05h.2q1.2.15 2.3.8l2.3 1.7.95.95q-1.35.65-.6 2.2l1.2 2.65q-1.3-.35-2.15.65l-1.5 1.4q.85-.7.9-2.1-.05-.95-.6-1.65-2.25 1.4-3.35 3.75l-.05.15h-.05m3.7 3.5q1.1-.15 2.95-.9.2 5-4.2 8.4l1.05-3.05-1.05 3.05-1.25 2.15 2.3-5.2.8-3.55-.35-.5-.2-.25-.05-.15M5.35 19.3 2 22.8q-2 1.95-3.05 4.25-.85 1.65.8 1.7h.3l.45.3q-4.95 2.1-9.7 3.6-1.45-1.5-2.4-3.15l-1.15-1.5 6.2-2.65h.05Q-.05 22.4 5.35 19.3m38.2-37q-.25 1.25-1 2.6-.7 1.35-3.3.05l-.9-.45 2.1-.65 1.9-.75 1.2-.8M32.7-29.15q.15.55.65 1.15 1.9 2.3 3.5.1.45-.15.85-1.75l.85 5.1q.15 1.45-.7 1.5L36-23.3q-.95-.3-2.1-2.3l-1.8-3.2q-.65-1.2-1.85-2.25 1.45.65 2.45 1.9" fill="#f0bdcc" fill-rule="evenodd" transform="translate(45.95 49.45)"/><path d="m76.2 18.4-2.4-.55q-3.2-.35-6.15 1.85-3 2.1-1.05 4.6l1.3 1.35q2.1-2.45 4.35 1.15-2.15-1.4-3.9-.75l-1.15.65q-2.2 1.6-2.45 4.45-.3 2.5 1.8 5.1 2 2.55 4 1.35-1.15-.25-1.4-.8-1.15-3.05 3.75-3.05-1.05 2.55 1 4.65 1.05 1.15 2.3.8-.7-1 .35-1.8l.1-.05m-.3-7.55Q74.1 31.2 73 33.55l-.05.15-.05.05m-21.3 34.8-.3.2m-4.85 9.75.3-.15 6.8-3.15m0 .05Q78.5 62.35 86.4 38.3q1.2-.75 2.35-2 1.95-2.25.95-4.75l-.2.2m-1.2.8 1.2-.8m.2-.2q1.3-1.15 1.8-3 .75-2.5.25-5.3-.6-2.7-3-4.7-2.45-2.1-5.3-2.75-2.25-.45-3.65.8-2.05 1.7-1.15 3.7.15.55.65 1.15 1.9 2.3 3.5.1m-6.6-3.15q1.45.65 2.45 1.9m-1.8 17.3.35.5m-.35-.5-.3-.2M67.9 25.65l.45.4M33.2 77.45l1.15 1.5q.95 1.65 2.4 3.15 4.75-1.5 9.7-3.6" fill="none" stroke="#c47198" stroke-linecap="round" stroke-linejoin="round" stroke-width=".05"/><path d="m75.35 44.7-1.1 2.25q-6 11.85-22.65 21.6M77.2 38.1l-.8 3.55-1.05 3.05M39.4 74.8l-6.2 2.65m18.1-8.7q-5.4 3.1-11.85 6.05" fill="none" stroke="#c47198" stroke-linecap="round" stroke-linejoin="round" stroke-width=".05"/><path d="M17.15-16.9q-.7-1.4.7-2.75 1-1 2.65-.85 2.1.25 4 1.5 1.85 1.2 2.35 3.05t0 3.7q-.25 1.4-1.15 2.3.75 1.6-.55 3.3l-1.65 1.7Q18.55 12.4.7 23.45q-.65.35 0-.05-2.45 1.5-4.85 2.8l-.25.1-.35-.2-.2.1q-1.25.1-.7-1.15.75-1.7 2.1-3.25l2.3-2.7.25-.1q11.9-8.25 15.9-17l.7-1.65q3.1-2.7 2.8-6.25l-2.15.95v.1h-.05q-.65.6-.2 1.3-.9.3-1.7-.35-1.6-1.35-.85-3.2l.05-.05v-.05q.7-1.75 2.3-2.95.45.45.5 1.1.05 1-.6 1.65l1.05-1.2q.65-.7 1.55-.6l-.95-1.75q-.6-1 .3-1.65l-.7-.55-1.75-1-1.7-.4-.15.05-1.8.2q-.3.1-.5.35l1.7.95q1.05.5 1.8 1.2l-1.55.9q-.8.35-1.5 1.1l-1.2 1.5q-.7.8-.95 1.65-.25.55-.2 1.1.85-.65 1.8-1.1l1.75-.45h.75q-3.65.4-2.65 2.45.15.3 1.05.4-1.4 1-3-.6T7.4-8.25q.05-2 1.6-3.35l.75-.55 2.95.2q-1.8-2.25-3.25-.4l-.95-.85q-1.55-1.55.55-3.3t4.45-1.8l1.8.25 1.4 1.35 1.45 2.15q.9 1.25 1.6 1.4l1.45.05q.6-.15.35-1.15l-.8-3.5q-.2 1.2-.5 1.35-1.15 1.65-2.6.15l-.5-.65m8.35 7.05.2-.1-.2.1-.85.65-1.35.75q-.7.35-1.55.6l.7.2q2 .7 2.5-.3l.55-1.9" fill="#fbeef2" fill-rule="evenodd" transform="translate(45.95 49.45)"/><path d="m17.15-16.9.5.65q1.45 1.5 2.6-.15.3-.15.5-1.35l.8 3.5q.25 1-.35 1.15l-1.45-.05q-.7-.15-1.6-1.4L16.7-16.7l-1.4-1.35q1.1.3 1.85 1.15M13.4-7.1h-.7l-1.75.45q-.95.45-1.8 1.1-.05-.55.2-1.1.25-.85.95-1.65l1.2-1.5q.7-.75 1.5-1.1l1.55-.9q-.75-.7-1.8-1.2l-1.7-.95q.2-.25.5-.35l1.8-.2.15-.05 1.7.4 1.75 1 .7.55q-.9.65-.3 1.65l.95 1.75q-.9-.1-1.55.6L15.7-7.4q.65-.65.6-1.65-.05-.65-.5-1.1-1.6 1.2-2.3 2.95v.05l-.1.05m2.85 2.15 2.15-.95q.3 3.55-2.8 6.25l.65-2.25L15.6.35l-.8 1.6 1.45-3.85.45-2.45-.25-.35-.2-.15v-.1M-1.25 19.1l-2.3 2.7q-1.35 1.55-2.1 3.25-.55 1.25.7 1.15l.2-.1.35.2-7 3.35-1.9-2.1-.85-.95 4.5-2.3v-.05q4.6-2.6 8.4-5.15M25.5-9.85l-.55 1.9q-.5 1-2.5.3l-.7-.2q.85-.25 1.55-.6l1.35-.75.85-.65" fill="#f0bdcc" fill-rule="evenodd" transform="translate(45.95 49.45)"/><path d="M71.65 39.5q.9-.9 1.15-2.3.5-1.85 0-3.7t-2.35-3.05q-1.9-1.25-4-1.5-1.65-.15-2.65.85-1.4 1.35-.7 2.75l.5.65q1.45 1.5 2.6-.15m-4.95-1.65-1.8-.25q-2.35.05-4.45 1.8t-.55 3.3l.95.85q1.45-1.85 3.25.4l-2.95-.2-.75.55q-1.55 1.35-1.6 3.35-.15 1.8 1.45 3.4t3 .6q-.9-.1-1.05-.4-1-2.05 2.65-2.45-.75 1.85.85 3.2.8.65 1.7.35-.45-.7.2-1.3h.05m-.45-5.3q-1.6 1.2-2.3 2.95v.05l-.05.05m-14.45 26.1-.25.1m-3.15 7.2.25-.1q2.4-1.3 4.85-2.8m0 .05q17.85-11.05 22.8-28.4l1.65-1.7q1.3-1.7.55-3.3l-.2.1m-.85.65.85-.65m-8.35-7.05q-.75-.85-1.85-1.15m-5.85 5.7.3.2m6.95 7.8-.25-.35-.25-.15M31.8 76.05l.85.95 1.9 2.1 7-3.35" fill="none" stroke="#c47198" stroke-linecap="round" stroke-linejoin="round" stroke-width=".05"/><path d="m61.55 49.8-.7 1.65q-4 8.75-15.9 17m17.25-20.9-.65 2.25m.65-2.25.45-2.45M36.3 73.75l-4.5 2.3m12.9-7.5q-3.8 2.55-8.4 5.15" fill="none" stroke="#c47198" stroke-linecap="round" stroke-linejoin="round" stroke-width=".05"/><path d="M12.55 5.6q-.3-1.15.8-1.65l1.9.15q1.4.8 2.55 2.15Q18.85 7.65 19 9q.05 1.4-.5 2.55-.35.9-1.05 1.25.3 1.4-.85 2.1l-1.25.7q-5.5 10.45-18.85 13-.5.05 0-.1l-3.65.6-.15-.05-.2-.15-.2-.05q-.8-.3-.3-1 .7-.95 1.85-1.6l1.9-1.2h.15q9-2.25 12.8-7.1l.65-.95q2.5-1 2.65-3.5l-1.55.05.05.05-.1-.05q-.5.25-.25.9-.65 0-1.1-.75-.95-1.4-.2-2.45h.05v-.05q.7-1 1.9-1.3l.2.85q-.1.7-.6.95.4-.15.85-.5l1.15.05-.45-1.5q-.25-.85.45-1.05l-.45-.6-1-1.15L9.8 6.2h-.1q-.65-.25-1.25-.35l-.35.05 1 1.15 1.1 1.3-1.15.2q-.65 0-1.15.35-.55.3-1 .65l-.9.85q-.2.3-.25.7l1.35-.2 1.3.15.4.2h.05q-2.5-.75-2.1.95.05.3.65.6-1.1.25-1.95-1.3-.9-1.55-.55-2.75.35-1.3 1.5-1.85l.6-.1q.95-.05 1.95.95Q8 5.7 6.8 6.6l-.55-.9q-.85-1.55.8-2.05Q8.7 3 10.3 3.6l1.15.7q.55.7.75 1.35l.75 1.85.9 1.45.95.4q.4.1.4-.65l-.1-2.6-.55.75q-.95.8-1.7-.65l-.3-.6m4.75 7.25.15-.05-.15.05-.6.25-1 .05h-1.15l.45.35q1.2 1 1.7.5l.6-1.15" fill="#fbeef2" fill-rule="evenodd" transform="translate(45.95 49.45)"/><path d="m12.55 5.6.3.6q.75 1.45 1.7.65l.55-.75.1 2.6q0 .75-.4.65l-.95-.4-.9-1.45-.75-1.85Q12 5 11.45 4.3l1.1 1.3M8.8 11.25l-.4-.2-1.3-.15-1.35.2q.05-.4.25-.7l.9-.85q.45-.35 1-.65.5-.35 1.15-.35l1.15-.2-1.1-1.3-1-1.15.35-.05q.6.1 1.25.35h.1l1.15.75 1 1.15.45.6q-.7.2-.45 1.05l.45 1.5-1.15-.05q-.45.35-.85.5.5-.25.6-.95l-.2-.85q-1.2.3-1.9 1.3v.05h-.1m1.65 2.3L12 13.5Q11.85 16 9.35 17l.75-1.35L9.35 17l-.75.9 1.5-2.25.65-1.55-.2-.35-.05-.15-.05-.05m-14.7 11.5-1.9 1.2q-1.15.65-1.85 1.6-.5.7.3 1l.2.05.2.15-5.15.3-1-1.95-.5-.85 3.35-.35 6.35-1.15m21.55-12.2L16.7 14q-.5.5-1.7-.5l-.45-.35h1.15l1-.05.6-.25" fill="#f0bdcc" fill-rule="evenodd" transform="translate(45.95 49.45)"/><path d="M63.4 62.25q.7-.35 1.05-1.25.55-1.15.5-2.55-.15-1.35-1.2-2.75-1.15-1.35-2.55-2.15l-1.9-.15q-1.1.5-.8 1.65l.3.6q.75 1.45 1.7.65m-3.1-2.55-1.15-.7q-1.6-.6-3.25.05-1.65.5-.8 2.05l.55.9q1.2-.9 2.15 1.15-1-1-1.95-.95l-.6.1q-1.15.55-1.5 1.85-.35 1.2.55 2.75.85 1.55 1.95 1.3-.6-.3-.65-.6-.4-1.7 2.1-.95-.75 1.05.2 2.45.45.75 1.1.75-.25-.65.25-.9l.1.05m.3-3.7q-1.2.3-1.9 1.3v.05h-.05M41.85 74.5h-.15m-3.05 4 .15.05 3.65-.6m0 .1q13.35-2.55 18.85-13l1.25-.7q1.15-.7.85-2.1l-.15.05m-.6.25.6-.25m-4.75-7.25-1.1-1.3m-4.65 2.3.2.2m3.75 7.3-.2-.35-.15-.2M32 76l.5.85 1 1.95 5.15-.3" fill="none" stroke="#c47198" stroke-linecap="round" stroke-linejoin="round" stroke-width=".05"/><path d="m55.3 66.45-.65.95q-3.8 4.85-12.8 7.1m14.2-9.4-.75 1.35m.75-1.35.65-1.55m-21.35 12.1L32 76m9.7-1.5-6.35 1.15" fill="none" stroke="#c47198" stroke-linecap="round" stroke-linejoin="round" stroke-width=".05"/><path d="M-2.1 5.4q-.45-.7.2-1.35.45-.4 1.35-.25Q.6 4.1 1.7 4.85t1.45 1.7q.4 1 .3 1.95L3 9.6q.55.95-.05 1.7l-.8.75Q.8 20.7-7.95 25.2q-.3.15-.05 0l-2.4 1.15h-.1l-.2-.15-.1.05q-.65-.05-.45-.65l.9-1.5 1-1.25.15-.1q5.8-3.4 7.3-7.65l.2-.85q1.45-1.2 1.1-3.05l-1.1.4v-.05l.05.05h-.1q-.25.3.05.65-.5.15-.95-.3-1-.8-.7-1.7h.05l-.05-.05q.3-.85 1.05-1.35.25.25.35.6.1.5-.2.8l.45-.55.8-.2-.65-.95Q-1.9 8-1.5 7.7l-.4-.35q-.5-.35-1-.6l-.95-.3-.1-.05-.95.05-.2.1.95.6 1.05.75-.75.4q-.4.1-.7.45l-.55.65-.4.85v.5l.9-.4.9-.15.3.05h.05q-1.9-.05-1.25 1.1.1.2.55.3-.65.4-1.6-.55-1-.9-1-1.85-.1-1 .6-1.6l.4-.2Q-5 7.2-4.1 7.7q-1.15-1.3-1.75-.4l-.6-.5q-.9-.9.1-1.65 1-.8 2.2-.7l1 .3.85.8.95 1.15.95.85.75.1q.3 0 .15-.5L-.2 5.3q-.05.55-.2.6l-1.35-.05-.35-.45m5 4.25L3 9.6l-.1.05-.45.3-.65.25-.75.25.4.15q1.05.5 1.25 0l.2-.95" fill="#fbeef2" fill-rule="evenodd" transform="translate(45.95 49.45)"/><path d="m-2.1 5.4.35.45 1.35.05q.15-.05.2-.6l.7 1.85q.15.5-.15.5l-.75-.1-.95-.85-.95-1.15-.85-.8q.6.2 1.05.65m-1.3 4.85-.3-.05-.9.15-.9.4v-.5l.4-.85.55-.65q.3-.35.7-.45l.75-.4-1.05-.75-.95-.6.2-.1.95-.05.1.05.95.3q.5.25 1 .6l.4.35q-.4.3-.05.85l.65.95-.8.2-.45.55q.3-.3.2-.8-.1-.35-.35-.6-.75.5-1.05 1.35l.05.05h-.1m1.7 1.35 1.1-.4q.35 1.85-1.1 3.05l.2-1.1-.2 1.1-.25.8.45-1.9.1-1.25-.2-.2-.05-.1h-.05m-7.65 11.25-1 1.25-.9 1.5q-.2.6.45.65l.1-.05.2.15-3.45 1.25-1.7-1.7 2.2-.95h.05q2.25-1.05 4.05-2.1M2.9 9.65l-.2.95q-.2.5-1.25 0l-.4-.15.75-.25.65-.25.45-.3" fill="#f0bdcc" fill-rule="evenodd" transform="translate(45.95 49.45)"/><path d="m48.95 59.05.45-1.1q.1-.95-.3-1.95-.35-.95-1.45-1.7t-2.25-1.05q-.9-.15-1.35.25-.65.65-.2 1.35l.35.45 1.35.05M42.8 54.2l-1-.3q-1.2-.1-2.2.7-1 .75-.1 1.65l.6.5q.6-.9 1.75.4-.9-.5-1.55-.25l-.4.2q-.7.6-.6 1.6 0 .95 1 1.85.95.95 1.6.55-.45-.1-.55-.3-.65-1.15 1.25-1.1-.3.9.7 1.7.45.45.95.3-.3-.35-.05-.65h.1m-.65-2.75q-.75.5-1.05 1.35l.05.05h-.05m-5.85 12.5-.15.1m-1.15 3.5h.1l2.4-1.15m.05 0q8.75-4.5 10.1-13.15l.8-.75q.6-.75.05-1.7l-.1.05m-.45.3.45-.3m-5-4.25q-.45-.45-1.05-.65m-2.7 2.55.2.15m4.25 4.45-.2-.2-.15-.1m-13.9 14.3 1.7 1.7 3.45-1.25" fill="none" stroke="#c47198" stroke-linecap="round" stroke-linejoin="round" stroke-width=".05"/><path d="m44.25 63.7-.2.85q-1.5 4.25-7.3 7.65m7.7-9.6-.2 1.1m.2-1.1.1-1.25M32.5 74.4l-2.2.95m6.3-3.05q-1.8 1.05-4.05 2.1" fill="none" stroke="#c47198" stroke-linecap="round" stroke-linejoin="round" stroke-width=".05"/><path d="m-44.8 45.35-.05-.05-.1-.2.75-1.3q.65-.8 1.7-.7l.6.9q-2-.85-2.9 1.35m-.55-.95-.1-.3q.15-2 1.95-2.25l.35.35q-.95-.05-1.45.8l-.7 1.3-.05.1m25.9-19.65-.35-.7.15-.45 1.55-1.65q.55-.45 1.5-.55l1.15 1.7-3-.05q-1.15 1.25-1 1.7m1.45-5.4.15.1.5.7q-1.75.85-2.45 2.2l-.55.9.05-.15.65-2.15q.5-1.4 1.65-1.6m-.55 6.7q-.55.35-1 1.2l-.75 2-.1.35-.1-.45q-.15-.95 1.45-3.8l.5.7-.25-.35.25.35m-1.4 4.25q0-1.15.7-1.9l1.4-1.25.4.65q-2.05.55-2.4 2.65l-.1-.15" fill="#72558c" fill-rule="evenodd" transform="translate(45.95 49.45)"/><path d="m-14.7 24.25 7.05 10.8Q-7.8 37.25-9 37.6l-1.45-.1-.9-.35-1.6-2.35q-1.4 1.35-3.6.55l-.8-1.2-2.4-3.55-.1-.15q.35-2.1 2.4-2.65l-.4-.65-.2-.3-.5-.8-.25-.35-.65-.95.65.95-.25-.35q-1.6 2.85-1.45 3.8l.1.45-.2-.4-.9-1.4q.8-3.1 2-3.05h.05q-.15-.45 1-1.7l3 .05.75 1.15M-39.8 47q1.15 2.8-1.95 2.4l-3.05-4.05q.9-2.2 2.9-1.35l.25.3-.05.05 1.9 2.65m-5.65-2.9-.5-.85q.5-3 2.45-1.4-1.8.25-1.95 2.25m25.05-20.8v-.1l-1.05-1.55q.2-4.05 3.45-2.3-1.15.2-1.65 1.6l-.65 2.15-.05.05-.05.15m7.45 11.5-4.5-7 4.5 7" fill="#333" fill-rule="evenodd" transform="translate(45.95 49.45)"/><path d="m-17.35 20.15.75 1.25q-.95.1-1.5.55l-1.55 1.65-.15.45-.6-.75.05-.15.05-.05-.05.15.55-.9q.7-1.35 2.45-2.2m-27.6 24.95-.3-.55-.1-.15.05-.1.7-1.3q.5-.85 1.45-.8l.15.1.25.45.25.35q-1.05-.1-1.7.7l-.75 1.3m26.9-18.25.2.3-1.4 1.25q-.7.75-.7 1.9l-.15-.3-.25-.35-.05-.05.1-.35.75-2q.45-.85 1-1.2l.5.8-.5-.8.5.8" fill="#cdb6d6" fill-rule="evenodd" transform="translate(45.95 49.45)"/><path d="m-43 42.3.55-.25.25-.1 1.55.6.55-1 .85.6-.05-1.65 1.55-.8.75-.35.15-.1 1.05.4-.15-.9 1.05-.6 1.3-.7 2.1.1-.75-.85 1.9-1.1 4.4-2.75 2.9-1.2.3.5-.05-1.35.35-.3.7-.25.5.4.35-1.25.3-.2.2.4.05.05.25.35.05.1-.3-.45.3.45.75 4.25-1.7-1.6.25 1.85-.75 1.15-1.1-2.1-.15-1.5.15 1.5.15 1.6-1.25 1.15-1.15-1.3-.95 2.1-.9-3.5.05 1v.05l-.6 1.3-2.9-.35 2.2 1.1.85.45v.05q-.45-.3-.85-.5.4.2.85.5l-.55 1.1-2.8-1.2 1.75 1.9-1.3.85-2.35-1.05.7 1.05-.85-.4.35.7-.95 1.35-1.2-1.25-.7 1.7-.5-1.1-.7 2.95-1 .4-.4-1.15-.6.9.05-.8.05-.35-1 1.75-1.65-.5-.85-.65.85.65h-.05l.6.5h.05l.4 1.15-1.85-2.3-1.4-1.2m16.3-8.6-.05-.35.05.35m-3.65 1.9.2.1-.2-.1m-4.55 2.55 3.25 1.8-3.25-1.8m-2.85 1.55-.35 3.2.35-3.2" fill="#b395bb" fill-rule="evenodd" transform="translate(45.95 49.45)"/><path d="M-17.35 34.15q-2.6 1.2-5 2.45l-4 2.1-3.85 2.15-2.5 1.55-5.75 3.65-1.35.95-1.9-2.65.05-.05-.25-.3-.6-.9-.25-.35 1.1 1.55-1.1-1.55-.25-.45 1.4 1.2 1.85 2.3-.4-1.15h-.05l-.6-.5h.05l1.65.5 1-1.75-.05.35-.05.8.6-.9.4 1.15 1-.4.7-2.95.5 1.1.7-1.7 1.2 1.25.95-1.35-.35-.7.85.4-.7-1.05 2.35 1.05 1.3-.85-1.75-1.9 2.8 1.2.55-1.1v-.05l-.85-.45-2.2-1.1 2.9.35.6-1.3v-.05l-.05-1 .9 3.5.95-2.1 1.15 1.3 1.25-1.15-.15-1.6 1.1 2.1.75-1.15-.25-1.85 1.7 1.6-.75-4.25-.05-.1.15.3.1.15-.2-.35.2.35.1.15 2.4 3.55m-24.85 7.8 2.9-1.45.05 1.65-.85-.6-.55 1-1.55-.6m5.35-2.7.9-.5.15.9-1.05-.4m3.25-1.8 1.35-.75.75.85-2.1-.1m7.65-4.6 3.15-2.05.05 1.35-.3-.5-2.9 1.2m3.5-2.35.6-.4.95-.7-.35 1.25-.5-.4-.7.25m-3.9 8.2-.1-1.1-.2-2.85.2 2.85.1 1.1m-.1-1.1-.65-.3.65.3m-3.75 3.25-1.2-.7-.25-.2.25.2 1.2.7m7.75-5.6.1 1.35-.1-1.35m-8.95 4.9-1.3 2.25 1.3-2.25m-8.8 4.5-.55-.5.55.5m2-.6-.25 2-1.7-1.4 1.7 1.4.25-2" fill="#825b8e" fill-rule="evenodd" transform="translate(45.95 49.45)"/><path d="m28.6 69.6.3.5 9.4 14.4q-.15 2.2-1.35 2.55l-1.45-.1-.9-.35-1.6-2.35q-1.4 1.35-3.6.55l-.8-1.2q-2.6 1.2-5 2.45l-4 2.1-3.85 2.15-2.5 1.55L7.5 95.5l-1.35.95q1.15 2.8-1.95 2.4L1.15 94.8m-.55-.95-.1-.3-.5-.85q.5-3 2.45-1.4l.35.35.15.1.55-.25.25-.1 2.9-1.45 1.55-.8.75-.35.15-.1.9-.5 1.05-.6 1.3-.7 1.35-.75 1.9-1.1L20 82.3l3.15-2.05.35-.3.6-.4.95-.7.3-.2-.9-1.4q.8-3.1 2-3.05h.05l-.35-.7-.6-.75v-.1L24.5 71.1q.2-4.05 3.45-2.3l.15.1.5.7m-.5 7-.2-.3-.5-.8m-1.85 3.55.05.05m2.5-2.5.4.65 4.5 7M26.5 74.2l.65.95.25.35m-1.5 4.05.2.35m-.2-.35-.3-.45m-.25-.45.2.4m-2.4 1.2.05 1.35.15 1.5m-4.1.05.05 1v.05l.2 2.85.1 1.1m-.4-5.35.05.35m4.25 1.55-.15-1.6M18 86.25q.4.2.85.5l.65.3m-3.7-1.9 2.2 1.1m-2.2-1.1-.2-.1m-1.3 4.35.25.2 1.2.7m-1.45-.9-3.25-1.8m2.2 4.25 1.3-2.25m9.05-3.55-.1-1.35m5.1-1.1-2.4-3.55M4.3 93.75 3.2 92.2l-.25-.45 1.4 1.2.85.65.55.5h.05l1.7 1.4.25-2 .05-.8m.05-.35.35-3.2m-1.55.8.05 1.65-.85-.6-.55 1-1.55-.6m.55 2.35-.05.05 1.9 2.65M10 88.2l.15.9-1.05-.4" fill="none" stroke="#5f4675" stroke-linecap="round" stroke-linejoin="round" stroke-width=".05"/><path d="M1 94.55.7 94" fill="none" stroke="#333" stroke-linecap="round" stroke-linejoin="round" stroke-width=".05"/><path d="m-7.7 38.9-.4-.4q-.65-.45-1.35-.6l-.1-.05-.4-.05h-.3l-.5.1-.2.1q-.75.2-1.25.95-.7 1.05-.5 2.45l.05.1.1.55.8 1.45.3.4q.05 0 .15.1l.1.1 1.3.8.35-.2.2-.2q.6-.85.4-1.6l-.4-.5-.15-.3V42q-.15-.75.2-.85.1-.15.4-.15l.6.2.05.05q.5.25.6.7l.05.2-.05.05.05.1v.15l-.3.55-.35.2q.2.95-.2 1.75l.95-.2.1-.05q.1-.15.3-.15l-.05.05.5-.65q.5-.85.5-1.85v-.25l-.05-.55-.1-.25q-.35-1.25-1.4-2.15m-.25-.6.4.35q.6.45.95 1.05.5.75.65 1.6v.05l.05.1q.1.5.05.95 0 1-.55 1.75l-.5.7-.05-.05q-.25.05-.35.2l-1.35.3-.15.05-.2-.05-.8-.1h-.05l-.05-.05-1.45-.85q-.15-.15-.25-.2l-.3-.4q-.8-.95-1-2.2-.4-1.55.45-2.75.65-.9 1.6-1.15l.55-.15.1.05v.05l.15-.05h.1l.7.15.6.25.7.4" fill="#333" fill-rule="evenodd" transform="translate(45.95 49.45)"/><path d="M-10.15 37.8h.2l.4.05.1.05q.7.15 1.35.6l.4.4q.5.5.9 1.25l.35.75.1 1.05v.2q-.15 1.05-.7 1.85l-.35.7-.1.05-.95.2q.4-.8.2-1.75l.35-.2.3-.55v-.15l-.05-.1.05-.05-.05-.2q.2-.8-.8-1.5-.75-.55-1.05 0l-.05.1q-.35.75.05 1.45v.1l.15.3.4.5q.2.75-.4 1.6l-.2.2-.35.2-1.3-.8-.1-.1.4.05-.6-1-.1-.2-.4-1.45-.1-.85.3-1.2.85-1.35.2-.1.5-.1h.1" fill="#fbfbfb" fill-rule="evenodd" transform="translate(45.95 49.45)"/><path d="M-7.7 38.9q1.05.9 1.4 2.15l.1.25.05.55v.25q0 1-.5 1.85l-.5.65.05-.05q-.2 0-.3.15l.35-.7q.55-.8.7-1.85v-.2l-.1-1.05-.35-.75q-.4-.75-.9-1.25m.05 3.05q-.1-.45-.6-.7l-.05-.05-.6-.2q-.3 0-.4.15-.35.1-.2.85-.4-.7-.05-1.45l.05-.1q.3-.55 1.05 0 1 .7.8 1.5M-11.3 44q-.1-.1-.15-.1l-.3-.4-.8-1.45-.1-.55-.05-.1q-.2-1.4.5-2.45.5-.75 1.25-.95l-.85 1.35-.3 1.2.1.85.4 1.45.1.2.6 1-.4-.05" fill="#ccc" fill-rule="evenodd" transform="translate(45.95 49.45)"/></g></defs></svg>