<svg viewBox="0 0 37.3 50.05" xmlns="http://www.w3.org/2000/svg" xmlns:xlink="http://www.w3.org/1999/xlink"><use width="37.3" height="50.05" xlink:href="#a"/><defs><use width="37.3" height="50.05" xlink:href="#b" id="a"/><g id="b"><path d="m12 37.5-1.05-.7 11.5-16.7-1.1-.4 2.95-2.45-2.05.1 3.35-2.65-1.5-.4 2.15-1.95 3.15-11.3 3.25 7.05-2.85 7.5-9.05 14.75L14 38.9l-2-1.4" fill="#718688" fill-rule="evenodd" transform="translate(.05 .05)"/><path d="M32.65 8.1 29.4 1.05 29.7 0 36 11.95l1.2 4.4-7.6 14.35.1-2.55-10 14.65-2-1.35 6.5-8-.65.25 6.95-9 .25 1.55 2.8-5.95L32 22.1l2.65-9.25q-.9-1.7-2-4.75" fill="#e8ecec" fill-rule="evenodd" transform="translate(.05 .05)"/><path d="m14 38.9 6.75-8.55L29.8 15.6l2.85-7.5q1.1 3.05 2 4.75L32 22.1l1.55-1.8-2.8 5.95-.25-1.55-6.95 9 .65-.25-6.5 8-3.25-2.25-.45-.3" fill="#a8b6b7" fill-rule="evenodd" transform="translate(.05 .05)"/><path d="m12 37.5 2 1.4-.55.7.55-.7.45.3-3.3 3.8-.6-3.6 1-1 .45-.9" fill="#0d0d0d" fill-rule="evenodd" transform="translate(.05 .05)"/><path d="M11.15 43 9.8 44.6l-2.25.85-5.4 4.5L0 47.65l.7-2 6.6-3.05 3.25-3.2.6 3.6m-7.3 2.4-1.45.55q-1 1.25.3 1.9l1.5-1.35-.35-1.1" fill="#a1664c" fill-rule="evenodd" transform="translate(.05 .05)"/><path d="M29.45 1.1 26.3 12.4l-2.15 1.95 1.5.4-3.35 2.65 2.05-.1-2.95 2.45 1.1.4L11 36.85l1.05.7 2 1.4-.55.7M29.45 1.1l.3-1.05L36.05 12l1.2 4.4-7.6 14.35.1-2.55-10 14.65-2-1.35-3.25-2.25-3.3 3.8-1.35 1.6-2.25.85L2.2 50 .05 47.7l.7-2 6.6-3.05 3.25-3.2 1-1 .45-.9m2 1.4.45.3m-10.6 6.2.35 1.1-1.5 1.35q-1.3-.65-.3-1.9l1.45-.55" fill="none" stroke="#5f462e" stroke-linecap="round" stroke-linejoin="round" stroke-width=".1"/></g></defs></svg>