<svg viewBox="0 0 63.352 70.402" xmlns="http://www.w3.org/2000/svg" xmlns:xlink="http://www.w3.org/1999/xlink"><use transform="matrix(-.3294 -1.1223 -1.123 .3297 77.4 48.09)" width="42.85" height="68.55" xlink:href="#a"/><defs><use width="42.85" height="68.55" xlink:href="#b" id="a"/><g id="b"><path d="m35.3 7.5-.05-.05h-.05l.1.05m3.55-1-13.8 4.95-.8 2.55L37.6 8.55l.05.05-.15.2-.7 1.25-1.5 2.6-11.85 4.05.6-1.95-.6 1.95-1.15 3.75 10.75-3.95-3.15 5.45-8.5 1.55-.35 1.05 1.2.65 6.65-1.5-2.6 4.45-6.85 1.7v-.05l.6-2-.6 2-.05.05-2.85 1.6.5-2.45v-.05.05l-.5 2.45-.3 1.5-2.5 1.1.1-.6.35-2.95-.35 2.95-2.55 1.5V32l2.9-1.5.15-1.25-3 1.4v-.5l.05-1.4.15-.2 2.95-3.75.45-.55.05-.7 3.4-1.35.3-1.55.6-2.95-.6 2.95-3.55 1.6.15-1.2.15-.15 3.85-3.2.05-.1.25-1.15.05-.25.55-2.95.15-.1 5.05-3 .05-.15 1.45-4.8h.1l-1.45 4.75-.1.05.1-.05L27 5.2 42.6 0l-3.75 6.5M24.6 31.05 18.25 42.1l-2.8 1.15.05-.25 1.8-5.95L15.5 43l-.05.25-.05.05.1-.3-.1.3-.55 1.8-.85 2.8.85-2.8 2-.55-2.1 3.6-.1.25v-.15h-.1L14 47.9l-.7-.4.7-3.4.5-2.5-.5 2.5-.7 3.4-.55-.35-.5-.3-1.05-.55.05-2.2v-1.95 1.95l-.05 2.2-.55-.35-.5.2V46l-.1-.45-.25-1.7-.35-4.5-.1-1.15 1.95-1.3v2.25l2.05-1.45.1-1.05 2.35-1.6-.4 2.1.2-1.05 2.3-1.05.45-1.45.25-.85-.25.85-2.45 1 .35-1.65 2.6-1.15-.25.95 6-1.7M9.3 37.1 9.1 35l2.2-2.6v3.35l-1.85 1.2-.05-1.2-.3-.75.35 2-.15.1m15.75-25.65.35-1.3-.35 1.3m-1 3.3.3-1-4.45 1.6-.15.8-.3 1.35-.1.1.1-.1.3-1.35 4.3-1.4M21.4 23.5l.9-3.05-.9 3.05m-3.35.5.35-1.8-.35 1.8-3.3 1.75.2-1.45v-.05.05l-.2 1.45-.15 1.45 3.1-1.6.35-1.6m-.65 3.05.3-1.45-.3 1.45-.35 1.9 3-1.15.75-2.45v-.05l-3.4 1.75m4.85-1.85.2.15H20.8h1.65l-.2-.15m-1.9-12.05-.45 2.2.45-2.2M14.6 27.2l-.25 2.05.25-2.05m-3.85 5.85.55-.65-.55.65m6.9 2.8.25-.8-.25.8-2.25 1.3-.2 1 .35-.1.15-.05-.6.6-.4 1.85.4-1.85.6-.6-.15.05 1.75-1 .35-1.2M12.9 41.4l.45-3.7-.45 3.7-.2 1.4-.45 4.05.45-4.05 1.8-1.2v-.05l.2-1.1-1.8.95m-3.25-.2.1 1 .1 1.1 1.4-1.15.05-1.1-.15.1.15-.15v-.75l-1.65.95-.2-1.85.2 1.85m.2 2.1.2 2.25-.2-2.25m1.45-2.25V41v.05m0-1.9v1.1-1.1" fill="#d5ffff" fill-rule="evenodd" transform="translate(0 .3)"/><path d="m10.2 57.1-.05.2-1.3.05v-.2H8.8l1.4-.05-1.4.05h.05v.2h-.2l.15-1.85-1.6 1.1.2-1.95-1.55 1.1-.05-.1-.1-.1-.6-1.15.15-.2 1.45-1.75.6-.65.85 3.15.25-.05 2.95-.8-1.15 3m-4.95-2.9.7 1.25-.25.1.25-.1-.7-1.25" fill="#dfd999" fill-rule="evenodd" transform="translate(0 .3)"/><path d="m14.65 48.4.15 1.45v.1l-.45.75-.05.15-2.55 1.9 1.75-.55-.8 1.35-.1.2-1.2.3.1-.15 1.2-.35-1.2.35-.1.15-.05.05-2.95.8.75-1.3h.55l.65-.4q.85-.6 1.55-1.8t.8-2.3l-.1-1.05-.2-.25.35-.65.55.35.7.4.55.35h.1v.15M4.8 64.05l-.1.15-2.3 1.75.15-.25v.05l2.25-1.7-2.25 1.7v-.05l-.15.25v-.05l-.4-.2h-.05l5.25-9.1 1.6-1.1-.15 1.85-.4.7-2.7 1.9 1.9-.55-1.7 3-.95 1.65M1.5 65.4l.4-2.85 1-1.75 1.7-2.95v.05l-2.55 4.45-.4 2.85-.05.1-.1.1m5.8-13.65-.4-1.35.9-1.55v.05l-.75 1.3.4 1.4-.15.15m7.25-3.5.25 1.6-.25-1.6" fill="#9ab456" fill-rule="evenodd" transform="translate(0 .3)"/><path d="m14.85 50.25.3 1.3v.15l-1.6.5.1-.2 1.4-.4-.2-1.35m-5.9 8.55v.15l-1.45.45.1-.2 1.35-.4M2 67.75l-.65.45-.8-.1-.5-.65q-.1-.4.1-.75l.15-.2.05-.05q.15-.2.4-.25h.4l-.05-.05.1-.15.15-.35.1-.15.05-.1.45.3H2l.4.2-.05.1-.1.15-.3.55.05.15.05.1-.05.8-.5.25-.8-.1-.5-.65q-.1-.4.1-.75-.2.35-.1.75l.5.65.8.1.5-.25m2.6-9.9-.35-1.6.2-.1.3 1.5-.15.25v-.05m3.2-9-.4-1.6.2-.1.35 1.5-.15.25v-.05m7.35 2.7-.1.05.1-.05M1.4 65.65h-.05.05l.1-.25-.1.25.85.5-.85-.5-.15.3.05.05h-.1.1l-.05-.05.15-.3m.55 1.05-.35-.35-.35-.15h-.1.1l.35.15.35.35" fill="#647535" fill-rule="evenodd" transform="translate(0 .3)"/><path d="M9.7 53.6q-.25-.6-.2-1.15l.25-.05.1-.25q.05-1.05.7-1.95l.15-.1.1-.25-.05-.15.05.05v-.05l.45-.3.25-.1.1-.2v-.05l1-1 .1 1.05q-.1 1.1-.8 2.3t-1.55 1.8l-.65.4" fill="#a00" fill-rule="evenodd" transform="translate(0 .3)"/><path d="m9.5 52.45-.1-.05h-.05q-.3-1.8 1.15-2.85l.2.1.05.05.05.15-.1.25-.15.1q-.65.9-.7 1.95l-.1.25-.25.05m1.75-3.05-.5-.2v-.3q.1-.15.25-.2h.15l.25.05.1.05.05.05.05.1v.15l-.1.2-.25.1" fill="#f8e6ab" fill-rule="evenodd" transform="translate(0 .3)"/><path d="m35.3 12.65-2.25 3.85-10.75 3.95 1.15-3.75 11.85-4.05m-9.7 16.7-1 1.7-6 1.7.25-.95-2.6 1.15.3-1.5 2.85-1.6.05-.05v.05l-.6 1.95 6.75-2.45M9.35 38.2l-.05-1.1.15-.1.05.4-.05-.45 1.85-1.2v.6l1.6-1.65-1.6 2.1v.1l-1.95 1.3M11.3 32l.05-1.35 3-1.4-.15 1.25-2.9 1.5m13.05-18.25-.3 1-4.3 1.4.15-.8 4.45-1.6M18.05 24l-.35 1.6-3.1 1.6.15-1.45 3.3-1.75m-.65 3.05 3.4-1.75v.05l-.75 2.45-3 1.15.35-1.9m-3.65 7 2.5-1.1-.35 1.65-.1.45-2.35 1.6-.1 1.05-2.05 1.45V38.1l2.15-1.45.3-2.6m3.9 1.8-.35 1.2-1.75 1-.35.1.2-1 2.25-1.3M12.9 41.4l1.8-.95-.2 1.1v.05l-1.8 1.2.2-1.4m-3.15.8-.1-1 1.65-.95V41l-.15.15-1.4 1.05" fill="#fff" fill-rule="evenodd" transform="translate(0 .3)"/><path d="m9.1 46.6-.5.8-.35 3.3-.45-1.8.15-.25-.35-1.5 1.5-.55m5.7 3.35.05.3.2 1.35-1.4.4-.1.2h-.05l-1.75.55 2.55-1.9.05-.15.45-.75m-6.1 7.4.25 1.45-1.35.4-.1.2h-.05l-1.9.55 2.7-1.9.4-.7h.05m-4.1.55.15-.25-.3-1.5 1.35-.5.05.1-.4.65-.35 3.3-.5-1.8" fill="#323a1a" fill-rule="evenodd" transform="translate(0 .3)"/><path d="M10.1 46.15h.05l.5-.2.55.35 1.05.55.5.3-.35.65-.1-.05q-.6-.35-1.45.3-.9.6-1.55 1.8-.75 1.2-.85 2.25-.1 1.1.5 1.45l.2.05-.75 1.3-.25.05-.85-3.15v-.05l.15-.15-.4-1.4.75-1.3.45 1.8.35-3.3.5-.8 1-.45m-4.25 9.6 1.55-1.1-.2 1.95-5.25 9.1-.45-.3.1-.1.05-.1.4-2.85L4.6 57.9l.5 1.8.35-3.3.4-.65" fill="#707c38" fill-rule="evenodd" transform="translate(0 .3)"/><path d="m9.15 53.6-.2-.05q-.6-.35-.5-1.45.1-1.05.85-2.25.65-1.2 1.55-1.8.85-.65 1.45-.3l.1.05.2.25-1 1v-.1l-.05-.1-.05-.05-.1-.05-.25-.05H11q-.15.05-.25.2v.3l.5.2-.45.3v.05l-.1-.1-.2-.1Q9.05 50.6 9.35 52.4h.05l.1.05q-.05.55.2 1.15h-.55" fill="#5f0101" fill-rule="evenodd" transform="translate(0 .3)"/><path d="m38.85 6.5-.75 1.25v.05l-.15.2-2-.4 1.65.95L24.25 14l.8-2.55 13.8-4.95M29.9 21.95l-1 1.75-6.65 1.5-1.2-.65.35-1.05 8.5-1.55m-3.6 6.2-.7 1.2-6.75 2.45.6-1.95 6.85-1.7M18.25 42.1l-1.4 2.45-2 .55.55-1.8.05-.05 2.8-1.15M15 23.55l.1-.7.05-.05.1-.05.45-.3-.55.1v-.3l3.55-1.6-.3 1.55-3.4 1.35m-1.15 9.9-.1.6-.3 2.6-2.15 1.45v-1.3l1.6-2.1-1.6 1.65v-1.4l2.55-1.5m4.5.15-.45 1.45-2.3 1.05.2-1.05.1-.45 2.45-1m-8.6 8.6 1.4-1.05.15-.1-.05 1.1-1.4 1.15-.1-1.1" fill="#a0d6fc" fill-rule="evenodd" transform="translate(0 .3)"/><path d="m37.95 8.3.15-.2v-.05l.75-1.25m-13.8 4.95-.8 2.55m-9.5 34.15-.1.25m-1.95 5.15-.1.2-1.2.3-.05.05M4.8 64.35l-.1.15m-3.5 1.8.15-.35.1-.15m.45-2.95 1-1.75m4.4-9.05-.4-1.35.9-1.55m2.25-3.3-.25-1.7-.35-4.5m1.3-6.3.55-.65v2.55m.1-6.2.15-.2m3.75-7.5.15-.15m3.9-3.3.25-1.15m.05-.25.55-2.95.15-.1 5.05-3-.35 1.3m.4-1.45 1.45-4.8h.1L42.6.3l-3.75 6.5m-2.05 3.55.7-1.25m-12.05 1.2-.05.15m-1.05 3.6-.3 1-.6 1.95-1.15 3.75-.9 3.05-.35 1.05 1.2.65m-2.9-7.6-.05.1-.6 2.95-.3 1.55-.35 1.8-.35 1.6-.3 1.45m3.4-1.7h1.65l-.2-.15m-7.15-2.35.05-.05.1-.05.45-.3m-.75 1.8v.05l-.2 1.45-.15 1.45m4.7-9.5-3.85 3.2m1.6 8.05.35-1.9m2.05 2.75v.05m0-.05.6-2m-3 1.15v.05l-.5 2.45m-2.2-2.2-.15 1.25-.35 2.95-.1.6m2.5-1.1.3-1.5m-2.2-2.2.25-2.05m-3.3 8.55v.6L12.9 35l-1.6 2.1v1.3m2.15-1.45.3-2.6m-2.45 1.7v-.8m7.55-3.15-.25.95-.25.85-.45 1.45-.25.8-.35 1.2-1.8 5.95-.05.25m.15-7.15.2-1.05.1-.45.35-1.65m-2.8 3.7-.1 1.05-.45 3.7m1.8-.95.4-1.85.6-.6-.15.05-.35.1.2-1 .2-1.05m3.25-4.3.6-1.95M11.3 41.3v-2.9m-.05 4.05.05-1.1m-1.15 5.1v-.15l-.1-.45M8.6 47.7l.5-.8m6.4-3.6-.1.3.05-.05m-4.2-1.1v1.95l-.05 2.2m1.05.55.45-4.05.2-1.4m-1.6-.4v.05m3.2.55v-.05l.2-1.1m-.2 1.15-.5 2.5-.7 3.4m.7.4.85-2.8.55-1.8m5.4-17.95-.75 2.45m-5.1-3.55-.45.55M14.35 51l.45-.75m-1.3 2.25-.8 1.35M5.75 62.7l-.95 1.65M7.3 52.1v-.05m0 .05.85 3.15.25-.05 2.95-.8M1.1 66.5v-.05l.1-.15" fill="none" stroke="#000" stroke-linecap="round" stroke-linejoin="round" stroke-width=".05"/><path d="m14.65 48.7.15 1.45v.1l.05.3.3 1.3V52l-1.6.5h-.05l-1.75.55 2.55-1.9.05-.15m-4.15 6.4-.05.2-1.3.05H8.7l.25 1.45v.15l-1.45.45h-.05l-1.7 3M4.7 64.5l-2.3 1.75v.05h-.05l-.1.15-.3.55.05.15.05.1-.05.8-.65.45-.8-.1-.5-.65q-.1-.4.1-.75l.15-.2m1.15-1 .05-.1.4-2.85m1-1.75 1.7-2.95-.35-1.6.2-.1 1.35-.5.05.1 1.55-1.1-.2 1.95 1.6-1.1-.15 1.85-.4.7-2.7 1.9 1.9-.55M5.7 55.85l-.6-1.15.15-.2m2.55-5.35-.4-1.6.2-.1m2.5-1h.05l.5-.2.55.35 1.05.55M7.8 49.2v-.05m1.3-2.25-1.5.55m.2 1.75.45 1.8.35-3.3m.5-.8 1-.45m3.2 1.35.7.4.55.35h.1v.15m-2.25-.6-.1-.05q-.6-.35-1.45.3-.9.6-1.55 1.8-.75 1.2-.85 2.25-.1 1.1.5 1.45l.2.05h.05m3.4-5.55-.2-.25m.35-.65-.5-.3m.5.3.55.35m-3.6 6.1.65-.4q.85-.6 1.55-1.8t.8-2.3l-.1-1.05m-1.25 6.05-1.15 3m-3.5-4.65.6-.65m-1.5 3.85-.1-.1M4.6 58.2v-.05m4.1-.5h-.05m-2.8-1.6-.4.65L5.1 60l-.5-1.8m-3.1 7.5.45.3 5.25-9.1M1.95 66H2l.4.2-.05.1m-1-.35h.05l.85.5m-1.1.05h.1l.35.15.35.35m-.8-.5h-.4q-.25.05-.4.25" fill="none" stroke="#000" stroke-linecap="round" stroke-linejoin="round" stroke-width=".05"/><path d="m11.55 28.85 2.95-3.75.45-.55" fill="none" stroke="#2e4b39" stroke-linecap="round" stroke-linejoin="round" stroke-width=".25"/><path d="m37.6 8.85-1.65-.95 2 .4.15-.2m-.6 1 .15-.2-.05-.05m-.1.25-.7 1.25-1.5 2.6-2.25 3.85-3.15 5.45-1 1.75-2.6 4.45-.7 1.2-1 1.7-6.35 11.05-1.4 2.45-2.1 3.6m.05 1.7.05.4.2 1.35.1-.05m-1.6.65-.8 1.35h-.05l-1.2.35-.1.15-1.1 3.05h-.1l-1.4.05h.05v.2l.25 1.4-.15.05-1.35.4-.1.2-2.65 4.6-.05.05-2.25 1.7V66l-.15.25v.05l-.3.5.05.15.05.1-.05.8-.15.2-.5.25-.8-.1-.5-.65q-.1-.4.1-.75l.05-.05q.15-.35.55-.45h.4l-.05-.05.15-.3.1-.25m2.95-9.25-.05-.1 1.3-.5.25-.1-.7-1.25 1.45-1.75.6-.7.15-.15-.4-1.4.75-1.3m-.2-1.75-.05-.1 2.55-1-.05-.5-.2-2.25m-.4-3.95-.1-1.15-.05-1.1-.2-2.1 1.65-1.95m.55-.65v-.4l.05-1.35v-.5l.05-1.4m3.55-4.5.05-.7.1-.7.05-.3v-.3l.15-1.2m.15-.15v-.05l3.9-3.25.1-.1.3-1.35.15-.8.45-2.2v-.1l5.1-3.05.1-.05L27 5.5l.05-.2L42.75.1l-4.65 8M11.3 32.7l-.55.65m-1.1 8.15.1 1 .1 1.1m-.2-2.1-.2-1.85m.7 6.65-.05.05v.1m-2.5 1 .35 1.5-.15.25m5.75 3.3.1-.2 1.4-.4M4.6 58.2l.15-.25-.3-1.5m.15 1.75-2.55 4.45-.4 2.85-.05.1-.1.1m13.3-15.55-.25-1.6" fill="none" stroke="#35476f" stroke-linecap="round" stroke-linejoin="round" stroke-width=".25"/></g></defs></svg>