<svg viewBox="0 0 36.8 50.2" xmlns="http://www.w3.org/2000/svg" xmlns:xlink="http://www.w3.org/1999/xlink"><use width="36.8" height="50.2" xlink:href="#a"/><defs><use width="36.8" height="50.2" xlink:href="#b" id="a"/><g id="b"><path d="M27.05 1.4q-.1-.7-.85-1.1-.25-.2-.5-.3 4.75.85 8.4 4.15l-2.7-.7-.9.45-.2-.65-.35-.65q-.3-.35-.7-.4l-.9-.6-1.3-.2" fill="#c87e06" fill-rule="evenodd" transform="translate(0 .25)"/><path d="m9 29.25 13.55-20.8.6-.05-.4-.35L23.9 6.4l.6-.8 1.05.3-1 .9-.55.85q-2.15 2.2-2.65 5.2-1 .85-1.7 1.95l-10 15H9.6l-.6-.55m16.6-23.4-.85-.7 2.3-3.3.95.1-.55 1.5q-1.2.7-1.6 1.8l-.25.6m-1.7.55.65.4-.65-.4" fill="#c7d0d1" fill-rule="evenodd" transform="translate(0 .25)"/><path d="M25.55 5.9h.05v-.05l.25-.6q.4-1.1 1.6-1.8l.55-1.5 1.25.25q.4.05.7.4l.35.65-1.1 2.9-.1.15-15.05 22.95-2.4 2.25h-.1l-1.9-1.7 10-15q.7-1.1 1.7-1.95.5-3 2.65-5.2l.55-.85 1-.9" fill="#a8b6b7" fill-rule="evenodd" transform="translate(0 .25)"/><path d="m34.1 4.15.05.05 2.4 2.7-.75-.45-1.7.05-.2-.35-1.65-2.3q-1.15.2-1.8.95L29.2 6.15l1.1-2.9.2.65.9-.45 2.7.7m-7.05-2.3V1.4l1.3.2.9.6L28 1.95l-.95-.1" fill="#f8a51d" fill-rule="evenodd" transform="translate(0 .25)"/><path d="m18.85 28.4-.15.15-1.3 2-.5.1-1.4 2.55-2.9-1 .05-.1 1.4-2.85L29.1 6.3l.1-.15 1.25-1.35q.65-.75 1.8-.95l1.65 2.3-11.1 15.1q-2.05 2.85-3.25 6.3l-.7.85" fill="#c8cfd0" fill-rule="evenodd" transform="translate(0 .25)"/><path d="M34.1 6.5 20.25 27.35l-.6.15.3.35-.45.7-.65-.15.7-.85q1.2-3.45 3.25-6.3l11.1-15.1.2.35M18.7 28.55l.5.45-2.95 4.5-.7-.25-.05-.05 1.4-2.55.5-.1 1.3-2m.95-1.05-.1.05.1-.05" fill="#e8ecec" fill-rule="evenodd" transform="translate(0 .25)"/><path d="m15.05 35.9.25 1.2-1.3-.8-.1-.1.4-.45.65.65.1-.5M5.8 31.65l1.15-.35.8.3.4-.3.05-.3 1.25-.15.15-1.05h.05l1.9 1.7-3.1 1.65-2.65-1.5m4.05 2.3.9-.5.05 1.05-.95-.55" fill="#809395" fill-rule="evenodd" transform="translate(0 .25)"/><path d="m16.25 33.5-1.2 2v.4l-.1.5-.65-.65-.2-.4q.35-.8.85-1.5l.6-.6.7.25m-9.3-2.2L9 29.25l.6.55-.15 1.05L8.2 31l-.05.3-.4.3-.8-.3" fill="#a2b0b3" fill-rule="evenodd" transform="translate(0 .25)"/><path d="m15.3 37.1 2.05 1.1q.85-.4 1.65-.75l1.45.95-.85 2.25-6.1-3.5-6.85-3.9-6.15-3.5 1.55-1.9 1.5.8.05.8q.1 1.3 1.6 2l.6.2 2.65 1.5 1.4.8.95.55 1.75 1 1.3.75.05.1.1-.05 1.3.8" fill="#b37002" fill-rule="evenodd" transform="translate(0 .25)"/><path d="M11.55 31.5h.1l1 .6-.05.1-.05 3.3-1.75-1-.05-1.05-.9.5-1.4-.8 3.1-1.65" fill="#a06503" fill-rule="evenodd" transform="translate(0 .25)"/><path d="m12.55 35.5.05-3.3 2.9 1 .05.05-.6.6q-.5.7-.85 1.5l.2.4-.4.45-.05.05-1.3-.75" fill="#718688" fill-rule="evenodd" transform="translate(0 .25)"/><path d="m4.3 48.6-.15.35-1-1.25-1.55-.9-1.35-.3.2-.3q1.55.25 2.7 1 1.1.7 1.15 1.4m7.35-17.1 2.4-2.25-1.4 2.85-1-.6" fill="#eaaf00" fill-rule="evenodd" transform="translate(0 .25)"/><path d="m19.6 40.65-2.15.8-4.3-2.45 1.4.1-1.05-1.95 6.1 3.5M5.3 34.5.95 32.05l-.45-2.3 6.15 3.5-2.2.1.85 1.15" fill="#fec416" fill-rule="evenodd" transform="translate(0 .25)"/><path d="m13.15 39-2.1-1.2.7-.4q.05-.6-.45-1-1.7-1.55-3.6-1.6l-.05 1.05L5.3 34.5l-.85-1.15 2.2-.1 6.85 3.9 1.05 1.95-1.4-.1" fill="#c07903" fill-rule="evenodd" transform="translate(0 .25)"/><path d="m10.45 38.25-4.3 6.6-.95-.9-.95-.2V42.7l-.6-.35-.8 1.2 1.05-1.6 3.7-5.6q1.15.2 2 .75t.85 1.1v.05m-6.55 3.7-.25.4.25-.4" fill="#441d06" fill-rule="evenodd" transform="translate(0 .25)"/><path d="m11.05 37.8-.6.4q0-.55-.85-1.1t-2-.75l.05-.5.05-1.05q1.9.05 3.6 1.6.5.4.45 1l-.7.4M4.4 47.5l-.1 1.1q-.05-.7-1.15-1.4-1.15-.75-2.7-1l1-.55q1.2.25 2.05.8.85.5.9 1.05m-4.35.6H0h.05" fill="#4a4565" fill-rule="evenodd" transform="translate(0 .25)"/><path d="m2.6 43.95-1-.3 1.1-.7.15.6-.25.4m3.7-7.3-.75.8-.75-.1.8-.75.7.05" fill="#fff" fill-rule="evenodd" transform="translate(0 .25)"/><path d="M6.15 44.85 4.4 47.5q-.05-.55-.9-1.05-.85-.55-2.05-.8l.25-.4.9-1.3.25-.4.8-1.2.6.35v1.05l.95.2.95.9" fill="#7e360c" fill-rule="evenodd" transform="translate(0 .25)"/><path d="m4.15 48.95-1.3 1-.75-1 1.05-1.25 1 1.25M0 48.1l.25-1.6 1.35.3-.2 1.7-1.35-.4H0" fill="#706a99" fill-rule="evenodd" transform="translate(0 .25)"/><path d="M2.85 49.95Q1.7 49.75.9 49.2q-.85-.55-.85-1.1l1.35.4.7.45.75 1" fill="#95a5c4" fill-rule="evenodd" transform="translate(0 .25)"/><path d="m1.6 46.8 1.55.9-1.05 1.25-.7-.45.2-1.7" fill="#7e93e0" fill-rule="evenodd" transform="translate(0 .25)"/><path d="M27.05 1.65q-.1-.7-.85-1.1-.25-.2-.5-.3 4.75.85 8.4 4.15m.05.05 2.4 2.7-.75-.45-1.7.05L20.25 27.6m-.6.15.3.35-.45.7m-.8 0 .5.45-2.95 4.5-1.2 2v.4l.25 1.2 2.05 1.1q.85-.4 1.65-.75l1.45.95-.85 2.25-2.15.8-4.3-2.45-2.1-1.2-.6.4v.05-.05q0-.55-.85-1.1t-2-.75l.05-.5-2.35-1.35L.95 32.3.5 30l1.55-1.9 1.5.8.05.8q.1 1.3 1.6 2l.6.2 1.15-.35L9 29.5 22.55 8.7l.6-.05M1.7 45.5l.9-1.3m1.3-2 3.7-5.6M22.75 8.3l1.15-1.65.6-.8 1.05.3h.05V6.1m-.85-.7 2.3-3.3v-.45m2.2.8q.4.05.7.4l.35.65M11.55 31.75h.1l2.4-2.25-1.4 2.85M29.1 6.55l.1-.15 1.1-2.9m-5.75 3.55-.65-.4m5.35-4.2L28 2.2l-.95-.1m6.85 4.3-1.65-2.3q-1.15.2-1.8.95L29.2 6.4m4.9.35-.2-.35M10.8 34.75l-.05-1.05-.9.5.95.55 1.75 1 .05-3.3.05-.1m-4.2 1.05 3.1-1.65m-1.7 2.45-1.4-.8-2.65-1.5m8.2 4.65 1.3.8m-1.45-.85-1.3-.75m-4.9.35.05-1.05q1.9.05 3.6 1.6.5.4.45 1l-.7.4m2.45-.65 6.1 3.5m-6.1-3.5-6.85-3.9L.5 30m3.15 12.6-.8 1.2-.25.4m1.05-1.6.25-.4M19.5 28.8l-.65-.15m-4.8.85L29.1 6.55M19.55 27.8l.1-.05" fill="none" stroke="#391100" stroke-linecap="round" stroke-linejoin="round" stroke-opacity=".471" stroke-width=".5"/></g></defs></svg>