<svg viewBox="0 0 92.895 175.45" xmlns="http://www.w3.org/2000/svg" xmlns:xlink="http://www.w3.org/1999/xlink"><g transform="translate(-228.58 -112.23)"><use transform="matrix(-1 0 0 1 274.7 180.15)" width="46.1" height="56.7" xlink:href="#a"/><use transform="translate(259.15 233.15)" width="15.8" height="19.65" xlink:href="#b"/><use transform="translate(275.35 180.4)" width="46.1" height="56.7" xlink:href="#a"/><use transform="translate(254 112.25)" width="43.15" height="175.4" xlink:href="#c"/><use transform="rotate(180 138.665 133.24) scale(.3619)" width="10.4" height="10.4" xlink:href="#d"/><use transform="translate(274.8 264.55)" width="1.35" height="1.3" xlink:href="#e"/><use transform="matrix(-.7433 0 0 -1.827 278.87 235)" width="10.4" height="10.4" xlink:href="#d"/><use transform="translate(273.65 225.25)" width="2.75" height="6.75" xlink:href="#f"/></g><defs><radialGradient id="g" cx="0" cy="0" r="819.2" gradientTransform="matrix(.0646 -.0173 .0114 .0426 -13.5 4)" gradientUnits="userSpaceOnUse"><stop stop-color="#a2b7e8" offset="0"/><stop stop-color="#a3e2fa" offset=".596"/><stop stop-color="#dbf7fd" offset=".98"/></radialGradient><radialGradient id="h" cx="0" cy="0" r="819.2" gradientTransform="matrix(.0334 -.009 .0059 .022 -2.65 7.15)" gradientUnits="userSpaceOnUse"><stop stop-color="#a2b7e8" offset="0"/><stop stop-color="#a3e2fa" offset=".596"/><stop stop-color="#dbf7fd" offset=".98"/></radialGradient><radialGradient id="i" cx="0" cy="0" r="819.2" gradientTransform="matrix(.0443 -.0119 .0119 .0443 -16.9 14)" gradientUnits="userSpaceOnUse"><stop stop-color="#a2b7e8" offset="0"/><stop stop-color="#a3e2fa" offset=".596"/><stop stop-color="#dbf7fd" offset=".98"/></radialGradient><radialGradient id="j" cx="0" cy="0" r="819.2" gradientTransform="rotate(-14.929 65.058 43.11) scale(.0237)" gradientUnits="userSpaceOnUse"><stop stop-color="#a2b7e8" offset="0"/><stop stop-color="#a3e2fa" offset=".596"/><stop stop-color="#dbf7fd" offset=".98"/></radialGradient><radialGradient id="k" cx="0" cy="0" r="819.2" gradientTransform="matrix(.0233 0 0 .0317 -18.65 5.3)" gradientUnits="userSpaceOnUse"><stop stop-color="#a2b7e8" offset="0"/><stop stop-color="#a3e2fa" offset=".596"/><stop stop-color="#dbf7fd" offset=".98"/></radialGradient><radialGradient id="l" cx="0" cy="0" r="819.2" gradientTransform="matrix(.012 0 0 .0164 -15.3 9.55)" gradientUnits="userSpaceOnUse"><stop stop-color="#a2b7e8" offset="0"/><stop stop-color="#a3e2fa" offset=".596"/><stop stop-color="#dbf7fd" offset=".98"/></radialGradient><radialGradient id="m" cx="0" cy="0" r="819.2" gradientTransform="matrix(-.0188 0 0 -.0256 271.4 240.15)" gradientUnits="userSpaceOnUse"><stop stop-color="#a2b7e8" offset="0"/><stop stop-color="#a3e2fa" offset=".596"/><stop stop-color="#dbf7fd" offset=".98"/></radialGradient><radialGradient id="n" cx="0" cy="0" r="819.2" gradientTransform="matrix(-.0097 0 0 -.0132 268.7 236.75)" gradientUnits="userSpaceOnUse"><stop stop-color="#a2b7e8" offset="0"/><stop stop-color="#a3e2fa" offset=".596"/><stop stop-color="#dbf7fd" offset=".98"/></radialGradient><radialGradient id="o" cx="0" cy="0" r="819.2" gradientTransform="matrix(.0188 0 0 -.0256 279.4 240.15)" gradientUnits="userSpaceOnUse"><stop stop-color="#a2b7e8" offset="0"/><stop stop-color="#a3e2fa" offset=".596"/><stop stop-color="#dbf7fd" offset=".98"/></radialGradient><radialGradient id="p" cx="0" cy="0" r="819.2" gradientTransform="matrix(.0097 0 0 -.0132 282.1 236.75)" gradientUnits="userSpaceOnUse"><stop stop-color="#a2b7e8" offset="0"/><stop stop-color="#a3e2fa" offset=".596"/><stop stop-color="#dbf7fd" offset=".98"/></radialGradient><radialGradient id="q" cx="0" cy="0" r="819.2" gradientTransform="matrix(-.0141 0 0 .0124 275.8 170.1)" gradientUnits="userSpaceOnUse"><stop stop-color="#a2b7e8" offset="0"/><stop stop-color="#a3e2fa" offset=".596"/><stop stop-color="#dbf7fd" offset=".98"/></radialGradient><radialGradient id="r" cx="0" cy="0" r="819.2" gradientTransform="matrix(-.0152 0 0 .0134 278.55 185.55)" gradientUnits="userSpaceOnUse"><stop stop-color="#a2b7e8" offset="0"/><stop stop-color="#a3e2fa" offset=".596"/><stop stop-color="#dbf7fd" offset=".98"/></radialGradient><radialGradient id="s" cx="0" cy="0" r="819.2" gradientTransform="matrix(-.0082 0 0 .0072 280.65 194.2)" gradientUnits="userSpaceOnUse"><stop stop-color="#a2b7e8" offset="0"/><stop stop-color="#a3e2fa" offset=".596"/><stop stop-color="#dbf7fd" offset=".98"/></radialGradient><radialGradient id="t" cx="0" cy="0" r="819.2" gradientTransform="matrix(-.0336 0 0 .0296 283 212.35)" gradientUnits="userSpaceOnUse"><stop stop-color="#a2b7e8" offset="0"/><stop stop-color="#a3e2fa" offset=".596"/><stop stop-color="#dbf7fd" offset=".98"/></radialGradient><radialGradient id="u" cx="0" cy="0" r="819.2" gradientTransform="matrix(-.0242 0 0 .0213 276.6 209.45)" gradientUnits="userSpaceOnUse"><stop stop-color="#a2b7e8" offset="0"/><stop stop-color="#a3e2fa" offset=".596"/><stop stop-color="#dbf7fd" offset=".98"/></radialGradient><radialGradient id="v" cx="0" cy="0" r="819.2" gradientTransform="matrix(-.0093 0 0 .0081 275.45 217.85)" gradientUnits="userSpaceOnUse"><stop stop-color="#a2b7e8" offset="0"/><stop stop-color="#a3e2fa" offset=".596"/><stop stop-color="#dbf7fd" offset=".98"/></radialGradient><radialGradient id="w" cx="0" cy="0" r="819.2" gradientTransform="matrix(-.0063 0 0 .0056 282.35 219.5)" gradientUnits="userSpaceOnUse"><stop stop-color="#a2b7e8" offset="0"/><stop stop-color="#a3e2fa" offset=".596"/><stop stop-color="#dbf7fd" offset=".98"/></radialGradient><radialGradient id="x" cx="0" cy="0" r="819.2" gradientTransform="matrix(-.0062 0 0 .0054 277.05 193.05)" gradientUnits="userSpaceOnUse"><stop stop-color="#fff" offset="0"/><stop stop-color="#fff" stop-opacity="0" offset="1"/></radialGradient><radialGradient id="y" cx="0" cy="0" r="819.2" gradientTransform="matrix(.0141 0 0 .0124 273.45 170.1)" gradientUnits="userSpaceOnUse"><stop stop-color="#a2b7e8" offset="0"/><stop stop-color="#a3e2fa" offset=".596"/><stop stop-color="#dbf7fd" offset=".98"/></radialGradient><radialGradient id="z" cx="0" cy="0" r="819.2" gradientTransform="matrix(.0152 0 0 .0134 270.7 185.55)" gradientUnits="userSpaceOnUse"><stop stop-color="#a2b7e8" offset="0"/><stop stop-color="#a3e2fa" offset=".596"/><stop stop-color="#dbf7fd" offset=".98"/></radialGradient><radialGradient id="A" cx="0" cy="0" r="819.2" gradientTransform="matrix(.0082 0 0 .0072 268.6 194.2)" gradientUnits="userSpaceOnUse"><stop stop-color="#a2b7e8" offset="0"/><stop stop-color="#a3e2fa" offset=".596"/><stop stop-color="#dbf7fd" offset=".98"/></radialGradient><radialGradient id="B" cx="0" cy="0" r="819.2" gradientTransform="matrix(.0336 0 0 .0296 266.25 212.35)" gradientUnits="userSpaceOnUse"><stop stop-color="#a2b7e8" offset="0"/><stop stop-color="#a3e2fa" offset=".596"/><stop stop-color="#dbf7fd" offset=".98"/></radialGradient><radialGradient id="C" cx="0" cy="0" r="819.2" gradientTransform="matrix(.0242 0 0 .0213 272.65 209.45)" gradientUnits="userSpaceOnUse"><stop stop-color="#a2b7e8" offset="0"/><stop stop-color="#a3e2fa" offset=".596"/><stop stop-color="#dbf7fd" offset=".98"/></radialGradient><radialGradient id="D" cx="0" cy="0" r="819.2" gradientTransform="matrix(.0093 0 0 .0081 273.8 217.85)" gradientUnits="userSpaceOnUse"><stop stop-color="#a2b7e8" offset="0"/><stop stop-color="#a3e2fa" offset=".596"/><stop stop-color="#dbf7fd" offset=".98"/></radialGradient><radialGradient id="E" cx="0" cy="0" r="819.2" gradientTransform="matrix(.0063 0 0 .0056 266.9 219.5)" gradientUnits="userSpaceOnUse"><stop stop-color="#a2b7e8" offset="0"/><stop stop-color="#a3e2fa" offset=".596"/><stop stop-color="#dbf7fd" offset=".98"/></radialGradient><radialGradient id="F" cx="0" cy="0" r="819.2" gradientTransform="matrix(.0062 0 0 .0054 272.2 193.05)" gradientUnits="userSpaceOnUse"><stop stop-color="#fff" offset="0"/><stop stop-color="#fff" stop-opacity="0" offset="1"/></radialGradient><radialGradient id="G" cx="0" cy="0" r="819.2" gradientTransform="matrix(.0141 0 0 .0215 275.8 129.7)" gradientUnits="userSpaceOnUse"><stop stop-color="#a2b7e8" offset="0"/><stop stop-color="#a3e2fa" offset=".596"/><stop stop-color="#dbf7fd" offset=".98"/></radialGradient><radialGradient id="H" cx="0" cy="0" r="819.2" gradientTransform="matrix(.0152 0 0 .0232 273.05 156.5)" gradientUnits="userSpaceOnUse"><stop stop-color="#a2b7e8" offset="0"/><stop stop-color="#a3e2fa" offset=".596"/><stop stop-color="#dbf7fd" offset=".98"/></radialGradient><radialGradient id="I" cx="0" cy="0" r="819.2" gradientTransform="matrix(.0082 0 0 .0125 270.95 171.5)" gradientUnits="userSpaceOnUse"><stop stop-color="#a2b7e8" offset="0"/><stop stop-color="#a3e2fa" offset=".596"/><stop stop-color="#dbf7fd" offset=".98"/></radialGradient><radialGradient id="J" cx="0" cy="0" r="819.2" gradientTransform="matrix(.0336 0 0 .0512 268.6 203)" gradientUnits="userSpaceOnUse"><stop stop-color="#a2b7e8" offset="0"/><stop stop-color="#a3e2fa" offset=".596"/><stop stop-color="#dbf7fd" offset=".98"/></radialGradient><radialGradient id="K" cx="0" cy="0" r="819.2" gradientTransform="matrix(.0242 0 0 .0369 275 197.9)" gradientUnits="userSpaceOnUse"><stop stop-color="#a2b7e8" offset="0"/><stop stop-color="#a3e2fa" offset=".596"/><stop stop-color="#dbf7fd" offset=".98"/></radialGradient><radialGradient id="L" cx="0" cy="0" r="819.2" gradientTransform="matrix(.0093 0 0 .0141 276.15 212.5)" gradientUnits="userSpaceOnUse"><stop stop-color="#a2b7e8" offset="0"/><stop stop-color="#a3e2fa" offset=".596"/><stop stop-color="#dbf7fd" offset=".98"/></radialGradient><radialGradient id="M" cx="0" cy="0" r="819.2" gradientTransform="matrix(.0063 0 0 .0097 269.25 215.35)" gradientUnits="userSpaceOnUse"><stop stop-color="#a2b7e8" offset="0"/><stop stop-color="#a3e2fa" offset=".596"/><stop stop-color="#dbf7fd" offset=".98"/></radialGradient><radialGradient id="N" cx="0" cy="0" r="819.2" gradientTransform="matrix(.0062 0 0 .0094 274.5 169.5)" gradientUnits="userSpaceOnUse"><stop stop-color="#fff" offset="0"/><stop stop-color="#fff" stop-opacity="0" offset="1"/></radialGradient><radialGradient id="O" cx="0" cy="0" r="819.2" gradientTransform="matrix(-.0085 0 0 -.0085 277.85 236.95)" gradientUnits="userSpaceOnUse"><stop stop-color="#9cb7d6" offset="0"/><stop stop-color="#a3e2fa" offset=".455"/></radialGradient><radialGradient id="P" cx="0" cy="0" r="819.2" gradientTransform="rotate(180 137.9 119.675) scale(.0077)" gradientUnits="userSpaceOnUse"><stop stop-color="#9cb7d6" offset="0"/><stop stop-color="#a3e2fa" offset=".455"/></radialGradient><radialGradient id="Q" cx="0" cy="0" r="819.2" gradientTransform="matrix(-.0094 0 0 -.0094 280.15 235.35)" gradientUnits="userSpaceOnUse"><stop stop-color="#9cb7d6" offset="0"/><stop stop-color="#a3e2fa" offset=".455"/></radialGradient><radialGradient id="R" cx="0" cy="0" r="819.2" gradientTransform="matrix(-.0041 0 0 -.0041 276.95 220.85)" gradientUnits="userSpaceOnUse"><stop stop-color="#9cb7d6" offset="0"/><stop stop-color="#a3e2fa" offset=".455"/></radialGradient><radialGradient id="S" cx="0" cy="0" r="819.2" gradientTransform="matrix(.0085 0 0 -.0085 273.2 236.95)" gradientUnits="userSpaceOnUse"><stop stop-color="#9cb7d6" offset="0"/><stop stop-color="#a3e2fa" offset=".455"/></radialGradient><radialGradient id="T" cx="0" cy="0" r="819.2" gradientTransform="matrix(.0077 0 0 -.0077 275.25 239.35)" gradientUnits="userSpaceOnUse"><stop stop-color="#9cb7d6" offset="0"/><stop stop-color="#a3e2fa" offset=".455"/></radialGradient><radialGradient id="U" cx="0" cy="0" r="819.2" gradientTransform="matrix(.0094 0 0 -.0094 270.9 235.35)" gradientUnits="userSpaceOnUse"><stop stop-color="#9cb7d6" offset="0"/><stop stop-color="#a3e2fa" offset=".455"/></radialGradient><radialGradient id="V" cx="0" cy="0" r="819.2" gradientTransform="matrix(.0041 0 0 -.0041 274.1 220.85)" gradientUnits="userSpaceOnUse"><stop stop-color="#9cb7d6" offset="0"/><stop stop-color="#a3e2fa" offset=".455"/></radialGradient><radialGradient id="W" cx="0" cy="0" r="819.2" gradientTransform="rotate(180 138.65 114.2) scale(.0085)" gradientUnits="userSpaceOnUse"><stop stop-color="#9cb7d6" offset="0"/><stop stop-color="#a3e2fa" offset=".455"/></radialGradient><radialGradient id="X" cx="0" cy="0" r="819.2" gradientTransform="rotate(180 137.625 115.4) scale(.0077)" gradientUnits="userSpaceOnUse"><stop stop-color="#9cb7d6" offset="0"/><stop stop-color="#a3e2fa" offset=".455"/></radialGradient><radialGradient id="Y" cx="0" cy="0" r="819.2" gradientTransform="rotate(180 139.8 113.4) scale(.0094)" gradientUnits="userSpaceOnUse"><stop stop-color="#9cb7d6" offset="0"/><stop stop-color="#a3e2fa" offset=".455"/></radialGradient><radialGradient id="Z" cx="0" cy="0" r="819.2" gradientTransform="rotate(180 138.2 106.15) scale(.0041)" gradientUnits="userSpaceOnUse"><stop stop-color="#9cb7d6" offset="0"/><stop stop-color="#a3e2fa" offset=".455"/></radialGradient><radialGradient id="aa" cx="0" cy="0" r="819.2" gradientTransform="matrix(.0085 0 0 -.0085 272.6 228.4)" gradientUnits="userSpaceOnUse"><stop stop-color="#9cb7d6" offset="0"/><stop stop-color="#a3e2fa" offset=".455"/></radialGradient><radialGradient id="ab" cx="0" cy="0" r="819.2" gradientTransform="matrix(.0077 0 0 -.0077 274.65 230.8)" gradientUnits="userSpaceOnUse"><stop stop-color="#9cb7d6" offset="0"/><stop stop-color="#a3e2fa" offset=".455"/></radialGradient><radialGradient id="ac" cx="0" cy="0" r="819.2" gradientTransform="matrix(.0094 0 0 -.0094 270.3 226.8)" gradientUnits="userSpaceOnUse"><stop stop-color="#9cb7d6" offset="0"/><stop stop-color="#a3e2fa" offset=".455"/></radialGradient><radialGradient id="ad" cx="0" cy="0" r="819.2" gradientTransform="matrix(.0041 0 0 -.0041 273.5 212.3)" gradientUnits="userSpaceOnUse"><stop stop-color="#9cb7d6" offset="0"/><stop stop-color="#a3e2fa" offset=".455"/></radialGradient><radialGradient id="ae" cx="0" cy="0" r="819.2" gradientTransform="rotate(180 138.925 126.7) scale(.0085)" gradientUnits="userSpaceOnUse"><stop stop-color="#9cb7d6" offset="0"/><stop stop-color="#a3e2fa" offset=".455"/></radialGradient><radialGradient id="af" cx="0" cy="0" r="819.2" gradientTransform="rotate(180 137.9 127.9) scale(.0077)" gradientUnits="userSpaceOnUse"><stop stop-color="#9cb7d6" offset="0"/><stop stop-color="#a3e2fa" offset=".455"/></radialGradient><radialGradient id="ag" cx="0" cy="0" r="819.2" gradientTransform="rotate(180 140.075 125.9) scale(.0094)" gradientUnits="userSpaceOnUse"><stop stop-color="#9cb7d6" offset="0"/><stop stop-color="#a3e2fa" offset=".455"/></radialGradient><radialGradient id="ah" cx="0" cy="0" r="819.2" gradientTransform="matrix(-.0041 0 0 -.0041 276.95 237.3)" gradientUnits="userSpaceOnUse"><stop stop-color="#9cb7d6" offset="0"/><stop stop-color="#a3e2fa" offset=".455"/></radialGradient><radialGradient id="ai" cx="0" cy="0" r="819.2" gradientTransform="matrix(.0085 0 0 -.0085 273.15 253.4)" gradientUnits="userSpaceOnUse"><stop stop-color="#9cb7d6" offset="0"/><stop stop-color="#a3e2fa" offset=".455"/></radialGradient><radialGradient id="aj" cx="0" cy="0" r="819.2" gradientTransform="matrix(.0077 0 0 -.0077 275.2 255.8)" gradientUnits="userSpaceOnUse"><stop stop-color="#9cb7d6" offset="0"/><stop stop-color="#a3e2fa" offset=".455"/></radialGradient><radialGradient id="ak" cx="0" cy="0" r="819.2" gradientTransform="matrix(.0094 0 0 -.0094 270.85 251.8)" gradientUnits="userSpaceOnUse"><stop stop-color="#9cb7d6" offset="0"/><stop stop-color="#a3e2fa" offset=".455"/></radialGradient><radialGradient id="al" cx="0" cy="0" r="819.2" gradientTransform="matrix(.0041 0 0 -.0041 274.05 237.3)" gradientUnits="userSpaceOnUse"><stop stop-color="#9cb7d6" offset="0"/><stop stop-color="#a3e2fa" offset=".455"/></radialGradient><radialGradient id="am" cx="0" cy="0" r="819.2" gradientTransform="rotate(180 138.65 137) scale(.0039)" gradientUnits="userSpaceOnUse"><stop stop-color="#6a95bf" offset="0"/><stop stop-color="#a3e2fa" offset=".596"/><stop stop-color="#dbf7fd" offset=".98"/></radialGradient><radialGradient id="an" cx="0" cy="0" r="819.2" gradientTransform="rotate(180 137 137) scale(.0037)" gradientUnits="userSpaceOnUse"><stop stop-color="#6a95bf" offset="0"/><stop stop-color="#a3e2fa" offset=".596"/><stop stop-color="#dbf7fd" offset=".98"/></radialGradient><radialGradient id="ao" cx="0" cy="0" r="819.2" gradientTransform="matrix(-.003 0 0 -.003 275.75 281.65)" gradientUnits="userSpaceOnUse"><stop stop-color="#6a95bf" offset="0"/><stop stop-color="#a3e2fa" offset=".596"/><stop stop-color="#dbf7fd" offset=".98"/></radialGradient><radialGradient id="ap" cx="0" cy="0" r="819.2" gradientTransform="matrix(-.01 0 0 -.01 275.7 278.5)" gradientUnits="userSpaceOnUse"><stop stop-color="#6a95bf" offset="0"/><stop stop-color="#a3e2fa" offset=".596"/><stop stop-color="#dbf7fd" offset=".98"/></radialGradient><radialGradient id="aq" cx="0" cy="0" r="819.2" gradientTransform="matrix(-.0106 0 0 -.0106 261.25 261.15)" gradientUnits="userSpaceOnUse"><stop stop-color="#a2b7e8" offset="0"/><stop stop-color="#a3e2fa" offset=".596"/><stop stop-color="#dbf7fd" offset=".98"/></radialGradient><radialGradient id="ar" cx="0" cy="0" r="819.2" gradientTransform="matrix(-.0113 0 0 -.0113 290.3 262.55)" gradientUnits="userSpaceOnUse"><stop stop-color="#a2b7e8" offset="0"/><stop stop-color="#a3e2fa" offset=".596"/><stop stop-color="#dbf7fd" offset=".98"/></radialGradient><radialGradient id="as" cx="0" cy="0" r="819.2" gradientTransform="matrix(-.0108 0 0 -.0108 280.55 266.65)" gradientUnits="userSpaceOnUse"><stop stop-color="#a2b7e8" offset="0"/><stop stop-color="#a3e2fa" offset=".596"/><stop stop-color="#dbf7fd" offset=".98"/></radialGradient><radialGradient id="at" cx="0" cy="0" r="819.2" gradientTransform="rotate(180 134.875 133.1) scale(.0111)" gradientUnits="userSpaceOnUse"><stop stop-color="#a2b7e8" offset="0"/><stop stop-color="#a3e2fa" offset=".596"/><stop stop-color="#dbf7fd" offset=".98"/></radialGradient><radialGradient id="au" cx="0" cy="0" r="819.2" gradientTransform="rotate(180 137.6 134.8) scale(.017)" gradientUnits="userSpaceOnUse"><stop stop-color="#a2b7e8" offset="0"/><stop stop-color="#a3e2fa" offset=".596"/><stop stop-color="#dbf7fd" offset=".98"/></radialGradient><radialGradient id="av" cx="0" cy="0" r="819.2" gradientTransform="translate(-2.1 3.3) scale(.0099)" gradientUnits="userSpaceOnUse"><stop stop-color="#07d9cb" offset="0"/><stop stop-color="#34fed7" offset=".604"/><stop stop-color="#56fef9" offset=".988"/></radialGradient><g id="a"><path d="m-8 6.3-.45.35h-1.8q-1.85-.1-3.75-.05l-2.45-.05 39.5-34.9L6.7-4.9 2.15-1.4l-.55.45-2.85 2.15-1.85 1.4L-8 6.3" fill="url(#g)" fill-rule="evenodd" transform="translate(23.05 28.35)"/><path d="M-10.25 6.65h1.8L-8 6.3l4.9-3.7 1.85-1.4L1.6-.95l.55-.45L6.7-4.9 3.8-.65.4 4.25-7.8 9.5l5.25-1.75L1.4 6.4l3.3-1.05-2.6 2.6-18.2 6.8-6.45 4.1 6.1-12.3 2.45.05q1.9-.05 3.75.05m-5.85 8.1 8.3-5.25-8.3 5.25" fill="#5f83be" fill-rule="evenodd" transform="translate(23.05 28.35)"/><path d="m1.4 6.4-3.95 1.35L-7.8 9.5.4 4.25l3.4-4.9L18.15-8.5 4.7 5.35 1.4 6.4" fill="url(#h)" fill-rule="evenodd" transform="translate(23.05 28.35)"/><path d="M12.8 35h1.8l.45-.35m4.9-3.7 1.85-1.4m2.85-2.15.55-.45M6.6 34.9l2.45.05m15.4-.2 3.3-1.05m-12.5 4.15 5.25-1.75" fill="none" stroke="#d8fbfc" stroke-linecap="round" stroke-linejoin="round" stroke-width=".05"/><path d="M29.75 23.45 46.1 0 6.6 34.9m21.15-1.2L41.2 19.85 26.85 27.7l-3.4 4.9-8.2 5.25-8.3 5.25L.5 47.2l6.1-12.3m23.15-11.45-2.9 4.25m.9 6-2.6 2.6-18.2 6.8" fill="none" stroke="#000" stroke-linecap="round" stroke-linejoin="round" stroke-opacity=".263" stroke-width=".05"/><path d="m-12.8 16.85-.3.3-1.3-.15-2.65-.4-1.75-.25 24.95-32-9.5 22.4-2.9 3.15-.4.4-1.85 1.9-1.2 1.3-3.1 3.35" fill="url(#i)" fill-rule="evenodd" transform="translate(23.05 28.35)"/><path d="m-14.4 17 1.3.15.3-.3 3.1-3.35 1.2-1.3 1.85-1.9.4-.4 2.9-3.15-1.7 4.1-2 4.7-5.4 4.6 3.65-1.35 2.65-1 2.25-.8-1.6 2.4-12.3 5.35-4.2 3.6 3.2-12 1.75.25 2.65.4m-3.4 7.75 5.35-4.6-5.35 4.6" fill="#5f83be" fill-rule="evenodd" transform="translate(23.05 28.35)"/><path d="m-6.15 17.8-2.65 1-3.65 1.35 5.4-4.6 2-4.7 9.5-6.75L-3.9 17l-2.25.8" fill="url(#j)" fill-rule="evenodd" transform="translate(23.05 28.35)"/><path d="m8.65 45.35 1.3.15.3-.3m3.1-3.35 1.2-1.3m1.85-1.9.4-.4M4.25 44.7l1.75.25m10.9 1.2 2.25-.8M10.6 48.5l3.65-1.35" fill="none" stroke="#d8fbfc" stroke-linecap="round" stroke-linejoin="round" stroke-width=".05"/><path d="m19.7 35.1 9.5-22.4-24.95 32m14.9.65 8.35-12.9L18 39.2l-2 4.7-5.4 4.6-5.35 4.6 12.3-5.35 1.6-2.4m.55-10.25L18 39.2M5.25 53.1l-4.2 3.6 3.2-12" fill="none" stroke="#000" stroke-linecap="round" stroke-linejoin="round" stroke-opacity=".263" stroke-width=".05"/><path d="m-17 7.95-.2.15-.6-.35-1.25-.75q-.45-.2-.85-.45L-3.45-10.4l-7.6 13.3-1.85 1.6-.25.15-1.15 1-.75.65L-17 7.95" fill="url(#k)" fill-rule="evenodd" transform="translate(23.05 28.35)"/><path d="m-17.8 7.75.6.35.2-.15 1.95-1.65.75-.65 1.15-1 .25-.15 1.85-1.6-1.4 2.4L-14 8.1l-3.25 2.1 1.95-.25 1.45-.2 1.2-.15-1.1 1.35-6.75 1.35-2.55 1.65 3.15-7.4q.4.25.85.45l1.25.75m-2.7 4.55 3.25-2.1-3.25 2.1" fill="#5f83be" fill-rule="evenodd" transform="translate(23.05 28.35)"/><path d="m-13.85 9.75-1.45.2-1.95.25L-14 8.1l1.55-2.8 5.55-2.8-5.75 7.1-1.2.15" fill="url(#l)" fill-rule="evenodd" transform="translate(23.05 28.35)"/><path d="m5.25 36.1.6.35.2-.15M8 34.65l.75-.65m1.15-1 .25-.15m-7 2.05q.4.25.85.45m5.2 2.75 1.2-.15m-4.6.6 1.95-.25" fill="none" stroke="#d8fbfc" stroke-linecap="round" stroke-linejoin="round" stroke-width=".05"/><path d="m12 31.25 7.6-13.3L3.15 34.9m7.25 3.05 5.75-7.1-5.55 2.8-1.55 2.8-6.5 4.2L0 42.3l3.15-7.4M12 31.25l-1.4 2.4m-.2 4.3L9.3 39.3l-6.75 1.35" fill="none" stroke="#000" stroke-linecap="round" stroke-linejoin="round" stroke-opacity=".263" stroke-width=".05"/></g><g id="b"><path d="m270.1 238 .15-.1.45.25 1.05.6.65.4-13.25 13.65 6.1-10.7 1.5-1.3.2-.15.95-.75.6-.55 1.6-1.35" fill="url(#m)" fill-rule="evenodd" transform="translate(-259.15 -233.15)"/><path d="m270.7 238.15-.45-.25-.15.1-1.6 1.35-.6.55-.95.75-.2.15-1.5 1.3 1.15-1.95 1.25-2.25 2.6-1.7-1.55.2-1.15.15-1 .1.9-1.05 5.45-1.1 2.05-1.35-2.55 6-.65-.4-1.05-.6m2.2-3.65-2.65 1.7 2.65-1.7" fill="#5f83be" fill-rule="evenodd" transform="translate(-259.15 -233.15)"/><path d="m267.55 236.55 1.15-.15 1.55-.2-2.6 1.7-1.25 2.25-4.5 2.25 4.65-5.75 1-.1" fill="url(#n)" fill-rule="evenodd" transform="translate(-259.15 -233.15)"/><path d="m11.55 5-.45-.25-.15.1M9.35 6.2l-.6.55m-.95.75-.2.15M13.25 6l-.65-.4M8.4 3.4l-1 .1m3.7-.45-1.55.2" fill="none" stroke="#d8fbfc" stroke-linecap="round" stroke-linejoin="round" stroke-width=".05"/><path d="M6.1 8.95 0 19.65 13.25 6M7.4 3.5 2.75 9.25 7.25 7 8.5 4.75l2.6-1.7 2.65-1.7-5.45 1.1-.9 1.05M6.1 8.95 7.25 7m6.5-5.65L15.8 0l-2.55 6" fill="none" stroke="#000" stroke-linecap="round" stroke-linejoin="round" stroke-opacity=".263" stroke-width=".05"/></g><g id="c"><path d="m280.7 238-.15-.1-.45.25-1.05.6-.65.4 13.25 13.65-6.1-10.7-1.5-1.3-.2-.15-.95-.75-.6-.55-1.6-1.35" fill="url(#o)" fill-rule="evenodd" transform="translate(-254 -112.25)"/><path d="m280.1 238.15.45-.25.15.1 1.6 1.35.6.55.95.75.2.15 1.5 1.3-1.15-1.95-1.25-2.25-2.6-1.7 1.55.2 1.15.15 1 .1-.9-1.05-5.45-1.1-2.05-1.35 2.55 6 .65-.4 1.05-.6m-2.2-3.65 2.65 1.7-2.65-1.7" fill="#5f83be" fill-rule="evenodd" transform="translate(-254 -112.25)"/><path d="m283.25 236.55-1.15-.15-1.55-.2 2.6 1.7 1.25 2.25 4.5 2.25-4.65-5.75-1-.1" fill="url(#p)" fill-rule="evenodd" transform="translate(-254 -112.25)"/><path d="m26.1 125.9.45-.25.15.1m1.6 1.35.6.55m.95.75.2.15m-5.65-1.65.65-.4m4.2-2.2 1 .1m-3.7-.45 1.55.2" fill="none" stroke="#d8fbfc" stroke-linecap="round" stroke-linejoin="round" stroke-width=".05"/><path d="m31.55 129.85 6.1 10.7L24.4 126.9m5.85-2.5 4.65 5.75-4.5-2.25-1.25-2.25-2.6-1.7-2.65-1.7-2.05-1.35 2.55 6m7.15 2.95-1.15-1.95m-.15-3.5-.9-1.05-5.45-1.1" fill="none" stroke="#000" stroke-linecap="round" stroke-linejoin="round" stroke-opacity=".263" stroke-width=".05"/><path d="m275.2 182.25 1.9-8.55.65.9 2.7 3.6-2.95-6.3-2.3-1.55v11.9m3.15 6.55-.65 10.35-.35 6 2.3 3.35 1.8 11.15.7-2.35-.5-8.8-2.5-4.15V185.7l-.45-2.65-.3 4.95-.05.8" fill="#82a4cc" fill-rule="evenodd" transform="translate(-254 -112.25)"/><path d="m277.75 174.6-.65-.9-1.9 8.55-1.25 5.95 1.3 3.85 2.45 7.1.65-10.35-1.95-2.25.05-.3 1.3-11.65m1.25 8.95-.3-.5.45 2.65.45 2.6 2.1 3.6v-8.15l-1.15 2.6-1.55-2.8m1.9 12.15 1.25 7.4 1.7-7.65-2.95.25m3.3 25-3.4 1.3.2-.7.45-1.65-2.5.3v-9l.7-2.45-3.35 1.75-3.25-2.65 1.15 3.65.65 2.05 1.85 5.85 1.9 5.7-1.45-4.35-4.3-2.45 4.5 5.75 1.25 1.05.75 2.2.75-2.7 4.1-3.65m-7.5-1.55 2.25-8.2-2.25 8.2m3.4 5.2.7-2.35-.7 2.35" fill="#5f83be" fill-rule="evenodd" transform="translate(-254 -112.25)"/><path d="m275.2 170.35 2.3 1.55 2.95 6.3-.5-2.65-2.8-15.55-1.95 10.35m.6-.25 1.9 1.1 2.25 4.35-2.25-4.35-1.9-1.1" fill="url(#q)" fill-rule="evenodd" transform="translate(-254 -112.25)"/><path d="m280.45 178.2-2.7-3.6-1.3 11.65.3.3 1.65 1.45.3-4.95.3.5 1.55 2 1.15-2.1v-3.5l-1.25-1.75m-2.45-2.4-1.25 10.75L278 175.8" fill="url(#r)" fill-rule="evenodd" transform="translate(-254 -112.25)"/><path d="m276.45 186.25-.05.3 1.95 2.25.05-.8-1.65-1.45-.3-.3m5.25-2.8-1.15 2.1-1.55-2 1.55 2.8 1.15-2.6v-.3m-2.1 4.85-.45-2.6v18.65l2.5 4.15.5 8.8.6-2.35-.55-6.65-2.65-4 .05-16m4 6.75-2.75.35.05.3 2.95-.25-.25-.4m-3.95 13.45-.7 2.45v9l2.5-.3-1.8-11.15m-.05 3v7.8h1.2-1.2v-7.8" fill="#b6e9fb" fill-rule="evenodd" transform="translate(-254 -112.25)"/><path d="m281.7 191.9-2.1-3.6 1.25 7.1 2.75-.35-1.9-3.15" fill="url(#s)" fill-rule="evenodd" transform="translate(-254 -112.25)"/><path d="m280.85 195.4-1.25-7.1-.05 16 2.65 4 .55 6.65.9-3.2-1.5-8.65-1.25-7.4-.05-.3" fill="url(#t)" fill-rule="evenodd" transform="translate(-254 -112.25)"/><path d="m277.7 199.15-2.45-7.1-2.2 15.5v.05l3.25 2.65 3.35-1.75-2.3-3.35.35-6m-.5.15-1.85-5.55 1.85 5.55m-3.3 8 2.7 2.15 2.3-1-2.3 1-2.7-2.15" fill="url(#u)" fill-rule="evenodd" transform="translate(-254 -112.25)"/><path d="m276.7 219.15-1.85-5.85-.65-2.05-1.35 6.8 4.3 2.45-.45-1.35m-2.75-1.4 2.3 1.6-1.4-6.05 1.4 6.05-2.3-1.6" fill="url(#v)" fill-rule="evenodd" transform="translate(-254 -112.25)"/><path d="m282.75 214.95-.6 2.35-.7 2.35-.45 1.65-.2.7 3.4-1.3-1.45-5.75m.95 5.55-2.7.8 2.7-.8" fill="url(#w)" fill-rule="evenodd" transform="translate(-254 -112.25)"/><path d="m23.75 62.35-.65-.9L21.2 70V58.1m5.25 7.85-2.7-3.6m.6 14.2L23.7 86.9l-2.45-7.1-1.3-3.85L21.2 70m5.25-4.05-.5-2.65-2.8-15.55L21.2 58.1m5.25 7.85 1.25 1.75v3.5m-3-.4-.3 4.95-.05.8m3.35-5.05v-.3m0 8.45-2.1-3.6-.45-2.6-.45-2.65m3 .7v8.15l1.9 3.15m-2.75.35-1.25-7.1m3.15 26.65-.6 2.35m0-14.2-1.25-7.4-.05-.3m3 .05-1.7 7.65 1.5 8.65-.9 3.2 1.45 5.75m-3.4 1.3.2-.7.45-1.65.7-2.35m1.7-21.85-.25-.4m-3.95 13.45-2.3-3.35.35-6m-4.65 8.45v-.05l2.2-15.5m4.4 16.45-.7 2.45-2.25 8.2-1.85-5.85L20.2 99l-1.15-3.65m4.1 12.9-.45-1.35m4.75.5-1.8-11.15m-6.8 9.55 4.5 5.75 1.25 1.05.75 2.2.75-2.7 4.1-3.65m-5.6 4.15-1.45-4.35m-4.3-2.45L20.2 99m6.6 10.75-.7 2.35" fill="none" stroke="#000" stroke-linecap="round" stroke-linejoin="round" stroke-opacity=".251" stroke-width=".05"/><path d="m25.95 63.3-2.25-4.35-1.9-1.1m5.9 13.35-1.15 2.1-1.55-2m-.6 4.45-1.65-1.45L24 63.55M22.45 74l.3.3m6.85 8.5-2.75.35m-1.25-7.1-.05 16 2.65 4 .55 6.65M27 109.05l2.7-.8M24.9 96.2l-2.3 1-2.7-2.15m1.45-13.55 1.85 5.55m3.6 20h-1.2v-7.8m-4.75 1.8 1.4 6.05-2.3-1.6" fill="none" stroke="#fff" stroke-linecap="round" stroke-linejoin="round" stroke-width=".05"/><path d="M272.05 193.05q0 1.85 1.45 3.1 1.5 1.3 3.55 1.3 2.1 0 3.55-1.3 1.5-1.25 1.5-3.1t-1.5-3.1q-1.45-1.3-3.55-1.3-2.05 0-3.55 1.3-1.45 1.25-1.45 3.1" fill="url(#x)" fill-rule="evenodd" transform="translate(-254 -112.25)"/><path d="m274.05 182.25-1.9-8.55-.65.9-2.7 3.6 2.95-6.3 2.3-1.55v11.9m-3.15 6.55.65 10.35.35 6-2.3 3.35-1.8 11.15-.7-2.35.5-8.8 2.5-4.15V185.7l.45-2.65.3 4.95.05.8" fill="#82a4cc" fill-rule="evenodd" transform="translate(-254 -112.25)"/><path d="m271.5 174.6.65-.9 1.9 8.55 1.25 5.95-1.3 3.85-2.45 7.1-.65-10.35 1.95-2.25-.05-.3-1.3-11.65m-1.25 8.95.3-.5-.45 2.65-.45 2.6-2.1 3.6v-8.15l1.15 2.6 1.55-2.8m-4.85 11.9 2.95.25-1.25 7.4-1.7-7.65m4.9 15.5-.7-2.45 3.35 1.75 3.25-2.65-1.15 3.65-.65 2.05-1.85 5.85-2.25-8.2 2.25 8.2-1.9 5.7-.75 2.2-.75-2.7-4.1-3.65 3.4 1.3-.2-.7-.45-1.65 2.5.3v-9m6.1 7.1-4.5 5.75-1.25 1.05 1.45-4.35 4.3-2.45m-7.25 6.3-.7-2.35.7 2.35" fill="#5f83be" fill-rule="evenodd" transform="translate(-254 -112.25)"/><path d="m273.45 170.1-1.9 1.1-2.25 4.35 2.25-4.35 1.9-1.1m.6.25-2.3 1.55-2.95 6.3.5-2.65 2.8-15.55 1.95 10.35" fill="url(#y)" fill-rule="evenodd" transform="translate(-254 -112.25)"/><path d="m268.8 178.2 2.7-3.6 1.3 11.65-.3.3-1.65 1.45-.3-4.95-.3.5-1.55 2-1.15-2.1v-3.5l1.25-1.75m2.45-2.4 1.25 10.75-1.25-10.75" fill="url(#z)" fill-rule="evenodd" transform="translate(-254 -112.25)"/><path d="m272.8 186.25.05.3-1.95 2.25-.05-.8 1.65-1.45.3-.3m-2.55-2.7-1.55 2.8-1.15-2.6v-.3l1.15 2.1 1.55-2m-.6 4.75.45-2.6v18.65l-2.5 4.15-.5 8.8-.6-2.35.55-6.65 2.65-4-.05-16m-4 6.75 2.75.35-.05.3-2.95-.25.25-.4m3.95 13.45.7 2.45v9l-2.5-.3 1.8-11.15m.05 3v7.8h-1.2 1.2v-7.8" fill="#b6e9fb" fill-rule="evenodd" transform="translate(-254 -112.25)"/><path d="m267.55 191.9 2.1-3.6-1.25 7.1-2.75-.35 1.9-3.15" fill="url(#A)" fill-rule="evenodd" transform="translate(-254 -112.25)"/><path d="m268.35 195.7.05-.3 1.25-7.1.05 16-2.65 4-.55 6.65-.9-3.2 1.5-8.65 1.25-7.4" fill="url(#B)" fill-rule="evenodd" transform="translate(-254 -112.25)"/><path d="m271.55 199.15 2.45-7.1 2.2 15.5v.05l-3.25 2.65-3.35-1.75 2.3-3.35-.35-6m3.8 8.15-2.7 2.15-2.3-1 2.3 1 2.7-2.15m-3.3-8 1.85-5.55-1.85 5.55" fill="url(#C)" fill-rule="evenodd" transform="translate(-254 -112.25)"/><path d="m272.55 219.15 1.85-5.85.65-2.05 1.35 6.8-4.3 2.45.45-1.35m2.75-1.4-2.3 1.6 1.4-6.05-1.4 6.05 2.3-1.6" fill="url(#D)" fill-rule="evenodd" transform="translate(-254 -112.25)"/><path d="m266.5 214.95.6 2.35.7 2.35.45 1.65-2.7-.8 2.7.8.2.7-3.4-1.3 1.45-5.75" fill="url(#E)" fill-rule="evenodd" transform="translate(-254 -112.25)"/><path d="m17.5 62.35.65-.9 1.9 8.55V58.1m-5.25 7.85 2.7-3.6m-.6 14.2.65 10.35L20 79.8l1.3-3.85L20.05 70m-5.25-4.05.5-2.65 2.8-15.55 1.95 10.35m-6.5 13.4v8.15l2.1-3.6.45-2.6.45-2.65.3 4.95.05.8m-3.35-5.35v-3.5l1.25-1.75m-1.25 5.55v-.3m-1.9 11.6-.25.4m2.95.25.05-.3 1.25-7.1M12.5 102.7l.6 2.35m0-14.2 1.25-7.4m-1.25 7.4-1.7-7.65m4.2 13.05.7 2.45 2.25 8.2 1.85-5.85.65-2.05 1.15-3.65m-6.6.9 2.3-3.35-.35-6m-5.05 15.8-.9-3.2 1.5-8.65M20 79.8l2.2 15.5v.05M11.65 82.8l1.9-3.15m.7 29.4-.45-1.65-.7-2.35m1.35 4.7-.2-.7m3.85-.8.45-1.35m-4.75.5 1.8-11.15m-4.55 12.2 1.45-5.75m9.9 3.1-4.5 5.75-1.25 1.05-.75 2.2-.75-2.7-4.1-3.65m3.4 1.3.7 2.35m1.5.5 1.45-4.35m4.3-2.45L21.05 99" fill="none" stroke="#000" stroke-linecap="round" stroke-linejoin="round" stroke-opacity=".251" stroke-width=".05"/><path d="m15.3 63.3 2.25-4.35 1.9-1.1m-2.6 17.9 1.65-1.45-1.25-10.75m-3.7 7.65 1.15 2.1 1.55-2M18.8 74l-.3.3m-4.1 8.85-2.75-.35m4-6.75.05 16-2.65 4-.55 6.65m3.85-6.5 2.3 1 2.7-2.15M19.9 81.5l-1.85 5.55m-6.5 21.2 2.7.8m.2-2h1.2v-7.8m4.75 1.8L19 107.1l2.3-1.6" fill="none" stroke="#fff" stroke-linecap="round" stroke-linejoin="round" stroke-width=".05"/><path d="M277.2 193.05q0 1.85-1.45 3.1-1.5 1.3-3.55 1.3-2.1 0-3.55-1.3-1.5-1.25-1.5-3.1t1.5-3.1q1.45-1.3 3.55-1.3 2.05 0 3.55 1.3 1.45 1.25 1.45 3.1" fill="url(#F)" fill-rule="evenodd" transform="translate(-254 -112.25)"/><path d="M276.4 150.85 274.5 136l-.65 1.55-2.7 6.25 2.95-10.95 2.3-2.65v20.65m-3.15 11.3.65 17.95.35 10.45-2.3 5.75-1.8 19.3-.7-4.1.5-15.2 2.5-7.15V156.8l.45-4.6.3 8.6.05 1.35" fill="#82a4cc" fill-rule="evenodd" transform="translate(-254 -112.25)"/><path d="m273.85 137.55.65-1.55 1.9 14.85 1.25 10.25-1.3 6.65-2.45 12.35-.65-17.95 1.95-3.9-.05-.55-1.3-20.15m-1.25 15.5.3-.85-.45 4.6-.45 4.55-2.1 6.15v-14.1l1.15 4.5 1.55-4.85m-1.9 21.1-1.25 12.8-1.7-13.3 2.95.5m-3.3 43.25 3.4 2.3-.2-1.2-.45-2.9 2.5.55V200.5l-.7-4.2 3.35 3 3.25-4.6-1.15 6.4-.65 3.5-1.85 10.15-.45 2.3-1.45 7.6 1.45-7.6 4.3-4.25-4.5 10.05-1.25 1.8-.75 3.75-.75-4.65-4.1-6.35m7.5-2.65-2.25-14.25 2.25 14.25m-3.4 9-.7-4.05.7 4.05" fill="#5f83be" fill-rule="evenodd" transform="translate(-254 -112.25)"/><path d="m276.4 130.2-2.3 2.65-2.95 10.95.5-4.55 2.8-27 1.95 17.95m-.6-.5-1.9 2-2.25 7.55 2.25-7.55 1.9-2" fill="url(#G)" fill-rule="evenodd" transform="translate(-254 -112.25)"/><path d="m271.15 143.8 2.7-6.25 1.3 20.15-.3.55-1.65 2.55-.3-8.6-.3.85-1.55 3.45-1.15-3.65v-6.05l1.25-3m2.45-4.15 1.25 18.6-1.25-18.6" fill="url(#H)" fill-rule="evenodd" transform="translate(-254 -112.25)"/><path d="m275.15 157.7.05.55-1.95 3.9-.05-1.35 1.65-2.55.3-.55m-5.25-4.85 1.15 3.65 1.55-3.45-1.55 4.85-1.15-4.5v-.55m2.1 8.5.45-4.55v32.35l-2.5 7.15-.5 15.2-.6-4.05.55-11.45 2.65-6.95-.05-27.7M268 173l2.75.6-.05.55-2.95-.5.25-.65m3.95 23.3.7 4.2v15.65l-2.5-.55 1.8-19.3m.05 5.25V215h-1.2 1.2v-13.45" fill="#b6e9fb" fill-rule="evenodd" transform="translate(-254 -112.25)"/><path d="m269.9 167.5 2.1-6.15-1.25 12.25-2.75-.6 1.9-5.5" fill="url(#I)" fill-rule="evenodd" transform="translate(-254 -112.25)"/><path d="m270.75 173.6 1.25-12.25.05 27.7-2.65 6.95-.55 11.45-.9-5.5 1.5-15 1.25-12.8.05-.55" fill="url(#J)" fill-rule="evenodd" transform="translate(-254 -112.25)"/><path d="m273.9 180.1 2.45-12.35 2.2 26.95-3.25 4.6-3.35-3 2.3-5.75-.35-10.45m.5.2 1.85-9.6-1.85 9.6m3.3 13.9-2.7 3.7-2.3-1.75 2.3 1.75 2.7-3.7" fill="url(#K)" fill-rule="evenodd" transform="translate(-254 -112.25)"/><path d="m274.9 214.75 1.85-10.15.65-3.5 1.35 11.7-4.3 4.25.45-2.3m2.75-2.4-2.3 2.75 1.4-10.5-1.4 10.5 2.3-2.75" fill="url(#L)" fill-rule="evenodd" transform="translate(-254 -112.25)"/><path d="m268.85 207.45.6 4.05.7 4.1.45 2.9.2 1.2-3.4-2.3 1.45-9.95m-.95 9.65 2.7 1.4-2.7-1.4" fill="url(#M)" fill-rule="evenodd" transform="translate(-254 -112.25)"/><path d="m19.85 25.3.65-1.55 1.9 14.85V17.95m-5.25 13.6 2.7-6.25m-.6 24.6.65 17.95 2.45-12.35 1.3-6.65L22.4 38.6m-5.25-7.05.5-4.55 2.8-27 1.95 17.95m-5.25 13.6-1.25 3v6.05m3-.65.3 8.6.05 1.35m-3.35-8.75v-.55m0 14.65L18 49.1l.45-4.55.45-4.6m-3 1.2v14.1l-1.9 5.5m2.75.6L18 49.1m-3.15 46.1.6 4.05m0-24.55 1.25-12.8.05-.55m-3 .05 1.7 13.3-1.5 15 .9 5.5-1.45 9.95m3.4 2.3-.2-1.2-.45-2.9-.7-4.1m-1.7-37.85.25-.65m3.95 23.3 2.3-5.75-.35-10.45m4.65 14.6-2.2-26.95m-4.4 28.55.7 4.2 2.25 14.25 1.85-10.15.65-3.5 1.15-6.4m-4.1 22.35.45-2.3m-4.75.85 1.8-19.3m6.8 16.5-4.5 10.05-1.25 1.8-.75 3.75-.75-4.65-4.1-6.35m5.6 7.25 1.45-7.6m4.3-4.25-1.35-11.7m-6.6 18.6.7 4.05" fill="none" stroke="#000" stroke-linecap="round" stroke-linejoin="round" stroke-opacity=".251" stroke-width=".05"/><path d="m17.65 27 2.25-7.55 1.9-2M15.9 40.6l1.15 3.65 1.55-3.45m.6 7.75L20.85 46 19.6 27.4m1.55 18.05-.3.55M14 60.75l2.75.6M18 49.1l.05 27.7-2.65 6.95-.55 11.45m1.75 11.05-2.7-1.4m4.8-20.95 2.3 1.75 2.7-3.7m-1.45-23.5-1.85 9.6m-3.6 34.7H18V89.3m4.75 3.05-1.4 10.5 2.3-2.75" fill="none" stroke="#fff" stroke-linecap="round" stroke-linejoin="round" stroke-width=".05"/><path d="M279.5 169.5q0 3.15-1.45 5.4-1.5 2.25-3.55 2.25-2.1 0-3.55-2.25-1.5-2.25-1.5-5.4 0-3.2 1.5-5.4 1.45-2.25 3.55-2.25 2.05 0 3.55 2.25 1.45 2.2 1.45 5.4" fill="url(#N)" fill-rule="evenodd" transform="translate(-254 -112.25)"/><path d="M275.5 238.9v-3.6l2.4 2.45 2.45 2.4-4.85-1.25" fill="#7096c5" fill-rule="evenodd" transform="translate(-254 -112.25)"/><path d="m277.9 237.75-2.4-2.45v-4.9l5.35 3.45-1.5 1.95-1.45 1.95m-2.15-6.8 4.6 2.95-4.6-2.95" fill="url(#O)" fill-rule="evenodd" transform="translate(-254 -112.25)"/><path d="m275.8 239.35 4 1-4-1m-.3-.45 4.85 1.25-4.85 5.5v-6.75" fill="url(#P)" fill-rule="evenodd" transform="translate(-254 -112.25)"/><path d="m285.95 230.35-4.4 6.3-2.2-.85 1.5-1.95-1.3-3.9 6.4.4m-5.9-.05 5.1.25-5.1-.25" fill="url(#Q)" fill-rule="evenodd" transform="translate(-254 -112.25)"/><path d="m279 223.35 6.95 7-6.4-.4-2.95-9.05 2.4 2.45" fill="#5f83be" fill-rule="evenodd" transform="translate(-254 -112.25)"/><path d="m280.3 220.45-1.3 2.9-2.4-2.45-.55-1.65 4.25 1.2m-3.95-.8 3.5.95-3.5-.95" fill="url(#R)" fill-rule="evenodd" transform="translate(-254 -112.25)"/><path d="M275.5 230.4v-12.8l1.1 3.3 2.95 9.05 1.3 3.9-5.35-3.45" fill="#82a4cc" fill-rule="evenodd" transform="translate(-254 -112.25)"/><path d="M275.5 217.6v-2.5l.9.25 3.9 5.1-4.25-1.2-.55-1.65" fill="#608abd" fill-rule="evenodd" transform="translate(-254 -112.25)"/><path d="M21.5 123.05v3.6m4.85 1.25-2.45-2.4-2.4-2.45v-20.2l.9.25 3.9 5.1-1.3 2.9 6.95 7-4.4 6.3-2.2-.85-1.45 1.95m2.45 2.4-4.85 5.5v-6.75M25 111.1l-2.4-2.45 2.95 9.05 1.3 3.9-1.5 1.95M22.05 107l-.55-1.65m.55 1.65.55 1.65" fill="none" stroke="#000" stroke-linecap="round" stroke-linejoin="round" stroke-opacity=".263" stroke-width=".05"/><path d="m25.8 128.1-4-1m4.55-5.45-4.6-2.95m9.4-.4-5.1-.25m-.2-9.7-3.5-.95" fill="none" stroke="#fff" stroke-linecap="round" stroke-linejoin="round" stroke-width=".05"/><path d="m275.55 235.3-2.4 2.45-2.45 2.4 4.85-1.25v-3.6" fill="#7096c5" fill-rule="evenodd" transform="translate(-254 -112.25)"/><path d="m271.7 235.8 1.45 1.95 2.4-2.45v-4.9l-5.35 3.45 1.5 1.95m3.6-4.85-4.6 2.95 4.6-2.95" fill="url(#S)" fill-rule="evenodd" transform="translate(-254 -112.25)"/><path d="m270.7 240.15 4.85 5.5v-6.75l-4.85 1.25m4.55-.8-4 1 4-1" fill="url(#T)" fill-rule="evenodd" transform="translate(-254 -112.25)"/><path d="m271.7 235.8-1.5-1.95 1.3-3.9-6.4.4 4.4 6.3 2.2-.85m-.7-5.5-5.1.25 5.1-.25" fill="url(#U)" fill-rule="evenodd" transform="translate(-254 -112.25)"/><path d="m265.1 230.35 6.4-.4 2.95-9.05-2.4 2.45-6.95 7" fill="#5f83be" fill-rule="evenodd" transform="translate(-254 -112.25)"/><path d="m272.05 223.35 2.4-2.45.55-1.65-4.25 1.2 1.3 2.9m2.65-3.7-3.5.95 3.5-.95" fill="url(#V)" fill-rule="evenodd" transform="translate(-254 -112.25)"/><path d="m270.2 233.85 5.35-3.45v-12.8l-1.1 3.3-2.95 9.05-1.3 3.9" fill="#82a4cc" fill-rule="evenodd" transform="translate(-254 -112.25)"/><path d="m275 219.25.55-1.65v-2.5l-.9.25-3.9 5.1 4.25-1.2" fill="#608abd" fill-rule="evenodd" transform="translate(-254 -112.25)"/><path d="m19.15 125.5-1.45-1.95-1.5-1.95m5.35-3.45v4.9l-2.4 2.45-2.45 2.4 4.85 5.5v-10.35m-3.85.5-2.2.85-4.4-6.3m6.4-.4-1.3 3.9m1.85-10.5 2.4-2.45-2.95 9.05M21 107l.55-1.65v12.8m0-12.8v-2.5l-.9.25-3.9 5.1 1.3 2.9-6.95 7M21 107l-.55 1.65" fill="none" stroke="#000" stroke-linecap="round" stroke-linejoin="round" stroke-opacity=".263" stroke-width=".05"/><path d="m17.25 128.1 4-1m-4.05-18.75 3.5-.95m-8.8 10.9 5.1-.25m-.3 3.6 4.6-2.95" fill="none" stroke="#fff" stroke-linecap="round" stroke-linejoin="round" stroke-width=".05"/><path d="m274.95 226.75 2.4 2.45 2.45 2.4-4.85-1.25v-3.6" fill="#7096c5" fill-rule="evenodd" transform="translate(-254 -112.25)"/><path d="m278.8 227.25-1.45 1.95-2.4-2.45v-4.9l5.35 3.45-1.5 1.95m-3.6-4.85 4.6 2.95-4.6-2.95" fill="url(#W)" fill-rule="evenodd" transform="translate(-254 -112.25)"/><path d="m279.8 231.6-4.85 5.5v-6.75l4.85 1.25m-4.55-.8 4 1-4-1" fill="url(#X)" fill-rule="evenodd" transform="translate(-254 -112.25)"/><path d="m278.8 227.25 1.5-1.95-1.3-3.9 6.4.4-4.4 6.3-2.2-.85m.7-5.5 5.1.25-5.1-.25" fill="url(#Y)" fill-rule="evenodd" transform="translate(-254 -112.25)"/><path d="m285.4 221.8-6.4-.4-2.95-9.05 2.4 2.45 6.95 7" fill="#5f83be" fill-rule="evenodd" transform="translate(-254 -112.25)"/><path d="m278.45 214.8-2.4-2.45-.55-1.65 4.25 1.2-1.3 2.9m-2.65-3.7 3.5.95-3.5-.95" fill="url(#Z)" fill-rule="evenodd" transform="translate(-254 -112.25)"/><path d="m280.3 225.3-5.35-3.45v-12.8l1.1 3.3 2.95 9.05 1.3 3.9" fill="#82a4cc" fill-rule="evenodd" transform="translate(-254 -112.25)"/><path d="m275.5 210.7-.55-1.65v-2.5l.9.25 3.9 5.1-4.25-1.2" fill="#608abd" fill-rule="evenodd" transform="translate(-254 -112.25)"/><path d="M23.35 116.95 24.8 115l1.5-1.95m-5.35-3.45v4.9l2.4 2.45 2.45 2.4-4.85 5.5V114.5m3.85.5 2.2.85 4.4-6.3m-6.4-.4 1.3 3.9m-1.85-10.5-2.4-2.45 2.95 9.05m-3.5-10.7-.55-1.65v12.8m0-12.8v-2.5l.9.25 3.9 5.1-1.3 2.9 6.95 7m-9.9-11.1.55 1.65" fill="none" stroke="#000" stroke-linecap="round" stroke-linejoin="round" stroke-opacity=".263" stroke-width=".05"/><path d="m25.25 119.55-4-1M25.3 99.8l-3.5-.95m8.8 10.9-5.1-.25m.3 3.6-4.6-2.95" fill="none" stroke="#fff" stroke-linecap="round" stroke-linejoin="round" stroke-width=".05"/><path d="M274.95 230.35v-3.6l-2.4 2.45-2.45 2.4 4.85-1.25" fill="#7096c5" fill-rule="evenodd" transform="translate(-254 -112.25)"/><path d="m272.55 229.2 2.4-2.45v-4.9l-5.35 3.45 1.5 1.95 1.45 1.95m2.15-6.8-4.6 2.95 4.6-2.95" fill="url(#aa)" fill-rule="evenodd" transform="translate(-254 -112.25)"/><path d="m274.65 230.8-4 1 4-1m.3-.45-4.85 1.25 4.85 5.5v-6.75" fill="url(#ab)" fill-rule="evenodd" transform="translate(-254 -112.25)"/><path d="m264.5 221.8 4.4 6.3 2.2-.85-1.5-1.95 1.3-3.9-6.4.4m5.9-.05-5.1.25 5.1-.25" fill="url(#ac)" fill-rule="evenodd" transform="translate(-254 -112.25)"/><path d="m271.45 214.8-6.95 7 6.4-.4 2.95-9.05-2.4 2.45" fill="#5f83be" fill-rule="evenodd" transform="translate(-254 -112.25)"/><path d="m270.15 211.9 1.3 2.9 2.4-2.45.55-1.65-4.25 1.2m3.95-.8-3.5.95 3.5-.95" fill="url(#ad)" fill-rule="evenodd" transform="translate(-254 -112.25)"/><path d="M274.95 221.85v-12.8l-1.1 3.3-2.95 9.05-1.3 3.9 5.35-3.45" fill="#82a4cc" fill-rule="evenodd" transform="translate(-254 -112.25)"/><path d="M274.95 209.05v-2.5l-.9.25-3.9 5.1 4.25-1.2.55-1.65" fill="#608abd" fill-rule="evenodd" transform="translate(-254 -112.25)"/><path d="M20.95 114.5v3.6m-4.85 1.25 2.45-2.4 2.4-2.45V94.3l-.9.25-3.9 5.1 1.3 2.9-6.95 7 4.4 6.3 2.2-.85 1.45 1.95m-2.45 2.4 4.85 5.5v-6.75m-3.5-15.55 2.4-2.45-2.95 9.05-1.3 3.9 1.5 1.95m3.3-16.55.55-1.65m-.55 1.65-.55 1.65" fill="none" stroke="#000" stroke-linecap="round" stroke-linejoin="round" stroke-opacity=".263" stroke-width=".05"/><path d="m16.65 119.55 4-1m-4.55-5.45 4.6-2.95m-9.4-.4 5.1-.25m.2-9.7 3.5-.95" fill="none" stroke="#fff" stroke-linecap="round" stroke-linejoin="round" stroke-width=".05"/><path d="M275.5 255.35v-3.6l2.4 2.45 2.45 2.4-4.85-1.25" fill="#7096c5" fill-rule="evenodd" transform="translate(-254 -112.25)"/><path d="m277.9 254.2-2.4-2.45v-4.9l5.35 3.45-1.5 1.95-1.45 1.95m-2.15-6.8 4.6 2.95-4.6-2.95" fill="url(#ae)" fill-rule="evenodd" transform="translate(-254 -112.25)"/><path d="m275.8 255.8 4 1-4-1m-.3-.45 4.85 1.25-4.85 5.5v-6.75" fill="url(#af)" fill-rule="evenodd" transform="translate(-254 -112.25)"/><path d="m285.95 246.8-4.4 6.3-2.2-.85 1.5-1.95-1.3-3.9 6.4.4m-5.9-.05 5.1.25-5.1-.25" fill="url(#ag)" fill-rule="evenodd" transform="translate(-254 -112.25)"/><path d="m279 239.8 6.95 7-6.4-.4-2.95-9.05 2.4 2.45" fill="#5f83be" fill-rule="evenodd" transform="translate(-254 -112.25)"/><path d="m280.3 236.9-1.3 2.9-2.4-2.45-.55-1.65 4.25 1.2m-3.95-.8 3.5.95-3.5-.95" fill="url(#ah)" fill-rule="evenodd" transform="translate(-254 -112.25)"/><path d="M275.5 246.85v-12.8l1.1 3.3 2.95 9.05 1.3 3.9-5.35-3.45" fill="#82a4cc" fill-rule="evenodd" transform="translate(-254 -112.25)"/><path d="M275.5 234.05v-2.5l.9.25 3.9 5.1-4.25-1.2-.55-1.65" fill="#608abd" fill-rule="evenodd" transform="translate(-254 -112.25)"/><path d="M21.5 139.5v3.6m4.85 1.25-2.45-2.4-2.4-2.45v-20.2l.9.25 3.9 5.1-1.3 2.9 6.95 7-4.4 6.3-2.2-.85-1.45 1.95m2.45 2.4-4.85 5.5v-6.75m3.5-15.55-2.4-2.45 2.95 9.05 1.3 3.9-1.5 1.95m-3.3-16.55-.55-1.65m.55 1.65.55 1.65" fill="none" stroke="#000" stroke-linecap="round" stroke-linejoin="round" stroke-opacity=".263" stroke-width=".05"/><path d="m25.8 144.55-4-1m4.55-5.45-4.6-2.95m9.4-.4-5.1-.25m-.2-9.7-3.5-.95" fill="none" stroke="#fff" stroke-linecap="round" stroke-linejoin="round" stroke-width=".05"/><path d="m275.5 251.75-2.4 2.45-2.45 2.4 4.85-1.25v-3.6" fill="#7096c5" fill-rule="evenodd" transform="translate(-254 -112.25)"/><path d="m271.65 252.25 1.45 1.95 2.4-2.45v-4.9l-5.35 3.45 1.5 1.95m3.6-4.85-4.6 2.95 4.6-2.95" fill="url(#ai)" fill-rule="evenodd" transform="translate(-254 -112.25)"/><path d="m270.65 256.6 4.85 5.5v-6.75l-4.85 1.25m4.55-.8-4 1 4-1" fill="url(#aj)" fill-rule="evenodd" transform="translate(-254 -112.25)"/><path d="m271.65 252.25-1.5-1.95 1.3-3.9-6.4.4 4.4 6.3 2.2-.85m-.7-5.5-5.1.25 5.1-.25" fill="url(#ak)" fill-rule="evenodd" transform="translate(-254 -112.25)"/><path d="m265.05 246.8 6.4-.4 2.95-9.05-2.4 2.45-6.95 7" fill="#5f83be" fill-rule="evenodd" transform="translate(-254 -112.25)"/><path d="m272 239.8 2.4-2.45.55-1.65-4.25 1.2 1.3 2.9m2.65-3.7-3.5.95 3.5-.95" fill="url(#al)" fill-rule="evenodd" transform="translate(-254 -112.25)"/><path d="m270.15 250.3 5.35-3.45v-12.8l-1.1 3.3-2.95 9.05-1.3 3.9" fill="#82a4cc" fill-rule="evenodd" transform="translate(-254 -112.25)"/><path d="m274.95 235.7.55-1.65v-2.5l-.9.25-3.9 5.1 4.25-1.2" fill="#608abd" fill-rule="evenodd" transform="translate(-254 -112.25)"/><path d="M19.1 141.95 17.65 140l-1.5-1.95m5.35-3.45v4.9l-2.4 2.45-2.45 2.4 4.85 5.5V139.5m-3.85.5-2.2.85-4.4-6.3m6.4-.4-1.3 3.9m1.85-10.5 2.4-2.45-2.95 9.05m3.5-10.7.55-1.65v12.8m0-12.8v-2.5l-.9.25-3.9 5.1 1.3 2.9-6.95 7m9.9-11.1-.55 1.65" fill="none" stroke="#000" stroke-linecap="round" stroke-linejoin="round" stroke-opacity=".263" stroke-width=".05"/><path d="m17.2 144.55 4-1m-4.05-18.75 3.5-.95m-8.8 10.9 5.1-.25m-.3 3.6 4.6-2.95" fill="none" stroke="#fff" stroke-linecap="round" stroke-linejoin="round" stroke-width=".05"/><path d="m259.55 260.7.75.3.2.4v1.9l.2.4h-.45l-.4-1.5-.3-1.5m1.55.55.65.25-.5.2.5-.2.65 2.25.85.85-.7.6.7-.6.85.85-.65.6-.9-.85-.55-1.5.4.05-.4-.05-.75-2-.15-.45m11.5 16.65v1.55l-2.25.85 2.25-2.4m-10.45-10.6-1.2-.65-.7-2.95h.45l1.15 2.15.55 1.15-.25.3m28.9-4.4-.3.85v.7l-.1.1-.65 1.55.15.05v.55h-.5l-.2.45v.65h-.8l-.2-.25 1.35-1.65.2.2-.2-.2.3-2.05.55.7-.55-.7.95-1.3.25-.35.3-.1v.45h-.55.55l-.55.35m-2.2 2.15-.3.35-1 1-.1-.15-.15-.4.15.4.1.15-1.35 1.7v-.75.75l-3.9 1.4.2-.75-.2-.25 2.05-.95 1.85-.2.45-1 .65-.5-.05-.4h.6v-1l.05-.05.75-.6-.1.65.3.6-.3-.6.1-.65.65-.95.1.1.1 1.5-.65.6m-.3.35-.1-.25-.55-.75.55.75.1.25m.55-1.9v.75l-.4.5.4-.5v-.75m-20.7 4.65-.35.4-3.95-1.85v-.55.55l-.65-.65.65-.6v.7h1.45l2.85 2m-8.55-5.95.65-.25-.65.25m1.1 4.45.9-.8-.9.8m21.8 2.4 3.15-1.15-3.15 1.15m5.7-3.9-1 1.1 1-1.1m-2.05 2.4 1.05-1.3-1.05 1.3" fill="#a3e2fa" fill-rule="evenodd" transform="translate(-254 -112.25)"/><path d="m260.3 261 .8.25.15.45.75 2 .55 1.5-.7.65.7-.65.9.85-1.05.95 1.05-.95.65.65 3.95 1.85 1.45 3.9.4.45-1.8-.8-1.35-2.25-4.35-2.85-.55-1.15-1.15-2.15-.2-.4v-1.9l-.2-.4m13.75 23 .1-3.35.6.55h.3l.7.45 1.25-.75v-.85l.35-.45v3.7l-.4-.2-.3.15.25.7-1.7.7h-.55l.2-1-.4-.2-.4.55m1.1 2.65h.9l-.4 1-.5-1m2.75-9.2-2.3.75-2.5-.3 2.35-1.05h2.25l-1.3-3.4 2.05 2.2-.55 1.8m-4.8.45-.6-2.05 2.25-2.35-1.65 4.4m15.35-10.35-.25.3-1.6 1.95-3.1 2.05-1.3 1.2-.65-.5.75-3.05 3.9-1.4v.75-.75l1.35-1.7 1-1 .3-.35.1.15.85.7-.85-.7-.1-.15.65-.6-.1-1.5.7.9-.7-.9-.05-.7.95.3 1-.35-.25.35h-.75.75l-.95 1.3-.3 2.05-1.35 1.65-.65-.6-.25-.55.25.55.65.6m6.2-10.75-1.05 1.35-.7.95-1.1.3.1-.4-1.3-.55v-.95l1.6.35-.45-.95v-1.15l1.7 1.45-.2-.95.85-1.05.55 1.6m-5 6.1-.3-.65.3.65m3.95-4.75-.15-.95.15.95m-1.2.05-.2-.35.2.35m-24.35 10.35.35-.4 1.35-1.4h1.75l1.2.65-1.7-3.15 2.35-2.05.1-4.35 1.75-1.2 2.7 1.5-.15 4.95 1.7 2.2-1.05 1.3h1.05l2.6 1.65.25.2-2.7-.65-5.1 1.8-3.1-1.7-2.35.65h-1m7.7-.6h.7l1.95-1.35-1.95 1.35h-.7m-15.05-4.25h1.3-1.3m3.4 3.45v-.45.45m-2.85-5.45-.75.25.75-.25m11.45 5.7 1.25.65.65.2-.65-.2-1.25-.65" fill="#5f83be" fill-rule="evenodd" transform="translate(-254 -112.25)"/><path d="M277.35 283.3v1.3l-2.55 1.2-.8-.75.05-1.05.4-.55.4.2-.2 1h.55l1.7-.7-.25-.7.3-.15.4.2m-3.15-3.55v-.2l.95-.65 2.2.35v.35l-.35.45h-2.4l-.4-.3" fill="#fff" fill-rule="evenodd" transform="translate(-254 -112.25)"/><path d="m280.5 274.55-2.05 1.1.1-.3-.1.3-2.05-2.2 4.1 1.1m-1.1-.05-.95.65-.45-.9.45.9.95-.65" fill="url(#am)" fill-rule="evenodd" transform="translate(-254 -112.25)"/><path d="m272.5 275.85-1.3-.75 3.55-1.6-2.25 2.35m-.55-.6h.45l.9-.7-.9.7h-.45" fill="url(#an)" fill-rule="evenodd" transform="translate(-254 -112.25)"/><path d="m274.15 280.65.05-.9.4.3h2.4v.85l-1.25.75-.7-.45h-.3l-.6-.55" fill="url(#ao)" fill-rule="evenodd" transform="translate(-254 -112.25)"/><path d="m274.05 284-.05 1.05.8.75 2.55-1.2v-5.35l-2.2-.35-.95.65v.2l-.05.9-.1 3.35m2 2.65h-.9l-1.55-.55-1-1.75v-6.45h.5l2.5.3 2.3-.75v.35l1.7 1.4.6 1.25-1.75-.55.3 3.35-1 2.85-1.7.55m1.9-7.5.4 4.05-.85 2.45.85-2.45-.4-4.05m-4.9-.35v5.65l.7 1.35-.7-1.35v-5.65" fill="url(#ap)" fill-rule="evenodd" transform="translate(-254 -112.25)"/><path d="m259.55 260.7-4.3-2-1.25-2.4 1-.6v.85l.8-.85.9 1.4 1.45.95-.7-.7v-1.95l1.1-.15.55 1.75 1.8 1.35h1.6l1.3-2.1h1.2l-.55 1.4V259l-.6 1.4-2.1 1.1-.65-.25-.8-.25-.75-.3m-.7-1.95-.7-.7.7.7m-3-.5-.85-1.7.85 1.7" fill="url(#aq)" fill-rule="evenodd" transform="translate(-254 -112.25)"/><path d="m289.4 262.95-.1-.1-.25-.45.1-.3-.7-1.6.45-1.35-.3-1.25 1.3.55.3 1.4 1.6-.45 1.1-.3.7-.95 1.05-1.35 2.5-.4-5.85 5.8-1 .35-.95-.3.05.7" fill="url(#ar)" fill-rule="evenodd" transform="translate(-254 -112.25)"/><path d="m282.05 268.25-2.6-1.65h-1.05l1.05-1.3-1.7-2.2.15-4.95 1 .6v3.7l1.8 2.35 1.35 3.45m-3.85-9.2v3.7l1.9 2.55-.65 1.3.65-1.3-1.9-2.55v-3.7" fill="url(#as)" fill-rule="evenodd" transform="translate(-254 -112.25)"/><path d="M273.05 258.85v3.3l-2.65 2.2 1.1 2.4-1.1-2.4 2.65-2.2v-3.3m-.35 8.55-1.2-.65h-1.75v-3.15l1.9-1.6v-3l1.8-1.15-.1 4.35-2.35 2.05 1.7 3.15" fill="url(#at)" fill-rule="evenodd" transform="translate(-254 -112.25)"/><path d="m276.4 273.45 1.3 3.4h-2.25l-2.35 1.05 1.65-4.4-3.55 1.6-.7-.4h-.95v-.75l-2.15-.75-1.05-2.6-4.2-3.3.25-.3 4.35 2.85 1.35 2.25 1.8.8-.4-.45-1.45-3.9h1l2.35-.65 3.1 1.7 5.1-1.8 2.7.65v.05l.2.25-.2.75-.75 3.05.65.5 1.3-1.2 3.1-2.05 1.6-1.95.25-.3.2.25h.4v.75l-.9.9-.25.45h-.65l-.45.9-2.3 1.05-.2 1.05-2.95 1.65h-.85l-4.1-1.1m5.45.05.95-.25 1-1.2 3-2.1 1.4-2.1-1.4 2.1-3 2.1-1 1.2-.95.25m-11.55-.2-.4-.4.4.4m-1.25-4.25 2.3-.6 3.3 1.65 5-1.8 1.9.5-1.9-.5-5 1.8-3.3-1.65-2.3.6m11.8 4.3.7-.8-.7.8m7.3-4.6v.7-.7" fill="url(#au)" fill-rule="evenodd" transform="translate(-254 -112.25)"/><path d="M1 144.3v-.85l-1 .6 1.25 2.4 4.3 2 .75.3.8.25.65.25 2.1-1.1.6-1.4v-1.35L11 144H9.8l-1.3 2.1H6.9l-1.8-1.35-.55-1.75-1.1.15v1.95l1.4 1.4m-.7-.7-1.45-.95-.9-1.4-.8.85.85 1.7m21.5 25.05v1.3l-2.55 1.2-.8-.75.05-1.05.1-3.35.05-.9v-.2l.95-.65 2.2.35v4.05l-.4-.2-.3.15.25.7-1.7.7h-.55l.2-1-.4-.2-.4.55m2 2.65h-.9l.5 1 .4-1 1.7-.55 1-2.85-.3-3.35 1.75.55-.6-1.25-1.7-1.4v-.35m-4.8.45h-.5v6.45l1 1.75 1.55.55m1.85-6.6v.85l-1.25.75-.7-.45h-.3l-.6-.55m3.2-1.05-.35.45h-2.4l-.4-.3m-1.1-1.85-.6-2.05-1.3-.75-.7-.4h-.95v-.75l-2.15-.75-1.05-2.6-4.2-3.3-1.2-.65-.7-2.95-.4-1.5-.3-1.5M18.6 167.2l-2.25.85 2.25-2.4m18.45-15-.3.85v.7l-.1.1-.65 1.55.15.05v.55h-.5l-.2.45v.65h-.4v.75l-.9.9-.25.45h-.65l-.45.9-2.3 1.05-.2 1.05-2.95 1.65h-.85l-2.05 1.1-.55 1.8m11.15-9.65h-.4l-.2-.25m1.35-1.65-.85-.7-.1-.15-.3-.6.1-.65-.75.6.55.75.1.25m-1 1 .25.55.65.6m1.35-1.65.2.2m.1-2.25-.7-.9-.1-.1-.65.95m2 .75-.55-.7m4.55-7.05-1.05 1.35-.7.95-1.1.3-1.6.45-.3-1.4-1.3-.55.3 1.25-.45 1.35.7 1.6m1.15.45-.95-.3m2.25-.15-.3.1-1 .35h1.3m.6-4.7-1.6-.35v.95l1.3.55-.1.4m-.5 2.8 5.85-5.8-2.5.4-.55-1.6-.85 1.05.2.95.15.95m-.15-.95-1.7-1.45v1.15l.45.95.2.35m-30 8.8-.25.3m5.9 1.25 1.45 3.9.4.45.4.4m-1.9-5.15-.35.4m14.25-.1-.25-.2-2.6-1.65H24.4l-1.95 1.35h-.7m-6-1.2h1.75l1.2.65m.75-9.55-1.8 1.15v3l-1.9 1.6v3.15l-1.35 1.4-2.85-2H10.1v1m-1.55-1.95-.7.65-.9.8m1.45.35 1.05-.95m-.9-.85.7-.6-.85-.85-.4-.05H6.25m.25-1.75-.65.25m4.25 3.25-.85-.85m.85.85-.65.6m.65.1v-.7m-2.85-3.75.5-.2.65 2.25m-1.9-1.8.75-.25m17.2 13.95.1-.3M20.6 156l-.65-.2-1.25-.65m7.8 7.15-4.1-1.1m5.15-.9-.7.8m5.35-5.25v-.75l-1.85.2-2.05.95.2.25-.2.75m3.9-1.4v.75m1.95.6v-.7m-5.85-.25v-.05m-.75 4.1.75-3.05m3.9-2.15.45-1 .65-.5-.05-.4h.6v-1l.05-.05m-.6 1.45.15.4.1.15m-9.65-8.25-2.7-1.5-1.75 1.2m8.6 10.4-1.35-3.45-1.8-2.35v-3.7l-1-.6m-3.15 15.35-3.55 1.6" fill="none" stroke="#000" stroke-linecap="round" stroke-linejoin="round" stroke-opacity=".251" stroke-width=".05"/><path d="m23.5 173.4.85-2.45-.4-4.05m-4.2 6.65-.7-1.35v-5.65M34.2 155.6l-1.4 2.1-3 2.1-1 1.2-.95.25m6.85-8.75.4-.5v-.75M19.3 162.3l-.9.7h-.45m9.6-6.45-1.9-.5-5 1.8-3.3-1.65-2.3.6m2.45-2.3-1.1-2.4 2.65-2.2v-3.3M24 162l.45.9.95-.65m6.5-6.6-3.15 1.15m4.7-2.8 1-1.1m-9 1.45.65-1.3-1.9-2.55v-3.7m9.25 7.2-1.05 1.3" fill="none" stroke="#d5fffc" stroke-linecap="round" stroke-linejoin="round" stroke-width=".05"/><path d="m35.15 149.85-.1.3.25.45m.05-.6.3.65m1.95-.35v-.45m0 .45-.55.35" fill="none" stroke="#000" stroke-linecap="round" stroke-linejoin="round" stroke-opacity=".251" stroke-width=".05"/></g><g id="d"><path d="M-5.2 0q0-2.15 1.55-3.65Q-2.15-5.2 0-5.2t3.65 1.55Q5.2-2.15 5.2 0q0 2.1-1.55 3.65Q2.15 5.2 0 5.2t-3.65-1.55Q-5.2 2.1-5.2 0" fill="#00b8a3" fill-rule="evenodd" transform="translate(5.2 5.2)"/><path d="m-2.45 3.3-.45-.4-.6-.7-.3-.55L-4.1 0q0-1.25.6-2.2l.6-.7Q-1.8-4-.15-4.1H0l.7.1 1 .3q.6 1.05.5 1.9l-.05 1-.1.8-.5 1.35q-.35.7-1.5 1.3-1.1.6-2.5.65m1.9-6.4q-.3.05-.8.7l-.05.2.25.45q1.2.4 1.55-.8l-.1-.5-.85-.05M-2.4-.35l-.05.05q-.3.7.05 1.6.45 1.35 1.9.95.9-.3.9-1.1l-.5.05-.65.2-.35-.25q-.25-.75.35-1.3l.1-.1q-.6-.75-1.5-.25l-.2.1-.05.05.2-.35-.45.55.25-.2" fill="url(#av)" fill-rule="evenodd" transform="translate(5.2 5.2)"/><path d="m1.7-3.7.35.15.8.65q.75.75 1 1.7l.2 1.2-.35 1.65-.45.8L3 2.7l-.15.2-.6.45-.15.15-.85.35-.15.05-.4.1-.7.1h-.05q-1.35-.05-2.4-.8 1.4-.05 2.5-.65 1.15-.6 1.5-1.3L2.05 0l.1-.8.05-1q.1-.85-.5-1.9" fill="#07d9cb" fill-rule="evenodd" transform="translate(5.2 5.2)"/><path d="m-.55-3.1.85.05.1.5q-.35 1.2-1.55.8l-.25-.45.05-.2q.5-.65.8-.7M-2.4-.35l.05-.05.2-.1q.9-.5 1.5.25l-.1.1q-.6.55-.35 1.3l.35.25.65-.2.5-.05q0 .8-.9 1.1-1.45.4-1.9-.95-.35-.9-.05-1.6l.05-.05" fill="#5bfefe" fill-rule="evenodd" transform="translate(5.2 5.2)"/><path d="m-2.4-.35-.25.2.45-.55-.2.35" fill="#2cf7d5" fill-rule="evenodd" transform="translate(5.2 5.2)"/><path d="m2.75 8.5-.45-.4-.6-.7-.3-.55-.3-1.65q0-1.25.6-2.2l.6-.7q1.1-1.1 2.75-1.2h.15l.7.1 1 .3.35.15.8.65q.75.75 1 1.7l.2 1.2-.35 1.65-.45.8-.25.25-.15.2-.6.45-.15.15-.85.35-.15.05-.4.1-.7.1h-.05q-1.35-.05-2.4-.8z" fill="none" stroke="#00a3a3" stroke-linecap="round" stroke-linejoin="round" stroke-opacity=".243" stroke-width=".05"/></g><path d="m275.95 265.7-.5.15-.45-.15-.2-.5.2-.45.45-.2.5.2.2.45-.2.5" fill="#fff" fill-rule="evenodd" transform="translate(-274.8 -264.55)" id="e"/><path d="M276 231.05q-.4.95-.95.95-.6 0-1-.95-.4-1.05-.4-2.45t.4-2.35q.4-1 1-1 .55 0 .95 1 .4.95.4 2.35t-.4 2.45" fill="#fff" fill-rule="evenodd" transform="translate(-273.65 -225.25)" id="f"/></defs></svg>