<svg viewBox="0 0 40.451 70.863" xmlns="http://www.w3.org/2000/svg" xmlns:xlink="http://www.w3.org/1999/xlink"><use transform="scale(1.8707 2.0407)" width="21.6" height="34.7" xlink:href="#a"/><defs><use width="21.6" height="34.7" xlink:href="#b" id="a"/><g id="b"><path d="m-3.95-21.9.35-.15H.1l.55.15h-4.6" fill="#ada088" fill-rule="evenodd" transform="translate(12.15 28.8)"/><path d="M6.3-19.95q1.6-.8 3.1-1.7.25.9-.35 1.85l-2.75-.15" fill="#db6e55" fill-rule="evenodd" transform="translate(12.15 28.8)"/><path d="M9.4-21.65q-1.5.9-3.1 1.7l.7-2.1q.05.25 1.3-.35.5.45 1.1.75" fill="#ff9279" fill-rule="evenodd" transform="translate(12.15 28.8)"/><path d="M.75-27.4 0-24l-1.1-2.5q.75-.9 1.85-.9" fill="#db6e55" fill-rule="evenodd" transform="translate(12.15 28.8)"/><path d="m0-24 .75-3.4 1.1.75q-.05 1.3.2 1.4L0-24" fill="#ff9279" fill-rule="evenodd" transform="translate(12.15 28.8)"/><path d="m-11.6-17.35 3.05-2.75-.7 2.5-2.35.25" fill="#db6e55" fill-rule="evenodd" transform="translate(12.15 28.8)"/><path d="m-8.55-20.1-3.05 2.75-.55-1q1.05-1.15.85-1.3l2.75-.45" fill="#ff9279" fill-rule="evenodd" transform="translate(12.15 28.8)"/><path d="m-7.8-19.05-1.2 2.7-1.05-1.95 2.25-.75" fill="#339c1b" fill-rule="evenodd" transform="translate(12.15 28.8)"/><path d="m-9-16.35 1.2-2.7 1.2 2.6-2.4.1" fill="#57c03f" fill-rule="evenodd" transform="translate(12.15 28.8)"/><path d="m5.6-12.15-1.05-1.2 2.25-2.4-1.2 3.6" fill="#339c1b" fill-rule="evenodd" transform="translate(12.15 28.8)"/><path d="M6.8-15.75 8-14l-2.4 1.85 1.2-3.6" fill="#57c03f" fill-rule="evenodd" transform="translate(12.15 28.8)"/><path d="m-2.05-24.5-4.25-4.3 2.9.8 1.35 3.5" fill="#ff4e35" fill-rule="evenodd" transform="translate(12.15 28.8)"/><path d="m-6.3-28.8 4.25 4.3-2.2-.5-2.05-3.8" fill="#db2a11" fill-rule="evenodd" transform="translate(12.15 28.8)"/><path d="m1.5 4.6-1.25.25L-.1 5.9l-2.5-1.75L0 3-.9.6l-1-4.35-.4-1.3.15-.75.15.8v-1.25l.5-2.1 2-2.2.05 3.35.7-3.7.25-1.2.15-.95 1.45-.65.75.45L1.8-1l-1 2.9.7 2.7" fill="#fffcf2" fill-rule="evenodd" transform="translate(12.15 28.8)"/><path d="m1.8-1 .95 5.3-1.25.3-.7-2.7 1-2.9m-4.4 5.15-.55-.4L-.9.6 0 3l-2.6 1.15m.7-7.9-.95-.85-1.35-4.95.25-.55 1.65 5.05.4 1.3m3.15-7.15-.7 3.7-.05-3.35.75-.35M-2-6.25V-5l-.15-.8.15-.45" fill="#ebe8df" fill-rule="evenodd" transform="translate(12.15 28.8)"/><path d="m-6.8-20.75 2.85-1.15h4.6l3.1.85L7-17.95l-3.3-.6-2-1.1-.45-.25-.8-.8-4.55.55-2.7-.6" fill="#ada088" fill-rule="evenodd" transform="translate(12.15 28.8)"/><path d="m1.25-19.9.45.25-.45-.25" fill="#beb196" fill-rule="evenodd" transform="translate(12.15 28.8)"/><path d="m5.25-12.45-.05.1L1.8-1l2.05-12.25 1.4.8" fill="#e0ddd4" fill-rule="evenodd" transform="translate(12.15 28.8)"/><path d="m-6.6-18.4-.2-2.35 2.7.6 4.55-.55.05 8.35-.85-1.1-1.05.35-.75 1.6-.2-6.75-1.7 1.2 1 5.95-.55.3-.35.7-2.65-8.3m9 1.55 2 .9-.55 2.7-.75-.45-1.45.65.75-3.8" fill="#bcc4c7" fill-rule="evenodd" transform="translate(12.15 28.8)"/><path d="m-4.2-9.55-3.3-8.2.9-.65 2.65 8.3-.25.55M7-17.95l-1.75 5.5-1.4-.8.55-2.7-2-.9.3-1.65-1.45-1.4 1.45 1.4-.3 1.65-.75 3.8-.15.95-1-.25-.05-8.35.8.8.45.25 2 1.1 3.3.6M-3.05-11.1l-1-5.95 1.7-1.2.2 6.75-.9.4" fill="#b1babd" fill-rule="evenodd" transform="translate(12.15 28.8)"/><path d="m-2.15-11.5.75-1.6 1.05-.35.85 1.1v1.8l-2 2.2-.5 2.1-.15-5.25m0 5.7-.15.75-1.65-5.05.35-.7.55-.3.9 5.3" fill="#f3f0f2" fill-rule="evenodd" transform="translate(12.15 28.8)"/><path d="m1.5-12.1-.25 1.2-.75.35v-1.8l1 .25m-4.55 1 .9-.4.15 5.25-.15.45-.9-5.3" fill="#cfccce" fill-rule="evenodd" transform="translate(12.15 28.8)"/><path d="m7.95 19.25-3.3-8.2.9-.65-.2-2.35m10.55-.3 3.25 3.1-1.75 5.5m-.05.1-3.4 11.35.95 5.3-1.25.3-1.25.25-.35 1.05-2.5-1.75-.55-.4 2.25-3.15-1-4.35-.95-.85-1.35-4.95M12.6 8.1l-4.55.55-2.7-.6m7.25.05.8.8 1.45 1.4-.3 1.65M13.4 8.9l.45.25" fill="none" stroke="#999" stroke-linecap="round" stroke-linejoin="round" stroke-width=".05"/><path d="m-12.15-21.3 2.45-1.35 2.9 2.1-5.35-.75" fill="#ff4e35" fill-rule="evenodd" transform="translate(12.15 28.8)"/><path d="m-6.8-20.55-1.7 1.2-3.65-1.95 5.35.75" fill="#db2a11" fill-rule="evenodd" transform="translate(12.15 28.8)"/><path d="M-6.8-24.55-3.1-20l-2.4-.65-1.3-3.9" fill="#339c1b" fill-rule="evenodd" transform="translate(12.15 28.8)"/><path d="m-3.1-20-3.7-4.55 3.15 1.05.55 3.5" fill="#57c03f" fill-rule="evenodd" transform="translate(12.15 28.8)"/><path d="m1.5-19.95-1.45-2L1.5-25.8v5.85" fill="#339c1b" fill-rule="evenodd" transform="translate(12.15 28.8)"/><path d="M1.5-25.8 3.3-23l-1.8 3.05v-5.85" fill="#57c03f" fill-rule="evenodd" transform="translate(12.15 28.8)"/><path d="m6-17.15 2.6-3.6.25 3.15-2.85.45" fill="#ff4e35" fill-rule="evenodd" transform="translate(12.15 28.8)"/><path d="M8.6-20.75 6-17.15l-.35-2.4 2.95-1.2" fill="#db2a11" fill-rule="evenodd" transform="translate(12.15 28.8)"/><path d="m-6.4-20.8-4-3.55 2.75.2 1.25 3.35" fill="#ff4e35" fill-rule="evenodd" transform="translate(12.15 28.8)"/><path d="m-10.4-24.35 4 3.55-2 .05-2-3.6" fill="#db2a11" fill-rule="evenodd" transform="translate(12.15 28.8)"/><path d="m-4.8-20.75-2-2.25 1.95.7.05 1.55" fill="#ff4e35" fill-rule="evenodd" transform="translate(12.15 28.8)"/><path d="m-6.8-23 2 2.25-1.5-.45-.5-1.8" fill="#db2a11" fill-rule="evenodd" transform="translate(12.15 28.8)"/><path d="m-4.15-24.05 1 1.8L-4.1-21l-.05-3.05" fill="#ff4e35" fill-rule="evenodd" transform="translate(12.15 28.8)"/><path d="m-4.1-21-.85-1.35.8-1.7.05 3.05" fill="#db2a11" fill-rule="evenodd" transform="translate(12.15 28.8)"/><path d="m-3-19.85-2.4-1.8 2.05.3.35 1.5" fill="#ff4e35" fill-rule="evenodd" transform="translate(12.15 28.8)"/><path d="m-5.4-21.65 2.4 1.8-1.55-.15-.85-1.65" fill="#db2a11" fill-rule="evenodd" transform="translate(12.15 28.8)"/><path d="m1.1-25 .65 2.1-1.9.9 1.25-3" fill="#ff4e35" fill-rule="evenodd" transform="translate(12.15 28.8)"/><path d="m-.15-22-.6-1.55L1.1-25l-1.25 3" fill="#db2a11" fill-rule="evenodd" transform="translate(12.15 28.8)"/><path d="m3.15-20.3 2.05-1.4-.3 1.7-1.75-.3" fill="#ff4e35" fill-rule="evenodd" transform="translate(12.15 28.8)"/><path d="m5.2-21.7-2.05 1.4.15-1.25 1.9-.15" fill="#db2a11" fill-rule="evenodd" transform="translate(12.15 28.8)"/><path d="m7.15-18.95-.95 1.5-.95-1.1 1.9-.4" fill="#ff4e35" fill-rule="evenodd" transform="translate(12.15 28.8)"/><path d="m5.25-18.55.65-1.25 1.25.85-1.9.4" fill="#db2a11" fill-rule="evenodd" transform="translate(12.15 28.8)"/><path d="m1.65-19.75-1.9-.4.95 1.5.95-1.1" fill="#ff4e35" fill-rule="evenodd" transform="translate(12.15 28.8)"/><path d="m-.25-20.15 1.9.4L1-21l-1.25.85" fill="#db2a11" fill-rule="evenodd" transform="translate(12.15 28.8)"/><path d="m-2.15-20 1.9.45-.4 2.1-1.5-2.55" fill="#ff4e35" fill-rule="evenodd" transform="translate(12.15 28.8)"/><path d="m-.65-17.45-1.45-.2-.05-2.35 1.5 2.55" fill="#db2a11" fill-rule="evenodd" transform="translate(12.15 28.8)"/><path d="m5.4-21.05-1.2 3.6-1.05-1.2 2.25-2.4" fill="#339c1b" fill-rule="evenodd" transform="translate(12.15 28.8)"/><path d="m4.2-17.45 1.2-3.6 1.2 1.75-2.4 1.85" fill="#57c03f" fill-rule="evenodd" transform="translate(12.15 28.8)"/><path d="m-1.2-20.3-2.05-1.75.05-4.3 2 6.05" fill="#339c1b" fill-rule="evenodd" transform="translate(12.15 28.8)"/><path d="m-3.2-26.35 2.6 2.6-.6 3.45-2-6.05" fill="#57c03f" fill-rule="evenodd" transform="translate(12.15 28.8)"/><path d="m-9.35-19.45 3.8-.1.8 3.4-4.6-3.3" fill="#ff4e35" fill-rule="evenodd" transform="translate(12.15 28.8)"/><path d="m-4.75-16.15-2.85.25-1.75-3.55 4.6 3.3" fill="#db2a11" fill-rule="evenodd" transform="translate(12.15 28.8)"/><path d="M-.15-14.35 2.9-18.9l.25 3.8-3.3.75" fill="#ff4e35" fill-rule="evenodd" transform="translate(12.15 28.8)"/><path d="m2.9-18.9-3.05 4.55-.45-2.85 3.5-1.7" fill="#db2a11" fill-rule="evenodd" transform="translate(12.15 28.8)"/><path d="m7.1-27.55.25 3.8-3.3.75 3.05-4.55" fill="#ff4e35" fill-rule="evenodd" transform="translate(12.15 28.8)"/><path d="m4.05-23-.45-2.85 3.5-1.7L4.05-23" fill="#db2a11" fill-rule="evenodd" transform="translate(12.15 28.8)"/><path d="M7.05-22.55 3.6-23.2l1.3-.8 2.15 1.45" fill="#339c1b" fill-rule="evenodd" transform="translate(12.15 28.8)"/><path d="m3.6-23.2 3.45.65-1.8.95-1.65-1.6" fill="#57c03f" fill-rule="evenodd" transform="translate(12.15 28.8)"/><path d="m1.95-19.55-.15-1.9 2.25-1.9-2.1 3.8" fill="#339c1b" fill-rule="evenodd" transform="translate(12.15 28.8)"/><path d="m4.05-23.35.05 2.6-2.15 1.2 2.1-3.8" fill="#57c03f" fill-rule="evenodd" transform="translate(12.15 28.8)"/><path d="m-5.85-22.65-2-1.65q.1-1.45.75-2.25l1.25 3.9" fill="#db6e55" fill-rule="evenodd" transform="translate(12.15 28.8)"/><path d="m-7.1-26.55 1.1-.05q.6 1.3.85 1.25l-.7 2.7-1.25-3.9" fill="#ff9279" fill-rule="evenodd" transform="translate(12.15 28.8)"/><path d="m-2.8-14.9.25 2.55q-1.1.95-2.15 1.1l1.9-3.65" fill="#db6e55" fill-rule="evenodd" transform="translate(12.15 28.8)"/><path d="m-4.7-11.25-.85-.75q.55-1.4.35-1.5l2.4-1.4-1.9 3.65" fill="#ff9279" fill-rule="evenodd" transform="translate(12.15 28.8)"/><path d="M6.8-14.65q-.75.55-1.85.25L4.2-17l2.6 2.35" fill="#db6e55" fill-rule="evenodd" transform="translate(12.15 28.8)"/><path d="m4.2-17 2.25-.1q-.2.2.7 1.2-.25.55-.35 1.25L4.2-17" fill="#ff9279" fill-rule="evenodd" transform="translate(12.15 28.8)"/><path d="m5.35-22.6 1.4-.05v.05l-.4 1.4-1-1.4m2.3.95q-.2.5.2 1.6l-1.5-1.15 1.3-.45m-.9 2.25q-1.1-1.35-1.7-1.25l1.3-.55.4 1.8" fill="#ede0c3" fill-rule="evenodd" transform="translate(12.15 28.8)"/><path d="m6.75-22.6.9.95-1.3.45 1.5 1.15-1.1.65-.4-1.8-1.3.55q.5-1.05.3-1.95l1 1.4.4-1.4" fill="#fff2d5" fill-rule="evenodd" transform="translate(12.15 28.8)"/><path d="m-2.7-26.3-1.75-.05v.05l.5 1.75 1.25-1.75m-2.85 1.15q.3.65-.25 2l1.85-1.4-1.6-.6m1.1 2.75q1.35-1.6 2.1-1.5l-1.6-.65-.5 2.15" fill="#ede0c3" fill-rule="evenodd" transform="translate(12.15 28.8)"/><path d="m-4.45-26.3-1.1 1.15 1.6.6-1.85 1.4 1.35.75.5-2.15 1.6.65q-.65-1.3-.35-2.4l-1.25 1.75-.5-1.75" fill="#fff2d5" fill-rule="evenodd" transform="translate(12.15 28.8)"/><path d="M1.75-28.05h.05l1.75.05-1.2.9-.6-.95m2.4 1.3q-.8-.05-2.1.75l.3-1.1 1.8.35m-3.6.3q.45-.7.15-1l1.65.35-1.8.65" fill="#ede0c3" fill-rule="evenodd" transform="translate(12.15 28.8)"/><path d="m1.75-28.05.6.95 1.2-.9q-.2.55.6 1.25l-1.8-.35-.3 1.1-1.5-.45 1.8-.65-1.65-.35 1.05-.6" fill="#fff2d5" fill-rule="evenodd" transform="translate(12.15 28.8)"/><path d="M-11.45-19.7v-.05q.3-1.35.2-1.75l.8 1.25-1 .55m1.5-2.3q-.1.8.6 2.15l-1.1-.4.5-1.75m.05 3.6q-.7-.5-1-.2l.45-1.65.55 1.85" fill="#ede0c3" fill-rule="evenodd" transform="translate(12.15 28.8)"/><path d="m-11.45-19.7 1-.55-.8-1.25q.55.25 1.3-.5l-.5 1.75 1.1.4-.55 1.45-.55-1.85-.45 1.65-.55-1.1" fill="#fff2d5" fill-rule="evenodd" transform="translate(12.15 28.8)"/><path d="m-1.35-16.35-4.45 2.2 2.75-.25 1.7-1.95" fill="#339c1b" fill-rule="evenodd" transform="translate(12.15 28.8)"/><path d="m-5.8-14.15 4.45-2.2-3.7.4-.75 1.8" fill="#57c03f" fill-rule="evenodd" transform="translate(12.15 28.8)"/><path d="m.2-1.05.55-1 1.15.5v.95L.2-1.05" fill="#ff9279" fill-rule="evenodd" transform="translate(12.15 28.8)"/><path d="m.75-2.05-.55 1-1.45.55-.55-1.05 2.55-.5" fill="#db6e55" fill-rule="evenodd" transform="translate(12.15 28.8)"/><path d="m.85-.7 1.1.35L1.9.2.2-.2l.65-.5" fill="#ff9279" fill-rule="evenodd" transform="translate(12.15 28.8)"/><path d="m.2-.2-1.45.15-.5-.65h2.6L.2-.2" fill="#db6e55" fill-rule="evenodd" transform="translate(12.15 28.8)"/><path d="m2.2-.65.35-.1L3.9.2l-.55 1-1.4.85L1.9 2l-.2.8L4 1.6l.55-1.7q-1.1-.65-1.7-1.45l-.75.35.1.55m-2.15.5.2-.2-.3-.1-2.25-.9-1 .3v.65l.75-.25 1.8.55-1.75 1.8.3.55L.05-.15" fill="#ff9279" fill-rule="evenodd" transform="translate(12.15 28.8)"/><path d="M1.9 2 .6 0l1.6-.65-.1-.55q-1.05.55-2.15.75l.3.1-.2.2 1.5 3.05.15-.1.2-.8M-3.3-.4v-.65l-1.35.4L-4.6 1l2.1 1.6.3-.35-.3-.55-.15.1L-3.8.9l-.25-.95.75-.35" fill="#db6e55" fill-rule="evenodd" transform="translate(12.15 28.8)"/></g></defs></svg>