<svg viewBox="0 0 80.451 90.117" xmlns="http://www.w3.org/2000/svg" xmlns:xlink="http://www.w3.org/1999/xlink"><use width="80.45" height="90.1" xlink:href="#a"/><defs><radialGradient id="b" cx="0" cy="0" r="819.2" gradientTransform="matrix(.013 -.0119 .0054 .006 303.75 195)" gradientUnits="userSpaceOnUse"><stop stop-color="#fff" offset="0"/><stop stop-color="#fff" stop-opacity="0" offset=".933"/></radialGradient><g id="a"><path d="m305.8 156.7-3.4 18.15q-7.9 12-17.3 22.05l-.05.05-20.5 20.4-10-10.05q-.5-.35-1.05-.45l.3-.3 51.6-51.1.4 1.25" fill="#83b7be" fill-rule="evenodd" transform="translate(-234.75 -155.4)"/><path d="M269.55 222.35q10.35-10.6 21.1-19.85l.05-.05q5.65-3.95 12.45-6.2-1.4-11.05 0-20.65l-.75-.75 3.4-18.15 7.75 29.2.1.1-40.6 40.5-.55-1.1-2.95-3.05" fill="#e9f2f3" fill-rule="evenodd" transform="translate(-234.75 -155.4)"/><path d="m302.4 174.85.75.75q-1.4 9.6 0 20.65-6.8 2.25-12.45 6.2l-.05.05q-10.75 9.25-21.1 19.85l-5-5 20.5-20.4.05-.05q9.4-10.05 17.3-22.05" fill="#c4dcdf" fill-rule="evenodd" transform="translate(-234.75 -155.4)"/><path d="m269.55 222.35 2.95 3.05.55 1.1v.2q-.05.8-.65 1.4v.1l-.1.1-21-20.05.45-.7.05-.05q.6-.6 1.35-.7l.3.1.05-.05q.55.1 1.05.45l10 10.05 5 5m-23.3 18.15-.75.7q-4.1-1.5-7.4-5.25l1.85-2.25q2 4.75 6.3 6.8m-4.6 4.3-.45.4q-6.85 1.65-6.4-5.3l.4-.5q2.3 4 6.45 5.4" fill="#404040" fill-rule="evenodd" transform="translate(-234.75 -155.4)"/><path d="m251.9 219.25.2-.25-.4-8.75-.05-.05-.3-.55-.2-.75.15-.65 21 20.05q-.55.5-1.2.45-.8.05-1.35-.5v-.1l-10.35-.2v.05l-7.5-8.75" fill="#55542b" fill-rule="evenodd" transform="translate(-234.75 -155.4)"/><path d="m251.9 219.25 7.5 8.75-1.75 1.6q-4.5-1.05-8.65-6.85l2.9-3.5" fill="#9f59aa" fill-rule="evenodd" transform="translate(-234.75 -155.4)"/><path d="m253.05 234.05-2.25 2.15-4.3-4.3-2.3-3.35 2.1-2.5q2.2 5.15 6.75 8" fill="#ba86c1" fill-rule="evenodd" transform="translate(-234.75 -155.4)"/><path d="m254.35 232.75-1.3 1.3q-4.55-2.85-6.75-8l1.65-2.05q2.05 5.95 6.4 8.75" fill="#8c4d95" fill-rule="evenodd" transform="translate(-234.75 -155.4)"/><path d="m257.65 229.6-3.3 3.15q-4.35-2.8-6.4-8.75l1.05-1.25q4.15 5.8 8.65 6.85m-15 14.25-.05.05-.95.9q-4.15-1.4-6.45-5.4l2.1-2.5q1.9 4.05 5.35 6.95" fill="#ac6fb5" fill-rule="evenodd" transform="translate(-234.75 -155.4)"/><path d="m247.65 239.2-1.4 1.3q-4.3-2.05-6.3-6.8l1.65-2q2.15 3.1 4.65 4.55l1.4 2.95" fill="#57305c" fill-rule="evenodd" transform="translate(-234.75 -155.4)"/><path d="m241.6 231.7.9-1.1 1.2.25 2.55 5.4q-2.5-1.45-4.65-4.55" fill="#603566" fill-rule="evenodd" transform="translate(-234.75 -155.4)"/><path d="m242.5 230.6 1.7-2.05 2.3 3.35-2.8-1.05-1.2-.25" fill="#733f7a" fill-rule="evenodd" transform="translate(-234.75 -155.4)"/><path d="m250.8 236.2-3.15 3-1.4-2.95-2.55-5.4 2.8 1.05 4.3 4.3" fill="#784280" fill-rule="evenodd" transform="translate(-234.75 -155.4)"/><path d="m245.5 241.2-1.55 1.45-1.3 1.2q-3.45-2.9-5.35-6.95l.8-.95q3.3 3.75 7.4 5.25" fill="#c59acb" fill-rule="evenodd" transform="translate(-234.75 -155.4)"/><path d="M78.8 30.5 71.05 1.3m-.4-1.25.4 1.25" fill="none" stroke="#cfe4e4" stroke-linecap="round" stroke-linejoin="round" stroke-opacity=".702" stroke-width=".1"/><path d="M34.8 66.95 37.75 70l.55 1.1m-8.5-9.15 5 5m-16.05-15.5q.55.1 1.05.45l10 10.05m-13.25-9.1.45-.7.05-.05q.6-.6 1.35-.7l.3.1.05-.05m-1.6 12.4.2-.25-.4-8.75-.05-.05-.3-.55-.2-.75.15-.65m21 20.05.1-.1v-.1q.6-.6.65-1.4v-.2m-13.65 1.5v-.05l10.35.2v.1q.55.55 1.35.5.65.05 1.2-.45m-12.9-.3-1.75 1.6-3.3 3.15-1.3 1.3-2.25 2.15-3.15 3-1.4 1.3-.75.7-1.55 1.45-1.3 1.2m-.05.05-.95.9-.45.4m-6.4-5.3.4-.5 2.1-2.5.8-.95L5.2 78.3l1.65-2 .9-1.1 1.7-2.05 2.1-2.5 1.65-2.05 1.05-1.25 2.9-3.5" fill="none" stroke="#5f462e" stroke-linecap="round" stroke-linejoin="round" stroke-width=".1"/><path d="m38.3 71.1 40.6-40.5M19.05 51.15 70.65.05" fill="none" stroke="#cfe4e4" stroke-linecap="round" stroke-linejoin="round" stroke-opacity=".702" stroke-width=".05"/><path d="m7.9 88.45-.05.05" fill="none" stroke="#6f0" stroke-linecap="round" stroke-linejoin="round" stroke-width=".05"/><path d="M314.35 191.6q-1.85 4.25-6.2 8.25-4.4 4-8.7 5.35-4.4 1.35-6.25-.65-1.8-2 0-6.2 1.75-4.2 6.15-8.2 4.35-4 8.75-5.4 4.35-1.35 6.15.65 1.85 2 .1 6.2" fill="url(#b)" fill-rule="evenodd" transform="translate(-234.75 -155.4)"/></g></defs></svg>