<svg viewBox="0 0 95.589 87.675" xmlns="http://www.w3.org/2000/svg" xmlns:xlink="http://www.w3.org/1999/xlink"><use transform="translate(.02 .02)" width="95.55" height="87.65" xlink:href="#a"/><defs><radialGradient id="b" cx="0" cy="0" r="819.2" gradientTransform="matrix(-.0019 -.0162 -.0101 .0012 296.25 218.25)" gradientUnits="userSpaceOnUse"><stop stop-color="#fff" offset="0"/><stop stop-color="#fff" stop-opacity="0" offset=".933"/></radialGradient><g id="a"><path d="m289.7 220.3-7.55-2.5-5.75-8.1-13.6-4.95-.4-1.15h-3.1l-1.6-5.45-10.2-4.6.5-6.2-4.6 1.3h-.1l-14.35-18.8-1.65-13.1q21.25 29.65 49.45 49.2 6.1 4.25 12.55 8l.05-.05 3 2.1-2.65 4.3" fill="#c9e9e8" fill-rule="evenodd" transform="translate(-227.3 -156.75)"/><path d="m228.95 169.85 14.35 18.8h.1l4.6-1.3-.5 6.2 10.2 4.6 1.6 5.45h3.1l.4 1.15 13.6 4.95 5.75 8.1 7.55 2.5-2.7 4.25-.25-.05-2.8-.5q-3.65-1.85-7.2-3.85l-12.4-7.55.35-3.95-3 2.15q-8.9-6.1-17.1-13.25l.15-2.5-2.05.85-.1-.05q-6.1-5.45-11.8-11.45l-1.85-14.55" fill="#edf8f8" fill-rule="evenodd" transform="translate(-227.3 -156.75)"/><path d="m292.35 216-3-2.1q5.3-7.55 10.65-10.25 6.2-1.4 2.25 9.35l-4.35 7.45-2.5 4.2-.9 1.95-.2.25h.05L288 237.3h.05l-1.4 2.15q6.3 3.35 13.3 4.65-17.25-.25-19.75-6.45-.3-4.75 3.65-13.7l.1.05 2.8.5q-1.15 3.65.3 4.95 3.5-5.05 6.5-10.6-1.35.35-1.2-2.85m6.6-8.3q-2.5 5.8-5.4 11.15 2.9-5.35 5.4-11.15m0 2.8q-1.85 5.55-4.6 10.55-2.55 4.5-5.95 8.55 3.4-4.05 5.95-8.55 2.75-5 4.6-10.55m-17.5 26.35q.15 2.7 4.95 4.6-4.8-1.9-4.95-4.6m5.6-7.4-3.3 4.4 3.3-4.4" fill="#eabd35" fill-rule="evenodd" transform="translate(-227.3 -156.75)"/><path d="m289.7 220.3 2.65-4.3q-.15 3.2 1.2 2.85-3 5.55-6.5 10.6-1.45-1.3-.3-4.95l.25.05 2.7-4.25m-1.65 17q10.85 6.8 17.55 6.75l-4.7.1-.95-.05q-7-1.3-13.3-4.65l1.4-2.15" fill="#ca9d15" fill-rule="evenodd" transform="translate(-227.3 -156.75)"/><path d="m294.35 226.85.15-.25.9-1.95q3.75.05 4.55-3.15l.95.45-.35 5.2h-.05q-1.4.6-3.25.55l-2.9-.85m21.45 12.45-.15.05-1.1-3.3.7-2.4h.05l1 3.6-.1.3-.4 1.75m-7-6.05-3.3-1.6 1.25-1.75 3.1 1.4-1.05 1.95" fill="#5b2c26" fill-rule="evenodd" transform="translate(-227.3 -156.75)"/><path d="m295.4 224.65 2.5-4.2 2.05 1.05q-.8 3.2-4.55 3.15m19.15 11.4-2.2-1.1-3.55-1.7 1.05-1.95 2.85 1.25-.35 2.4.35-2.4 2.55 1.1-.7 2.4m-9.05-4.4-5-2.4-.1-.05-3.15-1.5q1.85.05 3.25-.55l6.25 2.75-1.25 1.75" fill="#474023" fill-rule="evenodd" transform="translate(-227.3 -156.75)"/><path d="M294.35 226.85h-.05l.2-.25-.15.25m6.55-4.9 2.65 1.3q-.85 2.85-3 3.9l.35-5.2m5.15 2.6 2.95 1.5q1.9 2.35.85 5.25l-3.1-1.4q1.3-2.6-.7-5.35m10.25 5.2 2.25-1.4-.1.4-.6 2.5-.1.3-1.45 5.7-1-3.6h-.05l1.05-3.9" fill="#92453d" fill-rule="evenodd" transform="translate(-227.3 -156.75)"/><path d="m303.55 223.25 2.5 1.3q2 2.75.7 5.35l-6.25-2.75h.05q2.15-1.05 3-3.9m5.45 2.8 2.2 1.15 5.1 2.55-1.05 3.9-2.55-1.1-2.85-1.25q1.05-2.9-.85-5.25m2.2 1.15q1.7 2.25 1.5 5.35.2-3.1-1.5-5.35" fill="#5f552e" fill-rule="evenodd" transform="translate(-227.3 -156.75)"/><path d="M318.45 228.75q5.4 2.8 3.8 7.45l-.5 1.15q-.05-5.05-4-5.8l.1-.3.6-2.5" fill="#f0ccbd" fill-rule="evenodd" transform="translate(-227.3 -156.75)"/><path d="m321.75 237.35-.05.1-.6.9q-3.4 1.35-4.9-.8l.1-.3 1.45-5.7q3.95.75 4 5.8" fill="#d87850" fill-rule="evenodd" transform="translate(-227.3 -156.75)"/><path d="M321.1 238.35q-1.85 2.05-5.3.95l.4-1.75q1.5 2.15 4.9.8" fill="#b95428" fill-rule="evenodd" transform="translate(-227.3 -156.75)"/><path d="m62.4 63.55 2.65-4.3-3-2.1-.05.05q-6.45-3.75-12.55-8Q21.25 29.65 0 0l1.65 13.1L3.5 27.65q5.7 6 11.8 11.45l.1.05 2.05-.85-.15 2.5q8.2 7.15 17.1 13.25l3-2.15-.35 3.95 12.4 7.55q3.55 2 7.2 3.85l2.8.5.25.05 2.7-4.25m-2.65 9.15q3.5-5.05 6.5-10.6 2.9-5.35 5.4-11.15m-4.45 18.9-.2.25h.05l.15-.25.9-1.95 2.5-4.2m23.85 16.9-.05.1M72.65 64.75q-.8 3.2-4.55 3.15m5.1 2.5h.05q2.15-1.05 3-3.9m3.2 6.65q1.3-2.6-.7-5.35m-8.8 3.15q1.85.05 3.25-.55M89 80.5l1.45-5.7m.1-.3.6-2.5m-5.75 3.8-.35 2.4m3.85 2.6-.4 1.75m.5-2.05-.1.3m-.95-3.9L89 73m-1.05 3.9-.7 2.4m-5.75-2.8 1.05-1.95q1.05-2.9-.85-5.25m-2.25 3.85L78.2 74.9m7.2.9q.2-3.1-1.5-5.35M56.45 77.1l3.3-4.4" fill="none" stroke="#000" stroke-linecap="round" stroke-linejoin="round" stroke-opacity=".302" stroke-width=".05"/><path d="M72.65 87.35Q55.4 87.1 52.9 80.9q-.3-4.75 3.65-13.7l.1.05M70.6 63.7l4.35-7.45Q78.9 45.5 72.7 46.9q-5.35 2.7-10.65 10.25m8.55 6.55 2.05 1.05.95.45 2.65 1.3 2.5 1.3 2.95 1.5 2.2 1.15L89 73l2.25-1.4-.1.4q5.4 2.8 3.8 7.45l-.5 1.15m-.05.1-.6.9q-1.85 2.05-5.3.95m-.15.05-1.1-3.3-2.2-1.1-3.55-1.7-3.3-1.6-5-2.4m-.1-.05-3.15-1.5-2.9-.85-6.35 10.45h.05q10.85 6.8 17.55 6.75l-4.7.1-.95-.05" fill="none" stroke="#000" stroke-linecap="round" stroke-linejoin="round" stroke-opacity=".6" stroke-width=".5"/><path d="M288.4 229.6q3.4-4.05 5.95-8.55 2.75-5 4.6-10.55" fill="none" stroke="#f9e184" stroke-linecap="round" stroke-linejoin="round" transform="translate(-227.3 -156.75)"/><path d="M59.1 84.7q-4.8-1.9-4.95-4.6" fill="none" stroke="#f9e184" stroke-linecap="round" stroke-linejoin="round" stroke-width=".5"/><path d="M289.35 209.7q-1.9 4.05-1.3 9.5.65 5.5 3.5 9.05 2.85 3.5 6.3 3.1 3.4-.4 5.3-4.5 1.95-4.1 1.3-9.6-.6-5.45-3.5-8.95-2.85-3.55-6.25-3.15-3.45.4-5.35 4.55" fill="url(#b)" fill-rule="evenodd" transform="translate(-227.3 -156.75)"/></g></defs></svg>