<svg viewBox="0 0 80.004 86.466" xmlns="http://www.w3.org/2000/svg" xmlns:xlink="http://www.w3.org/1999/xlink"><g transform="translate(-234.98 -157.12)"><use transform="translate(235 223.5)" width="24.15" height="20.05" xlink:href="#a"/><use transform="matrix(-.8306 -.6172 -.6172 .8306 264.73 226.57)" width="3.75" height="12.45" xlink:href="#b"/><use transform="scale(-1.53 1.53) rotate(-16.804 411.615 665.748)" width="3.75" height="12.45" xlink:href="#b"/><use transform="matrix(-1.1357 -.02 -.02 1.1357 268.77 225.21)" width="3.75" height="12.45" xlink:href="#b"/><use transform="translate(253.4 157.15)" width="61.55" height="70.2" xlink:href="#c"/><use transform="matrix(-.0102 1.0345 -1.0345 -.0102 256.46 221.62)" width="3.75" height="12.45" xlink:href="#b"/><use transform="matrix(-.5324 1.4339 -1.4339 -.5324 259.26 219.92)" width="3.75" height="12.45" xlink:href="#b"/><use transform="matrix(-.6702 .9168 -.9168 -.6702 259.9 218.65)" width="3.75" height="12.45" xlink:href="#b"/><use transform="matrix(-.9427 .4303 .4303 .9427 269.73 225.68)" width="3.75" height="12.45" xlink:href="#b"/><use transform="matrix(-1.0957 1.0708 1.0708 1.0957 270.06 222.61)" width="3.75" height="12.45" xlink:href="#b"/><use transform="matrix(-.5663 .9864 .9864 .5663 270.51 221.29)" width="3.75" height="12.45" xlink:href="#b"/><use transform="matrix(-.6859 .7767 -.7767 -.686 258.93 214.59)" width="3.75" height="12.45" xlink:href="#b"/><use transform="rotate(151.254 103.355 141.237) scale(1.532)" width="3.75" height="12.45" xlink:href="#b"/><use transform="matrix(-1.1086 .2549 -.2549 -1.1086 263.42 214.89)" width="3.75" height="12.45" xlink:href="#b"/><use transform="translate(253.15 210.2)" width="23.2" height="19.9" xlink:href="#d"/></g><defs><g id="a"><path d="m257.3 228.65.15.3-.15-.3" fill="#e9f2f3" fill-rule="evenodd" transform="translate(-235 -223.5)"/><path d="m257.45 228.95-.15-.3-.2.15.35.15" fill="#c4dcdf" fill-rule="evenodd" transform="translate(-235 -223.5)"/><path d="m248.3 229.2.5-.25-.5.25" fill="#3f6167" fill-rule="evenodd" transform="translate(-235 -223.5)"/><path d="m258.85 231.2-.15-.3v.3h.15" fill="#575757" fill-rule="evenodd" transform="translate(-235 -223.5)"/><path d="m259.15 231.2-1.7-2.25 1.25 1.95.15.3h.3" fill="#858585" fill-rule="evenodd" transform="translate(-235 -223.5)"/><path d="m251.9 233.85 1.95-1.9.75-.65h.15l.3-.3-.05-.2-1.15-.7-1.4-.4-.15-.15-3.5 2.4-2.6 1.65 2.5.15.65-.05-.6.35q-3.7 1.6-4.65 1.05l-1.2 1.2-2.1 1.65 1.3.6-2.65.6-1.65 1.7 1.4 2.15 3.65-2.3 4.25-3.1q.9-.5 1.65-1.2l3.15-2.55" fill="#944f0a" fill-rule="evenodd" transform="translate(-235 -223.5)"/><path d="m255 230.8.35-.2.7-.65.2-.15-2.6-3.35-.15-.3-4.7 2.8-.5.25-2.25 1.55-2.75 1.85-.45.55q-3.8 2.85-6.6 5.45l1.55 2.25 1.65-1.7 2.65-.6-1.3-.6 2.1-1.65 1.2-1.2q.95.55 4.65-1.05l.6-.35-.65.05-2.5-.15 2.6-1.65 3.5-2.4.15.15 1.4.4 1.15.7" fill="#4e2905" fill-rule="evenodd" transform="translate(-235 -223.5)"/><path d="m253.65 226.45-.15-2.65-.2-.3-2.35.15q.85 2.9-2.15 5.3l4.7-2.8.15.3" fill="#6d3a07" fill-rule="evenodd" transform="translate(-235 -223.5)"/><path d="m258.7 230.9-1.25-1.95-.35-.15-1.2-1.85-2.6-3.45.2.3.15 2.65 2.6 3.35-.2.15-.7.65-.35.2.05.2-.3.3h-.15l-.75.65-1.95 1.9q1.05-.9 1.95-1.25l2.7-.15-.05-1.1 2.2-.15v-.3" fill="#9d540b" fill-rule="evenodd" transform="translate(-235 -223.5)"/><path d="m22.45 5.45 1.7 2.25m-1.7-2.25-.15-.3m-.75 3.8-2.7.15q-.9.35-1.95 1.25l1.95-1.9.75-.65h.15l.3-.3-.05-.2M18.3 0l2.6 3.45 1.2 1.85m-5.2 5.05-3.15 2.55q-.75.7-1.65 1.2l-4.25 3.1-3.65 2.3-1.4-2.15-1.55-2.25q2.8-2.6 6.6-5.45l.45-.55 2.75-1.85L13.3 5.7m.5-.25q3-2.4 2.15-5.3" fill="none" stroke="#3d3d3d" stroke-linecap="round" stroke-linejoin="round" stroke-width=".05"/><path d="M240.8 241.2q.2-1.2-.5-2.2-.7-1.05-1.8-1.2-1.15-.25-2.2.45-1 .7-1.25 1.85-.2 1.1.5 2.15.7 1 1.8 1.25 1.2.25 2.2-.45 1.05-.7 1.25-1.85" fill="#242424" fill-rule="evenodd" transform="translate(-235 -223.5)"/><path d="M5.8 17.7q.2-1.2-.5-2.2-.7-1.05-1.8-1.2-1.15-.25-2.2.45-1 .7-1.25 1.85-.2 1.1.5 2.15.7 1 1.8 1.25 1.2.25 2.2-.45 1.05-.7 1.25-1.85z" fill="none" stroke="#3d3d3d" stroke-linecap="round" stroke-linejoin="round" stroke-width=".05"/></g><g id="b" fill-rule="evenodd"><path d="M2.4-6.2q.75.05 1.15 1.95.4 1.85.2 4.4T2.9 4.5 1.45 6.25Q.65 6.15.3 4.3-.1 2.45.1-.1q.15-2.6.85-4.35.65-1.8 1.45-1.75" fill="#f7f6e5" transform="translate(-.05 6.2)"/><path d="m3.15-1.75-.55 2.8q-.45 1.15-.95 1.1T.9.9.8-1.9q.1-1.7.5-2.8.45-1.2 1-1.15.45.05.7 1.25t.15 2.85" fill="#cbc087" transform="translate(-.05 6.2)"/></g><g id="c"><path d="m312.4 157.9-.65 2.1q-3.35 10.9-10.25 21.45-7.5 11.3-18.2 20.65-10.65 9.35-22.15 17l2.55 3.15q-5.1 5 .65.75 3.2-2.1 9.2-7l4.3-3.15 7.5-5.95q10.45-9.75 18-20.65 7.25-10.4 9.1-21.4.55-1.95.6-4l-.65-2.95" fill="#eadbc4" fill-rule="evenodd" transform="translate(-253.4 -157.15)"/><path d="m311.7 157.15.7.75v-.15l-.7-.6m1.35 3.7q-.05 2.05-.6 4-1.85 11-9.1 21.4-7.55 10.9-18 20.65 4.1-2.75 7.5-6.15 10-9.6 16.1-20.75 5.7-10.4 4.1-19.15M273.55 216q-6 4.9-9.2 7l2.75 3.15q2.15-5.5 6.45-10.15" fill="#f4ece3" fill-rule="evenodd" transform="translate(-253.4 -157.15)"/><path d="M261.15 219.1q11.5-7.65 22.15-17 10.7-9.35 18.2-20.65 6.9-10.55 10.25-21.45l.65-2.1-.7-.75q-3.65 10.5-9.5 20.75-7.15 12-17.5 21.15-10.35 8.95-21.55 16.45l-3.2 2.25 1.2 1.35" fill="#d2af86" fill-rule="evenodd" transform="translate(-253.4 -157.15)"/><path d="m312.4 157.9.65 2.95q1.6 8.75-4.1 19.15-6.1 11.15-16.1 20.75-3.4 3.4-7.5 6.15l-7.5 5.95-4.3 3.15q-4.3 4.65-6.45 10.15l1 1.2 1.85-6.15q8.75-6.5 17.75-14.3 9.45-8.15 17.1-17.75 8.65-10.65 10-21.9.8-5.3-2.4-9.5v.15" fill="#f9f2ec" fill-rule="evenodd" transform="translate(-253.4 -157.15)"/><path d="m7.75 61.95-1.2-1.35 3.2-2.25q11.2-7.5 21.55-16.45 10.35-9.15 17.5-21.15Q54.65 10.5 58.3 0M13.7 69l1 1.2 1.85-6.15q8.75-6.5 17.75-14.3Q43.75 41.6 51.4 32q8.65-10.65 10-21.9.8-5.3-2.4-9.5l-.7-.6" fill="none" stroke="#3d3d3d" stroke-linecap="round" stroke-linejoin="round" stroke-width=".05"/><path d="m257.55 216.35 6.1 8.2.6-.25-6.35-8.6-.35.65" fill="#242424" fill-opacity=".141" fill-rule="evenodd" transform="translate(-253.4 -157.15)"/><path d="m257.55 216.35-.15.3-4-.6 3.4 4.55q-3.45 3.3.65.9l1.8 2.4.1.1 1.55 2.15 1.1-.95q.1-.1.3-.1l1.35-.55-6.1-8.2" fill="#2b2b2b" fill-opacity=".251" fill-rule="evenodd" transform="translate(-253.4 -157.15)"/></g><g id="d"><path d="m264.15 215.3 3.95-2.85 5.75-2.1q2.95-.5 2.3 2.4l-3.7 5.25-.2.45-3.25 2.75-4.85-5.9" fill="#ada576" fill-rule="evenodd" transform="translate(-253.15 -210.2)"/><path d="M262.85 216.4v-.4l-.35-.25 5.6-3.3-3.95 2.85-1.3 1.1m-5.75 2.85-.5.6q-.7 1.05-.3 1.5l1.35-.05-2.65 2.25.4 1 2.8 3.4.8.45 2.9-2.15q-.7 1.15-.4 1.5l1.5-.15.6-.35-2.75 2.45-.2.1-.05-.2-3.55.25h-.1l-.15.15-2.45-2.9-.95-1.8-.1-.05.9-3.45-.1-.05 3-2.5m10.55 3 1.35-1.05 3.25-2.75-4 4.3-.2-.35-.4-.15m4.8-4.25-.1.25-.1.2.2-.45" fill="#eadbc4" fill-rule="evenodd" transform="translate(-253.15 -210.2)"/><path d="m262.85 216.4 1.3-1.1 4.85 5.9-1.35 1.05-1.1.15-2.5 1.75-2.15 2.1-2.9 2.15-.8-.45-2.8-3.4-.4-1 2.65-2.25.05-.1 2.6-1.65 2.15-2.2.4-.95m-8.5 10.7-1.2-1.6.15-.25.1.05.95 1.8" fill="#cdc098" fill-rule="evenodd" transform="translate(-253.15 -210.2)"/><path d="m268.1 212.45-5.6 3.3-1.15.25-2.6 1.65-1.65 1.6-3 2.5q1.55-5.5 3.45-5.6l10.55-3.7m4.15 6-5.55 8.85q-.4 1.7-5.85 2.4l2.75-2.45 2-1.25 2.05-2.25.6-1 4-4.3" fill="#83795c" fill-rule="evenodd" transform="translate(-253.15 -210.2)"/><path d="m262.5 215.75.35.25v.4l-.4.95-2.15 2.2-2.6 1.65-.05.1-1.35.05q-.4-.45.3-1.5l.5-.6 1.65-1.6 2.6-1.65 1.15-.25m-.6 10.5 2.15-2.1 2.5-1.75 1.1-.15.4.15.2.35-.6 1-2.05 2.25-2 1.25-.6.35-1.5.15q-.3-.35.4-1.5" fill="#5997b6" fill-rule="evenodd" transform="translate(-253.15 -210.2)"/><path d="m1.05 11.6-.1-.05q1.55-5.5 3.45-5.6M20.7.15q2.95-.5 2.3 2.4L19.3 7.8l-.1.25-.1.2m-5.55 8.85q-.4 1.7-5.85 2.4m-3.9.15-.15.15" fill="none" stroke="#69604b" stroke-linecap="round" stroke-linejoin="round" stroke-width=".25"/><path d="m9.35 5.55.35.25v.4m-.35-.65L8.2 5.8 5.6 7.45l-1.65 1.6-.5.6q-.7 1.05-.3 1.5l1.35-.05.05-.1 2.6-1.65 2.15-2.2.4-.95m-.95 9.85 2.15-2.1 2.5-1.75 1.1-.15m-4.05 5-.6.35-1.5.15q-.3-.35.4-1.5m6.35-3.5-.6 1-2.05 2.25-2 1.25m4.65-4.5-.2-.35-.4-.15" fill="none" stroke="#544d3d" stroke-linecap="round" stroke-linejoin="round" stroke-width=".25"/><path d="m4.4 5.95 10.55-3.7L20.7.15m-1.6 8.1-5.55 8.85M7.7 19.5l-.2.1-.05-.2-3.55.25m-.25.15L1.2 16.9l-.95-1.8-.1-.05.9-3.45z" fill="none" stroke="#4d4637" stroke-linecap="round" stroke-linejoin="round" stroke-width=".25"/></g></defs></svg>