<svg viewBox="0 0 489.5 370.6" xmlns="http://www.w3.org/2000/svg" xmlns:xlink="http://www.w3.org/1999/xlink"><use width="489.5" height="370.6" xlink:href="#a"/><defs><g id="a"><path d="M178.55 263.65v.05q60.3-27.6 143.3-84.35 37.3-25.5 88.35-64Q462.15 76.2 514.95 31.4l15.35-13.25q-.35 3.9-1.6 7.9L513.75 41.7q-107.9 87.4-180.2 135.65-85.3 56.9-136.85 83.4l-.7.35-19.35 9.3-3.65-5 5.55-1.75" fill="#f3f4f2" fill-rule="evenodd" transform="translate(-41.55 -17.4)"/><path d="m176.65 270.4 19.35-9.3.7-.35q51.55-26.5 136.85-83.4 72.3-48.25 180.2-135.65l14.95-15.65Q525.35 36.9 514.95 50q-4.6 5.8-33.3 29.8l-63.2 52.85q-26 21.95-61.25 46.95l-6.6 4.65-6.9-2.2 2.15 5.7q-30.4 21-61.25 40.15l-8.85-4.3 2.05 8.5q-41.1 25.15-82.95 47.05l-2.9 1.5-.45.2-5.2 2.85-9.65-13.3" fill="#c8ccbd" fill-rule="evenodd" transform="translate(-41.55 -17.4)"/><path d="M178.55 263.65 173 265.4l3.65 5 9.65 13.3 5.2-2.85 27.6 36.5-5.8 15.65-23.9-32.05-28.05-38.3-26.75-36.75 16 .8 27.95 36.95m13.95 28.9-6.2-8.85 6.2 8.85M173 265.4l-7.2-11.55 7.2 11.55" fill="#51774f" fill-rule="evenodd" transform="translate(-41.55 -17.4)"/><path d="M181.9 322.8h.5q4.6 0 7.85 3.25t3.25 7.9q0 4.6-3.25 7.85-2.3 2.3-5.3 3l-1.5.2-.8.05-.7-.15q-5.55-1.2-7.45-3.1-1.95-1.95-2.7-4.35l.1-.05 1.5-.2q3-.7 5.3-3 2.7-2.7 3.15-6.35l.05-.4.05-1.1-.05-1.1v-2.45m-13.75-30q-4.55 3.1-6.9 9.9-21.15-2.75-35.6 21.3-19.3.45-35.2 21.05-11.1 15.8-29.2 17.45l-8.3-12.95L42.3 332.8l14.6-7.75 27.25 16.25 6.3 3.75-6.3-3.75-.55-30.45 7.8-4.15 27.2 13.75V292.2l10.85-5.75 25.05 12.8.4-26.35 3.45-1.85 9.8 21.75m-9.9-16 .65 5.45-.65-5.45m-32.6 47.2-7.05-3.55 7.05 3.55m-61.1 35-3.85-6.75 3.85 6.75m-11.6-11.45v2-2m3.6-1.65-5.1-9.95 5.1 9.95m97.95-45.8v-.85l6.75 3.45-6.75-3.45v.85m-65.95 37.45-.95-7 .95 7m-1.6-16-.35-7.65.35 7.65m37.1-4.8-.95-7.95.95 7.95m-1.3-15.65v-6.05 6.05m36.15-9.6-.3 6.1.3-6.1" fill="#bd2e1a" fill-rule="evenodd" transform="translate(-41.55 -17.4)"/><path d="m129.45 286.45 25.45-13.55-.4 26.35-25.05-12.8m-72.55 38.6 26.7-14.2.55 30.45-27.25-16.25m34.5-18.35 27.2-14.5v28.25L91.4 306.7" fill="#f09e93" fill-rule="evenodd" transform="translate(-41.55 -17.4)"/><path d="m189.4 300.95-7.5 2.15-8.1 2.35-3.45-7.7-2.2-4.95-9.8-21.75-1.45-3.25 4.45-5.15 28.05 38.3m-19.05-5.45v2.25-2.25" fill="#e24832" fill-rule="evenodd" transform="translate(-41.55 -17.4)"/><path d="M171.8 337.45v-.05l-.7.05-.7-.15q-5.55-1.2-7.45-3.1-3.25-3.25-3.25-7.85 0-4.65 3.25-7.9 3.1-3.1 7.4-3.25h.5q4.6 0 7.85 3.25 1.95 1.95 2.75 4.4l.45-.05v2.45l.05 1.1-.05 1.1-.05.4q-.45 3.65-3.15 6.35-2.3 2.3-5.3 3l-1.5.2-.1.05M52.95 365h.5q4.6 0 7.85 3.25 1.95 1.95 2.75 4.4l.45 2.4.05 1.1-.05 1.1-.05.4Q64 381.3 61.3 384q-2.3 2.3-5.3 3l-1.5.2h-.1l-.7.05-.7-.15q-5.55-1.2-7.45-3.1-3.25-3.25-3.25-7.85 0-4.65 3.25-7.9 3.1-3.1 7.4-3.25v5.05V365m117.4-44.75v-5.05 5.05m1.45 17.15h.1-.1m10.1-12.15-.45-2.4.45 2.4" fill="#e65a46" fill-rule="evenodd" transform="translate(-41.55 -17.4)"/><path d="M487.15 8.65q1.25-4 1.6-7.9L473.4 14q-52.8 44.8-104.75 83.95-51.05 38.5-88.35 64-83 56.75-143.3 84.35v-.05M487.15 8.65Q483.8 19.5 473.4 32.6q-4.6 5.8-33.3 29.8l-63.2 52.85q-26 21.95-61.25 46.95l-6.6 4.65-6.9-2.2 2.15 5.7q-30.4 21-61.25 40.15l-8.85-4.3 2.05 8.5q-41.1 25.15-82.95 47.05l-2.9 1.5-.45.2 27.6 36.5-5.8 15.65-23.9-32.05-7.5 2.15v19.7h.5q4.6 0 7.85 3.25t3.25 7.9q0 4.6-3.25 7.85-2.3 2.3-5.3 3l-1.5.2-.8.05m-.7-.15q-5.55-1.2-7.45-3.1-1.95-1.95-2.7-4.35V320l-.7.05m-.7-.15q-5.55-1.2-7.45-3.1-3.25-3.25-3.25-7.85 0-4.65 3.25-7.9 3.1-3.1 7.4-3.25v-17.45l-2.2-4.95q-4.55 3.1-6.9 9.9-21.15-2.75-35.6 21.3-19.3.45-35.2 21.05-11.1 15.8-29.2 17.45l-8.3-12.95v15.45h.5q4.6 0 7.85 3.25 1.95 1.95 2.75 4.4l.45 2.4.05 1.1-.05 1.1m-.05.4q-.45 3.65-3.15 6.35-2.3 2.3-5.3 3l-1.5.2h-.1l-.7.05m-.7-.15Q5.9 368.5 4 366.6q-3.25-3.25-3.25-7.85 0-4.65 3.25-7.9 3.1-3.1 7.4-3.25m108.4-102.35L93.05 208.5l16 .8L137 246.25m-20.2 7.4-1.45-3.25 4.45-5.15m-2.45 19.6-.65-5.45m-28.8 9.65 25.45-13.55 3.45-1.85M77.05 274.8l10.85-5.75m-76.5 63.1L.75 315.4l14.6-7.75 26.7-14.2 7.8-4.15 27.2-14.5M9.9 318.55l5.1 9.95m-3.6 3.65v-2m7.75 4.7L23 341.6m58.55-50.2.95 7.95m-37.45-2.85.35 7.65m.65 9 .95 7m70.05-39.95.3-6.1m-36.15 3.55v6.05m47.6-3.35 3.45 7.7 8.1-2.35m-11.55 12.1h.5q4.6 0 7.85 3.25 1.95 1.95 2.75 4.4l.45-.05m0 2.45.05 1.1-.05 1.1m-.05.4q-.45 3.65-3.15 6.35-2.3 2.3-5.3 3l-1.5.2h-.1m9.65-14.55.45 2.4m-11.55-27.5v-2.25" fill="none" stroke="#000" stroke-linecap="round" stroke-linejoin="round" stroke-opacity=".502" stroke-width="1.5"/><path d="m137 246.25-5.55 1.75 3.65 5m19.35-9.3.7-.35m-14.05 84.3h-.25l-.45-.15m-10.85-7.45-.7-.15m-105.9 39.95-.05.4m-10.75 9.6-.7-.15m-.05-22.1v5.05m108.4-107.4 28.05 38.3m-31.05-29.9 9.8 21.75m-38.7-6.35 25.05 12.8.4-26.35m-36.3 19.3v28.25l7.05 3.55m35.6-21.3-6.75-3.45v.85M48.9 327.65l-6.3-3.75-27.25-16.25m34.5-18.35 27.2 13.75M42.6 323.9l-.55-30.45m82.2-57 7.2 11.55m13.3 18.3 6.2 8.85m-1-11.7-5.2 2.85-9.65-13.3m5.25 52.4v2.45m0 2.2-.05.4m-11.5-12.65v5.05m12.3 24.8-.7-.15" fill="none" stroke="#000" stroke-linecap="round" stroke-linejoin="round" stroke-opacity=".502" stroke-width=".05"/></g></defs></svg>