<svg viewBox="0 0 90.45 91.15" xmlns="http://www.w3.org/2000/svg" xmlns:xlink="http://www.w3.org/1999/xlink"><use width="90.45" height="91.15" xlink:href="#a"/><defs><g id="a"><path d="m245.95 240.25 1.45 1.55q-.85 3.2-4.05 3.95l-3.7-3.8-2.4-2.5q-.65 2.7-5.55 2.45-.7-1.1-.65-2.5-.05-1.95 1.3-3.3l.95-.7-3.35-3.45q.65-3.8 4.05-3.95l1 1 10.95 11.25m-12.65-4.85 3.95 4.05-3.95-4.05" fill="#fc0" fill-rule="evenodd" transform="translate(-229.65 -154.9)"/><path d="m318.5 156.3 1.35-.55-.05.4-12.75 23.75.5-1.35-37.9 40.6-1.05-.7 3.95-16.05 45.95-46.1-45.95 46.1-15.9 3.8-1.6-2.65 40.85-38.4.35-.15 22.25-8.7" fill="#83b7be" fill-rule="evenodd" transform="translate(-229.65 -154.9)"/><path d="m269.65 219.15 37.9-40.6-.5 1.35-6.55 18.4-2.1-1.6.2 5.95-.1.1-25 18.6-3.85-2.2m25.4-53.75.85-.25-40.85 38.4q-1.8-3.25-3.15-6.9l27.25-26.45 15.9-4.8" fill="#9dc7cc" fill-rule="evenodd" transform="translate(-229.65 -154.9)"/><path d="m307.05 179.9 12.75-23.75-3.45 28.35-14.4 14.9-1.45-1.1 6.55-18.4m-8.45 22.95-20 20.7-.15-.05-2.4-.95-2.55-1.2 25-18.6.1.1" fill="#b9d8db" fill-rule="evenodd" transform="translate(-229.65 -154.9)"/><path d="m319.6 155.2-1.1 1.1-22.25 8.7-1.2.4-15.9 4.8 12.25-11.9 28.2-3.1" fill="#cae1e3" fill-rule="evenodd" transform="translate(-229.65 -154.9)"/><path d="m239.65 241.95-.65.75q-1.35 1.4-3.3 1.4t-3.35-1.4l-.65-.8q4.9.25 5.55-2.45l2.4 2.5" fill="#d99506" fill-rule="evenodd" transform="translate(-229.65 -154.9)"/><path d="M251.05 231.2q-1.4 1.3-2.4 2.85l-8.7-6.85 2.3-1.5.15-.1 8.65 5.6m-3.9 5.5q-.8 1.7-1.2 3.55L235 229l1.8-.5 10.35 8.2m-1.9-13.9.8-1.15 7.4 7.6-1 .75-7.2-7.2" fill="#8c6004" fill-rule="evenodd" transform="translate(-229.65 -154.9)"/><path d="m252.45 230-1.4 1.2-8.65-5.6 2.85-2.8 7.2 7.2m-3.8 4.05q-.9 1.25-1.5 2.65l-10.35-8.2 3.15-1.3 8.7 6.85" fill="#d29106" fill-rule="evenodd" transform="translate(-229.65 -154.9)"/><path d="m318.5 156.3-45.95 46.1" fill="none" stroke="#eef5f7" stroke-linecap="round" stroke-linejoin="round" transform="translate(-229.65 -154.9)"/><path d="m90.2.85.1-.6-.35.05-1.1 1.1m1.3-.15.05-.4M5.35 74.1l1.8-.5m8.45-5.7.8-1.15m7.4 7.6-1 .75m46.15-27.35v.2M10 87.05l-2.4-2.5-3.95-4.05m1.7-6.4L16.3 85.35" fill="none" stroke="#000" stroke-linecap="round" stroke-linejoin="round" stroke-opacity=".6" stroke-width=".05"/><path d="M49.5 15.3 22.25 41.75M49.5 15.3 61.75 3.4 89.95.3M22.8 75.1l-1.4 1.2Q20 77.6 19 79.15q-.9 1.25-1.5 2.65-.8 1.7-1.2 3.55l1.45 1.55q-.85 3.2-4.05 3.95l-3.7-3.8-.65.75Q8 89.2 6.05 89.2T2.7 87.8l-.65-.8q-.7-1.1-.65-2.5-.05-1.95 1.3-3.3l.95-.7L.3 77.05q.65-3.8 4.05-3.95l1 1m1.8-.5 3.15-1.3 2.3-1.5m.15-.1 2.85-2.8m53.35-19.95-20 20.7-.15-.05m20.15-20.85-.2-5.95 2.1 1.6m19.3-42.15L86.7 29.6 72.3 44.5l-1.45-1.1" fill="none" stroke="#000" stroke-linecap="round" stroke-linejoin="round" stroke-opacity=".6" stroke-width=".6"/><path d="m272.1 202.5.45-.1-3.95 16.05q-2.75-1.85-5.15-4.1l8.65-11.85m3.95 20.05 2.4.95.35 14.95-14-3.15.7-3.35 10.55 2.75v-12.15m-10.3-.85-3.5-2.4-6.2 12.7-13.45-13.9 1-.45 10.7 9.2 7.55-9.15 3.9 4M253 208.05l-.5-.75h-12.3l-2.75-10.1h.5l3.85 7.5h10.25l.05.15.9 3.2" fill="#d99506" fill-rule="evenodd" transform="translate(-229.65 -154.9)"/><path d="m268.6 218.45 1.05.7 3.85 2.2 2.55 1.2v12.15l-10.55-2.75 1.95-9.25-.7-.4-1-.6-3.9-4-7.55 9.15-10.7-9.2 12-5.6-2.4-3.65-.2-.35-.9-3.2-.05-.15H241.8l-3.85-7.5 13.95-.55q1.35 3.65 3.15 6.9l1.6 2.65 15.45-3.7-8.65 11.85q2.4 2.25 5.15 4.1m-5.15-4.1q-3.9-3.6-6.8-8.15 2.9 4.55 6.8 8.15" fill="#fc0" fill-rule="evenodd" transform="translate(-229.65 -154.9)"/><path d="m42.45 47.6.45-.1-3.95 16.05M27 51.3l15.45-3.7M38.95 63.55l1.05.7 3.85 2.2 2.55 1.2m-12.6-8.2q2.4 2.25 5.15 4.1M27 51.3q2.9 4.55 6.8 8.15" fill="none" stroke="#000" stroke-linecap="round" stroke-linejoin="round" stroke-opacity=".6" stroke-width=".05"/><path d="m46.4 67.65 2.4.95.35 14.95-14-3.15.7-3.35 1.95-9.25-.7-.4-1-.6-3.5-2.4-6.2 12.7-13.45-13.9 1-.45 12-5.6-2.4-3.65m-.2-.35-.5-.75h-12.3L7.8 42.3h.5l13.95-.55q1.35 3.65 3.15 6.9L27 51.3" fill="none" stroke="#000" stroke-linecap="round" stroke-linejoin="round" stroke-opacity=".6" stroke-width=".6"/></g></defs></svg>