<svg viewBox="0 0 91.4 91.5" xmlns="http://www.w3.org/2000/svg" xmlns:xlink="http://www.w3.org/1999/xlink"><use width="91.4" height="91.5" xlink:href="#a"/><defs><g id="a"><path d="m295.7 245.05 6.8 1.45-5.9 5.9-3.45-4.8 2.55-2.55m23.95 25.75-3.3 3.3-1.1-6.95 1.3-1.25 1.7-1.7 1.4 6.6m-4.9 4.9-6.4-1.6h-.05l3.45-3.45 3 5.05" fill="#ffcf36" fill-rule="evenodd" transform="translate(-231.95 -242.2)"/><path d="m295.7 245.05 2.7-2.75 8.15.15-4.05 4.05-6.8-1.45m27.55 14.15v7.95l-3.6 3.65-1.4-6.6 5-5m-6.9 14.9-1.6 1.6-3-5.05 2.25-2.2 1.25-1.3 1.1 6.95m-8.1 8.1-3 3-4.15-3.9 2.95-2.95 4.2 3.85m-16.65-24.8-1.7-6.55 3.25-3.25 3.45 4.8-5 5" fill="#ffe148" fill-rule="evenodd" transform="translate(-231.95 -242.2)"/><path d="m305.25 285.2-2.05 2-5-3 2.9-2.9 4.15 3.9m-38.55-11.15 1.45-1.45L275 274l-1.3 1.25-2.1 2.1-4.9-3.3m14.35-14.35.75-.8 6.25 2.05-1.75 1.75-5.25-3" fill="#ffcf36" fill-rule="evenodd" transform="translate(-231.95 -242.2)"/><path d="m276.25 272.7-1.7-6.5 6.5-6.5 5.25 3-1.8 1.8-4.7 4.65-3.55 3.55M290.25 300.15l-4.15 4.2-5.6-2.5 2.55-2.55 1.65-1.6 1.6-1.65 1.9-1.85 2.05 5.95m-29.75-11.7-1.75-6.5 2.6-2.6 2.65 5.55-1.75 1.8-1.75 1.75m3.3-11.5 2.9-2.9 4.9 3.3-.8.8-3.25 3.2-3.75-4.4m4.35-4.35 1.45-1.45 6.65 1.55L275 274l-6.85-1.4" fill="#deab12" fill-rule="evenodd" transform="translate(-231.95 -242.2)"/><path d="m293 289.45 1.45 6.55-4.2 4.15-2.05-5.95 4.8-4.75m-6.9 14.9-2.5 2.45-6.4-1.6 3.3-3.35 5.6 2.5m-10.8 10.75-2.15 2.15-2.3-2.3-.05-2.05-.1-1.2 1.25-1.3 3.35 4.7m-24.25-25.45 2.75-2.75 6.65 1.6-3.35 3.3-6.05-2.15m10.3-10.3 2.45-2.4 3.75 4.4-3.55 3.55-2.65-5.55" fill="#c90" fill-rule="evenodd" transform="translate(-231.95 -242.2)"/><path d="m273.15 317.25 2.55 2.55 1.65-.25.6.6-2.55 1.2-32-32 2.05-2.05 1.1 1.1-.25 2.05.45.4 26.4 26.4m-27.8 12.3 1.65 1.65-.3 2.1-14.15-14.15 1.9-.5 10.9 10.9m-7.9.6-1.85-.6-1.35-4.3 3.85 3.85-.65 1.05m15.65-35.1.7.1q11.4 1.15 15.2 9.8l.7 2q.15 2.9-1.35 3.4l-15.25-15.3" fill="#8c0000" fill-rule="evenodd" transform="translate(-231.95 -242.2)"/><path d="m277.95 320.15.55.55-3.95 3.95-11.7-11.7-10.2-10.15-8.9-8.95-2.45-2.4 2.1-2.1 32 32 2.55-1.2M246.7 333.3l-2.1.3-12.55-12.55.5-1.9 14.15 14.15m-6.55-2.3-2.7-.85.65-1.05 2.05 1.9m30.55-19.3.1 1.2-2.45-2.55q1.5-.5 1.35-3.4.7 2.15 1 4.75" fill="#600" fill-rule="evenodd" transform="translate(-231.95 -242.2)"/><path d="m277.2 305.2 1.45 6.55-3.35 3.35-3.35-4.7 1.85-1.85 1.85-1.8 1.55-1.55m-28.9-12.8 2.75-2.75 6.05 2.15-3.3 3.35-.7-.1-2.25-.1-2.55-2.55m36.2-27.9 4.1-4.1 8.7 24.7-.85.85-11.95-21.45" fill="#ba8700" fill-rule="evenodd" transform="translate(-231.95 -242.2)"/><path d="m308.35 274.1 1.45 6.55-1.55 1.55-4.2-3.85 4.25-4.25h.05m-5.15 13.1-3.8 3.85-6.4-1.6 1.7-1.75 3.5-3.5 5 3m-21.4-28.3 3.15-3.1 6.65 1.6-3.55 3.55-6.25-2.05" fill="#f0bd24" fill-rule="evenodd" transform="translate(-231.95 -242.2)"/><path d="m302.5 246.5 4.05-4.05 7.25 7.25 6.1 12.85-3.35 3.35-15.6-17.85 1.55-1.55" fill="#deab24" fill-rule="evenodd" transform="translate(-231.95 -242.2)"/><path d="m298.25 250.75 7.2 26.2-2.8 2.8-12.15-21.25 7.75-7.75" fill="#cc9912" fill-rule="evenodd" transform="translate(-231.95 -242.2)"/><path d="m276.25 272.7 3.55-3.55 14.9 18.55-1.7 1.75-4.8 4.75-1.9 1.85-12.6-20.8L275 274l1.25-1.3m-5.45 5.45 10.05 23.35-.35.35-3.3 3.35-1.55 1.55-13.4-20.05 1.75-1.8 3.55-3.55 3.25-3.2m12.25 21.15L276 283.75l8.7 13.95-1.65 1.6m7.45-40.8 12.15 21.25-5.35 5.35-8.7-24.7 1.9-1.9m-20.8 48.45-.7-2 4.8 3.6-1.85 1.85-1.25 1.3q-.3-2.6-1-4.75M316.55 265.9l-1.3 1.25-1.25 1.3-8.9-8.9 1.8 15.95-1.45 1.45-7.2-26.2 2.7-2.7 15.6 17.85" fill="#a87500" fill-rule="evenodd" transform="translate(-231.95 -242.2)"/><path d="m313.8 249.7 9.45 9.5-3.35 3.35-6.1-12.85m-6.9 25.8-1.8-15.95 8.9 8.9-2.25 2.2-4.85 4.85" fill="#cc9912" fill-rule="evenodd" transform="translate(-231.95 -242.2)"/><path d="m253.8 295.15 3.3-3.35 3.35-3.3h.05v-.05l1.75-1.75 13.4 20.05-1.85 1.8-4.8-3.6q-3.8-8.65-15.2-9.8m26-26 4.7-4.65 11.95 21.45-1.75 1.75-14.9-18.55m-8.2 8.2 2.1-2.1 12.6 20.8-1.6 1.65-8.7-13.95 7.05 15.55-2.2 2.2-10.05-23.35.8-.8" fill="#966300" fill-rule="evenodd" transform="translate(-231.95 -242.2)"/><path d="m242.85 331.85-2.7-.85-2.05-1.9-3.85-3.85-.85-2.85 9.45 9.45m8-36.9 2.25.1 15.25 15.3 2.45 2.55.05 2.05-20-20" fill="#420000" fill-rule="evenodd" transform="translate(-231.95 -242.2)"/><path d="m262.85 312.95-1.1 1-3.35-3.45-5.6-5.75-.75-.7.6-1.25 10.2 10.15m-12.2 7.85-.6.7-2.25-1.5-4.3-3.55-1-.8q.35-.2.8-.3l.9.65 3.45 2.6 3 2.2m-3.6 5.15-.2 1.45-2.35-3.15-4.15-5.55-.65-.85.65-.45.55.7 3.4 4.35 2.75 3.5" fill="#ba5400" fill-rule="evenodd" transform="translate(-231.95 -242.2)"/><path d="m261.75 313.95-2.1.2q-3.7 1.6-6.65 4.25-.25 2.2-2.35 2.4l-3-2.2 3.1-1.7-.95-4.35 1.4 2.55 3.65-2.3L252 309l-.65-.9 4.05 2.95 3-.55 3.35 3.45m-11.7 7.55q-1.65 2.05-3 4.45l-2.75-3.5 3.5-2.45 2.25 1.5m-3.2 5.9q-.4 1.4-1.5 2.15l-4.4-4.4 3.55-.9 2.35 3.15m6.15-9-1.8-3.3 1.8 3.3m6.65-4.25-4.25-3.1 4.25 3.1" fill="#c60" fill-rule="evenodd" transform="translate(-231.95 -242.2)"/><path d="M240.9 318.1q1.4-1.5 2.6-1.65l4.3 3.55-3.5 2.45-3.4-4.35m-.55.6 4.15 5.55-3.55.9-4.7-4.7 4.1-1.75M252 309l2.85 3.8-3.65 2.3-1.4-2.55-.7-1.3.7 1.3.95 4.35-3.1 1.7-3.45-2.6q2.95-1.9 4.9-4.75l-.2-.4q.25-1.65 1.6-2.5l1.5.65m-.65-.9-.25-.15 1.7-3.2 5.6 5.75-3 .55-4.05-2.95" fill="#de7812" fill-rule="evenodd" transform="translate(-231.95 -242.2)"/><path d="m235.6 319.8 4.1-1.95.65.85-4.1 1.75-.65-.65m4.75-2.4q.65-1.1 2.15-1.75l1 .8q-1.2.15-2.6 1.65l-.55-.7m2.95-2.05q2.85-2.3 5.15-5.35.2-1.6.95-2.1l.85-.6.4-.6 1.4-2.65.75.7-1.7 3.2.25.15.65.9-1.5-.65q-1.35.85-1.6 2.5l.2.4q-1.95 2.85-4.9 4.75l-.9-.65m6.95-8.05.85.65-.85-.65m-1.8 2.7.45.85-.45-.85" fill="#f08a24" fill-rule="evenodd" transform="translate(-231.95 -242.2)"/><path d="M74.6.25 66.45.1l-2.7 2.75m6.8 1.45L74.6.25l7.25 7.25L91.3 17v7.95l-3.6 3.65-4.9 4.9-6.4-1.6 1.45 6.55L73.3 43l-2.05 2-3.8 3.85M62.5 53.8l-4.2 4.15-4.15 4.2-2.5 2.45-6.4-1.6 1.45 6.55-5.5 5.5 2.55 2.55 1.65-.25 1.15 1.15-3.95 3.95-11.7-11.7-1.1 1-2.1.2q-3.7 1.6-6.65 4.25-.25 2.2-2.35 2.4l-.6.7q-1.65 2.05-3 4.45l-.2 1.45q-.4 1.4-1.5 2.15m-2.5 2.3-5.4-1.7-1.85-.6-1.35-4.3-.85-2.85m2.2-2.6 4.1-1.95.65-.45q.65-1.1 2.15-1.75.35-.2.8-.3 2.85-2.3 5.15-5.35.2-1.6.95-2.1l.85-.6.4-.6 1.4-2.65.6-1.25-8.9-8.95m3-3 1.55 1.55 5.5-5.5 6.65 1.6.05-.05-1.75-6.5 2.6-2.6 2.45-2.4 5.8-5.8M42.6 24l6.5-6.5.75-.8L53 13.6l6.65 1.6-1.7-6.55 5.8-5.8M18.9 52.75l-2.55-2.55m2.55 2.55 2.25.1.7.1 3.3-3.35m5.15-5.1-1.75 1.75v.05h-.05l-3.35 3.3M44.3 30.5l3.55-3.55 4.7-4.65 1.8-1.8m-12.6 12.55 1.3-1.25 1.25-1.3m-4.65 4.65 2.1-2.1m12.6 20.8 1.9-1.85 4.8-4.75 1.7-1.75m-23.1-10.35-.8.8-3.25 3.2-3.55 3.55-1.75 1.8m18.6 14.8 2.2-2.2m1.65-1.6 1.6-1.65M43.7 64.55 45.25 63l3.3-3.35.35-.35m34.4-34.35 1.3-1.25 3.35-3.35M69 5.85l-2.7 2.7m7.2 26.2 1.45-1.45m7.1-7.05 1.25-1.3m8-7.95-3.35 3.35m-5.9 5.9-2.25 2.2-3.45 3.45h.05M64.65 10.2l1.65-1.65m-6.65 6.65-5.3 5.3M70.7 37.55l2.8-2.8m-8.15 8.15 5.35-5.35M64.65 10.2l-5 5m5.7 27.7-2.6 2.6m13.6-13.6-1.4 1.4M69 5.85l1.55-1.55M8.4 75.2l.55.7 3.4 4.35 2.75 3.5m26.75-17.4 1.85-1.8m-5.95.2-.7-2q-3.8-8.65-15.2-9.8M40 68.2l-1.25 1.3.1 1.2.05 2.05 2.3 2.3m-3.45-10.3q.7 2.15 1 4.75m3.1-3.15L40 68.2m-20.75 4.7 1.8 3.3m-1.9-10.45.25.15 4.05 2.95 4.25 3.1m-8.55-6.2-.85-.65m-1.35 3.55.2.4.7 1.3 1.4 2.55m-2.3-4.25-.45-.85m-4.25 6 3.45 2.6 3 2.2m-6.45-4.8-.9-.65m19.55-2.4L20.7 60.6m32.05-5.1-1.65 1.6M38.9 72.75l-20-20" fill="none" stroke="#000" stroke-linecap="round" stroke-linejoin="round" stroke-opacity=".4" stroke-width=".2"/><path d="m67.45 48.85-6.4-1.6 1.45 6.55M13.4 87.35 15.05 89l-.3 2.1-2.1.3L.1 78.85l.5-1.9 1.9-.5 10.9 10.9m-1.6-35.7-2.45-2.4 4.15-4.15 1.1 1.1-.25 2.05.45.4m22.85-19.7 6.65 1.55-1.7-6.5" fill="none" stroke="#000" stroke-linecap="round" stroke-linejoin="round" stroke-opacity=".4" stroke-width=".2"/></g></defs></svg>