<svg viewBox="0 0 74.85 114.65" xmlns="http://www.w3.org/2000/svg" xmlns:xlink="http://www.w3.org/1999/xlink"><use width="74.85" height="114.65" xlink:href="#a"/><defs><g id="a"><path d="m311.85 234.7-2.75 2.55q-7.5 5.4-13.45 11.35l-1.95 1.95q-4.55 4.85-8.2 10l-.3-3.2q1.35-3.05 3.25-6.15-3.7 4.1-5.15 8.55l-.35.75q-2.35 1.55-4.6 3.4l-1.3 1q-3.55 2.85-6.85 6.15l-4.35 4.65q-2.65 2.95-5.15 6.25-2.55 1.45-4.9 3.7 2.65-1.65 5.3-3l2.35.55q-4.4 2.1-8.8 4.3l-2.9 4.4-1.35 2.25q-6.1 11.2-7.55 24.65l-1.4-.1-2-.3q8.4-53.8 72.4-83.7m-67.4 84.2 1.7-10.3.8 10.3h-2.5" fill="#424242" fill-rule="evenodd" transform="translate(-237.1 -234.6)"/><path d="m309.1 237.25 2.75-2.55q-2.65 6.65-5.95 12.75-2.25-4.55 3.2-10.2m-9.7 15.2q1.55-3.25 6.5-5-3.1 5.9-6.8 11.4-1-3.7.3-6.4" fill="#aeaeae" fill-rule="evenodd" transform="translate(-237.1 -234.6)"/><path d="M239.45 334.3v-.6l3.2 1.6 1.25.55-1.2.8 1.2-.8 2.6 1.3.2.9-3.1-1.3-.95.95q-.05-.55.05-1.05v-.5l-3.25-1.85m.2-3.8v-1l2.8-2.5.6.5v.1l-3.4 2.9m.55-8.35q-.05-.75.05-1.45l1.2.7 1.4.5q2 .8 4.65 1.25l1.35-.35-.9 1.7q-2.65.25-4.75-.85l-3-1.5m2.85 5.45.05-.05 3.2 2.4-.1.9-3.2-2.4.05-.85" fill="#4b0000" fill-rule="evenodd" transform="translate(-237.1 -234.6)"/><path d="m239.45 334.3 3.25 1.85v.5q-.1.5-.05 1.05l-.2 4.2-3.5.2.15-3.05.35-4.75m3.2 1-3.2-1.6.2-3.2 3.4-2.9-.05.85-.35 6.85m-3-5.8.35-4.35.2-3 3 1.5-.15 3.85-.6-.5-2.8 2.5m2.8-2.5-2.45-1.85 2.45 1.85m-3.35 12.05 3.6-2.4-3.6 2.4" fill="#6f1212" fill-rule="evenodd" transform="translate(-237.1 -234.6)"/><path d="m243.9 335.85-1.25-.55.35-6.85 3.2 2.4q-.35 3.05.3 6.3l-2.6-1.3m2.4-5.9-3.2-2.4-.05.05v-.1l.15-3.85q2.1 1.1 4.75.85-1.25 2.65-1.65 5.45m-3.2-2.4-.05-.05.05.05m4.65 13.95-5.3.4.2-4.2.95-.95 3.1 1.3 1.05 3.45" fill="#5d0000" fill-rule="evenodd" transform="translate(-237.1 -234.6)"/><path d="m239.45 318.4 2 .3-1.9.4 1.9 2.3-1.2-.7q-2.1-1.2-3.05-2.85l2.25.55m-.8 26.9-.8-.3-.2-2.8 1.3-.1 3.5-.2 5.3-.4 6.35-1.95.55.75-6.85 2.35-6.1.3.05.05h-3.1v2.3" fill="#d1a852" fill-rule="evenodd" transform="translate(-237.1 -234.6)"/><path d="m241.45 318.7 1.4.1 1.6.1h2.6l1.75-.15 5.8-.9q.6.6.6 1.3l-6.6.8-5.8-.3 5.35 2.05-5.3.2-1.4-.5-1.9-2.3 1.9-.4m-2.8 26.6V343h3.1l-.05-.05 2.45 1.15-4.55.05 2 2.4-2.95-1.25" fill="#bf9640" fill-rule="evenodd" transform="translate(-237.1 -234.6)"/><path d="m241.7 342.95 6.1-.3 6.85-2.35q1.05 1.75-.2 4.7-1.85 3.55-6.65 4.15l-6.2-2.6-2-2.4 4.55-.05-2.45-1.15m13.5-23.8q-.1 1.1-2 2.5l-4.35 1.15-1.35.35q-2.65-.45-4.65-1.25l5.3-.2-5.35-2.05 5.8.3 6.6-.8" fill="#9b721c" fill-rule="evenodd" transform="translate(-237.1 -234.6)"/><path d="m250.4 294.15 1.35-2.25 3.25 8.35q-2.35 2.25-3.85 4.55l-.75-10.65m15.45-18.45 4.35-4.65 4.75 10.75q-1.25 1.05-2.2 2.6l-3.55-3.55.35 7.65-3.3.4-.65-8.15 4.2-1.4-3.9.6-.05-4.25m12.5-11.8q2.25-1.85 4.6-3.4l-.3 1.3q-.65 2.25-.6 4.6l1.3-4.4.7-1.9 1.15-2.75.3 3.2q3.65-5.15 8.2-10l3.55 8.85q-6.95 2.15-6 10-6.55.05-8.6 6l-4.3-11.5m17.3-15.3q5.95-5.95 13.45-11.35-5.45 5.65-3.2 10.2-4.95 1.75-6.5 5l-3.75-3.85" fill="#545454" fill-rule="evenodd" transform="translate(-237.1 -234.6)"/><path d="M242.85 318.8q1.45-13.45 7.55-24.65l.75 10.65q-4.85 6.95-2.35 13.95l-1.75.15h-.1l-.8-10.3-1.7 10.3-1.6-.1m8.9-26.9 2.9-4.4q4.4-2.2 8.8-4.3l-2.35-.55 1.95-.85 1.85-.75q.3-.2.7-.3l.65 8.15q-4.35 1.35-5.95 7.15l-1.5.9-3.8 3.3-3.25-8.35m8.95-9.95q2.5-3.3 5.15-6.25l.05 4.25-1.1.3-2.15.75-1.95.95m16.35-17.05 1.3-1 4.3 11.5q-.65 1.75-.9 4.1l-3.2.4-1.5-15" fill="#666" fill-rule="evenodd" transform="translate(-237.1 -234.6)"/><path d="M261.1 282.65q-2.65 1.35-5.3 3 2.35-2.25 4.9-3.7l1.95-.95.3.7.1.1-1.95.85m22.2-22.9q1.45-4.45 5.15-8.55-1.9 3.1-3.25 6.15l-1.15 2.75q-.35-.35-.75-.35m-17.7 21q-.4.1-.7.3l-.05-.15-.05-.65 1.1-.3 3.9-.6-4.2 1.4M283.35 262l-1.3 4.4q-.05-2.35.6-4.6l.55.15.15.05" fill="#900" fill-rule="evenodd" transform="translate(-237.1 -234.6)"/><path d="m282.95 260.5.35-.75q.4 0 .75.35l-.7 1.9-.15-.05-.55-.15.3-1.3m-18.05 20.55-1.85.75-.1-.1-.3-.7 2.15-.75.05.65.05.15" fill="#c30" fill-rule="evenodd" transform="translate(-237.1 -234.6)"/><path d="M260.3 296.05q1.6-5.8 5.95-7.15l3.3-.4 1.5.2q-5.15 3.85-10.75 7.35" fill="#fff" fill-rule="evenodd" transform="translate(-237.1 -234.6)"/><path d="M270.2 271.05q3.3-3.3 6.85-6.15l1.5 15q-2.05.55-3.6 1.9l-4.75-10.75m23.5-20.5 1.95-1.95 3.75 3.85q-1.3 2.7-.3 6.4l-1.85.55-3.55-8.85m-22.65 38.15-1.5-.2-.35-7.65 3.55 3.55q-1 1.8-1.6 4.2l-.1.1" fill="#787878" fill-rule="evenodd" transform="translate(-237.1 -234.6)"/><path d="M271.15 288.6q.6-2.4 1.6-4.2.95-1.55 2.2-2.6 1.55-1.35 3.6-1.9l3.2-.4q-5.05 4.75-10.6 9.1" fill="#f0f0f0" fill-rule="evenodd" transform="translate(-237.1 -234.6)"/><path d="M291.25 269.4q-4.4 5.3-9.5 10.1.25-2.35.9-4.1 2.05-5.95 8.6-6" fill="#dedede" fill-rule="evenodd" transform="translate(-237.1 -234.6)"/><path d="M299.1 258.85q-3.7 5.5-7.85 10.55-.95-7.85 6-10l1.85-.55" fill="#ccc" fill-rule="evenodd" transform="translate(-237.1 -234.6)"/><path d="M72 2.65 74.75.1q-64 29.9-72.4 83.7l2 .3 1.4.1 1.6.1h2.5M24 48.05q-2.65 1.35-5.3 3 2.35-2.25 4.9-3.7M45.85 25.9l.35-.75q1.45-4.45 5.15-8.55-1.9 3.1-3.25 6.15M72 2.65q-5.45 5.65-3.2 10.2Q72.1 6.75 74.75.1m-72.4 99v.6m3.25 2.35 1.2-.8-1.25-.55-3.2-1.6.2-3.2v-1l.35-4.35.2-3q-.05-.75.05-1.45-2.1-1.2-3.05-2.85l2.25.55M9.2 95.35 6 92.95l-.05.05m3.15 3.25.1-.9q.4-2.8 1.65-5.45m-4.9 3 .05.05m-.05-.05-.6-.5m-2.8 3.5 3.4-2.9M2.9 90.55l2.45 1.85m-3.5 15.1-1.3.1.2 2.8.8.3 2.95 1.25 6.2 2.6q4.8-.6 6.65-4.15 1.25-2.95.2-4.7l-.55-.75-6.35 1.95-5.3.4-3.5.2.15-3.05.35-4.75m4.45 1.55 2.6 1.3q-.65-3.25-.3-6.3m.3 6.3.2.9 1.05 3.45m-5.05-4.85-3.6 2.4m25.8-58-1.85.75-1.95.85m3.8-1.6q.3-.2.7-.3l4.2-1.4-3.9.6-1.1.3.05.65.05.15m-1.85.75-.1-.1-.3-.7-1.95.95m1.95-.95 2.15-.75m-16 38.5 5.8-.9q.6.6.6 1.3-.1 1.1-2 2.5l-4.35 1.15-.9 1.7m-5.1-2.6-1.4-.5-1.2-.7m6.8-1.8 1.75-.15q-2.5-7 2.35-13.95m-8.3 17.1q2 .8 4.65 1.25l1.35-.35m6.15-22.55 3.8-3.3 1.5-.9q1.6-5.8 5.95-7.15m-5.95 7.15q5.6-3.5 10.75-7.35l-1.5-.2-3.3.4m4.9-.3q.6-2.4 1.6-4.2m-1.7 4.3.1-.1q5.55-4.35 10.6-9.1l-3.2.4q-2.05.55-3.6 1.9-1.25 1.05-2.2 2.6M17.9 65.65q-2.35 2.25-3.85 4.55M62.3 17.85q1.55-3.25 6.5-5-3.1 5.9-6.8 11.4T54.15 34.8q-4.4 5.3-9.5 10.1.25-2.35.9-4.1M62.3 17.85q-1.3 2.7-.3 6.4l-1.85.55q-6.95 2.15-6 10-6.55.05-8.6 6m1.4-15.3-.7 1.9-1.3 4.4q-.05-2.35.6-4.6l.3-1.3m.4 1.5-.15-.05-.55-.15m.65-2.05q.4 0 .75.35l1.15-2.75" fill="none" stroke="#000" stroke-linecap="round" stroke-linejoin="round" stroke-opacity=".412" stroke-width=".2"/></g></defs></svg>