<svg viewBox="0 0 215.5 214.95" xmlns="http://www.w3.org/2000/svg" xmlns:xlink="http://www.w3.org/1999/xlink"><use transform="translate(-.025 .025)" width="215.5" height="214.9" xlink:href="#a"/><defs><use width="215.5" height="214.9" xlink:href="#b" id="a"/><g id="b"><path d="m201.55 1.2 4-1.2-64.25 64.25-3.1.25 4.4-4.4 15.25-15.2L196.4 6.3l5.15-5.1M178.9 102.95q-6.8 1.3-15.75.05l-5.3-.95V92.1q5.1.6 9.8-1.2 2.05 1.55 4.8 1.8l.9.05h1.05l.5-.05-.4.2 4.4 10.05m-33.6 11.75-22.05 22.35-.65-9.7 22.25-22.25.45 9.6m40.85-43.2.75 1.05q1.45 2.2 1.5 5.15l-.05 1.6q-.35 3.4-2.15 6.3l-2.25 2.75q-3.9 3.85-8.95 4.35l-.1-.45q3.6-1 6.6-3.9 1.25-1.3 2.9-3.7 1.25-1.9 1.75-4.65l.2-1.4q.25-3.15-.85-6.85l.65-.25M174.4 92.75l.1.15-.1-.15m-52-.3q-.5 2.85-1.7 5.9-2.65 6.65-8.7 14.2l-22.25 22.2L77.5 147l3 14.45-6.15-6.6-2.25-2.4-.15.1-4.1-3.8-.25-1 54.8-55.3M77.5 147l-5.4 5.45 5.4-5.45" fill="#bbb" fill-rule="evenodd"/><path d="m141.3 64.25-.25.25q-1.8 7.6 2.25 9.45 2.3 1.1 6.7.15l-1.9 5.2.25.1-3.2-.05-1.6.25q-9.45 1-7.9-9.7l-.75-2.05 3.3-3.35 3.1-.25m57.8-3.95.5 6.25q.6 14.1-3.3 22.85l-10.1-3.8q1.8-2.9 2.15-6.3l.05-1.6q-.05-2.95-1.5-5.15l12.2-12.25M4.3 194.95l-1.6-1.55q1-4.2 5.4-6.9 2.85 5.05-3.8 8.45m38.3-69.9 15.45-15.3 1.75 6.95 9.45-9.4 5 24-8.6 8.6-5.85-23.2-12.6 12.65-3.1-2.9-1.5-1.4m25.2-24.85 11.5-11.4 1.55 6.9-11.6 11.6-1.45-7.1m49.75-49.15L141 27.9l.35 7.3-23.3 23.3-.5-7.45m40.3-36.8 43.7-13.05-5.15 5.1-38.55 13.1v25.5L142.6 60.1l-1.25-24.9 15.4-15.4 1.1-.4v-5.15m-37.5 78.8 2.05-.6-54.8 55.3-.4.4-2.5-2.35 46-48.45q4.65-2.7 9.65-4.3" fill="#e5e5e5" fill-rule="evenodd"/><path d="M214 13.75 199.1 60.3l-12.2 12.25-.75-1.05q3.25-6.1 6.25-13.95l16.7-38.9 4.9-4.9" fill="#f0f0f0" fill-rule="evenodd"/><path d="m150 74.1.55-.1L215.5 9l-1.5 4.75-65.65 65.65-.25-.1 1.9-5.2M2.7 193.4l-.4-.4q-.9-6.2 5.8-6.5-4.4 2.7-5.4 6.9m55.35-83.65 9.75-9.55 1.45 7.1-9.45 9.4-1.75-6.95M79.3 88.8l38.25-37.75.5 7.45-37.2 37.2-1.55-6.9M141 27.9l12.45-12.35 4.4-1.3v5.15l-1.1.4-15.4 15.4-.35-7.3m-54.75 91.4 15.35-15.35q4.35-3.9 9.1-6.6l-46 48.45-.85-.8-.1-.1-1.6-1.5 24.1-24.1" fill="#fff" fill-rule="evenodd"/><path d="M196.3 89.4q-5 11.1-17.4 13.55l-4.4-10.05.4-.2-.5.05h-1.05l-.9-.05 1.1-.15.8-.15.55-.15.1.45q5.05-.5 8.95-4.35l2.25-2.75 10.1 3.8m-38.45 12.65L145.3 114.7l-.45-9.6 13-13v9.95m-34.6 35L95.6 165l-1.15-9.55h.05-.05l-10.05 10.1-1.1-1.15-.2-.25-2.6-2.7-3-14.45 12.25-12.25 4.75 20.7 28.1-28.1-1.9-29q1.2-3.05 1.7-5.9l-2.05.6-2.3-34.55 23.3-23.3 1.25 24.9-4.4 4.4-3.3 3.35.75 2.05q-1.55 10.7 7.9 9.7l1.3 25.5-22.25 22.25.65 9.7M6.3 197l-2-2.05q6.65-3.4 3.8-8.45l3.7 3.6.75.8 3.6 3.65q-2.4 4.1-6.15 6.15L6.3 197M196.4 6.3l-38.55 38.6V19.4L196.4 6.3m12.7 12.35-16.7 38.9q-3 7.85-6.25 13.95l-.65.25-.4-1.25.5.45.55.55-.55-.55-.5-.45q-3.15-2.8-7.9-2.35-5.1.45-9 4.4-3.95 3.95-4.45 9.05-.45 5.1 2.8 8.35l1.1.95q-4.7 1.8-9.8 1.2V69.9l51.25-51.25M175 92.7h-.1.1m-94.15 3 5.4 23.6-12 12-5-24 11.6-11.6m-15.2 44.2-3.5 3.5-11.3-10.6-.15-.15-.15-.1-3.35-3.2 12.6-12.65 5.85 23.2" fill="#ccc" fill-rule="evenodd"/><path d="M157.85 69.9v22.2l-13 13-1.3-25.5 1.6-.25 3.2.05 9.5-9.5" fill="#d1d1d1" fill-rule="evenodd"/><path d="m118.05 58.5 2.3 34.55q-5 1.6-9.65 4.3-4.75 2.7-9.1 6.6L86.25 119.3l-5.4-23.6 37.2-37.2m2.65 39.85 1.9 29-28.1 28.1-4.75-20.7 22.25-22.2q6.05-7.55 8.7-14.2" fill="#dedede" fill-rule="evenodd"/><path d="M.9 212.85q-.6-.7-.8-1.6L7 197.7l3 3-9.1 12.15m10.9-22.75q.85-4.3 3.9-5.8l.9.95q-2.85 2-4.05 5.65l-.75-.8m10.3-10.45 1.3-2.4q.3-5.4 5.2-7.85l1.4 1.4q-3.55 3.25-5.65 7.35l.7.75q-.4 1.9-1.1 2.65l4.95 4.95q-1.5 2.6-4.8 3.7l-5.05-5.1q3-1.25 4.9-3.55l-1.85-1.9m16.5-18.2 1.35-2.6q.15-6 4.75-7.55l2.6 2.6q-4.2 2.25-6.15 6.15l.65.65q.2 1.35-1.15 2.85l-2.05-2.1m23.55-18.05 1.6 1.5-7.3.3.25-6.3-6.4.1.4-6.2h.15l11.3 10.6m21.15 21 1.1 1.15 4.55 4.95-6.2.05.3-6.4-6.55.1.3-6.45-6.7.1v-.15l.3-6.45-6.85.05.3-5.6.85.05 2.5 2.35.65.6 4.1 3.8 2.4 2.3 6.15 6.6 2.6 2.7.2.25m-39.2-37.95 3.1 2.9 3.35 3.2-6.65.05.2-6.15m-20.7 50.8.95.9-.95-.9m16.55-18.4 1.2 1.2-1.2-1.2m-1.25 16.7-5.9-5.85q5-2.4 7.85-6.15l6 6q-2.6 5-7.95 6" fill="#d275ff" fill-rule="evenodd"/><path d="m89.6 171.1 2.85 3.15 12.9 1.15-.85 6-17.1 1-56.75-56.75 1.7-16.25 5.5-.6 1.5 13.2 3.25 3.05 1.5 1.4-.2 6.15 6.65-.05.15.1v.15l-.4 6.2 6.4-.1-.25 6.3 7.3-.3.1.1v.75l-.3 5.6 6.85-.05-.3 6.45v.15l6.7-.1-.3 6.45 6.55-.1-.3 6.4 6.2-.05.65.6m-65.45 31.4 3.7 3.75q.15 5.45-6.3 6l-3.6-3.6-3.65-3.7q4.5-1.15 6.15-6.15l3.7 3.7" fill="#333" fill-rule="evenodd"/><path d="m95.6 165-5.6 5.65-1.05-.15-4.55-4.95 10.05-10.1L95.6 165" fill="#b2b2b2" fill-rule="evenodd"/><path d="m104.5 181.4-.25 2.05-18.1 2L27 127.65l3.1-17.95 2.25-.3-1.7 16.25L87.4 182.4l17.1-1M10 200.7q3.75-2.05 6.15-6.15l4.3 4.25q-1.65 5-6.15 6.15L10 200.7" fill="#666" fill-rule="evenodd"/><path d="m104.25 183.45-.25 1.8-17.2 3.5-17.8-17.2-5.55-4.6-7.5-7.5-7.15-7.05-1.6-1.6-22.6-23.35 3.15-17.5 2.35-.25-3.1 17.95 59.15 57.8 18.1-2" fill="#404040" fill-rule="evenodd"/><path d="M44.7 151.3q1.1-.4 2.5-.5l1.6 1.6q.45.5-1.5 1.5l-2.6-2.6m-4.55 29.6L30 170.8q1.05-.9 2.8-1.1l5.9 5.85 2.9 2.85-1.45 2.5m-23.55 4.35 1.7-.85.75.7 5.05 5.1 2.85 2.8-.75 1.8-9.6-9.55" fill="#bb2dff" fill-rule="evenodd"/><path d="M47.3 153.9q1.95-1 1.5-1.5l7.15 7.05q.05 1.45-.35 2.75l-8.3-8.3" fill="#7300aa" fill-rule="evenodd"/><path d="m15.7 184.3 1.9-.65.7.75-1.7.85-.9-.95m12.9-14.9q1.25-.65 2.85-1.1l1.35 1.4q-1.75.2-2.8 1.1l-1.4-1.4m-3.55 9.5 4.8 4.8-.95 2.8-4.95-4.95q.7-.75 1.1-2.65m15.6-15.35q1.35-1.5 1.15-2.85l6 6-1.15 2.85-6-6" fill="#c751ff" fill-rule="evenodd"/><path d="m2.05 213.8-1.15-.95L10 200.7l4.3 4.25-12.25 8.85m23-34.9-.7-.75q2.1-4.1 5.65-7.35l10.15 10.1q-2.8 4-7.25 5.85l-7.85-7.85m-8.9 15.65-3.6-3.65q1.2-3.65 4.05-5.65l9.6 9.55q-1.9 3.6-5.75 4l-4.3-4.25M41.8 160.7l-.65-.65q1.95-3.9 6.15-6.15l8.3 8.3q-1.15 3.7-6.15 6.15l-7.65-7.65" fill="#9c00e8" fill-rule="evenodd"/><path d="m.1 211.25-.05-1.7L6.3 197l.7.7-6.9 13.55m17.5-27.6q2.6-1.1 4.5-4l1.85 1.9q-1.9 2.3-4.9 3.55l-.75-.7-.7-.75m13.85-15.35q4.6-2.7 7.15-6.85l2.05 2.1q-2.85 3.75-7.85 6.15l-1.35-1.4" fill="#ecc4ff" fill-rule="evenodd"/><path d="M55.35 174.3q-1.45.55-2.65 1.25l-6.05-6 1.15-2.85 1.65 1.65 5.9 5.95m-18.3 16.6q-1.4.5-2.55 1.2l-5.6-5.6.95-2.8 7.2 7.2" fill="#8200bf" fill-rule="evenodd"/><path d="M52.7 175.55q-4.6 2.65-6.7 7.25l-4.4-4.4-2.9-2.85q5.35-1 7.95-6l6.05 6M34.5 192.1q-2.75 1.7-3.9 4.6l-3.65-3.7-2.85-2.8q3.3-1.1 4.8-3.7l5.6 5.6" fill="#ab00fd" fill-rule="evenodd"/><path d="M46 182.8q-.35 1.6-1.05 2.9l-4.8-4.8 1.45-2.5 4.4 4.4m-15.4 13.9-.75 1.75-3.65-3.65.75-1.8 3.65 3.7" fill="#7800b3" fill-rule="evenodd"/><path d="M62.75 169.35q-1.95 4.5-7.4 4.95l-5.9-5.95q5-2.45 6.15-6.15l7.15 7.15m-17.8 16.35q-2.2 4.1-7.9 5.2l-4.15-4.15q4.45-1.85 7.25-5.85l4.8 4.8m-15.1 12.75q-1.95 3.5-5.7 4.05l-3.7-3.7q3.85-.4 5.75-4l3.65 3.65m-11.9 10.2L5.4 214.9q-2.05-.35-3.35-1.1l12.25-8.85 3.65 3.7" fill="#609" fill-rule="evenodd"/><path d="m63.45 166.95-.7 2.4-7.15-7.15q.4-1.3.35-2.75l7.5 7.5" fill="#420062" fill-rule="evenodd"/><path d="m201.55 1.2 4-1.2-64.5 64.5q-1.8 7.6 2.25 9.45 2.3 1.1 6.7.15l.55-.1L215.5 9l-1.5 4.75-14.9 46.55.5 6.25q.6 14.1-3.3 22.85-5 11.1-17.4 13.55-6.8 1.3-15.75.05l-5.3-.95-12.55 12.65-22.05 22.35L95.6 165l-5.6 5.65-.4.45 2.85 3.15 12.9 1.15-.85 6-.25 2.05-.25 1.8-17.2 3.5-17.8-17.2-5.55-4.6-.7 2.4q-1.95 4.5-7.4 4.95-1.45.55-2.65 1.25-4.6 2.65-6.7 7.25-.35 1.6-1.05 2.9-2.2 4.1-7.9 5.2-1.4.5-2.55 1.2-2.75 1.7-3.9 4.6l-.75 1.75q-1.95 3.5-5.7 4.05l3.7 3.75q.15 5.45-6.3 6l-3.6-3.6L5.4 214.9q-2.05-.35-3.35-1.1l-1.15-.95q-.6-.7-.8-1.6l-.05-1.7L6.3 197l-2-2.05-1.6-1.55-.4-.4q-.9-6.2 5.8-6.5l3.7 3.6q.85-4.3 3.9-5.8l1.9-.65q2.6-1.1 4.5-4l1.3-2.4q.3-5.4 5.2-7.85 1.25-.65 2.85-1.1 4.6-2.7 7.15-6.85l1.35-2.6q.15-6 4.75-7.55 1.1-.4 2.5-.5l-22.6-23.35 3.15-17.5 2.35-.25 2.25-.3 5.5-.6 1.5 13.2 3.25 3.05 15.45-15.3 9.75-9.55 11.5-11.4 38.25-37.75L141 27.9l12.45-12.35 4.4-1.3 43.7-13.05m-15.4 70.3.75 1.05m-1.8-2.05.4 1.25m.65-.25-.55-.55-.5-.45q-3.15-2.8-7.9-2.35-5.1.45-9 4.4-3.95 3.95-4.45 9.05-.45 5.1 2.8 8.35l1.1.95q2.05 1.55 4.8 1.8l1.1-.15.8-.15.55-.15q3.6-1 6.6-3.9 1.25-1.3 2.9-3.7 1.25-1.9 1.75-4.65l.2-1.4q.25-3.15-.85-6.85m.7 13.85q1.8-2.9 2.15-6.3l.05-1.6q-.05-2.95-1.5-5.15m-38.55 6.85-3.2-.05-1.6.25m28.9 13.1.9.05h1.05l.5-.05h.1q5.05-.5 8.95-4.35l2.25-2.75m-65.85 7.45 2.05-.6q-.5 2.85-1.7 5.9M86.25 119.3l-24.1 24.1 1.6 1.5.1.1.85.8m25.05-11.05 22.25-22.2q6.05-7.55 8.7-14.2M77.5 147l12.25-12.25m-5.35 30.8-1.1-1.15m-.2-.25-2.6-2.7-6.15-6.6-2.4-2.3-4.1-3.8-.65-.6-2.5-2.35m24.25 24.7-4.55-4.95m5.2 5.55-.65-.6M42.6 125.05l1.5 1.4 3.1 2.9m3.35 3.2-3.35-3.2m3.65 3.45 11.3 10.6m-13.35 9-1.6-1.6m1.6 1.6 7.15 7.05 7.5 7.5m8.65-14.5 5.4-5.45m-53.15 31.15.7.75 12 12m-12.7-12.75-.95-.9m9.4-7.55-1.35-1.4M7 197.7l3 3 4.3 4.25 3.65 3.7m-1.8-14.1-3.6-3.65-.75-.8M6.3 197l.7.7m11.3-13.3-.7-.75m9.35 9.35-2.85-2.8-5.05-5.1-.75-.7m2.15 14.4-4.3-4.25m10.8-1.55 3.65 3.7m-10.15 2.1 3.7 3.7m17.65-41.8-1.85-1.85m-1.25 16.7 2.9 2.85 4.4 4.4m-13.2-13.1 5.9 5.85m9.1-8.85 1.65 1.65 5.9 5.95m-7.55-7.6-6-6m32.55-5.85-2.25-2.4" fill="none" stroke="#666" stroke-linecap="round" stroke-linejoin="round" stroke-opacity=".588" stroke-width=".05"/><path d="m157.85 19.4-1.1.4-75.9 75.9 5.4 23.6 15.35-15.35q4.35-3.9 9.1-6.6 4.65-2.7 9.65-4.3m37.5-73.65L196.4 6.3m-38.55 63.6-9.5 9.5m9.5-9.5 51.25-51.25M69.25 107.3l-9.45 9.4m-12.6 12.65 12.6-12.65m7.8 31.05 54.8-55.3M10 200.7q3.75-2.05 6.15-6.15m53.1-87.25 11.6-11.6" fill="none" stroke="#fff" stroke-linecap="round" stroke-linejoin="round" stroke-width=".05"/><path d="m209.1 18.65-16.7 38.9q-3 7.85-6.25 13.95m-18.5 19.4q-4.7 1.8-9.8 1.2m-13 13 13-13m16.65.8-.1-.15m-51.8 34.6 22.25-22.25m-9.95-37.25.75 2.05q-1.55 10.7 7.9 9.7m-20.95 47.75-28.1 28.1h-.05m-10.05 10.1 10.05-10.1" fill="none" stroke="#666" stroke-linecap="round" stroke-linejoin="round" stroke-opacity=".369" stroke-width=".05"/><path d="m104.5 181.4-17.1 1-56.75-56.75 1.7-16.25" fill="none" stroke="#e5e5e5" stroke-linecap="round" stroke-linejoin="round" stroke-opacity=".369" stroke-width=".05"/><path d="M32.9 186.75q4.45-1.85 7.25-5.85m-16.05 9.3q3.3-1.1 4.8-3.7m-2.7 8.3q-1.9 3.6-5.75 4m18.25-23.25q5.35-1 7.95-6m2.8-1.2q5-2.45 6.15-6.15M10 200.7.9 212.85m13.4-7.9L2.05 213.8" fill="none" stroke="#dd95ff" stroke-linecap="round" stroke-linejoin="round" stroke-width=".05"/></g></defs></svg>