<svg viewBox="0 0 31.05 51.639" xmlns="http://www.w3.org/2000/svg" xmlns:xlink="http://www.w3.org/1999/xlink"><use width="31.05" height="51.65" xlink:href="#a"/><defs><g id="a"><path d="m290.25 174.85-.55 1-17.85 31.6 17.85-31.6-16.75 34.8-1.1-.65.35-.5.25-1.15-.05-.3-.45-.55-.1-.05h-.7l-.15.05q-.55.25-.9.85l-.2.6-1.7-.95 21.55-32.75.5-.4" fill="#62a3ac" fill-rule="evenodd" transform="translate(-259.45 -174.65)"/><path d="m289.7 175.85.55-1 .2-.15-.6 3.95-10.45 25q-3 2.5-4.15 8.2l-1-.5-.35-.2-.95-.5 16.75-34.8m.05-.6L268.2 208l-.9-.5-.35-.25-.5-.3 2.15-2.3 1.8-2.75.15-.4 14.3-22.15 4.9-4.1" fill="#83b7be" fill-rule="evenodd" transform="translate(-259.45 -174.65)"/><path d="m266.7 213.15 1.5-2.7-8.05-3.1-.65-2.05.9-.25.1-1.9.85.5.1-.15.75 2.05 16.2 8.9 2.3-.05.9.45L280 216l.3.85-2.15.55-6.8-5.2-2.65 4.7-2-3.75m12.65 1.8-.95-.5.95.5m-8-2.75-3.15-1.75 3.15 1.75m7.05 2.25h-2.15 2.15m-16.2-8.9-.75-.4.75.4" fill="#1b1b1b" fill-rule="evenodd" transform="translate(-259.45 -174.65)"/><path d="m268.2 208 1.7.95.2-.6q.35-.6.9-.85l.15-.05h.7l.1.05.45.55.05.3-.25 1.15-.35.5 1.1.65.95.5.35.2 1.4.7 2.25.8.05-2.2 2.05 2.25 1.3-.55-.6 2.05-2.3.05-16.2-8.9-.75-2.05 1.3-1.45.25 1.4 3 .55-1.85 1.2 2.3 1.75.5.3.35.25.9.5m.5 8.9-4.95 8.95q-3.1 1.3-3.15-1.75l6.1-10.95 2 3.75m3-8.1q.8-.5-.1-.9-.75.2-.3.85l.4.05" fill="#633" fill-rule="evenodd" transform="translate(-259.45 -174.65)"/><path d="m279.4 203.65 10.45-25q-2.25 13.15-7.1 23.4-1.9.4-3.35 1.6m-8.85-2.15q1.3-3.1.3-6.1 5.4-8.5 14-16.05l-14.3 22.15" fill="#c4dcdf" fill-rule="evenodd" transform="translate(-259.45 -174.65)"/><path d="m271.7 208.8-.4-.05q-.45-.65.3-.85.9.4.1.9" fill="#ffc" fill-rule="evenodd" transform="translate(-259.45 -174.65)"/><path d="m30.25 1.2.55-1M12.4 32.8 30.25 1.2m-15.8 35.3.35.2 1 .5M9.15 30l1.8-2.75m7.5 10.95-2.25-.8-.4-.2m3.15 2.6.95.5M2 30.5l.75.4m14.05 8.9h2.15" fill="none" stroke="#5f462e" stroke-linecap="round" stroke-linejoin="round" stroke-width=".1"/><path d="m30.8.2-.5.4M8.75 33.35l1.7.95.2-.6q.35-.6.9-.85l.15-.05h.7l.1.05.45.55.05.3-.25 1.15-.35.5 1.1.65.95.5m1.35.7q1.15-5.7 4.15-8.2M30.4 4 31 .05l-.2.15M11.1 26.85q1.3-3.1.3-6.1 5.4-8.5 14-16.05L30.3.6M10.95 27.25l.15-.4m-9.1 2 1.3-1.45.25 1.4 3 .55-1.85 1.2L7 32.3 9.15 30m-1.9 8.5 1.5-2.7L.7 32.7l-.65-2.05.9-.25.1-1.9.85.5.1-.15m19.25 10.9.6-2.05-1.3.55L18.5 36l-.05 2.2M30.4 4q-2.25 13.15-7.1 23.4-1.9.4-3.35 1.6m1.3 10.75.9.45-1.6 1.15.3.85-2.15.55-6.8-5.2-2.65 4.7L4.3 51.2q-3.1 1.3-3.15-1.75l6.1-10.95m1.5-2.7 3.15 1.75M7 32.3l.5.3.35.25.9.5" fill="none" stroke="#5f462e" stroke-linecap="round" stroke-linejoin="round" stroke-width=".1"/></g></defs></svg>