<svg viewBox="0 0 223.98 287.63" xmlns="http://www.w3.org/2000/svg" xmlns:xlink="http://www.w3.org/1999/xlink"><use transform="matrix(.4947 .6639 -.6639 .4947 222.58 -.19)" width="149.35" height="422.95" xlink:href="#a"/><defs><linearGradient id="g" x1="-819.2" x2="819.2" gradientTransform="matrix(.0315 -.0181 .0527 .0919 34.85 89.45)" gradientUnits="userSpaceOnUse"><stop stop-color="#fed7b0" offset="0"/><stop stop-color="#febb78" offset="1"/></linearGradient><linearGradient id="h" x1="-819.2" x2="819.2" gradientTransform="matrix(.0292 .109 -.1166 .0312 82.45 153.35)" gradientUnits="userSpaceOnUse"><stop stop-color="#f93" offset="0"/><stop stop-color="#b76d24" offset="1"/></linearGradient><linearGradient id="l" x1="-819.2" x2="819.2" gradientTransform="matrix(.0183 .0077 -.0082 .0194 58.15 106.5)" gradientUnits="userSpaceOnUse"><stop stop-color="#8c6e6e" offset="0"/><stop stop-color="#392d2d" offset="1"/></linearGradient><linearGradient id="m" x1="-819.2" x2="819.2" gradientTransform="matrix(.0183 .0077 -.0082 .0194 58.15 106.5)" gradientUnits="userSpaceOnUse"><stop stop-color="#725a5a" offset="0"/><stop stop-color="#392d2d" offset="1"/></linearGradient><linearGradient id="p" x1="-819.2" x2="819.2" gradientTransform="matrix(.0209 0 0 .0435 80.05 143.4)" gradientUnits="userSpaceOnUse"><stop stop-color="#8c002b" offset="0"/><stop stop-color="#520019" offset="1"/></linearGradient><linearGradient id="q" x1="-819.2" x2="819.2" gradientTransform="matrix(.011 0 0 .0222 61.15 210.65)" gradientUnits="userSpaceOnUse"><stop stop-color="#ff7420" offset="0"/><stop stop-color="#ff681c" stop-opacity="0" offset="1"/></linearGradient><linearGradient id="r" x1="-819.2" x2="819.2" gradientTransform="matrix(.0065 0 0 .011 88.6 226.3)" gradientUnits="userSpaceOnUse"><stop stop-color="#ff7420" offset="0"/><stop stop-color="#ff681c" stop-opacity="0" offset="1"/></linearGradient><linearGradient id="s" x1="-819.2" x2="819.2" gradientTransform="matrix(.0104 0 0 .0265 43.9 226.6)" gradientUnits="userSpaceOnUse"><stop stop-color="#ff7420" offset="0"/><stop stop-color="#ff681c" stop-opacity="0" offset="1"/></linearGradient><g id="a" transform="translate(29.45 30.35)"><use transform="matrix(1.4303 0 0 1.1195 -29.465 -30.36)" width="99.05" height="252.45" xlink:href="#b"/><use transform="matrix(.946 0 0 1 13.777 182.95)" width="112.15" height="209.65" xlink:href="#c"/><use transform="translate(35.3 192.45)" width="58.6" height="77.8" xlink:href="#d"/><use transform="translate(54.815 255.69) scale(.7072)" width="35.4" height="36.9" xlink:href="#e"/></g><g id="f"><path d="m0 0 8.65 7.4q11.5 10.15 21.5 20.55Q77 88.25 86.45 142.7q5.65 32.5.55 66.95-1.25 8.45 3.25 16.05-7.1-11-6.75-41.25l.05-3.8q-2.3-38.5-15.1-66.9l-1.05-3.55-.15.05Q76.05 164.4 51 194.1q-6.5-5.95-6.05-18.7l-.8 1.25q-.8-15.65 4.9-24.8-2.2 12.75 2.45 24.65l.35-2.7q3.85-14.65 6.55-27.2.3-8 1.3-14.7-.45-1.1.3-1.7-.45-5.1.35-9.55-.85-6.85-.8-12.9l-1.65-2.95-.05-8.15-1.7-1.95q.3-.95.05-1.9-.5-1.95-.55-4l-2.6-4.25q.3-1.35 1-2.85l-8.1-15.5q-.1-1.35.25-2.9-4.75-7.55-10.35-15.3.15-1.2-.4-2.1-3.5-5.7-8-11.25Q18.5 21.15 6.6 7.4L0 0" fill="#f93" fill-rule="evenodd" transform="translate(.5 .5)"/><path d="M23.7 36.35Q15.65 21.8 5.4 7.4L0 0l6.6 7.4q11.9 13.75 20.85 27.25l-3.75 1.7m11.75 9.55q.55.9.4 2.1l-5 2.25-.85-1.8 5.45-2.55M46.2 63.3q-.35 1.55-.25 2.9l8.1 15.5q-.7 1.5-1 2.85l2.6 4.25-9.4 2.65-1.85-6.55Q42 77 39 69.15l-.9-2.3 8.1-3.55m11.65 33.35.05 8.15h-8.55l-1.3-6.15 9.8-2M60 130.2q-.75.6-.3 1.7l-6.7-1.05-.15-1.85 7.15 1.2M51.65 85l1.4-.45-1.4.45M39 69.15l6.95-2.95L39 69.15" fill="url(#g)" fill-rule="evenodd" transform="translate(.5 .5)"/><path d="M27.45 34.65q4.5 5.55 8 11.25L30 48.45q-2.95-6.05-6.3-12.1l3.75-1.7M35.85 48q5.6 7.75 10.35 15.3l-8.1 3.55q-3.25-8.35-7.25-16.6l5-2.25m19.8 40.8q.05 2.05.55 4 .25.95-.05 1.9l1.7 1.95-9.8 2-1.8-7.2 9.4-2.65m2.25 16 1.65 2.95q-.05 6.05.8 12.9-.8 4.45-.35 9.55l-7.15-1.2-.9-8.55q-1-7.85-2.6-15.65h8.55m1.8 27.1q-1 6.7-1.3 14.7-2.7 12.55-6.55 27.2 1.8-14.4 1.7-28.65l-.55-14.3 6.7 1.05m-10.65 19.95q-5.7 9.15-4.9 24.8l-.75 1.3q-1.2 1.9-3.1 3.35l-7.75-5.6q2-4 4.35-7.9l6.5 10.15-6.5-10.15q5.2-8.65 12.3-16.8l-.15.85m5.5-57.15h1.6-1.6m1.25 13.7 3.75-.65-3.75.65m4.55 12.25-8.4-.2 8.4.2m-6.8 24.5 4.85 1.45-4.85-1.45m-22.05 32.8 9.05 4.95-6.35 11.5-8.05-2.35q2.1-7.25 5.35-14.1m-6.4 18.1 7.55 3.15q.15 2.55-1.15 5.3l-7.75-2.15q.55-3.2 1.35-6.3m-3 26.45q-.05-4.55.25-8.95l7.1 2.5-1.9 9.85-5.25-2.55-.2-.1v-.75l.2.85-.2-.85" fill="#fed8b4" fill-rule="evenodd" transform="translate(.5 .5)"/><path d="M30.15 27.95q26.35 27.55 42 56.95Q83.35 105.95 89 128l2.05 10.25.1.65.7 4 .1.65q3.9 23.9 2.15 38.65-2.35 19.25-2.5 30.7-.05 3.05 5.85 12.4l1.1.4h-8.3q-4.5-7.6-3.25-16.05 5.1-34.45-.55-66.95Q77 88.25 30.15 27.95M97.8 225.9l.25.35-.5-.3.25-.05m-.1-.2-.25-.4.25.4" fill="url(#h)" fill-rule="evenodd" transform="translate(.5 .5)"/><path d="m98.55 225.7-.75.2-.1-.2.1.2-.25.05q-15.3 23.9-12.95 9.1l-.05-.05q-41.25 29.55-55.9 5.95l-.45-.95.45.95-.35-.55-.1-.4-.35-1.9q-.05-.75.25-.55-.45-7.3-.55-11.65l1.9-9.85.25-1.25 1.8-10.3q1.3-2.75 1.15-5.3 1.65-2.1 1.55-4.8l6.35-11.5q.3-.55-.25-1.6 1.9-1.45 3.1-3.35l.75-1.3.8-1.25q-.45 12.75 6.05 18.7 25.05-29.7 16.25-83.85l.15-.05 1.05 3.55q12.8 28.4 15.1 66.9l-.05 3.8q-.35 30.25 6.75 41.25h8.3m-60.7-30.2-3.65-1.1 3.65 1.1m5.1-11.3-2.4-1.3 2.4 1.3m-2.65-2.9 2.15 1.5-2.15-1.5m8.35 48.3.15-.95-.35 1.3h.2v-.35m-16-30.4 2 .75-2-.75m1.65 5.3h-2.8 2.8m-3.35 12.05-1.5-.5 1.5.5m-1.6 9.35h-1.8 1.8m.35-11.1 1.05.15-1.05-.15" fill="url(#i)" fill-rule="evenodd" transform="translate(.5 .5)"/><path d="m28.65 240.95.1.25-.7-1.2-.65-.95v-.15q-5-8.75-5.15-14.35v-.05l-.05-.15-.05-.25-.05-.15v-.7l.2.1 5.25 2.55q.1 4.35.55 11.65-.3-.2-.25.55-.4-1.7-.45-.1v.9l.65 1.1.25.4-.25-.4-.65-1.1v-.9q.05-1.6.45.1l.35 1.9.1.4.35.55m3.9-65.25 7.75 5.6q.55 1.05.25 1.6l-9.05-4.95 1.05-2.25m-6.4 16.35 8.05 2.35q.1 2.7-1.55 4.8l-7.55-3.15q.45-2.05 1.05-4m3.3 24-7.1-2.5q.35-5.7 1.4-11.2l7.75 2.15-1.8 10.3-.25 1.25m.25-1.25-7.35-1.25 7.35 1.25m-7.45 9.7.05-1.15-.1 1 .1-1-.05 1.15m6.05 15.9-.45-1.25.35.85-.35-.85.45 1.25m-.9-2.4.45 1.15-.45-1.15" fill="#febb78" fill-rule="evenodd" transform="translate(.5 .5)"/><path d="m48.65 229.6-.05.35h-.15l.35-1.3-.15.95" fill="#423434" fill-rule="evenodd" transform="translate(.5 .5)"/><path d="m48.6 229.95.05-.35v.35h-.05" fill="#6e5a5a" fill-rule="evenodd" transform="translate(.5 .5)"/><path d="m0 0 8.65 7.4q11.5 10.15 21.5 20.55 26.35 27.55 42 56.95Q83.35 105.95 89 128l2.05 10.25m.1.65.7 4m.1.65q3.9 23.9 2.15 38.65-2.35 19.25-2.5 30.7-.05 3.05 5.85 12.4l.25.4m-75.45-1.15-.05-.15-.1-.45v-1.45m1.6-186.15Q15.65 21.8 5.4 7.4L0 0m51.85 173.8-.35 2.7q-4.65-11.9-2.45-24.65M23.7 36.35q3.35 6.05 6.3 12.1l.85 1.8m15.4 41.2L44.4 84.9Q42 77 39 69.15l-.9-2.3q-3.25-8.35-7.25-16.6m17.2 48.4-1.8-7.2m6.6 37.55-.9-8.55q-1-7.85-2.6-15.65l-1.3-6.15m4.8 30.35.15 1.85m-1.15 42.95q1.8-14.4 1.7-28.65l-.55-14.3M32.55 175.7l-1.05 2.25m5.4-10.15q-2.35 3.9-4.35 7.9m-6.4 16.35q-.6 1.95-1.05 4m1.05-4q2.1-7.25 5.35-14.1m5.4-10.15q5.2-8.65 12.3-16.8m48.6 74.9-.1-.2m-75.35-12.15q-.3 4.4-.25 8.95m.25-8.95q.35-5.7 1.4-11.2.55-3.2 1.35-6.3" fill="none" stroke="#000" stroke-linecap="round" stroke-linejoin="round" stroke-opacity=".2" transform="translate(.5 .5)"/><path d="m91.05 138.25.1.65m.7 4 .1.65m-69.85 79.7-.9-.35M30 48.45l5.45-2.55m-4.6 4.35 5-2.25m-8.4-13.35-3.75 1.7m29.35 48.2-1.4.45m-5.4 6.45 9.4-2.65m.5 5.9h-1.6m-6.5 3.95 9.8-2M38.1 66.85l8.1-3.55m-.25 2.9L39 69.15m12.95 51.3 8.4.2m-.8-12.9-3.75.65m-6.45-3.6h8.55m2.1 25.4-7.15-1.2m.15 1.85 6.7 1.05m-1.3 14.7-4.85-1.45M40.3 181.3l-7.75-5.6m-1.05 2.25 9.05 4.95 2.4 1.3m.45-6.25-6.5-10.15m-2.7 26.6 3.65 1.1m-3.65-1.1-8.05-2.35m-1.05 4 7.55 3.15m9.8-16.4-2.15-1.5m-5.65 18.65-2-.75m-1.15 5.3h2.8m-12 18.85 5.25 2.55h1.8m.1-9.85-7.1-2.5 7.35 1.25m-.25 1.25 1.5.5m.55-12.05-7.75-2.15m7 12.6-1.05-.15m-7.4 8.55-.2-.1" fill="none" stroke="#fff" stroke-linecap="round" stroke-linejoin="round" stroke-opacity=".102" transform="translate(.5 .5)"/><path d="M97.55 225.95q-15.3 23.9-12.95 9.1l-.05-.05q-41.25 29.55-55.9 5.95l.1.25-.7-1.2-.65-.95v-.15q-5-8.75-5.15-14.35m-.15-2.05.2.85-.05 1.15v.05m-.05-.2.1-1m-.1 1v.05l.05.1m6.4 16.45-.45-.95.1.4.35.55m-.35-.55-.25-.4-.65-1.1v-.9q.05-1.6.45.1l.35 1.9-.35-.85.45 1.25m-.45-1.25L27.4 238" fill="none" stroke="#000" stroke-linecap="round" stroke-linejoin="round" stroke-opacity=".102" transform="translate(.5 .5)"/></g><g id="j"><path d="M86 29.65 82.95 43.5l-.05.1-6.6 10.95-2.95-2.95 9.4-16.35 3.2-7 .05 1.4m4.05 37.15q5.55 2.1 9.75 4.1l-1.15 3.15-5.5 2.3-4.8-7.45 1.7-2.1m-16.3 138.5q-8.85-8.55-13.2-17.6l6.25-12.2-2.05 12.9 13.45 5.95 1.1-7.85-5.65-8.9-6.85-2.1-5.75 2.4-6.2 2.05 10.65-6.9q3.75 2.55 8.15 4.55l.35-.35 8.1 8.85q-2.05 11-8.35 19.2m-51.5-92.95Q10.35 109.3 2.8 100.5q8.35 3.2 13.7 4.1l5.75 7.75M85.6 72.2l-2.1 2.5-6.3 7.6-3.05-13.05 9.6-10.2L85.6 72.2m-74.1-8.3L4.75 38.6l.65.95 9.25 18.3L12 64.2l-.5-.3m-.55-16 .35.55v.05l-.35-.6m7.95 23.8 10.65 3.4 1.85 12.6-10.25-4.85L18.9 71.7m43.35 43.15-.1-3.8-.8-5.1 12-18L77 92.7l-2.25 10.25-11.9 12.25-.6-.35" fill="#725a5a" fill-rule="evenodd" transform="translate(.5 .5)"/><path d="m76.3 54.55 6.6-10.95.05-.1 3.5 8.8-1.1 1.5-4.55 4.9-4.5-4.15m-61.65 3.3L5.4 39.55l5.55 8.35.35.6L24 61.25l1.15 9.95-1-.3-9.25-12.6-.25-.45L15 57l-.35.85" fill="#604b4b" fill-rule="evenodd" transform="translate(.5 .5)"/><path d="M82.95 43.5 86 29.65l.8 22.15-.35.5-3.5-8.8" fill="#594545" fill-rule="evenodd" transform="translate(.5 .5)"/><path d="m86.45 52.3.35-.5 2.85.95-5.9 6.3-9.6 10.2-10 5.25-1.25-1.25Q68.15 70 73.35 66.7l5-5.35 2.45-2.65 4.55-4.9 1.1-1.5m-7.6 9.55-.5-.5.5.5M11.5 63.9l.5.3 9.05 5.7 3.1 1 1 .3 19.75 6.45-.95 2.05-14.4-4.6-10.65-3.4-10.15-6.15 2.75-1.65" fill="#8c6e6e" fill-rule="evenodd" transform="translate(.5 .5)"/><path d="m89.65 52.75.4.1V66.8l-1.7 2.1-2.75 3.3-1.85-13.15 5.9-6.3m-80.9 12.8L18.9 71.7l2.25 11.15-5.4-2.55-2.35-1.1-4.65-13.65" fill="#806464" fill-rule="evenodd" transform="translate(.5 .5)"/><path d="m54.85 179.95 4.85-11.45q2.7 2.45 5.8 4.55l-10.65 6.9M85.6 72.2l2.75-3.3 4.8 7.45-1.5 4.55h-.05q-4.2 2.4-7.3 4.7l-.8-10.9 2.1-2.5m-72.2 7 2.35 1.1-3.5 10.95-1.55.55-3-7q2.45-2.8 5.7-5.6m60.25 98.4 5.65 8.9-1.1 7.85-13.45-5.95 2.05-12.9 6.85 2.1" fill="#947474" fill-rule="evenodd" transform="translate(.5 .5)"/><path d="M99.8 70.9q8.15 3.85 11.15 7.2l-12.3-4.05 1.15-3.15M24 61.25q-1-9.65 2.5-18.55l8.6 11.85 12.65 17.4-2.85 5.7-19.75-6.45L24 61.25" fill="#665050" fill-rule="evenodd" transform="translate(.5 .5)"/><path d="M100 100.7q-.45-7-15.35-7.55-7 4.45-7.6 10.3-.15 1.25 0 2.55l-.65.5-1.85-2.65.2-.9L77 92.7l.3-.4q1.2-1.75 3.15-3.55 1.65-1.55 3.85-3.15 3.1-2.3 7.3-4.7h.05l7.85 6.9.5.25.75 4.95-.75 7.7" fill="url(#k)" fill-rule="evenodd" transform="translate(.5 .5)"/><path d="m110.95 78.1.2.25q-1.4 5.5-3.65 10.4-3 6.5-7.5 11.95l.75-7.7-.75-4.95-.5-.25 5.55-1.35 5.9-8.35m-18.8 96-8.2.4 5.25 8.15v.05l-4.85-2.85-4.4-6.9 12.2 1.15m-46-69.1 16.1 9.85.6.35 11.9-12.25-.2.9 1.85 2.65-13.55 9.35-16.3-6.45.3-3.55-.7-.85" fill="#473737" fill-rule="evenodd" transform="translate(.5 .5)"/><path d="m91.65 80.9 1.5-4.55 5.5-2.3 12.3 4.05-5.9 8.35-5.55 1.35-7.85-6.9" fill="#8a6c6c" fill-rule="evenodd" transform="translate(.5 .5)"/><path d="m83.5 74.7.8 10.9q-2.2 1.6-3.85 3.15-1.95 1.8-3.15 3.55l-.3.4-3.65-4.75 3.15-4.8.7-.85 6.3-7.6" fill="#876969" fill-rule="evenodd" transform="translate(.5 .5)"/><path d="M57.5 6.25h.05q-.75 2.85-1.05 5.7l-1.35 4.65 1.05 14.5 7.3 13.3h-.05l-.6 2.35-.05.25-.55 2.3H47.2l-.5.4-.75 9.1-1.2-1-7.2-6.9-.15-4.75.15-.95 1.6-6q1.95 4.5 6.35 9.15-6.75-21.2 12-42.1" fill="#624d4d" fill-rule="evenodd" transform="translate(.5 .5)"/><path d="M56.5 11.95Q54.75 28 66.9 44.1l-3.4.3-7.3-13.3-1.05-14.5 1.35-4.65" fill="#5c4848" fill-rule="evenodd" transform="translate(.5 .5)"/><path d="m73.35 51.6 2.95 2.95 4.5 4.15-2.45 2.65L62.8 47l.05-.25.6-2.35h.05l3.4-.3q2.85 3.7 6.45 7.5" fill="#4f4040" fill-rule="evenodd" transform="translate(.5 .5)"/><path d="m62.25 49.3.55-2.3 15.55 14.35-5 5.35q-5.2 3.3-10.45 6.55l-4.2-4.15 3.55-19.8h.7-.7" fill="#614f4f" fill-rule="evenodd" transform="translate(.5 .5)"/><path d="m83 165.4 9.15 8.7-12.2-1.15 4.4 6.9 4.85 2.85q-1.65 15.5-10.55 25.95-4.1-2.55-4.9-3.35 6.3-8.2 8.35-19.2l-8.1-8.85q4.95-5.45 9-11.85m-22.45 22.3-.5-1 1.8-9.1-.8.3 5.75-2.4-6.25 12.2M45.95 58.8l.75-9.1.5-.4h15.05l-5.7 17.65-4.25-4.25-.15.3-.15.35-6.05-4.55" fill="#5e4a4a" fill-rule="evenodd" transform="translate(.5 .5)"/><path d="m37.55 45.2-.9 5.7-.15.7.15-.7 8.1 6.9 1.2 1-9.45-7.2-.75 3.15 12.2 16.8-.2.4-12.65-17.4 2.45-9.35m19 21.75 5.7-17.65-4.2 17.9.65 1.9-2.15-2.15" fill="#423434" fill-rule="evenodd" transform="translate(.5 .5)"/><path d="m39.15 39.2-1.6 6-2.45 9.35-8.6-11.85Q30.45 32.4 40.3 23q-4.85 7.8-1.15 16.2" fill="#6b5454" fill-rule="evenodd" transform="translate(.5 .5)"/><path d="m47.95 71.55-12.2-16.8.75-3.15 9.45 7.2L52 63.35l-4.05 8.2" fill="#755c5c" fill-rule="evenodd" transform="translate(.5 .5)"/><path d="m12 64.2 2.65-6.35.25.45 9.25 12.6-3.1-1L12 64.2" fill="#6e5656" fill-rule="evenodd" transform="translate(.5 .5)"/><path d="M1.5 98.85.7 97.8q.65-3.1 2.25-6.15l4.75 1.2.4.1-6.6 5.9" fill="#bf9595" fill-rule="evenodd" transform="translate(.5 .5)"/><path d="m1.5 98.85 6.6-5.9-.4-.1 3-1.05 1.55-.55.25.1 5.85 2.45.2.1-2.25 10.4.2.3q-5.35-.9-13.7-4.1l-.65-.85.15-.35-.8-.45" fill="#806363" fill-rule="evenodd" transform="translate(.5 .5)"/><path d="m7.7 92.85-4.75-1.2 1.7-2.9L7.7 84.8l3 7-3 1.05" fill="#a37f7f" fill-rule="evenodd" transform="translate(.5 .5)"/><path d="m15.75 80.3 5.4 2.55L31.4 87.7l-3.55 4.45-9.3 1.75-.2-.1-5.85-2.45-.25-.1 3.5-10.95" fill="url(#l)" fill-rule="evenodd" transform="translate(.5 .5)"/><path d="m35.45 89.65 1 .45L61 106.25l.1.05.25-.35.8 5.1.1 3.8-16.1-9.85-.05-.05-4.9-6q-4.95-5.05-13.1-6.85l-.25.05 3.55-4.45 4.05 1.95" fill="url(#m)" fill-rule="evenodd" transform="translate(.5 .5)"/><path d="M45.5 107.65q-4.45-6.5-12.55-7.1-12.35 5.1-10.2 11.9l-.5-.1-5.75-7.75-.2-.3 2.25-10.4 9.3-1.75.25-.05q8.15 1.8 13.1 6.85l4.9 6 .05.05.7.85-.3 3.55-1.05-1.75" fill="url(#n)" fill-rule="evenodd" transform="translate(.5 .5)"/><path d="m29.55 75.1 14.4 4.6-2.75 6-4.6-6.35-1.15 10.3-4.05-1.95-1.85-12.6" fill="#614b4b" fill-rule="evenodd" transform="translate(.5 .5)"/><path d="m47.95 71.55 4.05-8.2.15.15-.6 17.15 9.35 25.3.1.3L36.45 90.1l-1-.45 1.15-10.3 4.6 6.35 2.75-6 .95-2.05 3.05-6.1m.25 1.05-.45-.65.45.65" fill="url(#o)" fill-rule="evenodd" transform="translate(.5 .5)"/><path d="m58.7 69.1 4.2 4.15 1.25 1.25 6.65 6.6 1.1-7.25 4.6 9.3-3.15 4.8-12 18-.25.35-.1-.05-.1-.3-.7-25-7.7-17.2-.35-.75.15-.3 6.4 6.4M53.6 64l-1.1-.25 1.1.25" fill="#a80000" fill-rule="evenodd" transform="translate(.5 .5)"/><path d="m60.9 105.95-9.35-25.3.6-17.15.35.25-.35-.25V63l.35.75 7.7 17.2.7 25" fill="#ff2e2e" fill-rule="evenodd" transform="translate(.5 .5)"/><path d="m52.15 63.5-.15-.15.15-.35v.5" fill="#e00000" fill-rule="evenodd" transform="translate(.5 .5)"/><path d="M62.25 49.3 58.7 69.1l-.65-1.9 4.2-17.9M37.4 46.15l.15 4.75 7.2 6.9-8.1-6.9.75-4.75" fill="#6e5a5a" fill-rule="evenodd" transform="translate(.5 .5)"/><path d="M74.15 69.25 77.2 82.3l-.7.85-4.6-9.3-1.1 7.25-6.65-6.6 10-5.25" fill="#5c4747" fill-rule="evenodd" transform="translate(.5 .5)"/><path d="m77.05 103.45 3.15.8-.15 1.95-15.7 11.85-.7.5-20.4-9 2.25-1.9 1.05 1.75 16.3 6.45 13.55-9.35.65-.5q-.15-1.3 0-2.55" fill="#4f0014" fill-rule="evenodd" transform="translate(.5 .5)"/><path d="M59.7 168.5q-1.15-8.15-2.85-16.1l12.45 3.8.25-.15 4.1 21.55q-4.4-2-8.15-4.55-3.1-2.1-5.8-4.55m-3.55-19.65h-.05q-1.95-8.45-4.5-16.7l14.9 4.15 2.5 16.2-.25.15-12.6-3.8M52.7 129.2l-2.4-1.05q-3.1-9.4-7.05-18.6l20.4 9 .7-.5 1.6 14.1-.5.25-12.75-3.2" fill="#903" fill-rule="evenodd" transform="translate(.5 .5)"/><path d="M80.05 106.2q-.7 8.15-.7 17.4-2.6 1.4-3 2.55l-10.4 6-1.6-14.1 15.7-11.85m-.85 22 .2.1q.2 8.05 1 16.55l-.05.05L69 152.5l-2.5-16.2h.05l12.65-8.1m1.3 20.7.3.15q.85 8 2.2 16.35-4.05 6.4-9 11.85l-.35.35-4.1-21.55 10.95-7.15" fill="url(#p)" fill-rule="evenodd" transform="translate(.5 .5)"/><path d="M76.35 126.15q-.1.25-.05.5l2.9 1.55-12.65 8.1h-.05l-14.9-4.15 2-2.55-.9-.4 12.75 3.2.5-.25 10.4-6m4 18.75-2.15 2.9 2.3 1.1-10.95 7.15-.25.15-12.45-3.8v-.05l1.75-2.05-2.45-1.45 12.6 3.8.25-.15 11.35-7.6" fill="#5c0018" fill-rule="evenodd" transform="translate(.5 .5)"/><path d="M2.8 100.5q-.8-.35-.65-.85l.65.85" fill="#695252" fill-rule="evenodd" transform="translate(.5 .5)"/><path d="m86 29.65-.05-1.4-3.2 7-9.4 16.35 2.95 2.95m10.15-2.25.35-.5-.8-22.15m3.65 23.1.4.1V66.8q5.55 2.1 9.75 4.1 8.15 3.85 11.15 7.2l.2.25q-1.4 5.5-3.65 10.4-3 6.5-7.5 11.95-.45-7-15.35-7.55-7 4.45-7.6 10.3l3.15.8-.15 1.95q-.7 8.15-.7 17.4-2.6 1.4-3 2.55-.1.25-.05.5l2.9 1.55.2.1q.2 8.05 1 16.55l-.05.05-2.15 2.9 2.3 1.1.3.15q.85 8 2.2 16.35l9.15 8.7-8.2.4 5.25 8.15v.05q-1.65 15.5-10.55 25.95-4.1-2.55-4.9-3.35-8.85-8.55-13.2-17.6l-.5-1 1.8-9.1-.8.3-6.2 2.05 4.85-11.45q-1.15-8.15-2.85-16.1v-.05l1.75-2.05-2.45-1.45h-.05q-1.95-8.45-4.5-16.7l2-2.55-.9-.4-2.4-1.05q-3.1-9.4-7.05-18.6l2.25-1.9q-4.45-6.5-12.55-7.1-12.35 5.1-10.2 11.9l-.5-.1Q10.35 109.3 2.8 100.5m-.65-.85-.65-.8-.8-1.05-.7-.5m86.45-45-1.1 1.5-4.55 4.9-2.45 2.65m11.3-8.6-2.85-.95M57.55 6.25l.05-.2v-.1l-.05.1-.05.2q-18.75 20.9-12 42.1-4.4-4.65-6.35-9.15m18.4-32.95q-.75 2.85-1.05 5.7Q54.75 28 66.9 44.1q2.85 3.7 6.45 7.5M58.7 69.1l4.2 4.15Q68.15 70 73.35 66.7l5-5.35m-30.4 10.2 4.05-8.2.15-.35.15-.3 4.25 4.25M5.4 39.55l-.65-.95 6.75 25.3.5.3 9.05 5.7 3.1 1 1 .3 19.75 6.45 2.85-5.7M5.4 39.55l5.55 8.35.35.55v.05L24 61.25q-1-9.65 2.5-18.55Q30.45 32.4 40.3 23q-4.85 7.8-1.15 16.2m-28.2 8.7.35.6m13.85 22.7L24 61.25M11.5 63.9l-2.75 1.65L13.4 79.2q-3.25 2.8-5.7 5.6l-3.05 3.95-1.7 2.9Q1.35 94.7.7 97.8m43.25-18.1.95-2.05m-.95 2.05-2.75 6-4.6-6.35-1.15 10.3 1 .45L61 106.25M58.7 69.1l-2.15-2.15m4.8 39-.25.35m19.7-47.6-4.5-4.15m-28.35 17-.2.4m16.4 2.55 6.65 6.6 1.1-7.25 4.6 9.3.7-.85m-.8 24.2.65-.5q-.15-1.3 0-2.55m-.55-20.3-3.15 4.8-12 18m1.55-32.7 1.25 1.25m-17.6 34.9 16.3 6.45 13.55-9.35m-30.9 1.15 1.05 1.75m-44.4-9.75.65.85m70.85 77.1.35-.35q4.95-5.45 9-11.85m-9.35 12.2q-4.4-2-8.15-4.55-3.1-2.1-5.8-4.55" fill="none" stroke="#000" stroke-linecap="round" stroke-linejoin="round" stroke-opacity=".2" transform="translate(.5 .5)"/><path d="m78.85 61.85.5.5m9.5 7.05-2.75 3.3-2.1 2.5m4.85-5.8 1.7-2.1M77.7 82.8l6.3-7.6M63.3 47.5l.05-.25m-.6 2.55h.7M37 52.1l.15-.7m-22 6.95.35-.85m-1.6 22.2 2.35 1.1 5.4 2.55m-2.8 10.95L13 91.85M52.65 64l-.15-.15M31.9 88.2l-10.25-4.85m14.3 6.8L31.9 88.2m16.35-15.75.45.65m3.95-9.1.35.25 1.1.25" fill="none" stroke="#000" stroke-linecap="round" stroke-linejoin="round" stroke-opacity=".102" stroke-width=".05"/><path d="m30.35 0 1.35.75M12.5 18.9l7.75 2.15h2.8M19.5 31.5l-1.05-.15m1.25 1.75-8.6-3m-1.15 9.35.9.35 5.45 2.65h1.8m5.3-25.95-9.55-3.9m12.75-.55L14.9 8.6" fill="none" stroke="#fff" stroke-linecap="round" stroke-linejoin="round" stroke-opacity=".102" transform="translate(.5 .5)"/></g><g id="d"><path d="M62.5 192.45h7.7Q57.5 206.3 57.4 228.9l-5.3-11.7 10.4-24.75" fill="url(#q)" fill-rule="evenodd" transform="translate(-35.3 -192.45)"/><path d="M83.3 235.3q4.15-8.85 10.6-18v11.6l-10.6 6.4" fill="url(#r)" fill-rule="evenodd" transform="translate(-35.3 -192.45)"/><path d="m52.4 204.9-2.5 10.6q-7 7.8-10.85 28.75l-.7 4.05-1-4.05q-2.5-10.85-1.95-21.75l17-17.6" fill="url(#s)" fill-rule="evenodd" transform="translate(-35.3 -192.45)"/><path d="M63.8 245.9q13.8 8.15 17.5 19.65l-.5.15q-13.6-8.1-17-19.8" fill="#841100" fill-rule="evenodd" transform="translate(-35.3 -192.45)"/><path d="M63.8 245.9v.45q-1.45 19.35-10.5 23.4 3.1-17.85 10.5-23.85" fill="#b01600" fill-rule="evenodd" transform="translate(-35.3 -192.45)"/><path d="M53.3 269.75q3.1-17.85 10.5-23.85 13.8 8.15 17.5 19.65l-.5.15" fill="none" stroke="#000" stroke-linecap="round" stroke-linejoin="round" stroke-opacity=".251" transform="translate(-35.3 -192.45)"/></g><g id="e" transform="translate(.05 2)"><use transform="translate(-.05 -.5)" width="35.4" height="35.4" xlink:href="#t"/><use transform="matrix(.866 -.5 .4299 .7446 1.4 6.2)" width="16.4" height="16.4" xlink:href="#u"/><use transform="translate(8.05 2.9)" width="4.85" height="4.4" xlink:href="#v"/></g><g id="w"><path d="M28.6 17.65q0 4.8-3.35 8.15t-8.15 3.35q-4.75 0-8.1-3.35t-2.8-4.45q.5-1.15 13.65-4.45Q8.3 10.25 9 9.55q3.35-3.35 8.1-3.35 4.8 0 8.15 3.35t3.35 8.1" fill="#1f8fc7" fill-opacity=".8" fill-rule="evenodd" transform="translate(.5 .5)"/><path d="M20.1.25q5.25.8 9.25 4.8Q34.4 10.1 34.4 17.2t-5.05 12.15Q24.7 34 18.25 34.4 34.75 21.9 20.1.25" fill="#176891" fill-opacity=".8" fill-rule="evenodd" transform="translate(.5 .5)"/><path d="M18.25 34.4H17.2q-7.1 0-12.15-5.05T0 17.2 5.05 5.05 17.2 0l2.9.25Q34.75 21.9 18.25 34.4" fill="#1f8fc7" fill-opacity=".8" fill-rule="evenodd" transform="translate(.5 .5)"/><path d="M20.1.25q5.25.8 9.25 4.8Q34.4 10.1 34.4 17.2t-5.05 12.15Q24.7 34 18.25 34.4H17.2q-7.1 0-12.15-5.05T0 17.2 5.05 5.05 17.2 0z" fill="none" stroke="#17170c" stroke-linecap="round" stroke-linejoin="round" stroke-opacity=".251" transform="translate(.5 .5)"/><path d="m26.7 14.85 3.1-.95m-7.35-4.65L23.9 5.6m-8.15 2.65-1.7-3.7" fill="none" stroke="#abe3ff" stroke-linecap="round" stroke-linejoin="round" stroke-opacity=".2" transform="translate(.5 .5)"/><path d="M1.55 13.9h.1q1.35 4.35 2 5.4 2 3.6 6 3.6l2.4-.3 2.5-.3q1.5 0 2.2.6 1 .85 1 3.1t-1.4 3.9q-1.5 1.8-3.8 1.8-3.55 0-7-4.6-4-5.35-4-13.2" fill="#29b8ff" fill-rule="evenodd" transform="translate(.5 .5)"/><path d="M28.6 16.4q.45-8.35-5.9-14.15 3.5 2.25 6.8 6.15l.35.35q5.45 7.4 0 17.1L28.5 28q-3.8 3.25-6.9 3.85 6.5-7.15 7-15.45" fill="#176891" fill-rule="evenodd" transform="translate(.5 .5)"/></g><radialGradient id="i" cx="0" cy="0" r="819.2" gradientTransform="matrix(.0662 0 0 .1226 62.3 222.25)" gradientUnits="userSpaceOnUse"><stop stop-color="#ff6b1c" offset=".424"/><stop stop-color="#f93" offset="1"/></radialGradient><radialGradient id="k" cx="0" cy="0" r="819.2" gradientTransform="matrix(.0157 -.0042 .0045 .0168 79.9 99.25)" gradientUnits="userSpaceOnUse"><stop stop-color="#382f2f" offset=".306"/><stop stop-color="#5e4a4a" offset="1"/></radialGradient><radialGradient id="n" cx="0" cy="0" r="819.2" fx="-1593.6" gradientTransform="translate(41.6 102.35) scale(.0258)" gradientUnits="userSpaceOnUse"><stop stop-color="#382f2f" offset=".306"/><stop stop-color="#5e4a4a" offset="1"/></radialGradient><radialGradient id="o" cx="0" cy="0" r="819.2" gradientTransform="translate(48.45 96.8) scale(.0201)" gradientUnits="userSpaceOnUse"><stop stop-color="#a80000" offset="0"/><stop stop-color="#e00000" offset="1"/></radialGradient><radialGradient id="y" cx="0" cy="0" r="819.2" gradientTransform="matrix(.011 0 0 .011 8.2 8.2)" gradientUnits="userSpaceOnUse"><stop stop-color="#f9fede" offset="0"/><stop stop-color="#fff" stop-opacity="0" offset="1"/></radialGradient><use width="99.05" height="252.45" xlink:href="#f" id="b"/><use width="112.15" height="209.65" xlink:href="#j" id="c"/><use width="35.4" height="35.4" xlink:href="#w" id="t"/><use width="16.4" height="16.4" xlink:href="#x" id="u"/><path d="M14 14q-2.4 2.4-5.8 2.4T2.4 14 0 8.2t2.4-5.8T8.2 0 14 2.4t2.4 5.8T14 14" fill="url(#y)" fill-rule="evenodd" id="x"/><path d="M12.15 6.65q-.7.65-1.7.65t-1.7-.65-.7-1.55.7-1.55 1.7-.65 1.7.65q.75.65.75 1.55t-.75 1.55" fill="#fff" fill-rule="evenodd" transform="translate(-8.05 -2.9)" id="v"/></defs></svg>