<svg viewBox="0 0 41.15 45.3" xmlns="http://www.w3.org/2000/svg" xmlns:xlink="http://www.w3.org/1999/xlink"><use width="41.15" height="45.3" xlink:href="#a"/><defs><linearGradient id="b" x1="-819.2" x2="819.2" gradientTransform="matrix(.0082 .0051 .0093 -.0155 274.45 397.9)" gradientUnits="userSpaceOnUse"><stop stop-color="#ddd" offset=".412"/><stop stop-color="#aaa" offset=".486"/><stop stop-color="#c9c9c9" offset=".706"/><stop stop-color="#999" offset=".773"/><stop stop-color="#555" offset=".976"/></linearGradient><linearGradient id="c" x1="-819.2" x2="819.2" gradientTransform="matrix(-.012 -.0139 -.0125 .0121 274.3 399.2)" gradientUnits="userSpaceOnUse"><stop stop-color="#919b86" offset="0"/><stop stop-color="#fff" offset=".784"/></linearGradient><g id="a"><path d="m288.45 416.1.2.15.25.15q3.4 2.3 6.3 5.1l1.8-2.7-.2-.1-.4-.25-2.3-1.6h-.05l-3.35-2.9-2.25 2.15-.7-.45-1.2-.75-.1-.05-.35-.2m9.1 6.85-.4.55.15.6.25-.2.3-.25.2-.3 1.6-2.45-.05-.1.35-.45-.1-.35-.5.25m-1.3 3.1.25.2.2.2.35-.2.35-.45 1-2.05h-.4l-.15-.15m.3-.55.95-.15v.05l.3.45 1.1-.2h.05l.55 1v.15l-.3 1.55q-.4 1.05-1.15 1.9l-.05.1q-1.7 1.35-3.2 1.35l-.85-1.15-.05-.75.25-.75m.95-.15-.55.25.1.85.05-.05.55-.1.35-.4 1.4-1.55.9-1.85-.1-.2m-2.2 3.6.25.3m-11.45-9.95q-13.75-10.7-23.6-25.6-.7-1.55-1.1-3.2l-.25-2.4-.05-.55-.05-.65q10.5 15 27.25 30.3l3.1-3.05.8.65 1.45 3.05-2.3 2.2-.6-.6-1.45-1.35-.85-.75-.15-.15-2.2 2.1 1.2.95.45-.1m-1.65-.85-1.95 1.9 1.5 3.2.85.25 1-.95 1.6-1.5m.45.3q-.55 3.2-.2 6.45l-.8-1.75q-.1-1.9.1-3.4-1.4 3.15-2.15 7.1l-.2-3.15q.55-2.35 1.2-4.05m1.8-1.35-.65 1.45" fill="none" stroke="#000" stroke-linecap="round" stroke-linejoin="round" stroke-opacity=".302" transform="translate(-259.9 -380.3)"/><path d="m298.85 419.25-.3-.45-.55 1.45-1 1.6-1.35 1.25v.05l.05.25.05-.05.55-.1.35-.4.3-.3-.05-.2v-.05l.85-1.25.95-1 .1-.25.15-.35-.1-.2m-3.65 3.2.3-.25.2-.3.3-.5 1.1-1.6.2-.35-.05-.1-2.25 2.45-.2.25.15.6.25-.2" fill="#b3771a" fill-rule="evenodd" transform="translate(-259.9 -380.3)"/><path d="m288.05 412.7-1.6 2.15q4.8 2.85 8.75 6.65l.25-.4-.15-.05-1.7-2 .35-1.5-5.9-4.85m11 11.05-.9-.7V423l-2.05 1.25-1.1-.3.85 1.15q1.5 0 3.2-1.35m-3.35-1.85.25.2.2.2.35-.2-.4-.35-.1-.35-.3.5m.05 1.45v.1l.55.05.6-.35.75-.4.95-1.45.35-1.15.1-.2-.15-.05-.1-.1-.1.25-.65 1.25-1.1 1.25-.3.3-.35.4-.55.1m1.15-.2-.25-.3.25.3" fill="#722800" fill-rule="evenodd" transform="translate(-259.9 -380.3)"/><path d="m296.45 419.6-.85-.7-1.65-1.35-.35 1.5 1.7 2 .15.05 1-1.5m1.7 3.45 1.3-2 .55-2h-.05l-1.1.2.1.2-.15.35.1.1.15.05-.1.2-.35 1.15-.95 1.45-.75.4-.6.35-.55-.05v-.1l-.05.05-.05-.25v-.05l-.05-.55.3-.15.05-.3-.25-.2-.2.3-.3.25-.25.75.05.75 1.1.3 2.05-1.25v.05m1.85-4h-.05.05m-2.9.75-1.1 1.6.1.35.4.35.35-.45 1-2.05h-.4l-.35.2" fill="#b13501" fill-rule="evenodd" transform="translate(-259.9 -380.3)"/><path d="m296.75 419.2-.3.4-1 1.5-.25.4-.2.3 2.25-2.45.05.1.15.15h.4l-1 2.05-.35.45-.35.2-.25.1-.3.15.05.55 1.35-1.25 1-1.6.55-1.45v-.05l-.95.15-.1-.35-.5.25-.25.4m.85-.3-.35.45.35-.45" fill="#8d5100" fill-rule="evenodd" transform="translate(-259.9 -380.3)"/><path d="m294.25 417 .05.8 1.3 1.1.8-.45-2.15-1.45m5.2 4.05.8.7.3-1.55v-.15l-.55-1-.55 2" fill="#ffbe7b" fill-rule="evenodd" transform="translate(-259.9 -380.3)"/><path d="m296.8 418.7-.05.5.25-.4-.2-.1m.65.9-.15-.15-.2.35.35-.2" fill="#d7b78b" fill-rule="evenodd" transform="translate(-259.9 -380.3)"/><path d="m294.25 417-.1-.15h-.1q-2.9-2.2-5.3-4.95l-.7.8 5.9 4.85 1.65 1.35.85.7.3-.4.05-.5-.4-.25-.8.45-1.3-1.1-.05-.8" fill="#feb770" fill-rule="evenodd" transform="translate(-259.9 -380.3)"/><path d="m295.95 422.1-.05.3.25-.1-.2-.2" fill="#78582c" fill-rule="evenodd" transform="translate(-259.9 -380.3)"/><path d="m296.95 422.55 1.1-1.25.65-1.25-.95 1-.85 1.25v.05l.05.2" fill="#f4bd5e" fill-rule="evenodd" transform="translate(-259.9 -380.3)"/><path d="m299.05 423.75.05-.1q.75-.85 1.15-1.9l-.8-.7-1.3 2 .9.7" fill="#fed8b4" fill-rule="evenodd" transform="translate(-259.9 -380.3)"/><path d="M34.2 36.55h-.05q-2.9-2.2-5.3-4.95m-2.3 2.95-.35-.2m8.15 2.35 2.15 1.45.4.25m-.05.5-.3.4m3.8 2.15q-.4 1.05-1.15 1.9l-.05.1q-1.7 1.35-3.2 1.35l-.85-1.15-.05-.75.25-.75.3-.25.2-.3.25.2m4.3-.35.3-1.55v-.15l-.55-1h-.05l-1.1.2-.3-.45v-.05l-.95.15-.1-.35-.5.25-.2-.1m-.9 3.7-.3.15.05.55m0 .05.05.25.05-.05m3.2-3.2.1-.2m-.25-.15.15-.35-.1-.2m1.1-.2h.05m-1.3 1 .1-.25m-1.85 2.75 1.1-1.25.65-1.25m-1.75 2.5-.3.3-.35.4-.55.1m1.7-3.75-.15-.15-.05-.1.35-.45m-.6-.1-.25.4m.35.6-1.1 1.6-.3.5m1.4-2.1.2-.35m-1.85 1.65-.25.4q-3.95-3.8-8.75-6.65m9 6.25 1-1.5m.05 2.5-.35.2-.2-.2m-.05.3.25-.1m.35-.2.35-.45 1-2.05h-.4m-.8 3.25.25.3m-1.7-.7-.25.2-.15-.6.2-.25m.2-.3-.2.3" fill="none" stroke="#000" stroke-linecap="round" stroke-linejoin="round" stroke-opacity=".302" stroke-width=".05"/><path d="m287.9 421.1.8 1.75q-.45-4.4.65-8.65l-.25-.15q-1.45 2.4-1.2 7.05" fill="#929123" fill-rule="evenodd" transform="translate(-259.9 -380.3)"/><path d="M28 40.8q-.25-4.65 1.2-7.05m.25.15q-1.1 4.25-.65 8.65" fill="none" stroke="#382510" stroke-linecap="round" stroke-linejoin="round" stroke-opacity=".2" stroke-width=".4"/><path d="M28.8 42.55 28 40.8z" fill="none" stroke="#382510" stroke-linecap="round" stroke-linejoin="round" stroke-opacity=".153" stroke-width=".2"/><path d="m285.85 424.8-.2-3.15q1.45-6.4 4.1-8.1l.2.5q-2.9 4.35-4.1 10.75" fill="#929123" fill-rule="evenodd" transform="translate(-259.9 -380.3)"/><path d="M25.75 41.35q1.45-6.4 4.1-8.1m.2.5q-2.9 4.35-4.1 10.75" fill="none" stroke="#382510" stroke-linecap="round" stroke-linejoin="round" stroke-opacity=".2" stroke-width=".4"/><path d="m25.95 44.5-.2-3.15z" fill="none" stroke="#382510" stroke-linecap="round" stroke-linejoin="round" stroke-opacity=".153" stroke-width=".2"/><path d="m287.75 410.95 3-2.9 1.5 3.2-7.25 7.05-1.05-2.15 4.3-2.05-.5-3.15" fill="#b06623" fill-rule="evenodd" transform="translate(-259.9 -380.3)"/><path d="m293 411.75-7.15 6.8-.85-.25 7.25-7.05.75.5m-9.05 4.4-.45-1.05 4.25-4.15.5 3.15-4.3 2.05" fill="#722800" fill-rule="evenodd" transform="translate(-259.9 -380.3)"/><path d="m290.75 408.05.8.65 1.45 3.05-.75-.5-1.5-3.2" fill="#ffbe7b" fill-rule="evenodd" transform="translate(-259.9 -380.3)"/><path d="m260.5 382 13 16.6 14.95 13.95.65-.15q-17.75-15.95-28.7-31.6l.05.65.05.55" fill="#616f6e" fill-rule="evenodd" transform="translate(-259.9 -380.3)"/><path d="m260.75 384.4.9.4 2.25 4.5 1.4.35 2.5 4.55 1.4.45 2 3.75 4.9 3.8 5.9 7.1 2.35 1.15 3.45 3.35.65-1.25-14.95-13.95-13-16.6.25 2.4" fill="url(#b)" fill-rule="evenodd" transform="translate(-259.9 -380.3)"/><path d="m287.8 413.8-3.45-3.35-2.35-1.15-5.9-7.1-4.9-3.8-2-3.75-1.4-.45-2.5-4.55-1.4-.35-2.25-4.5-.9-.4q.4 1.65 1.1 3.2 10.3 15.55 24.8 26.55l1.15-.35" fill="url(#c)" fill-rule="evenodd" transform="translate(-259.9 -380.3)"/><path d="M.85 4.1.6 1.7l-.05-.55L.5.5q10.95 15.65 28.7 31.6l-.65.15-.65 1.25-1.15.35q-14.5-11-24.8-26.55-.7-1.55-1.1-3.2z" fill="none" stroke="#1c1c21" stroke-linecap="round" stroke-linejoin="round" stroke-opacity=".314" stroke-width=".05"/></g></defs></svg>