<svg viewBox="0 0 40.25 44.178" xmlns="http://www.w3.org/2000/svg" xmlns:xlink="http://www.w3.org/1999/xlink"><use width="40.25" height="44.2" xlink:href="#a"/><defs><g id="a"><path d="M290.9 406.25q-.4 0-.85.35l-.1.85-.2.85-.2.35q-.35.8-.85 1.05h-.05l-.45.2-.25 1.05.5-.5.2-.15.85-.6.4.25.3.1.65 1.1.05.25.15-.35.15-.55-.45-.9-.2-1.1v-.2l.1-1.2.25-.85h.35l.3.15q.45.3.65 1.55l-.15.45-.85 2.1m.05-4.25v.7l.05.05-.05.05q-.05.6.15.75l.25.5.4.1m-1 2.65 1.55-.75h.05l.5-.15.25-.05.05-.05.15-.05.1-.05h.05l.45.3.2.35-.05.15-.05.2-.1.1-1.25 1-1.05 1.05-.7.85.35.2m1.8 1.15 2.35 1.45 2 1.1.1.15.2.1m1.3.6.2.1m-2.85 2.8-1.35-.55-1.85-.9-.05-.05-3.95-1.5-.8-.35v.15l.15 1.45.2 1.4.1.65.25.95.05.05v.1l-.05.2-.1.15-.35.15-.5-.05h-.05l-.2-.2-.2-.3-.2-.4-.05-.05-1.25-2.3-.1-.25-.9 1.25-1.95 2.3-.2.25-.5.45q-.45.45-.65.3l-.1-.2.3-1.25.3-.55 1.05-1.65 1.75-3.35-.05-.25.1-.2m2.1-4.95.05-.2.3-.95m5.45-.85h-.05l-.05.2h-.05l.05.15v.05l.1.15.25-.2-.05-.05.05-.05h.1l.3.15.05.1-.15.2q-.15.05-.25-.1l-.05-.25.1-.1m-.35.3.2.25.2.15.25.05.1-.05h.05m-.75.6-.3-.05h-.3l-.35-.2v-.2q0-.25.15-.4l.1-.15.4-.5m-.55.15-1.1.95-.1.1q-.55.45-.6.8-.05.4.6.25l1.2-.3.35-.05m-2.05-.65-.15.3-.15.4-.5 1.2.3.2.7-.3.3-.05.5-.05m-1.3-1-.1-.2-.2-.25-.1-.15-.05-.05-.85-.25-.1.05-.25.05-1.1.9-.1.15m-.2 1.95-.4 1.6-.15.35-.05.15-.25.7-.45 1.35-.2.5-.05.2q-.5 1.35-.55 2.05m7.4-5.25.8.35.05.05 2 .4m-4.6-1.9-1.35-.8-.25.5 1 .25.5.15m-.6-1.45.8.45m5.75 6.8h-.05l-.95-.95-.2-.25-1.25-1.4h-.05v-.05l1.6-.1.35.1.1.1.1-.05.3.05.7.45m-5.95-1.65.65.6 1.8 2.05.2.2 1 1.2m-5.85-2.45.6-.3.15-.2.1-.05.75-.05q.95.1 1.8 1.35l.55.75m3.85-.45q-.25 0-.25.3l.15.1m-8.5-1.95v.15m1.05-11.4-.2.1-.7.7-.1.35-.15.6.6-.5.35-.7.2-.55.35-.25m-1.85 3.3.35-1.3m1.55 4.7-.05.05.2.05m-4.1 4.05-.1.3v.1l-.2.85-.85 1.6-.8 1.5-.15.3-.3.7-.25.7m6-8.95-1 1.95.75-.15h.2m-.95.15-.05.1-.25.4m1.85-3.65-.3.7M286 417.3l-1.3 2.35-.3.55-.7.65m-1.05 1.65q.55-.7.7-.5v.7l-.1.5-.45 1m5.4-6.3.2.2.25.3m-.85-.7-.25.4.15.3.45.85.2.25.45.35m-1.25-1.75v.05l-.8 1.25-.05.2-.15.45-.1.15m-.8-3.1-.2.4m1.3 1.9-.1.1-.3.45m1.35 2.55-.35-1.45-.05-.05q-.25-.75 0-1.1.2-.35.55.15l.15.1.75.9.25.2m.1.65-.2-.15-.25-.1-.4-.05-.15.1-.15.45v.8m.2.3v-.3l.2-.2.45-.15.25.05.2.05.05.1.05.05m-.35.05-.25-.05-.15.15.05.15.25.05.1-.05v-.25m-.4.1h-.1v.1l.15.05m-.05-.15-.1-.3" fill="none" stroke="#000" stroke-linecap="round" stroke-linejoin="round" stroke-opacity=".251" transform="translate(-260.35 -380.85)"/><path d="m291.55 414.15.25-.45 1.65 1.45-.1.15-.45.6-.05.05-1.2 1.05-1.45.8-.45.15-.8.25-.3-.1-.45-.2-.4-.2-.75-.3 1.15-.4.4-.2.85-.45 1.55-1.4.1-.1.45-.7m6.45 3.95.6.25.6.3v.4l.1-.35m.2.1.6.25q-.15 2.25-1.05 3.7l-.9-.45-.6-.25-.9-.45m.95-2.95.2-.65m.35 4.3.3-.75.05-.35.5-1.7.1-.15.1-.3m-1.95.6.1-.5.15-.4.1-.1m-.35 1-.1.4-.2.45v.25l-.05.1-.25.75m1.95-3.25q-.2 2.3-1.05 3.7" fill="none" stroke="#000" stroke-linecap="round" stroke-linejoin="round" stroke-opacity=".451" transform="translate(-260.35 -380.85)"/><path d="m285.5 417.05-4.6-3.15-1.3-1.05-.2-.15v-.8l-.55.4q-4-3.2-7.05-6.8l-2.55-3.1.4-1.9-1.75-.1q-3.8-5.85-5.7-12.6l1.35-.95-1.95-1.2-.75-4.3m10.95 2.7.55 3.4-1.1.7 1.3.9q.5 2.25 1.3 4.7l.85 2.2q2.25 5.35 6.05 11.05 1.5 2.05 3.4 3.35l1.25.75q.4.35.95.45l1.25.55m.15.25v.5l-.2 1.45-.1.2-.45 1.35v.15l-.05.35-.25.35-.1.15-.35.6h-.1l-.15-.15-.35-.2-.15-.05m-10.8-21.1-2.4-.55-.45 1.3m6.4 13.6 1.3.1v-.35l.25-1.1m-.25 1.45-.15 1.05v.45m8.25 0 .1.45" fill="none" stroke="#000" stroke-linecap="round" stroke-linejoin="round" stroke-opacity=".302" transform="translate(-260.35 -380.85)"/><path d="m260.85 381.35 10.95 2.7" fill="none" stroke="#000" stroke-linecap="round" stroke-linejoin="round" stroke-opacity=".2" transform="translate(-260.35 -380.85)"/><path d="m287.55 413.9 2.6-1.85-.55.65q-.6.6-.65.9l.15.3.3.05.25-.1-.25.1-.3-.05-.15-.3q.05-.3.65-.9l.55-.65 1.25-.7.1-.1 1.15-.45q-.15.15-.15.4v.2-.2q0-.25.15-.4.35-.2.65-.3l.1.15q-.15.45-.9.75-.2.5-1.1 1-.3.7-1.75 1.45l-.95.85-.65.55-.35-.35v-.05l-.1-.2-.05-.15v-.6m2.65 1.3-.1.15-.15.05.25-.2m-1.5-.5-.35.1-.3.1h-.35.35l.3-.1.35-.1m2.7-2.3q-.65.15-.6-.25.05-.35.6-.8-.55.45-.6.8-.05.4.6.25" fill="#593e25" fill-rule="evenodd" transform="translate(-260.35 -380.85)"/><path d="m287.55 413.9.05-.6.05-.05.05-.1q1.1-.95 2.55-1.7l.05.15-.15.45.15-.45-.05-.15q1.1-.65 2.35-1.15h.05l.5-.15.3-.1-.1.05-.05.2h-.05l.05.15v.05q-.3.1-.65.3l-1.15.45-.1.1-1.25.7-2.6 1.85m5.05-3.6-1.1.95 1.1-.95m.55-.15-.4.5-.1.15.1-.15.4-.5" fill="#91653c" fill-rule="evenodd" transform="translate(-260.35 -380.85)"/><path d="m289.75 415.5-.1.05h-.05l.15-.05" fill="#301f14" fill-rule="evenodd" transform="translate(-260.35 -380.85)"/><path d="m293.45 410.05.15-.05.1-.05h.05l.45.3.2.35-.05.15-.05.2-.1.1h-.05l-.1.05-.25-.05-.2-.15-.2-.25-.1-.15v-.05l-.05-.15h.05l.05-.2.1-.05m.2.4.05.25q.1.15.25.1l.15-.2-.05-.1-.3-.15h-.1l-.05.05.05.05-.25.2.25-.2" fill="#6b4a2c" fill-rule="evenodd" transform="translate(-260.35 -380.85)"/><path d="m293.65 410.45-.05-.05.05-.05h.1l.3.15.05.1-.15.2q-.15.05-.25-.1l-.05-.25.1-.1-.1.1" fill="#422b1c" fill-rule="evenodd" transform="translate(-260.35 -380.85)"/><path d="m294.2 411.05-1.25 1-1.05 1.05-.95 1.1-.75 1-.25.2-.2.1-.15.05-.4-.05-1.15-.25.65-.55.95-.85.5-.25.95-.4.3-.05.5-.05-.5.05-.3.05-.95.4-.5.25q1.45-.75 1.75-1.45.9-.5 1.1-1 .75-.3.9-.75l.2.25.2.15.25.05.1-.05h.05m-5.5 3.65.4-.15.9-.2.95-.15-.95.15-.9.2-.4.15m2.7-2.3 1.2-.3.35-.05-.35.05-1.2.3m1.1-1 .35.2h.3l.3.05-.3-.05h-.3l-.35-.2" fill="#382717" fill-rule="evenodd" transform="translate(-260.35 -380.85)"/><path d="M29.9 30.6q-1.45.75-2.55 1.7l-.05.1-.05.05-.05.6m2.6-1.85.15-.45-.05-.15q1.1-.65 2.35-1.15h.05l.5-.15.45-.15.1-.05h.05l.45.3.2.35-.05.15-.05.2-.1.1-1.25 1-1.05 1.05-.95 1.1-.75 1-.1.15m-.45.2h-.05l-.4-.05-1.15-.25-.35-.35V34l-.1-.2-.05-.15v-.6m.15 1h.35l.3-.1.35-.1m.95-.85-.25.1-.3-.05-.15-.3q.05-.3.65-.9l.55-.65m1.25-.7.1-.1 1.1-.95M29.3 33l.5-.25.95-.4.3-.05.5-.05m-.95 1.1-.95.15-.9.2-.4.15m.9.85.15-.05m3.2-3.45-.35.05-1.2.3m0-1.05q-.55.45-.6.8-.05.4.6.25m1.1-1v-.2q0-.25.15-.4l.1-.15.4-.5m.25.5-.1-.15m.1.15.2.25.2.15.25.05.1-.05h.05m-.75.6-.3-.05h-.3l-.35-.2m-2.55 4 .25-.2m3.45-4.75-.05-.05.05-.05h.1l.3.15.05.1-.15.2q-.15.05-.25-.1l-.05-.25-.25.2m.05-.6-.1.05-.05.2h-.05l.05.15v.05m.45-.15-.1.1" fill="none" stroke="#000" stroke-linecap="round" stroke-linejoin="round" stroke-opacity=".251" stroke-width=".05"/><path d="m288.8 413.2 1.45.2-1.2-.7-.25.5m2.9 1.05-.4.7.35.15.45.25.35.2q.55.45 1.2.75l.05.05 2.5 1.6.2.15.1.1.1-.05.3.15.6.45.1-.1.2-.65.2.1-.1-.15-.1.05-.1-.15-2-1.1-4-2.5m5.9 4.4-.7-.45-.3-.05.3.05.7.45m-3.9-2.3 2 .4-2-.4" fill="#593e25" fill-rule="evenodd" transform="translate(-260.35 -380.85)"/><path d="m286.9 416.4-.35.75.55.35.05.05.25-.45.25-.25-.25.25-.25.45 2.3 1.05.6-.3.15-.2.1-.05-.1.05-.15.2-.6.3 3.95 1.5.05.05 1.85.9-1-1.2 1 1.2 1.35.55q.05-.4.25-.75l.05-.35h-.3l-.7-.1-1.65-.55-1.45-.5.55.75-.55-.75q-1.2-.45-2.55-1.3l-.25.05-2.4-1.25-.75-.45m10 4.45v-.1l-.25-.25.25.25v.1" fill="#cf9056" fill-rule="evenodd" transform="translate(-260.35 -380.85)"/><path d="m292.45 415.55-.35-.2-.45-.25-.35-.15-.05.25-.55 1.3-.65 1.6.25-.05.75-.05q.95.1 1.8 1.35-.85-1.25-1.8-1.35l-.75.05q1.35.85 2.55 1.3l1.45.5-.2-.2-1.8-2.05q-.6-.7-1.6-1.1 1 .4 1.6 1.1l1.8 2.05.2.2 1.65.55.7.1-.7-.7-.2-.25-1.25-1.4h-.05v-.05l1.6-.1.35.1-.35-.1-1.6.1v.05h.05l1.25 1.4.2.25.7.7h.3l.2-.45-.15-.1.05-.35.2-.05-.2.05-.05.35.15.1.1-.5.1-.4.15-.4-.6-.45-.3-.15-.1.05-.1-.1-.2-.15-2.5-1.6-.05-.05q-.65-.3-1.2-.75m1.2.75-2.4-1.1 2.4 1.1" fill="#91653c" fill-rule="evenodd" transform="translate(-260.35 -380.85)"/><path d="m286.9 416.4.75.45.2-.2 1.4-.3 1.25.1.2.05.55-1.3.05-.25-2.65-1.55-.85 1.5-.1.15-.8 1.35m.9-1.5.15-.1 3.15.2.15.2-.15-.2-3.15-.2-.15.1m2.25 3.2.65-1.6-.2-.05-1.25-.1-1.4.3-.2.2 2.4 1.25" fill="#785332" fill-rule="evenodd" transform="translate(-260.35 -380.85)"/><path d="m288.8 413.2-.15.2 2.65 1.55.4-.7-1.45-.85-1.45-.2" fill="#452f1c" fill-rule="evenodd" transform="translate(-260.35 -380.85)"/><path d="m299.3 418.7-.1.35-.1.3-.1.15-.35 1.25-.15.45-.05.35-.3.75.9.45q.9-1.45 1.05-3.7l-.6-.25-.2-.1m-.7-.35-.6-.25-.2-.1-.2.65-.1.1-.15.4-.2.9-.2.45-.05.35q-.2.35-.25.75l.9.45q.85-1.4 1.05-3.7" fill="#960" fill-rule="evenodd" transform="translate(-260.35 -380.85)"/><path d="m298.15 422.3.3-.75.05-.35.15-.45.35-1.25.1-.15.1-.3v-.4l-.6-.3q-.2 2.3-1.05 3.7l.6.25" fill="#333" fill-rule="evenodd" transform="translate(-260.35 -380.85)"/><path d="m27.3 36-.25.25-.25.45-.05-.05-.55-.35m2.25-3.95 1.45.2 1.45.85m-.4.7-2.65-1.55m-.85 1.5-.1.15m1.35-2.35 1.2.7m2.2 2.15-.35-.2-.45-.25-.35-.15m-.05.25-.15-.2-3.15-.2-.15.1m2.9 1.6q1 .4 1.6 1.1l1.8 2.05.2.2 1 1.2-1.85-.9-.05-.05-.55-.75q-.85-1.25-1.8-1.35l-.75.05-.1.05-.15.2-.6.3-2.3-1.05m4.1-2.35 2.4 1.1.05.05m2.7 1.75-.35-.1-1.6.1v.05h.05l1.25 1.4.2.25.95.95v.1m-9.25-4 .2-.2 1.4-.3 1.25.1.2.05m7.2 1.45-.1.05-.1-.15-2-1.1-4-2.5m7.6 4.45.2.1m-2.25.75-.2.05-.05.35.15.1m-.5 1.55-1.35-.55m2.5-3.05.2.1m-1.6 0 .1.1.1-.05.3.05.7.45m-8.15-.05 3.95 1.5m2.3-3.35-2-.4" fill="none" stroke="#000" stroke-linecap="round" stroke-linejoin="round" stroke-opacity=".251" stroke-width=".05"/><path d="m38.85 38.2.1-.35m.2.1.6.25q-.15 2.25-1.05 3.7l-.9-.45.3-.75.05-.35.15-.45.35-1.25.1-.15.1-.3v-.4l-.6-.3-.6-.25m-.85 1.95-.2.45m-.05.35q-.2.35-.25.75m.7-2.45.15-.4.1-.1.2-.65m-.9 2.85.05-.35m.6 1.55-.9-.45m1.5.7-.6-.25q.85-1.4 1.05-3.7m-1.45 1.7.2-.9" fill="none" stroke="#000" stroke-linecap="round" stroke-linejoin="round" stroke-opacity=".451" stroke-width=".05"/><path d="m293.45 415.15-1.65-1.45q-1.5 2.8-4.75 3.7l1.9.8q2.9-.75 4.5-3.05" fill="#333" fill-rule="evenodd" transform="translate(-260.35 -380.85)"/><path d="M33.1 34.3q-1.6 2.3-4.5 3.05l-1.9-.8q3.25-.9 4.75-3.7z" fill="none" stroke="#000" stroke-linecap="round" stroke-linejoin="round" stroke-opacity=".451" stroke-width=".05"/><path d="M285.75 416.65q.3 1.45.95 2.95v-.75q-.15-.85 0-1.15l.25-.2.3.15.15.25-.15-.25-.3-.15-.25.2q-.15.3 0 1.15v.75l.6 1.4.05.05.6 1.1.15-.45.15-.1-.15.1-.15.45.4.6.15-.05q.15-.4-.25-1.1.15-.6-.4-1.55.25-.75-.45-2.15.1-.5-.3-1.25l-.2-.8-.45.05-.05.05h-.1l-.15.1-.05.1-.35.5m2.85.5.05-.25-.05-.1v.35m-1.5-.5-.2-.3-.2-.25-.25-.2.25.2.2.25.2.3m.75 3.4q-.35-.5-.55-.15-.25.35 0 1.1-.25-.75 0-1.1.2-.35.55.15" fill="#593e25" fill-rule="evenodd" transform="translate(-260.35 -380.85)"/><path d="m285.75 416.65-.3.5-.05.1q.35 1.5 1.05 2.95l.1-.15.15-.45-.15.45-.1.15 1.25 2.3.05.05.2.4.2.3v-.3l.2-.2-.4-.6-.6-1.1-.05-.05-.6-1.4q-.65-1.5-.95-2.95m1.95 5.85-.35-1.45.35 1.45m.25.45v-.8.8" fill="#91653c" fill-rule="evenodd" transform="translate(-260.35 -380.85)"/><path d="m288.45 416.6-.1-.1v.05l.1.05" fill="#301f14" fill-rule="evenodd" transform="translate(-260.35 -380.85)"/><path d="m288.15 423.25.2.2h.05l.5.05.35-.15.1-.15.05-.2v-.1l-.1-.1-.05-.1-.2-.05-.25-.05-.45.15-.2.2v.3m.45-.25.15-.15.25.05v.25l-.1.05-.25-.05-.15-.05v-.1h.1l-.1-.3.1.3" fill="#6b4a2c" fill-rule="evenodd" transform="translate(-260.35 -380.85)"/><path d="M288.6 423h-.1v.1l.15.05.25.05.1-.05v-.25l-.25-.05-.15.15.05.15-.05-.15" fill="#422b1c" fill-rule="evenodd" transform="translate(-260.35 -380.85)"/><path d="m289.35 422.85-.25-.95-.1-.65-.2-1.4-.15-1.45-.05-1.25v-.35l-.15-.2-.1-.05-.35-.25q-.55-.45-1.1-.45l.2.8q.4.75.3 1.25l.3.5.45.85.2.25.45.35-.45-.35-.2-.25-.45-.85-.3-.5q.7 1.4.45 2.15.55.95.4 1.55l.4.05.25.1.2.15-.2-.15-.25-.1-.4-.05q.4.7.25 1.1l.3-.1.25.05.2.05.05.1.05.05m-2.25-6.2.25.3.65.75.65.7-.65-.7-.65-.75-.25-.3m.75 3.4.15.1.75.9.25.2-.25-.2-.75-.9-.15-.1" fill="#382717" fill-rule="evenodd" transform="translate(-260.35 -380.85)"/><path d="M26.1 39.35q-.7-1.45-1.05-2.95l.05-.1.3-.5m.95 2.95-.15.45-.1.15 1.25 2.3.05.05.2.4.2.3.2.2h.05l.5.05.35-.15.1-.15.05-.2v-.1L29 42l-.25-.95-.1-.65-.2-1.4-.15-1.45-.05-1.25.05-.25m-.3-.4v.05l-.35-.25q-.55-.45-1.1-.45l-.45.05-.05.05h-.1l-.15.1-.05.1-.35.5m.7-.75.25.2.2.25.2.3m.3 1.25-.15-.25-.3-.15-.25.2q-.15.3 0 1.15v.75m.6 1.4.05.05.35 1.45m-.3-4.6.3.5.45.85.2.25.45.35m-.15-1.45-.65-.7-.65-.75-.25-.3m1.25-.1.1.05m.55 4.65-.25-.2-.75-.9-.15-.1m-.55.95q-.25-.75 0-1.1.2-.35.55.15m.4 1.55-.15.1-.15.45v.8m1.15-1.05-.2-.15-.25-.1-.4-.05m.25 1.1-.15.05m.15-.05.3-.1.25.05.2.05.05.1.05.05m-.75-6.05v.35m0 5.85h-.1v.1l.15.05.25.05.1-.05v-.25L28.4 42l-.15.15-.1-.3m-.35.55v-.3l.2-.2m.3.4-.05-.15" fill="none" stroke="#000" stroke-linecap="round" stroke-linejoin="round" stroke-opacity=".251" stroke-width=".05"/><path d="m289.7 406.85-.2.1v.45l.2-.55-.2.55-.3.6q0 .8-.55 1.7l-.2.75q.15.5-.6 1.75l-.5 1.75q-.05 1.05-.75 2.35l-.1.45-.05.05-.35.8-.05.15q-.05.95-1.05 2.55l-.8 1.5-.15.3.15-.3.8-1.5q1-1.6 1.05-2.55l-.1.1-1.35 2.3-1.25 2v.55l-.1.5.1-.5v-.55.1l-1.3 2.05.1.2 1.1-1.3.8-1.1 2-3.15q1.55-2.85 2.7-6.35l.3-.8.25-.6-.1.05-.25.05-1.1.9 1.1-.9.25-.05.1-.05.6-1.25-.4-.25-.85.6-.2.15.2-.15.85-.6.4.25.65-1.45v-.2l.1-1.2.25-.85q-.4 0-.85.35l-.35.25m1.85-.45-.3-.15h-.35l-.25.85-.1 1.2v.2l.7-1.45v-.8.8l.3-.65m-2.9 3.3h.05q.5-.25.85-1.05l.2-.35.2-.85.1-.85-.1.85-.2.85-.2.35q-.35.8-.85 1.05h-.05m-1.3 4.25.15.1q.2.2-.8 3.05l-.65 1.85.65-1.85q1-2.85.8-3.05l-.15-.1" fill="#91653c" fill-rule="evenodd" transform="translate(-260.35 -380.85)"/><path d="M282.15 424.5q.2.15.65-.3l.5-.45.2-.25 1.95-2.3q2.9-3.9 5.15-9.1l.3-.7.3-.9.85-2.1.15-.45q-.2-1.25-.65-1.55l-.3.65-.7 1.45.2 1.1.45.9-.45-.9-.2-1.1-.65 1.45-.6 1.25-.25.6-.3.8q-1.15 3.5-2.7 6.35l-2 3.15-.8 1.1-1.1 1.3m8.45-12.4-.45-.65-.85-.25.85.25.45.65m.3-.7q-.2-.95-.7-1.35l-.3-.1.3.1q.5.4.7 1.35m1.15-3-.4-.1-.25-.5q-.2-.15-.15-.75-.05.6.15.75l.25.5.4.1m-8.8 14.8-.45 1 .45-1m.25.3.25-.7.3-.7-.3.7-.25.7m1.95-2.3q.05-.75.6-2.25-.55 1.5-.6 2.25" fill="#593e25" fill-rule="evenodd" transform="translate(-260.35 -380.85)"/><path d="M289.5 407.4v-.45l-.7.7-.1.35-.15.6-.35 1.3-.25 1.05-.7 2.15-.3.75-.45 1.25-.35.75-.35.85-2.1 4.15-1.05 1.65-.3.55-.3 1.25 1.3-2.05v-.1l1.25-2 1.35-2.3.1-.1.05-.15.35-.8.05-.05.1-.45q.7-1.3.75-2.35l.5-1.75-.6.9.6-.9q.75-1.25.6-1.75l.2-.75-.45.2.45-.2q.55-.9.55-1.7l.3-.6m-.95 1.2.6-.5.05-.1-.05.1-.6.5m-.6 2.35.5-.5-.5.5m-4.25 9.9.7-.65.3-.55.45-1 .9-1.5.25-.75v-.2l-.05-.35h-.1.1l.05.35v.2l-.25.75-.9 1.5-.45 1-.3.55-.7.65m2.8-5.75q.2.15 0 1.05l-.4 1.45.4-1.45q.2-.9 0-1.05m.85-1.15-.4-.1.4.1m-4 8.2V422q-.15-.2-.7.5.55-.7.7-.5v.15" fill="#cf9056" fill-rule="evenodd" transform="translate(-260.35 -380.85)"/><path d="m29.15 26.1.2-.1-.2.55m0-.45-.7.7-.1.35-.15.6-.35 1.3-.25 1.05-.7 2.15-.3.75-.45 1.25-.35.75-.35.85-2.1 4.15-1.05 1.65-.3.55-.3 1.25.1.2q.2.15.65-.3l.5-.45.2-.25 1.95-2.3q2.9-3.9 5.15-9.1l.3-.7.3-.9.85-2.1.15-.45q-.2-1.25-.65-1.55l-.3-.15v-.05.05h-.35q-.4 0-.85.35l-.35.25m.35-.25-.1.85-.2.85-.2.35q-.35.8-.85 1.05h-.05m.55-1.7.3-.6m-.3.6-.05.1-.6.5m-.1 1.85-.5.5m.25-1.05.45-.2m-2.55 7.9.4-1.45q.2-.9 0-1.05m-.35.75h.1l.05.35v.2l-.25.75-.9 1.5-.45 1-.3.55-.7.65m2.35-1.9.65-1.85q1-2.85.8-3.05l-.15-.1m.5-1.75 1.1-.9.25-.05.1-.05.85.25.45.65m-6.55 10 .15-.3.8-1.5q1-1.6 1.05-2.55l.05-.15m1.15-4.5.6-.9m.6-1.75.2-.15.85-.6.4.25.3.1q.5.4.7 1.35M26.6 33l.4.1m3.2-5.45v-.2l.1-1.2.25-.85m.3 4.25-.45-.9-.2-1.1m.7-1.45q-.05.6.15.75l.25.5.4.1m-.8-2.15v.8M23 41.3v.55l-.1.5m-.45 1 .45-1m.8-1.1-.3.7-.25.7m-.85-1q.55-.7.7-.5v.15m2.7-3.2q-.55 1.5-.6 2.25" fill="none" stroke="#000" stroke-linecap="round" stroke-linejoin="round" stroke-opacity=".251" stroke-width=".05"/><path d="m286.6 416.85-.2.75-.1-.35.3-.4m-16.95-15.95.1-.35.05.35h-.15" fill="#ccc" fill-rule="evenodd" transform="translate(-260.35 -380.85)"/><path d="m271.85 396.7.45-1.3 2.4.55-2.4-.55-.45 1.3m-.05-12.65.55 3.4-1.1.7 1.3.9q.5 2.25 1.3 4.7l.85 2.2q2.25 5.35 6.05 11.05 1.5 2.05 3.4 3.35l1.25.75q.4.35.95.45l1.2.55.2-.2-.25 2.5-.05.1-3.3-2.3-4.3-3.35v-.05l-.05.15h-1.1l-1.9-.7 1.05-1.5-1.45.15-1.2-.25 1.4-1.35-1.15-1.25q-1.4-1.95-2.65-4.1l-.65-1.15-.3-.5q-2.9-5.55-3.45-9.45l-2.85-2.6-.1-1.1h2.45l-.2-2.05 4.1.95" fill="#aca88a" fill-rule="evenodd" transform="translate(-260.35 -380.85)"/><path d="M287 415.85v.15l-.05.35-3.75-3.25 3.8 2.75m-8.75-5.55 1.3.1-.15 1.05-1.15-1.15" fill="#b5b090" fill-rule="evenodd" transform="translate(-260.35 -380.85)"/><path d="m262.7 386.3-1.1-.65-.75-4.3 1.85 4.95" fill="#d2cdbd" fill-rule="evenodd" transform="translate(-260.35 -380.85)"/><path d="m287.45 414.5-.45 1.35-3.8-2.75-.3-.2-3.35-2.85-.85-1.1h1.1l.05-.15v.05l4.3 3.35 3.3 2.3m-22.35-32.05 2.6.65.2 2.05h-2.45q-.25-1.3-.35-2.7m2.9 13.05q-1.5-3.95-2.45-9.25l2.85 2.6q.55 3.9 3.45 9.45l.3.5-3-.65-1.15-2.65m2.95 6 .65-1.4.55-1.3.65 1.15q1.25 2.15 2.65 4.1l1.15 1.25-1.4 1.35q-1.15-.5-1.65-1.3l-1.05-1.55q-.65-.75-1.55-2.3m5.85 6.75-.4-1.35 1.45-.15-1.05 1.5m3 .7-.25 1.1.25-1.1" fill="#d4cfa9" fill-rule="evenodd" transform="translate(-260.35 -380.85)"/><path d="m286.95 416.35-.25.35-.1.1-1.85-1.2q-1.5-.8-3.7-2.75l-1.6-1.4h-.05l.15-1.05-1.3-.1-2.05-1.9-2.3-2.1-2.1-2.4-.95-1.45.1-.95q.9 1.55 1.55 2.3l1.05 1.55q.5.8 1.65 1.3l1.2.25.4 1.35 1.9.7.85 1.1 3.35 2.85.3.2 3.75 3.25m-23.9-29.15.5-.35-.85-.55-1.85-4.95 1.6.45q1.35 6.75 5.55 13.7l1.15 2.65-1.8-1.95-.8-1.65-2.85-5.85-.65-1.5m16.5 22.85v.35-.35" fill="#ede6bd" fill-rule="evenodd" transform="translate(-260.35 -380.85)"/><path d="M286.2 417.45q-2.75-1.7-5.3-3.55l-1.3-1.05-.2-.15v-.8l-.55.4q-4-3.2-7.05-6.8l-1.35-1.6q.2-.85 1.35 0l2.1 2.4 2.3 2.1 2.05 1.9 1.15 1.15v.45-.45h.05l1.6 1.4q2.2 1.95 3.7 2.75l1.85 1.2v.05l-.3.4-.1.2m-17.45-17-.85-.05q-3.8-5.85-5.7-12.6l.85-.6.65 1.5 2.85 5.85.8 1.65 1.8 1.95 3 .65-.55 1.3-2.85.35" fill="#c7bab8" fill-rule="evenodd" transform="translate(-260.35 -380.85)"/><path d="m270.45 403.9-1.2-1.5.4-1.5h.15l-.05-.35-.1-.05-.9-.05 2.85-.35-.65 1.4-.1.95.95 1.45q-1.15-.85-1.35 0" fill="#faf5eb" fill-rule="evenodd" transform="translate(-260.35 -380.85)"/><path d="m262.45 381.8 2.65.65q.1 1.4.35 2.7l.1 1.1q.95 5.3 2.45 9.25-4.2-6.95-5.55-13.7" fill="#cfc69e" fill-rule="evenodd" transform="translate(-260.35 -380.85)"/><path d="m14.35 15.1-2.4-.55-.45 1.3M11.45 3.2 12 6.6l-1.1.7 1.3.9q.5 2.25 1.3 4.7l.85 2.2q2.25 5.35 6.05 11.05 1.5 2.05 3.4 3.35l1.25.75q.4.35.95.45l1.2.55m.2-.2-.25 2.5-.05.1-.45 1.35v.15l-.05.35-.25.35-.1.15-.3.4m.1.35-.2-.15q-2.75-1.7-5.3-3.55L19.25 32l-.2-.15v-.8l-.55.4q-4-3.2-7.05-6.8l-1.35-1.6-1.2-1.5.4-1.5.1-.35m-.1-.05-.9-.05-.85-.05q-3.8-5.85-5.7-12.6l.85-.6.5-.35-.85-.55-1.1-.65L.5.5m17.4 28.95 1.3.1v-.35l.25-1.1.05-.15m-.45 2.65v.45m0-.45.15-1.05" fill="none" stroke="#000" stroke-linecap="round" stroke-linejoin="round" stroke-opacity=".302" stroke-width=".05"/></g></defs></svg>