<svg width="34" height="41" viewBox="258.05 180.05 33.8 40.8" xmlns="http://www.w3.org/2000/svg" xmlns:xlink="http://www.w3.org/1999/xlink"><defs><radialGradient id="a" cx="0" cy="0" r="819.2" gradientTransform="matrix(.00539 .00227 -.00237 .00446 6.9 28.15)" gradientUnits="userSpaceOnUse"><stop stop-color="#fff" stop-opacity=".471" offset="0"/><stop stop-color="#fff" stop-opacity="0" offset="1"/></radialGradient><use xlink:href="#b" id="c"/><g id="b"><path d="m29.1.5.15-.15.3-.35.1 1.25q.15.85 4.15 3.6l-2.4-.8q-2.7-.8-2.65-.3l-.7-.65-.05-.05h-.05l-1-.05q.45-.35-2.4-1.9L23.4.55q3.25 1.35 4.5 1.25L29.1.5m-1.4 6.7-.05.25q-.2.35-.75.4l-.25-.05-.55 1.05-.35.65-.35.55.05-.1-.25-.6-.35-.2h-.1l-.05-.05-1.05.1h-.05l.15-.35.05.05 1.1-.1h.05l.05.05.35.15q.3.2.25.65l.15-.15.05-.2q.05-.45-.25-.65l-.35-.15-.05-.05h-.05l-1.1.1-.15.15.35-.65.5-1.05-.15-.15-1.5-1.3h.05l.15-.25 1.95.4h.1l.65.05.6.2.6.35v.05l.3.2.05.15.2.5m-2.3 4.35-.05.25-.75.35h-.4l.2-.4v-.2l-.05-.1-.15-.25-.3-.25-.1-.05-.05.05.05-.05-.8-.05-.1.05-.2.15-.15.35-.05.05v-.05l-.25-.2q-1.6-1.1-1.5-1.35l.2-.2 1.95.4h.3l.9.25.1.05.4.15.15.1.05.05.2.15.2.2.2.55m-1 1.75-.1.2q-.1.3-.65.35h-.4l.15-.3-.25-.45.1-.25-.35-.2h-.15l.05-.05q-.6-.25-1 .3l-.15.25-.25-.2q-1.6-1.15-1.45-1.3l.1-.2 1.95.4h.35l.75.2.6.3.5.4.2.55m-1.15.6-.2.3-.25-.4-.3-.15-.15-.05.1-.25v-.05l-.1.2-.05.05q-.5-.2-.85 0l.2-.35q.35-.15.7 0h.1l.05.05h-.05H22.6l.35.2.3.4v.05m-.35.65-.2.35-.3-.45q-.15-.15-.3-.15l-.05-.05H22l-.9-.05.2-.35.85.05h.05l.4.2.3.45m-.35.65-.2.35-.3-.45-.3-.15-.05-.05h-.05q-.55-.3-.9 0l.15-.4.9.05v.05H21.95l.3.2.3.4m-.35.7-.2.35-.05-.25-.25-.2-.25-.15v.05l-.05-.05.05-.05-.1-.05-.05.05v-.05q-.6-.25-.95 0l.2-.35q.35-.25.9 0v.05H21.6l.3.2.25.35.05.1m-.05 1.6-.1.2-.2.25-.45.15h-.35l-.65 1.15-.4.7.1-.3-1.65 2.05.7.3.2.05q-.3 2 1.5 3 1.5.8 5.3 1.25l-1.35-.05q-4.5-.1-4.45.75 3.65 3.3 8.45 3.9-4.55.3-6.2 3.7-1.05 2.05-.95 5.35l-.55-2.85.15.2-.1-.3.65-1.5 2.2-5.2.05-.05q-3.75-2.7-7.2-3L13.45 30l.4-.75.2-3.15-1-.8q-2.4-1.6-6.15-2.25h-.05l-3.1 4.8-.9 1.4-.3.15.25-.05L0 30.8q2.6-1.85 3.8-3.65l.8-1.55.15-.6 1.4-2.85 1.65.5.85.3 2.5.8.85-.25h.05l.05-.05q.55-.6-2.2-3.5l4.95 4.9 1.15.5.15-.35.1.05 3.85-7.25v-.1l.4-.7-.45-.1q-.45-.05-.7.45l-.2-.2q-1.6-1.1-1.45-1.3l.15-.2 1.9.4h.35l.75.2.7.25v.1l.2.15.2.25.2.5M17 21.05l-3-2.4 2 1.05q1.5.5 2.4-.45l.45-.65v.05l-1 2.8-.7-.25-.15-.15m9.25-13.7h-.05l-.3-.2H25.75l.05-.05q-.8-.35-1.2.4l1-.05-.05.1h.1V7.5h.05l.4.2.25.5q.2-.5-.1-.85m-.5 1 .2.6.15-.1q.15-.55-.2-.85l-.35-.2H25.4l.05-.05q-.85-.35-1.25.3l-.05.15 1.1-.1h.05l.05.05.4.2m-.75 1.8-.55-.3-.1-.05-.95-.2.05-.1 1.1-.05h.05l.05.05q.15 0 .35.15l.2.2.05.45v.05l-.25-.2"/><path d="m26.95 3 1 .05H28l.05.05.7.65.1.2-.15.75-.85 1.2-.15.25-.3-.25-.65-.35-.25-.15-.95-.15.55-1.6q.15-.4.6-.6l.25-.05m-2.6 9.25.25.25h-.05l-.2-.25m-.8-3 .05-.05h.05l-.1.05m.2-.4.1-.15-.05.2-.05-.05m1.35-.4h-.05.05m-2.6 3 .05-.05.15-.35.2-.15.1-.05.8.05-.05.05.05-.05.1.05.3.25.15.25.05.1v.2l-.2.4v-.05h-.05l-.15-.15-.5-.3-.15-.05-.75-.15h-.1m1.55.95v-.05.05m-2.25.5q.4-.55 1-.3l-.05.05h.15l.35.2-.1.25-.3-.1-.2-.1q-.5-.25-.85 0m.7.35-.05-.05.2-.3-.15.35h.1-.1" fill="#1b1b1b"/><path d="m17.85 15.65.05-.2q.05-.15.95 0l1.1.15.35.05 1.25.35-.15-.35.05.05v-.05l.15.4.2.15q.45.5-.25.4v-.1l-.7-.25-.75-.2h-.35l-1.9-.4m3.1-6L21 9.4q.05-.15.95 0l1.15.2h.3l.95.2.1.05.55.3-.25.45-.15-.1-.4-.15-.1-.05-.9-.25h-.3l-1.95-.4m2.3-4.35.05-.25q.05-.15.95 0l1.15.2h.15l.95.15.25.15.65.35-.25.4-.6-.35-.6-.2-.65-.05h-.1l-1.95-.4" fill="#616161"/><path d="m29.1.5-1.2 1.3q-1.25.1-4.5-1.25l-.25-.1.05-.05q4.4 1.2 5.9.1M20 19.95v.5q.1 1.5 3.3 2.1l-3.95-.5-.2-.05-.7-.3 1.65-2.05-.1.3M4.75 25q.45-2.45-1.45-4.85 2.1 1.65 4.5 2.5l-1.65-.5L4.75 25m5.15-5.05-.95-.9q4.8 3.35 6 3.05l1.4-.5.65-.55.15.15.7.25 1-2.8v-.05h-.1l.6-1.25q.25-.5.7-.45l.45.1-.4.7-.05.1h.05l-3.85 7.25-.1-.05-.15.35-1.15-.5-4.95-4.9" fill="#454545"/><path d="m27.7 6.15.05.1.15.75-.2.2-.2-.5-.05-.15-.3-.2V6.3l.25-.4.3.25m-2.45 4.2.2.2.15.8-.2.2-.2-.55-.2-.2-.2-.15-.05-.05.25-.45.25.2m-3.3 6 .25.2q.3.35.15.65l-.05.1-.15.2-.2-.5-.2-.25-.2-.15q.7.1.25-.4l.15.15" fill="#181818"/><path d="m20.3 15.65.05-.1q.35-.25.95 0v.05l.05-.05.1.05-.05.05.15.35-1.25-.35m.6-1.15.2-.3.9.05h.05l.05.05q.15 0 .3.15l-.15.35-.3-.2H21.8v-.05l-.9-.05m.4-.65.15-.3q.35-.2.85 0v.05h.05l.15.05.3.15-.2.3-.4-.2h-.05l-.85-.05m4.3-6.4-1 .05q.4-.75 1.2-.4l-.05.05H25.9l.3.2h.05l-.15.35-.4-.2h-.05l.05-.25-.1.2M23.85 8.7l.15-.15 1.1-.1h.05l.05.05.35.15-.2.35-.35-.15-.05-.05h-.05l-1.1.1.05-.2m1.25-.25h-.05.05m-3.65 7.2.25.15-.1.25-.15-.4" fill="#6c6c6c"/><path d="m25.4 10.05-.1.25h-.05l-.05-.45-.2-.2.2-.3.25.6-.05.1m-1.2 2.1.15.1.2.25v.55l-.15.25-.2-.55-.5-.4-.6-.3-.75-.2H22l-1.95-.4.1-.25.95.05 1.4.15v.05h.1l.75.15.15.05.5.3.15.15h.05v.05m-1.15 2.05-.15.35-.3-.45.2-.3.25.4m-.35.7-.15.3-.3-.4.15-.35.3.45m-.35.65-.15.35-.05-.1-.25-.35.15-.35.3.45m-.35.7-.05.1-.15-.15-.2-.15.1-.25.25.2.05.25m4.25-8.9q.3.35.1.85l-.25-.5.15-.35M25.9 8q.35.3.2.85l-.15.1-.2-.6.15-.35m-.55 1 .2-.35q.3.2.25.65l-.05.2-.15.15q.05-.45-.25-.65m-1.3 3.4v-.05.05m-.9.7.25.45-.15.3-.3-.4.2-.35" fill="#393939"/><path d="m25.75 8.35-.4-.2-.05-.05h-.05l-1.1.1.05-.15q.4-.65 1.25-.3l-.05.05H25.55l.35.2-.15.35" fill="#8e8e8e"/><path d="M25.65 7.5v.05h-.1l.15-.3-.05.25M20.1 17.8h-.05l.05-.1v.1m2.25-4.2h-.05v-.05l.05-.05v.1" fill="#2f3c2b"/><path d="m23.45 9.5.1-.25.1-.05 1.05-.1.05.05h.1l.35.2-.2.3q-.2-.15-.35-.15l-.05-.05h-.05l-1.1.05m-1.65 3.4q.35-.25.85 0l.2.1.3.1-.2.35-.35-.2h-.1.05-.1.05l.15-.35-.2.3h-.1q-.35-.15-.7 0v-.05l.15-.25" fill="#676767"/><path d="m25.3 10.3-.05.05v-.05h.05m-2.05 3.55v.05-.05m-1.6-.65v-.05.05m1.75-3.6.05-.1-.05.1m-1.05 3.9.1-.2v.05l-.1.25v-.1" fill="#714a6c"/><path d="m20.55 15.2.2-.3q.35-.3.9 0h.05l.05.05.3.15-.15.35-.3-.2H21.45v-.05q-.55-.25-.9 0" fill="#aaa"/><path d="m8.65 22.95 3.35.55-.85.25-2.5-.8m9.75-3.7.35-.65h.1l-.45.65" fill="#2d2d2d"/><path d="m17.15 27.65 1.55.4q-1.6.85-3.2 2.3l-1.05 1L12.2 34l-.35.5-1.2 1.7 2.85-5.6 1.5-.9 2.15-2.05" fill="#111a11"/><path d="M5.8 36.05h.05l.1.15.45.4.1.1.4.25.2.15.55-.15q.45-.2.35-.65l-.75-1.2q.15-2.55-3.35-2.45h-.7l-.05-.05.6-.5.8-.65 2.9-2.7.1-.15q1.1-1.3.35-1.55L7.4 27l-.9.1-.7.15-.05.05-.5.1-.4.15H4.8l-1.05.3 3.1-4.8h.05q3.75.65 6.15 2.25l1 .8-.2 3.15-.4.75 3.4-2.75q3.45.3 7.2 3l-.05.05-2.2 5.2-.6-1.4v-.05l-.35-.65-.6-.9q-.95-1.15-1.5.55l-.15.55-.25 1.15-.05.45-.3 3.65-.1.05q-1-1.35-2-1.75l-.75-.2-.7.05q-.65.1-1.25.65l-.95.05-.3.1q-1.05.3-.35 1.2l-.15-.05-.1-.05h-.05v-.05l-.35-.15-.6-.35-.75-.65-.05-.05H9.4l-1.1-.15h-.1l-.6-.15-.8-.35-.45-.35-.4-.45-.15-.15m11.35-8.4L15 29.7l-1.5.9-2.85 5.6 1.2-1.7.35-.5 2.25-2.65 1.05-1q1.6-1.45 3.2-2.3l-1.55-.4" fill="#393940"/><path d="m21.15 37-.2-.65-.65-1.7.55-1.25.35.65v.05l.6 1.4-.65 1.5m-1.25-2.9q-.45-.45-.75.15l-.55-.65.15-.55q.55-1.7 1.5-.55l-.35 1.6m-6.75 4.45v.25l.25.4.95 1.1.45.4-.95.1-2.4-1.85.15.05q-.7-.9.35-1.2l1.2.75m-6.3-.05q-.85-.15-1.55-.65L6.8 37l.8.35-.75 1.15M4.5 37.1l-.45-.5-.4-.6 2.15.05.15.15.4.45-1.85.45m1.65-8.8-.85.15.5-1.2.7-.15.9-.1-1.25 1.3m-1.35.25-1.95.7.9-1.4 1.05-.3h.05l.4-.15-.45 1.15m6.5 10.3v.05-.05" fill="#7d7c87"/><path d="m19.15 34.25-.25.75-.1.2-.45-.45.25-1.15.55.65m-4.3 3.8-.2.1h-.2V37l.7-.05-.3 1.1m-6.9.55-1.1-.1.75-1.15.6.15-.25 1.1M5.3 28.45l-.5.1.45-1.15.5-.1.05-.05-.5 1.2" fill="#c5c5c5"/><path d="M6.45 29.05q.4-.75-.3-.75L7.4 27l.5.05q.75.25-.35 1.55l-.1.15-1 .3" fill="#f5f5f5"/><path d="M18.8 35.2q-.35 1.4-.55 4.4h-.05q-1.7-2.7-3.35-1.55l.3-1.1.75.2q1 .4 2 1.75l.1-.05.3-3.65.05-.45.45.45m-4.35 2.95h-.15q-.85-.05-1.05.25l-1-.7.95-.05q.6-.55 1.25-.65v1.15m-1.8 2.65q-1.1-.1-1.9-.6l-1.05-.95-.35-.55-.15-.25-.2.05-.7.1h-.35l.25-1.1h.1l1.1.15h.15l.05.05.75.65.6.35.35.15v.05l1.35 1.9m-6.8-4.75q1.25-.2.6-1.05l-.5-.5-.1-.75Q5.3 32.5 2.45 33l-.05-.1q3.4-2.8 4.05-3.85l1-.3-2.9 2.7-.8.65-.6.5.05.05h.7q3.5-.1 3.35 2.45L8 36.3q.1.45-.35.65l-.55.15-.2-.15-.4-.25-.1-.1-.45-.4-.1-.15" fill="#67676d"/><path d="m13.25 38.4-.1.15-1.2-.75.3-.1 1 .7" fill="#b6b6b6"/><path d="m20.3 34.65-.1-.2-.3-.35.35-1.6.6.9-.55 1.25m-6.45 6.15h-1.2l-1.35-1.9h.05l.1.05 2.4 1.85M5.3 37.85l-.8-.75 1.85-.45.45.35-1.5.85" fill="#999"/><path d="m21.15 37-.2-.65-.65-1.7-.1-.2-.3-.35q-.45-.45-.75.15l-.25.75-.1.2q-.35 1.4-.55 4.4h-.05q-1.7-2.7-3.35-1.55l-.2.1h-.35q-.85-.05-1.05.25l-.1.15v.25l.25.4.95 1.1.45.4-.95.1h-1.2q-1.1-.1-1.9-.6l-1.05-.95-.35-.55-.15-.25-.2.05-.7.1h-.35l-1.1-.1q-.85-.15-1.55-.65l-.8-.75-.45-.5-.4-.6 2.15.05m.05 0q1.25-.2.6-1.05l-.5-.5-.1-.75Q5.3 32.5 2.45 33l-.05-.1q3.4-2.8 4.05-3.85.4-.75-.3-.75l-.85.15-.5.1-1.95.7" fill="none" stroke="#000" stroke-width=".5"/><path d="m20.5 15.85-.25-.05-.15-.1-.05-.15.2-.1h.15l.35.2.05.2h-.3M22.75 11.85l-.25-.05-.15-.1-.05-.15q.05-.1.2-.1h.15l.35.2.05.2h-.3M23.7 10.05l-.25-.05-.15-.1-.05-.15.2-.1h.15l.35.2.05.2h-.3M26.05 5.75l-.25-.05-.15-.1-.05-.15q.05-.1.2-.1h.15l.35.2.05.2h-.3" fill="#e8ede7"/><path d="M5 31.7q-1.8-.75-2.5-2.35-.7-1.55.1-3 .8-1.5 2.6-2.05l3.6.25q1.8.75 2.5 2.35.7 1.55-.1 3.05-.8 1.45-2.6 2L5 31.7" fill="url(#a)"/></g></defs><use transform="translate(258.05 180.05)" xlink:href="#c"/></svg>