<svg width="130" height="126" viewBox="220.66 145.53 129.69 126.08" xmlns="http://www.w3.org/2000/svg" xmlns:xlink="http://www.w3.org/1999/xlink"><defs><radialGradient id="a" cx="0" cy="0" r="819.2" gradientTransform="matrix(-.01723 -.01723 .01723 -.01723 254.9 236.6)" gradientUnits="userSpaceOnUse"><stop stop-color="#f8fe6d" offset="0"/><stop stop-color="#fca945" offset=".506"/><stop stop-color="#f89587" offset=".78"/><stop stop-color="#fd758a" offset=".988"/></radialGradient><radialGradient id="b" cx="0" cy="0" r="819.2" gradientTransform="matrix(-.0156 -.0156 .0156 -.0156 244.8 247.6)" gradientUnits="userSpaceOnUse"><stop stop-color="#f8fe6d" offset="0"/><stop stop-color="#fca945" offset=".506"/><stop stop-color="#f89587" offset=".78"/><stop stop-color="#fd758a" offset=".988"/></radialGradient><radialGradient id="c" cx="0" cy="0" r="819.2" gradientTransform="rotate(-135.001 174.9 70.25) scale(.01517)" gradientUnits="userSpaceOnUse"><stop stop-color="#a3e2fa" offset=".322"/><stop stop-color="#d2fcf9" offset=".6"/><stop stop-color="#d6fef8" offset="1"/></radialGradient><radialGradient id="d" cx="0" cy="0" r="819.2" gradientTransform="scale(-.02436 .02436) rotate(-45 6305.865 17562.344)" gradientUnits="userSpaceOnUse"><stop stop-color="#f8fe6d" offset="0"/><stop stop-color="#fca945" offset=".506"/><stop stop-color="#f89587" offset=".78"/><stop stop-color="#fd758a" offset=".988"/></radialGradient><radialGradient id="e" cx="0" cy="0" r="819.2" gradientTransform="matrix(-.0156 -.0156 -.0156 .0156 268.55 223.85)" gradientUnits="userSpaceOnUse"><stop stop-color="#f8fe6d" offset="0"/><stop stop-color="#fca945" offset=".506"/><stop stop-color="#f89587" offset=".78"/><stop stop-color="#fd758a" offset=".988"/></radialGradient><radialGradient id="f" cx="0" cy="0" r="819.2" gradientTransform="scale(-.01517 .01517) rotate(-45 9418.751 28563.442)" gradientUnits="userSpaceOnUse"><stop stop-color="#a3e2fa" offset=".322"/><stop stop-color="#d2fcf9" offset=".6"/><stop stop-color="#d6fef8" offset="1"/></radialGradient><radialGradient id="g" cx="0" cy="0" r="819.2" gradientTransform="rotate(135.014 80.733 173.435) scale(.00932)" gradientUnits="userSpaceOnUse"><stop stop-color="#f8fe6d" offset="0"/><stop stop-color="#fca945" offset=".506"/><stop stop-color="#f89587" offset=".78"/><stop stop-color="#fd758a" offset=".988"/></radialGradient><radialGradient id="h" cx="0" cy="0" r="819.2" gradientTransform="matrix(-.00333 -.00275 .00201 -.00243 3.1 -9.2)" gradientUnits="userSpaceOnUse"><stop stop-color="#412f18" offset="0"/><stop stop-color="#b98046" offset=".596"/></radialGradient><radialGradient id="i" cx="0" cy="0" r="819.2" gradientTransform="rotate(-134.98 178.772 68.597) scale(.01265 .0079)" gradientUnits="userSpaceOnUse"><stop stop-color="#f8f468" offset="0"/><stop stop-color="#fbb64b" offset=".486"/><stop stop-color="#f35f3a" offset="1"/></radialGradient><radialGradient id="j" cx="0" cy="0" r="819.2" gradientTransform="matrix(.00233 .01842 -.03781 -.00265 -13.9 -.4)" gradientUnits="userSpaceOnUse"><stop stop-color="#f8fe6d" offset="0"/><stop stop-color="#fca945" offset=".506"/><stop stop-color="#f89587" offset=".78"/><stop stop-color="#fd758a" offset=".988"/></radialGradient><radialGradient id="k" cx="0" cy="0" r="819.2" gradientTransform="matrix(.00212 .01666 -.0342 -.0024 9.3 .75)" gradientUnits="userSpaceOnUse"><stop stop-color="#f8fe6d" offset="0"/><stop stop-color="#fca945" offset=".506"/><stop stop-color="#f89587" offset=".78"/><stop stop-color="#fd758a" offset=".988"/></radialGradient><radialGradient id="l" cx="0" cy="0" r="819.2" gradientTransform="matrix(.00145 .01146 -.02351 -.00165 .3 0)" gradientUnits="userSpaceOnUse"><stop stop-color="#a3e2fa" offset=".322"/><stop stop-color="#d2fcf9" offset=".6"/><stop stop-color="#d6fef8" offset="1"/></radialGradient><radialGradient id="n" cx="0" cy="0" r="819.2" gradientTransform="matrix(-.03241 .02939 -.01105 -.0118 310.35 185.2)" gradientUnits="userSpaceOnUse"><stop stop-color="#f8fe6d" offset="0"/><stop stop-color="#fca945" offset=".506"/><stop stop-color="#f89587" offset=".78"/><stop stop-color="#fd758a" offset=".988"/></radialGradient><radialGradient id="o" cx="0" cy="0" r="819.2" gradientTransform="matrix(-.02931 .02658 -.00998 -.01067 318 191.65)" gradientUnits="userSpaceOnUse"><stop stop-color="#f8fe6d" offset="0"/><stop stop-color="#fca945" offset=".506"/><stop stop-color="#f89587" offset=".78"/><stop stop-color="#fd758a" offset=".988"/></radialGradient><radialGradient id="p" cx="0" cy="0" r="819.2" gradientTransform="matrix(-.02016 .01828 -.00687 -.00734 315.55 188.7)" gradientUnits="userSpaceOnUse"><stop stop-color="#a3e2fa" offset=".322"/><stop stop-color="#d2fcf9" offset=".6"/><stop stop-color="#d6fef8" offset="1"/></radialGradient><radialGradient id="q" cx="0" cy="0" r="819.2" gradientTransform="matrix(-.03241 .02939 .01105 .0118 308.7 183.45)" gradientUnits="userSpaceOnUse"><stop stop-color="#f8fe6d" offset="0"/><stop stop-color="#fca945" offset=".506"/><stop stop-color="#f89587" offset=".78"/><stop stop-color="#fd758a" offset=".988"/></radialGradient><radialGradient id="r" cx="0" cy="0" r="819.2" gradientTransform="matrix(-.02931 .02658 .00998 .01067 302.75 175.4)" gradientUnits="userSpaceOnUse"><stop stop-color="#f8fe6d" offset="0"/><stop stop-color="#fca945" offset=".506"/><stop stop-color="#f89587" offset=".78"/><stop stop-color="#fd758a" offset=".988"/></radialGradient><radialGradient id="s" cx="0" cy="0" r="819.2" gradientTransform="matrix(-.02016 .01828 .00687 .00734 305.5 178.05)" gradientUnits="userSpaceOnUse"><stop stop-color="#a3e2fa" offset=".322"/><stop stop-color="#d2fcf9" offset=".6"/><stop stop-color="#d6fef8" offset="1"/></radialGradient><radialGradient id="t" cx="0" cy="0" r="819.2" gradientTransform="matrix(.00537 .00574 -.00478 .00433 315 179.15)" gradientUnits="userSpaceOnUse"><stop stop-color="#f8fe6d" offset="0"/><stop stop-color="#fca945" offset=".506"/><stop stop-color="#f89587" offset=".78"/><stop stop-color="#fd758a" offset=".988"/></radialGradient><radialGradient id="u" cx="0" cy="0" r="819.2" gradientTransform="matrix(-.03241 .02939 -.00612 -.00653 287.8 205)" gradientUnits="userSpaceOnUse"><stop stop-color="#f8fe6d" offset="0"/><stop stop-color="#fca945" offset=".506"/><stop stop-color="#f89587" offset=".78"/><stop stop-color="#fd758a" offset=".988"/></radialGradient><radialGradient id="v" cx="0" cy="0" r="819.2" gradientTransform="matrix(-.02931 .02658 -.00554 -.0059 292.4 208.25)" gradientUnits="userSpaceOnUse"><stop stop-color="#f8fe6d" offset="0"/><stop stop-color="#fca945" offset=".506"/><stop stop-color="#f89587" offset=".78"/><stop stop-color="#fd758a" offset=".988"/></radialGradient><radialGradient id="w" cx="0" cy="0" r="819.2" gradientTransform="matrix(-.02016 .01828 -.00381 -.00407 291.1 206.55)" gradientUnits="userSpaceOnUse"><stop stop-color="#a3e2fa" offset=".322"/><stop stop-color="#d2fcf9" offset=".6"/><stop stop-color="#d6fef8" offset="1"/></radialGradient><radialGradient id="x" cx="0" cy="0" r="819.2" gradientTransform="matrix(-.03241 .02939 .00612 .00653 286.85 204.05)" gradientUnits="userSpaceOnUse"><stop stop-color="#f8fe6d" offset="0"/><stop stop-color="#fca945" offset=".506"/><stop stop-color="#f89587" offset=".78"/><stop stop-color="#fd758a" offset=".988"/></radialGradient><radialGradient id="y" cx="0" cy="0" r="819.2" gradientTransform="matrix(-.02931 .02658 .00554 .0059 283.95 199.2)" gradientUnits="userSpaceOnUse"><stop stop-color="#f8fe6d" offset="0"/><stop stop-color="#fca945" offset=".506"/><stop stop-color="#f89587" offset=".78"/><stop stop-color="#fd758a" offset=".988"/></radialGradient><radialGradient id="z" cx="0" cy="0" r="819.2" gradientTransform="matrix(-.02016 .01828 .00381 .00407 285.55 200.6)" gradientUnits="userSpaceOnUse"><stop stop-color="#a3e2fa" offset=".322"/><stop stop-color="#d2fcf9" offset=".6"/><stop stop-color="#d6fef8" offset="1"/></radialGradient><radialGradient id="A" cx="0" cy="0" r="819.2" gradientTransform="matrix(.00235 .0025 -.0124 .01125 294.85 197.55)" gradientUnits="userSpaceOnUse"><stop stop-color="#f8fe6d" offset="0"/><stop stop-color="#fca945" offset=".506"/><stop stop-color="#f89587" offset=".78"/><stop stop-color="#fd758a" offset=".988"/></radialGradient><radialGradient id="B" cx="0" cy="0" r="819.2" gradientTransform="matrix(.00537 .00574 -.00478 .00433 287.8 203.75)" gradientUnits="userSpaceOnUse"><stop stop-color="#f8fe6d" offset="0"/><stop stop-color="#fca945" offset=".506"/><stop stop-color="#f89587" offset=".78"/><stop stop-color="#fd758a" offset=".988"/></radialGradient><radialGradient id="C" cx="0" cy="0" r="819.2" gradientTransform="matrix(-.00658 -.00702 .01416 -.01285 311.15 185.7)" gradientUnits="userSpaceOnUse"><stop stop-color="#f8f468" offset="0"/><stop stop-color="#fbb64b" offset=".486"/><stop stop-color="#f35f3a" offset="1"/></radialGradient><radialGradient id="D" cx="0" cy="0" r="819.2" gradientTransform="matrix(.00609 -.00552 .00685 .0073 276.2 213.35)" gradientUnits="userSpaceOnUse"><stop stop-color="#f8fe6d" offset="0"/><stop stop-color="#fca945" offset=".506"/><stop stop-color="#f89587" offset=".78"/><stop stop-color="#fd758a" offset=".988"/></radialGradient><radialGradient id="E" cx="0" cy="0" r="819.2" gradientTransform="matrix(.0055 -.00499 .0062 .0066 271.85 209)" gradientUnits="userSpaceOnUse"><stop stop-color="#f8fe6d" offset="0"/><stop stop-color="#fca945" offset=".506"/><stop stop-color="#f89587" offset=".78"/><stop stop-color="#fd758a" offset=".988"/></radialGradient><radialGradient id="F" cx="0" cy="0" r="819.2" gradientTransform="matrix(.00378 -.00343 .00426 .00455 273.4 210.75)" gradientUnits="userSpaceOnUse"><stop stop-color="#a3e2fa" offset=".322"/><stop stop-color="#d2fcf9" offset=".6"/><stop stop-color="#d6fef8" offset="1"/></radialGradient><radialGradient id="G" cx="0" cy="0" r="819.2" gradientTransform="matrix(.00609 -.00552 -.00685 -.0073 277.25 214.5)" gradientUnits="userSpaceOnUse"><stop stop-color="#f8fe6d" offset="0"/><stop stop-color="#fca945" offset=".506"/><stop stop-color="#f89587" offset=".78"/><stop stop-color="#fd758a" offset=".988"/></radialGradient><radialGradient id="H" cx="0" cy="0" r="819.2" gradientTransform="matrix(.0055 -.00499 -.0062 -.0066 281.3 219.05)" gradientUnits="userSpaceOnUse"><stop stop-color="#f8fe6d" offset="0"/><stop stop-color="#fca945" offset=".506"/><stop stop-color="#f89587" offset=".78"/><stop stop-color="#fd758a" offset=".988"/></radialGradient><radialGradient id="I" cx="0" cy="0" r="819.2" gradientTransform="matrix(.00378 -.00343 -.00426 -.00455 279.6 217.4)" gradientUnits="userSpaceOnUse"><stop stop-color="#a3e2fa" offset=".322"/><stop stop-color="#d2fcf9" offset=".6"/><stop stop-color="#d6fef8" offset="1"/></radialGradient><radialGradient id="J" cx="0" cy="0" r="819.2" gradientTransform="matrix(-.00262 -.0028 .00233 -.0021 275.3 215.2)" gradientUnits="userSpaceOnUse"><stop stop-color="#f8fe6d" offset="0"/><stop stop-color="#fca945" offset=".506"/><stop stop-color="#f89587" offset=".78"/><stop stop-color="#fd758a" offset=".988"/></radialGradient><radialGradient id="K" cx="0" cy="0" r="819.2" gradientTransform="matrix(-.00552 .00609 .0073 .00685 273.9 215.75)" gradientUnits="userSpaceOnUse"><stop stop-color="#f8fe6d" offset="0"/><stop stop-color="#fca945" offset=".506"/><stop stop-color="#f89587" offset=".78"/><stop stop-color="#fd758a" offset=".988"/></radialGradient><radialGradient id="L" cx="0" cy="0" r="819.2" gradientTransform="matrix(-.00499 .0055 .0066 .0062 269.55 211.4)" gradientUnits="userSpaceOnUse"><stop stop-color="#f8fe6d" offset="0"/><stop stop-color="#fca945" offset=".506"/><stop stop-color="#f89587" offset=".78"/><stop stop-color="#fd758a" offset=".988"/></radialGradient><radialGradient id="M" cx="0" cy="0" r="819.2" gradientTransform="matrix(-.00343 .00378 .00455 .00426 271.3 212.95)" gradientUnits="userSpaceOnUse"><stop stop-color="#a3e2fa" offset=".322"/><stop stop-color="#d2fcf9" offset=".6"/><stop stop-color="#d6fef8" offset="1"/></radialGradient><radialGradient id="N" cx="0" cy="0" r="819.2" gradientTransform="matrix(-.00552 .00609 -.0073 -.00685 275.05 216.8)" gradientUnits="userSpaceOnUse"><stop stop-color="#f8fe6d" offset="0"/><stop stop-color="#fca945" offset=".506"/><stop stop-color="#f89587" offset=".78"/><stop stop-color="#fd758a" offset=".988"/></radialGradient><radialGradient id="O" cx="0" cy="0" r="819.2" gradientTransform="matrix(-.00499 .0055 -.0066 -.0062 279.6 220.85)" gradientUnits="userSpaceOnUse"><stop stop-color="#f8fe6d" offset="0"/><stop stop-color="#fca945" offset=".506"/><stop stop-color="#f89587" offset=".78"/><stop stop-color="#fd758a" offset=".988"/></radialGradient><radialGradient id="P" cx="0" cy="0" r="819.2" gradientTransform="matrix(-.00343 .00378 -.00455 -.00426 277.95 219.15)" gradientUnits="userSpaceOnUse"><stop stop-color="#a3e2fa" offset=".322"/><stop stop-color="#d2fcf9" offset=".6"/><stop stop-color="#d6fef8" offset="1"/></radialGradient><radialGradient id="Q" cx="0" cy="0" r="819.2" gradientTransform="matrix(-.0028 -.00262 -.0021 .00233 275.8 215)" gradientUnits="userSpaceOnUse"><stop stop-color="#f8fe6d" offset="0"/><stop stop-color="#fca945" offset=".506"/><stop stop-color="#f89587" offset=".78"/><stop stop-color="#fd758a" offset=".988"/></radialGradient><radialGradient id="R" cx="0" cy="0" r="819.2" gradientTransform="matrix(.0156 .0156 -.0156 .0156 305.95 184.5)" gradientUnits="userSpaceOnUse"><stop stop-color="#f8f468" offset="0"/><stop stop-color="#fbb64b" offset=".486"/><stop stop-color="#f35f3a" offset="1"/></radialGradient><radialGradient id="S" cx="0" cy="0" r="819.2" gradientTransform="matrix(-.01723 -.01723 .01723 -.01723 294.9 203.6)" gradientUnits="userSpaceOnUse"><stop stop-color="#f8fe6d" offset="0"/><stop stop-color="#fca945" offset=".506"/><stop stop-color="#f89587" offset=".78"/><stop stop-color="#fd758a" offset=".988"/></radialGradient><radialGradient id="T" cx="0" cy="0" r="819.2" gradientTransform="matrix(-.0156 -.0156 .0156 -.0156 284.8 214.6)" gradientUnits="userSpaceOnUse"><stop stop-color="#f8fe6d" offset="0"/><stop stop-color="#fca945" offset=".506"/><stop stop-color="#f89587" offset=".78"/><stop stop-color="#fd758a" offset=".988"/></radialGradient><radialGradient id="U" cx="0" cy="0" r="819.2" gradientTransform="rotate(-135.001 188.065 45.466) scale(.01517)" gradientUnits="userSpaceOnUse"><stop stop-color="#a3e2fa" offset=".322"/><stop stop-color="#d2fcf9" offset=".6"/><stop stop-color="#d6fef8" offset="1"/></radialGradient><radialGradient id="V" cx="0" cy="0" r="819.2" gradientTransform="scale(-.02436 .02436) rotate(-45 3849.872 18866.974)" gradientUnits="userSpaceOnUse"><stop stop-color="#f8fe6d" offset="0"/><stop stop-color="#fca945" offset=".506"/><stop stop-color="#f89587" offset=".78"/><stop stop-color="#fd758a" offset=".988"/></radialGradient><radialGradient id="W" cx="0" cy="0" r="819.2" gradientTransform="matrix(-.0156 -.0156 -.0156 .0156 308.55 190.85)" gradientUnits="userSpaceOnUse"><stop stop-color="#f8fe6d" offset="0"/><stop stop-color="#fca945" offset=".506"/><stop stop-color="#f89587" offset=".78"/><stop stop-color="#fd758a" offset=".988"/></radialGradient><radialGradient id="X" cx="0" cy="0" r="819.2" gradientTransform="scale(-.01517 .01517) rotate(-45 5474.555 30658.61)" gradientUnits="userSpaceOnUse"><stop stop-color="#a3e2fa" offset=".322"/><stop stop-color="#d2fcf9" offset=".6"/><stop stop-color="#d6fef8" offset="1"/></radialGradient><radialGradient id="Y" cx="0" cy="0" r="819.2" gradientTransform="rotate(135.014 107.58 165.257) scale(.00932)" gradientUnits="userSpaceOnUse"><stop stop-color="#f8fe6d" offset="0"/><stop stop-color="#fca945" offset=".506"/><stop stop-color="#f89587" offset=".78"/><stop stop-color="#fd758a" offset=".988"/></radialGradient><radialGradient id="Z" cx="0" cy="0" r="819.2" gradientTransform="matrix(-.01257 .02179 .02179 .01257 296.8 200.75)" gradientUnits="userSpaceOnUse"><stop stop-color="#f8fe6d" offset="0"/><stop stop-color="#fca945" offset=".506"/><stop stop-color="#f89587" offset=".78"/><stop stop-color="#fd758a" offset=".988"/></radialGradient><radialGradient id="aa" cx="0" cy="0" r="819.2" gradientTransform="matrix(-.01137 .0197 .0197 .01137 283.8 192.45)" gradientUnits="userSpaceOnUse"><stop stop-color="#f8fe6d" offset="0"/><stop stop-color="#fca945" offset=".506"/><stop stop-color="#f89587" offset=".78"/><stop stop-color="#fd758a" offset=".988"/></radialGradient><radialGradient id="ab" cx="0" cy="0" r="819.2" gradientTransform="matrix(-.00783 .01355 .01355 .00783 289 195.35)" gradientUnits="userSpaceOnUse"><stop stop-color="#a3e2fa" offset=".322"/><stop stop-color="#d2fcf9" offset=".6"/><stop stop-color="#d6fef8" offset="1"/></radialGradient><radialGradient id="ac" cx="0" cy="0" r="819.2" gradientTransform="matrix(-.0078 .0078 .0078 .0078 280.65 211)" gradientUnits="userSpaceOnUse"><stop stop-color="#f8fe6d" offset="0"/><stop stop-color="#fca945" offset=".506"/><stop stop-color="#f89587" offset=".78"/><stop stop-color="#fd758a" offset=".988"/></radialGradient><radialGradient id="ad" cx="0" cy="0" r="819.2" gradientTransform="matrix(-.00705 .00705 .00705 .00705 276.05 206)" gradientUnits="userSpaceOnUse"><stop stop-color="#f8fe6d" offset="0"/><stop stop-color="#fca945" offset=".506"/><stop stop-color="#f89587" offset=".78"/><stop stop-color="#fd758a" offset=".988"/></radialGradient><radialGradient id="ae" cx="0" cy="0" r="819.2" gradientTransform="matrix(-.00485 .00485 .00485 .00485 277.9 207.85)" gradientUnits="userSpaceOnUse"><stop stop-color="#a3e2fa" offset=".322"/><stop stop-color="#d2fcf9" offset=".6"/><stop stop-color="#d6fef8" offset="1"/></radialGradient><radialGradient id="af" cx="0" cy="0" r="819.2" gradientTransform="matrix(-.05425 0 0 .03388 -1.8 -1.8)" gradientUnits="userSpaceOnUse"><stop stop-color="#f8f468" offset="0"/><stop stop-color="#fbb64b" offset=".486"/><stop stop-color="#f35f3a" offset="1"/></radialGradient><radialGradient id="ag" cx="0" cy="0" r="819.2" gradientTransform="matrix(-.042 0 0 .02623 .55 17.7)" gradientUnits="userSpaceOnUse"><stop stop-color="#f8f468" offset="0"/><stop stop-color="#fbb64b" offset=".486"/><stop stop-color="#f35f3a" offset="1"/></radialGradient><radialGradient id="ah" cx="0" cy="0" r="819.2" gradientTransform="matrix(-.02838 0 0 .01773 -2.55 -7.1)" gradientUnits="userSpaceOnUse"><stop stop-color="#f8f468" offset="0"/><stop stop-color="#fbb64b" offset=".486"/><stop stop-color="#f35f3a" offset="1"/></radialGradient><radialGradient id="ai" cx="0" cy="0" r="819.2" gradientTransform="matrix(.02242 .00012 -.0002 .01375 245.1 242.35)" gradientUnits="userSpaceOnUse"><stop stop-color="#fff" offset="0"/><stop stop-color="#fff" stop-opacity="0" offset="1"/></radialGradient><radialGradient id="aj" cx="0" cy="0" r="819.2" gradientTransform="rotate(45.001 -124.469 446.348) scale(.04767)" gradientUnits="userSpaceOnUse"><stop stop-color="#f8f468" offset="0"/><stop stop-color="#fbb64b" offset=".486"/><stop stop-color="#f35f3a" offset="1"/></radialGradient><radialGradient id="ak" cx="0" cy="0" r="819.2" gradientTransform="rotate(44.998 -156.585 430.134) scale(.0369)" gradientUnits="userSpaceOnUse"><stop stop-color="#f8f468" offset="0"/><stop stop-color="#fbb64b" offset=".486"/><stop stop-color="#f35f3a" offset="1"/></radialGradient><radialGradient id="al" cx="0" cy="0" r="819.2" gradientTransform="matrix(.01764 .01764 -.01764 .01764 284.95 213.95)" gradientUnits="userSpaceOnUse"><stop stop-color="#f8f468" offset="0"/><stop stop-color="#fbb64b" offset=".486"/><stop stop-color="#f35f3a" offset="1"/></radialGradient><radialGradient id="am" cx="0" cy="0" r="819.2" gradientTransform="rotate(134.973 105.136 156.85) scale(.00421)" gradientUnits="userSpaceOnUse"><stop stop-color="#f8fe6d" offset="0"/><stop stop-color="#fca945" offset=".506"/><stop stop-color="#f89587" offset=".78"/><stop stop-color="#fd758a" offset=".988"/></radialGradient><radialGradient id="an" cx="0" cy="0" r="819.2" gradientTransform="rotate(-44.992 412.278 -194.905) scale(.01232)" gradientUnits="userSpaceOnUse"><stop stop-color="#f8fe6d" offset="0"/><stop stop-color="#fca945" offset=".506"/><stop stop-color="#f89587" offset=".78"/><stop stop-color="#fd758a" offset=".988"/></radialGradient><radialGradient id="ao" cx="0" cy="0" r="819.2" gradientTransform="matrix(.00787 -.00787 .00787 .00787 253 229.35)" gradientUnits="userSpaceOnUse"><stop stop-color="#f8fe6d" offset="0"/><stop stop-color="#fca945" offset=".506"/><stop stop-color="#f89587" offset=".78"/><stop stop-color="#fd758a" offset=".988"/></radialGradient><radialGradient id="ap" cx="0" cy="0" r="819.2" gradientTransform="rotate(-44.995 406.933 -192.156) scale(.00766)" gradientUnits="userSpaceOnUse"><stop stop-color="#a3e2fa" offset=".322"/><stop stop-color="#d2fcf9" offset=".6"/><stop stop-color="#d6fef8" offset="1"/></radialGradient><radialGradient id="aq" cx="0" cy="0" r="819.2" gradientTransform="matrix(.00871 -.00871 -.00871 -.00871 259.9 235.85)" gradientUnits="userSpaceOnUse"><stop stop-color="#f8fe6d" offset="0"/><stop stop-color="#fca945" offset=".506"/><stop stop-color="#f89587" offset=".78"/><stop stop-color="#fd758a" offset=".988"/></radialGradient><radialGradient id="ar" cx="0" cy="0" r="819.2" gradientTransform="matrix(.00787 -.00787 -.00787 -.00787 265.05 241.4)" gradientUnits="userSpaceOnUse"><stop stop-color="#f8fe6d" offset="0"/><stop stop-color="#fca945" offset=".506"/><stop stop-color="#f89587" offset=".78"/><stop stop-color="#fd758a" offset=".988"/></radialGradient><radialGradient id="as" cx="0" cy="0" r="819.2" gradientTransform="scale(.00766 -.00766) rotate(45 54874.04 25803.722)" gradientUnits="userSpaceOnUse"><stop stop-color="#a3e2fa" offset=".322"/><stop stop-color="#d2fcf9" offset=".6"/><stop stop-color="#d6fef8" offset="1"/></radialGradient><radialGradient id="at" cx="0" cy="0" r="819.2" gradientTransform="matrix(-.00333 -.00333 .00333 -.00333 257.3 237.3)" gradientUnits="userSpaceOnUse"><stop stop-color="#f8fe6d" offset="0"/><stop stop-color="#fca945" offset=".506"/><stop stop-color="#f89587" offset=".78"/><stop stop-color="#fd758a" offset=".988"/></radialGradient><g id="au"><path d="M240.6 250.3h-.2l-.2-.2 2.75-3.05q1.9-2.9 2.9-7 .55-2.25 2.9-2.6l2.35-.25.15.05-.15-.05q-4.8-.9-9.3.5 7.05-6.75 13.85-2.45l2.4 1.9-1 .3-6.45 1.35q-1.4.3-2.15 1.35-1.1 1.6-1.45 3.75-.6 3.2-3.5 5.1-1.35.85-2.9 1.3" fill="url(#a)"/><path d="m255.7 249.8-.25-6.15-.2-1.8q-2.95 9.95-14.65 8.45 1.55-.45 2.9-1.3 2.9-1.9 3.5-5.1.35-2.15 1.45-3.75.75-1.05 2.15-1.35l6.45-1.35 1-.3 1.1 1.1.9 1.2v.9l-.75 1.95q-.6 4.8-3.6 7.5" fill="url(#b)"/><path d="m255.7 249.8-.15.15.15-.15" fill="url(#c)"/><path d="m258.05 237.15 1.1 1.1.9 1.2v.9l-.75 1.95q-.6 4.8-3.6 7.5M255.7 249.8l-.25-6.15-.2-1.8q-2.95 9.95-14.65 8.45" fill="none" stroke="#faf29c" stroke-width=".5"/><path d="m258.1 237.1-1.9-2.4q-4.3-6.8 2.45-13.85-1.4 4.5-.5 9.3l.05.15-.05-.15.05-.05.2-2.3q.35-2.35 2.6-2.9 4.1-1 6.95-2.85 1.8-1.2 3.1-2.8l.2.2v.2q-.45 1.55-1.3 2.9-1.9 2.9-5.05 3.45-2.2.4-3.8 1.5-1.05.75-1.35 2.15l-1.35 6.45-.3 1" fill="url(#d)"/><path d="M270.75 234.75q-2.7 3-7.5 3.6l-1.95.75h-.9q-.45-.15-1.2-.9l-1.1-1.1.3-1 1.35-6.45q.3-1.4 1.35-2.15 1.6-1.1 3.8-1.5 3.15-.55 5.05-3.45.85-1.35 1.3-2.9 1.5 11.7-8.45 14.65l1.85.15 6.1.3" fill="url(#e)"/><path d="m270.75 234.75.15-.15-.15.15" fill="url(#f)"/><path d="M270.75 234.75q-2.7 3-7.5 3.6l-1.95.75h-.9q-.45-.15-1.2-.9l-1.1-1.1" fill="none" stroke="#faf29c" stroke-width=".5"/><path d="M271.25 219.65q1.5 11.7-8.45 14.65l1.85.15 6.1.3" fill="none" stroke="#faf29c" stroke-width=".5"/><path d="M255.5 236.8q-.9-2.1-.1-2.9l2.95.05q2 .9 4.15 3.05 2.1 2.1 3.05 4.15.85 2.1 0 2.95l-2.85-.1q-2.1-.9-4.2-3-2.15-2.15-3-4.2" fill="url(#g)"/><path d="M255.5 236.8q-.9-2.1-.1-2.9l2.95.05q2 .9 4.15 3.05 2.1 2.1 3.05 4.15.85 2.1 0 2.95l-2.85-.1q-2.1-.9-4.2-3-2.15-2.15-3-4.2" fill="none" stroke="#faf29c" stroke-width=".5"/></g><g id="aw"><path d="M5.6-8.1h.05L16.3-6.3-3.1 18.6h-12.15v-.2L5.6-8.1" fill="#b8b5a0"/><path d="M5.65-8.1H5.6l-1.1-.2-1-.8-.65-.9.45-.05.6.15.85.45.05.05.65.75.2.55" fill="url(#h)"/><path d="m5.6-8.1-20.85 26.5-.05-.3L3.6-8.95l.4.6.5.05 1.1.2" fill="#8c876c"/><path d="m2.85-10 .65.9.1.15-18.9 27.05v-.4L2.05-11.2l.8 1.2" fill="#edebe7"/><path d="M2.05-11.2-15.3 17.7l-.1-1.3-.95-12.7.55-.8L2.05-23v11.8" fill="#c8c5b7"/><path d="M5.65-8.1H5.6l-20.85 26.5v.2M16.3-6.3 5.65-8.1M2.85-10l.65.9.5.75.5.05 1.1.2M2.85-10l-.8-1.2-17.35 28.9v.4L3.6-8.95M-15.8 2.9 2.05-23v11.8M-15.3 17.7l-.1-1.3m.15 2-.05-.3" fill="none" stroke="#bbcab9" stroke-width=".5"/><path d="m5.65-8.1-.2-.55M3.9-9.9l-.6-.15-.45.05M8.8-8.6l-2.15.05" fill="none" stroke="#000" stroke-opacity=".251" stroke-width=".5"/><path d="m10.1-9.6-3.5.1" fill="none" stroke="#e1cbb5" stroke-width=".5"/><path d="m-15.4 16.4-.95-12.7.55-.8" fill="none" stroke="#fff" stroke-width=".5"/><path d="M-15.25 18.6H-3.1L16.3-6.3" fill="none" stroke="#666" stroke-width=".5"/></g><g id="ax"><path d="M251.2 239.1q-.5-2.1.65-3.25t3.3-.7q2.1.5 3.95 2.35t2.35 3.95q.45 2.15-.7 3.3t-3.25.65-3.95-2.35-2.35-3.95m4 3.9q.65.55 1.15.15l.05-.45q-.45-.75-1.15-.85-.65.15-.3.9l.25.25m3.1-.1-.05-.15q3.6.8 1.85-2.65-1-2-2.65-2.65.3 1.1 1 2.4l.65 1.45-1.1-.2-.7-.1q.2.8.8 1.6l.2.3" fill="url(#i)"/><path d="m258.3 242.9-.2-.3q-.6-.8-.8-1.6l.7.1 1.1.2-.65-1.45q-.7-1.3-1-2.4 1.65.65 2.65 2.65 1.75 3.45-1.85 2.65l.05.15m-3.1.1-.25-.25q-.35-.75.3-.9.7.1 1.15.85l-.05.45q-.5.4-1.15-.15" fill="#fdfdbd"/><path d="M251.2 239.1q-.5-2.1.65-3.25t3.3-.7q2.1.5 3.95 2.35t2.35 3.95q.45 2.15-.7 3.3t-3.25.65-3.95-2.35-2.35-3.95" fill="none" stroke="#f3653b" stroke-opacity=".361" stroke-width=".5"/></g><g id="m"><path d="M-16.95-2.6q.2 1.3.9 2.35 3.4 6.1 18.55 7.35-6.65-2.15-11.3-5.45l-.15-.1.15.1h.05q1.2.65 2.9 1.3 3.2 1.25 6.05.6 5.4-1.25 10.55-1.4l6.45.3-.05-.25-.2-.1-4.7-1.2q-5.45-.9-9.3.2l-5.6.8-3.9-.7-8.9-3.3-1.5-.5" fill="url(#j)"/><path d="M-1.2-6.95q-6.25-.6-11.95 1.2L-16-5.3l-.95.4q-.25.3-.15 1.1l.15 1.1v.1l1.5.5 8.9 3.3 3.9.7 5.6-.8Q6.8 0 12.25.9l4.7 1.2Q4.85-5.75-8.9-3.05l1.75-.85Q-4.2-5.6-1.2-6.95" fill="url(#k)"/><path d="M-1.2-6.95h.3-.3" fill="url(#l)"/><path d="M-1.2-6.95q-6.25-.6-11.95 1.2L-16-5.3l-.95.4q-.25.3-.15 1.1l.15 1.1v.1M16.95 2.1Q4.85-5.75-8.9-3.05l1.75-.85Q-4.2-5.6-1.2-6.95" fill="none" stroke="#faf29c" stroke-width=".5"/></g><g id="az"><path d="m317.75 182.6.4.4q-3.3 1.05-5.8 2.75l-.45.45-.2.15q-.9-2.25.55-2.2.4 0 .1-.5l.3.1h.1l.1-.1-.3-.5-.05-.2q-.05-.1.05-.05l.3.15.5.1-.2-.8 1.6.7v-.25l-.3-.55q-.3-.65.05-.55l.55.4.65.6 1 .75-.5-1.15q-.65-1.15-.3-1.25.15 0 .3.15l1.55 1.4m-17.2 3.3.55-.25q2.9-1 5.15-2.75l1.25 1.5-2.2-.3.35.65q.05 1.3-1.2 1.3l-.75.2.4.7.35.5q-.8.3-2.95-1.1l-.55-.3-.3-.1-.1-.05m9.75-7.9.15-.45.2-.25.65-1.6.4.45v.15l.45.7.2.45-.05.05q-.1.05-.05.3l.65.8q-.85-.2-2.15-.9l.15.25.4.45.3.35-.5-.15-.8-.6" fill="#fac251"/><path d="m317.75 182.6-1.55-1.4q-.15-.15-.3-.15-.35.1.3 1.25l.5 1.15-1-.75-.65-.6-.55-.4q-.35-.1-.05.55l.3.55v.25l-1.6-.7.2.8-.5-.1-.3-.15q-.1-.05-.05.05l.05.2.3.5-.1.1h-.1l-.3-.1q.3.5-.1.5-1.45-.05-.55 2.2l-.1.1-1.75-1.25-.2-.05.75 1.05.15.35q.15.7-.8.2l-.3-.1q.3 1.1-.55.75-1.05-.35-1.35.3l-.25.55q-.2.25.4 1.2l-.45.4.15.4.05.25-.1-.05h-.15l-.6-.4.2.35.1.3-.95-.05q-.55-.3.25.45l.2.2.2.5v.15q-1.1-.55-1.4-.25l-3.85-4.1.35-.25-1.3-1.45.1.05h.15l.3.1.55.3q2.15 1.4 2.95 1.1l-.35-.5-.4-.7.75-.2q1.25 0 1.2-1.3l-.35-.65 2.2.3-1.25-1.5.9-.8q2.4 1.45 1.65-.5l.55.25q-.25-1 0-1.5l.35-1q1.5.9 1.9.45l-.6-.85-.7-.95.8.6.5.15-.3-.35-.4-.45-.15-.25q1.3.7 2.15.9l-.65-.8q-.05-.25.05-.3l.05-.05-.2-.45-.45-.7v-.15l6.05 6.45" fill="#d58080"/><path d="M311.6 186.45q-3.35 2.65-4.85 6.9l-1.55-1.65q.3-.3 1.4.25v-.15l-.2-.5-.2-.2q-.8-.75-.25-.45l.95.05-.1-.3-.2-.35.6.4h.15l.1.05-.05-.25-.15-.4.45-.4q-.6-.95-.4-1.2l.25-.55q.3-.65 1.35-.3.85.35.55-.75l.3.1q.95.5.8-.2l-.15-.35-.75-1.05.2.05 1.75 1.25m-10.25 1.15-1.45-1.55.4-.05.1-.1 1.3 1.45-.35.25m-.85-1.65.05-.05.1.05h-.15m6.65-3.85q1.8-1.8 3.15-4.1l.7.95.6.85q-.4.45-1.9-.45l-.35 1q-.25.5 0 1.5l-.55-.25q.75 1.95-1.65.5" fill="#f8f86a"/><path d="m311.7 186.35.2-.15.45-.45q2.5-1.7 5.8-2.75l-.4-.4m-6.15 3.85q-3.35 2.65-4.85 6.9l-1.55-1.65m-3.85-4.1-1.45-1.55.4-.05.1-.1m.15 0 .55-.25q2.9-1 5.15-2.75m.9-.8q1.8-1.8 3.15-4.1l.15-.45.2-.25.65-1.6.4.45 6.05 6.45m-7.45-4.6.7.95.6.85q-.4.45-1.9-.45l-.35 1q-.25.5 0 1.5l-.55-.25q.75 1.95-1.65.5" fill="none" stroke="#d58080" stroke-width=".5"/><path d="m298.85 188.2.2-.4.15-.25.7-1.6.45.4-.05.2.4.7.3.45-.1.05q-.1 0-.05.25l.6.85-2.15-.85.15.2.45.45.3.4-.45-.2-.9-.65m7.5 4.6.4.45q-3.3 1-5.75 2.7l-.55.4-.2.15q-.85-2.2.55-2.15.4 0 .15-.5l.3.15.05.05.15-.1-.3-.55-.1-.2.05-.1.3.15.5.1-.2-.75 1.65.65-.05-.2-.3-.55q-.3-.65.1-.6l.55.45.7.55.9.8-.45-1.2q-.7-1.15-.35-1.2l.25.15 1.65 1.35m-6.2 3.8q-3.35 2.7-4.85 7.05l-1.6-1.7q.4-.35 1.45.2V202l-.2-.45-.2-.25q-.8-.75-.2-.45l1 .05-.2-.25-.2-.35.65.35.1.05h.1v-.2l-.2-.4.45-.45q-.55-.9-.4-1.2l.25-.5q.3-.65 1.35-.3.85.3.55-.75l.3.15q1 .4.85-.2l-.2-.4-.7-1.1.15.1 1.75 1.15m-10.3 1.2-1.4-1.45.35-.15.15-.05 1.35 1.45-.45.2m-.7-1.7.5-.2q2.9-1.05 5.1-2.85l1.3 1.6-2.15-.3.35.65q0 1.3-1.2 1.3l-.75.2.4.7.35.45q-.8.3-2.95-1.05l-.55-.3-.3-.15h-.05l-.05-.05m6.5-3.85q1.9-1.7 3.2-4l.75.9.6.85q-.4.45-1.95-.4l-.3.95q-.3.5-.05 1.55l-.5-.2q.65 1.85-1.75.35" fill="#fac251"/><path d="m300.35 186.35 6 6.45-1.65-1.35-.25-.15q-.35.05.35 1.2l.45 1.2-.9-.8-.7-.55-.55-.45q-.4-.05-.1.6l.3.55.05.2-1.65-.65.2.75-.5-.1-.3-.15-.05.1.1.2.3.55-.15.1-.05-.05-.3-.15q.25.5-.15.5-1.4-.05-.55 2.15l-.1.1-1.75-1.15-.15-.1.7 1.1.2.4q.15.6-.85.2l-.3-.15q.3 1.05-.55.75-1.05-.35-1.35.3l-.25.5q-.15.3.4 1.2l-.45.45.2.4v.2h-.1l-.1-.05-.65-.35.2.35.2.25-1-.05q-.6-.3.2.45l.2.25.2.45v.15q-1.05-.55-1.45-.2l-3.85-4.15.45-.2-1.35-1.45.15-.05.1.05h.05l.3.15.55.3q2.15 1.35 2.95 1.05l-.35-.45-.4-.7.75-.2q1.2 0 1.2-1.3l-.35-.65 2.15.3-1.3-1.6.9-.8q2.4 1.5 1.75-.35l.5.2q-.25-1.05.05-1.55l.3-.95q1.55.85 1.95.4l-.6-.85-.75-.9v-.05l.9.65.45.2-.3-.4-.45-.45-.15-.2 2.15.85-.6-.85q-.05-.25.05-.25l.1-.05-.3-.45-.4-.7.05-.2" fill="#d58080"/><path d="M289.1 196.1h.05l.05.05-.1-.05" fill="#f8f86a"/><path d="m298.85 188.2.2-.4.15-.25.7-1.6.45.4 6 6.45.4.45q-3.3 1-5.75 2.7l-.55.4-.2.15m-.1.1q-3.35 2.7-4.85 7.05l-1.6-1.7m-3.85-4.15-1.4-1.45.35-.15.15-.05m.2-.05.5-.2q2.9-1.05 5.1-2.85m.9-.8q1.9-1.7 3.2-4l.75.9.6.85q-.4.45-1.95-.4l-.3.95q-.3.5-.05 1.55l-.5-.2q.65 1.85-1.75.35" fill="none" stroke="#d58080" stroke-width=".5"/><path d="m313.1 181.1-.35 1.15-2.2 6.9q-.5 1.55.4 1.9l3.8-.15q3.6-.95 4.2 1.55.25 1.2-.1 2.8l-.2.25-.35.35q-.65-1.2-2.15-1.7-2.45-.8-7 .1-2.45.45-1.5-2.15l1.15-2.65.15-.2-.15.2q-4.05 6.1-5.15 10.8-4.1-5 5.5-15.25 1.75-1.9 3.95-3.9" fill="url(#n)"/><path d="m313.1 181.1.1-.1 2-1.8 2.05-1.65 1.1-.5 2.05-.1q5.7-1.7 7.2.45l-8 3.55-2.3 1.1q10.7-1.55 1.55 13.2.35-1.6.1-2.8-.6-2.5-4.2-1.55l-3.8.15q-.9-.35-.4-1.9l2.2-6.9.35-1.15" fill="url(#o)"/><path d="m327.6 177.4.1.1-.1-.1" fill="url(#p)"/><path d="M327.6 177.4q-1.5-2.15-7.2-.45l-2.05.1-1.1.5-2.05 1.65-2 1.8-.1.1M318.85 195.25q9.15-14.75-1.55-13.2l2.3-1.1 8-3.55" fill="none" stroke="#faf29c" stroke-width=".5"/><path d="m313.05 181.05-4.25 3.55q-11.2 8.6-15.9 4.15 4.8-.65 11.35-4.15l.25-.1-.25.1-2.75.95q-2.75.7-2.05-1.65 1.3-4.4.7-6.85-.45-1.55-1.6-2.3l.35-.35.3-.1 2.8.05q2.5.85 1.3 4.3-.9 2.4-.5 3.75.3.85 1.9.5l7.2-1.6 1.15-.25" fill="url(#q)"/><path d="M317.95 167.15q2.1 1.65-.1 7.15l-.25 1.9-.6 1.1-1.85 1.85-2 1.8-.1.1-1.15.25-7.2 1.6q-1.6.35-1.9-.5-.4-1.35.5-3.75 1.2-3.45-1.3-4.3l-2.8-.05q15.65-7.8 13.25 2.6l1.3-2.25 4.2-7.5" fill="url(#r)"/><path d="m317.95 167.15-.1-.1.1.1" fill="url(#s)"/><path d="M317.95 167.15q2.1 1.65-.1 7.15l-.25 1.9-.6 1.1-1.85 1.85-2 1.8-.1.1M299.2 174.3q15.65-7.8 13.25 2.6l1.3-2.25 4.2-7.5" fill="none" stroke="#faf29c" stroke-width=".5"/><path d="M313.55 182.7q-1.55.5-2.25-.2-.65-.75-.1-2.25.6-1.5 2.15-2.85 1.5-1.4 3.1-1.9 1.55-.45 2.2.3.7.7.15 2.15-.65 1.55-2.15 2.95-1.55 1.35-3.1 1.8" fill="url(#t)"/><path d="M313.55 182.7q-1.55.5-2.25-.2-.65-.75-.1-2.25.6-1.5 2.15-2.85 1.5-1.4 3.1-1.9 1.55-.45 2.2.3.7.7.15 2.15-.65 1.55-2.15 2.95-1.55 1.35-3.1 1.8" fill="none" stroke="#faf29c" stroke-width=".5"/><path d="m290.55 207.3.4.4q-3.3 1.05-5.8 2.75l-.45.45-.2.15q-.9-2.25.55-2.2.4 0 .1-.5l.3.1h.1l.1-.1-.3-.5-.05-.2q-.05-.1.05-.05l.3.15.5.1-.2-.8 1.6.7v-.25l-.3-.55q-.3-.65.05-.55l.55.4.65.6 1 .75-.5-1.15q-.65-1.15-.3-1.25.15 0 .3.15l1.55 1.4m-17.2 3.3.55-.25q2.9-1 5.15-2.75l1.25 1.5-2.2-.3.35.65q.05 1.3-1.2 1.3l-.75.2.4.7.35.5q-.8.3-2.95-1.1l-.55-.3-.3-.1-.1-.05m9.75-7.9.15-.45.2-.25.65-1.6.4.45v.15l.45.7.2.45-.05.05q-.1.05-.05.3l.65.8-2.15-.9.15.25.4.45.3.35-.5-.15-.8-.6" fill="#fac251"/><path d="m290.55 207.3-1.55-1.4q-.15-.15-.3-.15-.35.1.3 1.25l.5 1.15-1-.75-.65-.6-.55-.4q-.35-.1-.05.55l.3.55v.25l-1.6-.7.2.8-.5-.1-.3-.15q-.1-.05-.05.05l.05.2.3.5-.1.1h-.1l-.3-.1q.3.5-.1.5-1.45-.05-.55 2.2l-.1.1-1.75-1.25-.2-.05.75 1.05.15.35q.15.7-.8.2l-.3-.1q.3 1.1-.55.75-1.05-.35-1.35.3l-.25.55q-.2.25.4 1.2l-.45.4.15.4.05.25-.1-.05H280l-.6-.4.2.35.1.3-.95-.05q-.55-.3.25.45l.2.2.2.5v.15q-1.1-.55-1.4-.25l-3.85-4.1.35-.25-1.3-1.45.1.05h.15l.3.1.55.3q2.15 1.4 2.95 1.1l-.35-.5-.4-.7.75-.2q1.25 0 1.2-1.3l-.35-.65 2.2.3-1.25-1.5.9-.8q2.4 1.45 1.65-.5l.55.25q-.25-1 0-1.5l.35-1q1.5.9 1.9.45l-.6-.85-.7-.95.8.6.5.15-.3-.35-.4-.45-.15-.25 2.15.9-.65-.8q-.05-.25.05-.3l.05-.05-.2-.45-.45-.7v-.15l6.05 6.45" fill="#d58080"/><path d="M284.4 211.15q-3.35 2.65-4.85 6.9L278 216.4q.3-.3 1.4.25v-.15l-.2-.5-.2-.2q-.8-.75-.25-.45l.95.05-.1-.3-.2-.35.6.4h.15l.1.05-.05-.25-.15-.4.45-.4q-.6-.95-.4-1.2l.25-.55q.3-.65 1.35-.3.85.35.55-.75l.3.1q.95.5.8-.2l-.15-.35-.75-1.05.2.05 1.75 1.25m-10.25 1.15-1.45-1.55.4-.05.1-.1 1.3 1.45-.35.25m-.85-1.65.05-.05.1.05h-.15m6.65-3.85q1.8-1.8 3.15-4.1l.7.95.6.85q-.4.45-1.9-.45l-.35 1q-.25.5 0 1.5l-.55-.25q.75 1.95-1.65.5" fill="#f8f86a"/><path d="m284.5 211.05.2-.15.45-.45q2.5-1.7 5.8-2.75l-.4-.4m-6.15 3.85q-3.35 2.65-4.85 6.9L278 216.4m-3.85-4.1-1.45-1.55.4-.05.1-.1m.15 0 .55-.25q2.9-1 5.15-2.75m.9-.8q1.8-1.8 3.15-4.1l.15-.45.2-.25.65-1.6.4.45 6.05 6.45m-7.45-4.6.7.95.6.85q-.4.45-1.9-.45l-.35 1q-.25.5 0 1.5l-.55-.25q.75 1.95-1.65.5" fill="none" stroke="#d58080" stroke-width=".5"/><path d="m292.25 210.8-.2.25-.35.35q-.25-.8-1.35-.85-1.75-.1-5.6 1.6-2.05.9-.65-1.3l1.5-2.25.15-.2-.2.15q-4.6 5.55-6.5 9.35-2.15-2.9 7.8-12.75l4.05-3.85-3.85 6.65q-.75 1.3-.15 1.4.95.1 3.1-1 3.05-1.45 2.95.3-.05.8-.7 2.15" fill="url(#u)"/><path d="m303.25 195.35-7.15 4.4-2.1 1.35q8.85-3.5-1.75 9.7.65-1.35.7-2.15.1-1.75-2.95-.3-2.15 1.1-3.1 1-.6-.1.15-1.4l3.85-6.65.1-.1 2-1.8 2-1.7 1-.65 1.6-.5q4.95-2.55 5.65-1.2" fill="url(#v)"/><path d="m303.25 195.35.05.05-.05-.05" fill="url(#w)"/><path d="m290.9 201.3.1-.1 2-1.8 2-1.7 1-.65 1.6-.5q4.95-2.55 5.65-1.2" fill="none" stroke="#faf29c" stroke-width=".5"/><path d="m303.25 195.35-7.15 4.4-2.1 1.35q8.85-3.5-1.75 9.7" fill="none" stroke="#faf29c" stroke-width=".5"/><path d="m290.85 201.25-4.2 3.65q-10.8 8.95-13.55 6.65 4-1.6 9.95-5.65l.25-.15-.25.15-2.4 1.3q-2.35 1.15-1.25-.8 2.05-3.6 2.1-5.35 0-1.05-.75-1.35l.35-.35.25-.2q1.4-.55 2.2-.55 1.85.1.1 3-1.25 2-1.25 2.9.05.6 1.4 0l6.1-2.8.95-.45" fill="url(#x)"/><path d="M297.9 189.65q1.3.8-1.7 5.45l-.65 1.5-.7.95-1.9 1.8-2 1.8-.1.1-.95.45-6.1 2.8q-1.35.6-1.4 0 0-.9 1.25-2.9 1.75-2.9-.1-3-.8 0-2.2.55 14.25-9.3 10-.9l1.5-1.95 5.05-6.65" fill="url(#y)"/><path d="m297.9 189.65-.05-.1.05.1" fill="url(#z)"/><path d="M297.9 189.65q1.3.8-1.7 5.45l-.65 1.5-.7.95-1.9 1.8-2 1.8-.1.1" fill="none" stroke="#faf29c" stroke-width=".5"/><path d="M281.35 199.15q14.25-9.3 10-.9l1.5-1.95 5.05-6.65" fill="none" stroke="#faf29c" stroke-width=".5"/><path d="M288.6 204.25q-3 2.35-3.3 2-.3-.3 2.3-3.05 2.55-2.8 6.5-6.4 4-3.6 7.05-5.9 3-2.35 3.3-2.05.3.35-2.3 3.1l-6.6 6.4-6.95 5.9" fill="url(#A)"/><path d="M288.6 204.25q-3 2.35-3.3 2-.3-.3 2.3-3.05 2.55-2.8 6.5-6.4 4-3.6 7.05-5.9 3-2.35 3.3-2.05.3.35-2.3 3.1l-6.6 6.4-6.95 5.9" fill="none" stroke="#faf29c" stroke-width=".5"/><path d="M286.35 207.3q-1.55.5-2.25-.2-.65-.75-.1-2.25.6-1.5 2.15-2.85 1.5-1.4 3.1-1.9 1.55-.45 2.2.3.7.7.15 2.15-.65 1.55-2.15 2.95-1.55 1.35-3.1 1.8" fill="url(#B)"/><path d="M286.35 207.3q-1.55.5-2.25-.2-.65-.75-.1-2.25.6-1.5 2.15-2.85 1.5-1.4 3.1-1.9 1.55-.45 2.2.3.7.7.15 2.15-.65 1.55-2.15 2.95-1.55 1.35-3.1 1.8" fill="none" stroke="#faf29c" stroke-width=".5"/><path d="M306.1 183.2q1.1-2.95 4.05-5.6 2.9-2.65 5.9-3.45 3.05-.9 4.45.55 1.35 1.45.2 4.35-1.1 2.9-4 5.55-2.95 2.65-5.95 3.5-3.05.85-4.4-.6-1.4-1.45-.25-4.3m3.05 2.9q.6.3 1.75-.65l.5-.7q-.1-.8-1.15-.45-1.2.75-1.3 1.6l.2.2m5.2-2.5.05-.2q5.1-1.5 5.35-5.45.15-2.3-1.9-2.05-.6 1.45-.55 2.9l-.25 1.7-1.6.55q-.6.15-1.05.4-.5 1.15-.1 1.85l.05.3" fill="url(#C)"/><path d="m314.35 183.6-.05-.3q-.4-.7.1-1.85.45-.25 1.05-.4l1.6-.55.25-1.7q-.05-1.45.55-2.9 2.05-.25 1.9 2.05-.25 3.95-5.35 5.45l-.05.2m-5.2 2.5-.2-.2q.1-.85 1.3-1.6 1.05-.35 1.15.45l-.5.7q-1.15.95-1.75.65" fill="#fdfdbd"/><path d="M306.1 183.2q1.1-2.95 4.05-5.6 2.9-2.65 5.9-3.45 3.05-.9 4.45.55 1.35 1.45.2 4.35-1.1 2.9-4 5.55-2.95 2.65-5.95 3.5-3.05.85-4.4-.6-1.4-1.45-.25-4.3" fill="none" stroke="#f3653b" stroke-opacity=".361" stroke-width=".5"/><path d="m276 214.5-.1-.4-.65-2.45-.55-.85q-.65-.55-1.45-.75-1.15-.4-2-1.6l-.5-1.15v-.05l.05-.05 1.2 1.15q1.15.9 2.7 1.45.8.3 1 1.25l.15.8v.1-.05q.25-1.75-.35-3.5 2.65 3 1.2 5.3l-.7.8" fill="url(#D)"/><path d="m276 214.5-.35.35-.45.25-.3-.05-.75-.35q-1.85-.45-2.9-1.7l2.3.2.65.05q-3.8-1.65-3.45-5.95l.5 1.15q.85 1.2 2 1.6.8.2 1.45.75l.55.85.65 2.45.1.4" fill="url(#E)"/><path d="m271.25 213-.05-.05.05.05" fill="url(#F)"/><path d="M271.25 213q1.05 1.25 2.9 1.7l.75.35.3.05.45-.25.35-.35M270.75 207.3q-.35 4.3 3.45 5.95l-.65-.05-2.3-.2" fill="none" stroke="#faf29c" stroke-width=".5"/><path d="M276.05 214.55q.45-.4.9-.6 2.4-1.3 5.2 1.6-1.7-.75-3.5-.7l-.05.05.05-.05.05.05.85.2q.9.25 1.2 1.15.45 1.55 1.2 2.7l1.1 1.3-.05.05-.1.05-1.1-.65q-1.15-.9-1.45-2.1l-.6-1.45-.85-.65-2.45-.85-.4-.1" fill="url(#G)"/><path d="M277.2 219.35q-1.15-1.15-1.5-3l-.35-.75v-.35l.35-.35q.1-.25.35-.35l.4.1 2.45.85.85.65.6 1.45q.3 1.2 1.45 2.1l1.1.65q-4.35-.1-5.7-3.95v2.95" fill="url(#H)"/><path d="m277.2 219.35.05.1-.05-.1" fill="url(#I)"/><path d="M277.2 219.35q-1.15-1.15-1.5-3l-.35-.75v-.35l.35-.35q.1-.25.35-.35M282.9 220.35q-4.35-.1-5.7-3.95v2.95" fill="none" stroke="#faf29c" stroke-width=".5"/><path d="m275.95 213.4 1.15.15q.3.35 0 1.1l-1 1.4q-.75.7-1.55.9l-1.05-.1q-.35-.4-.1-1.15l1.1-1.4 1.45-.9" fill="url(#J)"/><path d="m275.95 213.4 1.15.15q.3.35 0 1.1l-1 1.4q-.75.7-1.55.9l-1.05-.1q-.35-.4-.1-1.15l1.1-1.4 1.45-.9" fill="none" stroke="#faf29c" stroke-width=".5"/><path d="M267.85 210.3h-.05l-.05.05 1.15 1.2q.9 1.15 1.45 2.7.3.8 1.25 1l.8.15h.1-.05l-3.5-.35q3 2.65 5.3 1.2l.8-.7-.4-.1-2.45-.65q-.55-.15-.85-.55-.55-.65-.75-1.45-.4-1.15-1.6-2l-1.15-.5" fill="url(#K)"/><path d="m273.55 210.8.2 2.3.05.65q-1.65-3.8-5.95-3.45l1.15.5q1.2.85 1.6 2 .2.8.75 1.45.3.4.85.55l2.45.65.4.1.35-.35.25-.45-.05-.3-.35-.75q-.45-1.85-1.7-2.9" fill="url(#L)"/><path d="m273.55 210.8-.05-.05.05.05" fill="url(#M)"/><path d="m275.05 215.55.35-.35.25-.45-.05-.3-.35-.75q-.45-1.85-1.7-2.9M273.55 210.8l.2 2.3.05.65q-1.65-3.8-5.95-3.45" fill="none" stroke="#faf29c" stroke-width=".5"/><path d="m275.1 215.6-.6.9q-1.3 2.4 1.6 5.2-.75-1.7-.7-3.5l.05-.05-.05.05.05.05.2.85q.25.9 1.15 1.2 1.55.45 2.7 1.2l1.3 1.1.05-.05.05-.1-.65-1.1q-.9-1.15-2.1-1.45-.8-.2-1.45-.6l-.65-.85-.85-2.45-.1-.4" fill="url(#N)"/><path d="M279.9 216.75q-1.15-1.15-3-1.5l-.75-.35h-.35l-.35.35q-.25.1-.35.35l.1.4.85 2.45.65.85q.65.4 1.45.6 1.2.3 2.1 1.45l.65 1.1q-.1-4.35-3.95-5.7h2.95" fill="url(#O)"/><path d="m279.9 216.75.1.05-.1-.05" fill="url(#P)"/><path d="M279.9 216.75q-1.15-1.15-3-1.5l-.75-.35h-.35l-.35.35q-.25.1-.35.35M280.9 222.45q-.1-4.35-3.95-5.7h2.95" fill="none" stroke="#faf29c" stroke-width=".5"/><path d="M274 215.65q-.25.8.15 1.15.35.3 1.1 0 .75-.25 1.4-1l.9-1.55q.25-.75-.1-1.05l-1.15-.1q-.7.35-1.4 1.1-.65.75-.9 1.45" fill="url(#Q)"/><path d="M274 215.65q-.25.8.15 1.15.35.3 1.1 0 .75-.25 1.4-1l.9-1.55q.25-.75-.1-1.05l-1.15-.1q-.7.35-1.4 1.1-.65.75-.9 1.45" fill="none" stroke="#faf29c" stroke-width=".5"/><path d="M316.05 191.4q0 4.6-3.2 7.8-3.25 3.25-7.8 3.2-4.55.05-7.8-3.2-3.2-3.2-3.2-7.8 0-4.5 3.25-7.75 3.2-3.2 7.75-3.25 4.55.05 7.75 3.25 3.25 3.25 3.25 7.75m-7.05-6.65q-1.15-.85-2.5.3l-.35.95q.65 1.45 2.25 1.35 1.45-.65 1.1-2.2l-.45-.45-.05.05m-7.15 1.85.1.3q-7.65.05-5.55 6.95 1.25 3.95 4.6 4.6-.05-2.35-1-4.9-.6-1.4-.7-2.9l2.35-.15 1.55-.15q0-1.8-1-3.2l-.35-.55" fill="url(#R)"/><path d="m301.85 186.6.35.55q1 1.4 1 3.2l-1.55.15-2.35.15q.1 1.5.7 2.9.95 2.55 1 4.9-3.35-.65-4.6-4.6-2.1-6.9 5.55-6.95l-.1-.3m7.15-1.85.05-.05.45.45q.35 1.55-1.1 2.2-1.6.1-2.25-1.35l.35-.95q1.35-1.15 2.5-.3" fill="#fdfdbd"/><path d="M316.05 191.4q0 4.6-3.2 7.8-3.25 3.25-7.8 3.2-4.55.05-7.8-3.2-3.2-3.2-3.2-7.8 0-4.5 3.25-7.75 3.2-3.2 7.75-3.25 4.55.05 7.75 3.25 3.25 3.25 3.25 7.75" fill="none" stroke="#f3653b" stroke-opacity=".361" stroke-width=".5"/><path d="m298.05 204.15-1 .3-6.45 1.35q-1.4.3-2.15 1.35-1.1 1.6-1.45 3.75-.6 3.2-3.5 5.1-1.35.85-2.9 1.3h-.2l-.2-.2q1.6-1.3 2.75-3.05 1.9-2.9 2.9-7 .55-2.25 2.9-2.6l2.35-.25.15.05-.15-.05q-4.8-.9-9.3.5 7.05-6.75 13.85-2.45l2.4 1.9" fill="url(#S)"/><path d="m298.05 204.15 1.1 1.1q.75.75.9 1.2v.9l-.75 1.95q-.6 4.8-3.6 7.5l-.25-6.15-.2-1.8q-2.95 9.95-14.65 8.45 1.55-.45 2.9-1.3 2.9-1.9 3.5-5.1.35-2.15 1.45-3.75.75-1.05 2.15-1.35l6.45-1.35 1-.3" fill="url(#T)"/><path d="m295.7 216.8-.15.15.15-.15" fill="url(#U)"/><path d="M295.7 216.8q3-2.7 3.6-7.5l.75-1.95v-.9q-.15-.45-.9-1.2l-1.1-1.1M280.6 217.3q11.7 1.5 14.65-8.45l.2 1.8.25 6.15" fill="none" stroke="#faf29c" stroke-width=".5"/><path d="m298.1 204.1-1.9-2.4q-4.3-6.8 2.45-13.85-1.4 4.5-.5 9.3l.05.15-.05-.15.05-.05.2-2.3q.35-2.35 2.6-2.9 4.1-1 6.95-2.85 1.8-1.2 3.1-2.8l.2.2v.2q-.45 1.55-1.3 2.9-1.9 2.9-5.05 3.45-2.2.4-3.8 1.5-1.05.75-1.35 2.15l-1.35 6.45-.3 1" fill="url(#V)"/><path d="M310.75 201.75q-2.7 3-7.5 3.6l-1.95.75h-.9l-1.2-.9-1.1-1.1.3-1 1.35-6.45q.3-1.4 1.35-2.15 1.6-1.1 3.8-1.5 3.15-.55 5.05-3.45.85-1.35 1.3-2.9 1.5 11.7-8.45 14.65l1.85.15 6.1.3" fill="url(#W)"/><path d="m310.75 201.75.15-.15-.15.15" fill="url(#X)"/><path d="M310.75 201.75q-2.7 3-7.5 3.6l-1.95.75h-.9l-1.2-.9-1.1-1.1" fill="none" stroke="#faf29c" stroke-width=".5"/><path d="M311.25 186.65q1.5 11.7-8.45 14.65l1.85.15 6.1.3" fill="none" stroke="#faf29c" stroke-width=".5"/><path d="M295.55 203.85q-.9-2.1-.1-2.9l2.95.05q2 .9 4.15 3.05 2.1 2.1 3.05 4.15.85 2.1 0 2.95l-2.85-.1q-2.1-.9-4.2-3-2.15-2.15-3-4.2" fill="url(#Y)"/><path d="M295.55 203.85q-.9-2.1-.1-2.9l2.95.05q2 .9 4.15 3.05 2.1 2.1 3.05 4.15.85 2.1 0 2.95l-2.85-.1q-2.1-.9-4.2-3-2.15-2.15-3-4.2" fill="none" stroke="#faf29c" stroke-width=".5"/><path d="m299.85 199.35-1.95 2.55q-5.6 6.05-14.4 1.25 4.85.15 9.35-2l.15-.1-.15.1-2.35.4q-2.5.25-3.6-1.85-2.1-3.8-4.75-6.15-1.65-1.45-3.6-2.3l.15-.3.2-.1 3.25.6q3.4 1.1 4.8 4.05.95 2.1 2.5 3.35 1.05.85 2.5.8l6.75-.3h1.15" fill="url(#Z)"/><path d="M294.1 187.3q3.7 1.9 5.65 6.55l1.25 1.75.2.85q0 .6-.55 1.5l-.75 1.3-.05.1h-1.15l-6.75.3q-1.45.05-2.5-.8-1.55-1.25-2.5-3.35-1.4-2.95-4.8-4.05l-3.25-.6q11.3-4.6 16.9 4.55l-.35-1.85-1.35-6.25" fill="url(#aa)"/><path d="m294.1 187.3-.15-.1.15.1" fill="url(#ab)"/><path d="M294.1 187.3q3.7 1.9 5.65 6.55l1.25 1.75.2.85q0 .6-.55 1.5l-.75 1.3-.05.1M278.9 190.85q11.3-4.6 16.9 4.55l-.35-1.85-1.35-6.25" fill="none" stroke="#faf29c" stroke-width=".5"/><path d="m282.1 210.75-1.15.85q-3.05 1.95-6.25-1.05l4.2.2.05-.05-.05.05-1.05-.15q-1.05-.15-1.35-1.15-.45-1.85-1.25-3.15-.55-.85-1.3-1.4l.1-.1h.1l1.3.6q1.35.85 1.6 2.3.15.95.65 1.65.35.45.95.65l2.95.65.5.1" fill="url(#ac)"/><path d="M281 205.05q1.35 1.15 1.65 3.35l.3.9v.4l-.35.55-.5.5-.5-.1-2.95-.65q-.6-.2-.95-.65-.5-.7-.65-1.65-.25-1.45-1.6-2.3l-1.3-.6q5.3-.7 6.65 3.85l.05-.85.15-2.75" fill="url(#ad)"/><path d="m281 205.05-.1-.1.1.1" fill="url(#ae)"/><path d="M281 205.05q1.35 1.15 1.65 3.35l.3.9v.4l-.35.55-.5.5M274.15 204.8q5.3-.7 6.65 3.85l.05-.85.15-2.75" fill="none" stroke="#faf29c" stroke-width=".5"/></g><g id="aB"><path d="m-5.6-21.5 6.55 3.9v8.85l-2.8 3.15-5.25-2.05.05-.05h-.25q-.85.4-.85 1.05v.9Q-6.6-4.6-4.25-3.9l.6.25L-1.1-1l2.85 15.9 5.65 1.15V16q.65 0 .75-.35.1-.5-.45-.55l.25-.55q-4.5-3.8-5.55-7.95-.1-.55.45-.9Q2 1.3 1.65-3.15 1.55-4.5 3.75-5q1.8-.4 2.5-1.3-4.75-3.1-2.1-8.05.4-.75.65-.35l-1.25-2.1q3.95-2.65-3.7-5.4l-4.6-.35-.85 1.05M-7.1-7.65l-.2-.05.2.05" fill="url(#af)"/><path d="M1.75 14.9-1.1-1l-2.55-2.65q1.55 12.8 3.5 25.8l.2.55q1.2-3.25 1.7-7.6v-.2" fill="url(#ag)"/><path d="m-7.1-7.65 5.25 2.05 2.8-3.15v-8.85l-6.55-3.9q7.65 6.05 4.1 12.9-.65 1.3-2.4 1.4-.1.3-1.75-.3l-1.4-.2-.05.05" fill="url(#ah)"/><path d="m-7.05-7.7 1.4.2q1.65.6 1.75.3 1.75-.1 2.4-1.4 3.55-6.85-4.1-12.9l.85-1.05 4.6.35q7.65 2.75 3.7 5.4l1.25 2.1q-.25-.4-.65.35Q1.5-9.4 6.25-6.3q-.7.9-2.5 1.3-2.2.5-2.1 1.85Q2 1.3 2.85 5.7q-.55.35-.45.9 1.05 4.15 5.55 7.95l-.25.55q.55.05.45.55-.1.35-.75.35v.05L1.75 14.9m-5.4-18.55-.6-.25q-2.35-.7-3.9-1.85v-.9q0-.65.85-1.05m.25 0h-.25m3.65 4.05q1.55 12.8 3.5 25.8l.2.55q1.2-3.25 1.7-7.6v-.2" fill="none" stroke="#f3653b" stroke-opacity=".361" stroke-width=".5"/><path d="m-5.6-21.5 6.55 3.9v8.85l-2.8 3.15-5.25-2.05M1.75 14.9-1.1-1l-2.55-2.65M-7.3-7.7l.2.05" fill="none" stroke="#f3653b" stroke-opacity=".361" stroke-width=".5"/></g><g id="aC"><path d="M263.35 242.45q-.05 4.6-5.45 7.85t-12.95 3.25q-7.55-.05-12.85-3.4-5.3-3.3-5.25-7.9.1-4.65 5.5-7.95 5.35-3.2 12.9-3.15 7.55 0 12.9 3.3 5.3 3.35 5.2 8" fill="url(#ai)"/><path d="m301.15 201.55-7.95-.25-8.85 8.85L283 215l5.25 1.25.05-.15.2.2q.05.95-.6 1.6l-.85.85q-2.15.25-4.25-.55l-.65-.15-4.25 1.05-17.6 14.1q-2.2-1.4-4.65-2.35l.1-.1q-.45-.35-.1-.8.4-.6.8-.3l.35-.65q6.6-1 11.4-4.5.6-.4.55-1.15 4.95-3.85 9.55-8.05 1.4-1.3.6-3.2-.75-1.45-.3-2.8 6.05-.15 9.35-6.75.45-.95-.05-.75l2.85-1.25q.2-5.1 7.65-3.05 2.15.55 3.25 2.45l-.5 1.6m-12.9 14.7.25.05-.25-.05" fill="url(#aj)"/><path d="m260.3 233.2 17.6-14.1 4.25-1.05-27.85 23.55-.7.4q2.55-3.95 6.55-8.65l.15-.15" fill="url(#ak)"/><path d="M288.25 216.25 283 215l1.35-4.85 8.85-8.85 7.95.25q-10.85 1.25-15.4 10.2-.9 1.8.1 3-.25.35 1.4.7.65.15 1.05.65l-.05.15" fill="url(#al)"/><path d="M288.3 216.1q-.4-.5-1.05-.65-1.65-.35-1.4-.7-1-1.2-.1-3 4.55-8.95 15.4-10.2l.5-1.6q-1.1-1.9-3.25-2.45-7.45-2.05-7.65 3.05l-2.85 1.25q.5-.2.05.75-3.3 6.6-9.35 6.75-.45 1.35.3 2.8.8 1.9-.6 3.2-4.6 4.2-9.55 8.05.05.75-.55 1.15-4.8 3.5-11.4 4.5l-.35.65q-.4-.3-.8.3-.35.45.1.8l-.1.1q2.45.95 4.65 2.35m21.85-15.15.65.15q2.1.8 4.25.55l.85-.85q.65-.65.6-1.6m-.2-.2.2.2m-6.35 1.75L254.3 241.6l-.7.4q2.55-3.95 6.55-8.65l.15-.15" fill="none" stroke="#f3653b" stroke-opacity=".361" stroke-width=".5"/><path d="m301.15 201.55-7.95-.25-8.85 8.85L283 215l5.25 1.25M260.3 233.2l17.6-14.1 4.25-1.05m6.35-1.75-.25-.05" fill="none" stroke="#f3653b" stroke-opacity=".361" stroke-width=".5"/><path d="M288 192.4q-.35-.95 0-1.3.4-.4 1.3 0l1.95 1.35q.95.95 1.3 1.95.45.9.05 1.3-.35.35-1.35 0-.9-.45-1.85-1.4t-1.4-1.9" fill="url(#am)"/><path d="M288 192.4q-.35-.95 0-1.3.4-.4 1.3 0l1.95 1.35q.95.95 1.3 1.95.45.9.05 1.3-.35.35-1.35 0-.9-.45-1.85-1.4t-1.4-1.9" fill="none" stroke="#faf29c" stroke-width=".5"/><path d="M251.65 227.3v-.1l.1-.1 1.55 1.35q1.45.95 3.5 1.5 1.15.25 1.35 1.45l.1 1.2-.05.05.05-.05q.45-2.45-.2-4.7 3.35 3.55 1.2 7l-1 1.2-.1-.5-.75-3.25q-.15-.75-.7-1.1-.75-.55-1.85-.75-1.6-.3-2.55-1.75l-.65-1.45" fill="url(#an)"/><path d="m251.9 234.95 3.1-.2.85-.05q-5-1.5-4.2-7.4l.65 1.45q.95 1.45 2.55 1.75 1.1.2 1.85.75.55.35.7 1.1l.75 3.25.1.5-.55.55-.6.5-.45-.05-.95-.35q-2.5-.3-3.8-1.8" fill="url(#ao)"/><path d="m251.9 234.95-.1-.1.1.1" fill="url(#ap)"/><path d="m258.25 236.1-.55.55-.6.5-.45-.05-.95-.35q-2.5-.3-3.8-1.8M251.9 234.95l3.1-.2.85-.05q-5-1.5-4.2-7.4" fill="none" stroke="#faf29c" stroke-width=".5"/><path d="m258.3 236.15 1.2-1q3.45-2.15 7 1.2l-4.7-.2h-.1.1l1.2.1q1.2.2 1.45 1.35.55 2.05 1.5 3.5l1.35 1.55-.1.1h-.1q-.8-.2-1.45-.65-1.45-.95-1.75-2.55-.2-1.1-.8-1.9-.35-.55-1.05-.65l-3.25-.75-.5-.1" fill="url(#aq)"/><path d="M259.45 242.5q-1.5-1.3-1.8-3.8l-.35-.95-.05-.45.5-.6.55-.55.5.1 3.25.75q.7.1 1.05.65.6.8.8 1.9.3 1.6 1.75 2.55.65.45 1.45.65-5.9.8-7.45-4.25v.9l-.2 3.1" fill="url(#ar)"/><path d="m259.45 242.5.1.1-.1-.1" fill="url(#as)"/><path d="M259.45 242.5q-1.5-1.3-1.8-3.8l-.35-.95-.05-.45.5-.6.55-.55M267.1 242.75q-5.9.8-7.45-4.25v.9l-.2 3.1" fill="none" stroke="#faf29c" stroke-width=".5"/><path d="m258.4 234.8 1.45-.05q.45.45 0 1.5t-1.5 2.1q-1.1 1.1-2.15 1.55t-1.5 0q-.4-.4.05-1.45t1.55-2.15l2.1-1.5" fill="url(#at)"/><path d="m258.4 234.8 1.45-.05q.45.45 0 1.5t-1.5 2.1q-1.1 1.1-2.15 1.55t-1.5 0q-.4-.4.05-1.45t1.55-2.15l2.1-1.5" fill="none" stroke="#faf29c" stroke-width=".5"/></g><g id="aE"><path d="M272.35 227.5q-1.05-2.95.85-3.15.55-.05.2-.7l.4.1.15.05.15-.15-.35-.65-.1-.3.1-.1.35.15q.5.2.7 0l-.2-1 2.15.65-.05-.35-.3-.7q-.4-.8.1-.8l.7.5.9.7 1.15.85q.05-.55-.5-1.5-.85-1.45-.3-1.6l.35.15 2.05 1.55.5.5q-4.55 2.05-8.05 4.85l-.95.95m.85-13.95-.05.25.45.85.35.55-.05.05-.1.4q.1.5.75 1.05-1.1-.1-2.85-.85l.25.35.5.5.4.5-.7-.2-1.05-.65.25-.65.25-.35 1.05-2.35.55.55m-8.05 10.25 1.65 1.85h-3l.4.8q0 1.8-1.65 2.05-.6.1-1.05.35l.45.95.45.55q-1.1.6-3.9-.9l-.7-.3-.45-.15-.05.05-.05-.05.75-.45q4-1.9 7.15-4.75" fill="#fac251"/><path d="m280.85 221.2-2.05-1.55-.35-.15q-.55.15.3 1.6.55.95.5 1.5l-1.15-.85-.9-.7-.7-.5q-.5 0-.1.8l.3.7.05.35-2.15-.65.2 1q-.2.2-.7 0l-.35-.15-.1.1.1.3.35.65-.15.15-.15-.05-.4-.1q.35.65-.2.7-1.9.2-.85 3.15-.15-.05-.15.15l-2.3-1.3-.25-.15q.15.55.85 1.35l.25.45q.2.9-1.15.45l-.4-.1q.4 1.4-.75 1.15-1.4-.3-1.85.65l-.45.75q-.2.4.5 1.6l-.65.65.2.5v.3H265.9l-.8-.4.25.45.15.35-1.3.1q-.8-.3.2.6l.25.25q.35.35.3.6v.2q-1.4-.5-1.9 0l-4.9-4.9.55-.45-1.7-1.7H257.3l.05-.05.45.15.7.3q2.8 1.5 3.9.9l-.45-.55-.45-.95q.45-.25 1.05-.35 1.65-.25 1.65-2.05l-.4-.8h3l-1.65-1.85 1.3-1.3q3.15 1.55 2.3-.9l.7.2q-.2-1.4.15-2.05l.55-1.45q1.95.95 2.55.25l-.75-1.05-.85-1.15 1.05.65.7.2-.4-.5-.5-.5-.25-.35q1.75.75 2.85.85-.65-.55-.75-1.05l.1-.4.05-.05-.35-.55-.45-.85.05-.25 7.65 7.65" fill="#d58080"/><path d="m271.1 216.35.85 1.15.75 1.05q-.6.7-2.55-.25l-.55 1.45q-.35.65-.15 2.05l-.7-.2q.85 2.45-2.3.9 2.6-2.8 4.65-6.15m-13.8 12.7h-.1l.05-.05.05.05m-.3 0 1.7 1.7-.55.45-1.85-1.85.55-.15.15-.15m6.05 7.05q.5-.5 1.9 0v-.2q.05-.25-.3-.6l-.25-.25q-1-.9-.2-.6l1.3-.1-.15-.35-.25-.45.8.4H266.2v-.3l-.2-.5.65-.65q-.7-1.2-.5-1.6l.45-.75q.45-.95 1.85-.65 1.15.25.75-1.15l.4.1q1.35.45 1.15-.45l-.25-.45q-.7-.8-.85-1.35l.25.15 2.3 1.3q-4.75 4.25-7.2 10.4l-1.95-1.95" fill="#f8f86a"/><path d="m272.35 227.5.95-.95q3.5-2.8 8.05-4.85l-8.15-8.15m-2.1 2.8.85 1.15.75 1.05q-.6.7-2.55-.25l-.55 1.45q-.35.65-.15 2.05l-.7-.2q.85 2.45-2.3.9 2.6-2.8 4.65-6.15l.25-.65.25-.35 1.05-2.35.55.55m-1 14.1q-4.75 4.25-7.2 10.4l-1.95-1.95m-4.9-4.9-1.85-1.85.55-.15.15-.15m.25-.05.75-.45q4-1.9 7.15-4.75" fill="none" stroke="#d58080" stroke-width=".5"/></g><filter id="av"><feColorMatrix in="SourceGraphic" result="cxform" values="0.76953125 0.0 0.0 0.0 0.21875 0.0 0.76953125 0.0 0.0 0.1015625 0.0 0.0 0.76953125 0.0 0.0546875 0.0 0.0 0.0 1.0 0.0"/><feComposite in2="SourceGraphic" operator="in" result="color-xform"/></filter><filter id="aA"><feColorMatrix in="SourceGraphic" result="cxform" values="0.76953125 0.0 0.0 0.0 0.23046875 0.0 0.76953125 0.0 0.0 0.0 0.0 0.0 0.76953125 0.0 0.23046875 0.0 0.0 0.0 1.0 0.0"/><feComposite in2="SourceGraphic" operator="in" result="color-xform"/></filter><filter id="aD"><feColorMatrix in="SourceGraphic" result="cxform" values="0.76953125 0.0 0.0 0.0 0.23046875 0.0 0.76953125 0.0 0.0 0.0 0.0 0.0 0.76953125 0.0 0.23046875 0.0 0.0 0.0 1.0 0.0"/><feComposite in2="SourceGraphic" operator="in" result="color-xform"/></filter><use xlink:href="#m" id="ay"/></defs><use xlink:href="#au"/><use transform="matrix(1.8501 -.18112 -.0246 1.1584 251 247.3)" filter="url(#av)" xlink:href="#aw"/><use xlink:href="#ax"/><use transform="matrix(-.32454 -.94333 .94331 -.32454 301.1 162.55)" xlink:href="#ay"/><use transform="rotate(175.726 139.151 100.473) scale(.99976)" xlink:href="#ay"/><use transform="rotate(-144.423 171.577 40.438) scale(.99812)" xlink:href="#ay"/><use transform="matrix(.25342 .96512 -.9651 .25342 315.4 209.25)" xlink:href="#ay"/><use transform="translate(333.15 182.7)" xlink:href="#ay"/><use transform="matrix(.76649 .63972 -.63972 .76649 329.7 199.65)" xlink:href="#ay"/><use xlink:href="#az"/><use transform="rotate(44.999 -138.292 438.265) scale(.8785)" filter="url(#aA)" xlink:href="#aB"/><use xlink:href="#aC"/><use transform="rotate(44.999 -111.745 448.412) scale(.8785)" filter="url(#aD)" xlink:href="#aB"/><use xlink:href="#aE"/></svg>