<svg viewBox="0 0 61.639 81.59" xmlns="http://www.w3.org/2000/svg" xmlns:xlink="http://www.w3.org/1999/xlink"><use transform="translate(0 .002)" width="61.65" height="81.6" xlink:href="#a"/><defs><use width="61.65" height="81.6" xlink:href="#b" id="a"/><g id="b"><path d="m-7.85-22.25-.85-.8q.55 3.55.55 10.1l-11.8.25-3.45-4.4-3-6.4q-1.6-3.85.5-7.55 2.35-4.25 7-6.9h1.25v-.1L-18-39.3h.05l10.1 17.05m-10.1.85q0 1.25 1 2.1 1.05.9 2.5.9t2.45-.9q1.05-.85 1.05-2.1T-12-23.55q-1-.85-2.45-.85t-2.5.85q-1 .9-1 2.15m-1.15-11q-1.45 0-2.5.85-1 .9-1 2.15t1 2.1q1.05.9 2.5.9t2.45-.9q1.05-.85 1.05-2.1t-1.05-2.15q-1-.85-2.45-.85" fill="#8b8b8b" fill-rule="evenodd" transform="translate(30.8 40.8)"/><path d="m-18-39.3.35 1.25v.1h-1.25q-4.65 2.65-7 6.9-2.1 3.7-.5 7.55l3 6.4 3.45 4.4 11.8-.25q0-6.55-.55-10.1l.85.8 8.7 6.3 12.85-6.2 1.45 1.25-15.35 9-4.65 1.4-19.95.45-.15-5.05-5.8-13q-.15-6.2 7.85-9.35 2.4-1.1 4.9-1.85m12.55 22.25 2.65 4.1-2.65-4.1" fill="#ccc" fill-rule="evenodd" transform="translate(30.8 40.8)"/><path d="m-7.85-22.25-10.1-17.05 6.25-1.2q7.55-1.2 13.95 3.3l.2.2q5.3 6.85 8.1 12.25l3.15 2.6-12.85 6.2-8.7-6.3m5.8-11.15q0-1.25-1.05-2.15-1-.85-2.45-.85t-2.5.85q-1 .9-1 2.15t1 2.1q1.05.9 2.5.9t2.45-.9q1.05-.85 1.05-2.1m.7 4.3q-1.45 0-2.5.85-1 .9-1 2.15t1 2.1q1.05.9 2.5.9T1.1-24q1.05-.85 1.05-2.1T1.1-28.25q-1-.85-2.45-.85" fill="#999" fill-rule="evenodd" transform="translate(30.8 40.8)"/><path d="m-4.85-10.5 4.65-1.4 3.25 5.2-2.45.95L25.8 37.9l-5.6-8.85L-4.85-10.5" fill="#58382b" fill-rule="evenodd" transform="translate(30.8 40.8)"/><path d="M25.8 37.9.6-5.75l2.45-.95L11.1 6l9.1 14.05Q38.05 48.4 25.8 37.9" fill="#a1664c" fill-rule="evenodd" transform="translate(30.8 40.8)"/><path d="M12.85 1.5h-.05q-2.5.75-4.9 1.85Q-.1 6.5.05 12.7l5.8 13L6 30.75l19.95-.45 4.65-1.4 15.35-9-1.45-1.25-3.15-2.6q-2.8-5.4-8.1-12.25l-.2-.2Q26.65-.9 19.1.3l-6.25 1.2M56.6 78.7Q68.85 89.2 51 60.85L41.9 46.8l-8.05-12.7-3.25-5.2M28 27.85l-2.65-4.1m.6 6.55L51 69.85l5.6 8.85" fill="none" stroke="#69513b" stroke-linecap="round" stroke-linejoin="round" stroke-width=".1"/><path d="M11.7 8.4q1.45 0 2.45.85 1.05.9 1.05 2.15t-1.05 2.1q-1 .9-2.45.9t-2.5-.9q-1-.85-1-2.1t1-2.15q1.05-.85 2.5-.85m1.15 11q0-1.25 1-2.15 1.05-.85 2.5-.85t2.45.85q1.05.9 1.05 2.15t-1.05 2.1q-1 .9-2.45.9t-2.5-.9q-1-.85-1-2.1m16.6-7.7q1.45 0 2.45.85 1.05.9 1.05 2.15t-1.05 2.1q-1 .9-2.45.9t-2.5-.9q-1-.85-1-2.1t1-2.15q1.05-.85 2.5-.85m-.7-4.3q0 1.25-1.05 2.1-1 .9-2.45.9t-2.5-.9q-1-.85-1-2.1t1-2.15q1.05-.85 2.5-.85t2.45.85q1.05.9 1.05 2.15" fill="none" stroke="#630" stroke-linecap="round" stroke-linejoin="round" stroke-width=".05"/></g></defs></svg>