<svg viewBox="0 0 33.775 50.375" xmlns="http://www.w3.org/2000/svg" xmlns:xlink="http://www.w3.org/1999/xlink"><use transform="translate(.03 .03)" width="33.75" height="50.35" xlink:href="#a"/><defs><g id="a"><path d="M291 179.7h-.05l-.2-.3-.1-.3-.05-.55.1.1h.15l.35-.55.15-1v-.05l.05.15.05.05.15.95-.15 1-.05.1-.3.4h-.1" fill="#957440" fill-rule="evenodd" transform="translate(-258.35 -175.55)"/><path d="m291.35 177.1-.15 1-.35.55h-.15l-.1-.1.05.55.1.3.2.3h.05-.1l-.15-.3-.05-.05-.05-.15v-.1l-.05-.6q0-.55.15-1l.25-.5h.3v.05l.05.05" fill="#ab8649" fill-rule="evenodd" transform="translate(-258.35 -175.55)"/><path d="m291 177-.25.5q-.15.45-.15 1l-.2.1-.35.1-.4.05h-.5l-.8-.1-.5-.2-.2-.1-1.7-.75h-.05l-.1-.1h-.05l-.15-.1h-.1l-.15 1.5-7.4 22.65-.55-.15-.1-.05-1.55-.2h-.05l8.1-22.35.2-.5-4.3-.55-.2-.65q-.05-.6.25-1l.45-.5.05-.05.2.05h.2L291 177" fill="#c4a773" fill-rule="evenodd" transform="translate(-258.35 -175.55)"/><path d="m285.35 178.9.15-1.5h.1l.15.1h.05l.1.1h.05l.15.1-.1.2v.15l-.15.9-.75 2.5-.15.55-.5 1.5-.5 1.45-.2.65-.4 1.55-.15.45-.15.4-.05.15-.15.4-.45 1.55-.5 1.5-.45 1.5-.6 1.5-.4 1.5-.25.75-.15.55-.05.25-.45 1.4-.3.9-.3.75-.4 1.05-.2-.1 6.2-19.35.3-.85.5-2.55" fill="#b48d50" fill-rule="evenodd" transform="translate(-258.35 -175.55)"/><path d="m290.6 178.5.05.6v.1l-1.15-.05-1.45-.05-.8-.2-.6-.4-.1-.1-.05-.1q.05-.45-.3-.55h-.1v-.05l-.15-.1 1.7.75.2.1.5.2.8.1h.5l.4-.05.35-.1.2-.1m-10.9-.75 4.3.55-.2.5-3.55-.5-.15-.05-.3-.35-.1-.15m-1.75 23.8 7.4-22.65-.5 2.55-.3.85-6.2 19.35-.3-.1h-.1" fill="#b9955b" fill-rule="evenodd" transform="translate(-258.35 -175.55)"/><path d="m290.65 179.2.05.15.05.05.15.3-4.65-.6-2.55 7.9-.05.15-.05.1-.1.3v.05l-.15.45-4.45 13.8-.35-.1.4-1.05.3-.75.3-.9.45-1.4.05-.25.15-.55.25-.75.4-1.5.6-1.5.45-1.5.5-1.5.45-1.55.15-.4.05-.15.15-.4.15-.45.4-1.55.2-.65.5-1.45.5-1.5.15-.55.75-2.5.15-.9v-.15l.1-.2v.05h.1q.35.1.3.55l.05.1.1.1.6.4.8.2 1.45.05 1.15.05" fill="#9e7c45" fill-rule="evenodd" transform="translate(-258.35 -175.55)"/><path d="M275.7 201.15h.05l1.55.2.1.05.55.15h.1l.3.1.2.1.35.1q3.35 1.35 3.9 4.35l.05.2.05 1.3-.1 1.1-2.25 13.4v.05l-.5-.2 2-10.95.4-2.1v-2.6l-.8-1.9-.2-.3-.3-.4-.35-.35q-.8-.75-2-1.25l-.3-.15-.25-.05-.4-.15-.2-.05-1.05-.2-.4-.05h-.15l-.45-.05q-3.35-.25-5.75 1.2-2.1 1.25-3.45 3.75l-7.55 12.85h-.5l7.8-13.2q3.05-5.6 9.55-4.95" fill="#ccc" fill-rule="evenodd" transform="translate(-258.35 -175.55)"/><path d="M282.45 206.4v2.6l-.4 2.1q.65-4.2-1.25-6.1l-.3-.25.3.2.1.1.4.25.05.1 1.1 1m-6.4-4.85h.15l.4.05.35.1.4.5-.35-.05-.4-.1h-.2l-.8.25-.3.25-.35.7-2.65 11.45-.05.15-.1.15-.25.25-.25.1.05-.3 2.6-11.15.1-.4.15-.8q.1-.4.35-.65l.65-.45.5-.05" fill="#dadada" fill-rule="evenodd" transform="translate(-258.35 -175.55)"/><path d="m280.55 222.2 2.25-13.4.1-1.1q.3.95.25 2.05l-2.65 15.5.05-3v-.05" fill="#575757" fill-rule="evenodd" transform="translate(-258.35 -175.55)"/><path d="m259.5 222.2-.2-.05-.05-.1V222l-.4-2.7 7.55-12.85q1.35-2.5 3.45-3.75 2.2-.2 4.4.85-4.6.5-6.8 4.5l-6.6 11.3-.3.5-1.05 2.35" fill="#666" fill-rule="evenodd" transform="translate(-258.35 -175.55)"/><path d="m276.95 201.7.4.2.1.1.15.1.1.1.35.4.2.3.2.5.05.2v.25l-.05.1-.35.95-5.05 10.5-.35.35-.55.1q-.5-.15-.5-.5l.25-.1.25-.25.1-.15.05-.15 5-10.35.15-.4.2-.55.05-.2v-.1l-.15-.45-.2-.45-.4-.5" fill="#858585" fill-rule="evenodd" transform="translate(-258.35 -175.55)"/><path d="m276.6 201.6 1.05.2.2.05.4.15.25.05.3.15q1.2.5 2 1.25v1.5l-.3-.2-1.1-.6-.2-.05q-.05-.55-.65-1.2l-.45-.45-.35-.25-.4-.3-.4-.2-.35-.1" fill="gray" fill-rule="evenodd" transform="translate(-258.35 -175.55)"/><path d="m282.05 211.1-2 10.95v.2l-18.4-2.8 6.5-11.1q2.05-3.75 6.15-4.45l-2.6 11.15-.05.3q0 .35.5.5l.55-.1-.25.15.6-.05.45-.15.55-.85 4.75-9.7.35-.95.05-.1.2.05 1.1.6.3.25q1.9 1.9 1.25 6.1m-22.8 10.95-.9-2.75h.5l.4 2.7v.05m13.05-7.35 2.65-11.45.35-.7.3-.25.8-.25h.2l.4.1.35.05.2.45.15.45v.1l-.05.2-.2.55-.15.4-5 10.35" fill="#999" fill-rule="evenodd" transform="translate(-258.35 -175.55)"/><path d="m277.35 201.9.4.3.35.25.45.45q.6.65.65 1.2l-.7-.25v-.25l-.05-.2-.2-.5-.2-.3-.35-.4-.1-.1-.15-.1-.1-.1" fill="#5a5a5a" fill-rule="evenodd" transform="translate(-258.35 -175.55)"/><path d="M269.85 202.7q2.4-1.45 5.75-1.2l.45.05-.5.05-.65.45q-.25.25-.35.65l-.15.8-.15.05q-2.2-1.05-4.4-.85" fill="#707070" fill-rule="evenodd" transform="translate(-258.35 -175.55)"/><path d="m279.2 204.1.2.05-.2-.05-.05.1-.35.95-4.75 9.7-.55.85-.45.15-.6.05.25-.15.35-.35 5.05-10.5.35-.95.05-.1.7.25m-4.8-.6-.1.4q-4.1.7-6.15 4.45l-6.5 11.1-.8-.1 6.6-11.3q2.2-4 6.8-4.5l.15-.05" fill="#757575" fill-rule="evenodd" transform="translate(-258.35 -175.55)"/><path d="m280.8 203.45.35.35.3.4.2.3.8 1.9-1.1-1-.05-.1-.4-.25-.1-.1v-1.5" fill="#9f9f9f" fill-rule="evenodd" transform="translate(-258.35 -175.55)"/><path d="m259.85 222.25-.35-.05 1.05-2.35.3-.5.8.1-1.8 2.8" fill="#828282" fill-rule="evenodd" transform="translate(-258.35 -175.55)"/><path d="m280.05 222.05.5.2-.05 3-.05.15-.15-.05-.25-3.1v-.2" fill="#878787" fill-rule="evenodd" transform="translate(-258.35 -175.55)"/><path d="m280.3 225.35-20.45-3.1 1.8-2.8 18.4 2.8.25 3.1" fill="#aaa" fill-rule="evenodd" transform="translate(-258.35 -175.55)"/><path d="M32.7 4.15h.05l.3-.4.05-.1.15-1-.15-.95-.05-.05L33 1.5m0 .05-.05-.05v-.05h-.25m-.15 2.7h.1m-7.2-.9-8.1 22.35h.05l1.55.2.1.05.55.15m.4.1.2.1.35.1M25 12.5l.15-.45V12l.1-.3m2.65-8.15 4.65.6m-8 28-.05-1.3-.05-.2q-.55-3-3.9-4.35m4 5.85q.3.95.25 2.05l-2.65 15.5-.05.15-.15-.05L1.5 46.7l-.35-.05-.2-.05-.05-.1-.9-2.75 7.8-13.2q3.05-5.6 9.55-4.95m15.3-24.15L22.3.05h-.2L21.9 0l-.05.05-.45.5q-.3.4-.25 1l.2.65.1.15.3.35.15.05 3.55.5M20 26.1l-.3-.1h-.1m2.1 20.55v-.05m.5.2v-.05" fill="none" stroke="#69513b" stroke-linecap="round" stroke-linejoin="round" stroke-width=".05"/><path d="M291.05 177H291m.3.05h.05m-12.45 24.8 4.45-13.8m.25-.8.05-.1.05-.15 2.55-7.9m5.2-1.85.15.95-.15 1m-7.85 8.05-.1.3-.15.5m-2.85 37.2v.15h-.05" fill="none" stroke="#69513b" stroke-linecap="round" stroke-linejoin="round" transform="translate(-258.35 -175.55)"/></g></defs></svg>