<svg viewBox="0 0 55.808 101.69" xmlns="http://www.w3.org/2000/svg" xmlns:xlink="http://www.w3.org/1999/xlink"><use transform="translate(.02 .02)" width="55.75" height="101.65" xlink:href="#a"/><defs><g id="a"><path d="m286.55 152.9-.95.55q-.8.7.65.45l.65-.35q.5-.65-.35-.65m2.1 3.55-.15-.8q-.35-.65-1.4-.6-1.1.05-2.3.7l-.85.6-.9 1.05q-.6.9-.25 1.55l.2.25q.4.4 1.3.35l1.35-.3.9-.45q1.2-.65 1.8-1.6l.3-.75m-7.75 1.3q-.1-.8.25-1.7.45-1.2 1.75-2.5 5.85-3.35 10-2.9l.2.1q0 1.2 1.8.9 1.95-.6 1.95-1.8 3.2-1.1 4.65-.45l-6.55 14.15h.4l.65.2q.85 2.2-.8 2.75v-.05l-.15-.5q-.1-.2-.3-.25l-.3-.05-.2.3.1.4.3.35h-.5l-.35-.2-3.05 6.25q-1.1-1-3.45 2.15-1.2 2.15-.35 3.1-3.3 3.35-7.65 5.4l-.75 1.9h-.2l-1.6.9-.2.15q-.35.3-.2.4l.15.15h1.45l-5.75 14.7q-.6-1.75-1.75 2.15l-.25.3q-1.65 4.45-.85 3.65l-8.9 22.2-.65.4 3.25-10.55-4.35 10.1-2.6.7 5.35-11.6.55-1.6q-.8-.3-1.5.9.35-1.25.85-2.55 1.2-2.95 3.55-5.85l.8-.5 3.45-8.5q2.05-.25 3.45-4.35 1.4-3.9 0-4.15l2.75-6.85.6-1.6-.4.15-1.6-1.1q-2.55-2.05-2.3-5.65-.05-2.45 1.95-4.05l1.3-3.25-.7.75-.4-.05.1-.15v-.1l-.1-.4-.3-.35h-.3q-.15.05-.15.25l.1.45.25.3h.05l.05.05q-2.15.05-2.15 1.1-.55-.9.05-2.1.55-1.2 1.7-2 1.2-.75 2.35-.65l.4-.05.6.2q.35-2.45 2.5-5.35 1-.3 2.2-2 1.1-2.6-.25-2.15m3.9 5.95-.1-.8q-.4-.65-1.5-.6-1.1 0-2.3.7-1.15.7-1.75 1.65-.6.9-.2 1.55l.15.25q.4.35 1.3.4 1.1-.1 2.25-.8 1.2-.7 1.8-1.55l.35-.8m2.5 1.35q.35.45 1.25.4l.65-.05 1.65-.65q1.2-.7 1.75-1.6l.4-.75-.15-.8q-.35-.65-1.5-.6-1.1 0-2.3.7l-1.35 1.1-.4.5q-.55.95-.2 1.6l.2.15m9.8-10.45-.15-.85q-.35-.6-1.45-.55-1.15 0-2.3.7-1.2.7-1.75 1.65-.6.9-.25 1.5l.2.25q.35.4 1.25.4 1.15-.05 2.35-.75 1.15-.7 1.7-1.6l.4-.75m-21.8 13.9-.3-.35-.3.05q-.15 0-.15.25l.1.45.3.3h.35l.1-.15v-.15l-.1-.4m2.4-.3-.3-.4-.95-.55.95.55.3.4m3.05 3.8-.15-.8q-.35-.6-1.45-.55-1.1 0-2.3.7-1.15.7-1.75 1.6-.6.95-.25 1.55l.2.2q.4.45 1.3.4 1.1 0 2.25-.7 1.2-.7 1.8-1.6l.35-.8m7.75-1.3q.1-.45-.15-.85-.35-.6-1.45-.55-1.1 0-2.3.7-1.15.7-1.75 1.65-.6.9-.25 1.5l.2.25q.4.4 1.3.4 1.1-.05 2.25-.75 1.2-.7 1.8-1.6l.35-.75m3.7-4.4 1.6.2-1.6-.2m1.15-.95-.1-.4-.3-.35h-.35l-.15.3.1.45.3.3h.35l.15-.3m-1.95-.05q.5-.7 1.3-1.15 1.1-.65 2.25-.6-1.15-.05-2.25.6-.8.45-1.3 1.15m3.85-.3-.1-.4-.35-.35-.3.05-.2.25.2.45.25.3h.35l.15-.3m-.55-5.7.6-.35q.6-.65-.35-.65l-.95.55q-.7.65.7.45m-21.05 9.75-.05-.4-.4-.35-.25.05q-.15 0-.2.25l.15.45.2.25.1.05h.35l.1-.15v-.15m2.85.45q-.8-.15-1.6.5.8-.65 1.6-.5m-4.55.25q-.15.05-.15.25l.1.45.25.3h.4l.1-.15v-.1l-.1-.4-.3-.35h-.3m4.9 9.25q.95-1.05-.65-1.1l-1.7 1q-1.2 1.1 1.25.75l1.1-.65" fill="#ff0" fill-rule="evenodd" transform="translate(-247.1 -149.15)"/><path d="M286.55 152.9q.85 0 .35.65l-.65.35q-1.45.25-.65-.45l.95-.55m6.55-2.15q1.35.5 3.75-.9 0 1.2-1.95 1.8-1.8.3-1.8-.9m-23.95 50.1q3.35-3.6 3.45-8.5 1.4.25 0 4.15-1.4 4.1-3.45 4.35m9.8-38.95q2.15-2.1 1.95-4.15 1.35-.45.25 2.15-1.2 1.7-2.2 2m-2 10.95q-.35-.35.3-1 1.2-.2 1.4.25-1.1-.15-1.7.75m10 5.15q-.85-.95.35-3.1 2.35-3.15 3.45-2.15.4.95-.35 2.55-1.85 3.9-3.45 2.7m-8.4 7.3.55.1q.45.25-.15.95l-1 .55h-1.45l-.15-.15.4-.55 1.6-.9h.2m16.15-26q-1.4.2-.7-.45l.95-.55q.95 0 .35.65l-.6.35M276.85 179l-1.1.65q-2.45.35-1.25-.75l1.7-1q1.6.05.65 1.1" fill="#8db044" fill-rule="evenodd" transform="translate(-247.1 -149.15)"/><path d="m283 159.2-.2-.25q-.35-.65.25-1.55l.9-1.05.85-.6q1.2-.65 2.3-.7 1.05-.05 1.4.6l.15.8q-2.2-.3-4 1.05-.9.65-1.65 1.7m18.5-9.8q1.95.4 1.1 1.95l-5.7 12.95.4.5q.6 1.05.1 2.3-.55 1.3-1.85 2.05l-.95.4q-.2 1.8-1 3.45-.65 1.4-1.7 2.65-1.1 2.1-2.5 3.8l-2.65 2.7-5.4 3.1q-3.65 11.65-9.55 22.95l1.25.75.45.7q-.8 3.25-3.15 7.75-.55-1-2-.4l-.6 1.45q-3.45 10.95-8.55 21.3l-1.65 3.2q-.3 1.1 1 1.95.35 1.45-.85 2.45-.65-2.4-3.05-1.8l5.8-15.65 8.9-22.2.3-.3 1.2-3.35 1.3-2.45h.05l5.75-14.7 1-.55q.6-.7.15-.95l-.55-.1.75-1.9q4.35-2.05 7.65-5.4 1.6 1.2 3.45-2.7.75-1.6.35-2.55l3.05-6.25.35.2h.5l-.3-.35-.1-.4.2-.3.3.05q.2.05.3.25l.15.5v.05q1.65-.55.8-2.75l-.65-.2h-.4l6.55-14.15m-26.15 36.1-1.4-2.55 1.6 1.1.4-.15-.6 1.6m-1.75-12.25-.2-.05-.7-.15q-.85-.3-1.35-1.2 0-1.05 2.15-1.1l-.05-.05h-.05l-.25-.3-.1-.45q0-.2.15-.25h.3l.3.35.1.4v.1l-.1.15.4.05.7-.75-1.3 3.25m5.5-6.8-.15-.25q-.4-.65.2-1.55.6-.95 1.75-1.65 1.2-.7 2.3-.7 1.1-.05 1.5.6l.1.8q-3.3-.5-5.7 2.75m8.2-1.4-.2-.15q-.35-.65.2-1.6l.4-.5 1.35-1.1q1.2-.7 2.3-.7 1.15-.05 1.5.6l.15.8q-2.65-.4-4.65 1.5-.6.5-1.05 1.15m4.1-7.75-.2-.25q-.35-.6.25-1.5.55-.95 1.75-1.65 1.15-.7 2.3-.7 1.1-.05 1.45.55l.15.85q-3.35-.5-5.7 2.7m-16.1 11.2.1.4v.15l-.1.15h-.35l-.3-.3-.1-.45q0-.25.15-.25l.3-.05.3.35m-.25 6.2-.2-.2q-.35-.6.25-1.55.6-.9 1.75-1.6 1.2-.7 2.3-.7 1.1-.05 1.45.55l.15.8-2.1.1q-.2-.45-1.4-.25-.65.65-.3 1v.05h-.05q-1 .65-1.85 1.8m7.75-1.3-.2-.25q-.35-.6.25-1.5.6-.95 1.75-1.65 1.2-.7 2.3-.7 1.1-.05 1.45.55.25.4.15.85-3.35-.5-5.7 2.7m10.55-8.05-.15.3h-.35l-.3-.3-.1-.45.15-.3h.35l.3.35.1.4m1.9-.35-.15.3h-.35l-.25-.3-.2-.45.2-.25.3-.05.35.35.1.4m-.95 2.9q.25-.75-.15-1.2.4.45.15 1.2m2.6-3.6q-.35-.4-.9-.55.55.15.9.55m-23.25 4.75v.15l-.1.15h-.35l-.1-.05-.2-.25-.15-.45q.05-.25.2-.25l.25-.05.4.35.05.4m-1.7.7h.3l.3.35.1.4v.1l-.1.15h-.4l-.25-.3-.1-.45q0-.2.15-.25m1.5 2.2.75-1.2-.75 1.2" fill="#decd01" fill-rule="evenodd" transform="translate(-247.1 -149.15)"/><path d="M272.2 201.6h-.05l-1.3 2.45-1.2 3.35-.3.3q-.8.8.85-3.65l.25-.3q1.15-3.9 1.75-2.15" fill="#bb3d00" fill-rule="evenodd" transform="translate(-247.1 -149.15)"/><path d="m270.35 217.4-2.6 1.05.6-1.45q1.45-.6 2 .4m-8.9 1.55q-1 .25-.95-.7.7-1.2 1.5-.9l-.55 1.6" fill="#9a8e01" fill-rule="evenodd" transform="translate(-247.1 -149.15)"/><path d="m247.1 248.4.75-1.1 6.8-1.75.1 1.05 1.7 1.65-1.7-.6-.55.3.1 1.35-.7-1.2-1.25.05.5 1-1.15-.95h-.7l-1.4-.65.95.65-.85.1-1.55-.75 1.15.75-2.2.1" fill="#093" fill-rule="evenodd" transform="translate(-247.1 -149.15)"/><path d="m257.7 247.35-.9 2.6q-.75.4-1.45.85l-7.05-.35-1.2-2.05 2.2-.1-1.15-.75 1.55.75.85-.1-.95-.65 1.4.65h.7l1.15.95-.5-1 1.25-.05.7 1.2-.1-1.35.55-.3 1.7.6-1.7-1.65-.1-1.05q2.4-.6 3.05 1.8" fill="#063" fill-rule="evenodd" transform="translate(-247.1 -149.15)"/><path d="M247.85 247.3q-.55-1.1 1.35-2.15 1.8-1.25 2.55-2.75 1.15-4.95 3.35-9.75l1-2.1 2.6-.7 4.35-10.1-3.25 10.55.65-.4-5.8 15.65-6.8 1.75" fill="#e8e800" fill-rule="evenodd" transform="translate(-247.1 -149.15)"/><path d="m35.9 10.05-.2-.25q-.35-.65.25-1.55l.9-1.05.85-.6q1.2-.65 2.3-.7 1.05-.05 1.4.6l.15.8-.3.75q-.6.95-1.8 1.6l-.9.45-1.35.3q-.9.05-1.3-.35.75-1.05 1.65-1.7 1.8-1.35 4-1.05M33.8 8.6q-.1-.8.25-1.7.45-1.2 1.75-2.5 5.85-3.35 10-2.9l.2.1q1.35.5 3.75-.9 3.2-1.1 4.65-.45 1.95.4 1.1 1.95l-5.7 12.95m-2.3 5.25q-.2 1.8-1 3.45-.65 1.4-1.7 2.65-1.1 2.1-2.5 3.8L39.65 33l-5.4 3.1Q30.6 47.75 24.7 59.05l1.25.75.45.7q-.8 3.25-3.15 7.75l-2.6 1.05Q17.2 80.25 12.1 90.6l-1.65 3.2q-.3 1.1 1 1.95.35 1.45-.85 2.45l-.9 2.6q-.75.4-1.45.85l-7.05-.35L0 99.25l.75-1.1Q.2 97.05 2.1 96q1.8-1.25 2.55-2.75Q5.8 88.3 8 83.5l1-2.1 5.35-11.6q-1 .25-.95-.7.35-1.25.85-2.55 1.2-2.95 3.55-5.85l.8-.5 3.45-8.5q3.35-3.6 3.45-8.5l2.75-6.85-1.4-2.55q-2.55-2.05-2.3-5.65-.05-2.45 1.95-4.05l-.2-.05-.7-.15q-.85-.3-1.35-1.2-.55-.9.05-2.1.55-1.2 1.7-2 1.2-.75 2.35-.65l.4-.05.6.2q.35-2.45 2.5-5.35Q34 10.65 33.8 8.6q1.35-.45.25 2.15-1.2 1.7-2.2 2M32 17.3l-.15-.25q-.4-.65.2-1.55.6-.95 1.75-1.65 1.2-.7 2.3-.7 1.1-.05 1.5.6l.1.8-.35.8q-.6.85-1.8 1.55-1.15.7-2.25.8-.9-.05-1.3-.4 2.4-3.25 5.7-2.75m8.2-1.3-.4.75q-.55.9-1.75 1.6l-1.65.65-.65.05q-.9.05-1.25-.4l-.2-.15q-.35-.65.2-1.6l.4-.5 1.35-1.1q1.2-.7 2.3-.7 1.15-.05 1.5.6l.15.8q-2.65-.4-4.65 1.5-.6.5-1.05 1.15m4.1-7.75q2.35-3.2 5.7-2.7M29.35 18.1l.95.55.3.4m-2.65 6.5-.2-.2q-.35-.6.25-1.55.6-.9 1.75-1.6 1.2-.7 2.3-.7 1.1-.05 1.45.55l.15.8-.35.8q-.6.9-1.8 1.6-1.15.7-2.25.7-.9.05-1.3-.4.85-1.15 1.85-1.8h.05v-.05q-.35-.35.3-1 1.2-.2 1.4.25l2.1-.1m2.05 1.4-.2-.25q-.35-.6.25-1.5.6-.95 1.75-1.65 1.2-.7 2.3-.7 1.1-.05 1.45.55.25.4.15.85l-.35.75q-.6.9-1.8 1.6-1.15.7-2.25.75-.9 0-1.3-.4 2.35-3.2 5.7-2.7m5.3-4.2-1.6-.2M7.55 96.4q2.4-.6 3.05 1.8m36.45-80.65q.4.45.15 1.2m-.5-1.4.35.2M46 1.6q0 1.2 1.8.9 1.95-.6 1.95-1.8M27.8 20.85l-1.3 3.25M14.35 69.8l.55-1.6M7.55 96.4l-6.8 1.75m29.1-74.45q.6-.9 1.7-.75" fill="none" stroke="#000" stroke-linecap="round" stroke-linejoin="round" stroke-opacity=".4" stroke-width=".05"/><path d="m49.8 15.15.4.5q.6 1.05.1 2.3-.55 1.3-1.85 2.05l-.95.4M44.3 8.15l-.2-.25q-.35-.6.25-1.5.55-.95 1.75-1.65 1.15-.7 2.3-.7 1.1-.05 1.45.55l.15.85-.4.75q-.55.9-1.7 1.6-1.2.7-2.35.75-.9 0-1.25-.4m4.6 6.45-.65-.2h-.4q-1.15-.05-2.25.6-.8.45-1.3 1.15m4.6-1.55q.55.15.9.55M27.1 21.6l.7-.75q.8-.65 1.6-.5m-2.3 1.25-.75 1.2" fill="none" stroke="#000" stroke-linecap="round" stroke-linejoin="round" stroke-opacity=".4" stroke-width=".05"/></g></defs></svg>