<svg viewBox="0 0 31.15 25.2" xmlns="http://www.w3.org/2000/svg" xmlns:xlink="http://www.w3.org/1999/xlink"><use transform="translate(.025 .025)" width="31.1" height="25.15" xlink:href="#a"/><defs><g id="a"><path d="m26.1 19.2 5.1-2.95 8.75-2.2.05.85.35 15.8-1.85-1.6.6 6.35-16.25-2.5-.6 1.75-7.75-4.45-5.25-2.1 7.5-5.5v-.05l.55-.05 3.75-.45 5.05-2.9m2.15 2.6q-.7.4-.85 1.15t.35 1.4q.45.65 1.3.85l1.55-.25.85-1.15q.15-.75-.35-1.4-.5-.7-1.3-.85-.85-.15-1.55.25m1.35-3.85-7.65 5.1 7.65-5.1m5.1 1.55q-.6.3-.7.95-.15.65.25 1.2.4.5 1.1.65l1.25-.2q.6-.35.7-.95.15-.65-.25-1.2t-1.1-.65l-1.25.2m-2.9-2.55L40 14.9l-8.2 2.05m-15.05 5.7v-.05.05m3.4 5.75-1.8.2h-.2l-.45 1.5.5.1h.05l3.65.75 1.2-.4 3.95.65-.35-.35-.3-.2-1.8-1.15-.75-.5-3-.45-.7-.15m7.65 3.7-.75-.9.75.9m-7.45-8.6-3.85.25 3.85-.25" fill="#a39550" fill-rule="evenodd" transform="translate(-9.25 -10.3)"/><path d="m19.25 28.5.9-.1.7.15 3 .45.75.5 1.8 1.15.3.2.35.35-3.95-.65-1.2.4-3.65-.75h-.05l-.5-.1.45-1.5h.2l.9-.1" fill="#c2af5f" fill-rule="evenodd" transform="translate(-9.25 -10.3)"/><path d="m22.45 13.8.05-1.9 1.3-1.2 1.2.45-.1 1.4-2.45 1.25" fill="#7a6d3b" fill-rule="evenodd" transform="translate(-9.25 -10.3)"/><path d="m24.9 12.55 1.7-.85.7-1.4.9 1.9-2.05 2.05-.05 4.95-5.05 2.9-3.75.45 3.15-5.7.7-2.4 1.3-.65 2.45-1.25m-.05 3.7.45-1.2.85-.8-.85.8-.45 1.2" fill="#7c6d3f" fill-rule="evenodd" transform="translate(-9.25 -10.3)"/><path d="M28.25 21.8q.7-.4 1.55-.25.8.15 1.3.85.5.65.35 1.4l-.85 1.15-1.55.25q-.85-.2-1.3-.85-.5-.65-.35-1.4t.85-1.15m6.45-2.3 1.25-.2q.7.1 1.1.65t.25 1.2q-.1.6-.7.95l-1.25.2q-.7-.15-1.1-.65-.4-.55-.25-1.2.1-.65.7-.95" fill="#99702c" fill-opacity=".651" fill-rule="evenodd" transform="translate(-9.25 -10.3)"/><path d="M15.65 2.25 13.2 3.5m3.7.45-.85.8-.45 1.2M10 18.2l.9-.1m.7.15 3 .45.75.5m1.8 1.15.3.2.35.35.75.9m-10.1-2 .45-1.5h.2" fill="none" stroke="#675128" stroke-linecap="round" stroke-linejoin="round" stroke-opacity=".6" stroke-width=".05"/><path d="m12.7 12.75 7.65-5.1m10.4-3.05-8.2 2.05M8.95 19.9H9m-1.75-6.45 3.85-.25" fill="none" stroke="#dacc9e" stroke-linecap="round" stroke-linejoin="round" stroke-width=".05"/><path d="m15.65 2.25 1.7-.85.7-1.4.9 1.9-2.05 2.05-.05 4.95 5.1-2.95 8.75-2.2.05.85.35 15.8-1.85-1.6.6 6.35-16.25-2.5-.6 1.75-7.75-4.45L0 17.85l7.5-5.5m0-.05.55-.05 3.15-5.7.7-2.4 1.3-.65.05-1.9 1.3-1.2 1.2.45-.1 1.4m-7.6 10 3.75-.45 5.05-2.9M7.5 12.3v.05" fill="none" stroke="#4f3517" stroke-linecap="round" stroke-linejoin="round" stroke-width=".05"/></g></defs></svg>