<svg viewBox="0 0 73.89 33.278" xmlns="http://www.w3.org/2000/svg" xmlns:xlink="http://www.w3.org/1999/xlink"><use transform="translate(.04 -3.12)" width="73.85" height="36.4" xlink:href="#a"/><defs><linearGradient id="e" x1="-819.2" x2="819.2" gradientTransform="matrix(-.0169 .0098 -.0108 -.0186 .35 1.55)" gradientUnits="userSpaceOnUse"><stop stop-color="#ede6c9" offset="0"/><stop stop-color="#cfbe9b" offset="1"/></linearGradient><linearGradient id="i" x1="-819.2" x2="819.2" gradientTransform="matrix(-.0169 .0098 -.0108 -.0186 .9 3.45)" gradientUnits="userSpaceOnUse"><stop stop-color="#ede6c9" offset="0"/><stop stop-color="#cfbe9b" offset="1"/></linearGradient><linearGradient id="j" x1="-819.2" x2="819.2" gradientTransform="matrix(-.0169 .0098 -.0108 -.0186 .9 3.45)" gradientUnits="userSpaceOnUse"><stop stop-color="#c9b68b" offset="0"/><stop stop-color="#b69e75" offset="1"/></linearGradient><linearGradient id="k" x1="-819.2" x2="819.2" gradientTransform="matrix(-.0139 .0013 -.0005 -.0053 11.55 8.1)" gradientUnits="userSpaceOnUse"><stop stop-color="#930" offset="0"/><stop stop-color="#541a01" offset="1"/></linearGradient><linearGradient id="l" x1="-819.2" x2="819.2" gradientTransform="matrix(-.0193 0 0 -.0095 -15.85 4.8)" gradientUnits="userSpaceOnUse"><stop stop-color="#c9b68b" offset="0"/><stop stop-color="#b69e75" offset="1"/></linearGradient><linearGradient id="m" x1="-819.2" x2="819.2" gradientTransform="matrix(-.0017 .0004 -.0005 -.002 -9.75 -7.85)" gradientUnits="userSpaceOnUse"><stop stop-color="#c9b68b" offset="0"/><stop stop-color="#b69e75" offset="1"/></linearGradient><use width="35.15" height="11.5" xlink:href="#f" id="c"/><use width="35.15" height="11.5" xlink:href="#g" id="f"/><use width="72.7" height="30.1" xlink:href="#h" id="d"/><g id="a" transform="translate(36.9 18.2)"><use transform="translate(35.8 -6.45)" width="1.15" height="2.45" xlink:href="#b"/><use transform="matrix(1 0 0 .6087 -30.3 11.2)" width="35.15" height="11.5" xlink:href="#c"/><use transform="matrix(1 .0619 0 1 -36.9 -18.2)" width="72.7" height="30.1" xlink:href="#d"/></g><g id="b"><path d="M35.8-6.45q1.9 1.05.6 2.1l-.6.35v-2.45" fill="url(#e)" fill-rule="evenodd" transform="translate(-35.8 6.45)"/><path d="M0 0q1.9 1.05.6 2.1l-.6.35" fill="none" stroke="#502f21" stroke-linecap="round" stroke-linejoin="round" stroke-opacity=".651" stroke-width=".05"/></g><g id="h"><path d="M14.3-12.55q-3-2.25.2-2.5 3.75 2.25 3.4 3.2 9.6 2.05 11.85 5.3 4.75 1 6.6 2v2.45q-1.1.5-2.85.35 2.5.7 2.8 1.55-2.55 1.6-5.75.6l2.05 1.15q2.7 2 .75 3.45-2.7.15-5.85-2.5l.3 1.05Q21.4 7.7 10.6 5.8 4.75 7.85.5 5.8-11.1 8-9.8 4.55l-3.7.5q-10.9 1.1-6-3.35-3.8.95 2.7-4.7l3.3-1.55 3.4-1.4 4.4-1.65q1.2-.9-7.8-1.05 4.95-2.35 10.55-.1-3.35-1.4-2.3-2.15 4.25-1.45 6.85.95 6.3-1.75 12.7-2.6m19.2 10.8-3.15-.7 3.15.7" fill="url(#i)" fill-rule="evenodd" transform="translate(36.35 15.05)"/><path d="M36.3-.2q.2.6-.6 1.25-.8 1-3.1.5L30.55.4q3.2 1 5.75-.6M33.35 5l-.7.4-3 .15q-1-.55-1.5-1.35l-.35-.65-.3-1.05q3.15 2.65 5.85 2.5" fill="url(#j)" fill-rule="evenodd" transform="translate(36.35 15.05)"/><path d="M29.65 5.55q-1.4 3.9-7.5 5.8Q7.4 10.7-13.5 14.4l-2.6.45-1.1.2-6.95-.2q-12.6-.95-12.2-6.2l1-.65q1.1 4.9 19.4 4.6l2.45-.45Q5.25 8.6 22.15 8.65q5-1.15 6-4.45.5.8 1.5 1.35" fill="url(#k)" fill-rule="evenodd" transform="translate(36.35 15.05)"/><path d="M-35.35 8Q-26.2 1.5-16.8-3q-6.5 5.65-2.7 4.7-4.9 4.45 6 3.35l3.7-.5Q-11.1 8 .5 5.8q4.25 2.05 10.1 0 10.8 1.9 17.2-2.25l.35.65q-1 3.3-6 4.45-16.9-.05-35.65 3.5l-2.45.45q-18.3.3-19.4-4.6" fill="url(#l)" fill-rule="evenodd" transform="translate(36.35 15.05)"/><path d="M-10.1-5.95q-2.65-.75-3.4-1.45l-.25-.4q-.2-.4.25-.85 9 .15 7.8 1.05l-4.4 1.65" fill="url(#m)" fill-rule="evenodd" transform="translate(36.35 15.05)"/><path d="M50.65 2.5q-3-2.25.2-2.5 3.75 2.25 3.4 3.2 9.6 2.05 11.85 5.3 4.75 1 6.6 2m0 2.45q-1.1.5-2.85.35 2.5.7 2.8 1.55.2.6-.6 1.25-.8 1-3.1.5 2.7 2 .75 3.45l-.7.4-3 .15q-1.4 3.9-7.5 5.8-14.75-.65-35.65 3.05l-2.6.45-1.1.2-6.95-.2Q-.4 28.95 0 23.7M26.25 9.1q-2.65-.75-3.4-1.45l-.25-.4q-.2-.4.25-.85 4.95-2.35 10.55-.1-3.35-1.4-2.3-2.15 4.25-1.45 6.85.95m28.75 7.5 3.15.7m-5.7 5.3-.3-1.05M1 23.05q1.1 4.9 19.4 4.6l2.45-.45q18.75-3.55 35.65-3.5 5-1.15 6-4.45l-.35-.65m.35.65q.5.8 1.5 1.35m2.95-4-2.05-1.15" fill="none" stroke="#502f21" stroke-linecap="round" stroke-linejoin="round" stroke-opacity=".651" stroke-width=".05"/><path d="m0 23.7 1-.65q9.15-6.5 18.55-11l3.3-1.55 3.4-1.4m11.7-4q6.3-1.75 12.7-2.6z" fill="none" stroke="#502f21" stroke-linecap="round" stroke-linejoin="round" stroke-opacity=".651" stroke-width=".05"/></g><path d="M3.55-1.25Q5.05-.7 5.05 0t-1.5 1.2L0 1.75h-.5q-.05.65-1.15 1.1-1.2.55-2.85.55t-2.85-.55q-1.15-.5-1.15-1.2T-7.35.4l2.3-.5q.1-.65 1.45-1.15l3.6-.5 3.55.5M-25.7-6.5l2.45.5.1.1.75-.5 2.55-.5h.7l2.45.5q.6.3.9.6.25-.85 1.7-1.55 1.65-.7 3.9-.75h1.1q2.15.05 3.75.75l.15.15q1.55.75 1.65 1.7v.25l-.3.7-.35.3-1.15.7q-1.8.8-4.35.85l-1.25-.05-.8.45q-1.05.5-2.55.55-.3.35-.95.65-1.2.55-2.85.55t-2.85-.55q-1.15-.5-1.15-1.2t1.1-1.2q-.75-.15-1.4-.45l-.1-.05q-.3.25-.75.45-1.2.55-2.85.55l-1.45-.1-1.4-.45q-1.15-.5-1.15-1.2T-28.95-6l2.55-.5h.7" fill="#700" fill-rule="evenodd" transform="translate(30.1 8.1)" id="g"/></defs></svg>