<svg viewBox="0 0 90.525 59.175" xmlns="http://www.w3.org/2000/svg" xmlns:xlink="http://www.w3.org/1999/xlink"><g transform="translate(-227.85 -179.72)"><use transform="translate(227.85 179.6)" width="90.5" height="59.3" xlink:href="#a"/><use transform="matrix(.5298 2.5425 2.398 -.4995 283.09 183.72)" width="8.1" height="8.1" xlink:href="#b"/><use transform="translate(228 184.9)" width="35.1" height="32.75" xlink:href="#c"/><use transform="matrix(.5298 2.5425 2.398 -.4995 240.29 187.97)" width="8.1" height="8.1" xlink:href="#b"/><use transform="translate(241.25 196.4)" width="69.65" height="23.85" xlink:href="#d"/></g><defs><g id="a"><path d="M291.55 206.7v11.5q-5.85-1.75-15.2-.55-9.35 1.15-17 3.9-7.7 2.7-12.5 1.95-4.85-.75-14.65 5.25.75-11.15 7.35-18t7-7.9l45 3.85" fill="#824b15" fill-rule="evenodd" transform="translate(-227.85 -179.6)"/><path d="m309 223.45-1.5 4q-.95 2.7.15 5.35h-2.05q-12.9-8.3-28.65-6.05-8.25 1.15-15.2 5.65-2.6 1.75-4.9 4.1l-2 2.4h-1.15q.15-7.5-3.4-14.1l8.85-1.9q.05.85.7 1.5.8.8 1.9.8t1.85-.8q.8-.75.8-1.85l-.05-.5 2.85-.4.45.85q.55.55 1.35.55l.7-.1q.55.55 1.3.55t1.25-.55q.55-.5.55-1.25l-.1-.55 1.35-.1v.05q0 1 .7 1.7t1.7.7 1.7-.7l.65-1.1.35.45q.75.75 1.75.75h.35l.45.55q1.15 1.15 2.75 1.15t2.75-1.15l.7-.9 1.2.35q.95 0 1.6-.65l.2-.2.7.9q1.2 1.2 2.85 1.2t2.8-1.2l.6-.7q.15 1.2 1 2.05 1.1 1.1 2.65 1.1t2.6-1.1q.75-.7 1-1.6l3.9.75" fill="#b1661d" fill-rule="evenodd" transform="translate(-227.85 -179.6)"/><path d="M245.35 217.5h36.9q.95-.7 2.2-.7t2.25.7h4.75l.15-.2q1.2-1.15 2.85-1.15t2.8 1.15l.2.2h5.85l7.6.6-1.9 5.35-3.9-.75q-.25.9-1 1.6-1.05 1.1-2.6 1.1t-2.65-1.1q-.85-.85-1-2.05l-.6.7q-1.15 1.2-2.8 1.2t-2.85-1.2l-.7-.9-.2.2q-.65.65-1.6.65l-1.2-.35-.7.9q-1.15 1.15-2.75 1.15t-2.75-1.15l-.45-.55h-.35q-1 0-1.75-.75l-.35-.45-.65 1.1q-.7.7-1.7.7t-1.7-.7-.7-1.7v-.05l-1.35.1.1.55q0 .75-.55 1.25-.5.55-1.25.55t-1.3-.55l-.7.1q-.8 0-1.35-.55l-.45-.85-2.85.4.05.5q0 1.1-.8 1.85-.75.8-1.85.8t-1.9-.8q-.65-.65-.7-1.5l-8.85 1.9q-1.5-3.15-3.75-5.9l-1.2-1.4" fill="#9a5a1b" fill-rule="evenodd" transform="translate(-227.85 -179.6)"/><path d="M253.7 238.9h-.95q-1.55-9.8-8.1-17.5l-3.4-3.9h4.1l1.2 1.4q2.25 2.75 3.75 5.9 3.55 6.6 3.4 14.1" fill="#7b4815" fill-rule="evenodd" transform="translate(-227.85 -179.6)"/><path d="M255.1 235.45q2.7-4.35 7.15-7.15 7.65-4.8 16.65-3.8-5.8.95-11.9 3.2-6.15 2.25-11.9 7.75M281.3 224.1q4.8-1.5 10.05-.7 8.9 1.35 15.05 7.95-5.05-3-11.1-5.3-6.1-2.35-14-1.95" fill="#df954a" fill-rule="evenodd" transform="translate(-227.85 -179.6)"/><path d="m230.95 195.4-.15-.55.15-.3q.65-.9 1.65-1.3l.85-.1.95-.1V193l.7.2q.6.15 1.2.6.9.65 1.25 1.65l.05.15.1.05v-.2l.2-.2.9-.95 1.1-.7.7-.2 1.7.05.5.25.6.85h.7l1.25.25.45.2.4.25q.65-1.4 2-2.05l.3-.15 1.05-.25q.6-.85 1.5-1.2l.8-.15.95-.05.05-.05.65.2q.65.15 1.25.6l.65.7.55.95.1.15.1.05v-.2l.2-.2.75-.8.1-.15q.8-.65 1.8-.9 1.2-.25 2.2.25l.45.6.2.35h.65l1.25.2.5.2.4.25q.3-.65.8-1.15l1.45-1.05.8-.25q.4.25.75 0l1-.65.85-.15.95-.05v-.05l.65.2q.65.15 1.25.6l.85.85.4.8.15.25v-.25l.2-.2.7-.75.2-.2q.75-.65 1.75-.9 1.2-.25 2.25.25l.25.35.35.6h.7l.6.05.6.1.5.2.45.3.15-.35-.05-.05-.3-.5.1-.35.2-.4q.4-.75 1.1-1.25l.75-.3.9-.3v-.05h.7l1.35.25.9.55.7.75.2.2-.05-.2.15-.25.35-.85.25-.35q.55-.8 1.5-1.3 1.1-.5 2.2-.25l.65.55.15.2.7-.2 1.25-.1.55.1.4.15q.2-1 .75-1.8l.75-.85.75-.6.2.05.9.4 2.25 1.05h.05l.2.1-.2-.15-2.05-1.2-.5-.35-.5-.45q1.8-2.75 4-2.05l1.2-.1.3.1q1 .5 1.55 1.45l.25.8.15.9h.05l-.05.75-.4 1.3-1.45 1.45-.15.05-.05.1h.2l.2.15q.6.3 1.1.75l1.1 1.6q.4 1.15.05 2.25l-.75.75.1.65v1.25l-.15.55-.2.4q.8.25 1.45.75l.2-.1h.35q1.05.25 1.8 1.05l.45.65.4.9h.05l.1.7-.1 1.4-.05.15-1.65 1.7q3.85 7.7-1.6 10.1l-.5.35q-.6.65-.6 1.5l.05.5-2.7-1.05-.55.2-.3-.35-.3-.25-.55-.7q-1.05-1.05-2.55-1.05-1.4 0-2.4.95l-1-1.5q-1.25-1.25-3.05-1.25-1.75 0-3 1.2l-.5-.6q-.9-.9-2.2-.9t-2.25.9q-.9.95-.9 2.25v.25l-.75-.1-.5.05q-.15-.65-.65-1.15-.7-.7-1.7-.7t-1.7.7-.7 1.7l.05.35-3.3-1.5-.6-1.15-.3.3-.15.25-.95-.55-.55.55-.1.15-.15-.15q-.65-.65-1.6-.65l-.85.2-.6-.75q-.95-.95-2.3-.95t-2.35.95q-.95 1-.95 2.35l.05.55-2.15-1.3-2.35-1.5-2.05 1.3-.35-.55-.25-.45-.5-.85-.2.25-.05.05-.15.4.95.85.35.4-.6-.15-6.2-2.05-1.65 1.65h-.55q-3.2-.45-5.35-2.75l-.85 1.65-.7.25-1.85.5-.8-1.35-.8-1.3-.25.25-.1.4.9.85 1 1.15-4.2.35q-2-6.4-5-11.4l-1.25-2-1.65-2.2-.5-.65.5-.4q1.25-1 2.6-1.7m21.55 1.3-.9 1.1-.95.85.1.4.1.05.2.2.45-.8.3-.5.75-1.15.05-.05q.25-.55.65-1.05l-.75.95m4.2.65-.1.05h-.05l-.1.05.25.05v-.15m12.35.25.15.35.25.25.75-1.3 1.45-2.25-1.25 1.65-.4.4-.95.8v.1m5.85-1.25.2.05v-.2l-.05.1h-.1l-.05.05m10.9.5.35.2.4-1.45.85-2.55-1.05 2.4-.75 1.05.2.35m5.3-3.05h-.05l-.05.15h.2l-.1-.2v.05m16.45 8.8v.05l.9.2-.9-.25m.55 4.05.2-.1h-.05l-.15-.15v.25M263 214.4v-.25l-.2.05.05.1h.1l.05.1m-24.95-15.3.2.1v-.25l-.1.1h-.05l-.05.05m-5.45 1.85.75-1.3 1.45-2.25-1.65 2.05-.95.85.15.4.25.25" fill="#84512f" fill-rule="evenodd" transform="translate(-227.85 -179.6)"/><path d="M312.25 200.75h-.05l.05-.05v.05m-12.1-15.8-.75.6.5-.7.25.1m-28.9 5.3v.05-.05m-2.8.9q-.35.25-.75 0l.6-.1.15.1m-15.6.2-.05.05v-.05h.05M234.4 193v.05-.05m66.1-8.6-.05.05.05-.05" fill="#f5eed3" fill-rule="evenodd" transform="translate(-227.85 -179.6)"/><path d="m240.45 213.4-1-1.15-.9-.85.1-.4.25-.25.8 1.3.8 1.35h-.05m60.05-29 .5.45.5.35 2.05 1.2-.05.05-2.25-1.05-.9-.4-.2-.05.3-.5.05-.05m-47.9 12.4-.05.05-.75 1.15-.3.5-.45.8-.2-.2-.1-.05-.1-.4.95-.85.9-1.1.1.1m16.45.8v-.1l.95-.8.4-.4 1.25-1.65-1.45 2.25-.75 1.3-.25-.25-.15-.35m16.75-.75-.2-.35.75-1.05 1.05-2.4-.85 2.55-.4 1.45-.35-.2m-53.2 4.1-.25-.25-.15-.4.95-.85 1.65-2.05-1.45 2.25-.75 1.3" fill="#4f301c" fill-rule="evenodd" transform="translate(-227.85 -179.6)"/><path d="m303.55 186.4.2.15-.2-.1h-.05l.05-.05m-50.95 10.4-.1-.1.75-.95q-.4.5-.65 1.05m47.85-12.35-.3.5-.25-.1.25-.25.3-.15m7.1 18.15.9.25-.9-.2v-.05m-1.9 19.15.1-.1.1-.2.05.05v.25h-.25m3.1 2.65.05-.05v.05h-.05m4.5-2.6q.3-1.55-.35-2.95l.5-.15.2-.15v3.25h-.35m-16.3-.35.35-.5.4.3.4.25.1.1-.5-.1-.75-.05m-22.95-.9q.4-.3.75 0l-.15.1-.6-.1m3.6.85v.05-.05m-18.45-1.15.05.1h-.05v-.1m2.9-1.75.25-.65.15-.2v.2l.2.25.35.45-.95-.05m-21.6-5.1h.05-.05m.25 5.25.05.05h-.05v-.05" fill="#dec696" fill-rule="evenodd" transform="translate(-227.85 -179.6)"/><path d="m290.25 189.4-.35.85-.15.25.05.2-.2-.2-.7-.75 1.35-.35m-14.8 2.35-.7.75-.2.2v.25l-.15-.25-.4-.8 1.45-.15m-18.35 1.05-.75.8-.2.2v.2l-.1-.05-.1-.15-.55-.95 1.7-.05m-.4 4.55v.15l-.25-.05.1-.05h.05l.1-.05m18.2-1 .05-.05h.1l.05-.1v.2l-.2-.05m16.2-2.55v-.05l.1.2h-.2l.05-.15h.05m17 12.85v-.25l.15.15h.05l-.2.1M263 214.4l-.05-.1h-.1l-.05-.1.2-.05v.25m-24.95-15.3.05-.05h.05l.1-.1v.25l-.2-.1" fill="#f5eed5" fill-rule="evenodd" transform="translate(-227.85 -179.6)"/><path d="m236.25 213.75 4.2-.35h.05l1.85-.5.7-.25.85-1.65q2.15 2.3 5.35 2.75h.55l1.65-1.65 6.2 2.05.6.15-.35-.4-.95-.85.15-.4.05-.05.2-.25.5.85.25.45.35.55 2.05-1.3 2.35 1.5 2.15 1.3-.05-.55q0-1.35.95-2.35 1-.95 2.35-.95t2.3.95l.6.75.85-.2q.95 0 1.6.65l.15.15.1-.15.55-.55.95.55.15-.25.3-.3.6 1.15 3.3 1.5-.05-.35q0-1 .7-1.7t1.7-.7 1.7.7q.5.5.65 1.15l.5-.05.75.1V215q0-1.3.9-2.25.95-.9 2.25-.9t2.2.9l.5.6q1.25-1.2 3-1.2 1.8 0 3.05 1.25l1 1.5q1-.95 2.4-.95 1.5 0 2.55 1.05l.55.7.3.25.3.35.55-.2 2.7 1.05-.05-.5q0-.85.6-1.5l.5-.35q5.45-2.4 1.6-10.1l1.65-1.7-.95 1.55-.1.15v.05l.2-.05.25.1 1.25.45.95.6.15-.05q2.9 2.8 3.9 6.7l.4.4.1.75-.1.75-.25 1.05-.05.15q-.65 1.1-1.7 1.6l-1-.15-.5.55-.9.8-.1.1-.15.05-.2.15-.5.15q.65 1.4.35 2.95l-.05.15-.65 1.3-.35.1q-.65.7-1.55 1l-.9.05-.95-.05-.05.05-.6-.25-1.15-.8q-.8-.7-1.1-1.6v-.25l-.05-.05-.1.2-.1.1-.1.05-.95.9q-.85.55-1.85.65-1.3.1-2.25-.45l-.45-.95-.7-.1-1.15-.25-.1-.1-.4-.25-.4-.3-.35.5q-.8 1-2.1 1.45l-1.4.2q-.95-.65-1.95-1.15l-.05-.65-1-.65q-.65-.65-1.05-1.5l-.45.3-.45.2-1.25.25h-.7l-.25.35-.35.5-2.2.25q-1-.25-1.8-.85l-.25-.2-.65-.8-.2-.2v-.2l-.1.2-.45.85-.8.85-1.25.6-.65.2v-.05l-1-.1-.8-.1q-.6-.25-1.05-.65-.35-.3-.75 0l-.75-.3q-.95-.4-1.55-1.1l-.75-1.05-.4.25-.5.2-1.2.2h-.7l-.05.15-.6.75-2.15.3q-1-.25-1.8-.9l-.55-.5-.35-.45-.2-.25v-.2l-.15.2-.25.65-.95 1-1.25.65-.65.2-.05-.1-.95-.05-.85-.1q-.9-.4-1.5-1.2l-1.05-.25-1.1-.7q-.75-.65-1.15-1.5l-.4.25-.5.2-1.25.2h-.7l-.6.9h-.05l-2.15.3-.35-.1q-.8-.3-1.4-.8l-.95-.95-.15-.2V216l-.1.1-.05.15q-.35.95-1.25 1.6l-1.25.65-.65.2-.05-.05-.95-.1-.85-.15q-1-.4-1.7-1.3l-.4-1.35-.15-.55-.4-1.45m78.8-3.5.05-.05v-.1l-.2.1.15.1v-.05" fill="#7b4815" fill-rule="evenodd" transform="translate(-227.85 -179.6)"/><path d="m6.55 13.45-.95.1-.85.1q-1 .4-1.65 1.3l-.15.3.15.55m81.25 7.6.05-.15.1-1.4-.1-.7v-.05l-.05.05-.4-.9-.45-.65q-.75-.8-1.8-1.05h-.35l-.2.1q-.65-.5-1.45-.75l.2-.4.15-.55V15.7l-.1-.65.75-.75q.35-1.1-.05-2.25l-1.1-1.6q-.5-.45-1.1-.75l-.2-.15h-.2l.05-.1.15-.05 1.45-1.45.4-1.3.05-.75h-.05l-.15-.9-.25-.8q-.55-.95-1.55-1.45l-.3-.1-1.2.1q-2.2-.7-4 2.05l-.05.05m-.3.5-.75.6-.75.85q-.55.8-.75 1.8l-.4-.15-.55-.1-1.25.1-.7.2-.15-.2-.65-.55q-1.1-.25-2.2.25-.95.5-1.5 1.3l-.25.35-.35.85-.15.25.05.2-.2-.2-.7-.75-.9-.55-1.35-.25h-.7v.05l-.9.3-.75.3q-.7.5-1.1 1.25l-.2.4-.1.35.3.5m.05.05-.15.35-.45-.3-.5-.2-.6-.1-.6-.05h-.7l-.35-.6-.25-.35q-1.05-.5-2.25-.25-1 .25-1.75.9l-.2.2-.7.75-.2.2v.25l-.15-.25-.4-.8-.85-.85q-.6-.45-1.25-.6l-.65-.2v.05l-.95.05-.85.15-1 .65q-.35.25-.75 0l-.8.25-1.45 1.05q-.5.5-.8 1.15l-.4-.25-.5-.2-1.25-.2H34l-.2-.35-.45-.6q-1-.5-2.2-.25-1 .25-1.8.9l-.1.15-.75.8-.2.2v.2l-.1-.05-.1-.15-.55-.95-.65-.7q-.6-.45-1.25-.6l-.65-.2h-.05v.05l-.95.05-.8.15q-.9.35-1.5 1.2l-1.05.25-.3.15q-1.35.65-2 2.05l-.4-.25-.45-.2-1.25-.25h-.7l-.6-.85-.5-.25-1.7-.05-.7.2-1.1.7-.9.95-.2.2v.2l-.1-.05-.05-.15q-.35-1-1.25-1.65-.6-.45-1.2-.6l-.7-.2m0 .05v-.05m33.9-1.95-.6.1m32.45-6.2.3-.5m13.35 21.4-.95-.6-1.25-.45-.25-.1-.2.05v-.05l.1-.15.95-1.55M77.8 42.15l.1-.1.1-.2.05.05v.25q.3.9 1.1 1.6l1.15.8.6.25h.05v-.05l.95.05.9-.05q.9-.3 1.55-1m.35-.1.65-1.3.05-.15q.3-1.55-.35-2.95l.5-.15.2-.15.15-.05.1-.1.9-.8.5-.55 1 .15q1.05-.5 1.7-1.6l.05-.15.25-1.05.1-.75-.1-.75M70.35 42l1.15.25.7.1.45.95q.95.55 2.25.45 1-.1 1.85-.65l.95-.9.1-.05m-28.05-.3.65-.2 1.25-.6.8-.85.45-.85.1-.2v.2l.2.2.65.8.25.2q.8.6 1.8.85l2.2-.25.35-.5.25-.35h.7l1.25-.25.45-.2.45-.3q.4.85 1.05 1.5l1 .65m2 1.8 1.4-.2q1.3-.45 2.1-1.45l.35-.5.4.3.4.25.1.1m-35.2-3.05.55.5q.8.65 1.8.9l2.15-.3.6-.75.05-.15h.7l1.2-.2.5-.2.4-.25.75 1.05q.6.7 1.55 1.1l.75.3q.4-.3.75 0 .45.4 1.05.65l.8.1 1 .1m0 .05v-.05m-3-.75-.6-.1M12.9 39.1l.65-.2 1.25-.65q.9-.65 1.25-1.6l.05-.15.1-.1v.25l.15.2.95.95q.6.5 1.4.8l.35.1 2.15-.3h.05l.6-.9h.7l1.25-.2.5-.2.4-.25q.4.85 1.15 1.5l1.1.7 1.05.25q.6.8 1.5 1.2l.85.1.95.05v.1h.05l.65-.2 1.25-.65.95-1 .25-.65.15-.2v.2l.2.25.35.45M9.35 37.5q.7.9 1.7 1.3l.85.15.95.1m.05.05h-.05v-.05" fill="none" stroke="#423213" stroke-linecap="round" stroke-linejoin="round" stroke-opacity=".502" stroke-width=".05"/><path d="M298.9 180.4q7.1 2.65 1.65 10.3l-20.8 3.25q-4.95-4.5.5-9.55l.55-.1h1.2l.5.1.5.25q.2-.75.55-1.25.5-.75 1.25-1.25l.7-.45.7-.05q.4-.5.9-.8.35-.2.75-.25l.95-.2v-.05l.7.05 1.25.45.95.7.5.75.2.2-.05-.25.15-.2.55-.85.2-.25q.65-.75 1.55-1.15l2.2-.05.25.25.45.55.6-.1.6-.05m-5.65 5.45h.2l-.05-.2-.05.1h-.1v.1m-4.35.5-.3.5-.8.95.05.05.1.35.3.25.6-1.45 1-2.4-.95 1.75" fill="#84512f" fill-rule="evenodd" transform="translate(-227.85 -179.6)"/><path d="m293.05 181.2-.55.85-.15.2.05.25-.2-.2-.5-.75 1.35-.35m.2 4.65v-.1h.1l.05-.1.05.2h-.2" fill="#f5eed5" fill-rule="evenodd" transform="translate(-227.85 -179.6)"/><path d="M288.8 180.35v.05-.05m-2.6 1.3-.7.05.6-.1.1.05" fill="#f5eed3" fill-rule="evenodd" transform="translate(-227.85 -179.6)"/><path d="m288.9 186.35.95-1.75-1 2.4-.6 1.45-.3-.25-.1-.35-.05-.05.8-.95.3-.5" fill="#4f301c" fill-rule="evenodd" transform="translate(-227.85 -179.6)"/><path d="m71.05.8-.6.05-.6.1L69.4.4l-.25-.25-2.2.05q-.9.4-1.55 1.15l-.2.25-.55.85-.15.2.05.25-.2-.2-.5-.75-.95-.7L61.65.8l-.7-.05V.8L60 1q-.4.05-.75.25-.5.3-.9.8l-.7.05-.7.45q-.75.5-1.25 1.25-.35.5-.55 1.25l-.5-.25-.5-.1h-1.2l-.55.1M58.25 2l-.6.1" fill="none" stroke="#423213" stroke-linecap="round" stroke-linejoin="round" stroke-opacity=".502" stroke-width=".05"/></g><g id="c"><path d="m253.25 186.5.2-.25q.65-.75 1.55-1.15l2.2-.05.25.25.45.55.6-.1.6-.05q7.1 2.65 1.65 10.3l-20.8 3.25q-4.95-4.5.5-9.55l.55-.1h1.2l.5.1.5.25q.2-.75.55-1.25.5-.75 1.25-1.25l.7-.45.7-.05.9-.8q.35-.2.75-.25l.95-.2v-.05l.7.05 1.25.45.95.7.5.75.2.2-.05-.25.15-.2.55-.85m.2 4.55v.1h.2l-.05-.2-.05.1h-.1m-4.35.6-.3.5-.8.95.05.05.1.35.3.25.6-1.45 1-2.4-.95 1.75" fill="#84512f" fill-rule="evenodd" transform="translate(-228 -184.9)"/><path d="m253.25 186.5-.55.85-.15.2.05.25-.2-.2-.5-.75 1.35-.35m.2 4.55h.1l.05-.1.05.2h-.2v-.1" fill="#f5eed5" fill-rule="evenodd" transform="translate(-228 -184.9)"/><path d="M249 185.65v.05-.05m-2.6 1.3-.7.05.6-.1.1.05" fill="#f5eed3" fill-rule="evenodd" transform="translate(-228 -184.9)"/><path d="m249.1 191.65.95-1.75-1 2.4-.6 1.45-.3-.25-.1-.35-.05-.05.8-.95.3-.5" fill="#4f301c" fill-rule="evenodd" transform="translate(-228 -184.9)"/><path d="m31.1.8-.6.05-.6.1-.45-.55-.25-.25L27 .2q-.9.4-1.55 1.15l-.2.25-.55.85-.15.2.05.25-.2-.2-.5-.75-.95-.7L21.7.8 21 .75V.8l-.95.2q-.4.05-.75.25l-.9.8-.7.05-.7.45q-.75.5-1.25 1.25-.35.5-.55 1.25l-.5-.25-.5-.1H13l-.55.1M18.3 2l-.6.1" fill="none" stroke="#423213" stroke-linecap="round" stroke-linejoin="round" stroke-opacity=".502" stroke-width=".05"/><path d="M228.65 196.6q2.25-7.2 10.25-2.15l4.3 20.6q-4.25 5.25-9.6 0l-.15-.55-.05-1.2.1-.5.2-.5q-.75-.15-1.3-.5-.75-.45-1.3-1.15l-.45-.7q.2-.45-.1-.7l-.85-.85-.3-.75-.25-.9h-.05l.05-.7.35-1.3q.25-.55.65-.95l.75-.55.15-.2-.2.05-.25-.15-.85-.5-.25-.2-1.25-1.45q-.45-1.15-.15-2.2l.25-.3.5-.45-.15-.65-.05-.6m5.6 5.3v.1h.1v-.2l-.2.05.1.05m.9 4.4.5.3 1 .75.05-.05.35-.15.2-.3-1.45-.5-2.5-.9 1.85.85" fill="#84512f" fill-rule="evenodd" transform="translate(-228 -184.9)"/><path d="m229.75 202.45.85.5.25.15.2-.05-.15.2-.75.55-.4-1.35m4.5-.55-.1-.05.2-.05v.2h-.1v-.1" fill="#f5eed5" fill-rule="evenodd" transform="translate(-228 -184.9)"/><path d="M229.1 206.75h.05-.05m1.45 2.5q.3.25.1.7l-.15-.6.05-.1" fill="#f5eed3" fill-rule="evenodd" transform="translate(-228 -184.9)"/><path d="m235.15 206.3-1.85-.85 2.5.9 1.45.5-.2.3-.35.15-.05.05-1-.75-.5-.3" fill="#4f301c" fill-rule="evenodd" transform="translate(-228 -184.9)"/><path d="m.65 11.7.05.6.15.65-.5.45-.25.3q-.3 1.05.15 2.2l1.25 1.45.25.2.85.5.25.15.2-.05-.15.2-.75.55q-.4.4-.65.95l-.35 1.3-.05.7h.05l.25.9.3.75.85.85q.3.25.1.7l.45.7q.55.7 1.3 1.15.55.35 1.3.5l-.2.5-.1.5.05 1.2.15.55m-3.1-5.7.15.6" fill="none" stroke="#423213" stroke-linecap="round" stroke-linejoin="round" stroke-opacity=".502" stroke-width=".05"/></g><g id="d" fill="#7b4815" fill-rule="evenodd"><path d="M277.8 197.7q-2.55 2.9-2.55 6.9 0 4.4 3.15 7.55 3.1 3.1 7.55 3.1 2.9 0 5.25-1.35l-.6.6q-3.1 3.15-7.5 3.15-4.45 0-7.55-3.15-3.1-3.1-3.1-7.5 0-4.45 3.1-7.55 1.05-1.05 2.25-1.75" transform="translate(-241.25 -196.4)"/><path d="M295.75 202.15q-1-2.05-3.15-3l-4.8-.2q-2.45.95-3.55 3.35-.7 1.55-.55 3.1l-.2-.45q-.9-2.45.2-4.8 1.1-2.4 3.5-3.3l4.85.15q2.35 1.1 3.3 3.55l.4 1.6M298.3 216.15q2.2-.55 3.55-2.5 1.5-2.1 1.1-4.65-.45-2.6-2.55-4.15-1.45-1-3-1.1l.45-.1q2.6-.45 4.75 1.05t2.55 4.15q.45 2.55-1.1 4.65-1.5 2.15-4.05 2.6l-1.7.05M249.55 205.7q-2.3.05-4.05 1.65-1.95 1.75-2.05 4.3-.2 2.6 1.55 4.55 1.15 1.3 2.7 1.8h-.5q-2.65-.15-4.35-2.1-1.75-1.95-1.6-4.55.15-2.65 2.1-4.35 1.95-1.75 4.55-1.6l1.65.3M263.2 217.15q1.7-1.5 2-3.8.3-2.6-1.3-4.7-1.65-2.05-4.25-2.35-1.7-.2-3.2.45l.4-.3q2.05-1.65 4.6-1.35 2.6.3 4.25 2.35t1.35 4.6q-.3 2.6-2.35 4.25l-1.5.85" transform="translate(-241.25 -196.4)"/><path d="M288.8 214.6q3.35 2.7 7.8 2.55 4.95-.15 8.35-3.8 3.35-3.6 3.15-8.5-.1-3.3-1.7-5.9l.75.7q3.6 3.3 3.75 8.25.2 4.95-3.2 8.6-3.35 3.6-8.3 3.75-4.95.2-8.55-3.2-1.25-1.15-2.05-2.45" transform="translate(-241.25 -196.4)"/></g><radialGradient id="e" cx="0" cy="0" r="819.2" gradientTransform="translate(4.05) scale(.0051)" gradientUnits="userSpaceOnUse"><stop stop-color="#9c7358" offset="0"/><stop stop-color="#9c7358" stop-opacity="0" offset="1"/></radialGradient><path d="M4.05-4.05q1.7 0 2.85 1.15Q8.1-1.7 8.1 0T6.9 2.85q-1.15 1.2-2.85 1.2t-2.9-1.2Q0 1.7 0 0t1.15-2.9q1.2-1.15 2.9-1.15" fill="url(#e)" fill-rule="evenodd" transform="translate(0 4.05)" id="b"/></defs></svg>