<svg viewBox="0 0 171.05 122.6" xmlns="http://www.w3.org/2000/svg" xmlns:xlink="http://www.w3.org/1999/xlink"><use width="171.05" height="122.6" xlink:href="#a"/><defs><g id="a"><path d="m310.55 142.4.35.8-24.8 10.15q17.1.45 22.4 2.2-5.3-1.75-22.4-2.2l24.8-10.15.15-.05q11.55 16.9 44.85 21.85l-.05.85q-23.2-2.05-29.2 4.5-4.55-10.45-18.15-14.8 1.9 7.45-7.4 4.1 18.55 7.35 24.55 14.55l14.2 2.5q-.05 3.25 1.2 5.75 1.2 2.5-3.9 1.55-4-.8-2.15.85l-.2.15q-3.1-1.65-3.25-1.45l-.4.45q-9.15-2.8-15.6-.9-9.95 7.35-5.5 10.65 10.65 8.05 19.25 5 .45 1.4 1.7 1.15-20 6.45-11.25 13.2 6.9 1.3 9.15 8.5-7.35 7.7-10 15.45-3.15 9.15-5.2 13H308q-3.25 4.65-1.7 10.7-34.5-22.9-116.35-48.85l13.8-3.25q21.6 2.85 28 7.7 19.65-5.3 21.1-18.1-.25-1.25-1-2.35-3.75-5.35-28.65-14.7 15.3 2.55 19.1-3.3 12.65-18.65-6.6-26.95 22.1.5 16.15-11.8 38.6 11.1 58.7 3.25m-14.75 44.25q-5.2 2.45-4.95 8 8.9 3.55 10.15 0 7.15-3.55 4.4-8-.95-1.75-9.6 0m-26.65-9.45q-3.7-2.05-11.05-2.65l-10.9 9.75q1.35 1.8 3.65 3.15 4.4 2.55 12.5 3.25 9.25-1.95 8.7-10.9-.9-1.5-2.9-2.6m-23.6 40.75q7.6 1.85 9.15 5.95 4.1-4.8 13.15-6.75l-13.6-5.85-8.7 6.65m15.75 4.55-10.55 6.1 8.65 3.65q3.05-4.2 10.9-6.05-2.85-2.3-9-3.7" fill="#f5d99c" fill-rule="evenodd" transform="translate(-189.45 -138.65)"/><path d="m339.85 176.7-14.2-2.5q-6-7.2-24.55-14.55 9.3 3.35 7.4-4.1 13.6 4.35 18.15 14.8 6-6.55 29.2-4.5h4.05l.1.85q-3.3.55-4.1.95-9.35 4.4-16.05 9.05m-70.7.5q2 1.1 2.9 2.6.55 8.95-8.7 10.9-8.1-.7-12.5-3.25-2.3-1.35-3.65-3.15l10.9-9.75q7.35.6 11.05 2.65" fill="#eebc53" fill-rule="evenodd" transform="translate(-189.45 -138.65)"/><path d="m310.9 143.2-.35-.8.5.75-.15.05" fill="#f90" fill-rule="evenodd" transform="translate(-189.45 -138.65)"/><path d="m334.8 185 .1.05.1-.2.2.15-.3.05h-.05l-.05-.05" fill="#333" fill-rule="evenodd" transform="translate(-189.45 -138.65)"/><path d="m334.8 185 .2-.15-.1.2-.1-.05" fill="#dd990b" fill-rule="evenodd" transform="translate(-189.45 -138.65)"/><path d="M223.2 181.2q24.9 9.35 28.65 14.7.75 1.1 1 2.35-1.45 12.8-21.1 18.1-6.4-4.85-28-7.7l13-2.5h.05l-.55-.1q-1.5-.35-1.9-3.35l-9.4-12.5q17.7 5.5 18.25-9" fill="#eaaa26" fill-rule="evenodd" transform="translate(-189.45 -138.65)"/><path d="m245.55 217.95 8.7-6.65 13.6 5.85q-9.05 1.95-13.15 6.75-1.55-4.1-9.15-5.95m15.75 4.55q6.15 1.4 9 3.7-7.85 1.85-10.9 6.05l-8.65-3.65 10.55-6.1" fill="#c28912" fill-rule="evenodd" transform="translate(-189.45 -138.65)"/><path d="M308.5 155.55q-5.3-1.75-22.4-2.2l24.8-10.15.15-.05m-2.55 12.4q13.6 4.35 18.15 14.8 6-6.55 29.2-4.5h4.05" fill="none" stroke="#845b06" stroke-linecap="round" stroke-linejoin="round" transform="translate(-189.45 -138.65)"/><path d="M310.55 142.4q-20.1 7.85-58.7-3.25 5.95 12.3-16.15 11.8 19.25 8.3 6.6 26.95-3.8 5.85-19.1 3.3m-19.45 27.45-13.8 3.25q81.85 25.95 116.35 48.85-1.55-6.05 1.7-10.7h5.7q2.05-3.85 5.2-13 2.65-7.75 10-15.45-2.25-7.2-9.15-8.5-8.75-6.75 11.25-13.2-1.25.25-1.7-1.15m2.25-15.2q.15-.2 3.25 1.45m.2-.15q-1.85-1.65 2.15-.85 5.1.95 3.9-1.55-1.25-2.5-1.2-5.75m-28.8-33.55-.5-.75M355.9 165q-33.3-4.95-44.85-21.85m23.95 41.7.2.15-.3.05h-.05l-3.7-1.05m3.7 1.05-.05-.05m-118.55 21.05.5.1-13 2.5m12.5-2.6q-1.5-.35-1.9-3.35l-9.4-12.5q17.7 5.5 18.25-9m136.7-15.35-3.9-.8-.1-.05m4.1 1.7q-3.3.55-4.1.95-9.35 4.4-16.05 9.05" fill="none" stroke="#000" stroke-linecap="round" stroke-linejoin="round" transform="translate(-189.45 -138.65)"/><path d="M139.85 60.1q-8.6 3.05-19.25-5-4.45-3.3 5.5-10.65 6.45-1.9 15.6.9M106.35 48q-5.2 2.45-4.95 8 8.9 3.55 10.15 0 7.15-3.55 4.4-8-.95-1.75-9.6 0" fill="none" stroke="#000" stroke-linecap="round" stroke-linejoin="round" stroke-width="1.25"/></g></defs></svg>