<svg viewBox="0 0 72.8 96.9" xmlns="http://www.w3.org/2000/svg" xmlns:xlink="http://www.w3.org/1999/xlink"><g transform="translate(-238.45 -152)"><use transform="translate(238.45 152)" width="72.8" height="96.9" xlink:href="#a"/><use transform="matrix(1.0861 0 0 1.4477 252.6 184.95)" width="39.5" height="41.25" xlink:href="#b"/><use transform="translate(239.45 157)" width="71.5" height="91.75" xlink:href="#c"/></g><defs><g id="a"><path d="m290.25 158.7.7.6.25.25.6.55q3.05 3.05 6.45 7.55 2.5 3.3 4.35 6.8 8.15 15.3 8.15 26.65 0 19.6-10.55 33.45-10.5 13.85-25.35 13.85-14.9 0-25.4-13.85-9.55-12.55-10.4-29.9l-.05-.55v-1.2l-.05-1.8q0-11.35 8.15-26.65 2-3.75 4.3-6.8 5.8-7.65 10.65-11 5.85-4.15 12.8-4.15t12.85 4.15l2.55 2.05m-12.2-1.7-3-.25q-6.15-.05-11.25 3.75-4.3 3.05-9.4 10.1-2 2.75-3.75 6.2-7.2 14-7.15 24.4l.05 2.9q.3 7.55 2.35 14.15 2.3 7.4 6.8 13.55 6.85 9.4 15.85 11.85l6.5.85q13.05-.05 22.3-12.7t9.25-30.6q0-10.4-7.15-24.4-1.65-3.2-3.8-6.2l-4.7-5.85q-2.45-2.65-4.65-4.25-3.85-2.85-8.25-3.5" fill="#8d583f" fill-rule="evenodd" transform="translate(-238.45 -152)"/><path d="M245.9 218.25q-2.05-6.6-2.35-14.15l-.05-2.9q-.05-10.4 7.15-24.4 1.75-3.45 3.75-6.2 5.1-7.05 9.4-10.1 5.1-3.8 11.25-3.75l3 .25q8.15 12.35 12.9 23.15 14.5 32.95-2.95 51.15-23.15 2.2-42.1-13.05" fill="#a04545" fill-rule="evenodd" transform="translate(-238.45 -152)"/><path d="M268.55 243.65q-9-2.45-15.85-11.85-4.5-6.15-6.8-13.55 18.95 15.25 42.1 13.05-7.1 7.4-19.45 12.35" fill="#7a3434" fill-rule="evenodd" transform="translate(-238.45 -152)"/><path d="M291.8 160.1q3.05 3.05 6.45 7.55 2.5 3.3 4.35 6.8 8.15 15.3 8.15 26.65 0 19.6-10.55 33.45-10.5 13.85-25.35 13.85-14.9 0-25.4-13.85-9.55-12.55-10.4-29.9" fill="none" stroke="#ba6868" stroke-linecap="round" stroke-linejoin="round" transform="translate(-238.45 -152)"/><path d="m239 202.9-.05-1.8q0-11.35 8.15-26.65 2-3.75 4.3-6.8 5.8-7.65 10.65-11 5.85-4.15 12.8-4.15t12.85 4.15l2.55 2.05" fill="none" stroke="#d9aaaa" stroke-linecap="round" stroke-linejoin="round" transform="translate(-238.45 -152)"/><path d="M274.25 242.8q-7.35-.1-12.25-2.25t-4.9-2.9l5.15.25 12.4 1.05 12.5-1 5.15-.3q0 .75-5.35 3t-12.7 2.15" fill="#4f2222" fill-rule="evenodd" transform="translate(-238.45 -152)"/><path d="M281.6 209.6q0-1.3.9-2.2.95-.9 2.2-.9 1.3 0 2.2.9.95.9.95 2.2t-.95 2.2q-.9.9-2.2.9-1.25 0-2.2-.9-.9-.9-.9-2.2m.9-.1q0 1 .7 1.7t1.7.7q.95 0 1.65-.7.75-.7.75-1.7t-.75-1.7q-.7-.7-1.65-.7-1 0-1.7.7t-.7 1.7" fill="#e4dfd3" fill-opacity=".6" fill-rule="evenodd" transform="translate(-238.45 -152)"/><path d="M282.5 209.5q0-1 .7-1.7t1.7-.7q.95 0 1.65.7.75.7.75 1.7t-.75 1.7q-.7.7-1.65.7-1 0-1.7-.7t-.7-1.7" fill="#fdfff0" fill-rule="evenodd" transform="translate(-238.45 -152)"/><path d="M284.5 229.45q-3.9 6.85-9.75 7-5.9.15-10.2-6.45-4.3-6.65-4.55-16.15t3.65-16.35 9.85-7q5.85-.15 10.1 6.45 4.35 6.6 4.6 16.15.2 9.5-3.7 16.35" fill="#c17171" fill-opacity=".8" fill-rule="evenodd" transform="translate(-238.45 -152)"/><path d="M276.4 174.6q2.75-2.7 6.6-2.7 3.8 0 6.5 2.7 2.75 2.8 2.75 6.6t-2.75 6.5q-2.7 2.8-6.5 2.8-3.85 0-6.6-2.8-2.7-2.7-2.7-6.5t2.7-6.6" fill="#b87941" fill-rule="evenodd" transform="translate(-238.45 -152)"/><path d="M274.55 181.1q0-3.5 2.5-6t6.05-2.5q3.5 0 6 2.5t2.5 6-2.5 6-6 2.5q-3.55 0-6.05-2.5t-2.5-6m2.5-.25q-.05 2.65 1.85 4.55 1.95 1.95 4.65 1.95t4.6-1.95q1.9-1.9 1.9-4.55 0-2.7-1.9-4.65-1.9-1.9-4.6-1.85-2.7-.05-4.65 1.85-1.9 1.95-1.85 4.65" fill="#e4dfd3" fill-opacity=".6" fill-rule="evenodd" transform="translate(-238.45 -152)"/><path d="M277.05 180.85q-.05-2.7 1.85-4.65 1.95-1.9 4.65-1.85 2.7-.05 4.6 1.85 1.9 1.95 1.9 4.65 0 2.65-1.9 4.55-1.9 1.95-4.6 1.95t-4.65-1.95q-1.9-1.9-1.85-4.55" fill="#fdfff0" fill-rule="evenodd" transform="translate(-238.45 -152)"/><path d="M262.4 200.45q1.45-1.35 3.4-1.35 2 0 3.4 1.35 1.4 1.45 1.4 3.45 0 1.95-1.4 3.35-1.4 1.45-3.4 1.45-1.95 0-3.4-1.45-1.4-1.4-1.4-3.35 0-2 1.4-3.45" fill="#ca9768" fill-rule="evenodd" transform="translate(-238.45 -152)"/></g><g id="b" fill-rule="evenodd"><path d="M39.5 20.6q0 8.5-5.8 14.6-5.8 6.05-13.95 6.05T5.8 35.2Q0 29.1 0 20.6T5.8 6.05 19.75 0 33.7 6.05t5.8 14.55M31.45 8.7q-4.4-4.6-10.6-4.55Q14.6 4.1 10.1 8.7q-4.4 4.7-4.4 11.25 0 6.5 4.4 11.1 4.5 4.7 10.75 4.7 6.2 0 10.6-4.7 4.5-4.6 4.55-11.1-.05-6.55-4.55-11.25" fill="#e4dfd3" fill-opacity=".361"/><path d="M31.45 8.7q4.5 4.7 4.55 11.25-.05 6.5-4.55 11.1-4.4 4.7-10.6 4.7-6.25 0-10.75-4.7-4.4-4.6-4.4-11.1 0-6.55 4.4-11.25 4.5-4.6 10.75-4.55 6.2-.05 10.6 4.55" fill="#fdfff0" fill-opacity=".6"/></g><g id="c"><path d="M288.5 224.5q.9-.95 2.2-.95t2.25.95q.9.9.95 2.2-.05 1.35-.95 2.25-.95.9-2.25.9t-2.2-.9q-.95-.9-.95-2.25 0-1.3.95-2.2" fill="#8b5b30" fill-rule="evenodd" transform="translate(-239.45 -157)"/><path d="M299.45 176.8q7.1 14.05 7.15 24.4 0 17.9-9.25 30.65-9.25 12.65-22.3 12.65l-6.5-.85q12.4-5 19.45-12.35 17.4-18.2 2.9-51.15-4.7-10.85-12.85-23.15 4.4.65 8.25 3.5 2.2 1.6 4.6 4.25 2.25 2.45 4.75 5.8 2.15 3.05 3.8 6.25" fill="#672c2c" fill-rule="evenodd" transform="translate(-239.45 -157)"/><path d="M274.55 223.95q0 2.5 1.75 4.25 1.8 1.8 4.3 1.8 2.45 0 4.2-1.8 1.8-1.75 1.8-4.25 0-2.45-1.8-4.25-1.75-1.75-4.2-1.75-2.5 0-4.3 1.75-1.75 1.8-1.75 4.25m-2.25.25q0-3.2 2.3-5.5 2.3-2.35 5.55-2.35t5.55 2.35q2.3 2.3 2.3 5.5 0 3.25-2.3 5.55t-5.55 2.3-5.55-2.3-2.3-5.55" fill="#e4dfd3" fill-opacity=".6" fill-rule="evenodd" transform="translate(-239.45 -157)"/><path d="M274.55 223.95q0-2.45 1.75-4.25 1.8-1.75 4.3-1.75 2.45 0 4.2 1.75 1.8 1.8 1.8 4.25 0 2.5-1.8 4.25-1.75 1.8-4.2 1.8-2.5 0-4.3-1.8-1.75-1.75-1.75-4.25" fill="#fdfff0" fill-rule="evenodd" transform="translate(-239.45 -157)"/><path d="M262.05 201.95q-.05 1.25.85 2.1.9.9 2.15.9t2.15-.9q.9-.85.9-2.1t-.9-2.15-2.15-.9-2.15.9-.85 2.15m-1.15.1q0-1.6 1.15-2.8 1.15-1.15 2.8-1.15t2.8 1.15q1.15 1.2 1.15 2.8 0 1.65-1.15 2.8t-2.8 1.15-2.8-1.15-1.15-2.8" fill="#e4dfd3" fill-opacity=".6" fill-rule="evenodd" transform="translate(-239.45 -157)"/><path d="M262.05 201.95q-.05-1.25.85-2.15t2.15-.9 2.15.9.9 2.15-.9 2.1q-.9.9-2.15.9t-2.15-.9q-.9-.85-.85-2.1" fill="#fdfff0" fill-rule="evenodd" transform="translate(-239.45 -157)"/><path d="m282.2 163 .65-.05 3.15-.6.75-.15.3-.05.45-.1 1.65-.5.15-.05.65-.15.5-.15 1.05-.4.95-.35.85.75 1.1 1.1.95 1.55-.55.65-.9.95-.55.6-.45.45-.75.7-.4.4-.95.8-.7.5-.35.3-.9.6-.05.05-1.85 1.15-1.45.75q-14 6.8-33.95-4.65l5.95-6.7.25.1q12.95 4.05 24.45 2.5m15.25 40.7q-2.9-1.45-6.9-2.65l-.65-.1Q237.05 185 242.65 223.2l-2.6-8.05-.05-.25q-1.85-32.6 49.45-17.65l.7.1q4.15 1.2 7.1 2.65l2.5 1.45 1.6 1.15.6.55.5.45 1.4.95.15.1.25.1.95.2 1.1.1h.8l.7-.05h.75l.3-.05h.5l1.5.4.1.05-.25 3.65-.15-.05-1.65-.35h-.35l-.15.05-.8.05h-1.2l-1.2-.05-1.1-.3-.2-.05-1.3-.9-.65-.6-.1-.1-1.7-1.4q-1.25-.9-2.7-1.65m-4.35 22.45.35.25 1.9 1.55.4.35.35.2.2.2 1.25.6 1.7.35.8.05h.3l1.7-.2 1.95-.55-2.7 4.4-.4.1-1.2.1-1.35-.15-.6-.25-.1-.05-.55-.35-.95-.75-1.1-.8-.65-.5-.05-.05-1.25-1.05-1.2-.85-.6-.35q-2.3-1.35-6.85-3.6-7.1-3.4-17.7-.1-10.35 3.2-16.8 11.15l-1.55-2.3.1-.15q6.55-11.2 17.2-13.85 10.35-2.6 22.15 3.05 2.25 1.1 4.55 2.95l.7.6" fill="#220d0d" fill-rule="evenodd" transform="translate(-239.45 -157)"/><path d="M285.5 171.75q-14 6.8-33.95-4.65m-8.9 56.1q-5.6-38.2 47.25-22.25l.65.1q4 1.2 6.9 2.65m-7.3-6.35-.7-.1" fill="none" stroke="#b87941" stroke-linecap="round" stroke-linejoin="round" transform="translate(-239.45 -157)"/><path d="m257.5 160.4.25.1q12.95 4.05 24.45 2.5m15.05 37q-2.95-1.45-7.1-2.65m-.7-.1Q238.15 182.3 240 214.9l.05.25m53.05 11-.7-.6q-2.3-1.85-4.55-2.95-11.8-5.65-22.15-3.05-10.65 2.65-17.2 13.85l-.1.15" fill="none" stroke="#cd9c70" stroke-linecap="round" stroke-linejoin="round" transform="translate(-239.45 -157)"/><path d="M302.85 197.4q-5.6-.35-15.9-7.4-7.7-6.45 4.05-11.4l.85-.25m.1-.05 2.9-.35q6.05-.55 2.8 8.95-1.75 3.45-3.5 2.85-1.85-.6-3.9-5.3m-42.25 34q-.1 2.6 5.2-.7 6.9-5.3 5.2-7.95-.8-1.4-3.8-2.05-8-2.3-11.35 16.55m24.95 23.95q22.9-.3 18.3-15.1l-.15-.5q-1.45-4.55-4.5-5.05-4.15-.65-11.15 6.2-5.05 4.5 2.4 7l1.8.5q10.2 2 6.7-7.45m21.25-36.45q5.9.4 6.5-6.75M248 218.45q.15-1.75 2.75-6.4" fill="none" stroke="#220d0d" stroke-linecap="round" stroke-linejoin="round" transform="translate(-239.45 -157)"/><path d="m291.85 178.35.1-.05m2.2 11.45q-2.35.75-4.95-5.3m-30.8 25.35q.2 2.55-5.55 7-3.85 2.45-4.85 1.65-1.25-.9 2.4-7.35m31.45 16.5q2.25 1 3.4 4.7l.2.5q4.55 14.85-18.3 15.1m5.95-7.1.7.15q10.2 2 6.7-7.45m-22.1-23.7q-.15-2.1-4.15-3-7.95-2.35-11.35 16.5m38.95 4.3q-4.25-1.95-12.2 5.85-5.4 4.85 3.45 7.35m21.75-62.85q4.65.4 1.7 8.95-1.2 2.4-2.4 2.85m14.45.05q-.9 7.25-5.75 7.6-5.65.4-17-7.4-7.95-6.65 4.85-11.7" fill="none" stroke="#b87941" stroke-linecap="round" stroke-linejoin="round" transform="translate(-239.45 -157)"/><path d="M270.85 184.35q-1.65 9.05-10.05 6.35-.15-7.15 10.05-6.35" fill="#220d0d" fill-rule="evenodd" transform="translate(-239.45 -157)"/><path d="M31.4 27.35q-10.2-.8-10.05 6.35 8.4 2.7 10.05-6.35z" fill="none" stroke="#220d0d" stroke-linecap="round" stroke-linejoin="round" stroke-width=".3"/><path d="M256.05 175.3q9.2 7.25 1.55 15.3-8.05-4.15-1.55-15.3" fill="#220d0d" fill-rule="evenodd" transform="translate(-239.45 -157)"/><path d="M16.6 18.3q-6.5 11.15 1.55 15.3 7.65-8.05-1.55-15.3z" fill="none" stroke="#220d0d" stroke-linecap="round" stroke-linejoin="round" stroke-width=".3"/><path d="M245.4 185.65q8.45-.1 8.4 5.85-7.05 1.7-8.4-5.85" fill="#220d0d" fill-rule="evenodd" transform="translate(-239.45 -157)"/><path d="M5.95 28.65q8.45-.1 8.4 5.85-7.05 1.7-8.4-5.85z" fill="none" stroke="#220d0d" stroke-linecap="round" stroke-linejoin="round" stroke-width=".3"/><path d="M267.55 174.65q-10.4 6.1-12.75 14.2-2.4 8.15-4.85 8.7-2.4.55-2.45-5.6-.15-6.05 3.25-13.9 3.3-7.75 8.15-12.65 4.75-4.8 10.7-5.95 5.9-1.2 7.15 4 1.2 5.15-9.2 11.2" fill="#ebcabc" fill-opacity=".6" fill-rule="evenodd" transform="translate(-239.45 -157)"/></g></defs></svg>