<svg viewBox="0 0 78.45 45.116" xmlns="http://www.w3.org/2000/svg" xmlns:xlink="http://www.w3.org/1999/xlink"><use transform="translate(0 .02)" width="78.45" height="45.1" xlink:href="#a"/><defs><radialGradient id="b" cx="0" cy="0" r="819.2" gradientTransform="matrix(.0803 0 0 .0603 33.2 26.2)" gradientUnits="userSpaceOnUse"><stop stop-color="#91756f" offset="0"/><stop stop-color="#c2b2af" offset=".18"/><stop stop-color="#fff" stop-opacity="0" offset=".4"/></radialGradient><g id="a"><path d="M70.85 41.3Q54.5 44.55 33.2 44.6q-23.3-.05-40.8-3.95v-28.9q17.5-3.9 40.8-3.9 21.3 0 37.65 3.25v30.2" fill="url(#b)" fill-rule="evenodd" transform="translate(7.6)"/><path d="M32.1 2.65h.05q7.3-1.15 12.1 1.7l.3.15q2.3 2.25 3.65 4.95-2.05-2.7-5.85-4.6-2.7-1.4-6.1-1.25l-.9.1-3.2-.9-.05-.15m-11.45 5.9h-.05l-1.25.05q-1.4 1.35-2.45 2.85-2.3 3.2-3.2 7.1l-.4 1.95-.8 1.7-.3.35q-.75.95-2.8 1.55l.3-6.1.1-.25 3.5-7.8.15-.2-.15.2.1-.15.05-.05 1.5-.6 1.2-.2-.05-.75 2.2-1.8 3.5-1.75-1.15 3.9m-1.3.05-1.65.15-.8.1-.75.1.75-.1.8-.1 1.65-.15M12 21.45l.5.75-.5-.75m.05 6.15-.45-.6.45.6.15.3q-.65.95-1.9 1.1-.45-.6-.8-1.6l-.15-.35-.05-.3.05-.05.15-1.1 2.1 1.4-2.1-1.4v-.05l.15-.7L11.6 27l.35.35.1.25" fill="#ffe493" fill-rule="evenodd" transform="translate(7.6)"/><path d="M32.25 33.05q-.45 1.7-1.7 2.05.1-.65-1.25-1.6l-.2-3.3-.05-.65.65.9 2.05-2.4 1.55 2.15-1.05 2.85m-7.75-.85-1.8-.3-8.75-.35 10.35-1.9.1.9.1 1.65M43.85 8.6l-.05 1.6 1.15 1q.8.45.3 1.95l-.2 1.6 1.05 1.35-.4 2.1-1.05 1 .4 1.2q-.95 2.25-2.7 3.85L43 21.3l1.1-.55-.75-.8.25-1.15.1-.4.95-.65-.75-.65q.6-2.3.05-3.45t-.45-2.1-1.05-1.45L40.6 9l-.1-1.45-1.8.3q-1.6-.7-3.55-.65-.8-1.2 2.95-1.15l.1.75 2.45-.25q1.75.65 3.2 2.05m-1.7 7.65L40.6 18.2l.85.4-.1.2q-1.35 2.35-2.3 2.05L39 20.8l-.3-.25.45-.95q.5-1.15.5-2.25l1.2-1.45-2-.05q0-1.45-1.35-2.2-.45-1.55-1-2l-1.7-1.1q-1.2-.75-3.55-1.45l-.35-.95-1.25.55-.25-1.2 1.45-.4 2.65.55 1.1 1.45 2.8.05q1.2.7 2.2 1.5l-.8 2.7 2.15.45q1.25.75 1.2 2.45M27.9 6.75h.05l-.45 1.5-.45-.85-1.2.65-3.8-.7q2.75-.75 5.85-.6m-10.4 20.3q-2.05 1.55-2.45 3l-1.8-1.8q.05-.5.25-.85.6-1.55 2.4-1.3l1.4.4.6.25-.4.3" fill="#630" fill-rule="evenodd" transform="translate(7.6)"/><path d="m35.35 3.7.9-.1q3.4-.15 6.1 1.25 3.8 1.9 5.85 4.6l.65 1.45q1.05 2.75 1.1 5.9v.2L59.1 6l-.6 8.8-9.95 7.4q-.9 1.4-2.4 2.8l-.1.1-.85 1.1-1.95-.75-2.8 3-.85-.9-.95 1.45h-1.9l.2-2.35.75-1.05-.6-5.2q-1.55-8.6-6.55-10.25l-.6-.15-.3-1.3.3 1.3.6.15q5 1.65 6.55 10.25l.6 5.2-.75 1.05-1.7 2.3-3 4.1 1.05-2.85-1.55-2.15-2.05 2.4-.65-.9-.45-.7-2.5.5-1.8.3-10.35 1.9-.25-.05.15.1-.65.1-.2-.1-.75-.5-.35-.5-.55-.35-.7-.75-.35-.5q1.25-.15 1.9-1.1l-.15-.3-.1-.25-.35-.35-1.95-2.15-.15.7-.15-.05.15.1-.15 1.1-.05.05v.05l.05-1.3.05-1.4q2.05-.6 2.8-1.55l.3-.35.8-1.7.4-1.95q.9-3.9 3.2-7.1 1.05-1.5 2.45-2.85l1.25-.05h.05l6.55.7.3-1-.3 1-6.55-.7 1.15-3.9L31.3 0v2.8l.05.15-6.7 2.35 3.9-.55.1-.4.1.35 6.9-.95-.3-.05M50 25.05l1.85.8-1.8 1.6-.05-2.4M44.95 11.2l-1.15-1 .05-1.6q-1.45-1.4-3.2-2.05l-2.45.25-.1-.75Q34.35 6 35.15 7.2q1.95-.05 3.55.65l1.8-.3.1 1.45 1.85 1.1q1.15.5 1.05 1.45t.45 2.1-.05 3.45l.75.65-.95.65-.1.4-.25 1.15.75.8-1.1.55-.65 2.95q1.75-1.6 2.7-3.85l-.4-1.2 1.05-1 .4-2.1-1.05-1.35.2-1.6q.5-1.5-.3-1.95m-3.5 7.4-.85-.4 1.55-1.95q.05-1.7-1.2-2.45l-2.15-.45.8-2.7q-1-.8-2.2-1.5l-2.8-.05-1.1-1.45-2.65-.55-1.45.4.25 1.2 1.25-.55.35.95q2.35.7 3.55 1.45l1.7 1.1q.55.45 1 2 1.35.75 1.35 2.2l2 .05-1.2 1.45q0 1.1-.5 2.25l-.45.95.3.25.05.05q.95.3 2.3-2.05l.1-.2m8.4 0q-.15 1.8-1.3 3.6 1.15-1.8 1.3-3.6m-35.5 2.15-.95 2.75-.9-1.3.9 1.3.95-2.75m13.6-14h-.05q-3.1-.15-5.85.6l3.8.7 1.2-.65.45.85 1.05-3.5-.6 2m.8-2.05.65 2.8-.65-2.8M16.1 8.2l.05.75-1.2.2-1.5.6q.25-2.85-2-5 3.5.85 4.65 3.45m13.25 1.75L28.6 6.6l-.7 3.1 1.45.25m-7.05 3.8h.05-.05m-5.5 7.7L18 22.6l-.8 1.75.8-1.75-1.2-1.15m2.8 2.6L18 22.6l1.8-4.05L18 22.6l1.6 1.45m-6.8 1.2.6-1.75.7 1.05-.7-1.05-.6 1.75m4.7 1.8.4-.3-.6-.25-1.4-.4q-1.8-.25-2.4 1.3-.2.35-.25.85l1.8 1.8q.4-1.45 2.45-3m-5.3 2.1-1.55.35 1.55-.35M28.95 26l-7.8 1.4 7.8-1.4m4.35-6.05-12.8 5.4 12.8-5.4" fill="#fc3" fill-rule="evenodd" transform="translate(7.6)"/><path d="M49.95 16.8v.2-.2" fill="#ce9b00" fill-rule="evenodd" transform="translate(7.6)"/><path d="m32.1 2.65.05.15 3.2.9.3.05-6.9.95-.1-.35-.1.4-3.9.55 6.7-2.35.75-.3M58.5 14.8l-.2 3-8.35 7.15-.05.05.1.05.05 2.4-3.5 3.1-1.25-4.3-.25.2.15-.15v-.1l.85-1.1.1-.1q1.5-1.4 2.4-2.8l9.95-7.4M36.75 29l-1.5-.05 1.7-2.3-.2 2.35m-7.4-19.05L27.9 9.7l.7-3.1.75 3.35" fill="#8c6900" fill-rule="evenodd" transform="translate(7.6)"/><path d="M22.3 13.75h.05-.05" fill="#ffc" fill-rule="evenodd" transform="translate(7.6)"/><path d="m29.4 34.55.1 1L24.9 38l-4.15-.25-.85-.45 3.65.1 2.8-.8 3.05-2.05m-.3-4.35-3.05.2.05-1.05-.05 1.05q-.75-.55-1.65.15l-.1-.9 1.8-.3 2.5-.5.45.7.05.65" fill="#861e1e" fill-rule="evenodd" transform="translate(7.6)"/><path d="m29.3 33.5.1.9v.15l-3.05 2.05-2.8.8-3.65-.1-.35-.15.25-.95q2-1.65 4.35-1.45h.05l.3-2.55-.1-1.65q.9-.7 1.65-.15l3.05-.2.2 3.3m-2.6 2.05q-.7-.75-2.5-.8 1.8.05 2.5.8" fill="#d74d4d" fill-rule="evenodd" transform="translate(7.6)"/><path d="m32.1 2.65-.75.3-.05-.15.8-.15M9.35 25.5l.15.05v.05l-.15-.1" fill="#de7354" fill-rule="evenodd" transform="translate(7.6)"/><path d="m44.65 32.95 7.3 1.5q-.2 3.5-3.25 3.55l-4.05-5.05m-8.45 0 1.05.85.95 9.45q-4.05 3.85-8.7-.35l6.7-9.95" fill="#972222" fill-rule="evenodd" transform="translate(7.6)"/><path d="M55.8 9.45q-1.35-2.7-3.65-4.95l-.3-.15q-4.8-2.85-12.1-1.7h-.05l-.8.15V0l-9.5 4.65-3.5 1.75-2.2 1.8.05.75.75-.1.8-.1 1.65-.15m28.85.85.65 1.45q1.05 2.75 1.1 5.9v.2L66.7 6l-.6 8.8M42.85 28.95l-3 4.1q-.45 1.7-1.7 2.05m-.9-26.4.3 1.3.6.15q5 1.65 6.55 10.25l.6 5.2-.75 1.05-1.7 2.3m13.3-6.75q1.15-1.8 1.3-3.6m-1.3 3.6q-.9 1.4-2.4 2.8M36.15 4.75l.1-.4.1.35M28.2 8.55l-1.25.05m8.6-1.85.6-2m1.1 3.95L37 7.5l-.65-2.8M35.1 8.25l-.3 1-6.55-.7m7.3-1.8-.45 1.5m-14.2 1.7-3.5 7.8-.1.25-.3 6.1m4.05-14.35q.25-2.85-2-5 3.5.85 4.65 3.45m-2.65 1.55L21 9.8l-.1.15m-3.5 7.8-.1.05v.2m-.35 7.5-.05 1.3m.05-1.3.05-1.4" fill="none" stroke="#630" stroke-linecap="round" stroke-linejoin="round" stroke-opacity=".6" stroke-width=".05"/><path d="m66.1 14.8-.2 3-8.35 7.15-.05.05.1.05 1.85.8-1.8 1.6-3.5 3.1-1.25-4.3M51.45 8.6Q50 7.2 48.25 6.55m-2.55-.5Q41.95 6 42.75 7.2q1.95-.05 3.55.65M48.2 9l1.85 1.1q1.15.5 1.05 1.45t.45 2.1-.05 3.45m-.2 1.3-.1.4-.25 1.15m-.35 1.35-.65 2.95q1.75-1.6 2.7-3.85m.65-2.2.4-2.1m-.85-2.95q.5-1.5-.3-1.95m-3.5 7.4-.1.2q-1.35 2.35-2.3 2.05l-.05-.05-.3-.25.45-.95q.5-1.15.5-2.25m-.8-1.5q0-1.45-1.35-2.2-.45-1.55-1-2l-1.7-1.1q-1.2-.75-3.55-1.45m9.7 4.7q1.25.75 1.2 2.45M45 9.15q1.2.7 2.2 1.5M38.45 7.1l2.65.55m-7.65.4-3.8-.7q2.75-.75 5.85-.6m-10.4 20.3q-2.05 1.55-2.45 3l-1.8-1.8q.05-.5.25-.85.6-1.55 2.4-1.3l1.4.4.6.25-.4.3M52.8 26.2l-1.95-.75-2.8 3-.85-.9-.95 1.45h-1.9l-1.5-.05M36.9 33.5l.1.9m0 .15.1 1L32.5 38l-4.15-.25-.85-.45m-.35-.15.25-.95q2-1.65 4.35-1.45m.05 0 .3-2.55m4.6-2-.05-.65m-2.95-.2-.05 1.05m-1.65.15.1 1.65m-.2-2.55.1.9m-.2 4.2q1.8.05 2.5.8m2.4-5.35.2 3.3" fill="none" stroke="#630" stroke-linecap="round" stroke-linejoin="round" stroke-width=".05"/><path d="m21.05 9.75-.15.2" fill="none" stroke="#636532" stroke-linecap="round" stroke-linejoin="round" stroke-width=".05"/><path d="m12.5 22.2.9 1.3.95-2.75M12.5 22.2l-.5-.75m2.1 3.1-.7-1.05-.6 1.75m7-6.7L18 22.6l1.6 1.45m-2.4.3.8-1.75-1.2-1.15" fill="none" stroke="#630" stroke-linecap="round" stroke-linejoin="round" transform="translate(7.6)"/><path d="m18.25 29.5-8.9 2M19.2 27l.45.6m-.45-.6-2.25-1.5m1.3 4 1.55-.35m8.95-1.75 7.8-1.4m-25.5-4.45 5.9 3.95m11.15-.15 12.8-5.4" fill="none" stroke="#630" stroke-linecap="round" stroke-linejoin="round" stroke-opacity=".573" stroke-width=".05"/><path d="m20.8 31.7-.2-.1-.75-.5-.35-.5-.55-.35-.7-.75m-1.35-2.75.05.3.15.35q.35 1 .8 1.6l.35.5" fill="none" stroke="#630" stroke-linecap="round" stroke-linejoin="round" stroke-opacity=".631" stroke-width=".05"/><path d="M31.75 34.75h.05" fill="none" stroke="#9e7e5e" stroke-linecap="round" stroke-linejoin="round" stroke-opacity=".58" stroke-width=".05"/><path d="m21.55 31.55-.1.05-.65.1m15.85-2.15.65.9 2.05-2.4 1.55 2.15-1.05 2.85m-3.2-3.5-.45-.7-2.5.5m-1.8.3 1.8-.3m-12.15 2.2 10.35-1.9" fill="none" stroke="#8c6900" stroke-linecap="round" stroke-linejoin="round" stroke-width=".05"/></g></defs></svg>