<svg viewBox="0 0 46.993 43.089" xmlns="http://www.w3.org/2000/svg" xmlns:xlink="http://www.w3.org/1999/xlink"><use transform="translate(.02 .02)" width="46.95" height="43.05" xlink:href="#a"/><defs><g id="a"><path d="m45.65 11.45.05.2q1.2 5.05 1.25 8.35 0 3.35-.9 9.9l-1.8-1.8q.55-.3 1.05-.55 0-1.75-.8-2.95-.85-1.25-2-1.25 3.15-6.3 3.3-8.8l-.15-3.1m-8.9 19.85-1.6 1.65-3.45 3.25q-1.6 1.7-2.45 3.9l-.3-.05q-2.3-1.1-2.85-2L25.9 37q.2-1.2 1.7-3.3 2.4-3.4 5.5-6.15 2.25 1.05 3.65 3.75m-11.9-3.85-4.55-.1q5.65-4.5 6.65-4.25l.2.15-.25.5-1.35 2.45-.7 1.25M16.1 22.9l.15.1q.8.75.55 2.35-.35 1.8-1.8 2.7-2.15 1.15-3.05.7-1.4-.7-1.55-2.7v-.65q.2-1.75 1.7-2.75 1.85-.75 3.05-.25h.05l.7.4.2.1m22.35-7.7 2.55.65q-1.25.4-2.55-.65m.2-.65 3.3-.6q-1.05 1.15-3.3.6m-.1-.75 3.1-2.55q-.3 1.85-3.1 2.55" fill="#455465" fill-rule="evenodd"/><path d="M1.25 18.6q1.2-1.3 2.9-.8l3.75 1.05-.8 1.3-5.85-1.55m7 .05Q14 10.25 21.85 2.6 27.3-.7 33.65.2q3.7.45 6.75 2.75 2.45 1.9 3.8 4.3 1.3 2.35 1.45 3.9l-2.1-3.5-.45-.5q-3-3.1-8.45-4.3-5.1-.15-11.5 2.95l-.35.25q-6.45 4.85-12.65 12.3l-1.9.3" fill="#778aa2" fill-rule="evenodd"/><path d="m42.5 23.35-.75 1.35-3.3 5q.7-3.3-.75-7.85l-.05-.15q.95-1.5.75-4.3-.2-3.45-2.25-5.95-2.7-2.05-6.3-.5-.3-1.75-2.5-3.3-5.25 1.1-4.2 6.3l-.7.75-.15.1.25-.1Q20.2 18 12.9 21.2l2.25 1.2q-1.2-.5-3.05.25-1.5 1-1.7 2.75v.65q-5.2.85-10.35-4.6Q-.2 20 1 18.9l.25-.3 5.85 1.55.8-1.3.2.1.15-.3 1.9-.3q6.2-7.45 12.65-12.3l.35-.25q6.4-3.1 11.5-2.95 5.45 1.2 8.45 4.3l.45.5 2.1 3.5v.3l.15 3.1q-.15 2.5-3.3 8.8M27.35 7.65l.4-.65-.4.65m-6.6 6.15Q21 15.55 22 15l.3-.2-.3.2q-1 .55-1.25-1.2m-9.2 6.7 1.35.7-1.35-.7M26.1 38.05l-.15-.35-.05-.7.2 1.05M41 15.85l-2.55-.65q1.3 1.05 2.55.65m.95-1.9-3.3.6q2.25.55 3.3-.6m-.3-2.7-3.1 2.55q2.8-.7 3.1-2.55" fill="#5e7188" fill-rule="evenodd"/><path d="m38.45 29.7-.65 3.95-1.05-2.35q-1.4-2.7-3.65-3.75-3.1 2.75-5.5 6.15-1.5 2.1-1.7 3.3l.05.7.15.35q-.45 3 .8 4.75l-2.8-.45q-3.1-1-4.25-1.85-.35-1.8.45-3.45l.25-.55.2-.3.35-.6.6-1 1.8-2.7 1.35-1.9 1.45-1.75.1-.15.2-.5q.6-1.7.3-3.85l.25-.5q1.2-2.45 1-3.15l.8-.35-.95-1.3-8.55 3.2-3.35 1.25-.2-.1-.7-.4h-.05l-2.25-1.2q7.3-3.2 9.65-6.5 5.15 1.05 7.15-2.15l.15-1.6q3.6-1.55 6.3.5 2.05 2.5 2.25 5.95.2 2.8-.75 4.3l.05.15q1.45 4.55.75 7.85M35.9 14.15l-.15 1.75-1.35-1.5-.05 2.3-1.4-1.25-2.2 1.35-.55 2.35 1.9-1 .25-.15.85-.5.7-.35.9 1.1.05-1.65.4-.2.65 1.25.05-1.7.1-.05-.15-1.75m-4.5 9.9 1.1-3.9-1.6 3.9-1.05 1.05h-.05l-.75.7-2.25 2.15-2.3 3.55-.05.05-.45.7h.05l-2.15 3.3.05.5H22v.15l.05 3.2.45-3.7 4.9-7.2v-.05l.4-.4h.05l.55-.6h-.05l3.05-3.4m-2.95 3.9.05.05v-.05h-.05" fill="#98a7b8" fill-rule="evenodd"/><path d="m29.25 40.1 1.1.45 3.6 1q1.05.05 2.35-1-1.25-1.1-.6-2.9.45-1.3 1.45-1.65-.4 1.6.9 2.65l4.3.2q-.6 1.5-1.9 2.2-1.65.9-2.95.4-.9.85-1.4 1.05l-2.75.45q-3.1.25-6.45-.15-1.25-1.75-.8-4.75.55.9 2.85 2l.25.1.05-.05m-1.1-20q-3.95 1.65-8.3 2.45l-.4-.9 8.55-3.2.95 1.3-.8.35m4.8-4.65 1.4 1.25.05-2.3 1.35 1.5.15-1.75.15 1.75-.1.05-.05 1.7-.65-1.25-.4.2-.05 1.65-.9-1.1-.7.35-.85.5-.25.15-1.9 1 .55-2.35 2.2-1.35" fill="#6a8199" fill-rule="evenodd"/><path d="m11.95 28.75-.2.05q-3.3.45-6.35-1.2-2.45-1.35-4.95-4.95l-.4-1.2q5.15 5.45 10.35 4.6.15 2 1.55 2.7" fill="#4b5a6d" fill-rule="evenodd"/><path d="m19.85 40.5-.7-.7q-.35-.7.15-2.2l.65-1.6.4-.85.05-.1.7-1.35 3.75-6.25.7-1.25 1.35-2.45q.3 2.15-.3 3.85l-.2.5-.1.15L24.85 30l-1.35 1.9-1.8 2.7-.6 1-.35.6-.2.3-.25.55q-.8 1.65-.45 3.45" fill="#abb7c5" fill-rule="evenodd"/><path d="m23.95 11.15-.2-.65 1.5-.5.15.7.9-.3.6 1.65-1 .3.5 1.9-1.45.3-.55-1.8-.65.15-.35-1.55.55-.2" fill="#fffff4" fill-rule="evenodd"/><path d="m31.4 24.05-3.05 3.4h.05l-.55.6h-.05l-.4.4v.05l-4.9 7.2-.45 3.7-.05-3.2v-.15h-.05l-.05-.5 2.15-3.3H24l.45-.7.05-.05 2.3-3.55 2.25-2.15.75-.7h.05l1.05-1.05 1.6-3.9-1.1 3.9M14.25 42.9l-.95-2.8q1.75-.35 4.1-1.95l.4.75q-1.65 3.8-3.55 4m-1.4-7.9.15-1.65q1.45-.65 3.9.7v.7l-4.05.25" fill="#b85445" fill-rule="evenodd"/><path d="m23.95 11.15-.55.2.35 1.55.65-.15.55 1.8 1.45-.3-.5-1.9 1-.3-.6-1.65-.9.3-.15-.7-1.5.5.2.65m3.4-3.5q2.2 1.55 2.5 3.3l-.15 1.6q-2 3.2-7.15 2.15h-.1l.7-.75q-1.05-5.2 4.2-6.3m.15.95q-.55.1-.85.45-.35.3-.3.75l.05.1.45.5.25.1.7.05q.55-.1.85-.45l.25-.75-.45-.6-.95-.15" fill="#fa9163" fill-rule="evenodd"/><path d="m27.5 8.6.95.15.45.6-.25.75q-.3.35-.85.45l-.7-.05-.25-.1-.45-.5-.05-.1q-.05-.45.3-.75.3-.35.85-.45" fill="#fee4da" fill-rule="evenodd"/><path d="m45.65 11.45.05.2q1.2 5.05 1.25 8.35 0 3.35-.9 9.9l-1.8-1.8q.55-.3 1.05-.55 0-1.75-.8-2.95-.85-1.25-2-1.25l-.75 1.35-3.3 5-.65 3.95-1.05-2.35-1.6 1.65-3.45 3.25q-1.6 1.7-2.45 3.9l1.1.45 3.6 1q1.05.05 2.35-1-1.25-1.1-.6-2.9.45-1.3 1.45-1.65-.4 1.6.9 2.65l4.3.2q-.6 1.5-1.9 2.2-1.65.9-2.95.4-.9.85-1.4 1.05l-2.75.45q-3.1.25-6.45-.15l-2.8-.45q-3.1-1-4.25-1.85l-.7-.7q-.35-.7.15-2.2l.65-1.6.4-.85.05-.1.7-1.35 3.75-6.25-4.55-.1q5.65-4.5 6.65-4.25l.2.15q1.2-2.45 1-3.15-3.95 1.65-8.3 2.45l-.4-.9-3.35 1.25.15.1q.8.75.55 2.35-.35 1.8-1.8 2.7-2.15 1.15-3.05.7l-.2.05q-3.3.45-6.35-1.2-2.45-1.35-4.95-4.95l-.4-1.2Q-.2 20 1 18.9l.25-.3q1.2-1.3 2.9-.8l3.75 1.05.2.1.15-.3Q14 10.25 21.85 2.6 27.3-.7 33.65.2q3.7.45 6.75 2.75 2.45 1.9 3.8 4.3 1.3 2.35 1.45 3.9v.3l.15 3.1q-.15 2.5-3.3 8.8M27.75 7l-.4.65q2.2 1.55 2.5 3.3 3.6-1.55 6.3.5 2.05 2.5 2.25 5.95.2 2.8-.75 4.3l.05.15q1.45 4.55.75 7.85M27.35 7.65q-5.25 1.1-4.2 6.3l-.7.75-.15.1.25-.1Q20.2 18 12.9 21.2l2.25 1.2h.05l.7.4.2.1m6.45-8.2q5.15 1.05 7.15-2.15l.15-1.6M22.3 14.8l-.3.2q-1 .55-1.25-1.2m6.4 9.45-.25.5-1.35 2.45-.7 1.25m-5.4-5.8 8.55-3.2.95 1.3-.8.35m7.75-5.95-.15 1.75-1.35-1.5-.05 2.3-1.4-1.25m-2.2 1.35-.55 2.35 1.9-1 .25-.15.85-.5m-18.05 4.9q-1.2-.5-3.05.25-1.5 1-1.7 2.75v.65q.15 2 1.55 2.7m.95-7.55-1.35-.7M25.9 37q.2-1.2 1.7-3.3 2.4-3.4 5.5-6.15 2.25 1.05 3.65 3.75m-7.8 8.75.3.05-.05.05-.25-.1q-2.3-1.1-2.85-2l-.15-.35-.05-.7M41 15.85q-1.25.4-2.55-.65m.2-.65q2.25.55 3.3-.6m-.3-2.7q-.3 1.85-3.1 2.55" fill="none" stroke="#006" stroke-linecap="round" stroke-linejoin="round" stroke-opacity=".373" stroke-width=".05"/></g></defs></svg>