<svg viewBox="0 0 133.4 74.775" xmlns="http://www.w3.org/2000/svg" xmlns:xlink="http://www.w3.org/1999/xlink"><use transform="translate(.02 .02)" width="133.35" height="74.75" xlink:href="#a"/><defs><g id="a"><path d="m309.7 200.45-3.05-3.3 15.25-11.45 13.35-4.35 2-.65v2.85l-21.4 10.35 21.4-6.65 3.05.85 1.85 5.9-2.85 3.65-3.6-1.25-20.8 1.1-5.2 2.95m-50.9-29.2-4.9-5.2 30.75-3.45.65 1.45.1.2-1.8 2.45-1.4-2.9-1.4 3.55-1.15-2.4-.55 2.55-2.85-2.35-1.6 2.7-.05-.05-2.05-2.35-1.15 3.25-2.4-2.75-1.45 4.45-3.55-3.55-.75 3.2-3.45-2.8.1 5.25-1.1-1.25m57.05 22.65-1.35.65 1.35-.65m-55.8-4.05-.6-1.75-.7-2.1 15.2 1.7-7.75 5.1 1 .05 5.35 1.9-1.15.9-7.45 5.8-3.9-11.6" fill="#9e9525" fill-rule="evenodd" transform="translate(-208.8 -162.6)"/><path d="M337.25 183.55v3.7l-21.4 6.65 21.4-10.35m2.05 14.1-2.75 3.5-3.1-1.95-.1-.05q-7.2-.8-18.2-.3l-2.65 1.3-2.1 1.05-.7-.75 5.2-2.95 20.8-1.1 3.6 1.25m-53.55 25.9-1.25 3.6-9.8-1.3 2.9-3.2 8.15.9m-68.1 1.65 3.9-13.9-7.1-3.7 4.4-5.05-4.2-8.05 13.6 6.7-.05.05 3.05 2.3.7.55-1.65 2.45-.8 1.2 3.05 1.5-14.9 15.95" fill="#867e20" fill-rule="evenodd" transform="translate(-208.8 -162.6)"/><path d="m335.25 181.35-13.35 4.35-15.25 11.45 3.05 3.3.7.75 2.1-1.05 2.15 1.1q-10.55 7.1-25.75 10.9l-.45-.05q-19.5 2.8-58.15-5.55l1.65-2.45-.7-.55 15.5-19.8v-.05l13.6-10.75.4.5.05-.05-.85 4.3 13.6-5.9 10.25-1.35 2.8-3.5v-.1l1.3-1.6 1.65-.9.8-.4 31.85 5.7 13.05 11.7m-53.8-1.9 1-7.35 1.35-1.65-1.35 1.65-1 7.35-3.5 8 11.45 16.5-8.85-17.65.9-6.85m9.75 27.1-1.8-2.6 1.8 2.6m17.1-30.9-1.65.25-.8 2.85-2.95-.25-.55 1.65 3.15-.2-1.15 4.05 3.7.05.1-3.3 3.8-.35-.3-1.95-3.45.5.1-3.3m-48.85 12.45.6 1.75 2.65 14.5 8.7-8.7 1.15-.9 1.8-1.45-7.15-.45-1-.05 7.75-5.1-15.2-1.7.7 2.1m-1.2 9.2-1.35-4.15-4 4.2 5.35-.05m-5.05-4.2-5.15-1.45 1.55 4.9 3.6-3.45m-4.7 7.8 1.7 3.1 2.9-3.35-4.6.25" fill="#e3a75e" fill-rule="evenodd" transform="translate(-208.8 -162.6)"/><path d="m286.6 166.95-2.8 3.5-10.25 1.35-13.6 5.9.85-4.3.35-.2 2.35-1.55 23.1-4.7m-5.15 12.5-.9 6.85 8.85 17.65-11.45-16.5 3.5-8m51.9 19.7-45.3 18.05-8.85 3.45-.2.1-7.8-1.8-1.45 2-.7-2.5-1.5-.35-1.1 2.65-2.05-3.35-.7-.2-.75 2.3-1.3-2.75-3.85-.9-1.2 1.4q-.65-.95-.9-1.9l-.45-.1-3.05 1.9-.1-2.55-4.2 2.15-.6-3.35-1.75-.4-2.85 1.3.75-1.8-7.75-1.8-1.5-.7-1.65-.75-3.05-1.5.8-1.2q38.65 8.35 58.15 5.55l.45.05q15.2-3.8 25.75-10.9l-2.15-1.1 2.65-1.3q11-.5 18.2.3m-25.05-23.5-.1 3.3 3.45-.5.3 1.95-3.8.35-.1 3.3-3.7-.05 1.15-4.05-3.15.2.55-1.65 2.95.25.8-2.85 1.65-.25m-48.25 14.2 3.9 11.6 7.45-5.8-8.7 8.7-2.65-14.5m-1.8 7.45-5.35.05 4-4.2 1.35 4.15m-9.75 3.6 4.6-.25-2.9 3.35-1.7-3.1m4.7-7.8-3.6 3.45-1.55-4.9 5.15 1.45m-1.1 21.4v.1l.1-.05-.1-.05" fill="#c97e23" fill-rule="evenodd" transform="translate(-208.8 -162.6)"/><path d="m214.65 194.5-5.85-11.2 21 15.65v.05l-1.55 2.2-13.6-6.7" fill="#cabe31" fill-rule="evenodd" transform="translate(-208.8 -162.6)"/><path d="m229.8 198.95 3.8-5.5 11.15-13.1 14.05-9.1 1.1 1.25.45.45-13.6 10.75v.05l-15.5 19.8-3.05-2.3.05-.05 1.55-2.2v-.05" fill="#f3e2a0" fill-rule="evenodd" transform="translate(-208.8 -162.6)"/><path d="M286.6 166.85v.1l-23.1 4.7-2.35 1.55-.35.2-.05.05-.4-.5-.45-.45-.1-5.25 3.45 2.8.75-3.2 3.55 3.55 1.45-4.45 2.4 2.75 1.15-3.25 2.05 2.35.05.05 1.6-2.7 2.85 2.35.55-2.55 1.15 2.4 1.4-3.55 1.4 2.9 1.8-2.45.35.75.85 1.85m1.45 50.35-2.3 6.35-8.15-.9 1.7-1.8-.1-.2 8.85-3.45M234.2 210 216 231.25l1.65-6.05 14.9-15.95 1.65.75m38.35-15.25-5.35-1.9 7.15.45-1.8 1.45" fill="#5a5516" fill-rule="evenodd" transform="translate(-208.8 -162.6)"/><path d="m289.55 164.35-1.65.9-1.3 1.6-.85-1.85 3.8-.65" fill="#c97d23" fill-rule="evenodd" transform="translate(-208.8 -162.6)"/><path d="m244 221.95 2.35 1.95-5.2 11.1-12.4-3.85 15.25-9.2m18.05 5 4 8.8-6.9 1.6 1-10.55 1.9.15" fill="#c93c23" fill-rule="evenodd" transform="translate(-208.8 -162.6)"/><path d="m100.9 37.85-3.05-3.3L113.1 23.1l13.35-4.35-13.05-11.7-31.85-5.7-.8.4-1.65.9-1.3 1.6v.1L75 7.85 73.65 9.5l-1 7.35-.9 6.85 8.85 17.65 1.8 2.6m46.05-23v3.7l3.05.85 1.85 5.9-2.85 3.65-2.75 3.5-3.1-1.95-.1-.05-45.3 18.05-2.3 6.35-1.25 3.6-9.8-1.3 2.9-3.2 1.7-1.8-.3-.1-7.8-1.8m-2.15-.5-1.5-.35m-5.9-1.35-3.85-.9m-2.1-.5-.45-.1M38.5 50.8l-1.75-.4m-2.1-.5-7.75-1.8-1.5-.7M21 36.35l3.8-5.5 11.15-13.1L50 8.65M76.95 2.4l3.8-.65m45.7 17 2-.65v2.85m-21.4 10.35 21.4-6.65m-22.75 7.3 1.35-.65m17.5 5.25q-7.2-.8-18.2-.3l-2.65 1.3-2.1 1.05-.7-.75m-79.4 6.1-.8 1.2 3.05 1.5 1.65.75m-5.95-8.8L21 36.4m1.45 4.55-3.05-2.3.05-.05m2.05 5.35 1.65-2.45-.7-.55m29.9-30.35 2.35-1.55 23.1-4.7m-25.85 6.5.05-.05m-8.6 41.15-.1-.05m26.9 6.25.2-.1 8.85-3.45" fill="none" stroke="#454427" stroke-linecap="round" stroke-linejoin="round" stroke-opacity=".424" stroke-width=".05"/><path d="M25.4 47.4 7.2 68.65l1.65-6.05 3.9-13.9-7.1-3.7 4.4-5.05-4.2-8.05L0 20.7l21 15.65m29-27.7-4.9-5.2L75.85 0l.65 1.45m.1.2.35.75.85 1.85M21 36.4v-.05m16.95-15.2v-.05m13.6-10.75-.3-.3m-.15-.15L50 8.65m1.55 1.7.4.5m-.7 16.4 3.9 11.6 7.45-5.8 1.15-.9 1.8-1.45-7.15-.45-1-.05 7.75-5.1-15.2-1.7.7 2.1" fill="none" stroke="#454427" stroke-linecap="round" stroke-linejoin="round" stroke-opacity=".424" stroke-width=".05"/></g></defs></svg>