<svg viewBox="0 0 20.665 58.009" xmlns="http://www.w3.org/2000/svg" xmlns:xlink="http://www.w3.org/1999/xlink"><use transform="translate(.01 .01) scale(.1192)" width="173.3" height="486.6" xlink:href="#a"/><defs><g id="a"><path d="M0-232.95v-10.4q14.45 19.4 22.3 58.3-7.65-2.65-15.2-15.65 13.6 26.2 16.2 58.3.4 8.85.45 18.15Q23.55-52.6 8.95 6.3q-3.8 2.45-4.8 5.8h-.4L0 3.35v-15.4l.2-10.8-.2-10.2v-199.9m79.95 67.85 2.9-8.5q5.9 16.7 2.1 46.85-5.05-3.15-7.5-13.95 3.7 21.55-2.3 45.8L70.8-81.4Q52.9-28.1 27.5 13.35q-3.45 1.2-5 3.55h-.2l-.85-7.1 58.5-174.9M7.5 72.1v1h-10v-1.85h10v.85m21.65 8.1L25.4 92.5h-46.2l-3.75-12.3h14.15q19.75-6.8 39.55 0m-5 123.9-2.9 14.75-9.4 7.5H-7.1l-9.35-7.5-3.1-14.75h43.7" fill="#212421" fill-rule="evenodd" transform="translate(86.75 243.45)"/><path d="M4.15 12.1q-.35 1-.4 2.1.25 2.5 1.45 3.95 4.45.4 8.95 1.45 1-.8 1.7-2.3l.2-1.65h.2l-.4 1.65.4-1.65 5.2-5.85.85 7.1-.65 1.65q-.45 1.9.2 3.15 7.1 2.35 14.4 6.25 7.7 13.3 7.7 17.5 0 4.15-7.7 17.05l-3.75 1.65-.65.45Q19.4 70.45 7.5 72.1v-.85h-10v1.25q-7.05-.2-13.95-1.9-7.05-2.05-13.95-5.8l-.85-.2-3.5-2.1q-7.5-12.9-7.5-17.05 0-4.2 7.5-17.5 6.2-3.95 12.7-6.45.6-1.1.2-2.95-.45-.9-1.05-1.65h.4l.65 1.65-.65-1.65.65-7.1h.2l-61.2-183.4q15.55 12 31 39.55-6.2-.65-15-8.95 16.6 17.2 26.45 40.6l4.6 13.55q17.75 53.25 21.65 99.3-2.95 3.2-1.9 6.85.6 1.35 1.5 2.1 4.5-1.1 9.15-1.45 1.05-1.4 1.25-3.75v-2.1L0-21.2l.2-1.65-.2 10.8v15.4l3.75 8.75h.4m18.35 4.8q-.55.75-.85 1.65l.65-1.65h.2M0-12.05v-9.15 9.15M14.15 19.6q-1.35 1.1-3.3.85l13.1 2.7q-1.55-.45-2.1-1.45.55 1 2.1 1.45l-13.1-2.7q1.95.25 3.3-.85M5.2 18.15q1.25 1.3 3.55 1.45h-17.7q2.3-.2 3.55-1.65-1.25 1.45-3.55 1.65h17.7q-2.3-.15-3.55-1.45M3.75 14.2v-2.1 2.1m-28.1 34.35q1.85 6.1 6.65 11.05 8.25 7.9 19.6 7.9 11.2 0 19.15-7.9 4.4-4.45 6.45-9.8l.6-1.65.65-2.95V45q-1.5-8.1-7.7-14.35-7.95-7.95-19.15-7.9-11.35-.05-19.6 7.9-5.9 6.1-7.5 13.95v.6l.85 3.35m8.3-31.25-.4-1.65-5.2-5.85 5.2 5.85.4 1.65m1.5 2.1q1.3 1.3 3.3 1.05l-12.9 2.7q1.5-.5 2.1-1.65-.6 1.15-2.1 1.65l12.9-2.7q-2 .25-3.3-1.05" fill="#252525" fill-rule="evenodd" transform="translate(86.75 243.45)"/><path d="M27.5 49.8q-1.8-2.15-4.2-4.15l-3.1-2.7h-.4v-.25q.05-2.4-.45-4.55-1.05-4.95-4.75-8.75-5.4-5.25-13.35-5.2-5.9.05-10.4 3.1-2.6.05-4.6 1.7-1.7 1.95-1.65 4.55v.65l-.85 2.05q-1 2.9-1.05 6.25l-3.95 3.15-3.1 2.9-.85-3.35v-.6q1.6-7.85 7.5-13.95 8.25-7.95 19.6-7.9 11.2-.05 19.15 7.9 6.2 6.25 7.7 14.35v.2l-.65 2.95-.6 1.65" fill="#bfcaca" fill-rule="evenodd" transform="translate(86.75 243.45)"/><path d="m11.85 226.35-.4 2.1q-3.6.5-8.95 14.6h-.6q-3.65-13.85-8.75-14.6l-.25-2.1h18.95m-9.55 16.7v-16.7 16.7" fill-rule="evenodd" transform="translate(86.75 243.45)"/><path d="M16.05 15.65q.15-2.7-2.1-5.2Q17.7-35.6 35.4-88.85q2.25-7 4.8-13.55 9.85-23.4 26.45-40.6-8.8 8.3-15 8.95 15.45-27.55 31-39.55l-2.7 8.5L21.45 9.8l-5.2 5.85h-.2M7.5 73.1h16.25L30 78.55l-.85 1.65q-19.8-6.8-39.55 0l3.3-7.1H7.5m11.85 124.1 4.8 6.9H-3.1l1-6.9h21.45m-38.9 6.9 4.75-6.9h6.05l-2.7 6.9h-8.1m-5-123.9-.85-1.65 6.25-5.45h5.85l-4.6 7.1h-6.65m1.65-63.3q-1.5-2.35-4.8-3.55Q-53.25-28.1-71.2-81.4l-4.15-13.5q-6.1-24.25-2.5-45.8-2.4 10.8-7.3 13.95Q-89-156.9-83.1-173.6L-21.85 9.8l-.65 7.1h-.4m18.75-2.7q-.1-4.75-5-7.9-14.65-58.9-14.8-130.55 0-9.3.4-18.15 2.5-32.1 16.05-58.3-7.5 13-15 15.65 7.85-38.9 22.3-58.3l.2 10.4v199.9l.2 10.2L0-21.2l-4.15 33.3v2.1M0-33.05v11.85-11.85" fill="#7d8172" fill-rule="evenodd" transform="translate(86.75 243.45)"/><path d="M-13.3 73.1h6.2l-3.3 7.1h-7.5l4.6-7.1m4.55 124.1h6.65l-1 6.9h-8.35l2.7-6.9" fill="#e6e8d2" fill-rule="evenodd" transform="translate(86.75 243.45)"/><path d="m-24.35 48.55 3.1-2.9 3.95-3.15q.05-3.35 1.05-6.25l.85-2.05v-.65q-.05-2.6 1.65-4.55 2-1.65 4.6-1.7 4.5-3.05 10.4-3.1 7.95-.05 13.35 5.2 3.7 3.8 4.75 8.75.5 2.15.45 4.55v.25h.4l3.1 2.7q2.4 2 4.2 4.15-2.05 5.35-6.45 9.8-7.95 7.9-19.15 7.9-11.35 0-19.6-7.9-4.8-4.95-6.65-11.05" fill="#fff" fill-rule="evenodd" transform="translate(86.75 243.45)"/><path d="m-14.8 197.2-.6-23.1h25.8q2.3 6.6-.2 12.3 2.3 4.9-.4 10.8h-24.6m-1.25-34.55-.4-24.15h27.7q2.85 5.95-.2 11.85 4 6.15-.2 12.3h-26.9m-1-49.15-.45-6.25h29.8l-.2 6.25h-29.15" fill="#ae6b55" fill-rule="evenodd" transform="translate(86.75 243.45)"/><path d="m-15.4 174.1-.65-11.45h26.9q2.25 5.75-.45 11.45h-25.8m-1.05-35.6-.6-25H12.1q2.8 5.95-.25 11.9 1.85 6.95-.6 13.1h-27.7" fill="#9e5e4e" fill-rule="evenodd" transform="translate(86.75 243.45)"/><path d="m22.5 92.5-3.15 104.7H9.8q2.7-5.9.4-10.8 2.5-5.7.2-12.3 2.7-5.7.45-11.45 4.2-6.15.2-12.3 3.05-5.9.2-11.85 2.45-6.15.6-13.1 3.05-5.95.25-11.9l.2-6.25h-29.8l-.4-14.75h40.4" fill="#6d4136" fill-rule="evenodd" transform="translate(86.75 243.45)"/><path d="M86.75 10.5V.1q14.45 19.4 22.3 58.3-7.65-2.65-15.2-15.65 13.6 26.2 16.2 58.3.4 8.85.45 18.15-.2 71.65-14.8 130.55-3.8 2.45-4.8 5.8-.35 1-.4 2.1.25 2.5 1.45 3.95m8.95 1.45q1-.8 1.7-2.3l.2-1.65q.15-2.7-2.1-5.2 3.75-46.05 21.45-99.3 2.25-7 4.8-13.55 9.85-23.4 26.45-40.6-8.8 8.3-15 8.95 15.45-27.55 31-39.55l-2.7 8.5 2.9-8.5q5.9 16.7 2.1 46.85-5.05-3.15-7.5-13.95 3.7 21.55-2.3 45.8l-4.35 13.5q-17.9 53.3-43.3 94.75-3.45 1.2-5 3.55-.55.75-.85 1.65-.45 1.9.2 3.15.55 1 2.1 1.45l-13.1-2.7q1.95.25 3.3-.85m-6.65 52.5v1m15 19.4-3.15 104.7m-34.15 0-.6-23.1-.65-11.45-.4-24.15-.6-25-.45-6.25-.4-14.75m15.4-19.4v-1.85M64.7 264.95q.6-1.1.2-2.95-.45-.9-1.05-1.65-1.5-2.35-4.8-3.55-25.55-41.45-43.5-94.75l-4.15-13.5q-6.1-24.25-2.5-45.8-2.4 10.8-7.3 13.95-3.85-30.15 2.05-46.85l61.25 183.4h.2L3.9 69.85q15.55 12 31 39.55-6.2-.65-15-8.95 16.6 17.2 26.45 40.6l4.6 13.55q17.75 53.25 21.65 99.3-2.95 3.2-1.9 6.85.6 1.35 1.5 2.1m9.15-1.45q1.05-1.4 1.25-3.75-.1-4.75-5-7.9-14.65-58.9-14.8-130.55 0-9.3.4-18.15 2.5-32.1 16.05-58.3-7.5 13-15 15.65Q72.1 19.5 86.55.1l.2 10.4v199.9l.2 10.2-.2 10.8v15.4l3.75 8.75v2.1m-3.75-35.4V210.4m0 11.85v9.15m.2-10.8-.2 1.65-4.15 33.3v2.1m26.45 2.7-.65 1.65m-.2-8.75.85 7.1m-27.7 1.05q-1.25 1.45-3.55 1.65h17.7q-2.3-.15-3.55-1.45m11.05-2.5-.4 1.65m5.6-7.5-5.2 5.85m-8.75 55.6v.85m13.95-62.3 58.5-174.9m-102 186.6q-.6 1.15-2.1 1.65l12.9-2.7q-2 .25-3.3-1.05m-7.1-9.6 5.2 5.85.4 1.65m-6.45-.4.65 1.65m-.65-1.65.65-7.1" fill="none" stroke="#000" stroke-linecap="round" stroke-linejoin="round" stroke-opacity=".333" stroke-width=".25"/><path d="M91.95 261.6q4.45.4 8.95 1.45m7.7 2.1q7.1 2.35 14.4 6.25 7.7 13.3 7.7 17.5 0 4.15-7.7 17.05l-3.75 1.65-.65.45q-12.45 5.85-24.35 7.5m0 1h16.25l6.25 5.45-.85 1.65-3.75 12.3h-2.9m-3.15 104.7 4.8 6.9-2.9 14.75-9.4 7.5-.4 2.1m-18.3 0-.25-2.1-9.35-7.5-3.1-14.75 4.75-6.9h34.15m-37.25-104.7h-2.9l-3.75-12.3-.85-1.65 6.25-5.45h26.65m-10-.6q-7.05-.2-13.95-1.9-7.05-2.05-13.95-5.8l-.85-.2-3.5-2.1q-7.5-12.9-7.5-17.05 0-4.2 7.5-17.5 6.2-3.95 12.7-6.45m7.5-2.1q4.5-1.1 9.15-1.45m7.7 208.4v16.7m9.55-16.7H79.65m-10.8-133.85h40.4" fill="none" stroke="#000" stroke-linecap="round" stroke-linejoin="round" stroke-opacity=".333" stroke-width=".25"/><path d="M7.95 57.55q2.3-1 4.6-3.35 4.6-4.6 4.85-11l-.5-2.8q-.5-3.85-2.8-6.7l-1.55-1.75Q7.95 27.3 1.5 27.3q-3.55 0-6.4 1.3l-.25-.5Q-7.2 26.05-10 26.05h-.25q5.1-3.6 11.75-3.35 8.75-.25 14.65 5.65 4.1 4.1 5.35 9.75.5 2.3.5 5.1 0 8.45-5.85 14.35h-.55Q10 63.45 1.5 63.7q-8.7 0-14.85-6.15Q-19 51.65-19 43.2v-.5q0-3.6 1.05-6.65l1-2.35.3 1.55 1.5 2.55 1.3 1.05-.25 1.55-.25 2.8q0 5.65 3.55 9.75l1.05 1.25q4.6 4.65 11.25 4.65 3.35 0 6.45-1.3" fill-rule="evenodd" transform="translate(86.75 243.45)"/><path d="M-4.9 28.6q2.85-1.3 6.4-1.3 6.45 0 11.05 4.65l1.55 1.75q2.3 2.85 2.8 6.7l.5 2.8q-.25 6.4-4.85 11-2.3 2.35-4.6 3.35l1.5-1q3.6-3.1 3.85-7.2-.25-3.6-3.05-5.9 1-1 1-2.55t-1-2.8H10q-1.05-1.05-2.6-1.05l-1.25.25Q3.85 35 1 35.25-2.3 35-4.35 37.3l-.3.25Q-6.4 39.1-6.7 41.4l-1.25 1.05q-3.6 2.8-3.6 6.9 0 2.05.75 3.6-3.55-4.1-3.55-9.75l.25-2.8.25-1.55q.75.25 1.55.75l2.3.25q2.8 0 4.85-2.05t2.3-4.85l-.25-1.8q-.75-1.55-1.8-2.55" fill="#984a12" fill-rule="evenodd" transform="translate(86.75 243.45)"/><path d="M-6.7 41.4q.3-2.3 2.05-3.85l.3-.25Q-2.3 35 1 35.25 3.85 35 6.15 37.3H5.6q-.5.25-1 .8-1.05 1.25-.75 2.8-.3 1.55.75 2.55 1.3 1.3 2.8 1.3h1.05q-.8 1.8-2.3 3.3Q4.1 50.4 1 50.4q-3.3 0-5.35-2.35-2.35-2.3-2.35-5.35-.25-.5 0-1.3" fill="#212421" fill-rule="evenodd" transform="translate(86.75 243.45)"/><path d="M7.95 57.55q-3.1 1.3-6.45 1.3-6.65 0-11.25-4.65l-1.05-1.25q-.75-1.55-.75-3.6 0-4.1 3.6-6.9l1.25-1.05q-.25.8 0 1.3 0 3.05 2.35 5.35Q-2.3 50.4 1 50.4q3.1 0 5.15-2.35 1.5-1.5 2.3-3.3.75-.25 1.55-1.3h.25q2.8 2.3 3.05 5.9-.25 4.1-3.85 7.2l-1.5 1" fill="#e17b17" fill-rule="evenodd" transform="translate(86.75 243.45)"/><path d="m6.15 37.3 1.25-.25q1.55 0 2.6 1.05h.25q1 1.25 1 2.8t-1 2.55H10q-.8 1.05-1.55 1.3H7.4q-1.5 0-2.8-1.3-1.05-1-.75-2.55-.3-1.55.75-2.8.5-.55 1-.8h.55" fill="#fff3ce" fill-rule="evenodd" transform="translate(86.75 243.45)"/><path d="m-13.85 38.85-1.3-1.05-1.5-2.55-.3-1.55v-.75q0-2.8 1.8-4.85 2.05-2.05 4.9-2.05h.25q2.8 0 4.85 2.05l.25.5q1.05 1 1.8 2.55l.25 1.8q-.25 2.8-2.3 4.85T-10 39.85l-2.3-.25q-.8-.5-1.55-.75" fill="#fff7e6" fill-rule="evenodd" transform="translate(86.75 243.45)"/></g></defs></svg>