<svg viewBox="0 0 13.6 55.4" xmlns="http://www.w3.org/2000/svg" xmlns:xlink="http://www.w3.org/1999/xlink"><use transform="translate(.03 .02)" width="13.55" height="55.35" xlink:href="#a"/><defs><use width="13.55" height="55.35" xlink:href="#b" id="a"/><g id="b"><path d="m7.2 0 .35 1.9.05.4.4 2.55.15.9q.7 3.9 3.25 10.3-1.5 6-2.2 14.05l-.05.15-.7-1.25q.65-7.35 2.05-12.95L7.85 5.75l-.4-1.5-.15 22.9-.45-.75.3-23.15v-.1L7.2 0m.6 53.15q-.75.75-1.1 1.65l-.35.55V52.8l.2.05v1.05l.65-.8.6.05" fill="#cd9a01" fill-rule="evenodd"/><path d="M4.4 30.6v-.55Q4 22.9 2.55 15.95 5.25 9.7 6.1 5.75l.15-.85.45-2.6.1-.4.4-1.9-.05 3.15v.1l-.75 2.5-2.9 10.2q1.3 6.6 1.75 13.35l-.85 1.3m1.95 24.75-.25-.55q-.55-1.15-1.55-2.15l.75-.7.4.4-.5.3 1.15 1.5v1.2M.7 34l.5-.55.2-.2.65-.5q.95-.6 2.05-.9l.35-.1h.05l.4-.1.45-.05h.05l1.35-.1h.55l.9.1h-.15l-.95-.05-.45.05H6.6l-1.4.15-.9.25-.35.1q-1.15.4-2.05 1.1Q.2 34.45.05 36.05v-.1Q.05 34.9.7 34" fill="#fee6a0" fill-rule="evenodd"/><path d="M5.25 29.3Q4.8 22.55 3.5 15.95l2.9-10.2.75-2.5-.3 23.15v.4l-1.6 2.5m.45 23.05.65.45v1.35l-1.15-1.5.5-.3" fill="#fc3" fill-rule="evenodd"/><path d="m7.3 27.15.15-22.9.4 1.5 2.65 10.3Q9.1 21.65 8.45 29L7.3 27.15M7.2 53.1l-.65.8v-1.05l.65.25" fill="#fec210" fill-rule="evenodd"/><path d="m7.85 28.45-.55-.9v-.4L8.45 29l-.05.35-.55-.9m-1.3 24.4.05-1.15h.15q.2.7.85 1l-.4.4-.65-.25" fill="#d39e01" fill-rule="evenodd"/><path d="M9.15 30.25v.35l-.75-1.25.05-.35.7 1.25m-.1 1.5.3.05.2.05q1.1.35 2.05 1 1.95 1.4 1.95 3.25l-.05.5q-.2-.95-1.15-1.75l-.15-.1-.65-.4q-.65-.4-1.4-.65v.3l-.15.5-.3.2-.95-.05H5.2l-1.35-.05-.3-.2-.05-.1h3.85l.25-.1.1-.3v-.2l-.1-.15-.2-.1-3.85-.05q.15-.2.35-.2l5.8.1.35.2.1.2-.1-.2-.35-.2-5.8-.1q-.2-.05-.35.15v.05l-.1.25q-.8.2-1.45.6-.6.3-1.05.7.45-1.15 1.8-2.05.95-.6 2.1-.9l.35-.1.85-.15 1.45-.1.05.05H8l.9.05h.15m.35 17.9-.05.75-.8.25v.5l-1.15.5q.15.7.9 1.05l-.5.45-.6-.05.4-.4q-.65-.3-.85-1H6.6l-.05 1.15-.2-.05.05-1.1H6l-.5-.1-.4-.1h.2l.7-.2q.35-.25-1.65-.55v-.15l.25.1q2-.05 1.1-.5l.05-.05.75.05 1.2-.1 1.7-.45m-2.1-22.1-.45-.75v-.4l.45.75v.4m1.25 23.1-1.35.25H5.6l-1-.2 1 .2h1.6l1.35-.25M6.4 51.7h.2-.2m1-.05-.4.05h-.25H7l.4-.05" fill="#a97e01" fill-rule="evenodd"/><path d="M7.3 27.55v.05l-.45-.8.45.75" fill-rule="evenodd"/><path d="m3.55 49.6 1.65-1.85L5 43.3h.05l.25 4.45-1.7 1.85.4.1v.05l-.4-.15h-.05m3.75-22v-.05l.55.9-.55-.85" fill="#2d2d2d" fill-rule="evenodd"/><path d="M9.15 30.6v.45l-.1.7-.7-.15H8.2l.05-.7.1-.9.05-.65.75 1.25m-.4 4.05-.95 13.1 1.6 1.9-1.7.45-1.2.1-.75-.05 2.15-.5-1.55-1.9.75-12.05q-.15-.6-1.9-.9l-.5-.1-.15-.05H4.5h4.25m-1.9-7.85.45.8-.05 3.9h-.5l.1-4.7" fill="#9f9f9f" fill-rule="evenodd"/><path d="M4.45 31.75v-.8l-.05-.35.85-1.3v.65l.05.95.05.7-.45.05-.4.1h-.05m.1 2.9.15.05.8 13.3L4 49.7l-.4-.1 1.7-1.85-.25-4.45-.5-8.65" fill="#fff" fill-rule="evenodd"/><path d="m6.85 26.8-.1 4.7-1.35.1h-.05l-.05-.7-.05-.95v-.65l1.6-2.5M4.7 34.7l.5.1q1.75.3 1.9.9l-.75 12.05 1.55 1.9-2.15.5H5.6l-1.6-.4v-.05L5.5 48l-.8-13.3" fill="#dadada" fill-rule="evenodd"/><path d="m7.3 27.6.55.85.55.9-.05.65-.1.9-.05.7-.9-.1h-.05l.05-3.9" fill="#c1c1c1" fill-rule="evenodd"/><path d="m5.1 51.5-.75-.35v-.4q2 .3 1.65.55l-.7.2h-.2m-.75-.9-.8-.25v-.75h.05l.4.15 1.6.4h.1v.05q.9.45-1.1.5l-.25-.1m-.9-16.3-.05-.4v-.05l.05-.2.1-.25 3.85.05.2.1.1.15v.2l-.1.3-.25.1h-3.9m-2.5.65q-.8.65-.9 1.45L0 36.05h.05q.15-1.6 1.85-2.85.9-.7 2.05-1.1l.35-.1.9-.25 1.4-.15h.05l.45-.05.95.05h.3l.7.15H8.9L8 31.7h-.45l-.05-.05-1.45.1-.85.15-.35.1q-1.15.3-2.1.9-1.35.9-1.8 2.05" fill="#c89602" fill-rule="evenodd"/><path d="m3.85 34.6-.3-.2-.1-.1h.05l.05.1.3.2M0 36.05v-.1q0-1.1.7-1.95-.65.9-.65 1.95v.1H0m1.4-2.8.65-.5q.9-.6 2.05-.9l.35-.1-.35.1q-1.1.3-2.05.9l-.65.5m2.5-.05q-.2 0-.35.2v-.05q.15-.2.35-.15" fill="#598a93" fill-rule="evenodd"/><path d="M5.7 50.2v-.05h.05l-.05.05" fill="#3f6167" fill-rule="evenodd"/><path d="m6.35 52.8-.65-.45.3-.65h.4l-.05 1.1" fill="#f8ba01" fill-rule="evenodd"/><path d="m5.3 51.95.2-.35.5.1-.3.65-.4-.4" fill="#fdd35b" fill-rule="evenodd"/><path d="M4.4 30.6v-.55Q4 22.9 2.55 15.95 5.25 9.7 6.1 5.75l.15-.85.45-2.6.1-.4.4-1.9.35 1.9.05.4.4 2.55.15.9q.7 3.9 3.25 10.3-1.5 6-2.2 14.05l-.05.15v.8l-.1.7.3.05.2.05q1.1.35 2.05 1 1.95 1.4 1.95 3.25l-.05.5q-.2-.95-1.15-1.75l-.15-.1-.65-.4q-.65-.4-1.4-.65v.3l-.15.5-.3.2-.95-.05-.95 13.1 1.6 1.9-.05.75-.8.25v.5l-1.15.5q.15.7.9 1.05l-.5.45q-.75.75-1.1 1.65l-.35.55-.25-.55q-.55-1.15-1.55-2.15l.75-.7.2-.35-.4-.1-.75-.35v-.55l-.8-.25v-.75l1.65-1.85L5 43.3l-.5-8.65h.7l-1.35-.05-.3-.2-.1-.1-.05-.4v-.05l.05-.2q-.8.2-1.45.6-.6.3-1.05.7-.8.65-.9 1.45L0 36.05v-.1q0-1.1.7-1.95l.5-.55.2-.2.65-.5q.9-.6 2.05-.9l.35-.1v-.8l-.05-.35.85-1.3 1.6-2.5.45.8.55.85m-.6 3.05h.05l.9.1m.2-2.25-.55-.9m-1.1 3.05h.5m1.9-.9-.75-1.25m.65 2.4-.7-.15H8.2m-4.7 2.7.05.1.3.2m6.3-.9-.1-.2-.35-.2-5.8-.1q-.2 0-.35.2l-.1.25m3.3-2.15-1.35.1h-.05l-.45.05-.4.1h-.05l-.35.1q-1.1.3-2.05.9l-.65.5m4.35 16.9.75.05 1.2-.1 1.7-.45m-4.2-15h3.55M.7 34q-.65.9-.65 1.95v.1M3.9 33.2q-.2-.05-.35.15v.05m1 1.25.5 8.65.25 4.45-1.7 1.85.4.1m0 .05-.4-.15h-.05m2.15.55h-.1l-1.6-.4m1.7.4h.05m-1.15.55 1 .2h1.6l1.35-.25M6.4 51.7H6m-.5-.1.5.1m.6 0h-.2m.35 0H6.6m.15 0H7l.4-.05M4.35 50.6l.25.1" fill="none" stroke="#333" stroke-linecap="round" stroke-linejoin="round" stroke-width=".05"/></g></defs></svg>