<svg viewBox="0 0 24.753 51.725" xmlns="http://www.w3.org/2000/svg" xmlns:xlink="http://www.w3.org/1999/xlink"><use transform="translate(.03 .02)" width="24.7" height="51.7" xlink:href="#a"/><defs><use width="24.7" height="51.7" xlink:href="#b" id="a"/><g id="b"><path d="M14.3.25V0l.05.1v.1-.1l.05-.1v.2h-.05l-.05.05M6 29.85l.6-.25-.55.35-.05-.1" fill="#d5d5df" fill-rule="evenodd"/><path d="m14.3.25.05-.05h.05v7.4l-.05.6-.05.45q-.3 2.45-1.25 4.15-2.65 4.95-.85 9.75.7 2.2 1 4.5l-.9.75h-.6q-1.15-6.3-.5-13.85.7-7.85 3.1-13.7m1.2 28.65h1.6l-2.6 1.6-2.6-1.6h3.6M5.95 45.1l.55 1.85.55 1.25q-3.4-1.05-5.4-4-2.3-3.4-1.4-7.4.85-4 4.4-6.25l1.35-.7.05.1Q3 32 2.3 35.7q-.8 3.7 1.2 6.8 1 1.6 2.45 2.6" fill="#eff3f7" fill-rule="evenodd"/><path d="M11.9 32.05V28.9l2.6 1.6-2.6 1.55M5.75 39.5q-.45 3 .2 5.6-1.45-1-2.45-2.6-2-3.1-1.2-6.8.7-3.7 3.75-5.75l.55-.35q2.2-.85 4.6-.6-.5.85-1.9.95-6.1 1.8-3.55 9.55M14.4 7.6v15.35l-.05-1.25-.05.25q-.2 4.55-1.1 5.1-.3-2.3-1-4.5-1.8-4.8.85-9.75.95-1.7 1.25-4.15l.05-.45.05-.6m-.65 8.25q-.35-1.1-.8-1.1t-.75 1.1q-.3 1.05-.3 2.65 0 1.55.3 2.6.3 1.1.75 1.1t.8-1.1l.3-2.6-.3-2.65" fill="#add3d6" fill-rule="evenodd"/><path d="M14.4.2q2.4 5.9 3.1 13.75.65 7.55-.5 13.85h-.6l-.9-.75q.3-2.3 1-4.5 1.8-4.8-.85-9.75-.95-1.7-1.25-4.15V.2m4.5 28.7 5.8.8q-2.5.8-5.8.8 3.15-.9 0-1.6" fill="#c6dfde" fill-rule="evenodd"/><path d="M17.1 28.9h1.8q3.15.7 0 1.6h-1.8v1.55l-2.6-1.55 2.6-1.6v1.6-1.6m-6.15 1.6-.75.2q-1.05.5-2.2 1.95t-1.95 5.3l-.3 1.55Q3.2 31.75 9.3 29.95q1.4 0 1.65.55M14.4 8.65q.3 2.45 1.25 4.15 2.65 4.95.85 9.75-.7 2.2-1 4.5-1.05-1.35-1.1-4.6V8.65m2.2 7.2q-.35-1.05-.8-1.05t-.75 1.05q-.3 1.1-.3 2.65t.3 2.65.75 1.1.8-1.1l.3-2.65-.3-2.65" fill="#63a2ad" fill-rule="evenodd"/><path d="m16.6 15.85.3 2.65-.3 2.65q-.35 1.1-.8 1.1t-.75-1.1-.3-2.65.3-2.65q.3-1.05.75-1.05t.8 1.05" fill="#92c7c6" fill-rule="evenodd"/><path d="m13.75 15.85.3 2.65-.3 2.6q-.35 1.1-.8 1.1t-.75-1.1q-.3-1.05-.3-2.6 0-1.6.3-2.65.3-1.1.75-1.1t.8 1.1" fill="#c7e2e1" fill-rule="evenodd"/><path d="M16.4 27.8h-.9v-.1l-2.3.1h-.9l.9-.75q.9-.55 1.1-5.1l.05-.25.05 1.25v-.5q.05 3.25 1.1 4.6l.9.75m-4.5 4.25 2.6-1.55 2.6 1.55h-5.2" fill="#4e8a92" fill-rule="evenodd"/><path d="M11.2 29h.05-.05" fill="#9492ad" fill-rule="evenodd"/><path d="m11.9 30.65-.95-.15q-.25-.55-1.65-.55 1.4-.1 1.9-.95l.7-.1v1.75" fill="#4a8a94" fill-rule="evenodd"/><path d="M15.5 27.8v1.1h-2.3v-1.1l2.3-.1v.1" fill="#305b61" fill-rule="evenodd"/><path d="M17.1 32.05h.35l.3.35q.5 1.8-.4 2.25H12.4q-1.25-.6-1.2-2.25l.35-.35h5.55m.25 17.05.35.35.05 1.75h-6.5q.05-1.5 1-2l.15-.1h4.95" fill="#381e10" fill-rule="evenodd"/><path d="m17.35 34.65-.3 1.95-.2 2.15-.1 1.1-.05 2.2.05 1.1.1 2.1.1 1.1.3 2.05.1.7h-2.8l.25-.7.3-.9.3-1.15-.35-.2q-1.15-.55-1.85.2l-.8-1.1h3.25l.25-2.1q-.55-.5-1.05-.6-.85-.15-1.75.6l-.7-1.1h3.55l-.1-2.2q-.6-.6-1.2-.65-.75-.05-1.55.65l-.7-1.1h3.3l-.5-2.2q-.4-.45-.75-.55-.75-.35-1.45.55l-.6-1.1v-.8h4.95" fill="#004842" fill-rule="evenodd"/><path d="M12.4 48.4q1.1-1.05.8-2.05.7-.75 1.85-.2l.35.2-.3 1.15-.3.9h-2.4m0-3.15q1.05-1 .7-2.1.9-.75 1.75-.6.5.1 1.05.6l-.25 2.1H12.4m0-3.2q1.1-1.05.7-2.2.8-.7 1.55-.65.6.05 1.2.65l.1 2.2H12.4m0-3.3q.85-1.1.6-2.2.7-.9 1.45-.55.35.1.75.55l.5 2.2h-3.3" fill="#01897e" fill-rule="evenodd"/><path d="m17.75 51.2-.3.5h-5.9l-.3-.5h6.5" fill="#251310" fill-rule="evenodd"/><path d="M12.4 49.1v-.7h2.4l-.25.7H12.4" fill="#006563" fill-rule="evenodd"/><path d="M14.35.1 14.3 0v.25l.05-.05V.1l.05-.1v.2q2.4 5.9 3.1 13.75.65 7.55-.5 13.85h-1.5v1.1h3.4l5.8.8q-2.5.8-5.8.8h-1.8v1.55h-5.2v-1.4l-.95-.15-.75.2q-1.05.5-2.2 1.95t-1.95 5.3l-.3 1.55q-.45 3 .2 5.6l.55 1.85.55 1.25q-3.4-1.05-5.4-4-2.3-3.4-1.4-7.4.85-4 4.4-6.25l1.35-.7.6-.25q2.2-.85 4.6-.6l.7-.1h1.3v-1.1h-1.5q-1.15-6.3-.5-13.85.7-7.85 3.1-13.7m3.05 34.4-.3 1.95-.2 2.15-.1 1.1-.05 2.2.05 1.1.1 2.1.1 1.1.3 2.05.1.7m-4.95 0v-.7q1.1-1.05.8-2.05l-.8-1.1q1.05-1 .7-2.1l-.7-1.1q1.1-1.05.7-2.2l-.7-1.1q.85-1.1.6-2.2l-.6-1.1v-.8m.8-6.85 2.3-.1v.1m-2.3 1.1h2.3m-3.6 0v1.75m5.2-.15v-1.6" fill="none" stroke="#000" stroke-linecap="round" stroke-linejoin="round" stroke-width=".05"/></g></defs></svg>