<svg viewBox="0 0 61.004 64.8" xmlns="http://www.w3.org/2000/svg" xmlns:xlink="http://www.w3.org/1999/xlink"><use transform="translate(.03 .02)" width="60.95" height="64.9" xlink:href="#a"/><defs><g id="a"><path d="m308.3 132.5.6.05q1.5-.25 5 1.55l-.15.25q-4.3-.35-7.35 4.25l-8.75 14.15-.15-.05-2.8 2.7-.6.55-.2-.15q.5-2.45-1.05-3.95l-1.7-1.9q2.65.25 4.75-2.3l.2-.1.9.05q-.75-.5-.4-.75l1.7-2.6q.15-.35 1.35.55l-1.05-1 .2-.3v-.1l1.35-2.05q4.7-7.8 8.15-8.85m6.25 2.05-3.2 2.35q-1.55 1.45-4.1 5.5l-2.75 4.35-.75 1.15-.55-.1.7-1.1-.4-.5.55.25 2.8-4.35q2.65-4.2 4.1-5.45 1.1-1 3.05-2.1l.25-.15.3.15m-11.6 13.65.45.25-.2.4q-2.75 5-1.45 6.4-1.8-1.4 1-6.65l.2-.4" fill="#c4dcdf" fill-rule="evenodd" transform="translate(-276.5 -132.5)"/><path d="m291.15 149.95-.15-.1q2.5.05 5.45-4.45l2.45-4q5.45-8.7 9.4-8.9-3.45 1.05-8.15 8.85l-1.35 2.05v.1l-.2.3 1.05 1q-1.2-.9-1.35-.55l-1.7 2.6q-.35.25.4.75l-.9-.05-.2.1q-2.1 2.55-4.75 2.3" fill="#fbfdfd" fill-rule="evenodd" transform="translate(-276.5 -132.5)"/><path d="m313.9 134.1.15.1.5.35-.3-.15-.5-.05.15-.25m-16.3 18.7-.15.1.05-.2.15.05-.05.05" fill="#9da5bb" fill-rule="evenodd" transform="translate(-276.5 -132.5)"/><path d="m303.2 147.8-1.25-.25 1 .65-.2.4q-2.8 5.25-1 6.65l.1.15q-2.6-.55-5.5 1.9l-.15-.1q.3-1.45 1.4-4.4l.05-.05 8.75-14.15q3.05-4.6 7.35-4.25l.5.05-.25.15q-1.95 1.1-3.05 2.1-1.45 1.25-4.1 5.45l-2.8 4.35-.55-.25.4.5-.7 1.1" fill="#62a3ac" fill-rule="evenodd" transform="translate(-276.5 -132.5)"/><path d="M297.45 152.9q-.95 2.5-1.3 4.25l-.05.05q-.4 1.8-.3 2.75l-4.35-2.75 1.9-.65.75-.6.6-.55 2.8-2.7-.05.2m-13.8 27.1v.15l-1.7-1.1.1-.05-.1.05-3-1.85v-.05l3.1 1.85 1.6 1" fill="#3f2c39" fill-rule="evenodd" transform="translate(-276.5 -132.5)"/><path d="m295.8 159.95.8.45q1.05.85 1.9 2.2l.4.7-.6 1.05-2.6-1.6-6.45-4-.9-.6.65-1q.2-.2.35-.25.8-.3 2.1.3l4.35 2.75m-12.15 20.2 5.6 3.55-.55 1q-1.1.15-5.8-2.2l-5.3-3.25q-1.35-1-1.05-2.2l.65-.9 1.75 1.05 3 1.85 1.7 1.1" fill="#a1664c" fill-rule="evenodd" transform="translate(-276.5 -132.5)"/><path d="m295.7 162.75-.45.75-.9-.6-.9-.55-1.65-1-1.2-.85-.95-.55-.9-.55.5-.65 6.45 4m-11.55 16.55.9.5-.5.75-.9-.55-1.6-1 .5-.7-.5.7-3.1-1.85-.8-.6.45-.75.85.6.85.5 1.3.85.95.55.65.45.95.55" fill="#452b21" fill-rule="evenodd" transform="translate(-276.5 -132.5)"/><path d="m294.35 162.9-2.9 3.75q-3.2 4.3-5.7 9.25l-1.6 3.4-.95-.55 1.7-3.35q3.8-6.95 8.55-13.05-4.75 6.1-8.55 13.05l-1.7 3.35-.65-.45 1.75-3.25q2.9-4.9 6.3-9.75l-.7-.85-.75-1.2 1.45-2.75-1.45 2.75-.7-.65 1.2-2.65.95.55 1.2.85 1.65 1 .9.55m-2.55-1.55-1.9 3.1 1.9-3.1" fill="#656401" fill-rule="evenodd" transform="translate(-276.5 -132.5)"/><path d="m289.9 164.45.7.85q-3.4 4.85-6.3 9.75l-1.75 3.25-.95-.55 8.3-13.3" fill="#9b9b02" fill-rule="evenodd" transform="translate(-276.5 -132.5)"/><path d="m289.15 163.25.75 1.2-8.3 13.3-1.3-.85 2.05-2.95q3.6-5.15 6.8-10.7" fill="#abab03" fill-rule="evenodd" transform="translate(-276.5 -132.5)"/><path d="m279.45 176.4 2.25-2.85q3.9-5.1 6.75-10.95l.7.65q-3.2 5.55-6.8 10.7l-2.05 2.95-.85-.5" fill="#d5d304" fill-rule="evenodd" transform="translate(-276.5 -132.5)"/><path d="m31.8 0 .6.05q1.5-.25 5 1.55l.15.1.5.35-3.2 2.35q-1.55 1.45-4.1 5.5L28 14.25l-.75 1.15-.55-.1-1.25-.25 1 .65m.45.25-.2.4q-2.75 5-1.45 6.4l.1.15q-2.6-.55-5.5 1.9l-.15-.1q.3-1.45 1.4-4.4m-.15.1q-.95 2.5-1.3 4.25l-.05.05q-.4 1.8-.3 2.75l.8.45q1.05.85 1.9 2.2l.4.7-.6 1.05-2.6-1.6-.45.75-.9-.6-2.9 3.75q-3.2 4.3-5.7 9.25l-1.6 3.4.9.5-.5.75-.9-.55v.15l5.6 3.55-.55 1q-1.1.15-5.8-2.2l-5.3-3.25q-1.35-1-1.05-2.2l.65-.9 1.75 1.05v-.05l-.8-.6.45-.75.85.6 2.25-2.85q3.9-5.1 6.75-10.95l1.2-2.65-.9-.55.5-.65-.9-.6.65-1q.2-.2.35-.25.8-.3 2.1.3l1.9-.65.75-.6-.2-.15q.5-2.45-1.05-3.95l-1.7-1.9-.15-.1q2.5.05 5.45-4.45l2.45-4Q27.85.2 31.8 0M21.15 20.25l-.05.05m-.15.1.05-.2-2.8 2.7-.6.55m-2.65 1.25 4.35 2.75M37.75 1.9l.3.15M17.85 30.4l-.9-.55-1.65-1-1.2-.85-.95-.55M6.7 46.25l.95.55M5.1 45.25l.95.55.65.45m-1.25.3 1.7 1.1m-1.6-1.15-.1.05-3-1.85m3.1 1.8 1.6 1m-1.1-1.7-.5.7-3.1-1.85m.5-.75.85.5 1.3.85m14.1-15-6.45-4" fill="none" stroke="#000" stroke-linecap="round" stroke-linejoin="round" stroke-opacity=".514" stroke-width=".05"/><path d="m37.25 1.85.5.05" fill="none" stroke="#d6d9e2" stroke-linecap="round" stroke-linejoin="round" stroke-width=".05"/><path d="M21.15 20.25 29.9 6.1q3.05-4.6 7.35-4.25" fill="none" stroke="#4a878a" stroke-linecap="round" stroke-linejoin="round" stroke-width=".05"/><path d="M16.95 29.85Q12.2 35.95 8.4 42.9l-1.7 3.35m6.7-14.3 1.9-3.1M14.1 28l-1.45 2.75m.75 1.2-8.3 13.3m-1.3-.85 2.05-2.95q3.6-5.15 6.8-10.7" fill="none" stroke="#414001" stroke-linecap="round" stroke-linejoin="round" stroke-width=".05"/><path d="M312.25 164q2.4-3.5 4.35-4.3 1.9-.85 2.55-.85 6.6 4.45 12.15 10.95l-.05.35-.2 1q-.55 1.8-1.95 3l-.25.15-.8.45-.4.15-2.35.55q-5.9-6.9-13.05-11.45m-13.2 15.7q.85-5.8 5.65-8.45 8.2 5.85 14.8 13.85l-.3.45q-3.85 4.55-9.65 3.95-4.85-5.15-10.5-9.8m9.4.25-4.1-3.15 4.1 3.15m17.2-12.2q-2.35-3-6.25-5.4 3.9 2.4 6.25 5.4" fill="#abab03" fill-rule="evenodd" transform="translate(-276.5 -132.5)"/><path d="M312.25 164q7.15 4.55 13.05 11.45 2.45 2.85 4.7 6.2-2.4 3.65-4.55 5.45l-2.7 2.2-3.25-4.2q-6.6-8-14.8-13.85l1.95-2.5q1.5-2 5.6-4.75m19.05 5.8q-5.55-6.5-12.15-10.95 3.85-2.4 7.5-2.45 3.05-.1 5.95 1.5 2.4.9 3.35 3.3 1.55 2.95 1.5 6.05l-.25 2.2q-.55 2.55-2.15 5.25l-3.75-4.9M314.35 195l-4.8 1.9-5.55.35-1.55-.85q-4.1-2.1-5.85-6.6-.3-2.75.6-5.4.75-2.45 1.85-4.7 5.65 4.65 10.5 9.8l4.8 5.5m8.7-13.65-1.6-1.6 1.6 1.6m-3.7-2.1q-.4-1.6-2.65-2.6 2.25 1 2.65 2.6m2-2.25-9.35-9.3 9.35 9.3m-15.95 13.35-3.2-3.2 3.2 3.2m32.05-23.1q-4-6-10.8-10.85 6.8 4.85 10.8 10.85m-.25 2.2-6.25-6.05 6.25 6.05" fill="#656401" fill-rule="evenodd" transform="translate(-276.5 -132.5)"/><path d="m325.3 175.45 2.35-.55.4-.15.8-.45.25-.15q1.4-1.2 1.95-3l.2-1 .05-.35 3.75 4.9-1.1 2.7q-1 2-3.95 4.25-2.25-3.35-4.7-6.2m-2.55 13.85q-2.75 4.4-8.4 5.7l-4.8-5.5q5.8.6 9.65-3.95l.3-.45 3.25 4.2" fill="#999804" fill-rule="evenodd" transform="translate(-276.5 -132.5)"/><path d="M56.1 25.4q2.4.9 3.35 3.3M27.5 64.75l-1.55-.85q-4.1-2.1-5.85-6.6M43 52.6l3.25 4.2m-1.3-9.55 1.6 1.6M43 52.6q-6.6-8-14.8-13.85m12 5.4q2.25 1 2.65 2.6m-20.3.45q5.65 4.65 10.5 9.8l4.8 5.5M25.7 54.65l3.2 3.2m6.6-22.65 9.35 9.3m9.6-13.6 6.25 6.05M50.15 23.9q6.8 4.85 10.8 10.85" fill="none" stroke="#030" stroke-linecap="round" stroke-linejoin="round" stroke-width=".05"/><path d="m27.85 44.3 4.1 3.15m10.95-17.6q3.9 2.4 6.25 5.4" fill="none" stroke="#999804" stroke-linecap="round" stroke-linejoin="round" stroke-width=".05"/></g></defs></svg>