<svg viewBox="0 0 154.25 139" xmlns="http://www.w3.org/2000/svg" xmlns:xlink="http://www.w3.org/1999/xlink"><use transform="translate(.03 .02)" width="154.2" height="138.95" xlink:href="#a"/><defs><g id="a"><path d="M247.55 206.6q39-22.25 64.65-62.65l20.4-7 18.8-6.45.65 6.35q-34.7 51.1-88.25 87.9l-5.5-6.15 5.5 6.15.6.65q20.7-10.5 42.3-23.2-12.55 10.05-25.2 20.6l-18.55 6.55-.2.05q-11.25-7.1-20.3-23l12.8-26.55 3.5-3.7q3.3-3.15 5.25-6.8l-17.55 36 1.1 1.25h.05l6.7 7.55-6.7-7.55h-.05m10.75 12 26.5-21.5q7.6-6.45 24.25-27.5-23.4 23.65-28.45 27.35l-12.1 8.35-14.2 8.85 4 4.45" fill="#f7f4df" fill-rule="evenodd" transform="translate(-197.85 -130.5)"/><path d="m254.3 214.15 14.2-8.85 12.1-8.35q5.05-3.7 28.45-27.35-16.65 21.05-24.25 27.5l-26.5 21.5-4-4.45m-56.05 37.15 1.2-9.7 18.15.25.1.1 11.3 8.7-4.2 10.6-9.5 3.15-1.8-3.7-.45-.4-3.45-2.95v-.05l-.1-.05-4.2-3.6-.55-.5-.55-.15-5.95-1.7m16.45 10.4-1.2-1 1.2 1" fill="#ece2c6" fill-rule="evenodd" transform="translate(-197.85 -130.5)"/><path d="m281.5 222.8-10.65 8.95-11.9.95-1.65-1.7-14.85-15.4-1.5-1.55-1.9-12.7q9.15-11.85 13.3-17.95l2.9-3.55-12.8 26.55q9.05 15.9 20.3 23l.2-.05 18.55-6.55M229.85 254l-.05.05-1.15 11.8-17.1 3.6-1.95-12.1 3.45 2.95.45.4 1.8 3.7 9.5-3.15 4.2-10.6.85 3.35m-20.35 3.25-11.65-2.75.4-3.2 5.95 1.7.55.15.55.5 4.2 3.6" fill="#ddbda6" fill-rule="evenodd" transform="translate(-197.85 -130.5)"/><path d="M257.3 231q-8.35 2.85-14.1 7.75l-5.4-15.35q2.7-3.6 4.65-7.8L257.3 231" fill="#645a8f" fill-rule="evenodd" transform="translate(-197.85 -130.5)"/><path d="M243.2 238.75q-2.7 2.2-4.8 4.9l-8.85-12.15q4.75-3.6 8.25-8.1l5.4 15.35m-7.6 9.05-3.05 3q-2.3 1.9-2.7 3.2l-.85-3.35-11.3-8.7.1-.1q.7-.3 1.7-2.6 1.05-2.4 1.7-2.7l14.4 11.25" fill="#8f87b4" fill-rule="evenodd" transform="translate(-197.85 -130.5)"/><path d="M238.4 243.65q-1.55 1.95-2.8 4.15l-14.4-11.25q4.55-2.25 8.35-5.05l8.85 12.15" fill="#746aa2" fill-rule="evenodd" transform="translate(-197.85 -130.5)"/><path d="M65.95 94.25q53.55-36.8 88.25-87.9L153.55 0l-18.8 6.45-20.4 7Q88.7 53.85 49.7 76.1h.05l6.7 7.55m4 4.45 5.5 6.15.6.65q20.7-10.5 42.3-23.2-12.55 10.05-25.2 20.6L73 101.25l-11.9.95-1.65-1.7q-8.35 2.85-14.1 7.75-2.7 2.2-4.8 4.9-1.55 1.95-2.8 4.15l-3.05 3q-2.3 1.9-2.7 3.2l-.05.05-1.15 11.8-17.1 3.6-1.95-12.1v-.05l-.1-.05L0 124l.4-3.2 1.2-9.7 18.15.25h.2q.7-.3 1.7-2.6 1.05-2.4 1.7-2.7 4.55-2.25 8.35-5.05 4.75-3.6 8.25-8.1 2.7-3.6 4.65-7.8l-1.5-1.55-1.9-12.7Q50.35 59 54.5 52.9l2.9-3.55 3.5-3.7q3.3-3.15 5.25-6.8l-17.55 36 1.1 1.25m86.55-71.3-1.5 1.65m-103.6 113.7.85 3.35m27.45-23L44.6 85.1m-24.65 26.25-.1.1 11.3 8.7m-11.4-8.8.1.1" fill="none" stroke="#000" stroke-linecap="round" stroke-linejoin="round" stroke-opacity=".302" stroke-width=".05"/><path d="m11.75 126.85-.1-.1-4.2-3.6m7.75 6.65-3.45-2.95m3.9 3.35 1.2 1" fill="none" stroke="#000" stroke-linecap="round" stroke-linejoin="round" stroke-opacity=".302" stroke-width=".05"/></g></defs></svg>