<svg viewBox="0 0 54 123.55" xmlns="http://www.w3.org/2000/svg" xmlns:xlink="http://www.w3.org/1999/xlink"><use transform="translate(.02 .02)" width="53.95" height="123.5" xlink:href="#a"/><defs><radialGradient id="b" cx="0" cy="0" r="819.2" gradientTransform="matrix(.0158 0 0 -.0215 278.6 215.2)" gradientUnits="userSpaceOnUse"><stop stop-color="#a2b7e8" offset="0"/><stop stop-color="#a3e2fa" offset=".596"/><stop stop-color="#dbf7fd" offset=".98"/></radialGradient><radialGradient id="c" cx="0" cy="0" r="819.2" gradientTransform="matrix(.0082 0 0 -.0111 280.9 212.3)" gradientUnits="userSpaceOnUse"><stop stop-color="#a2b7e8" offset="0"/><stop stop-color="#a3e2fa" offset=".596"/><stop stop-color="#dbf7fd" offset=".98"/></radialGradient><radialGradient id="d" cx="0" cy="0" r="819.2" gradientTransform="matrix(-.0158 0 0 -.0215 271.85 215.2)" gradientUnits="userSpaceOnUse"><stop stop-color="#a2b7e8" offset="0"/><stop stop-color="#a3e2fa" offset=".596"/><stop stop-color="#dbf7fd" offset=".98"/></radialGradient><radialGradient id="e" cx="0" cy="0" r="819.2" gradientTransform="matrix(-.0082 0 0 -.0111 269.55 212.3)" gradientUnits="userSpaceOnUse"><stop stop-color="#a2b7e8" offset="0"/><stop stop-color="#a3e2fa" offset=".596"/><stop stop-color="#dbf7fd" offset=".98"/></radialGradient><radialGradient id="f" cx="0" cy="0" r="819.2" gradientTransform="matrix(.0158 0 0 .0215 278.2 204.2)" gradientUnits="userSpaceOnUse"><stop stop-color="#a2b7e8" offset="0"/><stop stop-color="#a3e2fa" offset=".596"/><stop stop-color="#dbf7fd" offset=".98"/></radialGradient><radialGradient id="g" cx="0" cy="0" r="819.2" gradientTransform="matrix(.0082 0 0 .0111 280.5 207.1)" gradientUnits="userSpaceOnUse"><stop stop-color="#a2b7e8" offset="0"/><stop stop-color="#a3e2fa" offset=".596"/><stop stop-color="#dbf7fd" offset=".98"/></radialGradient><radialGradient id="h" cx="0" cy="0" r="819.2" gradientTransform="matrix(.0312 0 0 -.0312 281.65 214.25)" gradientUnits="userSpaceOnUse"><stop stop-color="#a2b7e8" offset="0"/><stop stop-color="#a3e2fa" offset=".596"/><stop stop-color="#dbf7fd" offset=".98"/></radialGradient><radialGradient id="i" cx="0" cy="0" r="819.2" gradientTransform="matrix(.0161 0 0 -.0161 286.15 210.1)" gradientUnits="userSpaceOnUse"><stop stop-color="#a2b7e8" offset="0"/><stop stop-color="#a3e2fa" offset=".596"/><stop stop-color="#dbf7fd" offset=".98"/></radialGradient><radialGradient id="j" cx="0" cy="0" r="819.2" gradientTransform="matrix(-.0158 0 0 .0215 270.35 204.4)" gradientUnits="userSpaceOnUse"><stop stop-color="#a2b7e8" offset="0"/><stop stop-color="#a3e2fa" offset=".596"/><stop stop-color="#dbf7fd" offset=".98"/></radialGradient><radialGradient id="k" cx="0" cy="0" r="819.2" gradientTransform="matrix(-.0082 0 0 .0111 268.05 207.3)" gradientUnits="userSpaceOnUse"><stop stop-color="#a2b7e8" offset="0"/><stop stop-color="#a3e2fa" offset=".596"/><stop stop-color="#dbf7fd" offset=".98"/></radialGradient><radialGradient id="l" cx="0" cy="0" r="819.2" gradientTransform="rotate(180 134.2 107.125) scale(.0312)" gradientUnits="userSpaceOnUse"><stop stop-color="#a2b7e8" offset="0"/><stop stop-color="#a3e2fa" offset=".596"/><stop stop-color="#dbf7fd" offset=".98"/></radialGradient><radialGradient id="m" cx="0" cy="0" r="819.2" gradientTransform="matrix(-.0161 0 0 -.0161 263.9 210.1)" gradientUnits="userSpaceOnUse"><stop stop-color="#a2b7e8" offset="0"/><stop stop-color="#a3e2fa" offset=".596"/><stop stop-color="#dbf7fd" offset=".98"/></radialGradient><radialGradient id="n" cx="0" cy="0" r="819.2" gradientTransform="rotate(180 140 97.325) scale(.0689)" gradientUnits="userSpaceOnUse"><stop stop-color="#568fd3" offset="0"/><stop stop-color="#a3e2fa" offset=".322"/><stop stop-color="#d2fcf9" offset=".6"/><stop stop-color="#d6fef8" offset="1"/></radialGradient><radialGradient id="o" cx="0" cy="0" r="819.2" gradientTransform="matrix(-.018 0 0 -.018 270.7 205.35)" gradientUnits="userSpaceOnUse"><stop stop-color="#568fd3" offset="0"/><stop stop-color="#a3e2fa" offset=".322"/><stop stop-color="#d2fcf9" offset=".6"/><stop stop-color="#d6fef8" offset="1"/></radialGradient><radialGradient id="p" cx="0" cy="0" r="819.2" gradientTransform="rotate(180 135.25 97.425) scale(.0134)" gradientUnits="userSpaceOnUse"><stop stop-color="#568fd3" offset="0"/><stop stop-color="#a3e2fa" offset=".322"/><stop stop-color="#d2fcf9" offset=".6"/><stop stop-color="#d6fef8" offset="1"/></radialGradient><radialGradient id="q" cx="0" cy="0" r="819.2" gradientTransform="rotate(180 133.875 91.2) scale(.0093)" gradientUnits="userSpaceOnUse"><stop stop-color="#568fd3" offset="0"/><stop stop-color="#a3e2fa" offset=".322"/><stop stop-color="#d2fcf9" offset=".6"/><stop stop-color="#d6fef8" offset="1"/></radialGradient><radialGradient id="r" cx="0" cy="0" r="819.2" gradientTransform="rotate(180 133.875 91.1) scale(.0331)" gradientUnits="userSpaceOnUse"><stop stop-color="#568fd3" offset="0"/><stop stop-color="#a3e2fa" offset=".322"/><stop stop-color="#d2fcf9" offset=".6"/><stop stop-color="#d6fef8" offset="1"/></radialGradient><radialGradient id="s" cx="0" cy="0" r="819.2" gradientTransform="rotate(180 147.7 79.35) scale(.0312)" gradientUnits="userSpaceOnUse"><stop stop-color="#568fd3" offset="0"/><stop stop-color="#a3e2fa" offset=".322"/><stop stop-color="#d2fcf9" offset=".6"/><stop stop-color="#d6fef8" offset="1"/></radialGradient><radialGradient id="t" cx="0" cy="0" r="819.2" gradientTransform="rotate(180 147.7 79.35) scale(.0588)" gradientUnits="userSpaceOnUse"><stop stop-color="#a3e2fa" offset=".322"/><stop stop-color="#d2fcf9" offset=".6"/><stop stop-color="#d6fef8" offset="1"/></radialGradient><radialGradient id="u" cx="0" cy="0" r="819.2" gradientTransform="matrix(.0123 0 0 -.0052 274.25 237.55)" gradientUnits="userSpaceOnUse"><stop stop-color="#a2b7e8" offset="0"/><stop stop-color="#a3e2fa" offset=".596"/><stop stop-color="#dbf7fd" offset=".98"/></radialGradient><radialGradient id="v" cx="0" cy="0" r="819.2" gradientTransform="matrix(.0132 0 0 -.0056 271.85 231.1)" gradientUnits="userSpaceOnUse"><stop stop-color="#a2b7e8" offset="0"/><stop stop-color="#a3e2fa" offset=".596"/><stop stop-color="#dbf7fd" offset=".98"/></radialGradient><radialGradient id="w" cx="0" cy="0" r="819.2" gradientTransform="matrix(.0072 0 0 -.003 270.05 227.5)" gradientUnits="userSpaceOnUse"><stop stop-color="#a2b7e8" offset="0"/><stop stop-color="#a3e2fa" offset=".596"/><stop stop-color="#dbf7fd" offset=".98"/></radialGradient><radialGradient id="x" cx="0" cy="0" r="819.2" gradientTransform="matrix(.0292 0 0 -.0123 268 219.95)" gradientUnits="userSpaceOnUse"><stop stop-color="#a2b7e8" offset="0"/><stop stop-color="#a3e2fa" offset=".596"/><stop stop-color="#dbf7fd" offset=".98"/></radialGradient><radialGradient id="y" cx="0" cy="0" r="819.2" gradientTransform="matrix(.021 0 0 -.0089 273.6 221.15)" gradientUnits="userSpaceOnUse"><stop stop-color="#a2b7e8" offset="0"/><stop stop-color="#a3e2fa" offset=".596"/><stop stop-color="#dbf7fd" offset=".98"/></radialGradient><radialGradient id="z" cx="0" cy="0" r="819.2" gradientTransform="matrix(.0081 0 0 -.0034 274.6 217.65)" gradientUnits="userSpaceOnUse"><stop stop-color="#a2b7e8" offset="0"/><stop stop-color="#a3e2fa" offset=".596"/><stop stop-color="#dbf7fd" offset=".98"/></radialGradient><radialGradient id="A" cx="0" cy="0" r="819.2" gradientTransform="matrix(.0055 0 0 -.0023 268.6 216.95)" gradientUnits="userSpaceOnUse"><stop stop-color="#a2b7e8" offset="0"/><stop stop-color="#a3e2fa" offset=".596"/><stop stop-color="#dbf7fd" offset=".98"/></radialGradient><radialGradient id="B" cx="0" cy="0" r="819.2" gradientTransform="matrix(.0054 0 0 -.0023 273.15 227.95)" gradientUnits="userSpaceOnUse"><stop stop-color="#fff" offset="0"/><stop stop-color="#fff" stop-opacity="0" offset="1"/></radialGradient><radialGradient id="C" cx="0" cy="0" r="819.2" gradientTransform="matrix(-.0123 0 0 -.0052 276.3 237.55)" gradientUnits="userSpaceOnUse"><stop stop-color="#a2b7e8" offset="0"/><stop stop-color="#a3e2fa" offset=".596"/><stop stop-color="#dbf7fd" offset=".98"/></radialGradient><radialGradient id="D" cx="0" cy="0" r="819.2" gradientTransform="matrix(-.0132 0 0 -.0056 278.7 231.1)" gradientUnits="userSpaceOnUse"><stop stop-color="#a2b7e8" offset="0"/><stop stop-color="#a3e2fa" offset=".596"/><stop stop-color="#dbf7fd" offset=".98"/></radialGradient><radialGradient id="E" cx="0" cy="0" r="819.2" gradientTransform="matrix(-.0072 0 0 -.003 280.5 227.5)" gradientUnits="userSpaceOnUse"><stop stop-color="#a2b7e8" offset="0"/><stop stop-color="#a3e2fa" offset=".596"/><stop stop-color="#dbf7fd" offset=".98"/></radialGradient><radialGradient id="F" cx="0" cy="0" r="819.2" gradientTransform="matrix(-.0292 0 0 -.0123 282.55 219.95)" gradientUnits="userSpaceOnUse"><stop stop-color="#a2b7e8" offset="0"/><stop stop-color="#a3e2fa" offset=".596"/><stop stop-color="#dbf7fd" offset=".98"/></radialGradient><radialGradient id="G" cx="0" cy="0" r="819.2" gradientTransform="matrix(-.021 0 0 -.0089 276.95 221.15)" gradientUnits="userSpaceOnUse"><stop stop-color="#a2b7e8" offset="0"/><stop stop-color="#a3e2fa" offset=".596"/><stop stop-color="#dbf7fd" offset=".98"/></radialGradient><radialGradient id="H" cx="0" cy="0" r="819.2" gradientTransform="matrix(-.0081 0 0 -.0034 275.95 217.65)" gradientUnits="userSpaceOnUse"><stop stop-color="#a2b7e8" offset="0"/><stop stop-color="#a3e2fa" offset=".596"/><stop stop-color="#dbf7fd" offset=".98"/></radialGradient><radialGradient id="I" cx="0" cy="0" r="819.2" gradientTransform="matrix(-.0055 0 0 -.0023 281.95 216.95)" gradientUnits="userSpaceOnUse"><stop stop-color="#a2b7e8" offset="0"/><stop stop-color="#a3e2fa" offset=".596"/><stop stop-color="#dbf7fd" offset=".98"/></radialGradient><radialGradient id="J" cx="0" cy="0" r="819.2" gradientTransform="matrix(-.0054 0 0 -.0023 277.4 227.95)" gradientUnits="userSpaceOnUse"><stop stop-color="#fff" offset="0"/><stop stop-color="#fff" stop-opacity="0" offset="1"/></radialGradient><radialGradient id="K" cx="0" cy="0" r="819.2" gradientTransform="matrix(-.0123 0 0 -.009 274.3 254.4)" gradientUnits="userSpaceOnUse"><stop stop-color="#a2b7e8" offset="0"/><stop stop-color="#a3e2fa" offset=".596"/><stop stop-color="#dbf7fd" offset=".98"/></radialGradient><radialGradient id="L" cx="0" cy="0" r="819.2" gradientTransform="matrix(-.0132 0 0 -.0097 276.7 243.25)" gradientUnits="userSpaceOnUse"><stop stop-color="#a2b7e8" offset="0"/><stop stop-color="#a3e2fa" offset=".596"/><stop stop-color="#dbf7fd" offset=".98"/></radialGradient><radialGradient id="M" cx="0" cy="0" r="819.2" gradientTransform="matrix(-.0072 0 0 -.0052 278.5 237)" gradientUnits="userSpaceOnUse"><stop stop-color="#a2b7e8" offset="0"/><stop stop-color="#a3e2fa" offset=".596"/><stop stop-color="#dbf7fd" offset=".98"/></radialGradient><radialGradient id="N" cx="0" cy="0" r="819.2" gradientTransform="matrix(-.0292 0 0 -.0213 280.55 223.85)" gradientUnits="userSpaceOnUse"><stop stop-color="#a2b7e8" offset="0"/><stop stop-color="#a3e2fa" offset=".596"/><stop stop-color="#dbf7fd" offset=".98"/></radialGradient><radialGradient id="O" cx="0" cy="0" r="819.2" gradientTransform="matrix(-.021 0 0 -.0154 274.95 226)" gradientUnits="userSpaceOnUse"><stop stop-color="#a2b7e8" offset="0"/><stop stop-color="#a3e2fa" offset=".596"/><stop stop-color="#dbf7fd" offset=".98"/></radialGradient><radialGradient id="P" cx="0" cy="0" r="819.2" gradientTransform="matrix(-.0081 0 0 -.0059 273.95 219.9)" gradientUnits="userSpaceOnUse"><stop stop-color="#a2b7e8" offset="0"/><stop stop-color="#a3e2fa" offset=".596"/><stop stop-color="#dbf7fd" offset=".98"/></radialGradient><radialGradient id="Q" cx="0" cy="0" r="819.2" gradientTransform="matrix(-.0055 0 0 -.004 279.95 218.7)" gradientUnits="userSpaceOnUse"><stop stop-color="#a2b7e8" offset="0"/><stop stop-color="#a3e2fa" offset=".596"/><stop stop-color="#dbf7fd" offset=".98"/></radialGradient><radialGradient id="R" cx="0" cy="0" r="819.2" gradientTransform="matrix(-.0054 0 0 -.0039 275.4 237.8)" gradientUnits="userSpaceOnUse"><stop stop-color="#fff" offset="0"/><stop stop-color="#fff" stop-opacity="0" offset="1"/></radialGradient><radialGradient id="S" cx="0" cy="0" r="819.2" gradientTransform="translate(273.4 207.2) scale(.0058)" gradientUnits="userSpaceOnUse"><stop stop-color="#9cb7d6" offset="0"/><stop stop-color="#a3e2fa" offset=".455"/></radialGradient><radialGradient id="T" cx="0" cy="0" r="819.2" gradientTransform="translate(274.8 205.55) scale(.0052)" gradientUnits="userSpaceOnUse"><stop stop-color="#9cb7d6" offset="0"/><stop stop-color="#a3e2fa" offset=".455"/></radialGradient><radialGradient id="U" cx="0" cy="0" r="819.2" gradientTransform="translate(271.85 208.3) scale(.0064)" gradientUnits="userSpaceOnUse"><stop stop-color="#9cb7d6" offset="0"/><stop stop-color="#a3e2fa" offset=".455"/></radialGradient><radialGradient id="V" cx="0" cy="0" r="819.2" gradientTransform="translate(274 218.15) scale(.0028)" gradientUnits="userSpaceOnUse"><stop stop-color="#9cb7d6" offset="0"/><stop stop-color="#a3e2fa" offset=".455"/></radialGradient><radialGradient id="W" cx="0" cy="0" r="819.2" gradientTransform="matrix(-.0058 0 0 .0058 276.6 207.2)" gradientUnits="userSpaceOnUse"><stop stop-color="#9cb7d6" offset="0"/><stop stop-color="#a3e2fa" offset=".455"/></radialGradient><radialGradient id="X" cx="0" cy="0" r="819.2" gradientTransform="matrix(-.0052 0 0 .0052 275.2 205.55)" gradientUnits="userSpaceOnUse"><stop stop-color="#9cb7d6" offset="0"/><stop stop-color="#a3e2fa" offset=".455"/></radialGradient><radialGradient id="Y" cx="0" cy="0" r="819.2" gradientTransform="matrix(-.0064 0 0 .0064 278.15 208.3)" gradientUnits="userSpaceOnUse"><stop stop-color="#9cb7d6" offset="0"/><stop stop-color="#a3e2fa" offset=".455"/></radialGradient><radialGradient id="Z" cx="0" cy="0" r="819.2" gradientTransform="matrix(-.0028 0 0 .0028 276 218.15)" gradientUnits="userSpaceOnUse"><stop stop-color="#9cb7d6" offset="0"/><stop stop-color="#a3e2fa" offset=".455"/></radialGradient><g id="a"><path d="m279.7 213.4-.1-.1-.4.25-.85.5-.6.3 11.2 11.5-5.2-9-1.25-1.1-.15-.1-.8-.65-.5-.45-1.35-1.15" fill="url(#b)" fill-rule="evenodd" transform="translate(-248.05 -138.2)"/><path d="m279.2 213.55.4-.25.1.1 1.35 1.15.5.45.8.65.15.1 1.25 1.1-.9-1.65-1.1-1.9-2.2-1.4 1.3.15 1 .1.8.1-.75-.9-4.55-.9-1.7-1.15 2.1 5.05.6-.3.85-.5m-1.85-3.1 2.2 1.45-2.2-1.45" fill="#5f83be" fill-rule="evenodd" transform="translate(-248.05 -138.2)"/><path d="m281.85 212.15-1-.1-1.3-.15 2.2 1.4 1.1 1.9 3.75 1.9-3.95-4.85-.8-.1" fill="url(#c)" fill-rule="evenodd" transform="translate(-248.05 -138.2)"/><path d="m31.15 75.35.4-.25.1.1M33 76.35l.5.45m.8.65.15.1m-4.75-1.4.6-.3m3.5-1.9.8.1m-3.1-.35 1.3.15" fill="none" stroke="#d8fbfc" stroke-linecap="round" stroke-linejoin="round" stroke-width=".05"/><path d="m35.7 78.65 5.2 9-11.2-11.5m4.9-2.1 3.95 4.85L34.8 77l-1.1-1.9-2.2-1.4-2.2-1.45-1.7-1.15 2.1 5.05m6 2.5L34.8 77m-.2-2.95-.75-.9-4.55-.9" fill="none" stroke="#000" stroke-linecap="round" stroke-linejoin="round" stroke-opacity=".263" stroke-width=".05"/><path d="m270.75 213.4.1-.1.4.25.85.5.6.3-11.2 11.5 5.2-9 1.25-1.1.15-.1.8-.65.5-.45 1.35-1.15" fill="url(#d)" fill-rule="evenodd" transform="translate(-248.05 -138.2)"/><path d="m271.25 213.55-.4-.25-.1.1-1.35 1.15-.5.45-.8.65-.15.1-1.25 1.1.9-1.65 1.1-1.9 2.2-1.4-1.3.15-1 .1-.8.1.75-.9 4.55-.9 1.7-1.15-2.1 5.05-.6-.3-.85-.5m1.85-3.1-2.2 1.45 2.2-1.45" fill="#5f83be" fill-rule="evenodd" transform="translate(-248.05 -138.2)"/><path d="m268.6 212.15 1-.1 1.3-.15-2.2 1.4-1.1 1.9-3.75 1.9 3.95-4.85.8-.1" fill="url(#e)" fill-rule="evenodd" transform="translate(-248.05 -138.2)"/><path d="m23.2 75.35-.4-.25-.1.1m-1.35 1.15-.5.45m-.8.65-.15.1m4.75-1.4-.6-.3m-3.5-1.9-.8.1m3.1-.35-1.3.15" fill="none" stroke="#d8fbfc" stroke-linecap="round" stroke-linejoin="round" stroke-width=".05"/><path d="m18.65 78.65-5.2 9 11.2-11.5m-4.9-2.1L15.8 78.9l3.75-1.9 1.1-1.9 2.2-1.4 2.2-1.45-4.55.9-.75.9m-1.1 4.6.9-1.65m5.5-4.75 1.7-1.15-2.1 5.05" fill="none" stroke="#000" stroke-linecap="round" stroke-linejoin="round" stroke-opacity=".263" stroke-width=".05"/><path d="m279.3 206-.1.1-.4-.25-.85-.5-.6-.3 11.2-11.5-5.2 9-1.25 1.1-.15.1-.8.65-.5.45-1.35 1.15" fill="url(#f)" fill-rule="evenodd" transform="translate(-248.05 -138.2)"/><path d="m278.8 205.85.4.25.1-.1 1.35-1.15.5-.45.8-.65.15-.1 1.25-1.1-.9 1.65-1.1 1.9-2.2 1.4 1.3-.15 1-.1.8-.1-.75.9-4.55.9-1.7 1.15 2.1-5.05.6.3.85.5m-1.85 3.1 2.2-1.45-2.2 1.45" fill="#5f83be" fill-rule="evenodd" transform="translate(-248.05 -138.2)"/><path d="m281.45 207.25-1 .1-1.3.15 2.2-1.4 1.1-1.9 3.75-1.9-3.95 4.85-.8.1" fill="url(#g)" fill-rule="evenodd" transform="translate(-248.05 -138.2)"/><path d="m30.75 67.65.4.25.1-.1m1.35-1.15.5-.45m.8-.65.15-.1m-4.75 1.4.6.3m3.5 1.9.8-.1m-3.1.35 1.3-.15" fill="none" stroke="#d8fbfc" stroke-linecap="round" stroke-linejoin="round" stroke-width=".05"/><path d="m35.3 64.35 5.2-9-11.2 11.5m4.9 2.1 3.95-4.85L34.4 66l-1.1 1.9-2.2 1.4-2.2 1.45 4.55-.9.75-.9m1.1-4.6L34.4 66m-5.5 4.75-1.7 1.15 2.1-5.05" fill="none" stroke="#000" stroke-linecap="round" stroke-linejoin="round" stroke-opacity=".263" stroke-width=".05"/><path d="m283.85 211.65-.25-.15-.8.3-1.7.75-1.1.45 22 16.65-10.15-13.05-2.5-1.55-.3-.2-1.55-.95-1-.6-2.65-1.65" fill="url(#h)" fill-rule="evenodd" transform="translate(-248.05 -138.2)"/><path d="m282.8 211.8.8-.3.25.15 2.65 1.65 1 .6 1.55.95.3.2 2.5 1.55-1.85-2.4-2.15-2.7-4.3-2.05 2.55.2 1.95.2 1.65.15-1.5-1.35-9-1.3-3.4-1.6L280 213l1.1-.45 1.7-.75m-3.6-4.45 4.35 2.1-4.35-2.1" fill="#5f83be" fill-rule="evenodd" transform="translate(-248.05 -138.2)"/><path d="m288.05 209.85-1.95-.2-2.55-.2 4.3 2.05 2.15 2.7 7.4 2.8-7.7-7-1.65-.15" fill="url(#i)" fill-rule="evenodd" transform="translate(-248.05 -138.2)"/><path d="m34.75 73.6.8-.3.25.15m2.65 1.65 1 .6m1.55.95.3.2m-9.35-2.05 1.1-.45m6.95-2.7 1.65.15m-6.15-.55 2.55.2" fill="none" stroke="#d8fbfc" stroke-linecap="round" stroke-linejoin="round" stroke-width=".05"/><path d="m43.8 78.4 10.15 13.05-22-16.65m9.7-3 7.7 7-7.4-2.8-2.15-2.7-4.3-2.05-4.35-2.1-3.4-1.6 4.2 7.25m11.85 3.6L41.95 76m-.3-4.2-1.5-1.35-9-1.3" fill="none" stroke="#000" stroke-linecap="round" stroke-linejoin="round" stroke-opacity=".263" stroke-width=".05"/><path d="m269.25 206.2.1.1.4-.25.85-.5.6-.3-11.2-11.5 5.2 9 1.25 1.1.15.1.8.65.5.45 1.35 1.15" fill="url(#j)" fill-rule="evenodd" transform="translate(-248.05 -138.2)"/><path d="m269.75 206.05-.4.25-.1-.1-1.35-1.15-.5-.45-.8-.65-.15-.1-1.25-1.1.9 1.65 1.1 1.9 2.2 1.4-1.3-.15-1-.1-.8-.1.75.9 4.55.9 1.7 1.15-2.1-5.05-.6.3-.85.5m1.85 3.1-2.2-1.45 2.2 1.45" fill="#5f83be" fill-rule="evenodd" transform="translate(-248.05 -138.2)"/><path d="m267.1 207.45 1 .1 1.3.15-2.2-1.4-1.1-1.9-3.75-1.9 3.95 4.85.8.1" fill="url(#k)" fill-rule="evenodd" transform="translate(-248.05 -138.2)"/><path d="m21.7 67.85-.4.25-.1-.1m-1.35-1.15-.5-.45m-.8-.65-.15-.1m4.75 1.4-.6.3m-3.5 1.9-.8-.1m3.1.35-1.3-.15" fill="none" stroke="#d8fbfc" stroke-linecap="round" stroke-linejoin="round" stroke-width=".05"/><path d="m17.15 64.55-5.2-9 11.2 11.5m-4.9 2.1L14.3 64.3l3.75 1.9 1.1 1.9 2.2 1.4 2.2 1.45 1.7 1.15-2.1-5.05m-6-2.5.9 1.65m.2 2.95.75.9 4.55.9" fill="none" stroke="#000" stroke-linecap="round" stroke-linejoin="round" stroke-opacity=".263" stroke-width=".05"/><path d="m266.2 211.65.25-.15.8.3 1.7.75 1.1.45-22 16.65 10.15-13.05 2.5-1.55.3-.2 1.55-.95 1-.6 2.65-1.65" fill="url(#l)" fill-rule="evenodd" transform="translate(-248.05 -138.2)"/><path d="m267.25 211.8-.8-.3-.25.15-2.65 1.65-1 .6-1.55.95-.3.2-2.5 1.55 1.85-2.4 2.15-2.7 4.3-2.05-2.55.2-1.95.2-1.65.15 1.5-1.35 9-1.3 3.4-1.6-4.2 7.25-1.1-.45-1.7-.75m3.6-4.45-4.35 2.1 4.35-2.1" fill="#5f83be" fill-rule="evenodd" transform="translate(-248.05 -138.2)"/><path d="m262 209.85 1.95-.2 2.55-.2-4.3 2.05-2.15 2.7-7.4 2.8 7.7-7 1.65-.15" fill="url(#m)" fill-rule="evenodd" transform="translate(-248.05 -138.2)"/><path d="m19.2 73.6-.8-.3-.25.15M15.5 75.1l-1 .6m-1.55.95-.3.2M22 74.8l-1.1-.45m-6.95-2.7-1.65.15m6.15-.55-2.55.2" fill="none" stroke="#d8fbfc" stroke-linecap="round" stroke-linejoin="round" stroke-width=".05"/><path d="M10.15 78.4 0 91.45 22 74.8m-9.7-3-7.7 7L12 76l2.15-2.7 4.3-2.05 4.35-2.1-9 1.3-1.5 1.35m-2.15 6.6L12 76m10.8-6.85 3.4-1.6L22 74.8" fill="none" stroke="#000" stroke-linecap="round" stroke-linejoin="round" stroke-opacity=".263" stroke-width=".05"/><path d="m281 204.7.25 1.9-8.3.15q-6.85-7.35-7.85-15.05 5.45 6.15 8.7 2.8 3.2-3.35.95-9.6-4.2-3.25-6.7-2.95v-2.35q-.5-14.45 7.15-23.35l1.05-1.1-.45 3.15q-.3 2.65-.05 4.4.15 1.1.45 1.85 2.05 7.2 7.05-.8l1.15-1.95.05-.2.05-.15.1-.2q2.9-7.65-4.2-23.05 13.35 10.4 15 20.5-19.35 19.55-14.4 46" fill="url(#n)" fill-rule="evenodd" transform="translate(-248.05 -138.2)"/><path d="M265.1 191.7q1 7.7 7.85 15.05l-1.6.05q-6.6-7.75-6.25-15.1" fill="url(#o)" fill-rule="evenodd" transform="translate(-248.05 -138.2)"/><path d="M274.75 184.9q2.25 6.25-.95 9.6-3.25 3.35-8.7-2.8 5.8 6.3 9.35 0 1.35-2.95.3-6.8" fill="url(#p)" fill-rule="evenodd" transform="translate(-248.05 -138.2)"/><path d="M268.05 181.95q2.5-.3 6.7 2.95-6.05-3.05-8.2-1.3l1.5-1.65" fill="url(#q)" fill-rule="evenodd" transform="translate(-248.05 -138.2)"/><path d="M275.2 156.25q-7.65 8.9-7.15 23.35v2.35l-1.5 1.65q-1.5-16.25 8.65-27.35" fill="url(#r)" fill-rule="evenodd" transform="translate(-248.05 -138.2)"/><path d="M295.4 158.7q-1.65-10.1-15-20.5 10.7 5.1 17.4 20.5h-2.4" fill="url(#s)" fill-rule="evenodd" transform="translate(-248.05 -138.2)"/><path d="M281 204.7q-4.95-26.45 14.4-46h2.4q-19.5 15.9-16.8 46" fill="url(#t)" fill-rule="evenodd" transform="translate(-248.05 -138.2)"/><path d="m24.9 68.55 8.3-.15-.25-1.9q-4.95-26.45 14.4-46-1.65-10.1-15-20.5 7.1 15.4 4.2 23.05l-.1.2-.05.15-.05.2-1.15 1.95q-5 8-7.05.8-.3-.75-.45-1.85-.25-1.75.05-4.4l.45-3.15-1.05 1.1Q19.5 26.95 20 41.4v2.35q2.5-.3 6.7 2.95 2.25 6.25-.95 9.6-3.25 3.35-8.7-2.8 1 7.7 7.85 15.05l-1.6.05q-6.6-7.75-6.25-15.1 5.8 6.3 9.35 0 1.35-2.95.3-6.8-6.05-3.05-8.2-1.3-1.5-16.25 8.65-27.35M18.5 45.4l1.5-1.65m8.15-17.4q1 2.6 3.95 1.95 1.85-1.1 3.1-2.75m-7.5-1.05.05-4.4m22 .4Q43.05 5.1 32.35 0m17.4 20.5h-2.4m-14.4 46q-2.7-30.1 16.8-46" fill="none" stroke="#000" stroke-linecap="round" stroke-linejoin="round" stroke-opacity=".263" stroke-width=".05"/><path d="m274.75 232.5-1.6 3.55-.6-.35-2.35-1.5 2.55 2.6 2 .65v-4.95m-2.7-2.75.55-4.3.3-2.5-2-1.4-1.6-4.65-.55 1 .4 3.65 2.2 1.7v7.8l.35 1.1.3-2.05.05-.35" fill="#82a4cc" fill-rule="evenodd" transform="translate(-248.05 -138.2)"/><path d="m272.55 235.7.6.35 1.6-3.55 1.1-2.5-1.15-1.6-2.1-2.95-.55 4.3 1.65.95v.15l-1.15 4.85m-1.05-3.75.2.2-.35-1.1-.4-1.1-1.85-1.45v3.35l1-1.05 1.4 1.15m-4.25-4.95 2.55-.1-1.1-3.1-1.45 3.2m4.25-6.45-.6 1 2.9-.7 2.85 1.1-1-1.55-.6-.85-1.6-2.45-1.95 3.45 1.95-3.45-.4-.55-1.25-1.8-.65-.95-.65 1.15-3.55 1.5 2.95-.55-.15.3-.45.7 2.2-.15v3.8m5.3-2.95-3.9-2.45-1.1-.4 1.25 1.8 3.75 1.05m-6.3-2.65-.6.95.6-.95" fill="#5f83be" fill-rule="evenodd" transform="translate(-248.05 -138.2)"/><path d="m274.25 237.55-1.65-.45-2-1.8 2 1.8 1.65.45m.5-.1-2-.65-2.55-2.6.4 1.1 2.45 6.45 1.7-4.3" fill="url(#u)" fill-rule="evenodd" transform="translate(-248.05 -138.2)"/><path d="m270.2 234.2 2.35 1.5 1.15-4.85-.3-.15-1.4-.6-.3 2.05-.2-.2-1.4-.85-1 .9v1.45l1.1.7v.05m2.15 1 1.05-4.5-1.05 4.5" fill="url(#v)" fill-rule="evenodd" transform="translate(-248.05 -138.2)"/><path d="M273.7 230.85v-.15l-1.65-.95-.05.35 1.4.6.3.15m-2.2 1.1-1.4-1.15-1 1.05v.15l1-.9 1.4.85m-.55-2 .4 1.1v-7.8l-2.2-1.7-.4-3.65-.55.95.5 2.75 2.3 1.7-.05 6.65m-.75 4.2v.05-.05m-2.75-7 2.4-.15-.05-.1-2.55.1.2.15m3.45-5.6.6-1v-3.8l-2.2.15 1.6 4.65m.05-1.25v-3.25h-1.05 1.05v3.25" fill="#b6e9fb" fill-rule="evenodd" transform="translate(-248.05 -138.2)"/><path d="m269.1 228.5 1.85 1.45-1.1-2.95-2.4.15 1.65 1.35" fill="url(#w)" fill-rule="evenodd" transform="translate(-248.05 -138.2)"/><path d="m269.8 226.9.05.1 1.1 2.95.05-6.65-2.3-1.7-.5-2.75-.75 1.35 1.25 3.6 1.1 3.1" fill="url(#x)" fill-rule="evenodd" transform="translate(-248.05 -138.2)"/><path d="m272.6 225.45 2.1 2.95 1.95-6.45-2.85-1.1-2.9.7 2 1.4-.3 2.5m3.3-3.4-2.3-.9-2.05.45 2.05-.45 2.3.9m-2.85 3.35 1.55 2.3-1.55-2.3" fill="url(#y)" fill-rule="evenodd" transform="translate(-248.05 -138.2)"/><path d="m273.45 217.1 1.6 2.45.6.85 1.15-2.8-3.75-1.05.4.55m2.4.6-2-.7 1.2 2.55-1.2-2.55 2 .7" fill="url(#z)" fill-rule="evenodd" transform="translate(-248.05 -138.2)"/><path d="m268.2 218.85.55-.95.55-1 .45-.7-2.35.35 2.35-.35.15-.3-2.95.55 1.25 2.4" fill="url(#A)" fill-rule="evenodd" transform="translate(-248.05 -138.2)"/><path d="m24.5 97.5.6.35 1.6-3.55v4.95M22.15 96l2.35 1.5m-.5-5.95.55-4.3 2.1 2.95 1.15 1.6-1.1 2.5M22.15 96l.4 1.1 2.45 6.45 1.7-4.3m-5.65-5.6V90.3l1.85 1.45.4 1.1.35 1.1.3-2.05.05-.35M22.15 96v-.05.05m-1.1-2.2v1.45l1.1.7m-1.1-2.3v.15m-1.65-4.85-.2-.15m2.55-.1.05.1 1.1 2.95m-2.75-11.1.55-.95m-.05 5.9 1.1 3.1m-1.1-3.1-1.45 3.2m3.65-5.45.6-1 1.95-3.45 1.6 2.45.6.85 1 1.55m-5.75-.4 2 1.4-.3 2.5m-4.4-6.6L19.4 82l1.25 3.6m6 4.6 1.95-6.45m-9.2 5.2 1.65 1.35M21.7 78l-.45.7-.55 1m1.15-2-.15.3m3.3.35.4.55m-4.15-.2 1.6 4.65m-3.95-5.1 1.25 2.4m8.6-1.25-3.9-2.45-1.1-.4-.65-.95-.65 1.15-3.55 1.5m2.95-.55.6-.95m1.3-.2 1.25 1.8m3.75 1.05-1.15 2.8" fill="none" stroke="#000" stroke-linecap="round" stroke-linejoin="round" stroke-opacity=".251" stroke-width=".05"/><path d="m22.55 97.1 2 1.8 1.65.45m-2.25-7.45 1.4.6L24.3 97m-3.25-3.2 1-.9 1.4.85m2.2-1.1-.3-.15m-3.55-3.7-2.4.15m3.5 2.8.05-6.65-2.3-1.7-.5-2.75m3.35 2.75 2.05-.45 2.3.9m-1.3 5.65L25 87.2m-5.65-8.85L21.7 78m.15.85h1.05v3.25m4.1-.75-1.2-2.55 2 .7" fill="none" stroke="#fff" stroke-linecap="round" stroke-linejoin="round" stroke-width=".05"/><path d="M277.5 227.95q0-.75-1.25-1.3-1.3-.55-3.1-.55t-3.1.55q-1.25.55-1.25 1.3t1.25 1.3q1.3.55 3.1.55t3.1-.55q1.25-.55 1.25-1.3" fill="url(#B)" fill-rule="evenodd" transform="translate(-248.05 -138.2)"/><path d="m275.8 232.5 1.6 3.55.6-.35 2.35-1.5-2.55 2.6-2 .65v-4.95m2.7-2.75-.55-4.3-.3-2.5 2-1.4 1.6-4.65.55 1-.4 3.65-2.2 1.7v7.8l-.35 1.1-.3-2.05-.05-.35" fill="#82a4cc" fill-rule="evenodd" transform="translate(-248.05 -138.2)"/><path d="m278 235.7-.6.35-1.6-3.55-1.1-2.5 1.15-1.6 2.1-2.95.55 4.3-1.65.95v.15l1.15 4.85m1.05-3.75-.2.2.35-1.1.4-1.1 1.85-1.45v3.35l-1-1.05-1.4 1.15m1.7-5.05 1.1-3.1 1.45 3.2-2.55-.1m2.85-10.45-2.95-.55.15.3.45.7-2.2-.15v3.8l.6 1-2.9-.7-2.85 1.1 1-1.55.6-.85 1.6-2.45.4-.55 1.25-1.8-1.25 1.8-3.75 1.05 3.9-2.45 1.1-.4.65-.95.65 1.15 3.55 1.5m-6.5.65 1.95 3.45-1.95-3.45m2.95-2.15.6.95-.6-.95" fill="#5f83be" fill-rule="evenodd" transform="translate(-248.05 -138.2)"/><path d="m275.8 237.45 2-.65 2.55-2.6-.4 1.1-2.45 6.45-1.7-4.3m.5.1 1.65-.45 2-1.8-2 1.8-1.65.45" fill="url(#C)" fill-rule="evenodd" transform="translate(-248.05 -138.2)"/><path d="m280.35 234.2-2.35 1.5-1.15-4.85.3-.15 1.4-.6.3 2.05.2-.2 1.4-.85 1 .9v1.45l-1.1.7v.05m-2.15 1-1.05-4.5 1.05 4.5" fill="url(#D)" fill-rule="evenodd" transform="translate(-248.05 -138.2)"/><path d="M276.85 230.85v-.15l1.65-.95.05.35-1.4.6-.3.15m3.5 3.35v-.05.05m1.1-2.2-1-.9-1.4.85 1.4-1.15 1 1.05v.15m-1.85-2.05-.4 1.1v-7.8l2.2-1.7.4-3.65.55.95-.5 2.75-2.3 1.7.05 6.65m3.5-2.8-2.4-.15.05-.1 2.55.1-.2.15m-3.45-5.6-.6-1v-3.8l2.2.15-1.6 4.65m-.05-1.25v-3.25h1.05-1.05v3.25" fill="#b6e9fb" fill-rule="evenodd" transform="translate(-248.05 -138.2)"/><path d="m281.45 228.5-1.85 1.45 1.1-2.95 2.4.15-1.65 1.35" fill="url(#E)" fill-rule="evenodd" transform="translate(-248.05 -138.2)"/><path d="m280.7 227-1.1 2.95-.05-6.65 2.3-1.7.5-2.75.75 1.35-1.25 3.6-1.1 3.1-.05.1" fill="url(#F)" fill-rule="evenodd" transform="translate(-248.05 -138.2)"/><path d="m277.95 225.45-2.1 2.95-1.95-6.45 2.85-1.1 2.9.7-2 1.4.3 2.5m-.45-.05-1.55 2.3 1.55-2.3m-2.85-3.35 2.3-.9 2.05.45-2.05-.45-2.3.9" fill="url(#G)" fill-rule="evenodd" transform="translate(-248.05 -138.2)"/><path d="m277.1 217.1-1.6 2.45-.6.85-1.15-2.8 3.75-1.05-.4.55m-2.4.6 2-.7-1.2 2.55 1.2-2.55-2 .7" fill="url(#H)" fill-rule="evenodd" transform="translate(-248.05 -138.2)"/><path d="m282.35 218.85-.55-.95-.55-1-.45-.7-.15-.3 2.95.55-1.25 2.4m.8-2.3-2.35-.35 2.35.35" fill="url(#I)" fill-rule="evenodd" transform="translate(-248.05 -138.2)"/><path d="m29.95 97.5-.6.35-1.6-3.55v4.95M32.3 96l-2.35 1.5m.5-5.95-.55-4.3-2.1 2.95-1.15 1.6 1.1 2.5M32.3 96l-.4 1.1-2.45 6.45-1.7-4.3m4.55-3.3V96v-.05l1.1-.7V93.8m-2.6.15-.3-2.05-.05-.35m2.95 2.1v.15m0-3.5-1.85 1.45-.4 1.1-.35 1.1m2.6-.3V90.3l1.65-1.35m-2.4-.15-1.1 2.95m2.75-11.1-.55-.95m.05 5.9-1.1 3.1-.05.1m2.6 0-1.45-3.2 1.25-3.6-.75-1.35 1.25-2.4m-2.95-.55.15.3.45.7.55 1m1.5 9.1-.2.15m-3.45-5.6-2 1.4.3 2.5m-4.05-3.5 1.95 6.45m3.8-6.85-.6-1-1.95-3.45-1.6 2.45-.6.85-1 1.55m3.6-5.4-.4.55m4.15-.2-1.6 4.65m-5.9-3.95 3.9-2.45 1.1-.4.65-.95.65 1.15 3.55 1.5m-4.85-1.7-1.25 1.8M25.7 79.4l1.15 2.8m5.75-4.5-.6-.95" fill="none" stroke="#000" stroke-linecap="round" stroke-linejoin="round" stroke-opacity=".251" stroke-width=".05"/><path d="m31.9 97.1-2 1.8-1.65.45m5.15-5.55-1-.9-1.4.85m-.5-1.85-1.4.6 1.05 4.5m-1.35-4.35.3-.15m5.95-3.55-2.4-.15m-1.1 2.95-.05-6.65 2.3-1.7.5-2.75M32.75 78l2.35.35m-4.15 5.05-2.05-.45-2.3.9m1.3 5.65 1.55-2.3m3.15-8.35h-1.05v3.25m-4.1-.75 1.2-2.55-2 .7" fill="none" stroke="#fff" stroke-linecap="round" stroke-linejoin="round" stroke-width=".05"/><path d="M273.05 227.95q0-.75 1.25-1.3 1.3-.55 3.1-.55t3.1.55q1.25.55 1.25 1.3t-1.25 1.3l-3.1.55-3.1-.55q-1.25-.55-1.25-1.3" fill="url(#J)" fill-rule="evenodd" transform="translate(-248.05 -138.2)"/><path d="m273.8 245.6 1.6 6.2.6-.65 2.35-2.6-2.55 4.55-2 1.1v-8.6m2.7-4.7-.55-7.5-.3-4.35 2-2.4 1.6-8.05.55 1.7-.4 6.35-2.2 3v13.45l-.35 1.9-.3-3.55-.05-.55" fill="#82a4cc" fill-rule="evenodd" transform="translate(-248.05 -138.2)"/><path d="m276 251.15-.6.65-1.6-6.2-1.1-4.25 1.15-2.8 2.1-5.15.55 7.5-1.65 1.6v.25l1.15 8.4m1.05-6.5-.2.35.35-1.9.4-1.9 1.85-2.55v5.9l-1-1.9-1.4 2m4.25-8.55-2.55-.2 1.1-5.35 1.45 5.55m-4.25-11.2.6 1.75-2.9-1.25-2.85 1.9 1-2.65.6-1.45 1.6-4.25 1.95 5.95-1.95-5.95.4-.95 1.25-3.15.65-1.6.65 1.95 3.55 2.65-2.95-.95.15.5.45 1.2-2.2-.25v6.55m-5.3-5.15 3.9-4.15 1.1-.75-1.25 3.15-3.75 1.75m6.3-4.55.6 1.7-.6-1.7" fill="#5f83be" fill-rule="evenodd" transform="translate(-248.05 -138.2)"/><path d="m274.3 254.4 1.65-.8 2-3.15-2 3.15-1.65.8m-.5-.2 2-1.1 2.55-4.55-.4 1.9-2.45 11.25-1.7-7.5" fill="url(#K)" fill-rule="evenodd" transform="translate(-248.05 -138.2)"/><path d="m278.35 248.55-2.35 2.6-1.15-8.4.3-.25 1.4-1.05.3 3.55.2-.35 1.4-1.4 1 1.5v2.55l-1.1 1.2v.05m-2.15 1.7-1.05-7.75 1.05 7.75" fill="url(#L)" fill-rule="evenodd" transform="translate(-248.05 -138.2)"/><path d="M274.85 242.75v-.25l1.65-1.6.05.55-1.4 1.05-.3.25m2.2 1.9 1.4-2 1 1.9v.2l-1-1.5-1.4 1.4m.55-3.45-.4 1.9v-13.45l2.2-3 .4-6.35.55 1.7-.5 4.8-2.3 2.85.05 11.55m.75 7.3v.05-.05m2.75-12.15-2.4-.25.05-.2 2.55.2-.2.25m-3.45-9.7-.6-1.75v-6.55l2.2.25-1.6 8.05m-.05-2.2v-5.6h1.05-1.05v5.6" fill="#b6e9fb" fill-rule="evenodd" transform="translate(-248.05 -138.2)"/><path d="m279.45 238.65-1.85 2.55 1.1-5.1 2.4.25-1.65 2.3" fill="url(#M)" fill-rule="evenodd" transform="translate(-248.05 -138.2)"/><path d="m278.75 235.9-.05.2-1.1 5.1-.05-11.55 2.3-2.85.5-4.8.75 2.3-1.25 6.25-1.1 5.35" fill="url(#N)" fill-rule="evenodd" transform="translate(-248.05 -138.2)"/><path d="m275.95 233.4-2.1 5.15-1.95-11.25 2.85-1.9 2.9 1.25-2 2.4.3 4.35m-3.3-5.9 2.3-1.5 2.05.7-2.05-.7-2.3 1.5m2.85 5.8-1.55 4 1.55-4" fill="url(#O)" fill-rule="evenodd" transform="translate(-248.05 -138.2)"/><path d="m275.1 218.95-1.6 4.25-.6 1.45-1.15-4.9 3.75-1.75-.4.95m-2.4 1 2-1.15-1.2 4.4 1.2-4.4-2 1.15" fill="url(#P)" fill-rule="evenodd" transform="translate(-248.05 -138.2)"/><path d="m280.35 222-1.1-3.4-.45-1.2 2.35.55-2.35-.55-.15-.5 2.95.95-1.25 4.15" fill="url(#Q)" fill-rule="evenodd" transform="translate(-248.05 -138.2)"/><path d="m27.95 112.95-.6.65-1.6-6.2v8.6m4.55-5.65-2.35 2.6m.5-10.25-.55-7.5-2.1 5.15-1.15 2.8 1.1 4.25m4.55 2.95-.4 1.9-2.45 11.25-1.7-7.5m5.65-9.65v-5.9L29.55 103l-.4 1.9-.35 1.9-.3-3.55-.05-.55m1.85 7.65v-.05.05m1.1-3.8v2.55l-1.1 1.2m1.1-3.95v.2m1.65-8.4.2-.25m-2.55-.2-.05.2-1.1 5.1m2.75-19.2-.55-1.7m.05 10.25-1.1 5.35m1.1-5.35 1.45 5.55m-3.65-9.45L29 86.7l-1.95-5.95-1.6 4.25-.6 1.45-1 2.65m5.75-.65-2 2.4.3 4.35m4.4-11.4.75 2.3-1.25 6.25m-6 8L23.85 89.1m9.2 9.05-1.65 2.3m-.65-21.25.45 1.2.55 1.7m-1.15-3.4.15.5m-3.3.6-.4.95m4.15-.35-1.6 8.05m3.95-8.8L32.3 83.8m-8.6-2.25 3.9-4.15 1.1-.75.65-1.6L30 77l3.55 2.65m-2.95-.95L30 77m-1.3-.35-1.25 3.15m-3.75 1.75 1.15 4.9" fill="none" stroke="#000" stroke-linecap="round" stroke-linejoin="round" stroke-opacity=".251" stroke-width=".05"/><path d="m29.9 112.25-2 3.15-1.65.8m2.25-12.95-1.4 1.05 1.05 7.75m3.25-5.5-1-1.5-1.4 1.4m-2.2-1.9.3-.25m3.55-6.4 2.4.25m-3.5 4.85-.05-11.55 2.3-2.85.5-4.8m-3.35 4.7-2.05-.7-2.3 1.5m1.3 9.8 1.55-4m5.65-15.35-2.35-.55m-.15 1.45h-1.05v5.6M25.45 85l1.2-4.4-2 1.15" fill="none" stroke="#fff" stroke-linecap="round" stroke-linejoin="round" stroke-width=".05"/><path d="M271.05 237.8q0-1.35 1.25-2.25 1.3-.95 3.1-.95t3.1.95q1.25.9 1.25 2.25 0 1.3-1.25 2.25-1.3.9-3.1.9t-3.1-.9q-1.25-.95-1.25-2.25" fill="url(#R)" fill-rule="evenodd" transform="translate(-248.05 -138.2)"/><path d="M275 205.85v2.45l-1.65-1.65-1.6-1.65 3.25.85" fill="#7096c5" fill-rule="evenodd" transform="translate(-248.05 -138.2)"/><path d="m273.35 206.65 1.65 1.65v3.35l-3.6-2.35 1-1.3.95-1.35m1.5 4.65-3.1-2.05 3.1 2.05" fill="url(#S)" fill-rule="evenodd" transform="translate(-248.05 -138.2)"/><path d="m274.8 205.55-2.7-.65 2.7.65m.2.3-3.25-.85 3.25-3.7v4.55" fill="url(#T)" fill-rule="evenodd" transform="translate(-248.05 -138.2)"/><path d="m267.9 211.7 3-4.3 1.5.6-1 1.3.85 2.65-4.35-.25m4.05 0-3.5-.15 3.5.15" fill="url(#U)" fill-rule="evenodd" transform="translate(-248.05 -138.2)"/><path d="m272.65 216.45-4.75-4.75 4.35.25 2.05 6.15-1.65-1.65" fill="#5f83be" fill-rule="evenodd" transform="translate(-248.05 -138.2)"/><path d="m271.75 218.4.9-1.95 1.65 1.65.35 1.1-2.9-.8m2.7.55-2.4-.65 2.4.65" fill="url(#V)" fill-rule="evenodd" transform="translate(-248.05 -138.2)"/><path d="M275 211.65v8.7l-.35-1.15-.35-1.1-2.05-6.15-.85-2.65 3.6 2.35" fill="#82a4cc" fill-rule="evenodd" transform="translate(-248.05 -138.2)"/><path d="M275 220.35v1.7l-.6-.2-2.65-3.45 2.9.8.35 1.15" fill="#608abd" fill-rule="evenodd" transform="translate(-248.05 -138.2)"/><path d="M26.95 70.1v-2.45m-3.25-.85 1.6 1.65 1.65 1.65v13.75l-.6-.2-2.65-3.45.9-1.95-4.75-4.75 3-4.3 1.5.6.95-1.35m-1.6-1.65 3.25-3.7v4.55m-2.35 10.6 1.65 1.65-2.05-6.15-.85-2.65 1-1.3M26.6 81l.35 1.15M26.6 81l-.35-1.1" fill="none" stroke="#000" stroke-linecap="round" stroke-linejoin="round" stroke-opacity=".263" stroke-width=".05"/><path d="m24.05 66.7 2.7.65m-3.05 3.7 3.1 2.05m-6.4.25 3.5.15m.1 6.6 2.4.65" fill="none" stroke="#fff" stroke-linecap="round" stroke-linejoin="round" stroke-width=".05"/><path d="m275 208.3 1.65-1.65 1.6-1.65-3.25.85v2.45" fill="#7096c5" fill-rule="evenodd" transform="translate(-248.05 -138.2)"/><path d="m277.6 208-.95-1.35-1.65 1.65v3.35l3.6-2.35-1-1.3m-2.45 3.3 3.1-2.05-3.1 2.05" fill="url(#W)" fill-rule="evenodd" transform="translate(-248.05 -138.2)"/><path d="m278.25 205-3.25-3.7v4.55l3.25-.85m-3.05.55 2.7-.65-2.7.65" fill="url(#X)" fill-rule="evenodd" transform="translate(-248.05 -138.2)"/><path d="m277.6 208 1 1.3-.85 2.65 4.35-.25-3-4.3-1.5.6m.45 3.7 3.5-.15-3.5.15" fill="url(#Y)" fill-rule="evenodd" transform="translate(-248.05 -138.2)"/><path d="m282.1 211.7-4.35.25-2.05 6.15 6.4-6.4" fill="#5f83be" fill-rule="evenodd" transform="translate(-248.05 -138.2)"/><path d="m277.35 216.45-1.65 1.65-.35 1.1 2.9-.8-.9-1.95m-1.8 2.5 2.4-.65-2.4.65" fill="url(#Z)" fill-rule="evenodd" transform="translate(-248.05 -138.2)"/><path d="m278.6 209.3-3.6 2.35v8.7l.35-1.15.35-1.1 2.05-6.15.85-2.65" fill="#82a4cc" fill-rule="evenodd" transform="translate(-248.05 -138.2)"/><path d="m275.35 219.2-.35 1.15v1.7l.6-.2 2.65-3.45-2.9.8" fill="#608abd" fill-rule="evenodd" transform="translate(-248.05 -138.2)"/><path d="m28.6 68.45.95 1.35 1 1.3m-3.6 2.35V70.1l1.65-1.65 1.6-1.65-3.25-3.7v7m2.6-.3 1.5-.6 3 4.3m-4.35.25.85-2.65m-1.25 7.15-1.65 1.65 2.05-6.15M27.3 81l-.35 1.15v-8.7m0 8.7v1.7l.6-.2 2.65-3.45-.9-1.95 4.75-4.75M27.3 81l.35-1.1" fill="none" stroke="#000" stroke-linecap="round" stroke-linejoin="round" stroke-opacity=".263" stroke-width=".05"/><path d="m29.85 66.7-2.7.65M29.9 80.1l-2.4.65m6-7.4-3.5.15m.2-2.45-3.1 2.05" fill="none" stroke="#fff" stroke-linecap="round" stroke-linejoin="round" stroke-width=".05"/></g></defs></svg>