<svg viewBox="0 0 136.7 192.25" xmlns="http://www.w3.org/2000/svg" xmlns:xlink="http://www.w3.org/1999/xlink"><use transform="translate(.025 .025)" width="136.65" height="192.2" xlink:href="#a"/><defs><linearGradient id="b" x1="-819.2" x2="819.2" gradientTransform="matrix(-.0134 -.0154 -.0239 .0208 116.1 94.45)" gradientUnits="userSpaceOnUse"><stop stop-color="#9cccd1" offset="0"/><stop stop-color="#fff" offset="1"/></linearGradient><linearGradient id="c" x1="-819.2" x2="819.2" gradientTransform="matrix(.0139 .016 .0011 -.0009 -25.5 222.85)" gradientUnits="userSpaceOnUse"><stop stop-color="#cde4e4" offset="0"/><stop stop-color="#62a3ac" offset="1"/></linearGradient><linearGradient id="d" x1="-819.2" x2="819.2" gradientTransform="matrix(.024 .0276 .03 -.0261 111.45 93.15)" gradientUnits="userSpaceOnUse"><stop stop-color="#e3f0f0" offset="0"/><stop stop-color="#eef7f7" offset="1"/></linearGradient><linearGradient id="e" x1="-819.2" x2="819.2" gradientTransform="matrix(-.0004 -.0204 .0316 -.0007 129 89.4)" gradientUnits="userSpaceOnUse"><stop stop-color="#9cccd1" offset="0"/><stop stop-color="#fff" offset="1"/></linearGradient><linearGradient id="f" x1="-819.2" x2="819.2" gradientTransform="matrix(.0005 .0212 -.0014 0 320.15 89.25)" gradientUnits="userSpaceOnUse"><stop stop-color="#cde4e4" offset="0"/><stop stop-color="#62a3ac" offset="1"/></linearGradient><linearGradient id="g" x1="-819.2" x2="819.2" gradientTransform="matrix(.0008 .0366 -.0398 .0009 131.6 85.25)" gradientUnits="userSpaceOnUse"><stop stop-color="#e3f0f0" offset="0"/><stop stop-color="#eef7f7" offset="1"/></linearGradient><linearGradient id="h" x1="-819.2" x2="819.2" gradientTransform="matrix(.0094 -.0122 .5587 .4288 -42.6 -33.7)" gradientUnits="userSpaceOnUse"><stop stop-color="#998c1a" offset="0"/><stop stop-color="#f5eb92" offset="1"/></linearGradient><linearGradient id="i" x1="-819.2" x2="819.2" gradientTransform="matrix(.0094 -.0122 .5587 .4288 -42.6 -33.7)" gradientUnits="userSpaceOnUse"><stop stop-color="#988b1b" offset="0"/><stop stop-color="#f5eb92" offset="1"/></linearGradient><linearGradient id="j" x1="-819.2" x2="819.2" gradientTransform="matrix(.008 .0019 -.1641 .6846 211.25 -122.35)" gradientUnits="userSpaceOnUse"><stop stop-color="#736915" offset="0"/><stop stop-color="#ead72f" offset="1"/></linearGradient><linearGradient id="k" x1="-819.2" x2="819.2" gradientTransform="matrix(.0042 -.0017 .0014 .0034 160.4 113.5)" gradientUnits="userSpaceOnUse"><stop stop-color="#6c6313" offset="0"/><stop stop-color="#f0e15b" offset="1"/></linearGradient><linearGradient id="l" x1="-819.2" x2="819.2" gradientTransform="matrix(.0026 .0034 -.5571 .4279 359.6 -28.9)" gradientUnits="userSpaceOnUse"><stop stop-color="#413c0c" offset="0"/><stop stop-color="#ead72f" offset="1"/></linearGradient><linearGradient id="m" x1="-819.2" x2="819.2" gradientTransform="matrix(.0243 .0586 .0637 -.0264 110.95 62.35)" gradientUnits="userSpaceOnUse"><stop stop-color="#e3f0f0" offset="0"/><stop stop-color="#eef7f7" offset="1"/></linearGradient><linearGradient id="n" x1="-819.2" x2="819.2" gradientTransform="matrix(-.0135 -.0326 -.0506 .021 117.85 67)" gradientUnits="userSpaceOnUse"><stop stop-color="#9cccd1" offset="0"/><stop stop-color="#fff" offset="1"/></linearGradient><linearGradient id="o" x1="-819.2" x2="819.2" gradientTransform="matrix(.0144 .0496 -.0526 .0152 105.95 67.7)" gradientUnits="userSpaceOnUse"><stop stop-color="#cde4e4" offset="0"/><stop stop-color="#62a3ac" offset="1"/></linearGradient><linearGradient id="p" x1="-819.2" x2="819.2" gradientTransform="matrix(.0144 .0339 -.0023 .0009 424.2 -38.6)" gradientUnits="userSpaceOnUse"><stop stop-color="#d3e7e4" offset="0"/><stop stop-color="#91bfc4" offset="1"/></linearGradient><linearGradient id="q" x1="-819.2" x2="819.2" gradientTransform="matrix(-.0153 -.002 -.092 .6983 150.05 -113.5)" gradientUnits="userSpaceOnUse"><stop stop-color="#998c1a" offset="0"/><stop stop-color="#f5eb92" offset="1"/></linearGradient><linearGradient id="r" x1="-819.2" x2="819.2" gradientTransform="matrix(-.0042 .0017 .0014 .0034 110.55 134.2)" gradientUnits="userSpaceOnUse"><stop stop-color="#6c6313" offset="0"/><stop stop-color="#f0e15b" offset="1"/></linearGradient><linearGradient id="s" x1="-819.2" x2="819.2" gradientTransform="matrix(-.0043 .007 .6 .3682 -92.2 3.35)" gradientUnits="userSpaceOnUse"><stop stop-color="#736915" offset="0"/><stop stop-color="#ead72f" offset="1"/></linearGradient><linearGradient id="t" x1="-819.2" x2="819.2" gradientTransform="matrix(-.0153 -.002 -.092 .6983 150.05 -113.5)" gradientUnits="userSpaceOnUse"><stop stop-color="#988b1b" offset="0"/><stop stop-color="#f5eb92" offset="1"/></linearGradient><linearGradient id="u" x1="-819.2" x2="819.2" gradientTransform="matrix(.0006 .0043 .6965 -.0912 -131.1 174.3)" gradientUnits="userSpaceOnUse"><stop stop-color="#413c0c" offset="0"/><stop stop-color="#ead72f" offset="1"/></linearGradient><linearGradient id="v" x1="-819.2" x2="819.2" gradientTransform="matrix(.0103 -.0042 -.2694 -.6508 256.1 408.45)" gradientUnits="userSpaceOnUse"><stop stop-color="#7da8ac" offset="0"/><stop stop-color="#fff" offset="1"/></linearGradient><linearGradient id="w" x1="-819.2" x2="819.2" gradientTransform="matrix(.0047 -.001 -.0024 -.0113 162.3 189.75)" gradientUnits="userSpaceOnUse"><stop stop-color="#2b2b2b" offset="0"/><stop stop-color="#7b7b7b" offset="1"/></linearGradient><linearGradient id="x" x1="-819.2" x2="819.2" gradientTransform="matrix(-.0064 -.0154 -.6508 .2694 368.7 31.8)" gradientUnits="userSpaceOnUse"><stop stop-color="#7da8ac" offset="0"/><stop stop-color="#fff" offset="1"/></linearGradient><linearGradient id="y" x1="-819.2" x2="819.2" gradientTransform="matrix(-.0019 -.0045 -.0045 .0019 138.1 128.45)" gradientUnits="userSpaceOnUse"><stop stop-color="#84d6ea" offset="0"/><stop stop-color="#20acce" offset="1"/></linearGradient><linearGradient id="z" x1="-819.2" x2="819.2" gradientTransform="matrix(.0016 .0038 .0032 -.0013 137.55 127.1)" gradientUnits="userSpaceOnUse"><stop stop-color="#fff" stop-opacity=".8" offset="0"/><stop stop-color="#1c6ce3" stop-opacity="0" offset="1"/></linearGradient><linearGradient id="A" x1="-819.2" x2="819.2" gradientTransform="matrix(.0031 -.0013 -.3216 -.7767 275.9 461.5)" gradientUnits="userSpaceOnUse"><stop stop-color="#7da8ac" offset="0"/><stop stop-color="#fff" offset="1"/></linearGradient><linearGradient id="B" x1="-819.2" x2="819.2" gradientTransform="matrix(.0026 -.0002 -.3346 -.808 289.6 472.2)" gradientUnits="userSpaceOnUse"><stop stop-color="#7da8ac" offset="0"/><stop stop-color="#fff" offset="1"/></linearGradient><linearGradient id="C" x1="-819.2" x2="819.2" gradientTransform="matrix(-.002 .0017 -.3346 -.808 273 479.35)" gradientUnits="userSpaceOnUse"><stop stop-color="#7da8ac" offset="0"/><stop stop-color="#46696c" offset="1"/></linearGradient><linearGradient id="F" x1="-819.2" x2="819.2" gradientTransform="matrix(.0022 -.0203 -.0314 -.0034 76.55 89.1)" gradientUnits="userSpaceOnUse"><stop stop-color="#9cccd1" offset="0"/><stop stop-color="#fff" offset="1"/></linearGradient><linearGradient id="G" x1="-819.2" x2="819.2" gradientTransform="matrix(-.0023 .0211 .0014 .0002 -113.85 72.55)" gradientUnits="userSpaceOnUse"><stop stop-color="#cde4e4" offset="0"/><stop stop-color="#62a3ac" offset="1"/></linearGradient><linearGradient id="H" x1="-819.2" x2="819.2" gradientTransform="matrix(-.0039 .0364 .0396 .0043 74.3 84.75)" gradientUnits="userSpaceOnUse"><stop stop-color="#e3f0f0" offset="0"/><stop stop-color="#eef7f7" offset="1"/></linearGradient><linearGradient id="I" x1="-819.2" x2="819.2" gradientTransform="matrix(.0146 -.0142 .022 .0227 89.05 95.2)" gradientUnits="userSpaceOnUse"><stop stop-color="#9cccd1" offset="0"/><stop stop-color="#fff" offset="1"/></linearGradient><linearGradient id="J" x1="-819.2" x2="819.2" gradientTransform="matrix(-.0153 .0148 -.001 -.001 219.05 235.2)" gradientUnits="userSpaceOnUse"><stop stop-color="#cde4e4" offset="0"/><stop stop-color="#62a3ac" offset="1"/></linearGradient><linearGradient id="K" x1="-819.2" x2="819.2" gradientTransform="matrix(-.0263 .0255 -.0277 -.0286 93.75 94.3)" gradientUnits="userSpaceOnUse"><stop stop-color="#e3f0f0" offset="0"/><stop stop-color="#eef7f7" offset="1"/></linearGradient><linearGradient id="L" x1="-819.2" x2="819.2" gradientTransform="matrix(.0154 -.0014 .0654 .7012 62.5 -114.35)" gradientUnits="userSpaceOnUse"><stop stop-color="#998c1a" offset="0"/><stop stop-color="#f5eb92" offset="1"/></linearGradient><linearGradient id="M" x1="-819.2" x2="819.2" gradientTransform="matrix(.0154 -.0014 .0654 .7012 62.5 -114.35)" gradientUnits="userSpaceOnUse"><stop stop-color="#988b1b" offset="0"/><stop stop-color="#f5eb92" offset="1"/></linearGradient><linearGradient id="N" x1="-819.2" x2="819.2" gradientTransform="matrix(.004 .0072 -.6135 .345 300.05 11.6)" gradientUnits="userSpaceOnUse"><stop stop-color="#736915" offset="0"/><stop stop-color="#ead72f" offset="1"/></linearGradient><linearGradient id="O" x1="-819.2" x2="819.2" gradientTransform="matrix(.0041 .0019 -.0016 .0034 92.55 134.65)" gradientUnits="userSpaceOnUse"><stop stop-color="#6c6313" offset="0"/><stop stop-color="#f0e15b" offset="1"/></linearGradient><linearGradient id="P" x1="-819.2" x2="819.2" gradientTransform="matrix(-.0007 .0043 -.6924 -.1176 332.35 183.9)" gradientUnits="userSpaceOnUse"><stop stop-color="#413c0c" offset="0"/><stop stop-color="#ead72f" offset="1"/></linearGradient><linearGradient id="Q" x1="-819.2" x2="819.2" gradientTransform="matrix(-.0265 .0576 .0626 .0288 96.6 63.55)" gradientUnits="userSpaceOnUse"><stop stop-color="#e3f0f0" offset="0"/><stop stop-color="#eef7f7" offset="1"/></linearGradient><linearGradient id="R" x1="-819.2" x2="819.2" gradientTransform="matrix(.0147 -.0321 -.0498 -.0229 97.85 71.8)" gradientUnits="userSpaceOnUse"><stop stop-color="#9cccd1" offset="0"/><stop stop-color="#fff" offset="1"/></linearGradient><linearGradient id="S" x1="-819.2" x2="819.2" gradientTransform="matrix(-.0266 .0443 -.0469 -.0282 89.25 63.6)" gradientUnits="userSpaceOnUse"><stop stop-color="#cde4e4" offset="0"/><stop stop-color="#62a3ac" offset="1"/></linearGradient><linearGradient id="T" x1="-819.2" x2="819.2" gradientTransform="matrix(-.0151 .0336 -.0022 -.001 383.5 224.55)" gradientUnits="userSpaceOnUse"><stop stop-color="#d3e7e4" offset="0"/><stop stop-color="#91bfc4" offset="1"/></linearGradient><linearGradient id="U" x1="-819.2" x2="819.2" gradientTransform="matrix(-.0089 -.0126 -.5745 .4072 251.95 -27.3)" gradientUnits="userSpaceOnUse"><stop stop-color="#998c1a" offset="0"/><stop stop-color="#f5eb92" offset="1"/></linearGradient><linearGradient id="V" x1="-819.2" x2="819.2" gradientTransform="matrix(-.0041 -.0019 -.0016 .0034 43.5 112.1)" gradientUnits="userSpaceOnUse"><stop stop-color="#6c6313" offset="0"/><stop stop-color="#f0e15b" offset="1"/></linearGradient><linearGradient id="W" x1="-819.2" x2="819.2" gradientTransform="matrix(-.008 .0016 .1379 .6902 1.65 -125.45)" gradientUnits="userSpaceOnUse"><stop stop-color="#736915" offset="0"/><stop stop-color="#ead72f" offset="1"/></linearGradient><linearGradient id="X" x1="-819.2" x2="819.2" gradientTransform="matrix(-.0089 -.0126 -.5745 .4072 251.95 -27.3)" gradientUnits="userSpaceOnUse"><stop stop-color="#988b1b" offset="0"/><stop stop-color="#f5eb92" offset="1"/></linearGradient><linearGradient id="Y" x1="-819.2" x2="819.2" gradientTransform="matrix(-.0028 .0033 .5403 .4487 -150.15 -37.75)" gradientUnits="userSpaceOnUse"><stop stop-color="#413c0c" offset="0"/><stop stop-color="#ead72f" offset="1"/></linearGradient><linearGradient id="Z" x1="-819.2" x2="819.2" gradientTransform="matrix(.0101 .0046 .294 -.6399 -58.5 405.25)" gradientUnits="userSpaceOnUse"><stop stop-color="#7da8ac" offset="0"/><stop stop-color="#fff" offset="1"/></linearGradient><linearGradient id="aa" x1="-819.2" x2="819.2" gradientTransform="matrix(.004 .0028 .0067 -.0095 38.05 187.85)" gradientUnits="userSpaceOnUse"><stop stop-color="#2b2b2b" offset="0"/><stop stop-color="#7b7b7b" offset="1"/></linearGradient><linearGradient id="ab" x1="-819.2" x2="819.2" gradientTransform="matrix(.0069 -.0151 -.6399 -.294 294.1 231.75)" gradientUnits="userSpaceOnUse"><stop stop-color="#7da8ac" offset="0"/><stop stop-color="#fff" offset="1"/></linearGradient><linearGradient id="ac" x1="-819.2" x2="819.2" gradientTransform="matrix(.002 -.0045 -.0045 -.002 66.5 128.4)" gradientUnits="userSpaceOnUse"><stop stop-color="#84d6ea" offset="0"/><stop stop-color="#20acce" offset="1"/></linearGradient><linearGradient id="ad" x1="-819.2" x2="819.2" gradientTransform="matrix(-.0017 .0038 .0031 .0014 67.1 127.05)" gradientUnits="userSpaceOnUse"><stop stop-color="#fff" stop-opacity=".8" offset="0"/><stop stop-color="#1c6ce3" stop-opacity="0" offset="1"/></linearGradient><linearGradient id="ae" x1="-819.2" x2="819.2" gradientTransform="matrix(.0031 .0014 .3509 -.7638 -84.05 455.85)" gradientUnits="userSpaceOnUse"><stop stop-color="#7da8ac" offset="0"/><stop stop-color="#fff" offset="1"/></linearGradient><linearGradient id="af" x1="-819.2" x2="819.2" gradientTransform="matrix(.0019 .0018 .365 -.7946 -82.5 473.15)" gradientUnits="userSpaceOnUse"><stop stop-color="#7da8ac" offset="0"/><stop stop-color="#fff" offset="1"/></linearGradient><linearGradient id="ag" x1="-819.2" x2="819.2" gradientTransform="matrix(-.0026 -.0003 .365 -.7946 -99 465.8)" gradientUnits="userSpaceOnUse"><stop stop-color="#7da8ac" offset="0"/><stop stop-color="#46696c" offset="1"/></linearGradient><radialGradient id="D" cx="0" cy="0" r="819.2" gradientTransform="matrix(.0106 -.0042 .0081 .0204 107.55 89)" gradientUnits="userSpaceOnUse"><stop stop-color="#fff" stop-opacity=".773" offset="0"/><stop stop-color="#fff" stop-opacity="0" offset="1"/></radialGradient><radialGradient id="E" cx="0" cy="0" r="819.2" gradientTransform="matrix(.0073 -.0029 .0111 .0281 101.1 47.6)" gradientUnits="userSpaceOnUse"><stop stop-color="#fff" stop-opacity=".733" offset="0"/><stop stop-color="#fff" stop-opacity="0" offset="1"/></radialGradient><radialGradient id="ah" cx="0" cy="0" r="819.2" gradientTransform="matrix(.0103 .0049 -.0095 .0198 74.75 79.15)" gradientUnits="userSpaceOnUse"><stop stop-color="#fff" stop-opacity=".773" offset="0"/><stop stop-color="#fff" stop-opacity="0" offset="1"/></radialGradient><radialGradient id="ai" cx="0" cy="0" r="819.2" gradientTransform="matrix(.0071 .0034 -.0131 .0273 100.7 46.4)" gradientUnits="userSpaceOnUse"><stop stop-color="#fff" stop-opacity=".733" offset="0"/><stop stop-color="#fff" stop-opacity="0" offset="1"/></radialGradient><radialGradient id="aj" cx="0" cy="0" r="819.2" gradientTransform="matrix(.0103 .0049 -.0095 .0198 91.4 115.3)" gradientUnits="userSpaceOnUse"><stop stop-color="#fff" stop-opacity=".922" offset="0"/><stop stop-color="#fff" stop-opacity="0" offset="1"/></radialGradient><g id="a"><path d="m119.55 113.05-.15-.1v.4l.15-.3" fill="#48959d" fill-rule="evenodd" transform="translate(-32.65 -10.35)"/><path d="M132.5 117.95q-7-1.35-12.95-4.9l-.15.3 1.85 2.1q6.15 3.95 13.4 5.05v-.3l-1.75-2.3-.2.1-.2-.05" fill="#527583" fill-rule="evenodd" transform="translate(-32.65 -10.35)"/><path d="M134.65 120.2q0-7-2.2-13.6l-2.45-2.85q3.35 8.3 2.6 13.75l.3.4 1.75 2.3" fill="#b1c6cd" fill-rule="evenodd" transform="translate(-32.65 -10.35)"/><path d="m130.7 115.65.2.25-.05-.4-.15.15" fill="url(#b)" fill-rule="evenodd" transform="translate(-32.65 -10.35)"/><path d="m130.8 116-.2-.25-.15.15.35.1" fill="#4a949b" fill-rule="evenodd" transform="translate(-32.65 -10.35)"/><path d="M130.6 115.75 96.8 76.9q13.9 18.9 23.1 35.4 6.1 3.5 10.55 3.6l.15-.15" fill="#62a3ac" fill-rule="evenodd" transform="translate(-32.65 -10.35)"/><path d="m96.9 76.8 33.8 38.85.15-.15q.55-4.4-2.05-10.9-15.1-11.45-31.9-27.8" fill="url(#c)" fill-rule="evenodd" transform="translate(-32.65 -10.35)"/><path d="m96.8 76.9.05-.05-6.6-7.75 6.6 7.75.05-.05q16.8 16.35 31.9 27.8 2.6 6.5 2.05 10.9l.05.4-.1.1-.35-.1q-4.45-.1-10.55-3.6-9.2-16.5-23.1-35.4m-6.55-7.8-.45-.35.35.4q16.35 22.05 29.25 43.8l.15.1q5.95 3.55 12.95 4.9l.05-.2-1.65-1.85 1.65 1.85.05-.25q.75-5.45-2.6-13.75Q111.15 89.5 90.25 69.1" fill="url(#d)" fill-rule="evenodd" transform="translate(-32.65 -10.35)"/><path d="M99.85 107.6q-7-1.35-12.95-4.9l-.15-.1m13.3 4.95v.1l-.2-.05m.4-.05 1.75 2.3m-2.05-2.7.1.4m.2 0-.3-.4q.75-5.45-2.6-13.75" fill="none" stroke="#000" stroke-linecap="round" stroke-linejoin="round" stroke-opacity=".231" stroke-width=".05"/><path d="m86.75 103 1.85 2.1q6.15 3.95 13.4 5.05" fill="none" stroke="#000" stroke-linecap="round" stroke-linejoin="round" stroke-opacity=".373" stroke-width=".05"/><path d="m64.2 66.5 34.05 39.05 1.65 1.85.15.15m-13.3-4.95Q73.85 80.85 57.5 58.8l-.35-.4.45.35 6.6 7.75m37.8 43.35q0-7-2.2-13.6l-2.45-2.85Q78.5 79.15 57.6 58.75" fill="none" stroke="#1b4d7e" stroke-linecap="round" stroke-linejoin="round" stroke-opacity=".573" stroke-width=".05"/><path d="M139 105.5v-.2l.35.3-.35-.1" fill="#48959d" fill-rule="evenodd" transform="translate(-32.65 -10.35)"/><path d="m132.55 120.95-.2-2.95h.25l.15-.15q4.2-5.7 6.25-12.35l.35.1.05 2.85q-1.95 7.05-6.6 12.7l-.25-.2" fill="#527583" fill-rule="evenodd" transform="translate(-32.65 -10.35)"/><path d="M125 105.6q3.1 8.4 7.35 11.95v.45l.2 2.95q-4.65-5.25-7.45-11.6l-.1-3.75" fill="#b1c6cd" fill-rule="evenodd" transform="translate(-32.65 -10.35)"/><path d="m132.45 115.25-.25-.35h.2l.05.35" fill="url(#e)" fill-rule="evenodd" transform="translate(-32.65 -10.35)"/><path d="m132.65 115.25-.05-.35h.2l-.15.35" fill="#4a949b" fill-rule="evenodd" transform="translate(-32.65 -10.35)"/><path d="m132.6 114.9-1.1-51.5q2.4 23.35 6.7 41.8-2.15 6.7-5.4 9.7h-.2" fill="#62a3ac" fill-rule="evenodd" transform="translate(-32.65 -10.35)"/><path d="M132.2 114.9q-3.3-2.85-5.75-9.45 3.45-18.6 4.85-42.05l1.1 51.5h-.2" fill="url(#f)" fill-rule="evenodd" transform="translate(-32.65 -10.35)"/><path d="M131.4 63.4h-.1q-1.4 23.45-4.85 42.05 2.45 6.6 5.75 9.45l.25.35h.05l.05 2.45-.05-2.45h.15l.15-.35q3.25-3 5.4-9.7-4.3-18.45-6.7-41.8h-.1l-.25-10.15.25 10.15m-6.4 42.2q4.3-23.15 6.15-52.35l.05-.55.05.55q2.7 27.3 7.75 52.05v.2q-2.05 6.65-6.25 12.35l-.4-.3Q128.1 114 125 105.6" fill="url(#g)" fill-rule="evenodd" transform="translate(-32.65 -10.35)"/><path d="M92.35 95.25q3.1 8.4 7.35 11.95l.2.35.05.1.15-.15q4.2-5.7 6.25-12.35v-.2M99.9 110.6l-.2-2.95v-.45" fill="none" stroke="#000" stroke-linecap="round" stroke-linejoin="round" stroke-opacity=".231" stroke-width=".05"/><path d="m106.7 95.25.05 2.85q-1.95 7.05-6.6 12.7" fill="none" stroke="#000" stroke-linecap="round" stroke-linejoin="round" stroke-opacity=".373" stroke-width=".05"/><path d="M98.75 53.05 98.5 42.9q-1.85 29.2-6.15 52.35l.1 3.75q2.8 6.35 7.45 11.6m0-3.25-.05-2.45m6.5-9.95Q101.3 70.2 98.6 42.9l-.05-.55-.05.55m.25 10.15 1.1 51.85m.05 2.65v-.2" fill="none" stroke="#1b4d7e" stroke-linecap="round" stroke-linejoin="round" stroke-opacity=".573" stroke-width=".05"/><path d="m142.75 95.05 1.45 2.3q1.2 1.95 3.2 2.75l.75.6.05.1 1.25 1.15.9 1.3q.65 1.1 1 2.35l.05 1.2-.05.05q.2 2.15 1.4 4.1l1.9 1.6 1.15-.3q.3-.55 2.7-.45-1.05-3.75-3.45-7.6l-1.75-2.6q-5-3.95-10.55-6.55m12.95 8.55.05.1q2.55 4.15 4.15 8.2l4.1.55q-3.9-4.95-8.3-8.85" fill="url(#h)" fill-rule="evenodd" transform="translate(-32.65 -10.35)"/><path d="m151.65 114.05-.3-1.55q-.75-2.85-.8-5.6-.25-1.8-1.05-3.1l-.85-1.25-1.15-1.05-6.3-3.7q-5.75 11-6.7 22.15l9.1 7.4q3.05-9.85 8.05-13.3" fill="url(#i)" fill-rule="evenodd" transform="translate(-32.65 -10.35)"/><path d="m155.8 112.25-1.15.3q-1.55.5-3 1.5-5 3.45-8.05 13.3l.65 1.5q1.05-.9 5.65-3 4.6-2.2 10.15-.85-.3-4.25-1.4-7.4-1.05-3.15-2.85-5.35" fill="url(#j)" fill-rule="evenodd" transform="translate(-32.65 -10.35)"/><path d="M158.5 111.8q-2.4-.1-2.7.45 1.8 2.2 2.85 5.35 2.9-1.55 5.35-5.15l-4.1-.55-1.4-.1" fill="url(#k)" fill-rule="evenodd" transform="translate(-32.65 -10.35)"/><path d="m144.25 128.85 1.85 3.45q13.5-4.3 13.95-7.3-5.55-1.35-10.15.85-4.6 2.1-5.65 3" fill="url(#l)" fill-rule="evenodd" transform="translate(-32.65 -10.35)"/><path d="m154.65 112.55-1.9-1.6q-1.2-1.95-1.4-4.1l.05-.05-.05-1.2q-.35-1.25-1-2.35l-.9-1.3-1.25-1.15-.05-.1-.75-.6q-2-.8-3.2-2.75l-1.45-2.3-1.55 2.75 6.3 3.7 1.15 1.05.85 1.25q.8 1.3 1.05 3.1.05 2.75.8 5.6l.3 1.55q1.45-1 3-1.5m-1.35-10.95 1.75 2.6q2.4 3.85 3.45 7.6l1.4.1q-1.6-4.05-4.15-8.2l-.05-.1-2.4-2" fill="#fff" fill-rule="evenodd" transform="translate(-32.65 -10.35)"/><path d="m101.85 109.6 9.1 7.4.65 1.5 1.85 3.45" fill="none" stroke="#1b4d7e" stroke-linecap="round" stroke-linejoin="round" stroke-opacity=".573" stroke-width=".05"/><path d="M113.45 121.95q13.5-4.3 13.95-7.3m-1.4-7.4q2.9-1.55 5.35-5.15" fill="none" stroke="#000" stroke-linecap="round" stroke-linejoin="round" stroke-opacity=".502" stroke-width=".05"/><path d="M110.1 84.7q5.55 2.6 10.55 6.55m5.2 10.2q-2.4-.1-2.7.45l-1.15.3q-1.55.5-3 1.5-5 3.45-8.05 13.3m-2.4-29.55 1.55-2.75m17.15 16.85-1.4-.1m-2.8-8.2-2.4-2m-12.1-3.8q-5.75 11-6.7 22.15m25.55 5.05q-.3-4.25-1.4-7.4m5.35-5.15q-3.9-4.95-8.3-8.85M111.6 118.5q1.05-.9 5.65-3 4.6-2.2 10.15-.85m-.15-13.1 4.1.55m-8.2-.2q1.8 2.2 2.85 5.35" fill="none" stroke="#61531f" stroke-linecap="round" stroke-linejoin="round" stroke-opacity=".502" stroke-width=".05"/><path d="m112.95 99.9.15-.65.2.25-.35.4" fill="#48959d" fill-rule="evenodd" transform="translate(-32.65 -10.35)"/><path d="m134.25 119.55-.25.45q-11.3-5.7-19.2-15.5l-1.85-4.6.35-.4q7.85 9.2 18.6 15.3l.25.1.4-.15 1.7 4.8" fill="#527583" fill-rule="evenodd" transform="translate(-32.65 -10.35)"/><path d="m135.6 89.95 2.45 6.05q-.05 12.05-3.8 23.55l-1.7-4.8-.2-.7q4.15-8.65 3.25-24.1" fill="#b1c6cd" fill-rule="evenodd" transform="translate(-32.65 -10.35)"/><path d="m130.2 110.55-.5-.45.3-.1.2.55" fill="#4a949b" fill-rule="evenodd" transform="translate(-32.65 -10.35)"/><path d="M113.1 99.25q-9.15-42.8-23.9-87.9l-.3-1 .45.9q23.2 45.05 46.25 78.7.9 15.45-3.25 24.1l-.25.35-.2.4q-10.75-6.1-18.6-15.3l-.2-.25m17.35 11.2 1.65 3.95-1.65-3.95h.05l.05-.7-.25.15h-.1l-.2.1-.3.1.5.45.25-.1M96 27.5l34.2 82.4L96 27.5" fill="url(#m)" fill-rule="evenodd" transform="translate(-32.65 -10.35)"/><path d="m130.3 109.9.25-.15-.05.7-.2-.55" fill="url(#n)" fill-rule="evenodd" transform="translate(-32.65 -10.35)"/><path d="m80.45 88.9.2.25q7.85 9.2 18.6 15.3l.25.1m.4-.15-.2-.7-.15.65-.05.2m.4-.15 1.7 4.8m1.35-29.6q.9 15.45-3.25 24.1" fill="none" stroke="#000" stroke-linecap="round" stroke-linejoin="round" stroke-opacity=".231" stroke-width=".05"/><path d="M101.35 109.65q-11.3-5.7-19.2-15.5l-1.85-4.6" fill="none" stroke="#000" stroke-linecap="round" stroke-linejoin="round" stroke-opacity=".373" stroke-width=".05"/><path d="M80.45 88.9Q71.3 46.1 56.55 1l-.3-1 .45.9q23.2 45.05 46.25 78.7l2.45 6.05q-.05 12.05-3.8 23.55m-2.15-5.15-1.65-3.95m1.65 3.95.1.3" fill="none" stroke="#1b4d7e" stroke-linecap="round" stroke-linejoin="round" stroke-opacity=".573" stroke-width=".05"/><path d="m97.55 99.55-34.2-82.4M97.8 100.1l-.25-.55" fill="none" stroke="#1b4d7e" stroke-linecap="round" stroke-linejoin="round" stroke-opacity=".4" stroke-width=".05"/><path d="m95.8 27.55 34.95 82.65.3-.05-.3-.6.3-.15q3.3-6.9 2.5-19.1-18.65-26.85-37.6-62.85l-.15.1" fill="url(#o)" fill-rule="evenodd" transform="translate(-32.65 -10.35)"/><path d="M130.1 109.9q-7.25-2.45-15.4-11.5-6.35-32.15-19.1-70.75l34.8 82.1-.3.15" fill="url(#p)" fill-rule="evenodd" transform="translate(-32.65 -10.35)"/><path d="m113.9 129.45.2-2.5q-.5-2.25-1.95-3.9l-.85-.85q-1.45-2.75-1.2-5.75l.15-.95q.8-2 .3-4.25l-.55-2.6q-2.15 5.7-2.85 12.05l.5 3.1q1.05 4.45 3 7.8 1.6-1.7 2.2-1.55.5-.4 1.05-.6m-4.15 3.25q-1.8-4.05-2.9-8.7l-.05-.15q-.35 5.85.45 12.1 1.4-2 2.5-3.25" fill="url(#q)" fill-rule="evenodd" transform="translate(-32.65 -10.35)"/><path d="M112.85 130.05q-.6-.15-2.2 1.55l-.9 1.1q-1.1 1.25-2.5 3.25 4.25.8 7.35-.1-1.45-3-1.75-5.8" fill="url(#r)" fill-rule="evenodd" transform="translate(-32.65 -10.35)"/><path d="M117.1 128.35q-1.75.3-3.2 1.1-.55.2-1.05.6.3 2.8 1.75 5.8 1.5 3 4.3 6.15 2.9-4.85 7.7-6.5 4.85-1.75 6.15-1.85l-.6-1.6q-9.05-4.75-15.05-3.7" fill="url(#s)" fill-rule="evenodd" transform="translate(-32.65 -10.35)"/><path d="m112.95 109.5-1.8 7.05q-.45 3.1 1.65 5.95 1.95 2.05 3.4 4.6l.9 1.25q6-1.05 15.05 3.7l1.15-11.6q-8.5-7.25-20.35-10.95" fill="url(#t)" fill-rule="evenodd" transform="translate(-32.65 -10.35)"/><path d="M118.9 142q2.45 1.8 15-4.7l-1.15-3.65q-1.3.1-6.15 1.85-4.8 1.65-7.7 6.5" fill="url(#u)" fill-rule="evenodd" transform="translate(-32.65 -10.35)"/><path d="m110 108.65.55 2.6q.5 2.25-.3 4.25l-.15.95q-.25 3 1.2 5.75l.85.85q1.45 1.65 1.95 3.9l-.2 2.5q1.45-.8 3.2-1.1l-.9-1.25q-1.45-2.55-3.4-4.6-2.1-2.85-1.65-5.95l1.8-7.05-2.95-.85m.65 22.95q-1.95-3.35-3-7.8l-.5-3.1q-.25 1.6-.35 3.15l.05.15q1.1 4.65 2.9 8.7l.9-1.1" fill="#fff" fill-rule="evenodd" transform="translate(-32.65 -10.35)"/><path d="m101.25 126.95-1.15-3.65-.6-1.6 1.15-11.6" fill="none" stroke="#1b4d7e" stroke-linecap="round" stroke-linejoin="round" stroke-opacity=".573" stroke-width=".05"/><path d="M74.6 125.6q4.25.8 7.35-.1m4.3 6.15q2.45 1.8 15-4.7" fill="none" stroke="#000" stroke-linecap="round" stroke-linejoin="round" stroke-opacity=".502" stroke-width=".05"/><path d="m77.35 98.3 2.95.85M84.45 118q-1.75.3-3.2 1.1-.55.2-1.05.6-.6-.15-2.2 1.55l-.9 1.1q-1.1 1.25-2.5 3.25m-.1-15.25q.7-6.35 2.85-12.05m-3.2 15.2q.1-1.55.35-3.15m-.35 3.15q-.35 5.85.45 12.1m7.35-.1q1.5 3 4.3 6.15 2.9-4.85 7.7-6.5 4.85-1.75 6.15-1.85m.55-13.2q-8.5-7.25-20.35-10.95m19.2 22.55q-9.05-4.75-15.05-3.7m-4.25 1.7q.3 2.8 1.75 5.8" fill="none" stroke="#61531f" stroke-linecap="round" stroke-linejoin="round" stroke-opacity=".502" stroke-width=".05"/><path d="m145.4 128.15.05.05-.05-.05m11.95 27.1-.1.1.25.15-.15-.25" fill="#e7e7d3" fill-rule="evenodd" transform="translate(-32.65 -10.35)"/><path d="m134.95 139.7.1.55-.1-.55m13.6-4.3-.3-.5-.75.3-.3.8 1.35-.6m8.95 20.1-.25-.15.25.2v-.05" fill="#fcfbfa" fill-rule="evenodd" transform="translate(-32.65 -10.35)"/><path d="m145.45 128.2-.05-.05q-11.4 4.8-13.25 3.9l.55 1.6 2.6-.7 10.15-4.75m2.05 7 .75-.3-.15-1.2-.6 1.5m-9.05 5.35-.05.35.3-.35h-.25" fill="#d1d0ad" fill-rule="evenodd" transform="translate(-32.65 -10.35)"/><path d="m152.25 173.7 1.15-.8q2.15-1.75 3.55-4.4v-.05q1.05-2.05 1.8-4.7l-3.55 4.05q-1.65.25-3.35-1.6l-1-2.75-1.8 1.5-1.25 1q.25 1.65 1.65 4.35 1.15 2.35 2.8 3.4m-3.7-38.3-1.35.6q-4.6 2.1-9.4 3.1l1.85.35 3.25.6 6.1.85 1.95.2-1.7-.95.8-1.9-1.5-2.85m-.45-1.7q-.55-3.25-2.65-5.5l-10.15 4.75.15 2.8 1.65 2.9q5.3-1.05 10.4-3.45l.6-1.5m2.4 11.5-3.8 1.1 1.85-4.25-6.6-1.05-3.25-.45-.3.35.05-.35-.3-.05q0 2.9.9 5.5 1 2.8 2.95 4.45l.2-.1 1.95-1.1 1.2-.75.65-.4 4.5-2.9m1.7 8.45-6.35-.25q-1.35-.9-1.4-3.1l-1.8 1.1-.65.35q.1 2.15 1.25 3.45l1.05-.05 2.35-.2 5.55-1.3m-5.4 2.45-2.3.4-1.05.1q.9 4.7 3.6 8.3l1.6-1.05 1.8-1.4q2.45-2 4.85-4.75l-5.95 3.3q-1.1-.7-2.1-3.05l-.45-1.85m15 9.35-3.25 2.45q-.9 1.8-2.35 3l-.5.4-.3.4.9-.25.25-.05q2.75-1.45 6.2-.1l-.95-5.85" fill="#75694f" fill-rule="evenodd" transform="translate(-32.65 -10.35)"/><path d="m136.35 138.7.95.2-.2-.25-.75.05" fill="#bba980" fill-rule="evenodd" transform="translate(-32.65 -10.35)"/><path d="m148.55 142.05-1.85 4.25 3.8-1.1 1.55-1.2-.1-1.45-3.4-.5m2.4-.95.65.05-1.55-2.9-.8 1.9 1.7.95m4.55 11.25q.3-4.1-2.5-7.25l-8.55 5.2q.05 2.2 1.4 3.1l6.35.25 3.3-1.3m-8.7 3.75.45 1.85q1 2.35 2.1 3.05l5.95-3.3.35-.35 1.6-2 .1-.1-1.1-1.95q-4.6 1.9-9.45 2.8m4.05 7.35 1 2.75q1.7 1.85 3.35 1.6l3.55-4.05.5-2.3q-.35-3.05-1.25-4.9l-7.15 6.9m10.95 2-1.95-2.6q-.25 2.9-1.3 5.05l3.25-2.45" fill="#9e9758" fill-rule="evenodd" transform="translate(-32.65 -10.35)"/><path d="M132.7 133.65q-.05 1.7 1.2 3.65l.8 1.15 1.65.25.75-.05-1.65-2.9-.15-2.8-2.6.7m2.35 6.6q1.1 4.85 3.6 9l1.15 1.8.25.35 1.95-.95q-1.95-1.65-2.95-4.45-.9-2.6-.9-5.5l-1.25-.2-1.85-.05m5.25 12.55q.2 1 1.2 2.35l.15.05h1.6q-1.15-1.3-1.25-3.45l-1.7 1.05m1.7 3.95q.85 3.7 3.9 8.8l1.15-.65q-2.7-3.6-3.6-8.3l-1.45.15m4.2 10.4.6 3.55 4.1 6.5 1.35-3.5q-1.65-1.05-2.8-3.4-1.4-2.7-1.65-4.35l-1.6 1.2" fill="#464031" fill-rule="evenodd" transform="translate(-32.65 -10.35)"/><path d="m150.5 145.2-4.5 2.9-.65.4-1.2.75.3 1.05 8.55-5.2-.95-1.1-1.55 1.2m-1.5-4.3-.45 1.15 3.4.5-.35-1.4-.65-.05-1.95-.2m6.5 11.45-3.3 1.3-5.55 1.3.15 1.15q4.85-.9 9.45-2.8l-.75-.95m1.75 3-1.6 2-.35.35q-2.4 2.75-4.85 4.75l.4 1 7.15-6.9-.5-1-.25-.2m2 6.1-.5 2.3q-.75 2.65-1.8 4.7l1.6-.55q1.05-2.15 1.3-5.05l-.6-1.4" fill="#c2bd92" fill-rule="evenodd" transform="translate(-32.65 -10.35)"/><path d="m153.4 172.9 2-1.2.3-.4.5-.4q1.45-1.2 2.35-3l-1.6.55v.05q-1.4 2.65-3.55 4.4m-9.25-23.65-1.95 1.1-.2.1v1.3l.65-.35 1.8-1.1-.3-1.05m-6-8.75.3.05h.25l3.25.45 6.6 1.05.45-1.15-6.1-.85-3.25-.6-1.85-.35-.5-.2.85 1.6m8.5 14.45-2.35.2-1.05.05.2 1.4 1.05-.1 2.3-.4-.15-1.15m3.8 7.5-1.8 1.4-1.6 1.05.75 1.05 1.25-1 1.8-1.5-.4-1" fill="#a49c5b" fill-rule="evenodd" transform="translate(-32.65 -10.35)"/><path d="m134.7 138.45.2.9.05.35.1.55 1.85.05 1.25.2-.85-1.6.5.2q4.8-1 9.4-3.1l.3-.8q-5.1 2.4-10.4 3.45l.2.25-.95-.2-1.65-.25m5.35 12.95.05.4.05.1.15.9 1.7-1.05v-1.3l-1.95.95m1.6 3.8.35 1.55 1.45-.15-.2-1.4h-1.6m4.25 10.35.3 1.6 1.6-1.2-.75-1.05-1.15.65" fill="#787243" fill-rule="evenodd" transform="translate(-32.65 -10.35)"/><path d="m112.8 117.85.2-.15-.25.1q-11.4 4.8-13.25 3.9l.55 1.6q-.05 1.7 1.2 3.65l.8 1.15.2.9.05.35.1.55q1.1 4.85 3.6 9l1.15 1.8.25.35.05.4.05.1.15.9q.2 1 1.2 2.35l.15.05.35 1.55q.85 3.7 3.9 8.8l.3 1.6.6 3.55 4.1 6.5 1.35-3.5 1.15-.8 2-1.2-1.75 1.8m-5.4-38.6.3.5m-1.05-.2.75-.3-.15-1.2q-.55-3.25-2.65-5.5m3.2 6.5-.4.2m2.25 10.3-4.5 2.9-.65.4-1.2.75-1.95 1.1-.2.1-1.95.95m1.9-10.4 6.6 1.05m.45-1.15 1.95.2.65.05.35 1.4.1 1.45-1.55 1.2m-12.7-6.1 1.85.35 3.25.6 6.1.85m1.05-2.65 1.55 2.9m1.4 3.95q2.8 3.15 2.5 7.25l-3.3 1.3m.8-8.55-.95-1.1m-2-5.75-1.5-2.85m-13.25-2.45-2.6.7m2.35 6.6-.1-.55m2.15-1.05.2.25-.95-.2.75-.05-1.65-2.9-.15-2.8 10.15-4.75m-8.15 10.7.5.2m-3.1-.65 1.65.25m6.9 16.5 1.05-.05 2.35-.2 5.55-1.3M109 144.85h1.6m3.8 9.7-1.15.65m1.6-30.35q-5.1 2.4-10.4 3.45m13.35 23.8-1.8 1.4-1.6 1.05m9.2-11.6 1.1 1.95-.1.1-1.6 2-.35.35q-2.4 2.75-4.85 4.75m7.55-5.9q.9 1.85 1.25 4.9l-.5 2.3q-.75 2.65-1.8 4.7v.05q-1.4 2.65-3.55 4.4m4.1-17.35.5 1m-.65-1.3.15.25v.05m2.35 7.3 1.95 2.6.95 5.85q-3.45-1.35-6.2.1l-.25.05-.9.25m4.45-8.85-.6-1.4m-3.75-9.1.75.95" fill="none" stroke="#343118" stroke-linecap="round" stroke-linejoin="round" stroke-opacity=".502" stroke-width=".05"/><path d="M150.6 185.1q3.6 3.75 11.1.35 6.7-2.85 7.6-7.95-4.85-1.45-10.8.9-2.75 1.05-4.65 2.6-2.2 1.75-3.25 4.1" fill="#527583" fill-rule="evenodd" transform="translate(-32.65 -10.35)"/><path d="M151 173.45q-1.8 1.9-3.3 4.75-.15 4.7 2.9 6.9 1.05-2.35 3.25-4.1l-1.5-.6-1.45-4.95.1-2" fill="#46696c" fill-rule="evenodd" transform="translate(-32.65 -10.35)"/><path d="M169.3 177.5q-.3-3.65-2.75-6.65-4.7-2.2-10.2-.35-3 .55-5.35 2.95l-.1 2 1.45 4.95 1.5.6q1.9-1.55 4.65-2.6 5.95-2.35 10.8-.9" fill="url(#v)" fill-rule="evenodd" transform="translate(-32.65 -10.35)"/><path d="M136.65 167.15q-.3-3.65-2.75-6.65-4.7-2.2-10.2-.35-3 .55-5.35 2.95-1.8 1.9-3.3 4.75-.15 4.7 2.9 6.9 3.6 3.75 11.1.35 6.7-2.85 7.6-7.95-4.85-1.45-10.8.9-2.75 1.05-4.65 2.6m-3.25 4.1q1.05-2.35 3.25-4.1" fill="none" stroke="#000" stroke-linecap="round" stroke-linejoin="round" stroke-opacity=".314" stroke-width=".05"/><path d="m164.1 196.55-5.05-10.1q1.15-1.8 3-2.55l1.1-.05-.7-4q-4.05.5-7 3.75l8.65 12.95m1.15-12.75-.6-4.05h-.85l.65 4.1.8-.05" fill-rule="evenodd" transform="translate(-32.65 -10.35)"/><path d="m165.25 183.8-.8.05 2.8 17.4.85 1.3-2.85-18.75" fill="#3c3c3c" fill-rule="evenodd" transform="translate(-32.65 -10.35)"/><path d="m163.15 183.85 2.35 14.85 1.75 2.55-2.8-17.4h-1.3" fill="#737373" fill-rule="evenodd" transform="translate(-32.65 -10.35)"/><path d="m163.15 183.85-1.1.05q-1.85.75-3 2.55l5.05 10.1 1.4 2.15-2.35-14.85" fill="url(#w)" fill-rule="evenodd" transform="translate(-32.65 -10.35)"/><path d="m162.45 179.85.7 4h1.3l-.65-4.1-1.35.1" fill="#4d4d4d" fill-rule="evenodd" transform="translate(-32.65 -10.35)"/><path d="m131.45 186.2-8.65-12.95q2.95-3.25 7-3.75m3.05 18.85-1.4-2.15m-.3-16.8h.85l.6 4.05 2.85 18.75-.85-1.3-1.75-2.55m-1.7-18.95-1.35.1" fill="none" stroke="#000" stroke-linecap="round" stroke-linejoin="round" stroke-opacity=".502" stroke-width=".05"/><path d="m131.15 132.25 10.9 6.95.35.35 1.7 4.25-.1.25-11.15-7.2-1.8-4.4.1-.2" fill="#527583" fill-rule="evenodd" transform="translate(-32.65 -10.35)"/><path d="m142.55 139.35 3.4-13.6.3.05 1.8 4.4-3.95 13.6-1.7-4.25.1-.05.05-.15" fill="#b1c6cd" fill-rule="evenodd" transform="translate(-32.65 -10.35)"/><path d="m133.35 117.3.4-.15 12.2 8.5v.1l-3.4 13.6-.5-.15-10.9-6.95-.45-.3 2.65-14.65m6.75 6.3q-2.05-.85-4 0-2 .85-2.8 2.8-.85 2.05-.05 4 .85 2 2.85 2.8 1.95.85 4 .05 1.95-.85 2.8-2.85.85-1.95 0-3.95t-2.8-2.85" fill="url(#x)" fill-rule="evenodd" transform="translate(-32.65 -10.35)"/><path d="m109.65 129.05.2.1" fill="none" stroke="#000" stroke-linecap="round" stroke-linejoin="round" stroke-opacity=".502" stroke-width=".05"/><path d="m109.9 129 3.4-13.6v-.1l-12.2-8.5m10.35 26.65 3.95-13.6-1.8-4.4m-3.85 13.75 1.7 4.25m-.1.25-11.15-7.2-1.8-4.4m11.45 7.05.05-.15m-.15.2-.1-.15-.25-.2M100.7 106.95l-2.65 14.65.45.3 10.9 6.95" fill="none" stroke="#000" stroke-linecap="round" stroke-linejoin="round" stroke-opacity=".353" stroke-width=".05"/><path d="M140.1 123.6q1.95.85 2.8 2.85t0 3.95q-.85 2-2.8 2.85-2.05.8-4-.05-2-.8-2.85-2.8-.8-1.95.05-4 .8-1.95 2.8-2.8 1.95-.85 4 0m-5.7 6.4q.6 1.5 2.15 2.1l3.1.05q1.5-.65 2.15-2.2.6-1.5 0-3.05-.65-1.55-2.15-2.2-1.6-.6-3.1 0-1.5.65-2.15 2.15-.65 1.6 0 3.15" fill="#165594" fill-rule="evenodd" transform="translate(-32.65 -10.35)"/><path d="M134.4 130q-.65-1.55 0-3.15.65-1.5 2.15-2.15 1.5-.6 3.1 0 1.5.65 2.15 2.2.6 1.55 0 3.05-.65 1.55-2.15 2.2l-3.1-.05q-1.55-.6-2.15-2.1" fill="url(#y)" fill-rule="evenodd" transform="translate(-32.65 -10.35)"/><path d="M107.45 113.25q-2.05-.85-4 0-2 .85-2.8 2.8-.85 2.05-.05 4 .85 2 2.85 2.8 1.95.85 4 .05 1.95-.85 2.8-2.85.85-1.95 0-3.95t-2.8-2.85z" fill="none" stroke="#000" stroke-linecap="round" stroke-linejoin="round" stroke-opacity=".502" stroke-width=".05"/><path d="M141.05 128.1q.7-1.35.15-2.6-.5-1.25-1.9-1.7l-3.05.2q-1.5.6-2.2 1.95-.75 1.35-.25 2.6.55 1.25 2 1.7l3-.15q1.55-.65 2.25-2" fill="url(#z)" fill-rule="evenodd" transform="translate(-32.65 -10.35)"/><path d="M135.6 128.8q.2-.55 0-1.05-.2-.55-.75-.8l-1.05.05q-.5.2-.75.7-.15.55.05 1.1l.7.75 1.1.05.7-.8" fill="#fff" fill-opacity=".49" fill-rule="evenodd" transform="translate(-32.65 -10.35)"/><path d="M157.95 171.95q-.95-.4-1.95 0-1 .45-1.45 1.4-.4 1 .05 2 .4 1 1.4 1.4 1 .45 2 0 1-.4 1.4-1.4t0-2q-.45-1-1.45-1.4" fill="url(#A)" fill-rule="evenodd" transform="translate(-32.65 -10.35)"/><path d="M125.3 161.6q-.95-.4-1.95 0-1 .45-1.45 1.4-.4 1 .05 2 .4 1 1.4 1.4 1 .45 2 0 1-.4 1.4-1.4t0-2q-.45-1-1.45-1.4z" fill="none" stroke="#000" stroke-linecap="round" stroke-linejoin="round" stroke-opacity=".314" stroke-width=".05"/><path d="M167.55 171.4q-.95-.75-1.8-.65-.8.05-1.05.85-.3.75.1 1.8.5 1.05 1.35 1.75.9.65 1.7.6.85-.05 1.15-.8.25-.8-.2-1.8-.4-1.1-1.25-1.75" fill="url(#B)" fill-rule="evenodd" transform="translate(-32.65 -10.35)"/><path d="M134.9 161.05q-.95-.75-1.8-.65-.8.05-1.05.85-.3.75.1 1.8.5 1.05 1.35 1.75.9.65 1.7.6.85-.05 1.15-.8.25-.8-.2-1.8-.4-1.1-1.25-1.75z" fill="none" stroke="#000" stroke-linecap="round" stroke-linejoin="round" stroke-opacity=".314" stroke-width=".05"/><path d="M147.5 179.8q-.15 1.1.3 2.15t1.15 1.4l1.4-.2q.65-.6.7-1.65.2-1.1-.25-2.15-.4-1.05-1.2-1.4-.7-.4-1.35.15t-.75 1.7" fill="url(#C)" fill-rule="evenodd" transform="translate(-32.65 -10.35)"/><path d="M114.85 169.45q.1-1.15.75-1.7t1.35-.15q.8.35 1.2 1.4.45 1.05.25 2.15-.05 1.05-.7 1.65l-1.4.2q-.7-.35-1.15-1.4t-.3-2.15z" fill="none" stroke="#000" stroke-linecap="round" stroke-linejoin="round" stroke-opacity=".314" stroke-width=".05"/><path d="M101.2 72.9q3.5-1.35 7.75 2.35 4.35 3.8 7 10.45t2 12.3q-.5 5.75-4 7.1-3.45 1.4-7.8-2.4-4.3-3.75-6.95-10.4t-2.05-12.35q.6-5.65 4.05-7.05" fill="url(#D)" fill-rule="evenodd" transform="translate(-32.65 -10.35)"/><path d="M95.35 49.95q-3.65-9.2-4.5-16.35-.9-7.15 1.5-8.1 2.4-.9 6.6 4.85 4.25 5.85 7.9 15.05 3.65 9.15 4.5 16.3.9 7.2-1.5 8.1-2.4.95-6.6-4.85-4.25-5.85-7.9-15" fill="url(#E)" fill-rule="evenodd" transform="translate(-32.65 -10.35)"/><path d="m65.25 104.25-.05-.15-.25.3.3-.15" fill="#48959d" fill-rule="evenodd" transform="translate(-32.65 -10.35)"/><path d="m70.3 120.25.45-2.95-.25-.05-.05-.15q-3.75-6.05-5.2-12.85l-.3.15-.35 2.8q1.25 7.15 5.45 13.15l.25-.1" fill="#527583" fill-rule="evenodd" transform="translate(-32.65 -10.35)"/><path d="M79.15 105.6q-3.8 8.05-8.3 11.3l-.1.4-.45 2.95q5.05-4.85 8.45-10.95l.4-3.7" fill="#b1c6cd" fill-rule="evenodd" transform="translate(-32.65 -10.35)"/><path d="m70.9 114.55.25-.35h-.2l-.05.35" fill="url(#F)" fill-rule="evenodd" transform="translate(-32.65 -10.35)"/><path d="m70.75 114.5.05-.35h-.2l.15.35" fill="#4a949b" fill-rule="evenodd" transform="translate(-32.65 -10.35)"/><path d="M70.8 114.15 76.3 63q-4.45 23.05-10.25 41 1.55 6.9 4.55 10.15h.2" fill="#62a3ac" fill-rule="evenodd" transform="translate(-32.65 -10.35)"/><path d="M71.15 114.2q3.55-2.55 6.6-8.95-1.9-18.75-1.3-42.2l-5.5 51.15h.2" fill="url(#G)" fill-rule="evenodd" transform="translate(-32.65 -10.35)"/><path d="M76.4 63.05h.05q-.6 23.45 1.3 42.2-3.05 6.4-6.6 8.95l-.25.35-.25 2.45.25-2.45-.15-.05-.15-.35q-3-3.25-4.55-10.15 5.8-17.95 10.25-41l.1.05 1.15-10.15-1.15 10.15m2.75 42.55q-2.35-23.45-1.6-52.7l-.05-.6-.05.55q-5.1 27-12.25 51.25l.05.15q1.45 6.8 5.2 12.85l.4-.2q4.5-3.25 8.3-11.3" fill="url(#H)" fill-rule="evenodd" transform="translate(-32.65 -10.35)"/><path d="M46.5 95.25q-3.8 8.05-8.3 11.3l-.2.3-.15.05-.05-.15q-3.75-6.05-5.2-12.85l-.05-.15m5.1 16.15.45-2.95.1-.4" fill="none" stroke="#000" stroke-linecap="round" stroke-linejoin="round" stroke-opacity=".231" stroke-width=".05"/><path d="m32.3 94.05-.35 2.8Q33.2 104 37.4 110" fill="none" stroke="#000" stroke-linecap="round" stroke-linejoin="round" stroke-opacity=".373" stroke-width=".05"/><path d="m43.75 52.7 1.15-10.15q-.75 29.25 1.6 52.7l-.4 3.7q-3.4 6.1-8.45 10.95m.35-3.25.25-2.45m-5.7-10.45Q39.7 69.5 44.8 42.5l.05-.55.05.6M43.75 52.7l-5.5 51.5m-.25 2.65v-.2" fill="none" stroke="#1b4d7e" stroke-linecap="round" stroke-linejoin="round" stroke-opacity=".573" stroke-width=".05"/><path d="m83.95 113.45.2-.05-.05.35-.15-.3" fill="#48959d" fill-rule="evenodd" transform="translate(-32.65 -10.35)"/><path d="M70.6 117.25q7.1-.75 13.35-3.8l.15.3-2 1.95q-6.5 3.45-13.8 3.85v-.3l1.95-2.1.2.1h.15" fill="#527583" fill-rule="evenodd" transform="translate(-32.65 -10.35)"/><path d="M68.3 119.25q.65-6.95 3.4-13.35l2.7-2.6q-4.1 7.95-3.8 13.45l-.35.4-1.95 2.1" fill="#b1c6cd" fill-rule="evenodd" transform="translate(-32.65 -10.35)"/><path d="m72.65 115.05-.25.25.1-.4.15.15" fill="url(#I)" fill-rule="evenodd" transform="translate(-32.65 -10.35)"/><path d="m72.5 115.4.25-.25.15.15-.4.1" fill="#4a949b" fill-rule="evenodd" transform="translate(-32.65 -10.35)"/><path d="m72.75 115.15 37-35.8Q94.25 97 83.65 112.7q-6.4 2.95-10.75 2.6l-.15-.15" fill="#62a3ac" fill-rule="evenodd" transform="translate(-32.65 -10.35)"/><path d="m109.65 79.25-37 35.8-.15-.15q-.2-4.4 3-10.65 15.95-10.15 34.15-25" fill="url(#J)" fill-rule="evenodd" transform="translate(-32.65 -10.35)"/><path d="m109.75 79.35-.1-.05 7.3-7.1-7.3 7.1v-.05q-18.2 14.85-34.15 25-3.2 6.25-3 10.65l-.1.4.1.1.4-.1q4.35.35 10.75-2.6 10.6-15.7 26.1-33.35m7.2-7.15.45-.35-.4.45q-18.15 20.5-32.85 41.1l-.2.05q-6.25 3.05-13.35 3.8V117l1.8-1.7-1.8 1.7v-.25q-.3-5.5 3.8-13.45 19.9-12.55 42.55-31.1" fill="url(#K)" fill-rule="evenodd" transform="translate(-32.65 -10.35)"/><path d="M37.95 106.9q7.1-.75 13.35-3.8l.2-.05m-13.65 3.75-.05.1h.15m-.35-.1-1.95 2.1m2.3-2.5-.1.4m-.25 0 .35-.4q-.3-5.5 3.8-13.45" fill="none" stroke="#000" stroke-linecap="round" stroke-linejoin="round" stroke-opacity=".231" stroke-width=".05"/><path d="m51.45 103.4-2 1.95q-6.5 3.45-13.8 3.85" fill="none" stroke="#000" stroke-linecap="round" stroke-linejoin="round" stroke-opacity=".373" stroke-width=".05"/><path d="m77 68.95-37.25 36-1.8 1.7-.1.15m13.65-3.75q14.7-20.6 32.85-41.1l.4-.45-.45.35-7.3 7.1M35.65 108.9q.65-6.95 3.4-13.35l2.7-2.6q19.9-12.55 42.55-31.1" fill="none" stroke="#1b4d7e" stroke-linecap="round" stroke-linejoin="round" stroke-opacity=".573" stroke-width=".05"/><path d="M95.8 136.55q1-6.25.8-12.1v.1q-1.3 4.7-3.25 8.6l2.45 3.4m.65-15.25q-.5-6.35-2.4-12.15l-.65 2.6q-.6 2.2.1 4.2l.1 1v.15l-.05 1.65-.35 1.55q-.3 1.2-1 2.3l-.85.85h-.05q-1.5 1.6-2.05 3.85l.1 2.5q.55.25 1 .6.65-.1 2.2 1.7 2.05-3.35 3.2-7.75l.7-3.05" fill="url(#L)" fill-rule="evenodd" transform="translate(-32.65 -10.35)"/><path d="M91.05 109.85q-12 3.3-20.8 10.2l.8 11.6q9.2-4.4 15.15-3.1l.95-1.25q1.55-2.45 3.6-4.45 1.1-1.35 1.55-2.8l.3-1.5v-1.5l-1.55-7.2" fill="url(#M)" fill-rule="evenodd" transform="translate(-32.65 -10.35)"/><path d="m71.05 131.65-.7 1.55q1.35.15 6.05 2.15 4.75 1.85 7.5 6.75 2.85-3 4.5-6 1.6-2.9 1.95-5.7-.45-.35-1-.6-1.4-.9-3.15-1.25-5.95-1.3-15.15 3.1" fill="url(#N)" fill-rule="evenodd" transform="translate(-32.65 -10.35)"/><path d="M88.4 136.1q3.1 1.1 7.4.45l-2.45-3.4-.8-1.05q-1.55-1.8-2.2-1.7-.35 2.8-1.95 5.7" fill="url(#O)" fill-rule="evenodd" transform="translate(-32.65 -10.35)"/><path d="m70.35 133.2-1.3 3.65q12.3 7 14.85 5.25-2.75-4.9-7.5-6.75-4.7-2-6.05-2.15" fill="url(#P)" fill-rule="evenodd" transform="translate(-32.65 -10.35)"/><path d="m94.05 109.15-3 .7 1.55 7.2v1.5l-.3 1.5q-.45 1.45-1.55 2.8-2.05 2-3.6 4.45l-.95 1.25q1.75.35 3.15 1.25l-.1-2.5q.55-2.25 2.05-3.85h.05l.85-.85q.7-1.1 1-2.3l.35-1.55.05-1.65v-.15l-.1-1q-.7-2-.1-4.2l.65-2.6m2.55 15.3-.15-3.15-.7 3.05q-1.15 4.4-3.2 7.75l.8 1.05q1.95-3.9 3.25-8.6v-.1" fill="#fff" fill-rule="evenodd" transform="translate(-32.65 -10.35)"/><path d="m37.6 109.7.8 11.6-.7 1.55-1.3 3.65" fill="none" stroke="#1b4d7e" stroke-linecap="round" stroke-linejoin="round" stroke-opacity=".573" stroke-width=".05"/><path d="M36.4 126.5q12.3 7 14.85 5.25m4.5-6q3.1 1.1 7.4.45" fill="none" stroke="#000" stroke-linecap="round" stroke-linejoin="round" stroke-opacity=".502" stroke-width=".05"/><path d="m61.4 98.8-3 .7q-12 3.3-20.8 10.2m13.65 22.05q2.85-3 4.5-6m7.4.45q1-6.25.8-12.1l-.15-3.15q-.5-6.35-2.4-12.15m-4.7 20.65q-1.4-.9-3.15-1.25-5.95-1.3-15.15 3.1m22.3 1.5-.8-1.05q-1.55-1.8-2.2-1.7-.35 2.8-1.95 5.7m1.95-5.7q-.45-.35-1-.6m-19 3.4q1.35.15 6.05 2.15 4.75 1.85 7.5 6.75m9.45-8.95 2.45 3.4" fill="none" stroke="#61531f" stroke-linecap="round" stroke-linejoin="round" stroke-opacity=".502" stroke-width=".05"/><path d="m70.35 90.55.65-.3-.05.35-.6-.05" fill="#48959d" fill-rule="evenodd" transform="translate(-32.65 -10.35)"/><path d="m70.5 119.55-.5.15q-3.55-12.2-1.65-24.7l2-4.45.6.05q-1.35 11.95 1.45 23.95l.05.3.4.2-2.35 4.5" fill="#527583" fill-rule="evenodd" transform="translate(-32.65 -10.35)"/><path d="m93.05 100.4-2.7 5.95q-8.9 8.15-19.85 13.2l2.35-4.5.35-.7q9.2-2.8 19.85-13.95" fill="#b1c6cd" fill-rule="evenodd" transform="translate(-32.65 -10.35)"/><path d="m74.35 110.45-.05-.7.3.15-.25.55" fill="#4a949b" fill-rule="evenodd" transform="translate(-32.65 -10.35)"/><path d="M71 90.25Q96.1 54.4 119.2 12.9l.5-.8-.35.9q-17.25 47.65-26.3 87.4-10.65 11.15-19.85 13.95l-.8.2q-2.8-12-1.45-23.95l.05-.35m3.6 20.25-1.8 3.95 1.8-3.95v.05l.55-.35-.3-.15-.05-.05-.5-.25.05.7.25.05M112 28.95 74.8 110 112 28.95" fill="url(#Q)" fill-rule="evenodd" transform="translate(-32.65 -10.35)"/><path d="m74.85 110.05.3.15-.55.35.25-.5" fill="url(#R)" fill-rule="evenodd" transform="translate(-32.65 -10.35)"/><path d="m38.35 79.9-.05.35q-1.35 11.95 1.45 23.95l.05.3.2-.1.55-.4q9.2-2.8 19.85-13.95M40.2 104.7l.35-.7m-2.7 5.2 2.35-4.5" fill="none" stroke="#000" stroke-linecap="round" stroke-linejoin="round" stroke-opacity=".231" stroke-width=".05"/><path d="M37.35 109.35q-3.55-12.2-1.65-24.7l2-4.45" fill="none" stroke="#000" stroke-linecap="round" stroke-linejoin="round" stroke-opacity=".373" stroke-width=".05"/><path d="M38.35 79.9q25.1-35.85 48.2-77.35l.5-.8-.35.9Q69.45 50.3 60.4 90.05L57.7 96q-8.9 8.15-19.85 13.2m2.3-5.1 1.8-3.95m-1.8 3.95-.15.3" fill="none" stroke="#1b4d7e" stroke-linecap="round" stroke-linejoin="round" stroke-opacity=".573" stroke-width=".05"/><path d="m42.15 99.65 37.2-81.05m-37.4 81.55.2-.5" fill="none" stroke="#1b4d7e" stroke-linecap="round" stroke-linejoin="round" stroke-opacity=".4" stroke-width=".05"/><path d="m111.8 28.85-36.85 81.9.25.1.25-.55.3.1q7.3-2.25 15.65-11.2 7.05-31.95 20.55-70.25l-.15-.1" fill="url(#S)" fill-rule="evenodd" transform="translate(-32.65 -10.35)"/><path d="M74.75 109.95q-3.1-7-2-19.15 19.2-26.45 38.85-62.05L75.05 110.1l-.3-.15" fill="url(#T)" fill-rule="evenodd" transform="translate(-32.65 -10.35)"/><path d="m49.25 111.35 1.95-1.5q1.35-1.95 1.6-4.1v-1.2q1.05-2.95 3.4-4.75l.8-.6q2-.8 3.3-2.7l1.55-2.15q-5.65 2.35-10.8 6.1l-1.9 2.5q-2.5 3.75-3.65 7.5 2.35 0 2.65.55.55.1 1.1.35m-5.2-.85q1.75-4 4.45-8.05v-.05q-4.45 3.65-8.55 8.5l4.1-.4" fill="url(#U)" fill-rule="evenodd" transform="translate(-32.65 -10.35)"/><path d="M48.15 111q-.3-.55-2.65-.55l-1.45.05-4.1.4q2.3 3.65 5.15 5.3 1.15-3.05 3.05-5.2" fill="url(#V)" fill-rule="evenodd" transform="translate(-32.65 -10.35)"/><path d="M52.2 112.9q-1.35-1.05-2.95-1.55-.55-.25-1.1-.35-1.9 2.15-3.05 5.2-1.25 3.15-1.65 7.35 5.55-1.1 10.05 1.25l5.55 3.2.75-1.5q-2.75-9.9-7.6-13.6" fill="url(#W)" fill-rule="evenodd" transform="translate(-32.65 -10.35)"/><path d="m63.25 97.1-6.4 3.5q-2.6 1.75-3.25 5.2-.2 2.8-1.05 5.65l-.35 1.45q4.85 3.7 7.6 13.6l9.25-7q-.45-11.2-5.8-22.4" fill="url(#X)" fill-rule="evenodd" transform="translate(-32.65 -10.35)"/><path d="m57.05 131.35 2-3.35-5.55-3.2q-4.5-2.35-10.05-1.25.3 3.05 13.6 7.8" fill="url(#Y)" fill-rule="evenodd" transform="translate(-32.65 -10.35)"/><path d="M61.85 94.35 60.3 96.5Q59 98.4 57 99.2l-.8.6q-2.35 1.8-3.4 4.75v1.2q-.25 2.15-1.6 4.1l-1.95 1.5q1.6.5 2.95 1.55l.35-1.45q.85-2.85 1.05-5.65.65-3.45 3.25-5.2l6.4-3.5-1.4-2.75m-16.35 16.1q1.15-3.75 3.65-7.5l1.9-2.5-2.55 1.95v.05q-2.7 4.05-4.45 8.05l1.45-.05" fill="#fff" fill-rule="evenodd" transform="translate(-32.65 -10.35)"/><path d="m26.4 117.65-2 3.35m2-3.35.75-1.5 9.25-7" fill="none" stroke="#1b4d7e" stroke-linecap="round" stroke-linejoin="round" stroke-opacity=".573" stroke-width=".05"/><path d="M24.4 121q-13.3-4.75-13.6-7.8m1.65-7.35q-2.85-1.65-5.15-5.3" fill="none" stroke="#000" stroke-linecap="round" stroke-linejoin="round" stroke-opacity=".502" stroke-width=".05"/><path d="m29.2 84 1.4 2.75m-11.05 15.8Q18.2 101.5 16.6 101q-.55-.25-1.1-.35-.3-.55-2.65-.55l-1.45.05-4.1.4q4.1-4.85 8.55-8.5l2.55-1.95q5.15-3.75 10.8-6.1m7.2 25.15q-.45-11.2-5.8-22.4M10.8 113.2q5.55-1.1 10.05 1.25l5.55 3.2m.75-1.5q-2.75-9.9-7.6-13.6M10.8 113.2q.4-4.2 1.65-7.35 1.15-3.05 3.05-5.2" fill="none" stroke="#61531f" stroke-linecap="round" stroke-linejoin="round" stroke-opacity=".502" stroke-width=".05"/><path d="M71.65 133.65v-.05.05m-11.75 27.1-.15.05.05.25.1-.3" fill="#e7e7d3" fill-rule="evenodd" transform="translate(-32.65 -10.35)"/><path d="m56.1 133.75-.35.45.35-.45m12.55 6.5-.75-.35-.8.35 1.3.55.25-.55m-8.9 20.55v.25h.05l-.05-.25" fill="#fcfbfa" fill-rule="evenodd" transform="translate(-32.65 -10.35)"/><path d="M71.65 133.6q-11.3-5.1-11.85-7.1L59 128q.35.5 2.3 1.4l10.35 4.25v-.05m-3 6.65.75-.9-1.5.55.75.35m-10.8-3.35-.35.2h.5l-.15-.2" fill="#d1d0ad" fill-rule="evenodd" transform="translate(-32.65 -10.35)"/><path d="m42.9 169.6 1.35.25 5.65-.4q2.3-.6 4.7-1.85l-5.4.1q-1.3-1-1.1-3.5l1.35-2.65-2.35-.3-1.55-.2q-1 1.25-2.05 4.15-.95 2.45-.6 4.4m28.75-35.95L61.3 129.4l-2 2-1 3.2q4.4 3.2 9.6 5.3l1.5-.55q2-2.65 2.25-5.7m-3.25 7.15-1.3-.55q-4.65-2-8.65-4.8l1 1.6h.05l1.75 2.75 3.5 5.05 1.2 1.6-.5-1.85 1.95-.75 1-3.05m-5.8 8.05-3.4-2 4.35-1.55-3.7-5.5-1.85-2.7h-.5l.35-.2-.15-.3q-2.2 2.05-3.45 4.45-1.35 2.6-1.25 5.15l.2.1 2.1.7 1.35.4.75.25 5.2 1.2m-5.05 7.05-4.15-4.85q-.25-1.55 1.3-3.1l-2-.6-.7-.2q-1.55 1.5-1.65 3.2l.75.8 1.75 1.55 4.7 3.2m-5.5-2.3-1.8-1.45-.8-.7q-2.85 3.9-3.6 8.35l1.85.45 2.2.3.05.05 6.75.3-6.45-2.05q-.25-1.3.85-3.65l.95-1.6m3.35 17.35-3.95-.7-3.85.3-.6-.1-.45.1.75.45.2.15q2.9 1.05 4.3 4.45l3.6-4.65" fill="#75694f" fill-rule="evenodd" transform="translate(-32.65 -10.35)"/><path d="m57.75 134.15.45.75.1-.3-.55-.45" fill="#bba980" fill-rule="evenodd" transform="translate(-32.65 -10.35)"/><path d="m63.55 145.3-4.35 1.55 3.4 2 1.95.4.95-1.05-1.95-2.9m2.4 1.15.4.5 1.05-3.1-1.95.75.5 1.85M60.8 157.4q3.15-2.55 3.55-6.75l-9.65-2.7q-1.55 1.55-1.3 3.1l4.15 4.85 3.25 1.5m-8.75-3.8-.95 1.6q-1.1 2.35-.85 3.65l6.45 2.05h.45l2.6-.1.15-.05.65-2.15q-4.5-2.1-8.5-5m-2.6 7.95-1.35 2.65q-.2 2.5 1.1 3.5l5.4-.1 2.05-1.2q2-2.35 2.75-4.25l-9.95-.6m6.6 6.15q-2.35 1.85-4.6 2.55l3.95.7.65-3.25" fill="#9e9758" fill-rule="evenodd" transform="translate(-32.65 -10.35)"/><path d="M59 128q-1.35 1.15-1.95 3.35l-.25 1.4.95 1.4.55.45 1-3.2 2-2q-1.95-.9-2.3-1.4m-3.25 6.2q-2.85 4.15-4.2 8.75l-.5 2.05-.1.45 2.05.75q-.1-2.55 1.25-5.15 1.25-2.4 3.45-4.45l-.75-1-1.2-1.4m-5.7 12.4q-.6.85-.8 2.45v.15l1.1 1.15q.1-1.7 1.65-3.2l-1.95-.55m-1.65 3.95q-2.2 3.15-3.85 8.85l1.3.4q.75-4.45 3.6-8.35l-1.05-.9m-4.8 10.15-2.2 2.8-2 7.45 3.5-1.35q-.35-1.95.6-4.4 1.05-2.9 2.05-4.15l-1.95-.35" fill="#464031" fill-rule="evenodd" transform="translate(-32.65 -10.35)"/><path d="m62.6 148.85-5.2-1.2-.75-.25-1.35-.4-.6.95 9.65 2.7.2-1.4-1.95-.4m2.15-4-1.2.45 1.95 2.9.85-1.25-.4-.5-1.2-1.6M60.8 157.4l-3.25-1.5-4.7-3.2-.8.9q4 2.9 8.5 5l.25-1.2m-1.05 3.4-2.6.1h-.45l-6.75-.3-.05-.05-.45 1 9.95.6.35-1.1v-.25m-3.1 5.6-2.05 1.2q-2.4 1.25-4.7 1.85l1.55.8q2.25-.7 4.6-2.55l.6-1.3" fill="#c2bd92" fill-rule="evenodd" transform="translate(-32.65 -10.35)"/><path d="M44.25 169.85q1.2.2 2.3.7l.45-.1.6.1 3.85-.3-1.55-.8-5.65.4M55.3 147l-2.1-.7-.2-.1-1 .95.7.2 2 .6.6-.95m2.4-10.4.15.3.15.2 1.85 2.7 3.7 5.5 1.2-.45-3.5-5.05-1.75-2.75h-.05l-1-1.6-.25-.55-.5 1.7m-5.65 17 .8-.9-1.75-1.55-.75-.8-.9 1.1.8.7 1.8 1.45m-2.15 6.95-2.2-.3-1.85-.45-.3 1.25 1.55.2 2.35.3.45-1" fill="#a49c5b" fill-rule="evenodd" transform="translate(-32.65 -10.35)"/><path d="m56.8 132.75-.55.75-.15.25-.35.45 1.2 1.4.75 1 .5-1.7.25.55q4 2.8 8.65 4.8l.8-.35q-5.2-2.1-9.6-5.3l-.1.3-.45-.75-.95-1.4m-5.85 12.7-.25.35-.1.05-.55.75 1.95.55 1-.95-2.05-.75m-1.7 3.75-.85 1.35 1.05.9.9-1.1-1.1-1.15m-4.7 10.2-.95 1.3 1.95.35.3-1.25-1.3-.4" fill="#787243" fill-rule="evenodd" transform="translate(-32.65 -10.35)"/><path d="m39 123.25.2.1-.2-.05-10.35-4.25q-1.95-.9-2.3-1.4Q25 118.8 24.4 121l-.25 1.4-.55.75-.15.25-.35.45q-2.85 4.15-4.2 8.75l-.5 2.05-.1.45-.25.35-.1.05-.55.75q-.6.85-.8 2.45v.15l-.85 1.35q-2.2 3.15-3.85 8.85l-.95 1.3-2.2 2.8-2 7.45 3.5-1.35 1.35.25q1.2.2 2.3.7l-2.55-.15M39 123.25q-11.3-5.1-11.85-7.1l-.8 1.5M36 129.9l.75-.9q2-2.65 2.25-5.7m-2.65 6.8-.35-.2-.75-.35q-5.2-2.1-9.6-5.3l1-3.2 2-2M36 129.9l-.25.55m-5.8 8.05-5.2-1.2-.75-.25-1.35-.4-2.1-.7-.2-.1-2.05-.75m8.9-5.65 3.7 5.5m1.2-.45 1.2 1.6.4.5-.85 1.25-.95 1.05-1.95-.4m-4.15-13.4 1 1.6h.05l1.75 2.75 3.5 5.05m2.65-1-1.05 3.1m-2 3.7q-.4 4.2-3.55 6.75l-3.25-1.5m6.8-5.25.2-1.4m2.85-5.4 1-3.05m-12.65-6.6.35-.45m2.2.85-.1.3-.45-.75.55.45m-.1.3.25.55m-1.65-2.7.95 1.4M17.7 140l.75.8 1.75 1.55 4.7 3.2m-11.7 3.9-1.3-.4m4.7-10.2 1.1 1.15m10.2 8.25-.65 2.15-.15.05-2.6.1h-.45l-6.75-.3-.05-.05-2.2-.3-1.85-.45m13.55 2.35q-.75 1.9-2.75 4.25l-2.05 1.2q-2.4 1.25-4.7 1.85l-5.65.4m15.55-8.8h-.05l-.35 1.1m.5-1.4-.1.3M24 156.05l-.6 1.3-.65 3.25-3.6 4.65q-1.4-3.4-4.3-4.45l-.2-.15-.75-.45m14.25-13.15-.25 1.2" fill="none" stroke="#343118" stroke-linecap="round" stroke-linejoin="round" stroke-opacity=".502" stroke-width=".05"/><path d="M33.5 176.05q-.25 5.15 7.35 8.4 6.65 2.9 10.95.15-2.2-4.55-7.95-7.35-2.65-1.3-5.05-1.65-2.85-.4-5.3.45" fill="#527583" fill-rule="evenodd" transform="translate(-32.65 -10.35)"/><path d="M42.35 168.4q-2.55-.1-5.7.85-3.55 3.1-3.15 6.8 2.45-.85 5.3-.45l-.6-1.45 2.6-4.5 1.55-1.25" fill="#46696c" fill-rule="evenodd" transform="translate(-32.65 -10.35)"/><path d="M51.8 184.6q2.45-2.7 3.05-6.55-1.6-4.95-6.7-7.7-2.4-1.85-5.8-1.95l-1.55 1.25-2.6 4.5.6 1.45q2.4.35 5.05 1.65 5.75 2.8 7.95 7.35" fill="url(#Z)" fill-rule="evenodd" transform="translate(-32.65 -10.35)"/><path d="M19.15 174.25q2.45-2.7 3.05-6.55-1.6-4.95-6.7-7.7-2.4-1.85-5.8-1.95-2.55-.1-5.7.85-3.55 3.1-3.15 6.8-.25 5.15 7.35 8.4 6.65 2.9 10.95.15-2.2-4.55-7.95-7.35-2.65-1.3-5.05-1.65m-5.3.45q2.45-.85 5.3-.45" fill="none" stroke="#000" stroke-linecap="round" stroke-linejoin="round" stroke-opacity=".314" stroke-width=".05"/><path d="m34.35 193.85 3.9-10.6q2.2-.35 3.9.5l.8.75 2.5-3.25q-3.15-2.6-7.5-2.6l-3.6 15.2m12.1-11.65-2.55 3.25.55.55 2.55-3.2-.55-.6" fill-rule="evenodd" transform="translate(-32.65 -10.35)"/><path d="m44.45 186-.55-.55-10.85 13.9-.4 1.5L44.45 186" fill="#3c3c3c" fill-rule="evenodd" transform="translate(-32.65 -10.35)"/><path d="m42.95 184.5-9.2 11.85-.7 3 10.85-13.9-.95-.95" fill="#737373" fill-rule="evenodd" transform="translate(-32.65 -10.35)"/><path d="m42.95 184.5-.8-.75q-1.7-.85-3.9-.5l-3.9 10.6-.6 2.5 9.2-11.85" fill="url(#aa)" fill-rule="evenodd" transform="translate(-32.65 -10.35)"/><path d="m45.45 181.25-2.5 3.25.95.95 2.55-3.25-1-.95" fill="#4d4d4d" fill-rule="evenodd" transform="translate(-32.65 -10.35)"/><path d="m1.7 183.5 3.6-15.2q4.35 0 7.5 2.6M1.1 186l.6-2.5m12.1-11.65-1-.95m1 .95.55.6-2.55 3.2L0 190.5l.4-1.5.7-3" fill="none" stroke="#000" stroke-linecap="round" stroke-linejoin="round" stroke-opacity=".502" stroke-width=".05"/><path d="m58.9 125.9-.2.05-1.95 4.3 2.3 13.05.3-.05 1.9-4.15v-.45L58.9 125.9" fill="#527583" fill-rule="evenodd" transform="translate(-32.65 -10.35)"/><path d="m59.35 143.25 12.6-6.4 2-4.3-.2-.25-12.3 6.75-.1.1-.1-.05-1.9 4.15" fill="#b1c6cd" fill-rule="evenodd" transform="translate(-32.65 -10.35)"/><path d="m71.85 117.55-.45-.2-12.55 8.05.05.5 2.35 12.75.2.4 12.3-6.75h.1l-2-14.75m-3.2 6.1q1.95.9 2.75 2.9.7 2.1-.2 4.05t-2.9 2.65l-4-.15q-1.95-.9-2.7-2.9t.15-3.95 2.95-2.75l3.95.15" fill="url(#ab)" fill-rule="evenodd" transform="translate(-32.65 -10.35)"/><path d="M70.15 130.1q.7-1.55.15-3.1-.65-1.55-2.15-2.25l-3-.1q-1.6.55-2.3 2.1-.7 1.5-.1 3.05.55 1.5 2.05 2.2l3.1.15q1.55-.55 2.25-2.05" fill="url(#ac)" fill-rule="evenodd" transform="translate(-32.65 -10.35)"/><path d="m68.65 123.65-3.95-.15q-2.05.8-2.95 2.75t-.15 3.95 2.7 2.9l4 .15q2-.7 2.9-2.65t.2-4.05q-.8-2-2.75-2.9m1.5 6.45q-.7 1.5-2.25 2.05l-3.1-.15q-1.5-.7-2.05-2.2-.6-1.55.1-3.05.7-1.55 2.3-2.1l3 .1q1.5.7 2.15 2.25.55 1.55-.15 3.1" fill="#165594" fill-rule="evenodd" transform="translate(-32.65 -10.35)"/><path d="m36 113.3-3.95-.15q-2.05.8-2.95 2.75t-.15 3.95 2.7 2.9l4 .15q2-.7 2.9-2.65t.2-4.05q-.8-2-2.75-2.9m-7.3 15.3v.2" fill="none" stroke="#000" stroke-linecap="round" stroke-linejoin="round" stroke-opacity=".502" stroke-width=".05"/><path d="m26.05 115.6-1.95 4.3 2.3 13.05m.3-.05 12.6-6.4 2-4.3m-.2-.25h.1l-2-14.75m-10.6 21.55-1.9 4.15m1.9-4.15.1-.15-.1-.3m.2.4-.1.1m.1-.1 12.3-6.75M38.75 107l-12.55 8.05.05.5m2.35 12.75-2.35-12.75" fill="none" stroke="#000" stroke-linecap="round" stroke-linejoin="round" stroke-opacity=".353" stroke-width=".05"/><path d="m65.85 126.5.75-.75.05-1.05-.75-.8-1.05-.05q-.55.25-.75.75-.25.5-.05 1.05.15.55.7.8l1.1.05" fill="#fff" fill-opacity=".49" fill-rule="evenodd" transform="translate(-32.65 -10.35)"/><path d="M68.75 130.35q1.45-.4 2-1.6.6-1.25-.05-2.65-.7-1.35-2.2-2.05t-2.95-.3q-1.5.4-2.1 1.65-.55 1.2.15 2.6.6 1.35 2.1 2.05l3.05.3" fill="url(#ad)" fill-rule="evenodd" transform="translate(-32.65 -10.35)"/><path d="M48.1 172.6q-.35-1.05-1.35-1.5l-2-.05q-1 .3-1.45 1.3t-.1 2.05q.4 1 1.4 1.45l1.95.1q1.05-.4 1.5-1.4t.05-1.95" fill="url(#ae)" fill-rule="evenodd" transform="translate(-32.65 -10.35)"/><path d="M15.45 162.25q-.35-1.05-1.35-1.5l-2-.05q-1 .3-1.45 1.3t-.1 2.05q.4 1 1.4 1.45l1.95.1q1.05-.4 1.5-1.4t.05-1.95z" fill="none" stroke="#000" stroke-linecap="round" stroke-linejoin="round" stroke-opacity=".314" stroke-width=".05"/><path d="M55.05 179.15q-.05-1.15-.7-1.7-.6-.55-1.35-.25-.75.35-1.25 1.3-.45 1.1-.35 2.2t.65 1.65q.65.6 1.4.3l1.25-1.35q.45-1.1.35-2.15" fill="url(#af)" fill-rule="evenodd" transform="translate(-32.65 -10.35)"/><path d="M22.4 168.8q-.05-1.15-.7-1.7-.6-.55-1.35-.25-.75.35-1.25 1.3-.45 1.1-.35 2.2t.65 1.65q.65.6 1.4.3l1.25-1.35q.45-1.1.35-2.15z" fill="none" stroke="#000" stroke-linecap="round" stroke-linejoin="round" stroke-opacity=".314" stroke-width=".05"/><path d="M35.3 170.15q-.9.6-1.35 1.65-.5 1.05-.25 1.8.25.8 1.1.9t1.75-.6q.9-.65 1.35-1.65.5-1 .25-1.8t-1.05-.9q-.85-.05-1.8.6" fill="url(#ag)" fill-rule="evenodd" transform="translate(-32.65 -10.35)"/><path d="M2.65 159.8q.95-.65 1.8-.6.8.1 1.05.9t-.25 1.8q-.45 1-1.35 1.65-.9.7-1.75.6t-1.1-.9q-.25-.75.25-1.8.45-1.05 1.35-1.65z" fill="none" stroke="#000" stroke-linecap="round" stroke-linejoin="round" stroke-opacity=".314" stroke-width=".05"/><path d="M82.2 63.55q3.35 1.65 3.6 7.3.15 5.75-2.95 12.2t-7.6 9.9q-4.6 3.45-7.95 1.8-3.35-1.6-3.55-7.3t2.9-12.15 7.65-9.95q4.55-3.4 7.9-1.8" fill="url(#ah)" fill-rule="evenodd" transform="translate(-32.65 -10.35)"/><path d="M95.1 43.7q4.25-8.9 8.9-14.4 4.65-5.55 7-4.4 2.25 1.05.9 8.15-1.45 7.1-5.7 16t-8.85 14.4q-4.7 5.5-6.95 4.45-2.35-1.15-.95-8.2 1.4-7.1 5.65-16" fill="url(#ai)" fill-rule="evenodd" transform="translate(-32.65 -10.35)"/><path d="M102.4 106.95q.2 5.75-2.9 12.2-3.1 6.5-7.65 9.95-4.55 3.4-7.95 1.8-3.35-1.6-3.5-7.35-.2-5.7 2.9-12.1 3.1-6.5 7.65-9.95t7.95-1.8q3.35 1.55 3.5 7.25" fill="url(#aj)" fill-rule="evenodd" transform="translate(-32.65 -10.35)"/></g></defs></svg>