<svg viewBox="0 0 217.82 190.19" xmlns="http://www.w3.org/2000/svg" xmlns:xlink="http://www.w3.org/1999/xlink"><g transform="translate(-17.982 -11.386)"><use transform="translate(37.95 35.75)" width="157.85" height="165.8" xlink:href="#a"/><use transform="matrix(.1806 .2123 -.5595 .4759 182.81 26.694)" width="160" height="160" xlink:href="#b"/><use transform="matrix(.2176 .2558 -.5595 .4759 199.03 32.816)" width="69.35" height="56.95" xlink:href="#c"/><use transform="matrix(.4716 .5545 -1.2128 1.0315 156.11 40.838)" width="69.35" height="56.95" xlink:href="#c"/><use transform="matrix(.282 .3316 -.7251 .6167 140.24 59.212)" width="69.35" height="56.95" xlink:href="#c"/><use transform="matrix(.2402 .2824 -.6177 .5254 177.95 30.739)" width="69.35" height="56.95" xlink:href="#c"/><use transform="matrix(.2402 .2824 -.6177 .5254 137.75 77.639)" width="69.35" height="56.95" xlink:href="#c"/><use transform="translate(18 15.1)" width="206.85" height="156.15" xlink:href="#d"/><use transform="matrix(.1222 .2835 -.7471 .322 213.94 1.41)" width="160" height="160" xlink:href="#b"/><use transform="matrix(.1472 .3416 -.7471 .322 229.09 13.002)" width="69.35" height="56.95" xlink:href="#c"/><use transform="matrix(.3191 .7404 -1.6193 .698 181.07 7.654)" width="69.35" height="56.95" xlink:href="#c"/><use transform="matrix(.1908 .4427 -.9682 .4173 158.27 21.977)" width="69.35" height="56.95" xlink:href="#c"/><use transform="matrix(.1625 .3771 -.8248 .3555 207.53 4.196)" width="69.35" height="56.95" xlink:href="#c"/><use transform="matrix(.1625 .3771 -.8248 .3555 149.83 40.746)" width="69.35" height="56.95" xlink:href="#c"/><use transform="translate(50.5 61)" width="72.65" height="58.25" xlink:href="#e"/></g><defs><linearGradient id="f" x1="-819.2" x2="819.2" gradientTransform="matrix(-.0303 .0288 -.0361 -.0379 131.3 120.95)" gradientUnits="userSpaceOnUse"><stop stop-color="#c9d8ca" offset=".004"/><stop stop-color="#fafcfa" offset="1"/></linearGradient><linearGradient id="g" x1="-819.2" x2="819.2" gradientTransform="matrix(-.0391 .0341 -.0346 -.0395 116.2 110.9)" gradientUnits="userSpaceOnUse"><stop stop-color="#c9d8ca" offset=".004"/><stop stop-color="#fafcfa" offset="1"/></linearGradient><linearGradient id="h" x1="-819.2" x2="819.2" gradientTransform="matrix(.0075 .0069 -.0037 .004 89.5 145.6)" gradientUnits="userSpaceOnUse"><stop stop-color="#c5dcc5" offset="0"/><stop stop-color="#779a76" offset="1"/></linearGradient><linearGradient id="i" x1="-819.2" x2="819.2" gradientTransform="matrix(.0026 -.0074 -.0075 -.0028 55.95 187.8)" gradientUnits="userSpaceOnUse"><stop stop-color="#acecc6" offset="0"/><stop stop-color="#276947" offset="1"/></linearGradient><linearGradient id="j" x1="-819.2" x2="819.2" gradientTransform="matrix(-.0022 .0062 .0052 .002 56.75 185.6)" gradientUnits="userSpaceOnUse"><stop stop-color="#fff" stop-opacity=".8" offset="0"/><stop stop-color="#44e31c" stop-opacity="0" offset="1"/></linearGradient><linearGradient id="k" x1="-819.2" x2="819.2" gradientTransform="matrix(.0185 .017 -.0121 .0131 63.2 139.5)" gradientUnits="userSpaceOnUse"><stop stop-color="#ccc" offset="0"/><stop stop-color="#484848" offset="1"/></linearGradient><linearGradient id="l" x1="-819.2" x2="819.2" gradientTransform="matrix(.0017 -.0045 -.0045 -.0017 153.7 82.6)" gradientUnits="userSpaceOnUse"><stop stop-color="#acecc6" offset="0"/><stop stop-color="#276947" offset="1"/></linearGradient><linearGradient id="m" x1="-819.2" x2="819.2" gradientTransform="matrix(-.0014 .0038 .0032 .0012 154.05 81.3)" gradientUnits="userSpaceOnUse"><stop stop-color="#fff" stop-opacity=".8" offset="0"/><stop stop-color="#44e31c" stop-opacity="0" offset="1"/></linearGradient><linearGradient id="n" x1="-819.2" x2="819.2" gradientTransform="matrix(.0279 -.0311 .039 .0349 166 55.6)" gradientUnits="userSpaceOnUse"><stop stop-color="#c9d8ca" offset=".004"/><stop stop-color="#fafcfa" offset="1"/></linearGradient><linearGradient id="o" x1="-819.2" x2="819.2" gradientTransform="rotate(42.537 -191.944 172.405) scale(.0019)" gradientUnits="userSpaceOnUse"><stop stop-color="#729672" offset=".004"/><stop stop-color="#396039" offset="1"/></linearGradient><linearGradient id="p" x1="-819.2" x2="819.2" gradientTransform="rotate(42.537 -155.795 186.783) scale(.0019)" gradientUnits="userSpaceOnUse"><stop stop-color="#c9d8ca" offset=".004"/><stop stop-color="#fafcfa" offset="1"/></linearGradient><linearGradient id="q" x1="-819.2" x2="819.2" gradientTransform="rotate(42.537 -155.795 186.783) scale(.0019)" gradientUnits="userSpaceOnUse"><stop stop-color="#729672" offset=".004"/><stop stop-color="#afcfaf" offset="1"/></linearGradient><linearGradient id="w" x1="-819.2" x2="819.2" gradientTransform="rotate(42.537 -179.746 177.14) scale(.0019)" gradientUnits="userSpaceOnUse"><stop stop-color="#729672" offset=".004"/><stop stop-color="#396039" offset="1"/></linearGradient><linearGradient id="x" x1="-819.2" x2="819.2" gradientTransform="rotate(42.537 -167.484 181.852) scale(.0019)" gradientUnits="userSpaceOnUse"><stop stop-color="#729672" offset=".004"/><stop stop-color="#396039" offset="1"/></linearGradient><linearGradient id="y" x1="-819.2" x2="819.2" gradientTransform="matrix(-.0414 .0207 -.0259 -.0519 128.75 84.45)" gradientUnits="userSpaceOnUse"><stop stop-color="#c9d8ca" offset=".004"/><stop stop-color="#fafcfa" offset="1"/></linearGradient><linearGradient id="z" x1="-819.2" x2="819.2" gradientTransform="matrix(-.0525 .0235 -.0237 -.0531 116.1 68.9)" gradientUnits="userSpaceOnUse"><stop stop-color="#c9d8ca" offset=".004"/><stop stop-color="#fafcfa" offset="1"/></linearGradient><linearGradient id="A" x1="-819.2" x2="819.2" gradientTransform="matrix(.0057 .0097 -.0052 .0031 76.5 96.95)" gradientUnits="userSpaceOnUse"><stop stop-color="#c5dcc5" offset="0"/><stop stop-color="#779a76" offset="1"/></linearGradient><linearGradient id="B" x1="-819.2" x2="819.2" gradientTransform="matrix(.0051 -.007 -.007 -.0054 27.25 130.8)" gradientUnits="userSpaceOnUse"><stop stop-color="#acecc6" offset="0"/><stop stop-color="#276947" offset="1"/></linearGradient><linearGradient id="C" x1="-819.2" x2="819.2" gradientTransform="matrix(-.0043 .0059 .0049 .0038 28.75 128.7)" gradientUnits="userSpaceOnUse"><stop stop-color="#fff" stop-opacity=".8" offset="0"/><stop stop-color="#44e31c" stop-opacity="0" offset="1"/></linearGradient><linearGradient id="D" x1="-819.2" x2="819.2" gradientTransform="matrix(.0141 .0241 -.017 .01 50.6 81.9)" gradientUnits="userSpaceOnUse"><stop stop-color="#ccc" offset="0"/><stop stop-color="#484848" offset="1"/></linearGradient><linearGradient id="E" x1="-819.2" x2="819.2" gradientTransform="matrix(.0032 -.0043 -.0043 -.0032 164.9 51.15)" gradientUnits="userSpaceOnUse"><stop stop-color="#acecc6" offset="0"/><stop stop-color="#276947" offset="1"/></linearGradient><linearGradient id="F" x1="-819.2" x2="819.2" gradientTransform="matrix(-.0027 .0036 .003 .0023 165.85 49.95)" gradientUnits="userSpaceOnUse"><stop stop-color="#fff" stop-opacity=".8" offset="0"/><stop stop-color="#44e31c" stop-opacity="0" offset="1"/></linearGradient><linearGradient id="G" x1="-819.2" x2="819.2" gradientTransform="matrix(.0396 -.0238 .03 .0497 186.85 26.45)" gradientUnits="userSpaceOnUse"><stop stop-color="#c9d8ca" offset=".004"/><stop stop-color="#fafcfa" offset="1"/></linearGradient><linearGradient id="H" x1="-819.2" x2="819.2" gradientTransform="rotate(60 -84.837 98.963) scale(.0022)" gradientUnits="userSpaceOnUse"><stop stop-color="#729672" offset=".004"/><stop stop-color="#396039" offset="1"/></linearGradient><linearGradient id="I" x1="-819.2" x2="819.2" gradientTransform="rotate(60 -57.341 114.656) scale(.0022)" gradientUnits="userSpaceOnUse"><stop stop-color="#c9d8ca" offset=".004"/><stop stop-color="#fafcfa" offset="1"/></linearGradient><linearGradient id="J" x1="-819.2" x2="819.2" gradientTransform="rotate(60 -57.341 114.656) scale(.0022)" gradientUnits="userSpaceOnUse"><stop stop-color="#729672" offset=".004"/><stop stop-color="#afcfaf" offset="1"/></linearGradient><linearGradient id="L" x1="-819.2" x2="819.2" gradientTransform="rotate(60 -75.596 104.324) scale(.0022)" gradientUnits="userSpaceOnUse"><stop stop-color="#729672" offset=".004"/><stop stop-color="#396039" offset="1"/></linearGradient><linearGradient id="M" x1="-819.2" x2="819.2" gradientTransform="rotate(60 -66.084 109.354) scale(.0022)" gradientUnits="userSpaceOnUse"><stop stop-color="#729672" offset=".004"/><stop stop-color="#396039" offset="1"/></linearGradient><g id="a"><path d="m106.45 124 .05-.05.35.8.8.85-.15.1-.65-.95-.4-.75" fill="#bfd0c0" fill-rule="evenodd" transform="translate(-37.95 -35.75)"/><path d="M158.7 90.5q-2.85-.2-5.15-1-5.15-1.7-7.15-6.55-.9-2.15-1.15-4.85 3.8 6.05 9.5 10l3.95 2.4" fill="#e8eee8" fill-rule="evenodd" transform="translate(-37.95 -35.75)"/><path d="M110.7 140.9h-.05l-1.65-1.05 1.7 1.05m-5.25-16.1 1-.8.4.75-1.4.05" fill="#bacdbf" fill-rule="evenodd" transform="translate(-37.95 -35.75)"/><path d="M118.15 120.7q-.1 1.55-2.1 5.9-2.35 4.9-7.05 13.25l-.05.05-4.7 8.25-.45.7-1.85-.4q-2.75-.6-5.6-1.85 15.85-14.4 21.8-25.9" fill="#0e2520" fill-rule="evenodd" transform="translate(-37.95 -35.75)"/><path d="M107.65 125.6q7.55-5.2 10.45-5.45l.05.55q-5.95 11.5-21.8 25.9l-.15-.05-.55-.3-.6-.2-.4-.25-.4-.7q-1.65-2.75-2.45-6.25l-.15-1.05q5.25-4.35 9.6-7.55l6.25-4.55.15-.1" fill="#1c4a41" fill-rule="evenodd" transform="translate(-37.95 -35.75)"/><path d="m110.65 140.9-4.6 8.2v.05l-.15-.05-2.1-.25.45-.7 4.7-8.25 1.7 1m-19.4-5.8 8.95-6.2 5.25-4.1 1.4-.05.65.95-6.25 4.55q-4.35 3.2-9.6 7.55l-.4-2.6v-.1" fill="#8eac94" fill-rule="evenodd" transform="translate(-37.95 -35.75)"/><path d="m96.2 146.55.15.05q2.85 1.25 5.6 1.85-.45 3.1-2.5 6.45l-1.9-.35-2.95-.55q1.55.35 3-.45l1.1-2.3q.1-.95-.55-1.4l-3-.5-.55-.35 1.6-2.45m-1.15-.5.6.2-1.7 2.2-1-.8 2.1-1.6m-5.4-6.5 1.9-.7h.25q.8 3.5 2.45 6.25l-1.9 1.9-.55-.6q-2.5-3.7-2.15-6.85m.85 20.75q.7-1.35.2-2.15l-.85-.25-1.95-1.45q-1.3-1.35-2.25-2.9 1.25-.9 2.95-1.05-.65 3.3 2.1 4l1.4.4q1.15.45.65 1.05l-2.25 2.35" fill="#648269" fill-rule="evenodd" transform="translate(-37.95 -35.75)"/><path d="m95.65 146.25.55.3-1.6 2.45-.65-.55 1.7-2.2m-1.4-1.15.4.7.4.25-2.1 1.6-.6-.65 1.9-1.9" fill="#8da58f" fill-rule="evenodd" transform="translate(-37.95 -35.75)"/><path d="m93.95 148.45.65.55-3.1 3.75-1.15-.65 3.6-3.65m-4.9 2.65q-.8-.9-1.45-2 2.25.05 4.75-2.1l.6.65q-2.65 1.75-3.9 3.45" fill="#c6d2c7" fill-rule="evenodd" transform="translate(-37.95 -35.75)"/><path d="m153.55 89.5-9.4 9q-1.75 1.05-3.45 2.15l-2 3.3q-12.4 12.6-19.15 22.2l-1.85 1.3.3.8-2.45 4-4.85 8.65-1.7-1.05q4.7-8.35 7.05-13.25 2-4.35 2.1-5.9l-.05-.55q-2.9.25-10.45 5.45l-.8-.85-.35-.8q6.15-4.9 12-10.3l2.9-2.5 2.75.85-2.35-1.5 1.85-1.8 1.75.85-.85-1.75q9.3-9.3 18.05-20v-.05l.8.45-.45-.85.8-1 .95 1.55-.1-2.6 1.8-2.35q2 4.85 7.15 6.55" fill="#98b498" fill-rule="evenodd" transform="translate(-37.95 -35.75)"/><path d="M153.55 89.5q2.3.8 5.15 1-14.3 8.65-28.1 30.2l-1.2-.95.5 2.1-3.2 5.2-3.15 3-1.25 4.9q-6.5 12.1-12.9 27.2-1-7.45-3.45-13h.1v-.05l4.6-8.2h.05l4.85-8.65 2.45-4-.3-.8 1.85-1.3q6.75-9.6 19.15-22.2l2-3.3q1.7-1.1 3.45-2.15l9.4-9" fill="url(#f)" fill-rule="evenodd" transform="translate(-37.95 -35.75)"/><path d="m146.4 82.95-1.8 2.35.1 2.6-.95-1.55-.8 1 .45.85-.8-.45v.05q-8.75 10.7-18.05 20l.85 1.75-1.75-.85-1.85 1.8 2.35 1.5-2.75-.85-2.9 2.5q-5.85 5.4-12 10.3l-.05.05-1 .8-5.25 4.1-8.95 6.2h-.1q-5.8-2.1-13.3-2 8.6-4.8 16.1-9.35l.2-.1 3.55-.15-1.6-1.05q42.55-26.2 49.1-44.4l.05.05q.25 2.7 1.15 4.85" fill="url(#g)" fill-rule="evenodd" transform="translate(-37.95 -35.75)"/><path d="m94.6 154-.2-.05-2.9-1.2 3.1-3.75.55.35 3 .5q.65.45.55 1.4l-1.1 2.3q-1.45.8-3 .45m-4.25-1.9-.95-.65-.35-.35q1.25-1.7 3.9-3.45l1 .8-3.6 3.65m-2.75-3q-.65-1.15-1.15-2.45l-.1-.4-.45-1.5q-.3-1.25-.45-2.7l1.35-.9q1.5-1 2.85-1.6-.35 3.15 2.15 6.85l.55.6q-2.5 2.15-4.75 2.1" fill="url(#h)" fill-rule="evenodd" transform="translate(-37.95 -35.75)"/><path d="M120.75 54.75q-2.85-.2-5.15-1-5.15-1.7-7.15-6.55-.9-2.15-1.15-4.85 3.8 6.05 9.5 10l3.95 2.4h.05-.05m-52.65 58.6v.05m-.1 0q2.45 5.55 3.45 13 6.4-15.1 12.9-27.2l1.25-4.9 3.15-3 3.2-5.2-.5-2.1 1.2.95q13.8-21.55 28.1-30.2m-13.5-12.45q-6.55 18.2-49.1 44.4l1.6 1.05-3.55.15-.2.1q-7.5 4.55-16.1 9.35 7.5-.1 13.3 2m14.3-10.3 1-.8m1.2 1.6q7.55-5.2 10.45-5.45l.05.55q-.1 1.55-2.1 5.9-2.35 4.9-7.05 13.25l-.05.05m36.3-61.8-.05-.15v.1m-37.7 47.65.15-.1m-12 20.65.55.3.15.05q2.85 1.25 5.6 1.85-.45 3.1-2.5 6.45l-1.9-.35-2.95-.55-.2-.05m-.15-8.85.4.7.4.25.6.2-1.7 2.2m8 0 1.85.4.45-.7 4.7-8.25m-22.5 6.75-.1-.4-.45-1.5q-.3-1.25-.45-2.7l1.35-.9q1.5-1 2.85-1.6l1.9-.7m.25 0-.15-1.05-.4-2.6-.1-.1M68 113.4l-.05-.05-2.1-.25m2.1.25.15.05m1.45-23.45L63.3 94.5q-4.35 3.2-9.6 7.55m-.4-2.7v.1m-.05-.05.05-.05m-13.75-1.7.35-.3m31.55 29.05-.25.4m-14.9-17.45q-1.65-2.75-2.45-6.25" fill="none" stroke="#1d382b" stroke-linecap="round" stroke-linejoin="round" stroke-opacity=".431" stroke-width=".05"/><path d="m153.55 89.5-9.4 9q-1.75 1.05-3.45 2.15l-2 3.3q-12.4 12.6-19.15 22.2l-1.85 1.3.3.8-2.45 4-4.85 8.65h-.05l-4.6 8.2m.45-25.15q6.15-4.9 12-10.3l2.9-2.5 2.75.85-2.35-1.5 1.85-1.8 1.75.85-.85-1.75q9.3-9.3 18.05-20v-.05l.8.45-.45-.85.8-1 .95 1.55-.1-2.6 1.8-2.35M91.25 135.1l8.95-6.2 5.25-4.1m1-.8.05-.05m-.05.05.4.75-1.4.05" fill="none" stroke="#2c3a37" stroke-linecap="round" stroke-linejoin="round" stroke-opacity=".243" transform="translate(-37.95 -35.75)"/><path d="m52.55 124.55 2.25-2.35q.5-.6-.65-1.05M28.9 147.7l.8-.9" fill="none" stroke="#353520" stroke-linecap="round" stroke-linejoin="round" stroke-opacity=".69" stroke-width=".05"/><path d="M63.55 184.35q1.5 3.15.35 6.4-1.1 3.2-4.25 4.6-3.15 1.5-6.45.25-3.3-1.3-4.8-4.5-1.55-3.2-.4-6.4 1.1-3.2 4.3-4.65 3.1-1.4 6.4-.15t4.85 4.45m-5.45-2.65-4.95.2q-2.45 1.05-3.35 3.55-.85 2.4.35 4.9 1.1 2.45 3.65 3.4t5-.1q2.4-1.15 3.25-3.55.9-2.55-.25-4.95-1.2-2.5-3.7-3.45" fill="#2b805e" fill-rule="evenodd" transform="translate(-37.95 -35.75)"/><path d="M58.1 181.7q2.5.95 3.7 3.45 1.15 2.4.25 4.95-.85 2.4-3.25 3.55-2.45 1.05-5 .1t-3.65-3.4q-1.2-2.5-.35-4.9.9-2.5 3.35-3.55l4.95-.2" fill="url(#i)" fill-rule="evenodd" transform="translate(-37.95 -35.75)"/><path d="M25.6 148.6q-1.55-3.2-4.85-4.45t-6.4.15q-3.2 1.45-4.3 4.65-1.15 3.2.4 6.4 1.5 3.2 4.8 4.5 3.3 1.25 6.45-.25 3.15-1.4 4.25-4.6 1.15-3.25-.35-6.4z" fill="none" stroke="#000" stroke-linecap="round" stroke-linejoin="round" stroke-opacity=".502" stroke-width=".05"/><path d="M59.9 190.65q-2.35.8-4.95-.1-2.5-1-3.65-3.15-1.4-2.15-.6-4.15.65-2.05 3-2.85l4.8.2q2.5.9 3.85 3.05 1.25 2.2.55 4.2t-3 2.8" fill="url(#j)" fill-rule="evenodd" transform="translate(-37.95 -35.75)"/><path d="M52.6 185.55q.85-.4 1.1-1.25.3-.85-.05-1.75-.45-.8-1.3-1.1l-1.7-.05q-.85.45-1.15 1.3-.25.85.1 1.7.4.8 1.3 1.2l1.7-.05" fill="#fff" fill-opacity=".49" fill-rule="evenodd" transform="translate(-37.95 -35.75)"/><path d="M62.15 191.55q-2.9-.65-6-3.15l-1.2-1.25q1.45-2.95 4.3-5.95.75 1.25 1.9 2.1l-.25 2.7-1 2.65q.85 1.95 2.25 2.9m-8.75-6.5-1.1-2.1q3.4-1.3 6.15-3.3l.35.7-5.4 4.7m-1.55-4.2-.1-1.15q3.35-.35 6.15-2.7l.35 1.8q-2.8 2.05-6.4 2.05" fill="#648269" fill-rule="evenodd" transform="translate(-37.95 -35.75)"/><path d="M62.15 191.55q-1.4-.95-2.25-2.9l1-2.65.25-2.7q1.8 1.35 4.65 1.65-2.05 3.15-1.7 6.85l-1.65-.15-.3-.1" fill="#bacdbf" fill-rule="evenodd" transform="translate(-37.95 -35.75)"/><path d="M59.25 181.2q-2.85 3-4.3 5.95l-1.55-2.1 5.4-4.7.45.85m-6.95 1.75-.45-2.1q3.6 0 6.4-2.05l.2.85q-2.75 2-6.15 3.3" fill="#8aa88f" fill-rule="evenodd" transform="translate(-37.95 -35.75)"/><path d="m17 151.4 1.2 1.25q3.1 2.5 6 3.15-1.4-.95-2.25-2.9l1-2.65.25-2.7q-1.15-.85-1.9-2.1M17 151.4l-1.55-2.1-1.1-2.1-.45-2.1-.1-1.15q3.35-.35 6.15-2.7l.35 1.8.2.85.35.7.45.85m2.9 10.35.3.1 1.65.15q-.35-3.7 1.7-6.85-2.85-.3-4.65-1.65" fill="none" stroke="#1d382b" stroke-linecap="round" stroke-linejoin="round" stroke-opacity=".431" stroke-width=".05"/><path d="m86.45 146.65 1.1 2.45 1.5 2.05.35.3.95.65 1.1.7 2.95 1.15-.1.45-2.25 2.45-1.4-.35q-2.7-.65-2.1-4-1.7.15-2.95 1l-.7-1.2-.7.05-6.65 7.85-6.1 6.85-11.25 11.7q-.6 1.7 1.15 4.75-2.95-1.9-3.3-6.4 14.55-14.05 27.7-30.1l.7-.35m-18.85 35.9-.75.95q.35-2.3-.85-3.55-1.35-.55-3.4.55-.5-1.1.05-2.45l2.6-2.6q-1.1 1.3-1.3 3.65 4.75-1.8 3.65 3.45m18-19.9.45-.75q.6-1.45-.1-2.8-1.2-1.45-3-.2-.5-1.35.15-2.7.7-1.3 1.6-1.85-.85 1.15-.75 3.2 3.25-.5 3.2 2.95-.2 1-.7 1.6l-.85.55m-5.65 5.95q.25-1.9-.6-2.95-.75-1.2-2.7-.35-.7-1.45-.2-2.4.7-1.2 1.75-1.9-.95 1.1-.5 3.35 2.95-.45 3.05 2.85l-.8 1.4m-6.8 6.85q.5-1.45-.35-2.7-1.2-.65-2.4.2-.6-1.4-.1-3.2l1.8-2q-1.1 1.3-.9 3.6 3.15-.5 2.65 2.5-.15 1-.7 1.6" fill="#212321" fill-rule="evenodd" transform="translate(-37.95 -35.75)"/><path d="M84.7 154.35q-.9.55-1.6 1.85-.65 1.35-.15 2.7 1.8-1.25 3 .2.7 1.35.1 2.8l-.45.75-.6.15q-3.2.4-3.2-2.95-2.5-.05-3.5 1.05l-.1.1q-1.05.7-1.75 1.9-.5.95.2 2.4 1.95-.85 2.7.35.85 1.05.6 2.95-.5.45-1.15.7-4.1.4-3.05-2.85-2.45 0-3.55 1.25l-.75-.65 6.1-6.85 6.65-7.85.7-.05.7 1.2-.9.85" fill="#696c68" fill-rule="evenodd" transform="translate(-37.95 -35.75)"/><path d="M85.6 153.5q.95 1.6 2.25 2.95l2 1.4.8.3q.5.8-.2 2.2l-.1.05-.35.4-7.6 7.3q-5.65 5.5-12.7 14.9-.55.55-1.35 0l-.75-.45q1.1-5.25-3.65-3.45.2-2.35 1.3-3.65 1.25-1.5 3.7-1.75-.15 2.7 2.7 2.5.95-.15 1.5-.75t.7-1.6q.5-3-2.65-2.5-.2-2.3.9-3.6h.05l.05-.05q1.1-1.25 3.55-1.25-1.05 3.25 3.05 2.85.65-.25 1.15-.7l.8-1.4q-.1-3.3-3.05-2.85-.45-2.25.5-3.35l.1-.1q1-1.1 3.5-1.05 0 3.35 3.2 2.95l.6-.15.85-.55q.5-.6.7-1.6.05-3.45-3.2-2.95-.1-2.05.75-3.2l.9-.85" fill="#bacdbf" fill-rule="evenodd" transform="translate(-37.95 -35.75)"/><path d="m66.85 183.5-1.15 1.35q-2.6-.2-4.35-1.35-1.75-3.05-1.15-4.75l11.25-11.7.75.65-.05.05h-.05l-1.8 2q-.5 1.8.1 3.2 1.2-.85 2.4-.2.85 1.25.35 2.7-.55.6-1.5.75-2.85.2-2.7-2.5-2.45.25-3.7 1.75l-2.6 2.6q-.55 1.35-.05 2.45 2.05-1.1 3.4-.55 1.2 1.25.85 3.55" fill="#616460" fill-rule="evenodd" transform="translate(-37.95 -35.75)"/><path d="m48.5 110.9 1.1 2.45 1.5 2.05.35.3.95.65 1.1.7 2.95 1.15" fill="none" stroke="#1d382b" stroke-linecap="round" stroke-linejoin="round" stroke-opacity=".431" stroke-width=".05"/><path d="m56.35 118.65-2.25 2.45-1.4-.35q-2.7-.65-2.1-4-1.7.15-2.95 1m4.75 6.9-.35.4-7.6 7.3q-5.65 5.5-12.7 14.9-.55.55-1.35 0l-.75-.45m-.75.95-1.15 1.35q-2.6-.2-4.35-1.35-2.95-1.9-3.3-6.4 14.55-14.05 27.7-30.1m-.15 15.65.85-.55q.5-.6.7-1.6.05-3.45-3.2-2.95-.1-2.05.75-3.2l.9-.85m-13.4 14.2q1.1-1.25 3.55-1.25-1.05 3.25 3.05 2.85.65-.25 1.15-.7m-1.75-7.6.1-.1q1-1.1 3.5-1.05 0 3.35 3.2 2.95l.6-.15M35.2 139.7q.55-.6.7-1.6.5-3-2.65-2.5-.2-2.3.9-3.6h.05l.05-.05m6-6.7q-.95 1.1-.5 3.35 2.95-.45 3.05 2.85l-.8 1.4m-6.8 6.85q-.55.6-1.5.75-2.85.2-2.7-2.5-2.45.25-3.7 1.75-1.1 1.3-1.3 3.65 4.75-1.8 3.65 3.45" fill="none" stroke="#353520" stroke-linecap="round" stroke-linejoin="round" stroke-opacity=".69" stroke-width=".05"/><path d="m85.65 145.55.05.05 1.05 1.8q-8.05-4.45-9.35-2.65-.45-1.4.25-1.7 2.65-.65 8 2.5m-7.05 1.8-.6 1.2-34.95-9.7-4.95-2.55 21.2 5.75 1.15.35 2.15.6 8 2.2 8 2.15" fill="#252725" fill-rule="evenodd" transform="translate(-37.95 -35.75)"/><path d="M77.4 144.75q.25 1 1.2 2.6l-8-2.15q-.25-3.7 6.15-8.45l4.05.1q-2.4 1.2-2.45 2.75.2 1.2 8.45 1.85l-2.05 1.4.9 2.7q-5.35-3.15-8-2.5-.7.3-.25 1.7m-39.3-8.5 28.75.4q.9 1.5-7.55 5.4l-21.2-5.75v-.05m30.95.4 2.15.05q-1.45 4.55-8.6 6.3l-2.15-.6q8.9-3.6 8.6-5.75" fill="url(#k)" fill-rule="evenodd" transform="translate(-37.95 -35.75)"/><path d="M66.85 136.65h2.2q.3 2.15-8.6 5.75l-1.15-.35q8.45-3.9 7.55-5.4m4.35.05 5.55.05q-6.4 4.75-6.15 8.45l-8-2.2q7.15-1.75 8.6-6.3" fill="#a2a2a2" fill-rule="evenodd" transform="translate(-37.95 -35.75)"/><path d="m47.7 109.8.05.05 1.05 1.8q-8.05-4.45-9.35-2.65.25 1 1.2 2.6l-.6 1.2-34.95-9.7-4.95-2.55-.15-.05h.15l28.75.4h2.2l2.15.05 5.55.05 4.05.1q-2.4 1.2-2.45 2.75.2 1.2 8.45 1.85l-2.05 1.4.9 2.7q-5.35-3.15-8-2.5-.7.3-.25 1.7m-16.95-2.35 2.15.6 8 2.2 8 2.15m-19.3-5.3 1.15.35m-22.35-6.1 21.2 5.75" fill="none" stroke="#353520" stroke-linecap="round" stroke-linejoin="round" stroke-opacity=".69" stroke-width=".05"/><path d="m109.55 201.4-3-4.7-12.65-33.9 1.15-.7 7.2 19.6 1.1 2.85.7 1.95.1.25 1.15 3.15 1.1 3.05.1.15 3.05 8.3m-11.8-38.3q1.7-1.5-3.55-9.2l1.7.6.05.05q3.9 5.35 3.45 8.15-.25.7-1.65.4" fill="#252725" fill-rule="evenodd" transform="translate(-37.95 -35.75)"/><path d="m107.9 184.2 1.7 17.15-.05.05-3.05-8.3-.1-.15 1.5-8.75m-12.85-22.1q1.65.8 2.7 1 1.4.3 1.65-.4.45-2.8-3.45-8.15l3.3.75.95-1.9q1.4 8.2 2.6 8.25 1.5-.15 2.55-2.6l.8 8.4.05.15.3 3.3q-1.15 4.45-4.25 10.8l-7.2-19.6M106.9 174l.6 6.85q-.05 2.9-2.2 9.05l-1.15-3.15-.1-.25-.7-1.95q.45-4 3.55-10.55" fill="#5e5f5c" fill-rule="evenodd" transform="translate(-37.95 -35.75)"/><path d="m107.5 180.85.4 3.35-1.5 8.75-1.1-3.05q2.15-6.15 2.2-9.05m-1-9.95.4 3.1q-3.1 6.55-3.55 10.55l-1.1-2.85q3.1-6.35 4.25-10.8" fill="#d5d5d5" fill-rule="evenodd" transform="translate(-37.95 -35.75)"/><path d="m69.55 145.1.4 3.35 1.7 17.15v.2l-.05-.15-3-4.7-12.65-33.9 1.15-.7q1.65.8 2.7 1 1.7-1.5-3.55-9.2l1.7.6.05.05 3.3.75.95-1.9q1.4 8.2 2.6 8.25 1.5-.15 2.55-2.6l.8 8.4m.05.15.3 3.3.4 3.1.6 6.85m-2.2 9.05 1.1 3.05m-8.65-29.85q1.4.3 1.65-.4.45-2.8-3.45-8.15m7.4 30 .7 1.95m.1.25 1.15 3.15m1.2 3.2 3.05 8.3m-14.5-39.3 7.2 19.6 1.1 2.85" fill="none" stroke="#353520" stroke-linecap="round" stroke-linejoin="round" stroke-opacity=".69" stroke-width=".05"/><path d="m68.45 157.2.1.15" fill="none" stroke="#1e3727" stroke-linecap="round" stroke-linejoin="round" stroke-opacity=".322" stroke-width=".05"/><path d="M158.35 80.45q.85 1.9.1 3.95-.7 1.95-2.65 2.85l-3.9.2q-2-.75-2.85-2.65-.9-1.95-.2-3.95.75-2 2.65-2.9l3.95-.15q1.95.7 2.9 2.65M155 78.9l-3 .15q-1.45.65-2.05 2.25-.55 1.5.1 3 .7 1.45 2.25 2.05l3-.15q1.5-.7 2.05-2.2.55-1.55-.1-3.05-.7-1.5-2.25-2.05" fill="#2b805e" fill-rule="evenodd" transform="translate(-37.95 -35.75)"/><path d="M155 78.9q1.55.55 2.25 2.05.65 1.5.1 3.05-.55 1.5-2.05 2.2l-3 .15q-1.55-.6-2.25-2.05-.65-1.5-.1-3 .6-1.6 2.05-2.25l3-.15" fill="url(#l)" fill-rule="evenodd" transform="translate(-37.95 -35.75)"/><path d="M120.4 44.7q-.95-1.95-2.9-2.65l-3.95.15q-1.9.9-2.65 2.9-.7 2 .2 3.95.85 1.9 2.85 2.65l3.9-.2q1.95-.9 2.65-2.85.75-2.05-.1-3.95z" fill="none" stroke="#000" stroke-linecap="round" stroke-linejoin="round" stroke-opacity=".502" stroke-width=".05"/><path d="m156 84.4-3-.05q-1.55-.6-2.25-1.9-.85-1.3-.35-2.5.45-1.25 1.9-1.8l2.9.05q1.55.55 2.35 1.9.75 1.3.25 2.55-.4 1.2-1.8 1.75" fill="url(#m)" fill-rule="evenodd" transform="translate(-37.95 -35.75)"/><path d="m151.55 81.4.7-.85q.2-.5-.05-1-.2-.5-.75-.7-.5-.2-1.05 0-.5.3-.7.8-.2.55.05 1.05l.75.7q.55.2 1.05 0" fill="#fff" fill-opacity=".49" fill-rule="evenodd" transform="translate(-37.95 -35.75)"/><path d="m175.35 64.7-1.75 1 .15 1.55-3.45-.75 3.2-.8-4.4-.6 6.25-.4" fill="#e7ede8" fill-rule="evenodd" transform="translate(-37.95 -35.75)"/><path d="m172.65 76.4-2.9 5L154 82.6l-.05-.4h-.4l-.05-13.05 11.65-9.2 1.6.15.85-2.1 28.2-22.25L185 54.6l-1.7-.85 1.1 1.95-10.65 18.65-1.85-.4 1.2 1.35-1.1-.2.7 1.2-.05.1m2.7-11.7 11.75-18.75L159 69.4l-5.05 12.8 13.5-5 .85-1.25 1-4 3.25-2.8 1.2-1.9-.15-1.55 1.75-1" fill="url(#n)" fill-rule="evenodd" transform="translate(-37.95 -35.75)"/><path d="M153.95 82.2 159 69.4l28.1-23.45-11.75 18.75-6.25.4 4.4.6-3.2.8 3.45.75-1.2 1.9-3.25 2.8-1 4-.85 1.25-13.5 5" fill="#98b498" fill-rule="evenodd" transform="translate(-37.95 -35.75)"/><path d="m134.7 40.65-2.9 5-15.75 1.2h-.25l-.2.05v-.45l-.05-13.05 11.65-9.2m2.45-1.95L157.85 0l-10.8 18.85m-.6 1.1L135.8 38.6m-19.95 8.25.15-.4" fill="none" stroke="#1e3727" stroke-linecap="round" stroke-linejoin="round" stroke-opacity=".322" stroke-width=".05"/><path d="M153.95 82.2 159 69.4l28.1-23.45-11.75 18.75-6.25.4 4.4.6-3.2.8 3.45.75-1.2 1.9-3.25 2.8-1 4-.85 1.25-13.5 5" fill="none" stroke="#2c3a37" stroke-linecap="round" stroke-linejoin="round" stroke-opacity=".243" transform="translate(-37.95 -35.75)"/><path d="m127.2 24.2 1.6.15.85-2.1m17.4-3.4-1.7-.85 1.1 1.95M135.8 38.6l-1.85-.4 1.2 1.35-1.1-.2.7 1.2-.05.1z" fill="none" stroke="#1d382b" stroke-linecap="round" stroke-linejoin="round" stroke-opacity=".431" stroke-width=".05"/><path d="m115.9 123.05-2.5 2.5-2.95 1.85-1.7.25q-.25-.35.6-1.5.9-1.25 2.45-2.55 1.65-1.25 3-1.9t1.65-.2q.35.35-.55 1.55" fill="#b0cec1" fill-opacity=".322" fill-rule="evenodd" transform="translate(-37.95 -35.75)"/><path d="M67.55 178.35q-.65 0-1.15-.45-.45-.4-.5-1.1-.05-.65.4-1.15t1.15-.55q.65 0 1.1.45.5.4.55 1.1l-.45 1.15q-.45.5-1.1.55" fill="url(#o)" fill-rule="evenodd" transform="translate(-37.95 -35.75)"/><path d="m86.1 154.3 2.05 2.3-.2.25q-.4.5-1.1.45-.65.1-1.1-.35-.5-.45-.55-1.15 0-.65.4-1.15l.5-.35" fill="url(#p)" fill-rule="evenodd" transform="translate(-37.95 -35.75)"/><path d="m86.1 154.3.65-.15q.65-.05 1.15.4.45.45.5 1.1.05.55-.25.95l-2.05-2.3" fill="url(#q)" fill-rule="evenodd" transform="translate(-37.95 -35.75)"/><path d="M50.2 120.85q.3-.4.25-.95-.05-.65-.5-1.1-.5-.45-1.15-.4l-.65.15m2.05 2.3-.2.25q-.4.5-1.1.45-.65.1-1.1-.35-.5-.45-.55-1.15 0-.65.4-1.15l.5-.35" fill="none" stroke="#1d382b" stroke-linecap="round" stroke-linejoin="round" stroke-opacity=".431" stroke-width=".05"/></g><g id="c" transform="translate(45.75 17.3)"><use transform="translate(-30.55 -10.1)" width="52.5" height="36.45" xlink:href="#t"/><use transform="rotate(45 15.509 -2.229) scale(.5555)" width="52.5" height="36.45" xlink:href="#t"/><use transform="rotate(45 4.773 -35.696) scale(.85)" width="52.5" height="36.45" xlink:href="#t"/><use transform="rotate(44.998 4.267 -2.559) scale(.5815)" width="52.5" height="36.45" xlink:href="#t"/><use transform="translate(-27.67 -17.322) scale(.6111)" width="52.5" height="36.45" xlink:href="#t"/></g><g id="d"><path d="M121.85 109.4q3.5 4.85-.65 12.9-4.15 8.15-13.45 14.8t-18.3 7.95-12.5-3.55q-3.45-4.85.7-12.95T91.1 113.8t18.3-8q9-1.25 12.45 3.6" fill="url(#v)" fill-rule="evenodd" transform="translate(-18 -15.1)"/><path d="M74 171.25q-.65 0-1.15-.45-.45-.4-.5-1.1-.05-.65.4-1.15t1.15-.55q.65 0 1.1.45.5.4.55 1.1 0 .65-.45 1.15t-1.1.55" fill="url(#w)" fill-rule="evenodd" transform="translate(-18 -15.1)"/><path d="M80.45 164.1q-.65 0-1.15-.45-.45-.4-.5-1.1-.05-.65.4-1.15t1.15-.55q.65 0 1.1.45.5.4.55 1.1l-.45 1.15q-.45.5-1.1.55" fill="url(#x)" fill-rule="evenodd" transform="translate(-18 -15.1)"/><path d="m101.45 79.6.1-.05.1 1 .55 1.1-.2.1-.35-1.2-.2-.95" fill="#bfd0c0" fill-rule="evenodd" transform="translate(-18 -15.1)"/><path d="M157.45 43.6q2.1 7.65 6.8 13.7l3.4 3.85q-3-1.15-5.1-2.7-4.9-3.55-5.45-9.3-.25-2.55.35-5.55" fill="#e8eee8" fill-rule="evenodd" transform="translate(-18 -15.1)"/><path d="M100.45 98.85h-.05l-1.4-1.6 1.45 1.6m-.3-18.65 1.3-.6.2.95-1.5-.35" fill="#bacdbf" fill-rule="evenodd" transform="translate(-18 -15.1)"/><path d="M114.9 79.95q-.65 1.6-4.15 5.5-4 4.4-11.75 11.8h-.05l-7.65 7.15-.75.65-1.8-.95q-2.75-1.65-5.35-3.8 21.45-10.2 31.5-20.35" fill="#0e2520" fill-rule="evenodd" transform="translate(-18 -15.1)"/><path d="M102.2 81.65q9.7-3.05 12.8-2.35l-.1.65Q104.85 90.1 83.4 100.3l-.1-.2-.5-.4-.6-.5-.35-.35-.2-.9q-.85-3.45-.5-7.4l.1-1.15q7-2.85 12.65-4.9 4.55-1.65 8.1-2.75l.2-.1" fill="#1c4a41" fill-rule="evenodd" transform="translate(-18 -15.1)"/><path d="m100.4 98.85-7.5 7.2-.05.05-.15-.1-2.15-.95.75-.65 7.65-7.15 1.45 1.6m-18.65-12.4 11.45-3.7 6.95-2.55 1.5.35.35 1.2q-3.55 1.1-8.1 2.75-5.65 2.05-12.65 4.9l.5-2.9v-.05" fill="#8eac94" fill-rule="evenodd" transform="translate(-18 -15.1)"/><path d="m82.2 99.2.6.5-2.55 1.75-.8-1.2 2.75-1.05m1.1.9.1.2q2.6 2.15 5.35 3.8-1.45 3.05-4.8 6-.8-.65-1.85-1.05-1.6-.65-2.95-1.55 1.5.85 3.35.5l1.85-2.05q.45-.95-.1-1.65-1.15-.3-3-1.55l-.45-.5 2.5-2.15m-4.65-9.5 2.2-.05h.3q-.35 3.95.5 7.4l-2.6 1.45-.35-.9q-1.5-4.65-.05-7.9m-5.9 22.25q1.2-1.2.85-2.2-.3-.35-.75-.55l-1.6-2.2q-.9-1.8-1.45-3.8l3.5-.1q-1.75 3.3.95 4.85l1.35.9q1.1.85.35 1.35l-3.2 1.75" fill="#648269" fill-rule="evenodd" transform="translate(-18 -15.1)"/><path d="m82.8 99.7.5.4-2.5 2.15-.55-.8 2.55-1.75m-1.15-1.75.2.9.35.35-2.75 1.05-.4-.85 2.6-1.45" fill="#8da58f" fill-rule="evenodd" transform="translate(-18 -15.1)"/><path d="m76.25 105.2-.95-1.1 4.95-2.65.55.8-4.55 2.95m-2-2.5q-.6-1.25-.9-2.6 2.4.75 5.7-.7l.4.85q-3.35 1-5.2 2.45" fill="#c6d2c7" fill-rule="evenodd" transform="translate(-18 -15.1)"/><path d="M162.55 58.45q-6.75 3.25-12.85 6.35l-4.4 1.25-3.2 2.8q-17.2 9.3-27.45 17.25l-2.45.75.15 1.1-3.95 3.35-7.95 7.55-1.45-1.6q7.75-7.4 11.75-11.8 3.5-3.9 4.15-5.5l.1-.65q-3.1-.7-12.8 2.35l-.55-1.1-.1-1q8.05-3.15 16.05-7.05l3.85-1.65 2.6 1.75-1.95-2.35 2.55-1.25 1.55 1.45-.3-2.1Q138.8 61.5 151.45 53h.05l.7.75-.15-1.15 1.1-.75.55 2 .7-2.8 2.7-1.9q.55 5.75 5.45 9.3" fill="#98b498" fill-rule="evenodd" transform="translate(-18 -15.1)"/><path d="M167.65 61.15Q149.7 65.65 128.1 84l-1-1.45L127 85l-5.05 4.45-4.4 2.15-2.85 4.75q-10.85 10.7-22.5 24.6 1.35-8.2.55-14.85h.1l.05-.05 7.5-7.2h.05l7.95-7.55 3.95-3.35-.15-1.1 2.45-.75q10.25-7.95 27.45-17.25l3.2-2.8 4.4-1.25q6.1-3.1 12.85-6.35 2.1 1.55 5.1 2.7" fill="url(#y)" fill-rule="evenodd" transform="translate(-18 -15.1)"/><path d="m157.1 49.15-2.7 1.9-.7 2.8-.55-2-1.1.75.15 1.15-.7-.75h-.05q-12.65 8.5-25.55 15.35l.3 2.1-1.55-1.45-2.55 1.25 1.95 2.35-2.6-1.75-3.85 1.65q-8 3.9-16.05 7.05l-.1.05-1.3.6-6.95 2.55-11.45 3.7-.1-.1q-5.5-4.05-13.45-6.4l20.15-4.7.2-.05 3.8 1-1.4-1.6q53.6-13.9 66.45-31.1l.05.1q-.6 3-.35 5.55" fill="url(#z)" fill-rule="evenodd" transform="translate(-18 -15.1)"/><path d="m79.45 100.25.8 1.2-4.95 2.65-.8-.95-.25-.45q1.85-1.45 5.2-2.45m-.3 7.25-.15-.05q-1.55-1-2.75-2.25l4.55-2.95.45.5q1.85 1.25 3 1.55.55.7.1 1.65L82.5 108q-1.85.35-3.35-.5m-5.8-7.4-.4-3v-.45l.05-1.8.35-2.9q.9-.4 1.75-.55 1.9-.65 3.55-.8-1.45 3.25.05 7.9l.35.9q-3.3 1.45-5.7.7" fill="url(#A)" fill-rule="evenodd" transform="translate(-18 -15.1)"/><path d="M149.65 46.05h.05-.05q-17.95 4.5-39.55 22.85l-1-1.45-.1 2.45-5.05 4.45-4.4 2.15-2.85 4.75q-10.85 10.7-22.5 24.6l-.4.3m65.65-77.65q2.1 7.65 6.8 13.7l3.4 3.85q-3-1.15-5.1-2.7-4.9-3.55-5.45-9.3-.25-2.55.35-5.55v-.15l-.05.05q-12.85 17.2-66.45 31.1l1.4 1.6-3.8-1-.2.05-20.15 4.7q7.95 2.35 13.45 6.4m11.25 19.7-.05.05m-.1 0q.8 6.65-.55 14.85m7.95-40.75 1.3-.6m.75 2.05Q93.9 63.5 97 64.2l-.1.65q-.65 1.6-4.15 5.5-4 4.4-11.75 11.8h-.05M84 66.65l.2-.1m-20 17.55.6.5.5.4.1.2q2.6 2.15 5.35 3.8-1.45 3.05-4.8 6-.8-.65-1.85-1.05-1.6-.65-2.95-1.55l-.15-.05m2.65-9.5.2.9.35.35m-1.95 2.25 2.55-1.75m7.75 5.35.75-.65 7.65-7.15M70.75 89l1.8.95 2.15.95.15.1m-19.9-9v-.45l.05-1.8.35-2.9q.9-.4 1.75-.55 1.9-.65 3.55-.8l2.2-.05m.3 0 .1-1.15.5-2.9v-.05l-.1-.1M74.75 91l-.05-.1M84 66.65q-3.55 1.1-8.1 2.75-5.65 2.05-12.65 4.9m.5-2.95v.05M49.7 65.05l.5-.2m13.45 18q-.85-3.45-.5-7.4" fill="none" stroke="#1d382b" stroke-linecap="round" stroke-linejoin="round" stroke-opacity=".431" stroke-width=".05"/><path d="M162.55 58.45q-6.75 3.25-12.85 6.35l-4.4 1.25-3.2 2.8q-17.2 9.3-27.45 17.25l-2.45.75.15 1.1-3.95 3.35-7.95 7.55h-.05l-7.5 7.2m8.65-26.5q8.05-3.15 16.05-7.05l3.85-1.65 2.6 1.75-1.95-2.35 2.55-1.25 1.55 1.45-.3-2.1Q138.8 61.5 151.45 53h.05l.7.75-.15-1.15 1.1-.75.55 2 .7-2.8 2.7-1.9m-75.35 37.3 11.45-3.7 6.95-2.55m1.3-.6.1-.05m.1 1-1.5-.35m1.3-.6.2.95" fill="none" stroke="#2c3a37" stroke-linecap="round" stroke-linejoin="round" stroke-opacity=".243" transform="translate(-18 -15.1)"/><path d="m54.75 97.75 3.2-1.75q.75-.5-.35-1.35m-35.4 20 1.15-.75" fill="none" stroke="#353520" stroke-linecap="round" stroke-linejoin="round" stroke-opacity=".69" stroke-width=".05"/><path d="M36.4 129.6q.55 3.85-1.75 6.9-2.25 3.05-6 3.5-3.8.55-6.9-1.85-3.05-2.45-3.6-6.3-.65-3.85 1.65-6.9 2.25-3.05 6.1-3.5 3.75-.45 6.8 1.9 3.1 2.35 3.7 6.25m-4.95-4.5q-2.35-1.9-5.3-1.5-2.9.35-4.65 2.7-1.75 2.3-1.25 5.35.45 2.9 2.8 4.75t5.3 1.55q2.85-.45 4.6-2.75 1.7-2.35 1.35-5.3-.45-3.05-2.85-4.8" fill="#2b805e" fill-rule="evenodd" transform="translate(-18 -15.1)"/><path d="M31.45 125.1q2.4 1.75 2.85 4.8.35 2.95-1.35 5.3-1.75 2.3-4.6 2.75-2.95.3-5.3-1.55t-2.8-4.75q-.5-3.05 1.25-5.35 1.75-2.35 4.65-2.7 2.95-.4 5.3 1.5" fill="url(#B)" fill-rule="evenodd" transform="translate(-18 -15.1)"/><path d="M18.4 114.5q-.6-3.9-3.7-6.25-3.05-2.35-6.8-1.9-3.85.45-6.1 3.5-2.3 3.05-1.65 6.9.55 3.85 3.6 6.3 3.1 2.4 6.9 1.85 3.75-.45 6-3.5 2.3-3.05 1.75-6.9z" fill="none" stroke="#000" stroke-linecap="round" stroke-linejoin="round" stroke-opacity=".502" stroke-width=".05"/><path d="M30.5 135.05q-2.8.1-5.2-1.65-2.3-1.95-2.9-4.6-.8-2.65.7-4.6 1.4-1.9 4.15-2 2.65-.05 5.05 1.75 2.3 1.85 3 4.55t-.75 4.65q-1.45 1.85-4.05 1.9" fill="url(#C)" fill-rule="evenodd" transform="translate(-18 -15.1)"/><path d="M24.5 127.25q1-.2 1.6-1t.45-1.8q-.15-1.05-.95-1.65-.8-.65-1.85-.55-.95.15-1.55.95t-.5 1.85q.2 1 .95 1.7.85.55 1.85.5" fill="#fff" fill-opacity=".49" fill-rule="evenodd" transform="translate(-18 -15.1)"/><path d="m34.3 127.75-1.1 2.8-1.95 2.4q.3 2.35 1.45 3.85-2.85-1.65-5.3-5.3l-.9-1.7q2.45-2.7 6.45-4.95.4 1.6 1.35 2.9m-8.8-.7-.4-2.55q4-.3 7.6-1.5l.05.85-7.25 3.2m-.25-4.9q.1-.65.35-1.25 3.55.7 7.35-.9l-.3 1.95-7.4.2" fill="#648269" fill-rule="evenodd" transform="translate(-18 -15.1)"/><path d="M34.3 127.75q1.5 2.05 4.4 3.3-3.2 2.6-4.1 6.6l-1.6-.7-.3-.15q-1.15-1.5-1.45-3.85l1.95-2.4 1.1-2.8" fill="#bacdbf" fill-rule="evenodd" transform="translate(-18 -15.1)"/><path d="m26.5 129.8-1-2.75 7.25-3.2.2 1q-4 2.25-6.45 4.95m-1.4-5.3q-.05-1.25.15-2.35l7.4-.2.05 1.05q-3.6 1.2-7.6 1.5" fill="#8aa88f" fill-rule="evenodd" transform="translate(-18 -15.1)"/><path d="m14.7 121.7.3.15 1.6.7q.9-4 4.1-6.6-2.9-1.25-4.4-3.3l-1.1 2.8-1.95 2.4q.3 2.35 1.45 3.85-2.85-1.65-5.3-5.3l-.9-1.7-1-2.75-.4-2.55q-.05-1.25.15-2.35.1-.65.35-1.25 3.55.7 7.35-.9l-.3 1.95.05 1.05.05.85.2 1q.4 1.6 1.35 2.9" fill="none" stroke="#1d382b" stroke-linecap="round" stroke-linejoin="round" stroke-opacity=".431" stroke-width=".05"/><path d="m73 97.15.4 3q.3 1.35.9 2.6l.25.45.8 1 1 1.1 2.7 2.2-.25.4-3.15 1.9-1.35-.85q-2.7-1.6-.95-4.9l-3.5.1-.3-1.55-.85-.15-9.55 6.15-8.65 5.25-15.7 8.75q-1.2 1.65-.35 5.45-2.55-3-1.4-7.9Q53 110.05 72.2 97.25l.8-.1m-31.6 31.9-1.15.75q1.2-2.35.3-4-1.25-1-3.85-.6-.1-1.3.9-2.55l3.55-1.9q-1.55 1.05-2.5 3.4 5.6-.3 2.75 4.9m25.55-15.2.65-.65q1.1-1.4.9-3.05-.9-1.9-3.15-1.15-.15-1.6 1-2.85 1.2-1.1 2.3-1.4-1.25.9-1.85 3.15 3.65.5 2.4 4.15-.45 1-1.2 1.45l-1.05.35m-8 4.45q.95-2 .35-3.35-.45-1.5-2.75-1.2-.3-1.85.55-2.65 1.2-1.05 2.5-1.45-1.35.9-1.6 3.4 3.25.5 2.3 3.95l-1.35 1.3m-8-3.45q-1.55.95-2.1 3.55 3.45.45 2 3.45l-1.3 1.45q1-1.35.5-2.95-1.05-1.1-2.55-.5-.2-1.75.85-3.5l2.6-1.5" fill="#212321" fill-rule="evenodd" transform="translate(-18 -15.1)"/><path d="M68.65 104.75q-1.1.3-2.3 1.4-1.15 1.25-1 2.85 2.25-.75 3.15 1.15.2 1.65-.9 3.05l-.65.65-.75-.05q-3.45-.7-2.4-4.15l-4.1-.1-.1.1q-1.3.4-2.5 1.45-.85.8-.55 2.65 2.3-.3 2.75 1.2.6 1.35-.35 3.35l-1.4.3q-4.45-.85-2.3-3.95l-4.2.1-.55-.9 8.65-5.25 9.55-6.15.85.15.3 1.55-1.2.6" fill="#696c68" fill-rule="evenodd" transform="translate(-18 -15.1)"/><path d="M69.85 104.15q.55 2 1.45 3.8l1.6 2.2.8.55q.3.95-.9 2.2l-.15.1-.5.25-10.4 5.3q-7.8 3.95-18.25 11.65-.8.4-1.5-.4l-.6-.75q2.85-5.2-2.75-4.9.95-2.35 2.5-3.4 1.85-1.2 4.5-.65-1 2.8 2.05 3.5l1.85-.3 1.3-1.45q1.45-3-2-3.45.55-2.6 2.1-3.55l.1-.1 4.2-.1q-2.15 3.1 2.3 3.95l1.4-.3 1.35-1.3q.95-3.45-2.3-3.95.25-2.5 1.6-3.4l.1-.1 4.1.1q-1.05 3.45 2.4 4.15l.75.05 1.05-.35q.75-.45 1.2-1.45 1.25-3.65-2.4-4.15.6-2.25 1.85-3.15l1.2-.6" fill="#bacdbf" fill-rule="evenodd" transform="translate(-18 -15.1)"/><path d="m40.25 129.8-1.65 1q-2.65-1.1-4.15-2.75-.85-3.8.35-5.45l15.7-8.75.55.9-.1.1-2.6 1.5q-1.05 1.75-.85 3.5 1.5-.6 2.55.5.5 1.6-.5 2.95l-1.85.3q-3.05-.7-2.05-3.5-2.65-.55-4.5.65l-3.55 1.9q-1 1.25-.9 2.55 2.6-.4 3.85.6.9 1.65-.3 4" fill="#616460" fill-rule="evenodd" transform="translate(-18 -15.1)"/><path d="m55 82.05.4 3q.3 1.35.9 2.6l.25.45.8 1 1 1.1 2.7 2.2" fill="none" stroke="#1d382b" stroke-linecap="round" stroke-linejoin="round" stroke-opacity=".431" stroke-width=".05"/><path d="m60.8 92.8-3.15 1.9-1.35-.85q-2.7-1.6-.95-4.9l-3.5.1m2.8 8.85-.5.25-10.4 5.3q-7.8 3.95-18.25 11.65-.8.4-1.5-.4l-.6-.75m-1.15.75-1.65 1q-2.65-1.1-4.15-2.75-2.55-3-1.4-7.9Q35 94.95 54.2 82.15m-5.25 16.6L50 98.4q.75-.45 1.2-1.45 1.25-3.65-2.4-4.15.6-2.25 1.85-3.15l1.2-.6m-18.8 10.6 4.2-.1q-2.15 3.1 2.3 3.95l1.4-.3m.65-8.65.1-.1 4.1.1Q44.75 98 48.2 98.7l.75.05m-15.9.9-.1.1q-1.55.95-2.1 3.55 3.45.45 2 3.45l-1.3 1.45-1.85.3q-3.05-.7-2.05-3.5-2.65-.55-4.5.65-1.55 1.05-2.5 3.4 5.6-.3 2.75 4.9m18.2-19.4q-1.35.9-1.6 3.4 3.25.5 2.3 3.95l-1.35 1.3" fill="none" stroke="#353520" stroke-linecap="round" stroke-linejoin="round" stroke-opacity=".69" stroke-width=".05"/><path d="m72.45 95.65.05.05.55 2.3q-7.05-7.35-9.1-5.9 0-1.6.85-1.7 2.95.2 7.65 5.25m-8.05-.4-1.05 1.15L29.5 74.7l-4.35-4.25 20.5 12.95 1.15.7 2.05 1.3 7.8 5 7.75 4.85" fill="#252725" fill-rule="evenodd" transform="translate(-18 -15.1)"/><path d="m65.9 83.5 4.25 1.35q-2.9.5-3.5 2.1-.15 1.35 8.35 4.7l-2.6.85.05 3.15q-4.7-5.05-7.65-5.25-.85.1-.85 1.7-.05 1.2.45 3.15l-7.75-4.85q.9-4.05 9.25-6.9M25.15 70.35 55.4 80.1q.45 1.9-9.75 3.3l-20.5-12.95v-.1m32.6 10.55 2.3.65Q57 85.9 48.85 85.4l-2.05-1.3q10.55-.85 10.95-3.2" fill="url(#D)" fill-rule="evenodd" transform="translate(-18 -15.1)"/><path d="m55.4 80.1 2.35.8q-.4 2.35-10.95 3.2l-1.15-.7q10.2-1.4 9.75-3.3m4.65 1.45 5.85 1.95q-8.35 2.85-9.25 6.9l-7.8-5q8.15.5 11.2-3.85" fill="#a2a2a2" fill-rule="evenodd" transform="translate(-18 -15.1)"/><path d="m47.9 68.4 4.25 1.35q-2.9.5-3.5 2.1-.15 1.35 8.35 4.7l-2.6.85.05 3.15.05.05.55 2.3Q48 75.55 45.95 77q-.05 1.2.45 3.15l-1.05 1.15L11.5 59.6l-4.35-4.25-.2-.15.2.05L37.4 65l2.35.8 2.3.65 5.85 1.95m-9.25 6.9 7.75 4.85M27.65 68.3l1.15.7 2.05 1.3 7.8 5M7.15 55.35l20.5 12.95m18.3 8.7q0-1.6.85-1.7 2.95.2 7.65 5.25" fill="none" stroke="#353520" stroke-linecap="round" stroke-linejoin="round" stroke-opacity=".69" stroke-width=".05"/><path d="m79.55 162.6-1.65-5.9-2.4-40.05 1.45-.3 1.3 23 .2 3.35.1 2.35v.3l.25 3.7.2 3.6v.2l.55 9.75m-.05-44.4q2.25-1-.75-10.85l1.55 1.2v.05q2.45 6.95 1.05 9.75l-1.85-.15" fill="#252725" fill-rule="evenodd" transform="translate(-18 -15.1)"/><path d="M83.35 143.85 79.6 162.6h-.05l-.55-9.75v-.2l4.35-8.8m-6.4-27.5q1.5 1.3 2.55 1.85l1.85.15q1.4-2.8-1.05-9.75l3.3 1.85 1.65-1.7q-1.2 9.1.05 9.6 1.7.3 3.55-1.95L87 125.55v.15l-.75 3.65q-2.65 4.35-8 10l-1.3-23m8.65 16.4-1.5 7.4q-1 3.1-5.3 8.9l-.25-3.7v-.3l-.1-2.35q1.75-4.05 7.15-9.95" fill="#5e5f5c" fill-rule="evenodd" transform="translate(-18 -15.1)"/><path d="m84.1 140.15-.75 3.7-4.35 8.8-.2-3.6q4.3-5.8 5.3-8.9m2.15-10.8-.65 3.4q-5.4 5.9-7.15 9.95l-.2-3.35q5.35-5.65 8-10" fill="#d5d5d5" fill-rule="evenodd" transform="translate(-18 -15.1)"/><path d="m66.1 125.05-.75 3.7-3.75 18.75-.05.15v-.15l-1.65-5.9-2.4-40.05 1.45-.3q1.5 1.3 2.55 1.85 2.25-1-.75-10.85l1.55 1.2v.05l3.3 1.85 1.65-1.7q-1.2 9.1.05 9.6 1.7.3 3.55-1.95L69 110.45m0 .15-.75 3.65-.65 3.4-1.5 7.4m-5.3 8.9.2 3.6m.5-34.45 1.85.15q1.4-2.8-1.05-9.75m-1.85 34.1.1 2.35m0 .3.25 3.7m.2 3.8.55 9.75m-1.3-23.25.2 3.35m-1.5-26.35 1.3 23" fill="none" stroke="#353520" stroke-linecap="round" stroke-linejoin="round" stroke-opacity=".69" stroke-width=".05"/><path d="M61 137.55v.2" fill="none" stroke="#1e3727" stroke-linecap="round" stroke-linejoin="round" stroke-opacity=".322" stroke-width=".05"/><path d="M170.55 50.4q.3 2.3-1.15 4.2-1.35 1.8-3.7 2.15t-4.25-1.05q-1.85-1.45-2.15-3.8-.35-2.35 1.1-4.2 1.4-1.9 3.75-2.15 2.3-.35 4.2 1.1 1.85 1.35 2.2 3.75m-3-2.75q-1.45-1.1-3.2-.8-1.85.2-2.95 1.65-1.1 1.4-.85 3.2t1.7 2.9 3.25.85q1.85-.3 2.9-1.65 1.1-1.45.85-3.2-.25-1.85-1.7-2.95" fill="#2b805e" fill-rule="evenodd" transform="translate(-18 -15.1)"/><path d="M167.55 47.65q1.45 1.1 1.7 2.95.25 1.75-.85 3.2-1.05 1.35-2.9 1.65-1.8.25-3.25-.85t-1.7-2.9.85-3.2q1.1-1.45 2.95-1.65 1.75-.3 3.2.8" fill="url(#E)" fill-rule="evenodd" transform="translate(-18 -15.1)"/><path d="M152.55 35.3q-.35-2.4-2.2-3.75-1.9-1.45-4.2-1.1-2.35.25-3.75 2.15-1.45 1.85-1.1 4.2.3 2.35 2.15 3.8 1.9 1.4 4.25 1.05t3.7-2.15q1.45-1.9 1.15-4.2z" fill="none" stroke="#000" stroke-linecap="round" stroke-linejoin="round" stroke-opacity=".502" stroke-width=".05"/><path d="M166.85 53.8q-1.75.05-3.15-1-1.4-1.15-1.8-2.75-.45-1.6.5-2.75.85-1.2 2.55-1.25 1.65-.1 3.1 1 1.4 1.05 1.85 2.7.4 1.65-.5 2.85-.95 1.15-2.55 1.2" fill="url(#F)" fill-rule="evenodd" transform="translate(-18 -15.1)"/><path d="m163.2 49.15 1-.6q.35-.5.3-1.1-.1-.65-.6-1-.5-.4-1.1-.3-.65.1-1 .6-.4.5-.3 1.1t.55 1l1.15.3" fill="#fff" fill-opacity=".49" fill-rule="evenodd" transform="translate(-18 -15.1)"/><path d="m193.8 39.1-2.2.55-.35 1.7q-1.7-1.05-3.4-1.95l3.7.25-4.55-2.1 6.8 1.55" fill="#e7ede8" fill-rule="evenodd" transform="translate(-18 -15.1)"/><path d="m189 48.85-1.9-1.1.85 1.9-1.05-.6.35 1.5q-.05 0-.15.1l-4.7 4.4-17.1-3.85.15-.5 15.9-.9 1.3-1.1 2.35-3.85 4.35-1.95 1.9-1.55.35-1.7 2.2-.55 18.5-16-37.35 15.75-9.5 11.85-.45-.1 4.15-13.9 15.4-5.9 1.6.7 1.55-2 37.15-14.4-17.55 16.55-1.55-1.5.55 2.4-17.3 16.3" fill="url(#G)" fill-rule="evenodd" transform="translate(-18 -15.1)"/><path d="m191.25 41.35-1.9 1.55-4.35 1.95-2.35 3.85-1.3 1.1-15.9.9 9.5-11.85L212.3 23.1l-18.5 16-6.8-1.55 4.55 2.1-3.7-.25q1.7.9 3.4 1.95" fill="#98b498" fill-rule="evenodd" transform="translate(-18 -15.1)"/><path d="m169.1 35.55-4.7 4.4-17.1-3.85-.2-.1-.05-.05-.2-.05.15-.4 4.15-13.9 15.4-5.9m3.15-1.3L206.85 0 189.3 16.55m-1 .9L171 33.75M147.1 36l.35-.4" fill="none" stroke="#1e3727" stroke-linecap="round" stroke-linejoin="round" stroke-opacity=".322" stroke-width=".05"/><path d="m191.25 41.35-1.9 1.55-4.35 1.95-2.35 3.85-1.3 1.1-15.9.9 9.5-11.85L212.3 23.1l-18.5 16-6.8-1.55 4.55 2.1-3.7-.25q1.7.9 3.4 1.95" fill="none" stroke="#2c3a37" stroke-linecap="round" stroke-linejoin="round" stroke-opacity=".243" transform="translate(-18 -15.1)"/><path d="m171 33.75-1.9-1.1.85 1.9-1.05-.6.35 1.5q-.05 0-.15.1m-2.55-19.85 1.6.7 1.55-2m19.6 2.15-1.55-1.5.55 2.4" fill="none" stroke="#1d382b" stroke-linecap="round" stroke-linejoin="round" stroke-opacity=".431" stroke-width=".05"/><path d="M111.75 81.7q-1.3.95-3.4 1.8l-3.75 1.05q-1.6.3-1.85-.25-.2-.5 1.15-1.45 1.35-1 3.4-1.8 2.15-.85 3.8-1.1 1.65-.2 1.8.3.2.5-1.15 1.45" fill="#b0cec1" fill-opacity=".322" fill-rule="evenodd" transform="translate(-18 -15.1)"/><path d="m42.6 124.5-1.1-.85q-.35-.65-.2-1.35.2-.7.85-1.1l1.35-.15q.75.15 1.05.85.4.55.25 1.35l-.85 1.05-1.35.2" fill="url(#H)" fill-rule="evenodd" transform="translate(-18 -15.1)"/><path d="m70.1 105.05 1.45 3.15-.3.15-1.3.2q-.75-.2-1.15-.8-.35-.65-.1-1.35.1-.75.75-1.1l.65-.25" fill="url(#I)" fill-rule="evenodd" transform="translate(-18 -15.1)"/><path d="m71.55 108.2-1.45-3.15.75.05q.7.2 1.05.85.4.6.2 1.3l-.55.95" fill="url(#J)" fill-rule="evenodd" transform="translate(-18 -15.1)"/><path d="m53.55 93.1.55-.95q.2-.7-.2-1.3-.35-.65-1.05-.85l-.75-.05-.65.25q-.65.35-.75 1.1-.25.7.1 1.35.4.6 1.15.8l1.3-.2z" fill="none" stroke="#1d382b" stroke-linecap="round" stroke-linejoin="round" stroke-opacity=".431" stroke-width=".05"/></g><g id="e" fill-rule="evenodd"><path d="M122.65 69.3q2.1 6.25-4.95 13.45-7 7.3-19 11.35-12 4-22 2.4-9.95-1.55-12.05-7.8t4.9-13.5q7.05-7.25 19.05-11.25 12-4.05 21.95-2.5 10 1.6 12.1 7.85" fill="url(#K)" transform="translate(-50.5 -61)"/><path d="m51.85 119.2-1.1-.85q-.35-.65-.2-1.35.2-.7.85-1.1l1.35-.15q.75.15 1.05.85.4.55.25 1.35-.2.7-.85 1.05l-1.35.2" fill="url(#L)" transform="translate(-50.5 -61)"/><path d="M60.95 113.5q-.75-.25-1.1-.85-.35-.65-.2-1.35.2-.7.85-1.1l1.35-.15q.75.15 1.05.85.4.55.25 1.35-.2.7-.85 1.05l-1.35.2" fill="url(#M)" transform="translate(-50.5 -61)"/></g><radialGradient id="s" cx="0" cy="0" r="819.2" gradientTransform="scale(.0984)" gradientUnits="userSpaceOnUse"><stop stop-color="#d6ffeb" stop-opacity=".125" offset=".486"/><stop stop-color="#e5fff4" stop-opacity="0" offset="1"/></radialGradient><radialGradient id="v" cx="0" cy="0" r="819.2" gradientTransform="matrix(.0106 .0148 -.0285 .0204 99.4 125.45)" gradientUnits="userSpaceOnUse"><stop stop-color="#fff" stop-opacity=".773" offset="0"/><stop stop-color="#fff" stop-opacity="0" offset="1"/></radialGradient><radialGradient id="K" cx="0" cy="0" r="819.2" gradientTransform="matrix(.0064 .0191 -.0368 .0123 93.65 79)" gradientUnits="userSpaceOnUse"><stop stop-color="#fff" stop-opacity=".773" offset="0"/><stop stop-color="#fff" stop-opacity="0" offset="1"/></radialGradient><path d="M56.55-56.6Q80-33.15 80 0T56.55 56.55Q33.15 80 0 80t-56.6-23.45Q-80 33.15-80 0t23.4-56.6Q-33.15-80 0-80t56.55 23.4" fill="url(#s)" fill-rule="evenodd" transform="translate(80 80)" id="r"/><path d="M21.95-8.6q-2.15.5-3.55 1.3L18-8l3.95-.6m-17 11.75L4.5 2.6l.9-.1q-.4.3-.45.65M.9 1.35Q.3.3-.75.55.2.3.65-.45.5.5.9 1.35M-30.25-7.6l-.3-.75 1.15-.1-.85.85m9.15-2.5-.35.95-.35-.9.7-.05M-.9 14.65q-.8.4-.9 1.05l-.35-.95 1.25-.1M-5.15 24.9q.5 1 1.2-.1l-.6 1.55-.6-1.45M-5.2 8.35q-.95 1.65.45 1.3l-4.45 2.4q2.6-1.75 4-3.7" fill="#ccffef" fill-rule="evenodd" transform="translate(30.55 10.1)" id="u"/><use width="160" height="160" xlink:href="#r" id="b"/><use width="52.5" height="36.45" xlink:href="#u" id="t"/></defs></svg>