<svg viewBox="0 0 100.05 98.85" xmlns="http://www.w3.org/2000/svg" xmlns:xlink="http://www.w3.org/1999/xlink"><use width="100.05" height="98.85" xlink:href="#a"/><defs><g id="a"><path d="M281.3 187.85q8.45-6.9 17.3-16.5 9.1-9.95 16.2-16.6l9.9-3.4-4.6 9.35q-10.1 8.15-26 23.05v-3.15l20.6-16.75.4-3.25h.1l3.1-.5.45-3.7-5.7 2.45-.2 3.55-21 17.55-4.6 6.6-5.95 1.3" fill="#e0e0cd" fill-rule="evenodd" transform="translate(-224.95 -151.05)"/><path d="m281.3 187.85 5.95-1.3 4.6-6.6 21-17.55.2-3.55 5.7-2.45-.45 3.7-3.1.5h-.1l-.4 3.25-20.6 16.75v3.15q-6.95 6.5-13.4 14.2 16.55 3.95 5.3 19.05 4-18.45-10.55-13.95l-2-2.4-2.05-2.45-1.25-1.45q5.15-13.5-13.9-10.9 16.2-9.95 19.1 6.55l5.35-4.1.6-.45m-3.5 9.8 7.2-9.55-9.95 6.25-.5 3.65 3.25-.35" fill="#cbccac" fill-rule="evenodd" transform="translate(-224.95 -151.05)"/><path d="m238.75 240 1.9 1.75 1.4 1.3q-6.5 4.85-16.2 6.45l1-1.55.25.25q6.75-.85 13.1-5.15l-1.1-.95q-5.25 3.35-12.15 5.75l.25-.15q5.3-3.05 9.9-7.1l.95.2.05-.1.5-.8.15.1m4-3.75-6.95-6.65-1.45-1.45.55-.5-2.95-2.6q4-3.6 10.65-1.05l.7.65.8.75.85.8.2.15q1.7 7.7-2.4 9.9" fill="#edde8b" fill-rule="evenodd" transform="translate(-224.95 -151.05)"/><path d="M235.2 233.05q3.05 1.5 4.8 4-1.4 1.45-1.25 2.95l-.15-.1-6.25-5.85q1.95-.1 2.85-1m9.1 4.7-1.4-1.35-.15-.15q4.1-2.2 2.4-9.9l2.3 2.15q6.3 9.65 1.75 12.05l-1.65-1.5-.9 1.05-2.35-2.35m29.15-37.1L262 212.15l-5.05 4.7-6.55 5.45-3.3 5.2-1.55-2.1-.65-.95-.55-.8.55.8.65.95-.6.8-.85-.8-.8-.75 1.05-1 27.05-25.45 2.05 2.45M244.1 225.4l.8-.95-.8.95" fill="#f1ba87" fill-rule="evenodd" transform="translate(-224.95 -151.05)"/><path d="m231.95 225.05-3.7-3.3 1.75-1.5q5.9-.6 10.45 2.1l.3.15.1-.1 1.75 1.6q-6.65-2.55-10.65 1.05m-6.1 24.45-.6.1q1.4-8.9 5.85-16.7l1.25 1.15 6.25 5.85-.5.8-.05.1-.95-.2.2-.15-3.15-3q-4.05 4.75-7.3 9.9 2.05-5.75 5.6-11.3l-1.35-1.2q-3.9 8.05-4.55 12.75l.25.3.05.05-1 1.55" fill="#f5eec5" fill-rule="evenodd" transform="translate(-224.95 -151.05)"/><path d="M235.2 233.05q1.05-1.1.6-3.45l6.95 6.65.15.15 1.4 1.35q-2.35.2-3.3 1.1-1.05 1-.35 2.9l-1.9-1.75q-.15-1.5 1.25-2.95-1.75-2.5-4.8-4m10.35-7.65 1.55 2.1 3.3-5.2 6.55-5.45 5.05-4.7 11.45-11.5 2 2.4.65.75q-10.5 6.9-10.4 11.9-3.85 1.2-5 5.75-3.85-.1-5.1 5.9-4.5 2-2.9 5.8l-.1.1.1-.1q3.55 4.45 3.3 10.65l-1.4 1.85-5.4-5.1q4.55-2.4-1.75-12.05l-2.3-2.15-.2-.15.6-.8m7.05 7.85-5.15-4.75 5.15 4.75m-2.2-10.95 5.2 5.05-5.2-5.05m10.3-.85-3.75-4.6 3.75 4.6m5-5.75-3.7-3.55 3.7 3.55m-38.9 32.2-.25-.3q.65-4.7 4.55-12.75l1.35 1.2q-3.55 5.55-5.6 11.3 3.25-5.15 7.3-9.9l3.15 3-.2.15q-4.6 4.05-9.9 7.1l-.25.15q6.9-2.4 12.15-5.75l1.1.95q-6.35 4.3-13.1 5.15l-.25-.25.1-.1-.1.05h-.05" fill="#ec9f59" fill-rule="evenodd" transform="translate(-224.95 -151.05)"/><path d="m240.85 222.4 1.65-1.4 26.9-25.15.75.9 1.25 1.45-27.05 25.45-1.05 1-.7-.65-1.75-1.6m1.65-1.4 1.85 2.65-1.85-2.65" fill="#f8dcc2" fill-rule="evenodd" transform="translate(-224.95 -151.05)"/><path d="m277.8 197.65-3.25.35.5-3.65 9.95-6.25-7.2 9.55" fill="#9e9f64" fill-rule="evenodd" transform="translate(-224.95 -151.05)"/><path d="M69.15 32.7q15.9-14.9 26-23.05L99.75.3l-9.9 3.4q-7.1 6.65-16.2 16.6-8.85 9.6-17.3 16.5m12.8-4.1q-6.95 6.5-13.4 14.2 16.55 3.95 5.3 19.05m-50.2 12.6q.45 2.35-.6 3.45m5.45 8.7q-.7-1.9.35-2.9.95-.9 3.3-1.1l2.35 2.35.9-1.05 1.65 1.5 5.4 5.1 1.4-1.85q.25-6.2-3.3-10.65-1.6-3.8 2.9-5.8m-19.8 2.25L9.4 77.1l.55-.5L7 74l-3.7-3.3 1.75-1.5q5.9-.6 10.45 2.1m.4.05 1.65-1.4 26.9-25.15.75.9q5.15-13.5-13.9-10.9 16.2-9.95 19.1 6.55l5.35-4.1M.9 98.45l-.6.1q1.4-8.9 5.85-16.7L7.4 83q1.95-.1 2.85-1M50.5 52q14.55-4.5 10.55 13.95M50.5 52l.65.75q-10.5 6.9-10.4 11.9-3.85 1.2-5 5.75-3.85-.1-5.1 5.9M15.7 90.7l1.4 1.3Q10.6 96.85.9 98.45" fill="none" stroke="#000" stroke-linecap="round" stroke-linejoin="round" stroke-opacity=".6" stroke-width=".6"/><path d="m61.05 65.95-.15.75M31.3 34.8l-.8.1M13.8 88.95l1.9 1.75m3.65-4-1.4-1.35m-.15-.15-6.95-6.65m9.75-4.2 1.55 2.1 3.3-5.2L32 65.8l5.05-4.7L48.5 49.6l-2.05-2.45M19.4 72.6l.55.8.65.95-.6.8m7.65 7.05.1-.1m2.9-5.8-5.2-5.05M19.4 72.6l-1.85-2.65m-1.65 1.4-.1.1-.3-.15m4.45 2.1-.8.95M45.2 45.7l1.25 1.45m2.05 2.45 2 2.4m-13.45 9.1 3.7 3.55M32 65.8l3.75 4.6m-22.1 18.45L7.4 83m6.25 5.85.15.1M15.5 71.3l.4.05m4.1 3.8.2.15 2.3 2.15 5.15 4.75m-10-9.25-1.75-1.6m4.1 3.8-.85-.8-.8-.75-.7-.65" fill="none" stroke="#000" stroke-linecap="round" stroke-linejoin="round" stroke-opacity=".6" stroke-width=".05"/></g></defs></svg>