<svg viewBox="0 0 81.469 74.008" xmlns="http://www.w3.org/2000/svg" xmlns:xlink="http://www.w3.org/1999/xlink"><use transform="translate(.01 -.02)" width="81.45" height="74" xlink:href="#a"/><defs><g id="a"><path d="m268.95 115.3 1.1 11.45 1.6 17.05-1.2 4.8-6.55-7.65 6.55 7.65 1.2-4.8-1.6-17.05q2.6-3.45 6.25-5.75l2.95-13 1.15-.4-3.1 12.85 1.65-.95q4.6-1.85 9.05-2.05l7.5-10.75 1.15.3-7.45 10.4h1.2l10.7-8.65.9.5-10.35 8.25q6.15.6 12.05 4.3l.7.5 8.6-2.1.45.95-8.1 1.85 1.55 1.3 8.2 1.35.05.25.15.55-7.7-1.55-5.8-1.1 3.55-.8-3.55.8 5.8 1.1q2.95 3.05 4.4 7.05l4.15 2.05-.05.7-3.7-1.5q1.55 5.4.45 12.35l-.05.05q-.1-2.2-.65-4.4-2-7.4-8.25-11.5l-1.15-.7q-5.85-3.4-12.25-2.6l-3 .6q-5 1.35-8.55 4.65-2.15 2-3.7 4.7-4.15 7.2-1.95 15.25l.45 1.65-3.7-2.85-6.85-5.25q.15-1.55.45-3l-9.55-10.6-2.15-4.75 11.95 14.15q1.7-7.9 5.5-13.3l-1-11.65.55-.7m1.5 33.3-.4 1.8.4-1.8m33.45-18.9 8.5 3.5-8.5-3.5m-24.95 1.95 6.75-9.4 5.95-4.75-5.95 4.75-6.75 9.4m10.25-14.25-3.5 4.85 3.5-4.85m-11.9 3.05-5.65 23.35 5.65-23.35m24.5 3.35-11.3 2.6 11.3-2.6" fill="#e3c991" fill-rule="evenodd" transform="translate(-234.75 -105.95)"/><path d="m270.05 126.75-1.1-11.45q4.2-4.95 10.3-7.3l-2.95 13q-3.65 2.3-6.25 5.75M268.4 116l1 11.65q-3.8 5.4-5.5 13.3l-11.95-14.15q7.6 1.35 12.2-4.55l1.9-2.85 2.35-3.4m-12.05 23.95q-.8-4.5-2.25-8.4l9.55 10.6q-.3 1.45-.45 3l-6.85-5.2m58.95-13.5q.95 3.8.85 7.55l-4.15-2.05q-1.45-4-4.4-7.05l7.7 1.55m.8 8.25q-.4 5.65-3.25 10.85v.1l-.05-.05.05-.05q1.1-6.95-.45-12.35l3.7 1.5m-2.65-13.55q1 2.1 1.65 4.5l-8.2-1.35-1.55-1.3 8.1-1.85m-.45-.95-8.6 2.1-.7-.5q-5.9-3.7-12.05-4.3l10.35-8.25.65.35q6.9 4 10.35 10.6M296.65 107q2.2.6 4.45 1.75l-10.7 8.65h-1.2l7.45-10.4m-19.35 13.45 3.1-12.85 2-.6q6.75-1.8 13.1-.3l-7.5 10.75q-4.45.2-9.05 2.05l-1.65.95" fill="#ead6aa" fill-rule="evenodd" transform="translate(-234.75 -105.95)"/><path d="m238.15 165.7 1.05-.85 5.6-5.5.95-1.1 3.8-5 1.25-1.9 2.75-4.8 1-2.2q4.15 2.65 3.5 6.45l-1.1 1-.1.1q-2.85 2.5-5.25 5.6l-.8 1q-1.95 2.6-3.55 5.55l-.65 1.25-2.4 5.1-6.05-4.7m15.4-19.15 3.4 5.25-3.4-5.25M252 153.8v-.4l-.05.4h.05m-2.45-.55 2.05 4.25-2.05-4.25m-3.8 5 5.05.25-5.05-.25m5.05-6.9 6.05.55-6.05-.55m-11.6 13.5 7.4.45-7.4-.45m5.6-5.5 2.45 4.7-2.45-4.7" fill="#d20000" fill-rule="evenodd" transform="translate(-234.75 -105.95)"/><path d="m254.55 144.35.65-1.4 3.15 2.4 11.25 8.6q-5.95.15-9.9 2.15-3.9 2.1-5.9 5.95l-1.65-3.5-.55-1.05.55 1.05 1.65 3.5q-2.2 4.25-1.95 10.95l-3.95-7.65-.65-1.3.65 1.3 3.95 7.65.2 3.35-7.85-5.95 2.4-5.1 1.3.05-1.3-.05.65-1.25q1.6-2.95 3.55-5.55l.8-1q2.4-3.1 5.25-5.6l.1-.1 1.1-1q.65-3.8-3.5-6.45m2.3 7.55h.15l2.7 4.2-2.7-4.2h-.15m.15 0-.05-.1.05.1m-5 1.9h-.05l.05-.4v.4m-1.2 4.7 1.35.05-1.35-.05" fill="#900" fill-rule="evenodd" transform="translate(-234.75 -105.95)"/><path d="m255.2 142.95-2.95-2.25q-.65-2.3 1.9-2.4l2.2 1.65 6.85 5.2 6.85 5.25 3.7 2.85 2.3 1.7.1 1.2-16.9-12.7.1 1.2q-.2.7-1 .7l-3.15-2.4m-17.8 25.3-2.5-1.8q-.55-1.9 1.65-2l1.6 1.25 6.05 4.7 7.85 5.95 2.2 1.7.05.95-.05.2-14.4-11.1q.2.8-.05 1.15-.2.4-.85.25l-1.55-1.25" fill="#ffe375" fill-rule="evenodd" transform="translate(-234.75 -105.95)"/><path d="m269.6 153.95-11.25-8.6q.8 0 1-.7l16.25 12.45q-.45.4-1.25.5l-4.75-3.65m-20.5 23.3-10.15-7.75q.65.15.85-.25l14.15 10.55q-.45.25-1.65 0l-3.2-2.55" fill="#fc0" fill-rule="evenodd" transform="translate(-234.75 -105.95)"/><path d="m259.35 144.65-.1-1.2 16.9 12.7-.25.6-.3.35-16.25-12.45m-19.55 24.6q.25-.35.05-1.15l14.4 11.1-.1.25-.2.35-14.15-10.55" fill="#d2a800" fill-rule="evenodd" transform="translate(-234.75 -105.95)"/><path d="m237.4 168.25 1.55 1.25 10.15 7.75q-3.55 3.25-7.45 1.2-1.4-3.05-.15-4.8l-4.55-3.7.45-1.7" fill="#999" fill-rule="evenodd" transform="translate(-234.75 -105.95)"/><path d="m236.95 169.95 4.55 3.7q-1.25 1.75.15 4.8-.7-.35-1.45-.9-4-2.95-3.25-7.6" fill="#ccc" fill-rule="evenodd" transform="translate(-234.75 -105.95)"/><path d="m34.2 9.35-.55.7m10.85-8q-6.1 2.35-10.3 7.3m-17 11.5q7.6 1.35 12.2-4.55l1.9-2.85 2.35-3.4M19.35 25.6l-2.15-4.75M3.4 59.75l1.05-.85 5.6-5.5.95-1.1 3.8-5 1.25-1.9 2.75-4.8 1-2.2.65-1.4-2.95-2.25q-.65-2.3 1.9-2.4L21.6 34q-.8-4.5-2.25-8.4m9.1 13.6 6.85 5.25m-13.1 1.4-3.4-5.25m6.15 9.55-2.7-4.2h-.15l-6.05-.55m.8 6.15.55 1.05 1.65 3.5q2-3.85 5.9-5.95 3.95-2 9.9-2.15L23.6 39.4 20.45 37m1.75 8.85.05.1m-5.4 5.6L14.8 47.3m2.6 5.3-1.35-.05L11 52.3m1.5 5.8.65 1.3 3.95 7.65q-.25-6.7 1.95-10.95m21.8-4.95.3-.35.25-.6-.1-1.2-2.3-1.7-3.7-2.85M21.6 34l6.85 5.2m49.6.45q-.1-2.2-.65-4.4-2-7.4-8.25-11.5l-1.15-.7q-5.85-3.4-12.25-2.6l-3 .6q-5 1.35-8.55 4.65-2.15 2-3.7 4.7-4.15 7.2-1.95 15.25L39 47.3m-36.35 15-2.5-1.8q-.55-1.9 1.65-2l1.6 1.25 6.05 4.7m2.4-5.1-7.4-.45m-.25 4.65L2.65 62.3 2.2 64m4.7 8.5q3.9 2.05 7.45-1.2L4.2 63.55m15.3 9.7.05-.2-.05-.95-2.2-1.7-7.85-5.95M6.9 72.5q-.7-.35-1.45-.9-4-2.95-3.25-7.6m38.65-12.85q-.45.4-1.25.5L34.85 48m-21.7 11.4-1.3-.05m.65-1.25-2.45-4.7m9.15 20.45q-.45.25-1.65 0l-3.2-2.55m5.15 1.95-.1.25-.2.35m-2.1-6.8.2 3.35m63.05-50.7.05.25.15.55q.95 3.8.85 7.55l-.05.7q-.4 5.65-3.25 10.85v.1l-.05-.05m.65-24.45q1 2.1 1.65 4.5m-2.1-5.45.45.95m-.45-.95Q74.8 7.65 67.9 3.65l-.65-.35M60.75.75l1.15.3q2.2.6 4.45 1.75l.9.5m-21.6-1.65-1.15.4M60.75.75q-6.35-1.5-13.1.3l-2 .6" fill="none" stroke="#000" stroke-linecap="round" stroke-linejoin="round" stroke-opacity=".498" stroke-width=".1"/><path d="M35.3 20.8 34.2 9.35M29.15 35l6.55 7.65 1.2-4.8-1.6-17.05m-18.1.05L29.15 35m6.15 9.45.4-1.8m41.95-15.4-8.5-3.5m1.45-6.7-3.55.8 5.8 1.1 7.7 1.55m-1.85-5.3-8.1 1.85M67.25 3.3 56.9 11.55l-5.95 4.75-6.75 9.4m-1.65-11.2 3.1-12.85m5.3 14.65 3.5-4.85 7.45-10.4m15.75 26.2 3.7 1.5m-25.6-8.3 11.3-2.6m-30.15 20 5.65-23.35" fill="none" stroke="#674934" stroke-linecap="round" stroke-linejoin="round" stroke-opacity=".302" stroke-width=".1"/><path d="m259.5 143.95-.6.45-.75-.1q-.35-.2-.45-.6t.05-.75q.25-.35.65-.45l.7.1.45.6-.05.75M240.55 169.1l-.45.3-.5-.05-.4-.4q-.1-.3.1-.55l.4-.35.55.1.35.45-.05.5M239.9 172.8q-.3.5-.8.6l-1.05-.1q-.45-.3-.6-.8-.15-.55.1-1.05.3-.45.85-.6l1 .1q.5.3.65.85l-.15 1M240.8 175.7l-.6.45-.75-.1-.45-.6q-.1-.4.05-.75.25-.35.65-.45l.7.1.45.6-.05.75" fill="#fff" fill-rule="evenodd" transform="translate(-234.75 -105.95)"/></g></defs></svg>