<svg viewBox="0 0 81.544 81.544" xmlns="http://www.w3.org/2000/svg" xmlns:xlink="http://www.w3.org/1999/xlink"><use transform="translate(-.01 -.01)" width="81.55" height="81.55" xlink:href="#a"/><defs><g id="a"><path d="M299.6 166.4q4.3-2.2 5.85-.55l.1.1-3.45 1.95q-.9-1.3-5.55 1.55l3.05-3.05m6.45 4.15-.8 1.2-3.85.35q1.05-1.15 1.25-2.05l3.4.5m-3 3.5-14 14-.85.55-.3.1q-1.25.45-2.4-.3l-2.7-2.7q1.35.85 2.8.7l1.35-.45.85-.45 1.2-1 10.9-10.9 3.15.45M241.5 224.5l3-3q-2.8 4.6-1.55 5.55l-1.9 3.4-.1-.1q-1.65-1.55.55-5.85m3.6 3.1 2.05-1.25-.35 3.85-1.2.8-.5-3.4m3.55-2.75 10.95-10.95 1-1.2.45-.85.45-1.35q.15-1.45-.7-2.8l2.7 2.7q.7 1.2.3 2.4l-.1.3-.55.85L249.1 228l-.45-3.15" fill="#e0e6ed" fill-rule="evenodd" transform="translate(-235.1 -160)"/><path d="M305.55 165.95q1.9 2.1.5 4.6l-3.4-.5q.35-1.25-.55-2.15l3.45-1.95m-.3 5.8-.35.45-1.85 1.85-3.15-.45 1.5-1.5 3.85-.35m-62.3 55.3q.95.85 2.15.55l.5 3.4q-2.45 1.35-4.55-.55l1.9-3.4m4.2-.7 1.5-1.5.45 3.15-1.8 1.8-.5.4.35-3.85" fill="#fff" fill-rule="evenodd" transform="translate(-235.1 -160)"/><path d="m299.6 166.4 5.55-5.55q1.65-1.35 3.25-.25l4.95 4.95-1.85 1.35 5.05-1.85-9.55 9.55-4.9.4 2.8-2.8.35-.45.8-1.2q1.4-2.5-.5-4.6l-.1-.1q-1.55-1.65-5.85.55m2.15 13.45h-.5l-2.7-1.3.8-.8 4.45.05-2.05 2.05M254.9 226.7l-2 2-.1-4.4.85-.85 1.25 2.75v.5m-5.2 5.2-9.55 9.55 1.85-5.05-1.35 1.85-4.95-4.95q-1.1-1.6.25-3.25l5.55-5.55q-2.2 4.3-.55 5.85l.1.1q2.1 1.9 4.55.55l1.2-.8.5-.4 2.75-2.75-.35 4.85" fill="#8a8a8a" fill-rule="evenodd" transform="translate(-235.1 -160)"/><path d="m316.55 165.05-5.05 1.85 1.85-1.35 3.2-.5m-76.4 76.4.5-3.2 1.35-1.85-1.85 5.05" fill="#545454" fill-rule="evenodd" transform="translate(-235.1 -160)"/><path d="m302.1 175 4.9-.4-3.2 3.2-4.45-.05 2.75-2.75m-3.55 3.55 2.7 1.3-4.05.05 1.35-1.35m-2.35 3.35.05-.05 4.45-.95-1.25 1.25-3.2-.3-.05.05m-38.95 42.45-1.3 1.3 1-4.5.3 3.2m-4.35 4.35-3.2 3.2.35-4.85 2.75-2.75.1 4.4m.75-5.25 1.35-1.35-.1 4.1-1.25-2.75" fill="#787878" fill-rule="evenodd" transform="translate(-235.1 -160)"/><path d="M301.25 179.85h.5l-1.05 1.05-4.45.95-.05.05-.9-.1 1.9-1.9 4.05-.05m-15.75 8.55q1.15.75 2.4.3l.3-.1 3.8 1-2.65 2.65-3.85-3.85m4.6-1.4 2.7-2.7 4.55-.05-2 2-2.85-.65 2.45 1.05-2.2 2.2-2.65-1.85m-22.75 27.25-2.65 2.65-1-3.8.1-.3q.4-1.2-.3-2.4l3.85 3.85m-3.4 3.4-2.2 2.2-1.1-2.4.65 2.85-1.95 1.95v-4.5l2.7-2.7 1.9 2.6m-8 8-1.05 1.05v-.5l.1-4.1 1.9-1.9.05.95-1 4.5" fill="#545454" fill-rule="evenodd" transform="translate(-235.1 -160)"/><path d="m295.3 181.8.9.1.05-.05 3.2.3-2.1 2.1-4.55.05 2.5-2.5m-6.1 6.1.9-.9 2.65 1.85-3.55-.95m-29.85 34.35-2.1 2.1-.3-3.2-.05-.95 2.45-2.45v4.5m2.7-7.2.95-.95.95 3.55-1.9-2.6" fill="#666" fill-rule="evenodd" transform="translate(-235.1 -160)"/><path d="m282.8 185.7 8.75 8.75-.65 1.15-10.35-10.35q-1.9 1-4.7 4.5 1.5-2.4 3.65-4.35 1.75-1.25 2.55-.45l.75.75" fill="#ba0101" fill-rule="evenodd" transform="translate(-235.1 -160)"/><path d="m288.2 188.6.85-.55.15-.15 3.55.95-.75.75-3.8-1m7.15-2.35-.4.4-2.45-1.05 2.85.65M264.7 216.9l-.75.75-.95-3.55.15-.15.55-.85 1 3.8m-2.95 2.95-.45.45-.65-2.85 1.1 2.4" fill="#424242" fill-rule="evenodd" transform="translate(-235.1 -160)"/><path d="m270.9 211.4 2.05 2.05q-1.55 1.95-2.1 1.6l-9.8-9.8q-.45-.55.8-2.2 2.2-2.1 5.05-3.35-2.05 2.95-2.2 5.5l6.2 6.2m4.05-20.05.9-1.6q2.8-3.5 4.7-4.5l10.35 10.35q-.5.7-1.1.6l-9.45-9.45q-2.85 1.25-5.4 4.6" fill="#8a0000" fill-rule="evenodd" transform="translate(-235.1 -160)"/><path d="m291.55 194.45.1.4q-.65 2.25-3.1 3l-8.25-8.25q-2.55.15-5.55 2.25l.2-.5q2.55-3.35 5.4-4.6l9.45 9.45q.6.1 1.1-.6l.65-1.15m-18.6 19q-.8 2.5-3.2 3.2l-9.7-9.7q-.8-.8.45-2.55l1.35-1.35q-1.25 1.65-.8 2.2l9.8 9.8q.55.35 2.1-1.6" fill="#600" fill-rule="evenodd" transform="translate(-235.1 -160)"/><path d="M286.85 196.15q-.65.35-1.15.85l-4.4-4.4.35-1.65 5.2 5.2m-2.9 2.1-1 1-.7-2.3.5.4 1.2.9M271.6 210.3l-.7 1.1-.15-.15-.75-2.15-.9-2.8-.2-.7.45-.25 2.25 4.95" fill="#420f42" fill-rule="evenodd" transform="translate(-235.1 -160)"/><path d="m276.6 199.5-.05-.05q2.1-1 3.6-3l1.45 1.95q-1.5 1.2-2.95 2.35l-2.05-1.25m5.25-6.35 1.8 1.8-.9 2.4-.5-.4-1.25-.85.85-2.95m-5 7.3 2.1 1.3-3.55 2.65-.5-.6-.7-.8q1.55-1.05 2.65-2.55m-2.2 3.7-3.2 4-1.8-2.9 3.65-2.75 1.35 1.65m-5.55 2.15.9 2.8-3.05-2.65 2.15-.15" fill="#944994" fill-rule="evenodd" transform="translate(-235.1 -160)"/><path d="m285.7 197-1.15 1.45-.6-.2-1.2-.9.9-2.4 2.05 2.05m-2.75 2.25.15.45-2.65 2.25.45.45q-2.2 1.4-3.95 3.95l-.45-.55q-2.4 2-4.05 4.85l-.85-.35-2.25-4.95-.05-.65.35.55 1.8 2.9 3.2-4 .25-.35.5.6 3.55-2.65-2.1-1.3-.6-.4.35-.55 2.05 1.25q1.45-1.15 2.95-2.35l-1.45-1.95-.2-.3-.05-.45.85-1.05-.25 1.05.5.4 1.25.85.7 2.3m-18.25 5.95 1.55.65.7.6 3.05 2.65.75 2.15-6.05-6.05m15.75-3.25-1.8-1.2 1.8 1.2m-3.95 3.85-1.1-1.4 1.1 1.4" fill="#636" fill-rule="evenodd" transform="translate(-235.1 -160)"/><path d="m266.25 205.85 2.65-.25.2.7-2.15.15-.7-.6m3.05-1.15v-.1l3.95-2.75.55.55q1.55-.85 2.45-2.35l.6.4q-1.1 1.5-2.65 2.55l-.4-.6.4.6.7.8-.25.35-1.35-1.65-3.65 2.75-.35-.55m7.25-5.25L276 199q2.2-1.2 3.9-3.3l.05.45.2.3q-1.5 2-3.6 3m4.2-4.8.55-2.05.55.55-.85 2.95-.5-.4.25-1.05" fill="#af61af" fill-rule="evenodd" transform="translate(-235.1 -160)"/><path d="M78.25 5.55 73.3.6q-1.6-1.1-3.25.25L64.5 6.4q4.3-2.2 5.85-.55l.1.1q1.9 2.1.5 4.6l-.8 1.2-.35.45-9.6 9.6m11.7-7.2 9.55-9.55m-3.2.5 3.2-.5M68.7 17.8l3.2-3.2m-5.25 5.25 2.05-2.05m-3.1 3.1 1.05-1.05m-2.3 2.3 1.25-1.25m1.95-10.85q-.2.9-1.25 2.05l-1.5 1.5m-.3-7.2-3.05 3.05Q66.1 6.6 67 7.9q.9.9.55 2.15M50.4 28.4q1.15.75 2.4.3l.3-.1.85-.55 6.25-6.25m-12.5 3.9q1.35.85 2.8.7l1.35-.45.85-.45 1.2-1 10.9-10.9M40.75 29.75q1.5-2.4 3.65-4.35 1.75-1.25 2.55-.45l.75.75m12.15.95 4.5-4.5m-4.5 4.5-5.6 5.6 2.2 2.2.1.4q-.65 2.25-3.1 3l-1.7-1.7q-.65.35-1.15.85l-1.15 1.45-.6-.2-1 1 .15.45-2.65 2.25.45.45q-2.2 1.4-3.95 3.95l-.45-.55q-2.4 2-4.05 4.85l-.85-.35-.7 1.1 2.05 2.05q-.8 2.5-3.2 3.2l-2.4-2.4-27.2 27.2.5-3.2L.6 73.3q-1.1-1.6.25-3.25L9.4 61.5q-2.8 4.6-1.55 5.55.95.85 2.15.55l2.05-1.25L24.5 53.9l1-1.2.45-.85.45-1.35q.15-1.45-.7-2.8l-.75-.75q-.8-.8.45-2.55l1.35-1.35q2.2-2.1 5.05-3.35-2.05 2.95-2.2 5.5l1.55.65 2.65-.25.45-.25-.05-.65v-.1l3.95-2.75.55.55q1.55-.85 2.45-2.35l.35-.55-.05-.05-.55-.45q2.2-1.2 3.9-3.3l.85-1.05.55-2.05.35-1.65-1.35-1.35q-2.55.15-5.55 2.25l.2-.5.9-1.6m13.5 2.5L50.4 28.4m-4.5 7.7-.5-.4.25-1.05m-2.1 6.1 1.8 1.2m1.8-5 .7 2.3m-.2-1.9-.5-.4-1.25-.85m2.95 2.15-1.2-.9M40.3 44.4l1.1 1.4m.1-6.3 2.05 1.25M40.3 44.4l-.5-.6-.7-.8-.4-.6m-3.05 8.85.15.15m-1.55-6.05 2.25 4.95m-.85.95L29.6 45.2m22.15-9.05-5.2-5.2M28.6 53.1l.1-.3q.4-1.2-.3-2.4m-.5 3.7.15-.15.55-.85m-1.65 1.95.95-.95m-.95.95-2.7 2.7M19.9 62.1l4.35-4.35m-18.3 12.7q2.1 1.9 4.55.55l1.2-.8.5-.4 7.7-7.7M6.4 64.5q-2.2 4.3-.55 5.85l.1.1M47.7 25.7l2.7 2.7" fill="none" stroke="#000" stroke-linecap="round" stroke-linejoin="round" stroke-opacity=".4" stroke-width=".2"/><path d="m55.8 35.6.65-1.15m-16.6-3.1q2.55-3.35 5.4-4.6l9.45 9.45q.6.1 1.1-.6m-29.05 7.45q-1.25 1.65-.8 2.2l9.8 9.8q.55.35 2.1-1.6" fill="none" stroke="#c30" stroke-linecap="round" stroke-linejoin="round" stroke-width=".2"/></g></defs></svg>