<svg viewBox="0 0 79.276 130.51" xmlns="http://www.w3.org/2000/svg" xmlns:xlink="http://www.w3.org/1999/xlink"><use transform="translate(-.02)" width="79.3" height="130.5" xlink:href="#a"/><defs><g id="a"><path d="m307.75 155.45-1.35-2.05q4.9-3.4 11.15-6.8-5.3 4.35-9.8 8.85m-2.95-.95.75 3.15-2.95 3.05-1.7-3.25 3.9-2.95" fill="#b4b4e7" fill-rule="evenodd" transform="translate(-238.35 -146.5)"/><path d="m306.4 153.4-1.6 1.1-3.9 2.95-2.55 2.3q-3.25 2.9-5.35 5.8l-4.85.05q12-15.35 29.4-19-6.25 3.4-11.15 6.8" fill="#fff" fill-rule="evenodd" transform="translate(-238.35 -146.5)"/><path d="m306.4 153.4 1.35 2.05-2.2 2.2-.75-3.15 1.6-1.1m-6.4 10.4-1.65-4.05 2.55-2.3 1.7 3.25-2.6 3.1m-10.3 6.7 3 2.8-2.95 4.65-2.75-3.45 2.7-4m-6.3 20.5q-1.05 2.8-1.85 5.7l-5.95-2.2.7-1.55 2-3.95 5.1 2" fill="#9090c3" fill-rule="evenodd" transform="translate(-238.35 -146.5)"/><path d="m298.35 159.75 1.65 4.05q-4.05 4.65-7.3 9.5l-3-2.8 3.3-4.95q2.1-2.9 5.35-5.8m-12.85 17.2 1.5-2.45 2.75 3.45-2.95 5.3-3.4-3.1 2.1-3.2m-5.65 26.95-.65 3.95-4.7-3.6-.25-.05q-1.1-1.1-.55-3.85l6.15 3.55m-5.9 4.85q-2 1.45-4.2 4.5l-1.2-6.8q1.4-1.4 2.9-1.95l2.5 4.25" fill="#7e7eb1" fill-rule="evenodd" transform="translate(-238.35 -146.5)"/><path d="m293 165.55-3.3 4.95-2.7 4-1.5 2.45-1.3-5.8q1.9-3 3.95-5.55l4.85-.05" fill="#fcfcff" fill-rule="evenodd" transform="translate(-238.35 -146.5)"/><path d="m284.2 171.15 1.3 5.8-2.1 3.2-2.75 4.65-3.1-2.2 5.9-10.25.75-1.2" fill="#eaeaff" fill-rule="evenodd" transform="translate(-238.35 -146.5)"/><path d="m280.65 184.8 2.75-4.65 3.4 3.1q-1.95 3.85-3.4 7.75l-5.1-2 2.35-4.2m.45 13.5q-.7 2.75-1.25 5.6l-6.15-3.55q.2-1.35.8-3.15l6.6 1.1" fill="#6c6c9f" fill-rule="evenodd" transform="translate(-238.35 -146.5)"/><path d="m277.55 182.6 3.1 2.2-2.35 4.2-2 3.95-4.65-.1 5.9-10.25" fill="#d8d8ff" fill-rule="evenodd" transform="translate(-238.35 -146.5)"/><path d="m276.3 192.95-.7 1.55-1.1 2.7q-.6 1.8-.8 3.15-.55 2.75.55 3.85l-2.8.3q-1.5.55-2.9 1.95-2.2 2.25-4.15 6.6-.65-.2-2.3.55-2.15 1.2-3.95 2.65l13.5-23.4 4.65.1" fill="#c6c6f9" fill-rule="evenodd" transform="translate(-238.35 -146.5)"/><path d="m275.6 194.5 5.95 2.2-.45 1.6-6.6-1.1 1.1-2.7" fill="#5a5a8d" fill-rule="evenodd" transform="translate(-238.35 -146.5)"/><path d="M279.2 207.85q-2.45-1.2-5.25.9l-2.5-4.25 2.8-.3.25.05 4.7 3.6m-9.45 5.4q-2.8 4-5.9 10.75-1.8-4.25.25-7.9 1.4-2.75.3-3.05 1.95-4.35 4.15-6.6l1.2 6.8" fill="#363669" fill-rule="evenodd" transform="translate(-238.35 -146.5)"/><path d="m263.85 224 .75 1.55q2.05 2.85-1.05 3.55v-.1q-3.45-5.3-3.05-11.15 0-2.9-7.65 6.2l-.75-.7q2.3-4.05 6.05-7.1 1.8-1.45 3.95-2.65 1.65-.75 2.3-.55 1.1.3-.3 3.05-2.05 3.65-.25 7.9m-24.2 33.75q-1.35-1.55-1.15-4.55 1-3.8 2.9-7.1l1.8 3.3q-2.2 1.2-1.85 3.15l.25 4.5q-.7 1.25-1.95.7" fill="#ab7845" fill-rule="evenodd" transform="translate(-238.35 -146.5)"/><path d="m259.9 230.8.75.65q-1.05.55-2 1.55l-7.1-7.75L249 231l-.6-.6-.6-.7 3.9-6.75.4.4.75.7 7.05 6.75m-8.5 13.6-.1 1.95-4.75-4.35 2.9 6.15q-1.3 3.25-4 1.55l-3.15-5.2-.45-.75 2-3.35 2.15-.05.3.25 5.1 3.8m-7.8-4.75 4.15-8.05 5.05 6.05-9.2 2" fill="#dedeab" fill-rule="evenodd" transform="translate(-238.35 -146.5)"/><path d="M263.4 229.15q-1.85.45-3.5 1.65l-7.05-6.75q7.65-9.1 7.65-6.2-.4 5.85 3.05 11.15l-.15.15m-14.75 25.65q-.4 1.85-1.5 2.8-2.9 2.35-5.45 1.45-1.25-.4-2.05-1.3 1.25.55 1.95-.7l-.25-4.5q-.35-1.95 1.85-3.15l-1.8-3.3.9-1.6 3.15 5.2 3.2 5.1m10.4-30.85q-.1-.6-.65-.9l-1.1-.1q-.6.25-.95.85-.4.65-.3 1.3.1.6.6.9l1.15.1q.6-.25 1-.9l.25-1.25m-16.7 28.4q-.3.45-.15.95.15.55.65.8l1 .1q.5-.05.8-.5.25-.5.1-1.1l-.6-.75-1.05-.15q-.5.15-.75.65" fill="#963" fill-rule="evenodd" transform="translate(-238.35 -146.5)"/><path d="m258.65 233-1.5 1.75-1.5 3.25-.8-.9-.85 3.35h-1.25l-.15 3.45-1.2.5-5.1-3.8-.3-.25-2.15.05-.25-.75 9.2-2-5.05-6.05.65-1.2.6.6 2.55-5.75 7.1 7.75m-7.35 13.35-1.65 8.5-1-.05-3.2-5.1q2.7 1.7 4-1.55l-2.9-6.15 4.75 4.35m3.55-9.25L249 231l5.85 6.1m-8.55 3.5 6.45-.15-6.45.15" fill="#cc9" fill-rule="evenodd" transform="translate(-238.35 -146.5)"/><path d="M68.05 6.9 66.45 8m.75 3.15 2.2-2.2q4.5-4.5 9.8-8.85-6.25 3.4-11.15 6.8m-5.5 4.05L66.45 8m-4.8 9.3 2.6-3.1 2.95-3.05m-4.65-.2L60 13.25q-3.25 2.9-5.35 5.8L51.35 24m3 2.8q3.25-4.85 7.3-9.5M49.8 19.1q-2.05 2.55-3.95 5.55m1.3 5.8 1.5-2.45 2.7-4M39.2 36.1l5.9-10.25.75-1.2m-.8 9 2.1-3.2M42.3 38.3l2.75-4.65m3.4 3.1 2.95-5.3 2.95-4.65M43.2 50.2q.8-2.9 1.85-5.7 1.45-3.9 3.4-7.75m-8.5 5.75-2 3.95-.7 1.55m5.95 2.2-.45 1.6q-.7 2.75-1.25 5.6l-.65 3.95q-2.45-1.2-5.25.9-2 1.45-4.2 4.5-2.8 4-5.9 10.75l.75 1.55q2.05 2.85-1.05 3.55l-.15.05q-1.85.45-3.5 1.65l.75.65q-1.05.55-2 1.55l-1.5 1.75-1.5 3.25-.8-.9-.85 3.35H14.4l-.15 3.45-1.2.5-.1 1.95-1.65 8.5-1-.05q-.4 1.85-1.5 2.8-2.9 2.35-5.45 1.45-1.25-.4-2.05-1.3-1.35-1.55-1.15-4.55 1-3.8 2.9-7.1l.9-1.6-.45-.75 2-3.35-.25-.75L9.4 85.1l.65-1.2-.6-.7 3.9-6.75.4.4q2.3-4.05 6.05-7.1l13.5-23.4 5.9-10.25m1.65 25.25-4.7-3.6-.25-.05-2.8.3m2.8-.3q-1.1-1.1-.55-3.85.2-1.35.8-3.15l1.1-2.7m-11.2 18.55q1.1.3-.3 3.05-2.05 3.65-.25 7.9m-4.8-.05-.25 1.25q-.4.65-1 .9l-1.15-.1q-.5-.3-.6-.9-.1-.65.3-1.3.35-.6.95-.85l1.1.1q.55.3.65.9m5.35-10.9q1.95-4.35 4.15-6.6 1.4-1.4 2.9-1.95M19.8 69.75q1.8-1.45 3.95-2.65 1.65-.75 2.3-.55m13.9-24.05 2.35-4.2M79.2.1q-17.4 3.65-29.4 19M13.75 76.85l.75.7 7.05 6.75m-10.9.2-.6-.6m.6.6 5.85 6.1m-3.45 7.3-5.1-3.8-.3-.25-2.15.05M4 105.85q.25-.5.75-.65l1.05.15.6.75q.15.6-.1 1.1-.3.45-.8.5l-1-.1q-.5-.25-.65-.8-.15-.5.15-.95m3.1-2.65 3.2 5.1m-3.2-5.1L3.95 98m10.45-4.05-6.45.15" fill="none" stroke="#000" stroke-linecap="round" stroke-linejoin="round" stroke-opacity=".4" stroke-width=".2"/><path d="M18.15 75.8q1.9-.2 4.3-4.15-3.65 2.3-4.3 4.15m8.3-8.25q-6.15 3-11.9 9.9m3.25 1.15-1.7.8m9.1-8.9q-2.8 4.95-4.65 6.4m5.25 1.45q-.45 2.95-2.45 4.9m1.25-8.7-1.1 2.65q-1.7 3.45-4.25 4.9m-11.3 22.2q-1.35 2.8-2.4 8.45m3.55-6.2q-.55 3.6-2.6 6.15m-1.2-12.6q-3.4 5.45-3.25 11.8" fill="none" stroke="#000" stroke-linecap="round" stroke-linejoin="round" stroke-opacity=".29" stroke-width=".2"/><path d="m304.45 173.35 2.65-3.55 1.45 2.65-1.9 3.4-2.2-2.5m3.8-4.85q3.55-4.2 8.2-8.65-3.55 5.1-6.55 10.15l-1.65-1.5" fill="#b4b4e7" fill-rule="evenodd" transform="translate(-238.35 -146.5)"/><path d="m307.1 169.8-2.65 3.55-1.8 2.6q-2.15 3.35-3.3 6.4l-4.3 1.2q6.95-16.35 21.4-23.7-4.65 4.45-8.2 8.65l-1.15 1.3" fill="#fff" fill-rule="evenodd" transform="translate(-238.35 -146.5)"/><path d="m307.1 169.8 1.15-1.3 1.65 1.5-1.35 2.45-1.45-2.65m-4.45 6.15 1.8-2.6 2.2 2.5-1.6 3.3-2.4-3.2m-1.8 13.3-1.5 4.8-3.2-2.4 1.45-4.2 3.25 1.8m-3.95 17.85q-.3 2.75-.35 5.4l-5.7-.5.2-1.55.85-3.95 5 .6" fill="#9090c3" fill-rule="evenodd" transform="translate(-238.35 -146.5)"/><path d="M299.35 182.35q1.15-3.05 3.3-6.4l2.4 3.2q-2.45 5.1-4.2 10.1l-3.25-1.8 1.25-3.7.5-1.4m0 11.7q-.75 2.7-1.25 5.4l-3.8-1.9 1.1-3.4.75-2.5 3.2 2.4m-2.55 25.25.4 3.65-5.05-2.1-.25.05q-1.2-.75-1.4-3.3l6.3 1.7m-4.05 5.65q-1.5 1.7-2.6 4.95l-2.7-5.7q.9-1.6 2.05-2.4l3.25 3.15" fill="#7e7eb1" fill-rule="evenodd" transform="translate(-238.35 -146.5)"/><path d="m295.05 183.55 4.3-1.2-.5 1.4-1.25 3.7-1.45 4.2-.75 2.5-2.5-4.75q.95-3.1 2.15-5.85" fill="#fcfcff" fill-rule="evenodd" transform="translate(-238.35 -146.5)"/><path d="m289.75 201 2.75-10.4.4-1.2 2.5 4.75-1.1 3.4-1.3 4.7-3.25-1.25" fill="#eaeaff" fill-rule="evenodd" transform="translate(-238.35 -146.5)"/><path d="M298.1 199.45q-.85 3.85-1.2 7.65l-5-.6 1.1-4.25 1.3-4.7 3.8 1.9m-1.55 14.6.25 5.25-6.3-1.7q-.15-1.25.05-2.95l6-.6" fill="#6c6c9f" fill-rule="evenodd" transform="translate(-238.35 -146.5)"/><path d="m286.95 211.45 2.8-10.45 3.25 1.25-1.1 4.25-.85 3.95-4.1 1" fill="#d8d8ff" fill-rule="evenodd" transform="translate(-238.35 -146.5)"/><path d="m280.6 235.35 6.35-23.9 4.1-1-.2 1.55-.3 2.65q-.2 1.7-.05 2.95.2 2.55 1.4 3.3-1.3.1-2.4.9-1.15.8-2.05 2.4-1.45 2.45-2.1 6.8-.65 0-1.9.95-1.65 1.6-2.85 3.4" fill="#c6c6f9" fill-rule="evenodd" transform="translate(-238.35 -146.5)"/><path d="M296.55 212.5v1.55l-6 .6.3-2.65 5.7.5" fill="#5a5a8d" fill-rule="evenodd" transform="translate(-238.35 -146.5)"/><path d="M297.2 222.95q-2.5-.5-4.45 2l-3.25-3.15q1.1-.8 2.4-.9l.25-.05 5.05 2.1m-7.05 6.95q-1.55 4.2-2.7 10.9-2.6-3.35-1.65-7.05.6-2.7-.45-2.75.65-4.35 2.1-6.8l2.7 5.7" fill="#363669" fill-rule="evenodd" transform="translate(-238.35 -146.5)"/><path d="m287.45 240.8 1 1.2q2.45 2-.1 3.35v-.05q-4.3-3.9-5.3-9.15-.7-2.55-5.25 7.25l-.85-.4q1.05-4.1 3.65-7.65 1.2-1.8 2.85-3.4 1.25-.95 1.9-.95 1.05.05.45 2.75-.95 3.7 1.65 7.05m-13.4 35.5q-1.5-1.05-2.1-3.8 0-3.55.9-6.9l2.35 2.4q-1.65 1.6-.85 3.2l1.3 4q-.35 1.25-1.6 1.1" fill="#ab7845" fill-rule="evenodd" transform="translate(-238.35 -146.5)"/><path d="m285.6 247.65.75.45q-.8.75-1.35 1.8l-8.1-5.1-.9 5.7-.7-.4-.7-.45 1.85-6.9.5.25.85.4 7.8 4.25m-4.35 14.05.4 1.75-5.2-2.7 3.95 4.7q-.35 3.15-3.1 2.35l-4-3.8-.55-.55.9-3.45 1.9-.55.35.1 5.35 2.15m-8-2.35 1.75-8.05 5.95 4.15-7.7 3.9" fill="#dedeab" fill-rule="evenodd" transform="translate(-238.35 -146.5)"/><path d="M288.25 245.35q-1.55.9-2.65 2.3l-7.8-4.25q4.55-9.8 5.25-7.25 1 5.25 5.3 9.15l-.1.05m-6.9 26.2q0 1.7-.7 2.85-2 2.7-4.45 2.5-1.2-.05-2.15-.6 1.25.15 1.6-1.1l-1.3-4q-.8-1.6.85-3.2l-2.35-2.4.45-1.6 4 3.8 4.05 3.75m1.85-29.7q-.25-.5-.8-.6l-.95.15q-.55.35-.7 1-.2.65.1 1.2l.75.65 1-.2.65-1q.15-.65-.05-1.2m-8.05 29q-.15.5.15.9.25.45.7.55l.9-.15.6-.7q.15-.5-.2-.95l-.7-.5-.9.1-.55.75" fill="#963" fill-rule="evenodd" transform="translate(-238.35 -146.5)"/><path d="m285 249.9-.95 1.9-.5 3.3-.95-.65.05 3.15-1.1.3.7 3.1-1 .7-5.35-2.15-.35-.1-1.9.55-.4-.65 7.7-3.9-5.95-4.15.3-1.2.7.4.9-5.7 8.1 5.1m-3.35 13.55.55 7.9-.85.2-4.05-3.75q2.75.8 3.1-2.35l-3.95-4.7 5.2 2.7m.95-9-6.6-3.95 6.6 3.95m-6.7 5.1 5.65-1.65-5.65 1.65" fill="#cc9" fill-rule="evenodd" transform="translate(-238.35 -146.5)"/><path d="m66.1 26.85 2.65-3.55L69.9 22q3.55-4.2 8.2-8.65-14.45 7.35-21.4 23.7m4.3-1.2q1.15-3.05 3.3-6.4l1.8-2.6m2.2 2.5 1.9-3.4 1.35-2.45q3-5.05 6.55-10.15m-11.4 19.3 1.6-3.3m-1.6 3.3q-2.45 5.1-4.2 10.1l-1.5 4.8q-.75 2.7-1.25 5.4-.85 3.85-1.2 7.65-.3 2.75-.35 5.4v1.55l.25 5.25.4 3.65q-2.5-.5-4.45 2-1.5 1.7-2.6 4.95-1.55 4.2-2.7 10.9l1 1.2q2.45 2-.1 3.35h-.1q-1.55.9-2.65 2.3l.75.45q-.8.75-1.35 1.8l-.95 1.9-.5 3.3-.95-.65.05 3.15-1.1.3.7 3.1-1 .7.4 1.75.55 7.9-.85.2q0 1.7-.7 2.85-2 2.7-4.45 2.5-1.2-.05-2.15-.6-1.5-1.05-2.1-3.8 0-3.55.9-6.9l.45-1.6-.55-.55.9-3.45-.4-.65 1.75-8.05.3-1.2-.7-.45 1.85-6.9.5.25q1.05-4.1 3.65-7.65l6.35-23.9 2.8-10.45 2.75-10.4.4-1.2q.95-3.1 2.15-5.85m2.55 3.9 1.25-3.7.5-1.4m-3.2 9.3 1.45-4.2m-4.6 14.8 1.3-4.7 1.1-3.4.75-2.5m-3.15 10.6L53.55 60l-.85 3.95m6.15 12.5-5.05-2.1-.25.05q-1.3.1-2.4.9m2.4-.9q-1.2-.75-1.4-3.3-.15-1.25.05-2.95l.3-2.65.2-1.55m-7.85 31.4q.2.55.05 1.2l-.65 1-1 .2-.75-.65q-.3-.55-.1-1.2.15-.65.7-1l.95-.15q.55.1.8.6M47 84.5q1.05.05.45 2.75-.95 3.7 1.65 7.05M47 84.5q.65-4.35 2.1-6.8.9-1.6 2.05-2.4m-8.9 13.55q1.2-1.8 2.85-3.4 1.25-.95 1.9-.95m-8.4 12 .85.4 7.8 4.25m-9.6 2.85-.7-.4m.7.4 6.6 3.95m-1.35 7.25-5.35-2.15-.35-.1-1.9.55m1.5 10.85.55-.75.9-.1.7.5q.35.45.2.95l-.6.7-.9.15q-.45-.1-.7-.55-.3-.4-.15-.9m2.15-3.05 4.05 3.75m-4.05-3.75-4-3.8m8.25-6.1-5.65 1.65" fill="none" stroke="#000" stroke-linecap="round" stroke-linejoin="round" stroke-opacity=".4" stroke-width=".2"/><path d="m47.55 91.85-.3 2.6q-.7 3.5-2.6 5.35m4.85-4.85q.35 2.7-.95 4.9m-1.45-11.7q-1.3 5.05-2.55 6.75M42.5 97l-1.3 1.15m6.4-12.9q-4.85 4.15-8.15 11.6m2.75-2.35q1.6-.65 2.8-4.7-2.7 2.9-2.8 4.7M36.55 119q-1.7 5.55-.1 11.1m5.05-6.35q.35 3.3-.85 6m-.8-7.7q-.5 2.8-.1 8" fill="none" stroke="#000" stroke-linecap="round" stroke-linejoin="round" stroke-opacity=".29" stroke-width=".2"/></g></defs></svg>