<svg viewBox="0 0 169.01 184.47" xmlns="http://www.w3.org/2000/svg" xmlns:xlink="http://www.w3.org/1999/xlink"><use transform="matrix(-1 0 0 1 173.6 .13)" width="179.9" height="184.35" xlink:href="#a"/><defs><use transform="matrix(4.569 0 -.2628 4.569 10.62 -.015)" width="37.05" height="40.35" xlink:href="#b" id="a"/><use width="37.05" height="40.35" xlink:href="#c" id="b"/><g id="c"><path d="m14.85 2.45.1.4.3 2.5-.2 2.65-1.45.75-.5.3.5 1.45.1 1.45V12l-.5.9-.8.45-.1.05.05-.15.15-.55-.25.55h-.05l-.05-.2-.9-1.6-.15-.2-2.3 1.05-1.15.55.25 2.7q.35 1.05.6 1.3l-2.8.6-.6-1.6v-.1h-.6q-2 .3-2.3.5L.8 13.2l-.2.25Q-.65 12.1-1.45 11.9l-.3-.75-.3-1.4-.45-.8-.1 1 .05 1.35.1.6q-.45.05-.8.25-1.45.6-1.05 2.7.1.85-1 1.5l-.55.35-.25.2-.3-.75v.15l.2.65.5 1.15h-.05l-.15-.05-.15.05.55.8-.1.65-1.55.15-.35-.3-1.45-1.4H-9l.85 1.5-.55-.55V19l.2.35.25.45.05.15-.3.25-.25-.3-.9-1.45v-.1l-.5-.35-.75-.6-.25-.25q-2.1-1.95-3.15-4.8l-.2-.55-.45-1.7q-.6-3.25.45-6.5l.9-2.2q2.75-5.55 8.7-7.85Q1.05-8.8 6.7-6.6q4.45 1.75 6.7 5.55l1 2.1.45 1.4" fill="#401e10" fill-opacity=".902" fill-rule="evenodd" transform="translate(18.5 20.15)"/><path d="M-.7-10q.3 0 1.25-1.3l.15-.25q1.1-1.55 1.3-2.6l.3.1.5.1v.3l-.9 2.05v.2l.45.05.45-.6.6-1.45.3-1.1.8-.1-.05.4-1.15 2.9.15.15.45-.6.5-.75.3-.2h.6l-.1.3q-.4.6-.45 1L3.9-10q-.95 1.25-2.2 1.3L-.7-10" fill="#8d4b20" fill-rule="evenodd" transform="translate(18.5 20.15)"/><path d="M17.8 10.15q.3 0 1.25-1.3l.15-.25q1.1-1.55 1.3-2.6l.3.1.5.1v.3l-.9 2.05v.2l.45.05.45-.6.6-1.45.3-1.1.8-.1-.05.4m.85 1.5-.1.3" fill="none" stroke="#000" stroke-linecap="round" stroke-linejoin="round" stroke-opacity=".243" stroke-width=".05"/><path d="M7.15-10.35q2.2-.7 3.5-4.45.85-2.5.85-3.35l.25.2.3.85q.2 1.75-.9 5-.95 2.85-2.5 3.9-.9.3-4.8-1l2-1.6Q7-12.2 7.5-13.65l.85-3.1.55-2.65q.8 2.2-.5 6l-.85 2.15-.4.9" fill="#8d4b20" fill-rule="evenodd" transform="translate(18.5 20.15)"/><path d="M27.4.75q.8 2.2-.5 6l-.85 2.15-.4.9" fill="none" stroke="#000" stroke-linecap="round" stroke-linejoin="round" stroke-opacity=".243" stroke-width=".05"/><path d="m11.95-6.65.6.55.5.6 1.2 1.45.2.3.75 1.2.2.3.5.9-.85-1-1.85-2-3.05-2.5-1.55-1.2-1.1-.9-.35-.25-.05.05-2-.95H5l-.5-.2-1.05-.4-.95-.2v-.05l2.25.35.45.15.75.2.35.15q1.55.55 2.85 1.3l1.25.8.05.45.1.3q.2.3.75.4l.55.05.1.15" fill="#6a310a" fill-rule="evenodd" transform="translate(18.5 20.15)"/><path d="M2.5-10.95v.05l.95.2 1.05.4.5.25-1.8.6Q1.65-8.9.7-8.25l-1.85 1.5q0-1.2.8-1.9-4.25 2.6-5.05 3.8l.55-1.85V-7l.05-.45.45-2.6 3.7-.8L1.8-11l.4.05h.3m2.6.85 2 .95.05-.05.35.25 1.1.9 1.55 1.2 3.05 2.5 1.85 2 .85 1 .65 1.15.1 1.3.45.3.3.1 1.15 2.75v.1L18.1 7.2h-.15l-.25-1.35-.25-1.1-.45.2-.15.1-.1.05-.35.2-.55-.8-.4-.65-.2-.6-.1.1.15.4.25.6.35.95.1.25-.15.05.3 1.4.05.05-.2.45-.1.15-.15.25-.05-.05-.2-.45-.75-1-.35-.45-.4-.5-.15-.15v.05l.05.15-.05-.1-2.6-3.4 1.05 2.3.55 1.6.2.9-2.5-3.25h-.05l2.2 4.6-.2-.35-.5-.55-.25-.1-.2-.05-.65.55-.35.25-.05-.05L8.2 2.7l-.15-.25q-1.5-3-4.4-5.95l3.5 5.35.4.75Q9 5.3 9.75 7.7l.2.7-1.25.75q0 .55.7 2.2l.5 1.1.5 1.25v.2h-.05l-4.3-9 .2.85 1.4 3.95.85 3.05-1.9-4.7.25 2.05v.4H6.8L4.95 6.7q.3 1.75 1.35 4.15L4.65 8q.15 1.9 2.1 5.95H6.5q-2.05-2.2-3.3-5.85l-.15-.5.1.55.45 1.6 1.95 4.35H5.4l-.5.05-1.65-2.85-.15-.25-.05-.1-.5-.9-.1-.15q.35-.3.3-.9l-.15-.45-.3-.4-.4-.5.05-.1v-.5Q1.9 6.2 1.4 6L.3 5.85-1.8 1.1l-.3-.8V.15L-2.65-2l.6 2.15.05.1 1.75-.2 1.55.2h1q0-.85-1.3-3.9v-.2l.05-.05L1-4v-.35h.8Q2.95-2 4.7.85h.8q-1.65-3-2.45-5.55v-.05h.05l3.65 3.9 2.55-1.3.1-.1 3.45-.5L10-5.95q-2.8-2.9-4.95-4.1l.05-.05M-5.5-4.25v.45q0 2.65.8 2.95h.5q-.25-.55.35-1.95l.75-1.45.1.2.1 1.1-.2 1.75-.1.5q0 3.25 1.5 10.05L-3.75 4.1l-.8-2.95 1.35 7.1q-2.5-4.6-2.5-9.65l.15-2.45.05-.4m18.55 3.2-.3-.25.25.3.05-.05" fill="#622c09" fill-rule="evenodd" transform="translate(18.5 20.15)"/><path d="m15.45 3.85-.3-.5.1-.1.2.6M-5.6 16.95l-.1.05-.25-.25-.9.55h-.65l-.3-.45v-.15q-.05-1.4-.65-4.2v-.25q.5 1.05.85 3.4l.05.2-.25-2.4.7 2.75-.7-4.15v-.25l.1-1.55 2.05 6.15.05.55m-4.6-20.8-.05-.1h.05v.1M13.9 5.5l-.05-.15.1.15.2.35-.25-.35" fill="#532608" fill-rule="evenodd" transform="translate(18.5 20.15)"/><path d="m17.85 7.3-.4.05-.6-2.3.15-.1.45-.2.25 1.1.25 1.35v.05h-.1v.05m-9.8 7.9-1 .2-1-1.4.45-.05h.35l.85.8.45.45h-.1" fill="#8c775a" fill-rule="evenodd" transform="translate(18.5 20.15)"/><path d="m4.5-10.3.5.2h.1l-.05.05H5l-.5-.25m4.2 25.35-.3.1-.25.05-.45-.45-.85-.8h-.1Q4.8 9.9 4.65 8l1.65 2.85 2.4 4.2M6.05 14l-.5.1L3.6 9.75l-.45-1.6-.1-.55.15.5q1.25 3.65 3.3 5.85l-.45.05m-1.15.15-.65.05-.15.05v-.05l-.55-1.7-.35-1.15-.15-.25-.1-.1-1.05.1h-.05l-.05-.6.4-.35.25-.25.1.15.5.9.05.1.15.25 1.65 2.85m-6-6.05.2.75q.05.45-.45.85-.5.35-1 .4l-.2-.1-.55-.65q-.5-.75-.95-.75-1.15 0-1.3 1.1l-.05.9v.05h-.05l-1.05.6.5-17.3-.55 1.15v.45l-.2.3-.4.95.45 14.6-.05.15.3 1.2.2.75.05.25.35 1.6.05.15.15.9-2.05-6.15-.1 1.55v.25l-1.3-7.9L-9-.6q-.05-1.05-.1-.4l-.85 4.8.1 1v.05l2.05 8.6.25 2.4-.05-.2q-.35-2.35-.85-3.4v.25q.6 2.8.65 4.2v.15l-.1-.25v-.05q-.8-1.9-2.2-8.05 1.25 8.35 1.95 8.85l-.15.05-1.25.05-.65-1.2-.6-1.2h-.2l-.1.1-.1.25.3 1.9.1.5q-1.05-3.8-1.4-7.3l-.3-2.65.05-2.7.15-2.75.3-2.6-1.8 3.3v.2q.05 1-.3 1.9l-.25.6-.2.45-.15.35-.1.25q-.25.7-.95 1l.25-1q.25-.75.2-2.4l.1-3 1.05 1 .25.3v.1h.05q.45-2.8 2.8-7.6l1.45-2.7q2.15-1.7 5-2.55l.15-.05h.1l-.45 2.6-.05.45v.3l-.55 1.85-.1.6-.05.4-.15 2.45q0 5.05 2.5 9.65l-1.35-7.1.8 2.95 2.05 5.25Q-3.2 2.55-3.2-.7l.1-.5.2-1.75.1-.8.15 1.75.55 2.15V.3l.3.8L.3 5.85l-.75.55q-.75.7-.7 1.4l.05.3m-9.25 11.1-.05.1-.1-.35.15.25m-4.3-4.7q-.85-3.3-1.1-6.65.7-.3.95-1l.1-.25.15-.35-.35 1.95-.3.5.7 5.75-.15.05m4.45-18.35v-.1h-.05l.05.1m-3.6 6.95-.05-.2-.05-.05.05.05.05.2m3.2.95-.05.95q-.65 1.35-.6 2.95l.15 2.75.1 1.1q.25 2.05 1.1 3.75l-.7-11.5M9.35-2.2l-.25-.35.3.3-.05.05M1-4l.05.1-.05.05-.1-.3L1-4m12.05 2.95L13-1l-.25-.3.3.25" fill="#2e1504" fill-rule="evenodd" transform="translate(18.5 20.15)"/><path d="m-6.7 11.4-.45-14.6.4-.95.2-.3v-.45L-6-6.05l-.5 17.3-.2.15m-1.1 2.05-2.05-8.6V4.8l-.1-1L-9.1-1q.05-.65.1.4l-.1 4.75 1.3 7.9.7 4.15-.7-2.75m-6.55-7.65.05 7.85-.2.8-.7-5.75.3-.5.35-1.95.2-.45m3.75-1.75.7 11.5q-.85-1.7-1.1-3.75l-.1-1.1-.15-2.75q-.05-1.6.6-2.95l.05-.95M-13.4 9l.6-6.9-.1 12.25-.5-5.35" fill="#251003" fill-rule="evenodd" transform="translate(18.5 20.15)"/><path d="M-10.4 19.3q-.9.25-3.3-1.75l-.95-3.05.15-.05.2-.8-.05-7.85.25-.6q.35-.9.3-1.9v-.2L-12-.2l-.3 2.6-.15 2.75-.05 2.7.3 2.65q.35 3.5 1.4 7.3v.1l.4 1.4m-4.8-17.85q.65-2.55 2.05-4.85 1.45-2.45 3.55-4.05l-1.45 2.7q-2.35 4.8-2.8 7.6h-.05v-.1l-.25-.3-1.05-1M-13.4 9l.5 5.35.1-12.25-.6 6.9" fill="#200e03" fill-rule="evenodd" transform="translate(18.5 20.15)"/><path d="m14.9 7.8.35.9-1.15.8-.15.05-.55.1-.1-.2-.2-.55-.25-.55-.15-.2-2.2-4.6h.05l2.5 3.25-.2-.9-.55-1.6L11.25 2l2.6 3.4.05.1.25.35v.05l.05.05.7 1.85m-4.55 6.1-.3.3-1.05.7-.3.15-2.4-4.2Q5.25 8.45 4.95 6.7l1.85 3.8h.05v-.4L6.6 8.05l1.9 4.7-.85-3.05-1.4-3.95-.2-.85 4.3 9M5-10.05h.05Q7.2-8.85 10-5.95l2.85 3.2-3.45.5-.3-.3.25.35-.05.05-2.55 1.3-3.65-3.9h-.05v.05Q3.85-2.15 5.5.85h-.8Q2.95-2 1.8-4.35H1V-4l-.1-.15.1.3v.2Q2.3-.6 2.3.25h-1L-.25.05-2 .25l-.05-.1-.6-2.15-.15-1.75-.1.8-.1-1.1-.1-.2-.75 1.45q-.6 1.4-.35 1.95h-.5q-.8-.3-.8-2.95v-.45l.1-.6q.8-1.2 5.05-3.8-.8.7-.8 1.9L.7-8.25q.95-.65 2.5-1.2l1.8-.6" fill="#78370c" fill-rule="evenodd" transform="translate(18.5 20.15)"/><path d="m10.5 7.85-.75-.15Q9 5.3 7.55 2.6l-.4-.75-3.5-5.35q2.9 2.95 4.4 5.95l.15.25 2.3 5.15m-18.4 8.7-.05.05-.2.75q-.7-.5-1.95-8.85 1.4 6.15 2.2 8.05" fill="#210f07" fill-rule="evenodd" transform="translate(18.5 20.15)"/><path d="m13.85 5.3.15.15-.05.05-.1-.15V5.3" fill="#825f2b" fill-rule="evenodd" transform="translate(18.5 20.15)"/><path d="m15.7 7.85-.65-.05h-.15l-.7-1.85-.05-.05v-.05l-.2-.35.05-.05.4.5.35.45.75 1 .2.45" fill="#6e4a16" fill-rule="evenodd" transform="translate(18.5 20.15)"/><path d="m13.3 9.45-.3.35-1.05-.05-.1-1.05-.95-1.05.65-.55.2.05.25.1.5.55.2.35.15.2.25.55.2.55M1.1 11.8H1l-.2-.55-.25-.8.05-.05.5-.55.1-.05.1-.35v-.2l-.05-.45-.4-.2.55-.6.45-.45.05.1.4.5.3.4.15.45q.05.6-.3.9l-.25.25-.4.35.05.6v.05q-.1.05-.25.2l-.5.45m-6.2.35.85 3.35-.65-.05-.7 1.5-.05-.55-.15-.9-.05-.15-.35-1.6 1.1-1.6" fill="#999" fill-rule="evenodd" transform="translate(18.5 20.15)"/><path d="m1.95 12.45-.3-.45-.55-.2.5-.45q.15-.15.25-.2l.05-.05 1.05-.1.1.1-1.1 1.35m-1.1-3.9Q.45 7.4-.5 7.4l-.3.05-.3.65-.05-.3q-.05-.7.7-1.4l.75-.55L1.4 6q.5.2.55 1.05v.5h-.1L1.4 8l-.55.6v-.05M-2.55 10l-.85-.2q-.4 0-.7.65l.1.45-.4.2-.85.35-.15-.5v-.35l.05-.9q.15-1.1 1.3-1.1.45 0 .95.75l.55.65m-8.4 5.05 1.05 3.45-.45.7-.15-.25-.3-1.05v-.1l-.1-.5-.3-1.9.1-.25.1-.1h.05" fill="#7a531a" fill-rule="evenodd" transform="translate(18.5 20.15)"/><path d="m4.1 14.25-.6-.15-.55.15h-.3l-.55-1.4-.15-.4 1.1-1.35.15.25.35 1.15.55 1.7v.05" fill="#8f806a" fill-rule="evenodd" transform="translate(18.5 20.15)"/><path d="M15.7 7.9v-.05l.05.05h-.05m-21.15 2.75h.05v.05l-.05-.05" fill="#270f0b" fill-rule="evenodd" transform="translate(18.5 20.15)"/><path d="m-5.25 11.45.15.7-1.1 1.6-.05-.25-.2-.75-.3-1.2.05-.15.2-.15 1.05-.6.05.3.15.5" fill="#836130" fill-rule="evenodd" transform="translate(18.5 20.15)"/><path d="M17.95 7.3h-.1v-.05l.1.05m0-.05V7.2v.05" fill="#8a7b41" fill-rule="evenodd" transform="translate(18.5 20.15)"/><path d="m30.45 13.5-.1-.15-.55-.05q-.55-.1-.75-.4l-.1-.3-.05-.45-1.25-.8q-1.3-.75-2.85-1.3l-.35-.15-.75-.2-.45-.15L21 9.2m13.4 9.6.65 1.15q.4 1.25.85 1.7l1.15 2.75v.1l-.45 2.85-.1.05-.05.05h-.1l-.4.05-.6-2.3-.1.05-.35.2-.55-.8-.4-.65-.3-.5.15.4.25.6.35.95m.1.25-.15.05.3 1.4.05.05-.2.45-.1.15-.15.25v.05l-.05-.05V28l-.65-.05h-.15l.35.9-1.15.8-.15.05-.55.1-.1-.2-.3.35-1.05-.05-.1-1.05-.95-1.05-.35.25v.05L29 28l-.75-.15.2.7-1.25.75q0 .55.7 2.2l.5 1.1.5 1.25v.2h-.05m-.05.05-.25.25-1.05.7-.3.15-.3.1-.25.05-.05.05-.05-.05-1 .2-1-1.4-.5.1h-.15l-.5.05-.65.05-.15.05-.6-.15-.55.15h-.3L20.6 33l-.15-.4-.3-.45-.55-.2h-.1l-.2-.55-.25-.8.05-.05.5-.55.1-.05.1-.35v-.2l-.05-.45-.4-.2v-.05q-.4-1.15-1.35-1.15l-.3.05-.3.65.2.75q.05.45-.45.85-.5.35-1 .4l-.2-.1-.85-.2q-.4 0-.7.65l.1.45-.4.2-.85.35.15.7.85 3.35-.65-.05-.7 1.5-.1.05-.25-.25-.9.55H11l-.3-.45-.1-.25v-.05l-.05.05-.2.75-.15.05-1.25.05-.65-1.2-.6-1.2h-.15l1.05 3.45-.45.7-.05.1q-.9.25-3.3-1.75l-.95-3.05Q3 31.35 2.75 28L3 27q.25-.75.2-2.4l.1-3q.65-2.55 2.05-4.85Q6.8 14.3 8.9 12.7q2.15-1.7 5-2.55l.15-.05h.1l3.7-.8 2.45-.15.4.05h.3m14.9 12.45-.3-.1-.45-.3-.1-1.3m.3 5.25.15-.1.45-.2.25 1.1.25 1.35h.05v.05m-24.5 4 1.05-.6.05.3v-.35l.05-.9q.15-1.1 1.3-1.1.45 0 .95.75l.55.65m-3.1 6.4-.15-.9-.05-.15-.35-1.6-.05-.25-.2-.75-.3-1.2.05-.15.2-.15m-4.3 6.55-.1-.5-.3-1.9.1-.25.1-.1h.05M3.3 21.6l1.05 1 .25.3v.1l.05.05.05.2v.2q.05 1-.3 1.9l-.25.6M18.8 26l1.1.15q.5.2.55 1.05v.5l-.05.1.4.5.3.4.15.45q.05.6-.3.9m7.3-2.2q-.75-2.4-2.2-5.1l-.4-.75-3.5-5.35q2.9 2.95 4.4 5.95l.15.25L29 28m3.35-2.5v-.05l.15.15.4.5.35.45.75 1 .2.45m-1.75-2.35-.1-.15m.35.6.7 1.85m-2.2.35.15.2.25.55.2.55m-2.4-1.8.65-.55.2.05.25.1.5.55.2.35m-5.95 5.8h.1l.85.8.45.45.25-.05M25 34.1h.25m-.7.05.45-.05m1.55 1.25h.1m-6.3-7.65-.45.45-.55.6m1-1.05h.1m-3.05.55-.05-.3q-.05-.7.7-1.4l.75-.55m1.55 5.3q-.1.05-.25.2l-.5.45m.75-.7-.05-.6.4-.35.25-.25m-.6 1.2h.05l1.05-.1.1.1.15.25.35 1.15.55 1.7v.05m-2.2-3.15-.05.05m0-.05h.05m-7.15.35-.15-.5m-.2 6-.05-.55M3.95 26.4l-.15.35-.1.25q-.25.7-.95 1m1.2-1.6.2-.45m6.2 11.55q-.7-.5-1.95-8.85 1.4 6.15 2.2 8.05m-2.45 2.65L8 39.1m28.35-11.7h.15m-.15 0 .1.05" fill="none" stroke="#000" stroke-linecap="round" stroke-linejoin="round" stroke-opacity=".243" stroke-width=".05"/><path d="M16 1.2 14.45-.85l.9 2.05q.75 1.9.85 3.35v1.1Q16.15 4.5 13.5.7l-.05-.1-.8-1.65-1.25-1.9-2-3.35L13-3.8q1.95 1.65 3 5" fill="#853918" fill-rule="evenodd" transform="translate(18.5 20.15)"/><path d="m9.4-6.3-.05-.05.05.05" fill="#754e14" fill-rule="evenodd" transform="translate(18.5 20.15)"/><path d="m27.9 13.85 2 3.35 1.25 1.9.8 1.65.05.1q2.65 3.8 2.7 4.95v-1.1q-.1-1.45-.85-3.35l-.9-2.05 1.55 2.05m-6.6-7.5-.05-.05z" fill="none" stroke="#000" stroke-linecap="round" stroke-linejoin="round" stroke-opacity=".243" stroke-width=".05"/><path d="M8.55-4.65q.35.45.05.85-.3.45-1.1.65t-1.6 0q-.85-.15-1.2-.6t-.05-.9 1.15-.6q.75-.2 1.55 0 .8.15 1.2.6" fill="#0c0502" fill-rule="evenodd" transform="translate(18.5 20.15)"/><path d="M8.55-4.65q-.4-.45-1.2-.6-.8-.2-1.55 0-.85.15-1.15.6t.05.9 1.2.6q.8.2 1.6 0t1.1-.65q.3-.4-.05-.85h.05l-.05-.05v.05m1.05 1.4q-.5.7-1.75 1-1.25.25-2.5 0-1.3-.3-1.85-.95-.6-.7-.1-1.4.45-.7 1.75-1 1.2-.3 2.5 0t1.85 1q.55.65.1 1.35" fill="#210c07" fill-rule="evenodd" transform="translate(18.5 20.15)"/><path d="M28.1 16.9q-.5.7-1.75 1-1.25.25-2.5 0-1.3-.3-1.85-.95-.6-.7-.1-1.4.45-.7 1.75-1 1.2-.3 2.5 0t1.85 1q.55.65.1 1.35z" fill="none" stroke="#000" stroke-linecap="round" stroke-linejoin="round" stroke-opacity=".243" stroke-width=".05"/><path d="M1.15-8.75H2.5q.75.15 1.1.55.25.35 0 .8-.3.35-.9.5-.75.2-1.4 0-.7-.15-1.1-.5-.3-.4 0-.8.25-.4.95-.55" fill="#0c0502" fill-rule="evenodd" transform="translate(18.5 20.15)"/><path d="M1-8.9q.9-.25 1.8 0 .95.15 1.4.7.35.5 0 .95-.35.55-1.2.7-.95.25-1.85 0Q.2-6.7-.15-7.2q-.4-.5-.05-1 .35-.55 1.2-.7m.15.15q-.7.15-.95.55-.3.4 0 .8.4.35 1.1.5.65.2 1.4 0 .6-.15.9-.5.25-.45 0-.8-.35-.4-1.1-.55H1.15" fill="#210c07" fill-rule="evenodd" transform="translate(18.5 20.15)"/><path d="M19.5 11.25q.9-.25 1.8 0 .95.15 1.4.7.35.5 0 .95-.35.55-1.2.7-.95.25-1.85 0-.95-.15-1.3-.65-.4-.5-.05-1 .35-.55 1.2-.7m.15.15H21q.75.15 1.1.55.25.35 0 .8-.3.35-.9.5-.75.2-1.4 0-.7-.15-1.1-.5-.3-.4 0-.8.25-.4.95-.55" fill="none" stroke="#000" stroke-linecap="round" stroke-linejoin="round" stroke-opacity=".243" stroke-width=".05"/><path d="M6.25-8.35q.25-.3.85-.3l1.2.25.85.65q.15.4-.1.7-.35.3-.9.35L7-6.95q-.65-.3-.85-.7-.25-.35.1-.7" fill="#0c0502" fill-rule="evenodd" transform="translate(18.5 20.15)"/><path d="m7.05-8.85 1.55.35 1.05.85q.2.5-.15.9-.4.4-1.15.4l-1.55-.3Q6-7 5.75-7.5q-.25-.55.15-.9.35-.45 1.15-.45m-.8.5q-.35.35-.1.7.2.4.85.7l1.15.25q.55-.05.9-.35.25-.3.1-.7L8.3-8.4l-1.2-.25q-.6 0-.85.3" fill="#210c07" fill-rule="evenodd" transform="translate(18.5 20.15)"/><path d="m25.55 11.3 1.55.35 1.05.85q.2.5-.15.9-.4.4-1.15.4l-1.55-.3q-.8-.35-1.05-.85-.25-.55.15-.9.35-.45 1.15-.45m-.8.5q.25-.3.85-.3l1.2.25.85.65q.15.4-.1.7-.35.3-.9.35l-1.15-.25q-.65-.3-.85-.7-.25-.35.1-.7" fill="none" stroke="#000" stroke-linecap="round" stroke-linejoin="round" stroke-opacity=".243" stroke-width=".05"/><path d="m-12.25-7.1 1.25-.85h.9l1.55-.15.15-.05h.2q-1.2.25-2.2 1.4l-.9 1.35.05.05 2.6-1.55h.1l.3-.1-.3.1h-.1l-.4.1q-1.05.25-1.7.65l1-1h.05q1.1 0 3.5-.8-.55.4-.7 1.35l-.15.9.05.2-1.7 1.6q-1.45 1.6-1.45 2.7v-.25l.2-2.2H-10l.1-.7.4-.65-1.15.95q-1.25.85-1.95 2.2l.15-.75.05-.35.15-1 .1-.45.05.05.2-.7-.05.05q-.5-.4-.8-.25.3-.15.8.25-.5.2-1.2.8l-1.65 1.4 1-1.4 1.05-1.05-.4.25L-12-6.4q-1.85 1.7-2.9 2.1l2.4-2.6.25-.2m5.2.55v.85-.85l.05-.7-1.25.25q-.9 1.25-.9 2.1l.05.05q.85-1.2 2.05-1.7m-3.3-1.75h-.3l-1.3.05q.8-.8 2.65-.8l1.1.15h.05l-.6-.05-1.95.2 2.65.15-1.85.3h-.45m2.3-.55 3.45-.85.9-.2-1.15.8.95-.35 1.65-.35h.2l.5-.1-.8.4L-4-8.35l1.25-.2h.3l.85-.05-1.2.35-1.2.4-.85.55-.3.35-.4.65-.1.1-.45.95-.55 1.8-.25-.45-.1-.85.1-.8.05-.05.4-1L-5.4-8l-.65 1.55.3-.4q.8-.85 1.45-1l.05-.1-1.75-.2-.1-.05q.55 0 1.65-.6v-.1l-1.75.05-1 .2q-.45.05-.45-.15l-.4-.05M-9.7-7.2l.1-.1 1.4-.45-1.5.55" fill="#562510" fill-rule="evenodd" transform="translate(18.5 20.15)"/><path d="m-12.5-6.9-2.4 2.6q1.05-.4 2.9-2.1L-13.15-5q-2.75 1.55-4.8 3.6l1.3-1.85 2.7-2.5 1.45-1.15m.55 1.9.05-.05-.2.7-.05-.05.1-.25-2.7 3.15-.45.4-3.3 3.45q.2-.95 1.4-2.6l2.8-3.4.15-.15.35-.4-1 1.4 1.65-1.4q.7-.6 1.2-.8m-.65 3.15q.7-1.35 1.95-2.2L-9.5-5l-.4.65-.9 1.55-.6 1.1-1.5 3V.4l.15-1.15.15-1.1m2.6-1.8h.05l-.2 2.2v.25q0-1.1 1.45-2.7L-7-5.5v.25h-.05l-.35.4-1.1 1.5Q-10.2-.8-10.3 1.8q-.2-.2-.2-1.45l.35-2.75v-.15l.15-1.1m2.95-2.9q-1.2.5-2.05 1.7l-.05-.05q0-.85.9-2.1L-7-7.25l-.05.7m-1.6-.35-2.6 1.55-.05-.05.9-1.35q1-1.15 2.2-1.4h-.2l-.15.05-1.55.15h-.9l.65-.35h.45l1.85-.3 1.75.1.15.05-1.8.65-.25.05-1.4.45-1.15 1.15q.65-.4 1.7-.65l.4-.1" fill="#3c190b" fill-rule="evenodd" transform="translate(18.5 20.15)"/><path d="m-7-5.5-.05-.2.15-.9q.15-.95.7-1.35-2.4.8-3.5.8h-.05l.05-.05 1.5-.55.25-.05 1.8-.65-.15-.05-1.75-.1-2.65-.15 1.95-.2.6.05.1.05.4.05q0 .2.45.15l1-.2 1.75-.05v.1q-1.1.6-1.65.6l.1.05 1.75.2-.05.1q-.65.15-1.45 1l-.3.4L-5.4-8l-1.05 1.4-.4 1-.05.05-.1.8v-.75" fill="#783316" fill-rule="evenodd" transform="translate(18.5 20.15)"/><path d="m-12.15-4.4-.1.45-.55 1.35.4-.35-.05.35-.15.75-.15 1.1-2.15 3.5v-.1l2.1-5.25-2.55 2.65.15-1.15.45-.4 2.7-3.15-.1.25m2.25.05-.1.7-.15 1.1v.15q-1.4 2.8-2.05 6.15V2.9l.8-4.6.6-1.1.9-1.55m1.4 1 1.1-1.5.35-.4H-7v.5l-2 4v-.8l.5-1.8" fill="#120801" fill-rule="evenodd" transform="translate(18.5 20.15)"/><path d="m7.5 12.2-1.25.85m-.9 2.1.4-.25q.3-.15.8.25m-.2.6-.1.45-.15 1-.05.35-.15.75M9 15.15l-.4.65-.1.7-.15 1.1v.15m3.15-3.1-.05-.2v-.85m-1.2-.45-.3.1h-.1M7.5 12.2l.65-.35h-.1m-.2 0-1.3.05q.8-.8 2.65-.8l1.1.15h.05l.1.05 3.45-.85.9-.2.05-.05v.05h-.05l-1.15.8.95-.35 1.65-.35h.2l.5-.1.85-.15m-9.65 1.75h.45l1.85-.3m-1.65 1.4L7.75 14q.65-.4 1.7-.65l.4-.1m.45-.85-1.4.45-.1.1m1.5-.55.25-.05m-.3.8 1.25-.25-.05.7M4.7 15.95l-.35.4-.15.15-2.8 3.4Q.2 21.55 0 22.5l3.3-3.45.45-.4 2.7-3.15-.1.25m-5.8 3q2.05-2.05 4.8-3.6M10 16.8l1.1-1.5.35-.4h.05v-.25m0 .75.1.85.25.45.55-1.8.45-.95m.1-.1.4-.65.3-.35.85-.55 1.2-.4 1.2-.35-.85.05h-.3l-1.25.2 1.65-1.15.8-.4M11.5 14.9v.5M10 16.8q-1.7 2.55-1.8 5.15-.2-.2-.2-1.45l.35-2.75m-1.25.7-1.5 3v-.9l.15-1.15.15-1.1m1.8-.95.9-1.55m-2.85-.9L4.7 15.95" fill="none" stroke="#000" stroke-linecap="round" stroke-linejoin="round" stroke-opacity=".243" stroke-width=".05"/><path d="m-8-9.85-1.65-.55q-3.4-1.45-4.15-3.6l.6.5 1.75 1.55q2.05 1.3 4.5 1.5h1.25l.55-.1-.55-.35-2.4-1.5q-2.4-1.7-3.65-4.45l3.25 3.25q1.75 1.6 2.75 2.15l.65.2q.85-4.1-1.05-8.9Q-3.95-18-3.9-14.1l-.15 2.95q1.7-.65 2.2-3.65.45-2.75.1-3.05.45.25.55 2 .05 1.75-.35 2.8-.4 1-.55 1.1l-.35.5.15-.05h.65l2.05.45v.1l-2.4.2q.6-.05 1.6.7.95.7 1.1 1.4L-.8-9.4l-1.35-.6q.55.5.6 2.4l-.2 1.35q0-.65-.4-1.3-.55-.9-.7-1.65v.65l-.1 1.4q-.2 1-.25.65l-.25-1.15-.15-.7v-.05l-.05.7-.05.4-.5-1.2q-.4-1.1-.5-.85l-.2.1-.25.2L-6-7.5l-.1.3v.05l-.05-.05v-1.15l.05-.8-1.55.5q-1.5.6-2.15 1.5h-.05v-.05q1.1-1.45 2.35-2.15 0-.35-.35-.45h-.05l-.1-.05.1.05h.05q.35.1.35.45l-1.55.2.35-.3.55-.35.15-.05m3.95-.3v-1 1" fill="#8d8325" fill-rule="evenodd" transform="translate(18.5 20.15)"/><path d="m5.3 6.65-.6-.5q.75 2.15 4.15 3.6l1.65.55.1.05h.05q.35.1.35.45-1.25.7-2.35 2.15V13h.05q.65-.9 2.15-1.5l1.55-.5-.05.8v1.15m.05.05v-.05l.1-.3.85-1.55.25-.2.2-.1q.1-.25.5.85l.5 1.2.05-.4.05-.7v.05l.15.7.25 1.15q.05.35.25-.65l.1-1.4v-.65q.15.75.7 1.65.4.65.4 1.3l.2-1.35q-.05-1.9-.6-2.4l1.35.6 1.5.75q-.15-.7-1.1-1.4-1-.75-1.6-.7l2.4-.2m-2.15-6.9q.35.3-.1 3.05-.5 3-2.2 3.65v1m-3.95.3-.15.05-.55.35-.35.3 1.55-.2m1.4 2.2-.05.3v-.35M6.75 3.3Q8 6.05 10.4 7.75l2.4 1.5.55.35m5.55-.5v.1M12.35 0q1.9 4.8 1.05 8.9" fill="none" stroke="#000" stroke-linecap="round" stroke-linejoin="round" stroke-opacity=".243" stroke-width=".05"/><path d="M-10.7 3.05-11.75 2l.2-.05 1.35-.3q1.25 0 2.1 1.5l-.05.1q-.9-.95-2.55-.2" fill="#7a531a" fill-rule="evenodd" transform="translate(18.5 20.15)"/><path d="M-12.7 1.2v.05l.35.4.35.5.25-.15 1.05 1.05-.3.1-.95.2q-.6.25-1.05.85l.9.6.2.15.65.35-.4.6q-.45.45-.45 1.05l-.2-.65q-.25-.7-.6-.8l-.45-.15.35-.15.85-.4q-1.5-.55-2.05-1.25l.05-.15.6-.75.3-.1.6-.15.3-.1v-.05l-.15-.5-.25-.45.05-.1" fill="#8f806a" fill-rule="evenodd" transform="translate(18.5 20.15)"/><path d="M-12.1 6.95q0-.6.45-1.05l.4-.6-.65-.35-.2-.15-.9-.6q.45-.6 1.05-.85l.95-.2.3-.1q1.65-.75 2.55.2l.25.3.3.7.2.7q.25.75-.2 1.3L-8.9 7q-.2-.5-.55-.55.45.85.3.95-1.15.6-1.7.4l-.8-.2-.45-.6v-.05" fill="#46301a" fill-rule="evenodd" transform="translate(18.5 20.15)"/><path d="M-14.2 3.55q.55.7 2.05 1.25l-.85.4-.35.15-.6-.1q-.45-.15-.35-.9l.1-.8" fill="#836130" fill-rule="evenodd" transform="translate(18.5 20.15)"/><path d="m6.75 22.15-.25.15-.35-.5-.35-.4v-.05l-.1-.05.05.15.25.45.15.5v.05l-.3.1-.6.15-.3.1-.6.75-.05.15-.1.8q-.1.75.35.9l.6.1.45.15q.35.1.6.8l.2.65q0-.6.45-1.05l.4-.6-.65-.35-.2-.15-.9-.6q.45-.6 1.05-.85l.95-.2.3-.1-1.05-1.05.2-.05 1.35-.3q1.25 0 2.1 1.5l.2.4.3.7.2.7q.25.75-.2 1.3l-1.3.75q-.2-.5-.55-.55.45.85.3.95-1.15.6-1.7.4l-.8-.2-.45-.6v-.05m4.2-3.4-.25-.3q-.9-.95-2.55-.2" fill="none" stroke="#000" stroke-linecap="round" stroke-linejoin="round" stroke-opacity=".243" stroke-width=".05"/><path d="m6 5.9-1 .35L5.25 3v-.05L7.8 5.3l-1.3.45-.6-.9v.4l.1.5v.15m4.85-2-.55-.55v.15l.1.6v.05l-.85.35-.3-1.3q2.5-1.4 3.8-2.6.55.75.75 1.7l-1.4.8-.1.05-.75-.6v.25l.2.65-.9.45" fill="#986b3d" fill-rule="evenodd" transform="translate(18.5 20.15)"/><path d="M6.5 5.75 6 5.9v-.15l-.1-.5v-.4l.6.9m3.9-1.6V4.1l-.1-.6v-.15l.55.55-.45.25m1.35-.7-.2-.65v-.25l.75.6-.55.3" fill="#997a5c" fill-rule="evenodd" transform="translate(18.5 20.15)"/><path d="m3.8 5.05.1 1.25-1.4.4-.3-1.1q.85 0 1.55-.55h.05" fill="#8d4b20" fill-rule="evenodd" transform="translate(18.5 20.15)"/><path d="M-.6-4.7h.05l.1 1.5.25.85-.15.15Q-.9-1.6-.8-.8l.25.75.05.85.2 1.25-1.3-.75Q-2.95.25-3.1-1.25v-.45l.55.7 1.3-3.45.2-.1.15 1.25.3-1.4" fill="#986b3d" fill-rule="evenodd" transform="translate(18.5 20.15)"/><path d="M-.55-4.7.7-4.85H1l.65 1.6Q.4-2.9-.2-2.35l-.25-.85-.1-1.5M.85.65H.9l2-.2.75 1.45q-.75.4-1.7.45L.85.65M-3.1-1.7l.05-.55q.15-.9.85-1.55l.95-.65L-2.55-1l-.55-.7m5.35.45q.1.7-.85.7-1.2 0-1.3-.7l.45-.55L1-2q1.15 0 1.25.75" fill="#997a5c" fill-rule="evenodd" transform="translate(18.5 20.15)"/><path d="M-.55-.05q.4.6 1.4.7l1.1 1.7H1.6l-1.9-.3L-.5.8l-.05-.85m-.5-4.5.45-.15-.3 1.4-.15-1.25" fill="#8d4b20" fill-rule="evenodd" transform="translate(18.5 20.15)"/></g></defs></svg>