<svg viewBox="0 0 106.91 99.084" xmlns="http://www.w3.org/2000/svg" xmlns:xlink="http://www.w3.org/1999/xlink"><use transform="translate(.03 -.41) scale(1.8432)" width="57.95" height="53.95" xlink:href="#a"/><defs><use width="57.95" height="53.95" xlink:href="#b" id="a"/><g id="b"><path d="m-8.3-29-.6-.05.55-.2.05.25" fill="#4f4d3c" fill-rule="evenodd" transform="translate(28.15 31.5)"/><path d="m-8.9-29.05-2.7 1 2.3-1 3.5-.9-2.55.7-.55.2" fill="#996" fill-rule="evenodd" transform="translate(28.15 31.5)"/><path d="m-8.3-29-.05-.25 2.55-.7 6.35-1.2 9.3.25.5.15.35.05 2.1.7.85.35 1.05 1q2.65 3.3 3.1 11.6l.3 2.25v.05h-.2q-5.45.25-11.3 2.9L5.55-16.1l-.05-.05Q3.15-22.7.4-26l.1-.1q2.4-2.15 1.75-3.3-.7-1.2-4.1-.7l-3.1.65-.65-.05h-.3l-.8.05-1.6.45" fill="#e49432" fill-rule="evenodd" transform="translate(28.15 31.5)"/><path d="m-8.9-29.05.6.05 1.3.2-2.55 1q-4.2 1.85-6.6 4-2.55 2.15-1.85 3.3.65 1.15 4.15.7 3.4-.5 7.6-2.3 2.95-1.35 5.1-2.75 3 3.45 5.4 9.8L5-11.2v.1l-.25.1Q1.2-9.05-2.3-5.5h-.05Q-4.6-3.45-4.5 0l.7 10.2-4.4-.95-5.4-1.9Q-17.1 3.4-17.4-2.9q-.15 3.05-1 6.55l-.25 1-.1.2q-.45.95-3.6 1.15-3.5.15-5.45-11l.1-.65q2.05-10.6 8.25-17.15 2.95-3.15 7.7-5.15l.15-.1 2.7-1M-21.5-4.4q-.7 2.55-1.45.75 1-10.6 4-8.25 1.8 3.9 1.55 9 .25-5.1-1.55-9-3-2.35-4 8.25.75 1.8 1.45-.75m27-11.75.05.05H5.5v-.05M-20.65-9.6l1.7 3q1.45 2.65.85 0l-.75-3.45q-.15-.85-.4-1.2-.3-.3-.7-.25l-.7.25-.3.85.3.8m14.3-8.75q.25-1.25-1.15.7-1 3.6 4.6.55l1.85-1.35-4.2-1.2-1.1 1.3m23.5-9.45q2.95 1.95 5.45 5 5.35 6.6 6.7 13.8l-3.1-3.55-2.1-1.4q-.9-.65-3.8-.75l-.2-1.4q-1.35-10.05-2.95-11.7" fill="#978f3e" fill-rule="evenodd" transform="translate(28.15 31.5)"/><path d="M-1.15-24.85Q-3.85-28-7-28.8l-1.3-.2 1.6-.45.8-.05h.3l.65.05Q-2.1-29.05.4-26q2.75 3.3 5.1 9.85v.05h.05l1.05 4.25-1.6.75v-.1l-.75-3.85q-2.4-6.35-5.4-9.8m19.25 10.1v-.05l-.3-2.25q-.45-8.3-3.1-11.6l-1.05-1 3 1.5.05.05.45.3q1.6 1.65 2.95 11.7l.2 1.4-2.2-.05" fill="#fff" fill-rule="evenodd" transform="translate(28.15 31.5)"/><path d="M-1.15-24.85q-2.15 1.4-5.1 2.75-4.2 1.8-7.6 2.3-3.5.45-4.15-.7-.7-1.15 1.85-3.3 2.4-2.15 6.6-4l2.55-1q3.15.8 5.85 3.95M-20.65-9.6l-.3-.8.3-.85.7-.25q.4-.05.7.25.25.35.4 1.2l.75 3.45q.6 2.65-.85 0l-1.7-3m14.3-8.75 1.1-1.3 4.2 1.2-1.85 1.35q-5.6 3.05-4.6-.55 1.4-1.95 1.15-.7" fill="#bdbd53" fill-rule="evenodd" transform="translate(28.15 31.5)"/><path d="M-27.8-5q1.95 11.15 5.45 11 3.15-.2 3.6-1.15-1.75 5.3-5.3 2.25-1.45-1.2-3.15-3.7-1.3-4.05-.6-8.4" fill="#635821" fill-rule="evenodd" transform="translate(28.15 31.5)"/><path d="m-4.95-29.45 3.1-.65q3.4-.5 4.1.7.65 1.15-1.75 3.3l-.1.1q-2.5-3.05-5.35-3.45" fill="#fee181" fill-rule="evenodd" transform="translate(28.15 31.5)"/><path d="m5-11.1 1.6-.75Q8.35-4.35 9.2 4.3v.05l.15 1.4.75 4.95q.35 2.45.35 5 3.15.55 6.2-1.3 1.45-2.6 2.3-5.2L20 4.85l.1-.65-.5-7.65-1.5-11.3 2.2.05.7 8.55.5 12.8-.45 1.95q-1.3 4.4-4.5 8.8-3.95 1.95-7.9 1.35l-.1-6.8-.55-6L5-11.1" fill="#b18b34" fill-rule="evenodd" transform="translate(28.15 31.5)"/><path d="M6.6-11.85q5.85-2.65 11.3-2.9h.2l1.5 11.3.5 7.65-.1.65-1.05 4.35q-.85 2.6-2.3 5.2-3.05 1.85-6.2 1.3 0-2.55-.35-5l-.75-4.95-.15-1.4V4.3q-.85-8.65-2.6-16.15" fill="#883d15" fill-rule="evenodd" transform="translate(28.15 31.5)"/><path d="m-18.75 4.85.1-.2.25-1q.85-3.5 1-6.55.3 6.3 3.8 10.25l5.4 1.9 4.4.95L-4.5 0q-.1-3.45 2.15-5.5h.05Q1.2-9.05 4.75-11l.25-.1L8 5.95l.55 6 .1 6.8q3.95.6 7.9-1.35 3.2-4.4 4.5-8.8l.45-1.95-.5-12.8-.7-8.55q2.9.1 3.8.75l2.1 1.4L29.3-9q.45 2.55.4 5.2l-.15 2.75-.7 4.05-.6 2.3q-2.15 7-7.1 11.25-7.1 6-19.3 5.8t-21.9-8.8l-.7-.6v-.05q-3.5-3.35-3.3-5.8 3.55 3.05 5.3-2.25M29.7-3.8l-1.15-2.65L29.7-3.8" fill="#403514" fill-rule="evenodd" transform="translate(28.15 31.5)"/><path d="m19.8 2.25-.55.2" fill="none" stroke="#888851" stroke-linecap="round" stroke-linejoin="round" stroke-width=".25"/><path d="m19.25 2.45-2.7 1-.15.1q-4.75 2-7.7 5.15Q2.5 15.25.45 25.85l-.1.65m9.05 9.85.1-.2.25-1q.85-3.5 1-6.55.25-5.1-1.55-9-3-2.35-4 8.25.75 1.8 1.45-.75M41.8 1.85l-.85-.35-2.1-.7-.35-.05L38 .6 28.7.35l-6.35 1.2-2.55.7m22-.4 3 1.5.05.05.45.3q2.95 1.95 5.45 5 5.35 6.6 6.7 13.8.45 2.55.4 5.2l-.15 2.75-.7 4.05-.6 2.3q-2.15 7-7.1 11.25-7.1 6-19.3 5.8t-21.9-8.8l-.7-.6v-.05q-3.5-3.35-3.3-5.8-1.45-1.2-3.15-3.7-1.3-4.05-.6-8.4m56.35-1.45 1.15 2.65M9.4 36.35q-1.75 5.3-5.3 2.25" fill="none" stroke="#505030" stroke-linecap="round" stroke-linejoin="round" stroke-width=".25"/><path d="M-1.5-22.85q1.35-.2 1.55.45.15.65-.95 1.75l-.65.6q-.95.75-2.25 1.4-1.8.9-3.15 1.1-1.4.2-1.55-.45-.15-.7 1-1.8l2.9-1.95.4-.2q1.5-.75 2.7-.9m18.75 2.1-1.75-1.3q-.95-.9-.8-1.55l.05-.15q.2-.55 1.2-.55 1.15 0 2.65.7l2.4 1.55q.9.95.8 1.65-.15.65-1.3.65t-2.6-.65l-.3-.15-.35-.2M16-23.85l-1.25.1 1.25-.1" fill-rule="evenodd" transform="translate(28.15 31.5)"/><path d="M26.65 8.65q-1.2.15-2.7.9l-.4.2-2.9 1.95q-1.15 1.1-1 1.8.15.65 1.55.45 1.35-.2 3.15-1.1 1.3-.65 2.25-1.4l.65-.6q1.1-1.1.95-1.75-.2-.65-1.55-.45m18.75 2.1-1.75-1.3q-.95-.9-.8-1.55l.05-.15q.2-.55 1.2-.55 1.15 0 2.65.7l2.4 1.55q.9.95.8 1.65-.15.65-1.3.65t-2.6-.65l-.3-.15" fill="none" stroke="#322216" stroke-linecap="round" stroke-linejoin="round" stroke-width=".25"/><path d="m42.9 7.75 1.25-.1" fill="none" stroke="#fff" stroke-linecap="round" stroke-linejoin="round" stroke-width=".25"/><path d="m-1.35-13.8 4.55-.45 1.6 3.05-1.7 1.9H-.7L-2-10.7h.05l.6-3.1m25.55-2.45.35.1 1 2.25L24-12.5l-.95-1.15-1.3.05.85-2.15-.45-.3 2.05-.2" fill="#48482b" fill-rule="evenodd" transform="translate(28.15 31.5)"/><path d="m-1.35-13.8.75-1.3 3.85-1 .35-.1-.6 1.6.2.35-4.55.45m22.4-3.25 3.15.8-2.05.2-1.2-.9.1-.1" fill="#bdbd53" fill-rule="evenodd" transform="translate(28.15 31.5)"/><path d="m5.7-16.55 7.15-1.35 5.75.55 1.05 1-.15.55-12.2 1.15-1.6-1.9" fill="#f2cd4f" fill-rule="evenodd" transform="translate(28.15 31.5)"/><path d="M3.2-14.25 3-14.6l.6-1.6.15-.3 1.4-.7.55.65 1.6 1.9-4.1.4m15.4-3.1-.4-.4 2.5.6.1.05.15.15 1.2.9-2.65.25.15-.55-1.05-1" fill="#fff" fill-rule="evenodd" transform="translate(28.15 31.5)"/><path d="m3.6-16.2-.35.1.5-.4-.15.3" fill="#ddceac" fill-rule="evenodd" transform="translate(28.15 31.5)"/><path d="m21.75-13.6-2.9.4.65-2.6 2.65-.25.45.3-.85 2.15m-14.15 2-2.8.4-1.6-3.05 4.1-.4.3 3.05" fill="#c9a247" fill-rule="evenodd" transform="translate(28.15 31.5)"/><path d="M-1.95-10.7H-2h.05" fill="#3a43a5" fill-rule="evenodd" transform="translate(28.15 31.5)"/><path d="m-2-10.7-.2-.25.25.25H-2" fill="#a68053" fill-rule="evenodd" transform="translate(28.15 31.5)"/><path d="M18.85-13.2 7.6-11.6l-.3-3.05 12.2-1.15-.65 2.6" fill="#883d15" fill-rule="evenodd" transform="translate(28.15 31.5)"/><path d="m20.75-17.15.3.1-.1.1-.15-.15.25.05-.25-.05-.05-.05" fill="#f5eccb" fill-rule="evenodd" transform="translate(28.15 31.5)"/><path d="M20.7-17.15h.05l.05.05-.1-.05" fill="#2d7171" fill-rule="evenodd" transform="translate(28.15 31.5)"/><path d="m31.4 15.4-3.85 1-.75 1.3m4.95-2.4-.35.1m17.5-1.05.3.1 3.15.8.35.1 1 2.25-1.55 1.4-.95-1.15-1.3.05m-16.95 2.4-1.7 1.9h-3.8l-1.3-1.4-.2-.25m.25.25.6-3.1m8.65-.85.3 3.05m-.3-3.05 12.2-1.15m1.55-1.25-.25-.05-.1-.05" fill="none" stroke="#322216" stroke-linecap="round" stroke-linejoin="round" stroke-width=".25"/><path d="M23.1-11q4 1.7 4 6.35t-4 8.5q-4.05 3.85-9.7 4.6T3.7 6.5q-4-2.85-4-7.45 0-4.65 4-7.65 4.05-3.1 9.7-3.6t9.7 1.2" fill-rule="evenodd" transform="translate(28.15 31.5)"/></g></defs></svg>