<svg viewBox="0 0 256.75 132.6" xmlns="http://www.w3.org/2000/svg" xmlns:xlink="http://www.w3.org/1999/xlink"><g transform="translate(-146.58 -133.68)"><use transform="translate(146.6 133.7)" width="256.7" height="132.55" xlink:href="#a"/><use transform="matrix(1.7672 -2.4449 7.4346 5.3736 275.45 217.57)" width="13.35" height="3.2" xlink:href="#b"/><use transform="matrix(-.1326 -.1639 -.0529 .1803 329.95 175.9)" width="98.65" height="108.05" xlink:href="#c"/><use transform="matrix(-.0844 -.2356 -.1158 .0657 326.37 196.03)" width="98.65" height="108.05" xlink:href="#c"/><use transform="matrix(.0277 -.1454 -.1013 -.1049 316.65 207.69)" width="98.65" height="108.05" xlink:href="#c"/><use transform="matrix(-.0576 -.2037 -.1374 .0817 321.51 199.89)" width="98.65" height="108.05" xlink:href="#c"/><use transform="matrix(.0245 -.2167 -.1475 -.0394 308.06 210.07)" width="98.65" height="108.05" xlink:href="#c"/><use transform="matrix(-.0908 -.1291 -.0862 .1318 314.09 183.16)" width="98.65" height="108.05" xlink:href="#c"/><use transform="matrix(.0956 -.0767 -.0535 -.1422 291.57 205.41)" width="98.65" height="108.05" xlink:href="#c"/><use transform="matrix(-34.197 1.2189 0 -32.915 318.2 182.01)" width=".5" height=".5" xlink:href="#d"/><use transform="matrix(.0467 -3.69 6.6586 .0843 305.7 229.66)" width="13.35" height="3.2" xlink:href="#b"/></g><defs><g id="a"><path d="m361.95 136.35 4.9.35 1.65-.1q.05 2.6-2.75 5.2-7-3.2-3.8-5.45m11.65-.2 5.3-.4q.75.2 1.2.55.15-.65 1.6-.8h.1l9.55-.8.1.2.2-.25 7.5-.6.7.15.25.05q2.95 1-5.55 6.1l-1.15-2-1.75-3.15q.8 2.05-5.75 6.1-3.85-2.3-5.15-3.7-.2.65-1.3 1.5l-3.15 1.75-2.7-4.7m26.55 5.1q-2.2 4.55-5.1 9.2-4.25 2.05-4.35-7.7l9.45-1.5m-6.55 11.5-6.2 8.6q-4.05-2-2.45-7.05l8.65-1.55m-15.8 19.9-5.35 5.55-3.2-.75q-1.75-3.4 1.3-7.35 5.35-2.15 7.25 2.55M367.25 177l-11.95-1.95q2.35-4.95 6.75-5.45-4.3-.05-8.3-5.25l.65-.9q4.35-6.35 5.45-12.15l3.95-4.2q2.95 4.6 2.9 8.45-.1 3.25-2.4 5.95l4.3 5.25q-2.85 2.4-5.6 2.8l1.75.1q4.2 5.05 2.5 7.35m-13.45-2.05-2.2-.1-6.4-12.2q3.45.4 6.45 2.15-.5-5.7-9.15-7.3l-.1-.2.1.2-.8-.15.7-.05q5.1-.4 8.45-1.6l.2-10.4 5.55 4.65q1.15 6.15-2.65 13.25l-.45.85-.85 1.35q1.35.95 2.6 2.15 1.65 4.15-1.45 7.4m-10.15-22.35 3.85-6.95v7.65l-3.85-.7m6.45-11.65 2.9-5.3 4.9.4q1.65.7-2.25 7.2l-5.55-2.3m7.45 4.75-2.25-.45 4.2-6.35 3.85 6.25-5.8.55m13.35 6.75 2.6-4.65 2.65 1.65 4 2.4L378 154l7.4 7q-4.05-2.15-9.1.5l.4-5.75v-.45l-.4.4-5.1-3.05-.3-.2m7.7-4.6-2.8-2.3 3.85-6.15q3.8 1.5 6.45 3.65 3.6 2.85 5.1 6.9l-7.2 2.4-5.4-4.5m-8.55-10.4 3.85 3.85-5.3 11.55-2.4-5.3 3.85-10.1m5.3 23.05v7.2l-5.3-1.4q-5.95-5.05-.4-10.05l5.7 4.25" fill="#98bcab" fill-rule="evenodd" transform="translate(-146.6 -133.7)"/><path d="m368.5 136.6 5.1-.45 2.7 4.7 3.15-1.75.2.3-3.85 6.15 2.8 2.3-2.45 1.6-2.65-1.65-2.6 4.65.15.25-4.35 2.85q.05-3.85-2.9-8.45l-3.95 4.2q-1.1 5.8-5.45 12.15l-.45-.25q3.8-7.1 2.65-13.25l-5.55-4.65-.2 10.4q-3.35 1.2-8.45 1.6l-.65-1.2 1.9-3.5 3.85.7v-7.65l2.6-4.7 5.55 2.3q3.9-6.5 2.25-7.2l4.05.3q-3.2 2.25 3.8 5.45 2.8-2.6 2.75-5.2m-10.95 9.1 5.8-.55-3.85-6.25-4.2 6.35 2.25.45m12.5-8.25-3.85 10.1 2.4 5.3 5.3-11.55-3.85-3.85" fill="#dbe6df" fill-rule="evenodd" transform="translate(-146.6 -133.7)"/><path d="m378.9 135.75 2.8-.25q-1.45.15-1.6.8-.45-.35-1.2-.55m12.45-1.05.3-.05-.2.25-.1-.2m7.8-.65 1.05-.1-.1.3-.25-.05-.7-.15M342.5 157.5q8.65 1.6 9.15 7.3-3-1.75-6.45-2.15l-1.7-3.25-1-1.9m28.55-4.8-.15-.25.3.2-.15.05m8.6-13.3-.2-.3q1.1-.85 1.3-1.5 1.3 1.4 5.15 3.7 6.55-4.05 5.75-6.1l1.75 3.15-7.3 4.7q-2.65-2.15-6.45-3.65m-3.35 16.3.4-.4v.45l-.4-.05m-22.35 7.5.45.25-.9.6.45-.85" fill="#b1cdc2" fill-rule="evenodd" transform="translate(-146.6 -133.7)"/><path d="m400.2 133.95 3.1-.25-.85 2.25-2.3 5.3-9.45 1.5q.1 9.75 4.35 7.7l-1.45 2.3-8.65 1.55q-1.6 5.05 2.45 7.05l-1.1 1.45q-2.95-.7-7.1 1.55-2.5 8.1.65 6.05l-2.05 2.25q-1.9-4.7-7.25-2.55-3.05 3.95-1.3 7.35l-2-.45q1.7-2.3-2.5-7.35l-1.75-.1q2.75-.4 5.6-2.8l-4.3-5.25q2.3-2.7 2.4-5.95l4.35-2.85.15-.05 5.1 3.05.4.05-.4 5.75q5.05-2.65 9.1-.5l-7.4-7 2.15-2.15-4-2.4 2.45-1.6 5.4 4.5 7.2-2.4q-1.5-4.05-5.1-6.9l7.3-4.7 1.15 2q8.5-5.1 5.55-6.1l.1-.3m-44.9 41.1-1.5-.1q3.1-3.25 1.45-7.4-1.25-1.2-2.6-2.15l.85-1.35.9-.6-.65.9q4 5.2 8.3 5.25-4.4.5-6.75 5.45m20.05-14.55-5.7-4.25q-5.55 5 .4 10.05l5.3 1.4v-7.2" fill="#7da68e" fill-rule="evenodd" transform="translate(-146.6 -133.7)"/><path d="m351.6 174.85-3.7 1.05-9.85-17.7.35-.85 2.9-2.05.45.8.65 1.2-.7.05.8.15 1 1.9 1.7 3.25 6.4 12.2m-27.1-9.55 3.45-1.6 2 1.55 5.25 4.1-2.35-8.55 3.2-1.7.75 1.85 4.1 10.1-2.95-.4-1 .1q-2.45.35-4.15 2.05l-8.3-7.5m3.95 6.75 2.05 5.2-.05.8-1.15-.2-2.5-3.8-2.85-4.25.05-.05 4.45 2.3m6.75-2.7 1.75 1.4-1.75-1.4" fill="#e1caae" fill-rule="evenodd" transform="translate(-146.6 -133.7)"/><path d="m347.9 175.9-1.2.35h-.15q-.75-1.95-2.45-3.4-1.5-1.3-3.2-1.8l-4.1-10.1 1.25-2.75 9.85 17.7m-23.95-6.15-.15-4.15.7-.3 8.3 7.5-.5.55-.4.5-.25.35q-.95 1.4-1.15 3.05l-2.05-5.2 3.45 1.8-3.45-1.8-4.45-2.3h-.05m6-4.5-.25-2.8 3.15-1.65 2.35 8.55-5.25-4.1" fill="#c18e5b" fill-rule="evenodd" transform="translate(-146.6 -133.7)"/><path d="m346.55 176.25.35 1.05.2 1.25q.3 2.8-1.05 5l-.75 1q-2.2 2.55-5.65 2.65h-1.05q-2.85-.2-5.1-2.15-2.7-2.3-3.05-5.8v-.4l-.05.4-.15 3.1q-.45 1.7 1.95 3.5 1.1.8 2.85 1.65l3.1.65q2.9.35 5.6-.05l2.55-4.3 7.65 6.95-2.85 3.3-7.5-4.95-.05 2.05h.05v.3l-.05.35-.05.7.05-1.35-2.25-1.25-.5 13.3-4.65-1.3-1.45-.45-.15-6.75-1.85-.85-2.95-1.35-2.5-1.15-1.95 7.35-4.85-1.6 8.3-13.45h-.05l1.1-1.2-7.95-1.45-.1-4.35v-.35l.5.1h.05l7 1.45 1.15.2.05-.8q.2-1.65 1.15-3.05l.75 1.5-1.1.65.45 2.25 1.6-1.1 1.3 2.5 3-2.15-1.55-2.1 2.15-1.45-1.65-1-1.65.9-.7-.95-2.6.95.25-.35.4-.5.5-.55q1.7-1.7 4.15-2.05l1-.1 2.95.4q1.7.5 3.2 1.8 1.7 1.45 2.45 3.4m.35 1.05-.2.1.2-.1m-3.35-.05-1.15-1.85-2.15 1.55 1.25 1.85-2.4 1.75 1.3 1.9 2.3-1.9 1.6 2.3 1.9-1.4-1.55-2.45 2.05-1.6-1.9-1.05-1.25.9m-13.1.8v.8-.8m4.85 10.5h-.05l.05.05.6 1.65-.05.05.45 1q-.35.6-.4 1.25-.2 1 .4 1.5.55.5 1.55.2l.2-.1 1.55-1.1q.75-.9.95-1.95.15-1-.4-1.5l-1.55-.2-.5.2h-.05l-1.8-1.3-.2-.15-.75.4" fill="#aecabd" fill-rule="evenodd" transform="translate(-146.6 -133.7)"/><path d="m332.4 175.7-.75-1.5 2.6-.95.7.95 1.65-.9 1.65 1-2.15 1.45 1.55 2.1-3 2.15-1.3-2.5-.95-1.8.95 1.8-1.6 1.1-.45-2.25 1.1-.65m2.55-1.5 1.15 1.55-1.15-1.55m6.55 4.6-1.25-1.85 2.15-1.55 1.15 1.85 1.1 1.75-1.1-1.75 1.25-.9 1.9 1.05-2.05 1.6 1.55 2.45-1.9 1.4-1.6-2.3-2.3 1.9-1.3-1.9 2.4-1.75 1.2 1.75-1.2-1.75" fill="#f90" fill-rule="evenodd" transform="translate(-146.6 -133.7)"/><path d="M151.6 265.5q-7.95-3.85-3.25-8.4L319.5 172l2.8 4.35-.05.05-.5-.1v.35L151.6 265.5m172.35-95.75v.05-.05" fill="#926836" fill-rule="evenodd" transform="translate(-146.6 -133.7)"/><path d="M333.3 204.95q-1.5 1.1-3.45 1.85 10.15 5.05 10.65 21.8l-13.4-3.3q11.25 0-3.8-19.3 2.35-1.1 4.1-2.55l5.9 1.5M319.5 172l4.45-2.25v.05l2.85 4.25-4.5 2.3-2.8-4.35" fill="#84c5f4" fill-rule="evenodd" transform="translate(-146.6 -133.7)"/><path d="m321.9 182.75-168.75 83.5q-2.4-.75-1.55-.75l170.15-88.85.1 4.35.05 1.75m.4-6.35h-.05l.05-.05v.05" fill="#7b552f" fill-rule="evenodd" transform="translate(-146.6 -133.7)"/><path d="M343.75 191.55q4.65 3.25 2.3 8.25 12.2-4.85 22.8 7.35l.1.15-.1.05v-.2l-10.55-.4.45-.25q-7-5.45-18.8.55 1.15-2 1.5-3.65l1.25.35q.1-5.35.75-10.6l.05-.65.05-.7.2-.25m-7.6 10.35q-1.1 1.75-2.85 3.05l-5.9-1.5q4.3-3.65 5.3-9.6l1.85.85.15 6.75 1.45.45m-9.35-27.85 2.5 3.8-7-1.45v-.05l4.5-2.3" fill="#1071b8" fill-rule="evenodd" transform="translate(-146.6 -133.7)"/><path d="m346.05 183.55.25.25-2.55 4.3q-2.7.4-5.6.05l-3.1-.65q-1.75-.85-2.85-1.65-2.4-1.8-1.95-3.5l.15-3.1h.05q.35 3.5 3.05 5.8 2.25 1.95 5.1 2.15h1.05q3.45-.1 5.65-2.65l.75-1m5.05 10.5-.8.9-6.7-3.8h-.05l.05-2.05 7.5 4.95m-9.65 9.35-.65-.2.5-13.3 2.25 1.25-.05 1.35-.05.65q-.65 5.25-.75 10.6l-1.25-.35m-11.7-10.9-2.05 6.95-2.4-.75 1.95-7.35 2.5 1.15m-1.05-8.85-6.8-.6v-.3l-.05-1.75 7.95 1.45-1.1 1.2" fill="#66997b" fill-rule="evenodd" transform="translate(-146.6 -133.7)"/><path d="m330.4 179.25.05-.4v.4h-.05" fill="#8db49f" fill-rule="evenodd" transform="translate(-146.6 -133.7)"/><path d="M335.25 188.55h.05l.75-.4.2.15-.35 1.95-.6-1.65-.05-.05m2.85 1.05.5-.2 1.55.2q.55.5.4 1.5-.2 1.05-.95 1.95l-1.55 1.1-.2.1q-1 .3-1.55-.2-.6-.5-.4-1.5.05-.65.4-1.25l.5-.65q.55-.7 1.25-1l.05-.05" fill="#c5c5c5" fill-rule="evenodd" transform="translate(-146.6 -133.7)"/><path d="m335.9 190.25.35-1.95 1.8 1.3h.05l-.05.05q-.7.3-1.25 1l-.5.65-.45-1 .05-.05" fill="#a7a7a7" fill-rule="evenodd" transform="translate(-146.6 -133.7)"/><path d="m343.6 191.45.15.1-.2.25.05-.35" fill="#0c5b85" fill-rule="evenodd" transform="translate(-146.6 -133.7)"/><path d="m386.3 162.8-6.45 7.6q-3.15 2.05-.65-6.05 4.15-2.25 7.1-1.55" fill="#bacfc2" fill-rule="evenodd" transform="translate(-146.6 -133.7)"/><path d="M368.85 207.35q-16.55 3.7-2.95 11.2l-12.4 4q-4.2-10.85 4.8-15.8l10.55.4v.2" fill="#0e6796" fill-rule="evenodd" transform="translate(-146.6 -133.7)"/><path d="m215.35 2.65 4.9.35 1.65-.1 5.1-.45 5.3-.4 2.8-.25h.1l9.55-.8.3-.05 7.5-.6 1.05-.1 3.1-.25-.85 2.25-2.3 5.3q-2.2 4.55-5.1 9.2l-1.45 2.3-6.2 8.6-1.1 1.45-6.45 7.6-2.05 2.25-5.35 5.55-3.2-.75-2-.45-11.95-1.95-1.5-.1-2.2-.1-3.7 1.05-1.2.35h-.15l.35 1.05.2 1.25q.3 2.8-1.05 5l.2.2m.05.05 7.65 6.95-2.85 3.3-.8.9-6.7-3.8v.3l.15.1q4.65 3.25 2.3 8.25 12.2-4.85 22.8 7.35l.1.15-.1.05q-16.55 3.7-2.95 11.2l-12.4 4q-4.2-10.85 4.8-15.8l.45-.25q-7-5.45-18.8.55 1.15-2 1.5-3.65l-.65-.2-4.65-1.3q-1.1 1.75-2.85 3.05-1.5 1.1-3.45 1.85 10.15 5.05 10.65 21.8l-13.4-3.3q11.25 0-3.8-19.3 2.35-1.1 4.1-2.55 4.3-3.65 5.3-9.6l-2.95-1.35-2.05 6.95-2.4-.75-4.85-1.6 8.3-13.45h-.05l-6.8-.6v-.3L6.55 132.55q-2.4-.75-1.55-.75-7.95-3.85-3.25-8.4L172.9 38.3l4.45-2.25-.15-4.15.7-.3 3.45-1.6 2 1.55-.25-2.8 3.15-1.65 3.2-1.7.75 1.85 1.25-2.75.35-.85 2.9-2.05.45.8 1.9-3.5 3.85-6.95 2.6-4.7 2.9-5.3 4.9.4 4.05.3M195.8 23.6l.1.2 1 1.9 1.7 3.25 6.4 12.2m-9.85-18.75.65 1.2m-10.75 16.9.25-.35-3.45-1.8m2.05 5.2q.2-1.65 1.15-3.05l.75 1.5.95 1.8 1.3 2.5 3-2.15-1.55-2.1-1.15-1.55-.7-.95-2.6.95m.25-.35.4-.5.5-.55q1.7-1.7 4.15-2.05l-1.75-1.4-5.25-4.1m7 5.5 1-.1 2.95.4-4.1-10.1m-1.85 13.25 1.65-.9 1.65 1-2.15 1.45m4.8-4.7q1.7.5 3.2 1.8 1.7 1.45 2.45 3.4m-22.55-6.5h-.05v.05l2.85 4.25 2.5 3.8 1.15.2.05-.8m-6.5-7.5 4.45 2.3m-6.15 4.35h-.05l-.5-.1v.35l.1 4.35.05 1.75m.4-6.4v.05l7 1.45m-7-1.5-2.8-4.35m27.2 5.4.2-.1m-3.35-.05-1.15-1.85-2.15 1.55 1.25 1.85 1.2 1.75 1.6 2.3 1.9-1.4-1.55-2.45-1.1-1.75 1.25-.9 1.9 1.05-2.05 1.6m-14.2.25q.35 3.5 3.05 5.8 2.25 1.95 5.1 2.15h1.05q3.45-.1 5.65-2.65l.75-1m-4.55-4.75-2.4 1.75 1.3 1.9 2.3-1.9m-12.25-1.3v-1.2m2.9-.55-1.6 1.1-.45-2.25 1.1-.65m2.9 12.85h-.05m.05.05.6 1.65m.35-1.95-.2-.15m2.05 1.45.5-.2 1.55.2q.55.5.4 1.5-.2 1.05-.95 1.95l-1.55 1.1-.2.1q-1 .3-1.55-.2-.6-.5-.4-1.5.05-.65.4-1.25l-.45-1m2.25-.7h-.05l-1.8-1.3m.05 3 .5-.65q.55-.7 1.25-1l.05-.05m-5.4 4.25 1.85.85.15 6.75 1.45.45m7.3-8.75q-.65 5.25-.75 10.6l-1.25-.35m2.1-11.6-.05.7m.1-1.05-.05.35M188.65 54.85l.05.05" fill="none" stroke="#000" stroke-linecap="round" stroke-linejoin="round" stroke-opacity=".302" stroke-width=".05"/></g><g id="c" fill-rule="evenodd"><path d="M-42.95-49.7q9.9-8.6 29.45-.05Q6.15-41.3 23.95-20.7 41.7-.1 47.3 20.5t-4.35 29.2-29.55.1q-19.55-8.5-37.35-29.1t-23.4-41.2q-5.55-20.6 4.4-29.2" fill="#555c1b" transform="translate(49.35 54)"/><path d="M25.9-8.8q11 12.75 14.45 25.55 3.5 12.75-2.65 18.1-6.2 5.3-18.35.05-12.1-5.25-23.15-18Q-14.85 4.1-18.3-8.65q-3.45-12.8 2.7-18.1 6.15-5.35 18.3-.05 12.15 5.25 23.2 18" fill="#80881f" transform="translate(49.35 54)"/></g><g id="d" fill-rule="evenodd"><path d="m-2.05-2.15.15.05.1.2-.1.15-.15.1-.2-.1-.05-.15.05-.2.2-.05m0 .1L-2.2-2v.2l.15.05.1-.05.05-.1-.05-.1-.1-.05" fill="#d0b30f" transform="translate(2.3 2.15)"/><path d="m-2.05-2.05.1.05.05.1-.05.1-.1.05-.15-.05V-2l.15-.05" fill="#feee2c" transform="translate(2.3 2.15)"/></g><path d="m-11.55-.95 5.7-.55Q-1.8-1.25.25 0l-.2.55-.2.35-1.8.6q-2.2.35-4.4.05-3.6-.05-6.75-1.6l.55-.65 1-.25m.2.3q-1.3.2-1.25.55l1.95.6 4.65.8q3 .35 3.75 0L-.4.3l-.4-.5q-1.3-.85-5.3-.75l-5.25.3" fill="#adad81" fill-rule="evenodd" transform="translate(13.1 1.5)" id="b"/></defs></svg>