<svg viewBox="0 0 48.887 57.399" xmlns="http://www.w3.org/2000/svg" xmlns:xlink="http://www.w3.org/1999/xlink"><use transform="matrix(.7883 .6128 -.6128 .7883 29.97 -.763)" width="24.75" height="62.75" xlink:href="#a"/><defs><use width="24.75" height="62.75" xlink:href="#b" id="a"/><g id="b"><path d="M1.65-29.2H.1l-1.6.3q.45-1.15 1.5-2.45l.25.2q.9.85 1.4 1.95M2-27.15l.05-.3.05.35q3.45-2.8 10.3-3.25l-1.2.55-.05.05-.95.5-1.05.1-1.7.45-2.5.7L2-26.95v-.2M-9.6-28.8l-1.5-.95-1.25-.6q6.75.45 10.45 3.3v.1l-.8-.3-1.3-.45-2.35-.8-3.25-.3" fill="#fff" fill-rule="evenodd" transform="translate(12.35 31.35)"/><path d="m-1.5-28.9 1.6-.3h1.55l.4 1.75-.05.3q-.3-.65-1.2-1-.9-.45-1.7.25l-.95.85v-.15.2l-.05.05V-27v.05l.05-.05v.45l.05 2.1-.05.5-.05 1.3v.25h-2.4q.2-.9-.4-1.7l-1.55-1.6v.05l-2.1-2.1-1.25-1.05 3.25.3 2.35.8 1.3.45.8.3v-.2q0-.85.4-1.75m3.55 5.15-.1-1.1.05-1.3v-.8.8l-.05 1q-.1-1.05.05-2v.2L4.95-28l2.5-.7 1.7-.45 1.05-.1Q7.8-27.9 6.15-25.8q-1.6 1.25-1.95 2.2-.15.4.2.8l.25.4h-2.6v-1.35m3.1 4.85v.1l-2.8-1.25-.3-2.15 2.9.3.2 1.5-.1 1.5h.1m-.25.8-.7.7-.9.4-.15-.5q-.5-1.05-.7-2.15L4.9-18.1M2-24.4l-.1.95h.05l-.05.05-.1.05q-.7.7-1.75.7-1.1-.05-1.45-.55l-.35-.6q-.3-1 .75-.2 1 .8 2 .4.95-.4 1-.8m-3.9 2.15.05.4h-.1v1.6l-2.45 1.5-.35-1.6q-.05-.9.25-1.55v-.1l2.6-.25m-.05 2.3q0 .8.75 1.4.85.65-.1 1.5-.35.25-1.2.6l-.95-.85-.6-.75-.05-.15 2.15-1.75" fill="#f7e99d" fill-rule="evenodd" transform="translate(12.35 31.35)"/><path d="M-1.85-27v-.2.15l.95-.85q.8-.7 1.7-.25.9.35 1.2 1-.15.95-.05 2l.05-1-.05 1.3.1 1.1L2-24.4q-.05.4-1 .8-1 .4-2-.4-1.05-.8-.75.2l-.05-.15h-.05l.05-.5-.05-2.1V-27" fill="#cab36c" fill-rule="evenodd" transform="translate(12.35 31.35)"/><path d="m4.65-22.4-.25-.4q-.35-.4-.2-.8.35-.95 1.95-2.2l-.9 1.3v2.1h-.6m.6.6-.1 2.9h-.1l.1-1.5-.2-1.5.3.1M4.2-17.4q-1.1 1-2.25 1.1H.55v-4l.25.05.6.05h.15l.9.55q.2 1.1.7 2.15l.15.5.9-.4m-5.95 1.15-.55-.1h-.05l-.3-.05q-1.1-.4-1.95-1.4l.5-.4.05.15.6.75.95.85q.85-.35 1.2-.6.95-.85.1-1.5-.75-.6-.75-1.4l.5-.35.05.1.45-.05.35-.05v4h-.25l-.9.05m-3.1-2.25-.35-3.4.7-.1v.1q-.3.65-.25 1.55l.35 1.6-.45.25m-.4-3.9-.2-1.9-1.1-1.6h.05l.25.25v-.05l1.55 1.6q.6.8.4 1.7h-.95m3.4.55.3 1.35-.4.25v-1.6h.1m3.5 1.4.4-1.75.3 2.15-.7-.4" fill="#b8a050" fill-rule="evenodd" transform="translate(12.35 31.35)"/><path d="M2.05-22.4h3.2v.6l-.3-.1-2.9-.3v-.2m3.1 3.6-.05.3.05-.3-.2.7H4.9l-2.45-1.55-.9-.55.1-.25.7.4 2.8 1.25m-3.2 2.5v1.55L1-15q-.4-.05-.65-.35l-.55.05-.75.4q-.6-.05-.8.5v-1.85l.9-.05h.25v-4H.55v4h1.4m-6.55-1.5-.2-.25-.05-.45.45-.25 2.45-1.5.4-.25.1.2-.5.35-2.15 1.75-.5.4m-.6-4.1-.05-.5h3.35v.15l-2.6.25-.7.1" fill="#666" fill-rule="evenodd" transform="translate(12.35 31.35)"/><path d="M2.05-23.75v1.55l-.4 1.75-.1.25H1.4l-.6-.05-.25-.05H-.6l-.35.05-.45.05-.15-.3-.3-1.35-.05-.4v-.4l.05-1.3h.05l.05.15.35.6q.35.5 1.45.55 1.05 0 1.75-.7l.1-.05.05-.05H1.9l.1-.95.05.65" fill="#918362" fill-rule="evenodd" transform="translate(12.35 31.35)"/><path d="M1.95-14.75v2.45l1.5.3-1.55.5h-.05l-3.3.05-1.6-.4 1.3-.45v-2.1q.2-.55.8-.5l.75-.4.55-.05q.25.3.65.35l.95.25" fill="#b4b4b4" fill-rule="evenodd" transform="translate(12.35 31.35)"/><path d="M1.85-6.95v.6h-3.3v-.6h3.3m0 17.5v.6h-3.3v-.6h3.3" fill="#999" fill-rule="evenodd" transform="translate(12.35 31.35)"/><path d="M1.85-11.5v4.55h-3.3v-4.5l3.3-.05m0 22.65L1.8 31.4q-1.4-.9-3.35 0l.1-20.25h3.3" fill="#844609" fill-rule="evenodd" transform="translate(12.35 31.35)"/><path d="M1.85-6.35v16.9H.65l-.5-.35-1.6-1.25v-15.3h3.3m-3.3 16.9v-1.6l1.6 1.25 1.7-1.45-1.7 1.45.5.35h-2.1m3.3-8.6-1.7 1.7-1.6-1.8 1.6 1.8 1.7-1.7m-3.3 3.3 1.6-1.6 1.7 1.9-1.7-1.9-1.6 1.6m3.3-6.2-1.5-1.8-1.8-2.1 1.8 2.1 1.5-1.85-1.5 1.85 1.5 1.8M.15 10.2l-.4.35.4-.35m.2-12.95-1.8 2.1 1.8-2.1" fill="#900" fill-rule="evenodd" transform="translate(12.35 31.35)"/><path d="m-6.55-25.9-.05-.1.1.1h-.05" fill="#f2de68" fill-rule="evenodd" transform="translate(12.35 31.35)"/><path d="M14 2.15q-.5-1.1-1.4-1.95l-.25-.2q-1.05 1.3-1.5 2.45-.4.9-.4 1.75v.2l.05-.05v-.2.15m3.85-.1.05-.3-.4-1.75m8.55-.05.95-.5.05-.05 1.2-.55q-6.85.45-10.3 3.25l-.05-.35m-.05 1.3-.05 1.3.1 1.1v1.35m4.1-3.4q1.65-2.1 4.05-3.45m-8.2 2.3v.8l-.05 1q-.1-1.05.05-2v.2m9.15-2.8 1.25-.6M17.6 9.55l-.1 2.9v.1l-.05.3.05-.3-.2.7h-.05l-.7.7q-1.1 1-2.25 1.1h-1.4m-2.3.05-.55-.1M10 15l-.3-.05q-1.1-.4-1.95-1.4l-.2-.25-.05-.45-.35-3.4-.05-.5-.2-1.9-1.1-1.6-.05-.1.1.1m-.1-.1L4 3.6 2.75 2.55l-1.5-.95L0 1q6.75.45 10.45 3.3v.05m7.15 4.6v.6m.9-4-.9 1.3v2.1M10.5 7.4l-.05 1.3v.4l.05.4.3 1.35m3.05.3h.05l.1-.25.4-1.75v-.2m-8.45-3.4-.1-.1m4.65-1.1v.45l.05 2.1-.05.5m.1 7.7.9-.05h.25" fill="none" stroke="#918362" stroke-linecap="round" stroke-linejoin="round" stroke-width=".05"/><path d="M14.3 15.05v4l1.5.3-1.55.5h-.05m-3.3.05-1.6-.4 1.3-.45V15.1m0 1.85q.2-.55.8-.5l.75-.4.55-.05q.25.3.65.35l.95.25" fill="none" stroke="#666" stroke-linecap="round" stroke-linejoin="round" stroke-width=".05"/><path d="M14.2 19.85V42.5l-.05 20.25m-3.35 0 .1-20.25V19.9m1.2 22 .4-.35" fill="none" stroke="#000" stroke-linecap="round" stroke-linejoin="round" stroke-width=".05"/><path d="m10.9 26.5 1.8 2.1 1.5-1.85m-1.5 1.85 1.5 1.8m0 6.5L12.5 35l-1.6 1.6m0-3.4 1.6 1.8 1.7-1.7m-3.3 7 1.6 1.25 1.7-1.45m-1.7 1.45.5.35m-2.1-11.2 1.8-2.1" fill="none" stroke="#590000" stroke-linecap="round" stroke-linejoin="round" stroke-width=".05"/></g></defs></svg>