<svg viewBox="0 0 63.353 75.523" xmlns="http://www.w3.org/2000/svg" xmlns:xlink="http://www.w3.org/1999/xlink"><use transform="rotate(38.083 34.997 63.682) scale(.9982)" width="31.65" height="93.7" xlink:href="#a"/><defs><use width="31.65" height="93.7" xlink:href="#b" id="a"/><g id="b"><path d="m9.7-31.75-.3 1.1q-.1-.4-1.15-.3-3.15.25-2.35-1.15.8-1.45-1.25-.4t-5.95-.55q-3.95-1.6-4.35 1.05-.4 2.6-2.2.35L-8.9-32.9q.85.65.95.4.75-2.75 3-2.65 2.2.05 4.5-1.9t5.05.8q2.7 2.7 3.9 2.85 1.15.15 1.2 1.65M5.25-12.7l.3.2.4-.6q1-.45 2.65-2.1 1.65-1.7 1.1-3.65-.6-1.95 2-3.35 2.55-1.45-.6-2.8-3.2-1.4-1.45-3.8l.45-.75q1.65-.15 2.8 1.7 1.1 1.85 2.45 3.5t0 3.4L13.2-18.5l-1.9 1.2q-1.05.45-.8 3.7.2 3.2-1.45 2.1Q7.35-12.6 2-6.6h-.2l-.05-3v-.05l.45-.45-.1-.5-.55-.55q2.25-.35 3.7-1.55M-2.6-6.45q-5.6-1.45-7.7-8.65-7.45-3.55-4.55-8.45 2.9-4.95 2.9-6.2-.05-1.3 2-.7l-.15.95q-.4 4.4-1.3 8.1-.95 3.75 4.75 8.45l.1-.15q.85.85 2.05 1.35h.05l1.25.45.85.15-.6.6v.15l.2.45.2.15-.05 3.35" fill="#82ffef" fill-opacity=".133" fill-rule="evenodd" transform="translate(15.65 37.85)"/><path d="m-1.9-27.15.25-.05 2.1-.4 2.1.3 1.95.9L6.05-25q.6.9 1.65.5l.15-.05.05.1.45 1.05-.05.05-.35.1q-.85.6-.35 1.7.25.65 1.05.5L7.9-19.3q-.45.85-1.4 1.3-.9.4-2 .45H2.45l-1.95-.3-2-.75.1-.25.5-.85.3-.35.1.05 1.4.05q.8-.25 1.1-1.25t-.15-1.75l-.95-1.3q-.55-.45-1.65-.5-1.15-.05-1.75.85-.65.95-.15 1.9l.1.1-.45.15-.9.05q-.6-.85-.55-2 0-1.15.65-1.9l1.45-1.3.45-.25" fill="#82ffef" fill-rule="evenodd" transform="translate(15.65 37.85)"/><path d="m7.85-24.55-.15.05q-1.05.4-1.65-.5L4.5-26.4l-1.95-.9-2.1-.3-2.1.4-.25.05-1.85.4q-1.2.15-2.05-.35v-.05q-1-.65-1.05-1.65l.2-.95.55-.4.2-.15q2.4-1.6 5.55-1.6Q3-31.9 5.6-30l.05.05 1.05.9q1.35 1.3 2.05 2.85-.1 1.2-.9 1.65m.8 3.5q-.8.15-1.05-.5-.5-1.1.35-1.7l.35-.1.05-.05.25-.15h.35q.45.4.55 1.25v.25q0 .75-.65.95l-.2.05" fill="#fff" fill-rule="evenodd" transform="translate(15.65 37.85)"/><path d="m-1.9-27.15-.45.25-1.45 1.3q-.65.75-.65 1.9-.05 1.15.55 2l-.35-.05q-.55-.15-1.25-.55.1-.2-.1-.55l-.05-.15q-.4-1-.45-2.05-.1-1.1.3-2.05.85.5 2.05.35l1.85-.4m.4 8.55 2 .75 1.95.3H4.5q1.1-.05 2-.45.95-.45 1.4-1.3l.75-1.75.2-.05q.65-.2.65-.95v-.25q-.1-.85-.55-1.25H8.6l-.25.15-.45-1.05-.05-.1q.8-.45.9-1.65l.05.05v.05l.05.05v.1l.05.05v.05l.05.05q.65 1.6.65 3.5v.25q-.05 2.1-.9 3.85l-.7.7-1.7 1.05-1.95.65-2.1.2-2.05-.3q-.75-.2-1.25-.65L-1.4-17l-.05-.05v-.05l-.05-.1q-.25-.8 0-1.4" fill="#01e9cc" fill-rule="evenodd" transform="translate(15.65 37.85)"/><path d="m-3.9-21.7.9-.05q.05 1.15.9 1.8l1.2.25-.5.85-.1.25q-.25.6 0 1.4l.1.2.05.15.2.4.1-.1q.5.45 1.25.65l2.05.3 2.1-.2 1.95-.65L8-17.5l.25.1-.75 1-2.05 1.45q-1.7.95-5.8 1l-1.9-.05h-.1l-3.2-.6-.7-.35-.65-.45-1.5-1.2q-1.95-2.5-1.95-5.7 0-3.95 2.9-6.75l.8-.7-.2.95q.05 1 1.05 1.65v.05q-.4.95-.3 2.05.05 1.05.45 2.05l.05.15q.2.35.1.55.7.4 1.25.55l.35.05m1.25-.3q-.5-.95.15-1.9.6-.9 1.75-.85 1.1.05 1.65.5l.95 1.3q.45.75.15 1.75T.9-19.95L-.5-20l-.1-.05.3-.4.05-.05h.3l.9-.3q.75-.7.35-1.85-.4-1-1.35-1.4-1.05-.45-1.9.25-.85.65-.4 1.65l-.3.15" fill="#01c2aa" fill-rule="evenodd" transform="translate(15.65 37.85)"/><path d="m-3-21.75.45-.15.2-.15h.05l-.05-.1q-.45-1 .4-1.65.85-.7 1.9-.25.95.4 1.35 1.4.4 1.15-.35 1.85l-.9.3h-.3l-.05.05-.3.4-.3.35-1.2-.25q-.85-.65-.9-1.8M.55 55.8l-2.05.05v-65.4l1.9.05.15 65.3" fill="#019e8b" fill-rule="evenodd" transform="translate(15.65 37.85)"/><path d="M5.25-12.7q-1.45 1.2-3.7 1.55H1.5l-1 .1-1.15.05-.55-.05-1.15-.1-.85-.15-1.25-.45v-.1l1.3.3q.3.05.15-.25l-.3-.2-1.65-1.4.7-.3.2.05h.1l1.75.2 1.75.1 1.65-.05 1.65-.2 1.55-.45 1.55-.5q.8-.25 1.3-.95h.05L6-13.4l-.75.7M2.1-10.6l.1.5-.5.2-.5.15h-2.25l-.85-.05h-.2l.35-.05q.05-.9-.65-.85-.15.75.25.85L-2.7-10l-.05.05-.2-.45.2-.1 1.5-.35.6.05H.5l1.6.2m-8.65-2.5-.5-.5-1.3-2.05-.05-.1h.15l1.25 1 .1.1 1 1.7 1.45 1.1-.05.1q-1.2-.5-2.05-1.35m12.6-.35.6-.8-.2.3-.3.35-.1.15" fill="#e1c817" fill-rule="evenodd" transform="translate(15.65 37.85)"/><path d="m1.55-11.15.55.55-1.6-.2H-.65l-.6-.05-1.5.35-.1-.05-.05-.05.55-.55 1.15.1.55.05 1.15-.05 1-.1h.05m.65 1.05-.5.5-.45.05-.55.05H.4l-1.9-.05-.45-.05h-.25l-.3-.15-.05-.1v.05l-.2-.15.05-.05.55.15.05.05h.2l.85.05H1.2l.5-.15.5-.2m-10.6-5.65v-.85l1.5 1.2 1.2 1h.05l-.75.1-.5-.4-.1-.05-1.25-1h-.15m15.9-.65-.15.8-.05.1h-.05q-.5.7-1.3.95l-1.55.5-1.55.45-1.65.2-1.65.05-1.75-.1-1.75-.2h-.1l-.2-.05.2-.05 1.7-.25h.1l1.9.05q4.1-.05 5.8-1L7.5-16.4" fill="#9f8a11" fill-rule="evenodd" transform="translate(15.65 37.85)"/><path d="m8.7-18.2-.45.8-.25-.1.7-.7m-9.75 1.65-.1.1-.2-.4-.05-.15.35.45" fill="#01f1d3" fill-rule="evenodd" transform="translate(15.65 37.85)"/><path d="m6-13.4.05-.05-.15.15.15-.15.1-.15.3-.35-.5.85-.25.05.1-.1.1-.15.1-.1" fill="#82ffef" fill-opacity=".2" fill-rule="evenodd" transform="translate(15.65 37.85)"/><path d="m-2.55-9.85.05.1-.05-.1" fill="#e4bfb1" fill-rule="evenodd" transform="translate(15.65 37.85)"/><path d="m-2.5-9.75-.05-.05v-.05l.05.1" fill="#f7ece8" fill-rule="evenodd" transform="translate(15.65 37.85)"/><path d="m-2.55-21.9-.1-.1.3-.15v.1l-.2.15" fill="#01a994" fill-rule="evenodd" transform="translate(15.65 37.85)"/><path d="m-4.25-13.7-.7.3L-3.3-12l.3.2q.15.3-.15.25l-1.3-.3-1.45-1.1-1-1.7.5.35.8.3 1.35.3m2.1 3.85q-.4-.1-.25-.85.7-.05.65.85l-.35.05-.05-.05M-5.7-14.4l-.6-.5.05-.05.7.35-.15.2" fill="#faf3c9" fill-rule="evenodd" transform="translate(15.65 37.85)"/><path d="m-2.35-14-1.7.25-.2.05-1.35-.3-.8-.3.75-.1h-.05l.15-.2 3.2.6" fill="#f5e99e" fill-rule="evenodd" transform="translate(15.65 37.85)"/><path d="m1.75-9.6.05 3-.2 60.2-1.05 2.2L.4-9.5h.3l.55-.05.45-.05h.05M-1.5 55.85l-1.1-1.15V-6.45l.05-3.35.05.05.3.15h.25l.45.05v65.4" fill="#005147" fill-rule="evenodd" transform="translate(15.65 37.85)"/><path d="m23.95 14.5.05-.05M12.8 27.3l-.1.15" fill="none" stroke="#006" stroke-linecap="round" stroke-linejoin="round" stroke-width=".05"/><path d="M17.4 28.2v.05m-.05 0 .05-.05" fill="none" stroke="#000" stroke-linecap="round" stroke-linejoin="round" stroke-width=".05"/><path d="M13.1 28v.05" fill="none" stroke="#7e422c" stroke-linecap="round" stroke-linejoin="round" stroke-width=".05"/><path d="M20.9 25.15q-1.45 1.2-3.7 1.55l.55.55.1.5-.45.45m-8.3-3.45-.5-.5-1.3-2.05-.05-.1v-.85m15.9.2-.15.8-.05.1-1.3 2.1.05-.05.1-.15.3-.35m-.75.9.2-.25.1-.1-.75.7m-9.7.95 1.25.45.85.15m8.25-2.15.15-.15m-.35.4.1-.1.1-.15m1.6-3.1L21.1 22.9q-1.7.95-5.8 1l-1.9-.05m-2.25 2.25h.05m-2.45-3.65-1.5-1.2m2.85 2-.7-.35m-.65-.45.65.45m.7.35 3.2.6m-.15 4.25-.05-.05-.2-.15m-.2-.45v-.15l.6-.6m-2.15-.6q-1.2-.5-2.05-1.35" fill="none" stroke="#9f8a11" stroke-linecap="round" stroke-linejoin="round" stroke-width=".05"/><path d="M17.4 28.25h-.05" fill="none" stroke="#c57354" stroke-linecap="round" stroke-linejoin="round" stroke-width=".05"/><path d="M24.4 11.65q-.7-1.55-2.05-2.85l-1.05-.9m-.05-.05q-2.6-1.9-5.95-1.9-3.15 0-5.55 1.6l-.2.15-.55.4M7.25 21.25q-1.95-2.5-1.95-5.7 0-3.95 2.9-6.75l.8-.7m15.4 3.55.05.05v.05l.05.05v.1l.05.05V12l.05.05q.65 1.6.65 3.5v.25q-.05 2.1-.9 3.85l-.45.8-.75 1M21.3 7.9l-.05-.05" fill="none" stroke="#ccc" stroke-linecap="round" stroke-linejoin="round" stroke-width=".05"/></g></defs></svg>