<svg viewBox="0 0 35.205 45.49" xmlns="http://www.w3.org/2000/svg" xmlns:xlink="http://www.w3.org/1999/xlink"><use transform="matrix(1.2422 .924 -.8236 1.1072 28.29 -.93)" width="7.6" height="38.35" xlink:href="#a"/><defs><use width="7.6" height="38.35" xlink:href="#b" id="a"/><g id="b"><path d="M-.45 9h-.5v-23.75H0L-.45 9" fill="#a55c05" fill-rule="evenodd" transform="translate(3.6 29.35)"/><path d="M0-14.75h.65V9h-1.1L0-14.75" fill="#d09304" fill-rule="evenodd" transform="translate(3.6 29.35)"/><path d="M4.25 14.6v23.75" fill="none" stroke="#533402" stroke-linecap="round" stroke-linejoin="round" stroke-width=".05"/><path d="m-2.1-18.3 1.85-.45 2.1.45.9 2.35-1 2.55-2 .5-1.65-.5-1.1-2.55.9-2.35" fill="#7d9b02" fill-rule="evenodd" transform="translate(3.6 29.35)"/><path d="m5.45 11.05.9 2.35-1 2.55-2 .5-1.65-.5L.6 13.4l.9-2.35" fill="none" stroke="#3f4701" stroke-linecap="round" stroke-linejoin="round" stroke-width=".05"/><path d="m-2.2-27.45-.55.1.05-.95.4-.55.55.3-.45 1.1m4.1-.15-.6-.2-.1-1.25.9.55-.2.9m.45 3.15.7-.35.55.65-.9.15-.35-.45M-1-22.35l.4.4-.85.5-1.4-.1.9-.35.45-.1.5-.35" fill="#ff9" fill-rule="evenodd" transform="translate(3.6 29.35)"/><path d="M4-23.65v.8l-.7.45.35.8-1.2 2.95-.35.1-.4.3-2.55.35-2.75-1.15.1-.65.65-.6 3.25-.75.2-1.45H.55l.05-.2.05-.05 1.55.35L4-23.65m-.7 1.25-1.7 1.15 1.7-1.15m-.9 1-.75.55.65 1.3.5-1.1-.4-.75m-2.95 1.8 1.3-1.15.05-.1.35-1.45-.55-.2.55.2-.35 1.45-.05.1-1.3 1.15-.15.05 1.05.3 1-.5-.45-.65-1.45.8" fill="#c27b05" fill-rule="evenodd" transform="translate(3.6 29.35)"/><path d="m-2.85-21.6-.35-2.6-.25-3.05.9-2.1 1.15.55v1.85h.05L-1-24.6v.2h1l.65-2.5v-.05l.1-.55v-.55l.3-1.15 1.05.1.65 1.15-.2 1.7-.05.15-.3 1.2-.1.2-.1.35L3.05-25l.95.75v.6L2.2-22.4l-1.55-.35-.05.05-.05.2H.6l-.2 1.45-3.25.75-.65.6.3-1.4.35-.45v-.05m5.2-2.85.35.45.9-.15-.55-.65-.7.35M1.9-27.6l.2-.9-.9-.55.1 1.25.6.2m-4.1.15.45-1.1-.55-.3-.4.55-.05.95.55-.1m4.6 6.05.4.75-.5 1.1-.65-1.3.75-.55m-2.95 1.8 1.45-.8.45.65-1 .5-1.05-.3.15-.05M-1.5-22l-.45.1-.9.35 1.4.1.85-.5-.4-.4-.5.35m2.05-.5h-.1l-.9-.35-.2.25-.35.25.35-.25.2-.25.9.35h.1M2-24.35l-1.35 1.6L2-24.35" fill="#ffcf2b" fill-rule="evenodd" transform="translate(3.6 29.35)"/><path d="M.75 7.75.4 5.15.15 2.1l.9-2.1L2.2.55v1.5m.05.35.35 2.35v.2h1l.65-2.5m.1-.6V1.3l.3-1.15 1.05.1.65 1.15-.2 1.7-.05.15-.3 1.2-.1.2-.1.35 1.05-.65.95.75v.6m-.7 1.25.35.8-1.2 2.95-.35.1-.4.3-2.55.35L0 10.3l.1-.65.3-1.4.35-.45m4.45.3 1.7-1.15M4.25 6.6l-.05.05-.05.2h.05l.55.2L4.4 8.5l-.05.1-1.3 1.15m-.95-2.4L2.6 7l.35-.25.2-.25.9.35h.1m.1-.25L5.6 5" fill="none" stroke="#533402" stroke-linecap="round" stroke-linejoin="round" stroke-width=".05"/><path d="M0-14.3V-16l2.9-1.05v1.8L0-14.3" fill="#ffcf2b" fill-rule="evenodd" transform="translate(3.6 29.35)"/><path d="M0-16v1.7l-3.05-1v-1.8L0-16" fill="#c27b05" fill-rule="evenodd" transform="translate(3.6 29.35)"/><path d="m3.6 15.05 2.9-.95v-1.8l-2.9 1.05-3.05-1.1v1.8z" fill="none" stroke="#7e5801" stroke-linecap="round" stroke-linejoin="round" stroke-width=".05"/></g></defs></svg>