<svg viewBox="0 0 75.55 77.1" xmlns="http://www.w3.org/2000/svg" xmlns:xlink="http://www.w3.org/1999/xlink"><g transform="translate(-340.4 -163.8)"><use transform="translate(353.75 200.1)" width="26.8" height="26.7" xlink:href="#a"/><use transform="matrix(-.1969 -.1969 .1281 -.1281 375.45 207.88)" width="14.4" height="27.6" xlink:href="#b"/><use transform="matrix(-.1969 -.1969 .1281 -.1281 368.06 216.11)" width="17.1" height="17.75" xlink:href="#c"/><use transform="matrix(-.1969 -.1969 .1281 -.1281 369.26 214.91)" width="17.1" height="17.75" xlink:href="#c"/><use transform="matrix(-.1969 -.1969 .1281 -.1281 370.46 213.71)" width="17.1" height="17.75" xlink:href="#c"/><use transform="matrix(-.1969 -.1969 .1281 -.1281 371.66 212.51)" width="17.1" height="17.75" xlink:href="#c"/><use transform="matrix(.0175 .1657 .2079 .0651 371.49 205.03)" width="17.1" height="17.75" xlink:href="#c"/><use transform="matrix(.0175 .1657 .2079 .0651 372.19 205.73)" width="17.1" height="17.75" xlink:href="#c"/><use transform="matrix(.0175 .1657 .2079 .0651 370.59 204.13)" width="17.1" height="17.75" xlink:href="#c"/><use transform="matrix(-.1969 -.1969 .1281 -.1281 372.56 211.21)" width="17.1" height="17.75" xlink:href="#c"/><use transform="matrix(-.1969 -.1969 .1281 -.1281 373.71 210.06)" width="17.1" height="17.75" xlink:href="#c"/><use transform="rotate(-135.004 228.92 32.573) scale(.2626)" width="23.95" height="20.1" xlink:href="#d"/><use transform="matrix(-.1969 -.1969 .1281 -.1281 363.45 220.08)" width="14.4" height="27.6" xlink:href="#b"/><use transform="matrix(-.1969 -.1969 .1281 -.1281 356.01 228.26)" width="17.1" height="17.75" xlink:href="#c"/><use transform="matrix(-.1969 -.1969 .1281 -.1281 357.21 227.06)" width="17.1" height="17.75" xlink:href="#c"/><use transform="matrix(-.1969 -.1969 .1281 -.1281 358.41 225.86)" width="17.1" height="17.75" xlink:href="#c"/><use transform="matrix(-.1969 -.1969 .1281 -.1281 359.61 224.66)" width="17.1" height="17.75" xlink:href="#c"/><use transform="matrix(.0175 .1657 .2079 .0651 359.44 217.18)" width="17.1" height="17.75" xlink:href="#c"/><use transform="matrix(.0175 .1657 .2079 .0651 360.14 217.88)" width="17.1" height="17.75" xlink:href="#c"/><use transform="matrix(.0175 .1657 .2079 .0651 358.54 216.28)" width="17.1" height="17.75" xlink:href="#c"/><use transform="matrix(-.1969 -.1969 .1281 -.1281 360.51 223.36)" width="17.1" height="17.75" xlink:href="#c"/><use transform="matrix(-.1969 -.1969 .1281 -.1281 361.66 222.21)" width="17.1" height="17.75" xlink:href="#c"/><use transform="rotate(-135.004 225.412 41.143) scale(.2626)" width="23.95" height="20.1" xlink:href="#d"/><use transform="translate(340.4 177.95)" width="62.2" height="62.95" xlink:href="#e"/><use transform="matrix(.1969 .1969 -.1281 .1281 380.85 196.82)" width="14.4" height="27.6" xlink:href="#b"/><use transform="matrix(.1969 .1969 -.1281 .1281 388.29 188.64)" width="17.1" height="17.75" xlink:href="#c"/><use transform="matrix(.1969 .1969 -.1281 .1281 387.09 189.84)" width="17.1" height="17.75" xlink:href="#c"/><use transform="matrix(.1969 .1969 -.1281 .1281 385.89 191.04)" width="17.1" height="17.75" xlink:href="#c"/><use transform="matrix(.1969 .1969 -.1281 .1281 384.69 192.24)" width="17.1" height="17.75" xlink:href="#c"/><use transform="matrix(-.0175 -.1657 -.2079 -.0651 384.86 199.72)" width="17.1" height="17.75" xlink:href="#c"/><use transform="matrix(-.0175 -.1657 -.2079 -.0651 384.16 199.02)" width="17.1" height="17.75" xlink:href="#c"/><use transform="matrix(-.0175 -.1657 -.2079 -.0651 385.76 200.62)" width="17.1" height="17.75" xlink:href="#c"/><use transform="matrix(.1969 .1969 -.1281 .1281 383.79 193.54)" width="17.1" height="17.75" xlink:href="#c"/><use transform="matrix(.1969 .1969 -.1281 .1281 382.64 194.69)" width="17.1" height="17.75" xlink:href="#c"/><use transform="rotate(44.996 -31.802 562.664) scale(.2626)" width="23.95" height="20.1" xlink:href="#d"/><use transform="matrix(.1969 .1969 -.1281 .1281 392.95 184.62)" width="14.4" height="27.6" xlink:href="#b"/><use transform="matrix(.1969 .1969 -.1281 .1281 400.34 176.49)" width="17.1" height="17.75" xlink:href="#c"/><use transform="matrix(.1969 .1969 -.1281 .1281 399.14 177.69)" width="17.1" height="17.75" xlink:href="#c"/><use transform="matrix(.1969 .1969 -.1281 .1281 397.94 178.89)" width="17.1" height="17.75" xlink:href="#c"/><use transform="matrix(.1969 .1969 -.1281 .1281 396.74 180.09)" width="17.1" height="17.75" xlink:href="#c"/><use transform="matrix(-.0175 -.1657 -.2079 -.0651 396.91 187.57)" width="17.1" height="17.75" xlink:href="#c"/><use transform="matrix(-.0175 -.1657 -.2079 -.0651 396.21 186.87)" width="17.1" height="17.75" xlink:href="#c"/><use transform="matrix(-.0175 -.1657 -.2079 -.0651 397.81 188.47)" width="17.1" height="17.75" xlink:href="#c"/><use transform="matrix(.1969 .1969 -.1281 .1281 395.84 181.39)" width="17.1" height="17.75" xlink:href="#c"/><use transform="rotate(45.009 -22.9 567.75) scale(.2785 .1811)" width="17.1" height="17.75" xlink:href="#c"/><use transform="rotate(44.996 -11.112 571.136) scale(.2626)" width="23.95" height="20.1" xlink:href="#d"/><use transform="translate(384.7 163.8)" width="31.25" height="31.45" xlink:href="#f"/></g><defs><g id="a"><path d="m376.85 202.15 1.85 1.85.35-.35-.35.35-1.85-1.85m2.5 1.6-.6.6-2.45-2.45.6-.6 2.45 2.45" fill="#423737" fill-rule="evenodd" transform="translate(-353.75 -200.1)"/><path d="m379.7 200.9.85 4.05-2.45-2.45 1.6-1.6m.65 3.65-.7-3.3-1.3 1.3 1.3-1.3.7 3.3" fill="#9e8b8b" fill-rule="evenodd" transform="translate(-353.75 -200.1)"/><path d="m376.9 201.3-1.2-1.2 4 .8-1.6 1.6-1.2-1.2" fill="#655" fill-rule="evenodd" transform="translate(-353.75 -200.1)"/><path d="m25.3 3.55-.35.35-1.85-1.85" fill="none" stroke="#9e8b8b" stroke-linecap="round" stroke-linejoin="round" stroke-width=".05"/><path d="m25.95.8.85 4.05-1.2-1.2-.6.6-2.45-2.45.6-.6-1.2-1.2 4 .8-1.6 1.6 1.25 1.25M24.35 2.4l-1.2-1.2" fill="none" stroke="#000" stroke-linecap="round" stroke-linejoin="round" stroke-opacity=".251" stroke-width=".05"/><path d="m24.6 2.45 1.3-1.3.7 3.3" fill="none" stroke="#c5baba" stroke-linecap="round" stroke-linejoin="round" stroke-width=".05"/><path d="m377.45 206.2.5.1-5.9 4.3-2.9-1.3-6.65 4.85 5.95-6.2 3.6-.1 5.4-1.65m-2.45-3.85-3.1 3.1-2.7 1.15 5.8-4.25" fill="#391515" fill-rule="evenodd" transform="translate(-353.75 -200.1)"/><path d="m362.5 214.15-1.15-.95 3.5-4.85 10.15-6-5.8 4.25 2.7-1.15 5.55.75-5.4 1.65-3.6.1-5.95 6.2" fill="#712929" fill-rule="evenodd" transform="translate(-353.75 -200.1)"/><path d="m23.7 6.1-5.4 1.65-3.6.1-5.95 6.2m12.5-11.8-5.8 4.25 2.7-1.15" fill="none" stroke="#c5baba" stroke-linecap="round" stroke-linejoin="round" stroke-width=".05"/><path d="m357.6 225.95.1.5 4.3-5.9-1.3-2.9 4.85-6.65-6.2 5.95-.1 3.6-1.65 5.4m-3.85-2.45 3.1-3.1 1.15-2.7-4.25 5.8" fill="#391515" fill-rule="evenodd" transform="translate(-353.75 -200.1)"/><path d="m365.55 211-.95-1.15-4.85 3.5-6 10.15 4.25-5.8-1.15 2.7.75 5.55 1.65-5.4.1-3.6 6.2-5.95" fill="#712929" fill-rule="evenodd" transform="translate(-353.75 -200.1)"/><path d="m3.85 25.85 1.65-5.4.1-3.6 6.2-5.95M0 23.4l4.25-5.8-1.15 2.7" fill="none" stroke="#c5baba" stroke-linecap="round" stroke-linejoin="round" stroke-width=".05"/><path d="m374.35 203.1-.1-.5-4.3 5.9 1.3 2.9-4.85 6.65 6.2-5.95.1-3.6 1.65-5.4m3.85 2.45-3.1 3.1-1.15 2.7 4.25-5.8" fill="#391515" fill-rule="evenodd" transform="translate(-353.75 -200.1)"/><path d="m366.4 218.05.95 1.15q2.45-1.8 4.85-3.5l6-10.15-4.25 5.8 1.15-2.7-.75-5.55-1.65 5.4-.1 3.6-6.2 5.95" fill="#712929" fill-rule="evenodd" transform="translate(-353.75 -200.1)"/><path d="m20.6 3-1.65 5.4-.1 3.6-6.2 5.95m11.8-12.5-4.25 5.8 1.15-2.7" fill="none" stroke="#c5baba" stroke-linecap="round" stroke-linejoin="round" stroke-width=".05"/><path d="m354.6 222.95-.5-.1 5.9-4.3 2.9 1.3 6.65-4.85-5.95 6.2-3.6.1-5.4 1.65m2.45 3.85 3.1-3.1 2.7-1.15-5.8 4.25" fill="#391515" fill-rule="evenodd" transform="translate(-353.75 -200.1)"/><path d="m369.55 215 1.15.95-3.5 4.85-10.15 6 5.8-4.25-2.7 1.15-5.55-.75 5.4-1.65 3.6-.1 5.95-6.2" fill="#712929" fill-rule="evenodd" transform="translate(-353.75 -200.1)"/><path d="m.85 22.85 5.4-1.65 3.6-.1 5.95-6.2M3.3 26.7l5.8-4.25-2.7 1.15" fill="none" stroke="#c5baba" stroke-linecap="round" stroke-linejoin="round" stroke-width=".05"/></g><g id="b"><path d="M.85-13.8v27.6H-7.2v-27.6H.85m-1.7 2.65V13.8v-24.95" fill="#655959" fill-rule="evenodd" transform="translate(7.2 13.8)"/><path d="M.85 13.8v-27.6H7.2v27.6H.85" fill="#2a2323" fill-rule="evenodd" transform="translate(7.2 13.8)"/><path d="M6.35 27.6V2.65" fill="none" stroke="#7f7878" stroke-linecap="round" stroke-linejoin="round" stroke-width=".05"/></g><g id="c"><path d="M7.45-9.2h.1v1.75Q5.25-6.35 2.8-5.5q-2.55.85-4.4 2 2.65-2.2 5.75-3.9l3.3-1.8m-1.8 4.8.4.75q-.6.8-2.2 1.5Q-.65-.05-4.2 2.6L-3.1.9-1.7-1q.1.25.4.1 3.45-1.5 6.95-3.5" fill="#87481c" fill-rule="evenodd" transform="translate(8.55 9.2)"/><path d="m7.55-7.45 1 3-1.1 2.75-14.9 8.05V5L-3.2-.25-7.45 1.6V0l12.5-9.2h2.4l-3.3 1.8Q1.05-5.7-1.6-3.5q1.85-1.15 4.4-2 2.45-.85 4.75-1.95M5.65-4.4q-3.5 2-6.95 3.5-.3.15-.4-.1L-3.1.9l-1.1 1.7Q-.65-.05 3.85-2.15q1.6-.7 2.2-1.5l-.4-.75" fill="#5c1e15" fill-rule="evenodd" transform="translate(8.55 9.2)"/><path d="M7.45-1.7-6.45 8.55l-1-.6v-1.6L7.45-1.7M-7.45 5l-1.1-1.35 1.1-2.05L-3.2-.25-7.45 5" fill="#310f0b" fill-rule="evenodd" transform="translate(8.55 9.2)"/><path d="M16 7.5 2.1 17.75m-1-8.55L13.6 0" fill="none" stroke="#000" stroke-linecap="round" stroke-linejoin="round" stroke-opacity=".251" stroke-width=".05"/></g><g id="d"><path d="M1.35 10.1H-10.4l.15-1.45-.05-.15H-12q3.1-9 0-16.75 1.05-.55 1.6-1.75H1.35Q-1.4.1 1.35 10.1M-1.4-8.1v18.2-18.2" fill="#b66868" fill-rule="evenodd" transform="translate(12 10)"/><path d="M1.35-10h9.15q.15 1.05 1.45 1.45-2.45 6.85 0 13.7-.4.25-.55.75l-.5.2-.15.8-.15.75-.55.25-.05.15L9.6 10l-.05.1h-8.2Q-1.4.1 1.35-10" fill="#712929" fill-rule="evenodd" transform="translate(12 10)"/><path d="M10.6 20.1V1.9" fill="none" stroke="#d58d8d" stroke-linecap="round" stroke-linejoin="round" stroke-width=".05"/></g><g id="e"><path d="m361.95 209.7.05-.2 2.05 2.8-.6 1.45 2.35 3.2-3-2.9-.05-1.7-.8-2.65m-1.8 1.2 1.45 1.5.55 1.3-2-2.8" fill="#391515" fill-rule="evenodd" transform="translate(-340.4 -177.95)"/><path d="m365.8 216.95-.5.5-2.3-1.7-2.85-4.85 2 2.8-.55-1.3.35-2.7.8 2.65.05 1.7 3 2.9" fill="#712929" fill-rule="evenodd" transform="translate(-340.4 -177.95)"/><path d="m21.55 31.75.8 2.65.05 1.7 3 2.9m-5.65-6.05 2 2.8-.55-1.3" fill="none" stroke="#c5baba" stroke-linecap="round" stroke-linejoin="round" stroke-width=".05"/><path d="m371.5 219.25.2-.05-2.8-2.05-1.45.6-3.2-2.35 2.9 3 1.7.05 2.65.8m-1.2 1.8-1.5-1.45-1.3-.55 2.8 2" fill="#391515" fill-rule="evenodd" transform="translate(-340.4 -177.95)"/><path d="m364.25 215.4-.5.5 1.7 2.3 4.85 2.85-2.8-2 1.3.55 2.7-.35-2.65-.8-1.7-.05-2.9-3" fill="#712929" fill-rule="evenodd" transform="translate(-340.4 -177.95)"/><path d="m31.1 41.3-2.65-.8-1.7-.05-2.9-3m6.05 5.65-2.8-2 1.3.55" fill="none" stroke="#c5baba" stroke-linecap="round" stroke-linejoin="round" stroke-width=".05"/><path d="m357.65 214-.2.05 2.8 2.05 1.45-.6 3.2 2.35-2.9-3-1.7-.05-2.65-.8m1.2-1.8 1.5 1.45 1.3.55-2.8-2" fill="#391515" fill-rule="evenodd" transform="translate(-340.4 -177.95)"/><path d="m364.9 217.85.5-.5-1.7-2.3-4.85-2.85 2.8 2-1.3-.55-2.7.35 2.65.8 1.7.05 2.9 3" fill="#712929" fill-rule="evenodd" transform="translate(-340.4 -177.95)"/><path d="m17.25 36.05 2.65.8 1.7.05 2.9 3m-6.05-5.65 2.8 2-1.3-.55" fill="none" stroke="#c5baba" stroke-linecap="round" stroke-linejoin="round" stroke-width=".05"/><path d="m367.2 223.55-.05.2-2.05-2.8.6-1.45-2.35-3.2 3 2.9.05 1.7.8 2.65m1.8-1.2-1.45-1.5-.55-1.3 2 2.8" fill="#391515" fill-rule="evenodd" transform="translate(-340.4 -177.95)"/><path d="m363.35 216.3.5-.5 2.3 1.7 2.85 4.85-2-2.8.55 1.3-.35 2.7-.8-2.65-.05-1.7-3-2.9" fill="#712929" fill-rule="evenodd" transform="translate(-340.4 -177.95)"/><path d="m26.8 45.6-.8-2.65-.05-1.7-3-2.9m5.65 6.05-2-2.8.55 1.3" fill="none" stroke="#c5baba" stroke-linecap="round" stroke-linejoin="round" stroke-width=".05"/><path d="M350.1 220.15v-.25l2.4 3.3-.65 1.6 2.7 3.65-3.45-3.35-.05-1.95-.95-3m-2.1 1.35 1.7 1.7.65 1.5-2.35-3.2" fill="#391515" fill-rule="evenodd" transform="translate(-340.4 -177.95)"/><path d="m354.55 228.45-.6.6-2.65-1.9-3.3-5.65 2.35 3.2-.65-1.5.4-3.05.95 3 .05 1.95 3.45 3.35" fill="#712929" fill-rule="evenodd" transform="translate(-340.4 -177.95)"/><path d="m9.7 42.2.95 3 .05 1.95 3.45 3.35M7.6 43.55l2.35 3.2-.65-1.5" fill="none" stroke="#c5baba" stroke-linecap="round" stroke-linejoin="round" stroke-width=".05"/><path d="M361 231.15h.25l-3.3-2.4-1.6.65-3.65-2.7 3.35 3.45 1.95.05 3 .95m-1.35 2.1-1.7-1.7-1.5-.65 3.2 2.35" fill="#391515" fill-rule="evenodd" transform="translate(-340.4 -177.95)"/><path d="m352.7 226.7-.6.6 1.9 2.65 5.65 3.3-3.2-2.35 1.5.65 3.05-.4-3-.95-1.95-.05-3.35-3.45" fill="#712929" fill-rule="evenodd" transform="translate(-340.4 -177.95)"/><path d="m20.6 53.2-3-.95-1.95-.05-3.35-3.45m6.95 6.55-3.2-2.35 1.5.65" fill="none" stroke="#c5baba" stroke-linecap="round" stroke-linejoin="round" stroke-width=".05"/><path d="M351.7 221.65v-.2l1.7 2.3-.5 1.15 1.9 2.6-2.4-2.35v-1.4l-.7-2.1m-1.5.95 1.2 1.2.45 1.05-1.65-2.25" fill="#391515" fill-rule="evenodd" transform="translate(-340.4 -177.95)"/><path d="m354.8 227.5-.4.45-1.85-1.4-2.35-3.95 1.65 2.25-.45-1.05.3-2.15.7 2.1v1.4l2.4 2.35" fill="#712929" fill-rule="evenodd" transform="translate(-340.4 -177.95)"/><path d="m11.3 43.7.7 2.1v1.4l2.4 2.35m-4.6-4.9 1.65 2.25-.45-1.05" fill="none" stroke="#c5baba" stroke-linecap="round" stroke-linejoin="round" stroke-width=".05"/><path d="M359.45 229.4h.2l-2.3-1.7-1.15.5-2.6-1.9 2.35 2.4h1.4l2.1.7m-.95 1.5-1.2-1.2-1.05-.45 2.25 1.65" fill="#391515" fill-rule="evenodd" transform="translate(-340.4 -177.95)"/><path d="m353.6 226.3-.45.4 1.4 1.85 3.95 2.35-2.25-1.65 1.05.45 2.15-.3-2.1-.7h-1.4l-2.35-2.4" fill="#712929" fill-rule="evenodd" transform="translate(-340.4 -177.95)"/><path d="m19.05 51.45-2.1-.7h-1.4l-2.35-2.4m4.9 4.6-2.25-1.65 1.05.45" fill="none" stroke="#c5baba" stroke-linecap="round" stroke-linejoin="round" stroke-width=".05"/><path d="M344.25 233.85q1.4 0 2.4 1 .95.95.95 2.35t-.95 2.35q-1 1-2.35.95-1.4 0-2.35-.95-1-1-1-2.4 0-1.3 1-2.3.95-.95 2.3-1" fill="url(#g)" fill-rule="evenodd" transform="translate(-340.4 -177.95)"/><path d="M3.85 55.9q1.4 0 2.4 1 .95.95.95 2.35t-.95 2.35q-1 1-2.35.95-1.4 0-2.35-.95-1-1-1-2.4 0-1.3 1-2.3.95-.95 2.3-1z" fill="none" stroke="#c5baba" stroke-linecap="round" stroke-linejoin="round" stroke-width=".05"/><path d="M352.85 226.55q.8 0 1.4.6.55.55.55 1.35t-.55 1.35q-.6.6-1.4.6t-1.35-.55q-.6-.6-.6-1.4t.6-1.4q.55-.55 1.35-.55" fill="url(#h)" fill-rule="evenodd" transform="translate(-340.4 -177.95)"/><path d="M12.45 48.6q.8 0 1.4.6.55.55.55 1.35t-.55 1.35q-.6.6-1.4.6t-1.35-.55q-.6-.6-.6-1.4t.6-1.4q.55-.55 1.35-.55z" fill="none" stroke="#c5baba" stroke-linecap="round" stroke-linejoin="round" stroke-width=".05"/><path d="M356.65 229.7h.25l-3.3 2.4-1.6-.65-3.65 2.7 3.35-3.45 1.95-.05 3-.95m-1.35-2.1-1.7 1.7-1.5.65 3.2-2.35" fill="#391515" fill-rule="evenodd" transform="translate(-340.4 -177.95)"/><path d="m348.35 234.15-.6-.6 1.9-2.65 5.65-3.3-3.2 2.35 1.5-.65 3.05.4-3 .95-1.95.05-3.35 3.45" fill="#712929" fill-rule="evenodd" transform="translate(-340.4 -177.95)"/><path d="m16.25 51.75-3 .95-1.95.05-3.35 3.45m6.95-6.55L11.7 52l1.5-.65" fill="none" stroke="#c5baba" stroke-linecap="round" stroke-linejoin="round" stroke-width=".05"/><path d="M345.6 240.65v.25l2.4-3.3-.65-1.6 2.7-3.65-3.45 3.35-.05 1.95-.95 3m-2.1-1.35 1.7-1.7.65-1.5-2.35 3.2" fill="#391515" fill-rule="evenodd" transform="translate(-340.4 -177.95)"/><path d="m350.05 232.35-.6-.6-2.65 1.9-3.3 5.65 2.35-3.2-.65 1.5.4 3.05.95-3 .05-1.95 3.45-3.35" fill="#712929" fill-rule="evenodd" transform="translate(-340.4 -177.95)"/><path d="m5.2 62.7.95-3 .05-1.95 3.45-3.35M3.1 61.35l2.35-3.2-.65 1.5" fill="none" stroke="#c5baba" stroke-linecap="round" stroke-linejoin="round" stroke-width=".05"/><path d="M351.6 224.65v-.25l-2.4 3.3.65 1.6-2.7 3.65 3.45-3.35.05-1.95.95-3m2.1 1.35-1.7 1.7-.65 1.5 2.35-3.2" fill="#391515" fill-rule="evenodd" transform="translate(-340.4 -177.95)"/><path d="m347.15 232.95.6.6 2.65-1.9 3.3-5.65-2.35 3.2.65-1.5-.4-3.05-.95 3-.05 1.95-3.45 3.35" fill="#712929" fill-rule="evenodd" transform="translate(-340.4 -177.95)"/><path d="m11.2 46.7-.95 3-.05 1.95L6.75 55m6.55-6.95-2.35 3.2.65-1.5" fill="none" stroke="#c5baba" stroke-linecap="round" stroke-linejoin="round" stroke-width=".05"/><path d="M340.65 235.7h-.25l3.3-2.4 1.6.65 3.65-2.7-3.35 3.45-1.95.05-3 .95m1.35 2.1 1.7-1.7 1.5-.65-3.2 2.35" fill="#391515" fill-rule="evenodd" transform="translate(-340.4 -177.95)"/><path d="m348.95 231.25.6.6-1.9 2.65-5.65 3.3 3.2-2.35-1.5.65-3.05-.4 3-.95 1.95-.05 3.35-3.45" fill="#712929" fill-rule="evenodd" transform="translate(-340.4 -177.95)"/><path d="m.25 57.75 3-.95 1.95-.05 3.35-3.45M1.6 59.85l3.2-2.35-1.5.65" fill="none" stroke="#c5baba" stroke-linecap="round" stroke-linejoin="round" stroke-width=".05"/><path d="m379.5 202.6-1.85-1.85-.35.35.35-.35 1.85 1.85M377 201l.6-.6 2.45 2.45-.6.6L377 201" fill="#423737" fill-rule="evenodd" transform="translate(-340.4 -177.95)"/><path d="m376.65 203.85-.85-4.05 2.45 2.45-1.6 1.6m-.65-3.65.7 3.3 1.3-1.3-1.3 1.3-.7-3.3" fill="#9e8b8b" fill-rule="evenodd" transform="translate(-340.4 -177.95)"/><path d="m379.45 203.45 1.2 1.2-4-.8 1.6-1.6 1.2 1.2" fill="#655" fill-rule="evenodd" transform="translate(-340.4 -177.95)"/><path d="m36.9 23.15.35-.35 1.85 1.85" fill="none" stroke="#9e8b8b" stroke-linecap="round" stroke-linejoin="round" stroke-width=".05"/><path d="m36.25 25.9-.85-4.05 1.2 1.2.6-.6 2.45 2.45-.6.6 1.2 1.2-4-.8 1.6-1.6-1.25-1.25m1.25 1.25 1.2 1.2" fill="none" stroke="#000" stroke-linecap="round" stroke-linejoin="round" stroke-opacity=".251" stroke-width=".05"/><path d="m37.6 24.25-1.3 1.3-.7-3.3" fill="none" stroke="#c5baba" stroke-linecap="round" stroke-linejoin="round" stroke-width=".05"/><path d="m378.9 198.55-.5-.1 5.9-4.3 2.9 1.3 6.65-4.85-5.95 6.2-3.6.1-5.4 1.65m2.45 3.85 3.1-3.1 2.7-1.15-5.8 4.25" fill="#391515" fill-rule="evenodd" transform="translate(-340.4 -177.95)"/><path d="m393.85 190.6 1.15.95-3.5 4.85-10.15 6 5.8-4.25-2.7 1.15-5.55-.75 5.4-1.65 3.6-.1 5.95-6.2" fill="#712929" fill-rule="evenodd" transform="translate(-340.4 -177.95)"/><path d="m38.5 20.6 5.4-1.65 3.6-.1 5.95-6.2m-12.5 11.8 5.8-4.25-2.7 1.15" fill="none" stroke="#c5baba" stroke-linecap="round" stroke-linejoin="round" stroke-width=".05"/><path d="m398.75 178.8-.1-.5-4.3 5.9 1.3 2.9-4.85 6.65 6.2-5.95.1-3.6 1.65-5.4m3.85 2.45-3.1 3.1-1.15 2.7 4.25-5.8" fill="#391515" fill-rule="evenodd" transform="translate(-340.4 -177.95)"/><path d="m390.8 193.75.95 1.15 4.85-3.5 6-10.15-4.25 5.8 1.15-2.7-.75-5.55-1.65 5.4-.1 3.6-6.2 5.95" fill="#712929" fill-rule="evenodd" transform="translate(-340.4 -177.95)"/><path d="m58.35.85-1.65 5.4-.1 3.6-6.2 5.95M62.2 3.3l-4.25 5.8 1.15-2.7" fill="none" stroke="#c5baba" stroke-linecap="round" stroke-linejoin="round" stroke-width=".05"/><path d="m382 201.65.1.5 4.3-5.9-1.3-2.9 4.85-6.65-6.2 5.95-.1 3.6-1.65 5.4m-3.85-2.45 3.1-3.1 1.15-2.7-4.25 5.8" fill="#391515" fill-rule="evenodd" transform="translate(-340.4 -177.95)"/><path d="m389.95 186.7-.95-1.15-4.85 3.5-6 10.15 4.25-5.8-1.15 2.7.75 5.55 1.65-5.4.1-3.6 6.2-5.95" fill="#712929" fill-rule="evenodd" transform="translate(-340.4 -177.95)"/><path d="m41.6 23.7 1.65-5.4.1-3.6 6.2-5.95m-11.8 12.5 4.25-5.8-1.15 2.7" fill="none" stroke="#c5baba" stroke-linecap="round" stroke-linejoin="round" stroke-width=".05"/><path d="m401.75 181.8.5.1-5.9 4.3-2.9-1.3-6.65 4.85 5.95-6.2 3.6-.1 5.4-1.65m-2.45-3.85-3.1 3.1-2.7 1.15 5.8-4.25" fill="#391515" fill-rule="evenodd" transform="translate(-340.4 -177.95)"/><path d="m386.8 189.75-1.15-.95 3.5-4.85 10.15-6-5.8 4.25 2.7-1.15 5.55.75-5.4 1.65-3.6.1-5.95 6.2" fill="#712929" fill-rule="evenodd" transform="translate(-340.4 -177.95)"/><path d="m61.35 3.85-5.4 1.65-3.6.1-5.95 6.2M58.9 0l-5.8 4.25 2.7-1.15" fill="none" stroke="#c5baba" stroke-linecap="round" stroke-linejoin="round" stroke-width=".05"/></g><g id="f"><path d="m394.4 195.05-.05.2-2.05-2.8.6-1.45-2.35-3.2 3 2.9.05 1.7.8 2.65m1.8-1.2-1.45-1.5-.55-1.3 2 2.8" fill="#391515" fill-rule="evenodd" transform="translate(-384.7 -163.8)"/><path d="m390.55 187.8.5-.5 2.3 1.7 2.85 4.85-2-2.8.55 1.3-.35 2.7-.8-2.65-.05-1.7-3-2.9" fill="#712929" fill-rule="evenodd" transform="translate(-384.7 -163.8)"/><path d="m9.7 31.25-.8-2.65-.05-1.7-3-2.9m5.65 6.05-2-2.8.55 1.3" fill="none" stroke="#c5baba" stroke-linecap="round" stroke-linejoin="round" stroke-width=".05"/><path d="m384.9 185.55-.2.05 2.8 2.05 1.45-.6 3.2 2.35-2.9-3-1.7-.05-2.65-.8m1.2-1.8 1.5 1.45 1.3.55-2.8-2" fill="#391515" fill-rule="evenodd" transform="translate(-384.7 -163.8)"/><path d="m392.15 189.4.5-.5-1.7-2.3-4.85-2.85 2.8 2-1.3-.55-2.7.35 2.65.8 1.7.05 2.9 3" fill="#712929" fill-rule="evenodd" transform="translate(-384.7 -163.8)"/><path d="m.2 21.75 2.65.8 1.7.05 2.9 3M1.4 19.95l2.8 2-1.3-.55" fill="none" stroke="#c5baba" stroke-linecap="round" stroke-linejoin="round" stroke-width=".05"/><path d="m398.75 190.7.2-.05-2.8-2.05-1.45.6-3.2-2.35 2.9 3 1.7.05 2.65.8m-1.2 1.8-1.5-1.45-1.3-.55 2.8 2" fill="#391515" fill-rule="evenodd" transform="translate(-384.7 -163.8)"/><path d="m391.5 186.85-.5.5 1.7 2.3 4.85 2.85-2.8-2 1.3.55 2.7-.35-2.65-.8-1.7-.05-2.9-3" fill="#712929" fill-rule="evenodd" transform="translate(-384.7 -163.8)"/><path d="m14.05 26.9-2.65-.8-1.7-.05-2.9-3m6.05 5.65-2.8-2 1.3.55" fill="none" stroke="#c5baba" stroke-linecap="round" stroke-linejoin="round" stroke-width=".05"/><path d="m389.2 181.25.05-.2 2.05 2.8-.6 1.45 2.35 3.2-3-2.9-.05-1.7-.8-2.65m-1.8 1.2 1.45 1.5.55 1.3-2-2.8" fill="#391515" fill-rule="evenodd" transform="translate(-384.7 -163.8)"/><path d="m393.05 188.5-.5.5-2.3-1.7-2.85-4.85 2 2.8-.55-1.3.35-2.7.8 2.65.05 1.7 3 2.9" fill="#712929" fill-rule="evenodd" transform="translate(-384.7 -163.8)"/><path d="m4.5 17.45.8 2.65.05 1.7 3 2.9M2.7 18.65l2 2.8-.55-1.3" fill="none" stroke="#c5baba" stroke-linecap="round" stroke-linejoin="round" stroke-width=".05"/><path d="M406.25 184.6v.25l-2.4-3.3.65-1.6-2.7-3.65 3.45 3.35.05 1.95.95 3m2.1-1.35-1.7-1.7-.65-1.5 2.35 3.2" fill="#391515" fill-rule="evenodd" transform="translate(-384.7 -163.8)"/><path d="m401.8 176.3.6-.6 2.65 1.9 3.3 5.65-2.35-3.2.65 1.5-.4 3.05-.95-3-.05-1.95-3.45-3.35" fill="#712929" fill-rule="evenodd" transform="translate(-384.7 -163.8)"/><path d="m21.55 20.8-.95-3-.05-1.95-3.45-3.35m6.55 6.95-2.35-3.2.65 1.5" fill="none" stroke="#c5baba" stroke-linecap="round" stroke-linejoin="round" stroke-width=".05"/><path d="M395.35 173.6h-.25l3.3 2.4 1.6-.65 3.65 2.7-3.35-3.45-1.95-.05-3-.95m1.35-2.1 1.7 1.7 1.5.65-3.2-2.35" fill="#391515" fill-rule="evenodd" transform="translate(-384.7 -163.8)"/><path d="m403.65 178.05.6-.6-1.9-2.65-5.65-3.3 3.2 2.35-1.5-.65-3.05.4 3 .95 1.95.05 3.35 3.45" fill="#712929" fill-rule="evenodd" transform="translate(-384.7 -163.8)"/><path d="m10.65 9.8 3 .95 1.95.05 3.35 3.45M12 7.7l3.2 2.35-1.5-.65" fill="none" stroke="#c5baba" stroke-linecap="round" stroke-linejoin="round" stroke-width=".05"/><path d="M404.65 183.1v.2l-1.7-2.3.5-1.15-1.9-2.6 2.4 2.35v1.4l.7 2.1m1.5-.95-1.2-1.2-.45-1.05 1.65 2.25" fill="#391515" fill-rule="evenodd" transform="translate(-384.7 -163.8)"/><path d="m401.55 177.25.4-.45 1.85 1.4 2.35 3.95-1.65-2.25.45 1.05-.3 2.15-.7-2.1v-1.4l-2.4-2.35" fill="#712929" fill-rule="evenodd" transform="translate(-384.7 -163.8)"/><path d="m19.95 19.3-.7-2.1v-1.4l-2.4-2.35m4.6 4.9L19.8 16.1l.45 1.05" fill="none" stroke="#c5baba" stroke-linecap="round" stroke-linejoin="round" stroke-width=".05"/><path d="M396.9 175.35h-.2l2.3 1.7 1.15-.5 2.6 1.9-2.35-2.4H399l-2.1-.7m.95-1.5 1.2 1.2 1.05.45-2.25-1.65" fill="#391515" fill-rule="evenodd" transform="translate(-384.7 -163.8)"/><path d="m402.75 178.45.45-.4-1.4-1.85-3.95-2.35 2.25 1.65-1.05-.45-2.15.3 2.1.7h1.4l2.35 2.4" fill="#712929" fill-rule="evenodd" transform="translate(-384.7 -163.8)"/><path d="m12.2 11.55 2.1.7h1.4l2.35 2.4m-4.9-4.6 2.25 1.65-1.05-.45" fill="none" stroke="#c5baba" stroke-linecap="round" stroke-linejoin="round" stroke-width=".05"/><path d="M412.1 170.9q-1.4 0-2.4-1-.95-.95-.95-2.35t.95-2.35q1-1 2.35-.95 1.4 0 2.35.95 1 1 1 2.4 0 1.3-1 2.3-.95.95-2.3 1" fill="url(#i)" fill-rule="evenodd" transform="translate(-384.7 -163.8)"/><path d="M27.4 7.1q-1.4 0-2.4-1-.95-.95-.95-2.35T25 1.4q1-1 2.35-.95 1.4 0 2.35.95 1 1 1 2.4 0 1.3-1 2.3-.95.95-2.3 1z" fill="none" stroke="#c5baba" stroke-linecap="round" stroke-linejoin="round" stroke-width=".05"/><path d="M403.5 178.2q-.8 0-1.4-.6-.55-.55-.55-1.35t.55-1.35q.6-.6 1.4-.6t1.35.55q.6.6.6 1.4t-.6 1.4q-.55.55-1.35.55" fill="url(#j)" fill-rule="evenodd" transform="translate(-384.7 -163.8)"/><path d="M18.8 14.4q-.8 0-1.4-.6-.55-.55-.55-1.35t.55-1.35q.6-.6 1.4-.6t1.35.55q.6.6.6 1.4t-.6 1.4q-.55.55-1.35.55z" fill="none" stroke="#c5baba" stroke-linecap="round" stroke-linejoin="round" stroke-width=".05"/><path d="M399.75 175h-.25l3.3-2.4 1.6.65 3.65-2.7-3.35 3.45-1.95.05-3 .95m1.35 2.1 1.7-1.7 1.5-.65-3.2 2.35" fill="#391515" fill-rule="evenodd" transform="translate(-384.7 -163.8)"/><path d="m408.05 170.55.6.6-1.9 2.65-5.65 3.3 3.2-2.35-1.5.65-3.05-.4 3-.95 1.95-.05 3.35-3.45" fill="#712929" fill-rule="evenodd" transform="translate(-384.7 -163.8)"/><path d="m15.05 11.2 3-.95L20 10.2l3.35-3.45M16.4 13.3l3.2-2.35-1.5.65" fill="none" stroke="#c5baba" stroke-linecap="round" stroke-linejoin="round" stroke-width=".05"/><path d="M410.8 164.05v-.25l-2.4 3.3.65 1.6-2.7 3.65 3.45-3.35.05-1.95.95-3m2.1 1.35-1.7 1.7-.65 1.5 2.35-3.2" fill="#391515" fill-rule="evenodd" transform="translate(-384.7 -163.8)"/><path d="m406.35 172.35.6.6 2.65-1.9 3.3-5.65-2.35 3.2.65-1.5-.4-3.05-.95 3-.05 1.95-3.45 3.35" fill="#712929" fill-rule="evenodd" transform="translate(-384.7 -163.8)"/><path d="m26.1.25-.95 3-.05 1.95-3.45 3.35M28.2 1.6l-2.35 3.2.65-1.5" fill="none" stroke="#c5baba" stroke-linecap="round" stroke-linejoin="round" stroke-width=".05"/><path d="M404.8 180.05v.25l2.4-3.3-.65-1.6 2.7-3.65-3.45 3.35-.05 1.95-.95 3m-2.1-1.35 1.7-1.7.65-1.5-2.35 3.2" fill="#391515" fill-rule="evenodd" transform="translate(-384.7 -163.8)"/><path d="m409.25 171.75-.6-.6-2.65 1.9-3.3 5.65 2.35-3.2-.65 1.5.4 3.05.95-3 .05-1.95 3.45-3.35" fill="#712929" fill-rule="evenodd" transform="translate(-384.7 -163.8)"/><path d="m20.1 16.25.95-3 .05-1.95 3.45-3.35M18 14.9l2.35-3.2-.65 1.5" fill="none" stroke="#c5baba" stroke-linecap="round" stroke-linejoin="round" stroke-width=".05"/><path d="M415.7 168.95h.25l-3.3 2.4-1.6-.65-3.65 2.7 3.35-3.45 1.95-.05 3-.95m-1.35-2.1-1.7 1.7-1.5.65 3.2-2.35" fill="#391515" fill-rule="evenodd" transform="translate(-384.7 -163.8)"/><path d="m407.4 173.4-.6-.6 1.9-2.65q2.85-1.7 5.65-3.3l-3.2 2.35 1.5-.65 3.05.4-3 .95-1.95.05-3.35 3.45" fill="#712929" fill-rule="evenodd" transform="translate(-384.7 -163.8)"/><path d="m31 5.15-3 .95-1.95.05L22.7 9.6m6.95-6.55-3.2 2.35 1.5-.65" fill="none" stroke="#c5baba" stroke-linecap="round" stroke-linejoin="round" stroke-width=".05"/></g><radialGradient id="g" cx="0" cy="0" r="819.2" gradientTransform="rotate(-135.047 220.467 47.888) scale(.0065)" gradientUnits="userSpaceOnUse"><stop stop-color="#b4a69a" offset="0"/><stop stop-color="#dbe7db" offset=".463"/><stop stop-color="#b7aca0" offset="1"/></radialGradient><radialGradient id="h" cx="0" cy="0" r="819.2" gradientTransform="rotate(-135.278 222.86 41.246) scale(.0038)" gradientUnits="userSpaceOnUse"><stop stop-color="#b4a69a" offset="0"/><stop stop-color="#dbe7db" offset=".463"/><stop stop-color="#b7aca0" offset="1"/></radialGradient><radialGradient id="i" cx="0" cy="0" r="819.2" gradientTransform="rotate(44.953 4.764 582.679) scale(.0065)" gradientUnits="userSpaceOnUse"><stop stop-color="#b4a69a" offset="0"/><stop stop-color="#dbe7db" offset=".463"/><stop stop-color="#b7aca0" offset="1"/></radialGradient><radialGradient id="j" cx="0" cy="0" r="819.2" gradientTransform="rotate(44.722 -13.367 574.672) scale(.0038)" gradientUnits="userSpaceOnUse"><stop stop-color="#b4a69a" offset="0"/><stop stop-color="#dbe7db" offset=".463"/><stop stop-color="#b7aca0" offset="1"/></radialGradient></defs></svg>