<svg viewBox="0 0 15.267 23.538" xmlns="http://www.w3.org/2000/svg" xmlns:xlink="http://www.w3.org/1999/xlink"><g transform="translate(-287.37 -246.9)"><use transform="translate(287.37 247.95) scale(.8082)" width="18.05" height="27.8" xlink:href="#a"/><use transform="matrix(-.3578 .342 -.1016 -.2285 302.64 255.25)" width="3.85" height="7.9" xlink:href="#b"/><use transform="matrix(-.1546 .799 -.1016 -.2285 301.65 252.95)" width="3.85" height="7.9" xlink:href="#b"/><use transform="matrix(-.1275 .4775 -.2053 -.1421 302.48 253.97)" width="3.85" height="7.9" xlink:href="#b"/><use transform="matrix(-.4883 -.0947 .1284 -.216 300.79 257.05)" width="3.85" height="7.9" xlink:href="#b"/><use transform="matrix(-.745 .3374 .1284 -.216 302.1 254.91)" width="3.85" height="7.9" xlink:href="#b"/><use transform="matrix(-.4656 .1729 -.0027 -.2509 301.77 256.16)" width="3.85" height="7.9" xlink:href="#b"/><use transform="matrix(.2913 .4019 -.2409 .0699 292.72 258.71)" width="3.85" height="7.9" xlink:href="#b"/><use transform="matrix(.7731 .262 -.2409 .0699 290.31 259.42)" width="3.85" height="7.9" xlink:href="#b"/><use transform="matrix(.4572 .1914 -.1691 .1848 291.38 258.67)" width="3.85" height="7.9" xlink:href="#b"/><use transform="matrix(.4954 .0426 -.1048 .2283 290.62 259.22)" width="3.85" height="7.9" xlink:href="#b"/><use transform="matrix(.705 -.414 -.1048 .2283 289.53 261.53)" width="3.85" height="7.9" xlink:href="#b"/><use transform="matrix(.4446 -.2209 .0292 .2492 289.74 260.22)" width="3.85" height="7.9" xlink:href="#b"/><use transform="matrix(.4445 .222 -.1815 .1735 298.18 246.9)" width="3.85" height="7.9" xlink:href="#b"/><use transform="matrix(.8076 -.125 -.1815 .1735 296.42 248.66)" width="3.85" height="7.9" xlink:href="#b"/><use transform="matrix(.4945 -.0416 -.0646 .2422 297.07 247.51)" width="3.85" height="7.9" xlink:href="#b"/></g><defs><g id="a"><path d="M22.75-6.4v.05-.05m1.75.25.1.05.35.25.1.1H25l-.5-.4m4.4-8 1.55-.2-.75.1-.8.1M21.05-6.2l-.3-.4.3.35v.05" fill="#8e5846" fill-rule="evenodd" transform="translate(-12.4 14.35)"/><path d="m24.6-6.1-.05-.05h.05v.05m-9.5 19.5-.15-.1.1-.15-.05-.05.05.05.05.25-.05-.25.05.25m8.4-17.05h-.1l.1-.05v.05m-2.3.35-.05-.1.05.1" fill="#6f4335" fill-rule="evenodd" transform="translate(-12.4 14.35)"/><path d="M15.2 11.35v.05h-.05q-.45-.05-.6.15-.35-.35-.2-.5h.05v.05l.5.25-.05-.2.35.2" fill="#95784a" fill-rule="evenodd" transform="translate(-12.4 14.35)"/><path d="m20.85-12.3.3-.55.05-.1.7-1q-1.4 2.2-.55 4.4-2.1.7-.55 2.75l.45.55 1.4 1.9q-1.4-1.3-1.6-1.85v-.05l-.3-.35-.1-.15-.05-.05q-.45-.65-.6-1.15-.5-1.4 1-1.85-.45-1.25-.15-2.5m1.5 5.8h.15l.1.05.15.05v.05l.2.2q.1.45-.15.8.05-.55-.3-1h-.05l-.1-.15m4-3.85-1.3-.1q.95.25 1.4-.7l-.1.8m-4.9 7.55-.1-.15-.15-.35q.4.45 1.05.4l-.8.1M20.4-5q-.8.25-.65-.6.15.6 1.4.35L20.4-5m-5.85 16.55-.45-.15q-.3-.2-.05-.5l.35-.35.15-.9.1.5.05.35-.05.55.05.05h.05l.1.05.05.2-.5-.25v-.05h-.05q-.15.15.2.5M25-5.75h.05q.25.25.15.7l.25.3-1.1.75-.85.3-.1.05q-.4-.05-.75-.25l1.7-.4.65-.85v-.6" fill="#655532" fill-rule="evenodd" transform="translate(-12.4 14.35)"/><path d="M23.5-3.7v.05-.05" fill="#302618" fill-rule="evenodd" transform="translate(-12.4 14.35)"/><path d="m19.75-5.6.05-1.2-.35-1.8q-.25-.9.85-1.35-.15-1 .55-2.35-.3 1.25.15 2.5-1.5.45-1 1.85.15.5.6 1.15l.05.05.1.15.3.4q.2.55 1.6 1.85l-1.4-1.9.35.4.75-.65.1.15h.05q.35.45.3 1 .25-.35.15-.8h1.55l.5.4v.6l-.65.85-1.7.4q.35.2.75.25h.1l.85-.15 1.45-.95q.8.55 2-2.05 1.4-3.05-1.45-3.55l.1-.8q-.45.95-1.4.7-.45-.4.2-1.55.85-1.5 3.15-2.05l.45-.1h.05l.8-.1-.4.1-.9.25q-.9.25-1.55.8h-.05l-.6.65q-.3.65.55 1.3l.4.25.1.05L28.4-9.4l.2 1.05-.2 1.65q-.65 2.65-2.85 2.95l-1.2.3-.4.15q-2.1.8-3.05 2.2l-.25.5q-1 .45-1.25 1.05l-.1.5-.6.95h-.05l-.15.15-.55.3q.1.5-.2 1.05l-.1.2-1.1 1.9-.85 1.75q-1.2 2.4-.5 4.1l-.35-.2-.1-.05h-.05l-.05-.05.05-.55-.05-.35-.1-.5-.15.9-.35.35q-.25.3.05.5l-.25.05q-.6.1-1 .4l-.25.2.7-1.05.05-.15q1.7-2.7 2.85-5.35l1.3-3.45.15-.15 2.95-3 .55-.8.3-.9.8-.1q-.65.05-1.05-.4l-.05-.1.05.1.15.35L21.2-3l-.35-.35V-4l-.45-1 .75-.25q-1.25.25-1.4-.35" fill="#daa854" fill-rule="evenodd" transform="translate(-12.4 14.35)"/><path d="M24.6-6.15q1.2.2 1 1.1l.25.3h-.05l-1.45.95-.85.15v-.05l.85-.3 1.1-.75-.25-.3q.1-.45-.15-.7l-.1-.1-.35-.25v-.05M12.5 12.7l-.05-.1q-.1-.3.15-.55l.25-.2q.4-.3 1-.4l.25-.05.45.15q.15-.2.6-.15h.05v-.05q-.7-1.7.5-4.1l.85-1.75 1.1-1.9.1-.2q.3-.55.2-1.05l.55-.3.15-.15h.05l.6-.95.1-.5q.25-.6 1.25-1.05l.25-.5q.95-1.4 3.05-2.2l.4-.15 1.2-.3q2.2-.3 2.85-2.95l.2-1.65-.2-1.05-1.15-1.45L28.4-9.6l.35 1.2-.35 2.35L27.9-5l-1 .95-1.05.35-1.25.4-.25.1-.2.1-2.3 1.5-.4.5-.45.75-.25.2q-.5.25-.75.6t-.25.8l-.05.1-.25.35-.05.05-.1.15-.05.1-1.95 3.2-.05.05v.05l-.15.2-.5 1.15-.35.75v.1l-.1.25q-.8 2.05-.3 3.6l-.15.15.05.1v.15l-.4.65-1.15.4-.1-.35-.05.25-.65.15-.9-.15" fill="#855e2a" fill-rule="evenodd" transform="translate(-12.4 14.35)"/><path d="m29.3-14.15-.9.3-1.3.75q-1.35 1.05 0 2l1.3 1.05.65 1.65Q29-6.5 28.4-5.3l-.2.3q-.5.75-1.3 1.1l-.75.2-1.05.35h-.05l-.7.3-.2.1-.3.1-1.5 1.05-.05.05v.05l-.1.1h-.05v.05L22-1.4l-.1.15h-.05l-.1.15-.45.75-1 .8q-.25.35-.25.8l-.05.1-.25.35-.05.05-.1.15-.05.1-1.95 3.2-.05.05v.05l-.15.2-.5 1.15-.35.75v.1l-.1.25q-.9 2.35-.1 4.05l.3.4v.15l-.4.65-.5.25-.65.15-.05-.25-.05-.05.05.05-.1.15-.25.1-.4.05-.8-.1-.25-.05-.4-.2-.35-.4.9.15.65-.15.05-.25.1.35 1.15-.4.4-.65v-.15l-.05-.1.15-.15q-.5-1.55.3-3.6l.1-.25v-.1l.35-.75.5-1.15.15-.2v-.05l.05-.05L19.25 2l.05-.1.1-.15.05-.05.25-.35.05-.1q0-.45.25-.8t.75-.6l.25-.2.45-.75.4-.5 2.3-1.5.2-.1.25-.1 1.25-.4 1.05-.35 1-.95.5-1.05.35-2.35-.35-1.2-1.15-1.25-.1-.05-.4-.25q-.85-.65-.55-1.3l.6-.65h.05q.65-.55 1.55-.8l.9-.25" fill="#5b3f1e" fill-rule="evenodd" transform="translate(-12.4 14.35)"/><path d="m7.35 8.75.05-1.2-.35-1.8q-.25-.9.85-1.35-.15-1 .55-2.35l.3-.55.05-.1.7-1 .25-.35-.1.2L9.5.4q-1.4 2.2-.55 4.4-2.1.7-.55 2.75l.45.55.35.4.75-.65h.15l.1.05.15.05V8l.2.2h1.55l.1.05m-.05-.05h.05q1.2.2 1 1.1l.25.3m-.05 0q.8.55 2-2.05Q16.8 4.5 13.95 4l-1.3-.1q-.45-.4.2-1.55Q13.7.85 16 .3l.45-.1h.05l1.55-.2-.75.1-.4.1-.9.3-1.3.75q-1.35 1.05 0 2L16 4.3l.65 1.65q-.05 1.9-.65 3.1l-.2.3q-.5.75-1.3 1.1l-.75.2-1.05.35h-.05l-.7.3-.2.1m-2 1.4-.15.15-.1.15h-.05l-.1.15-.45.75-1 .8q-.25.35-.25.8m-3.7 10.55.3.4v.15l-.4.65-.5.25-.65.15m-.8.05-.8-.1-.25-.05-.4-.2-.35-.4-.05-.1q-.1-.3.15-.55l.7-1.05.05-.15q1.7-2.7 2.85-5.35l1.3-3.45.15-.15 2.95-3 .55-.8.3-.9-.1-.15-.15-.05-.35-.35v-.65l-.45-1q-.8.25-.65-.6" fill="none" stroke="#000" stroke-linecap="round" stroke-linejoin="round" stroke-opacity=".302" stroke-width=".05"/><path d="m11.75 11.4-.3.1-1.5 1.05-.05.05v.05l-.1.1h-.05v.05m-2.1 2.8-.05.1-.25.35-.05.05-.1.15-.05.1-1.95 3.2-.05.05v.05l-.15.2L4.5 21l-.35.75v.1l-.1.25q-.9 2.35-.1 4.05m-1.25 1.6-.15-.1-.25.1-.4.05m.65-.15.1-.15-.05-.05.05.05.05.25-.05-.25" fill="none" stroke="#000" stroke-linecap="round" stroke-linejoin="round" stroke-opacity=".302" stroke-width=".05"/></g><g id="b" fill-rule="evenodd"><path d="M1.25-1.4q-.25.05-.15.9l.5 1.95.85 1.8q.4.75.65.65t.15-.9l-.5-1.95-.85-1.8-.65-.65M2.6-.3l.75 3.05q.2 1.25-.2 1.4l-1.05-.7Q1.4 2.65.9 1.1l-1-3.45q-.55-1.9-.2-1.25.3.65 1.3 1.15Q1.95-2 2.6-.3" fill="#2a290f" transform="translate(.45 3.75)"/><path d="m1.25-1.4.65.65.85 1.8.5 1.95q.1.8-.15.9t-.65-.65l-.85-1.8L1.1-.5q-.1-.85.15-.9" fill="#303023" transform="translate(.45 3.75)"/></g></defs></svg>