<svg viewBox="0 0 94.926 112.51" xmlns="http://www.w3.org/2000/svg" xmlns:xlink="http://www.w3.org/1999/xlink"><use transform="translate(.02 .02)" width="94.9" height="112.45" xlink:href="#a"/><defs><g id="a"><path d="m265.65 204.7 13.7-14.7q18.8-10.35 37.6-12.65 3.1-9.9.25-19.85-1.3 3.7-4.1 5.85l-1.75-1.8q3.6-3.65 4.35-8.2v-.05l.05-.2q2.2-6.7 6.05-9.35-3.2 6.05-2.75 9.9l.1.6 2.15 5.1q1.1 10.2-1.7 19.6-20.5 3.45-39.05 13.05l-10.65 14.45q-1.15-3.4-4.25-1.75M228 250.55v-.05l3.85-5.05q4.9-.9 8.5 1.25l-3.55 4.8-3.45-2.25-5.35 1.3m13.65-17.7 6.3-7.7q3.95-.3 6.25 2.7l-6.4 8.7q-1.85-4.3-6.15-3.7m75.55-75.35.25-.35-.25.35m-.25 19.85.05.45-.05-.45m-1.25-24 .05-.25-.05.25" fill="#a5932e" fill-rule="evenodd" transform="translate(-228 -143.75)"/><path d="m260.25 210.75 5.4-6.05q3.1-1.65 4.25 1.75l.4 1.75-4.05 5.35-.65-1.2q-1.6-2.2-5.35-1.6" fill="#e28258" fill-rule="evenodd" transform="translate(-228 -143.75)"/><path d="m257.05 214.4 3.2-3.65q3.75-.6 5.35 1.6l.65 1.2-4.9 6.65-.35-1.6q-1.05-4.1-3.95-4.2m-10.1 27.45-4.1 6.85q-1.15-1.25-2.5-2-3.6-2.15-8.5-1.25l8-10.3q3.7 1 5.85 4.3l1.25 2.4" fill="#b34b20" fill-rule="evenodd" transform="translate(-228 -143.75)"/><path d="M321.3 159.35q3.25 10.1-.2 21.2-19.4 3.45-38.75 12.95-6.25 7.25-12.05 14.7l-.4-1.75L280.55 192q18.55-9.6 39.05-13.05 2.8-9.4 1.7-19.6m-66.25 69.9-6.45 9.9-.8-2.6 6.4-8.7.85 1.4m-12.2 19.45-3.45 6.05q-3.75 1.95-8 1.3-2.65-1.7-3.4-5.5l5.35-1.3 3.45 2.25 3.55-4.8q1.35.75 2.5 2" fill="#8a7b26" fill-rule="evenodd" transform="translate(-228 -143.75)"/><path d="m248.6 239.15-1.65 2.7-1.25-2.4q-2.15-3.3-5.85-4.3l1.8-2.3q4.3-.6 6.15 3.7l.8 2.6" fill="#c55423" fill-rule="evenodd" transform="translate(-228 -143.75)"/><path d="m257.3 225.95-2.25 3.3-.85-1.4q-2.3-3-6.25-2.7l3.35-4q3.7 0 5.4 3.3l.6 1.5" fill="#de7041" fill-rule="evenodd" transform="translate(-228 -143.75)"/><path d="m261.35 220.2-4.05 5.75-.6-1.5q-1.7-3.3-5.4-3.3l5.75-6.75q2.9.1 3.95 4.2l.35 1.6" fill="#da5f29" fill-rule="evenodd" transform="translate(-228 -143.75)"/><path d="m29.05 70.65 3.2-3.65 5.4-6.05 13.7-14.7q18.8-10.35 37.6-12.65 3.1-9.9.25-19.85-1.3 3.7-4.1 5.85l-1.75-1.8q3.6-3.65 4.35-8.2v-.05l.05-.2q2.2-6.7 6.05-9.35-3.2 6.05-2.75 9.9l.1.6 2.15 5.1q3.25 10.1-.2 21.2-19.4 3.45-38.75 12.95Q48.1 57 42.3 64.45l-4.05 5.35-4.9 6.65-4.05 5.75-2.25 3.3-6.45 9.9-1.65 2.7-4.1 6.85L11.4 111q-3.75 1.95-8 1.3-2.65-1.7-3.4-5.5v-.05l3.85-5.05 8-10.3 1.8-2.3 6.3-7.7 3.35-4 5.75-6.75q2.9.1 3.95 4.2l.35 1.6m-13.4 4.95q3.95-.3 6.25 2.7l.85 1.4m-3.75-8.1q3.7 0 5.4 3.3l.6 1.5M32.25 67q3.75-.6 5.35 1.6l.65 1.2m3.65-7.1.4 1.75m-4.65-3.5q3.1-1.65 4.25 1.75M87.75 9.35l-.05.25M89 34.05l-.05-.45m.5-20.2-.25.35M19.8 92.8l.8 2.6m-8.75-4q3.7 1 5.85 4.3l1.25 2.4m-6.6 4.85q-3.6-2.15-8.5-1.25m8.5 1.25q1.35.75 2.5 2m-1.2-15.85q4.3-.6 6.15 3.7" fill="none" stroke="#000" stroke-linecap="round" stroke-linejoin="round" stroke-opacity=".302" stroke-width=".05"/><path d="m301.75 157.8 1.2.4 1.4-.3q-1.25 1.65-1.25 4.15 1.5 3.85 5.85 4.45 3.6-.1 5.4-3.5.75-2.5-.6-4.2l1.7.05 1-.8 1.8 10.2-8.55 7.8-11.2-1.85-2.8-9.65 6.05-6.75m14.5 7.3q-2.65 4.35-7.15 6.8-4.6 1.3-9.35.6 3.35 2.25 9.75 2 6.05-3.9 6.75-9.4" fill="#76b359" fill-rule="evenodd" transform="translate(-228 -143.75)"/><path d="M316.25 165.1q-.7 5.5-6.75 9.4-6.4.25-9.75-2 4.75.7 9.35-.6 4.5-2.45 7.15-6.8" fill="#517e3a" fill-rule="evenodd" transform="translate(-228 -143.75)"/><path d="m301.75 157.8 1.65-1.85 12.75.5.3 1.6-1 .8-1.7-.05q1.35 1.7.6 4.2-1.8 3.4-5.4 3.5-4.35-.6-5.85-4.45 0-2.5 1.25-4.15l-1.4.3-1.2-.4" fill="#d2e7c9" fill-rule="evenodd" transform="translate(-228 -143.75)"/><path d="m88.45 14.3-.3-1.6-12.75-.5-1.65 1.85m14.7.25 1.8 10.2-8.55 7.8-11.2-1.85-2.8-9.65 6.05-6.75" fill="none" stroke="#000" stroke-linecap="round" stroke-linejoin="round" stroke-opacity=".302" stroke-width=".05"/></g></defs></svg>