<svg viewBox="0 0 88.471 91.433" xmlns="http://www.w3.org/2000/svg" xmlns:xlink="http://www.w3.org/1999/xlink"><g transform="translate(-229.08 -156.27)"><use transform="translate(231.3 174.65)" width="74.2" height="72.1" xlink:href="#a"/><use transform="matrix(.506 .8891 -1.0196 .5246 301.35 153.51)" width="17.8" height="14.1" xlink:href="#b"/><use transform="matrix(-.896 -.4946 -.5114 1.0268 320.28 174.55)" width="17.8" height="14.1" xlink:href="#b"/><use transform="rotate(-95.793 230.563 -41.156) scale(.5697)" width="24.25" height="24.7" xlink:href="#c"/><use transform="matrix(.8166 -.6139 .6487 .9435 277.52 175.68)" width="17.8" height="14.1" xlink:href="#b"/><use transform="matrix(.4428 -.9225 -1.054 -.4522 305.95 199.79)" width="17.8" height="14.1" xlink:href="#b"/><use transform="translate(229.1 221.15)" width="38.9" height="26.8" xlink:href="#d"/></g><defs><g id="a"><path d="m243.15 229.85.3-.4.05-.05 4.5-5.25 1.4-1.55 3.95-4.4.85-.9 1.1-1.2.15-.1.65-.75.15-.15.9-.95 5.2-5.2 1.3-1.25.65-.65 2.45-2.3q9.3-8.7 19.25-16.35l1.35-1.05.75-.55q8.25-6.2 16.9-11.65-33.7 25.1-69.25 71.1-3.35.15-3.95-1.85 5.5-7.5 11.35-14.55" fill="#693" fill-rule="evenodd" transform="translate(-231.3 -174.65)"/><path d="M288.1 186.8q8.25-6.2 16.9-11.65-33.7 25.1-69.25 71.1-3.35.15-3.95-1.85 5.5-7.5 11.35-14.55" fill="none" stroke="#000" stroke-linecap="round" stroke-linejoin="round" stroke-opacity=".6" transform="translate(-231.3 -174.65)"/></g><g id="e"><path d="M-1.95-10.6q-6.25-.45-8.4 3.05Q-7.1-5.9-7.5-3.9q-2.35.15-4.8 3.05-1.6-.75-1.65-1.65-.45-7.4 4.85-9.3 2.9-1 7.15 1.2" fill="#ffd5fa" fill-rule="evenodd" transform="translate(14 12.1)"/><path d="M-12.3-.85q2.45-2.9 4.8-3.05.4-2-2.85-3.65 2.15-3.5 8.4-3.05.35.25.7.35l5.05 4.6L-.55 2Q-2.15.05-3.6-.25l-3.7.05q-4.2-.15-5-.65" fill="#fae" fill-rule="evenodd" transform="translate(14 12.1)"/><path d="M12.05 1.5Q7.8-.7 4.9.3-.4 2.2.05 9.6q.05.9 1.65 1.65.8.5 5 .65l3.7-.05q1.45.3 3.05 2.25m4.35-7.65-5.05-4.6q-.35-.1-.7-.35z" fill="none" stroke="#9e4e9b" stroke-linecap="round" stroke-linejoin="round" stroke-width=".05"/><path d="M7.8 4.2q5.45 1.75 7.6 4.55m-1.35 1.85Q12.8 8.85 9 8.7" fill="none" stroke="#9e4e9b" stroke-linecap="round" stroke-linejoin="round" stroke-width=".05"/></g><g id="f"><path d="m9.25 1.45-.4.35v-.05l.4-.3" fill="#f9dfd0" fill-rule="evenodd" transform="translate(12.15 11.15)"/><path d="m.65-8.5-.1 2.7.1-2.7m-11 5.45q1.3-2.15 3.7-4.3Q-.9-12.7 8-10.5q4.6 4.35 4.05 12.45-.5 5.7-4.15 8.75l-.15.15q-6.5 3.1-12.4-.6L-4.9 10q-6.45-5.4-5.45-13.05M-2.2-4.8l.45 1.2-.45-1.2m-5.6-.25 2.6 2.15-2.6-2.15m17.05 6.5-.4.3v.05l.4-.35m-16.8-2.1 2.75.7-2.75-.7" fill="#ffcc1e" fill-rule="evenodd" transform="translate(12.15 11.15)"/><path d="M7.75 10.85q-1.9 1.5-4.6 2.3l-2.65.4q-3.9.1-8.7-2.6Q-11.65 8.7-12.15 3q-.2-2.95 1.8-6.05-1 7.65 5.45 13.05l.25.25q5.9 3.7 12.4.6" fill="#b38a00" fill-rule="evenodd" transform="translate(12.15 11.15)"/><path d="m-5.2-2.9-2.6-2.15m6.05 1.45-.45-1.2M-4.8.05l-2.75-.7M.55-5.8l.1-2.7" fill="none" stroke="#ffe791" stroke-linecap="round" stroke-linejoin="round" transform="translate(12.15 11.15)"/><path d="M20.15.65Q24.75 5 24.2 13.1q-.5 5.7-4.15 8.75m-.15.15q-1.9 1.5-4.6 2.3l-2.65.4q-3.9.1-8.7-2.6" fill="none" stroke="#000" stroke-linecap="round" stroke-linejoin="round" stroke-opacity=".302" stroke-width=".05"/></g><g id="d"><path d="M239.95 234.25q-1.15 2.5-2.85 5 14.95-12.4 28-17.6 5.7 6.85-2.25 11.4.1-3.75-5.05-3.4l-.1.05-.6.25q-3.65-.3-9.55 3.65l-15.75 13.6q-2.4-.8-2.2-4.2 4.95-4.4 8-9.8l2.35 1.05m-.3-5.4.05-.2-.3-.25q-2.65-2-5.85 0 2.95-6.3 8.95-6.3.25 4.6-1.35 9.3l-1.5-2.55" fill="#88c44d" fill-rule="evenodd" transform="translate(-229.1 -221.15)"/><path d="m239.95 234.25-2.35-1.05 2.05-4.35 1.5 2.55-1.2 2.85m-8.15 12.95 15.75-13.6q5.9-3.95 9.55-3.65-11.95 5.05-20.9 17.15l-4.4.1" fill="#5e8c2f" fill-rule="evenodd" transform="translate(-229.1 -221.15)"/><path d="m257.1 229.95.6-.25.1-.05q5.15-.35 5.05 3.4 7.95-4.55 2.25-11.4-13.05 5.2-28 17.6 1.7-2.5 2.85-5m-2.35-1.05q-3.05 5.4-8 9.8-.2 3.4 2.2 4.2m25.3-17.25q-11.95 5.05-20.9 17.15l-4.4.1m9.35-15.8q1.6-4.7 1.35-9.3-6 0-8.95 6.3 3.2-2 5.85 0l.3.25-.05.2-2.05 4.35m3.55-1.8-1.2 2.85" fill="none" stroke="#000" stroke-linecap="round" stroke-linejoin="round" stroke-opacity=".6" transform="translate(-229.1 -221.15)"/></g><use width="17.8" height="14.1" xlink:href="#e" id="b"/><use width="24.25" height="24.7" xlink:href="#f" id="c"/></defs></svg>