<svg viewBox="0 0 62.322 68.35" xmlns="http://www.w3.org/2000/svg" xmlns:xlink="http://www.w3.org/1999/xlink"><use transform="translate(-.03)" width="62.35" height="68.35" xlink:href="#a"/><defs><g id="a"><path d="m324 272.9.6.65 1.55 1.45 5.35 5.15 1.5 1.45 5.7 5.5 1.5 1.5 6.65 6.4 1.5 1.5 6.05 5.85.25.2q.55.9.4 2l-.05.25-.8 1.55-1.25.95-.35.15-1.9-.2-.2-.2-2.3-2.2-1.55-1.5-6.5-6.3-1.55-1.5-4.55-4.4-1.55-1.5-5.55-5.4-1.4-1.3-.2-.2-3.95-3.85q3.85-.95 2.6-6m-25.35-6.1-.05-.05q-.5-1.65-.5-3.3 0-2.55 1.75-3.85 1.8-1.4 4.25-.75l.75.2h.2v.05l.05.05.2.1 2.7 1 .05.1-1.25-.4h-.05l-2.1-.1-.5.1H304q-.35.1-.6.3l-.75.4v.05l-.55.45-.2.25-.1.1-.5.75-.3.9q-.2.6-.15 1.35v1l.15.95-.05.05q-.6 1.35-2.3.25v.05m6.2-9.7-.05-.6q0-2.5 1.8-3.85l1.05-.6 2.85-.2.3.05q1.6.4 2.75 1.1v.05l-1.2-.2h-.4q-1.1 0-2.05.55l-.6.4-.3.25-.2.2-.5.6-.15.3-.3.55-.05.2-.2.65v.15l-.1.95q-.85.5-2.65-.55m42.3 38.85-.3-.95.3.95m-14.4-12.55.55 1.65-.55-1.65m.25-1.8q4.65 11.2 1.05 9.55 3.6 1.65-1.05-9.55m5.7 5.5.45 1.45-.45-1.45m1.45 6.1.05.95-.05-.95m-.55-2.9.3 1.3-.3-1.3m.05 5.35-1.05-.1 1.05.1m-5.85-8.95.25 1.4-.25-1.4m-.1 3.05-1.2-.1 1.2.1M326.15 275q4.9 10.95.8 9.25 4.1 1.7-.8-9.25m5.35 5.15.65 1.75-.65-1.75m-4.45-.05.2 1.65-.2-1.65m-.95-3 .4 1.15-.4-1.15m-1.5-3.55.9 2-.9-2m22.9 29.8h-.85.85m.1-6 .3 1.05-.3-1.05m.65 2.7.1 1.95-.1-1.95m-8.1-3q3.15 1.35.05-8.45 3.1 9.8-.05 8.45m8.2-.55q3.25 9.15-.15 8.35 3.4.8.15-8.35" fill="#f37878" fill-rule="evenodd" transform="translate(-296.45 -241.4)"/><path d="m321.5 266.1.25 4.6-.45 4.35-4.15-.2-5.25-.5h-.05q-3.15-.55-5.55-1.65l-.6-.3-2.3-1.4-1.2-1.3-.05-.05-.8-1.75q-.25-.7-.35-1.4v-.05l-.15-.95v-1q-.05-.75.15-1.35l.3-.9.5-.75.1-.1.2-.25.55-.45v-.05l.75-.4q.25-.2.6-.3h.15l.5-.1 2.1.1h.05l1.25.4-.05-.1q-.5-1.35-.5-2.6l.1-.95v-.15l.2-.65.05-.2.3-.55.15-.3.5-.6.2-.2.3-.25.6-.4q.95-.55 2.05-.55h.4l1.2.2h.1q1.3.3 2.35.9l1.3.9.6.65.65 1.05.75 1.5.3.65q1.35 3.4 1.85 7.25l.05.15m-6.55-9.6-.5-.1q-1.15-.2-2.25.4-.9.45-1.35 1.3l-.35.85q-.45 1.4.25 2.7t2 1.7q1.35.35 2.65-.3 1.3-.7 1.8-2.1t-.2-2.7-2.05-1.75m-3.5 8.2q-.7-1.3-2.1-1.75t-2.7.25-1.7 2.15q-.45 1.4.25 2.75.65 1.3 2.1 1.75 1.35.45 2.65-.25 1.3-.75 1.75-2.15.4-1.45-.25-2.75" fill="#da1212" fill-rule="evenodd" transform="translate(-296.45 -241.4)"/><path d="m299.35 268.3-.3-.45-.4-1.05v-.05q1.7 1.1 2.3-.25l.05-.05v.05q.1.7.35 1.4l.8 1.75-2.7-1.1-.1-.25m5.95-9.05q-.4-1.1-.45-2.15 1.8 1.05 2.65.55 0 1.25.5 2.6l-2.7-1" fill="#f05151" fill-rule="evenodd" transform="translate(-296.45 -241.4)"/><path d="m312.3 259.05.35.9-.15.9-.5.45q-.35.05-.6-.25l-.35-.9.1-.95q.2-.4.55-.45t.6.3m-2.45 5.7.7.05.65.7.15.9-.3.65-.7-.1-.6-.7q-.25-.45-.2-.9 0-.45.3-.6" fill-rule="evenodd" transform="translate(-296.45 -241.4)"/><path d="m310.5 251.85.1-.2 6 1.35-.05.05-.55.9q-1.05-.6-2.35-.9l-.1-.05q-1.15-.7-2.75-1.1l-.3-.05" fill="#d0a96f" fill-rule="evenodd" transform="translate(-296.45 -241.4)"/><path d="m324.3 244.1 3.6 3.5-2.8 2.55q-1.6 1.6-2.95 3.5l-2.2 3.2-2.05-1.35-.6-.65-1.3-.9.55-.9.05-.05 1.55-2.2 1.5-1.95.35-.35 2.15-2.35 2.15-2.05m6.55 9.4.05.05.6 4.5-.75 1 1 .55.45 3.25q-4.3.3-8.15 1.95-.65-3.5-3.2-6.85 2.3-1.35 4.75-2.4 2.55-1.15 5.25-2.05m-19 20.85-.1.1-1.6 1.5q-4.65 4.55-8.05 12.6l-.15-5.75 1.45.1.05-.35.55-.05v-1.3l-.75-.3.6-1.7-1.1-1.05.3-.95-.5-.1-.4 1.05 1.25 1.2-.4 1.4-.05.05v.1h-1.05v.3l1.8.25-.25 1.1-.05.35-1.45-.1-.7-.05-.1.9.65.55q-.45 2.8-.35 5.75l.05.55-.5.9h-.05l-.1-.35q-.65-1.8-1-3.65l-.1-.55-.2-1.85-.05-1.1v-1.55l.15-2.35.2-1.45.15-.85q.2-1.2.55-2.45l.45-1.55.9-2.5.1-.45.2-1.05 1.2 1.3 2.3 1.4.2.1q-1.1 1.9-1.9 3.85l.55.3-.05.5h.45l.1-.6-.5-.35 1.75-3.5q2.4 1.1 5.55 1.65m-7.35 2.8-.05.35-1.4-.3 1.4.3.05-.35" fill="#b6853a" fill-rule="evenodd" transform="translate(-296.45 -241.4)"/><path d="m300.95 291.4-.4.1q-6.5-11.6-1.2-23.2l.1.25 2.7 1.1.05.05-.2 1.05-.1.45-.9 2.5-.45 1.55q-.35 1.25-.55 2.45l-.15.85-.2 1.45-.15 2.35v1.55l.05 1.1.2 1.85.1.55q.35 1.85 1 3.65l.1.35m9.65-39.75q2.85-5.1 7.65-9.75l1.55.55.05.15q-2.45 1.75-4.25 4.8l1.9.75q1.55-2.35 3.45-3.75.75-.6 1.65-1l1.7.65v.05l-2.15 2.05-2.15 2.35-.35.35-1.5 1.95-1.55 2.2-6-1.35" fill="#d7b582" fill-rule="evenodd" transform="translate(-296.45 -241.4)"/><path d="m325.1 250.15 5.75 3.35q-2.7.9-5.25 2.05l-3.45-1.9q1.35-1.9 2.95-3.5m-5.25-7.55 1.1 1.8q-1.9 1.4-3.45 3.75l-1.9-.75q1.8-3.05 4.25-4.8" fill="#86622b" fill-rule="evenodd" transform="translate(-296.45 -241.4)"/><path d="M324.05 264.8q-1.3.55-2.55 1.3l-.05-.15q-.5-3.85-1.85-7.25l1.25-.75q2.55 3.35 3.2 6.85m-21.95 23.75-.65 1.4q-.1-2.95.35-5.75l-.65-.55.1-.9.7.05.15 5.75m15.8-33.05 2.05 1.35-.65 1.2-.75-1.5-.65-1.05m-12 17 .4.2-1.75 3.5.5.35-.1.6h-.45l.05-.5-.55-.3q.8-1.95 1.9-3.85m-2.9 8.25.4-1.4-1.25-1.2.4-1.05.5.1-.3.95 1.1 1.05-.6 1.7.75.3v1.3l-.55.05.25-1.1-1.8-.25v-.3h1.05v-.1l.05-.05" fill="#9b7131" fill-rule="evenodd" transform="translate(-296.45 -241.4)"/><path d="m319.95 256.85 2.2-3.2 3.45 1.9q-2.45 1.05-4.75 2.4l-1.25.75-.3-.65.65-1.2" fill="#674b21" fill-rule="evenodd" transform="translate(-296.45 -241.4)"/><path d="m321.75 270.7 2.25 2.2q1.25 5.05-2.6 6l-4.25-4.05 4.15.2.45-4.35" fill="#de4545" fill-rule="evenodd" transform="translate(-296.45 -241.4)"/><path d="m354.4 302.35.75-.3.15.45.9 2.4h-.1l-1.1-.1.05-.25q.15-1.1-.4-2l-.25-.2m-3.6 5.85-.25-.05-.05-1.1.2.2 1.9.2.35-.15.45.85v.1l-2.6-.05" fill="#e1ecfd" fill-rule="evenodd" transform="translate(-296.45 -241.4)"/><path d="m355.3 302.5 3 6.75h-.05l-2.05-4.2V305l.1-.1h-.1l-.9-2.4m2.8 6.75-7.3-1.05 2.6.05h.15l4.55 1m-2-4.35.1.15-2.65 3.15-.15-.05-.45-.85 1.25-.95.8-1.55 1.1.1" fill="#75a9f7" fill-rule="evenodd" transform="translate(-296.45 -241.4)"/><path d="M358.25 309.25h-.15l-4.55-1v-.05l2.65-3.15 2.05 4.2" fill="#94bcf8" fill-rule="evenodd" transform="translate(-296.45 -241.4)"/><path d="M314.95 256.5q1.35.45 2.05 1.75t.2 2.7-1.8 2.1q-1.3.65-2.65.3-1.3-.4-2-1.7t-.25-2.7l.35-.85q.45-.85 1.35-1.3 1.1-.6 2.25-.4l.5.1m-5.1 8.25q-.3.15-.3.6-.05.45.2.9l.6.7.7.1.3-.65-.15-.9-.65-.7-.7-.05m2.45-5.7q-.25-.35-.6-.3t-.55.45l-.1.95.35.9q.25.3.6.25l.5-.45.15-.9-.35-.9m-.85 5.65q.65 1.3.25 2.75-.45 1.4-1.75 2.15-1.3.7-2.65.25-1.45-.45-2.1-1.75-.7-1.35-.25-2.75.4-1.45 1.7-2.15t2.7-.25 2.1 1.75" fill="#fff" fill-rule="evenodd" transform="translate(-296.45 -241.4)"/><path d="M27.85 2.65v.05L25.7 4.75m3.4 36.8-.2-.2m-13.5-8.4-.1.1M8.6 17.7l.05.05.2.1m5.2-7.4.1-.2m9.2-9.2.2.1-.15.05-.05-.15m-3.25 10.6-.55.9 1.3.9.6.65m2.05 1.35 2.2-3.2q1.35-1.9 2.95-3.5m5.75 3.35q-2.7.9-5.25 2.05-2.45 1.05-4.75 2.4m4.65 17.6-.9-2m1.9 4.7-.4-1.15m1.15 4.65-.2-1.65m5.1 1.8-.65-1.75m-4.55 4.1q4.1 1.7-.8-9.25m6.35 14.65 1.2.1m.35-1.65-.25-1.4m4.8 8.85 1.05.1m.25-4.05-.3-1.3m.6 3.85-.05-.95m-1-4.65-.45-1.45m-4.65 4.05q3.6 1.65-1.05-9.55m.3 3.45L36.3 42m14.1 11.6.3.95m1.2 6.05-.1-1.95M51.45 57l-.3-1.05m-.95 6h.85m.7 1.5q3.4.8.15-8.35m-8.15-7.9q3.1 9.8-.05 8.45M24.5 3q-1.9 1.4-3.45 3.75L19.15 6q1.8-3.05 4.25-4.8m-4.9 13.9q1.35.45 2.05 1.75t.2 2.7-1.8 2.1q-1.3.65-2.65.3-1.3-.4-2-1.7t-.25-2.7l.35-.85q.45-.85 1.35-1.3 1.1-.6 2.25-.4l.5.1m4.35 1.55-.75-1.5-.65-1.05m1.4 2.55.65-1.2m-.35 1.85-.3-.65m.3.65 1.25-.75M11.15 15.3l-.1.95q0 1.25.5 2.6l.05.1-1.25-.4h-.05M4.4 23.1v1m.15 1q.1.7.35 1.4l.8 1.75.05.05 1.2 1.3 2.3 1.4.6.3q2.4 1.1 5.55 1.65m1.7-21.35q-1.15-.7-2.75-1.1l-.3-.05m3.05 1.15.1.05q1.3.3 2.35.9m-2.45-.9-1.2-.2m1.3.2h-.1M15 23.3q.65 1.3.25 2.75-.45 1.4-1.75 2.15-1.3.7-2.65.25Q9.4 28 8.75 26.7q-.7-1.35-.25-2.75.4-1.45 1.7-2.15t2.7-.25T15 23.3m10.05 1.4-.05-.15q-.5-3.85-1.85-7.25M2.9 26.9l.1.25 2.7 1.1m.05.05-.2 1.05-.1.45m-.9 2.5-.45 1.55m.3 15.8.1.35m2.1-14.2-.5-.1-.4 1.05 1.25 1.2-.4 1.4m-.05.05v.1H5.45m0 .3 1.8.25-.25 1.1m-.4-5.35 1.4.3.05-.35.05-.5-.55-.3q.8-1.95 1.9-3.85M5.5 41.4l1.45.1.05-.35m-2 7.4q-.1-2.95.35-5.75l-.65-.55.1-.9.7.05m15.2-7.95 4.15.2.45-4.35M27.55 31.5l.6.65m33.65 35.7h-.15m-3.1-4.45.05-.25q.15-1.1-.4-2l-.25-.2m1.8 2.55h.1l-.1.1v.05L57.1 66.8v.05l4.55 1m-2-4.35.1.15m-.1-.15h.1l-.9-2.4m.9 2.5v-.1m-1.2-.1 1.1.1m-3.15 2.4-.35.15-1.9-.2-.2-.2m3.05 1.2h-.15l-2.6-.05m2.6-.05.05.1h.05m-.1-.1-.45-.85 1.25-.95.8-1.55m-1.45 3.4-.15-.05M5.45 39.5v.3" fill="none" stroke="#000" stroke-linecap="round" stroke-linejoin="round" stroke-opacity=".502" stroke-width=".05"/><path d="m324.3 244.1 3.6 3.5-2.8 2.55 5.75 3.35.05.05.6 4.5-.75 1 1 .55.45 3.25q-4.3.3-8.15 1.95-1.3.55-2.55 1.3l.25 4.6 2.25 2.2m.6.65 1.55 1.45 5.35 5.15 1.5 1.45 5.7 5.5 1.5 1.5 6.65 6.4 1.5 1.5 6.05 5.85.75-.3.15.45 3 6.75h-.05m-.15 0-7.3-1.05-.25-.05-.05-1.1-2.3-2.2-1.55-1.5-6.5-6.3-1.55-1.5-4.55-4.4-1.55-1.5-5.55-5.4-1.4-1.3m-.2-.2-3.95-3.85-4.25-4.05-5.25-.5h-.05m-.1.1-1.6 1.5q-4.65 4.55-8.05 12.6l-.65 1.4.05.55-.5.9h-.05l-.4.1q-6.5-11.6-1.2-23.2l-.3-.45-.4-1.05-.05-.05q-.5-1.65-.5-3.3 0-2.55 1.75-3.85 1.8-1.4 4.25-.75l.75.2m.45.2q-.4-1.1-.45-2.15l-.05-.6q0-2.5 1.8-3.85l1.05-.6 2.85-.2m.1-.2q2.85-5.1 7.65-9.75l1.55.55m.05.15 1.1 1.8q.75-.6 1.65-1l1.7.65m31.9 61 2.05 4.2" fill="none" stroke="#000" stroke-linecap="round" stroke-linejoin="round" stroke-opacity=".502" transform="translate(-296.45 -241.4)"/></g></defs></svg>