<svg viewBox="0 0 288.06 312.44" xmlns="http://www.w3.org/2000/svg" xmlns:xlink="http://www.w3.org/1999/xlink"><use transform="translate(0 .008)" width="288.05" height="312.45" xlink:href="#a"/><defs><g id="a"><path d="m363.1 98.25 4.55 6.2 5.1-5.65-1.35 8.65 4.7 1.45-217.8 242.45q-13.1 3.1-19-3.55-1.55-1.8-2.6-4.2L363.1 98.25m-9.95 35.8q3.7-2.35-.4-4.15-3.45 1-1.3 3.85.75.9 1.7.3M214.4 265.1l-75.1 82.7 75.1-82.7m91.3-89.9-37.5 40.75-25.65 27.85 25.65-27.85-6.2-5.65-18.8 21.45L262 210.3l6.2 5.65 37.5-40.75-.4-.45.4.45 9.95-10.8-9.95 10.8 4.2 4.75-4.2-4.75m-44.15 34.65.45.45-.45-.45" fill="#78591f" fill-rule="evenodd" transform="translate(-133.85 -40.4)"/><path d="m356.55 89.35 6.55 8.9L136.7 343.6q-1.4-3.3-1.9-7.7L356.55 89.35" fill="#a2782b" fill-rule="evenodd" transform="translate(-133.85 -40.4)"/><path d="M353.15 134.05q-.95.6-1.7-.3-2.15-2.85 1.3-3.85 4.1 1.8.4 4.15" fill="#fbf24d" fill-rule="evenodd" transform="translate(-133.85 -40.4)"/><path d="M376.1 108.9 158.3 351.35q-13.1 3.1-19-3.55-1.55-1.8-2.6-4.2-1.4-3.3-1.9-7.7l-.45.5M305.3 174.75l.4.45 9.95-10.8m-9.95 10.8 4.2 4.75m-67.35 63.85 25.65-27.85-6.2-5.65-18.8 21.45M262 210.3l-.45-.45m6.65 6.1 37.5-40.75M139.3 347.8l75.1-82.7m-79.6 70.8L356.55 89.35" fill="none" stroke="#000" stroke-linecap="round" stroke-linejoin="round" stroke-opacity=".502" transform="translate(-133.85 -40.4)"/><path d="m343.7 135.15 5.65-6.65q9.5 30.6 26.75 57.9l-.45.25q-12.5-13.05-15.25-3.05l-.45.15-16.25-48.6" fill="#fbf24d" fill-rule="evenodd" transform="translate(-133.85 -40.4)"/><path d="m343.7 135.15 16.25 48.6.45-.15q2.75-10 15.25 3.05l.45-.25q-17.25-27.3-26.75-57.9z" fill="none" stroke="#000" stroke-linecap="round" stroke-linejoin="round" stroke-opacity=".502" transform="translate(-133.85 -40.4)"/><path d="m335.05 147.5 7.8-3.9q-3.2 31.9 2 63.85l-.55.05q-6.4-16.95-12.85-8.8l-.45-.05 4.05-51.15" fill="#fbf24d" fill-rule="evenodd" transform="translate(-133.85 -40.4)"/><path d="M335.05 147.5 331 198.65l.45.05q6.45-8.15 12.85 8.8l.55-.05q-5.2-31.95-2-63.85z" fill="none" stroke="#000" stroke-linecap="round" stroke-linejoin="round" stroke-opacity=".502" transform="translate(-133.85 -40.4)"/><path d="m332.85 103 11.6-2.65q-11.9 30.7 5.95 48.6L336.9 160q-20.8-24.05-4.05-57" fill="#d8cd05" fill-rule="evenodd" transform="translate(-133.85 -40.4)"/><path d="M332.85 103q-16.75 32.95 4.05 57l13.5-11.05q-17.85-17.9-5.95-48.6z" fill="none" stroke="#000" stroke-linecap="round" stroke-linejoin="round" transform="translate(-133.85 -40.4)"/><path d="m314.05 129.95 9.05-2.1q-9.3 24 4.65 37.95l-10.55 8.65q-16.25-18.8-3.15-44.5" fill="#d8cd05" fill-rule="evenodd" transform="translate(-133.85 -40.4)"/><path d="M314.05 129.95q-13.1 25.7 3.15 44.5l10.55-8.65q-13.95-13.95-4.65-37.95z" fill="none" stroke="#000" stroke-linecap="round" stroke-linejoin="round" transform="translate(-133.85 -40.4)"/><path d="M363.45 141.6q-23.2 9.2-47.8-14.1l3.5-8.35q23 14.6 48.2 2.85l-3.9 19.6" fill="#fbf24d" fill-rule="evenodd" transform="translate(-133.85 -40.4)"/><path d="M363.45 141.6q-23.2 9.2-47.8-14.1l3.5-8.35q23 14.6 48.2 2.85z" fill="none" stroke="#000" stroke-linecap="round" stroke-linejoin="round" transform="translate(-133.85 -40.4)"/><path d="m400.1 72.4 3.75-3.9q1.8 1.4 2.85 2.7 1.25 1.5 2.2.35.9-1.15.05-3.2-.7-1.6-2.1-2.95 12.7-8.75 9.6-18.8 4.35 6.45 4.7 8.15 1.1 5.55-2.5 10.6l-21.4 23.75-8.6 9.6-8.25 9.2-1.15 9.95-11.9-3.7 1.45-9 24.25-25.35q1.45.85 3 1.5 5.2 2 7.9-.4 2.7-2.45-1.1-5.95l-2.75-2.55" fill="#c3c3c3" fill-rule="evenodd" transform="translate(-133.85 -40.4)"/><path d="m403.85 68.5-.65-.5-4.05-2.8q-1.75-1.2-.8-2.3.9-1.15 3.1-.65 2.2.45 4.4 2.25l1 .9q1.4 1.35 2.1 2.95.85 2.05-.05 3.2-.95 1.15-2.2-.35-1.05-1.3-2.85-2.7m-6.6 20.6q15.05 18.5-8.6 9.6l8.6-9.6M362.9 76.85q-8.25-19.7 10.5-11.65l-10.5 11.65m34.2-15.95q-.95 1.15-2.2-.35-1.25-1.55-3.5-3.2l-4.05-2.8q-1.75-1.15-.8-2.3.9-1.15 3.1-.65 2.2.45 4.4 2.25 2.15 1.75 3.1 3.85.85 2.05-.05 3.2" fill="#41454b" fill-rule="evenodd" transform="translate(-133.85 -40.4)"/><path d="m382.65 54.85 10-11.1 2.5-.75q4.8-2.85 10.75-1.85 5.5.9 9.8 4.7l.8.7-.05.05q3.1 10.05-9.6 18.8l-1-.9q-2.2-1.8-4.4-2.25-2.2-.5-3.1.65-.95 1.1.8 2.3l4.05 2.8.65.5-3.75 3.9-6-5.9q-4.9-5-7.3-9.15-2-3.35-4.15-2.5m-13.85 50.3.25-1.6-6.25 6.95-15.65-21.25L353.7 87l9.2-10.15 10.5-11.65 6.75-7.6q-.8 2.25.1 5.8 1.35 5.35 5.95 10.6 3.25 3.7 6.85 5.8l-24.25 25.35m28.3-44.25q.9-1.15.05-3.2-.95-2.1-3.1-3.85-2.2-1.8-4.4-2.25-2.2-.5-3.1.65-.95 1.15.8 2.3l4.05 2.8q2.25 1.65 3.5 3.2 1.25 1.5 2.2.35m-27.45 41.95-.6.7.6-.7" fill="#fff" fill-rule="evenodd" transform="translate(-133.85 -40.4)"/><path d="M382.65 54.85q2.15-.85 4.15 2.5 2.4 4.15 7.3 9.15l6 5.9 2.75 2.55q3.8 3.5 1.1 5.95-2.7 2.4-7.9.4-1.55-.65-3-1.5-3.6-2.1-6.85-5.8-4.6-5.25-5.95-10.6-.9-3.55-.1-5.8l2.5-2.75" fill="#77200b" fill-rule="evenodd" transform="translate(-133.85 -40.4)"/><path d="m416.5 46.55-.8-.7q-4.3-3.8-9.8-4.7-5.95-1-10.75 1.85l-2.5.75-10 11.1q2.15-.85 4.15 2.5 2.4 4.15 7.3 9.15l6 5.9m16.4-25.85v.05q1.75 1.5-.05 0 4.35 6.45 4.7 8.15 1.1 5.55-2.5 10.6l-21.4 23.75q15.05 18.5-8.6 9.6l-8.25 9.2-1.15 9.95-11.9-3.7 1.45-9 .25-1.6-6.25 6.95-15.65-21.25L353.7 87l9.2-10.15q-8.25-19.7 10.5-11.65l6.75-7.6q.45-1.2 1.4-2.05l1.1-.7-2.5 2.75q-.8 2.25.1 5.8 1.35 5.35 5.95 10.6 3.25 3.7 6.85 5.8 1.45.85 3 1.5 5.2 2 7.9-.4 2.7-2.45-1.1-5.95l-2.75-2.55m-11.45 26.3 8.6-9.6M373.4 65.2l-10.5 11.65m6.15 26.7.6-.7" fill="none" stroke="#000" stroke-linecap="round" stroke-linejoin="round" stroke-opacity=".502" transform="translate(-133.85 -40.4)"/></g></defs></svg>