<svg viewBox="0 0 100.3 77.9" xmlns="http://www.w3.org/2000/svg" xmlns:xlink="http://www.w3.org/1999/xlink"><use width="100.3" height="77.9" xlink:href="#a"/><defs><g id="a"><path d="m319.25 170.1-.4.5.4-.5m-.4.5-3.95 5.65-.3-1.1-14.8 6.9-1.9-2.05v-.1l16.9-6.85 2.95-3.25.4.3.7.5M296.7 176l.15 9.15-6.75 8.95-.6 2.55-3.3 1.25-9.35 12.55-3.15 2.5h2.3l-11.65 7.55-.15-.75-.5-1-3.1 1.3-.9-1.35 10.55-5.05-1.1-1.65-6.5 2.8q-1.55-2.05-4.05-1.55l-.45.15-.05-1.05 6.7-1.95 8.8-3.95 15.7-18.6.95.15 2.95-3.55q-.15-4.9-2.55-10.9l-1.45-3.95.8-.4 1.4-.75.25 1.05.7 2.45.7-.5 1 3.05.8 2.45 1.75-.85.1-.1m-3.8-1.8-.55-2.25.55 2.25m2.55 4.65-.6-1.9.6 1.9m-5 11.2-2.35 6.15-5.4 1.65 4.7-5.35-.05 2.05.05-2.05-4.7 5.35 5.4-1.65 2.35-6.15m-23.25 27.3-3.4 1.4h-.1.1l3.4-1.4m-36.5 21.2-.9.5q-.95 0-1.6-.55l-1.2.6q-1.2-.35-1.9-1.7l2.4-1.15q1 1.25 2.8 2.15l.4.15" fill="#8e7c44" fill-rule="evenodd" transform="translate(-224.8 -161.5)"/><path d="m319.25 170.1-.4.5-.7-.5 4.55-6.95h1.45l-4.1 5.85-.8 1.1m-29.25-.9-2.95-6.4 1-1 2.45 2.7 2.45 4.65-1.3.35-.25-1.05-1.4.75m4.55 3 2.05 3.9-1.75.85-.8-2.45.5-2.3m-66.65 59.35-1.5-.7q.2-1.6.8-2.75.6-1.35 1.65-2.2l.95-.7.8-.35q4.5 3.25 5.15 8.95l.05.1.05 1.5-7.95-3.85m2.8 7-.4-.15q-1.8-.9-2.8-2.15-1.3-1.7-1.2-4.15h.05l9.45 4.55.05.05q-.1.95-1.2 2.1l-.1.05q-1.3.6-3.85-.3" fill="#b0a94f" fill-rule="evenodd" transform="translate(-224.8 -161.5)"/><path d="m318.85 170.6.4-.5.8-1.1 1.1.65-4.55 7.05-16.5 7.6-1.1 2.45-19.85 26.4-2.2 1.15.35 1.05-14.25 7.85q1.3-1.35 1.3-2.7l11.65-7.55h-2.3l3.15-2.5 9.35-12.55 3.3-1.25.6-2.55 6.75-8.95-.15-9.15.5-.3.7 4.2v.1l1.9 2.05 14.8-6.9.3 1.1 3.95-5.65m-48.7 47.2 6.8-3.5-6.8 3.5m-42.25 13.75 7.95 3.85 14.7-7.55-14.75 8.75v.05l-9.45-4.55 1.55-.55" fill="#6a5c33" fill-rule="evenodd" transform="translate(-224.8 -161.5)"/><path d="m324.15 163.15.65.15-3.65 6.35-1.1-.65 4.1-5.85m-31.2 6 1.6 3.05-.5 2.3-1-3.05-.7.5-.7-2.45 1.3-.35" fill="#9b9544" fill-rule="evenodd" transform="translate(-224.8 -161.5)"/><path d="m258.15 213.4.45-.15q2.5-.5 4.05 1.55l6.5-2.8 1.1 1.65-10.55 5.05.9 1.35 3.1-1.3.5 1q-14.25 7-28.45 14.05-.65-5.7-5.15-8.95v-.05l27.55-11.4m2.45 6.65-3.25 1.35 3.25-1.35" fill="#968f43" fill-rule="evenodd" transform="translate(-224.8 -161.5)"/><path d="M264.35 220.5q0 1.35-1.3 2.7l-28.35 15.7-.05-.1q1.1-1.15 1.2-2.1l-.05-.1 14.75-8.75-14.7 7.55-.05-1.5-.05-.1q14.2-7.05 28.45-14.05l.15.75" fill="#767134" fill-rule="evenodd" transform="translate(-224.8 -161.5)"/><path d="m94.45 8.6-.4.5-.7-.5M39.55 59q0 1.35-1.3 2.7m13.9-8.9-6.8 3.5m49.9-48.8 1.1.65m-1.1-.65-.8 1.1m-22.65 6 .1-.1M66.85 8l.7 2.45.7-.5 1 3.05.8 2.45 1.75-.85m-4.25-4.15.55 2.25m-2.9-5 1.4-.75.25 1.05m3.2 7.45.6 1.9m-8.1 15.7L62.6 31l-4.7 5.35 5.4-1.65 2.35-6.15M33.35 51.9l.45-.15q2.5-.5 4.05 1.55l6.5-2.8 1.1 1.65L34.9 57.2l.9 1.35 3.1-1.3h.1l3.4-1.4m-3.5 1.4.5 1 .15.75M3.1 70.05l7.95 3.85-.05-1.5m-.05-.1q-.65-5.7-5.15-8.95l-.05-.05h.05v.05m.1 13.7-.4-.15q-1.8-.9-2.8-2.15M1.5 70.6v-.1l.05.1H1.5m8.4 6.8-.25.1.2-.2q1.1-1.15 1.2-2.1m-.05-.1v.05l.05.05m-.05-.1 14.75-8.75-14.7 7.55M11 75.15 1.55 70.6m31-10.7 3.25-1.35" fill="none" stroke="#000" stroke-linecap="round" stroke-linejoin="round" stroke-opacity=".6" stroke-width=".05"/><path d="m73.1 18.4-.7-4.2-.5.3M38.25 61.7l14.25-7.85-.35-1.05m41.2-44.2-.4-.3L90 11.55 73.1 18.4m20.25-9.8 4.55-6.95h1.45l.65.15-3.65 6.35-4.55 7.05-16.5 7.6-1.1 2.45-19.85 26.4-2.2 1.15M65.2 7.7l-2.95-6.4 1-1L65.7 3l2.45 4.65 1.6 3.05 2.05 3.9M33.35 51.9l-.05-1.05L40 48.9l8.8-3.95 15.7-18.6.95.15 2.95-3.55q-.15-4.9-2.55-10.9L64.4 8.1l.8-.4M5.8 63.35l-.8.35-.95.7Q3 65.25 2.4 66.6q-.6 1.15-.8 2.75l1.5.7m2.7-6.75 27.55-11.4M2.7 74.75.3 75.9q.7 1.35 1.9 1.7l1.2-.6q.65.55 1.6.55l.9-.5m-3.2-2.3q-1.3-1.7-1.2-4.15m.05 0 1.55-.55m6.8 7.35 28.35-15.7M9.85 77.3l-.1.05q-1.3.6-3.85-.3" fill="none" stroke="#000" stroke-linecap="round" stroke-linejoin="round" stroke-opacity=".6" stroke-width=".6"/></g></defs></svg>