<svg viewBox="0 0 33.343 25.533" xmlns="http://www.w3.org/2000/svg" xmlns:xlink="http://www.w3.org/1999/xlink"><use transform="matrix(-.3853 -.9281 -.9225 .383 34.12 23.23)" width="32.9" height="25.5" xlink:href="#a"/><defs><use width="32.9" height="25.5" xlink:href="#b" id="a"/><g id="b"><path d="m-2.2-3.1.5 1.2L.25-.85v.4l.55.8 1.95 1.4h1.6l.25.15 1.7 1.15.05.05-.4.2.7.8 2.7 1 .05.05.95.8-1.3.75L10 8l-.25.85-.45-.75L.15 1.55-.4.5l-4.35-3.25-4.2-4.55-3.7-2.4-.45-1.2.55-.2.35-.1 2.75.8 1.65.95.05.05q2.05 2 5.05 5.7l.5.6m-5.15.75-1.2-1.6-1.35-.55-.5.05-.6.05-.7-1.3 1.85.25.6.3 1.9 2.8" fill="#f0e3a5" fill-rule="evenodd" transform="translate(14.2 11.3)"/><path d="M4.35 1.75h-1.6L.8.35l-.55-.8v-.4L-1.7-1.9l-.5-1.2.6.75.2.15L.95-.7l.5.85 1.9 1.4 1 .2m-4.2-.2L9.3 8.1l.45.75 1.85 2.95-1.45.05q.85 2.3 3.9 1.5l-1.95.85-1.3-.7q-1.65-1.7-.95-2.9L9 8.55-7.35-2.35l-1.9-2.8-.1-.1 9.5 6.8m10.2 4.4-.95-.8-.05-.05-2.7-1-.7-.8.4-.2.5.75.8-.05.1.1.45.25h.05l1.55 1 1.25.2 2.2-.6-.1.45-2.45.4.05.1.25.75-.65-.5m5.05 4.85h.15l-.1.1.05.5v.4q-1.05 1.45-2.75.85V10.1q1.45 1 2.65.7M-8.55-3.95q-.6.85-2.25 1.05-3.6-1.75-3.05-1.85l-.35-1.9 1.55.2-1.05-1.8.05-.05-.45-1.05.1-.3 2.5 1.95-.2 2 .7 1.3.6-.05.5-.05 1.35.55" fill="#a6996a" fill-rule="evenodd" transform="translate(14.2 11.3)"/><path d="m-13.1-10.9.45 1.2 3.7 2.4 4.2 4.55L-.4.5l.55 1.05-9.5-6.8.1.1-.6-.3-1.85-.25.2-2-2.5-1.95.25-.95.65-.3M9.75 8.85 10 8l-.95-1.3 1.3-.75.65.5-.25-.75-.05-.1 2.45-.4q-1.35 1.3.15 2.55 1.5 1.2 2.8.8t-.7 2.25q-1.2.3-2.65-.7v2.55q1.7.6 2.75-.85v.25l-.85 1.55q-1.9.75-2.55.6l1.95-.85q-3.05.8-3.9-1.5l1.45-.05-1.85-2.95" fill="#c9bc7e" fill-rule="evenodd" transform="translate(14.2 11.3)"/><path d="m-14.2-6.65.5-1.6 1.05 1.8-1.55-.2" fill="#fff2bb" fill-rule="evenodd" transform="translate(14.2 11.3)"/><path d="m-7.75-9.4-.05-.05-1.65-.95-2.75-.8q1.5-.35 3.05.3 1.85.8 1.4 1.5m20.9 14.6.1-.45L15 4.6q2.3.5 2.65 2.3.4 2-2.1 3.9h-.15q2-2.65.7-2.25t-2.8-.8q-1.5-1.25-.15-2.55" fill="#ffffdf" fill-rule="evenodd" transform="translate(14.2 11.3)"/><path d="M11.5 7.6q-3-3.7-5.05-5.7l-.05-.05M1.65.2 1.1.4m19.4 13.95-1.7-1.15m-3.65-2.6L12.8 9.1m-.2-.15L12 8.2m17.6 13.9h.15q2.5-1.9 2.1-3.9-.35-1.8-2.65-2.3l-1.75.15-2.2.6-1.25-.2-1.55-1h-.05m-.45-.25-.1-.1m4.45 10.4q.65.15 2.55-.6l.85-1.55v-.25m-2.75-1.7q1.45 1 2.65.7m.15 0-.1.1.05.5m0 .2v.2m-3.4 2.4-1.3-.7q-1.65-1.7-.95-2.9l-.85-2.05L6.85 8.95l-1.2-1.6q-.6.85-2.25 1.05Q-.2 6.65.35 6.55L0 4.65l.5-1.6L.55 3 .1 1.95l.1-.3L.45.7 1.1.4m5.35 1.5q.45-.7-1.4-1.5Q3.5-.25 2 .1m3.65 7.25L4.3 6.8l-.5.05" fill="none" stroke="#000" stroke-linecap="round" stroke-linejoin="round" stroke-opacity=".302" stroke-width=".05"/><path d="m13.7 9.25-1.15-.9q-1.4-1.3-1.4-2.55l.05-.2v-.05l.2-.55q.3-.5 1.05-.7 2.4-.7 4.45 1.1l.8.85q.7 1.05.35 2.2-.4 1.1-1.2 1.45l-.8.1q-1.05.1-2.35-.75 1.3.85 2.35.75l.8-.1q.8-.25 1.3-.65l-.7 1.05-4.05.1-.2-.1-.05-.05.55-1m3.8-1.5q0-.75-1.25-1.85-1.4-1.25-3.05-.8-.85.25-.9 1.05l.25.85.75.9q1.3 1.2 2.3 1.15h.1q1.05-.1 1.55-.6l.25-.7" fill="#f0e3a5" fill-rule="evenodd" transform="translate(14.2 11.3)"/><path d="m12.55 7-.25-.85q.05-.8.9-1.05 1.65-.45 3.05.8Q17.5 7 17.5 7.75q-2.45-2.75-3.25-1-1.15-.3-1.7.25" fill="#a6996a" fill-rule="evenodd" transform="translate(14.2 11.3)"/><path d="m17.5 7.75-.25.7q-.5.5-1.55.6h-.1q.25-.85-1.35-2.3.8-1.75 3.25 1" fill="#80754d" fill-rule="evenodd" transform="translate(14.2 11.3)"/><path d="M17.7 6.25q1.65 1.8.6 2.85l-.15.15q-.5.4-1.3.65.8-.35 1.2-1.45.35-1.15-.35-2.2" fill="#ffffdf" fill-rule="evenodd" transform="translate(14.2 11.3)"/><path d="M11.2 5.55v.05l-.05.2q0 1.25 1.4 2.55l1.15.9-.55 1q-1.8-1.1-2.5-3.2l.55-1.5" fill="#c9bc7e" fill-rule="evenodd" transform="translate(14.2 11.3)"/><path d="M15.6 9.05q-1 .05-2.3-1.15l-.75-.9q.55-.55 1.7-.25 1.6 1.45 1.35 2.3" fill="#655c3d" fill-rule="evenodd" transform="translate(14.2 11.3)"/><path d="m27.9 20.55-1.15-.9q-1.4-1.3-1.4-2.55l.05-.2v-.05m.2-.55q.3-.5 1.05-.7 2.4-.7 4.45 1.1l.8.85q1.65 1.8.6 2.85m-1.45.8-.8.1q-1.05.1-2.35-.75m4.45 0q-.5.4-1.3.65" fill="none" stroke="#000" stroke-linecap="round" stroke-linejoin="round" stroke-opacity=".302" stroke-width=".05"/><path d="m25.4 16.85-.55 1.5q.7 2.1 2.5 3.2m-1.95-4.7.2-.55m6.9 4.1-.15.15-.7 1.05-4.05.1-.2-.1" fill="none" stroke="#000" stroke-linecap="round" stroke-linejoin="round" stroke-opacity=".302" stroke-width=".05"/><path d="m-6.6-5.9.1-.6.55-.25q.35.05.65.3l.4.65q.05.3-.15.55t-.5.25l-.7-.3-.35-.6" fill="#504930" fill-rule="evenodd" transform="translate(14.2 11.3)"/><path d="m-5.3-6.45.4.65q.05.3-.15.55t-.5.25l.05-.1.15-.55-.4-.65-.65-.3.45-.15q.35.05.65.3" fill="#756b46" fill-rule="evenodd" transform="translate(14.2 11.3)"/><path d="m-9.3-8.55.1-.6.55-.25q.35.05.65.3l.4.65-.15.55q-.2.25-.5.25l-.7-.3-.35-.6" fill="#504930" fill-rule="evenodd" transform="translate(14.2 11.3)"/><path d="m-8-9.1.4.65-.15.55q-.2.25-.5.25l.05-.1.15-.55-.4-.65-.65-.3.45-.15q.35.05.65.3" fill="#756b46" fill-rule="evenodd" transform="translate(14.2 11.3)"/></g></defs></svg>