<svg viewBox="0 0 79.699 60.418" xmlns="http://www.w3.org/2000/svg" xmlns:xlink="http://www.w3.org/1999/xlink"><use transform="matrix(.335 0 0 .335 -2.11 -2.119)" width="248.5" height="211" xlink:href="#a"/><defs><use width="248.5" height="211" xlink:href="#b" id="a"/><use width="11.6" height="16.9" xlink:href="#n" id="c"/><use width="9.1" height="12.75" xlink:href="#o" id="d"/><use width="40.25" height="53.25" xlink:href="#p" id="e"/><use width="7.85" height="14.35" xlink:href="#q" id="f"/><use width="5.85" height="15.65" xlink:href="#r" id="g"/><use width="9.7" height="4.15" xlink:href="#s" id="h"/><use width="6.8" height="7.25" xlink:href="#t" id="i"/><use width="5.25" height="6.05" xlink:href="#u" id="j"/><use width="5.95" height="4.9" xlink:href="#v" id="k"/><use width="6.85" height="6.05" xlink:href="#w" id="l"/><use width="5.45" height="5.35" xlink:href="#x" id="m"/><g id="b" transform="translate(124.25 105.5)"><use transform="matrix(-1.2948 1.2835 -11.655 -9.6984 87.718 58.427)" width="11.6" height="16.9" xlink:href="#c"/><use transform="matrix(3.6584 -1.7312 1.865 2.6846 17.6 8.11)" width="9.1" height="12.75" xlink:href="#d"/><use transform="matrix(-.44 1.1407 .7937 .8069 82.006 16.601)" width="40.25" height="53.25" xlink:href="#e"/><use transform="matrix(3.6584 -1.7312 2.0744 3.2316 -17.75 29.279)" width="7.85" height="14.35" xlink:href="#f"/><use transform="scale(4.0473) rotate(-25.324 4.68 -3.033)" width="5.85" height="15.65" xlink:href="#g"/><use transform="rotate(-25.324 23.95 29.105) scale(4.2479)" width="9.7" height="4.15" xlink:href="#h"/><use transform="rotate(-25.324 9.457 37.422) scale(4.2479)" width="9.7" height="4.15" xlink:href="#h"/><use transform="scale(4.0473) rotate(-25.324 -14.407 2.127)" width="6.8" height="7.25" xlink:href="#i"/><use transform="rotate(-40.325 -31.355 -20.502) scale(4.0473)" width="5.25" height="6.05" xlink:href="#j"/><use transform="matrix(4.0338 .3299 -.4858 5.9399 -15.461 -23.415)" width="5.95" height="4.9" xlink:href="#k"/><use transform="scale(4.0473) rotate(-25.324 1.393 17.776)" width="6.85" height="6.05" xlink:href="#l"/><use transform="scale(4.0473) rotate(-25.324 2.22 4.024)" width="5.45" height="5.35" xlink:href="#m"/></g><g id="n"><path d="m11.5 13.85.55-2.85.8-.2q-.45 2.85-1.55 5.75L10.55 18l.25-1.45.7-2.7" fill="#af661d" fill-rule="evenodd" transform="translate(-1.35 -2.8)"/><path d="M2.95 3.05h.45q.8 1.05.55 2.75L3.5 8.4l-.25 1.25q-.1 1.2.35 2.6l.7 2.1.6 1.6q-.55 1.05-.65 2.2L3.6 17.1q-.95-1.5-1.5-3.15-.5-1.4-.7-2.85-.15-.8.55-2.2L3 6.3l.3-2.05-.35-1.2" fill="#633314" fill-rule="evenodd" transform="translate(-1.35 -2.8)"/><path d="M11.3 13.85h.2l-.7 2.7.5-2.7m-1.9-1.9-.45 4.5-.45 2.2q.4-3.6.4-6.45l-.1-2.65-.05-.45.65-.3v3.15m-5.15 6.2q.1-1.15.65-2.2l1.55 3.75L5 19.25l-.75-1.1" fill="#734415" fill-rule="evenodd" transform="translate(-1.35 -2.8)"/><path d="m11.65 11.1-.35 2.75-.5 2.7-.25 1.45-.2.3q-.85 1.05-2 1.3l.15-.95-.15.95-.1.05H8l-.15.05h-1.4L4.9 15.95l.4-.65 1.65-1.75q.95-.8 1.95-1.35 0 2.85-.4 6.45l.45-2.2.45-4.5 1.7-.7.55-.15" fill="#c57321" fill-rule="evenodd" transform="translate(-1.35 -2.8)"/><path d="M10.85 2.8h.35q.7.6 1.1 1.6l.15.45.3 1.15.2 1.7v2.15l-.1.9v.05l-.8.2-.55 2.85h-.2l.35-2.75-.55.15-1.7.7V8.8l-.65.3.05.45.1 2.65q-1 .55-1.95 1.35L5.3 15.3l-.4.65-.6-1.6-.7-2.1q-.45-1.4-.35-2.6L3.5 8.4l.45-2.6q.25-1.7-.55-2.75l4.3-.15 3.15-.1q.8 1.35 1 3.65l.05 1.5-.1 2-.15 1.15.15-1.15.1-2-.05-1.5q-.2-2.3-1-3.65m-2.1 6.3-.3-2.25L7.7 2.9l.75 3.95.3 2.25" fill="#98581b" fill-rule="evenodd" transform="translate(-1.35 -2.8)"/><path d="M11.5 8v-.05l.1-.9V4.9l-.2-1.7-.3-1.15-.15-.45q-.4-1-1.1-1.6m-2.7 15.85L7 16.8q1.15-.25 2-1.3l.2-.3M1.6.25l.35 1.2-.3 2.05L.6 6.1Q-.1 7.5.05 8.3q.2 1.45.7 2.85.55 1.65 1.5 3.15m5.3-4.9-.1-2.65-.05-.45M3.65 16.45l1.45.45m1.9-.1-.1.05h-.25l-.15.05H5.1M11.5 8q-.45 2.85-1.55 5.75L9.2 15.2" fill="none" stroke="#000" stroke-linecap="round" stroke-linejoin="round" stroke-opacity=".4" stroke-width=".05"/><path d="m3.55 13.15-.6-1.6-.7-2.1q-.45-1.4-.35-2.6l.25-1.25L2.6 3q.25-1.7-.55-2.75M5.1 16.9l-1.55-3.75M9.5 0q.8 1.35 1 3.65l.05 1.5-.1 2-.15 1.15-.35 2.75M9.2 15.2l.25-1.45.5-2.7M6.35.1l.75 3.95.3 2.25m.15 3.1q0 2.85-.4 6.45" fill="none" stroke="#000" stroke-linecap="round" stroke-linejoin="round" stroke-opacity=".2" stroke-width=".05"/></g><g id="o"><path d="m.3.1 1.15-.3q1.95.85 3.3 1.95h-.2q-.5 0-.5.25l3.3 3.3-2.05-.9-1.5-.45L2 1.9.3.1 2 1.9l1.8 2.05 2.45 3.1.2 1 .15.85.1.9-.05-.05-2.8-3.8L3.6 6q.25 1.8.8 2.7l.15.3-2.5-3.2-.7-1.2Q.15 2.45-.6.35L.3.1m7.1 11.4-.2-.2.2.2M2 1.9l.05 3.9L2 1.9" fill="#353a01" fill-rule="evenodd" transform="translate(.6 .7)"/><path d="m3.8 3.95 1.5.45q.1.55 1.25 1.8L7.7 7.45l-.45-.35v.6l.6 1.95-.4-.5-.1-.25-.4-.75-.7-1.1.7 1.1.4.75.1.25.4.5.65.9-.3 1.5-.35-.2-.1-1.9-.2-.65-1.1-1.25-.2-1-2.45-3.1M6.7 9.8l-.1-.9.55 2.05H7.1q0-.5-.4-1.15m.75-.65.1.15-.1-.15" fill="#444b01" fill-rule="evenodd" transform="translate(.6 .7)"/><path d="m5.3 4.4 2.05.9.15.1.6 1.6.3 1.3v.15l.1.8v1.3l-.65-.9-.6-1.95v-.6l.45.35L6.55 6.2Q5.4 4.95 5.3 4.4m2.55 7.45-.45-.35-.2-.2-.4-.25-.1-1.25q.4.65.4 1.15h.05L6.6 8.9l-.15-.85 1.1 1.25.2.65.1 1.9" fill="#725816" fill-rule="evenodd" transform="translate(.6 .7)"/><path d="M7.35 5.3 4.05 2q0-.25.5-.25h.2L5.8 2.8Q6.85 4 7.5 5.4l-.15-.1m-.55 5.75-1-.85L4.55 9l-.15-.3q-.55-.9-.8-2.7l.25-.05 2.8 3.8.05.05.1 1.25" fill="#5c4512" fill-rule="evenodd" transform="translate(.6 .7)"/><path d="M5.35 2.45Q4 1.35 2.05.5L.9.8m4.45 1.65L6.4 3.5q1.05 1.2 1.7 2.6l.6 1.6L9 9m0 .15.1.8v1.3l-.3 1.5M0 1.05.9.8" fill="none" stroke="#000" stroke-linecap="round" stroke-linejoin="round" stroke-opacity=".4" stroke-width=".05"/><path d="m.9.8 1.7 1.8 1.8 2.05 1.5.45 2.05.9.15.1m.7 6.65-.35-.2L8 12.2l-.2-.2-.4-.25-1-.85-1.25-1.2-2.5-3.2-.7-1.2Q.75 3.15 0 1.05M7.2 9.6l-.15-.85-.2-1-2.45-3.1m2.45 3.1.7 1.1.4.75.1.25.4.5m-1.15.15-.1-.9m.1.9.1 1.25M8.15 10l-.1-.15m.4 2.7-.1-1.9-.2-.65m.95 1.25-.65-.9M2.65 6.5 2.6 2.6M.1 0l.1.1H.15L.1 0" fill="none" stroke="#000" stroke-linecap="round" stroke-linejoin="round" stroke-opacity=".2" stroke-width=".05"/></g><g id="p"><path d="M18.65-24.4v-.05.05" fill="#c57321" fill-rule="evenodd" transform="translate(20.15 26.6)"/><path d="m13.6-5.45.25.35Q8.35 9.8-1.75 20.45l-.6-.9Q8 8.9 13.6-5.45m-4.1-4.3.2-.45-.15.45H9.5m-18.35 22.7Q1.75 7.5 9.05-8.5 4.5 7.5-5.6 15.5l-6.4 5.05 3.15-7.6" fill="#633314" fill-rule="evenodd" transform="translate(20.15 26.6)"/><path d="m9.7-10.2.4.45h-.55l.15-.45m-29.15 21.5q5.8-1.3 10.6 1.65l-3.15 7.6 6.4-5.05q1.65 1.7 3.25 4.05l.6.9 2 3.4-1.55 1.25q-3.65 2.9-11.2.3-9.9-5.1-6.95-14.1" fill="#9f5c1a" fill-rule="evenodd" transform="translate(20.15 26.6)"/><path d="m13.85-5.1 2 2.5-.1.2Q10.7 11.65.25 23.85l-2-3.4Q8.35 9.8 13.85-5.1M9.5-9.75h.05l-.5 1.25q-7.3 16-17.9 21.45-4.8-2.95-10.6-1.65Q-3.15 2 3.15-9.8q4.1-1.45 6.35.05" fill="#e49c3a" fill-rule="evenodd" transform="translate(20.15 26.6)"/><path d="m10.1-9.75 3.5 4.3Q8 8.9-2.35 19.55q-1.6-2.35-3.25-4.05 10.1-8 14.65-24l.5-1.25h.55" fill="#ca801c" fill-rule="evenodd" transform="translate(20.15 26.6)"/><path d="M18.65-24.45v.05l1.45 2q-.9 10.3-4.25 19.8l-2-2.5-.25-.35-3.5-4.3-.4-.45-.2.45q-2.25-1.5-6.35-.05 3.6-6.8 3.9-14.4 3.3-2.1 5.95-2.35 3.3-.35 5.65 2.1M9.7-10.2q2.8-7.85 3.3-16.35-.5 8.5-3.3 16.35" fill="#98581b" fill-rule="evenodd" transform="translate(20.15 26.6)"/><path d="M36 24q3.35-9.5 4.25-19.8m-1.45-2v-.05M23.3 16.8Q17 28.6.7 37.9q5.8-1.3 10.6 1.65Q21.9 34.1 29.2 18.1m-2-15.7q-.3 7.6-3.9 14.4m-2.9 33.65q10.45-12.2 15.5-26.25M.7 37.9q-2.95 9 6.95 14.1 7.55 2.6 11.2-.3l1.55-1.25-2-3.4-.6-.9q-1.6-2.35-3.25-4.05l-6.4 5.05 3.15-7.6m3.25 2.55q10.1-8 14.65-24M38.8 2.2v-.05M33.15.05q-.5 8.5-3.3 16.35m-.15.45.15-.45m-.65 1.7.5-1.25M29.85 16.4l.4.45m3.5 4.3.25.35m-4.3-4.65h.55m5.65 7.35.1-.2z" fill="none" stroke="#000" stroke-linecap="round" stroke-linejoin="round" stroke-opacity=".4" stroke-width=".05"/></g><g id="q"><path d="m-.4.15 1.05.1-.5 5.05Q-.2 6.4-1.1 7.65l-.7-5.5 1.4-2m-6.1 9.9.45-.15.25-.8v.7l-.25.1-.25 1.1.05.6-.2.4-.1-1.15.05-.8" fill="#3d4301" fill-rule="evenodd" transform="translate(7.2 .8)"/><path d="M-6.55 5.85-5.4 3.6q1.2-2 3.8-3.6l1.2.15-1.4 2-1.5 2.3q-1.2.5-2.5 1.3l.2-.7-.05-.15-.9.95" fill="#353a01" fill-rule="evenodd" transform="translate(7.2 .8)"/><path d="m-1.1 7.65-.45.7-.05-1.45q-1 .45-1.5 2.15-.35-.1-.5-1.9l-1 2.7-.4 1.7-.25.3-.1-1.6-.35.5-.1-.95.1.95-.55.85-.05-.6.25-1.1.25-.1v-.7l-.25.8-.45.15.1-1.5.6-2.8q1.3-.8 2.5-1.3l1.5-2.3.7 5.5m-2.2-3.2Q-5.05 7.2-5.8 9.1q.75-1.9 2.5-4.65" fill="#444b01" fill-rule="evenodd" transform="translate(7.2 .8)"/><path d="m-1.55 8.35-.95 1.1-1.2.95-1.3 1.15.4-1.7 1-2.7q.15 1.8.5 1.9.5-1.7 1.5-2.15l.05 1.45m-3.7 3.5-.3.35q-.55.7-.55 1.25l-.15-1.85.55-.85.35-.5.1 1.6m-.3.35-.15-1.45.15 1.45" fill="#725816" fill-rule="evenodd" transform="translate(7.2 .8)"/><path d="M-6.15 13.5q-.9-1.15-1-3.05l.05-2.3.35-1.7.2-.6.9-.95.05.15-.2.7-.6 2.8-.1 1.5-.05.8.1 1.15.2-.4.15 1.85-.05.05m-.6-7.05.95-.7-.95.7" fill="#5c4512" fill-rule="evenodd" transform="translate(7.2 .8)"/><path d="M.65 6.65 1.8 4.4Q3 2.4 5.6.8l1.2.15 1.05.1-.5 5.05Q7 7.2 6.1 8.45l-.45.7-.95 1.1-1.2.95-1.3 1.15-.25.3-.3.35q-.55.7-.55 1.25m0 .1-.05-.05q-.9-1.15-1-3.05l.05-2.3.35-1.7.2-.6" fill="none" stroke="#000" stroke-linecap="round" stroke-linejoin="round" stroke-opacity=".4" stroke-width=".05"/><path d="M7.45 0 7.4.15 7.45.1V0M1.1 14.25v.1m.3-7.8q1.3-.8 2.5-1.3l1.5-2.3 1.4-2M1.15 10.7l.25-.8Q2.15 8 3.9 5.25m-2.5 1.3-.95.7m.95 3.35.1.95.15 1.45m-.7-.6-.05-.6.25-1.1m.25-.1v-.7m-.45 2.5.15 1.85m4.3-11.3.7 5.5" fill="none" stroke="#000" stroke-linecap="round" stroke-linejoin="round" stroke-opacity=".2" stroke-width=".05"/></g><g id="r"><path d="M.85 2.55.8 7.1q.45.65 1.2 3l.1.2-.5 1.35-.15-.2q-.2-.05-1.25.7l-.15.1.05-.3.05-.55.25-1.3.4-3-.4 3-.25 1.3-.05.55-.05.3-.2.15.25-.45-.25.45-1.2 1.5-.7-3.5Q0 4.05.85 2.55" fill="#444b01" fill-rule="evenodd" transform="translate(2.9 .3)"/><path d="m.85 2.55-.05-.3L.35 0 .8 2.25l.05.3Q0 4.05-2.05 10.4-3.1 5-2.85 3.55q.3-1.9 1-3l.1-.15L.35 0 1.9-.3q1.5 3.3.85 7.55L2.1 10.3l-.1-.2q-.75-2.35-1.2-3l.05-4.55" fill="#353a01" fill-rule="evenodd" transform="translate(2.9 .3)"/><path d="m.05 12.25.15-.1q1.05-.75 1.25-.7l.15.2-.15.35-.85 1.55-1.2 1.55.65-2.85-.65 2.85-.25.25H-1l-.2-.8-.15-.65 1.2-1.5-1.05 2.15 1.05-2.15.2-.15" fill="#6f7d01" fill-rule="evenodd" transform="translate(2.9 .3)"/><path d="m5 10.6.65-3.05Q6.3 3.3 4.8 0L3.25.3l-2.1.4-.1.15q-.7 1.1-1 3-.25 1.45.8 6.85m3.65 1.25L5 10.6m-2.7 4.8 1.2-1.55.85-1.55.15-.35M2.3 15.4l-.25.25H1.9l-.2-.8-.15-.65-.7-3.5" fill="none" stroke="#000" stroke-linecap="round" stroke-linejoin="round" stroke-opacity=".4" stroke-width=".05"/><path d="m3.25.3.45 2.25.05.3L3.7 7.4q.45.65 1.2 3l.1.2m-4.15.1q2.05-6.35 2.9-7.85M3.7 7.4l-.4 3-.25 1.3-.05.55-.05.3-.65 2.85m.7-3.15-.25.45M1.7 14.85l1.05-2.15" fill="none" stroke="#000" stroke-linecap="round" stroke-linejoin="round" stroke-opacity=".2" stroke-width=".05"/></g><g id="s"><path d="m-3.4.25.5.15.1.15-.1-.15 1.75.2 2.7-.3.05.05 1.4.8q-2 1-3.9.95-1-.4-1.9-1.55l-.6-.3" fill="#5f2d18" fill-rule="evenodd" transform="translate(4.85 2.05)"/><path d="M4.45-.85 4.4-1l.45-.3v.2l-.15.85-.25-.6" fill="#432012" fill-rule="evenodd" transform="translate(4.85 2.05)"/><path d="M1.55.3Q3-.1 4.45-.85l.25.6-.45.7-1.25.7-1.4-.8L1.55.3" fill="#4f2717" fill-rule="evenodd" transform="translate(4.85 2.05)"/><path d="m-4.65-.6.5.4.75.45.6.3Q-1.9 1.7-.9 2.1q-1.5-.05-2.5-.6L-4.65.45-4.8-.3l.15-.3" fill="#502116" fill-rule="evenodd" transform="translate(4.85 2.05)"/><path d="m4.4-1-.65-.6q.35-.15.4-.45l.7.75-.45.3M.85-.75 1.55.3l-2.7.3L-2.9.4l-1.15-1.6q2.5.85 4.9.45" fill="#ac642a" fill-rule="evenodd" transform="translate(4.85 2.05)"/><path d="m4.4-1 .05.15Q3-.1 1.55.3L.85-.75l2.9-.85.65.6M-2.9.4l-.5-.15-.75-.45-.5-.4.6-.6L-2.9.4" fill="#804124" fill-rule="evenodd" transform="translate(4.85 2.05)"/><path d="m8.6.45-2.9.85m3.85.5L9.7.95v-.2L9 0q-.05.3-.4.45M7.85 3.2l1.25-.7.45-.7M.8.85l-.6.6M7.85 3.2q-2 1-3.9.95-1.5-.05-2.5-.6L.2 2.5l-.15-.75.15-.3m.6-.6q2.5.85 4.9.45" fill="none" stroke="#0f0b07" stroke-linecap="round" stroke-linejoin="round" stroke-opacity=".4" stroke-width=".05"/><path d="m9.3 1.2-.05-.15-.65-.6m-2.9.85.7 1.05.05.05 1.4.8m1.45-2 .25.6m-7.6.65L.8.85M2.05 2.6l-.1-.15m2 1.7q-1-.4-1.9-1.55" fill="none" stroke="#0f0b07" stroke-linecap="round" stroke-linejoin="round" stroke-opacity=".2" stroke-width=".05"/></g><g id="t"><path d="M.9-6.35.85-6.4v-.05l.05.1m1.25 2.2.2.2-.6.85.4-1.05" fill="#c0c804" fill-rule="evenodd" transform="translate(3.6 6.45)"/><path d="m.85-6.4.05.05q-.45.3-.45 1.7L.8-2.5.45-4.65q0-1.4.45-1.7.15 1.25 1.05 2.05l.2.15-.4 1.05q-.45.45-.95.6l-.5.05-2.6-.5L-.8-4.5.85-6.4" fill="#ffc222" fill-rule="evenodd" transform="translate(3.6 6.45)"/><path d="m-2.3-2.95 2.6.5.5-.05.05.3v.45l.9-1.35.6-.85.85 1.3q.15.6-1.45 2.4L.2.5l-.6.25q-3 .25-3.15-1.2-.15-1.25.5-1.9l.25-.25.5-.35m4.05-.15-.9 1.35v-.45L.8-2.5q.5-.15.95-.6m-4.8.75Q-1-.5.55-.5L.6-.65l.25-1.1L.6-.65.55-.5.2.5l.35-1Q-1-.5-3.05-2.35" fill="#88511a" fill-rule="evenodd" transform="translate(3.6 6.45)"/><path d="M4.5.1 4.45 0v.05L2.8 1.95 1.3 3.5M4.5.1q.15 1.25 1.05 2.05l.2.15.2.2.85 1.3q.15.6-1.45 2.4l-1.55.75-.6.25Q.2 7.45.05 6q-.15-1.25.5-1.9l.25-.25.5-.35" fill="none" stroke="#000" stroke-linecap="round" stroke-linejoin="round" stroke-opacity=".302" stroke-width=".05"/><path d="M4.4 3.95 4.05 1.8q0-1.4.45-1.7m.85 3.25.4-1.05M4.4 3.95l.05.3v.45l.9-1.35m-.9 1.35L4.2 5.8l-.05.15-.35 1m.35-1Q2.6 5.95.55 4.1" fill="none" stroke="#000" stroke-linecap="round" stroke-linejoin="round" stroke-opacity=".2" stroke-width=".05"/></g><g id="u"><path d="M3.1-1.9q.55-.45.9-2.25.35 1.6.1 2.15l-.25.6Q3.15-.7.75.3V.25L.65.3-.2.65l-.85-.5V-.1l.15-1.15 2.3-.45 1.25-.05.45-.15-.9 1.1L4.1-2 2.2-.8l.9-1.1M.65.3l.75-2-.75 2M2.2-.8.75.25 2.2-.8" fill="#6f7d01" fill-rule="evenodd" transform="translate(1.05 5.4)"/><path d="m3.85-4.7.15.55q-.35 1.8-.9 2.25l.55-1.8.05-.8-.05-.85.05.85-.05.8-.55 1.8-.45.15-1.25.05-.05-1.7.05 1.7-2.3.45.45-1 1.8-1.15.45-.25q1.6-.9 1.75-1.75l.1.05.2.65" fill="#99a901" fill-rule="evenodd" transform="translate(1.05 5.4)"/><path d="M4.9.7 4.7.05m.35 1.2q.35 1.6.1 2.15L4.9 4q-.7.7-3.1 1.7h-.1l-.85.35-.85-.5V5.3l.15-1.15.45-1L2.4 2l.45-.25Q4.45.85 4.6 0l.1.05m-3 5.65.1-.05" fill="none" stroke="#000" stroke-linecap="round" stroke-linejoin="round" stroke-opacity=".302" stroke-width=".05"/><path d="m4.7.05.05.85-.05.8-.55 1.8-.9 1.1 1.9-1.2M2.4 2l.05 1.7-.75 2m.1-.05L3.25 4.6" fill="none" stroke="#000" stroke-linecap="round" stroke-linejoin="round" stroke-opacity=".2" stroke-width=".05"/></g><g id="v"><path d="M1.6-.3.95.4.35.3h-.3l-.1-.05L-.4.2q-2.35-.3-3.1-.75l-.4-.5q-.55-.65-.45-3.35l.1-.1q.35.75 2.15 1.25l.5.1 2 .65q.65.4 1.15 1.9l.05.3M0 .25.05.3l-.1-.1q-1.4-1.4-1.55-3.35Q-1.45-1.2-.05.2L0 .25M-4.15-3.6l-.2-.8.2.8.25.75Q-3.25-1.2-1.75-.4L-.4.2l-1.35-.6q-1.5-.8-2.15-2.45l-.25-.75m.25 2.55 2.15.65-2.15-.65" fill="#4d5401" fill-rule="evenodd" transform="translate(4.35 4.5)"/><path d="m5.95 4.2-.65.7-.6-.1h-.3l-.1-.05-.35-.05Q1.6 4.4.85 3.95l-.4-.5Q-.1 2.8 0 .1L.1 0q.35.75 2.15 1.25l.5.1 2 .65q.65.4 1.15 1.9l.05.3m-1.55.6-.05-.05M0 .1l.2.8" fill="none" stroke="#000" stroke-linecap="round" stroke-linejoin="round" stroke-opacity=".302" stroke-width=".05"/><path d="M4.35 4.75 4.3 4.7Q2.9 3.3 2.75 1.35M.2.9l.25.75Q1.1 3.3 2.6 4.1l1.35.6M2.6 4.1.45 3.45" fill="none" stroke="#000" stroke-linecap="round" stroke-linejoin="round" stroke-opacity=".2" stroke-width=".05"/></g><g id="w"><path d="m-4.6-.65.9-.35.1-.05q.35 0 .75.4L-1.7 1l-.8.5-.55.45h-.05l-.1.1-.05-.5.15-2.25.25.05-.25-.05-.15 2.25-.05-.15-.4-.45q-.55 0-1.05 1.8l-.1.35-.2-1.15-.3.45v.45l-.1.05-.6-1.6.1-.45.45-1.35.9-.15.65.1.6-.15h.25-.25l-.6.15-.65-.1m-.5 4.75-.05-.05h.05v.05m1.15-4.65q-1.4.45-1.4 2.95 0-2.5 1.4-2.95" fill="#6f7d01" fill-rule="evenodd" transform="translate(6.1 1.8)"/><path d="M-3.2 2.05q-1.4 1.2-1.75 2.2l-.15-.15v-.05h-.05q-1.15-1.2-.9-2.75l.6 1.6.1-.05V2.4l.3-.45.2 1.15.1-.35q.5-1.8 1.05-1.8l.4.45.05.15.05.5m-1.9 2-.25-1.6.25 1.6" fill="#725816" fill-rule="evenodd" transform="translate(6.1 1.8)"/><path d="m-5.4-.75.3-.55.3-.1 1.55-.4h.45Q0-.65.6-.05l-3.45-.6 3.45.6Q1 .3.3.4q-1.05.1-2 .6L-2.85-.65q-.4-.4-.75-.4l-.1.05-.9.35-.8-.1.8.1-.9.15.1-.25" fill="#536001" fill-rule="evenodd" transform="translate(6.1 1.8)"/><path d="M6.7 1.75Q6.1 1.15 3.3 0h-.45L1.3.4 1 .5l-.3.55m6 .7q.4.35-.3.45-1.05.1-2 .6l-.8.5-.55.45H3l-.1.1q-1.4 1.2-1.75 2.2l-.2-.2Q-.2 4.65.05 3.1l.1-.45L.6 1.3l.1-.25" fill="none" stroke="#000" stroke-linecap="round" stroke-linejoin="round" stroke-opacity=".302" stroke-width=".05"/><path d="m.7 1.05.8.1.65.1.6-.15H3l-.15 2.25.05.5m.35-2.7 3.45.6m-3.45-.6L3 1.1M.75 4.25V4.2q0-2.5 1.4-2.95m-1.4 3L1 5.85" fill="none" stroke="#000" stroke-linecap="round" stroke-linejoin="round" stroke-opacity=".2" stroke-width=".05"/></g><g id="x"><path d="M-1 3.35-1.3 3-3.15.35l.5-.3 2.35-.4.45-.1L1.9-.2q.3.15.4 1.35Q1.5.4.95.4l-.5.05h-.2q-1.5.15-1.5 1.05l.15 1.1.1.75M-1.3 3l.2-.4-.2.4m1-3.35L.35.3l-.1.15.1-.15-.65-.65M.35.3l.1.15L.35.3" fill="#b6771f" fill-rule="evenodd" transform="translate(3.15 .45)"/><path d="M2.3 1.15v.7q0 1.7-1.65 2.9l-.2.15L-.8 3.55l-.2-.2-.1-.75-.15-1.1q0-.9 1.5-1.05h.2l.3.35.8.25.75.45-.75-.45L.75.8l.55.75-.65 3.2.65-3.2L.75.8.45.45.95.4q.55 0 1.35.75M-1.1 2.6.25.45-1.1 2.6" fill="#ffc222" fill-rule="evenodd" transform="translate(3.15 .45)"/><path d="m2.15 3.8-.3-.35L0 .8.5.5 2.85.1 3.3 0l1.75.25q.3.15.4 1.35v.7q0 1.7-1.65 2.9l-.2.15L2.35 4" fill="none" stroke="#000" stroke-linecap="round" stroke-linejoin="round" stroke-opacity=".388" stroke-width=".05"/><path d="m2.05 3.05-.2.4M3.4.9l.1-.15L2.85.1m2.6 1.85L4.7 1.5l-.8-.25.55.75-.65 3.2M3.6.9 3.5.75m.1.15.3.35M3.4.9 2.05 3.05" fill="none" stroke="#000" stroke-linecap="round" stroke-linejoin="round" stroke-opacity=".2" stroke-width=".05"/></g></defs></svg>