<svg viewBox="0 0 278.3 321.34" xmlns="http://www.w3.org/2000/svg" xmlns:xlink="http://www.w3.org/1999/xlink"><use transform="translate(0 -.01) scale(1.3622)" width="204.3" height="235.9" xlink:href="#a"/><defs><g id="a" transform="translate(265.8 64.3)"><use transform="translate(-265.8 -64.3)" width="204.3" height="235.9" xlink:href="#b"/><use transform="rotate(45.001 3.308 -160.33) scale(2.0256)" width="5.55" height="11.7" xlink:href="#c"/><use transform="rotate(14.999 34.608 -535.468)" width="14.6" height="29.15" xlink:href="#d"/><use transform="translate(-198.05 -39.2)" width="76.1" height="89.45" xlink:href="#e"/><use transform="matrix(.5 0 0 .5 -190.22 32.1)" width="35.4" height="36.9" xlink:href="#f"/><use transform="translate(-188.95 34.25)" width="23.85" height="21" xlink:href="#g"/><use transform="matrix(-1.5149 -.8482 -.6229 1.1126 -195.59 -46.3)" width="9.5" height="10.35" xlink:href="#h"/><use transform="matrix(-.9767 -.5468 -.6229 1.1126 -181.85 -37.565)" width="9.5" height="10.35" xlink:href="#h"/><use transform="matrix(-.6964 -2.3845 -1.1545 .5366 -166.67 -8.481)" width="9.5" height="10.35" xlink:href="#h"/><use transform="matrix(-.3039 -1.0405 -1.2267 .2892 -166.99 6.977)" width="9.5" height="10.35" xlink:href="#h"/><use transform="matrix(1.053 .2571 .3629 -1.207 -202.31 13.247)" width="9.5" height="10.35" xlink:href="#h"/><use transform="matrix(1.6966 .802 .6221 -2.0691 -222.96 8.141)" width="9.5" height="10.35" xlink:href="#h"/><use transform="matrix(-.3618 3.1546 1.4924 .0452 -227.07 -36.666)" width="9.5" height="10.35" xlink:href="#h"/><use transform="matrix(.1689 1.3038 1.1795 .0357 -228.51 -47.015)" width="9.5" height="10.35" xlink:href="#h"/></g><g id="b"><path d="m-242.9 140.9.4.2.95 11.9-3.1 7.05-4.2.95-2.3 1 .6-2.05-.85-.45-.05.1-3.75 9.6-.1.25-1.3-5.15 1.5-3.05.75-1.55.7-1.5 2.2 1.25-2.2-1.25-.7 1.5-.75 1.55-3.35-5.9-.15-.1-.85-.45-.45-.3v-4.3 4.3l.45.3-5.2 7.55-.1.1-.55-5.9 5.4-6.35v-5.75h.5l5.8-1.1 9.05-3.75.05-.05-.3.6h.05l1.8.75h.05m-3.25 4.6 1.35-5.35-1.35 5.35m1.35-5.35.25-.55-.25.55m-4.35 13.05 3-3.25-4-7-3.45.4 3.45-.4 4 7-3 3.25m-2.3 6.25.05.05-.05-.05m-7.65-5.25-.35.6.35-.6m15.95 9.85h-.2l.5-.65-.3.65m-11.95-2.8.75-1.55-.75 1.55" fill="#7a705a" fill-rule="evenodd" transform="translate(265.8 64.3)"/><path d="m-244.5 139.55.25-.55-.25.55-.25.6h-.05l.3-.6" fill="#615847" fill-rule="evenodd" transform="translate(265.8 64.3)"/><path d="m-191.05 57.7 15.95-18.75-14.3 21.6-10.4 18.75v-4.25l-21.9 17.4-1 6.35-2.15-2.1-1 1v-6.3q1.35-.9.9-2.65 16.9-9.3 24.4-18.35l9.5-12.7m-35.05 41.85.25.1.6 4-9.85 21.8 3.1-2.1-10.9 17.55h-.05l-1.8-.75.25-.6.25-.55 18.15-39.45" fill="#80745e" fill-rule="evenodd" transform="translate(265.8 64.3)"/><path d="m-188.2 73.8 2.4-7.55-8.35 7.25 29.35-44.3-6.35 1.75 2.3-3.1 16.2-9.8-35.55 55.75" fill="#40392e" fill-opacity=".953" fill-rule="evenodd" transform="translate(265.8 64.3)"/><path d="m-171.15 30.95 6.35-1.75-29.35 44.3 8.35-7.25-2.4 7.55-4.1 6.35-18.7 15.3-28.65 46.8-.15-.05-2.7-1.1-.4-.2 10.9-17.55-3.1 2.1 9.85-21.8-.6-4-.25-.1.25-.65v-1.2l1-1 2.15 2.1 1-6.35 21.9-17.4v4.25l10.4-18.75 14.3-21.6-15.95 18.75 19.9-26.75" fill="#544a3e" fill-opacity=".953" fill-rule="evenodd" transform="translate(265.8 64.3)"/><path d="m-242.5 141.1 2.7 1.1.05.1q2.5 4.2 2.1 10.15-.85 6.35-5.2 10.95l-.5.65-2.9-1.55 2.9 1.55v.05l-.9 7-3-2.15 1-6.45-2.6-1.5 4.2-.95 3.1-7.05-.95-11.9" fill="#5b5146" fill-rule="evenodd" transform="translate(265.8 64.3)"/><path d="m-250.55 159.95-.9-.35.05-.1.85.45" fill="#756859" fill-rule="evenodd" transform="translate(265.8 64.3)"/><path d="m-251.45 159.6.9.35-.6 2.05-1.7 5.6-2.35 1.6 3.75-9.6m-13.2 2.75 5.2-7.55.85.45-.05.1-3.4 5.8-2.6 1.2" fill="#665d4b" fill-rule="evenodd" transform="translate(265.8 64.3)"/><path d="m-188.2 73.8 35.55-55.75-16.2 9.8-2.3 3.1-19.9 26.75m-34.8 40v1.2l-.25.65m-16.8 41.35.4.2 2.7 1.1.15.05 28.65-46.8 18.7-15.3 4.1-6.35m-37.65 23.9v-6.3q1.35-.9.9-2.65 16.9-9.3 24.4-18.35l9.5-12.7m-68.35 86.75 5.8-1.1 9.05-3.75.05-.05-2.4-.3m2.4.3.25-.55 18.15-39.45m-18.65 40.6h-.05l-1.35 5.35m1.4-5.35 1.8.75m-1.55-1.35-.05.05-.25.55.3-.6.25-.55m-9.35 4.35 3.45-.4 4 7-3 3.25m-1.4 6.75-.85-.45m-.05-.05-2.2-1.25-.7 1.5-.75 1.55-3.35-5.9-.15-.1-.85-.45-.45-.3v-10.05m16.75 19.6.3-.65q4.35-4.6 5.2-10.95.4-5.95-2.1-10.15l-.05-.1m-3.55 21.85-2.9-1.55-2.6-1.5-2.3 1" fill="none" stroke="#739a3d" stroke-linecap="round" stroke-linejoin="round" stroke-opacity=".102" transform="translate(265.8 64.3)"/><path d="m-191.05 57.7 15.95-18.75-14.3 21.6-10.4 18.75v-4.25l-21.9 17.4-1 6.35-2.15-2.1-1 1m0 1.95.6 4-9.85 21.8 3.1-2.1-10.9 17.55m-.05 0h.05m-8.5 18.6-.05.1-3.75 9.6m3.8-9.7-.05-.05m-3.65 1.8-1.5 3.05 1.3 5.15.1-.25m-4.7-19-5.4 6.35.55 5.9.1-.1 5.2-7.55.35-.6m16.25 9.2-.5.65m-2.9-1.55-1 6.45 3 2.15.9-7v-.05m-11-4.35-.75 1.55" fill="none" stroke="#7a705a" stroke-linecap="round" stroke-linejoin="round" stroke-opacity=".102" transform="translate(265.8 64.3)"/><path d="m-255.2 169.2 2.35-1.6 1.7-5.6.6-2.05" fill="none" stroke="#000" stroke-linecap="round" stroke-linejoin="round" stroke-opacity=".09" transform="translate(265.8 64.3)"/><path d="M-225.75 106.25q2.2-4.05 4.4-2.4l-.35 10.15v.15l-.7 3.65q-2.1 8.95-6.8 8.45l-.65-.1.05-.05 1.2-2.95 3-7.25-.15-9.65" fill="url(#i)" fill-rule="evenodd" transform="translate(265.8 64.3)"/><path d="m-229.2 126.25-1.85 4.5-1.05 2.55-8.5 8.05 7.1-9.05.55-2.85 1.55-4.55.45-1.45 1.45-4.25.05 3.6.85.35-1.2 2.95-.05.05.65.1m-1.85 4.5-.35-5.85.35 5.85m1.25-4.65-1.15-2.65 1.15 2.65" fill="#5c5345" fill-rule="evenodd" transform="translate(265.8 64.3)"/><path d="m-225.8 102.6.05 3.65.15 9.65-3 7.25-.85-.35-.05-3.6.9-2.75-1.25-2.05-.25-.55q.45-9.4 4.3-11.25" fill="#685e4d" fill-rule="evenodd" transform="translate(265.8 64.3)"/><path d="m-202.95 65-10.75 19.75 2.15-6.2 6.1-14.15 2.5.6m-22.9 31.5.05 6.1q-3.85 1.85-4.3 11.25-1.1-2.8-1.15-9.45-.1-6.7 5.4-7.9m16.35-3.35-1.9-1.45-3.35 2.25-2.2 7.1.85-8.5 5.2-3.75 1.4 4.35" fill="#80745e" fill-rule="evenodd" transform="translate(265.8 64.3)"/><path d="m-225.85 96.5-.1-3.95 1.6-2.7q1.7.75 3.4 1.45l-.05 1.55-.1 3.15-.25 7.85q-2.2-1.65-4.4 2.4l-.05-3.65-.05-6.1" fill="#7e725c" fill-rule="evenodd" transform="translate(265.8 64.3)"/><path d="m-243.85 140.3-6.75 2.2q5.7-4.5 11.8-14.5l-5.05 12.3" fill="#757356" fill-rule="evenodd" transform="translate(265.8 64.3)"/><path d="m-222.25 117.8.75-3.9 5.65-2.85-1.4 6.75h-5" fill="#5b5345" fill-rule="evenodd" transform="translate(265.8 64.3)"/><path d="m-211.1 99.4-2 2.25v-5.1l1.7-1.05.3 3.9" fill="#786d58" fill-rule="evenodd" transform="translate(265.8 64.3)"/><path d="m-205.55 92.3 2-6.4.15-.55 9.2-5.95 5.6-8.2.3-.45 1.6-2.35 1.3.75-6.55 11.85-13.6 11.3" fill="#484136" fill-rule="evenodd" transform="translate(265.8 64.3)"/><path d="m-221.1 96 .1-3.15 9.65-7.85 11.55-9.1-3.6 9.45-.15.55-2 6.4q-1.1 3.8-1.55 6.85-4.85 6.9-13.4 10.5l-.6-.1V96m10 3.4 2.25-2.6-.65-3.65.65 3.65-2.25 2.6-.3-3.9-1.7 1.05v5.1l2-2.25m1.6-6.25-1.4-4.35-5.2 3.75-.85 8.5 2.2-7.1 3.35-2.25 1.9 1.45m-7.45 7.9-.9 6.3.9-6.3" fill="#5c5247" fill-rule="evenodd" transform="translate(265.8 64.3)"/><path d="m-187.45 67.85 1.5-4.5 3.4-15.65v-1.35l4.05-5.35.45.35-3.75 14.4-5.3 12.2-.35-.1" fill="#484136" fill-opacity=".953" fill-rule="evenodd" transform="translate(265.8 64.3)"/><path d="m-178.5 41-4.05 5.35v1.35l-3.4 15.65-1.5 4.5-1.15 3.35-5.6 8.2-9.2 5.95 3.6-9.45m12.7-7.95 5.3-12.2 3.75-14.4m-.45-.35 5.55-7.3-5.1 7.65m-46.3 48.5-1.6 2.7.1 3.95.05 6.1.05 3.65m4.4-2.4.25-7.85.1-3.15.05-1.55m15.4 1 2-6.4.15-.55m-7.95-.35-9.65 7.85m11.5.3.65 3.65-2.25 2.6-2 2.25v-5.1l1.7-1.05.3 3.9m1.6-6.25-1.4-4.35-5.2 3.75-.85 8.5 2.2-7.1 3.35-2.25 1.9 1.45m24.1-24 2.2-4-3.9 2.8-1.2 2.8 1.6-2.35m1.3.75L-191.95 81l-13.6 11.3q-1.1 3.8-1.55 6.85-4.85 6.9-13.4 10.5m-.6-.1V96m32.8-25.25-.3.45m-55.25 69.1 5.05-12.3q-6.1 10-11.8 14.5l6.75-2.2m26-32.95.9-6.3m-5.3 16.75.75-3.9-.2.1v.15l-.7 3.65h5.15l1.4-6.75-5.65 2.85m-.2.1.35-10.15m-7.85 22.4-1.85 4.5-1.05 2.55-8.5 8.05 7.1-9.05.55-2.85 1.55-4.55.45-1.45 1.45-4.25.9-2.75-1.25-2.05-.25-.55q-1.1-2.8-1.15-9.45-.1-6.7 5.4-7.9m-3.65 22.7.05 3.6m.85.35 3-7.25-.15-9.65m-2.85 16.9-1.2 2.95-.05.05.65.1q4.7.5 6.8-8.45m-9 7.1.35 5.85m-7.75-2.75.2-.55m7.65-4 1.15 2.65" fill="none" stroke="#000" stroke-linecap="round" stroke-linejoin="round" stroke-opacity=".102" transform="translate(265.8 64.3)"/><path d="m-223.65-61.25-1.35 2.1q-1.05 4 0 7.95l.25.45-.05-.05-.4-.8q-4.2-12.2 3.15-12.1 1.9-.7 4.8 3.5l-.6.1q-4.55-2.35-5.55-1.55l-.25.4m6.15 10.05.05.05-.15.2.1-.25m8.25 6.85.9.55q3.8 2.4 8.3 4.3 12.55 6.85 21 17.75 2.3 10 3.3 19.85.75 7.35.85 14.65v.3q0 7.9-.8 15.65l-.55-.3q-2-9.35-6.65-20.2-4.75-11.05-12.2-23.75l-1.35-2.3q-3.35-5.6-7.15-10.85-5.1-7.05-15.65-19.1l1.65-3.15 1.9 2.6 6.45 4m5.65 4.2v11.45-11.45m9.1 7.45-1.45 13.85 1.45-13.85m12.05 41-.45-.1.45.1m1.45-25.45-1.45 24.6 1.45-24.6" fill="#8ea530" fill-rule="evenodd" transform="translate(265.8 64.3)"/><path d="M-225-51.2q-1.05-3.95 0-7.95l1.35-2.1q-.45 1.65 4.6 8.1l1.25 1.6.3.35-.1.25-1.65 3.15-1.7 3.4q-1.6-3.35-3.8-6.35l-.25-.45m5.5 3.1.25.3-.25-.3" fill="url(#j)" fill-rule="evenodd" transform="translate(265.8 64.3)"/><path d="M-217.45-51.15q3.55 3.75 8.2 6.8l-6.45-4-1.9-2.6.15-.2" fill="#abbb1e" fill-rule="evenodd" transform="translate(265.8 64.3)"/><path d="m-220.95-44.4 1.7-3.4q10.55 12.05 15.65 19.1 3.8 5.25 7.15 10.85l1.35 2.3q7.45 12.7 12.2 23.75l-11.2-3.25 11.2 3.25q4.65 10.85 6.65 20.2l-6.4-3.85.7-1.25 2.9 2.45q1.25.25-15.45-19.05-21.2-9.15-25.3-14.45 5.9-21.65-1.15-36.65m5.35 15.85h11.55-11.55m-2.3 18 21.45-7.3-21.45 7.3" fill="#90ab3b" fill-rule="evenodd" transform="translate(265.8 64.3)"/><path d="M-224.75-50.75q2.2 3 3.8 6.35m-3.8-6.35-.05-.05-.4-.8q-4.2-12.2 3.15-12.1 1.9-.7 4.8 3.5l-.6.1q-4.55-2.35-5.55-1.55m-.25.4q-.45 1.65 4.6 8.1l1.25 1.6.3.35.05.05q3.55 3.75 8.2 6.8l.9.55q3.8 2.4 8.3 4.3 12.55 6.85 21 17.75 2.3 10 3.3 19.85.75 7.35.85 14.65m0 .3q0 7.9-.8 15.65l-.55-.3-6.4-3.85m.7-1.25 2.9 2.45q1.25.25-15.45-19.05-21.2-9.15-25.3-14.45 5.9-21.65-1.15-36.65m37.5 68-1.7-.85" fill="none" stroke="#739a3d" stroke-linecap="round" stroke-linejoin="round" stroke-opacity=".102" transform="translate(265.8 64.3)"/><path d="m-225-51.2.25.45m5.5 2.95-.25-.3m-3.9-13.55-.25.4M-182.9 8.2q4.65 10.85 6.65 20.2" fill="none" stroke="#000" stroke-linecap="round" stroke-linejoin="round" stroke-opacity=".102" transform="translate(265.8 64.3)"/><path d="M-219.25-47.8q10.55 12.05 15.65 19.1v-11.45m-.45 11.6h-11.55m19.65 9.7 1.45-13.85m11.6 40.9.45.1m-14-26.15-21.45 7.3m35 18.75-11.2-3.25m11.65 2.5 1.45-24.6" fill="none" stroke="#000" stroke-linecap="round" stroke-linejoin="round" stroke-opacity=".051" transform="translate(265.8 64.3)"/><path d="M-203.6-28.7q3.8 5.25 7.15 10.85" fill="none" stroke="#000" stroke-linecap="round" stroke-linejoin="round" stroke-opacity=".071" transform="translate(265.8 64.3)"/><path d="m-196.45-17.85 1.35 2.3q7.45 12.7 12.2 23.75" fill="none" stroke="#000" stroke-linecap="round" stroke-linejoin="round" stroke-opacity=".09" transform="translate(265.8 64.3)"/><path d="M-107.05-9.55q-37.1 19.1-63.05 36.1 5.7-18.35 12.8-20.75 7.1-2.45 11.9-15.5 3.05-8.4 5.55-12.85 4.25-11.35 14.3-21h.1q-25.65 42.65 18.4 34" fill="#929441" fill-rule="evenodd" transform="translate(265.8 64.3)"/><path d="M-125.45-43.55q18.25-10.7 41.95-17.55.8 8.8 12.5 20.6L-81-32h13.5Q-69.7-20.95-62-9.95q-21.3-5.35-43.55 0l-.2-.35-1.3.75q-44.05 8.65-18.4-34" fill="url(#k)" fill-rule="evenodd" transform="translate(265.8 64.3)"/><path d="M-107.05-9.55q-37.1 19.1-63.05 36.1 5.7-18.35 12.8-20.75 7.1-2.45 11.9-15.5 3.05-8.4 5.55-12.85 4.25-11.35 14.3-21h.1q18.25-10.7 41.95-17.55.8 8.8 12.5 20.6L-81-32h13.5Q-69.7-20.95-62-9.95q-21.3-5.35-43.55 0" fill="none" stroke="#739a3d" stroke-linecap="round" stroke-linejoin="round" stroke-opacity=".102" transform="translate(265.8 64.3)"/></g><g id="d"><use transform="translate(7.15)" width="7.45" height="10.5" xlink:href="#m"/><use transform="translate(10.95 22.65) scale(.3333)" width="7.45" height="10.5" xlink:href="#m"/><use transform="translate(0 21.65) scale(.7143)" width="7.45" height="10.5" xlink:href="#m"/><use transform="translate(9.55 8.7) scale(.3425)" width="7.45" height="10.5" xlink:href="#m"/><use transform="translate(2.2 9.35) scale(.2064)" width="7.45" height="10.5" xlink:href="#m"/></g><g id="e"><path d="m-169.1-37.4.05-1.3.45 1.35-.5-.05m.5.05 9.8 29.2-1.5 25.5.45.35-.2.25-10.05 12.5q9.75-9.05 24.9-18.15l-7.25 1.4.15-.05 6.6-3.55 23.25-1-32.3 13-19.65 13.65.45 2.65-.7 1.35-2.15 3.95-1.5-3.1 1.05-5.25 1.35-6.8.85.3-2.2 6.5 2.2-6.5L-167.3 6l-1.1-36.45-.2-6.9m5.25 30.3v-2.9 2.9m-1.65-2.1-3.4-21.3 3.4 21.3m-9.4 44.9 4.3-5.3-4.3 5.3m10.05-12.8.8-11.6-.8 11.6 4.3-5-4.3 5-7.95 9.05 2.2-1.55-2.2 1.55 7.95-9.05" fill="#7a705a" fill-rule="evenodd" transform="translate(198.05 39.2)"/><path d="M-159.85 17.7v-.05l.05-.05 7.35-3.9 7.25-1.4q-15.15 9.1-24.9 18.15l10.05-12.5.2-.25m-13.25 26.45-.15.2-1.1 1.15-4.6 3 2.9-4.6h-1.4l-7.05-16.55v-.05l-.05-.2-8-9.25q-1.8 3.25 0 6.5l-.15.25 4.9 3.5q-3.4.75-6.8-1.75l-1.05-5.55.5-5.55 15.5 4.45 3.75 8.85-1.35 6.8-1.05 5.25 1.5 3.1 2.15-3.95 1.55 4.4" fill="#615847" fill-rule="evenodd" transform="translate(198.05 39.2)"/><path d="M-195.8 12.35q8.15 1.6 15.75 6.5l.4.85-15.5-4.45-.5 5.55 1.05 5.55-1.7-1.5q-2.5-6.45 0-12.5h.5m11.3 15 7.05 16.55-4.8 5.85 1.3-5.85-3.55-16.55m3.55 16.55.65 3.05-.65-3.05" fill="#80745e" fill-rule="evenodd" transform="translate(198.05 39.2)"/><path d="m-169.1-37.4.5.05.2 6.9L-167.3 6l-7.75 22.85-.85-.3q4.15-11.45 4.6-22.95 2.6-21.5 2.2-43" fill="url(#o)" fill-rule="evenodd" transform="translate(198.05 39.2)"/><path d="m-173.95 38.4 10.25-6.45 2.4 1.55 1.95-2.75 6.85-.9h13.55L-169.8 40.6l-3.3 3.55-1.55-4.4.7-1.35" fill="url(#p)" fill-rule="evenodd" transform="translate(198.05 39.2)"/><path d="m-168.6-37.35-.45-1.35-.05 1.3m9.25 55.1v-.05l.05-.05 7.35-3.9m-21.95 22.05.45 2.65 10.25-6.45 2.4 1.55 1.95-2.75 6.85-.9h13.55L-169.8 40.6l-3.3 3.55m-.15.2-1.1 1.15-3.95 4.2m18.45-32-.2.25-10.05 12.5-4.3 5.3m-21.4-23.4q8.15 1.6 15.75 6.5l.4.85 3.75 8.85q4.15-11.45 4.6-22.95 2.6-21.5 2.2-43m-23.45 61.75q-1.8-3.25 0-6.5l8 9.25.05.2v.05l3.55 16.55h-.85m4.55 0h1.2m-18.55-17.55q3.4 2.5 6.8 1.75l-4.9-3.5m-1.9 1.75-1.7-1.5q-2.5-6.45 0-12.5m20.4 16.2-1.35 6.8-1.05 5.25 1.5 3.1 2.15-3.95.7-1.35m-6.35 8.55-.65-3.05-1.3 5.85 4.8-5.85" fill="none" stroke="#739a3d" stroke-linecap="round" stroke-linejoin="round" stroke-opacity=".102" transform="translate(198.05 39.2)"/><path d="m-152.45 13.7.15-.05m-20.8 30.5-.15.2m4.65-81.7.2 6.9m-1.7 60.9q9.75-9.05 24.9-18.15l-7.25 1.4m-11.9 9.25 4.3-5m-24.45 9.4 7.05 16.55h.2m0-8.55 2.2-6.5L-167.3 6l-1.1-36.45m-6.25 70.2 1.55 4.4m3-13.7-2.2 1.55 7.95-9.05" fill="none" stroke="#7a705a" stroke-linecap="round" stroke-linejoin="round" stroke-opacity=".102" transform="translate(198.05 39.2)"/><path d="m-168.4-30.45 3.4 21.3m1.65-.8v2.9m-.2 18.4-.8 11.6" fill="none" stroke="#000" stroke-linecap="round" stroke-linejoin="round" stroke-opacity=".102" transform="translate(198.05 39.2)"/><path d="m-168.6-37.35 9.8 29.2-1.5 25.5m8-3.7 6.6-3.55 23.25-1-32.3 13-19.65 13.65" fill="none" stroke="#000" stroke-linecap="round" stroke-linejoin="round" stroke-opacity=".153" transform="translate(198.05 39.2)"/></g><g id="f" transform="translate(.05 2)"><use transform="translate(-.05 -.5)" width="35.4" height="35.4" xlink:href="#q"/><use transform="matrix(.866 -.5 .4299 .7446 1.4 6.2)" width="16.4" height="16.4" xlink:href="#r"/><use transform="translate(8.05 2.9)" width="4.85" height="4.4" xlink:href="#s"/></g><g id="t"><path d="M28.6 17.65q0 4.8-3.35 8.15t-8.15 3.35q-4.75 0-8.1-3.35t-2.8-4.45q.5-1.15 13.65-4.45Q8.3 10.25 9 9.55q3.35-3.35 8.1-3.35 4.8 0 8.15 3.35t3.35 8.1" fill="#347683" fill-opacity=".8" fill-rule="evenodd" transform="translate(.5 .5)"/><path d="M20.1.25q5.25.8 9.25 4.8Q34.4 10.1 34.4 17.2t-5.05 12.15Q24.7 34 18.25 34.4 34.75 21.9 20.1.25" fill="#2f5e63" fill-opacity=".8" fill-rule="evenodd" transform="translate(.5 .5)"/><path d="M18.25 34.4H17.2q-7.1 0-12.15-5.05T0 17.2 5.05 5.05 17.2 0l2.9.25Q34.75 21.9 18.25 34.4" fill="#347683" fill-opacity=".8" fill-rule="evenodd" transform="translate(.5 .5)"/><path d="M20.1.25q5.25.8 9.25 4.8Q34.4 10.1 34.4 17.2t-5.05 12.15Q24.7 34 18.25 34.4H17.2q-7.1 0-12.15-5.05T0 17.2 5.05 5.05 17.2 0z" fill="none" stroke="#2f2d13" stroke-linecap="round" stroke-linejoin="round" stroke-opacity=".251" transform="translate(.5 .5)"/><path d="m15.75 8.25-1.7-3.7m8.4 4.7L23.9 5.6m2.8 9.25 3.1-.95" fill="none" stroke="#88a8a5" stroke-linecap="round" stroke-linejoin="round" stroke-opacity=".2" transform="translate(.5 .5)"/><path d="M1.55 13.9h.1q1.35 4.35 2 5.4 2 3.6 6 3.6l2.4-.3 2.5-.3q1.5 0 2.2.6 1 .85 1 3.1t-1.4 3.9q-1.5 1.8-3.8 1.8-3.55 0-7-4.6-4-5.35-4-13.2" fill="#3a8ea5" fill-rule="evenodd" transform="translate(.5 .5)"/><path d="M22.7 2.25q3.5 2.25 6.8 6.15l.35.35q5.45 7.4 0 17.1L28.5 28q-3.8 3.25-6.9 3.85 6.5-7.15 7-15.45.45-8.35-5.9-14.15" fill="#2f5e63" fill-rule="evenodd" transform="translate(.5 .5)"/></g><g id="g"><path d="m-183.8 46.65 1.85 2.25.45 1.15.05.1-.15-.2-2.2-3.3m14.5-3.75.45.85q-.5-3.3 2.05-3.45 2.95 3.55 0 7.95l-.5.85-6.3 4.45-5.95-.8.2-.2.1-.15-.1.15-.2.2h-.1l-1.8-2.55h.55l.5.2.3.6.3.5.55.9.25.4-1.1-4.5 3.6 1.5 5.8-4.45 1.4-2.45m3.7-2.85h-1.05l.35-.6q.45 0 .7.6m-14.2 11.45-1.1-1.3 1.1 1.3m-1.55-1.3 2 2.35-2-2.35" fill="#484136" fill-rule="evenodd" transform="translate(188.95 -34.25)"/><path d="M-183.8 46.65q-2-9.55.65-5.85l1.9 2.95 2.1 2.95-2.1-2.95q4.95 6.1 9.15.7l1.15-4.65 1.65 3.1-1.4 2.45-5.8 4.45-3.6-1.5 1.1 4.5-.25-.4-.55-.9.05.05-.1-.15-.25-.4-.3-.6-.6-1-.2.4-.2.35-.05.05v-.05l-.05-.1-.45-1.15-1.85-2.25m1.9 1.2.35 1.5-.4-.45.4.45-.35-1.5m1.55 2.65.5.9-.5-.9m-1.1-.35v-.05l.05.05-.05-.05v.05m-.05-.1.05.05-.1-.75.35.45-.35-.45.1.75-.05-.05" fill="#6e6451" fill-rule="evenodd" transform="translate(188.95 -34.25)"/><path d="m-179.55 52.8-1.3 2.05q-4.65 1.5-5.45-2.9l1.75-2.75 2.95.75.15.25 1.8 2.55.1.05" fill="#484136" fill-opacity=".6" fill-rule="evenodd" transform="translate(188.95 -34.25)"/><path d="m-186.5 35.6 6.55-1.35-2.65 3.2-4.5.9-1.85.7 2.45-3.45" fill="#e5e5e5" fill-opacity=".6" fill-rule="evenodd" transform="translate(188.95 -34.25)"/><path d="m-181.25 43.75-1.9-2.95q-2.65-3.7-.65 5.85l1.85 2.25.4.45-.35-1.5m2.75-1.15-2.1-2.95q4.95 6.1 9.15.7l1.15-4.65 1.65 3.1.45.85m2.05 4.5-.5.85-6.3 4.45-5.95-.8v.05m-6.75-.85 1.75-2.75 2.95.75-2.2-3.3m18.2-6.6q-.25-.6-.7-.6m-12.95 12.95-.1.15-.2.2h-.1l-1.8-2.55v-.05l-.05-.1-.45-1.15m1.85 2.1-.3-.6-.5-.2 1.1 1.3m-.3-.5.25.4-.5-.9m-1.1-.35-.15-.2m.2.2-.05-.05v.05m0 .05.05-.05.2-.35-.35-.45.1.75-.05-.05m.05.15h.1l-.05-.05m1.55 1.25.1.15-.05-.05m-1.1-1.3-.3-.4.2-.4.6 1m-.95-.2h.45m1.55 2.35-2-2.35" fill="none" stroke="#000" stroke-linecap="round" stroke-linejoin="round" stroke-opacity=".102" transform="translate(188.95 -34.25)"/></g><g id="h" transform="translate(4.2 8.1)"><use transform="translate(-4.2 -7.8)" width="9.5" height="10.05" xlink:href="#w"/><use transform="matrix(.5152 .138 -.2588 .9659 -.6 -8.1)" width="4.55" height="4.55" xlink:href="#x"/></g><g id="w"><path d="m1.2-.6 3.4-.2-.05.05q-.15-.1-.35.15l.35.25.7.3h-.2l-.6-.1L2.1.1.15 1.25H.2l.55-.9-2.2.2.5-.35-.45-.15-.9-.05q-1.3 0-1.85.45L-4.1.4q.9-1.25 1.3-.95 0 .05.1-.05l1.35.25L1.2-.6" fill="#41492c" fill-opacity=".8" fill-rule="evenodd" transform="translate(4.2 7.8)"/><path d="m5.4 7.2-2.55.25L1.5 7.2q-.1.1-.1.05-.4-.3-1.3.95l-.05.05Q.6 7.8 1.9 7.8l.9.05.45.15-.5.35 2.2-.2-.55.9h-.05L6.3 7.9l2.35-.25.6.1h.2l-.7-.3-.35-.25q.2-.25.35-.15L8.8 7z" fill="none" stroke="#1d1a16" stroke-linecap="round" stroke-linejoin="round" stroke-opacity=".102" stroke-width=".1"/><path d="m2.7-3.5.1.15-.15-.15h.05M3.8-.7 1 .25l-2.55-.1-.95-.25.55-.8L.5-5.35Q2.75-1.7 3.8-.7m-6.9.4h-.05l.05-.15v.15" fill="#91834c" fill-rule="evenodd" transform="translate(4.2 7.8)"/><path d="m2.8-3.35.25.55-.25-.55" fill="#b2aca4" fill-rule="evenodd" transform="translate(4.2 7.8)"/><path d="M.45-7.75h.1L2.7-3.5h-.05l.15.15.25.55L4-.95l.05.2-.25.05Q2.75-1.7.5-5.35L-1.95-.9l-.55.8-.25-.1-.35-.1v-.15Q-2.05-2.25.15-7.1l.3-.65" fill="#a9ac87" fill-rule="evenodd" transform="translate(4.2 7.8)"/><path d="M4.75.05 6.9 4.3l.1.15.25.55.95 1.85.05.2L8 7.1l-2.8.95-2.55-.1-.95-.25-.25-.1-.35-.1h-.05l.05-.15Q2.15 5.55 4.35.7l.3-.65" fill="none" stroke="#1d1a16" stroke-linecap="round" stroke-linejoin="round" stroke-opacity=".102" stroke-width=".1"/><path d="M1.4-2.15 3.2-1l.25-1.1.6 1.1q.05.55-.7.7l-.65.15Q2 0 1.9.2v.05Q-.7.6-3.15-.25L-1.1-1.8l.05 1.6.6-.65.4.6.7-.2.75-1.7" fill="#41492c" fill-opacity=".482" fill-rule="evenodd" transform="translate(4.2 7.8)"/><path d="m1.5 1.25-.95 1 1.55-2Q3.3-.95 3.5-.5q-1.05.7-2 1.75m-1 .25L2.25-.7q.8-.8 1.35-.8-.6.25-3.1 3M1.75-.6.5.85l1.35-1.8Q3.4-2.5 3.6-2.25L1.75-.6" fill="#1d1a16" fill-opacity=".102" fill-rule="evenodd" transform="translate(4.2 7.8)"/><path d="M-3.4.05-.65.5q1.1.3 1.4.75Q.3.9-3.4.05m.75.75L-4 .5l2.55.35q1.6.45 1.3.85-1.1-.6-2.5-.9M-.9.1l-1.9-.35 2.25.3q2.1.55 2 .85L-.9.1M.85-1.55l-.35-.4.75.5Q1.6-1 1.2-.6l-.35-.95m.25-.75.8.55q.2.35 0 .8.1-.4-.8-1.35m1 .2-.5-.45q.55.15.7.4.45.6.15.95l-.35-.9M-1-1.8q.05.8-.05 1-.2.35-.65.35.35-.1.7-1.35m-.75.15.2-.45q.05.75-.05.9-.25.55-.8.3.55-.3.65-.75m1.1.8.15-.65v.8q-.35.7-.7.6l.55-.75" fill="#1d1a16" fill-opacity=".102" fill-rule="evenodd" transform="translate(4.2 7.8)"/><path d="M.6-7.6v.4L.3-5.45l-2.95 4.7 1.3-2.7.05-.45L.6-7.6M.35-6.4l-.25.2-.15.7.2-.3.2-.6" fill="#b6b3af" fill-rule="evenodd" transform="translate(4.2 7.8)"/></g><linearGradient id="i" x1="-819.2" x2="819.2" gradientTransform="matrix(.0027 .0047 -.0192 .0111 -225.4 108)" gradientUnits="userSpaceOnUse"><stop stop-color="#7e725c" offset="0"/><stop stop-color="#5c5345" offset="1"/></linearGradient><linearGradient id="j" x1="-819.2" x2="819.2" gradientTransform="matrix(-.01 -.0058 .0051 -.0089 -225.6 -54.65)" gradientUnits="userSpaceOnUse"><stop stop-color="#8ea530" offset="0"/><stop stop-color="#5c5345" offset="1"/></linearGradient><linearGradient id="k" x1="-819.2" x2="819.2" gradientTransform="matrix(.0618 -.0165 .0081 .0304 -91.3 -29.2)" gradientUnits="userSpaceOnUse"><stop stop-color="#929441" offset="0"/><stop stop-color="#8ea530" offset="0"/><stop stop-color="#595527" offset="1"/></linearGradient><linearGradient id="o" x1="-819.2" x2="819.2" gradientTransform="matrix(.0082 -.0306 .0391 .0105 -171.6 -4.3)" gradientUnits="userSpaceOnUse"><stop stop-color="#7a705a" offset="0"/><stop stop-color="#999871" offset=".533"/><stop stop-color="#7a705a" offset="1"/></linearGradient><linearGradient id="p" x1="-819.2" x2="819.2" gradientTransform="matrix(.0218 0 0 .0087 -153.9 36)" gradientUnits="userSpaceOnUse"><stop stop-color="#615847" offset="0"/><stop stop-color="#8ea530" offset="1"/></linearGradient><path d="M3.3.9q-2.15 9-2.65 9Q0 9.9 0 9.2l1.05-4.65Q2.2 0 2.75 0q.65 0 .55.9m1.35 2.05Q2 11.1 1.25 11.1l-.45-.15-.05-.4q0-.5 1.3-3.65l2.2-4.5q.4.2.4.55m.9 5.2q-.8 3.55-1.9 3.55l-.6-.65-.65.5q-.6 0-.6-.85 0-.15 3.15-6.75.65 0 .6.8l-1.6 4.5L5 7.4q.65 0 .55.75" fill="#8d893b" fill-rule="evenodd" id="l"/><path d="M3.5.6Q5-.4 6.15.25q1.15.6 1.3 2.45.1 2-.9 4-1 2.1-2.55 3.1-1.55 1.1-2.7.45T0 7.65q-.05-1.9.9-4Q1.9 1.6 3.5.6" fill="#7e7a72" fill-opacity=".6" fill-rule="evenodd" id="n"/><path d="M14 14q-2.4 2.4-5.8 2.4T2.4 14 0 8.2t2.4-5.8T8.2 0 14 2.4t2.4 5.8T14 14" fill="url(#v)" fill-rule="evenodd" id="u"/><path d="M12.15 6.65q-.7.65-1.7.65t-1.7-.65-.7-1.55.7-1.55 1.7-.65 1.7.65q.75.65.75 1.55t-.75 1.55" fill="#bbb9a5" fill-rule="evenodd" transform="translate(-8.05 -2.9)" id="s"/><path d="m3.85 2.35.7.9q0 .75-1.8.55l-.05.6-.35.15q-.4 0-.35-.6.05-.65-.7-.65-.5.5-.85.5L0 3.15l.15-.6q0-.7.95-.7L.95 1.4q0-.75 1-.4l.3-1 .45 1.3.65-.05q1.05 0 .9.6l-.4.5" fill="#b6b3af" fill-opacity=".8" fill-rule="evenodd" id="y"/><use width="5.55" height="11.7" xlink:href="#l" id="c"/><use width="7.45" height="10.5" xlink:href="#n" id="m"/><use width="35.4" height="35.4" xlink:href="#t" id="q"/><use width="16.4" height="16.4" xlink:href="#u" id="r"/><use width="4.55" height="4.55" xlink:href="#y" id="x"/><radialGradient id="v" cx="0" cy="0" r="819.2" gradientTransform="matrix(.011 0 0 .011 8.2 8.2)" gradientUnits="userSpaceOnUse"><stop stop-color="#b7b891" offset="0"/><stop stop-color="#bbb9a5" stop-opacity="0" offset="1"/></radialGradient></defs></svg>