<svg viewBox="0 0 349.43 280.79" xmlns="http://www.w3.org/2000/svg" xmlns:xlink="http://www.w3.org/1999/xlink"><use transform="rotate(25.057 283.379 304.432) scale(.9977)" width="224.05" height="398.1" xlink:href="#a"/><defs><g id="a" transform="translate(269.75 211.2)"><use transform="translate(-241.15 -51.65)" width="117.05" height="203.4" xlink:href="#b"/><use transform="matrix(.5774 0 0 .6586 -144.49 -55.629)" width="46.15" height="26.05" xlink:href="#c"/><use transform="matrix(.5774 0 0 .6586 -150.94 -42.579)" width="46.15" height="26.05" xlink:href="#c"/><use transform="matrix(.5774 0 0 .6586 -158.99 -29.379)" width="46.15" height="26.05" xlink:href="#c"/><use transform="matrix(.5774 0 0 .6586 -165.44 -16.329)" width="46.15" height="26.05" xlink:href="#c"/><use transform="matrix(.5774 0 0 .6586 -170.79 -3.78)" width="46.15" height="26.05" xlink:href="#c"/><use transform="matrix(.5774 0 0 .6586 -177.24 9.27)" width="46.15" height="26.05" xlink:href="#c"/><use transform="matrix(.5774 0 0 .6586 -214.09 75.221)" width="46.15" height="26.05" xlink:href="#c"/><use transform="matrix(.5774 0 0 .6586 -220.54 88.271)" width="46.15" height="26.05" xlink:href="#c"/><use transform="matrix(.5774 0 0 .6586 -225.89 100.82)" width="46.15" height="26.05" xlink:href="#c"/><use transform="matrix(.5774 0 0 .6586 -232.34 113.87)" width="46.15" height="26.05" xlink:href="#c"/><use transform="matrix(.5774 0 0 .6586 -240.39 127.07)" width="46.15" height="26.05" xlink:href="#c"/><use transform="matrix(.5774 0 0 .6586 -246.84 140.12)" width="46.15" height="26.05" xlink:href="#c"/><use transform="matrix(.114 1.1202 .9059 -.6493 -204.86 66.09)" width="13.15" height="33.95" xlink:href="#d"/><use transform="matrix(.114 1.1202 .8342 -.5488 -193.44 46.869)" width="13.15" height="33.95" xlink:href="#d"/><use transform="matrix(.114 1.1202 .8612 -.2832 -184.25 25.766)" width="13.15" height="33.95" xlink:href="#d"/><use transform="matrix(.1234 1.2125 .9186 -.4399 -215.58 80.713)" width="13.15" height="33.95" xlink:href="#d"/><use transform="translate(-148.3 -122.4)" width="67.35" height="92.9" xlink:href="#e"/><use transform="translate(-150.29 -70.278) scale(.7139)" width="35.4" height="36.9" xlink:href="#f"/><use transform="translate(-133.79 -103.58) scale(.7139)" width="35.4" height="36.9" xlink:href="#f"/><use transform="matrix(1.4454 .7947 -.7947 1.4454 -131.33 -159.52)" width="59.15" height="77.75" xlink:href="#g"/><use transform="matrix(1.1909 .3307 -.693 1.3541 -93.061 -171.23)" width="30.45" height="57.05" xlink:href="#h"/><use transform="matrix(.4788 .133 -.693 1.3541 -60.263 -211.22)" width="30.45" height="57.05" xlink:href="#h"/><use transform="translate(-102.5 -162.95)" width="36.4" height="35.05" xlink:href="#i"/><use transform="matrix(.8356 -.1108 .0303 1.0043 -269.75 99.842)" width="67.75" height="86.7" xlink:href="#j"/></g><g id="b"><path d="m-124.6-45.85-106.3 197.1-9.75-5.3 106.3-197.1 9.75 5.3" fill="#302a23" fill-rule="evenodd" transform="translate(241.15 51.65)"/><path d="m-124.6-45.85-106.3 197.1-9.75-5.3 106.3-197.1z" fill="none" stroke="#000" stroke-linecap="round" stroke-linejoin="round" stroke-opacity=".102" transform="translate(241.15 51.65)"/></g><g id="k"><path d="M43.35 1.25h1.25q2.5 7.15-6.5 14.25-10.05 9.5-24.85 8.95-2.5-11.6 18.25-24l11.85.8" fill="#302a23" fill-rule="evenodd" transform="translate(.5 .5)"/><path d="M31.5.45q-20.75 12.4-18.25 24-5.7-.25-12.05-1.9L.7 23.6Q-2.15 16 7 9.25q11.05-8.2 24.5-8.8" fill="#4d4338" fill-rule="evenodd" transform="translate(.5 .5)"/><path d="M43.35 1.25 31.5.45q-20.75 12.4-18.25 24 14.8.55 24.85-8.95 9-7.1 6.5-14.25M31.5.45l.3-.45M.7 23.6Q-2.15 16 7 9.25q11.05-8.2 24.5-8.8m-18.25 24q-5.7-.25-12.05-1.9m11.55 2.5.5-.6" fill="none" stroke="#000" stroke-linecap="round" stroke-linejoin="round" stroke-opacity=".102" transform="translate(.5 .5)"/><path d="M7.25 20.2q-.8 1.05-1.95 1.05T3.35 20.2q-.8-1-.8-2.5 0-1.45.8-2.5.8-1 4.8-3.95 4-3 1.95.9t-2.05 5.5q0 1.55-.8 2.55" fill="#695b4c" fill-rule="evenodd" transform="translate(.5 .5)"/></g><g id="l"><path d="M8.7 9.35Q11 15 10.6 23.25l-9.45 10q1.6-2.65 2-6.1.4-3.95-.75-8.9l6.3-8.9" fill="#c2c2b0" fill-rule="evenodd" transform="translate(2 .2)"/><path d="M4.15 3.4q-.7 0-1.25.95-.5.95-.6 2.3-.05 1.35.4 2.3t1.15.95 1.2-.95.6-2.3q.05-1.35-.4-2.3-.4-.95-1.1-.95M-1.5 9.85 4.95.3 8.7 9.35l-6.3 8.9-2.85-6.15-1.05-2.25" fill="#ffffe8" fill-rule="evenodd" transform="translate(2 .2)"/><path d="M3.15 27.15q-1.3-6.75-4.9-12.9l.95-2 .35-.15 2.85 6.15q1.15 4.95.75 8.9" fill="#c2c2b0" fill-opacity=".6" fill-rule="evenodd" transform="translate(2 .2)"/><path d="M4.15 3.4q.7 0 1.1.95.45.95.4 2.3-.1 1.35-.6 2.3t-1.2.95-1.15-.95-.4-2.3q.1-1.35.6-2.3.55-.95 1.25-.95" fill="#fff" fill-rule="evenodd" transform="translate(2 .2)"/><path d="M-1.5 9.85 4.95.3 8.7 9.35Q11 15 10.6 23.25l-9.45 10M8.7 9.35l-6.3 8.9" fill="none" stroke="#739a3d" stroke-linecap="round" stroke-linejoin="round" stroke-opacity=".102" transform="translate(2 .2)"/><path d="M-.45 12.1-1.5 9.85m3.9 8.4L-.45 12.1" fill="none" stroke="#c2c2b0" stroke-linecap="round" stroke-linejoin="round" stroke-opacity=".6" transform="translate(2 .2)"/><path d="M1.15 33.25q1.6-2.65 2-6.1m-.75-8.9q1.15 4.95.75 8.9" fill="none" stroke="#808074" stroke-linecap="round" stroke-linejoin="round" stroke-opacity=".302" transform="translate(2 .2)"/></g><g id="e"><path d="m-94.25-115.55 12.8-1.1-37.5 81.1-17.55 5.3-.25-.3 42.5-85" fill="#111b1e" fill-opacity=".953" fill-rule="evenodd" transform="translate(148.3 122.4)"/><path d="m-116.55-113.65 22.3-1.9-42.5 85-11.05-12.5 31.25-70.6" fill="#2c4248" fill-opacity=".953" fill-rule="evenodd" transform="translate(148.3 122.4)"/><path d="m-112.95-121.9-3.6 8.25 22.3-1.9 12.8-1.1-37.5 81.1-17.55 5.3-.25-.3-.3.55m20.5-83.65-31.25 70.6 11.05 12.5 42.5-85" fill="none" stroke="#000" stroke-linecap="round" stroke-linejoin="round" stroke-opacity=".102" transform="translate(148.3 122.4)"/></g><g id="f" transform="translate(.05 2)"><use transform="translate(-.05 -.5)" width="35.4" height="35.4" xlink:href="#m"/><use transform="matrix(.866 -.5 .4299 .7446 1.4 6.2)" width="16.4" height="16.4" xlink:href="#n"/><use transform="translate(8.05 2.9)" width="4.85" height="4.4" xlink:href="#o"/></g><g id="p"><path d="M28.6 17.65q0 4.8-3.35 8.15t-8.15 3.35q-4.75 0-8.1-3.35t-2.8-4.45q.5-1.15 13.65-4.45Q8.3 10.25 9 9.55q3.35-3.35 8.1-3.35 4.8 0 8.15 3.35t3.35 8.1" fill="#1f8fc7" fill-opacity=".8" fill-rule="evenodd" transform="translate(.5 .5)"/><path d="M20.1.25q5.25.8 9.25 4.8Q34.4 10.1 34.4 17.2t-5.05 12.15Q24.7 34 18.25 34.4 34.75 21.9 20.1.25" fill="#176891" fill-opacity=".8" fill-rule="evenodd" transform="translate(.5 .5)"/><path d="M18.25 34.4H17.2q-7.1 0-12.15-5.05T0 17.2 5.05 5.05 17.2 0l2.9.25Q34.75 21.9 18.25 34.4" fill="#1f8fc7" fill-opacity=".8" fill-rule="evenodd" transform="translate(.5 .5)"/><path d="M20.1.25q5.25.8 9.25 4.8Q34.4 10.1 34.4 17.2t-5.05 12.15Q24.7 34 18.25 34.4H17.2q-7.1 0-12.15-5.05T0 17.2 5.05 5.05 17.2 0z" fill="none" stroke="#17170c" stroke-linecap="round" stroke-linejoin="round" stroke-opacity=".251" transform="translate(.5 .5)"/><path d="m26.7 14.85 3.1-.95m-7.35-4.65L23.9 5.6m-8.15 2.65-1.7-3.7" fill="none" stroke="#abe3ff" stroke-linecap="round" stroke-linejoin="round" stroke-opacity=".2" transform="translate(.5 .5)"/><path d="M1.55 13.9h.1q1.35 4.35 2 5.4 2 3.6 6 3.6l2.4-.3 2.5-.3q1.5 0 2.2.6 1 .85 1 3.1t-1.4 3.9q-1.5 1.8-3.8 1.8-3.55 0-7-4.6-4-5.35-4-13.2" fill="#29b8ff" fill-rule="evenodd" transform="translate(.5 .5)"/><path d="M28.6 16.4q.45-8.35-5.9-14.15 3.5 2.25 6.8 6.15l.35.35q5.45 7.4 0 17.1L28.5 28q-3.8 3.25-6.9 3.85 6.5-7.15 7-15.45" fill="#176891" fill-rule="evenodd" transform="translate(.5 .5)"/></g><g id="g" transform="translate(3.2 .5)"><use transform="translate(-.5 -.5)" width="56.45" height="77.75" xlink:href="#s"/><use transform="matrix(.3982 0 0 .8514 -3.2 26.062)" width="56" height="56" xlink:href="#t"/></g><g id="s" fill-rule="evenodd"><path d="M38.25 2.55q2.2 1.25 4.15 3.2 5.8 5.8 5.8 14 0 4.7-1.9 8.65l1.05 1q8.15 8.15 8.15 19.65t-8.15 19.6q-6.75 6.75-14.85 7.8Q.25 62 15.45 35.15q-2.8-10.3 2.75-18.6l.75-1.05Q25.8 6 37.5 2.75l.75-.2m-14.7 25.7.25.55q4.9 8 10.1 8.55Q25.95 25.1 35.2 17q-17.6-2.6-11.65 11.25" fill="#fffff5" fill-opacity=".6" transform="translate(.5 .5)"/><path d="m32.5 76.45-4.75.35q-11.5 0-19.65-8.15-3.8-3.8-5.8-8.35Q0 55.15 0 49.05q0-11.5 8.1-19.65l1.25-1.15.25-.2.25.2.1.15 1.15.9Q8.7 25 8.7 19.75q0-2.2.45-4.25 1.1-5.5 5.3-9.75Q20.25 0 28.45 0q5 0 9.05 2.15l.75.4-.75.2Q25.8 6 18.95 15.5l-.75 1.05q-5.55 8.3-2.75 18.6Q.25 62 32.5 76.45m-8.95-48.2Q17.6 14.4 35.2 17q-9.25 8.1-1.3 20.35-5.2-.55-10.1-8.55l-.25-.55" fill="#fff" fill-opacity=".902" transform="translate(.5 .5)"/><path d="m27.85-.5.35.15.15.35-.15.35-.35.15-.35-.15-.15-.35.15-.35.35-.15m4.1.25.35.15.15.35-.15.35-.35.15L31.6.6l-.15-.35q0-.2.15-.35l.35-.15m10.4 5.95q.15-.15.35-.15l.35.15.15.35-.15.35-.35.15-.35-.15-.15-.35.15-.35m2.9 3.05.35.15.15.35-.15.35-.35.15-.35-.15-.15-.35.15-.35q.15-.15.35-.15m1.45 3.75.35-.15.35.15.15.35-.15.35-.35.15-.35-.15-.15-.35.15-.35m1.3 3.7q.2 0 .35.15l.15.35-.15.35-.35.15-.35-.15-.15-.35q0-.2.15-.35t.35-.15m.7 4.5-.15.35-.35.15-.35-.15-.15-.35q0-.2.15-.35t.35-.15.35.15l.15.35m-.7 3.55.15.35-.15.35-.35.15-.35-.15-.15-.35.15-.35.35-.15.35.15m4.05 11.5q.15-.15.35-.15t.35.15l.15.35-.15.35-.35.15-.35-.15-.15-.35q0-.2.15-.35M46.8 28.4l-.15.35-.35.15h-.05l.05.2-.15.35-.35.15-.35-.15-.15-.35.15-.35q.15-.15.35-.15h.05l-.05-.2.15-.35q.15-.15.35-.15l.35.15.15.35m.6 1.05q.15-.15.35-.15t.35.15l.15.35-.15.35-.35.15-.35-.15-.15-.35.15-.35m-3.75 2.6.15.35-.15.35-.35.15-.35-.15-.15-.35.15-.35.35-.15.35.15m-2.95 3.5-.35.15-.35-.15-.15-.35q0-.2.15-.35t.35-.15l.35.15.15.35-.15.35m9.9-3.1.15.35-.15.35-.35.15-.35-.15-.15-.35.15-.35q.15-.15.35-.15l.35.15m3.05 6.95q.15-.15.35-.15l.35.15.15.35-.15.35-.35.15-.35-.15-.15-.35q0-.2.15-.35m1.7 3.8.15.35-.15.35-.35.15-.35-.15-.15-.35.15-.35.35-.15.35.15m.1 3.75.35.15.15.35-.15.35-.35.15-.35-.15-.15-.35.15-.35.35-.15M39.55 2.9l.35.15.15.35-.15.35-.35.15-.35-.15-.15-.35.15-.35q.15-.15.35-.15m-3.2-1.55-.15.35-.35.15-.35-.15-.15-.35q0-.2.15-.35t.35-.15.35.15l.15.35m-15.7.35-.15.35-.35.15-.35-.15-.15-.35.15-.35q.15-.15.35-.15l.35.15.15.35m2.9-1.6.35-.15.35.15.15.35-.15.35-.35.15-.35-.15-.15-.35q0-.2.15-.35M28 16.4l.15.35-.15.35-.35.15-.35-.15-.15-.35q0-.2.15-.35t.35-.15.35.15m-4.3 1.3q.15-.15.35-.15t.35.15l.15.35-.15.35-.35.15-.35-.15-.15-.35q0-.2.15-.35m-1.95 3.35.35-.15q.2 0 .35.15l.15.35-.15.35-.35.15-.35-.15-.15-.35.15-.35M35.7 17l-.15.35-.35.15-.35-.15-.15-.35.15-.35q.15-.15.35-.15l.35.15.15.35m-4.6-.75q.15-.15.35-.15l.35.15.15.35-.15.35-.35.15-.35-.15-.15-.35.15-.35M16.45 3.4q.15-.15.35-.15l.35.15.15.35-.15.35-.35.15-.35-.15-.15-.35q0-.2.15-.35m-2.5 2.35.35.15.15.35-.15.35-.35.15q-.2 0-.35-.15l-.15-.35.15-.35q.15-.15.35-.15m-2 3.3.15.35-.15.35-.35.15-.35-.15-.15-.35.15-.35.35-.15q.2 0 .35.15m-2.45 3.5.35-.15.35.15.15.35-.15.35-.35.15-.35-.15-.15-.35.15-.35m-.95 4.1q.15-.15.35-.15t.35.15l.15.35-.15.35-.35.15-.35-.15L8.4 17l.15-.35m.55 4.05.15.35-.15.35-.35.15-.35-.15-.15-.35q0-.2.15-.35t.35-.15.35.15m.25 3.85q.2 0 .35.15l.15.35-.15.35-.35.15L9 25.4l-.15-.35q0-.2.15-.35t.35-.15m1.3 4.2q.15-.15.35-.15t.35.15l.15.35-.15.35-.35.15-.35-.15-.15-.35.15-.35m-1.05-1.2q.2 0 .35.15l.15.35-.15.35-.35.15-.35-.15-.15-.35q0-.2.15-.35t.35-.15M6.4 30.5q.15-.15.35-.15l.35.15.15.35-.15.35-.35.15-.35-.15-.15-.35q0-.2.15-.35M4 33.65q.15-.15.35-.15t.35.15l.15.35-.15.35-.35.15-.35-.15-.15-.35q0-.2.15-.35M2.9 37.5l-.15.35-.35.15q-.2 0-.35-.15l-.15-.35.15-.35Q2.2 37 2.4 37l.35.15.15.35M.65 40.95q.15-.15.35-.15l.35.15.15.35-.15.35-.35.15-.35-.15-.15-.35.15-.35m-.15 8.5-.15.35-.35.15-.35-.15-.15-.35.15-.35.35-.15.35.15.15.35m.2-4.1-.15.35-.35.15-.35-.15-.15-.35.15-.35q.15-.15.35-.15l.35.15.15.35m32.45-8.55.15.35-.15.35-.35.15-.35-.15-.15-.35.15-.35.35-.15.35.15m4-.1.15.35-.15.35-.35.15-.35-.15-.15-.35.15-.35.35-.15q.2 0 .35.15M22.9 25.8l-.35.15-.35-.15-.15-.35.15-.35q.15-.15.35-.15t.35.15l.15.35-.15.35m.85 3.05q.15-.15.35-.15l.35.15.15.35-.15.35-.35.15-.35-.15-.15-.35.15-.35m3 3.2.15.35-.15.35-.35.15-.35-.15-.15-.35q0-.2.15-.35t.35-.15.35.15m2.1 2.85.35-.15.35.15.15.35-.15.35-.35.15-.35-.15-.15-.35.15-.35M.7 53.1l.15.35-.15.35-.35.15L0 53.8l-.15-.35.15-.35q.15-.15.35-.15t.35.15m.55 3.85.35.15.15.35-.15.35-.35.15-.35-.15-.15-.35.15-.35q.15-.15.35-.15m1.2 4q.15-.15.35-.15l.35.15.15.35-.15.35-.35.15-.35-.15-.15-.35.15-.35m4.6 6.65.35-.15q.2 0 .35.15l.15.35-.15.35-.35.15-.35-.15-.15-.35.15-.35M5.2 65.1l-.35.15-.35-.15-.15-.35.15-.35q.15-.15.35-.15l.35.15.15.35-.15.35m5.85 5.75-.15.35-.35.15-.35-.15-.15-.35.15-.35.35-.15q.2 0 .35.15l.15.35m2.45 1.95q.15-.15.35-.15l.35.15.15.35-.15.35-.35.15-.35-.15-.15-.35.15-.35m3.6 1.8q.15-.15.35-.15l.35.15.15.35-.15.35-.35.15-.35-.15-.15-.35.15-.35m19.8.35q.15-.15.35-.15t.35.15l.15.35-.15.35-.35.15-.35-.15-.15-.35.15-.35M33.65 76l.15.35-.15.35-.35.15-.35-.15-.15-.35q0-.2.15-.35t.35-.15.35.15m-4.75.4q.15-.15.35-.15l.35.15.15.35-.15.35-.35.15-.35-.15-.15-.35.15-.35m-3.3.65-.35.15-.35-.15-.15-.35.15-.35.35-.15q.2 0 .35.15l.15.35-.15.35m-4-1.3.15.35-.15.35-.35.15-.35-.15-.15-.35.15-.35.35-.15.35.15M55.9 51.5l-.15.35-.35.15-.35-.15-.15-.35q0-.2.15-.35t.35-.15.35.15l.15.35m-1.4 3.55.35-.15.35.15.15.35-.15.35-.35.15-.35-.15-.15-.35.15-.35m-1.15 3.75q.15-.15.35-.15t.35.15l.15.35-.15.35-.35.15-.35-.15-.15-.35q0-.2.15-.35m-3.95 6.85.35-.15.35.15.15.35-.15.35-.35.15-.35-.15-.15-.35.15-.35m-5.1 5.2.35.15.15.35-.15.35-.35.15-.35-.15-.15-.35.15-.35q.15-.15.35-.15m-2.9 2.8-.15.35-.35.15-.35-.15-.15-.35.15-.35q.15-.15.35-.15l.35.15.15.35m5.4-5.15q.15-.15.35-.15t.35.15l.15.35-.15.35-.35.15-.35-.15-.15-.35q0-.2.15-.35m4.85-6.15q.15-.15.35-.15l.35.15.15.35-.15.35-.35.15-.35-.15-.15-.35.15-.35" fill="#759eb5" fill-opacity=".463" transform="translate(.5 .5)"/><path d="m27.85-.5.35.15.15.35-.15.35-.35.15-.35-.15-.15-.35.15-.35.35-.15m4.1.25.35.15.15.35-.15.35-.35.15L31.6.6l-.15-.35q0-.2.15-.35l.35-.15m10.4 5.95q.15-.15.35-.15l.35.15.15.35-.15.35-.35.15-.35-.15-.15-.35.15-.35m2.9 3.05.35.15.15.35-.15.35-.35.15-.35-.15-.15-.35.15-.35q.15-.15.35-.15m1.45 3.75.35-.15.35.15.15.35-.15.35-.35.15-.35-.15-.15-.35.15-.35m1.3 3.7q.2 0 .35.15l.15.35-.15.35-.35.15-.35-.15-.15-.35q0-.2.15-.35t.35-.15m.7 4.5-.15.35-.35.15-.35-.15-.15-.35q0-.2.15-.35t.35-.15.35.15l.15.35m-.7 3.55.15.35-.15.35-.35.15-.35-.15-.15-.35.15-.35.35-.15.35.15m4.05 11.5q.15-.15.35-.15t.35.15l.15.35-.15.35-.35.15-.35-.15-.15-.35q0-.2.15-.35M46.8 28.4l-.15.35-.35.15h-.05l.05.2-.15.35-.35.15-.35-.15-.15-.35.15-.35q.15-.15.35-.15h.05l-.05-.2.15-.35q.15-.15.35-.15l.35.15.15.35m.6 1.05q.15-.15.35-.15t.35.15l.15.35-.15.35-.35.15-.35-.15-.15-.35.15-.35m-3.75 2.6.15.35-.15.35-.35.15-.35-.15-.15-.35.15-.35.35-.15.35.15m-2.95 3.5-.35.15-.35-.15-.15-.35q0-.2.15-.35t.35-.15l.35.15.15.35-.15.35m9.9-3.1.15.35-.15.35-.35.15-.35-.15-.15-.35.15-.35q.15-.15.35-.15l.35.15m3.05 6.95q.15-.15.35-.15l.35.15.15.35-.15.35-.35.15-.35-.15-.15-.35q0-.2.15-.35m1.7 3.8.15.35-.15.35-.35.15-.35-.15-.15-.35.15-.35.35-.15.35.15m.1 3.75.35.15.15.35-.15.35-.35.15-.35-.15-.15-.35.15-.35.35-.15M39.55 2.9l.35.15.15.35-.15.35-.35.15-.35-.15-.15-.35.15-.35q.15-.15.35-.15m-3.2-1.55-.15.35-.35.15-.35-.15-.15-.35q0-.2.15-.35t.35-.15.35.15l.15.35m-15.7.35-.15.35-.35.15-.35-.15-.15-.35.15-.35q.15-.15.35-.15l.35.15.15.35m2.9-1.6.35-.15.35.15.15.35-.15.35-.35.15-.35-.15-.15-.35q0-.2.15-.35M28 16.4l.15.35-.15.35-.35.15-.35-.15-.15-.35q0-.2.15-.35t.35-.15.35.15m-4.3 1.3q.15-.15.35-.15t.35.15l.15.35-.15.35-.35.15-.35-.15-.15-.35q0-.2.15-.35m-1.95 3.35.35-.15q.2 0 .35.15l.15.35-.15.35-.35.15-.35-.15-.15-.35.15-.35M35.7 17l-.15.35-.35.15-.35-.15-.15-.35.15-.35q.15-.15.35-.15l.35.15.15.35m-4.6-.75q.15-.15.35-.15l.35.15.15.35-.15.35-.35.15-.35-.15-.15-.35.15-.35M16.45 3.4q.15-.15.35-.15l.35.15.15.35-.15.35-.35.15-.35-.15-.15-.35q0-.2.15-.35m-2.5 2.35.35.15.15.35-.15.35-.35.15q-.2 0-.35-.15l-.15-.35.15-.35q.15-.15.35-.15m-2 3.3.15.35-.15.35-.35.15-.35-.15-.15-.35.15-.35.35-.15q.2 0 .35.15m-2.45 3.5.35-.15.35.15.15.35-.15.35-.35.15-.35-.15-.15-.35.15-.35m-.95 4.1q.15-.15.35-.15t.35.15l.15.35-.15.35-.35.15-.35-.15L8.4 17l.15-.35m.55 4.05.15.35-.15.35-.35.15-.35-.15-.15-.35q0-.2.15-.35t.35-.15.35.15m.25 3.85q.2 0 .35.15l.15.35-.15.35-.35.15L9 25.4l-.15-.35q0-.2.15-.35t.35-.15m1.3 4.2q.15-.15.35-.15t.35.15l.15.35-.15.35-.35.15-.35-.15-.15-.35.15-.35m-1.05-1.2q.2 0 .35.15l.15.35-.15.35-.35.15-.35-.15-.15-.35q0-.2.15-.35t.35-.15M6.4 30.5q.15-.15.35-.15l.35.15.15.35-.15.35-.35.15-.35-.15-.15-.35q0-.2.15-.35M4 33.65q.15-.15.35-.15t.35.15l.15.35-.15.35-.35.15-.35-.15-.15-.35q0-.2.15-.35M2.9 37.5l-.15.35-.35.15q-.2 0-.35-.15l-.15-.35.15-.35Q2.2 37 2.4 37l.35.15.15.35M.65 40.95q.15-.15.35-.15l.35.15.15.35-.15.35-.35.15-.35-.15-.15-.35.15-.35m-.15 8.5-.15.35-.35.15-.35-.15-.15-.35.15-.35.35-.15.35.15.15.35m.2-4.1-.15.35-.35.15-.35-.15-.15-.35.15-.35q.15-.15.35-.15l.35.15.15.35m32.45-8.55.15.35-.15.35-.35.15-.35-.15-.15-.35.15-.35.35-.15.35.15m4-.1.15.35-.15.35-.35.15-.35-.15-.15-.35.15-.35.35-.15q.2 0 .35.15M22.9 25.8l-.35.15-.35-.15-.15-.35.15-.35q.15-.15.35-.15t.35.15l.15.35-.15.35m.85 3.05q.15-.15.35-.15l.35.15.15.35-.15.35-.35.15-.35-.15-.15-.35.15-.35m3 3.2.15.35-.15.35-.35.15-.35-.15-.15-.35q0-.2.15-.35t.35-.15.35.15m2.1 2.85.35-.15.35.15.15.35-.15.35-.35.15-.35-.15-.15-.35.15-.35M.7 53.1l.15.35-.15.35-.35.15L0 53.8l-.15-.35.15-.35q.15-.15.35-.15t.35.15m.55 3.85.35.15.15.35-.15.35-.35.15-.35-.15-.15-.35.15-.35q.15-.15.35-.15m1.2 4q.15-.15.35-.15l.35.15.15.35-.15.35-.35.15-.35-.15-.15-.35.15-.35m4.6 6.65.35-.15q.2 0 .35.15l.15.35-.15.35-.35.15-.35-.15-.15-.35.15-.35M5.2 65.1l-.35.15-.35-.15-.15-.35.15-.35q.15-.15.35-.15l.35.15.15.35-.15.35m5.85 5.75-.15.35-.35.15-.35-.15-.15-.35.15-.35.35-.15q.2 0 .35.15l.15.35m2.45 1.95q.15-.15.35-.15l.35.15.15.35-.15.35-.35.15-.35-.15-.15-.35.15-.35m3.6 1.8q.15-.15.35-.15l.35.15.15.35-.15.35-.35.15-.35-.15-.15-.35.15-.35m19.8.35q.15-.15.35-.15t.35.15l.15.35-.15.35-.35.15-.35-.15-.15-.35.15-.35M33.65 76l.15.35-.15.35-.35.15-.35-.15-.15-.35q0-.2.15-.35t.35-.15.35.15m-4.75.4q.15-.15.35-.15l.35.15.15.35-.15.35-.35.15-.35-.15-.15-.35.15-.35m-3.3.65-.35.15-.35-.15-.15-.35.15-.35.35-.15q.2 0 .35.15l.15.35-.15.35m-4-1.3.15.35-.15.35-.35.15-.35-.15-.15-.35.15-.35.35-.15.35.15M55.9 51.5l-.15.35-.35.15-.35-.15-.15-.35q0-.2.15-.35t.35-.15.35.15l.15.35m-1.4 3.55.35-.15.35.15.15.35-.15.35-.35.15-.35-.15-.15-.35.15-.35m-1.15 3.75q.15-.15.35-.15t.35.15l.15.35-.15.35-.35.15-.35-.15-.15-.35q0-.2.15-.35m-3.95 6.85.35-.15.35.15.15.35-.15.35-.35.15-.35-.15-.15-.35.15-.35m-5.1 5.2.35.15.15.35-.15.35-.35.15-.35-.15-.15-.35.15-.35q.15-.15.35-.15m-2.9 2.8-.15.35-.35.15-.35-.15-.15-.35.15-.35q.15-.15.35-.15l.35.15.15.35m5.4-5.15q.15-.15.35-.15t.35.15l.15.35-.15.35-.35.15-.35-.15-.15-.35q0-.2.15-.35m4.85-6.15q.15-.15.35-.15l.35.15.15.35-.15.35-.35.15-.35-.15-.15-.35.15-.35" fill="#759eb5" fill-opacity=".463" transform="translate(.5 .5)"/></g><g id="h" transform="translate(1.05 1.5)"><use transform="translate(-.5 -.5)" width="29.9" height="56.05" xlink:href="#w"/><use transform="matrix(.3729 0 0 .4589 -1.04 -1.5)" width="56" height="56" xlink:href="#x"/></g><g id="w"><path d="m27.75 7.5-10.4 17.8-.35.5L0 14.75 11 0l16.75 7.5" fill="#9fe2f5" fill-rule="evenodd" transform="translate(.5 .5)"/><path d="m17.4 25.8 2.5 27.75-.65 1.05-15.9-10.05.15-.25L0 14.75 17 25.8h.4" fill="url(#y)" fill-rule="evenodd" transform="translate(.5 .5)"/><path d="M27.75 7.5h.75v31.05l.4.25-9 14.75-2.5-27.75-.05-.5 10.4-17.8" fill="url(#z)" fill-rule="evenodd" transform="translate(.5 .5)"/><path d="m27.75 7.5-10.4 17.8.05.5 2.5 27.75 9-14.75m-.4-.25V7.5M0 14.75 11 0l16.75 7.5m-10.4 17.8-.35.5L0 14.75 3.5 44.3m15.75 10.3.65-1.05.1 1.5-.75-.45" fill="none" stroke="#7a705a" stroke-linecap="round" stroke-linejoin="round" stroke-opacity=".102" transform="translate(.5 .5)"/><path d="m.3 16.85 7.2 4.35Q3 28.1 3.25 42.05L.3 16.85" fill="#42bcde" fill-rule="evenodd" transform="translate(.5 .5)"/><path d="m13.6 3.25 9.5 4.5q-9 5.05-10.1 13.8l-8.6-5.5q7.35-5.5 9.2-12.8" fill="#dcedf5" fill-rule="evenodd" transform="translate(.5 .5)"/><path d="m18.7 22.05 7.55-11.65-7.15 13.65v18h-.25l-4.9-19.1.55-.15 4.2-.75" fill="url(#A)" fill-rule="evenodd" transform="translate(.5 .5)"/><path d="m2.9 40.05-3.15-25.3L1.6 15.9l1.9 20.55q.75 6.95-.6 3.6" fill="url(#B)" fill-rule="evenodd" transform="translate(.5 .5)"/></g><g id="i"><path d="m-88.3-157.1 8.4-5.85 5.5 5.9-12.05 26.5v-9.25l-6.45 8.1 4.6-25.4" fill="#294047" fill-opacity=".953" fill-rule="evenodd" transform="translate(102.5 162.95)"/><path d="m-92.95-131.65-.3.2-9.25-14.25.55-1.95 13.65-9.45-4.6 25.4-.05.05" fill="#2e454b" fill-opacity=".953" fill-rule="evenodd" transform="translate(102.5 162.95)"/><path d="m-74.4-157.05 8.3 8.9v.25l-14.05 18.5-6.3 1v-2.15l12.05-26.5" fill="#111b1e" fill-opacity=".953" fill-rule="evenodd" transform="translate(102.5 162.95)"/><path d="m-80.15-129.4-6.3 1v-2.15l-.25.55m-1.6-27.1.1-.7m-4.7 26.1 6.45-8.1v9.25l12.05-26.5m-18.5 25.35-.05.05" fill="none" stroke="#000" stroke-linecap="round" stroke-linejoin="round" stroke-opacity=".102" transform="translate(102.5 162.95)"/></g><g id="j" transform="translate(.4 .55)"><use transform="translate(7.75 35.55)" width="52.85" height="50.6" xlink:href="#E"/><use transform="matrix(.2319 .8657 .6084 .0476 -.42 44.993)" width="40.3" height="33.55" xlink:href="#F"/><use transform="matrix(-.8962 0 -.2034 -.5754 67.35 85.938)" width="40.3" height="33.55" xlink:href="#F"/><use transform="matrix(0 .8962 .5754 .2034 45.662 -.55)" width="40.3" height="33.55" xlink:href="#F"/></g><g id="E"><path d="m32.3 36.55-1.55-.5.6-.05-.05-.2h1v.75m3.45 15.4 1.3-.65-.65 1.05-.65-.4m13.8 2.35 4.25-4.7-.2 4.7.2-4.7 1.4 4.55-1.6.15-4 .4-.05-.4m-13.3 23.9-7.5 7.45-3.75-2.5L27.6 78l-4.9-4.8 5.3 3.95-.4.85 1.4 1.4 6.5-1.95 3.55-2.1-1.5 1.5-2.05.6.75.75m-14-5.35-4.75 4.8L8.25 65.6l6.4-11.9 1.2 7.7.9 5.95 5.55 5.45-.05.05m11.25 5.8 2-1.2-2 1.2" fill="#636055" fill-rule="evenodd" transform="translate(-7.75 -35.55)"/><path d="m30.75 36.05 1.55.5 4.75 14.75-1.3.65-19.2 9.35-.7.1-1.2-7.7L13 43.05l17.75-7m-15.5 16.5-.6 1.15.6-1.15" fill="#6e6550" fill-rule="evenodd" transform="translate(-7.75 -35.55)"/><path d="M32.3 36.55v-.75h9.85l-3.85 6.25 3.75 10.75 7.5 1.5.05.4-8.3.85-4.9-3.2.65-1.05-4.75-14.75" fill="#7f765d" fill-rule="evenodd" transform="translate(-7.75 -35.55)"/><path d="m35.75 51.95.65.4 4.9 3.2 8.3-.85 4-.4 1.6-.15 4.9 16-22.55 6.7 1.5-1.5-3.55 2.1L29 79.4 27.6 78l.4-.85-5.3-3.95-.4-.4-5.55-5.45-.9-5.95.7-.1 19.2-9.35m-1.4 3.65.05-.05.6-1-2.2 1.75 1.2-.55 1-1.2-.6 1-.05.05m18.95 4.2.3-5.5-.3 5.5" fill="#454f51" fill-rule="evenodd" transform="translate(-7.75 -35.55)"/><path d="m34.35 55.6.05-.05.6-1-1 1.2-1.2.55 2.2-1.75-.6 1-.05.05" fill="#a6925b" fill-rule="evenodd" transform="translate(-7.75 -35.55)"/><path d="m30.75 36.05-17.75 7 1.65 10.65.6-1.15m21.8-1.25-1.3.65.65.4 4.9 3.2 8.3-.85 4-.4.2-4.7 1.4 4.55.65-.1m-18.8-2.75L32.3 36.55M53.6 54.3l1.6-.15 4.9 16-22.55 6.7-1.3 1.35-7.5 7.45-3.75-2.5L27.6 78l-4.9-4.8-.45-.35-4.75 4.8L8.25 65.6l6.4-11.9 1.2 7.7.9 5.95 5.55 5.45-.05.05m-5.7-11.55 19.2-9.35M53.6 54.3l-.3 5.5M35.5 77.45l2.05-.6 1.5-1.5-3.55 2.1-2 1.2M22.7 73.2l5.3 3.95-.4.85 1.4 1.4 6.5-1.95M22.7 73.2l-.4-.4" fill="none" stroke="#7a705a" stroke-linecap="round" stroke-linejoin="round" stroke-opacity=".102" transform="translate(-7.75 -35.55)"/></g><g id="G"><path d="m37.95 0 1.35 8.15L26.4 25.5l-2.75-2.75-9.75 9.8-.15-.1L37.95 0" fill="#8d725c" fill-rule="evenodd" transform="translate(.5 .5)"/><path d="M5.2 25.85 4.25 27 0 26.3 22.65.8l15.3-.8-24.2 32.45v.05l-3.6-1.35 2.3-4.4 5.7-11.1-3.9-.9-9.05 11.1-.7-.1.7.1" fill="#79715f" fill-rule="evenodd" transform="translate(.5 .5)"/><path d="m12.45 26.75-7.25-.9 9.05-11.1 3.9.9-5.7 11.1" fill="#79715f" fill-opacity=".8" fill-rule="evenodd" transform="translate(.5 .5)"/><path d="m37.95 0-15.3.8L0 26.3l4.25.7.95-1.15-.7-.1M37.95 0l1.35 8.15L26.4 25.5l-2.75-2.75-9.75 9.8m-.15-.1v.05l-3.6-1.35 2.3-4.4-7.25-.9m8.55 6.6L37.95 0z" fill="none" stroke="#7c725c" stroke-linecap="round" stroke-linejoin="round" stroke-opacity=".102" transform="translate(.5 .5)"/></g><use width="46.15" height="26.05" xlink:href="#k" id="c"/><use width="13.15" height="33.95" xlink:href="#l" id="d"/><use width="35.4" height="35.4" xlink:href="#p" id="m"/><use width="16.4" height="16.4" xlink:href="#q" id="n"/><use width="56" height="56" xlink:href="#u" id="t"/><use width="56" height="56" xlink:href="#C" id="x"/><use width="40.3" height="33.55" xlink:href="#G" id="F"/><radialGradient id="r" cx="0" cy="0" r="819.2" gradientTransform="matrix(.011 0 0 .011 8.2 8.2)" gradientUnits="userSpaceOnUse"><stop stop-color="#f9fede" offset="0"/><stop stop-color="#fff" stop-opacity="0" offset="1"/></radialGradient><radialGradient id="v" cx="0" cy="0" r="819.2" gradientTransform="scale(.0349)" gradientUnits="userSpaceOnUse"><stop stop-color="#ffee69" stop-opacity=".8" offset="0"/><stop stop-color="#fef18a" stop-opacity="0" offset="1"/></radialGradient><radialGradient id="A" cx="0" cy="0" r="819.2" gradientTransform="translate(17 24.5) scale(.0216)" gradientUnits="userSpaceOnUse"><stop stop-color="#dcedf5" offset="0"/><stop stop-color="#dcedf5" offset=".647"/><stop stop-color="#2c5766" stop-opacity="0" offset=".992"/></radialGradient><radialGradient id="B" cx="0" cy="0" r="819.2" gradientTransform="translate(1.5 27.8) scale(.0216)" gradientUnits="userSpaceOnUse"><stop stop-color="#dcedf5" offset="0"/><stop stop-color="#dcedf5" offset=".647"/><stop stop-color="#2c5766" stop-opacity="0" offset=".992"/></radialGradient><radialGradient id="D" cx="0" cy="0" r="819.2" gradientTransform="scale(.0349)" gradientUnits="userSpaceOnUse"><stop stop-color="#fff" stop-opacity=".8" offset="0"/><stop stop-color="#fef18a" stop-opacity="0" offset="1"/></radialGradient><path d="M14 14q-2.4 2.4-5.8 2.4T2.4 14 0 8.2t2.4-5.8T8.2 0 14 2.4t2.4 5.8T14 14" fill="url(#r)" fill-rule="evenodd" id="q"/><path d="M12.15 6.65q-.7.65-1.7.65t-1.7-.65-.7-1.55.7-1.55 1.7-.65 1.7.65q.75.65.75 1.55t-.75 1.55" fill="#fff" fill-rule="evenodd" transform="translate(-8.05 -2.9)" id="o"/><path d="M19.8-19.8Q28-11.6 28 0t-8.2 19.8T0 28t-19.8-8.2T-28 0t8.2-19.8T0-28t19.8 8.2" fill="url(#v)" fill-rule="evenodd" transform="translate(28 28)" id="u"/><path d="M19.8-19.8Q28-11.6 28 0t-8.2 19.8T0 28t-19.8-8.2T-28 0t8.2-19.8T0-28t19.8 8.2" fill="url(#D)" fill-rule="evenodd" transform="translate(28 28)" id="C"/><linearGradient id="y" x1="-819.2" x2="819.2" gradientTransform="matrix(-.0056 .014 -.0226 -.009 9.95 34.6)" gradientUnits="userSpaceOnUse"><stop stop-color="#60c6de" offset=".031"/><stop stop-color="#60c6de" offset=".698"/><stop stop-color="#61c3de" stop-opacity="0" offset=".992"/></linearGradient><linearGradient id="z" x1="-819.2" x2="819.2" gradientTransform="matrix(.0088 .0071 -.0176 .0218 23.4 30.9)" gradientUnits="userSpaceOnUse"><stop stop-color="#376e80" offset="0"/><stop stop-color="#2c5a66" offset=".647"/><stop stop-color="#2c5766" stop-opacity="0" offset=".992"/></linearGradient></defs></svg>