<svg viewBox="0 0 26.57 26.572" xmlns="http://www.w3.org/2000/svg" xmlns:xlink="http://www.w3.org/1999/xlink"><use transform="matrix(-1.0019 0 0 1 26.726 .025)" width="26.65" height="26.55" xlink:href="#a"/><defs><g id="a" transform="translate(11.15 24.25)"><use transform="matrix(-.8056 -.3374 -.082 .9773 -1.835 -17.78)" width="10.45" height="11" xlink:href="#b"/><use transform="translate(5.05 -17.6)" width="10.45" height="11" xlink:href="#b"/><use transform="matrix(.8 0 0 .8 -5.4 -1.8)" width="14.7" height="4.25" xlink:href="#c"/><use transform="matrix(-1 0 0 1 -2.55 -11.8)" width="4.8" height="7.7" xlink:href="#d"/><use transform="translate(-7.56 -4.229) scale(.6538)" width="10.4" height="6.35" xlink:href="#e"/><use transform="translate(-.548 -2.754) scale(.6538)" width="10.6" height="7.7" xlink:href="#f"/><use transform="translate(-7 -13.35)" width="13.85" height="13.7" xlink:href="#g"/><use transform="translate(-6.15 -18.2)" width="11.45" height="3.9" xlink:href="#h"/><use transform="translate(3.2 -9.75)" width="4.8" height="7.7" xlink:href="#d"/><use transform="translate(-6.85 -24.25)" width="12.9" height="16" xlink:href="#i"/><use transform="matrix(-.9038 0 0 1 -1.45 -9.75)" width="5.2" height="3" xlink:href="#j"/></g><g id="k"><path d="M5.65-6.45q3.85 4.25 4 9.95-2.1-.8-1.5-2.2l.2-.3-.2.3q-1.3.35-1.25-.55v-.3l-.25-.1L6.3.3Q5.1-1.3 5.2-4.45q-2.4 3.5-1.75 6.8-.45-1-1.7-1.3Q.45.8 0 1.5.65.45.2-.95q1.95-.5 2.95-2l1.15-2.3.45-2.25.9 1.05M6.9.05v.4-.4" fill="#d9d2c4" fill-rule="evenodd" transform="translate(0 7.5)"/><path d="M3.45 2.35Q2.8-.95 5.2-4.45 5.1-1.3 6.3.3q-.5 1.1-1.25.6L4.8.75q.35 1.15-1 1.1l-.35.5M4.7.45l.1.3-.1-.3m-1.05.75.15.65-.15-.65" fill="#baae94" fill-rule="evenodd" transform="translate(0 7.5)"/><path d="M5.65-6.45 5.6-7.1l.05.65-.9-1.05.85.4q1.45-.6 1.8 1.25 1-.45.95.3v.4l.05.5-.2.6.2-.6Q10.15-4.6 9.5-2q.95-.2.65.5-.3.65-.15.9.75.45 0 1.2.9.7 0 1.3l-.35 1.6q-.15-5.7-4-9.95M9.7.7l.3-.1-.3.1M7.3-5.45l.1-.4-.1.4M9.25-1.8 9.5-2l-.25.2M9.4-.4l.6-.2-.6.2" fill="#e1dcd2" fill-rule="evenodd" transform="translate(0 7.5)"/><path d="M9.65 11 10 9.4q.9-.6 0-1.3.75-.75 0-1.2-.15-.25.15-.9.3-.7-.65-.5.65-2.6-1.1-2.65M4.75 0 4.3 2.25l-1.15 2.3q-1 1.5-2.95 2M0 9q.45-.7 1.75-.45 1.25.3 1.7 1.3l.35-.5q1.35.05 1-1.1m1.5-.45.35.05.25.1m1.45-5.6v-.4q.05-.75-.95-.3Q7.05-.2 5.6.4L4.75 0m3.4 8.8q-.6 1.4 1.5 2.2M6.9 8.25q-.05.9 1.25.55m-3.1-.4q.75.5 1.25-.6" fill="none" stroke="#726249" stroke-linecap="round" stroke-linejoin="round" stroke-width=".05"/><path d="m5.6.4.05.65M10 8.1l-.3.1m-2.8-.25v-.4m.5-5.9-.1.4m1.1.8-.05-.5m.05.5-.2.6M10 6.9l-.6.2m.1-1.6-.25.2m-.9 2.8-.2.3M6.9 7.95v.3m-2.1 0-.1-.3m-.9 1.4-.15-.65m.15.65.05.35m.95-1.45.25.15" fill="none" stroke="#b8af9c" stroke-linecap="round" stroke-linejoin="round" stroke-width=".05"/></g><g id="m"><path d="M-.95.15Q-.4-.3.4-.15l-.1-.2v-.1l.15-.3q.2-.25.45 0l.5.7.15.75.55-.1q.3.1.45.55l.05.95-.2.55.15.15.3.6-.05.65-.15.15v1.45q-.65.85-1.3 1.1Q1.3 3.95-.2 3.2v-.05Q.05.7-.95.15" fill="#381952" fill-rule="evenodd" transform="translate(1.95 .9)"/><path d="M1.35 6.75h-.7l-1.5-1.5v-.2l-.35.35q-.35-1.1.15-2.75-.65-.5-.15-2.25l.25-.25q1 .55.75 3v.05q1.5.75 1.55 3.55" fill="#582578" fill-rule="evenodd" transform="translate(1.95 .9)"/><path d="m.65 6.75-.6-.3L0 6.4q-.15.3-.35.2l-.35-.7-.15-.65 1.5 1.5M-1.2 5.4h-.1l-.35-.5-.05-1.2.15-.75-.15-.15-.25-.65.05-.8.35-.55h.05l.3-.4q-.5 1.75.15 2.25-.5 1.65-.15 2.75" fill="#69477d" fill-rule="evenodd" transform="translate(1.95 .9)"/><path d="M2.25.55v-.1l.15-.3q.2-.25.45 0l.5.7.15.75.55-.1q.3.1.45.55l.05.95-.2.55.15.15.3.6-.05.65-.15.15v.05M1.95 7.3q-.15.3-.35.2l-.35-.7-.15-.65v-.2l-.35.35h-.1L.3 5.8.25 4.6l.15-.75-.15-.15L0 3.05l.05-.8.35-.55h.05" fill="none" stroke="#63267d" stroke-linecap="round" stroke-linejoin="round" stroke-width=".05"/><path d="M4.6 5.15v1.4q-.65.85-1.3 1.1h-.7l-.6-.3-.05-.05" fill="none" stroke="#63267d" stroke-linecap="round" stroke-linejoin="round" stroke-width=".05"/></g><g id="n"><path d="m-2.6.1-.35-.4q.15-.75.9-1.3Q-.7-1.9.1-.75L.05-.5q-1.7-.55-2.65.6" fill="#fef7e0" fill-rule="evenodd" transform="translate(7.05 1.65)"/><path d="M0 .45-2.6.1q.95-1.15 2.65-.6L0 .45" fill="#d9ceb4" fill-rule="evenodd" transform="translate(7.05 1.65)"/><path d="m7.05 2.1-2.6-.35-.35-.4Q4.25.6 5 .05q1.35-.3 2.15.85" fill="none" stroke="#93550b" stroke-linecap="round" stroke-linejoin="round" stroke-width=".05"/><path d="M.25 3.95q-1.8.35-3.3-.7Q-4.15 1.4-3.3-.3l.2-.45 1.55-.05Q0-.55.8-1.25L2.95.4l-1.5.45-1.5.8q.4.5.3 2.3m-2.1-3.6L.8-.3l-2.95.2-.45 2 .75-1.55" fill="#eaa32d" fill-rule="evenodd" transform="translate(7.05 1.65)"/><path d="M2.95.4q.55.85.35 1.75l-.35 1.3-2.7.5q.1-1.8-.3-2.3l1.5-.8L2.95.4m-4.8-.05L-2.6 1.9l.45-2L.8-.3l-2.65.65" fill="#cf7b16" fill-rule="evenodd" transform="translate(7.05 1.65)"/><path d="M10 2.05q.55.85.35 1.75L10 5.1l-2.7.5q-1.8.35-3.3-.7-1.1-1.85-.25-3.55l.2-.45L5.5.85Q7.05 1.1 7.85.4z" fill="none" stroke="#93550b" stroke-linecap="round" stroke-linejoin="round" stroke-width=".05"/><path d="M5.8 1.95q.4-.2.8-.3l.1.05q.75 0 1.45.75l.2.3" fill="none" stroke="#93550b" stroke-linecap="round" stroke-linejoin="round" stroke-width=".05"/><path d="M-2 1.25Q-4.95.9-6.4 3.05q-.6-.15-.65-.6.25-1.3 1.45-2.4 2.2-.8 3.65.8l-.05.4" fill="#fef7e0" fill-rule="evenodd" transform="translate(7.05 1.65)"/><path d="M-6.4 3.05Q-4.95.9-2 1.25l-.05 1.65-4.35.15" fill="#d9ceb4" fill-rule="evenodd" transform="translate(7.05 1.65)"/><path d="M5.1 2.5Q3.65.9 1.45 1.7.25 2.8 0 4.1q.05.45.65.6L5 4.55" fill="none" stroke="#93550b" stroke-linecap="round" stroke-linejoin="round" stroke-width=".05"/><path d="m-4.35 4.7-.7-.45q0-1.4 1-2.7Q-2.25.3-.7 1.8l.05.35q-2.7.1-3.7 2.55" fill="#fef7e0" fill-rule="evenodd" transform="translate(7.05 1.65)"/><path d="M-.45 3.85q-1.7.85-3.9.85 1-2.45 3.7-2.55l.2 1.7" fill="#d9ceb4" fill-rule="evenodd" transform="translate(7.05 1.65)"/><path d="M6.6 5.5q-1.7.85-3.9.85L2 5.9q0-1.4 1-2.7 1.8-1.25 3.35.25" fill="none" stroke="#93550b" stroke-linecap="round" stroke-linejoin="round" stroke-width=".05"/></g><g id="o"><path d="m-1.65 1.6.7-.5.15-.05L.25.1l-2.8.3-.85 2.35 1.75-1.15m2.7-.15Q-.05.8-.8 1.05q.75-.25 1.85.4l-1.55 1Q-.7 3.6.5 4.9q-2.5.5-4.2-.5-1.45-1.9-.7-3.55.4-1.1 1.95-1.1Q-.7-.25-.1-1 1.85-.1 2.75.9l-1.7.55" fill="#eaa32d" fill-rule="evenodd" transform="translate(6.65 1)"/><path d="m-.8 1.05-.15.05-.7.5-1.75 1.15.85-2.35L.25.1l-1.05.95m1.85.4L2.75.9q.85.95.7 2L3.3 4.4l-2.8.5q-1.2-1.3-1-2.45l1.55-1 .35.2-.35-.2" fill="#cf7b16" fill-rule="evenodd" transform="translate(6.65 1)"/><path d="M9.4 1.9Q8.5.9 6.55 0q-.6.75-2.35.75-1.55 0-1.95 1.1-.75 1.65.7 3.55 1.7 1 4.2.5m2.25-4q.85.95.7 2l-.15 1.5-2.8.5" fill="none" stroke="#93550b" stroke-linecap="round" stroke-linejoin="round" stroke-width=".05"/><path d="m5.85 2.05-.15.05-.7.5m.85-.55q.75-.25 1.85.4l.35.2" fill="none" stroke="#93550b" stroke-linecap="round" stroke-linejoin="round" stroke-width=".05"/><path d="M-1.95 2.3q-3-.1-3.85 2.55-.7-.05-.85-.55-.1-1.55.85-2.95Q-3.95.1-2.05 1.8l.1.5" fill="#fef7e0" fill-rule="evenodd" transform="translate(6.65 1)"/><path d="M-5.8 4.85q.85-2.65 3.85-2.55l.2 1.3Q-4.65 5-5.8 4.85" fill="#d9ceb4" fill-rule="evenodd" transform="translate(6.65 1)"/><path d="M4.6 2.8Q2.7 1.1.85 2.35-.1 3.75 0 5.3q.15.5.85.55Q2 6 4.9 4.6" fill="none" stroke="#93550b" stroke-linecap="round" stroke-linejoin="round" stroke-width=".05"/><path d="m.1 6.65-1 .05q-1.7-.1-1.85-.95-.2-2.25.55-3.15.8-1.1 1.7-.65-.4 3.7.6 4.7" fill="#fef7e0" fill-rule="evenodd" transform="translate(6.65 1)"/><path d="m-.5 1.95 1 .95.65 1q.3.55.2 1.25Q1.05 6.3.1 6.65q-1-1-.6-4.7" fill="#d9ceb4" fill-rule="evenodd" transform="translate(6.65 1)"/><path d="m6.15 2.95 1 .95.65 1q.3.55.2 1.25-.3 1.15-1.25 1.5l-1 .05q-1.7-.1-1.85-.95-.2-2.25.55-3.15.8-1.1 1.7-.65z" fill="none" stroke="#93550b" stroke-linecap="round" stroke-linejoin="round" stroke-width=".05"/><path d="M2.75 2.2h.05q-.15 2.65.5 2.85l-.5.1q-.9-.05-1-.55-.1-1.35.25-1.9t.7-.5" fill="#fef7e0" fill-rule="evenodd" transform="translate(6.65 1)"/><path d="m2.8 2.2.7.7.35.6.1.75q-.15.65-.65.8-.65-.2-.5-2.85" fill="#d9ceb4" fill-rule="evenodd" transform="translate(6.65 1)"/><path d="m9.45 3.2.7.7.35.6.1.75q-.15.65-.65.8l-.5.1q-.9-.05-1-.55-.1-1.35.25-1.9t.7-.5" fill="none" stroke="#93550b" stroke-linecap="round" stroke-linejoin="round" stroke-width=".05"/></g><g id="p"><path d="M-5.8 2.85h-.05l.05-.05v.05m.35-4.95.2-.4.15.1-.3.2-.05.1" fill="#ebe0c3" fill-rule="evenodd" transform="translate(6.85 6.85)"/><path d="M3.15 5.3.35 6l-.25.5-.85-.1-.65-.35-.25.7q-.3.2-.7 0l-.7-.7-.3-.65-.2.05-.65-.1-.4-.65-.05-.35-.05-.1-.1-.05-.2.2-.6.05-.3-.8.1-.8V2.8l-.05.05-.7.1-.3-.65.3-1.05.25-.35-.1-.1-.1-.25.15-.3-.05-.45.35-.7.1-.05v-.25l.35-.75.15-.15.05-.1q1.9-.45 5.9 3.5h.1v.1l-.1-.1.1.1q1.1 3.15 2.55 3.9M-6.35.25l.15-.1.65-.05.2.05.65.2.3-.5.75-.05q.4.05.7.4l.2.4.25-.05.65.05.4.35-.4-.35-.65-.05-.25.05-.2-.4q-.3-.35-.7-.4l-.75.05-.3.5-.65-.2-.2-.05-.65.05-.15.1m1.1-1.05h-.5l-.2-.15.2.15h.5" fill="#ff8c19" fill-rule="evenodd" transform="translate(6.85 6.85)"/><path d="m-4.1-4 .15-.3 1.45-1.65Q-1.45-7 .65-6.85 3-6.7 5.1-4.6q4.05 6.5-.85 9.35l-1.1.55Q1.7 4.55.6 1.4v-.1H.5q-4-3.95-5.9-3.5l.3-.2-.15-.1-.15-.4.3-.65.7-.45h.3" fill="#d16800" fill-rule="evenodd" transform="translate(6.85 6.85)"/><path d="M11.95 2.25q4.05 6.5-.85 9.35l-1.1.55-2.8.7-.25.5-.85-.1-.65-.35-.25.7q-.3.2-.7 0l-.7-.7-.3-.65-.2.05-.65-.1-.4-.65-.05-.35-.05-.1-.1-.05-.2.2-.6.05-.3-.8.1-.8v-.05L1 9.7l-.7.1-.3-.65.3-1.05.25-.35-.1-.1-.1-.25.15-.3-.05-.45.35-.7.1-.05v-.25l.35-.75.15-.15m.2-.4-.15-.4.3-.65.7-.45h.3m-1.3 1.8-.05.1m.05-.1.3-.2-.15-.1M.9 5.9l.2.15h.5M5.4 7.8 5 7.45l-.65-.05-.25.05-.2-.4q-.3-.35-.7-.4l-.75.05-.3.5L1.5 7l-.2-.05L.65 7l-.15.1m6.85 1.05.1.1" fill="none" stroke="#774009" stroke-linecap="round" stroke-linejoin="round" stroke-width=".05"/><path d="M-1.3.55.9 1.9-.8 2.95l-3.25-.1L-1.3.55" fill="#c26938" fill-rule="evenodd" transform="translate(6.85 6.85)"/><path d="m3.15-6.45 2.45 1.8q-.95 2.7-2.65 4.7L2.9.1l-2 1.8L-1.3.55.6-1.4q2.6-2.95 2.55-5.05M1.8 4.85l-.45.05-1.75.2-3.65-.3-1.5-.5-.8-1.9 1.7.35.6.1 3.25.1.35-.05 1.55-.1.7 2.05" fill="#975431" fill-rule="evenodd" transform="translate(6.85 6.85)"/><path d="m1.1 2.8.2-.05h.05Q4.1 2.5 6.85.3L7 1.4Q4.9 4.3 1.8 4.85L1.1 2.8" fill="#773c26" fill-rule="evenodd" transform="translate(6.85 6.85)"/><path d="M10 .4q.05 2.1-2.55 5.05L5.55 7.4m2.2 1.35 2-1.8.05-.05q1.7-2 2.65-4.7M2.8 9.7l2.75-2.3m.5 2.4 1.7-1.05" fill="none" stroke="#783a2b" stroke-linecap="round" stroke-linejoin="round" stroke-width=".05"/><path d="m2.8 9.7 3.25.1" fill="none" stroke="#c85" stroke-linecap="round" stroke-linejoin="round" stroke-width=".05"/><path d="m5.2 7.6 1.9 1.75 2.05-1.8-1.9-1.75z" fill="none" stroke="#f7bc02" stroke-linecap="round" stroke-linejoin="round" stroke-width=".05"/></g><g id="h"><path d="m-3.5-17.15-.6.95-2-1.95h-.05v-.05l.05.05 2.6 1" fill="#fef7e0" fill-rule="evenodd" transform="translate(6.15 18.2)"/><path d="m-4.1-16.2-.9.65-1.15-2.6h.05l2 1.95" fill="#d1bb90" fill-rule="evenodd" transform="translate(6.15 18.2)"/><path d="M1.15 2.65 0 .05V0l.05.05 2.6 1" fill="none" stroke="#a27937" stroke-linecap="round" stroke-linejoin="round" stroke-width=".05"/><path d="m5.25-16.7-2.35 2q-.45-.45-.25-1.45l2.6-.55" fill="#fef7e0" fill-rule="evenodd" transform="translate(6.15 18.2)"/><path d="M5.25-16.7h.05l-1.1 2.4q-.9 0-1.3-.4l2.35-2" fill="#d1bb90" fill-rule="evenodd" transform="translate(6.15 18.2)"/><path d="m10.35 3.9 1.1-2.4h-.05l-2.6.55" fill="none" stroke="#a27937" stroke-linecap="round" stroke-linejoin="round" stroke-width=".05"/></g><g id="q"><path d="M-5 3q-1.3-1.4-.65-3.4.25-1.15.1-3.05-.2-1.95.65-3.05.75-1.1 1.7-1.15-1.7 4.6-.75 5.65l-.4.7Q-5.95 1.65-5 3" fill="#9467b0" fill-rule="evenodd" transform="translate(5.85 11.35)"/><path d="M-3.2-7.65Q-1.05-8.5.6-8.3l1.85.1Q-1.65-6.65-.05.25q1.55 2.1 1.1 4.25-3.5.55-5.45-.95L-5 3q-.95-1.35.65-4.3l.4-.7q-.95-1.05.75-5.65" fill="#582578" fill-rule="evenodd" transform="translate(5.85 11.35)"/><path d="M2.45-8.2q2.35.1 3.8 2.4Q7.7-3.55 6.5-.15t-2.35 3.8l-3.1.85Q1.5 2.35-.05.25q-1.6-6.9 2.5-8.45" fill="#381952" fill-rule="evenodd" transform="translate(5.85 11.35)"/><path d="M2.65 3.7q2.15-.85 3.8-.65l1.85.1m-1.4 12.7q-3.5.55-5.45-.95l-.6-.55q-1.3-1.4-.65-3.4Q.45 9.8.3 7.9.1 5.95.95 4.85q.75-1.1 1.7-1.15z" fill="none" stroke="#63267d" stroke-linecap="round" stroke-linejoin="round" stroke-width=".05"/><path d="M2.75 1.85q-2.35.7-3.05 0 .15-1 1.7-2.1 2.2.4 1.35 2.1" fill="#fff" fill-rule="evenodd" transform="translate(5.85 11.35)"/><path d="m1.4-.25.1-.1 2.75.25Q4.55.95 3.2 1.7l-.45.15Q3.6.15 1.4-.25" fill="#f0e0c2" fill-rule="evenodd" transform="translate(5.85 11.35)"/><path d="M8.6 13.2q-2.35.7-3.05 0 .15-1 1.7-2.1m.05-.05.05-.05 2.75.25q.3 1.05-1.05 1.8l-.45.15z" fill="none" stroke="#967637" stroke-linecap="round" stroke-linejoin="round" stroke-width=".05"/><path d="M-4.95.95q.8-.55.55-2 .4.95.4 1.8-.3.55-.9.25l-.05-.05" fill="#f0e0c2" fill-rule="evenodd" transform="translate(5.85 11.35)"/><path d="m-4.55-1.4.15.35q.25 1.45-.55 2l-.5-.35q-.5-.75-.3-1.8.5-.65 1.2-.2" fill="#fff" fill-rule="evenodd" transform="translate(5.85 11.35)"/><path d="M1.3 9.95q-.7-.45-1.2.2-.2 1.05.3 1.8l.5.35m.55-2q.4.95.4 1.8-.3.55-.9.25" fill="none" stroke="#967637" stroke-linecap="round" stroke-linejoin="round" stroke-width=".05"/><path d="m-4.85 1.55-.5-.2-.4-.3L-5.8.8q.05-.15.3-.15l.5.2.4.35v.3l-.25.05" fill="#b59bca" fill-rule="evenodd" transform="translate(5.85 11.35)"/><path d="m2.9 2.8-.85.25-.9-.05-.35-.25.35-.4.9-.2h.85q.35.1.35.3l-.35.35" fill="#9467b0" fill-rule="evenodd" transform="translate(5.85 11.35)"/><path d="M-.8 1.9q-.05.35-.6.15-.6-.25-1.25-.35l-1-.1-.25-.25q.05-.25.45-.4l1-.1q.65 0 1.2.35.5.3.45.7" fill="#270f33" fill-rule="evenodd" transform="translate(5.85 11.35)"/><path d="m1.5-1.3-.9.35-.35.1.3-.3.8-.4 1-.15.6.05-.4.15-1.05.2M5.65-8.9Q3.95-7.15 3.7-5.35q-.5-.55-.7-1.2 0-1.05 1.45-2.4l.4-.35 1.3-1-.5 1.4" fill="#9467b0" fill-rule="evenodd" transform="translate(5.85 11.35)"/><path d="M6.55-4.1q-1-1-1.3-2.25t.4-2.55l.5-1.4q1.6 5.5.4 6.2" fill="#170b20" fill-rule="evenodd" transform="translate(5.85 11.35)"/><path d="M5.65-8.9q-.7 1.3-.4 2.55t1.3 2.25q-1.9-.25-2.75-1.1l-.1-.15q.25-1.8 1.95-3.55" fill="#582578" fill-rule="evenodd" transform="translate(5.85 11.35)"/><path d="M12.4 7.25q1.2-.7-.4-6.2l-1.3 1-.4.35Q8.85 3.75 8.85 4.8" fill="none" stroke="#270f33" stroke-linecap="round" stroke-linejoin="round" stroke-width=".05"/><path d="M-4.2-11.35q1.35 3 1.4 5.1 1.15-.75 1.5-1.6.1-.5-1-1.75-1-1.25-1.9-1.75" fill="#582578" fill-rule="evenodd" transform="translate(5.85 11.35)"/><path d="M-2.8-6.25q-.05-2.1-1.4-5.1-1.25 2.2-1.2 3.7l.4 2.4q1.4-.45 2.2-1" fill="#9467b0" fill-rule="evenodd" transform="translate(5.85 11.35)"/><path d="M1.65 0q.9.5 1.9 1.75 1.1 1.25 1 1.75M.85 6.1l-.4-2.4Q.4 2.2 1.65 0z" fill="none" stroke="#270f33" stroke-linecap="round" stroke-linejoin="round" stroke-width=".05"/><path d="m-3.8-4.85-2-1.95h-.05v-.05l.05.05 2.6 1-.6.95" fill="#fef7e0" fill-rule="evenodd" transform="translate(5.85 11.35)"/><path d="M-5.85-6.8h.05l2 1.95q-.4.45-.9.65l-1.15-2.6" fill="#d1bb90" fill-rule="evenodd" transform="translate(5.85 11.35)"/><path d="m0 4.55 1.15 2.6m1.5-1.6-2.6-1L0 4.5v.05z" fill="none" stroke="#a27937" stroke-linecap="round" stroke-linejoin="round" stroke-width=".05"/><path d="m5.1-5.5-2.6.55q-.2 1 .25 1.45l2.35-2" fill="#fef7e0" fill-rule="evenodd" transform="translate(5.85 11.35)"/><path d="m4-3.1 1.1-2.4-2.35 2q.4.4 1.25.4" fill="#d1bb90" fill-rule="evenodd" transform="translate(5.85 11.35)"/><path d="m9.85 8.25 1.1-2.4-2.6.55" fill="none" stroke="#a27937" stroke-linecap="round" stroke-linejoin="round" stroke-width=".05"/></g><g id="r"><path d="m-1.45-1.2.5-.05.7-.1-.7.1-.5.05-1.15.1.85 1.2.35.55q4.1 1.9 4-.45L1-1.5l-1.25.15-1.2.15M.75.25.5-.35q-.35-.5-1.45-.9 1.1.4 1.45.9l.25.6" fill="#fdb0c1" fill-rule="evenodd" transform="translate(2.6 1.5)"/><path d="m2.35.15-.7.1-.5.05m1.2-.15L3.6 0l1.6 1.7q.1 2.35-4 .45M.85 1.6 0 .4 1.15.3m.5-.05q1.1.4 1.45.9l.25.6M1.2 2.15.85 1.6" fill="none" stroke="#000" stroke-linecap="round" stroke-linejoin="round" stroke-width=".05"/></g><use width="10.45" height="11" xlink:href="#k" id="b"/><use width="14.7" height="4.25" xlink:href="#l" id="c"/><use width="4.8" height="7.7" xlink:href="#m" id="d"/><use width="10.4" height="6.35" xlink:href="#n" id="e"/><use width="10.6" height="7.7" xlink:href="#o" id="f"/><use width="13.85" height="13.7" xlink:href="#p" id="g"/><use width="12.9" height="16" xlink:href="#q" id="i"/><use width="5.2" height="3" xlink:href="#r" id="j"/><path d="M5.75-1.9q2.15.45 2.2 1.35Q8 .3 5.9 1q-2.15.75-5.2.95l-5.25-.3q-2.2-.5-2.2-1.35-.05-.85 2.05-1.6 2.15-.75 5.2-.9l5.25.3" fill="#382c16" fill-rule="evenodd" transform="translate(6.75 2.25)" id="l"/></defs></svg>