<svg viewBox="0 0 26.001 26.554" xmlns="http://www.w3.org/2000/svg" xmlns:xlink="http://www.w3.org/1999/xlink"><g transform="translate(-216.54 -123.79)"><use transform="matrix(-.9719 0 0 1 242.55 123.8)" width="27.05" height="26.55" xlink:href="#a"/><use transform="translate(222 137.4)" width="4.25" height="3" xlink:href="#b"/></g><defs><use transform="matrix(-1.0019 0 0 1 27.071 0)" width="27" height="26.55" xlink:href="#c" id="a"/><use width="10.25" height="10.95" xlink:href="#l" id="d"/><use width="14.7" height="4.25" xlink:href="#m" id="e"/><use width="6.1" height="8.25" xlink:href="#n" id="f"/><use width="10.4" height="6.35" xlink:href="#o" id="g"/><use width="10.6" height="7.7" xlink:href="#p" id="h"/><use width="13.8" height="13.7" xlink:href="#q" id="i"/><use width="15.3" height="16.2" xlink:href="#r" id="k"/><use width="4.25" height="3" xlink:href="#s" id="b"/><g id="c" transform="translate(11 24.25)"><use transform="matrix(-.8056 -.3374 -.082 .9773 -1.839 -17.731)" width="10.25" height="10.95" xlink:href="#d"/><use transform="translate(5.75 -16.8)" width="10.25" height="10.95" xlink:href="#d"/><use transform="matrix(.8 0 0 .8 -5.4 -1.8)" width="14.7" height="4.25" xlink:href="#e"/><use transform="matrix(-1 0 0 1 -2.1 -12.35)" width="6.1" height="8.25" xlink:href="#f"/><use transform="translate(-7.56 -4.229) scale(.6538)" width="10.4" height="6.35" xlink:href="#g"/><use transform="translate(-.548 -2.754) scale(.6538)" width="10.6" height="7.7" xlink:href="#h"/><use transform="translate(-7 -13.35)" width="13.8" height="13.7" xlink:href="#i"/><use transform="translate(-6.15 -18.2)" width="11.45" height="3.9" xlink:href="#j"/><use transform="translate(2.75 -10.3)" width="6.1" height="8.25" xlink:href="#f"/><use transform="translate(-7.5 -24.25)" width="15.3" height="16.2" xlink:href="#k"/></g><g id="l"><path d="M5.55-6.55Q9.5-2.25 9.65 3.5l-1.1-1.75Q7.6 2.8 7.7 1.6v-.4q-1.05.45-.85-.45l.05-.3-.25-.1L6.3.3Q5.1-1.3 5.2-4.45q-2.4 3.5-1.75 6.8-.45-1-1.7-1.3Q.45.8 0 1.5.65.45.2-.95q.95-.25 1.7-.75.05-.95.6-.85l.25.1.15-.75q0-.5.65-.35l.2.25-.2-.25-.15-.4q-.1-.6.75-.95l.15-.35q.35-.9.35-2.2l.9.9M4.5-4.7l-.35-.2.35.2M3.05-2.1l-.3-.35.3.35m-1 .85L1.9-1.7l.15.45" fill="#3c62b0" fill-rule="evenodd" transform="translate(0 7.45)"/><path d="M3.45 2.35Q2.8-.95 5.2-4.45 5.1-1.3 6.3.3 5.55.2 4.9.65l.1.55-.75.05-.8 1.1" fill="#2f3e7d" fill-rule="evenodd" transform="translate(0 7.45)"/><path d="m5.75-7 .2-.1q.75-.3 1.1.9 1.15-.5 1 1.1l.7.05Q9.2-5 8.75-4l.55 1.3q.75.4.4 1.45l.45.5q.25.4-.2 1.15.2 1.8-.3 3.1-.15-5.75-4.1-10.05l.2-.45-.2.45-.9-.9 1.1.45M9.3-1.2l.4-.05-.4.05M6.9-5.95l.15-.25-.15.25" fill="#5972eb" fill-rule="evenodd" transform="translate(0 7.45)"/><path d="M9.65 10.95q.5-1.3.3-3.1.45-.75.2-1.15l-.45-.5q.35-1.05-.4-1.45l-.55-1.3q.45-1 0-1.05l-.7-.05q.15-1.6-1-1.1-.35-1.2-1.1-.9M4.65 0q0 1.3-.35 2.2l-.15.35q-.85.35-.75.95m.15.4q-.65-.15-.65.35L2.75 5m-.25-.1q-.55-.1-.6.85-.75.5-1.7.75M0 8.95q.45-.7 1.75-.45 1.25.3 1.7 1.3l.8-1.1.75-.05m1.3-.9.35.05.25.1m-.05.3q-.2.9.85.45m0 .4q-.1 1.2.85.15l1.1 1.75M4.65 0l1.1.45M4.9 8.1q.65-.45 1.4-.35" fill="none" stroke="#1b2445" stroke-linecap="round" stroke-linejoin="round" stroke-width=".05"/><path d="m5.95.35-.2.1-.2.45M9.7 6.2l-.4.05m-5.15-3.7.35.2M3.55 3.9l.2.25m-1 .85.3.35M3.4 3.5l.15.4M1.9 5.75l.15.45M6.9 7.9l-.05.3m.85.45v.4M2.75 5l-.25-.1m4.55-3.65-.15.25M5 8.65l-.1-.55" fill="none" stroke="#b8af9c" stroke-linecap="round" stroke-linejoin="round" stroke-width=".05"/></g><g id="n"><path d="M-.95.15Q-.4-.3.4-.15l-.1-.2v-.1l.15-.3q.2-.25.45 0l.5.7.15.75.55-.1q.3.1.45.55l.05.95-.2.55.15.15.3.6-.05.65-.15.15v1.45q-.65.85-1.3 1.1Q1.3 3.95-.2 3.2v-.05Q.05.7-.95.15" fill="#381952" fill-rule="evenodd" transform="translate(2.4 1.45)"/><path d="m.65 6.75-.6-.3L0 6.4q-.15.3-.35.2l-.35-.7-.15-.65 1.5 1.5M-1.2 5.4h-.1l-.35-.5-.05-1.2.15-.75-.15-.15-.25-.65.05-.8.35-.55h.05l.3-.4q-.5 1.75.15 2.25-.5 1.65-.15 2.75" fill="#9467b0" fill-rule="evenodd" transform="translate(2.4 1.45)"/><path d="M1.35 6.75h-.7l-1.5-1.5v-.2l-.35.35q-.35-1.1.15-2.75-.65-.5-.15-2.25l.25-.25q1 .55.75 3v.05q1.5.75 1.55 3.55" fill="#582578" fill-rule="evenodd" transform="translate(2.4 1.45)"/><path d="M2.7 1.1V1l.15-.3q.2-.25.45 0l.5.7.15.75.55-.1q.3.1.45.55l.05.95-.2.55.15.15.3.6-.05.65-.15.15v.05M2.4 7.85q-.15.3-.35.2l-.35-.7-.15-.65v-.2l-.35.35h-.1l-.35-.5-.05-1.2.15-.75-.15-.15-.25-.65.05-.8.35-.55H.9M5.05 5.7v1.4q-.65.85-1.3 1.1h-.7l-.6-.3-.05-.05" fill="none" stroke="#63267d" stroke-linecap="round" stroke-linejoin="round" stroke-width=".05"/><path d="m-2.4-.5 1.3-.75q3.15 2 2.4 2.8-1.6.5-3.3 1.6-.35-.8-.25-1.95Q-2.2 0-2.4-.5" fill="#ff8d0f" fill-rule="evenodd" transform="translate(2.4 1.45)"/><path d="M-2 3.15q1.7-1.1 3.3-1.6.85 1.1.2 2.05l-.2.1-.8.1q-.4-.1-.45-.45l-.7.4-.95.2h-.05q-.4-.1-.4-.35l.1-.3h.05l-.1-.15" fill="#3c98db" fill-rule="evenodd" transform="translate(2.4 1.45)"/><path d="m3.05 1.15.15.3.1-.05.15.1.25.4-.4.5-.75.25-.25-.05-.2.5-.6.5q.65-.95-.2-2.05l1.75-.4" fill="#1c678e" fill-rule="evenodd" transform="translate(2.4 1.45)"/><path d="M1.3 1.55q.75-.8-2.4-2.8L.6-1.3l2.45 2.45-1.75.4" fill="#cc6c0c" fill-rule="evenodd" transform="translate(2.4 1.45)"/><path d="M0 .95q.2.5.15 1.7Q.05 3.8.4 4.6M3 .15 5.45 2.6" fill="none" stroke="#b05e0b" stroke-linecap="round" stroke-linejoin="round" stroke-width=".05"/><path d="m5.45 2.6.15.3M.5 4.75.4 4.6" fill="none" stroke="#1e4255" stroke-linecap="round" stroke-linejoin="round" stroke-width=".05"/><path d="m5.7 2.85.15.1.25.4-.4.5-.75.25-.25-.05-.2.5-.6.5-.2.1-.8.1q-.4-.1-.45-.45l-.7.4-.95.2H.75q-.4-.1-.4-.35l.1-.3H.5" fill="none" stroke="#15506f" stroke-linecap="round" stroke-linejoin="round" stroke-width=".05"/></g><g id="o"><path d="M.05-.5q-1.7-.55-2.65.6l-.35-.4q.15-.75.9-1.3Q-.7-1.9.1-.75L.05-.5" fill="#fef7e0" fill-rule="evenodd" transform="translate(7.05 1.65)"/><path d="M-2.6.1q.95-1.15 2.65-.6L0 .45-2.6.1" fill="#d9ceb4" fill-rule="evenodd" transform="translate(7.05 1.65)"/><path d="M7.15.9Q6.35-.25 5 .05q-.75.55-.9 1.3l.35.4 2.6.35" fill="none" stroke="#93550b" stroke-linecap="round" stroke-linejoin="round" stroke-width=".05"/><path d="m2.95.4-1.5.45-1.5.8q.4.5.3 2.3-1.8.35-3.3-.7Q-4.15 1.4-3.3-.3l.2-.45 1.55-.05Q0-.55.8-1.25L2.95.4m-4.8-.05L.8-.3l-2.95.2-.45 2 .75-1.55" fill="#eaa32d" fill-rule="evenodd" transform="translate(7.05 1.65)"/><path d="M.25 3.95q.1-1.8-.3-2.3l1.5-.8L2.95.4q.55.85.35 1.75l-.35 1.3-2.7.5m-2.1-3.6L-2.6 1.9l.45-2L.8-.3l-2.65.65" fill="#cf7b16" fill-rule="evenodd" transform="translate(7.05 1.65)"/><path d="M10 2.05 7.85.4q-.8.7-2.35.45L3.95.9l-.2.45Q2.9 3.05 4 4.9q1.5 1.05 3.3.7l2.7-.5.35-1.3q.2-.9-.35-1.75z" fill="none" stroke="#93550b" stroke-linecap="round" stroke-linejoin="round" stroke-width=".05"/><path d="M5.8 1.95q.4-.2.8-.3l.1.05q.75 0 1.45.75l.2.3" fill="none" stroke="#93550b" stroke-linecap="round" stroke-linejoin="round" stroke-width=".05"/><path d="M-6.4 3.05q-.6-.15-.65-.6.25-1.3 1.45-2.4 2.2-.8 3.65.8l-.05.4Q-4.95.9-6.4 3.05" fill="#fef7e0" fill-rule="evenodd" transform="translate(7.05 1.65)"/><path d="m-2.05 2.9-4.35.15Q-4.95.9-2 1.25l-.05 1.65" fill="#d9ceb4" fill-rule="evenodd" transform="translate(7.05 1.65)"/><path d="M5 4.55.65 4.7q-.6-.15-.65-.6.25-1.3 1.45-2.4 2.2-.8 3.65.8" fill="none" stroke="#93550b" stroke-linecap="round" stroke-linejoin="round" stroke-width=".05"/><path d="M-.65 2.15q-2.7.1-3.7 2.55l-.7-.45q0-1.4 1-2.7Q-2.25.3-.7 1.8l.05.35" fill="#fef7e0" fill-rule="evenodd" transform="translate(7.05 1.65)"/><path d="M-4.35 4.7q1-2.45 3.7-2.55l.2 1.7q-1.7.85-3.9.85" fill="#d9ceb4" fill-rule="evenodd" transform="translate(7.05 1.65)"/><path d="M6.35 3.45Q4.8 1.95 3 3.2 2 4.5 2 5.9l.7.45q2.2 0 3.9-.85" fill="none" stroke="#93550b" stroke-linecap="round" stroke-linejoin="round" stroke-width=".05"/></g><g id="p"><path d="M-.8 1.05.25.1l-2.8.3-.85 2.35 1.75-1.15.7-.5.15-.05q.75-.25 1.85.4Q-.05.8-.8 1.05M2.75.9l-1.7.55-1.55 1Q-.7 3.6.5 4.9q-2.5.5-4.2-.5-1.45-1.9-.7-3.55.4-1.1 1.95-1.1Q-.7-.25-.1-1 1.85-.1 2.75.9" fill="#eaa32d" fill-rule="evenodd" transform="translate(6.65 1)"/><path d="M-1.65 1.6-3.4 2.75-2.55.4.25.1l-1.05.95-.15.05-.7.5m2.7-.15L2.75.9q.85.95.7 2L3.3 4.4l-2.8.5q-1.2-1.3-1-2.45l1.55-1 .35.2-.35-.2" fill="#cf7b16" fill-rule="evenodd" transform="translate(6.65 1)"/><path d="M9.4 1.9Q8.5.9 6.55 0q-.6.75-2.35.75-1.55 0-1.95 1.1-.75 1.65.7 3.55 1.7 1 4.2.5m2.25-4q.85.95.7 2l-.15 1.5-2.8.5" fill="none" stroke="#93550b" stroke-linecap="round" stroke-linejoin="round" stroke-width=".05"/><path d="M5.85 2.05q.75-.25 1.85.4l.35.2m-2.2-.6-.15.05-.7.5" fill="none" stroke="#93550b" stroke-linecap="round" stroke-linejoin="round" stroke-width=".05"/><path d="M-5.8 4.85q-.7-.05-.85-.55-.1-1.55.85-2.95Q-3.95.1-2.05 1.8l.1.5q-3-.1-3.85 2.55" fill="#fef7e0" fill-rule="evenodd" transform="translate(6.65 1)"/><path d="m-1.95 2.3.2 1.3Q-4.65 5-5.8 4.85q.85-2.65 3.85-2.55" fill="#d9ceb4" fill-rule="evenodd" transform="translate(6.65 1)"/><path d="M4.9 4.6Q2 6 .85 5.85.15 5.8 0 5.3q-.1-1.55.85-2.95Q2.7 1.1 4.6 2.8" fill="none" stroke="#93550b" stroke-linecap="round" stroke-linejoin="round" stroke-width=".05"/><path d="m.1 6.65-1 .05q-1.7-.1-1.85-.95-.2-2.25.55-3.15.8-1.1 1.7-.65-.4 3.7.6 4.7" fill="#fef7e0" fill-rule="evenodd" transform="translate(6.65 1)"/><path d="m-.5 1.95 1 .95.65 1q.3.55.2 1.25Q1.05 6.3.1 6.65q-1-1-.6-4.7" fill="#d9ceb4" fill-rule="evenodd" transform="translate(6.65 1)"/><path d="m6.15 2.95 1 .95.65 1q.3.55.2 1.25-.3 1.15-1.25 1.5l-1 .05q-1.7-.1-1.85-.95-.2-2.25.55-3.15.8-1.1 1.7-.65z" fill="none" stroke="#93550b" stroke-linecap="round" stroke-linejoin="round" stroke-width=".05"/><path d="M2.75 2.2h.05q-.15 2.65.5 2.85l-.5.1q-.9-.05-1-.55-.1-1.35.25-1.9t.7-.5" fill="#fef7e0" fill-rule="evenodd" transform="translate(6.65 1)"/><path d="m2.8 2.2.7.7.35.6.1.75q-.15.65-.65.8-.65-.2-.5-2.85" fill="#d9ceb4" fill-rule="evenodd" transform="translate(6.65 1)"/><path d="m9.45 3.2.7.7.35.6.1.75q-.15.65-.65.8l-.5.1q-.9-.05-1-.55-.1-1.35.25-1.9t.7-.5" fill="none" stroke="#93550b" stroke-linecap="round" stroke-linejoin="round" stroke-width=".05"/></g><g id="q"><path d="M-5.8 2.85h-.05l.05-.05v.05m.35-4.95.2-.4.15.1-.35.3" fill="#ebe0c3" fill-rule="evenodd" transform="translate(6.85 6.85)"/><path d="M3.15 5.3.35 6l-.25.5-.85-.1-.65-.35-.25.7q-.3.2-.7 0l-.7-.7-.3-.65-.2.05-.65-.1-.4-.65-.05-.35-.05-.1-.1-.05-.2.2-.6.05-.3-.8.1-.8V2.8l-.05.05-.7.1-.3-.65.3-1.05.25-.35.2-.25-.2-.2-.1-.65.35-.7.1-.05.2.15 1.35-.7Q-5.45.3-2.25-.75L-.6-.7Q.75.8 1.15 1.85L.9 3q.15 1.2 2.25 2.3M-1.2 2.9l.05-1.4h-.1l-.35.35v.6l.05.2-.4.2-.4.6.05.65.5.25-.15.55v.75q.1.3.4.25l.25-.1.05-.65.05-2.25" fill="#ff8d0f" fill-rule="evenodd" transform="translate(6.85 6.85)"/><path d="m-4.1-4 .2-.4.65-.75-.25.4-.35.5-.05.25h-.2" fill="#dac492" fill-rule="evenodd" transform="translate(6.85 6.85)"/><path d="m-3.25-5.15.75-.8Q-1.45-7 .65-6.85 3-6.7 5.1-4.6q4.05 6.5-.85 9.35l-1.1.55Q1.05 4.2.9 3l.25-1.15Q.75.8-.6-.7l-1.65-.05Q-5.45.3-4.4-1.5l-1.35.7-.2-.15v-.25l.35-.75.15-.15.35-.3-.15-.1-.15-.4.3-.65.7-.45h.5l.05-.25.35-.5.25-.4m2 10.3-.05.65-.25.1q-.3.05-.4-.25V4.9l.15-.55-.5-.25-.05-.65.4-.6.4-.2-.05-.2v-.6l.35-.35h.1l-.05 1.4-.05 2.25" fill="#cc6c0c" fill-rule="evenodd" transform="translate(6.85 6.85)"/><path d="M11.95 2.25q4.05 6.5-.85 9.35l-1.1.55-2.8.7-.25.5-.85-.1-.65-.35-.25.7q-.3.2-.7 0l-.7-.7-.3-.65-.2.05-.65-.1-.4-.65-.05-.35-.05-.1-.1-.05-.2.2-.6.05-.3-.8.1-.8v-.05L1 9.7l-.7.1-.3-.65.3-1.05.25-.35.2-.25-.2-.2-.1-.65.35-.7.1-.05v-.25l.35-.75.15-.15.35-.3-.15-.1-.15-.4.3-.65.7-.45h.3M3.6 1.7l-.25.4-.35.5-.05.25h-.2m-.3 2.5-1.35.7-.2-.15" fill="none" stroke="#894807" stroke-linecap="round" stroke-linejoin="round" stroke-width=".05"/><path d="m5.6 12-.05.65-.25.1q-.3.05-.4-.25v-.75l.15-.55-.5-.25-.05-.65.4-.6.4-.2-.05-.2v-.6l.35-.35h.1l-.05 1.4" fill="none" stroke="#b05e0b" stroke-linecap="round" stroke-linejoin="round" stroke-width=".05"/><path d="M-2.2 3.75Q.6 1.6 3.7-2.1q2.55-3.05 3-3.15L5.05-6.1Q2.5-5.1.8-3.15L-2.8.65l.6 3.1" fill="#7c4b1b" fill-rule="evenodd" transform="translate(6.85 6.85)"/><path d="M-2.8.65q-1.7 1.15-3.55 1.4V4.5q2 .4 4.15-.75l-.6-3.1" fill="#955a20" fill-rule="evenodd" transform="translate(6.85 6.85)"/><path d="M4.65 10.6q2.8-2.15 5.9-5.85 2.55-3.05 3-3.15M11.9.75q-2.55 1-4.25 2.95l-3.6 3.8M4.05 7.5Q2.35 8.65.5 8.9v2.45q2 .4 4.15-.75z" fill="none" stroke="#4f2f11" stroke-linecap="round" stroke-linejoin="round" stroke-width=".05"/></g><g id="j"><path d="m-3.5-17.15-.6.95-2-1.95h-.05v-.05l.05.05 2.6 1" fill="#fef7e0" fill-rule="evenodd" transform="translate(6.15 18.2)"/><path d="m-4.1-16.2-.9.65-1.15-2.6h.05l2 1.95" fill="#d1bb90" fill-rule="evenodd" transform="translate(6.15 18.2)"/><path d="M1.15 2.65 0 .05V0l.05.05 2.6 1" fill="none" stroke="#a27937" stroke-linecap="round" stroke-linejoin="round" stroke-width=".05"/><path d="m5.25-16.7-2.35 2q-.45-.45-.25-1.45l2.6-.55" fill="#fef7e0" fill-rule="evenodd" transform="translate(6.15 18.2)"/><path d="M5.25-16.7h.05l-1.1 2.4q-.9 0-1.3-.4l2.35-2" fill="#d1bb90" fill-rule="evenodd" transform="translate(6.15 18.2)"/><path d="m10.35 3.9 1.1-2.4h-.05l-2.6.55" fill="none" stroke="#a27937" stroke-linecap="round" stroke-linejoin="round" stroke-width=".05"/></g><g id="r"><path d="M-4.5-2.35Q-2.75.8-5.1 3.1q-1.4-2.5.6-5.45" fill="#7c4b1b" fill-rule="evenodd" transform="translate(6.5 11.35)"/><path d="M2 9q-2 2.95-.6 5.45Q3.75 12.15 2 9z" fill="none" stroke="#41270e" stroke-linecap="round" stroke-linejoin="round" stroke-width=".05"/><path d="M-1.9-7.1q-1.7 3.15-.75 4.2l-.4.7Q-4.65.75-3.7 2.1-5 .7-4.35-1.3q.2-1.15.1-2.35-.2-1.85 1.95-3.2l.4-.25" fill="#9467b0" fill-rule="evenodd" transform="translate(6.5 11.35)"/><path d="M4-6.85q-4.35-.7-2.75 6.2 1.55 2.1 1.1 4.25-3.5.55-5.45-.95l-.6-.55q-.95-1.35.65-4.3l.4-.7q-.95-1.05.75-4.2 2-1.1 4.5-.4l1.4.65" fill="#582578" fill-rule="evenodd" transform="translate(6.5 11.35)"/><path d="M2.35 3.6q.45-2.15-1.1-4.25-1.6-6.9 2.75-6.2 1.75 1.15 2.9 3.9.85 1.9.25 3.7-.55 1.6-1.7 2l-3.1.85" fill="#381952" fill-rule="evenodd" transform="translate(6.5 11.35)"/><path d="m10.5 4.5-1.4-.65q-2.5-.7-4.5.4m-1.8 9.2.6.55q1.95 1.5 5.45.95l3.1-.85q1.15-.4 1.7-2 .6-1.8-.25-3.7-1.15-2.75-2.9-3.9m-7.7 8.95q-1.3-1.4-.65-3.4.2-1.15.1-2.35-.2-1.85 1.95-3.2l.4-.25" fill="none" stroke="#63267d" stroke-linecap="round" stroke-linejoin="round" stroke-width=".05"/><path d="M4.05.95q-2.35.7-3.05 0 .15-1 1.7-2.1 2.2.4 1.35 2.1" fill="#fff" fill-rule="evenodd" transform="translate(6.5 11.35)"/><path d="m2.7-1.15.1-.1Q4.5-1.7 5.55-1 5.85.05 4.5.8l-.45.15q.85-1.7-1.35-2.1" fill="#f0e0c2" fill-rule="evenodd" transform="translate(6.5 11.35)"/><path d="m9.25 10.15.05-.05q1.7-.45 2.75.25.3 1.05-1.05 1.8l-.45.15q-2.35.7-3.05 0 .15-1 1.7-2.1" fill="none" stroke="#967637" stroke-linecap="round" stroke-linejoin="round" stroke-width=".05"/><path d="M-3.65.05q.8-.55.55-2 .4.95.4 1.8-.3.55-.9.25l-.05-.05" fill="#f0e0c2" fill-rule="evenodd" transform="translate(6.5 11.35)"/><path d="m-3.25-2.3.15.35q.25 1.45-.55 2l-.5-.35q-.5-.75-.3-1.8.5-.65 1.2-.2" fill="#fff" fill-rule="evenodd" transform="translate(6.5 11.35)"/><path d="M3.25 9.05q-.7-.45-1.2.2-.2 1.05.3 1.8l.5.35m.55-2q.4.95.4 1.8-.3.55-.9.25" fill="none" stroke="#967637" stroke-linecap="round" stroke-linejoin="round" stroke-width=".05"/><path d="m-3.55.65-.5-.2-.4-.3-.05-.25.3-.15.5.2.4.35v.3l-.25.05" fill="#b59bca" fill-rule="evenodd" transform="translate(6.5 11.35)"/><path d="m4.2 1.9-.85.25-.9-.05q-.35-.05-.35-.25t.35-.4l.9-.2h.85l.35.3-.35.35" fill="#9467b0" fill-rule="evenodd" transform="translate(6.5 11.35)"/><path d="M.5 1q-.05.35-.6.15Q-.7.9-1.35.8l-1-.1-.25-.25.45-.4 1-.1q.65 0 1.2.35.5.3.45.7" fill="#270f33" fill-rule="evenodd" transform="translate(6.5 11.35)"/><path d="m2.8-2.2-.9.35-.35.1.3-.3.8-.4 1-.15.6.05-.4.15-1.05.2" fill="#9467b0" fill-rule="evenodd" transform="translate(6.5 11.35)"/><path d="M5.85 1.5Q6.65.35 8.8-.65q-.05 2.4-3.4 3.25.05-.55.45-1.1" fill="#411a53" fill-rule="evenodd" transform="translate(6.5 11.35)"/><path d="M8.8-.65Q6.65.35 5.85 1.5 5.9.45 7.25-.55l.4-.05L8.8-.65" fill="#9467b0" fill-rule="evenodd" transform="translate(6.5 11.35)"/><path d="M7.25-.55Q5.9.45 5.85 1.5q-.4.55-.45 1.1L5.25.1q.55-.5 2-.65" fill="#381952" fill-rule="evenodd" transform="translate(6.5 11.35)"/><path d="m15.3 10.7-1.15.05-.4.05m-1.85 3.15q3.35-.85 3.4-3.25m-3.55.75q.55-.5 2-.65" fill="none" stroke="#270f33" stroke-linecap="round" stroke-linejoin="round" stroke-width=".05"/><path d="M5.75-.6q1.75 3.15-.6 5.45-1.4-2.5.6-5.45" fill="#964e07" fill-rule="evenodd" transform="translate(6.5 11.35)"/><path d="M12.25 10.75q-2 2.95-.6 5.45 2.35-2.3.6-5.45z" fill="none" stroke="#41270e" stroke-linecap="round" stroke-linejoin="round" stroke-width=".05"/><path d="m5.1-10.2.35-.25q.35-.25.4.65l.35.25h-.05L5.5-9.6q-2.1-.05-3.25 1.05-1.3-.3-2.2.5l1.2-1.15 1.5-.6-1.5.6Q-2-10-5.2-7.7q.75-.8 2-1.6l1.4-.8q.5-1.3 1.15-.4l.3-.6q.25-.6.9.35h.85l1.35.95.75-.35.55-.15q.7-1.05 1.05.1m-4.55-.55-.1.45.1-.45" fill="#995e22" fill-rule="evenodd" transform="translate(6.5 11.35)"/><path d="M6.2-9.55 7.5-8q1.85 3.3-.15 5.5.1.95-1.2 2.3L5.7-.9q0-1.15-2.1-3.1-2.2-2.05-2.25-3.3 4 2.35 4.9.95 1.2-.35-.1-3.2h.05m-6.75 3.7Q-4.2-4.35-5.5-3q-1-1.05-1-2.15 1.7-1.7 3.55-1.65l4.3-.5q-.5 1.1-1.9 1.45m7.9 3.35Q7-5.55 6.25-6.35q.75.8 1.1 3.85" fill="#783f06" fill-rule="evenodd" transform="translate(6.5 11.35)"/><path d="M5.7-.9q-.9-1-3.25-1.8-2.2-1.5-3-3.15 1.4-.35 1.9-1.45Q1.4-6.05 3.6-4 5.7-2.05 5.7-.9M-6.5-5.15q0-1.25 1.3-2.55Q-2-10 1.25-9.2L.05-8.05q.9-.8 2.2-.5Q3.4-9.65 5.5-9.6l.65.05q1.3 2.85.1 3.2-.9 1.4-4.9-.95l-4.3.5Q-4.8-6.85-6.5-5.15" fill="#964e07" fill-rule="evenodd" transform="translate(6.5 11.35)"/><path d="M13.85 8.85q.1.95-1.2 2.3m-.45-.7q-.9-1-3.25-1.8-2.2-1.5-3-3.15Q2.3 7 1 8.35 0 7.3 0 6.2q0-1.25 1.3-2.55.75-.8 2-1.6M12.75 5q.75.8 1.1 3.85m-6-4.8q-.5 1.1-1.9 1.45" fill="none" stroke="#41270e" stroke-linecap="round" stroke-linejoin="round" stroke-width=".05"/><path d="M11.95.9q.35-.25.4.65l.35.25L14 3.35q1.85 3.3-.15 5.5M3.3 2.05l1.4-.8q.5-1.3 1.15-.4m.3-.6q.25-.6.9.35h.85l1.35.95.75-.35.55-.15q.7-1.05 1.05.1m-2.35.4-1.5.6" fill="none" stroke="#41270e" stroke-linecap="round" stroke-linejoin="round" stroke-width=".05"/><path d="m11.6 1.15.35-.25M5.85.85l.3-.6m.8.8.1-.45" fill="none" stroke="#b8af9c" stroke-linecap="round" stroke-linejoin="round" stroke-width=".05"/><path d="m-2.6-5.95-.6.95-2-1.95h-.05V-7l.05.05 2.6 1" fill="#fef7e0" fill-rule="evenodd" transform="translate(6.5 11.35)"/><path d="m-3.2-5-.9.65-1.15-2.6h.05l2 1.95" fill="#d1bb90" fill-rule="evenodd" transform="translate(6.5 11.35)"/><path d="M2.4 7 1.25 4.4v-.05l.05.05 2.6 1" fill="none" stroke="#a27937" stroke-linecap="round" stroke-linejoin="round" stroke-width=".05"/><path d="m6.15-5.5-2.35 2q-.45-.45-.25-1.45l2.6-.55" fill="#fef7e0" fill-rule="evenodd" transform="translate(6.5 11.35)"/><path d="M6.15-5.5h.05L5.1-3.1q-.9 0-1.3-.4l2.35-2" fill="#d1bb90" fill-rule="evenodd" transform="translate(6.5 11.35)"/><path d="m11.6 8.25 1.1-2.4h-.05l-2.6.55" fill="none" stroke="#a27937" stroke-linecap="round" stroke-linejoin="round" stroke-width=".05"/></g><g id="s"><path d="M1.15.65Q-2.15 2.55-2.1.2l1.35-1.7.95.15 1 .15.95.1-.7 1.2-.3.55m-1.7-.4.15-.6q.3-.5 1.2-.9l-.6-.1.6.1.4.05-.4-.05q-.9.4-1.2.9l-.15.6" fill="#fdb0c1" fill-rule="evenodd" transform="translate(2.1 1.5)"/><path d="M3.25 2.15Q-.05 4.05 0 1.7L1.35 0l.95.15.6.1.4.05.95.1-.7 1.2M2.9.25q-.9.4-1.2.9l-.15.6M3.55 1.6l-.3.55z" fill="none" stroke="#000" stroke-linecap="round" stroke-linejoin="round" stroke-width=".05"/></g><path d="M5.75-1.9q2.15.45 2.2 1.35Q8 .3 5.9 1q-2.15.75-5.2.95l-5.25-.3q-2.2-.5-2.2-1.35-.05-.85 2.05-1.6 2.15-.75 5.2-.9l5.25.3" fill="#382c16" fill-rule="evenodd" transform="translate(6.75 2.25)" id="m"/></defs></svg>