<svg viewBox="0 0 255.68 298.85" xmlns="http://www.w3.org/2000/svg" xmlns:xlink="http://www.w3.org/1999/xlink"><use transform="translate(.03)" width="255.65" height="298.85" xlink:href="#a"/><defs><linearGradient id="d" x1="-819.2" x2="819.2" gradientTransform="matrix(.1546 .0415 -.0295 .1101 53.25 -1.15)" gradientUnits="userSpaceOnUse"><stop stop-color="#c8681f" offset="0"/><stop stop-color="#9e321d" offset="1"/></linearGradient><linearGradient id="e" x1="-819.2" x2="819.2" gradientTransform="matrix(.0408 .0234 -.0048 .0083 89.6 -64.6)" gradientUnits="userSpaceOnUse"><stop stop-color="#c8681f" offset="0"/><stop stop-color="#9e321d" offset="1"/></linearGradient><linearGradient id="f" x1="-819.2" x2="819.2" gradientTransform="matrix(.0691 .0185 -.0109 .0407 31.05 -111.2)" gradientUnits="userSpaceOnUse"><stop stop-color="#c8681f" offset="0"/><stop stop-color="#9e321d" offset="1"/></linearGradient><linearGradient id="g" x1="-819.2" x2="819.2" gradientTransform="matrix(-.0032 -.0123 .0023 -.0006 121.1 -35.5)" gradientUnits="userSpaceOnUse"><stop stop-color="#c8681f" offset="0"/><stop stop-color="#9e321d" offset="1"/></linearGradient><linearGradient id="h" x1="-819.2" x2="819.2" gradientTransform="matrix(.0898 .011 -.0068 .0554 49.05 109.3)" gradientUnits="userSpaceOnUse"><stop stop-color="#c8681f" offset="0"/><stop stop-color="#9e321d" offset="1"/></linearGradient><linearGradient id="i" x1="-819.2" x2="819.2" gradientTransform="matrix(.0969 .0081 -.0038 .0454 29.2 49.55)" gradientUnits="userSpaceOnUse"><stop stop-color="#c8681f" offset="0"/><stop stop-color="#9e321d" offset="1"/></linearGradient><g id="a" transform="translate(127.8 149.4)"><use transform="translate(-127.8 -149.4)" width="255.65" height="298.85" xlink:href="#b"/><use transform="scale(-6.343) rotate(29.092 7.254 16.146)" width="3.95" height="5.6" xlink:href="#c"/><use transform="scale(4.5574 -4.5574) rotate(-61.599 -9.47 22.518)" width="3.95" height="5.6" xlink:href="#c"/><use transform="matrix(1.0563 4.4334 4.4334 -1.0563 -67.35 -64.9)" width="3.95" height="5.6" xlink:href="#c"/><use transform="matrix(2.1677 4.0089 4.0089 -2.1677 -59.8 28.7)" width="3.95" height="5.6" xlink:href="#c"/><use transform="matrix(.4184 1.7561 1.7561 -.4184 -69.1 -36.7)" width="3.95" height="5.6" xlink:href="#c"/><use transform="rotate(164.092 -9.941 46.707) scale(4.4572)" width="3.95" height="5.6" xlink:href="#c"/><use transform="matrix(-4.3453 1.2385 -1.2385 -4.3453 5.3 119.35)" width="3.95" height="5.6" xlink:href="#c"/></g><g id="b"><path d="m44.15-91.55 1.1-28.45 6-16.35 4.85 9.85L47-91.05l-2.3 1-.55-1.5m71.7 55.9 6-4.5L119.5-34 108.85-6.15l4.85-20.35 2.15-9.15M7.3-137.35l10.3-7.9-9.6 19-.7-11.1m-32 279.7q-9.15-.05-7.7-5.75 32.4-3.85 58.7 0 3.85 4.5-8.2 5.35-22.15 3.8-42.8.4" fill="#55210f" fill-rule="evenodd" transform="translate(127.8 149.4)"/><path d="m42.5-95.85 1.65 4.3.55 1.5 9.15 23.9V-89l32.1 20.2 30.9 28.9-1 4.25-2.15 9.15Q104.2-.8 90.85 13.35h-7.1l1.55 5.75q-8.4 30.65-29.2 43.95l-4.8-6.75Q37 38.5 16.65 40.9 31.8 16.2-39.25 6.4-15.2-2.8 8.85-7.15q19-3.65 36.9-.95l6.9 1.3-6.9-1.3q-17.9-2.7-36.9.95Q-15.2-2.8-39.25 6.4q-8.95 3.4-17.9 7.45l-3.35 2.65q-5.85 5.6-8.6 16.35l3 10.5h-14l-11.05 4.05-12.75.95q-4.35 0-5.1-2.65-.8-3 1.25-8Q-58.5-4.25 13.3-17.8 68.5-32.85-1.6-101l44.1 5.15M45.25-120 21.2-105.15h-19q22.3-7.2 28.4-23.3l6.5-16.8 14.15 8.9-6 16.35M-6.7-130.1l6.75-15.15-1.7 12.25-5.05 2.9m74.6 128 8.95 3.95 6.9 11.5-6.9-11.5L67.9-2.1q4.05-12.2-8.8-37.9v14.85q-.95 13.3-6.45 18.35 7.7 1.75 15.25 4.7M51.3 56.3q-2.65 46.4-18.2 78.2-5.85-6.7-21.25-6.05 13.75-38.7 12.5-65.4-7.15-7.4-41.55-3.1 12.75-8.85 29.55-12.3 20.4-2.75 38.95 8.65M59.1-40l-5.25-26.15L59.1-40" fill="#683014" fill-rule="evenodd" transform="translate(127.8 149.4)"/><path d="m56.1-126.5 5.9 2.35q-5.1 27.55 0 34.8l-8.15-4.8-6.85 3.1 9.1-35.45m69.8 111.3-4.05 21.05-18.35 14.9 5.35-26.9L119.5-34l6.4 18.8M84.8 33.85l-4.95 11Q70 60.2 54.95 70.35q-5.55 33.85-12.3 56.15-2.85 8.7-6.8 13.1-.9-2.95-2.75-5.1 15.55-31.8 18.2-78.2l4.8 6.75q20.8-13.3 29.2-43.95l1.55 5.75-2.05 9m-28.7 29.2-1.15 7.3 1.15-7.3" fill="#7f3619" fill-rule="evenodd" transform="translate(127.8 149.4)"/><path d="m42.5-95.85-1.65-4.3-15-5H21.2L45.25-120l-1.1 28.45-1.65-4.3m61 116.6-1.65 8.1-9 5H84.8l2.05-9-3.1-11.5h7.1Q104.2-.8 113.7-26.5l-4.85 20.35-5.35 26.9M47-91.05l6.85-3.1v28l-9.15-23.9 2.3-1M67.9-2.1q-7.55-2.95-15.25-4.7 5.5-5.05 6.45-18.35V-40q12.85 25.7 8.8 37.9" fill="#703116" fill-rule="evenodd" transform="translate(127.8 149.4)"/><path d="m25.85-105.15 15 5 1.65 4.3L-1.6-101q70.1 68.15 14.9 83.2-71.8 13.55-121.05 55.5-2.05 5-1.25 8 .75 2.65 5.1 2.65l12.75-.95-14.95 5.45-20-18q-3.5-17.75 10-56l12-19q32.45-34.9 66.7-53.55 12.5-6.8 25.25-11.45h38" fill="url(#d)" fill-rule="evenodd" transform="translate(127.8 149.4)"/><path d="m62-89.35 25.85 15.2 30 30-1 4.25-30.9-28.9L53.85-89v-5.15l8.15 4.8" fill="url(#e)" fill-rule="evenodd" transform="translate(127.8 149.4)"/><path d="m-37.4-93.7 3.8-8.25v-11.8l-2.65-9.85 7.7-6 16.8 2.4 10.1-5.8 1.7-12.25 6.5-3.15.75 11.05.7 11.1 9.6-19h19.5l-6.5 16.8q-6.1 16.1-28.4 23.3h-14.35Q-24.9-100.5-37.4-93.7" fill="url(#f)" fill-rule="evenodd" transform="translate(127.8 149.4)"/><path d="m121.85-40.15 5 20-.95 4.95-6.4-18.8 2.35-6.15" fill="url(#g)" fill-rule="evenodd" transform="translate(127.8 149.4)"/><path d="M35.85 139.6q-3.2 3.55-7.15 4.25-31.15 9.2-59.15 0-8.05-1.45-9.65-11.1l6.25-50.95 4.35-11.05q5.6-6.15 12.3-10.8 34.4-4.3 41.55 3.1 1.25 26.7-12.5 65.4 15.4-.65 21.25 6.05 1.85 2.15 2.75 5.1m-17.75 2.35q12.05-.85 8.2-5.35-26.3-3.85-58.7 0-1.45 5.7 7.7 5.75 20.65 3.4 42.8-.4" fill="url(#h)" fill-rule="evenodd" transform="translate(127.8 149.4)"/><path d="m-33.85 81.8-7.7-2.9q-13.6-9.7-21.55-25.05l-6-21q2.75-10.75 8.6-16.35l3.35-2.65q8.95-4.05 17.9-7.45 71.05 9.8 55.9 34.5Q37 38.5 51.3 56.3q-18.55-11.4-38.95-8.65-16.8 3.45-29.55 12.3-6.7 4.65-12.3 10.8l-4.35 11.05" fill="url(#i)" fill-rule="evenodd" transform="translate(127.8 149.4)"/><path d="m153.65 44.25 15 5 3.3 8.6 1.1-28.45L149 44.25m34.9-21.35 5.9 2.35q-5.1 27.55 0 34.8l25.85 15.2 30 30-2 8.5 6-4.5 5 20-.95 4.95-4.05 21.05-18.35 14.9-1.65 8.1-9 5h-8.05l-4.95 11q-9.85 15.35-24.9 25.5-5.55 33.85-12.3 56.15-2.85 8.7-6.8 13.1-3.2 3.55-7.15 4.25-31.15 9.2-59.15 0-8.05-1.45-9.65-11.1l6.25-50.95-7.7-2.9q-13.6-9.7-21.55-25.05l-3-10.5h-14l-11.05 4.05-14.95 5.45-20-18q-3.5-17.75 10-56l12-19q32.45-34.9 66.7-53.55l3.8-8.25v-11.8l-2.65-9.85 7.7-6 16.8 2.4 5.05-2.9 6.75-15.15 6.5-3.15.75 11.05 10.3-7.9h19.5l14.15 8.9 4.85 9.85-9.1 35.45 6.85-3.1 8.15 4.8m-10.75-47-6 16.35m-.55 29.95 9.15 23.9v-28m-9.15 4.1 2.3-1m-2.85-.5.55 1.5m71.15 54.4-2.15 9.15-4.85 20.35 10.65-27.85 2.35-6.15m-38.1 53.5-6.9-11.5-8.95-3.95q-7.55-2.95-15.25-4.7l-6.9-1.3q-17.9-2.7-36.9.95-24.05 4.35-48.1 13.55-8.95 3.4-17.9 7.45l-3.35 2.65q-5.85 5.6-8.6 16.35l3 10.5m117.4 12.95 4.8 6.75m29.2-43.95-1.55-5.75h7.1Q232 148.6 241.5 122.9m-45.8 24.4q4.05-12.2-8.8-37.9v14.85q-.95 13.3-6.45 18.35m32.15 40.65 2.05-9-1.55-5.75m-30.35 51.25 1.15-7.3m-73.3-3.1q-6.7 4.65-12.3 10.8l-4.35 11.05m142.7-87.95-5.35 26.9m-49.65-86.9 5.25 26.15m-51.8-97.35.7 11.1 9.6-19M121.1 19.3l5.05-2.9 1.7-12.25m-12.2 40.1Q102.9 48.9 90.4 55.7m12.7 236.05q-9.15-.05-7.7-5.75 32.4-3.85 58.7 0 3.85 4.5-8.2 5.35m33.2-85.65q-18.55-11.4-38.95-8.65-16.8 3.45-29.55 12.3M149 44.25h4.65m-23.65 0h19m-19 0h-14.35" fill="none" stroke="#1a1306" stroke-linecap="round" stroke-linejoin="round" stroke-opacity=".4" stroke-width="2"/><path d="M121.45-18.65q-3.15 9.2-6.1 19.6l-6.4-6.55 7.4-19.3q3.1 2.8 5.1 6.25m-1.5 25.25-1.6-2.05q3.9-8.45 5.15-18.45l.1.45q.6 2.1.1 4.7-1.6 7.9-3.75 15.35m-7-34.35-4.3 21.9Q101.3-12.5 92.3-17.5q-12.7-6.9-26.75-10.4l-5.1-9-.4-.15q1.1 3.9 2.75 8.5-47.15-11.05-89.35 13.1Q-44.8-5-55.5 11.65l-1.95 2.7q-4.95 1.55-8.25 6.8-.25-27.35 22.75-44.25Q2.9-56.8 58.85-54.45q31.05 8.45 54.1 26.7M40 111.6l-5.6 16.5q-2-2.15-4.75-3.6-33.7-11.1-65.8 3.7 2.1-11.45 2.4-25.95 2.15-1.3 4.55-2.25 37.6-14.7 70.25 6.75L40 111.6m1.95 6.35q1.15-4.6 1.8-9.4l1.3.95q.25 13.75-6.35 26.2l-.5-1.4-.4-1q2.8-7.6 4.15-15.35m-79.45-12.9 3-2.3-2.85 26-3.2 1.55q.45-12.7 3.05-25.25" fill="#cdbc5c" fill-opacity=".502" fill-rule="evenodd" transform="translate(127.8 149.4)"/><path d="M82.15 20.1Q77.9 32.85 70.2 44.25l-6.4-3.5Q35 28.5 3.5 31.35q-34.85 3.1-53.8 30.75-2.35 3.4-2.95 7.65-15.3-10.9-2.65-24.9Q-31.1 17.35 6 10.6q39.5-7.05 74.95 8.9l1.2.6m-4.9 26.2q-.75.85-1.85.8l-3.3-1.8q9.85-8.9 13.4-22.3 3.45 4.9-1.3 13.7-2.85 5.35-6.95 9.6M-60.3-69.7q-17.35 25.2-29.85 53.2-12.55 28.1-4.3 56.4l.7 1.85-6.95.7q-3 .45-6.6-.05-8.1-4.05-13.8-11.5-.25-4.5.95-9.7 2.3-10.1 5.15-20.3 6.8-24.25 19.6-43.6l41.25-36.1-6.15 9.1m7.25-10.7q-17 8.55-30.15 21.8Q-68.6-75-48.6-87.05l-4.45 6.65m-67.9 112.85q5.8 8.05 13.6 13.25l.7.6h6.5l7-3.45 1.75 2.25q-1.6.65-3.2 1.45-5.3 2.95-11.2 5.15-2.5.9-4.4-1.45-3.05-3.7-6.55-6.95-3.55-4.7-4.2-10.85" fill="#cb7d5e" fill-opacity=".498" fill-rule="evenodd" transform="translate(127.8 149.4)"/></g><g id="j" fill-rule="evenodd"><path d="M2.25 4.85H2.2l.15-.1-.1.1M3.6.15h-.05.05" fill="#4d3434"/><path d="m2.2 4.85-1.05.05Q.8 4.4.85 3.55t.6-1.75q.5-.9 1.2-1.4.5-.3.9-.25h.05q.45.3.35 1.25-.05 1-.7 2.15l-.9 1.2-.15.1" fill="#8e3a28"/><path d="M3.55.15q-.4-.05-.9.25-.7.5-1.2 1.4-.55.9-.6 1.75t.3 1.35l1.05-.05h.05l-.5.35q-.8.6-1.3.3Q-.1 5.2 0 4.2t.75-2.1Q1.4.95 2.2.4 3-.2 3.55.15" fill="#552314"/></g><use width="3.95" height="5.6" xlink:href="#j" id="c"/></defs></svg>