<svg viewBox="0 0 223.15 201.07" xmlns="http://www.w3.org/2000/svg" xmlns:xlink="http://www.w3.org/1999/xlink"><use width="223.15" height="201.05" xlink:href="#a"/><defs><g id="a"><path d="m357.25 218.3 2.9 3.65q.3-1.85 1.3-3.5 3.45-5.7 3.15-12 .05-6.95 2.45-13.3 1.4-3.7 5.2.45 2.1 2.3 2.4 5.6.6 6.5 4.5 11.75 4.1 5.4 8.35 10.1 1.85 2.05 2.5 5 1.65 7.15 7.1 9.85 2.35 1.15 3.35 2.95-3.2-.45-7 .6-.45 3.8-.1 6.35l.4 3.1q.6 5.55-6.15 7.45-2.65.75-5.45 2.35-2.65 1.45-1.65 4.6l-27.6-15.15 4.35-29.85m48.05 21.55-10.4-20.3-10.35-20.25q5.7 1.3 7-1.6l.3-1.15V185.4q6.5 2.65 6.8 9.35.25 6.5 6.7 9.8 4.05 2.1 7.85 3.25-.15 5.4-6.4 9.7-1.6 1.1-1.55 3.4l.05 12.4v6.55m-103.4-7.9V217.8l4.15-3.1v4.5q.1 5.35 5.55 5.7 1.8.1 1.7-2.6-.3-6.8.45-13.45 1.1-9.75 4.75-.1 2.25 5.95 2 12.85-.15 4.7 3.35 1 3.35-3.5 3.9-7.55 2.4 6.4 7.85 8.5 2.75 1 3.5-2.05 2.6-10.9 10.1-2.5 3.75 4.2 2.65 10.55-1.15 6.95-2.85 13.9-.6 2.55-2.6 3.7-2.5 1.45-5.2 3.75l-.65.35-1.75 7.4q-5.2-.85-6.55 2.95-.9 2.7-2.7 3.35-4.65 1.7-4.95 6.6-.4 6.55-3.05 13.5-5.05 0-9.15 2.25-4.7 2.55-9.9 3.25-4.1.5-4.15-3.45-.05-6.85 2.75-12.5l15.7-21.75-2.5-3.35-8.25-11v-17.25l-4.15 10.7m33.1 14.8h-7.25l-6.55 12.1 13.8-12.1m39.3 39.3-11.75-18.6h15.2l8.2 14.8 2.1 3.8 1.65 1.05q-3.9 1.75-7.8 1.45 2.4-1.1 6.15-2.5-2.6-1.05-2.2-3.4l.1-.4-1.55-1.85q-3.8-3.95-10.45-5.05 2.05 5.15 3.55 12.25-1.6-.6-3.2-1.55m-104.1-.7-10.4-19.7.15-.35-4.9-9.6 12.95-7.2 4.3-2.45 3.4 17.8.05.25 4.8 25.4-.8-.3v-3.8l-.9-1.4v-3.4l-5.55-3.5v-12.05l-6.55-9.35H264v1.75l8.25 10v8.6Q270 273 269.5 274.7l-3.8-4.15 2.25 7.4.9 3 .25.7 1.1 3.7m-40-68.25-6.2-5.6q3.05-6.35 3.45-13.05.45-7.2-.55-11.85-.9-3.95 2.65-5.95 1.25-.7 3.4-.75l-2.75 7.6v29.6m151.55 71.45q-2.1-.2-4.2-.95 2.8-.55 4.2.95m6.3-2.5-2.2-3.4 2.2 3.4M370.5 218.5l-12.45 25.85 16.2 9.65-3.75-35.5m-116.1-12.85 1.85 8.9h-.05q-2.1-4.8-1.8-8.9m4.05 21.35v7.35q-1-4.65 0-7.35m1.8 5.1h.05l.2-.7v.05l-.2.6v.05l-.35 1.05.3-1.05m57.15 10.55 17.25-8.95-21.4 4.1 4.15 4.85m-58.2-7.2-.1.35.1.25-.25.1-.05.25v-.1l.2-.55.1-.3m-13.55 7.95q1.8 6.7.75 11.65l-.1-2v-.7q.2-1.8-.25-2.55.45.75.25 2.55v.7l-.25-3.25-.4-6.4m13.45-7.6v-.05.05m-.2.5.05-.15-.05.15m-.15.45.05-.15-.05.15m13.5 3.1q-4.25-6.15 0-11.35v11.35h5.5v6.9l3.1 2.4v3.15h6.2q-3.6.8-6.2 0-2.5.6-2.95-2.25-1.15-6.85-5.65-10.2" fill="#ff3" fill-rule="evenodd" transform="translate(-207.65 -147.7)"/><path d="m357.75 215.05 4.3-29.6.5-3.5q10.1-7.25 12.4-1.35l5.85 23.75 14.1 15.2 10.4 20.3-1.4 11.05-8.25-9.65 2.75 12.4-6.25 3.4q-.5.15-.9.4v.1l-10.75 5.75q-1-3.15 1.65-4.6 2.8-1.6 5.45-2.35 6.75-1.9 6.15-7.45l-.4-3.1q-.35-2.55.1-6.35 3.8-1.05 7-.6-1-1.8-3.35-2.95-5.45-2.7-7.1-9.85-.65-2.95-2.5-5-4.25-4.7-8.35-10.1-3.9-5.25-4.5-11.75-.3-3.3-2.4-5.6-3.8-4.15-5.2-.45-2.4 6.35-2.45 13.3.3 6.3-3.15 12-1 1.65-1.3 3.5l-2.9-3.65.5-3.25m26.8-15.75 2.1-15.55 5.2-4.55 13.4 9.65 14.05 17.5-3 13.45-11 20.05v-6.55l-.05-12.4q-.05-2.3 1.55-3.4 6.25-4.3 6.4-9.7-3.8-1.15-7.85-3.25-6.45-3.3-6.7-9.8-.3-6.7-6.8-9.35v11.15l-.3 1.15q-1.3 2.9-7 1.6m-78.5 3.45q.3-11.95 8.6-13.9 26.35 11.2 42.6 29.45l-9.15 33.95-6.9-1.35q2.7-2.3 5.2-3.75 2-1.15 2.6-3.7 1.7-6.95 2.85-13.9 1.1-6.35-2.65-10.55-7.5-8.4-10.1 2.5-.75 3.05-3.5 2.05-5.45-2.1-7.85-8.5-.55 4.05-3.9 7.55-3.5 3.7-3.35-1 .25-6.9-2-12.85-3.65-9.65-4.75.1-.75 6.65-.45 13.45.1 2.7-1.7 2.6-5.45-.35-5.55-5.7v-4.5l-4.15 3.1v14.15h-3.1v-3.45h-1.4v-2.75l-4.8-5.55v-2.75l-2.1-3.1-3.45 2.45h-4.1v6.2h-4.85l-3.1-5.2-1.9-8.25v-.05.05l1.9 8.25 3.1 5.2h4.85v-6.2h4.1l3.45-2.45 2.1 3.1v2.75l4.8 5.55v2.75h1.4v3.45h3.1q-2.65 7.3-7.1-.45-3.2-5.6-6.2-11.85-1.1 4.65-5.1 5.55-7.2 1.55-10.55-3.25 3.35 4.8 10.55 3.25 4-.9 5.1-5.55 3 6.25 6.2 11.85 4.45 7.75 7.1.45l4.15-10.7v17.25l8.25 11-11.7 10.35-3.25-6.35-4.1 1.8-.2.1-21.05-.45-1.7-8.9-4.3 2.45-4.75-10.15q-.45 1.75-1.25 1.6l-.1.25-.05-.3-1.55-7.8h-.05l-1.8 2.25v-8.95l-2.2-10.85 2.2 10.85v1.6q-3.65-5.8-2.25-12.45h.05l-1.85-8.9v-.05l-.4-1.9q-.75-.15-1.75-2.1l-9.65-14.45v10.35l3.05 45.9-3.05-45.9v-10.35l9.65 14.45q1 1.95 1.75 2.1l.4 1.9q-2.45-.7-3.35-1.3-6.05-4.05-5.7 3.15.45 8.35 1.2 16.65.9 9.55-.9 19.3l.4 6.4q-.3-.6-1-.65-.95.9-2.8-2.05l-4.45-5.15v-2.1 2.1l4.45 5.15q1.85 2.95 2.8 2.05.7.05 1 .65l.25 3.25.1 2-3.05-4.65q-7.1-3.35-5.55-10.55-1.95-6.85-2.2-13.75l-.15-13.1q.05-6.95-.95-13.7l-1.9-13.7q1.55-1.05 3.1-1.6 6.2-2.25 12.4 3.5l17.95 26.85-2.45 7.55-1.35 14.4-1.95-4.2 1.95 4.2 1.35-14.4 7.65-7.25 1.75-4.75.1-.4 7.45-3.75q14.95-.75 25.5 3.8v-6.8m-4.95 71.85q-2.8 5.65-2.75 12.5.05 3.95 4.15 3.45 5.2-.7 9.9-3.25 4.1-2.25 9.15-2.25 2.65-6.95 3.05-13.5.3-4.9 4.95-6.6 1.8-.65 2.7-3.35 1.35-3.8 6.55-2.95l-1.6 6.6-14.25 27.35-5.2 1.05-22.1-1.75v-9.85l5.45-7.45M224 211.5l-3.95-3.55V192.3l1.55-3.95-1-1.9q1.4-5.95 5.4-9.55l2.75-7q7.2-2.55 6.95 2.4-5.95 1.3-9.7 4.6 3.75-3.3 9.7-4.6l-2.75 7.6q-2.15.05-3.4.75-3.55 2-2.65 5.95 1 4.65.55 11.85-.4 6.7-3.45 13.05V193l-2.4-4.65L224 193v18.5m153.55 76.1h-.05q-1.5-7.1-3.55-12.25 6.65 1.1 10.45 5.05l1.55 1.85-.1.4-1.45-2.25-6.85 7.2M221.6 188.35l4.4-11.45-4.4 11.45m38.9 43.05-.2.7q.75.15.2-.65v-.05M235.7 184l2.1 12.45v43.4-43.4L235.7 184m37.4 25.55-.1.35.1-.35m-12.05 20.2-.2.65.2-.65m1.85 7.85-.65-1.3.65 1.3.7-2 7.65-20.95-7.65 20.95-.7 2-.9 2.35h-.05l-.1-.05.1.05.3-3.65-.3 3.65h.05l.9-2.35.35.75-.35-.75m-1 2.6.05-.25-.05.25m10.35-.35V228.5q-4.25 5.2 0 11.35 4.5 3.35 5.65 10.2.45 2.85 2.95 2.25 2.6.8 6.2 0h-6.2v-3.15l-3.1-2.4v-6.9h-5.5m-1-15.45q-3.9 5.45-7.65 11.2 3.75-5.75 7.65-11.2m1 4.1 4.15-.35q11.15 8.65 10.65 24.15.5-15.5-10.65-24.15l-4.15.35m-3.8 15.15-4.85-8.05 4.85 8.05m-4.85-8.05-.35 2.75.35-2.75m4.35 42.35-2.25-7.4 3.8 4.15q.5-1.7 2.75 1.35v-8.6l-8.25-10v-1.75h2.75l6.55 9.35v12.05l5.55 3.5v3.4l.9 1.4v3.8l-.05-.05-11.75-11.2m-30.15-36 5.55 8.45-5.55-8.45" fill="#c93" fill-rule="evenodd" transform="translate(-207.65 -147.7)"/><path d="M323.95 179.4q3.45 1.65 6.9 5.35l26.9 30.3-.5 3.25q-16.25-18.25-42.6-29.45-8.3 1.95-8.6 13.9v-13.1q8.6-9.65 17.15-10.55h.05l.7.3m51 1.2 9.6 18.7 10.35 20.25-14.1-15.2-5.85-23.75m11.7 3.15 2.1-15.55 17 10.65.6.4 15.5 30.3-5.55 10.25 3-13.45-14.05-17.5-13.4-9.65-5.2 4.55m-80.6 25.8q-10.55-4.55-25.5-3.8l-7.45 3.75-.1.4-1.75 4.75-7.65 7.25 2.45-7.55 8.25-25.5q2.85 4 7.3 4.75l24.45 15.95m31.15 55.7-4.95 20.8q-2.7 4.6-9.3 6.55l14.25-27.35m-77.4.4-3.4 7.3-26.2-26.2V187.5l2.4-1.9 1.9 13.7q1 6.75.95 13.7l.15 13.1q.25 6.9 2.2 13.75-1.55 7.2 5.55 10.55l3.05 4.65q1.05-4.95-.75-11.65 1.8-9.75.9-19.3-.75-8.3-1.2-16.65-.35-7.2 5.7-3.15.9.6 3.35 1.3v.05q-.3 4.1 1.8 8.9-1.4 6.65 2.25 12.45-1 2.7 0 7.35l.65 1.4-.2.55v.1l.05-.25.25-.1-.1-.25.1-.35.75-2.3.35-1.05.1-.35.1-.3q.55.8-.2.65l1.55 7.8q-1.05-.4-2.65-3.85 1.6 3.45 2.65 3.85l.05.3.1-.25q.8.15 1.25-1.6L268 248.5l-12.95 7.2 4.9 9.6-.15.35m-39.75-57.7-11.9-10.8 12.4-46.25q5.85 19.8 8.2 19l-2.75 7q-4 3.6-5.4 9.55l1 1.9-1.55 3.95v15.65m161.85 80.6h-.15q-1.4-1.5-4.2-.95l6.85-7.2 1.45 2.25q-.4 2.35 2.2 3.4-3.75 1.4-6.15 2.5m-86.25-6.5v9.85l22.1 1.75q-9.3 5.2-27.5 2.75v-6.9l5.4-7.45M275 204.35l-1.9 5.15 1.9-5.15m-16.25 32.4.05-.15-.05.15m16.95 27.1-1.7-8.9 21.05.45-19.25 8.65-.1-.2m-6.6 17.8-.25-.7-.9-3 11.75 11.2-9.5-3.8-1.1-3.7" fill="#993" fill-rule="evenodd" transform="translate(-207.65 -147.7)"/><path d="m335 246.75-13.8 12.1 6.55-12.1H335m35.5-28.25 3.75 35.5-16.2-9.65 12.45-25.85m-53.1 24.15-4.15-4.85 21.4-4.1-17.25 8.95" fill="#fff" fill-rule="evenodd" transform="translate(-207.65 -147.7)"/><path d="M323.95 179.4q7.5 3.2 11.55-.3 7-3.5 4.1-7.05l-10.15-7.95q37.6-2.25 68.3-15.9l18.1 36.2 6 25.15-15.5-30.3h.05l-.65-.4-17-10.65-4.2 31.1-9.6-18.7q8.8-1.25 8.8-11.3l-36.2 6.9q3.05 8.8 14.5 9.25l-4.3 29.6-26.9-30.3q-3.45-3.7-6.9-5.35m-33.5-15.85-28.4 20.9-27.6-22.1 10 12.1q4.3 12.5 15.85 23.8 7.6-.65 14-9.4l7.3 4.75q3.65.65 8.35-.85l10.35-3.1h5.75v19.9L281.6 193.6q-4.45-.75-7.3-4.75l-8.25 25.5-17.95-26.85q-6.2-5.75-12.4-3.5-1.55.55-3.1 1.6l-2.4 1.9 5.5-15.2q.25-4.95-6.95-2.4-2.35.8-8.2-19 37.15 9.95 69.9 12.65m47.5 118.8q14.45-8 28.95-.9-14.5-3.6-28.95.9m51.8 4.8 17.6 11.3 7.45 22.7 4.3 13.15q-62.7 7.2-123.8 4.85l-17.8-.9-43.8-3.95 6-20.9 3.65-12.9q1.75-4.75 4.05-7.9-2.8 9.5 13.25 0-11 16.3 0 29.8 37.7 7.1 70.7-6.2 18.05 13.15 42.4 11 18.6-8.25 25.5-23.1.55-8.5-9.5-16.95m-110 2.05.8.3-.25.25-.6-.6.05.05" fill="#c33" fill-rule="evenodd" transform="translate(-207.65 -147.7)"/><path d="m329.45 164.1 10.15 7.95q2.9 3.55-4.1 7.05-4.05 3.5-11.55.3l-.7-.3h-.05q-8.55.9-17.15 10.55h-5.75l-10.35 3.1q-4.7 1.5-8.35.85l-7.3-4.75q-6.4 8.75-14 9.4-11.55-11.3-15.85-23.8l-10-12.1 27.6 22.1 28.4-20.9q20.35 1.7 39 .55m32.6 21.35q-11.45-.45-14.5-9.25l36.2-6.9q0 10.05-8.8 11.3-2.3-5.9-12.4 1.35l-.5 3.5m-29.8 100.6 5.7-3.7q14.45-4.5 28.95-.9 3.7 1.8 7.4 4.6 1.6.95 3.2 1.55h.05q2.1.75 4.2.95l.05.05.1-.05q3.9.3 7.8-1.45l.05.05q10.05 8.45 9.5 16.95-6.9 14.85-25.5 23.1-24.35 2.15-42.4-11-33 13.3-70.7 6.2-11-13.5 0-29.8-16.05 9.5-13.25 0 8.05-11.1 22.8-2.4v-4.85l9.5 3.8.6.6.25-.25h9.7v6.9q18.2 2.45 27.5-2.75l5.2-1.05q6.6-1.95 9.3-6.55" fill="#930" fill-rule="evenodd" transform="translate(-207.65 -147.7)"/><path d="M420.3 238.2q-2.25 6-5.85 0v-5.5q3.6 10.3 1.85-12.85l1.25 3.75q1.9 20.15 2.75 8.4v6.2m-72.2 14.05 9.15-33.95-4.35 29.85 27.6 15.15q-6.15 6.45-14.35-2.35 10.95 2-8.75-6.95l-9.3-1.75m66.7 68.9q5.1 1.2 8.75 3.95-5.8 9.1 6.75 15.55-28.35 4.9-70.35 4.5-28.5-1.95-64.65-6 61.1 2.35 123.8-4.85l-4.3-13.15m-186.6 1.35q4.7-4.55 11.5-9.1l-6 20.9 43.8 3.95q-5.65 5.45-20.85 8.1-17.3 1.2-33.55-8.8-2.4-4.45 5.1-15.05m22.5-55.25q7.95 12.35 6.15 15.15-7.65 7.1-11.7 0 .2-7.7 4.15-8.95 4.35-2.2-4.3-11.9l5.7 5.7m-36.6-64.7 3.8 13.65q.7 4.95 3.1 8.6l-5.15 3.8q-5.9-1.55-1.75-6.9v-19.15" fill="#690" fill-rule="evenodd" transform="translate(-207.65 -147.7)"/><path d="M423.55 325.1q4.65 3.55 6.75 9.7v5.85q.2 3.75-30 6.2l-40.35-1.7q42 .4 70.35-4.5-12.55-6.45-6.75-15.55M295.3 339.15q-14.3 5-38.65 7.2l-18.4 1.2q-5.65 2.9-20.35-5.85.45-9.6 10.3-19.2-7.5 10.6-5.1 15.05 16.25 10 33.55 8.8 15.2-2.65 20.85-8.1l17.8.9" fill="#063" fill-rule="evenodd" transform="translate(-207.65 -147.7)"/><path d="M226 176.9q3.75-3.3 9.7-4.6m-14.1 16.05-1-1.9q1.4-5.95 5.4-9.55m-4.4 11.45L224 193v18.5m21.65 31.9-3.05-45.9v-10.35l9.65 14.45q1 1.95 1.75 2.1l.4 1.9m0 .05 1.85 8.9 2.2 10.85v8.95l1.8-2.25h.05m-22.5 7.75v-43.4L235.7 184m10.35 65.8q.45.75.25 2.55v.7l.1 2m-8.6-15.2v2.1l4.45 5.15q1.85 2.95 2.8 2.05.7.05 1 .65l-.4-6.4m.65 9.65-.25-3.25m-2.7.6-5.55-8.45" fill="none" stroke="#c90" stroke-linecap="round" stroke-linejoin="round" transform="translate(-207.65 -147.7)"/><path d="m357.25 218.3 2.9 3.65q.3-1.85 1.3-3.5 3.45-5.7 3.15-12 .05-6.95 2.45-13.3 1.4-3.7 5.2.45 2.1 2.3 2.4 5.6.6 6.5 4.5 11.75 4.1 5.4 8.35 10.1 1.85 2.05 2.5 5 1.65 7.15 7.1 9.85 2.35 1.15 3.35 2.95-3.2-.45-7 .6-.45 3.8-.1 6.35l.4 3.1q.6 5.55-6.15 7.45-2.65.75-5.45 2.35-2.65 1.45-1.65 4.6m24.8-23.45v-6.55l-.05-12.4q-.05-2.3 1.55-3.4 6.25-4.3 6.4-9.7-3.8-1.15-7.85-3.25-6.45-3.3-6.7-9.8-.3-6.7-6.8-9.35v11.15l-.3 1.15q-1.3 2.9-7 1.6M273.1 209.5v.05l1.9 8.25 3.1 5.2h4.85v-6.2h4.1l3.45-2.45 2.1 3.1v2.75l4.8 5.55v2.75h1.4v3.45h3.1V217.8l4.15-3.1m0 4.5q.1 5.35 5.55 5.7 1.8.1 1.7-2.6-.3-6.8.45-13.45 1.1-9.75 4.75-.1 2.25 5.95 2 12.85-.15 4.7 3.35 1 3.35-3.5 3.9-7.55 2.4 6.4 7.85 8.5 2.75 1 3.5-2.05 2.6-10.9 10.1-2.5 3.75 4.2 2.65 10.55-1.15 6.95-2.85 13.9-.6 2.55-2.6 3.7-2.5 1.45-5.2 3.75m-40.1 23.7q-2.8 5.65-2.75 12.5.05 3.95 4.15 3.45 5.2-.7 9.9-3.25 4.1-2.25 9.15-2.25 2.65-6.95 3.05-13.5.3-4.9 4.95-6.6 1.8-.65 2.7-3.35 1.35-3.8 6.55-2.95m43.1 29.9-.1.05-.05-.05m-4.2-.95h-.05q-1.5-7.1-3.55-12.25 6.65 1.1 10.45 5.05l1.55 1.85-.1.4m-3.95 5.9q2.4-1.1 6.15-2.5-2.6-1.05-2.2-3.4m-8.3 4.95q2.8-.55 4.2.95M224 211.5q3.05-6.35 3.45-13.05.45-7.2-.55-11.85-.9-3.95 2.65-5.95 1.25-.7 3.4-.75m21.45 25.7v.05q-.3 4.1 1.8 8.9-1.4 6.65 2.25 12.45-1 2.7 0 7.35l.65 1.4v.05l.1.25q1.6 3.45 2.65 3.85l-1.55-7.8m.2-.7v.05q.55.8-.2.65m12.65-10.15q3.35 4.8 10.55 3.25 4-.9 5.1-5.55 3 6.25 6.2 11.85 4.45 7.75 7.1.45l4.15-10.7M273.1 209.5l1.9-5.15m-2 5.55.1-.35m-27.45 33.85q1.8-9.75.9-19.3-.75-8.3-1.2-16.65-.35-7.2 5.7-3.15.9.6 3.35 1.3m6.45 24.8.2-.65m-15.4 13.65q1.8 6.7.75 11.65l-3.05-4.65q-7.1-3.35-5.55-10.55-1.95-6.85-2.2-13.75l-.15-13.1q.05-6.95-.95-13.7l-1.9-13.7m30.3 52 .7-2 7.65-20.95m-12.3 21.5-.05.15m4.35 2.05q-.45 1.75-1.25 1.6l-.1.25-.05-.3.1.05m.05 0h-.05m.95-2.35-.9 2.35m10.25-.1V228.5q-4.25 5.2 0 11.35h5.5v6.9l3.1 2.4v3.15h6.2q.5-15.5-10.65-24.15l-4.15.35m-8.65 7.1q3.75-5.75 7.65-11.2m-8 13.95.35-2.75m8.65 4.25q4.5 3.35 5.65 10.2.45 2.85 2.95 2.25 2.6.8 6.2 0m-19.1 25.65-2.25-7.4 3.8 4.15q.5-1.7 2.75 1.35v-8.6l-8.25-10v-1.75h2.75l6.55 9.35v12.05l5.55 3.5v3.4l.9 1.4v3.8m-10.9-8.25-.9-3m2.25 7.4-1.1-3.7" fill="none" stroke="#c93" stroke-linecap="round" stroke-linejoin="round" transform="translate(-207.65 -147.7)"/><path d="m394.9 219.55-14.1-15.2-5.85-23.75m11.7 3.15 5.2-4.55 13.4 9.65m14.05 17.5-3 13.45m-59.05-1.5q-16.25-18.25-42.6-29.45-8.3 1.95-8.6 13.9v.55m0 6.25q-10.55-4.55-25.5-3.8l-7.45 3.75m75 42.75 9.15-33.95m28.6 64.35-1.45-2.25-6.85 7.2m8.3-4.95 2.2 3.4M228.75 169.9l-2.75 7-4.4 11.45m-1.55 19.6V192.3l1.55-3.95m38.7 43.75 1.95 4.2 1.35-14.4 7.65-7.25 1.75-4.75.1-.4m22.55 72.55v9.85l22.1 1.75m5.2-1.05 14.25-27.35m-74.95-28.95.65 1.3m-.95 2.35.3-3.65m-.3 3.65-.05.25m1.35-1.85-.35-.75m.7-2 4.85 8.05m26.6 11.75-21.05-.45m-4.9 26.7-.25-.7m-.9-3 11.75 11.2m15.55-33.85-.2.1m-31.8-17.05L268 248.5" fill="none" stroke="#990" stroke-linecap="round" stroke-linejoin="round" transform="translate(-207.65 -147.7)"/><path d="m335 246.75-13.8 12.1 6.55-12.1H335m35.5-28.25 3.75 35.5-16.2-9.65 12.45-25.85m-53.1 24.15 17.25-8.95-21.4 4.1 4.15 4.85" fill="none" stroke="#fff" stroke-linecap="round" stroke-linejoin="round" transform="translate(-207.65 -147.7)"/><path d="M414.45 232.7q3.6 10.3 1.85-12.85l1.25 3.75q1.9 20.15 2.75 8.4v6.2q-2.25 6-5.85 0v-5.5M214.1 202.55l3.8 13.65q.7 4.95 3.1 8.6l-5.15 3.8q-4-1.05-3.35-3.85.25-1.3 1.6-3.05v-19.15" fill="#f4ffc8" fill-rule="evenodd" transform="translate(-207.65 -147.7)"/><path d="m329.45 164.1-13.15.45-25.85-1-23.05-2.7q-22.5-3.4-46.85-9.95l-12.4 46.25 5.95 5.4 16.1 14.55v29.65l14.8 14.8q8.65 9.7 4.3 11.9-3.95 1.25-4.15 8.95l.3.5.15.2q4 6.05 11.25-.7 1.8-2.8-6.15-15.15l5.7 5.7 3.4-7.3 10.4 19.7v4.85q-14.75-8.7-22.8 2.4l-1.3 2q-1.5 2.55-2.75 5.9l-3.65 12.9q-6.8 4.55-11.5 9.1-9.85 9.6-10.3 19.2 14.7 8.75 20.35 5.85l18.4-1.2q24.35-2.2 38.65-7.2 36.15 4.05 64.65 6l40.35 1.7q30.2-2.45 30-6.2v-5.85q-2.1-6.15-6.75-9.7-3.65-2.75-8.75-3.95l-7.45-22.7-17.6-11.3-.05-.05-1.65-1.05-10.3-18.6h-15.2l11.75 18.6q-3.7-2.8-7.4-4.6-14.5-7.1-28.95.9l-5.7 3.7 8.3-34.8.65-.35 16.2 3.1q19.7 8.95 8.75 6.95 8.2 8.8 14.35 2.35l10.75-5.75v-.1q.4-.25.9-.4l6.25-3.4-2.75-12.4 8.25 9.65 1.4-11.05 16.55-30.3-6-25.15-18.1-36.2q-30.7 13.65-68.3 15.9m52.3 124.45h.15l-.1.05-.05-.05m-105.95-24.5 23.55-10.55 3.25 6.35 11.7-10.35 2.5 3.35-26.55 36.65h-9.7l-4.8-25.4-.05-.25.1.2" fill="none" stroke="#030" stroke-linecap="round" stroke-linejoin="round" stroke-opacity=".702" transform="translate(-207.65 -147.7)"/></g></defs></svg>