<svg viewBox="0 0 123.46 141.75" xmlns="http://www.w3.org/2000/svg" xmlns:xlink="http://www.w3.org/1999/xlink"><g transform="translate(-273.73 -61.246)"><use transform="matrix(5.3198 -8.2575 7.8929 5.5395 270.22 91.902)" width="3.85" height="5.1" xlink:href="#a"/><use transform="matrix(1.2127 -3.0315 -2.8729 -.8029 315.88 172.07)" width="24.25" height="18" xlink:href="#b"/><use transform="matrix(-2.101 -2.391 -2.251 2.0452 417.8 139.69)" width="34.8" height="35.3" xlink:href="#c"/></g><defs><use width="3.85" height="5.1" xlink:href="#d" id="a"/><use width="24.25" height="18" xlink:href="#e" id="b"/><use width="34.8" height="35.3" xlink:href="#f" id="c"/><g id="d"><path d="m-1.05 4.4-.7.15-.4-.05-.6-.6-.1-.3.4-.15.85-.5L-.45.05h.2l.75-.1q0 2.7-1.55 4.45" fill="#c7980a" fill-rule="evenodd" transform="translate(3.1 .55)"/><path d="m-.75-.2.15-.15.7-.2.65.25v.7q0 1.7-.7 2.95l-1.1 1.05Q.5 2.65.5-.05l-.75.1-.5-.25" fill="#f3e074" fill-rule="evenodd" transform="translate(3.1 .55)"/><path d="m-2.85 3.6-.25-.5.8-.95.65-1.65.9-.7.5.25h-.2l-1.15 2.9-.85.5-.4.15" fill="#9c7809" fill-rule="evenodd" transform="translate(3.1 .55)"/><path d="M3.85.25v.7M1.35 5.1l-.4-.05M2.35.35 2.5.2l.7-.2.65.25m0 .7q0 1.7-.7 2.95l-1.1 1.05-.7.15m-.4-.05-.6-.6-.1-.3-.25-.5.8-.95.65-1.65.9-.7" fill="none" stroke="#080808" stroke-linecap="round" stroke-linejoin="round" stroke-opacity=".302" stroke-width=".05"/><path d="m-.3 1.1.25-.15.3.15.1.35-.1.35-.3.15-.25-.15-.15-.35.15-.35" fill="#080839" fill-rule="evenodd" transform="translate(3.1 .55)"/><path d="m-.05 1.4.15-.1.1.1.05.1-.05.15-.1.05-.15-.05-.05-.15.05-.1" fill="#fff" fill-opacity=".6" fill-rule="evenodd" transform="translate(3.1 .55)"/><path d="m-.05 2.6.15.05v.25l-.25.3-.2.2-.2-.05.05-.25.2-.3.25-.2" fill="#080839" fill-rule="evenodd" transform="translate(3.1 .55)"/><path d="M-.15 2.9h.05V3l-.2.2v-.05l-.05-.05.1-.15.1-.05" fill="#fff" fill-opacity=".6" fill-rule="evenodd" transform="translate(3.1 .55)"/><path d="M-1.45 1.9h.35l.2.2v.35l-.2.2-.3.05-.25-.25v-.3l.2-.25" fill="#080839" fill-rule="evenodd" transform="translate(3.1 .55)"/><path d="M-1.25 2.2h.15l.05.1v.1l-.05.1h-.15l-.1-.2.1-.1" fill="#fff" fill-opacity=".6" fill-rule="evenodd" transform="translate(3.1 .55)"/><path d="m-1.65 3.15.1.05q.05.1-.05.2l-.3.15-.3.05-.15-.1.1-.15.3-.2h.3" fill="#080839" fill-rule="evenodd" transform="translate(3.1 .55)"/><path d="M-1.9 3.35h.05l-.05.1-.1.05h-.15v-.1l.15-.05h.1" fill="#fff" fill-opacity=".6" fill-rule="evenodd" transform="translate(3.1 .55)"/></g><g id="e"><path d="m5.25-2.95.15.05-.2.4.05-.45" fill="#e99540" fill-rule="evenodd" transform="translate(18.85 3.65)"/><path d="M5.2-2.5 4.05 6.6Q-1.5 12.95-7.6 14.1l-4.1-4.1q2.85-.65 6.15-2.3 8-4.05 10.75-10.2" fill="#9c7809" fill-rule="evenodd" transform="translate(18.85 3.65)"/><path d="m-7.6 14.1-1.5.2-1.8.05-7.95-4.25 4.55.35 2.6-.45 4.1 4.1" fill="#c7980a" fill-rule="evenodd" transform="translate(18.85 3.65)"/><path d="M.3-3.65q1 .9 3.3.7h1.65l-.05.45Q2.45 3.65-5.55 7.7q-3.3 1.65-6.15 2.3l-2.6.45-4.55-.35 2.45-4.45q1.3-2.35 2.8-3.75Q-9.75-1.85.3-3.65" fill="#574408" fill-rule="evenodd" transform="translate(18.85 3.65)"/><path d="M19.15 0q1 .9 3.3.7h1.65l.15.05-.2.4" fill="none" stroke="#080808" stroke-linecap="round" stroke-linejoin="round" stroke-opacity=".302" stroke-width=".05"/><path d="m24.05 1.15-1.15 9.1q-5.55 6.35-11.65 7.5l-1.5.2-1.8.05L0 13.75 2.45 9.3q1.3-2.35 2.8-3.75Q9.1 1.8 19.15 0m4.95.7-.05.45Q21.3 7.3 13.3 11.35 10 13 7.15 13.65l-2.6.45L0 13.75" fill="none" stroke="#080808" stroke-linecap="round" stroke-linejoin="round" stroke-opacity=".302" stroke-width=".05"/></g><g id="f"><path d="m1.35 6-3.15-.9q-4.45-.35-8.75 1.25-6.2 4.2-11.1 10.3l1-13.05q.45-8.2 3.05-11.9 2.6-3.75 6.75-5.25 4.1-1.5 8.15-1.75l2.4.1Q5.45-8.15 1.35 6" fill="#c7980a" fill-rule="evenodd" transform="translate(25.4 18.65)"/><path d="M5.25-12.9 7.9-8.15Q9.85-2.7 9.3.65L6.65 8.3Q4.1 6.95 1.35 6 5.45-8.15-.3-15.2q2.8.45 5.55 2.3" fill="#9c7809" fill-rule="evenodd" transform="translate(25.4 18.65)"/><path d="M-21.65 16.65q-3.3-7.1-3.7-13.2V.35q.15-3.7 1.2-7 .4-1.45 1.95-4.2 1.7-3.05 3-4.4 2.9-2.15 7.55-2.05l9.25.35 1.85.6.2.05q2.4 1 5.6 3.4Q2.5-14.75-.3-15.2l-2.4-.1q-4.05.25-8.15 1.75-4.15 1.5-6.75 5.25-2.6 3.7-3.05 11.9l-1 13.05" fill="#f3e074" fill-rule="evenodd" transform="translate(25.4 18.65)"/><path d="m30.65 5.75 2.65 4.75q1.95 5.45 1.4 8.8l-2.65 7.65q-2.55-1.35-5.3-2.3l-3.15-.9q-4.45-.35-8.75 1.25-6.2 4.2-11.1 10.3-3.3-7.1-3.7-13.2V19q.15-3.7 1.2-7 .4-1.45 1.95-4.2 1.7-3.05 3-4.4 2.9-2.15 7.55-2.05L23 1.7l1.85.6m.2.05q2.4 1 5.6 3.4z" fill="none" stroke="#080808" stroke-linecap="round" stroke-linejoin="round" stroke-opacity=".302" stroke-width=".05"/><path d="M1.75-7.65q-.5.55-1.3.55t-1.3-.55q-.5-.6-.5-1.4 0-.85.5-1.4.5-.6 1.3-.55.8-.05 1.3.55.5.55.55 1.4-.05.8-.55 1.4M3.8-3.7q-.05-.55.3-.9t.85-.35.85.35l.3.9-.3.9q-.35.35-.85.35T4.1-2.8q-.35-.4-.3-.9M-8.3-18.15q.55.45.55 1.15 0 .65-.55 1.15-.6.45-1.4.45-.85 0-1.4-.45-.55-.5-.55-1.15 0-.7.55-1.15.55-.5 1.4-.5.8 0 1.4.5m-4.85 5.05q.6.55.65 1.35-.05.8-.65 1.35-.7.55-1.65.55t-1.6-.55-.65-1.35.65-1.35 1.6-.55 1.65.55m-11.5 16.6q-.7-.55-.7-1.35 0-.85.7-1.4.6-.55 1.6-.55t1.65.55.65 1.4q0 .8-.65 1.35t-1.65.55-1.6-.55M-10.4-1.9q0 1.15-.75 1.95-.75.75-1.8.75-1.1 0-1.85-.75-.75-.8-.7-1.95-.05-1.2.7-1.95.75-.8 1.85-.75 1.05-.05 1.8.75.75.75.75 1.95" fill="#080839" fill-rule="evenodd" transform="translate(25.4 18.65)"/><path d="M-12.85-2.15q-.5 0-.85-.35t-.35-.9.35-.9.85-.35q.45 0 .8.35t.35.9-.35.9-.8.35M.85-10.7l.25.65-.25.65-.55.2-.6-.2-.25-.65.25-.65.6-.25.55.25m-10.7-5.75-.3-.7.3-.7.6-.25.65.25q.25.25.25.7 0 .4-.25.7-.25.25-.65.25t-.6-.25m8 18.1-.3-.7.3-.7q.2-.25.6-.25t.65.25.25.7q0 .4-.25.7l-.65.25-.6-.25m-21 0-.3-.7.3-.7q.2-.25.6-.25t.65.25.25.7q0 .4-.25.7l-.65.25-.6-.25" fill="#f0b981" fill-rule="evenodd" transform="translate(25.4 18.65)"/></g></defs></svg>