<svg viewBox="0 0 216.25 191" xmlns="http://www.w3.org/2000/svg" xmlns:xlink="http://www.w3.org/1999/xlink"><use width="216.25" height="191" xlink:href="#a"/><defs><use width="216.25" height="191" xlink:href="#b" id="a"/><g id="b"><path d="m-7.45-23.75 12.5-10.3L14-43.9l-1.35-1.8 9.3-9.35-15.1 3.55v-4.4l19.55-4.45 5.3-8.9 5.35-15.95 6.2-9.8h16l10.65 5.8.6 2.7h3.4l6.8-4.3q8.7 4.4 7.95 14.4-.35 4.85-4.05 8.65l-5.8 6.5-10.2-12.2-9.8 6-2.65-12.45-18.9 14.55q-.85.6-1.1 1.9-2.8 13.6-14.7 20.85-3.5 2.1-7.2 3.8-1.7.8-3.25 2.05-8.8 7.2-18.45 13m31.6-25.95-8.85 7.55L14-43.9l1.3 1.75 8.85-7.55M-11.7-15.65l5.25 3.2q-3.05 3.2-6.1 5.85Q-20.95.75-27.3 9.6q-5.7 7.85-12.65 14.5-12.8 12.2-29.2 19.1l1-1.05-14.2 4.4 2.25-3.95 10.2-3.6 15.55-8.4 10.2-10.65 32.45-35.6M72.1-79l-1.6-7.5 1.6 7.5M-80.1 56.05l.45 6.5 14.2-9.3-25.4 26.95 6.25.1.3 6.2-16.45 3.1-6.9-6.1v-6.7l3.55-7.55 9.75-2.2 8-5.35 6.25-5.65m31.95-9.25-1.8-1.1 14-16.55.65-.8 15.1-15.95-11.15 17.8-15.05 17.7-1.75-1.1" fill="#e4e2d6" fill-rule="evenodd" transform="translate(108.15 95.5)"/><path d="m80.7-90.8 1.6-1.05L93.35-87v5.35l6.3-4.45-.2 2.7-6.05 4.85h14.2v3.1H95.2L92.95-61.7l-9.3 9.35L66.8-49.7l-7-9.7-1.45 1.25-9.3 3.1-16.45 22.2h-3.55l8.45-12.4-6.65 4.85-6.7 4.9L6-17.75 2.4-20l13.8-15.1L-6-17.3l-2.35-2.1-2.1-1.9 1.5-1.2 1.5-1.25q9.65-5.8 18.45-13 1.55-1.25 3.25-2.05 3.7-1.7 7.2-3.8 11.9-7.25 14.7-20.85.25-1.3 1.1-1.9l18.9-14.55 2.65 12.45 9.8-6 10.2 12.2 5.8-6.5q3.7-3.8 4.05-8.65.75-10-7.95-14.4M62.35-61.7l-2.55 2.3 2.55-2.3M-69.15 43.2q16.4-6.9 29.2-19.1Q-33 17.45-27.3 9.6-20.95.75-12.55-6.6q3.05-2.65 6.1-5.85 1.15 1.8 3.2 1.95 1.05.05 2.15-1.05l2.2-2.2q.95-.3.85.4-.1 1.6 1.15 1.95-17.65 18.05-29.2 39.9l-6.95 13.2h-4.45l6.2-11.55-.05.05 11.15-17.8-15.1 15.95-.65.8q-5.5 4-11.2 7.4l-5.65 3.6q-.65.45-1.55.7l-2.25.4q-.2-.45-.55-.6L-77 55.45V51l5.3-5.3 2.55-2.5m3.7 10.05.1.1L-58 46.9q.35-.3.55-.75 1.45.75 2.4 2.55 1.1 2.05 1.65 4.25l-6.75 7.8-9.3 15.15v9.35l-4.9 7.1-8 2.65-8-4.9-10.2 2.25-7.1-4V83.5l6.9 6.1 16.45-3.1-.3-6.2-6.25-.1 25.4-26.95m9.3-13.35-1 .75 1-.75m-34.2 50.2h6.25-6.25" fill="#cac6ac" fill-rule="evenodd" transform="translate(108.15 95.5)"/><path d="M-8.35-19.4-6-17.3l22.2-17.8L2.4-20 6-17.75 24.15-35.5l6.7-4.9L7.3-15.55 3.1-11.4q-1.25-.35-1.15-1.95.1-.7-.85-.4l-2.2 2.2q-1.1 1.1-2.15 1.05-2.05-.15-3.2-1.95l-5.25-3.2 3.35-3.75m-48.8 60.05q.35.15.55.6l2.25-.4q.9-.25 1.55-.7l5.65-3.6q5.7-3.4 11.2-7.4l-14 16.55 1.8 1.1-5.25 6.15q-.55-2.2-1.65-4.25-.95-1.8-2.4-2.55-.2.45-.55.75l-7.35 6.45-.1-.1-14.2 9.3-.45-6.5 3.1-2.85v2.25l19.85-14.8" fill="#a2976f" fill-rule="evenodd" transform="translate(108.15 95.5)"/><path d="m80.7-90.8 1.6-1.05L93.35-87v5.35l6.3-4.45-.2 2.7.6-.5M-7.45-23.75l12.5-10.3L14-43.9l-1.35-1.8 9.3-9.35-15.1 3.55v-4.4l19.55-4.45 5.3-8.9 5.35-15.95 6.2-9.8h16l10.65 5.8.6 2.7h3.4l6.8-4.3M-7.45-23.75l-1.5 1.25m-1.5 1.2 2.1 1.9L-6-17.3l22.2-17.8L2.4-20 6-17.75 24.15-35.5l6.7-4.9 6.65-4.85-8.45 12.4h3.55l16.45-22.2 9.3-3.1 1.45-1.25 2.55-2.3M14-43.9l1.3 1.75 8.85-7.55M-11.7-15.65l-32.45 35.6-10.2 10.65L-69.9 39l-10.2 3.6-2.25 3.95 14.2-4.4-1 1.05M3.1-11.4l4.2-4.15L30.85-40.4M-11.7-15.65l3.35-3.75m107.8-64-6.05 4.85h14.2v3.1H95.2L92.95-61.7l-9.3 9.35L66.8-49.7l-7-9.7m10.7-27.1 1.6 7.5M-57.15 40.65-77 55.45V53.2l-3.1 2.85m26.7-3.1 5.25-6.15-1.8-1.1 14-16.55.65-.8m3.95 1.85.05-.05-6.2 11.55h4.45l6.95-13.2Q-14.55 6.65 3.1-11.4m-60.25 52.05 1-.75m-15.55 5.8L-77 51v2.2m45.65-23L-46.4 47.9l-1.75-1.1m-5.25 6.15-6.75 7.8-9.3 15.15v9.35l-4.9 7.1-8 2.65-8-4.9-10.2 2.25-7.1-4V76.8l3.55-7.55 9.75-2.2 8-5.35 6.25-5.65m-4 34.05h-6.25" fill="none" stroke="#000" stroke-linecap="round" stroke-linejoin="round" stroke-opacity=".388" transform="translate(108.15 95.5)"/><path d="m1.05-45.15 8.5 2.05.95 2.95-2.95 3.3-2.45-4.1-5.3 3.65q-.1 3.7-.65 7.5l-.1.7v.25Q-1.9-23.05-3-17.3q-.2 1.2.45 2.25L.8-9.5l.15.25q.7 1.45 1 3.2.25 1.45 1 2.35l1-.4.8 3.95Q2.3 1.45-.3 2.8l-1.8.1-5.95-.25q-1.85 0-1.95-2l-.2-1.9q-1.15-6.05-1.5-12.1-.3-5.95.3-11.85l.3-4.35-.15-2.5q-.1-1.05-.65-1.75l2-3.65L.05-45l1-.15m-28.45 74.7-.45-2.1q-.25-1.15-1.3-1.45l-1.85-.05q-3.8.7-6.95 2.85l8.35-16-14.65 3.85-.35-.25q2.3-1.5 4.3-3.6l1.7-1.9q4.25-4.45 7.95-9.2l1-1.4q3.05-5.4 4.25-11.25 3.5 0 6.15-3.05l-8.3 23.5 6.45-.85-7.25 10.2 9.5-3.6-.35.6-8.2 13.7m-39.55-66.8-7.85-8.95 16.45 7.1-4.95-12.35 2.5 4.35 2.8 4.35q1.45 2.25 3.8 3.5l10.45 6 .3.1 5.05-2.45.5.95q.95 1.7 3 2.2l2.5.75 5.6 1.25.55.05.7.1-13.4 6.3-11.1-6.15 6.8 8.55q-2.35-1.2-4.4-3l-3.65-3.6q-1.65-1.65-3.55-3-1.45-1-2.6-2.3-1.35-1.4-3.45-1.95l-6.05-1.8m60.45-13.3L-9-60q-2.75-1.1-5.65-1.25-3.25-.45-6.45.7l-6.35 2.4 14.8.4 2.7 8.2 3.45-1 3.4-.95.85 1-.85-1-3.4.95M-40.3-67.2l-.75-5.2 5.35 3.6-6.4-14.8 2.75 3.6 6.75 9.65 2.3 3q2.15 2.7 5.5 2.15 3.15-.6 5.9-2.25l.3-.1.25-.15 17 9.8-.9 7.4.55.9-4.35 5.85-3.8.5-1.8-5.55-1.1.5-.1.1-3.3-4.2q-.4.35-1 .35l-7.3-.4-3.3.2q-1.85-.35-3.15.55l-2.55 1.55-6.85-17.05m30.35 17.65-1.7.75 1.7-.75" fill="#d20000" fill-rule="evenodd" transform="translate(108.15 95.5)"/><path d="m7.55-36.85-2.5 2.8-6 4.95.1-.7q.55-3.8.65-7.5l5.3-3.65 2.45 4.1M.95-9.25l14.6-15q.65 2.9.25 5.8L14.6-12q-.6 2.6-.75 5.1-.15 2.25-.7 4.4L-5.5 11.7l-5.35 2.9q-4.8.35-7.1-4.85l4.85-38.65.45-3.55.5-.85-.5.85-.45 3.55-2.3 3.25q-3.6.95-7 2.3-1.45.65-2.65 1.65-1.35 1.2-2.1 2.7l-1.8 4.05q-.15.35-.6.7-3.5 2.05-6.3 4.75l-.2.25q-2.35 2.8-5.15 5.05l-.25.15-.3.2-.3.1 4.25-11.85-7.7 2.7-21.45-24.35 6.05 1.8q2.1.55 3.45 1.95 1.15 1.3 2.6 2.3 1.9 1.35 3.55 3l3.65 3.6q2.05 1.8 4.4 3l-6.8-8.55 11.1 6.15 13.4-6.3-.7-.1 2-.15 2.1.15q2.95.05 5.5-1.35l2.2-.95 1.65-.55.65-.05.25-.5q.55.7.65 1.75l.15 2.5-.3 4.35q-.6 5.9-.3 11.85.35 6.05 1.5 12.1l.2 1.9q.1 2 1.95 2l5.95.25 1.8-.1Q2.3 1.45 4.75-.15l-.8-3.95-1 .4q-.75-.9-1-2.35-.3-1.75-1-3.2m-8 27.55-1.4 2.05q-3 3.55-7.2 3.55l-10.2 31.15.1-1.8v-1q.2-4.4-.35-8.8l-.3-4.6q-.1-4.65-1-9.3l8.2-13.7 1.1 1.45 2.4 2.55.5.2 2.3-.3 3.9-.95 1.95-.5m-20.4-76.45 6.35-2.4q3.2-1.15 6.45-.7 2.9.15 5.65 1.25l2.5 9.45-3.45 1-2.7-8.2-14.8-.4M-40.3-67.2l6.85 17.05 2.55-1.55q1.3-.9 3.15-.55l3.3-.2 7.3.4q.6 0 1-.35l3.3 4.2.1-.1 1.1-.5 1.8 5.55 3.8-.5 4.35-5.85 2.75 4.45-1 .15-9.95 7.55-4.1-2.5.2-1.3-12.2 5.9-5.55-3.65-5.25-2.95-3.5-25.25m27.55 18.9-1.05 7.05 1.05-7.05M3.95-4.1l.7-.35-.7.35m-28.6 34.7 9-6.7-9 6.7" fill="#900" fill-rule="evenodd" transform="translate(108.15 95.5)"/><path d="M-5.5 11.7q0 3.7-1.55 6.6l-1.95.5-3.9.95-2.3.3-.5-.2-2.4-2.55-1.1-1.45.35-.6-9.5 3.6 7.25-10.2-6.45.85 8.3-23.5.95-1.25q2.9-4.3 2.9-10.4l2.3-3.25-4.85 38.65q2.3 5.2 7.1 4.85l5.35-2.9M-31.55-39l5.55 3.65 12.2-5.9-.2 1.3 4.1 2.5-2 3.65-.25.5-.65.05-1.65.55-2.2.95q-2.55 1.4-5.5 1.35l-2.1-.15-2 .15-.55-.05-5.6-1.25-2.5-.75q-2.05-.5-3-2.2l-.5-.95 6.85-3.4" fill="#790000" fill-rule="evenodd" transform="translate(108.15 95.5)"/><path d="m1.05-45.15 8.5 2.05.95 2.95-2.95 3.3-2.5 2.8-6 4.95v.25Q-1.9-23.05-3-17.3q-.2 1.2.45 2.25L.8-9.5l.15.25 14.6-15q.65 2.9.25 5.8L14.6-12q-.6 2.6-.75 5.1-.15 2.25-.7 4.4L-5.5 11.7q0 3.7-1.55 6.6l-1.4 2.05q-3 3.55-7.2 3.55l-10.2 31.15.1-1.8v-1q.2-4.4-.35-8.8l-.3-4.6q-.1-4.65-1-9.3l-.45-2.1q-.25-1.15-1.3-1.45l-1.85-.05q-3.8.7-6.95 2.85l8.35-16-14.65 3.85-.35-.25q2.3-1.5 4.3-3.6l1.7-1.9q4.25-4.45 7.95-9.2l1-1.4q3.05-5.4 4.25-11.25 3.5 0 6.15-3.05l.95-1.25q2.9-4.3 2.9-10.4-3.6.95-7 2.3-1.45.65-2.65 1.65-1.35 1.2-2.1 2.7l-1.8 4.05q-.15.35-.6.7-3.5 2.05-6.3 4.75l-.2.25q-2.35 2.8-5.15 5.05l-.25.15-.3.2-.3.1 4.25-11.85-7.7 2.7-21.45-24.35-7.85-8.95 16.45 7.1-4.95-12.35-1.95-5.15m37.8-1.55 14.8.4 2.7 8.2 3.45-1 3.4-.95.85 1 .9-7.4-17-9.8-.25.15-.3.1q-2.75 1.65-5.9 2.25-3.35.55-5.5-2.15l-2.3-3-6.75-9.65-2.75-3.6 6.4 14.8-5.35-3.6.75 5.2 3.5 25.25 5.25 2.95-6.85 3.4-5.05 2.45-.3-.1-10.45-6q-2.35-1.25-3.8-3.5l-2.8-4.35-2.5-4.35m50.55 3.15 1.1-.5 1.7-.75M-31.55-39l5.55 3.65 12.2-5.9 1.05-7.05m13.8 3.15-1 .15-9.95 7.55-2 3.65M3.95-4.1l-1 .4q-.75-.9-1-2.35-.3-1.75-1-3.2M-1.7-49.6l-.55-.9m3.3 5.35L-1.7-49.6m-12.1 8.35-.2 1.3 4.1 2.5m-2.25 4.15.25-.5m-.25.5-.5.85-.45 3.55-4.85 38.65q2.3 5.2 7.1 4.85l5.35-2.9m4.55-40.8.1-.7q.55-3.8.65-7.5M4.65-4.45l-.7.35M-13.1-28.9l-2.3 3.25m-.25 49.55-9 6.7" fill="none" stroke="#000" stroke-linecap="round" stroke-linejoin="round" stroke-opacity=".4" transform="translate(108.15 95.5)"/></g></defs></svg>