<svg viewBox="0 0 107.22 180.3" xmlns="http://www.w3.org/2000/svg" xmlns:xlink="http://www.w3.org/1999/xlink"><use transform="translate(.02)" width="107.2" height="180.3" xlink:href="#a"/><defs><g id="a"><path d="m235.95 142.4.75-4.5 3.15 10.5q4.95.5 10.75 3.65 36.65 1.7 20.1 22.75l-8.6 10.9q-9.35 9.3-14.5 15.1-7.95 8.85-15.95 20.4l-1.85 2.7q-10.85 15.85-22.95 37.4l-6.05 11.1-6.65 12.55q-2.3 5.55-2.9 11.05t9.5 5.95q5 7.45-1.85 12.9l-.2.15q-21.95-3.9-10.35-26.65 3.8-7.35 7.9-14.6l9.6-15.85 15.75-28.3 17.5-30.05.4.45.4-1.85 2.2-4.1q10-10.45 3.15-19.65l-.7-.7.1-.55q3.5 1.85 6.9.8l.5-.4q-10-1.7-14.35-9.8-.45-.8-.6-1.75 1.75-2.65 4.85-3.65l4.25-.4 1.5.2h.25l-.2-.1q-8.95-4.4-18.9-5.15l-2.55-.2q3.9-3.5 8.65-4.25l-1.4 3.4q2.8 1.55 5.65-.05-.9-1.05-1.75-2.8l-.3-.75-.75-2.7-.45-3.15m28.15 29.2q4.7-3.75 4-8.75-7.95-8.45-17.5-10.8 9.55 2.35 17.5 10.8.7 5-4 8.75m-23.55-20.8-.7-2.4.7 2.4m7.05 50-5.5-6.75 5.5 6.75m-17.8 23.1-8.2 5.7 8.2-5.7m-23.95 34 1 3.4-1-3.4m-5.05 14.5-4.55 1.35 4.55-1.35" fill="#cc9" fill-rule="evenodd" transform="translate(-173.65 -137.4)"/><path d="m198.7 315-3.45 2.2q-11.25-.25-15.9-7.5-7.85-11.4-3.9-22.45.4-1.15 1.95-2.3l10.65-14.3q6.55-9.2 12.4-18.4 9.6-15.05 17.4-30.25 7.9-15.5 13.95-31.15l1.95-5.15 2.8-8.8q-1.55-5.7-6.45-8.9-10.9-8.25-5.35-13.8l1.55-1.5 2.55.2q9.95.75 18.9 5.15l-.05.1-1.5-.2-4.25.4q-3.1 1-4.85 3.65.15.95.6 1.75 4.35 8.1 14.35 9.8l-.5.4q-3.4 1.05-6.9-.8l-.1.55.7.7q6.85 9.2-3.15 19.65l-1.1-1.35-1.1 5.45 1.1-5.45 1.1 1.35-2.2 4.1-.8 1.4-17.5 30.05-1.6 1.1-2.15-8.7 2.15 8.7 1.6-1.1-15.75 28.3-9.6 15.85-3.25.95 4.75-5.1-9.7 1.05 9.7-1.05-4.75 5.1 3.25-.95q-4.1 7.25-7.9 14.6-11.6 22.75 10.35 26.65m36.25-166.55 1-6.05.45 3.15.75 2.7.3.75q.85 1.75 1.75 2.8-2.85 1.6-5.65.05l1.4-3.4m-3.15 42.4 7.3 8.7-7.3-8.7m-31.35 61.4 1.95 4.75 1.85-4.7 1.6 5.6-1.6-5.6-1.85 4.7-1.95-4.75" fill="#9e9d50" fill-rule="evenodd" transform="translate(-173.65 -137.4)"/><path d="m235.95 142.4.75-4.5 3.15 10.5q4.95.5 10.75 3.65 36.65 1.7 20.1 22.75l-8.6 10.9q-9.35 9.3-14.5 15.1-7.95 8.85-15.95 20.4l-1.85 2.7q-10.85 15.85-22.95 37.4l-6.05 11.1-6.65 12.55q-2.3 5.55-2.9 11.05t9.5 5.95q5 7.45-1.85 12.9l-.2.15-3.45 2.2q-11.25-.25-15.9-7.5-7.85-11.4-3.9-22.45.4-1.15 1.95-2.3l10.65-14.3q6.55-9.2 12.4-18.4 9.6-15.05 17.4-30.25 7.9-15.5 13.95-31.15l1.95-5.15 2.8-8.8q-1.55-5.7-6.45-8.9-10.9-8.25-5.35-13.8l1.55-1.5q3.9-3.5 8.65-4.25l1-6.05m-2.4 9.45 1.4-3.4m4.95 49.7 1.1-5.45 6.6 8.1m-7.75-52.4.7 2.4m10.05 1.25q9.55 2.35 17.5 10.8.7 5-4 8.75m-25 27.95.4.45.4-1.85M217.85 222l2.15 8.7 1.6-1.1 8.2-5.7m9.3-24.35-7.3-8.7m-25.95 67.05-1.6-5.6-1.85 4.7-1.95-4.75m-12.4 18.4 9.7-1.05-4.75 5.1 3.25-.95 4.55-1.35m6.05-11.1-1-3.4" fill="none" stroke="#000" stroke-linecap="round" stroke-linejoin="round" stroke-opacity=".4" transform="translate(-173.65 -137.4)"/><path d="m268.2 157.4 3.4-1.4 5-3.6-1.95 2.55q-.75 1.15-1.35 2.45l-.3.7q-.65 1.85-.75 3.25-3.15-.85-4.05-3.95" fill="#9e9d50" fill-rule="evenodd" transform="translate(-173.65 -137.4)"/><path d="m276.6 152.4 3.75-2.65-6.45 11.85-1.65-.25q.1-1.4.75-3.25l.3-.7q.6-1.3 1.35-2.45l1.95-2.55" fill="#cc9" fill-rule="evenodd" transform="translate(-173.65 -137.4)"/><path d="m268.2 157.4 3.4-1.4 5-3.6 3.75-2.65-6.45 11.85" fill="none" stroke="#000" stroke-linecap="round" stroke-linejoin="round" stroke-opacity=".4" transform="translate(-173.65 -137.4)"/><path d="m212.45 155.65 4.95.75 4.3.3 1.2.05 4.7-.6q1.7 3.35-1.35 5.45l-4.85-2.65-8.95-3.3" fill="#9e9d50" fill-rule="evenodd" transform="translate(-173.65 -137.4)"/><path d="m227.6 156.15-4.7.6-1.2-.05-4.3-.3-4.95-.75-6.6-2.5 20.6 1.3 1.15 1.7" fill="#cc9" fill-rule="evenodd" transform="translate(-173.65 -137.4)"/><path d="m212.45 155.65 8.95 3.3 4.85 2.65m.2-7.15-20.6-1.3 6.6 2.5z" fill="none" stroke="#000" stroke-linecap="round" stroke-linejoin="round" stroke-opacity=".4" transform="translate(-173.65 -137.4)"/></g></defs></svg>