<svg viewBox="0 0 41.594 53.654" xmlns="http://www.w3.org/2000/svg" xmlns:xlink="http://www.w3.org/1999/xlink"><use transform="translate(-.01)" width="41.6" height="53.65" xlink:href="#a"/><defs><use width="41.6" height="53.65" xlink:href="#b" id="a"/><g id="b"><path d="m-8.8-14.2.1-.6 1-2.3 1.4-2.5-1.4 2.5-1 2.3-.1.6-1.45.55q-6.75 2.8-10 9.35.15-2.85.8-5.65.8-3.4 3.65-5.55 4.35-3.25 9.5-4.1l4.85-.25h2l1.85.25 2.55.5.5.15.1.05q1.45.4 2.95 1.8l1.05.95 1.15 1.2 2.35 2.9q2.15 2.65 3.5 5.75.5 1.15.6 2.4l-.05 1.95Q16.65 1.3 14.85 4 13.5 6.05 11.6 7.75l.6-1.5q3.95-12-6.15-19.6L5-13.75l-13.8-.45" fill="#e0dfc0" fill-rule="evenodd" transform="translate(20.8 26.8)"/><path d="m-8.8-14.2 13.8.45 1.05.4q-.1 2.3-.65 4.6Q3.6-1.7.4 4.8q-1.9 3.9-4.55 7l-3 3.4-.6.65q-1.4-3.25-3.35-6.05l.3-.9q.1-1.8-.15-3.55-.3-2.45 0-4.9l.25-.8q1.2-2.5 4-4.85.45-.35.45-.75L-6.4-7.1q-.75-2.9-1.95-5.65l-.45-1.3v-.15.15l.45 1.3Q-7.15-10-6.4-7.1l.15 1.15q0 .4-.45.75-2.8 2.35-4 4.85l-.25.8q-.3 2.45 0 4.9.25 1.75.15 3.55l-.3.9q1.95 2.8 3.35 6.05-2.75 2.7-6.55 3.4l-1.05.2-.15-.5-.85-3.25.15-.2-.25-.15-1.3-4.1q-1.25-3.9-2-8-.7-3.8-.5-7.55 3.25-6.55 10-9.35l1.45-.55m-2.3 24-.75.8q-2.7 2-4.35 4.9 1.65-2.9 4.35-4.9l.75-.8" fill="#cc9" fill-rule="evenodd" transform="translate(20.8 26.8)"/><path d="M6.05-13.35q10.1 7.6 6.15 19.6l-.6 1.5-.55.4-7.3 5.5-1.1.95-4.75 5.45q-.35-2.65-1.75-4.35l-.45.3-1.35.8-.5.1q-1.1.2-1.2 0l-.4-1.05.4 1.05q.1.2 1.2 0l.5-.1 1.35-.8.45-.3q1.4 1.7 1.75 4.35l-2.55 3.3-.9 1.1-2 1.6-1.1.3q-.9.05-1.7-.45-3.85-2.2-5-6.45l1.05-.2q3.8-.7 6.55-3.4l.6-.65 3-3.4Q-1.5 8.7.4 4.8q3.2-6.5 5-13.55.55-2.3.65-4.6" fill="#9e9d50" fill-rule="evenodd" transform="translate(20.8 26.8)"/><path d="m-6.3-19.6-1.4 2.5-1 2.3-.1.6v.15l.45 1.3Q-7.15-10-6.4-7.1l.15 1.15q0 .4-.45.75-2.8 2.35-4 4.85l-.25.8q-.3 2.45 0 4.9.25 1.75.15 3.55l-.3.9q1.95 2.8 3.35 6.05l.4 1.05q.1.2 1.2 0l.5-.1 1.35-.8.45-.3q1.4 1.7 1.75 4.35l-2.55 3.3-.9 1.1-2 1.6-1.1.3q-.9.05-1.7-.45-3.85-2.2-5-6.45l-.15-.5-.85-3.25-.1-.35m28.05-7.6q1.9-1.7 3.25-3.75 1.8-2.7 2.25-5.95l.05-1.95q-.1-1.25-.6-2.4-1.35-3.1-3.5-5.75l-2.35-2.9-1.15-1.2-1.05-.95Q7-18.5 5.55-18.9l-.1-.05-.5-.15-2.55-.5-1.85-.25h-2l-4.85.25q-5.15.85-9.5 4.1-2.85 2.15-3.65 5.55-.65 2.8-.8 5.65-.2 3.75.5 7.55.75 4.1 2 8l1.3 4.1m.25.15q1.65-2.9 4.35-4.9l.75-.8M2.4-19.6l-1.05-.3-.8.05m-2.65 39.9 4.75-5.45 1.1-.95 7.3-5.5.55-.4m-27.95 7.95.15-.2" fill="none" stroke="#000" stroke-linecap="round" stroke-linejoin="round" stroke-opacity=".4" transform="translate(20.8 26.8)"/><path d="M17.55-10.5 15-8.55q-1.1.8-2.35 1.45l-.65.35-3.1.9q.6 2.9 3.45 3.55l1.5-3.3 3.7-4.9" fill="#9e9d50" fill-rule="evenodd" transform="translate(20.8 26.8)"/><path d="m8.9-5.85 3.1-.9.65-.35Q13.9-7.75 15-8.55l2.55-1.95 2.75-3.65L8.75-7.4l.15 1.55" fill="#cc9" fill-rule="evenodd" transform="translate(20.8 26.8)"/><path d="m17.55-10.5-3.7 4.9-1.5 3.3m-3.6-5.1 11.55-6.75-2.75 3.65z" fill="none" stroke="#000" stroke-linecap="round" stroke-linejoin="round" stroke-opacity=".4" transform="translate(20.8 26.8)"/><path d="M-.8-12.4q-2.85 1.6-5.65.05l1.4-3.4 1-6.05.45 3.15.75 2.7.3.75 1.75 2.8" fill="#9e9d50" fill-rule="evenodd" transform="translate(20.8 26.8)"/><path d="m.6-13.4-1.4 1-1.75-2.8-.3-.75-.75-2.7-.45-3.15.75-4.5L.6-13.4" fill="#cc9" fill-rule="evenodd" transform="translate(20.8 26.8)"/><path d="m-6.45-12.35 1.4-3.4 1-6.05.75-4.5L.6-13.4" fill="none" stroke="#000" stroke-linecap="round" stroke-linejoin="round" stroke-opacity=".4" transform="translate(20.8 26.8)"/></g></defs></svg>