<svg viewBox="0 0 67.327 96.449" xmlns="http://www.w3.org/2000/svg" xmlns:xlink="http://www.w3.org/1999/xlink"><use transform="translate(-.01)" width="67.35" height="96.45" xlink:href="#a"/><defs><use width="67.35" height="96.45" xlink:href="#b" id="a"/><g id="b"><path d="M-1.65-11.35q3.95-3.4 8.45-6.05l5.35-3 3-1.65q4.8 11.8 8.9 32.3l-9.3 4.15Q5.8-2.1-1.65-11.35" fill="#dd7800" fill-rule="evenodd" transform="translate(33.65 48.2)"/><path d="M28-33.7Q35.15-18 32.9 4.05l-.85.7q-3.8 2.9-8 5.5-4.1-20.5-8.9-32.3l3.05-1.9q2.55-1.65 4.95-3.5 3.3-2.6 4.85-6.25" fill="#ffbc00" fill-rule="evenodd" transform="translate(33.65 48.2)"/><path d="M-1.65-11.35Q5.8-2.1 14.75 14.4l-3.7 4q-13.6-8.9-23-14.25.5-2.25 1.5-4.3Q-8.05-5.1-4.2-9l2.2-2.05.35-.3" fill="#dd574a" fill-rule="evenodd" transform="translate(33.65 48.2)"/><path d="m11.05 18.4-.45 1.2q-.85 2.7-.35 5.45Q-.8 27.3-9 27.55q-.7-3.35-2.1-6.65-2.1-5-1.8-10.45l.75-5.6.2-.7q9.4 5.35 23 14.25" fill="#c35786" fill-rule="evenodd" transform="translate(33.65 48.2)"/><path d="M-9 27.55q8.2-.25 19.25-2.5.45 5.6-.25 11.35-.3 2.25-1.55 4.4-.55.9-.95 1.9-.75 1.7-2.6 1.95l-5.4-.45h-3.2q-5.9-1-9.95-5.15l.85-.7q1.65-1.5 2.9-3.35 1.5-2.2 1.25-4.8L-9 27.55" fill="#575a86" fill-rule="evenodd" transform="translate(33.65 48.2)"/><path d="M14 24.2q-.4 2.5-.35 5.75.05 14.85-5.5 17.8-15.45 1.65-26.35-7.6l1.7-.1 1.8-.4q-6.85-5.55-11.1-13.3l-1.35-2.4q6.1 3.95 18.15 3.6l.35 2.65q.25 2.6-1.25 4.8-1.25 1.85-2.9 3.35l-.85.7Q-9.6 43.2-3.7 44.2h3.2l5.4.45q1.85-.25 2.6-1.95.4-1 .95-1.9Q9.7 38.65 10 36.4q.7-5.75.25-11.35L14 24.2" fill="#8d90a8" fill-rule="evenodd" transform="translate(33.65 48.2)"/><path d="M14.8 20.85q-.55 1.45-.8 3.35l-3.75.85q-.5-2.75.35-5.45l.45-1.2q1.85 1.15 3.75 2.45m-26.75-16.7-.2.7-.75 5.6q-.3 5.45 1.8 10.45 1.4 3.3 2.1 6.65-12.05.35-18.15-3.6-4.9-10.9-2.75-22.95l.9-4.85q5.15 1.25 17.05 8" fill="#e379a7" fill-rule="evenodd" transform="translate(33.65 48.2)"/><path d="m16.6 17.8-.1.05q-1.05 1.2-1.7 3-1.9-1.3-3.75-2.45l3.7-4 1.85 3.4m-34.3-41.05q6.9.5 16.05 11.9l-.35.3L-4.2-9q-3.85 3.9-6.25 8.85-1 2.05-1.5 4.3-11.9-6.75-17.05-8 3.15-9.65 9.55-17.4l1.75-2" fill="#fe7972" fill-rule="evenodd" transform="translate(33.65 48.2)"/><path d="m24.65 13.4-8.05 4.4-1.85-3.4 9.3-4.15.6 3.15M4.8-37.1q5.55 3.15 10.35 15.05l-3 1.65-5.35 3q-4.5 2.65-8.45 6.05-9.15-11.4-16.05-11.9 8.65-8.85 20-13.15l2.5-.7" fill="#fe9c2d" fill-rule="evenodd" transform="translate(33.65 48.2)"/><path d="M22.2-44.45q.4 2.15 2.45 4.6L28-33.7q-1.55 3.65-4.85 6.25-2.4 1.85-4.95 3.5l-3.05 1.9Q10.35-33.95 4.8-37.1l17.4-7.35m10.7 48.5-.4 3.05q-1 2.2-7.85 6.3l-.6-3.15q4.2-2.6 8-5.5l.85-.7" fill="#fecf33" fill-rule="evenodd" transform="translate(33.65 48.2)"/><path d="m-31.9 18.6-.05-.15q-2.95-10.65.15-22.5l2.8.2-.9 4.85q-2.15 12.05 2.75 22.95-3.2-2.1-4.75-5.35" fill="#eaa1a7" fill-rule="evenodd" transform="translate(33.65 48.2)"/><path d="M-31.8-4.05q1-3.95 2.65-8 2.05-5.1 6.1-9.8 2.45-1.65 5.35-1.4l-1.75 2q-6.4 7.75-9.55 17.4l-2.8-.2" fill="#feb288" fill-rule="evenodd" transform="translate(33.65 48.2)"/><path d="M-23.05-21.85h.05q7.6-8.95 22.35-16.3 2.8-.45 5.45 1.05l-2.5.7q-11.35 4.3-20 13.15-2.9-.25-5.35 1.4" fill="#fec560" fill-rule="evenodd" transform="translate(33.65 48.2)"/><path d="M-.65-38.15q8.45-4.25 19.25-8l4.2-1.8q-.9 1.65-.6 3.5L4.8-37.1q-2.65-1.5-5.45-1.05" fill="#fee465" fill-rule="evenodd" transform="translate(33.65 48.2)"/><path d="M-18.2 40.15q-4.4-3.75-8-9.25-3.95-5.95-5.7-12.3 1.55 3.25 4.75 5.35l1.35 2.4q4.25 7.75 11.1 13.3l-1.8.4-1.7.1" fill="#acb4a7" fill-rule="evenodd" transform="translate(33.65 48.2)"/><path d="M55.85 3.75q.4 2.15 2.45 4.6l3.35 6.15q7.15 15.7 4.9 37.75l-.4 3.05q-1 2.2-7.85 6.3L50.25 66l-.1.05q-1.05 1.2-1.7 3-.55 1.45-.8 3.35-.4 2.5-.35 5.75.05 14.85-5.5 17.8-15.45 1.65-26.35-7.6-4.4-3.75-8-9.25-3.95-5.95-5.7-12.3m-.05-.15q-2.95-10.65.15-22.5 1-3.95 2.65-8m47.75-34.1 4.2-1.8q-.9 1.65-.6 3.5M4.5 36.15q2.05-5.1 6.1-9.8m.05 0q7.6-8.95 22.35-16.3 8.45-4.25 19.25-8" fill="none" stroke="#575700" stroke-linecap="round" stroke-linejoin="round" stroke-opacity=".4" stroke-width=".5"/><path d="M10.6 26.35h.05" fill="none" stroke="#57ff00" stroke-linecap="round" stroke-linejoin="round" stroke-width=".5"/></g></defs></svg>