<svg viewBox="0 0 150.66 127.06" xmlns="http://www.w3.org/2000/svg" xmlns:xlink="http://www.w3.org/1999/xlink"><use transform="scale(1.7883)" width="84.25" height="71.05" xlink:href="#a"/><defs><use width="84.25" height="71.05" xlink:href="#b" id="a"/><g id="b"><path d="m34.1 70.2-1-.4.5-1.65.1-.4.9-1.6 1.9-.05-2.4 4.1m-8.2-1.3-.3-.1-.75-.9.8-.45.2-.15 1.1-1.3.4-.45 2.5-.75-1 1.85-2.95 2.25m-6.9-2-1.15-.5.55-.75.95-1.5.9-.85h2L19 66.9m-7.5-1.2-1.25-.55V63.9l1.35-.85 1-1.45.4-.55.75-.65 1.75.9-4 4.4M67.8 1.4 71.35 0l4.6 1.45-3.8 1.05-4 3.65-5.25.6-3.4.4-4.55 1.7.65.3 2.45.8L64 11.9l-4.65-.25-.5 1.9H55.1l-2.6-4.5-5.75-3.3 5.75 3.3 2.6 4.5-4.25 1.35-4.5 3.9-1.5 3.65-4.65 4.85-10.95 3.6-6-1.85-5.85 1.85 1.45 1.25 2.15.25 4.1 4.3 1.5 1.6.8 2.95-1.75.65-3.75-4.75-.45-.25-2.55-1.5-2.25 2.1-2.4-2.45-.9-6.75.5-2.65.7-1.25 3.25-5.7 4.9-8.6.65-1.2.75-.65 1.75-1.7.5-.1-.5.1-1.75 1.7Q20.25 3.45 15.9 3l-1.2 2.65v5.25h-.3.3l-.6 5.45q-.75 4.4-2.35 3.9l.35-7.6 2.3-1.75-2.2-.95.35-7.2-1.25-2q7.25-.5 12.2 2.9l2.85 2.8 7-1.8 13.4 1.1 1.75.15 3.6 1.65 10.45-4.1.55 2.3-.55-2.3L67.8 1.4l-4.7 4.35-.2 1 .2-1 4.7-4.35m-10.65 8.85.9-.3-.9.3M40.5 33.65h2.85l4.15.75-4.5 4.35-2.45-1.15-4.15.8-4.15 3.75-3-1.15v-2.1h1.6l1.6-1.25 4.05-3.35 4-.65m5.35 12.4.65 5.35-1.9 4.5-4.75 2.4h-3l-2.05-2.85-.85-3.65.5.75.75.9q.9.95 1.7 1.25l2.4.15q1.05-.25 2.1-1.4l.5-.75q1.6-2.4 2.05-5.55.4-2.7-.75-4.65l2.65 3.55m-17.25 5 1.4 2.1-1.5 1.4-3.15-1.6-.85-1.9h4.1m-5.2-7.15.9 4 .05.25-1 3.4-.5.9-2.6.45-.7-.4-1.8-.95-.2-3.8q.2 1.15.7 2.1.9 1.9 2.25 1.9 1.3 0 2.25-1.9.95-1.85.85-4.4l-.2-1.55" fill="#d9d9b7" fill-rule="evenodd" transform="translate(.25 .25)"/><path d="m12.75 59 1.25-.55.85-.4.95-1.4 1.1.75-1.1-.75.8-1.25 2 3.4v-3.5l.95-2.8.7.4 2.6-.45L21 55.4l.1 2.15.9-1.25 1.45-1.4.35.35.7 2.3 2.2 2.85-1.85 2.75-3.35-.75-.65-1.1-3-.65-2.25-1.1q-.45.25-.95.45l-1.9-1M62.9 6.75l5.25-.6 4-3.65.5 3.75-1.25 12-3.25 4.65-.15-.4-.75 2.15-1.9 2.9 1.75 4.6-3.1 4.9-3.5 1.6-2-1.2v-.15l2-2.35 2-2.4-1.25-7.65L64 20.15l2.55-1.55L64 20.15l-2.75 4.75 1.25 7.65-2 2.4-2 2.35v.15l-1.9-1.15-1.6-2.65-2.65-.85 1.4 3v2.6l-.9 2.65.75 2.6 1.5 1.65h2.15l2.1-1.5 2.25.75.8 1.05H65l3-2.05 1.35.25.5 2-4.6 3.75-1.9-1.15h-4.5l-1.1 2.15H55.6L52 53.9v1.8l-13.6 4.5L52 55.7v1.45l-1.75 2.25-3.4.9-3.1-.65-3.25 1.15-2.1-.6-.75-.2-1.25-1.95.45.25h3l4.75-2.4 1.9-4.5-.65-5.35-.6-4.9-2.25-2.4 4.5-4.35-4.15-.75H40.5l-3.75-1.1-5.15 2.85h-4.5l-3.85-3.6-4.4.35-1.45-1.25 5.85-1.85 6 1.85 10.95-3.6 4.65-4.85 1.5-3.65 4.5-3.9 4.25-1.35h3.75l.5-1.9 4.65.25 2.55 6.7 1.7-1.1.75-7.85q-3.2-.95-6.6-.6-2.15.2-4.35.9l-2.45-.8-.65-.3 4.55-1.7 3.4-.4-.5 2.3.5-2.3m-2.4 28.2-3.15-3.15-1.25-1.75.5-3.9-1.5-5v-7.6 7.6l1.5 5-.5 3.9 1.25 1.75 3.15 3.15m-3.15-3.15 1.15 5.5-1.15-5.5M24.1 8.25l-.75.65-.65 1.2-4.8-1.95h-1.65l.15 2.75.35 6.5 1.05 1.3-3.25 5.7-2.8-4.15q1.6.5 2.35-3.9l.6-5.45V5.65L15.9 3q4.35.45 8.2 5.25m-9.85 26.8 2.4 2.45v4.15l-.65 3.5.65 3.5.85 2.25-1.65-1.25-3.5-1.75 1-3.1 1.5-.65 1.4-2.35-2-6.75m7.2 1.85.45.25 3.75 4.75 1.75-.65-.8-2.95-1.5-1.6 3.75 1.45 3.6-.5-1.6 1.25h-1.6V41l3 1.15-3.35 3.75-.3 5.15h-4.1l-1.15.5 1-3.4-.05-.25.35-3L24 41l-2.55-4.1m-6.75-26h1.7-1.7M30 53.15l1 4.35-1 2.15-2.5-1.2-.25-1-1.9-4.5 3.15 1.6 1.5-1.4M15.9 58.9l-1.9-.45 1.9.45" fill="#cc9" fill-rule="evenodd" transform="translate(.25 .25)"/><path d="m75.95 1.45 1.05.3-2.85.9q1.4 14.25-5.15 22.5l2.6 6.9v5l1 4.75-1 1.5v2.25l-3.6 4.1v1.65l-.4 2.1-.1.5-1.75 3.75L63 58.8l-.75-1.9-2.75-1.35-1.75.75-2.15.5-1.1 1.75 1.6 3.25-.6 2.85-2.5.45-1.4 1.55-3.6.4-1.25-1.75-2.65-1.15-2.25.5-.6 2.4h-1.4l-.7 1.5-.15.3h-1.3l-.35.95-2.35.75-.9-.35 2.4-4.1-1.9.05-.45.8-2.85.15.3-.7-1.75-1.6 1.75 1.6-.3.7-.35.8-.95 1.9h-1l-.85-.75-.9.35-1.35-.5 2.95-2.25 1-1.85-2.5.75-.4.45H25.6l-1.8-.95.2-.4-1.75-1.35L24 64.65l-.2.4-.95 1.85-.35.65h-1.65l-.5-.65H19l3.25-3.6h-2l-.9.85-1.5-.6-.9-.65.3-1.6H15.5h1.75l-.3 1.6-.1.5-.65 1.6-.45 1.15h-1l-.8-.9-.45.3v1l-2-.85 4-4.4-1.75-.9-.75.65-.4.55-.25-2.45.4-.15 1.9 1q.5-.2.95-.45l2.25 1.1 3 .65.65 1.1 3.35.75 1.85-2.75-2.2-2.85-.7-2.3 3.85 3.65-.15-.45 2.5 1.2 1-2.15-1-4.35-1.4-2.1.3-5.15 3.35-3.75 4.15-3.75 4.15-.8L43 38.75l2.25 2.4.6 4.9-2.65-3.55-.4-.65q-.95-1.2-2.05-1.6l-1.85-.1q-2.25.5-4 2.2-1.8 1.65-1.8 5.05 0 2.7.85 4.4l.85 3.65 2.05 2.85-.45-.25L37.65 60l.75.2 2.1.6 3.25-1.15 3.1.65 3.4-.9L52 57.15V53.9l3.6-3.35h2.15l1.1-2.15h4.5l1.9 1.15 4.6-3.75-.5-2-1.35-.25-3 2.05h-2.6l-.8-1.05-2.25-.75-2.1 1.5H55.1l-1.5-1.65-.75-2.6.9-2.65v-2.6l-1.4-3 2.65.85 1.6 2.65 1.9 1.15-.75 4.7-2.15 3.15 2.15-3.15.75-4.7 2 1.2 3.5-1.6 3.1-4.9-1.75-4.6 1.9-2.9.75-2.15.15.4 3.25-4.65 1.25-12-.5-3.75 3.8-1.05m-57.1 30.7 4.4-.35 3.85 3.6h4.5l5.15-2.85 3.75 1.1-4 .65-4.05 3.35-3.6.5-3.75-1.45-4.1-4.3-2.15-.25m43.25 19-2.45.8-1 .95-.15.15-.65.6h-1.6L55.1 55.8l-.6 2.75.6-2.75 1.15-2.15h1.6l.65-.6.15-.15 1-.95 2.45-.8m5.3-24.25 1.6-1.75-1.6 1.75M52.9 55.4l-.9.3.9-.3m1.45 8.15L53 65.1l1.35-1.55M16.65 37.5l2.25-2.1 2.55 1.5L24 41l.65 3.9-.35 3-.9-4v-.1l-.1-.35q-.3-1.3-.95-2.3-1.1-1.75-2.15-2t-1.95 1.6q-.95 1.9-.95 4.6l.15 2 .1.4.2 3.8 1.8.95-.95 2.8v3.5l-2-3.4-.85-3-3.4-4.5 3.5 1.75 1.65 1.25-.85-2.25-.65-3.5.65-3.5V37.5M12.2 9.95l2.2.95-2.3 1.75.1-2.7M38.4 60.2l-3.15 1.05 3.15-1.05m-.7 8.65.3-.95-1-1.85-.5.05.5-.05 1 1.85-.3.95M15.1 64.4l-1.15.85 1.15-.85m14 4.25-.95.4.95-.4M49.9 63H35.15 49.9" fill="#b0af68" fill-rule="evenodd" transform="translate(.25 .25)"/><path d="M67.6 53.4q6.15.65 10.6 2.05 5.35 1.7 5.8 3.45-1.35 1.35-9 2.35l-12 1.4-.75.25 1.7 1q1.35.75 1.8.75-.55 1.3-7.8 2.3l-9.45.7h-.25l.75.5v.05l-5.4.45-4.45-.1.7-1.5h1.4l.6-2.4 2.25-.5 2.65 1.15L48 67.05l3.6-.4L53 65.1l2.5-.45.6-2.85-1.6-3.25 1.1-1.75 2.15-.5 1.75-.75 2.75 1.35.75 1.9 2.75-1.15 1.75-3.75.1-.5m-34 14.75-2.65-.25.35-.8 2.85-.15-.45.8-.1.4m-7.95-.7-.4-.05-2.4-.5.95-1.85 1.8.95h1.35l-1.1 1.3-.2.15m-7.25-1.8L16.2 65l.65-1.6.1-.5.9.65 1.5.6-.95 1.5" fill-opacity=".29" fill-rule="evenodd" transform="translate(.25 .25)"/><path d="M43.2 42.5q1.15 1.95.75 4.65-.45 3.15-2.05 5.55l-.5.75q-1.05 1.15-2.1 1.4l-2.4-.15q-.8-.3-1.7-1.25l-.75-.9-.5-.75q-.85-1.7-.85-4.4 0-3.4 1.8-5.05 1.75-1.7 4-2.2l1.85.1q1.1.4 2.05 1.6l.4.65M27.5 58.45l.15.45-3.85-3.65-.35-.35L22 56.3l-.9 1.25-.1-2.15 1.85-2.95.5-.9 1.15-.5.85 1.9 1.9 4.5.25 1m-10.05-11.1-.15-2q0-2.7.95-4.6.9-1.85 1.95-1.6t2.15 2q.65 1 .95 2.3l.1.35v.1l.2 1.55q.1 2.55-.85 4.4-.95 1.9-2.25 1.9-1.35 0-2.25-1.9-.5-.95-.7-2.1l-.1-.4" fill="#663" fill-rule="evenodd" transform="translate(.25 .25)"/><path d="m76.2 1.7 1.05.3-2.85.9q1.4 14.25-5.15 22.5l2.6 6.9v5l1 4.75-1 1.5v2.25l-3.6 4.1v1.65l-.4 2.1M39.4 68.8l-.15.3h-1.3l-.35.95-2.35.75-.9-.35-1-.4.5-1.65m-2.65-.25-.95 1.9h-1l-.85-.75-.9.35-1.35-.5-.3-.1-.75-.9.8-.45m-2.8-.55-.35.65H21.1l-.5-.65h-1.35l-1.15-.5.55-.75.95-1.5.9-.85h2l1.75 1.35-.2.4 1.8.95h1.35l.4-.45 2.5-.75 1.75 1.6-.3.7 2.85-.15.45-.8 1.9-.05.5-.05 1 1.85-.3.95m-21.5-3.85L16 66.4h-1l-.8-.9-.45.3v1l-2-.85-1.25-.55v-1.25l1.35-.85 1-1.45-.25-2.45.4-.15 1.25-.55-13-3.05M76.2 1.7 71.6.25l-3.55 1.4L63.35 6l-.2 1-.5 2.3q3.4-.35 6.6.6l-.75 7.85-1.7 1.1-2.55 1.55-2.75 4.75 1.25 7.65-2 2.4-2 2.35v.15m-6.15-4.65 1.4 3v2.6l-.9 2.65.75 2.6 1.5 1.65h.5L58 42.4l.75-4.7m4.05-34L52.35 7.8l-3.6-1.65L47 6l5.75 3.3 2.6 4.5v7.6l1.5 5-.5 3.9 1.25 1.75 3.15 3.15m3.5-23.05L58.3 10.2l-.9.3m.9-.3q2.2-.7 4.35-.9m.7-3.3-.55-2.3 5.25-2.05m-29.4 58.8 13.6-4.5.9-.3m9.85-9.8h-.35l-.8-1.05-2.25-.75-2.1 1.5h-1.65m2.9-8-1.15-5.5m9.2-13.2-2.55-6.7m5 13.25-1.6 1.75M54.75 58.8l.6-2.75 1.15-2.15h1.6l.65-.6.15-.15 1-.95 2.45-.8m-9.1 13.95 2.5-.45.6-2.85-1.6-3.25 1.1-1.75 2.15-.5 1.75-.75 2.75 1.35.75 1.9L66 57.9l1.75-3.75.1-.5M39.4 68.8l.7-1.5h1.4l.6-2.4 2.25-.5L47 65.55l1.25 1.75 3.6-.4 1.4-1.55 1.35-1.55M47 6 33.6 4.9l-7 1.8-.5.1-1.75 1.7-.75.65-.65 1.2-4.9 8.6-3.25 5.7-.7 1.25-.5 2.65.9 6.75 2 6.75-1.4 2.35-1.5.65-1 3.1 3.4 4.5.85 3-.8 1.25-15.8-11m26.6-7.35-1.5-1.6-4.1-4.3-2.15-.25m-6.65-22.2 2.2.95h.3M26.6 6.7l-2.85-2.8Q18.8.5 11.55 1l1.25 2-.35 7.2-.1 2.7 2.3-1.75m8.3-.8-4.8-1.95H16.5l.15 2.75.35 6.5 1.05 1.3m-1.4-7.8h-1.7M12 20.5l2.8 4.15M12.35 12.9 12 20.5m20.7 17.4 4.05-3.35 4-.65m2.7 8.85q1.15 1.95.75 4.65-.45 3.15-2.05 5.55l-.5.75q-1.05 1.15-2.1 1.4l-2.4-.15q-.8-.3-1.7-1.25l-.75-.9-.5-.75q-.85-1.7-.85-4.4 0-3.4 1.8-5.05 1.75-1.7 4-2.2l1.85.1q1.1.4 2.05 1.6l.4.65M27.75 58.7l.15.45-3.85-3.65-.35-.35-1.45 1.4-.9 1.25-.1-2.15 1.85-2.95.5-.9 1.15-.5.85 1.9 1.9 4.5.25 1m3.35-19.55 1.6-1.25-3.6.5-3.75-1.45M35.5 61.5l3.15-1.05M17.7 47.6l-.15-2q0-2.7.95-4.6.9-1.85 1.95-1.6t2.15 2q.65 1 .95 2.3m.1.35v.1l.2 1.55q.1 2.55-.85 4.4-.95 1.9-2.25 1.9-1.35 0-2.25-1.9-.5-.95-.7-2.1m-.65 9.65-1.1-.75-.95 1.4-.85.4 1.9.45m-3.3 2.7.4-.55.75-.65 1.75.9h1.75l-.3 1.6.9.65 1.5.6m7.6 1.85-1.1 1.3-.2.15m-1.85-2.4-.95 1.85m-5.9-4-.1.5-.65 1.6m-2.25.25 1.15-.85M34.4 67.2l-.45.8-.1.4m-2.65-.25.35-.8M28.4 69.3l.95-.4m6.05-5.65h14.75" fill="none" stroke="#000" stroke-linecap="round" stroke-linejoin="round" stroke-opacity=".4" stroke-width=".5"/><path d="m23.55 43.7.1.35" fill="none" stroke="#f39" stroke-linecap="round" stroke-linejoin="round" stroke-width=".05"/><path d="M27.2 54.05q.1 1.45-4.25 1.6l-2.55-1-1.15-1.7 2.45-1.65 3 .65 2.5 2.1" fill="#333" fill-rule="evenodd" transform="translate(.25 .25)"/><path d="m19.25 52.95 1.15 1.7 2.55 1q4.35-.15 4.25-1.6l.35 2.75-2.95 1.65-4.45-.75-1.2-2 .3-2.75" fill-rule="evenodd" transform="translate(.25 .25)"/><path d="m27.45 54.3-2.5-2.1-3-.65-2.45 1.65-.3 2.75 1.2 2 4.45.75 2.95-1.65z" fill="none" stroke="#000" stroke-linecap="round" stroke-linejoin="round" stroke-opacity=".4" stroke-width=".5"/></g></defs></svg>