<svg viewBox="0 0 401.27 417.5" xmlns="http://www.w3.org/2000/svg" xmlns:xlink="http://www.w3.org/1999/xlink"><use transform="translate(.048 .025)" width="401.2" height="417.45" xlink:href="#a"/><defs><g id="a"><path d="m-60.6-105.95 31.05-29.9 35.95 15.3L-140 8l37.35-66.15q19.95-25.4 42.05-47.8" fill="#ffffb2" fill-rule="evenodd" transform="translate(200.6 208.7)"/><path d="M96.2-173.45q7.9 5.45 15.35 11.55L54.6-110.05l57.45-17.6-8.3 17.65h22.1l-50.7 68 92.4-12.5-11.35 42.25q-182.3 91.4-349.25 221Q-241.8 48.6 23.25-208.7q26.55 8.15 50.05 21.05l-23.55 23.1 46.45-8.9m-156.8 67.5q-22.1 22.4-42.05 47.8L-140 8 6.4-120.55l-35.95-15.3-31.05 29.9m64.4 146-107.45 72.3 107.2-47.5L89.85-2.4 3.8 40.05" fill="#f3f29e" fill-rule="evenodd" transform="translate(200.6 208.7)"/><path d="M73.3-187.65q11.85 6.5 22.9 14.2l-46.45 8.9 23.55-23.1m38.25 25.75q55.7 45.25 89.05 124.05l-10.8 4.35-33.6 21.25 11.35-42.25L75.15-42l50.7-68h-22.1l8.3-17.65-57.45 17.6 56.95-51.85M3.8 40.05 89.85-2.4 3.55 64.85l-107.2 47.5L3.8 40.05" fill="#d8c768" fill-rule="evenodd" transform="translate(200.6 208.7)"/><path d="M273.9 21.05q11.85 6.5 22.9 14.2 7.9 5.45 15.35 11.55 55.7 45.25 89.05 124.05l-10.8 4.35-33.6 21.25q-182.3 91.4-349.25 221Q-41.2 257.3 223.85 0q26.55 8.15 50.05 21.05z" fill="none" stroke="#79792c" stroke-linecap="round" stroke-linejoin="round" stroke-width=".05"/></g></defs></svg>