<svg viewBox="0 0 52.461 50.996" xmlns="http://www.w3.org/2000/svg" xmlns:xlink="http://www.w3.org/1999/xlink"><use transform="translate(.01 .01) scale(.3559)" width="147.35" height="143.25" xlink:href="#a"/><defs><g id="a"><path d="m-119.1-75.3.6-.55h.1l-.1.15.2-.15h.05l-.4.3-71.1 84.2-.15-.15v-.05l-.05.05.1.25-.35.4-.15-.05h-.1l-.75-.5-.05-.05q-3.8-1.75-4.4-4.4l-.1-.35.1.35-7.45 9.05-3.2 1.95 1.75-.5q-4.2 4.05-6.15 6.55l-4.15 5.5q-1.95 2.5-2.6 4.25h-.5q-.25-1.5.75-3l1.6-2.35-2.95-.45q3.9-2.85 6.3-5.45l16.5-15.9Q-198-.6-188.3-10.35q33.95-33.8 68.3-64.1l.9-.85.6-.4-.15.15.15-.15-.6.4M-265.25 47.95q-.95-5.55.65-11.2.8-2.95 2.45-4.8h2.75q.8 1 1.5 1.25v7.95l-4.4.55h-.1l-.1 6.55-1.65-.3h-1.1M-120-74.45l1.35-1.1-1.35 1.1m-92.25 65v-.05l.1-.1.1-.05-.2.2m-26.15 56.8-7.25.1v-1l1.5-2q.1-1.45 1.6-3.95l9.4 3.2v1l3.75 14.25h-4.75V53.7l-4.25-4.25v-2.1m1.95-2.1.1-.05-.35.05-.35.25.6-.25" fill="#fff" fill-rule="evenodd" transform="translate(265.6 75.85)"/><path d="m-189.75 8.65-.05.05-.1-.2.15.15m-.1.1.25.55-.6-.15-.65.65-.1-.1.6-.6.15.05.35-.4m-1.95 1.9-2.2 2.3-.1.1-.2-.1 2.5-2.3m-72.6 40.1-.75-2.3-.1-.5h1.1l1.65.3.1-6.55h.1l4.4-.55V33.2q-.7-.25-1.5-1.25h-2.75q1.7-2 4.3-2.75l1.2-.55 8.55-2.1-.45-1.7.25-.2 5.55-2.35 3.35-.4 8.35-9.9 4.6-4.4 7.6-8.45.2-.25 6.7-1.25q1.45-.45 27.65-21.45 26.15-21.05 64.3-50.65-34.35 30.3-68.3 64.1Q-198-.6-195.75 3.8l-16.5 15.9q-2.4 2.6-6.3 5.45l2.95.45-1.6 2.35q-1 1.5-.75 3l.05.35-.15.2-.25.35-1.15 1.8-7.9 12.15.15-2.65h.05l-.05-.05-.2-.75q-.95-4.3-.2-8.85l1.25-4.7 1.5-2.5.1-.15 2.1-2.7.9-.5 22.1-25.3 33.7-32.35-1.15-1.1-19.35 18.2.05.05-33.9 31.15q-8.55 9.15-14.7 10.95.1.95-.95.85-11.45-1.1-10.85 5.15.45 5.45-1.85 9.8l-.7 1.15-2.6 3.25-.85.7 2.25 2.05q-2 1.45-3.2 5.05l-2.2.15v-.05h-.1v.05l-3 .25-5.35-2.2m68.75-46.6q.6 2.65 4.4 4.4l-4.3 2.95-1.2 1.1-1.1.15-6.7 1.9-1.75.5 3.2-1.95 7.45-9.05m-26.5 6-.25-.05-2.7 4 2.95-3.95m-24.1 32.45q2.85-4.85 8.6-4.1 1.65.25 3.3 1.2 1.6.9 3.2 2.5l4.35 6.55.35 11.05-5.15 4.7h-.05l-.05-.05q-2.65-.75-5.4-2.75-2.8-2.05-3.35 1.7l-.3-.05-1.25-1.85-4.6-.9-.1-.05-.05.05q-2.2-2.9-2.95-7.55V53h-.05v-.05q.6-4.85 3.5-10.35m7.85 4.75v2.1l4.25 4.25v5.25h4.75l-3.75-14.25v-1l-9.4-3.2q-1.5 2.5-1.6 3.95l-1.5 2v1l7.25-.1m17.5-20.4-1.35 1.1.3.2 1.05-1.3m3.4 4-.3.7-.1-.35.4-.35m-31.75 21.9.25-.15q0-1.2-.25.15" fill="#f5efdc" fill-rule="evenodd" transform="translate(265.6 75.85)"/><path d="M-227.2 43.15v-.05.05l-.15 2.65-.1 1.2-1.35-3.7.05.1-.1-.25.85-.1.8.05.05.05h-.05m8.9-11.3.25-.35-.25.35" fill="#d0c0ae" fill-rule="evenodd" transform="translate(265.6 75.85)"/><path d="M-194.1 13.05h-.05l-.45.45.15-.6.15.05.2.1m-33.9 30-.85.1.1.25-.05-.1-.45-.4 1.25.15m-3.7 21.45v-.05l.05.05h-.05m-21.8-11-.65.45.1-.4.2-.55.35.5" fill="#e3d29d" fill-rule="evenodd" transform="translate(265.6 75.85)"/><path d="m-228 63.75-.65.45-1.8 1q-2.85 1.35-6.05 1.85-3.6.65-5.6.05l-1.4-.8-2.15-1.25-.6-.45-.4-.35q-4.7-4.35-8.5-7.3-1.2-.75-2.7-1.15-2.45-.7-4.15-2l7.95-.25-.1.4.65-.45.35-.25 3.4-.2h.05q.75 4.65 2.95 7.55l.1.15.05-.15 4.6.9 1.25 1.85L-239 66l7.3-1.5h.1l3.6-.75m-15.6-27.05q2.35-1.2 6.15.5 1.75.75 3.4 1.8l.05.05-.35.65q-1.65-.95-3.3-1.2-5.75-.75-8.6 4.1-2.9 5.5-3.5 10.35l-.4-5.45q-.1-4.8 1.05-5.85l.85-.8.95-.9 2.6-2.5 1.1-.75m.1 29.6-3.15-5.55 3.15 5.55m-9.3-12.1-.15-.05v.1h.25l-.1-.05m6.85 9.55-.05-.05.05.05" fill="#afa38f" fill-rule="evenodd" transform="translate(265.6 75.85)"/><path d="m-217.9 31.3-.05-.35h.45l-.4.35" fill="#cabca2" fill-rule="evenodd" transform="translate(265.6 75.85)"/><path d="M-219.95 34.7h.05l-.1.1.05-.1" fill="#caaf77" fill-rule="evenodd" transform="translate(265.6 75.85)"/><path d="m-232.2 40.3 1.45 1.2.35.3.65.6.5.5.45.4 1.35 3.7.7 1.85-.05-.1-4.35-6.55q-1.6-1.6-3.2-2.5l.35-.65 1.8 1.25m-14.4 20.3-.05.15-.1-.15.05-.05.1.05m-3.15-7.6h.05v.05h-.05V53" fill="#d0c4b0" fill-rule="evenodd" transform="translate(265.6 75.85)"/><path d="m-236.45 45.25-.6.25.35-.25.35-.05-.1.05m-12.8 7.6q.25-1.35.25-.15l-.25.15" fill="#d4d0c8" fill-rule="evenodd" transform="translate(265.6 75.85)"/><path d="m-252.8 54.2.1.05h-.25v-.1l.15.05" fill="#d1b661" fill-rule="evenodd" transform="translate(265.6 75.85)"/><path d="m-235 24.55 2.4 1.7 7.45-4.6 23-22.95v.6l-6.3 7.15-2 1.4-1.1 1.25v.45q-9.15 7.7-13.5 15.85l-5.5 3.8-.9 2.8q-3.3 4.2.1 6.75l-.85.55v1l-1.8-1.25-.05-.05q-1.65-1.05-3.4-1.8-3.8-1.7-6.15-.5 1.7-2.75 4.6-3.4 1.65.25 2.5-3.8l.55-4.1q1.05.1.95-.85m4.25 16.95.35.2v.1l-.35-.3m1 .9h2.3l.05-.05.2.75-.8-.05-1.25-.15-.5-.5m25.2-27.75 6.7-1.9 1.1-.15-20.7 18.35q.65-1.75 2.6-4.25l4.15-5.5q1.95-2.5 6.15-6.55M-231.7 64.5-239 66l-1.75-2.65.3.05q.55-3.75 3.35-1.7 2.75 2 5.4 2.75v.05m-15.6-24.55-.95.9-.85.8-.25-.15.7-1.15 1.35-.4m-5.85 13.3-.35.25-.35-.5v-.05l.7.3" fill="#dbcebf" fill-rule="evenodd" transform="translate(265.6 75.85)"/><path d="m-190.85 9.8-.95.85-2.5 2.3-.15-.05-.15.6q-2.2 2.1-4.95 3.8-2.4 1.4-4.7 3.3-3.25 2.6-6.95 6.2-2.9 2.65-5.55 5.75l-2.25 2.7-.25.25-1.65 1.75q-2.15 2.55-3.3 5.8l-.5 1.65q-.6 2.1-.75 4.3-.25 2.5.15 5.15l.15 2.55q-.05 4.55-2.85 7.05l-3.6.75 5.15-4.7-.35-11.05.05.1-.7-1.85.1-1.2 7.9-12.15 1.15-1.8.25-.35.15-.2.1.35.3-.7h.05l20.7-18.35 1.2-1.1 4.3-2.95.05.05.75.5-.5.6.1.1m-71.15 44-.05-.05-1.05-1-.9-1.2-.4-.8 5.35 2.2 3-.25v.15l.1-.15 2.2-.15q1.2-3.6 3.2-5.05l-2.25-2.05.85-.7 2.6-3.25.25.15q-1.15 1.05-1.05 5.85l.4 5.45v.1l-3.4.2-.7-.3V53l-.2.55-7.95.25m5.35-25.15.25-.15h.05l2.45-1.05q3.2-1.4 5.75-2.95l-.4.35.45 1.7-8.55 2.1m8.35-4 13.35-9.45 3.9-3.2-8.35 9.9-3.35.4-5.55 2.35m16.1 15.65v-1l.85-.55q-3.4-2.55-.1-6.75l.9-2.8 5.5-3.8q4.35-8.15 13.5-15.85V9.1l1.1-1.25 2-1.4 6.3-7.15v-.6l-23 22.95-7.45 4.6-2.4-1.7q6.15-1.8 14.7-10.95l33.9-31.15-.05-.05 19.35-18.2 1.15 1.1-33.7 32.35-22.1 25.3-.9.5-2.1 2.7-.1.15-1.5 2.5-1.25 4.7q-.75 4.55.2 8.85l-.05.05h-2.3l-.65-.6v-.1l-.35-.2-1.45-1.2m-3.75-14.9-.55 4.1q-.85 4.05-2.5 3.8-2.9.65-4.6 3.4l-1.1.75-2.6 2.5-1.35.4q2.3-4.35 1.85-9.8-.6-6.25 10.85-5.15m16 9.3-.05.1.1-.1h-.05" fill="#e6ddca" fill-rule="evenodd" transform="translate(265.6 75.85)"/><path d="M38.4 118.95v.05" fill="none" stroke="#78705f" stroke-linecap="round" stroke-linejoin="round" stroke-width=".05"/><path d="m49.95 72 .65-.45m95.9-71 .6-.55m.25 0-.4.3-1.35 1.1q-34.35 30.3-68.3 64.1-9.7 9.75-7.45 14.15l.1.35q.6 2.65 4.4 4.4m-27.4-9.65-.6.1m.6-.1 6.7-1.25q1.45-.45 27.65-21.45Q107.45 31 145.6 1.4l.9-.85m-72.1 83.9.75.5" fill="none" stroke="#cbbbad" stroke-linecap="round" stroke-linejoin="round" stroke-width=".05"/><path d="m75.65 84.35.05-.05v.05" fill="none" stroke="#a69e8e" stroke-linecap="round" stroke-linejoin="round" stroke-width=".05"/><path d="M75.7 84.35h-.05" fill="none" stroke="#9d822d" stroke-linecap="round" stroke-linejoin="round" stroke-width=".05"/><path d="m50.6 71.55 95.9-71 .6-.4-.15.15-71.1 84.2-.1.1M147.2 0l-.1.15.2-.15M75.4 85l-.65.65-.95.85m-2.3 2.4h-.05l-.45.45q-2.2 2.1-4.95 3.8-2.4 1.4-4.7 3.3-3.25 2.6-6.95 6.2-2.9 2.65-5.55 5.75l-2.25 2.7-.25.25-1.65 1.75q-2.15 2.55-3.3 5.8l-.5 1.65q-.6 2.1-.75 4.3-.25 2.5.15 5.15l.15 2.55q-.05 4.55-2.85 7.05l-.65.45-1.8 1q-2.85 1.35-6.05 1.85-3.6.65-5.6.05l-1.4-.8-2.15-1.25-.6-.45-.4-.35q-4.7-4.35-8.5-7.3-1.2-.75-2.7-1.15-2.45-.7-4.15-2l-.05-.05-1.05-1-.9-1.2-.4-.8-.75-2.3-.1-.5q-.95-5.55.65-11.2.8-2.95 2.45-4.8 1.7-2 4.3-2.75l1.2-.55.25-.15h.05l2.45-1.05q3.2-1.4 5.75-2.95l-.4.35m.25-.2 13.35-9.45 3.9-3.2 4.6-4.4 7.6-8.45.2-.25m-.6.1 3.6-2.85m-3.6 2.85q.9-.55.6-.1M75.4 85l.35-.4m-4.45 4.2 2.5-2.3m-54.85 50.1 3.15 5.55m-6.25-13.35q.6-4.85 3.5-10.35m-3.5 10.4h.05v.05q.75 4.65 2.95 7.55m.1.15-.1-.15" fill="none" stroke="#999" stroke-linecap="round" stroke-linejoin="round" stroke-width=".05"/></g></defs></svg>