<svg viewBox="0 0 99.6 66" xmlns="http://www.w3.org/2000/svg" xmlns:xlink="http://www.w3.org/1999/xlink"><use width="99.6" height="66" xlink:href="#a"/><defs><linearGradient id="c" x1="-819.2" x2="819.2" gradientTransform="matrix(.014 0 0 .0221 35.05 18.1)" gradientUnits="userSpaceOnUse"><stop stop-color="#e4f9d4" offset="0"/><stop stop-color="#c7ebad" offset="1"/></linearGradient><linearGradient id="d" x1="-819.2" x2="819.2" gradientTransform="matrix(.0343 0 0 .0218 28.9 27.45)" gradientUnits="userSpaceOnUse"><stop stop-color="#e4f9d4" offset="0"/><stop stop-color="#c7ebad" offset="1"/></linearGradient><linearGradient id="e" x1="-819.2" x2="819.2" gradientTransform="matrix(.0077 0 0 .0052 85.25 36.35)" gradientUnits="userSpaceOnUse"><stop stop-color="#e4f9d4" offset="0"/><stop stop-color="#c7ebad" offset="1"/></linearGradient><linearGradient id="f" x1="-819.2" x2="819.2" gradientTransform="matrix(.0252 0 0 .0095 61.95 45.65)" gradientUnits="userSpaceOnUse"><stop stop-color="#e4f9d4" offset="0"/><stop stop-color="#c7ebad" offset="1"/></linearGradient><linearGradient id="g" x1="-819.2" x2="819.2" gradientTransform="matrix(.0034 0 0 .0036 14.9 44.6)" gradientUnits="userSpaceOnUse"><stop stop-color="#e4f9d4" offset="0"/><stop stop-color="#c7ebad" offset="1"/></linearGradient><linearGradient id="h" x1="-819.2" x2="819.2" gradientTransform="matrix(.0092 0 0 .0089 7.55 50.75)" gradientUnits="userSpaceOnUse"><stop stop-color="#e4f9d4" offset="0"/><stop stop-color="#c7ebad" offset="1"/></linearGradient><use width="99.6" height="66" xlink:href="#b" id="a"/><g id="b"><path d="m46.1 13.65 1.25.15q3.25.5 5.85 2.25 4.4 2.85 4.4 7.95 0 4.55-9.8 11.05l-2.55 1.6q-3.75 2.2-7.15 3.55-3.85 1.4-6.95 1.65l-5.05-.1-4.65-.15.55.8m23.25-5.75q-1.4-.35-3.5-1.9l-2.95-2.4Q34 28.1 34 25q0-3 3.2-7 3.6-4.4 7.4-4.4l1 .05M9.8 49.35 8.55 47.5l-2.9 2.65Q4 51.95 4 53.6q0 3.35 3.6 6 3.3 2.4 6.6 2.4 2.7 0 4.6-3.9l.35-.65q2-3.85 3.65-4.65 2.35-1.55 13.4-4.85l8.8-2.7.55-.2 6.05-2.25 1.8-.9q5.85-3.25 8.7-6.95 3.5-4.55 3.5-11.15 0-7.85-6-13.8-4.05-3.95-9.1-5.3Q47.9 4 45 4q-7.8 0-13 7.2-4.4 6.15-4.4 12.6 0 3.4 4.85 9.9l2.4 3.1 3.25 3.4m15.3 1.7.75.5q1.7.8 6.45.8 6.4 0 14.2-5.8 7.85-5.8 14.2-5.8 4.35.1 5.5.9.8.5 1.05 2l.05 1.1v.5q-.25 3.25-3.35 5.8-1.75 1.4-3.5 1.8-1.25.25-2.15 3.35-.45 1.5-.8 3.65-1.15 6.6-3.4 6.75-2.3.15-5.1-2.3l-2.9-2.75q-4.6-2.7-8.8-2.8-10.7-.4-16.75-2.55-2-.7-3.5-1.6l-.35-.2m41.2-.6-.85.5m1.5-.85q.9-.45 1.9-.6m-80.2 3.8-1.4-1.45Q4.8 43.75 4.8 41.6q0-1.6 3.2-5.2 3.25-3.6 4.8-3.6 1.9 0 5.1 4.15l3.55 4.65" fill="none" stroke="#f4ffdb" stroke-linecap="round" stroke-linejoin="round" stroke-width="8"/><path d="m37.75 30.75-4.8 1.4-.15.05q-4.65-4.25-5.7-6.35-1.3-2.7-1.3-9.4 0-2.3 3-6.3 2.25-3.35 4.35-4.95Q37 2.25 39.3 1.5q2.25-.75 7.2-.8 5.05 1.35 9.1 5.3 6 5.95 6 13.8 0 6.6-3.5 11.15-2.85 3.7-8.7 6.95l-1.8.9-6.05 2.25-.55.2-8.8 2.7q-11.05 3.3-13.4 4.85-1.65.8-3.65 4.65l-2.7.65q-2.35 0-4.85-1.5-3.1-1.85-3.1-4.6 0-.5 1.3-2.15l.15-.15-.15-.35q1.75-1 1.75-1.5 0-.65-1.2-1.9Q5.1 40.7 5.1 38.6l.2-2.95 2.4-1q.9-.45 2-.45 1.85 0 4.65 2.8 2.8 2.75 6.35 2.75 8.6 0 20.25-5.4 7.4-3.3 10.2-5.05Q57 25.6 57 22.15q0-4.6-4.55-8.65-4.45-3.9-9.1-3.9l-1.25.05h-.5l-1-.05q-3.8 0-7.4 4.4-3.2 4-3.2 7 0 3.1 4.8 7.35l2.95 2.4M50 38.35l.15.05q1.7.8 6.45.8 6.4 0 14.2-5.8 7.85-5.8 14.2-5.8 4.35.1 5.5.9.8.5 1.05 2l.05 1.1v.5q-.45 1-1.7 2.3-2 2.15-3.45 1.75-2.6-.65-5 .8l-2.5 2v.65q1.9.9 3.25 1.05l.65-.35q.9-.45 1.9-.6-1.25.25-2.15 3.35l-.95.05q-1.75.15-2.15.95-2.05 3.9-3.25 3.9-1.4 0-3.05-1.6l-2.1-2.3q-.6-.6-1.85-.5H64.3l.05.1-.55-.15.15-.1h-.1q-1.6-.35-8.5.1l-4.3-.55q-3-.75-4.55-1.6l3.5-3m23.4-3.6q-.8 0-.8.75t1.05 1.85l1.6 1.15.65.25.5.1q.45 0 .45-.7 0-.5-1.5-1.95l-1.95-1.45m7.95 6.4.85-.5-.85.5m-64.8 5.45-.65-1.5q1.8-.6 1.8-1.7l-.45-1.7q-2.05 1-3.15 1.55-1.95 1-1.95 1.8 0 .35 1.1 1.4 1.2 1.1 1.85 1.1 1.45 0 1.45-.95" fill="#fffff7" fill-rule="evenodd" transform="translate(4 4)"/><path d="m34.1 36.2-3.25-3.4-2.4-3.1q-4.85-6.5-4.85-9.9 0-6.45 4.4-12.6Q33.2 0 41 0q2.9 0 5.5.7-4.95.05-7.2.8-2.3.75-6.15 3.7-2.1 1.6-4.35 4.95-3 4-3 6.3 0 6.7 1.3 9.4 1.05 2.1 5.7 6.35l.15-.05 4.8-1.4q2.1 1.55 3.5 1.9-3.75 2.2-7.15 3.55" fill="url(#c)" fill-rule="evenodd" transform="translate(4 4)"/><path d="m43.35 9.8-1.25-.15 1.25-.05v.2M73.4 34.75l1.95 1.45q1.5 1.45 1.5 1.95 0 .7-.45.7l-.5-.1-.65-.25-1.6-1.15q-1.05-1.1-1.05-1.85t.8-.75m-9.6 8.75.05-.1h.1l-.15.1m-22.25-2.45-.2.4.2-.4" fill="#e4f9d4" fill-rule="evenodd" transform="translate(4 4)"/><path d="M34.1 36.2q3.4-1.35 7.15-3.55l2.55-1.6q9.8-6.5 9.8-11.05 0-5.1-4.4-7.95-2.6-1.75-5.85-2.25v-.2q4.65 0 9.1 3.9Q57 17.55 57 22.15q0 3.45-5.85 7.15-2.8 1.75-10.2 5.05-11.65 5.4-20.25 5.4-3.55 0-6.35-2.75-2.8-2.8-4.65-2.8-1.1 0-2 .45l-2.4 1-.2 2.95q0 2.1 1.25 3.35 1.2 1.25 1.2 1.9 0 .5-1.75 1.5L4.55 43.5l-1.4-1.45Q.8 39.75.8 37.6.8 36 4 32.4q3.25-3.6 4.8-3.6 1.9 0 5.1 4.15l3.55 4.65 4.65.15 5.05.1q3.1-.25 6.95-1.65m-16.65 1.4.55.8-.55-.8" fill="url(#d)" fill-rule="evenodd" transform="translate(4 4)"/><path d="M91.6 32.1q-.25 3.25-3.35 5.8-1.75 1.4-3.5 1.8-1 .15-1.9.6l-.65.35q-1.35-.15-3.25-1.05v-.65l2.5-2q2.4-1.45 5-.8 1.45.4 3.45-1.75 1.25-1.3 1.7-2.3" fill="url(#e)" fill-rule="evenodd" transform="translate(4 4)"/><path d="m49.4 37.9.6.45-3.5 3q1.55.85 4.55 1.6l4.3.55q6.9-.45 8.5-.1l-.05.1.55.15-.05-.1h4.95q1.25-.1 1.85.5l2.1 2.3q1.65 1.6 3.05 1.6 1.2 0 3.25-3.9.4-.8 2.15-.95l.95-.05q-.45 1.5-.8 3.65-1.15 6.6-3.4 6.75-2.3.15-5.1-2.3l-2.9-2.75q-4.6-2.7-8.8-2.8-10.7-.4-16.75-2.55-2-.7-3.5-1.6l.2-.4 6.05-2.25 1.8-.9" fill="url(#f)" fill-rule="evenodd" transform="translate(4 4)"/><path d="M16.55 46.6q0 .95-1.45.95-.65 0-1.85-1.1-1.1-1.05-1.1-1.4 0-.8 1.95-1.8 1.1-.55 3.15-1.55l.45 1.7q0 1.1-1.8 1.7l.65 1.5" fill="url(#g)" fill-rule="evenodd" transform="translate(4 4)"/><path d="m15.15 53.45-.35.65Q12.9 58 10.2 58q-3.3 0-6.6-2.4-3.6-2.65-3.6-6 0-1.65 1.65-3.45l2.9-2.65 1.25 1.85.15.35-.15.15Q4.5 47.5 4.5 48q0 2.75 3.1 4.6 2.5 1.5 4.85 1.5l2.7-.65" fill="url(#h)" fill-rule="evenodd" transform="translate(4 4)"/><path d="M50.5 4.7Q47.9 4 45 4q-7.8 0-13 7.2-4.4 6.15-4.4 12.6 0 3.4 4.85 9.9l2.4 3.1 3.25 3.4q3.4-1.35 7.15-3.55-1.4-.35-3.5-1.9M50.5 4.7q5.05 1.35 9.1 5.3 6 5.95 6 13.8 0 6.6-3.5 11.15-2.85 3.7-8.7 6.95l.6.45m.15.05q1.7.8 6.45.8 6.4 0 14.2-5.8 7.85-5.8 14.2-5.8 4.35.1 5.5.9.8.5 1.05 2l.05 1.1v.5q-.25 3.25-3.35 5.8-1.75 1.4-3.5 1.8-1.25.25-2.15 3.35-.45 1.5-.8 3.65-1.15 6.6-3.4 6.75-2.3.15-5.1-2.3l-2.9-2.75q-4.6-2.7-8.8-2.8-10.7-.4-16.75-2.55-2-.7-3.5-1.6l-.35-.2-8.8 2.7q-11.05 3.3-13.4 4.85-1.65.8-3.65 4.65l-.35.65Q16.9 62 14.2 62q-3.3 0-6.6-2.4-3.6-2.65-3.6-6 0-1.65 1.65-3.45l2.9-2.65-1.4-1.45Q4.8 43.75 4.8 41.6q0-1.6 3.2-5.2 3.25-3.6 4.8-3.6 1.9 0 5.1 4.15l3.55 4.65 4.65.15 5.05.1q3.1-.25 6.95-1.65m8-26.55 1.25.15q3.25.5 5.85 2.25 4.4 2.85 4.4 7.95 0 4.55-9.8 11.05l-2.55 1.6m.35-23-1-.05q-3.8 0-7.4 4.4-3.2 4-3.2 7 0 3.1 4.8 7.35l2.95 2.4m45.1 9.55q.9-.45 1.9-.6m-2.55.95-.85.5m-39.8-.1 6.05-2.25 1.8-.9M45 45.25l.55-.2M22 42.4l-.55-.8m-12.9 5.9 1.25 1.85" fill="none" stroke="#5a924b" stroke-linecap="round" stroke-linejoin="round" stroke-opacity=".361" stroke-width=".05"/></g></defs></svg>