<svg viewBox="0 0 113.35 80.95" xmlns="http://www.w3.org/2000/svg" xmlns:xlink="http://www.w3.org/1999/xlink"><use transform="translate(.03 .03)" width="113.3" height="80.9" xlink:href="#a"/><defs><g id="a"><path d="m-.2 27.4-.35-1.65-2.15-9.95-3.1 9.45-13.85-8.6.15-8.25-4.25-4.65-2.85.95q2.1-11.25 7.9-22.4l-.05.15-.05.05.15.2q0 4 3.35 7.9 3.7 4.3 10.4 6.8l.95.35Q10 2.65 29.4 2.65q16.8 0 29.5-3.7 2.15 5.95 3.15 12.15l-2.4 1-.2 10.1 1.65 1.6 1.7-1.6-.15 3.55-.2 2.8L48.7 22.1l-11.2 7.35-7.8-1.35-2.6 3-7.3.2-4.2-8.5-7.4-1-1.95 5.15-6.45.45m33.25-9.55-5.4-6.55-3.65 8 2.1 3.45 5.2-.7 1.75-4.2" fill="#425a68" fill-rule="evenodd" transform="translate(27.85 45.85)"/><path d="M69.1-4.95q8.75-4.5 8.75-10.35 0-1.65-.7-3.2 6.9 13.25 8.05 29.15l-3.5 3.6-4.05-1.5-3.95 3.4q-.25-11.25-4.6-21.1" fill="#5f829a" fill-rule="evenodd" transform="translate(27.85 45.85)"/><path d="M69.1-4.95q4.35 9.85 4.6 21.1l-11.05 9.6.15-3.55 3.45-3.3-1.35-9-2.85 1.2q-1-6.2-3.15-12.15l3.9-1.25.85-.3q3.05-1.15 5.45-2.35" fill="#72abc2" fill-rule="evenodd" transform="translate(27.85 45.85)"/><path d="m-.55 25.75-6.7 3.85 1.45-4.35 3.1-9.45 2.15 9.95" fill="#31444f" fill-rule="evenodd" transform="translate(27.85 45.85)"/><path d="M62.1 31.2Q48 35.05 29.5 35.05q-15.9 0-28.65-2.85L-.2 27.4l6.45-.45L8.2 21.8l7.4 1 4.2 8.5 7.3-.2 2.6-3 7.8 1.35 11.2-7.35 13.75 6.45-.35 2.65m-69.35-1.6-.1.3-2.7-.95q-17.8-6.65-17.8-14.6l.1-1.35.15-1.3q.3-3.5 1-7l2.85-.95 4.25 4.65-.15 8.25 13.85 8.6-1.45 4.35m69.3-18.5q.85 5.45.75 11.1l-1.7 1.6-1.65-1.6.2-10.1 2.4-1m-29 6.75-1.75 4.2-5.2.7L24 19.3l3.65-8 5.4 6.55" fill="#245b36" fill-rule="evenodd" transform="translate(27.85 45.85)"/><path d="m73.7 16.15 3.95-3.4 4.05 1.5 3.5-3.6.15 2.55.1 1.85q-.6 7-12.4 12.3.8-5.8.65-11.2" fill="#3c9759" fill-rule="evenodd" transform="translate(27.85 45.85)"/><path d="m73.05 27.35-4 1.6-6.95 2.25.35-2.65.2-2.8 11.05-9.6q.15 5.4-.65 11.2m-11-16.25 2.85-1.2 1.35 9-3.45 3.3q.1-5.65-.75-11.1" fill="#68c486" fill-rule="evenodd" transform="translate(27.85 45.85)"/><path d="M113.05 56.5Q111.9 40.6 105 27.35q.7 1.55.7 3.2 0 5.85-8.75 10.35-2.4 1.2-5.45 2.35l-.85.3-3.9 1.25q-12.7 3.7-29.5 3.7-19.4 0-33.35-4.9l-.95-.35q-6.7-2.5-10.4-6.8-3.35-3.9-3.35-7.9l-.15-.2m104 28.15.15 2.55.1 1.15v.7q-.6 7-12.4 12.3l-4 1.6-6.95 2.25q-14.1 3.85-32.6 3.85-15.9 0-28.65-2.85m-1.4-6.45-6.7 3.85m-.1.3-2.7-.95Q0 68.15 0 60.2l.1-1.35m.15-1.3q.3-3.5 1-7 2.1-11.25 7.9-22.4l.1-.2m.2-.55q2.4-5.45 13.5-9.55 14.2-5.25 34.3-5.25 20.05 0 34.25 5.25 11.05 4.1 13.5 9.5m8.2 31.7.1 1.85M9.1 28.3l.05-.15" fill="none" stroke="#000" stroke-linecap="round" stroke-linejoin="round" stroke-opacity=".302" stroke-width=".05"/><path d="m28.7 78.05-1.05-4.8-.35-1.65m-6.7 3.85-.1.3M.1 58.85l.15-1.3m9-29.6.2-.55m-.4.95.05-.05m11.5 47.15 1.45-4.35 3.1-9.45 2.15 9.95" fill="none" stroke="#000" stroke-linecap="round" stroke-linejoin="round" stroke-opacity=".302" stroke-width=".05"/><path d="m29.6-17.6.1-.1-.05.1h-.05" fill="#dec696" fill-rule="evenodd" transform="translate(27.85 45.85)"/><path d="m35.85-33.65.05.1.15-.4q1.65-3.95 4.9-6.2 13.9-11.5 23.2.2 3.4 5.9 3 11.4.2 3.65 2.45 2.6L70-26q12.9 7 1.25 16.4Q68.95.35 52.2-1.8l-.15.05q-5.55 14.8-34.9-.1Q9.6 5.5 2.7-1.95-8.05 2.25-21.15-15.9q.5-3.7 3-4.3l.1-1.1Q-5-29 .7-11.45q12.35-18.3 28.9-6.15h.05l.05-.1q1.65-9.9 6.15-15.95m5.35-4.2q-2.2 2.3-2 3.4.7 3.95 5.8 5.8 4.6 1.65 6.4.15.85-.7 1.2-5.4.35-5-.6-7.25-.8-2.1-6.65.15-2 .85-4.15 3.15" fill="#bd9a77" fill-rule="evenodd" transform="translate(27.85 45.85)"/><path d="M41.2-37.85q2.15-2.3 4.15-3.15 5.85-2.25 6.65-.15.95 2.25.6 7.25-.35 4.7-1.2 5.4-1.8 1.5-6.4-.15-5.1-1.85-5.8-5.8-.2-1.1 2-3.4" fill="#d8c4af" fill-rule="evenodd" transform="translate(27.85 45.85)"/><path d="M70-26q9.5-.4 10.5 8.45.6 5.45-2.75 10.05-4.2 3.05-6.85 2.4 1.25 2.9-2.15 5.8-1.1.9-2.85 1.6l-.15.05-6.8.2q-2.5-.8-5.2-2.8 3.55 7.9-4.1 13-7.3 2.55-17.4 0-8.4-2.15-14.9-10.45l-3 4.75Q9.3 11.95 4.25 5.7L2.3.9Q1.35 4.15-2.1 5-9 5.1-14.95-.9q-4.8-4.3-6.35-12.5l.15-2.5Q-8.05 2.25 2.7-1.95q6.9 7.45 14.45.1 29.35 14.9 34.9.1l.15-.05Q68.95.35 71.25-9.6 82.9-19 70-26" fill="#9c744b" fill-rule="evenodd" transform="translate(27.85 45.85)"/><path d="M-18.05-21.3q.25-2 1.55-2l.4-.75q3.15-6.2 8.7-5.7-1.3-2.05.85-5.05 6.85-8.45 15.7-4.05 2.4 1.35 2.2 4.6 2-2.65 4.35 0 .15-4.25 3.55-5.65 3.85-1.25 7.65 0 1.85 1.5 1.5 4.95 4.4-3.6 7.45 1.3-4.5 6.05-6.15 15.95l-.1.1Q13.05-29.75.7-11.45-5-29-18.05-21.3" fill="#82603e" fill-rule="evenodd" transform="translate(27.85 45.85)"/><path d="m63.7 12.2.05.1.15-.4q1.65-3.95 4.9-6.2Q82.7-5.8 92 5.9q3.4 5.9 3 11.4.2 3.65 2.45 2.6l.4-.05q9.5-.4 10.5 8.45.6 5.45-2.75 10.05-4.2 3.05-6.85 2.4 1.25 2.9-2.15 5.8-1.1.9-2.85 1.6l-.15.05-6.8.2q-2.5-.8-5.2-2.8 3.55 7.9-4.1 13-7.3 2.55-17.4 0-8.4-2.15-14.9-10.45l-3 4.75q-5.05 4.9-10.1-1.35l-1.95-4.8q-.95 3.25-4.4 4.1-6.9.1-12.85-5.9-4.8-4.3-6.35-12.5M63.7 12.2q-3.05-4.9-7.45-1.3.35-3.45-1.5-4.95-3.8-1.25-7.65 0-3.4 1.4-3.55 5.65-2.35-2.65-4.35 0Q39.4 8.35 37 7q-8.85-4.4-15.7 4.05-2.15 3-.85 5.05-5.55-.5-8.7 5.7l-.4.75q-1.3 0-1.55 2m-.1 1.1.1-1.1" fill="none" stroke="#000" stroke-linecap="round" stroke-linejoin="round" stroke-opacity=".302" stroke-width=".05"/><path d="m63.9 11.9-.2.3M9.8 24.55q13.05-7.7 18.75 9.85 12.35-18.3 28.9-6.15m.1-.1q1.65-9.9 6.15-15.95m-6.15 15.95-.05.1h-.05m-50.9 4.2.15-2.5q.5-3.7 3-4.3" fill="none" stroke="#000" stroke-linecap="round" stroke-linejoin="round" stroke-opacity=".302" stroke-width=".05"/></g></defs></svg>