<svg viewBox="0 0 49.4 66.85" xmlns="http://www.w3.org/2000/svg" xmlns:xlink="http://www.w3.org/1999/xlink"><use transform="translate(.03 -.03)" width="49.35" height="66.85" xlink:href="#a"/><defs><g id="a"><path d="m254.5 193.5.1-.05-.05.1-.05-.05" fill="#fff" fill-rule="evenodd" transform="translate(-244.25 -192.05)"/><path d="m282.1 257.45-2.2 1.45-2.35-2.5-1.4-4.7-6.95-6.25-.9-2.85-11.25-7.8-6.6-7-4.75-5.75q3.7-22.35 10.95-25.9l.2-.1 15.95 19.65 8.25 26.3 1.05 15.45" fill="#f4ed95" fill-rule="evenodd" transform="translate(-244.25 -192.05)"/><path d="M284.9 202.45 289 217l4.6 16.2q-3.45 17.6-11.2 24l-.3.25-1.05-15.45-8.25-26.3-15.95-19.65q15.2-4.1 28.05 6.4m-5.25 18.2-6.15-19.45 6.15 19.45m2.35-9-2.35-8.3 2.35 8.3" fill="#f9f4bf" fill-rule="evenodd" transform="translate(-244.25 -192.05)"/><path d="M254.6 193.45q1.4-.8 2.85-1.15l2.95-.2q18.8.6 24.05 8.75l.45 1.6q-12.85-10.5-28.05-6.4l-2.3-2.5.05-.1" fill="#deef81" fill-rule="evenodd" transform="translate(-244.25 -192.05)"/><path d="m245.7 222.05-1.45-1.75 2.6-16.85q3.35-7.35 7.65-9.95l.05.05 2.3 2.5-.2.1q-7.25 3.55-10.95 25.9" fill="#dbed74" fill-rule="evenodd" transform="translate(-244.25 -192.05)"/><path d="m10.25 1.45.1-.05Q11.75.6 13.2.25l2.95-.2q18.8.6 24.05 8.75l.45 1.6 4.1 14.55M0 28.25 2.6 11.4q3.35-7.35 7.65-9.95M33.3 64.35l-1.4-4.7-6.95-6.25-.9-2.85-11.25-7.8M35.4 11.3l2.35 8.3m-8.5-10.45L35.4 28.6" fill="none" stroke="#000" stroke-linecap="round" stroke-linejoin="round" stroke-opacity=".302" stroke-width=".05"/><path d="m44.75 24.95 4.6 16.2q-3.45 17.6-11.2 24l-.3.25-2.2 1.45-2.35-2.5m-20.5-21.6-6.6-7L1.45 30 0 28.25" fill="none" stroke="#000" stroke-linecap="round" stroke-linejoin="round" stroke-opacity=".4" stroke-width=".05"/></g></defs></svg>