<svg viewBox="0 0 17.5 10.55" xmlns="http://www.w3.org/2000/svg" xmlns:xlink="http://www.w3.org/1999/xlink"><use transform="translate(.02 .02)" width="17.45" height="10.5" xlink:href="#a"/><defs><g id="a"><path d="m239.35 182-3.6 1.5-2.5-4.3 1.8 1.05q1.85 1.2 4.55-.5l-.25 2.25m-13.8 4.55q-1.25-4.9-3.4-8 2.45 1.45 5.3 1.5H229l1.65-.75q-.1 2.65-.8 4.75-3.9-.1-4.3 2.5" fill="#c9c1ab" fill-rule="evenodd" transform="translate(-222.15 -178.55)"/><path d="M239.35 182q-.65 2.7-2.55 3.25l-1.05-1.75 3.6-1.5m-13.8 4.55q.4-2.6 4.3-2.5l-.2.55q-1.1 2.85-3.55 4.45l-.55-2.5" fill="#fff" fill-rule="evenodd" transform="translate(-222.15 -178.55)"/><path d="m13.6 4.95 1.05 1.75q1.9-.55 2.55-3.25m-3.6 1.5L11.1.65l1.8 1.05q1.85 1.2 4.55-.5l-.25 2.25M7.7 5.5q.7-2.1.8-4.75l-1.65.75H5.3Q2.45 1.45 0 0q2.15 3.1 3.4 8m4.3-2.5-.2.55Q6.4 8.9 3.95 10.5L3.4 8" fill="none" stroke="#432e0c" stroke-linecap="round" stroke-linejoin="round" stroke-opacity=".302" stroke-width=".05"/></g></defs></svg>