<svg viewBox="0 0 25.95 40.75" xmlns="http://www.w3.org/2000/svg" xmlns:xlink="http://www.w3.org/1999/xlink"><use transform="translate(.03 .02)" width="25.9" height="40.7" xlink:href="#a"/><defs><g id="a"><path d="m300.2 265.25 2.1 1.45 5.85 14.05.6 5.1-2.2 10-5.8 4.15 1.6-4.75q-2.5 5.75-9.3 5.55-5 2.6-5-3.05l1.05-5.6-3.1 5.15q-2.6-.7-1.55-4.95l2-3.9 1.75 2.9 4.4-5.4-2 9.3 7.85.15 6.7-8.35v-7.9l-2.05 2.35-2.9-16.25" fill="#d9dfe8" fill-rule="evenodd" transform="translate(-282.85 -263.8)"/><path d="m286.45 288.45 4.85-10.2.35.15-.25-.95 1.35-8.9q1.55-3.75 5.3-4.75l2.15 1.45 2.9 16.25 2.05-2.35v7.9l-6.7 8.35-7.85-.15 2-9.3-4.4 5.4-1.75-2.9" fill="#fff" fill-rule="evenodd" transform="translate(-282.85 -263.8)"/><path d="m300.75 300-6.15 4.5-8.3-.2-3.45-4.15 1.1-6.9.5-.9q-1.05 4.25 1.55 4.95l3.1-5.15-1.05 5.6q0 5.65 5 3.05 6.8.2 9.3-5.55l-1.6 4.75" fill="#a5b5c7" fill-rule="evenodd" transform="translate(-282.85 -263.8)"/><path d="m3.6 24.65 4.85-10.2.35.15-.25-.95 1.35-8.9Q11.45 1 15.2 0l2.15 1.45 2.1 1.45 5.85 14.05.6 5.1-2.2 10-5.8 4.15-6.15 4.5-8.3-.2L0 36.35l1.1-6.9.5-.9z" fill="none" stroke="#000" stroke-linecap="round" stroke-linejoin="round" stroke-opacity=".302" stroke-width=".05"/></g></defs></svg>