<svg viewBox="0 0 78.474 71.284" xmlns="http://www.w3.org/2000/svg" xmlns:xlink="http://www.w3.org/1999/xlink"><use transform="translate(-.01)" width="78.5" height="71.3" xlink:href="#a"/><defs><g id="a"><path d="m305 181.3.05.05h-.15l.1-.05" fill="#d485a7" fill-rule="evenodd" transform="translate(-235.6 -164.95)"/><path d="m265.55 206.05.35-.3-.3.3h-.05" fill="#ebc5c8" fill-rule="evenodd" transform="translate(-235.6 -164.95)"/><path d="m293.6 190.1-.45-.15-2.15-.85-10.35 8.8-.95-2.05-9.3 8.4-.8-.7-3.4 3.45 1.05.55-3.15 3.05.05.1.5 1.2 2.3-2.05.4.65 3.45-3.25.4 1.8-1.7 2.05-.2.95-.35.4-.55.7-.6-.4v.05l-3 3.4-2.75 1.45.6 1.05.5 1.3.05.2.15.5.1.3-.55.85.35 4.9-3.3 4.3-2.85 1.85-2.25-.55-1.4-1-.45-1.2.6-2.4 1.55-1.7-.65-.5-1.45-.1.65-.6-.35-1.3 4.2.65-.05.9-.15 3.1-2.5-.35.55 1.3 2.4.1.8-2.3v-.05l-.35-.6.5-3.2-1.75-3.2.2-1.5 1.35-1.85-4 1.8-4.6-.2-2.05 2-1.3.05.1.25-.1-.25 1.3-.05 3.25-.15 1.05 1.7-.25 2.15-5 2.65-3.15-.2-2.65-1.7-3.15-4.85-.35-3.6-.7-.05-.45 2.3q-.6-2.2.05-3.9l2.7-1.8 1.45.45 4.45-2.55 5.1-.5 5.1 1.6 1.9-.65-.3-.1-.05-.1q10-8.85 21.5-20.85l8.6-9.15q-1.45-4.15-1.2-8.75l4.45-6.35q3.75-1.4 6.85.7l1.75 1.95-4.9 1.95-.6 2.4-.55-.1-.25 4 .35.05.55 1.5.35.05.25 1.3-.45 1.8-2.05 2-.1 1.3 2.7-2.1 2.55-.7 2.35.25.15.4v.1l4.6-.15.2-.15.9-.95h.15l-.2-.2.05-.15.45-1.3-3.55-3.9.55 2.55v.2l-.4.65-.15-.05-2.6-.2-1.45-2.6.75-2.3.45-.45 3.7-3.15q3.1-.25 7.55 5.7l-.6.35 1.35 1.8v4.65l-7.25 5.5h-10.2l.1 1.65m-1.7-23.7-1.4.2-2.1 2.85.45.8 2.25-2.1 1.7-.7-.9-1.05m15.15 8.85-1.25-1.1-1.5-1.25-.15-.15-2.1.25-.7.6.7-.6 2.1-.25.15.15 1.5 1.25 1.25 1.1M273.6 196.9l1 .35.75-.8-.9-.35-.85.8m10.25-11.15-.1.15-4.85 5.3 1.25.5 5.2-5.35-1.5-.6m-1.8 8.3-1.1.95 1.1-.95.45 1.15 8.1-7.65-.35-.5-.6-.9-7.75 7.4.15.5m9.15-7.9-.95.9.95-.9m-13.1 7.35-1.1-.5-1.85 2.15.85.15 2.1-1.8m27.7-19.35-.4 1-.5-.5.5.5.4-1m-7.25 11.9.5.1-.1.8-2.4-.5 2.4.5.1-.8-.5-.1m7.25-1.2-2.25 1.65-1.45.15-3.05-.5 3.05.5 1.45-.15 2.25-1.65m-18.25-2.55-.55-1.45.55 1.45m11.4 4.65 1.1.2-1.1-.2M259.1 211.8l-1.85-.75 1.85.75m6.8-6.05 6-6.25-1.4-.4-6.3 6.65 1.35.3h.05l.3-.3m-1.65 3.25-.85-.45 2.15-2.5-2.15 2.5.85.45m-1.9.7 1.05-1.15-1.05 1.15M250.4 211l-4.4-.35-2.45 1.3 1 .75 1.7-.9 5.05.45-.9-1.25m-4.75 10.95-.3.45 1.25 1.75 1.35-.05-.25-.9-.05-.25v-.1l-.95-2.4-1.05 1.5m-5.7-5 .65-2.3-.65 2.3m67.9-38.25q-.45-2.3-2.45-3.55 2 1.25 2.45 3.55" fill="#dcbac9" fill-rule="evenodd" transform="translate(-235.6 -164.95)"/><path d="m239.25 212.7 6.15-4.15q6.2.5 11.5 2.35l.05.05.3.1-1.9.65-5.1-1.6-5.1.5-4.45 2.55-1.45-.45m52.65-46.3.9 1.05-1.7.7-2.25 2.1-.45-.8 2.1-2.85 1.4-.2m1 10.3-.35-.05.25-4 .55.1.5.05h.1l.15 4.1-1.2-.2m-9.05 9.05 1.5.6-5.2 5.35-1.25-.5 4.85-5.3.1-.15M273.6 196.9l.85-.8.9.35-.75.8-1-.35m4.5-3.4-2.1 1.8-.85-.15L277 193l1.1.5m-12.55 12.55-1.35-.3 6.3-6.65 1.4.4-6 6.25-.35.3M250.4 211l.9 1.25-5.05-.45-1.7.9-1-.75 2.45-1.3 4.4.35" fill="#f2d9d9" fill-rule="evenodd" transform="translate(-235.6 -164.95)"/><path d="m310.2 176.15.2.25 2.05 3.2.15.3.9 2.2-.65 1-.55 1.75-8.7 5.65-5.85-.25-.45.9-3.6-1-.1-.05-.1-1.65h10.2l7.25-5.5v-4.65l-1.35-1.8.6-.35m-17.05 13.8-6.35 5.15-.1-.8-6.5 5.35.15 1.15-.25.2-.55.5v-1.45l-5.8 6.1.1.9-.15.15-4.4 4.85.2-.95 1.7-2.05-.4-1.8-3.45 3.25-.4-.65 2.3-2-.55-1.65-1.45 1.35-1.05-.55 3.4-3.45.8.7 9.3-8.4.95 2.05 10.35-8.8 2.15.85m-24.75 23.2q-3 3.55-5.15 6.95l-.1-.1-.5-1.3-.6-1.05 2.75-1.45 3-3.4v-.05l.6.4m-4.95 7.85q1.05 3.7.9 7.75l-1.95 2.8-1.85 1.35-3.45 1.3-3.35-.7-1.35-1.15-.55-1.1.05-2.65 1.2-2.3-.7-.25.65-.6 1.45.1.65.5-1.55 1.7-.6 2.4.45 1.2 1.4 1 2.25.55 2.85-1.85 3.3-4.3-.35-4.9.55-.85m-22.25 5.35-.2-.2-1.3-1.65q-2.5-3.45-3.2-6.1l.45-2.3.7.05.35 3.6 3.15 4.85 2.65 1.7 3.15.2 5-2.65.25-2.15 1.15 1.85-1.15-1.85-1.05-1.7-3.25.15 2.05-2 4.6.2 4-1.8-1.35 1.85-.2 1.5 1.75 3.2-.5 3.2-.75-1.2.05-.9-4.2-.65.35 1.3-1.3 1.2-.65.65-6.05 1.45-4.5-1.8m57.65-57.95q.85 1.5.75 3.45 0 1.1-.65 1.75l-.45.45-.75 2.3 1.45 2.6 2.6.2.15.05.4-.65v-.2l-.55-2.55 3.55 3.9-.45 1.3-1.7-1.15.3.85-4.55.2-.85-1.4-.15-.25.15.25.95 2.6-2.35-.25-2.55.7-2.7 2.1.1-1.3 2.05-2 .45-1.8-.25-1.3 4.15 1-1.15-1.95-.35-1.25 2.05-2-2.05 2 .35 1.25-2.65-.4h-.05l-.15-4.1h-.1l-.5-.05.6-2.4 4.9-1.95m-3.1 4.7-1.8-.3 1.8.3m-20.35 28.1-4.2 4.25-.8-1.2.8 1.2 4.2-4.25m26.95-22.85.85 1.5-.85-1.5m-56.7 43.6 2.05 1.25.25.9-1.35.05-1.25-1.75.3-.45m25.8-15.4-.25-1.1.25 1.1" fill="#cb9ab0" fill-rule="evenodd" transform="translate(-235.6 -164.95)"/><path d="M313.5 182.1q.75 2.4.05 4.25l-8.8 5.95-7.45-1.15.45-.9 5.85.25 8.7-5.65.55-1.75.65-1m-51.1 49.45-2.55 3.6q-3.75 1.35-6.8-.7-.9-.65-1.45-1.45-1.1-1.55-1.1-3.6v-.4q-.05-1.1.65-1.75l-3.7 3.15q-2.65.25-6.25-4.05l4.5 1.8 6.05-1.45.65-.65.7.25-1.2 2.3-.05 2.65.55 1.1 1.35 1.15 3.35.7 3.45-1.3 1.85-1.35M304.9 181l-.05.15.15.15-.1.05-.9.95-.2.15-4.6.15v-.1l-.15-.4-.95-2.6.85 1.4 4.55-.2-.3-.85 1.7 1.15m-11.1-2.75-.35-.05-.55-1.5 1.2.2h.05l2.65.4 1.15 1.95-4.15-1m-46.1 44.95-2.05-1.25 1.05-1.5.95 2.4v.1l.05.25m10.55 3.1.35.6v.05l-.8 2.3-2.4-.1-.55-1.3 2.5.35.15-3.1.75 1.2m-6.5.4-.6.55.6-.55" fill="#b16d79" fill-rule="evenodd" transform="translate(-235.6 -164.95)"/><path d="m286.8 195.1-.25.2-1.55 1.35-4.65 4.15-.15-1.15 6.5-5.35.1.8m-7.25 6.4-.3.25-5.4 5.3-.1-.9 5.8-6.1v1.45m2.5-7.45-.15-.5 7.75-7.4.6.9.35.5-8.1 7.65-.45-1.15m-15.1 15.8-2.3 2.05-.5-1.2-.05-.1 3.15-3.05 1.45-1.35.55 1.65-2.3 2" fill="#c58da6" fill-rule="evenodd" transform="translate(-235.6 -164.95)"/><path d="m58 25.15-.45-.15m-.25-13.25-.35-.05.25-4 .55.1.5.05m.1 0 1.8.3m3.2.5-.25.25m-5.8 2.85 1.2.2m4 2.6.85 1.4 4.55-.2-.3-.85-.85-1.5M62.9 9.1l-2.05 2 .35 1.25 1.15 1.95.15.25m-7.1 9.6 2.15.85m3.65-12.65-2.65-.4M21.35 46l-.05-.05m.05.05.3.1 1.85.75M12.05 57.9l-.95-2.4-.1-.25 1.3-.05m6.95 7.7 2.5.35.15-3.1.05-.9-4.2-.65.35 1.3-.65.6m.3-1.9-1.15-1.85-1.05-1.7-3.25.15m4.5 5.9.65-.6m-1.9 1.8.6-.55M27.65 55.15l-.05.1m-6.3-9.3v-.05M65.75 8.65l.7-.6 2.1-.25.15.15 1.5 1.25 1.25 1.1m-36.65 29 .8 1.2 4.2-4.25m5.55-6.2 1.1-.95m8.2-7 .95-.9M69.3 9.7l.5.5.4-1m-9.25 12.3 2.4.5.1-.8-.5-.1m.5.1 3.05.5 1.45-.15 2.25-1.65m-18.8-4 .55 1.45m12.5 4.85-1.1-.2m-33.4 19.1.35-.3m-.35.3-2.15 2.5.85.45m-.85-.45-1.05 1.15m.8 10.3.05.2m-.55-1.5.5 1.3M5 49.7 4.35 52M35.6 40.5l.25 1.1M69.8 10.2q2 1.25 2.45 3.55" fill="none" stroke="#000" stroke-linecap="round" stroke-linejoin="round" stroke-opacity=".153" stroke-width=".3"/><path d="m76.8 15.1.9 2.2q.75 2.4.05 4.25l-8.8 5.95-7.45-1.15-3.6-1m-52.7 36L3.9 59.7Q1.4 56.25.7 53.6q-.6-2.2.05-3.9l8.85-5.95q6.2.5 11.5 2.35 10-8.9 21.5-20.9l8.6-9.15Q49.75 11.9 50 7.3L54.45.95q3.75-1.4 6.85.7l1.75 1.95q.85 1.5.75 3.45 0 1.1-.65 1.75l3.7-3.15q3.1-.25 7.55 5.7l.2.25 2.05 3.2m-19.3 10.35L51 30.3m-.25.2-1.55 1.35Q46.75 33.9 44.55 36M14.7 64.2q-.05-1.1.65-1.75l-3.7 3.15Q9 65.85 5.4 61.55m22.25-5.35q1.05 3.7.9 7.75l-4.5 6.4q-3.75 1.35-6.8-.7-.9-.65-1.45-1.45-1.1-1.55-1.1-3.6m28.75-27.65L37.9 42.4l-4.4 4.85m-.35.4-.55.7q-3 3.55-5.15 6.95M44.3 36.2l-.55.5" fill="none" stroke="#000" stroke-linecap="round" stroke-linejoin="round" stroke-opacity=".302" stroke-width=".8"/></g></defs></svg>