<svg viewBox="0 0 74.269 77.36" xmlns="http://www.w3.org/2000/svg" xmlns:xlink="http://www.w3.org/1999/xlink"><use transform="translate(-.02 .01)" width="74.3" height="77.35" xlink:href="#a"/><defs><g id="a"><path d="m287.5 147.85 6.25.05 5.45 2.2 1.35 2.5-.45.5-1.3-2.1-4.2-.8-6.15.05-5.4 3.15-1.35-.5 2.05-2.9 1.05-.75q1.1-.75 2.2-1.2l.5-.2m-7.55 37.1 1.2.3-.15.4-1.8 1.35-2.1 1.55-1.45 1.1-1.8.25 6.1-4.95m7.75-10.25-2.65 1.05-3.3.25-.7-.6 3.45-.4 2.75-1.2.85-.85.45.3-.85 1.45m23.25-2.35q-2.85-2.35-4.6-1l-.8-1.55 1.25-.3 2.3.6 1.85 2.25M255 212.65l-.15.95-.7.25-1.05-1.8-.1-.15-2.05.25-.3-.8.85-.5h2.45l1.05 1.8m5.9-11.8 2.3-1.55 1.3.7-2.35 1.75-1.25-.9m-14.55 8.4-1 .55-.65-.4.95-.6.7.45m1.15-9.3.9.05 4.05 1.6.85 1.55-.95.45-.85-1.2-3.25-.75-3.6.25-2.1 1.1v-.75l2.65-1.5 2.3-.8" fill="#e1dbc1" fill-rule="evenodd" transform="translate(-238.6 -146.7)"/><path d="m283.75 150-2.05 2.9 1.35.5 5.4-3.15 6.15-.05 4.2.8 1.3 2.1.45-.5-1.35-2.5-5.45-2.2-6.25-.05q5.4-2.1 11.85 1.55 8.05 5.9 1.7 14.2l-.7.75.85-1.55v-.3l.15-.6-.85-.25-2.4 5.35.55 2.6 1.5 1.1 2.6.1 2.2-.9-3.5-.15-1.1-1.4.6.45 4.2.2.2-.05q3.5-.2 5.1 1.55 3.6 4.25.85 7.55l.3-2.25-.35-1.25-2.9-.95h-2.95l-3.1 1.05-3.1 1.6v1l-1.2-.7-4.4 2.15-.85 1.45-2.4-.1-2.1.8-2.5-.4-.55-.7q-.6 1.1.3 2.2l-1.6.8-.4.85-.15.1.05.1.15 1.4v.1l-.15.1-3.3 2.65-.9-1.05 1.8-1.35.4-.35-.25-.05-1.2-.3 1.65-1.45-.1-.15 1.1-1.15 1.7-.45.05-.5-1.3.2-2.1-1.2-1.2-2.55.25-1.9h-.45l-.1.1-.95 1.1-.25.75q-.35-1.95 1.4-2.7l4.4-.7q2.85-.5 4.4-2.55l.9.55h2.2l2.9-2.35 3.6-8.9.1-3.95-1.45-1.6-3.7.25-2.8 1.85q-2.35-.2-3.05 2l-.1.55-.1.4q-.3 2.35 2.55 1.7l-.1.55-1.85.75-2.25-.5-.15-.05-1.5-3.55 2.1-4.1 2.3-1.25.05-.05-.55-1.2-3.1 1.55-3.65 4.35.25 3.45.4.95-1.1-1.15-.45-3.6 1.45-3.95-.75-.2-2.2 4-.6 2.5q-.4-3.2 2.05-6.65 1.85-2.55 3.9-4.15m1.7 29.4-.25.35.25-.35q.6-.9 2.05-1.8l3.85-1.45-2.9.1-2.65 1.65-.35 1.5m3.9-19.85-.55 1.1-1.1-.45.5-1.15 1.4-.45 2.1.55-2.35.4m-50.2 47.05q-1-3.15 5.5-6.3 5.55-3.05 9.3 2.35l8.7-5 .8.8-3 2.05.45.35 1.25.9 2.35-1.75 2.6-1.9.05-.05.25.15.8.65-5.15 4.3 1.15.85-2.3 2.5 1.35.85.2-.25-.7.95.35 1.25 1.5-1.45.05.4-2.3 2.7-.2.2-1.45.05-1.05-.9-.35.3 1.15 1.65 1.1.8.35 1.25-.7 2.25-2 2.15-2.05 1.3-4.5.1-3.85-3-1.05-1.2-.05-1.25 1.2-1.7 1.3-1.2.05-.05-.25-.55.3-.3h1.2l-.85.5.3.8 2.05-.25.1.15 1.05 1.8.7-.25.15-.95.2.35.6 1-.7.5-1.85-.1.65 1 2.25.1.1-.15.85-1.3-1-.55-1.55-4.9.7-1.4 2.25-1.15-1.15.1 1.95-1.55-5.7 2.45-4.55-.05-.5-.15-.3.3-1.15 1.3 1.95-.9.35.5-.7 1.6-2.7.95-2.95-1.3-1.45-2.1-.1-2.2.8-1.45-.5-.1-1.15 1.45-.5 1.7m58.55-34.7-1.1-2-1.6 2.8-3.1 2.55-1.45.4 1.2.35 7.9-3.25-1.85-.85m-10 2.8.85-1.45-.45-.3-.85.85-2.75 1.2-3.45.4.7.6 3.3-.25 2.65-1.05m23.25-2.35-1.85-2.25-2.3-.6-1.25.3.8 1.55q1.75-1.35 4.6 1m-63.45 27.6-2.3.8-2.65 1.5v.75l2.1-1.1 3.6-.25 3.25.75.85 1.2.95-.45-.85-1.55-4.05-1.6-.9-.05m-1.15 9.3-.7-.45-.95.6.65.4 1-.55" fill="#d2c5ac" fill-rule="evenodd" transform="translate(-238.6 -146.7)"/><path d="m281.45 163.2-.4-.95-.25-3.45 3.65-4.35 3.1-1.55.55 1.2-.05.05-2.3 1.25-2.1 4.1 1.5 3.55.15.05 2.25.5 1.85-.75.1-.55.9-.25.15-.05.35.05h.45l.3.8-1.25 2.2-3.2 1.25-3.75-.95-2-2.15M279.2 187l.9 1.05 3.3-2.65.15-.1h.15l.8.7.55.25-7.1 5.7-.35-1-3.45 2.7-.75-.95 4.3-3.25-.6-.9 2.1-1.55m18.5-15.1 1.85.85-7.9 3.25-1.2-.35 1.45-.4 3.1-2.55 1.6-2.8 1.1 2m-25.65 27v.5l-3.5 3.35-.4-.5-4.7 4.85-.2.25-1.35-.85 2.3-2.5-1.15-.85 5.15-4.3.5.35.6.9 2.45-2.15.3.95m-24 8.1 4.55.05 5.7-2.45-1.95 1.55 1.15-.1-2.25 1.15-.7 1.4 1.55 4.9-.9-.5-.2-.35-1.05-1.8h-3.55v-.1l.2-2.9-2.55-.85m22.7-9.85.5.45-1.15.95-.5-.55 1.15-.85m.55-2.7-.05-.05 1.6-1.45.6 1.05-.05.05-1.55 1.35-.55-.95m-8.1 4.85 4.4-2.95v.05l.95 1-1.15.8-.25-.15-.05.05-2.6 1.9-1.3-.7" fill="#c9b698" fill-rule="evenodd" transform="translate(-238.6 -146.7)"/><path d="m277.8 160.8.6-2.5 2.2-4 .75.2-1.45 3.95.45 3.6 1.1 1.15 2 2.15 3.75.95 3.2-1.25 1.25-2.2-.3-.8h-.45v-.15h-.05l-.05.05-.25.05-.15.05-.9.25q-2.85.65-2.55-1.7l.1-.4.1-.55q.7-2.2 3.05-2l2.8-1.85 3.7-.25 1.45 1.6-.1 3.95-3.6 8.9-2.9 2.35h-2.2l-.9-.55 1.2-2.75q3.1-.75 4.5-3.75l.2-.3q3.35-5-2.15-6.85 5.5 1.85 2.15 6.85l-.2.3q-1.4 3-4.5 3.75l-.85.2q-3.9.5-7.75-2.2-2.75-3.15-3.2-5.95l-.05-.3m.45 16.95.25-.75.95-1.1.1-.1h.45l-.25 1.9 1.2 2.55 2.1 1.2 1.3-.2-.05.5-1.7.45-1.1 1.15q-2.9-3.5-3.25-5.6m5.3 7.45-.15-1.4.1-.2.4-.85 1.6-.8q-.9-1.1-.3-2.2l.55.7 2.5.4 2.1-.8 2.4.1.85-1.45 4.4-2.15 1.2.7v-1l3.1-1.6 3.1-1.05h2.95l2.9.95.35 1.25-.3 2.25-.2.2q-1.05 1.15-2.85 2.15l-2.7 1.35q-2.65 1.25-6.85 4.5-1.7 1.75-4.95.15-.55-.4-1.05-.55l-.45-.1q-1.9-.3-3.9 1.85h-.05v.05q-.1 0-.15.1-13.3 9.3-22.25 20.1l-3.2 4.1q2.9.95 2.7 4t-3.3 5.6q-6 4.9-13.05-1.65-3.15-2.35-2.2-5.85l.05-.05-.05.05-2.85-.5q-2.3-2.3-4.6-6.35l-.25-.6.5-1.7 1.15-1.45.5.1-.8 1.45.1 2.2 1.45 2.1 2.95 1.3 2.7-.95.7-1.6-.35-.5-1.95.9 1.15-1.3.3-.3.5.15 2.55.85-.2 2.9-.4.4.25.55-.05.05-1.3 1.2-1.2 1.7.05 1.25 1.05 1.2 3.85 3 4.5-.1 2.05-1.3 2-2.15.7-2.25-.35-1.25-1.1-.8-1.15-1.65.35-.3 1.05.9 1.45-.05.2-.2 2.3-2.7-.05-.4-1.5 1.45-.35-1.25.7-.95 4.7-4.85.4.5 3.5-3.35v-1l6.1-5.8-.2-.65 7.1-5.7-.55-.25-.8-.7-.05-.05-.1-.05m1.9-5.8.35-1.5 2.65-1.65 2.9-.1-3.85 1.45q-1.45.9-2.05 1.8m3.9-19.85 2.35-.4-2.1-.55-1.4.45-.5 1.15 1.1.45.55-1.1m2.65-1.5-.35-.1.05.05.45.15h.05l-.2-.1m8.35 6.3q-1.7 2.05-.4 3.6l.4.4 1.1 1.4 3.5.15-2.2.9-2.6-.1-1.5-1.1-.55-2.6 2.4-5.35.85.25-.15.6v.3l-.85 1.55m-10.15-6.7 1.45.3-1.45-.3M246.9 214l3.1-2.85-3.1 2.85m45.35-28.25-4-2q-1.95-.9-2.75-1.8.8.9 2.75 1.8l4 2M256.1 213.5l1 .55-.85 1.3-.1.15-2.25-.1-.65-1 1.85.1.7-.5-.6-1 .9.5" fill="#bda580" fill-rule="evenodd" transform="translate(-238.6 -146.7)"/><path d="m281.15 185.25.25.05-.4.35.15-.4m2.4.05v-.1l.1.05.05.05h-.15m-.15-1.5-.05-.1.15-.1-.1.2m7.15-21.8.25-.05.05-.05h.05v.15l-.35-.05m-2.2 25.6-.05.05v-.05h.05" fill="#dfdfc7" fill-rule="evenodd" transform="translate(-238.6 -146.7)"/><path d="M262.65 197.65q5.5-3.5 10.75-7.45l.45-.3 1.8-.25 1.45-1.1.6.9-4.3 3.25.75.95 3.45-2.7.35 1 .2.65-6.1 5.8v.5l-.3-.95-2.45 2.15-.6-.9-.5-.35-.8-.65 1.15-.8-.95-1v-.05l-4.4 2.95-2.3 1.55-.45-.35 3-2.05-.8-.8m8.65-3.2.55.95 1.55-1.35.05-.05-.6-1.05-1.6 1.45.05.05m-.55 2.7-1.15.85.5.55 1.15-.95-.5-.45" fill="#d8c8b1" fill-rule="evenodd" transform="translate(-238.6 -146.7)"/><path d="M48.4 1.35q-1.1.45-2.2 1.2l-1.05.75q-2.05 1.6-3.9 4.15-2.45 3.45-2.05 6.65l.05.3q.45 2.8 3.2 5.95 3.85 2.7 7.75 2.2l.85-.2-1.2 2.75q-1.55 2.05-4.4 2.55l-4.4.7q-1.75.75-1.4 2.7m3.25 5.6.1.15-1.65 1.45m7.55-37.1q5.4-2.1 11.85 1.55 8.05 5.9 1.7 14.2l-.7.75q-1.7 2.05-.4 3.6m.4.4.6.45 4.2.2.2-.05q3.5-.2 5.1 1.55 3.6 4.25.85 7.55m-.2.2q-1.05 1.15-2.85 2.15l-2.7 1.35q-2.65 1.25-6.85 4.5-1.7 1.75-4.95.15-.55-.4-1.05-.55l-.45-.1q-1.9-.3-3.9 1.85m-.05.05q-.1 0-.15.1-13.3 9.3-22.25 20.1l-3.2 4.1q2.9.95 2.7 4t-3.3 5.6q-6 4.9-13.05-1.65-3.15-2.35-2.2-5.85l.05-.05-.05.05-2.85-.5Q3.1 64.55.8 60.5l-.25-.6q-1-3.15 5.5-6.3 5.55-3.05 9.3 2.35l8.7-5q5.5-3.5 10.75-7.45m.45-.3 6.1-4.95m1.55-1.6q-2.9-3.5-3.25-5.6" fill="none" stroke="#000" stroke-linecap="round" stroke-linejoin="round" stroke-opacity=".302" stroke-width=".8"/><path d="M50.9 15.6q-2.85.65-2.55-1.7l.1-.4.1-.55q.7-2.2 3.05-2m-4.7 24.3q-.9-1.1-.3-2.2l.25-.35m2.05-1.8q-1.45.9-2.05 1.8m4.05-17.1.9-.25m1.6-4-.35-.1-1.45-.3m1.5.35.3.05.2.1q5.5 1.85 2.15 6.85l-.2.3q-1.4 3-4.5 3.75m2.5-10.9-.45-.15m.3.05.15.1m-3.8 29.45-.05.05m-38.3 23.5L8.3 67.3m38.6-32.05q.8.9 2.75 1.8l4 2m-45 21.4.3-.3.5.15m7.05 7.5.7-.5-.6-1-.2-.35m-3.5-1.8h-1.2l-.3.3m.4-.4.2-2.9-2.55-.85m3.45 3.85h2.45l1.05 1.8m-4.7-1.8.1-.1" fill="none" stroke="#000" stroke-linecap="round" stroke-linejoin="round" stroke-opacity=".153" stroke-width=".2"/></g></defs></svg>