<svg viewBox="0 0 67.87 60.325" xmlns="http://www.w3.org/2000/svg" xmlns:xlink="http://www.w3.org/1999/xlink"><use transform="translate(-.05)" width="67.9" height="60.3" xlink:href="#a"/><defs><g id="a"><path d="M269.4 200.4h.1l.2-.05v.2l-.05.5-.25-.65m-24.75 6.1-.05-.1.25.3h-.05l-.15-.2.15.2h-.1v-.05l-.05-.15" fill="#f8f7e6" fill-rule="evenodd" transform="translate(-241.45 -170.1)"/><path d="m242 191.5.3-.35-.2-.15.05-.15q.65-2.5 4.3-6.95 1.05-1.35 2.4-2.8l.05-.1 1.15-1.2.65-.75 1.25-1.3.1-.1 1.15-1.25.65-.65.1-.05q3.85-4.05 5.05-4.8.85-.6 1.3 0l.1.2q-3.65 3-6.15 5.8.95 2.05 3.3 4.1l-.25.3q-3.1-3.05-3.45-3.95l-.65-.95.65.95-1.05 1.25q1.75 1.75 4.5 2.7h.6l.65.5-3.05-.95-2.95-1.65-2.6 3.2-1.1-1.3 1.1 1.3q3.3 3.55 8.35 4.35-5.4-.45-8.65-3.9l-.1-.15.1.15q-.35.4-.1-.15l-3.1 1.2 3.1-1.2q-3.5 6.5-3.65 10.8 4.1 2 8.7 1.3-5.85 1.25-8.65-.4H242h3.95q-.05.9.05 1.55 1.85 5.1 5 8.75 4.85-1.4 9.35-4.85-.85 4.45-4.4 7.4l-1.2.95q2.85 2.1 6.4 3.4l5.25 1.4q3.4-3.25 3.05-11.9l.2-.05q.55 8.15-2.15 12.2l8.15.85q-1.7-6.55-5.75-13.15 3.65 6.25 5.45 10.3l.9 2.85 8.15-.6q3.4-8.1-3.95-16.55v-.05l.25-.2q6.65 4.85 5.55 16.4 6.15-1.3 12.15-4.3-1.45-9.05-8.2-14.75 7.35 5.95 9.1 14.3l4.85-2.9q.05-3.65-1.75-6.7-1.65-2.8-4.75-5.05l-6.4-1.1 5.65.6.9.25h.05l.4.25.05-.15 2.45.9q4.2 1.75 7.9 5.3l-.15.2q-5.1-4.05-10.25-6.25l2.5 2.15q1.1 1.2 2 2.65 1.65 2.65 2.5 6.2l3.55-3.3.05-.1q.25 6.4-2.65 10.65v14.55q-1.3.05-1.35-2l-.55 1.95-1-1.3q.25.35-.2 1.55l-.35-.75q-.4-.6-.55.1l-.1 1.05.05 3.2-.6-2.75-.6 1v-.85l-1.1 1.1-.1-13-6.85 1.9-8.2 1.95-2.15.4h-.05l-3.9.65-2.8-.1q-4.25-.6-12.9-3.4l-.15-.6-.95.25-12.8-5.45-.1-.05h-.05q-2.6-1.55-4.1-4.5l.15-.05h-.15l-.05-.05v-.05h.15l-.25-.3-.6-1.6-.9-3.15q-.95-4.15-1.1-7.25v-2.9m.3-.35q1.75 1.45 3.6 2.35-1.85-.9-3.6-2.35m11.55-15.4.4 1.15-.4-1.15m-1.05 2.85-.85-.85.85.85m-2.75 1.2 2.5-.6-2.5.6m34.35 34.9v-1.2 1.2m.3 4.95q1.1-3.5 1.55-6.55-.45 3.05-1.55 6.55m15.05-3.85q.25-3.95-.45-7.45.7 3.5.45 7.45m6.45-3.85q-.15-4-.95-7.25.8 3.25.95 7.25m-30.4 8.65q.9-3.5.45-6.5.45 3-.45 6.5m-21.6-12.85q4.9-3.5 6.15-7.9-4 3.6-8.85 5.4 1.25 1.35 2.7 2.5m-2.7-2.5q-3.15 1.1-6.6 1.55 3.45-.45 6.6-1.55m16 8q-1.75 2.5-4.75 3.35 3-.85 4.75-3.35M249 211.4q3.45-1.65 5.75-3.2-2.3 1.55-5.75 3.2" fill="#bab9ac" fill-rule="evenodd" transform="translate(-241.45 -170.1)"/><path d="M245.95 194.4q2.8 1.65 8.65.4-4.6.7-8.7-1.3.15-4.3 3.65-10.8-.25.55.1.15 3.25 3.45 8.65 3.9-5.05-.8-8.35-4.35l2.6-3.2 2.95 1.65 3.05.95-.65-.5h-.6l.25-.3q-2.35-2.05-3.3-4.1 2.5-2.8 6.15-5.8.85 1.9-1.1 11.15l-.05.1-.7-.55.7.55h.05l-.1.55-.85 3.75-.05.1-2.3 7.7v.1l-1.4.25 1.4-.25.05-.1 4.45 2.3 1.65.85.55.3q4.9 2.25 6.7 2.5l.25.65.25-.1-.2-.4v-.2q4.95-1.4 10.65-3.55l.35-.1.05-.05 3.05-1.2 1.85-.75 3.65-1.4h.05q.95-.4 1.85-.7h.05q5.7-2.1 7.2-2.05 1.15.05 2.35.55 2.15.85 4.35 3.05 2.9 2.85 3.55 5.6h-.05q-3.7-3.55-7.9-5.3l-2.45-.9-.45-.1.45.1-.05.15q5.15 2.2 10.25 6.25l.15-.2.05.35.15 1.2-.05.1-.1-1.3-.2-.15.2.15.1 1.3-3.55 3.3q-.85-3.55-2.5-6.2-.9-1.45-2-2.65l-2.5-2.15-.4-.25h-.05l-.9-.25-5.65-.6 6.4 1.1q3.1 2.25 4.75 5.05 1.8 3.05 1.75 6.7l-4.85 2.9q-1.75-8.35-9.1-14.3l-.9-.7.9.7q6.75 5.7 8.2 14.75-6 3-12.15 4.3 1.1-11.55-5.55-16.4l-.25.2v.05q7.35 8.45 3.95 16.55l-8.15.6-.9-2.85q-1.8-4.05-5.45-10.3 4.05 6.6 5.75 13.15l-8.15-.85q2.7-4.05 2.15-12.2l-.2.05q.35 8.65-3.05 11.9l-5.25-1.4q-3.55-1.3-6.4-3.4l1.2-.95q3.55-2.95 4.4-7.4-1.25 4.4-6.15 7.9-1.45-1.15-2.7-2.5 4.85-1.8 8.85-5.4-4.5 3.45-9.35 4.85-3.15-3.65-5-8.75-.1-.65-.05-1.55m7.9-17.05q.35.9 3.45 3.95-2.75-.95-4.5-2.7l1.05-1.25m3.7 3.65.35.3-.35-.3m-1.5 16q-.25-.85-.05-2.45-.2 1.6.05 2.45m24.4-.1-.1-.1.1.1m8.85-3.6v.05-.05l.9.75-.9-.75m-19.85 7.8-.05-.7.05.7m-8.95-4.35-.15 3.1.15-3.1" fill="#fffddf" fill-rule="evenodd" transform="translate(-241.45 -170.1)"/><path d="m.85 21.05-.2-.15m12.5 3.8q-4.6.7-8.7-1.3-1.85-.9-3.6-2.35m63.9 20.8v.1M16.1 10.9q-2.35-2.05-3.3-4.1l-.4-1.15m3.45 5.55h.6l-.35-.3m-4.75-2.4q1.75 1.75 4.5 2.7M10.5 7.65l.85.85M7.4 11l1.1 1.3m8.35 4.35q-5.05-.8-8.35-4.35m41.25 10.2h.05l5.65.6.9.25h.05l.45.1 2.45.9q4.2 1.75 7.9 5.3l.05.35.1 1.3m-19.5-8.1v.05l.9.7q7.35 5.95 9.1 14.3.7 3.5.45 7.45M44.8 43q-.45 3.05-1.55 6.55M63.8 34.6q-.85-3.55-2.5-6.2-.9-1.45-2-2.65l-2.5-2.15m7 11q.8 3.25.95 7.25m-36.5-11.4.2.4q3.65 6.25 5.45 10.3l.9 2.85q.45 3-.45 6.5M28.2 30.95q.55 8.15-2.15 12.2m-7.15-13.4q-.85 4.45-4.4 7.4l-1.2.95q-2.3 1.55-5.75 3.2M18.9 29.75q-4 3.6-8.85 5.4m-6.6 1.55H3.3m.15 0q3.45-.45 6.6-1.55m10.3 11.6.95-.25q3-.85 4.75-3.35m-7.15-13.4.15-3.1m20.2-.05Q45.9 31.45 44.8 43" fill="none" stroke="#9c9b98" stroke-linecap="round" stroke-linejoin="round" stroke-width=".25"/><path d="M17.8 12.25h.05m-.75-.55.7.55m-.7-.55-.65-.5m11.8 19.05v.2l-.05.5-.25-.65m-24.6 6.3h.05m-.15 0h.1" fill="none" stroke="#9c9b98" stroke-linecap="round" stroke-linejoin="round" stroke-width=".25"/><path d="M256 194.55q-.2 1.6.05 2.45m-.05-2.45v-.1M262.15 197.6l.55.3m19.85 22.15h-.05" fill="none" stroke="#666" stroke-linecap="round" stroke-linejoin="round" transform="translate(-241.45 -170.1)"/><path d="m58.4 58.7-.1-13M64.75 41.95V56.4" fill="none" stroke="#666" stroke-linecap="round" stroke-linejoin="round" stroke-width=".5"/><path d="M64.75 56.4q-1.3.05-1.35-2l-.55 1.95-1-1.3q.25.35-.2 1.55l-.35-.75q-.4-.6-.55.1l-.1 1.05.05 3.2-.6-2.75-.6 1v-.85" fill="none" stroke="#666" stroke-linecap="round" stroke-linejoin="round" stroke-width=".25"/><path d="M59.5 57.75q-.65.95-1.1.95" fill="none" stroke="#666" stroke-linecap="round" stroke-linejoin="round" stroke-width=".25"/><path d="M.55 24.3H4.5q2.8 1.65 8.65.4l1.4-.25M11.75 6.3l.65.95M11.1 9.1l-2.5.6m-.4 3.05-.1-.15L5 13.8m3.2-1.05q3.25 3.45 8.65 3.9m26.1 26.75v1.2m4.9-21.4.9.75q6.75 5.7 8.2 14.75m10.1-8.85.2.15m-38.8.85-.15-.3m-.35-.25.05.7m-3.05 11.9Q28.35 39.65 28 31m-15.25 6.65q4.9-3.5 6.15-7.9M9.55 34.6q4.85-1.4 9.35-4.85" fill="none" stroke="#bab9ac" stroke-linecap="round" stroke-linejoin="round" stroke-width=".25"/><path d="m242.1 191-.1.5v2.9m.1-3.4.05-.15q.65-2.5 4.3-6.95 1.05-1.35 2.4-2.8l.05-.1 1.15-1.2.65-.75 1.25-1.3.1-.1 1.15-1.25.65-.65.1-.05q3.85-4.05 5.05-4.8.85-.6 1.3 0l.1.2m-1.1 11.15v.1l-.1.55-.85 3.75-.05.1-2.3 7.7m.05 0 4.45 2.3m9.2 3.6q4.95-1.4 10.65-3.55l.35-.1.05-.05 3.05-1.2 1.85-.75 3.65-1.4h.05q.95-.4 1.85-.7h.05q5.7-2.1 7.2-2.05 1.15.05 2.35.55 2.15.85 4.35 3.05 2.9 2.85 3.55 5.6m-32.9 20.85q-4.25-.6-12.9-3.4M244 204.8l-.9-3.15q-.95-4.15-1.1-7.25m2.6 12-.6-1.6M260.5 196.75l1.65.85m22.55 22.05-2.15.4M308.85 201.3q.25 6.4-2.65 10.65" fill="none" stroke="#666" stroke-linecap="round" stroke-linejoin="round" transform="translate(-241.45 -170.1)"/><path d="m3.25 36.6-.7-1.9m.65 1.7.15.2" fill="none" stroke="#666" stroke-linecap="round" stroke-linejoin="round" stroke-width=".4"/><path d="M260.4 171.1q.85 1.9-1.1 11.15m-3.3 12.2h.05m6.65 3.45q4.9 2.25 6.7 2.5h.1l.2-.05m30.05 15.45-6.85 1.9-8.2 1.95m-2.2.4-3.9.65-2.8-.1m-12.9-3.4-1.1-.35M308.7 199.75v.35l.1 1.3M261.8 216.85 249 211.4M249 211.4l-.1-.05h-.05q-2.6-1.55-4.1-4.5v-.05l-.05-.05v-.05" fill="none" stroke="#666" stroke-linecap="round" stroke-linejoin="round" transform="translate(-241.45 -170.1)"/><path d="m38.9 26.7.1.1" fill="none" stroke="#bab9ac" stroke-linecap="round" stroke-linejoin="round" stroke-width=".25"/><path d="m3.4 36.6-.25-.3" fill="none" stroke="#666" stroke-linecap="round" stroke-linejoin="round" stroke-width=".4"/></g></defs></svg>