<svg viewBox="0 0 62.514 71.3" xmlns="http://www.w3.org/2000/svg" xmlns:xlink="http://www.w3.org/1999/xlink"><use transform="translate(-.01)" width="62.5" height="71.3" xlink:href="#a"/><defs><g id="a"><path d="m183.6 159.45.3-.7 19.95 33.4-10.15-9.95 1.9 5.3 1.9 5.05 2.55 6.85q-1.15.1-6.25-8.4-5.15-8.55-8.3-19.1-2.2-7.4-2.25-10.55-.05-1.35.35-1.9" fill="#fff" fill-rule="evenodd" transform="translate(-181.25 -153.15)"/><path d="M183.6 159.45q-.4.55-.35 1.9.05 3.15 2.25 10.55 3.15 10.55 8.3 19.1 5.1 8.5 6.25 8.4l-2.55-6.85-1.9-5.05-1.9-5.3 10.15 9.95-19.95-33.4-.3.7m33.95 62.3q-2.5-2.15-10.85-11.1-10.05-10.85-12.6-15.25-6.9-11.85-10.35-23.65-2.6-8.75-1.8-14.5.25-2 .9-3.6 5.75 11.3 13.95 17.3 4.95 9.35 12.4 10.9.35.65.15.2t.3-.15l4.95 4.75 1.45 1.5 5.15 8.6q2.35 3.85 4.2 8.05l.55 1.15q2.1 5 0 10.5-2.05 5.75-8.4 5.3m-7.25-27.95q4.95 5.95 11.3 7.4l3.8 3.6-3.8-3.6q-6.35-1.45-11.3-7.4m-3.5-7 14.45 13.3.35 1.1-.35-1.1-14.45-13.3" fill="#f4e9bd" fill-rule="evenodd" transform="translate(-181.25 -153.15)"/><path d="M214.6 186.65q1.9.95 7.2 1.55 4.4.5 4.55 1.2.45 3.3 8.6 5.9 4.1 1.3 8.05 1.9.55 2.5 0 4.5-.55 3.1-1.95 6.1-3.15 7.2-10.3 11.85-4.15 3.3-10.55 4.3l-2.65-2.2q6.35.45 8.4-5.3 2.1-5.5 0-10.5l-.55-1.15q-1.85-4.2-4.2-8.05l-5.15-8.6-1.45-1.5m17.8 24.65-7-6.5 7 6.5" fill="#ebd683" fill-rule="evenodd" transform="translate(-181.25 -153.15)"/><path d="m216.55 221.65.4.6-.45-.6h.05" fill-opacity=".2" fill-rule="evenodd" transform="translate(-181.25 -153.15)"/><path d="M217.55 221.75q-2.5-2.15-10.85-11.1-10.05-10.85-12.6-15.25-6.9-11.85-10.35-23.65-2.6-8.75-1.8-14.5.25-2 .9-3.6 5.75 11.3 13.95 17.3 4.95 9.35 12.4 10.9m.45.05 4.95 4.75q1.9.95 7.2 1.55 4.4.5 4.55 1.2.45 3.3 8.6 5.9 4.1 1.3 8.05 1.9.55 2.5 0 4.5-.55 3.1-1.95 6.1-3.15 7.2-10.3 11.85-4.15 3.3-10.55 4.3l-2.65-2.2" fill="none" stroke="#484848" stroke-linecap="round" stroke-linejoin="round" transform="translate(-181.25 -153.15)"/><path d="m44.15 51.65-3.8-3.6q-6.35-1.45-11.3-7.4m15.1 11 7 6.5m-10.8-10.1-.35-1.1-14.45-13.3" fill="none" stroke="#000" stroke-linecap="round" stroke-linejoin="round" stroke-opacity=".302" stroke-width=".05"/></g></defs></svg>