<svg viewBox="0 0 122.25 110.32" xmlns="http://www.w3.org/2000/svg" xmlns:xlink="http://www.w3.org/1999/xlink"><use width="122.25" height="110.3" xlink:href="#a"/><defs><g id="a"><path d="M76 69.5h.05H76m50.2-24.85.4.05-.05.3-.35-.35m-5.65 2.05.3-.15q-.1.35-.05.75l-.25-.6m-14.4 18.4-.25.1.1-.2.15.1m-5.95-21.85 1.7-.1.7.85-2.4-.75m33.35 33.05.15.1-.25.3.1-.4" fill="#f8ebcf" fill-rule="evenodd" transform="translate(-49.55 -1.15)"/><path d="m50.05 86.7 1.3-15.7.3-3.15.05-.05.1-1.55.15-.5 2.5-12.05 2.05-.4 2.4-.55 4 9.2v13.5l2.75-14.4-2.1-11.15-5.85-.15q1.4-3.4 3.55-6.4l5.9 2.05 1.7 9.25.35 1.95v24.75l-5.35 7.25-5.6 2.2-8.2-4.1M71.7 70.15l1.6-.7 2.7.05h.05l4.2-5 7.4 2.7.2.1 2.55.45q2.5-2 5.35-3.15 6.9-1.55 10.25.4l-.1.2-8.95 6.25-9.3 13.95.4 2.4L85.2 85l2.75-8.4-7.15.8-4.9-3.05-2.95-.05-.95-2.4-.3-1.75m8.1-9.35h-.05l-1.4-2.05 2.1-4.6-2.1.8-2.55-4.7 3-5.6-2.55-3.9.4-13.5 2.65-3.1 1.65-1.75.8-.7 3-2.5q5.4-4.55 6.9-5.55l.2-.05.15-.1 15.1-5.8 11.4.05q15.25 4.55 22.55 9.2l.65 1.15q1.95 1.2 1.25 2.25l1.5-.35 2.5 14.8q-2.1.45-4.25 1.7l-.1.4-.65 2.35 1.45.55 1.05 3.6-1.35 1.8-11.3-3.8-20.6 4.5-5.35 6.9-.9-2.65L89.4 51.9l-3.2.35-.9-.1-1.05.45-1.15.45.55-.2-1.1 2.65 1.65 2 .3.35 2.7-.35q4.95-.6 10-.1 3.55.3 7.1 1.15l.65.35.8.45-1.95 2.5v.1l-.35 1-.55.05-1.35.1-.3.05-3.35-1.75-1.65-.85h-.85l-15.6.25m57.65-5.4-8 9.2-5.75.65-1.05-.4-9.4-3.6 1.85-1.85 1 .65q4.45 2.7 6.45 2.25 6.95-7.5 14.9-6.9M108 1.45l-.3-.3h1.2l-.9.3M97.1 42.3l2.3.7 3.2 1h.05l1.9 1.95.75.2 3.45-8.2 5.6-3.95 4.15-2.1-6.15-1.7-5.05-3.75q-.85 6.15-5.7 10.9l-10.8 4.6 4.45.25 1.8.1h.05M80.45 54.15l2.65-1.1-2.65 1.1m62.35 5.1 5 1.8-2.45 5.7-2.85-.55-8.8 10.2-.15-.1-3.85-3.2-.3-3.4q2.1-3.25 4.4-5.6 3.6-3.75 7.7-5.35l1.3.5M78.75 69.6l-2.7-.1 2.7.1" fill="#f3f5f8" fill-rule="evenodd" transform="translate(-49.55 -1.15)"/><path d="M138.6 80q-1.45 5.75 2.05 6.65l4.15-6.9-1.4 7.55q0 7.6 6.75 4.1 9.15.25 12.55-7.45l-2.15 6.4-8.3 6-3.55 3.35-19.1-.6-.8.4 8.3-13.05.8-5.2.7-1.25m-48.1 22.5-4.75-2.15-12.15-2.7-2.45 1.25q-5.7-.7-11.4-3.6v-.05l.1.05q9.6 3.6 15.95-.8l-6.6-6 6.45 3.6q1.6-5.3 1-11.75l1.55 3.4L80.25 85l2 7.45.15.65.25-.15 7.85 9.55m-10.25-38 1.15-1.35.7-.75v-.05l-2.3-1.55 15.6-.25 2.5.85 3.35 1.75.3-.05 1.35-.1.55-.05.35-1v-.1l1.95-2.5.8-1.15.8-.35.05-.05-.15-2.55-.6-.05-.2-.65-.15-.35-.45-1.4.45 1.4-2.8-1.15h-.05v.1l-14.1-.75.05-.5 15.55-1.75.9 2.65 5.35-6.9 20.6-4.5 11.3 3.8-.55.7-5.55-.45-10.4-.75-.4-.05h-.55l-4.8 1.9-.3.15-1.7.7-4.95 2-1.3 4.25-.4.6-.9 1.25-4.05-.25 4.05.25.9-1.25.15 4.05 1.3 1.7.4.45-1.7 1.7.9-.9 9.4 3.6-9.5 1.35-3.15-2.7-3.85 1.6-.15-.1q-3.35-1.95-10.25-.4-2.85 1.15-5.35 3.15l-2.55-.45-.2-.1-7.4-2.7m65.8-12.65 1.9 8.15-.15 1.05-5-1.8 3.25-7.4M99.4 43l-2.3-.7h-.05l-1.8-.1-4.45-.25 10.8-4.6q4.85-4.75 5.7-10.9l5.05 3.75 6.15 1.7-4.15 2.1-5.6 3.95-3.45 8.2-.75-.2-1.9-1.95h-.05l-.7-.85-1.7.1-.8-.25m1.55-.95.95 1.1-.95-1.1m5.25 18.65v-1.05l-.45-.3.45.3v1.05m-10.45 3.9q2.6-1.1 5.5-1.45-2.9.35-5.5 1.45M84.5 64l-2.4-1.65L84.5 64M73.9 97.5l8.5-4.4-8.5 4.4-.6.1.25.05h.05l.3-.15m78.35-1.15-11.2-.25-4.6-5.55.65-4.1-.65 4.1 4.6 5.55 11.2.25M78.2 83.75l.5 1.4.45 2.15q.25 2-.4 3.35.65-1.35.4-3.35l-.45-2.15-.5-1.4m57.2 12.45-5.8 2.9 5.8-2.9" fill="#a5b5c7" fill-rule="evenodd" transform="translate(-49.55 -1.15)"/><path d="m159.75 43.55 3.9 21.85 2.8-3.1v10.55l-9.05 11.3-10.55-.25 2.7-12.5-5.9 7.3-2.35-3.9 4.05-8.05 2.45-5.7.45.2-.3-1.25 1.8-12.05q2.05-5.05 7.15-6.35l2.85 1.95" fill="#fff" fill-rule="evenodd" transform="translate(-49.55 -1.15)"/><path d="m90.55 102.55-.05-.05.05.05m-8.3-10.1.4.5-.25.15-.15-.65M73.9 97.5l-.3.15h-.05l-.25-.05.6-.1" fill="#c79e5c" fill-rule="evenodd" transform="translate(-49.55 -1.15)"/><path d="m159.75 43.55 2.85 1.95 7.85 18.9.85 6.85-3 13.45-7.75 5.65 2.15-6.4q-3.4 7.7-12.55 7.45-6.75 3.5-6.75-4.1l1.4-7.55-4.15 6.9q-3.5-.9-2.05-6.65l2.7-5.2-2.7 5.2-.7 1.25-.8 5.2-8.3 13.05-6.35 3.15-4.5 4.5-1.6 3-3.35.7q-5.4.55-12.3-1.5l-7.55-5.65-2.6-1.15-.05-.05-7.85-9.55-.4-.5-2-7.45-2.05-1.25-1.55-3.4-.85-1.85-1.7-1.15-1.15-3.05 1.15 3.05 1.7 1.15.85 1.85q.6 6.45-1 11.75l-6.45-3.6 6.6 6q-6.35 4.4-15.95.8l-.1-.05v.05l-.05-.05q-5.65-3-9.65-8.4v-.15l8.2 4.1 5.6-2.2 5.35-7.25V56.6l2.5 13.55.3 1.75.95 2.4 2.95.05 4.9 3.05 7.15-.8L85.2 85l2.85 2.8-.4-2.4 9.3-13.95 8.95-6.25.25-.1 3.85-1.6 3.15 2.7 9.5-1.35 1.05.4 5.75-.65 8-9.2 2.8-.45V50.7l-1.2-1.9-.05-.1-2-3.25 5.55.45.55-.7 1.35-1.8-1.05-3.6-1.45-.55.65-2.35.1-.4q2.15-1.25 4.25-1.7l.45 2.6-2.1 11.15.75 3.15v.15l-3.25 7.4-1.3-.5q-4.1 1.6-7.7 5.35-2.3 2.35-4.4 5.6l.3 3.4 3.85 3.2-.1.4.25-.3 8.8-10.2 2.85.55-4.05 8.05 2.35 3.9 5.9-7.3-2.7 12.5 10.55.25 9.05-11.3V62.3l-2.8 3.1-3.9-21.85M56.5 53.3l1.2-3.55 5.85.15 2.1 11.15-2.75 14.4v-13.5l-4-9.2-2.4.55m55.25 15.95-3-1.1h-.05l-3.7-.55-3.2 3.2.6-1.2-4.2 5.9L94 82l-1 7.8 4 3.15 2.1 1.1 1.7.55 7.4-.2 4.75.3 1.65.05 2.4-.4q1.85-.65 3.8-.95 1.6-2.9 2.25-6 .9-4.15-.95-8.05l-1.45-2.65q-2.1-3.35-5.4-5.55-1.7-1.05-3.45-1.85l-.05-.05m18.1 5.95-.15-2.1.15 2.1" fill="#d9dfe8" fill-rule="evenodd" transform="translate(-49.55 -1.15)"/><path d="m126.6 44.7 10.4.75 2 3.25.05.1 1.2 1.9v.9l-5.85.2q-1.45.1-2.65.9-5.95 3.95-10.55 3.1l-4.2-1.4v-.2q-.4-4 1.85-6.8l1.7-.7.25.6q-.05-.4.05-.75l4.8-1.9h.55l.35.35.05-.3m-20.3 9.5.15.35q-1.1 1.25-3.25 1.2l-14-.15.15-3.2 14.1.75.05-.1 2.8 1.15m-19.1 3.3-2.7.35-.3-.35q1.5-.2 3 0m24.55 11.75.05.05q1.75.8 3.45 1.85 3.3 2.2 5.4 5.55l1.45 2.65q1.85 3.9.95 8.05-.65 3.1-2.25 6-1.95.3-3.8.95l-2.4.4-1.65-.05 3.85-5.9q.85-3.3 0-7.4-2.2-3.75-6.4-6l-1.4 2 2.2 11.2-6 2.4-4-4.2 3.6.2 1-10.6-2 .2 1-4 6.95-3.35" fill-rule="evenodd" transform="translate(-49.55 -1.15)"/><path d="m106.45 54.55.2.65.6.05.15 2.55-.05.05-.8.35-.8 1.15-.8-.45-.65-.35q-3.55-.85-7.1-1.15-5.05-.5-10 .1-1.5-.2-3 0l-1.65-2 1.1-2.65.6-.25 1.05-.45.9.1 3.2-.35-.05.5-.15 3.2 14 .15q2.15.05 3.25-1.2m5.75-.3.4-.6 1.3-4.25 4.95-2q-2.25 2.8-1.85 6.8v.2l4.2 1.4q4.6.85 10.55-3.1 1.2-.8 2.65-.9l5.85-.2v3.35l-2.8.45q-7.95-.6-14.9 6.9-2 .45-6.45-2.25l-1-.65-1.05 1.05-.4-.45-1.3-1.7-.15-4.05m-7.25 4.65 1.6-.7-1.6.7m-9.55 1.65h.85l1.65.85-2.5-.85m-9.2-8.3 3.15.15-3.15-.15" fill="#3c3c3c" fill-rule="evenodd" transform="translate(-49.55 -1.15)"/><path d="m112.95 94.7-4.75-.3-7.4.2-1.7-.55-2.1-1.1-4-3.15 1-7.8 4.2-6.5 4.2-5.9-.6 1.2 3.2-3.2 3.7.55h.05l3 1.1-6.95 3.35-1 4 2-.2-1 10.6-3.6-.2 4 4.2 6-2.4-2.2-11.2 1.4-2q4.2 2.25 6.4 6 .85 4.1 0 7.4l-3.85 5.9" fill="#3c4e60" fill-rule="evenodd" transform="translate(-49.55 -1.15)"/><path d="m63.4 93.55 3.85-5.9m-5.6-.2-6 2.4-4-4.2m2.6-10.2 1-4 6.95-3.35" fill="none" stroke="#000" stroke-linecap="round" stroke-linejoin="round" stroke-width=".05"/><path d="m160.55 90.35 7.75-5.65 3-13.45-.85-6.85-7.85-18.9-2.85-1.95M141.3 74.8l-2.7 5.2-.7 1.25-.8 5.2-.65 4.1 4.6 5.55 11.2.25-3.55 3.35-19.1-.6-.8.4-6.35 3.15-4.5 4.5-1.6 3-3.35.7q-5.4.55-12.3-1.5l-7.55-5.65-2.6-1.15-.05-.05-4.75-2.15-12.15-2.7-2.45 1.25q-5.7-.7-11.4-3.6l-.05-.05q-5.65-3-9.65-8.4v-.15l1.3-15.7.3-3.15.05-.05.1-1.55.15-.5 2.5-12.05 2.05-.4 1.2-3.55q1.4-3.4 3.55-6.4l5.9 2.05 1.7 9.25.35 1.95 2.5 13.55 1.6-.7 2.7.05h.05l4.2-5m80.3 25.85-8.3 6M81.4 63.15l.7-.75v-.05l-2.3-1.55h-.05l-1.4-2.05 2.1-4.6-2.1.8-2.55-4.7 3-5.6-2.55-3.9.4-13.5 2.65-3.1 1.65-1.75.8-.7 3-2.5q5.4-4.55 6.9-5.55l.2-.05.15-.1 15.1-5.8 11.4.05q15.25 4.55 22.55 9.2l.65 1.15q1.95 1.2 1.25 2.25l1.5-.35 2.5 14.8.45 2.6-2.1 11.15.75 3.15m0 .15 1.9 8.15 1.8-12.05q2.05-5.05 7.15-6.35l2.85 1.95m-33.55 1.1.4.05 10.4.75 5.55.45.55-.7m-37.25 7.6.45 1.4.15.35.2.65.6.05 4.05.25.9-1.25.4-.6 1.3-4.25 4.95-2 1.7-.7.3-.15 4.8-1.9h.55l.35.35m12.5 3.8 1.2 1.9v4.25l-2.8.45m-64.5 18.9 1.15 3.05 1.7 1.15.85 1.85 1.55 3.4L80.25 85l2 7.45m54.75-47 2 3.25m7.95-13.9q-2.1.45-4.25 1.7l-.1.4m-.65 2.35 1.45.55 1.05 3.6-1.35 1.8m-46-2.9 2.3.7 1.6.5m.9-.35-.95-1.1m-3.9.25-1.8-.1m19.1-8.2-5.6 3.95-3.45 8.2m-.75-.2-1.9-1.95h-.05l-1.6-.5m1.6.5-.7-.85m18.95 3.4q-.1.35-.05.75m-8.6 6.95.15 4.05 1.3 1.7m.4.45 1.05-1.05 1 .65q4.45 2.7 6.45 2.25 6.95-7.5 14.9-6.9m-24.2 5.85.8-.8m-10.6-7.4h.05l2.8 1.15m-2.8-1.15-.05.1-14.1-.75-3.15-.15-.9-.1-1.05.45-.6.25-.55.2-2.65 1.1m24.5-4 .9 2.65m-.1 6.55.45.3v1.05m-.45-1.35-.8-.45-.65-.35q-3.55-.85-7.1-1.15-5.05-.5-10 .1l-2.7.35-.3-.35-1.65-2 1.1-2.65m22.9 5.35-1.6.7m1.6-.7.8-.35.05-.05-.15-2.55m-5.7 7.85 1.35-.1.55-.05.35-1v-.1m-8.05 2.75q-2.85 1.15-5.35 3.15l-2.55-.45-.2-.1m24.7-5.05.9-.9m-31.15 1.1L84.5 64m16.75-.85q-2.9.35-5.5 1.45M82.4 93.1l-8.5 4.4-.3.15h-.05l-.25-.05m9.1-4.5-.15-.65M147.95 60l-.15 1.05.45.2-.3-1.25m-.15 1.05-5-1.8-1.3-.5q-4.1 1.6-7.7 5.35-2.3 2.35-4.4 5.6l.3 3.4.15 2.1m15.5-8.45 2.45-5.7m-2.45 5.7-4.05 8.05m-78.4-4.6v-8.25l-4-9.2-2.4.55m15.2 16.85.3 1.75.95 2.4m3.1-4.8 2.7.1M76 69.5h.05m2.7 21.15q.65-1.35.4-3.35l-.45-2.15-.5-1.4m51.4 15.35 5.8-2.9" fill="none" stroke="#000" stroke-linecap="round" stroke-linejoin="round" stroke-opacity=".361" transform="translate(-49.55 -1.15)"/></g></defs></svg>