<svg viewBox="0 0 47.415 44.499" xmlns="http://www.w3.org/2000/svg" xmlns:xlink="http://www.w3.org/1999/xlink"><g transform="translate(-376.74 -277.75)"><use transform="translate(376.75 277.75)" width="47.4" height="44.5" xlink:href="#a"/><use transform="matrix(1.9778 -.53 .7319 2.7313 402.6 312.35)" width="2.8" height="1.7" xlink:href="#b"/><use transform="translate(391.2 305.6) scale(2.0476)" width="2.05" height="3.25" xlink:href="#c"/><use transform="matrix(1.9778 -.53 .7319 2.7313 392.95 312.35)" width="2.8" height="1.7" xlink:href="#b"/><use transform="translate(384.95 297.4)" width="31.35" height="16" xlink:href="#d"/><use transform="matrix(2.0374 .1973 -.1973 2.0374 404.61 284.89)" width="3.5" height="10.3" xlink:href="#e"/><use transform="matrix(-2.0374 .1973 .1973 2.0374 397.29 284.89)" width="3.5" height="10.3" xlink:href="#e"/><use transform="translate(395.75 290.95) scale(2.0476)" width="4.4" height="5.6" xlink:href="#f"/><use transform="matrix(1.9098 0 0 2.0476 401.86 304.95)" width="4.85" height="2.35" xlink:href="#g"/><use transform="translate(380.5 301.05) scale(2.0476)" width="6.25" height="4.15" xlink:href="#h"/><use transform="translate(398.45 312.1) scale(2.0476)" width="7.1" height="3.5" xlink:href="#i"/><use transform="translate(390.25 279.35) scale(2.0476)" width="1.75" height="10.85" xlink:href="#j"/><use transform="translate(401.75 298.25) scale(2.0476)" width="8.85" height="3.85" xlink:href="#k"/><use transform="matrix(-1.9098 0 0 2.0476 400.19 304.95)" width="4.85" height="2.35" xlink:href="#g"/></g><defs><use width="47.4" height="44.5" xlink:href="#l" id="a"/><use width="2.8" height="1.7" xlink:href="#m" id="b"/><use width="2.05" height="3.25" xlink:href="#n" id="c"/><use width="3.5" height="10.3" xlink:href="#o" id="e"/><use width="4.4" height="5.6" xlink:href="#p" id="f"/><use width="4.85" height="2.35" xlink:href="#q" id="g"/><use transform="scale(.8803 1.1857)" width="7.1" height="3.5" xlink:href="#r" id="h"/><use width="7.1" height="3.5" xlink:href="#r" id="i"/><use width="1.75" height="10.85" xlink:href="#s" id="j"/><use width="8.85" height="3.85" xlink:href="#t" id="k"/><g id="l"><path d="M1.05-21q-.05.25.05.55.2.5.7.75l.2.1.8.15.75-.5.1-.35-.1-.5-.65-.75-.35-.15-.65-.05q-.5.05-.75.45l-.1.3m3.1 3.6q-4-.75-7.75-.1l-.85-3.2q4.75-2.95 9.1 0l-.5 3.3m-7.25-1.85.35.25.3.05.3-.05.35-.25.25-.6q0-.4-.25-.65t-.65-.25l-.65.25-.25.65.25.6" fill="#a17225" fill-rule="evenodd" transform="translate(23.7 22.2)"/><path d="m1.05-21 .1-.3q.25-.4.75-.45l.65.05.35.15.65.75.1.5-.1.35-.75.5-.8-.15-.2-.1q-.5-.25-.7-.75-.1-.3-.05-.55m-4.15 1.75-.25-.6.25-.65.65-.25q.4 0 .65.25t.25.65l-.25.6-.35.25-.3.05-.3-.05-.35-.25" fill="#d19430" fill-rule="evenodd" transform="translate(23.7 22.2)"/><path d="m20.05-6.15-.6-.75h-.05l.4-1.45.9.15-.65 2.05" fill="#9de8e8" fill-rule="evenodd" transform="translate(23.7 22.2)"/><path d="m16.55-5.45-.75-.9.6-.55h2.35l-2.2 1.45m-4.5-.8Q11.3-4.8 8.6-4.65L6.1-5q-5-.55-8.6.9-5.15 3.15-10.85 2.75l-1.75-1.2 1.65-2.3.05-.1.05-.05q.95-1.05 3.1-1.8h20.9l1.4.55m-32 .05.75-.5h3.1l.2.05-3.9.95-.15-.5" fill="#e8e48d" fill-rule="evenodd" transform="translate(23.7 22.2)"/><path d="m13.6-5.4 1.1 1.35 1.05 1.65.75 1.5.1.15.7 2.45.1.8.15 2.05-.05 1.35Q13.8 10 8.4 9l-4-1.05-4.95-.7Q-6 6.95-8.3 9.55q-1.5 1.7-1.65 3.45-.3 2.75 2.7 5.6-2.5-1.1-4.65-3.05l-.7-.7q-3.65-3.65-4.2-8.5l-.15-1.8.15-1.95.3-1.7.4-1.25 1-2.2 1.75 1.2q5.7.4 10.85-2.75Q1.1-5.55 6.1-5l2.5.35q2.7-.15 3.45-1.6l1.55.85m3.45.65-.5-.7 2.2-1.45h.7l.6.75-.3.9-2.7.5m-32.95-1.9.7.25-.85 1.1-.5-.2-2.6 1.85-.65-2.05 3.9-.95" fill="#b5b26e" fill-rule="evenodd" transform="translate(23.7 22.2)"/><path d="m17.9-3.35-.35-.6-.5-.8 2.7-.5L18.7-1.7l-.8-1.65M-7.25 18.6q-3-2.85-2.7-5.6.15-1.75 1.65-3.45 2.3-2.6 7.75-2.3l4.95.7L8.4 9q5.4 1 9.1-3.1-.25 2.95-1.6 5.45-1.25 2.25-3.4 4.2-4.15 3.75-9.7 4.4l-2.5.15q-4.1 0-7.55-1.5m-8.8-23.9q-1.55 2.15-2.3 4.2l-.6-1.85-.2-.7 2.6-1.85.5.2" fill="#94915a" fill-rule="evenodd" transform="translate(23.7 22.2)"/><path d="m4.15-17.4 2.35.6q.75.75.95 1.6.15.75-.25 1.6l-.1.25-1.55-.75-5.5-1-4.75.5-1.9 1.6-.25-.35q-1.2-1.7.45-3.5l2.8-.65q3.75-.65 7.75.1m6.45 6.8-1.4-.7-1.4-.6 1.4.6 1.4.7q1.9 1.1 3.55 2.6l1.65 1.65.75.9.5.7.5.8.35.6-2.15.95-1.05-1.65-1.1-1.35-1.1-1.05q-1.45-1.35-3.1-2.3l-1.25-.6-1.25-.5-.15-.05-.4-.15L4-10.5v-.6h2.65l.65-.95.5.15 13.05-2.9q2.9-.6 2.75 2.7l-1.25 4.2-1.65-.3.7-2.45q.1-2.4-1.95-1.9L10.6-10.6M-13.35-5l-.05.05-.05.1-1.65 2.3-1 2.2-.4 1.25-.3 1.7-.15 1.95.15 1.8q.55 4.85 4.2 8.5l-1.65 1.45q-4.25-4.15-4.9-9.75l-.15-2.05.1-1.9.05-.3.35-1.95.45-1.45q.75-2.05 2.3-4.2l.85-1.1 1.65-1.6 2.25-1.8.05-.05.1-.05L-9-11.1l.35-.15 2.45-.95 1.5 1.1h1.1v.45l-2.3.65-1.65.65-2.35 1.3-2 1.6L-13.35-5m-7.55 2.1-2.7-8.45q-.15-3.3 2.7-2.7l9.9 2.25-1.2.7-5-.75-.45.65-1.6-.4q-1.95-.4-1.85 1.85l1.15 3.55.15.5.65 2.05.2.7-1.95.05" fill="#65cccc" fill-opacity=".502" fill-rule="evenodd" transform="translate(23.7 22.2)"/><path d="m-6.6-13 1.9-1.6 4.75-.5 5.5 1 1.55.75-.75 1 .7.2.25.1-.65.95H4v-2.45q-3.8-1.25-7.6 0v2.45h-1.1l-1.5-1.1.3-.1-.7-.7m27.3 4.8 1.65.3-2.75 9.15-.8-2.8-.1-.15.1.15.8 2.8.15.9.15 2.35q0 4.2-1.9 7.7-1.4 2.6-3.85 4.8Q8.45 22.2.3 22.2q-8.1 0-13.85-5.2l-.7-.7 1.65-1.45.7.7q2.15 1.95 4.65 3.05Q-3.8 20.1.3 20.1l2.5-.15q5.55-.65 9.7-4.4 2.15-1.95 3.4-4.2 1.35-2.5 1.6-5.45l.05-1.35-.15-2.05-.1-.8-.7-2.45-.1-.15-.75-1.5 2.15-.95.8 1.65 1.05-3.55.3-.9.65-2.05M-11-11.8l2.35.55-.35.15-2.15 1.2-.1.05-.05.05-6.35-1.4.45-.65 5 .75 1.2-.7m-7.35 10.7L-18.8.35l-.35 1.95-.1.1-1.65-5.3 1.95-.05.6 1.85" fill="#478f8f" fill-opacity=".502" fill-rule="evenodd" transform="translate(23.7 22.2)"/><path d="m10.6-10.6 8.85-1.95q2.05-.5 1.95 1.9l-.7 2.45-.9-.15-.4 1.45h-3l-.6.55L14.15-8q-1.65-1.5-3.55-2.6M4-11.1v.6l2.35.45.4.15.15.05 1.25.5 1.25.6q1.65.95 3.1 2.3l1.1 1.05-1.55-.85-1.4-.55h-20.9q-2.15.75-3.1 1.8l1.45-1.45 2-1.6 2.35-1.3L-5.9-10l2.3-.65v-.45H4m-15.3 1.3L-13.55-8l-1.65 1.6-.7-.25-.2-.05h-3.1l-.75.5-1.15-3.55q-.1-2.25 1.85-1.85l1.6.4 6.35 1.4" fill="#c2ffff" fill-opacity=".502" fill-rule="evenodd" transform="translate(23.7 22.2)"/><path d="M-3.6-11.1v-2.45q3.8-1.25 7.6 0v2.45h-7.6" fill="#a8dede" fill-opacity=".502" fill-rule="evenodd" transform="translate(23.7 22.2)"/><path d="M31.15 7q-.2-.85-.95-1.6l-2.35-.6q-4-.75-7.75-.1l-2.8.65q-1.65 1.8-.45 3.5l.25.35m13.7-.35.1-.25m.6 1.7 1.4.6 1.4.7 8.85-1.95q2.05-.5 1.95 1.9L44.4 14m1.65.3 1.25-4.2q.15-3.3-2.75-2.7L31.5 10.3l-.5-.15m-3.3.95v.6l2.35.45.4.15.15.05 1.25.5 1.25.6q1.65.95 3.1 2.3l1.1 1.05 1.1 1.35 1.05 1.65m2.15-.95-.35-.6-.5-.8-.5-.7-.75-.9-1.65-1.65q-1.65-1.5-3.55-2.6m-3.5-2.75-.75 1 .7.2.25.1m-20.7 7.1-.05.1-1.65 2.3-1 2.2-.4 1.25-.3 1.7-.15 1.95.15 1.8q.55 4.85 4.2 8.5l.7.7q2.15 1.95 4.65 3.05M41.2 28.1l.05-1.35-.15-2.05-.1-.8-.7-2.45-.1-.15-.75-1.5m4.3-3.75L44.4 14m-.65 2.05-.3.9-1.05 3.55.1.15.8 2.8 2.75-9.15m-4.45 4.55.8 1.65m-22.3-9.4V8.65q3.8-1.25 7.6 0v2.45m-7.6 0v.45l-2.3.65-1.65.65-2.35 1.3-2 1.6-1.45 1.45m-.9 21.3.7.7Q15.9 44.4 24 44.4q8.15 0 13.85-5.2 2.45-2.2 3.85-4.8 1.9-3.5 1.9-7.7l-.15-2.35-.15-.9m-2.1 4.65q-.25 2.95-1.6 5.45-1.25 2.25-3.4 4.2-4.15 3.75-9.7 4.4l-2.5.15q-4.1 0-7.55-1.5M2.8 19.3.1 10.85q-.15-3.3 2.7-2.7l9.9 2.25 2.35.55L17.5 10l.3-.1-.7-.7m-4.7 3.2.05-.05.1-.05 2.15-1.2.35-.15M8.5 15.8l1.65-1.6 2.25-1.8L6.05 11l-1.6-.4q-1.95-.4-1.85 1.85L3.75 16m4.75-.2-.85 1.1q-1.55 2.15-2.3 4.2l-.45 1.45-.35 1.95-.05.3-.1 1.9.15 2.05q.65 5.6 4.9 9.75m-4.1-17.4-.6-1.85m-1.95.05 1.65 5.3.1-.1m0-5.95.2.7m-.2-.7L3.9 16.5l-.15-.5m.75 8.8-.05-.2" fill="none" stroke="#6da6a6" stroke-linecap="round" stroke-linejoin="round" stroke-opacity=".502" stroke-width=".2"/><path d="m35.75 15.95-1.4-.55h-20.9q-2.15.75-3.1 1.8l-.05.05m32.8-1.95h.05l.6.75m-.65-.75h-.65m-2.95.55.6-.55h2.35m-6.7.65 1.55.85M3.75 16l.75-.5h3.1l.2.05.7.25" fill="none" stroke="#94915a" stroke-linecap="round" stroke-linejoin="round" stroke-width=".05"/><path d="m24.75 1.2.1-.3q.25-.4.75-.45l.65.05.35.15.65.75.1.5-.1.35-.75.5-.8-.15-.2-.1q-.5-.25-.7-.75-.1-.3-.05-.55M20.1 4.7l-.85-3.2q4.75-2.95 9.1 0l-.5 3.3M20.6 2.95l-.25-.6.25-.65.65-.25q.4 0 .65.25t.25.65l-.25.6-.35.25-.3.05-.3-.05-.35-.25" fill="none" stroke="#704f19" stroke-linecap="round" stroke-linejoin="round" stroke-width=".05"/><path d="m15.15-13.1 1.8-.05q.85.2 1 .8t-.45 1.2l-1.6.85-1.8.05q-.75-.25-.9-.85t.35-1.15q.6-.6 1.6-.85M19.55-13.9l.8.1.5.6-.1.85q-.2.35-.65.5l-.8-.1q-.4-.25-.5-.7-.1-.4.1-.75l.65-.5M-16.05-2.55q1.25-2.2 3.05-3.2 1.85-1.05 3.15-.3 1.3.8 1.3 2.85.05 2.1-1.2 4.3t-3.15 3.25q-1.75 1.05-3.05.25-1.3-.75-1.4-2.8.05-2.15 1.3-4.35M-21.85-13.6l.8.1q.4.2.5.6.1.45-.1.85-.2.35-.65.5l-.8-.1-.5-.7.1-.75.65-.5M-17.05-12.65l1.65.75q.6.5.5.9-.15.45-.9.55l-1.8-.15q-1-.25-1.6-.75-.6-.45-.45-.9l.85-.55 1.75.15M-8.55-9.8q.6-.6 1.45-.65.8 0 1.4.6t.6 1.4q-.05.85-.65 1.45-.55.55-1.4.6-.8 0-1.4-.6t-.6-1.4q.05-.85.6-1.4M-5.9-16.45l.55.05.3.45q.1.3-.05.55l-.45.35-.55-.1-.35-.45.1-.55.45-.3M-2.2-17.5l1.75.3q.75.3.75.75t-.75.8l-1.75.3-1.7-.3q-.75-.35-.75-.8t.75-.75l1.7-.3" fill="#fff" fill-rule="evenodd" transform="translate(23.7 22.2)"/><path d="M11.7-8.7 14-6.1l.1.3q2.65 10 .3 20.9l-3.3.95v-2.9l-.95 3.15q-9 2-17.8.35-1.6-.35-2.05-.75l-3.75-3.3-.05-.4Q-15.05 1-12.3-8.4l2.5-.55q7.75-1.65 14-.85L7.3-3l1.1-6.3 3.3.6v2.9h2.4-2.4v-2.9M-7.65 8.4v8.25V8.4m-2.05 7.5-.4-4.5-3.4.8 3.4-.8.4 4.5m-1.2-18.25 1.1-6.6-1.1 6.6m21.5 10.5.5 5-.5-5" fill="#edcb8e" fill-rule="evenodd" transform="translate(23.7 22.2)"/><path d="m35.4 13.5 2.3 2.6.1.3q2.65 10 .3 20.9l-3.3.95v-2.9l-.95 3.15q-9 2-17.8.35-1.6-.35-2.05-.75l-3.75-3.3-.05-.4q-1.55-11.2 1.2-20.6l2.5-.55q7.75-1.65 14-.85l3.1 6.8 1.1-6.3 3.3.6v2.9h2.4m-3 18.95-.5-5m-20.4-17.1-1.1 6.6M10.2 34.4l3.4-.8.4 4.5m2.05.75V30.6" fill="none" stroke="#7a5e32" stroke-linecap="round" stroke-linejoin="round" stroke-opacity=".502" stroke-width=".05"/><path d="M2-8.15q1.4.05 1.4 1.4 0 .55-.4 1-.45.5-1.15.5Q.5-5.25.3-6.4H.25q-1.15 0-1.55-.9l-.2-.9q0-1.75 1.75-1.8T2-8.15M9.4-2q0-1.05 1.05-1.05T11.5-2q-.05 1.1-1 1.1-.75 0-1-.5L9.4-2m5.95.6q-.45.5-1.1.5-1 0-1.4-.75l-.2-.85q0-1.5 1.55-1.5t1.55 1.6q0 .55-.4 1m-1.7 10.5-.65.25q-.85 0-1.1-.7l-.05-.45q0-1.1 1.15-1.1 1.1.05 1.1 1.15l-.45.85m-6.6-7.75Q7.5.75 8.5.75q1.75 0 1.75 1.65L9.9 3.5q-.45.65-1.15.75v.3q0 .65-.4 1.1-.45.6-1.35.6-1.2 0-1.65-.9l-.2-.85q0-.7.3-1.1l-.55-.1-.1.15q-.65.8-1.55.8-1.25 0-1.8-1l-.35-1q0-1.9 2.1-2 1 0 1.5.45l.9-.15q1.15 0 1.45.8m-4.2 4.1L2.5 6.6q-.5.75-1.5.75-1.1 0-1.55-.9L-.8 5.5q0-2.05 1.85-1.8 1.8.25 1.8 1.75m4.1 5.5q1.45 0 1.45 1.25-.1.8-.5 1.15l.25.8-.3.85q-.3.4-.85.4-1.4 0-1.25-1.15 0-.55.35-.85-.5-.35-.6-1.2 0-1.25 1.45-1.25m-1.75 3.9q-.5.55-1.35.55Q2 15.4 2 13.75q0-1.7 1.85-1.7 1.8 0 1.8 1.65l-.45 1.15m-15.9-19.7q-.15.35-.8.55l-.6-.5q-.2-.15-.2-.45l.35-.75q.55-.35 1.4.75l-.15.4m7.3-1.55q-.45.6-1.1.6-.85 0-1.15-.7l-.15-.7q0-1.45 1.4-1.3 1.35.2 1.35 1.25 0 .35-.35.85m-2 1.3q1.6 0 1.6 1.8 0 .75-.45 1.25-.5.5-1.25.5-1.15 0-1.45-.9l-.8.15q-1.1 0-1.55-.95l-.25-.95q0-1.95 1.9-1.95 1.4 0 1.75 1.1l.5-.05M-8.55-.75q0-1.1 1.15-1.1 1.1 0 1.1 1.2l-.05.35q1.3.05 1.3 1.6l-.4.95-.55.45q.25.4.25 1.1t-.4 1.2q-.5.65-1.35.65-1.15 0-1.5-.85l-.1-.5-.4.05q-.85 0-1.15-.65l-.15-.7q0-1.35 1.4-1.4.9 0 1.2.6l.15-.05-.25-.9q0-.6.35-.95l-.55-.6-.05-.45M-1.25-4q-.75 0-1.1-.7l-.15-.55q0-1.2 1.25-1.2T0-5.25l-.25.75q-.35.5-1 .5m-8.3 12.5q-.4.4-.95.4l-.8-.2-.45.9q-.55.75-1.5.75-1.1 0-1.55-.9l-.25-.95q0-2.2 1.9-2.05 1.15.1 1.6.85.2-.65 1.1-.7 1.2-.1 1.2 1.05 0 .5-.3.85m.3 2.7q0-1.65 1.75-1.65 1.3 0 1.65.9.25-.6 1.15-.45 1.3.25 1.3 1.25 0 .5-.35.85l-.05.05q.3.4.3 1.1v.05q1.7.1 1.7 1.75 0 .6-.5 1.1-.6.6-1.45.6-1.15 0-1.55-.9l-.2-.85.05-.3-.9-.85-.15-.65.15-.7q-.45.4-1.15.4-.95 0-1.45-.75l-.3-.95m3.4.8-.05-.05-.1.15.15-.1m3.1-1.55q0-1.45 1.3-1.2t1.3 1.25q0 .5-.35.85-.4.4-1 .4-.85 0-1.15-.65l-.1-.65" fill="#b89c6e" fill-opacity=".502" fill-rule="evenodd" transform="translate(23.7 22.2)"/></g><g id="m"><path d="M2.8.65.85 1.7Q.35 1 0 .05q1.55-.15 2.8.6" fill="#fff" fill-rule="evenodd"/><path d="M2.8.65.85 1.7Q.35 1 0 .05q1.55-.15 2.8.6z" fill="none" stroke="#695e46" stroke-linecap="round" stroke-linejoin="round" stroke-opacity=".502" stroke-width=".05"/></g><g id="n"><path d="M1.85 1.65q.65.8-.9 1.6Q.3 1.55 0 0q1.3.55 1.85 1.65" fill="#fff" fill-rule="evenodd"/><path d="M1.85 1.65Q1.3.55 0 0q.3 1.55.95 3.25 1.55-.8.9-1.6z" fill="none" stroke="#695e46" stroke-linecap="round" stroke-linejoin="round" stroke-opacity=".502" stroke-width=".05"/></g><g id="d"><path d="m400.55 297.45 1.65.1q1.75.35 3.4 1.05l.1.1q.9.4 1.6 1 1.95 2.6 3 6.7.6 2.35-.1 3.65-.6 1.05-1.95 1.45l-5.25 1.35-2.35.2-2.45-.2q-2.05-.35-4.9-1.65l-.7-.4-.45-.45q-1.5-1.5-1-4.4.7-3.75 2.75-6.25.75-.6 1.65-1l.1-.1q1.65-.7 3.4-1.05l1.5-.1m7.9 13 1.75-.4-1.75.4" fill="#fff9af" fill-rule="evenodd" transform="translate(-384.95 -297.4)"/><path d="m407.3 299.7.75.65q1 1.1 1.65 2.55l.3.5q2.25 3.6 6.25 0-1.35 3.8-4.1 5.65 1.5-.6 2.55-1.45-4.1 6.05-11.05 5.75l-3-.3-3.05.3q-6.95.3-11.05-5.75l2.55 1.45q-2.75-1.85-4.1-5.65 4 3.6 6.25 0l.3-.5q.6-1.45 1.65-2.55l.7-.65q-2.05 2.5-2.75 6.25-.5 2.9 1 4.4l.45.45.7.4q2.85 1.3 4.9 1.65l2.45.2 2.35-.2 5.25-1.35q1.35-.4 1.95-1.45l1.55-.7.3-.2.1-.1-.1.1-.3.2-1.55.7q.7-1.3.1-3.65-1.05-4.1-3-6.7m-18.2 9.35.1.1.3.2q1.25.6 2.65 1-1.4-.4-2.65-1l-.3-.2-.1-.1" fill="#deb858" fill-rule="evenodd" transform="translate(-384.95 -297.4)"/><path d="m15.6.05 1.65.1Q19 .5 20.65 1.2l.1.1q.9.4 1.6 1l.75.65q1 1.1 1.65 2.55l.3.5q2.25 3.6 6.25 0-1.35 3.8-4.1 5.65 1.5-.6 2.55-1.45-4.1 6.05-11.05 5.75l-3-.3-3.05.3q-6.95.3-11.05-5.75l2.55 1.45Q1.4 9.8.05 6q4 3.6 6.25 0l.3-.5q.6-1.45 1.65-2.55l.7-.65q.75-.6 1.65-1l.1-.1Q12.35.5 14.1.15l1.5-.1m-8.4 12.9.45.45m17.6-.75-1.75.4m-16.3-.1q-1.4-.4-2.65-1l-.3-.2-.1-.1m23.05 0-.1.1-.3.2-1.55.7" fill="none" stroke="#66523e" stroke-linecap="round" stroke-linejoin="round" stroke-opacity=".553" stroke-width=".15"/></g><g id="o"><path d="M2.35.45V.6L2.3.65V.7l-.95 5.25q.25.6.05 1.2l-.5.25-.2.05L0 7.3Q1.55 3.95 2.2.25L2.45 0l.05.15-.1.25-.05.05" fill="#fff9af" fill-rule="evenodd" transform="translate(.05 .05)"/><path d="M2.3.7V.65L2.35.6V.45L2.4.4l.1-.25q.85 4.25.9 8.65v.8l-.8-2-.65-.95-.15-.45-.05-.4L2.3.7m.05-.1L2.4.4l-.05.2" fill="#ffede7" fill-rule="evenodd" transform="translate(.05 .05)"/><path d="m.9 7.4.5-.25q.2-.6-.05-1.2L2.3.7l-.55 5.1.05.4.15.45.65.95.8 2v.6l-.7-1.45-.8-.8-1-.55" fill="#e0bebe" fill-rule="evenodd" transform="translate(.05 .05)"/><path d="M2.55.2 2.5.05 2.25.3Q1.6 4 .05 7.35" fill="none" stroke="#66523e" stroke-linecap="round" stroke-linejoin="round" stroke-opacity=".553" stroke-width=".15"/><path d="M2.35.75V.7L2.4.65V.5m-1.65 7 .2-.05m1.5-7-.05.2" fill="none" stroke="#65513d" stroke-linecap="round" stroke-linejoin="round" stroke-opacity=".651" stroke-width=".15"/><path d="m.95 7.45.5-.25q.2-.6-.05-1.2L2.35.75" fill="none" stroke="#6e2828" stroke-linecap="round" stroke-linejoin="round" stroke-opacity=".392" stroke-width=".15"/><path d="M3.45 9.65v-.8Q3.4 4.45 2.55.2m.9 10.05v-.6" fill="none" stroke="#6e2727" stroke-linecap="round" stroke-linejoin="round" stroke-opacity=".471" stroke-width=".15"/></g><g id="p"><path d="M3.25.45Q3.65.15 4.3 0 2.85 1.55 4 3.3q-.7 1.2-1.85 1.85H2.1l-.85-.7Q.7 3.95.2 3.8l1.75.1v-.15l.45.9h.05v-.4q-.15-.1-.15-1.05 0-1.7.95-2.75" fill="#fff9af" fill-rule="evenodd" transform="translate(.05 .05)"/><path d="M3.25.45Q2.3 1.5 2.3 3.2q0 .95.15 1.05v.4H2.4l-.45-.9Q1.6 1.4 3.25.45M.2 3.8q.5.15 1.05.65l.85.7-.9.35L0 3.9q.05-.1.2-.1" fill="#deb858" fill-rule="evenodd" transform="translate(.05 .05)"/><path d="M4.05 3.35Q2.9 1.6 4.35.05 3.7.2 3.3.5 1.65 1.45 2 3.8v.15l-1.75-.1m-.2.1 1.2 1.6" fill="none" stroke="#66523e" stroke-linecap="round" stroke-linejoin="round" stroke-opacity=".553" stroke-width=".15"/></g><g id="q"><path d="M1.3 1.1Q2.55.35 4.65 0 3.2 1.85 1.15 2.1l.15-1-.15 1L0 2.15 1.3 1.1" fill="#a8f1fa" fill-rule="evenodd" transform="translate(.1 .1)"/><path d="M1.25 2.2Q3.3 1.95 4.75.1 2.65.45 1.4 1.2l-.15 1-1.15.05L1.4 1.2" fill="none" stroke="#000" stroke-linecap="round" stroke-linejoin="round" stroke-opacity=".4" stroke-width=".25"/><path d="m3.35 1.2-.4.3-.45-.05-.3-.3.1-.35q.15-.2.4-.25h.45L3.4.8l-.05.4" fill="#fff" fill-rule="evenodd" transform="translate(.1 .1)"/></g><path d="M0 0q3.85.65 7.1 3.5" fill="none" stroke="#000" stroke-linecap="round" stroke-linejoin="round" stroke-opacity=".161" stroke-width=".05" id="r"/><path d="M1.75 10.85Q1.95 5.25 0 0" fill="none" stroke="#000" stroke-linecap="round" stroke-linejoin="round" stroke-opacity=".161" stroke-width=".05" id="s"/><path d="M0 3.85Q3.5.5 8.85 0" fill="none" stroke="#000" stroke-linecap="round" stroke-linejoin="round" stroke-opacity=".161" stroke-width=".05" id="t"/></defs></svg>