<svg viewBox="0 0 47.415 44.499" xmlns="http://www.w3.org/2000/svg" xmlns:xlink="http://www.w3.org/1999/xlink"><g transform="translate(-376.74 -277.75)"><use transform="translate(376.75 277.75)" width="47.4" height="44.5" xlink:href="#a"/><use transform="translate(384.2 289.6)" width="32.05" height="25.75" xlink:href="#b"/></g><defs><radialGradient id="e" cx="0" cy="0" r="819.2" gradientTransform="matrix(-.0105 -.0001 -.0015 .0101 24.1 14.35)" gradientUnits="userSpaceOnUse"><stop stop-color="#fbf6d2" offset="0"/><stop stop-color="#dbb479" offset="1"/></radialGradient><radialGradient id="f" cx="0" cy="0" r="819.2" gradientTransform="matrix(.0105 -.0001 .0015 .0101 7.95 14.35)" gradientUnits="userSpaceOnUse"><stop stop-color="#fbf6d2" offset="0"/><stop stop-color="#dbb479" offset="1"/></radialGradient><use width="47.4" height="44.5" xlink:href="#c" id="a"/><use width="32.05" height="25.75" xlink:href="#d" id="b"/><g id="c"><path d="M1.05-21q-.05.25.05.55.2.5.7.75l.2.1.8.15.75-.5.1-.35-.1-.5-.65-.75-.35-.15-.65-.05q-.5.05-.75.45l-.1.3m3.1 3.6q-4-.75-7.75-.1l-.85-3.2q4.75-2.95 9.1 0l-.5 3.3m-7.25-1.85.35.25.3.05.3-.05.35-.25.25-.6q0-.4-.25-.65t-.65-.25l-.65.25-.25.65.25.6" fill="#a17225" fill-rule="evenodd" transform="translate(23.7 22.2)"/><path d="m1.05-21 .1-.3q.25-.4.75-.45l.65.05.35.15.65.75.1.5-.1.35-.75.5-.8-.15-.2-.1q-.5-.25-.7-.75-.1-.3-.05-.55m-4.15 1.75-.25-.6.25-.65.65-.25q.4 0 .65.25t.25.65l-.25.6-.35.25-.3.05-.3-.05-.35-.25" fill="#d19430" fill-rule="evenodd" transform="translate(23.7 22.2)"/><path d="m20.05-6.15-.6-.75h-.05l.4-1.45.9.15-.65 2.05" fill="#9de8e8" fill-rule="evenodd" transform="translate(23.7 22.2)"/><path d="m16.55-5.45-.75-.9.6-.55h2.35l-2.2 1.45m-4.5-.8Q11.3-4.8 8.6-4.65L6.1-5q-5-.55-8.6.9-5.15 3.15-10.85 2.75l-1.75-1.2 1.65-2.3.05-.1.05-.05q.95-1.05 3.1-1.8h20.9l1.4.55m-32 .05.75-.5h3.1l.2.05-3.9.95-.15-.5" fill="#e8e48d" fill-rule="evenodd" transform="translate(23.7 22.2)"/><path d="m13.6-5.4 1.1 1.35 1.05 1.65.75 1.5.1.15.7 2.45.1.8.15 2.05-.05 1.35Q13.8 10 8.4 9l-4-1.05-4.95-.7Q-6 6.95-8.3 9.55q-1.5 1.7-1.65 3.45-.3 2.75 2.7 5.6-2.5-1.1-4.65-3.05l-.7-.7q-3.65-3.65-4.2-8.5l-.15-1.8.15-1.95.3-1.7.4-1.25 1-2.2 1.75 1.2q5.7.4 10.85-2.75Q1.1-5.55 6.1-5l2.5.35q2.7-.15 3.45-1.6l1.55.85m3.45.65-.5-.7 2.2-1.45h.7l.6.75-.3.9-2.7.5m-32.95-1.9.7.25-.85 1.1-.5-.2-2.6 1.85-.65-2.05 3.9-.95" fill="#b5b26e" fill-rule="evenodd" transform="translate(23.7 22.2)"/><path d="m17.9-3.35-.35-.6-.5-.8 2.7-.5L18.7-1.7l-.8-1.65M-7.25 18.6q-3-2.85-2.7-5.6.15-1.75 1.65-3.45 2.3-2.6 7.75-2.3l4.95.7L8.4 9q5.4 1 9.1-3.1-.25 2.95-1.6 5.45-1.25 2.25-3.4 4.2-4.15 3.75-9.7 4.4l-2.5.15q-4.1 0-7.55-1.5m-8.8-23.9q-1.55 2.15-2.3 4.2l-.6-1.85-.2-.7 2.6-1.85.5.2" fill="#94915a" fill-rule="evenodd" transform="translate(23.7 22.2)"/><path d="m4.15-17.4 2.35.6q.75.75.95 1.6.15.75-.25 1.6l-.1.25-1.55-.75-5.5-1-4.75.5-1.9 1.6-.25-.35q-1.2-1.7.45-3.5l2.8-.65q3.75-.65 7.75.1m6.45 6.8-1.4-.7-1.4-.6 1.4.6 1.4.7q1.9 1.1 3.55 2.6l1.65 1.65.75.9.5.7.5.8.35.6-2.15.95-1.05-1.65-1.1-1.35-1.1-1.05q-1.45-1.35-3.1-2.3l-1.25-.6-1.25-.5-.15-.05-.4-.15L4-10.5v-.6h2.65l.65-.95.5.15 13.05-2.9q2.9-.6 2.75 2.7l-1.25 4.2-1.65-.3.7-2.45q.1-2.4-1.95-1.9L10.6-10.6M-13.35-5l-.05.05-.05.1-1.65 2.3-1 2.2-.4 1.25-.3 1.7-.15 1.95.15 1.8q.55 4.85 4.2 8.5l-1.65 1.45q-4.25-4.15-4.9-9.75l-.15-2.05.1-1.9.05-.3.35-1.95.45-1.45q.75-2.05 2.3-4.2l.85-1.1 1.65-1.6 2.25-1.8.05-.05.1-.05L-9-11.1l.35-.15 2.45-.95 1.5 1.1h1.1v.45l-2.3.65-1.65.65-2.35 1.3-2 1.6L-13.35-5m-7.55 2.1-2.7-8.45q-.15-3.3 2.7-2.7l9.9 2.25-1.2.7-5-.75-.45.65-1.6-.4q-1.95-.4-1.85 1.85l1.15 3.55.15.5.65 2.05.2.7-1.95.05" fill="#65cccc" fill-opacity=".502" fill-rule="evenodd" transform="translate(23.7 22.2)"/><path d="m-6.6-13 1.9-1.6 4.75-.5 5.5 1 1.55.75-.75 1 .7.2.25.1-.65.95H4v-2.45q-3.8-1.25-7.6 0v2.45h-1.1l-1.5-1.1.3-.1-.7-.7m27.3 4.8 1.65.3-2.75 9.15-.8-2.8-.1-.15.1.15.8 2.8.15.9.15 2.35q0 4.2-1.9 7.7-1.4 2.6-3.85 4.8Q8.45 22.2.3 22.2q-8.1 0-13.85-5.2l-.7-.7 1.65-1.45.7.7q2.15 1.95 4.65 3.05Q-3.8 20.1.3 20.1l2.5-.15q5.55-.65 9.7-4.4 2.15-1.95 3.4-4.2 1.35-2.5 1.6-5.45l.05-1.35-.15-2.05-.1-.8-.7-2.45-.1-.15-.75-1.5 2.15-.95.8 1.65 1.05-3.55.3-.9.65-2.05M-11-11.8l2.35.55-.35.15-2.15 1.2-.1.05-.05.05-6.35-1.4.45-.65 5 .75 1.2-.7m-7.35 10.7L-18.8.35l-.35 1.95-.1.1-1.65-5.3 1.95-.05.6 1.85" fill="#478f8f" fill-opacity=".502" fill-rule="evenodd" transform="translate(23.7 22.2)"/><path d="m10.6-10.6 8.85-1.95q2.05-.5 1.95 1.9l-.7 2.45-.9-.15-.4 1.45h-3l-.6.55L14.15-8q-1.65-1.5-3.55-2.6M4-11.1v.6l2.35.45.4.15.15.05 1.25.5 1.25.6q1.65.95 3.1 2.3l1.1 1.05-1.55-.85-1.4-.55h-20.9q-2.15.75-3.1 1.8l1.45-1.45 2-1.6 2.35-1.3L-5.9-10l2.3-.65v-.45H4m-15.3 1.3L-13.55-8l-1.65 1.6-.7-.25-.2-.05h-3.1l-.75.5-1.15-3.55q-.1-2.25 1.85-1.85l1.6.4 6.35 1.4" fill="#c2ffff" fill-opacity=".502" fill-rule="evenodd" transform="translate(23.7 22.2)"/><path d="M-3.6-11.1v-2.45q3.8-1.25 7.6 0v2.45h-7.6" fill="#a8dede" fill-opacity=".502" fill-rule="evenodd" transform="translate(23.7 22.2)"/><path d="M31.15 7q-.2-.85-.95-1.6l-2.35-.6q-4-.75-7.75-.1l-2.8.65q-1.65 1.8-.45 3.5l.25.35m13.7-.35.1-.25m.6 1.7 1.4.6 1.4.7 8.85-1.95q2.05-.5 1.95 1.9L44.4 14m1.65.3 1.25-4.2q.15-3.3-2.75-2.7L31.5 10.3l-.5-.15m-3.3.95v.6l2.35.45.4.15.15.05 1.25.5 1.25.6q1.65.95 3.1 2.3l1.1 1.05 1.1 1.35 1.05 1.65m2.15-.95-.35-.6-.5-.8-.5-.7-.75-.9-1.65-1.65q-1.65-1.5-3.55-2.6m-3.5-2.75-.75 1 .7.2.25.1m-20.7 7.1-.05.1-1.65 2.3-1 2.2-.4 1.25-.3 1.7-.15 1.95.15 1.8q.55 4.85 4.2 8.5l.7.7q2.15 1.95 4.65 3.05M41.2 28.1l.05-1.35-.15-2.05-.1-.8-.7-2.45-.1-.15-.75-1.5m4.3-3.75L44.4 14m-.65 2.05-.3.9-1.05 3.55.1.15.8 2.8 2.75-9.15m-4.45 4.55.8 1.65m-22.3-9.4V8.65q3.8-1.25 7.6 0v2.45m-7.6 0v.45l-2.3.65-1.65.65-2.35 1.3-2 1.6-1.45 1.45m-.9 21.3.7.7Q15.9 44.4 24 44.4q8.15 0 13.85-5.2 2.45-2.2 3.85-4.8 1.9-3.5 1.9-7.7l-.15-2.35-.15-.9m-2.1 4.65q-.25 2.95-1.6 5.45-1.25 2.25-3.4 4.2-4.15 3.75-9.7 4.4l-2.5.15q-4.1 0-7.55-1.5M2.8 19.3.1 10.85q-.15-3.3 2.7-2.7l9.9 2.25 2.35.55L17.5 10l.3-.1-.7-.7m-4.7 3.2.05-.05.1-.05 2.15-1.2.35-.15M8.5 15.8l1.65-1.6 2.25-1.8L6.05 11l-1.6-.4q-1.95-.4-1.85 1.85L3.75 16m4.75-.2-.85 1.1q-1.55 2.15-2.3 4.2l-.45 1.45-.35 1.95-.05.3-.1 1.9.15 2.05q.65 5.6 4.9 9.75m-4.1-17.4-.6-1.85m-1.95.05 1.65 5.3.1-.1m0-5.95.2.7m-.2-.7L3.9 16.5l-.15-.5m.75 8.8-.05-.2" fill="none" stroke="#6da6a6" stroke-linecap="round" stroke-linejoin="round" stroke-opacity=".502" stroke-width=".2"/><path d="m35.75 15.95-1.4-.55h-20.9q-2.15.75-3.1 1.8l-.05.05m32.8-1.95h.05l.6.75m-.65-.75h-.65m-2.95.55.6-.55h2.35m-6.7.65 1.55.85M3.75 16l.75-.5h3.1l.2.05.7.25" fill="none" stroke="#94915a" stroke-linecap="round" stroke-linejoin="round" stroke-width=".05"/><path d="m24.75 1.2.1-.3q.25-.4.75-.45l.65.05.35.15.65.75.1.5-.1.35-.75.5-.8-.15-.2-.1q-.5-.25-.7-.75-.1-.3-.05-.55M20.1 4.7l-.85-3.2q4.75-2.95 9.1 0l-.5 3.3M20.6 2.95l-.25-.6.25-.65.65-.25q.4 0 .65.25t.25.65l-.25.6-.35.25-.3.05-.3-.05-.35-.25" fill="none" stroke="#704f19" stroke-linecap="round" stroke-linejoin="round" stroke-width=".05"/><path d="m15.15-13.1 1.8-.05q.85.2 1 .8t-.45 1.2l-1.6.85-1.8.05q-.75-.25-.9-.85t.35-1.15q.6-.6 1.6-.85M19.55-13.9l.8.1.5.6-.1.85q-.2.35-.65.5l-.8-.1q-.4-.25-.5-.7-.1-.4.1-.75l.65-.5M-16.05-2.55q1.25-2.2 3.05-3.2 1.85-1.05 3.15-.3 1.3.8 1.3 2.85.05 2.1-1.2 4.3t-3.15 3.25q-1.75 1.05-3.05.25-1.3-.75-1.4-2.8.05-2.15 1.3-4.35M-21.85-13.6l.8.1q.4.2.5.6.1.45-.1.85-.2.35-.65.5l-.8-.1-.5-.7.1-.75.65-.5M-17.05-12.65l1.65.75q.6.5.5.9-.15.45-.9.55l-1.8-.15q-1-.25-1.6-.75-.6-.45-.45-.9l.85-.55 1.75.15M-8.55-9.8q.6-.6 1.45-.65.8 0 1.4.6t.6 1.4q-.05.85-.65 1.45-.55.55-1.4.6-.8 0-1.4-.6t-.6-1.4q.05-.85.6-1.4M-5.9-16.45l.55.05.3.45q.1.3-.05.55l-.45.35-.55-.1-.35-.45.1-.55.45-.3M-2.2-17.5l1.75.3q.75.3.75.75t-.75.8l-1.75.3-1.7-.3q-.75-.35-.75-.8t.75-.75l1.7-.3" fill="#fff" fill-rule="evenodd" transform="translate(23.7 22.2)"/><path d="M11.7-8.7 14-6.1l.1.3q2.65 10 .3 20.9l-3.3.95v-2.9l-.95 3.15q-9 2-17.8.35-1.6-.35-2.05-.75l-3.75-3.3-.05-.4Q-15.05 1-12.3-8.4l2.5-.55q7.75-1.65 14-.85L7.3-3l1.1-6.3 3.3.6v2.9h2.4-2.4v-2.9M-7.65 8.4v8.25V8.4m-2.05 7.5-.4-4.5-3.4.8 3.4-.8.4 4.5m-1.2-18.25 1.1-6.6-1.1 6.6m21.5 10.5.5 5-.5-5" fill="#edcb8e" fill-rule="evenodd" transform="translate(23.7 22.2)"/><path d="m35.4 13.5 2.3 2.6.1.3q2.65 10 .3 20.9l-3.3.95v-2.9l-.95 3.15q-9 2-17.8.35-1.6-.35-2.05-.75l-3.75-3.3-.05-.4q-1.55-11.2 1.2-20.6l2.5-.55q7.75-1.65 14-.85l3.1 6.8 1.1-6.3 3.3.6v2.9h2.4m-3 18.95-.5-5m-20.4-17.1-1.1 6.6M10.2 34.4l3.4-.8.4 4.5m2.05.75V30.6" fill="none" stroke="#7a5e32" stroke-linecap="round" stroke-linejoin="round" stroke-opacity=".502" stroke-width=".05"/><path d="M2-8.15q1.4.05 1.4 1.4 0 .55-.4 1-.45.5-1.15.5Q.5-5.25.3-6.4H.25q-1.15 0-1.55-.9l-.2-.9q0-1.75 1.75-1.8T2-8.15M9.4-2q0-1.05 1.05-1.05T11.5-2q-.05 1.1-1 1.1-.75 0-1-.5L9.4-2m5.95.6q-.45.5-1.1.5-1 0-1.4-.75l-.2-.85q0-1.5 1.55-1.5t1.55 1.6q0 .55-.4 1m-1.7 10.5-.65.25q-.85 0-1.1-.7l-.05-.45q0-1.1 1.15-1.1 1.1.05 1.1 1.15l-.45.85m-6.6-7.75Q7.5.75 8.5.75q1.75 0 1.75 1.65L9.9 3.5q-.45.65-1.15.75v.3q0 .65-.4 1.1-.45.6-1.35.6-1.2 0-1.65-.9l-.2-.85q0-.7.3-1.1l-.55-.1-.1.15q-.65.8-1.55.8-1.25 0-1.8-1l-.35-1q0-1.9 2.1-2 1 0 1.5.45l.9-.15q1.15 0 1.45.8m-4.2 4.1L2.5 6.6q-.5.75-1.5.75-1.1 0-1.55-.9L-.8 5.5q0-2.05 1.85-1.8 1.8.25 1.8 1.75m4.1 5.5q1.45 0 1.45 1.25-.1.8-.5 1.15l.25.8-.3.85q-.3.4-.85.4-1.4 0-1.25-1.15 0-.55.35-.85-.5-.35-.6-1.2 0-1.25 1.45-1.25m-1.75 3.9q-.5.55-1.35.55Q2 15.4 2 13.75q0-1.7 1.85-1.7 1.8 0 1.8 1.65l-.45 1.15m-15.9-19.7q-.15.35-.8.55l-.6-.5q-.2-.15-.2-.45l.35-.75q.55-.35 1.4.75l-.15.4m7.3-1.55q-.45.6-1.1.6-.85 0-1.15-.7l-.15-.7q0-1.45 1.4-1.3 1.35.2 1.35 1.25 0 .35-.35.85m-2 1.3q1.6 0 1.6 1.8 0 .75-.45 1.25-.5.5-1.25.5-1.15 0-1.45-.9l-.8.15q-1.1 0-1.55-.95l-.25-.95q0-1.95 1.9-1.95 1.4 0 1.75 1.1l.5-.05M-8.55-.75q0-1.1 1.15-1.1 1.1 0 1.1 1.2l-.05.35q1.3.05 1.3 1.6l-.4.95-.55.45q.25.4.25 1.1t-.4 1.2q-.5.65-1.35.65-1.15 0-1.5-.85l-.1-.5-.4.05q-.85 0-1.15-.65l-.15-.7q0-1.35 1.4-1.4.9 0 1.2.6l.15-.05-.25-.9q0-.6.35-.95l-.55-.6-.05-.45M-1.25-4q-.75 0-1.1-.7l-.15-.55q0-1.2 1.25-1.2T0-5.25l-.25.75q-.35.5-1 .5m-8.3 12.5q-.4.4-.95.4l-.8-.2-.45.9q-.55.75-1.5.75-1.1 0-1.55-.9l-.25-.95q0-2.2 1.9-2.05 1.15.1 1.6.85.2-.65 1.1-.7 1.2-.1 1.2 1.05 0 .5-.3.85m.3 2.7q0-1.65 1.75-1.65 1.3 0 1.65.9.25-.6 1.15-.45 1.3.25 1.3 1.25 0 .5-.35.85l-.05.05q.3.4.3 1.1v.05q1.7.1 1.7 1.75 0 .6-.5 1.1-.6.6-1.45.6-1.15 0-1.55-.9l-.2-.85.05-.3-.9-.85-.15-.65.15-.7q-.45.4-1.15.4-.95 0-1.45-.75l-.3-.95m3.4.8-.05-.05-.1.15.15-.1m3.1-1.55q0-1.45 1.3-1.2t1.3 1.25q0 .5-.35.85-.4.4-1 .4-.85 0-1.15-.65l-.1-.65" fill="#b89c6e" fill-opacity=".502" fill-rule="evenodd" transform="translate(23.7 22.2)"/></g><g id="d"><path d="m21.25 9.5 2.6 5.25q5.1.85 6.65-2.05.95-2.8-1.1-5.15-2.9-2.35-5.1-.45l-3.05 2.4" fill="url(#e)" fill-rule="evenodd"/><path d="m30.55 5.2-.05-.1q1.2-.05 1.2-.45 0-.35-.9-.8l.4-.9q.05-.25-.2-.15-.3 0-1.3.55l-.05.05q-4.8.8-8.9 3.05l-.6.25-.25.2.7.65v.8l.65 1.15 3.05-2.4q2.2-1.9 5.1.45 2.05 2.35 1.1 5.15-1.55 2.9-6.65 2.05l.2.6 1.75.5q1.95.15 4.1-1.5 1.7-1.1 2.1-3.4l.05-.95q.05-2.65-1.5-4.8" fill="#ba1b1b" fill-rule="evenodd"/><path d="M30.5 5.1q1.2-.05 1.2-.45 0-.35-.9-.8l.4-.9q.05-.25-.2-.15-.3 0-1.3.55l-.05.05q-4.8.8-8.9 3.05m3.3 8.9 1.75.5q1.95.15 4.1-1.5 1.7-1.1 2.1-3.4l.05-.95q.05-2.65-1.5-4.8" fill="none" stroke="#000" stroke-linecap="round" stroke-linejoin="round" stroke-opacity=".4" stroke-width=".05"/><path d="m21.25 9.5 3.05-2.4q2.2-1.9 5.1.45 2.05 2.35 1.1 5.15" fill="none" stroke="#000" stroke-linecap="round" stroke-linejoin="round" stroke-opacity=".302" stroke-width=".05"/><path d="m16.35 23.9-1.9 1.7q-.3-1.1-.1-1.9l2 .2m8.6-2.05-1 2.7q-.75-1.05-.8-2 1-.2 1.8-.7m-5.6 3.75q-.65-.9-.45-1.65l2.1-.55-1.65 2.2M9.5 25q-.3-1.05.15-1.65l2.2.15q-1 .95-2.35 1.5" fill="#faf9e3" fill-rule="evenodd"/><path d="M14.45 25.6h-.05l-.5-.55q-.6-.85-.85-2.2l3.75.45-.45.6-2-.2q-.2.8.1 1.9m9.5-1.05h-.05l-.65-.4q-.75-.7-1.35-1.8l3.15-1.3-.1.8q-.8.5-1.8.7.05.95.8 2M21 23.4l-2.1.55q-.2.75.45 1.65l-.15.15-.55-.4q-.65-.8-.95-2l3.65-.8-.35.85M9.5 25l-.15.05-.35-.5q-.35-.95-.2-2.2l3.65.45-.6.7-2.2-.15q-.45.6-.15 1.65" fill="#ded6ba" fill-rule="evenodd"/><path d="M14.45 25.6h-.05l-.5-.55q-.6-.85-.85-2.2l3.75.45-.45.6-1.9 1.7m9.5-1.05h-.05l-.65-.4q-.75-.7-1.35-1.8l3.15-1.3-.1.8-1 2.7M21 23.4l.35-.85-3.65.8q.3 1.2.95 2l.55.4.15-.15L21 23.4m-9.15.1.6-.7-3.65-.45q-.15 1.25.2 2.2l.35.5.15-.05m2.35-1.5q-1 .95-2.35 1.5" fill="none" stroke="#000" stroke-linecap="round" stroke-linejoin="round" stroke-opacity=".302" stroke-width=".05"/><path d="M13.6 7.2q-.4-.45-.35-1.45l.7-1.75.05-.1v-.05l-.15-.4-.45-1.05-.25-.55.6.15 1.05.3.8.35 1.05.7.8.6.6.9.05.35v.5l-.45.65-.8.8-.75.6-.65.25q-.65.05-.75-.2-.35-.05-.75-.3l-.35-.3m2.8-1.45-.2.3q0-.75-.2-.95l-1.3-.9-.35 1.05q-.55.75-.45 1.2.15.4.95.25l.4.1.35-1.05q.25.65.05 1.2l.3.2 1.4-1.05-.4-1.15-.55.8m1.1-1.1.05.1-.05-.15v.05m0 1-.55-.7.55.7M15.25 6.8l-.25.4-.3.6.3-.6.25-.4m-1.1-2.15L14 3.9l.15.75" fill="#c9c09a" fill-rule="evenodd"/><path d="m15.25 6.8-.4-.1q-.8.15-.95-.25-.1-.45.45-1.2l.35-1.05 1.3.9q.2.2.2.95l.2-.3.55-.8.4 1.15-1.4 1.05-.3-.2q.2-.55-.05-1.2l-.35 1.05m2.25-2.15V4.6l.05.15-.05-.1" fill="#fef9e2" fill-rule="evenodd"/><path d="M13.6 7.2q-.4-.45-.35-1.45l.7-1.75.05-.1v-.05l-.15-.4-.45-1.05-.25-.55.6.15 1.05.3.8.35 1.05.7.8.6.6.9.05.35v.5l-.45.65-.8.8-.75.6-.65.25q-.65.05-.75-.2-.35-.05-.75-.3l-.35-.3m1.65-.4.35-1.05m1.35-.8-.55.8M14 3.9l.15.75m.55 3.15.3-.6.25-.4m1.7-1.85.55.7" fill="none" stroke="#000" stroke-linecap="round" stroke-linejoin="round" stroke-opacity=".349" stroke-width=".05"/><path d="m20.3 7.15.15.05-.05.05-.1-.1" fill="#e0bdaf" fill-rule="evenodd"/><path d="m25.2 12.15.3.75v.05h-.05l-.25-.8" fill="#ce994a" fill-rule="evenodd"/><path d="m20.3 7.15.1.1.05-.05 1.1.55q1.6 1.5.95 3.05-4.9 2.5-9.2-.15-1.55-1.2-1.2-3.65l4.8-.8 2.3.5 1.1.45" fill="#de461b" fill-rule="evenodd"/><path d="m21.55 7.75 1.8 1.35 1.8 2.8.05.25.25.8q0 1.25-.6 2.75-.65 1.4-2.25 2.65-2.3 1.2-5.55 1.4Q8.7 21.55 9.4 10q1.1-1.6 2.65-3h.05q-.35 2.45 1.2 3.65 4.3 2.65 9.2.15.65-1.55-.95-3.05" fill="#ba1b1b" fill-rule="evenodd"/><path d="m25.5 12.95.4 1.6.55 3.4q.6 4.4-3.05 4.95l-5.8.65-7.2-.2q-5-.3-3.5-7.1.4-3.4 2.5-6.25-.7 11.55 7.65 9.75 3.25-.2 5.55-1.4 1.6-1.25 2.25-2.65.6-1.5.6-2.75h.05" fill="#8f1a17" fill-rule="evenodd"/><path d="m20.45 7.2-.15-.05m.15.05 1.1.55 1.8 1.35 1.8 2.8.05.25.3.75v.05l.4 1.6.55 3.4q.6 4.4-3.05 4.95l-5.8.65-7.2-.2q-5-.3-3.5-7.1.4-3.4 2.5-6.25 1.1-1.6 2.65-3h.05l4.8-.8 2.3.5" fill="none" stroke="#000" stroke-linecap="round" stroke-linejoin="round" stroke-opacity=".4" stroke-width=".05"/><path d="m15.3 11.05-1.1.1-1.1-.3q-.5-.3-.5-.7t.3-.65l1-.3q.5 0 1.05.3t.65.85q.15.55-.3.7" fill="#5e0d0d" fill-rule="evenodd"/><path d="m8.4 18.7-.4.2-.25.35q.25-.5.65-.55" fill="#c9c09a" fill-rule="evenodd"/><path d="m8.9 18.55.5 1 .25.75v.4l-.1.55-.55.95-.45.7q-.35.45-1.45.5l-2.75-.3q1.05-.5 2-1.45l-.95.2q-1.8-.2-3.05-3.5 2.05 2.15 3.95 2.2l1.45-1.3.25-.35.4-.2.5-.15" fill="#8f1a17" fill-rule="evenodd"/><path d="m8.9 18.55-.5.15q-.4.05-.65.55l-1.45 1.3q-1.9-.05-3.95-2.2l-.5-1.75q2.65 1.9 3.55 1.2l1.65-.4 1.3.45.35.4.1.2.1.1" fill="#de461b" fill-rule="evenodd"/><path d="m5.4 21.85.95-.2q-.95.95-2 1.45l-.8-.2 1.85-1.05" fill="#ba1b1b" fill-rule="evenodd"/><path d="m8.9 18.55-.5.15m-6.05-.35q1.25 3.3 3.05 3.5L3.55 22.9l.8.2 2.75.3q1.1-.05 1.45-.5l.45-.7m-.65-4.35-1.3-.45-1.65.4q-.9.7-3.55-1.2l.5 1.75m5.4.9q.25-.5.65-.55" fill="none" stroke="#000" stroke-linecap="round" stroke-linejoin="round" stroke-opacity=".349" stroke-width=".05"/><path d="M10.8 9.5q-1.85 3.3-2.6 5.25-5.1.85-6.65-2.05-.95-2.8 1.1-5.15 2.9-2.35 5.1-.45 2 1.9 3.05 2.4" fill="url(#f)" fill-rule="evenodd"/><path d="M1.55 5.1q-1.2-.05-1.2-.45 0-.35.9-.8l-.4-.9q-.05-.25.2-.15.3 0 1.3.55l.05.05q4.8.8 8.9 3.05l.6.25.25.2-.7.65v.8L10.8 9.5Q9.75 9 7.75 7.1q-2.2-1.9-5.1.45Q.6 9.9 1.55 12.7q1.55 2.9 6.65 2.05l-.2.6-1.75.5q-1.95.15-4.1-1.5-1.7-1.1-2.1-3.4L0 10q-.05-2.65 1.5-4.8l.05-.1" fill="#ba1b1b" fill-rule="evenodd"/><path d="M1.55 5.1q-1.2-.05-1.2-.45 0-.35.9-.8l-.4-.9q-.05-.25.2-.15.3 0 1.3.55l.05.05q4.8.8 8.9 3.05M8 15.35l-1.75.5q-1.95.15-4.1-1.5-1.7-1.1-2.1-3.4L0 10q-.05-2.65 1.5-4.8" fill="none" stroke="#000" stroke-linecap="round" stroke-linejoin="round" stroke-opacity=".4" stroke-width=".05"/><path d="M10.8 9.5Q9.75 9 7.75 7.1q-2.2-1.9-5.1.45Q.6 9.9 1.55 12.7" fill="none" stroke="#000" stroke-linecap="round" stroke-linejoin="round" stroke-opacity=".302" stroke-width=".05"/><path d="M9.95 13.45q3.2-1.95 5.6 1.75l-.05 2.65-.25.65q-4.1 2.1-6.85-.65l-.05-.15v-1q.6-2.05 1.6-3.25" fill="#ddf0f9" fill-rule="evenodd"/><path d="M15.55 15.2q-2.4-3.7-5.6-1.75.8-.95 1.75-1.5 1.75-1.05 2.85.5l1 2.75" fill="#9aa39f" fill-rule="evenodd"/><path d="m15.55 15.2-1-2.75q-1.1-1.55-2.85-.5-.95.55-1.75 1.5-1 1.2-1.6 3.25v1l.05.15m6.85.65.25-.65.05-2.65M8.4 17.85q2.75 2.75 6.85.65" fill="none" stroke="#000" stroke-linecap="round" stroke-linejoin="round" stroke-opacity=".4" stroke-width=".05"/><path d="M15.45 17.75q0 .7-1.75.95-1.8.25-2.25-.5-.5-.75-.45-1.5.15-.9.7-1.5.5-.65 1.35-.75.85-.05 1.55.45.65.5.7 1.35l.15 1.5" fill-rule="evenodd"/><path d="M15.45 17.75q0 .7-1.75.95-1.8.25-2.25-.5-.5-.75-.45-1.5.15-.9.7-1.5.5-.65 1.35-.75.85-.05 1.55.45.65.5.7 1.35z" fill="none" stroke="#000" stroke-linecap="round" stroke-linejoin="round" stroke-width=".05"/><path d="m14.5 15.65-.75.05q-.35-.15-.45-.6-.1-.4.1-.8t.55-.55q.4-.15.75 0l.45.55-.05.75-.6.6" fill="#f8fdff" fill-rule="evenodd"/><path d="m17.15 2.95.2-.7.2-1.45V0l.55.45 1 .85.7.8.45.85.5 1.15-.15.85.85-.7.15-.1-.45 1.8-.15.5-.25.6-.9.6-1.35.55-1.15.4-.45-.8-.2-.3-.15-.15L16.3 7l-.05-.05-1.3-.15q-.15-.75.45-2l1.75-1.85m.85 3q-.1.9-.7 1.5l.25.3q1.5-.1 2.6-.7l.1-.05q.5-1 .45-1.6v.05l-1.15.7q1.4-2.3-1.25-5.15l-.45 3.35-.5 1.3-.8 1.05.45.4 1-1.15M17 7.1l-.45.25.45-.25" fill="#c9c09a" fill-rule="evenodd"/><path d="m17 7.1-.45-.4.8-1.05.5-1.3L18.3 1q2.65 2.85 1.25 5.15l1.15-.7V5.4q.05.6-.45 1.6l-.1.05q-1.1.6-2.6.7l-.25-.3q.6-.6.7-1.5L17 7.1" fill="#fef9e2" fill-rule="evenodd"/><path d="m17.15 2.95.2-.7.2-1.45V0l.55.45 1 .85.7.8.45.85.5 1.15-.15.85.85-.7.15-.1-.45 1.8-.15.5-.25.6-.9.6-1.35.55-1.15.4-.45-.8-.2-.3-.15-.15L16.3 7l-.05-.05-1.3-.15q-.15-.75.45-2l1.75-1.85M17 7.1l1-1.15m-1.45 1.4L17 7.1" fill="none" stroke="#000" stroke-linecap="round" stroke-linejoin="round" stroke-opacity=".349" stroke-width=".05"/><path d="m25.6 18.3-.55-.55.3.25.25.3" fill="#c9c09a" fill-rule="evenodd"/><path d="M30.7 17.45q-1.9 2.05-3.75 2.05l-1.35-1.2-.25-.3-.3-.25-.5-.15q-.3.5-.45.95l-.3.75.05.35.1.5.45.95.45.65q.35.45 1.4.5l2.65-.35q-1.05-.45-2-1.35l.95.15q1.7-.1 2.85-3.25" fill="#8f1a17" fill-rule="evenodd"/><path d="m25.1 16.95-.4.4-.1.2-.05.05.5.15.55.55 1.35 1.2q1.85 0 3.75-2.05l.5-1.7q-2.55 1.85-3.35 1.2l-1.55-.35-1.2.35" fill="#de461b" fill-rule="evenodd"/><path d="m28.9 21.9.7-.15-1.75-1.05-.95-.15q.95.9 2 1.35" fill="#ba1b1b" fill-rule="evenodd"/><path d="m25.1 16.95 1.2-.35 1.55.35q.8.65 3.35-1.2l-.5 1.7m-5.1.85-.55-.55-.5-.15m-.15 3.5.45.65q.35.45 1.4.5l2.65-.35.7-.15-1.75-1.05q1.7-.1 2.85-3.25" fill="none" stroke="#000" stroke-linecap="round" stroke-linejoin="round" stroke-opacity=".349" stroke-width=".05"/><path d="M18.45 11.05h1q.55-.1.95-.45l.45-.75-.3-.6-.9-.2q-.45.05-.9.4-.5.35-.6.9t.3.7" fill="#5e0d0d" fill-rule="evenodd"/><path d="M23.2 12.9q-2.85-1.65-5 2.25v2.65l.25.65q3.7 1.65 6.15-1.3l.05-.15v-1q-.55-2-1.45-3.1" fill="#ddf0f9" fill-rule="evenodd"/><path d="M23.2 12.9q-.7-.9-1.55-1.35-1.55-.9-2.55.75l-.9 2.85q2.15-3.9 5-2.25" fill="#9aa39f" fill-rule="evenodd"/><path d="m18.2 15.15.9-2.85q1-1.65 2.55-.75.85.45 1.55 1.35m-5 2.25v2.65l.25.65m6.15-1.3.05-.15v-1q-.55-2-1.45-3.1M18.45 18.45q3.7 1.65 6.15-1.3" fill="none" stroke="#000" stroke-linecap="round" stroke-linejoin="round" stroke-opacity=".4" stroke-width=".05"/><path d="M18.25 17.75q0 .7 1.6.8 1.6.05 2.05-.75t.35-1.6-.55-1.4q-.5-.55-1.3-.55-.75 0-1.35.55-.6.6-.65 1.45l-.15 1.5" fill-rule="evenodd"/><path d="M18.25 17.75q0 .7 1.6.8 1.6.05 2.05-.75t.35-1.6-.55-1.4q-.5-.55-1.3-.55-.75 0-1.35.55-.6.6-.65 1.45z" fill="none" stroke="#000" stroke-linecap="round" stroke-linejoin="round" stroke-width=".05"/><path d="m19.1 15.6.65-.05.4-.6v-.75l-.55-.6-.7.1q-.3.15-.35.55-.15.45.05.85l.5.5" fill="#f8fdff" fill-rule="evenodd"/><path d="m20.05 22.5-.95.15-.55-.1-.25-.1v-.05h-.35q-.95.6-3.05 0v.05l-.25.1-.55.1-.95-.15q.3-1.05 1.6-.7l1.55.2q.2.25.45 0h.45l1.25-.2q1.3-.35 1.6.7m-5.95.15q.05-.65.8-.25-.75-.4-.8.25m3.85-.25q1.1-.4 1.15.25-.05-.65-1.15-.25" fill-rule="evenodd"/><path d="M17.6 16.1q2.25 1.25 2.6 3.75l.05 1.1-.1 1.4-.1.15q-.3-1.05-1.6-.7l-1.25.2h-.45q-.25.25-.45 0l.3-.05.15.05-.15-.05-.3.05-1.55-.2q-1.3-.35-1.6.7l-.1-.15-.1-1.4q0-.85.15-1.55.5-2.2 2.5-3.3-1.4 1.4-1.25 3.4 1.75 2.25 5.05.3.4-1.75-1.8-3.7m-.4 5.9h-.3.3" fill="#333" fill-rule="evenodd"/><path d="m15.6 16.1.6-.3h.8l.6.3q2.2 1.95 1.8 3.7-3.3 1.95-5.05-.3-.15-2 1.25-3.4" fill="url(#g)" fill-rule="evenodd"/><path d="m15.6 16.1.6-.3h.8l.6.3q2.25 1.25 2.6 3.75l.05 1.1-.1 1.4-.1.15-.95.15-.55-.1-.25-.1m-3.4 0-.25.1-.55.1-.95-.15-.1-.15-.1-1.4q0-.85.15-1.55.5-2.2 2.5-3.3m1.15 5.9-.15-.05-.3.05q.2.25.45 0h.45l1.25-.2q1.3-.35 1.6.7M17.2 22h-.3m-3.75.5q.3-1.05 1.6-.7l1.55.2m2.8.65q-.05-.65-1.15-.25m-3.05 0q-.75-.4-.8.25" fill="none" stroke="#581003" stroke-linecap="round" stroke-linejoin="round" stroke-opacity=".722" stroke-width=".05"/></g><linearGradient id="g" x1="-819.2" x2="819.2" gradientTransform="matrix(.0025 .0023 -.0022 .0029 17.3 19.7)" gradientUnits="userSpaceOnUse"><stop stop-color="#574f3e" offset="0"/><stop stop-color="#786d56" offset="1"/></linearGradient></defs></svg>