<svg viewBox="0 0 47.415 44.499" xmlns="http://www.w3.org/2000/svg" xmlns:xlink="http://www.w3.org/1999/xlink"><g transform="translate(-376.74 -277.75)"><use transform="translate(376.75 277.75)" width="47.4" height="44.5" xlink:href="#a"/><use transform="translate(387.9 291.3)" width="26.5" height="24.75" xlink:href="#b"/><use transform="matrix(.0769 0 -.0238 .2585 407.35 306.2)" width="8.5" height="10.5" xlink:href="#c"/><use transform="matrix(.0572 0 -.0213 .2312 408.35 308.7)" width="8.5" height="10.5" xlink:href="#c"/><use transform="matrix(.0604 -.0008 -.0181 .2312 409.3 307.2)" width="8.5" height="10.5" xlink:href="#c"/><use transform="matrix(-.0769 0 .0238 .2585 395.6 306.25)" width="8.5" height="10.5" xlink:href="#c"/><use transform="matrix(-.0572 0 .0213 .2312 394.6 308.75)" width="8.5" height="10.5" xlink:href="#c"/><use transform="matrix(-.0604 -.0008 .0181 .2312 393.7 307.25)" width="8.5" height="10.5" xlink:href="#c"/></g><defs><radialGradient id="e" cx="0" cy="0" r="819.2" gradientTransform="matrix(.0085 .0056 -.0056 .0085 397 298.4)" gradientUnits="userSpaceOnUse"><stop stop-color="#fff" offset=".463"/><stop stop-color="#c9c09a" offset=".878"/><stop stop-color="#c9c09a" offset="1"/></radialGradient><radialGradient id="f" cx="0" cy="0" r="819.2" gradientTransform="matrix(-.0085 .0055 .0055 .0085 405.65 298.4)" gradientUnits="userSpaceOnUse"><stop stop-color="#fff" offset=".463"/><stop stop-color="#c9c09a" offset=".878"/><stop stop-color="#c9c09a" offset="1"/></radialGradient><radialGradient id="h" cx="0" cy="0" r="819.2" gradientTransform="matrix(.0049 0 0 .0065 4.25 5.25)" gradientUnits="userSpaceOnUse"><stop stop-opacity=".478" offset="0"/><stop stop-color="#412d2e" stop-opacity=".478" offset=".361"/><stop stop-color="#5a4643" stop-opacity="0" offset=".973"/></radialGradient><g id="d"><path d="M1.05-21q-.05.25.05.55.2.5.7.75l.2.1.8.15.75-.5.1-.35-.1-.5-.65-.75-.35-.15-.65-.05q-.5.05-.75.45l-.1.3m3.1 3.6q-4-.75-7.75-.1l-.85-3.2q4.75-2.95 9.1 0l-.5 3.3m-7.25-1.85.35.25.3.05.3-.05.35-.25.25-.6q0-.4-.25-.65t-.65-.25l-.65.25-.25.65.25.6" fill="#a17225" fill-rule="evenodd" transform="translate(23.7 22.2)"/><path d="m1.05-21 .1-.3q.25-.4.75-.45l.65.05.35.15.65.75.1.5-.1.35-.75.5-.8-.15-.2-.1q-.5-.25-.7-.75-.1-.3-.05-.55m-4.15 1.75-.25-.6.25-.65.65-.25q.4 0 .65.25t.25.65l-.25.6-.35.25-.3.05-.3-.05-.35-.25" fill="#d19430" fill-rule="evenodd" transform="translate(23.7 22.2)"/><path d="m20.05-6.15-.6-.75h-.05l.4-1.45.9.15-.65 2.05" fill="#9de8e8" fill-rule="evenodd" transform="translate(23.7 22.2)"/><path d="m16.55-5.45-.75-.9.6-.55h2.35l-2.2 1.45m-4.5-.8Q11.3-4.8 8.6-4.65L6.1-5q-5-.55-8.6.9-5.15 3.15-10.85 2.75l-1.75-1.2 1.65-2.3.05-.1.05-.05q.95-1.05 3.1-1.8h20.9l1.4.55m-32 .05.75-.5h3.1l.2.05-3.9.95-.15-.5" fill="#e8e48d" fill-rule="evenodd" transform="translate(23.7 22.2)"/><path d="m13.6-5.4 1.1 1.35 1.05 1.65.75 1.5.1.15.7 2.45.1.8.15 2.05-.05 1.35Q13.8 10 8.4 9l-4-1.05-4.95-.7Q-6 6.95-8.3 9.55q-1.5 1.7-1.65 3.45-.3 2.75 2.7 5.6-2.5-1.1-4.65-3.05l-.7-.7q-3.65-3.65-4.2-8.5l-.15-1.8.15-1.95.3-1.7.4-1.25 1-2.2 1.75 1.2q5.7.4 10.85-2.75Q1.1-5.55 6.1-5l2.5.35q2.7-.15 3.45-1.6l1.55.85m3.45.65-.5-.7 2.2-1.45h.7l.6.75-.3.9-2.7.5m-32.95-1.9.7.25-.85 1.1-.5-.2-2.6 1.85-.65-2.05 3.9-.95" fill="#b5b26e" fill-rule="evenodd" transform="translate(23.7 22.2)"/><path d="m17.9-3.35-.35-.6-.5-.8 2.7-.5L18.7-1.7l-.8-1.65M-7.25 18.6q-3-2.85-2.7-5.6.15-1.75 1.65-3.45 2.3-2.6 7.75-2.3l4.95.7L8.4 9q5.4 1 9.1-3.1-.25 2.95-1.6 5.45-1.25 2.25-3.4 4.2-4.15 3.75-9.7 4.4l-2.5.15q-4.1 0-7.55-1.5m-8.8-23.9q-1.55 2.15-2.3 4.2l-.6-1.85-.2-.7 2.6-1.85.5.2" fill="#94915a" fill-rule="evenodd" transform="translate(23.7 22.2)"/><path d="m4.15-17.4 2.35.6q.75.75.95 1.6.15.75-.25 1.6l-.1.25-1.55-.75-5.5-1-4.75.5-1.9 1.6-.25-.35q-1.2-1.7.45-3.5l2.8-.65q3.75-.65 7.75.1m6.45 6.8-1.4-.7-1.4-.6 1.4.6 1.4.7q1.9 1.1 3.55 2.6l1.65 1.65.75.9.5.7.5.8.35.6-2.15.95-1.05-1.65-1.1-1.35-1.1-1.05q-1.45-1.35-3.1-2.3l-1.25-.6-1.25-.5-.15-.05-.4-.15L4-10.5v-.6h2.65l.65-.95.5.15 13.05-2.9q2.9-.6 2.75 2.7l-1.25 4.2-1.65-.3.7-2.45q.1-2.4-1.95-1.9L10.6-10.6M-13.35-5l-.05.05-.05.1-1.65 2.3-1 2.2-.4 1.25-.3 1.7-.15 1.95.15 1.8q.55 4.85 4.2 8.5l-1.65 1.45q-4.25-4.15-4.9-9.75l-.15-2.05.1-1.9.05-.3.35-1.95.45-1.45q.75-2.05 2.3-4.2l.85-1.1 1.65-1.6 2.25-1.8.05-.05.1-.05L-9-11.1l.35-.15 2.45-.95 1.5 1.1h1.1v.45l-2.3.65-1.65.65-2.35 1.3-2 1.6L-13.35-5m-7.55 2.1-2.7-8.45q-.15-3.3 2.7-2.7l9.9 2.25-1.2.7-5-.75-.45.65-1.6-.4q-1.95-.4-1.85 1.85l1.15 3.55.15.5.65 2.05.2.7-1.95.05" fill="#65cccc" fill-opacity=".502" fill-rule="evenodd" transform="translate(23.7 22.2)"/><path d="m-6.6-13 1.9-1.6 4.75-.5 5.5 1 1.55.75-.75 1 .7.2.25.1-.65.95H4v-2.45q-3.8-1.25-7.6 0v2.45h-1.1l-1.5-1.1.3-.1-.7-.7m27.3 4.8 1.65.3-2.75 9.15-.8-2.8-.1-.15.1.15.8 2.8.15.9.15 2.35q0 4.2-1.9 7.7-1.4 2.6-3.85 4.8Q8.45 22.2.3 22.2q-8.1 0-13.85-5.2l-.7-.7 1.65-1.45.7.7q2.15 1.95 4.65 3.05Q-3.8 20.1.3 20.1l2.5-.15q5.55-.65 9.7-4.4 2.15-1.95 3.4-4.2 1.35-2.5 1.6-5.45l.05-1.35-.15-2.05-.1-.8-.7-2.45-.1-.15-.75-1.5 2.15-.95.8 1.65 1.05-3.55.3-.9.65-2.05M-11-11.8l2.35.55-.35.15-2.15 1.2-.1.05-.05.05-6.35-1.4.45-.65 5 .75 1.2-.7m-7.35 10.7L-18.8.35l-.35 1.95-.1.1-1.65-5.3 1.95-.05.6 1.85" fill="#478f8f" fill-opacity=".502" fill-rule="evenodd" transform="translate(23.7 22.2)"/><path d="m10.6-10.6 8.85-1.95q2.05-.5 1.95 1.9l-.7 2.45-.9-.15-.4 1.45h-3l-.6.55L14.15-8q-1.65-1.5-3.55-2.6M4-11.1v.6l2.35.45.4.15.15.05 1.25.5 1.25.6q1.65.95 3.1 2.3l1.1 1.05-1.55-.85-1.4-.55h-20.9q-2.15.75-3.1 1.8l1.45-1.45 2-1.6 2.35-1.3L-5.9-10l2.3-.65v-.45H4m-15.3 1.3L-13.55-8l-1.65 1.6-.7-.25-.2-.05h-3.1l-.75.5-1.15-3.55q-.1-2.25 1.85-1.85l1.6.4 6.35 1.4" fill="#c2ffff" fill-opacity=".502" fill-rule="evenodd" transform="translate(23.7 22.2)"/><path d="M-3.6-11.1v-2.45q3.8-1.25 7.6 0v2.45h-7.6" fill="#a8dede" fill-opacity=".502" fill-rule="evenodd" transform="translate(23.7 22.2)"/><path d="M31.15 7q-.2-.85-.95-1.6l-2.35-.6q-4-.75-7.75-.1l-2.8.65q-1.65 1.8-.45 3.5l.25.35m13.7-.35.1-.25m.6 1.7 1.4.6 1.4.7 8.85-1.95q2.05-.5 1.95 1.9L44.4 14m1.65.3 1.25-4.2q.15-3.3-2.75-2.7L31.5 10.3l-.5-.15m-3.3.95v.6l2.35.45.4.15.15.05 1.25.5 1.25.6q1.65.95 3.1 2.3l1.1 1.05 1.1 1.35 1.05 1.65m2.15-.95-.35-.6-.5-.8-.5-.7-.75-.9-1.65-1.65q-1.65-1.5-3.55-2.6m-3.5-2.75-.75 1 .7.2.25.1m-20.7 7.1-.05.1-1.65 2.3-1 2.2-.4 1.25-.3 1.7-.15 1.95.15 1.8q.55 4.85 4.2 8.5l.7.7q2.15 1.95 4.65 3.05M41.2 28.1l.05-1.35-.15-2.05-.1-.8-.7-2.45-.1-.15-.75-1.5m4.3-3.75L44.4 14m-.65 2.05-.3.9-1.05 3.55.1.15.8 2.8 2.75-9.15m-4.45 4.55.8 1.65m-22.3-9.4V8.65q3.8-1.25 7.6 0v2.45m-7.6 0v.45l-2.3.65-1.65.65-2.35 1.3-2 1.6-1.45 1.45m-.9 21.3.7.7Q15.9 44.4 24 44.4q8.15 0 13.85-5.2 2.45-2.2 3.85-4.8 1.9-3.5 1.9-7.7l-.15-2.35-.15-.9m-2.1 4.65q-.25 2.95-1.6 5.45-1.25 2.25-3.4 4.2-4.15 3.75-9.7 4.4l-2.5.15q-4.1 0-7.55-1.5M2.8 19.3.1 10.85q-.15-3.3 2.7-2.7l9.9 2.25 2.35.55L17.5 10l.3-.1-.7-.7m-4.7 3.2.05-.05.1-.05 2.15-1.2.35-.15M8.5 15.8l1.65-1.6 2.25-1.8L6.05 11l-1.6-.4q-1.95-.4-1.85 1.85L3.75 16m4.75-.2-.85 1.1q-1.55 2.15-2.3 4.2l-.45 1.45-.35 1.95-.05.3-.1 1.9.15 2.05q.65 5.6 4.9 9.75m-4.1-17.4-.6-1.85m-1.95.05 1.65 5.3.1-.1m0-5.95.2.7m-.2-.7L3.9 16.5l-.15-.5m.75 8.8-.05-.2" fill="none" stroke="#6da6a6" stroke-linecap="round" stroke-linejoin="round" stroke-opacity=".502" stroke-width=".2"/><path d="m35.75 15.95-1.4-.55h-20.9q-2.15.75-3.1 1.8l-.05.05m32.8-1.95h.05l.6.75m-.65-.75h-.65m-2.95.55.6-.55h2.35m-6.7.65 1.55.85M3.75 16l.75-.5h3.1l.2.05.7.25" fill="none" stroke="#94915a" stroke-linecap="round" stroke-linejoin="round" stroke-width=".05"/><path d="m24.75 1.2.1-.3q.25-.4.75-.45l.65.05.35.15.65.75.1.5-.1.35-.75.5-.8-.15-.2-.1q-.5-.25-.7-.75-.1-.3-.05-.55M20.1 4.7l-.85-3.2q4.75-2.95 9.1 0l-.5 3.3M20.6 2.95l-.25-.6.25-.65.65-.25q.4 0 .65.25t.25.65l-.25.6-.35.25-.3.05-.3-.05-.35-.25" fill="none" stroke="#704f19" stroke-linecap="round" stroke-linejoin="round" stroke-width=".05"/><path d="m15.15-13.1 1.8-.05q.85.2 1 .8t-.45 1.2l-1.6.85-1.8.05q-.75-.25-.9-.85t.35-1.15q.6-.6 1.6-.85M19.55-13.9l.8.1.5.6-.1.85q-.2.35-.65.5l-.8-.1q-.4-.25-.5-.7-.1-.4.1-.75l.65-.5M-16.05-2.55q1.25-2.2 3.05-3.2 1.85-1.05 3.15-.3 1.3.8 1.3 2.85.05 2.1-1.2 4.3t-3.15 3.25q-1.75 1.05-3.05.25-1.3-.75-1.4-2.8.05-2.15 1.3-4.35M-21.85-13.6l.8.1q.4.2.5.6.1.45-.1.85-.2.35-.65.5l-.8-.1-.5-.7.1-.75.65-.5M-17.05-12.65l1.65.75q.6.5.5.9-.15.45-.9.55l-1.8-.15q-1-.25-1.6-.75-.6-.45-.45-.9l.85-.55 1.75.15M-8.55-9.8q.6-.6 1.45-.65.8 0 1.4.6t.6 1.4q-.05.85-.65 1.45-.55.55-1.4.6-.8 0-1.4-.6t-.6-1.4q.05-.85.6-1.4M-5.9-16.45l.55.05.3.45q.1.3-.05.55l-.45.35-.55-.1-.35-.45.1-.55.45-.3M-2.2-17.5l1.75.3q.75.3.75.75t-.75.8l-1.75.3-1.7-.3q-.75-.35-.75-.8t.75-.75l1.7-.3" fill="#fff" fill-rule="evenodd" transform="translate(23.7 22.2)"/><path d="M11.7-8.7 14-6.1l.1.3q2.65 10 .3 20.9l-3.3.95v-2.9l-.95 3.15q-9 2-17.8.35-1.6-.35-2.05-.75l-3.75-3.3-.05-.4Q-15.05 1-12.3-8.4l2.5-.55q7.75-1.65 14-.85L7.3-3l1.1-6.3 3.3.6v2.9h2.4-2.4v-2.9M-7.65 8.4v8.25V8.4m-2.05 7.5-.4-4.5-3.4.8 3.4-.8.4 4.5m-1.2-18.25 1.1-6.6-1.1 6.6m21.5 10.5.5 5-.5-5" fill="#edcb8e" fill-rule="evenodd" transform="translate(23.7 22.2)"/><path d="m35.4 13.5 2.3 2.6.1.3q2.65 10 .3 20.9l-3.3.95v-2.9l-.95 3.15q-9 2-17.8.35-1.6-.35-2.05-.75l-3.75-3.3-.05-.4q-1.55-11.2 1.2-20.6l2.5-.55q7.75-1.65 14-.85l3.1 6.8 1.1-6.3 3.3.6v2.9h2.4m-3 18.95-.5-5m-20.4-17.1-1.1 6.6M10.2 34.4l3.4-.8.4 4.5m2.05.75V30.6" fill="none" stroke="#7a5e32" stroke-linecap="round" stroke-linejoin="round" stroke-opacity=".502" stroke-width=".05"/><path d="M2-8.15q1.4.05 1.4 1.4 0 .55-.4 1-.45.5-1.15.5Q.5-5.25.3-6.4H.25q-1.15 0-1.55-.9l-.2-.9q0-1.75 1.75-1.8T2-8.15M9.4-2q0-1.05 1.05-1.05T11.5-2q-.05 1.1-1 1.1-.75 0-1-.5L9.4-2m5.95.6q-.45.5-1.1.5-1 0-1.4-.75l-.2-.85q0-1.5 1.55-1.5t1.55 1.6q0 .55-.4 1m-1.7 10.5-.65.25q-.85 0-1.1-.7l-.05-.45q0-1.1 1.15-1.1 1.1.05 1.1 1.15l-.45.85m-6.6-7.75Q7.5.75 8.5.75q1.75 0 1.75 1.65L9.9 3.5q-.45.65-1.15.75v.3q0 .65-.4 1.1-.45.6-1.35.6-1.2 0-1.65-.9l-.2-.85q0-.7.3-1.1l-.55-.1-.1.15q-.65.8-1.55.8-1.25 0-1.8-1l-.35-1q0-1.9 2.1-2 1 0 1.5.45l.9-.15q1.15 0 1.45.8m-4.2 4.1L2.5 6.6q-.5.75-1.5.75-1.1 0-1.55-.9L-.8 5.5q0-2.05 1.85-1.8 1.8.25 1.8 1.75m4.1 5.5q1.45 0 1.45 1.25-.1.8-.5 1.15l.25.8-.3.85q-.3.4-.85.4-1.4 0-1.25-1.15 0-.55.35-.85-.5-.35-.6-1.2 0-1.25 1.45-1.25m-1.75 3.9q-.5.55-1.35.55Q2 15.4 2 13.75q0-1.7 1.85-1.7 1.8 0 1.8 1.65l-.45 1.15m-15.9-19.7q-.15.35-.8.55l-.6-.5q-.2-.15-.2-.45l.35-.75q.55-.35 1.4.75l-.15.4m7.3-1.55q-.45.6-1.1.6-.85 0-1.15-.7l-.15-.7q0-1.45 1.4-1.3 1.35.2 1.35 1.25 0 .35-.35.85m-2 1.3q1.6 0 1.6 1.8 0 .75-.45 1.25-.5.5-1.25.5-1.15 0-1.45-.9l-.8.15q-1.1 0-1.55-.95l-.25-.95q0-1.95 1.9-1.95 1.4 0 1.75 1.1l.5-.05M-8.55-.75q0-1.1 1.15-1.1 1.1 0 1.1 1.2l-.05.35q1.3.05 1.3 1.6l-.4.95-.55.45q.25.4.25 1.1t-.4 1.2q-.5.65-1.35.65-1.15 0-1.5-.85l-.1-.5-.4.05q-.85 0-1.15-.65l-.15-.7q0-1.35 1.4-1.4.9 0 1.2.6l.15-.05-.25-.9q0-.6.35-.95l-.55-.6-.05-.45M-1.25-4q-.75 0-1.1-.7l-.15-.55q0-1.2 1.25-1.2T0-5.25l-.25.75q-.35.5-1 .5m-8.3 12.5q-.4.4-.95.4l-.8-.2-.45.9q-.55.75-1.5.75-1.1 0-1.55-.9l-.25-.95q0-2.2 1.9-2.05 1.15.1 1.6.85.2-.65 1.1-.7 1.2-.1 1.2 1.05 0 .5-.3.85m.3 2.7q0-1.65 1.75-1.65 1.3 0 1.65.9.25-.6 1.15-.45 1.3.25 1.3 1.25 0 .5-.35.85l-.05.05q.3.4.3 1.1v.05q1.7.1 1.7 1.75 0 .6-.5 1.1-.6.6-1.45.6-1.15 0-1.55-.9l-.2-.85.05-.3-.9-.85-.15-.65.15-.7q-.45.4-1.15.4-.95 0-1.45-.75l-.3-.95m3.4.8-.05-.05-.1.15.15-.1m3.1-1.55q0-1.45 1.3-1.2t1.3 1.25q0 .5-.35.85-.4.4-1 .4-.85 0-1.15-.65l-.1-.65" fill="#b89c6e" fill-opacity=".502" fill-rule="evenodd" transform="translate(23.7 22.2)"/></g><g id="b"><path d="m390.8 304.55-.05.05v-.05h.05" fill="#a5986b" fill-rule="evenodd" transform="translate(-387.9 -291.3)"/><path d="m405.55 296.8.3-.2.15.3-.45-.1m-7.35-2.05.05-.15.05.1-.1.05m3.15 7.35.05.05h-.05v-.05" fill="#746947" fill-rule="evenodd" transform="translate(-387.9 -291.3)"/><path d="m401.15 301.15.2.35.1.15.5.5h-.55l-.05-.05v.05l-.6.05.5-.55-.1-.5m5.5 2.4.85-.15 1.3-.55-.4.6-.6.6-1.15-.5m-5.4-1.9.1.45-.1-.45m-4.9 1.95-1.35.55-.8-.75-.35-.5 1.2.45 1.3.25" fill="#c9c098" fill-rule="evenodd" transform="translate(-387.9 -291.3)"/><path d="M403.9 299.65q.4 0 .65.3.3.35.3.85l-.3.8q-.25.35-.65.35t-.65-.35q-.3-.35-.3-.8 0-.5.3-.85.25-.3.65-.3m-4.85.3.25.85-.25.8q-.3.35-.7.35t-.65-.35q-.3-.35-.3-.8 0-.5.3-.85.25-.35.65-.35t.7.35" fill="#333" fill-rule="evenodd" transform="translate(-387.9 -291.3)"/><path d="M395.3 307.55v-.2l.05-.25.15.45v.3l-.1.2-.1-.5m-.75 2.2v.6q-.15-.05-.15-.45v-.2l.05-.2h.05l.05.25m-1.05-1.85.15.25v.3l-.05.45-.1-.2-.05-.3.05-.5m14-.4.1-.45.1.25v.2l-.15.5-.1-.2.05-.3m1.95.35.05.5-.05.3-.05.2h-.05l-.05-.45.05-.3.1-.25m-1 1.6h.1l.05.2v.2l-.15.45q-.1-.05-.05-.5v-.15l.05-.2" fill="#4b5038" fill-rule="evenodd" transform="translate(-387.9 -291.3)"/><path d="m403.55 302.45.55.15.25.25v.05l-.25.4-.55.1-.55-.1-.25-.4.25-.3.1-.05.45-.1" fill="#f3ede0" fill-rule="evenodd" transform="translate(-387.9 -291.3)"/><path d="m403.25 294.35.35.55-.6-.15.25-.4m1.9.7q.3-.75.9-1.3l.8-.65 1.05-.75q-.45.35-.95 1.3l-.9.1.9-.1-.25.5q-.7 1.65-1.55.9m.7 1.55-.15-.3q.8.3 2-.4l-1 .9-.4.15-.2-.05h-.1l-.15-.3m-3.3 1.25q-.9.75-1.2 1.9-.35-1.1-1.1-1.8h.5l1.8-.1m-8.85-5.3 1 .75.75.65.9 1.3q-.9.75-1.55-.9l-.25-.5-.85-1.3m.1 3.55 1.3.5.2-.3.35.3.65.4q-1.05.25-1.75 1l.35-.95-.1-.05-1-.9m1.65-2.15-.9-.1.9.1m-.9 19.05.05.15.25.45.45.5.1.15q1.4 1.4 2.75 1.6 1.35.1 2.65-1.05l.5-2.4.6 2.35q1.4 1.45 3.05 1.1h.1l2.55-1.7.2-.15.35-.4.3-.65.2-.05q1.7-1.15 3.3-.9-.85.15-1.25.6-.85 1.15-2.8 1.5l-.5.9q-1.1.8-2.3 1l-.15.05q-1.7.15-3.6-.7-1.75.8-3.25.7-1.3-.1-2.45-.9l-.4-.75-.1-.2q-2.5-.2-3.5-1.6-.45-.45-1.25-.6 1.55-.25 3.3.9l.85.1m.3.6.3.6-.3-.6m.25-17-.2.45.2-.45m12.8 17.5.25-.5-.25.5" fill="#332e21" fill-rule="evenodd" transform="translate(-387.9 -291.3)"/><path d="m394.2 303.4.8.75-1.95 1.05q-.9 2.65 1.5 7.8l-.85-.1q-1.75-1.15-3.3-.9l-1.65-.2q2.45-2.15 2.45-2.95v-.35q-.2-.3-.9-.3h-.65l.25-.25-1.25-1.1 1.15-.5q1.9-.8 1.9-1.3 0-.15-.9-.5h-.05l-.2-1.3.15.1.85.3q.25-.1.45-.25l.5-.5.55.6 1.15-.1m14.25 9.55.7-1.6q1.35-3.5 1.05-5.6-.7-.95-2.4-1.7l.6-.6.8.05v.65l.25.05 1.75-.4.5-.2-.15 1h-.35q-.55.25-.55.3 0 .55 2.45 1.95l.5.1-.9.85-.3.15v.05h-.9l-.4.35.45.95 1.55 2.55v.05l-1.15.1q-1.6-.25-3.3.9l-.2.05" fill="#4d4632" fill-rule="evenodd" transform="translate(-387.9 -291.3)"/><path d="M403.25 294.35q1.2-1.6 5.35-3.05h.05l.15.15q.4.55-.25 2.35l-.85 2.1q-1.2.7-2 .4l.15.3-.3.2q-1.4-.1-2.55.65l-.45.4-1.8.1h-.5l-.6-.45q-1.4-.95-3.05-.6l-.3.1-.65-.4-.35-.3-.2.3-1.3-.5-.8-2.15q-.65-1.8-.25-2.35l.15-.15.05.05q4.15 1.45 5.3 3.1l-.05.15-1.8.55-.05-.05.05.05 1.8-.55.1-.05 2.1-.2 2.6.25.6.15-.35-.55m1.9.7-.25.45-.15-.1q-.35-.45-.9-.45l-.25-.05.25.05q.55 0 .9.45l.15.1.25-.45q.85.75 1.55-.9l.25-.5q.5-.95.95-1.3l-1.05.75-.8.65q-.6.55-.9 1.3m2.3-1.2-.5-.2.5.2m-2.55 1.65.55.5.25.3-.25-.3-.55-.5m.1 7.55 1.65.5 1.15.5q1.7.75 2.4 1.7.3 2.1-1.05 5.6l-.7 1.6-.3.65-.35.4-.2.15-2.55 1.7h-.1q-1.65.35-3.05-1.1l-.6-2.35-.5 2.4q-1.3 1.15-2.65 1.05-1.35-.2-2.75-1.6l-.1-.15-.45-.5-.25-.45-.05-.15q-2.4-5.15-1.5-7.8l1.95-1.05 1.35-.55 1.6-.5-.05.25q.6 1.8 3.55 3 2.65-.8 3.6-3l-.05-.3m-8.65-7.8-.9-1.3-.75-.65-1-.75.85 1.3-.5.2.5-.2.25.5q.65 1.65 1.55.9m.05.05q-.55.3-.9.7l-.2.3.2-.3q.35-.4.9-.7m-1.1 12.25.1.5.1-.2v-.3l-.15-.45-.05.25v.2m-4.75-4.3v-1.7l1.95 1.35-.5.5q-.2.15-.45.25l-.85-.3-.15-.1m.25 1.3q.9.35.9.5 0 .5-1.9 1.3l-1.15.5-.75-.85q1.65-1.25 2.55-1.4h.3l.05-.05m-1.15 3.65h.65q.7 0 .9.3v.35q0 .8-2.45 2.95l-.65-.25q.65-2.35 1.55-3.35m3.85-.3-.05.5.05.3.1.2.05-.45v-.3l-.15-.25m1.05 1.85-.05-.25h-.05l-.05.2v.2q0 .4.15.45v-.6m14.65-6.25h.05q.9-1 2.5-1.95l-.05 2.05-.5.2-1.75.4-.25-.05v-.65m2.35 1.1h.4l.55.25q.8.35 1.9 1.15l-.8.95-.5-.1q-2.45-1.4-2.45-1.95 0-.05.55-.3h.35m.85 3.4q1.1.95 1.8 3.55l-1.05.35h-.05v-.05l-1.55-2.55-.45-.95.4-.35h.9m-2.95-.15-.1.25-.05.3.05.45h.05l.05-.2.05-.3-.05-.5m-1.95-.35-.05.3.1.2.15-.5v-.2l-.1-.25-.1.45m.95 1.95-.05.2v.15q-.05.45.05.5l.15-.45v-.2l-.05-.2h-.1" fill="#665d42" fill-rule="evenodd" transform="translate(-387.9 -291.3)"/><path d="m401.35 299.75-.1.3-.1 1.1.1.5-.5.55-1.8.15q-.8 0-1 .75l-1.6.5-1.3-.25-1.2-.45-.4-1.15q-.35-1.65.55-3.1l.55-.65q.7-.75 1.75-1l.3-.1q1.65-.35 3.05.6l.6.45q.75.7 1.1 1.8m-2.3.2q-.3-.35-.7-.35t-.65.35q-.3.35-.3.85 0 .45.3.8.25.35.65.35t.7-.35l.25-.8-.25-.85" fill="url(#e)" fill-rule="evenodd" transform="translate(-387.9 -291.3)"/><path d="M406 296.9h.1l.2.05q1.45.4 2.35 1.7.9 1.4.55 3.1l-.4 1.1-1.3.55-.85.15-1.65-.5q-.2-.6-.95-.7l-2.1-.2-.5-.5-.1-.15-.2-.35.1-1.1.1-.3q.3-1.15 1.2-1.9l.45-.4q1.15-.75 2.55-.65l.45.1m-2.1 2.75q-.4 0-.65.3-.3.35-.3.85 0 .45.3.8.25.35.65.35t.65-.35l.3-.8q0-.5-.3-.85-.25-.3-.65-.3" fill="url(#f)" fill-rule="evenodd" transform="translate(-387.9 -291.3)"/><path d="m401.95 302.15 2.1.2q.75.1.95.7l.05.3q-.95 2.2-3.6 3-2.95-1.2-3.55-3l.05-.25q.2-.75 1-.75l2.4-.2h.6m1.6.3-.45.1-.1.05-.25.3.25.4.55.1.55-.1.25-.4v-.05l-.25-.25-.55-.15" fill="url(#g)" fill-rule="evenodd" transform="translate(-387.9 -291.3)"/><path d="m19.8 4.6.85-2.1Q21.3.7 20.9.15L20.75 0h-.05q-4.15 1.45-5.35 3.05l-.25.4.6.15.25.05q.55 0 .9.45l.15.1.25-.45q.3-.75.9-1.3l.8-.65L20 1.05m-.95 1.3.5.2m-.5-.2-.9.1m-.2 2.85L17.8 5l-.25-.3-.55-.5m1.4 1.45-.2-.05h-.1l-.45-.1q-1.4-.1-2.55.65l-.45.4q-.9.75-1.2 1.9l-.1.3-.1 1.1m.8 1 2.1.2q.75.1.95.7l1.65.5m2.15-.7.4-1.1q.35-1.7-.55-3.1-.9-1.3-2.35-1.7l.4-.15 1-.9m-1.85.7.15.3M5.8 1.25l1 .75.75.65.9 1.3.05.05 1.8-.55.1-.05-.05-.1Q9.2 1.65 5.05.2L5 .15 4.85.3q-.4.55.25 2.35l.8 2.15m1.3.5.4-.6q.35-.4.9-.7M6.65 2.55l-.5.2m.5-.2.9.1M8.4 5.7l.3-.1q1.65-.35 3.05.6l.6.45m2.75-3.2-2.6-.25-2.1.2M16 8.35q.4 0 .65.3.3.35.3.85l-.3.8q-.25.35-.65.35t-.65-.35q-.3-.35-.3-.8 0-.5.3-.85.25-.3.65-.3m-2.55.1q-.35-1.1-1.1-1.8m1.1 4.15.05.05h.55m-.6 0h.05m-.05 0v-.05l-.1-.45-.1-.5m-.4 1.05.6-.05m-2.3-2.2.25.85-.25.8q-.3.35-.7.35t-.65-.35q-.3-.35-.3-.8 0-.5.3-.85.25-.35.65-.35t.7.35m-1.1 3.15q.2-.75 1-.75l1.8-.15M7.1 12.85l1.35-.55m-2.5-.7.35.5.8.75-1.95 1.05q-.9 2.65 1.5 7.8l.05.15.25.45m13.3 0 .3-.65.7-1.6q1.35-3.5 1.05-5.6-.7-.95-2.4-1.7l-1.15-.5m-8.7-.45-1.6.5m8.65-.55.05.3q-.95 2.2-3.6 3-2.95-1.2-3.55-3l.05-.25m-7.4.15v-1.7L4.6 11.6l.55.6 1.15-.1m-.35-.5-.4-1.15q-.35-1.65.55-3.1l.55-.65.35-.95-.1-.05-1-.9m-3.05 8.5h-.3q-.9.15-2.55 1.4l.75.85L2 16.65l-.25.25q-.9 1-1.55 3.35l.65.25 1.65.2q.8.15 1.25.6 1 1.4 3.5 1.6l-.3-.6m-4.3-10.35.2 1.3v.05m21.2 7.4q-.85.15-1.25.6-.85 1.15-2.8 1.5l-.5.9q-1.1.8-2.3 1l-.15.05q-1.7.15-3.6-.7-1.75.8-3.25.7-1.3-.1-2.45-.9l-.4-.75-.1-.2m-.6-16.2q.7-.75 1.75-1m12.9 6.5h.05q.9-1 2.5-1.95l-.05 2.05-.15 1h.4m.55.25q.8.35 1.9 1.15l-.8.95-.9.85-.3.15v.05q1.1.95 1.8 3.55l-1.05.35h-.05l-1.15.1m-2.75-8.5-.8-.05-.6.6m.6-.6.4-.6m-.65 10.75-.25.5M7 5.75l.2-.45" fill="none" stroke="#000" stroke-linecap="round" stroke-linejoin="round" stroke-opacity=".4" stroke-width=".05"/></g><linearGradient id="g" x1="-819.2" x2="819.2" gradientTransform="matrix(0 .0028 -.0032 0 401.5 304.25)" gradientUnits="userSpaceOnUse"><stop stop-color="#696049" offset="0"/><stop stop-color="#0e0c0c" offset="1"/></linearGradient><path d="M1.25 1.55Q2.5 0 4.25 0t3 1.55 1.25 3.7-1.25 3.7-3 1.55-3-1.55T0 5.25t1.25-3.7" fill="url(#h)" fill-rule="evenodd" id="c"/><use width="47.4" height="44.5" xlink:href="#d" id="a"/></defs></svg>