<svg viewBox="0 0 47.415 44.499" xmlns="http://www.w3.org/2000/svg" xmlns:xlink="http://www.w3.org/1999/xlink"><g transform="translate(-376.74 -277.75)"><use transform="translate(376.75 277.75)" width="47.4" height="44.5" xlink:href="#a"/><use transform="translate(387.35 287.05)" width="27.55" height="28.15" xlink:href="#b"/></g><defs><g id="c"><path d="M1.05-21q-.05.25.05.55.2.5.7.75l.2.1.8.15.75-.5.1-.35-.1-.5-.65-.75-.35-.15-.65-.05q-.5.05-.75.45l-.1.3m3.1 3.6q-4-.75-7.75-.1l-.85-3.2q4.75-2.95 9.1 0l-.5 3.3m-7.25-1.85.35.25.3.05.3-.05.35-.25.25-.6q0-.4-.25-.65t-.65-.25l-.65.25-.25.65.25.6" fill="#a17225" fill-rule="evenodd" transform="translate(23.7 22.2)"/><path d="m1.05-21 .1-.3q.25-.4.75-.45l.65.05.35.15.65.75.1.5-.1.35-.75.5-.8-.15-.2-.1q-.5-.25-.7-.75-.1-.3-.05-.55m-4.15 1.75-.25-.6.25-.65.65-.25q.4 0 .65.25t.25.65l-.25.6-.35.25-.3.05-.3-.05-.35-.25" fill="#d19430" fill-rule="evenodd" transform="translate(23.7 22.2)"/><path d="m20.05-6.15-.6-.75h-.05l.4-1.45.9.15-.65 2.05" fill="#9de8e8" fill-rule="evenodd" transform="translate(23.7 22.2)"/><path d="m16.55-5.45-.75-.9.6-.55h2.35l-2.2 1.45m-4.5-.8Q11.3-4.8 8.6-4.65L6.1-5q-5-.55-8.6.9-5.15 3.15-10.85 2.75l-1.75-1.2 1.65-2.3.05-.1.05-.05q.95-1.05 3.1-1.8h20.9l1.4.55m-32 .05.75-.5h3.1l.2.05-3.9.95-.15-.5" fill="#e8e48d" fill-rule="evenodd" transform="translate(23.7 22.2)"/><path d="m13.6-5.4 1.1 1.35 1.05 1.65.75 1.5.1.15.7 2.45.1.8.15 2.05-.05 1.35Q13.8 10 8.4 9l-4-1.05-4.95-.7Q-6 6.95-8.3 9.55q-1.5 1.7-1.65 3.45-.3 2.75 2.7 5.6-2.5-1.1-4.65-3.05l-.7-.7q-3.65-3.65-4.2-8.5l-.15-1.8.15-1.95.3-1.7.4-1.25 1-2.2 1.75 1.2q5.7.4 10.85-2.75Q1.1-5.55 6.1-5l2.5.35q2.7-.15 3.45-1.6l1.55.85m3.45.65-.5-.7 2.2-1.45h.7l.6.75-.3.9-2.7.5m-32.95-1.9.7.25-.85 1.1-.5-.2-2.6 1.85-.65-2.05 3.9-.95" fill="#b5b26e" fill-rule="evenodd" transform="translate(23.7 22.2)"/><path d="m17.9-3.35-.35-.6-.5-.8 2.7-.5L18.7-1.7l-.8-1.65M-7.25 18.6q-3-2.85-2.7-5.6.15-1.75 1.65-3.45 2.3-2.6 7.75-2.3l4.95.7L8.4 9q5.4 1 9.1-3.1-.25 2.95-1.6 5.45-1.25 2.25-3.4 4.2-4.15 3.75-9.7 4.4l-2.5.15q-4.1 0-7.55-1.5m-8.8-23.9q-1.55 2.15-2.3 4.2l-.6-1.85-.2-.7 2.6-1.85.5.2" fill="#94915a" fill-rule="evenodd" transform="translate(23.7 22.2)"/><path d="m4.15-17.4 2.35.6q.75.75.95 1.6.15.75-.25 1.6l-.1.25-1.55-.75-5.5-1-4.75.5-1.9 1.6-.25-.35q-1.2-1.7.45-3.5l2.8-.65q3.75-.65 7.75.1m6.45 6.8-1.4-.7-1.4-.6 1.4.6 1.4.7q1.9 1.1 3.55 2.6l1.65 1.65.75.9.5.7.5.8.35.6-2.15.95-1.05-1.65-1.1-1.35-1.1-1.05q-1.45-1.35-3.1-2.3l-1.25-.6-1.25-.5-.15-.05-.4-.15L4-10.5v-.6h2.65l.65-.95.5.15 13.05-2.9q2.9-.6 2.75 2.7l-1.25 4.2-1.65-.3.7-2.45q.1-2.4-1.95-1.9L10.6-10.6M-13.35-5l-.05.05-.05.1-1.65 2.3-1 2.2-.4 1.25-.3 1.7-.15 1.95.15 1.8q.55 4.85 4.2 8.5l-1.65 1.45q-4.25-4.15-4.9-9.75l-.15-2.05.1-1.9.05-.3.35-1.95.45-1.45q.75-2.05 2.3-4.2l.85-1.1 1.65-1.6 2.25-1.8.05-.05.1-.05L-9-11.1l.35-.15 2.45-.95 1.5 1.1h1.1v.45l-2.3.65-1.65.65-2.35 1.3-2 1.6L-13.35-5m-7.55 2.1-2.7-8.45q-.15-3.3 2.7-2.7l9.9 2.25-1.2.7-5-.75-.45.65-1.6-.4q-1.95-.4-1.85 1.85l1.15 3.55.15.5.65 2.05.2.7-1.95.05" fill="#65cccc" fill-opacity=".502" fill-rule="evenodd" transform="translate(23.7 22.2)"/><path d="m-6.6-13 1.9-1.6 4.75-.5 5.5 1 1.55.75-.75 1 .7.2.25.1-.65.95H4v-2.45q-3.8-1.25-7.6 0v2.45h-1.1l-1.5-1.1.3-.1-.7-.7m27.3 4.8 1.65.3-2.75 9.15-.8-2.8-.1-.15.1.15.8 2.8.15.9.15 2.35q0 4.2-1.9 7.7-1.4 2.6-3.85 4.8Q8.45 22.2.3 22.2q-8.1 0-13.85-5.2l-.7-.7 1.65-1.45.7.7q2.15 1.95 4.65 3.05Q-3.8 20.1.3 20.1l2.5-.15q5.55-.65 9.7-4.4 2.15-1.95 3.4-4.2 1.35-2.5 1.6-5.45l.05-1.35-.15-2.05-.1-.8-.7-2.45-.1-.15-.75-1.5 2.15-.95.8 1.65 1.05-3.55.3-.9.65-2.05M-11-11.8l2.35.55-.35.15-2.15 1.2-.1.05-.05.05-6.35-1.4.45-.65 5 .75 1.2-.7m-7.35 10.7L-18.8.35l-.35 1.95-.1.1-1.65-5.3 1.95-.05.6 1.85" fill="#478f8f" fill-opacity=".502" fill-rule="evenodd" transform="translate(23.7 22.2)"/><path d="m10.6-10.6 8.85-1.95q2.05-.5 1.95 1.9l-.7 2.45-.9-.15-.4 1.45h-3l-.6.55L14.15-8q-1.65-1.5-3.55-2.6M4-11.1v.6l2.35.45.4.15.15.05 1.25.5 1.25.6q1.65.95 3.1 2.3l1.1 1.05-1.55-.85-1.4-.55h-20.9q-2.15.75-3.1 1.8l1.45-1.45 2-1.6 2.35-1.3L-5.9-10l2.3-.65v-.45H4m-15.3 1.3L-13.55-8l-1.65 1.6-.7-.25-.2-.05h-3.1l-.75.5-1.15-3.55q-.1-2.25 1.85-1.85l1.6.4 6.35 1.4" fill="#c2ffff" fill-opacity=".502" fill-rule="evenodd" transform="translate(23.7 22.2)"/><path d="M-3.6-11.1v-2.45q3.8-1.25 7.6 0v2.45h-7.6" fill="#a8dede" fill-opacity=".502" fill-rule="evenodd" transform="translate(23.7 22.2)"/><path d="M31.15 7q-.2-.85-.95-1.6l-2.35-.6q-4-.75-7.75-.1l-2.8.65q-1.65 1.8-.45 3.5l.25.35m13.7-.35.1-.25m.6 1.7 1.4.6 1.4.7 8.85-1.95q2.05-.5 1.95 1.9L44.4 14m1.65.3 1.25-4.2q.15-3.3-2.75-2.7L31.5 10.3l-.5-.15m-3.3.95v.6l2.35.45.4.15.15.05 1.25.5 1.25.6q1.65.95 3.1 2.3l1.1 1.05 1.1 1.35 1.05 1.65m2.15-.95-.35-.6-.5-.8-.5-.7-.75-.9-1.65-1.65q-1.65-1.5-3.55-2.6m-3.5-2.75-.75 1 .7.2.25.1m-20.7 7.1-.05.1-1.65 2.3-1 2.2-.4 1.25-.3 1.7-.15 1.95.15 1.8q.55 4.85 4.2 8.5l.7.7q2.15 1.95 4.65 3.05M41.2 28.1l.05-1.35-.15-2.05-.1-.8-.7-2.45-.1-.15-.75-1.5m4.3-3.75L44.4 14m-.65 2.05-.3.9-1.05 3.55.1.15.8 2.8 2.75-9.15m-4.45 4.55.8 1.65m-22.3-9.4V8.65q3.8-1.25 7.6 0v2.45m-7.6 0v.45l-2.3.65-1.65.65-2.35 1.3-2 1.6-1.45 1.45m-.9 21.3.7.7Q15.9 44.4 24 44.4q8.15 0 13.85-5.2 2.45-2.2 3.85-4.8 1.9-3.5 1.9-7.7l-.15-2.35-.15-.9m-2.1 4.65q-.25 2.95-1.6 5.45-1.25 2.25-3.4 4.2-4.15 3.75-9.7 4.4l-2.5.15q-4.1 0-7.55-1.5M2.8 19.3.1 10.85q-.15-3.3 2.7-2.7l9.9 2.25 2.35.55L17.5 10l.3-.1-.7-.7m-4.7 3.2.05-.05.1-.05 2.15-1.2.35-.15M8.5 15.8l1.65-1.6 2.25-1.8L6.05 11l-1.6-.4q-1.95-.4-1.85 1.85L3.75 16m4.75-.2-.85 1.1q-1.55 2.15-2.3 4.2l-.45 1.45-.35 1.95-.05.3-.1 1.9.15 2.05q.65 5.6 4.9 9.75m-4.1-17.4-.6-1.85m-1.95.05 1.65 5.3.1-.1m0-5.95.2.7m-.2-.7L3.9 16.5l-.15-.5m.75 8.8-.05-.2" fill="none" stroke="#6da6a6" stroke-linecap="round" stroke-linejoin="round" stroke-opacity=".502" stroke-width=".2"/><path d="m35.75 15.95-1.4-.55h-20.9q-2.15.75-3.1 1.8l-.05.05m32.8-1.95h.05l.6.75m-.65-.75h-.65m-2.95.55.6-.55h2.35m-6.7.65 1.55.85M3.75 16l.75-.5h3.1l.2.05.7.25" fill="none" stroke="#94915a" stroke-linecap="round" stroke-linejoin="round" stroke-width=".05"/><path d="m24.75 1.2.1-.3q.25-.4.75-.45l.65.05.35.15.65.75.1.5-.1.35-.75.5-.8-.15-.2-.1q-.5-.25-.7-.75-.1-.3-.05-.55M20.1 4.7l-.85-3.2q4.75-2.95 9.1 0l-.5 3.3M20.6 2.95l-.25-.6.25-.65.65-.25q.4 0 .65.25t.25.65l-.25.6-.35.25-.3.05-.3-.05-.35-.25" fill="none" stroke="#704f19" stroke-linecap="round" stroke-linejoin="round" stroke-width=".05"/><path d="m15.15-13.1 1.8-.05q.85.2 1 .8t-.45 1.2l-1.6.85-1.8.05q-.75-.25-.9-.85t.35-1.15q.6-.6 1.6-.85M19.55-13.9l.8.1.5.6-.1.85q-.2.35-.65.5l-.8-.1q-.4-.25-.5-.7-.1-.4.1-.75l.65-.5M-16.05-2.55q1.25-2.2 3.05-3.2 1.85-1.05 3.15-.3 1.3.8 1.3 2.85.05 2.1-1.2 4.3t-3.15 3.25q-1.75 1.05-3.05.25-1.3-.75-1.4-2.8.05-2.15 1.3-4.35M-21.85-13.6l.8.1q.4.2.5.6.1.45-.1.85-.2.35-.65.5l-.8-.1-.5-.7.1-.75.65-.5M-17.05-12.65l1.65.75q.6.5.5.9-.15.45-.9.55l-1.8-.15q-1-.25-1.6-.75-.6-.45-.45-.9l.85-.55 1.75.15M-8.55-9.8q.6-.6 1.45-.65.8 0 1.4.6t.6 1.4q-.05.85-.65 1.45-.55.55-1.4.6-.8 0-1.4-.6t-.6-1.4q.05-.85.6-1.4M-5.9-16.45l.55.05.3.45q.1.3-.05.55l-.45.35-.55-.1-.35-.45.1-.55.45-.3M-2.2-17.5l1.75.3q.75.3.75.75t-.75.8l-1.75.3-1.7-.3q-.75-.35-.75-.8t.75-.75l1.7-.3" fill="#fff" fill-rule="evenodd" transform="translate(23.7 22.2)"/><path d="M11.7-8.7 14-6.1l.1.3q2.65 10 .3 20.9l-3.3.95v-2.9l-.95 3.15q-9 2-17.8.35-1.6-.35-2.05-.75l-3.75-3.3-.05-.4Q-15.05 1-12.3-8.4l2.5-.55q7.75-1.65 14-.85L7.3-3l1.1-6.3 3.3.6v2.9h2.4-2.4v-2.9M-7.65 8.4v8.25V8.4m-2.05 7.5-.4-4.5-3.4.8 3.4-.8.4 4.5m-1.2-18.25 1.1-6.6-1.1 6.6m21.5 10.5.5 5-.5-5" fill="#edcb8e" fill-rule="evenodd" transform="translate(23.7 22.2)"/><path d="m35.4 13.5 2.3 2.6.1.3q2.65 10 .3 20.9l-3.3.95v-2.9l-.95 3.15q-9 2-17.8.35-1.6-.35-2.05-.75l-3.75-3.3-.05-.4q-1.55-11.2 1.2-20.6l2.5-.55q7.75-1.65 14-.85l3.1 6.8 1.1-6.3 3.3.6v2.9h2.4m-3 18.95-.5-5m-20.4-17.1-1.1 6.6M10.2 34.4l3.4-.8.4 4.5m2.05.75V30.6" fill="none" stroke="#7a5e32" stroke-linecap="round" stroke-linejoin="round" stroke-opacity=".502" stroke-width=".05"/><path d="M2-8.15q1.4.05 1.4 1.4 0 .55-.4 1-.45.5-1.15.5Q.5-5.25.3-6.4H.25q-1.15 0-1.55-.9l-.2-.9q0-1.75 1.75-1.8T2-8.15M9.4-2q0-1.05 1.05-1.05T11.5-2q-.05 1.1-1 1.1-.75 0-1-.5L9.4-2m5.95.6q-.45.5-1.1.5-1 0-1.4-.75l-.2-.85q0-1.5 1.55-1.5t1.55 1.6q0 .55-.4 1m-1.7 10.5-.65.25q-.85 0-1.1-.7l-.05-.45q0-1.1 1.15-1.1 1.1.05 1.1 1.15l-.45.85m-6.6-7.75Q7.5.75 8.5.75q1.75 0 1.75 1.65L9.9 3.5q-.45.65-1.15.75v.3q0 .65-.4 1.1-.45.6-1.35.6-1.2 0-1.65-.9l-.2-.85q0-.7.3-1.1l-.55-.1-.1.15q-.65.8-1.55.8-1.25 0-1.8-1l-.35-1q0-1.9 2.1-2 1 0 1.5.45l.9-.15q1.15 0 1.45.8m-4.2 4.1L2.5 6.6q-.5.75-1.5.75-1.1 0-1.55-.9L-.8 5.5q0-2.05 1.85-1.8 1.8.25 1.8 1.75m4.1 5.5q1.45 0 1.45 1.25-.1.8-.5 1.15l.25.8-.3.85q-.3.4-.85.4-1.4 0-1.25-1.15 0-.55.35-.85-.5-.35-.6-1.2 0-1.25 1.45-1.25m-1.75 3.9q-.5.55-1.35.55Q2 15.4 2 13.75q0-1.7 1.85-1.7 1.8 0 1.8 1.65l-.45 1.15m-15.9-19.7q-.15.35-.8.55l-.6-.5q-.2-.15-.2-.45l.35-.75q.55-.35 1.4.75l-.15.4m7.3-1.55q-.45.6-1.1.6-.85 0-1.15-.7l-.15-.7q0-1.45 1.4-1.3 1.35.2 1.35 1.25 0 .35-.35.85m-2 1.3q1.6 0 1.6 1.8 0 .75-.45 1.25-.5.5-1.25.5-1.15 0-1.45-.9l-.8.15q-1.1 0-1.55-.95l-.25-.95q0-1.95 1.9-1.95 1.4 0 1.75 1.1l.5-.05M-8.55-.75q0-1.1 1.15-1.1 1.1 0 1.1 1.2l-.05.35q1.3.05 1.3 1.6l-.4.95-.55.45q.25.4.25 1.1t-.4 1.2q-.5.65-1.35.65-1.15 0-1.5-.85l-.1-.5-.4.05q-.85 0-1.15-.65l-.15-.7q0-1.35 1.4-1.4.9 0 1.2.6l.15-.05-.25-.9q0-.6.35-.95l-.55-.6-.05-.45M-1.25-4q-.75 0-1.1-.7l-.15-.55q0-1.2 1.25-1.2T0-5.25l-.25.75q-.35.5-1 .5m-8.3 12.5q-.4.4-.95.4l-.8-.2-.45.9q-.55.75-1.5.75-1.1 0-1.55-.9l-.25-.95q0-2.2 1.9-2.05 1.15.1 1.6.85.2-.65 1.1-.7 1.2-.1 1.2 1.05 0 .5-.3.85m.3 2.7q0-1.65 1.75-1.65 1.3 0 1.65.9.25-.6 1.15-.45 1.3.25 1.3 1.25 0 .5-.35.85l-.05.05q.3.4.3 1.1v.05q1.7.1 1.7 1.75 0 .6-.5 1.1-.6.6-1.45.6-1.15 0-1.55-.9l-.2-.85.05-.3-.9-.85-.15-.65.15-.7q-.45.4-1.15.4-.95 0-1.45-.75l-.3-.95m3.4.8-.05-.05-.1.15.15-.1m3.1-1.55q0-1.45 1.3-1.2t1.3 1.25q0 .5-.35.85-.4.4-1 .4-.85 0-1.15-.65l-.1-.65" fill="#b89c6e" fill-opacity=".502" fill-rule="evenodd" transform="translate(23.7 22.2)"/></g><g id="b"><path d="m392.3 287.75.05-.25.05-.45.1.2.2 3.6-.25-.1.25.1.15 2.25.05.3.3 2.25.4 2.7.15.2-.35-.2-1.9-2.1-.15-.15-.2-1.15.65.75.45-2.5.2-2.45q.1-1.7-.15-3m-.05 5.45.65.2-.65-.2m1.15 5.15h.2-.2m-.2-2.7q-.8-.25-1.7.6.9-.85 1.7-.6" fill="#b07742" fill-rule="evenodd" transform="translate(-387.35 -287.05)"/><path d="m394.65 292.2.85 1.8 1.05 5.2q-1.35 1.15-2.95-.85l-.4-2.7-.3-2.25-.05-.3 1.8-.9" fill="#78483d" fill-rule="evenodd" transform="translate(-387.35 -287.05)"/><path d="m391.45 296.2-.05-.1h-.05l.1.1m-.3-1.25-.05-.1.25-1.6.5-2.6.45-2.9q.25 1.3.15 3l-.2 2.45-.45 2.5-.65-.75m.7-4.3.6.1-.6-.1m.4 2.55-.9.05.9-.05" fill="#cc9660" fill-rule="evenodd" transform="translate(-387.35 -287.05)"/><path d="m392.5 287.25 2.15 4.95-1.8.9-.15-2.25-.2-3.6" fill="#59362f" fill-rule="evenodd" transform="translate(-387.35 -287.05)"/><path d="M5 .45 5.05 0l.1.2L7.3 5.15l.85 1.8 1.05 5.2m-2.95-.85.15.2-.35-.2-1.9-2.1-.05-.05-.05-.1H4L3.8 7.9l-.05-.1L4 6.2l.5-2.6.45-2.9m.15 3 .25.1-.2-3.6M5.1 3.7l-.6-.1m1.05 2.75-.65-.2m.6-.1.05.3.3 2.25.4 2.7h-.2m-.7-7.5.15 2.25M4.15 9.2q.9-.85 1.7-.6M4 6.2l.9-.05" fill="none" stroke="#332720" stroke-linecap="round" stroke-linejoin="round" stroke-opacity=".2" stroke-width=".05"/><path d="m409.55 287.5-.1-.45-.1.2-.2 3.6-.15 2.25-.05.3.65-.2-.65.2-.3 2.25q.8-.25 1.7.6-.9-.85-1.7-.6l-.4 2.7-.2.2.35-.2 1.95-2.1.05-.05.15-.1.2-1.15-.7.75-.45-2.5-.2-2.45-.25.1.25-.1q-.1-1.7.2-3l-.05-.25m-1.15 10.85h-.15.15" fill="#b07742" fill-rule="evenodd" transform="translate(-387.35 -287.05)"/><path d="m407.15 292.2-.85 1.8-1.15 5.2q1.4 1.15 3.1-.85l.4-2.7.3-2.25.05-.3-1.85-.9" fill="#78483d" fill-rule="evenodd" transform="translate(-387.35 -287.05)"/><path d="m410.4 296.2.1-.1h.05l-.15.1m.35-1.25.05-.1-.25-1.6-.5-2.6-.45-2.9q-.3 1.3-.2 3l.2 2.45.45 2.5.7-.75m-1.15-1.75.95.05-.95-.05m.45-2.55-.65.1.65-.1" fill="#cc9660" fill-rule="evenodd" transform="translate(-387.35 -287.05)"/><path d="m409.35 287.25-2.2 4.95 1.85.9.15-2.25.2-3.6" fill="#59362f" fill-rule="evenodd" transform="translate(-387.35 -287.05)"/><path d="M22.2.45 22.1 0l-.1.2-2.2 4.95-.85 1.8-1.15 5.2m3.1-.85-.2.2.35-.2L23 9.2l.15-.15h.05l.2-1.15.05-.1-.25-1.6-.5-2.6-.45-2.9m-.6 5.35.15-2.25.25-.1.65-.1m-.45 2.55-.65.2.05-.3M23 9.2q-.9-.85-1.7-.6l.3-2.25m1.6-.15-.95-.05M20.9 11.3h.15m.25-2.7-.4 2.7M22 .2l-.2 3.6" fill="none" stroke="#332720" stroke-linecap="round" stroke-linejoin="round" stroke-opacity=".2" stroke-width=".05"/><path d="M394.3 298.2v-.1h.05q.85-.95 3.15-1.8 1.85-.65 3.55-.65 1.65 0 3.5.65 2.3.85 3.15 1.8h.05v.1q-.1 2.5-3.35 3.2l-3.35-.25-3.4.25q-3.25-.7-3.35-3.2" fill="#a37354" fill-rule="evenodd" transform="translate(-387.35 -287.05)"/><path d="m397.65 301.4 3.4-.25 3.35.25v9.5l-3.25.1h-.25l-3.25-.1v-9.5" fill="#78483d" fill-rule="evenodd" transform="translate(-387.35 -287.05)"/><path d="M394.3 298.2q.1 2.5 3.35 3.2v9.5l-2.75-.75h-.2q-1.85-1.7-2.8-5.1.45-4.2 2.3-6.75l.1-.1m10.1 3.2q3.25-.7 3.35-3.2l.1.1q1.85 2.55 2.3 6.75-.95 3.4-2.8 5.1h-.2l-2.75.75v-9.5" fill="#653434" fill-rule="evenodd" transform="translate(-387.35 -287.05)"/><path d="M20.4 11.15v-.1h-.05q-.85-.95-3.15-1.8-1.85-.65-3.5-.65-1.7 0-3.55.65-2.3.85-3.15 1.8h-.05v.1l-.1.1.1-.2m13.45.1.1.1-.1-.2M20 23.1h-.2l-2.75.75m-6.75 0-2.75-.75h-.2M4.55 18q.45-4.2 2.3-6.75m13.65 0q1.85 2.55 2.3 6.75" fill="none" stroke="#000" stroke-linecap="round" stroke-linejoin="round" stroke-opacity=".451" stroke-width=".05"/><path d="M22.8 18q-.95 3.4-2.8 5.1m-12.65 0Q5.5 21.4 4.55 18" fill="none" stroke="#332720" stroke-linecap="round" stroke-linejoin="round" stroke-opacity=".2" stroke-width=".05"/><path d="m387.35 309.6 2.75-1.2-1.35-2.4 4.75 1.3 1.35 3.25-7.5-.95" fill="#d7cb9f" fill-rule="evenodd" transform="translate(-387.35 -287.05)"/><path d="m390.7 311.25-3.35-1.65 7.5.95-.85 2.65-4.75.8 1.45-2.75" fill="#a79d69" fill-rule="evenodd" transform="translate(-387.35 -287.05)"/><path d="M3.35 24.2 0 22.55m2.75-1.2-1.35-2.4 4.75 1.3L7.5 23.5l-.85 2.65-4.75.8" fill="none" stroke="#000" stroke-linecap="round" stroke-linejoin="round" stroke-opacity=".333" stroke-width=".05"/><path d="m407.25 310.55 1.15-3.75 5-1.4-1.35 2.6 2.85 1.25-7.65 1.3" fill="#d7cb9f" fill-rule="evenodd" transform="translate(-387.35 -287.05)"/><path d="m414.9 309.25-3.45 1.8 1.6 2.95-5.05-.9-.75-2.55 7.65-1.3" fill="#a79d69" fill-rule="evenodd" transform="translate(-387.35 -287.05)"/><path d="m19.9 23.5 1.15-3.75 5-1.4-1.35 2.6m2.85 1.25L24.1 24m1.6 2.95-5.05-.9-.75-2.55z" fill="none" stroke="#000" stroke-linecap="round" stroke-linejoin="round" stroke-opacity=".333" stroke-width=".05"/><path d="m401.25 307.5-.1 2.05 6.85-.35.1-.1.05-.1.75-2.35.2-1.95-.3-1.75q-.4-1.15-1.5-1.65-1.15-.75-2.5-.6-.75.15-1.5.55-1.05.55-1.55 1.65l-.3 1.5-.2 3.1" fill="#542c2c" fill-rule="evenodd" transform="translate(-387.35 -287.05)"/><path d="M406.55 310.35q.95-1.75.65-4.5l-.25-1.6q-2.1-2.65-4.35-1.6l-.45.6-.05.15-.05.05v.05l-.25 1.2q-.1.6-.05 1.25.1 1.1.35 2.2l.3.75 3.9 1.45h.25" fill="#fffbee" fill-rule="evenodd" transform="translate(-387.35 -287.05)"/><path d="m407.75 309.85.05-.1.7-2.4.15-1.95-.25-1.75q-.4-1.15-1.4-1.65-.95-.75-2.15-.6-.7.1-1.4.5-.5.3-.85.75 2.25-1.05 4.35 1.6l.25 1.6q.3 2.75-.65 4.5l.65-.15.5-.3h.05v-.05l-.05.05.05-.05" fill="#dacaa5" fill-rule="evenodd" transform="translate(-387.35 -287.05)"/><path d="M15.25 15.6q.35-.45.85-.75.7-.4 1.4-.5 1.2-.15 2.15.6 1 .5 1.4 1.65l.25 1.75-.15 1.95-.7 2.4-.05.1-.05.05-.5.3-.65.15m-3.95-7.7-.45.6-.05.15-.05.05v.05l-.25 1.2q-.1.6-.05 1.25.1 1.1.35 2.2l.3.75 3.9 1.45h.25m1.2-.5v.05h-.05" fill="none" stroke="#000" stroke-linecap="round" stroke-linejoin="round" stroke-opacity=".302" stroke-width=".05"/><path d="m403.15 308.65.1-.35v-.55l-.1-.35-.35-.15q-.2 0-.35.15-.15.1-.15.35v.55l.15.35.35.1.35-.1" fill-opacity=".922" fill-rule="evenodd" transform="translate(-387.35 -287.05)"/><path d="m400.95 307.75.05 2.05-6.85-.35-.1-.1-.05-.1q-.5-1.2-.65-2.35-.25-1-.15-1.95l.3-1.75q.45-1.15 1.6-1.65 1.15-.75 2.45-.6l1.55.55q1 .55 1.45 1.65l.3 1.5.1 3.1" fill="#542c2c" fill-rule="evenodd" transform="translate(-387.35 -287.05)"/><path d="M395.6 310.6q-.9-1.75-.45-4.5.4-2.8.25-1.6 2.2-2.65 4.45-1.6l.35.6.05.15h.05v.1l.25 1.2v1.25l-.4 2.2-.3.75-3.95 1.45h-.3" fill="#fffbee" fill-rule="evenodd" transform="translate(-387.35 -287.05)"/><path d="m394.4 310.1-.05-.1-.6-2.4-.05-1.95q.05-.95.25-1.75.45-1.15 1.45-1.65 1.05-.75 2.25-.6.7.1 1.35.5l.85.75q-2.25-1.05-4.45 1.6.15-1.2-.25 1.6-.45 2.75.45 4.5l-.6-.15-.5-.3h-.1v-.05l.1.05-.1-.05" fill="#dacaa5" fill-rule="evenodd" transform="translate(-387.35 -287.05)"/><path d="m12.5 15.85-.85-.75q-.65-.4-1.35-.5-1.2-.15-2.25.6-1 .5-1.45 1.65-.2.8-.25 1.75l.05 1.95.6 2.4.05.1.1.05.5.3.6.15m4.25-7.7.35.6.05.15h.05v.1l.25 1.2v1.25l-.4 2.2-.3.75-3.95 1.45h-.3m-1.2-.5v.05h.1" fill="none" stroke="#000" stroke-linecap="round" stroke-linejoin="round" stroke-opacity=".302" stroke-width=".05"/><path d="m399.1 308.6-.1-.35v-.55l.1-.35q.15-.15.35-.15l.35.15.15.35v.55l-.15.35-.35.1-.35-.1" fill-opacity=".922" fill-rule="evenodd" transform="translate(-387.35 -287.05)"/><path d="M404.55 313.1h-.4l-3.25.25h-.05l-3.25-.25h-.4l-.4-1.35 3.25.3.8.1h.05l.85-.1 3.2-.3-.4 1.35" fill="#f6f3ed" fill-rule="evenodd" transform="translate(-387.35 -287.05)"/><path d="m406.5 311.5-.7 1.2v.05l-.3.1-.2.05-.65.15-.1.05.4-1.35 1.55-.25m-9.3 1.6-.1-.05-.65-.15-.2-.05-.25-.1v-.05q-.65-.6-.75-1.2l1.55.25.4 1.35" fill="#d6d0a0" fill-rule="evenodd" transform="translate(-387.35 -287.05)"/><path d="M405.8 312.7v.05-.05m-9.8.05h-.05l.05-.05v.05" fill="#bd8839" fill-rule="evenodd" transform="translate(-387.35 -287.05)"/><path d="M408.05 308.25h.15l.35.1q1.5 1.4.75 3.85-1.85 2.75-8.4 2.6h-.05q-6.55.15-8.4-2.6-.75-2.45.75-3.85l.35-.1h.15q2.3 1.4 7.15 1.35h.05q4.8 0 7.15-1.35m-.55 4.1h.05v-.05q.6-.6.5-1.6-.9-1.45-1.85-.85l-.65.3-4.65.4h-.05l-4.65-.4-.65-.3q-.95-.6-1.85.85-.1 1 .5 1.6v.05h.05q2.55 1.75 6.6 1.7h.05q4.05.05 6.6-1.7" fill="#e1a66a" fill-rule="evenodd" transform="translate(-387.35 -287.05)"/><path d="M405.8 312.75v-.05l.7-1.2q.2-.85-.3-1.65.95-.6 1.85.85.1 1-.5 1.6v.05h-.05l-1.7.4m-9.85 0-1.7-.4h-.05v-.05q-.6-.6-.5-1.6.9-1.45 1.85-.85-.45.8-.3 1.65.1.6.75 1.2l-.05.05" fill="#b07e35" fill-rule="evenodd" transform="translate(-387.35 -287.05)"/><path d="m405.8 312.75 1.7-.4q-2.55 1.75-6.6 1.7h-.05q-4.05.05-6.6-1.7l1.7.4h.05l.25.1.2.05.65.15.1.05h.4l3.25.25h.05l3.25-.25h.4l.1-.05.65-.15.2-.05.3-.1" fill="#eabe95" fill-rule="evenodd" transform="translate(-387.35 -287.05)"/><path d="M406.2 309.85q.5.8.3 1.65l-1.55.25.6-1.6.65-.3m-10.65 0 .65.3.6 1.6-1.55-.25q-.15-.85.3-1.65" fill="#c2bb78" fill-rule="evenodd" transform="translate(-387.35 -287.05)"/><path d="m405.55 310.15-.6 1.6-3.2.3-.85.1h-.05l-.8-.1-3.25-.3-.6-1.6 4.65.4h.05l4.65-.4" fill="#dfdbb9" fill-rule="evenodd" transform="translate(-387.35 -287.05)"/><path d="m393.7 308.25.95.05 6.2.6 6.25-.6.95-.05q-2.35 1.35-7.15 1.35h-.05q-4.85.05-7.15-1.35" fill="#efd0b1" fill-rule="evenodd" transform="translate(-387.35 -287.05)"/><path d="M409.3 312.2q-.7 2.4-6.35 2.85l-2.05.15-2.1-.15q-5.65-.45-6.35-2.85 1.85 2.75 8.4 2.6h.05q6.55.15 8.4-2.6" fill="#d88738" fill-rule="evenodd" transform="translate(-387.35 -287.05)"/><path d="m17.6 24.7 1.55-.25m-11.25 0 1.55.25m8.15 0-3.2.3-.85.1h-.05l-.8-.1-3.25-.3" fill="none" stroke="#000" stroke-linecap="round" stroke-linejoin="round" stroke-opacity=".212" stroke-width=".25"/><path d="m20.85 21.2.35.1q1.5 1.4.75 3.85-.7 2.4-6.35 2.85l-2.05.15-2.1-.15q-5.65-.45-6.35-2.85-.75-2.45.75-3.85l.35-.1m.15 0 .95.05 6.2.6 6.25-.6.95-.05" fill="none" stroke="#000" stroke-linecap="round" stroke-linejoin="round" stroke-opacity=".412" stroke-width=".05"/><path d="m18.85 22.8-.65.3m-9.35 0-.65-.3m.65.3 4.65.4h.05l4.65-.4" fill="none" stroke="#000" stroke-linecap="round" stroke-linejoin="round" stroke-opacity=".212" stroke-width=".05"/><path d="m11 24.4-.1.9m5.45-1.15-.05.8m-2.25-.55-.05.9" fill="none" stroke="#000" stroke-linecap="round" stroke-linejoin="round" stroke-opacity=".6" stroke-width=".5"/><path d="M399.4 309.55q.4-1.65 2-2.7l1.5 2.55-3.5.15m1.05-.45v-.4.4m1.3-.1v-.3.3" fill="#e4b978" fill-rule="evenodd" transform="translate(-387.35 -287.05)"/><path d="M14.4 21.65v.3m-1.3-.3v.4" fill="none" stroke="#000" stroke-linecap="round" stroke-linejoin="round" stroke-opacity=".451" stroke-width=".5"/><path d="m14.05 19.8 1.5 2.55-3.5.15" fill="none" stroke="#000" stroke-linecap="round" stroke-linejoin="round" stroke-opacity=".412" stroke-width=".05"/><path d="m398.7 294.75-.1-.1.1.1" fill="#7b5237" fill-rule="evenodd" transform="translate(-387.35 -287.05)"/><path d="m398.65 294.7.05.05q3.05 1 3.5 1.8l-1.2-.2-3.3.35h-.55l2-1.05-.5-.9v-.05m3.5-.25 1.05-.2 1.15 2.05-.65-.75-.3-.35-1.25-.75" fill="#78483d" fill-rule="evenodd" transform="translate(-387.35 -287.05)"/><path d="m397.7 296.7 3.3-.35 1.2.2q-.45-.8-3.5-1.8l.85-.15q4.35.75 4.9 1.85.3 2.3-6.75.25" fill="#b3754e" fill-rule="evenodd" transform="translate(-387.35 -287.05)"/><path d="m11.35 7.7.85-.15q4.35.75 4.9 1.85m-2.3-2 1.25.75.3.35.65.75-1.15-2.05-1.05.2" fill="none" stroke="#000" stroke-linecap="round" stroke-linejoin="round" stroke-opacity=".302" stroke-width=".05"/></g><use width="47.4" height="44.5" xlink:href="#c" id="a"/></defs></svg>