<svg width="95" height="120" viewBox="216.45 119.05 95 119.75" xmlns="http://www.w3.org/2000/svg" xmlns:xlink="http://www.w3.org/1999/xlink"><defs><g id="a"><path d="m234.2 121.45 2.4-.35 4.85-.55q24.2-1.5-5.75 8.45 0-5-15.45-4.1 7-2.25 13.95-3.45m55.5 14.45q4.15-1.95 7.35-6-.65-3.25-3.85-5.65 4.95 2.15 8.4 5.25-5.15 4.25-11.9 6.4m-26.75-5.4-2.65-.2q-1.9-1.6 1-2.15-.8 1.35 1.65 2.35"/><path d="M216.65 127.65q.65-1.5 3.6-2.75 3.5-1.55 10.1-2.8l3.85-.65q-6.95 1.2-13.95 3.45 15.45-.9 15.45 4.1 29.95-9.95 5.75-8.45l22.5-1.05 3 .05 13.8.6 6.4.45 10.4 1.5q13.9 2.65 13.9 6.4v.05q-.1 3.7-13 8t-32.5 4.45-33.7-4.1l-5.6-1.85q-6.1-2.2-8.5-4.05l-1.45-1.5-.05-.1v-1.75m73.05 8.25q6.75-2.15 11.9-6.4-3.45-3.1-8.4-5.25 3.2 2.4 3.85 5.65-3.2 4.05-7.35 6m2.95-5.55q0-2.5-8-4.25t-19.35-1.75-19.35 1.75-8 4.25 8 4.25 19.35 1.75 19.35-1.75 8-4.25" fill="#333"/><path d="m311.45 128.55-.5 3.65q-3.6 3.2-9.25 6.45-4 3.05-9 5.1-8.6 2.3-19.25 2.95l-3.6.15q-27.45.95-53.2-10.85 1-4.45.05-6.5l1.45 1.5q.7 4.2 4.05 5.75-1.45-2.25 4.45-1.7 10.2 5.8 21.65 8.6 12.8 2.3 25.15 3.05-5.7-.95-7.5-5.7 19.6-.15 32.5-4.45t13-8m-51.15 1.75-1.05-.2q-1.8-.35-1.8-.85t1.8-.9l2.05-.25 2.35-.1 1.15.05 3.2.3q1.85.4 1.85.9t-1.85.85l-3.2.4H262.95q-2.45-1-1.65-2.35-2.9.55-1 2.15m1-2.2v.05-.05.05-.05" fill="#ccc"/><path d="M310.95 132.2q.5.85.5 2.8-7.55 5.8-18.75 8.75 5-2.05 9-5.1 5.65-3.25 9.25-6.45M272.7 237.4q-6.85 1-14 0-8.85-.55-17.7-2.6-19.8-2.95-24.35-8.8 12.2 5.9 24.35 8.8l11.45 1.35H252.6l6.1 1.25 8.3.1 5.7-.1M218.15 131q2.4 1.85 8.5 4.05l5.6 1.85q14.1 4.25 33.7 4.1 1.8 4.75 7.5 5.7-12.35-.75-25.15-3.05-11.45-2.8-21.65-8.6-5.9-.55-4.45 1.7-3.35-1.55-4.05-5.75m34.85-.3q4.75 1.55 10.9 2.1 7.95.9 16.05-.25-8.55 1.5-17.5 1.5-5.1-1.15-9.45-3.35" fill="#999"/><path d="M292.65 130.35q0 2.5-8 4.25t-19.35 1.75-19.35-1.75-8-4.25 8-4.25 19.35-1.75 19.35 1.75 8 4.25m-39.65.35-2.55-1 2.55 1q4.35 2.2 9.45 3.35 8.95 0 17.5-1.5-8.1 1.15-16.05.25-6.15-.55-10.9-2.1m11.8-2.65-1.15-.05-2.35.1-2.05.25q-1.8.4-1.8.9t1.8.85l1.05.2 2.65.2h2.95l4.35-.4q1.85-.35 1.85-.85t-1.85-.9l-4.35-.35-1.1.05" fill="#666"/><path d="M252.45 236.15v-.05h.05l.1.05H252.45m.1 0-.05-.05.05.05" fill="#900"/><path d="m223.95 206.8.15.3h-.1l-.05-.3" fill="#933"/><path d="M311.45 135q-2.4 48.15 0 92.5-8.75 4.6-18.05 6.95-9 1.95-20.45 2.9l-.25.05-5.7.1-8.3-.1-6.1-1.25-.1-.05h-.05v.05L241 234.8q-12.15-2.9-24.35-8.8 2.85-45 0-90 25.75 11.8 53.2 10.85l3.6-.15q10.65-.65 19.25-2.95 11.2-2.95 18.75-8.75m-90.15 13.3q4.15-2.75 35.05 2.75-18.85-3.9-35.3-9.5-1.75 5.25.25 6.75m82.45 3.7 2.55 8.35-2.55-8.35m2.55 8.35 1.4 5.2 1.3 5.2q.95-12.55-2.05-26.2l-43.45 7 15.45-.95q13.05-2.25 26.1-1.65.1 6.05 1.25 11.4m1.25 43.5q-5.6 19.8-22.9 28.5 5.75-2.2 11.3-3.7l3.2-.85q2-1.75 3.8-2.5 2.1-2.3 2.6-6 3.15-.15 3.25-8.65l-.2-9.1-1.05 2.3m-83.6 2.95q-4.05-9.75-4.55-20.5-.95 20 0 38.5 16.3 7.95 33.05 11.3l-14-7.95q-6.85-2.25-13.15-7.35-2-6.85-1.3-13.7h.1l-.15-.3" fill="#ffc"/><path d="m252.5 236.1.1.05-.1-.05" fill="#fc9"/><path d="M221.3 148.3q-2-1.5-.25-6.75 16.45 5.6 35.3 9.5-30.9-5.5-35.05-2.75m85 12.05q-1.15-5.35-1.25-11.4-13.05-.6-26.1 1.65l-15.45.95 43.45-7q3 13.65 2.05 26.2l-1.3-5.2-1.4-5.2m1.25 43.5 1.05-2.3.2 9.1q-.1 8.5-3.25 8.65-.5 3.7-2.6 6-1.8.75-3.8 2.5l-3.2.85q-5.55 1.5-11.3 3.7 17.3-8.7 22.9-28.5m-55.1 32.25q-16.75-3.35-33.05-11.3-.95-18.5 0-38.5.5 10.75 4.55 20.5l.05.3q-.7 6.85 1.3 13.7 6.3 5.1 13.15 7.35l14 7.95" fill="#f96"/><path d="m234.2 121.45 2.4-.35 4.85-.55m-7.25.9q-6.95 1.2-13.95 3.45 15.45-.9 15.45 4.1 29.95-9.95 5.75-8.45m48.25 15.35q6.75-2.15 11.9-6.4-3.45-3.1-8.4-5.25 3.2 2.4 3.85 5.65-3.2 4.05-7.35 6m-39.25-6.2 2.55 1q4.75 1.55 10.9 2.1 7.95.9 16.05-.25-8.55 1.5-17.5 1.5-5.1-1.15-9.45-3.35m9.95-.2-2.65-.2q-1.9-1.6 1-2.15v-.05m0 .05v-.05m0 .05q-.8 1.35 1.65 2.35m-10.5 105.6h.05l.1.05m-.1-.05.05.05M224 207.1l-.05-.3" fill="none" stroke="#000" stroke-width=".5"/><path d="M216.65 127.65q.65-1.5 3.6-2.75 3.5-1.55 10.1-2.8l3.85-.65m7.25-.9 22.5-1.05 3 .05 13.8.6 6.4.45 10.4 1.5q13.9 2.65 13.9 6.4v.05l-.5 3.65q.5.85.5 2.8-2.4 48.15 0 92.5-7.2 4.5-18.05 6.95-10.05 2.45-20.7 2.95-6.85 1-14 0-8.85-.55-17.7-2.6-19.8-2.95-24.35-8.8 2.85-45 0-90 1-4.45.05-6.5l-.05-.1-.2-.9.2-.85v1.75m.05.1 1.45 1.5q2.4 1.85 8.5 4.05l5.6 1.85q14.1 4.25 33.7 4.1t32.5-4.45 13-8m-18.75 15.2q11.2-2.95 18.75-8.75m-94.8 1q25.75 11.8 53.2 10.85l3.6-.15q10.65-.65 19.25-2.95m-20 93.65.25-.05q11.45-.95 20.45-2.9 9.3-2.35 18.05-6.95m-58.85 8.65 6.1 1.25 8.3.1 5.7-.1m-20.1-1.25H252.45L241 234.8q-12.15-2.9-24.35-8.8" fill="none" stroke="#000" stroke-width=".5"/><path d="m306.3 160.35-2.55-8.35" fill="none" stroke="#d4d0c8" stroke-width=".5"/><path d="M295.4 184.55q-5.7-1.75-10.9.75h-.05l-.05.05q-2.75 1.35-5.35 3.85l-1.2.8-.2-.05h-.1l-.45.05q-.05-.15.65-.95 1.2-1.45 7.15-4.8l.55-.6 1.75-.75.4-.2 1.75-.2q4.55.8 6.05 2.05m-17.6 5.5-1.9 1.4q-1.4-.85-2.75-1.2l4.65-.2" fill="#996"/><path d="M293.75 182.55h.5l2.25 2.4q-.55-.25-1.1-.4-1.5-1.25-6.05-2.05l4.4.05m-25.25 8.05q-1.85.75-3.6 2.7l-.1-.1.05-.35.2-1.35.2-.6q2.1-1.4 3.25-.3m32.55-22.4h-1.2l-5.05-.75q-1.25-.35-1.35-3.1-.05-2.8.9-3.6 1-.85 3-1.55t6.3.85 1.2 1.55q-2.65-.05-2.3 2.5-.95-.9-2.1-1.1-1.2-.25-1.05 1.7l-.1 2.35q-.2.4.55.7l1.2.45m-7.65 5.3v.05l.25-.2-.25.15m-.9.7-.2.3-.1-.05.1.05q-5.55 5.05.4 2.9-3.95 1.7-7.75 3.9l-7.7 4.8-.05-.05 15-11.6.3-.25m-16.4 13.15h.05l-.05.05-.8.1.8-.15m9.35-3.7-.55.6q-5.95 3.35-7.15 4.8-.7.8-.65.95-8.45 1.15 8.35-6.35" fill="#cc9"/><path d="M304.7 175.05q-4.4 2.3-8.3-3.9 8.85 7.2 6.8 0 4.1 3.9 1.5 3.9m-11.3-1.5q-.45.1-.9.65l-.3.25q-1-.7.9-2.45t1.1-.7q-1.7 2.3-.55 2.05l-.25.2" fill="#630"/><path d="m302.55 164.1 2.45-.15q1.9-.25 2.2 1.35.25 1.6-.4 2.7-.7 1.15-2.5 1.35-1.8.25-3.25-1.15l-1.2-.45q-.75-.3-.55-.7l.1-2.35q-.15-1.95 1.05-1.7 1.15.2 2.1 1.1" fill="#fff"/><path d="M295.6 176.3q-8.4 4.15-6.15 5.2 2.05 1 4.3 1.05l-4.4-.05-1.75.2-.4.2-1.75.75q-16.8 7.5-8.35 6.35l.45-.05h.1l.2.05 1.2-.8-1.25.85.05-.05-.05.05.05-.05-.05.05-4.65.2-1.65-.2q-1.95-1.1-3 .55-1.15-1.1-3.25.3.95-2.25 4.05-3.35 1.4.9 4.6 1l1.4-1.05 1.95-1.4 7.7-4.8q3.8-2.2 7.75-3.9l1.3-.5.2-.1 1.1-.45.25-.1.05.05m-32.5 1.95.15.35-.25-.3.1-.05m1.8 3.4 1.25 1.5.3.3-1 1.1q-.1-1.55-.55-2.9m11.2 5.7-.8.15.8-.1.05-.05h-.05" fill="#ffc"/><path d="m277.2 186.05.05.05-1.95 1.4 1.9-1.45" fill="#fcc"/><path d="m295.75 176.2-.15.1-.05-.05.3-.15-.1.1v-.05.05" fill="#c93"/><path d="M262.95 195.65q-4.2 5-9.85 4.85-5.2-.2-11.7-4.8 6.85 1.9 11.7 2.2 6.95.45 9.85-2.25" fill="#fc6"/><path d="m251 206.2-.1-.05.05-.05.05.1" fill="#ff9"/><path d="m243.85 204.4-.85.05.85-.15v.1m21.95-7.9.05-.1-.05.1m-.25 3.9h-.05.05m-14.65 5.75.05-.05-.05.05" fill="#f93"/><path d="M250.9 206.15q-.9-.5-2.35-1.05-1.95-.7-4.7-.7v-.1q6.7-1.05-.85-2.9l-3.7-.4q-7.65-1.35-11.5-6.85l-5.9.15q.4-1.1 1.5-2.45l2.8-3.55.3-.45 2.5-4.25-.65 2.8q-1.7 6.05 3 7.7 7.6 2.45 17.1 6.9 4.7 2.15 9.45 0 5.3-1.85 7.4-4-2.5 2.75-.55 3.25-5.1-.55-9.75 3-9.65-1.25-4.05 2.85l-.05.05m12.35-27.55q1.1 1.4 1.65 3.05.45 1.35.55 2.9v.9q0 4.25-3.65 3.7t-5.95 2.85q-1.6 2.3-2.75 2.3-.5-.05-.95-.55l-1.7-2.1q-3.1 1.25-2.65-1.15 3.65-1.3 5.3-2.85 2.9-2.65 0-5.9l-1.65-1.6-2.25-1.9q-.1-1.15-1.3-2.45-.7-.75-1.35-1.1-.15-1.05 1.6-1.2 2.55-.3 4.95 0l3.45.7q4 1.1 6.45 4.1l.25.3" fill="#300"/><path d="m265.85 196.4.4.8q.75 1.5-.7 3.2-1.25 1.4-4.05 3l-2.4.35-2.75.4q-1.1.4-1.1.95-1.15 2.75-4.25 1.1l-.05-.1q-5.6-4.1 4.05-2.85 4.65-3.55 9.75-3-1.95-.5.55-3.25l.5-.5.05-.1M243 204.45q-2.2.05-3.8.65l-1.7.55q-2.45-3.1-4.4-4.45l-.3-.2q-1.85-1.35-2.75-2.45-.95-1.2-2.25-1.2t-2.2 1.2q-5.05-.9-3.7-4.25l5.9-.15q3.85 5.5 11.5 6.85l3.7.4q7.55 1.85.85 2.9l-.85.15m22.55-4.05h-.05.05" fill="#900"/><path d="m263.1 178.25-.1.05.1-.05" fill="#600"/><path d="M264.8 193.35q0 .95 1.05 3.05l-.05.1-.5.5q-2.1 2.15-7.4 4-4.75 2.15-9.45 0-9.5-4.45-17.1-6.9-4.7-1.65-3-7.7l.65-2.8q1.05-2.75 4.8-2.55.9-2.45 4.1-5.45 3.2-3.1 9.5-3.85 3.1-.4 5.7.1 2.7.45 4.9 1.85 3.9 2.4 5.1 4.55l-.1.05q-2.45-3-6.45-4.1l-3.45-.7q-2.4-.3-4.95 0-1.75.15-1.6 1.2.65.35 1.35 1.1 1.2 1.3 1.3 2.45l2.25 1.9 1.65 1.6q2.9 3.25 0 5.9-1.65 1.55-5.3 2.85-.45 2.4 2.65 1.15l1.7 2.1q.45.5.95.55 1.15 0 2.75-2.3 2.3-3.4 5.95-2.85t3.65-3.7v-.9l1-1.1q2.65 2.7 2.85 4.1-3.1 1.1-4.05 3.35l-.2.6-.2 1.35-.05.35v.15m-1.85 2.3q-2.9 2.7-9.85 2.25-4.85-.3-11.7-2.2 6.5 4.6 11.7 4.8 5.65.15 9.85-4.85"/><path d="M292.7 171.65q-2.35-4.15-2.35-6.5 0-2.9 2.75-4.9 1.65-1.25 3.75-1.75l2.8-.3q3.9 0 6.6 2.05 2.75 2 2.75 4.9 0 2.85-2.75 4.9l-.45.3q3.6 6.05-.85 6.75l-9.2-.9.1-.1-.3.15-.25.1-1.1.45-.2.1-1.3.5q-5.95 2.15-.4-2.9l1.1-1 .25-.15q-1.15.25.55-2.05.8-1.05-1.1.7t-.9 2.45l-15 11.6-1.9 1.45-1.4 1.05q-3.2-.1-4.6-1-.2-1.4-2.85-4.1 2.75 2.6 7.05 3.2 10.55-6.35 19.2-15m9.85-7.55q-.35-2.55 2.3-2.5 3.1 0-1.2-1.55t-6.3-.85-3 1.55q-.95.8-.9 3.6.1 2.75 1.35 3.1l5.05.75h1.2q1.45 1.4 3.25 1.15 1.8-.2 2.5-1.35.65-1.1.4-2.7-.3-1.6-2.2-1.35l-2.45.15m2.15 10.95q2.6 0-1.5-3.9 2.05 7.2-6.8 0 3.9 6.2 8.3 3.9" fill="#663"/><path d="M292.7 171.65q-2.35-4.15-2.35-6.5 0-2.9 2.75-4.9 1.65-1.25 3.75-1.75l2.8-.3q3.9 0 6.6 2.05 2.75 2 2.75 4.9 0 2.85-2.75 4.9l-.45.3q3.6 6.05-.85 6.75l-9.2-.9v-.05m-2.35-2.65v.05q-.45.1-.9.65l-.2.3-.1-.05" fill="none" stroke="#000" stroke-opacity=".361"/><path d="m295.75 176.2-.15.1q-8.4 4.15-6.15 5.2 2.05 1 4.3 1.05h.5l2.25 2.4q-.55-.25-1.1-.4-5.7-1.75-10.9.75h-.05l-.05.05q-2.75 1.35-5.35 3.85m-1.25.85-1.9 1.4q-1.4-.85-2.75-1.2l-1.65-.2q-1.95-1.1-3 .55-1.85.75-3.6 2.7l-.1.05q0 .95 1.05 3.05l.4.8q.75 1.5-.7 3.2-1.25 1.4-4.05 3l-2.4.35-2.75.4q-1.1.4-1.1.95-1.15 2.75-4.25 1.1l-.1-.05q-.9-.5-2.35-1.05-1.95-.7-4.7-.7l-.85.05q-2.2.05-3.8.65l-1.7.55q-2.45-3.1-4.4-4.45l-.3-.2q-1.85-1.35-2.75-2.45-.95-1.2-2.25-1.2t-2.2 1.2q-5.05-.9-3.7-4.25.4-1.1 1.5-2.45l2.8-3.55.3-.45 2.5-4.25q1.05-2.75 4.8-2.55.9-2.45 4.1-5.45 3.2-3.1 9.5-3.85 3.1-.4 5.7.1 2.7.45 4.9 1.85 3.9 2.4 5.1 4.55l.15.35q1.1 1.4 1.65 3.05l1.25 1.5.3.3q2.75 2.6 7.05 3.2 10.55-6.35 19.2-15m-.4 2.85 1.1-1 .25-.15m-1.45 1.1-15 11.6m.05.05 7.7-4.8q3.8-2.2 7.75-3.9-5.95 2.15-.4-2.9m3.45 1.65-.2.1m-2.85 1.15 1.3-.5.2-.1 1.1-.45.25-.1m.2-.1.1-.05-.1.1m-20.45 11.3-1.4 1.05q-3.2-.1-4.6-1-3.1 1.1-4.05 3.35l-.2.6-.2 1.35-.05.35v.15m1.65-9.9q2.65 2.7 2.85 4.1m8.55 2.45 1.2-.8m-1.25.85.05-.05-.05.05m-.55-3.95-1.95 1.4 1.9-1.45m-11.4 10.45.05-.1m-.05.1.05-.1m-14.95 9.75.05-.05" fill="none" stroke="#000" stroke-opacity=".361"/><path d="M253.7 142.85v95.95q-15.4-.9-31.9-6.05V135.8q15.3 5.8 31.9 7.05" fill="#fff" fill-opacity=".424"/><path d="M308.4 136.8q-3.85 46.35 0 91.95-6.5 3.7-15.2 6.25v-91.1q8-2.25 15.2-7.1" fill-opacity=".431"/></g></defs><use xlink:href="#a"/></svg>