<svg viewBox="0 0 95.05 119.32" xmlns="http://www.w3.org/2000/svg" xmlns:xlink="http://www.w3.org/1999/xlink"><use transform="translate(.03 .02)" width="95" height="119.3" xlink:href="#a"/><defs><g id="a"><path d="m234.2 121.45 2.4-.35 4.85-.55q24.2-1.5-5.75 8.45 0-5-15.45-4.1 7-2.25 13.95-3.45m55.5 14.45q4.15-1.95 7.35-6-.65-3.25-3.85-5.65 4.95 2.15 8.4 5.25-5.15 4.25-11.9 6.4m-26.75-5.4-2.65-.2q-1.9-1.6 1-2.15-.8 1.35 1.65 2.35" fill-rule="evenodd" transform="translate(-216.45 -119.5)"/><path d="M216.65 127.65q.65-1.5 3.6-2.75 3.5-1.55 10.1-2.8l3.85-.65q-6.95 1.2-13.95 3.45 15.45-.9 15.45 4.1 29.95-9.95 5.75-8.45l22.5-1.05 3 .05 13.8.6 6.4.45 10.4 1.5q13.9 2.65 13.9 6.4v.05q-.1 3.7-13 8t-32.5 4.45-33.7-4.1l-5.6-1.85q-6.1-2.2-8.5-4.05l-1.45-1.5-.05-.1v-1.75m73.05 8.25q6.75-2.15 11.9-6.4-3.45-3.1-8.4-5.25 3.2 2.4 3.85 5.65-3.2 4.05-7.35 6m2.95-5.55q0-2.5-8-4.25t-19.35-1.75-19.35 1.75-8 4.25 8 4.25 19.35 1.75 19.35-1.75 8-4.25" fill="#333" fill-rule="evenodd" transform="translate(-216.45 -119.5)"/><path d="m311.45 128.55-.5 3.65q-3.6 3.2-9.25 6.45-4 3.05-9 5.1-8.6 2.3-19.25 2.95l-3.6.15q-27.45.95-53.2-10.85 1-4.45.05-6.5l1.45 1.5q.7 4.2 4.05 5.75-1.45-2.25 4.45-1.7 10.2 5.8 21.65 8.6 12.8 2.3 25.15 3.05-5.7-.95-7.5-5.7 19.6-.15 32.5-4.45t13-8m-51.15 1.75-1.05-.2q-1.8-.35-1.8-.85t1.8-.9l2.05-.25 2.35-.1 1.15.05 3.2.3q1.85.4 1.85.9t-1.85.85l-3.2.4h-1.85q-2.45-1-1.65-2.35-2.9.55-1 2.15m1-2.2v.05-.05.05-.05" fill="#ccc" fill-rule="evenodd" transform="translate(-216.45 -119.5)"/><path d="M310.95 132.2q.5.85.5 2.8-7.55 5.8-18.75 8.75 5-2.05 9-5.1 5.65-3.25 9.25-6.45M272.7 237.4q-6.85 1-14 0-8.85-.55-17.7-2.6-19.8-2.95-24.35-8.8 12.2 5.9 24.35 8.8l11.45 1.35h.15l6.1 1.25 8.3.1 5.7-.1M218.15 131q2.4 1.85 8.5 4.05l5.6 1.85q14.1 4.25 33.7 4.1 1.8 4.75 7.5 5.7-12.35-.75-25.15-3.05-11.45-2.8-21.65-8.6-5.9-.55-4.45 1.7-3.35-1.55-4.05-5.75m34.85-.3q4.75 1.55 10.9 2.1 7.95.9 16.05-.25-8.55 1.5-17.5 1.5-5.1-1.15-9.45-3.35" fill="#999" fill-rule="evenodd" transform="translate(-216.45 -119.5)"/><path d="M292.65 130.35q0 2.5-8 4.25t-19.35 1.75-19.35-1.75-8-4.25 8-4.25 19.35-1.75 19.35 1.75 8 4.25m-27.85-2.3-1.15-.05-2.35.1-2.05.25q-1.8.4-1.8.9t1.8.85l1.05.2 2.65.2h2.95l4.35-.4q1.85-.35 1.85-.85t-1.85-.9l-4.35-.35-1.1.05M253 130.7l-2.55-1 2.55 1q4.35 2.2 9.45 3.35 8.95 0 17.5-1.5-8.1 1.15-16.05.25-6.15-.55-10.9-2.1" fill="#666" fill-rule="evenodd" transform="translate(-216.45 -119.5)"/><path d="M252.45 236.15v-.05h.05l.1.05h-.15m.1 0-.05-.05.05.05" fill="#900" fill-rule="evenodd" transform="translate(-216.45 -119.5)"/><path d="m223.95 206.8.15.3h-.1l-.05-.3" fill="#933" fill-rule="evenodd" transform="translate(-216.45 -119.5)"/><path d="M311.45 135q-2.4 48.15 0 92.5-8.75 4.6-18.05 6.95-9 1.95-20.45 2.9l-.25.05-5.7.1-8.3-.1-6.1-1.25-.1-.05h-.05v.05L241 234.8q-12.15-2.9-24.35-8.8 2.85-45 0-90 25.75 11.8 53.2 10.85l3.6-.15q10.65-.65 19.25-2.95 11.2-2.95 18.75-8.75m-90.15 13.3q4.15-2.75 35.05 2.75-18.85-3.9-35.3-9.5-1.75 5.25.25 6.75m85 12.05 1.4 5.2 1.3 5.2q.95-12.55-2.05-26.2l-43.45 7 15.45-.95q13.05-2.25 26.1-1.65.1 6.05 1.25 11.4l-2.55-8.35 2.55 8.35m1.25 43.5q-5.6 19.8-22.9 28.5 5.75-2.2 11.3-3.7l3.2-.85q2-1.75 3.8-2.5 2.1-2.3 2.6-6 3.15-.15 3.25-8.65l-.2-9.1-1.05 2.3m-83.6 2.95q-4.05-9.75-4.55-20.5-.95 20 0 38.5 16.3 7.95 33.05 11.3l-14-7.95q-6.85-2.25-13.15-7.35-2-6.85-1.3-13.7h.1l-.15-.3" fill="#ffc" fill-rule="evenodd" transform="translate(-216.45 -119.5)"/><path d="m252.5 236.1.1.05-.1-.05" fill="#fc9" fill-rule="evenodd" transform="translate(-216.45 -119.5)"/><path d="M221.3 148.3q-2-1.5-.25-6.75 16.45 5.6 35.3 9.5-30.9-5.5-35.05-2.75m85 12.05q-1.15-5.35-1.25-11.4-13.05-.6-26.1 1.65l-15.45.95 43.45-7q3 13.65 2.05 26.2l-1.3-5.2-1.4-5.2m1.25 43.5 1.05-2.3.2 9.1q-.1 8.5-3.25 8.65-.5 3.7-2.6 6-1.8.75-3.8 2.5l-3.2.85q-5.55 1.5-11.3 3.7 17.3-8.7 22.9-28.5m-55.1 32.25q-16.75-3.35-33.05-11.3-.95-18.5 0-38.5.5 10.75 4.55 20.5l.05.3q-.7 6.85 1.3 13.7 6.3 5.1 13.15 7.35l14 7.95" fill="#f96" fill-rule="evenodd" transform="translate(-216.45 -119.5)"/><path d="m17.75 1.95 2.4-.35L25 1.05m-7.25.9Q10.8 3.15 3.8 5.4q15.45-.9 15.45 4.1Q49.2-.45 25 1.05M73.25 16.4Q80 14.25 85.15 10q-3.45-3.1-8.4-5.25 3.2 2.4 3.85 5.65-3.2 4.05-7.35 6M46.5 11l-2.65-.2q-1.9-1.6 1-2.15V8.6m0 .05V8.6m0 .05Q44.05 10 46.5 11M34 10.2l2.55 1q4.75 1.55 10.9 2.1 7.95.9 16.05-.25-8.55 1.5-17.5 1.5-5.1-1.15-9.45-3.35M36 116.6h.05l.1.05m-.1-.05.05.05M7.55 87.6l-.05-.3" fill="none" stroke="#000" stroke-linecap="round" stroke-linejoin="round" stroke-width=".05"/><path d="M.2 8.15q.65-1.5 3.6-2.75 3.5-1.55 10.1-2.8l3.85-.65m7.25-.9L47.5 0l3 .05 13.8.6 6.4.45 10.4 1.5Q95 5.25 95 9v.05l-.5 3.65q.5.85.5 2.8-2.4 48.15 0 92.5-7.2 4.5-18.05 6.95-10.05 2.45-20.7 2.95-6.85 1-14 0-8.85-.55-17.7-2.6-19.8-2.95-24.35-8.8 2.85-45 0-90 1-4.45.05-6.5L.2 9.9 0 9l.2-.85V9.9m.05.1 1.45 1.5q2.4 1.85 8.5 4.05l5.6 1.85q14.1 4.25 33.7 4.1T82 17.05t13-8m-18.75 15.2Q87.45 21.3 95 15.5m-94.8 1q25.75 11.8 53.2 10.85l3.6-.15q10.65-.65 19.25-2.95m-20 93.65.25-.05q11.45-.95 20.45-2.9Q86.25 112.6 95 108m-58.85 8.65 6.1 1.25 8.3.1 5.7-.1m-20.1-1.25H36l-11.45-1.35Q12.4 112.4.2 106.5" fill="none" stroke="#000" stroke-linecap="round" stroke-linejoin="round" stroke-width=".05"/><path d="M89.85 40.85 87.3 32.5" fill="none" stroke="#d4d0c8" stroke-linecap="round" stroke-linejoin="round" stroke-width=".05"/><path d="M300.25 171.3q1.45 1.45 3.3 1.2 1.8-.2 2.55-1.35.65-1.15.4-2.8-.3-1.6-2.2-1.35l-2.55.15q-.3-2.55 2.35-2.55 3.15 0-1.2-1.55-4.4-1.6-6.4-.85-2.05.7-3.05 1.55-.95.85-.9 3.65.1 2.8 1.35 3.15l5.15.75h1.2m-8.45 3.5q-2.4-4.2-2.4-6.6 0-2.9 2.75-4.95 1.7-1.25 3.85-1.75l2.85-.3q3.95 0 6.7 2.05t2.75 4.95-2.75 5l-.5.3q3.65 6.15-.85 6.85l-9.3-.95.1-.05-.15.05-.4.2-1.15.45-.2.1-1.3.5q-6.05 2.15-.45-2.95l1.15-1 .25-.2q-1.15.3.55-2 .85-1.1-1.1.65-1.9 1.8-.95 2.5l-15.2 11.8-1.9 1.45-1.45 1.05q-3.25-.1-4.65-1-.2-1.45-2.9-4.15 2.8 2.65 7.15 3.25 10.7-6.45 19.5-15.25m2.75 13.1q-5.85-1.75-11.1.8l-.05.05q-2.8 1.35-5.45 3.9l-1.25.8-1.95 1.45q-1.45-.85-2.8-1.2l4.75-.25-.15-.05h-.15l-.45.05.65-1q1.25-1.45 7.25-4.85l.6-.6 1.75-.8.45-.15 1.75-.25q4.6.85 6.15 2.1m7.9-13.55q2.05 7.25-6.9 0 3.95 6.25 8.4 3.95 2.7-.05-1.5-3.95" fill="#996" fill-rule="evenodd" transform="translate(-216.45 -119.5)"/><path d="M300.25 171.3h-1.2l-5.15-.75q-1.25-.35-1.35-3.15-.05-2.8.9-3.65 1-.85 3.05-1.55 2-.75 6.4.85 4.35 1.55 1.2 1.55-2.65 0-2.35 2.55-.95-.9-2.1-1.1-1.2-.25-1.1 1.75.15 1.95-.05 2.35t.55.7l1.2.45m-7.4 14.55h.5q.8 1.2 2.3 2.45l-1.1-.4q-1.55-1.25-6.15-2.1l4.45.05m-25.6 8.2q-1.9.75-3.65 2.7l-.1-.1v-.3q.05-.75.25-1.4l.2-.6q2.15-1.4 3.3-.3m24.55-13.4q-4 1.7-7.9 3.95l-7.8 4.9-.05-.05 15.2-11.8.35-.25-.25.3-.1-.05.1.05q-5.6 5.1.45 2.95m.7-3.95v.05l.25-.25-.25.2m-8.05 10.3-.6.6q-6 3.4-7.25 4.85l-.65 1q-8.55 1.15 8.5-6.45m-9.5 3.75h.1l-.1.05-.8.1.8-.15" fill="#cc9" fill-rule="evenodd" transform="translate(-216.45 -119.5)"/><path d="M302.45 174.35q4.2 3.9 1.5 3.95-4.45 2.3-8.4-3.95 8.95 7.25 6.9 0m-9.95 2.4-.9.65-.35.25q-.95-.7.95-2.5 1.95-1.75 1.1-.65-1.7 2.3-.55 2l-.25.25" fill="#630" fill-rule="evenodd" transform="translate(-216.45 -119.5)"/><path d="m301.75 167.15 2.55-.15q1.9-.25 2.2 1.35.25 1.65-.4 2.8-.75 1.15-2.55 1.35-1.85.25-3.3-1.2l-1.2-.45q-.75-.3-.55-.7t.05-2.35q-.1-2 1.1-1.75 1.15.2 2.1 1.1M247.7 181.5q.05 1-1.95.4-1.95-.65-2.55 1.5-.65 2.1-1.7 3.1t-3.85-1.95q-2.8-2.9-1.1-2.55 1.75.35 2.6-1.1.8-1.45 2.9-2.85l2.9-.15 1.4 1.1q1.25 1.35 1.35 2.5" fill="#fff" fill-rule="evenodd" transform="translate(-216.45 -119.5)"/><path d="M294.7 179.55q-8.5 4.2-6.2 5.3 2.05.95 4.35 1l-4.45-.05-1.75.25-.45.15-1.75.8q-17.05 7.6-8.5 6.45l.45-.05h.15l.15.05 1.25-.8-1.25.8-4.75.25-1.65-.25q-2-1.05-3.05.6-1.15-1.1-3.3.3 1-2.25 4.1-3.4 1.4.9 4.65 1l1.45-1.05 1.95-1.4 7.8-4.9q3.9-2.25 7.9-3.95l1.3-.5.2-.1 1.15-.45.2-.1.05.05m-67.55 7.4q1.05-2.8 4.9-2.6.9-2.45 4.15-5.55t9.65-3.85q3.1-.4 5.8.05 2.75.5 4.95 1.9 4.3 2.6 5.35 4.95l-.25-.3q-2.5-3-6.6-4.15l-3.45-.7q-2.5-.3-5.05 0-1.75.15-1.65 1.2l-2.9.15q-2.1 1.4-2.9 2.85-.85 1.45-2.6 1.1-1.7-.35 1.1 2.55 2.8 2.95 3.85 1.95t1.7-3.1q.6-2.15 2.55-1.5 2 .6 1.95-.4l2.25 1.95 1.7 1.6q2.9 3.3 0 6-1.7 1.55-5.4 2.9.55-2.65-9.3-1.75-3.35.85-5.65-2.1-1.8-2.3-4.8-.35l.65-2.8m36.4-2 1.3 1.55.3.3-1 1.1q-.1-1.55-.6-2.95m11.4 5.8-.8.15.8-.1.1-.05h-.1" fill="#ffc" fill-rule="evenodd" transform="translate(-216.45 -119.5)"/><path d="m276.1 189.5-1.95 1.4 1.9-1.45.05.05" fill="#fcc" fill-rule="evenodd" transform="translate(-216.45 -119.5)"/><path d="m294.9 179.4-.2.15-.05-.05.2-.1.15-.05-.1.05h-.05.05" fill="#c93" fill-rule="evenodd" transform="translate(-216.45 -119.5)"/><path d="M261.95 181.85q1.05 1.45 1.6 3.1.5 1.4.6 2.95v.95q0 4.25-3.7 3.7t-6.05 2.9q-1.6 2.35-2.75 2.35-.55-.05-1-.55l-1.7-2.1q-3.15 1.2-2.7-1.2 3.7-1.35 5.4-2.9 2.9-2.7 0-6l-1.7-1.6-2.25-1.95q-.1-1.15-1.35-2.5l-1.4-1.1q-.1-1.05 1.65-1.2 2.55-.3 5.05 0l3.45.7q4.1 1.15 6.6 4.15l.25.3m-.35 17.3q-4.25 5.1-9.95 4.9-5.3-.15-11.9-4.8 6.95 1.9 11.9 2.2 7.05.45 9.95-2.3" fill="#fc6" fill-rule="evenodd" transform="translate(-216.45 -119.5)"/><path d="M263.5 196.85q0 .95 1.05 3.1l-.05.1-.5.5q-2.1 2.15-7.5 4.05-4.8 2.2-9.6 0-9.65-4.5-17.35-7-4.8-1.7-3.05-7.85 3-1.95 4.8.35 2.3 2.95 5.65 2.1 9.85-.9 9.3 1.75-.45 2.4 2.7 1.2l1.7 2.1q.45.5 1 .55 1.15 0 2.75-2.35 2.35-3.45 6.05-2.9t3.7-3.7v-.95l1-1.1q2.7 2.7 2.9 4.15-3.1 1.15-4.1 3.4l-.2.6q-.2.65-.25 1.4v.5m-14 13-.1-.05.05-.05.05.1m12.1-10.7q-2.9 2.75-9.95 2.3-4.95-.3-11.9-2.2 6.6 4.65 11.9 4.8 5.7.2 9.95-4.9" fill="#ff9" fill-rule="evenodd" transform="translate(-216.45 -119.5)"/><path d="m249.4 209.8-2.4-1.05q-2-.7-4.75-.7h-.9q8.15-1.05 0-3.05l-3.7-.4q-7.8-1.35-11.7-6.95l-6 .15q.45-1.15 1.55-2.5l2.85-3.6.3-.45 2.5-4.3-.65 2.8q-1.75 6.15 3.05 7.85 7.7 2.5 17.35 7 4.8 2.2 9.6 0 5.4-1.9 7.5-4.05-2.55 2.8-.6 3.3-5.1-.6-9.85 3.05-9.8-1.3-4.1 2.85l-.05.05m15.1-9.75.05-.1-.05.1m-.25 3.95-.05-.05.05.05" fill="#f93" fill-rule="evenodd" transform="translate(-216.45 -119.5)"/><path d="m264.55 199.95.4.8q.8 1.5-.7 3.25-1.25 1.45-4.1 3l-2.45.4-2.75.4q-1.15.4-1.15.95-1.15 2.8-4.3 1.1l-.05-.1q-5.7-4.15 4.1-2.85 4.75-3.65 9.85-3.05-1.95-.5.6-3.3l.5-.5.05-.1m-23.2 8.1q-2.2.1-3.85.7l-1.7.55q-2.5-3.15-4.45-4.5l-.3-.2q-1.9-1.35-2.8-2.5-.95-1.2-2.3-1.2-1.3 0-2.25 1.2-5.1-.9-3.75-4.3l6-.15q3.9 5.6 11.7 6.95l3.7.4q8.15 2 0 3.05m22.9-4.05-.05-.05.05.05" fill="#f60" fill-rule="evenodd" transform="translate(-216.45 -119.5)"/><path d="M291.8 174.8q-2.4-4.2-2.4-6.6 0-2.9 2.75-4.95 1.7-1.25 3.85-1.75l2.85-.3q3.95 0 6.7 2.05t2.75 4.95-2.75 5l-.5.3q3.65 6.15-.85 6.85l-9.3-.95h-.05m-2.35-2.7v.05l-.9.65-.25.3-.1-.05" fill="none" stroke="#000" stroke-linecap="round" stroke-linejoin="round" stroke-opacity=".361" transform="translate(-216.45 -119.5)"/><path d="m294.9 179.4-.2.15q-8.5 4.2-6.2 5.3 2.05.95 4.35 1h.5q.8 1.2 2.3 2.45l-1.1-.4q-5.85-1.75-11.1.8l-.05.05q-2.8 1.35-5.45 3.9m-1.25.8-1.95 1.45q-1.45-.85-2.8-1.2l-1.65-.25q-2-1.05-3.05.6-1.9.75-3.65 2.7l-.1.1q0 .95 1.05 3.1l.4.8q.8 1.5-.7 3.25-1.25 1.45-4.1 3l-2.45.4-2.75.4q-1.15.4-1.15.95-1.15 2.8-4.3 1.1l-.1-.05-2.4-1.05q-2-.7-4.75-.7h-.9q-2.2.1-3.85.7l-1.7.55q-2.5-3.15-4.45-4.5l-.3-.2q-1.9-1.35-2.8-2.5-.95-1.2-2.3-1.2-1.3 0-2.25 1.2-5.1-.9-3.75-4.3.45-1.15 1.55-2.5l2.85-3.6.3-.45 2.5-4.3q1.05-2.8 4.9-2.6.9-2.45 4.15-5.55t9.65-3.85q3.1-.4 5.8.05 2.75.5 4.95 1.9 4.3 2.6 5.35 4.95 1.05 1.45 1.6 3.1l1.3 1.55.3.3q2.8 2.65 7.15 3.25 10.7-6.45 19.5-15.25m2.85 4.7.2-.1.15-.05-.1.05m-.25.1-.2.1-1.15.45-.2.1-1.3.5q-4 1.7-7.9 3.95l-7.8 4.9-1.95 1.4-1.45 1.05q-3.25-.1-4.65-1-3.1 1.15-4.1 3.4l-.2.6q-.2.65-.25 1.4v.5m27.85-19.15 1.15-1 .25-.2m-1.5 1.15-15.2 11.8m15.3-11.75q-5.6 5.1.45 2.95m-15.1 12.8 1.25-.8m-3.8-1.75 1.9-1.45m-11.55 10.6.05-.1m-15.15 9.85.05-.05m15.7-22.95q2.7 2.7 2.9 4.15m-3.55 9.1.05-.1" fill="none" stroke="#000" stroke-linecap="round" stroke-linejoin="round" stroke-opacity=".361" transform="translate(-216.45 -119.5)"/><path d="M253.7 142.85v95.95q-15.4-.9-31.9-6.05V135.8q15.3 5.8 31.9 7.05" fill="#fff" fill-opacity=".424" fill-rule="evenodd" transform="translate(-216.45 -119.5)"/><path d="M308.4 136.8q-3.85 46.35 0 91.95-6.5 3.7-15.2 6.25v-91.1q8-2.25 15.2-7.1" fill-opacity=".431" fill-rule="evenodd" transform="translate(-216.45 -119.5)"/></g></defs></svg>