<svg viewBox="0 0 384.74 208.7" xmlns="http://www.w3.org/2000/svg" xmlns:xlink="http://www.w3.org/1999/xlink"><use transform="translate(.019 .025)" width="384.7" height="208.65" xlink:href="#a"/><defs><g id="a"><path d="M426 201.75q3.05-1 5.85-2.45-.55-2.3-.55-4.75 0-8.9 4.25-12.7 4.25-3.85 8.75 1.2t13.75 3.85q9.25-1.25 9.25 7.65l-.1 4.15q-2.1 9.55-13.35 11.85-8.5 2.05-17-11l-10.7 2.75-.15-.55m13.75-13.25-2.15-.3q13 11.9 7.25 10.35l8.5 4q-1.5-4.5 5.5-5-.6-7.5-19.1-9.05m-290.85 6.65q-5.55-15.85-18.55-12.6-10.6 8.1-29 6.5 2.75-12.45-9.5-15.5-8.4-15 4.3-23.55l9.7-.95q18.7 3.45 31 15l12.9 30.75-.85.35m91.45-8q10.15-10.75 25.95-17.1 63.8-18.1 108 25Q304 160.85 263 179.4q-16.2 7.35-27.75 22.9-6.75 9-11.95 20.75 3.6-21.75 17.05-35.9m82.95 32.9 59-15-71 27 12-12" fill="#660" fill-rule="evenodd" transform="translate(-82.6 -65.15)"/><path d="M439.75 188.5q18.5 1.55 19.1 9.05-7 .5-5.5 5l-8.5-4q5.75 1.55-7.25-10.35l2.15.3m-290 6.3 3.6 8.55-3-3.3-1.45-4.9.85-.35m26.75 34 3.45 1.1q9.6 7.7 17.55 7.1l-12.15 1.55-8.85-9.75" fill="#ff6" fill-rule="evenodd" transform="translate(-82.6 -65.15)"/><path d="M467.2 198.7q-.3 6.25-1.6 11.05-1.75 6.3-11.3 6.3t-16.3-6.3q-3.1-2.9-4.75-6.4-14.7.5-25.4 8.05l-1.95-4.45 3.4-.4 16.85-4.25 10.7-2.75q8.5 13.05 17 11 11.25-2.3 13.35-11.85M163 218.45q-17.05-18.45-31.55-20.3-7.8 6.9-19.45 6.9-5.95 0-11.25-2.6Q98.2 204 95 204q-4.7 0-8.05-3.35-3.3-3.3-3.3-8 0-3.5 1.85-6.2-3.25-7.2-2.85-15.9l.25-3.25q.25 7.15 10.45 14.25-6.65 6.7 1 15 20.5 4.2 32.55-3.35l3.3.5 20.15 9.35 12.65 15.4" fill="#cc0" fill-rule="evenodd" transform="translate(-82.6 -65.15)"/><path d="M204.35 242.05h-23q-7.65-11.25-14.8-19.65l-3.55-3.95-12.65-15.4-20.15-9.35-3.3-.5q-12.05 7.55-32.55 3.35-7.65-8.3-1-15-10.2-7.1-10.45-14.25 1.2-12.05 7-19.55 6.5-8.55 13.45-4.7t22.8 7.75 17 15.45q7.45 40.05 35.45 59.3 12.9 8.85 24.75 9.5l.2 1.2.8 5.8m200.2-38.2q12.15.9 21.45-2.1l.15.55-16.85 4.25-3.4.4-1.35-3.1m-254.8-9.05-12.9-30.75q-12.3-11.55-31-15l-9.7.95q-12.7 8.55-4.3 23.55 12.25 3.05 9.5 15.5 18.4 1.6 29-6.5 13-3.25 18.55 12.6l1.45 4.9 3 3.3-3.6-8.55m26.75 34 8.85 9.75L197.5 237q-7.95.6-17.55-7.1l-3.45-1.1" fill="#ff9" fill-rule="evenodd" transform="translate(-82.6 -65.15)"/><path d="m407.85 211.4-4.55 6.65q-30.95 9.45-63 17.55 32.15-9.35 54-31.55-4.65-14.3-30.8-32.2 26.25 12.5 44 27.7l-2.95 4.3 1.35 3.1 1.95 4.45m-107.3 33.75q-31.6 7.05-64.2 12.9h-14q-13.05-29.6 27.95-36-18.95-8-15.05-19.75 11.55-15.55 27.75-22.9-19.9 33.15 0 33.65 7 35.15 37.55 32.1m-57.1-79.85q26-19.9 51.85-16.9-35 5.7-29 21.65-15.8 6.35-25.95 17.1-7.6-7.3 3.1-21.85m161.4 41.75 1.05-.1-1.05.1" fill="#c96" fill-rule="evenodd" transform="translate(-82.6 -65.15)"/><path d="m340.3 235.6-4.35 1.15-1.7.4-33.7 8Q270 248.2 263 213.05q-19.9-.5 0-33.65 41-18.55 111.3 15.65-44.2-43.1-108-25-6-15.95 29-21.65 5.1.55 10.2 2.05 32.9 9.45 58 21.4 26.15 17.9 30.8 32.2-21.85 22.2-54 31.55m-117.95 22.45q-14.95-1.05-18-16l-.8-5.8-.2-1.2q15.8-49.15 34.1-64.9l6-4.85q-10.7 14.55-3.1 21.85-13.45 14.15-17.05 35.9 5.2-11.75 11.95-20.75-3.9 11.75 15.05 19.75-41 6.4-27.95 36m98.6-66.95q1.1 3.55 7.5 9.2-4.15-5.1 38.95-4.6l-18.1-5.65q-100.15-14.7-28.35 1.05m-116.1 44.95-1.3.2 1.3-.2m118.45-16-12 12 71-27-59 15" fill="#993" fill-rule="evenodd" transform="translate(-82.6 -65.15)"/><path d="M320.95 191.1q-71.8-15.75 28.35-1.05l18.1 5.65q-43.1-.5-38.95 4.6-6.4-5.65-7.5-9.2" fill="#ffc" fill-rule="evenodd" transform="translate(-82.6 -65.15)"/><path d="M343.4 136.6q3.05-1 5.85-2.45-.55-2.3-.55-4.75 0-8.9 4.25-12.7 4.25-3.85 8.75 1.2t13.75 3.85q9.25-1.25 9.25 7.65l-.1 4.15q-.3 6.25-1.6 11.05-1.75 6.3-11.3 6.3t-16.3-6.3q-3.1-2.9-4.75-6.4-14.7.5-25.4 8.05l-4.55 6.65q-30.95 9.45-63 17.55l-4.35 1.15-1.7.4-33.7 8q-31.6 7.05-64.2 12.9h-14q-14.95-1.05-18-16h-23q-7.65-11.25-14.8-19.65l-3.55-3.95Q63.35 134.85 48.85 133q-7.8 6.9-19.45 6.9-5.95 0-11.25-2.6-2.55 1.55-5.75 1.55-4.7 0-8.05-3.35-3.3-3.3-3.3-8 0-3.5 1.85-6.2-3.25-7.2-2.85-15.9l.25-3.25v-.05.05q1.2-12.05 7-19.55 6.5-8.55 13.45-4.7t22.8 7.75 17 15.45Q68 141.15 96 160.4q12.9 8.85 24.75 9.5 15.8-49.15 34.1-64.9l6-4.85q26-19.9 51.85-16.9 5.1.55 10.2 2.05 32.9 9.45 58 21.4 26.25 12.5 44 27.7l-2.95 4.3q12.15.9 21.45-2.1m-20.1 5.2 1.95 4.45m-3.3-7.55 1.35 3.1-1.05.1m-201.3 29.2 1.3-.2m-.5 6-.8-5.8-.2-1.2" fill="none" stroke="#000" stroke-linecap="round" stroke-linejoin="round" stroke-opacity=".4" stroke-width=".05"/><path d="m382.65 184.7-4.9-23.45q2.45-22.25-11.1-37.6-27.45-2.05-54.85 12.3 54.25-6.45 62.7 25.75l6.25 23.3 9.9 37.5-8-37.8 7.7-1.15-7.7 1.15m-136.5-47.05 127.1-24.8 17.1 70.7 29.9-4.45-18.5 51.6-29.7 6.6h-.1l-163.5 36.5L180 150.6l58.5-11.45 4.25-.8 3.4-.7 3.9 16.05-3.9-16.05m132.2 47.75 2.4-.4-2.4.4m23.4 45.3-11.4-47.15 11.4 47.15m-162.8 28.1q-9.5-3.3-14-20.55Q202.5 230.8 194.6 158l2 22.3q5.55 53.6 18.2 82.25l5.55 1.55q19.4 4.7 18.6-5.3 6.9 2.4 16.5-2.55l-16.5 2.55 16.5-2.55q-9.6 4.95-16.5 2.55m-30.5 15 11.9-9.7-11.9 9.7" fill="#0cf" fill-opacity=".302" fill-rule="evenodd" transform="translate(-82.6 -65.15)"/><path d="m380.75 185-6.25-23.3q-8.45-32.2-62.7-25.75 27.4-14.35 54.85-12.3 13.55 15.35 11.1 37.6l4.9 23.45-1.9.3 1.9-.3 8 37.8-9.9-37.5M289.1 84l25.1-4.45-7.95 2.65-2.45.85q-27.05 9.8-24.65 15.95l29.1 4-63.6 28.5-6.15 2.6 4.25 4.25-4.25.8q-6.75-11.8-13.55-2.55 6.8-12.4 18.5-10.1l1.2 5-1.2-5q30.5-6.95 43.1-23.8-14-3.9-30.4 6.65Q264.45 95.5 289.1 84m-68.75 180.1-5.55-1.55q-12.65-28.65-18.2-82.25l-2-22.3q7.9 72.8 30.35 80.25 4.5 17.25 14 20.55.8 10-18.6 5.3" fill="#fff" fill-rule="evenodd" transform="translate(-82.6 -65.15)"/><path d="m390.35 183.55-17.1-70.7-127.1 24.8-1.5-6.15 1.5 6.15-3.4.7-4.25-4.25 6.15-2.6 63.6-28.5-29.1-4q-2.4-6.15 24.65-15.95l2.45-.85 7.95-2.65 80.6-14.4 25.45 113.95-29.9 4.45M180 150.6l55.45-57L289.1 84q-24.65 11.5-32.95 25.35 16.4-10.55 30.4-6.65-12.6 16.85-43.1 23.8-11.7-2.3-18.5 10.1 6.8-9.25 13.55 2.55L180 150.6m214.8-85.45-21.55 47.7 21.55-47.7M235.45 93.6l8 32.9-8-32.9" fill="#2ba6d5" fill-opacity=".302" fill-rule="evenodd" transform="translate(-82.6 -65.15)"/><path d="m300.05 119.55 7.7-1.15-17.1-70.7-127.1 24.8 3.9 16.05m132.6 31-1.9.3-2.4.4M231.6 14.4 312.2 0l25.45 113.95-18.5 51.6-29.7 6.6h-.1l-163.5 36.5L97.4 85.45l55.45-57 53.65-9.6 25.1-4.45-7.95 2.65m-61.6 49.3 1.5 6.15-3.4.7-4.25.8-58.5 11.45m240.25 28.5-29.9 4.45 11.4 47.15M290.65 47.7 312.2 0M156.35 193.65l16.5-2.55q-9.6 4.95-16.5 2.55m-18.6 5.3-11.9 9.7m35-147.3 1.2 5m-1.2-5-8-32.9" fill="none" stroke="#000" stroke-linecap="round" stroke-linejoin="round" stroke-opacity=".4" stroke-width=".05"/></g></defs></svg>