<svg width="28" height="24" viewBox="261.55 187.75 27.65 23.65" xmlns="http://www.w3.org/2000/svg" xmlns:xlink="http://www.w3.org/1999/xlink"><defs><g id="a"><path d="m272.45 197.25-1.75-.55-1.8-.5q-1.05-.45-1.25-.75-.2-.25-.05-.95l2.95 1.1 1.25.95.7.65.2.15-.25-.1m-3.6-1.95 1.45.7 1.5.55-1.5-.55-1.45-.25 1.45.25-1.45-.7m-3.05 2q1.2-.65 2.7-.6l3 1.8.05.05h-.1q-.8 0-1.65.6-.95.65-1.5.7-1 .05-1.4-.35-.4-.45-1.1-2.2m13-.1 2.35-.7 6.1-.85q.25.55-.1.75l-2.55.6-3.8.4-1.7.15-.3.05-.55.05-1.6.25 1.4-.5.75-.2m.95 1.7 4.2-.1q2.7.7 4.8 1.9-1.85 1.35-2.65 1.55l-2.7-.35q-1.05-.3-2.55-1.4l-.6-.4-.4-.25-.9-.45-.55-.2-.6-.15h.35l.7-.05.9-.1m4.9-2.6-3 .55-2.85.75 2.85-.75 3-.55m0 .35-3 .2 3-.2m1.05 3.85-2.8-.65-2.7-.6 2.7.6 2.8.65m-17.85-1.6 1-.9 1.45.15-1.45-.15-1 .9m16.65 2.35-1.6-1.4 1.6 1.4m-17.15-3.4 1.5.15-1.5-.15" fill="#d5ecf4"/><path d="m272.45 197.25.25.1-.2-.15.15-.15.4.35q-.7.25-1.25.8l.65-.95m4.65 1.05-.45-.4q-.8-.6-1.75-.7l-.3-.05 1.95-.5.25-.25q.5.25 1 .75l.1.05.15.2-.15-.2-.1-.05.75.1.15-.15.1.1-.75.2-1.4.5 1.6-.25.55-.05.3-.05.65 1.35-.9.1q-.2-.75-.6-1.35.4.6.6 1.35l-.7.05-1.05-.75m3.15 1.8.1.7-.1.65-.5-.65q-.4.4-.75-1l-.6-.6.55.2.9.45.4.25m-.5.7.1-.85v-.1.1l-.1.85m-.75-1-.05-.4.05.4" fill="#f38601"/><path d="m273.05 197.4-.4-.35q1.05-1.05 2.55-1.05l.5.05.15.05v-.05l.35-.05q1.45 0 2.5 1.1l-.15.15-.75-.1q-.5-.5-1-.75l-.25.25-1.95.5h-.2l-.35.05-1 .2m2.8-1.3.95.3-.95-.3" fill="#ffc163"/><path d="m274.05 197.2.35-.05h.2l.3.05q.95.1 1.75.7l.45.4.15.15q-1.2.3-1.05 1.85l-.05 1.25-.55-.7q-.3-.2-.55-.25h-.5q-.55.15-.8.7t-.1 1.15l.05.1v.05q.15.65.65 1l1.1.25h.05l.05-.05-.2.4h-.3q-.35 0-.5.15h-.05l-.05.05-.35-.15-.35-.05-.7.15-.2-.15-.3-.1-.3-.05-.2-.8.4-.55.15-.65v-.1l-.05-.5-.6-1q.15-.8.55-1.5.45-.85 1.25-1.5l.3-.25" fill="#50558f"/><path d="M271.45 198.55h.1l-.05-.05.3-.3q.55-.55 1.25-.8l1-.2-.3.25q-.8.65-1.25 1.5-.4.7-.55 1.5l-.1-.05q-.3-.2-.55-.25h-.5l-.1.05q.15-.9.75-1.65m.6 4.7.2.8h-.15l-.05-.15-.4-.35h-.05l-.1-.05-.05-.05.25-.05h.05l.3-.15" fill="#9b9fc5"/><path d="m275.85 196.1-.15-.05h.15v.05" fill="#af7030"/><path d="m277.25 198.45-.15-.15 1.05.75h-.35l.6.15.6.6q.35 1.4.75 1l.5.65-.3.75-.1.15-.4.4-.8.55-.2-.3.2.3-1.15.3-.35.1.15-.15.6-.55.35-.45-.35.45-.6.55.75-1.35.15-1.2q0-1.45-.95-2.55m1.7 2.45.05-.8v-.3.3l-.05.8-.05.2.35.95-.35-.95.05-.2m.8-.1-.5 1.25.5-1.25m-.5 1.25.25.65-.25-.65-.5.65-.3.3.3-.3.5-.65m-1 .5.2.45-.2-.45-.2-.35.2.35.65-1.45-.65 1.45m.2.45-.95.6.95-.6" fill="#a86b31"/><path d="m275.35 204.2.2-.4h.05l-.2.4v.05-.05l.2-.4.6-.65.15-.65v-.2l-.05-.4-.15-.35.05-1.25q-.15-1.55 1.05-1.85.95 1.1.95 2.55l-.15 1.2-.35-.7.35.7-.75 1.35-.5.5-.75.45-.3.15v-.05l-.4-.4m1.4-2.15-.35 1.5.4.5-.4-.5.35-1.5m0-.55-.4.8.4-.8" fill="#3c3f6a"/><path d="m271.95 200.45.6 1 .05.5-.6.25-.15-.85-.55-1.2q.25.05.55.25l.1.05m.65 1.6-.15.65-.4.55-.3.15.2-.6.05-.5.6-.25m2.95 1.75-.05.05.25-1.1.2-.1.3-.1.1-.05-.15.65-.6.65h-.05m-.5-3.2q.25.05.55.25l.55.7.15.35.05.4v.1h-.05l-.3.15-.25.1q-.1-1.1-.7-2.05" fill="#f3b701"/><path d="M275.5 203.85h-.05l-1.1-.25q-.5-.35-.65-1l2 .15h.05l-.25 1.1m-1.85-1.4q-.15-.6.1-1.15t.8-.7h.5q.6.95.7 2.05l-2.1-.2m.95-1.45-.05-.25q-.8.1-.75.9l.15.1q.45-.7.65-.75m-3.15 2.45-.85-.3q-.5-.35-.65-1l.9.2 1-.05H272l-.05.5-.2.6h-.05l-.25.05M269.9 202q-.15-.6.1-1.15.2-.5.7-.65l.1-.05h.5l.55 1.2.15.85h-.15l-1.05.05-.9-.25m.9-1.7h-.15q-.65.15-.6.9l.15.1.4-.6q.15-.15.25-.15l-.05-.25" fill="#fed225"/><path d="M274.6 201q-.2.05-.65.75l-.15-.1q-.05-.8.75-.9l.05.25m-3.8-.7.05.25q-.1 0-.25.15l-.4.6-.15-.1q-.05-.75.6-.9h.15" fill="#feeba0"/><path d="M273.7 202.6v-.05l-.05-.1 2.1.2v.1h-.05l-2-.15m-3.75-.45v-.05l-.05-.1.9.25 1.05-.05h.15v.1H271.85l-1 .05-.9-.2" fill="#dfb700"/><path d="M272.6 201.95v.1l-.6.25v-.1l.6-.25m3.15.8v-.1l.25-.1.3-.15h.05v.1l-.1.05-.3.1-.2.1" fill="#8a7100"/><path d="m275.75 204.65.3-.15.7.2.7.5q0 .25-.75.45l-.55.05-.4-.8.4.8-.45.05v-.7l.05-.15v-.25" fill="#382c16"/><path d="m272.55 204.1.3.1.2.15-.25.25-.15.6-.1.35.15.85v.2l-.4 1.05-.05.05q-.9-1.9-.05-3.15l.15-.25.2-.2m1.2.1.35.05.35.15-.15.45-.05.45.05.4.2.35.05.55q.1.75-.15 1.1v.05q-1-1.2-1-2.25l.1-.75.05-.05.1-.3.1-.2m1.3 0h.3l.4.4v.3l-.05.15v.7l.05.2-.05.85v.05l-.75-1.1-.1-.9.05-.25.1-.25.05-.15m-4.05 1.05-.15.15-.75.4h-.05q.4-1.5 1.55-1.85l.25-.05h.2l.05.15h-.3v.05q-.2.05-.25.15l-.5.9-.05.1" fill="#fff"/><path d="m272.25 204.05.3.05-.2.2-.15.25q-.85 1.25.05 3.15l-.5-.1-.6-1.1q-.35-.75-.15-1.25l.05-.1.5-.9q.05-.1.25-.15v-.05H272.25m.8.3.7-.15-.1.2-.1.3-.05.05-.1.75q0 1.05 1 2.25l-.55.05-.85-.95-.3-.45-.15-.85.1-.35.15-.6.25-.25m1.4.05.05-.05h.05q.15-.15.5-.15l-.05.15-.1.25-.05.25.1.9.75 1.1-.4.05-.7-.7-.1-.15-.2-.35-.05-.4.05-.45.15-.45m-4.4 1.4q-.3-.05-.25-.3l.2-.9q.25-.65.65-.85l.75-.25h.1l.1.05h.05l.4.35h-.2l-.25.05q-1.15.35-1.55 1.85" fill="#e8d9c1"/><path d="M267.6 194.5q-.15.7.05.95.2.3 1.25.75l1.8.5 1.75.55.25.1m-.9-.8-1.5-.55-1.45-.25m1.45.25-1.45-.7m-3.05 2q.7 1.75 1.1 2.2.4.4 1.4.35.55-.05 1.5-.7.85-.6 1.65-.6h.1m15.7-2.9q.25.55-.1.75l-2.55.6-3.8.4-1.7.15-.3.05-.55.05-1.6.25m12.1 2.8q-1.85 1.35-2.65 1.55l-2.7-.35q-1.05-.3-2.55-1.4l-.6-.4-.4-.25-.9-.45-.55-.2-.6-.15m1-1.45 2.85-.75 3-.55m-3 .55 3-.2m-4.45 2.6 2.7.6 2.8.65m-15.4-2.35-1.45-.15-1 .9m15.05.95 1.6 1.4M268.85 198l-1.5-.15" fill="none" stroke="#fff" stroke-width=".5"/><path d="m272.65 197.05-.15.15m-.7 1 .65-.95m7.8 4.2-.3.75m-1.3 1.1.8-.55.05-.05m-2.35 1 .35-.1m2.35-1.25-.35.35m-.85.6-1.15.3" fill="none" stroke="#000" stroke-width=".5"/><path d="m271.5 198.5.3-.3q.55-.55 1.25-.8l1-.2m.55-.05h-.2l-.35.05m3.2 1.25-.15-.15-.45-.4q-.8-.6-1.75-.7l-.3-.05m2.7 6.4-.5.5m.45-5.6q.95 1.1.95 2.55l-.15 1.2-.75 1.35m-1.55 1.1.3-.15.75-.45m-5.3-.55-.05-.05m-.75-3.25q.15-.9.75-1.65" fill="none" stroke="#744a21" stroke-width=".5"/><path d="m276.8 196.4-.95-.3-.15-.05-.5-.05q-1.5 0-2.55 1.05m3.2-1 .35-.05q1.45 0 2.5 1.1l.1.1m.3.35.65 1.35m.5 1.2.1.7-.1.65m-2.45-4.3q-.5-.5-1-.75" fill="none" stroke="#af7030" stroke-width=".5"/><path d="m278.05 197.4-.15-.2-.1-.05m.45.5q.4.6.6 1.35m1 .85v.1l-.1.85m-.8-1.4.05.4" fill="none" stroke="#e7c6a7" stroke-width=".5"/><path d="M279 199.8v.3l-.05.8m.3 1.15.5-1.25m-.5 1.25-.5.65-.3.3m-.2-.45-.35.45-.6.55m.2.05.95-.6m-.2-.45.65-1.45" fill="none" stroke="#4e3216" stroke-width=".5"/><path d="m271.95 200.45.6 1 .05.5v.1l-.15.65-.4.55-.3.15m3.8.4-.05.05m-1.8-1.25v-.05l-.05-.1m1.4-1.85q.25.05.55.25l.55.7m3.8.65-.1.15.3 1.2-.75.9m-.45-3.55-.05.2.35.95m-.8.95.2.3.35.7-.05.5-.85 1.7m1.4-3.5-.25-.65m-.8.95-.2-.45m1.25.15.1.25-.6 1.05.1.2-.15.3m-.9-2.3.2.35m-2.65 1.25-.2.4v.05m1.4-.2-.4-.5.35-1.5m-1.15 1.75h-.05m.2-1.15-2.1-.2m4.05-.95.35.7m-2.3.45.25-.1.3-.15h.05v-.1l-.05-.4-.15-.35m.2.95v-.1m0-.1.4-.8m.05 2.55.35.4m-.8-1.95-.15.65-.6.65m.55 1.9.25.5m-.65-1.3.4.8m-6.2-3.55v-.05l-.05-.1m1.4-1.85q.25.05.55.25l.1.05m.05 1.75.6-.25m-.6.25h-.15l-1.05.05-.9-.25" fill="none" stroke="#000" stroke-width=".5"/><path d="M275.5 203.85h-.05l-1.1-.25q-.5-.35-.65-1m-.05-.15q-.15-.6.1-1.15t.8-.7h.5m-3.6 2.85-.85-.3q-.5-.35-.65-1m-.05-.15q-.15-.6.1-1.15.2-.5.7-.65l.1-.05h.5m.45 3.25h-.05l-.25.05" fill="none" stroke="#feeba0" stroke-width=".5"/><path d="m273.7 202.6 2 .15h.05l.2-.1.3-.1.1-.05m-6.4-.35.9.2 1-.05H272l.6-.25" fill="none" stroke="#e9cbaf" stroke-width=".5"/><path d="M275.75 204.6v.3l-.05.15v.7l.05.2-.05.85v.05m-1.2-.8.05.55q.1.75-.15 1.1v.05m-1.7-1.35v.2l-.4 1.05-.05.05m-1.25-2.45-.15.15-.75.4h-.05" fill="none" stroke="#2d2d2d" stroke-width=".5"/><path d="m274.45 204.4.05-.05h.05m1.15 2.5-.4.05-.7-.7-.1-.15m-.1 1.7-.55.05-.85-.95-.3-.45m-.45 1.3-.5-.1-.6-1.1q-.35-.75-.15-1.25m-.95.55q-.3-.05-.25-.3l.2-.9q.25-.65.65-.85l.75-.25h.1m2.95.9-.15.45-.05.45.05.4.2.35m-2.85-2.5h-.05l-.1-.05m.3.55v.05q-.2.05-.25.15l-.5.9-.05.1m2.05-.9-.25.25-.15.6-.1.35.15.85" fill="none" stroke="#b08744" stroke-width=".5"/><path d="M273.7 196.25q-3.15-2.4-11.7-4 9.25-3.4 18.05-4.5 3.75.75 8.7 4.05-10.3 1.9-15 4.5l-.05-.05" fill="#a8e3dd" fill-opacity=".533"/><path d="M262 192.25q8.55 1.6 11.7 4v.05q.5 1.75.45 7.35-.05 5.65-.6 7.7h-.05q-5.4-1.35-11.2-5.3-.55-2-.65-7-.1-4.85.3-6.75l.05-.05" fill="#a8e3dd" fill-opacity=".902"/><path d="M273.75 196.3q4.7-2.6 15-4.5h.05q.35 1.6.35 6.25.05 4.65-.25 6.3-10.1 5.4-15.35 7 .55-2.05.6-7.7.05-5.6-.45-7.35h.05" fill="#a8e3dd" fill-opacity=".714"/><path d="M262 192.25q8.55 1.6 11.7 4l.05.05q4.7-2.6 15-4.5-4.95-3.3-8.7-4.05-8.8 1.1-18.05 4.5l-.05.05q-.4 1.9-.3 6.75.1 5 .65 7 5.8 3.95 11.2 5.3h.05q.55-2.05.6-7.7.05-5.6-.45-7.35v-.05m0 .05h.05m-11.8-4v-.05h.05m26.75-.45h.05q.35 1.6.35 6.25.05 4.65-.25 6.3-10.1 5.4-15.35 7v.05l-.05-.05" fill="none" stroke="#000" stroke-opacity=".302" stroke-width=".5"/><path d="M278.7 208.65q-.45.5-1.15.5t-1.2-.5q-.45-.45-.45-1.05 0-.65.45-1.1.5-.45 1.2-.45t1.15.45l.55 1.1q-.05.6-.55 1.05M281.15 206.6q-.25.3-.65.3t-.65-.3l-.25-.55q0-.35.25-.6t.65-.25.65.25l.3.6-.3.55M269.2 198.1l-.4.15-.45-.15-.15-.4.15-.4q.2-.15.45-.15l.4.15.2.4-.2.4" fill="#fff"/></g></defs><use xlink:href="#a"/></svg>