<svg viewBox="0 0 95.05 119.32" xmlns="http://www.w3.org/2000/svg" xmlns:xlink="http://www.w3.org/1999/xlink"><use transform="translate(.03 .02)" width="95" height="119.3" xlink:href="#a"/><defs><linearGradient id="b" x1="-819.2" x2="819.2" gradientTransform="matrix(-.0133 -.0111 .0077 -.0093 238.2 175.45)" gradientUnits="userSpaceOnUse"><stop stop-color="#a4760f" offset="0"/><stop stop-color="#fff" offset="1"/></linearGradient><linearGradient id="c" x1="-819.2" x2="819.2" gradientTransform="matrix(-.0133 -.0111 .0077 -.0093 242.6 176.9)" gradientUnits="userSpaceOnUse"><stop stop-color="#f3ce73" offset="0"/><stop stop-color="#fff" offset="1"/></linearGradient><linearGradient id="d" x1="-819.2" x2="819.2" gradientTransform="matrix(.0379 0 0 .0125 270.05 186.4)" gradientUnits="userSpaceOnUse"><stop stop-color="#8c0d0d" offset="0"/><stop stop-color="#ee1611" offset="1"/><stop stop-color="#836753" offset="1"/></linearGradient><linearGradient id="e" x1="-819.2" x2="819.2" gradientTransform="matrix(.0182 0 0 .0112 241 197.75)" gradientUnits="userSpaceOnUse"><stop stop-color="#f2ca77" offset="0"/><stop stop-color="#f7e086" offset="1"/><stop stop-color="#836753" offset="1"/></linearGradient><g id="a"><path d="m234.2 121.45 2.4-.35 4.85-.55q24.2-1.5-5.75 8.45 0-5-15.45-4.1 7-2.25 13.95-3.45m55.5 14.45q4.15-1.95 7.35-6-.65-3.25-3.85-5.65 4.95 2.15 8.4 5.25-5.15 4.25-11.9 6.4m-26.75-5.4-2.65-.2q-1.9-1.6 1-2.15-.8 1.35 1.65 2.35" fill-rule="evenodd" transform="translate(-216.45 -119.5)"/><path d="M216.65 127.65q.65-1.5 3.6-2.75 3.5-1.55 10.1-2.8l3.85-.65q-6.95 1.2-13.95 3.45 15.45-.9 15.45 4.1 29.95-9.95 5.75-8.45l22.5-1.05 3 .05 13.8.6 6.4.45 10.4 1.5q13.9 2.65 13.9 6.4v.05q-.1 3.7-13 8t-32.5 4.45-33.7-4.1l-5.6-1.85q-6.1-2.2-8.5-4.05l-1.45-1.5-.05-.1v-1.75m73.05 8.25q6.75-2.15 11.9-6.4-3.45-3.1-8.4-5.25 3.2 2.4 3.85 5.65-3.2 4.05-7.35 6m2.95-5.55q0-2.5-8-4.25t-19.35-1.75-19.35 1.75-8 4.25 8 4.25 19.35 1.75 19.35-1.75 8-4.25" fill="#333" fill-rule="evenodd" transform="translate(-216.45 -119.5)"/><path d="m311.45 128.55-.5 3.65q-3.6 3.2-9.25 6.45-4 3.05-9 5.1-8.6 2.3-19.25 2.95l-3.6.15q-27.45.95-53.2-10.85 1-4.45.05-6.5l1.45 1.5q.7 4.2 4.05 5.75-1.45-2.25 4.45-1.7 10.2 5.8 21.65 8.6 12.8 2.3 25.15 3.05-5.7-.95-7.5-5.7 19.6-.15 32.5-4.45t13-8m-51.15 1.75-1.05-.2q-1.8-.35-1.8-.85t1.8-.9l2.05-.25 2.35-.1 1.15.05 3.2.3q1.85.4 1.85.9t-1.85.85l-3.2.4h-1.85q-2.45-1-1.65-2.35-2.9.55-1 2.15m1-2.2v.05-.05.05-.05" fill="#ccc" fill-rule="evenodd" transform="translate(-216.45 -119.5)"/><path d="M310.95 132.2q.5.85.5 2.8-7.55 5.8-18.75 8.75 5-2.05 9-5.1 5.65-3.25 9.25-6.45M272.7 237.4q-6.85 1-14 0-8.85-.55-17.7-2.6-19.8-2.95-24.35-8.8 12.2 5.9 24.35 8.8l11.45 1.35h.15l6.1 1.25 8.3.1 5.7-.1M218.15 131q2.4 1.85 8.5 4.05l5.6 1.85q14.1 4.25 33.7 4.1 1.8 4.75 7.5 5.7-12.35-.75-25.15-3.05-11.45-2.8-21.65-8.6-5.9-.55-4.45 1.7-3.35-1.55-4.05-5.75m34.85-.3q4.75 1.55 10.9 2.1 7.95.9 16.05-.25-8.55 1.5-17.5 1.5-5.1-1.15-9.45-3.35" fill="#999" fill-rule="evenodd" transform="translate(-216.45 -119.5)"/><path d="M292.65 130.35q0 2.5-8 4.25t-19.35 1.75-19.35-1.75-8-4.25 8-4.25 19.35-1.75 19.35 1.75 8 4.25m-27.85-2.3-1.15-.05-2.35.1-2.05.25q-1.8.4-1.8.9t1.8.85l1.05.2 2.65.2h2.95l4.35-.4q1.85-.35 1.85-.85t-1.85-.9l-4.35-.35-1.1.05M253 130.7l-2.55-1 2.55 1q4.35 2.2 9.45 3.35 8.95 0 17.5-1.5-8.1 1.15-16.05.25-6.15-.55-10.9-2.1" fill="#666" fill-rule="evenodd" transform="translate(-216.45 -119.5)"/><path d="M252.45 236.1h.05l.1.05h-.15v-.05m.1.05-.05-.05.05.05" fill="#900" fill-rule="evenodd" transform="translate(-216.45 -119.5)"/><path d="m223.95 206.8.15.3h-.1l-.05-.3" fill="#933" fill-rule="evenodd" transform="translate(-216.45 -119.5)"/><path d="M311.45 135q-2.4 48.15 0 92.5-8.75 4.6-18.05 6.95-9 1.95-20.45 2.9l-.25.05-5.7.1-8.3-.1-6.1-1.25-.1-.05h-.05v.05L241 234.8q-12.15-2.9-24.35-8.8 2.85-45 0-90 25.75 11.8 53.2 10.85l3.6-.15q10.65-.65 19.25-2.95 11.2-2.95 18.75-8.75m-90.15 13.3q4.15-2.75 35.05 2.75-18.85-3.9-35.3-9.5-1.75 5.25.25 6.75m85 12.05 1.4 5.2 1.3 5.2q.95-12.55-2.05-26.2l-43.45 7 15.45-.95q13.05-2.25 26.1-1.65.1 6.05 1.25 11.4l-2.55-8.35 2.55 8.35m2.3 41.2-1.05 2.3q-5.6 19.8-22.9 28.5 5.75-2.2 11.3-3.7l3.2-.85q2-1.75 3.8-2.5 2.1-2.3 2.6-6 3.15-.15 3.25-8.65l-.2-9.1m-84.65 5.25q-4.05-9.75-4.55-20.5-.95 20 0 38.5 16.3 7.95 33.05 11.3l-14-7.95q-6.85-2.25-13.15-7.35-2-6.85-1.3-13.7h.1l-.15-.3" fill="#ffc" fill-rule="evenodd" transform="translate(-216.45 -119.5)"/><path d="m252.5 236.1.1.05-.1-.05" fill="#fc9" fill-rule="evenodd" transform="translate(-216.45 -119.5)"/><path d="M221.3 148.3q-2-1.5-.25-6.75 16.45 5.6 35.3 9.5-30.9-5.5-35.05-2.75m85 12.05q-1.15-5.35-1.25-11.4-13.05-.6-26.1 1.65l-15.45.95 43.45-7q3 13.65 2.05 26.2l-1.3-5.2-1.4-5.2m2.3 41.2.2 9.1q-.1 8.5-3.25 8.65-.5 3.7-2.6 6-1.8.75-3.8 2.5l-3.2.85q-5.55 1.5-11.3 3.7 17.3-8.7 22.9-28.5l1.05-2.3m-56.15 34.55q-16.75-3.35-33.05-11.3-.95-18.5 0-38.5.5 10.75 4.55 20.5l.05.3q-.7 6.85 1.3 13.7 6.3 5.1 13.15 7.35l14 7.95" fill="#ddb880" fill-rule="evenodd" transform="translate(-216.45 -119.5)"/><path d="m17.75 1.95 2.4-.35L25 1.05m-7.25.9Q10.8 3.15 3.8 5.4q15.45-.9 15.45 4.1Q49.2-.45 25 1.05M73.25 16.4Q80 14.25 85.15 10q-3.45-3.1-8.4-5.25 3.2 2.4 3.85 5.65-3.2 4.05-7.35 6M46.5 11l-2.65-.2q-1.9-1.6 1-2.15V8.6m0 .05V8.6m0 .05Q44.05 10 46.5 11M34 10.2l2.55 1q4.75 1.55 10.9 2.1 7.95.9 16.05-.25-8.55 1.5-17.5 1.5-5.1-1.15-9.45-3.35M36 116.6h.05l.1.05m-.1-.05.05.05M7.55 87.6l-.05-.3" fill="none" stroke="#000" stroke-linecap="round" stroke-linejoin="round" stroke-width=".05"/><path d="M.2 8.15q.65-1.5 3.6-2.75 3.5-1.55 10.1-2.8l3.85-.65m7.25-.9L47.5 0l3 .05 13.8.6 6.4.45 10.4 1.5Q95 5.25 95 9v.05l-.5 3.65q.5.85.5 2.8-2.4 48.15 0 92.5-7.2 4.5-18.05 6.95-10.05 2.45-20.7 2.95-6.85 1-14 0-8.85-.55-17.7-2.6-19.8-2.95-24.35-8.8 2.85-45 0-90 1-4.45.05-6.5L.2 9.9 0 9l.2-.85V9.9m.05.1 1.45 1.5q2.4 1.85 8.5 4.05l5.6 1.85q14.1 4.25 33.7 4.1T82 17.05t13-8m-18.75 15.2Q87.45 21.3 95 15.5m-94.8 1q25.75 11.8 53.2 10.85l3.6-.15q10.65-.65 19.25-2.95m-20 93.65.25-.05q11.45-.95 20.45-2.9Q86.25 112.6 95 108m-58.85 8.65 6.1 1.25 8.3.1 5.7-.1m-20.1-1.25H36l-11.45-1.35Q12.4 112.4.2 106.5" fill="none" stroke="#000" stroke-linecap="round" stroke-linejoin="round" stroke-width=".05"/><path d="M89.85 40.85 87.3 32.5" fill="none" stroke="#d4d0c8" stroke-linecap="round" stroke-linejoin="round" stroke-width=".05"/><path d="m227.7 174.7.5.35.35.65.4.85h-.05l-.15-.05-.8-.5-.7-.35-1.65-.9-.6-.35-.6-.15-.55-.1-.9.05.65-.15q1.4-.2 2.7.55l.55.25 1.4.65-.55-.8m-1.2-3.35q.05-1.55 1.55-2.35 1.6-.8 3.95-.55 1.3.4 2.3 1.5.9.9 1.1 1.75l.05.5-.35.95-1.05 1.25-.35.35-.1.15-.05.05.05.05.35.2.4.1.5.1 3.5 1.1 2.85 1 1.05.35 6.3 2.4q-.85.35-1.65.85l-14.3-5.3h-.05l.45-3.1q-1.7-4.4-6.5-1.35" fill="url(#b)" fill-rule="evenodd" transform="translate(-216.45 -119.5)"/><path d="m222.95 174.2.9-.05.55.1.6.15.6.35 1.65.9.7.35.8.5.15.05h.05l-.4-.85-.35-.65-.5-.35-.1-.2q-1.1-1.9-1.1-3.15 4.8-3.05 6.5 1.35l-.45 3.1h.05l14.3 5.3-2.2 1.4-3.2 2.7-2.1-.8-.9-.3-3.7-1.2-1.5-.45q-3-.9-5.6-2.3-1.1.6-2.6.85-2.95.45-5.1-1.75-.4-.4-.55-1.1-.15-.55.1-1.15l.25-.5q.9-1.3 2.4-2.05l.6-.25h.15-.15.15" fill="url(#c)" fill-rule="evenodd" transform="translate(-216.45 -119.5)"/><path d="m11.25 55.2.55.8-1.4-.65-.55-.25q-1.3-.75-2.7-.55l-.65.15h-.15.15m4.75.5-.1-.2q-1.1-1.9-1.1-3.15.05-1.55 1.55-2.35 1.6-.8 3.95-.55 1.3.4 2.3 1.5.9.9 1.1 1.75l.05.5-.35.95-1.05 1.25-.35.35-.1.15v.1l.35.2.4.1.5.1 3.5 1.1 2.85 1 1.05.35 6.3 2.4q1.05-.45 2.2-.85 1.95-.65 4.15-.65l.25.05.75.1M16.1 56.3h.05m14.3 5.3q.8-.5 1.65-.85l2.7 1.15.3.15.2.15m-18.15-6.8-.05.05.05.05m7.9 10.2-2.1-.8-.9-.3-3.7-1.2-1.5-.45q-3-.9-5.6-2.3-1.1.6-2.6.85-2.95.45-5.1-1.75-.4-.4-.55-1.1-.15-.55.1-1.15l.25-.5q.9-1.3 2.4-2.05l.6-.25m20.7 11.8-2-.8-1.6 1.55q-.4.4-.5.95m2.1-2.5 3.2-2.7 2.2-1.4 3.25 1.15" fill="none" stroke="#0d2608" stroke-linecap="round" stroke-linejoin="round" stroke-opacity=".4" stroke-width=".05"/><path d="M236 187.9q0-1.95 2.5-5.9 2.5-4 4.75-4.85 6.2-1.55 12.7-2.2l10-.55 10.05.55q10.8 2.2 18.15 5 8.9 3.35 9.35 6.4l.05 1.45-.35 3.15-.3 1.1q-6.55 7.3-17.2 6.15l-16.15-1.2-10.45-1.75q-8.25-1.65-17.5-4.25l-3.05-1q-.85-.45-2.55-2.1m40-1.4q-1.3.35-1.3 1 0 .6 1.25 1.15l2.9.5 2.75-.25q1.1-.35 1.15-.95.05-.55-1-1-1.1-.5-2.75-.65l-3 .2m-6.1 8.8 2.25.3 12.3 1.05q10.65.5 16-5.25 1.45-3.25.35-5.1-2.9-5.2-25.25-9.75-13.9-1.4-27.35 2.1-5.6 2.5-7.95 6-.85 1.3-1.25 2.75l2 .7.7.2q10.1 3.35 19.25 5.35l2.25.45 6.7 1.2m8.9-4.5q-3.35-.1-5.9-1-2.8-1.05-2.8-2.4-.05-1.35 2.8-2.1l6.2-.35q3.25.3 5.3 1.35 1.9.9 1.8 2.05-.1 1.05-2.15 1.8-2.1.7-5.25.65" fill="#ffffe1" fill-rule="evenodd" transform="translate(-216.45 -119.5)"/><path d="m276 186.5 3-.2q1.65.15 2.75.65 1.05.45 1 1-.05.6-1.15.95l-2.75.25-2.9-.5q-1.25-.55-1.25-1.15 0-.65 1.3-1m2.8 4.3q3.15.05 5.25-.65 2.05-.75 2.15-1.8.1-1.15-1.8-2.05-2.05-1.05-5.3-1.35l-6.2.35q-2.85.75-2.8 2.1 0 1.35 2.8 2.4 2.55.9 5.9 1m-8.9 4.5-6.7-1.2-2.25-.45q-9.15-2-19.25-5.35l-.7-.2-2-.7q.4-1.45 1.25-2.75 2.35-3.5 7.95-6 13.45-3.5 27.35-2.1 22.35 4.55 25.25 9.75 1.1 1.85-.35 5.1-5.35 5.75-16 5.25l-12.3-1.05-2.25-.3m14.55-2.65-7.8.5q3.55 1.55 7.6 1.2h.1q3.4-.6 5.15-3.45l-5.05 1.75m.35-10.4q-7.3-3.85-16.15-4.4-12.25 1.5-18.1 6.25 13.55-6.7 34.25-1.85" fill="url(#d)" fill-rule="evenodd" transform="translate(-216.45 -119.5)"/><path d="m259.1 195.25 10.45 1.75 6.25 10q-2.15-.05-6.2-1l-6.5-1.3-4-9.45" fill="#f7e086" fill-rule="evenodd" transform="translate(-216.45 -119.5)"/><path d="M236 187.9q1.7 1.65 2.55 2.1l3.05 1q9.25 2.6 17.5 4.25l4 9.45q-3.7-.45-12.95-3.8l-10.45-3.7q0-2.6-.85-4.35l-2.95-4.9.1-.05" fill="url(#e)" fill-rule="evenodd" transform="translate(-216.45 -119.5)"/><path d="m269.55 197 16.15 1.2q10.65 1.15 17.2-6.15v.25l-1.45 6.1q-5.75 7.8-17.95 8.7l-7.7-.1-6.25-10" fill="#fcf3ba" fill-rule="evenodd" transform="translate(-216.45 -119.5)"/><path d="M284.8 182.25q-20.7-4.85-34.25 1.85 5.85-4.75 18.1-6.25 8.85.55 16.15 4.4m-.35 10.4 5.05-1.75q-1.75 2.85-5.15 3.45h-.1q-4.05.35-7.6-1.2l7.8-.5" fill="#ed2323" fill-rule="evenodd" transform="translate(-216.45 -119.5)"/><path d="m86.45 72.55.3-1.1.35-3.15-.05-1.45q-.45-3.05-9.35-6.4-7.35-2.8-18.15-5L49.5 54.9l-10 .55q-6.5.65-12.7 2.2-2.25.85-4.75 4.85-2.5 3.95-2.5 5.9 1.7 1.65 2.55 2.1l3.05 1q9.25 2.6 17.5 4.25L53.1 77.5l16.15 1.2q10.65 1.15 17.2-6.15h.05l-.05.25L85 78.9q-5.75 7.8-17.95 8.7l-7.7-.1q-2.15-.05-6.2-1l-6.5-1.3q-3.7-.45-12.95-3.8l-10.45-3.7q0-2.6-.85-4.35l-2.95-4.9-.05-.1.15.05-.1.05M59.55 67q-1.3.35-1.3 1 0 .6 1.25 1.15l2.9.5 2.75-.25q1.1-.35 1.15-.95.05-.55-1-1-1.1-.5-2.75-.65l-3 .2m2.8 4.3q3.15.05 5.25-.65 2.05-.75 2.15-1.8.1-1.15-1.8-2.05-2.05-1.05-5.3-1.35l-6.2.35q-2.85.75-2.8 2.1 0 1.35 2.8 2.4 2.55.9 5.9 1m-8.9 4.5-6.7-1.2-2.25-.45q-9.15-2-19.25-5.35l-.7-.2-2-.7q.4-1.45 1.25-2.75 2.35-3.5 7.95-6 13.45-3.5 27.35-2.1 22.35 4.55 25.25 9.75 1.1 1.85-.35 5.1-5.35 5.75-16 5.25L55.7 76.1l-2.25-.3m33-3v-.25z" fill="none" stroke="#0d2608" stroke-linecap="round" stroke-linejoin="round" stroke-opacity=".4" stroke-width=".05"/><path d="M253.7 142.85v95.95q-15.4-.9-31.9-6.05V135.8q15.3 5.8 31.9 7.05" fill="#fff" fill-opacity=".424" fill-rule="evenodd" transform="translate(-216.45 -119.5)"/><path d="M308.4 136.8q-3.85 46.35 0 91.95-6.5 3.7-15.2 6.25v-91.1q8-2.25 15.2-7.1" fill-opacity=".431" fill-rule="evenodd" transform="translate(-216.45 -119.5)"/></g></defs></svg>