<svg viewBox="0 0 38.72 54.815" xmlns="http://www.w3.org/2000/svg" xmlns:xlink="http://www.w3.org/1999/xlink"><use transform="translate(-.01)" width="38.7" height="54.8" xlink:href="#a"/><defs><g id="a"><path d="M150.1 173.95q-.7 2.6-.85 4.5l.05 13.3q-2-3.45-3.95-9.4l-1.8-5.35q-1.25-.7-2.8-.75 0-.55.65-.6 1.4-.05 2.05.9-.4-.65-.25-1.45.1-.45.5-.6l.45-.1q.25-.05.35.2v.9l1.55.2-.4-.15q-.65-.35-.65-.95l.1-.3q.15-.5.9-.25 1.2.4 1.95 1.55l.05-.3q.1-1.15 1.1-1.35h1m-2.7-14.45 2.5.45q.8.35.7.9l-1.6.95-2.55.35-.95-.85q1.75-1.2 1.9-1.8m-8.15 9.4.65 3.4-.05.7v.45l.2 1.65.05.3.15.4-.2.5q-.75 0-1.2.25l.1-2.95-.1-2.8q-.05-1.2-.55-2.05l-.05-.05v-.85l.15-3.55.85 4.6" fill="#450303" fill-rule="evenodd" transform="translate(-124.65 -158.6)"/><path d="m135.9 169 .1-1.15.75-7.45q.25-.7 1.75-1.3l2.4-.45 6.65.05q1.55.15 2.5.6h.1q.85.35 1.35 1l.25.4 1 6.95.1.8h-.25l-.4 1.5q-.8-.75-.9.1l-.2.45-.2.25-.75.3q-.5 0-1-.55.15.75-.5 1.2l-.5.25q-1.25.35-1.85-.55.15.8-.55 1.05-1.4.45-1.75-.9.05.55-.45.95-1.1.3-1.55-.35l-.05.35-.8.35-.85-.1.25-.4q.65-.95-.2-1.85l-.5-.65q.75.5 1.55.65l1.9.2 1.9-.2 1.75-.7.25-.15.6.1 1.8-.35q.85-.3 1.5-.8.75-.55 1.65-.95-.9.4-1.65.95-.65.5-1.5.8l-1.8.35-.6-.1-.25.15-1.75.7-1.9.2-1.9-.2q-.8-.15-1.55-.65l-.2-.35-.4-.6-.85-4.6-.15 3.55-.05.8v.6l-.05 1.15-.75.65q-.1-.45-.05-1.05v-.05q-.05.75-.75.7l-.35-.15q-.4-.55-.25-1.5h-.1m.1-1.15.5.4q.45.75 1.7 1-1.25-.25-1.7-1l-.5-.4m10.45-5.7 2.55-.35 1.6-.95q.1-.55-.7-.9l-2.5-.45-3.3-.05q-1.15 1.95-5.5 1.8.75.6 1.65.75h.15l6.05.15m-8.3-1.35.45.45-.45-.45m9.05 8.85q.7-.55.2-1.35l-.3-.3q-1.05-.3-.65.75.25.65.75.9-.5-.25-.75-.9-.4-1.05.65-.75l.3.3q.5.8-.2 1.35m-6.1-10.2q1.5-.2 3 0-1.5-.2-3 0" fill="#d00909" fill-rule="evenodd" transform="translate(-124.65 -158.6)"/><path d="m149.3 191.75.25 2.7-.2.25-3.9 1.25-3.55-2.15-.7-5.9q-.15 1.45-3 4.2l-.1-.05.55-1.8q.55-.7.35-5.15l-.05-1.15-.25-5.3-.55-1.45q.2-.4.7-.65v.1-.1q.45-.25 1.2-.25l.3-.05h.1l.5.6-.15-.35-.05-.25q1.55.05 2.8.75l1.8 5.35q1.95 5.95 3.95 9.4m-1.9-32.25q-.15.6-1.9 1.8l.95.85-6.05-.15h-.15q-.9-.15-1.65-.75 4.35.15 5.5-1.8l3.3.05m-6.9 25.05-.1-.8.15-5.95-.15 5.95.1.8q.2.9 1.1 1 2.1.2.95-1.65 1.15 1.85-.95 1.65-.9-.1-1.1-1l-.4.05.4-.05m-1.55-.6q.4.7 1.15.65-.1 1.05.15 1.95-.25-.9-.15-1.95-.75.05-1.15-.65" fill="#9d0606" fill-rule="evenodd" transform="translate(-124.65 -158.6)"/><path d="M153.3 170.2q.2.65.8.7-.9.1-1 1.2-.05.4.05.7l.1.55q-.5-.8-1.35-.2l.1.05h-.2l-.25.3q-.3.55-.35 1.2-.45-.65-1.1-.75h-1q-1 .2-1.1 1.35l-.05.3q-.75-1.15-1.95-1.55-.75-.25-.9.25l-.1.3q0 .6.65.95l.4.15-1.55-.2v-.9q-.1-.25-.35-.2l-.45.1q-.4.15-.5.6-.15.8.25 1.45-.65-.95-2.05-.9-.65.05-.65.6l.05.25.15.35-.5-.6-.2-.45-.15-.4-.05-.3-.2-1.65V173h.15l-.1-.7-.65-3.4.4.6.2.35.5.65q.85.9.2 1.85l-.25.4.85.1.8-.35.05-.35q.45.65 1.55.35.5-.4.45-.95.35 1.35 1.75.9.7-.25.55-1.05.6.9 1.85.55l.5-.25q.65-.45.5-1.2.5.55 1 .55l.75-.3.2-.25.2-.45q.1-.85.9-.1l.4-1.5.35.8.15.95h.2m-15.4 4.8-.55-.3q0 .55-.55.8.05-.85.55-.8l-.1-.4q-.15-.6-.7-.55-1.2.1-1.25 1.3l.1-1.2q.2-1.8-1.4-2.2l.95-.75.95-1.6.1-.3q-.15.95.25 1.5l.35.15q.7.05.75-.7v.05q-.05.6.05 1.05l.75-.65.1-.75v-.95l.05.05q.5.85.55 2.05l.1 2.8-.1 2.95q-.25-.95-.9-1.5V175h-.05m13.9-1.8.05-.05h.05-.05l-.05.05" fill="#fff" fill-rule="evenodd" transform="translate(-124.65 -158.6)"/><path d="m152.85 168.45.1.8-.35-.8h.25m-16.95.85v-.3h.1l-.1.3m2.95 7.25v.1-.1" fill="#643265" fill-rule="evenodd" transform="translate(-124.65 -158.6)"/><path d="m138.15 177.2-.2-2.15q.65.55.9 1.5-.5.25-.7.65m0-6.8.05-1.15v-.6l.05-.8v.85l-.05-.05.05.05v.95l-.1.75m1.75 1.9.1.7h-.15l.05-.7m.35 3.5.2.45h-.1l-.3.05.2-.5" fill="#1f101f" fill-rule="evenodd" transform="translate(-124.65 -158.6)"/><path d="m124.75 199.1.1-.6q0-1.45 1.9-2.5 2.85-1.3 7.25-1.6l1.55-.9v-.05l1.95-1.1q1.8 1.95 4.3 3.2-1.55 2.15-5.6 3l-.65.2-3.3.95-.6.15-2.15.35h-.95q-1.95.1-3.8-1.1" fill="#fef2cf" fill-rule="evenodd" transform="translate(-124.65 -158.6)"/><path d="M149.35 194.7q.4 1.8.3 4.35l-.15.5q-1.35.95-3 1.45l-3.75.6-11.35 1.85q-3.7-.35-5.2-1.15l-.65-.5q-.65-.8-.8-1.75v-.95q1.85 1.2 3.8 1.1h.95l2.15-.35.6-.15 3.3-.95.65-.2q4.05-.85 5.6-3-2.5-1.25-4.3-3.2l.6-.3-.05.2.15-.15q2.85-2.75 3-4.2l.7 5.9 3.55 2.15 3.9-1.25" fill="#b8891d" fill-rule="evenodd" transform="translate(-124.65 -158.6)"/><path d="m149.5 199.55-.35 1.45q-1 .6-2.15 1l-.25.1-3.75.65-11.6 1.9-.15-.05q-4.8-.55-5.6-1.55l-.1-.05-.15-.2-.45-.8q-.35-.8-.2-1.95.15.95.8 1.75l.65.5q1.5.8 5.2 1.15l11.35-1.85 3.75-.6q1.65-.5 3-1.45" fill="#533e0d" fill-rule="evenodd" transform="translate(-124.65 -158.6)"/><path d="M125.65 203.05h-.05l-.05-.05.1.05" fill="#c99f16" fill-rule="evenodd" transform="translate(-124.65 -158.6)"/><path d="m11.25 10.4.1-1.15.75-7.45q.25-.7 1.75-1.3l2.4-.45L22.9.1q1.55.15 2.5.6h.1q.85.35 1.35 1l.25.4 1 6.95.2 1.6m-2.85 4.7q-.7 2.6-.85 4.5l.05 13.3.25 2.7-.2.25q.4 1.8.3 4.35v.45l-.15.05-.35 1.45q-1 .6-2.15 1l-.25.1-3.75.65-11.6 1.9L6.6 46q-4.8-.55-5.6-1.55H.95L.9 44.4l-.15-.2-.45-.8q-.35-.8-.2-1.95v-.95l.1-.6q0-1.45 1.9-2.5 2.85-1.3 7.25-1.6l1.55-.9m0-.05 1.95-1.1.6-.3.55-1.8q.55-.7.35-5.15l-.05-1.15-.25-5.3-.55-1.45-.2-2.15v-.05m-2.05-5.7v-.3M21.8 3.55l2.55-.35 1.6-.95q.1-.55-.7-.9L22.75.9l-3.3-.05q-1.5-.2-3 0m5.35 2.7-6.05-.15h-.15q-.9-.15-1.65-.75l-.45-.45m.05 31.3q2.85-2.75 3-4.2l.7 5.9 3.55 2.15 3.9-1.25m-11.15-2.6-.15.15.05-.2m11.4 7.5.15-.5m-24.9 1q.15.95.8 1.75l.65.5q1.5.8 5.2 1.15L18.1 43l3.75-.6q1.65-.5 3-1.45" fill="none" stroke="#450303" stroke-linecap="round" stroke-linejoin="round" stroke-width=".1"/><path d="m28.3 10.65.35.9v.05q.2.65.8.7-.9.1-1 1.2-.05.4.05.7l.1.55q-.5-.8-1.35-.2h-.05l-.05.05-.25.3q-.3.55-.35 1.2-.45-.65-1.1-.75m-12.15 1.1-.05-.05-.55-.3q0 .55-.55.8.05-.85.55-.8l-.1-.4q-.15-.6-.7-.55-1.2.1-1.25 1.3l.1-1.2q.2-1.8-1.4-2.2l.95-.75.95-1.6m.1-.3q-.15.95.25 1.5l.35.15q.7.05.75-.7v.05q-.05.6.05 1.05l.75-.65m1.7-.55.5.65q.85.9.2 1.85l-.25.4.85.1.8-.35.05-.35q.45.65 1.55.35.5-.4.45-.95.35 1.35 1.75.9.7-.25.55-1.05.6.9 1.85.55l.5-.25q.65-.45.5-1.2.5.55 1 .55l.75-.3.2-.25.2-.45q.1-.85.9-.1l.4-1.5.35.8m-13.1.6-.2-.35-.4-.6m.6 4.1v.45l.2 1.65.05.3.15.4.2.45.5.6-.15-.35-.05-.25q0-.55.65-.6 1.4-.05 2.05.9-.4-.65-.25-1.45.1-.45.5-.6l.45-.1q.25-.05.35.2v.9l1.55.2-.4-.15q-.65-.35-.65-.95l.1-.3q.15-.5.9-.25 1.2.4 1.95 1.55l.05-.3q.1-1.15 1.1-1.35h1m-14.1-4.95-.1.3m2.35-.6.05.05q.5.85.55 2.05l.1 2.8-.1 2.95q-.25-.95-.9-1.5m2.1 1.25.2-.5m-2-7.95v.85l-.05-.05m.05.05v.95l-.1.75m1.7 2.6.05-.7m-1.05 4.25v.1-.1" fill="none" stroke="#450303" stroke-linecap="round" stroke-linejoin="round" stroke-width=".05"/><path d="M13.55 10.65q-1.25-.25-1.7-1l-.5-.4m16.75-.2q-.9.4-1.65.95-.65.5-1.5.8l-1.8.35-.6-.1-.25.15-1.75.7-1.9.2-1.9-.2q-.8-.15-1.55-.65m7.35-.2q-.5-.25-.75-.9-.4-1.05.65-.75l.3.3q.5.8-.2 1.35m-6.95 16.9q-.25-.9-.15-1.95-.75.05-1.15-.65m3.6-.05q1.15 1.85-.95 1.65-.9-.1-1.1-1l-.4.05m.45-6.8-.15 5.95.1.8" fill="none" stroke="#fad24e" stroke-linecap="round" stroke-linejoin="round" stroke-width=".5"/><path d="m13.5 11.8.05-1.15M22.75.9q-.15.6-1.9 1.8m-6.25 7.6.65 3.4.1.7m-1.8-4.35v.6m0-.6.05-.8.15-3.55.85 4.6" fill="none" stroke="#350035" stroke-linecap="round" stroke-linejoin="round" stroke-width=".1"/><path d="m158.6 169-3.5.85 1.7-.45q.6-.15.85-.5l.95.1m1.35 3.35h-.05l.05-.05v.05m-5.75 2.75v.15l-.1-.05.1-.1" fill="#86578e" fill-rule="evenodd" transform="translate(-124.65 -158.6)"/><path d="m147 162.8.25.05-.15.1-.1-.15m.85 12.4-.05-.1.1.1h-.05" fill="#7e513d" fill-rule="evenodd" transform="translate(-124.65 -158.6)"/><path d="m147.25 162.85-.1.15-.05-.05.15-.1" fill="#6f4635" fill-rule="evenodd" transform="translate(-124.65 -158.6)"/><path d="m156.55 189.85.15.65 1.3 5.25v.05l.15.9q-.1-.45-.1.25v.05l-.6-1.15v-.1q-.45-1.5-.85-5.4l-.05-.5m-9.4-26.85.1-.15-.05.15h-.05m2.05 8q-.05.85-.5 1.65l-.25.55.75-2.2m7.5 19.5-.1-.15.1.15m-1.65-13.7q.35.5.7.5l-.75.05.05-.55" fill="#1f101f" fill-rule="evenodd" transform="translate(-124.65 -158.6)"/><path d="m154.05 162.6.15-.1v.05l-.15.05" fill="#472547" fill-rule="evenodd" transform="translate(-124.65 -158.6)"/><path d="M161.95 171.3h.05q.4 1.2 1.35 1.8-1.8-.45-1.6 1.4-.15-.45-.7-1-1.35 1.4-.15 2.15l-.85.35q-.25-1.05-.6-1.15-.3-.05-.7.5-.25-.7-1.3.1-.6.45-.15 1.25-1.65-2.15-2.25.1l-.1.55-.75-.2-.45.15q-.65.25-1.05.6.5-.5.6-1.3l-.05-.9-.4-2.45-.2-1.7.45.7.15.65q-.3.8-.05 1.4.25.55.9.9l.1.05v-.15l-.3-.8 1.35-.15q.45-.3.5-1.1 1 .55 1.6.3.7-.2.9-1.2.95.5 1.65.2h.05v-.05q.7-.4 1-1.55l1 .55m-13.5 1.9-.2.55-.2 1.15-.05.15q-.15 1.5.35 3-.65-1.1-1.3-1.2l-.2-.05q-.4.1-.7.5l-.3-1.3q-.85-1.95-1.55.1 0-.8-.65-1l.85-.85q.15-.4-.05-.7l-1.1.05q.45-1.15-.7-1.4.5-.8 1.05-1.15l.15.15.05-.3q.5-.3.9-.35 0 1.15.35 1.5.4.25 1-.25-.55 1.9 1 2.05-.5.05-.4.55v.05h.05l.05.2.6-.45.5-1.15q.2-1.4.9-2.3l.4-.5-.05.75-.75 2.2m-2 1.45.05.1v-.05l-.05-.05m1.4.55h.05l-.1-.1.05.1m.2 31.9q.6 2.2 3.9 1.6-1.4 2.2-4.1.65-1.8-1.1-2.15-2.6l-.05-.95q.1-.4.5-.5 1.3-.35 1.65.75l.25 1.05" fill="#fff" fill-rule="evenodd" transform="translate(-124.65 -158.6)"/><path d="m150.4 172.25.15-.15.05.05-.2.1" fill="#424" fill-rule="evenodd" transform="translate(-124.65 -158.6)"/><path d="m156.6 190.35-.15-.2-.05-.05.15-.25.05.5" fill="#643265" fill-rule="evenodd" transform="translate(-124.65 -158.6)"/><path d="M155 177.35h-.05l.1-.55-.05.55" fill="#edf1ef" fill-rule="evenodd" transform="translate(-124.65 -158.6)"/><path d="m146.45 174.65.05.05v.05l-.05-.1" fill="#a1664c" fill-rule="evenodd" transform="translate(-124.65 -158.6)"/><path d="m146.5 174.75-.05-.1.05.1m.1 19.9.8.55.6-1.1 1.25-1.6 2.25-2.1.25-.25h.15l.05.05 1 .3-.15.55q-.5-.3-1-.3-1.15.75-2.25 2l-1.15 1.55-1.1 1.8-.05.1-.55 1.65-.1-3.2m10.35 1.45.5-.3v.05l.6 1.15v.05l-.25 1.6v-.35l-.05-.15v.2l-.45-1.65-.3-.55-.05-.05" fill="#2f1830" fill-rule="evenodd" transform="translate(-124.65 -158.6)"/><path d="M157.8 198.65v.05h-.05l.05-.05-.05.05v-.35l.05.05v.25m-.05.05.05-.25-.05.25" fill="#5b2709" fill-rule="evenodd" transform="translate(-124.65 -158.6)"/><path d="m154.8 202 .05.15v.05l.05 1.15-.1-1.2V202m-5.35 5.65-.35-.05-.6-.3.95.35" fill="#7e360c" fill-rule="evenodd" transform="translate(-124.65 -158.6)"/><path d="M154.55 204.8h.1v.05l-.1-.05m-2.4 2.5h-.05v-.05l.05.05" fill="#505c5f" fill-rule="evenodd" transform="translate(-124.65 -158.6)"/><path d="m158.15 202.5.35 1.5h-.25l-.1-1.5m-14.05 2.1.25-.8.65-1.4-.5 1.4v.05l-.2.75h-.2" fill="#481f06" fill-rule="evenodd" transform="translate(-124.65 -158.6)"/><path d="m159.45 174.85-2.9 15-.15.25q-.9-1-2.3-1.2-2.1-.25-3.35-1.05l2.5-1q1.8-.7 3-1.7l-.2-6.15-1.1.1-1.2-1.8.45-.15.75.2h.05l.75-.05q-.35 0-.7-.5.6-2.25 2.25-.1-.45-.8.15-1.25 1.05-.8 1.3-.1.4-.55.7-.5M147.2 163l.05-.15 4.4.15 2.4-.4.15-.05 1.6-.8.8-.85.15-.2q1.85.35 1.7 1.45l-1.6 1.1-2.55.4-.8.05h-1.9l-1.4-.2-3-.5m3.5 3.85v-1.5l1.3 4.75.85 3.15.4 2.45.05.9-2.9-4.35-2.35 2.65.2-1.15.2-.55.25-.55q.45-.8.5-1.65l.55-1.45.95-2.7m-.3 5.4.2-.1-.05-.05-.15.15m2.55 18.25q2.05 1.05 4.5 5.25v.05l-.5.3q-2.5-4-4.15-5.05l.15-.55" fill="#450303" fill-rule="evenodd" transform="translate(-124.65 -158.6)"/><path d="M154.2 162.5q.4-.4.4-.95l-.1-.5-.55-.65 2.8.3-.15.2-.8.85-1.6.8v-.05m-6.15 12.4 2.35-2.65 2.9 4.35q-.1.8-.6 1.3l-.15 5.75v.35l-.05.4.05-.75-.05.75.05-.4v-.35l.15-5.75q.4-.35 1.05-.6l1.2 1.8 1.1-.1.2 6.15q-1.2 1-3 1.7l-2.5 1q1.25.8 3.35 1.05 1.4.2 2.3 1.2l.05.05.15.2q.4 3.9.85 5.4-2.45-4.2-4.5-5.25l-1-.3-.05-.05h-.15l-.25.25-2.25 2.1-1.25 1.6-.6 1.1-.8-.55 2.2-5.3-1.95-12.55.2.05q.65.1 1.3 1.2-.5-1.5-.35-3l.05-.15m3 9.25-.6.25q-.25 1.15.7 1.3.7.1.95-.4l.4-.9-.05.75.05 2-.05-2 .05-.75-.4.9q-.25.5-.95.4-.95-.15-.7-1.3l.6-.25m3.55.85q.65.5-.25.85-1 .4-1.45-.55l-.3-.95-.05-.35.05.35.3.95q.45.95 1.45.55.9-.35.25-.85" fill="#9d0606" fill-rule="evenodd" transform="translate(-124.65 -158.6)"/><path d="m144.3 167.95.3-2.6.5-3.85q.2-.8 1.75-1.6 1.7-.95 8.1-.55 3.55.3 4.6 2l.25.55 1.75 5.6.3 1.1.1 2.7-1-.55q-.3 1.15-1 1.55l-.05.05q-.7.3-1.65-.2-.2 1-.9 1.2-.6.25-1.6-.3-.05.8-.5 1.1l-1.35.15.3.8-.1.1q-.65-.35-.9-.9-.25-.6.05-1.4l-.15-.65-.45-.7.2 1.7-.85-3.15-1.3-4.75v1.5l-.95 2.7-.55 1.45.05-.75-.4.5q-.7.9-.9 2.3l-.5 1.15-.6.45-.05-.2h-.05v-.05q-.1-.5.4-.55-1.55-.15-1-2.05-.6.5-1 .25-.35-.35-.35-1.5-.4.05-.9.35l.35-2.8.05-.15m2.85-4.95h.05l3 .5 1.4.2h1.9l.8-.05 2.55-.4 1.6-1.1q.15-1.1-1.7-1.45l-2.8-.3.55.65.1.5q0 .55-.4.95l-.15.1-2.4.4-4.4-.15-.25-.05.1.15.05.05m-.15-.2-.65-.7.65.7m4.05-2.4h2.9-2.9m-4.9 7.1.35.05q.95-.15.65-1.4-.1-.6-.55-.2-.7.55-.45 1.55.2.75.8 1.35l-.65-.55q-.7-.55-1-1.5l-.7-1.45.7 1.45q.3.95 1 1.5l.65.55q-.6-.6-.8-1.35-.25-1 .45-1.55.45-.4.55.2.3 1.25-.65 1.4l-.35-.05m.8 1.35h.05l.05.05.65.35 2.05.3-2.05-.3-.65-.35-.05-.05h-.05m9.65-1.5q.15-.9.95-.6.9.3.5 1.5l-.4.65-.25-.1q-.95-.35-.8-1.45-.15 1.1.8 1.45l.25.1.4-.65q.4-1.2-.5-1.5-.8-.3-.95.6m2 1.65.3-.1 1.65-.85q.65-.5 1-.55-.35.05-1 .55l-1.65.85-.3.1-.95-.1q-.25.35-.85.5l-1.7.45 3.5-.85m-6.6 1.1 1.5-.15 1.6-.1-1.6.1-1.5.15" fill="#d00909" fill-rule="evenodd" transform="translate(-124.65 -158.6)"/><path d="m145 202.4 1.7-4.55.55-1.65.05-.1 1.1-1.8 1.15-1.55q2.4-.55 3.75 1.55 1.4 2.3 1.65 4.85l-.15 2.85v.15q-2.15 4-7 3.9-.35-1.1-1.65-.75-.4.1-.5.5h-.1l-1.25-1.2.2-.75v-.05l.5-1.4" fill="#fef2cf" fill-rule="evenodd" transform="translate(-124.65 -158.6)"/><path d="m154.9 203.35-.05.1v.1l-.3 1.25.1.05q-.85 1.6-2.5 2.45l-.05-.05-1.1.3-1.55.1-.95-.35-.45-.2-.25-1.05q4.85.1 7-3.9l.1 1.2" fill="#f3df9c" fill-rule="evenodd" transform="translate(-124.65 -158.6)"/><path d="M158.5 204q1.75 8.25-4.25 9.1-6.45.9-8.35-1-1.95-2-2.1-4.05-.2-1.8.3-3.45h.2q-.35 2.7 1.85 5.3 2.5 2.35 6.2 1.8 6.55-.9 5.9-7.7h.25" fill="#533e0d" fill-rule="evenodd" transform="translate(-124.65 -158.6)"/><path d="M149.55 192.75q1.1-1.25 2.25-2 .5 0 1 .3 1.65 1.05 4.15 5.05l.05.05.3.55.45 2h.05l.35 3.8.1 1.5q.65 6.8-5.9 7.7-3.7.55-6.2-1.8-2.2-2.6-1.85-5.3l1.25 1.2h.1l.05.95q.35 1.5 2.15 2.6 2.7 1.55 4.1-.65-3.3.6-3.9-1.6l.45.2.6.3.35.05 1.55-.1 1.1-.3v.05h.05q1.65-.85 2.5-2.45v-.05h-.1l.3-1.25v-.1l.05-.1-.05-1.15v-.05l-.05-.15.15-2.85q-.25-2.55-1.65-4.85-1.35-2.1-3.75-1.55" fill="#a77c1b" fill-rule="evenodd" transform="translate(-124.65 -158.6)"/><path d="m19.95 6.75.7 1.45q.3.95 1 1.5l.65.55q-.6-.6-.8-1.35-.25-1 .45-1.55.45-.4.55.2.3 1.25-.65 1.4l-.35-.05m3.6 2.05-2.05-.3-.65-.35-.05-.05h-.05m5.6 14.8-.05.75.05-.4v-.35l.15-5.75m-.15 6.1.05.35.3.95q.45.95 1.45.55.9-.35.25-.85m-2.1 2.15-.05-2 .05-.75-.4.9q-.25.5-.95.4-.95-.15-.7-1.3l.6-.25m5.55-16.8q-.15 1.1.8 1.45l.25.1.4-.65q.4-1.2-.5-1.5-.8-.3-.95.6m4.95.15q-.35.05-1 .55l-1.65.85-.3.1-3.5.85-1.6.1-1.5.15m3.1-.25 1.7-.45q.6-.15.85-.5l.95.1" fill="none" stroke="#fad24e" stroke-linecap="round" stroke-linejoin="round" stroke-width=".5"/><path d="M22.5 4.4h.05l3 .5 1.4.2h1.9l.8-.05 2.55-.4 1.6-1.1q.15-1.1-1.7-1.45m-9.75 2.1.1.15.05.05m6.8-2.6h-2.9m-4.7 1.7.65.7m6.95-2.4 2.8.3m3.2 11.65h-.05" fill="none" stroke="#350035" stroke-linecap="round" stroke-linejoin="round" stroke-width=".1"/><path d="m19.65 9.35.3-2.6.5-3.85q.2-.8 1.75-1.6 1.7-.95 8.1-.55 3.55.3 4.6 2l.25.55 1.75 5.6.3 1.1.1 2.7h.05q.4 1.2 1.35 1.8-1.8-.45-1.6 1.4-.15-.45-.7-1-1.35 1.4-.15 2.15l-.85.35q-.25-1.05-.6-1.15l-2.9 15 .15.65 1.3 5.25v.05l.15.9M26.05 8.25l-.95 2.7-.55 1.45q-.05.85-.5 1.65l-.25.55-.2.55-.2 1.15m5.25 1.7-.05-.9-.4-2.45-.85-3.15-1.3-4.75m-1.5 5.65.05-.75-.4.5q-.7.9-.9 2.3l-.5 1.15-.6.45-.05-.2h-.05v-.05q-.1-.5.4-.55-1.55-.15-1-2.05-.6.5-1 .25-.35-.35-.35-1.5-.4.05-.9.35l-.2.15q-.55.35-1.05 1.15 1.15.25.7 1.4l1.1-.05q.2.3.05.7l-.85.85q.65.2.65 1 .7-2.05 1.55-.1l.3 1.3q.3-.4.7-.5l.2.05q.65.1 1.3 1.2-.5-1.5-.35-3l.05-.15m1.15-3.9-.75 2.2m-4.55-2.3.35-2.8m8.45 9.8q.5-.5.6-1.3m.45.7q-.65.25-1.05.6m3.9 12.45-.15-.2-.05-.05m.2.25.1.15m-10.1 4.15 2.2-5.3L22.2 18.2m13.05-4.45q-.7.3-1.65-.2-.2 1-.9 1.2-.6.25-1.6-.3-.05.8-.5 1.1l-1.35.15.3.8v.15l-.1-.05q-.65-.35-.9-.9-.25-.6.05-1.4l-.15-.65-.45-.7.2 1.7m7.1-.95-.05.05m.05-.05q.7-.4 1-1.55l1 .55m-2.5 3.55q-.3-.05-.7.5-.25-.7-1.3.1-.6.45-.15 1.25-1.65-2.15-2.25.1.35.5.7.5l-.75.05h-.05l-.75-.2-.45.15m-4.2 15.45q1.1-1.25 2.25-2 .5 0 1 .3 1.65 1.05 4.15 5.05l.05.05.3.55.45 1.65v-.2l.05.15v.35l-.05.05v-.35l.05.05m.25-1.45v.1l-.25 1.6v.05l.35 3.8.35 1.5q1.75 8.25-4.25 9.1-6.45.9-8.35-1-1.95-2-2.1-4.05-.2-1.8.3-3.45l.25-.8.65-1.4 1.7-4.55-.1-3.2M19.65 46q-.35 2.7 1.85 5.3 2.5 2.35 6.2 1.8 6.55-.9 5.9-7.7l-.1-1.5m-.4-3.8-.45-2m.5 1.75-.05.25m-8.2-5.95-1.15 1.55-1.1 1.8-.05.1-.55 1.65m-1.7 4.55-.5 1.4v.05l-.2.75" fill="none" stroke="#450303" stroke-linecap="round" stroke-linejoin="round" stroke-width=".05"/></g></defs></svg>