<svg viewBox="0 0 173.09 110.49" xmlns="http://www.w3.org/2000/svg" xmlns:xlink="http://www.w3.org/1999/xlink"><g transform="translate(-322.86 -162.46)"><use transform="matrix(1 0 0 .4162 322.95 200.95)" width="173" height="173" xlink:href="#a"/><use transform="matrix(.8986 .0816 0 .8953 322.86 151.8)" width="133.85" height="98.55" xlink:href="#b"/><use transform="translate(356.05 164.75)" width="133.85" height="98.55" xlink:href="#b"/></g><defs><g id="b" transform="translate(.1 .05)"><use transform="matrix(.179 -.4374 .452 .3558 37.232 33.599)" width="76.95" height="51.7" xlink:href="#e"/><use transform="translate(-.1 34.35)" width="133.85" height="64.15" xlink:href="#f"/><use transform="matrix(.3549 -.4527 .4109 .5668 60.012 39.075)" width="76.95" height="51.7" xlink:href="#e"/></g><g id="g"><path d="M47.3.65q10.4 1.5 18.4 6.9l.5.35-19.7 9.25-7.25 3.4-9.65 1.75L17.3 25 47.3.65m-13.2 50.7q-11.5-.9-20.3-7.4Q5 37.5.25 28.75l9.25-2 24.6 24.6" fill="#5c7b7b" fill-opacity=".502" fill-rule="evenodd" transform="translate(-.15 .1)"/><path d="M66.2 7.9Q77 15.35 77 25.75q0 3.15-1 6.05L46.5 17.15 66.2 7.9m-3.35 37.8q-10.4 5.8-24.35 5.8l-3.95-.1-.45-.05-24.6-24.6L17.3 25l12.3-2.7 33.25 23.4" fill="#768c8c" fill-opacity=".522" fill-rule="evenodd" transform="translate(-.15 .1)"/><path d="M76 31.8q-2.35 6.85-10.3 12.15L63 45.6l-.15.1L29.6 22.3l9.65-1.75 7.25-3.4L76 31.8M.25 28.75q.3-1.45 2.5-7.55t11-13.65T38.5 0l8.8.65L17.3 25l-7.8 1.75-9.25 2" fill="#95a2a2" fill-opacity=".502" fill-rule="evenodd" transform="translate(-.15 .1)"/><path d="M47.15.75q10.4 1.5 18.4 6.9l.5.35q10.8 7.45 10.8 17.85 0 3.15-1 6.05-2.35 6.85-10.3 12.15l-2.7 1.65-.15.1q-10.4 5.8-24.35 5.8l-3.95-.1-.45-.05q-11.5-.9-20.3-7.4Q4.85 37.6.1 28.85q.3-1.45 2.5-7.55t11-13.65T38.35.1l8.8.65-30 24.35 12.3-2.7 9.65-1.75 7.25-3.4L66.05 8m-19.7 9.25 29.5 14.65m-66.5-5.05 7.8-1.75M.1 28.85l9.25-2 24.6 24.6m-4.5-29.05L62.7 45.8" fill="none" stroke="#0a0000" stroke-linecap="round" stroke-linejoin="round" stroke-opacity=".4" stroke-width=".2"/></g><g id="f"><path d="M17.05 84.75q.35 1.3 1.6 2.55l.1.05.25.2q6.1 5.2 26.7 4.65 20.65-.5 43.75-6.45l2.4-.6q14.4-4.2 28.2-10.4l3.4-2 1.2-.75q5.6-3.6 7.3-6.6l.1-.2q.8-1.6.65-3l.8 5.65.1.3q.75 4.25-8 10-12.05 7.8-35.2 13.7-23.15 6-43.8 6.5-20.6.5-26.7-4.7-1.65-1.4-1.95-2.95l-.1-.5-.8-5.45" fill="#d8a400" fill-rule="evenodd" transform="translate(.1 -34.35)"/><path d="M132.7 62.2q.15 1.4-.65 3l-.1.2q-1.7 3-7.3 6.6l-1.2.75-3.4 2q-13.8 6.2-28.2 10.4l-2.4.6Q66.35 91.7 45.7 92.2q-20.6.55-26.7-4.65l-.25-.2-.1-.05q-1.25-1.25-1.6-2.55l-.05-.5q-.55-4.2 7.95-9.7 12.1-7.85 35.25-13.8 23.15-5.9 43.75-6.45 20.65-.55 26.75 4.6 1.75 1.5 2 3.25v.05" fill="#d5bb32" fill-rule="evenodd" transform="translate(.1 -34.35)"/><path d="m17.15 50.4.8 5.45.1.5q.3 1.55 1.95 2.95 6.1 5.2 26.7 4.7 20.65-.5 43.8-6.5 23.15-5.9 35.2-13.7 8.75-5.75 8-10l-.1-.3-.8-5.65v-.05q-.25-1.75-2-3.25-6.1-5.15-26.75-4.6-20.6.55-43.75 6.45-23.15 5.95-35.25 13.8-8.5 5.5-7.95 9.7z" fill="none" stroke="#0a0000" stroke-linecap="round" stroke-linejoin="round" stroke-opacity=".4" stroke-width=".2"/><path d="M72.6 67.6q-6.9 4.45-17.05 7.55-4-16.4-20.25-29.05 7.75-5.55 17-8.55Q67.5 50.8 72.6 67.6m-51.35-7.3q10.9 6.95 13.95 19.25l-17.75 1.9q-1.5-11.6 3.8-21.15" fill="#d5bb32" fill-rule="evenodd" transform="translate(.1 -34.35)"/><path d="M55.55 75.15q10.15-3.1 17.05-7.55 2.65 8.85 2.55 18.65L56.8 88.8q.3-7.15-1.25-13.65m-38.1 6.3 17.75-1.9q1.15 4.7 1.2 10.25-13.35-.4-18.3-4.6l-.65-3.75" fill="#d8a400" fill-rule="evenodd" transform="translate(.1 -34.35)"/><path d="M55.55 75.15q1.55 6.5 1.25 13.65l-20.4 1q-.05-5.55-1.2-10.25 11.45-1.7 20.35-4.4m19.6 11.1q.1-9.8-2.55-18.65 11.15-7.25 13.55-18.1 8.65 12.6 8.45 33.2l-19.45 3.55" fill="#300" fill-rule="evenodd" transform="translate(.1 -34.35)"/><path d="M72.6 67.6q-5.1-16.8-20.3-30.05 6.85-2.3 14.55-3.1 12.45 5 19.3 15.05-2.4 10.85-13.55 18.1M35.3 46.1q16.25 12.65 20.25 29.05-8.9 2.7-20.35 4.4-3.05-12.3-13.95-19.25l1.35-2.35Q28.35 51 35.3 46.1" fill="#620000" fill-rule="evenodd" transform="translate(.1 -34.35)"/><path d="M52.4 3.2q-9.25 3-17 8.55m21.5 42.7 18.35-2.55m11-36.75Q79.4 5.1 66.95.1q-7.7.8-14.55 3.1m33.85 11.95q8.65 12.6 8.45 33.2L75.25 51.9m-53.9-25.95q-5.3 9.55-3.8 21.15m3.8-21.15 1.35-2.35q5.75-6.95 12.7-11.85m1.1 43.7q-13.35-.4-18.3-4.6l-.65-3.75m18.95 8.35 20.4-1" fill="none" stroke="#0a0000" stroke-linecap="round" stroke-linejoin="round" stroke-opacity=".4" stroke-width=".2"/><path d="m2.6 82.1 17.05-9.55q2.15 2.8 2.75 6L2.6 82.1" fill="#d85200" fill-rule="evenodd" transform="translate(.1 -34.35)"/><path d="M22.4 78.55q.45 2.25.15 4.7L0 83.55l2.6-1.45 19.8-3.55" fill="#ae0000" fill-rule="evenodd" transform="translate(.1 -34.35)"/><path d="m2.7 47.75 17.05-9.55q2.15 2.8 2.75 6 .45 2.25.15 4.7L.1 49.2z" fill="none" stroke="#0a0000" stroke-linecap="round" stroke-linejoin="round" stroke-opacity=".4" stroke-width=".2"/></g><use width="173" height="173" xlink:href="#c" id="a"/><use width="76.95" height="51.7" xlink:href="#g" id="e"/><radialGradient id="d" cx="0" cy="0" r="819.2" gradientTransform="translate(86.5 86.5) scale(.1064)" gradientUnits="userSpaceOnUse"><stop stop-opacity=".369" offset="0"/><stop stop-opacity="0" offset=".988"/></radialGradient><path d="M25.3 25.3Q50.65 0 86.5 0t61.15 25.3Q173 50.65 173 86.5t-25.35 61.15Q122.35 173 86.5 173t-61.2-25.35Q0 122.35 0 86.5t25.3-61.2" fill="url(#d)" fill-rule="evenodd" id="c"/></defs></svg>