<svg viewBox="0 0 150.8 190.24" xmlns="http://www.w3.org/2000/svg" xmlns:xlink="http://www.w3.org/1999/xlink"><g transform="translate(-47.05 -170.76)"><use transform="matrix(1.0664 0 0 .5311 47.05 288.5)" width="136.5" height="136.5" xlink:href="#a"/><use transform="matrix(1 0 0 .8714 51.5 173.26)" width="118.35" height="179.1" xlink:href="#b"/><use transform="translate(79.5 170.75)" width="118.35" height="179.1" xlink:href="#b"/></g><defs><linearGradient id="f" x1="-819.2" x2="819.2" gradientTransform="matrix(-.0011 .004 -.0064 -.0017 112.4 111.7)" gradientUnits="userSpaceOnUse"><stop stop-color="#33293c" offset="0"/><stop stop-color="#d8cee1" offset=".584"/><stop stop-color="#93899c" offset=".973"/></linearGradient><linearGradient id="g" x1="-819.2" x2="819.2" gradientTransform="matrix(-.0039 .0023 -.0007 -.0013 103.8 117.6)" gradientUnits="userSpaceOnUse"><stop stop-color="#33293c" offset="0"/><stop stop-color="#aea4b7" offset=".973"/></linearGradient><linearGradient id="h" x1="-819.2" x2="819.2" gradientTransform="matrix(.0126 -.0049 .0054 .0142 102.95 128.4)" gradientUnits="userSpaceOnUse"><stop stop-color="#33293c" offset="0"/><stop stop-color="#b6acbf" offset=".584"/><stop stop-color="#6d6376" offset=".973"/></linearGradient><linearGradient id="i" x1="-819.2" x2="819.2" gradientTransform="matrix(.015 -.0134 .0018 .002 91 131.5)" gradientUnits="userSpaceOnUse"><stop stop-color="#33293c" offset="0"/><stop stop-color="#c3b9cc" offset=".584"/><stop stop-color="#6d6376" offset=".973"/></linearGradient><use width="136.5" height="136.5" xlink:href="#c" id="a"/><use width="118.35" height="179.1" xlink:href="#e" id="b"/><radialGradient id="d" cx="0" cy="0" r="819.2" gradientTransform="matrix(.085 0 0 .085 68.25 68.25)" gradientUnits="userSpaceOnUse"><stop stop-opacity=".369" offset="0"/><stop stop-opacity="0" offset=".973"/></radialGradient><path d="M116.5 116.5q-20 20-48.25 20T20 116.5 0 68.25 20 20 68.25 0t48.25 20 20 48.25-20 48.25" fill="url(#d)" fill-rule="evenodd" id="c"/><g id="e"><path d="m102.9 2.25 1.25 1.9Q106 10 99.65 10.9q3.8-2.9 1.6-6.45-5.7-.65-4.65 4.8.25 1.4.95 3.25l-.9-.85q-2.4.9-1.9 3.8.4 2.15-1.1 4.05l-1.4 1.9-3 3.3q-3.35-12.9-1.95-14l.8-2.2q3.3 2.15 5.8-4.1 4.95-4.75 9-2.15m-.8 65.45.05 3.95q-1.15 2.75-5.25 3.5L95.15 56.9q-1.15 3.6-8.5 4l1 18.75-4.9 1.05.2-4.15 1.7-.25-1.25-18.9q9.35-1 13.75-6l1.5 18.25q2.4 0 3.45-1.95m-2.85 68.8q-.9 1.15-.6 2.9l-4.75 13.75-15.35 10.75v-4.85l-2.65 2.35-2 1.25-1.4.85q-24.05 14.65-42.75 15.4-14.45-2-22.5-9.05L2.7 161.1q9.45 1.15 19.05 9.75 6.5 5.85 17.7 4.9 13.6-3.1 25.75-9.9l-.05-3.7-13.75 6.5q-.15-6.05-3.5-13.25l12.25-9.25q-.85-2.8-2.5-4.5 1.2-.85 2.35-1.75 3.45 3 3.9 7.75l-12 8.5q2.3 3.7 2.5 9l13.5-7.25.2 6.2-2.9 1.75 2.9-1.75q16.6-10.15 31.15-27.6m-.6 2.9q-9.05 9.75-20.1 19.65 11.05-9.9 20.1-19.65" fill="#b2a067" fill-rule="evenodd" transform="translate(.1 .1)"/><path d="M96.6 9.25q-1.05-5.45 4.65-4.8 2.2 3.55-1.6 6.45L96.6 9.25M78.55 163.9l-4.65-1.25 2-1.25 2.65-2.35v4.85" fill="#8d7a3b" fill-rule="evenodd" transform="translate(.1 .1)"/><path d="M87.3 10.7q-1.4 1.1 1.95 14l-1 .95q-6.9 6.7-12.85 5.5-4.05-2.45-7.9-6 7.55.3 11.9-5 2.05-4.2 5-5.25 3-3.05 1.35-3.9l1.55-.3m4.95 10.7 1.4-1.9q1.5-1.9 1.1-4.05-.5-2.9 1.9-3.8l.9.85q3.05 3.45.15 9.25 3.9 21.4 4.4 45.95-1.05 1.95-3.45 1.95l-1.5-18.25q-4.4 5-13.75 6l1.25 18.9-1.7.25q.55-17.8-1.55-42.9Q98.55 20.3 92.25 21.4m.15 7.75q3.65-4.1 5.3-7.4-1.65 3.3-5.3 7.4m-34.75 112.5q1.65 1.7 2.5 4.5L47.9 155.4q3.35 7.2 3.5 13.25l13.75-6.5.05 3.7q-12.15 6.8-25.75 9.9-11.2.95-17.7-4.9-9.6-8.6-19.05-9.75-1.45-3.25 2.45-4.7 9.3 2 26-1.5 16.2-5.85 26.5-13.25" fill="#85523c" fill-rule="evenodd" transform="translate(.1 .1)"/><path d="M102.9 2.25q-4.05-2.6-9 2.15-2.5 6.25-5.8 4.1.15-5.4 5.8-8.35 6.25-.7 9 2.1M7.25 169.85q-4.3-3.75-6.8-8.95l2.25.2 4.55 8.75m31.1-34.4 2.2-2.45 3.1-.1Q52 121.75 61.9 112.35q1.4-14.5-.95-31.7L55.5 77.3l-.5-3.5 5.15 1.8q-2.55-29-12.1-51.3-3.45-7.35-6.9-8.85l-3.25-6.8.65-2.3q4.3-12.7 16.85 3.8 2.8 4.4 5.75 8.1-1.45 1.05-.1 4.95 8.65 25.5 10.4 53.35 6.15.65 11.5 0l-.2 4.15q-5.2.75-10.7.1 2.2 18.05.9 31.65-10.55 9.65-19.8 23.95 4.25 1.25 6.85 3.5-1.15.9-2.35 1.75-1.85-1.9-4.75-2.5-4.35 7.6-13.5 11.25l-9.5-4q7.2-4 11.5-10.95h-3.05m34.6-23q-5.9-3-11.05-.1 5.15-2.9 11.05.1m-22.8 25.95-6.25-1.3q-2.3 4.8-9.5 8.8l5.25 2q7.15-3.9 10.5-9.5" fill="#beae8d" fill-rule="evenodd" transform="translate(.1 .1)"/><path d="m89.25 24.7 3-3.3q6.3-1.1-10.85 12.25 2.1 25.1 1.55 42.9-5.35.65-11.5 0Q69.7 48.7 61.05 23.2q-1.35-3.9.1-4.95l.95 1.15 2.45 2.8q8 1.5 12.8-5.1 3.5-4.75 8.4-6.1 1.65.85-1.35 3.9-2.95 1.05-5 5.25-4.35 5.3-11.9 5 3.85 3.55 7.9 6 5.95 1.2 12.85-5.5l1-.95M.45 160.9q-2.7-5.55 10.8-8.5 13.45-2.95 24.15-13.6l2.95-3.35h3.05q-4.3 6.95-11.5 10.95l9.5 4q9.15-3.65 13.5-11.25 2.9.6 4.75 2.5-10.3 7.4-26.5 13.25-16.7 3.5-26 1.5-3.9 1.45-2.45 4.7l-2.25-.2M55 73.8q-4.4-36.55-13.85-58.35 3.45 1.5 6.9 8.85 9.55 22.3 12.1 51.3L55 73.8m12.5-48.65-2.95-2.95 2.95 2.95M50.15 138.4q-3.35 5.6-10.5 9.5l-5.25-2q7.2-4 9.5-8.8l6.25 1.3" fill="#ad7962" fill-rule="evenodd" transform="translate(.1 .1)"/><path d="M102.15 71.65q.15 17.95-1.5 37.5l.45 7.65.05.9.05 2.65-.05 3.7q-3.3 2.85-7 5.1-2.6 1.55-5.4 2.75-8.25 3.6-10.4 12.5-2.2 8.4 7.15 4 3.35-2.4 4.5-5.55l.1-.2q5.55-4.4 10.05-9.3l-.7 2.85-.2.3Q84.7 153.95 68.1 164.1l-.2-6.2-13.5 7.25q-.2-5.3-2.5-9l12-8.5q-.45-4.75-3.9-7.75 13.65-10.8 15.4-24.65l-.65-.9q6.7-9.45 8-33.65l4.9-1.05-1-18.75q7.35-.4 8.5-4l1.75 18.25q4.1-.75 5.25-3.5m-25 46-1.75-2.4 1.75 2.4" fill="#ae7b13" fill-rule="evenodd" transform="translate(.1 .1)"/><path d="M40.55 133q3.7-4.2 7.1-7.7 3.2-3.35 6.15-6.15l4.2-3.85q-.05-19.2-2.5-38l5.45 3.35q2.35 17.2.95 31.7-9.9 9.4-18.25 20.55l-3.1.1m32.4-20.55q1.3-13.6-.9-31.65 5.5.65 10.7-.1-1.3 24.2-8 33.65l.65.9Q73.65 129.1 60 139.9q-2.6-2.25-6.85-3.5 9.25-14.3 19.8-23.95.5.25 1.8 1.9-1.3-1.65-1.8-1.9M58 115.3q1.7-1.75 3.9-2.95-2.2 1.2-3.9 2.95" fill="#cf8a14" fill-rule="evenodd" transform="translate(.1 .1)"/><path d="m107.4 114.6-1.25-.3 3.5-1.65-2.65-1.8 3.35-.35-1.05-3.7 1.95 1.8.55-4.1 1.6 3.05 1.05-4.15.3 4 1.65-4.2-.75 5.1 2.4-2.85-1.95 4.75 2.05-.85-2.5 2.85 1.9 1.5-2.85 1.2 1.55 2.2-2.85-.25.7 4.05-1.85-3-.45 5.7-.85-4.95-1.8 5.95.6-4.75 1.3-2.5q4.1-1.05 1.95-5.45-.75-1.15-2.5 1.25l-3.75 5.1-1.15.35 1-1.2 2.05-2.5-1.25-.3" fill="url(#f)" fill-rule="evenodd" transform="translate(.1 .1)"/><path d="m105.85 115.15 1.55-.55 1.25.3-2.05 2.5-5.4 2.95-.05-2.65q5.95-2.05 4.7-2.55" fill="url(#g)" fill-rule="evenodd" transform="translate(.1 .1)"/><path d="m109.75 119.85-1.35 2.35-.8 1.3q-3.25 5.15-7.45 9.85-4.5 4.9-10.05 9.3l-.1.2q-1.15 3.15-4.5 5.55-9.35 4.4-7.15-4 1.75 1.25 2.95-2.45l.65-2.25q1.7-3.65 6.3-5.7 7.5-4.55 5.9-4.85 3.7-2.25 7-5.1 2.6-2.3 4.95-5l.65-.8 3.75-5.1q1.75-2.4 2.5-1.25 2.15 4.4-1.95 5.45l-1.3 2.5m-19.25 20.8-.4 2 .4-2m21.15-25.05q.75 0 1.15-.9-.6-.4-1.15.9-.35.65-.6 1.75.25-1.1.6-1.75m1.15-.9.2.65-.2-.65m-30.35 30.4 1.3 1.2q.95.65 2.45-1.85l.1-1.5.8-.15.5-1.15q1.8-4.3-2.1-4.15-2.7 3.1-3.1 7.45l.05.15-.05 1.8.05-1.8m4.4-8.95-1.35 1.35 1.35-1.35" fill="url(#h)" fill-rule="evenodd" transform="translate(.1 .1)"/><path d="M111.65 115.6q.55-1.3 1.15-.9-.4.9-1.15.9" fill="#5c5265" fill-rule="evenodd" transform="translate(.1 .1)"/><path d="m101.1 116.8 4.75-1.65q1.25.5-4.7 2.55l-.05-.9" fill="#aea4b7" fill-rule="evenodd" transform="translate(.1 .1)"/><path d="M94.15 129.15q1.6.3-5.9 4.85-4.6 2.05-6.3 5.7l-.65 2.25q-1.2 3.7-2.95 2.45 2.15-8.9 10.4-12.5 2.8-1.2 5.4-2.75" fill="url(#i)" fill-rule="evenodd" transform="translate(.1 .1)"/><path d="m86.3 142.95-.1 1.5q-1.5 2.5-2.45 1.85l-1.3-1.2-.05-.15q.4-4.35 3.1-7.45 3.9-.15 2.1 4.15l-.5 1.15q-.35-3-1.6-2.65.75.85.8 2.8" fill="#857b8e" fill-rule="evenodd" transform="translate(.1 .1)"/><path d="m87.1 142.8-.8.15q-.05-1.95-.8-2.8 1.25-.35 1.6 2.65" fill="#33293c" fill-rule="evenodd" transform="translate(.1 .1)"/><path d="M99.75 11q6.35-.9 4.5-6.75L103 2.35M88.2 8.6l-.8 2.2q-1.4 1.1 1.95 14l3-3.3 1.4-1.9q1.5-1.9 1.1-4.05-.5-2.9 1.9-3.8l.9.85q-.7-1.85-.95-3.25-1.05-5.45 4.65-4.8 2.2 3.55-1.6 6.45L96.7 9.35m-9.3 1.45-1.55.3M67.6 25.25q3.85 3.55 7.9 6 5.95 1.2 12.85-5.5l1-.95m8.3-12.2q3.05 3.45.15 9.25 3.9 21.4 4.4 45.95l.05 3.95q.15 17.95-1.5 37.5l.45 7.65 4.75-1.65 1.55-.55-1.25-.3 3.5-1.65-2.65-1.8 3.35-.35-1.05-3.7 1.95 1.8.55-4.1 1.6 3.05 1.05-4.15.3 4 1.65-4.2-.75 5.1 2.4-2.85-1.95 4.75 2.05-.85-2.5 2.85 1.9 1.5-2.85 1.2 1.55 2.2-2.85-.25.7 4.05-1.85-3-.45 5.7-.85-4.95-1.8 5.95.6-4.75-1.35 2.35-.8 1.3q-3.25 5.15-7.45 9.85l-.7 2.85-.2.3q-.9 1.15-.6 2.9L94 153.25 78.65 164 74 162.75l-1.4.85Q48.55 178.25 29.85 179q-14.45-2-22.5-9.05-4.3-3.75-6.8-8.95-2.7-5.55 10.8-8.5 13.45-2.95 24.15-13.6l2.95-3.35 2.2-2.45q3.7-4.2 7.1-7.7 3.2-3.35 6.15-6.15l4.2-3.85q-.05-19.2-2.5-38l-.5-3.5q-4.4-36.55-13.85-58.35L38 8.75l.65-2.3q4.3-12.7 16.85 3.8 2.8 4.4 5.75 8.1l.95 1.15 2.45 2.8q8 1.5 12.8-5.1 3.5-4.75 8.4-6.1m2.35-2.5q.15-5.4 5.8-8.35 6.25-.7 9 2.1m-5.2 19.5q-1.65 3.3-5.3 7.4M64.65 22.3l2.95 2.95m-5.6 87.2q5.15-2.9 11.05.1.5.25 1.8 1.9l.65.9 1.75 2.4m-11.95 48.2 2.9-1.75q16.6-10.15 31.15-27.6M2.8 161.2q9.45 1.15 19.05 9.75 6.5 5.85 17.7 4.9 13.6-3.1 25.75-9.9m-3.3-53.5q-2.2 1.2-3.9 2.95M.55 161l2.25.2m71.2 1.55 2-1.25 2.65-2.35q11.05-9.9 20.1-19.65M78.65 164v-4.85m28.05-41.65 2.05-2.5-1.25-.3m-6.25 9.45q2.6-2.3 4.95-5l.65-.8-1.15.35 1-1.2-5.4 2.95-.05 3.7q-3.3 2.85-7 5.1-2.6 1.55-5.4 2.75-8.25 3.6-10.4 12.5-2.2 8.4 7.15 4 3.35-2.4 4.5-5.55l.1-.2.4-2m16.25-22.4 3.75-5.1q1.75-2.4 2.5-1.25 2.15 4.4-1.95 5.45l-1.3 2.5m1.9-4.25q.75 0 1.15-.9-.6-.4-1.15.9-.35.65-.6 1.75m1.95-2-.2-.65m-11.65 3 .05 2.65m-.1-3.55.05.9M86.4 143.05l-.1 1.5q-1.5 2.5-2.45 1.85l-1.3-1.2-.05 1.8m.05-1.8-.05-.15q.4-4.35 3.1-7.45l1.35-1.35m-.55 6.8.8-.15q-.35-3-1.6-2.65.75.85.8 2.8m-.8-5.45q3.9-.15 2.1 4.15l-.5 1.15m13.05-9.45q-4.5 4.9-10.05 9.3" fill="none" stroke="#330013" stroke-linecap="round" stroke-linejoin="round" stroke-opacity=".412" stroke-width=".2"/></g></defs></svg>