<svg viewBox="0 0 151.89 113.76" xmlns="http://www.w3.org/2000/svg" xmlns:xlink="http://www.w3.org/1999/xlink"><g transform="translate(-202.49 -143.45)"><use transform="matrix(.4258 0 0 .5132 202.49 143.57)" width="254.7" height="176.4" xlink:href="#a"/><use transform="matrix(-.3598 0 0 .645 354.38 143.44)" width="254.7" height="176.4" xlink:href="#a"/></g><defs><use width="73.2" height="60.4" xlink:href="#f" id="b"/><use width="56.5" height="60.35" xlink:href="#g" id="c"/><use width="200.85" height="146.95" xlink:href="#h" id="d"/><use width="47" height="15.4" xlink:href="#i" id="e"/><g id="a" transform="translate(.5 13.5)"><use transform="matrix(-1.0153 0 0 1.1178 189.26 -13.488)" width="73.2" height="60.4" xlink:href="#b"/><use transform="translate(-.5 71.25)" width="56.5" height="60.35" xlink:href="#c"/><use transform="translate(19.35 -.5)" width="200.85" height="146.95" xlink:href="#d"/><use transform="translate(66.5 102.55)" width="56.5" height="60.35" xlink:href="#c"/><use transform="matrix(-1.0153 0 0 1.1178 251.96 6.712)" width="73.2" height="60.4" xlink:href="#b"/><use transform="matrix(1.5521 -.4159 .6588 2.4587 31.86 59.928)" width="47" height="15.4" xlink:href="#e"/><use transform="matrix(.9829 -.2634 .4172 1.557 173.16 65.601)" width="47" height="15.4" xlink:href="#e"/><use transform="matrix(.9829 -.2634 .4172 1.557 71.307 105.95)" width="47" height="15.4" xlink:href="#e"/><use transform="matrix(1.3666 0 0 1.1039 176.97 63.903)" width="56.5" height="60.35" xlink:href="#c"/></g><g id="f"><path d="m45 16.95 3.8 1.1 1.35 1.8q.7 1.15.7 2.75 0 1.4-2.15 1.4l-6.95-1.1q-7.95-1.75-13.1-4.8l-15.1-8.25L7.7 6.3Q2.9 3.1 1.55 1.1 3.45-.95 7.7.8q1.3.5 2.8 1.35 12 7.25 26.15 12.15L45 16.95M55.45 28.2q6.3 4.7 11.1 14.95l-.55 1.2q-.8 1.2-2.4 1.2-3.95 0-5.9-4.6-1.55-3.75-2.25-12.75m-46.5-5.55q8.3 5.65 17.8 7.3l.4.1 1 .5.45.3 2.8 2.7Q29.95 35 28.8 35.3l-2.65.1q-3 0-7.3-1.7-6.3-2.45-10.95-7.55.25-1.65 1.05-3.5m7.6 15.3L32.3 42.7q.1 1.45 2.6 3.5 2.7 2.25 2.95 3.7H35.4l-9.35-3.2q-6.8-2.45-8.95-3.65-.6-2.4-.55-5.1" fill="#738177" fill-rule="evenodd" transform="translate(.75 .75)"/><path d="M45 16.95q5.65-2.7 10.25-2.75 12.6-.2 17.2 19.4-.55 7.6-3.55 13.05-2.8 5.05-7.7 8.25-4.1 2.65-9.7 4-30.55 0-34.4-15.85 2.15 1.2 8.95 3.65l9.35 3.2h2.45q-.25-1.45-2.95-3.7-2.5-2.05-2.6-3.5l-15.75-4.75-1.15-.35q-8.8-3.75-7.5-11.45 4.65 5.1 10.95 7.55 4.3 1.7 7.3 1.7l2.65-.1q1.15-.3 2.6-1.75l-2.8-2.7-.45-.3-1-.5-.4-.1q-9.5-1.65-17.8-7.3L7.7 21.8q-3.3-2.45-6.45-5.5-2.65-12.05.3-15.2 1.35 2 6.15 5.2l5.85 3.55 15.1 8.25q5.15 3.05 13.1 4.8L48.7 24q2.15 0 2.15-1.4 0-1.6-.7-2.75l-1.35-1.8-3.8-1.1m8.35 2.45-4.55-1.35 4.55 1.35m13.2 23.75.5 1.05q.2-16.9-13.1-17.05l1.5 1.05q.7 9 2.25 12.75 1.95 4.6 5.9 4.6 1.6 0 2.4-1.2l.55-1.2m-32.65 0-1.6-.45 1.6.45" fill="#8a8a8a" fill-rule="evenodd" transform="translate(.75 .75)"/><path d="m55.45 28.2-1.5-1.05q13.3.15 13.1 17.05l-.5-1.05q-4.8-10.25-11.1-14.95" fill="#535353" fill-rule="evenodd" transform="translate(.75 .75)"/><path d="M52.25 59.65q5.6-1.35 9.7-4 4.9-3.2 7.7-8.25 3-5.45 3.55-13.05-4.6-19.6-17.2-19.4-4.6.05-10.25 2.75l3.8 1.1 4.55 1.35M67.3 43.9l.5 1.05q.2-16.9-13.1-17.05l1.5 1.05q6.3 4.7 11.1 14.95M9.7 23.4q8.3 5.65 17.8 7.3m.4.1 1 .5m-12.75 7.05 1.15.35 15.75 4.75 1.6.45" fill="none" stroke="#1b1b00" stroke-linecap="round" stroke-linejoin="round" stroke-opacity=".651" stroke-width=".05"/><path d="m27.5 30.7.4.1" fill="none" stroke="#008a00" stroke-linecap="round" stroke-linejoin="round" stroke-width=".05"/><path d="M8.65 26.9q-1.3 7.7 7.5 11.45" fill="none" stroke="#1b1b00" stroke-linecap="round" stroke-linejoin="round" stroke-opacity=".651" stroke-width="2"/><path d="m45.75 17.7-8.35-2.65Q23.25 10.15 11.25 2.9q-1.5-.85-2.8-1.35Q4.2-.2 2.3 1.85-.65 5 2 17.05q3.15 3.05 6.45 5.5l1.25.85q-.8 1.85-1.05 3.5m8.65 11.8q-.05 2.7.55 5.1 3.85 15.85 34.4 15.85z" fill="none" stroke="#1b1b00" stroke-linecap="round" stroke-linejoin="round" stroke-opacity=".651" stroke-width="1.5"/></g><g id="g"><path d="M42.15 23.55q.75.8 1.15 2.15.9 2.75 0 6.05-.85 3.35-3 5.25l-.45-.05 2.3-13.4" fill="#727272" fill-rule="evenodd" transform="translate(.5 .45)"/><path d="m37.25 38.5-1.2-.15q-2.1-.55-2.95-3.3-.9-2.7 0-6.05.85-3.3 3-5.25 2.1-1.9 4.25-1.35l.3.1-3.4 16" fill="#999" fill-rule="evenodd" transform="translate(.5 .45)"/><path d="M40.65 22.5q.85.35 1.5 1.05l-2.3 13.4-.1.55q-1.25.9-2.5 1l3.4-16" fill="#262626" fill-rule="evenodd" transform="translate(.5 .45)"/><path d="m23.4.85 7.3 3L42.5 9.8l-.85-.3-5.7.15q-3 .9-6 3.6-2.1 1.95-3.8 4.4l-3-1.75Q16.5 12 10.05 8.95q2.7-2.9 6.1-5.75 1.5-.65 3-1.15L23.4.85" fill="#be9c4d" fill-rule="evenodd" transform="translate(.5 .45)"/><path d="M42.5 9.8q5.2 1.8 7.45 8.85 2.4 7.6-.05 16.75-2.45 9.2-8.35 14.55-3.45 3.1-6.85 3.85-2.45.55-4.9-.1-5.85-1.55-8.25-9.15-.7-2.2-.95-4.5-.75-5.7 1-12.25 1.55-5.85 4.55-10.15 1.7-2.45 3.8-4.4 3-2.7 6-3.6l5.7-.15.85.3m-.35 13.75q-.65-.7-1.5-1.05l-.3-.1q-2.15-.55-4.25 1.35-2.15 1.95-3 5.25-.9 3.35 0 6.05.85 2.75 2.95 3.3l1.2.15q1.25-.1 2.5-1l.55-.5q2.15-1.9 3-5.25.9-3.3 0-6.05-.4-1.35-1.15-2.15" fill="#8a6102" fill-rule="evenodd" transform="translate(.5 .45)"/><path d="M34.7 53.8q3.4-.75 6.85-3.85 5.9-5.35 8.35-14.55 2.45-9.15.05-16.75Q47.7 11.6 42.5 9.8L30.7 3.85l-7.3-3Q30.25-.7 36.4.7q2.1.5 4.15 1.35 3.6 1.5 6.95 4.15 5.7 3.7 7.65 15.3l.25 1.7q1.4 30.15-20.7 35-13.25 3.45-22.55-3.2-3.45-2.45-6.35-6.3Q1.5 42.05.4 35.6l11.75 2.7 6.45 1.35 2 .4q.25 2.3.95 4.5 2.4 7.6 8.25 9.15 2.45.65 4.9.1" fill="#b17c01" fill-rule="evenodd" transform="translate(.5 .45)"/><path d="m20.6 40.05-2-.4-6.45-1.35L.4 35.6q-1.85-10.55 4.8-20.55 2-3.1 4.85-6.1Q16.5 12 23.15 15.9l3 1.75q-3 4.3-4.55 10.15-1.75 6.55-1 12.25" fill="#bd8e21" fill-rule="evenodd" transform="translate(.5 .45)"/><path d="M.4 35.6q1.1 6.45 5.4 13.1 2.9 3.85 6.35 6.3 9.3 6.65 22.55 3.2 22.1-4.85 20.7-35l-.25-1.7Q53.2 9.9 47.5 6.2q-3.35-2.65-6.95-4.15Q38.5 1.2 36.4.7q-6.15-1.4-13 .15M37.25 38.5l-1.2-.15q-2.1-.55-2.95-3.3-.9-2.7 0-6.05.85-3.3 3-5.25 2.1-1.9 4.25-1.35l.3.1M.4 35.6q-1.85-10.55 4.8-20.55 2-3.1 4.85-6.1 2.7-2.9 6.1-5.75 1.5-.65 3-1.15L23.4.85" fill="none" stroke="#262600" stroke-linecap="round" stroke-linejoin="round" stroke-opacity=".651" transform="translate(.5 .45)"/><path d="M41.15 22.95q.85.35 1.5 1.05.75.8 1.15 2.15.9 2.75 0 6.05-.85 3.35-3 5.25l-.55.5q-1.25.9-2.5 1m3.4-16-3.4 16m2.5-1 .1-.55 2.3-13.4" fill="none" stroke="#262600" stroke-linecap="round" stroke-linejoin="round" stroke-opacity=".651" stroke-width=".05"/><path d="M34.7 53.8q-2.45.55-4.9-.1-5.85-1.55-8.25-9.15-.7-2.2-.95-4.5m15.35-30.4q-3 .9-6 3.6-2.1 1.95-3.8 4.4-3 4.3-4.55 10.15-1.75 6.55-1 12.25" fill="none" stroke="#262600" stroke-linecap="round" stroke-linejoin="round" stroke-opacity=".322" transform="translate(.5 .45)"/></g><g id="h"><path d="M183.9 38.2q4.6 4.35 7.55 10.4v.05l-.45.2q1.2 2.3 1.2 5.95 0 13.5-14.4 24.1-5.45 4.05-11.8 6.7-5.6 2.35-9.3 2.65l.1.85-8.1 1.05-4.1.35q-1.55-4.25-1.95-8.4l-1.75 1.15-1.5.9q-4.05 2.25-6.65 2.5l-9.85-.1q-9.25 0-11.6-.3-7.75-1-18.5-5.25 1.05 2.9 1.75 5.85-1.25 1.8-3.85 3-2.4 1.2-3.7 3l-3.6 5.35q-2.8 4.2-31.85 1.6T15.8 94.05q-6.7-3.2-8.5-3.75.05-5 .8-9.45h8.35q25.9-2.65 36.55-6.8 15.4-6 15.4-18.8 0-4.7-5.9-8.15l4.1.15q6.2 0 11.1 2.4 2.3 1.1 4.3 2.75 9.15-.1 22.75 8.95-3.15 3.25-3.15 7.55 0 5.2 4.6 8.9l.55.4q4.4 3.3 10.55 3.3t10.6-3.3l.5-.4q4.6-3.7 6.2-10.7 1.5-6.55-2.3-10.25l-.6-.55q-4.45-3.8-12.75-3.1Q108.5 40 96.85 36.9q1.75-2.75 3.7-4.1 1.3-.9 2.8-1.3 3.55 2.45 9.95 4 13.25 3.2 30.8.45 17.55-2.7 29.15-9.7l3.5-2.3q-3.4 8.95-5.25 15.35 6.2-2.05 12.4-1.1M92.6 69.55Q89.05 58.2 82 52.4q7.05 5.8 10.6 17.15m-2.1 5.8 1.25 2.85L92.8 81l-1.05-2.8-1.25-2.85m52.8-3.3q-.75 3.05-.8 6.15-.05 1.95.15 3.9-.2-1.95-.15-3.9.05-3.1.8-6.15m28.2-32.75q-9.95 3.2-19.95 14.15 10-10.95 19.95-14.15" fill="#cca328" fill-rule="evenodd" transform="translate(.5 .5)"/><path d="M177.4 9.3q.85 1.35 1.1 2.9 1 6.45-9.45 12.7-10.35 6.3-26.1 8.7-15.75 2.45-27.6-.4t-12.8-9.3q-.15-.95-.05-1.9.6-5.5 9.45-10.8l3.5-1.9q9.45-4.75 22.65-6.8 15.75-2.4 27.55.4 9.05 2.15 11.75 6.4" fill="#002c49" fill-rule="evenodd" transform="translate(.5 .5)"/><path d="M98.95 23q.7-6.1 10.55-12.05l3-1.65q10.8-5.65 26.2-8.05 17.55-2.7 30.75.45 10.5 2.55 13.4 7.6.7 1.3.95 2.8l.05.5v1.45q-.45 5-7.1 9.9l-3.5 2.3q-11.6 7-29.15 9.7-17.55 2.75-30.8-.45-6.4-1.55-9.95-4-3.8-2.65-4.35-6.35L98.95 23M177.4 9.3q-2.7-4.25-11.75-6.4-11.8-2.8-27.55-.4-13.2 2.05-22.65 6.8l-3.5 1.9q-8.85 5.3-9.45 10.8-.1.95.05 1.9.95 6.45 12.8 9.3t27.6.4q15.75-2.4 26.1-8.7 10.45-6.25 9.45-12.7-.25-1.55-1.1-2.9" fill="#795400" fill-rule="evenodd" transform="translate(.5 .5)"/><path d="M66.6 47.25q.35-1.75 1.2-3.15l.6.4H80q24.25 5.05 34.4 15.6 3.55 3.75 5.75 8.6l.4.9q-2.7 1.75-7.35 2.4-2.95-4.35-5.85-7.75l-2.6-2.9Q91.15 52.3 82 52.4q-2-1.65-4.3-2.75-4.9-2.4-11.1-2.4" fill="#987c0b" fill-rule="evenodd" transform="translate(.5 .5)"/><path d="M132.3 56.85q.65 3.75.15 7.05-.75 4.7-3.8 7.8-4.5 4.8-6.7 5.8-1.8.8-6.9.8-2.6 0-5.4-1.55l-4.9-3.35v-9.05l2.6-.1q2.9 3.4 5.85 7.75 4.65-.65 7.35-2.4 5.55-3.55 2.95-11.6-2.25-1.9-4.55-4.8 8.3-.7 12.75 3.1l.6.55M109.05 70.8l4.15 1.2-4.15-1.2" fill="#786108" fill-rule="evenodd" transform="translate(.5 .5)"/><path d="m67.8 44.1.05-.05.55.45-.6-.4" fill="#bf9e1a" fill-rule="evenodd" transform="translate(.5 .5)"/><path d="M67.85 44.05q1.9-3.1 6.55-4.6l3.3-1.4q3.2-1.2 6.35-1.7 6.55-1.15 12.8.55 11.65 3.1 22.1 16.3 2.3 2.9 4.55 4.8 2.6 8.05-2.95 11.6l-.4-.9q-2.2-4.85-5.75-8.6Q104.25 49.55 80 44.5H68.4l-.55-.45" fill="#c5b36c" fill-rule="evenodd" transform="translate(.5 .5)"/><path d="M8.1 80.85q5.95-35.2 54.4-33.75 5.9 3.45 5.9 8.15 0 12.8-15.4 18.8-10.65 4.15-36.55 6.8H8.1" fill="#c6b36c" fill-rule="evenodd" transform="translate(.5 .5)"/><path d="m183.85 14.05.05 24.15q-6.2-.95-12.4 1.1 1.85-6.4 5.25-15.35 6.65-4.9 7.1-9.9m7.6 34.6q5 10.3 5.2 25.4v4.15l-.05.65q-20.15 7.25-39.8 10.25l-.1-.85q3.7-.3 9.3-2.65 6.35-2.65 11.8-6.7 14.4-10.6 14.4-24.1 0-3.65-1.2-5.95l.45-.2M7.7 99.75v-.05q-.45-4.95-.4-9.4 1.8.55 8.5 3.75 6.7 3.15 35.75 5.75t31.85-1.6l3.6-5.35q1.3-1.8 3.7-3 2.6-1.2 3.85-3-.7-2.95-1.75-5.85 10.75 4.25 18.5 5.25 2.35.3 11.6.3l9.85.1q2.6-.25 6.65-2.5l1.5-.9 1.75-1.15q.4 4.15 1.95 8.4l-4.2.3-4.95.2q-12.75 7.25-29.25 12.05l-7.65 2.05-3.05.7.35-3.65q.5-7.65-1.3-15.3 1.8 7.65 1.3 15.3l-.35 3.65-12.85 4.35q-34.4 10.45-55.45 4.3-24.9-7.3-19.4-13.55l-.1-1.15m76.35-63.4L98.95 23l.05 2.15q.55 3.7 4.35 6.35-1.5.4-2.8 1.3-1.95 1.35-3.7 4.1-6.25-1.7-12.8-.55" fill="#ca951c" fill-rule="evenodd" transform="translate(.5 .5)"/><path d="m196.65 74.05 3.2 2.45-2.1 1.7-1.15.65.05-.65v-4.15" fill="#005187" fill-rule="evenodd" transform="translate(.5 .5)"/><path d="M100.1 135.15q-72.35 24.55-98.75-6.6-2.65-10.4-.15-18.3 5 7.15 18.1 10.25 10.3 2.4 27.65 2.4l20.85-.85q6.05-.85 8.6-2.95 1.3-1.1 4-5.6 1.05-1.75 2.25-3.35l12.85-4.35 3.05-.7.7 16.05.85 14" fill="#2488ca" fill-rule="evenodd" transform="translate(.5 .5)"/><path d="M138 119.85q-14.9 6.85-28.35 11.9-.3-14.9-3.3-28.15l-.15-.55q16.5-4.8 29.25-12.05l4.95-.2-.95 11.35-1.45 17.7" fill="#0176c3" fill-rule="evenodd" transform="translate(.5 .5)"/><path d="M199.85 76.5v26.05Q178.8 114.8 152 116.7l-1.25-9.4-2.05-17.15 8.1-1.05q19.65-3 39.8-10.25l1.15-.65 2.1-1.7" fill="#1683ca" fill-rule="evenodd" transform="translate(.5 .5)"/><path d="M1.2 110.25q1.6-5.3 5.5-9.45l1.1.1q-5.5 6.25 19.4 13.55 21.05 6.15 55.45-4.3-1.2 1.6-2.25 3.35-2.7 4.5-4 5.6-2.55 2.1-8.6 2.95l-20.85.85q-17.35 0-27.65-2.4-13.1-3.1-18.1-10.25" fill="#4c98cb" fill-rule="evenodd" transform="translate(.5 .5)"/><path d="m152 116.7-7.85.3-6.15 2.85 1.45-17.7.95-11.35 4.2-.3 4.1-.35 2.05 17.15 1.25 9.4" fill="#005a94" fill-rule="evenodd" transform="translate(.5 .5)"/><path d="m109.65 131.75-9.55 3.4-.85-14-.7-16.05 7.65-2.05.15.55q3 13.25 3.3 28.15" fill="#3790cb" fill-rule="evenodd" transform="translate(.5 .5)"/><path d="m107.35 64.25-2.6.1v9.05l4.9 3.35q2.8 1.55 5.4 1.55 5.1 0 6.9-.8 2.2-1 6.7-5.8 3.05-3.1 3.8-7.8.5-3.3-.15-7.05 3.8 3.7 2.3 10.25-1.6 7-6.2 10.7l-.5.4q-4.45 3.3-10.6 3.3t-10.55-3.3l-.55-.4q-4.6-3.7-4.6-8.9 0-4.3 3.15-7.55l2.6 2.9" fill="#4c3e04" fill-rule="evenodd" transform="translate(.5 .5)"/><path d="M98.95 23q.7-6.1 10.55-12.05l3-1.65q10.8-5.65 26.2-8.05 17.55-2.7 30.75.45 10.5 2.55 13.4 7.6.7 1.3.95 2.8l.05.5v1.45l.05 24.15q4.6 4.35 7.55 10.4v.05q5 10.3 5.2 25.4l3.2 2.45v26.05Q178.8 114.8 152 116.7l-7.85.3-6.15 2.85q-14.9 6.85-28.35 11.9l-9.55 3.4q-72.35 24.55-98.75-6.6-2.65-10.4-.15-18.3 1.6-5.3 5.5-9.45m1-1.05v-.05q-.45-4.95-.4-9.4.05-5 .8-9.45 5.95-35.2 54.4-33.75l4.1.15q.35-1.75 1.2-3.15m.05-.05q1.9-3.1 6.55-4.6l3.3-1.4q3.2-1.2 6.35-1.7L98.95 23" fill="none" stroke="#282800" stroke-linecap="round" stroke-linejoin="round" stroke-opacity=".651" transform="translate(.5 .5)"/><path d="m7.2 101.3 1-1.05.1 1.15-1.1-.1m61.1-56.7.05-.05m31.1-21.05.05 2.15q.55 3.7 4.35 6.35 3.55 2.45 9.95 4 13.25 3.2 30.8.45 17.55-2.7 29.15-9.7l3.5-2.3q6.65-4.9 7.1-9.9M177.9 9.8q.85 1.35 1.1 2.9 1 6.45-9.45 12.7-10.35 6.3-26.1 8.7-15.75 2.45-27.6-.4t-12.8-9.3q-.15-.95-.05-1.9.6-5.5 9.45-10.8l3.5-1.9Q125.4 5.05 138.6 3q15.75-2.4 27.55.4 9.05 2.15 11.75 6.4m-20.6 79.8q19.65-3 39.8-10.25l.05-.65v-4.15M172 39.8q6.2-2.05 12.4-1.1m12.7 40.65 1.15-.65 2.1-1.7M84.55 36.85q6.55-1.15 12.8.55 11.65 3.1 22.1 16.3 2.3 2.9 4.55 4.8 2.6 8.05-2.95 11.6-2.7 1.75-7.35 2.4l-4.15-1.2m23.25-13.95-.6-.55q-4.45-3.8-12.75-3.1m13.35 3.65q3.8 3.7 2.3 10.25-1.6 7-6.2 10.7l-.5.4q-4.45 3.3-10.6 3.3t-10.55-3.3l-.55-.4q-4.6-3.7-4.6-8.9 0-4.3 3.15-7.55-13.6-9.05-22.75-8.95 7.05 5.8 10.6 17.15m14.75-5.3-2.6-2.9m8.45 10.65q-2.95-4.35-5.85-7.75m-12.8 22.6q-.7-2.95-1.75-5.85l-1.05-2.8L91 75.85m52.15 6.75q-.2-1.95-.15-3.9.05-3.1.8-6.15m-37.1 31q16.5-4.8 29.25-12.05l4.95-.2 4.2-.3q-1.55-4.25-1.95-8.4m1.95 8.4 4.1-.35 8.1-1.05M67.1 47.75q6.2 0 11.1 2.4 2.3 1.1 4.3 2.75m.65 57.75q-34.4 10.45-55.45 4.3-24.9-7.3-19.4-13.55m98.4 2.15-7.65 2.05m-4-18.25q1.8 7.65 1.3 15.3L96 106.3l3.05-.7m-15.9 5.05L96 106.3m56.05-52.35Q162.05 43 172 39.8" fill="none" stroke="#282800" stroke-linecap="round" stroke-linejoin="round" stroke-opacity=".651" stroke-width=".05"/></g><radialGradient id="j" cx="0" cy="0" r="819.2" gradientTransform="matrix(.0295 0 0 .0168 31.85 7.7)" gradientUnits="userSpaceOnUse"><stop stop-color="#eeff4d" stop-opacity=".557" offset=".024"/><stop stop-color="#efff6c" stop-opacity=".039" offset=".863"/></radialGradient><path d="M48.45 13.15q-6.85 2.25-16.6 2.25T15.2 13.15Q8.35 10.9 8.35 7.7t6.85-5.45Q22.1 0 31.85 0t16.6 2.25q6.9 2.25 6.9 5.45t-6.9 5.45" fill="url(#j)" fill-rule="evenodd" transform="translate(-8.35)" id="i"/></defs></svg>