<svg viewBox="0 0 41.8 41.9" xmlns="http://www.w3.org/2000/svg" xmlns:xlink="http://www.w3.org/1999/xlink"><g transform="translate(-254.6 -178.9)"><use transform="translate(254.6 178.9)" width="41.85" height="25.95" xlink:href="#a"/><use transform="translate(273.35 191.55) scale(.1935)" width="116.7" height="62.05" xlink:href="#b"/><use transform="matrix(.0399 .1441 -.1489 .03 286.8 190.81)" width="55.7" height="51.4" xlink:href="#c"/><use transform="matrix(-.0337 -.1242 .1348 -.0306 287.85 200.48)" width="55.7" height="51.4" xlink:href="#c"/><use transform="matrix(.1935 0 .0921 .1935 269.97 191.65)" width="50.35" height="55" xlink:href="#d"/><use transform="matrix(.1935 0 .0921 .1935 269.37 187.45)" width="50.35" height="55" xlink:href="#d"/><use transform="translate(255.02 179.3) scale(.1935)" width="121.75" height="129.05" xlink:href="#e"/><use transform="matrix(-.0337 -.1242 .1348 -.0306 266.5 200.98)" width="55.7" height="51.4" xlink:href="#c"/><use transform="translate(255.38 182.41) scale(.1935)" width="150.1" height="96.4" xlink:href="#f"/><use transform="matrix(-.1935 .0073 0 .1935 295.41 188.21)" width="95.7" height="120.15" xlink:href="#g"/><use transform="matrix(-.0127 .1558 .1489 .0244 287.53 190.51)" width="55.7" height="51.4" xlink:href="#c"/><use transform="matrix(.0373 -.1391 -.1348 -.0255 287.4 196.93)" width="55.7" height="51.4" xlink:href="#c"/><use transform="matrix(-.1935 .0073 0 .1935 295.14 183.85)" width="50.35" height="55" xlink:href="#d"/><use transform="matrix(-.1935 .0073 0 .1935 293.97 190.64)" width="121.95" height="150.55" xlink:href="#h"/><use transform="translate(269.8 188.15)" width="25.9" height="32.65" xlink:href="#i"/><use transform="matrix(.2238 -.3877 .247 .1426 265.37 212.57)" width="56" height="56" xlink:href="#j"/><use transform="translate(278.05 204.7)" width="8.6" height="8.2" xlink:href="#k"/><use transform="matrix(.4588 -.4588 .4588 .4588 259.2 192.95)" width="8.6" height="8.2" xlink:href="#k"/><use transform="translate(255.45 179.4)" width="22.85" height="16.65" xlink:href="#l"/></g><defs><g id="b" fill-rule="evenodd"><path d="M112.65 50.45v-.05q.15-1.6-.4-3.45l.35 3.45.05.05q-.35 2.85-3.1 4.9l-2.75 1.85-.15.05-5.8 2.45H5.55V25.85H72.6l3.1.45q24.4 4 35.2 17.65 6.95 6.75 7.2 11.8l-.1-.35-1 4.4q-3.55 5.65-18.65 8.45H5.45v-4.6h92.9l.55-.15q17.15-2.65 13.75-13.05" fill="#50361c" transform="translate(-5.45 -25.85)"/><path d="M112.65 50.45q3.4 10.4-13.75 13.05l-.55.1-.5.05H5.45V59.7h95.4l5.8-2.45.15-.05 2.75-1.85q2.75-2.05 3.1-4.9M5.45 68.25h92.9q15.1-2.8 18.65-8.45l1-4.4.1.35q3.1 11.85 3.8 13.4.6 1.45-.25 7.75 3.3 13.05-60.4 9.15-24.5-3.45-55.8 1.85V68.25" fill="#151c19" transform="translate(-5.45 -25.85)"/></g><g id="m"><path d="m35.4 35.6.75 2.65-.95.4-5.65 2.3-.3-1.35-1.35-5.3 6.4-2.5.9 3.1.2.7M20.35 23.75 22 30.9l-2.2.75-3.65 1.25-1.85-7.15 6.05-2m6.2 5.45-2.05-7.05 5.85-2.35 2.35 7-6.15 2.4" fill-opacity=".051" fill-rule="evenodd" transform="translate(.5 .5)"/><path d="m20.55 11.35.55-.25.1.2 1.45 4.75 1.85 6.1 2.05 7.05L22 30.9l-1.65-7.15-1.7-6.2-1.75-4.85 3.65-1.35" fill="#c0a261" fill-opacity=".031" fill-rule="evenodd" transform="translate(.5 .5)"/><path d="m37.05 4.15-1.85.9-3.15 1.4-1.1.5L32.8 12l2.4-1 9.1-4.1m-6.75 19.25 1.2 3.85 9.65-4.25 2.6-1.2M34.5 18l.25-.15.45-.2q6.55-3 12.75-6.45m-10.6 13.6 7-3.2m-9.25-2.8-.35-.95M54.7 28.9l-6.3 3.45-7.75 3.8.85 2.85 2.1 7.5M38.75 30l.25.8 1.65 5.35m-11.4 3.45.3 1.35 5.65-2.3.95-.4-.75-2.65m.75 2.65.25.75 1.6 5.2.95 2.5.6 1.85M21.1 11.1l5.2-2.15q-2-4.6-3.5-6.2l-1.45-1.7m-.8 10.3.55-.25m6.75 1.75-.1-.3-1.45-3.6m4.65-2-.6-1.55Q28.95 1.65 28 0m1.35 13.4.1-.05L32.8 12M0 8.2l.95-.3 2.1-.6L5 6.7l5.45-1.55M6.15 17.5l-.35-1-.45.15m2.6-7.8.6 1.65.2.45 1.45 3.5m-6.45-3.6L5.8 16.5m6.45 22.9.05.3 1.3 6.5-5.2 1.4m9.05-7 .1 1.15.3 3.25 6.45-2.1-.4-2.25M17.85 45l.6 5.4m6.95-1.15-1.1-6.35m5.25-1.95 1.25 3.75 1.6 3.8" fill="none" stroke="#000" stroke-linecap="round" stroke-opacity=".051" transform="translate(.5 .5)"/><path d="m35.1 18.8.1.3 1.9 5.8.25-.1m-.25.1.45 1.25M35.4 35.6l-.2-.7-.9-3.1-6.4 2.5 1.35 5.3M21.1 11.1l.1.2 1.45 4.75 5.6-2.2-.3-.7-.1-.3M16.9 12.7l3.65-1.35m7.7 2.5.9-.35.2-.1M10.2 14.45l.2.55 2.05-.7.5-.15 3.95-1.45 1.75 4.85 1.7 6.2L22 30.9l4.55-1.7-2.05-7.05-1.85-6.1m-4 1.5-.85.35-5.55 1.95-4.8 1.6-1.3-3.95m6.1 21.9-1.2-5.05-1.55.4m1.55-.4L9.2 27.3l-.4.15m21.55-7.65 2.35 7 1.35 4.3.25.7m-7.75-2.6 6.15-2.4m-2.35-7-5.85 2.35m-4.15 1.6-6.05 2 1.85 7.15 3.65-1.25 2.2-.75m1.9 9.75-.15-.95-.7-3.65-5.9 2.05.3 2.5m-1.3-7.7 1 5.2m5.9-2.05 4.85-1.75M10.4 15l1.85 4.85m2.05 5.9L9.2 27.3M34.5 18l-4.15 1.8" fill="none" stroke="#000" stroke-linecap="round" stroke-opacity=".102" transform="translate(.5 .5)"/></g><g id="d" transform="translate(.45 .5)"><clipPath id="o" transform="translate(.45 .5)"><use transform="translate(7 23.8)" width="42.3" height="30.7" xlink:href="#n"/></clipPath><g clip-path="url(#o)"><use transform="matrix(-.2876 -.6784 .6682 -.2512 15.56 50.215)" width="55.7" height="51.4" xlink:href="#c"/></g></g><g id="e" fill-rule="evenodd"><path d="M14.15-37.5Q29.4-5.3 32.45 16.65l-15.8 15.9Q13.35 35.5 5.1 28.2L.8-5.5q13.25-22.05 13.35-32" fill="#1c4e4c" transform="translate(89.3 37.5)"/><path d="m15.7 68.35-.55 5.6-6 13.4q-28.2 6.45-79.35 3-5.2-2.6-11-9.25-5.85-6.65-6.35-8.95-1.5-5.4-1.75-11.8-.05-2.4.7-6.5l.65-3.45q4.1 15.1 19.2 21.4 5 2.1 11.4 2.9 37.85-.9 73.05-6.35" fill="#151c19" transform="translate(89.3 37.5)"/><path d="M15.7 68.35q-35.2 5.45-73.05 6.35-6.4-.8-11.4-2.9-15.1-6.3-19.2-21.4l.55-3.55q7.65-10.15 34-14.15 26.35-4.05 65.25-.4 5.1 17.7 3.85 36.05" fill="#50361c" transform="translate(89.3 37.5)"/></g><g id="f"><path d="m-65.6 3.9.3-.35Q-57-.8-40.6-3q15.65-2.1 35.85-1.8Q1.7 7.3 2.2 21.4q-7.25 6.15-21.95 7.95-14.8 1.75-37.45.65-10.9-5.6-12.75-10.8-1.85-5.15 4.35-15.3" fill="#2c7c7b" fill-rule="evenodd" transform="translate(87.45 21.4)"/><path d="M-65.6 3.9q-6.2 10.15-4.35 15.3Q-68.1 24.4-57.2 30q22.65 1.1 37.45-.65 14.7-1.8 21.95-7.95.25 7.25-1.15 15-9.65.3-16.5 1.55-5.7 1-12.8 3.35-5.85 12.9-5.05 27.25-7.9 1.05-16.6.4-9.05-.7-14.8-3.05-8.4-7.3-11.3-12.6-1.75-35.9 10.4-49.4" fill="#1c4e4c" fill-rule="evenodd" transform="translate(87.45 21.4)"/><path d="m-76.3 45.65-.75-3.6-1.3-6.65.65-.55 1.9-1.5 1.1 5.1L-72.35 49l1.85 11.05-7.15-1.9-5.3-1.45-3.9-1.65-.5-1.95-.1-.95.1-.15q.65-.65 1.8-.65t5.5 1.25l.95.3v-.3l-.95-2-.05-1.7q0-4.05 3.65-3.3l.15.05m117.45-17.3q3.5 0 12.85 14.3 4.7 7.2 8.65 14.4 0 .55-4.4 6.05l-4.6 5.1h-.45l-2 .15-.1-.1-7.85.25q-7.3 0-14.5-2.9l-2.3-.95q-2.1 1.6-5.65 3.15-7.1 3.2-9.75 3.2-1.4 0-1.85-1.05L9 68.8q0-.4 1.05-2.35 1.1-2 1.45-2.2 1.1-.45 3.45-1l1.05-.4-1.3.2-1.75.05-.15.05-.45-.1q-2.9 1.15-8.3 2.45-13.7 3.25-31.25 3.25l-5.95-.15-.4-4.7q0-11.05 5.15-22.15l1.05-1.8.95-.3 8-2.25 16.15-1.55 1.5-.1q.4-5.2 5.4-6.75l8.05-.65 5.2.15.05-.2 1.9-.2 16 1 5.3-.75M-53 47.55l2.8 4.55 6.7 10.45 3.7 6.5q-2.25 1.7-5.6 5.35l-5.95.35-7.15.1-1.05.05-.1-.25q0-1.1 4.5-2.9 4.5-1.75 4.5-4.85 0-1.55-1.65-6.7l-1.7-5.8.05-.6-.4-.45q-4.3-4.6-4.3-4.3 0-2.35 2.75-2.15l1.8.4q.4-.15 1.1.25" fill-opacity=".302" fill-rule="evenodd" transform="translate(87.45 21.4)"/><path d="m-85.35 44.8.1.15 1.75 2.65h.6q.1-1.35 7.45-9.9v16.45l-10.95.3.35-6.65.7-3" fill="#4a3119" fill-rule="evenodd" transform="translate(87.45 21.4)"/><path d="M-85.35 44.8q1.6-4.65 6.3-10.8l3.6-4v7.7q-7.35 8.55-7.45 9.9h-.6l-1.75-2.65-.1-.15M-68.2 62.35q1.6-7.3 5.55-14.75 2.95-2.7 9.75 1.7l.1.95q-.8 9.2-4.5 16.65-6.2-.4-10.9-4.55" fill="#6d4b27" fill-rule="evenodd" transform="translate(87.45 21.4)"/><path d="M-68.2 62.35q4.7 4.15 10.9 4.55 3.7-7.45 4.5-16.65l2.7 19.7-7.35 5.05h-.1q-7.15 0-11.55-2.55-.1-4.95.9-10.1" fill="#4a3119" fill-rule="evenodd" transform="translate(87.45 21.4)"/><path d="M10.75-16.5q1.5 10.2 2.4 18.55.75 19.2-16 25.1Q-6 29.8-7 14.25q-2 8.5-2.2 16.85l-.45-6.5q-.55-9.4.6-13.45Q-7.8-6.2-2.45-9.55l7.8-4.75q2.55-1.45 5.4-2.25-2.85.8-5.4 2.25l-7.8 4.75q-5.35 3.35-6.6 20.7Q-9.3 8.2-10.3 4.8q-1-3.45-.65-8.25l.8-7.4q.4-2.55 1.25-3.95 3.3-5.8 9.7-6.55l4.15.15q1.7.3 3.75 2.1 1.1.9 2.05 2.55v.05" fill="#c8c183" fill-rule="evenodd" transform="translate(87.45 21.4)"/><path d="M10.75-16.5v-.05l.05.15 1.3 3.45q1.4 4.1 1.65 5.9.25 2.45 1.65 8.3 1 4.3.75 7.5l-.35 2.05h-.15q-2.6 11.05-7.35 18.4-9.1 9.35-14.6 22.55l-.6-3.6q-.55-2.55-.9-6.05-.35-3.55-.8-5.85l-.6-5.15Q-9 22.75-7 14.25q1 15.55 4.15 12.9 16.75-5.9 16-25.1-.9-8.35-2.4-18.55m-14.3 77Q-1.2 47 7.25 36.75q5.25-6.3 7.25-15.9.65 38.55-6.45 42.1Q3.5 66-3.55 60.5" fill="#ad9656" fill-rule="evenodd" transform="translate(87.45 21.4)"/><path d="M-6.3 51.75Q-.8 38.55 8.3 29.2q4.75-7.35 7.35-18.4h.15q-.4 5.4-1.3 10.05.9-4.65 1.3-10.05l3.3 22.45q1.8 13.55-2 32.45.3 2.95-2.55 4.65-2.8 1.6-5.65 1.85-8.55-.1-10.6-1.8-2.1-1.8-3.05-3.9l-.85-7.75-.7-7m20.8-30.9q-2 9.6-7.25 15.9Q-1.2 47-3.55 60.5 3.5 66 8.05 62.95q7.1-3.55 6.45-42.1M-4.75 66.5l1.2-6-1.2 6" fill="#9a8455" fill-rule="evenodd" transform="translate(87.45 21.4)"/><path d="M10.75-16.55q-2.85.8-5.4 2.25l-7.8 4.75q-5.35 3.35-6.6 20.7m5.5 49.35Q-1.2 47 7.25 36.75q5.25-6.3 7.25-15.9.9-4.65 1.3-10.05M-3.55 60.5l-1.2 6" fill="none" stroke="#2b1f16" stroke-linecap="round" stroke-linejoin="round" stroke-opacity=".302" transform="translate(87.45 21.4)"/></g><g id="g" fill-rule="evenodd"><path d="m-26.9 42.55.25.1-8.25 26.3q-2.4-10.85-5.4-20.65-6.4-20.95-15.55-37.4-7.35-12.3.05-38.95Q-57.7-13.5-49-.6l3.5 4.65q2.75 3.3 5.2 6.95 8.85 13.3 13.4 31.55" fill="#212c28" transform="translate(59.5 51.2)"/><path d="M20.95-18.35q3.05 27.9 15.25 52l-63.1 8.9Q-31.45 24.3-40.3 11q-2.45-3.65-5.2-6.95L-49-.6q3.75-6.15 8.7-11.7 8.5-9.55 20.65-17.45l40.6 11.4" fill="#452e18" transform="translate(59.5 51.2)"/><path d="M-55.8-28.05q3.55-11.9 15.5-18 5.5-2.8 12.8-4.4 41.7-5.25 48 27.3l.25 2.9.2 1.9-40.6-11.4Q-31.8-21.85-40.3-12.3-45.25-6.75-49-.6q-8.7-12.9-6.8-27.45" fill="#5e4022" transform="translate(59.5 51.2)"/></g><g id="h"><path d="M-4.75-38.9q30.7 14.95 51.3 37.3l-26.1 33.3Q-2.2 38.6-27.6 35.45l-24.45-21.1q20.5-29.25 47.3-53.25" fill="#215c5a" fill-rule="evenodd" transform="translate(52.05 38.9)"/><path d="M7.6 46.05q4.25-.85 11.9-1.45l4.7-.35L67.6 77.2l-3.75 3.1q-9.8 3.9-19.65.7L7.6 46.05m-39.15 1.4q5.35-3.85 10.55-3.4 2.7.2 5.3 1.6 3.95 2.1 7.45 2.9l1.25.3v23.8l-18.05 19.7q-6.85-7.85-2.7-20.2l-6.7-16.05q-1.3 2.15-2.1 4.5.35-3.2 1.4-6.15 1.25-3.7 3.6-7M-4.7 49.1q3.95.25 7.2-1.4L39.55 92v1.9q-5.7 1.9-11.55 2.75-18.85-4.4-21.8-12.9L-4.7 49.1" fill="#452e18" fill-rule="evenodd" transform="translate(52.05 38.9)"/><path d="M7.6 46.05 44.2 81q9.85 3.2 19.65-.7Q52 89.7 39.55 93.9V92L2.5 47.7l.5-.3q1.3-.75 4.6-1.35m60 31.15L24.2 44.25 28 44l6.2-.15h2.25Q51 46.95 55 50.65q4 3.65 7.65 8.15l6.55 8.15.65 8.2-2.25 2.05M-7 48.85l2.3.25L6.2 83.75q2.95 8.5 21.8 12.9l-8.9.6-.2-.05q-31.25 3.5-44.35-4.4-9.2-5.55-9.45-16.75-2.5-8.3-1.65-15.45.8-2.35 2.1-4.5l6.7 16.05q-4.15 12.35 2.7 20.2L-7 72.65v-23.8" fill="#5e4022" fill-rule="evenodd" transform="translate(52.05 38.9)"/><path d="m63.85 80.3 3.75-3.1 2.25-2.05Q70.25 85.2 68.5 94q-9.4 9.1-24 13.45-17.15 3.9-33 4.2l-27.6-2.15-10.9-1.7q-4.95-1.95-7.95-8.3-7.5-15.85-9.05-25.35V60.6l4.55-5.35 3.15-3.6q2.35-2.55 4.75-4.2-2.35 3.3-3.6 7-1.05 2.95-1.4 6.15-.85 7.15 1.65 15.45.25 11.2 9.45 16.75 13.1 7.9 44.35 4.4l.2.05 8.9-.6q5.85-.85 11.55-2.75Q52 89.7 63.85 80.3" fill="#212c28" fill-rule="evenodd" transform="translate(52.05 38.9)"/><path d="M36.5 14.2Q21.65 7.65 3.65 10.3q-5.4-.45-9.6 2.65Q-19 22.4-23.7 38.65q1.5 9.9 13.95 12.8 12.5 2.9 33.15.45 20.7-2.45 26.2-6.95T56 35.3q1.9 11.65 1.55 22.55-.4 9.3-3.4 20.6-21.45 13-48 12.05-26.55-1-30.2-7.2-3.6-6.25-3.55-6l-.1-.35-.1-13.35q.05-6.1-.45-12.4l-4.95-8.6q.2-4 1.5-8.35 1.35-4.4 4.75-11.05 3.35-6.65 8.2-11.3T-7.6 3.95Q-1.25.6 8.1 2.05q9.3 1.5 15.65 4.4T36.5 14.2" fill="#215c5a" fill-rule="evenodd" transform="translate(52.05 38.9)"/><path d="M56 35.3q-.9 5.15-6.4 9.65T23.4 51.9q-20.65 2.45-33.15-.45-12.45-2.9-13.95-12.8Q-19 22.4-5.95 12.95q4.2-3.1 9.6-2.65 18-2.65 32.85 3.9 8 5.75 12.95 10.75Q53.9 29.5 56 35.3" fill="#349291" fill-rule="evenodd" transform="translate(52.05 38.9)"/><path d="M-15.65 66.8q0 1.55-2.25 4.55-2.2 2.95-3.95 3.95-.55.65-1.55 5.05l-.35 1.3-2.3-1.8q-1.9-1.85-2-3.45l.2-2.55 4.15-4.6q2.9-2.9 4.75-4.05l3.2.45.1 1.15M.55-16.75 14-15.8q5.85 1.3 5.85 3.7.05.6-.25 1.1-.6 1-2.25 1l-.8-.15-1.8.1-4.25-.75-6.75-.45q-26.1 0-38.8 20.6-2.95 4.7-6.5 13.6L-48 17.6l-2.05-1.7q4.35-8.6 9.25-14.05 1.85-2.1 3.15-2.85l.8-.8q4.2-3.95 9.2-6.75 4.35-2.5 13.4-5.7l10.6-2.45 2.9.1 1.3-.15m24.4 86 .5-.1q2.15-.25 2.15 1.9 0 .6-1.8 3.6L24 77.9q0 .65.5 2.85 0 3.7-1 6.5l-1.35 2.6-8.75.9h-.85l-.4-.2 1.75-3.85 2.65-4.8 5.95-9 2.45-3.65M56.3 55.6l.25.05q1.3.45 1.3 3.2 0 1.45-.85 3.25-.9 1.8-.9 2.6l.65 1.8.6 2.05-1.25 6.65-1.05 3.25-6.75 3.2-.5.3 1.95-9.45 2.45-8.75 1.35-4.95.3-.7 1.5-2.35.2-.35.75.2" fill-opacity=".302" fill-rule="evenodd" transform="translate(52.05 38.9)"/><path d="M-24.45 81.4q1-7.7 5.3-16.6 4.45-.05 8.85 1.65l.1.4-2.1 18.6q-5.3-.15-12.15-4.05" fill="#80592e" fill-rule="evenodd" transform="translate(52.05 38.9)"/><path d="M-10.2 66.85Q-7.7 77.2-8.45 87.7q-.4 4.9-3.55 7.2-10 1.55-13.75-3.15l1.3-10.35q6.85 3.9 12.15 4.05l2.1-18.6M66.95 66.3l.7 2.95.35 6.55q.6 1.4-3.6 4.65-5.95-.45-9.75-2.65V57.5l9.9 13.3q.85-2.25 2.3-4.35l.1-.15" fill="#573a1e" fill-rule="evenodd" transform="translate(52.05 38.9)"/><path d="m54.65 57.5 2.5-5.85 3.6 3.95q4.65 6.1 6.2 10.7l-.1.15q-1.45 2.1-2.3 4.35l-9.9-13.3M24.4 69.4q7.05-3.85 9.85-1.2 3.65 7.35 5 14.55Q33.6 85.65 27.9 85q-2.95-5.1-3.5-15.6" fill="#80592e" fill-rule="evenodd" transform="translate(52.05 38.9)"/><path d="M39.25 82.75q.85 5.05.15 10.55-4 1.9-12.95 2.75-2.6-2.1-4.65-6.6.05-7.95 2.6-20.05.55 10.5 3.5 15.6 5.7.65 11.35-2.25" fill="#573a1e" fill-rule="evenodd" transform="translate(52.05 38.9)"/><path d="M-17.8-9.6q3.5-1.95 7.35-3.4 5.95-2.05 12.35-2.4l5.3-.2q7.1.3 13.85 1.85 6.7 1.5 12.75 6.05Q49 3.35 47.95 23.3 49 3.35 33.8-7.7l3.9 2.1q3.35 1.7 7.9 6.1 4.55 4.35 5.35 11.65t.9 14.7v.7l-3.9-4.25q-2.55-2.5-4.9-4.1l-1.25-.8Q36.6 8.2 26.45 3.7q-5.35-5-11.65-9.75Q1.95-15.8-17.8-9.6 5.15-13.4 12.55.4L11.7.3l.9.1L10 .25Q-5.75 2.3-14.8 8.8q-19.9 12-25.7 4.6 2.35-4.9 4.8-8.8 2.85-4.65 9.05-8.7l8.85-5.5M9.75.25 8.7.2 8 .25h1.75M-47.9 42.4h.15l-.05.25-.1-.25" fill="#ebe39a" fill-rule="evenodd" transform="translate(52.05 38.9)"/><path d="M-17.8-9.6q19.75-6.2 32.6 3.55Q21.1-1.3 26.45 3.7 36.6 8.2 41.8 18.4l-3.25-2.3-2.25-1.6-2.4-1.55q-4.35-2.8-10.8-4.7T13.8 5.8Q8.35 5 2.85 5.8q-5.05.65-9.55 2.75-7.6 2.7-13.8 5.55-11.6 5.3-18.55 10.75-7.75 6.1-8.7 17.55h-.15l.1-2.7q.5-6.1 2-11.9 1.75-6.7 4.5-12.65l.8-1.75q5.8 7.4 25.7-4.6Q-5.75 2.3 10 .25l2.6.15-.9-.1.85.1q-7.4-13.8-30.35-10m54.1 24.1Q32 8.85 26.45 3.7 32 8.85 36.3 14.5M-47.45 51l-.45-6.25V42.4l.1.25-.1 2.1q4.65-12.7 16.35-14.85-7.65 9.6-8 20.75l-.1.25q-3.9 6.85-7.8.1M9.75.25H8L8.7.2l1.05.05" fill="#ccb165" fill-rule="evenodd" transform="translate(52.05 38.9)"/><path d="M-6.7 8.55q-2.65 1.2-5.05 2.9-7.2 4.85-11.75 12.2-3.95 6.3-6.15 13.5-2.45 8.15-3.6 16.85-.5 4-3.55 6.95-5.75 1.1-9-3.95-.9-1.45-1.2-3.25l-.3-1.9-.15-.85q3.9 6.75 7.8-.1l.1-.25q.35-11.15 8-20.75-11.7 2.15-16.35 14.85l.1-2.1.05-.25q.95-11.45 8.7-17.55Q-32.1 19.4-20.5 14.1q6.2-2.85 13.8-5.55" fill="#b59c64" fill-rule="evenodd" transform="translate(52.05 38.9)"/><path d="M-17.8-9.6q19.75-6.2 32.6 3.55Q21.1-1.3 26.45 3.7 32 8.85 36.3 14.5m11.65 8.8Q49 3.35 33.8-7.7m-81.55 50.1q.95-11.45 8.7-17.55Q-32.1 19.4-20.5 14.1q6.2-2.85 13.8-5.55M-47.75 42.4l-.05.25-.1 2.1" fill="none" stroke="#33251b" stroke-linecap="round" stroke-linejoin="round" stroke-opacity=".2" transform="translate(52.05 38.9)"/></g><g id="r" fill-opacity=".231" fill-rule="evenodd"><path d="M0 3.55q1.75.25 2.5 0L1.7.9l3.65 1.2L4.7 0l1.95 2.35L8.6 5.6 7.15 4l.5 3.5-1.5-1.9-2.65.1L0 3.55"/><path d="M8 3.45Q6.55 2.8 5.1 2.1L1.35.85l2.05 1.1L.1 2l2.35 1L3.5 5.4l3.4 2.8Q5.9 6.7 5.75 6l2.75.35L5.85 3.2 8 3.45"/></g><path d="M273.3 182.55h-.8q-1.2.1-1.85 1.25l-.25.75-.15 1.2-5.75.3q-3.15.45-4.75 1.3l-.05.1q-1.5 1.6-1.9 5l-.7.75q-.9 1.15-1.2 2.05l-.45.45-.05.7-.15.65-.15 1.3q.05 1.2.35 2.25.1.45 1.25 1.7 1.1 1.3 2.1 1.8l15.35-.55v-.05q5.6-.85 10.05-.2 12.3.75 11.65-1.8l.05-1.5-.75-2.6q-.05-.95-1.35-2.25-2.1-2.65-6.8-3.4l-.6-.1h-9.5l1.75-1.8q-.6-4.25-3.55-10.45-.05 1.25-1.1 3.5z" fill="none" stroke="#122f3a" stroke-linecap="round" stroke-linejoin="round" stroke-opacity=".4" transform="translate(-254.6 -178.9)" id="a"/><path d="m43.6 33.15.3 1.05q0 1.6-7.1 5.55L28 44.4q-.45.25-9.15 5.8l-7 4.3q-1.1 0-1.75-.6-.6-.55-.6-1.3 0-.95 1.35-2.4L13 47.8q-1.25-.2-1.75-.85l-.5-1.05q-1 .6-1.5.6-2 0-2-2 0-.95 1.55-2.35l2.7-2.5-.75.1q-2.5.35-3.3-.5Q7 38.85 7 37.7q0-1.1 2.85-3.75 3-2.75 7.1-5.2 10.8-6.5 17.65-4.5l11.6 1.45q3.1.55 3.1 2.85 0 2.15-3 2.15-3 .05-3 1.35l.3 1.1" fill="#3a2714" fill-opacity=".749" fill-rule="evenodd" transform="translate(-7 -23.8)" id="n"/><path d="M284.8 191q5.8 4.05 9.3 10.2l.4-.8q1.4-2.35.05-7.5-.7-2.25-3-3.4l-2.45-.75q-7.85-.8-9.15 5.3l4.85-3.05m-4.85 3.05q-2.9 2.05-5.1 4.55l.25.3-.1.1q-.85.85-1 2.25l-.2 2.85.05.25-.85 1.45-.3 3.25-.6.65-.7 1.05-.9 1.2-.2 1.6q-.05 1.95.25 3.65 1.8 1.7 4.65 2.45l6.3.65 5.3-.55 2.1-.4q.95-.4 1.55-1.65 1.45-3.1 1.75-4.95l.05-2.6-.15-.2.45-.5.25-.7.05-.35.05-.2.1-1.2v-.45l-.05-.5-.15-1.25q0-1.35-.4-2.2l1.7-1.4m-1.3 3.6q.55-2.1 1.3-3.6" fill="none" stroke="#122f3a" stroke-linecap="round" stroke-linejoin="round" stroke-opacity=".4" transform="translate(-269.8 -188.15)" id="i"/><path d="M13.65-12.3q0 11.6-8.2 19.8t-19.8 8.2-19.8-8.2-8.2-19.8 8.2-19.8 19.8-8.2 19.8 8.2 8.2 19.8" fill="url(#q)" fill-rule="evenodd" transform="translate(42.35 40.3)" id="p"/><path d="M18.55 3.5q1.05-2.25 1.1-3.5 2.3 4.85 3.2 8.55-3.2 2.85-8.35 5.05-6.7 2.9-12.8 3.05H0v-.35l.45-.45q.3-.9 1.2-2.05l.7-.75q.4-3.4 1.9-5l.05-.1q1.6-.85 4.75-1.3l5.75-.3.15-1.2.25-.75q.65-1.15 1.85-1.25h.8l.7.35" fill="url(#t)" fill-rule="evenodd" id="s"/><use width="55.7" height="51.4" xlink:href="#m" id="c"/><use width="56" height="56" xlink:href="#p" id="j"/><use width="8.6" height="8.2" xlink:href="#r" id="k"/><use width="22.85" height="16.65" xlink:href="#s" id="l"/><radialGradient id="q" cx="0" cy="0" r="819.2" gradientTransform="translate(-14.35 -12.3) scale(.0349)" gradientUnits="userSpaceOnUse"><stop stop-color="#ffee69" stop-opacity=".8" offset="0"/><stop stop-color="#fef18a" stop-opacity="0" offset="1"/></radialGradient><radialGradient id="t" cx="0" cy="0" r="819.2" gradientTransform="matrix(.0202 -.0087 .0058 .0081 9.85 7.1)" gradientUnits="userSpaceOnUse"><stop stop-color="#ffee69" stop-opacity=".8" offset="0"/><stop stop-color="#fef18a" stop-opacity="0" offset="1"/></radialGradient></defs></svg>