<svg viewBox="0 0 244.85 301.78" xmlns="http://www.w3.org/2000/svg" xmlns:xlink="http://www.w3.org/1999/xlink"><g transform="translate(-158.12 -252.37)"><use transform="translate(157.94 252.3) scale(3.4103)" width="54.15" height="77.8" xlink:href="#a"/><use transform="translate(218.29 288.8) scale(3.4103)" width="54.15" height="77.8" xlink:href="#a"/></g><defs><radialGradient id="c" cx="0" cy="0" r="819.2" gradientTransform="translate(24.8 73.6) scale(.0255)" gradientUnits="userSpaceOnUse"><stop stop-color="#bb9e5a" offset="0"/><stop stop-color="#957e4a" offset="1"/></radialGradient><use width="54.15" height="77.8" xlink:href="#b" id="a"/><g id="b"><path d="M49.4 32.9v-.05l.05.05h-.05M52 53.85v.05-.05m-13.2 18.6-.25.85.05-.95.2.1m-.35 1-1.5 1.75-1.05.65q.9-1.7.1-5.55 1 2.45 2.45 3.15" fill="#283c44" fill-rule="evenodd" transform="translate(.5 -5.35)"/><path d="m20.6 40.4-.05-.2.15.15-.1.05" fill="#314b56" fill-rule="evenodd" transform="translate(.5 -5.35)"/><path d="m52 53.9-.45 5.05.15.3q-4.65 2.45-7.5 1.35-4.95 1.5-5.6 11.75l-.05.95-.1.15Q37 72.75 36 70.3q.8 3.85-.1 5.55v.05l-3.5 1.5-.25.05-1.35.4-.7.1-.4.05-1.7.2-7.25.45h-2.5l-1.75-.1-3.35-.4-1.05-.2q-3.55-.7-6.35-2.05-3.4-1.65-5.7-4.3V71q0-7.25 3.35-10.75 4.05-.3 8.7-2.6 10.5-8.7 8.5-17.25l.1-.05 5.95 2.9 13.3-1.5q3 .75 6.15 3.95l3.95 5 1 1.55.95 1.6v.05" fill="#b89300" fill-rule="evenodd" transform="translate(.5 -5.35)"/><path d="m49.2 32.55.2.35h.05Q53.1 39.95 52 53.85l-.95-1.6-1-1.55-3.95-5q-3.15-3.2-6.15-3.95l-13.3 1.5-5.95-2.9-.15-.15-1.3-1.25.05-.05-.25-.25.9-1.4h.15l1.85.4q8.25 1.4 15.35-.3l.35-.1Q45 35.4 49.2 32.55m2.5 26.7q.45.95.55 2.25l-.6 1.55-2.85-.5-4.3 3.55q-2.55 1.75-5.7 6.35l-.2-.1q.65-10.25 5.6-11.75 2.85 1.1 7.5-1.35" fill="#907300" fill-rule="evenodd" transform="translate(.5 -5.35)"/><path d="M35.9 75.9 34 78.45l-1.6-1.05 3.5-1.5M29.7 78l-1.6 1.6q-5.75 1.35-9.85-.95h2.5L28 78.2l1.7-.2m-17.6-.05Q8.8 81.9 5.75 75.9q2.8 1.35 6.35 2.05M44.5 66.1l4.3-3.55 2.85.5q-1.55 2-7.15 3.05" fill="#6e0505" fill-rule="evenodd" transform="translate(.5 -5.35)"/><path d="m52.25 61.5-.05 1.65-.4 2.25Q50.35 67 45.45 68q-4.35 3.25-6.75 10.9l-7.9 2.95Q8.3 85.05.3 75.6l-.25-4q2.3 2.65 5.7 4.3 3.05 6 6.35 2.05l1.05.2 3.35.4 1.75.1q4.1 2.3 9.85.95l1.6-1.6.4-.05.7-.1 1.35-.4.25-.05 1.6 1.05 1.9-2.55v-.05l1.05-.65 1.5-1.75.1-.15.25-.85q3.15-4.6 5.7-6.35 5.6-1.05 7.15-3.05l.6-1.55" fill="#a00707" fill-rule="evenodd" transform="translate(.5 -5.35)"/><path d="m49.2 32.55.2.35v-.05l.05.05Q53.1 39.95 52 53.85v.05l-.45 5.05.15.3q.45.95.55 2.25l-.05 1.65-.4 2.25Q50.35 67 45.45 68q-4.35 3.25-6.75 10.9l-7.9 2.95Q8.3 85.05.3 75.6l-.25-4V71q0-7.25 3.35-10.75 4.05-.3 8.7-2.6 10.5-8.7 8.5-17.25l-.05-.2-1.3-1.25.05-.05-.25-.25.9-1.4m18.6 36.05.25-.85m-.25.85-.1.15-1.5 1.75m-4.55 2.2-.25.05-1.35.4-.7.1-.4.05m-11.45.65-1.75-.1-3.35-.4-1.05-.2M5.75 75.9q-3.4-1.65-5.7-4.3m5.7 4.3q2.8 1.35 6.35 2.05m20.3-.55 3.5-1.5m-17.65 2.75h2.5L28 78.2l1.7-.2m21.95-14.95.6-1.55m-.6 1.55q-1.55 2-7.15 3.05-2.55 1.75-5.7 6.35" fill="none" stroke="#000" stroke-linecap="round" stroke-linejoin="round" stroke-opacity=".302" transform="translate(.5 -5.35)"/><path d="m19.55 73.55-.25-.15-.05-.15.5-.15-.2.45" fill="url(#c)" fill-rule="evenodd" transform="translate(.5 -5.35)"/><path d="m19.75 73.1-1.6-5.35-5.2-3.05q-2.5-1.05-5.95-1.55-1.6-.05-4.75 1.05Q.65 66.25.2 67.7q.3-4.25 3.25-7.5 3.45.05 8.7-2.6 2.75-2.2 6.4-6.9l6.3-1.05 8.65 3.7 5.6 5.2-10.75 11.6-8.6 2.95" fill="#d9af07" fill-rule="evenodd" transform="translate(.5 -5.35)"/><path d="m39.1 58.55 1.05.95v5.85l-.9 2.05 1.9 1.9-2.05 2.8-3.2 3-14-.45-2.35-1.1.2-.45 8.6-2.95 10.75-11.6" fill="#b89300" fill-rule="evenodd" transform="translate(.5 -5.35)"/><path d="m39.6 53.2 1.05.95V60l-.9 2.05 1.9 1.9-2.05 2.8-3.2 3-14-.45-2.35-1.1-.25-.15-.05-.15.5-.15-1.6-5.35m-5.2-3.05q-2.5-1.05-5.95-1.55-1.6-.05-4.75 1.05-1.6 2.05-2.05 3.5" fill="none" stroke="#000" stroke-linecap="round" stroke-linejoin="round" stroke-opacity=".2" stroke-width=".7"/><path d="m37.65 37.45-.35.1.35-.1" fill="#665631" fill-rule="evenodd" transform="translate(.5 -5.35)"/><path d="M18 26.6 16.7 24q-4.85-8.8 2.9-13.45 6 .2 13.5-2.5 7.2-2 12.85-1 1.8.15 2.15 3.6l-5.8 3.15q-1.5 2.7-4.4 4.15-4.15 2.1-8.5 3.5l-9.7.35q4.35 1.55 9.1 2.35L35.9 34q-2.25 1.9-4.35 2.5-3.7 1-7.55 1.05l-2.05.3-1.85-.4h-.15q-4.15-.9-2.6-3.9l.05-.05 1.95 1.55-.9-5.65q0-1.45-.45-2.8m23.9-14.15.5-.25q4.85-2.5-.9-3.3l-3.75.1q-5.4.4-12.35 2.4l-7.3 2.4q-1.95 2.15-.75 3.05Q22.4 17.9 30.8 16l7.6-2.1 3.5-1.45m-22.45-.05-1.35 1.4 1.35-1.4" fill="#d01414" fill-rule="evenodd" transform="translate(.5 -5.35)"/><path d="m21.95 37.85 2.05-.3q3.85-.05 7.55-1.05 2.1-.6 4.35-2.5l-7.1-9.85q-4.75-.8-9.1-2.35l9.7-.35q4.35-1.4 8.5-3.5 2.9-1.45 4.4-4.15l5.8-3.15q.2 2.2-.2 5.85.65 3.25 1.75 5.2v4.7l1.75-2.6q1.65 1.9 1.75 4.35-8.85 6.85-15.5 9.3l-.35.1q-7.1 1.7-15.35.3" fill="#a00707" fill-rule="evenodd" transform="translate(.5 -5.35)"/><path d="m18.45 29.4.9 5.65-1.95-1.55q1-2.1 1.05-4.1m31.2-7.7 1.5 1.85.25.25-1.75 2.6v-4.7m3.5 6.45v.8q-1.4 2.1-3.95 3.8-4.2 2.85-11.55 4.7 6.65-2.45 15.5-9.3M41.5 8.9q5.75.8.9 3.3l-.5.25L37.75 9l3.75-.1M30.8 16q-8.4 1.9-13.45.85-1.2-.9.75-3.05l7.3-2.4q1.9 2.75 5.4 4.6" fill="#6e0505" fill-rule="evenodd" transform="translate(.5 -5.35)"/><path d="m41.9 12.45-3.5 1.45-7.6 2.1q-3.5-1.85-5.4-4.6 6.95-2 12.35-2.4l4.15 3.45" fill="#8e0505" fill-rule="evenodd" transform="translate(.5 -5.35)"/><path d="M48.1 10.65q-.35-3.45-2.15-3.6-5.65-1-12.85 1-7.5 2.7-13.5 2.5Q11.85 15.2 16.7 24l1.3 2.6m-.6 6.9-.05.05q-1.55 3 2.6 3.9h.15l1.85.4m26.15-27.2q.2 2.2-.2 5.85.65 3.25 1.75 5.2l1.5 1.85.25.25q1.65 1.9 1.75 4.35v.8q-1.4 2.1-3.95 3.8-4.2 2.85-11.55 4.7l-.35.1q-7.1 1.7-15.35.3M41.5 8.9q5.75.8.9 3.3l-.5.25-3.5 1.45-7.6 2.1q-8.4 1.9-13.45.85-1.2-.9.75-3.05l1.35-1.4m-1 17q-.05 2-1.05 4.1m.7-19.7 7.3-2.4" fill="none" stroke="#000" stroke-linecap="round" stroke-linejoin="round" stroke-opacity=".302" transform="translate(.5 -5.35)"/><path d="M28.3 72.9q-.65 1.15-.65 2.3 0 1.2.65 1.75l1.6.05q.95-.4 1.6-1.5.65-1.15.65-2.35 0-1.15-.65-1.7l-1.6-.1q-.95.45-1.6 1.55" fill="#4c5031" fill-opacity=".102" fill-rule="evenodd" transform="translate(.5 -5.35)"/><path d="M30.9 77.45q-.35.6-.35 1.15t.35.8l.75.1.8-.8.3-1.1-.3-.85-.8-.05q-.45.25-.75.75" fill="#4c5031" fill-opacity=".4" fill-rule="evenodd" transform="translate(.5 -5.35)"/><path d="M35.6 74.95q1.2-.55 2.05-2 .8-1.35.8-2.9 0-1.5-.8-2.2l-2.05-.05q-1.2.5-2 1.9-.85 1.4-.85 2.9 0 1.55.85 2.2l2 .15" fill="#4c5031" fill-opacity=".302" fill-rule="evenodd" transform="translate(.5 -5.35)"/><path d="M9.4 74.95q.8.35 1.2 1.05.35.65.1 1.35-.3.65-1.05.85l-1.6-.15q-.85-.4-1.2-1.1-.4-.7-.1-1.35.25-.7 1.05-.85l1.6.2" fill="#4c5031" fill-opacity=".102" fill-rule="evenodd" transform="translate(.5 -5.35)"/><path d="M6.95 78.1q.2.35.05.65l-.55.45-.75-.1-.6-.55q-.15-.35 0-.65l.5-.45.8.15.55.5" fill="#4c5031" fill-opacity=".4" fill-rule="evenodd" transform="translate(.5 -5.35)"/><path d="M2.95 76q-1.05-.45-1.55-1.4-.45-.85-.1-1.65.35-.85 1.3-1.1 1-.2 2.05.25 1.05.5 1.5 1.35.5.9.15 1.75-.35.8-1.35 1l-2-.2" fill="#4c5031" fill-opacity=".302" fill-rule="evenodd" transform="translate(.5 -5.35)"/><path d="M37.85 8.45q.05-.95.95-1.9 1.45-.75 2.35.4l-.35 1.6-2.95-.1" fill="#be0000" fill-rule="evenodd" transform="translate(.5 -5.35)"/><path d="m40.8 8.55-.4 1.6q-1.1 1.2-2.3-.25-.35-.7-.25-1.45l2.95.1" fill="#810000" fill-rule="evenodd" transform="translate(.5 -5.35)"/><path d="m41.3 3.2-.4 1.6q-1.1 1.2-2.3-.25-.35-.7-.25-1.45.05-.95.95-1.9 1.45-.75 2.35.4z" fill="none" stroke="#000" stroke-linecap="round" stroke-linejoin="round" stroke-opacity=".302" stroke-width=".7"/><path d="M43.3 8.7q-1.9.7-3.3-.45.2-1.2 1.3-2.3 1.75-.7 2.6.75l-.6 2" fill="#be0000" fill-rule="evenodd" transform="translate(.5 -5.35)"/><path d="M40 8.25q1.4 1.15 3.3.45l-.7 1.9q-1.4 1.35-2.5-.55-.35-.9-.1-1.8" fill="#810000" fill-rule="evenodd" transform="translate(.5 -5.35)"/><path d="m43.8 3.35.6-2Q43.55-.1 41.8.6q-1.1 1.1-1.3 2.3-.25.9.1 1.8 1.1 1.9 2.5.55z" fill="none" stroke="#000" stroke-linecap="round" stroke-linejoin="round" stroke-opacity=".302" stroke-width=".7"/><path d="M15 60.3q3.25 2.25-.4 3.45l-2.5-.4q-1.85-.5-2.95-1.25-1.05-.95-.7-1.55.35-.7 1.95-.85l3.55.2 1.05.4" fill="#d3c89c" fill-rule="evenodd" transform="translate(.5 -5.35)"/></g></defs></svg>