<svg viewBox="0 0 351.13 239.1" xmlns="http://www.w3.org/2000/svg" xmlns:xlink="http://www.w3.org/1999/xlink"><use transform="translate(-.01 .02)" width="351.15" height="239.1" xlink:href="#a"/><defs><g id="a"><path d="M298.8 454.5q-18.8 3.85-34.65-3.6-5.65-5-2.35-22.6l54.9-12.85q3.75 21 2.4 28.2-1.4 7-20.3 10.85" fill="#100b0a" fill-rule="evenodd" transform="translate(-104.9 -283.4)"/><path d="M193.9 171.1q-18.8 3.85-34.65-3.6-5.65-5-2.35-22.6l54.9-12.85q3.75 21 2.4 28.2-1.4 7-20.3 10.85z" fill="none" stroke="#332720" stroke-linecap="round" stroke-linejoin="round" stroke-width="1.5"/><path d="M235.8 442q-1.2 6.5-18.6 9.7-17.3 3.2-31.8-4.1-5.15-4.6-1.95-20.65l50.35-10.65q3.35 19.3 2 25.7" fill="#100b0a" fill-rule="evenodd" transform="translate(-104.9 -283.4)"/><path d="M130.9 158.6q-1.2 6.5-18.6 9.7-17.3 3.2-31.8-4.1-5.15-4.6-1.95-20.65l50.35-10.65q3.35 19.3 2 25.7z" fill="none" stroke="#332720" stroke-linecap="round" stroke-linejoin="round" stroke-width="1.5"/><path d="M120.75 446q-5.1-4.65-1-32.35l49.55 1.05q3.3 19.3 1.95 25.75-1.3 6.5-18.65 9.65-17.3 3.2-31.85-4.1" fill="#100b0a" fill-rule="evenodd" transform="translate(-104.9 -283.4)"/><path d="M15.85 162.6q-5.1-4.65-1-32.35l49.55 1.05q3.3 19.3 1.95 25.75-1.3 6.5-18.65 9.65-17.3 3.2-31.85-4.1z" fill="none" stroke="#332720" stroke-linecap="round" stroke-linejoin="round" stroke-width="1.5"/><path d="m125.8 341.15.45-.5q11.7-6.15 34.9-9.2 20.55-2.8 46.7-2.6-.5 18.5-1.9 32.2-.65 5.8 7.85 11.9-14.3 3.15-23.2 4.2-20.85 2.45-52.9.95-15.4-7.95-18.05-15.3-2.6-7.25 6.15-21.65" fill="#e6ad3d" fill-rule="evenodd" transform="translate(-104.9 -283.4)"/><path d="M125.8 341.15q-8.75 14.4-6.15 21.65 2.65 7.35 18.05 15.3 32.05 1.5 52.9-.95 8.9-1.05 23.2-4.2-1.3 2.65-1.95 5.5-2.25 9.3 2.4 19.8l6.15 13.85q.2 5.85.65 11.3l.7 7.2-73.75 2.5q-12.75-1-20.9-4.3-11.9-10.35-15.95-17.8-.65-50.7 14.65-69.85" fill="#ad651f" fill-rule="evenodd" transform="translate(-104.9 -283.4)"/><path d="m211.85 378.45 9.95-.3.45 45h-.1l-1.1.25q-.45-5.45-.65-11.3l-6.15-13.85q-4.65-10.5-2.4-19.8m80 44.65-12.35.5h-48.6l-8-10.15q23.1 2.7 41.75 3.55 15.05.65 27.2 0v6.1" fill="#b07a39" fill-rule="evenodd" transform="translate(-104.9 -283.4)"/><path d="M102.95 45.45q-26.15-.2-46.7 2.6-23.2 3.05-34.9 9.2l-.45.5m86.05 37.3 9.95-.3.45 45h-.1l-1.1.25.7 7.2-73.75 2.5q-12.75-1-20.9-4.3-11.9-10.35-15.95-17.8Q5.6 76.9 20.9 57.75M116.15 140q-.45-5.45-.65-11.3" fill="none" stroke="#32251b" stroke-linecap="round" stroke-linejoin="round" stroke-width="1.5"/><path d="m227 302.5-7.9-7.1q12.95-6.7 24.4-9.4 26.4-4.9 53.35 3.05 3.95 1 8.15 2.8l5.15 1.4q9.5 3.05 14.3 5.75.25 4.45-.85 7.9l-4.3-.95Q290.75 300 263.35 300l-26.75 1.3-6.6.75-3 .45m63.65 15.75-.4 2.25.25-2.3.15.05m-54.15-18.3.1 1.35-.1-1.35" fill="#3d2f10" fill-rule="evenodd" transform="translate(-104.9 -283.4)"/><path d="M323.6 306.9q-4.5 13.95-31.3 11l-1.65.3v.05l-.15-.05q-23.55 4.25-50.45-7.05l-7.3-3.55-5.75-5.1 3-.45 6.6-.75q.65 8.2 3.45 9.85-2.8-1.65-3.45-9.85l26.75-1.3q27.4 0 55.95 5.95l4.3.95m-32.2-.7q.75 5.3-.9 12 1.65-6.7.9-12" fill="#231c0a" fill-rule="evenodd" transform="translate(-104.9 -283.4)"/><path d="m122.1 19.1-7.9-7.1q12.95-6.7 24.4-9.4 26.4-4.9 53.35 3.05 3.95 1 8.15 2.8l5.15 1.4q9.5 3.05 14.3 5.75.25 4.45-.85 7.9-4.5 13.95-31.3 11l-1.65.3v.05l-.4 2.25-1.1 2.95m1.35-5.25q-23.55 4.25-50.45-7.05l-7.3-3.55-5.75-5.1m9.6-1.2-.1-1.35m3.55 11.2q-2.8-1.65-3.45-9.85m53.65 19.2.25-2.3q1.65-6.7.9-12" fill="none" stroke="#332720" stroke-linecap="round" stroke-linejoin="round" stroke-width="1.5"/><path d="m218.25 318.1.35-.3 1.9-1.35.3.15-.25-.15 6.25-3.95q20.25 4.9 52.5 8.9 23.75 5.3 39.3-3.15-2.15 1.8-3.6 4.65v10.25q15.4 33.15 15.9 55.6.4 22.45-.75 28.25-18.05 17.9-66.4 15.25-24.85-12.15-40.3-8.15-6.9 1.8-10.1 3-2.4 1-2.65 1.7-1.1-1.9-5.45-11.95L199 402.6q-6-14.15-7.75-25.25-1.2-7.35-.5-13.35 1.4-14.2 1.9-33.25l.1-2.85q-.1-1.25 9.45-2.7 7.9-1.2 13.2-4.9l2.85-2.2m37 101.25q-24.2-2.35-36.45 4-3.1 1.65-5.45 3.75 2.35-2.1 5.45-3.75 12.25-6.35 36.45-4M308.7 332l6.3-9.1-6.3 9.1" fill="#644d19" fill-rule="evenodd" transform="translate(-104.9 -283.4)"/><path d="m113.35 34.7.35-.3 1.9-1.35.3.15-.25-.15 6.25-3.95q20.25 4.9 52.5 8.9 23.75 5.3 39.3-3.15-2.15 1.8-3.6 4.65v10.25q15.4 33.15 15.9 55.6.4 22.45-.75 28.25-18.05 17.9-66.4 15.25-24.85-12.15-40.3-8.15-6.9 1.8-10.1 3-2.4 1-2.65 1.7-1.1-1.9-5.45-11.95L94.1 119.2q-6-14.15-7.75-25.25-1.2-7.35-.5-13.35 1.4-14.2 1.9-33.25l.1-2.85q-.1-1.25 9.45-2.7 7.9-1.2 13.2-4.9l2.85-2.2q-.85.4.5-.5l-.5.5m96.75 4.8-6.3 9.1m-95.35 95.1q2.35-2.1 5.45-3.75 12.25-6.35 36.45-4" fill="none" stroke="#32251b" stroke-linecap="round" stroke-linejoin="round" stroke-width="1.5"/><path d="m236.1 302.4 6.15 2.9q23.5 10.05 45.75 6.9l1.5-.15 3.2-.65q20.95-4.55 27.9-14.65 2 1.15 2.85 2.45 9.05 13.55-5.05 23.7l-9.6 5.35q-57.35 17.45-82.95-2.7l-2.4-2.2q-18.35-13.4-3.5-29.15l.4-.05q2.2-1.15 4.45-2.15l11.3 10.4-2.5-1.3 2.5 1.3" fill="#644d19" fill-rule="evenodd" transform="translate(-104.9 -283.4)"/><path d="m131.2 19 6.15 2.9q23.5 10.05 45.75 6.9l1.5-.15 3.2-.65m27.9-14.65q2 1.15 2.85 2.45 9.05 13.55-5.05 23.7l-9.6 5.35m-85.35-4.9q-18.35-13.4-3.5-29.15m.4-.05q2.2-1.15 4.45-2.15M131.2 19l-2.5-1.3" fill="none" stroke="#332720" stroke-linecap="round" stroke-linejoin="round" stroke-width="1.5"/><path d="M299.9 334.15q9.3 3.9 13.75 15.5 5.65 17.1 2.2 29.85l-1.1 3.45q-1.55 3.9-4.05 7.35-5 6.65-13.55 11.65-20.95 4.55-31.65-1.4l-8.45-4.85q-3.2-5.95-4.4-12.05l-.45-1.25q-4.15-18.7 7.75-35.2 2.5-1.8 6.55-2.5 7.2-1.4 12.9-1 4.4.45 8 1.7l-8.7.65q-.15 0-.3.15-12.75 1.95-16.5 7.65-.25.55-.4 1.25-1.55 4.15-2.1 8-1.65 13.35 7.25 24.7-3.5.4 4.55.7 11.8.8 19.55-1.8l1.65-.45 4.45-2.6q20.4-13.75 3.05-49.5" fill="#283f4a" fill-rule="evenodd" transform="translate(-104.9 -283.4)"/><path d="m288.55 345.95.95.1 3.05-7.45q2.35-5 4.85-5l2.5.55q17.35 35.75-3.05 49.5l-4.45 2.6-1.65.45q-7.75 2.6-19.55 1.8-8.05-.3-4.55-.7-8.9-11.35-7.25-24.7.55-3.85 2.1-8 .15-.7.4-1.25 3.75-5.7 16.5-7.65.15-.15.3-.15l8.7-.65q.7.1 1.15.55m-16.1 18-13.05-.85 13.05.85m20.4-13.7 1.65-6.4-1.65 6.4m-5.3 5.5 1.95-9.7-1.95 9.7" fill="#518195" fill-rule="evenodd" transform="translate(-104.9 -283.4)"/><path d="m183.65 62.55.95.1 3.05-7.45q2.35-5 4.85-5l2.5.55q9.3 3.9 13.75 15.5 5.65 17.1 2.2 29.85l-1.1 3.45q-1.55 3.9-4.05 7.35-5 6.65-13.55 11.65-20.95 4.55-31.65-1.4l-8.45-4.85q-3.2-5.95-4.4-12.05M147.3 99q-4.15-18.7 7.75-35.2 2.5-1.8 6.55-2.5 7.2-1.4 12.9-1 4.4.45 8 1.7m2.1.65-1.95 9.7" fill="none" stroke="#332720" stroke-linecap="round" stroke-linejoin="round" stroke-width="1.5"/><path d="m294.5 343.85-1.65 6.4" fill="none" stroke="#9abac9" stroke-miterlimit="3" stroke-opacity=".792" transform="translate(-104.9 -283.4)"/><path d="m259.4 363.1 13.05.85" fill="none" stroke="#9abac9" stroke-miterlimit="3" stroke-opacity=".502" transform="translate(-104.9 -283.4)"/><path d="M117 347.15q1.85-1.4 3.9-1.9 10.6-.6 12.4 7l-.05.4q-1.45 6.45-2.65 12.85-4.05 22-5.3 43.05-3.1 2.9-5.7 3.15-8.35.15-13.55-5.5-1.75-22.25 4.35-43.7 1.85-6.55 4.4-13.15 1.05-1.4 2.2-2.2" fill="#211612" fill-rule="evenodd" transform="translate(-104.9 -283.4)"/><path d="M12.1 63.75q-1.15.8-2.2 2.2-2.55 6.6-4.4 13.15-6.1 21.45-4.35 43.7 5.2 5.65 13.55 5.5 2.6-.25 5.7-3.15 1.25-21.05 5.3-43.05 1.2-6.4 2.65-12.85l.05-.4q-1.8-7.6-12.4-7-2.05.5-3.9 1.9z" fill="none" stroke="#332720" stroke-linecap="round" stroke-linejoin="round" stroke-width="1.5"/><path d="M183.3 326.8v-1.9q1.35-4.95 5.95-5.85 6.1 1.75 12.05 7.75 2.7 2.7 4.45 5.25-2.3 2.8-4.3 3.25-2.45.55-6.35-4.8l-1.15-1.2q-3.45-5.45-7.4-5.25-1 .6-3.25 2.75m9.3 3.35-6.7 5.45q-3.25-.25-5.15-3.6 1-2.15 3.1-3.9 2.25-1.7 4.15-1 1.8.65 3.25 1.7t1.35 1.35m-8.2-5.65 2.15-.45-2.15.45" fill="#d1b786" fill-rule="evenodd" transform="translate(-104.9 -283.4)"/><path d="m189.25 319.05 1.25-.2q5.7-.5 7.05.1 7.15-.4 10.35 2.7.35.7-3.85 2.2 2.5 2.85 2.9 6.5l-1.2 1.7q-1.75-2.55-4.45-5.25-5.95-6-12.05-7.75m4.7 10.25q-.35 0-1.35.85.1-.3-1.35-1.35t-3.25-1.7q-1.9-.7-4.15 1-2.1 1.75-3.1 3.9-.05-.85.35-2.15.4-1.2 2.2-3.05 2.25-2.15 3.25-2.75 3.95-.2 7.4 5.25m3.6-10.35 1.05.65q3.15 1.8 5.45 4.25-2.3-2.45-5.45-4.25l-1.05-.65" fill="#917b55" fill-rule="evenodd" transform="translate(-104.9 -283.4)"/><path d="M78.4 43.4v-1.9q1.35-4.95 5.95-5.85l1.25-.2q5.7-.5 7.05.1 7.15-.4 10.35 2.7.35.7-3.85 2.2 2.5 2.85 2.9 6.5l-1.2 1.7q-2.3 2.8-4.3 3.25-2.45.55-6.35-4.8l-1.15-1.2q-.35 0-1.35.85L81 52.2q-3.25-.25-5.15-3.6-.05-.85.35-2.15.4-1.2 2.2-3.05 2.25-2.15 3.25-2.75l-2.15.45m19.65-.65Q96.85 38 93.7 36.2l-1.05-.65m-3.6 10.35q-3.45-5.45-7.4-5.25" fill="none" stroke="#332720" stroke-linecap="round" stroke-linejoin="round" stroke-opacity=".498" stroke-width="1.5"/><path d="m192.55 339.6-1.65.95 1.3-.1q2.6-.2 5.15 2.05 2.4 2.05 2.4 3.75l-4 5.45q-1.2 1.35-1.5 2.1l-.3 1.7q-6.9 9.55-8.9 9.45-5.2-1.75-8.2-8.45 1.4-5.45 6.25-10.25l-3-.55q4.65-6.25 12.45-6.1m20.35 20q-5.1 6.35-11.5 3.7l-5.2-6.1-.25-.2q.6-1.15 2.9-2.6 2.25-1.65 4.85-2.65 2.75-1.05 5.4 1.65 2.6 2.4 3.8 6.2m-22-19.05q-4.65 2.6-7.8 5.7 3.15-3.1 7.8-5.7" fill="#d1b786" fill-rule="evenodd" transform="translate(-104.9 -283.4)"/><path d="m192.55 339.6 4.1-2.1q12.55 0 15.75 9.15l-3.55 2.65q-1.1-1.35-2.4-2.05-6.25-.15-12.05 7.7 5.8-7.85 12.05-7.7l3.25-.5-3.25.5q1.3.7 2.4 2.05 3.05 3.15 4.95 9.15l-.9 1.15q-1.2-3.8-3.8-6.2-2.65-2.7-5.4-1.65-2.6 1-4.85 2.65-2.3 1.45-2.9 2.6l-1.55-2.05-.45.55.3-1.7q.3-.75 1.5-2.1l4-5.45q0-1.7-2.4-3.75-2.55-2.25-5.15-2.05l-1.3.1 1.65-.95" fill="#917b55" fill-rule="evenodd" transform="translate(-104.9 -283.4)"/><path d="m103.95 65.9 3.55-2.65q-3.2-9.15-15.75-9.15l-4.1 2.1-1.65.95m3.05 14.95.45-.55q5.8-7.85 12.05-7.7l3.25-.5m-3.25.5q1.3.7 2.4 2.05 3.05 3.15 4.95 9.15l-.9 1.15q-5.1 6.35-11.5 3.7l-5.2-6.1m-.25-.2-1.55-2.05M87.65 56.2q-7.8-.15-12.45 6.1l3 .55q3.15-3.1 7.8-5.7m-7.8 5.7q-4.85 4.8-6.25 10.25 3 6.7 8.2 8.45 2 .1 8.9-9.45" fill="none" stroke="#332720" stroke-linecap="round" stroke-linejoin="round" stroke-opacity=".498" stroke-width="1.5"/><path d="m206.35 314.05-.3 2.1q0 1.4 1.5 9.9l1.6 9.3.8 8q.6 5.85.9 7.2 1.25 8.55 1.6 9.25 2.55 6.15 10.4 6.15 4.65 0 9.5-3.85l.25 5.9q.95 16.7 7.7 26.45-4.6 25.15-4.15 30.95-13 6.2-25.15 7.7-2.5-54.9-9.05-111.7-2.2-2.5-6.35-2.9l3.5-5.4 7.25.95" fill="#644d19" fill-rule="evenodd" transform="translate(-104.9 -283.4)"/><path d="m206.35 314.05 2.75.4 11.2 2.35q.6-.15 3.5 3.25t4.85 14.95q2.5 6.6 2.9 13.1l.8 14q-4.85 3.85-9.5 3.85-7.85 0-10.4-6.15-.35-.7-1.6-9.25-.3-1.35-.9-7.2l-.8-8-1.6-9.3q-1.5-8.5-1.5-9.9l.3-2.1" fill="#bd9539" fill-rule="evenodd" transform="translate(-104.9 -283.4)"/><path d="M123.75 51.6q-1.95-11.55-4.85-14.95t-3.5-3.25l-11.2-2.35-2.75-.4-7.25-.95-3.5 5.4q4.15.4 6.35 2.9 6.55 56.8 9.05 111.7 12.15-1.5 25.15-7.7-.45-5.8 4.15-30.95" fill="none" stroke="#32251b" stroke-linecap="round" stroke-linejoin="round" stroke-width="1.5"/><path d="M122.3 384.9q.35 1.15.35 2.55t6.7 1.85q6.7.4 13.3-3.6-2.6 22.3-2.45 43.35-2.9 3.25-5.5 3.85-8.4 1.05-13.95-4.05-3.2-21.9 1.55-43.95" fill="#211612" fill-rule="evenodd" transform="translate(-104.9 -283.4)"/><path d="M122.3 384.9q1.4-6.7 3.55-13.55 1-1.5 2.1-2.4 1.65-1.65 3.7-2.35 10.55-1.75 12.9 5.6l-.05.4-1.85 13.1q-6.6 4-13.3 3.6-6.7-.45-6.7-1.85t-.35-2.55" fill="#6f4811" fill-rule="evenodd" transform="translate(-104.9 -283.4)"/><path d="m37.75 102.3 1.85-13.1.05-.4q-2.35-7.35-12.9-5.6-2.05.7-3.7 2.35-1.1.9-2.1 2.4-2.15 6.85-3.55 13.55m20.35.8q-2.6 22.3-2.45 43.35-2.9 3.25-5.5 3.85-8.4 1.05-13.95-4.05-3.2-21.9 1.55-43.95" fill="none" stroke="#332720" stroke-linecap="round" stroke-linejoin="round" stroke-width="1.5"/><path d="M353.9 424.15q2.85-5.85 6-10.05 4.65 16.45 6.8 38.45.8.45 1.85 3.9 1.1 3.35-29.05 17.65 7.45-9.2-5.7-4.95 6.35-6 3.85-15.1-2.65-9.3 6.15-18.3t10.1-11.6" fill="#ad651f" fill-rule="evenodd" transform="translate(-104.9 -283.4)"/><path d="M270.55 351.55v.05l-.3.15.3-.2" fill="#ccb165" fill-rule="evenodd" transform="translate(-104.9 -283.4)"/><path d="m244.4 197.85.95-.7" fill="none" stroke="#332720" stroke-linecap="round" stroke-linejoin="round" stroke-width="1.5"/><path d="m428.1 432.35-58.6-13.55q-4.05 22.25-2.6 29.75 1.45 7.55 21.6 11.6 20.15 4.1 37.15-3.9 5.95-5.3 2.45-23.9" fill="#100b0a" fill-rule="evenodd" transform="translate(-104.9 -283.4)"/><path d="m323.2 148.95-58.6-13.55q-4.05 22.25-2.6 29.75 1.45 7.55 21.6 11.6 20.15 4.1 37.15-3.9 5.95-5.3 2.45-23.9z" fill="none" stroke="#332720" stroke-linecap="round" stroke-linejoin="round" stroke-width="1.5"/><path d="M408.55 363.95q15.8 14.25 20.4 35l1.15 5.9-.4-1.45 5.05 22.2q2 8.75-34.85 30.1 0 1.5-7.85 2.2-28.35 2.45-40.35 6.75-.25.1-.35.15-8.95-4.75-19.65-11-10.9-6.3-21.6-16.2-10.85-9.95-32.7-34.9 16.8-14 26.75-28.95 2.95-4.5 4.1-8.25 1.15-3.45.85-6.2 57.05-15.95 76.1-13l3.6.85h.1l.35.15q16.35 5.35 16.8 11 .15 2.4 2.5 5.65" fill="#644d19" fill-rule="evenodd" transform="translate(-104.9 -283.4)"/><path d="M203.35 82.1q-1.15 3.75-4.1 8.25-9.95 14.95-26.75 28.95 21.85 24.95 32.7 34.9 10.7 9.9 21.6 16.2 10.7 6.25 19.65 11 .1-.05.35-.15 12-4.3 40.35-6.75 7.85-.7 7.85-2.2 36.85-21.35 34.85-30.1L324.8 120l.4 1.45-1.15-5.9q-4.6-20.75-20.4-35" fill="none" stroke="#32251b" stroke-linecap="round" stroke-linejoin="round" stroke-width="1.5"/><path d="m294 356.2-4.75 5-1.75.2q3.05-2.85-.05-15.8l.1.1q3.65 4.2 6 10.1l.1.2.35.2m-25.6 14.75 1.75-5.65q-.3 6.7 1.7 12.3 4 6.6 12.35 10.15 3.6 1.7 9.15 1.5 15.15-9.05 26.05-22.85 9.95 11.8.15 25.6-5.95 11.35-19.95 9.25-19.05-1.7-26.05-9.35-8-8.15-5.6-19.25l.45-1.7m22.55-16.25 2.6 1.1-2.6-1.1" fill="#283f4a" fill-rule="evenodd" transform="translate(-104.9 -283.4)"/><path d="m294 356.2.55.15 21.95 7.45 2.9 2.6q-10.9 13.8-26.05 22.85-5.55.2-9.15-1.5-8.35-3.55-12.35-10.15-2-5.6-1.7-12.3l-1.75 5.65q3.9-16.3 14.75-25.1l.7-.5q2.2-1.45 3.6.25 3.1 12.95.05 15.8l1.75-.2 4.75-5" fill="#4a738a" fill-rule="evenodd" transform="translate(-104.9 -283.4)"/><path d="m214.5 83-2.9-2.6-21.95-7.45-.55-.15m-6.55-10.6q-1.4-1.7-3.6-.25l-.7.5q-10.85 8.8-14.75 25.1l1.75-5.65M214.5 83q9.95 11.8.15 25.6-5.95 11.35-19.95 9.25-19.05-1.7-26.05-9.35-8-8.15-5.6-19.25l.45-1.7m25.15-15.15q-2.35-5.9-6-10.1l-.1-.1m6.1 10.2.1.2.35.2" fill="none" stroke="#332720" stroke-linecap="round" stroke-linejoin="round" stroke-width="1.5"/><path d="m189.65 72.95-1-.55-2.6-1.1" fill="none" stroke="#332720" stroke-linecap="round" stroke-linejoin="round" stroke-opacity=".498" stroke-width="1.5"/><path d="M437.3 359.35q9.7 3.7 14.3 14.75 5.95 16.25 2.3 28.35l-1.15 3.3q-1.6 3.7-4.2 7-5.2 6.35-14.15 11.1-21.85 4.35-33-1.35l-8.8-4.6q-3.35-5.65-4.65-11.45l-.4-1.2q-4.35-17.8 8.1-33.5 2.6-1.7 6.8-2.35 7.5-1.35 13.45-.95 4.6.4 8.35 1.6l-9.1.65-.3.15q-13.3 1.8-17.2 7.25-.3.5-.4 1.15-1.6 3.95-2.2 7.65-1.75 12.65 7.55 23.5-3.65.4 4.75.65 12.3.8 20.4-1.7l1.75-.4 4.6-2.5q21.25-13.1 3.2-47.1" fill="#283f4a" fill-rule="evenodd" transform="translate(-104.9 -283.4)"/><path d="m425.45 370.55 1 .15 3.15-7.15q2.5-4.7 5.1-4.7l2.6.5q18.05 34-3.2 47.1l-4.6 2.5-1.75.4q-8.1 2.5-20.4 1.7-8.4-.25-4.75-.65-9.3-10.85-7.55-23.5.6-3.7 2.2-7.65.1-.65.4-1.15 3.9-5.45 17.2-7.25l.3-.15 9.1-.65q.75.1 1.2.5m-16.8 17.15-13.6-.8 13.6.8m15.75-7.8 2.05-9.2-2.05 9.2m5.5-5.25 1.75-6.05-1.75 6.05" fill="#518195" fill-rule="evenodd" transform="translate(-104.9 -283.4)"/><path d="m320.55 87.15 1 .15 3.15-7.15q2.5-4.7 5.1-4.7l2.6.5q9.7 3.7 14.3 14.75 5.95 16.25 2.3 28.35l-1.15 3.3q-1.6 3.7-4.2 7-5.2 6.35-14.15 11.1-21.85 4.35-33-1.35l-8.8-4.6q-3.35-5.65-4.65-11.45m-.4-1.2q-4.35-17.8 8.1-33.5 2.6-1.7 6.8-2.35 7.5-1.35 13.45-.95 4.6.4 8.35 1.6m2.2.65-2.05 9.2" fill="none" stroke="#332720" stroke-linecap="round" stroke-linejoin="round" stroke-width="1.5"/><path d="m431.65 368.6-1.75 6.05" fill="none" stroke="#9abac9" stroke-miterlimit="3" stroke-opacity=".792" transform="translate(-104.9 -283.4)"/><path d="m395.05 386.9 13.6.8" fill="none" stroke="#9abac9" stroke-miterlimit="3" stroke-opacity=".502" transform="translate(-104.9 -283.4)"/><path d="M280.35 498.7q2.05-7.35 2.05-26.45l-54.05-3.1q-1.3 18.55 1.05 25.6 2.25 7.05 12.8 10.65 10.55 3.65 26.25 2.6 8.45-1.45 11.9-9.3" fill="#100b0a" fill-rule="evenodd" transform="translate(-104.9 -283.4)"/><path d="M175.45 215.3q2.05-7.35 2.05-26.45l-54.05-3.1q-1.3 18.55 1.05 25.6 2.25 7.05 12.8 10.65 10.55 3.65 26.25 2.6 8.45-1.45 11.9-9.3z" fill="none" stroke="#332720" stroke-linecap="round" stroke-linejoin="round" stroke-width="1.5"/><path d="M323.55 472.7q-3.4 17.95 2.3 23.05 16.25 7.7 35.45 3.75 19.25-3.9 20.7-11.15 1.4-7.25-2.45-28.75l-56 13.1" fill="#100b0a" fill-rule="evenodd" transform="translate(-104.9 -283.4)"/><path d="m218.65 189.3 56-13.1q3.85 21.5 2.45 28.75-1.45 7.25-20.7 11.15-19.2 3.95-35.45-3.75-5.7-5.1-2.3-23.05z" fill="none" stroke="#332720" stroke-linecap="round" stroke-linejoin="round" stroke-width="1.5"/><path d="m313.55 486.65-27.8 1.8q-3.35 23.05.8 27.8 13.25 6.5 27 5.3l8-1.15q19.75-3.9 21.2-11.2 1.35-7.2-2.55-28.7l-26.65 6.15" fill="#100b0a" fill-rule="evenodd" transform="translate(-104.9 -283.4)"/><path d="m208.65 203.25 26.65-6.15q3.9 21.5 2.55 28.7-1.45 7.3-21.2 11.2l-8 1.15q-13.75 1.2-27-5.3-4.15-4.75-.8-27.8z" fill="none" stroke="#332720" stroke-linecap="round" stroke-linejoin="round" stroke-width="1.5"/><path d="M231.2 412.9q1.35 7.8 9.8 14.75 8.4 6.85 34.5 9.3 26.05 2.6 45.65-1.8 19.5-4.4 37.45-23-7.75-21.1-23.35-29.65-15.55-8.6-23.9-7.95-27.85-1.7-52.75 10.25-9.8 4.5-17.4 12.25-6.8 6.9-10 15.85" fill="#e6ad3d" fill-rule="evenodd" transform="translate(-104.9 -283.4)"/><path d="M258.6 384.8q24.9-11.95 52.75-10.25 8.35-.65 23.9 7.95 15.6 8.55 23.35 29.65-17.95 18.6-37.45 23-19.6 4.4-45.65 1.8-26.1-2.45-34.5-9.3-8.45-6.95-9.8-14.75-2.95 17.85-3 33.7-.1 15.75.05 26.55 35.3 24.05 93.9 21.65 17.9-6.1 27.15-13.55l.95-.75v.1l27.5-17.55q-.2-1.1-.1-1.75-.1.65.1 1.75l.45-.3-.55-1.45q3.65-34.1-8.1-66.85-.95-1.85-3.45-4.05h.3l-1-.7q-7.9-5.3-14.85-9.4-17.7-10.5-29.1-13.1l-.6-.15-2.25-.4-10.45-.4q-15.7.8-35.6 10.75-.7.3-1.65.9-5.95 3.05-12.3 6.9m107.5 5.6-.7-.7.7.7" fill="#ad651f" fill-rule="evenodd" transform="translate(-104.9 -283.4)"/><path d="M126.3 129.5q3.2-8.95 10-15.85 7.6-7.75 17.4-12.25 6.35-3.85 12.3-6.9.95-.6 1.65-.9 19.9-9.95 35.6-10.75l10.45.4 2.25.4.6.15q11.4 2.6 29.1 13.1 6.95 4.1 14.85 9.4m-15.15 90.8-.95.75q-9.25 7.45-27.15 13.55-58.6 2.4-93.9-21.65-.15-10.8-.05-26.55.05-15.85 3-33.7M261.5 107l-1-.7" fill="none" stroke="#32251b" stroke-linecap="round" stroke-linejoin="round" stroke-width="1.5"/><path d="m260.5 106.3.7.7q2.5 2.2 3.45 4.05 11.75 32.75 8.1 66.85-.1.65.1 1.75l-27.5 17.55m27.5-17.55.45-.3-.55-1.45" fill="none" stroke="#332720" stroke-linecap="round" stroke-linejoin="round" stroke-width="1.5"/><path d="m329.3 344.05 3.5.7 1.65.15q24.5 3.35 50.1-6.25l6.8-2.7 12.15-9.85q2.6.85 5 2l.5.05q16.5 15.65-3.5 28.5l-2.65 2.1q-27.9 19.5-91 1.6L301.2 355q-15.55-10.1-5.85-23.25.9-1.25 3.05-2.4 7.75 10.05 30.9 14.7m64.75-9.4-2.7 1.3 2.7-1.3" fill="#644d19" fill-rule="evenodd" transform="translate(-104.9 -283.4)"/><path d="m286.45 52.55-6.8 2.7q-25.6 9.6-50.1 6.25l-1.65-.15-3.5-.7m-30.9-14.7q-2.15 1.15-3.05 2.4-9.7 13.15 5.85 23.25l10.65 5.35m93.65-3.7q20-12.85 3.5-28.5m-.5-.05q-2.4-1.15-5-2m-12.15 9.85 2.7-1.3" fill="none" stroke="#332720" stroke-linecap="round" stroke-linejoin="round" stroke-width="1.5"/><path d="M206.95 76.95q63.1 17.9 91-1.6l2.65-2.1" fill="none" stroke="#332720" stroke-linecap="round" stroke-linejoin="round" stroke-opacity=".6" stroke-width="1.5"/><path d="M403.95 338.05q-9.3-1.95-18.95-6.15-9.65-4.25-32.95-2.9t-36.45 5.6l-4.5.6-5.9 1.05-7.6-6.2q13.35-7.55 25.1-11 27.25-6.45 54.95-.05 4.05.8 8.35 2.35l5.3 1.1q9.75 2.5 14.7 4.95.3 6.25-2.05 10.65m-88.45-4.5.1 1.05-.1-1.05m55.5 15.2.15.05-.4 2.3.25-2.35" fill="#3d2f10" fill-rule="evenodd" transform="translate(-104.9 -283.4)"/><path d="M315.6 334.6q13.15-4.25 36.45-5.6t32.95 2.9q9.65 4.2 18.95 6.15-6.2 11.55-31.1 10.3-.95.05-1.7.4v.05l-.15-.05q-24.3 5.7-51.9-4.1l-7.5-3.15-6.4-5.25 5.9-1.05 4.5-.6q.6 8.55 3.5 10.05-2.9-1.5-3.5-10.05" fill="#231c0a" fill-rule="evenodd" transform="translate(-104.9 -283.4)"/><path d="M299.05 54.65q2.35-4.4 2.05-10.65-4.95-2.45-14.7-4.95l-5.3-1.1q-4.3-1.55-8.35-2.35-27.7-6.4-54.95.05-11.75 3.45-25.1 11l7.6 6.2m10.4-1.65-.1-1.05m55.65 15.2q.75-.35 1.7-.4 24.9 1.25 31.1-10.3m-32.95 10.7q-24.3 5.7-51.9-4.1l-7.5-3.15-6.4-5.25m13.9 8.4q-2.9-1.5-3.5-10.05" fill="none" stroke="#332720" stroke-linecap="round" stroke-linejoin="round" stroke-width="1.5"/><path d="M366.4 369.1q-2 1.7-4.2 2.55l-5.3.6-5.75-.55-3.6-1.45q-7.5-2.6-33.85-4.6-21.2-1.6-32.15.6-8.7-4.35-6.1-6.65l2.65-2.75q-5.25 1.3-9.5 3.05l-7.15 12.9q-3.4 5.85-3.95 12.4 7.45-3.4 14.95-4.9l23.8-4.55q16.15-2.95 30.1.6 13.85 3.6 28.35 12.65 7.65 9.4 12.9 26.35 5.3 16.85 6.75 29.85.95 8.5 1.6 18.25l-16.6 11.4q22.6.9 25.1.05 3.85-10.25 4.05-20.8.25-18.55 0-23.65-.3-5.15 0-14.25.25-9.1-.3-11.75-3.2-9.55-9-18.65-5.9-9.2-12.05-16l-.75-.7m9.85 97.95-.3-3.6.3 3.6" fill="#644d19" fill-rule="evenodd" transform="translate(-104.9 -283.4)"/><path d="M366.4 369.1q-6.5-6.6-25.1-14.8-40.9-3.05-63.2 2.55l-2.65 2.75q-2.6 2.3 6.1 6.65 10.95-2.2 32.15-.6 26.35 2 33.85 4.6l3.6 1.45 5.75.55 5.3-.6q2.2-.85 4.2-2.55" fill="#bd9539" fill-rule="evenodd" transform="translate(-104.9 -283.4)"/><path d="M173.2 73.45q22.3-5.6 63.2-2.55 18.6 8.2 25.1 14.8m-88.3-12.25q-5.25 1.3-9.5 3.05l-7.15 12.9q-3.4 5.85-3.95 12.4 7.45-3.4 14.95-4.9l23.8-4.55q16.15-2.95 30.1.6 13.85 3.6 28.35 12.65 7.65 9.4 12.9 26.35 5.3 16.85 6.75 29.85.95 8.5 1.6 18.25l.3 3.6m-16.9 7.8q22.6.9 25.1.05 3.85-10.25 4.05-20.8.25-18.55 0-23.65-.3-5.15 0-14.25.25-9.1-.3-11.75-3.2-9.55-9-18.65-5.9-9.2-12.05-16l-.75-.7" fill="none" stroke="#32251b" stroke-linecap="round" stroke-linejoin="round" stroke-width="1.5"/><path d="m271.05 180.05-16.6 11.4" fill="none" stroke="#332720" stroke-linecap="round" stroke-linejoin="round" stroke-width="1.5"/><path d="M334.3 375.9q-9.65-1.15-16.2 6.15l3.65 1.15q-6.5 5.5-8.95 12.15 2.9 8.75 9.35 11.55 2.45.4 12.1-10.75l.5-2.15q.4-.95 2.15-2.45l5.6-6.45q.15-2.15-2.5-4.95-2.95-3.25-6.2-3.25h-1.65q1.1-.6 2.15-1m2.3 22.3.25.4 5.75 8.15q7.7 4.15 14.85-3.25-1.15-4.9-4.05-8.35-3.1-3.6-6.6-2.7-3.35 1-6.45 2.7-2.9 1.65-3.75 3.05m-14.85-15q4.35-3.6 10.4-6.3-6.05 2.7-10.4 6.3" fill="#d1b786" fill-rule="evenodd" transform="translate(-104.9 -283.4)"/><path d="m334.25 396.15.5-.65 1.85 2.7q.85-1.4 3.75-3.05 3.1-1.7 6.45-2.7 3.5-.9 6.6 2.7 2.9 3.45 4.05 8.35l1.2-1.3q-1.75-7.85-5.1-12.2l4.65-2.85q-2.9-12-18.6-13.45l-5.3 2.2q-1.05.4-2.15 1h1.65q3.25 0 6.2 3.25 2.65 2.8 2.5 4.95l-5.6 6.45q-1.75 1.5-2.15 2.45l-.5 2.15m.5-.65q8.2-9.35 16.05-8.35l3.95-.2-3.95.2q-7.85-1-16.05 8.35m18.8-5.5q-1.3-1.7-2.75-2.85 1.45 1.15 2.75 2.85" fill="#917b55" fill-rule="evenodd" transform="translate(-104.9 -283.4)"/><path d="M229.4 92.5q-9.65-1.15-16.2 6.15l3.65 1.15q-6.5 5.5-8.95 12.15 2.9 8.75 9.35 11.55 2.45.4 12.1-10.75l.5-.65 1.85 2.7m.25.4 5.75 8.15q7.7 4.15 14.85-3.25l1.2-1.3q-1.75-7.85-5.1-12.2l4.65-2.85q-2.9-12-18.6-13.45l-5.3 2.2q-1.05.4-2.15 1-6.05 2.7-10.4 6.3m33 3.75-3.95.2q-7.85-1-16.05 8.35m16.05-8.35q1.45 1.15 2.75 2.85" fill="none" stroke="#332720" stroke-linecap="round" stroke-linejoin="round" stroke-opacity=".498" stroke-width="1.5"/><path d="M277.25 385.65q.1-.45-1.8-1.85-2.1-1.4-4.55-2.2-2.6-.95-5.65 1.5-2.9 2.3-4.3 5.35 2.6 4.6 7.2 4.85 3.85-3.55 9.1-7.65m6.7-15.5 1.45.8-1.25-.1q-2.6-.15-5.4 2.1-2.7 1.9-3 3.4l3.05 5q1.25 1.6 1.85 3.75.2 1 0 .9 5.5 7.3 8.8 6.55 3.6-.95 7.5-7.15-.55-4.95-4.05-8.7 5.75-2.15 5.35-3.25-4.45-4.1-14.3-3.3m1.45.8q4.3 2.3 7.5 5.75-3.2-3.45-7.5-5.75" fill="#d1b786" fill-rule="evenodd" transform="translate(-104.9 -283.4)"/><path d="M260.95 388.45q1.4-3.05 4.3-5.35 3.05-2.45 5.65-1.5 2.45.8 4.55 2.2 1.9 1.4 1.8 1.85 1.4-1.25 1.85-1.25-4.9-7.4-10.25-6.95-1.4.75-4.45 3.8 3.05-3.05 4.45-3.8 5.35-.45 10.25 6.95l1.55 1.6q.2.1 0-.9-.6-2.15-1.85-3.75l-3.05-5q.3-1.5 3-3.4 2.8-2.25 5.4-2.1l1.25.1-1.45-.8q-1.8-.9-9.65-.05-7.9.75-9.9 8.55v2.6q-2.45 2.55-2.95 4.3-.65 1.75-.5 2.9m4.9-10.4 3-.6-3 .6" fill="#917b55" fill-rule="evenodd" transform="translate(-104.9 -283.4)"/><path d="M172.35 102.25q-5.25 4.1-9.1 7.65-4.6-.25-7.2-4.85-.15-1.15.5-2.9.5-1.75 2.95-4.3 3.05-3.05 4.45-3.8 5.35-.45 10.25 6.95-.45 0-1.85 1.25m-12.85-4.4v-2.6q2-7.8 9.9-8.55 7.85-.85 9.65.05l1.45.8m-4.75 15.05-1.55-1.6m13.8-7.7q-3.2-3.45-7.5-5.75m-1.45-.8q9.85-.8 14.3 3.3.4 1.1-5.35 3.25 3.5 3.75 4.05 8.7-3.9 6.2-7.5 7.15-3.3.75-8.8-6.55m-11.8-8.55-3 .6" fill="none" stroke="#332720" stroke-linecap="round" stroke-linejoin="round" stroke-opacity=".498" stroke-width="1.5"/><path d="m226.4 424.75-1 8.85q-1.75 22.3 1 44.35 2.55 4.8 8.1 4.25 2.2-.6 4.85-4.4-.1-27.1 2.65-56.15l-5.8 6.05q-3.8 3.6-5.45 2.25l-2.05-1.75-2.3-3.45" fill="#211612" fill-rule="evenodd" transform="translate(-104.9 -283.4)"/><path d="M242 421.65q.4-5.75 1.25-11.65v-.3q-1.4-5.6-5.9-6.95-5.9 3.7-9.55 11-.85 5.45-1.4 11l2.3 3.45 2.05 1.75q1.65 1.35 5.45-2.25l5.8-6.05" fill="#6f4811" fill-rule="evenodd" transform="translate(-104.9 -283.4)"/><path d="M137.1 138.25q.4-5.75 1.25-11.65v-.3q-1.4-5.6-5.9-6.95-5.9 3.7-9.55 11-.85 5.45-1.4 11l-1 8.85q-1.75 22.3 1 44.35 2.55 4.8 8.1 4.25 2.2-.6 4.85-4.4-.1-27.1 2.65-56.15l-5.8 6.05q-3.8 3.6-5.45 2.25" fill="none" stroke="#332720" stroke-linecap="round" stroke-linejoin="round" stroke-width="1.5"/><path d="M293.95 445.3v.15q2.8 3.95 4.8 3.95 4.55 0 13.4-7.55l5.6-5.25q-2.3 30.85-1 59.55-3.1 3.9-5.9 4.55-9.35 1-15.75-5.7-4.1-24.95-1.15-49.7" fill="#211612" fill-rule="evenodd" transform="translate(-104.9 -283.4)"/><path d="M293.95 445.3q1.15-11.15 3.95-22.45l.15-.65q2.3-4.45 6.1-5.75 11.65-1.65 14.6 7.55v.3q-.65 6.25-1 12.3l-5.6 5.25q-8.85 7.55-13.4 7.55-2 0-4.8-3.95v-.15" fill="#6f4811" fill-rule="evenodd" transform="translate(-104.9 -283.4)"/><path d="M212.85 153.2q.35-6.05 1-12.3v-.3q-2.95-9.2-14.6-7.55-3.8 1.3-6.1 5.75l-.15.65q-2.8 11.3-3.95 22.45m23.8-8.7q-2.3 30.85-1 59.55-3.1 3.9-5.9 4.55-9.35 1-15.75-5.7-4.1-24.95-1.15-49.7" fill="none" stroke="#332720" stroke-linecap="round" stroke-linejoin="round" stroke-width="1.5"/></g></defs></svg>