<svg viewBox="0 0 378.09 222.14" xmlns="http://www.w3.org/2000/svg" xmlns:xlink="http://www.w3.org/1999/xlink"><g transform="translate(-92.077 -291.89)"><use transform="translate(99.15 417.25)" width="332.05" height="96.8" xlink:href="#a"/><use transform="matrix(-2.7927 0 0 2.5069 179.81 300.52)" width="27.7" height="27.7" xlink:href="#b"/><use transform="translate(134.1 291.9)" width="151.7" height="139.9" xlink:href="#c"/><use transform="matrix(2.7927 0 0 2.5069 226.42 329.02)" width="25.3" height="26.85" xlink:href="#d"/><use transform="translate(92.1 295.75)" width="338.65" height="163.5" xlink:href="#e"/><use transform="matrix(-3.0099 .3868 .5659 2.8951 321.45 314.58)" width="27.7" height="27.7" xlink:href="#b"/><use transform="matrix(3.3017 .2222 .0385 3.0443 395.44 336.24)" width="22.45" height="26.45" xlink:href="#f"/><use transform="translate(241.45 327.3)" width="164.4" height="166" xlink:href="#g"/></g><defs><g id="a"><path d="M401.85 430.35q1.55 12.1 1.55 29.85 0 5.15-.85 10.8-18.9 1.55-35.15-7.45-6.5-6.35-3-26.75l37.45-6.45" fill="#29251f" fill-rule="evenodd" transform="translate(-99.15 -417.25)"/><path d="m401.85 430.35 25.05-4.3q4.65 24.95 3.2 33.2-1.5 8.2-23 11.25l-4.55.5q.85-5.65.85-10.8 0-17.75-1.55-29.85" fill-rule="evenodd" transform="translate(-99.15 -417.25)"/><path d="m303.4 53.75 4.55-.5q21.5-3.05 23-11.25 1.45-8.25-3.2-33.2l-25.05 4.3m.7 40.65q-18.9 1.55-35.15-7.45-6.5-6.35-3-26.75l37.45-6.45" fill="none" stroke="#332720" stroke-linecap="round" stroke-linejoin="round" stroke-width="1.5"/><path d="M254.85 489.1q-3.2-8-2.9-29.4l57.9 16q10.85 25-7.7 27.2l-18.2.65q-7.2-.5-13.15-2.35-12.75-4.05-15.95-12.1" fill-rule="evenodd" transform="translate(-99.15 -417.25)"/><path d="M155.7 71.85q3.2 8.05 15.95 12.1 5.95 1.85 13.15 2.35l18.2-.65q18.55-2.2 7.7-27.2l-57.9-16q-.3 21.4 2.9 29.4z" fill="none" stroke="#332720" stroke-linecap="round" stroke-linejoin="round" stroke-width="1.5"/><path d="M382 486.1q-20.7 2.9-38.35-6.35-6.6-6.2-3.2-26.65l33.2-6.45q1.55 8.9 4.95 23.7l3.4 15.75" fill="#29251f" fill-rule="evenodd" transform="translate(-99.15 -417.25)"/><path d="m373.65 446.65 29.2-5.7q4.85 24.85 3.45 33.15-1.4 8.2-22.85 11.75l-1.45.25-3.4-15.75q-3.4-14.8-4.95-23.7" fill-rule="evenodd" transform="translate(-99.15 -417.25)"/><path d="m274.5 29.4 29.2-5.7q4.85 24.85 3.45 33.15-1.4 8.2-22.85 11.75l-1.45.25q-20.7 2.9-38.35-6.35-6.6-6.2-3.2-26.65z" fill="none" stroke="#332720" stroke-linecap="round" stroke-linejoin="round" stroke-width="1.5"/><path d="m362.55 512.35-9.25.9q-16.25.5-30.55-7-6.6-6.2-3.2-26.65l62.4-12.15q4.85 24.85 3.45 33.15-1.4 8.2-22.85 11.75" fill-rule="evenodd" transform="translate(-99.15 -417.25)"/><path d="M263.4 95.1q21.45-3.55 22.85-11.75 1.4-8.3-3.45-33.15l-62.4 12.15Q217 82.8 223.6 89q14.3 7.5 30.55 7z" fill="none" stroke="#332720" stroke-linecap="round" stroke-linejoin="round" stroke-width="1.5"/><path d="m99.9 423.35 56.55 11.55q7 19.7-10 23-8.7 1.7-15.95 1.75-6.95 0-12.6-1.5-11.65-3.1-14.4-10.25t-3.6-24.55" fill-rule="evenodd" transform="translate(-99.15 -417.25)"/><path d="M.75 6.1q.85 17.4 3.6 24.55t14.4 10.25q5.65 1.5 12.6 1.5 7.25-.05 15.95-1.75 17-3.3 10-23z" fill="none" stroke="#332720" stroke-linecap="round" stroke-linejoin="round" stroke-width="1.5"/><path d="M250.05 418q3.8 22.2 2.3 29.65-1.5 7.35-21.4 10.65l-6.7.75q-15.95 1-29.7-6.1-5.85-5.45-2.2-23.75l57.7-11.2" fill-rule="evenodd" transform="translate(-99.15 -417.25)"/><path d="M150.9.75q3.8 22.2 2.3 29.65-1.5 7.35-21.4 10.65l-6.7.75q-15.95 1-29.7-6.1-5.85-5.45-2.2-23.75z" fill="none" stroke="#332720" stroke-linecap="round" stroke-linejoin="round" stroke-width="1.5"/><path d="m189.65 475.45-13.5.85q-13.15-.5-24.8-6.25-6.15-5.45-2.35-23.75l60.7-11.05q4 22.2 2.45 29.65-1.6 7.35-22.5 10.55" fill-rule="evenodd" transform="translate(-99.15 -417.25)"/><path d="m90.5 58.2-13.5.85q-13.15-.5-24.8-6.25-6.15-5.45-2.35-23.75L110.55 18q4 22.2 2.45 29.65Q111.4 55 90.5 58.2z" fill="none" stroke="#332720" stroke-linecap="round" stroke-linejoin="round" stroke-width="1.5"/></g><g id="b"><path d="m23.25-6.2 2.15 2.3.85.1q-1.4-1.3 0-7.3l-.05.05Q24.55-9.1 23.45-6.4l-.2.2M35 .55l-.8-2.6q.1 3.1-.8 5.65-1.85 3.05-5.65 4.7-1.65.75-4.25.7-6.95-4.2-12-10.5-4.5 5.4 0 11.75 2.7 5.25 9.15 4.25 8.8-.75 11.95-4.3 3.7-3.8 2.6-8.9L35 .55M24.65-6.9l-1.2.5 1.2-.5" fill="#283f4a" fill-rule="evenodd" transform="translate(-8.5 12.3)"/><path d="m23.25-6.2-.25.05L12.85-2.7 11.5-1.5q5.05 6.3 12 10.5 2.6.05 4.25-.7 3.8-1.65 5.65-4.7.9-2.55.8-5.65l.8 2.6Q33.2-6.95 28.25-11l-.35-.2-1.65.1q-1.4 6 0 7.3l-.85-.1-2.15-2.3" fill="#4a738a" fill-rule="evenodd" transform="translate(-8.5 12.3)"/><path d="m3 10.8 1.35-1.2L14.5 6.15l.25-.05m3-4.9 1.65-.1.35.2q4.95 4.05 6.75 11.55l-.8-2.6M3 10.8q-4.5 5.4 0 11.75 2.7 5.25 9.15 4.25 8.8-.75 11.95-4.3 3.7-3.8 2.6-8.9l-.2-.75M14.95 5.9q1.1-2.7 2.75-4.65l.05-.05m-2.8 4.7-.2.2" fill="none" stroke="#332720" stroke-linecap="round" stroke-linejoin="round" stroke-width="1.5"/><path d="m14.5 6.15.45-.25 1.2-.5" fill="none" stroke="#332720" stroke-linecap="round" stroke-linejoin="round" stroke-opacity=".498" stroke-width="1.5"/></g><g id="c"><path d="M176.2 317.35q0-1.2.25-1.9-5.75-.7 14.95-5.55 20.65-4.9-19.15.45 50.55-13.45 60.35-13 9.8.4 16.4 5.05 7.25 5.1 9.6 5.8 1.55.6-3.75-5.95 19.5 5.5 18.45 14.4-43.1 22.1-44.35 21.75-6.35-2.45-13.3-4.5l-14.25-3.2q-4.4-1.05-11.2-2.1-5.85-.85-7.85-1.5-3.25-1-4.65-3.05-1.5-2.25-1.5-6.7m31.95 107.25-.6-4.85q-1.7-14.7-1.7-30.8 0-21.35.2-23.95.65-7.35 4.25-10.2 2.8-2.15 13.6-5.25 16.45-4.75 28.35-9.25 4.55-1.7 13.2-3.95 3.75-.95 5.8-3.55 2-2.5 6.55-6.55l-3.5 7.6q3.3 8.3 6.6 23.4l4.05 34.4q1.9 7.55-33.2 26 0 1.2-7.6 1.85-24.35 1.9-36 5.1m63.65-103.1q-1.4-2.25 1.35-4l-.25.8-1.1 3.2m-4.7 10.1q-.1-.85 1.1-1.75l-1.1 1.75m-7.8 61q6.85-3.25 13.1-14.6l-.05-.25-5.05-22.05 5.05 22.05.05.25q-6.25 11.35-13.1 14.6" fill-rule="evenodd" transform="translate(-134.1 -291.9)"/><path d="M176.2 317.35q0 4.45 1.5 6.7 1.4 2.05 4.65 3.05 2 .65 7.85 1.5 6.8 1.05 11.2 2.1l14.25 3.2q6.95 2.05 13.3 4.5 1.25.35 44.35-21.75 1.05-8.9-18.45-14.4 5.3 6.55 3.75 5.95-2.35-.7-9.6-5.8-6.6-4.65-16.4-5.05-9.8-.45-60.35 13 39.8-5.35 19.15-.45-20.7 4.85-14.95 5.55-.25.7-.25 1.9m31.95 107.25-2.45.7-.35.15-18.8-9.5q-10.3-5.4-20.55-13.9-10.35-8.55-31.15-30.15 16-12.05 25.4-24.85 9.45-12.95-.3-19.85-9.85-6.95-10.3-12.5-.45-5.6 40.05-14.75 40.45-9.1 48.25-6.85 7.7 2.15 24.45 8.5 16.7 6.25 20.2 10.6-1.8 7-4.8 14.05-4.55 4.05-6.55 6.55-2.05 2.6-5.8 3.55-8.65 2.25-13.2 3.95-11.9 4.5-28.35 9.25-10.8 3.1-13.6 5.25-3.6 2.85-4.25 10.2-.2 2.6-.2 23.95 0 16.1 1.7 30.8l.6 4.85m58.95-93 1.1-1.75q-1.2.9-1.1 1.75m4.7-10.1 1.1-3.2.25-.8q-2.75 1.75-1.35 4" fill="#383838" fill-rule="evenodd" transform="translate(-134.1 -291.9)"/><path d="M143.7 34.35q3-7.05 4.8-14.05-3.5-4.35-20.2-10.6-16.75-6.35-24.45-8.5-7.8-2.25-48.25 6.85Q15.1 17.2 15.55 22.8q.45 5.55 10.3 12.5 9.75 6.9.3 19.85Q16.75 67.95.75 80q20.8 21.6 31.15 30.15 10.25 8.5 20.55 13.9l18.8 9.5.35-.15 2.45-.7m69.65-98.35-3.5 7.6q3.3 8.3 6.6 23.4l4.05 34.4q1.9 7.55-33.2 26 0 1.2-7.6 1.85-24.35 1.9-36 5.1" fill="none" stroke="#32251b" stroke-linecap="round" stroke-linejoin="round" stroke-width="1.5"/><path d="m133.2 63.8 5.05 22.05.05.25q-6.25 11.35-13.1 14.6" fill="none" stroke="#422e1c" stroke-linecap="round" stroke-linejoin="round" stroke-width="1.5"/><path d="M277.15 419.25q-1.3 6.8-19.55 10.55-18.2 3.7-33.55-3.55-5.45-4.85-2.2-21.85l53-12.4q3.65 20.35 2.3 27.25" fill="#29251f" fill-rule="evenodd" transform="translate(-134.1 -291.9)"/><path d="M143.05 127.35q-1.3 6.8-19.55 10.55-18.2 3.7-33.55-3.55-5.45-4.85-2.2-21.85l53-12.4q3.65 20.35 2.3 27.25z" fill="none" stroke="#332720" stroke-linecap="round" stroke-linejoin="round" stroke-width="1.5"/></g><g id="d"><path d="M25.35-5.75h-3.9l-.1.05q-4.6.7-5.95 2.75l-.15.45Q14.7-1 14.5.4q-.6 4.8 2.6 8.9-1.25.15 1.65.25 4.25.3 7.05-.65l.6-.15L28 7.8q7.35-4.95 1.1-17.85 3.35 1.4 4.95 5.6 2.05 6.15.8 10.75l-.4 1.25L33 10.2q-1.8 2.4-4.9 4.2-7.55 1.65-11.4-.5l-3.05-1.75Q12.5 10 12.05 7.8l-.15-.45Q10.4.6 14.7-5.35q.9-.65 2.35-.9l4.65-.35 3.35.75-.05.05.35.05" fill="#283f4a" fill-rule="evenodd" transform="translate(-10.75 11)"/><path d="M14.5.4q.2-1.4.75-2.9l.15-.45Q16.75-5 21.35-5.7l.1-.05h3.9l1.1-2.7q.85-1.8 1.75-1.8l.9.2Q35.35 2.85 28 7.8l-1.6.95-.6.15q-2.8.95-7.05.65-2.9-.1-1.65-.25-3.2-4.1-2.6-8.9l4.7.3-4.7-.3m10.15-2.65.7-3.5-.7 3.5m1.9-2 .6-2.3-.6 2.3" fill="#518195" fill-rule="evenodd" transform="translate(-10.75 11)"/><path d="M1.15 18.35q-1.5-6.75 2.8-12.7.9-.65 2.35-.9l4.65-.35 3.35.75.3.1 1.1-2.7q.85-1.8 1.75-1.8l.9.2q3.35 1.4 4.95 5.6 2.05 6.15.8 10.75l-.4 1.25-1.45 2.65q-1.8 2.4-4.9 4.2-7.55 1.65-11.4-.5L2.9 23.15Q1.75 21 1.3 18.8M14.25 5.2l.35.05-.7 3.5" fill="none" stroke="#332720" stroke-linecap="round" stroke-linejoin="round" stroke-width="1.5"/><path d="m27.15-6.55-.6 2.3" fill="none" stroke="#9abac9" stroke-miterlimit="3" stroke-opacity=".792" transform="translate(-10.75 11)"/><path d="m14.5.4 4.7.3" fill="none" stroke="#9abac9" stroke-miterlimit="3" stroke-opacity=".502" transform="translate(-10.75 11)"/></g><g id="e"><path d="m156.2 329.35 3.4-.75q1.65-.35 1.45-1.1.2.75-1.45 1.1l-3.4.75q-15.75-2.75 2.5-1.95l2.35.1q14.95 2.3 42.8 15.6 27.65 13.15 19.8 22.9-7.85 9.8-15.5 12.05-7.75 2.3-16 3.85l-27.7 1.05q4.6-15.2-6.65-16.35t-16 3.85q-4.7 5-6.05 6.9-1.15.7-10.45-1.5-9.3-2.25-12.25-3.7l-5.05-2.5q7.7-9.1 4.65-11.6-3.15-2.5-6.15-1.95-2.9.4-7.9 5.45l-2.45-4.3q.15-2.8 6.4-8.45 6.15-5.7 44.45-18.45 3.55-.95 9.2-1m21.85-2.9 1.6-.05h1.05l-2.65.05" fill="#c22121" fill-rule="evenodd" transform="translate(-92.1 -295.75)"/><path d="m96.15 357.25 2.45 4.3q-3.4 21.25-.4 67.55.55 1.5-3.5-3.75-1.75-8.35-1.85-24.5-.15-15.95.7-26.5.8-10.45 2.6-17.1m11.85 12.4 5.05 2.5q2.95 1.45 12.25 3.7 9.3 2.2 10.45 1.5-2.75 35.4.25 72.3-12.65-3.3-26.85-11.6l-.3-5.95q-1.8-36.95-.85-62.45m56.45 13.3 27.7-1.05q8.25-1.55 16-3.85 7.65-2.25 15.5-12.05 7.85-9.75-19.8-22.9-27.85-13.3-42.8-15.6-.3-1-3.55-2.7 14.65-3 19.95 1.6l.6.05 2.65-.05 9.9.75 1.4.2.95.15 9.8 2.2q9.5 1.9 20.25 11.55l16.05 14.55q5.2 4.9 3.9 6.55 2.85 46.2-2.1 62.15-29.15 26.55-44.3 33.75-11.65.9-32.7-1.75l.05-6.35q-1.5-35.9.55-67.2" fill="#6b0808" fill-rule="evenodd" transform="translate(-92.1 -295.75)"/><path d="M98.6 361.55q5-5.05 7.9-5.45 3-.55 6.15 1.95 3.05 2.5-4.65 11.6-.95 25.5.85 62.45-3.7-4.1-10.65-3-3-46.3.4-67.55m37.15 15.8q1.35-1.9 6.05-6.9 4.75-5 16-3.85t6.65 16.35q-2.05 31.3-.55 67.2-17.2-7.55-27.9-.5-3-36.9-.25-72.3" fill-rule="evenodd" transform="translate(-92.1 -295.75)"/><path d="M6.5 65.8q5-5.05 7.9-5.45 3-.55 6.15 1.95 3.05 2.5-4.65 11.6m27.75 7.7q1.35-1.9 6.05-6.9 4.75-5 16-3.85t6.65 16.35q-2.05 31.3-.55 67.2m-.05 6.35.05-6.35m-54.75-12.1-.3-5.95q-3.7-4.1-10.65-3 .55 1.5-3.5-3.75m14.15 6.75q-1.8-36.95-.85-62.45m-9.8 59.45q-3-46.3.4-67.55m37.15 15.8q-2.75 35.4.25 72.3" fill="none" stroke="#422e1c" stroke-linecap="round" stroke-linejoin="round" stroke-width="1.5"/><path d="M68.95 31.75q.2.75-1.45 1.1l-3.4.75q-5.65.05-9.2 1-38.3 12.75-44.45 18.45-6.25 5.65-6.4 8.45m64.9-29.75q-.3-1-3.55-2.7 14.65-3 19.95 1.6l.6.05 1.6-.05h1.05l9.9.75 1.4.2.95.15 9.8 2.2q9.5 1.9 20.25 11.55l16.05 14.55q5.2 4.9 3.9 6.55 2.85 46.2-2.1 62.15-29.15 26.55-44.3 33.75-11.65.9-32.7-1.75m.05-6.35q-17.2-7.55-27.9-.5-12.65-3.3-26.85-11.6M2.6 129.6Q.85 121.25.75 105.1q-.15-15.95.7-26.5.8-10.45 2.6-17.1" fill="none" stroke="#32251b" stroke-linecap="round" stroke-linejoin="round" stroke-width="1.5"/><path d="M250.95 419.85q-5.95 9.2-16.75 12.3 2.5-5.2 3.4-16.3.75-11.1-1.2-24.8l-3.55-23.65q-1.6-9.9-4.75-15.55-7.7-6.45-9.75-7.7-6.05-3.8-27-12.05-21.05-8.25-29.95-7.25-26.45 9.3-35.55 13.2.75-7.2 14.8-26.05 9.75-3.8 28.2-5.15 18.35-1.35 42.7 9.05 24.3 10.4 24.75 14.5.5 4 5.85 12.7 4.95 8.1 13.15 48.4l.55 2.95-.4-2.05.15.8.35 3.1-.15-.1q-.45 16.5-4.85 23.65" fill-rule="evenodd" transform="translate(-92.1 -295.75)"/><path d="M158.85 124.1q-5.95 9.2-16.75 12.3 2.5-5.2 3.4-16.3.75-11.1-1.2-24.8l-3.55-23.65q-1.6-9.9-4.75-15.55-7.7-6.45-9.75-7.7-6.05-3.8-27-12.05Q78.2 28.1 69.3 29.1q-26.45 9.3-35.55 13.2.75-7.2 14.8-26.05 9.75-3.8 28.2-5.15 18.35-1.35 42.7 9.05m44.25 80.3q-.45 16.5-4.85 23.65 3-5.1 12.95-8.1" fill="none" stroke="#32251b" stroke-linecap="round" stroke-linejoin="round" stroke-width="1.5"/><path d="M150.4 324.15q9.2-.35 13.3 3.6.4.95-5 2.75 3.25 3.65 3.7 8.25-3.7 5.55-7 6.3-3.05.55-8.1-6.4.2.15 0-.8-.55-1.95-1.65-3.5l-2.8-4.75q.25-1.35 2.75-3.1 2.6-1.95 5.05-1.65l1.15.1-1.4-.8m-6.25 14.1-8.5 6.7q-4.25-.3-6.6-4.65 1.25-2.8 4.05-4.85 2.8-2.15 5.2-1.2 2.3.85 4.2 2.25 1.7 1.35 1.65 1.75m14.55-7.75q-2.95-3.25-6.9-5.55 3.95 2.3 6.9 5.55" fill="#d1b786" fill-rule="evenodd" transform="translate(-92.1 -295.75)"/><path d="m147.3 338.65-1.45-1.45q-.4 0-1.7 1.05.05-.4-1.65-1.75-1.9-1.4-4.2-2.25-2.4-.95-5.2 1.2-2.8 2.05-4.05 4.85-.15-1.05.4-2.7.5-1.6 2.8-3.9v-2.35q1.9-7.15 9.2-7.6l8.95.4 1.4.8-1.15-.1q-2.45-.3-5.05 1.65-2.5 1.75-2.75 3.1l2.8 4.75q1.1 1.55 1.65 3.5.2.95 0 .8m-15.05-4.95q2.85-2.65 4.15-3.35l-2.75.4 2.75-.4q4.95-.15 9.45 6.85-4.5-7-9.45-6.85-1.3.7-4.15 3.35" fill="#917b55" fill-rule="evenodd" transform="translate(-92.1 -295.75)"/><path d="M58.3 28.4q9.2-.35 13.3 3.6.4.95-5 2.75 3.25 3.65 3.7 8.25-3.7 5.55-7 6.3-3.05.55-8.1-6.4l-1.45-1.45q-.4 0-1.7 1.05l-8.5 6.7q-4.25-.3-6.6-4.65-.15-1.05.4-2.7.5-1.6 2.8-3.9V35.6q1.9-7.15 9.2-7.6l8.95.4 1.4.8q3.95 2.3 6.9 5.55M41.55 35l2.75-.4q4.95-.15 9.45 6.85M44.3 34.6q-1.3.7-4.15 3.35" fill="none" stroke="#332720" stroke-linecap="round" stroke-linejoin="round" stroke-width="1.5"/><path d="m194.95 328.5-7.05.35q-2.5 1.3-4.95 3.25 2.45-1.95 4.95-3.25l7.05-.35q3.75.2 7.75 1.25 6.55 3.55-10 10.95-3.25 1.15-5.2 2.8v.65q-.15.75-1.3 1.65-1.2.9-8.05 1.8-6.9.85-1.6-9.1 2.35-3.5 6.4-6.4l-.85-1.45q1.9-3.85 12.8-2.2l.05.05m8.25 27.65q-6.45 2.05-9.6 1.1l-3.9-1.35-1-5.6-.1-.75-.8-3.65q.95-1.45 4-2.1l4.25-.55 4.2.8.85.25.8.35v-.05l.15.05.2.1q1.05 1.15 1.3 4.4l.1.7.05 2.3q-.05 2.1-.5 4" fill="#d1b786" fill-rule="evenodd" transform="translate(-92.1 -295.75)"/><path d="M187.5 344.15v-.65q1.95-1.65 5.2-2.8 16.55-7.4 10-10.95l3.25 1q3.3 2.5 4.85 4.5l3 3.95q2.2 8.1-7.6 5.75h-.05l1.15 3.5.15.6.1.75q.4 3.1-1.15 5.15l-3.2 1.2q.45-1.9.5-4l-.05-2.3-.1-.7q-.25-3.25-1.3-4.4l-.2-.1-.15-.05v.05l-.8-.35-.85-.25-4.2-.8-4.25.55q-3.05.65-4 2.1l-.3-1.75m10-4.75-4.8 1.3 4.8-1.3 5.75.25-5.75-.25q4.65 1 7.2 2.05l1.45 3.5-1.45-3.5q-2.55-1.05-7.2-2.05" fill="#917b55" fill-rule="evenodd" transform="translate(-92.1 -295.75)"/><path d="M90.85 36.35q2.45-1.95 4.95-3.25l7.05-.35-.05-.05Q91.9 31.05 90 34.9l.85 1.45q-4.05 2.9-6.4 6.4-5.3 9.95 1.6 9.1 6.85-.9 8.05-1.8 1.15-.9 1.3-1.65v-.65q1.95-1.65 5.2-2.8l4.8-1.3q4.65 1 7.2 2.05l1.45 3.5 1.15 3.5.15.6.1.75q.4 3.1-1.15 5.15l-3.2 1.2q-6.45 2.05-9.6 1.1l-3.9-1.35-1-5.6-.1-.75-.8-3.65-.3-1.75M110.6 34q-4-1.05-7.75-1.25M110.6 34l3.25 1q3.3 2.5 4.85 4.5l3 3.95q2.2 8.1-7.6 5.75h-.05m-2.9-5.3-5.75-.25" fill="none" stroke="#32251b" stroke-linecap="round" stroke-linejoin="round" stroke-width="1.5"/><path d="M372.3 307.15q1 0 6.75 2.7 8.95 4.2 22.2 8.85l9.6 3.1q3.85 1.55 3.85 3.55 0 1.35-9.9 8.65l-2 1.5q-7.7 5.7-8.65 6.7l8.8-10.35q-12.5 11.15-49.85 4.35l-14.45-2.65-32.2-6.05-.05-2.15q.2-3.4-1.1-5.55l-.45-.65q-.9-1.1-2.1-1.65l-1.8.4-2.55.65-.45-1.2-.05-.2-.05-.25q2.9-.3 4.9.6 8.35-1.75 10.85-11.6 20.35 6.4 22.55 6.05 10.35-1.55 22-9.85 11.55 5.05 14.15 5.05m28.15 144.45-2.25-12.5q-2.4-10.2-6.2-20.75-2.3-6.3-2.3-11.8 0-21.1 4.15-32.95 2.45-7.05 10.5-18.5.85-1.15-32.85.3 37.3-15.55 37.65-16.1 1.05-1.7 10.9-9.4l5.45-4.1q-3.15 12.1-9.15 24.25 5.15 13.15 8.25 24.05 1.1 3.95.05 20.65l-.6 3.3h-.1l.3 1-.3-1h.1l.6-3.3-.1 1.25-.05 1 .2-2.25.35-.1q3.55 12.55 4.8 26.4 2.35 9.35-28.55 30.5l-.85.05m23.85-52.55.15-1.2.05-.85-.05.85-.15 1.2-.25-1 .2 1h.05" fill-rule="evenodd" transform="translate(-92.1 -295.75)"/><path d="M372.3 307.15q-2.6 0-14.15-5.05-11.65 8.3-22 9.85-2.2.35-22.55-6.05-2.5 9.85-10.85 11.6-2-.9-4.9-.6l.05.25.05.2.45 1.2 2.55-.65 1.8-.4q1.2.55 2.1 1.65l.45.65q1.3 2.15 1.1 5.55l.05 2.15 32.2 6.05 14.45 2.65q37.35 6.8 49.85-4.35l-8.8 10.35q.95-1 8.65-6.7l2-1.5q9.9-7.3 9.9-8.65 0-2-3.85-3.55l-9.6-3.1q-13.25-4.65-22.2-8.85-5.75-2.7-6.75-2.7m28.15 144.45q-55.9 3.4-91.85-35.05-28.3-3.3-41.7-22.85 3.9-21.95 14.85-36.75 10.95-15 4.9-31.6-7.4-3.8-5.9-10.95 1.45-7.15 42.15-13.6 40.65-6.5 49.9-3.2 9.1 3.25 29 12.3 19.85 8.9 24.05 14.45l-.35 1.45-5.45 4.1q-9.85 7.7-10.9 9.4-.35.55-37.65 16.1 33.7-1.45 32.85-.3-8.05 11.45-10.5 18.5-4.15 11.85-4.15 32.95 0 5.5 2.3 11.8 3.8 10.55 6.2 20.75l2.25 12.5m24.3-57.95.3 1-.35.1.05-1.1m-.45 5.4h-.05l-.2-1 .25 1" fill="#3c3c3c" fill-rule="evenodd" transform="translate(-92.1 -295.75)"/><path d="m333.4 30.05.35-1.45q-4.2-5.55-24.05-14.45-19.9-9.05-29-12.3-9.25-3.3-49.9 3.2-40.7 6.45-42.15 13.6-1.5 7.15 5.9 10.95 6.05 16.6-4.9 31.6Q178.7 76 174.8 97.95q13.4 19.55 41.7 22.85 35.95 38.45 91.85 35.05m25.05-125.8q-3.15 12.1-9.15 24.25 5.15 13.15 8.25 24.05 1.1 3.95.05 20.65l.1-1.1.3 1q3.55 12.55 4.8 26.4 2.35 9.35-28.55 30.5l-.85.05M332.6 99l-.2 2.25-.05.85-.15 1.2-.25-1 .2 1-.3-1h.1l.6-3.3-.1 1.25.15-1.25.05-1.1m-.25 3.35.05-1" fill="none" stroke="#32251b" stroke-linecap="round" stroke-linejoin="round" stroke-width="1.5"/></g><g id="f"><path d="m26.7-5.75-3.15-.1L22-5.4l-1.6 1.1q-.85.65-1.4 1.5-.6.85-.95 3.5-.45 5.05 2.05 8.85 4.25.3 7.05-.65l.6-.15 1.6-.95q7.35-4.95 1.1-17.85 3.35 1.4 4.95 5.6 2.05 6.15.8 10.75l-.4 1.25-1.45 2.65q-1.8 2.4-4.9 4.2l-9.9-.3q-3-1.05-2.65-1.45l-.95-4.9q-.25-1.4-.25-4.85t1.25-6.5q1.2-3.1 4.25-2.85l5.15.6v.05l.35.05" fill="#283f4a" fill-rule="evenodd" transform="translate(-14.95 11)"/><path d="M18.05.7q.35-2.65.95-3.5.55-.85 1.4-1.5L22-5.4l1.55-.45 3.15.1 1.1-2.7q.85-1.8 1.75-1.8l.9.2q6.25 12.9-1.1 17.85l-1.6.95-.6.15q-2.8.95-7.05.65-2.5-3.8-2.05-8.85h2.5-2.5M26-2.25l.7-3.5-.7 3.5m1.9-2 .6-2.3-.6 2.3" fill="#518195" fill-rule="evenodd" transform="translate(-14.95 11)"/><path d="M.75 13.9q0-3.45 1.25-6.5 1.2-3.1 4.25-2.85l5.15.6h.05l.3.1 1.1-2.7Q13.7.75 14.6.75l.9.2q3.35 1.4 4.95 5.6 2.05 6.15.8 10.75l-.4 1.25-1.45 2.65q-1.8 2.4-4.9 4.2l-9.9-.3q-3-1.05-2.65-1.45L1 18.75M11.4 5.2l.35.05-.7 3.5" fill="none" stroke="#332720" stroke-linecap="round" stroke-linejoin="round" stroke-width="1.5"/><path d="m28.5-6.55-.6 2.3" fill="none" stroke="#9abac9" stroke-miterlimit="3" stroke-opacity=".792" transform="translate(-14.95 11)"/><path d="M18.05.7h2.5" fill="none" stroke="#9abac9" stroke-miterlimit="3" stroke-opacity=".502" transform="translate(-14.95 11)"/></g><g id="g"><path d="M278 356.45q10.5-6 20.8-9.45 10.5-3.4 25.75-4.7l7.65-.25q10.45.25 18.4 3.95 10.4 4.95 18.65 11.55 8.1 6.7 13.85 15.8 5.8 9.25 8.15 15.35 2.2 5.95 2.65 11.4l1.45 42.55q-1.8 12.7-11.15 33.55-3.8 8.45-10.25 10.75-5.5 4.6-21.3 5.6l-.2-7.95-1.45-70.25q1.45.65 9.25-1.35 7.7-2.15 12.4-7.85 4.65-5.95 5.5-11.15-8.2-22.3-30.05-35.95-7-4.55-15.95-4.35l-6.35-.85q-26.1-3.25-47.8 3.6m38.9 132.9q-9.5-.95-19.3-2.95h-.1q-8.6-1.7-14.6-3.5l-.05-6.7q-1.6-33.75-1.3-51.6.35-17.75 1.35-20.05 3.1 1.55 13 3.05l4.75.8 16.05 1.85q-2.75 35 .8 78.6l-.6.5m-60.4-13.7q-9.5-6.25-13.1-13.2-1.25-10.85-1.2-20.9-.1-10 .5-21.4l.85-17.05q.3-5.65 2.5-18.15-.6 6.95 11.2 14.1l.1.5q-.15-.4-1.1 15.2-1 16.55.25 60.9M385.8 446l-.2.45.2-.45" fill="#6b0808" fill-rule="evenodd" transform="translate(-241.45 -327.3)"/><path d="m246.05 384.95.35-1.5q3.35-7.6 10.5-13.45 8.05-6.4 21.1-13.55 21.7-6.85 47.8-3.6l6.35.85q8.95-.2 15.95 4.35 21.85 13.65 30.05 35.95-.85 5.2-5.5 11.15-4.7 5.7-12.4 7.85-7.8 2-9.25 1.35-2.25-5.55-4.7-9.05-2.5-3.45-13.85-5.25-11.35-1.75-15.75 10.2l-16.05-1.85-4.75-.8q-9.9-1.5-13-3.05l.9-5.7q1.05-5.15-8.35-7.35-9.45-2.2-18.2 7.55-11.8-7.15-11.2-14.1" fill="#c22121" fill-rule="evenodd" transform="translate(-241.45 -327.3)"/><path d="M352.45 484.6q-33.85-4.3-34.95 4.25-3.55-43.6-.8-78.6 4.4-11.95 15.75-10.2 11.35 1.8 13.85 5.25 2.45 3.5 4.7 9.05l1.45 70.25m-69.6-8.4q-14.75-6.65-26.35-.55-1.25-44.35-.25-60.9.95-15.6 1.1-15.2l-.1-.5q8.75-9.75 18.2-7.55 9.4 2.2 8.35 7.35l-.9 5.7q-1 2.3-1.35 20.05-.3 17.85 1.3 51.6" fill-rule="evenodd" transform="translate(-241.45 -327.3)"/><path d="M317.5 488.85v.55l-.6-.05.6-.5" fill="#215c5a" fill-rule="evenodd" transform="translate(-241.45 -327.3)"/><path d="M36.55 29.15q10.5-6 20.8-9.45 10.5-3.4 25.75-4.7l7.65-.25q10.45.25 18.4 3.95 10.4 4.95 18.65 11.55 8.1 6.7 13.85 15.8 5.8 9.25 8.15 15.35 2.2 5.95 2.65 11.4l1.45 42.55q-1.8 12.7-11.15 33.55-3.8 8.45-10.25 10.75-5.5 4.6-21.3 5.6m-35.15-3.15-.6-.05q-9.5-.95-19.3-2.95m-.1 0q-8.6-1.7-14.6-3.5m-26.4-7.25q-9.5-6.25-13.1-13.2Q.7 124.3.75 114.25q-.1-10 .5-21.4L2.1 75.8q.3-5.65 2.5-18.15l.35-1.5q3.35-7.6 10.5-13.45 8.05-6.4 21.1-13.55m107.6 90 .2-.45" fill="none" stroke="#32251b" stroke-linecap="round" stroke-linejoin="round" stroke-width="1.5"/><path d="m111.2 165.25-.2-7.95q-33.85-4.3-34.95 4.25v.55m-34.6-6.5-.05-6.7q-14.75-6.65-26.35-.55m94.5-61.3L111 157.3m-1.45-70.25q-2.25-5.55-4.7-9.05-2.5-3.45-13.85-5.25Q79.65 71 75.25 82.95q-2.75 35 .8 78.6l-.6.5m-34-84.8.9-5.7Q43.4 66.4 34 64.2q-9.45-2.2-18.2 7.55l.1.5q-.15-.4-1.1 15.2-1 16.55.25 60.9m26.4-71.1q-1 2.3-1.35 20.05-.3 17.85 1.3 51.6" fill="none" stroke="#422e1c" stroke-linecap="round" stroke-linejoin="round" stroke-width="1.5"/><path d="M366.5 332.75q-57.4-8.7-88.65-1.35l-15.9 19.25q-4.1 8.05-4 19.2L268 362.3q5.4-2.95 12.2-5.7 11.15-4.55 33.8-8.75 13.75.45 30.2 5.65 11.4 3.5 26.15 13.6 7.95 10.1 13.7 27.8 5.65 17.7 7.35 31.25 1.85 13.55 3.1 30.85 8.45-16.3 9.35-28.35l1-17.25.25-14.6q.05-9.4-.55-12.1-3.45-10.1-9.5-19.8-6.15-9.8-12.45-17.15-6.4-7.4-16.1-15" fill-rule="evenodd" transform="translate(-241.45 -327.3)"/><path d="M125.05 5.45q9.7 7.6 16.1 15 6.3 7.35 12.45 17.15 6.05 9.7 9.5 19.8.6 2.7.55 12.1l-.25 14.6-1 17.25q-.9 12.05-9.35 28.35-1.25-17.3-3.1-30.85-1.7-13.55-7.35-31.25-5.75-17.7-13.7-27.8-14.75-10.1-26.15-13.6-16.45-5.2-30.2-5.65-22.65 4.2-33.8 8.75-6.8 2.75-12.2 5.7L16.5 42.55q-.1-11.15 4-19.2L36.4 4.1q31.25-7.35 88.65 1.35z" fill="none" stroke="#32251b" stroke-linecap="round" stroke-linejoin="round" stroke-width="1.5"/><path d="M344.1 351q-9-1.45-14.2 5.05l3.5 1.25q-5.35 4.9-6.85 11.1 3.65 8.3 9.8 11.25 2.3.45 9.85-9.65l.3-1.95q.25-.9 1.65-2.3l4.35-5.8q-.05-1.95-2.85-4.75-2.95-3.2-5.95-3.3l-1.45-.1 1.85-.8m4.45 21.05.3.35 6.1 7.9q7.6 4.3 13.2-2.35-1.55-4.75-4.6-8.1-3.1-3.5-6.3-2.75-3 .75-5.55 2.25-2.4 1.45-3.15 2.7M333.4 357.3q3.55-3.25 8.85-5.5-5.3 2.25-8.85 5.5" fill="#d1b786" fill-rule="evenodd" transform="translate(-241.45 -327.3)"/><path d="m346.2 370 .45-.55 1.9 2.6q.75-1.25 3.15-2.7 2.55-1.5 5.55-2.25 3.2-.75 6.3 2.75 3.05 3.35 4.6 8.1l1-1.25q-2.45-7.4-6-11.65 2-1.15 4-2.5-4-11.4-18.45-13.45l-4.6 1.9-1.85.8 1.45.1q3 .1 5.95 3.3 2.8 2.8 2.85 4.75l-4.35 5.8q-1.4 1.4-1.65 2.3l-.3 1.95m16.95-4.95-2.8-2.8q-7.2-1.2-13.7 7.2 6.5-8.4 13.7-7.2l2.8 2.8m-2.8-2.8q2-.4 3.6 0-1.6-.4-3.6 0" fill="#917b55" fill-rule="evenodd" transform="translate(-241.45 -327.3)"/><path d="M102.65 23.7q-9-1.45-14.2 5.05l3.5 1.25q-5.35 4.9-6.85 11.1 3.65 8.3 9.8 11.25 2.3.45 9.85-9.65l.45-.55 1.9 2.6m.3.35 6.1 7.9q7.6 4.3 13.2-2.35l1-1.25q-2.45-7.4-6-11.65 2-1.15 4-2.5-4-11.4-18.45-13.45l-4.6 1.9-1.85.8q-5.3 2.25-8.85 5.5m13.25 12.15q6.5-8.4 13.7-7.2l2.8 2.8m.8-2.8q-1.6-.4-3.6 0" fill="none" stroke="#332720" stroke-linecap="round" stroke-linejoin="round" stroke-width="1.5"/><path d="M295.8 346.35q9.9-.35 14.5 4.15.45 1.05-5.35 3 3.65 4.05 4.35 9.3-3.85 6.2-7.45 6.95-3.35.65-9.05-7.15.25.15 0-.9-.7-2.2-1.95-3.95l-3.15-5.35q.25-1.55 2.9-3.45 2.8-2.1 5.45-1.85l1.25.15-1.5-.9m-6.4 15.75q-5.2 4-9.05 7.45-4.65-.35-7.4-5.25 1.35-3.1 4.3-5.4 3-2.4 5.6-1.3 2.6.95 4.65 2.55 1.95 1.5 1.9 1.95m15.55-8.6q-3.3-3.65-7.65-6.25 4.35 2.6 7.65 6.25" fill="#d1b786" fill-rule="evenodd" transform="translate(-241.45 -327.3)"/><path d="m292.8 362.6-1.6-1.7q-.4 0-1.8 1.2.05-.45-1.9-1.95-2.05-1.6-4.65-2.55-2.6-1.1-5.6 1.3-2.95 2.3-4.3 5.4-.1-1.2.4-3 .55-1.85 2.95-4.3l-.05-2.7q1.85-8 9.8-8.45 7.9-.5 9.75.5l1.5.9-1.25-.15q-2.65-.25-5.45 1.85-2.65 1.9-2.9 3.45l3.15 5.35q1.25 1.75 1.95 3.95.25 1.05 0 .9m-16.5-5.6q3.05-3 4.4-3.8l-2.95.5 2.95-.5q5.4-.15 10.5 7.7-5.1-7.85-10.5-7.7-1.35.8-4.4 3.8" fill="#917b55" fill-rule="evenodd" transform="translate(-241.45 -327.3)"/><path d="M54.35 19.05q9.9-.35 14.5 4.15.45 1.05-5.35 3 3.65 4.05 4.35 9.3-3.85 6.2-7.45 6.95-3.35.65-9.05-7.15l-1.6-1.7q-.4 0-1.8 1.2-5.2 4-9.05 7.45-4.65-.35-7.4-5.25-.1-1.2.4-3 .55-1.85 2.95-4.3L34.8 27q1.85-8 9.8-8.45 7.9-.5 9.75.5l1.5.9q4.35 2.6 7.65 6.25m-27.2.2 2.95-.5q5.4-.15 10.5 7.7m-10.5-7.7q-1.35.8-4.4 3.8" fill="none" stroke="#332720" stroke-linecap="round" stroke-linejoin="round" stroke-width="1.5"/></g></defs></svg>