<svg viewBox="0 0 43.1 34.25" xmlns="http://www.w3.org/2000/svg" xmlns:xlink="http://www.w3.org/1999/xlink"><g transform="translate(-259.4 -386.05)"><use transform="translate(259.4 386.05)" width="43.1" height="34.25" xlink:href="#a"/><use transform="matrix(.4361 -.0786 .0786 .4361 258.24 389.67)" width="66.15" height="45.8" xlink:href="#b"/><use transform="matrix(.479 .04 -.04 .479 270.98 396.89)" width="66.15" height="45.8" xlink:href="#b"/></g><defs><path d="m276.85 386.55-2.7.5-1.45.95 1.4.35.7.25 2.4 1.05.4.25 3.25-2.5-4-.85m3.65 12.3q-.15 0-.2.45h.15l.25.05.4-.1.6-.25v-.9l-.4-3v-.05l-.2-.5-.15-.4-.35-.9-.1-.15q-.55-1.15-1.4-2l-.8-.7-.7-.5m-4.9-1.9-.3-.05-3.4.25q-.7.95-1.8 1.55l-2.15 1.2-1.4.8q-1.75 1.05-1.85 3.15l-.05.2.35-.15 5.55-3.65 1.4.25q.75.15 1.55.55l1.3.65q1.3.6 2.25 1.55l1 1.2.85 1.5.1.25.35.95.3 1.2.15.95.85-.25 1.7-.45v-1.1m2.25.45.95-.65 2.15.4 1.65-1.5.6-1.55.95-4.85-.35-1.95-4.35-.95-3.15 2.6m3.15-2.6q-.85-.85-2.45-.55m5.75 11.8 1.35.8.65.4 2.25 1.8.35.35.15-.1.2-.05 2.25-.9v-.05l1.5-.55-.65-.4-3.3-1.65-2.95-.25-1.8.6-.3-.15-1.5-.3m.05 20.55 3.1-1.45-1.5-.35q.95-2.8 1.15-5.15l.05-1.4-.1-1.1v-.25l-.45-1.85-.75-1.55q-.75-1.25-1.9-2.2l-1.25-1.1-1.4-1-1.4-.65-7.2 2.35v-.05l-1.45.5h-.1l-1.15 1.7v.45l-.15 5.95 6.85 4.25m4.4-16.65-.9-.4-.4.1-.65.15-.2.05m.85-.2v-.15l-.85.05m-6.25 4.2.05-.2q.55-1.85 2.25-2.55l.55-.2.85-.25m-4.1 8.9-.05-1.65.55-.5.15-.3.25-.05 6.7-2.3m1.45 14.85-1.3-.8-.35-.75h-.85l-.7-.45m-1.05-1.55-.1-2.45m14.25-.55-.4.4v.05l.25.05.45.25.15.15.4.35.2-.5.4-1.2.35-3.25v-.65l-.05-.45-.15-1.05v-.15q-.3-1.4-.95-2.5l-.6-.95-.6-.75m-.75 10.45-.95 3.3 1.05.2q.05-1.65.65-2.75l.15-.55-.9-.2.25-.85m-1.55 2.4v.8l-.2 1-.45.35q-.2 0-.3-.4l-.1-1q.05-.6.25-1l.4-.4m2.45 1v.75l.1.85.65 2.3 1 1q-.8-1.9-1.1-3.8l-.1-.55-.25.05q-.2 0-.3-.4v-.2q-.1-.35-.05-.8l.05-.35m-7.4 6.05-1.3-.1m8.05-3.2v1.45l.7 1.05q-.2-1.2-.1-2.4l.05-.95m-.05.95.15-.1m-1.2.25.45-.2m-2.6 1.3.85-.4.7-1.15m-.7 1.15.8-.4m3-3.05-.1.25-.65 1.7 6.6-3.2 1-1.45 2.4-4.85.15-2.15-4.3-2.15-4 1.75m4-1.75q-.65-1.2-2.4-1.25m-3.1 12.75v.55l-.25.95-.2.3m.1.55v-.05m-30.1-20.85-1.15.7-.1.05-.6 1.85 1.4 5.7 9.2 2.8m-1.9-1.35-.6-2.1m-5.2-2.5-.4-1.45.4-.9 5.65-3.75" fill="none" stroke="#000" stroke-linecap="round" stroke-linejoin="round" stroke-opacity=".302" transform="translate(-259.4 -386.05)" id="a"/><use width="66.15" height="45.8" xlink:href="#c" id="b"/><g id="c"><path d="m49.15 2.95 1.45.6-3 1.5 1.55-2.1m-1.6 2.1h.05-.05" fill="#636f37" fill-rule="evenodd" transform="translate(.5 .5)"/><path d="M47.55 5.1v-.05h.05l-.05.05" fill="#313619" fill-rule="evenodd" transform="translate(.5 .5)"/><path d="m22.25 41.1-1.75.25-.05-.05-.9-12.8-.1-1.25 1.35-.7 3.4-1.75 7.95-4.1-6.55 4.8-2.9 2.05-1.4 1.05v10.8l.95 1.7" fill="#272813" fill-rule="evenodd" transform="translate(.5 .5)"/><path d="M47.55 5.05V5l.05.05h-.05" fill="#6b773c" fill-rule="evenodd" transform="translate(.5 .5)"/><path d="M30.1 44.8h-2.8l-1-.5-.45-.25q.85-9-1.35-13.45l-3.2-2 1.4-1.05 5.9 3.05h5q-3.4 7.1-3.5 14.2M2.05 17.95h2.1L6.9 19.4l-.55.2-.45.7.45-.7.55-.2 5.05 2.6 8.85 4.55-1.35.7.1 1.25-9.1-5.45L5.9 20.3l-3.85-2.35" fill="#e2dccb" fill-rule="evenodd" transform="translate(.5 .5)"/><path d="m0 17.95 2.1-3.8h.15l1.9 3.8H0" fill="#f0ece3" fill-rule="evenodd" transform="translate(.5 .5)"/><path d="m65.15 9.5-4.1 2.8-12.3 8.25L33.6 30.6h-5l-5.9-3.05 2.9-2.05 4.65 2.65h2.4l27.3-17.05V9.95L53.1 7.2l2.75-1.5 9.3 3.8m-62.9 4.65 5.35-2.2.4-.2q1.75.6 3.6.8L6.4 14.7v1.55L9.95 18 6.9 19.4 9.95 18l6.15 2.95-1.2.15q-1.65.2-2.95.9L6.9 19.4l-2.75-1.45-1.9-3.8M40.4 0h1.65l7.1 2.95-1.55 2.1-.05-.05-4.8-1.9-5.2-.3L40.4 0m10.2 3.55q3.7-.1 5.25 2.15L53.1 7.2l-5.5-2.15 3-1.5" fill="#b9ae9a" fill-rule="evenodd" transform="translate(.5 .5)"/><path d="M8.4 11.6 35.9 0h4.5l-2.85 2.8-1.9-.1-24.05 9.85q-1.85-.2-3.6-.8l.4-.15m7.7 9.35 8.1 3.85-3.4 1.75L11.95 22q1.3-.7 2.95-.9l1.2-.15" fill="#ad9f8d" fill-rule="evenodd" transform="translate(.5 .5)"/><path d="m53.1 7.2 6.85 2.75v1.15l-27.3 17.05h-2.4L25.6 25.5l6.55-4.8-7.95 4.1-8.1-3.85q5.1-.8 10.05-2.3l2.35-.75q6-2.1 11.35-5.75 2.5-1.75 4.6-3.7l-1.75-.9h-.05l.5-.2 4.4-2.25.05-.05 5.5 2.15-5.25 2.95L53.1 7.2M37.55 2.8l-.7.7q-4.15 3.9-9.5 5.8l-5.6 1.75-4.75 1.2-5.4.3L35.65 2.7l1.9.1m5.15 4.75.45-.2-.45.2" fill="#a09176" fill-rule="evenodd" transform="translate(.5 .5)"/><path d="M65.15 9.5V14l-4.1-1.7 4.1-2.8M47.55 5v.1l-4.4 2.25-.5.2h.05l1.75.9q-2.1 1.95-4.6 3.7Q34.5 15.8 28.5 17.9l-2.35.75q-4.95 1.5-10.05 2.3L9.95 18 6.4 16.25V14.7l5.2-2.15 5.4-.3 4.75-1.2 5.6-1.75q5.35-1.9 9.5-5.8l.7-.7 5.2.3 4.8 1.9M22.8 12.5 9.95 18l12.85-5.5m11.05-.5 8.85-4.45L33.85 12" fill="#928065" fill-rule="evenodd" transform="translate(.5 .5)"/><path d="m25.35 43.8-2.25-1.1-.85-1.6-.95-1.7V28.6l3.2 2q2.2 4.45 1.35 13.45l-.5-.25m-11.2-5.75-2.6-1.3-4.3-2.25L6.2 34 5.05 21.4l.85-1.1 4.55 2.75-.8.8q-.2 5.15 1.95 9.8 1.05 2.4 2.55 4.4m-6.9-3.55L6.2 34l1.05.5" fill="#8e7e66" fill-rule="evenodd" transform="translate(.5 .5)"/><path d="m20.45 41.3-3.8-1.95-2-1.05-.5-.25q-1.5-2-2.55-4.4-2.15-4.65-1.95-9.8l.8-.8 9.1 5.45.9 12.8M6.2 34l-1-.5-4.4-2.3L0 17.95h2.05L5.9 20.3l-.85 1.1L6.2 34l-1-.5 1 .5m9.7-1.6.75 6.95-.75-6.95" fill="#7c6d58" fill-rule="evenodd" transform="translate(.5 .5)"/><path d="m63.6 18-1.9 4.9q-2.65 1.3-5.8 1.9-5.4 1-9.8 4.1l-3.8 3.05Q39.85 34 37.75 36.4q-3 3.35-5.35 7.05l-2.3 1.35q.1-7.1 3.5-14.2l15.15-10.05q5.65.3 14.85-2.55m-7.75 11.65-1 .6L42.6 37.4l-.4.25q.4-2.05 2.05-3.7l1.85-1.6q4.05-2.7 9.7-2.7h.05m-1 .6.95-.6-.95.6" fill="#594b37" fill-rule="evenodd" transform="translate(.5 .5)"/><path d="m61.05 12.3 4.1 1.7-1.55 4q-9.2 2.85-14.85 2.55l12.3-8.25m.65 10.6-.6 1.55-1.9 3.2-2.4 1.45q-.5.25-.95.55h-.05q-5.65 0-9.7 2.7l-1.85 1.6q-1.65 1.65-2.05 3.7l-.65.4-9.15 5.4q2.35-3.7 5.35-7.05 2.1-2.4 4.55-4.45l3.8-3.05q4.4-3.1 9.8-4.1 3.15-.6 5.8-1.9m-4.9 6.2-1 .55 1-.55" fill="#44392b" fill-rule="evenodd" transform="translate(.5 .5)"/><path d="m9.95 18 12.85-5.5M5.9 20.3l.45-.7.55-.2L9.95 18M5.9 20.3l-.85 1.1L6.2 34m10.45 5.35-.75-6.95" fill="none" stroke="#382510" stroke-linecap="round" stroke-linejoin="round" stroke-opacity=".2" transform="translate(.5 .5)"/><path d="M65.15 14V9.5m0 4.5-1.55 4-1.9 4.9-.6 1.55-1.9 3.2-2.4 1.45m-1.95 1.15L42.6 37.4m-1.05.65-9.15 5.4-2.3 1.35h-2.8l-1-.5-.95-.5-2.25-1.1-.85-1.6-1.75.25h-.05v-.05l-3.8-1.95-2-1.05m-3.1-1.55-4.3-2.25m-2.05-1L.8 31.2 0 17.95l2.1-3.8h.15l5.35-2.2.8-.35L35.9 0h6.15l7.1 2.95 1.45.6q3.7-.1 5.25 2.15l9.3 3.8M47.6 5.05l3-1.5m-3 1.5-.05.05-4.4 2.25-.45.2L33.85 12M55.8 29.65l-.95.6m.95-.6 1-.55M6.2 34l1.05.5m-2.05-1 1 .5m15.1 5.4.95 1.7m-1.8.2.05.05" fill="none" stroke="#382510" stroke-linecap="round" stroke-linejoin="round" stroke-opacity=".4" transform="translate(.5 .5)"/><path d="m53.1 7.2-5.25 2.95M53.1 7.2l2.75-1.5" fill="none" stroke="#382510" stroke-linecap="round" stroke-linejoin="round" stroke-opacity=".302" transform="translate(.5 .5)"/><path d="m6 12.7-.8.3.35-.4Q11.8 4.8 19.7 6.85L6 12.7" fill="#382510" fill-rule="evenodd" transform="translate(.5 .5)"/><path d="m14.1 5 5.25-1.8q2.7-.8 4.6-2.65l7.65.8q5.5 2.05 10.05 5.8 2.15 1.75 3.6 3.9 1.55 2.25 2.3 5.05l.1.3.65 3.05q-2.45 3.6-3.75 2.5-.8-2.65-1.8-4.65l-1.6-2.6.9 2.75.6 5.1q-2.05 3-4.95 1.8-.35-3.15-1.3-5.5-.75-1.85-1.85-3.25Q30.8 9.35 23.2 5.85L14.1 5m10.8.2q8.1 3.55 11.45 9.6l.15-2.5q.6-6.6-15.6-8.1l4 1" fill="#fc1b1b" fill-rule="evenodd" transform="translate(.5 .5)"/><path d="m24.9 5.2-4-1q16.2 1.5 15.6 8.1l-.15 2.5Q33 8.75 24.9 5.2" fill="#da0303" fill-rule="evenodd" transform="translate(.5 .5)"/><path d="m14.1 5 9.1.85q7.6 3.5 11.35 9.75 1.1 1.4 1.85 3.25.95 2.35 1.3 5.5 2.9 1.2 4.95-1.8l-.6-5.1-.9-2.75 1.6 2.6q1 2 1.8 4.65 1.3 1.1 3.75-2.5l.15 1.3q.45 4.75-.9 9.45l-1.6 5.75-1.25.95-1.7-.15v-9l-1.75 8.8q-1.5 4.85-6.05 3.05 2.3-9.4.95-16.15l-.1-.5-1.25-3.7q-2.05-4.5-6.25-7.4-4.7-3.9-8.85-5Q11.8 4.8 5.55 12.6l-.35.4.1-.45q.95-4.6 5.35-6.25L14.1 5" fill="#b80101" fill-rule="evenodd" transform="translate(.5 .5)"/><path d="m43 36.75-1.75-.2 1.75-8.8v9" fill="#780101" fill-rule="evenodd" transform="translate(.5 .5)"/><path d="m48.3 19.45-.65-3.05-.1-.3q-.75-2.8-2.3-5.05 3.3 2.45 4.4 4.5 1.55 2.95-1.2 5.2l-.15-1.3m-12.25 3.5-2.8-3.3Q24.8 11.7 6 12.7l13.7-5.85q4.15 1.1 8.85 5 4.2 2.9 6.25 7.4l1.25 3.7" fill="#382510" fill-opacity=".353" fill-rule="evenodd" transform="translate(.5 .5)"/><path d="M45.25 11.05q-1.45-2.15-3.6-3.9Q37.1 3.4 31.6 1.35l-7.65-.8q-1.9 1.85-4.6 2.65L14.1 5m34.2 14.45-.65-3.05-.1-.3q-.75-2.8-2.3-5.05m3.2 9.7q.45 4.75-.9 9.45l-1.6 5.75-1.25.95-1.7-.15-1.75-.2q-1.5 4.85-6.05 3.05 2.3-9.4.95-16.15l-.1-.5-1.25-3.7q-2.05-4.5-6.25-7.4-4.7-3.9-8.85-5L6 12.7l-.8.3.1-.45q.95-4.6 5.35-6.25L14.1 5m34.35 15.75-.15-1.3m-7.05 17.1 1.75-8.8" fill="none" stroke="#382510" stroke-linecap="round" stroke-linejoin="round" stroke-opacity=".2" transform="translate(.5 .5)"/><path d="M40.4 34.65q0 1.2-.35 2.05-.3.85-.75.85t-.8-.85q-.3-.85-.3-2.05t.3-2.05q.35-.85.8-.85t.75.85q.35.85.35 2.05" fill="#8d4803" fill-rule="evenodd" transform="translate(.5 .5)"/><path d="M40.9 35.15q0 1.2-.35 2.05-.3.85-.75.85t-.8-.85q-.3-.85-.3-2.05t.3-2.05q.35-.85.8-.85t.75.85q.35.85.35 2.05z" fill="none" stroke="#382510" stroke-linecap="round" stroke-linejoin="round" stroke-opacity=".502" stroke-width=".5"/><path d="m45.3 41.9-1.6-2.15Q42.65 33.6 44.75 30l.55.25q-1.35 5.75 0 11.65" fill="#b80101" fill-rule="evenodd" transform="translate(.5 .5)"/><path d="m44.2 40.25 1.6 2.15" fill="none" stroke="#382510" stroke-linecap="round" stroke-linejoin="round" stroke-opacity=".153" stroke-width=".2"/><path d="M45.8 42.4q-1.35-5.9 0-11.65m-.55-.25q-2.1 3.6-1.05 9.75z" fill="none" stroke="#382510" stroke-linecap="round" stroke-linejoin="round" stroke-opacity=".2" stroke-width=".4"/><path d="M47.8 31.65Q46.2 30.1 44 30" fill="none" stroke="#382510" stroke-linecap="round" stroke-linejoin="round" stroke-opacity=".302" stroke-width=".4"/><path d="m49 43.25-2.2-2q-2.85-6.3-2.15-10.45l.5.15q.75 6.35 3.85 12.3" fill="#b80101" fill-rule="evenodd" transform="translate(.5 .5)"/><path d="M47.3 41.75q-2.85-6.3-2.15-10.45m.5.15q.75 6.35 3.85 12.3" fill="none" stroke="#382510" stroke-linecap="round" stroke-linejoin="round" stroke-opacity=".2" stroke-width=".4"/><path d="m49.5 43.75-2.2-2z" fill="none" stroke="#382510" stroke-linecap="round" stroke-linejoin="round" stroke-opacity=".153" stroke-width=".2"/><path d="M46.45 31.7q0 1.2-.35 2.05-.3.85-.75.85t-.8-.85q-.3-.85-.3-2.05t.3-2.05q.35-.85.8-.85t.75.85q.35.85.35 2.05" fill="#8d4803" fill-rule="evenodd" transform="translate(.5 .5)"/><path d="M46.95 32.2q0 1.2-.35 2.05-.3.85-.75.85t-.8-.85q-.3-.85-.3-2.05t.3-2.05q.35-.85.8-.85t.75.85q.35.85.35 2.05z" fill="none" stroke="#382510" stroke-linecap="round" stroke-linejoin="round" stroke-opacity=".502" stroke-width=".5"/><path d="M45.2 29q.2-.15.5-.15.35 0 .55.15l.25.55-.25.55-.55.25-.5-.25-.2-.55.2-.55M39.1 31.8q.2-.15.5-.15l.55.15.25.55-.25.55-.55.25-.5-.25-.2-.55.2-.55" fill="#e6b100" fill-rule="evenodd" transform="translate(.5 .5)"/><path d="M8.05 28.7v.5l9.85 9.5 1 1.8L.8 31.2l-.45-7.85 5.15 1.5 2.55 3.85M27.3 44.8l-4.2-2.1-.85-1.6-1.75.25-.05-.05-1.55-.8 1.8-10.25q2.8 3.8 3.95 7.65 1.65 5.65 7.65 5.65l-2.2 1.25h-2.8" fill="#978e24" fill-opacity=".49" fill-rule="evenodd" transform="translate(.5 .5)"/></g></defs></svg>