<svg viewBox="0 0 71.9 83.05" xmlns="http://www.w3.org/2000/svg" xmlns:xlink="http://www.w3.org/1999/xlink"><use transform="translate(.02 .03)" width="71.85" height="83" xlink:href="#a"/><defs><use width="71.85" height="83" xlink:href="#b" id="a"/><g id="b"><path d="m-5.05-39.9.6-.1 6.25 3 1.7.55L.8-35.2l-5.85.95v-5.65m17.2 3.8 10.6 3.75-.9 1.35-7.05 3.55-3.2-4.3.55-4.35" fill="#794724" fill-rule="evenodd" transform="translate(35.9 41.5)"/><path d="M-5.05-34.25.8-35.2l2.7-1.25L1.8-37l-6.25-3-.6.1-9.65 2.1v.75l5.25 3.45 4.4-.65m-7.75 8.65-3.25-2.2 1.6-5.15-3-5.45 13.55-2.75 9.6 4.55-.65 1.25 8.1-3 13.8 3.95-.2.45-4.4 5-9.3 3.3-4.65-.85 7.7 3.25-.75 3.35-5.15 1.6-1.25-.55-1.2-.55L6.4-20l-.25-.1-.2-.15v.05l-.05-.05-.9-.4-1.75-.8-1.2-.55-.65-.3-.15-.05L0-22.9l.65-1.15L1.7-26l.45-.85-5.15-5.5 6.35-2.35-13.3 2.75 5.55 3.2-2.3 3.55-4.25.85-.3-.2v-.05l-.3-.2h-.05l-1.2-.8m32.6 9.65 2.95 1-.15.4-.4 1.25h-.05l.45-1.25-.45 1.25-.4.2-6.95 4.75h4.25L16.15-4l-.95-1.7-.15.15L13.3-3.9l-.05-.05L11.2-5.3l-.1-.1-1.8 2.55-6.15-4.7L4.4-10.7l-1.7-3 1.95-.7 1.3-.45.2 1.1-1.4 1.2 1.7.6.9.35.2.05 1.85.7.6.2h.05l1.9.7.25.1 1.35.5.2.05h.05l.3.15 2.1-1.4.95-.65.6-.35.1-.1L19-12.4l.35-.25L21-13.7l-1.4-.65.2-1.6m9.6 28.4.5.8-5.8-3.4-3.05 2.95 8.9 2.15 3.05 2.7-9.35-2.9-15.25 2.2-.25.05H8.1l-.5.4-.65.45-2.65 1.9-.15.15-2.5 1.8-.05.2-.55.2-1.65.55-.15-.1-.15-.05-.15-.1 1.4-1.85L6.6 16.2l7.45-3.4-16.65 6.5 2.95-2.6 13.4-5.35 7.65-1.2-11.35.5-11.1 3.9 3.1-2.6L6.1 8.6l.1-.1 12.6-1 1.3-.1 1.55-.1 1.8-.15h.05l.3-.05 1.15-.05.75-.05 3.7 5.45M-29.45 5.7l.85-3.75 5.1-1 7.4 1.55-5.45-2.15-1.95-.3V-1.1L-21-.05l12.75 3.1.15.2-2.7.85-2.6-.35 7.1 3.95-2.1 5.55-.45.2.5-6.05v-.1l-5.95-2.45 4.25 3.8.35 5.15-.6.25-2.2-6.35-6.1-4.1 3.35 3 .5 1.25-3.55-2.6-2.5-.8-.3-.1-2.65-1.2-3.65 1.2-2.05 1.35m15.05-17.05.5-2.4-2.05-2.45 4.1-1.35.1.85-.95.4-.5.2h-.4l2.1 1.45.8.55.3.2 1.85 1.25.35.2.4.3.6-.2.35-.15 1.15-.4.2-.05.4-.15 1.5-.5 1.4-.5 1.9-.65.6-.2h.1l.8-.3.95-.3 2.25-.8-2-.55.1-.65 3.15.95.1.45-.2.3-15 4.9 1.35.6-1.2 1.5-1.2-1.6h-1.05l-.7.75-.2.2-.1-.1-1.85-1.75m19.45-24-1.7.65 1.7-.65m9.75 7.9L21.85-31l.9-1.35-10.6-3.75-.2-.1L2-32.45l1.95 2.05 9.35 3.65 1.5-.7m-9.05 11.3-.2.3.2-.3m19.9 24.9-2.1-.85-9.75 1.3 11.85-.45M1.05 22.1l.6-.4-.6.4" fill="#efb876" fill-rule="evenodd" transform="translate(35.9 41.5)"/><path d="M26.75-33.95 23.85-28l1.7 2.7-5 3.9-.15.15L18.8-20l-1.75 1.35H17l-1.45 1.2h-3.5l-.3-.15-1.55-.7 5.15-1.6.75-3.35-7.7-3.25 4.65.85 9.3-3.3 4.4-5M22.2-13.3l-.4 1.1 2.9 5.6-7.3 4.85L16.15-4l2.9-4.35H14.8l6.95-4.75.4-.2h.05m7.7 26.55 1.15 1.7h-1.1l-8.9-2.15 3.05-2.95 5.8 3.4m3.1 4.4.25.2-2.85 3.7-1.05-2.7-3.8-2.95-.7.05-16.45 1 15.25-2.2 9.35 2.9m-31.65 6.1-.2-.2-1.75-.9 1.65-.55.55-.2-.25 1.8v.05m-1-3.2-3.3-1 .1-.05.25-.2 16.65-6.5-7.45 3.4-6.25 4.35m0-3.85L-1 15.4l-.5-.45.25-.2.2-.2 11.1-3.9 11.35-.5-7.65 1.2L.35 16.7M-23.5.95v-.9l1.95.3 5.45 2.15-7.4-1.55m12.55-25.3 4.25-.85 2.3-3.55-5.55-3.2 13.3-2.75L-3-32.35l5.15 5.5-.45.85-2.6.75-.75.2-3.55 1-1.75.5-.45.15h-2.15l-.55-.4-.2-.15-.65-.4m30.55 10 1.4.65-1.65 1.05.25-1.7m2.2 2.15.35-1.1-.35 1.1M2.15-15.55l.25-1.35 2 .55-2.25.8m3.4-.3-.5.8.5-.8-.5.8-.4.65-1.95.7 1.7 3-3.05-1.65-.2.15-1.25.65-4.1 2.3-.15.1-1.55-1.15-.3-.25h-1.7l-.2.2-1.35-.6 15-4.9m.6 2.1.3 1.8-1.7-.6 1.4-1.2M-5.9 5.85l1.4 1.7v4.1l-3.9 1.6 2.1-5.55-7.1-3.95 2.6.35 2.7-.85.15.15 1.65 1.95.4.5m31.55 2.9L13.8 9.2l9.75-1.3 2.1.85m-37.15-23.4-2.1-1.45h.4l.5-.2.95-.4.25 2.05M-20.65 5.6h.05l-.05-.05-1.2-.3.05.05-.65-.2-3-.75h-1.95l3.65-1.2 2.65 1.2.3.1 2.5.8 3.55 2.6-.5-1.25-3.35-3 6.1 4.1 2.2 6.35-3.5 1.45v-1.6l-1.1-3.6-.3-.95-.05-.05-1.25-1.5-.5-.55-.45-.55-.05-.05-.3-.35-.3-.05-.25-.1-.75-.2V6l-.45-.15h.05l-.4-.1v.05l-.75-.2m10.6 3.05-4.25-3.8 5.95 2.45v.1l-.5 6.05-.85.35-.35-5.15m40.85 11.3-1.45-1.1 1.45 1.1M1.35 23.7H1.3h.05" fill="#c57134" fill-rule="evenodd" transform="translate(35.9 41.5)"/><path d="M-5.05-39.9v5.65l-4.4.65-5.25-3.45v-.75l9.65-2.1m17.2 3.8-.55 4.35 3.2 4.3-1.5.7-9.35-3.65L2-32.45l9.95-3.75.2.1m-.7 5.4.15-1.05-.15 1.05" fill="#442515" fill-rule="evenodd" transform="translate(35.9 41.5)"/><path d="m20.55-21.35-.05.2v.05l-.35 2.55-.35 2.6-.05-.05-.25 1.65h.1-.1l.25-1.65.05.05-.2 1.6-.25 1.7-.35.25q.1-3.05.55-6.15l.25-1.2-1 .55-.85 6.45-.2 1.2-.6.35.1-.95v-.1l.1-.2.4-2.75v-.1l.1-.2.55-3.45-.95.65-.45.4.05-.65-.05.65-.15.1-.05 1.55-.3 4.25v.1l-.05 1.15-.25.15-.25.2.05-1.45v-.2l.1-.2.35-5.2-.35.2-1.45-.1.05-.1h.85l.05-.05.9-.6v-.05l.1-.1.1-.05.35-.25-.05-.1h.05L18.8-20l1.6-1.25.05-.05.1-.05m-3.5 2.8v-.1.1M18.8-20l-.85 7.25.85-7.25m.95 4 .4-2.55-.4 2.55m-18.5-6.35.15.05-.85 6.4-.15.95H.3l-.6.2.8-6.35.2-1.5.55.25-.95 7.4.95-7.4m.8.35 1.2.55-.75 3.9-.1.65-.25 1.35-.95.3q.2-3.2.75-6.4l.1-.35M-.9-25.25 1.7-26 .65-24.05l-1.55-1.2M.2 3.1v2.75l.05.05L1.9 7.2l1.4-.6L2.75 9l-.15.05-.9.35-3.7 1.35-.2-.3-.05-.15q-.2.25-.5.25H-3l-.2-.2-.05-.2q1.65-2.7 2-5.7.1-.8-.25-1.55l-.95-1.55L-5.9.2l.65-.4v-1.35l2.1 1.3 2.2 2 .75.7-.75-.7.75.7.25.4.15.25m21.45 4.2-3-3.35-.05-.1-.15-.2-.2-.15q-2 1.25-4.15 1.1l.65-.5-.65.5.65-.5.7-.5.25-.1.15-.2.3-.25v-.6l.1-.4L24.4 5.6l.55 1.45-1.15.05-.3.05-.15-.25-.15-.2.25.45-1.8.15M16.2-10.6l.6-5.65-.6 5.65m3.15-2.05.15-1.7-.15 1.7M-14.9 10.3l1.1 3.6v1.6l-1.85.75-.1.05q.45-2.65.35-5.35v-.45l.5-.2m-8.05 3.45.1.1 1 4.5.1.4-1.05-.1q-.55-1.8-.7-3.75v-.05l-.35-.4-.05-.1.05-.2.9-.4m-9.2 3.8 1.1-3.85.1-.2.1-.05.15-.05.4.3.05.05-.95 3.9-.95-.1M23.7 24.1l.15-.1q1.6.6 2.9 1.6l.25 1.2-.25-1.2h.05l.2 1.2-.2.15q-1.4-1.55-3.35-2.35l-.05-.1v-.1l.3-.25v-.05m-2.45 2.15.05.05.1.05-.2 3.85-.55.35-.45.25.25-4.1h.3l.5-.45m-9.1.75q.05 1.35-.55 2.65v.05l-4.65-1.9v-8.65l.15.15.1.2.85 3.45.55 2.15 3.55 1.9" fill="#23215f" fill-rule="evenodd" transform="translate(35.9 41.5)"/><path d="M20.55-21.4v.05l-.1.05-.05.05.15-.15m-56.1 35.45v-1l.85-2.95 2.4 1.8 2.3 1.65 5.55.85.6-.25-.05.2.05.1.35.4v.05q.15 1.95.7 3.75l-8.4-1 .95-3.9-.05-.05-.4-.3-.15.05-.1.05-.1.2-1.1 3.85-.8-.1-2.6-3.4m47.4-31.6.2.1h.8l-.65 7.6-.25-.1-.1-7.6m1.95.1h.95-.05l-.05.1 1.45.1.35-.2-.35 5.2-.1.2v.2l-.05 1.45.25-.2.25-.15.05-1.15v-.1l.3-4.25.05-1.55.15-.1-.2 1.65.2-1.65.45-.4.95-.65-.55 3.45-.1.2v.1l-.4 2.75-.1.2v.1l-.1.95-.95.65v-.05.05l-2.1 1.4-.3-.15v-8.15m1.75 0 1.45-1.2.05.1-.35.25-.1.05-.1.1v.05l-.9.6-.05.05m2.2 5.9.2-1.2.85-6.45 1-.55-.25 1.2q-.45 3.1-.55 6.15l-1.15.75-.1.1m.1-.1.1-1.1-.1 1.1M.65-24.05 0-22.9l1.25.55-.55-.25-.2 1.5-.8 6.35-1.9.65-1.4.5.2-8.45-1.4-.6-.4-.15v-1.25 1.25l-.05.4v.1l-.25 9.35-.2.05-.4-10.3-.85-.35 1.75-.5 3.55-1 .75-.2 1.55 1.2m.75 1.75.65.3-.1.35q-.55 3.2-.75 6.4l-.8.3.15-.95.85-6.4m6.35 2.9 1.2.55.05.4v.05l1 7.75-.6-.2-1.65-8.55m-9.4-5.65L-2.2-14.1l.55-10.95M-9-23.4l.8 10.95-.35-.2-1.55-11.15.55.4H-9M12.05 2.85l.05.3.2.7 1.65.9.15-.15q2.15.15 4.15-1.1l.2.15.15.2.05.1 3 3.35-1.55.1-.9-1.8-1.25-.65-.4-.2-4.1 1.3-2.6-1.45-2.95.05 1.8-.8 2.35-1M.2 3v.1l-.15-.25-.25-.4.4.35V3M-5.9.2l3.45 1.15.95 1.55q.35.75.25 1.55-.35 3-2 5.7l.05.2.2.2h.25q.3 0 .5-.25l.05.15.2.3-2.5.9v-4.1l-1.4-1.7 1.75-1 .2-.9.15-.8-3.8-1.9L-5.9.2m22.05 2.25V2l.1.05-.1.4m-.7 1.15.4-.3-.15.2-.25.1m8 3.55-.25-.45.15.2.15.25h-.05M-13.45-.9l.35 1.15 2.95-.1.5.6-2.75.6-2.45-1.45 1.4-.8m-8.35 6.2-.05-.05 1.2.3.05.05h-.05l.75.2v-.05l.4.1h-.05l.45.15v-.05l.75.2.25.1.3.05.3.35.05.05.45.55.5.55 1.25 1.5-1.3.5-.05-.05-.65-1.5Q-20.9 6.7-24.7 5.4l-1.45-1.05h.7l3 .75.85.35-.2-.15 1.15.3-1.15-.3m1.9.5.35.05-.35-.05m.8.2.75.15-.75-.15m-1.65-.4-.25.1.25.1v-.2m3.3 1.1.45.55-.45-.55m2.05 3.8v.45q.1 2.7-.35 5.35l-5.95 2.45h-.05l-.1-.4-1-4.5-.1-.1 7.55-3.25m40.25 5.45.25 1.15 1.65 8.5q-1.3-1-2.9-1.6l-.15.1v-6.7H7.6l.5-.4h.05l.25-.05 16.45-1M21.2 30.2l.2-3.85-.1-.05-.05-.05 2.45-2.1-.3.25v.1l.05.1q1.95.8 3.35 2.35l-5.6 3.25m-.75-3.5-.25 4.1.45-.25-2.8 1.65h-.05l-6.2-2.5v-.05q.6-1.3.55-2.65l.1.05 8.2-.35m-13.5-8.15.25.95-.1-.2-.15-.15v-.6" fill="#3a308b" fill-rule="evenodd" transform="translate(35.9 41.5)"/><path d="m-11.85-17.55-.95-8.05 1.2.8-.05.1-.05.25q.65 3.6.75 7.35l.05 1.15v.7l.15.95.05.2-.8-.55-.25-2.05-.1-.85m.6-7 .3.2.65.4.2.15 1.55 11.15-1.85-1.25.15-.15-.1-.85-.1-2.65q-.1-3.6-.8-7M10.2-18.3l1.55.7.1.05.1 7.6-1.9-.7-.15-1.45-.35-6.5-.5-.2-.05.35-.05-.4 1.25.55m2.65.85h.7l-.1 2-.2 5.95.3.15-1.35-.5.65-7.6M5-20.65l.9.4.05.05.45 2.4q.5 3.15 1.15 6.25l-.2-.05-.9-.35-.3-1.8-.2-1.1-.2-1.3-.1-.45L5-20.65m1.4.65 1.35.6 1.65 8.55-1.85-.7.45.15-.4-2.45L6.4-20m-11.2-2.65 1.4.6-.2 8.45-1.5.5.35-6.6-.05-2.95m-2.15-.9.85.35.4 10.3-1.15.4-.45-5-.55-5.9h.45l.45-.15m1.45 10.6.25-9.35.05.8-.25 7.45-.05 1.1M-8.25-23.4l.4 4.6.3 3.25.35 3.2-.6.2-.4-.3L-9-23.4h.75M5.9-20.25l1.45 8.65-1.45-8.65M13.8-9.3h-.05l.05-.25v.25m-25.55-15.6.85 8.95-.85-8.95m1.2 10.9-.15-.1-.05-.2.2.3" fill="#6852c5" fill-rule="evenodd" transform="translate(35.9 41.5)"/><path d="M-11.6-24.8h.05l.3.2v.05l-.35-.25.35.25q.7 3.4.8 7l.1 2.65.1.85-.15.15-.15-.1.15.1-.15-.1-.2-.3-.15-.95v-.7l-.05-1.15q-.1-3.75-.75-7.35l.05-.25.05-.1m25.15 7.35h.25v7.9l-.05.25-.2-.05-.3-.15.2-5.95.1-2m-7.6-2.75v-.05l.2.15.25.1 1.2 6.15.4 2.45-.45-.15q-.65-3.1-1.15-6.25l-.45-2.4.2.1-.2-.1M-5.2-22.8l.4.15.05 2.95-.35 6.6-.4.15.05-1.1.25-7.45-.05-.8v-.1l.05-.4m-2.65-.6.55 5.9.45 5-.35.15-.35-3.2-.3-3.25-.4-4.6h.4M9-18.45l.05-.35.5.2.35 6.5.15 1.45H10L9-18.4v-.05M-3.95 3.95l-.2.9-1.75 1-.4-.5q1.35-.75 2.4-1.9l-.05.5m21.9 1 1.25.65.9 1.8-1.3.1v-.05l.05-1q-1.25-.8-.9-1.5m-28.7-19.25-.15-1.65.15 1.65m-4.5 23.6.05.05.3.95-.5.2-7.55 3.25-.9.4-.6.25-5.55-.85-2.3-1.65h.4l4 1.05q1.45.55 2.9 0 4.6-1.55 9.1-3.4l.65-.25.05.05-.05-.05m38.5 8.1h.45v6.75l-2.45 2.1-.5.45h-.3l-8.2.35-.1-.05-3.55-1.9-.55-2.15 2.35 1.5q2.05 1.25 4.35 1.6h.05l4.15-.2.4-.1H20l1.2-.15 1.25-1.8q.45-.8.45-1.8-.05-2.35.35-4.6" fill="#918dd8" fill-rule="evenodd" transform="translate(35.9 41.5)"/><path d="m35.3-1.75.3.25-4.35 2.85-5.05.45L27.9.35l2.8-2.45 4.6.35m-2.6 5.8.05.1L28.9 7.6l-1.65-.75L24.4 5.6l-8.15-3.55-.1-.05v1.05l-.3.25-.4.3-.7.5-.65.5-.15.15-1.65-.9-.2-.7 1.35.1.35-.15h.05l1.2-.6-.55-.95-.15-.2V1.3l-.15-.2-.6-1 .1-.15h.05l1.9-2.15-.55-3.1-.05-.25.15-.15.95 1.7 1.25 2.25-1.25 1.6-.25 1.25.25.9-.25-.9 1.35.4L27.5 4.3l5.2-.25M-18.9-1.9l-1.65-1.7 2 .6 1.8.5.15.05 2.05-2.7-.25-.9h.05l2.65 5.7 1.5-.05-.35-2.7 2.1 1.45 1.05.7-.4-1-1.55-3.55 3.4-4.7.45-.1 1.55 1.15-1.5.8-1.7 3.7.05.1.35-.25 6.3-4.75 2-2.65.2-.15L4.4-10.7 3.15-7.55h-3.2L-3.8-.85l.15.15L1-.75 5.75 2.8.2 3v-.2l-.4-.35-.75-.7-2.2-2-2.1-1.3V-.2l-.65.4-1.7 1.05-1.1.7-.95-1.2-.5-.6-2.95.1-.35-1.15-1.1-4.25 1.1 4.25-1.4.8-.3.15h-1.75l-2-1.95m.25-4.25.05-.05-2.35-3.7 4.9 1.65 3.3-1.25.2-.1.1.1.25-.25-2.75 3.05.15.65-.95 1.1-2.9-1.2M4.4-2.65 6.05-2l.2.05 4.9 1.9.1.4.1.2-4.1.65L5.1-.2 3.3-1l-.95-.35V-3.4l2 .75h.05m7.45 4.9.2.6-2.35 1-1.8.8-1.1.45-.25.1L3.3 6.6l-1.4.6L.25 5.9l.65-.3 5.9-2.4q3-1.15 5.05-.95m1.4-6.2-.5 3.1V-.9l-1.2-1.7-.3-2.55-.05-.15 2.05 1.35M2-6.2l.35-.1-.75 1.75-2.9 2.1.1-.2L.3-5.8 2-6.2M-3.65-.7l.5.45-.5-.45m-2.3-.05-1.55-3.8 1.55 3.8m33.4-1.8.35.45.05.05L25 0l-.35 1.7-7-.8-.6-.05L26.6-3.8l.4.55.45.7m1.2-3.65 2 2.4-2.25-.85-6.9 1.35 5.05-3.2 2.1.3m-39.3-4.15.05-.1h.1l1.2 1.6-1.25 1.55-1.7 3.2-.05.1.05-.1.1-.7.45-3.5.1-.7.95-1.35m-6.35-1 1.1 1.35-2.85-.45 1.75-.9M-10.6-.4l.45.55-.45-.55" fill="#af65dc" fill-rule="evenodd" transform="translate(35.9 41.5)"/><path d="m24.7-6.6 2.95-1.95 7.2 6.35-4.05-.2-.2.1h-.15l-.85.55-.6.8-.15.1-.45.7-.5.5-1.7 1.45 5.05-.45 1.25 2.3-2.85.1q-3.75.2-7.25-1.05l-1.1-.4L17.65.9l7 .8L25 0l2.85-2.05-.05-.05h.2l.15-.15v-.15l-.05-.1-.15-.15-.25-.5-.7-.75-.1-.05-.75-.1-1.05.6Q21.35-1.35 17.45.3l-.65.25-.25-.15-.2.05-.05.15v.05q-.2.05-.25.2V1l.05.1h.05l.35.05.25.2.5.15-1.35-.4.25-1.25 1.25-1.6 7.3-4.85m-45.2 2.4 1.85-1.95 2.9 1.2.95-1.1-.15-.65 2.75-3.05-.05.05.7-.75h.95l-.05.1h-.05q-.1-.15-.25-.1h-.1v.05h-.05l-.15.2-.95 1.5-.15.9-.15.55.05 3.1.05.05h.15l-.05.1.05-.1 1.7-3.2 1.25-1.55 1.2-1.5.2-.2h1.7l.3.25-.25-.2h-.05q-2.3 2.4-3.85 5.25l.95 2.8.25.8-2.1-1.45.35 2.7-1.5.05-2.65-5.7h-.05l.25.9h-.15l-2.15 2-3.65-1.05m-.45-5.7L-21-10l.1-.15.05.05h-.05l-.05.1v.1m.1-.35 2.7-2.95 3.75 1.85 1.85 1.75-.2.1-.8-.05q-2.3 1.3-4.75-.05l-.05-.05-.8-.25-1.4-.6-.3.25m16.5 1.1.15-.1 4.1-2.3-.2.5-.2.15-.55.55q-2.85 3-6.15 5.5l.05.05-.35.25-.05-.1 1.7-3.7 1.5-.8m15.4 9L8.5-1.3q-.5-.15-.95-.45Q6.35-2.55 5-2.9l-.25-.2H4.7l-.4-.15h-.55l-.5-.15-.95-.3-.2.1-.05.05v.3H2l-.05.1.05.05v.25l.05.5L2-1.8q.1.85 1.05 1.05h.05l.05-.05h.1L3.3-1l1.8.8 2.15 1.4 4.1-.65-.1-.2.1-.1.05-.1h.05V.1l-.4-.25L9.3-1.6v-1.25 1.25l1.75 1.45M9.3-2.85l1.8-2.55.1.1.05.15-.05.05q-.25 1.25-.15 2.55l1.5 1.75.2-.1v.05l.5-3.1.05.05 1.75-1.65.05.25q-.15.4-.05.9l.1.2v.15l.05 1.8L13.35-.5l-.2.4v.15l.15.6.4.45.7 1.25-1.75.4-.05.1-.05.15 1.25.1-.35.15-1.35-.1-.05-.3-.25-.75-.45-1.55.45 1.55h-.1l-.1-.1-.1-.05h-1l-.2.05-1.3.3q-3.55.95-6.95 2.35-.95.4-1.45 1.1l.3-.15-.65.3-.05-.05V3l5.55-.2L1-.75l-4.65.05-.15-.15 3.75-6.7h3.2l6.15 4.7m-17.25 1.8-.25-.9.4 1-.15-.1M2-6.2v-.05l-.25-.15q-.8.4-1.7.4l-.5.85-1.1 2.4q.15.2.35.1l-.1.2 2.9-2.1.75-1.75-.35.1m25 2.95.25.25.05.15.1.15.05.1v.05l-.45-.7m1.65-2.95-2.1-.3-5.05 3.2 6.9-1.35 2.25.85-2-2.4m-14.3 7.5h-.05l-.1-.15V1.1l.15.2m.15.25-.1-.05v-.05l-.05-.1.15.2m.55.95-.1.05.1-.05M-11.7-8.3l-.45 3.5.05-.45q-.15-1.65.4-3.05m-5.3-3.05-1.75.9 2.85.45-1.1-1.35m.4 8.9-.15-.05.05-.05.1.1M-18.55-3l-2-.6.55.15 1.45.45m6.3-1.1.1-.05.05-.2-.15.25" fill="#fcf" fill-rule="evenodd" transform="translate(35.9 41.5)"/><path d="m34.85-2.2.45.45-4.6-.35L27.9.35l.5-.5.45-.7.15-.1.6-.8.85-.55h.15l.2-.1 4.05.2M32.5 3.65l.2.4-5.2.25-10.25-2.8-.5-.15-.25-.2-.35-.05h-.05l-.05-.1V.85q.05-.15.25-.2V.6l.05-.15.2-.05.25.15.65-.25q3.9-1.65 7.65-3.75l1.05-.6.75.1.1.05.7.75.25.5.15.15.05.1v.15L28-2.1h-.2l-.35-.45v-.05l-.05-.1-.1-.15-.05-.15-.25-.25-.4-.55L17.05.85l.6.05 3.65 1.4 1.1.4q3.5 1.25 7.25 1.05l2.85-.1M-20.55-3.6l-.3-.25.35-.35 3.65 1.05 2.15-2h.15l-2.05 2.7-.1-.1-.05.05-1.8-.5-1.45-.45-.55-.15m-.35-6.55.05-.1.3-.25 1.4.6.8.25.05.05q2.45 1.35 4.75.05l.8.05-3.3 1.25-4.9-1.65v-.1l.05-.1h.05l-.05-.05m20.8-1.4 1.25-.65-2 2.65-6.3 4.75-.05-.05q3.3-2.5 6.15-5.5l.55-.55.2-.15.2-.5m4.5 8.9-.85-.3.85.3h-.05l-2-.75v2.05L3.3-1l-.05.2h-.1l-.05.05h-.05Q2.1-.95 2-1.8l.05-.55-.05-.5v-.25l-.05-.05.05-.1h.05v-.3l.05-.05.2-.1.95.3.5.15h.55l.4.15h.05l.25.2q1.35.35 2.55 1.15.45.3.95.45l2.55 1.15.4.25v.05h-.05l-.05.1-.1.1-.1-.4-4.9-1.9-.2-.05-1.65-.65m6.65 2.5.1.1-.1-.1m.75 2.25.05.15q-2.05-.2-5.05.95L.9 5.6l-.3.15q.5-.7 1.45-1.1Q5.45 3.25 9 2.3l1.3-.3.2-.05h1l.1.05.1.1h.1m2 1L12.55 3l.05-.15.05-.1 1.75-.4-.7-1.25-.4-.45-.15-.6V-.1l.2-.4 1.85-1.75-.05-1.8v-.15l-.1-.2q-.1-.5.05-.9l.55 3.1-1.9 2.15h-.05l-.1.15.6 1v.05l.1.15h.05v.05l.05.1v.05l.1.05.55.95-1.2.6h-.05m-1.05-4-.2.1-1.5-1.75q-.1-1.3.15-2.55l.05-.05.3 2.55 1.2 1.7M-5.9-10.3l-.45.1-3.4 4.7 1.55 3.55.25.9-.9-.6-.25-.8-.95-2.8Q-8.5-8.1-6.2-10.5h.05l.25.2m4.7 7.65q-.2.1-.35-.1l1.1-2.4.5-.85q.9 0 1.7-.4l.25.15v.05l-1.7.4-1.5 3.15M-12.25-4.1h-.15l-.05-.05-.05-3.1.15-.55.15-.9.95-1.5.15-.2h.05v-.05h.1q.15-.05.25.1h.05L-11.6-9l-.1.7q-.55 1.4-.4 3.05l-.05.45-.1.7.15-.25-.05.2-.1.05" fill="#fff2ff" fill-rule="evenodd" transform="translate(35.9 41.5)"/><path d="m-34.7 10.1.3-1.15 4.95-3.25 2.05-1.35h1.25l1.45 1.05q3.8 1.3 7.45 2.85l.65 1.5.05.05.65-.25q-4.5 1.85-9.1 3.4-1.45.55-2.9 0l-4-1.05h-.4l-2.4-1.8M-21-.05l2.1-1.85 2 1.95h1.75l.3-.15 2.45 1.45 2.75-.6.95 1.2 1.1-.7 3.8 1.9-.15.8.05-.5q-1.05 1.15-2.4 1.9L-7.95 3.4l-.15-.15-.15-.2L-21-.05m28.9 4.7 2.95-.05 2.6 1.45 4.1-1.3.4.2q-.35.7.9 1.5l-.05 1v.05l-12.6 1-.1.1.45-3.4.25-.1 1.1-.45m-30.35.45.65.2.2.15-.85-.35m1.7.5v.2l-.25-.1.25-.1M7.6 17.4h15.65q-.4 2.25-.35 4.6 0 1-.45 1.8l-1.25 1.8-1.2.15h-.65l-.4.1-4.15.2h-.05q-2.3-.35-4.35-1.6l-2.35-1.5-.85-3.45-.25-.95v-.7l.65-.45" fill="#615cc7" fill-rule="evenodd" transform="translate(35.9 41.5)"/><path d="m27.25 6.85 2.15 5.6L25.7 7l-.75.05-.55-1.45 2.85 1.25m-62.8 9.45v-2.25l2.6 3.4.8.1.95.1 8.4 1 1.05.1h.05l5.95-2.45.1-.05 1.85-.75 3.5-1.45.6-.25.85-.35.45-.2 3.9-1.6 2.5-.9L1.7 9.4l-23.25 11.15.05.15-11.05-1.85-.05.1-.25.05-2.7-2.7M2.75 9l.55-2.4 3.25-1.4-.45 3.4-4.05 3.35.7-2.95m24 16.6-1.65-8.5 2.8 2.6 2.4 7.95-12.55 7.2-13.25-5.1-.35-9.1L1.7 21.8l-.1.1.05-.2 2.5-1.8v.75l2.8-1.3v8.45l4.65 1.9 6.2 2.5h.05l2.8-1.65.55-.35 5.6-3.25.2-.15-.2-1.2h-.05m-8.85 8.85q-.35 0-.1.25l.2-.25h-.1m.25.55h.05l.05.05-.1-.05m-.75-.05h.15l-1.15.65.9-.55.1-.1" fill="#f0da8e" fill-rule="evenodd" transform="translate(35.9 41.5)"/><path d="m30.4 21.55.15.6v.05l.1.25.1.35.05.3.1.35 1.35 5.15-1.45 5.85-12.5 6.7-.15-.1-14.4-5.95-2.4-5.45V23.7l.25-1.8.1-.1 2.45-1.15.35 9.1 13.25 5.1 12.55-7.2-2.4-7.95-2.8-2.6-.25-1.15.7-.05 3.8 2.95 1.05 2.7M-1 15.4l-3.5.85-1.25-.4h-2.4l-1.1 2.9-11.55 6-11.9-1.6-2.85-3.3V16.3l2.7 2.7.25-.05.05-.1 11.05 1.85-.05-.15L1.7 9.4l.9-.35.15-.05-.7 2.95-3.1 2.6-.2.2-.25.2.5.45m31.9 8.05-.25-1 .25 1m-13.6 11.6-.9.55 1.15-.65h-.75l.5.1m.85-.05.1.05-.05-.05h-.05m-.35.1-.05.05h.15v-.05h-.1M6.95 19.35l-2.8 1.3v-.75l.15-.15 2.65-1.9v1.5" fill="#d5916c" fill-rule="evenodd" transform="translate(35.9 41.5)"/><path d="m30.85 7.25 5.85-.95 2.7-1.25-1.7-.55-6.25-3-.6.1m0 5.65-4.4.65-5.25-3.45V3.7l9.65-2.1M58.5 26.95l-.4 1.25-.4 1.1m8.65 33.95.1.4m.2.65.05.3m-31.55-.55L35 64M12.4 41.5v-1.1m10.7-24.5 1.2.8.35.25.3.2.65.4M39.25 6.8l1.7-.65M46.1 23.2l1.55.7m.1.05.2.1h1.5m.25 0h1.75l1.45-1.2m.05 0 1.75-1.35 1.6-1.25.15-.15m-5.75-6.05 7.05-3.55.9-1.35-10.6-3.75m2.65 8.65-1.5.7-9.35-3.65-1.95-2.05 9.95-3.75.2.1m4.9 17.55-.05.65m.95 5.15.85-7.25m-1.75 1.35v.1m-.25 2.3.2-1.65m2.8 1.95-.05-.05-.25 1.65h.1l1.4.65-1.65 1.05-.35.25-1.15.75-.1.1m2.4-7-.4 2.55m-1.8 3.25-.1 1.1M47.5 9.75l-.15 1.05m-10.8 6.65-.65 1.15 1.25.55.15.05.65.3 1.2.55m1.75.8.9.4.05.05.2.1.25.1 1.35.6 1.2.55 1.25.55m-17.15-5.25 1.75-.5 3.55-1 .75-.2 2.6-.75.45-.85-5.15-5.5 6.35-2.35m-2.1 12.35-.95 7.4h.1l.8-.3m-6.4-8.8v1.25m1.6 9.2 1.4-.5.55-10.95m-5.3 1.5-.45.15h-.45m1 10.9 1.15-.4.2-.05.25-9.35v-.1m.15 9.3 1.5-.5m-4.65-9.8h-.75l.8 10.95.4.3.6-.2.35-.15m7.15-2.45-.6.2-1.9.65m4.35-1.45.25-1.35.1-.65m-.1.65 2 .55-2.25.8m-10.25 5.2.2-.2h1.7l.3.25 1.55 1.15.15-.1 4.1-2.3 1.25-.65m.2-.15 3.05 1.65-1.7-3 1.95-.7m.4-.65.5-.8.2-.3-.1-.45m.3 1.75.2 1.1.3 1.8.9.35-1.45-8.65m3.1 1.8-.05-.4m1.1 8.2 1.9.7m-4.4-1.6 1.85.7.6.2-1-7.75m-7.3-7.6-1.05 1.95m11.55 14.2-.25-.1m-4.4-1.6-.2-.05m-4.2 4.05 1.25-3.15m2.05-1.25-1.7-.6 1.4-1.2m-2.6 10.8.85.3 1.65.65m.2.05 4.9 1.9-.1-.1m-8.7-1.2V38.5m0-.35v-.05l1.2.45m7.65-2.35-.1-.1-1.8 2.55v1.25l1.75 1.45m.2.5.1.2.45 1.55.25.75.05.3m2.95-8.7L49.2 37.6l-.05-.05M47.1 36.2l2.05 1.35m-3.95 1.1-6.15-4.7h-3.2l-3.75 6.7.15.15m3.85 3.7v2.85l.05.05m-4.6-15.05-1.5.8-1.7 3.7.05.1 1.55 3.8m.05.95-1.7 1.05m1.7 4.6 1.4 1.7v4.1l2.5-.9 3.7-1.35m.9-.35.15-.05.55-2.4-1.4.6-1.65-1.3m-.05-2.9v-.2l-.4-.35m-.75-.7.75.7m-2.95-2.7-.5-.45m-2.25.9.65-.4v-1.35l2.1 1.3 2.2 2m-5.35 3.6.4.5m-2.05-2.45 1.65 1.95m17.55-5-.1-.4m-3.25 4.7 1.8-.8 2.35-1M56 48.9l1.55-.1M50 46.1l-.15.15-1.65-.9-.2-.7m-7-3.35-1.8-.8m3.25 6.2.25-.1m-.7 3.5.1-.1 12.6-1 1.3-.1m-13.55-2.2-3.25 1.4m2.8 2 .45-3.4m20.9-7.75.35.45.05.05-2.85 2.05m-7.35.9-.6-.05 9.55-4.65.4.55.45.7m-2.8 4.25-7-.8M52.1 30.9v.05l.95-.65m-3.35 1.9.3.15 2.1-1.4m-2.45 1.25h.05v-.25m-.05.25-.2-.05-1.35-.5m2.85 4.3.15-.15.95 1.7m1.25 2.25-1.25-2.25m.1 6.05-.1-.05v.45m.1-.4 8.15 3.55 2.85 1.25M51.8 42.6l.25-1.25 1.25-1.6 7.3-4.85m-8.55 8.6-.25-.9M50 46.1l.65-.5.7-.5.4-.3.3-.25v-.45m-2.4 8.75-13.4 5.35m24.6-9.65.75-.05 3.7 5.45m-5.95-5.3h.05m.3-.05 1.15-.05-.55-1.45m-4.9-19.95-.15 1.7m-2.55-3.6-.6 5.65m-2.4-6.85v7.9M25.8 17.7l.55.4h.55m-1.4 9.5 1.85 1.25m-2.95-2-2.1-1.45h.4l.5-.2m.95-.4-.1-.85m.95 1.6-.85-8.95m1.2 10.9-.15-.1-.8-.55-.25-2.05m1 2.4.05.2m-.2-1.85.15 1.65m.2.3.15.1m2.2 1.45-.35-.2m-2.05 2.2h-.95l-.7.75-.2.2-.1-.1-1.85-1.75m2.2 1.6-2.75 3.05.15.65.25.9 1.1 4.25.35 1.15 2.95-.1-.45-.55-.35-2.7m.35-7.35h.1l1.2 1.6 1.2-1.5m-2.45 3.05 1.25-1.55M15.25 47.1l.75.2m.35.05.45.15m.75.15.25.1.3.05.3.35.05.05m.45.55.5.55 1.25 1.5.05.05.3.95 1.1 3.6V57l3.5-1.45.6-.25-.35-5.15m-10.75-4.2-.3-.1-2.65-1.2-3.65 1.2h1.95l3 .75.65.2 1.15.3m2.3.55-.75-.15m-.45-.15L16 47.3m3.8-3.3-7.4-1.55m13.85-.2.95 1.2 1.1-.7m-2.05-.5-.5-.6m2.05 3.1-.15-.2-12.75-3.1M17 39.6l2 1.95h1.75l.3-.15 1.4-.8m-3.55 8.15-.45-.55m1.8 9.55L22.1 57m4.95-2.05.45-.2 2.1-5.55-7.1-3.95 2.6.35m-16.6.25L6.45 47.2m19.75 8.1.85-.35m-12.9 5.3h.05l5.95-2.45m-7.05 2.35 1.05.1m-9.45-1.1 8.4 1M.35 55.55l2.6 3.4.8.1m57-1.6.7-.05 3.8 2.95 1.45 1.1M61 58.6l-.25-1.15-16.45 1-.25.05H44l-.5.4-.65.45v1.3m19.8 6.45L61 58.6m-23.5 4.8-.25 1.8v.05m28-4.9 1.05 2.7m-9.75 9 .55-.35 5.6-3.25M47.5 71.2l6.2 2.5h.05l2.8-1.65m-9.05-.85-4.65-1.9v-8.65m-2.8.75-2.5 1.8-.05.2m-2.2.75 1.75.9m25.6 2.05.25 1.2-.2.15m3.15-12-8.9-2.15m-14.1 5.05-2.65 1.9m-5.55-5-.25.2.5.45m3.05-3.45-3.1 2.6m2.7 7.15-.6.4m-.7-1.55 6.25-4.35m-3.85-7.2-.7 2.95L42 50.1m-14.5 4.65 3.9-1.6" fill="none" stroke="#3e2f7b" stroke-linecap="round" stroke-linejoin="round" stroke-width=".05"/><path d="m23.1 15.9-3.25-2.2 1.6-5.15-3-5.45L32 .35l9.6 4.55-.65 1.25 8.1-3 13.8 3.95-.2.45-2.9 5.95 1.7 2.7-5 3.9v.05l-.05.2v.05l-.35 2.55-.35 2.6 2.95 1-.15.4-.45 1.25-.35 1.1 2.9 5.6 2.95-1.95 7.2 6.35.45.45.3.25-4.35 2.85 1.25 2.3.25.5-3.85 3.45-1.65-.75 2.15 5.6.5.8 1.15 1.7h-1.1l3.05 2.7.25.2-2.85 3.7.05.2m.1.4v.05l.1.25.25 1 1.35 5.15-1.45 5.85-12.5 6.7-.15-.1-14.4-5.95-2.4-5.45v-5.9l-.05-.05-1.9-1.05-.15-.1m31.55.55.1.35M35 64l-.15-.1 1.4-1.85-3.3-1 .1-.05.25-.2 2.95-2.6-1.35-1.3-3.5.85-1.25-.4h-2.4l-1.1 2.9-11.55 6-11.9-1.6-2.85-3.3v-6.8l.85-2.95.3-1.15 4.95-3.25.85-3.75 5.1-1v-.95m0-1.1 2.5 1.05L17 39.6l-1.65-1.7-.3-.25.35-.35 1.85-1.95.05-.05-2.35-3.7-.05-.1.1-.15.05-.1 2.7-2.95 3.75 1.85.5-2.4-2.05-2.45 4.1-1.35-.95-8.05m16.05 4.15 1.75.8.65 4.05-3.15-.95.75-3.9m1.8 6.4.5-.8.2-.3.2 1.3-1.3.45.4-.65m-3.9 38.6.15.15h.05" fill="none" stroke="#97351e" stroke-linecap="round" stroke-linejoin="round" stroke-width=".75"/></g></defs></svg>