<svg viewBox="0 0 77.1 88.75" xmlns="http://www.w3.org/2000/svg" xmlns:xlink="http://www.w3.org/1999/xlink"><use transform="translate(.03 .02)" width="77.05" height="88.7" xlink:href="#a"/><defs><use width="77.05" height="88.7" xlink:href="#b" id="a"/><g id="b"><path d="m-14.8-39.1 3.55 2.65 10.4-1.05 2.7-2.85-3.45-2.5-10.1.75-3.1 3m-4.5 1.6-.25-1.55 7.95-4.4 10.95-.9 3.75 3.9-4.2 4.25-10.55.85-7.65-2.15m25.05-1.3 2.55-1.4 12.6-1.05 6.05 4.15-.1 2.35-4.55 4.25-12.55 1.55L0-32.55l-1.55-1.95-.05-.25 7.35-4.05m20.8 9.5 1.95 1.65-2.25.45-6.95 6.65 7.6-4.75q-.3 1.05.2 2.2l.15.7-2.65-.2-2.5 2.95-3.1-.7h-.05q-1.55-.45-3.05-1.1 1.5.65 3.05 1.1H19l3.1.7 1.25.2 2.2.2h1.15l-1-.95v-.55l.7.05 2.15 1.4-4.1 1.75-9-1.75 9.65 2.65 1.15-.15.7 2-6.05-1.45-9.05-3.55q-.05-1.85.65-3.45L14.7-22l-2.2-1.25q-.7 1.6-.65 3.45l.05 1 .05.5.8-.4h.05l.05-.05h-.05v-.1l.35.25L15-17.2l-4 3.55-.45 1.2-.3-.55-4.9 4.4 10.7-7.85.65.5L8.15-7.8l-5.2 2.2H2.8l.1-.65v-.5l.15-1.7 4.4-3.9-3.25 2H1.65l1.4-.8L5.2-12l2.75-2.45.6-.4.05-.05.3-2.25q.5-.65.6-1.35l-3.9 1.3q-.15-2.15.05-4.1v-1.05 1.05q-.2 1.95-.05 4.1l.05 1.25v2.05l-.85-1.7L5-17l-3.2 1.1q-.15-.1-.25-.15l.7-2.05-.9-1.85.65-.55h.6l2.2-.6q.35 2.15.2 4.1.15-1.95-.2-4.1v-2.8l-2.75-2.5-2.15 1-.05-.05.5-3.4.25-2.3 1.25.9.2.5-.6.55.9.2 1.75.35 3.5 2.55.8-.9h.8l-1.05 1.7 1.25-.85.85-.75-1.8 3.35.5 4.2.35-.45v-2.65l1.6-2.15 1.15.95.45.4-.45-.4 3.3-2.15 3 .15-4 2.3 5.55-1.9.1-.15v-.35l1.65-1.8.6-.45-2.3 4.1 6.6-5.4M25.4-12.85h.95q-.8 2.8.85 4.75l-.95.45-.9.45-.8 1.4.25 4.25 2.5-1h2.05l-1.25 1.5q.15.45.45.65l-.5.55-.45.6 3.1 9.7H33l2.55 1.75-1.1 3.25 4.1 6.85-.9 9.9-11.5 12.15H10L-1.5 32.2l-.9-9.9 3.25-5.35-12.8 7.55-14.9 1.4-10.5-5-1.15-4.2v-6l2.4 5.15 4.5-6.45.25.2q.3.25.8.35l.65.15h.05v-.15L-28 9.4q1.1-.7 1.6-1.65.5-1 .05-1.75t-1.5-.8q-1.15-.1-2.25.55-1.15.65-1.6 1.65-.4.7-.25 1.35-.3-.85.2-1.85l1.35-1.6.65-.45-1.9-3.95 1.9-2.15h1.5l2.3 2.15-3.15.2.7 3.15-.7.3-.65.3.65-.3.7-.3 1.45-.15q1.4.1 1.95 1.05l.2.55 17.05-3.2 5.55 1.7 4.35-2.4L1.9-.45l2.05-1.4v1.2L5-.25h.75l7.75-2.4.25-.2H9.4Q6.65-4.25 3.95-5.6l3.4-.55 2.1-1.75.65.8h7.15l1.25-2.6 1 .85 1.85-1.5L22.7-8.4l2.2-2.45.65-.65-.3-.7.15-.65M-16.5-3.1l-1.55-.55-.25-1.85 1.75-.75 5.4-1.2-3-1.55h2.5l1.55-1.1q.9-.85 1.35-2.3l-.15-.2-4.5 2.1-5.15 1.4 1.15-1.65v-.05l3.15-.7 4.5-2.25-3.45 1.25h-5.1l-.05-.05 1.7-1.45h3.55l.9-.45 3.45-1.75 2.6-1.3 1.55-.75-1.55.75-6.9-.35h-.25l-6.1-2.5 1.15-2.45-.05-.05.4.25-.15-.85v-.8l-1.1-1.1-.1-.25 1.2-.95v-4.65l1-.9h.75l-1.5 1.6.5.95-.5-.95 1.5-1.6h-.75l-.5.45-1.85-.4-.2-.3 2.15-3.6 3.05 2.2h.45v.8l.3-.25.6-.55.15.2-2.15 2.8.75 3.9-.3.35-.7-1.4-.75-1.4v-1.85l-.6 1.95.7 2.15-1.35-2.5-.25 4.55v1.3-1.3l3.1 1.1-.55 1-.3.4 2.4 1.85v-.15l1.7 1.4 6.6 1.15.15-.1.9-1.25-6.85-.5-2.3-1.4.7-.9.05-.1.8.75 5-3.05 1.35-1.6 4.5-5.4.25.2-4.35 6.2 3.8-3.95-3.5 5.9L-9.9-21l2.3.15 4.7.35-.65.9.65-.9 2.4-4.25L-1-19l-2.25 4.15-1.3-1.85-.2.2-1.65 1.25 1.05.85-1.05-.85 1.65-1.25 1.6 3.85-.4 4-1.2-.15 1.2.15.35.05.65-2.1.7-2.15.1-.35-.1.35-1.35-1.95 1.45.65v.95l.05 1.25.3 4-.3-4 1.4-.5.65.3H.4l-1.8 4.2.05.7.55 3.5-.5.3-.55.25.1-1.05-.1 1.05.55-.25.15.3-.7-.05-3.05-.85-.75.65-.05-4 .05 4 .75-.65 2.8-2.35-2.8 2.35 3.05.85.7.05.3.55-2.5 1.1-3.5-.8-.55 1.65q-.35-1.15-1.35-.8l-1.25.6-6.5-2.25m-.65-13.2-1.75-.7 1.25-1.6 4.65 2.05-2.6 1.3-1.55-1.05M20.8-39.5l-12.55 1-3.95 3.75 4.45 3.3L21.8-32.8l3.35-3.55-4.35-3.15M-29.35.2l.25.9-.25-.9m4.55 6.4-.05.2-.25.5q-.6 1.25-2 2.1-1.4.75-2.75.7l-2.1 7.45h17.8l10.4-4.4 3-6.6-2.55.6-4.45-1.8L-24.8 6.6v-.9.9M-1.3-33l.1.55.4.3-7.5 1.3 5.2.75-2.05 1.55-3.1.55-3-1.15.05-.65 4.25.6-4.55-1.5h-.05l.65-.8-.6-.65 3.55.15 5.95-.5.7-.5m16 11 1.2.55L17.65-23l-2.95 1m5.2-3.25-.55.75-1.7 1.5 1.7-1.5.55-.75M24.55-5.8l-.2-2.6H22.7h1.65l.2 2.6m-.95 4.45-.25-3L24-6.5l-1.3-1.9L24-6.5l-1.3 4.3-1.55-.25-.7 1.4h-.25l-.2-.8V-5.6l-1.8-1.7-1.05 1.25L18.2-7.3 20-5.6v3.75l.5 2 .7 2.6-.7-2.6 3.1-1.5.25 2.95-.25-2.95m1.4 2.8.45 7.2-.9.45-.7-7.5-2.65 1.15.15.55-2.85 2.45-1.6-.95-1.5.2-5.95-2.05-3.2.8.2 8.85.45.15 8.3 7.6q1.15-1.1 2.75-1.05 1.6 0 2.75 1.15l.4.45 8.25-7.55.45-.15-4.05-12.1-.75.35-.2-3 .2 3M20.55-8l-1.05-.85 1.05.85m-3.3.9-.35.8.25.25-1.35 1.6-2.05 1.6 2.05-1.6 1.35-1.6-.25-.25.35-.8M16.9-.6V-4l2.2-2.45.2 4-.2-4L16.9-4v6.6l1.5 1.35 1.15-1.8L19.5.6l.05 1.55-1.15 1.8-1.5-1.35V1.05L19.5.6l-.2-3.05L16.9-.6m4.95-3.2-.7 1.35.7-1.35M15.8-.15 14.9.9h.9v-5.35 4.3m1.1 4.95-1.1-.7V.9v3.2l1.1.7m-2-3.9-.25.3-2.5 1.05-2.7.7 2.7-.7 2.5-1.05.25-.3M28.05.15l-2.3.95 2.3-.95M6.7-25.2l-3.2-2.15 2.15 2.6.4-.45h.7l.85-.9-.85.9H6.7m-1.05.45-.85.55v.3-.3l.85-.55m-12.05 9.5-1-.8L-9-12.7l.1.1-.1-.1 1.6-3.35 1 .8m4.65 8.6-.05-.4Q-2-8.9-2.55-10.7q.55 1.8.75 3.65l.05.4-.35.25-.35.9.7 1.25v-2.4m9.6-13.9.8 1.55.3-.35-.3.35-.8-1.55-.75-1.5-.2-1.1v-1.15l-1.65.75H5.2l-.1.1.55 1.1 1.6 2.9.6-1.1m1.45.75.2 1.3-.2-1.3m1.7 6.15q.75-1.9.95-1.3-.25-1.85 0-3.15v-.2.2q-.25 1.3 0 3.15-.2-.6-.95 1.3m1.8-5.05h-.05.05m-1.5 1.3v-.5.05l-1.1.5 1.1-.55v-4.9l-1.1 4.4 1.1-4.4v4.15l-1.1.25-.3 1.15-.35 1.4-.1.25 1.2 1.1.65-1.9v-1 1l-.65 1.9-1.2-1.1.1-.25 1.75-1.55M10.25-13q-1-1.9-1.7-1.85.7-.05 1.7 1.85M5.2-23.55l1.55-1.65-1.55 1.65m-21.5-8.55 1.45-1.65h.45-.45l-1.45 1.65m1.4-.05.95-.8-.95.8m2.25 9.2-.2.45q-1.5.55-.95-1.2l.05-.05 1.1.8m-4.85.6.2 2.75-.6-3 .6 3-.2-2.75 3.45 2.2-3.5-3.55.05 1.35m6.35.6.8.7.45.05-.45-.05-.8-.7m-6.9-4.8v2.3-2.3m11.5 17.4-.3-.55-.65-1.1-.45-.65.45.65.65 1.1.3.55-.1-.65-.15-1.2q-.2-1.1-.7-.95l-.45.5-1.05 1.1 1.5-.45-1.5.45 1.05-1.1.45-.5q.5-.15.7.95l.15 1.2.1.65.05.5.15 4.45-1.15 1.75q-.85-.25-1.5-1.3v-6.6 6.6q.65 1.05 1.5 1.3l1.15-1.75-.15-4.45-.05-.5m-3.55-.95.2 1.65-1.25 1 1.25-1-.2-1.65M3.95-.65l-.55-.2.55.2M-9.9-8.45q.2 2.6-.2 5.05 1.15.9 1.35 1.95-.2-1.05-1.35-1.95.4-2.45.2-5.05m5.75-1.75.15-2.1-1.9 2v-1.65l-1.75-1.7-1.1 1.25 1.1-1.25 1.75 1.7v3.75l.2.8h.25l.7-1.4.55-1.05.05-.35m-1.5 6.8q-.8.35-1.2 1.1.4-.75 1.2-1.1M5.6 16.1l-3.7-.9L0 12.75l1.45-2.9H3.1l1.05-4.5.25-1.15 1.85-.45-1.85.45-.25 1.15-1.05 4.5-.3 1.5 3.65 1.25-3.65-1.25.3-1.5H1.45L0 12.75l1.9 2.45 3.7.9-4.05 6.05 2.2 6.15L16 37.65l1.15-10.6q-1.15-.2-2-1.05Q14 24.85 14 23.2l.2-1.15-6.95-5.55-1.65-.4M2.15 1.8l.3 2.25 1.7 1.3-4.9 1.2 4.9-1.2-1.7-1.3-.3-2.25M.85 16.95 1.9 15.2.85 16.95M-6.85-9.7-9-8.8l2.15-.9M15.2 20.35l-.05.1q-.7.7-.95 1.6.25-.9.95-1.6l.05-.1m16.45-3.9 2.65-.7.15-.3-.15.3-2.65.7-2.7.65-7.15 5.6.05.5q-.05 1.65-1.15 2.8l-1.1.75 2.1 10.8 10-9.5L35.2 22l-3.55-5.55M18.3 27.15l1.3-.4-1.3.4q.8-.1 1.4-.85.7-.8.7-1.95t-.7-1.95-1.65-.8q-1 0-1.7.8t-.7 1.95.7 1.95q.65.8 1.6.85h.35m-1.15-.1.8.1-.8-.1M29.8 13.2l1.6-.55 2.05-.7-2.05.7-1.6.55m-8.7 7.7q.55.8.7 1.8-.15-1-.7-1.8m9.6-10.45.7 2.2-.7-2.2" fill="#f3da85" fill-rule="evenodd" transform="translate(38.5 44.35)"/><path d="m-14.8-39.1 3.1-3 10.1-.75 3.45 2.5-2.7 2.85-10.4 1.05-3.55-2.65m35.6-.4 4.35 3.15-3.35 3.55-13.05 1.35-4.45-3.3 3.95-3.75 12.55-1" fill="#442515" fill-rule="evenodd" transform="translate(38.5 44.35)"/><path d="M-.65-44.35h.15l6.4 3.8-.15 1.75-7.35 4.05.05.25L0-32.55l9.75 3.6L22.3-30.5l4.55-4.25.1-2.35-6.05-4.15 1.35-.1 7.95 4.75-.3 2.95-2.3 1.7-1.1 2.6.05.05-6.6 5.4 2.3-4.1-.6.45-1.3 1-4.4.4 4.4-.4 1.3-1-1.65 1.8v.35l-.1.15-5.55 1.9 4-2.3-3-.15.6-.35-4.4.4-1.2-1.25-.1.1.1-.1 2.4 2.5-.7.85-1.15-.95-1.6 2.15v2.65l-.35.45-.5-4.2 1.8-3.35-.85.75V-27h-.2.2v.85l-1.25.85L9.2-27h-.8l-.8.9-3.5-2.55-2.25-1.6-1.25-.9-.65-.45.65.45-.25 2.3-3.7 6.3-4.25 1.7-2.3-.15 5.8-2.45 3.5-5.9-3.8 3.95 4.35-6.2-.25-.2-.5-.35.5.35-4.5 5.4-3.1.3-3.45-1.8q-.1 2.45.2 4.85l-.8.55-.05.1-.7.9 2.3 1.4 6.85.5-.9 1.25-.15.1-6.6-1.15-1.7-1.4.2-.7-.2.7v.15l-2.4-1.85.3-.4.55-1q.55-1.4.4-3.35l-.25.4-.75-3.9 2.15-2.8-.15-.2-.6.55-.3-.2v-.35h-.45l-3.05-2.2-1.8-1.3-.05-.25 7.65 2.15 10.55-.85 4.2-4.25-3.75-3.9m29.15 16.7h.05q-1.35 1.1-1.65 2.35l-7.6 4.75 6.95-6.65 2.25-.45m-1.25 5.25-.05.2-.15.1-.6.2-.05.05-.7.55-2.35 1.85-1.25-.2 2.5-2.95 2.65.2m1.3 3.1.1.05-2.5 2.15.1.3-1.15.15-9.65-2.65 9 1.75 4.1-1.75m-1.6 4.5v.05l-1.55.25-.05.05-.65.05q-3.15.2-6.05-1.15L9.45-7.9l-2.1 1.75-3.4.55h-1 1v1L.3-3.05l-1.15.45-.3-.55-.15-.3.5-.3-.55-3.5-.05-.7 1.8-4.2.8.4 1.85.6-1.4.8H4.2l3.25-2-4.4 3.9q-.15-.7-.65-1.2l-3.75 2.4 2 1.2 2.25-.2-.1.65h.15l5.2-2.2 8.55-8.15-.65-.5L5.35-8.6l4.9-4.4.3.55.45-1.2 4-3.55-1.85-1.4 2.05 1.2 1.2.7.7.35q1.4.75 1.55.8-.15-.05-1.55-.8l-.7-.35-1.2-.7-2.05-1.2-.35-.25v.1l-.1.05h.05l-.8.4-.05-.5-.05-1 9.05 3.55 6.05 1.45m-43.5 6.4q-.35.3-2.05-.6l.05-.1 5.15-1.4 4.5-2.1.15.2q-.45 1.45-1.35 2.3L-11.65-9h-4.9v.6m-.85-2.4-.9-1.7h5.1l3.45-1.25-4.5 2.25-3.15.7m-.25-7.8-1.8-1.65.05-.1 6.1 2.5h.25l6.9.35-2.6 1.3-4.25-.35-4.65-2.05m-.65-4.25-.05-.2-.8-2.3 1.1 1.1v.8l.15.85-.4-.25m.25-7.25-1.35-1.95 1.85.4-.5.45v1.1M-1.3-33l-.25-1.5.25 1.5-.7.5-5.95.5-3.55-.15.6.65-.65.8h.05l4.55 1.5-4.25-.6-.05.65 3 1.15 3.1-.55 2.05-1.55-5.2-.75 7.5-1.3-.4-.3-.1-.55m28.9 1.05L22.25-28l5.35-3.95m-2.05 12.7.1-.2.05-.4v-.35l1 .95h-1.15m-19.9-5.5-2.15-2.6 3.2 2.15h-.65l-.4.45M2.35-29l-.9-.2.6-.55.3.75m-2.5 3.55.05.05 2.15-1 2.75 2.5v1.25l-1.95-1.6-1.05.45v2.25q.7.15.75.5l.05.55H2l-.65.55.9 1.85-.7 2.05q.1.05.25.15L5-17l-.2 1.4-1.75.35-1.8 1.55-2.2-1.3 2.75-6.55L-.95-15l-.8 1.8v-.95l-1.45-.65-.05-.05.05.05 1.35 1.95-.7 2.15-.65 2.1-.35-.05.4-4-1.6-3.85.2-.2 1.3 1.85L-1-19l.5-5.75.35-.7M1.8-15.9l1.25.65-1.25-.65m-3.55 9.25v2.4l-.7-1.25.35-.9.35-.25m9.6-13.9-.6 1.1-1.6-2.9-.55-1.1.1-.1h.05l1.65-.75v1.15l.2 1.1.75 1.5M5.6-17.2l3.9-1.3q-.1.7-.6 1.35l-3.25 1.2-.05-1.25m4.3-.05.3-1.15 1.1-.25v.75l-1.1.55-.3.1m-10-8.15 1.9 1.6-1.9-1.6m-15.85-1.65-.7-2.15.6-1.95v1.85l.75 1.4-.6 1-.05-.15m3.8-4.15-.45-.35-1.45 1.9v2.4-2.4l1.45-1.9.45.35m.65-.95-1.4-1.4 1.4 1.4m.3 2.35.05-.55-.35-.35.35.35-.05.55m-1.05 1.75v-1.9l-1.55 6.15v.1q-.55 1.75.95 1.2l.2-.45.4-1.25v-3.85m.9.15.1-1.25-.1 1.25m-6.15 5.55-.05-1.35 3.5 3.55-3.45-2.2M2.4-9.65l-.8-.7h.05-.05l.8.7m-8.3-.65 1.9-2-.15 2.1-.05.35-.55 1.05-.7 1.4h-.25l-.2-.8v-2.1M.3-3.05l-1.45-.1 1.45.1" fill="#da8a50" fill-rule="evenodd" transform="translate(38.5 44.35)"/><path d="M25.7-21.3v1.45l-.05.4-.1.2-2.2-.2 2.35-1.85m-.3 6.85v1.6l-.15.65.3.7-.65.65.35-1.35-.35 1.35-2.2 2.45-1.35-1.95-1.85 1.5-1-.85-1.25 2.6H10.1l-.65-.8 9.2-7.65q2.9 1.35 6.05 1.15l.65-.05h.05m-.05 7.25 1.6 4.65h.35l-2.5 1-.25-4.25.8-1.4M-38.5 10.7l2.75-7.4 4.1-2.4 1.9 3.95-.65.45-1.35 1.6q-.5 1-.2 1.85l.2.4.15.25-4.5 6.45-2.4-5.15M-25.95.9l1.7-.1 7.75-3.9L-10-.85l1.25-.6q1-.35 1.35.8l.55-1.65 3.5.8 2.5-1.1L.3-3.05 3.95-4.6v2.75-3.75q2.7 1.35 5.45 2.75h4.35l-.25.2-7.75 2.4H5l-1.05-.4v-1.2L1.9-.45l.25 2.25-4.35 2.4-5.55-1.7-17.05 3.2-.2-.55q-.55-.95-1.95-1.05l-1.45.15-.7-3.15 3.15-.2m9.4-7.15V-9h2.4l3 1.55-5.4 1.2m-.1-7.75-.5-2.3 1.55 1.05 2.6-1.3 4.25.35-3.45 1.75-.9.45h-3.55m-13.2 24.1q1.35.05 2.75-.7 1.4-.85 2-2.1l.25-.5.05-.2 17.05-1.25 4.45 1.8 2.55-.6-3 6.6-10.4 4.4h-17.8l2.1-7.45m31.7-40.35 2.25 1.6L2.35-29l-.5-1.25m9.7 4.5 4.4-.4-.6.35-3.3 2.15.7-.85-1.2-1.25m6.1 2.75-1.75 1.55-1.2-.55 2.95-1m5.7 18.65.25 3-3.1 1.5-.3-1.2h.25l.7-1.4 1.55.25.65-2.15m.5 5.95.7 7.5.9-.45-.45-7.2.75-.35 4.05 12.1-.45.15-8.25 7.55-.4-.45q-1.15-1.15-2.75-1.15-1.6-.05-2.75 1.05l-8.3-7.6-.45-.15-.2-8.85 3.2-.8L15.4 5l1.5-.2 1.6.95 2.85-2.45-.15-.55 2.65-1.15M16.9-.6l2.4-1.85.2 3.05-2.6.45V-.6m-1.1.45V.9h-.9l.9-1.05M.35-28.85l-.5 3.4-.35.7-2.4 4.25-4.7-.35 4.25-1.7 3.7-6.3M4.8-21.1l-2.2.6-.05-.55q-.05-.35-.75-.5v-2.25l1.05-.45 1.95 1.6v1.55M-.95-15l2.2 1.3 1.8-1.55v4.1-4.1l1.75-.35.85 1.7v-2.05l3.25-1.2-.3 2.25-.05.05-.6.4L5.2-12l-2.15.85-1.85-.6-.8-.4H.35l-.65-.3-1.45-.75 1.45.75-1.4.5-.05-1.25.8-1.8m12.25-2.85v.45l-1.75 1.55.35-1.4.3-.1 1.1-.5m-8.25 9.4-.15 1.7v.5l-2.25.2-2-1.2 3.75-2.4q.5.5.65 1.2M-4.8-26.4l-1.35 1.6-5 3.05-.8-.75.8-.55q-.3-2.4-.2-4.85l3.45 1.8 3.1-.3m-11.15-.65.05.15.6-1 .7 1.4.3-.35.25-.4q.15 1.95-.4 3.35l-3.1-1.1.25-4.55 1.35 2.5m3.7-1.1v3.95l-.4 1.25-1.1-.8-.05-.05 1.55-6.15v1.8m.05 13.7-2.1-1.45 2.1 1.45M5.6 16.1l1.65.4 6.95 5.55-.2 1.15q0 1.65 1.15 2.8.85.85 2 1.05L16 37.65 3.75 28.3l-2.2-6.15L5.6 16.1m26.05.35L35.2 22l-3.5 6.05-10 9.5-2.1-10.8 1.1-.75q1.1-1.15 1.15-2.8l-.05-.5 7.15-5.6 2.7-.65" fill="#0e8976" fill-rule="evenodd" transform="translate(38.5 44.35)"/><path d="M-31.95 8.75q-.15-.65.25-1.35.45-1 1.6-1.65 1.1-.65 2.25-.55 1.05.05 1.5.8t-.05 1.75q-.5.95-1.6 1.65l-1.85.55h-.7q-.5-.1-.8-.35l-.25-.2-.15-.25-.2-.4m50.25 18.4h-.35q-.95-.05-1.6-.85-.7-.8-.7-1.95t.7-1.95 1.7-.8q.95 0 1.65.8t.7 1.95-.7 1.95q-.6.75-1.4.85" fill="#97351e" fill-rule="evenodd" transform="translate(38.5 44.35)"/><path d="m23.7 5.25 3.55 2.65 10.4-1.05L40.35 4 36.9 1.5l-10.1.75-3.1 3m-4.5 1.6-.25-1.55L26.9.9 37.85 0H38l6.4 3.8-.15 1.75 2.55-1.4L59.4 3.1l1.35-.1 7.95 4.75-.3 2.95-2.3 1.7L65 15l.05.05L67 16.7h.05q-1.35 1.1-1.65 2.35-.3 1.05.2 2.2l.15.7-.05.2-.15.1-.6.2-.05.05-.7.55v.55l.7.05 2.15 1.4.1.05-2.5 2.15.1.3.7 2v.05l-1.55.25v1.65h.95q-.8 2.8.85 4.75l-.95.45-.9.45 1.6 4.65h2.4l-1.25 1.5q.15.45.45.65l-.5.55-.45.6 3.1 9.7h2.3l2.55 1.75-1.1 3.25 4.1 6.85-.9 9.9-11.5 12.15H48.5L37 76.55l-.9-9.9 3.25-5.35-12.8 7.55-14.9 1.4-10.5-5L0 61.05v-6l2.75-7.4 4.1-2.4 1.9-2.15h1.5l2.3 2.15 1.7-.1 7.75-3.9-1.55-.55-.25-1.85 1.75-.75v-2.15q-.35.3-2.05-.6l.05-.1 1.15-1.65v-.05l-.9-1.7m-.05-.05 1.7-1.45-.5-2.3-1.75-.7 1.25-1.6-1.8-1.65.05-.1 1.15-2.45-.05-.05m-.05-.2-.8-2.3-.1-.25 1.2-.95v-3.55L19.1 12.3l-.2-.3 2.15-3.6-1.8-1.3-.05-.25m40.1-2L63.65 8l-3.35 3.55-13.05 1.35-4.45-3.3 3.95-3.75 12.55-1M9.4 45.45l-.25-.9m.95 4.05-.7-3.15 3.15-.2m-5.7 0 1.9 3.95.65-.3.7-.3 1.45-.15q1.4.1 1.95 1.05l.2.55 17.05-3.2 5.55 1.7 4.35-2.4-.25-2.25 2.05-1.4v-2.75L38.8 41.3l-1.15.45-2.5 1.1-3.5-.8-.55 1.65q-.35-1.15-1.35-.8l-1.25.6-6.5-2.25M8.75 49.2l-.65.45-1.35 1.6q-.5 1-.2 1.85-.15-.65.25-1.35.45-1 1.6-1.65 1.1-.65 2.25-.55 1.05.05 1.5.8t-.05 1.75q-.5.95-1.6 1.65l-1.85.55v.15q1.35.05 2.75-.7 1.4-.85 2-2.1l.25-.5.05-.2v-.9M6.55 53.1l.2.4.15.25.25.2q.3.25.8.35h.7m-.05.15h.05l-2.1 7.45h17.8l10.4-4.4 3-6.6-2.55.6-4.45-1.8-17.05 1.25m-5.1 3.5-.65-.15M0 55.05l2.4 5.15 4.5-6.45m30.05-43.9.25 1.5.1.55.4.3.5.35.25.2.65.45 1.25.9 2.25 1.6 3.5 2.55.8-.9h1v.85l.85-.75.1-.1 1.2 1.25 8.8-.8 1.3-1 .6-.45 5.35-3.95m-11.65 5.8-.6.35-3.3 2.15.7-.85-1.2-1.25m8.35.5.1-.15v-.35l1.65-1.8m-5.75 6.1q1.5.65 3.05 1.1h.05l3.1.7m-4.45-3.35L54.4 22.9l-1.2-.55L51 21.1q-.7 1.6-.65 3.45l.05 1 .05.5.8-.4h.05l.05-.05h-.05l-.1.05h.05m1.95-3.3 2.95-1 1.7-1.5.55-.75m-1.25 9.7q-.15-.05-1.55-.8l-.7-.35-1.2-.7-2.05-1.2M49.5 30.7l-.45 1.2-.3-.55m-7.3 7.4h1l3.4-.55 2.1-1.75 9.2-7.65q2.9 1.35 6.05 1.15l.65-.05.05-.05M51.3 25.5l.35.25m12.55-1.6v.35l-.05.4-.1.2h1.15m-1-1.1v-.4m-2.35 1.3 2.35-1.85m-.15 2.05-2.2-.2-1.25-.2m3.3 5.2h-.05m-.45 3.6.65-.65-.3-.7-.35 1.35-2.2 2.45h1.65l.2 2.6.8-1.4m-.8 1.4.25 4.25 2.5-1M61.85 40l.25 3 .25 2.95.7 7.5.9-.45-.45-7.2-.2-3M61.85 40l.65-2.15-1.3-1.9L59.85 34 58 35.5l1.05.85m-11.1.1.65.8h7.15l1.25-2.6 1 .85m-5.75 6 2.05-1.6 1.35-1.6-.25-.25.35-.8m-13.3 5.25v1.2l1.05.4h.75L52 41.7l.25-.2H47.9q-2.75-1.4-5.45-2.75v1M57.8 41.9l-.2-4-2.2 2.45v3.4m2.4-1.85.2 3.05.05 1.55-1.15 1.8-1.5-1.35v-3.2m.25-5.45 1.05-1.25 1.8 1.7v3.75l.2.8h.25l.7-1.4.7-1.35m-.7 1.35 1.55.25.65-2.15m-2.15 7.1-.7-2.6-.3-1.2m3.65 2.65L59.7 47.1l.15.55L57 50.1l-1.6-.95-1.5.2-5.95-2.05-3.2.8.2 8.85.45.15 8.3 7.6q1.15-1.1 2.75-1.05 1.6 0 2.75 1.15l.4.45 8.25-7.55.45-.15-4.05-12.1-.75.35m-9.2-1.6-.9 1.05h.9V39.9m-6.35 7.4 2.7-.7 2.5-1.05.25-.3m.9 0v3.2l1.1.7m8.85-3.7 2.3-.95m-7.55 0 3.1-1.5m1.65-10.85.15-.65M44.15 19.6l.4-.45h.7l.85-.9m.55.8 1.25-.85m-10.7-6.85-.7.5-5.95.5L27 12.2l.6.65-.65.8m.35.9-.05.65-.1 1.25q-.1 2.45.2 4.85l-.8.55-.05.1-.7.9-.2.7v.15l-2.4-1.85.3-.4.55-1-3.1-1.1.25-4.55-.5-.95 1.5-1.6h-.75l-1 .9v1.1m20.1.35-.2-.5m-.4 1.05.9.2-.3-.75m-1.45-1.4-.25 2.3-.5 3.4.05.05m4.9 1.5v-.3l.85-.55M33.7 17.95l4.5-5.4m-9.6 10.8 2.3.15 4.25-1.7 3.7-6.3m2.25 8.35h-.6l-.65.55.9 1.85-.7 2.05q.1.05.25.15m3.2-1.1q.15-1.95-.2-4.1l-2.2.6-.05-.55q-.05-.35-.75-.5l-2.75 6.55 2.2 1.3 1.8-1.55-1.25-.65m3-6.75-1.95-1.6-1.05.45v2.25m-5.05 6.7.05.05 1.45.65v.95l.8-1.8m-2.6-4.6.65-.9-4.7-.35m3 2.6.15-.1.9-1.25M33.9 26.1l-1.55.75-2.6 1.3-3.45 1.75-.9.45h-3.55m11.9-2.5L32.1 29.1l1.05.85m.6-2.1.2-.2 1.3 1.85m-5.65 2.25-.1-.1 1.6-3.35 1 .8m4.65 2.05-.1.35-.7 2.15q.55 1.8.75 3.65l.05.4v2.4l-.1 1.05.55-.25.5-.3-.55-3.5-.05-.7-.3-4-.05-1.25 1.45.75.65.3m.05 0 .8.4 1.85.6v-4.1l1.75-.35.2-1.4m-7.9-3.5L38 19.6l.35-.7M35.3 29.55l1.35 1.95m10.8-6.5.35-.45V21.9l1.6-2.15 1.15.95.45.4M47.45 25l-.3.35-.8-1.55-.6 1.1-1.6-2.9v1.05q-.2 1.95-.05 4.1m3.9-1.3-.2-1.3m-4.1-3.75-.1.1.55 1.1m-.85-.3v-1.25m0 2.8V21.7m.85 6.7-.05-1.25m-.8 1.6.85 1.7V28.4l3.25-1.2q.5-.65.6-1.35m2.45.2v.2q-.25 1.3 0 3.15-.2-.6-.95 1.3m.3-4.2v1.45l-.65 1.9-1.2-1.1.1-.25.35-1.4.3-1.15 1.1-4.4v4.95m-2.75 3-.6.4-2.75 2.45-2.15.85-1.4.8h-.05l.8.7q.5.5.65 1.2l-.15 1.7v.5l-.1.65h.15M47.4 27.2l-.3 2.25-.05.05q.7-.05 1.7 1.85m1.05-4.4-1.75 1.55m-1.7-4.7-.75-1.5m-5.3-1.75-1.9-1.6m-11.85 2.9.8.75 5-3.05 1.35-1.6-3.1.3-3.45-1.8m18.1 2.7L43.7 20.8m-1.1-5.1-1.75-.35M25.6 10.8l-.15-.2-.6.55-.3.25-.95.8m.5-1.6h-.45l-1.45 1.65m2.35-1.3v-.35h-.45l-3.05-2.2m3.5 3v-.45l.3.2m-2.25 6.3.6-1-.75-1.4m1.75 2.45.25-.4v-2.4l1.45-1.9.45.35m-3.15 3.3.7 1.4.3-.35m1.4-6.7 1.4 1.4m-5.8 2.6 1.35 2.5M27 13.65l.35.35-.05.55m-1.05 1.75v3.85l-.4 1.25-.2.45q-1.5.55-.95-1.2v-.1l1.55-6.15v1.8m-5.8 3.9v.8l.15.85.6 3L21 22l-.05-1.35v-1.3m7.65 4-.45-.05-.8-.7m-1.85 5.2-1.3.65 2.1 1.45m-2.1-1.45-1.3.65-1.55-1.05m8.4.1-4.25-.35-4.65-2.05m3.2-5.3q.55-1.4.4-3.35m-4 3v-2.3m11.5 17.4-.1-.65-.15-1.2q-.2-1.1-.7-.95l-.45.5L29.5 34l1.5-.45m-6.65 1.8h2.5l1.55-1.1q.9-.85 1.35-2.3l-.15-.2m-2.25 5.15 1.25-1-.2-1.65M32 35.7l.15 4.45L31 41.9q-.85-.25-1.5-1.3V34m-7.55 1.95v-.6h2.4l3 1.55-5.4 1.2m7.8 4.8q-.2-1.05-1.35-1.95.4-2.45.2-5.05m13.3 7.6.55.2M36.8 32.4l1.4-.5m2.7 2.8-3.75 2.4 2 1.2 2.25-.2m-7.05-3.95-.05.35-.55 1.05 1.2.15m-2.35-1.65V32.4l-1.75-1.7-1.1 1.25m3.05 5-.2-.8v-2.1m1.15 1.5-.7 1.4h-.25l.05 4 .75-.65 2.8-2.35.35-.25m-.8-4.05-.65 2.1-.35-.05m-3.3 6.35q.4-.75 1.2-1.1m4.5.25 1.45.1m-1.45-.1-.7-.05-3.05-.85m4.15 10.6 4.9-1.2-1.7-1.3-.3-2.25m4.1 1.95-1.85.45-.25 1.15-1.05 4.5-.3 1.5 3.65 1.25M41.6 54.2h-1.65l-1.45 2.9 1.9 2.45 3.7.9 1.65.4 6.95 5.55q.25-.9.95-1.6l.05-.1M29.5 35.55l2.15-.9m8.75 24.9-1.05 1.75m4.75-.85-4.05 6.05 2.2 6.15L54.5 82l1.15-10.6q-1.15-.2-2-1.05-1.15-1.15-1.15-2.8l.2-1.15m20.25-6.6-.15.3-2.65.7 3.55 5.55-3.5 6.05-10 9.5-2.1-10.8-1.3.4h-.35l-.8-.1m14.5-10.6-2.7.65-7.15 5.6.05.5q-.05 1.65-1.15 2.8l-1.1.75m13.85-14.8-2.05.7-1.6.55M56.45 71.5q-.95-.05-1.6-.85-.7-.8-.7-1.95t.7-1.95 1.7-.8q.95 0 1.65.8t.7 1.95-.7 1.95q-.6.75-1.4.85m3.5-4.45q-.15-1-.7-1.8M69.9 57l-.7-2.2M44.25 5.55 36.9 9.6" fill="none" stroke="#3e2f7b" stroke-linecap="round" stroke-linejoin="round" stroke-width=".05"/><path d="M64.2 24.15V24m-23.65-9.4-.6.55" fill="none" stroke="#0f0" stroke-linecap="round" stroke-linejoin="round" stroke-width=".05"/><path d="m55.4 43.75 2.4-1.85m.2 3.05-2.6.45M30.55 32.9l.45.65.65 1.1.3.55.05.5" fill="none" stroke="#867dac" stroke-linecap="round" stroke-linejoin="round" stroke-width=".05"/></g></defs></svg>