<svg viewBox="0 0 65.524 79.16" xmlns="http://www.w3.org/2000/svg" xmlns:xlink="http://www.w3.org/1999/xlink"><g transform="translate(-241.91 -104.25)"><use transform="matrix(-.4079 .0173 .0134 .3684 304.95 103.68)" width="100.85" height="206.85" xlink:href="#a"/><use transform="matrix(.1721 -.0491 .0509 .1685 286.4 116.15)" width="40.05" height="35.25" xlink:href="#b"/><use transform="matrix(-.1107 -.1924 -.2177 .109 295.2 114.3)" width="40.05" height="35.25" xlink:href="#b"/><use transform="matrix(-.1687 -.0572 -.0708 .1555 290.85 109.4)" width="40.05" height="35.25" xlink:href="#b"/><use transform="matrix(-.023 -.1632 -.1815 .0282 281.95 113.6)" width="40.05" height="35.25" xlink:href="#b"/><use transform="matrix(-.0692 -.1504 -.1693 .0695 277.4 112.85)" width="40.05" height="35.25" xlink:href="#b"/><use transform="matrix(-.2365 -.0472 -.0629 .2165 279.05 110.15)" width="40.05" height="35.25" xlink:href="#b"/><use transform="matrix(-.5586 -.0396 .0013 .6265 291.2 108.4)" width="38.3" height="40" xlink:href="#c"/><use transform="matrix(-.2365 -.0472 -.0629 .2165 275.8 115.65)" width="40.05" height="35.25" xlink:href="#b"/><use transform="matrix(-.5881 -.0487 -.0804 .5353 281 142.35)" width="40.05" height="35.25" xlink:href="#b"/><use transform="matrix(.4824 -.0404 .3286 .501 282 139.9)" width="40.05" height="35.25" xlink:href="#b"/><use transform="matrix(-.7998 -.0662 -.1094 .728 286.65 109.35)" width="40.05" height="35.25" xlink:href="#b"/><use transform="matrix(.5325 .0441 .1524 .7496 281 103.75)" width="40.05" height="35.25" xlink:href="#b"/><use transform="matrix(-.7546 .0321 .0247 .6815 292.52 124.66)" width="7.65" height="15.95" xlink:href="#d"/><use transform="matrix(-.7594 -.1007 .0247 .6815 273.29 128.16)" width="7.65" height="15.95" xlink:href="#d"/><use transform="matrix(-.4079 .0173 .0134 .3684 298.82 145.26)" width="76.9" height="32.9" xlink:href="#e"/><use transform="matrix(.3824 0 0 .3826 241.92 104.26)" width="100.85" height="206.85" xlink:href="#a"/><use transform="matrix(-.1627 -.0433 -.0419 .177 259.7 116.4)" width="40.05" height="35.25" xlink:href="#b"/><use transform="matrix(.0971 -.2044 .2075 .1035 251.4 114.8)" width="40.05" height="35.25" xlink:href="#b"/><use transform="matrix(.1559 -.0667 .0716 .1581 255.3 109.6)" width="40.05" height="35.25" xlink:href="#b"/><use transform="matrix(.0159 -.1703 .1708 .0212 263.75 113.5)" width="40.05" height="35.25" xlink:href="#b"/><use transform="matrix(.0596 -.159 .1609 .0646 268 112.55)" width="40.05" height="35.25" xlink:href="#b"/><use transform="matrix(.2198 -.0594 .0662 .2218 266.4 109.85)" width="40.05" height="35.25" xlink:href="#b"/><use transform="matrix(.5216 -.0657 .0201 .6498 254.95 108.55)" width="38.3" height="40" xlink:href="#c"/><use transform="matrix(.2198 -.0594 .0662 .2218 269.6 115.4)" width="40.05" height="35.25" xlink:href="#b"/><use transform="matrix(.5488 -.0764 .0935 .5516 265.65 143.3)" width="40.05" height="35.25" xlink:href="#b"/><use transform="matrix(-.4529 -.0206 -.2906 .5341 264.6 140.8)" width="40.05" height="35.25" xlink:href="#b"/><use transform="matrix(.7464 -.104 .1271 .7501 259.2 109.3)" width="40.05" height="35.25" xlink:href="#b"/><use transform="matrix(-.497 .0692 -.1172 .7841 264.35 103.3)" width="40.05" height="35.25" xlink:href="#b"/><use transform="matrix(.7074 0 0 .7079 254.26 125.47)" width="7.65" height="15.95" xlink:href="#d"/><use transform="matrix(.7074 -.1379 0 .7079 272.41 128.3)" width="7.65" height="15.95" xlink:href="#d"/><use transform="matrix(.3824 0 0 .3826 249.07 147.12)" width="76.9" height="32.9" xlink:href="#e"/></g><defs><g id="a"><path d="M32.95-90.1h7.7l.1 2.9-5.3 41.8-5.8 40.1.9 3.6q1.6 7.25.3 14.5L30 18.45q-.55 4.55-.7 9.15l-.1 3.05 3.45 2.9L36.5 52.6l.4 4.05-5.45.9 5.05-4.95-5.05 4.95L21.4 67.4l-.3.3-6.75 1.3-1.3.25 1.3-.25q-.15 2.9.05 5.85v.2l-.8 1.05q-1.25 1.45-3.2 2.35l-.2.3L.9 84.5l-10.1 1.9-12.35 2.3-26.35-3.15-12.2-4.75.75-1.05q2.5-3.25 3.75-7l.6.1q.4 1.75 1.95 3.25l.05.15q7.65 4.9 16.85 6.3 1.9.25 3.55 1.1l11.8.4q0-.55.6-.4 4.15-2.95 7.4-7.8.6-.9 1.6-1.4l1.2-2.25q-.05 3.8-2.05 8.35l25.1-11.3 3.7-23.6L9 57.85l-.85-.35L5.9 46.95 4.3 39.1q.35 2-.9 3.75l-.55.75q-5.35 6.65-9.9-.7l-.35-.65-.15-.4-.5-1.5-.4-1.6-.7-.8-.1.15-1.5-1.3-11.4 8.15 2.85-7.85-3.8-.25-13.3 8.8-.95.15 8.15-10.25-12.95 6.55.05-2.4v-1.25l.2-2.5.15-1.25.4-2.5.25-1.25.3-1.3q.15-.7 3.25-4.3l3.15-3.1 2.5-1.6.55-.35.5-.35-.5.35-.55.35.8-.7h.25l3 .05-.05-1.9q1.7-1.1 0-.15 1.7-.95 0 .15v-.15l-.45-14.1 7.1 4.3.25.1q3.65.95 7.25 2.25l6.65-1.05Q-3.5 8.9-.3 7.3q2.85-1.6 6.4-1.35l3.5.25-.8-1.5h-.25l-1-.5-1.25-.85-1.1-.55Q3.2 1.75 1.9.2l-5.85-2.1Q-8-3.3-12.05-3.95l-7.2.4-9.3.6-.15-3.9-3.3-5.25 4.2-8.4-.55-17.6-1.65-3.3.7-7.8 1-2.85-.45-.75.2-1q.8-3.6 2.35 7.05-.25-3.95 3.45-5.95l2.2-.9-2.25-3.5q-3.05-5.45-8.7-7.6l-.7-21.7 6.25-10.25 26.05-5.5 21.4 4.2 10.35 2.6 1.1 5.25 3.2 15-3.2-15h-1.5 1.5M21.4 63.45v3.95-3.95M.55-31q-2.1-1.65-4.35-2.85-2.3-1.3-4.45-2.85l-.5.6-1.05 1.55q-.35.7-.95 1.25l-.05.15-.25 1.25-.15.95v1.8l.65 1.2.7 1 1.3 1.55.15.25 2.8 1.8q.4.8 1.15 1.15l.5.15.35.1.4.6.6.2.95 1.4.8.7.8.55.25.15.35 1 .05.4.05.6-.05.8q-1.8 2.25-5.45 2.2l-13.35.6-3.4.6-.75.85-.3.3-.25.5-.1.35v.2q1.25 1.6 3.8 2l3.5.85 2.9.3 7.25.25 6-.25H7.7l2.15-2.5 2.8-7.05-.3-1.5q-1.2-2.15-3.05-3.8L4.1-26.6q-2.15-2.15-2.6-3.25L.55-31M13.6 76.1l-.55-6.85.55 6.85m-30-63-2.1 5.2-4.8 5.35V32h12.85l6.9-5.55-3.15-9.2-.1-3.15q-4.4-1.4-9.45-1.45h-.65l.5.45" fill-rule="evenodd" transform="translate(60.1 102.15)"/><path d="M-31.5-64.7q5.65 2.15 8.7 7.6l2.25 3.5-2.2.9q-3.7 2-3.45 5.95-1.55-10.65-2.35-7.05l-.2 1-2.55-4.45-.2-7.45m2.2 15.5-.7 7.8-1.15-2.25 1.85-5.55m.75 46.25 9.3-.6 7.2-.4Q-8-3.3-3.95-1.9L1.9.2q1.3 1.55 3.3 2.6l1.1.55 1.25.85 1 .5h.25l.8 1.5-3.5-.25Q2.55 5.7-.3 7.3q-3.2 1.6-6.8 2.15l-6.65 1.05q-3.6-1.3-7.25-2.25l-.25-.1-7.1-4.3-.2-6.8m-8.8 48.75.95-.15-1.8 1.2.85-1.05m28.1-7.7.1-.15.7.8-.8-.65M.55-31l.95 1.15q.45 1.1 2.6 3.25l5.2 4.95q1.85 1.65 3.05 3.8l.3 1.5-2.8 7.05L7.7-6.8H.45l-6 .25-7.25-.25-2.9-.3-3.5-.85q-2.55-.4-3.8-2v-.2l.1-.35.25-.5.3-.3.75-.85 3.4-.6 13.35-.6q3.65.05 5.45-2.2l.05-.8-.05-.6-.05-.4-.35-1-.25-.15-.8-.55-.8-.7-.95-1.4-.6-.2-.4-.6-.35-.1-.5-.15q-.75-.35-1.15-1.15l-2.8-1.8-.15-.25-1.3-1.55-.7-1-.65-1.2v-1.8l.15-.95.25-1.25.05-.15q.6-.55.95-1.25l1.05-1.55.5-.6q2.15 1.55 4.45 2.85Q-1.55-32.65.55-31M-55.6 72.75q.6-1.9.9-3.95.75-5.65 2.85-10.8l.1-.15 1.25-.95 6.7 14.95q2.25-13.45 10.85-16.95l2.15 17 .5-.05 9.3-12.8.65-.4q1.5.35 2.8 1.1l.8.5q5.45 3.75 6.5 9.1.3 1.35.25 2.85l-1.2 2.25q-1 .5-1.6 1.4-3.25 4.85-7.4 7.8-.6-.15-.6.4l-11.8-.4q-1.65-.85-3.55-1.1-9.2-1.4-16.85-6.3l-.05-.15q-1.55-1.5-1.95-3.25l-.6-.1m69.2 3.35.05.5-3.45 2.15.2-.3q1.95-.9 3.2-2.35m-30-63-.5-.45h.65l-.15.45" fill="#16161b" fill-rule="evenodd" transform="translate(60.1 102.15)"/><path d="m-7.4 42.25.35.65q4.55 7.35 9.9.7l.55-.75q1.25-1.75.9-3.75l1.6 7.85q-2.6 3.45-6.7 5.9H1q.25-.4.75-.55l1.65.15q.1.75-.2 1.15l-5 6.45.65-.1q2.2-1.1 3.55-.9l-.4 2.2-.15.25-.75 1.2L0 64.85q-4.95 4.2-10.25 4.5-1.05-5.35-6.5-9.1l-.8-.5q1.15-1.05 1.95-2.5l.2-.2 2.6-2q-.1.95-.65 1.55-1.9 1.9-2.55 3.25 6.35-1.05 11.2-4.8l-6-.2.65-.7q3.05-1.7 4.95-4.5l-.2.2q-4.8.3-8.8-.8l.05-.1q4.4-2.45 6.75-6.7" fill="#4c4958" fill-rule="evenodd" transform="translate(60.1 102.15)"/><path d="m-42.15 42.1 12.95-6.55-8.15 10.25-.85 1.05 1.8-1.2 13.3-8.8 3.8.25-2.85 7.85 11.4-8.15 1.5 1.3.8.65.4 1.6.5 1.5.15.4q-2.35 4.25-6.75 6.7l-.05.1q4 1.1 8.8.8l.2-.2q-1.9 2.8-4.95 4.5l-.65.7 6 .2q-4.85 3.75-11.2 4.8.65-1.35 2.55-3.25.55-.6.65-1.55l-2.6 2-.2.2q-.8 1.45-1.95 2.5-1.3-.75-2.8-1.1l-.65.4-9.3 12.8-.5.05-2.15-17q-8.6 3.5-10.85 16.95l-6.7-14.95-1.25.95L-49.4 53l7.25-10.9M5.9 46.95 8.15 57.5l.85.35 7.75-12.2-3.7 23.6-25.1 11.3q2-4.55 2.05-8.35.05-1.5-.25-2.85 5.3-.3 10.25-4.5l1.1-2.15.75-1.2.15-.25.4-2.2q-1.35-.2-3.55.9l-.65.1 5-6.45q.3-.4.2-1.15l-1.65-.15q-.5.15-.75.55H-.8q4.1-2.45 6.7-5.9m25.55 10.6 5.45-.9q.4 4.45.45 8.95l-7.7 5.75-3.1-6.55.25 8.15-.7.35q-2.25 1.15-4.7 1.9v-7.8l10.05-9.85M-9.2 102.6l-9.75 2.1h-15L-45 102.6q-6.4-1.4-10.2-3.05l-4.4-1.95-.5-16.8 12.2 4.75 26.35 3.15 12.35-2.3v16.2m-7.05-89.95q5.05.05 9.45 1.45l.1 3.15 3.15 9.2-6.9 5.55H-23.3v-8.35l4.8-5.35 2.1-5.2.15-.45" fill="#2d2b37" fill-rule="evenodd" transform="translate(60.1 102.15)"/><path d="m14.35 69 6.75-1.3.3-.3v7.8q-3.6 1.1-7.75 1.4.7 1.95.6 4.45-.4 6.35-2.45 12.35l-.35 1.05Q3.55 99.4-9.2 102.6V86.4L.9 84.5l9.3-5.75 3.45-2.15-.05-.5.8-1.05v-.2q-.2-2.95-.05-5.85" fill="#221f28" fill-rule="evenodd" transform="translate(60.1 102.15)"/><path d="m96.6 154.75-3.85-19.05-3.45-2.9.1-3.05q.15-4.6.7-9.15l.85-5.65q1.3-7.25-.3-14.5l-.9-3.6 5.8-40.1 5.3-41.8-.1-2.9h-7.7l3.2 15m-3.2-15h-1.5m1.5 0-1.1-5.25L81.6 4.2 60.2 0 34.15 5.5 27.9 15.75l.7 21.7.2 7.45 2.55 4.45.45.75-1 2.85-1.85 5.55 1.15 2.25 1.65 3.3.55 17.6-4.2 8.4 3.3 5.25.15 3.9.2 6.8.45 14.1q1.7-.95 0 .15l.05 1.9-3-.05-.5.35-.55.35-2.5 1.6-3.15 3.1q-3.1 3.6-3.25 4.3l-.3 1.3-.25 1.25-.4 2.5-.15 1.25-.2 2.5v1.25l-.05 2.4-7.25 10.9L8.35 160l-.1.15-1.4 1.95m56.1-16.35.55-.75q1.25-1.75.9-3.75l1.6 7.85 2.25 10.55.85.35 7.75-12.2-3.7 23.6 1.3-.25 6.75-1.3.3-.3v-3.95m15.5-6.8-.4-4.05-5.05 4.95-10.05 9.85v7.8q-3.6 1.1-7.75 1.4.7 1.95.6 4.45-.4 6.35-2.45 12.35l-.35 1.05q-7.9 4.95-20.65 8.15l-9.75 2.1h-15l-11.05-2.1q-6.4-1.4-10.2-3.05l-4.4-1.95-.5-16.8.75-1.05q2.5-3.25 3.75-7 .6-1.9.9-3.95.75-5.65 2.85-10.8M97 158.8q.4 4.45.45 8.95l-7.7 5.75-3.1-6.55.25 8.15-.7.35q-2.25 1.15-4.7 1.9m-7.8.9.05.5m-3.45 2.15 3.45-2.15m-3.45 2.15-9.3 5.75-10.1 1.9-12.35 2.3-26.35-3.15L0 182.95m73.15-11.55.55 6.85M32.2 120.1l-1.3.75-1.85 1.1-.05.15h.25l2.95-1.85v-.15m-3.15 1.85-.2.15H29l-.8.7-2.3 1.4-.2.2-.7.4q-2.8 1.7.9-.6l2.95-2.1q-1-.1-.15-.2l.35.05M9.6 159.05l-1.25.95" fill="none" stroke="#000" stroke-linecap="round" stroke-linejoin="round" stroke-width=".05"/></g><g id="b"><path d="M31.5 7.3v-.25l.1.15-.1.1M40.05 0 38 6.5l-3.75-1.55L40.05 0M7.85 27.6v.05-.05" fill="#1c1c1c" fill-rule="evenodd"/><path d="M31.5 7.05v.25h-8.3l2.7 2.5q-2.2-.8-4.3-2.2l-.5-.4q2.9-1.9 6.65-3.35l2.3 1.65-1.75-1.85q1.45-.65 3.05-1.2l.15 4.6M18.8 8.6q.8-.55 1.75-1.05l.4.2 1.6 2.45Q20.7 10 18.8 8.6m-.5.35q.9 2.25 2.45 4.3l.15.7-6.05.4.65 1.35 1.45 1.8q-1.35-.7-2.9-.85-.5-.15-.65.2l.85 2.1-.9.05-2.6-2.4q2.2-3.55 6.3-6.75.6-.5 1.25-.9M13.2 19l-2.1.15-.2 1.85H8.5l1.15-2.55 3.55.55" fill="#2d2b36" fill-rule="evenodd"/><path d="m31.5 7.3.1-.1-.1-.15-.15-4.6q3.95-1.4 8.7-2.45l-5.8 4.95 3.3 2.95q-2.1 5.55-4.6 9.2l-3.8-2.35 2.6 3.85-2.2 2.25q-9.95 7.9-21.3 6.7l.4-.7L31.5 7.3 8.65 26.85l-.8.75q-.4-3.4.65-6.6h2.4l.2-1.85 2.1-.15.2.05-.05-.05.9-.05-.85-2.1q.15-.35.65-.2 1.55.15 2.9.85l-1.45-1.8-.65-1.35 6.05-.4-.15-.7q-1.55-2.05-2.45-4.3l.5-.35q1.9 1.4 3.75 1.6l-1.6-2.45 2.25 1.2-1.6-1.35q2.1 1.4 4.3 2.2l-2.7-2.5h8.3m.1-.1 2.65-2.25L31.6 7.2" fill="#16181e" fill-rule="evenodd"/><path d="m31.5 7.3.1-.1m-.25-4.75q-1.6.55-3.05 1.2l1.75 1.85-2.3-1.65Q24 5.3 21.1 7.2l.5.4m9.9-.3L8.65 26.85l-.4.7q11.35 1.2 21.3-6.7l2.2-2.25-2.6-3.85 3.8 2.35q2.5-3.65 4.6-9.2l-3.3-2.95L31.6 7.2M40.05 0 38 6.5l-3.75-1.55L40.05 0q-4.75 1.05-8.7 2.45M18.8 8.6q.8-.55 1.75-1.05l.4.2 2.25 1.2-1.6-1.35m-2.8 1-.5.35M13.35 19l.05.05-.2-.05m-4.7 2q-1.05 3.2-.65 6.6l.8-.75m4.7-7.85-2.6-2.4q2.2-3.55 6.3-6.75.6-.5 1.25-.9M8.5 21l1.15-2.55 3.55.55M1.45 35.25 0 32.95m7.85-5.35v.05-.05m.4-.05-.4.05" fill="none" stroke="#000" stroke-linecap="round" stroke-linejoin="round" stroke-opacity=".302" stroke-width=".05"/></g><g id="c"><path d="M24.45 0h3.2l1.85 1.95h.2l1.6 4.2.95-3.7 3.9 8.55 2.15-.6v4.3l-.5.45q-1.05.15-3-.55Q24.4 7.9 22.1 1.65v-.7l1.8 1.6.7-.6v-.6l.75.6 1.4 1.3.15.1-.15-.15q-1-1.8-2.3-3.2" fill="#2d2b36" fill-rule="evenodd"/><path d="M22.1.95v.7Q24.4 7.9 34.8 14.6q1.95.7 3 .55-2.5 2.25-4.45 4.65-.15.15 0 .55l-1.55-.8-1.2-.9-1.8-1.9-2.95-2.15q-2.85-2.45-5.5-6.2l-.05-.05-1.25-1.8Q17.55 5.35 16.5 4l.1-.1v-.05l-.15.1Q14 4.5 12.1 6.25l-.45.4q-2.95 3-2.95 7.3l.15 1.85L7 12.9H5.2 7l1.85 2.9 2.45 3.8 1.6 1.2h.05l4.35 3.15v.1l.65 2.95.1 1.55-5.45-2.85 1.1-.8-3.05-1.15 1.65-.9-.6.1q-2.3-1-4.05-2.45l1.4-1.4-8.6.25q2.1-3.25 4.75-6.45l1.75-2.1q-2.05 1-4.6 1.15.1-1.6.35-2.9 2.5-2.1 6.35-3.35l-5.65.95q.55-1.35 1.35-2.2 2.9-1.4 6.6-1.8l-1.4-.7 4.25.25 4.4.25h.1l-.1-.05L17 0l5.1.95M14.2 2.2l1.35.6q.9.45 1.05 1.05-.15-.6-1.05-1.05l-1.35-.6" fill="#16181e" fill-rule="evenodd"/><path d="M19.05 11.35q.6-.45 1.45-.4 1.05-.05 1.8.75.75.75.75 1.8t-.7 1.8l-.05.05q-.75.75-1.8.75-1.1 0-1.85-.75-.55-.6-.7-1.3l.5.2.5-.25.2-.5-.2-.5-.3-.2q.4-.55.4-1.3v-.15" fill="#25110d" fill-rule="evenodd"/><path d="M22.35 15.3q.7-.75.7-1.8t-.75-1.8q-.75-.8-1.8-.75-.85-.05-1.45.4-.05-.7-.55-1.2-.6-.6-1.4-.6l-.5.05q1.55-1.2 3.6-1.2h.15q2.65 3.75 5.5 6.2-.3 1.45-1.4 2.6l-2.1-1.9m8.25 3.35 1.2.9-2.1.85q.9-.9.9-1.75M25 15.4l-.35-.75q-.25-.3-.7-.3t-.75.3q-.25.3-.25.75l.25.7q.3.3.75.3t.7-.3l.35-.7m3.55 5.65q-1.15 1.55-2.8 2.75l-2.1 6.05v-4.8q-1.9.9-4.25 1.45 0-1.25.3-2.35 3.75-.25 6.45-3l.3-.25 2.1.15m6.3.45.65.4 2.3 2.3h-.7v-.6l-.85.55-2.2-.1.8-2.55M16.6 3.9l-.15.05.15-.1v.05" fill-rule="evenodd"/><path d="M20.35 8.4h-.15l.1-.05.05.05m-5.25 2.95q-.55 1.05-.55 2.35 0 2.15 1.65 3.7 1.65 1.5 4 1.55 2.35-.05 4.05-1.55l.2-.2L27 20.25l-.55.65-.3.25q-2.7 2.75-6.45 3h-.75l-1.65-.1v-.1l-4.35-3.15h-.05l-1.6-1.2-2.45-3.8-.15-1.85q0-4.3 2.95-7.3l.45-.4h.05-.05.05l4.05 3.5q-.3.15-.5.4l-.1.1q-.45.45-.5 1.1" fill="#8d8d87" fill-rule="evenodd"/><path d="M24.45 17.2q1.1-1.15 1.4-2.6l2.95 2.15q-.55 1.9-1.8 3.5l-2.55-3.05M20.2 8.4q-2.05 0-3.6 1.2l-.4.15-4.05-3.5h-.05q1.9-1.75 4.35-2.3l.05.05q1.05 1.35 2.55 2.55l1.25 1.8-.1.05" fill="#847c5a" fill-rule="evenodd"/><path d="M19.05 11.35v.15q0 .75-.4 1.3l.3.2.2.5-.2.5-.5.25-.5-.2V14l-.25-.5v-.05l-.6.05q-.85 0-1.4-.55-.6-.6-.6-1.45v-.15q.05-.65.5-1.1l.1-.1q.2-.25.5-.4l.4-.15.5-.05q.8 0 1.4.6.5.5.55 1.2M25 15.4l-.35.7q-.25.3-.7.3t-.75-.3l-.25-.7q0-.45.25-.75.3-.3.75-.3t.7.3l.35.75" fill="#8e8e8e" fill-rule="evenodd"/><path d="M17.95 14.05q.15.7.7 1.3.75.75 1.85.75 1.05 0 1.8-.75l.05-.05 2.1 1.9-.2.2q-1.7 1.5-4.05 1.55-2.35-.05-4-1.55-1.65-1.55-1.65-3.7 0-1.3.55-2.35v.15q0 .85.6 1.45.55.55 1.4.55l.6-.05v.05l.25.5v.05" fill="#7c5932" fill-rule="evenodd"/><path d="m28.8 16.75 1.8 1.9q0 .85-.9 1.75l2.1-.85-.2 2.6-1.6 3.5v-2.7l-1.45-1.9-2.1-.15.55-.65q1.25-1.6 1.8-3.5m.9 3.65-.15.15q-.5.35-1 .5.5-.15 1-.5l.15-.15" fill="#262626" fill-rule="evenodd"/><path d="M2.35 11.95H0l.4-.35q.95-1.4 2.3-2.55-.25 1.3-.35 2.9m1.05-5.3-2.45.2q1.7-1.45 3.8-2.4-.8.85-1.35 2.2M16.5 4l-.05-.05.15-.05-.1.1" fill="#1c1c1c" fill-rule="evenodd"/><path d="m19.4 26.5.2 1.95L17.95 27l-.65-2.95 1.65.1h.75q-.3 1.1-.3 2.35" fill="#532900" fill-rule="evenodd"/><path d="m19.6 28.45.1.4.7 2.3v.1q-1.3 1.5-1.5 3.45-.15 2 .65 3.2l.7.5Q18.6 41.8 17 38q-1.65-3.85.15-6.1.9-1.15.9-3.2v-.15l-.1-1.55 1.65 1.45m-2.1 6.5-.2.2q-.25 1.05.1 2.2l.35.65q.2.2.2-.25L18 36.7q.1-.65-.15-1.2l-.35-.55" fill="#743a00" fill-rule="evenodd"/><path d="M20.4 31.25q1.45 3.85-.15 7.15l-.7-.5q-.8-1.2-.65-3.2.2-1.95 1.5-3.45m-2.9 3.7.35.55q.25.55.15 1.2l-.05 1.05q0 .45-.2.25l-.35-.65q-.35-1.15-.1-2.2l.2-.2m2.55-.1q-.1.45.1.8l-.05.55.15.1h.05q.6-1.15.25-2.15h-.05l-.1.35-.1-.4q-.2.25-.25.75m-2.5 1.5q-.2.35 0 .75h.1l.2-.05.05-.15-.05-.4v-.05l-.2-.1h-.1" fill="#8d4f11" fill-rule="evenodd"/><path d="M17.55 36.35h.1l.2.1v.05l.05.4-.05.15-.2.05h-.1q-.2-.4 0-.75m2.5-1.5q.05-.5.25-.75l.1.4.1-.35h.05q.35 1-.25 2.15h-.05l-.15-.1.05-.55q-.2-.35-.1-.8" fill="#8e8c8b" fill-rule="evenodd"/><path d="M27.65 0h-3.2M22.1.95v.7Q24.4 7.9 34.8 14.6q1.95.7 3 .55m-15.45.15q.7-.75.7-1.8t-.75-1.8q-.75-.8-1.8-.75-.85-.05-1.45.4m-1.1 2.7q.15.7.7 1.3.75.75 1.85.75 1.05 0 1.8-.75l.05-.05m2.1 1.9q1.1-1.15 1.4-2.6-2.85-2.45-5.5-6.2h-.15q-2.05 0-3.6 1.2m3.7-1.25.05.05m5.5 6.2 2.95 2.15 1.8 1.9 1.2.9 1.55.8m-18.25-9q-.55 1.05-.55 2.35 0 2.15 1.65 3.7 1.65 1.5 4 1.55 2.35-.05 4.05-1.55l.2-.2M27 20.25q1.25-1.6 1.8-3.5m-.25 4.3q-1.15 1.55-2.8 2.75m-2.1 1.25q-1.9.9-4.25 1.45l.2 1.95.1.4.7 2.3v.1q1.45 3.85-.15 7.15Q18.6 41.8 17 38q-1.65-3.85.15-6.1.9-1.15.9-3.2v-.15l-.1-1.55-.65-2.95 1.65.1h.75q-.3 1.1-.3 2.35M17 0l5.1.95m4.35 19.95-.3.25q-2.7 2.75-6.45 3m6.75-3.25.55-.65M16.5 4l-.05-.05Q14 4.5 12.1 6.25m4.35-2.3.15-.05v-.05q-.15-.6-1.05-1.05l-1.35-.6M16.5 4q1.05 1.35 2.55 2.55l1.25 1.8M8.85 15.8l-.15-1.85q0-4.3 2.95-7.3l.45-.4M5.2 12.9H7l1.85 2.9 2.45 3.8 1.6 1.2h.05l4.35 3.15v.1" fill="none" stroke="#000" stroke-linecap="round" stroke-linejoin="round" stroke-opacity=".302" stroke-width=".05"/><path d="m31.8 19.55-.2 2.6-1.6 3.5v-2.7l-1.45-1.9-2.1-.15m-.7 2.9-2.1 6.05v-4.8m4.9-4q.5-.15 1-.5l.15-.15q.9-.9.9-1.75M12.15 6.25h-.05" fill="none" stroke="#003800" stroke-linecap="round" stroke-linejoin="round" stroke-width=".05"/></g><g id="d"><path d="m-2.05-5-.65-2.95 1.65.1h.75L-.6-5.5l.2 1.95L-2.05-5" fill="#532900" fill-rule="evenodd" transform="translate(3.8 7.95)"/><path d="m-.4-3.55.1.4.7 2.3v.1Q-.9.75-1.1 2.7q-.15 2 .65 3.2l.7.5Q-1.4 9.8-3 6q-1.65-3.85.15-6.1.9-1.15.9-3.2v-.15L-2.05-5-.4-3.55m-2.1 6.5-.2.2q-.25 1.05.1 2.2l.35.65q.2.2.2-.25L-2 4.7q.1-.65-.15-1.2l-.35-.55" fill="#743a00" fill-rule="evenodd" transform="translate(3.8 7.95)"/><path d="M.4-.75Q1.85 3.1.25 6.4l-.7-.5q-.8-1.2-.65-3.2Q-.9.75.4-.75m-2.9 3.7.35.55q.25.55.15 1.2l-.05 1.05q0 .45-.2.25l-.35-.65q-.35-1.15-.1-2.2l.2-.2m2.65.7q-.1.25-.05.55l.15.1H.3q.6-1.15.25-2.15H.5l-.1.35-.1-.4q-.2.25-.25.75-.1.45.1.8m-2.6 1.45h.1l.2-.05.05-.15-.05-.4v-.05l-.2-.1h-.1q-.2.35 0 .75" fill="#8d4f11" fill-rule="evenodd" transform="translate(3.8 7.95)"/><path d="M-2.45 5.1q-.2-.4 0-.75h.1l.2.1v.05l.05.4-.05.15-.2.05h-.1m2.6-1.45q-.2-.35-.1-.8.05-.5.25-.75l.1.4.1-.35h.05Q.9 3.15.3 4.3H.25L.1 4.2q-.05-.3.05-.55" fill="#8e8c8b" fill-rule="evenodd" transform="translate(3.8 7.95)"/><path d="m3.85-2.7-.2.55v-.6l.2.05" fill-rule="evenodd" transform="translate(3.8 7.95)"/><path d="M1.75 2.95 1.1 0l1.65.1h.75l-.3 2.35.2 1.95.1.4.7 2.3v.1q1.45 3.85-.15 7.15-1.65 3.4-3.25-.4-1.65-3.85.15-6.1.9-1.15.9-3.2V4.5l-.1-1.55" fill="none" stroke="#000" stroke-linecap="round" stroke-linejoin="round" stroke-opacity=".302" stroke-width=".05"/><path d="m7.65 5.25-.2.55v-.6" fill="none" stroke="#003800" stroke-linecap="round" stroke-linejoin="round" stroke-width=".05"/></g><path d="m35.1 22.7.2.2.2 1.2-.1.75Q29 34.25 21.3 42.6l-.7.15-.5-.5-.15-.2V40.8l-1.3-.55q-.45-.5-.35-1.25l.05-.45q.9-1.8 2.5-2.95-3.35 1.75-7.1-.1l.15-.7.3-.5q1.1-.65 2.5-.5 1.75-2.15 4.25-3.65l-7.5-.65q-.5-.5-.35-1.25l.1-.45q2.4-1 4.15-2.2 2.75-3.4 8-2.2l1.85 1.45 1.4.15.3.3.3.35q2.45-1.95 5.05-3.4l.85.45M-18.25 9.85q8.95-.15 16.1 4.25l.1.15v.25l-.1.25-.15.25-.15.2-.25.2q-3.2-.1-6.4-1.35-3.05-1.25-5.65-1v1.2l-.1.5-6 8.65q-3.25 4.6-8.4 6.35l-.35-.25-.95 2.05 2.3 5.4q.2.4.05.75-.55 1.4-2.05.85l-2.7-6.25-1.8-1.2q-.05 3-.75 6.1l-.2.5-1.7-.05v-1.5q-.85.6-1.65-.15-.8-7.25-.7-14.7l-.1-.1q-1.75-3.65-1.55-7.85l.15-1.2q.4-.6 1.15-.6v-.05h.3l.6.15 1.5 2.6q.5.2.85.75l.15.25.65 1.85 1.8 3.1.25.5q.3-.4.2-1.25l-.05-1.2q1.55-1.6 3.55-2.35l1.05-1.35.9-.55q1.15.55 1.95 1.25 1.55-1.95 3.8-1.65.55.35.65 1l-.05.7q-.6.9-1.55 1.5l-.25.25-1.25 2.3q-.2 1.4-1.05 3.05l-2.4 4.9q3.25-3.05 6.05-6.45 2.75-3.35 4.9-7l-.05-.15-.9-.65-.55-.45-.25-.2-.15-.5-.05-.5.05-.5.4-.7.8-.35m-17.65 15.1-.4-1.05.05 1 .05-.05.3.1" fill-rule="evenodd" transform="translate(41.4 -9.85)" id="e"/></defs></svg>