<svg viewBox="0 0 41.385 56.998" xmlns="http://www.w3.org/2000/svg" xmlns:xlink="http://www.w3.org/1999/xlink"><g transform="translate(-267.82 -123.98)"><use transform="matrix(-.0722 .021 .0488 .0594 292.88 125.45)" width="98.65" height="108.05" xlink:href="#a"/><use transform="matrix(-.0874 -.0139 .0029 .0617 298.71 131.05)" width="98.65" height="108.05" xlink:href="#a"/><use transform="matrix(-.0391 .0363 .062 .0386 287.33 128.27)" width="98.65" height="108.05" xlink:href="#a"/><use transform="matrix(-.0417 -.0417 -.0488 .0203 300.79 137.56)" width="98.65" height="108.05" xlink:href="#a"/><use transform="matrix(.0268 .0471 .0603 -.0078 282.32 132.45)" width="98.65" height="108.05" xlink:href="#a"/><use transform="matrix(-.021 .0661 .0818 -.0035 278.57 133.58)" width="98.65" height="108.05" xlink:href="#a"/><use transform="matrix(-.0616 .058 .0583 .0323 286.99 132.34)" width="98.65" height="108.05" xlink:href="#a"/><use transform="matrix(.0115 .0496 .0701 -.025 278.05 139.4)" width="98.65" height="108.05" xlink:href="#a"/><use transform="matrix(-.0616 .008 -.0086 .048 294.1 134.41)" width="98.65" height="108.05" xlink:href="#a"/><use transform="matrix(.0583 .0061 .0265 -.0497 279.09 145.43)" width="98.65" height="108.05" xlink:href="#a"/><use transform="matrix(.9134 0 0 .8264 270.86 131.2)" width="29.95" height="54.85" xlink:href="#b"/><use transform="matrix(-.0275 -.0135 .015 -.0248 296.12 150.13)" width="119" height="142.85" xlink:href="#c"/><use transform="matrix(-.0166 -.0082 .009 -.015 295.9 148.9)" width="140.95" height="148.25" xlink:href="#d"/><use transform="matrix(-.0166 -.0082 .009 -.015 296.6 149.1)" width="140.95" height="148.25" xlink:href="#d"/><use transform="matrix(-.0123 -.0129 .0142 -.0111 294.35 149.05)" width="140.95" height="148.25" xlink:href="#d"/><use transform="matrix(-.0123 -.0129 .0142 -.0111 294.95 149.45)" width="140.95" height="148.25" xlink:href="#d"/><use transform="matrix(-.0015 -.017 .0188 -.0013 294.15 149.15)" width="140.95" height="148.25" xlink:href="#d"/><use transform="matrix(-.0015 -.017 .0188 -.0013 294.35 149.75)" width="140.95" height="148.25" xlink:href="#d"/><use transform="matrix(.0052 -.0163 .0181 .0047 293.15 148.05)" width="140.95" height="148.25" xlink:href="#d"/><use transform="matrix(.0052 -.0163 .0181 .0047 293.1 148.75)" width="140.95" height="148.25" xlink:href="#d"/><use transform="matrix(-.0015 -.017 .0188 -.0013 294.35 149.45)" width="140.95" height="148.25" xlink:href="#d"/><use transform="matrix(-.0015 -.017 .0188 -.0013 294.55 150.05)" width="140.95" height="148.25" xlink:href="#d"/><use transform="matrix(.0052 -.0163 .0181 .0047 293.35 148.4)" width="140.95" height="148.25" xlink:href="#d"/><use transform="matrix(.0052 -.0163 .0181 .0047 293.3 149.05)" width="140.95" height="148.25" xlink:href="#d"/><use transform="matrix(.0163 -.0085 .0094 .0147 294.65 147.6)" width="140.95" height="148.25" xlink:href="#d"/><use transform="matrix(.0163 -.0085 .0094 .0147 294.1 148)" width="140.95" height="148.25" xlink:href="#d"/><use transform="matrix(.0185 -.0027 .003 .0168 295.25 146.35)" width="140.95" height="148.25" xlink:href="#d"/><use transform="matrix(.0185 -.0027 .003 .0168 294.6 146.55)" width="140.95" height="148.25" xlink:href="#d"/><use transform="matrix(-.0081 -.0153 .017 -.0073 294.25 149.65)" width="140.95" height="148.25" xlink:href="#d"/><use transform="matrix(-.0081 -.0153 .017 -.0073 294.65 150.15)" width="140.95" height="148.25" xlink:href="#d"/><use transform="matrix(-.0016 -.0169 .0187 -.0015 292.9 148.95)" width="140.95" height="148.25" xlink:href="#d"/><use transform="matrix(-.0016 -.0169 .0187 -.0015 293.05 149.6)" width="140.95" height="148.25" xlink:href="#d"/><use transform="matrix(.0113 -.0136 .015 .0102 293.45 147.7)" width="140.95" height="148.25" xlink:href="#d"/><use transform="matrix(.0113 -.0136 .015 .0102 293.15 148.25)" width="140.95" height="148.25" xlink:href="#d"/><use transform="matrix(.0158 -.0091 .0101 .0143 293.5 146.35)" width="140.95" height="148.25" xlink:href="#d"/><use transform="matrix(.0158 -.0091 .0101 .0143 293 146.75)" width="140.95" height="148.25" xlink:href="#d"/><use transform="matrix(-.0732 -.0184 .0046 .074 299.11 133.96)" width="98.65" height="108.05" xlink:href="#a"/><use transform="matrix(-.0647 -.0552 -.0352 .0531 300.54 141.61)" width="98.65" height="108.05" xlink:href="#a"/><use transform="matrix(-.0547 .0109 .0283 .0632 292.67 133.6)" width="98.65" height="108.05" xlink:href="#a"/><use transform="matrix(-.0094 -.0556 -.0531 -.0073 298.34 148.04)" width="98.65" height="108.05" xlink:href="#a"/><use transform="matrix(-.0062 .0528 .0552 .0235 286.03 134.58)" width="98.65" height="108.05" xlink:href="#a"/><use transform="matrix(.0313 0 0 .0284 284.16 158.14)" width="119" height="142.85" xlink:href="#c"/><use transform="matrix(.0189 0 0 .0171 285 159.15)" width="140.95" height="148.25" xlink:href="#d"/><use transform="matrix(.0189 0 0 .0171 284.3 159.25)" width="140.95" height="148.25" xlink:href="#d"/><use transform="matrix(.0177 .006 -.0066 .016 286.3 158.35)" width="140.95" height="148.25" xlink:href="#d"/><use transform="matrix(.0177 .006 -.0066 .016 285.6 158.2)" width="140.95" height="148.25" xlink:href="#d"/><use transform="matrix(.0103 .0143 -.0158 .0093 286.4 158.15)" width="140.95" height="148.25" xlink:href="#d"/><use transform="matrix(.0103 .0143 -.0158 .0093 285.9 157.7)" width="140.95" height="148.25" xlink:href="#d"/><use transform="matrix(.0041 .0166 -.0184 .0037 287.85 158.65)" width="140.95" height="148.25" xlink:href="#d"/><use transform="matrix(.0041 .0166 -.0184 .0037 287.6 158.05)" width="140.95" height="148.25" xlink:href="#d"/><use transform="matrix(.0103 .0143 -.0158 .0093 286.05 157.95)" width="140.95" height="148.25" xlink:href="#d"/><use transform="matrix(.0103 .0143 -.0158 .0093 285.55 157.5)" width="140.95" height="148.25" xlink:href="#d"/><use transform="matrix(.0041 .0166 -.0184 .0037 287.5 158.45)" width="140.95" height="148.25" xlink:href="#d"/><use transform="matrix(.0041 .0166 -.0184 .0037 287.2 157.9)" width="140.95" height="148.25" xlink:href="#d"/><use transform="matrix(-.0099 .0145 -.0161 -.0089 286.8 159.75)" width="140.95" height="148.25" xlink:href="#d"/><use transform="matrix(-.0099 .0145 -.0161 -.0089 287.05 159.15)" width="140.95" height="148.25" xlink:href="#d"/><use transform="matrix(-.0148 .0105 -.0116 -.0134 286.95 161.15)" width="140.95" height="148.25" xlink:href="#d"/><use transform="matrix(-.0148 .0105 -.0116 -.0134 287.4 160.65)" width="140.95" height="148.25" xlink:href="#d"/><use transform="matrix(.0153 .01 -.011 .0138 286.1 157.75)" width="140.95" height="148.25" xlink:href="#d"/><use transform="matrix(.0153 .01 -.011 .0138 285.45 157.5)" width="140.95" height="148.25" xlink:href="#d"/><use transform="matrix(.0104 .0142 -.0157 .0094 287.65 157.75)" width="140.95" height="148.25" xlink:href="#d"/><use transform="matrix(.0104 .0142 -.0157 .0094 287.15 157.3)" width="140.95" height="148.25" xlink:href="#d"/><use transform="matrix(-.0027 .0169 -.0186 -.0024 287.8 159.1)" width="140.95" height="148.25" xlink:href="#d"/><use transform="matrix(-.0027 .0169 -.0186 -.0024 287.75 158.45)" width="140.95" height="148.25" xlink:href="#d"/><use transform="matrix(-.0091 .0149 -.0165 -.0082 288.5 160.35)" width="140.95" height="148.25" xlink:href="#d"/><use transform="matrix(-.0091 .0149 -.0165 -.0082 288.7 159.75)" width="140.95" height="148.25" xlink:href="#d"/><use transform="matrix(-.3092 .1684 .1844 .2771 294.87 162.98)" width="13.35" height="3.2" xlink:href="#e"/><use transform="matrix(-.1825 .2985 .4348 .2176 292.74 160.56)" width="13.35" height="3.2" xlink:href="#e"/><use transform="matrix(-.2682 -.0435 -.0634 .3198 295.21 165.69)" width="13.35" height="3.2" xlink:href="#e"/><use transform="matrix(.0263 .2469 .4975 -.1295 289.61 161.46)" width="13.35" height="3.2" xlink:href="#e"/><use transform="matrix(-.2833 -.2247 -.3274 .3378 295.55 168.54)" width="13.35" height="3.2" xlink:href="#e"/><use transform="matrix(.125 .3072 .3242 -.2379 288.43 161.03)" width="13.35" height="3.2" xlink:href="#e"/><use transform="matrix(.1474 -.1098 -.2061 -.4309 288.78 168.03)" width="13.35" height="3.2" xlink:href="#e"/><use transform="matrix(.2274 .1138 .0926 -.4698 287.53 164.71)" width="13.35" height="3.2" xlink:href="#e"/><use transform="matrix(-.4257 .2319 .2563 .3851 291.98 164.67)" width="2.7" height="2.7" xlink:href="#f"/><use transform="matrix(-.4257 .2319 .2563 .3851 291.13 164.17)" width="2.7" height="2.7" xlink:href="#f"/><use transform="matrix(-.4257 .2319 .2563 .3851 291.38 165.22)" width="2.7" height="2.7" xlink:href="#f"/><use transform="matrix(-.007 -.1723 -.5028 -.113 291.75 168.88)" width="13.35" height="3.2" xlink:href="#e"/><use transform="matrix(.9134 0 0 .8264 267.84 163.35)" width="19.7" height="11.35" xlink:href="#g"/><use transform="matrix(.2792 .205 -.2245 .2502 279.13 129.64)" width="13.35" height="3.2" xlink:href="#e"/><use transform="matrix(.1342 .3174 -.4624 .1601 281.64 127.55)" width="13.35" height="3.2" xlink:href="#e"/><use transform="matrix(.2713 -.0093 .0135 .3235 278.33 132.34)" width="13.35" height="3.2" xlink:href="#e"/><use transform="matrix(-.0638 .2403 -.471 -.1903 284.64 128.84)" width="13.35" height="3.2" xlink:href="#e"/><use transform="matrix(.314 -.1862 .2712 .3744 277.63 135.08)" width="13.35" height="3.2" xlink:href="#e"/><use transform="matrix(-.1705 .2874 -.2834 -.2755 285.86 128.55)" width="13.35" height="3.2" xlink:href="#e"/><use transform="matrix(-.1286 -.1268 .2694 -.3993 284.43 135.31)" width="13.35" height="3.2" xlink:href="#e"/><use transform="matrix(-.2419 .0837 -.0193 -.4752 286.2 132.27)" width="13.35" height="3.2" xlink:href="#e"/><use transform="matrix(.3844 .2823 -.312 .3478 281.75 131.7)" width="2.7" height="2.7" xlink:href="#f"/><use transform="matrix(.3844 .2823 -.312 .3478 282.7 131.35)" width="2.7" height="2.7" xlink:href="#f"/><use transform="matrix(.3844 .2823 -.312 .3478 282.25 132.4)" width="2.7" height="2.7" xlink:href="#f"/><use transform="matrix(.0334 -.1691 .5134 -.0484 281.34 135.89)" width="13.35" height="3.2" xlink:href="#e"/><use transform="matrix(-.0786 .0197 .0501 .0705 301.67 123.67)" width="98.65" height="108.05" xlink:href="#a"/><use transform="matrix(-.0935 -.021 .0007 .0704 307.68 130.48)" width="98.65" height="108.05" xlink:href="#a"/><use transform="matrix(-.0435 .039 .0652 .0476 295.53 126.6)" width="98.65" height="108.05" xlink:href="#a"/><use transform="matrix(-.0432 -.0499 -.0533 .0202 309.71 137.97)" width="98.65" height="108.05" xlink:href="#a"/><use transform="matrix(.027 .0552 .0652 -.0053 290.05 131.06)" width="98.65" height="108.05" xlink:href="#a"/><use transform="matrix(-.0252 .0739 .0883 .0009 285.98 132.1)" width="98.65" height="108.05" xlink:href="#a"/><use transform="matrix(-.0686 .0623 .0615 .0402 295.11 131.25)" width="98.65" height="108.05" xlink:href="#a"/><use transform="matrix(.0104 .0572 .0764 -.0243 285.21 138.69)" width="98.65" height="108.05" xlink:href="#a"/><use transform="matrix(-.0666 .0055 -.0111 .0541 302.74 133.96)" width="98.65" height="108.05" xlink:href="#a"/><use transform="matrix(.0625 .0104 .0305 -.055 286.12 145.66)" width="98.65" height="108.05" xlink:href="#a"/><use transform="matrix(.9832 .054 -.0327 .9406 277.75 128.92)" width="29.95" height="54.85" xlink:href="#b"/><use transform="matrix(-.029 -.017 .0171 -.0274 304.18 151.93)" width="119" height="142.85" xlink:href="#c"/><use transform="matrix(-.0175 -.0103 .0103 -.0165 304 150.5)" width="140.95" height="148.25" xlink:href="#d"/><use transform="matrix(-.0175 -.0103 .0103 -.0165 304.7 150.75)" width="140.95" height="148.25" xlink:href="#d"/><use transform="matrix(-.0127 -.0154 .0158 -.0118 302.3 150.6)" width="140.95" height="148.25" xlink:href="#d"/><use transform="matrix(-.0127 -.0154 .0158 -.0118 302.9 151.05)" width="140.95" height="148.25" xlink:href="#d"/><use transform="matrix(-.0009 -.0194 .0202 -.0004 302.1 150.7)" width="140.95" height="148.25" xlink:href="#d"/><use transform="matrix(-.0009 -.0194 .0202 -.0004 302.3 151.45)" width="140.95" height="148.25" xlink:href="#d"/><use transform="matrix(.0062 -.0183 .0193 .0064 301.05 149.45)" width="140.95" height="148.25" xlink:href="#d"/><use transform="matrix(.0062 -.0183 .0193 .0064 300.95 150.15)" width="140.95" height="148.25" xlink:href="#d"/><use transform="matrix(-.0009 -.0194 .0202 -.0004 302.3 151.05)" width="140.95" height="148.25" xlink:href="#d"/><use transform="matrix(-.0009 -.0194 .0202 -.0004 302.45 151.8)" width="140.95" height="148.25" xlink:href="#d"/><use transform="matrix(.0062 -.0183 .0193 .0064 301.3 149.8)" width="140.95" height="148.25" xlink:href="#d"/><use transform="matrix(.0062 -.0183 .0193 .0064 301.2 150.55)" width="140.95" height="148.25" xlink:href="#d"/><use transform="matrix(.0179 -.0087 .0095 .0173 302.65 148.95)" width="140.95" height="148.25" xlink:href="#d"/><use transform="matrix(.0179 -.0087 .0095 .0173 302.1 149.4)" width="140.95" height="148.25" xlink:href="#d"/><use transform="matrix(.02 -.002 .0026 .0193 303.4 147.55)" width="140.95" height="148.25" xlink:href="#d"/><use transform="matrix(.02 -.002 .0026 .0193 302.7 147.75)" width="140.95" height="148.25" xlink:href="#d"/><use transform="matrix(-.0081 -.0179 .0185 -.0073 302.15 151.25)" width="140.95" height="148.25" xlink:href="#d"/><use transform="matrix(-.0081 -.0179 .0185 -.0073 302.6 151.9)" width="140.95" height="148.25" xlink:href="#d"/><use transform="matrix(-.0011 -.0193 .0202 -.0006 300.7 150.4)" width="140.95" height="148.25" xlink:href="#d"/><use transform="matrix(-.0011 -.0193 .0202 -.0006 300.9 151.15)" width="140.95" height="148.25" xlink:href="#d"/><use transform="matrix(.0127 -.0148 .0158 .0125 301.4 149.05)" width="140.95" height="148.25" xlink:href="#d"/><use transform="matrix(.0127 -.0148 .0158 .0125 301.05 149.65)" width="140.95" height="148.25" xlink:href="#d"/><use transform="matrix(.0174 -.0095 .0103 .0169 301.5 147.45)" width="140.95" height="148.25" xlink:href="#d"/><use transform="matrix(.0174 -.0095 .0103 .0169 300.95 147.95)" width="140.95" height="148.25" xlink:href="#d"/><use transform="matrix(-.0781 -.0253 .002 .0845 308.04 133.73)" width="98.65" height="108.05" xlink:href="#a"/><use transform="matrix(-.0674 -.0666 -.04 .0583 309.28 142.49)" width="98.65" height="108.05" xlink:href="#a"/><use transform="matrix(-.0594 .0092 .028 .0736 301.17 132.87)" width="98.65" height="108.05" xlink:href="#a"/><use transform="matrix(-.008 -.0639 -.0569 -.0115 306.67 149.67)" width="98.65" height="108.05" xlink:href="#a"/><use transform="matrix(-.0088 .0597 .0585 .03 293.93 133.63)" width="98.65" height="108.05" xlink:href="#a"/><use transform="matrix(.0337 .0018 -.0011 .0323 290.97 160.42)" width="119" height="142.85" xlink:href="#c"/><use transform="matrix(.0203 .0011 -.0007 .0195 291.85 161.6)" width="140.95" height="148.25" xlink:href="#d"/><use transform="matrix(.0203 .0011 -.0007 .0195 291.05 161.7)" width="140.95" height="148.25" xlink:href="#d"/><use transform="matrix(.0188 .0079 -.0078 .0178 293.25 160.75)" width="140.95" height="148.25" xlink:href="#d"/><use transform="matrix(.0188 .0079 -.0078 .0178 292.5 160.6)" width="140.95" height="148.25" xlink:href="#d"/><use transform="matrix(.0105 .0169 -.0174 .0097 293.35 160.55)" width="140.95" height="148.25" xlink:href="#d"/><use transform="matrix(.0105 .0169 -.0174 .0097 292.9 160)" width="140.95" height="148.25" xlink:href="#d"/><use transform="matrix(.0037 .0192 -.0199 .0031 294.95 161.25)" width="140.95" height="148.25" xlink:href="#d"/><use transform="matrix(.0037 .0192 -.0199 .0031 294.6 160.55)" width="140.95" height="148.25" xlink:href="#d"/><use transform="matrix(.0105 .0169 -.0174 .0097 293 160.35)" width="140.95" height="148.25" xlink:href="#d"/><use transform="matrix(.0105 .0169 -.0174 .0097 292.5 159.8)" width="140.95" height="148.25" xlink:href="#d"/><use transform="matrix(.0037 .0192 -.0199 .0031 294.55 161)" width="140.95" height="148.25" xlink:href="#d"/><use transform="matrix(.0037 .0192 -.0199 .0031 294.3 160.3)" width="140.95" height="148.25" xlink:href="#d"/><use transform="matrix(-.0112 .0159 -.0169 -.0111 293.75 162.35)" width="140.95" height="148.25" xlink:href="#d"/><use transform="matrix(-.0112 .0159 -.0169 -.0111 294.05 161.75)" width="140.95" height="148.25" xlink:href="#d"/><use transform="matrix(-.0164 .011 -.0119 -.016 293.8 164)" width="140.95" height="148.25" xlink:href="#d"/><use transform="matrix(-.0164 .011 -.0119 -.016 294.3 163.45)" width="140.95" height="148.25" xlink:href="#d"/><use transform="matrix(.016 .0123 -.0124 .0151 293.05 160.1)" width="140.95" height="148.25" xlink:href="#d"/><use transform="matrix(.016 .0123 -.0124 .0151 292.4 159.75)" width="140.95" height="148.25" xlink:href="#d"/><use transform="matrix(.0106 .0168 -.0173 .0098 294.75 160.15)" width="140.95" height="148.25" xlink:href="#d"/><use transform="matrix(.0106 .0168 -.0173 .0098 294.2 159.65)" width="140.95" height="148.25" xlink:href="#d"/><use transform="matrix(-.0036 .019 -.02 -.0039 294.85 161.75)" width="140.95" height="148.25" xlink:href="#d"/><use transform="matrix(-.0036 .019 -.02 -.0039 294.8 161.05)" width="140.95" height="148.25" xlink:href="#d"/><use transform="matrix(-.0104 .0164 -.0174 -.0103 295.55 163.2)" width="140.95" height="148.25" xlink:href="#d"/><use transform="matrix(-.0104 .0164 -.0174 -.0103 295.8 162.55)" width="140.95" height="148.25" xlink:href="#d"/><use transform="matrix(-.3394 .1734 .1875 .3263 302.32 166.49)" width="13.35" height="3.2" xlink:href="#e"/><use transform="matrix(-.2082 .329 .4594 .2734 300.09 163.63)" width="13.35" height="3.2" xlink:href="#e"/><use transform="matrix(-.2869 -.0654 -.0809 .3602 302.58 169.62)" width="13.35" height="3.2" xlink:href="#e"/><use transform="matrix(.0186 .2826 .5406 -.118 296.75 164.48)" width="13.35" height="3.2" xlink:href="#e"/><use transform="matrix(-.296 -.2726 -.3658 .3651 302.83 172.87)" width="13.35" height="3.2" xlink:href="#e"/><use transform="matrix(.1224 .357 .3584 -.2516 295.51 163.95)" width="13.35" height="3.2" xlink:href="#e"/><use transform="matrix(.163 -.1162 -.2048 -.5026 295.62 171.88)" width="13.35" height="3.2" xlink:href="#e"/><use transform="matrix(.2403 .143 .1183 -.5293 294.37 168.07)" width="13.35" height="3.2" xlink:href="#e"/><use transform="matrix(-.4673 .2388 .2607 .4535 299.13 168.27)" width="2.7" height="2.7" xlink:href="#f"/><use transform="matrix(-.4673 .2388 .2607 .4535 298.23 167.67)" width="2.7" height="2.7" xlink:href="#f"/><use transform="matrix(-.4673 .2388 .2607 .4535 298.43 168.82)" width="2.7" height="2.7" xlink:href="#f"/><use transform="matrix(-.0007 -.1965 -.5367 -.1584 298.71 173.01)" width="13.35" height="3.2" xlink:href="#e"/><use transform="matrix(.9832 .054 -.0327 .9406 273.23 165.33)" width="19.7" height="11.35" xlink:href="#g"/><use transform="matrix(.2924 .2498 -.2515 .2715 286.75 127.62)" width="13.35" height="3.2" xlink:href="#e"/><use transform="matrix(.1319 .3692 -.504 .1549 289.48 125.38)" width="13.35" height="3.2" xlink:href="#e"/><use transform="matrix(.2924 .0055 .0017 .369 285.77 130.62)" width="13.35" height="3.2" xlink:href="#e"/><use transform="matrix(-.0782 .2697 -.4995 -.2444 292.67 127.03)" width="13.35" height="3.2" xlink:href="#e"/><use transform="matrix(.3454 -.1934 .2771 .4422 284.86 133.72)" width="13.35" height="3.2" xlink:href="#e"/><use transform="matrix(-.1949 .317 -.2941 -.3303 293.94 126.79)" width="13.35" height="3.2" xlink:href="#e"/><use transform="matrix(-.1334 -.1519 .3058 -.4385 292.19 134.4)" width="13.35" height="3.2" xlink:href="#e"/><use transform="matrix(-.2636 .081 -.002 -.542 294.21 131.05)" width="13.35" height="3.2" xlink:href="#e"/><use transform="matrix(.4026 .344 -.3496 .3774 289.48 130.08)" width="2.7" height="2.7" xlink:href="#f"/><use transform="matrix(.4026 .344 -.3496 .3774 290.43 129.78)" width="2.7" height="2.7" xlink:href="#f"/><use transform="matrix(.4026 .344 -.3496 .3774 289.98 130.93)" width="2.7" height="2.7" xlink:href="#f"/><use transform="matrix(.0426 -.1905 .5545 -.0247 288.86 134.88)" width="13.35" height="3.2" xlink:href="#e"/></g><defs><linearGradient id="h" x1="-819.2" x2="819.2" gradientTransform="matrix(.0022 0 0 .0021 -.45 -25.6)" gradientUnits="userSpaceOnUse"><stop stop-color="#8f7278" offset="0"/><stop stop-color="#00000a" offset="1"/></linearGradient><linearGradient id="j" x1="-819.2" x2="819.2" gradientTransform="matrix(0 -.0342 .0024 0 61.95 35)" gradientUnits="userSpaceOnUse"><stop stop-color="#d5d5e7" offset="0"/><stop stop-color="#d5d5e7" stop-opacity="0" offset="1"/></linearGradient><linearGradient id="k" x1="-819.2" x2="819.2" gradientTransform="matrix(.0342 0 0 .0024 105.95 79)" gradientUnits="userSpaceOnUse"><stop stop-color="#d5d5e7" offset="0"/><stop stop-color="#d5d5e7" stop-opacity="0" offset="1"/></linearGradient><linearGradient id="l" x1="-819.2" x2="819.2" gradientTransform="matrix(.0181 .0289 -.0021 .0013 83.95 117.6)" gradientUnits="userSpaceOnUse"><stop stop-color="#d5d5e7" offset="0"/><stop stop-color="#d5d5e7" stop-opacity="0" offset="1"/></linearGradient><linearGradient id="m" x1="-819.2" x2="819.2" gradientTransform="matrix(-.0265 .0215 -.0015 -.0019 30.15 105)" gradientUnits="userSpaceOnUse"><stop stop-color="#d5d5e7" offset="0"/><stop stop-color="#d5d5e7" stop-opacity="0" offset="1"/></linearGradient><linearGradient id="n" x1="-819.2" x2="819.2" gradientTransform="matrix(-.0268 -.021 .0015 -.0019 28.7 55.35)" gradientUnits="userSpaceOnUse"><stop stop-color="#d5d5e7" offset="0"/><stop stop-color="#d5d5e7" stop-opacity="0" offset="1"/></linearGradient><linearGradient id="o" x1="-819.2" x2="819.2" gradientTransform="matrix(.0005 -.0022 -.0015 -.0003 -3.8 18.65)" gradientUnits="userSpaceOnUse"><stop stop-color="#c37200" offset=".067"/><stop stop-color="#c8a237" offset=".514"/><stop stop-color="#d2c0c3" offset="1"/></linearGradient><linearGradient id="p" x1="-819.2" x2="819.2" gradientTransform="matrix(.0002 -.0023 -.0012 -.0001 -11.5 18.4)" gradientUnits="userSpaceOnUse"><stop stop-color="#c37200" offset=".067"/><stop stop-color="#c8a237" offset=".514"/><stop stop-color="#d2c0c3" offset="1"/></linearGradient><linearGradient id="q" x1="-819.2" x2="819.2" gradientTransform="matrix(-.0014 -.002 -.0013 .0009 -12.85 20.4)" gradientUnits="userSpaceOnUse"><stop stop-color="#c37200" offset=".067"/><stop stop-color="#c8a237" offset=".514"/><stop stop-color="#d2c0c3" offset="1"/></linearGradient><linearGradient id="r" x1="-819.2" x2="819.2" gradientTransform="matrix(-.0004 -.002 -.0039 .0007 -7.95 21.85)" gradientUnits="userSpaceOnUse"><stop stop-color="#c37200" offset=".067"/><stop stop-color="#c8a237" offset=".514"/><stop stop-color="#d2c0c3" offset="1"/></linearGradient><g id="a" fill-rule="evenodd"><path d="M-42.95-49.7q9.9-8.6 29.45-.05Q6.15-41.3 23.95-20.7 41.7-.1 47.3 20.5t-4.35 29.2-29.55.1q-19.55-8.5-37.35-29.1t-23.4-41.2q-5.55-20.6 4.4-29.2" fill="#2b3203" transform="translate(49.35 54)"/><path d="M25.9-8.8q11 12.75 14.45 25.55 3.5 12.75-2.65 18.1-6.2 5.3-18.35.05-12.1-5.25-23.15-18Q-14.85 4.1-18.3-8.65q-3.45-12.8 2.7-18.1 6.15-5.35 18.3-.05 12.15 5.25 23.2 18" fill="#565e07" transform="translate(49.35 54)"/></g><g id="b"><path d="m.15-18.7-.9-2.25-.5.1h-.1q-.8 0-1.3-.5-.55-.55-.55-1.25 0-.65.55-1.2.5-.5 1.3-.5t1.3.5q.55.55.55 1.2l-.05.45.05.35.55 3.8-.9-.7M-1.4 8.7l.6-1.4 1.25-.4-.3.9-.6.9h-.95m-4.85 9.45-.6.85-1.25 1.2.75 2.35q-1.05-.35-.85.55l-.05-.05-.35-.1-.35.1-.15.25.15.25q-.85-.05-.7.45l-.4-.4 1.8-2-.6-1.35 2.6-2.1m5.5-39.1L-.6-21l.55-.35-.7.4" fill="#412b3a" fill-rule="evenodd" transform="translate(14.5 24.5)"/><path d="m.5-21.8 3.2 5.3-2.2-.75.4 3.95.7 6.6.15 1.45-.1 11.9-.35-.45-.45-.65.1-1.5q.35-5.15.2-10.9L2.1-7.4l-.25-4.45-.8-6.15-.55-3.8m-2.8 37.75-.25.25-.1-.1.35-.15" fill="#424106" fill-rule="evenodd" transform="translate(14.5 24.5)"/><path d="M10.95-3.7v-.1l.45.05-.45.55v-.5" fill="#62620a" fill-rule="evenodd" transform="translate(14.5 24.5)"/><path d="M.25 3.05.4.85.7-2.8l.1-4.1-.1-3.55-.05-1.4-.25-3.8-.05-.1h.2l.1-.1L1-7.4Q.95-3.15.25 3.05" fill="#393b00" fill-rule="evenodd" transform="translate(14.5 24.5)"/><path d="M8.15-13.2q.6-.2 1.2 0l4.05.35 1.65 1.1v.25q-.1.55-.8.9-.95.55-3.3.75h-.65l-.5-.05-.15-.5 1.4.05 2.65-.9q.3-.7-1.3-1.45l-4.15-.15H8.2q-.2-.5-.05-.35m3.75 9.5h.05l2.25.65v.4l-.15.2-.6.35-.65.2-1.5.3-.2.05-.05-.55 1.8-.5q.35-.55-.95-1.1M-.15-11.25l.8-.6.05 1.4-.85-.8" fill="#a6a621" fill-rule="evenodd" transform="translate(14.5 24.5)"/><path d="M11.4-3.75h.05l.15-.05.3.1q1.3.55.95 1.1l-1.8.5-.1-1.1.45-.55M9.65-10.4l-.6-2.3-.3-.05-.5-.1 4.15.15q1.6.75 1.3 1.45l-2.65.9-1.4-.05" fill="#1b1d00" fill-rule="evenodd" transform="translate(14.5 24.5)"/><path d="m.1 4.15.25-1.4-.1.3Q.95-3.15 1-7.4l-.35-8.45q-.05-1.3-.5-2.85l.9.7.8 6.15-.6 15.95-1.15.05m-9 20.5-.75-.65q-.15-.5.7-.45l.35.15.35-.15.15-.25-.1-.2q-.2-.9.85-.55l.6 1.85q-1.45.75-2.15.25" fill="#826c7d" fill-rule="evenodd" transform="translate(14.5 24.5)"/><path d="m15.05-11.5.3 1.15v.05l.05.1v.15l.05.1v.1l-.1.55v.1l-.05.15-.1.65q-.8 1.45-3.35 2.3l-.85.15q.65-1 .7-1.8.05-1.3-1.4-2.1h.65q2.35-.2 3.3-.75.7-.35.8-.9M.4.85.2-1.2l.15-1.55.35-.05L.4.85M.8-6.9-.3-8.05v-3.05l.15-.15.85.8.1 3.55m14.55-2.4-.05.25.05-.25" fill="#383b03" fill-rule="evenodd" transform="translate(14.5 24.5)"/><path d="M1.85-11.85 2.1-7.4l.05.55q.15 5.75-.2 10.9l-.1 1.5.45.65-.45 2.1q-.2.05-.35.2-.25.15-.15.4l.15.45Q.3 12.6-2.65 16.1l-1.95.75L-6.85 19l.6-.85Q-1.6 13.5-.45 8.7l.6-.9.3-.9.8-2.45V4.1l.6-15.95" fill="#432d3c" fill-rule="evenodd" transform="translate(14.5 24.5)"/><path d="m-.8 7.3.7-1.95V5.3l.1-.1.1-1.05 1.15-.05v.35L.45 6.9l-1.25.4" fill="#b2a7b9" fill-rule="evenodd" transform="translate(14.5 24.5)"/><path d="M-2.65 16.1Q.3 12.6 1.5 9.35l-.15-.45q-.1-.25.15-.4.15-.15.35-.2l.45-2.1.35.45 7.65 9.75-.05.05q-.9 2.1-3.6 3.4v-.05l-6.3-3.4-1.6-.85-1.05.4-.35.15m7.5-1.95-.3-.15q-.2 0-.35.15l-.1.4.1.35.35.15.3-.2.15-.35-.15-.35m2.9 2.9.15-.35-.2-.4q-.15-.15-.45-.15l-.4.2-.1.4.15.3.4.15.45-.15m-5.95-5q-.25.05-.4.2l-.15.4.15.35.45.1.4-.15.2-.35-.2-.4-.45-.15" fill="#8f7c8e" fill-rule="evenodd" transform="translate(14.5 24.5)"/><path d="m1.8 12.05.45.15.2.4-.2.35-.4.15-.45-.1-.15-.35.15-.4q.15-.15.4-.2m5.95 5-.45.15-.4-.15-.15-.3.1-.4.4-.2q.3 0 .45.15l.2.4-.15.35m-2.9-2.9.15.35-.15.35-.3.2-.35-.15-.1-.35.1-.4q.15-.15.35-.15l.3.15m-13.8 9.4-.15-.25.15-.25.35-.1.35.1.05.05.1.2-.15.25-.35.15-.35-.15" fill-rule="evenodd" transform="translate(14.5 24.5)"/><path d="m9.2 23.05-.2.05q-.95.7-1.95 1.35l-.4-4.6q2.7-1.3 3.6-3.4l-1.05 6.6" fill="#2b182a" fill-rule="evenodd" transform="translate(14.5 24.5)"/><path d="M.3 29.35v-.1l.15-.05-.15.15" fill="#292400" fill-rule="evenodd" transform="translate(14.5 24.5)"/><path d="m-.75-20.95.7-.4-.55.35-.15.05" fill="url(#h)" fill-rule="evenodd" transform="translate(14.5 24.5)"/><path d="m-14.1 22.9.85-.3 2.15-2.05 1.05-.35q3.55-2.9 5.65-6l3-5.5h.95q-1.15 4.8-5.8 9.45l-2.6 2.1.6 1.35-1.8 2-4.05-.7" fill="#b4a9be" fill-rule="evenodd" transform="translate(14.5 24.5)"/><path d="M10.95-3.8v.6l.15 1.65.2-.05q1 .85-.45 3.3l-.75.35-.7.95 2.95 3.3-2.2 1.9.2 3.6-7.7-5.15.1-11.9L2.6-6.7l1.7.95.8 1.6 2.1.75 3.75-.4" fill="#91a800" fill-rule="evenodd" transform="translate(14.5 24.5)"/><path d="m.35 16.4 4.25 3 .1 1.55-3.2 2.5-7.8.85-.45-4.2 4.2-3.9.25-.25 1.05-.4 1.6.85" fill="#738700" fill-rule="evenodd" transform="translate(14.5 24.5)"/><path d="m14.05-2.45-.4.5q-1.75 3.3-1.85 5.9l2.1 3.45-1.2 2.4 2.4 5.35-1.8 6.7-4.1 1.2 1.05-6.6.05-.05-7.65-9.75 7.7 5.15-.2-3.6 2.2-1.9L9.4 3l.7-.95.75-.35q1.45-2.45.45-3.3l1.5-.3.65-.2.6-.35m-7 26.9-.65.45-4.65 4.15-1.15.1-.3.1-6.7.75-2.5-5.35q.7.5 2.15-.25l-.6-1.85-.75-2.35 1.25-1.2 2.25-2.15 1.95-.75.1.1-4.2 3.9.45 4.2 7.8-.85 3.2-2.5-.1-1.55-4.25-3 6.3 3.4v.05l.4 4.6M12.7 9.8l-.65 1.4.3.9-.3-.9.65-1.4" fill="#3a5000" fill-rule="evenodd" transform="translate(14.5 24.5)"/><path d="m.3 29.35-6.65 1-5.85-1.85-2-.3-.3-.6.3-4.65.1-.05 4.05.7.4.4.75.65L-6.4 30l6.7-.75v.1" fill="#273900" fill-rule="evenodd" transform="translate(14.5 24.5)"/><path d="m11-5.95-.45.1.4 2.05-3.75.4-2.1-.75-.8-1.6-1.7-.95-.7-6.6 1.65 3.75 1.7 1.45 2.7.8 3.75-.45q-.05.8-.7 1.8" fill="#6b7e00" fill-rule="evenodd" transform="translate(14.5 24.5)"/><path d="m3.7-16.5.9.9 3 .15.55 2.25q-.15-.15.05.35l.55.1.3.05.6 2.3.15.5.5.05q1.45.8 1.4 2.1l-3.75.45-2.7-.8-1.7-1.45L1.9-13.3l-.4-3.95 2.2.75" fill="#4f5f00" fill-rule="evenodd" transform="translate(14.5 24.5)"/><path d="m14.65 5.8-.9-2.25-.5.1h-.1q-.8 0-1.3-.5-.55-.55-.55-1.25 0-.65.55-1.2.5-.5 1.3-.5t1.3.5q.55.55.55 1.2l-.05.45.05.35L18.2 8l.9.9 3 .15.55 2.25q.6-.2 1.2 0l4.05.35 1.65 1.1V13l.3 1.15.05.15v.15l.05.1v.1l-.1.55v.1l-.05.15-.1.65q-.8 1.45-3.35 2.3l-.85.15-.45.1.4 2.05v.1-.1l.45.05m.55.05 2.25.65v.4l-.15.2-.4.5q-1.75 3.3-1.85 5.9l2.1 3.45-1.2 2.4 2.4 5.35-1.8 6.7-4.1 1.2-.2.05q-.95.7-1.95 1.35l-.65.45-4.65 4.15-1.15.1-.3.2-6.65 1L2.3 53l-2-.3-.3-.6.3-4.65.1-.05.85-.3 2.15-2.05 1.05-.35q3.55-2.9 5.65-6l3-5.5.6-1.4.7-1.95v-.05l.2-1.15.25-1.4-.1.3.15-2.2-.2-2.05.15-1.55.35-.05.1-4.1-1.1-1.15V13.4l.15-.15.8-.6-.25-3.8-.05-.1h.2l.1-.1q-.05-1.3-.5-2.85m9.5 8.3-.6-2.3-.3-.05-.55-.1q-.2-.5-.05-.35m.6.45-.5-.1m1.4 2.45.15.5m-9.15-1.95.05 1.4m14.7.25-.05-.1v-.05m-.05 1.3.05-.25m-4.4 6.1v-.5m0 .5.15 1.65.2-.05m2.15-.5.6-.35m-1.7 14.55-.3-.9.65-1.4m-2.45 6.65-1.05 6.6m-8.85-6.65-1.6-.85-1.05.4m-.35.15.35-.15m9.35 8.5-.4-4.6v-.05l-6.3-3.4m-.05 12.95.15-.15.15-.05m-9.5-4.5-.75-.65-.4-.4m2.7-1.05L6.4 44.7m-.8 4.45q.7.5 2.15-.25l-.6-1.85" fill="none" stroke="#000" stroke-linecap="round" stroke-linejoin="round" stroke-opacity=".882" stroke-width=".05"/><path d="m14.6 28.65-.1 1.05-.1.1" fill="none" stroke="#000" stroke-linecap="round" stroke-linejoin="round" stroke-opacity=".471" stroke-width=".05"/><path d="m.5-23.25-.75.6-.95.15q-.5-.1-.7-.45l.05-.8.7-.6 1-.15.7.45-.05.8" fill="#836c7c" fill-rule="evenodd" transform="translate(14.5 24.5)"/><path d="m-.8-24.05.05.25q-.05.2-.2.3l-.4.1-.3-.1v-.3l.25-.3.35-.1q.15 0 .25.15" fill="#d5d5e7" fill-rule="evenodd" transform="translate(14.5 24.5)"/></g><g id="c"><path d="M95.4 110.65h1.15q7.45 0 12.7-5.3 5.3-5.25 5.3-12.7t-5.3-12.75q-5.25-5.25-12.7-5.25T83.8 79.9q-5.25 5.3-5.25 12.75t5.25 12.7l2.65 2.2q5.8 17.6 1.8 40.75-20.3-2.1-35.3-17.1-17.4-17.4-17.4-42.05t17.4-42.1q17.45-17.4 42.1-17.4t42.05 17.4q17.45 17.45 17.45 42.1T137.1 131.2q-17.1 17.15-41.2 17.45 4-20.15-.5-38" fill="url(#i)" fill-rule="evenodd" transform="translate(-35.55 -29.65)"/><path d="M95.4 110.65q4.5 17.85.5 38-2.25 11.3-7.15 23.35H82.1q4.2-12.5 6.15-23.7 4-23.15-1.8-40.75 3.95 2.8 8.95 3.1" fill="#6f6f00" fill-rule="evenodd" transform="translate(-35.55 -29.65)"/><path d="m86.45 107.55-2.65-2.2q-5.25-5.25-5.25-12.7T83.8 79.9q5.3-5.25 12.75-5.25t12.7 5.25q5.3 5.3 5.3 12.75t-5.3 12.7q-5.25 5.3-12.7 5.3H95.4q-5-.3-8.95-3.1" fill="#3c3c00" fill-rule="evenodd" transform="translate(-35.55 -29.65)"/><path d="M95.4 110.65q4.5 17.85.5 38-2.25 11.3-7.15 23.35m-.5-23.7q4-23.15-1.8-40.75M82.1 172q4.2-12.5 6.15-23.7" fill="none" stroke="#3c3c00" stroke-linecap="round" stroke-linejoin="round" transform="translate(-35.55 -29.65)"/><path d="m86.45 107.55-2.65-2.2q-5.25-5.25-5.25-12.7T83.8 79.9q5.3-5.25 12.75-5.25t12.7 5.25q5.3 5.3 5.3 12.75t-5.3 12.7q-5.25 5.3-12.7 5.3H95.4m-8.95-3.1q3.95 2.8 8.95 3.1z" fill="none" stroke="#090900" stroke-linecap="round" stroke-linejoin="round" transform="translate(-35.55 -29.65)"/></g><g id="d" fill-rule="evenodd"><path d="M61.95 73.95q2.5 0 4.25 1.75t1.75 4.25-1.75 4.25-4.25 1.75-4.25-1.75-1.75-4.25 1.75-4.25 4.25-1.75" fill="#d5d5e7"/><path d="M63.95 0v77h-4V0h4" fill="url(#j)"/><path d="M140.95 81h-77v-4h77v4" fill="url(#k)"/><path d="M100.8 148.25 59.95 83.1 63.3 81l40.85 65.15-3.35 2.1" fill="url(#l)"/><path d="M1.8 125.5 61.45 77l2.5 3.1L4.3 128.6l-2.5-3.1" fill="url(#m)"/><path d="m2.45 32.25 60.4 47.4-2.45 3.15L0 35.4l2.45-3.15" fill="url(#n)"/></g><g id="e" fill-rule="evenodd"><path d="m-11.35-.65 5.25-.3q4-.1 5.3.75l.4.5-1.85 1Q-3 1.65-6 1.3l-4.65-.8-1.95-.6q-.05-.35 1.25-.55" fill="#d5d5e7" transform="translate(13.1 1.5)"/><path d="m-12.55-.7 1-.25 3.7-.35 2-.2Q-1.8-1.25.25 0l-.2.55-.2.35-1.8.6q-2.2.35-4.4.05-3.6-.05-6.75-1.6l.55-.65m1.2.05q-1.3.2-1.25.55l1.95.6 4.65.8q3 .35 3.75 0L-.4.3l-.4-.5q-1.3-.85-5.3-.75l-5.25.3" fill="#838369" transform="translate(13.1 1.5)"/></g><g id="f" fill-rule="evenodd"><path d="M-.95-.95q.4-.4.95-.4t.95.4.4.95-.4.95-.95.4-.95-.4-.4-.95.4-.95M.6-.6 0-.85l-.6.25-.25.6.25.6.6.25L.6.6.85 0 .6-.6" fill="#8b7100" transform="translate(1.35 1.35)"/><path d="m.6-.6.25.6L.6.6 0 .85-.6.6-.85 0l.25-.6.6-.25.6.25" fill="#b3a50e" transform="translate(1.35 1.35)"/></g><g id="g"><path d="m-3.4 19.35-.55-.15-.5 4.25 6.35-.75q-1.5-2.2-5.3-3.35m-9.7 5.1-2.45-3.1q-1.7 1.9-2.25 4.4 2.65-1.1 4.7-1.3" fill="#d5cbc8" fill-rule="evenodd" transform="translate(17.8 -14.4)"/><path d="M-3.4 19.35q-.75-1.95-1.3-4.55-1.85.8-4.5 3.65-3.85-1.1-7.45-1.4 1.6 2.35 2.45 4.35l-1.35-.05 2.45 3.1 4.65.5q-.2-1.45-2.3-2.7l3-2.05 1.65.35-.9.55-1.05 1.4-.05 2.35q1.6-.95 3.65-1.4l.5-4.25.55.15" fill="#bb9b82" fill-rule="evenodd" transform="translate(17.8 -14.4)"/><path d="M3.6 7q-.85-2-2.45-4.35 3.6.3 7.45 1.4Q11.25 1.2 13.1.4q.55 2.6 1.3 4.55l-.55-.15m-.5 4.25 6.35-.75q-1.5-2.2-5.3-3.35M9.35 10.55l-4.65-.5q-2.05.2-4.7 1.3.55-2.5 2.25-4.4" fill="none" stroke="#745d51" stroke-linecap="round" stroke-linejoin="round" stroke-width=".05"/><path d="m-12.7 20.1-3.1 1.25q1.65 1.75 2.75 2l1.85.05q-2.15-1.65-1.5-3.3m3.95-4.4-2.15 2.6q2.3-.5 4.6.05V18q.05-1.2-2.45-2.3m5 3.1q.05 1.8-1.35 3.65l1.85-.3q1-.4 2.45-2.75l-2.95-.6" fill="#775b4a" fill-rule="evenodd" transform="translate(17.8 -14.4)"/><path d="M-5.85 22.15q2.05-.2 2.9-1.8.8-3.35-.75-5.1-.1 4.15-2.15 6.9" fill="url(#o)" fill-rule="evenodd" transform="translate(17.8 -14.4)"/><path d="M-3.7 15.25q-1.75 2.7-4.1 4.5 1.05 2.55 1.95 2.4 2.05-2.75 2.15-6.9" fill="#382417" fill-rule="evenodd" transform="translate(17.8 -14.4)"/><path d="M-11.25 20.85q-1.05-2.5 1.05-6.45-2.55 3-2.4 6.15.6.55 1.35.3" fill="url(#p)" fill-rule="evenodd" transform="translate(17.8 -14.4)"/><path d="M-10.2 14.4q-2.1 3.95-1.05 6.45 2.55-.2 5.95-2-3.75-1.4-4.9-4.45" fill="#382417" fill-rule="evenodd" transform="translate(17.8 -14.4)"/><path d="M-14.8 17.05q-.2 2.45 1.7 5.3 1.4 1.2 3.45.3-2.45-1.15-5.15-5.6" fill="url(#q)" fill-rule="evenodd" transform="translate(17.8 -14.4)"/><path d="M-14.8 17.05q2.7 4.45 5.15 5.6l1.3-.7q-3.75-1.8-6.45-4.9" fill="#382417" fill-rule="evenodd" transform="translate(17.8 -14.4)"/><path d="M-10.15 22.35q1.15.85 2.5.6 1.3-.25 2.1-1.45.75-1.05.5-2.35-.25-1.35-1.4-2.2-1.15-.7-2.45-.45-1.35.25-2.15 1.3-.75 1.2-.5 2.55.25 1.3 1.4 2" fill="#d5af01" fill-rule="evenodd" transform="translate(17.8 -14.4)"/><path d="m-10.3 18.8.45.3.65-.5.4-.75.05-.75q-.2-.25-.5-.2-.35.05-.6.4l-.5.85.05.65" fill="#d5cec7" fill-rule="evenodd" transform="translate(17.8 -14.4)"/><path d="m-7.05 23.45 2.5-.8q-.8-2.05-3.7-3.75-2.25 1.55-2.7 4.7l3.9-.15" fill="url(#r)" fill-rule="evenodd" transform="translate(17.8 -14.4)"/><path d="m-12.3 23.35 3.9.45q-2.1-.75-3.3-1.55l-.6 1.1m8.9-1.5-.95-.85q-.85 1.3-2.6 2.75.9.05 3.55-1.9" fill="#5e4239" fill-rule="evenodd" transform="translate(17.8 -14.4)"/></g><radialGradient id="i" cx="0" cy="0" r="819.2" gradientTransform="translate(95.05 89.15) scale(.0731)" gradientUnits="userSpaceOnUse"><stop stop-color="#a2a2b4" offset=".514"/><stop stop-color="#d5d5e7" offset=".984"/></radialGradient></defs></svg>