<svg viewBox="0 0 44.01 58.644" xmlns="http://www.w3.org/2000/svg" xmlns:xlink="http://www.w3.org/1999/xlink"><g transform="translate(-268.46 -177.42)"><use transform="matrix(.1555 .053 -.053 .1555 289.4 177.46)" width="59.45" height="45.95" xlink:href="#a"/><use transform="translate(276.51 180.08) scale(.1645)" width="59.45" height="45.95" xlink:href="#a"/><use transform="translate(281.51 177.92) scale(.1645)" width="59.45" height="45.95" xlink:href="#a"/><use transform="translate(268.45 182.2)" width="29.45" height="46.1" xlink:href="#b"/><use transform="translate(287.56 180.78) scale(.1645)" width="59.45" height="45.95" xlink:href="#a"/><use transform="matrix(.6366 .2296 -.3389 .9397 276.05 191.08)" width="15.5" height="7.05" xlink:href="#c"/><use transform="matrix(.5555 .2248 -.4336 1.0714 279.66 192.71)" width="15.5" height="7.05" xlink:href="#c"/><use transform="matrix(.6366 .2296 -.3389 .9397 277.1 187.93)" width="15.5" height="7.05" xlink:href="#c"/><use transform="translate(276.51 181.32) scale(.1645)" width="59.45" height="45.95" xlink:href="#a"/><use transform="matrix(.7028 0 0 1 290.3 190.35)" width="15.5" height="7.05" xlink:href="#c"/><use transform="translate(282.46 181.58) scale(.1645)" width="59.45" height="45.95" xlink:href="#a"/><use transform="matrix(.6366 .2296 -.3389 .9397 277.05 182.93)" width="15.5" height="7.05" xlink:href="#c"/><use transform="matrix(.5042 .2041 -.6214 1.5354 280.87 184.64)" width="15.5" height="7.05" xlink:href="#c"/><use transform="matrix(.512 0 0 .9543 292.13 186.01)" width="15.5" height="7.05" xlink:href="#c"/><use transform="translate(282.3 186.6)" width="15.5" height="7.05" xlink:href="#c"/><use transform="matrix(1.0548 0 0 1.6839 281.48 189.96)" width="15.5" height="7.05" xlink:href="#c"/><use transform="matrix(.1555 .053 -.053 .1555 300.4 176.96)" width="59.45" height="45.95" xlink:href="#a"/><use transform="translate(292.51 177.42) scale(.1645)" width="59.45" height="45.95" xlink:href="#a"/><use transform="translate(287.51 179.58) scale(.1645)" width="59.45" height="45.95" xlink:href="#a"/><use transform="translate(288.05 181.9)" width="20.7" height="54.15" xlink:href="#d"/><use transform="matrix(.7028 0 0 1 301.55 191.75)" width="15.5" height="7.05" xlink:href="#c"/><use transform="translate(293.8 193.75)" width="15.5" height="7.05" xlink:href="#c"/><use transform="translate(287.51 180.82) scale(.1645)" width="59.45" height="45.95" xlink:href="#a"/><use transform="translate(298.56 180.28) scale(.1645)" width="59.45" height="45.95" xlink:href="#a"/><use transform="matrix(.6366 .2296 -.3389 .9397 287.05 190.58)" width="15.5" height="7.05" xlink:href="#c"/><use transform="matrix(.5555 .2248 -.4336 1.0714 290.66 192.21)" width="15.5" height="7.05" xlink:href="#c"/><use transform="matrix(.6366 .2296 -.3389 .9397 288.1 187.43)" width="15.5" height="7.05" xlink:href="#c"/><use transform="matrix(.7028 0 0 1 301.3 187.85)" width="15.5" height="7.05" xlink:href="#c"/><use transform="matrix(.6366 .2296 -.3389 .9397 288.05 182.43)" width="15.5" height="7.05" xlink:href="#c"/><use transform="matrix(.7393 .2992 -.7608 1.8798 290.53 182.2)" width="15.5" height="7.05" xlink:href="#c"/><use transform="translate(293.31 181.38) scale(.1645)" width="59.45" height="45.95" xlink:href="#a"/><use transform="matrix(.7028 0 0 1 299.25 183.6)" width="15.5" height="7.05" xlink:href="#c"/><use transform="translate(293.3 185.1)" width="15.5" height="7.05" xlink:href="#c"/><use transform="matrix(1.3097 0 0 1.6839 291.45 187.01)" width="15.5" height="7.05" xlink:href="#c"/></g><defs><g id="a"><path d="m-2-7.5.15.2.15.3-.7-2.4q-.75-2.2-.8-4.8l.45 1.1.6 1.65q.5 1.5 1.1.9l-.1.25v.05Q-1.7-9-1.2-9.9l.1-.25Q1.05-2.85.95-6.7v-5.4l.15-.3q.2.35.3-.25l.4-3.45.45 2.5.55 2.1.1-.3.3-1.5q.1-.85.45-.9l.15.6.1.9.05.6v-.9q-.05-1.05.05-2.1v-5.75q-.1-1.45.2-2.1 0 1.85.25 3.6Q5.7-9.85 9-3.15l.6 1.45.15.35-.05.1h.1-.1l.05-.1Q11.3-6 10.1-14.2h.7q.5 7 .1 12.85l-.1.25q-.05.2.05.35l-.05.3.35-.45.05-.6.05-.05.1.3.3 1.2.3-.3.1-.6.3-1.5.15.3.2.6q.05.3.25.45.1.15.25.15l.05-.6.05-.3v-.3l.15.3.05.9.1.9.3 2.1.25-.95.3-3.25v-.55h.1q.9 4.9 2.1 9.6h.6q.2-.05.4.15L19 7.5l1.15-2.4q1.95-4.45 2.3-7.05.4-2.6.5 5.25.05 7.8.9 7.8.65 0 1.15.9l-.9.7q-.85.35-1.35 1.7.65.6 1.4.4l.95-.25q.4-.1.3.75-1.1-.1-2.1.4l-.3.2q-.5.45-.4 1.55h3.1l-4.75.3-3.45-.7-1.1-1.3-.05.1q-.2.4 0 .95l-.45-.1-.5-1.1-.9-1.95-.45-1.35v1.35q-.75-1.05-1.35-2.55v1.8l-.6-2.1q.1.75-.15.9l-.35-1.2-.1-.4v.55q-.1.35-.35-.3-.35-1-.55-2.55l-.05 1.7-.4 3.1-.35-1.05q-.4-1.8-.4-.6l-.05.05-.8-2.3-.05 1.05-1-2.1-.15 1.8-.9-1.35-.15.9-.8-1.65-.1 1.35-1.1-2.9-.25 2.6-.75-2.25.05 2.7-.05-.15q-.5-.7-.7-2.25V9l-.7-1.65V8.4q.05 1.8-.2 1.5l-.3-.75q-.65-.4-1.05-1.5l.4 2.7-.4-.4q-.85-1.05-.85.4l.05.15q-.3.2-.55-.3l.15.75-.05.15-1.5-1.05.35 2.35-1.15-.7-.75-1.8-.7 1.8-1.65-3-1.2-2.9-.5-1.65 3.25 1.2-.6-3-2.4-1.5-1.7-5.25-.25-4.1 2 4.45q.45 1.05 1.1 1.5.35.25.6-.45.2-.65.55.2v.05l.1.3-.1-.35-.2-1.15v-1.1l.9.1.25-.25-.2-.6-.45-1.55-.2-.75q.9 1.8 2 2.9l1.15 1.1q.2.15.4-.15.1-.2.05-.55l-.35-2.65.1-.05M10.1-.75v2.2h.7v-1.9 1.9h-.7v-2.2l.15-.65-.35.1q.1-.2-.15 0l.05.05v.05l.05.1.25.35M6-10.15l-.35 2.1v.25l.05 1.1v.3l.1.3q.2 1.5.8 2.6l.45.75.2.35.3.85q.15.9.55 1.2h.1q.25.05.4-.45l.25-.7-.35-.9-.35-.6-.05-.2-.5-1.2-.4-1-.15-.3-.4-.9-.15-.45q-.35-.9-.45-2.05-.1-.55-.05-1.05M9.75-1.3v-.05.05l-.05.05.05-.05m1.1.55q-.1-.15-.05-.35l.1-.25-.05.6m-23.7 9.8 2.15 2.35.5.6q.55.8.7 1.8l.05.3q.25-1.55-.05-3.05l.9 1.2 2.5 2.4 2.3 1.55 2.6 2q.5.6 1.25.6l.7-.3L1.8 17l1.15-2.3h.1q1.05 2.35 3.1 3.7l.25-.15.45-.8.45-.95 1.85 2 .7.2.9.25.1.3q0 .45-.6.45l-5.6-.55L3.6 19l-3.15.3-.45.15-.9.1-6.75.2-1.2.15-.35.1-.4.2q-.45.6-.8.6-.3.1-.6-.2l-1.55-1.75-.2-.45-.1-.2q-.4-.05-.45.35h-.05q.1-2.6-.4-5.2-.3-1.45-.95-2.7l-.6-.7-2.45-2.3.1-.15q1.9.8 3.45 2 .85.65 1.35 1.45l.3.35-.05-1.2q0-.45-.25-.95v-.1M15.55 5l-.5-2.65L14.8.1l-.1-.6v3.4l-.05.2q-.3.65-.3 1.5v.1h.6l.5.5.1.7.05.15.15.6-.1-1.2-.1-.45" fill="#8a836e" fill-rule="evenodd" transform="translate(29.7 22.95)"/><path d="m-9.45-4.4 1.7 5.25 2.4 1.5.6 3L-8 4.15l.5 1.65 1.2 2.9 1.65 3 .7-1.8.75 1.8 1.15.7-.35-2.35 1.5 1.05.05-.15-.15-.75q.25.5.55.3l-.05-.15q0-1.45.85-.4l.4.4-.4-2.7q.4 1.1 1.05 1.5l.3.75q.25.3.2-1.5V7.35L2.6 9V6.45Q2.8 8 3.3 8.7l.05.15-.05-2.7.75 2.25.25-2.6 1.1 2.9.1-1.35L6.3 9l.15-.9.9 1.35.15-1.8 1 2.1.05-1.05.8 2.3.05-.05q0-1.2.4.6l.35 1.05.4-3.1.05-1.7q.2 1.55.55 2.55.25.65.35.3v-.55l.1.4.35 1.2q.25-.15.15-.9l.6 2.1v-1.8q.6 1.5 1.35 2.55V12.3l.45 1.35.9 1.95.5 1.1.45.1q-.2-.55 0-.95l.05-.1 1.1 1.3 3.45.7 4.75-.3h4.05l-12.3 3.45q-6.7-.3-13.25 1.65l-.05.3.05-.3v.3h-.05l-7.3.1q-8.95.4-17.2-3.85l-1-.55-.3-1.1 5.35-.95 1-1.7-14.4-17.1 11.15 7.8.05-.3-.65-.15.1-7.25.1.05.05 3.3L-17.25-10q.4 5.2 1.8 9.65l.3-3.9L-15-3q.25 1.8.95 2.7l.45.6.4-1.25v-.4l.05-.15.1.4 1.25-10.35 2.5 8.7-.15-1.65M6-10.15q-.05.5.05 1.05.1 1.15.45 2.05l.15.45.4.9.15.3.4 1 .5 1.2.05.2.35.6.35.9-.25.7q-.15.5-.4.45h-.1q-.4-.3-.55-1.2l-.3-.85-.2-.35-.45-.75Q6-4.6 5.8-6.1l-.1-.3v-.3l-.05-1.1v-.25l.35-2.1m-18.85 19.3q.25.5.25.95l.05 1.2-.3-.35q-.5-.8-1.35-1.45-1.55-1.2-3.45-2l-.1.15 2.45 2.3.6.7q.65 1.25.95 2.7.5 2.6.4 5.2h.05q.05-.4.45-.35l.1.2.2.45L-11 20.6q.3.3.6.2.35 0 .8-.6l.4-.2.35-.1 1.2-.15 6.75-.2.9-.1.45-.15L3.6 19l1.05.15 5.6.55q.6 0 .6-.45l-.1-.3-.9-.25-.7-.2-1.85-2-.45.95-.45.8-.25.15q-2.05-1.35-3.1-3.7h-.1L1.8 17 .75 18.5l-.7.3q-.75 0-1.25-.6l-2.6-2-2.3-1.55-2.5-2.4-.9-1.2q.3 1.5.05 3.05l-.05-.3q-.15-1-.7-1.8l-.5-.6-2.15-2.35v.1m-.5 9.4v.4l.05-.4-.05.4v-.4m3.85-7.5-.75-1.4-.15-.5.15.5.75 1.4m-4.7-3.55q.85.5 1.35 1.55-.5-1.05-1.35-1.55m-3.45 0-.7-.45.6.6-.6-.6.7.45M15.55 5l.1.45.1 1.2-.15-.6-.05-.15-.1-.7-.5-.5h-.6v-.1q0-.85.3-1.5l.05-.2V-.5l.1.6.25 2.25.5 2.65m-12.5 9.7L3 14.55l-.05.15.05-.15.05.15" fill="#8e8977" fill-rule="evenodd" transform="translate(29.7 22.95)"/><path d="m39.45 21.6-.15-.35-.6-1.45q-3.3-6.7-4.55-16.2-.25-1.75-.25-3.6-.3.65-.2 2.1v5.75q-.1 1.05-.05 2.1v.9l-.05-.6-.1-.9-.15-.6q-.35.05-.45.9l-.3 1.5-.1.3-.55-2.1-.45-2.5-.4 3.45q-.1.6-.3.25l-.15.3v5.4q.1 3.85-2.05-3.45l-.1.25q-.5.9.05-.35v-.05l.1-.25q-.6.6-1.1-.9l-.6-1.65-.45-1.1q.05 2.6.8 4.8l.7 2.4-.15-.3-.15-.2-.15-.1.05.15.35 2.65q.05.35-.05.55-.2.3-.4.15l-1.15-1.1q-1.1-1.1-2-2.9l.2.75.45 1.55.2.6-.25.25-.9-.1V19l.2 1.15.1.35-.1-.3v-.05q-.35-.85-.55-.2-.25.7-.6.45-.65-.45-1.1-1.5l-2-4.45.25 4.1M55.4 40.4h-3.1q-.1-1.1.4-1.55l.3-.2q1-.5 2.1-.4.1-.85-.3-.75l-.95.25q-.75.2-1.4-.4.5-1.35 1.35-1.7l.9-.7q-.5-.9-1.15-.9-.85 0-.9-7.8-.1-7.85-.5-5.25-.35 2.6-2.3 7.05l-1.15 2.4-1.35-.45q-.2-.2-.4-.15h-.6q-1.2-4.7-2.1-9.6l-.1-.8V18.4m0 1.85v.55l-.3 3.25-.25.95-.3-2.1-.1-.9-.05-.9-.15-.3v.3l-.05.3-.05.6q-.15 0-.25-.15-.2-.15-.25-.45l-.2-.6-.15-.3-.3 1.5-.1.6-.3.3-.3-1.2-.15-.45v.2l-.05.6-.35.45.05-.3.05-.6.15.3.1.15m-1.05.15-.25-.35-.05-.1v-.05h-.1l.05-.1q1.55-4.65.35-12.85h.7q.5 7 .1 12.85l-.1.25q-.05.2.05.35m-.95-.55-.1.1m0-.05-.05-.05-.05.05m.05-.1v.05q.25-.2.15 0l.35-.1-.15.65m-.3-.5.1-.05m4.55-1.4v-.8M17.9 11.5v-.65.65l2.5 8.7-.15-1.65m-9.5 2.25v-.6l-.1.55-.1 7.25.65.15-.05.3L0 20.65l14.4 17.1-1 1.7-5.35.95.3 1.1 1 .55q8.25 4.25 17.2 3.85l7.3-.1.05-.3q6.55-1.95 13.25-1.65l12.3-3.45H55.4M10.75 20.8l.05 3.3 1.65-11.15q.4 5.2 1.8 9.65l.3-3.9.15 1.25q.25 1.8.95 2.7l.45.6.4-1.25v-.4l.05-.15.1.4L17.9 11.5m10.65 1.2.05.1q.35-.75.1-.45l-.05.05m-4.3 2.45-.45-.7m9.95 31.65h.05" fill="none" stroke="#29251a" stroke-linecap="round" stroke-linejoin="round" stroke-opacity=".451" stroke-width=".05"/><path d="m35.7 12.8-.35 2.1v.25l.05 1.1v.3l.1.3q.2 1.5.8 2.6l.45.75.2.35.3.85q.15.9.55 1.2h.1q.25.05.4-.45l.25-.7-.35-.9-.35-.6-.05-.2-.5-1.2-.4-1-.15-.3-.4-.9-.15-.45q-.35-.9-.45-2.05-.1-.55-.05-1.05M16.85 32v.1m-4.9-1.5-.6-.6.7.45m4.8 1.55q-.5-1.05-1.35-1.55m3.8 1.65.15.5.75 1.4m-3.8 7.5-.05.4v-.4m28.9-13.55-.5-2.65-.25-2.25-.1-.6v3.4l-.05.2q-.3.65-.3 1.5v.1h.6l.5.5.1.7.05.15.15.6-.1-1.2-.1-.45m-12.6 9.7.05-.15.05.15" fill="none" stroke="#29251a" stroke-linecap="round" stroke-linejoin="round" stroke-opacity=".451" stroke-width=".05"/><path d="M10.8-.45v1.9h-.7v-2.2" fill="none" stroke="#29251a" stroke-linecap="round" stroke-linejoin="round" stroke-opacity=".451" transform="translate(29.7 22.95)"/></g><g id="b"><path d="m281.95 200.8-.2-2.15q.65.55.9 1.5l-.7.65m0-6.8.05-1.75.05-.8.15-3.55.85 4.6.65 3.4-.05.7.05-.7.1.7h-.15v.45l.2 1.65.05.3.15.4-.2.5.2-.5.2.45h-.1l-.3.05-1.2.25.1-2.95-.1-2.8q-.05-1.2-.55-2.05l-.1-.1.05.05v.95l-.1.75m.1-1.7v-.85.85" fill="#1f101f" fill-rule="evenodd" transform="translate(-268.45 -182.2)"/><path d="M297.1 193.8q.2.65.8.7-.9.1-1 1.2l.05.7.1.55q-.5-.8-1.35-.2l.1.05h-.2l-.25.3q-.3.55-.35 1.2-.45-.65-1.1-.75h-1q-1 .2-1.1 1.35l-.05.3q-.75-1.15-1.95-1.55-.75-.25-.9.25l-.1.3q0 .6.65.95l.4.15-1.55-.2v-.9q-.1-.25-.35-.2l-.45.1q-.4.15-.5.6-.15.8.25 1.45-.65-.95-2.05-.9-.65.05-.65.6l.05.25.15.35-.5-.6-.2-.45-.15-.4-.05-.3-.2-1.65v-.45h.15l-.1-.7-.65-3.4.4.6.2.35.5.65q.85.9.2 1.85l-.25.4.85.1.8-.35.05-.35q.45.65 1.55.35.5-.4.45-.95.35 1.35 1.75.9.7-.25.55-1.05.6.9 1.85.55l.5-.25q.65-.45.5-1.2.5.55 1 .55l.75-.3.2-.25.2-.45q.1-.85.9-.1l.4-1.5.35.8.15.95h.2m-15.4 4.8-.55-.3q0 .55-.55.8.05-.85.55-.8l-.1-.4q-.15-.6-.7-.55-1.2.1-1.25 1.3l.1-1.2q.2-1.8-1.4-2.2l.95-.75.95-1.6.1-.3q-.15.95.25 1.5l.35.15q.7.05.75-.7v.05q-.05.6.05 1.05l.75-.65.1-.75v-.95l.05.05q.5.85.55 2.05l.1 2.8-.1 2.95q-.25-.95-.9-1.5v-.05h-.05m13.9-1.8.05-.05h.05-.05l-.05.05" fill="#fff" fill-rule="evenodd" transform="translate(-268.45 -182.2)"/><path d="m296.65 192.05.1.8-.35-.8h.25m-16.95.85v-.3h.1l-.1.3m10.55-.55q-.4-1.05.65-.75l.3.3q.5.8-.2 1.35-.5-.25-.75-.9m-7.6 7.8v.1-.1" fill="#643265" fill-rule="evenodd" transform="translate(-268.45 -182.2)"/><path d="m282.05 184.5 1.4-1.45h1.75q1.35-.2 2.7 0l3.3.05q1.65.05 2.5.45.8.35.7.9l-1.6.95-2.55.35-6.05-.15h-.15q-.9-.15-1.65-.75l-.35-.35" fill="#44421c" fill-rule="evenodd" transform="translate(-268.45 -182.2)"/><path d="M285.2 183.05h-1.75l-1.4 1.45.35.35q.75.6 1.65.75h.15l6.05.15 2.55-.35 1.6-.95q.1-.55-.7-.9-.85-.4-2.5-.45l-3.3-.05q-1.35-.2-2.7 0m-5.5 9.55.85-8.6q.25-.7 1.75-1.3.85-.35 2.4-.45l6.65.05 2.5.6h.1l1.35 1 .25.4 1.1 7.75h-.25l-.4 1.5q-.8-.75-.9.1l-.2.45-.2.25-.75.3q-.5 0-1-.55.15.75-.5 1.2l-.5.25q-1.25.35-1.85-.55.15.8-.55 1.05-1.4.45-1.75-.9.05.55-.45.95-1.1.3-1.55-.35l-.05.35-.8.35-.85-.1.25-.4q.65-.95-.2-1.85l-.5-.65-.2-.35-.4-.6-.85-4.6-.15 3.55-.05.8-.05 1.75-.75.65q-.1-.45-.05-1.05v-.05q-.05.75-.75.7l-.35-.15q-.4-.55-.25-1.5h-.1m13.4 22.75.25 2.7-.2.25-3.9 1.25-3.55-2.15-.7-5.9q-.15 1.45-3 4.2l-.1-.05.55-1.8q.55-.7.35-5.15l-.05-1.15-.2-4.65 2.1.85 3.85.3.1.3.55 1.6q1.95 5.95 3.95 9.4m-2.85-23q.25.65.75.9.7-.55.2-1.35l-.3-.3q-1.05-.3-.65.75" fill="#e6e4c4" fill-rule="evenodd" transform="translate(-268.45 -182.2)"/><path d="M293.9 197.55q-.7 2.6-.85 4.5l.05 13.3q-2-3.45-3.95-9.4l-.55-1.6-.1-.3-3.85-.3-2.1-.85v-.2l-.05-.45-.55-1.45.7-.65 1.2-.25.3-.05h.1l.5.6-.15-.35-.05-.25q0-.55.65-.6 1.4-.05 2.05.9-.4-.65-.25-1.45.1-.45.5-.6l.45-.1q.25-.05.35.2v.9l1.55.2-.4-.15q-.65-.35-.65-.95l.1-.3q.15-.5.9-.25 1.2.4 1.95 1.55l.05-.3q.1-1.15 1.1-1.35h1m-11.25 2.6v.1-.1" fill="#928d3d" fill-rule="evenodd" transform="translate(-268.45 -182.2)"/><path d="m268.55 222.7.1-.6q0-1.45 1.9-2.5 2.85-1.3 7.25-1.6l1.55-.9v-.05l1.95-1.1q1.8 1.95 4.3 3.2-1.55 2.15-5.6 3l-.65.2-3.3.95-.6.15-.9.25-1.25.1h-.95q-1.95.1-3.8-1.1" fill="#d0cd91" fill-rule="evenodd" transform="translate(-268.45 -182.2)"/><path d="M293.15 218.3q.4 1.8.3 4.35l-.15.5q-1.35.95-3 1.45l-3.75.6-11.35 1.85q-3.7-.35-5.2-1.15l-.65-.5q-.65-.8-.8-1.75v-.95q1.85 1.2 3.8 1.1h.95l1.25-.1.9-.25.6-.15 3.3-.95.65-.2q4.05-.85 5.6-3-2.5-1.25-4.3-3.2l.6-.3-.05.2.15-.15q2.85-2.75 3-4.2l.7 5.9 3.55 2.15 3.9-1.25" fill="#989441" fill-rule="evenodd" transform="translate(-268.45 -182.2)"/><path d="m293.3 223.15-.35 1.45-2.15 1-.25.1-3.75.65-11.6 1.9-.15-.05q-4.8-.55-5.6-1.55h-.05l-.05-.05-.15-.2-.45-.8q-.35-.8-.2-1.95.15.95.8 1.75l.65.5q1.5.8 5.2 1.15l11.35-1.85 3.75-.6q1.65-.5 3-1.45" fill="#5a5827" fill-rule="evenodd" transform="translate(-268.45 -182.2)"/><path d="m13.6 2.3.35.35q.75.6 1.65.75h.15l6.05.15 2.55-.35 1.6-.95q.1-.55-.7-.9-.85-.4-2.5-.45l-3.3-.05q-1.35-.2-2.7 0m-5.5 9.55.85-8.6q.25-.7 1.75-1.3.85-.35 2.4-.45L22.9.1l2.5.6h.1l1.35 1 .25.4 1.1 7.75.1.8m-2.85 4.7q-.7 2.6-.85 4.5l.05 13.3.25 2.7-.2.25q.4 1.8.3 4.35v.45l-.15.05-.35 1.45-2.15 1-.25.1-3.75.65-11.6 1.9L6.6 46q-4.8-.55-5.6-1.55H.95L.9 44.4l-.15-.2-.45-.8q-.35-.8-.2-1.95v-.95l.1-.6q0-1.45 1.9-2.5 2.85-1.3 7.25-1.6l1.55-.9m0-.05 1.95-1.1.6-.3.55-1.8q.55-.7.35-5.15l-.05-1.15-.2-4.65m0-.2-.05-.45-.55-1.45-.2-2.15v-.05m-2.05-5.7v-.3m2.25 1.4.05-1.75.05-.8.15-3.55.85 4.6m.65 3.4-.65-3.4m.65 3.4.1.7m-1.8 19.1q2.85-2.75 3-4.2l.7 5.9 3.55 2.15 3.9-1.25M.1 41.45q.15.95.8 1.75l.65.5q1.5.8 5.2 1.15L18.1 43l3.75-.6q1.65-.5 3-1.45l.15-.5M13.55 33.5l-.15.15.05-.2" fill="none" stroke="#350035" stroke-linecap="round" stroke-linejoin="round" stroke-width=".1"/><path d="m28.3 10.65.35.9v.05q.2.65.8.7-.9.1-1 1.2l.05.7.1.55q-.5-.8-1.35-.2h-.05l-.05.05-.25.3q-.3.55-.35 1.2-.45-.65-1.1-.75m-12.15 1.1-.05-.05-.55-.3q0 .55-.55.8.05-.85.55-.8l-.1-.4q-.15-.6-.7-.55-1.2.1-1.25 1.3l.1-1.2q.2-1.8-1.4-2.2l.95-.75.95-1.6m.1-.3q-.15.95.25 1.5l.35.15q.7.05.75-.7v.05q-.05.6.05 1.05l.75-.65m1.1-1.5.4.6.2.35.5.65q.85.9.2 1.85l-.25.4.85.1.8-.35.05-.35q.45.65 1.55.35.5-.4.45-.95.35 1.35 1.75.9.7-.25.55-1.05.6.9 1.85.55l.5-.25q.65-.45.5-1.2.5.55 1 .55l.75-.3.2-.25.2-.45q.1-.85.9-.1l.4-1.5m-14.35.25.05.05q.5.85.55 2.05l.1 2.8-.1 2.95v.1-.1q-.25-.95-.9-1.5m2.1 1.25.2-.5-.15-.4-.05-.3-.2-1.65v-.45l.05-.7m-1.65-3.6-.05-.05m.05.05v.95l-.1.75m-2.15-1.4-.1.3m2.35-1.45v.85m2.2 7.55.5.6-.15-.35-.05-.25q0-.55.65-.6 1.4-.05 2.05.9-.4-.65-.25-1.45.1-.45.5-.6l.45-.1q.25-.05.35.2v.9l1.55.2-.4-.15q-.65-.35-.65-.95l.1-.3q.15-.5.9-.25 1.2.4 1.95 1.55l.05-.3q.1-1.15 1.1-1.35h1m2.85-4.7-.35-.8m-12.15 7.8-.2-.45" fill="none" stroke="#350035" stroke-linecap="round" stroke-linejoin="round" stroke-width=".05"/><path d="m7 41.25.6-.15m-3.7.5h.95" fill="none" stroke="#482e22" stroke-linecap="round" stroke-linejoin="round" stroke-width=".1"/><path d="M16.75.85H15L13.6 2.3z" fill="none" stroke="#000" stroke-linecap="round" stroke-linejoin="round" stroke-opacity=".451" stroke-width=".05"/></g><g id="c"><path d="M-4.35.75-5.6 0l.5-1.1.4.15.05-.05.4-.35.35-.3.05-.05.45-.1h.05l2.5-.6L.9-2.55l.15-.1 1.6-.7.35.55 1.55-.7.25.85-1.9.95 2.3.05-.05.7v.7L3.4-.6l.2.55h-.15L3.2.4l.05.05.4.35h.1l.8.85-.05.2-1.4-.5-.05-.05-.25-.1h-.05L1.3 1.05 1.15 1 .45.65.3.7H.05l.45.55v.05l.2.3.15.2.05.05L.25 2H.2l.1.4-.25-.05-1.25 1-.2-.25 1.25-.8v-.1L-1.3 3l-.2-.3-.1-.1-.15-.1-.8.65-.1-.35-1.55-.15-2.5.9-1.05-.65 3.2-1.45-.9-.05.2-.35.45-.25.45.05v-.1m3.75-3.2h-.2.2m1.15.8.85-.65.5.7-1.25.85L1.9-1.6l-.5-.7-.85.65m-2.5 1-.65-.75.7-.75L-.7-.8l-1.2-1.35-.7.75.65.75m-.95.15-1.8-.45 1.8.45m5-1.9.9-.4-.9.4m-6.05 5-.25.05.25-.05h.05l1-.25h.15l-.1-.55.95-.6-.95.6.1.55h-.15l-1 .25v-.05l-.05.05m.25-1.1-.85-.05.85.05m.95.85.1.45-.1-.45" fill="#d6ceb6" fill-rule="evenodd" transform="translate(7.75 3.5)"/><path d="m4.75 1.3.8.75-1.05 1.1-2.85-1.6-.15.05H.75L.5 1.3v-.05L.05.7H.3L.45.65l.7.35.15.05 1.45.15h.05l.25.1.05.05 1.4.5.05-.2.2-.35" fill="#c2b18f" fill-rule="evenodd" transform="translate(7.75 3.5)"/><path d="M5.15-.95 7.75.5l-1.05.65L5 .75l-.25.55-.2.35-.8-.85h-.1l-.4-.35L3.2.4l.25-.45h.15L3.4-.6l1.75.35v-.7M3.9.45l1.1.3-1.1-.3" fill="#baa985" fill-rule="evenodd" transform="translate(7.75 3.5)"/><path d="M3.4 4.25 2.15 3.5l.5-1.1.4.15 1.8.45M3.1 2.5l.4-.35m.35-.3.05-.05M8.65.95l.15-.1m1.6-.7.35.55L12.3 0l.25.85-1.9.95 2.3.05-.05.7L15.5 4l-1.05.65-1.7-.4-.25.55.8.75-1.05 1.1-2.85-1.6-.15.05H8.5l-.25-.3m.35.5.05.05L8 5.5h-.05m-1.4 1.35-.2-.25 1.25-.8v-.05M6 6l-.8.65-.1-.35-1.55-.15-2.5.9L0 6.4l3.2-1.45-.9-.05.2-.35M7.05 2.7l-1.2-1.35-.7.75.65.75m2.6-.1 1.25-.85-.5-.7-.85.65m-.05 2.9v.05m4.65-2.25v.7l-1.75-.35m1.15 2.25.2-.35M10.75.7l-.9.4m.7 3.6h-.05m1.8.45-.05.2-1.4-.5-.05-.05M3.85 6.1l1-.25H5l-.1-.55.95-.6m-2.65.25.85.05m-.5 1.15.25-.05m.05 0H3.8m1.3.2L5 5.85m7.75-1.6-1.1-.3" fill="none" stroke="#665933" stroke-linecap="round" stroke-linejoin="round" stroke-width=".05"/></g><g id="d"><path d="m292.15 197.05.05.05h-.05v-.05" fill="#86578e" fill-rule="evenodd" transform="translate(-288.05 -181.9)"/><path d="m299.45 185.1.15-.1v.05l-.15.05" fill="#472547" fill-rule="evenodd" transform="translate(-288.05 -181.9)"/><path d="m300.25 200.25.35-.25.2-.15.6-.4v.1l-.5.35-.2.1-.4.25h-.05m1.5-.95v-.05h.05l-.05.05m.65-.25-.15-.2.15.15v.05m-.45 13.45.15.65-.1-.15.1.15h-.05L302 213l-.05-.5m1.5 7.1v.05-.05m-8.85-25.95-.5 1.65-.25.55.75-2.2m6.3 6.25-.1-.05.1.05m-.3.1h.1-.1" fill="#1f101f" fill-rule="evenodd" transform="translate(-288.05 -181.9)"/><path d="m292.55 185.5-.05-.05.15-.1-.1.15" fill="#6f4635" fill-rule="evenodd" transform="translate(-288.05 -181.9)"/><path d="m292.4 185.3.25.05-.15.1-.1-.15m.8 12.3.1.1h-.05l-.05-.1" fill="#7e513d" fill-rule="evenodd" transform="translate(-288.05 -181.9)"/><path d="M307.35 193.95h.05q.4 1.2 1.35 1.8-1.45-.35-1.6.8l-.45-.25.05-.7-2.3-.05 1.9-.95-.2-.65.2-.55 1 .55m-8.65 1.35-.5.15-.15-1.25.45.7.2.4m-.2 4.7.4.05-.8.5.4-.55m1.2-.15.1-.1.15.1.1.1-.35-.1m2.55-1-.2-.3.25.3h.25l.15.5-.3-.35-.15-.15m-10 .6-.7.5-.3-1.3q-.85-1.85-1.55.1 0-.8-.65-1l.85-.85q.15-.4-.05-.7l-1.1.05q.45-1.2-.7-1.4.45-.75 1.05-1.15l.15.15.05-.3q.4-.25.9-.35 0 1.15.35 1.5.35.25 1-.25-.55 1.9 1 2.05-.5.1-.4.55v.05h.05l.05.2.6-.45.5-1.15q.2-1.4.9-2.3l.4-.5-.05.75-.75 2.2-.2.55-.2 1.15-.05.15q-.15 1.45.35 3-.7-1.1-1.3-1.2l-.2-.05m-.35-2.2v-.05l-.05-.05.05.1m1.3.35.05.1h.05l-.1-.1" fill="#fff" fill-rule="evenodd" transform="translate(-288.05 -181.9)"/><path d="m295.8 194.9.15-.15.05.05-.2.1" fill="#424" fill-rule="evenodd" transform="translate(-288.05 -181.9)"/><path d="m291.85 197.15.05.05v.05l-.05-.1" fill="#a1664c" fill-rule="evenodd" transform="translate(-288.05 -181.9)"/><path d="m303.25 221.15-.05.15v-.2l.05.05m-11.35-23.9-.05-.1.05.1m11.2 23.6.05-.05v.2l-.05-.15" fill="#2f1830" fill-rule="evenodd" transform="translate(-288.05 -181.9)"/><path d="M297.65 199.85h-.05l.05-.05v.05m4.15 12.9.15-.25.05.5-.15-.2-.05-.05" fill="#643265" fill-rule="evenodd" transform="translate(-288.05 -181.9)"/><path d="M303.2 221.3v.05h-.05V221l.05.05v.05l-.05.25.05-.05-.05.05.05-.25v.2" fill="#5b2709" fill-rule="evenodd" transform="translate(-288.05 -181.9)"/><path d="m303.55 225.15.35 1.5h-.25l-.1-1.5m-14.05 2.1.05-.15.2-.65.65-1.4-.5 1.4v.05l-.2.75h-.2" fill="#481f06" fill-rule="evenodd" transform="translate(-288.05 -181.9)"/><path d="m300.2 224.65.05.15v1.4l-.05-1.4v-.15m-5.35 5.65-.35-.05-.6-.3.95.35" fill="#7e360c" fill-rule="evenodd" transform="translate(-288.05 -181.9)"/><path d="M299.95 227.45h.1v.05l-.1-.05m-2.4 2.5h-.05v-.05l.05.05" fill="#505c5f" fill-rule="evenodd" transform="translate(-288.05 -181.9)"/><path d="m302.15 183.2-2.8-.3h-2.85l-3.25.15-1.15.6-.3 1 .15.2.45.45.1.15.05.05 3.05.5 1.4.2h1.9l.8-.05 2.55-.4 1.6-1.1q.15-1.1-1.7-1.45m-12.45 7.4.8-6.45q.2-.8 1.75-1.6 1.8-.95 8.1-.55 3.55.3 4.6 2l.25.55 2.05 6.7.1 2.7-1-.55-.2.55-.05-.2-1.55.7-.35-.55-1.6.7-.15.1-1.75.15-2 .45-.2-.4-.45-.7.15 1.25h-.05L296.1 188v1.5l-1.5 4.15.05-.75-.4.5q-.7.9-.9 2.3l-.5 1.15-.6.45-.05-.2-.05-.05q-.1-.45.4-.55-1.55-.15-1-2.05-.65.5-1 .25-.35-.35-.35-1.5-.5.1-.9.35l.35-2.8.05-.15m2.3 26.7 2.2-5.3-1.6-10.2 3.35 1.95 3-.05 2.55-1.1.15 5v.2q-1.25 1.05-3 1.7l-1.05.4-1.45.6q1.3.8 3.35 1.05 1.4.2 2.3 1.2l.05.05.15.2.05.15q.35 3.8.8 5.35v-.05q-2.45-4.25-4.5-5.3l-1-.3-.05-.05h-.15l-.25.25-2.25 2.1-1.25 1.6-.6 1.1-.8-.55m8.95-22.5h-.2.2m-7.5 34.95q.6 2.2 3.9 1.6-1.4 2.25-4.1.65-1.75-1.05-2.15-2.6l-.05-.95q.1-.4.5-.5 1.25-.35 1.65.75l.1.45.15.6" fill="#e6e4c4" fill-rule="evenodd" transform="translate(-288.05 -181.9)"/><path d="M299.6 185.05V185l-.15.1-2.4.4-4.4-.15-.25-.05-.45-.45-.15-.2.3-1 1.15-.6 3.25-.15h2.85l2.8.3-.15.2-.8.85-1.6.8m-1.45 10.4-.45.1-.05.05-.75.65-.05.05-.15-.05-.9-1.35-2.35 2.65.2-1.15.2-.55.25-.55.5-1.65 1.5-4.15V188l2.05 7.45m-2.35-.55.2-.1-.05-.05-.15.15" fill="#585625" fill-rule="evenodd" transform="translate(-288.05 -181.9)"/><path d="m299.6 185.05 1.6-.8.8-.85.15-.2q1.85.35 1.7 1.45l-1.6 1.1-2.55.4-.8.05H297l-1.4-.2-3.05-.5.1-.15 4.4.15 2.4-.4.15-.05" fill="#2f2e13" fill-rule="evenodd" transform="translate(-288.05 -181.9)"/><path d="m296.7 196.25-.25-.1-.5 1.1 1.25.75v.1l-.45-.05-.45.25-.2.35.9.05-3.2 1.45 1.05.65 2.5-.9 1.15.1-.4.55.8-.5.1.35.7-.55.35.1.2.3h.05l-.15.1.2.25 1.25-1 .25.05-.1-.35.05-.05.65-.15-.05-.05V199l.3.35-.15-.5h.5l.15-.05 1.25.7-2.5 13-.15.25q-.9-1-2.3-1.2-2.05-.25-3.35-1.05l1.45-.6 1.05-.4q1.75-.65 3-1.7v-.2l-.15-5-2.55 1.1-3 .05-3.35-1.95-.35-2.35.2.05q.6.1 1.3 1.2-.5-1.55-.35-3l.05-.15 2.35-2.65.9 1.35m5.4 16.9 1.3 5.25v.05l.15 1.4q-.1-.65-.1-.25v.1l-.2 1.45-.05-.05v-.15l-.05-.15-.05.05-.4-1.5-.3-.55-.05-.05q-2.55-4.1-4.15-5.05-.55-.3-1-.3-1.25.85-2.25 2l-1.15 1.55-.65 1.05-.45.75-.05.1-.55 1.65-.1-3.2.8.55.6-1.1 1.25-1.6 2.25-2.1.25-.25h.15l.05.05 1 .3q2.05 1.05 4.5 5.3v.05q-.45-1.55-.8-5.35h.05" fill="#928d3d" fill-rule="evenodd" transform="translate(-288.05 -181.9)"/><path d="m290.4 225.05 1.7-4.55.55-1.65.05-.1.45-.75.65-1.05 1.15-1.55q2.4-.55 3.75 1.55 1.45 2.35 1.65 4.85l-.15 2.85v.15q-2.15 4-7 3.9-.4-1.1-1.65-.75-.4.1-.5.5h-.1l-1.25-1.2.2-.75v-.05l.5-1.4" fill="#d0cd91" fill-rule="evenodd" transform="translate(-288.05 -181.9)"/><path d="m300.25 226.2-.3 1.25.1.05q-.9 1.65-2.5 2.45l-.05-.05-1.1.3-1.55.1-.95-.35-.45-.2-.15-.6-.1-.45q4.85.1 7-3.9l.05 1.4" fill="#bfbb6a" fill-rule="evenodd" transform="translate(-288.05 -181.9)"/><path d="m303.2 221.35.35 3.8.1 1.5q.65 6.8-5.9 7.7-3.7.55-6.2-1.8-2.25-2.6-1.85-5.3l1.25 1.2h.1l.05.95q.4 1.55 2.15 2.6 2.7 1.6 4.1-.65-3.3.6-3.9-1.6l.45.2.6.3.35.05 1.55-.1 1.1-.3v.05h.05q1.6-.8 2.5-2.45v-.05h-.1l.3-1.25v-1.4l-.05-.15.15-2.85q-.2-2.5-1.65-4.85-1.35-2.1-3.75-1.55 1-1.15 2.25-2 .45 0 1 .3 1.6.95 4.15 5.05l.05.05.3.55.45 2h.05" fill="#989441" fill-rule="evenodd" transform="translate(-288.05 -181.9)"/><path d="M303.9 226.65q1.7 8.25-4.25 9.1-6.45.9-8.35-1-1.95-2-2.1-4.05-.2-1.8.3-3.45h.2q-.4 2.7 1.85 5.3 2.5 2.35 6.2 1.8 6.55-.9 5.9-7.7h.25" fill="#5a5827" fill-rule="evenodd" transform="translate(-288.05 -181.9)"/><path d="m1.65 8.7.8-6.45q.2-.8 1.75-1.6Q6-.3 12.3.1q3.55.3 4.6 2l.25.55 2.05 6.7.1 2.7h.05q.4 1.2 1.35 1.8-1.45-.35-1.6.8m-2.7 2.95-2.5 13 .15.65 1.3 5.25v.05l.15 1.4m-.1-.25v.1l-.2 1.45-.05.15v.05l.35 3.8.35 1.5q1.7 8.25-4.25 9.1-6.45.9-8.35-1-1.95-2-2.1-4.05-.2-1.8.3-3.45l.05-.15.2-.65.65-1.4 1.7-4.55-.1-3.2 2.2-5.3-1.6-10.2-.35-2.35-.7.5-.3-1.3q-.85-1.85-1.55.1 0-.8-.65-1l.85-.85q.15-.4-.05-.7l-1.1.05q.45-1.2-.7-1.4.45-.75 1.05-1.15l.2-.15.35-2.8M8.05 7.6l-1.5 4.15-.5 1.65-.25.55-.2.55-.2 1.15m-1.3-.5q-.1-.45.4-.55-1.55-.15-1-2.05-.65.5-1 .25-.35-.35-.35-1.5-.5.1-.9.35m2.9 3.55.05.2.6-.45.5-1.15q.2-1.4.9-2.3l.4-.5-.05.75-.75 2.2M4.15 15.2H4.1v-.05m.1 2.4.2.05q.6.1 1.3 1.2-.5-1.55-.35-3l.05-.15m4.75-2.1L10 12.3l.45.7.2.4m7.45-1.35.2-.55 1 .55m-9.2 1.5L8.05 6.1m6.15 10.85.15.15.3.35-.15-.5m-1.75 1 .1.05m-.2.1h-.1m-2.1 0-.4.55.8-.5m.8-.2.35.1m1.95 13.05.1.15M6.9 33.5q1-1.15 2.25-2 .45 0 1 .3 1.6.95 4.15 5.05l.05.05.3.55.4 1.5.05.15v-.2l.05.15v.15l-.05.25.05-.05v-.2M6.9 33.5l-1.15 1.55-.65 1.05-.45.75-.05.1-.55 1.65m9.9-7.5-.15-.2-.05-.05m-12.1 14.5q-.4 2.7 1.85 5.3Q6 53 9.7 52.45q6.55-.9 5.9-7.7l-.1-1.5m-.4-4.15.05.05m-.05.3-.45-2m.45 2v-.35M2.35 43.15l-.5 1.4v.05l-.2.75" fill="none" stroke="#350035" stroke-linecap="round" stroke-linejoin="round" stroke-width=".05"/><path d="M14.1 1.3 11.3 1H8.45M3.9 2.95l.45.45m.15.2 3.05.5 1.4.2h1.9l.8-.05 2.55-.4 1.6-1.1q.15-1.1-1.7-1.45M4.45 3.55l.05.05m-.05-.05-.1-.15" fill="none" stroke="#350035" stroke-linecap="round" stroke-linejoin="round" stroke-width=".1"/></g></defs></svg>