<svg viewBox="0 0 43.425 72.349" xmlns="http://www.w3.org/2000/svg" xmlns:xlink="http://www.w3.org/1999/xlink"><g transform="translate(-308.46 -199.73)"><use transform="matrix(.7694 0 0 .6997 330.75 199.75)" width="27.45" height="51.7" xlink:href="#a"/><use transform="matrix(.7694 0 0 .6997 310.72 200.64)" width="26.05" height="48.75" xlink:href="#b"/><use transform="matrix(.7694 0 0 .6997 308.48 225.79)" width="31.5" height="63.2" xlink:href="#c"/><use transform="matrix(.7694 0 0 .6997 323.71 227.07)" width="30.25" height="64.3" xlink:href="#d"/></g><defs><g id="a"><path d="m26.5-65.15.3-.8 1.8-5.2q1.6 11.15 1.3 20.2l-4.05-3.6-1-.2 1.65-10.4m2.9 19.8-.6 4.1-5.25-5.55-1.5-.4 1.2-2.4 1.25.45 4.9 3.8M11-38.9l.1.1-.1-.1m2.45 5.4h.35v1l-.15.9-.2-1.9m1.8 5.6 2.65.55L16-26.1l-.75-1.8m-1.55 2-.75.15.05-.75.7.6m-1.6.4-1.2.2-.15-.1-.15-.5 1.5.4" fill="#f5eec5" fill-rule="evenodd" transform="translate(-2.6 71.25)"/><path d="M21.7-53.5q2.55-5.5 4.8-11.65l-1.65 10.4q-1.6 0-3.15 1.25m-3.4 6.8 1.15-2.3q1.9-.9 3.8-.6l-1.2 2.4q-2.25-.3-3.75.5" fill="#b09c7d" fill-rule="evenodd" transform="translate(-2.6 71.25)"/><path d="m13.45-38.8 4.85-7.9q1.5-.8 3.75-.5l-4.1 7.65 1.6.05-.85 2.6.15.1-2.1 2.05-.65-.75-1.25-1.45.5-.75v-.05l-1.9-1.05m6-10.2 2.25-4.5q1.55-1.25 3.15-1.25l-.6 3.2-1 1.95q-1.9-.3-3.8.6m3.95 18 .15-.45-2.65.1 1.95-2.15.55-.05 1.2 1.95-1.2.6" fill="#0d1417" fill-rule="evenodd" transform="translate(-2.6 71.25)"/><path d="m29.9-50.95-.5 5.6-4.9-3.8-1.25-.45 1-1.95.6-3.2 1 .2 4.05 3.6m-1.1 9.7q-.55 2.9-1.4 5.45l-.2.65-1.3-1.6-.05.05-3.85.85-1.65-2.25-1.5 1.3-.15-.1.85-2.6-1.6-.05 4.1-7.65 1.5.4 5.25 5.55m-2 7.25-.6 2.3-1.3 4.4-.35 1.3-1.8.4-.1-1.95.05-.1 1.9-.6-2.15-.8.95-1.95 1.2-.6-1.2-1.95 3.4-.45m-3.2 11.4v.25l-.2.75-.85-.8 1.05-.2" fill="#283f44" fill-rule="evenodd" transform="translate(-2.6 71.25)"/><path d="M13.8-23.55h-.1q-.3-.05-.45-.25l.55.25" fill="#e02c00" fill-rule="evenodd" transform="translate(-2.6 71.25)"/><path d="m27.2-35.15.95 1-1.35.15-3.4.45-.55.05-1.95 2.15 2.65-.1-.15.45-.95 1.95-.4.9-4.4-1.15-2.4 1.35v.05l.75 1.8 2 .65-.1-1.9 3.1-.2 1.75 1.95-1.2.3 1.2-.3 1.8-.4 2-.45.95 1.3-2.45.9.05 1.45-1.5.2-1.05.2.85.8v.05l-.35.15-.8 1.7-.25.15-3.5-1.75-.1-.9q-.05-1 .15-1.7l-.15.1-2.2 1.4-2.4-1.15-.55-.25q-.45-.15-.95-.4l1.5-1.65-.1-.05-.7-.6-1.25-1 1.25 1-.05.75-.85.25-1.5-.4-.6-1.6-.5.45-1.25-.65L10-31.4l-1.2-1.65.35-.1.15.2 4.15-.55.2 1.9.15-.9 2.25-.65.05-2.35.65.75 2.1-2.05 1.5-1.3L22-35.85l3.85-.85.05-.05 1.3 1.6M9.55-41.1l.2-.05-.2.05m8.6 9.8 2.75-.05-2.75.05m-2.9 3.35-.85-.2.85.2m4.75-5.1 2.85-.45-2.85.45m-6.2 7.2.8.65 1.4-.9-1.4.9-.8-.65m-4.4-3.2.6 1.55-.6-1.55m12.35 6.65h.8-.8M21-35.7l1-.15-1 .15m.1 10.95 4-.1-.05.6.05-.6-4 .1m-9.85-6.05L9.3-32.95l1.95 2.15" fill="#fbf3d9" fill-rule="evenodd" transform="translate(-2.6 71.25)"/><path d="m12.3-24.2-2-.95.45-.25.15.1 1.2-.2.85-.25.75-.15.1.05-1.5 1.65m-8.55-9.85-.2-.7 2.6-.25L4-37.1l.9-.8 4.15 1.55-.5-1.55-1.9-.1.25-1.35H7h-.1l.05-.45 1.3-1.15 1.3-.2v.05l.2-.05L11-38.9l.1.1 1.6-.45.75.45 1.9 1.05v.05l-.5.75-.55-.65-4-.05-.05 3.75-2.5.65-.25-1.8-3.75 1M9.4-38.1l.45-.35 1.2-.4-1.2.4-.45.35m5.85 10.2v-.05l2.4-1.35 4.4 1.15.4-.9 2.15.8-1.9.6-.05.1.1 1.95L21-27.55l-3.1.2.1 1.9-2-.65 1.9-1.25-2.65-.55" fill="#d7c59b" fill-rule="evenodd" transform="translate(-2.6 71.25)"/><path d="M10.3-25.15 7.1-26.7l-3-1.45-1.5-.7 1.55-3.35-1.2-1.6.8-.25 3.75-1 .25 1.8 2.5-.65.05-3.75 4 .05.55.65 1.25 1.45-.05 2.35-2.25.65v-1h-.35l-4.15.55-.15-.2-.35.1L10-31.4l-1.75 3.7 1.25.65.5-.45.6 1.6.15.5-.45.25M7.95-31.9l-.2-1.35.2 1.35m-3.8-.3 1.3 1.65-1.3-1.65m2.95 5.5.15-1-.15 1m-2-2.45-1 1 1-1" fill="#e1cfa8" fill-rule="evenodd" transform="translate(-2.6 71.25)"/><path d="M19.1 17.75q2.55-5.5 4.8-11.65l.3-.8L26 .1q1.6 11.15 1.3 20.2l-.5 5.6-.6 4.1q-.55 2.9-1.4 5.45l-.2.65m-.4 1.15-.6 2.3-1.3 4.4m-11.45-11.5 4.85-7.9 3.4-6.8" fill="none" stroke="#280f06" stroke-linecap="round" stroke-linejoin="round" stroke-opacity=".502" stroke-width=".25"/><path d="m24.6 36.1.95 1-1.35.15-3.4.45-.55.05-2.85.45M5.65 30.3l1.3-.2m0 .05.2-.05 1.25 2.25.1.1 1.6-.45.75.45m5.4 2 1.5-1.3 1.65 2.25 3.85-.85.05-.05 1.3 1.6M2.85 40.7l-1.3-1.65M5.15 38l.2 1.35m6.9-5.05-.55-.65-4-.05-.05 3.75-2.5.65-.25-1.8-3.75 1m7.3-4.8-1.2.4-.45.35m-.1 5.15 4.15-.55h.35v1m2.3-3-1.25-1.45.5-.75v-.05l-1.9-1.05m-2.45-.1.1.1m9.8 7.45-2.75.05m4.3 2.25-.4.9-4.4-1.15-2.4 1.35v.05l2.65.55-1.9 1.25-1.4.9-.8-.65-.1-.05-.75.15-.85.25-1.2.2-.15-.1-.45.25m12.35-2.4.05-.1L22 43l-2.15-.8.95-1.95.15-.45-2.65.1 1.95-2.15M11.8 43.1l.85.2m-2.25 1.45-1.25-1m1.9-4.1.15-.9m8.95 6.9-1.2.3m-7.85-.6-.7-.6m-5.75-1.2-.15 1m3.5.8-.6-1.6-.6-1.55m1.35 3.65-.15-.5M1.5 43.1l1-1m17.45 6.75h-.8m1.65.8-.85-.8 1.05-.2M19.4 35.4l-1 .15m-4.9.2.65.75 2.1-2.05M22.45 47l.05-.6-4 .1m3.45-1.25-1.8.4M6.7 38.3l1.95 2.15" fill="none" stroke="#6f6135" stroke-linecap="round" stroke-linejoin="round" stroke-width=".25"/></g><g id="b"><path d="m-9.85-18.7-.3-.65-1.7-5Q-13.3-13.7-12.9-5.25l3.75-3.45.95-.15-1.65-9.85M-12.4.05l.6 3.85 4.95-5.3 1.35-.35L-6.65-4l-1.2.4L-12.4.05m17.45 5.9-.15.15.1-.05.05-.1m-2.3 5.15-.35-.05V12l.15.8.2-1.7m-1.7 5.25-2.45.6 1.8 1.1.65-1.7m1.5 1.9.8.1-.15-.7-.65.6m1.6.35 1 .25.15-.15.15-.5-1.3.4" fill="#d2caa6" fill-rule="evenodd" transform="translate(13.1 24.45)"/><path d="M-5.25-7.7q-2.45-5.15-4.6-11l1.65 9.85q1.5-.05 2.95 1.15m3.3 6.4-1.1-2.15q-1.8-.85-3.6-.55l1.15 2.25q2.15-.3 3.55.45" fill="#9a886d" fill-rule="evenodd" transform="translate(13.1 24.45)"/><path d="M2.7 6.05Q.3 2.6-1.95-1.3q-1.4-.75-3.55-.45l3.95 7.2-1.5.05.75 2.4-.1.15 2.05 1.9.6-.7 1.15-1.4-.5-.75.05-.05 1.75-1m-5.75-9.5-2.2-4.25Q-6.7-8.9-8.2-8.85l.55 3.05 1 1.8q1.8-.3 3.6.55m-3.55 17-.15-.4 2.5.05-1.85-2-.55-.05L-7.8 13l1.2.55" fill="#181c1b" fill-rule="evenodd" transform="translate(13.1 24.45)"/><path d="m-12.9-5.25.5 5.3 4.55-3.65 1.2-.4-1-1.8-.55-3.05-.95.15-3.75 3.45m1.1 9.15 1.35 5.15.2.55L-9 8.15l.05.05 3.6.8 1.6-2.2 1.35 1.25.1-.15-.75-2.4 1.5-.05-3.95-7.2-1.35.35-4.95 5.3m1.9 6.8.65 2.2L-8 17.05l.35 1.25 1.65.3.1-1.8-.05-.1-1.75-.6 1.95-.7-.85-1.85-1.2-.55 1.15-1.85-3.25-.45m3.15 10.8.05.15.2.75.8-.8-1.05-.1" fill="#2e3e3f" fill-rule="evenodd" transform="translate(13.1 24.45)"/><path d="M2.5 20.5h.1l.35-.25-.45.25" fill="#c12f09" fill-rule="evenodd" transform="translate(13.1 24.45)"/><path d="m-10.25 9.6-.85.95 1.2.15 3.25.45.55.05 1.85 2-2.5-.05.15.4.85 1.85.4.85 4.2-1.2L1.1 16.3l-.05.05-.65 1.7-1.9.65.1-1.75-2.95-.15L-6 18.6l1.15.3-1.15-.3-1.65-.3-1.9-.45-.85 1.2 2.25.85v1.35l1.4.25 1.05.1-.85.85.4.15.7 1.55q.15.1.2.15l3.35-1.65.05-.8q.1-1-.1-1.7l.1.15q1.2.55 2.15 1.3l2.2-1.1.45-.25.95-.4-1.45-1.55.1-.05.65-.6 1.2-.95-1.2.95.15.7.8.25 1.3-.4.6-1.5.45.4 1.2-.55-1.7-3.5 1.15-1.6-.3-.05-.2.15-3.9-.45-.2 1.7-.15-.8-2.1-.55-.05-2.2-.6.7-2.05-1.9-1.35-1.25-1.6 2.2-3.6-.8-.05-.05-1.25 1.45M6.3 3.85h-.1.1m-8 9.4-2.55-.05 2.55.05m2.8 3.05.8-.15-.8.15m-4.5-4.75-2.7-.35 2.7.35m5.85 6.75-.7.6-1.35-.85 1.35.85.7-.6m4.15-3.05-.55 1.45.55-1.45M-5 21.65l-.7-.05.7.05m.6-12.6L-5.35 9l.95.05m0 10.35-3.75-.05v.55-.55l3.75.05m9.2-5.8 1.85-2.05L4.8 13.6" fill="#d6ceb6" fill-rule="evenodd" transform="translate(13.1 24.45)"/><path d="m3.9 19.85 1.85-.95-.45-.2-.15.15-1-.25-.8-.25-.8-.1-.1.05 1.45 1.55m8-9.35.15-.65-2.4-.25 2-1.95-.95-.8L6.85 8.3l.5-1.45 1.8-.1-.3-1.25-.05.05.05-.05-.05-.35L7.6 4l-1.25-.15H6.2l-1.15 2.1-.05.1-.1.05-1.5-.45-2.45 1.4-.05.05.5.75.5-.65 3.75-.05.1 3.55 2.4.55.15-1.7 3.6.95M6.5 6.7l-.4-.3L5 6.05l1.1.35.4.3m-5.45 9.65.05-.05-2.25-1.25-4.2 1.2-.4-.85-1.95.7 1.75.6.05.1-.1 1.8 1.65-1.8 2.95.15-.1 1.75 1.9-.65-1.8-1.1 2.45-.6" fill="#baa985" fill-rule="evenodd" transform="translate(13.1 24.45)"/><path d="m5.75 18.9 3.05-1.45L11.6 16l1.35-.65-1.45-3.15 1.15-1.55-.75-.15-3.6-.95-.15 1.7-2.4-.55-.1-3.55-3.75.05-.5.65-1.15 1.4.05 2.2 2.1.55v-.95l.35.05 3.9.45.2-.15.3.05L6 13.05l1.7 3.5-1.2.55-.45-.4-.6 1.5-.15.5.45.2m2.2-6.4.2-1.25-.2 1.25m3.55-.3-1.2 1.6 1.2-1.6m-2.7 5.25-.15-.95.15.95m1.9-2.35.9.9-.9-.9" fill="#c2b18f" fill-rule="evenodd" transform="translate(13.1 24.45)"/><path d="M7.85 16.75q-2.45-5.15-4.6-11l-.3-.65-1.7-5Q-.2 10.75.2 19.2l.5 5.3.6 3.85 1.35 5.15.2.55m.35 1.1.65 2.2L5.1 41.5m10.7-11q-2.4-3.45-4.65-7.35L10.05 21l-2.2-4.25" fill="none" stroke="#2e180d" stroke-linecap="round" stroke-linejoin="round" stroke-opacity=".502" stroke-width=".25"/><path d="M2.85 34.05 2 35l1.2.15m17.5-6.7-1.25-.15m-.05 0h-.1l-1.15 2.1-.15.15-1.5-.45-.7.4m-5.1 2-1.35-1.25-1.6 2.2-3.6-.8-.05-.05-1.25 1.45m20.55 4.2 1.2-1.6m-3.35-.95-.2 1.25M18.1 30.5l1.1.35.4.3m-5.1 1.15.5-.65 3.75-.05.1 3.55 2.4.55.15-1.7 3.6.95M19.75 36l-3.9-.45-.35-.05v.95m-2.15-2.75 1.15-1.4-.5-.75.05-.05 1.75-1m2.35-.1-.05.1-.1.05m-9.15 7.1 2.55.05m-4.05 2.15.4.85 4.2-1.2 2.25 1.25-.05.05-2.45.6 1.8 1.1 1.35.85.7-.6.1-.05.8.1.8.25 1 .25.15-.15.45.2M7.2 41.25l-.05-.1-1.75-.6 1.95-.7L6.5 38l-.15-.4 2.5.05-1.85-2 2.7.35m5.3 4.6-.8.15m2.1 1.35 1.2-.95m-1.85-3.9-.15-.8m-8.4 6.6 1.15.3m7.4-.65.65-.6m5.45-1.15.15.95m-3.35.75.6-1.5.55-1.45m-1.3 3.45.15-.5m6.15-2.2-.9-.9m-16.4 6.5.7.05m-1.5.75.8-.8-1.05-.1m1.4-12.5.95.05m-2.25 2.1.55.05m-.55-.05-3.25-.45m10.15-1.45-.6.7-2.05-1.9M4.95 44.35v-.55l3.75.05m-3.25-1.1 1.65.3M19.75 36l-1.85 2.05" fill="none" stroke="#665933" stroke-linecap="round" stroke-linejoin="round" stroke-width=".25"/></g><g id="c"><path d="M14.4-28.1q.25 1.85-.2 3.4l-.8 1.7q-2.45 2.4-7.95 3.3l-5.5.2-5.4-2.7q-2.35-2.2-2.7-5.65l-.1-.8q3.8 2.8 8.1 3.6l8.4-.35q3.25-.75 6.05-2.5l.1-.2m-.5 26.5-1.05 8.25q1.1 2.7 1.7 5.5l.3 3.3-2.6 3.55-.5-6.2q-1.75-3.05-4-5.3Q4.5 4.25.25 2.65l-2.2.05.2-1.5 1.85.75h9.2l4.6-3.55m-29.65 22.3.05-2.45q.8-3.7 2.85-7.1-1 3.7 9.2 2.9l1.5 2.4q1.25 3.15-1.3 4.95-1.95 1.3-4.25 1.5-4.45.75-8.05-2.2M6.3 19.35l1.6 3.95-5.3.65-1.1-4.25-3.65-3.25q.95.7 2.1.2 1.1-.55 1.2-1.75l-3.35-2.3 2.15.65 3.4 2.7q1.8 1.6 2.95 3.4M6.45 4.9 9.4 6.65q.8-1.5-.15-3Q6.6 1.9 6.1 3.05l-1 .25 1.35 1.6" fill="#47454d" fill-rule="evenodd" transform="translate(15.75 31.6)"/><path d="m14.4-28.1-.1.2q-2.8 1.75-6.05 2.5l-8.4.35q-4.3-.8-8.1-3.6l-.05-.1.75-.65q1.15-.75 2.7-1.05 5.25-1.35 10.6-1.1 4.65.5 8.55 2.9l.1.55m-27.25 39.25 3.05-.1.9-.25 6.7 1.8 3.35 2.3q-.1 1.2-1.2 1.75-1.15.5-2.1-.2l-1.5-2.4q-10.2.8-9.2-2.9m24.3-39.85-1.75-.95q-3.5-1.7-7.25-1.45-3.8.25-7.15 1.95.45.45 1.05.75 5.7 1.9 11.65 1 1.65-.15 3.25-.75.4-.25.2-.55m-5 33.6L5.1 3.3l1-.25q.5-1.15 3.15.6.95 1.5.15 3L6.45 4.9" fill="#67665f" fill-rule="evenodd" transform="translate(15.75 31.6)"/><path d="m8 25-.4.5q-1 1.6-2.75 2.55-4.1 2.25-8.6 3.55-3.7-1.05-6.95-2.85-3.65-2.1-4.8-6.2l-.25-1.85q3.6 2.95 8.05 2.2 2.3-.2 4.25-1.5 2.55-1.8 1.3-4.95L1.5 19.7l1.1 4.25 5.3-.65L8 25m3.45-53.7q.2.3-.2.55-1.6.6-3.25.75-5.95.9-11.65-1-.6-.3-1.05-.75 3.35-1.7 7.15-1.95 3.75-.25 7.25 1.45l1.75.95M2.6 23.95q-2 2.65-12.2 2.9l-1.85-1.2q-3.25-1.75-4.05-3.1.8 1.35 4.05 3.1l1.85 1.2q10.2-.25 12.2-2.9" fill="#25253a" fill-rule="evenodd" transform="translate(15.75 31.6)"/><path d="m-5.45-22.2 5.4 2.7 5.5-.2q5.5-.9 7.95-3.3l.45 5.1v.15l.7-.1.6 5.75-.65.2.4 4.25.55-.15.2 3.1-.5.25.2 1.35-1.45 1.5-4.6 3.55H.1l-1.85-.75-.45-.15.1-3.1Q3.6.3 11.3-2.7l.3-3.9 3.3-1.05-3.3 1.05.35-3.15-14.7-.55-.4-2.25Q.4-11.4 4.05-11q3.35.2 6.8-.15l3.65-.75-3.65.75q.15-1.95-.55-3.8L9.15-17.1l-.6-1.1q-5.55.45-11.2-1.1h-2l-.8-2.9m20.6 17.75L11.3-2.7l3.85-1.75m-1.3-13.3-4.7.65 4.7-.65" fill="#5d5254" fill-rule="evenodd" transform="translate(15.75 31.6)"/><path d="m-2.1-2.05-.45-.2-.2-4 .45.1-.45-4.15 14.7.55-.35 3.15-.3 3.9q-7.7 3-13.4.65m-1.05-10.5-1.5-5.3 1.8.25 12 .5 1.15 2.15q.7 1.85.55 3.8-3.45.35-6.8.15-3.65-.4-7.2-1.55m.85 6.4 13.9-.45-13.9.45" fill="#7b7061" fill-rule="evenodd" transform="translate(15.75 31.6)"/><path d="m14.85 15.45.9 1-2.25 6.15-3.55 1.45 1-1.7 1.3-2.15V19l2.6-3.55" fill="#352547" fill-rule="evenodd" transform="translate(15.75 31.6)"/><path d="M9.05 24.45q-.6.25-1.05.55l-.1-1.7-1.6-3.95L5 15.2l1.3 4.15q-1.15-1.8-2.95-3.4l.75-.35-2.85-4.2-8.35-1.95 1.05-.1v.1l.1-.1.45-.5 8.2 1.95L5 15.2l1.4-.65.7-3.6 1.05 1.15q1.9 2.25 3.3 4.8l.8 3.3-.8-3.3q-1.4-2.55-3.3-4.8l-.4-4.6q2.25 2.25 4 5.3l.5 6.2v1.2l-1.3 2.15-.05-1.5Q10.05 17 7.55 13.6q2.25 4.05 2.5 8.55l-1 2.3" fill="#735d5f" fill-rule="evenodd" transform="translate(15.75 31.6)"/><path d="m9.95 24.05-.9.4 1-2.3q-.25-4.5-2.5-8.55 2.5 3.4 3.35 7.25l.05 1.5-1 1.7" fill="#614e56" fill-rule="evenodd" transform="translate(15.75 31.6)"/><path d="m-2.85-17.6-1.45-.3-.35-1.4h2Q3-17.75 8.55-18.2l.6 1.1-12-.5" fill="#8a8075" fill-rule="evenodd" transform="translate(15.75 31.6)"/><path d="m-4.45 5.25 1.7-2.5.8-.05 2.2-.05q4.25 1.6 7.5 4.85l.4 4.6-1.05-1.15-3-2.85-8.55-2.85" fill="#a2967f" fill-rule="evenodd" transform="translate(15.75 31.6)"/><path d="m-9.5 10.65 2.4-1.2 8.35 1.95 2.85 4.2-.75.35-3.4-2.7-2.15-.65-6.7-1.8-.6-.15m3.45-1.9 1.7-2.1-.1-1.4L4.1 8.1l3 2.85-.7 3.6-1.4.65-2.3-4.4-8.2-1.95-.55-.1" fill="#a7a287" fill-rule="evenodd" transform="translate(15.75 31.6)"/><path d="M-6.05 9.35v-.6l.55.1-.45.5h-.1" fill="#8081b3" fill-rule="evenodd" transform="translate(15.75 31.6)"/><path d="m-9.8 11.05.3-.4.6.15-.9.25" fill="#8380b4" fill-rule="evenodd" transform="translate(15.75 31.6)"/><path d="m29.15 8.6.8-1.7q.45-1.55.2-3.4l-.1-.55Q26.15.55 21.5.05q-5.35-.25-10.6 1.1-1.55.3-2.7 1.05l-.75.65.05.1.1.8q.35 3.45 2.7 5.65m18.85-.8.45 5.1m0 .15.7-.1.6 5.75-.65.2.4 4.25.55-.15.2 3.1-.5.25.2 1.35-1.45 1.5-1.05 8.25q1.1 2.7 1.7 5.5l.3 3.3m-6.85 9.55-.4.5q-1 1.6-2.75 2.55-4.1 2.25-8.6 3.55-3.7-1.05-6.95-2.85-3.65-2.1-4.8-6.2L0 52.3l.05-2.45q.8-3.7 2.85-7.1l3.05-.1.3-.4 2.4-1.2 1.05-.1v-.6l1.7-2.1-.1-1.4 1.7-2.5.8-.05.2-1.5-.45-.15.1-3.1-.45-.2-.2-4 .45.1L13 21.3l-.4-2.25-1.5-5.3 1.8.25m-1.45-.3-.35-1.4-.8-2.9m-.05 31.05-.55-.1" fill="none" stroke="#000025" stroke-linecap="round" stroke-linejoin="round" stroke-opacity=".302" stroke-width=".05"/><path d="m30.15 3.5-.1.2M10.3 9.4l5.4 2.7 5.5-.2q5.5-.9 7.95-3.3m1.45 38.45.9 1-2.25 6.15-3.55 1.45-.9.4q-.6.25-1.05.55M27.2 2.9l-1.75-.95Q21.95.25 18.2.5q-3.8.25-7.15 1.95.45.45 1.05.75 5.7 1.9 11.65 1 1.65-.15 3.25-.75.4-.25.2-.55m-.6 17.55 3.65-.75m.4 4.25L27.35 25l-13.9.45m13.6 3.45 3.85-1.75M28 50.6v1.2l-1.3 2.15-1 1.7M28 51.8l-.8-3.3q-1.4-2.55-3.3-4.8l-1.05-1.15m-2.1 4.25 1.3 4.15 1.6 3.95.1 1.7m1.05-.55 1-2.3q-.25-4.5-2.5-8.55 2.5 3.4 3.35 7.25l.05 1.5M28 50.6l2.6-3.55m-7.1-7.95q2.25 2.25 4 5.3l.5 6.2m-1.4-30.15q-3.45.35-6.8.15-3.65-.4-7.2-1.55m12.3-4.55 4.7-.65M29.65 30l-4.6 3.55h-9.2L14 32.8M12.9 14l12 .5m-1.4 24.6q-3.25-3.25-7.5-4.85l-2.2.05m-2.5 2.55 8.55 2.85 3 2.85M9.8 40.95l.45-.5 8.2 1.95 2.3 4.4m-13.9-4.4 6.7 1.8 2.15.65 3.4 2.7q1.8 1.6 2.95 3.4m-8.45-2.9 3.65 3.25 1.1 4.25 5.3-.65M2.9 42.75q-1 3.7 9.2 2.9l1.5 2.4M.25 54.15q.8 1.35 4.05 3.1l1.85 1.2q10.2-.25 12.2-2.9m-12.4-12.9.9-.25m6.8-12.85q5.7 2.35 13.4-.65" fill="none" stroke="#000025" stroke-linecap="round" stroke-linejoin="round" stroke-opacity=".302" stroke-width=".05"/></g><g id="d"><path d="m19.3-29.1-.5.3q-7.55 2.25-14.9-.95 2.85-1.8 6.15-2 3.8-.15 7.4.95 1.25.5 1.85 1.7m-.7 41.15.45 1-1.85 6.55-1.3.9-.65-1.5.65 1.5-.85 4.1q.95 4.75-6.45 7.2l-3.05-.15-1.75.2-2.95.25q-4.2-.9-6.1-3.85-.8-1.2-1.05-2.3l-.25-1.8q3.95 2.6 8.3 1.05 3.9-1.25 7.45-3.6l1.6-1.3 2.35-2.55 2.1 1.25-.3.4q-.45.6.2.45l.1-.85.5-.75 2.15-3.2.2-.7.5-2.3m-3.55 12.6v-.05.05Q12.1 27.95 1.8 28.9l-3.5-.3q-3.8-1.4-4.6-2.65.8 1.25 4.6 2.65l3.5.3q10.3-.95 13.25-4.25" fill="#2f2f23" fill-rule="evenodd" transform="translate(6.55 32.2)"/><path d="m23.7-28.5-.1.25-2.55.9-4.05.55-8-.1q-4.65.65-8.2-2.3l1.25-1.75q6.45-1.65 13.2-1.1Q20-31.6 23.7-29v.5m-4.4-.6q-.6-1.2-1.85-1.7-3.6-1.1-7.4-.95-3.3.2-6.15 2 7.35 3.2 14.9.95l.5-.3M9.95 1.8 9.15.75l4.25.35.25 2.15q-1.1-.65-2.25-1.05l-1.45-.4m-13.8 14.7 1.1-2.75L-.1 10.9H0l4.8-1.4 6.25 1.2 2.15 3.2-.6-.35q.7 1.75-.3 3.05-1.55-1.45-3.5-.7-3.9 1.3-7.95.95-1.4-.05-2.45-.95l-2.25.6m1.1-2.75 15.35-.2-15.35.2" fill="#818051" fill-rule="evenodd" transform="translate(6.55 32.2)"/><path d="m23.6-28.25.1-.25q0 1.8-.7 3.25l-1.15 1.6Q18.9-21.4 13-20.75q-5 .45-10.9-2.8l-1.65-2.8.35-2.85q3.55 2.95 8.2 2.3l8 .1 4.05-.55 2.55-.9M18.7-.85l-.05.6-.15 11.15-2.2-5.85-2.65-1.8-.25-2.15L9.15.75l.8 1.05-6.05-.3-1.8.95.15-3.55 1.8.8 9.6.3q3.85-1.3 5.05-.85m-2.95 19.1-.5.75-2.1-1.25-2.35 2.55-1.6 1.3q-3.55 2.35-7.45 3.6-4.35 1.55-8.3-1.05 0-1.2.35-2.3.75-2.8 2.35-5.35l2.25-.6q1.05.9 2.45.95 4.05.35 7.95-.95 1.95-.75 3.5.7 1-1.3.3-3.05l.6.35 2.55 4.35M12.3 16.6l.85 1.15-.85-1.15" fill="#59573a" fill-rule="evenodd" transform="translate(6.55 32.2)"/><path d="M17.4-12.85q.35-1.6 0-3.25l-.9-2.05 5.05-.5-5.05.5-.4-1.05q-5.95.2-11.55-1.45l-2.1-.1-.35-2.8Q8-20.3 13-20.75q5.9-.65 8.85-2.9l-.3 4.9v.1l.75-.1-.4 4.75-.65.25-3.85.9 3.85-.9-.2 4.8-.1.65q-1.85.7-3.6 1.25 1.75-.55 3.6-1.25l.1-.65.25 2.85-.55.25-4.3 1.55.7-2.65.2-.1.95-3.95Q7.4-12.85 3-11.85v-2.8q4.65 2.1 9.85 2.15l4.55-.35m-3.75 16.1 2.65 1.8 2.2 5.85.1.6h-.05l.05.55-.5 2.3q-1.1-3.3-4.05-5.45l-1.2-.95q3 2.7 4.2 6.45l.15.95v.5l-1.45 2.4-2.55-4.35-2.15-3.2 1.05-1.3-.35-3.7 1.2.6-1.55-4.1q1.15.4 2.25 1.05m-.7 3.05q2.25 1.1 4.2 2.75l1.4 2.45-1.4-2.45Q15.2 7.4 12.95 6.3" fill="#756743" fill-rule="evenodd" transform="translate(6.55 32.2)"/><path d="m16.5-18.15.9 2.05q.35 1.65 0 3.25l-4.55.35q-5.2-.05-9.85-2.15v.45h-.05l-.7-5.2 1.65.35 12.6.9M3-11.85q4.4-1 15.3.85l-.95 3.95-.2.1-14.3.4.05-1.55.1-3.75m-.9 14.3 1.8-.95 6.05.3 1.45.4 1.55 4.1-1.2-.6-3.4-1.1L.2 6.3 1 3.1l1.05-.65h.05" fill="#9a8d53" fill-rule="evenodd" transform="translate(6.55 32.2)"/><path d="m16.5-18.15-12.6-.9-1.3-.35-.15-1.35 2.1.1Q10.15-19 16.1-19.2l.4 1.05M2.4-4.2l-.45-.2.95-3.7-.05 1.55 14.3-.4-.7 2.65 4.3-1.55-1.85 5.1q.05-2.05-.2-.1-1.2-.45-5.05.85l-9.6-.3-1.8-.8-.45-.15.6-2.95q5.55 2.45 14.05-.1-8.5 2.55-14.05.1M-.05 10.85l.15-.35v-.25q-.2-.2-.5-.3L.65 7.5.2 6.3l8.15-1.7 3.4 1.1.35 3.7-1.05 1.3L4.8 9.5 0 10.9l-.05-.05" fill="#ada06c" fill-rule="evenodd" transform="translate(6.55 32.2)"/><path d="M2.9-8.1h-.05.05" fill="#cbbc79" fill-rule="evenodd" transform="translate(6.55 32.2)"/><path d="m18.65 11.7-.05.35-.05-.55h.05l.05.2-.1-.2.1.2m-1.45 4.15v-.5l.05-.7.5.3-.55.9" fill="#917551" fill-rule="evenodd" transform="translate(6.55 32.2)"/><path d="m18.1 14.35-.2.7h-.05l-.1-.1-.5-.3-.05.7-.15-.95q-1.2-3.75-4.2-6.45l1.2.95q2.95 2.15 4.05 5.45" fill="#7a6245" fill-rule="evenodd" transform="translate(6.55 32.2)"/><path d="m17.9 15.05-2.15 3.2 1.45-2.4.55-.9.1.1h.05" fill="#674945" fill-rule="evenodd" transform="translate(6.55 32.2)"/><path d="M-.1 10.9v-.05.05" fill="#996654" fill-rule="evenodd" transform="translate(6.55 32.2)"/><path d="m-.1 10.9.05-.05.05.05h-.1" fill="#d1cb83" fill-rule="evenodd" transform="translate(6.55 32.2)"/><path d="M15.15 19.85q-.65.15-.2-.45l.3-.4-.1.85" fill="#422e32" fill-rule="evenodd" transform="translate(6.55 32.2)"/><path d="m30.15 3.95.1-.25m-4.4-.6q-.6-1.2-1.85-1.7Q20.4.3 16.6.45q-3.3.2-6.15 2 7.35 3.2 14.9.95l.5-.3m-1.9 16.25 3.85-.9m.3-4.9-5.05.5-12.6-.9M9.55 18v-.45q4.65 2.1 9.85 2.15l4.55-.35m-.05 5.8q1.75-.55 3.6-1.25l.1-.65M8.95 28q5.55 2.45 14.05-.1m.7-2.65-14.3.4.05-1.55H9.4m14.3 1.15.2-.1m4.5-16.6q-2.95 2.25-8.85 2.9-5 .45-10.9-2.8m18.65 17.7L23 27.9m2.2 4.05.05-.6q-1.2-.45-5.05.85l-9.6-.3-1.8-.8m1.65 2.6 6.05.3m3.7 1.45 2.65 1.8 2.2 5.85m.2-11.75.2.1q.05-2.05-.2-.1m-.1 12.9-.5 2.3-.2.7M21.8 51.2l.65 1.5m2.75-8.8-.1-.2.05.55m-.05-.55-1.4-2.45q-1.95-1.65-4.2-2.75l-1.2-.6-3.4-1.1-8.15 1.7m10.85 4.4 2.15 3.2 2.55 4.35 1.45-2.4v-.5l-.15-.95q-1.2-3.75-4.2-6.45l1.2.95q2.95 2.15 4.05 5.45m-.25.7h.05m-6.5-12.85L16.5 34m1.45.4q1.15.4 2.25 1.05M2.7 48.7l2.25-.6q1.05.9 2.45.95 4.05.35 7.95-.95 1.95-.75 3.5.7m.3-3.05-15.35.2m2.65-2.85h.1l4.8-1.4 6.25 1.2m6.15 4.65.05-.7m-4.1 3.1-.85-1.15m2.95 2.4-2.1-1.25m.05-3.85-.6-.35m2.45 11.1v-.05.05q-2.95 3.3-13.25 4.25l-3.5-.3q-3.8-1.4-4.6-2.65" fill="none" stroke="#000008" stroke-linecap="round" stroke-linejoin="round" stroke-opacity=".302" stroke-width=".05"/><path d="M30.25 3.7v-.5Q26.55.6 21.8.15 15.05-.4 8.6 1.25L7.35 3M27.8 18.45l.65-.25.4-4.75-.75.1m-17.65-.4L8.8 12.8l.7 5.2M9 11.45l.15 1.35m-.5-4.15L7 5.85 7.35 3m1.3 5.65.35 2.8M9.55 18v2.35m18.05 2.9.2-4.8M9.45 24.1l-.95 3.7.45.2-.6 2.95.45.15-.15 3.55m.8-10.55.1-3.75m18.55-6.9.3-4.9 1.15-1.6q.7-1.45.7-3.25M27.3 26.35l.55-.25-.25-2.85M25.05 43.1l.15-11.15M22.45 52.7l1.3-.9 1.85-6.55-.45-1 .05-.35-.05-.2-.1-.6m-2.75 7.35-.5.75-.1.85m.75.65-.85 4.1q.95 4.75-6.45 7.2l-3.05-.15-1.75.2-2.95.25q-4.2-.9-6.1-3.85-.8-1.2-1.05-2.3L0 56.35q0-1.2.35-2.3.75-2.8 2.35-5.35l1.1-2.75 2.65-2.85v-.05m.05 0 .15-.35v-.25q-.2-.2-.5-.3L7.2 39.7l-.45-1.2.8-3.2 1.05-.65m16.85-3.2 1.85-5.1" fill="none" stroke="#000008" stroke-linecap="round" stroke-linejoin="round" stroke-opacity=".302" stroke-width=".05"/></g></defs></svg>