<svg viewBox="0 0 140.88 121.65" xmlns="http://www.w3.org/2000/svg" xmlns:xlink="http://www.w3.org/1999/xlink"><g transform="translate(-200.21 -100.72)"><use transform="rotate(9.035 -509.792 1411.354) scale(.9995)" width="87.95" height="106.95" xlink:href="#a"/><use transform="translate(241.05 100.7) scale(1.1376)" width="87.95" height="106.95" xlink:href="#a"/></g><defs><use width="87.95" height="106.95" xlink:href="#b" id="a"/><g id="b"><path d="m12.7-44.8-1.15 1.65 3.2-2.4q4.2-1.9 3.8-3.3-.45-1.7-7.15-1.9h-.8L-.65-48.7-6.7-49l-6.15 1.35-6.05 1.8-.4.1-1.1.5q-5.15 3.9-5.05 5.5.05 1.6 5.75-.25l2.85.1L4.2-41.05 6.7-43h.05l5.95-1.8M-29-41.6q.1-2.25 6.45-5 6.05-2.55 14.75-4.2l3.15-.55q10.7-1.75 18.85-1.2t8.9 3.1v.4q.05 1.95-4.4 4.25l-.85.4-1.2.5q-5.2 5.6-17.9 4.8l-10.25 1.2-.15.05-2.6.55 2.1-.3-5.8 2.4-1-2.6-2.3-.2-1.3-.15-1.5-.2q-4.4-.85-4.9-2.65l-.05-.6" fill="#b4848c" fill-rule="evenodd" transform="translate(43.95 53.45)"/><path d="M10.6-50.75h.8q6.7.2 7.15 1.9.4 1.4-3.8 3.3l-3.2 2.4 1.15-1.65v-.05l-1.1-4.5-1-1.4" fill="#5f1627" fill-rule="evenodd" transform="translate(43.95 53.45)"/><path d="M12.7-44.8 6.75-43H6.7l-2.5 1.95-21.05 1.15-2.2-.9-1.1-2.2 1.15-2.6.1-.25 6.05-1.8L-6.7-49l6.05.3 11.25-2.05 1 1.4 1.1 4.5v.05m13.65.3-1.45 1.25-4.25 2.35q-.85-2.05-2.8-3.5l.85-.4q4.45-2.3 4.4-4.25 2.45 1.8 3.25 4.55m-46.3 10.85.35 1.8-.05.35-2.05-.2-6.8-1.35-.9-1.7.95.1-1.4-1.15q-.8-2.8.55-5.3l.35.1q.5 1.8 4.9 2.65-1.45 0 .45 1.3 3.5 2.4 3.65 3.35h-.25l.25.05M31.9-30.1q6.8 4.2.3 5.9l-.2.15h.05L32-24l-13.9 1.8-.9-.05.9.05-.95.1 1.3.9-1.05 3.95h.15l-.1.05.1-.05 13.7-.15v-.05q4.15.4.4 2.85l-.55.35 1.1-2.85-2.35 3.7-2.05 3.3-.25.35-7 2.6 7-2.6-3.1 4.7L22.5-2.3 19.75-.15 22.5-2.3l-2.7 3.7 9.5-5.25 2.9-.35q6.3 7.25 3.45 13.25l-2.2 6.15-10.65 6.7.8-10.45.1-1.05v-.2l-2.9-1.25 1.95-2.2-1.95 2.2-1.05-.5V-3.6l.8-3.55 1.3-5.9-4.4-4.15-.05-.05v.05l-27.4 6-.35-.05-1.3-.15-.9-.4q-3.3-.6-2.35-6.9l5.3-.9.05.05 2.05-.2 24.7-2.5-4.4-3.7.2-.15h10.1l8.8-4m-73.75 66.3.1-1.75 20.9 7 42.7-14.75-1.8 5.2-23.4 10.2q-22.05 8.2-38.5-5.9m9.65-6.75q9.05-9.1 14.65-13l20.4-2.8-14.75-2.55q-.65-1.55.4-3.05l1.15-1.25.2 1.1v.05l14.8-1.4-8-2.35 8.8-1.1 2.1-.3q6.05-1.45 7.2 1.2l-1.1.85 1.1-.85q1.5 3.5-5.7 14.25Q-5.6 38.15-26 31.35l-6.2-1.9m56.8-19.4-1 1.4 1-1.4M7.9 3.55 5.45 3.1l2.45.45m-36.35-38.2.7-.15 7.55 1.1-7.55-1.1-.7.15m7.2-3.35 2.3.2-3.1 1.25q1.75-1.3.8-1.45" fill="#8d2136" fill-rule="evenodd" transform="translate(43.95 53.45)"/><path d="m26.35-44.5.15.3v.45l.2 1.75-1.65 1.25-3.75 2.05q-7.75 6.45-18.05 7.55t-17.15-.25h-.65l-.15-.2v.2l-4.65-.1h-.05l-.2-.35-.35-1.8 4.85.1q6.8-.05 14.95-1.35 12.6-2.05 20.8-6l4.25-2.35 1.45-1.25m-1.45 6.9 2.25 2.4-.3.25-.85-.3-1.1-2.35m7.15 13.55-.8 6.6v.05l-13.7.15h-.15l1.05-3.95-1.3-.9.95-.1L32-24l.05-.05m3.6 33.1 1.15 6.25.05.45.45 2.45-.45.2-14.3 6.5.25-3 10.65-6.7 2.2-6.15m-53.2 7.4q5.65-3.95 7.85-2.75-1.7-1.3-2.2-2.6l14.75 2.55-20.4 2.8m7.2-9.65L-11.6-.1l.35-.1 16.7 3.3-8.8 1.1 8 2.35-14.8 1.4V7.9l1.7-2.5-1.9 1.4m-1.4-12.05.1-6.15 1.3.15.35.05q8.9.7 19.2-2.8l1.25-.2q15.5-2.25-13.35 7.35-3.9 1.05-8.85 1.6M-14.9-18.7q-4.65-2.05-6.15-5.85 2.2 2.9 4.1-.4l.45 2.5 2.35 2.25 2.2-1.5 1.05-5.2q3.95 6.65 5.15 4.7 2.1.9 7.6-5.7l5.3 2.9q3.7 2.25 7.55-6.2.35 3.2 5.9 3.8h.35l-.1.15 1.7 1.1v.05H13l-.2.15 4.4 3.7-24.7 2.5-2.1.15-5.3.9m39.35-.05-6.9 1.5 6.9-1.5M-9.6-19.6l-2.35-2.1 2.35 2.1m1.15 25 1.35-.75q-.3-.55-1.35.75" fill="#6a1f2c" fill-rule="evenodd" transform="translate(43.95 53.45)"/><path d="m-19.6-31.85.2.35h-.25l.05-.35" fill="#aa1c1c" fill-rule="evenodd" transform="translate(43.95 53.45)"/><path d="m21.3-38.7 3.75-2.05L26.7-42q-.3 1.9-1.45 3.7l-.35.7 1.1 2.35h-.05l-.45.1q-.65.2-.85.8-.4 1.6 1.3 1.9l.65-.25.25-.15q1.85 6.15-6.45-.45l-.15-.1-.3-.25q1.3-1.75 1.5-3.7l-.15-1.35M-11.6-.1l-.15-.65 22.35-.4 1.5-3.3.75.1 7.7-2.8-.8 3.55v3.45l-5 4.15q-1.15-2.65-7.2-1.2l-2.1.3-16.7-3.3-.35.1m29-17.1h.05l4.4 4.15-1.3 5.9-7.7 2.8-.75-.1-15-2.4q28.85-9.6 13.35-7.35L9.2-14Q-1.1-10.5-10-11.2l27.4-6m-33.1-10 .4.05.45 1.5-.45.1-.55.85q-.2.7.1 1.4l.05.1-.8.75-.35-2.65.5-1.05-.65-.45-.35-.75 1.65.15m-1.05 1.1-.05-.1.45.05-.6.2v-.2l.2.05m6.6 34-.2-1.1 1.9-1.4-1.7 2.5" fill="#a43e52" fill-rule="evenodd" transform="translate(43.95 53.45)"/><path d="M-19.5-31.5h.1l.05.3v.05l-.15-.35" fill="#ad5e6d" fill-rule="evenodd" transform="translate(43.95 53.45)"/><path d="m26.85-34.95.45.7.05.3q0 .7-.5 1.1l-.25.15-.65.25q-1.7-.3-1.3-1.9.2-.6.85-.8l.45-.1H26l.85.3m-6.25 5.6-.6.25q-1.75-.3-1.35-1.85.2-.6.85-.85l.5-.1q1 .1 1.3 1.05l.1.25q-.05.85-.8 1.25M9.6-30l.4.5.25.9-.15.5-.5.9q-1.75 1.1-2.9-.6-.35-.65-.1-1.4l.55-.8 1.2-.45.05-.05.7.25.5.25m-25.3 6.8-.05-.1q-.3-.7-.1-1.4l.55-.85.45-.1.75-.3.05-.05.7.25.5.2.4.55q.3.4.25.85l-.15.55q-.15.5-.5.85l-.1.05q-.7.45-1.35.4h-.05q-.75-.1-1.35-.9m8.7-2.55.35-.4 1.2-.4v-.05l.7.2.5.25.3.45.1.1q.3.35.25.85l-.1.55-.55.85q-1.75 1.1-2.9-.55-.3-.7-.1-1.4l.2-.45H-7m-18.65-3.2V-29l.75.25.45.2.4.55q.3.4.25.85l-.1.55q-.2.5-.55.9-1.75 1.1-2.9-.6-.35-.7-.1-1.4l.6-.85 1.2-.4" fill="#c7c7c7" fill-rule="evenodd" transform="translate(43.95 53.45)"/><path d="m27.15-35.2 4.75 5.1-8.8 4h-.45l-.1-.05-1.7-1.1.1-.15q3.8-2.2-.55-5.9 8.3 6.6 6.45.45.5-.4.5-1.1l-.05-.3-.45-.7.3-.25m3.95 20.95q3.2 9.45-1.8 10.4L19.8 1.4l2.7-3.7 1.95-2.75 3.1-4.7.25-.35 2.05-3.3 2.35-3.7-1.1 2.85" fill="#501221" fill-rule="evenodd" transform="translate(43.95 53.45)"/><path d="M20.65-40.9q-8.2 3.95-20.8 6-8.15 1.3-14.95 1.35l-4.85-.1-.25-.05h.25q-.15-.95-3.65-3.35-1.9-1.3-.45-1.3l1.5.2 1.3.15q.95.15-.8 1.45l3.1-1.25 1 2.6 5.8-2.4-2.1.3 2.6-.55.15-.05 10.25-1.2q12.7.8 17.9-4.8l1.2-.5q1.95 1.45 2.8 3.5m-40 9.4 4.65.1h.8q6.85 1.35 17.15.25T21.3-38.7l.15 1.35q-.2 1.95-1.5 3.7l.3.25.15.1q4.35 3.7.55 5.9h-.35q-5.55-.6-5.9-3.8-3.85 8.45-7.55 6.2l-5.3-2.9q-5.5 6.6-7.6 5.7-1.2 1.95-5.15-4.7l-1.05 5.2-1-1 .1-.05q.35-.35.5-.85l.15-.55q.05-.45-.25-.85l-.4-.55-.5-.2-.7-.25-.05.05-.75.3-.45-1.5-.4-.05-.25-.6-.9-.6q-1.1-.8-1.8-1.75l-.7-1v-.35m-22.4 65.95v-.05l.15-2.95q6.7-3.85 9.2-1.9l.2-.1 6.2 1.9q20.4 6.8 35.05-13.1Q16.25 7.5 14.75 4l5-4.15v8.6l1.05.5-1 1.1 1-1.1 2.9 1.25v.2l-.1 1.05-.8 10.45-.25 3-.15.1-.55 1.7-42.7 14.75-20.9-7m30-35.2v-4.5q4.95-.55 8.85-1.6l15 2.4-1.5 3.3-22.35.4M-29.3-41.1l.3-.5.05.6-.35-.1m51.85 14.95.1.05h-.1v-.05m-1.95-3.2q.75-.4.8-1.25l-.1-.25Q21-31.8 20-31.9l-.5.1q-.65.25-.85.85-.4 1.55 1.35 1.85l.6-.25M9.6-30l-.5-.25-.7-.25-.05.05-1.2.45-.55.8q-.25.75.1 1.4 1.15 1.7 2.9.6l.5-.9.15-.5-.25-.9-.4-.5m7.8 12.75.05.05h-.05v-.05m6.2 28.7-.85 1.15.85-1.15m-39.95-37.6-.5 1.05.35 2.65-.45-2.5q-1.9 3.3-4.1.4l-.25-.7q.9.45 4.2-.65l-.05-.35.2.1v.2l.6-.2m6.75 6.55 2.1-.15-2.05.2-.05-.05m-7.25-5.5-.1.15-.15-.95.15.95.1-.15-.1-.85.1.85m11.45-3.5h-.05v.05l.05-.05m-1.65 2.85-.2.45q-.2.7.1 1.4 1.15 1.65 2.9.55l.55-.85.1-.55q.05-.5-.25-.85l-.1-.1-.3-.45-.5-.25-.7-.2v.05l-1.2.4-.35.4-.15-.15.1.15m-7.25 3.45.15 2.1-.2-2.1h.05m-4.45 58.35h-3.2 3.2m10.4-1.2-3.2.4 3.2-.4m-28-2-2.8-1.2 2.8 1.2m8.4 2.8-3.6-1.2 3.6 1.2m30.4-5.2-4.8 2.4 4.8-2.4" fill="#aa626e" fill-rule="evenodd" transform="translate(43.95 53.45)"/><path d="m-16.85-39.9-2.85-.1q-5.7 1.85-5.75.25-.1-1.6 5.05-5.5l1.1-.5.3.15-1.15 2.6 1.1 2.2 2.2.9" fill="#39111a" fill-rule="evenodd" transform="translate(43.95 53.45)"/><path d="m36.85 15.3 3.6 1.6q4.6 4.7 1.6 9.45l-.1.05.1.3q-2.35 2.95-5.2 5.15Q31.45 36 24.3 37.6l-17.5 8Q.05 49.7-7.45 51.45-18.4 54-31 51.55l-.5-.1q-12.75-2.55-11.6-8.8l11.15 5h24.8l44-19.05q6.5-7.3 0-10.2l.45-.2-.45-2.45v-.45" fill="#533227" fill-rule="evenodd" transform="translate(43.95 53.45)"/><path d="M36.8 15.3h.05v.45l-.05-.45m5.25 11.05v.35l-.1-.3.1-.05m-85.15 16.3.05-.35 1.2-6.1q16.45 14.1 38.5 5.9l23.4-10.2 1.8-5.2.55-1.7.15-.1 14.3-6.5q6.5 2.9 0 10.2l-44 19.05h-24.8l-11.15-5m66.8-16.6-1.85.65 1.85-.65" fill="#784c35" fill-rule="evenodd" transform="translate(43.95 53.45)"/><path d="m-19.3-45.75.4-.1-.1.25-.3-.15" fill="#4c101b" fill-rule="evenodd" transform="translate(43.95 53.45)"/><path d="M-19.4-31.5h.05v.3l-.05-.3m6.45 8.8 1 1-2.2 1.5-.15-2.1q.65.05 1.35-.4" fill="#c09ba0" fill-rule="evenodd" transform="translate(43.95 53.45)"/><path d="M-14.7-31.4v-.2l.15.2h-.15" fill="#b44141" fill-rule="evenodd" transform="translate(43.95 53.45)"/><path d="m-21.05-24.55-4.8.65q-4.2.95-2.35-4.8.75-3-.3-4.35l6.8 1.35 2.05.2h.15l.15.35.7 1q.7.95 1.8 1.75l.9.6.25.6-1.65-.15.2 1.1.05.35q-3.3 1.1-4.2.65l-.5-2.85.5 2.85.25.7M-17-26.6l.65.45-.45-.05-.2-.4m.5 4.15.8-.75q.6.8 1.35.9l.2 2.1-2.35-2.25m-9.15-6.5-1.2.4-.6.85q-.25.7.1 1.4 1.15 1.7 2.9.6.35-.4.55-.9l.1-.55q.05-.45-.25-.85l-.4-.55-.45-.2-.75-.25v.05" fill="#a73f53" fill-rule="evenodd" transform="translate(43.95 53.45)"/><path d="M54.55 2.7h.8q6.7.2 7.15 1.9.4 1.4-3.8 3.3l-3.2 2.4 1.15-1.65-5.95 1.8h-.05l-2.5 1.95-21.05 1.15-2.85-.1q-5.7 1.85-5.75.25-.1-1.6 5.05-5.5l1.1-.5.4-.1 6.05-1.8 6.15-1.35 6.05.3L54.55 2.7M70.3 8.95l-1.45 1.25-4.25 2.35q-8.2 3.95-20.8 6-8.15 1.3-14.95 1.35L24 19.8m.55 2.15h.05l4.65.1h.8q6.85 1.35 17.15.25t18.05-7.55L69 12.7l1.65-1.25m-46.9 8.3.25.05m-.25-.05-7.55-1.1-.7.15m9.05 3.15h-.25l-2.05-.2-6.8-1.35M15 12.45l-.05-.6m.05.6q.5 1.8 4.9 2.65l1.5.2 1.3.15 2.3.2" fill="none" stroke="#6d1f2c" stroke-linecap="round" stroke-linejoin="round" stroke-width=".05"/><path d="m70.65 11.45-.2-1.75v-.45l-.15-.3m.35 2.5q-.3 1.9-1.45 3.7l-.35.7 2.25 2.4 4.75 5.1q6.8 4.2.3 5.9m-.15.15-.8 6.6q4.15.4.4 2.85l-.55.35q3.2 9.45-1.8 10.4l2.9-.35q6.3 7.25 3.45 13.25l1.15 6.25h.05l3.6 1.6q4.6 4.7 1.6 9.45v.35q-2.35 2.95-5.2 5.15-5.4 4.15-12.55 5.75l-17.5 8q-6.75 4.1-14.25 5.85-10.95 2.55-23.55.1l-.5-.1Q-.3 102.35.85 96.1m1.25-6.45.1-1.75m0-.05.15-2.95q6.7-3.85 9.2-1.9l.2-.1q9.05-9.1 14.65-13 5.65-3.95 7.85-2.75-1.7-1.3-2.2-2.6-.65-1.55.4-3.05l1.15-1.25-1.25-6.9-.15-.65v-4.5l.1-6.15-.9-.4q-3.3-.6-2.35-6.9-4.65-2.05-6.15-5.85l-4.8.65q-4.2.95-2.35-4.8.75-3-.3-4.35l-.9-1.7.95.1-1.4-1.15q-.8-2.8.55-5.3l.3-.5q.1-2.25 6.45-5 6.05-2.55 14.75-4.2l3.15-.55Q50 .35 58.15.9t8.9 3.1v.4q2.45 1.8 3.25 4.55m.5 11.65q1.85 6.15-6.45-.45 4.35 3.7.55 5.9m5.05-7.85-1.1-2.35M32 31.75l1.05-5.2q3.95 6.65 5.15 4.7 2.1.9 7.6-5.7l5.3 2.9q3.7 2.25 7.55-6.2.35 3.2 5.9 3.8h.35m-.55-5.9-.15-.1-.3-.25M41.05 46.6Q69.9 37 54.4 39.25l-1.25.2q-10.3 3.5-19.2 2.8m-.35-.05-1.3-.15m42.9-6V36m5.6 33.2.45 2.45-.45.2m0-2.65-.05-.45M26.6 26.1l.35.75.65.45-.5 1.05m.1-1-.25-.5m-.15.35.05.35.15.95.1-.15m-.3-1.15-.2-1.1m-3.95 2.1-.5-2.85m7.65 7.9 2.2-1.5m-2.2 1.5L27.45 31 27 28.5q-1.9 3.3-4.1.4l-.25-.7M33.8 61.35l-.2-1.1 1.9-1.4q1.05-1.3 1.35-.75l-1.35.75-1.7 2.5M32.2 48.2q4.95-.55 8.85-1.6l15 2.4" fill="none" stroke="#6d1f2c" stroke-linecap="round" stroke-linejoin="round" stroke-opacity=".353" stroke-width="1.5"/><path d="M2.2 87.9v-.05M70.8 20.6l-.25.15-.65.25q-1.7-.3-1.3-1.9.2-.6.85-.8l.45-.1h.05m-5.4 5.9-.6.25q-1.75-.3-1.35-1.85.2-.6.85-.85l.5-.1q1 .1 1.3 1.05l.1.25q-.05.85-.8 1.25m-11-.65.4.5.25.9-.15.5-.5.9q-1.75 1.1-2.9-.6-.35-.65-.1-1.4l.55-.8 1.2-.45.05-.05.7.25.5.25m-4.15 33.1 2.45.45M65.8 80.15l1.85-.65m-1.85.65L23.1 94.9l-20.9-7m26.05-57.65-.05-.1q-.3-.7-.1-1.4l.55-.85.45-.1.75-.3.05-.05.7.25.5.2.4.55q.3.4.25.85l-.15.55q-.15.5-.5.85l-.1.05q-.7.45-1.35.4h-.05q-.75-.1-1.35-.9M18.3 24.5v-.05l.75.25.45.2.4.55q.3.4.25.85l-.1.55q-.2.5-.55.9-1.75 1.1-2.9-.6-.35-.7-.1-1.4l.6-.85 1.2-.4m14.4 28.75 16.7 3.3" fill="none" stroke="#6b3d0f" stroke-linecap="round" stroke-linejoin="round" stroke-width=".25"/><path d="m61.15 31.2.9.05m-.65 5 .1-.05 6.9-1.5m-7.05 1.55h.05m3.1 10.05 7-2.6.25-.35M56.05 49l.75.1 7.7-2.8m-.8 7 2.75-2.15m-32.5-8.9-.35-.05m24 16.1 1.1-.85m-31.6-29.1.35 2.65.8-.75m2.75.5 1 1 2.35 2.1 2.1-.15-2.05.2-.05-.05-5.3.9m-2.1-7.9.05.4v.25m.1.85-.1-.85m6.95 14.75 27.4-6" fill="none" stroke="#46311c" stroke-linecap="round" stroke-linejoin="round" stroke-opacity=".353" stroke-width="1.5"/><path d="m.85 96.1.05-.35 1.2-6.1q16.45 14.1 38.5 5.9L64 85.35l1.8-5.2.55-1.7.15-.1 14.3-6.5q6.5 2.9 0 10.2l-44 19.05H12l-11.15-5M56.05 49l-1.5 3.3-22.35.4m31.5.6-5 4.15M36.45 33.7l24.7-2.5" fill="none" stroke="#6b3d0f" stroke-linecap="round" stroke-linejoin="round" stroke-width="1.5"/><path d="m67.55 64.9 1-1.4m-3.8-1.1 1.95-2.2m0 5.85.85-1.15m-3.8-1.4 1-1.1" fill="none" stroke="#000" stroke-linecap="round" stroke-linejoin="round" stroke-width=".25"/><path d="m12.4 87.9 3.6 1.2m-11.2-4 2.8 1.2m24.8 2.4 3.2-.4M22 89.5h3.2m16.4-3.2 4.8-2.4" fill="none" stroke="#b99aa1" stroke-linecap="round" stroke-linejoin="round" stroke-width="1.5"/><path d="m36.95 27.7.35-.4 1.2-.4v-.05l.7.2.5.25.3.45.1.1q.3.35.25.85l-.1.55-.55.85q-1.75 1.1-2.9-.55-.3-.7-.1-1.4l.2-.45m.05 0h-.05" fill="none" stroke="#6b3d0f" stroke-linecap="round" stroke-linejoin="round" stroke-width=".25"/></g></defs></svg>