<svg viewBox="0 0 52.501 49.837" xmlns="http://www.w3.org/2000/svg" xmlns:xlink="http://www.w3.org/1999/xlink"><g transform="translate(-242.48 -175.19)"><use transform="matrix(-.8404 .1371 .0821 .8831 293.02 173.15)" width="37.1" height="38.3" xlink:href="#a"/><use transform="matrix(-.5651 .0922 .0552 .5938 290.86 180.87)" width="19.05" height="12.85" xlink:href="#b"/><use transform="translate(242.5 186.7)" width="37.1" height="38.3" xlink:href="#a"/><use transform="translate(245.86 194.9) scale(.6724)" width="19.05" height="12.85" xlink:href="#b"/></g><defs><g id="a"><path d="m-13.35 10.9-4.5-.95-.6-5.5.25-2.75 4.1.65.75 8.55-.75-8.55 7.6 1.1h.05l1.5.25L-.6 5.2l1.1 8.55H.4l-9.45-1.95-4.3-.9M6.75-7l.3.05 3.2.4-5.7.55-1.3.15-1.4.15-.75-1.05L6.75-7M17.4-5.1 15-3.8l-.15.1-2.05.15-.25-.85 4.85-.7m-6.95 3.75L8.3-.25 6.25.5-.6.7 1.55-.35-.6.7H-2l-3.05 1.45-4.05-.2-1.15-1 1.5-1.1L-5-1.6l4.95.95H0l1.55.3L2.6-.8l7.85-.55m-3.4-5.6L4.55-6l2.5-.95M-6.2 8.15l-.25-4.7.25 4.7" fill="#bb9f55" fill-rule="evenodd" transform="translate(18.55 19.15)"/><path d="m-14.1 2.35-4.1-.65 1.45-1.45L.2-7.85 6.75-7l-5.65.25.75 1.05 1.4-.15L4.55-6l5.7-.55 7.8 1.05-.65.4-4.85.7.25.85 2.05-.15.15-.1 3.1-1.5-7.65 3.95L2.6-.8l-1.05.45L0-.65h-.05L-5-1.6-8.75-.15l-1.5 1.1 1.15 1 4.05.2L-2 .7h1.4L6.25.5q-7.4 2.7-11.2 3.2l-1.5-.25h-.05l-7.6-1.1 2.65-1.1-2.65 1.1M14.85-3.7h-.05l.2-.1-.2.1h.05M-.6.7l-5.9 2.75L-.6.7m6.8-3.25L2.6-.8l3.6-1.75" fill="#d3c07b" fill-rule="evenodd" transform="translate(18.55 19.15)"/><path d="M18.1-5.3v.1l.35 3.25-.35 3.15-.35 3.1-5 2.7-7.15 3.95L.9 13.5l-.4.25L-.6 5.2 8.3-.25l2.15-1.1L18.1-5.3M9.15 5.9l8.95-4.7-8.95 4.7" fill="#9f8d4a" fill-rule="evenodd" transform="translate(18.55 19.15)"/><path d="M6.25.5 8.3-.25-.6 5.2l-4.35-1.5q3.8-.5 11.2-3.2m-6.9 3.95V4.4h-.1l.1.05" fill="#e6d891" fill-rule="evenodd" transform="translate(18.55 19.15)"/><path d="m7.2 18.7-.95.35Q2.3 17.5-5.5 16.1h-.05q-.55-1.2-1.05-.05v-.15l-.9-.15-.1.5-.8-1.15-1.25.5.65-.7q.7-.1.35-1.75l-.4-1.35L.4 13.75l.1.05.4-.3 4.7-2.55 1.2 5.7-.35 1.85-.2.55.2-.55.35-1.85.4 2.05m-12.75-3.2.05.6-.05-.6m-1.05.4-.1-1.65.1 1.65" fill="#847540" fill-rule="evenodd" transform="translate(18.55 19.15)"/><path d="m12.75 7-.15 5.9.55 1.7.8.65-1.4.2v.25h-.05l.65.85-1.4-.4-4.5 2.55H7.2l-.4-2.05-1.2-5.7L12.75 7m-.25 8.7.05-.25-.05.25m-1.45.2.7.25-.7-.25" fill="#988348" fill-rule="evenodd" transform="translate(18.55 19.15)"/><path d="M.35 20.85.1 23.6l.6 5.5 4.5.95m-4.85-9.2L1.8 19.4l16.95-8.1 6.55.85.3.05 3.2.4 7.8 1.05-.65.4-2.4 1.3 3.1-1.5v.1L37 17.2l-.35 3.15-.35 3.1-5 2.7-.15 5.9.55 1.7.8.65-1.4.2v.25h-.05l.65.85-1.4-.4-4.5 2.55h-.05l-.95.35q-3.95-1.55-11.75-2.95H13q-.55-1.2-1.05-.05v-.15l-.9-.15-.1.5-.8-1.15-1.25.5.65-.7q.7-.1.35-1.75l-.4-1.35-4.3-.9m28.35-14.7-.2.1h.05l.15-.1M19.05 32.9l.4-.25 4.7-2.55 7.15-3.95M18.95 32.9l.1.05.4-.3m-.4.25h-.1L9.5 30.95m2.35 2.45.1 1.65m1.1.2-.05-.6m12.35 1.15L25 37.65l-.2.55m.95-.35-.4-2.05m4.95-.5-.7-.25m1.5-.45-.05.25" fill="none" stroke="#5b4c34" stroke-linecap="round" stroke-linejoin="round" stroke-opacity=".502" stroke-width=".25"/><path d="m5.2 30.05-.75-8.55 2.65-1.1m14.05-2.05-1.05.45-2.15 1.05m18.7.5-8.95 4.7M21.8 13.3l1.3-.15 2.5-.95M12.05 22.6l5.9-2.75m3.2-1.5 3.6-1.75m-12.65 6 .25 4.7" fill="none" stroke="#5b4c34" stroke-linecap="round" stroke-linejoin="round" stroke-opacity=".2" stroke-width=".25"/><path d="m-3.8-19 1.2.15q.65.15 1.3 1l-1.4-.05-1.1-1.1 1.1 1.1q-.75.2-1.5.9l-.4.4-.1.3-.35.85-1.05 3.15-.45 2.2.75.7-.15.55q-.15.55-.65.85l-1 .15q-.6-.15-.85-.65l-.15-1 1.15-4 1.05.5.3.7-.3-.7-1.05-.5 1.4-3.35Q-4.95-18.7-3.8-19m-1.55 3.35-.7-1.2.7 1.2" fill="#aab428" fill-rule="evenodd" transform="translate(18.55 19.15)"/><path d="M1.1-5.45.8-5.5H.65l.45.05-.45-.05-.9-.05H-.5q-.25-.1-.3-.45l-.3-2.05H.15L1.3-9.9.15-8.05H-1.1q-.9-5.1-1.7-7.05-.4-.95-.75-1.2-.35-.1-1.05 2.4l-.45-1.55.35-.85.1-.3.4-.4q.75-.7 1.5-.9l1.4.05 1.1 2.2L1.3-9.9l.6 3.45q.1.55-.25.8l-.55.2M-5.8-9.4l-.75-.7.45-2.2 1.05-3.15.45 1.55-.8 2.75-.4 1.75m3-5.7 1-1.35-.6-1.15-.3-.3.3.3.6 1.15-1 1.35m2.05 1.6.55-2.15-.55 2.15m-5.35 1.2.7 1.15-.7-1.15M-7.35 1l-1.3-.15h-.1q.9-3.25-.1-6.45l1.7-.4q.85 2.75.85 5.5l-.05.75v.2l-.7.55h-.3.3l-.05.05-.25-.05" fill="#878328" fill-rule="evenodd" transform="translate(18.55 19.15)"/><path d="M19.2 13.65h.15l.3.05.55-.2q.35-.25.25-.8l-.6-3.45m-.65 4.4-.9-.05h-.25m-.6-2.5.3 2.05q.05.35.3.45m-.8-12.3q-.65-.85-1.3-1l-1.2-.15Q13.6.45 12.5 2.3l-1.4 3.35-1.15 4 .15 1q.25.5.85.65l1-.15q.5-.3.65-.85l.15-.55.4-1.75.8-2.75q.7-2.5 1.05-2.4.35.25.75 1.2.8 1.95 1.7 7.05m-.2-9.8 1.1 2.2 1.5 5.75" fill="none" stroke="#6a6a27" stroke-linecap="round" stroke-linejoin="round" stroke-opacity=".561" stroke-width=".25"/><path d="M19.85 9.25 18.7 11.1h-1.25M14.75.15l1.4 1.4.6 1.15-1 1.35m-3.3 2.8-.3-.7-1.05-.5m1.4-3.35.7 1.2m5.15 0-.55 2.15m-3.85-.4L13.5 3.7M13.15 8l-.7-1.15" fill="none" stroke="#635e27" stroke-linecap="round" stroke-linejoin="round" stroke-opacity=".314" stroke-width=".25"/><path d="m19.65 13.7-.45-.05m-1.15-.05-1.7 1.15 2.85-1.1m13.25.6 1.6-.5-2.3 1.6m-1.25 0-2.9 1.75 3.35-1.65m-19.45 4.7.7-.55v-.2l.05-.75q0-2.75-.85-5.5l-1.7.4q1 3.2.1 6.45h.1l1.3.15h.3l-.05.05-.25-.05-2.6.9L9.9 20m1.3-7.5.2.65.6-.15m.25 5.65 4-1.35q-2.05 1.1-4.05 2.25" fill="none" stroke="#5b4c34" stroke-linecap="round" stroke-linejoin="round" stroke-opacity=".502" stroke-width=".25"/><path d="m26.25 28.9.6 2.6m2.65 4.05-.3-4.9" fill="none" stroke="#5b4c34" stroke-linecap="round" stroke-linejoin="round" stroke-opacity=".302" stroke-width=".25"/><path d="m9.45-14.1-.4-.15-4.35.15-.5-.45-2-.7 5.6-.2 1.35.6.3.75M13.2-3.7l-.4.1q-.6 0-1-.35-.45-.35-.5-.9l-.35-2.3 1-.55q.85 1.7 1.25 4M-3-11.85l3-.5.7.15q-2.4 1.45-5.05 3.9-.4.4-1 .5-.35-.4-.35-.9-.05-.6.4-1l2.3-2.15" fill="#aab428" fill-rule="evenodd" transform="translate(18.55 19.15)"/><path d="m4.7-14.1 4.35-.15.4.15.5 1.2-.65 2 .65-2-.5-1.2 2.05 1.3 1.35 2.35.1.25-.55 2.25-.45.25.45-.25.55-2.25q.8 2.15 1.1 5.1l-.35 1-.5.4q-.4-2.3-1.25-4-.8-1.6-1.95-2.6l-.55-.45-.15-.15q-1-1.35-2.45-1.95l-.9-.15-1.25-1.1L5.95-13q-1.85-.2-4.1 1.05-2.2 1.15-4.75 3.7l-.45.45-.6.4-.35.05q-.6 0-1-.4l-.05-.05q.6-.1 1-.5Q-1.7-10.75.7-12.2q2.1-1.35 4-1.9m-4 1.9 1.15.25L.7-12.2" fill="#959528" fill-rule="evenodd" transform="translate(18.55 19.15)"/><path d="m2.2-15.25 2 .7.5.45q-1.9.55-4 1.9l-.7-.15-3 .5 2.15-1.7q1.55-1.1 3.05-1.7" fill="#afbb29" fill-rule="evenodd" transform="translate(18.55 19.15)"/><path d="m9.45-14.1-.3-.75.6.4 1.75 1.65-2.05-1.3m0 3.35.55.45q1.15 1 1.95 2.6l-1 .55q-.5-2.2-1.5-3.6" fill="#9ca629" fill-rule="evenodd" transform="translate(18.55 19.15)"/><path d="m27.7 4.3-1.35-.6-5.6.2q-1.5.6-3.05 1.7l-2.15 1.7m8.95-1.15.9.15q1.45.6 2.45 1.95l.15.15m2.05-2.05L28.3 4.7l-.6-.4m3.7 4.4-1.35-2.35M29.5 12l.35 2.3q.05.55.5.9.4.35 1 .35l.4-.1.5-.4.35-1q-.3-2.95-1.1-5.1m-2 3.05Q29 9.8 28 8.4m-14.8 2.95.05.05q.4.4 1 .4l.35-.05.6-.4.45-.45q2.55-2.55 4.75-3.7 2.25-1.25 4.1-1.05m-11.3 5.2q-.35-.4-.35-.9-.05-.6.4-1l2.3-2.15" fill="none" stroke="#6a6a27" stroke-linecap="round" stroke-linejoin="round" stroke-opacity=".561" stroke-width=".25"/><path d="m28 5.05-.3-.75m-6.95-.4 2 .7.5.45 1.25 1.1m3.35 2.1.65-2-.5-1.2m2.5 6.4.45-.25.55-2.25-.1-.25m-.9 2.75-1 .55M15.55 7.3l3-.5.7.15m1.15.25-1.15-.25" fill="none" stroke="#635e27" stroke-linecap="round" stroke-linejoin="round" stroke-opacity=".314" stroke-width=".25"/></g><g id="b"><path d="M8 2.1Q5.9 4 2.3 5.25q-3.65 1.25-6.65 1.1-3.05-.2-4.5-3.2-1.5-3 1.2-3.8 2.65-.8 6.3-2.95T5.3-5.85Q8.3-6 9.2-2.9q.85 3.1-1.2 5" fill="#d4b76d" fill-rule="evenodd" transform="translate(9.5 6.4)"/><path d="M17.5 8.5q-2.1 1.9-5.7 3.15-3.65 1.25-6.65 1.1-3.05-.2-4.5-3.2-1.5-3 1.2-3.8 2.65-.8 6.3-2.95T14.8.55q3-.15 3.9 2.95.85 3.1-1.2 5z" fill="none" stroke="#5b4c34" stroke-linecap="round" stroke-linejoin="round" stroke-opacity=".502" stroke-width=".25"/><path d="M2.45-2.85Q2-3.35.8-3.4l-2.5.3q-1.3.4-2.35 1.5L-5.3.25l-.05.3q-.15.5.05.8l.65.3h.1L-4 1.6l2.25-.85L1.6-1.3q1.25-1.05.85-1.55m4.95-2 .05.15q.65 1.35-1.3 3.15T.8 1.4l-2.8.75-3.4.25-1-.1-.8-.2Q-8.5 1.7-8.9.85q-.6-1.4 1.35-3.2l2.4-1.7 2.9-1.25q3.4-1.15 6.25-1 2.65.15 3.4 1.45" fill="#e8d9a4" fill-rule="evenodd" transform="translate(9.5 6.4)"/><path d="M2.45-2.85q.4.5-.85 1.55L-1.75.75-4 1.6l-.55.05h-.1l-.65-.3q-.2-.3-.05-.8l.05-.3 1.25-1.85Q-3-2.7-1.7-3.1l2.5-.3q1.2.05 1.65.55" fill="#f79f27" fill-rule="evenodd" transform="translate(9.5 6.4)"/><path d="M.6 7.25q-.6-1.4 1.35-3.2l2.4-1.7 2.9-1.25q3.4-1.15 6.25-1 2.65.15 3.4 1.45" fill="none" stroke="#5b4c34" stroke-linecap="round" stroke-linejoin="round" stroke-opacity=".502" stroke-width=".25"/><path d="M11.95 3.55q.4.5-.85 1.55L7.75 7.15 5.5 8l-.55.05h-.1l-.65-.3q-.2-.3-.05-.8l.05-.3L5.45 4.8Q6.5 3.7 7.8 3.3l2.5-.3q1.2.05 1.65.55" fill="none" stroke="#633a27" stroke-linecap="round" stroke-linejoin="round" stroke-opacity=".161" stroke-width=".25"/><path d="m2.9-4.3 1.5-.35.8.2q.1.2-.35.55l-1.25.6-1.45.3-.9-.05q-.15-.2.1-.4l.25-.25 1.3-.6m-2.75.8-.75.4-.75-.05L-2-3.6q-.35-.3 0-.7l.95-.55L0-4.9q.45.1.55.45l.05.05q.05.35-.3.75l-.15.15" fill="#aab428" fill-rule="evenodd" transform="translate(9.5 6.4)"/><path d="M.55-4.45.6-4.5l1.15-.75 1.2-.25q.45 0 .45.35l-.45.8-.05.05-1.3.6-.25.25-.75.1q-.35 0-.45-.15l.15-.15q.35-.4.3-.75l-.05-.05" fill="#9c9d28" fill-rule="evenodd" transform="translate(9.5 6.4)"/><path d="m10.05 1.95.05-.05 1.15-.75 1.2-.25q.45 0 .45.35l-.45.8-.05.05 1.5-.35.8.2q.1.2-.35.55l-1.25.6-1.45.3-.9-.05q-.15-.2.1-.4l-.75.1q-.35 0-.45-.15l-.75.4-.75-.05-.65-.45q-.35-.3 0-.7l.95-.55L9.5 1.5q.45.1.55.45l.05.05q.05.35-.3.75l-.15.15m1.2.05.25-.25 1.3-.6" fill="none" stroke="#633a27" stroke-linecap="round" stroke-linejoin="round" stroke-opacity=".173" stroke-width=".25"/></g></defs></svg>