<svg viewBox="0 0 75.6 41.55" xmlns="http://www.w3.org/2000/svg" xmlns:xlink="http://www.w3.org/1999/xlink"><use width="75.6" height="41.55" xlink:href="#a"/><defs><g id="a"><path d="m222.6 188.5-.15-.15.1.05.05.05 2.6 2-2.6-1.95-.05-.1.05.1m26.5 5.3v.05h-.1l.1-.05m-.5 7.4h.05-.05" fill="#fceebe" fill-rule="evenodd" transform="translate(-222.4 -175.55)"/><path d="M264.2 180.5h.05l-.05.05v-.05m-15.3 13.25.05.1.15-.05-.1.05h-.15v.05l-.25.1.2-.15h.05l.05-.1" fill="#ecba48" fill-rule="evenodd" transform="translate(-222.4 -175.55)"/><path d="m243.05 179.45.5-.25.2.2-.7.05" fill="#cdb874" fill-rule="evenodd" transform="translate(-222.4 -175.55)"/><path d="m233.3 203.05-.25.05v-.25l.25.2m-1.7-.1-.25-.4v-.2l.25.6m1.5.45h-.05v-.05l.05.05" fill="#615223" fill-rule="evenodd" transform="translate(-222.4 -175.55)"/><path d="m250.25 192.7-1.35 1.05-.05.1-7.1-.35q3.9-.4 6.95-1.35l1.55.55" fill="#fff" fill-rule="evenodd" transform="translate(-222.4 -175.55)"/><path d="m259.55 190.8.1 1.95.05 2q.3 7.95 1.9 8.25 2.6.9.3.25-.6 1.4-.5.4l-3.95 3.4.65.45-1.1-.05-.8.65q-.25-5.75-.9-10.95l-.45-3.15.9-.6 3.8-2.6m-3.1 5.4-.7-2.8.7 2.8m.6 4.95v5.55-5.55m3.1 2.9-1.2-6 1.2 6" fill="#e7e7e7" fill-rule="evenodd" transform="translate(-222.4 -175.55)"/><path d="M252.9 192.25v2.55l-.25.05-.2-1.75.1-.9.05-.15.15-1.4.6-.5-.45 1.95v.15" fill="#b9b9b9" fill-rule="evenodd" transform="translate(-222.4 -175.55)"/><path d="M229.85 197.35q-2.6-.65-5.95-3.25v-.05l-1.3-5.55 2.6 1.95q-2.05-1.7 2.25-1.05l.4.05.3.05q3.7.6 5.35 1.6.95.55 3.1 1.2l1.15.3h.05l3.2.75.4.1h.15l.2.05 7.1.35h-.05l-.2.15.25-.1-.25 7.1.05.2h-.05q-6.3-.45-10.45-1.3l-2.15-.5q-4.65-1.25-6.15-2.05m-2-7.9v2.7-2.7m10.3 10.45-.35-7.3.35 7.3" fill="#acacac" fill-rule="evenodd" transform="translate(-222.4 -175.55)"/><path d="m256.2 208.1-21.15-4.65-.45.8-.15-.45v-.15l-.15-.35-1-.25-.25-.2v.25l-.4.05-.45-.1-.15-.2-.15.1.35-.65-.65.65-.25-.6v.2l-2.05.45.75-.65.1-.45q.4-2.4-.3-4.55 1.5.8 6.15 2.05l2.15.5q4.15.85 10.45 1.3h.05l-.05-.2 6.25-7 .45 3.15q.65 5.2.9 10.95" fill="#9d9d9d" fill-rule="evenodd" transform="translate(-222.4 -175.55)"/><path d="m222.55 188.35.2-.1 3.15-1.1.65-.3h.1l.05-.05.85-.3.2.05q2.9 1.5 6.95 1.5l4.85-.65.35.1 1.45.25 1.9.2q.85.1 1.65.95.1 1.35 2.9 2.8l.05.05.85.4q-3.05.95-6.95 1.35l-.2-.05h-.15l-.4-.1-3.2-.75h-.05l-1.15-.3q-2.15-.65-3.1-1.2-1.65-1-5.35-1.6l-.3-.05-.4-.05q-4.3-.65-2.25 1.05l-2.6-2-.05-.05v-.05m20.35-8.8.15-.1.7-.05-.2-.2 3.2-1.7 5.85.9.15.65.9-.45 7.05 1.15h.1-.1l3.45.8-3.15 3.1q-2.25-.9-5.1-1l1.1-2.8q-5.55 1.6-11.35.65l-1.4-.1-.6-.25-.75-.6m-3.95 12.3-1.15.7-.05.05.05-.05 1.15-.7 1.75-.25 1.6-.7.55-.45-.4-.4-1.65-.9q-1.25-.6-2.6-.6l-1.9-.25-.25.25.05.4.25 1.15.45 1.3.45.2 1.2-.1.05.15.45.2m5.9-9.5 5.15.95q-.75.2-1.4.5l-.8.35q-1.9 1.05-2.55 2.3l-2.85-.3q2.45-1.45 2.45-3.45v-.35m-2 10.2-1.3.9 1.3-.9m5.2-13.6-2.4 1.55 2.4-1.55" fill="#f2f2f2" fill-rule="evenodd" transform="translate(-222.4 -175.55)"/><path d="M264.25 180.5q.35.1 0 5.2l-.15 1.8-4.55 3.3-3.8 2.6-.9.6-6.25 7 .25-7.1v-.05h.1l-.05-.1 1.35-1.05 2.5-2.05-.15 1.4-.05.15-.1.9.2 1.75.25-.05 2.6-2.6-.1-1.55 1.45-3.3.1-.1 4.05-3.6 3.15-3.1h.05l.05-.05m-15.15 13.3-.15.05h.15v-.05" fill="#ddd" fill-rule="evenodd" transform="translate(-222.4 -175.55)"/><path d="m253.4 190.05-.05.1-.6.5-2.5 2.05-1.55-.55 2.9-1.1 1.2-.65.6-.35" fill="#646464" fill-rule="evenodd" transform="translate(-222.4 -175.55)"/><path d="m242.6 179.7.3-.15.75.6-1.05-.45m-4.15 11.8-1.2.1-.45-.2-.45-1.3-.25-1.15-.05-.4.25-.25 1.9.25.9.35q.85.4 1.65.9l.4.4-.55.45q-.75.5-1.6.7l-.55.15m1.3-10.45q.25-.1.15.05l3.45.7.15.1 1.35.45v.35q0 2-2.45 3.45l-.55.3-2.3.95-4.85.65q-4.05 0-6.95-1.5l-.2-.05 1.7-.7.1-.05q5.35-2.15 10.4-4.7M250 183.3l.1-.05 1.35.05h1.45l.8 1.95.15.75.35.55-.8 3.5-.6.35-1.2.65-2.9 1.1-.85-.4-.05-.05q-2.8-1.45-2.9-2.8l-.05-.95q0-.8.4-1.5.65-1.25 2.55-2.3l.8-.35q.65-.3 1.4-.5m6.7.6-.05-.4-.75-.85q2.85.1 5.1 1l-4.05 3.6-.15-2.1 2.95-.75-3.05-.5m2.9-.65v-.05l-.05.05h.05m-12.3 5.8 3.7-2-3.7 2" fill="#363636" fill-rule="evenodd" transform="translate(-222.4 -175.55)"/><path d="m226.7 186.8-.5-3.6 2.35-3 .95-3.8.1 3.3 3.7-.35-2.6 1.4-1.65 2.2.2 2.85-1.7.7-.85.3" fill="#515115" fill-rule="evenodd" transform="translate(-222.4 -175.55)"/><path d="M229.6 179.7q5.5-.75 2.7-3.2l2.65 2.15 6.05 1.75-3-2.3-2-2.55 6.6 4.15 1.05.45.6.25 1.4.1q5.8.95 11.35-.65l-1.1 2.8.75.85.05.4-1.55-.25q-.35-1.3-1.35-2.2l-10-.55q-6.85-1.3 6.55 1.35l1.1 1.05-1.35-.05-.1.05-5.15-.95-1.35-.45-.15-.1-3.45-.7q.1-.15-.15-.05l-6.4-1.75-.05.05-3.7.35m24.6 6.85v-1.3q-.15-2.25-1.2-3 1.15.25 2.2 2.3l.15.9-.45 3.2-2 3.6v-.15l.45-1.95.05-.1.8-3.5" fill="#9f9e28" fill-rule="evenodd" transform="translate(-222.4 -175.55)"/><path d="m234.95 178.65 3.05-.55 3 2.3-6.05-1.75m16.5 4.65-1.1-1.05q-13.4-2.65-6.55-1.35l10 .55q1 .9 1.35 2.2l1.55.25 3.05.5-2.95.75.15 2.1-.1.1-1.45 3.3.1 1.55-2.6 2.6v-2.55l2-3.6.45-3.2-.15-.9q-1.05-2.05-2.2-2.3 1.05.75 1.2 3v1.3l-.35-.55-.15-.75-.8-1.95h-1.45" fill="#66661a" fill-rule="evenodd" transform="translate(-222.4 -175.55)"/><path d="m239.55 187.4 2.3-.95.55-.3 2.85.3q-.4.7-.4 1.5l.05.95q-.8-.85-1.65-.95l-1.9-.2-1.45-.25-.35-.1" fill="#d7d7d7" fill-rule="evenodd" transform="translate(-222.4 -175.55)"/><path d="m.15 12.8.2-.1 3.15-1.1.65-.3m.1 0 .05-.05m15.9-7.1.3-.15.15-.1m.5-.25 3.2-1.7 5.85.9.15.65.9-.45L38.3 4.2h.1m-.1 0 3.45.8.05-.05h.05q.35.1 0 5.2l-.15 1.8-4.55 3.3.1 1.95.05 2q.3 7.95 1.9 8.25 2.6.9.3.25-.6 1.4-.5.4l-3.95 3.4.65.45-1.1-.05m-.8.65L12.65 27.9l-.45.8-.15-.45v-.15l-.15-.35-1-.25-.25.05-.4.05-.45-.1-.15-.2-.15.1.35-.65-.65.65-.25-.4-2.05.45.75-.65.1-.45q.4-2.4-.3-4.55-2.6-.65-5.95-3.25v-.05L.2 12.95m-.15-.15h.1v.05l.05.1m15.15 4.1.05-.05 1.15-.7 1.65-1.2M.05 12.8l.1.05-.1-.05m6.8-2.55.1-.05q5.35-2.15 10.4-4.7m-12.2 5.45-.85.3m.85-.3 1.7-.7m-1.4 6.35v-2.7m13.55 4h.15l1.3-.9m-1.1.95-.2-.05m15.3-6.1.1-.1m4.05-3.6L41.75 5h.05v-.05m-20.65-1.3.2.2-.7.05m2.6 1.05 2.4-1.55m4.7 11.7-2.5 2.05-1.35 1.05m.05.1.15-.05v.05m-.15 0h-.1l.05-.1m-.05.15-.25 7.1 6.25-7 .9-.6 3.8-2.6m-10.95 3.2.2-.15h.05m2.15-6.8-3.7 2m8.45 4.35.7 2.8m-.25 11.9q-.25-5.75-.9-10.95l-.45-3.15m-1.5-3.85-.6.5m8.25-7-4.05 3.6m2 10.8 1.2 6m-3.1 2.65V25.6m-8.4.05-.05-.2m.05.2h-.05q-6.3-.45-10.45-1.3l-2.15-.5Q8.95 22.6 7.45 21.8m3.2 5.75v-.25l.25.2m1.15.6-.15-.35M8.95 27v-.2l.25.6m6.2-10.35.35 7.3" fill="none" stroke="#28383e" stroke-linecap="round" stroke-linejoin="round" stroke-opacity=".502" stroke-width=".1"/><path d="M272.25 203.3h-.1v-.05l.1.05m25.7-3.7-.1.2v-.1.1l-2.65 1.7 2.6-1.8h.05l.1-.1m-25.85 11.05-.05-.05.05.05" fill="#fceebe" fill-rule="evenodd" transform="translate(-222.4 -175.55)"/><path d="M258.7 188.95v.05l-.05-.1.05.05m13.7 14.45v-.1h-.15l-.1-.05.15.05.05-.05.1.1.15.1-.2-.05" fill="#ecba48" fill-rule="evenodd" transform="translate(-222.4 -175.55)"/><path d="m278.5 189.05.45.3-.65-.1.2-.2" fill="#cdb874" fill-rule="evenodd" transform="translate(-222.4 -175.55)"/><path d="m288.45 213.15-.25.4.3-.55-.05.15m-1.6.5-.25-.1q.15-.15.2-.15l.05.25m-.15.25h.1-.1" fill="#615223" fill-rule="evenodd" transform="translate(-222.4 -175.55)"/><path d="m272.35 203.25-1.2-1.2 1.5-.45q2.85 1.2 6.55 1.9l-6.8-.2-.05-.05" fill="#fff" fill-rule="evenodd" transform="translate(-222.4 -175.55)"/><path d="m262.4 199.55 3.5 2.85.8.65-.65 3.15q-1.05 5.05-1.7 10.85l-.7-.7-1.05-.05.65-.45-3.5-3.6q0 1-.5-.5-2.25.5.35-.2 1.5-.25 2.4-8.05l.2-2.05.2-1.9m2.6 5.6.9-2.75-.9 2.75m-4.1 7.55 1.55-5.85-1.55 5.85m3.15-2.65-.4 5.55.4-5.55" fill="#e7e7e7" fill-rule="evenodd" transform="translate(-222.4 -175.55)"/><path d="m268.9 199.85.1 2.45-.3 1.75-.25-.05.15-2.55.05-.15-.3-2 .55.55" fill="#b9b9b9" fill-rule="evenodd" transform="translate(-222.4 -175.55)"/><path d="m272.15 210.45.25-7.05.2.05-.15-.1-.05-.05 6.8.2.2-.1h.5l3.1-.6h.1l1.05-.25 3.1-.95q1.6-.85 5.15-1.2l.3-.05h.4q4.15-.35 2.1 1.15l2.65-1.7-1.7 5.45v.05q-3.4 2.35-5.9 2.8l-6 1.6-2.1.4.85-7.3-.85 7.3-10.05.55-.05-.05.1-.15m20.35-7.35.2-2.75-.2 2.75" fill="#acacac" fill-rule="evenodd" transform="translate(-222.4 -175.55)"/><path d="m266.7 203.05 5.45 7.4-.1.15.05.05 10.05-.55 2.1-.4 6-1.6q-.8 2.1-.55 4.5v.5l.7.7-1.95-.65.05-.15-.3.55-.55-.7.25.7-.1-.1-.2.15-.4.1-.35-.05-.05-.25q-.05 0-.2.15l-1 .15-.2.35.05.15-.25.45-.3-.85-20.55 3.25q.65-5.8 1.7-10.85l.65-3.15" fill="#9d9d9d" fill-rule="evenodd" transform="translate(-222.4 -175.55)"/><path d="m261.55 192.3-2.8-3.3 3.35-.5-.1-.05 6.9-.7.8.55.2-.6 5.65-.5 2.95 1.85-.2.2.65.1.1.1-.7.55-.6.2-1.35.05h-1.6q-3.2 1.45-9.9-1.45 1.45 1.45 1.95 2.45l-.35.4q-2.75-.1-4.95.65m32.45 5.5.05.05h.1l.65.3 2.85 1.35.1.05.1.1v.05h-.05l-2.6 1.8q2.05-1.5-2.1-1.15h-.4l-.3.05q-3.55.35-5.15 1.2l-3.1.95-1.05.25h-.1l-3.1.6h-.5l-.2.1q-3.7-.7-6.55-1.9l.85-.3.05-.05q2.75-1.3 3-2.65.85-.75 1.65-.75l1.75-.1 1.4-.2h.4q1.95.8 4.55.95 3.85.25 6.7-1.05l.2-.05.8.4m-19.8-9.25 2.2 1.7-2.2-1.7m2.2 7.65q-.55-1.3-2.3-2.45l-.7-.45-1.3-.55 4.95-.6-.05.35q-.15 1.95 2.1 3.65l-2.7.05m6.1 5.45 1.1.2.45-.1.5-1.3.35-1.15.05-.4-.2-.25-1.85.1q-1.25-.1-2.55.4l-1.6.8-.35.4.5.5 1.4.8 1.65.35.45-.15.1-.2m.6 1.15-.05-.05-1.1-.75 1.1.75.05.05m-4.9-.35 1.2.95-1.2-.95" fill="#f2f2f2" fill-rule="evenodd" transform="translate(-222.4 -175.55)"/><path d="M258.7 189h.05l2.8 3.3 3.6 3.95.1.1.55 1.7.6 1.6-.2 1.6 2.25 2.75.25.05.3-1.75-.1-2.45 2.25 2.2 1.2 1.2-.05.05h.1v.1l-.25 7.05-5.45-7.4-.8-.65-3.5-2.85-4.1-3.55v-1.8q0-5.2.35-5.3l.05.1m13.55 14.3h.05l-.15-.05v.05h.1" fill="#ddd" fill-rule="evenodd" transform="translate(-222.4 -175.55)"/><path d="m271.15 202.05-2.25-2.2-.55-.55v-.1l.5.4 1.15.7 2.65 1.3-1.5.45" fill="#646464" fill-rule="evenodd" transform="translate(-222.4 -175.55)"/><path d="m265.15 196.25-3.6-3.95q2.2-.75 4.95-.65-1.1.5-2.3.95 1.4.7 1.25 1.55l-.25 1.9-.05.2m13.9-6.8.35.2-1.05.35.7-.55m-11.25 6.2.35-.45.25-.8.85-1.85 1.4.05 1.35.1.1.05 1.3.55.7.45q1.75 1.15 2.3 2.45l.2 1.5-.05.9q-.25 1.35-3 2.65l-.05.05-.85.3-2.65-1.3-1.15-.7-.5-.4-.55-3.55m-4.9-3.6h.05l-.05-.05v.05m18.85 5.5q-1.2-.45-2.15-1.1l-.5-.3q-2.25-1.7-2.1-3.65l.05-.35 1.35-.4.15-.05 3.25-.45q-.1-.2.15-.05 4.7 2.85 9.6 5.4h.1l1.55.8-.2.05q-2.85 1.3-6.7 1.05-2.6-.15-4.55-.95m1.15 1.2 1.85-.1.2.25-.05.4-.35 1.15-.5 1.3-.45.1-1.1-.2-.55-.15q-.8-.25-1.5-.8l-.5-.5.4-.4 1.65-.8.9-.25m-8.65-.15-3.45-2.2 3.45 2.2" fill="#363636" fill-rule="evenodd" transform="translate(-222.4 -175.55)"/><path d="M291.75 190.5v.05l2 .9.95 2.85-.7 3.5-.8-.4-1.55-.8.35-2.8-1.35-2.3-2.4-1.6 3.5.6" fill="#515115" fill-rule="evenodd" transform="translate(-222.4 -175.55)"/><path d="m265.8 198.05-.55-1.7-.1-.1.05-.2 1.65-1.5.15-.95q1.1-1.95 2.25-2.15-1.1.7-1.35 2.95l-.1 1.25.55 3.55v.1l.3 2-.05.15-1.6-3.7-1.2.3m13.6-8.4 6.15-2.15-4.75 2.95 5.95-1.35 2.25-2.65q.2 1.7 2.75 4.05l-3.5-.6h-.05l-6.25 1.3q-.25-.15-.15.05l-3.25.45-.15.05-1.35.4-4.95.6-.1-.05-1.35-.1 1.15-.95q12.95-1.7 6.35-.85l-3.35-.55h1.6l1.35-.05 1.65-.55m-12.55 1.6q.45.9.25 1.45l-1.2 1.3-.45.15q.15-.85-1.25-1.55 1.2-.45 2.3-.95l.35-.4" fill="#9f9e28" fill-rule="evenodd" transform="translate(-222.4 -175.55)"/><path d="m268.45 204-2.25-2.75.2-1.6-.6-1.6 1.2-.3 1.6 3.7-.15 2.55m17.1-16.5 1.2 1.6-5.95 1.35 4.75-2.95m-18.7 3.75q-.5-1-1.95-2.45 6.7 2.9 9.9 1.45l3.35.55q6.6-.85-6.35.85l-1.15.95-1.4-.05-.85 1.85-.25.8-.35.45.1-1.25q.25-2.25 1.35-2.95-1.15.2-2.25 2.15l-.15.95-1.65 1.5.25-1.9.45-.15 1.2-1.3q.2-.55-.25-1.45" fill="#66661a" fill-rule="evenodd" transform="translate(-222.4 -175.55)"/><path d="m279.1 196.15.5.3q.95.65 2.15 1.1h-.4l-1.4.2-1.75.1q-.8 0-1.65.75l.05-.9-.2-1.5 2.7-.05" fill="#d7d7d7" fill-rule="evenodd" transform="translate(-222.4 -175.55)"/><path d="M36.3 13.4v.05h.05l-.1-.1q-.35.1-.35 5.3v1.8L40 24l3.5 2.85.8.65 5.45 7.4.25-7.05m0-.1h-.1m-.15 0v-.05l.15.05m.05-.05-1.2-1.2-2.25-2.2m-3.65-3.5-.1-.1-3.6-3.95-2.8-3.3 3.35-.5m-.1-.05 6.9-.7.8.55.2-.6 5.65-.5 2.95 1.85-.2.2.65.1.1.1.35.2m14.6 8.15.05.05m.1 0 .65.3 2.85 1.35.1.05.1.1.1-.05-.1.1v.1l-1.7 5.45v.05q-3.4 2.35-5.9 2.8-.8 2.1-.55 4.5v.5l.7.7-1.95-.65-.25.4-.55-.7.25.7-.1-.1-.2.15-.4.1-.35-.05-.25-.1-1 .15v.05l-.2.3.05.15-.25.45-.3-.85-20.55 3.25q.65-5.8 1.7-10.85l.65-3.15m-3.05 13.3-1.05-.05.65-.45-3.5-3.6q0 1-.5-.5-2.25.5.35-.2 1.5-.25 2.4-8.05l.2-2.05.2-1.9m14-9.3L51.8 13m19 8.85-1.55-.8h-.1q-4.9-2.55-9.6-5.4m15.9 8.45.1-.05m-5.25.75-.2 2.75m5.35-3.45v.05m-14.85 3.1-.85 7.3 2.1-.4 6-1.6m2.95-10.7.8.4m-12.05 4.2 1.1.75.05.05m5.35 10.35.05-.15-.3.55m-1.35.1-.05-.25q-.05 0-.2.15m-1.2.5.2-.35m-3.65-11.7-1.5-1.3m-.9 2.7H57l-.2.1m-6.8-.2.05.05.15.1m6.8-.05-1.2-.95m-5.8.85-.05-.05m-4-3.95.55.55m-3 2.55-.9 2.75m7.05 5.45.05.05 10.05-.55m-10.1.5.1-.15m-8.5 5.15.4-5.55m-1.6-3.2-1.55 5.85m9.9-16.3 3.45 2.2" fill="none" stroke="#28383e" stroke-linecap="round" stroke-linejoin="round" stroke-opacity=".502" stroke-width=".1"/></g></defs></svg>