<svg viewBox="0 0 60.95 37.31" xmlns="http://www.w3.org/2000/svg" xmlns:xlink="http://www.w3.org/1999/xlink"><use width="60.95" height="37.3" xlink:href="#a"/><defs><g id="a"><path d="M261.8 175.1q2.5.45 4.5 1.55l.1.1v.05l1.15.2.1.6.05.05.65-.45 5.5 1.15h.05-.05l2.6.75.1.05v-.05h.05l.15 1.1-.15 4.1-.05.6-.05 1.05v.15l-.35.3.55.45.05.85 5.15-.8.3.3.05-.05.3-.15h.05l.05-.2.65-.1q1.95-1 4.35-1.3 3.6-.5 6.45.9l1.8 1.15 3.95 3.55.6.55q1.05 1.1 1.3 2.55l.05.85.1 1.9 1.1.6.05.05.85.45.05.05.1.05-.05.05v.05l.1-.05-.1.15-.05.15-1.45 6.75.2.85.1.3q.5 1.75-5.05 2.4-5.6.6-10.4 2.1-4.8 1.45-7.2-3.9-2.45-5.35-6.95-8.85l.2-2.1v-.05l.55-.45-.3-.3v-.05l.05-.1-.05-1 .05-.6v-2q-2.9 2.6-4.85 6.15-2.95 5.25-7.9 3.4t-10.8-2.85-5.15-2.75l.1-.25.25-.85-1.05-6.95-.05-.2-.1-.15.1.05-.05-.05.2-.1.85-.35.3-2.65.15-.8q.35-1.5 1.55-2.5l.7-.55.75-.5q-.45.15-.75.4h-.05l4.6-3.3q.85-.6 2.05-1 3.25-1.3 7.25-.5m-4.8 3.75h-.1q-2.8-.5-5.2-.05-2.3 3.3-1.65 5.55h.05q1.85-.8 2.8-1.8 1.55-1.85 4.1-3.7m39.55 10.6v-.05l-4.25-.3q2.4 2.05 3.8 4.05.6.8 1.75 1.5.35-2.1-1.3-5.15v-.05" fill-rule="evenodd" transform="translate(-243.65 -174.3)"/><path d="M261.8 175.1q2.5.45 4.5 1.55l.1.1v.05l1.15.2.1.6.05.05.65-.45 5.5 1.15h.05-.05l2.6.75.1.05v-.05h.05l.15 1.1-.15 4.1-.05.6-.05 1.05v.15l-.35.3.55.45.05.85 5.15-.8.3.3.05-.05.3-.15h.05l.05-.2.65-.1q1.95-1 4.35-1.3 3.6-.5 6.45.9l1.8 1.15 3.95 3.55.6.55q1.05 1.1 1.3 2.55l.05.85.1 1.9 1.1.6.05.05.85.45.05.05.1.05-.05.05v.05l.1-.05-.1.15-.05.15-1.45 6.75.2.85.1.3q.5 1.75-5.05 2.4-5.6.6-10.4 2.1-4.8 1.45-7.2-3.9-2.45-5.35-6.95-8.85l.2-2.1v-.05l.55-.45-.3-.3v-.05l.05-.1-.05-1 .05-.6v-2q-2.9 2.6-4.85 6.15-2.95 5.25-7.9 3.4t-10.8-2.85-5.15-2.75l.1-.25.25-.85-1.05-6.95-.05-.2-.1-.15.1.05-.05-.05.2-.1.85-.35.3-2.65.15-.8q.35-1.5 1.55-2.5l.7-.55.75-.5q-.45.15-.75.4h-.05l4.6-3.3q.85-.6 2.05-1 3.25-1.3 7.25-.5m-4.8 3.75q-2.55 1.85-4.1 3.7-.95 1-2.8 1.8h-.05q-.65-2.25 1.65-5.55 2.4-.45 5.2.05h.1m39.55 10.6v-.05l-4.25-.3q2.4 2.05 3.8 4.05.6.8 1.75 1.5.35-2.1-1.3-5.15v-.05" fill="none" stroke="#000" stroke-linecap="round" stroke-linejoin="round" transform="translate(-243.65 -174.3)"/><path d="m276.75 186.95-1.95 2.25-2.8 3.05-3.15 3.5-2.35 3q-.9 1.25-1.7 1.45l-1.65.25-3.55-.8-4.05-1q-2-.55-4.5-1.65-2.55-1.1-4.2-1.5l-1.7-.4q.5-1.5.4-2.05l.2-.5q2.4-1.4 4.95-2.75 1.55-.8 2.9-2 3.8-3.2 8.45-3.45 4.5-.15 9 0 3.4.35 5.7 2.5v.1" fill="#423a2b" fill-rule="evenodd" transform="translate(-243.65 -174.3)"/><path d="m245.15 195.1 1.7.4q1.65.4 4.2 1.5 2.5 1.1 4.5 1.65l4.05 1 3.55.8 1.65-.25q.8-.2 1.7-1.45l2.35-3 3.15-3.5 2.8-3.05 1.95-2.25.1 2.1q-5.05 3.2-7.95 8.5-2.95 5.25-7.9 3.4t-10.8-2.85-5.15-2.75l.1-.25" fill="#6b6243" fill-rule="evenodd" transform="translate(-243.65 -174.3)"/><path d="M264.55 199.8h-.05.05m-20.25-12.7-.1-.15.1.05.4.45h-.1l-.3-.35m1 .95.1.05-.35.1.15-.2.1.05m19.6 4.35-.05.05h-.05l.1-.05" fill="#fceebe" fill-rule="evenodd" transform="translate(-243.65 -174.3)"/><path d="M276.6 179.15v-.05h.05l-.05.05m-11.9 13.35-.2.1.25-.25v.1l.15-.05-.1.05h-.1v.05" fill="#ecba48" fill-rule="evenodd" transform="translate(-243.65 -174.3)"/><path d="m267.8 189.95 1.4-1.85.15-.25h.05l1.5 1.5q-1.3.6-2 1.7l-1.1-1.1m4-7 .8.9-1 2.8-1.2-1.2q.6-1.4 1.4-2.5m-.4 4.4-.3 1.1-1.45-1.25.1-.2.3-.75 1.35 1.1" fill="#fff" fill-rule="evenodd" transform="translate(-243.65 -174.3)"/><path d="M245.3 188.05h.05l.05.05-.1-.05" fill="#987d23" fill-rule="evenodd" transform="translate(-243.65 -174.3)"/><path d="m245.45 194.65-1.1-7.35-.05-.2.3.35h.05q3.5 1.4 7.1 2.6 5.3 1.75 10.75 3.1l2.2-.5-.1 3.2-.05 2.35-.45.6q-1.4-1.4-1.75-3.4-.15 1.15-.75 2.05l-.4.65-.9-.2-.7-3.25q-.1 1.25-.65 2.25l-.35.65-1.2-2.05-.35-.8-.5 2.7-.9.15q-.7-2.6-.65-5.2-.05 1.15-.7 2.35l-.45.75-1.2-.5-.75-3.65-.15-1.25-1.1 4.45q-1.15-1.85-2-3.8l-.9 2.5-1.65-3.3q.1.85-.35 1.7-.2.4-.3 3.05m-.05-6.55-.05-.05h-.05l-.1-.05-.15.2.35-.1" fill="#8b3030" fill-rule="evenodd" transform="translate(-243.65 -174.3)"/><path d="m276.6 184.9-.05 1.05v.15l-.45.4.45-.55-.75.8h-.5l.1-1.7q-.7.2-1.15.65-.65.65-.75 1.75-.2-1.5-.65-2l-.7 1.75-.2.6-.05.2-.25.9-.3.9-.3 1.25-.45.4-.75.55q-.7.65-1.1 1.5l-.3.45-.35-1-1.1 2.45q-.75 1.7-2.3 2.4l-.05 1.55-.15.25.05-1.4.05-2.35q1.55-.7 2.3-2.4L268 191l.4 1.1.5-1.05q.7-1.1 2-1.7v-.05l.2-.85.3-1.1.2-.7 1-2.8.15-.35.5 1.05.15.95.1-.65q.4-1.3 1.8-1.75l-.1 1.7 1.4.1" fill="#ce261e" fill-rule="evenodd" transform="translate(-243.65 -174.3)"/><path d="m276.1 186.5-5.15 6.6-.1.15-6.25 6.45-.1-.1.15-.25.05-1.55q1.55-.7 2.3-2.4l1.1-2.45.35 1 .3-.45q.4-.85 1.1-1.5l.75-.55.45-.4.3-1.25.3-.9.25-.9.05-.2.2-.6.7-1.75q.45.5.65 2 .1-1.1.75-1.75.45-.45 1.15-.65l-.1 1.7h.5l.75-.8-.45.55" fill="#f48415" fill-rule="evenodd" transform="translate(-243.65 -174.3)"/><path d="m264.5 199.6.05.15v.05h-.05l-4.45-.5-5.45-1.4q-2.5-.65-4.95-1.9-2.65-1.2-4.2-1.35.1-2.65.3-3.05.45-.85.35-1.7l1.65 3.3.9-2.5q.85 1.95 2 3.8l1.1-4.45.15 1.25.75 3.65 1.2.5.45-.75q.65-1.2.7-2.35-.05 2.6.65 5.2l.9-.15.5-2.7.35.8 1.2 2.05.35-.65q.55-1 .65-2.25l.7 3.25.9.2.4-.65q.6-.9.75-2.05.35 2 1.75 3.4l.45-.6-.05 1.4" fill="#ca690b" fill-rule="evenodd" transform="translate(-243.65 -174.3)"/><path d="M250.15 184.35q1.85-.8 2.8-1.8 2.3-2.75 6.8-5.5l-.1.1 1.35-.55h.05l2-.5 4.55.9.1.65.7-.45 5.5 1.15h.05-.05l2.6.75.05.05-.15.05-.55.25-.4.2q-2.15 1.1-3.65 3.3-.8 1.1-1.4 2.5l-.35.8-.3.75-.1.2v.2l-.25.45h-.05l-.15.25.1-.25q-1.45-.75-3.2-1.1l-.9-.25-10.3-1.45-1-.15-3.75-.55M244.3 187l-.05-.05.2-.1.9-.4.05-.05 5.6.45 5.55.8 5.9 1.05q2.55.45 5.1 1.5-1.3 1.3-2.8 2.15l-.25.25.2-.1v.15l-2.2.5q-5.45-1.35-10.75-3.1-3.6-1.2-7.1-2.6h.05l-.4-.45m12.5-3.9-2.9 1.8 2.9-1.8m-1.9 1.95 1.45-.95-1.45.95m11.45.6-1.15.85 1.15-.85m-2.3-8.1-1.85 1.55 1.85-1.55" fill="#cfa034" fill-rule="evenodd" transform="translate(-243.65 -174.3)"/><path d="M276.55 179.15h.05l.05-.05.15 1.1-.15 4.1-.05.6-1.4-.1.1-1.7q-1.4.45-1.8 1.75l-.1.65-.15-.95-.5-1.05-.15.35-.8-.9q1.5-2.2 3.65-3.3l.4-.2.55-.25.15-.05m-9 11.05.25-.25 1.1 1.1-.5 1.05-.4-1.1-1.1 2.45q-.75 1.7-2.3 2.4l.1-3.2v-.2h.15l.05-.05-.15.05v-.1q1.5-.85 2.8-2.15m2.85-4.75 1.2 1.2-.2.7-1.35-1.1.35-.8m-.75 1.75 1.45 1.25-.2.85v.05l-1.5-1.5.25-.45v-.2" fill="#aa3f17" fill-rule="evenodd" transform="translate(-243.65 -174.3)"/><path d="m245.4 186.4 1.45-.65.55-.3h.05l.05-.05 2.05-.85.35-.1.25-.1 3.75.55 1 .15-1.4.9 1.4-.9 10.3 1.45.9.25q1.75.35 3.2 1.1l-.1.25-1.4 1.85-.25.25q-2.55-1.05-5.1-1.5l-5.9-1.05-5.55-.8 2.9-1.95-2.9 1.95-5.6-.45m18.1 1.25 1.7-1.15-1.7 1.15" fill="#bd872f" fill-rule="evenodd" transform="translate(-243.65 -174.3)"/><path d="m10.25 10.6 2.9-1.8m-2.9 1.8-2.9 1.95m14.2-.35-1.7 1.15m-8.6-2.6-1.4.9M12.7 9.8l-1.45.95m10.3 1.45 1.15-.85M18.55 4.8l1.85-1.55" fill="none" stroke="#28383e" stroke-linecap="round" stroke-linejoin="round" stroke-opacity=".502" stroke-width=".1"/><path d="M262.8 181.05q-2.5-1.7-5.85-2.35-2.85-.5-5.3-.05l-.85.2-1 .35q-1.05.35-1.8.8l4.6-3.3q.85-.6 2.05-1 3.2-1.25 7.15-.5 3.9.75 6.65 3 2.8 2.25 2.8 4.95v.45l-.6 1.1-.4 1.05v-.55q.1-1.2-.25-2.3l-.05-.55-.1.2-.25.2-.35.2v-.4l-.05-2.2q-.05-.45-.3-.4-.85.1-1.45.95l-.25.55q-.1-.95-.75-1.6l-.75-.4v.85q0 1.2-1.1 1.05l-1.8-.3" fill="#c24141" fill-rule="evenodd" transform="translate(-243.65 -174.3)"/><path d="M248 180q.75-.45 1.8-.8l1-.35.85-.2q-2.4 3.5-1.65 5.8l-4.75 2.15.35-2.75.15-.8q.35-1.5 1.55-2.5l.7-.55" fill="#692121" fill-rule="evenodd" transform="translate(-243.65 -174.3)"/><path d="m262.8 181.05 1.8.3q1.1.15 1.1-1.05v-.85l.75.4q.65.65.75 1.6l.25-.55q.6-.85 1.45-.95.25-.05.3.4l.05 2.2v.4l.35-.2.25-.2.1-.2.05.55q.35 1.1.25 2.3v.55l-.55 1.4-1.4 1.9.4-.8.25-1.35.1-2.1q-.1.45-.65.5v-.3l-.25-2.45-1.15 1.7q-.55-1.2-1.4-.35-.7-1.15-2-2.2l-.8-.65" fill="#ec0000" fill-rule="evenodd" transform="translate(-243.65 -174.3)"/><path d="M265.6 183.9q.85-.85 1.4.35l1.15-1.7.25 2.45v.3q.55-.05.65-.5l-.1 2.1-.25 1.35-.4.8-.95 1.25-.95-4.2q-.15-1.15-.8-2.2" fill="#ef9527" fill-rule="evenodd" transform="translate(-243.65 -174.3)"/><path d="M8 4.35q2.45-.45 5.3.05 3.35.65 5.85 2.35l.8.65q1.3 1.05 2 2.2.65 1.05.8 2.2l.95 4.2.95-1.25 1.4-1.9.55-1.4.4-1.05.6-1.1v-.45q0-2.7-2.8-4.95-2.75-2.25-6.65-3Q14.2.15 11 1.4q-1.2.4-2.05 1l-4.6 3.3q.75-.45 1.8-.8l1-.35.85-.2q-2.4 3.5-1.65 5.8L1.6 12.3l.35-2.75.15-.8q.35-1.5 1.55-2.5l.7-.55m20.4 8.85-.1.2" fill="none" stroke="#8f2c2c" stroke-linecap="round" stroke-linejoin="round" stroke-width=".2"/><path d="M302.7 206q-.35-1.45-.2-2l-.2-.5-4.45-3.05-2.65-2.1q-3.4-3.4-7.7-3.95l-8.5-.6q-3.25.15-5.55 2.1v.1l1.65 2.3 2.5 3.2 2.7 3.65 2.05 3.1q.8 1.3 1.55 1.55l1.5.35 3.4-.55 3.9-.75 4.35-1.3q2.45-.95 4-1.25l1.65-.3" fill="#423a2b" fill-rule="evenodd" transform="translate(-243.65 -174.3)"/><path d="m273.45 196-.2 2.05q4.55 3.45 6.95 8.9 2.4 5.35 7.2 3.8 4.8-1.5 10.35-2.1t5.05-2.35l-.1-.3-1.65.3q-1.55.3-4 1.25l-4.35 1.3-3.9.75-3.4.55-1.5-.35q-.75-.25-1.55-1.55l-2.05-3.1-2.7-3.65-2.5-3.2-1.65-2.3" fill="#6b6243" fill-rule="evenodd" transform="translate(-243.65 -174.3)"/><path d="m284.15 209.4.05.05-.05-.05M304 198.25l.1-.15-.1.05-.35.4h.1l.25-.3m-1.05.85.3.15-.15-.25-.1.05-.05.05m-18.7 3 .05.05h.05l-.1-.05" fill="#fceebe" fill-rule="evenodd" transform="translate(-243.65 -174.3)"/><path d="M274.05 188.3v-.05H274l.05.05m10.4 13.9.2.15-.15-.2-.1-.1v.1l-.15-.05.1.05h.1v.05" fill="#ecba48" fill-rule="evenodd" transform="translate(-243.65 -174.3)"/><path d="m281.65 199.5-1.15-1.95-.15-.2h-.05l-1.5 1.35q1.15.7 1.8 1.85l1.05-1.05m-3.3-7.15-.8.85.8 2.8 1.15-1.1-1.15-2.55m.1 4.4.2 1.05 1.45-1.1-.05-.2-.25-.8-1.35 1.05" fill="#fff" fill-rule="evenodd" transform="translate(-243.65 -174.3)"/><path d="m302.95 199.1.05-.05-.05.05" fill="#987d23" fill-rule="evenodd" transform="translate(-243.65 -174.3)"/><path d="m302.5 205.55 1.45-7.15.05-.15-.25.3h-.05l-6.9 2.1-10.35 2.35-2-.65-.1 3.15-.1 2.3.35.65q1.4-1.25 1.9-3.25.05 1.15.55 2.1l.35.65.85-.15.9-3.15q0 1.25.45 2.3l.3.65 1.2-1.95.4-.8.3 2.75.85.2q.85-2.55.95-5.1 0 1.15.5 2.35l.4.75 1.15-.4.95-3.55.2-1.2.8 4.4 2.1-3.55.65 2.5 1.8-3.15q-.15.85.2 1.7l.15 3m.5-6.5.1-.05.15.25-.3-.15.05-.05" fill="#8b3030" fill-rule="evenodd" transform="translate(-243.65 -174.3)"/><path d="M273.7 193.95V195l-.05.1v.05l.45.45-.4-.6.65.85.5.05q-.15-1.15 0-1.75l1.05.75q.55.7.6 1.8.3-1.5.7-1.95l.55 1.8.15.6.05.15.2.9.2.95.2 1.25.45.4.65.6q.6.7.9 1.55l.25.45.45-.95.85 2.45q.6 1.75 2.05 2.5l-.05 1.55.1.3.05-1.45.1-2.3q-1.45-.8-2.05-2.5l-.85-2.45-.45 1.05-.4-1.05q-.65-1.15-1.8-1.85v-.05l-.15-.85-.2-1.05-.1-.75-.9-3.15q-.35.3-.55 1l-.2.9-.05-.65q-.3-1.3-1.6-1.8-.15.55 0 1.65h-1.35" fill="#ce261e" fill-rule="evenodd" transform="translate(-243.65 -174.3)"/><path d="m274.1 195.6 4.45 6.8.05.15 5.5 6.75.1-.05-.1-.3.05-1.55q-1.45-.75-2.05-2.5l-.85-2.45-.45.95-.25-.45q-.3-.85-.9-1.55l-.65-.6-.45-.4-.2-1.25-.2-.95-.2-.9-.05-.15-.15-.6-.55-1.8q-.4.45-.7 1.95-.05-1.1-.6-1.8l-1.05-.75q-.15.6 0 1.75l-.5-.05-.65-.85.4.6" fill="#f48415" fill-rule="evenodd" transform="translate(-243.65 -174.3)"/><path d="m284.2 209.25-.05.1v.05l.05.05 4.2-.25 5.2-1.05q2.4-.45 4.8-1.5 2.55-1.05 4.1-1.1l-.15-3q-.35-.85-.2-1.7l-1.8 3.15-.65-2.5-2.1 3.55-.8-4.4-.2 1.2-.95 3.55-1.15.4-.4-.75q-.5-1.2-.5-2.35-.1 2.55-.95 5.1l-.85-.2-.3-2.75-.4.8-1.2 1.95-.3-.65q-.45-1.05-.45-2.3l-.9 3.15-.85.15-.35-.65q-.5-.95-.55-2.1-.5 2-1.9 3.25l-.35-.65-.05 1.45" fill="#ca690b" fill-rule="evenodd" transform="translate(-243.65 -174.3)"/><path d="m294.15 195.5-1.3-1 1.3 1 .95-.1-2.6-1.95 2.6 1.95 3.6-.25q-1.7-.9-2.55-2-2-2.85-6.05-5.8l.1.1-1.3-.65q-.85-.4-1.85-.65l-4.35.65-.15.6-.6-.45-5.3.7h-.05.05l-2.5.6-.05.05.15.05.55.3.3.2q2 1.25 3.25 3.5l1.15 2.55.3.8.25.8.05.2v.2l.2.45h.05l.15.2-.1-.2q1.4-.65 3.1-.9l.85-.15 9.8-.8m-10.8-.15 1 .95-1-.95m20.65 2.8.05-.05-.1-.1-.1-.05-.75-.45-.05-.05-5.35.1-5.3.45-5.6.6q-2.45.3-4.9 1.2l2.5 2.25.1.1.15.2-.2-.15v.15l2 .65 10.35-2.35 6.9-2.1h-.05l.35-.4m-18-10.6 1.65 1.6-1.65-1.6" fill="#cfa034" fill-rule="evenodd" transform="translate(-243.65 -174.3)"/><path d="M274.1 188.3h-.05l-.05-.05-.15 1.1-.15 4.05v.55h1.35q-.15-1.1 0-1.65 1.3.5 1.6 1.8l.05.65.2-.9q.2-.7.55-1l.1.35.8-.85q-1.25-2.25-3.25-3.5l-.3-.2-.55-.3-.15-.05m7.8 11.5-.25-.3-1.05 1.05.4 1.05.45-1.05.85 2.45q.6 1.7 2.05 2.5l.1-3.15v-.2h-.15l-.05-.05.15.05v-.1l-2.5-2.25m-2.4-4.9-1.15 1.1.1.75 1.35-1.05-.3-.8m.6 1.8-1.45 1.1.15.85v.05l1.5-1.35-.2-.45v-.2" fill="#aa3f17" fill-rule="evenodd" transform="translate(-243.65 -174.3)"/><path d="m294.15 195.5-9.8.8-.85.15q-1.7.25-3.1.9l.1.2 1.15 1.95.25.3q2.45-.9 4.9-1.2l5.6-.6 5.3-.45-2.6-2.15 2.6 2.15 5.35-.1-1.35-.75-.5-.3-.1-.1-1.9-.9-.5-.25-3.6.25-.95.1 1.3 1-1.3-1m-8.3 2.05-1.5-1.25 1.5 1.25" fill="#bd872f" fill-rule="evenodd" transform="translate(-243.65 -174.3)"/><path d="m49.2 20.2 2.6 2M40.7 22l-1-.95m9.15-1.9 2.6 1.95 2.6 2.15M40.7 22l1.5 1.25m1.8-8.4-1.65-1.6" fill="none" stroke="#28383e" stroke-linecap="round" stroke-linejoin="round" stroke-opacity=".502" stroke-width=".1"/><path d="M286.45 191.1q2.35-1.55 5.4-2l4.8.3.75.25.95.4 1.55.95-3.95-3.55q-.75-.65-1.8-1.15-2.8-1.4-6.45-.95-3.6.5-6.2 2.55-2.7 2.05-2.85 4.7l-.05.45.5 1.15.3 1 .05-.55q-.05-1.15.3-2.25l.1-.5.1.2.2.2.3.2.05-.4.15-2.15q.1-.4.3-.35.8.15 1.3 1.05l.15.55q.15-.95.8-1.55.2-.3.65-.35l-.05.85q-.05 1.2.95 1.1l1.7-.15" fill="#c24141" fill-rule="evenodd" transform="translate(-243.65 -174.3)"/><path d="m299.9 191-1.55-.95-.95-.4-.75-.25q1.95 3.6 1.15 5.85l4.2 2.4-.15-2.7-.1-.8q-.2-1.55-1.25-2.55l-.6-.6" fill="#692121" fill-rule="evenodd" transform="translate(-243.65 -174.3)"/><path d="m286.45 191.1-1.7.15q-1 .1-.95-1.1l.05-.85q-.45.05-.65.35-.65.6-.8 1.55l-.15-.55q-.5-.9-1.3-1.05-.2-.05-.3.35l-.15 2.15-.05.4-.3-.2-.2-.2-.1-.2-.1.5q-.35 1.1-.3 2.25l-.05.55.4 1.45 1.15 1.95-.1-.2-.2-.65-.15-1.3.05-2.1q.05.45.5.55l.45-2.7.95 1.75q.55-1.15 1.25-.25.7-1.1 1.95-2.05l.8-.55" fill="#ec0000" fill-rule="evenodd" transform="translate(-243.65 -174.3)"/><path d="M283.7 193.7q-.7-.9-1.25.25l-.95-1.75-.45 2.7q-.45-.1-.5-.55l-.05 2.1.15 1.3.2.65.1.2.8 1.3 1.1-4.1q.2-1.15.85-2.1" fill="#ef9527" fill-rule="evenodd" transform="translate(-243.65 -174.3)"/><path d="m53 15.1-4.8-.3q-3.05.45-5.4 2l-.8.55q-1.25.95-1.95 2.05-.65.95-.85 2.1l-1.1 4.1-.8-1.3-1.15-1.95-.4-1.45-.3-1-.5-1.15.05-.45q.15-2.65 2.85-4.7 2.6-2.05 6.2-2.55 3.65-.45 6.45.95 1.05.5 1.8 1.15l3.95 3.55-1.55-.95-.95-.4-.75-.25q1.95 3.6 1.15 5.85l4.2 2.4-.15-2.7-.1-.8q-.2-1.55-1.25-2.55l-.6-.6M37.2 24.1l.1.2" fill="none" stroke="#8f2c2c" stroke-linecap="round" stroke-linejoin="round" stroke-width=".2"/></g></defs></svg>