<svg viewBox="0 0 287.24 275.19" xmlns="http://www.w3.org/2000/svg" xmlns:xlink="http://www.w3.org/1999/xlink"><g transform="translate(-101.21 -53.969)"><use transform="matrix(1 .1443 .0004 1.0001 100.3 31.493)" width="214.15" height="248.45" xlink:href="#a"/><use transform="matrix(1 .0687 0 1.1781 180.3 70.675)" width="40" height="92.1" xlink:href="#b"/><use transform="matrix(1 .0687 0 1 168.3 80.926)" width="40" height="92.1" xlink:href="#b"/><use transform="matrix(1 .0687 0 1 165.85 86.526)" width="40" height="92.1" xlink:href="#b"/><use transform="matrix(.9659 .3252 -.2588 .9481 159.6 71.334)" width="40" height="92.1" xlink:href="#b"/><use transform="matrix(1 .0687 0 1.2497 159.85 91.226)" width="40" height="92.1" xlink:href="#b"/><use transform="translate(142.25 67.9)" width="173.95" height="261.25" xlink:href="#c"/><use transform="matrix(.8349 .0574 0 .8306 242.1 54.775)" width="21.8" height="24.25" xlink:href="#d"/><use transform="matrix(.9659 -.1924 .0958 1.0162 251.66 56.102)" width="21.8" height="24.25" xlink:href="#d"/><use transform="matrix(1 .0687 0 1 267.8 58.051)" width="21.8" height="24.25" xlink:href="#d"/><use transform="matrix(.326 .587 -.7513 .3821 238.45 51.443)" width="34.45" height="25.7" xlink:href="#e"/><use transform="matrix(.9292 -.2604 .2317 .68 265.9 71.864)" width="101.55" height="130.3" xlink:href="#f"/><use transform="matrix(.5757 -.1904 .3424 .8806 269.97 72.241)" width="101.55" height="130.3" xlink:href="#f"/><use transform="matrix(.9511 .3202 -.1821 .6673 267.6 69.227)" width="101.55" height="130.3" xlink:href="#f"/><use transform="matrix(1 .0687 0 1 252.85 75.662)" width="101.55" height="130.3" xlink:href="#f"/><use transform="matrix(.6207 .0426 0 .924 252.45 77.735)" width="101.55" height="130.3" xlink:href="#f"/><use transform="matrix(.8255 .2779 -.1924 .7046 207.17 53.865)" width="34.45" height="25.7" xlink:href="#e"/><use transform="matrix(.8546 .0587 0 .7432 193.95 62.44)" width="34.45" height="25.7" xlink:href="#e"/><use transform="matrix(.9466 .0651 0 .8231 184.57 66.954)" width="34.45" height="25.7" xlink:href="#e"/><use transform="matrix(.7401 -.3765 .3716 .6692 179.29 83.176)" width="34.45" height="25.7" xlink:href="#e"/><use transform="translate(245.9 224.4)" width="61.95" height="57.2" xlink:href="#g"/></g><defs><linearGradient id="j" x1="-819.2" x2="819.2" gradientTransform="matrix(-.0109 .019 -.0583 -.0335 -16.5 -38.3)" gradientUnits="userSpaceOnUse"><stop stop-color="#614200" offset="0"/><stop stop-color="#6e4a00" offset="1"/></linearGradient><linearGradient id="k" x1="-819.2" x2="819.2" gradientTransform="matrix(.0096 0 0 .004 -12.5 -71.4)" gradientUnits="userSpaceOnUse"><stop stop-color="#a97200" offset="0"/><stop stop-color="#cc8824" offset="1"/></linearGradient><linearGradient id="l" x1="-819.2" x2="819.2" gradientTransform="matrix(0 .0381 -.0352 0 -23.55 -23)" gradientUnits="userSpaceOnUse"><stop stop-color="#7b5200" offset="0"/><stop stop-color="#916100" offset="1"/></linearGradient><linearGradient id="m" x1="-819.2" x2="819.2" gradientTransform="matrix(.0052 0 0 .0035 -48.45 -71.4)" gradientUnits="userSpaceOnUse"><stop stop-color="#a97200" offset="0"/><stop stop-color="#cc8824" offset="1"/></linearGradient><linearGradient id="n" x1="-819.2" x2="819.2" gradientTransform="matrix(-.0138 .0516 -.0547 -.0147 -7.4 51.6)" gradientUnits="userSpaceOnUse"><stop stop-color="#614200" offset="0"/><stop stop-color="#6e4a00" offset="1"/></linearGradient><linearGradient id="o" x1="-819.2" x2="819.2" gradientTransform="matrix(-.0389 .0389 -.034 -.034 -36.55 51.9)" gradientUnits="userSpaceOnUse"><stop stop-color="#7b5200" offset="0"/><stop stop-color="#916100" offset="1"/></linearGradient><linearGradient id="p" x1="-819.2" x2="819.2" gradientTransform="matrix(.0011 .0042 -.0035 .0009 15.35 -5.2)" gradientUnits="userSpaceOnUse"><stop stop-color="#7b5200" offset="0"/><stop stop-color="#916100" offset="1"/></linearGradient><linearGradient id="q" x1="-819.2" x2="819.2" gradientTransform="matrix(-.001 -.001 .0054 -.0054 -89.45 51.75)" gradientUnits="userSpaceOnUse"><stop stop-color="#a97200" offset="0"/><stop stop-color="#cc8824" offset="1"/></linearGradient><linearGradient id="r" x1="-819.2" x2="819.2" gradientTransform="matrix(-.0036 -.0062 .0126 -.0072 -85.05 42.45)" gradientUnits="userSpaceOnUse"><stop stop-color="#7b5200" offset="0"/><stop stop-color="#916100" offset="1"/></linearGradient><linearGradient id="s" x1="-819.2" x2="819.2" gradientTransform="matrix(-.0103 -.0027 .004 -.0153 -68.7 74.1)" gradientUnits="userSpaceOnUse"><stop stop-color="#a97200" offset="0"/><stop stop-color="#cc8824" offset="1"/></linearGradient><linearGradient id="t" x1="-819.2" x2="819.2" gradientTransform="matrix(-.0104 -.006 .0086 -.0149 -47.45 47.9)" gradientUnits="userSpaceOnUse"><stop stop-color="#7b5200" offset="0"/><stop stop-color="#916100" offset="1"/></linearGradient><linearGradient id="u" x1="-819.2" x2="819.2" gradientTransform="matrix(-.009 -.0024 .002 -.0075 -51.25 53.65)" gradientUnits="userSpaceOnUse"><stop stop-color="#a97200" offset="0"/><stop stop-color="#cc8824" offset="1"/></linearGradient><linearGradient id="y" x1="-819.2" x2="819.2" gradientTransform="matrix(-.013 .0217 -.0694 -.0446 245.1 139.75)" gradientUnits="userSpaceOnUse"><stop stop-color="#795200" offset="0"/><stop stop-color="#895c00" offset="1"/></linearGradient><linearGradient id="z" x1="-819.2" x2="819.2" gradientTransform="matrix(.0114 .0008 0 .0047 249.8 100.65)" gradientUnits="userSpaceOnUse"><stop stop-color="#d28e00" offset="0"/><stop stop-color="#fda92d" offset="1"/></linearGradient><linearGradient id="A" x1="-819.2" x2="819.2" gradientTransform="matrix(.0062 .0004 0 .0042 207.1 97.75)" gradientUnits="userSpaceOnUse"><stop stop-color="#d28e00" offset="0"/><stop stop-color="#fda92d" offset="1"/></linearGradient><linearGradient id="B" x1="-819.2" x2="819.2" gradientTransform="matrix(0 .0454 -.0419 -.0029 236.7 157.3)" gradientUnits="userSpaceOnUse"><stop stop-color="#960" offset="0"/><stop stop-color="#b47900" offset="1"/></linearGradient><linearGradient id="C" x1="-819.2" x2="819.2" gradientTransform="matrix(-.0164 .0602 -.0651 -.0219 255.9 247.4)" gradientUnits="userSpaceOnUse"><stop stop-color="#795200" offset="0"/><stop stop-color="#895c00" offset="1"/></linearGradient><linearGradient id="D" x1="-819.2" x2="819.2" gradientTransform="matrix(-.0463 .0431 -.0405 -.0433 221.25 245.35)" gradientUnits="userSpaceOnUse"><stop stop-color="#960" offset="0"/><stop stop-color="#b47900" offset="1"/></linearGradient><linearGradient id="E" x1="-819.2" x2="819.2" gradientTransform="matrix(.0013 .005 -.0042 .0008 282.95 181.7)" gradientUnits="userSpaceOnUse"><stop stop-color="#960" offset="0"/><stop stop-color="#b47900" offset="1"/></linearGradient><linearGradient id="F" x1="-819.2" x2="819.2" gradientTransform="matrix(-.0042 -.0077 .015 -.0076 163.55 230.15)" gradientUnits="userSpaceOnUse"><stop stop-color="#960" offset="0"/><stop stop-color="#b47900" offset="1"/></linearGradient><linearGradient id="G" x1="-819.2" x2="819.2" gradientTransform="matrix(-.0012 -.0013 .0064 -.006 158.3 240.9)" gradientUnits="userSpaceOnUse"><stop stop-color="#d28e00" offset="0"/><stop stop-color="#fda92d" offset="1"/></linearGradient><linearGradient id="H" x1="-819.2" x2="819.2" gradientTransform="matrix(-.0122 -.0041 .0048 -.0178 183 269.15)" gradientUnits="userSpaceOnUse"><stop stop-color="#d28e00" offset="0"/><stop stop-color="#fda92d" offset="1"/></linearGradient><linearGradient id="I" x1="-819.2" x2="819.2" gradientTransform="matrix(-.0124 -.008 .0102 -.0171 208.25 239.7)" gradientUnits="userSpaceOnUse"><stop stop-color="#960" offset="0"/><stop stop-color="#b47900" offset="1"/></linearGradient><linearGradient id="J" x1="-819.2" x2="819.2" gradientTransform="matrix(-.0107 -.0036 .0023 -.0087 203.75 246.25)" gradientUnits="userSpaceOnUse"><stop stop-color="#d28e00" offset="0"/><stop stop-color="#fda92d" offset="1"/></linearGradient><g id="a" transform="translate(107.05 124.2)"><use transform="matrix(.8408 0 0 .9905 -69.616 -92.562)" width="40" height="92.1" xlink:href="#b"/><use transform="translate(-79.716 -83.268) scale(.8408)" width="40" height="92.1" xlink:href="#b"/><use transform="translate(-81.766 -78.468) scale(.8408)" width="40" height="92.1" xlink:href="#b"/><use transform="scale(.8407) rotate(15 358.422 -447.104)" width="40" height="92.1" xlink:href="#b"/><use transform="matrix(.8408 0 0 1.0507 -86.816 -74.136)" width="40" height="92.1" xlink:href="#b"/><use transform="translate(-102.95 -99.35)" width="146.25" height="223.6" xlink:href="#h"/><use transform="matrix(.7019 0 0 .6983 -17.651 -109.5)" width="21.8" height="24.25" xlink:href="#d"/><use transform="matrix(.8121 -.2176 .0806 .8488 -9.627 -108.95)" width="21.8" height="24.25" xlink:href="#d"/><use transform="translate(3.936 -108.27) scale(.8408)" width="21.8" height="24.25" xlink:href="#d"/><use transform="matrix(.2741 .4747 -.6317 .3647 -20.747 -112.1)" width="34.45" height="25.7" xlink:href="#e"/><use transform="matrix(.7812 -.2726 .1948 .5583 2.36 -96.54)" width="101.55" height="130.3" xlink:href="#f"/><use transform="matrix(.4841 -.1934 .2879 .7206 5.776 -96.434)" width="101.55" height="130.3" xlink:href="#f"/><use transform="matrix(.7997 .2143 -.1531 .5715 3.792 -98.861)" width="101.55" height="130.3" xlink:href="#f"/><use transform="translate(-8.62 -92.576) scale(.8408)" width="101.55" height="130.3" xlink:href="#f"/><use transform="matrix(.5219 0 0 .7769 -8.985 -90.865)" width="101.55" height="130.3" xlink:href="#f"/><use transform="matrix(.6941 .186 -.1617 .6036 -47.01 -108.25)" width="34.45" height="25.7" xlink:href="#e"/><use transform="matrix(.7186 0 0 .6249 -58.159 -100.28)" width="34.45" height="25.7" xlink:href="#e"/><use transform="matrix(.7959 0 0 .6921 -66.039 -95.943)" width="34.45" height="25.7" xlink:href="#e"/><use transform="matrix(.6223 -.3593 .3124 .5412 -70.468 -81.974)" width="34.45" height="25.7" xlink:href="#e"/></g><g id="i"><path d="m12.15-45.05 7.85-1q.5 47.7-18 82.8-3.4 8.15-15.15 9.3-8.9.4-6.2-8.65Q-10.2 45.9 4 15.05q8.3-26.65 8.15-60.1" fill="#451e14" fill-rule="evenodd" transform="translate(20 46.05)"/><path d="M12.15-45.05Q12.3-11.6 4 15.05-10.2 45.9-19.35 37.4q.55-1.95 1.65-4.35Q6 2.55 6.85-44.4l5.3-.65" fill="#5a261a" fill-rule="evenodd" transform="translate(20 46.05)"/><path d="M.65 83.45q-2.7 9.05 6.2 8.65Q18.6 90.95 22 82.8 40.5 47.7 40 0M26.85 1.65Q26 48.6 2.3 79.1 1.2 81.5.65 83.45z" fill="none" stroke="#322012" stroke-linecap="round" stroke-linejoin="round" stroke-width=".05"/></g><g id="h"><path d="M-49.05-74.25q-1.45-.7-2.05-2.25-.8-4.8 8.3-9.55 27.5-13.35 56.3-7.7 4.4 12.45-23.9 19.1l-9.95 2 .6 4.5q1.8 18.25-12 15.7Q-42-54.25-44.15-69l-.5-4.9q-2.75.4-4.4-.35M-76.9 64.2l-15.8 10.3q4.2-13.85 15.8-10.3" fill="#442e00" fill-rule="evenodd" transform="translate(102.95 99.35)"/><path d="m-21.45-28.3-7.9-7.55-.9-12.1.9 12.1 7.9 7.55q-1.8 4.75-7 4.5-5.35.35-7.5-4.95-1.2-3.05-1.35-7.85-.8-9.65 7.05-11.35Q-21.1-46.4-20.5-35q0 4.1-.95 6.7m-7 4.5-.9-12.05-6.6 7.1 6.6-7.1.9 12.05" fill="#7b5200" fill-rule="evenodd" transform="translate(102.95 99.35)"/><path d="M-40.15 14.95q-2.2.6-2.4-2.55-.25-4.15 3.55-4.65h.05q10.8-2.8 21.5 1.05 5.45 4.5-.55 4.25-10.1-2.75-21.45-1.2l-.7 3.1" fill="#a42900" fill-rule="evenodd" transform="translate(102.95 99.35)"/><path d="m-98.1 76 1.6-1.5h3.8q23.6-2.45 38.75 10.35.65-.15 4.15 6.9l7 2.6q-23.35 6.45-44.75-2.6Q-104.6 85-98.1 76" fill="#b5a15c" fill-rule="evenodd" transform="translate(102.95 99.35)"/><path d="M43.2 41.95q.35 4.75-.45 8l-.05.2Q41.5 64.7 37.8 77.7l-6.7 3.2q.45-3.85-3.95-1.1-3.1 2.35-2.15 4.55L17.9 88q-.4-2.9-4.5-.8-3.05 1.9-2.05 4.5L2.6 96.6v-9.25l-6.3 6.75q-13.25 14.95-27.55 22.6-34.8 13.7-62.05 2.55-9.5-6.8-9.45-15.95v-8.15q3.95-8.2 40.9 16.75 3.1 1.35 6.35 2.05 23.15 4.8 52.3-25.8Q3.3 80.5 10 77.2l6.5-4.65q24.05-17.9 26.7-30.6M5.85 84.05l-3.25 3.3 3.25-3.3" fill="#391910" fill-rule="evenodd" transform="translate(102.95 99.35)"/><path d="m31.1 80.9-3.95-1.1q4.4-2.75 3.95 1.1M17.9 88l-4.5-.8q4.1-2.1 4.5.8M2.6 96.6l-6.3-2.5 6.3-6.75v9.25" fill-rule="evenodd" transform="translate(102.95 99.35)"/><path d="M-44.05 22.65v-1.7q-.15-4.6 3.4-4.3 14.3-3.65 23 2.6 2.3 4.6-3.8 4.25-7-6.1-20.5-3.9-.9 1.75-2.1 3.05" fill="#cea400" fill-rule="evenodd" transform="translate(102.95 99.35)"/><path d="M-50.85 30.05q-2.25-7.65 6.8-7.4 16.95-.35 21.1 7.7 2.8 5.65-3.4 1.15-7.25-5.35-21.75-4.2l-2.75 2.75" fill="#659700" fill-rule="evenodd" transform="translate(102.95 99.35)"/><path d="M-76.9 64.2q2.45.7 5.25 2.25 7.85 4.35 17.7 18.4Q-69.1 72.05-92.7 74.5l15.8-10.3" fill="#3e3e3e" fill-rule="evenodd" transform="translate(102.95 99.35)"/><path d="m-21.95 50.7-.45 2.4-1.9 1.75-1.9 1.8-3.8 3.55-1.85 1.7-2.85 2.65 1-5.85q6.05-3.35 12.15-10.35l-.4 2.35" fill="#614200" fill-rule="evenodd" transform="translate(102.95 99.35)"/><path d="m-31.85 61.9 1.85-1.7 3.9 4-1.7 2.4-4.05-4.7m5.65-5.25 1.9-1.8 5.1 5.95h-2.75l-4.25-4.15" fill="#525252" fill-rule="evenodd" transform="translate(102.95 99.35)"/><path d="m-24.3 54.85 1.9-1.75.45-2.4 7.9 8.7-16.85 13.8-8.65-10 2.6-1.6 2.25 2.95 2.85-2.65 4.05 4.7 1.7-2.4-3.9-4 3.8-3.55 4.25 4.15h2.75l-5.1-5.95" fill="#7b7b7b" fill-rule="evenodd" transform="translate(102.95 99.35)"/><path d="M-51.7-85.4q18.75-16.45 62.65-13.5 10.75-.9 12.15 10.25l.1 4.45q1.3 31.9 17.15 57.6-4.05 6.6-8.9 11.55Q25.5-9 18.4-5.4l-8.6-9.1 3.9 11.15Q9.65-1.85 5.3-1.1-6.3-32.55-4.6-70h-.05q.3-3.9-5.75-4.65 28.3-6.65 23.9-19.1-28.8-5.65-56.3 7.7-9.1 4.75-8.3 9.55.6 1.55 2.05 2.25-4.55 1.15-3.4 5.15h.05q11.45 28.5 9.85 48.65-1.65 12.1-4.6 10.5l-.55-.4q-3.25-2.55-2.1-7.25 2.35-23.45-7.7-54.4-.85-7.55 5.8-13.4" fill="url(#j)" fill-rule="evenodd" transform="translate(102.95 99.35)"/><path d="M-10.4-74.65q6.05.75 5.75 4.65l-15.1 1.85-.6-4.5 9.95-2" fill="url(#k)" fill-rule="evenodd" transform="translate(102.95 99.35)"/><path d="M-47.15-9.95q2.95 1.6 4.6-10.5 1.6-20.15-9.85-48.65 3.65 1.15 8.25.1 2.15 14.75 12.4 16.55 13.8 2.55 12-15.7L-4.65-70h.05Q-6.3-32.55 5.3-1.1-3.9.55-14.6-1q2-17.9-13.55-19.7-11.7-1-8.25 13.3l-3.15-.25q-5-.55-7.6-2.3m25.7-18.35q.95-2.6.95-6.7-.6-11.4-9.75-12.95-7.85 1.7-7.05 11.35.15 4.8 1.35 7.85 2.15 5.3 7.5 4.95 5.2.25 7-4.5" fill="url(#l)" fill-rule="evenodd" transform="translate(102.95 99.35)"/><path d="M-52.4-69.1h-.05q-1.15-4 3.4-5.15 1.65.75 4.4.35l.5 4.9q-4.6 1.05-8.25-.1" fill="url(#m)" fill-rule="evenodd" transform="translate(102.95 99.35)"/><path d="M5.3-1.1q4.35-.75 8.4-2.25l4.7-2.05q7.1-3.6 13.05-9.65.65 22.3 8.9 42.2 2.4 8.65 2.85 14.8-2.65 12.7-26.7 30.6L10 77.2Q3.3 80.5-3.2 88.15q-29.15 30.6-52.3 25.8 35.35-11.8 49.65-46.1 7-8.5 15.65-8.9Q31.35 46 22.9 31.4l-9.1-16.1Q-1.75 3.35-21.3.65q6.9-6.05-5.95-10.8-6.65-.35-7.3 10L-38.9 0q-.15-3.6-.65-7.65l3.15.25q-3.45-14.3 8.25-13.3Q-12.6-18.9-14.6-1-3.9.55 5.3-1.1" fill="url(#n)" fill-rule="evenodd" transform="translate(102.95 99.35)"/><path d="M-102.75 95.15v-8.2Q-104 81.9-98.1 76q-6.5 9 10.55 15.75 21.4 9.05 44.75 2.6-1.4-8.1-17.9-26.3-16.05-14.1-29.1-8.8l2.9-1.65 5-3.05 4.45-2.9Q-75.3 50.2-73.8 50q24.2-3.55 36.85 11.6l-2.6 1.6 8.65 10 16.85-13.8-7.9-8.7.4-2.35q-14.7-14.3-35.65-13.65 2.75-1.15 6.35-4.65l2.75-2.75q14.5-1.15 21.75 4.2 6.2 4.5 3.4-1.15-4.15-8.05-21.1-7.7 1.2-1.3 2.1-3.05 13.5-2.2 20.5 3.9 6.1.35 3.8-4.25-8.7-6.25-23-2.6l.5-1.7.7-3.1Q-28.1 10.3-18 13.05q6 .25.55-4.25-10.7-3.85-21.5-1.05H-39q.25-3.55.1-7.75l4.35-.15q.65-10.35 7.3-10Q-14.4-5.4-21.3.65q19.55 2.7 35.1 14.65l9.1 16.1Q31.35 46 9.8 58.95q-8.65.4-15.65 8.9-14.3 34.3-49.65 46.1-3.25-.7-6.35-2.05-36.95-24.95-40.9-16.75" fill="url(#o)" fill-rule="evenodd" transform="translate(102.95 99.35)"/><path d="M13.7-3.35 9.8-14.5l8.6 9.1-4.7 2.05" fill="url(#p)" fill-rule="evenodd" transform="translate(102.95 99.35)"/><path d="M-86.9 57.6q-7.35-1.15-10.55-5.1-4.2-5.7-1-11.4l2.65-4.6q-1.25 2.6-1.3 7.4 1.25 8.5 15.2 10.65l-5 3.05" fill="url(#q)" fill-rule="evenodd" transform="translate(102.95 99.35)"/><path d="m-95.8 36.5.3-.5 1-1.3.2-.15.25-.25q2.75-2.05 7.95.25 2.85 10.15 15.05 8.3l-6.4 4.1q-3.4 3.65 0 4.7l-4.45 2.9Q-95.85 52.4-97.1 43.9q.05-4.8 1.3-7.4" fill="url(#r)" fill-rule="evenodd" transform="translate(102.95 99.35)"/><path d="M-96.5 74.5q1.05-8.9 3-11.65 1.95-2.85 3.7-3.6 13.05-5.3 29.1 8.8 16.5 18.2 17.9 26.3l-7-2.6q-3.5-7.05-4.15-6.9-9.85-14.05-17.7-18.4-2.8-1.55-5.25-2.25-11.6-3.55-15.8 10.3h-3.8" fill="url(#s)" fill-rule="evenodd" transform="translate(102.95 99.35)"/><path d="M-71.05 42.85q3.95-2.9 5-4.85 3.8-2.95 8.85-3.3 20.95-.65 35.65 13.65-6.1 7-12.15 10.35Q-55 39.25-77.45 46.95l6.4-4.1" fill="url(#t)" fill-rule="evenodd" transform="translate(102.95 99.35)"/><path d="M-36.95 61.6Q-49.6 46.45-73.8 50q-1.5.2-3.65 1.65-3.4-1.05 0-4.7Q-55 39.25-33.7 58.7l-1 5.85-2.25-2.95" fill="url(#u)" fill-rule="evenodd" transform="translate(102.95 99.35)"/><path d="M134.4 84.3q4.85-4.95 8.9-11.55-15.85-25.7-17.15-57.6l-.1-4.45Q124.65-.45 113.9.45 70-2.5 51.25 13.95m-5.8 13.4q10.05 30.95 7.7 54.4-1.15 4.7 2.1 7.25M53.9 25.1q-1.45-.7-2.05-2.25-.8-4.8 8.3-9.55 27.5-13.35 56.3-7.7 4.4 12.45-23.9 19.1m15.7 73.55q4.35-.75 8.4-2.25m4.7-2.05q7.1-3.6 13.05-9.65.65 22.3 8.9 42.2 2.4 8.65 2.85 14.8.35 4.75-.45 8l-.05.2q-1.2 14.55-4.9 27.55l-6.7 3.2-3.95-1.1q-3.1 2.35-2.15 4.55l-7.1 3.65-4.5-.8q-3.05 1.9-2.05 4.5l-8.75 4.9-6.3-2.5Q86 208.4 71.7 216.05q-34.8 13.7-62.05 2.55-9.5-6.8-9.45-15.95V186.3q-1.25-5.05 4.65-10.95l1.6-1.5q1.05-8.9 3-11.65 1.95-2.85 3.7-3.6l2.9-1.65m29.7-22.9q2.75-1.15 6.35-4.65-2.25-7.65 6.8-7.4 1.2-1.3 2.1-3.05m1.3-2.95.5-1.7q-2.2.6-2.4-2.55-.25-4.15 3.55-4.65.25-3.55.1-7.75-.15-3.6-.65-7.65-5-.55-7.6-2.3m65.55 4.55-4.7 2.05m-69.2 117.3q23.15 4.8 52.3-25.8 6.5-7.65 13.2-10.95l6.5-4.65q24.05-17.9 26.7-30.6m-40.6 45.4 3.25-3.3m-3.25 12.55v-9.25l-6.3 6.75m17.1-6.9q4.1-2.1 4.5.8m9.25-8.2q4.4-2.75 3.95 1.1M83.2 31.2l-.6-4.5 9.95-2m-9.35 6.5q1.8 18.25-12 15.7-10.25-1.8-12.4-16.55m-4.9-5.25q1.65.75 4.4.35l.5 4.9m4.6 61.35 3.15.25q-3.45-14.3 8.25-13.3 15.55 1.8 13.55 19.7 10.7 1.55 19.9-.1M62.8 114.3l.7-3.1q11.35-1.55 21.45 1.2 6 .25.55-4.25-10.7-3.85-21.5-1.05h-.05M52.1 129.4l2.75-2.75q14.5-1.15 21.75 4.2 6.2 4.5 3.4-1.15-4.15-8.05-21.1-7.7m-5.75 69.1 7 2.6m-49.9-19.85h-3.8M25.5 151l-4.45 2.9-5 3.05M.2 194.5q3.95-8.2 40.9 16.75 3.1 1.35 6.35 2.05m-37.2-39.45 15.8-10.3" fill="none" stroke="#000" stroke-linecap="round" stroke-linejoin="round" stroke-opacity=".4" stroke-width=".05"/><path d="m72.7 51.4.9 12.1 7.9 7.55q.95-2.6.95-6.7-.6-11.4-9.75-12.95-7.85 1.7-7.05 11.35.15 4.8 1.35 7.85l6.6-7.1.9 12.05q5.2.25 7-4.5M67 70.6q2.15 5.3 7.5 4.95" fill="none" stroke="#52351e" stroke-linecap="round" stroke-linejoin="round" stroke-width="4"/><path d="M51.25 13.95q-6.65 5.85-5.8 13.4" fill="none" stroke="#000" stroke-linecap="round" stroke-linejoin="round" stroke-opacity=".4" stroke-width=".05"/><path d="M16.05 156.95q-7.35-1.15-10.55-5.1-4.2-5.7-1-11.4l2.65-4.6.3-.5 1-1.3.2-.15.25-.25q2.75-2.05 7.95.25 2.85 10.15 15.05 8.3 3.95-2.9 5-4.85 3.8-2.95 8.85-3.3 20.95-.65 35.65 13.65-6.1 7-12.15 10.35l-1 5.85 2.85-2.65 1.85-1.7 3.8-3.55 1.9-1.8 5.1 5.95H81L76.75 156M58.9 122v-1.7q-.15-4.6 3.4-4.3m-1.3 2.95q13.5-2.2 20.5 3.9 6.1.35 3.8-4.25-8.7-6.25-23-2.6m-36.8 30.3 6.4-4.1m46.75 12 1.9-1.75.45-2.4.4-2.35M66 160.95l-2.6 1.6 8.65 10 16.85-13.8-7.9-8.7m-8.05 9.5 3.9 4-1.7 2.4-4.05-4.7m-2.85 2.65L66 160.95M25.5 146.3q-3.4 3.65 0 4.7" fill="none" stroke="#52351e" stroke-linecap="round" stroke-linejoin="round" stroke-width=".05"/><path d="M-56.4 87.25q-.3-.1-.55-.25-3.4-1.55-.3-8.3 2.95-6.45 7.5-.05-1.95-.75-4.6 0-1.7.85-2.5 4.45l.45 4.15" fill="#cebb9e" fill-rule="evenodd" transform="translate(102.95 99.35)"/><path d="m-49.75 78.65.5.7q-4.9 1.25-4.5 5.85l2 1.95-4.65.1-.45-4.15q.8-3.6 2.5-4.45 2.65-.75 4.6 0" fill="#cea465" fill-rule="evenodd" transform="translate(102.95 99.35)"/><path d="M46.55 186.6q-.3-.1-.55-.25-3.4-1.55-.3-8.3 2.95-6.45 7.5-.05l.5.7q-4.9 1.25-4.5 5.85l2 1.95z" fill="none" stroke="#525252" stroke-linecap="round" stroke-linejoin="round" stroke-width=".05"/><path d="m-91.3 70.8-.55.25q-3.45 1.35-5.85-5.45-2.3-6.4 5.2-5.3-1.85.9-3.25 3.25-.6 1.8 1.3 4.8l3.15 2.45" fill="#cebb9e" fill-rule="evenodd" transform="translate(102.95 99.35)"/><path d="m-92.5 60.3.8.2q-2.55 4.25.85 7.05l2.75-.05q-.8 2.1-3.2 3.3l-3.15-2.45q-1.9-3-1.3-4.8 1.4-2.35 3.25-3.25" fill="#cea465" fill-rule="evenodd" transform="translate(102.95 99.35)"/><path d="m11.65 170.15-.55.25q-3.45 1.35-5.85-5.45-2.3-6.4 5.2-5.3l.8.2q-2.55 4.25.85 7.05l2.75-.05q-.8 2.1-3.2 3.3z" fill="none" stroke="#525252" stroke-linecap="round" stroke-linejoin="round" stroke-width=".05"/><path d="m-75.8 68.25-.6-.2q-3.3-1.55-.25-8.15 2.9-6.3 7.35-.05-1.9-.7-4.55 0-1.65.85-2.4 4.35l.45 4.05" fill="#cebb9e" fill-rule="evenodd" transform="translate(102.95 99.35)"/><path d="m-69.3 59.85.45.7q-4.75 1.25-4.4 5.7l1.95 1.95q-2 .95-4.5.05l-.45-4.05q.75-3.5 2.4-4.35 2.65-.7 4.55 0" fill="#cea465" fill-rule="evenodd" transform="translate(102.95 99.35)"/><path d="m27.15 167.6-.6-.2q-3.3-1.55-.25-8.15 2.9-6.3 7.35-.05l.45.7q-4.75 1.25-4.4 5.7l1.95 1.95q-2 .95-4.5.05z" fill="none" stroke="#525252" stroke-linecap="round" stroke-linejoin="round" stroke-width=".05"/></g><g id="v"><path d="M3.9-10.5v.05l-.15.2.15-.25" fill="#297b52" fill-rule="evenodd" transform="translate(10.9 12.1)"/><path d="m3.95-10.45-.2.2.15-.2h.05" fill="#1f6140" fill-rule="evenodd" transform="translate(10.9 12.1)"/><path d="M3.95-10.45 7.2-7.2l3.7 11.1Q6.95 14.15-3.45 11.65q-3.7-.35-7.4-5.7v-2.8q7.3-12.35 14.6-13.4l.2-.2" fill="#723221" fill-rule="evenodd" transform="translate(10.9 12.1)"/><path d="M3.75-10.25q-7.3 1.05-14.6 13.4Q-10.6-5.1-6.6-9.1q5.2-5.2 10.5-1.4l-.15.25" fill="#933f2a" fill-rule="evenodd" transform="translate(10.9 12.1)"/><path d="M.05 15.25v2.8q3.7 5.35 7.4 5.7 10.4 2.5 14.35-7.75L18.1 4.9l-3.25-3.25M.05 15.25Q.3 7 4.3 3q5.2-5.2 10.5-1.4v.05h.05" fill="none" stroke="#52351e" stroke-linecap="round" stroke-linejoin="round" stroke-width=".05"/></g><g id="w"><path d="M-12.6 7.85q3.55-10.6 13.9-11.8 5.4-.45 8.3 1.4 5.45 2.2 6.95-.9l.55 1.25q1.1 12.2-5.6 15.05Q3.1 7.7-.7 8.35l-11.9-.5" fill="#723221" fill-rule="evenodd" transform="translate(17.2 12.85)"/><path d="M16.55-3.45q-1.5 3.1-6.95.9-2.9-1.85-8.3-1.4-10.35 1.2-13.9 11.8l-4.6-.2 2.85-8.2q10.25-12.6 20.5-12.3 7.45 3 10.4 9.4" fill="#933f2a" fill-rule="evenodd" transform="translate(17.2 12.85)"/><path d="M33.75 9.4Q30.8 3 23.35 0 13.1-.3 2.85 12.3L0 20.5m16.5.7q3.8-.65 12.2 4.5 6.7-2.85 5.6-15.05l-.55-1.25z" fill="none" stroke="#52351e" stroke-linecap="round" stroke-linejoin="round" stroke-width=".05"/></g><g id="x"><path d="m45.15 45.7.25-.2-.25.2" fill="#297b52" fill-rule="evenodd" transform="translate(50.75 65.15)"/><path d="M-50.4-50.25q.95-4.9 4.65-11.65 15.65-8.15 29.9 4.1Q2.1 12.05 33.55 35.25q7.6 5.6 11.85 10.25l-.25.2q-4.75 9.2-17.2 2.65-31.5-34.9-50.15-94.05-4.35-14.95-15.9-12.35l-12.3 7.8" fill="#933f2a" fill-rule="evenodd" transform="translate(50.75 65.15)"/><path d="m-50.45-50.05.05-.2 12.3-7.8q11.55-2.6 15.9 12.35 18.65 59.15 50.15 94.05 12.45 6.55 17.2-2.65l.25-.2q13.3 14.55-6.3 19.65-9.4-.45-21.35-16.8-31.55-37.2-43-89.75-5.15-6-13.25-6.15l-11.85 3.5q-.75-2.55-.1-6" fill="#723221" fill-rule="evenodd" transform="translate(50.75 65.15)"/><path d="M5 3.25q15.65-8.15 29.9 4.1Q52.85 77.2 84.3 100.4q7.6 5.6 11.85 10.25 13.3 14.55-6.3 19.65-9.4-.45-21.35-16.8-31.55-37.2-43-89.75-5.15-6-13.25-6.15L.4 21.1M.35 14.9Q1.3 10 5 3.25M.4 21.1q-.75-2.55-.1-6" fill="none" stroke="#52351e" stroke-linecap="round" stroke-linejoin="round" stroke-width=".05"/></g><g id="c"><path d="M206.35 94.25q-1.7-.9-2.45-2.75-.9-5.8 9.9-10.75 32.7-13.6 66.95-4.55 5.2 15.25-28.45 20.8l-11.85 1.55.75 5.4q2.15 21.85-14.3 17.7-12.15-3-14.75-20.7l-.6-5.9q-3.25.25-5.2-.8m-51.9 173.4q5-16.15 18.75-11l-18.75 11" fill="#553900" fill-rule="evenodd" transform="translate(-142.25 -67.9)"/><path d="M228.7 127.15q10.9 2.55 11.6 16.2.05 4.85-1.1 7.85l-9.4-9.65-1.1-14.4 1.1 14.4 9.4 9.65q-2.15 5.55-8.35 4.8-6.35-.05-8.9-6.55-1.45-3.65-1.65-9.4-.9-11.55 8.4-12.9m1.1 14.4-7.85 7.9 7.85-7.9 1.05 14.45-1.05-14.45" fill="#960" fill-rule="evenodd" transform="translate(-142.25 -67.9)"/><path d="M218.35 192.65q12.9-2.45 25.55 3 6.5 5.8-.65 5.05-12-4.15-25.5-3.2l-.8 3.6q-2.6.55-2.85-3.2-.3-4.95 4.25-5.25" fill="#c30" fill-rule="evenodd" transform="translate(-142.25 -67.9)"/><path d="M213.8 295.3q-27.75 5.8-53.25-6.7-20.25-9.4-12.5-19.65l1.85-1.65 4.55.35q28.1-1 46.05 15.45.8-.1 4.95 8.6l8.35 3.6" fill="#e0c872" fill-rule="evenodd" transform="translate(-142.25 -67.9)"/><path d="M142.5 291.35q4.7-9.4 48.65 23.3 3.7 1.85 7.55 2.95 27.55 7.6 62.2-26.4 7.7-8.6 15.7-12l7.7-4.95q28.6-19.35 31.8-34.25.4 5.7-.55 9.5l-.1.25q-1.35 17.2-5.35 29.6l-8.4 6.05q.5-4.6-4.7-1.65-3.7 2.55-2.6 5.25l-8.45 3.75q-.45-3.5-5.35-1.3-3.6 2-2.4 5.15l-10.4 5.1v-11l-7.5 7.55q-15.75 16.7-32.8 24.6-41.4 13.5-73.8-2-11.3-8.9-11.2-19.8v-9.7m129.15-4.25-3.85 3.6 3.85-3.6" fill="#471f14" fill-rule="evenodd" transform="translate(-142.25 -67.9)"/><path d="M280.6 291.45q4.9-2.2 5.35 1.3l-5.35-1.3m16.4-7.7q5.2-2.95 4.7 1.65l-4.7-1.65m-29.2 17.95-7.5-3.45 7.5-7.55v11" fill-rule="evenodd" transform="translate(-142.25 -67.9)"/><path d="M216.35 203.1q17-3.2 27.35 4.95 2.75 5.65-4.55 4.75-8.3-7.8-24.35-6.3l-2.5 3.45v-2.05q-.2-5.45 4.05-4.8" fill="#fc0" fill-rule="evenodd" transform="translate(-142.25 -67.9)"/><path d="M212.3 209.95q20.15.95 25.1 10.9 3.3 6.95-4.05 1.1-8.6-7-25.85-6.8l-3.3 3.05q-2.65-9.25 8.1-8.25" fill="#7ebb00" fill-rule="evenodd" transform="translate(-142.25 -67.9)"/><path d="M173.2 256.65q2.95 1.1 6.25 3.15 9.35 5.8 21.05 23.3-17.95-16.45-46.05-15.45l18.75-11" fill="#4d4d4d" fill-rule="evenodd" transform="translate(-142.25 -67.9)"/><path d="m239.05 242.35-.5 2.75-.5 2.8-2.25 2-2.3 1.95-4.5 3.9-2.15 1.9-3.45 2.9 1.2-6.9q7.25-3.45 14.45-11.3" fill="#795200" fill-rule="evenodd" transform="translate(-142.25 -67.9)"/><path d="m233.5 251.85 2.3-1.95 6.05 7.45-3.3-.25-5.05-5.25m-6.65 5.8 2.15-1.9 4.65 5.05-2.05 2.8-4.75-5.95" fill="#666" fill-rule="evenodd" transform="translate(-142.25 -67.9)"/><path d="m238.55 245.1 9.45 11-20.1 15.05-10.25-12.65 3.1-1.6 2.65 3.65 3.45-2.9 4.75 5.95 2.05-2.8-4.65-5.05 4.5-3.9 5.05 5.25 3.3.25-6.05-7.45 2.25-2 .5-2.8" fill="#999" fill-rule="evenodd" transform="translate(-142.25 -67.9)"/><path d="M252.3 97q33.65-5.55 28.45-20.8-34.25-9.05-66.95 4.55-10.8 4.95-9.9 10.75.75 1.85 2.45 2.75-5.4 1-4 5.9 13.65 34.8 11.7 58.65-1.9 14.25-5.45 12.1l-.65-.5q-3.85-3.3-2.5-8.8 2.8-27.7-9.15-65.35-1-9.05 6.9-15.4 22.3-18.1 74.5-10.95 12.8-.2 14.45 13.2l.15 5.25q1.55 38.05 20.4 69.95-4.85 7.5-10.6 12.95-7.1 6.75-15.55 10.45l-10.2-11.55L281 183.7q-4.8 1.45-10 2.05-13.8-38.35-11.8-82.75.35-4.65-6.9-6" fill="url(#y)" fill-rule="evenodd" transform="translate(-142.25 -67.9)"/><path d="m241.2 103.95-.75-5.4L252.3 97q7.25 1.35 6.9 6l-18 .95" fill="url(#z)" fill-rule="evenodd" transform="translate(-142.25 -67.9)"/><path d="M206.35 94.25q1.95 1.05 5.2.8l.6 5.9q-5.4.85-9.8-.8-1.4-4.9 4-5.9" fill="url(#A)" fill-rule="evenodd" transform="translate(-142.25 -67.9)"/><path d="M212.15 100.95q2.6 17.7 14.75 20.7 16.45 4.15 14.3-17.7l18-.95q-2 44.4 11.8 82.75-10.95 1.2-23.7-1.55 2.4-21.1-16.1-24.5-13.9-2.15-9.8 15.15l-3.75-.55q-5.95-1.1-9.05-3.4 3.55 2.15 5.45-12.1 1.95-23.85-11.7-58.65 4.4 1.65 9.8.8m27.05 50.25q1.15-3 1.1-7.85-.7-13.65-11.6-16.2-9.3 1.35-8.4 12.9.2 5.75 1.65 9.4 2.55 6.5 8.9 6.55 6.2.75 8.35-4.8" fill="url(#B)" fill-rule="evenodd" transform="translate(-142.25 -67.9)"/><path d="M271 185.75q5.2-.6 10-2.05l5.55-2q8.45-3.7 15.55-10.45.8 26.65 10.6 50.95 2.85 10.5 3.4 17.8-3.2 14.9-31.8 34.25l-7.7 4.95q-8 3.4-15.7 12-34.65 34-62.2 26.4 42.05-11.15 59.05-50.75 8.35-9.5 18.6-9.3 25.65-13.65 15.6-31.7-10.1-18.1-10.85-19.9-18.5-15.5-41.7-20.3 8.2-6.65-7.15-13.35-7.85-.95-8.65 11.3l-5.2-.15-.75-9.15 3.75.55q-4.1-17.3 9.8-15.15 18.5 3.4 16.1 24.5 12.75 2.75 23.7 1.55" fill="url(#C)" fill-rule="evenodd" transform="translate(-142.25 -67.9)"/><path d="M218.35 192.65q.3-4.2.05-9.2l5.2.15q.8-12.25 8.65-11.3 15.35 6.7 7.15 13.35 23.2 4.8 41.7 20.3.75 1.8 10.85 19.9 10.05 18.05-15.6 31.7-10.25-.2-18.6 9.3-17 39.6-59.05 50.75-3.85-1.1-7.55-2.95-43.95-32.7-48.65-23.3v-9.7q-1.45-6.15 5.55-12.7-7.75 10.25 12.5 19.65 25.5 12.5 53.25 6.7-1.65-9.75-21.3-32.7-19.05-18.1-34.6-12.85l3.45-1.75 5.95-3.2 5.25-3.1q2.6-1.55 4.35-1.7 28.8-2.15 43.85 16.9l-3.1 1.6 10.25 12.65L248 256.1l-9.45-11 .5-2.75q-17.5-18.2-42.4-19.1 3.3-1.2 7.55-5.05l3.3-3.05q17.25-.2 25.85 6.8 7.35 5.85 4.05-1.1-4.95-9.95-25.1-10.9l2.5-3.45q16.05-1.5 24.35 6.3 7.3.9 4.55-4.75-10.35-8.15-27.35-4.95l.6-2 .8-3.6q13.5-.95 25.5 3.2 7.15.75.65-5.05-12.65-5.45-25.55-3" fill="url(#D)" fill-rule="evenodd" transform="translate(-142.25 -67.9)"/><path d="m281 183.7-4.65-13.55 10.2 11.55-5.55 2" fill="url(#E)" fill-rule="evenodd" transform="translate(-142.25 -67.9)"/><path d="m172.55 241.7-5.25 3.1q-16.65-3.7-18.1-13.95.05-5.65 1.55-8.65l.35-.55q.5-.9 1.2-1.45l.2-.2q.15-.15.35-.25 3.25-2.25 9.45.9 3.4 12.35 17.9 11.1-3.1 2-7.65 4.35-4.05 4.1 0 5.6" fill="url(#F)" fill-rule="evenodd" transform="translate(-142.25 -67.9)"/><path d="m167.3 244.8-5.95 3.2q-8.75-1.95-12.55-6.9-5.05-7.15-1.2-13.65l3.15-5.25q-1.5 3-1.55 8.65 1.45 10.25 18.1 13.95" fill="url(#G)" fill-rule="evenodd" transform="translate(-142.25 -67.9)"/><path d="M157.9 249.75q15.55-5.25 34.6 12.85 19.65 22.95 21.3 32.7l-8.35-3.6q-4.15-8.7-4.95-8.6-11.7-17.5-21.05-23.3-3.3-2.05-6.25-3.15-13.75-5.15-18.75 11l-4.55-.35q1.25-10.45 3.6-13.6 2.3-3.15 4.4-3.95" fill="url(#H)" fill-rule="evenodd" transform="translate(-142.25 -67.9)"/><path d="M196.65 223.25q24.9.9 42.4 19.1-7.2 7.85-14.45 11.3-25.35-24.85-52.05-17.55 4.55-2.35 7.65-4.35 4.65-3.1 5.9-5.35 4.5-3.15 10.55-3.15" fill="url(#I)" fill-rule="evenodd" transform="translate(-142.25 -67.9)"/><path d="M220.75 256.9Q205.7 237.85 176.9 240q-1.75.15-4.35 1.7-4.05-1.5 0-5.6 26.7-7.3 52.05 17.55l-1.2 6.9-2.65-3.65" fill="url(#J)" fill-rule="evenodd" transform="translate(-142.25 -67.9)"/><path d="M110.05 29.1q33.65-5.55 28.45-20.8-34.25-9.05-66.95 4.55-10.8 4.95-9.9 10.75.75 1.85 2.45 2.75 1.95 1.05 5.2.8l.6 5.9q2.6 17.7 14.75 20.7 16.45 4.15 14.3-17.7l-.75-5.4 11.85-1.55m18.7 88.75q5.2-.6 10-2.05m5.55-2q8.45-3.7 15.55-10.45 5.75-5.45 10.6-12.95-18.85-31.9-20.4-69.95l-.15-5.25Q148.25 1.8 135.45 2q-52.2-7.15-74.5 10.95m-6.9 15.4Q66 66 63.2 93.7q-1.35 5.5 2.5 8.8m10.45 13.05q.25 5-.05 9.2 12.9-2.45 25.55 3 6.5 5.8-.65 5.05-12-4.15-25.5-3.2l-.8 3.6-.6 2m-1.55 3.4-2.5 3.45q20.15.95 25.1 10.9 3.3 6.95-4.05 1.1-8.6-7-25.85-6.8l-3.3 3.05q-4.25 3.85-7.55 5.05M30.3 173.8l-5.25 3.1-5.95 3.2-3.45 1.75q-2.1.8-4.4 3.95-2.35 3.15-3.6 13.6l4.55.35 18.75-11M5.8 201.05q-7 6.55-5.55 12.7v9.7q4.7-9.4 48.65 23.3 3.7 1.85 7.55 2.95m19.7-134.15-.75-9.15q-5.95-1.1-9.05-3.4m9.75 21.75q-4.55.3-4.25 5.25.25 3.75 2.85 3.2m54.05-15.35q-10.95 1.2-23.7-1.55 2.4-21.1-16.1-24.5-13.9-2.15-9.8 15.15l-3.75-.55m68.9 7.4-5.55 2m-75.55 108 8.35 3.6m-63.9-28-1.85 1.65m112.25 29.3q-15.75 16.7-32.8 24.6-41.4 13.5-73.8-2-11.3-8.9-11.2-19.8v-9.7m173.6-51.35q-.55-7.3-3.4-17.8-9.8-24.3-10.6-50.95m-34.3 119.45 3.85-3.6m-3.85 14.6 10.4-5.1q-1.2-3.15 2.4-5.15 4.9-2.2 5.35 1.3l8.45-3.75q-1.1-2.7 2.6-5.25 5.2-2.95 4.7 1.65l8.4-6.05q4-12.4 5.35-29.6l.1-.25q.95-3.8.55-9.5-3.2 14.9-31.8 34.25l-7.7 4.95q-8 3.4-15.7 12-34.65 34-62.2 26.4m103-32.2-4.7-1.65m-11.05 9-5.35-1.3m-76.4-73.25q-2.65-9.25 8.1-8.25m55.5 91.75-7.5-3.45 7.5-7.55v11" fill="none" stroke="#000" stroke-linecap="round" stroke-linejoin="round" stroke-opacity=".4" stroke-width=".05"/><path d="M96.95 83.3q1.15-3 1.1-7.85-.7-13.65-11.6-16.2l1.1 14.4 9.4 9.65q-2.15 5.55-8.35 4.8-6.35-.05-8.9-6.55-1.45-3.65-1.65-9.4-.9-11.55 8.4-12.9m1.1 14.4L88.6 88.1m-8.9-6.55 7.85-7.9" fill="none" stroke="#664226" stroke-linecap="round" stroke-linejoin="round" stroke-width="4"/><path d="M60.95 12.95q-7.9 6.35-6.9 15.4" fill="none" stroke="#000" stroke-linecap="round" stroke-linejoin="round" stroke-opacity=".4" stroke-width=".05"/><path d="M74.1 135.2q17-3.2 27.35 4.95 2.75 5.65-4.55 4.75-8.3-7.8-24.35-6.3M54.4 155.35q24.9.9 42.4 19.1l-.5 2.75 9.45 11-20.1 15.05L75.4 190.6l3.1-1.6 2.65 3.65 3.45-2.9 2.15-1.9 4.5-3.9 5.05 5.25 3.3.25-6.05-7.45 2.25-2 .5-2.8M8.5 154.3l.35-.55q.5-.9 1.2-1.45l.2-.2q.15-.15.35-.25 3.25-2.25 9.45.9 3.4 12.35 17.9 11.1 4.65-3.1 5.9-5.35 4.5-3.15 10.55-3.15M19.1 180.1q-8.75-1.95-12.55-6.9-5.05-7.15-1.2-13.65l3.15-5.25m61.55-12.25V140q-.2-5.45 4.05-4.8m-43.8 33q4.55-2.35 7.65-4.35m-7.65 9.95q-4.05-1.5 0-5.6m52.05 17.55q7.25-3.45 14.45-11.3M93.55 182l-2.3 1.95m-6.65 5.8 4.75 5.95 2.05-2.8-4.65-5.05m-4.4-2.1-1.2 6.9" fill="none" stroke="#664226" stroke-linecap="round" stroke-linejoin="round" stroke-width=".05"/><path d="m197.65 285.75-.7-.3q-4.05-2.15-.35-9.9 3.5-7.45 8.95.55-2.35-1.1-5.5-.4-2.05.85-2.95 5.1l.55 4.95" fill="#ffe8c4" fill-rule="evenodd" transform="translate(-142.25 -67.9)"/><path d="m205.55 276.1.55.8q-5.8 1.15-5.3 6.6l2.35 2.5-5.5-.25-.55-4.95q.9-4.25 2.95-5.1 3.15-.7 5.5.4" fill="#ffcb7d" fill-rule="evenodd" transform="translate(-142.25 -67.9)"/><path d="m55.4 217.85-.7-.3q-4.05-2.15-.35-9.9 3.5-7.45 8.95.55l.55.8q-5.8 1.15-5.3 6.6l2.35 2.5z" fill="none" stroke="#666" stroke-linecap="round" stroke-linejoin="round" stroke-width=".05"/><path d="m156.1 263.35-.65.25q-4.05 1.35-6.95-6.9-2.75-7.85 6.2-5.9-2.2.9-3.85 3.6-.75 2.05 1.55 5.75l3.7 3.2" fill="#ffe8c4" fill-rule="evenodd" transform="translate(-142.25 -67.9)"/><path d="m154.7 250.8.95.25q-3 4.9 1 8.5l3.25.2q-.95 2.45-3.8 3.6l-3.7-3.2q-2.3-3.7-1.55-5.75 1.65-2.7 3.85-3.6" fill="#ffcb7d" fill-rule="evenodd" transform="translate(-142.25 -67.9)"/><path d="m13.85 195.45-.65.25q-4.05 1.35-6.95-6.9-2.75-7.85 6.2-5.9l.95.25q-3 4.9 1 8.5l3.25.2q-.95 2.45-3.8 3.6z" fill="none" stroke="#666" stroke-linecap="round" stroke-linejoin="round" stroke-width=".05"/><path d="m174.55 261.6-.7-.3q-3.9-2.05-.3-9.7 3.45-7.3 8.75.55-2.3-1.05-5.4-.4-2 .85-2.9 5l.55 4.85" fill="#ffe8c4" fill-rule="evenodd" transform="translate(-142.25 -67.9)"/><path d="m182.3 252.15.55.8q-5.7 1.1-5.2 6.45l2.3 2.45-5.4-.25-.55-4.85q.9-4.15 2.9-5 3.1-.65 5.4.4" fill="#ffcb7d" fill-rule="evenodd" transform="translate(-142.25 -67.9)"/><path d="m32.3 193.7-.7-.3q-3.9-2.05-.3-9.7 3.45-7.3 8.75.55l.55.8q-5.7 1.1-5.2 6.45l2.3 2.45z" fill="none" stroke="#666" stroke-linecap="round" stroke-linejoin="round" stroke-width=".05"/></g><g id="g" fill-rule="evenodd"><path d="M288.2 249.25q-9.05-6.45-20.75-11.2 2.55-6.15 2.65-13.65 13.8 6.45 24.85 16.3l-6.75 8.55" fill="#c30" transform="translate(-245.9 -224.4)"/><path d="m271.15 258.25 10.95-4.2q7.15 5.55 12.9 12.35l-7.75 5.85q-6.55-8.4-16.1-14" fill="#a80" transform="translate(-245.9 -224.4)"/><path d="m282.1 254.05-10.95 4.2q-5.7-3.35-12.45-5.7 4.45-2.8 5.35-9.4 9.9 4.6 18.05 10.9" fill="#fc0" transform="translate(-245.9 -224.4)"/><path d="m258.85 267.9 3.75-5.15q9.6 6.45 16.15 15.1l-6.8 3.75q-5.15-8.35-13.1-13.7" fill="#557d00" transform="translate(-245.9 -224.4)"/><path d="m262.6 262.75-3.75 5.15q-5.75-3.85-12.95-6.15 6.05-1.55 7.1-4.55 5.15 2.55 9.6 5.55" fill="#7ebb00" transform="translate(-245.9 -224.4)"/><path d="M294.95 240.7q7 6.25 12.9 13.85l-6.55 6.55q-5.65-6.55-13.1-11.85l6.75-8.55" fill="#802000" transform="translate(-245.9 -224.4)"/></g><use width="40" height="92.1" xlink:href="#i" id="b"/><use width="21.8" height="24.25" xlink:href="#v" id="d"/><use width="34.45" height="25.7" xlink:href="#w" id="e"/><use width="101.55" height="130.3" xlink:href="#x" id="f"/></defs></svg>