<svg viewBox="0 0 265.51 332.1" xmlns="http://www.w3.org/2000/svg" xmlns:xlink="http://www.w3.org/1999/xlink"><g transform="translate(-142.22 -33.925)"><use transform="translate(142.25 33.95)" width="216.8" height="318.55" xlink:href="#a"/><use transform="translate(189.5 39.1)" width="218.2" height="326.9" xlink:href="#b"/></g><defs><linearGradient id="d" x1="-819.2" x2="819.2" gradientTransform="matrix(.0081 -.0646 .0239 .0043 47.9 -103.2)" gradientUnits="userSpaceOnUse"><stop stop-color="#b5a303" offset="0"/><stop stop-color="#c8bf92" offset="1"/></linearGradient><linearGradient id="e" x1="-819.2" x2="819.2" gradientTransform="matrix(.0614 -.0213 .0067 .0232 83.25 -46.7)" gradientUnits="userSpaceOnUse"><stop stop-color="#b5a303" offset="0"/><stop stop-color="#c8bf92" offset="1"/></linearGradient><linearGradient id="f" x1="-819.2" x2="819.2" gradientTransform="matrix(.0636 .014 -.0064 .0234 78.55 -2.85)" gradientUnits="userSpaceOnUse"><stop stop-color="#b5a303" offset="0"/><stop stop-color="#c8bf92" offset="1"/></linearGradient><linearGradient id="g" x1="-819.2" x2="819.2" gradientTransform="matrix(.0418 -.034 .0271 .0334 5.7 -104.2)" gradientUnits="userSpaceOnUse"><stop stop-color="#a47b00" offset="0"/><stop stop-color="#cda037" offset="1"/></linearGradient><linearGradient id="h" x1="-819.2" x2="819.2" gradientTransform="matrix(0 -.0268 .0351 0 13.15 -110.05)" gradientUnits="userSpaceOnUse"><stop stop-color="#432e00" offset="0"/><stop stop-color="#896700" offset="1"/></linearGradient><linearGradient id="i" x1="-819.2" x2="819.2" gradientTransform="matrix(-.0124 0 0 -.0412 17.15 -91.4)" gradientUnits="userSpaceOnUse"><stop stop-color="#432e00" offset="0"/><stop stop-color="#896700" offset="1"/></linearGradient><linearGradient id="j" x1="-819.2" x2="819.2" gradientTransform="matrix(.0528 0 0 .1376 21.6 37.15)" gradientUnits="userSpaceOnUse"><stop stop-color="#604100" offset="0"/><stop stop-color="#3c2500" offset="1"/></linearGradient><linearGradient id="k" x1="-819.2" x2="819.2" gradientTransform="matrix(.0254 0 0 .0471 -7.05 -35.45)" gradientUnits="userSpaceOnUse"><stop stop-color="#7b5200" offset="0"/><stop stop-color="#785403" offset="1"/></linearGradient><linearGradient id="l" x1="-819.2" x2="819.2" gradientTransform="matrix(.016 0 0 .0257 55 26.85)" gradientUnits="userSpaceOnUse"><stop stop-color="#7b5200" offset="0"/><stop stop-color="#785403" offset="1"/></linearGradient><linearGradient id="m" x1="-819.2" x2="819.2" gradientTransform="matrix(.0041 0 0 .0054 41.35 -2.8)" gradientUnits="userSpaceOnUse"><stop stop-color="#7b5200" offset="0"/><stop stop-color="#785403" offset="1"/></linearGradient><linearGradient id="n" x1="-819.2" x2="819.2" gradientTransform="matrix(.0067 0 0 .0126 18.85 20.8)" gradientUnits="userSpaceOnUse"><stop stop-color="#604100" offset="0"/><stop stop-color="#3c2500" offset="1"/></linearGradient><linearGradient id="o" x1="-819.2" x2="819.2" gradientTransform="matrix(.0061 0 0 .0042 17.75 8.65)" gradientUnits="userSpaceOnUse"><stop stop-color="#7b5200" offset="0"/><stop stop-color="#785403" offset="1"/></linearGradient><linearGradient id="p" x1="-819.2" x2="819.2" gradientTransform="matrix(.0081 0 0 .0117 -.15 17.7)" gradientUnits="userSpaceOnUse"><stop stop-color="#7b5200" offset="0"/><stop stop-color="#785403" offset="1"/></linearGradient><linearGradient id="q" x1="-819.2" x2="819.2" gradientTransform="matrix(.0162 0 0 .0201 2.15 16.5)" gradientUnits="userSpaceOnUse"><stop stop-color="#bdbdbd" offset="0"/><stop stop-color="#333f2e" offset="1"/></linearGradient><linearGradient id="r" x1="-819.2" x2="819.2" gradientTransform="matrix(.0089 0 0 .012 2.5 19.05)" gradientUnits="userSpaceOnUse"><stop stop-color="#604100" offset="0"/><stop stop-color="#3c2500" offset="1"/></linearGradient><linearGradient id="s" x1="-819.2" x2="819.2" gradientTransform="matrix(.0132 0 0 .012 -21.5 11.2)" gradientUnits="userSpaceOnUse"><stop stop-color="#7b5200" offset="0"/><stop stop-color="#785403" offset="1"/></linearGradient><linearGradient id="t" x1="-819.2" x2="819.2" gradientTransform="matrix(.013 0 0 .0132 -19.65 17.75)" gradientUnits="userSpaceOnUse"><stop stop-color="#604100" offset="0"/><stop stop-color="#3c2500" offset="1"/></linearGradient><linearGradient id="u" x1="-819.2" x2="819.2" gradientTransform="matrix(.013 0 0 .0049 1.35 35.05)" gradientUnits="userSpaceOnUse"><stop stop-color="#7b5200" offset="0"/><stop stop-color="#785403" offset="1"/></linearGradient><linearGradient id="v" x1="-819.2" x2="819.2" gradientTransform="matrix(.0137 0 0 .0046 1.95 43.7)" gradientUnits="userSpaceOnUse"><stop stop-color="#7b5200" offset="0"/><stop stop-color="#785403" offset="1"/></linearGradient><linearGradient id="w" x1="-819.2" x2="819.2" gradientTransform="matrix(.0212 0 0 .0163 .95 63.25)" gradientUnits="userSpaceOnUse"><stop stop-color="#7b5200" offset="0"/><stop stop-color="#785403" offset="1"/></linearGradient><linearGradient id="x" x1="-819.2" x2="819.2" gradientTransform="matrix(.0313 0 0 .0285 -25.75 80.2)" gradientUnits="userSpaceOnUse"><stop stop-color="#7b5200" offset="0"/><stop stop-color="#785403" offset="1"/></linearGradient><linearGradient id="y" x1="-819.2" x2="819.2" gradientTransform="matrix(.012 0 0 .01 -24.2 78.7)" gradientUnits="userSpaceOnUse"><stop stop-color="#604100" offset="0"/><stop stop-color="#3c2500" offset="1"/></linearGradient><linearGradient id="z" x1="-819.2" x2="819.2" gradientTransform="matrix(.0285 0 0 .0166 38.25 91.35)" gradientUnits="userSpaceOnUse"><stop stop-color="#7b5200" offset="0"/><stop stop-color="#785403" offset="1"/></linearGradient><linearGradient id="A" x1="-819.2" x2="819.2" gradientTransform="matrix(.0056 0 0 .0057 -51.05 79.95)" gradientUnits="userSpaceOnUse"><stop stop-color="#604100" offset="0"/><stop stop-color="#3c2500" offset="1"/></linearGradient><linearGradient id="B" x1="-819.2" x2="819.2" gradientTransform="matrix(.0324 0 0 .0489 -33 104.25)" gradientUnits="userSpaceOnUse"><stop stop-color="#7b5200" offset="0"/><stop stop-color="#785403" offset="1"/></linearGradient><linearGradient id="C" x1="-819.2" x2="819.2" gradientTransform="matrix(.0301 0 0 .0347 -54.4 127.65)" gradientUnits="userSpaceOnUse"><stop stop-color="#b6a40c" offset="0"/><stop stop-color="#c6bd88" offset="1"/></linearGradient><linearGradient id="D" x1="-819.2" x2="819.2" gradientTransform="matrix(.0161 0 0 .0378 50.05 120.05)" gradientUnits="userSpaceOnUse"><stop stop-color="#b6a40c" offset="0"/><stop stop-color="#c6bd88" offset="1"/></linearGradient><linearGradient id="E" x1="-819.2" x2="819.2" gradientTransform="matrix(.0092 0 0 .0134 34.3 110.75)" gradientUnits="userSpaceOnUse"><stop stop-color="#b6a40c" offset="0"/><stop stop-color="#c6bd88" offset="1"/></linearGradient><linearGradient id="F" x1="-819.2" x2="819.2" gradientTransform="matrix(-.0082 -.0143 .0352 -.0202 -50.9 138.3)" gradientUnits="userSpaceOnUse"><stop stop-color="#6c5500" offset="0"/><stop stop-color="#584600" offset="1"/></linearGradient><linearGradient id="G" x1="-819.2" x2="819.2" gradientTransform="matrix(.0139 0 0 .0077 -44 108.7)" gradientUnits="userSpaceOnUse"><stop stop-color="#6c5500" offset="0"/><stop stop-color="#584600" offset="1"/></linearGradient><linearGradient id="H" x1="-819.2" x2="819.2" gradientTransform="matrix(.0219 -.0219 .0217 .0217 50.85 113.25)" gradientUnits="userSpaceOnUse"><stop stop-color="#6c5500" offset="0"/><stop stop-color="#584600" offset="1"/></linearGradient><linearGradient id="I" x1="-819.2" x2="819.2" gradientTransform="matrix(.0246 -.0603 .0219 .0103 329.4 117.8)" gradientUnits="userSpaceOnUse"><stop stop-color="#e1ca04" offset="0"/><stop stop-color="#f8edb5" offset="1"/></linearGradient><linearGradient id="J" x1="-819.2" x2="819.2" gradientTransform="matrix(.0571 -.031 .0104 .0219 353.3 162.2)" gradientUnits="userSpaceOnUse"><stop stop-color="#e1ca04" offset="0"/><stop stop-color="#f8edb5" offset="1"/></linearGradient><linearGradient id="K" x1="-819.2" x2="819.2" gradientTransform="matrix(.0636 .014 -.0064 .0234 348.5 212.9)" gradientUnits="userSpaceOnUse"><stop stop-color="#e1ca04" offset="0"/><stop stop-color="#f8edb5" offset="1"/></linearGradient><linearGradient id="L" x1="-819.2" x2="819.2" gradientTransform="matrix(0 -.0268 .0351 0 281.7 99.85)" gradientUnits="userSpaceOnUse"><stop stop-color="#543a01" offset="0"/><stop stop-color="#aa8000" offset="1"/></linearGradient><linearGradient id="M" x1="-819.2" x2="819.2" gradientTransform="matrix(-.0124 0 0 -.0412 285.7 118.5)" gradientUnits="userSpaceOnUse"><stop stop-color="#543a01" offset="0"/><stop stop-color="#aa8000" offset="1"/></linearGradient><linearGradient id="N" x1="-819.2" x2="819.2" gradientTransform="matrix(.0418 -.034 .0271 .0334 274.25 105.7)" gradientUnits="userSpaceOnUse"><stop stop-color="#c90" offset="0"/><stop stop-color="#fec645" offset="1"/></linearGradient><linearGradient id="O" x1="-819.2" x2="819.2" gradientTransform="matrix(.0528 0 0 .1376 290.15 247.05)" gradientUnits="userSpaceOnUse"><stop stop-color="#775100" offset="0"/><stop stop-color="#4b2e01" offset="1"/></linearGradient><linearGradient id="P" x1="-819.2" x2="819.2" gradientTransform="matrix(.012 0 0 .01 244.35 288.6)" gradientUnits="userSpaceOnUse"><stop stop-color="#775100" offset="0"/><stop stop-color="#4b2e01" offset="1"/></linearGradient><linearGradient id="Q" x1="-819.2" x2="819.2" gradientTransform="matrix(.0056 0 0 .0057 217.5 289.85)" gradientUnits="userSpaceOnUse"><stop stop-color="#775100" offset="0"/><stop stop-color="#4b2e01" offset="1"/></linearGradient><linearGradient id="R" x1="-819.2" x2="819.2" gradientTransform="matrix(.013 0 0 .0132 248.9 227.65)" gradientUnits="userSpaceOnUse"><stop stop-color="#775100" offset="0"/><stop stop-color="#4b2e01" offset="1"/></linearGradient><linearGradient id="S" x1="-819.2" x2="819.2" gradientTransform="matrix(.0089 0 0 .012 271.05 228.95)" gradientUnits="userSpaceOnUse"><stop stop-color="#775100" offset="0"/><stop stop-color="#4b2e01" offset="1"/></linearGradient><linearGradient id="T" x1="-819.2" x2="819.2" gradientTransform="matrix(.0067 0 0 .0126 287.4 230.7)" gradientUnits="userSpaceOnUse"><stop stop-color="#775100" offset="0"/><stop stop-color="#4b2e01" offset="1"/></linearGradient><linearGradient id="U" x1="-819.2" x2="819.2" gradientTransform="matrix(.016 0 0 .0257 323.55 236.75)" gradientUnits="userSpaceOnUse"><stop stop-color="#960" offset="0"/><stop stop-color="#956904" offset="1"/></linearGradient><linearGradient id="V" x1="-819.2" x2="819.2" gradientTransform="matrix(.0041 0 0 .0054 309.9 207.1)" gradientUnits="userSpaceOnUse"><stop stop-color="#960" offset="0"/><stop stop-color="#956904" offset="1"/></linearGradient><linearGradient id="W" x1="-819.2" x2="819.2" gradientTransform="matrix(.0254 0 0 .0471 261.5 174.45)" gradientUnits="userSpaceOnUse"><stop stop-color="#960" offset="0"/><stop stop-color="#956904" offset="1"/></linearGradient><linearGradient id="X" x1="-819.2" x2="819.2" gradientTransform="matrix(.013 0 0 .0049 269.9 244.95)" gradientUnits="userSpaceOnUse"><stop stop-color="#960" offset="0"/><stop stop-color="#956904" offset="1"/></linearGradient><linearGradient id="Y" x1="-819.2" x2="819.2" gradientTransform="matrix(.0137 0 0 .0046 270.5 253.6)" gradientUnits="userSpaceOnUse"><stop stop-color="#960" offset="0"/><stop stop-color="#956904" offset="1"/></linearGradient><linearGradient id="Z" x1="-819.2" x2="819.2" gradientTransform="matrix(.0212 0 0 .0163 269.5 273.15)" gradientUnits="userSpaceOnUse"><stop stop-color="#960" offset="0"/><stop stop-color="#956904" offset="1"/></linearGradient><linearGradient id="aa" x1="-819.2" x2="819.2" gradientTransform="matrix(.0081 0 0 .0117 268.4 227.6)" gradientUnits="userSpaceOnUse"><stop stop-color="#960" offset="0"/><stop stop-color="#956904" offset="1"/></linearGradient><linearGradient id="ab" x1="-819.2" x2="819.2" gradientTransform="matrix(.0061 0 0 .0042 286.3 218.55)" gradientUnits="userSpaceOnUse"><stop stop-color="#960" offset="0"/><stop stop-color="#956904" offset="1"/></linearGradient><linearGradient id="ac" x1="-819.2" x2="819.2" gradientTransform="matrix(.0132 0 0 .012 247.05 221.1)" gradientUnits="userSpaceOnUse"><stop stop-color="#960" offset="0"/><stop stop-color="#956904" offset="1"/></linearGradient><linearGradient id="ad" x1="-819.2" x2="819.2" gradientTransform="matrix(.0313 0 0 .0285 242.8 290.1)" gradientUnits="userSpaceOnUse"><stop stop-color="#960" offset="0"/><stop stop-color="#956904" offset="1"/></linearGradient><linearGradient id="ae" x1="-819.2" x2="819.2" gradientTransform="matrix(.0324 0 0 .0489 235.55 314.15)" gradientUnits="userSpaceOnUse"><stop stop-color="#960" offset="0"/><stop stop-color="#956904" offset="1"/></linearGradient><linearGradient id="af" x1="-819.2" x2="819.2" gradientTransform="matrix(.0285 0 0 .0166 306.8 301.25)" gradientUnits="userSpaceOnUse"><stop stop-color="#960" offset="0"/><stop stop-color="#956904" offset="1"/></linearGradient><linearGradient id="ag" x1="-819.2" x2="819.2" gradientTransform="matrix(.0162 0 0 .0201 270.7 226.4)" gradientUnits="userSpaceOnUse"><stop stop-color="#eaeaea" offset="0"/><stop stop-color="#404f39" offset="1"/></linearGradient><linearGradient id="ah" x1="-819.2" x2="819.2" gradientTransform="matrix(.0161 0 0 .0378 318.6 329.95)" gradientUnits="userSpaceOnUse"><stop stop-color="#e2cc0f" offset="0"/><stop stop-color="#f6eaa9" offset="1"/></linearGradient><linearGradient id="ai" x1="-819.2" x2="819.2" gradientTransform="matrix(.0092 0 0 .0134 302.85 320.65)" gradientUnits="userSpaceOnUse"><stop stop-color="#e2cc0f" offset="0"/><stop stop-color="#f6eaa9" offset="1"/></linearGradient><linearGradient id="aj" x1="-819.2" x2="819.2" gradientTransform="matrix(.0301 0 0 .0347 214.15 337.55)" gradientUnits="userSpaceOnUse"><stop stop-color="#e2cc0f" offset="0"/><stop stop-color="#f6eaa9" offset="1"/></linearGradient><linearGradient id="ak" x1="-819.2" x2="819.2" gradientTransform="matrix(-.0094 -.0163 .0351 -.0203 214.05 342)" gradientUnits="userSpaceOnUse"><stop stop-color="#866a00" offset="0"/><stop stop-color="#6d5700" offset="1"/></linearGradient><linearGradient id="al" x1="-819.2" x2="819.2" gradientTransform="matrix(.0139 0 0 .0077 224.55 318.6)" gradientUnits="userSpaceOnUse"><stop stop-color="#866a00" offset="0"/><stop stop-color="#6d5700" offset="1"/></linearGradient><linearGradient id="am" x1="-819.2" x2="819.2" gradientTransform="matrix(.0058 -.0101 .0227 .0131 309.45 332.35)" gradientUnits="userSpaceOnUse"><stop stop-color="#866a00" offset="0"/><stop stop-color="#6d5700" offset="1"/></linearGradient><g id="c"><path d="m20.8-46.3 4.05 2.8 4.85 4.3L49.75-72q-1.8-5.2 4.05-5.3l10.05-26.95q-3.35-29.65-13.1-53.05-5.7-9.8-10.65-.95L20.8-46.3m31.55-91.8L40.6-109.7l-1.65-18.35 1.65 18.35L43-82.75l-2.4-26.95 11.75-28.4m-.6 36.4L43-82.75 24.85-43.5 43-82.75l8.75-18.95" fill="url(#d)" fill-rule="evenodd" transform="translate(79.05 162.45)"/><path d="M99.85 116.15 119.15 4.2q4.95-8.85 10.65.95 9.75 23.4 13.1 53.05l-10.05 26.95q-5.85.1-4.05 5.3l-20.05 32.8m-4.85-4.3 18.15-39.25 8.75-18.95M118 34.4l1.65 18.35 2.4 26.95m-2.4-26.95 11.75-28.4" fill="none" stroke="#000" stroke-linecap="round" stroke-linejoin="round" stroke-opacity=".4" stroke-width=".05"/><path d="M19.7-40.85q-.65 3.25-1.7 6.25l38.2 3.35q3.85-3.85 6.55 1.25l28.55-2.9q25-16.1 41.6-35.2 6.2-9.4-3.8-9.9L20.35-45.75l-.65 4.9L62.85-42l20.85-.6-20.85.6-43.15 1.15m96.75-17.3L85.9-56.1l15.65-9.55L85.9-56.1 62.85-42 85.9-56.1l30.55-2.05" fill="url(#e)" fill-rule="evenodd" transform="translate(79.05 162.45)"/><path d="m98.75 121.6 43.15-1.15 20.85-.6M99.4 116.7l108.75-32.25q10 .5 3.8 9.9-16.6 19.1-41.6 35.2l-28.55 2.9q-2.7-5.1-6.55-1.25l-38.2-3.35M180.6 96.8l-15.65 9.55-23.05 14.1m23.05-14.1 30.55-2.05" fill="none" stroke="#000" stroke-linecap="round" stroke-linejoin="round" stroke-opacity=".4" stroke-width=".05"/><path d="m24.35-35-3.1 3.8Q19-28.7 16.5-26.75l30.8 22.9q5.4-1.3 5 4.5L78.15 13.1q29.8-.6 53.95-8.2 10.25-4.8 1.95-10.45L24.35-35M112.9 4.75 85.7-9.5l18.35.05L85.7-9.5l-27-.1 27 .1 27.2 14.25M76.7.9l-18-10.5-37.45-21.6L58.7-9.6 76.7.9" fill="url(#f)" fill-rule="evenodd" transform="translate(79.05 162.45)"/><path d="m103.4 127.45 109.7 29.45q8.3 5.65-1.95 10.45-24.15 7.6-53.95 8.2l-25.85-12.45q.4-5.8-5-4.5l-30.8-22.9m4.75-4.45 37.45 21.6 18 10.5M183.1 153l-18.35-.05-27-.1m27 .1 27.2 14.25" fill="none" stroke="#000" stroke-linecap="round" stroke-linejoin="round" stroke-opacity=".4" stroke-width=".05"/><path d="m-6.6 32.05-.3.15.3-.15" fill="#7b7b7b" fill-rule="evenodd" transform="translate(79.05 162.45)"/><path d="m-38.55-62.55 8.4-18.8 3.4 12.95-4.5 8.45-7.3-2.6" fill="#896700" fill-rule="evenodd" transform="translate(79.05 162.45)"/><path d="M-10.95 149.9q-8.9 1.35-12.4-4.5 4.4-10.2 0-22.5l-1.3-4 15.1 25.45-1.4 5.55" fill="#604100" fill-rule="evenodd" transform="translate(79.05 162.45)"/><path d="m68.7 63.65-2.6 4.65-3.35-2.25-3.4 4.5 3.45 5.1-4.6 8.4q-4.8-5.55-10.25-6.1 12-15.05 16.9-30.05l.8-2.7q5.95 10.3 3.05 18.45" fill="#522900" fill-rule="evenodd" transform="translate(79.05 162.45)"/><path d="M76.8 45.8h-7.3l4.5-5.6 2.8 5.6M66.1 68.3l-6.75 2.25 3.4-4.5 3.35 2.25M19 133.7l-9.7 5.95v-11.7l3.9-3.35q0 5.25 5.8 9.1" fill="#291500" fill-rule="evenodd" transform="translate(79.05 162.45)"/><path d="M68.1 24.85q5.8 5.2 10.95 14.75l-2.25 6.2-2.8-5.6-4.5 5.6 5.05 6.2-5.85 11.65q2.9-8.15-3.05-18.45Q68.5 35 68.1 24.85" fill="#6f3700" fill-rule="evenodd" transform="translate(79.05 162.45)"/><path d="M-14.55-155.5q-8.35 5.3-3.4 7l11.5 38.45q2.55 16.5-4.45 27.2l-10-2.3q8.9-5.65 9.65-11.45 1.6-12.65-.95-20.35l-12-36.7 8.4-2.4 1.25.55" fill="#bb8f1e" fill-rule="evenodd" transform="translate(79.05 162.45)"/><path d="M-14.55-155.5q16.05 5.65 25.05 16.75 8.95 11.05 12.85 20.35 9.75 23.6 2.25 43.2-4.05 5-14.65 3.95l-41.1-10.1-8.4 18.8-7.85-5.85q14.25-19.3 12.9-22.95l12.6 6.2 10 2.3 20.75 4.9q10.05 1.3 13.5-6.2 3.05-21.05-10.7-43.9-4.7-7.15-12.95-12.7-8.25-5.6-14.1-6.8l-3.55-.95q-4.95-1.7 3.4-7" fill="url(#g)" fill-rule="evenodd" transform="translate(79.05 162.45)"/><path d="m-17.95-148.5 3.55.95q5.85 1.2 14.1 6.8 8.25 5.55 12.95 12.7 13.75 22.85 10.7 43.9-3.45 7.5-13.5 6.2l-20.75-4.9q7-10.7 4.45-27.2l-11.5-38.45" fill="url(#h)" fill-rule="evenodd" transform="translate(79.05 162.45)"/><path d="m-30.15-81.35 41.1 10.1q10.6 1.05 14.65-3.95 7.5-19.6-2.25-43.2Q37-87.2 33.25-75.55l-1.45 3.2L19.4-57.7q-4.75 3.1-13.5 0l-19.3-6.6-13.35-4.1-3.4-12.95" fill="url(#i)" fill-rule="evenodd" transform="translate(79.05 162.45)"/><path d="m33.25-75.55-5.4 25.7L38-7.1v6.2l5.35 2.5-1.45 4.25 2.8 9.05q17.05 14.4 20.15 33-4.9 15-16.9 30.05-2.35-.25-4.9-.05-13.8 0-25.35 16.9-5.6 10.75 0 10.1 9.05-14.6 18.05-19.15 9.85-4.3 19.65-2.25l5.9 6.45L59.85 100q-3.65-6.75-8.9-10.3-7.05-2.3-14.1 3.4-4.25 1.8-7.6 6.7-1.35 1.85-2.5 4.25-2.55 5-4.5 12.1.95 11.75 6.15 16.9l4.05 1.6q-5.95 3.95-11.9 0L19 133.7q-5.8-3.85-5.8-9.1l-3.9 3.35v11.7l-3.95 4.05-16.3 6.2 1.4-5.55 3.1-12.45q-1.4-13.85-6.2-28.3-2.95-16.35 2.25-20.4H-.1q-1.4-3.1-3.2-6.05l-.35-.5Q-7.9 69.5-2 64.4q7.85-8.9 19.7-3.95Q20.75 58 9.85 52q-6.3-4.15-14.65 0-4.25-.65-4.5-5.05 12.25-6.85 22.5.55l-3.9-5.65q-7.05-3.9-14.1 0l-4.5-2.8 7.9-4.5H9.3L12 33h3.4v-5.1l7.4 3.25q3.05-8.9-.05-19.05Q21.7 8.75 20 5.25h-7.2v-2.2Q5.7-1 0 .3q1.35-6.95-5.9-24.85l19.7 8.45-20.3-15.75-16.8-32.45h9.9l19.3 6.6q8.75 3.1 13.5 0l12.4-14.65 1.45-3.2M3.1 93.1Q2 88-.1 83.2 2 88 3.1 93.1m12.95 22.5-2.85 9 2.85-9" fill="url(#j)" fill-rule="evenodd" transform="translate(79.05 162.45)"/><path d="M-8.6 3.15q-5.05-35.3-22.65-63.1l4.5-8.45 13.35 4.1h-9.9l16.8 32.45L13.8-16.1l-19.7-8.45Q1.35-6.65 0 .3q-4.55 1-8.6 2.85" fill="url(#k)" fill-rule="evenodd" transform="translate(79.05 162.45)"/><path d="M41.9 5.85q14.5 8.55 26.2 19Q68.5 35 65.65 45.2l-.8 2.7q-3.1-18.6-20.15-33l-2.8-9.05" fill="url(#l)" fill-rule="evenodd" transform="translate(79.05 162.45)"/><path d="M38-7.1q4.35-.8 6.75 4.5l-1.4 4.2L38-.9v-6.2" fill="url(#m)" fill-rule="evenodd" transform="translate(79.05 162.45)"/><path d="M22.75 12.1q3.1 10.15.05 19.05l-7.4-3.25-2-17.4 9.35 1.6" fill="url(#n)" fill-rule="evenodd" transform="translate(79.05 162.45)"/><path d="M12.8 5.25H20q1.7 3.5 2.75 6.85l-9.35-1.6-.6-5.25" fill="url(#o)" fill-rule="evenodd" transform="translate(79.05 162.45)"/><path d="M-4.8 27.25q-3.9-8.45 0-16.9 5.65-3.8 11.25-1.1-7.2 2.5-10.1 6.15L-4.8 27.25" fill="url(#p)" fill-rule="evenodd" transform="translate(79.05 162.45)"/><path d="m-6.9 32.2-2.05-4.95q-2.3-6.95-2.15-15.2l.4-5.65 2.1-3.25Q-4.55 1.3 0 .3 5.7-1 12.8 3.05v2.2l.6 5.25 2 17.4V33H12l-16.95-1.95-1.65 1-.3.15m2.1-4.95q8.1 3.2 14.1 0 1.75-7.95-2.85-18-5.6-2.7-11.25 1.1-3.9 8.45 0 16.9" fill="url(#q)" fill-rule="evenodd" transform="translate(79.05 162.45)"/><path d="M6.45 9.25q4.6 10.05 2.85 18-6 3.2-14.1 0l1.15-11.85q2.9-3.65 10.1-6.15" fill="url(#r)" fill-rule="evenodd" transform="translate(79.05 162.45)"/><path d="M-30.1 21.05q-5.3-10.9 2.25-19.7 7.35 8.2 17.15 5.05l-.4 5.65Q-22.4 13.5-27.85 7q-3.2 4.95-2.25 14.05" fill="url(#s)" fill-rule="evenodd" transform="translate(79.05 162.45)"/><path d="M-8.95 27.25q-11.65 4.4-21.15-6.2-.95-9.1 2.25-14.05 5.45 6.5 16.75 5.05-.15 8.25 2.15 15.2" fill="url(#t)" fill-rule="evenodd" transform="translate(79.05 162.45)"/><path d="M-9.3 39.05q0-4.8 2.7-7l1.65-1L12 33l-2.7 1.55H-1.4l-7.9 4.5" fill="url(#u)" fill-rule="evenodd" transform="translate(79.05 162.45)"/><path d="m-9.3 46.95 4.5-5.1q7.05-3.9 14.1 0l3.9 5.65q-10.25-7.4-22.5-.55" fill="url(#v)" fill-rule="evenodd" transform="translate(79.05 162.45)"/><path d="M-16.4 62.1-4.8 52q8.35-4.15 14.65 0 10.9 6 7.85 8.45Q5.85 55.5-2 64.4q-5.9 5.1-1.65 12.25Q-8.5 68.9-16.4 62.1" fill="url(#w)" fill-rule="evenodd" transform="translate(79.05 162.45)"/><path d="M-51.4 71.2q2.2-4.7 4.95-9.1 14.15-8.45 25.9-3.35l4.15 3.35q7.9 6.8 12.75 14.55l.35.5q1.8 2.95 3.2 6.05h-10.3q-5.2 4.05-2.25 20.4-3.75-11.25-9.6-22.9-2.2-3.25-4.35-5.9l12.25-4.25-15.35.75q-4.45-4.65-8.85-6.9-7.3-1.45-12.85 6.8" fill="url(#x)" fill-rule="evenodd" transform="translate(79.05 162.45)"/><path d="m-29.7 71.3 15.35-.75-12.25 4.25-7.45 12.1 4.35-15.6" fill="url(#y)" fill-rule="evenodd" transform="translate(79.05 162.45)"/><path d="M58.2 84.05 61.6 88l-.3 1.95-5.9-6.45q-9.8-2.05-19.65 2.25-9 4.55-18.05 19.15-5.6.65 0-10.1 11.55-16.9 25.35-16.9 2.55-.2 4.9.05 5.45.55 10.25 6.1" fill="url(#z)" fill-rule="evenodd" transform="translate(79.05 162.45)"/><path d="M-55.6 82.1q5.1-.5 2.45-6.8l6.7 9.35-9.15-2.55" fill="url(#A)" fill-rule="evenodd" transform="translate(79.05 162.45)"/><path d="M-59.5 108.1q-.3-12.25 3.9-26l9.15 2.55-6.7-9.35 1.75-4.1q5.55-8.25 12.85-6.8 4.4 2.25 8.85 6.9l-4.35 15.6 7.45-12.1q2.15 2.65 4.35 5.9 5.85 11.65 9.6 22.9 4.8 14.45 6.2 28.3l-3.1 12.45-15.1-25.45-.15-.3q-2.15-5.85-4.95-10-1.35-1.95-2.8-3.55-1.35-1.45-2.8-2.6-2.55-2.05-5.45-3.2-8.35 1.4-18.7 8.85" fill="url(#B)" fill-rule="evenodd" transform="translate(79.05 162.45)"/><path d="M-79.05 156.1q.9-19.4 10.7-38.85l8.85-9.15q10.35-7.45 18.7-8.85 2.9 1.15 5.45 3.2L-55.4 115l22.85-9.95q1.45 1.6 2.8 3.55-15.9 4.4-28.5 15.45l-10.15 11.8 12.4-6.2q-13.45 11.2-23.05 26.45" fill="url(#C)" fill-rule="evenodd" transform="translate(79.05 162.45)"/><path d="M59.85 100q1.95 3.65 3.45 8.25-.65 12.4-3.35 28.1-1.4 9.35-9 14.7L49.8 150q5.2-12.05 4.5-25.95-.75-10.4-5.05-18L47 117.85q-.65-13.45-10.15-24.75 7.05-5.7 14.1-3.4 5.25 3.55 8.9 10.3" fill="url(#D)" fill-rule="evenodd" transform="translate(79.05 162.45)"/><path d="M26.75 104.05q1.15-2.4 2.5-4.25 9.7 8.75 12.65 21.95-5.3-11.05-15.15-17.7" fill="url(#E)" fill-rule="evenodd" transform="translate(79.05 162.45)"/><path d="M-23.35 145.4h-22.5l-33.2 10.7q9.6-15.25 23.05-26.45l-12.4 6.2 10.15-11.8q12.6-11.05 28.5-15.45 2.8 4.15 4.95 10l.15.3 1.3 4q4.4 12.3 0 22.5" fill="url(#F)" fill-rule="evenodd" transform="translate(79.05 162.45)"/><path d="M-35.35 102.45q1.45 1.15 2.8 2.6L-55.4 115l20.05-12.55" fill="url(#G)" fill-rule="evenodd" transform="translate(79.05 162.45)"/><path d="m49.8 150-15.75-14.7-1.6-.65-4.05-1.6q-5.2-5.15-6.15-16.9 1.95-7.1 4.5-12.1 9.85 6.65 15.15 17.7-2.95-13.2-12.65-21.95 3.35-4.9 7.6-6.7 9.5 11.3 10.15 24.75l2.25-11.8q4.3 7.6 5.05 18 .7 13.9-4.5 25.95" fill="url(#H)" fill-rule="evenodd" transform="translate(79.05 162.45)"/><path d="M102.4 44.05q-3.9-9.3-12.85-20.35-9-11.1-25.05-16.75l-1.25-.55-8.4 2.4 12 36.7q2.55 7.7.95 20.35-.75 5.8-9.65 11.45l-12.6-6.2q1.35 3.65-12.9 22.95l7.85 5.85m51.2-65.5q13.75 22.85 10.7 43.9-3.45 7.5-13.5 6.2l-20.75-4.9-10-2.3m44.25-33.25q13.65 31.2 9.9 42.85l-5.4 25.7 10.15 42.75q4.35-.8 6.75 4.5l-1.4 4.2-1.45 4.25q14.5 8.55 26.2 19 5.8 5.2 10.95 14.75l-2.25 6.2h-7.3l5.05 6.2-5.85 11.65-2.6 4.65-6.75 2.25 3.45 5.1-4.6 8.4 3.4 3.95-.3 1.95-1.45 10.05q1.95 3.65 3.45 8.25-.65 12.4-3.35 28.1-1.4 9.35-9 14.7l-1.15-1.05-15.75-14.7-1.6-.65q-5.95 3.95-11.9 0l-1.55-.95-9.7 5.95-3.95 4.05-16.3 6.2q-8.9 1.35-12.4-4.5H33.2L0 318.55q.9-19.4 10.7-38.85l8.85-9.15q-.3-12.25 3.9-26 5.1-.5 2.45-6.8l1.75-4.1q2.2-4.7 4.95-9.1 14.15-8.45 25.9-3.35l4.15 3.35 11.6-10.1q-4.25-.65-4.5-5.05l4.5-5.1-4.5-2.8q0-4.8 2.7-7l-.3.15-2.05-4.95q-11.65 4.4-21.15-6.2-5.3-10.9 2.25-19.7 7.35 8.2 17.15 5.05l2.1-3.25q-5.05-35.3-22.65-63.1l-7.3-2.6m25.15-1.75 19.3 6.6q8.75 3.1 13.5 0l12.4-14.65 1.45-3.2m43.55 121.35-2.8-5.6-4.5 5.6m-69.5-45.5q5.7-1.3 12.8 2.75v2.2h7.2q1.7 3.5 2.75 6.85 3.1 10.15.05 19.05l-7.4-3.25v5.1h-3.4m1.4-22.5-.6-5.25m2.6 22.65-2-17.4m-6.95-1.25q4.6 10.05 2.85 18-6 3.2-14.1 0-3.9-8.45 0-16.9 5.65-3.8 11.25-1.1m-9.75 67.9q1.8 2.95 3.2 6.05 2.1 4.8 3.2 9.9m63-24.8-3.35-2.25-3.4 4.5m-11.4 7.4q-2.35-.25-4.9-.05m15.15 6.15q-4.8-5.55-10.25-6.1m-11.1 15.15q7.05-5.7 14.1-3.4 5.25 3.55 8.9 10.3m-33.1 4.05q1.15-2.4 2.5-4.25 3.35-4.9 7.6-6.7m-4.4 41.55-4.05-1.6q-5.2-5.15-6.15-16.9 1.95-7.1 4.5-12.1m-17.45 23.9v11.7m9.7-5.95q-5.8-3.85-5.8-9.1l2.85-9M47.8 102.5l4.5-8.45 13.35 4.1m13.4 64.6q-4.55 1-8.6 2.85m-2.1 3.25-.4 5.65q-.15 8.25 2.15 15.2m2.35 4.8 1.65-1 16.95 1.95m-38.6 41.8q2.15 2.65 4.35 5.9 5.85 11.65 9.6 22.9m-17.05-32.3q-4.45-4.65-8.85-6.9-7.3-1.45-12.85 6.8m35-9.1q7.9 6.8 12.75 14.55m-21.15 41.95q-2.15-5.85-4.95-10m6.4 36.8q4.4-10.2 0-22.5l-1.3-4m15.1 25.45 3.1-12.45q-1.4-13.85-6.2-28.3m-19.9 1.45q-1.35-1.45-2.8-2.6-2.55-2.05-5.45-3.2-8.35 1.4-18.7 8.85m26.95-3.05q1.45 1.6 2.8 3.55m20.2 35.75-1.4 5.55m6.15-108.05q7.05-3.9 14.1 0m-14.1 10.15q8.35-4.15 14.65 0" fill="none" stroke="#000" stroke-linecap="round" stroke-linejoin="round" stroke-opacity=".42" stroke-width=".05"/><path d="m143.9 210.35.8-2.7q2.85-10.2 2.45-20.35M127 240.4q12-15.05 16.9-30.05m-51.65 76.7-3.9 3.35" fill="none" stroke="#000" stroke-linecap="round" stroke-linejoin="round" stroke-opacity=".42" stroke-width=".05"/></g><g id="b"><path d="M291.75 169.5q2.05 2.6 3.55 5.4l27.85-26.5q-.4-5.45 5.25-4.1l16.7-23.4q4.4-29.5 1.05-54.6-3-10.95-9.95-3.7l-47.7 103.2 3.25 3.7 27.65-33.25 13.35-16-13.35 16-27.65 33.25m51-84.2-18.7 24.3 3.15-18.1-3.15 18.1-4.65 26.65 4.65-26.65 18.7-24.3" fill="url(#I)" fill-rule="evenodd" transform="translate(-189.5 -39.1)"/><path d="m102.25 130.4 27.65-33.25 13.35-16M99 126.7l47.7-103.2q6.95-7.25 9.95 3.7 3.35 25.1-1.05 54.6l-16.7 23.4q-5.65-1.35-5.25 4.1l-27.85 26.5m31.9-83.4-3.15 18.1-4.65 26.65m4.65-26.65 18.7-24.3" fill="none" stroke="#000" stroke-linecap="round" stroke-linejoin="round" stroke-opacity=".4" stroke-width=".05"/><path d="m291.3 173.3.15 4.95q-.1 3.3-.7 6.4l38.3-2.8q3.15-4.5 6.7.15l27.65-7.5q22.1-19.95 35.45-41.5 4.55-10.3-5.4-9.15L291.3 173.3m92.85-27.8-29.85 6.95 13.9-11.95-13.9 11.95-20.45 17.65 20.45-17.65 29.85-6.95m-29.85 20.65-20.45 3.95-42.4 8.15 42.4-8.15 20.45-3.95" fill="url(#J)" fill-rule="evenodd" transform="translate(-189.5 -39.1)"/><path d="m101.8 134.2 102.15-49.45q9.95-1.15 5.4 9.15-13.35 21.55-35.45 41.5l-27.65 7.5q-3.55-4.65-6.7-.15l-38.3 2.8m.7-6.4 42.4-8.15 20.45-3.95m13.9-25.65-13.9 11.95L144.35 131m20.45-17.65 29.85-6.95" fill="none" stroke="#000" stroke-linecap="round" stroke-linejoin="round" stroke-opacity=".4" stroke-width=".05"/><path d="M291.2 184.55q-2.25 2.5-4.75 4.45l30.8 22.9q5.4-1.3 5 4.5l25.85 12.45q29.8-.6 53.95-8.2 10.25-4.8 1.95-10.45l-109.7-29.45-3.1 3.8 37.45 21.6 18 10.5-18-10.5-37.45-21.6m91.65 35.95-27.2-14.25 18.35.05-18.35-.05-27-.1 27 .1 27.2 14.25" fill="url(#K)" fill-rule="evenodd" transform="translate(-189.5 -39.1)"/><path d="m101.7 145.45 37.45 21.6 18 10.5m-52.35-35.9 109.7 29.45q8.3 5.65-1.95 10.45-24.15 7.6-53.95 8.2l-25.85-12.45q.4-5.8-5-4.5l-30.8-22.9m87.55 17.3-18.35-.05-27-.1m27 .1 27.2 14.25" fill="none" stroke="#000" stroke-linecap="round" stroke-linejoin="round" stroke-opacity=".4" stroke-width=".05"/><path d="m261.95 241.95-.3.15.3-.15" fill="#999" fill-rule="evenodd" transform="translate(-189.5 -39.1)"/><path d="m237.3 139.5 9-17.7-2.25 14.05-3.35 7.9-3.4-4.25" fill="#aa8000" fill-rule="evenodd" transform="translate(-189.5 -39.1)"/><path d="M301.1 44.35q7.35 10.55 10.6 20.9 2.05 6.45-1.25 12.65l-18.55 47.85q-3.45 7.5-13.5 6.2l-18.3-10.25 15.5-16.25 25.5-61.1" fill="url(#L)" fill-rule="evenodd" transform="translate(-189.5 -39.1)"/><path d="m246.3 121.8 33.2 16.85q10.6 1.05 14.65-3.95l20.05-49.95q-2.5 26.65-12.4 49.6l-1.45 3.2-12.4 14.65q-4.75 3.1-13.5 0l-17.75-9.55-12.65-6.8 2.25-14.05" fill="url(#M)" fill-rule="evenodd" transform="translate(-189.5 -39.1)"/><path d="M310.45 77.9q3.3-6.2 1.25-12.65-3.25-10.35-10.6-20.9l-1.95-2.75 1.2-2.5q10.55 13.85 15.35 30.1 2.35 7.8-1.5 15.55l-20.05 49.95q-4.05 5-14.65 3.95l-33.2-16.85-9 17.7-3.35-4.2q2.45-13.1 11.25-21.95l9.2 5.2 5.7 3.15 18.3 10.25q10.05 1.3 13.5-6.2l18.55-47.85" fill="url(#N)" fill-rule="evenodd" transform="translate(-189.5 -39.1)"/><path d="M257.6 359.8q-8.9 1.35-12.4-4.5 4.4-10.2 0-22.5l-1.3-4 15.1 25.45-1.4 5.55" fill="#775100" fill-rule="evenodd" transform="translate(-189.5 -39.1)"/><path d="m337.25 273.55-2.6 4.65-3.35-2.25-3.4 4.5 3.45 5.1-4.6 8.4q-4.8-5.55-10.25-6.1 12-15.05 16.9-30.05l.8-2.7q5.95 10.3 3.05 18.45" fill="#630" fill-rule="evenodd" transform="translate(-189.5 -39.1)"/><path d="M345.35 255.7h-7.3l4.5-5.6 2.8 5.6m-10.7 22.5-6.75 2.25 3.4-4.5 3.35 2.25m-47.1 65.4-9.7 5.95v-11.7l3.9-3.35q0 5.25 5.8 9.1" fill="#331a00" fill-rule="evenodd" transform="translate(-189.5 -39.1)"/><path d="M336.65 234.75q5.8 5.2 10.95 14.75l-2.25 6.2-2.8-5.6-4.5 5.6 5.05 6.2-5.85 11.65q2.9-8.15-3.05-18.45 2.85-10.2 2.45-20.35" fill="#8a4500" fill-rule="evenodd" transform="translate(-189.5 -39.1)"/><path d="m256.7 142.65 17.75 9.55q8.75 3.1 13.5 0l12.4-14.65 1.45-3.2-5.4 25.7 10.15 42.75v6.2l5.35 2.5-1.45 4.25 2.8 9.05q17.05 14.4 20.15 33-4.9 15-16.9 30.05-2.35-.25-4.9-.05-13.8 0-25.35 16.9-5.6 10.75 0 10.1 9.05-14.6 18.05-19.15 9.85-4.3 19.65-2.25l5.9 6.45-1.45 10.05q-3.65-6.75-8.9-10.3-7.05-2.3-14.1 3.4-4.25 1.8-7.6 6.7-1.35 1.85-2.5 4.25-2.55 5-4.5 12.1.95 11.75 6.15 16.9l4.05 1.6q-5.95 3.95-11.9 0l-1.55-.95q-5.8-3.85-5.8-9.1l-3.9 3.35v11.7l-3.95 4.05-16.3 6.2 1.4-5.55 3.1-12.45q-1.4-13.85-6.2-28.3-2.95-16.35 2.25-20.4h10.3q-1.4-3.1-3.2-6.05l-.35-.5q-4.25-7.15 1.65-12.25 7.85-8.9 19.7-3.95 3.05-2.45-7.85-8.45-6.3-4.15-14.65 0-4.25-.65-4.5-5.05 12.25-6.85 22.5.55l-3.9-5.65q-7.05-3.9-14.1 0l-4.5-2.8 7.9-4.5h10.7l2.7-1.55h3.4v-5.1l7.4 3.25q3.05-8.9-.05-19.05-1.05-3.35-2.75-6.85h-7.2v-2.2q-7.1-4.05-12.8-2.75 1.35-6.95-5.9-24.85l19.7 8.45-20.3-15.75-15.15-35.4h9.8M271.65 303q-1.1-5.1-3.2-9.9 2.1 4.8 3.2 9.9m12.95 22.5-2.85 9 2.85-9" fill="url(#O)" fill-rule="evenodd" transform="translate(-189.5 -39.1)"/><path d="m238.85 281.2 15.35-.75-12.25 4.25-7.45 12.1 4.35-15.6" fill="url(#P)" fill-rule="evenodd" transform="translate(-189.5 -39.1)"/><path d="M212.95 292q5.1-.5 2.45-6.8l6.7 9.35-9.15-2.55" fill="url(#Q)" fill-rule="evenodd" transform="translate(-189.5 -39.1)"/><path d="M259.6 237.15q-11.65 4.4-21.15-6.2-.95-9.1 2.25-14.05 5.45 6.5 16.75 5.05-.15 8.25 2.15 15.2" fill="url(#R)" fill-rule="evenodd" transform="translate(-189.5 -39.1)"/><path d="m263.75 237.15 1.15-11.85q2.9-3.65 10.1-6.15 4.6 10.05 2.85 18-6 3.2-14.1 0" fill="url(#S)" fill-rule="evenodd" transform="translate(-189.5 -39.1)"/><path d="M291.3 222q3.1 10.15.05 19.05l-7.4-3.25-2-17.4 9.35 1.6" fill="url(#T)" fill-rule="evenodd" transform="translate(-189.5 -39.1)"/><path d="M310.45 215.75q14.5 8.55 26.2 19 .4 10.15-2.45 20.35l-.8 2.7q-3.1-18.6-20.15-33l-2.8-9.05" fill="url(#U)" fill-rule="evenodd" transform="translate(-189.5 -39.1)"/><path d="M306.55 202.8q4.35-.8 6.75 4.5l-1.4 4.2-5.35-2.5v-6.2" fill="url(#V)" fill-rule="evenodd" transform="translate(-189.5 -39.1)"/><path d="M259.95 213.05q-5.05-35.3-19.25-69.3l3.35-7.9 12.65 6.8h-9.8l15.15 35.4 20.3 15.75-19.7-8.45q7.25 17.9 5.9 24.85-4.55 1-8.6 2.85" fill="url(#W)" fill-rule="evenodd" transform="translate(-189.5 -39.1)"/><path d="M259.25 248.95q0-4.8 2.7-7 .7-.6 1.65-1l16.95 1.95-2.7 1.55h-10.7l-7.9 4.5" fill="url(#X)" fill-rule="evenodd" transform="translate(-189.5 -39.1)"/><path d="m259.25 256.85 4.5-5.1q7.05-3.9 14.1 0l3.9 5.65q-10.25-7.4-22.5-.55" fill="url(#Y)" fill-rule="evenodd" transform="translate(-189.5 -39.1)"/><path d="m252.15 272 11.6-10.1q8.35-4.15 14.65 0 10.9 6 7.85 8.45-11.85-4.95-19.7 3.95-5.9 5.1-1.65 12.25-4.85-7.75-12.75-14.55" fill="url(#Z)" fill-rule="evenodd" transform="translate(-189.5 -39.1)"/><path d="M275 219.15q-7.2 2.5-10.1 6.15l-1.15 11.85q-3.9-8.45 0-16.9 5.65-3.8 11.25-1.1" fill="url(#aa)" fill-rule="evenodd" transform="translate(-189.5 -39.1)"/><path d="M281.35 215.15h7.2q1.7 3.5 2.75 6.85l-9.35-1.6-.6-5.25" fill="url(#ab)" fill-rule="evenodd" transform="translate(-189.5 -39.1)"/><path d="M238.45 230.95q-5.3-10.9 2.25-19.7 7.35 8.2 17.15 5.05-.35 2.9-.4 5.65-11.3 1.45-16.75-5.05-3.2 4.95-2.25 14.05" fill="url(#ac)" fill-rule="evenodd" transform="translate(-189.5 -39.1)"/><path d="M217.15 281.1q2.2-4.7 4.95-9.1 14.15-8.45 25.9-3.35l4.15 3.35q7.9 6.8 12.75 14.55l.35.5q1.8 2.95 3.2 6.05h-10.3q-5.2 4.05-2.25 20.4-3.75-11.25-9.6-22.9l-4.35-5.9 12.25-4.25-15.35.75q-4.45-4.65-8.85-6.9-7.3-1.45-12.85 6.8" fill="url(#ad)" fill-rule="evenodd" transform="translate(-189.5 -39.1)"/><path d="M209.05 318q-.3-12.25 3.9-26l9.15 2.55-6.7-9.35q.8-2.1 1.75-4.1 5.55-8.25 12.85-6.8 4.4 2.25 8.85 6.9l-4.35 15.6 7.45-12.1 4.35 5.9q5.85 11.65 9.6 22.9 4.8 14.45 6.2 28.3l-3.1 12.45-15.1-25.45-.15-.3q-2.15-5.85-4.95-10l-2.8-3.55-2.8-2.6q-2.55-2.05-5.45-3.2-8.35 1.4-18.7 8.85" fill="url(#ae)" fill-rule="evenodd" transform="translate(-189.5 -39.1)"/><path d="m326.75 293.95 3.4 3.95-.3 1.95-5.9-6.45q-9.8-2.05-19.65 2.25-9 4.55-18.05 19.15-5.6.65 0-10.1 11.55-16.9 25.35-16.9 2.55-.2 4.9.05 5.45.55 10.25 6.1" fill="url(#af)" fill-rule="evenodd" transform="translate(-189.5 -39.1)"/><path d="m260.1 121.7-5.7-3.15q2.15.55 4.3-2.4 12.2-9.95 18.75-25l21.7-49.55 1.95 2.75-25.5 61.1-15.5 16.25" fill="#e8b226" fill-rule="evenodd" transform="translate(-189.5 -39.1)"/><path d="m261.65 242.1-2.05-4.95q-2.3-6.95-2.15-15.2.05-2.75.4-5.65l2.1-3.25q4.05-1.85 8.6-2.85 5.7-1.3 12.8 2.75v2.2l.6 5.25 2 17.4v5.1h-3.4l-16.95-1.95q-.95.4-1.65 1l-.3.15M275 219.15q-5.6-2.7-11.25 1.1-3.9 8.45 0 16.9 8.1 3.2 14.1 0 1.75-7.95-2.85-18" fill="url(#ag)" fill-rule="evenodd" transform="translate(-189.5 -39.1)"/><path d="M328.4 309.9q1.95 3.65 3.45 8.25-.65 12.4-3.35 28.1-1.4 9.35-9 14.7l-1.15-1.05q5.2-12.05 4.5-25.95-.75-10.4-5.05-18l-2.25 11.8Q314.9 314.3 305.4 303q7.05-5.7 14.1-3.4 5.25 3.55 8.9 10.3" fill="url(#ah)" fill-rule="evenodd" transform="translate(-189.5 -39.1)"/><path d="M295.3 313.95q1.15-2.4 2.5-4.25 9.7 8.75 12.65 21.95-5.3-11.05-15.15-17.7" fill="url(#ai)" fill-rule="evenodd" transform="translate(-189.5 -39.1)"/><path d="M189.5 366q.9-19.4 10.7-38.85l8.85-9.15q10.35-7.45 18.7-8.85 2.9 1.15 5.45 3.2l-20.05 12.55 22.85-9.95 2.8 3.55q-15.9 4.4-28.5 15.45l-10.15 11.8 12.4-6.2Q199.1 350.75 189.5 366" fill="url(#aj)" fill-rule="evenodd" transform="translate(-189.5 -39.1)"/><path d="M245.2 355.3h-22.5L189.5 366q9.6-15.25 23.05-26.45l-12.4 6.2 10.15-11.8q12.6-11.05 28.5-15.45 2.8 4.15 4.95 10l.15.3 1.3 4q4.4 12.3 0 22.5" fill="url(#ak)" fill-rule="evenodd" transform="translate(-189.5 -39.1)"/><path d="m236 314.95-22.85 9.95 20.05-12.55 2.8 2.6" fill="url(#al)" fill-rule="evenodd" transform="translate(-189.5 -39.1)"/><path d="m318.35 359.9-15.75-14.7-1.6-.65-4.05-1.6q-5.2-5.15-6.15-16.9 1.95-7.1 4.5-12.1 9.85 6.65 15.15 17.7-2.95-13.2-12.65-21.95 3.35-4.9 7.6-6.7 9.5 11.3 10.15 24.75l2.25-11.8q4.3 7.6 5.05 18 .7 13.9-4.5 25.95" fill="url(#am)" fill-rule="evenodd" transform="translate(-189.5 -39.1)"/><path d="M120.95 38.8 102.4 86.65q-3.45 7.5-13.5 6.2L70.6 82.6l-5.7-3.15-9.2-5.2Q46.9 83.1 44.45 96.2l3.35 4.2m76.9-54.75q3.85-7.75 1.5-15.55-4.8-16.25-15.35-30.1l-1.2 2.5-21.7 49.55q-6.55 15.05-18.75 25-2.15 2.95-4.3 2.4m2.3 24.1 17.75 9.55q8.75 3.1 13.5 0l12.4-14.65 1.45-3.2q9.9-22.95 12.4-49.6m-12.4 49.6-5.4 25.7 10.15 42.75q4.35-.8 6.75 4.5l-1.4 4.2-1.45 4.25q14.5 8.55 26.2 19 5.8 5.2 10.95 14.75l-2.25 6.2h-7.3l5.05 6.2-5.85 11.65-2.6 4.65-6.75 2.25 3.45 5.1-4.6 8.4 3.4 3.95-.3 1.95-1.45 10.05q1.95 3.65 3.45 8.25-.65 12.4-3.35 28.1-1.4 9.35-9 14.7l-1.15-1.05-15.75-14.7-1.6-.65q-5.95 3.95-11.9 0l-1.55-.95-9.7 5.95-3.95 4.05-16.3 6.2q-8.9 1.35-12.4-4.5H33.2L0 326.9q.9-19.4 10.7-38.85l8.85-9.15q-.3-12.25 3.9-26 5.1-.5 2.45-6.8.8-2.1 1.75-4.1 2.2-4.7 4.95-9.1 14.15-8.45 25.9-3.35l4.15 3.35 11.6-10.1q-4.25-.65-4.5-5.05l4.5-5.1-4.5-2.8q0-4.8 2.7-7l-.3.15-2.05-4.95q-11.65 4.4-21.15-6.2-5.3-10.9 2.25-19.7 7.35 8.2 17.15 5.05l2.1-3.25q-5.05-35.3-19.25-69.3l-3.4-4.25m6.75-3.65 12.65 6.8m11.85 67.55q5.7-1.3 12.8 2.75v2.2h7.2q1.7 3.5 2.75 6.85 3.1 10.15.05 19.05l-7.4-3.25v5.1h-3.4M51.2 104.65l3.35-7.9m13.8 80.45q-.35 2.9-.4 5.65-.15 8.25 2.15 15.2m15.4-18q-5.6-2.7-11.25 1.1-3.9 8.45 0 16.9 8.1 3.2 14.1 0 1.75-7.95-2.85-18m-6.45-8.95q-4.55 1-8.6 2.85m2 28.9q.7-.6 1.65-1l16.95 1.95m-16.8 8.85q7.05-3.9 14.1 0m-14.1 10.15q8.35-4.15 14.65 0m-13.15 25.15q1.8 2.95 3.2 6.05 2.1 4.8 3.2 9.9m63-24.8-3.35-2.25-3.4 4.5m17.45-24.75-2.8-5.6-4.5 5.6m-54.1-17.9-2-17.4-.6-5.25m24.05 87.85q7.05-5.7 14.1-3.4 5.25 3.55 8.9 10.3M127 248.75q-2.35-.25-4.9-.05m-16.3 26.15q1.15-2.4 2.5-4.25 3.35-4.9 7.6-6.7m-4.4 41.55-4.05-1.6q-5.2-5.15-6.15-16.9 1.95-7.1 4.5-12.1m-7.75 29.65q-5.8-3.85-5.8-9.1l2.85-9m-6.75 12.35v11.7m48.9-55.6q-4.8-5.55-10.25-6.1m-74.55-3.15 4.35 5.9q5.85 11.65 9.6 22.9m-12.15 15q-2.15-5.85-4.95-10l-2.8-3.55m2.85-33.75q-4.45-4.65-8.85-6.9-7.3-1.45-12.85 6.8m16.05 31.25q-2.55-2.05-5.45-3.2-8.35 1.4-18.7 8.85m24.15-5.65 2.8 2.6m9.2 40.35q4.4-10.2 0-22.5l-1.3-4m15.1 25.45 3.1-12.45q-1.4-13.85-6.2-28.3m3.1 40.75-1.4 5.55m-5.45-87.8q7.9 6.8 12.75 14.55" fill="none" stroke="#000" stroke-linecap="round" stroke-linejoin="round" stroke-opacity=".42" stroke-width=".05"/><path d="m143.9 218.7.8-2.7q2.85-10.2 2.45-20.35m-54.9 99.75-3.9 3.35m38.65-50q12-15.05 16.9-30.05" fill="none" stroke="#000" stroke-linecap="round" stroke-linejoin="round" stroke-opacity=".42" stroke-width=".05"/></g><use width="216.8" height="318.55" xlink:href="#c" id="a"/></defs></svg>