<svg viewBox="0 0 51.668 39.769" xmlns="http://www.w3.org/2000/svg" xmlns:xlink="http://www.w3.org/1999/xlink"><g transform="translate(-326.89 -162.81)"><use transform="matrix(.9426 0 0 .7928 338.39 157.17)" width="50.15" height="54.6" xlink:href="#a"/><use transform="matrix(-.1564 -.1119 -.1135 .1587 371.87 174.04)" width="172.9" height="162.85" xlink:href="#b"/><use transform="matrix(.0518 .1139 -.1139 .0518 358.95 172.25)" width="90.95" height="83.85" xlink:href="#c"/><use transform="matrix(-.024 .1226 -.1226 -.024 357.22 177.39)" width="90.95" height="83.85" xlink:href="#c"/><use transform="matrix(-.0324 .1206 .1206 .0324 338.09 173.23)" width="90.95" height="83.85" xlink:href="#c"/><use transform="translate(330.85 177.53) scale(.1469)" width="162.05" height="171.15" xlink:href="#d"/><use transform="translate(337.15 192.75)" width="13.5" height="6.95" xlink:href="#e"/><use transform="translate(332.41 172.23) scale(.2165)" width="162.05" height="171.15" xlink:href="#d"/><use transform="translate(343.5 197.2)" width="18.15" height="5.35" xlink:href="#f"/><use transform="rotate(-6.082 1720.215 -2974.141) scale(.1954)" width="172.9" height="162.85" xlink:href="#b"/><use transform="translate(345.6 178.5)" width="13.45" height="7.95" xlink:href="#g"/><use transform="matrix(.0518 .1139 -.1139 .0518 350.6 173.2)" width="90.95" height="83.85" xlink:href="#c"/><use transform="matrix(.0439 .1172 .1172 -.0439 332.57 180.99)" width="90.95" height="83.85" xlink:href="#c"/><use transform="translate(351.4 184.75)" width="8.55" height="3.65" xlink:href="#h"/></g><defs><g id="a" transform="translate(25.1 24)"><use transform="matrix(-.1564 -.1119 -.1135 .1587 25.066 -4.655)" width="172.9" height="162.85" xlink:href="#b"/><use transform="matrix(.0518 .1139 -.1139 .0518 12.15 -6.445)" width="90.95" height="83.85" xlink:href="#c"/><use transform="matrix(-.024 .1226 -.1226 -.024 10.424 -1.306)" width="90.95" height="83.85" xlink:href="#c"/><use transform="matrix(-.0324 .1206 .1206 .0324 -8.706 -5.475)" width="90.95" height="83.85" xlink:href="#c"/><use transform="translate(-15.949 -1.167) scale(.1469)" width="162.05" height="171.15" xlink:href="#d"/><use transform="translate(-9.65 14.05)" width="13.5" height="6.95" xlink:href="#e"/><use transform="translate(-14.387 -6.472) scale(.2165)" width="162.05" height="171.15" xlink:href="#d"/><use transform="translate(-3.3 18.5)" width="18.15" height="5.35" xlink:href="#f"/><use transform="rotate(-6.082 -155.113 230.808) scale(.1954)" width="172.9" height="162.85" xlink:href="#b"/><use transform="translate(-1.2 -.2)" width="13.45" height="7.95" xlink:href="#i"/><use transform="matrix(.0518 .1139 -.1139 .0518 3.8 -5.495)" width="90.95" height="83.85" xlink:href="#c"/><use transform="matrix(.0439 .1172 .1172 -.0439 -14.226 2.286)" width="90.95" height="83.85" xlink:href="#c"/><use transform="translate(4.6 6.05)" width="8.55" height="3.65" xlink:href="#j"/></g><g id="b" transform="translate(1.2 .25)"><use transform="matrix(-.4576 .8883 .8883 .4576 42.153 43.423)" width="90.95" height="83.85" xlink:href="#c"/><use transform="matrix(-1.119 .264 .264 1.119 100.55 -.26)" width="90.95" height="83.85" xlink:href="#c"/><use transform="matrix(.9981 .0479 -.0479 .9981 80.907 20.963)" width="90.95" height="83.85" xlink:href="#c"/></g><g id="c" transform="translate(-2.35 .25)"><use transform="translate(23.85 43.9)" width="47.8" height="39.4" xlink:href="#k"/><use transform="scale(1.537) rotate(-22.28 46.341 5.098)" width="47.8" height="39.4" xlink:href="#k"/></g><g id="l"><path d="M8.9 1.8q-4 5.05 1.55 8.9-1.85 1.05-2.9 2.55-4.45 6.1-5.3 25.65Q-.4 7.6 8.9 1.8" fill="#676a33" fill-rule="evenodd" transform="translate(-1.65)"/><path d="M48.95 9.8 42.3 8.6l-1.4-.1-11.1-.85Q16.25 7.2 10.45 10.7 4.9 6.85 8.9 1.8q.85-.55 1.85-.85Q22.95-3 48.95 9.8" fill="#7f7f4a" fill-rule="evenodd" transform="translate(-1.65)"/><path d="M10.45 10.7q5.8-3.5 19.35-3.05l11.1.85 1.4.1 6.65 1.2-12.25.6Q20.6 12.15 12 19.5q-6.85-1.8-1.55-8.8" fill="#60602e" fill-rule="evenodd" transform="translate(-1.65)"/><path d="M10.45 10.7q-5.3 7 1.55 8.8-8.4 7.1-9.75 19.4.85-19.55 5.3-25.65 1.05-1.5 2.9-2.55" fill="#504f26" fill-rule="evenodd" transform="translate(-1.65)"/><path d="M10.35 19.5q8.6-7.35 24.7-9.1l12.25-.6M.6 38.9q1.35-12.3 9.75-19.4" fill="none" stroke="#000" stroke-linecap="round" stroke-linejoin="round" stroke-opacity=".4" stroke-width=".05"/><path d="M48.95 9.8 42.3 8.6l-1.4-.1-11.1-.85Q16.25 7.2 10.45 10.7q-1.85 1.05-2.9 2.55-4.45 6.1-5.3 25.65" fill="none" stroke="#8c8b67" stroke-linecap="round" stroke-linejoin="round" transform="translate(-1.65)"/><path d="M47.3 9.8Q21.3-3 9.1.95q-1 .3-1.85.85M.6 38.9Q-2.05 7.6 7.25 1.8" fill="none" stroke="#a4a297" stroke-linecap="round" stroke-linejoin="round" stroke-width=".05"/></g><g id="d" transform="translate(81 85.55)"><use transform="translate(-46.65 -62.65)" width="109.8" height="112.65" xlink:href="#m"/><clipPath id="o" transform="translate(81 85.55)"><use transform="translate(-46.65 -62.65)" width="109.7" height="112.65" xlink:href="#n"/></clipPath><g clip-path="url(#o)"><use transform="matrix(.7056 -.4074 .5 .866 -81 -30.8)" width="134.4" height="134.4" xlink:href="#p"/></g></g><g id="m"><path d="M-40.9-28.25q1.25-3.6 3.05-7.1l2.05-3.9.75-1.3q.6-1.7 1.45-4.85l.4 1.95q3.3-4.85 6.95-7.95l.9-.7 1.85-1.35.3-.2 1.3-2.5h.05l1 2 6.9 3.25-1.05 2.6-.1.35.1-.35 1.05-2.6 1.35-2.5 1.95 2.05q5.25-6 10.25-8.9l.2-.15.15-.05q5.15 1.2 10.45 3.05H5.2q-5.2.85-9.1 3.35-3.5 2.25-3.5 3.95t9.8 6.25q3.1 1.45 6.9 3.1-.35.6-.45 1.4.1-.8.45-1.4.4-.75 1.1-1.15l1.65 2.4 1.05 1.45.45-.8q2.8-4.95 5.75-9.35l1.45-2.15 1-2.45.15-1.6q.7.15 1.3.65l.8.9 1.25 1.7.55.25.4.2 5.1 2.7-4.1-.2q-2.25 0-6 4.4-3.6 4.2-3.6 6 0 1.1 3.95 3.7l6.85 4.5q2.8 2.1 6.1 5.95v-.05l1.65-.45.6 1.2L40.5-38.4q1.15-1.85 1.55-3.25l.1-.35q.55-2.05-.25-3.15v-1.25q1.2 1.05 2.95 7.2l.7.75 2.25 2.7-1.7-.45q-7.7 0-7.7 13.4 0 2.5 6.55 7.45 6.1 4.6 9.45 8.15l.8.9v1.5l1.1.3q1.55.65 3.8 2.8l1.5 1.45.25 3.65-.2.4-2.3-2.6-5.4-5.65.45-2.75-.45 2.75 5.4 5.65q-3.4.85-4.3 1.9-.75.85-1.05 3.5l-.8 8q0 2 1.8 3.7l3.3 3.35-.7 1.6-3.95-2.3-.95-.55-2.05-3.05-.35-.55.35.55 2.05 3.05.95.55-2.35 2.1-3 3 .1-.45.75-3.1v-4.3Q42.45 14 33.8 8.1l-1.2-.8-2.9-4.75.25-.85 2.25-7.6 1.6-5.75.65-2.3.45-3.6-.4-3.65-9.65-7.6-3.5-2.6q-4.55.1-9.4 2.75l-1.65.95L9-23.55Q7.65-19.4 7.65-17.8q0 5.65 9.55 12.1Q21.4-2.85 28.4.9q-1.05 1.4-1.3 2.6.25-1.2 1.3-2.6l.25-.3.3.6.75 1.35 2.9 4.75 1.2.8q-1.5.55-2.6 1.5l-1.85 1.6q-3.95 8.25-3.95 18.15 0 3.8 7.95 8.65 4.8 2.9 7.65 4.95l-1.1.55-2.05-.75q-4.8-1.8-10.3-4.45l-3.6-1.75-.25-.15q-.8-.95-2.55-4l-1-1.45 1 1.45q1.75 3.05 2.55 4l.25.15 3.6 1.75-5.9-.45h-.15l.1.05q-.85.25-2.2 2.35-1.5 2.35-1.5 3.95t6.05 3l3.3.65-7.25 1.5-6.45.6 4.05-11.5.1-.05-.05-.1.6-1.65.15-3.1-8.5-4.95-7.25-4.65-7.2-5.2-2.25-1.8-1.4-2.3 1.4 2.3 2.25 1.8 7.2 5.2-6.15-.35q-7.7 0-7.7 12.2 0 2.4 1.85 4.2l5.15 4 4.65 4.5.3.3-2.85-.75q-5.2-3.1-9.85-6.65l-2-3.5.55-2.8-.55 2.8-1.4-2.05.25 3.05q-4.85-4.05-9.15-8.6-7.4-7.85-12.65-16.9l-1.25-5.7-.1-.45.55-2.7 2.2-8.5 1.05-3.35.9-2.65.2-.55v-7.9h.25l1.2 4 2.65-6.4 2.55-5.5 1.45-3 .1-.15.15-.25 1.2-5.2.45-1.75q.8.35 1.4 1.4l3.6-5.95 1.4-2.05.4-.55 1.45-4.15q-5.75-3.85-7.8-3.85-2.55 0-5.65 3.45-2.55 2.75-3.8 6.2l-.5 1.6-.35.15q-1.5.8-3 4.8-1.8 4.65-1.8 7.9 0 1.5.8 5.75l-2.5-4.25 2.5 4.25 2.35 4.05 1.25 2.2-2.8-3.45-.15-.2-.15-.15q-2.5-2.9-3.1-2.9-2.4 0-2.4 10.6 0 10.05 2.6 17.2v2.9q-2.45-5-4.3-10.3l-.45-1.35L-44.5-8q.05-8.85 2.6-17.2l.05-1.6q0-1.35-.5-3.85l1.4 2.55 1.25 1.9-1.2-2.05m7.7-15.2.05.6.8.7-.8-.7-.05-.6m27.95-3.15-2.5-1.25-2.9-3.5 2.9 3.5 2.5 1.25q-4.15.2-7.95 2.1l-1.5 3.1q-1.3 2.9-1.3 4.5 0 4.3 9.1 11Q-.3-21 3.95-19.3l2.35-5.35.9-1.85.4-.85 1.05-6.8q-.05-2.7.05-4.2l.15-1L5.9-40.9l-11.15-5.7m-10.6 18.2h-5.85q-1.65 2.1-3.65 6.35-2.45 5.15-2.45 7.65 0 1.4 8.4 14.2 2.05 4.4 7.4 9.25l1.05.95-.4-1.4 1.05 1.95 1.8 3.55.3.55.6-2 4.1-12.7.45-1.25 1.75-4.85.3-.8L.15-16l-16-12.4-1.8-1.4-2.25-1.85-.85-.7-.75-1.8-.45-1.1.45 1.1.75 1.8.85.7 2.25 1.85 1.8 1.4M8.45-9.85l-2.6-1.95-3.1-4.7 1.2-2.8-1.2 2.8 3.1 4.7 2.6 1.95q-2.8.5-4.25 1.45Q2.55-7.25.8-5l-.75.95-1.7 7.4Q-3.1 9.45-3.1 12.7q0 6.6 8.3 11.75 5.85 3.6 12.7 4.85v.05q0 1.75.5 3.85v.35-.35q-.5-2.1-.5-3.85 1.2.35 2.25 1.6l.45-1.25 5-14.8 1.3-3.8.15-.45.35-2.95q-.35-2.65-.35-3.6l.05-.6L20.75-1 8.45-9.85m4.65-28.2 2.25 2.6 6 4.05-6-4.05-2.25-2.6m23.65 15.1q1.45 2.8 3.85 6.7l4.1 3.3-4.1-3.3q-2.4-3.9-3.85-6.7M50.3 16.8 53.15.5l.8-4.95-9.25-8.5q-2.65.55-6.6 2.6-2.55 2.8-3.65 5.15Q33-2.25 33 1.6q0 2.9 7.8 9.2 4.85 3.95 8.35 5.8v1.6-2.85l1.15 1.45m-15.8-38-.1-1.1.1-1.35-.1 1.35.1 1.1M2.75-16.5l-2.1-2.65L.15-16l.5-3.15 2.1 2.65M-13.4 35.1q1.6-7.65 3.9-15.95l.1-.3.05-.75q0-1.3-.5-3.75Q-19 6.4-25.25-2.35l-4-6.05-.1-.2h-3.2l-2.15 7.55q-1.1 3.6-1.1 6.75 0 3.9 2 7.2l6 9.5q2.2 3.8 8.8 8.8l5.6 3.9m2.45-25.1 1.1 4.35-1.1-4.35m-18.4-18.6-.75-1.25q-.8-1.45-1.8-4.55 1 3.1 1.8 4.55l.75 1.25" fill="url(#q)" fill-rule="evenodd" transform="translate(46.65 62.65)"/><path d="M-21.9-56.15v-.05l.05.05h-.05m.7 1.3 4.2-2.05q3.55-1.55 7.85-2.7l1.6-.4 5.8-.85 1.85-.1q.4-.95.3-1.7 2.05 1 4.5 1.85l.5.05q9.15.9 18.65 5.8v-2.55h.5q1.35 1.4 3.6 4.85l.5.3 2.7 1.7q5.55 3.75 10.1 8l.7.65-.1.35q-.4 1.4-1.55 3.25l-3.75 15.45-.6-1.2-1.65.45v.05q-3.3-3.85-6.1-5.95l-6.85-4.5q-3.95-2.6-3.95-3.7 0-1.8 3.6-6 3.75-4.4 6-4.4l4.1.2-5.1-2.7-.4-.2-.55-.25-1.25-1.7-.8-.9q-.6-.5-1.3-.65l-.15 1.6-1 2.45-1.45 2.15q-2.95 4.4-5.75 9.35l-.45.8-1.05-1.45-1.65-2.4q-.7.4-1.1 1.15-3.8-1.65-6.9-3.1-9.8-4.55-9.8-6.25t3.5-3.95q3.9-2.5 9.1-3.35h5.2Q5.1-59.25-.05-60.45l-.15.05-.2.15q-5 2.9-10.25 8.9l-1.95-2.05-1.35 2.5-6.9-3.25-.35-.7m69 19.1q5.25 6.55 8.45 14.25l.3.7.6-4.35h.25q.55 1.5.5 5.55v2.55l.95 3.15.1.3v.15q1.95 7.4 2.65 13.2L60.1-1.7q-2.25-2.15-3.8-2.8l-1.1-.3v-1.5l-.8-.9q-3.35-3.55-9.45-8.15-6.55-4.95-6.55-7.45 0-13.4 7.7-13.4l1.7.45M61.85 3.4l1.05-2 .15-.35-.1.45-1.05 4.65-.05.7q-.35 6.9-3.55 14.8L55 18.3q-1.8-1.7-1.8-3.7l.8-8q.3-2.65 1.05-3.5.9-1.05 4.3-1.9l2.3 2.6.2-.4M57.6 23.25 56.3 26q-4.65 9.35-10.6 14.05l-1.05.75-1.1.75-2.55 1.4Q38.15 40.9 33.35 38q-7.95-4.85-7.95-8.65 0-9.9 3.95-18.15l1.85-1.6q1.1-.95 2.6-1.5 8.65 5.9 15.35 10.1v4.3l-.75 3.1-.1.45 3-3 2.35-2.1 3.95 2.3M39.9 43.5l-6.6 2.55-5.75 1.7-.3.1-3.3-.65q-6.05-1.4-6.05-3t1.5-3.95q1.35-2.1 2.2-2.35l-.1-.05h.15l5.9.45q5.5 2.65 10.3 4.45l2.05.75m-26.35 6.45L2.1 49.1l-1.35-.3-.3-.3L-4.2 44l-5.15-4q-1.85-1.8-1.85-4.2 0-12.2 7.7-12.2l6.15.35L9.9 28.6l8.5 4.95-.15 3.1-.6 1.65-.05.15.05-.15.05.1-.1.05-4.05 11.5m-15.65-1.9-5.1-1.8q-3.85-1.65-7.45-4h-.05Q-28 34.4-36.2 22.85l-.8-1.15q-2.05-2.6-5.6-5.6l2.85 1Q-41.1 14-42 10.55l-1-4.2-.7-4.05L-45-.8q-1.65-3.8-1.65-5.35l1.35 1.7.95 1.25v-.15L-43.9-2q1.85 5.3 4.3 10.3V4.35h.25q.45.65 1.1 2.9-.65-2.25-1.1-2.9h-.25V5.4q-2.6-7.15-2.6-17.2 0-10.6 2.4-10.6.6 0 3.1 2.9l.15.15.15.2 2.8 3.45-1.25-2.2-2.35-4.05q-.8-4.25-.8-5.75 0-3.25 1.8-7.9 1.5-4 3-4.8l.35-.15.5-1.6q1.25-3.45 3.8-6.2 3.1-3.45 5.65-3.45 2.05 0 7.8 3.85l-1.45 4.15-.4.55-1.4 2.05-3.6 5.95q-.6-1.05-1.4-1.4l-.45 1.75-1.2 5.2-.15.25-.1.15-1.45 3-2.55 5.5-2.65 6.4-1.2-4h-.25v7.9l-.2.55-.9 2.65-1.05 3.35-2.2 8.5-.55 2.7.1.45 1.25 5.7q5.25 9.05 12.65 16.9 4.3 4.55 9.15 8.6l.4 3.2v.15-.15l-.4-3.2-.25-3.05 1.4 2.05 2 3.5q4.65 3.55 9.85 6.65M-40.95-28.1l.05-.15 1.2 2.05-1.25-1.9m8.6-14.05 8.55 7.25-8.55-7.25m27.1-4.45L5.9-40.9l2.95 1.55-.15 1q-.1 1.5-.05 4.2l-1.05 6.8-.4.85-.9 1.85-2.35 5.35Q-.3-21-6.9-25.9q-9.1-6.7-9.1-11 0-1.6 1.3-4.5l1.5-3.1q3.8-1.9 7.95-2.1M.1-60.95l-.25.45-1.6-.35 1.6.35.25-.45m-.3.55.05-.1.1.05-.1-.05-.05.1M-10.95 10-12 9.05Q-17.35 4.2-19.4-.2q-8.4-12.8-8.4-14.2 0-2.5 2.45-7.65 2-4.25 3.65-6.35h5.85L.15-16-1-6.95l-.3.8-1.75 4.85-.45 1.25-4.1 12.7-.6 2-.3-.55-1.8-3.55-1.05-1.95.4 1.4M11.1-57.15q5.3 1.85 10.65 4.35-5.35-2.5-10.65-4.35M8.45-9.85 20.75-1l6.35 4.5-.05.6q0 .95.35 3.6l-.35 2.95-.15.45-1.3 3.8-5 14.8-.45 1.25q-1.05-1.25-2.25-1.6v-.05q-6.85-1.25-12.7-4.85-8.3-5.15-8.3-11.75 0-3.25 1.45-9.35l1.7-7.4L.8-5q1.75-2.25 3.4-3.4 1.45-.95 4.25-1.45M28.4.9q-7-3.75-11.2-6.6-9.55-6.45-9.55-12.1 0-1.6 1.35-5.75l1.3-4.15 1.65-.95q4.85-2.65 9.4-2.75l3.5 2.6 9.65 7.6.4 3.65-.45 3.6-.65 2.3-1.6 5.75-2.25 7.6-.25.85-.75-1.35-.3-.6-.25.3m-4.35-55.85v.05l-.85 1.15.85-1.15v-.05m7.8 7.25q4.65 2.55 9.5 5.6l.7.45-.7-.45q-4.85-3.05-9.5-5.6m24.7 26.9-.05.2-.8 4.45-.15 1.05-1.15 7.9 1.15-7.9.15-1.05.8-4.45.05-.2M44.7-12.95l9.25 8.5-.8 4.95-2.85 16.3-1.15-1.45v1.25q-3.5-1.85-8.35-5.8Q33 4.5 33 1.6q0-3.85 1.45-6.8 1.1-2.35 3.65-5.15 3.95-2.05 6.6-2.6M-29.25-8.4l4 6.05Q-19 6.4-9.85 14.35q.5 2.45.5 3.75l-.05.75-.1.3q-2.3 8.3-3.9 15.95l-5.6-3.9q-6.6-5-8.8-8.8l-6-9.5q-2-3.3-2-7.2 0-3.15 1.1-6.75l2.15-7.55h3.2l.1.2m14.9 47.9.1.1.05-.25-.15.15m-.3 2.75-.05-.15.05.15m-25.1-25.15.2.55.2-2.55v-.4q0-2.95-.25-4.1V8.3v2.3q.25 1.15.25 4.1v.4l-.2 2.55-.2-.55m83.3 24.45q2.4-6.75 4.75-15.5-2.35 8.75-4.75 15.5m-87.8-44.6-.1-.15.1.15" fill="#b2b247" fill-rule="evenodd" transform="translate(46.65 62.65)"/><path d="M5.75 34.4Q7 30.8 8.8 27.3l2.05-3.9.75-1.3q.6-1.7 1.45-4.85l.4 1.95q3.3-4.85 6.95-7.95l.9-.7 1.85-1.35.3-.2 1.3-2.5v-.05l.05.05.65 1.3 4.2-2.05q3.55-1.55 7.85-2.7l1.6-.4 5.8-.85 1.85-.1q.4-.95.3-1.7 2.05 1 4.5 1.85l.5.05q9.15.9 18.65 5.8V5.15h.5q1.35 1.4 3.6 4.85l.5.3L78 12q5.55 3.75 10.1 8l.7.65q.55-2.05-.25-3.15v-1.25q1.2 1.05 2.95 7.2l.7.75 2.25 2.7q5.25 6.55 8.45 14.25l.3.7.6-4.35h.25q.55 1.5.5 5.55v2.55l.95 3.15.1.3m0 .15q1.95 7.4 2.65 13.2l.25 3.65 1.05-2 .15-.35.1-.45v.25l-.1.2-.1.45-1.05 4.65-.05.7q-.35 6.9-3.55 14.8l-.7 1.6-1.3 2.75Q98.3 98 92.35 102.7l-1.05.75-1.1.75-2.55 1.4-1.1.55-6.6 2.55-5.75 1.7-.3.1-7.25 1.5-6.45.6-11.45-.85-1.35-.3-2.85-.75-5.1-1.8q-3.85-1.65-7.45-4h-.05q-13.3-7.85-21.5-19.4l-.8-1.15q-2.05-2.6-5.6-5.6l2.85 1q-1.35-3.1-2.25-6.55l-1-4.2-.7-4.05-1.3-3.1Q0 58.05 0 56.5l1.35 1.7.95 1.25v-.15l-.15-4.65q.05-8.85 2.6-17.2l.05-1.6q0-1.35-.5-3.85l1.4 2.55.05-.15 1.2 2.05 2.5 4.25 2.35 4.05 1.25 2.2M14.3 20.5l-.8-.7-.05-.6m18.1-4.5.1-.35 1.05-2.6-6.9-3.25-.35-.7M5.7 34.55l1.25 1.9M8.4 69.9l.55-2.7 2.2-8.5 1.05-3.35.9-2.65.2-.55v-7.9h.25l1.2 4 2.65-6.4 2.55-5.5 1.45-3 .1-.15.15-.25 1.2-5.2-8.55-7.25m8.55 7.25L23.3 26q.8.35 1.4 1.4l3.6-5.95 1.4-2.05.4-.55 1.45-4.15m25.5-9.45Q51.75 3.4 46.6 2.2l-.15.05-.2.15q-5 2.9-10.25 8.9l2.9 3.5 2.5 1.25 11.15 5.7 2.95 1.55q.1-.8.45-1.4.4-.75 1.1-1.15l1.65 2.4 1.05 1.45.45-.8q2.8-4.95 5.75-9.35l1.45-2.15 1-2.45q-5.35-2.5-10.65-4.35M46.6 2.2l-.1-.05-.05.1M44.9 1.8l1.6.35.25-.45M36 11.3l-1.95-2.05-1.35 2.5m3 60.9-.4-1.4 1.05 1.95 1.8 3.55.3.55.6-2 4.1-12.7.45-1.25 1.75-4.85.3-.8 1.15-9.05-16-12.4-1.8-1.4L26.75 31l-.85-.7-.75-1.8-.45-1.1m30.8-4.1-.15 1q-.1 1.5-.05 4.2l-1.05 6.8-.4.85-.9 1.85-2.35 5.35-1.2 2.8 3.1 4.7 2.6 1.95 12.3 8.85 6.35 4.5q.25-1.2 1.3-2.6l.25-.3.3.6.75 1.35.25-.85 2.25-7.6 1.6-5.75.65-2.3.45-3.6-.4-3.65-9.65-7.6-3.5-2.6-6-4.05-2.25-2.6M68.4 9.85l.15-1.6q.7.15 1.3.65l.85-1.15V7.7m-.85 1.2.8.9 1.25 1.7.55.25.4.2 5.1 2.7M81.15 39v-.05l1.65-.45.6 1.2 3.75-15.45Q88.3 22.4 88.7 21l-.7-.45q-4.85-3.05-9.5-5.6M88.7 21l.1-.35m12.25 34.8 1.15-7.9.15-1.05.8-4.45.05-.2m2.8 22 2.3 2.6.2-.4M91.35 49.7l-4.1-3.3q-2.4-3.9-3.85-6.7m17.65 15.75-.45 2.75 5.4 5.65M91.35 49.7l9.25 8.5-.8 4.95-2.85 16.3.35.55 2.05 3.05.95.55 3.95 2.3M81.15 39l-.1 1.35.1 1.1m-4.8 23.75 2.9 4.75 1.2.8q8.65 5.9 15.35 10.1V78l1.15 1.45m-23.2-13.3-.05.6q0 .95.35 3.6l-.35 2.95-.15.45-1.3 3.8-5 14.8-.45 1.25 1 1.45q1.75 3.05 2.55 4l.25.15 3.6 1.75q5.5 2.65 10.3 4.45l2.05.75m8.4-17.45.1-.45.75-3.1v-4.3m-49-34.2.5-3.15 2.1 2.65m-16.15 51.6q1.6-7.65 3.9-15.95l.1-.3.05-.75q0-1.3-.5-3.75-9.15-7.95-15.4-16.7l-4-6.05m15.85 43.5-.55 2.8 2 3.5q4.65 3.55 9.85 6.65m-6.1-33.4 1.4 2.3 2.25 1.8 7.2 5.2 7.25 4.65 8.5 4.95v-.35q-.5-2.1-.5-3.85 1.2.35 2.25 1.6M36.8 77l-1.1-4.35m-3.75 32.25v-.15l-.4-3.2q-4.85-4.05-9.15-8.6Q15 85.1 9.75 76.05l-1.25-5.7-.1-.45q-.65-2.25-1.1-2.9h-.25v6.25q.25 1.15.25 4.1v.4l-.2 2.55-.2-.55m25.05 25 .05.15m.7-4.35-1.4-2.05.25 3.05m63.4-12.85q-2.35 8.75-4.75 15.5m-25.9-3.25.6-1.65.15-3.1m-.75 4.75-.05.15-4.05 11.5M14.75 48.25q1 3.1 1.8 4.55l.75 1.25m-15 5.25.45 1.35q1.85 5.3 4.3 10.3M2.3 59.45l.1.15" fill="none" stroke="#000" stroke-linecap="round" stroke-linejoin="round" stroke-opacity=".4" stroke-width=".05"/></g><g id="e"><path d="m339.7 198.75-.3-.2q-1.95-1.15-2.25-2.4v-3l.9 1.1 1.35 1.1.4.2q.5 2.2-.1 3.2" fill="#895b00" fill-rule="evenodd" transform="translate(-337.15 -192.75)"/><path d="M339.7 198.75q.6-1 .1-3.2 1.8.9 4.25.95 2.7-.05 4.65-1.15l1.35-1.1q.55-.7.6-1.5v3.1q-.05 1.55-1.95 2.7-1.95 1.15-4.65 1.15-2.5 0-4.35-.95" fill="#583b00" fill-rule="evenodd" transform="translate(-337.15 -192.75)"/><path d="m2.65 2.8-.4-.2L.9 1.5 0 .4v3q.3 1.25 2.25 2.4l.3.2m.1-3.2q1.8.9 4.25.95 2.7-.05 4.65-1.15l1.35-1.1q.55-.7.6-1.5v3.1q-.05 1.55-1.95 2.7Q9.6 6.95 6.9 6.95q-2.5 0-4.35-.95" fill="none" stroke="#000" stroke-linecap="round" stroke-linejoin="round" stroke-opacity=".4" stroke-width=".05"/></g><g id="f"><path d="M346.7 199.55q2.9.8 5.95.85.1 1.2 1.25 2.15h-1.1l-5.05-.55q-.9-1.05-1.05-2.45" fill="#895b00" fill-rule="evenodd" transform="translate(-343.5 -197.2)"/><path d="M346.7 199.15q2.45.85 5.9.85h.2q3.65 0 6.25-.9l1.8-.85q.75-.55.8-1.05v2.3q0 1.25-2.6 2.15-2.2.75-5.15.9-1.15-.95-1.25-2.15-3.05-.05-5.95-.85v-.4" fill="#a46e00" fill-rule="evenodd" transform="translate(-343.5 -197.2)"/><path d="M346.7 199.15v.4q.15 1.4 1.05 2.45l-1.2-.35q-2.6-.9-2.6-2.15l-.45-2.15 1.25.9 1.8.85.15.05" fill="#583b00" fill-rule="evenodd" transform="translate(-343.5 -197.2)"/><path d="M10.4 5.35q2.95-.15 5.15-.9 2.6-.9 2.6-2.15V0q-.05.5-.8 1.05l-1.8.85q-2.6.9-6.25.9h-.2q-3.45 0-5.9-.85m7.2 3.4H9.3L4.25 4.8l-1.2-.35Q.45 3.55.45 2.3L0 .15l1.25.9 1.8.85.15.05" fill="none" stroke="#000" stroke-linecap="round" stroke-linejoin="round" stroke-opacity=".4" stroke-width=".05"/></g><g id="i"><path d="M7.35.8q-3-.2-6.05 1.3Q0 3.3-.3 4.5l-.9-1.05 2.1-2.2Q4.2-.5 7.45-.15l2.5 1.2v1.6Q8.85 1 7.35.8" fill="#890000" fill-rule="evenodd" transform="translate(1.2 .2)"/><path d="M8.55 1q-3-.2-6.05 1.3Q1.2 3.5.9 4.7L0 3.65l2.1-2.2Q5.4-.3 8.65.05l2.5 1.2v1.6Q10.05 1.2 8.55 1z" fill="none" stroke="#000" stroke-linecap="round" stroke-linejoin="round" stroke-opacity=".4" stroke-width=".05"/><path d="M8.65 2.6Q6 2.4 3.3 3.75 2.15 4.8 1.9 5.85l-.8-.9L2.95 3q2.9-1.55 5.75-1.25l2.2 1.05v1.4q-.95-1.45-2.25-1.6" fill="#890000" fill-rule="evenodd" transform="translate(1.2 .2)"/><path d="M9.85 2.8Q7.2 2.6 4.5 3.95 3.35 5 3.1 6.05l-.8-.9L4.15 3.2q2.9-1.55 5.75-1.25L12.1 3v1.4q-.95-1.45-2.25-1.6z" fill="none" stroke="#000" stroke-linecap="round" stroke-linejoin="round" stroke-opacity=".4" stroke-width=".05"/><path d="M10.1 4.8q-2.45-.3-4.9.9-1.1 1-1.35 2.05l-.7-.95 1.7-1.85q2.7-1.45 5.35-1l2.05 1.15v1.4q-.9-1.5-2.15-1.7" fill="#890000" fill-rule="evenodd" transform="translate(1.2 .2)"/><path d="M11.3 5q-2.45-.3-4.9.9-1.1 1-1.35 2.05L4.35 7l1.7-1.85q2.7-1.45 5.35-1l2.05 1.15v1.4q-.9-1.5-2.15-1.7z" fill="none" stroke="#000" stroke-linecap="round" stroke-linejoin="round" stroke-opacity=".4" stroke-width=".05"/></g><g id="j"><path d="M11.15 6.95q-2.3-.3-4.65.85-1 .95-1.2 1.9l-.7-.9 1.6-1.75q2.55-1.3 5-.9l1.95 1.1v1.3q-.85-1.4-2-1.6" fill="#890000" fill-rule="evenodd" transform="translate(-4.6 -6.05)"/><path d="M6.55.9q-2.3-.3-4.65.85-1 .95-1.2 1.9l-.7-.9L1.6 1q2.55-1.3 5-.9l1.95 1.1v1.3q-.85-1.4-2-1.6z" fill="none" stroke="#000" stroke-linecap="round" stroke-linejoin="round" stroke-opacity=".4" stroke-width=".05"/></g><g id="g"><path d="M354.15 179.5q-3-.2-6.05 1.3-1.3 1.2-1.6 2.4l-.9-1.05 2.1-2.2q3.3-1.75 6.55-1.4l2.5 1.2v1.6q-1.1-1.65-2.6-1.85" fill="#900" fill-rule="evenodd" transform="translate(-345.6 -178.5)"/><path d="M8.55 1q-3-.2-6.05 1.3Q1.2 3.5.9 4.7L0 3.65l2.1-2.2Q5.4-.3 8.65.05l2.5 1.2v1.6Q10.05 1.2 8.55 1z" fill="none" stroke="#000" stroke-linecap="round" stroke-linejoin="round" stroke-opacity=".4" stroke-width=".05"/><path d="M355.45 181.3q-2.65-.2-5.35 1.15-1.15 1.05-1.4 2.1l-.8-.9 1.85-1.95q2.9-1.55 5.75-1.25l2.2 1.05v1.4q-.95-1.45-2.25-1.6" fill="#900" fill-rule="evenodd" transform="translate(-345.6 -178.5)"/><path d="M9.85 2.8Q7.2 2.6 4.5 3.95 3.35 5 3.1 6.05l-.8-.9L4.15 3.2q2.9-1.55 5.75-1.25L12.1 3v1.4q-.95-1.45-2.25-1.6z" fill="none" stroke="#000" stroke-linecap="round" stroke-linejoin="round" stroke-opacity=".4" stroke-width=".05"/><path d="M356.9 183.5q-2.45-.3-4.9.9-1.1 1-1.35 2.05l-.7-.95 1.7-1.85q2.7-1.45 5.35-1l2.05 1.15v1.4q-.9-1.5-2.15-1.7" fill="#900" fill-rule="evenodd" transform="translate(-345.6 -178.5)"/><path d="M11.3 5q-2.45-.3-4.9.9-1.1 1-1.35 2.05L4.35 7l1.7-1.85q2.7-1.45 5.35-1l2.05 1.15v1.4q-.9-1.5-2.15-1.7z" fill="none" stroke="#000" stroke-linecap="round" stroke-linejoin="round" stroke-opacity=".4" stroke-width=".05"/></g><g id="h"><path d="M357.95 185.65q-2.3-.3-4.65.85-1 .95-1.2 1.9l-.7-.9 1.6-1.75q2.55-1.3 5-.9l1.95 1.1v1.3q-.85-1.4-2-1.6" fill="#900" fill-rule="evenodd" transform="translate(-351.4 -184.75)"/><path d="M6.55.9q-2.3-.3-4.65.85-1 .95-1.2 1.9l-.7-.9L1.6 1q2.55-1.3 5-.9l1.95 1.1v1.3q-.85-1.4-2-1.6z" fill="none" stroke="#000" stroke-linecap="round" stroke-linejoin="round" stroke-opacity=".4" stroke-width=".05"/></g><linearGradient id="q" x1="-819.2" x2="819.2" gradientTransform="matrix(-.0483 .028 -.0358 -.062 -3.5 .95)" gradientUnits="userSpaceOnUse"><stop stop-color="#b0892b" offset="0"/><stop stop-color="#8c6202" offset="1"/></linearGradient><linearGradient id="s" x1="-819.2" x2="819.2" gradientTransform="matrix(.082 0 0 .082 67.2 67.2)" gradientUnits="userSpaceOnUse"><stop stop-color="#ae6d2d" stop-opacity=".859" offset="0"/><stop stop-color="#ae6f2d" stop-opacity="0" offset="1"/></linearGradient><path d="m-23.2-53.65 1.3-2.5v-.05l.05.05.65 1.3 4.2-2.05q3.55-1.55 7.85-2.7l1.6-.4 5.8-.85 1.85-.1q.4-.95.3-1.7 2.05 1 4.5 1.85l.5.05q9.15.9 18.65 5.8v-2.55h.5q1.35 1.4 3.6 4.85l.5.3 2.7 1.7q5.55 3.75 10.1 8l.7.65q.55-2.05-.25-3.15v-1.25q1.2 1.05 2.95 7.2l.7.75 2.25 2.7q5.25 6.55 8.45 14.25l.3.7.6-4.35h.25q.55 1.5.5 5.55v2.55l.95 3.15.1.3v.15q1.95 7.4 2.65 13.2l.25 3.65 1.05-2 .15-.35-.1.45-1.05 4.65-.05.7q-.35 6.9-3.55 14.8l-.7 1.6L56.3 26q-4.65 9.35-10.6 14.05l-1.05.75-1.1.75-2.55 1.4-1.1.55-6.6 2.55-5.75 1.7-.3.1-7.25 1.5-6.45.6L2.1 49.1l-1.35-.3-2.85-.75-5.1-1.8q-3.85-1.65-7.45-4h-.05Q-28 34.4-36.2 22.85l-.8-1.15q-2.05-2.6-5.6-5.6l2.85 1Q-41.1 14-42 10.55l-1-4.2-.7-4.05L-45-.8q-1.65-3.8-1.65-5.35l1.35 1.7.95 1.25v-.15L-44.5-8q.05-8.85 2.6-17.2l.05-1.6q0-1.35-.5-3.85l1.4 2.55.05-.15q1.25-3.6 3.05-7.1l2.05-3.9.75-1.3q.6-1.7 1.45-4.85l.4 1.95q3.3-4.85 6.95-7.95l.9-.7 1.85-1.35.3-.2m9 93-.15.15.1.1.05-.25" fill="#b22300" fill-rule="evenodd" transform="translate(46.65 62.65)" id="n"/><path d="M134.4 67.2q0 27.85-19.7 47.5-19.65 19.7-47.5 19.7t-47.55-19.7Q0 95.05 0 67.2t19.65-47.55Q39.35 0 67.2 0t47.5 19.65q19.7 19.7 19.7 47.55" fill="url(#s)" fill-rule="evenodd" id="r"/><use width="47.8" height="39.4" xlink:href="#l" id="k"/><use width="134.4" height="134.4" xlink:href="#r" id="p"/></defs></svg>