<svg viewBox="0 0 104.66 87.521" xmlns="http://www.w3.org/2000/svg" xmlns:xlink="http://www.w3.org/1999/xlink"><g transform="translate(-222.85 -157.61)"><use transform="matrix(.8761 .0464 -.0447 .8089 226.3 155.86)" width="75.4" height="86.45" xlink:href="#a"/><use transform="translate(252.1 158.65)" width="75.4" height="86.45" xlink:href="#a"/></g><defs><use width="75.4" height="86.45" xlink:href="#b" id="a"/><g id="b"><path d="M-11.85-40.65q-.3 3.2 3.1 2.55 9.65-2.85 19.3-2.7l3.75.7.75-1.5q1.45 1.3 1.55 2.95l.15.45.8 3.35.2 1 .6 4.8q.45 6.7-1.35 12.55h-3.2q2.15-4.4 1.85-11.95l-.85-5.9-1.2 4.55q-.9-4.65-4.9-5.6L-7-33.6l-1.75-2.2h-1.9q-2.25-.9-1.8-3.4l.6-1.45m27.25 5.2q-.45-2-2.8-3.65-11.3-1.2-21.35 3.3Q1.3-40.3 12.6-39.1q2.35 1.65 2.8 3.65m18 6.6q-.95 1.25-1.5 3.9l-.3 4.25-.2 2.15-2.95 1.45q-3.95 1.95-8.2 2.25-1.25-6 0-12.05 1.4.85 5.75 0l6.05-1.1 1.35-.85m-24.1 64-.05.35q-1.9 3.5-6.2 5.05-6.6 2.85-13.55 2.7-2.4-1.35-4.1-3.45l-1.6 1.5q-7.4-.2-14.6-1.65-4.05-.95-6.25-4.1-1.2-1.85 0-5.05.45 3 3.05 3.8l9.3 1.85q5.95-.75 8.65-3.4l7.45-8.25 1.1.05-1.6 1.75q-3.3 3.75-5.9 8.2 1.65 3.05 5.25 2l8.65-2.4Q4.5 30.95 5 27q1.25-4.95-2.2-9.05-10-2.25-21.05-1.15l1.4-1.7 17.45.7 1.25.2.85.1q4.05 2.5 6.15 6 1.15 3.55 1.25 6.95l-.8 6.1M-4.35-29.1q-.45-.65.25-.5L-5.95-32 .2-27.25l-3.65-2.15 2.5 5-3.4-4.7m-.85-13.75q.45.85 1.4-.1l-2.9 3.25 1.5-3.15m-9.4 82.65-1.1-1.5v-2.6l.7-1.2-.7 1.2v2.6l1.1 1.5" fill="#2a2a2a" fill-rule="evenodd" transform="translate(37.65 43.2)"/><path d="m15.05-41.6-.75 1.5-3.75-.7q-9.65-.15-19.3 2.7-3.4.65-3.1-2.55l2.15-1.7 4.5-.5-1.5 3.15 2.9-3.25 17.75.55 1.1.8m2.5 6.75 17.4-1.55 2.6 1.65q.5 2.2-.4 3.5l-3.75 2.4-1.35.85L26-26.9q-4.35.85-5.75 0l1.25-1.75q5.05-.5 10.05-2.65 3.25-1.6 2.8-2.65-1.4-2.2-16.6.1l-.2-1m-54.6 65.35q3.7-3 7.55-4.5l4.65-3.55 3.95-2.95 1.2-.95 1.45-1.75Q-7.2 15.7 2.8 17.95 6.25 22.05 5 27q-.5 3.95-6.1 7.1l-8.65 2.4q-3.6 1.05-5.25-2 2.6-4.45 5.9-8.2 1.7-1 3.4 0l2.05 1.7q1.65-.3-.1-1.95 1.75.15 1.3-1.6l-2.8-1.65q-2.65-.85-5.35.45-.85 1 .15 1.5l1.85-.25-7.45 8.25q-2.7 2.65-8.65 3.4L-34 34.3q-2.6-.8-3.05-3.8m33.55-47q.8-3.4 0-9.4l-.85-3.2 3.4 4.7-2.5-5L.2-27.25-5.95-32-7-33.6l15.7-1.8q4 .95 4.9 5.6l1.2-4.55.85 5.9q.3 7.55-1.85 11.95H9.95q-.5 1.3-1.95 0H4.2q-.05 2.15-2.35 0H-3.5" fill="#545454" fill-rule="evenodd" transform="translate(37.65 43.2)"/><path d="M31.1-8.3v1.8l.25.6-7.7 4.8.65 15.5-2.95 6.4L18.6 10l-2.45-3.6 1.8-11 5.4-.75q3.9-.95 7.75-2.95M17-16.5q1.8-5.85 1.35-12.55l-.6-4.8q15.2-2.3 16.6-.1.45 1.05-2.8 2.65-5 2.15-10.05 2.65l-1.25 1.75q-1.25 6.05 0 12.05l-1.05.05-1.2-1.7h-1m1.35-12.55 3.15.4-3.15-.4m-22.1 55.1Q-2 27.7-3.65 28l-2.05-1.7q-1.7-1-3.4 0l1.6-1.75q2.05.2 3.75 1.5m-14.5-9.25-1.45 1.75-1.2.95q-.8-1.3 1.7-3.9l2.35-.5-1.4 1.7m20.95-.7 4.25 1.45 1.9 4.55q-2.1-3.5-6.15-6" fill-rule="evenodd" transform="translate(37.65 43.2)"/><path d="m34.45-18.95-.9 4-5.7 2.4-4.7.85-1.25 4 1.45 2.35-5.4.75-1.8 11L18.6 10l2.75 10.8.65 2.6.2.75v1q-2.6 4.55-7.25 8.95l-1.1-2.75-.25-4.2q-.5-5.7-2-11.5l.35-3.35 3.35-4.2-26.65-3.85 1.3-.8.6.3 25.6 2.65L14.3 5l.6-3.3L8-16.5q1.45 1.3 1.95 0L15.1.4 18-16.5l1.2 1.7v1.75q5.65-.1 11.25-2.7 2.9-1.6 4-3.2m-1.4 12.3L34.7-.5l.65 1.65-5.1 6.6 5.95-4.4.5 1.3-4.8 3.8 4.8-2.1.9.65-11.45 8.15-.5-15.65 7.4-4.05v-2.1M-9.75-7.7q1.2.25.35-2.5l4.7 5.3-5.05-2.8m.75-5.7q1.1.45.2-1.65l6.75 9.45L-9-13.4m10.85-3.1q2.3 2.15 2.35 0L9.65-5.45 1.85-16.5M-9.1 9.6l1.05 3.3-2.35-2.95q.55.45 1.3-.35m28.3-22.65L17.95-4.6l1.25-8.45" fill="#7e5454" fill-rule="evenodd" transform="translate(37.65 43.2)"/><path d="m-24.85 22.45 1.4-7.8.9-2.1L-18 9.9l7.25-.35-4.15-3.1q1.65 1.15 1.7-1.1l4.1 4.25q-.75.8-1.3.35l2.35 2.95-1.05-3.3q9.4.2 18.35 2.85l2.35 3.2q1.5 5.8 2 11.5L8.85 22.1l-1.9-4.55L2.7 16.1l-.85-.1-1.25-.2-17.45-.7-2.35.5q-2.5 2.6-1.7 3.9l-3.95 2.95m13.75-19.6L-9.75-7.7l5.05 2.8-4.7-5.3.4-3.2 6.95 7.8-6.75-9.45.15-1.45h10.5l7.8 11.05L4.2-16.5H8l6.9 18.2-.6 3.3-25.4-2.15M13.8-16.5H18L15.1.4 9.95-16.5h3.85" fill="#a68d8d" fill-rule="evenodd" transform="translate(37.65 43.2)"/><path d="m31.6-20.7 2.35.5.5 1.25q-1.1 1.6-4 3.2-5.6 2.6-11.25 2.7v-1.75l1.05-.05q4.25-.3 8.2-2.25l2.95-1.45.2-2.15m-54.15 33.25 7.65-6.1 4.15 3.1-7.25.35-4.55 2.65m9.35-7.2 1.85-1.1L15.3 8.1l-3.35 4.2-2.7.15Q.3 9.8-9.1 9.6l-4.1-4.25m44.6-23.9 1-.75-1 .75" fill="#b9abab" fill-rule="evenodd" transform="translate(37.65 43.2)"/><path d="m-10.05 3.45-1.05-.6L14.3 5l1.85 1.4-25.6-2.65-.6-.3m33.7-4.55 2 .6.5 15.65-1.85-.75-.65-15.5" fill="#604141" fill-rule="evenodd" transform="translate(37.65 43.2)"/><path d="m-8.6 24.5-1.85.25q-1-.5-.15-1.5 2.7-1.3 5.35-.45l2.8 1.65q.45 1.75-1.3 1.6-1.7-1.3-3.75-1.5l-1.1-.05" fill="#540000" fill-rule="evenodd" transform="translate(37.65 43.2)"/><path d="M33.55-14.95 34.3-11l-1.05 1.45L31.1-8.3q-3.85 2-7.75 2.95L21.9-7.7l1.25-4 4.7-.85 5.7-2.4M31.1-7.4l1.95.75v2.1L25.65-.5l-2-.6 7.7-4.8-.25-.6v-.9M12.65 35.15H9.3l.8-6.1q-.1-3.4-1.25-6.95l4.75 5.05.25 4.2-1.2 3.8" fill="#876262" fill-rule="evenodd" transform="translate(37.65 43.2)"/><path d="M35.35 1.15q-.1 1.85.85 2.2l-5.95 4.4 5.1-6.6m1.35 3.5v1.7l-4.8 2.1 4.8-3.8M14.95 34.1q-.55.55-2.3 1.05l1.2-3.8 1.1 2.75m6.4-13.3 2.95-6.4 1.85.75L22 23.4l-.65-2.6" fill="#4d3333" fill-rule="evenodd" transform="translate(37.65 43.2)"/><path d="m11.6 15.65-2.35-3.2 2.7-.15-.35 3.35" fill="#cac7c7" fill-rule="evenodd" transform="translate(37.65 43.2)"/><path d="m37.6 7-1.8 9.05-13.6 8.1-.2-.75 4.15-8.25L37.6 7" fill="#6e4848" fill-rule="evenodd" transform="translate(37.65 43.2)"/><path d="M25.8 2.55 25.2 4q-.45 2.5 1.8 3.4h1.9q10.05-4.5 21.35-3.3 2.35 1.65 2.8 3.65M33.85.25 51.6.8l1.1.8q1.45 1.3 1.55 2.95l.15.45.8 3.35L72.6 6.8l2.6 1.65q.5 2.2-.4 3.5l-3.75 2.4q-.95 1.25-1.5 3.9l-.3 4.25 2.35.5.5 1.25-.9 4 .75 3.95-1.05 1.45-2.15 1.25v.9l1.95.75 1.65 6.15.65 1.65q-.1 1.85.85 2.2l.5 1.3v1.7l.9.65-1.8 9.05-13.6 8.1v1q-2.6 4.55-7.25 8.95-.55.55-2.3 1.05h-3.35l-.05.35q-1.9 3.5-6.2 5.05-6.6 2.85-13.55 2.7-2.4-1.35-4.1-3.45l-1.6 1.5q-7.4-.2-14.6-1.65Q2.8 81.9.6 78.75-.6 76.9.6 73.7q3.7-3 7.55-4.5l4.65-3.55 1.4-7.8.9-2.1 7.65-6.1q1.65 1.15 1.7-1.1l1.85-1.1 1.3-.8-1.05-.6L27.9 35.5q1.2.25.35-2.5l.4-3.2q1.1.45.2-1.65L29 26.7h5.15q.8-3.4 0-9.4l-.85-3.2q-.45-.65.25-.5l-1.85-2.4-1.05-1.6-1.75-2.2m22.55 19.3h3.2q1.8-5.85 1.35-12.55l-.6-4.8-.2-1M41.85 26.7q-.05 2.15-2.35 0h-5.35m7.7 0h3.8q1.45 1.3 1.95 0h3.85m6.45 1.65-1.05.05v1.75m-1.2-3.45h-1m2.2 1.7-1.2-1.7m2.25 1.65q4.25-.3 8.2-2.25l2.95-1.45.2-2.15m-10.1-7.95q5.05-.5 10.05-2.65 3.25-1.6 2.8-2.65-1.4-2.2-16.6.1m15.65 5-1.35.85m-10.55-.65-3.15-.4m14.05 9.75-1 .75M25.8 2.55l2.15-1.7 4.5-.5q.45.85 1.4-.1m-6.25 46.4.6.3 25.6 2.65 2.45 3.6L59 64l2.95-6.4-.65-15.5M16.75 62.7l-3.95 2.95m16.25 2.05-1.85.25q-1-.5-.15-1.5 2.7-1.3 5.35-.45l2.8 1.65q.45 1.75-1.3 1.6m-5.35.25q-3.3 3.75-5.9 8.2l-.7 1.2v2.6l1.1 1.5M19.4 60l-1.45 1.75-1.2.95q-.8-1.3 1.7-3.9l2.35-.5 17.45.7 1.25.2.85.1 4.25 1.45 1.9 4.55q-2.1-3.5-6.15-6m-19.55-1L19.4 60m10.75 7.75q2.05.2 3.75 1.5m-4.85-1.55 1.1.05-1.6 1.75m40.2-33.7v.9l.25.6-7.7 4.8m-.3-4.25q3.9-.95 7.75-2.95M61 37.85l-5.4.75-1.8 11m-7.3 15.7q1.15 3.55 1.25 6.95l-.8 6.1m12.7-11.75.2.75M59 64l.65 2.6m-4.05-28 1.25-8.45" fill="none" stroke="#000" stroke-linecap="round" stroke-linejoin="round" stroke-opacity=".4" stroke-width=".05"/><path d="m-3-8.9 2.85-.6.95 1.35q-7.6 3.35-7.6 6.6l.1.55q-2.25-2.15-2.25-2.65l.25-1.5.75.1q1.7 0 2.05-1.55.45-1.75 2.9-2.3m33.45-6.05-2.3-.4q-2.3 0-4.55 1.9-.5-1.6-1.8-2.1 7.5-1 10.95-2.7l-1 1.3-1.3 2M24.3-29.9l-1.7-.35 2-.4-.3.75m.25 3.75q.85-1 .85-1.7 1.5.65 4.75 1.25l2.1.45L32-25.1l-2.95-.25q-1.8 0-3.5 1.65l-.9.9q-1-1.55-1-1.95 0-.35.9-1.4M3-27.05q-.9 1-.95 1.8Q-1-24.65-1-22.8q0 1.3 1.2 1.75h-3.25q-.05-2.2-.4-4.85l-.85-3.2q-.45-.65.25-.5L-5-30.7q4.25.6 8 3.65m14.25 3.1V-24l.3-.2q1.1 1.3 1.1 2.15v.25l-1.6-.95.2-1.2m-3.1-11.85q-2.45-1.7-3.5-1.7-2 0-2.3 1.8L-5.2-37q-1.55 0-2.2.9h-.25l-1.45.3h-1.5q-2.25-.9-1.8-3.4l.6-1.45 2.15-1.7 4.5-.5q.45.85 1.4-.1Q-2.5-41.3 4.75-40q8.95 1.6 9.4 4.2m5.55 1.65-.15-1L35-36.4l2.6 1.65.05.25q-1.6-.65-3.15-.65-2.05 0-3.35 1-1.45-1-5-1l-1 .05q-3.4.25-5.45.95m-30.75 37 .2-1.65 1.9.25q2.2 0 2.35-2.1l.15.35q.65 1.05 2 1.05 1.15 0 3.3-2.2t2.9-2.2l1.5.5q.85 0 1.45-.35L2.65-.4H2.3Q-1-.4-1 2.15q0 2.8 3.25 2.8 1.4 0 2.2-1.25l.25-.4q.85-.25 1.95-1.45 1.4 2.4 4.45 2.4l.95-.05 1.45.3.45-.05 1.7 2.05v.35l.05.3q-1.65-.8-4-.8-2.4 0-2.9 1.55-1.55-.55-2.75-.55-1.5 0-2.05 1-.6.1-1 .45l-.3-.2Q-.45 6.85-4.05 6.85l-2.6.1-.4-.15.9-.3q1.95-.85 1.95-2.25-.1-2.3-2.35-2.3-2.05 0-4.4.95l-.1-.05m43.6 15.2-1.15-.2q-2.3 0-2.45 2.35l-2.55 1.5q.05-.95.9-2.1l.6-.75.1-.1q1.55-1.7 1.55-2.6l-.15-.95 6.15-1.3.8-.25-.5 2.4-3.3 2m-15.6-.8.35.7L18 21l.4.9-.15.3q-.55 1.15-.55 2.15l.1.8-1.55 1.05-.25.25-.4-1.65.15-.35q1.4-3.55 1.4-5.35l-.25-1.4.05-.45m.4-19.45.2-.9.15.4-.35.5m10.8-8.35 1.35.85-1.5.85-.8-.2q-2.3 0-2.3 2.45v.1l-.9-.15-.5.05q.9-.45 1.9-1.85 1.5-2.1 2.75-2.1m3.8 9.45-.3-1.25q1.45-.55 2.3-1.15l.8 3 .65 1.65q-.1 1.85.85 2.2l.5 1.3v1.7l.9.65-.05.35-5 1.8 3.7-3.25q-.1-2.3-2.35-2.3Q32.5 3.6 30 5l-.7-.05-.25.1-.85-.1-.9.05q.25-1.3 1.35-2.35 1.2-.2 1.65-1.35 1.65-1.35 1.65-2.4m-33.3 34.5q0-.35-.7-1.3l.7-1.55v-.05Q-.4 29.35.8 29.35q2.2 0 2.2 1.4 0 2.1-1.4 4.75T.2 39q0 1.75 1.3 2.2-5.85 2.2-11.95 2.05l-2.15-1.45-.1-.45q1.4-.05 1.9-.95l.25-.25q1.05-.5 1.9-1.95l2.3.4q1.7 0 2.75-1.05.8-.85.8-1.8v-.1q1.45-.4 1.45-2.25m-3.4-6.25-.65 1-.3-.5.5-.8.45.3m-14.6-10.2-.2-.85.35-.2-.15.95v.1m-2 18.45 1.1-1.1.95.05q4.3 0 4.3-3.7v-1.3l.9.1q.65 0 1.85-.8h1.15q-1.2 1.2-2.45 3.2-2.55 4.05-2.55 5.25 0 1.1.4 2.05l-2.15-.25q-.3-.45-.85-.75l-1.8-.95-.85-1.8m-15.65.15q-1.2-1.85 0-5.05l1.1-.85q-1.2 2.25-1.2 5.4l.2.6-.1-.1m4.65.25.8.3 3.1.05 1.25.2.15.75q-.4.55-.45 1.4l-2.55 1.3-.7-.15q-2.75-.65-4.65-2.3l.55.05q1.7 0 2.5-1.6M-5.3 11.7l.6-.1q2.25-.25 7.95 2 1.1 0 1.65-.5l2.4.9 1.2 1.3v4.4l-1.75-1q-1.25-1.3-4.1-2.3Q-1 15.15-6.6 14.65l.05-.05q1.35-1.25 1.35-2.2l-.1-.7" fill="#7e2a00" fill-opacity=".302" fill-rule="evenodd" transform="translate(37.65 43.2)"/><path d="M-7.65 6.15q-.85.6-1.15-.9l1.4-4.05q.7-.7 1 .55l-1.25 4.4" fill="#545454" fill-rule="evenodd" transform="translate(37.65 43.2)"/><path d="m30 49.35 1.25-4.4q-.3-1.25-1-.55l-1.4 4.05q.3 1.5 1.15.9z" fill="none" stroke="#000" stroke-linecap="round" stroke-linejoin="round" stroke-opacity=".4" stroke-width=".05"/><path d="M.15 7.05q-.85.6-1.15-1L.4 1.8q.7-.75 1 .6L.15 7.05" fill="#545454" fill-rule="evenodd" transform="translate(37.65 43.2)"/><path d="m37.8 50.25 1.25-4.65q-.3-1.35-1-.6l-1.4 4.25q.3 1.6 1.15 1z" fill="none" stroke="#000" stroke-linecap="round" stroke-linejoin="round" stroke-opacity=".4" stroke-width=".05"/><path d="M7.6 8.1q-.85.55-1.15-.85l1.4-3.85q.7-.65 1 .55L7.6 8.1" fill="#545454" fill-rule="evenodd" transform="translate(37.65 43.2)"/><path d="m45.25 51.3 1.25-4.15q-.3-1.2-1-.55l-1.4 3.85q.3 1.4 1.15.85z" fill="none" stroke="#000" stroke-linecap="round" stroke-linejoin="round" stroke-opacity=".4" stroke-width=".05"/><path d="M28.95-10q.55-1.25 1.5 1.25l.5 7.2q-.4 1.3-1.25-.7L28.95-10" fill="#2a2a2a" fill-rule="evenodd" transform="translate(37.65 43.2)"/><path d="m66.6 33.2.75 7.75q.85 2 1.25.7l-.5-7.2q-.95-2.5-1.5-1.25z" fill="none" stroke="#000" stroke-linecap="round" stroke-linejoin="round" stroke-opacity=".4" stroke-width=".05"/><path d="M26.2-8.55q.55-1.25 1.5 1.25l.5 7.2q-.4 1.3-1.25-.7l-.75-7.75" fill="#2a2a2a" fill-rule="evenodd" transform="translate(37.65 43.2)"/><path d="m63.85 34.65.75 7.75q.85 2 1.25.7l-.5-7.2q-.95-2.5-1.5-1.25z" fill="none" stroke="#000" stroke-linecap="round" stroke-linejoin="round" stroke-opacity=".4" stroke-width=".05"/></g></defs></svg>