<svg viewBox="0 0 55.776 70.421" xmlns="http://www.w3.org/2000/svg" xmlns:xlink="http://www.w3.org/1999/xlink"><g transform="translate(-247.1 -165.28)"><use transform="matrix(.9266 0 0 .8948 247.12 165.3)" width="44.2" height="67.55" xlink:href="#a"/><use transform="translate(258.65 168.1)" width="44.2" height="67.55" xlink:href="#a"/></g><defs><use width="44.2" height="67.55" xlink:href="#b" id="a"/><g id="b"><path d="M16.5-32.4q-2.05 3.55-4.65 5.5l-1.55 1-1.6.05.35-.9 1.15-.65q3.6-2.1 6.75-6.35l-.45 1.35" fill="#b4b49a" fill-rule="evenodd" transform="translate(22.1 33.75)"/><path d="m8.7-25.85 1.6-.05 1.55-1q2.6-1.95 4.65-5.5-1.4 3.85-3.5 6.9l-.4.5q-.35.95-1.65 1.25-2.5-.55-2.25-2.1" fill="#a4a47b" fill-rule="evenodd" transform="translate(22.1 33.75)"/><path d="m10.2-27.4-1.15.65-.35.9q-.25 1.55 2.25 2.1 1.3-.3 1.65-1.25l.4-.5.05.9q-.25.8-1.15 1.2l-1.95.1q-1.1-.3-1.7-1.1-.55-.75-.35-1.6.2-.8 1.1-1.2l1.2-.2" fill-opacity=".29" fill-rule="evenodd" transform="translate(22.1 33.75)"/><path d="M38.6 1.35 39.05 0Q35.9 4.25 32.3 6.35L31.15 7l-.35.9q-.25 1.55 2.25 2.1 1.3-.3 1.65-1.25l.4-.5q2.1-3.05 3.5-6.9z" fill="none" stroke="#000" stroke-linecap="round" stroke-linejoin="round" stroke-opacity=".4" stroke-width=".05"/><path d="M-5.6-27.25q-2.55-2-4.75-6.05l.35 1.25q1.4 3.45 3.25 5.3l1.05.95 1.15.05-.25-.85-.8-.65" fill="#b4b49a" fill-rule="evenodd" transform="translate(22.1 33.75)"/><path d="M-10-32.05q.95 3.7 2.45 6.65l.25.45q.25.95 1.15 1.2 1.75-.5 1.6-2l-1.15-.05-1.05-.95Q-8.6-28.6-10-32.05" fill="#a4a47b" fill-rule="evenodd" transform="translate(22.1 33.75)"/><path d="m-7.55-25.4-.05.85q.15.75.8 1.15l1.35.1q.8-.3 1.2-1.05T-4-25.9q-.15-.75-.8-1.15l-.8-.2.8.65.25.85q.15 1.5-1.6 2-.9-.25-1.15-1.2l-.25-.45" fill-opacity=".29" fill-rule="evenodd" transform="translate(22.1 33.75)"/><path d="M16.5 6.5q-2.55-2-4.75-6.05l.35 1.25q.95 3.7 2.45 6.65l.25.45q.25.95 1.15 1.2 1.75-.5 1.6-2l-.25-.85z" fill="none" stroke="#000" stroke-linecap="round" stroke-linejoin="round" stroke-opacity=".4" stroke-width=".05"/><path d="m-18.05-17.3 6.2-.15 1.4-.45.6-.95-.9-.25q-.45.3-.95.4-3 1.2-7.65 1.05l1.3.35" fill="#b4b49a" fill-rule="evenodd" transform="translate(22.1 33.75)"/><path d="m-9.85-18.85-.6.95-1.4.45-6.2.15q3.7 1 7 1.2h.55q.9.25 1.6-.4.4-1.75-.95-2.35" fill="#a4a47b" fill-rule="evenodd" transform="translate(22.1 33.75)"/><path d="M-11.7-18.7q.5-.1.95-.4l.9.25q1.35.6.95 2.35-.7.65-1.6.4h-.55l.7.5 1.4-.1q.65-.4.75-1.2.15-.75-.3-1.5-.45-.7-1.2-1l-1.4.1-.6.6" fill-opacity=".29" fill-rule="evenodd" transform="translate(22.1 33.75)"/><path d="m4.05 16.45-1.3-.35q4.65.15 7.65-1.05.5-.1.95-.4l.9.25q1.35.6.95 2.35-.7.65-1.6.4h-.55q-3.3-.2-7-1.2z" fill="none" stroke="#000" stroke-linecap="round" stroke-linejoin="round" stroke-opacity=".4" stroke-width=".05"/><path d="M-12.25-24.05q3.15-5.2 14.1-7.1 11.8.6 12.55 5l.05.4q-2.25 3.8-6.95 5.1-2.2.6-4.9.65H1.35l-5.3-.25 4.75-1.7.15-.05H2.2q9.8-1.3 8.8-4.65-.8-2.85-8.75-2.75Q-6.4-28.2-9-24.75q-.1 1.3 2.4 1.95l-2.05 1.65h-.05q-3.05-1.05-3.55-2.9M11.4 13.1l1.05.55-1.7 2-1.3-.35 1.1-.8 1.05-.85-.2-.55m-32.95 5.75 2.85-1.1 4.15.45-1.7 1-.05.3-5.25-.65m6.95-9.9 4.75-2.4Q-1.1 5.7 5.7 8.05v.7q-4 1.45-9.65.45-1.9-.4-.9-1.95Q-7 8.95-11 8.85q-1.1.1.8-1.4-2.5 1.5-4.4 1.5m4.5-10 1.15-.75.9.3Q-.65.6 7.5-1.25l.65 2.1Q-1.75 2.2-9.7.1l-.4-1.15M6.15 19.4l-.7 1.25-20.7-1.05 2.7-1.15.1-.05 13.95.9 4.65.1m-8.3-41.55-3.35 1.7h-.05l-2.2-.45 3.15-1.5 2.45.25" fill="#ac0000" fill-rule="evenodd" transform="translate(22.1 33.75)"/><path d="M-6.6-22.8q-2.5-.65-2.4-1.95 2.6-3.45 11.25-4.65 7.95-.1 8.75 2.75Q12-23.3 2.2-22H.95l-.15.05q-2.35.75-2.95-.2l-2.45-.25q-1.8.5-2-.4m14.1 2.15q4.7-1.3 6.95-5.1l-.9 11.05v1.95q-1.15-.1-1.55-6.55-1.85 14-5.9 12.85 2.05-6.2 1.4-14.2m4.95 34.3q1.75 7.95 0 14.6l-1.95 2.3-.65-3.5.9-11.4 1.7-2M9.35 29.9 7.15 31l-2 2.7H4.6l.2-2.7-24.05-1.1-.95-1.65 25.9 1.2.9-1.8v-.15h.55l1.55-.35.65 2.75m-21.9-11.45-2.7 1.15h-.05l-2.2 4.95 1.2-5.05.05-.3 1.7-1q.45.85 2 .25m7.05-38.9q.5.75 1.5.2l-2.85 8.1 1.3-8.3h.05m-3.15-.7q.5.8.9.25v6.4l-.95-6.65h.05" fill="#520000" fill-rule="evenodd" transform="translate(22.1 33.75)"/><path d="M13.55-12.75v7.1l-.85 1.3q-1 1.2-2.6 1.55L4-1.85Q5.25-4 6.1-6.45 10.15-5.3 12-19.3q.4 6.45 1.55 6.55m-33.75 41-1.25-.05-.55-7.75q.95 4.6 4.25 6.25 3.1.05 5.2-5.85-.3 4.5 2.65 5.6 2.9-.1 5.75-4.75-.25 3.05 1 4.8 5.3 3.4 8.65-5.05l.2 8-25.9-1.2m2.95-15.1h-.05l-.9-2.45q12.65-2.05 23.9 1.1v.45l-1.45 2.8q-10.25-4.7-21.5-1.9" fill="#ce7b00" fill-rule="evenodd" transform="translate(22.1 33.75)"/><path d="m12.7-4.35.05 1.5-1.25.95q-1.2.6-2.4.7V.45L6.5 8.2v3.75l-1.15 3.6-1.5 1-2.75-1.3-.45-.3-2.6-.95q-7.75-1.35-15.9 0l.6-.85q11.25-2.8 21.5 1.9l1.45-2.8v-4.2L8.15.85l-.65-2.1Q-.65.6-8.05-1.5l-.2-1.6.25.05q5.8 1.65 12 1.2l6.1-.95q1.6-.35 2.6-1.55m-1 14.6.3.7-.95 1.15-.55.6-2.65 1.5 3.1-2.85.75-1.1" fill="#442e00" fill-rule="evenodd" transform="translate(22.1 33.75)"/><path d="m1.1 15.25 2.75 1.3 1.5-1 1.15-3.6V8.2L9.1.45V-1.2q1.2-.1 2.4-.7.4 4.8-1.15 11.1-5.3 6.65-2.5 5l2.65-1.5.05 1.8-1.1.8q.45 7.8-.75 11.85l-1.55.35H6.6l-.45-8.1-4.65-.1.8-1.6q.4-1.45-1.2-2.45" fill="#5b3e00" fill-rule="evenodd" transform="translate(22.1 33.75)"/><path d="M12.75-2.85q-.05 6.4-1.8 11.4l.75 1.7-.75 1.1.05-.3q.1-.9-.65-1.85Q11.9 2.9 11.5-1.9l1.25-.95m-1.7 14.95.35 1 .2.55-1.05.85-.05-1.8.55-.6" fill="#6a4700" fill-rule="evenodd" transform="translate(22.1 33.75)"/><path d="M-12.25-24.05q.5 1.85 3.55 2.9h.05l2.05-1.65q.2.9 2 .4l-3.15 1.5 2.2.45h.05-.05l-1.3 8.3 2.85-8.1q-1 .55-1.5-.2l3.35-1.7q.6.95 2.95.2l-4.75 1.7 5.3.25H2.6q2.7-.05 4.9-.65.65 8-1.4 14.2-2.9-.8-5.8-9.8Q-1.25-1.3-7.2-6.3q-2.05-3.65-3.8-9.6l-1.25-8.15m22.75 54.6h-1l-.15-.65-.65-2.75q1.2-4.05.75-11.85l1.3.35-.9 11.4.65 3.5M4.6 33.7q-11.8.55-23.1-1.35.7-1.25-.75-2.45L4.8 31l-.2 2.7M-22 20.45l-.1-1.4.55-.2 5.25.65-1.2 5.05 2.2-4.95h.05l20.7 1.05.05.8Q2.15 29.9-3.15 26.5q-1.25-1.75-1-4.8Q-7 26.35-9.9 26.45q-2.95-1.1-2.65-5.6-2.1 5.9-5.2 5.85-3.3-1.65-4.25-6.25m12.15-13.9L-11 .75-9.7.1q7.95 2.1 17.85.75L5.7 8.05Q-1.1 5.7-9.85 6.55m1.2-27.7h-.05l.95 6.65v-6.4q-.4.55-.9-.25" fill="#7b0000" fill-rule="evenodd" transform="translate(22.1 33.75)"/><path d="m-18.2 10.7 3.6-1.75q1.9 0 4.4-1.5-1.9 1.5-.8 1.4 4 .1 6.15-1.6-1 1.55.9 1.95 5.65 1 9.65-.45v3.05q-11.25-3.15-23.9-1.1m9.95-13.8q-1.75-.6-1.8-2.75.15-3.65-.85-9.35l-.1-.7q1.75 5.95 3.8 9.6 5.95 5 7.5-9.95 2.9 9 5.8 9.8Q5.25-4 4-1.85q-6.2.45-12-1.2l-.25-.05" fill="#cea400" fill-rule="evenodd" transform="translate(22.1 33.75)"/><path d="M-18.7 17.75q-.6-.2.2-2.85l.65-.9q8.15-1.35 15.9 0l2.6.95.45.3q1.6 1 1.2 2.45l-.8 1.6-13.95-.9-.1.05q-1.55.6-2-.25l-4.15-.45M10.35 9.2q.75.95.65 1.85l-.05.3-3.1 2.85q-2.8 1.65 2.5-5" fill="#7b5200" fill-rule="evenodd" transform="translate(22.1 33.75)"/><path d="m5.45 20.65.7-1.25.45 8.1-.1.35-.8 1.6-.2-8-.05-.8" fill="#ce5200" fill-rule="evenodd" transform="translate(22.1 33.75)"/><path d="m-11 .75.9-1.8.4 1.15-1.3.65" fill="#ce0000" fill-rule="evenodd" transform="translate(22.1 33.75)"/><path d="m36.55 8-.05-.4q-.75-4.4-12.55-5Q13 4.5 9.85 9.7M36.55 8l-.9 11.05v9.05l-.85 1.3.05 1.5q-.05 6.4-1.8 11.4l.75 1.7.3.7-.95 1.15.35 1 1.05.55q1.75 7.95 0 14.6l-1.95 2.3h-1l-.15-.65-2.2 1.1-2 2.7h-.55Q14.9 68 3.6 66.1q.7-1.25-.75-2.45L1.9 62l-1.25-.05L.1 54.2 0 52.8l.55-.2 2.85-1.1q-.6-.2.2-2.85l.65-.9.6-.85H4.8l-.9-2.45 3.6-1.75 4.75-2.4-1.15-5.8.9-1.8 1.15-.75.9.3-.2-1.6q-1.75-.6-1.8-2.75.15-3.65-.85-9.35l-.1-.7L9.85 9.7m4.2 22.55q7.4 2.1 15.55.25l.65 2.1-2.45 7.2V46l-1.45 2.8q-10.25-4.7-21.5-1.9M34.8 29.4q-1 1.2-2.6 1.55l-6.1.95q-6.2.45-12-1.2l-.25-.05M33.1 44.8l-.05.3-3.1 2.85m3.55-1.1.2.55-1.05.85-1.1.8m1.6-3.2-.55.6M30.8 60.9q1.2-4.05.75-11.85m-3.3 4.1-4.65-.1-13.95-.9M27.8 63.2l.8-1.6.1-.35-.45-8.1m-20.7-1.2L3.4 51.5m6.15.7q-1.55.6-2-.25m21.15 9.3h.55l1.55-.35.65 2.75M28.6 61.6l.1-.2v-.15M12.25 40.3q8.75-.85 15.55 1.5m0 21.4L1.9 62" fill="none" stroke="#000" stroke-linecap="round" stroke-linejoin="round" stroke-opacity=".4" stroke-width=".05"/><path d="m12.85-14.9 9.25.3-1.25.65q-3.95 1.05-7.15.55l-1.85-.35-1.15-1.15.85-.35 1.3.35" fill="#b4b49a" fill-rule="evenodd" transform="translate(22.1 33.75)"/><path d="M20.85-13.95q-3.7 1.7-7.35 2.35l-.65.05q-.95.5-2.05-.25-1.35-2.15-.1-3.1l1.15 1.15 1.85.35q3.2.5 7.15-.55" fill="#a4a47b" fill-rule="evenodd" transform="translate(22.1 33.75)"/><path d="m13.5-11.6-.6.7-1.7.05q-.9-.35-1.4-1.35-.6-1-.45-1.95t.9-1.4l1.6-.05 1 .7-1.3-.35-.85.35q-1.25.95.1 3.1 1.1.75 2.05.25l.65-.05" fill-opacity=".29" fill-rule="evenodd" transform="translate(22.1 33.75)"/><path d="m34.95 18.85 9.25.3-1.25.65q-3.7 1.7-7.35 2.35l-.65.05q-.95.5-2.05-.25-1.35-2.15-.1-3.1l.85-.35z" fill="none" stroke="#000" stroke-linecap="round" stroke-linejoin="round" stroke-opacity=".4" stroke-width=".05"/><path d="M7.65-22q-.95 3-2.15 4.7l-.75.85-.7.05.15-.8.55-.55q1.65-1.8 3.1-5.4L7.65-22" fill="#b4b49a" fill-rule="evenodd" transform="translate(22.1 33.75)"/><path d="m4.05-16.4.7-.05.75-.85Q6.7-19 7.65-22 7-18.75 6-16.1l-.15.4q-.2.8-.8 1.05-1.15-.45-1-1.75" fill="#a4a47b" fill-rule="evenodd" transform="translate(22.1 33.75)"/><path d="m4.75-17.75-.55.55-.15.8q-.15 1.3 1 1.75.6-.25.8-1.05l.15-.4.05.75q-.1.7-.55 1l-.9.1q-.5-.25-.75-.95-.3-.6-.2-1.35.1-.7.5-1l.6-.2" fill-opacity=".29" fill-rule="evenodd" transform="translate(22.1 33.75)"/><path d="m29.75 11.75.2-1.15q-1.45 3.6-3.1 5.4l-.55.55-.15.8q-.15 1.3 1 1.75.6-.25.8-1.05l.15-.4q1-2.65 1.65-5.9z" fill="none" stroke="#000" stroke-linecap="round" stroke-linejoin="round" stroke-opacity=".4" stroke-width=".05"/><path d="M-11.35-13.75q1.95 2.25 3.85 3l1.1.35.95-.4-.4-.65-.8-.2q-2.55-.6-5.2-3l.5.9" fill="#b4b49a" fill-rule="evenodd" transform="translate(22.1 33.75)"/><path d="m-5.45-10.8-.95.4-1.1-.35q-1.9-.75-3.85-3 1.6 2.6 3.45 4.4l.35.3q.4.65 1.25.5 1.3-1.1.85-2.25" fill="#a4a47b" fill-rule="evenodd" transform="translate(22.1 33.75)"/><path d="m-6.65-11.65.8.2.4.65Q-5-9.65-6.3-8.55q-.85.15-1.25-.5l-.35-.3.2.75q.3.55.9.6.65.05 1.15-.5.55-.5.75-1.35.2-.75-.15-1.35-.25-.5-.85-.6l-.75.15" fill-opacity=".29" fill-rule="evenodd" transform="translate(22.1 33.75)"/><path d="m10.75 20-.5-.9q2.65 2.4 5.2 3l.8.2.4.65q.45 1.15-.85 2.25-.85.15-1.25-.5l-.35-.3q-1.85-1.8-3.45-4.4z" fill="none" stroke="#000" stroke-linecap="round" stroke-linejoin="round" stroke-opacity=".4" stroke-width=".05"/></g></defs></svg>