<svg viewBox="0 0 154.16 301.36" xmlns="http://www.w3.org/2000/svg" xmlns:xlink="http://www.w3.org/1999/xlink"><use transform="translate(.01 .013)" width="154.15" height="301.45" xlink:href="#a"/><defs><g id="a"><path d="m493.6 132.9-.2-1.35q-.45-1.35-1.9-2.15l-4.2-.7-.65.1q-19.3 7.45-33.1 23.1l-5.65 4.2.7 3.55q27.15-6.85 45-26.75m-113.25.85-4.5-4.2q-14.75-14.4-18.1-32.7-1.35-7.1 6.15-6.75 6.55.45 12.45 4.9 15.55 11.7 24.2 29.55-5.6-21.85-1.45-43.4 1.5-7.95 9.65-10.1 21.15-5.5 32.8 12.95 23.8-4.05 21.9 23.2-.65 9.05-3.75 17.45 8.3-1 19.3-8 3.8-2.45 8.7-1.9 29.85 3.85 21.8 29.05-2.3 7.1-7.9 12.35-4.6 4.3-10.1 7.4 16.8 15.85 13.6 34.2-.5 2.75-3.7 4.1-20.05 8.1-35.4-3.85l.2-1.3q2.3-24.4-21.4-37.2l-1.05-.55-3.05-2.75-1.7-1.55q.65-4 .7-8.3.15-5.8.85-11.55.85-7.4-5.25-10.55l-.6 1.55-.6 1.85-.8 2.7q-1.05 5.45-3.55 10.7l-1.8 3.65-5.3-4.75-5.65-.7q-6.25-.05-10.4 2.5-11.5-6.7-26.25-8m53.2 60.25-.35.1.05-.2.3.1m11.25-34.5q-1.7-1.75-3.8-3.1l-.3-.2.3.2q2.1 1.35 3.8 3.1m-10.25-68.05-.65.75q-15.3 16.75-15.55 40l9.85 4.95q4-7.15 6.9-15.3 5.65-15.85-.55-30.4m31.85 76.15-.95 1.3 11.75-4.8q-6.5-1.35-10.8 3.5m10.8-3.5 14.3-.55-14.3.55" fill="#b8c7fe" fill-rule="evenodd" transform="translate(-357.3 -69.55)"/><path d="m427.95 144.7 1.8-3.65q2.5-5.25 3.55-10.7l.8-2.7.6-1.85.6-1.55q6.1 3.15 5.25 10.55-.7 5.75-.85 11.55-.05 4.3-.7 8.3l-.1.4-4.65-2.8q-4.05-2.35-8.05-4.35l1.75-3.2" fill="#696f99" fill-rule="evenodd" transform="translate(-357.3 -69.55)"/><path d="M429.3 192.6q-.85 2.2-3.3 4.6-.45.45-.85.4-4.75-.2-6.35 4.05-.4.9-.35 1.75.3 6.1-2.25 10.8l-1.15 1.45q-7.75 6.6-9.25 16.35l-.7 3.45q-3 11.95-2.05 25.1.45 6.4 2.75 12.35.8 2.1 1.05 4.65 2.5 23.9 7.6 47.2.4 1.8.4 3.6 0 4.65 1.35 8.9l.7 2.7q2.05 11 3.55 22.3l.45 3.5q.45 2.95-1.15 3.5l-7.1 1.4-5.05-.35q2.4-12.1 1.2-25.75-2.25-25.9-19-41.3l-.05-.05q-5.15-10.4-12.05-19.4-2.25-2.95-.75-2.65l2.1.55q3.4 4.45 7.7 8.75 3.85 2.7 5.65 2.1l.7-9.85-1.4-2.1.1-1.35q2.3-16.6-3.15-29.4 0-5.8-1.85-10.75l-1.1-2.55q-5.55-11.35-8.45-23.35l-.55-2.55q-.65-3.05-.75-6.3l1.1 2.65q5.75 12.95 16.75 15.2l.95-.35q1.15-1.45 2.55-2.45 1.6-9.45 1.85-19.25.2-7.8-.45-15.9l-.7-.7-8.15-8.4-1.2-6.55q-1.3-5.9-1.35-12.45-.1-7.2 3.2-14 23.6 20.1 15 48.8 7.95-3.75 13.65-10.3l.6 8.25v2.05l1.7-.3q2.65-1 5.1-2.3l1 3.65 1.75.6" fill="#060" fill-rule="evenodd" transform="translate(-357.3 -69.55)"/><path d="M407.6 370.3q-1.75-.6-3-1.8-.45-.5-.55-1l-.65-4.35-.25-1.85-.7-5.25q-.8-6-1.05-12.55-.45-11.8-4.75-21.45-.95-2.2-1.55-4.55-1.9-7.3-5.3-14.25 16.75 15.4 19 41.3 1.2 13.65-1.2 25.75m-28.55-88.6.6.15q3.15.8 5.1-1.05l2.25-2.2q1.55-1.65 1.55-3.8l.1-24.95q5.45 12.8 3.15 29.4l-.1 1.35 1.4 2.1-.7 9.85q-1.8.6-5.65-2.1-4.3-4.3-7.7-8.75m-3.1-77.35.1-4.45q.45 1.3 1.2 2.45Q379 205 380.3 208q2 4.75 6.45 7.05l2.75-6.25.45-1.8.55-10.1.15-3.2q.45-9.5-.8-18.55l8.15 8.4.7.7q.65 8.1.45 15.9-.25 9.8-1.85 19.25-1.4 1-2.55 2.45l-.95.35q-11-2.25-16.75-15.2l-1.1-2.65" fill="#00b300" fill-rule="evenodd" transform="translate(-357.3 -69.55)"/><path d="M493.6 132.9q-17.85 19.9-45 26.75l-.7-3.55 5.65-4.2q13.8-15.65 33.1-23.1l.65-.1 4.2.7q1.45.8 1.9 2.15l.2 1.35M466 198q-5.5-4.3-10.4-11.15-5-7-11.1 0-4.7 5.4-10.95 7.15l-.3-.1q.9-3.25 1.2-5.95 1.1-10.45-7.2-13.25l-.25-.05-1.9-.1q-1.7.4-3.2 2.55l-2.75 3.55q-5.7 6.55-13.65 10.3 8.6-28.7-15-48.8l-2.6-2.15-7.55-6.25q14.75 1.3 26.25 8 4.15-2.55 10.4-2.5l5.65.7 5.3 4.75-1.75 3.2q-4.55-2.35-9.1-4.2 4.55 1.85 9.1 4.2 4 2 8.05 4.35l4.65 2.8.1-.4 1.7 1.55 3.05 2.75 1.05.55q23.7 12.8 21.4 37.2l-.2 1.3m-34.5-9.15q-1.55 1.3-1.95 3l-.25.75-1.75-.6-1-3.65.3-.15q3.8-2.1 5.4.1l-.75.55m3.05-97.4q6.2 14.55.55 30.4-2.9 8.15-6.9 15.3l-9.85-4.95q.25-23.25 15.55-40l.65-.75m3.95 65.6.4-2 1.8 1.15-1.8-1.15-.4 2m8.05 4.45-1.75-2 1.75 2" fill="#838fcd" fill-rule="evenodd" transform="translate(-357.3 -69.55)"/><path d="m23.05 64.2-4.5-4.2Q3.8 45.6.45 27.3-.9 20.2 6.6 20.55q6.55.45 12.45 4.9Q34.6 37.15 43.25 55q-5.6-21.85-1.45-43.4 1.5-7.95 9.65-10.1Q72.6-4 84.25 14.45q23.8-4.05 21.9 23.2-.65 9.05-3.75 17.45 8.3-1 19.3-8 3.8-2.45 8.7-1.9 29.85 3.85 21.8 29.05-2.3 7.1-7.9 12.35-4.6 4.3-10.1 7.4 16.8 15.85 13.6 34.2-.5 2.75-3.7 4.1-20.05 8.1-35.4-3.85-5.5-4.3-10.4-11.15-5-7-11.1 0-4.7 5.4-10.95 7.15l-.35.1.05-.2q.9-3.25 1.2-5.95l-.9.15q-1.15.25-2.05.75-1.55 1.3-1.95 3l-.25.75q-.85 2.2-3.3 4.6-.45.45-.85.4-4.75-.2-6.35 4.05-.4.9-.35 1.75.3 6.1-2.25 10.8l-1.15 1.45q-7.75 6.6-9.25 16.35l-.7 3.45q-3 11.95-2.05 25.1.45 6.4 2.75 12.35.8 2.1 1.05 4.65 2.5 23.9 7.6 47.2.4 1.8.4 3.6 0 4.65 1.35 8.9l.7 2.7q2.05 11 3.55 22.3l.45 3.5q.45 2.95-1.15 3.5l-7.1 1.4-5.05-.35q-1.75-.6-3-1.8-.45-.5-.55-1l-.65-4.35-.25-1.85-.7-5.25q-.8-6-1.05-12.55-.45-11.8-4.75-21.45-.95-2.2-1.55-4.55-1.9-7.3-5.3-14.25l-.05-.05q-5.15-10.4-12.05-19.4-2.25-2.95-.75-2.65l2.1.55.6.15q3.15.8 5.1-1.05l2.25-2.2q1.55-1.65 1.55-3.8l.1-24.95q0-5.8-1.85-10.75L28.4 167q-5.55-11.35-8.45-23.35l-.55-2.55q-.65-3.05-.75-6.3l.1-4.45q.45 1.3 1.2 2.45 1.75 2.65 3.05 5.65 2 4.75 6.45 7.05l2.75-6.25.45-1.8.55-10.1.15-3.2q.45-9.5-.8-18.55l-1.2-6.55q-1.3-5.9-1.35-12.45-.1-7.2 3.2-14l-2.6-2.15-7.55-6.25m47.6 10.95 1.8-3.65q2.5-5.25 3.55-10.7l.8-2.7.6-1.85.6-1.55q6.1 3.15 5.25 10.55-.7 5.75-.85 11.55-.05 4.3-.7 8.3m1.7 1.55.3.2q2.1 1.35 3.8 3.1l1.75 2M68.9 78.35l1.75-3.2m-10.85-1q4.55 1.85 9.1 4.2 4 2 8.05 4.35l4.65 2.8.1-.4m1.7 1.55-1.8-1.15-.4 2m-4.05 30.9q1.1-10.45-7.2-13.25l-.25-.05-1.9-.1q-1.7.4-3.2 2.55l-2.75 3.55.6 8.25v2.05l1.7-.3q2.65-1 5.1-2.3l.3-.15q3.8-2.1 5.4.1l-.75.55m-12.35-8.2q-5.7 6.55-13.65 10.3 8.6-28.7-15-48.8m75.9 25.45-.95 1.3 11.75-4.8q-6.5-1.35-10.8 3.5M134.2 94l-14.3.55" fill="none" stroke="#000" stroke-linecap="round" stroke-linejoin="round" stroke-opacity=".6" stroke-width=".5"/></g></defs></svg>