<svg viewBox="0 0 187.75 179.96" xmlns="http://www.w3.org/2000/svg" xmlns:xlink="http://www.w3.org/1999/xlink"><use transform="translate(0 .01)" width="187.75" height="179.95" xlink:href="#a"/><defs><g id="a"><path d="m191.1 173.25-4.65 10.85q11-16.7 25.65-27.95 13.85-12.8 27.7-20.75-10.9 12.5-23.85 43.25 39.1-41.5 75.4-48.95 8.4-7.3 19.85-9.4-31.7 21.35-49.4 48.25-10.55 18.95-14 40.4-.4 8.25.7 14.8-5.4-13.5-10.8-13.2-9.4 13.35-21.35 16.15 3.55-8.55 8.95-15.4 2.6-9.7 39.55-56.7-40 33.1-55.1 63.7l-6.6 11.65q-18.55 7.8-28.35-10.9 12.5-21.95 0-21.75-12.55 11.65-27.45 16.35 19.25-25.45 43.75-40.4" fill="#f90" fill-rule="evenodd" transform="translate(-130.25 -118.8)"/><path d="M239.8 135.4q7.5-4.35 15-7.25 9.95-3.8 19.1-6.05 15.4-3.75 28.5-2.9-8.3 1.85-11.05 10.5-36.3 7.45-75.4 48.95 12.95-30.75 23.85-43.25m71.4-15.1q3.35.65 6.55 1.65-10.7 22.95-15.55 53.6-2.55 20.45-1.75 42.05l-6.05-14.85q-5.8 26.4-26.4 38.05-12.8-5.45-19.5-17.05-1.1-6.55-.7-14.8 3.45-21.45 14-40.4 17.7-26.9 49.4-48.25m-85.9 91q-6.1 5.2-10.8 11.05l-11.35 7.6 6.6-11.65q15.1-30.6 55.1-63.7-36.95 47-39.55 56.7" fill="#fc0" fill-rule="evenodd" transform="translate(-130.25 -118.8)"/><path d="m301.85 237.7.35 3.1q-1.2 14.75-9.35 22.55-25.6 9.3-51.1 3.95-17.45-3.5-31.25-18.75 1.75-12.05 5.85-21.85 11.95-2.8 21.35-16.15 5.4-.3 10.8 13.2 4.5 26.75 34.25 24.85l19.1-10.9m-106.5 5.95q-30.6-10.65-64.85 2.6 2.6-14.35 14-28.75l2.85-3.85q14.9-4.7 27.45-16.35 12.5-.2 0 21.75 9.8 18.7 28.35 10.9l-7.8 13.7" fill="#900" fill-rule="evenodd" transform="translate(-130.25 -118.8)"/><path d="M300.45 217.6q.35 9.9 1.4 20.1l-19.1 10.9q-29.75 1.9-34.25-24.85 6.7 11.6 19.5 17.05 20.6-11.65 26.4-38.05l6.05 14.85m-85.95 4.75q-8.7 10.85-12.5 23.9l-6.65-2.6 7.8-13.7 11.35-7.6" fill="#c30" fill-rule="evenodd" transform="translate(-130.25 -118.8)"/><path d="m14.25 98.7 2.85-3.85q19.25-25.45 43.75-40.4" fill="none" stroke="#000" stroke-linecap="round" stroke-linejoin="round" stroke-opacity=".459" stroke-width=".5"/><path d="M60.85 54.45 56.2 65.3q11-16.7 25.65-27.95 13.85-12.8 27.7-20.75 7.5-4.35 15-7.25 9.95-3.8 19.1-6.05 15.4-3.75 28.5-2.9-8.3 1.85-11.05 10.5 8.4-7.3 19.85-9.4 3.35.65 6.55 1.65-10.7 22.95-15.55 53.6-2.55 20.45-1.75 42.05.35 9.9 1.4 20.1l.35 3.1q-1.2 14.75-9.35 22.55-25.6 9.3-51.1 3.95-17.45-3.5-31.25-18.75Q82 117.7 86.1 107.9q3.55-8.55 8.95-15.4-6.1 5.2-10.8 11.05-8.7 10.85-12.5 23.9l-6.65-2.6Q34.5 114.2.25 127.45q2.6-14.35 14-28.75z" fill="none" stroke="#000" stroke-linecap="round" stroke-linejoin="round" stroke-opacity=".459" stroke-width=".5"/><path d="m276.35 275-3.05 23.75-12.5-20.4-23.55 4.45 15.5-18.2-11.45-20.95 22.1 9.1 16.4-17.4-1.8 23.8 21.6 10.2-23.25 5.65M282.7 162.3l-10.65 14.05-.45-17.6-16.65-5.8 16.6-5.95.4-17.55 10.7 13.95 16.85-5.1-9.9 14.5 10 14.45-16.9-4.95M192.45 207.2l-17.35 22.75-.7-28.55-27.05-9.5 26.9-9.55.65-28.5 17.4 22.65 27.4-8.25-16.1 23.55 16.25 23.45-27.4-8.05" fill="#fff" fill-opacity=".51" fill-rule="evenodd" transform="translate(-130.25 -118.8)"/></g></defs></svg>