<svg viewBox="0 0 104.88 67.644" xmlns="http://www.w3.org/2000/svg" xmlns:xlink="http://www.w3.org/1999/xlink"><use transform="matrix(1.072 -1.1612 1.2193 1.0598 -13.19 55.73)" width="69.05" height="41.75" xlink:href="#a"/><defs><radialGradient id="b" cx="0" cy="0" r="819.2" gradientTransform="matrix(-.0256 -.0757 -.0672 .0158 -26.55 -47.05)" gradientUnits="userSpaceOnUse"><stop stop-color="#c95203" offset="0"/><stop stop-color="#f8d85c" offset=".988"/></radialGradient><radialGradient id="c" cx="0" cy="0" r="819.2" gradientTransform="matrix(-.0302 -.0893 -.0793 .0186 7.9 24.8)" gradientUnits="userSpaceOnUse"><stop stop-color="#c95203" offset="0"/><stop stop-color="#f8d85c" offset=".988"/></radialGradient><radialGradient id="e" cx="0" cy="0" r="819.2" gradientTransform="matrix(.0241 .001 -.0023 .0271 -17.75 -24.45)" gradientUnits="userSpaceOnUse"><stop stop-color="#e9d527" offset=".031"/><stop stop-color="#fff" offset=".271"/><stop stop-color="#e9d527" offset=".612"/><stop stop-color="#d86a36" offset=".976"/></radialGradient><radialGradient id="f" cx="0" cy="0" r="819.2" gradientTransform="matrix(.0585 .0231 -.0296 .0479 15.95 -39.9)" gradientUnits="userSpaceOnUse"><stop stop-color="#e9d527" offset=".031"/><stop stop-color="#e9d527" offset=".612"/><stop stop-color="#d86a36" offset=".976"/></radialGradient><linearGradient id="d" x1="-819.2" x2="819.2" gradientTransform="matrix(-.036 -.0085 -.0012 .0203 -18.4 -14.6)" gradientUnits="userSpaceOnUse"><stop stop-color="#813a26" offset="0"/><stop stop-color="#d66038" offset="1"/></linearGradient><linearGradient id="g" x1="-819.2" x2="819.2" gradientTransform="matrix(-.0355 -.0161 -.0019 .0072 -19.65 -4.35)" gradientUnits="userSpaceOnUse"><stop stop-color="#55251a" offset="0"/><stop stop-color="#b74326" offset="1"/></linearGradient><g id="a"><path d="M-19.5-23.8h.05v.1l-.05-.1" fill="#491d37" fill-rule="evenodd" transform="translate(53.95 31.6)"/><path d="M-19.45-23.8q8.55-.75 21.65 7.7 2.65 1.7 5.25 4.5l4.8 5.3.6-.55Q15.6-.7 14 3.5l-.2.4q-1.35 2.9-4.05 4.35L11 6.7q.7-1.65.7-3.55-.05-3.5-2.5-8-4.3-7.95-13.1-13.3-8.85-5.4-15.55-5.55v-.1" fill="url(#b)" fill-rule="evenodd" transform="translate(53.95 31.6)"/><path d="M-52.6-21q11.65-.3 22.1 6.45 3.35 2.15 9.4 7.9Q-15.15-1-9.05 2.95q11.3 7.3 20.75.2 0 1.9-.7 3.55L9.75 8.25q-3 1.6-7.8 1.4Q-6.4 9.25-14.5 4q-1.55-1-8.45-7.4Q-30-9.9-33.4-12.1q-8.1-5.25-19.25-8.25l.05-.65" fill="url(#c)" fill-rule="evenodd" transform="translate(53.95 31.6)"/><path d="m12.85-6.85-.6.55-4.8-5.3q-2.6-2.8-5.25-4.5-13.1-8.45-21.65-7.7h-.05l-.5.1h.55q6.7.15 15.55 5.55Q4.9-12.8 9.2-4.85q2.45 4.5 2.5 8-9.45 7.1-20.75-.2-6.1-3.95-12.05-9.6-6.05-5.75-9.4-7.9Q-40.95-21.3-52.6-21q12.7-6.95 24.15-9.2 11.75-2.4 19.95 1.7 8.15 4.05 10.35 6.45 3.8 3.35 7.9 9.65 1.95 2.95 3.1 5.55m-36-18.2q-2.3-1.25-5.7-1.4t-5.9.9q-2.5 1.1-2.65 2.75t2.15 2.95q2.3 1.25 5.7 1.4t5.9-.9q2.5-1.1 2.65-2.75t-2.15-2.95" fill="url(#d)" fill-rule="evenodd" transform="translate(53.95 31.6)"/><path d="M-23.15-25.05q2.3 1.3 2.15 2.95t-2.65 2.75q-2.5 1.05-5.9.9t-5.7-1.4q-2.3-1.3-2.15-2.95t2.65-2.75q2.5-1.05 5.9-.9t5.7 1.4m-2.5 3q1.35-.55 1.3-1.25t-1.4-1.15l-3.35-.3-3.3.65q-1.35.55-1.3 1.25t1.45 1.15l3.35.3q1.9-.1 3.25-.65" fill="url(#e)" fill-rule="evenodd" transform="translate(53.95 31.6)"/><path d="M-25.65-22.05q-1.35.55-3.25.65l-3.35-.3q-1.4-.45-1.45-1.15t1.3-1.25l3.3-.65 3.35.3q1.35.45 1.4 1.15t-1.3 1.25" fill="url(#f)" fill-rule="evenodd" transform="translate(53.95 31.6)"/><path d="m-52.65-20.35-.8-.2.85-.45-.05.65" fill="url(#g)" fill-rule="evenodd" transform="translate(53.95 31.6)"/><path d="M12.85-6.85q-1.15-2.6-3.1-5.55-4.1-6.3-7.9-9.65m7.9 30.3q2.7-1.45 4.05-4.35l.2-.4q1.6-4.2-1.15-10.35m-65.5-13.5q11.15 3 19.25 8.25 3.4 2.2 10.45 8.7Q-16.05 3-14.5 4q8.1 5.25 16.45 5.65 4.8.2 7.8-1.4m-63.2-28.8.8.2M1.85-22.05q-2.2-2.4-10.35-6.45-8.2-4.1-19.95-1.7Q-39.9-27.95-52.6-21l-.85.45" fill="none" stroke="#000" stroke-linecap="round" stroke-linejoin="round" stroke-opacity=".302" transform="translate(53.95 31.6)"/><path d="M30.8 6.55q2.3 1.3 2.15 2.95t-2.65 2.75q-2.5 1.05-5.9.9t-5.7-1.4q-2.3-1.3-2.15-2.95t2.65-2.75q2.5-1.05 5.9-.9t5.7 1.4m-2.5 3q-1.35.55-3.25.65l-3.35-.3q-1.4-.45-1.45-1.15t1.3-1.25l3.3-.65 3.35.3q1.35.45 1.4 1.15t-1.3 1.25" fill="none" stroke="#000" stroke-linecap="round" stroke-linejoin="round" stroke-opacity=".302" stroke-width="1.5"/></g></defs></svg>