<svg viewBox="0 0 215.33 220.08" xmlns="http://www.w3.org/2000/svg" xmlns:xlink="http://www.w3.org/1999/xlink"><use transform="translate(.01 .002)" width="215.3" height="220.05" xlink:href="#a"/><defs><g id="a"><path d="m236.35 128.45-6.95-6q-15.3-1.2-30.5 1.75-20.45 3.65-37.25 12.75-2.8 7.85 0 16.5 1.85 6.05 1.6 12.7-.6 14.65.6 26.3l10.4-8.5q.35-1 1.1-1.9 32.75-52 97.15-54.25l-36.15.65m20.3 18.05-1 .65 1-.65M127.5 232.75l-6.25-12.95q-3.95-4.75.15-31.3l.65-4.55 35.05-66.05q34.1-17.6 68.1-24.2 45.55-8.5 92.1 2.65 18.85 16.2 17.15 39l-10.55 25.3q-.65 24.2-3.15 43.75l-.6 1.55q-56.95 51.55-126.6 65.4l-4.85-9.75 1.4-5.65-3.45-5.2-2.05-.8q-22.95-4.1-39.3-13.5 27.2-38.6 110.35-89.3-65.45 30.45-128.15 85.6m7.8 16.2-.05-.1.15-.1.1.6-.2-.4.1-.2-.1.2" fill="#fcd258" fill-rule="evenodd" transform="translate(-119.3 -90)"/><path d="m236.35 128.45 36.15-.65q-64.4 2.25-97.15 54.25-.75.9-1.1 1.9l-10.4 8.5q-1.2-11.65-.6-26.3.25-6.65-1.6-12.7-2.8-8.65 0-16.5 16.8-9.1 37.25-12.75 15.2-2.95 30.5-1.75l6.95 6" fill="#feeaaf" fill-rule="evenodd" transform="translate(-119.3 -90)"/><path d="m320.15 205.95.3.15q-6.3 43.85-24.2 77.5l-.8 2.85-94.15 23.6-.2-.8q-11.8-6.8-21.2-13.7-3.15-2.5-4.55-7.85l-1.45-5.65q-2.2-13.55-3.9-16.2-2.4-5.2-16.5-8.8l-9.3-2.2-9.1-5.05.2-.85.2.4-.1-.6-.15.1-7.75-16.1q62.7-55.15 128.15-85.6-83.15 50.7-110.35 89.3 16.35 9.4 39.3 13.5l2.05.8 3.45 5.2-1.4 5.65 4.85 9.75q69.65-13.85 126.6-65.4" fill="#ebb81f" fill-rule="evenodd" transform="translate(-119.3 -90)"/><path d="m136.35 57.15 1-.65M8.2 142.75 1.95 129.8q-3.95-4.75.15-31.3l.65-4.55L37.8 27.9q34.1-17.6 68.1-24.2 45.55-8.5 92.1 2.65 18.85 16.2 17.15 39l-10.55 25.3q-.65 24.2-3.15 43.75m-.3 1.7q-6.3 43.85-24.2 77.5l-.8 2.85L82 220.05m-.2-.8q-11.8-6.8-21.2-13.7-3.15-2.5-4.55-7.85l-1.45-5.65q-2.2-13.55-3.9-16.2-2.4-5.2-16.5-8.8l-9.3-2.2m-9.1-5.05.2-.85-.05-.1-7.75-16.1m128.15-85.6Q53.2 107.85 26 146.45m-9.8 12.9-.2-.4.1-.2" fill="none" stroke="#52371d" stroke-linecap="round" stroke-linejoin="round" stroke-opacity=".502" stroke-width=".05"/></g></defs></svg>