<svg viewBox="0 0 113.1 115.25" xmlns="http://www.w3.org/2000/svg" xmlns:xlink="http://www.w3.org/1999/xlink"><use transform="translate(-7.2 -7.7)" width="120.3" height="122.95" xlink:href="#a"/><defs><linearGradient id="h" x1="-819.2" x2="819.2" gradientTransform="matrix(.0375 -.01 .0139 .0518 53.4 75.15)" gradientUnits="userSpaceOnUse"><stop stop-color="#59be3a" stop-opacity=".702" offset=".067"/><stop stop-color="#baf57c" stop-opacity=".702" offset=".514"/><stop stop-color="#d2f4d6" stop-opacity=".651" offset="1"/></linearGradient><linearGradient id="j" x1="-819.2" x2="819.2" gradientTransform="matrix(-.0009 -.0028 .0016 -.0005 -5.75 -2.9)" gradientUnits="userSpaceOnUse"><stop stop-color="#90b1f5" offset=".067"/><stop stop-color="#dce9fc" offset="1"/></linearGradient><linearGradient id="k" x1="-819.2" x2="819.2" gradientTransform="matrix(-.0005 -.0024 .0011 -.0002 4.8 -5.25)" gradientUnits="userSpaceOnUse"><stop stop-color="#90b1f5" offset=".067"/><stop stop-color="#dce9fc" offset="1"/></linearGradient><linearGradient id="l" x1="-819.2" x2="819.2" gradientTransform="matrix(.0001 -.003 .0023 .0001 5.3 -4.15)" gradientUnits="userSpaceOnUse"><stop stop-color="#90b1f5" offset=".067"/><stop stop-color="#dce9fc" offset="1"/></linearGradient><linearGradient id="m" x1="-819.2" x2="819.2" gradientTransform="matrix(-.0002 -.0031 .0049 -.0003 .25 -1.7)" gradientUnits="userSpaceOnUse"><stop stop-color="#90b1f5" offset=".067"/><stop stop-color="#dce9fc" offset="1"/></linearGradient><g id="a" transform="translate(0 .05)"><use transform="translate(22.05 70.1)" width="98.25" height="52.8" xlink:href="#b"/><use transform="translate(29.55 48.95) scale(.5839)" width="43.5" height="39" xlink:href="#c"/><use transform="matrix(0 .28 -.4097 0 62.25 61.35)" width="43.5" height="39" xlink:href="#c"/><use transform="translate(7.15 32.8)" width="92.8" height="58.7" xlink:href="#d"/><use transform="matrix(3.3377 -.8944 1.0724 4.002 -.025 19.683)" width="22.05" height="13" xlink:href="#e"/><use transform="matrix(-1.2536 -.548 -.548 1.2536 92.592 49.963)" width="13.65" height="15.65" xlink:href="#f"/><use transform="matrix(1.3101 -.396 .463 1.2898 1.981 63.82)" width="13.65" height="15.65" xlink:href="#f"/><use transform="matrix(1.4084 0 -.0221 1.4084 77.681 55.78)" width="13.65" height="15.65" xlink:href="#f"/></g><g id="g" fill-opacity=".482" fill-rule="evenodd"><path d="M36.65 22.65q.55 2 2.6 2 2.8 0 2.8-4.7 0-4.55-2.75-4.05-2.8.5-2.8 4.75l.15 2M37.7 10.5q0-3.6-5.55-6.25-5.55-2.7-5.55 1.7 0 .35 3.95 3.85 3.9 3.5 4.35 3.5 1.45 0 2.2-.95.6-.8.6-1.85m-.6-4.8q6.4 5.7 6.4 13.8t-6.4 13.8Q30.75 39 21.75 39t-15.4-5.7Q0 27.6 0 19.5T6.35 5.7Q12.75 0 21.75 0T37.1 5.7" fill="#77ce6c"/><path d="M37.7 10.5q0 1.05-.6 1.85-.75.95-2.2.95-.45 0-4.35-3.5-3.95-3.5-3.95-3.85 0-4.4 5.55-1.7Q37.7 6.9 37.7 10.5m-1.05 12.15-.15-2q0-4.25 2.8-4.75 2.75-.5 2.75 4.05 0 4.7-2.8 4.7-2.05 0-2.6-2" fill="#bfe7ba"/></g><g id="d"><path d="M82.75 61.05q9.25 8.8 17.1 13.4-9.8 20.35-24.85 4.8-1.25-1.3-2.2-2.8l-2.55-1.7q-2.7-.8-5.4-.1l-1.7.45-1.4.3-2.7 3.75-.05 2.7v1.1l-.1 1.6-.15 1.05-.65 1.9q-5.1 3.3-11 3.9-3.55.05-7.1-1.2l-5.55-2.3q-4.4-2.1-8.25-2.4-1.4-1.2.25-3.15l1.15-1.1 1.5-.95 3.2-1.5 2.7-1.55 1.35-1.55.95-1.75-1-1.5-.75-.75-1.35-.7-.9-.4q-2.8.65-5.2 2.15-1.35.9-2.4 2.3l-2 2.45q-2.9 3.4-7.2 5.6-4.6 2.35-9.2.65l.05-2.2.4-1.4 5.4-2.7.95-.55.85-.65.55-.4.3-.35q-2.05-.95-4.35-1.4 12.15-11.8 14-18.55 6.75-30.6 28.95-19.9 19.15 10.8 28.35 25.4l2.2 3.6-2.2-3.6" fill="url(#h)" fill-rule="evenodd" transform="translate(-7.15 -32.8)"/><path d="M75.6 28.25q9.25 8.8 17.1 13.4-9.8 20.35-24.85 4.8-1.25-1.3-2.2-2.8l-2.55-1.7q-2.7-.8-5.4-.1l-1.7.45-1.4.3-2.7 3.75-.05 2.7v1.1l-.1 1.6-.15 1.05-.65 1.9q-5.1 3.3-11 3.9-3.55.05-7.1-1.2l-5.55-2.3q-4.4-2.1-8.25-2.4-1.4-1.2.25-3.15l1.15-1.1 1.5-.95 3.2-1.5 2.7-1.55 1.35-1.55.95-1.75-1-1.5-.75-.75-1.35-.7-.9-.4q-2.8.65-5.2 2.15-1.35.9-2.4 2.3l-2 2.45q-2.9 3.4-7.2 5.6-4.6 2.35-9.2.65l.05-2.2.4-1.4 5.4-2.7.95-.55.85-.65.55-.4.3-.35q-2.05-.95-4.35-1.4 12.15-11.8 14-18.55 6.75-30.6 28.95-19.9 19.15 10.8 28.35 25.4l2.2 3.6" fill="none" stroke="#000" stroke-linecap="round" stroke-linejoin="round" stroke-opacity=".31" stroke-width=".2"/><path d="m29.55 67.75 4.2-9.2 30.7-6.85q6.15 6.35 5 13.7-8.05-4.5-21.45-.1-6.3 1.6-10.35 8.25-2.3-4.1-8.1-5.8" fill-opacity=".2" fill-rule="evenodd" transform="translate(-7.15 -32.8)"/></g><g id="i"><path d="m-3.85.5-2.7-.05q-1.5-.25-4.3-3.35l4-1.65q.55 2.75 3 5.05m11.7-.85L5.2.15q2.6-2.9 1.3-5.2l4.7 1Q9.35-.95 7.85-.35M-3.35-6.4q-.35-1.75 2.9-4l3.8 3.25q-3.45-.2-6.5 1.3l-.2-.55" fill="#b3946d" fill-rule="evenodd" transform="translate(10.85 11.2)"/><path d="M1.3-4.5Q-5.5-.65-6.45-3q.75-4.65 2.85-7.8Q-2.1-7 1.3-4.5" fill="#6875a1" fill-rule="evenodd" transform="translate(10.85 11.2)"/><path d="M4.4 8.2Q5.15 3.55 7.25.4q1.5 3.8 4.9 6.3" fill="none" stroke="#51597d" stroke-linecap="round" stroke-linejoin="round" stroke-width=".05"/><path d="M-3.35.85Q-5.7.4-6.7-1.55q-.75-4.25.7-6.6.35 5.4 2.65 9" fill="url(#j)" fill-rule="evenodd" transform="translate(10.85 11.2)"/><path d="M-6-8.15q1.6 4.85 5 9.1l-2.35-.1q-2.3-3.6-2.65-9" fill="#6875a1" fill-rule="evenodd" transform="translate(10.85 11.2)"/><path d="M2.55-11.2h.05-.05" fill="#fff1d1" fill-rule="evenodd" transform="translate(10.85 11.2)"/><path d="M4.6-2.4q.85-3.7-2.05-8.8h.05q3.15 3.55 3.45 7.95-.6 1-1.45.85" fill="url(#k)" fill-rule="evenodd" transform="translate(10.85 11.2)"/><path d="M4.6-2.4q-2.85.35-6.95-1.35 4-2.85 4.9-7.45 2.9 5.1 2.05 8.8" fill="#6875a1" fill-rule="evenodd" transform="translate(10.85 11.2)"/><path d="M3.3.05q2-2.5 2.65-8.85 1.6 2.65 1.1 6.95Q6.05.2 3.3.05" fill="url(#l)" fill-rule="evenodd" transform="translate(10.85 11.2)"/><path d="m3.3.05-1.9-.3q3.2-3.8 4.55-8.55Q5.3-2.45 3.3.05" fill="#6875a1" fill-rule="evenodd" transform="translate(10.85 11.2)"/><path d="M4.1-3.1q-.9 1.55-2.7 2-1.8.4-3.45-.5-1.6-.9-2.15-2.6-.5-1.75.4-3.3.95-1.55 2.75-1.95 1.8-.45 3.4.45Q4-8.05 4.5-6.3q.55 1.7-.4 3.2" fill="#6c0" fill-rule="evenodd" transform="translate(10.85 11.2)"/><path d="M2.15-7.6q.1.45-.3.55L.7-7.25l-.95-.7-.55-.9.45-.45 1.05.1 1.1.75q.45.45.35.85" fill="#fff8df" fill-rule="evenodd" transform="translate(10.85 11.2)"/><path d="M4.4.25q-2.2 1.1-4.75 1.1L-3.6.9Q-3-2.45 0-6.05 3.1-4.4 4.4.25" fill="url(#m)" fill-rule="evenodd" transform="translate(10.85 11.2)"/><path d="m-6.45 0 1.1-1.55q1.6 1.65 4.5 3.3Q-2.1 2.1-6.45 0M5.5-1.75 6.75-.2Q2.6 1.9 1.35 1.55 4.1-.1 5.5-1.75" fill="#a18562" fill-rule="evenodd" transform="translate(10.85 11.2)"/></g><g id="n"><path d="m-.15-6.85.2-.3q4.45 5.6 6.05 9.2.8 1.9.45 2.4-4.1 1.8-8.15 1.3l1.45-12.6" fill="#afaa89" fill-rule="evenodd" transform="translate(6.8 7.15)"/><path d="M-1.6 5.75q-2.65-.3-5.05-1.2l.6-1.6Q-4.4-.9-.15-6.85L-1.6 5.75" fill="#8a7241" fill-rule="evenodd" transform="translate(6.8 7.15)"/><path d="m-1.9 8.45.3-2.7q4.05.5 8.15-1.3L6.85 6Q4.9 8.15 2.25 8.35l-4.15.1" fill="#afaa89" fill-opacity=".514" fill-rule="evenodd" transform="translate(6.8 7.15)"/><path d="M-1.9 8.45q-3.25-1.3-4.9-3.5l.15-.4q2.4.9 5.05 1.2l-.3 2.7" fill="#8a7241" fill-opacity=".573" fill-rule="evenodd" transform="translate(6.8 7.15)"/><path d="M6.85 0q4.45 5.6 6.05 9.2.8 1.9.45 2.4l.3 1.55" fill="none" stroke="#b2b2b2" stroke-linecap="round" stroke-linejoin="round" stroke-width=".05"/></g><use width="43.5" height="39" xlink:href="#g" id="c"/><use width="22.05" height="13" xlink:href="#i" id="e"/><use width="13.65" height="15.65" xlink:href="#n" id="f"/><path d="M119.4 107.75q-1.15 1.85-3.3 1.85-2.55 0-8.15-1.6l-12.85-3.75q.95 2.1.95 3.65 0 2.25-1.3 3.55-1.6 1.55-4.85 1.55-3.3 0-18.7-7.2-14.35-6.75-22.3-11.55-10.55-6.4-22.8-11.55-2.7-1.1-3.35-2.05-.7-1-.7-3.85 0-2.4 1.95-3.6 2.2-1.4 7.25-1.4l4.25.5 4.25.45 1.45-1.3q.95-1.35 3.25-1.35 1.45 0 28.6 8.65 11.65 3.8 19.55 7.1 12.5 5.2 20.7 10.9 4.35 2.85 5.85 4.75 1.15 1.45 1.15 3.35 0 1.5-.9 2.9m-73.45-25.3q-.3-.25-1.4-.55l-.8-.15 1.15.65 1.4.7-.35-.65m13.6 28.25q-1.1 1.3-2.95 1.3-4.5 0-9.3-2.5-4.5-2.35-4.5-4 0-1.9 1.25-3.15Q45.4 101 47.6 101q6.1 0 10.1 3.25 2.85 2.35 2.85 3.75 0 1.55-1 2.7m50.25 10.9q-1.4 1.3-3.45 1.3-2.7 0-4.9-1.9-2.1-1.8-2.1-3.85 0-2.5 1.85-3.5 1.6-.85 4.05-.35 2.35.5 4 2 1.85 1.6 1.85 3.6 0 1.5-1.3 2.7" fill="#bfef8f" fill-rule="evenodd" transform="translate(-22.05 -70.1)" id="b"/></defs></svg>