<svg viewBox="0 0 58.85 38.35" xmlns="http://www.w3.org/2000/svg" xmlns:xlink="http://www.w3.org/1999/xlink"><use transform="translate(.02 .02)" width="58.8" height="38.3" xlink:href="#a"/><defs><linearGradient id="b" x1="-819.2" x2="819.2" gradientTransform="matrix(.022 -.0063 .0053 .0184 -9 -.25)" gradientUnits="userSpaceOnUse"><stop stop-color="#6d4641" offset="0"/><stop stop-color="#8479ce" offset=".369"/><stop stop-color="#d7d5ec" offset=".914"/></linearGradient><linearGradient id="c" x1="-819.2" x2="819.2" gradientTransform="matrix(.0174 -.0046 .0049 .0185 -10.9 .05)" gradientUnits="userSpaceOnUse"><stop stop-color="#3e465b" offset="0"/><stop stop-color="#bad678" offset="1"/></linearGradient><g id="a"><path d="m16.65-12.8 3.5.6 2.55 1.4.05.35-1.55.15 2.6.7h1.3l1.7.65.2.65L23.7-6l3.5-1.8 1.35.1.85 1.25-.45.45-2.75.65.8.6-4.4 3.6-.65.4-8.05 3.5.2.85-5.4 2.75L6.95 7l-.1 1.35-.35 3.25h-.15L6.2 8.8l-.35 2.3-.25-.25-.15-3.35-.35 2.85-.3-.25.1-3.6L4 9.3l-.45-.4 1.3-4.2L2.6 8.15-3.65 9.3h-.05l-.95-.8-8.45.4.1.2-.4 2-.25-.25-4.65 1.3-6.95-.4-2.05-2.05-.95-7.1.15-3 .15-.9 5.4-5.7 8.6-6.35.65-.45 6.2-3.3.05-.05 8.65-.4 7.2 2.1 3.05 1.7-.4.5 1.1-.05 4.1.5m2.5 3.2-.55-1.15q-.55-.5-1.3-.5-.8 0-1.35.5-.55.45-.5 1.15-.05.7.5 1.2t1.35.5q.75 0 1.3-.5l.55-1.2m2.05-.7-.5-.1.5.1m-4.6 9-.55-.6.55.6M9.45-13.15 5-11.75l-2.35 4.6L4-2l7 3.95L6.25-1.8 4.4-6.75l1.75-4.75 3.3-1.65m6.6 11.25-2.4-2.75-1.35-3.1.2-1.95-1.2 2 1.25 3.9 3.5 1.9M5.05 4l-.2.7.2-.7m6.45-1.8-.5-.25.5.25M7.05 6.05l-.1.95.1-.95" fill="url(#b)" fill-rule="evenodd" transform="translate(29.4 19.15)"/><path d="m19.15-9.6-.55 1.2q-.55.5-1.3.5-.8 0-1.35-.5t-.5-1.2q-.05-.7.5-1.15.55-.5 1.35-.5.75 0 1.3.5l.55 1.15m-1.9-.35-.2.1q-.25.1-.2.35.05.35.45.35l.3-.3-.35-.5" fill="#fff" fill-rule="evenodd" transform="translate(29.4 19.15)"/><path d="m-10.9 12.45-.45.45-2.35.15.65.55-2.8-.15-.9.3 3.05 1.4-4.95-.7 3.55 2.4-4.35-1.25 2.5 2.4-5.05-2.15.85-2.35-5.15-.8-.35-.5-1.9-2.8.3-6.8.95 7.1 2.05 2.05 6.95.4 4.65-1.3.25.25.4-2 .65 1.95.05.1v.05l1.2 1.1.1.1.1.05m28.15-22.4.35.5-.3.3q-.4 0-.45-.35-.05-.25.2-.35l.2-.1m-38.4 23.45 3.45.55.95-.3-.95.3-3.45-.55m5.3-.05 3.25-1 1.5-.15-1.5.15-3.25 1" fill="#383243" fill-rule="evenodd" transform="translate(29.4 19.15)"/><path d="m22.7-10.8 1.65.95.75.25h-1.3l-2.6-.7 1.55-.15-.05-.35M27-8.3l.2.5L23.7-6 27-8.3M28.95-6 27.6-4.75l-5 3.6 4.4-3.6-.8-.6L28.95-6m-7 5.25-7.75 5 .8.65v.95l-1.35-.55 1 1.35-.25.35-1.9-.85 1.3 1.8-.45.7L11.3 6.8l1.25 3.5-.45 1.1-1-.75-.65-3.95-1.3.85-2.1.7-.2.1.1-1.35 1.75-.65 5.4-2.75-.2-.85 8.05-3.5M4 9.35l-5.45 1.85-4.3.55-4 1.8-.2-.15.25-.35L-7 11.4l-3.9 1.1v-.05l-.1-.05 4-1.85-5.3.6-.05-.1 4.25-1.4-4.6.35-.3-.9-.1-.2 8.45-.4.95.8h.05L2.6 8.15 4.85 4.7l-1.3 4.2.45.4v.05m-26 6.5-.9 2.4-1.2.9-1.45-.6 2.1-2.6-2.8 2.2-.15-1.95 2.65-1.65-2.65 1.15-.1-1.5 2.65-.8-2.7.1-.1-1.3.35.5 5.15.8-.85 2.35M-28.1-.4l-1.3-1.85.05-.1L-26.6-4l-2.55.85.3-1.25 3.4-1.25-3.2.5v-.05l1.2-1.1 4.3-1.3-3.25.3.85-.75 4.1-.85-2.85-.25 4.7-3.4 3.6-.15-2.45-.6 1.15-.8 3.35.75-8.6 6.35-5.4 5.7-.15.9m14.8-13.4-2.75-1.65h3.6l-4.55-1.5.35-1 5 1.45-4.4-2.6 4.1.95 2.3 1.5-1.6-1.85v-.55l4.15 1.9v.05l-6.2 3.3m6.25-3.35L1.8-18.2 9.75-16l2.95 2.3 3.95.9-4.1-.5-1.1.05.4-.5-3.05-1.7-7.2-2.1-8.65.4M11 1.95 4-2 2.65-7.15 5-11.75l4.45-1.4-3.3 1.65L4.4-6.75 6.25-1.8 11 1.95M12.5-9.7l-.2 1.95 1.35 3.1 2.4 2.75-3.5-1.9-1.25-3.9 1.2-2M-5.75 11.75-4.1 11l.95-1.25-.5-.45.5.45L-4.1 11l-1.65.75m16.2-5.05 3.75-2.45-3.75 2.45" fill="#7a6392" fill-rule="evenodd" transform="translate(29.4 19.15)"/><path d="m-9.95 13.4-.95-.9 3.9-1.1-2.7 1.65-.25.35m-15.6 5.15-.7-.3v-.1l2.8-2.2-2.1 2.6m-.85-2.35v-.5l2.65-1.15-2.65 1.65m-.1-2-.05-.7 2.7-.1-2.65.8m-2.85-16.55.2-.8L-26.6-4l-2.75 1.65m.5-2.05.2-.75 3.2-.5-3.4 1.25m1.4-1.9 1.05-1 3.25-.3-4.3 1.3m1.9-1.75L-24.5-9l.2-.15 2.85.25-4.1.85m5.95-4.5 1.15-.75 2.45.6-3.6.15m3.55-2.9-1.25-.75.3-.75 4.55 1.5h-3.6m-.6-2.5.5-1.2.1.05 4.4 2.6-5-1.45m4.7-.2.7.2v-.55l1.6 1.85-2.3-1.5m.85 30.45-1.2-1.1v-.05l5.3-.6-4 1.85-.1-.1m-1.25-1.25L-12.7 10l4.6-.35-4.25 1.4" fill="#bfbbe3" fill-rule="evenodd" transform="translate(29.4 19.15)"/><path d="M6.5 11.6v.15l-.15-.15h.15M4.05 9.3 4 9.35V9.3h.05" fill="url(#c)" fill-rule="evenodd" transform="translate(29.4 19.15)"/><path d="m-7.05-17.15-.05.05v-.05h.05" fill="#6a7965" fill-rule="evenodd" transform="translate(29.4 19.15)"/><path d="m-11.35 12.9.45.3-.75 2.1-2.3 2.55-2.45.4-.55-.25-2.5-2.4 4.35 1.25-3.55-2.4 4.95.7-3.05-1.4.9-.3 2.8.15-.65-.55 2.35-.15" fill="#755875" fill-rule="evenodd" transform="translate(29.4 19.15)"/><path d="M-12.3 11.2v-.05.05" fill="#a0b871" fill-rule="evenodd" transform="translate(29.4 19.15)"/><path d="M15 5.85v.25l-.35.55-1-1.35 1.35.55M14.4 7l-.6.95-1.3-1.8 1.9.85m-1.05 1.65L13 9.2l-.45 1.1-1.25-3.5 2.05 1.85" fill="#d7d5ec" fill-rule="evenodd" transform="translate(29.4 19.15)"/><path d="m6.35 11.6-.5-.5.35-2.3.15 2.8m-.75-.75-.5-.5.35-2.85.15 3.35m-.8-.75-.75-.8H4l.9-2.8-.1 3.6" fill="#eaeaf4" fill-rule="evenodd" transform="translate(29.4 19.15)"/><path d="m46.05 6.35 3.5.6 2.55 1.4 1.65.95.75.25 1.7.65.2.65.2.5 1.35.1.85 1.25-.45.45L57 14.4 52 18l-.65.4-7.75 5 .8.65v1.2l-.35.55-.25.35-.6.95-.45.7-.35.55-.9 2.2-1-.75-.65-3.95-1.3.85-2.1.7-.2.1-.35 3.25v.15l-1.4-1.4-.3-.25-.75-.8-.05.05-5.45 1.85-4.3.55-4 1.8-.2-.15-.95-.9v-.05l-.45.45.45.3-.75 2.1-2.3 2.55-2.45.4-.55-.25L7.4 35l-.9 2.4-1.2.9-1.45-.6-.7-.3v-.1L3 35.35v-.5l-.1-1.5-.05-.7-.1-1.3-1.9-2.8.3-6.8.15-3L0 16.9l.05-.1.2-.8.3-1.25.2-.75v-.05l1.2-1.1 1.05-1 .85-.75 1.05-.95.2-.15 4.7-3.4 1.15-.75 1.15-.8 3.35.75.65-.45-4-2.4.3-.75.35-1 .5-1.2.1.05 4.1.95.7.2V.1L22.3 2h.05L31.2.95l7.95 2.2 2.95 2.3 3.95.9M22.35 2l-.05.05-6.2 3.3m34.5 3.5 2.6.7h1.3m-4.4-.8.5.1m2.5 4.3 3.5-1.8m-11.15 5.9.55.6m-5.6 3.25-4.75-3.75-1.85-4.95 1.75-4.75L38.85 6m6.6 11.25-2.4-2.75-1.35-3.1.2-1.95M22.35 2h-.05m-6.85 3.8-8.6 6.35-5.4 5.7-.15.9M7.4 35l.85-2.35-5.15-.8-.35-.5m10.8 1.25-.9.3-.95.3-3.45-.55m8.15-4.4-.1-.2 8.45-.4.95.8m8.55-4.6.2-.7m-16.15 8.3-1.2-1.1v-.05l-.05-.1-.65-1.95m2.1 3.35-.1-.05-.1-.1-1.5.15-3.25 1M40.4 21.1l.5.25m-4.55 4.8-.1 1.35m-2.85.95h.05m-.05 0-.45-.4 1.3-4.2m-8.5 4.6.5.45-.95 1.25-1.65.75m19.95-7.5-3.75 2.45m-3.5.3.1-.95" fill="none" stroke="#000" stroke-linecap="round" stroke-linejoin="round" stroke-opacity=".302" stroke-width=".05"/><path d="m48.55 9.55-.55 1.2q-.55.5-1.3.5-.8 0-1.35-.5t-.5-1.2q-.05-.7.5-1.15.55-.5 1.35-.5.75 0 1.3.5l.55 1.15" fill="none" stroke="#000" stroke-linecap="round" stroke-linejoin="round" stroke-opacity=".553" stroke-width=".05"/></g></defs></svg>