<svg viewBox="0 0 49.296 43.4" xmlns="http://www.w3.org/2000/svg" xmlns:xlink="http://www.w3.org/1999/xlink"><use transform="translate(.01 .03)" width="49.25" height="43.35" xlink:href="#a"/><defs><g id="a"><path d="M10.95-1.4q.65-4.75 4.3-7.85l1.15-.9.2-.15.6-.4.35-.2-.05 1-.1.05Q14.8-8.2 13.25-5.3l-.2.4q-1.1 2.25-1.6 5.2l-.5-1.7" fill="#72c29c" fill-rule="evenodd" transform="translate(24.8 21.65)"/><path d="M10.85 1.9q-.15-1.75.1-3.3l.5 1.7-.25 1.65q-.15 1.4-.15 2.95l-.15.5-.05-3.5" fill="#579146" fill-rule="evenodd" transform="translate(24.8 21.65)"/><path d="m8.25 14.25-.7.55-3.5-.1.5-.25.15-2.1 1.2-.95q2.1 1.35 2.35 2.85m-7.3-4.5L-2 9.3l1.15-1.9 1.8 1.45v.9M-3.1-14.9q3.3 3.25-.1 3.75-.2-1.25-2.25-2.8l2.35-.95" fill="#64a851" fill-rule="evenodd" transform="translate(24.8 21.65)"/><path d="m-5.4 16.05 1.65 1.9-.45 3.45-.45.3q-1.55-1.5-1.9-3.55l-.1-1.6 1.25-.5" fill="#58582c" fill-rule="evenodd" transform="translate(24.8 21.65)"/><path d="m-17.4 6.15.1-.15.15.2-.25-.05" fill="#663" fill-rule="evenodd" transform="translate(24.8 21.65)"/><path d="m-11.65-13.05-1 .75-1.5-.25.35-.75.6-.6 1.2-.2.35 1.05" fill="#9ad3b8" fill-rule="evenodd" transform="translate(24.8 21.65)"/><path d="M-19.95 3.7-20 5.35l-.75-.6.8-1.05" fill-rule="evenodd" transform="translate(24.8 21.65)"/><path d="m-17.4 6.15-.05-.45q-.85-1.35-.1-2.55l1.1 1.65-.45.65-.4.55-.1.15" fill="#3d3d1f" fill-rule="evenodd" transform="translate(24.8 21.65)"/><path d="m1.6-13.05.5.3-1.45-.15-1.2 1.1q2.35.95 2.95 3.25l1.1-1.85-1.15-2.15 1.55 1.3.05.05q2.15 2.05 3.7 5.05 1.95 3.8 3.2 8.05l.05 3.5.05 2.7.05.05-.9 3.25-.45 1.15-.35.65-1.05 1.05Q8 12.75 5.9 11.4l-1.2.95-.15 2.1-.5.25H1.8q1-1.15 1.05-3.05-.05 1.9-1.05 3.05l-9.95.55-.15-.4-1.9.6-2.85.35Q-9.2 13.05-.3 12.9l-.15-.1-2.15-.95-1.95-.5-.55-.1-.2-.05-.75-.15-.9-.1-1.55-.1h-.95l-4.3.45-.9.15-1.25.35-1.5.5q-2.45.9-4.9 2.5-1.2-1.1-1.8-2.7.45-3.2 1.3-6.05.8.55 2.55.95l.9-.9-.15.1.1-.2-.25-.4-3-.05q4.2-13.7 17.2-19.5 2.05 1.55 2.25 2.8 3.4-.5.1-3.75l-.35-.3.7.2q2.35.65 4.35 1.95M24.2-1.4l-1 2.6q-1.9 3.95-5.85 6L13.9 8.55l-.95-.2Q14.7-1.4 18.7-6.25q-3.75 1.35-6.75 8.7L11.45.3q.5-2.95 1.6-5.2l.2-.4q1.55-2.9 4.15-4.55l.1-.05.15-.1q6.5 2.05 6.55 8.6m-11.55 10 .45.1q-.75 4.15.05 6.45.5 1.65 1.85 2.35-1.9.25-3.25-1.9l.15-.55q.75-3.15.75-6.45M-7.5 16.8l-3.1.65.05-1.9.35-.1 2.05-.2.65 1.55M-.2 4.25q1.35 1.8 3.3 1.85Q6.8 4 2.15.55 3.85 0 4.8-1.05q1.25-2.6-1.8-4.2-1.25-.65-2.65.4l.05.15Q2.25-2.55-1.45.45L.15.4l.6.3q.75.65.95 1.7.15 1-1.45 1.8l-.45.05h-.6q-.85 0-1.55-1 .7 1 1.55 1h.6M14.25 5.7 18 5.55q3.05-3.3 4.2-7.55-3.3 5.05-7.95 7.7M-3.1-.25-3-2.1q.3-3.15 3.4-2.6-3.1-.55-3.4 2.6l-.1 1.85m7.45 10.8L6.5 9.9l-.55-2.95-2.9.5 1.3 3.1m-3.4-.8v-.9L-.85 7.4-2 9.3l2.95.45m-12.6-16.8 3.4 4.55q2.95 3.8.8 11.05Q-5 4.45-5.05 1.4-7-5-11.65-7.05m11.4 20.9q.35-.65-.05-.95.4.3.05.95M-19.95 3.7l-.8 1.05.75.6.05-1.65m2.5 2 .05.45 1.3 1.1q4.2-.8 4.75-2.3-2.95 1.2-5.55.5l.45-.65-1.1-1.65q-.75 1.2.1 2.55m4.4 4.2q-3 1.15-6.55 1.35 3.55-.2 6.55-1.35m2-2.9Q-16 10.3-22.9 9.85-16 10.3-11.05 7" fill="#40627b" fill-rule="evenodd" transform="translate(24.8 21.65)"/><path d="M12.95 8.35h-.3q-.05-2.9-.7-5.9l-.9 2.45q0-1.55.15-2.95L11.45.3l.5 2.15q3-7.35 6.75-8.7-4 4.85-5.75 14.6M11 8.15l1.65.45q0 3.3-.75 6.45l-.15.55q1.35 2.15 3.25 1.9-1.35-.7-1.85-2.35-.8-2.3-.05-6.45l1.05.3q2.85 3.1 3.45 6.65l.15 2.55q-.8 1.5-2.75 2.3-1.25.55-2.3-.45l-1.7-2.1.75-2.35-.35-.6q-.75-1.4-1.3-3.6l.9-3.25M2.2 16.7l-4.1-.4-3.5-.25-1.25.5-.85.25-.65-1.55 9.95-.55h2.25l-.55.3-1.3 1.7m-12.8.75-3.8-.45-2.05-.65 3.4-.55 2.85-.35-.35.1-.05 1.9m-8.2-2.55q-.85 1.15-2 1l-1.5-1.1q2.45-1.6 4.9-2.5l1.5-.5 1.25-.35.9-.15 4.3-.45h.95l1.55.1.9.1.75.15.2.05.55.1 1.95.5 2.15.95Q-9.6 8.85-18.8 14.9M.35-4.85Q1.75-5.9 3-5.25q3.05 1.6 1.8 4.2Q3.85 0 2.15.55 6.8 4 3.1 6.1 1.15 6.05-.2 4.25l.45-.05q1.6-.8 1.45-1.8Q1.5 1.35.75.7L.15.4l-1.6.05q3.7-3 1.85-5.15l-.05-.15M14.25 5.7Q18.9 3.05 22.2-2 21.05 2.25 18 5.55l-3.75.15M.75 15.55l1.05-.85-1.05.85m-12.4-22.6Q-7-5-5.05 1.4q.05 3.05-2.4 7.15Q-5.3 1.3-8.25-2.5l-3.4-4.55m1.45 22.5 1.9-.6.15.4-2.05.2" fill="#2f4759" fill-rule="evenodd" transform="translate(24.8 21.65)"/><path d="M2.35-12.55 3.5-10.4 2.4-8.55q-.6-2.3-2.95-3.25l1.2-1.1 1.45.15.25.2m15.2 1.65.35-.1 1.35.3q3.25.7 4.6 4.05 1 2.45.35 5.25-.05-6.55-6.55-8.6l-.15.1.05-1M14.15 9q3.55 1.25 4.05 5.85l.05.85v.05q0 1.4-.5 2.45l-.15-2.55Q17 12.1 14.15 9m-38.25 3.1q-1.3-3.25-.15-8.55 1.15-5.4 3.85-10.3l.65-1.1 1.3-.8.15-1.2q2.15-2.65 5.05-4.15 2.05-1.05 4.45-1.55l.7-.1.8-.1 3.85.55.35.3-2.35.95q-13 5.8-17.2 19.5-.45-.15-.85-.35l.7.85q-.85 2.85-1.3 6.05m12.45-25.15L-12-14.1l-1.2.2-.6.6-.35.75 1.5.25 1-.75" fill="#51aca3" fill-rule="evenodd" transform="translate(24.8 21.65)"/><path d="m-22.65 5.55 3 .05.25.4-.1.2.15-.1-.9.9q-1.75-.4-2.55-.95l-.7-.85q.4.2.85.35m5.35.45.4-.55q2.6.7 5.55-.5-.55 1.5-4.75 2.3l-1.3-1.1.25.05-.15-.2" fill="#38566b" fill-rule="evenodd" transform="translate(24.8 21.65)"/><path d="m-16.45 16.35-1.95-1-.4-.45q9.2-6.05 18.35-2.1l.15.1q-8.9.15-12.75 2.9l-3.4.55" fill="#39586f" fill-rule="evenodd" transform="translate(24.8 21.65)"/><path d="m12.65 8.35-.25-.05-1.4-.15-.05-.05-.05-2.7.15-.5.9-2.45q.65 3 .7 5.9M11 17.95l-.85-1.55-.5-1.5-.35-1.7.35-.65.45-1.15q.55 2.2 1.3 3.6l.35.6-.75 2.35m-19.8-33.5.05-.35q.3-4.3 3.5-5.75l.15.8q.3 3.4-2.2 5.1l-.8.1-.7.1m.05-.35.65.25-.65-.25" fill="#293f4e" fill-rule="evenodd" transform="translate(24.8 21.65)"/><path d="M7.55 14.8q-2.4 1.7-5.35 1.9L3.5 15l.55-.3 3.5.1m-3.2-4.25-1.3-3.1 2.9-.5.55 2.95-2.15.65" fill="#96ab4e" fill-rule="evenodd" transform="translate(24.8 21.65)"/><path d="m26.9 8.9.15.05-.65-.35m.75.5-.1-.15m1.65 1.45.05.05" fill="none" stroke="#58582c" stroke-linecap="round" stroke-linejoin="round" stroke-width=".05"/><path d="m26.4 8.6.5.3m.25.2-.25-.2m1.85 1.55q2.15 2.05 3.7 5.05 1.95 3.8 3.2 8.05-.15-1.75.1-3.3.65-4.75 4.3-7.85l1.15-.9m.2-.15.6-.4.35-.2.35-.1 1.35.3q3.25.7 4.6 4.05 1 2.45.35 5.25l-1 2.6q-1.9 3.95-5.85 6L38.7 30.2l-.95-.2m-.55-.05-1.4-.15-.05-.05.05.05 1.65.45.45.1 1.05.3Q42.5 31.9 43 36.5l.05.85m0 .05q0 1.4-.5 2.45-.8 1.5-2.75 2.3-1.25.55-2.3-.45l-1.7-2.1-.85-1.55-.5-1.5-.35-1.7-1.05 1.05-.7.55q-2.4 1.7-5.35 1.9l-4.1-.4-3.5-.25 1.65 1.9-.45 3.45-.45.3q-1.55-1.5-1.9-3.55l-.1-1.6-.85.25-3.1.65-3.8-.45L8.35 38 6.4 37l-.4-.45q-.85 1.15-2 1l-1.5-1.1q-1.2-1.1-1.8-2.7Q-.6 30.5.55 25.2 1.7 19.8 4.4 14.9l.65-1.1 1.3-.8.15-1.2q2.15-2.65 5.05-4.15Q13.6 6.6 16 6.1l.05-.35q.3-4.3 3.5-5.75l.15.8q.3 3.4-2.2 5.1l3.85.55.7.2q2.35.65 4.35 1.95m-1.8 17.3H24q-.85 0-1.55-1m2.75-7.95-.05-.15m2-7.7 1.55 1.3m6.95 13.15.05 3.5.05 2.7M24.6 25.9l.45-.05q1.6-.8 1.45-1.8-.2-1.05-.95-1.7l-.6-.3-1.6.05q3.7-3 1.85-5.15-3.1-.55-3.4 2.6l-.1 1.85m13.2 11.65-.45 1.15-.35.65m-7.5 1.5-1.05.85m9.35-4.15.9-3.25m-9.2 6.55q1-1.15 1.05-3.05M16 6.1l.7-.1-.65-.25m.65.25.8-.1m6.85 28.55.15.1q.4.3.05.95m-5.15 2.2-1.25.5M6 36.55q9.2-6.05 18.35-2.1" fill="none" stroke="#663232" stroke-linecap="round" stroke-linejoin="round" stroke-opacity=".431" stroke-width=".05"/><path d="m-19.95 3.7-.8 1.05.75.6.05-1.65M-17.3 6l.4-.55.45-.65-1.1-1.65q-.75 1.2.1 2.55" fill="none" stroke="#3d3d1f" stroke-linecap="round" stroke-linejoin="round" transform="translate(24.8 21.65)"/><path d="M-19.6 11.25q3.55-.2 6.55-1.35m-9.85-.05Q-16 10.3-11.05 7" fill="none" stroke="#38566b" stroke-linecap="round" stroke-linejoin="round" transform="translate(24.8 21.65)"/><path d="m-19.75 4.4-.3.3-.3-.1-.1-.4.2-.55.35-.3.45.2q.15.25.05.5l-.35.35m3.45.15q-.25.25-.35.15l-.45-.4-.45-.55q-.15-.35.1-.6.25-.3.6-.3.3-.05.45.4l.25.75q.1.25-.15.55" fill="#f1f0da" fill-rule="evenodd" transform="translate(24.8 21.65)"/><path d="m8.1-5.35-.85.75-2.65-.65-1.95-1.8.7-2.15 1.75-.85q2.1 2.55 3 4.7m-15.55-7.5.35.15q2 .65 2.9 2.05.05 1.6-.7 2.7-.9 1.15-2.5 1.8-.2-1.9-1.8-3.35l-2.6-.75q2.2-1.7 4.35-2.6M-2.4-8.4Q0-7.3-.45-5.2l-2.95-.4-1.25-1.25L-2.4-8.4" fill="#b1d3a7" fill-rule="evenodd" transform="translate(24.8 21.65)"/><path d="m-11.8-10.25-.6-.2q.9-2.15 3.35-2.75l1.6.35q-2.15.9-4.35 2.6" fill="#cce8db" fill-rule="evenodd" transform="translate(24.8 21.65)"/><path d="M1.5-7.35-.55-7.9l-.15-.05-.15-.9 1.55-.7.8 2.2" fill="#b8e0cd" fill-rule="evenodd" transform="translate(24.8 21.65)"/><path d="M32.9 16.3q-.9-2.15-3-4.7" fill="none" stroke="#663232" stroke-linecap="round" stroke-linejoin="round" stroke-opacity=".431" stroke-width=".05"/><path d="m-18.45 2.85 4.25-3.5q1.15.55 2.1 1.4 1.2 1.05 1.25 3.05 0 2-1 2.8-1.05.8-2.75 1.4-1.7.55-2.8-.8-1.1-1.4-1.1-3.55l.05-.8" fill="#f2f1dc" fill-opacity=".2" fill-rule="evenodd" transform="translate(24.8 21.65)"/><path d="M-1.1-2.6Q-1.9-1-2.05.95q.65 1.1 2.2 1.7L-2.5 2.2l-.25-2.25L-1.1-2.6" fill="#38566b" fill-rule="evenodd" transform="translate(24.8 21.65)"/></g></defs></svg>