<svg width="19" height="26" viewBox="268.97 184.56 19.487 25.682" xmlns="http://www.w3.org/2000/svg" xmlns:xlink="http://www.w3.org/1999/xlink"><defs><use xlink:href="#a" id="c"/><use xlink:href="#b" id="d"/><g id="a"><path d="m2.2-6.65-1.95-.2-.9.3.55-1.3q1.5-1 2.45-.5L2.2-6.7v.05" fill="#73512f"/><path d="m.25-6.85 1.95.2Q3.6-3 .6 1.55-.95 1.3-2.1.1l.75-1.3 1.6-5.65" fill="#ffe5c7"/><path d="M2.2-6.65v-.05q1.3.5 1.8 2.05.1 3.4-1.5 6.05v.05l-1.2.15H.9l-.3-.05q3-4.55 1.6-8.2m-2.85.1.9-.3-1.6 5.65L-2.1.1l-.05-.05Q-3.1-1-1.85-3.8l1.2-2.75" fill="#ccad88"/><path d="m2.2-6.7.15-1.65Q3.15-8.1 4-6.1v1.45Q3.5-6.2 2.2-6.7" fill="#946742"/><path d="M2.5 1.4h.05v.05H2.5V1.4" fill="#4f4f4f"/><path d="M2.35-8.35q-.95-.5-2.45.5l-.55 1.3M-2.1.1Q-.95 1.3.6 1.55M4-4.65V-6.1q-.85-2-1.65-2.25M4-4.65q.1 3.4-1.5 6.05m.05 0v.05H2.5l-1.2.15H.9l-.3-.05M-2.1.1l-.05-.05Q-3.1-1-1.85-3.8l1.2-2.75" fill="none" stroke="#5e4226" stroke-opacity=".702" stroke-width=".5"/></g><g id="b"><path d="m-13.3-3.5.65 1.4q.6 8.3 3.6 12.5 2.7 1.75 5.15 2.05-3.35.75-6.65-1.65-1.3-.95-2.4-5.85-1.2-5.2-.35-8.45" fill="#ffe5c7"/><path d="M-12.6-2.1q.8 4.9 4 7.8 2.15 1.5 4.35.7L-.7 5.2q1.4-.65.55 3.45l-.8 1.1-2.95 2.7q-2.45-.3-5.15-2.05-3-4.2-3.6-12.5h.05" fill="#ccad88"/><path d="M-.35-3q-1.25.15-2.6 2.95-1.4 2.8-2.5 3.05L-8.4 1.9q.95-1.05 2.25-3.45 1.05-2 1.8-2.3 2-.9 4 .85" fill="#947a63"/><path d="M-5.45 3q1.1-.25 2.5-3.05Q-1.6-2.85-.35-3q1.8 1.95 2.05 7-.55 2.55-1.85 4.65Q.7 4.55-.7 5.2l-3.55 1.2q-2.2.8-4.35-.7-3.2-2.9-4-7.8 1.95 2.45 4.2 4L-5.45 3" fill="#a3896d"/><path d="M-5.45 3-8.4 1.9q-2.25-1.55-4.2-4M-.35-3q-2-1.75-4-.85-.75.3-1.8 2.3Q-7.45.85-8.4 1.9m-4.25-4h.05m-.7-1.4.65 1.4" fill="none" stroke="#5e4226" stroke-opacity=".702" stroke-width=".5"/><path d="M-.15 8.65Q1.15 6.55 1.7 4 1.45-1.05-.35-3M-3.9 12.45l2.95-2.7.8-1.1m-3.75 3.8q-3.35.75-6.65-1.65-1.3-.95-2.4-5.85-1.2-5.2-.35-8.45" fill="none" stroke="#5e4226" stroke-opacity=".702" stroke-width=".5"/></g></defs><use transform="matrix(-.71698 -.32961 -.36789 .72704 272.1 196.1)" xlink:href="#c"/><use transform="matrix(-.76607 -.15334 -.16617 .74698 271.9 201.8)" xlink:href="#c"/><use transform="matrix(-.99023 .0789 .15947 .99661 275.1 208.55)" xlink:href="#c"/><use transform="matrix(-.9753 -.21176 -.21176 .9753 274.6 188.7)" xlink:href="#d"/></svg>