<svg viewBox="0 0 46.15 37.499" xmlns="http://www.w3.org/2000/svg" xmlns:xlink="http://www.w3.org/1999/xlink"><use transform="translate(.02 .03)" width="46.1" height="37.45" xlink:href="#a"/><defs><g id="a"><path d="m242 214-1.05-.7 1.95.85 1.15-.05q1.8-.1 2.95-.75l.55-1.65q.35-1.9.15-5.15l-1.9-3.05-1.05-.1.65-.3q-1-1.85-2.1-1.3l.4-.65q3.25 1.45 4.75 6l.2 5.3.25.95.15 1.8-2.45-.1-2.25-.4-2.35-.7" fill="#dadada" fill-rule="evenodd" transform="translate(-226.8 -201.15)"/><path d="M243.3 201.8q1.1-.55 2.1 1.3l-.65.3 1.05.1 1.9 3.05q.2 3.25-.15 5.15l-.55 1.65q-1.15.65-2.95.75l-1.15.05-1.95-.85 1.05.7-1.25-.5q-1.35-3.2-1.2-5.45V208l.05-.05.05-.15.65-1.15.35-.5q1.05-1.85 2.65-4.35" fill="#fff" fill-rule="evenodd" transform="translate(-226.8 -201.15)"/><path d="m242 214 2.35.7 2.25.4 2.45.1-.15-1.8 1.1 1.95v.05q4.5 4.35 7.35 6.5l.25.15v1.15l-8.1-6.45q.2-.3-.2-.65l-.5-.35-4-.2-.7-.15-2.1-1.4m14-8.55q13.8 15.75 16.9 29.9-10.7 3.65-19.5 3.2 7.85-.6 16.45-3.6-4.2-14.35-13.85-29.5m-28.1 2.4-1.1-1.2 2.15-3.45 4.35-1.9 3.2 2.2 2.75 2.85.95.25-.55 1.2-.9-.95-.8-.25q-.6-.95-1.65-1.75-1.45-1.15-3.65-2.1l-3.15 2.7-1.5 2.1-.05.05-.05.25" fill="#72804d" fill-rule="evenodd" transform="translate(-226.8 -201.15)"/><path d="m239.6 207.95-.05.05v.05q-.15 2.25 1.2 5.45l1.25.5 2.1 1.4.7.15 4 .2.5.35q.4.35.2.65l8.1 6.45v-1.15l-.05-.6q0-7.9-1.55-16 9.65 15.15 13.85 29.5-8.6 3-16.45 3.6 2.25-3.25 3.3-6.9l.3-1.35.3-1.5v-.1l-.05.1q-2.15-1.45-7.25-4.2l-2.55-1.35-3.15-1.7-1.6-.85-1.7-.85-.85-.4-.05-.05-.9-.45-.4-.15-.1-.05q-2.05-1-3.25-1.45l-.9-.3q-1.4-.7-2.15-1.65-.65-.8-.85-1.7L228 207.6v-.05l1.5-2.1 3.15-2.7q2.2.95 3.65 2.1 1.05.8 1.65 1.75l.8.25.9.95-.05.15m18 15.25-.15 3.4-.05.8-.1 1.3.1-1.3.05-.8.15-3.4" fill="#9ead76" fill-rule="evenodd" transform="translate(-226.8 -201.15)"/><path d="m239.65 207.8-.05.15.05-.15m17.65 21h-.05l.05-.1v.1M228 207.6l-.1.25.05-.25.05-.05v.05" fill="#feac25" fill-rule="evenodd" transform="translate(-226.8 -201.15)"/><path d="m240.3 206.65-.65 1.15.55-1.2.1.05" fill="#c76401" fill-rule="evenodd" transform="translate(-226.8 -201.15)"/><path d="m15.2 12.85 2.35.7 2.25.4 2.45.1-.15-1.8-.25-.95-.2-5.3q-1.5-4.55-4.75-6l-.4.65Q14.9 3.15 13.85 5m-1.1 1.85v.05q-.15 2.25 1.2 5.45l1.25.5m15.35 7.9q-2.85-2.15-7.35-6.5v-.05l-1.1-1.95m7.1-7.95Q43 20.05 46.1 34.2q-10.7 3.65-19.5 3.2m3.9-9.75h-.05q-2.15-1.45-7.25-4.2l-2.55-1.35-3.15-1.7-1.6-.85-1.7-.85-.85-.4-.05-.05-.9-.45-.4-.15-.1-.05q-2.05-1-3.25-1.45l-.9-.3q-1.4-.7-2.15-1.65-.65-.8-.85-1.7L1.2 6.45l-.1.25L0 5.5l2.15-3.45L6.5.15l3.2 2.2 2.75 2.85.95.25.45-.45M30.5 27.55l.1-1.3.05-.8.15-3.4m-.3 5.5v.1m-17.65-21 .55-1.2m-.55 1.2-.05.15" fill="none" stroke="#000" stroke-linecap="round" stroke-linejoin="round" stroke-opacity=".302" stroke-width=".05"/></g></defs></svg>