<svg viewBox="0 0 54.504 53.251" xmlns="http://www.w3.org/2000/svg" xmlns:xlink="http://www.w3.org/1999/xlink"><g transform="translate(-373.02 -273.98)"><use transform="translate(373 273.65)" width="54.5" height="53.6" xlink:href="#a"/><use transform="translate(386.65 293.55)" width="18" height="23.05" xlink:href="#b"/><use transform="translate(395 297.85)" width="21.1" height="18.95" xlink:href="#c"/></g><defs><linearGradient id="g" x1="-819.2" x2="819.2" gradientTransform="matrix(-.0044 -.0006 .0004 -.0019 4.6 14.15)" gradientUnits="userSpaceOnUse"><stop stop-color="#a15f00" offset="0"/><stop stop-color="#db9e03" offset="1"/></linearGradient><linearGradient id="h" x1="-819.2" x2="819.2" gradientTransform="matrix(-.0045 -.0026 .0007 -.0014 5.85 7.95)" gradientUnits="userSpaceOnUse"><stop stop-color="#a15f00" offset="0"/><stop stop-color="#db9e03" offset="1"/></linearGradient><linearGradient id="i" x1="-819.2" x2="819.2" gradientTransform="matrix(-.0019 -.0038 .0012 -.0007 14.45 4.55)" gradientUnits="userSpaceOnUse"><stop stop-color="#a15f00" offset="0"/><stop stop-color="#db9e03" offset="1"/></linearGradient><linearGradient id="j" x1="-819.2" x2="819.2" gradientTransform="matrix(-.0034 -.0035 .0009 -.0008 8.3 3.6)" gradientUnits="userSpaceOnUse"><stop stop-color="#a15f00" offset="0"/><stop stop-color="#db9e03" offset="1"/></linearGradient><use width="54.5" height="53.6" xlink:href="#d" id="a"/><use width="18" height="23.05" xlink:href="#e" id="b"/><use width="18" height="23.05" xlink:href="#f" id="e"/><use width="21.1" height="18.95" xlink:href="#k" id="c"/><g id="d"><path d="m12.1-14.05.75 1.5-.15.15-.3.1-1.2.35-.3-.5.05-.1q1-.7 1.15-1.5m1.35 2.2q2.05 1.1 2.7 3.2l-1.35.55-.9.3-.6-.1-1.2-2.45v-.05l.1-.2 1.25-1.25m3.1 3.6v.05l.5.65h.05q1.35-.65 3.35-.9Q22.5-8.6 21.8-7l-3.3 2.35-.15.25q-.35.55.05 1.7L19.6.05h-.05L18.6-.5l-.8-.3-1 .7-1.9-4.4.6-.8q-.55-.3-.7-.7-.2-.55.7-1.35l1.05-.9M21.4-4.5q2.35 1.15 4.1 3.45V-1l-.75-.35-.7-.3-2.55-1.3q-.25-.8-.1-1.55M11-16.35l.2.45.1.25-.3.2-.3.05-.35-.1-.15-.05-.3-.2v-.05q-.15-.45.35-.6l.75.05M5.85-13.3v-.1q0-.45.6-.7l1.3-.5h.15l.05-.05h.45l.65.5q.25.65-.8 1.15l-.65.25-.95.1q-.65-.05-.8-.45v-.2m-5.7.3 1.65.05q.95.15 1.3.45l.15.2.1.25q0 .45-.6.65l-.8.15-.75-.05q-1.2 0-1.35-.5l.05-.35v-.2l-.05-.3.3-.35M17.1-7.55 15.5-5.3l1.6-2.25m-26-7.05v-.1l-.05-.25V-15l.4-.4q1.2.35 1.35.8v.4l-.2.15H-8q-.65-.15-.9-.55m2.95 1.8-.2-.05-.05-.05.55-.65.65-.05.65.05 1.05.35.3.45q.15.45-.3.6l-1.3-.15-1.25-.5h-.1" fill="#e0b359" fill-rule="evenodd" transform="translate(28.95 29.6)"/><path d="M9.7-17h.65l.85.55.7 1.2q.3.6.2 1.2-.15.8-1.15 1.5l-.05.1-.3.45-1.15.75q-1.45.8-3.4 1.2l-1.35.3q.5-1.85-.25-2.9l-.1-.1-.9-.65.9.65.1.1q.75 1.05.25 2.9l-5.95.2q-5.25.35-5.95-.7l-.9-.95q.15-1.45 1.05-2.4l.4-.45 1-.65.25-.1-.25.1-1 .65-.4.45q-.9.95-1.05 2.4l-.7-.45q-1.25-1.05-.85-2.6l.2-.55 1-1.65 1.6.95 1.45.7q1.8-.45 4.1 1.3l4.75.1 1.9-1.15 2.2-.55.55-.05.3-.05.5.05.65.15q1.5.4 1.4 2.45.1-2.05-1.4-2.45l-.65-.15-.5-.05-.3.05-.55.05.7-.5L9.6-17h.1m3.15 4.45.6.7-1.25 1.25-.1.2-.25-.45-.65-1.1 1.2-.35.3-.1.15-.15m3.3 3.9.4.4-1.05.9q-.9.8-.7 1.35.15.4.7.7l-.6.8-1-2.1-.45-.95-.15-.35.6.1.9-.3 1.35-.55M21.8-7l-.4 2.5q-.15.75.1 1.55l2.55 1.3.7.3.75.35v-.05l.05.05h-.05Q23.05.45 20.65.25l.3 4q-1.9-.95-3.15-2.75l-.3.15-.45-1.1-.25-.65 1-.7.8.3.95.55h.05L18.4-2.7q-.4-1.15-.05-1.7l.15-.25L21.8-7M11-16.35l-.75-.05q-.5.15-.35.6v.05l.3.2.15.05.35.1.3-.05.3-.2-.1-.25-.2-.45M.15-13l-.3.35.05.3v.2l-.05.35q.15.5 1.35.5l.75.05.8-.15q.6-.2.6-.65l-.1-.25-.15-.2q-.35-.3-1.3-.45L.15-13m5.7-.3v.2q.15.4.8.45l.95-.1.65-.25q1.05-.5.8-1.15l-.65-.5h-.45l-.05.05h-.15l-1.3.5q-.6.25-.6.7v.1m10.4 4.75L13.9-6.6l2.35-1.95m-4.4-2.3.85-1.55-.85 1.55M-8.9-14.6q.25.4.9.55h.6l.2-.15v-.4q-.15-.45-1.35-.8l-.4.4v.05l.05.25v.1m2.95 1.8h.1l1.25.5 1.3.15q.45-.15.3-.6l-.3-.45-1.05-.35-.65-.05-.65.05-.55.65.05.05.2.05m4.65-.7-.3.5-.1.25q-.6 1.6.45 3.2-1.05-1.6-.45-3.2l.1-.25.3-.5" fill="#9c7c3e" fill-rule="evenodd" transform="translate(28.95 29.6)"/><path d="M12.65-25.1q.2.7-.25 1.4l-1.2 3.2-.3.65L9.7-17h-.1l-1.35 1.4.9-2.35q1.15-3.2 1.4-4.8v-.05l2.1-2.3m-2.2 2.35.1-.05v.05h-.1m-9 .25.45-.25-.25.4-.2-.15m8 11.25L10.6-12l.3-.45.3.5.65 1.1.25.45v.05h-.05l-.35.05h-.2l-1.15.05-.25.1-.65-1.1" fill="#634521" fill-rule="evenodd" transform="translate(28.95 29.6)"/><path d="m19.1 11.7-.35 2.35.4.25-.75.05-1.1.2q-.85.2-.85.65.1.55 1.05.75l1.6.2.95-.3.1.35q.3 3.15-3.8 1.35Q5 19.35.15 19.35q-4.7-.05-10.25-2.95-6.05-3.1-7.3-6.75l-.95-2.15.05.05q.55.45-.2-.35 2.15 2.2 5.25 4.35Q-7.5 15.8-1.9 15.9q5.55-.05 7.1-1.3t3.1-1.9q1.6-.7 3.65-.5l2.85-.05q.7-.45 2.3-1.1l.2.1q.3 0 .85.3l.95.25M-12.15-9.8l3.35-1.85.7.45.9.95q.7 1.05 5.95.7l5.95-.2 1.35-.3q1.95-.4 3.4-1.2l.65 1.1-.55.2-.2.2-.45.85-2.35 1.5q-2 1.2-5.2 1.5-3.25.3-9.05-1.95-1.8-.65-4.45-1.95m5.3-5.7-1.8-1.85-1.25-1.35q-2.05-2.15-2.75-3.4 6.5 3.1 8.75 3.6 3.95.9 9.65-1.1 2.4-.85 4.7-3.15h.1q-.25 1.6-1.4 4.8l-.9 2.35-.7.5-2.2.55-1.9 1.15-4.75-.1q-2.3-1.75-4.1-1.3l-1.45-.7M5.7-22.55l-1.3.75q-1.8.85-3.6.65l-1.05-.05-5.35-.95q-3.05-.65-3.75-2-.65-1.35.75-2.15l.7-.3-.35.65.05.9q.55 1.65 4.55 2.45l4.15.45.95-.35.2.15-.85 1.2.85-1.2.25-.4.55-.5q.3.85 1.85.85l1.4-.15m11.6 37.1q.2-1.6 0-3.4.2 1.8 0 3.4" fill="#705739" fill-rule="evenodd" transform="translate(28.95 29.6)"/><path d="m1.9-22.75.4-.6.15.1-.55.5m15.2 33.8h.2v.1l-.2-.1" fill="#8c622f" fill-rule="evenodd" transform="translate(28.95 29.6)"/><path d="M-12.65-22.1q-.6-.9-.6-1.3 0-1.15 2.1-3l3.85-2.75 4.7-.1 5.25 1.5L4-27.5l2.9-.3 3-.3q1.25.3 2.25 1.65l.5 1.35-2.1 2.3-.1.05q-2.3 2.3-4.7 3.15-5.7 2-9.65 1.1-2.25-.5-8.75-3.6M17.5 1.65q1.05 2.75 1.55 6.4.2 1.55.05 3.65l-.95-.25q-.55-.3-.85-.3v-.1Q16.9 7 15.25 2.1l-.3-.95L13.8-1.9l-1.7-3.95-.6-1.3-.8-1.7-.05-.1-.55-1.2.25-.1 1.15-.05h.2l.35-.05h.05l1.2 2.45.15.35.45.95 1 2.1 1.9 4.4.25.65.45 1.1m1.65 12.65.35.35q.45.45.55 1.2l-.95.3-1.6-.2q-.95-.2-1.05-.75 0-.45.85-.65l1.1-.2.75-.05m-37.5-6.8q-.5-.6-.75-3.2-.25-2.8 2.35-7.85 2.55-5.1 4.6-6.25Q-9.5-8.5-7.7-7.85-1.9-5.6 1.35-5.9q3.2-.3 5.2-1.5L8.9-8.9l.45-.85.2-.2.55-.2.55 1.2.05.1.8 1.7.6 1.3 1.7 3.95 1.15 3.05.3.95Q16.9 7 17.3 11.05h-.2q-1.6.65-2.3 1.1l-2.85.05q-2.05-.2-3.65.5-1.55.65-3.1 1.9t-7.1 1.3q-5.6-.1-11.35-4.35-3.1-2.15-5.25-4.35l.15.3-.15-.3q.75.8.2.35l-.05-.05M5.7-22.55 7.35-24l2.2-.5.6.3q.45.25.4 1.4.05-1.15-.4-1.4l-.6-.3-2.2.5-1.65 1.45-1.4.15q-1.55 0-1.85-.85l-.15-.1-.4.6-.45.25-.95.35-4.15-.45q-4-.8-4.55-2.45l-.05-.9.35-.65-.7.3q-1.4.8-.75 2.15.7 1.35 3.75 2l5.35.95 1.05.05q1.8.2 3.6-.65l1.3-.75M3.1-24.5l-.8 1.15.8-1.15m2.45-1.8q5.5-.7 1.8 2.3 3.7-3-1.8-2.3M19.5 14.65l-2.1.4h-.05l-.05-.5.05.5h.05l2.1-.4" fill="#8c6d47" fill-rule="evenodd" transform="translate(28.95 29.6)"/><path d="M16.3 7.5q-.6-.9-.6-1.3 0-1.15 2.1-3L21.65.45l4.7-.1 5.25 1.5 1.35.25 2.9-.3 3-.3q1.25.3 2.25 1.65l.5 1.35q.2.7-.25 1.4l-1.2 3.2-.3.65-1.2 2.85h.65l.85.55.7 1.2q.3.6.2 1.2l.75 1.5.6.7q2.05 1.1 2.7 3.2l.4.4m0 .05.5.65h.05q1.35-.65 3.35-.9 2.05-.15 1.35 1.45l-.4 2.5q2.35 1.15 4.1 3.45l.05.05h-.05Q52 30.05 49.6 29.85l.3 4q-1.9-.95-3.15-2.75l-.3.15Q47.5 34 48 37.65q.2 1.55.05 3.65l-.35 2.35.4.25.35.35q.45.45.55 1.2l.1.35q.3 3.15-3.8 1.35-11.35 1.8-16.2 1.8-4.7-.05-10.25-2.95-6.05-3.1-7.3-6.75l-.95-2.15q-.5-.6-.75-3.2-.25-2.8 2.35-7.85 2.55-5.1 4.6-6.25l3.35-1.85q-1.25-1.05-.85-2.6l.2-.55 1-1.65 1.6.95-1.8-1.85-1.25-1.35Q17 8.75 16.3 7.5m23.2-.7q.05-1.15-.4-1.4l-.6-.3-2.2.5-1.65 1.45-1.3.75q-1.8.85-3.6.65L28.7 8.4l-5.35-.95q-3.05-.65-3.75-2-.65-1.35.75-2.15l.7-.3m9.8 3.85.4-.6.8-1.15m7.45 1.75V6.8m0 .05q-.25 1.6-1.4 4.8L37.2 14l1.35-1.4h.1m1.25 4.45q1-.7 1.15-1.5m-1.2 1.6.05-.1Q40 15 38.5 14.6l-.65-.15-.5-.05-.3.05-.55.05-2.2.55-1.9 1.15.9.65.1.1q.75 1.05.25 2.9l1.35-.3q1.95-.4 3.4-1.2l1.15-.75.3-.45.3.5m1.5-.45.15-.15m-11.2-9.8.25-.4m-1.1 1.6.85-1.2M37.2 14l-.7.5m2.55 4.95-.65-1.1m2.65.9v-.05l-.25-.45-.65-1.1m4.3 6.65 1.6-2.25m.2 18.6q-.4-4.05-2.05-8.95l-.3-.95-1.15-3.05-1.7-3.95-.6-1.3-.8-1.7-.05-.1-.55-1.2m3.2 2.25.15.35.45.95 2.35-1.95m-2.95.65-1.2-2.45m4.7 10.25.25.65.45 1.1m-2.6-6.15.6-.8m1.3 5.2-1.9-4.4-1-2.1m-1.2-5.8-.85 1.55M36.3 5.6q3.7-3-1.8-2.3M20.85 18.4Q21 16.95 21.9 16l.4-.45 1-.65.25-.1-1.45-.7m5.6 5.95q-1.05-1.6-.45-3.2l.1-.25.3-.5q-2.3-1.75-4.1-1.3m-2.7 3.6.9.95q.7 1.05 5.95.7l5.95-.2m-13.5-1.9.7.45m-10.4 18.4.15.3.05.05q.55.45-.2-.35m35.8 3.85v.1q.2 1.8 0 3.4l.05.5h.05l2.1-.4M32.4 16.2l-4.75-.1" fill="none" stroke="#362a1b" stroke-linecap="round" stroke-linejoin="round" stroke-opacity=".502" stroke-width=".05"/><path d="m15.1 11.75 3.45-1.3.1 1.75-3.5.3-.05-.75" fill="#704e26" fill-rule="evenodd" transform="translate(28.95 29.6)"/><path d="m44.05 41.35.05.75 3.5-.3-.1-1.75z" fill="none" stroke="#000" stroke-linecap="round" stroke-linejoin="round" stroke-opacity=".502" stroke-width=".05"/><path d="m18.55 8.15-3.45 1.3L15 7.7l3.5-.3.05.75" fill="#704e26" fill-rule="evenodd" transform="translate(28.95 29.6)"/><path d="m47.5 37.75-.05-.75-3.5.3.1 1.75z" fill="none" stroke="#000" stroke-linecap="round" stroke-linejoin="round" stroke-opacity=".502" stroke-width=".05"/><path d="m12.9-7.8-2.25 1.9-.6-1.65 2.6-.95.25.7" fill="#704e26" fill-rule="evenodd" transform="translate(28.95 29.6)"/><path d="m41.85 21.8-.25-.7-2.6.95.6 1.65z" fill="none" stroke="#000" stroke-linecap="round" stroke-linejoin="round" stroke-opacity=".502" stroke-width=".05"/><path d="m9.85-17.05-2.2.95-.1-1.35 2.3-.2v.6" fill="#704e26" fill-rule="evenodd" transform="translate(28.95 29.6)"/><path d="M38.8 12.55v-.6l-2.3.2.1 1.35z" fill="none" stroke="#000" stroke-linecap="round" stroke-linejoin="round" stroke-opacity=".502" stroke-width=".05"/><path d="m11.05-24.05-2.25 1.9-.6-1.65 2.6-.95.25.7" fill="#704e26" fill-rule="evenodd" transform="translate(28.95 29.6)"/><path d="m40 5.55-.25-.7-2.6.95.6 1.65z" fill="none" stroke="#000" stroke-linecap="round" stroke-linejoin="round" stroke-opacity=".502" stroke-width=".05"/><path d="M-27.75 18.7q-.15.2.1.9.25.65 1.9.9l3.2.45 3.15.05 4.85-.8q3.25-.7 4.65-2.75l1.35 1.4Q-7.5 22.5-18.9 23q-10-.4-9.65-3.55l.8-.75" fill="#deb185" fill-rule="evenodd" transform="translate(28.95 29.6)"/><path d="M-9.9 17.45q-1.4 2.05-4.65 2.75l-4.85.8-3.15-.05-3.2-.45q-1.65-.25-1.9-.9-.25-.7-.1-.9 4.75-3.75 7.3-7.1 2.2-2.4 3.7-1.35l6.85 7.2" fill="#fc9" fill-rule="evenodd" transform="translate(28.95 29.6)"/><path d="M-8.95 17.5q.45.55-.1.95l-.2.15q-.65.4-1.05-.2-.45-.65.25-1.1l.85-.05.25.25m-3.45-2.65q-.75.4-1-.25-.3-.7.2-1.05.45-.4 1 .25.55.6-.2 1.05m1.7.45q.3.65-.4 1.05-.65.4-.9-.25-.2-.65.4-1.05.55-.4.9.25m-4.1-1.85q-.25-.65.4-1.05.7-.35 1 .25.35.55-.45 1-.75.45-.95-.2m4.5 7.85.75.1q.25.45-.2.75l-.7-.1q-.3-.45.15-.75m-2.95 1.3q-.25-.7.45-1.05.7-.4 1.05.2t-.45 1.1q-.8.45-1.05-.25m-1.05-.25q.45.55-.15.9t-.8-.25q-.25-.55.15-.85.35-.3.8.2m5.25-1.95q-.15-.45.25-.7.4-.3.65.15.2.45-.25.7-.5.3-.65-.15m-11.55-8.2q.35.6-.45 1.1-.8.45-1.05-.25t.45-1.05q.7-.4 1.05.2m.25-2.25q.55-.5 1.25.15 0-.45.45-.75.55-.4.9.25.3.65-.4 1.05l-.45.15q.15.6-.6 1-1.05.6-1.4-.35t.25-1.5m3.3 1.5q-.45-.65.25-1.1.65-.45 1.05.2t-.25 1.1q-.65.4-1.05-.2m-9.3 5.15.75-.05q0-.45.4-.7.55-.4.85.2t-.35 1l-.25.15q.3.55-.45.95-.85.5-1.15-.3-.35-.8.2-1.25m-.9 1.9q.35.55-.45 1-.75.45-.95-.2-.25-.65.4-1.05.7-.35 1 .25m.35 4.35q-.25-.8.45-1.3.7-.45 1.1.3.4.8-.45 1.3-.85.45-1.1-.3m-1.9-1.8q-.35-.55.25-.95.55-.45.9.15.35.55-.2.95-.55.35-.95-.15m5.75-7.05q.8-.55 1.25.2.5.8-.3 1.3-.75.5-1.25-.2-.5-.75.3-1.3m1.45 8.95q-.15-.4.25-.6.35-.2.55.15.2.3-.25.55l-.55-.1m-2.75.2q-.3-.75.25-1.2.5-.45 1.1.25.65.75-.2 1.25-.85.45-1.15-.3m6.75.2q-.25-.85.5-1.4.75-.5 1.2.35.45.8-.5 1.35-.9.55-1.2-.3m-1.15-.8q.45.75-.3 1.25-.75.45-1.2-.25-.5-.7.25-1.25.75-.5 1.25.25" fill="#deb185" fill-opacity=".502" fill-rule="evenodd" transform="translate(28.95 29.6)"/></g><g id="f"><path d="M10.5 8.45q-.85.6-1.55 1.25l-.9.9-2.3-.75Q7 8.5 8.65 7.75l1.85.7M3.85 12.8l.9-1.7 2.55.4-.85 1.05-.75 1.1-1.85-.85m.7 8.55-1.3.75q-.45-1.65-.55-3.2l1.5-1.4v1.95l.35 1.9" fill="#904900" fill-rule="evenodd"/><path d="m10.5 8.45 3.1 1.15-2.5 2.1-3.05-1.1.9-.9q.7-.65 1.55-1.25m3.35 1-2-3 2.75.5 2.05 2-2.8.5M7.3 11.5l2.75.35-.65 3.8-.95-.4 1.35 4.1-1.2 3.7Q6.9 20 5.5 20.8l-.95.55-.35-1.9V17.5l.4-.25q2-1.55 3.85-2l-2.75-1.6.75-1.1.85-1.05" fill="#7e3200" fill-rule="evenodd"/><path d="m5.75 9.85-.7-.2 2.7-2.2.9.3Q7 8.5 5.75 9.85m-1.9 2.95-1.05-.4L4.05 11l.7.1-.9 1.7m-.6 9.3-.75.5-.85-2.6 1.05-1.1q.1 1.55.55 3.2" fill="#a05b06" fill-rule="evenodd"/><path d="M11.2 16.85v-.25l.1.1-.1.15" fill="#904700" fill-rule="evenodd"/><path d="M11.2 16.6q-.65-.3-1.45-.65l-1.9-.7-2-.35-2.1-.35-2-.2-1.75-.2q0-.45.45-.95 5.5-1.25 11.1.9.25 1.2-.35 2.5" fill="url(#g)" fill-rule="evenodd"/><path d="m0 14.15 1.75.2 2 .2 2.1.35 2 .35 1.9.7q.8.35 1.45.65v.25l-1.45 1.8L7.8 17.6l-1.9-.7-.3-.1Q.1 15.6 0 14.65v-.5" fill="#7b3800" fill-rule="evenodd"/><path d="M11.2 16.6q.6-1.3.35-2.5-5.6-2.15-11.1-.9-.45.5-.45.95m0 .5q.1.95 5.6 2.15l.3.1 1.9.7 1.95 1.05m1.45-1.8v-.25z" fill="none" stroke="#230000" stroke-linecap="round" stroke-linejoin="round" stroke-opacity=".302" stroke-width=".05"/><path d="m12.3 13.15.1.15-.15.05.05-.2" fill="#904700" fill-rule="evenodd"/><path d="m.95 5.8.7-.65q6 1.55 11.45 6.05.1 1.15-.8 1.95l-1.4-1.2Q9.95 11.1 9 10.5L7 9.2 4.85 7.95 2.8 6.75.95 5.8" fill="url(#h)" fill-rule="evenodd"/><path d="M10.4 14.25 8.55 12.5l-1.9-1.55-.3-.2Q.85 7.1.95 6.25V5.8l1.85.95 2.05 1.2L7 9.2l2 1.3q.95.6 1.9 1.45l1.4 1.2-.05.2-1.85.9" fill="#7b3800" fill-rule="evenodd"/><path d="M10.4 14.25 8.55 12.5l-1.9-1.55-.3-.2Q.85 7.1.95 6.25m0-.45.7-.65q6 1.55 11.45 6.05.1 1.15-.8 1.95l-.05.2" fill="none" stroke="#230000" stroke-linecap="round" stroke-linejoin="round" stroke-opacity=".302" stroke-width=".05"/><path d="m16.4 11.1.1-.1v.1h-.1" fill="#904700" fill-rule="evenodd"/><path d="m16.5 11-.4-1.5-.6-1.8-.85-1.8-.9-1.75-.85-1.75-.85-1.45.8-.2q3.4 3.65 5.15 9.2-.5.8-1.5 1.05" fill="url(#i)" fill-rule="evenodd"/><path d="m12.05.95.85 1.45.85 1.75.9 1.75.85 1.8.6 1.8.4 1.5-.1.1-1.75-.15-.4-2-.65-2-.1-.2Q11.3 1.8 11.8 1.2l.25-.25" fill="#7b3800" fill-rule="evenodd"/><path d="M16.5 11q1-.25 1.5-1.05-1.75-5.55-5.15-9.2l-.8.2m-.25.25q-.5.6 1.7 5.55l.1.2.65 2 .4 2m1.75.15.1-.1z" fill="none" stroke="#230000" stroke-linecap="round" stroke-linejoin="round" stroke-opacity=".302" stroke-width=".05"/><path d="m12.85 9.75.1.1h-.15l.05-.1" fill="#904700" fill-rule="evenodd"/><path d="M4.6.25q.15-.2.65-.25 4.8 3.25 8.65 8.55-.15.9-1.05 1.2l-.95-1.4-1.35-1.75L9.1 4.95l-1.6-1.7-1.55-1.6L4.6.25" fill="url(#j)" fill-rule="evenodd"/><path d="m11.05 9.9-1.2-2-1.4-1.8-.2-.25Q4.2 1.2 4.45.6L4.6.25l1.35 1.4 1.55 1.6 1.6 1.7 1.45 1.65 1.35 1.75.95 1.4-.05.1-1.75.05" fill="#7b3800" fill-rule="evenodd"/><path d="m11.05 9.9-1.2-2-1.4-1.8-.2-.25Q4.2 1.2 4.45.6M4.6.25q.15-.2.65-.25 4.8 3.25 8.65 8.55-.15.9-1.05 1.2l-.05.1" fill="none" stroke="#230000" stroke-linecap="round" stroke-linejoin="round" stroke-opacity=".302" stroke-width=".05"/></g><g id="k"><path d="m9.4 5.15.5-1.2q.85-1.3 1.9-1.7 1.15-.4 1.9.25.8.7.8 2.1 0 1.1-.5 2.1l-.3.55-.55.75q0-1.7-.95-2.75l-2.8-.1" fill="#929123" fill-rule="evenodd"/><path d="m13.15 8-1.35.95q-1.05.4-1.9-.25-.75-.65-.75-2.05 0-.75.25-1.5l2.8.1q.95 1.05.95 2.75" fill="#e3e293" fill-rule="evenodd"/><path d="M13.35 8.4 11.7 9.55q-1.25.5-2.25-.35-.9-.8-.9-2.5L8.8 5l.65-1.5q1-1.5 2.25-2 1.35-.5 2.3.3.95.9.95 2.5 0 1.3-.6 2.55L14 7.5l-.65.9m-.2-.4.55-.75.3-.55q.5-1 .5-2.1 0-1.4-.8-2.1-.75-.65-1.9-.25-1.05.4-1.9 1.7l-.5 1.2q-.25.75-.25 1.5 0 1.4.75 2.05.85.65 1.9.25L13.15 8" fill="#4a3c1a" fill-rule="evenodd"/><path d="m9.4 5.15.5-1.2q.85-1.3 1.9-1.7 1.15-.4 1.9.25.8.7.8 2.1 0 1.1-.5 2.1l-.3.55-.55.75-1.35.95q-1.05.4-1.9-.25-.75-.65-.75-2.05 0-.75.25-1.5z" fill="none" stroke="#718b05" stroke-linecap="round" stroke-linejoin="round" stroke-width=".3"/><path d="M13.6 3.85q.55.5.55 1.5L13.8 6.8l-.2.4-.4.5-.95.7q-.75.3-1.35-.2-.5-.5-.5-1.45 0-.55.15-1.05l.35-.85q.6-.9 1.35-1.2.8-.3 1.35.2" fill="#dad967" fill-rule="evenodd"/><path d="m14.05 4.7.35.75-.2 1.2-.5.95q-.35.35-.65.15-.3-.15-.35-.7l.15-1.3.6-.85q.35-.35.6-.2" fill-rule="evenodd"/><path d="m13 5.6.25.25-.15.45-.35.45-.45.05-.25-.2.1-.5.4-.35q.25-.15.45-.15" fill="#fdf8e8" fill-rule="evenodd"/><path d="M14.15 1.85V2v-.15" fill="#a89b3e" fill-rule="evenodd"/><path d="m15.3 4.85-.35.95Q13.9 5.75 13 5.15q-.8-.65-1.85-.9-1.15-.45-2.6-.4L9.05 2l.05-.05q.35-1 1-1.5 1.3-.9 2.6 0-1.8-.45-2.45.75-.5 1.65.95 1.85 1.45.5 2.4 1.75l1.7.05" fill="#635c30" fill-rule="evenodd"/><path d="m14.15 2 .05.05q.95.95.95 1.8l.1.15q-.55 1.55-1.2.6-.25-1.65-1.2-2.35 0-.75 1.3-.25" fill="#dbd200" fill-rule="evenodd"/><path d="m15.25 4 .1.65-.05.2-1.7-.05q-.95-1.25-2.4-1.75-1.45-.2-.95-1.85Q10.9 0 12.7.45l1.45 1.4V2q-1.3-.5-1.3.25.95.7 1.2 2.35.65.95 1.2-.6" fill="#ac9d00" fill-rule="evenodd"/><path d="m15.25 4 .1.65-.05.2-.35.95Q13.9 5.75 13 5.15q-.8-.65-1.85-.9-1.15-.45-2.6-.4L9.05 2l.05-.05q.35-1 1-1.5 1.3-.9 2.6 0l1.45 1.4" fill="none" stroke="#000" stroke-linecap="round" stroke-linejoin="round" stroke-opacity=".302" stroke-width=".05"/><path d="M12.45 9.35q-.8 1-2.2.85L8.5 8.75V7.4q3.25-1.6 3.95 1.95" fill="#8d8334" fill-rule="evenodd"/><path d="m8.5 7.4-.3.6m.3-.6q3.25-1.6 3.95 1.95" fill="none" stroke="#000" stroke-linecap="round" stroke-linejoin="round" stroke-opacity=".302" stroke-width=".05"/><path d="M10.8 7q.4.15.7.4l.25.45-.35.25-.7-.15-.7-.35q-.3-.25-.25-.45l.35-.25.7.1" fill="#cdc241" fill-rule="evenodd"/><path d="M13.7 11.65h.4l1.5-.55.55-.2.2-.1.3-.1 1.85-.75.05-.05.15.45-2 1.35-1.85.4-1.2.2-.8.1h-.1l-.75.05v-.8h1.7" fill="#b78635" fill-rule="evenodd"/><path d="m13.9 18.6-2.15.35q-.3-.25-.6-.35l-.2-.1 2.95.1" fill="#7a6b3b" fill-rule="evenodd"/><path d="m11.7 12.45-1.1-.25-1.7-.3.15-.15 2.7-.1H12v.8h-.3" fill="#cf973c" fill-rule="evenodd"/><path d="m9.05 11.75-.15.15h-.05l-1.5-.3 1.7.15" fill="#8a6328" fill-rule="evenodd"/><path d="M9.95 7.05q1.3.85 2.55 2.6-1-.85-.4.5l-2.75.05q-2.05-.55-4 .05l-.05-.1-.4-.4h-.05q-.45-1-1.45-.5.1-.25-.35-.5l3.5-1.4 3.4-.3m5.65 4.05q.4-.8 0-1.2.15-.25.35-.2l.2 1.2-.55.2" fill="#b0482d" fill-rule="evenodd"/><path d="M9.95 7.05h.35l1.15.15 1.35 1.15 3.85.7 1.9.85-.05.05-1.85.75q-.35-.9-.7-1-.2-.05-.35.2.4.4 0 1.2l-1.5.55h-.4l-1.2-2q-1.25-1.75-2.55-2.6" fill="#843621" fill-rule="evenodd"/><path d="m12.5 9.65 1.2 2h-1.35q-1.5-1-3-1.45l2.75-.05q-.6-1.35.4-.5m3.45.05q.35.1.7 1l-.3.1-.2.1-.2-1.2" fill="#eb613d" fill-rule="evenodd"/><path d="M12 11.65h-.25l-2.7.1-1.7-.15-.2-.05-.6-.2-1.2-1.1q1.95-.6 4-.05 1.5.45 3 1.45H12" fill="#7c3625" fill-rule="evenodd"/><path d="m5.3 17.65-2.15-.6-.35-.2q-.55-.3-.8-.6l-.25-.85-.15-.8-.05-.2-.1-.95v-1.2l.15-1.75.05-.05q.45-.85.5-1.95l.9.25q.45.25.35.5 1-.5 1.45.5h.05l.4.4.05.1 1.2 1.1.6.2.2.05 1.5.3h.05l1.7.3 1.1.25q.55.3.5 1.8l.05.2q.6 2.05-.1 3.9l-.9-.1q-1.35-.6-3.4-.85H6.2l-.25.05-.65.2" fill="#ac9d00" fill-rule="evenodd"/><path d="m18.7 10.35.45 1.2-.45.5-.1.7-1.2 3.85q-1.25 1-2.5 1.6l-1 .4-2.95-.1q-1.55-.65-4.15-.7l-1.5-.15.65-.2.25-.05h1.65q2.05.25 3.4.85l.9.1q.7-1.85.1-3.9l-.05-.2q.05-1.5-.5-1.8h.3l.75-.05h.1l.8-.1 1.2-.2 1.85-.4 2-1.35m-.65 2.35.65-.65-.65.65" fill="#897e00" fill-rule="evenodd"/><path d="M9.95 7.05q1.3.85 2.55 2.6m1.2 2h.4l1.5-.55q.4-.8 0-1.2.15-.25.35-.2.35.1.7 1l1.85-.75.05-.05.15.45.45 1.2-.45.5-.1.7-1.2 3.85q-1.25 1-2.5 1.6l-1 .4-2.15.35q-.3-.25-.6-.35l-.2-.1q-1.55-.65-4.15-.7l-1.5-.15-2.15-.6m-.35-.2q-.55-.3-.8-.6l-.25-.85-.15-.8-.05-.2-.1-.95v-.8m10.55-1h-.25l-2.7.1m-1.7-.15-.2-.05-.6-.2-1.2-1.1-.05-.1-.4-.4m7.1 1.9h1.7m2.45-.75.2-.1.3-.1m-1.05.4.55-.2m2.55 1.15-.65.65m-10.7-1.1 1.7.15" fill="none" stroke="#000" stroke-linecap="round" stroke-linejoin="round" stroke-opacity=".302" stroke-width=".05"/><path d="M7.05 14.05q-.7.65-1.1 1.5l-.3.8-1-.1-.4-1.05 1.1-1.4 1.7.25m3 .4 1.35.15-.65 1.85-.8.05-.2-.65.3-1.35v-.05" fill="#7a6b3b" fill-rule="evenodd"/><path d="m17.85 8 .05-.05V8h-.05" fill="#822350" fill-rule="evenodd"/><path d="M17.9 7.95q.15-.4.65-.95.55-.7 1.1-.9l-.05.55-.1.8v.1q-.2.9-.75.9l-.55-.2-.3-.25v-.05" fill="#352b13" fill-rule="evenodd"/><path d="M17.15 6.65V6.6q.3-.6 1.1-1.3l1.45-.8.25.05.05.05v.05l.25.8-.05 2.3-.1.35-.05.2-.25.5-.55.2-.9-.3q-.3-.25-.45-.7l.3.25.55.2q.55 0 .75-.9v-.1l.1-.8.05-.55q-.55.2-1.1.9-.5.55-.65.95l-.05.05-.05.2-.65-1.55" fill="#ac9d00" fill-rule="evenodd"/><path d="m20.1 8.1.1-.35.05-2.3-.25-.8V4.6l-.05-.05-.25-.05-1.45.8q-.8.7-1.1 1.3v.05m.65 1.55.05-.2.05-.05q.15-.4.65-.95.55-.7 1.1-.9" fill="none" stroke="#332720" stroke-linecap="round" stroke-linejoin="round" stroke-opacity=".2" stroke-width="1.5"/><path d="m4.1 13.3 2.5.2.3.05-.45.8q-.3.7-2 2 .05-2.05-.35-3.05" fill="#f0efa8" fill-rule="evenodd"/><path d="M4.1 13.3q.4 1 .35 3.05L4 16.1q-1.05-1.85-.75-3.3l.55.45.3.05" fill="#ffffd2" fill-rule="evenodd"/><path d="M4.45 16.35q1.7-1.3 2-2l.45-.8-.3-.05-2.5-.2M4 16.1q-1.05-1.85-.75-3.3m.55.45.3.05" fill="none" stroke="#000" stroke-linecap="round" stroke-linejoin="round" stroke-opacity=".302" stroke-width=".05"/><path d="m9.7 13.45 1.85.2.25.05q-.15.05-.35.8-.25.7-1.5 2 .05-2.05-.25-3.05" fill="#f0efa8" fill-rule="evenodd"/><path d="M9.7 13.45q.3 1 .25 3.05l-.3-.25q-.8-1.85-.6-3.3l.45.45.2.05" fill="#ffffd2" fill-rule="evenodd"/><path d="M9.95 16.5q1.25-1.3 1.5-2 .2-.75.35-.8l-.25-.05-1.85-.2m-.05 2.8q-.8-1.85-.6-3.3m.45.45.2.05" fill="none" stroke="#000" stroke-linecap="round" stroke-linejoin="round" stroke-opacity=".302" stroke-width=".05"/><path d="m11.6 14.9-.05-.3.2.45-.15-.15" fill="#9a275b" fill-rule="evenodd"/><path d="M12.45 16.05h-.05V16l.05.05" fill="#686742" fill-rule="evenodd"/><path d="m11.65 14.95-.05-.05m.85 1.15h-.05V16" fill="none" stroke="#000" stroke-linecap="round" stroke-linejoin="round" stroke-opacity=".2" stroke-width=".05"/><path d="m18.85 7.4.9.9q.55 1.85.05 3.35l.05.15.8 1.45q-2.75 1.95-5.15 2.2l-3.05.55h-.05l-.65-.95-.2-.45-.05-.85 1.35-2.5.5-1.65h.05l4.7-1.2.75-1" fill="#dbd200" fill-rule="evenodd"/><path d="m1.5 6.75.25-.3 7.7-2.95 2.05.9h.05q3.1 1.45 6.95 2.6l.35.4-.75 1-4.7 1.2h-.5l-.05-.05Q9 9.3 1.5 6.75" fill="#ac9d00" fill-rule="evenodd"/><path d="m11.55 14.6.05.3q-2.35-1.35-5.9-1.85-1.65-.1-2.7-.8-1.5-1-1.85-3.25H1.1l-.05-.5q0-1.05.45-1.75Q9 9.3 12.85 9.55l.05.05h.45l-.5 1.65-1.35 2.5.05.85" fill="#897e00" fill-rule="evenodd"/><path d="M11.6 14.9q-2.35-.8-4.05-.85L4.7 13.8q-1.5-.45-2.55-1.5-.95-1.6-1.05-3.25L1.15 9Q1.5 11.25 3 12.25q1.05.7 2.7.8 3.55.5 5.9 1.85" fill="#6a6300" fill-rule="evenodd"/><path d="m18.85 7.4.9.9q.55 1.85.05 3.35l.05.15.8 1.45q-2.75 1.95-5.15 2.2l-3.05.55m-.05 0-.65-.95-.2-.45m.05.3q-2.35-.8-4.05-.85L4.7 13.8q-1.5-.45-2.55-1.5-.95-1.6-1.05-3.25m0-.05-.05-.5q0-1.05.45-1.75l.25-.3 7.7-2.95 2.05.9h.05q3.1 1.45 6.95 2.6l.35.4z" fill="none" stroke="#000" stroke-linecap="round" stroke-linejoin="round" stroke-opacity=".2" stroke-width=".05"/><path d="m12 9.9-.05-.1-.2-.75V8.5q1.85.8.45 1.8l-.2-.4" fill="#4a3c1a" fill-rule="evenodd"/><path d="m11.75 8.5 1.7.05 1 .6-.5.55-.8.65-.95-.05q1.4-1-.45-1.8" fill="#352b13" fill-rule="evenodd"/><path d="m11.15 7.1.1-.1v-.05l.35-.2 2.15-.3q1.25.15 1.7.6l-.05.05q.05 1.6-.9 2.2l-.05-.1v-.05l-1-.6-1.7-.05v.55l.2.75.05.1h-.15l-.75-.7L11 8l.15-.9" fill="#dbd200" fill-rule="evenodd"/><path d="M11.15 7.1 11 8l.1 1.2.75.7H12l.2.4.95.05.8-.65.5-.55v.05l-.75 1.15-1.25 1-.8.2q-.25-.05-.5-.3l-.15-.6q-.45-1.15-.2-2.45l.35-1.1" fill="#897e00" fill-rule="evenodd"/><path d="m15.4 7.1.05-.05q-.45-.45-1.7-.6l-2.15.3-.35.2V7l-.1.1m.6 1.4 1.7.05 1 .6v.05l.05.1m-3.4 1.75-.1-.4q-.45-1.15-.2-2.45l.35-1.1" fill="none" stroke="#332720" stroke-linecap="round" stroke-linejoin="round" stroke-opacity=".2" stroke-width=".05"/><path d="m7.9 11.1.25-.3q.65-.9.65-2.15 0-1.5-1.05-2.6Q6.65 5 5.15 5t-2.6 1.05l-.85 1.4.1-.3q-.3.7-.3 1.5 0 1.55 1.05 2.6 1.1 1.15 2.6 1.15 1 0 1.8-.5l.8-.65.15-.15m-6-5.7q1.35-1.3 3.05-1.3 1.9 0 3.2 1.3Q9.4 6.7 9.4 8.55q0 1.45-.8 2.55l-.25.35-.2.2-.95.75q-.95.6-2.25.6-1.7 0-3.05-1.35Q.65 10.4.65 8.55q0-.95.4-1.85l.35-.65.5-.65" fill="#4a3c1a" fill-rule="evenodd"/><path d="m7.9 11.1-.15.15-.8.65q-.8.5-1.8.5-1.5 0-2.6-1.15Q1.5 10.2 1.5 8.65q0-.8.3-1.5l-.1.3q3.1.7 6.2 3.65" fill="#dad967" fill-rule="evenodd"/><path d="m1.7 7.45.85-1.4Q3.65 5 5.15 5t2.6 1.05q1.05 1.1 1.05 2.6 0 1.25-.65 2.15l-.25.3Q4.8 8.15 1.7 7.45" fill="#9c8d3a" fill-rule="evenodd"/><path d="m1.7 7.45.85-1.4Q3.65 5 5.15 5t2.6 1.05q1.05 1.1 1.05 2.6 0 1.25-.65 2.15l-.25.3-.15.15-.8.65q-.8.5-1.8.5-1.5 0-2.6-1.15Q1.5 10.2 1.5 8.65q0-.8.3-1.5z" fill="none" stroke="#718b05" stroke-linecap="round" stroke-linejoin="round" stroke-opacity=".4" stroke-width=".3"/><path d="M8.2 8.7q.45.35.5.95.05.65-.3 1.25-.25.6-.7.85l-.9-.15q-.4-.25-.45-.9-.05-.6.25-1.35l.8-.7.8.05" fill-rule="evenodd"/><path d="m6.65 9.1.35.35-.15.45-.5.35-.65-.1-.35-.35q-.05-.2.2-.45l.55-.25h.55" fill="#fdf8e8" fill-rule="evenodd"/><path d="M8.9 5.15h-.05.05" fill="#a89b3e" fill-rule="evenodd"/><path d="m8.85 5.15.1.1q1.3 1.4 1.35 2.4l.05.2q-.7 1.5-1.65.1-.3-1.9-1.6-3.05-.1-.75 1.75.25" fill="#dbd200" fill-rule="evenodd"/><path d="m10.4 7.85.1.7-.05.25Q9.5 9.9 8.2 8.05q-1.4-1.8-3.35-3-2-.75-1.3-2.4.9-1 3.35.2 1 .9 2 2.3h-.05Q7 4.15 7.1 4.9q1.3 1.15 1.6 3.05.95 1.4 1.65-.1h.05" fill="#ac9d00" fill-rule="evenodd"/><path d="m10.45 8.8-.5.95q-1.35-.5-2.6-1.55L4.8 6.4q-1.6-.95-3.55-1.5.15-1.1.6-1.9l.1-.05q.5-.85 1.45-1.15 1.75-.5 3.5 1.05-2.45-1.2-3.35-.2-.7 1.65 1.3 2.4 1.95 1.2 3.35 3 1.3 1.85 2.25.75" fill="#6a6300" fill-rule="evenodd"/><path d="m10.4 7.85.1.7-.05.25-.5.95q-1.35-.5-2.6-1.55L4.8 6.4q-1.6-.95-3.55-1.5.15-1.1.6-1.9l.1-.05q.5-.85 1.45-1.15 1.75-.5 3.5 1.05 1 .9 2 2.3" fill="none" stroke="#000" stroke-linecap="round" stroke-linejoin="round" stroke-opacity=".302" stroke-width=".05"/><path d="M5.8 13.45q-1.1.7-3 0l-2.4-2.4V9.6q4.4-.45 5.4 3.85" fill="#897e00" fill-rule="evenodd"/><path d="m.4 9.6-.4.45m.4-.45q4.4-.45 5.4 3.85" fill="none" stroke="#000" stroke-linecap="round" stroke-linejoin="round" stroke-opacity=".302" stroke-width=".05"/><path d="m3.55 10.1.9.7.35.6q-.05.25-.45.15l-.95-.45-1-.7-.3-.6.45-.1 1 .4" fill="#cdc241" fill-rule="evenodd"/></g></defs></svg>