<svg viewBox="0 0 54.504 53.251" xmlns="http://www.w3.org/2000/svg" xmlns:xlink="http://www.w3.org/1999/xlink"><g transform="translate(-373.02 -273.98)"><use transform="translate(373 273.65)" width="54.5" height="53.6" xlink:href="#a"/><use transform="translate(388.75 294.9)" width="28.15" height="25.45" xlink:href="#b"/><use transform="matrix(.0831 -.0513 -.0246 -.331 410.26 310.19)" width="27.8" height="9.15" xlink:href="#c"/><use transform="matrix(-.1274 -.0306 -.005 -.3021 397.99 312.02)" width="27.8" height="9.15" xlink:href="#c"/><use transform="matrix(-.1133 .0312 -.0716 .2095 413.05 314.1)" width="27.8" height="9.15" xlink:href="#c"/><use transform="matrix(-.0891 -.0307 .0035 -.1936 397.97 317.87)" width="27.8" height="9.15" xlink:href="#c"/><use transform="translate(395.7 297.95)" width="10.65" height="5" xlink:href="#d"/></g><defs><g id="e"><path d="m12.1-14.05.75 1.5-.15.15-.3.1-1.2.35-.3-.5.05-.1q1-.7 1.15-1.5m1.35 2.2q2.05 1.1 2.7 3.2l-1.35.55-.9.3-.6-.1-1.2-2.45v-.05l.1-.2 1.25-1.25m3.1 3.6v.05l.5.65h.05q1.35-.65 3.35-.9Q22.5-8.6 21.8-7l-3.3 2.35-.15.25q-.35.55.05 1.7L19.6.05h-.05L18.6-.5l-.8-.3-1 .7-1.9-4.4.6-.8q-.55-.3-.7-.7-.2-.55.7-1.35l1.05-.9M21.4-4.5q2.35 1.15 4.1 3.45V-1l-.75-.35-.7-.3-2.55-1.3q-.25-.8-.1-1.55M11-16.35l.2.45.1.25-.3.2-.3.05-.35-.1-.15-.05-.3-.2v-.05q-.15-.45.35-.6l.75.05M5.85-13.3v-.1q0-.45.6-.7l1.3-.5h.15l.05-.05h.45l.65.5q.25.65-.8 1.15l-.65.25-.95.1q-.65-.05-.8-.45v-.2m-5.7.3 1.65.05q.95.15 1.3.45l.15.2.1.25q0 .45-.6.65l-.8.15-.75-.05q-1.2 0-1.35-.5l.05-.35v-.2l-.05-.3.3-.35M17.1-7.55 15.5-5.3l1.6-2.25m-26-7.05v-.1l-.05-.25V-15l.4-.4q1.2.35 1.35.8v.4l-.2.15H-8q-.65-.15-.9-.55m2.95 1.8-.2-.05-.05-.05.55-.65.65-.05.65.05 1.05.35.3.45q.15.45-.3.6l-1.3-.15-1.25-.5h-.1" fill="#e0b359" fill-rule="evenodd" transform="translate(28.95 29.6)"/><path d="M9.7-17h.65l.85.55.7 1.2q.3.6.2 1.2-.15.8-1.15 1.5l-.05.1-.3.45-1.15.75q-1.45.8-3.4 1.2l-1.35.3q.5-1.85-.25-2.9l-.1-.1-.9-.65.9.65.1.1q.75 1.05.25 2.9l-5.95.2q-5.25.35-5.95-.7l-.9-.95q.15-1.45 1.05-2.4l.4-.45 1-.65.25-.1-.25.1-1 .65-.4.45q-.9.95-1.05 2.4l-.7-.45q-1.25-1.05-.85-2.6l.2-.55 1-1.65 1.6.95 1.45.7q1.8-.45 4.1 1.3l4.75.1 1.9-1.15 2.2-.55.55-.05.3-.05.5.05.65.15q1.5.4 1.4 2.45.1-2.05-1.4-2.45l-.65-.15-.5-.05-.3.05-.55.05.7-.5L9.6-17h.1m3.15 4.45.6.7-1.25 1.25-.1.2-.25-.45-.65-1.1 1.2-.35.3-.1.15-.15m3.3 3.9.4.4-1.05.9q-.9.8-.7 1.35.15.4.7.7l-.6.8-1-2.1-.45-.95-.15-.35.6.1.9-.3 1.35-.55M21.8-7l-.4 2.5q-.15.75.1 1.55l2.55 1.3.7.3.75.35v-.05l.05.05h-.05Q23.05.45 20.65.25l.3 4q-1.9-.95-3.15-2.75l-.3.15-.45-1.1-.25-.65 1-.7.8.3.95.55h.05L18.4-2.7q-.4-1.15-.05-1.7l.15-.25L21.8-7M11-16.35l-.75-.05q-.5.15-.35.6v.05l.3.2.15.05.35.1.3-.05.3-.2-.1-.25-.2-.45M.15-13l-.3.35.05.3v.2l-.05.35q.15.5 1.35.5l.75.05.8-.15q.6-.2.6-.65l-.1-.25-.15-.2q-.35-.3-1.3-.45L.15-13m5.7-.3v.2q.15.4.8.45l.95-.1.65-.25q1.05-.5.8-1.15l-.65-.5h-.45l-.05.05h-.15l-1.3.5q-.6.25-.6.7v.1m10.4 4.75L13.9-6.6l2.35-1.95m-4.4-2.3.85-1.55-.85 1.55M-8.9-14.6q.25.4.9.55h.6l.2-.15v-.4q-.15-.45-1.35-.8l-.4.4v.05l.05.25v.1m2.95 1.8h.1l1.25.5 1.3.15q.45-.15.3-.6l-.3-.45-1.05-.35-.65-.05-.65.05-.55.65.05.05.2.05m4.65-.7-.3.5-.1.25q-.6 1.6.45 3.2-1.05-1.6-.45-3.2l.1-.25.3-.5" fill="#9c7c3e" fill-rule="evenodd" transform="translate(28.95 29.6)"/><path d="M12.65-25.1q.2.7-.25 1.4l-1.2 3.2-.3.65L9.7-17h-.1l-1.35 1.4.9-2.35q1.15-3.2 1.4-4.8v-.05l2.1-2.3m-2.2 2.35.1-.05v.05h-.1m-9 .25.45-.25-.25.4-.2-.15m8 11.25L10.6-12l.3-.45.3.5.65 1.1.25.45v.05h-.05l-.35.05h-.2l-1.15.05-.25.1-.65-1.1" fill="#634521" fill-rule="evenodd" transform="translate(28.95 29.6)"/><path d="m19.1 11.7-.35 2.35.4.25-.75.05-1.1.2q-.85.2-.85.65.1.55 1.05.75l1.6.2.95-.3.1.35q.3 3.15-3.8 1.35Q5 19.35.15 19.35q-4.7-.05-10.25-2.95-6.05-3.1-7.3-6.75l-.95-2.15.05.05q.55.45-.2-.35 2.15 2.2 5.25 4.35Q-7.5 15.8-1.9 15.9q5.55-.05 7.1-1.3t3.1-1.9q1.6-.7 3.65-.5l2.85-.05q.7-.45 2.3-1.1l.2.1q.3 0 .85.3l.95.25M-12.15-9.8l3.35-1.85.7.45.9.95q.7 1.05 5.95.7l5.95-.2 1.35-.3q1.95-.4 3.4-1.2l.65 1.1-.55.2-.2.2-.45.85-2.35 1.5q-2 1.2-5.2 1.5-3.25.3-9.05-1.95-1.8-.65-4.45-1.95m5.3-5.7-1.8-1.85-1.25-1.35q-2.05-2.15-2.75-3.4 6.5 3.1 8.75 3.6 3.95.9 9.65-1.1 2.4-.85 4.7-3.15h.1q-.25 1.6-1.4 4.8l-.9 2.35-.7.5-2.2.55-1.9 1.15-4.75-.1q-2.3-1.75-4.1-1.3l-1.45-.7M5.7-22.55l-1.3.75q-1.8.85-3.6.65l-1.05-.05-5.35-.95q-3.05-.65-3.75-2-.65-1.35.75-2.15l.7-.3-.35.65.05.9q.55 1.65 4.55 2.45l4.15.45.95-.35.2.15-.85 1.2.85-1.2.25-.4.55-.5q.3.85 1.85.85l1.4-.15m11.6 37.1q.2-1.6 0-3.4.2 1.8 0 3.4" fill="#705739" fill-rule="evenodd" transform="translate(28.95 29.6)"/><path d="m1.9-22.75.4-.6.15.1-.55.5m15.2 33.8h.2v.1l-.2-.1" fill="#8c622f" fill-rule="evenodd" transform="translate(28.95 29.6)"/><path d="M-12.65-22.1q-.6-.9-.6-1.3 0-1.15 2.1-3l3.85-2.75 4.7-.1 5.25 1.5L4-27.5l2.9-.3 3-.3q1.25.3 2.25 1.65l.5 1.35-2.1 2.3-.1.05q-2.3 2.3-4.7 3.15-5.7 2-9.65 1.1-2.25-.5-8.75-3.6M17.5 1.65q1.05 2.75 1.55 6.4.2 1.55.05 3.65l-.95-.25q-.55-.3-.85-.3v-.1Q16.9 7 15.25 2.1l-.3-.95L13.8-1.9l-1.7-3.95-.6-1.3-.8-1.7-.05-.1-.55-1.2.25-.1 1.15-.05h.2l.35-.05h.05l1.2 2.45.15.35.45.95 1 2.1 1.9 4.4.25.65.45 1.1m1.65 12.65.35.35q.45.45.55 1.2l-.95.3-1.6-.2q-.95-.2-1.05-.75 0-.45.85-.65l1.1-.2.75-.05m-37.5-6.8q-.5-.6-.75-3.2-.25-2.8 2.35-7.85 2.55-5.1 4.6-6.25Q-9.5-8.5-7.7-7.85-1.9-5.6 1.35-5.9q3.2-.3 5.2-1.5L8.9-8.9l.45-.85.2-.2.55-.2.55 1.2.05.1.8 1.7.6 1.3 1.7 3.95 1.15 3.05.3.95Q16.9 7 17.3 11.05h-.2q-1.6.65-2.3 1.1l-2.85.05q-2.05-.2-3.65.5-1.55.65-3.1 1.9t-7.1 1.3q-5.6-.1-11.35-4.35-3.1-2.15-5.25-4.35l.15.3-.15-.3q.75.8.2.35l-.05-.05M5.7-22.55 7.35-24l2.2-.5.6.3q.45.25.4 1.4.05-1.15-.4-1.4l-.6-.3-2.2.5-1.65 1.45-1.4.15q-1.55 0-1.85-.85l-.15-.1-.4.6-.45.25-.95.35-4.15-.45q-4-.8-4.55-2.45l-.05-.9.35-.65-.7.3q-1.4.8-.75 2.15.7 1.35 3.75 2l5.35.95 1.05.05q1.8.2 3.6-.65l1.3-.75M3.1-24.5l-.8 1.15.8-1.15m2.45-1.8q5.5-.7 1.8 2.3 3.7-3-1.8-2.3M19.5 14.65l-2.1.4h-.05l-.05-.5.05.5h.05l2.1-.4" fill="#8c6d47" fill-rule="evenodd" transform="translate(28.95 29.6)"/><path d="M16.3 7.5q-.6-.9-.6-1.3 0-1.15 2.1-3L21.65.45l4.7-.1 5.25 1.5 1.35.25 2.9-.3 3-.3q1.25.3 2.25 1.65l.5 1.35q.2.7-.25 1.4l-1.2 3.2-.3.65-1.2 2.85h.65l.85.55.7 1.2q.3.6.2 1.2l.75 1.5.6.7q2.05 1.1 2.7 3.2l.4.4m0 .05.5.65h.05q1.35-.65 3.35-.9 2.05-.15 1.35 1.45l-.4 2.5q2.35 1.15 4.1 3.45l.05.05h-.05Q52 30.05 49.6 29.85l.3 4q-1.9-.95-3.15-2.75l-.3.15Q47.5 34 48 37.65q.2 1.55.05 3.65l-.35 2.35.4.25.35.35q.45.45.55 1.2l.1.35q.3 3.15-3.8 1.35-11.35 1.8-16.2 1.8-4.7-.05-10.25-2.95-6.05-3.1-7.3-6.75l-.95-2.15q-.5-.6-.75-3.2-.25-2.8 2.35-7.85 2.55-5.1 4.6-6.25l3.35-1.85q-1.25-1.05-.85-2.6l.2-.55 1-1.65 1.6.95-1.8-1.85-1.25-1.35Q17 8.75 16.3 7.5m23.2-.7q.05-1.15-.4-1.4l-.6-.3-2.2.5-1.65 1.45-1.3.75q-1.8.85-3.6.65L28.7 8.4l-5.35-.95q-3.05-.65-3.75-2-.65-1.35.75-2.15l.7-.3m9.8 3.85.4-.6.8-1.15m7.45 1.75V6.8m0 .05q-.25 1.6-1.4 4.8L37.2 14l1.35-1.4h.1m1.25 4.45q1-.7 1.15-1.5m-1.2 1.6.05-.1Q40 15 38.5 14.6l-.65-.15-.5-.05-.3.05-.55.05-2.2.55-1.9 1.15.9.65.1.1q.75 1.05.25 2.9l1.35-.3q1.95-.4 3.4-1.2l1.15-.75.3-.45.3.5m1.5-.45.15-.15m-11.2-9.8.25-.4m-1.1 1.6.85-1.2M37.2 14l-.7.5m2.55 4.95-.65-1.1m2.65.9v-.05l-.25-.45-.65-1.1m4.3 6.65 1.6-2.25m.2 18.6q-.4-4.05-2.05-8.95l-.3-.95-1.15-3.05-1.7-3.95-.6-1.3-.8-1.7-.05-.1-.55-1.2m3.2 2.25.15.35.45.95 2.35-1.95m-2.95.65-1.2-2.45m4.7 10.25.25.65.45 1.1m-2.6-6.15.6-.8m1.3 5.2-1.9-4.4-1-2.1m-1.2-5.8-.85 1.55M36.3 5.6q3.7-3-1.8-2.3M20.85 18.4Q21 16.95 21.9 16l.4-.45 1-.65.25-.1-1.45-.7m5.6 5.95q-1.05-1.6-.45-3.2l.1-.25.3-.5q-2.3-1.75-4.1-1.3m-2.7 3.6.9.95q.7 1.05 5.95.7l5.95-.2m-13.5-1.9.7.45m-10.4 18.4.15.3.05.05q.55.45-.2-.35m35.8 3.85v.1q.2 1.8 0 3.4l.05.5h.05l2.1-.4M32.4 16.2l-4.75-.1" fill="none" stroke="#362a1b" stroke-linecap="round" stroke-linejoin="round" stroke-opacity=".502" stroke-width=".05"/><path d="m15.1 11.75 3.45-1.3.1 1.75-3.5.3-.05-.75" fill="#704e26" fill-rule="evenodd" transform="translate(28.95 29.6)"/><path d="m44.05 41.35.05.75 3.5-.3-.1-1.75z" fill="none" stroke="#000" stroke-linecap="round" stroke-linejoin="round" stroke-opacity=".502" stroke-width=".05"/><path d="m18.55 8.15-3.45 1.3L15 7.7l3.5-.3.05.75" fill="#704e26" fill-rule="evenodd" transform="translate(28.95 29.6)"/><path d="m47.5 37.75-.05-.75-3.5.3.1 1.75z" fill="none" stroke="#000" stroke-linecap="round" stroke-linejoin="round" stroke-opacity=".502" stroke-width=".05"/><path d="m12.9-7.8-2.25 1.9-.6-1.65 2.6-.95.25.7" fill="#704e26" fill-rule="evenodd" transform="translate(28.95 29.6)"/><path d="m41.85 21.8-.25-.7-2.6.95.6 1.65z" fill="none" stroke="#000" stroke-linecap="round" stroke-linejoin="round" stroke-opacity=".502" stroke-width=".05"/><path d="m9.85-17.05-2.2.95-.1-1.35 2.3-.2v.6" fill="#704e26" fill-rule="evenodd" transform="translate(28.95 29.6)"/><path d="M38.8 12.55v-.6l-2.3.2.1 1.35z" fill="none" stroke="#000" stroke-linecap="round" stroke-linejoin="round" stroke-opacity=".502" stroke-width=".05"/><path d="m11.05-24.05-2.25 1.9-.6-1.65 2.6-.95.25.7" fill="#704e26" fill-rule="evenodd" transform="translate(28.95 29.6)"/><path d="m40 5.55-.25-.7-2.6.95.6 1.65z" fill="none" stroke="#000" stroke-linecap="round" stroke-linejoin="round" stroke-opacity=".502" stroke-width=".05"/><path d="M-27.75 18.7q-.15.2.1.9.25.65 1.9.9l3.2.45 3.15.05 4.85-.8q3.25-.7 4.65-2.75l1.35 1.4Q-7.5 22.5-18.9 23q-10-.4-9.65-3.55l.8-.75" fill="#deb185" fill-rule="evenodd" transform="translate(28.95 29.6)"/><path d="M-9.9 17.45q-1.4 2.05-4.65 2.75l-4.85.8-3.15-.05-3.2-.45q-1.65-.25-1.9-.9-.25-.7-.1-.9 4.75-3.75 7.3-7.1 2.2-2.4 3.7-1.35l6.85 7.2" fill="#fc9" fill-rule="evenodd" transform="translate(28.95 29.6)"/><path d="M-8.95 17.5q.45.55-.1.95l-.2.15q-.65.4-1.05-.2-.45-.65.25-1.1l.85-.05.25.25m-3.45-2.65q-.75.4-1-.25-.3-.7.2-1.05.45-.4 1 .25.55.6-.2 1.05m1.7.45q.3.65-.4 1.05-.65.4-.9-.25-.2-.65.4-1.05.55-.4.9.25m-4.1-1.85q-.25-.65.4-1.05.7-.35 1 .25.35.55-.45 1-.75.45-.95-.2m4.5 7.85.75.1q.25.45-.2.75l-.7-.1q-.3-.45.15-.75m-2.95 1.3q-.25-.7.45-1.05.7-.4 1.05.2t-.45 1.1q-.8.45-1.05-.25m-1.05-.25q.45.55-.15.9t-.8-.25q-.25-.55.15-.85.35-.3.8.2m5.25-1.95q-.15-.45.25-.7.4-.3.65.15.2.45-.25.7-.5.3-.65-.15m-11.55-8.2q.35.6-.45 1.1-.8.45-1.05-.25t.45-1.05q.7-.4 1.05.2m.25-2.25q.55-.5 1.25.15 0-.45.45-.75.55-.4.9.25.3.65-.4 1.05l-.45.15q.15.6-.6 1-1.05.6-1.4-.35t.25-1.5m3.3 1.5q-.45-.65.25-1.1.65-.45 1.05.2t-.25 1.1q-.65.4-1.05-.2m-9.3 5.15.75-.05q0-.45.4-.7.55-.4.85.2t-.35 1l-.25.15q.3.55-.45.95-.85.5-1.15-.3-.35-.8.2-1.25m-.9 1.9q.35.55-.45 1-.75.45-.95-.2-.25-.65.4-1.05.7-.35 1 .25m.35 4.35q-.25-.8.45-1.3.7-.45 1.1.3.4.8-.45 1.3-.85.45-1.1-.3m-1.9-1.8q-.35-.55.25-.95.55-.45.9.15.35.55-.2.95-.55.35-.95-.15m5.75-7.05q.8-.55 1.25.2.5.8-.3 1.3-.75.5-1.25-.2-.5-.75.3-1.3m1.45 8.95q-.15-.4.25-.6.35-.2.55.15.2.3-.25.55l-.55-.1m-2.75.2q-.3-.75.25-1.2.5-.45 1.1.25.65.75-.2 1.25-.85.45-1.15-.3m6.75.2q-.25-.85.5-1.4.75-.5 1.2.35.45.8-.5 1.35-.9.55-1.2-.3m-1.15-.8q.45.75-.3 1.25-.75.45-1.2-.25-.5-.7.25-1.25.75-.5 1.25.25" fill="#deb185" fill-opacity=".502" fill-rule="evenodd" transform="translate(28.95 29.6)"/></g><g id="b"><path d="m394.2 310.4.3-.2q3.7-2 8.6-2.2l6 .6 2.3.9q2.1 1.15 2.9 2.85l-.05-.2.1-.4-.05-.2q-.05-1.2-.9-2.2-.85-1.1-2.25-1.8-1.1-.55-2.25-.85-2.65-.85-6.05-.7-4.85.2-8.45 2.1l-.2.15q-3.7 2-3.85 4.5v.85l.3 1q.35-2.35 3.55-4.2" fill="#332609" fill-rule="evenodd" transform="translate(-388.75 -294.9)"/><path d="M5.45 15.5q-3.2 1.85-3.55 4.2l-.3-1v-.85q.15-2.5 3.85-4.5l.2-.15m14.5-1.4q1.15.3 2.25.85 1.4.7 2.25 1.8.85 1 .9 2.2l.05.2-.1.4.05.2q-.8-1.7-2.9-2.85l-2.3-.9" fill="none" stroke="#000" stroke-linecap="round" stroke-linejoin="round" stroke-opacity=".302" stroke-width=".05"/><path d="m391.1 314.6-.55-.85-.1-.15-.05-.3.1 1.15.1.55q.15.75.55 1.3l-.05-1.7m22.4-.65-1.35 1.4-.4 2.45 1.15-.85.6-3m-13.65 4.25-4-.7-2.5-1.1-.15-.05-.75-.45q-.45 1.2-.05 1.8l1.2.8 2 .85 4.2.9q-.4-.55.05-2.05" fill="#cd8f01" fill-rule="evenodd" transform="translate(-388.75 -294.9)"/><path d="m390.45 313.6.1.15.55.85 1.35 1.3.75.45.15.05 2.5 1.1 4 .7 1.85.1h.05l.6-.05 3.35-.35h.1l1.35-.35 1.5-.4q.25.5-.6 2.1l-.1.25.4-.1.75-2.45.55-.25-.8 2.5.55-.2-.1-.2q-.2-.6.65-2.25l.45-.25.95-.45.8-.5 1.35-1.4.15-.15q.55-.85.7-1.7v-.2l-.25-.05q-.05.65-.7 1.85l-.4.45-1.65 1.4-.9.55-.45.2-.35.15-.55.3-.4.15-1.5.45-1.35.3h-.1l-3.4.35-.55.05h-.05l-1.9-.05-3.95-.75q-1.4-.4-2.5-1.05l-.15-.05-.75-.5-1.35-1.3-.7-.75" fill="#ffff2f" fill-rule="evenodd" transform="translate(-388.75 -294.9)"/><path d="m412.15 315.35-.8.5q-.65 1.6-.45 2.25l.1.15.75-.45.4-2.45m-5 2.2-1.35.35-.45 2.15h.15l.4-.25 1.25-2.25m-4.8.7-.6.05h-.05l-1.85-.1q-.45 1.5-.05 2.05h2.15l.55.1q-.6-.4-.15-2.1" fill="#e6b100" fill-rule="evenodd" transform="translate(-388.75 -294.9)"/><path d="m411.35 315.85-.95.45-.45.25q-.85 1.65-.65 2.25l.1.2 1.3-.6.3-.15-.1-.15q-.2-.65.45-2.25m-3.4 3.65.1-.25q.85-1.6.6-2.1l-1.5.4-1.25 2.25-.4.25 2.45-.55" fill="#fdbe2d" fill-rule="evenodd" transform="translate(-388.75 -294.9)"/><path d="m391.1 314.6.05 1.7 1.25 1.4q-.4-.6.05-1.8l-1.35-1.3m23.25-2.7v.2q-.15.85-.7 1.7l-.15.15-.6 3q.9-.85 1.25-1.7l.05-.25v-.05l.2-1.45-.05-1.6m-8.55 6h-.1l-3.35.35q-.45 1.7.15 2.1l2.35-.2.4-.1h.1l.45-2.15" fill="#b17c01" fill-rule="evenodd" transform="translate(-388.75 -294.9)"/><path d="m408.85 319.2.8-2.5-.55.25-.75 2.45.5-.2" fill="#ffffc4" fill-rule="evenodd" transform="translate(-388.75 -294.9)"/><path d="M2.4 21.4q-.4-.55-.55-1.3l-.1-.55-.1-1.15m19 5.7-.55.2m-.5.2-.4.1m6.45-6L25.6 17m-1.45 5.05q.9-.85 1.25-1.7l.05-.25m-3.2 3.25.75-.45 1.15-.85m-7.4 3.1 2.45-.55m-5.45.85 2.35-.2.4-.1m3.1-.65.5-.2m.55-.2 1.3-.6.3-.15m-18.6-.55 1.2.8 2 .85 4.2.9h2.15l.55.1M2.4 21.4l1.25 1.4" fill="none" stroke="#000" stroke-linecap="round" stroke-linejoin="round" stroke-opacity=".302" stroke-width=".05"/><path d="m399.5 297.25-1.7.05q-1.8.45-2.8 1.35l-.75.85 1.8-.2 1.15.15h.05q1.3-.85 2.75-.8l-.5-1.4m3.8.3-.05.9q.85.4 1.6.75l.75-.6q-.45-.7-2.3-1.05m8.05 10.8q-2.05 3.9-7.3 3.95-5.2.2-6.1-5.5l.75-1.4q6.05 1.7 9.6-.7l2.1.25-.45-.75q-.55-.85-1.45-1.4h-.15q-.2.1-.45.3-5.35-.15-9.65 1.75-.7.7-1.1 1.75-.35 1-.45 2.15.45 5.5 2.25 6.65l1.1.25.2.05 1.05.2q3.1.45 5.5-.05l1.7-.5.35-.15q1-.7 1.7-2.65.55-1.45.9-3.5V309l-.1-.45v-.2" fill="#f3ecc7" fill-rule="evenodd" transform="translate(-388.75 -294.9)"/><path d="M394.25 299.5q-.7.2-1.3.55l-.7.45h-.05.05q-.05 2.1 1.25 3.85 1.1 1.4 2.6 1.95l1.05-1.85q-2.9-2.65 0-4.95l.1-.05h-.05l-1.15-.15-1.8.2m5.25-2.25.5 1.4.9.3 2.35-.5.05-.9q-1.75-.8-3.8-.3m11.85 11.1v.2l.1.45v.25l.55 4.55.2.05h.05q2.75-1.65 3.05-7.45-1.35-7-6.55-5.2v1.4l-.4.2h.15q.9.55 1.45 1.4l.45.75q.7 1.25.9 3.05l.05.35" fill="#e98103" fill-rule="evenodd" transform="translate(-388.75 -294.9)"/><path d="m398.85 295.75.4 1.1h.05l4.05.1.3-2.05-4.8.85m-.25 4h-.05q-1.75 1.85.85 3.5l2.2-.75-1.4-2.15-1.6-.6m4.65-1.3-2.35.5-.7.15.3.6 2.7-.25.05-1m2.9-.15-.55.3q1.9 1.45 2.55 2.75l.6-.15q5.2-1.8 6.55 5.2-.3 5.8-3.05 7.45h-.05l-.2-.05-.55-4.55q.15 1.95-.1 4.3l-.2 1.85-.1.95 1.2-.75 1.4-1.9q1.6-2.6 1.9-5.8l.1-2.5q-.05-2.65-2.15-5.4l-1.3-1.6-.05-.1h-.05q-3.55-1.25-5.95 0" fill="#b85e03" fill-rule="evenodd" transform="translate(-388.75 -294.9)"/><path d="M399.3 296.85h-.05l-.4-1.1-3.15.9h-.25l-.3.1 4.15.1m4.35-1.95-.3 2.05 2.55 1.1.25.25q2.4-1.25 5.95 0h.05l-.55-.5q-1.75-.9-4.4-.4 1.5-1.65 2.45-1.4l-.45-.3q-1.55-.65-5.55-.8m-11.45 5.6q.2-2.8 2.95-3.75l-.55.15-1.45.4-.5.45-.9.7-.35.4-1.15 1.5q-1.05 1.75-1.4 4.15 1-2 1.5-1.95h.05l.05-.05.15-.2v-.05l.1-.1.1-.15.05-.1.15-.2 1.2-1.2m7.95-1.4-1.55.65 1.6.6 1.4 2.15 1.65-.4.2-1.1 1.4-1.8q-.75-.35-1.6-.75l-.05 1-2.7.25-.3-.6h-.05" fill="#dabe7e" fill-rule="evenodd" transform="translate(-388.75 -294.9)"/><path d="m401.85 310.1 5.1-.25q3.55-.8 3.65-2.5.05-1.85-.75-1.85l-1.3-.15q-2.45 2-5.35 2l-3.5-.2q.55 2.25 2.15 2.95" fill="#fff" fill-rule="evenodd" transform="translate(-388.75 -294.9)"/><path d="m403.25 302.1-1.65.4-2.2.75-1 .7-.5.4-.25.35-.7 1.05-.25.75-.15.5v.4l.15 1.35q.1-1.15.45-2.15.4-1.05 1.1-1.75 4.3-1.9 9.65-1.75.25-.2.45-.3-.75-.4-1.85-.65-1.25-.3-3.25-.05m8.2 6.9v.05q-.35 2.05-.9 3.5-.7 1.95-1.7 2.65 1.4-.65 2.5-1.65.25-2.35.1-4.3V309" fill="#e2cc9c" fill-rule="evenodd" transform="translate(-388.75 -294.9)"/><path d="m403.35 296.95-4.05-.1.2.4q2.05-.5 3.8.3l.05-.6m-3.35 1.7.15.45h.05l.7-.15-.9-.3m-1.45 1.1-1.3-.3-.1.05q-2.9 2.3 0 4.95l-1.05 1.85q-.5 3.65-.25 4.8-.1.05-.25.2-7.2-.75-5.2-8.7v-.05q-.95 1.6-1.6 4.1.05 1.25.4 2.7l.1.4q1.45 4.35 6.35 4.9h.1l.55-5.75.25-1.5v-.4l.15-.5.25-.75.7-1.05.25-.35.5-.4 1-.7q-2.6-1.65-.85-3.5" fill="#cd6907" fill-rule="evenodd" transform="translate(-388.75 -294.9)"/><path d="m399.3 296.85-4.15-.1q-2.75.95-2.95 3.75h.05l.7-.45q.6-.35 1.3-.55l.75-.85q1-.9 2.8-1.35l1.7-.05-.2-.4m.85 2.25-.15-.45q-1.45-.05-2.75.8l1.3.3h.05l1.55-.65m3.2-2.15-.05.6q1.85.35 2.3 1.05l.55-.3-.25-.25-2.55-1.1m6.3-.95q-.95-.25-2.45 1.4 2.65-.5 4.4.4l-1.95-1.8" fill="#e1cc94" fill-rule="evenodd" transform="translate(-388.75 -294.9)"/><path d="m396.55 307.4-.25 1.5v1.9l.2 3.45.7.65 1.75.5q-1.8-1.15-2.25-6.65l-.15-1.35m12.3 7.8-.35.15-1.7.5-.25 1.3q3.35-1 4.6-1.75l.2-1.85q-1.1 1-2.5 1.65" fill="#b19741" fill-rule="evenodd" transform="translate(-388.75 -294.9)"/><path d="M406.8 315.85q-2.4.5-5.5.05l.3 1.5v.05l4.95-.3.25-1.3" fill="#9e873d" fill-rule="evenodd" transform="translate(-388.75 -294.9)"/><path d="m401.3 315.9-1.05-.2-.2-.05-1.1-.25-1.75-.5-.7-.65.2 1.6.25 1.7 1.4.4 3.45.45 4.6-.4q2.45-.5 4.65-1.65l.1-.95q-1.25.75-4.6 1.75l-4.95.3v-.05l-.3-1.5" fill="#88763a" fill-rule="evenodd" transform="translate(-388.75 -294.9)"/><path d="m396.3 308.9-.55 5.75h-.1q-4.9-.55-6.35-4.9.5 1.75 1.45 3.65.6 1.25 1.75 2.2l3.15.1 1.05.15-.2-1.6-.2-3.45v-1.9" fill="#8d4803" fill-rule="evenodd" transform="translate(-388.75 -294.9)"/><path d="M390.4 302.55v.05q-2 7.95 5.2 8.7.15-.15.25-.2-.25-1.15.25-4.8-1.5-.55-2.6-1.95-1.3-1.75-1.25-3.85h-.05l-1.2 1.2-.15.2-.05.1-.1.15-.1.1v.05l-.15.2-.05.05" fill="#d97305" fill-rule="evenodd" transform="translate(-388.75 -294.9)"/><path d="m410.4 304.95-2.1-.25q-3.55 2.4-9.6.7l-.75 1.4q.9 5.7 6.1 5.5 5.25-.05 7.3-3.95l-.05-.35q-.2-1.8-.9-3.05m-8.55 5.15q-1.6-.7-2.15-2.95l3.5.2q2.9 0 5.35-2l1.3.15q.8 0 .75 1.85-.1 1.7-3.65 2.5l-5.1.25" fill="#f9f5e4" fill-rule="evenodd" transform="translate(-388.75 -294.9)"/><path d="m396.7 315.85-1.05-.15-3.15-.1q1.3.95 3.25 1.65l1.2.3-.25-1.7" fill="#643302" fill-rule="evenodd" transform="translate(-388.75 -294.9)"/><path d="M388.8 306.65q.65-2.5 1.6-4.1h-.05q-.5-.05-1.5 1.95l-.05.65v1.5" fill="#988458" fill-rule="evenodd" transform="translate(-388.75 -294.9)"/><path d="m404.85 299.2-1.4 1.8-.2 1.1q2-.25 3.25.05-1.65-1.45-1.65-2.95" fill="#864302" fill-rule="evenodd" transform="translate(-388.75 -294.9)"/><path d="m405.6 298.6-.75.6q0 1.5 1.65 2.95 1.1.25 1.85.65l.4-.2v-1.4l-.6.15q-.65-1.3-2.55-2.75" fill="#a75403" fill-rule="evenodd" transform="translate(-388.75 -294.9)"/><path d="M10.55 1.95h-.05l-.4-1.1L14.9 0l-.3 2.05m-8.2-.2.3-.1m.25 0 3.15-.9m.45 1.1.2.4M4.2 5.15l-.7.45h-.05l-1.2 1.2M9.8 4.85l-1.3-.3h-.05L7.3 4.4m3.95-.65-.5-1.4m3.8.3-.05.9m1.6.75-1.4 1.8-.2 1.1m-1.65.4-1.4-2.15-1.6-.6m4.7-2.2.05-.6m2.8 1.35-.55.3-.75.6m-5.45 4.05-1 .7-.5.4-.25.35-.7 1.05-.25.75-.15.5M.45 14.45Q.1 13 .05 11.75M.1 9.6q.35-2.4 1.4-4.15l1.15-1.5m.35-.4.9-.7m.5-.45L5.85 2M22.6 13.45v.2m-3-5.75h.15q.9.55 1.45 1.4l.45.75q.7 1.25.9 3.05m-15 .9v1.9l.2 3.45.2 1.6m-4.2-.25Q2.6 19.75 2 18.5q-.95-1.9-1.45-3.65m12.3-7.25-2.2.75m-10.6 1.9v1.5m8.15 10.9-.25-1.7m-4.2-.25q1.3.95 3.25 1.65l1.2.3 1.4.4 3.45.45 4.6-.4q2.45-.5 4.65-1.65l1.2-.75 1.4-1.9q1.6-2.6 1.9-5.8l1.35 1.15M22.4 20.5l-.1.95M14.9 0q4 .15 5.55.8l.45.3 1.95 1.8.55.5h-.05q-3.55-1.25-5.95 0m5.3 10.95v-.25m-3.1-6.2q-.75-.4-1.85-.65M26.8 13l.1-2.5q-.05-2.65-2.15-5.4l-1.3-1.6-.05-.1m-.8 15.25-.2 1.85m.2-1.85q.25-2.35.1-4.3" fill="none" stroke="#000" stroke-linecap="round" stroke-linejoin="round" stroke-opacity=".302" stroke-width=".05"/><path d="m413.9 303.5-.75-.8-1.65-.1q-.55.7-.4 2.1l.1.9.7 2.65.4.95q.5.75 1.15.5.8-.3 1.1-1.55l.1-.65q.2-.45-.1-2.25-.35-1.8-.65-1.75" fill="#f29a37" fill-rule="evenodd" transform="translate(-388.75 -294.9)"/><path d="M413.9 303.5q-1.5-3.15-4.45-2.15l-.3 1.2q1.2.55 2.05 3.05l-.1-.9q-.15-1.4.4-2.1l1.65.1.75.8m-2 4.75q.3 1.8.1 4.15l1.85.3q.7-1.95.8-5.2l-.1.65q-.3 1.25-1.1 1.55-.65.25-1.15-.5l-.4-.95" fill="#f08f31" fill-rule="evenodd" transform="translate(-388.75 -294.9)"/></g><g id="f"><path d="m13.55-3.55.35-.25V4l-.35-.2-.4-.15-.1-.05-.75-.35q-3.6-1.4-8.6-1.9.3-.75.05-1.4Q7.5-.75 10.2-1.8l.8-.35L12.65-3l.9-.55" fill="url(#g)" fill-rule="evenodd" transform="translate(13.9 4.6)"/><path d="M-11-1.75V-4.6l.1.05 1.05.55.6.35 1.1.55q2.75 1.5 5.5 2.95l-.3.75-4.9-1.45-1.15-.3-.95-.3-.75-.2-.3-.1M-2.9 1l.05.1.3.4-8.8 2.4-1.2.3-.85.25-.5.1V.45h.1l1.25.05.65.05 1.5.05 7.5.4" fill="url(#h)" fill-rule="evenodd" transform="translate(13.9 4.6)"/><path d="M27.45 1.05 27.8.8m0 7.8-.35-.2m-1.25-.55q-3.6-1.4-8.6-1.9m.05-1.4q3.75-.7 6.45-1.75m.8-.35 1.65-.85M2.9 2.85l.3.1m.75.2.95.3m1.15.3 4.9 1.45m.3-.75Q8.5 3 5.75 1.5M4.65.95 4.05.6M3 .05 2.9 0M11 5.6l-7.5-.4M2 5.15l-.65-.05M.1 5.05H0m0 4.1.5-.1m.85-.25 1.2-.3m1.1-.3 7.7-2.1" fill="none" stroke="#000" stroke-linecap="round" stroke-linejoin="round" stroke-opacity=".153" stroke-width=".05"/><path d="M5.3 1.6h-9.5l-.15-.05-.45-.35-.1-.1-.05-.3.45-.6.3-.25Q0 .3 3.75.1L5.3-.05l.35.3q.4.55-.1 1.15l-.25.2" fill="#8d4803" fill-rule="evenodd" transform="translate(13.9 4.6)"/><path d="M19.2 6.2H9.7l-.15-.05-.45-.35-.1-.1-.05-.3.45-.6.3-.25q4.2.35 7.95.15l1.55-.15.35.3q.4.55-.1 1.15z" fill="none" stroke="#000" stroke-linecap="round" stroke-linejoin="round" stroke-opacity=".302" stroke-width=".05"/></g><g id="d"><path d="m399.05 301.75-1.2 1.2 8.5-1.4-2.55-.75q.35-1 1.75-2.85-2.15 1.25-3.8 1.55l-6.05-.3q2.3 1 3.35 2.55" fill-opacity=".302" fill-rule="evenodd" transform="translate(-395.7 -297.95)"/><path d="m404.3 301.05.1-.15v-.1q.05-.65-.75-1.25-.75-.4-1.9-.5l-.65.1 2.65 2.55.55-.65m-3.3-1.95-1.3.35q-.6.4-.8.95l2.55-.1-.45-1.2m.5 1.4q-1.3.3-1.9 1.4l1.95.4.6.05h.15l-.8-1.85" fill="#ffcf2b" fill-rule="evenodd" transform="translate(-395.7 -297.95)"/><path d="M398.9 301.1v.2q-.05.7.25.95v.1l.75.1 2.7.5-.45-.6-.6-.05-1.95-.4-.05-.1q-.5-.3-.65-.7m4.7 1.4q.8-.4.8-1.05l-.1-.4-.55.65-.15.8" fill="#cd6907" fill-rule="evenodd" transform="translate(-395.7 -297.95)"/><path d="m402.6 302.95.95-.4.05-.05.15-.8-.25.2-1.2.45h-.15l.45.6" fill="#e6b100" fill-rule="evenodd" transform="translate(-395.7 -297.95)"/><path d="m401.1 299.15-.1-.05.45 1.2.05.2.8 1.85 1.2-.45.25-.2-2.65-2.55" fill="#ffff2f" fill-rule="evenodd" transform="translate(-395.7 -297.95)"/><path d="M398.9 300.4v.7q.15.4.65.7l.05.1q.6-1.1 1.9-1.4l-.05-.2-2.55.1" fill="#ab5907" fill-rule="evenodd" transform="translate(-395.7 -297.95)"/><path d="M3.2 2.55v.8q-.05.7.25.95v.1l.75.1 2.7.5.95-.4.05-.05q.8-.4.8-1.05l-.1-.4.1-.15v-.1q.05-.65-.75-1.25-.75-.4-1.9-.5l-.65.1-.1-.05L4 1.5q-.6.4-.8.95" fill="none" stroke="#000" stroke-linecap="round" stroke-linejoin="round" stroke-opacity=".302" stroke-width=".05"/><path d="m400.95 301.25.45.1h.3l.15.05h.05l.25-.05.1-.05.25-.05.45-.15.05-.05.3-.55v-.15l-.1-.25-.3-.3-1.05-.3-1.15.25q-.45.25-.5.65 0 .4.4.65.15.05.35.2" fill="#7d9b02" fill-rule="evenodd" transform="translate(-395.7 -297.95)"/><path d="M5.25 3.3q-.2-.15-.35-.2-.4-.25-.4-.65.05-.4.5-.65l1.15-.25 1.05.3.3.3.1.25" fill="none" stroke="#000" stroke-linecap="round" stroke-linejoin="round" stroke-opacity=".302" stroke-width=".05"/><path d="m403.1 300.55-.1-.55-.4-.2-.4.1-.2.45.15.4.4.25.4-.15.15-.3" fill="#c0c001" fill-rule="evenodd" transform="translate(-395.7 -297.95)"/></g><linearGradient id="g" x1="-819.2" x2="819.2" gradientTransform="matrix(-.0092 0 0 -.0048 6.35 .15)" gradientUnits="userSpaceOnUse"><stop stop-color="#0a0602" stop-opacity="0" offset=".016"/><stop stop-color="#574218" stop-opacity=".4" offset="1"/></linearGradient><linearGradient id="h" x1="-819.2" x2="819.2" gradientTransform="matrix(.01 .0015 -.0004 .0025 -2.85 4.45)" gradientUnits="userSpaceOnUse"><stop stop-color="#0a0602" stop-opacity="0" offset=".016"/><stop stop-color="#574218" stop-opacity=".4" offset="1"/></linearGradient><use width="54.5" height="53.6" xlink:href="#e" id="a"/><use width="27.8" height="9.15" xlink:href="#f" id="c"/></defs></svg>