<svg viewBox="0 0 54.504 53.251" xmlns="http://www.w3.org/2000/svg" xmlns:xlink="http://www.w3.org/1999/xlink"><g transform="translate(-373.02 -273.98)"><use transform="translate(373 273.65)" width="54.5" height="53.6" xlink:href="#a"/><use transform="translate(386.25 293)" width="33.6" height="28.7" xlink:href="#b"/></g><defs><g id="c"><path d="m12.1-14.05.75 1.5-.15.15-.3.1-1.2.35-.3-.5.05-.1q1-.7 1.15-1.5m1.35 2.2q2.05 1.1 2.7 3.2l-1.35.55-.9.3-.6-.1-1.2-2.45v-.05l.1-.2 1.25-1.25m3.1 3.6v.05l.5.65h.05q1.35-.65 3.35-.9Q22.5-8.6 21.8-7l-3.3 2.35-.15.25q-.35.55.05 1.7L19.6.05h-.05L18.6-.5l-.8-.3-1 .7-1.9-4.4.6-.8q-.55-.3-.7-.7-.2-.55.7-1.35l1.05-.9M21.4-4.5q2.35 1.15 4.1 3.45V-1l-.75-.35-.7-.3-2.55-1.3q-.25-.8-.1-1.55M11-16.35l.2.45.1.25-.3.2-.3.05-.35-.1-.15-.05-.3-.2v-.05q-.15-.45.35-.6l.75.05M.15-13l1.65.05q.95.15 1.3.45l.15.2.1.25q0 .45-.6.65l-.8.15-.75-.05q-1.2 0-1.35-.5l.05-.35v-.2l-.05-.3.3-.35m5.7-.3v-.1q0-.45.6-.7l1.3-.5h.15l.05-.05h.45l.65.5q.25.65-.8 1.15l-.65.25-.95.1q-.65-.05-.8-.45v-.2M17.1-7.55 15.5-5.3l1.6-2.25m-26-7.05v-.1l-.05-.25V-15l.4-.4q1.2.35 1.35.8v.4l-.2.15H-8q-.65-.15-.9-.55m3.25 1.05.65-.05.65.05 1.05.35.3.45q.15.45-.3.6l-1.3-.15-1.25-.5h-.1l-.2-.05-.05-.05.55-.65" fill="#e0b359" fill-rule="evenodd" transform="translate(28.95 29.6)"/><path d="M9.7-17h.65l.85.55.7 1.2q.3.6.2 1.2-.15.8-1.15 1.5l-.05.1-.3.45-1.15.75q-1.45.8-3.4 1.2l-1.35.3q.5-1.85-.25-2.9l-.1-.1-.9-.65.9.65.1.1q.75 1.05.25 2.9l-5.95.2q-5.25.35-5.95-.7l-.9-.95-.7-.45q-1.25-1.05-.85-2.6l.2-.55 1-1.65 1.6.95 1.45.7-.25.1-1 .65-.4.45q-.9.95-1.05 2.4.15-1.45 1.05-2.4l.4-.45 1-.65.25-.1q1.8-.45 4.1 1.3l4.75.1 1.9-1.15 2.2-.55.55-.05.3-.05.5.05.65.15q1.5.4 1.4 2.45.1-2.05-1.4-2.45l-.65-.15-.5-.05-.3.05-.55.05.7-.5L9.6-17h.1m3.15 4.45.6.7-1.25 1.25-.1.2-.25-.45-.65-1.1 1.2-.35.3-.1.15-.15m3.3 3.9.4.4-1.05.9q-.9.8-.7 1.35.15.4.7.7l-.6.8-1-2.1-.45-.95-.15-.35.6.1.9-.3 1.35-.55M21.8-7l-.4 2.5q-.15.75.1 1.55l2.55 1.3.7.3.75.35v-.05l.05.05h-.05Q23.05.45 20.65.25l.3 4q-1.9-.95-3.15-2.75l-.3.15-.45-1.1-.25-.65 1-.7.8.3.95.55h.05L18.4-2.7q-.4-1.15-.05-1.7l.15-.25L21.8-7M11-16.35l-.75-.05q-.5.15-.35.6v.05l.3.2.15.05.35.1.3-.05.3-.2-.1-.25-.2-.45M.15-13l-.3.35.05.3v.2l-.05.35q.15.5 1.35.5l.75.05.8-.15q.6-.2.6-.65l-.1-.25-.15-.2q-.35-.3-1.3-.45L.15-13m5.7-.3v.2q.15.4.8.45l.95-.1.65-.25q1.05-.5.8-1.15l-.65-.5h-.45l-.05.05h-.15l-1.3.5q-.6.25-.6.7v.1m10.4 4.75L13.9-6.6l2.35-1.95m-4.4-2.3.85-1.55-.85 1.55M-8.9-14.6q.25.4.9.55h.6l.2-.15v-.4q-.15-.45-1.35-.8l-.4.4v.05l.05.25v.1m3.25 1.05-.55.65.05.05.2.05h.1l1.25.5 1.3.15q.45-.15.3-.6l-.3-.45-1.05-.35-.65-.05-.65.05m4.35.05-.3.5-.1.25q-.6 1.6.45 3.2-1.05-1.6-.45-3.2l.1-.25.3-.5" fill="#9c7c3e" fill-rule="evenodd" transform="translate(28.95 29.6)"/><path d="M12.65-25.1q.2.7-.25 1.4l-1.2 3.2-.3.65L9.7-17h-.1l-1.35 1.4.9-2.35q1.15-3.2 1.4-4.8h-.1l.1-.05v.05-.05l2.1-2.3m-11.2 2.6.45-.25-.25.4-.2-.15m8 11.25L10.6-12l.3-.45.3.5.65 1.1.25.45v.05h-.05l-.35.05h-.2l-1.15.05-.25.1-.65-1.1" fill="#634521" fill-rule="evenodd" transform="translate(28.95 29.6)"/><path d="m19.1 11.7-.35 2.35.4.25-.75.05-1.1.2q-.85.2-.85.65.1.55 1.05.75l1.6.2.95-.3.1.35q.3 3.15-3.8 1.35Q5 19.35.15 19.35q-4.7-.05-10.25-2.95-6.05-3.1-7.3-6.75l-.95-2.15.05.05q.55.45-.2-.35 2.15 2.2 5.25 4.35Q-7.5 15.8-1.9 15.9q5.55-.05 7.1-1.3t3.1-1.9q1.6-.7 3.65-.5l2.85-.05q.7-.45 2.3-1.1l.2.1q.3 0 .85.3l.95.25M-12.15-9.8l3.35-1.85.7.45.9.95q.7 1.05 5.95.7l5.95-.2 1.35-.3q1.95-.4 3.4-1.2l.65 1.1-.55.2-.2.2-.45.85-2.35 1.5q-2 1.2-5.2 1.5-3.25.3-9.05-1.95-1.8-.65-4.45-1.95m5.3-5.7-1.8-1.85-1.25-1.35q-2.05-2.15-2.75-3.4 6.5 3.1 8.75 3.6 3.95.9 9.65-1.1 2.4-.85 4.7-3.15h.1q-.25 1.6-1.4 4.8l-.9 2.35-.7.5-2.2.55-1.9 1.15-4.75-.1q-2.3-1.75-4.1-1.3l-1.45-.7M5.7-22.55l-1.3.75q-1.8.85-3.6.65l-1.05-.05-5.35-.95q-3.05-.65-3.75-2-.65-1.35.75-2.15l.7-.3-.35.65.05.9q.55 1.65 4.55 2.45l4.15.45.95-.35.2.15.25-.4.55-.5q.3.85 1.85.85l1.4-.15m-4.05.2-.85 1.2.85-1.2m15.65 36.9q.2-1.6 0-3.4.2 1.8 0 3.4" fill="#705739" fill-rule="evenodd" transform="translate(28.95 29.6)"/><path d="m1.9-22.75.4-.6.15.1-.55.5m15.2 33.8h.2v.1l-.2-.1" fill="#8c622f" fill-rule="evenodd" transform="translate(28.95 29.6)"/><path d="M-12.65-22.1q-.6-.9-.6-1.3 0-1.15 2.1-3l3.85-2.75 4.7-.1 5.25 1.5L4-27.5l2.9-.3 3-.3q1.25.3 2.25 1.65l.5 1.35-2.1 2.3-.1.05q-2.3 2.3-4.7 3.15-5.7 2-9.65 1.1-2.25-.5-8.75-3.6M17.5 1.65q1.05 2.75 1.55 6.4.2 1.55.05 3.65l-.95-.25q-.55-.3-.85-.3v-.1Q16.9 7 15.25 2.1l-.3-.95L13.8-1.9l-1.7-3.95-.6-1.3-.8-1.7-.05-.1-.55-1.2.25-.1 1.15-.05h.2l.35-.05h.05l1.2 2.45.15.35.45.95 1 2.1 1.9 4.4.25.65.45 1.1m1.65 12.65.35.35q.45.45.55 1.2l-.95.3-1.6-.2q-.95-.2-1.05-.75 0-.45.85-.65l1.1-.2.75-.05m-37.5-6.8q-.5-.6-.75-3.2-.25-2.8 2.35-7.85 2.55-5.1 4.6-6.25Q-9.5-8.5-7.7-7.85-1.9-5.6 1.35-5.9q3.2-.3 5.2-1.5L8.9-8.9l.45-.85.2-.2.55-.2.55 1.2.05.1.8 1.7.6 1.3 1.7 3.95 1.15 3.05.3.95Q16.9 7 17.3 11.05h-.2q-1.6.65-2.3 1.1l-2.85.05q-2.05-.2-3.65.5-1.55.65-3.1 1.9t-7.1 1.3q-5.6-.1-11.35-4.35-3.1-2.15-5.25-4.35.75.8.2.35l-.05-.05-.15-.3.15.3M5.7-22.55 7.35-24l2.2-.5.6.3q.45.25.4 1.4.05-1.15-.4-1.4l-.6-.3-2.2.5-1.65 1.45-1.4.15q-1.55 0-1.85-.85l-.15-.1-.4.6-.45.25-.95.35-4.15-.45q-4-.8-4.55-2.45l-.05-.9.35-.65-.7.3q-1.4.8-.75 2.15.7 1.35 3.75 2l5.35.95 1.05.05q1.8.2 3.6-.65l1.3-.75M3.1-24.5l-.8 1.15.8-1.15m2.45-1.8q5.5-.7 1.8 2.3 3.7-3-1.8-2.3M19.5 14.65l-2.1.4h-.05l-.05-.5.05.5h.05l2.1-.4" fill="#8c6d47" fill-rule="evenodd" transform="translate(28.95 29.6)"/><path d="M16.3 7.5q-.6-.9-.6-1.3 0-1.15 2.1-3L21.65.45l4.7-.1 5.25 1.5 1.35.25 2.9-.3 3-.3q1.25.3 2.25 1.65l.5 1.35q.2.7-.25 1.4l-1.2 3.2-.3.65-1.2 2.85h.65l.85.55.7 1.2q.3.6.2 1.2l.75 1.5.6.7q2.05 1.1 2.7 3.2l.4.4m0 .05.5.65h.05q1.35-.65 3.35-.9 2.05-.15 1.35 1.45l-.4 2.5q2.35 1.15 4.1 3.45l.05.05h-.05Q52 30.05 49.6 29.85l.3 4q-1.9-.95-3.15-2.75l-.3.15Q47.5 34 48 37.65q.2 1.55.05 3.65l-.35 2.35.4.25.35.35q.45.45.55 1.2l.1.35q.3 3.15-3.8 1.35-11.35 1.8-16.2 1.8-4.7-.05-10.25-2.95-6.05-3.1-7.3-6.75l-.95-2.15q-.5-.6-.75-3.2-.25-2.8 2.35-7.85 2.55-5.1 4.6-6.25l3.35-1.85q-1.25-1.05-.85-2.6l.2-.55 1-1.65 1.6.95-1.8-1.85-1.25-1.35Q17 8.75 16.3 7.5m23.2-.7q.05-1.15-.4-1.4l-.6-.3-2.2.5-1.65 1.45-1.3.75q-1.8.85-3.6.65L28.7 8.4l-5.35-.95q-3.05-.65-3.75-2-.65-1.35.75-2.15l.7-.3m9.8 3.85.4-.6.8-1.15m7.45 1.75V6.8m.35 10.35.05-.1Q40 15 38.5 14.6l-.65-.15-.5-.05-.3.05-.55.05-2.2.55-1.9 1.15.9.65.1.1q.75 1.05.25 2.9l1.35-.3q1.95-.4 3.4-1.2l1.15-.75.3-.45.3.5m1.5-.45.15-.15m-1.9 0q1-.7 1.15-1.5M30.6 7.25l.25-.4m-1.1 1.6.85-1.2M37.2 14l.9-2.35q1.15-3.2 1.4-4.8m-.85 5.75h-.1L37.2 14l-.7.5m2.55 4.95-.65-1.1m6.05 5.95 1.6-2.25m-5-2.8v-.05l-.25-.45-.65-1.1m.9 1.6 1.2 2.45.15.35.45.95 2.35-1.95m1.05 19.6q-.4-4.05-2.05-8.95l-.3-.95-1.15-3.05-1.7-3.95-.6-1.3-.8-1.7-.05-.1-.55-1.2m6.7 10.05.25.65.45 1.1m-2.6-6.15-1-2.1m2.9 6.5-1.9-4.4.6-.8m-2.8-7.1-.85 1.55M36.3 5.6q3.7-3-1.8-2.3M20.85 18.4Q21 16.95 21.9 16l.4-.45 1-.65.25-.1-1.45-.7m5.6 5.95q-1.05-1.6-.45-3.2l.1-.25.3-.5q-2.3-1.75-4.1-1.3m-3.4 3.15.7.45.9.95q.7 1.05 5.95.7l5.95-.2m12.6 20.8v.1q.2 1.8 0 3.4l.05.5h.05l2.1-.4M10.6 37.1l.05.05q.55.45-.2-.35l.15.3m21.8-20.9-4.75-.1" fill="none" stroke="#362a1b" stroke-linecap="round" stroke-linejoin="round" stroke-opacity=".502" stroke-width=".05"/><path d="m15.1 11.75 3.45-1.3.1 1.75-3.5.3-.05-.75" fill="#704e26" fill-rule="evenodd" transform="translate(28.95 29.6)"/><path d="m44.05 41.35.05.75 3.5-.3-.1-1.75z" fill="none" stroke="#000" stroke-linecap="round" stroke-linejoin="round" stroke-opacity=".502" stroke-width=".05"/><path d="m18.55 8.15-3.45 1.3L15 7.7l3.5-.3.05.75" fill="#704e26" fill-rule="evenodd" transform="translate(28.95 29.6)"/><path d="m47.5 37.75-.05-.75-3.5.3.1 1.75z" fill="none" stroke="#000" stroke-linecap="round" stroke-linejoin="round" stroke-opacity=".502" stroke-width=".05"/><path d="m12.9-7.8-2.25 1.9-.6-1.65 2.6-.95.25.7" fill="#704e26" fill-rule="evenodd" transform="translate(28.95 29.6)"/><path d="m41.85 21.8-.25-.7-2.6.95.6 1.65z" fill="none" stroke="#000" stroke-linecap="round" stroke-linejoin="round" stroke-opacity=".502" stroke-width=".05"/><path d="m9.85-17.05-2.2.95-.1-1.35 2.3-.2v.6" fill="#704e26" fill-rule="evenodd" transform="translate(28.95 29.6)"/><path d="M38.8 12.55v-.6l-2.3.2.1 1.35z" fill="none" stroke="#000" stroke-linecap="round" stroke-linejoin="round" stroke-opacity=".502" stroke-width=".05"/><path d="m11.05-24.05-2.25 1.9-.6-1.65 2.6-.95.25.7" fill="#704e26" fill-rule="evenodd" transform="translate(28.95 29.6)"/><path d="m40 5.55-.25-.7-2.6.95.6 1.65z" fill="none" stroke="#000" stroke-linecap="round" stroke-linejoin="round" stroke-opacity=".502" stroke-width=".05"/><path d="M-27.75 18.7q4.75-3.75 7.3-7.1 2.2-2.4 3.7-1.35l6.85 7.2q-1.4 2.05-4.65 2.75l-4.85.8-3.15-.05-3.2-.45q-1.65-.25-1.9-.9-.25-.7-.1-.9" fill="#fc9" fill-rule="evenodd" transform="translate(28.95 29.6)"/><path d="m-9.9 17.45 1.35 1.4Q-7.5 22.5-18.9 23q-10-.4-9.65-3.55l.8-.75q-.15.2.1.9.25.65 1.9.9l3.2.45 3.15.05 4.85-.8q3.25-.7 4.65-2.75" fill="#deb185" fill-rule="evenodd" transform="translate(28.95 29.6)"/><path d="M-8.95 17.5q.45.55-.1.95l-.2.15q-.65.4-1.05-.2-.45-.65.25-1.1l.85-.05.25.25m-3.45-2.65q-.75.4-1-.25-.3-.7.2-1.05.45-.4 1 .25.55.6-.2 1.05m1.7.45q.3.65-.4 1.05-.65.4-.9-.25-.2-.65.4-1.05.55-.4.9.25m-4.1-1.85q-.25-.65.4-1.05.7-.35 1 .25.35.55-.45 1-.75.45-.95-.2m4.5 7.85.75.1q.25.45-.2.75l-.7-.1q-.3-.45.15-.75m-2.95 1.3q-.25-.7.45-1.05.7-.4 1.05.2t-.45 1.1q-.8.45-1.05-.25m-1.05-.25q.45.55-.15.9t-.8-.25q-.25-.55.15-.85.35-.3.8.2m5.25-1.95q-.15-.45.25-.7.4-.3.65.15.2.45-.25.7-.5.3-.65-.15m-11.55-8.2q.35.6-.45 1.1-.8.45-1.05-.25t.45-1.05q.7-.4 1.05.2m.25-2.25q.55-.5 1.25.15 0-.45.45-.75.55-.4.9.25.3.65-.4 1.05l-.45.15q.15.6-.6 1-1.05.6-1.4-.35t.25-1.5m3.3 1.5q-.45-.65.25-1.1.65-.45 1.05.2t-.25 1.1q-.65.4-1.05-.2m-9.3 5.15.75-.05q0-.45.4-.7.55-.4.85.2t-.35 1l-.25.15q.3.55-.45.95-.85.5-1.15-.3-.35-.8.2-1.25m-.9 1.9q.35.55-.45 1-.75.45-.95-.2-.25-.65.4-1.05.7-.35 1 .25m.35 4.35q-.25-.8.45-1.3.7-.45 1.1.3.4.8-.45 1.3-.85.45-1.1-.3m-1.9-1.8q-.35-.55.25-.95.55-.45.9.15.35.55-.2.95-.55.35-.95-.15m5.75-7.05q.8-.55 1.25.2.5.8-.3 1.3-.75.5-1.25-.2-.5-.75.3-1.3m1.45 8.95q-.15-.4.25-.6.35-.2.55.15.2.3-.25.55l-.55-.1m-2.75.2q-.3-.75.25-1.2.5-.45 1.1.25.65.75-.2 1.25-.85.45-1.15-.3m6.75.2q-.25-.85.5-1.4.75-.5 1.2.35.45.8-.5 1.35-.9.55-1.2-.3m-1.15-.8q.45.75-.3 1.25-.75.45-1.2-.25-.5-.7.25-1.25.75-.5 1.25.25" fill="#deb185" fill-opacity=".502" fill-rule="evenodd" transform="translate(28.95 29.6)"/></g><g id="b"><path d="m408.65 297.6.35-.2.1-.15.35-.3 3.5-2.95-.05.85-.7 3v.05h.05q-1.05 3.85-2.6 6.8l-.2.05h-.05q-2.3-.7-3.8-1.5-2.05-1.05-2.45-1.95v-.2l1.95-.85 1.4-.85.05.1q1.8.7 1.6.35l-.8-1.1 1.3-1.15" fill="#ffffe6" fill-rule="evenodd" transform="translate(-386.25 -293)"/><path d="m412.2 297.85.05.05h-.05v-.05" fill="#211c14" fill-rule="evenodd" transform="translate(-386.25 -293)"/><path d="m413.55 293.45.45-.45-.7 3.25-.6 3.15-.85 3.15q-.4 1.25-1.05 1.65l-1.15.5q1.55-2.95 2.6-6.8l-.05-.05.7-3 .05-.85.6-.55" fill="#493a2e" fill-rule="evenodd" transform="translate(-386.25 -293)"/><path d="m406.55 299.5.55-.4.25-.35.8 1.1q.2.35-1.6-.35" fill="#fffaff" fill-rule="evenodd" transform="translate(-386.25 -293)"/><path d="m406.5 299.4.5-.3.35-.35-.25.35-.55.4-.05-.1" fill="#f0a8e2" fill-rule="evenodd" transform="translate(-386.25 -293)"/><path d="M23.2 3.95 26.7 1V.9l.6-.45.45-.45-.7 3.25-.6 3.15-.85 3.15q-.4 1.25-1.05 1.65l-1.15.5m-.2.05h-.05M16.9 8.1l1.95-.85 1.4-.85.5-.3.35-.35 1.3-1.15M26.7 1l.6-.55" fill="none" stroke="#000" stroke-linecap="round" stroke-linejoin="round" stroke-opacity=".302" stroke-width=".05"/><path d="m409.65 304.7-.2.05m2.8-6.85-.05-.05.7-3 .05-.85m-.7 3.9q-1.05 3.85-2.6 6.8" fill="none" stroke="#000" stroke-linecap="round" stroke-linejoin="round" stroke-opacity=".302" transform="translate(-386.25 -293)"/><path d="M402.1 301.85v.1q-.45 1-2.6 1.9l-3.85 1.25h-.05l-.2-.05q-1.35-3.1-2.2-7h.1l-.1-.1-.45-3v-.85l3.3 3.15h.05l.35.35.05.1.3.2-.05.05 1.3 1.25-.85 1.05 1.6-.3.05.05 1.3.85 1.95 1" fill="#ffffe6" fill-rule="evenodd" transform="translate(-386.25 -293)"/><path d="M392.75 294.1v.85l.45 3v.1q.85 3.9 2.2 7l-1.15-.6q-.65-.55-.95-1.75l-.65-3.15-.4-3.2-.45-3.3.4.4.55.65" fill="#493a2e" fill-rule="evenodd" transform="translate(-386.25 -293)"/><path d="m398.8 299.95-1.6.3.85-1.05.2.3.55.45m-2.7-2.7h-.05l.05-.05v.05" fill="#fffaff" fill-rule="evenodd" transform="translate(-386.25 -293)"/><path d="m398.85 300-.05-.05-.55-.45-.2-.3.25.3.55.5" fill="#f0a8e2" fill-rule="evenodd" transform="translate(-386.25 -293)"/><path d="m393.2 297.95.1.1h-.1v-.1" fill="#211c14" fill-rule="evenodd" transform="translate(-386.25 -293)"/><path d="m15.85 8.85-1.95-1L12.6 7l-.55-.5-.25-.3-1.3-1.25m-.7-.7L6.5 1.1v-.05l-.55-.6.55.65m2.85 11h.05M5.95.45l-.4-.4.45 3.3.4 3.2.65 3.15q.3 1.2.95 1.75l1.15.6" fill="none" stroke="#000" stroke-linecap="round" stroke-linejoin="round" stroke-opacity=".302" stroke-width=".05"/><path d="M392.75 294.1v.85l.45 3m0 .1q.85 3.9 2.2 7l.2.05m-2.4-7.05v-.1" fill="none" stroke="#000" stroke-linecap="round" stroke-linejoin="round" stroke-opacity=".302" transform="translate(-386.25 -293)"/><path d="m394.8 313.65-.3 1.6q-2.7-.5-4.75-2-2-1.45-1.85-3.05 0-1.75.25-1.5 2.25 2.5 6.65 4.95" fill="#c4a686" fill-rule="evenodd" transform="translate(-386.25 -293)"/><path d="M8.55 20.65Q4.15 18.2 1.9 15.7q-.25-.25-.25 1.5-.15 1.6 1.85 3.05 2.05 1.5 4.75 2" fill="none" stroke="#000" stroke-linecap="round" stroke-linejoin="round" stroke-opacity=".302" stroke-width=".05"/><path d="m392.35 314 .9 1.05q-1.55.8-3.4.65l-2.9-.7-.7-1.65q3 1.15 6.1.65" fill="#fefef2" fill-rule="evenodd" transform="translate(-386.25 -293)"/><path d="m386.95 315 2.9.7q1.85.15 3.4-.65l-.9-1.05 2.7-.8.3 2.85q-3 3-5.3 2.9-1.7-.9-3.1-3.95" fill="#c4a686" fill-rule="evenodd" transform="translate(-386.25 -293)"/><path d="M.7 22q1.4 3.05 3.1 3.95 2.3.1 5.3-2.9l-.3-2.85-2.7.8q-3.1.5-6.1-.65z" fill="none" stroke="#000" stroke-linecap="round" stroke-linejoin="round" stroke-opacity=".302" stroke-width=".05"/><path d="m394.95 313.75-1.5.05q-2.35-1.15-2.75-4.2l2.6 1.2q.55 2.2 1.65 2.95" fill="#c4a686" fill-rule="evenodd" transform="translate(-386.25 -293)"/><path d="m8.7 20.75-1.5.05q-2.35-1.15-2.75-4.2l2.6 1.2Q7.6 20 8.7 20.75z" fill="none" stroke="#000" stroke-linecap="round" stroke-linejoin="round" stroke-opacity=".302" stroke-width=".05"/><path d="M411.6 315.25q2.7-.5 4.75-2 2-1.45 1.85-3.05 0-1.75-.25-1.5-2.25 2.5-6.65 4.95l.3 1.6" fill="#c4a686" fill-rule="evenodd" transform="translate(-386.25 -293)"/><path d="M25.05 20.65q4.4-2.45 6.65-4.95.25-.25.25 1.5.15 1.6-1.85 3.05-2.05 1.5-4.75 2" fill="none" stroke="#000" stroke-linecap="round" stroke-linejoin="round" stroke-opacity=".302" stroke-width=".05"/><path d="m413.75 314-.9 1.05q1.55.8 3.4.65l2.9-.7.7-1.65q-3 1.15-6.1.65" fill="#fefef2" fill-rule="evenodd" transform="translate(-386.25 -293)"/><path d="m413.75 314-2.7-.8-.3 2.85q3 3 5.3 2.9 1.7-.9 3.1-3.95l-2.9.7q-1.85.15-3.4-.65l.9-1.05" fill="#c4a686" fill-rule="evenodd" transform="translate(-386.25 -293)"/><path d="M32.9 22q-1.4 3.05-3.1 3.95-2.3.1-5.3-2.9l.3-2.85 2.7.8m5.4 1 .7-1.65q-3 1.15-6.1.65" fill="none" stroke="#000" stroke-linecap="round" stroke-linejoin="round" stroke-opacity=".302" stroke-width=".05"/><path d="m411.15 313.75 1.5.05q2.35-1.15 2.75-4.2l-2.6 1.2q-.55 2.2-1.65 2.95" fill="#c4a686" fill-rule="evenodd" transform="translate(-386.25 -293)"/><path d="m24.9 20.75 1.5.05q2.35-1.15 2.75-4.2l-2.6 1.2Q26 20 24.9 20.75z" fill="none" stroke="#000" stroke-linecap="round" stroke-linejoin="round" stroke-opacity=".302" stroke-width=".05"/><path d="m404.2 296.4-.05.15-.35 1.35-.1.85q-.35 2.25 0 3.85l-.45.15-.7.45q-.55.35-.95-.2l-.35.35-.65.3q-1.05.15-1.45-.75v-.1q-.15-.2-.15-.7 0-1.5.65-1l.55.35.55.3-.4-.85-.05-.85v-.1l.05-.1 1.25-1.1 1.3-1.1 1.3-1.25m7.9 17.9 1.25 1.85-.3-.05-1-.15-.4-.05-6.45.2h-.15l-.7.1-.4-.35q.4-.35.85-.55l.2-.15q2.75-1.5 6.65-.95l.4.05.05.05m-19.05 2-.4.1.75-2.45.5-.15.35-.15.5-.05q3.75-.85 6.9 1.45v.05l-.2.55q-3.2-.75-6.6.1l-.45.1-1.35.45m.5-9.95v-.15l.05.15h-.05m8.05-4.2-.8-.3-.05-.1.05.1.8.3" fill="#dccbb8" fill-rule="evenodd" transform="translate(-386.25 -293)"/><path d="m400.4 299 .1-.35q.2-.55.75-1.2l1-.5q1.9-1.35 1.95-.6v.05l-1.3 1.25-1.3 1.1-1.25 1.1-.05-.05.1-.8" fill="#fefef2" fill-rule="evenodd" transform="translate(-386.25 -293)"/><path d="M403.7 298.75q3.5.25 6.05 2.75 2.1 2.15 2.65 4.7v.1l-1.85 1.35q-1.25-1.1-3.35-.05-1.35.75-2 2.4l-3.75.15q-.85-1.8-2.35-2.55-2.35-1.1-3.6.2l-1.9-1.45-.05-.15q.6-2.1 2.4-4.25 1.9-2.2 4.45-2.95l-.1.8v.25l.05.85.4.85-.55-.3-.55-.35q-.65-.5-.65 1 0 .5.15.7v.1q.4.9 1.45.75l.65-.3.35-.35q.4.55.95.2l.7-.45.45-.15q-.35-1.6 0-3.85m9.35 17.35q.75.95.05 1.8-.9 1.05-3.2 1.35h-.6l-1.35.05-2.5-.2-1.1.05-1.2-.75-.85.9h-1.1l-3.65.6h-.65l-1.6-.3q-1.1-.3-1.8-1.05-1-.95-.45-2.25l1.35-.45.45-.1q3.4-.85 6.6-.1l.2-.55.15.05.4.2q.55.4.9 1.35l.4-.6.45-.25.4.35.7-.1h.15l6.45-.2.4.05 1 .15" fill="#ffffe6" fill-rule="evenodd" transform="translate(-386.25 -293)"/><path d="M412.1 314.15v.15l-.05-.05-.4-.05v-.8l-.05-.1.05-.35v-.4q0-3.25-1.35-4.35l-.25-.2q-.95-.55-2.9.45l-1.1 1.1-.2.35q-.55.65-.65 1.15l-.25 1.55-.1.75v1.3l-.1.45q-.55-1.45 0-3.7.1-.8.45-1.4.65-1.65 2-2.4 2.1-1.05 3.35.05l.65.85q.65 1.3.8 3.6l.05 1h.05v1.05m-10.45-1.55-.3-1.55-.55-1.05-.4-.45-1.25-1.1q-2.15-1.05-3.2-.35l-.1.1q-1.4 1.1-1.25 4.35l.05.4.1.35-.1.1.1.2-.5.05-.05-.55h.15l-.1-1q.1-2.3.75-3.6l.5-.7q1.25-1.3 3.6-.2 1.5.75 2.35 2.55l.45 1.25q.6 2.25.1 3.7v.05l-.2-.5v-1.3l-.15-.75" fill="#27201d" fill-rule="evenodd" transform="translate(-386.25 -293)"/><path d="m404.95 312.6.25-1.55q.1-.5.65-1.15l.2-.35 1.1-1.1q1.95-1 2.9-.45l.25.2q1.35 1.1 1.35 4.35v.4q-.05-2.9-1.8-3.35-1.7-.45-3.1.45-1.45.85-1.8 2.55m-10.3.35-.05-.4q-.15-3.25 1.25-4.35l.1-.1q1.05-.7 3.2.35l1.25 1.1.4.45.55 1.05.3 1.55q-.45-1.7-1.95-2.55-1.45-.9-3.25-.45t-1.8 3.35m7.15 1.7.2.5v.1l-.2-.1v-.5m3.05 0 .15.5-.2.15-.05-.2.1-.45" fill="#b3a988" fill-rule="evenodd" transform="translate(-386.25 -293)"/><path d="m409.9 319.25-1.95 2.45v-2.4l1.35-.05h.6m-13 .65v1.8l-1.6-2.1 1.6.3m14.75-6.95-.05.35.05.1v.8q-3.9-.55-6.65.95l-.15-.5v-1.3l.1-.75q.35-1.7 1.8-2.55 1.4-.9 3.1-.45 1.75.45 1.8 3.35m-17 0q0-2.9 1.8-3.35t3.25.45q1.5.85 1.95 2.55l.15.75v1.8l-.15-.05v-.05q-3.15-2.3-6.9-1.45l-.1-.2.1-.1-.1-.35" fill="#f9f2db" fill-rule="evenodd" transform="translate(-386.25 -293)"/><path d="m412.4 306.3.1 1.6-.05 4.45-.15.8v.05l-.2.95v-1.05h-.05l-.05-1q-.15-2.3-.8-3.6l-.65-.85 1.85-1.35m-18.5 7.5-.15-.6-.05-.05-.1-.8-.25-3.9q-.05-1.05.2-2.1h.05l1.9 1.45-.5.7q-.65 1.3-.75 3.6l.1 1h-.15l.05.55-.35.15m8.1 1.35v-.05q.5-1.45-.1-3.7l-.45-1.25 3.75-.15q-.35.6-.45 1.4-.55 2.25 0 3.7l.05.2q-.45.2-.85.55l-.45.25-.4.6q-.35-.95-.9-1.35l-.2-.1v-.1" fill="#c4a686" fill-rule="evenodd" transform="translate(-386.25 -293)"/><path d="m400.3 299.8.05.05-.05.1v-.15" fill="#8e5602" fill-rule="evenodd" transform="translate(-386.25 -293)"/><path d="m14.15 6 .1-.35q.2-.55.75-1.2l1-.5q1.9-1.35 1.95-.6v.05l-.05.15-.35 1.35-.1.85M26.8 23.1q.75.95.05 1.8-.9 1.05-3.2 1.35h-.6l-1.35.05-2.5-.2-1.1.05-1.2-.75-.85.9h-1.1l-3.65.6h-.65m-1.6-.3q-1.1-.3-1.8-1.05-1-.95-.45-2.25M14.15 6l-.1.8m.45 1.95.05.1.8.3m-1.3-2.2v.1l.05.85.4.85-.55-.3-.55-.35q-.65-.5-.65 1 0 .5.15.7v.1q.4.9 1.45.75m3.1-1.05q-.35-1.6 0-3.85m-3.4 1.2V6.8m-5 19.8 1.6.3" fill="none" stroke="#000" stroke-linecap="round" stroke-linejoin="round" stroke-opacity=".302" stroke-width=".05"/><path d="M17.45 5.75q3.5.25 6.05 2.75 2.1 2.15 2.65 4.7v.1l.1 1.6-.05 4.45m-18.85 0-.25-3.9q-.05-1.05.2-2.1v-.15q.6-2.1 2.4-4.25 1.9-2.2 4.45-2.95" fill="none" stroke="#827065" stroke-linecap="round" stroke-linejoin="round" stroke-opacity=".482" stroke-width="1.5"/><path d="M23.65 26.25 21.7 28.7v-2.4m-11.05.6v1.8l-1.6-2.1" fill="none" stroke="#000" stroke-linecap="round" stroke-linejoin="round" stroke-opacity=".353" stroke-width=".05"/><path d="M399.85 311.35q-.3.5-.3 1.25-.05.7.2 1.35l.75.55q.4.1.75-.4t.35-1.25l-.2-1.35-.75-.6q-.4-.05-.8.45M406.6 311.1l.4 1.25-.2 1.35-.7.55q-.35.1-.7-.4t-.4-1.25l.2-1.35q.25-.5.65-.6.4-.05.75.45" fill-rule="evenodd" transform="translate(-386.25 -293)"/><path d="M404.45 315.7q.05.9-1.05 1.7-.85-.65-.95-1.7h2" fill="#653d01" fill-rule="evenodd" transform="translate(-386.25 -293)"/></g><use width="54.5" height="53.6" xlink:href="#c" id="a"/></defs></svg>