<svg viewBox="0 0 54.504 53.251" xmlns="http://www.w3.org/2000/svg" xmlns:xlink="http://www.w3.org/1999/xlink"><g transform="translate(-373.02 -273.98)"><use transform="translate(373 273.65)" width="54.5" height="53.6" xlink:href="#a"/><use transform="translate(386.15 294.4)" width="29" height="20.4" xlink:href="#b"/></g><defs><g id="c"><path d="m12.1-14.05.75 1.5-.15.15-.3.1-1.2.35-.3-.5.05-.1q1-.7 1.15-1.5m1.35 2.2q2.05 1.1 2.7 3.2l-1.35.55-.9.3-.6-.1-1.2-2.45v-.05l.1-.2 1.25-1.25m3.1 3.6v.05l.5.65h.05q1.35-.65 3.35-.9Q22.5-8.6 21.8-7l-3.3 2.35-.15.25q-.35.55.05 1.7L19.6.05h-.05L18.6-.5l-.8-.3-1 .7-1.9-4.4.6-.8q-.55-.3-.7-.7-.2-.55.7-1.35l1.05-.9M21.4-4.5q2.35 1.15 4.1 3.45V-1l-.75-.35-.7-.3-2.55-1.3q-.25-.8-.1-1.55M11-16.35l.2.45.1.25-.3.2-.3.05-.35-.1-.15-.05-.3-.2v-.05q-.15-.45.35-.6l.75.05M5.85-13.3v-.1q0-.45.6-.7l1.3-.5h.15l.05-.05h.45l.65.5q.25.65-.8 1.15l-.65.25-.95.1q-.65-.05-.8-.45v-.2m-5.7.3 1.65.05q.95.15 1.3.45l.15.2.1.25q0 .45-.6.65l-.8.15-.75-.05q-1.2 0-1.35-.5l.05-.35v-.2l-.05-.3.3-.35M17.1-7.55 15.5-5.3l1.6-2.25m-26-7.05v-.1l-.05-.25V-15l.4-.4q1.2.35 1.35.8v.4l-.2.15H-8q-.65-.15-.9-.55m2.95 1.8-.2-.05-.05-.05.55-.65.65-.05.65.05 1.05.35.3.45q.15.45-.3.6l-1.3-.15-1.25-.5h-.1" fill="#e0b359" fill-rule="evenodd" transform="translate(28.95 29.6)"/><path d="M9.7-17h.65l.85.55.7 1.2q.3.6.2 1.2-.15.8-1.15 1.5l-.05.1-.3.45-1.15.75q-1.45.8-3.4 1.2l-1.35.3q.5-1.85-.25-2.9l-.1-.1-.9-.65.9.65.1.1q.75 1.05.25 2.9l-5.95.2q-5.25.35-5.95-.7l-.9-.95q.15-1.45 1.05-2.4l.4-.45 1-.65.25-.1-.25.1-1 .65-.4.45q-.9.95-1.05 2.4l-.7-.45q-1.25-1.05-.85-2.6l.2-.55 1-1.65 1.6.95 1.45.7q1.8-.45 4.1 1.3l4.75.1 1.9-1.15 2.2-.55.55-.05.3-.05.5.05.65.15q1.5.4 1.4 2.45.1-2.05-1.4-2.45l-.65-.15-.5-.05-.3.05-.55.05.7-.5L9.6-17h.1m3.15 4.45.6.7-1.25 1.25-.1.2-.25-.45-.65-1.1 1.2-.35.3-.1.15-.15m3.3 3.9.4.4-1.05.9q-.9.8-.7 1.35.15.4.7.7l-.6.8-1-2.1-.45-.95-.15-.35.6.1.9-.3 1.35-.55M21.8-7l-.4 2.5q-.15.75.1 1.55l2.55 1.3.7.3.75.35v-.05l.05.05h-.05Q23.05.45 20.65.25l.3 4q-1.9-.95-3.15-2.75l-.3.15-.45-1.1-.25-.65 1-.7.8.3.95.55h.05L18.4-2.7q-.4-1.15-.05-1.7l.15-.25L21.8-7M11-16.35l-.75-.05q-.5.15-.35.6v.05l.3.2.15.05.35.1.3-.05.3-.2-.1-.25-.2-.45M.15-13l-.3.35.05.3v.2l-.05.35q.15.5 1.35.5l.75.05.8-.15q.6-.2.6-.65l-.1-.25-.15-.2q-.35-.3-1.3-.45L.15-13m5.7-.3v.2q.15.4.8.45l.95-.1.65-.25q1.05-.5.8-1.15l-.65-.5h-.45l-.05.05h-.15l-1.3.5q-.6.25-.6.7v.1m10.4 4.75L13.9-6.6l2.35-1.95m-4.4-2.3.85-1.55-.85 1.55M-8.9-14.6q.25.4.9.55h.6l.2-.15v-.4q-.15-.45-1.35-.8l-.4.4v.05l.05.25v.1m2.95 1.8h.1l1.25.5 1.3.15q.45-.15.3-.6l-.3-.45-1.05-.35-.65-.05-.65.05-.55.65.05.05.2.05m4.65-.7-.3.5-.1.25q-.6 1.6.45 3.2-1.05-1.6-.45-3.2l.1-.25.3-.5" fill="#9c7c3e" fill-rule="evenodd" transform="translate(28.95 29.6)"/><path d="M12.65-25.1q.2.7-.25 1.4l-1.2 3.2-.3.65L9.7-17h-.1l-1.35 1.4.9-2.35q1.15-3.2 1.4-4.8v-.05l2.1-2.3m-2.2 2.35.1-.05v.05h-.1m-9 .25.45-.25-.25.4-.2-.15m8 11.25L10.6-12l.3-.45.3.5.65 1.1.25.45v.05h-.05l-.35.05h-.2l-1.15.05-.25.1-.65-1.1" fill="#634521" fill-rule="evenodd" transform="translate(28.95 29.6)"/><path d="m19.1 11.7-.35 2.35.4.25-.75.05-1.1.2q-.85.2-.85.65.1.55 1.05.75l1.6.2.95-.3.1.35q.3 3.15-3.8 1.35Q5 19.35.15 19.35q-4.7-.05-10.25-2.95-6.05-3.1-7.3-6.75l-.95-2.15.05.05q.55.45-.2-.35 2.15 2.2 5.25 4.35Q-7.5 15.8-1.9 15.9q5.55-.05 7.1-1.3t3.1-1.9q1.6-.7 3.65-.5l2.85-.05q.7-.45 2.3-1.1l.2.1q.3 0 .85.3l.95.25M-12.15-9.8l3.35-1.85.7.45.9.95q.7 1.05 5.95.7l5.95-.2 1.35-.3q1.95-.4 3.4-1.2l.65 1.1-.55.2-.2.2-.45.85-2.35 1.5q-2 1.2-5.2 1.5-3.25.3-9.05-1.95-1.8-.65-4.45-1.95m5.3-5.7-1.8-1.85-1.25-1.35q-2.05-2.15-2.75-3.4 6.5 3.1 8.75 3.6 3.95.9 9.65-1.1 2.4-.85 4.7-3.15h.1q-.25 1.6-1.4 4.8l-.9 2.35-.7.5-2.2.55-1.9 1.15-4.75-.1q-2.3-1.75-4.1-1.3l-1.45-.7M5.7-22.55l-1.3.75q-1.8.85-3.6.65l-1.05-.05-5.35-.95q-3.05-.65-3.75-2-.65-1.35.75-2.15l.7-.3-.35.65.05.9q.55 1.65 4.55 2.45l4.15.45.95-.35.2.15-.85 1.2.85-1.2.25-.4.55-.5q.3.85 1.85.85l1.4-.15m11.6 37.1q.2-1.6 0-3.4.2 1.8 0 3.4" fill="#705739" fill-rule="evenodd" transform="translate(28.95 29.6)"/><path d="m1.9-22.75.4-.6.15.1-.55.5m15.2 33.8h.2v.1l-.2-.1" fill="#8c622f" fill-rule="evenodd" transform="translate(28.95 29.6)"/><path d="M-12.65-22.1q-.6-.9-.6-1.3 0-1.15 2.1-3l3.85-2.75 4.7-.1 5.25 1.5L4-27.5l2.9-.3 3-.3q1.25.3 2.25 1.65l.5 1.35-2.1 2.3-.1.05q-2.3 2.3-4.7 3.15-5.7 2-9.65 1.1-2.25-.5-8.75-3.6M17.5 1.65q1.05 2.75 1.55 6.4.2 1.55.05 3.65l-.95-.25q-.55-.3-.85-.3v-.1Q16.9 7 15.25 2.1l-.3-.95L13.8-1.9l-1.7-3.95-.6-1.3-.8-1.7-.05-.1-.55-1.2.25-.1 1.15-.05h.2l.35-.05h.05l1.2 2.45.15.35.45.95 1 2.1 1.9 4.4.25.65.45 1.1m1.65 12.65.35.35q.45.45.55 1.2l-.95.3-1.6-.2q-.95-.2-1.05-.75 0-.45.85-.65l1.1-.2.75-.05m-37.5-6.8q-.5-.6-.75-3.2-.25-2.8 2.35-7.85 2.55-5.1 4.6-6.25Q-9.5-8.5-7.7-7.85-1.9-5.6 1.35-5.9q3.2-.3 5.2-1.5L8.9-8.9l.45-.85.2-.2.55-.2.55 1.2.05.1.8 1.7.6 1.3 1.7 3.95 1.15 3.05.3.95Q16.9 7 17.3 11.05h-.2q-1.6.65-2.3 1.1l-2.85.05q-2.05-.2-3.65.5-1.55.65-3.1 1.9t-7.1 1.3q-5.6-.1-11.35-4.35-3.1-2.15-5.25-4.35l.15.3-.15-.3q.75.8.2.35l-.05-.05M5.7-22.55 7.35-24l2.2-.5.6.3q.45.25.4 1.4.05-1.15-.4-1.4l-.6-.3-2.2.5-1.65 1.45-1.4.15q-1.55 0-1.85-.85l-.15-.1-.4.6-.45.25-.95.35-4.15-.45q-4-.8-4.55-2.45l-.05-.9.35-.65-.7.3q-1.4.8-.75 2.15.7 1.35 3.75 2l5.35.95 1.05.05q1.8.2 3.6-.65l1.3-.75M3.1-24.5l-.8 1.15.8-1.15m2.45-1.8q5.5-.7 1.8 2.3 3.7-3-1.8-2.3M19.5 14.65l-2.1.4h-.05l-.05-.5.05.5h.05l2.1-.4" fill="#8c6d47" fill-rule="evenodd" transform="translate(28.95 29.6)"/><path d="M16.3 7.5q-.6-.9-.6-1.3 0-1.15 2.1-3L21.65.45l4.7-.1 5.25 1.5 1.35.25 2.9-.3 3-.3q1.25.3 2.25 1.65l.5 1.35q.2.7-.25 1.4l-1.2 3.2-.3.65-1.2 2.85h.65l.85.55.7 1.2q.3.6.2 1.2l.75 1.5.6.7q2.05 1.1 2.7 3.2l.4.4m0 .05.5.65h.05q1.35-.65 3.35-.9 2.05-.15 1.35 1.45l-.4 2.5q2.35 1.15 4.1 3.45l.05.05h-.05Q52 30.05 49.6 29.85l.3 4q-1.9-.95-3.15-2.75l-.3.15Q47.5 34 48 37.65q.2 1.55.05 3.65l-.35 2.35.4.25.35.35q.45.45.55 1.2l.1.35q.3 3.15-3.8 1.35-11.35 1.8-16.2 1.8-4.7-.05-10.25-2.95-6.05-3.1-7.3-6.75l-.95-2.15q-.5-.6-.75-3.2-.25-2.8 2.35-7.85 2.55-5.1 4.6-6.25l3.35-1.85q-1.25-1.05-.85-2.6l.2-.55 1-1.65 1.6.95-1.8-1.85-1.25-1.35Q17 8.75 16.3 7.5m23.2-.7q.05-1.15-.4-1.4l-.6-.3-2.2.5-1.65 1.45-1.3.75q-1.8.85-3.6.65L28.7 8.4l-5.35-.95q-3.05-.65-3.75-2-.65-1.35.75-2.15l.7-.3m9.8 3.85.4-.6.8-1.15m7.45 1.75V6.8m0 .05q-.25 1.6-1.4 4.8L37.2 14l1.35-1.4h.1m1.25 4.45q1-.7 1.15-1.5m-1.2 1.6.05-.1Q40 15 38.5 14.6l-.65-.15-.5-.05-.3.05-.55.05-2.2.55-1.9 1.15.9.65.1.1q.75 1.05.25 2.9l1.35-.3q1.95-.4 3.4-1.2l1.15-.75.3-.45.3.5m1.5-.45.15-.15m-11.2-9.8.25-.4m-1.1 1.6.85-1.2M37.2 14l-.7.5m2.55 4.95-.65-1.1m2.65.9v-.05l-.25-.45-.65-1.1m4.3 6.65 1.6-2.25m.2 18.6q-.4-4.05-2.05-8.95l-.3-.95-1.15-3.05-1.7-3.95-.6-1.3-.8-1.7-.05-.1-.55-1.2m3.2 2.25.15.35.45.95 2.35-1.95m-2.95.65-1.2-2.45m4.7 10.25.25.65.45 1.1m-2.6-6.15.6-.8m1.3 5.2-1.9-4.4-1-2.1m-1.2-5.8-.85 1.55M36.3 5.6q3.7-3-1.8-2.3M20.85 18.4Q21 16.95 21.9 16l.4-.45 1-.65.25-.1-1.45-.7m5.6 5.95q-1.05-1.6-.45-3.2l.1-.25.3-.5q-2.3-1.75-4.1-1.3m-2.7 3.6.9.95q.7 1.05 5.95.7l5.95-.2m-13.5-1.9.7.45m-10.4 18.4.15.3.05.05q.55.45-.2-.35m35.8 3.85v.1q.2 1.8 0 3.4l.05.5h.05l2.1-.4M32.4 16.2l-4.75-.1" fill="none" stroke="#362a1b" stroke-linecap="round" stroke-linejoin="round" stroke-opacity=".502" stroke-width=".05"/><path d="m15.1 11.75 3.45-1.3.1 1.75-3.5.3-.05-.75" fill="#704e26" fill-rule="evenodd" transform="translate(28.95 29.6)"/><path d="m44.05 41.35.05.75 3.5-.3-.1-1.75z" fill="none" stroke="#000" stroke-linecap="round" stroke-linejoin="round" stroke-opacity=".502" stroke-width=".05"/><path d="m18.55 8.15-3.45 1.3L15 7.7l3.5-.3.05.75" fill="#704e26" fill-rule="evenodd" transform="translate(28.95 29.6)"/><path d="m47.5 37.75-.05-.75-3.5.3.1 1.75z" fill="none" stroke="#000" stroke-linecap="round" stroke-linejoin="round" stroke-opacity=".502" stroke-width=".05"/><path d="m12.9-7.8-2.25 1.9-.6-1.65 2.6-.95.25.7" fill="#704e26" fill-rule="evenodd" transform="translate(28.95 29.6)"/><path d="m41.85 21.8-.25-.7-2.6.95.6 1.65z" fill="none" stroke="#000" stroke-linecap="round" stroke-linejoin="round" stroke-opacity=".502" stroke-width=".05"/><path d="m9.85-17.05-2.2.95-.1-1.35 2.3-.2v.6" fill="#704e26" fill-rule="evenodd" transform="translate(28.95 29.6)"/><path d="M38.8 12.55v-.6l-2.3.2.1 1.35z" fill="none" stroke="#000" stroke-linecap="round" stroke-linejoin="round" stroke-opacity=".502" stroke-width=".05"/><path d="m11.05-24.05-2.25 1.9-.6-1.65 2.6-.95.25.7" fill="#704e26" fill-rule="evenodd" transform="translate(28.95 29.6)"/><path d="m40 5.55-.25-.7-2.6.95.6 1.65z" fill="none" stroke="#000" stroke-linecap="round" stroke-linejoin="round" stroke-opacity=".502" stroke-width=".05"/><path d="M-27.75 18.7q-.15.2.1.9.25.65 1.9.9l3.2.45 3.15.05 4.85-.8q3.25-.7 4.65-2.75l1.35 1.4Q-7.5 22.5-18.9 23q-10-.4-9.65-3.55l.8-.75" fill="#deb185" fill-rule="evenodd" transform="translate(28.95 29.6)"/><path d="M-9.9 17.45q-1.4 2.05-4.65 2.75l-4.85.8-3.15-.05-3.2-.45q-1.65-.25-1.9-.9-.25-.7-.1-.9 4.75-3.75 7.3-7.1 2.2-2.4 3.7-1.35l6.85 7.2" fill="#fc9" fill-rule="evenodd" transform="translate(28.95 29.6)"/><path d="M-8.95 17.5q.45.55-.1.95l-.2.15q-.65.4-1.05-.2-.45-.65.25-1.1l.85-.05.25.25m-3.45-2.65q-.75.4-1-.25-.3-.7.2-1.05.45-.4 1 .25.55.6-.2 1.05m1.7.45q.3.65-.4 1.05-.65.4-.9-.25-.2-.65.4-1.05.55-.4.9.25m-4.1-1.85q-.25-.65.4-1.05.7-.35 1 .25.35.55-.45 1-.75.45-.95-.2m4.5 7.85.75.1q.25.45-.2.75l-.7-.1q-.3-.45.15-.75m-2.95 1.3q-.25-.7.45-1.05.7-.4 1.05.2t-.45 1.1q-.8.45-1.05-.25m-1.05-.25q.45.55-.15.9t-.8-.25q-.25-.55.15-.85.35-.3.8.2m5.25-1.95q-.15-.45.25-.7.4-.3.65.15.2.45-.25.7-.5.3-.65-.15m-11.55-8.2q.35.6-.45 1.1-.8.45-1.05-.25t.45-1.05q.7-.4 1.05.2m.25-2.25q.55-.5 1.25.15 0-.45.45-.75.55-.4.9.25.3.65-.4 1.05l-.45.15q.15.6-.6 1-1.05.6-1.4-.35t.25-1.5m3.3 1.5q-.45-.65.25-1.1.65-.45 1.05.2t-.25 1.1q-.65.4-1.05-.2m-9.3 5.15.75-.05q0-.45.4-.7.55-.4.85.2t-.35 1l-.25.15q.3.55-.45.95-.85.5-1.15-.3-.35-.8.2-1.25m-.9 1.9q.35.55-.45 1-.75.45-.95-.2-.25-.65.4-1.05.7-.35 1 .25m.35 4.35q-.25-.8.45-1.3.7-.45 1.1.3.4.8-.45 1.3-.85.45-1.1-.3m-1.9-1.8q-.35-.55.25-.95.55-.45.9.15.35.55-.2.95-.55.35-.95-.15m5.75-7.05q.8-.55 1.25.2.5.8-.3 1.3-.75.5-1.25-.2-.5-.75.3-1.3m1.45 8.95q-.15-.4.25-.6.35-.2.55.15.2.3-.25.55l-.55-.1m-2.75.2q-.3-.75.25-1.2.5-.45 1.1.25.65.75-.2 1.25-.85.45-1.15-.3m6.75.2q-.25-.85.5-1.4.75-.5 1.2.35.45.8-.5 1.35-.9.55-1.2-.3m-1.15-.8q.45.75-.3 1.25-.75.45-1.2-.25-.5-.7.25-1.25.75-.5 1.25.25" fill="#deb185" fill-opacity=".502" fill-rule="evenodd" transform="translate(28.95 29.6)"/></g><g id="b"><path d="m406 304 .3.35.25.3.55.75.15.25.35 1.15.15 1.2v.3l-.25 1.4q-4.8 5.95-13.25-.1-.2-.65-.25-1.3v-.3l.1-1.2.4-1.15.5-.85.15-.2.4-.45.2-.2q.1-.1.15-.1l.15-.15h.05l.7-.55.05-.05q1.75-1.1 4-1.1l1.5.1q1.4.25 2.65 1.05l.7.55.3.3m-1.55 3.05q1.5-.7 1.6-1.6.05-.95-2.05-1.95-2.15-1.05-3.65-.8-1.45.25-3.15 1.05-1.65.75-1.45 1.7.15.9 1.85 1.6 1.6.7 3.45.7t3.4-.7" fill="#0d1b1e" fill-rule="evenodd" transform="translate(-386.15 -294.4)"/><path d="m406 304-.3-.3h.05l.25.3" fill="#265059" fill-rule="evenodd" transform="translate(-386.15 -294.4)"/><path d="M394.25 309.6q8.45 6.05 13.25.1-.5 1.35-1.75 2.5-2.05 1.7-4.9 1.7t-4.8-1.7q-1.35-1.15-1.8-2.6" fill="#050b0c" fill-rule="evenodd" transform="translate(-386.15 -294.4)"/><path d="M404.45 307.05q-1.55.7-3.4.7t-3.45-.7q-1.7-.7-1.85-1.6-.2-.95 1.45-1.7 1.7-.8 3.15-1.05 1.5-.25 3.65.8 2.1 1 2.05 1.95-.1.9-1.6 1.6" fill="#173335" fill-rule="evenodd" transform="translate(-386.15 -294.4)"/><path d="m21.35 15.3.25-1.4v-.3l-.15-1.2-.35-1.15-.15-.25-.55-.75-.25-.3-.3-.35-.25-.3h-.05l-.7-.55q-1.25-.8-2.65-1.05l-1.5-.1q-2.25 0-4 1.1l-.05.05-.7.55H9.9l-.15.15q-.05 0-.15.1l-.2.2-.4.45-.15.2-.5.85-.4 1.15-.1 1.2v.3q.05.65.25 1.3m13.25.1q-.5 1.35-1.75 2.5-2.05 1.7-4.9 1.7t-4.8-1.7q-1.35-1.15-1.8-2.6" fill="none" stroke="#000" stroke-linecap="round" stroke-linejoin="round" stroke-opacity=".451" stroke-width=".05"/><path d="m396.05 302.2.05-.15q.4-.2 2.65 2.45l-.45.3-.75.35-1.5-2.95" fill="#173335" fill-rule="evenodd" transform="translate(-386.15 -294.4)"/><path d="m397.55 305.15-.05.05-1 .1-.45-1.25q-.15-.9 0-1.85l1.5 2.95" fill="#122928" fill-rule="evenodd" transform="translate(-386.15 -294.4)"/><path d="M9.95 7.65q.4-.2 2.65 2.45m-2.25.8L9.9 9.65q-.15-.9 0-1.85" fill="none" stroke="#000" stroke-linecap="round" stroke-linejoin="round" stroke-opacity=".451" stroke-width=".05"/><path d="m404.05 304.35.5-3.15.1-.05.05-.05q.6 1.35.45 3.25h-1.1" fill="#173335" fill-rule="evenodd" transform="translate(-386.15 -294.4)"/><path d="m403.1 304.05.85-1.9q.35-.75.6-.95l-.5 3.15-.95-.3" fill="#122928" fill-rule="evenodd" transform="translate(-386.15 -294.4)"/><path d="M18.4 6.8q-.25.2-.6.95l-.85 1.9m1.55-2.9.05-.05q.6 1.35.45 3.25" fill="none" stroke="#000" stroke-linecap="round" stroke-linejoin="round" stroke-opacity=".451" stroke-width=".05"/><path d="m396.35 306.7-.35.5q-.45.7-.45 1.6l.05.4v.2q.15.85.75 1.45.8.85 1.95.85 1.1 0 1.9-.85l.25-.25.45-.9.15-.9-.05-.35q-.1-1-.8-1.75-.8-.85-1.9-.85-1.15 0-1.95.85m1.45 3.85.85-.05.6-.15q.3-.05.3.15l-.2.35-.55.35-.85.05-.9-.35-.4-.45.4-.05.75.15" fill="#919191" fill-rule="evenodd" transform="translate(-386.15 -294.4)"/><path d="m397.8 310.55-.75-.15-.4.05.4.45.9.35.85-.05.55-.35.2-.35q0-.2-.3-.15l-.6.15-.85.05" fill="#e0e0e0" fill-rule="evenodd" transform="translate(-386.15 -294.4)"/><path d="M10.2 12.3q.8-.85 1.95-.85 1.1 0 1.9.85.7.75.8 1.75l.05.35-.15.9-.45.9-.25.25q-.8.85-1.9.85-1.15 0-1.95-.85-.6-.6-.75-1.45v-.2l-.05-.4q0-.9.45-1.6z" fill="none" stroke="#000" stroke-linecap="round" stroke-linejoin="round" stroke-opacity=".302" stroke-width=".05"/><path d="m400.65 309.55-.1.4-.3.2-.25-.2-.15-.4q0-.25.15-.45l.25-.15.3.15.1.45" fill-rule="evenodd" transform="translate(-386.15 -294.4)"/><path d="m14.5 15.15-.1.4-.3.2-.25-.2-.15-.4q0-.25.15-.45l.25-.15.3.15z" fill="none" stroke="#000" stroke-linecap="round" stroke-linejoin="round" stroke-width="1.5"/><path d="m400.15 309.05.1-.15-.1-.1-.25-.05-.25.05-.1.1.1.15.25.05.25-.05" fill="#fff" fill-rule="evenodd" transform="translate(-386.15 -294.4)"/><path d="m406 306.7.35.5q.45.7.45 1.6l-.05.4v.2l-.75 1.45q-.8.85-1.95.85-1.1 0-1.9-.85l-.25-.25-.45-.9q-.15-.4-.15-.9l.05-.35q.1-1 .8-1.75.8-.85 1.9-.85 1.15 0 1.95.85m-1.45 3.85-.85-.05-.6-.15q-.3-.05-.3.15l.2.35.55.35.85.05.9-.35.4-.45-.4-.05-.75.15" fill="#919191" fill-rule="evenodd" transform="translate(-386.15 -294.4)"/><path d="m404.55 310.55.75-.15.4.05-.4.45-.9.35-.85-.05-.55-.35-.2-.35q0-.2.3-.15l.6.15.85.05" fill="#e0e0e0" fill-rule="evenodd" transform="translate(-386.15 -294.4)"/><path d="M19.85 12.3q-.8-.85-1.95-.85-1.1 0-1.9.85-.7.75-.8 1.75l-.05.35q0 .5.15.9l.45.9.25.25q.8.85 1.9.85 1.15 0 1.95-.85L20.6 15v-.2l.05-.4q0-.9-.45-1.6z" fill="none" stroke="#000" stroke-linecap="round" stroke-linejoin="round" stroke-opacity=".302" stroke-width=".05"/><path d="m401.7 309.55.1.4.3.2.25-.2.15-.4-.15-.45q-.1-.15-.25-.15t-.3.15l-.1.45" fill-rule="evenodd" transform="translate(-386.15 -294.4)"/><path d="m15.55 15.15.1.4.3.2.25-.2.15-.4-.15-.45q-.1-.15-.25-.15t-.3.15z" fill="none" stroke="#000" stroke-linecap="round" stroke-linejoin="round" stroke-width="1.5"/><path d="m402.2 309.05-.1-.15.1-.1.25-.05.25.05.1.1-.1.15-.25.05-.25-.05" fill="#fff" fill-rule="evenodd" transform="translate(-386.15 -294.4)"/><path d="m401.3 308.1-.15.85 5.9-2.35q-1.05-1.65-3.3-1.25-1.95.55-2.45 2.75" fill="#050b0c" fill-rule="evenodd" transform="translate(-386.15 -294.4)"/><path d="m15.15 13.7-.15.85 5.9-2.35q-1.05-1.65-3.3-1.25-1.95.55-2.45 2.75z" fill="none" stroke="#000" stroke-linecap="round" stroke-linejoin="round" stroke-opacity=".451" stroke-width=".05"/><path d="m406.65 306.75-2.55.5q-1.35.45-2.9 1.55l-.3.2.25-.1.25-.05 1.6-.7 3.65-1.4" fill="#122a2b" fill-rule="evenodd" transform="translate(-386.15 -294.4)"/><path d="m401.15 308.9.1.35q4.25-2.05 6.05-.4.45-1.3-.25-2.3l-.4.2-3.65 1.4-1.6.7-.25.05" fill="#0d1a1f" fill-opacity=".49" fill-rule="evenodd" transform="translate(-386.15 -294.4)"/><path d="m20.5 12.35-2.55.5q-1.35.45-2.9 1.55l-.3.2.25-.1.25-.05 1.6-.7z" fill="none" stroke="#000" stroke-linecap="round" stroke-linejoin="round" stroke-opacity=".451" stroke-width=".05"/><path d="M400.15 311.2h2l.4.55h-2.65l.25-.55" fill="#0d1b1e" fill-rule="evenodd" transform="translate(-386.15 -294.4)"/><path d="m401.6 310.55.55.65h-2l.65-.75h.5l.3.1" fill="#173335" fill-rule="evenodd" transform="translate(-386.15 -294.4)"/><path d="m400.6 311.75-.25.55-.35-.55h.6m1.2 0h.6l-.35.6-.25-.6" fill="#e4dcc9" fill-rule="evenodd" transform="translate(-386.15 -294.4)"/><path d="m16 16.8-.55-.65m-.8-.1-.65.75m2 0 .4.55h-1.95l-.25.55-.35-.55h-.1l.25-.55m-.15.55h.6m1.2 0h.6l-.35.6-.25-.6" fill="none" stroke="#000" stroke-linecap="round" stroke-linejoin="round" stroke-opacity=".4" stroke-width=".05"/><path d="m401.25 308.05.15.85-5.9-2.35q1.05-1.65 3.3-1.25 1.95.55 2.45 2.75" fill="#050b0c" fill-rule="evenodd" transform="translate(-386.15 -294.4)"/><path d="m15.1 13.65.15.85-5.9-2.35q1.05-1.65 3.3-1.25 1.95.55 2.45 2.75z" fill="none" stroke="#000" stroke-linecap="round" stroke-linejoin="round" stroke-opacity=".451" stroke-width=".05"/><path d="m395.9 306.7 2.55.5q1.35.45 2.9 1.55l.3.2-.25-.1-.25-.05-1.6-.7-3.65-1.4" fill="#122a2b" fill-rule="evenodd" transform="translate(-386.15 -294.4)"/><path d="m401.4 308.85-.1.35q-4.25-2.05-6.05-.4-.45-1.3.25-2.3l.4.2 3.65 1.4 1.6.7.25.05" fill="#0d1a1f" fill-opacity=".49" fill-rule="evenodd" transform="translate(-386.15 -294.4)"/><path d="m9.75 12.3 2.55.5q1.35.45 2.9 1.55l.3.2-.25-.1-.25-.05-1.6-.7z" fill="none" stroke="#000" stroke-linecap="round" stroke-linejoin="round" stroke-opacity=".451" stroke-width=".05"/><path d="M407.15 305.9q-.6-.5-1.4-.75 3.75-3.05 3.15-10.7l.05-.05h.1q1.2 8.15-1.9 11.5m-14.9-10.15h.1l.05.1q-.6 7.6 3.15 10.7l-1.4.7q-3.1-3.3-1.9-11.5" fill="#275857" fill-rule="evenodd" transform="translate(-386.15 -294.4)"/><path d="M409.05 294.4q.6.2 2.4 2.6l1.35 2.25q1.55 2.5 2.05 5.05.55 2.6.05 4.6-.35 2-1.1 3.25l-1.35 1.3-.1-.2q.1-1.75-1.1-3.9-.45 2.05-1.25 2.2-.1-1.8-.95-3.65-.7-1.2-1.9-2 3.1-3.35 1.9-11.5m-16.8 1.35q-1.2 8.2 1.9 11.5-1.2.8-1.9 2-.85 1.85-.95 3.65-.8-.15-1.25-2.15-1.2 2.1-1.1 3.9l-.1.15q-.55-.1-1.35-1.3-.75-1.2-1.1-3.25-.5-2 .05-4.6.5-2.5 2.05-5.05l1.35-2.25q1.8-2.4 2.4-2.6" fill="#050b0c" fill-rule="evenodd" transform="translate(-386.15 -294.4)"/><path d="M21 11.5q-.6-.5-1.4-.75Q23.35 7.7 22.75.05L22.8 0m.1 0q.6.2 2.4 2.6l1.35 2.25q1.55 2.5 2.05 5.05.55 2.6.05 4.6-.35 2-1.1 3.25l-1.35 1.3-.1-.2q.1-1.75-1.1-3.9-.45 2.05-1.25 2.2-.1-1.8-.95-3.65-.7-1.2-1.9-2M8 12.85l1.4-.7q-3.75-3.1-3.15-10.7l-.05-.1m-.1 0q-.6.2-2.4 2.6L2.35 6.2Q.8 8.75.3 11.25q-.55 2.6-.05 4.6.35 2.05 1.1 3.25.8 1.2 1.35 1.3l.1-.15q-.1-1.8 1.1-3.9.45 2 1.25 2.15.1-1.8.95-3.65.7-1.2 1.9-2" fill="none" stroke="#000" stroke-linecap="round" stroke-linejoin="round" stroke-opacity=".451" stroke-width=".05"/></g><use width="54.5" height="53.6" xlink:href="#c" id="a"/></defs></svg>