<svg viewBox="0 0 54.504 53.251" xmlns="http://www.w3.org/2000/svg" xmlns:xlink="http://www.w3.org/1999/xlink"><g transform="translate(-373.02 -273.98)"><use transform="translate(373 273.65)" width="54.5" height="53.6" xlink:href="#a"/><use transform="translate(388.9 297.25)" width="24.25" height="24.7" xlink:href="#b"/><use transform="matrix(-.0123 -.0123 -.0113 .0116 406.95 301.65)" width="0" height="0" xlink:href="#sprite1"/><use transform="translate(396.75 299.35)" width="11.05" height="8.05" xlink:href="#c"/><use transform="matrix(-.0234 .0134 .0087 .0208 401.45 305.4)" width="0" height="0" xlink:href="#sprite1"/><use transform="translate(388.45 287.95)" width="22.6" height="23.8" xlink:href="#d"/></g><defs><g id="e"><path d="m12.1-14.05.75 1.5-.15.15-.3.1-1.2.35-.3-.5.05-.1q1-.7 1.15-1.5m1.35 2.2q2.05 1.1 2.7 3.2l-1.35.55-.9.3-.6-.1-1.2-2.45v-.05l.1-.2 1.25-1.25m3.1 3.6v.05l.5.65h.05q1.35-.65 3.35-.9Q22.5-8.6 21.8-7l-3.3 2.35-.15.25q-.35.55.05 1.7L19.6.05h-.05L18.6-.5l-.8-.3-1 .7-1.9-4.4.6-.8q-.55-.3-.7-.7-.2-.55.7-1.35l1.05-.9M21.4-4.5q2.35 1.15 4.1 3.45V-1l-.75-.35-.7-.3-2.55-1.3q-.25-.8-.1-1.55M11-16.35l.2.45.1.25-.3.2-.3.05-.35-.1-.15-.05-.3-.2v-.05q-.15-.45.35-.6l.75.05M5.85-13.3v-.1q0-.45.6-.7l1.3-.5h.15l.05-.05h.45l.65.5q.25.65-.8 1.15l-.65.25-.95.1q-.65-.05-.8-.45v-.2m-5.7.3 1.65.05q.95.15 1.3.45l.15.2.1.25q0 .45-.6.65l-.8.15-.75-.05q-1.2 0-1.35-.5l.05-.35v-.2l-.05-.3.3-.35M17.1-7.55 15.5-5.3l1.6-2.25m-26-7.05v-.1l-.05-.25V-15l.4-.4q1.2.35 1.35.8v.4l-.2.15H-8q-.65-.15-.9-.55m2.95 1.8-.2-.05-.05-.05.55-.65.65-.05.65.05 1.05.35.3.45q.15.45-.3.6l-1.3-.15-1.25-.5h-.1" fill="#e0b359" fill-rule="evenodd" transform="translate(28.95 29.6)"/><path d="M9.7-17h.65l.85.55.7 1.2q.3.6.2 1.2-.15.8-1.15 1.5l-.05.1-.3.45-1.15.75q-1.45.8-3.4 1.2l-1.35.3q.5-1.85-.25-2.9l-.1-.1-.9-.65.9.65.1.1q.75 1.05.25 2.9l-5.95.2q-5.25.35-5.95-.7l-.9-.95q.15-1.45 1.05-2.4l.4-.45 1-.65.25-.1-.25.1-1 .65-.4.45q-.9.95-1.05 2.4l-.7-.45q-1.25-1.05-.85-2.6l.2-.55 1-1.65 1.6.95 1.45.7q1.8-.45 4.1 1.3l4.75.1 1.9-1.15 2.2-.55.55-.05.3-.05.5.05.65.15q1.5.4 1.4 2.45.1-2.05-1.4-2.45l-.65-.15-.5-.05-.3.05-.55.05.7-.5L9.6-17h.1m3.15 4.45.6.7-1.25 1.25-.1.2-.25-.45-.65-1.1 1.2-.35.3-.1.15-.15m3.3 3.9.4.4-1.05.9q-.9.8-.7 1.35.15.4.7.7l-.6.8-1-2.1-.45-.95-.15-.35.6.1.9-.3 1.35-.55M21.8-7l-.4 2.5q-.15.75.1 1.55l2.55 1.3.7.3.75.35v-.05l.05.05h-.05Q23.05.45 20.65.25l.3 4q-1.9-.95-3.15-2.75l-.3.15-.45-1.1-.25-.65 1-.7.8.3.95.55h.05L18.4-2.7q-.4-1.15-.05-1.7l.15-.25L21.8-7M11-16.35l-.75-.05q-.5.15-.35.6v.05l.3.2.15.05.35.1.3-.05.3-.2-.1-.25-.2-.45M.15-13l-.3.35.05.3v.2l-.05.35q.15.5 1.35.5l.75.05.8-.15q.6-.2.6-.65l-.1-.25-.15-.2q-.35-.3-1.3-.45L.15-13m5.7-.3v.2q.15.4.8.45l.95-.1.65-.25q1.05-.5.8-1.15l-.65-.5h-.45l-.05.05h-.15l-1.3.5q-.6.25-.6.7v.1m10.4 4.75L13.9-6.6l2.35-1.95m-4.4-2.3.85-1.55-.85 1.55M-8.9-14.6q.25.4.9.55h.6l.2-.15v-.4q-.15-.45-1.35-.8l-.4.4v.05l.05.25v.1m2.95 1.8h.1l1.25.5 1.3.15q.45-.15.3-.6l-.3-.45-1.05-.35-.65-.05-.65.05-.55.65.05.05.2.05m4.65-.7-.3.5-.1.25q-.6 1.6.45 3.2-1.05-1.6-.45-3.2l.1-.25.3-.5" fill="#9c7c3e" fill-rule="evenodd" transform="translate(28.95 29.6)"/><path d="M12.65-25.1q.2.7-.25 1.4l-1.2 3.2-.3.65L9.7-17h-.1l-1.35 1.4.9-2.35q1.15-3.2 1.4-4.8v-.05l2.1-2.3m-2.2 2.35.1-.05v.05h-.1m-9 .25.45-.25-.25.4-.2-.15m8 11.25L10.6-12l.3-.45.3.5.65 1.1.25.45v.05h-.05l-.35.05h-.2l-1.15.05-.25.1-.65-1.1" fill="#634521" fill-rule="evenodd" transform="translate(28.95 29.6)"/><path d="m19.1 11.7-.35 2.35.4.25-.75.05-1.1.2q-.85.2-.85.65.1.55 1.05.75l1.6.2.95-.3.1.35q.3 3.15-3.8 1.35Q5 19.35.15 19.35q-4.7-.05-10.25-2.95-6.05-3.1-7.3-6.75l-.95-2.15.05.05q.55.45-.2-.35 2.15 2.2 5.25 4.35Q-7.5 15.8-1.9 15.9q5.55-.05 7.1-1.3t3.1-1.9q1.6-.7 3.65-.5l2.85-.05q.7-.45 2.3-1.1l.2.1q.3 0 .85.3l.95.25M-12.15-9.8l3.35-1.85.7.45.9.95q.7 1.05 5.95.7l5.95-.2 1.35-.3q1.95-.4 3.4-1.2l.65 1.1-.55.2-.2.2-.45.85-2.35 1.5q-2 1.2-5.2 1.5-3.25.3-9.05-1.95-1.8-.65-4.45-1.95m5.3-5.7-1.8-1.85-1.25-1.35q-2.05-2.15-2.75-3.4 6.5 3.1 8.75 3.6 3.95.9 9.65-1.1 2.4-.85 4.7-3.15h.1q-.25 1.6-1.4 4.8l-.9 2.35-.7.5-2.2.55-1.9 1.15-4.75-.1q-2.3-1.75-4.1-1.3l-1.45-.7M5.7-22.55l-1.3.75q-1.8.85-3.6.65l-1.05-.05-5.35-.95q-3.05-.65-3.75-2-.65-1.35.75-2.15l.7-.3-.35.65.05.9q.55 1.65 4.55 2.45l4.15.45.95-.35.2.15-.85 1.2.85-1.2.25-.4.55-.5q.3.85 1.85.85l1.4-.15m11.6 37.1q.2-1.6 0-3.4.2 1.8 0 3.4" fill="#705739" fill-rule="evenodd" transform="translate(28.95 29.6)"/><path d="m1.9-22.75.4-.6.15.1-.55.5m15.2 33.8h.2v.1l-.2-.1" fill="#8c622f" fill-rule="evenodd" transform="translate(28.95 29.6)"/><path d="M-12.65-22.1q-.6-.9-.6-1.3 0-1.15 2.1-3l3.85-2.75 4.7-.1 5.25 1.5L4-27.5l2.9-.3 3-.3q1.25.3 2.25 1.65l.5 1.35-2.1 2.3-.1.05q-2.3 2.3-4.7 3.15-5.7 2-9.65 1.1-2.25-.5-8.75-3.6M17.5 1.65q1.05 2.75 1.55 6.4.2 1.55.05 3.65l-.95-.25q-.55-.3-.85-.3v-.1Q16.9 7 15.25 2.1l-.3-.95L13.8-1.9l-1.7-3.95-.6-1.3-.8-1.7-.05-.1-.55-1.2.25-.1 1.15-.05h.2l.35-.05h.05l1.2 2.45.15.35.45.95 1 2.1 1.9 4.4.25.65.45 1.1m1.65 12.65.35.35q.45.45.55 1.2l-.95.3-1.6-.2q-.95-.2-1.05-.75 0-.45.85-.65l1.1-.2.75-.05m-37.5-6.8q-.5-.6-.75-3.2-.25-2.8 2.35-7.85 2.55-5.1 4.6-6.25Q-9.5-8.5-7.7-7.85-1.9-5.6 1.35-5.9q3.2-.3 5.2-1.5L8.9-8.9l.45-.85.2-.2.55-.2.55 1.2.05.1.8 1.7.6 1.3 1.7 3.95 1.15 3.05.3.95Q16.9 7 17.3 11.05h-.2q-1.6.65-2.3 1.1l-2.85.05q-2.05-.2-3.65.5-1.55.65-3.1 1.9t-7.1 1.3q-5.6-.1-11.35-4.35-3.1-2.15-5.25-4.35l.15.3-.15-.3q.75.8.2.35l-.05-.05M5.7-22.55 7.35-24l2.2-.5.6.3q.45.25.4 1.4.05-1.15-.4-1.4l-.6-.3-2.2.5-1.65 1.45-1.4.15q-1.55 0-1.85-.85l-.15-.1-.4.6-.45.25-.95.35-4.15-.45q-4-.8-4.55-2.45l-.05-.9.35-.65-.7.3q-1.4.8-.75 2.15.7 1.35 3.75 2l5.35.95 1.05.05q1.8.2 3.6-.65l1.3-.75M3.1-24.5l-.8 1.15.8-1.15m2.45-1.8q5.5-.7 1.8 2.3 3.7-3-1.8-2.3M19.5 14.65l-2.1.4h-.05l-.05-.5.05.5h.05l2.1-.4" fill="#8c6d47" fill-rule="evenodd" transform="translate(28.95 29.6)"/><path d="M16.3 7.5q-.6-.9-.6-1.3 0-1.15 2.1-3L21.65.45l4.7-.1 5.25 1.5 1.35.25 2.9-.3 3-.3q1.25.3 2.25 1.65l.5 1.35q.2.7-.25 1.4l-1.2 3.2-.3.65-1.2 2.85h.65l.85.55.7 1.2q.3.6.2 1.2l.75 1.5.6.7q2.05 1.1 2.7 3.2l.4.4m0 .05.5.65h.05q1.35-.65 3.35-.9 2.05-.15 1.35 1.45l-.4 2.5q2.35 1.15 4.1 3.45l.05.05h-.05Q52 30.05 49.6 29.85l.3 4q-1.9-.95-3.15-2.75l-.3.15Q47.5 34 48 37.65q.2 1.55.05 3.65l-.35 2.35.4.25.35.35q.45.45.55 1.2l.1.35q.3 3.15-3.8 1.35-11.35 1.8-16.2 1.8-4.7-.05-10.25-2.95-6.05-3.1-7.3-6.75l-.95-2.15q-.5-.6-.75-3.2-.25-2.8 2.35-7.85 2.55-5.1 4.6-6.25l3.35-1.85q-1.25-1.05-.85-2.6l.2-.55 1-1.65 1.6.95-1.8-1.85-1.25-1.35Q17 8.75 16.3 7.5m23.2-.7q.05-1.15-.4-1.4l-.6-.3-2.2.5-1.65 1.45-1.3.75q-1.8.85-3.6.65L28.7 8.4l-5.35-.95q-3.05-.65-3.75-2-.65-1.35.75-2.15l.7-.3m9.8 3.85.4-.6.8-1.15m7.45 1.75V6.8m0 .05q-.25 1.6-1.4 4.8L37.2 14l1.35-1.4h.1m1.25 4.45q1-.7 1.15-1.5m-1.2 1.6.05-.1Q40 15 38.5 14.6l-.65-.15-.5-.05-.3.05-.55.05-2.2.55-1.9 1.15.9.65.1.1q.75 1.05.25 2.9l1.35-.3q1.95-.4 3.4-1.2l1.15-.75.3-.45.3.5m1.5-.45.15-.15m-11.2-9.8.25-.4m-1.1 1.6.85-1.2M37.2 14l-.7.5m2.55 4.95-.65-1.1m2.65.9v-.05l-.25-.45-.65-1.1m4.3 6.65 1.6-2.25m.2 18.6q-.4-4.05-2.05-8.95l-.3-.95-1.15-3.05-1.7-3.95-.6-1.3-.8-1.7-.05-.1-.55-1.2m3.2 2.25.15.35.45.95 2.35-1.95m-2.95.65-1.2-2.45m4.7 10.25.25.65.45 1.1m-2.6-6.15.6-.8m1.3 5.2-1.9-4.4-1-2.1m-1.2-5.8-.85 1.55M36.3 5.6q3.7-3-1.8-2.3M20.85 18.4Q21 16.95 21.9 16l.4-.45 1-.65.25-.1-1.45-.7m5.6 5.95q-1.05-1.6-.45-3.2l.1-.25.3-.5q-2.3-1.75-4.1-1.3m-2.7 3.6.9.95q.7 1.05 5.95.7l5.95-.2m-13.5-1.9.7.45m-10.4 18.4.15.3.05.05q.55.45-.2-.35m35.8 3.85v.1q.2 1.8 0 3.4l.05.5h.05l2.1-.4M32.4 16.2l-4.75-.1" fill="none" stroke="#362a1b" stroke-linecap="round" stroke-linejoin="round" stroke-opacity=".502" stroke-width=".05"/><path d="m15.1 11.75 3.45-1.3.1 1.75-3.5.3-.05-.75" fill="#704e26" fill-rule="evenodd" transform="translate(28.95 29.6)"/><path d="m44.05 41.35.05.75 3.5-.3-.1-1.75z" fill="none" stroke="#000" stroke-linecap="round" stroke-linejoin="round" stroke-opacity=".502" stroke-width=".05"/><path d="m18.55 8.15-3.45 1.3L15 7.7l3.5-.3.05.75" fill="#704e26" fill-rule="evenodd" transform="translate(28.95 29.6)"/><path d="m47.5 37.75-.05-.75-3.5.3.1 1.75z" fill="none" stroke="#000" stroke-linecap="round" stroke-linejoin="round" stroke-opacity=".502" stroke-width=".05"/><path d="m12.9-7.8-2.25 1.9-.6-1.65 2.6-.95.25.7" fill="#704e26" fill-rule="evenodd" transform="translate(28.95 29.6)"/><path d="m41.85 21.8-.25-.7-2.6.95.6 1.65z" fill="none" stroke="#000" stroke-linecap="round" stroke-linejoin="round" stroke-opacity=".502" stroke-width=".05"/><path d="m9.85-17.05-2.2.95-.1-1.35 2.3-.2v.6" fill="#704e26" fill-rule="evenodd" transform="translate(28.95 29.6)"/><path d="M38.8 12.55v-.6l-2.3.2.1 1.35z" fill="none" stroke="#000" stroke-linecap="round" stroke-linejoin="round" stroke-opacity=".502" stroke-width=".05"/><path d="m11.05-24.05-2.25 1.9-.6-1.65 2.6-.95.25.7" fill="#704e26" fill-rule="evenodd" transform="translate(28.95 29.6)"/><path d="m40 5.55-.25-.7-2.6.95.6 1.65z" fill="none" stroke="#000" stroke-linecap="round" stroke-linejoin="round" stroke-opacity=".502" stroke-width=".05"/><path d="M-27.75 18.7q-.15.2.1.9.25.65 1.9.9l3.2.45 3.15.05 4.85-.8q3.25-.7 4.65-2.75l1.35 1.4Q-7.5 22.5-18.9 23q-10-.4-9.65-3.55l.8-.75" fill="#deb185" fill-rule="evenodd" transform="translate(28.95 29.6)"/><path d="M-9.9 17.45q-1.4 2.05-4.65 2.75l-4.85.8-3.15-.05-3.2-.45q-1.65-.25-1.9-.9-.25-.7-.1-.9 4.75-3.75 7.3-7.1 2.2-2.4 3.7-1.35l6.85 7.2" fill="#fc9" fill-rule="evenodd" transform="translate(28.95 29.6)"/><path d="M-8.95 17.5q.45.55-.1.95l-.2.15q-.65.4-1.05-.2-.45-.65.25-1.1l.85-.05.25.25m-3.45-2.65q-.75.4-1-.25-.3-.7.2-1.05.45-.4 1 .25.55.6-.2 1.05m1.7.45q.3.65-.4 1.05-.65.4-.9-.25-.2-.65.4-1.05.55-.4.9.25m-4.1-1.85q-.25-.65.4-1.05.7-.35 1 .25.35.55-.45 1-.75.45-.95-.2m4.5 7.85.75.1q.25.45-.2.75l-.7-.1q-.3-.45.15-.75m-2.95 1.3q-.25-.7.45-1.05.7-.4 1.05.2t-.45 1.1q-.8.45-1.05-.25m-1.05-.25q.45.55-.15.9t-.8-.25q-.25-.55.15-.85.35-.3.8.2m5.25-1.95q-.15-.45.25-.7.4-.3.65.15.2.45-.25.7-.5.3-.65-.15m-11.55-8.2q.35.6-.45 1.1-.8.45-1.05-.25t.45-1.05q.7-.4 1.05.2m.25-2.25q.55-.5 1.25.15 0-.45.45-.75.55-.4.9.25.3.65-.4 1.05l-.45.15q.15.6-.6 1-1.05.6-1.4-.35t.25-1.5m3.3 1.5q-.45-.65.25-1.1.65-.45 1.05.2t-.25 1.1q-.65.4-1.05-.2m-9.3 5.15.75-.05q0-.45.4-.7.55-.4.85.2t-.35 1l-.25.15q.3.55-.45.95-.85.5-1.15-.3-.35-.8.2-1.25m-.9 1.9q.35.55-.45 1-.75.45-.95-.2-.25-.65.4-1.05.7-.35 1 .25m.35 4.35q-.25-.8.45-1.3.7-.45 1.1.3.4.8-.45 1.3-.85.45-1.1-.3m-1.9-1.8q-.35-.55.25-.95.55-.45.9.15.35.55-.2.95-.55.35-.95-.15m5.75-7.05q.8-.55 1.25.2.5.8-.3 1.3-.75.5-1.25-.2-.5-.75.3-1.3m1.45 8.95q-.15-.4.25-.6.35-.2.55.15.2.3-.25.55l-.55-.1m-2.75.2q-.3-.75.25-1.2.5-.45 1.1.25.65.75-.2 1.25-.85.45-1.15-.3m6.75.2q-.25-.85.5-1.4.75-.5 1.2.35.45.8-.5 1.35-.9.55-1.2-.3m-1.15-.8q.45.75-.3 1.25-.75.45-1.2-.25-.5-.7.25-1.25.75-.5 1.25.25" fill="#deb185" fill-opacity=".502" fill-rule="evenodd" transform="translate(28.95 29.6)"/></g><g id="b"><path d="M410.2 308.55q-1.05-1.3-1.5-2.75 1.15-1.05 2.9-1.2.75 1.6-1.4 3.95" fill="#323642" fill-rule="evenodd" transform="translate(-388.9 -297.25)"/><path d="M19.8 8.55q1.15-1.05 2.9-1.2.75 1.6-1.4 3.95" fill="none" stroke="#000" stroke-linecap="round" stroke-linejoin="round" stroke-opacity=".2" stroke-width=".05"/><path d="m408.75 307.05 1.65 2.85q1.9-1.9 1.65-3.55-1.9-.2-3.3.7" fill="#c7316a" fill-rule="evenodd" transform="translate(-388.9 -297.25)"/><path d="M19.85 9.8q1.4-.9 3.3-.7.25 1.65-1.65 3.55" fill="none" stroke="#000" stroke-linecap="round" stroke-linejoin="round" stroke-opacity=".2" stroke-width="1.5"/><path d="M410.3 307.65h-.05.05" fill="#d3c28e" fill-rule="evenodd" transform="translate(-388.9 -297.25)"/><path d="M410.3 307.65h-.05.05" fill="#571737" fill-rule="evenodd" transform="translate(-388.9 -297.25)"/><path d="m410.25 307.65.6-.9q.5-.55.95-.75v.45l-.1.7v.05q-.2.85-.7.85l-.45-.2-.25-.2h-.05" fill="#0e1c1c" fill-rule="evenodd" transform="translate(-388.9 -297.25)"/><path d="M409.65 306.45q.2-.55.95-1.15.8-.65 1.25-.7h.2v.05l.05.05v.05l.25.65-.05 2-.1.35-.05.15-.2.45-.5.2q-.4 0-.75-.3l-.45-.6-.05.15-.55-1.35m2.15-.45q-.45.2-.95.75l-.6.9h.05l.25.2.45.2q.5 0 .7-.85v-.05l.1-.7V306" fill="#2a353b" fill-rule="evenodd" transform="translate(-388.9 -297.25)"/><path d="m23.3 10.5.1-.35.05-2-.25-.65v-.05l-.05-.05v-.05h-.2q-.45.05-1.25.7-.75.6-.95 1.15m.55 1.35.05-.15.6-.9q.5-.55.95-.75" fill="none" stroke="#332720" stroke-linecap="round" stroke-linejoin="round" stroke-opacity=".2" stroke-width="1.5"/><path d="M397.75 297.4v-.05l.15-.1h.55l1.05.3q.7.3.8.55v.2l-.25.1-1.45-.45-.1-.1-.75-.45" fill="#eaece1" fill-rule="evenodd" transform="translate(-388.9 -297.25)"/><path d="m400.3 298.3-.25.45-.2.45-.15.75-.05-.05-.2-.05-.2.05-.35-.05-.2-.05h-.05l-.35-.15.2-1.8.1.1 1.45.45.25-.1m-.25.45-.3.65-.1.5.1-.5.3-.65m-1.2-.3-.15.85v.5-.5l.15-.85m.15.85-.1.55.1-.55" fill="#aeaf85" fill-rule="evenodd" transform="translate(-388.9 -297.25)"/><path d="M397.8 297.85v-.15l-.05-.3.75.45-.2 1.8.35.15h.05l.2.05v.05l-.05.1.05-.1v-.05l.35.05-.15.05-.25.05h-.05l-.15.05.05-.25-.05.25-.4.1-.35-.1-.2-.1-.05-.1v-.1l.1-.55.05-.15v-1.2" fill="#605c42" fill-rule="evenodd" transform="translate(-388.9 -297.25)"/><path d="M399.7 299.95h.05q1.5 1.45 2.75 1.95v.15l-.05.25-.15.5q-.4.8-1.4.8h-.4l-1.4-1.3.5-1.65-.75-.65.25-.05.15-.05.2-.05.2.05.05.05m-3.7-2.5.8-.15.6.05.4.5v1.2l-1.8-1.6m5.65 4.35-1.55-1.05-1-.8 1 .8 1.55 1.05" fill="#454730" fill-rule="evenodd" transform="translate(-388.9 -297.25)"/><path d="m399.1 302.3-1.65-1.3-2.45-1.7-.15-.5-.05-.05.05-.1.05-.15.05-.2.05-.05.55-.6q.25-.15.45-.2l1.8 1.6-.05.15-.1.55v.1l.05.1.2.1.35.1.4-.1.15-.05h.05l.75.65-.5 1.65m-1.7-1.9 1.2.9-1.2-.9m0-.15.95.65.7.55-.7-.55-.95-.65m-1.55-1.45-.9-.5.9.5.15-.15.25.2.6.4-.6-.4-.25-.2-.15.15.3.2-.3-.2m.55.8-1.15-.65-.45-.2.45.2 1.15.65" fill="#808055" fill-rule="evenodd" transform="translate(-388.9 -297.25)"/><path d="m11.4 1.05-.25.45-.2.45-.15.75h.05q1.5 1.45 2.75 1.95v.15l-.05.25-.15.5q-.4.8-1.4.8h-.4l-1.4-1.3-1.65-1.3-2.45-1.7-.15-.5-.05-.05.05-.1.05-.15.05-.2L6.1 1l.55-.6Q6.9.25 7.1.2l.8-.15.6.05.4.5V.45l-.05-.3V.1L9 0h.55l1.05.3q.7.3.8.55v.2l-.25.1L9.7.7 9.6.6 8.85.15m.95 2.4v-.5l.15-.85m.8 1.45.1-.5.3-.65m-.35 1.2-.05-.05-.2-.05-.2.05-.15.05 1 .8 1.55 1.05m-3-1.75.15-.05h.05l.05-.1V2.6l.1-.55m-.3.5-.05.25-.4.1L9 2.8l-.2-.1-.05-.1v-.1l.1-.55.05-.15m1.05.95.25-.05M8.9.6v1.2m-3-.3.45.2 1.15.65M7.95 2l-.6-.4-.25-.2-.15.15.3.2m-1.2-.7.9.5m3.2 2.65-.7-.55L8.5 3m1.2 1.05-1.2-.9" fill="none" stroke="#332720" stroke-linecap="round" stroke-linejoin="round" stroke-opacity=".2" stroke-width=".05"/><path d="m391.95 300.35.15-.1.65-.2 1.25.1q.8.15.95.35l.1.25-.3.15-1.7-.15-.35-.05-.75-.35" fill="#eaece1" fill-rule="evenodd" transform="translate(-388.9 -297.25)"/><path d="m391.95 300.35.75.35.05 1.7q.1.6.7.55l-.45.15-.4.05-.25-.1-.05-.1v-.7l-.05-.25-.05-.7-.1-.45-.05-.2-.1-.3" fill="#727850" fill-rule="evenodd" transform="translate(-388.9 -297.25)"/><path d="m390.4 300.65.5-.15.65-.1.55.45.1.45.05.7-1.85-1.35" fill="#797553" fill-rule="evenodd" transform="translate(-388.9 -297.25)"/><path d="m394.65 302.55.05.05q1.95 1.15 3.45 1.4v.15l.05.25-.1.55q-.3.95-1.4 1.2l-.5.05-.9-.6-.1-.4q-.7-1.1-2-1.85l2.1 1 .35-.85-.45-.15-1.25-.65.4-.1h.1l.15-.05h.05m2.55 1.5-1.55-.55 1.55.55" fill="#605c42" fill-rule="evenodd" transform="translate(-388.9 -297.25)"/><path d="m393.95 302.7 1.25.65.45.15-.35.85-2.1-1q1.3.75 2 1.85l.1.4-3.05-1.4-3.1-1.15V303l-.25-.45v-.3l.05-.3v-.05l.6-.7q.35-.35.85-.55l1.85 1.35.05.25v.7l.05.1.25.1.4-.05.45-.15.2-.1h.05l.25-.15m-2.7-.15-1.05-.45-.15.25-1.1-.4 1.1.4.15-.25 1.05.45m-1.2-.2.4.1-.4-.1m.75.65-1.35-.4-.55-.1.55.1 1.35.4m1.3.65 1.55.6-1.55-.6m0-.15 1.15.4.9.4-.9-.4-1.15-.4" fill="#979268" fill-rule="evenodd" transform="translate(-388.9 -297.25)"/><path d="M394.65 302.55h-.05l-.15.05h-.1l-.4.1-.25.15v-.45l.05-.3-.05.3v.45h-.05l-.2.1q-.6.05-.7-.55l-.05-1.7.35.05 1.7.15.3-.15-.4 1.05v.75m-1.25-1.3v1.2l.05.5-.05-.5v-1.2m1.3 0-.1.8v.5-.5l.1-.8" fill="#afab8b" fill-rule="evenodd" transform="translate(-388.9 -297.25)"/><path d="m6.4 8.35.9.6.5-.05q1.1-.25 1.4-1.2l.1-.55-.05-.25v-.15q-1.5-.25-3.45-1.4l-.05-.05H5.7l-.15.05h-.1l-.4.1 1.25.65.45.15 1.55.55M6.15 3.5l-.4 1.05v.75m.4-1.8-.1-.25q-.15-.2-.95-.35l-1.25-.1-.65.2-.15.1.75.35.35.05 1.7.15.3-.15M1.5 3.4l.5-.15.65-.1.55.45-.05-.2-.1-.3m.15.5.1.45.05.7.05.25v.7l.05.1.25.1.4-.05.45-.15-.05-.5V4m-3-.6q-.5.2-.85.55l-.6.7v.05l1.1.4.15-.25 1.05.45M0 5.25v.05l.25.45v.05l3.1 1.15 3.05 1.4M.05 4.7 0 5v.25l.55.1 1.35.4m-.35-.55-.4-.1m4.55.2v-.5l.1-.8m-1 1.6v-.45l.05-.3m-.05.75.25-.15m-.5.25.2-.1h.05m.45 1.45-.9-.4-1.15-.4M4.75 7 3.2 6.4" fill="none" stroke="#332720" stroke-linecap="round" stroke-linejoin="round" stroke-opacity=".2" stroke-width=".05"/><path d="M411.65 321.8q-1.35-3.1-4-5.7l.75-.95.7.1v-.6q.85-.55 1.9-.9l.15.25.3.45q-.6-.4-.95.45 1.15 1.35 1.75 2.8h-.05q-.7-1.35-1.95-2.3l.25 1q.4 1 1.3 1.75l-2.85-1.8.15.95q1.45 1.6 2.5 3.55l.25-1.55-.2 2.5" fill="#aeaf85" fill-rule="evenodd" transform="translate(-388.9 -297.25)"/><path d="m411.9 315.3.75 2.05-.4.35q-.6-1.45-1.75-2.8.35-.85.95-.45l.45.85m-.1 2.85.05 1.15-.25 1.55q-1.05-1.95-2.5-3.55l-.15-.95 2.85 1.8" fill="#eaece1" fill-rule="evenodd" transform="translate(-388.9 -297.25)"/><path d="m405.6 315.9.15-1.15 2.65.4-.75.95q2.65 2.6 4 5.7l-.05.15-2.1-3.25q-1.8-2.3-3.9-2.8m3.5-3.15 1.2.05 1.2.1.4 2.4-.45-.85-.3-.45-.15-.25q-1.05.35-1.9.9v-1.9m3.1 4.95-.7-.7.3 1.15q-.9-.75-1.3-1.75l-.25-1q1.25.95 1.95 2.3m-1.9-4.9.7.95-.7-.95m1.2 4.2-1-.6 1 .6" fill="#8e8e60" fill-rule="evenodd" transform="translate(-388.9 -297.25)"/><path d="m408.4 315.15.7-.5v.6l-.7-.1" fill="#352e36" fill-rule="evenodd" transform="translate(-388.9 -297.25)"/><path d="m408.4 315.15-2.65-.4.3-2.25 3.05.25v1.9l-.7.5" fill="#0f1a1c" fill-rule="evenodd" transform="translate(-388.9 -297.25)"/><path d="M16.7 18.65q2.1.5 3.9 2.8l2.1 3.25.05-.15M19.5 17.9l-2.65-.4m5.75-1.85.4 2.4.75 2.05-.4.35h-.05l-.7-.7.3 1.15.05 1.15-.2 2.5M19.5 17.9l.7.1v-2.5m2.35 1.7-.3-.45-.15-.25-.7-.95m1.15 1.65.45.85m-1.4 1.1 1 .6" fill="none" stroke="#000" stroke-linecap="round" stroke-linejoin="round" stroke-opacity=".2" stroke-width=".05"/><path d="m404.95 315.55-.05-.05-.1-.05v-.4l.15.5" fill="#9a275b" fill-rule="evenodd" transform="translate(-388.9 -297.25)"/><path d="M405.5 316.7h-.05.05" fill="#686742" fill-rule="evenodd" transform="translate(-388.9 -297.25)"/><path d="m396.6 306.15.2-.4 6.45-3.6 1.65 1h.05q2.6 1.6 5.75 2.95l.3.4-.65 1.15-3.9 1.5-.05.05h-.35l-.05-.05q-3.25-.15-9.4-3" fill="#745c69" fill-rule="evenodd" transform="translate(-388.9 -297.25)"/><path d="m396.2 308.8-.05-.65q.05-1.25.45-2 6.15 2.85 9.4 3l.05.05h.35l-.5 1.95-1.15 2.9.05 1-.1-.25-.15-.25q-1.2-2.65-3.15-3.7l-1.25 2.25q-.95-5.05-2.75-5.45-.5.05-.4 1.7l.2 1.35.1.05q.05.95.45 1.75-1.25-1.1-1.55-3.7" fill="#29343a" fill-rule="evenodd" transform="translate(-388.9 -297.25)"/><path d="M404.8 315.05v.4q-1.95-1.5-4.9-2.05-1.3-.1-2.15-.9-.4-.8-.45-1.75l-.1-.05-.2-1.35q-.1-1.65.4-1.7 1.8.4 2.75 5.45l1.25-2.25q1.95 1.05 3.15 3.7l.15.25.1.25" fill="#14252c" fill-rule="evenodd" transform="translate(-388.9 -297.25)"/><path d="M404.8 315.45q-1.9-.9-3.3-.9l-2.35-.25q-1.3-.5-2.15-1.7-.75-1.9-.8-3.8.3 2.6 1.55 3.7.85.8 2.15.9 2.95.55 4.9 2.05" fill="#0d1d1d" fill-rule="evenodd" transform="translate(-388.9 -297.25)"/><path d="m411 306.5.95 1.2-.25 3.7q-2.65.85-5.3 2.65l.1 1.7-1 .95h-.05l-.5-1.15-.15-.5-.05-1 1.15-2.9.5-1.95.05-.05 3.9-1.5.65-1.15" fill="#45454f" fill-rule="evenodd" transform="translate(-388.9 -297.25)"/><path d="m411.7 311.4.05.2.65 1.75q-2.85-.3-5.9 2.4l-.1-1.7q2.65-1.8 5.3-2.65" fill="#8c757f" fill-rule="evenodd" transform="translate(-388.9 -297.25)"/><path d="m7.7 8.9.2-.4 6.45-3.6 1.65 1h.05q2.6 1.6 5.75 2.95l.3.4.95 1.2-.25 3.7.05.2.65 1.75q-2.85-.3-5.9 2.4l-1 .95h-.05l-.5-1.15m-.05-.05-.1-.05q-1.9-.9-3.3-.9l-2.35-.25q-1.3-.5-2.15-1.7-.75-1.9-.8-3.8l-.05-.65q.05-1.25.45-2m8.2 8.9-.1-.25-.15-.25q-1.2-2.65-3.15-3.7l-1.25 2.25Q10.3 10.8 8.5 10.4q-.5.05-.4 1.7l.2 1.35m7.6 4.35.15.5" fill="none" stroke="#000" stroke-linecap="round" stroke-linejoin="round" stroke-opacity=".2" stroke-width=".05"/><path d="M407.45 301.75q.2 1.15-.45 2.15-.6 1.05-1.8 1.25-1.2.3-2.15-.4-1.05-.6-1.3-1.75-.25-1.25.4-2.2.65-1 1.8-1.3 1.15-.2 2.2.4 1 .65 1.3 1.85" fill="#8d8461" fill-rule="evenodd" transform="translate(-388.9 -297.25)"/><path d="M18.55 4.5q-.3-1.2-1.3-1.85-1.05-.6-2.2-.4-1.15.3-1.8 1.3-.65.95-.4 2.2.25 1.15 1.3 1.75.95.7 2.15.4 1.2-.2 1.8-1.25.65-1 .45-2.15z" fill="none" stroke="#000" stroke-linecap="round" stroke-linejoin="round" stroke-opacity=".2" stroke-width=".05"/><path d="M406.85 302.75q-.75 1.25-1.75 1.75l-1.1.5.4-.05.55-.1.8-.25.65-.35.3-.25.4-.6.05-.4-.3-.25" fill="#cacdb2" fill-rule="evenodd" transform="translate(-388.9 -297.25)"/><path d="m406.7 304.05-.55.55-.65-.2q-.3-.25-.35-.7l.1-.9q.15-.45.5-.55t.65.2l.4.75-.1.85" fill-rule="evenodd" transform="translate(-388.9 -297.25)"/><path d="m17.8 6.8-.55.55-.65-.2q-.3-.25-.35-.7l.1-.9q.15-.45.5-.55t.65.2l.4.75z" fill="none" stroke="#000" stroke-linecap="round" stroke-linejoin="round" stroke-opacity=".451" stroke-width=".05"/><path d="m406.8 303.2.2-.05.1-.25-.05-.25-.15-.15h-.15l-.1.25.05.25.1.2" fill="#fff" fill-rule="evenodd" transform="translate(-388.9 -297.25)"/></g><g id="c"><path d="m405.25 303.4-.05.05.05-.05" fill="#c7316a" fill-rule="evenodd" transform="translate(-396.75 -299.35)"/><path d="m402.45 304-.2.1-.05-.05.25-.05" fill="#a2b88f" fill-rule="evenodd" transform="translate(-396.75 -299.35)"/><path d="m405.1 299.4.95.4.2.1h.65v.65l.1.05-.3 1.1-.35.5-1.1 1.2-.05.05q-.5-1.4-1.5-2.2.4-.85 1.2-1.65l.2-.2m1.25 1.15-.15-.3-.3-.1-.3.05-.15.3.1.35.3.1.3-.1.2-.3" fill="#745c69" fill-rule="evenodd" transform="translate(-396.75 -299.35)"/><path d="m402.2 304.05-.4.05.05-.8-.1-.35-.1-.4q-.05-.95.45-1.75.65-1.05 1.8-1.35l1.05-.05h.15l-.2.2q-.8.8-1.2 1.65 1 .8 1.5 2.2l-.6.4-.75.3h-.6l-.8-.15-.25.05" fill="#43464d" fill-rule="evenodd" transform="translate(-396.75 -299.35)"/><path d="m406.35 300.55-.2.3-.3.1-.3-.1-.1-.35.15-.3.3-.05.3.1.15.3" fill="#d6adbd" fill-rule="evenodd" transform="translate(-396.75 -299.35)"/><path d="m5.45 4.7-.4.05.05-.8L5 3.6l-.1-.4q-.05-.95.45-1.75Q6 .4 7.15.1L8.2.05h.15l.95.4.2.1h.65v.65l.1.05-.3 1.1-.35.5-1.1 1.2-.05.05-.6.4-.75.3h-.6l-.8-.15m-.2.1-.05-.05.25-.05" fill="none" stroke="#000" stroke-linecap="round" stroke-linejoin="round" stroke-opacity=".2" stroke-width=".05"/><path d="m405.2 306.75-5.05.45-.05-2.45.65-1.4q-.05-.4.25-.85v-.05q2.9 1.65 4.2 4.3" fill="#373a41" fill-rule="evenodd" transform="translate(-396.75 -299.35)"/><path d="M401 302.45q1.1-.55 2.2-.6 2 .55 3.2 1.8l1.4 1.8v.4l-2.6.9q-1.3-2.65-4.2-4.3" fill="#8e747f" fill-rule="evenodd" transform="translate(-396.75 -299.35)"/><path d="M4.25 3.1q1.1-.55 2.2-.6 2 .55 3.2 1.8l1.4 1.8v.4m-7.7-1.1L4 4q-.05-.4.25-.85V3.1z" fill="none" stroke="#000" stroke-linecap="round" stroke-linejoin="round" stroke-opacity=".2" stroke-width=".05"/><path d="m398.4 302 2.15-.2q1.15.4 1.7 1.4.55 1.1.2 2.25-.4 1.1-1.5 1.65l-2.2.15q-1.15-.35-1.65-1.4-.55-1.1-.2-2.2.4-1.15 1.5-1.65" fill="#a59c7c" fill-rule="evenodd" transform="translate(-396.75 -299.35)"/><path d="M1.65 2.65q-1.1.5-1.5 1.65-.35 1.1.2 2.2Q.85 7.55 2 7.9l2.2-.15Q5.3 7.2 5.7 6.1q.35-1.15-.2-2.25-.55-1-1.7-1.4z" fill="none" stroke="#000" stroke-linecap="round" stroke-linejoin="round" stroke-opacity=".2" stroke-width=".05"/><path d="M401.55 305.7h-.3q-1.8.8-3.55.35.75.75 1.3.75h1.3l.4-.1.5-.25.45-.45q.15-.25-.1-.3" fill="#cacdb2" fill-rule="evenodd" transform="translate(-396.75 -299.35)"/><path d="m400.65 305.75.2-.85q.2-.4.55-.45.3-.1.5.2l.3.8-.2.85-.6.45q-.3.1-.5-.2-.25-.3-.25-.8m.2-.15-.05.25.2.6.45.2.4-.35.1-.7-.1.4-.4.35q-.25.05-.4-.2l-.2-.55" fill-rule="evenodd" transform="translate(-396.75 -299.35)"/><path d="m400.85 305.6.2.55q.15.25.4.2l.4-.35.1-.4-.1.7-.4.35-.45-.2-.2-.6.05-.25" fill="#0f140e" fill-rule="evenodd" transform="translate(-396.75 -299.35)"/><path d="M3.9 6.4q0 .5.25.8.2.3.5.2l.6-.45.2-.85-.3-.8q-.2-.3-.5-.2-.35.05-.55.45z" fill="none" stroke="#000" stroke-linecap="round" stroke-linejoin="round" stroke-opacity=".2" stroke-width=".05"/></g><g id="d"><path d="m400.75 306.35.15-.2.1-.3-.15-.25-.2-.1-.15.15q-.1.1-.05.25l.1.3.2.15" fill="#fff" fill-rule="evenodd" transform="translate(-388.45 -287.95)"/><path d="m397 303.75-.15-.05v-.1l.15.15" fill="#a2b88f" fill-rule="evenodd" transform="translate(-388.45 -287.95)"/><path d="M402.5 305.25v.1-.1" fill="#c7316a" fill-rule="evenodd" transform="translate(-388.45 -287.95)"/><path d="M399.95 301.55q.85.05 1.55.6l.2.15q.75.75.85 1.75l.05.15v.15l.35.5-.45.4v.1l-.7-.1-2.3-.45-1.05-.3-.15-.5 2 .55-1.95-1.3.15-.35q.35-.7 1.45-1.35m1.45 1.05-.3-.05q-.2 0-.3.2l-.1.3.2.25.3.1.3-.2.05-.35-.15-.25" fill="#745c69" fill-rule="evenodd" transform="translate(-388.45 -287.95)"/><path d="m396.85 303.6-.3-.3.65-.45.15-.25q.8-.95 2-1.05h.6q-1.1.65-1.45 1.35l-.15.35 1.95 1.3-2-.55.15.5-1.45-.75-.15-.15" fill="#45454f" fill-rule="evenodd" transform="translate(-388.45 -287.95)"/><path d="m401.4 302.6.15.25-.05.35-.3.2-.3-.1-.2-.25.1-.3q.1-.2.3-.2l.3.05" fill="#d3adbc" fill-rule="evenodd" transform="translate(-388.45 -287.95)"/><path d="m8.4 15.65-.3-.3.65-.45.15-.25q.8-.95 2-1.05h.6q.85.05 1.55.6l.2.15q.75.75.85 1.75l.05.15v.15l.35.5-.45.4v.1l-.7-.1-2.3-.45-1.05-.3-1.45-.75-.15-.05v-.1l.15.15" fill="none" stroke="#000" stroke-linecap="round" stroke-linejoin="round" stroke-opacity=".2" stroke-width=".05"/><path d="M402.65 311.35q-1.05-1.3-1.45-2.8 1.2-1.05 2.9-1.2.7 1.6-1.45 4" fill="#29333c" fill-rule="evenodd" transform="translate(-388.45 -287.95)"/><path d="M12.75 20.6q1.2-1.05 2.9-1.2.7 1.6-1.45 4" fill="none" stroke="#000" stroke-linecap="round" stroke-linejoin="round" stroke-opacity=".2" stroke-width=".05"/><path d="m403.4 310.35-.05-.05.05-.05v.1" fill="#9a275b" fill-rule="evenodd" transform="translate(-388.45 -287.95)"/><path d="m402.5 308.65-.05-.1.2-.65-.15.75" fill="#822350" fill-rule="evenodd" transform="translate(-388.45 -287.95)"/><path d="M403.2 309.05v.05-.05" fill="#6d1d46" fill-rule="evenodd" transform="translate(-388.45 -287.95)"/><path d="m405.5 309.65-.4.5-.65.55-.85-.05q1.25-.9-.4-1.55v-.05l1.45.1q.7.2.85.5" fill="#0e1c1d" fill-rule="evenodd" transform="translate(-388.45 -287.95)"/><path d="m403.6 310.65-.2-.3v-.1l-.2-.7v-.45q1.65.65.4 1.55" fill="#16252c" fill-rule="evenodd" transform="translate(-388.45 -287.95)"/><path d="M403.35 310.3h-.05q-.55-.2-.7-.6l-.1-1.05.15-.75.1-.1v-.05l.35-.2 1.85-.2 1.5.45-.05.05q0 1.45-.8 1.95l-.05-.15h-.05q-.15-.3-.85-.5l-1.45-.1v.5l.2.7-.05.05" fill="#45454f" fill-rule="evenodd" transform="translate(-388.45 -287.95)"/><path d="m403.6 310.65.85.05.65-.55.4-.5h.05l-.65 1.05-1.1.9-.7.15-.4-.3-.1-.15-.1-.3q-.35-1.05-.1-2.2l.05-.25.05.1.1 1.05q.15.4.7.6h.05l.05.05.2.3" fill="#28353d" fill-rule="evenodd" transform="translate(-388.45 -287.95)"/><path d="m14 20.6-.05.25q-.25 1.15.1 2.2l.1.3m2.95-1.65h-.05q-.15-.3-.85-.5l-1.45-.1m3.2-1.2.05-.05-1.5-.45-1.85.2-.35.2v.05l-.1.1-.2.65m3.1 1.1.05.15m-2.4-.7v-.05" fill="none" stroke="#332720" stroke-linecap="round" stroke-linejoin="round" stroke-opacity=".2" stroke-width=".05"/><path d="M11.95 3.7q1-.15 1.9-1.1l.75-1.05q.4-.8.85-1.1" fill="none" stroke="#52152c" stroke-linecap="round" stroke-linejoin="round" stroke-opacity=".4" stroke-width=".5"/><path d="M15.45.45q.9-.7 2 .95 1.1 1.85 1.75 3.9l.2.65" fill="none" stroke="#52152f" stroke-linecap="round" stroke-linejoin="round" stroke-opacity=".6" stroke-width=".5"/><path d="M19.4 5.95 21.35 14l1 4.45" fill="none" stroke="#511531" stroke-linecap="round" stroke-linejoin="round" stroke-width=".5"/><path d="M8.95 2.4q1.65 1.5 3 1.3z" fill="none" stroke="#521529" stroke-linecap="round" stroke-linejoin="round" stroke-opacity=".2" stroke-width=".5"/><path d="M3.75 7.65q1.1-.1 1.9-.95l.6-.9q.35-.65.8-.9" fill="none" stroke="#52152c" stroke-linecap="round" stroke-linejoin="round" stroke-opacity=".4" stroke-width=".5"/><path d="M7.05 4.9q.95-.5 2.3.95 1.55 1.65 2.6 3.45l.35.65" fill="none" stroke="#52152f" stroke-linecap="round" stroke-linejoin="round" stroke-opacity=".6" stroke-width=".5"/><path d="M12.3 9.95q1.95 3.5 3.55 7.1l1.85 3.85" fill="none" stroke="#511531" stroke-linecap="round" stroke-linejoin="round" stroke-width=".5"/><path d="M.25 6.35q2 1.35 3.5 1.3z" fill="none" stroke="#521529" stroke-linecap="round" stroke-linejoin="round" stroke-opacity=".2" stroke-width=".5"/></g><use width="54.5" height="53.6" xlink:href="#e" id="a"/></defs></svg>