<svg viewBox="0 0 54.504 53.251" xmlns="http://www.w3.org/2000/svg" xmlns:xlink="http://www.w3.org/1999/xlink"><g transform="translate(-373.02 -273.98)"><use transform="translate(373 273.65)" width="54.5" height="53.6" xlink:href="#a"/><use transform="translate(384.3 296.15)" width="31.65" height="22.6" xlink:href="#b"/></g><defs><g id="c"><path d="m12.1-14.05.75 1.5-.15.15-.3.1-1.2.35-.3-.5.05-.1q1-.7 1.15-1.5m1.35 2.2q2.05 1.1 2.7 3.2l-1.35.55-.9.3-.6-.1-1.2-2.45v-.05l.1-.2 1.25-1.25m3.1 3.6v.05l.5.65h.05q1.35-.65 3.35-.9Q22.5-8.6 21.8-7l-3.3 2.35-.15.25q-.35.55.05 1.7L19.6.05h-.05L18.6-.5l-.8-.3-1 .7-1.9-4.4.6-.8q-.55-.3-.7-.7-.2-.55.7-1.35l1.05-.9M21.4-4.5q2.35 1.15 4.1 3.45V-1l-.75-.35-.7-.3-2.55-1.3q-.25-.8-.1-1.55M11-16.35l.2.45.1.25-.3.2-.3.05-.35-.1-.15-.05-.3-.2v-.05q-.15-.45.35-.6l.75.05M5.85-13.3v-.1q0-.45.6-.7l1.3-.5h.15l.05-.05h.45l.65.5q.25.65-.8 1.15l-.65.25-.95.1q-.65-.05-.8-.45v-.2m-5.7.3 1.65.05q.95.15 1.3.45l.15.2.1.25q0 .45-.6.65l-.8.15-.75-.05q-1.2 0-1.35-.5l.05-.35v-.2l-.05-.3.3-.35M17.1-7.55 15.5-5.3l1.6-2.25m-26-7.05v-.1l-.05-.25V-15l.4-.4q1.2.35 1.35.8v.4l-.2.15H-8q-.65-.15-.9-.55m2.95 1.8-.2-.05-.05-.05.55-.65.65-.05.65.05 1.05.35.3.45q.15.45-.3.6l-1.3-.15-1.25-.5h-.1" fill="#e0b359" fill-rule="evenodd" transform="translate(28.95 29.6)"/><path d="M9.7-17h.65l.85.55.7 1.2q.3.6.2 1.2-.15.8-1.15 1.5l-.05.1-.3.45-1.15.75q-1.45.8-3.4 1.2l-1.35.3q.5-1.85-.25-2.9l-.1-.1-.9-.65.9.65.1.1q.75 1.05.25 2.9l-5.95.2q-5.25.35-5.95-.7l-.9-.95q.15-1.45 1.05-2.4l.4-.45 1-.65.25-.1-.25.1-1 .65-.4.45q-.9.95-1.05 2.4l-.7-.45q-1.25-1.05-.85-2.6l.2-.55 1-1.65 1.6.95 1.45.7q1.8-.45 4.1 1.3l4.75.1 1.9-1.15 2.2-.55.55-.05.3-.05.5.05.65.15q1.5.4 1.4 2.45.1-2.05-1.4-2.45l-.65-.15-.5-.05-.3.05-.55.05.7-.5L9.6-17h.1m3.15 4.45.6.7-1.25 1.25-.1.2-.25-.45-.65-1.1 1.2-.35.3-.1.15-.15m3.3 3.9.4.4-1.05.9q-.9.8-.7 1.35.15.4.7.7l-.6.8-1-2.1-.45-.95-.15-.35.6.1.9-.3 1.35-.55M21.8-7l-.4 2.5q-.15.75.1 1.55l2.55 1.3.7.3.75.35v-.05l.05.05h-.05Q23.05.45 20.65.25l.3 4q-1.9-.95-3.15-2.75l-.3.15-.45-1.1-.25-.65 1-.7.8.3.95.55h.05L18.4-2.7q-.4-1.15-.05-1.7l.15-.25L21.8-7M11-16.35l-.75-.05q-.5.15-.35.6v.05l.3.2.15.05.35.1.3-.05.3-.2-.1-.25-.2-.45M.15-13l-.3.35.05.3v.2l-.05.35q.15.5 1.35.5l.75.05.8-.15q.6-.2.6-.65l-.1-.25-.15-.2q-.35-.3-1.3-.45L.15-13m5.7-.3v.2q.15.4.8.45l.95-.1.65-.25q1.05-.5.8-1.15l-.65-.5h-.45l-.05.05h-.15l-1.3.5q-.6.25-.6.7v.1m10.4 4.75L13.9-6.6l2.35-1.95m-4.4-2.3.85-1.55-.85 1.55M-8.9-14.6q.25.4.9.55h.6l.2-.15v-.4q-.15-.45-1.35-.8l-.4.4v.05l.05.25v.1m2.95 1.8h.1l1.25.5 1.3.15q.45-.15.3-.6l-.3-.45-1.05-.35-.65-.05-.65.05-.55.65.05.05.2.05m4.65-.7-.3.5-.1.25q-.6 1.6.45 3.2-1.05-1.6-.45-3.2l.1-.25.3-.5" fill="#9c7c3e" fill-rule="evenodd" transform="translate(28.95 29.6)"/><path d="M12.65-25.1q.2.7-.25 1.4l-1.2 3.2-.3.65L9.7-17h-.1l-1.35 1.4.9-2.35q1.15-3.2 1.4-4.8v-.05l2.1-2.3m-2.2 2.35.1-.05v.05h-.1m-9 .25.45-.25-.25.4-.2-.15m8 11.25L10.6-12l.3-.45.3.5.65 1.1.25.45v.05h-.05l-.35.05h-.2l-1.15.05-.25.1-.65-1.1" fill="#634521" fill-rule="evenodd" transform="translate(28.95 29.6)"/><path d="m19.1 11.7-.35 2.35.4.25-.75.05-1.1.2q-.85.2-.85.65.1.55 1.05.75l1.6.2.95-.3.1.35q.3 3.15-3.8 1.35Q5 19.35.15 19.35q-4.7-.05-10.25-2.95-6.05-3.1-7.3-6.75l-.95-2.15.05.05q.55.45-.2-.35 2.15 2.2 5.25 4.35Q-7.5 15.8-1.9 15.9q5.55-.05 7.1-1.3t3.1-1.9q1.6-.7 3.65-.5l2.85-.05q.7-.45 2.3-1.1l.2.1q.3 0 .85.3l.95.25M-12.15-9.8l3.35-1.85.7.45.9.95q.7 1.05 5.95.7l5.95-.2 1.35-.3q1.95-.4 3.4-1.2l.65 1.1-.55.2-.2.2-.45.85-2.35 1.5q-2 1.2-5.2 1.5-3.25.3-9.05-1.95-1.8-.65-4.45-1.95m5.3-5.7-1.8-1.85-1.25-1.35q-2.05-2.15-2.75-3.4 6.5 3.1 8.75 3.6 3.95.9 9.65-1.1 2.4-.85 4.7-3.15h.1q-.25 1.6-1.4 4.8l-.9 2.35-.7.5-2.2.55-1.9 1.15-4.75-.1q-2.3-1.75-4.1-1.3l-1.45-.7M5.7-22.55l-1.3.75q-1.8.85-3.6.65l-1.05-.05-5.35-.95q-3.05-.65-3.75-2-.65-1.35.75-2.15l.7-.3-.35.65.05.9q.55 1.65 4.55 2.45l4.15.45.95-.35.2.15-.85 1.2.85-1.2.25-.4.55-.5q.3.85 1.85.85l1.4-.15m11.6 37.1q.2-1.6 0-3.4.2 1.8 0 3.4" fill="#705739" fill-rule="evenodd" transform="translate(28.95 29.6)"/><path d="m1.9-22.75.4-.6.15.1-.55.5m15.2 33.8h.2v.1l-.2-.1" fill="#8c622f" fill-rule="evenodd" transform="translate(28.95 29.6)"/><path d="M-12.65-22.1q-.6-.9-.6-1.3 0-1.15 2.1-3l3.85-2.75 4.7-.1 5.25 1.5L4-27.5l2.9-.3 3-.3q1.25.3 2.25 1.65l.5 1.35-2.1 2.3-.1.05q-2.3 2.3-4.7 3.15-5.7 2-9.65 1.1-2.25-.5-8.75-3.6M17.5 1.65q1.05 2.75 1.55 6.4.2 1.55.05 3.65l-.95-.25q-.55-.3-.85-.3v-.1Q16.9 7 15.25 2.1l-.3-.95L13.8-1.9l-1.7-3.95-.6-1.3-.8-1.7-.05-.1-.55-1.2.25-.1 1.15-.05h.2l.35-.05h.05l1.2 2.45.15.35.45.95 1 2.1 1.9 4.4.25.65.45 1.1m1.65 12.65.35.35q.45.45.55 1.2l-.95.3-1.6-.2q-.95-.2-1.05-.75 0-.45.85-.65l1.1-.2.75-.05m-37.5-6.8q-.5-.6-.75-3.2-.25-2.8 2.35-7.85 2.55-5.1 4.6-6.25Q-9.5-8.5-7.7-7.85-1.9-5.6 1.35-5.9q3.2-.3 5.2-1.5L8.9-8.9l.45-.85.2-.2.55-.2.55 1.2.05.1.8 1.7.6 1.3 1.7 3.95 1.15 3.05.3.95Q16.9 7 17.3 11.05h-.2q-1.6.65-2.3 1.1l-2.85.05q-2.05-.2-3.65.5-1.55.65-3.1 1.9t-7.1 1.3q-5.6-.1-11.35-4.35-3.1-2.15-5.25-4.35l.15.3-.15-.3q.75.8.2.35l-.05-.05M5.7-22.55 7.35-24l2.2-.5.6.3q.45.25.4 1.4.05-1.15-.4-1.4l-.6-.3-2.2.5-1.65 1.45-1.4.15q-1.55 0-1.85-.85l-.15-.1-.4.6-.45.25-.95.35-4.15-.45q-4-.8-4.55-2.45l-.05-.9.35-.65-.7.3q-1.4.8-.75 2.15.7 1.35 3.75 2l5.35.95 1.05.05q1.8.2 3.6-.65l1.3-.75M3.1-24.5l-.8 1.15.8-1.15m2.45-1.8q5.5-.7 1.8 2.3 3.7-3-1.8-2.3M19.5 14.65l-2.1.4h-.05l-.05-.5.05.5h.05l2.1-.4" fill="#8c6d47" fill-rule="evenodd" transform="translate(28.95 29.6)"/><path d="M16.3 7.5q-.6-.9-.6-1.3 0-1.15 2.1-3L21.65.45l4.7-.1 5.25 1.5 1.35.25 2.9-.3 3-.3q1.25.3 2.25 1.65l.5 1.35q.2.7-.25 1.4l-1.2 3.2-.3.65-1.2 2.85h.65l.85.55.7 1.2q.3.6.2 1.2l.75 1.5.6.7q2.05 1.1 2.7 3.2l.4.4m0 .05.5.65h.05q1.35-.65 3.35-.9 2.05-.15 1.35 1.45l-.4 2.5q2.35 1.15 4.1 3.45l.05.05h-.05Q52 30.05 49.6 29.85l.3 4q-1.9-.95-3.15-2.75l-.3.15Q47.5 34 48 37.65q.2 1.55.05 3.65l-.35 2.35.4.25.35.35q.45.45.55 1.2l.1.35q.3 3.15-3.8 1.35-11.35 1.8-16.2 1.8-4.7-.05-10.25-2.95-6.05-3.1-7.3-6.75l-.95-2.15q-.5-.6-.75-3.2-.25-2.8 2.35-7.85 2.55-5.1 4.6-6.25l3.35-1.85q-1.25-1.05-.85-2.6l.2-.55 1-1.65 1.6.95-1.8-1.85-1.25-1.35Q17 8.75 16.3 7.5m23.2-.7q.05-1.15-.4-1.4l-.6-.3-2.2.5-1.65 1.45-1.3.75q-1.8.85-3.6.65L28.7 8.4l-5.35-.95q-3.05-.65-3.75-2-.65-1.35.75-2.15l.7-.3m9.8 3.85.4-.6.8-1.15m7.45 1.75V6.8m0 .05q-.25 1.6-1.4 4.8L37.2 14l1.35-1.4h.1m1.25 4.45q1-.7 1.15-1.5m-1.2 1.6.05-.1Q40 15 38.5 14.6l-.65-.15-.5-.05-.3.05-.55.05-2.2.55-1.9 1.15.9.65.1.1q.75 1.05.25 2.9l1.35-.3q1.95-.4 3.4-1.2l1.15-.75.3-.45.3.5m1.5-.45.15-.15m-11.2-9.8.25-.4m-1.1 1.6.85-1.2M37.2 14l-.7.5m2.55 4.95-.65-1.1m2.65.9v-.05l-.25-.45-.65-1.1m4.3 6.65 1.6-2.25m.2 18.6q-.4-4.05-2.05-8.95l-.3-.95-1.15-3.05-1.7-3.95-.6-1.3-.8-1.7-.05-.1-.55-1.2m3.2 2.25.15.35.45.95 2.35-1.95m-2.95.65-1.2-2.45m4.7 10.25.25.65.45 1.1m-2.6-6.15.6-.8m1.3 5.2-1.9-4.4-1-2.1m-1.2-5.8-.85 1.55M36.3 5.6q3.7-3-1.8-2.3M20.85 18.4Q21 16.95 21.9 16l.4-.45 1-.65.25-.1-1.45-.7m5.6 5.95q-1.05-1.6-.45-3.2l.1-.25.3-.5q-2.3-1.75-4.1-1.3m-2.7 3.6.9.95q.7 1.05 5.95.7l5.95-.2m-13.5-1.9.7.45m-10.4 18.4.15.3.05.05q.55.45-.2-.35m35.8 3.85v.1q.2 1.8 0 3.4l.05.5h.05l2.1-.4M32.4 16.2l-4.75-.1" fill="none" stroke="#362a1b" stroke-linecap="round" stroke-linejoin="round" stroke-opacity=".502" stroke-width=".05"/><path d="m15.1 11.75 3.45-1.3.1 1.75-3.5.3-.05-.75" fill="#704e26" fill-rule="evenodd" transform="translate(28.95 29.6)"/><path d="m44.05 41.35.05.75 3.5-.3-.1-1.75z" fill="none" stroke="#000" stroke-linecap="round" stroke-linejoin="round" stroke-opacity=".502" stroke-width=".05"/><path d="m18.55 8.15-3.45 1.3L15 7.7l3.5-.3.05.75" fill="#704e26" fill-rule="evenodd" transform="translate(28.95 29.6)"/><path d="m47.5 37.75-.05-.75-3.5.3.1 1.75z" fill="none" stroke="#000" stroke-linecap="round" stroke-linejoin="round" stroke-opacity=".502" stroke-width=".05"/><path d="m12.9-7.8-2.25 1.9-.6-1.65 2.6-.95.25.7" fill="#704e26" fill-rule="evenodd" transform="translate(28.95 29.6)"/><path d="m41.85 21.8-.25-.7-2.6.95.6 1.65z" fill="none" stroke="#000" stroke-linecap="round" stroke-linejoin="round" stroke-opacity=".502" stroke-width=".05"/><path d="m9.85-17.05-2.2.95-.1-1.35 2.3-.2v.6" fill="#704e26" fill-rule="evenodd" transform="translate(28.95 29.6)"/><path d="M38.8 12.55v-.6l-2.3.2.1 1.35z" fill="none" stroke="#000" stroke-linecap="round" stroke-linejoin="round" stroke-opacity=".502" stroke-width=".05"/><path d="m11.05-24.05-2.25 1.9-.6-1.65 2.6-.95.25.7" fill="#704e26" fill-rule="evenodd" transform="translate(28.95 29.6)"/><path d="m40 5.55-.25-.7-2.6.95.6 1.65z" fill="none" stroke="#000" stroke-linecap="round" stroke-linejoin="round" stroke-opacity=".502" stroke-width=".05"/><path d="M-27.75 18.7q-.15.2.1.9.25.65 1.9.9l3.2.45 3.15.05 4.85-.8q3.25-.7 4.65-2.75l1.35 1.4Q-7.5 22.5-18.9 23q-10-.4-9.65-3.55l.8-.75" fill="#deb185" fill-rule="evenodd" transform="translate(28.95 29.6)"/><path d="M-9.9 17.45q-1.4 2.05-4.65 2.75l-4.85.8-3.15-.05-3.2-.45q-1.65-.25-1.9-.9-.25-.7-.1-.9 4.75-3.75 7.3-7.1 2.2-2.4 3.7-1.35l6.85 7.2" fill="#fc9" fill-rule="evenodd" transform="translate(28.95 29.6)"/><path d="M-8.95 17.5q.45.55-.1.95l-.2.15q-.65.4-1.05-.2-.45-.65.25-1.1l.85-.05.25.25m-3.45-2.65q-.75.4-1-.25-.3-.7.2-1.05.45-.4 1 .25.55.6-.2 1.05m1.7.45q.3.65-.4 1.05-.65.4-.9-.25-.2-.65.4-1.05.55-.4.9.25m-4.1-1.85q-.25-.65.4-1.05.7-.35 1 .25.35.55-.45 1-.75.45-.95-.2m4.5 7.85.75.1q.25.45-.2.75l-.7-.1q-.3-.45.15-.75m-2.95 1.3q-.25-.7.45-1.05.7-.4 1.05.2t-.45 1.1q-.8.45-1.05-.25m-1.05-.25q.45.55-.15.9t-.8-.25q-.25-.55.15-.85.35-.3.8.2m5.25-1.95q-.15-.45.25-.7.4-.3.65.15.2.45-.25.7-.5.3-.65-.15m-11.55-8.2q.35.6-.45 1.1-.8.45-1.05-.25t.45-1.05q.7-.4 1.05.2m.25-2.25q.55-.5 1.25.15 0-.45.45-.75.55-.4.9.25.3.65-.4 1.05l-.45.15q.15.6-.6 1-1.05.6-1.4-.35t.25-1.5m3.3 1.5q-.45-.65.25-1.1.65-.45 1.05.2t-.25 1.1q-.65.4-1.05-.2m-9.3 5.15.75-.05q0-.45.4-.7.55-.4.85.2t-.35 1l-.25.15q.3.55-.45.95-.85.5-1.15-.3-.35-.8.2-1.25m-.9 1.9q.35.55-.45 1-.75.45-.95-.2-.25-.65.4-1.05.7-.35 1 .25m.35 4.35q-.25-.8.45-1.3.7-.45 1.1.3.4.8-.45 1.3-.85.45-1.1-.3m-1.9-1.8q-.35-.55.25-.95.55-.45.9.15.35.55-.2.95-.55.35-.95-.15m5.75-7.05q.8-.55 1.25.2.5.8-.3 1.3-.75.5-1.25-.2-.5-.75.3-1.3m1.45 8.95q-.15-.4.25-.6.35-.2.55.15.2.3-.25.55l-.55-.1m-2.75.2q-.3-.75.25-1.2.5-.45 1.1.25.65.75-.2 1.25-.85.45-1.15-.3m6.75.2q-.25-.85.5-1.4.75-.5 1.2.35.45.8-.5 1.35-.9.55-1.2-.3m-1.15-.8q.45.75-.3 1.25-.75.45-1.2-.25-.5-.7.25-1.25.75-.5 1.25.25" fill="#deb185" fill-opacity=".502" fill-rule="evenodd" transform="translate(28.95 29.6)"/></g><g id="b"><path d="M399.65 302.15q1.9.25 4.7 1.7l.5.55.45.2-.15.05.4.2q.8.3.75.8-1.65.6-2.4-.65l-1.15-.15.05.25-1.2.3q-3-.7-4.8-.05h1.05l.25.05q-1.9.35.25 1.85 1.1.7 1.85.8-.05 1.55 2.5 5.55 0 1.1-1.9 1.9h-2.9l-2.35-.85-.25-.1q-2.75-3.55-.65-10.4.25-.6 1.5-1.45l.05.1q.35-.35.95-.55l.25-.2 1.85-.05-.05.05.45.1m2.65 2.25.45.45-.45-.45m-5.5 2.3q-2.85-1.55.75-2.5-3.6.95-.75 2.5" fill="#b7c631" fill-rule="evenodd" transform="translate(-384.3 -296.15)"/><path d="m406.3 305.65-.7.6h-.2l.05.1q.7 2.9 1.3 3.8 2.4 3.35-1.3 5.05l-.8.2v.05l-3.85.05q1.9-.8 1.9-1.9-2.55-4-2.5-5.55-.75-.1-1.85-.8-2.15-1.5-.25-1.85l-.25-.05h-1.05q1.8-.65 4.8.05l1.2-.3-.05-.25 1.15.15q.75 1.25 2.4.65m-4.65.3q-1.55-.6-3.55-.55 2-.05 3.55.55m.85-.05q.5-.4.3-.8.2.4-.3.8" fill="#5f661a" fill-rule="evenodd" transform="translate(-384.3 -296.15)"/><path d="m399.25 302 .4.1v.05l-.45-.1.05-.05" fill="#a00101" fill-rule="evenodd" transform="translate(-384.3 -296.15)"/><path d="m14.95 5.85.4.1V6q1.9.25 4.7 1.7l.5.55.45.2-.15.05.4.2q.8.3.75.8l-.7.6h-.2l.05.1q.7 2.9 1.3 3.8 2.4 3.35-1.3 5.05l-.8.2v.05l-3.85.05h-2.9l-2.35-.85-.25-.1Q8.25 14.85 10.35 8q.25-.6 1.5-1.45l.05.1q.35-.35.95-.55l.25-.2 1.85-.05m-.05.05.45.1m3.15 2.95-.05-.25-.45-.45m-4.2 1-.25-.05m.25.05q2-.05 3.55.55m-4.1-1.75q-3.6.95-.75 2.5m6-1.6q.2.4-.3.8" fill="none" stroke="#332720" stroke-linecap="round" stroke-linejoin="round" stroke-opacity=".451" stroke-width=".05"/><path d="m385.85 306.45-.1-.05-1.2-2q-.45-.9-.05-1.05 3.8-.2 8.45 3.25v.05q1.1.65 1.1 1.8l-.05-.2q-.8-2.1 0 .3l.15.75q-.1.45-.8.45-.8-.05-1.7-1.2l-1.15-1.1-.15-.25q-2.1-2.35-5.4-3.5l1.5 2.6q-.4-.15-.6.15" fill="#b7c631" fill-rule="evenodd" transform="translate(-384.3 -296.15)"/><path d="M385.85 306.45q.2-.3.6-.15l-1.5-2.6q3.3 1.15 5.4 3.5l.15.25q1.15 1.2 2 2.9.9.85 1.8 1.15h.05l-.1.4-.05.05h-.05.05v.05l-.05-.05v.1l-.05-.05.05.1-2.1-.7q-2-.65-6.2-4.95" fill="#4d5214" fill-rule="evenodd" transform="translate(-384.3 -296.15)"/><path d="m390.5 307.45 1.15 1.1q.9 1.15 1.7 1.2.7 0 .8-.45l-.15-.75q-.8-2.4 0-.3l.05.2.65 2.5-.1.65-.35.3.1-.4h-.05q-.9-.3-1.8-1.15-.85-1.7-2-2.9" fill="#5f661a" fill-rule="evenodd" transform="translate(-384.3 -296.15)"/><path d="M8.65 10.5v-.05Q4 7 .2 7.2q-.4.15.05 1.05l1.2 2 .1.05m-.9-2.75q3.3 1.15 5.4 3.5l.15.25q1.15 1.2 2 2.9.9.85 1.8 1.15m-.05.4.35-.3m-.4.35h-.05v.15l-2.1-.7q-2-.65-6.2-4.95m8.35 5.5.05-.05" fill="none" stroke="#332720" stroke-linecap="round" stroke-linejoin="round" stroke-opacity=".451" stroke-width=".05"/><path d="m414.4 305.3.1-.05 1.2-2q.5-.9.05-1.05-3.75-.2-8.45 3.25l.05.05q-1.1.65-1.1 1.8v-.2q.85-2.1.05.3-.15.4-.15.75.05.45.8.45.75-.05 1.7-1.2l1.15-1.1.15-.25q2.1-2.35 5.35-3.5l-1.5 2.6q.45-.15.6.15" fill="#b7c631" fill-rule="evenodd" transform="translate(-384.3 -296.15)"/><path d="M414.4 305.3q-.15-.3-.6-.15l1.5-2.6q-3.25 1.15-5.35 3.5l-.15.25q-1.2 1.2-2 2.9-.9.85-1.85 1.15l.1.4v.05l.05.05.05-.05-.05.1.05-.05v.1l2.05-.7q2.05-.65 6.2-4.95m-8.35 5.5h.1-.1" fill="#4d5214" fill-rule="evenodd" transform="translate(-384.3 -296.15)"/><path d="m409.8 306.3-1.15 1.1q-.95 1.15-1.7 1.2-.75 0-.8-.45 0-.35.15-.75.8-2.4-.05-.3v.2q-.7 1.95-.7 2.5l.1.65.4.3-.1-.4q.95-.3 1.85-1.15.8-1.7 2-2.9" fill="#5f661a" fill-rule="evenodd" transform="translate(-384.3 -296.15)"/><path d="M23.05 9.35 23 9.3q4.7-3.45 8.45-3.25.45.15-.05 1.05l-1.2 2-.1.05M31 6.4q-3.25 1.15-5.35 3.5l-.15.25q-1.2 1.2-2 2.9-.9.85-1.85 1.15m.1.4-.4-.3m.5.5-.05-.05.05-.1h-.1v-.05m.1.2 2.05-.7q2.05-.65 6.2-4.95" fill="none" stroke="#332720" stroke-linecap="round" stroke-linejoin="round" stroke-opacity=".451" stroke-width=".05"/><path d="M396.6 304.05q-4.05 1-6.3.9-1.35-.55-1.4-1.55-2.15-3.8-.55-4.1.45 2.05 2.7 2.6h.5l2.95-.55q1-.05 1.45.6t.65 2.1m-6.05-1.65.5-.5-.5.5" fill="#f2f2f4" fill-rule="evenodd" transform="translate(-384.3 -296.15)"/><path d="M396.6 304.05q-.2 1.2-1.9 2-2.75 1.3-4.85 1.2-2.15-.15-3.05-3.2t1.2-5.95l.2.35.15.85q-1.6.3.55 4.1.05 1 1.4 1.55 2.25.1 6.3-.9" fill="#e4e3e8" fill-rule="evenodd" transform="translate(-384.3 -296.15)"/><path d="M4.05 3.15 3.9 2.3l-.2-.35Q1.6 4.85 2.5 7.9t3.05 3.2q2.1.1 4.85-1.2 1.7-.8 1.9-2M4.05 3.15q.45 2.05 2.7 2.6h.5l2.95-.55q1-.05 1.45.6t.65 2.1M6.75 5.75l-.5.5" fill="none" stroke="#000" stroke-linecap="round" stroke-linejoin="round" stroke-opacity=".302" stroke-width=".05"/><path d="m403.7 303.45 6.3.9q1.35-.55 1.4-1.55 2.15-3.8.55-4.1-.45 2.05-2.7 2.6h-.5l-2.95-.55q-1-.05-1.45.6t-.65 2.1m6.05-1.65-.5-.5.5.5" fill="#f2f2f4" fill-rule="evenodd" transform="translate(-384.3 -296.15)"/><path d="M403.7 303.45q.2 1.2 1.9 2 2.75 1.3 4.85 1.2 2.15-.15 3.05-3.2t-1.2-5.95l-.2.35-.15.85q1.6.3-.55 4.1-.05 1-1.4 1.55l-6.3-.9" fill="#e4e3e8" fill-rule="evenodd" transform="translate(-384.3 -296.15)"/><path d="m27.65 2.55.15-.85.2-.35q2.1 2.9 1.2 5.95t-3.05 3.2q-2.1.1-4.85-1.2-1.7-.8-1.9-2m8.25-4.75q-.45 2.05-2.7 2.6h-.5L21.5 4.6q-1-.05-1.45.6t-.65 2.1m5.55-2.15.5.5" fill="none" stroke="#000" stroke-linecap="round" stroke-linejoin="round" stroke-opacity=".302" stroke-width=".05"/><path d="m393.5 304.45-.15-.35.1-.05.05.4" fill="#f7e3a2" fill-rule="evenodd" transform="translate(-384.3 -296.15)"/><path d="m399 305.7-.2-.7q-.2-1.95 1.2-5.25l2.6.3q2.3.95 4 3.7v.65l-2.15.75-4.6.55H399" fill="#868396" fill-rule="evenodd" transform="translate(-384.3 -296.15)"/><path d="M398.8 305.7h1.05l4.6-.55 2.15-.75v-.85l.55.05.75 2-.45.85q-1.45 1.2-4.35 1.75l-4.4.25q-.35-.75.1-2.75" fill="#e4e3e8" fill-rule="evenodd" transform="translate(-384.3 -296.15)"/><path d="m393.55 304.65-.05-.2-.05-.4-.1.05.05-1.25q1.2-1.4 3.4-2.4 1.6-.65 3.2-.7-1.4 3.3-1.2 5.25l.2.7h-.2q-2.85-.2-5.25-1.05" fill="#696679" fill-rule="evenodd" transform="translate(-384.3 -296.15)"/><path d="m393.5 304.45.05.2h-.85.85q2.4.85 5.25 1.05-.45 2-.1 2.75h-.2l-4-.5q-.95-.05-1.8-.7l-.15-1.05.15-1.55v-.4l.65-.15.15.35" fill="#d2d0d9" fill-rule="evenodd" transform="translate(-384.3 -296.15)"/><path d="M392.7 307.25q.85.65 1.8.7l4 .5h.2l4.4-.25q2.9-.55 4.35-1.75l.45-.85-.65 2.15-3.45 1.05-3.85.7-2.4.1-2.4-.6q-1.45-.5-2.45-1.75" fill-opacity=".2" fill-rule="evenodd" transform="translate(-384.3 -296.15)"/><path d="m9.25 8.5-.05-.2m-.15-.35-.65.15v.4h.85q2.4.85 5.25 1.05h.2m-5.65-1.6.1-.05.05.4m-.8.2-.15 1.55.15 1.05q.85.65 1.8.7l4 .5h.2m9.2-2.85-.45.85q-1.45 1.2-4.35 1.75l-4.4.25m7.9-4.7v.65L20.15 9l-4.6.55h-.85m8.9-.1-.75-2-.55-.05v.2" fill="none" stroke="#000" stroke-linecap="round" stroke-linejoin="round" stroke-opacity=".302" stroke-width=".05"/><path d="m9.2 8.3-.15-.35M15.7 3.6q-1.6.05-3.2.7-2.2 1-3.4 2.4l-.05 1.25M22.3 7.6q-1.7-2.75-4-3.7l-2.6-.3" fill="none" stroke="#000" stroke-linecap="round" stroke-linejoin="round" stroke-opacity=".302" stroke-width=".05"/><path d="M400.5 296.2q.8.7 1.1 1.9.4 1.4-.15 2.65l-.4.65-.3.05-2.1-.2q-1-.55-1.3-1.65t.3-2.05q.55-1 1.7-1.3l1.15-.05" fill="#e4e3e8" fill-rule="evenodd" transform="translate(-384.3 -296.15)"/><path d="m401.05 301.4.4-.65q.55-1.25.15-2.65-.3-1.2-1.1-1.9l.9.3q1 .55 1.3 1.65t-.3 2.05q-.5.85-1.35 1.2" fill="#f2f2f4" fill-rule="evenodd" transform="translate(-384.3 -296.15)"/><path d="M16.75 5.25q.85-.35 1.35-1.2.6-.95.3-2.05T17.1.35l-.9-.3-1.15.05q-1.15.3-1.7 1.3-.6.95-.3 2.05t1.3 1.65l2.1.2z" fill="none" stroke="#000" stroke-linecap="round" stroke-linejoin="round" stroke-opacity=".302" stroke-width=".05"/><path d="m396.9 310.95 1.4.15.05-.05 1.8.4h.05l1.25.05 1.35-.25.6-.25-2.85 2.15-3.65-2.2" fill="#434212" fill-rule="evenodd" transform="translate(-384.3 -296.15)"/><path d="m396.85 309.55 1.05-.6q2.5-2 3.75-1.2l1.35 1.1.9.4-7.05.3" fill="#c5d147" fill-rule="evenodd" transform="translate(-384.3 -296.15)"/><path d="m402.8 311.25-1.35.25.65-.8q.45-.8.8-.5t-.1 1.05m-2.65.2-1.8-.4q-.1-2.1 1.8.4" fill="#0d0b07" fill-rule="evenodd" transform="translate(-384.3 -296.15)"/><path d="m398.35 311.05-.05.05-1.4-.15q-.3-.55-.05-1.4l7.05-.3.15.15-.4 1.4-.1.1-.15.1-.6.25q.45-.75.1-1.05t-.8.5l-.65.8-1.25-.05h-.05q-1.9-2.5-1.8-.4" fill="#c1b335" fill-rule="evenodd" transform="translate(-384.3 -296.15)"/><path d="m14.05 14.9-.05.05-1.4-.15q-.3-.55-.05-1.4l1.05-.6m5.5 2.05-.6.25q.45-.75.1-1.05t-.8.5l-.65.8-1.25-.05h-.05m-1.8-.4q-.1-2.1 1.8.4m2.85-2.6.9.4.15.15-.4 1.4-.1.1-.15.1" fill="none" stroke="#332720" stroke-linecap="round" stroke-linejoin="round" stroke-opacity=".451" stroke-width=".05"/><path d="m407.75 313.15-3.4-.3q1.1-1.15 1.65-2.95.5-1.05 1.3-.2.95 1.4 1.15 3.45-.45-.35-.7 0" fill="#fefdb4" fill-rule="evenodd" transform="translate(-384.3 -296.15)"/><path d="m23.45 17-3.4-.3q1.1-1.15 1.65-2.95.5-1.05 1.3-.2.95 1.4 1.15 3.45-.45-.35-.7 0z" fill="none" stroke="#332720" stroke-linecap="round" stroke-linejoin="round" stroke-opacity=".451" stroke-width=".05"/><path d="M394.6 312.15h-.35q.35-.75 1.3-.95l.25-.05h.2l.45 1.15-1-.15-.75-.05-.1.05" fill="#fefdb4" fill-rule="evenodd" transform="translate(-384.3 -296.15)"/><path d="M10.3 16h-.35q.35-.75 1.3-.95l.25-.05h.2l.45 1.15-1-.15-.75-.05z" fill="none" stroke="#332720" stroke-linecap="round" stroke-linejoin="round" stroke-opacity=".451" stroke-width=".05"/><path d="m405.85 311.6 1.65.3h.3l.8.2.15.75q.2.6-.25 2.4l-.55.9-1.95 1.7-.75.3h-.05l-6.4.6q3.2-.4 4.2-1.45l.05-.15.05-.05.2-.4.05-.15v-.15h.05q1.2-3.15 1.2-4.05l-6.25-.7 5.85-.05h1.65" fill="#5f661a" fill-rule="evenodd" transform="translate(-384.3 -296.15)"/><path d="m398.8 318.75-3.25-.4-.1-.15q-5.55-4.75-1-6.4h.55l.45-.05.15-.05.55.1 1-.15.75-.05.1.05h.35l6.25.7q0 .9-1.2 4.05h-.05v.15l-.05.15-.2.4-.05.05-.05.15q-1 1.05-4.2 1.45" fill="#b7c631" fill-rule="evenodd" transform="translate(-384.3 -296.15)"/><path d="m23.5 15.75.8.2.15.75q.2.6-.25 2.4l-.55.9-1.95 1.7-.75.3h-.05l-6.4.6-3.25-.4m-1.1-6.55h.55l.45-.05.15-.05.55.1m2.2-.15 5.85-.05h1.65" fill="none" stroke="#332720" stroke-linecap="round" stroke-linejoin="round" stroke-opacity=".451" stroke-width=".05"/></g><use width="54.5" height="53.6" xlink:href="#c" id="a"/></defs></svg>