<svg viewBox="0 0 88.055 61.6" xmlns="http://www.w3.org/2000/svg" xmlns:xlink="http://www.w3.org/1999/xlink"><use transform="translate(.01)" width="88.05" height="61.6" xlink:href="#a"/><defs><linearGradient id="b" x1="-819.2" x2="819.2" gradientTransform="matrix(.0272 0 0 .0231 168.7 111.05)" gradientUnits="userSpaceOnUse"><stop stop-color="#c0ebfa" offset="0"/><stop stop-color="#fff" offset="1"/></linearGradient><g id="a" fill-rule="evenodd"><path d="m201.7 125.75 8.1 2.55-23.05 10.8 8-5.8 6.95-7.55" fill="#ccc" transform="translate(-121.95 -88.25)"/><path d="m175.1 147.65.05.05-1 .65.95-.7m-3.35 2.1-.15.1-11.05-5.1q-13.4-4.15-31.55-12.55l.2.05 1.7.25q10.85 1.8 26.4 9.55 9.75 1.15 13 4.1l.45.45.4.55.25.4.4 1.45v.15l-.05.6" fill="#293d3d" transform="translate(-121.95 -88.25)"/><path d="M203.85 117.95q2.75-.4 6.15 3.1-3.55-1.1-6.15 2.1v-5.2" fill="#9b7c4a" transform="translate(-121.95 -88.25)"/><path d="m143.75 109.75-.35.35-.55.15.9-.5" fill="#c0ab7a" transform="translate(-121.95 -88.25)"/><path d="m190.95 117.05-1.5 3.25q-8.8 7.85-20.3 9.4-16.85 2.3-22.7-11.95 1.15-6.15 5.5-10.95l2.15-2.65.65-1 .25-.4q4.95-8.1 13.6-10.05l.95-.3-.25-.3 20.95 24.15.7.8M164 98.8q-.35-.35-.85-.4-.7.1-1.05.7l-.05.5.25.8 1.75.1.15-.35.1-.3-.05-.5-.1-.45-.15-.1m.55 7.15q-2.65 1.3-.8 3.9.45.7 1.15.2 3.75-2.5-.35-4.1m7.85-.35q1.8-.5 2.25-2.3 1.15-5.2-4.65-6.2-4.35 1.6-2.75 6.05 1.3 3.6 5.15 2.45" fill="url(#b)" transform="translate(-121.95 -88.25)"/><path d="m143.75 109.75 17.3-19.95q1.3-1.5 3.15-1.55 1.8.05 3.1 1.55l2 2.3.25.3-.95.3q-8.65 1.95-13.6 10.05l-.25.4-.65 1-2.15 2.65q-4.35 4.8-5.5 10.95 5.85 14.25 22.7 11.95 11.5-1.55 20.3-9.4l1.5-3.25.6.7q.95 1.1 1.2 2.6.1 4.6-4.3 7.35-8.3 5.2-16.9 6.9-12.25 2.35-25.2-2.45-5.75-2.15-8.3-5.8l-.3-.4q-1-1.55-1.4-3.3l-.15-.55q-.3-1.5-.25-3.1.3-.7.85-1.25l6.6-7.65.35-.35" fill="#c2ebfa" transform="translate(-121.95 -88.25)"/><path d="M192.75 120.35q-.25-1.5-1.2-2.6l-.6-.7-.7-.8q7.5 2.6 13.6 1.7v5.2l-2.15 2.6-6.95 7.55.05-.1-8.5 4.1q-5.55 2.55-10.6 5.5l-3.9 2.35-1.5 1q-3.25-2.95-13-4.1l6.1-1.8 21.65-6.55q2.5-.85.8-.4l-.25.05-2.55.6 4.7-2.2q12.85-7.1 5-11.4" fill="#cdc16d" transform="translate(-121.95 -88.25)"/><path d="m143.4 110.1-6.6 7.65q-.55.55-.85 1.25-2.15.5-.25 6.7 1.85 6.15 20.55 9.65 15.35 2.9 26.8-1.4l2.55-.6.25-.05q1.7-.45-.8.4l-21.65 6.55-6.1 1.8q-15.55-7.75-26.4-9.55l-.85-1.25-.95-1.75q-2.9-6.4 1.8-12.75 5.1 1.5 11.95-6.5l.55-.15" fill="#999346" transform="translate(-121.95 -88.25)"/><path d="M135.95 119q-.05 1.6.25 3.1l.15.55q.4 1.75 1.4 3.3l.3.4q2.55 3.65 8.3 5.8 12.95 4.8 25.2 2.45 8.6-1.7 16.9-6.9 4.4-2.75 4.3-7.35 7.85 4.3-5 11.4l-4.7 2.2q-11.45 4.3-26.8 1.4-18.7-3.5-20.55-9.65-1.9-6.2.25-6.7" fill="#94854b" transform="translate(-121.95 -88.25)"/><path d="M129 132.2h-.1q-11.45-10.15-4.05-21.75 2.65 5.3 6.05 6.3-4.7 6.35-1.8 12.75l.95 1.75.85 1.25-1.7-.25-.2-.05" fill="#74683a" transform="translate(-121.95 -88.25)"/><path d="m186.75 139.1-11.65 8.55-.95.7-1.75 1.25-.3.1-.35.15v-.1l.05-.6V149l-.4-1.45-.25-.4-.4-.55-.45-.45 1.5-1 3.9-2.35q5.05-2.95 10.6-5.5l8.5-4.1-.05.1-8 5.8" fill="#dcd39a" transform="translate(-121.95 -88.25)"/><path d="m164 98.8.15.1.1.45.05.5-.1.3-.15.35-1.75-.1-.25-.8.05-.5q.35-.6 1.05-.7.5.05.85.4m8.4 6.8q-3.85 1.15-5.15-2.45-1.6-4.45 2.75-6.05 5.8 1 4.65 6.2-.45 1.8-2.25 2.3m-7.85.35q4.1 1.6.35 4.1-.7.5-1.15-.2-1.85-2.6.8-3.9" fill="#fff" transform="translate(-121.95 -88.25)"/></g></defs></svg>