<svg viewBox="0 0 88.055 61.6" xmlns="http://www.w3.org/2000/svg" xmlns:xlink="http://www.w3.org/1999/xlink"><use transform="translate(.01)" width="88.05" height="61.6" xlink:href="#a"/><defs><linearGradient id="b" x1="-819.2" x2="819.2" gradientTransform="matrix(.0272 0 0 .0231 168.7 111.05)" gradientUnits="userSpaceOnUse"><stop stop-color="#1fe071" offset=".106"/><stop stop-color="#fff" offset="1"/></linearGradient><linearGradient id="c" x1="-819.2" x2="819.2" gradientTransform="matrix(.0347 0 0 .0287 164.35 111.8)" gradientUnits="userSpaceOnUse"><stop stop-color="#1bbe53" offset=".106"/><stop stop-color="#fff" offset="1"/></linearGradient><linearGradient id="d" x1="-819.2" x2="819.2" gradientTransform="matrix(.0146 0 0 .0121 169.3 132.1)" gradientUnits="userSpaceOnUse"><stop stop-color="#d91340" offset=".106"/><stop stop-color="#fff" offset="1"/></linearGradient><linearGradient id="e" x1="-819.2" x2="819.2" gradientTransform="matrix(.0114 0 0 .0098 171.15 131.8)" gradientUnits="userSpaceOnUse"><stop stop-color="#f16787" offset=".106"/><stop stop-color="#fff" offset="1"/></linearGradient><linearGradient id="f" x1="-819.2" x2="819.2" gradientUnits="userSpaceOnUse"><stop stop-color="#960e2d" offset=".106"/><stop stop-color="#fff" offset="1"/></linearGradient><linearGradient id="g" x1="-819.2" x2="819.2" gradientUnits="userSpaceOnUse"><stop stop-color="#9ef1bb" offset=".106"/><stop stop-color="#fff" offset="1"/></linearGradient><g id="a" fill-rule="evenodd"><path d="m201.7 125.75 8.1 2.55-7.45 3.5h-1.15v.55l-14.45 6.75 8-5.8 6.95-7.55" fill="#ccc" transform="translate(-121.95 -88.25)"/><path d="m175.1 147.65.05.05-1 .65.95-.7m-3.35 2.1-.15.1-11.05-5.1q-13.4-4.15-31.55-12.55l.2.05 1.7.25q10.85 1.8 26.4 9.55 9.75 1.15 13 4.1l.45.45.4.55.25.4.4 1.45v.15l-.05.6" fill="#293d3d" transform="translate(-121.95 -88.25)"/><path d="M203.85 117.95q2.75-.4 6.15 3.1-3.55-1.1-6.15 2.1v-5.2" fill="#9b7c4a" transform="translate(-121.95 -88.25)"/><path d="m143.75 109.75-.35.35-.55.15.9-.5" fill="#c0ab7a" transform="translate(-121.95 -88.25)"/><path d="m190.65 116.7-.4-.45q7.55 2.6 13.6 1.7v5.2l-2.15 2.6-6.95 7.55.05-.1-8.5 4.1q-5.55 2.55-10.6 5.5l-3.9 2.35-1.5 1q-3.25-2.95-13-4.1l4.5-1.35q5.4 2 10.55 1 3.6-.7 7.1-2.85 1.85-1.2 1.85-3.15l-.3-.75 4.05-1.25q2.5-.85.8-.4l-.25.05-2.55.6 4.7-2.2q12.85-7.1 5-11.4-.25-1.5-1.2-2.6l-.9-1.05" fill="#cdc16d" transform="translate(-121.95 -88.25)"/><path d="m143.4 110.1-6.6 7.65q-.55.55-.85 1.25-2.15.5-.25 6.7 1.85 6.15 20.55 9.65l1.1.2.1.9.05.25.6 1.4.1.15q1.1 1.5 3.55 2.45h.05l-4.5 1.35q-15.55-7.75-26.4-9.55l-.85-1.25-.95-1.75q-2.9-6.4 1.8-12.75 5.1 1.5 11.95-6.5l.55-.15m39.65 23.85 2.55-.6.25-.05q1.7-.45-.8.4l-4.05 1.25-.15-.25 2.2-.75" fill="#999346" transform="translate(-121.95 -88.25)"/><path d="M135.95 119q-.05 1.6.25 3.1l.15.55q.4 1.75 1.4 3.3l.3.4q2.55 3.65 8.3 5.8 5.6 2.05 11.1 2.8l-.1.2v.4l-1.1-.2q-18.7-3.5-20.55-9.65-1.9-6.2.25-6.7m56.8 1.35q7.85 4.3-5 11.4l-4.7 2.2-2.2.75-.35-.35-1.6-1.85q4.85-1.85 9.55-4.8 4.4-2.75 4.3-7.35" fill="#94854b" transform="translate(-121.95 -88.25)"/><path d="M129 132.2h-.1q-11.45-10.15-4.05-21.75 2.65 5.3 6.05 6.3-4.7 6.35-1.8 12.75l.95 1.75.85 1.25-1.7-.25-.2-.05" fill="#74683a" transform="translate(-121.95 -88.25)"/><path d="m186.75 139.1-11.65 8.55-.95.7-1.75 1.25-.3.1-.35.15v-.1l.05-.6V149l-.4-1.45-.25-.4-.4-.55-.45-.45 1.5-1 3.9-2.35q5.05-2.95 10.6-5.5l8.5-4.1-.05.1-8 5.8" fill="#dcd39a" transform="translate(-121.95 -88.25)"/><path d="M161.8 129.9q-10.9-1.3-15.35-12.15 1.15-6.15 5.5-10.95l2.15-2.65.65-1 .25-.4q4.95-8.1 13.6-10.05l.95-.3-.25-.3 21.35 24.6.3.35-1.5 3.25q-6.35 5.65-14.1 8.05l-3.95-4.55-.85-.95q-.55-.65-1.3-.65-.8 0-1.35.65l-6.1 7.05m2.2-31.1q-.35-.35-.85-.4-.7.1-1.05.7l-.05.5.25.8 1.75.1.15-.35.1-.3-.05-.5-.1-.45-.15-.1m.55 7.15q-2.65 1.3-.8 3.9.45.7 1.15.2 3.75-2.5-.35-4.1m7.85-.35q1.8-.5 2.25-2.3 1.15-5.2-4.65-6.2-4.35 1.6-2.75 6.05 1.3 3.6 5.15 2.45m-3.05 24.1.05-.05v.05h-.05" fill="url(#b)" transform="translate(-121.95 -88.25)"/><path d="m143.75 109.75 17.3-19.95q1.3-1.5 3.15-1.55 1.8.05 3.1 1.55l2 2.3.25.3-.95.3q-8.65 1.95-13.6 10.05l-.25.4-.65 1-2.15 2.65q-4.35 4.8-5.5 10.95 4.45 10.85 15.35 12.15l-4.1 4.7-.25.35q-5.5-.75-11.1-2.8-5.75-2.15-8.3-5.8l-.3-.4q-1-1.55-1.4-3.3l-.15-.55q-.3-1.5-.25-3.1.3-.7.85-1.25l6.6-7.65.35-.35m47.2 7.3.6.7q.95 1.1 1.2 2.6.1 4.6-4.3 7.35-4.7 2.95-9.55 4.8l-3.55-4.15q7.75-2.4 14.1-8.05l1.5-3.25" fill="url(#c)" transform="translate(-121.95 -88.25)"/><path d="m157.45 134.95.25-.35 4.1-4.7 6.1-7.05q.55-.65 1.35-.65.75 0 1.3.65l.85.95.1.15-.4.15q-3.65.8-5.75 4.2l-.1.2-.25.4-.9 1.1v.05q-1.85 2-2.35 4.6l.35.7.5.9q1.45 2.25 3.85 3.1l4.9.3q4.8-.65 8.55-3.95l.2-.45.15-.4.25-.5.35.35.15.25.3.75q0 1.95-1.85 3.15-3.5 2.15-7.1 2.85-5.15 1-10.55-1h-.05q-2.45-.95-3.55-2.45l-.1-.15-.6-1.4-.05-.25-.1-.9v-.4l.1-.2" fill="url(#d)" transform="translate(-121.95 -88.25)"/><path d="m175.35 128.35 3.55 4.15 1.6 1.85-.25.5-.15.4-.2.45q-3.75 3.3-8.55 3.95l-4.9-.3q-2.4-.85-3.85-3.1l-.5-.9-.35-.7q.5-2.6 2.35-4.6V130l.9-1.1.25-.4.1-.2q2.1-3.4 5.75-4.2l.4-.15-.1-.15 3.95 4.55m-2.65 1.15.85-.65.1-.3q.5-2.2-1.95-2.6-1.85.65-1.15 2.55l.6.9 1.55.1m-3.45-2.8-.1-.05q-.15-.15-.35-.15-.3 0-.45.3v.2l.1.3.75.05.05-.15.05-.1-.05-.2v-.2m.15 3v-.05l-.05.05q-1.05.55-.3 1.6l.5.1q1.55-1.05-.15-1.7" fill="url(#e)" transform="translate(-121.95 -88.25)"/><path d="m172.7 129.5-1.55-.1-.6-.9q-.7-1.9 1.15-2.55 2.45.4 1.95 2.6l-.1.3-.85.65m-3.45-2.8v.2l.05.2-.05.1-.05.15-.75-.05-.1-.3v-.2q.15-.3.45-.3.2 0 .35.15l.1.05m.15 3q1.7.65.15 1.7l-.5-.1q-.75-1.05.3-1.6h.05" fill="url(#f)" transform="translate(-121.95 -88.25)"/><path d="m164 98.8.15.1.1.45.05.5-.1.3-.15.35-1.75-.1-.25-.8.05-.5q.35-.6 1.05-.7.5.05.85.4m8.4 6.8q-3.85 1.15-5.15-2.45-1.6-4.45 2.75-6.05 5.8 1 4.65 6.2-.45 1.8-2.25 2.3m-7.85.35q4.1 1.6.35 4.1-.7.5-1.15-.2-1.85-2.6.8-3.9" fill="url(#g)" transform="translate(-121.95 -88.25)"/></g></defs></svg>