<?xml version="1.0" encoding="utf-8"?>
<!-- Generator: Adobe Illustrator 25.1.0, SVG Export Plug-In . SVG Version: 6.00 Build 0)  -->
<svg version="1.1" id="Calque_1" xmlns="http://www.w3.org/2000/svg" xmlns:xlink="http://www.w3.org/1999/xlink" x="0px" y="0px"
	 viewBox="0 0 64.6 52.9" style="enable-background:new 0 0 64.6 52.9;" xml:space="preserve">
<style type="text/css">
	.st0{fill:#7B591C;}
	.st1{fill:#CBCA9D;}
	.st2{fill:#DCD1BA;}
	.st3{fill:#C1B59E;}
	.st4{fill:#B28E68;}
	.st5{fill:#F0ECE2;}
	.st6{fill:#726B68;}
	.st7{fill:#6D645E;}
	.st8{fill:#5F5550;}
	.st9{fill:#766E67;}
	.st10{fill:#756E6A;}
	.st11{fill:#6F6865;}
	.st12{fill:#CBCA9E;}
	.st13{fill:#C3B59C;}
	.st14{fill:#C7B89C;}
	.st15{fill:#EEECE2;}
	.st16{fill:#CCC0AE;}
	.st17{fill:#C6B9A2;}
	.st18{fill:#BBAF8E;}
	.st19{fill:#CEC2B0;}
	.st20{fill:#BCB18F;}
	.st21{fill:#EFEDE2;}
	.st22{fill:#DED8C1;}
	.st23{fill:#C6B9A1;}
	.st24{fill:#A4987D;}
	.st25{fill:#E1DCC7;}
	.st26{fill:#56B2F6;}
	.st27{fill:#C1B78D;}
	.st28{fill:#B6A683;}
	.st29{fill:#CFC5B3;}
	.st30{fill:#C1B596;}
	.st31{fill:#C3B69C;}
	.st32{fill:#C3B59D;}
	.st33{fill:#E7E2D2;}
	.st34{fill:#736C69;}
	.st35{fill:#6A615C;}
	.st36{fill:#78716E;}
	.st37{fill:#999999;}
	.st38{fill:#6E645D;}
	.st39{fill:#D9D9D9;}
	.st40{fill:#695E55;}
	.st41{fill:#686059;}
	.st42{fill:#6F655D;}
	.st43{fill:#6F665E;}
	.st44{fill:#382816;}
	.st45{fill:#675E55;}
	.st46{fill:#827155;}
	.st47{fill:#574A39;}
	.st48{fill:#625542;}
	.st49{fill:#6D6154;}
	.st50{fill:#C49D73;}
	.st51{fill:#CBCBCB;}
	.st52{fill:#ABABAB;}
	.st53{fill:#D9D8D8;}
	.st54{fill:#685B4C;}
	.st55{fill:#7A6E60;}
	.st56{fill:#564738;}
	.st57{fill:#6E6152;}
	.st58{fill:#90683C;}
	.st59{fill:#66492A;}
	.st60{fill:#675A4C;}
	.st61{fill:#74685A;}
	.st62{fill:#74685C;}
	.st63{fill:#EFEBE0;}
	.st64{fill:#6B5F51;}
	.st65{fill:#5F5244;}
	.st66{fill:#84715B;}
	.st67{fill:#8B8177;}
	.st68{fill:#615547;}
	.st69{fill:#896239;}
	.st70{fill:#392916;}
	.st71{fill:#665F57;}
	.st72{fill:#6C563F;}
</style>
<g>
	<path class="st11" d="M16.2,52.9c5.9-0.5,11.8,0.2,17.8,0c9.3-0.3,18.6-0.1,27.9-0.1c0.9,0,1.8,0.2,2.7-0.3c0-13.9,0-27.8,0-41.7
		c0-3.6,0-3.6-3.5-3.8c-0.3-0.1-0.6-0.1-0.9,0.2c-0.9,1.2-0.7,2.5-0.7,3.8c0,10.2,0,20.4,0,30.7c0,4.6,0,4.6-4.8,4.7
		c-11.2,0-22.5,0-33.7,0c-4.5,0-9,0-13.5,0c-1.2,0-2.6-0.1-3,1.5c0,0.2,0,0.3-0.1,0.5c0,1.3,0.1,2.7,0.1,4L16.2,52.9z"/>
	<path class="st12" d="M59.8,46.4c-0.2,0.2-0.3,0.3-0.5,0.5c-2,0-4,0.1-6,0.1c-2.5,1-5,1.4-7.5,0c-0.5,0-1,0-1.5,0
		c-6.3,1.3-12.6,0.9-19,0.7c-5.9,0.2-11.8,0.2-17.7,0.2c-1.3,0-2.7,0.1-3.8-0.9c-0.7,0-1.4-0.1-2-0.5C1.2,42.2,1.6,38,1.6,33.8
		c0-1.5-0.1-3-0.5-4.4c0.1-1.1-0.3-2.1-0.4-3.1c0.6-3,0.2-6,0.4-9c0.1-1.1,0.1-2.6,2-1.3c0.7,0.8,1.2,1.8,1.4,2.9
		c0.1,7,0,14.1,0.1,21.1c0,1.2-0.1,2.3,0.9,3.2c1.5,0.5,3.1,0.5,4.7,0.5c14.3,0,28.7,0,43,0c3.3,0,3.3-0.1,3.4-3.4
		c0.1-2.9-0.4-5.8,0.3-8.7c0.8-1.2,1.7-2.1,3.3-1.1c0.4,0.6,0.6,1.2,0.6,1.9C60.6,37.1,61.1,41.8,59.8,46.4z"/>
	<path class="st1" d="M18.8,0.4c0.9,0.6,2,0.5,3,0.5c2.5,0,5,0,7.5,0c1.8,0,3.7,0,5.5,0C35,1.7,34.4,2,33.9,2.4
		c-1.1,0.7-2.2,1.4-3.5,1.6c-0.3,0-0.6,0.1-0.8,0.1C22.8,4.5,16,4.2,9.1,4.3c-3.8,0-3.8,0-4,3.8c0,0.7,0,1.5-0.3,2.2
		c-0.1,0.3-0.3,0.5-0.5,0.8c-1.2,0.4-2.2,0.1-2.9-0.9c-0.6-2.5-0.3-5-0.2-7.5c0-0.7,0.3-1.3,0.9-1.6c1.5-0.7,3.1-0.5,4.6-0.5
		C10.7,0.5,14.8,0.5,18.8,0.4z"/>
	<path class="st13" d="M36.3,0.4c0.3,0.2,0.7,0.4,1,0.6c1,0.7,1.4,1.8,2.1,2.8C40.2,5.1,41,6.6,41.8,8c0.5,0.8,1.1,1.7,0.5,2.8
		c-1.2,0.5-1.6-0.6-2.1-1.3c-1.3-1.9-2.2-3.9-3.5-5.9c-0.7,0.9-0.6,2.2-1.5,2.9c-0.4,0.1-0.7-0.1-0.9-0.4c-0.5-1.6,0.3-3,0.6-4.5
		c0-0.2,0.1-0.4,0.3-0.6C35.6,0.7,35.9,0.5,36.3,0.4z"/>
	<path class="st14" d="M35.3,0.9c0,0.2,0,0.5,0,0.7c0,0.5-0.3,0.9-0.8,1c-0.4-0.1-0.6-0.3-0.7-0.7c0.3-0.3,0.7-0.6,1-0.9
		C34.9,0.9,35.1,0.9,35.3,0.9z"/>
	<path class="st15" d="M57.2,31.5c0,3.5,0,7,0.2,10.5c0.1,2.1-0.7,2.5-2.6,2.5c-14.2-0.1-28.3,0-42.5,0c-2.7,0-5.3,0-8,0
		c-0.5-2.9-0.2-5.8-0.2-8.6c-0.1-4.6,0-9.3,0-13.9c0-0.8-0.3-1.7,0.5-2.7c2.7,2.3,3.7,5.6,5.5,8.4c0.4,0.6,0.8,1.4,1.3,2
		c1,2,2.3,3.8,3.2,5.9c0.1,0.6,0.1,1.1-0.5,1.4c-1.3,0.8-2.9-0.1-4.6,0.4c0.9,1,1.9,0.9,2.7,0.9c13.3,0,26.6,0,39.9,0
		c0.5,0,1,0,1.5-0.1c0.7-0.1,1.5-0.3,1.2-1.2c-0.3-0.8-1-0.3-1.5-0.1c-1.1,0.4-2.2,0.7-3.4,0.2c-0.8-0.5-0.7-1.2-0.1-1.6
		C52,33.8,54.1,31.7,57.2,31.5z"/>
	<path class="st16" d="M9.8,28.4c-1.7-2.8-3.4-5.7-5.1-8.5c-0.1,0-0.3,0-0.4,0c0,8.1,0,16.3,0,24.4c-0.8-0.8-0.5-1.7-0.5-2.6
		c0-7.8,0-15.6,0-23.4c0.1-0.4,0.4-0.6,0.8-0.6c2.5,3,4.6,6.2,5.6,10.1C10.1,28,10,28.2,9.8,28.4z"/>
	<path class="st17" d="M57.2,31.5c-2.6,1.8-5.7,2.8-8,5c-0.5,0.4-0.9,0.4-1.4,0c-0.2-1,0.5-1.4,1.1-1.7c3-1.8,6-3.6,9.1-5.2
		c0.6-0.3,1.2-0.6,1.9-0.2c0,0.3,0,0.7-0.1,1C58.9,30.7,58,31.1,57.2,31.5z"/>
	<path class="st18" d="M4.3,17.9C4.1,18,4,18.2,3.8,18.4c-0.3-0.7-0.7-1.3-1-2c0-0.2,0-0.4,0.1-0.6C4.1,15.9,4.6,16.6,4.3,17.9z"/>
	<path class="st5" d="M4.2,10.9c0-1.7,0.1-3.5,0-5.2C4.1,3.9,4.8,3.4,6.5,3.4c7.9,0.1,15.8,0,23.7,0c0.3,1.4-0.9,1.9-1.8,2.3
		C24,8.3,19.6,10.9,15,13.4c-0.7,0.4-1.4,0.8-2.1,0.6c-2.7-0.6-5.5-1.1-8.1-2.3C4.5,11.5,4.3,11.2,4.2,10.9z"/>
	<path class="st19" d="M4.2,10.9c2.6,0.8,5.3,1.6,7.9,2.3c0.7,0.2,1.5,0.2,2.2-0.2c5-2.9,9.9-5.7,14.9-8.6c0.4-0.2,0.7-0.7,1.1-1
		c0.2,0,0.4,0,0.6,0c0.4,0.2,0.6,0.4,0.6,0.8c-0.7,1.4-2.1,1.8-3.3,2.5c-3.9,2.3-7.9,4.5-12,6.9c2.4,1.4,5.3,0.9,7.3,2.9
		c-0.1,0.4-0.3,0.7-0.7,0.8c-2.6,0.4-4.9-0.7-7.2-1.4c-3.2-0.9-6.3-2-9.5-2.9c-0.8-0.2-1.6-0.4-2.2-1.1C3.6,11.4,3.8,11.2,4.2,10.9
		L4.2,10.9z"/>
	<path class="st20" d="M31.3,3.9c-0.2-0.2-0.3-0.3-0.5-0.5c1-0.5,2-1,2.9-1.5c0.2,0.1,0.3,0.3,0.5,0.4C33.7,3.7,32.7,4.2,31.3,3.9z"
		/>
	<path class="st14" d="M4.2,10.9c-0.2,0.2-0.3,0.3-0.5,0.5c-0.9,0.6-1.5,0.4-2-0.6c0-0.2,0-0.3,0.1-0.5C2.6,10.6,3.4,10.7,4.2,10.9z
		"/>
	<path class="st12" d="M57.1,0.5c0.3,0.8,1.3,0.9,2.2,0.8c0.1-0.1,0.2-0.1,0.3-0.2c0.2,0.1,0.4,0.2,0.5,0.5c0.2,0.6,0.2,1.2-0.3,1.7
		c-0.2,1,0.6,2,0,3.1c0,6.5-0.1,12.9-0.1,19.4c-1.1,0.4-2.1,0.3-2.9-0.7c-0.6-1.2-0.5-2.4-0.5-3.7c0-4.7,0-9.5,0-14.2
		c0-2.8-0.2-2.9-3-2.9c-3.6,0-7.1,0-10.7,0c-1.3,0-2.6-0.1-3.9-0.4C38,3,37.5,2,37.3,0.9c0.5,0,1,0,1.5,0c0.9-0.6,1.9-0.9,3-0.8
		C44.7,0,47.6,0,50.5,0"/>
	<path class="st5" d="M38.7,3.9c0.5-0.5,1.2-0.5,1.9-0.5c4.9,0,9.8,0,14.7,0c1.5,0,2.1,0.4,2.1,2c-0.1,6.7-0.1,13.3-0.1,20
		c-0.2,0.3-0.6,0.4-0.9,0.4c-1-0.1-2-0.4-3-0.7c-0.7-0.3-1.5-0.5-2.2-0.6c-0.2-0.1-0.4-0.1-0.6-0.2c-1.5-0.6-2-2.2-2.9-3.3
		c-0.1-0.2-0.3-0.4-0.4-0.6c-1.4-3.1-3.6-5.9-4.9-9c0-0.1,0-0.2,0-0.3C41.6,8.3,39.8,6.3,38.7,3.9z"/>
	<path class="st21" d="M31.3,3.9c1-0.5,2-1.1,3-1.6c0.4-0.2,0.7-0.5,1.1-0.7c0.5,1.5-0.6,2.8-0.6,4.3c0.3,3.8-1.5,7.1-2.2,10.7
		c-0.1,1.3-0.7,2.4-2.1,2.8c-0.4,0.1-0.8,0-1.2-0.1c-1.3-0.8-2.7-1.1-4.1-1.5c-0.8-0.3-1.6-0.4-1.9-1.3c-2.9-0.7-5.7-1.5-9.2-2.4
		C20.1,10.5,25.7,7.2,31.3,3.9z"/>
	<path class="st22" d="M35.3,6.4C35.6,5,36,3.7,36.4,2c2.6,2.8,3.4,6.4,5.9,8.9c0,0,0,0,0,0c1.8,3.2,3.6,6.4,5.5,9.5l0,0
		c0.2,0.3,0.4,0.5,0.5,0.9c0.2,0.7,1.2,1.4,0.4,2.2c-0.6,0.6-1.4,0.3-2.1,0.1c-4.3-1.1-8.6-2.4-12.9-3.4c-2.4-0.5-1.8-2-1.6-3.5
		c1.1-2.9,1.6-6,2.5-9C34.7,7.1,34.8,6.6,35.3,6.4z"/>
	<path class="st23" d="M35.3,6.4c-1.2,3.3-1.3,6.9-3,10c-0.1,0.3-0.3,0.3-0.4,0c1-3.5,1.9-7,2.9-10.6C34.9,6,35.1,6.2,35.3,6.4z"/>
	<path class="st24" d="M59.8,1.4c-0.2,0-0.3,0-0.5,0"/>
	<path class="st25" d="M53.2,24.4c1,0.3,2,0.6,3,0.8c1.1,0.7,2.5,0.2,3.5,1.1c1,0.3,2,0.4,2.9,1.1c-0.7,1-1.9,1.3-2.9,1.9
		c-4.1,2.1-8.3,4.3-12.1,7c-1.2,1.1-2.3,0.3-3.4-0.3c-1.6-0.8-2.9-2.2-4.1-3.4c-1.5,0.9-2,3.1-4.2,2.7c-2.3-4.9-4.8-9.7-6.1-15
		c0.1-0.6,0.5-0.9,1-1.2c3.3,0.2,6.2,1.6,9.4,2.3c3.5,0.8,7,2,10.6,2.5l0,0C51.6,24.2,52.4,24.4,53.2,24.4z"/>
	<path class="st26" d="M36.3,35.2c1.2-0.5,2.1-1.4,2.8-2.4c1-1.6,1.5-1,2.4,0.1c1.6,1.9,3.5,3.5,6.2,3.5c0.5,0,1,0,1.4,0
		c2.3,0.4,4.2-0.6,6-1.8c1.3,3.6,0.8,4.3-2.7,4.3c-13.8,0-27.6,0-41.4,0c-3.1,0-3.1,0-2.5-3.4c1.9,0.5,3.7,1.4,5.8,0.9
		c2.5-1.1,5-2.1,7-4.2c1-1.1,2.2-0.4,3.1,0.5c2.8,3.1,6.3,3.4,10.1,2.6C35.1,35.2,35.6,35,36.3,35.2z"/>
	<path class="st27" d="M34.8,35.9c-4,1.6-7.8,0.8-10.8-2.6c-1.2-1.4-1.8-1.3-2.9,0.1c-1.7,2.1-3.9,3.4-6.7,3c-0.2-0.3-0.4-0.7-0.5-1
		c0.1-1.5-1.4-2.4-1.8-3.7c-0.2-0.7-1.2-1.4,0-2.1c2.4,0.2,4.9,0.8,7.3,0.4c1.3,0,2.4-0.6,3.4-1.4c0.9-0.7,2-0.9,2.5,0.3
		c1.7,3.8,4.8,5.6,8.7,6.3C34.4,35.3,34.6,35.6,34.8,35.9z"/>
	<path class="st26" d="M55.4,40.6c-15.6,0-31.2,0-46.8,0c0-0.1,0-0.3,0-0.4c15.6,0,31.2,0,46.8,0C55.4,40.4,55.4,40.5,55.4,40.6z"/>
	<path class="st26" d="M55.3,42.6c-15.6,0-31.1,0-46.7,0c0-0.2,0-0.3,0-0.5c15.6,0,31.2,0,46.7,0C55.3,42.2,55.3,42.4,55.3,42.6z"/>
	<path class="st28" d="M11.8,29.9c0.3,1.2,0.9,2.2,1.6,3.3c0.4,0.6,1.3,1.2,0.5,2.1c-1-1.8-2.1-3.6-3.1-5.4c-0.3-0.5,0-0.6,0.4-0.7
		C11.5,29.3,11.7,29.5,11.8,29.9z"/>
	<path class="st27" d="M11.2,29.4c-0.2,0.2-0.3,0.4-0.5,0.5c-0.3-0.5-0.6-1-1-1.5c0-0.2,0-0.4,0-0.6C10.9,27.8,11.5,28.2,11.2,29.4z
		"/>
	<path class="st21" d="M11.2,29.4c-0.3-0.7-0.8-1.2-1.4-1.6c-1.4-3.5-3.5-6.7-5.5-9.9c-0.4-0.8-0.7-1.6-1.5-2.1
		c0-0.6-0.3-1.1-0.9-1.4C1,14,0.6,13.3,0.2,12.5c-0.2-0.9-0.5-1.9,1.1-1.7c0.2,0,0.3,0.1,0.5,0.1c0.6,0.5,1.2,0.6,2,0.6
		c6.3,1.8,12.5,4.3,19,5.5c2.3,0.4,4.5,0.7,6.5,2c0.4,0,0.7,0,1.1,0c0.2,0.1,0.3,0.3,0.4,0.5c-0.2,0.3-0.3,0.7-0.5,1
		c-2.8,4.1-6.5,7.5-10.5,10.5c-2.7,0.2-5.4,0.2-8-0.9C11.6,29.8,11.4,29.6,11.2,29.4z"/>
	<path class="st29" d="M29.3,18.9c-2.2-0.7-4.4-1.3-6.5-2c0.2-0.2,0.3-0.3,0.5-0.5c1.6,0.5,3.3,1,4.9,1.4
		C28.8,18,29.2,18.2,29.3,18.9z"/>
	<path class="st30" d="M59.8,26.4c-1.3-0.1-2.5-0.2-3.5-1.1c0.3,0,0.6,0.1,1,0.1c0.9,0,1.7,0,2.5,0.5C59.7,26,59.8,26.2,59.8,26.4z"
		/>
	<path class="st31" d="M30.8,19.4c-0.1-0.2-0.3-0.3-0.4-0.5c1-0.5,1.4-1.4,1.5-2.5c0.1,0,0.3,0,0.4,0c-0.4,1.8,0.2,2.6,2.2,3.1
		c4.7,1.1,9.2,2.5,14,3.8c0.3-1.2-0.8-1.9-0.7-2.9c1.4,0.9,1.5,2.8,3,3.5c-3.5,0.6-6.5-1.2-9.8-1.9C37.6,21.3,34.2,20.3,30.8,19.4z"
		/>
	<path class="st13" d="M47.8,20.4c-2.4-2.9-4.1-6.1-5.5-9.5C44.6,13.8,46.4,17,47.8,20.4z"/>
	<path class="st32" d="M53.2,24.4c-1,0.7-1.7,0-2.5-0.5C51.6,23.8,52.5,23.9,53.2,24.4z"/>
	<path class="st33" d="M19.8,30.8c3.3-3.7,6.8-7.2,10.5-10.5c1.8,4.3,3.7,8.6,5.5,13c0.2,0.6,0.4,1.3,0.5,1.9
		c-0.5,0.2-1,0.4-1.5,0.7c-4.5-0.2-8-1.9-9.8-6.2c-0.6-1.4-1-1.1-1.9-0.4C22.1,30.1,21.1,30.7,19.8,30.8z"/>
</g>
</svg>
