<?xml version="1.0" encoding="utf-8"?>
<!-- Generator: Adobe Illustrator 25.1.0, SVG Export Plug-In . SVG Version: 6.00 Build 0)  -->
<svg version="1.1" id="Calque_1" xmlns="http://www.w3.org/2000/svg" xmlns:xlink="http://www.w3.org/1999/xlink" x="0px" y="0px"
	 viewBox="0 0 64.1 54.5" style="enable-background:new 0 0 64.1 54.5;" xml:space="preserve">
<style type="text/css">
	.st0{fill:#7B591C;}
	.st1{fill:#CBCA9D;}
	.st2{fill:#DCD1BA;}
	.st3{fill:#C1B59E;}
	.st4{fill:#B28E68;}
	.st5{fill:#F0ECE2;}
	.st6{fill:#726B68;}
	.st7{fill:#6D645E;}
	.st8{fill:#5F5550;}
	.st9{fill:#766E67;}
	.st10{fill:#756E6A;}
	.st11{fill:#6F6865;}
	.st12{fill:#CBCA9E;}
	.st13{fill:#C3B59C;}
	.st14{fill:#C7B89C;}
	.st15{fill:#EEECE2;}
	.st16{fill:#CCC0AE;}
	.st17{fill:#C6B9A2;}
	.st18{fill:#BBAF8E;}
	.st19{fill:#CEC2B0;}
	.st20{fill:#BCB18F;}
	.st21{fill:#EFEDE2;}
	.st22{fill:#DED8C1;}
	.st23{fill:#C6B9A1;}
	.st24{fill:#A4987D;}
	.st25{fill:#E1DCC7;}
	.st26{fill:#56B2F6;}
	.st27{fill:#C1B78D;}
	.st28{fill:#B6A683;}
	.st29{fill:#CFC5B3;}
	.st30{fill:#C1B596;}
	.st31{fill:#C3B69C;}
	.st32{fill:#C3B59D;}
	.st33{fill:#E7E2D2;}
	.st34{fill:#736C69;}
	.st35{fill:#6A615C;}
	.st36{fill:#78716E;}
	.st37{fill:#999999;}
	.st38{fill:#6E645D;}
	.st39{fill:#D9D9D9;}
	.st40{fill:#695E55;}
	.st41{fill:#686059;}
	.st42{fill:#6F655D;}
	.st43{fill:#6F665E;}
	.st44{fill:#382816;}
	.st45{fill:#675E55;}
	.st46{fill:#827155;}
	.st47{fill:#574A39;}
	.st48{fill:#625542;}
	.st49{fill:#6D6154;}
	.st50{fill:#C49D73;}
	.st51{fill:#CBCBCB;}
	.st52{fill:#ABABAB;}
	.st53{fill:#D9D8D8;}
	.st54{fill:#685B4C;}
	.st55{fill:#7A6E60;}
	.st56{fill:#564738;}
	.st57{fill:#6E6152;}
	.st58{fill:#90683C;}
	.st59{fill:#66492A;}
	.st60{fill:#675A4C;}
	.st61{fill:#74685A;}
	.st62{fill:#74685C;}
	.st63{fill:#EFEBE0;}
	.st64{fill:#6B5F51;}
	.st65{fill:#5F5244;}
	.st66{fill:#84715B;}
	.st67{fill:#8B8177;}
	.st68{fill:#615547;}
	.st69{fill:#896239;}
	.st70{fill:#392916;}
	.st71{fill:#665F57;}
	.st72{fill:#6C563F;}
</style>
<g>
	<path class="st0" d="M21.2,3.9C21.5,0,21.5,0,25.5,0c2.3,0,4.6,0,7,0c4,0,4,0,4.3,3.9c0.7,0.8,0.8,1.7,0.7,2.7
		c0,0.2,0.1,0.5,0.1,0.7c0.3,5.2,0.3,5.2,5.7,5.2c1.7,0,3.5-0.1,5.2,0.1c1.8,0.2,2.9,1.2,3,3c0.2,3.7,0.2,7.3,0,11
		c-0.1,2-1.3,3-3.2,3.1c-2.1,0.2-4.2,0.1-6.2,0.1c-4.4,0-4.4,0-4.4,4.3c0,4.3,0.2,8.7-0.1,13c0,0.9,0.1,1.9,0,2.8
		c0.1,1,0,1.9-0.2,2.8c-0.4,1.1-1.4,1.4-2.4,1.4c-4.3,0-8.6,0.2-12.9-0.1c-0.7-0.2-1.1-0.7-1.3-1.3c-0.2-0.9-0.2-1.8-0.2-2.8
		c-0.2-0.9-0.1-1.8,0-2.7c-0.3-4.8,0-9.6-0.1-14.4c-0.1-2.6-0.2-2.8-2.9-2.9c-2.2-0.1-4.3,0-6.5,0c-3.4-0.1-4.5-1.2-4.6-4.5
		c-0.1-2.7-0.1-5.3,0-8c0.1-3.5,1.2-4.6,4.7-4.8c1.9-0.1,3.8,0,5.7,0c3.4,0,3.5-0.1,3.6-3.4c0-0.8,0-1.7,0.1-2.5
		C20.4,5.6,20.5,4.7,21.2,3.9z"/>
	<path class="st1" d="M36.8,6.5c0-0.8,0-1.7,0-2.5c6.7,0,13.3,0,20,0c0.8-0.5,1.7-0.6,2.4,0.2c1.3,1.5,0.6,3.4,1.1,5.1
		c-0.2,2.7,0,5.3-0.2,8c-0.1,2.8,0.1,5.6,0,8.4C59.9,32.8,60.4,40,60,47.3c-0.1,1.7-0.8,2.8-2.4,3.3c-1.3,0.2-2.5,0.3-3.8,0.1
		c-3,0.2-5.9,0.1-8.9,0.1c-1.7-0.3-3.4,0.3-5.1-0.1c-1.1,0-2.2,0.2-3-0.9c0-0.8,0-1.6,0-2.4c1-1,2.3-0.9,3.5-0.9
		c4.2,0,8.5-0.1,12.7,0c2,0,2.8-0.7,2.8-2.8c0-11.2,0-22.4,0-33.7C55.8,8,55,7.3,53,7.4c-4.2,0.1-8.5,0-12.7,0
		C39.1,7.3,37.8,7.4,36.8,6.5z"/>
	<path class="st1" d="M0.7,13.9c0-2.5,0.1-5,0-7.5c-0.1-1.5,0.5-2.4,2-2.6c6.2,0,12.3,0,18.5,0c0,0.8,0,1.7,0,2.5
		c-1,1-2.3,0.9-3.5,0.9c-3.7,0-7.3,0-11,0C4.9,7.4,4.2,8,4.2,9.8c0,11.4,0,22.8,0,34.2c0,1.8,0.7,2.5,2.5,2.5c3.7,0,7.3,0,11,0
		c1.2,0,2.5-0.1,3.5,0.9c0,0.8,0,1.6,0,2.4c-0.6,0.7-1.3,0.8-2.1,0.8c-5.2,0.1-10.4,0.5-15.6-0.2c-0.3-0.2-0.5-0.3-0.8-0.5
		c-1.4,0-2-0.7-2-2.1c0-1,0-1.9,0-2.9c0-7.8,0-15.7,0-23.5c-0.3-0.4-0.6-0.8-0.6-1.3c0-0.2,0-0.5,0-0.7c0-0.3,0-0.7,0-1
		c0-0.4,0-0.9,0-1.3"/>
	<path class="st3" d="M0.7,17c-0.3,0.2,0-0.1-0.2,0.2"/>
	<path class="st4" d="M23.2,39.5c0-3.4-0.1-6.8,0-10.2c0-1.7-0.6-2.4-2.3-2.4c-3.2,0.1-6.3,0-9.5,0c-1.6,0-2.3-0.4-2.2-2.1
		c0.1-2.5,0.1-5,0-7.5c-0.1-1.5,0.5-2.1,2-2c3,0.1,6-0.1,9,0.1c2.2,0.1,3.2-0.5,3-2.9c-0.2-2.9,0-5.8-0.1-8.7c0-1.4,0.5-1.9,1.9-1.9
		c2.7,0.1,5.3,0.1,8,0c1.3,0,1.7,0.6,1.7,1.8c0,3.1,0.1,6.2,0,9.2c-0.1,1.8,0.6,2.6,2.4,2.5c3.2-0.1,6.3,0,9.5-0.1
		c1.7-0.1,2.2,0.6,2.1,2.2c-0.1,2.3-0.1,4.7,0,7c0.1,1.8-0.4,2.5-2.4,2.4c-3.1-0.1-6.2,0-9.2-0.1c-1.9-0.1-2.5,0.7-2.5,2.5
		c0.1,6.7,0,13.5,0.1,20.2c0,1.7-0.5,2.4-2.3,2.3c-2.4-0.1-4.8-0.1-7.2,0c-1.7,0.1-2.2-0.6-2.1-2.2C23.3,46.3,23.2,42.9,23.2,39.5z"
		/>
	<path class="st5" d="M36.8,6.5c5.9,0,11.8,0,17.7-0.1c1.8,0,2.3,0.6,2.3,2.3c-0.1,12.1-0.1,24.3,0,36.4c0,2-0.7,2.3-2.5,2.3
		c-5.8-0.1-11.6,0-17.5,0c0-5.7-0.1-11.5-0.1-17.2c0-1.3,0.6-1.5,1.7-1.5c3.4,0,6.8,0,10.2,0c1.6,0,2.2-0.5,2.2-2.2
		c-0.1-3.6-0.1-7.1,0-10.7c0.1-1.9-0.8-2.5-2.5-2.4c-3.2,0.1-6.5,0-9.7,0.1c-1.5,0-1.9-0.5-1.8-1.9C36.8,9.9,36.7,8.2,36.8,6.5z"/>
	<path class="st5" d="M21.2,47.4c-5.2,0-10.5-0.1-15.7,0c-1.8,0-2.3-0.6-2.2-2.3C3.3,33,3.3,20.8,3.2,8.7c0-1.7,0.5-2.3,2.3-2.3
		c5.2,0.1,10.5,0,15.7,0.1c0.4,7,0.4,7-6.4,7c-1.7,0-3.5,0-5.2,0c-1.5,0-2.1,0.6-2.1,2.1c0,3.7,0.1,7.5,0,11.2
		c0,1.7,0.8,1.9,2.2,1.9c3.3,0,6.7,0,10,0c1.3,0,1.7,0.4,1.7,1.7C21.2,36.1,21.2,41.7,21.2,47.4z"/>
	<path class="st6" d="M22.2,54.4c-5.4,0-10.8-0.1-16.2,0.1c-2.3,0.1-3.3-0.6-2.9-2.9c0.1-0.6,0-1.2,0-1.7c5.4,0,10.7,0,16.1,0
		c0.9,0.6,1.5,1.5,2,2.5c0.2,0.3,0.4,0.7,0.5,1C22.1,53.7,22.6,53.9,22.2,54.4z"/>
	<path class="st7" d="M22.2,54.4c-0.2-0.3-0.3-0.7-0.5-1c4.3,0,8.6,0,12.8,0c0.9,0,1.9,0.3,2.2-1c0.8-1.1,2-1.6,3-2.5
		c1.7,0,3.3,0,5,0c-0.3,2.7-2.8,3.2-4.5,4.5C34.2,54.4,28.2,54.4,22.2,54.4z"/>
	<path class="st8" d="M39.7,49.9c-0.3,1.7-1.6,2.1-3,2.5c0-0.9,0-1.7,0-2.6C37.8,49.9,38.8,49.9,39.7,49.9z"/>
	<path class="st7" d="M21.2,52.4c-0.9-0.6-1.8-1.2-2-2.5c0.6,0,1.3-0.1,1.9-0.1C21.2,50.7,21.2,51.6,21.2,52.4z"/>
	<path class="st9" d="M40.2,54.4c1-2,3.4-2.6,4.5-4.5c3,0,6,0,9,0c1.2,1.5,2.3,1.1,3.5,0c1.9-0.3,2-1.7,2-3.2c0-7.1,0-14.2,0.1-21.3
		c0.2-0.2,0.6-0.5,0.6-0.7c0.1-2.6,0.7-5.3-0.6-7.8c0.2-2.6-0.8-5.4,0.5-7.9c0.2-0.3,0.4-0.4,0.7-0.6c0.6-0.2,1.2-0.2,1.8,0
		c2.1,1.6,2.4,3.9,0.9,6.5c-0.7,3.8-0.2,7.7-0.4,11.5c-2,1.8-1.3,3.7,0,5.5c0,0.3,0,0.7,0,1c-1.2,1.8-1.9,3.7,0,5.5
		c0.4,2.2-0.8,4.3,0,6.5c-0.9,1.3-1.6,2.6-0.5,4.3c0.6,1,0.2,2.2-0.9,2.7c-1.1,0.6-1.8,1.6-2.6,2.5c-1.5,0-3,0-4.5,0
		c-0.8-0.6-1.7-0.6-2.5,0C47.9,54.4,44.1,54.4,40.2,54.4z"/>
	<path class="st10" d="M59.3,16.9c1.2-0.1,1.7,0.7,1.5,1.7c-0.6,2.2,1.4,4.6-0.5,6.7c-0.2,0.2-0.6,0.1-1,0.1
		C59.3,22.6,59.3,19.8,59.3,16.9z"/>
	<path class="st10" d="M57.2,49.9c-0.2,1.2-0.9,2-2.1,1.9c-1.2,0-1.4-0.9-1.4-1.9C54.9,49.9,56.1,49.9,57.2,49.9z"/>
	<path class="st10" d="M58.7,54.4c-0.2-1.4,0.3-2.4,1.7-2.9c1.8-0.6,2.1-1.5,0.7-3c-2-2.2,0.8-2.5,1.6-3.6c0,1.9,0.1,3.8,0.1,5.7
		C62.8,54.6,62.8,54.6,58.7,54.4z"/>
	<path class="st10" d="M62.8,31.9c-3.1-2.6-3.1-3.9,0-5.5C62.8,28.3,62.8,30.1,62.8,31.9z"/>
	<path class="st10" d="M62.8,38.4c-2.8-1.3-2.8-3.2,0-5.5C62.8,34.8,62.8,36.6,62.8,38.4z"/>
	<path class="st10" d="M51.7,54.4c0.8-1.3,1.7-1.3,2.5,0C53.4,54.4,52.6,54.4,51.7,54.4z"/>
</g>
</svg>
