<?xml version="1.0" encoding="utf-8"?>
<!-- Generator: Adobe Illustrator 25.1.0, SVG Export Plug-In . SVG Version: 6.00 Build 0)  -->
<svg version="1.1" id="Calque_1" xmlns="http://www.w3.org/2000/svg" xmlns:xlink="http://www.w3.org/1999/xlink" x="0px" y="0px"
	 viewBox="0 0 64.3 62.7" style="enable-background:new 0 0 64.3 62.7;" xml:space="preserve">
<style type="text/css">
	.st0{fill:#7B591C;}
	.st1{fill:#CBCA9D;}
	.st2{fill:#DCD1BA;}
	.st3{fill:#C1B59E;}
	.st4{fill:#B28E68;}
	.st5{fill:#F0ECE2;}
	.st6{fill:#726B68;}
	.st7{fill:#6D645E;}
	.st8{fill:#5F5550;}
	.st9{fill:#766E67;}
	.st10{fill:#756E6A;}
	.st11{fill:#6F6865;}
	.st12{fill:#CBCA9E;}
	.st13{fill:#C3B59C;}
	.st14{fill:#C7B89C;}
	.st15{fill:#EEECE2;}
	.st16{fill:#CCC0AE;}
	.st17{fill:#C6B9A2;}
	.st18{fill:#BBAF8E;}
	.st19{fill:#CEC2B0;}
	.st20{fill:#BCB18F;}
	.st21{fill:#EFEDE2;}
	.st22{fill:#DED8C1;}
	.st23{fill:#C6B9A1;}
	.st24{fill:#A4987D;}
	.st25{fill:#E1DCC7;}
	.st26{fill:#56B2F6;}
	.st27{fill:#C1B78D;}
	.st28{fill:#B6A683;}
	.st29{fill:#CFC5B3;}
	.st30{fill:#C1B596;}
	.st31{fill:#C3B69C;}
	.st32{fill:#C3B59D;}
	.st33{fill:#E7E2D2;}
	.st34{fill:#736C69;}
	.st35{fill:#6A615C;}
	.st36{fill:#78716E;}
	.st37{fill:#999999;}
	.st38{fill:#6E645D;}
	.st39{fill:#D9D9D9;}
	.st40{fill:#695E55;}
	.st41{fill:#686059;}
	.st42{fill:#6F655D;}
	.st43{fill:#6F665E;}
	.st44{fill:#382816;}
	.st45{fill:#675E55;}
	.st46{fill:#827155;}
	.st47{fill:#574A39;}
	.st48{fill:#625542;}
	.st49{fill:#6D6154;}
	.st50{fill:#C49D73;}
	.st51{fill:#CBCBCB;}
	.st52{fill:#ABABAB;}
	.st53{fill:#D9D8D8;}
	.st54{fill:#685B4C;}
	.st55{fill:#7A6E60;}
	.st56{fill:#564738;}
	.st57{fill:#6E6152;}
	.st58{fill:#90683C;}
	.st59{fill:#66492A;}
	.st60{fill:#675A4C;}
	.st61{fill:#74685A;}
	.st62{fill:#74685C;}
	.st63{fill:#EFEBE0;}
	.st64{fill:#6B5F51;}
	.st65{fill:#5F5244;}
	.st66{fill:#84715B;}
	.st67{fill:#8B8177;}
	.st68{fill:#615547;}
	.st69{fill:#896239;}
	.st70{fill:#392916;}
	.st71{fill:#665F57;}
	.st72{fill:#6C563F;}
</style>
<g>
	<path class="st1" d="M63.5,24.9c0,0.2-0.1,0.4-0.1,0.6c-0.3,0.1-0.5,0.1-0.7-0.2c-0.2-0.2-0.3-0.4-0.4-0.7
		c-0.3-1.4-0.1-2.8-0.2-4.2c-0.1-0.7,0.2-1.8-0.8-1.8c-1.2,0-0.9,1.1-1,1.9c-0.1,1.6-0.1,3.3,0,4.9c0.3,8.1,0.1,16.2,0.1,24.3
		c-0.3,2.4,0.5,4.8-0.4,7.1c-1.9,2.8-4.8,1.8-7.4,1.8c-1.5,0.2-3.1,0.1-4.6,0c-2,0.2-4,0.2-6,0c-2.4,0.2-4.7,0.2-7.1,0
		c-9.6,0.2-19.2,0.3-28.8-0.1c-0.9,0-1.8,0-2.5-0.8l-0.2,0L3,58c-2.3,0.9-2.6-0.7-2.8-2.2C-0.1,53.2,0,50.6,0.1,48
		c0.1-0.4,0.1-0.9,0.1-1.3c0-0.4,0-0.9,0-1.3c0-0.6,0-1.1,0-1.7c-0.2-4.9-0.4-9.8,0-14.7c0-0.7-0.1-1.4-0.2-2c0-0.8,0.2-1.6,0.2-2.4
		c-0.2-1.5,0-3-0.1-4.6c-0.1-1.3-0.1-2.5,0-3.8c0-0.6,0-1.1,0-1.7c0-0.6,0-1.1,0.3-1.7c0.3-0.7,0.9-1.1,1.5-1.4
		c1.3-0.3,2.6-0.3,3.9-0.3c0.7,0.1,1.4-0.2,2-0.4c0.7-0.1,1.3,0.5,2,0.4c0.4,0,0.7,0,1.1,0c1.2-0.1,2.3-0.1,3.5,0
		c0.8,0.1,1.7,0,2.4,0.5c0.6,2-1,2.6-2.2,3.5c-2.3,0.2-4.7,0.1-7,0.1c-3.2,0.1-3.3,0.1-3.3,3.2c0,2.3,0.1,4.7-0.2,7
		c-0.1,0.7-0.4,1.2-0.9,1.7c-0.8,0.7-0.4,1.5,0,2.2c0.4,0.8,1,1.5,1.1,2.5c0,0.3,0,0.5-0.1,0.8c0.2,6.3,0,12.6,0.1,18.9
		c0,2.7,0.2,2.8,3.1,2.9c1.9,0.1,3.8-0.3,5.6,0.6c1.1,0.9,2.3,1.1,3.7,1.1c8.1,0,16.2,0,24.3,0c1.4,0,2.6-0.2,3.7-1.1
		c2.6-1,5.3-0.5,7.9-0.6c3.2-0.1,3.3-0.1,3.3-3.4c0.1-6.6-0.1-13.3,0.1-19.9c-0.3-1.5,0.9-2.4,1.6-3.5c0.6-0.7,0.2-1.7,0.5-2.5
		c0-1.9-0.2-3.8,0-5.7c0.1-1.2,0.1-2.3,1.3-3c1.6-0.5,3.1-0.7,4.4,0.7c0.6,1,0.6,2,0.4,3.1c0,1.3,0.2,2.6-0.2,3.9
		C63.9,24.5,63.7,24.7,63.5,24.9z"/>
	<path class="st34" d="M3.5,58c10.5,0,21,0,31.5,0c0.1,1.8-1.1,3.1-1.9,4.6c-0.2,0.1-0.4,0.1-0.7,0c-7.3,0-14.6,0-22-0.1
		c-2.1-1.6-4.7-1.8-7-3C3.5,59,3.5,58.5,3.5,58z"/>
	<path class="st35" d="M3.5,59.5c2.8-0.1,5.4,0.2,7,3c-1.3,0-2.7,0.1-4,0.1C3.3,62.6,3.3,62.6,3.5,59.5z"/>
	<path class="st36" d="M63.5,26.5c0,0.8,0,1.7,0,2.5c0,0.3,0,0.7,0,1c0,2.7,0,5.3,0,8c0,0.3,0,0.7,0,1c0,1.3,0,2.7,0,4
		C63.3,43,63.1,43,63,43c-0.3-0.2-0.4-0.5-0.6-0.8c-0.7-5.1-0.3-10.1-0.2-15.2c0-0.7,0.3-1.3,0.9-1.7c0.1,0,0.3,0.1,0.4,0.1
		c0,0.2,0,0.3,0,0.5C63.5,26.1,63.5,26.3,63.5,26.5z"/>
	<path class="st5" d="M56.5,30.5c0.6,0.6,0.4,1.4,0.4,2.1c0,6.8-0.1,13.7,0,20.5c0,1.9-0.6,2.5-2.4,2.4c-3.2-0.1-6.3,0-9.5,0
		c-1.6-1.8-0.5-4-0.8-6c-0.2-2-2.1-2.6-3-4.1c0.1-1.2,1-1.9,1.7-2.6c3.2-3.2,6.5-6.4,9.6-9.7C53.9,32.3,54.5,30.3,56.5,30.5z"/>
	<path class="st5" d="M12.9,55.4c-2.6,0-5.2,0-7.7,0c-0.9,0-1.7-0.2-1.7-1.3c0.1-7.3-0.3-14.6,0.2-21.9c0-0.1,0.1-0.1,0.1-0.2
		c0.8,0,1.1,0.7,1.5,1.2c0.6,1.2,1.4,2.2,2.1,3.3c0.6,0.9,1.3,1.7,1.9,2.6c0.7,0.9,1.6,1.8,2.5,2.5c1.1,1.1,2.3,2,2.9,3.5
		c0.1,1.2-0.8,2.1-1,3.2c-0.2,1.5,0,3.1-0.1,4.6C13.7,53.9,13.8,54.8,12.9,55.4z"/>
	<path class="st37" d="M56.5,30.5c-1.2,1-2.3,2-3.5,3c-1,0.7-1.9,0.3-2.7-0.4c-2-2-3.9-4-5.5-6.4c2-3.5,5.1-5.9,8.1-8.5
		c0.4-0.1,0.7-0.1,1.1,0.1c0.4,0.3,0.7,0.7,0.9,1.1c0.3,0.8,0.7,1.5,1.1,2.2c0.9,2.2,2.8,3.9,2.5,6.6C57.8,28.9,57.1,29.7,56.5,30.5
		z"/>
	<path class="st38" d="M63,25.4c0,5.9,0,11.8,0,17.7c1.3,2.9,0.6,5.9,0.5,8.8c-0.7,1.3-1.5,0.6-2.3,0.2c-0.9-0.4-1.3-1.2-1.7-2.1
		c0-8.3,0-16.7,0-25c1.2-1,2.3-1.2,3.5,0C63,25.1,63,25.2,63,25.4z"/>
	<path class="st5" d="M3.6,25.9c0-3.3-0.1-6.6-0.1-9.9c0-0.7,0.1-1.5,1-1.4c3.4,0.2,6.9-0.7,10.3,0.5c0.3-0.2,0.4-0.1,0.4,0.2
		c-0.4,1.7-1.7,2.5-3,3.3c-2.3,1.3-3.8,3.5-5.7,5.2c-0.7,0.6-1.3,1.2-1.9,1.9C4.3,25.8,4,26,3.6,25.9z"/>
	<path class="st39" d="M3.6,25.9c0.1-0.1,0.2-0.2,0.3-0.3c0.9-0.7,1.7-1.5,2.5-2.2c0.6-0.2,1.1,0,1.6,0.3c1,0.7,1.9,1.7,2.8,2.6
		c0.5,0.5,0.9,1.1,0.9,1.9c-1.5,2.5-3,5-6.3,5.6c-1-0.7-1-1.9-1.8-2.7c-0.5-1.3-2.1-2.3-1.2-4C3.1,26.8,3.4,26.4,3.6,25.9z"/>
	<path class="st1" d="M59.5,13.5c0,1.2,0,2.3,0,3.5c-1.1,1.6-0.3,3.3-0.5,5c-0.2,1.3,0.4,2.8-0.4,4.1c-1.2-1-2-2.2-2.3-3.8
		c0-0.6,0-1.2,0-1.7c-0.2-4.9-0.2-4.9-5-5.3c-1.1-0.2-1.9-1-2.7-1.8c-0.2-0.4-0.4-0.7-0.1-1.1c3.1-0.6,6.3-0.1,9.4-0.2
		C58.8,12,59.4,12.5,59.5,13.5z"/>
	<path class="st40" d="M59.5,50c1.2,0.8,2.3,1.7,3.5,2.5c0.7,0.5,0.8,1.2,0.5,2c0,0.2,0,0.3,0,0.5c0.4,0.5,0.5,1,0,1.4
		c-0.7,1-0.5,2.1-0.4,3.1c0.3,2.4-0.7,3.4-3.1,3c-0.5-0.1-1,0-1.5-0.1c-0.3-1.9,0.1-3.8,1-5.5C59.5,54.6,59.5,52.3,59.5,50z"/>
	<path class="st41" d="M42,62.4c-3,0-6,0-9,0c0-1.8,1.1-3,2-4.4c2.3,0,4.7,0,7,0C42.8,59.5,42.6,60.9,42,62.4z"/>
	<path class="st42" d="M59.4,56.9c0.1,1.9,0.2,3.8-1,5.5c-2,0-4,0-6,0c-1.1-1.5-1.1-3,0-4.4C54.8,57.5,57.4,58.9,59.4,56.9z"/>
	<path class="st43" d="M42,62.4c-0.8-1.5-0.2-3,0-4.4c2,0,4,0,6,0c1.5,1.3,1.7,2.8,0.5,4.4C46.3,62.4,44.1,62.4,42,62.4z"/>
	<path class="st36" d="M63,25c-1.2-0.4-2.3,0.1-3.5,0c0-2,0-4-0.1-5.9c-0.1-1.4,0.6-1.7,1.8-1.7c1.2,0,1.9,0.3,1.8,1.7
		C63,21,63,23,63,25z"/>
	<path class="st44" d="M12.9,55.4c0.1-2.6,0.2-5.3,0.2-7.9c1.7,0.8,1.2,2.4,1.2,3.7c0.2,4.3,0.1,4.3,4.4,4.4c7,0,14,0,20.9,0
		c3.7,0,3.7,0,3.9-3.7c0.1-1.2-0.3-2.7,1.3-3.4c0.1,2.3,0.1,4.6,0.2,7c0,1.1-0.4,1.6-1.6,1.6c-9.7-0.1-19.3-0.1-29,0
		C13.2,57,12.9,56.5,12.9,55.4z"/>
	<path class="st45" d="M48.5,62.4c0-1.5,0-3-0.5-4.4c1.5,0,3,0,4.5,0c0,1.5,0,3,0,4.4C51.1,62.4,49.8,62.4,48.5,62.4z"/>
	<path class="st46" d="M17.1,12c1.1-0.5,1.5-2,3-2.1c-0.8,2.8-2.5,4.5-5.3,5.3l0-0.2C15.2,13.7,16.4,13.1,17.1,12z"/>
	<path class="st47" d="M56.6,22.4c0.7,1.2,1.3,2.4,2,3.5c-0.1,0.7,1.3,1.5-0.1,2.1c-0.6-2.4-2.3-4.3-3.2-6.6
		c0.2-0.2,0.4-0.2,0.6-0.2C56.4,21.5,56.6,21.9,56.6,22.4z"/>
	<path class="st48" d="M2.5,27c-0.4,1.6,1.1,2.6,1.4,4c0.2,0.3,0.2,0.5-0.1,0.7c-1-0.8-1.3-2-1.9-3C1.6,27.9,1.5,27.2,2.5,27z"/>
	<path class="st49" d="M3.9,31.6c0-0.2,0.1-0.5,0.1-0.7c0.5,0.8,1,1.7,1.6,2.5c-0.1,0.1-0.1,0.1-0.2,0.2c-0.2,0-0.3,0-0.4-0.2
		c-0.7-0.3-0.7-1-1.1-1.5C3.9,31.9,3.9,31.8,3.9,31.6z"/>
	<path class="st50" d="M14.7,15.2c2-1.5,3.8-3.3,5.3-5.3c1.5-1.4,3-2.7,4.4-4.1c1.6,1.4,3.2,2.8,4.3,4.7c0.2,1.4-0.7,2.1-1.5,3
		c-4.2,4.2-8.4,8.3-12.5,12.6c-1.5,1.5-2.8,2-4.4,0.4c-0.8-0.8-1.6-1.5-2.4-2.3c-0.7-0.7-1.1-1.4-0.2-2.3c1.5-1.3,2.6-2.9,4.3-4
		C13,17,13.9,16.1,14.7,15.2z"/>
	<path class="st51" d="M39.2,4.5c0.5,0.5,1,1,1.8,1c0.3,0.7,0.9,1.2,1.7,1.5c0.1,0,0.2,0,0.3,0c0.6,1.1,1.6,1.8,2.5,2.6
		c0.2,0.2,0.3,0.5,0.5,0.7c0.2,0.3,0.3,0.7,0.1,0.9c-2.2,2.7-4.3,5.5-7.1,7.8c-0.4,0.3-0.9,0.4-1.4,0.3c-3.2-2.6-6.4-5.1-8.4-8.8
		c1.3-3.3,3.8-5.7,6.3-8.1c0.4,0,0.8,0.1,1.1,0.1C37.1,3.7,38.3,4,39.2,4.5z"/>
	<path class="st52" d="M37.6,18.9c1.2,0,1.8-1.1,2.5-1.8c2-2.2,4-4.5,5.9-6.8c0.8,0.6,1.6,1.3,2.4,1.9c0.1,0.2,0.3,0.5,0.4,0.7
		c0.9,1.4,2.5,2,3.5,3.3c0.3,0.7,1.1,1.3,0.6,2.2c-2.4,2.8-5.1,5.4-7.9,7.9c-0.1,0-0.2,0-0.4,0c-2.7-2.1-5.5-3.9-7.4-6.9
		C37.3,19.3,37.4,19.1,37.6,18.9z"/>
	<path class="st53" d="M24.5,5.5C26.3,3.7,28.1,1.8,30,0c0.2,0,0.5,0,0.7,0c1.6,0.5,2.8,1.6,4.4,1.9c0.1,0.2,0.2,0.3,0.4,0.5
		c-0.5,2-2.3,3.1-3.5,4.7c-0.9,1.2-1.9,2.3-2.6,3.6c-0.4,0-0.8-0.2-1.2-0.2c-1-1.7-3.3-2.4-3.8-4.6C24.5,5.7,24.5,5.6,24.5,5.5z"/>
	<path class="st54" d="M35.1,2c-1.8,0.2-3.1-1-4.4-1.9C32.5-0.2,33.8,1.1,35.1,2z"/>
	<path class="st55" d="M45.5,9.6C44.3,9,43,8.6,43,7C43.8,7.8,45.1,8.3,45.5,9.6z"/>
	<path class="st56" d="M39.2,4.5c-1.3-0.1-2.5-0.3-2.7-1.9C37.5,3.2,38.4,3.8,39.2,4.5z"/>
	<path class="st57" d="M42.7,7c-1,0-1.8-0.2-1.7-1.5C41.6,6,42.2,6.5,42.7,7z"/>
	<path class="st58" d="M44.9,48.5c-0.8,2-0.3,4.1-0.4,6.1c0,1.4-0.5,1.9-1.9,1.9c-9.1,0-18.2-0.1-27.2,0c-1.6,0-1.9-0.6-2-2.1
		c-0.1-2.3,0.5-4.6-0.3-6.9c0.3-0.9,1.7-1.3,1.3-2.5c2.4-2.8,5.5-4.9,8.1-7.5c0.5-0.3,0.9-0.5,1.5-0.6c3-0.1,6-0.2,9,0
		c0.7,0.2,1.2,0.6,1.7,1c1.7,1.7,3.4,3.4,5.1,5.1c0.8,0.8,1.4,1.6,1.7,2.7C43.2,45.9,43.8,47.4,44.9,48.5z"/>
	<path class="st59" d="M41.5,45.7c-2.4-2.4-5-4.6-7.1-7.3c3-3.9,6.4-7.6,9.5-11.5c0.3-0.3,0.6-0.6,1.1-0.5c0,0,0.2,0,0.2,0
		c1.9,2,3.8,3.9,5.6,5.9c0.6,0.7,1.3,1.3,2.3,1.1c-3.3,3.3-6.5,6.6-9.8,9.9C42.5,44,41.8,44.7,41.5,45.7z"/>
	<path class="st51" d="M22.5,38c-2.1,2-4.1,4-6.2,6.1c-0.5,0.5-1.1,1-1.9,0.9c-1.3-0.6-1.9-1.9-2.9-2.9c-0.5-1-1.4-1.7-2.1-2.5
		c-0.6-0.9-1.3-1.8-2.1-2.6c-0.5-1.3-1.7-2.1-2-3.5l0.2,0.1c2.5-1.3,4.2-3.5,6-5.6c2.3,0.4,3.6,2.3,5.2,3.6c0.7,0.7,1.3,1.4,2.1,2.1
		c0.5,0.5,1,0.8,1.6,1.2C21.2,35.7,22.7,36.3,22.5,38z"/>
	<path class="st60" d="M5.3,33.4c0.8,1.2,1.6,2.3,2.4,3.5c-0.2,0.2-0.5,0.2-0.7,0c-0.8-1.1-1.8-2.1-2.1-3.5
		C5.1,33.5,5.2,33.5,5.3,33.4z"/>
	<path class="st61" d="M7,37c0.2,0,0.5,0,0.7,0c0.8,0.7,1.3,1.6,1.6,2.6l-0.1-0.1C8.1,39,7.7,37.9,7,37z"/>
	<path class="st62" d="M9.3,39.4c0,0,0.1,0.1,0.1,0.1c1.3,0.4,1.8,1.5,2.1,2.6C10.6,41.4,9.4,40.8,9.3,39.4z"/>
	<path class="st63" d="M56.6,22.4c-0.2-0.3-0.5-0.6-0.7-0.9c-0.6-0.5-1.1-1.1-1.3-1.8c-0.2-0.4-0.5-0.8-0.7-1.2
		c-1-0.5-1.5-1.5-2.1-2.4c-0.3-0.5-1.2-0.7-0.8-1.6c6.1,0,6.1,0,6,6.1C56.9,21.2,57.1,21.9,56.6,22.4z"/>
	<path class="st64" d="M52,16c0.6,0.8,1.3,1.6,1.9,2.4c-0.3,0-0.6,0.1-0.9,0.1c-0.3-0.6-0.7-1.2-1-1.8C51.8,16.5,51.8,16.2,52,16z"
		/>
	<path class="st65" d="M54.6,19.6c0.7,0.5,0.9,1.2,1.3,1.8c-0.2,0-0.4,0-0.5,0C54.7,21,54.2,20.5,54.6,19.6z"/>
	<path class="st66" d="M12.1,17.9c-1.2,1.2-2.3,2.5-3.6,3.7c-0.8,0.8-1.1,1.5-0.6,2.6c-0.5-0.2-1-0.5-1.4-0.7
		c-0.2,0.2-0.4,0.2-0.6,0C7.9,21.5,9.4,19,12.1,17.9z"/>
	<path class="st67" d="M5.9,23.5c0.2,0,0.4,0,0.6,0c-0.8,0.8-1.3,1.9-2.6,2.1C4.3,24.6,5.1,24,5.9,23.5z"/>
	<path class="st58" d="M19.7,35c-0.4-0.3-0.8-0.7-1.2-1c-0.5-0.9-1.2-1.6-2.2-2c-1.6-1.4-3.2-2.7-4.8-4.1c-0.4-0.5-0.8-0.9-1.2-1.4
		c1.6,0.9,2.7,0.4,3.9-0.9c4.2-4.4,8.5-8.6,12.8-12.9c0.6-0.6,1.6-1.1,1.2-2.2c0.5-0.4,0.8,0.1,1.2,0.2c2.7,2.8,5.4,5.5,8.1,8.3
		c0,0.1,0,0.2,0,0.3c0.4,1.3-0.5,2-1.2,2.8c-3.8,4.4-7.7,8.8-11.5,13.3c-1.3,1.5-2.6,2.1-4,0.2C20.5,35.2,20.1,35.1,19.7,35z"/>
	<path class="st68" d="M52,16c0,0.3,0,0.5,0,0.8c-1.1-1.2-2.4-2.2-3.1-3.8c1.1,0,1.3,1.3,2.2,1.5C51.3,15,51.6,15.5,52,16z"/>
	<path class="st69" d="M19.7,35c3.3,2.4,4.6-0.3,6.4-2.4c3.8-4.5,7.9-8.6,11.4-13.4c2.4,2.5,5.2,4.5,7.4,7.2c-2.6,4-6.1,7.4-9,11.3
		c-0.4,0.5-0.9,0.7-1.5,0.7c-0.3-0.3-0.6-0.6-0.9-1c-3.3-0.4-6.7-0.4-10,0c-0.2,0.4-0.6,0.5-1,0.5C21.6,37,20.6,36,19.7,35z"/>
	<path class="st52" d="M31,42.5c3.1,2.2,3.8,5.1,1.7,7.3c-2,2.1-4.9,2.1-6.9,0c-1.8-1.9-1.5-4.7,0.7-6.6c0.3-0.3,0.7-0.5,1-0.7
		C28.6,42.1,29.8,42,31,42.5z"/>
	<path class="st70" d="M23.5,37.5c3.3-0.8,6.7-0.8,10,0C30.1,37.5,26.8,37.5,23.5,37.5z"/>
	<path class="st71" d="M31,42.5c-1.2,0-2.4,0-3.5,0C28.6,41.7,29.8,41.6,31,42.5z"/>
	<path class="st72" d="M16.3,32c1.2,0.2,2.2,0.5,2.2,2C17.8,33.3,17,32.7,16.3,32z"/>
</g>
</svg>
