<svg viewBox="0 0 186.1 174.15" xmlns="http://www.w3.org/2000/svg" xmlns:xlink="http://www.w3.org/1999/xlink"><g transform="translate(-158.85 -113.15)"><use transform="translate(175.35 115.2)" width="169.6" height="172.1" xlink:href="#a"/><use transform="translate(253.55 113.15)" width="46" height="46" xlink:href="#b"/><use transform="translate(158.85 138.1)" width="46" height="46" xlink:href="#b"/></g><defs><g id="a"><path d="m335.5 230.5 8.4-1.8-26.5 44-6.05 2.55 24.15-44.75M219.6 129.8l4.5 8.8-6.4 3.9-12.85 7.85q5.4-12.95 14.75-20.55m27.4 18.55 14.75-8.1 14.8-8.1-20.45 19.7-3.4 8.95-8.6-7.3L235 165l-8.15 30.85-2.65-1.65 7.85-29.5 9.5-13.4 5.45-2.95m-69.55 12.4 2.1-5.1 7 5.8-7.85 4.8-1.25-5.5m4.35-10.45 8.75-21.2 14.75-9.5q-3.65 18.8-23.5 30.7m-6.05 17.7 2.95-1.75 7.15 31.65-1.55 3.9-2.4-.6-6.15-33.2m81.5-3.3q7.85-.85 13.65-7.4l-5.6 14.3-8.05-6.9m24.95 118.75 1.4 3.2-32.25-13.75-12.75-13.1-12.8-13.1-5.4-14.4 9.85 2.95h.05l32.65 9.7-28.85-5.1q18.7 22.1 37.8 38.05l10.3 5.55m16.85-3.05L314.8 258l-8 19.15-7.75 3.25" fill="#dfdce7" fill-rule="evenodd" transform="translate(-175.35 -115.2)"/><path d="M226.85 195.85 235 165l9.1-11.5 8.6 7.3q-5.25 22.5-22.2 37.2l-3.65-2.15m30.4-31.15 8.05 6.9V211q-12.9-2.85-24.25-7.75 5.35-19.75 16.2-38.55m-50.2 80.7-3.85-1.75-11.4-23.4-6.95-5.7 26.45 1.4 3.25.15-15.8 4.8 8.3 24.5m13.35-13.1.7-7.4 4.75-16.7 35.25 6.7q-1.1 16.2-30.8 20.35h-.05l-9.85-2.95" fill="#cac5d8" fill-rule="evenodd" transform="translate(-175.35 -115.2)"/><path d="m339.7 193.35-6.4 1.35-3.8-32.2-19.85 1.1-31.35 5.65q14.9-11.85 38.7-19.75l17.95 9.45v.1l4.75 34.3m-68.8-36.05 10.4-26.5 13.95 7.3q-8.05 13.8-23.6 18.95l-.75.25" fill="#c5bed3" fill-rule="evenodd" transform="translate(-175.35 -115.2)"/><path d="m262.95 244.95 2.3.7 16.95 37.8-10.3-5.55q-19.1-15.95-37.8-38.05l28.85 5.1m-50.45 2.95-5.45-2.5-8.3-24.5 7.9-2.4 3.5 10.6 7.6 13.95-5.25 4.85" fill="#aca3c0" fill-rule="evenodd" transform="translate(-175.35 -115.2)"/><path d="m278.3 169.25 31.35-5.65 19.85-1.1 3.8 32.2-60.6 12.55q-4.7-18.5 5.6-38m-5.6 42.6 62.8-6.2v24.85l-70.25 15.15V235.3q-.75-6.2 0-10.9.7-4.3 2.85-7.6l1.1-1.6q1.5-1.85 3.5-3.35m-67.85-61.5 12.85-7.85 7.65 9.4-11.4 37.95-1.25 5.7v5.7l-5.4 6-15.15-3.6q-1.2-27.95 12.7-53.3m-26.15 15.9 7.85-4.8q5.5 19.2-.7 36.45l-7.15-31.65" fill="#a49aba" fill-rule="evenodd" transform="translate(-175.35 -115.2)"/><path d="m333.3 194.7 6.4-1.35-6.35 5.55-24.6 4.4-30.1 5.35-8.4 1.5q-.45-2.3 2.45-2.9l60.6-12.55m-68.05 50.95 70.25-15.15-24.15 44.75-4.55 1.9 8-19.15-15.75 22.4-15.1 6.4-.35-.15-1.4-3.2-16.95-37.8M217.7 142.5l6.4-3.9 22.9 9.75-5.45 2.95-9.5 13.4-7.85 29.5-.4 1.5 4 7.2 4.05.85 29.3 9.5-.05 1.65-35.25-6.7-4.75 16.7-.7 7.4 5.4 14.4 12.8 13.1-26.1-11.9 5.25-4.85-7.6-13.95-3.5-10.6 7.9-2.4-3.25-.15 2.3-4.5 1.25-2.4-7.55-1.8 5.4-6v-5.7l1.25-5.7 11.4-37.95-7.65-9.4" fill="#756796" fill-rule="evenodd" transform="translate(-175.35 -115.2)"/><path d="M219.6 129.8q-9.35 7.6-14.75 20.55l-18.3 11.1-7-5.8 2.25-5.35q19.85-11.9 23.5-30.7l6.75-4.4 7.55 14.6M175.75 168l-.4-2.2 2.1-5.05 1.25 5.5-2.95 1.75m76.95-7.2 3.4-8.95 20.45-19.7 3.6-1.95 1.15.6-10.4 26.5q-5.8 6.55-13.65 7.4l-4.55-3.9" fill="#fff" fill-rule="evenodd" transform="translate(-175.35 -115.2)"/><path d="m184.3 201.8 1.55-3.9q6.2-17.25.7-36.45l18.3-11.1q-13.9 25.35-12.7 53.3l-7.85-1.85m46.2-3.8q16.95-14.7 22.2-37.2l4.55 3.9q-10.85 18.8-16.2 38.55-5.45-2.4-10.55-5.25m-45.65 16.55 3.8-9.5 24.95 6.4-2.3 4.5-26.45-1.4" fill="#efedf3" fill-rule="evenodd" transform="translate(-175.35 -115.2)"/><path d="M317 149.5q-23.8 7.9-38.7 19.75l-13 2.35 5.6-14.3.75-.25q15.55-5.15 23.6-18.95L317 149.5m-38.35 59.15 30.1-5.35 24.6-4.4 7.7 4 3.4 24.85-.55.95-8.4 1.8v-24.85l-62.8 6.2q2.55-1.9 5.95-3.2M224.1 138.6l-4.5-8.8-7.55-14.6 49.7 25.05-14.75 8.1-22.9-9.75" fill="#cfcadb" fill-rule="evenodd" transform="translate(-175.35 -115.2)"/><path d="M272.7 207.25q-2.9.6-2.45 2.9l-4.95.85v-39.4l13-2.35q-10.3 19.5-5.6 38" fill="#b0a8c4" fill-rule="evenodd" transform="translate(-175.35 -115.2)"/><path d="m270.25 210.15 8.4-1.5q-3.4 1.3-5.95 3.2-2 1.5-3.5 3.35l-1.1 1.6q-2.15 3.3-2.85 7.6-.75 4.7 0 10.9v10.35l-2.3-.7-32.65-9.7q29.7-4.15 30.8-20.35l.05-1.65-29.3-9.5-4.05-.85-4-7.2.4-1.5 2.65 1.65 3.65 2.15q5.1 2.85 10.55 5.25 11.35 4.9 24.25 7.75l4.95-.85m-88.35-8.95 2.4.6 7.85 1.85 15.15 3.6 7.55 1.8-1.25 2.4-24.95-6.4-6.75-3.85" fill="#9287ad" fill-rule="evenodd" transform="translate(-175.35 -115.2)"/><path d="m339.7 193.35-4.75-34.3v-.1L317 149.5m-8.25 53.8 24.6-4.4 6.35-5.55m4.2 35.35.55-.95-3.4-24.85-7.7-4m-56.8-66.75-14.8 8.1m19.55-9.45-1.15-.6-3.6 1.95m18.7 5.95L317 149.5m-35.7-18.7 13.95 7.3M283.6 286.65l.35.15 15.1-6.4m7.75-3.25 4.55-1.9m-4.55 1.9-7.75 3.25m44.85-51.7-26.5 44-6.05 2.55m-27.75 11.4-32.25-13.75-12.75-13.1" fill="none" stroke="#000" stroke-linecap="round" stroke-linejoin="round" stroke-opacity=".4" transform="translate(-175.35 -115.2)"/><path d="M86.4 25.05 36.7 0m-6.75 4.4L36.7 0M.4 52.8 0 50.6l2.1-5.05 2.1-5.1 2.25-5.35 8.75-21.2 14.75-9.5M.4 52.8 6.55 86m56.7 58.6-26.1-11.9-5.45-2.5-3.85-1.75-11.4-23.4-6.95-5.7 3.8-9.5L6.55 86" fill="none" stroke="#000" stroke-linecap="round" stroke-linejoin="round" stroke-opacity=".4" stroke-width=".05"/></g><g id="c" fill="#fff" fill-rule="evenodd"><path d="M15.9.25q0-6.45-4.6-11.05-4.55-4.55-11-4.55-6.5 0-11.1 4.55-4.55 4.6-4.5 11.05-.05 6.45 4.5 11.05 4.6 4.55 11.1 4.55 6.45 0 11-4.55Q15.9 6.7 15.9.25m.35-16.55Q23-9.55 23 0t-6.75 16.25Q9.5 23 0 23q-9.55 0-16.3-6.75Q-23 9.55-23 0t6.7-16.3Q-9.55-23 0-23q9.5 0 16.25 6.7" fill-opacity=".11" transform="translate(23 23)"/><path d="M5.95-7.5q-2.8-2.8-6.7-2.8-3.95 0-6.75 2.8-2.75 2.75-2.75 6.7t2.75 6.7q2.8 2.8 6.75 2.8 3.9 0 6.7-2.8Q8.7 3.15 8.7-.8T5.95-7.5M15.9.25q0 6.45-4.6 11.05-4.55 4.55-11 4.55-6.5 0-11.1-4.55-4.55-4.6-4.5-11.05-.05-6.45 4.5-11.05 4.6-4.55 11.1-4.55 6.45 0 11 4.55Q15.9-6.2 15.9.25" fill-opacity=".302" transform="translate(23 23)"/><path d="M2.8-3.25Q4.2-1.8 4.2.25q0 2-1.4 3.45Q1.35 5.1-.65 5.1q-2.05 0-3.5-1.4-1.4-1.45-1.4-3.45 0-2.05 1.4-3.5 1.45-1.4 3.5-1.4 2 0 3.45 1.4M1.1-.4q0-.9-.6-1.5-.65-.6-1.55-.6t-1.5.6-.6 1.5.6 1.5 1.5.65Q-.15 1.7.5 1.1q.6-.6.6-1.5" fill-opacity=".8" transform="translate(23 23)"/><path d="M2.8-3.25q-1.45-1.4-3.45-1.4-2.05 0-3.5 1.4-1.4 1.45-1.4 3.5 0 2 1.4 3.45 1.45 1.4 3.5 1.4 2 0 3.45-1.4Q4.2 2.25 4.2.25q0-2.05-1.4-3.5M5.95-7.5Q8.7-4.75 8.7-.8T5.95 5.9q-2.8 2.8-6.7 2.8-3.95 0-6.75-2.8-2.75-2.75-2.75-6.7t2.75-6.7q2.8-2.8 6.75-2.8 3.9 0 6.7 2.8" fill-opacity=".498" transform="translate(23 23)"/><path d="M1.1-.4q0 .9-.6 1.5-.65.6-1.55.65-.9-.05-1.5-.65t-.6-1.5.6-1.5 1.5-.6 1.55.6q.6.6.6 1.5" transform="translate(23 23)"/></g><use width="46" height="46" xlink:href="#c" id="b"/></defs></svg>