<svg width="101" height="113" viewBox="68.459 128.7 101.36 112.73" xmlns="http://www.w3.org/2000/svg" xmlns:xlink="http://www.w3.org/1999/xlink"><defs><use xlink:href="#a" id="g"/><use xlink:href="#b" id="h"/><use xlink:href="#c" id="i"/><use xlink:href="#d" id="j"/><use xlink:href="#e" id="k"/><g id="a"><path d="m8.4-11.75-.35.1.4-2.35-.05 2.25" fill="#fff0d9"/><path d="m8.45-14-.4 2.35Q5.65 2.3 1.85 7.45q-4.15 3.5-10.05 5.3-.9-14.05 1.45-24.9 3.5-16.1 8.75-14.6 6.3.8 6.45 12.75" fill="#fff"/><path d="m8.05-11.65.35-.1Q7.5-2.3 5.95 6.75q-1.7 9.75-3.7 17.95-3.85-.1-8.85 2.15-1.2-7.4-1.6-14.1 5.9-1.8 10.05-5.3 3.8-5.15 6.2-19.1" fill="#fbe9a8"/><path d="M8.4-11.75 8.45-14M-8.2 12.75q.4 6.7 1.6 14.1 5-2.25 8.85-2.15 2-8.2 3.7-17.95Q7.5-2.3 8.4-11.75m-16.6 24.5q-.9-14.05 1.45-24.9 3.5-16.1 8.75-14.6 6.3.8 6.45 12.75" fill="none" stroke="#000" stroke-opacity=".4" stroke-width=".5"/></g><g id="b"><path d="M.85 2.55.8 7.1q.45.65 1.2 3l.1.2-.5 1.35-.15-.2q-.2-.05-1.25.7l-.15.1.05-.3.05-.55.25-1.3.4-3-.4 3-.25 1.3-.05.55-.05.3-.2.15.25-.45-.25.45-1.2 1.5-.7-3.5Q0 4.05.85 2.55" fill="#444b01"/><path d="m.85 2.55-.05-.3L.35 0 .8 2.25l.05.3Q0 4.05-2.05 10.4-3.1 5-2.85 3.55q.3-1.9 1-3l.1-.15L.35 0 1.9-.3q1.5 3.3.85 7.55L2.1 10.3l-.1-.2q-.75-2.35-1.2-3l.05-4.55" fill="#353a01"/><path d="m.05 12.25.15-.1q1.05-.75 1.25-.7l.15.2-.15.35-.85 1.55-1.2 1.55.65-2.85-.65 2.85-.25.25H-1l-.2-.8-.15-.65 1.2-1.5-1.05 2.15 1.05-2.15.2-.15" fill="#6f7d01"/><path d="m2.1 10.3.65-3.05Q3.4 3 1.9-.3L.35 0l-2.1.4-.1.15q-.7 1.1-1 3-.25 1.45.8 6.85m3.65 1.25.5-1.35m-2.7 4.8 1.2-1.55.85-1.55.15-.35M-.6 15.1l-.25.25H-1l-.2-.8-.15-.65-.7-3.5" fill="none" stroke="#000" stroke-opacity=".4" stroke-width=".5"/><path d="M.35 0 .8 2.25l.05.3L.8 7.1q.45.65 1.2 3l.1.2m-4.15.1Q0 4.05.85 2.55M.8 7.1l-.4 3-.25 1.3-.05.55-.05.3-.65 2.85m.7-3.15-.25.45m-1.05 2.15 1.05-2.15" fill="none" stroke="#000" stroke-opacity=".2" stroke-width=".5"/></g><g id="c"><path d="M-6 13.35v-.05h.05l-.05.05" fill="#3d4301"/><path d="M-6 13.3q-.9-1.1-1.05-3L-7.1 8l.3-1.7q.35-1.45 1.25-2.9 1.15-2 3.65-3.7l1.2.1 1.05.1q-.05 4-.35 5Q-.3 6-1.1 7.35L-2.45 9.2l-1.2.95-1.8 1.9q-.5.7-.5 1.25H-6m.25-4.4-.25.8-.2 1.15.25 2.45-.25-2.45.2-1.15.25-.8q.65-1.9 2.3-4.7Q-5.1 7-5.75 8.9l.05.75.25 2.4-.25-2.4-.05-.75M-6.8 6.3q1.7-1.35 3.35-2.1-1.65.75-3.35 2.1m3.35-2.1L-2 1.9l.9 5.45L-2 1.9l-1.45 2.3M-2 1.9-.7-.2-2 1.9" fill="#2e3201"/><path d="M-6 13.3q-.9-1.1-1.05-3L-7.1 8l.3-1.7q.35-1.45 1.25-2.9 1.15-2 3.65-3.7l1.2.1 1.05.1q-.05 4-.35 5Q-.3 6-1.1 7.35L-2.45 9.2l-1.2.95-1.8 1.9q-.5.7-.5 1.25m.05.1-.1-.05v-.05" fill="none" stroke="#000" stroke-opacity=".4" stroke-width=".5"/><path d="m-5.95 13.3.05.1m-.05-.1-.25-2.45.2-1.15.25-.8q.65-1.9 2.3-4.7-1.65.75-3.35 2.1m5.7 1.05L-2 1.9l-1.45 2.3m-2.3 4.7.05.75.25 2.4M-.7-.2-2 1.9" fill="none" stroke="#000" stroke-opacity=".2" stroke-width=".5"/></g><g id="d"><path d="M18.65-24.4v-.05.05" fill="#c57321"/><path d="M18.65-24.45v.05l1.45 2q-.9 10.3-4.25 19.8l-2-2.5-.25-.35.25.35Q8.35 9.8-1.75 20.45l-.6-.9Q8 8.9 13.6-5.45l-3.5-4.3-.4-.45-.15.45Q7.3-11.3 3.15-9.8q3.6-6.8 3.9-14.4 3.3-2.1 5.95-2.35 3.3-.35 5.65 2.1M9.7-10.2q2.8-7.85 3.3-16.35-.5 8.5-3.3 16.35M-8.85 12.95Q1.75 7.5 9.05-8.5 4.5 7.5-5.6 15.5l-6.4 5.05 3.15-7.6" fill="#633314"/><path d="m9.7-10.2.4.45h-.55l.15-.45m-29.15 21.5q5.8-1.3 10.6 1.65l-3.15 7.6 6.4-5.05q1.65 1.7 3.25 4.05l.6.9 2 3.4-1.55 1.25q-3.65 2.9-11.2.3-9.9-5.1-6.95-14.1" fill="#9f5c1a"/><path d="m13.85-5.1 2 2.5-.1.2Q10.7 11.65.25 23.85l-2-3.4Q8.35 9.8 13.85-5.1M3.15-9.8q4.15-1.5 6.4.05l-.5 1.25q-7.3 16-17.9 21.45-4.8-2.95-10.6-1.65Q-3.15 2 3.15-9.8" fill="#e49c3a"/><path d="m10.1-9.75 3.5 4.3Q8 8.9-2.35 19.55q-1.6-2.35-3.25-4.05 10.1-8 14.65-24l.5-1.25h.55" fill="#ca801c"/><path d="M18.65-24.45Q16.3-26.9 13-26.55q-2.65.25-5.95 2.35-.3 7.6-3.9 14.4-6.3 11.8-22.6 21.1 5.8-1.3 10.6 1.65Q1.75 7.5 9.05-8.5m6.8 5.9q3.35-9.5 4.25-19.8l-1.45-2v-.05M.25 23.85Q10.7 11.65 15.75-2.4m-35.2 13.7q-2.95 9 6.95 14.1 7.55 2.6 11.2-.3l1.55-1.25-2-3.4-.6-.9q-1.6-2.35-3.25-4.05l-6.4 5.05 3.15-7.6m3.25 2.55q10.1-8 14.65-24" fill="none" stroke="#000" stroke-opacity=".4" stroke-width=".5"/><path d="M18.65-24.4v-.05M13-26.55q-.5 8.5-3.3 16.35m-.15.45.15-.45m-.65 1.7.5-1.25M9.7-10.2l.4.45m3.5 4.3.25.35m-4.3-4.65h.55m5.65 7.35.1-.2" fill="none" stroke="#000" stroke-opacity=".4" stroke-width=".5"/></g><g id="e"><path d="m-.4.15 1.05.1-.5 5.05Q-.2 6.4-1.1 7.65l-.7-5.5 1.4-2m-6.1 9.9.45-.15.25-.8v.7l-.25.1-.25 1.1.05.6-.2.4-.1-1.15.05-.8" fill="#3d4301"/><path d="M-6.55 5.85-5.4 3.6q1.2-2 3.8-3.6l1.2.15-1.4 2-1.5 2.3q-1.2.5-2.5 1.3l.2-.7-.05-.15-.9.95" fill="#353a01"/><path d="m-1.1 7.65-.45.7-.05-1.45q-1 .45-1.5 2.15-.35-.1-.5-1.9l-1 2.7-.4 1.7-.25.3-.1-1.6-.35.5-.1-.95.1.95-.55.85-.05-.6.25-1.1.25-.1v-.7l-.25.8-.45.15.1-1.5.6-2.8q1.3-.8 2.5-1.3l1.5-2.3.7 5.5m-2.2-3.2Q-5.05 7.2-5.8 9.1q.75-1.9 2.5-4.65" fill="#444b01"/><path d="m-1.55 8.35-.95 1.1-1.2.95-1.3 1.15.4-1.7 1-2.7q.15 1.8.5 1.9.5-1.7 1.5-2.15l.05 1.45m-3.7 3.5-.3.35q-.55.7-.55 1.25l-.15-1.85.55-.85.35-.5.1 1.6m-.3.35-.15-1.45.15 1.45" fill="#725816"/><path d="M-6.15 13.5q-.9-1.15-1-3.05l.05-2.3.35-1.7.2-.6.9-.95.05.15-.2.7-.6 2.8-.1 1.5-.05.8.1 1.15.2-.4.15 1.85-.05.05m-.6-7.05.95-.7-.95.7" fill="#5c4512"/><path d="M-6.55 5.85-5.4 3.6q1.2-2 3.8-3.6l1.2.15 1.05.1-.5 5.05Q-.2 6.4-1.1 7.65l-.45.7-.95 1.1-1.2.95-1.3 1.15-.25.3-.3.35q-.55.7-.55 1.25m0 .1-.05-.05q-.9-1.15-1-3.05l.05-2.3.35-1.7.2-.6" fill="none" stroke="#000" stroke-opacity=".4" stroke-width=".5"/><path d="M.25-.8.2-.65.25-.7v-.1M-6.1 13.45v.1m.3-7.8q1.3-.8 2.5-1.3l1.5-2.3 1.4-2M-6.05 9.9l.25-.8q.75-1.9 2.5-4.65m-2.5 1.3-.95.7m.95 3.35.1.95.15 1.45m-.7-.6-.05-.6.25-1.1m.25-.1v-.7m-.45 2.5.15 1.85m4.3-11.3.7 5.5" fill="none" stroke="#000" stroke-opacity=".2" stroke-width=".5"/></g><filter id="f"><feColorMatrix in="SourceGraphic" result="cxform" values="0.69921875 0.0 0.0 0.0 0.0 0.0 0.69921875 0.0 0.0 0.0 0.0 0.0 0.69921875 0.0 0.0 0.0 0.0 0.0 1.0 0.0"/><feComposite in2="SourceGraphic" operator="in" result="color-xform"/></filter></defs><use transform="matrix(1.0219 -.0828 .38628 .52385 115.85 194.4)" filter="url(#f)" xlink:href="#g"/><use transform="matrix(.80313 -.51213 .58624 .52364 105 196.9)" xlink:href="#g"/><use transform="matrix(1.1084 -.30904 .26701 .59772 127.45 190)" xlink:href="#g"/><use transform="matrix(-2.9843 -2.9843 2.0414 -2.0414 135.5 227.7)" xlink:href="#h"/><use transform="matrix(0 4.2205 -4.2205 -.6299 139 235.25)" xlink:href="#i"/><use transform="matrix(1.5052 1.5284 1.2482 -1.0771 129.3 184.8)" xlink:href="#j"/><use transform="matrix(2.5055 3.3938 -4.1814 1.4387 140.4 232.9)" xlink:href="#k"/></svg>