<svg viewBox="0 0 46.993 43.621" xmlns="http://www.w3.org/2000/svg" xmlns:xlink="http://www.w3.org/1999/xlink"><use transform="translate(.02)" width="46.95" height="43.6" xlink:href="#a"/><defs><g id="a"><path d="m42.65 7.25-.35.7.7.8-1-.05-.45 1.45-.4-1.8-1.65-.5.6-.2.75-.05-.1-.45-.15-.6-.1-.2 1.05.9.7-.35.7-.3.1-.05-.4.7m-2.8-2-.05.05.6 1.4-1.45-1.15-1.6.7q0-.2.35-.5l.55-.55-.4-.3-.15-.1-.35-.25-.2-.1h1.4l.65-1.35.05-.1.3 1.55 1.05.15-.75.55M36 3.7l-.25.2 1 1.85-2.1-1.4-2.15 1.1.45-.7.7-.8-.6-.35-.25-.15-.5-.25-.25-.15 1.9-.15.75-1.95.05-.1v.1l.6 1.95 1.45.1-.8.7m-4.85-.05.65-.05-1.05 1.3 1.5 2.1-2.75-1.35-2.3 1.75q0-.3.35-1l.7-1.1-.75-.3-.3-.15-.25-.1-.4-.15-.35-.1 2.25-.5.5-2.55V1.3l1.15 2.45 1.05-.1" fill="#ecdd8a" fill-rule="evenodd"/><path d="M45.7 12.2v.05-.05" fill="#735517" fill-rule="evenodd"/><path d="m45.7 12.25-.05-.25.05.2v.05" fill="#455465" fill-rule="evenodd"/><path d="m22.4 15.45-.1-.1.1.05v.05" fill="#81601b" fill-rule="evenodd"/><path d="m22.3 15.35.25-.1-.15.15-.1-.05m3.8 23.25-.15-.35-.05-.7.2 1.05" fill="#5e7188" fill-rule="evenodd"/><path d="m22.5 15.2.05.05h-.1l.05-.05" fill="#e8d082" fill-rule="evenodd"/><path d="m11.65.05 3.5 3-2.9 3.45q.6 1.15 2.05 1.6-2.35.55-2.9-1.3 1.65-1.65 2.7-3.65Q13 1.5 11.45 0l.2.05" fill="#c9d9cf" fill-opacity=".663" fill-rule="evenodd"/><path d="m5 3.5-.05-.1 5.15.8Q5.95 6.3 3.45 9.45 5.9 13 10.4 14.1 7.25 17 3 16.65l1.15-1.95Q5 12.8.4 9.65q3.95-1.7 6.75-4.7-.55-1-2.25-1.45H5" fill="#c8d8ce" fill-rule="evenodd"/><path d="m42.65 7.25.45.45.45.5 2.1 3.5v.3l.05.25.1 2.85q-.15 2.5-3.3 8.8l-.75 1.35-3.3 5q.7-3.3-.75-7.85l-.05-.15q.95-1.5.75-4.3-.2-3.45-2.25-5.95-2.7-2.05-6.3-.5-.2-1.2-1.25-2.25-.55-.55-1.25-1.05l.4-.65-.4.65q-5.25 1.1-4.2 6.3l-.65.7-.05.05-.15.1.1.1q-2.45 3.2-9.5 6.3l2.25 1.2q-1.2-.5-3.05.25-1.5 1-1.7 2.75v.65Q5.2 27.45.05 22q-.25-1.45.95-2.55l.25-.3L7.1 20.7l.8-1.3.2.1.15-.3 1.9-.3q6.2-7.45 12.65-12.3l.35-.25q1.95-.95 3.8-1.6l.25.1.3.15.75.3-.7 1.1q-.35.7-.35 1l2.3-1.75L32.25 7l-1.5-2.1 1.05-1.3-.65.05 1.65-.2.25.15.6.35-.7.8-.45.7 2.15-1.1 2.1 1.4-1-1.85.25-.2 2.2.75h-1.05l.2.1.35.25.15.1.4.3-.55.55q-.35.3-.35.5l1.6-.7L40.4 6.7l-.6-1.4.05-.05q1.35.75 2.4 1.65l-.7.35-1.05-.9.1.2.15.6.1.45-.75.05-.6.2 1.65.5.4 1.8L42 8.7l1 .05-.7-.8.35-.7m-31.1 13.8 1.35.7-1.35-.7m9.2-6.7Q21 16.1 22 15.55l.3-.2-.3.2q-1 .55-1.25-1.2m17.7 1.4q1.3 1.05 2.55.65l-2.55-.65m3.2-3.95-3.1 2.55q2.8-.7 3.1-2.55m.3 2.7-3.3.6q2.25.55 3.3-.6" fill="#427782" fill-rule="evenodd"/><path d="m45.65 11.7-2.1-3.5-.45-.5-.45-.45.4-.7-.1.05-.7.3q-1.05-.9-2.4-1.65l.75-.55-1.05-.15-.3-1.55-.05.1-.65 1.35h-.35L36 3.7l.8-.7-1.45-.1-.6-1.95q3.05.6 5.65 2.55 2.45 1.9 3.8 4.3 1.3 2.35 1.45 3.9M32.8 3.45l-1.65.2-1.05.1-1.15-2.45v.15L28.45 4l-2.25.5.35.1.4.15q-1.85.65-3.8 1.6l-.35.25q-6.45 4.85-12.65 12.3l-1.9.3Q14 10.8 21.85 3.15q5.45-3.3 11.8-2.4l1.05.2-.75 1.95-1.9.15.25.15.5.25M7.9 19.4l-.8 1.3-5.85-1.55q1.2-1.3 2.9-.8L7.9 19.4" fill="#599caa" fill-rule="evenodd"/><path d="M.05 22q5.15 5.45 10.35 4.6v-.65q.2-1.75 1.7-2.75 1.85-.75 3.05-.25h.05l.7.4.2.1.15.1q.8.75.55 2.35-.35 1.8-1.8 2.7-2.15 1.15-3.05.7l-.2.05q-3.3.45-6.35-1.2Q2.95 26.8.45 23.2L.05 22m45.65-9.75q1.2 5 1.25 8.3 0 3.35-.9 9.9l-1.8-1.8q.55-.3 1.05-.55 0-1.75-.8-2.95-.85-1.25-2-1.25 3.15-6.3 3.3-8.8l-.1-2.85m-8.95 19.6-1.6 1.65-3.45 3.25q-1.6 1.7-2.45 3.9l-.3-.05q-2.3-1.1-2.85-2l-.2-1.05q.2-1.2 1.7-3.3 2.4-3.4 5.5-6.15 2.25 1.05 3.65 3.75M24.85 28l-4.55-.1q5.65-4.5 6.65-4.25l.2.15-.25.5-1.35 2.45-.7 1.25m2.5-19.8q.7.5 1.25 1.05 1.05 1.05 1.25 2.25l-.15 1.6q-2 3.2-7.15 2.15l-.05-.05.65-.7q-1.05-5.2 4.2-6.3m-15.4 21.1q-1.4-.7-1.55-2.7.15 2 1.55 2.7M41 16.4q-1.25.4-2.55-.65l2.55.65m-2.45-2.05 3.1-2.55q-.3 1.85-3.1 2.55m.1.75 3.3-.6q-1.05 1.15-3.3.6" fill="#37636c" fill-rule="evenodd"/><path d="m15.15 22.95-2.25-1.2q7.05-3.1 9.5-6.3v-.05l.15-.15q5.15 1.05 7.15-2.15l.15-1.6q3.6-1.55 6.3.5 2.05 2.5 2.25 5.95.2 2.8-.75 4.3l.05.15q1.45 4.55.75 7.85l-.65 3.95-1.05-2.35q-1.4-2.7-3.65-3.75-3.1 2.75-5.5 6.15-1.5 2.1-1.7 3.3l.05.7.15.35q-.45 3 .8 4.75l-2.8-.45q-3.1-1-4.25-1.85-.35-1.8.45-3.45l.25-.55.2-.3.35-.6.6-1 1.8-2.7 1.35-1.9 1.45-1.75.1-.15.2-.5q.6-1.7.3-3.85l.25-.5q1.2-2.45 1-3.15l.8-.35L28 19l-8.55 3.2-3.35 1.25-.2-.1-.7-.4h-.05M35.9 14.7l-.15 1.75-1.35-1.5-.05 2.3-1.4-1.25-2.2 1.35-.55 2.35 1.9-1 .25-.15.85-.5.7-.35.9 1.1.05-1.65.4-.2.65 1.25.05-1.7.1-.05-.15-1.75m-3.4 6-1.6 3.9-1.05 1.05h-.05l-.75.7-2.25 2.15-2.3 3.55-.05.05-.45.7h.05l-2.15 3.3.05.5H22v.15l.05 3.2.45-3.7 4.9-7.2V29l.4-.4h.05l.55-.6h-.05l3.05-3.4 1.1-3.9m-4.05 7.8.05.05v-.05h-.05" fill="#80b3bd" fill-rule="evenodd"/><path d="m19.85 41.05-.7-.7q-.35-.7.15-2.2l.65-1.6.4-.85.05-.1.7-1.35L24.85 28l.7-1.25 1.35-2.45q.3 2.15-.3 3.85l-.2.5-.1.15-1.45 1.75-1.35 1.9-1.8 2.7-.6 1-.35.6-.2.3-.25.55q-.8 1.65-.45 3.45" fill="#9dc4cc" fill-rule="evenodd"/><path d="m29.25 40.65 1.1.45 3.6 1q1.05.05 2.35-1-1.25-1.1-.6-2.9.45-1.3 1.45-1.65-.4 1.6.9 2.65l4.3.2q-.6 1.5-1.9 2.2-1.65.9-2.95.4-.9.85-1.4 1.05l-2.75.45q-3.1.25-6.45-.15-1.25-1.75-.8-4.75.55.9 2.85 2l.25.1.05-.05m-1.1-20q-3.95 1.65-8.3 2.45l-.4-.9L28 19l.95 1.3-.8.35m4.8-4.65 1.4 1.25.05-2.3 1.35 1.5.15-1.75.15 1.75-.1.05-.05 1.7-.65-1.25-.4.2-.05 1.65-.9-1.1-.7.35-.85.5-.25.15-1.9 1 .55-2.35 2.2-1.35" fill="#549896" fill-rule="evenodd"/><path d="m32.5 20.7-1.1 3.9-3.05 3.4h.05l-.55.6h-.05l-.4.4v.05l-4.9 7.2-.45 3.7-.05-3.2v-.15h-.05l-.05-.5 2.15-3.3H24l.45-.7.05-.05 2.3-3.55 2.25-2.15.75-.7h.05l1.05-1.05 1.6-3.9" fill="#a55a58" fill-rule="evenodd"/><path d="m8.25 19.2-.15.3-.2-.1m-6.65-.25-.25.3Q-.2 20.55.05 22m10.35 4.6v-.65q.2-1.75 1.7-2.75 1.85-.75 3.05-.25l-2.25-1.2-1.35-.7m34.15-8.8-.05-.25v-.3q-.15-1.55-1.45-3.9-1.35-2.4-3.8-4.3-2.6-1.95-5.65-2.55M45.65 12l.05.2v.05q1.2 5 1.25 8.3 0 3.35-.9 9.9l-1.8-1.8q.55-.3 1.05-.55 0-1.75-.8-2.95-.85-1.25-2-1.25l-.75 1.35-3.3 5-.65 3.95-1.05-2.35-1.6 1.65-3.45 3.25q-1.6 1.7-2.45 3.9l1.1.45 3.6 1q1.05.05 2.35-1-1.25-1.1-.6-2.9.45-1.3 1.45-1.65-.4 1.6.9 2.65l4.3.2q-.6 1.5-1.9 2.2-1.65.9-2.95.4-.9.85-1.4 1.05l-2.75.45q-3.1.25-6.45-.15l-2.8-.45q-3.1-1-4.25-1.85l-.7-.7q-.35-.7.15-2.2l.65-1.6.4-.85.05-.1.7-1.35L24.85 28l-4.55-.1q5.65-4.5 6.65-4.25l.2.15q1.2-2.45 1-3.15-3.95 1.65-8.3 2.45l-.4-.9-3.35 1.25.15.1q.8.75.55 2.35-.35 1.8-1.8 2.7-2.15 1.15-3.05.7l-.2.05q-3.3.45-6.35-1.2Q2.95 26.8.45 23.2L.05 22m45.65-9.75.1 2.85q-.15 2.5-3.3 8.8M34.7.95l-1.05-.2q-6.35-.9-11.8 2.4Q14 10.8 8.25 19.2m19.1-11q.7.5 1.25 1.05 1.05 1.05 1.25 2.25 3.6-1.55 6.3.5 2.05 2.5 2.25 5.95.2 2.8-.75 4.3l.05.15q1.45 4.55.75 7.85m-10.7-22.7-.4.65q-5.25 1.1-4.2 6.3l-.65.7m.05.05q5.15 1.05 7.15-2.15l.15-1.6m-7.4 3.75-.15.1.25-.1-.15.15m.05-.15.05-.05m-.1.25v-.05m-.1-.05-.3.2q-1 .55-1.25-1.2m6.4 9.45-.25.5-1.35 2.45-.7 1.25m-5.4-5.8L28 19l.95 1.3-.8.35m7.75-5.95-.15 1.75-1.35-1.5-.05 2.3-1.4-1.25m-2.2 1.35-.55 2.35 1.9-1 .25-.15.85-.5m-31.95 1.1q1.2-1.3 2.9-.8L7.9 19.4m7.25 3.55h.05l.7.4.2.1m-5.7 3.15q.15 2 1.55 2.7m13.95 8.25q.2-1.2 1.7-3.3 2.4-3.4 5.5-6.15 2.25 1.05 3.65 3.75M26.1 38.6l-.15-.35-.05-.7m.2 1.05q.55.9 2.85 2l.3.05-.05.05-.25-.1M22.4 15.45q-2.45 3.2-9.5 6.3M41 16.4q-1.25.4-2.55-.65m3.2-3.95q-.3 1.85-3.1 2.55m.1.75q2.25.55 3.3-.6" fill="none" stroke="#006" stroke-linecap="round" stroke-linejoin="round" stroke-opacity=".322" stroke-width=".05"/></g></defs></svg>