<svg viewBox="0 0 78.45 69.6" xmlns="http://www.w3.org/2000/svg" xmlns:xlink="http://www.w3.org/1999/xlink"><use width="78.45" height="69.6" xlink:href="#a"/><defs><radialGradient id="b" cx="0" cy="0" r="819.2" gradientTransform="matrix(.0803 0 0 .0603 31.7 51.2)" gradientUnits="userSpaceOnUse"><stop stop-color="#91756f" offset="0"/><stop stop-color="#c2b2af" offset=".18"/><stop stop-color="#fff" stop-opacity="0" offset=".4"/></radialGradient><g id="a"><path d="M69.35 66.3Q53 69.55 31.7 69.6q-23.3-.05-40.8-3.95v-28.9q17.5-3.9 40.8-3.9 21.3 0 37.65 3.25v30.2" fill="url(#b)" fill-rule="evenodd" transform="translate(9.1)"/><path d="M30.35 25.95h.05q7.3-1.15 12.1 1.7l.3.15q2.3 2.25 3.65 4.95-2.05-2.7-5.85-4.6l-1.7-.7.3-.5-1 .3-2.55-.35L35 26l-.1.9h-.4l-.6.05-.3.05-3.2-.9-.05-.15m-16 5.55 2.2-1.8 3.5-1.75-1.15 3.9h-.05l-1.25.05-1.65.15-.8.1-.75.1.75-.1.8-.1 1.65-.15q-1.4 1.35-2.45 2.85-2.3 3.2-3.2 7.1l-.4 1.95-.8 1.7-.3.35q-.75.95-2.8 1.55l.3-6.1.1-.25 3.5-7.8.15-.2 1.5-.6 1.2-.2-.05-.75m-4.1 13.25.5.75-.5-.75m-2.5 4.15.15-.75 1.95 2.15-2.1-1.4 2.1 1.4.45.6.15.3q-.65.95-1.9 1.1-.45-.6-.8-1.6l-.15-.35-.05-.3.05-.05.15-1.1" fill="#f7dfac" fill-rule="evenodd" transform="translate(9.1)"/><path d="m35.65 26.9 2.55.35-1.9.6-.65-.95" fill="#a06b1b" fill-rule="evenodd" transform="translate(9.1)"/><path d="m41.75 31.6.35.6v.05l-1.55 1.1-1.7-1.05-.05-1.05 1.6.5-1.8-1.85.3-.05q1.55.55 2.85 1.75m-.9 1.85h1.2v.05l1.15 1q.8.45.3 1.95l-.15 1.15-.05.45 1 1.25.05.05-.2.55.15-.1-.35 1.7-1.05 1 .4 1.2q-.95 2.25-2.7 3.85l.65-2.95 1.1-.55-.75-.8.25-1.15.1-.4.95-.65-.75-.65q.6-2.3.05-3.45t-.45-2.1q.1-.9-.9-1.4m2.5 4.15h-.05.05m-7.4-6.8.35-.25 1.6.45-.95.15-1-.35m-2.3-1.15.5.2-.2.65h-.55q-.35-.6.25-.85m-.25 2.75-.2.65.75-.6h1.7l2.2 1.5-.8 2.7 2.15.45q1.25.75 1.2 2.45l-1.55 1.95.85.4-.1.2q-1.35 2.35-2.3 2.05l-.05-.05-.3-.25.45-.95q.5-1.15.5-2.25l1.2-1.45-2-.05q0-1.45-1.35-2.2-.45-1.55-1-2l-1.7-1.1q-1.2-.75-3.55-1.45l-.35-.95-1.25.55-.25-1.2 1.45-.4 2.65.55 1.1 1.45h.55m-7.25-2.35h.05l-.45 1.5-.45-.85-1.2.65-3.8-.7q2.75-.75 5.85-.6m-10.4 20.3q-2.05 1.55-2.45 3l-1.8-1.8q.05-.5.25-.85.6-1.55 2.4-1.3l1.4.4.6.25-.4.3" fill="#630" fill-rule="evenodd" transform="translate(9.1)"/><path d="m34.9 26.9.1-.9.65.9.65.95 1.9-.6 1-.3-.3.5-1 1.7.7.75 1.8 1.85-1.6-.5-.9-.25-1.6-.45-.35.25-2 1.65-.75.6.2-.65.55-1.9.2-.65-.5-.2-2.25-1 3.3-.5.2-1.25m5.65 6.45 1.55-1.1v-.05l-.35-.6-.6-1.1 1.9 1.05 1-1L44 32l1.85.7q-.8.3-1.55.65l.25 2.3-1.6-2.25-.9.05h-1.2l-.5.05.2-.15m2.8 4.25 1.7-.15.2-1.15.65 1 1.5-.35-.75 1.1 1.25 1.4-2.1-.75-1.5 1.1-.15.1.2-.55v-.05l.35-1-1.35-.7h-.05.05" fill="#fbebd2" fill-rule="evenodd" transform="translate(9.1)"/><path d="M48.2 40.1v.2-.2" fill="#ce9b00" fill-rule="evenodd" transform="translate(9.1)"/><path d="m33.6 27 .3-.05v.1l-.3-.05m10.7 12.3.05-.05v.1l-.05-.05M7.6 48.8l.15.1L7.6 50l-.05.05v.05l.05-1.3" fill="#fc3" fill-rule="evenodd" transform="translate(9.1)"/><path d="m30.35 25.95.05.15 3.2.9.3.05L27 28l-.1-.35-.1.4-3.9.55 7.45-2.65m26.4 12.15-.2 3-8.35 7.15-.05.05.1.05.05 2.4-3.5 3.1-1.25-4.3-.25.2.15-.15v-.1l.85-1.1.1-.1q1.5-1.4 2.4-2.8l9.95-7.4M27.6 33.25 26.15 33l.7-3.1.75 3.35" fill="#641" fill-rule="evenodd" transform="translate(9.1)"/><path d="m31.3.15.1-.05-.05-.1 8.45 1.3q-6.75 3.45-10.95 8.65 4.05 5.8 11.45 7.6-5.2 4.8-12.2 4.2 1.35-1.7 1.95-3.2 1.4-3.15-6.2-8.35Q30.4 7.45 35 2.55 34.05.9 31.3.15" fill="#c8d8ce" fill-rule="evenodd" transform="translate(9.1)"/><path d="m14.3 7 .45.05 8.3 7.15q-.9 2-6.85 8.2 1.4 2.75 4.8 3.9-5.6 1.25-6.9-3.15 4-3.9 6.5-8.65Q18 10.6 14.3 7" fill="#c9d9cf" fill-opacity=".663" fill-rule="evenodd" transform="translate(9.1)"/><path d="m11.7 33.05-.15.2.1-.15.05-.05M9.85 50.3l.35.35.1.25-.45-.6" fill="#ffe493" fill-rule="evenodd" transform="translate(9.1)"/><path d="M20.55 37.05h.05-.05" fill="#ffc" fill-rule="evenodd" transform="translate(9.1)"/><path d="M30.5 56.35q-.45 1.7-1.7 2.05.05-.6-1.05-1.45l-.2-.15.25.05-2-.75-3.05-.65v.05l-1.8-.3-8.75-.35 14.65-2.7 1.1 1.6 2.05-2.4 1.55 2.15-1.05 2.85" fill="#643706" fill-rule="evenodd" transform="translate(9.1)"/><path d="m33.9 26.95.6-.05h.4l-.2 1.25-3.3.5 2.25 1q-.6.25-.25.85h.55l-.55 1.9h-.55l-1.1-1.45-2.65-.55-1.45.4L27 28l6.9-.95v-.1m5 .5 1.7.7q3.8 1.9 5.85 4.6l.65 1.45q1.05 2.75 1.1 5.9v.2l9.15-11-.6 8.8-9.95 7.4q-.9 1.4-2.4 2.8l-.1.1-.85 1.1-1.95-.75-2.8 3-.85-.9-.95 1.45-3.4-.05-3 4.1 1.05-2.85L30 51.35l-2.05 2.4-1.1-1.6-14.65 2.7-.25-.05.15.1-.65.1-.2-.1-.75-.5-.35-.5-.55-.35-.7-.75-.35-.5q1.25-.15 1.9-1.1l-.15-.3-.1-.25-.35-.35-1.95-2.15-.15.75-.15-.1.05-1.4q2.05-.6 2.8-1.55l.3-.35.8-1.7.4-1.95q.9-3.9 3.2-7.1 1.05-1.5 2.45-2.85l1.25-.05h.05l1.15-3.9 9.5-4.65v2.8l.8-.15-7.45 2.65 3.9-.55.1-.4.1.35.65 2.8.25 1.2 1.25-.55.35.95q2.35.7 3.55 1.45l1.7 1.1q.55.45 1 2 1.35.75 1.35 2.2l2 .05-1.2 1.45q0 1.1-.5 2.25l-.45.95.3.25.05.05q.95.3 2.3-2.05l.1-.2-.85-.4 1.55-1.95q.05-1.7-1.2-2.45l-2.15-.45.8-2.7-2.2-1.5h-1.7l2-1.65 1 .35.95-.15.9.25.05 1.05 1.7 1.05-.2.15.5-.05q1 .5.9 1.4-.1.95.45 2.1t-.05 3.45l.75.65-.95.65-.1.4-.25 1.15.75.8-1.1.55-.65 2.95q1.75-1.6 2.7-3.85l-.4-1.2 1.05-1 .35-1.7 1.5-1.1 2.1.75-1.25-1.4.75-1.1-1.5.35-.65-1-.2 1.15-1.7.15.15-1.15q.5-1.5-.3-1.95l-1.15-1v-.05l.9-.05 1.6 2.25-.25-2.3q.75-.35 1.55-.65L44 32l.05-1.45-1 1-1.9-1.05.6 1.1q-1.3-1.2-2.85-1.75l-.3.05-.7-.75 1-1.7m9.35 20.9 1.85.8-1.8 1.6-.05-2.4M44.3 39.3l-1-1.25.05-.45 1.35.7-.35 1v-.05l-.05.05m3.8 2.6q-.15 1.8-1.3 3.6 1.15-1.8 1.3-3.6M14.35 31.5l.05.75-1.2.2-1.5.6q-.15-1.25-2.3-2.4 3-.6 4.95.85M12.6 44.05l-.95 2.75-.9-1.3.9 1.3.95-2.75m-2.15 8.4-1.55.35 1.55-.35m4.6-7.7 1.2 1.15-.8 1.75.8-1.75-1.2-1.15m2.8 2.6-1.6-1.45 1.8-4.05-1.8 4.05 1.6 1.45m-6.8 1.2.6-1.75.7 1.05-.7-1.05-.6 1.75m22.45 3.7 2.45-3.35-.6-5.2q-1.55-8.6-6.55-10.25l-.6-.15-.3-1.3.3 1.3.6.15q5 1.65 6.55 10.25l.6 5.2-2.45 3.35m-7.3-22.2h-.05q-3.1-.15-5.85.6l3.8.7 1.2-.65.45.85 1.05-3.5-.6 2m-5.65 7h.05-.05m7.05-3.8-.75-3.35-.7 3.1 1.45.25m-8.7-1.4 6.55.7.3-1-.3 1-6.55-.7m12.65 11.4-12.8 5.4 12.8-5.4m-15.8 7.1.4-.3-.6-.25-1.4-.4q-1.8-.25-2.4 1.3-.2.35-.25.85l1.8 1.8q.4-1.45 2.45-3M27.2 49.3l-7.8 1.4 7.8-1.4" fill="#ee923e" fill-rule="evenodd" transform="translate(9.1)"/><path d="M55.55 32.75q-1.35-2.7-3.65-4.95l-.3-.15q-4.8-2.85-12.1-1.7h-.05m16.1 6.8.65 1.45q1.05 2.75 1.1 5.9v.2l9.15-11-.6 8.8M42.6 52.25l-3 4.1q-.45 1.7-1.7 2.05m15.6-10.1q1.5-1.4 2.4-2.8 1.15-1.8 1.3-3.6M29.15 27.95l-3.5 1.75-2.2 1.8.05.75.75-.1.8-.1 1.65-.15 1.25-.05m1.2-3.9 9.5-4.65v2.8l.8-.15m-3.55 2.1.1-.4.1.35.65 2.8m-16.1 2.45-3.5 7.8-.1.25-.3 6.1m4.05-14.35-.05.05-.1.15m-3.6 8.05v-.2l.1-.05m-.45 7.75.05-1.4m-.05 1.4-.05 1.3m4.15-17.05q-.15-1.25-2.3-2.4 3-.6 4.95.85M37 32l.3 1.3.6.15q5 1.65 6.55 10.25l.6 5.2-2.45 3.35m-7.3-22.2.6-2m-1.05 3.5-.3 1-6.55-.7m9 .15-.25-1.2m-1.45-.75-.45 1.5" fill="none" stroke="#630" stroke-linecap="round" stroke-linejoin="round" stroke-opacity=".6" stroke-width=".05"/><path d="m65.85 38.1-.2 3-8.35 7.15-.05.05.1.05 1.85.8-1.8 1.6-3.5 3.1-1.25-4.3m-.1-.05-1.95-.75-2.8 3-.85-.9L46 52.3l-3.4-.05m-5.7 4.6-2-.75-3.05-.65m19-23.85q-1.3-1.2-2.85-1.75m-.05 2.45 1.7 1.05m2.65 1.15q.8.45.3 1.95m.8 3.35-.35 1.7m-.65 2.2q-.95 2.25-2.7 3.85l.65-2.95m.35-1.35.25-1.15.1-.4m.2-1.3q.6-2.3.05-3.45t-.45-2.1q.1-.9-.9-1.4m-4.9-2.65 1 .35m-3-.65h-.55q-.35-.6.25-.85m3.45 9.5q0-1.45-1.35-2.2-.45-1.55-1-2l-1.7-1.1q-1.2-.75-3.55-1.45m9.7 4.7q1.25.75 1.2 2.45m-.7 2.35-.1.2q-1.35 2.35-2.3 2.05l-.05-.05-.3-.25.45-.95q.5-1.15.5-2.25m-2.25-8.2 2.2 1.5M38.2 30.4l2.65.55m-7.65.4-3.8-.7q2.75-.75 5.85-.6m-10.4 20.3q-2.05 1.55-2.45 3l-1.8-1.8q.05-.5.25-.85.6-1.55 2.4-1.3l1.4.4.6.25-.4.3" fill="none" stroke="#630" stroke-linecap="round" stroke-linejoin="round" stroke-width=".05"/><path d="m20.8 33.05-.15.2" fill="none" stroke="#636532" stroke-linecap="round" stroke-linejoin="round" stroke-width=".05"/><path d="m18 52.8-8.9 2m7.6-6 2.25 1.5.45.6M18 52.8l1.55-.35m-8.75-7.6 5.9 3.95m11.15-.15 12.8-5.4M28.5 50.7l7.8-1.4" fill="none" stroke="#630" stroke-linecap="round" stroke-linejoin="round" stroke-opacity=".573" stroke-width=".05"/><path d="m10.75 45.5-.5-.75m.5.75.9 1.3.95-2.75m-.25 3.8-.7-1.05-.6 1.75m7-6.7-1.8 4.05 1.6 1.45m-2.4.3.8-1.75-1.2-1.15" fill="none" stroke="#630" stroke-linecap="round" stroke-linejoin="round" transform="translate(9.1)"/><path d="m21.3 54.85-.1.05-.65.1m.75-.15 14.65-2.7 1.1 1.6 2.05-2.4 1.55 2.15-1.05 2.85" fill="none" stroke="#a06b1b" stroke-linecap="round" stroke-linejoin="round" stroke-width=".05"/><path d="m20.55 55-.2-.1-.75-.5-.35-.5-.55-.35-.7-.75m-.35-.5.35.5m-1.35-2.75.05.3.15.35q.35 1 .8 1.6" fill="none" stroke="#630" stroke-linecap="round" stroke-linejoin="round" stroke-opacity=".631" stroke-width=".05"/></g></defs></svg>