<svg viewBox="0 0 49.296 48.169" xmlns="http://www.w3.org/2000/svg" xmlns:xlink="http://www.w3.org/1999/xlink"><use transform="translate(.01)" width="49.25" height="48.15" xlink:href="#a"/><defs><g id="a"><path d="m.5-13.3 1.3.75.5.3-1.45-.15-.6.55.25-1.45m2.05 1.25 1.55 1.3.05.05 1.1 1.2-1.7.8-.7 2.15.05.05-1.1-.1 1.6 1.25-.55.45q-1.1-.35-2.3.55l.05.15Q2.45-2.05-1.25.95L.35.9l.6.3q.75.65.95 1.7.15 1-1.45 1.8L0 4.75q1.35 1.8 3.3 1.85Q7 4.5 2.35 1.05 4.05.5 5-.55q1.15-2.4-1.3-3.9l.7-.25 2.1 1.9-.35-1.05-.2-.65 1.5.4.85-.7q1.65 3.4 2.75 7.2l.1 6.2.05.05-.9 3.25-.45 1.15-.35.65-.4.45-1.25-.95-.1.1-1.65-1.4-1.2.95-.05.65-.3.15L3.4 15.2l-.1-.05-.45.05-.55-.4-.65-.1-.6.5-.85.05h-.5l-2.5.1H-3l-4.95.4-.15-.4-1.6.5-1.3-.5Q-6.95 13.5-.1 13.4l-.15-.1-1.5-.65-.1-.1h.05-.1l-.1-.05-.4-.15-1.95-.5-.55-.1-.2-.05-.75-.15-.9-.1-1.55-.1h-.95l-4.3.45-.9.15-1.25.35-1.5.5q-2.45.9-4.9 2.5-1.2-1.1-1.8-2.7.45-3.2 1.3-6.05l-.7-.85.85.35.45-1.4.15-.45.85-2.05v-.1l.1-.2.3-.65q3.2-6.65 9-10.95L-9-9q1.6 1.45 1.8 3.35 1.6-.65 2.5-1.8.55-.8.65-1.85h2.3L-.1-6.35v-1l1.8.5-.8-2.2-1 .45v-.55l1.75-.5-1.6-.95.05-.45q1.95.9 2.5 3L3.7-9.9l-1.15-2.15m-5.8-2.65.7.2Q-1-14.1.4-13.35l-1.7 1.6q.1-1-1.6-2.65l-.35-.3m1.1 18.45q.7 1 1.55 1H0h-.6q-.85 0-1.55-1m-.4-3.3L-2.8-1.6q.3-3.15 3.4-2.6-3.1-.55-3.4 2.6l.25 2.05.25 2.25 2.65.45q-1.55-.6-2.2-1.7Q-1.7-.5-.9-2.1L-2.55.45m3.7 9.8v-.9L-.65 7.9-1.8 9.8l2.95.45m3.4.8 2.15-.65-.55-2.95-2.9.5 1.3 3.1m-1.5 1.1Q3 13.75 2.3 14.8q.7-1.05.75-2.65M-7.4-12.4l2.15-1.05 1.45 1.35.65.9.15.55h.2l.15.2L-4-9.9v-.25q-.9-1.4-2.9-2.05l-.35-.15-.15-.05m4.1 5.25-.75-.65.25 1-.65.45.45.45-.9.65 1.4-.1-.1.5v1l.7-1.2 2.65.35Q.2-6.8-2.2-7.9l-1.1.75m-8.15.6L-8.05-2q2.95 3.8.8 11.05 2.45-4.1 2.4-7.15-1.95-6.4-6.6-8.45m-7.3 8.15.7.6-.35.5.35-.5-.7-.6m1.2 2.05v.05h.05l-.05-.05m.5-.65-1-.8.7-.95-.7.95 1 .8m17 11.35q.35-.65-.05-.95.4.3.05.95" fill="#bf9f22" fill-rule="evenodd" transform="translate(24.6 26.95)"/><path d="m5.25-9.5.05-.05q2.1 2.55 3 4.7v.05l-.85.7-1.5-.4-.2-.55L7-5.85 5.5-6.2l-.35-2.4-1.2 2.2-1.05-.1-.05-.05.7-2.15 1.7-.8m-5.35.9 1-.45.8 2.2-1.8-.5V-8.6" fill="#949926" fill-rule="evenodd" transform="translate(24.6 26.95)"/><path d="m.25-11.85.6-.55 1.45.15.25.2L3.7-9.9 2.6-8.05q-.55-2.1-2.5-3l.15-.8m-4.3 2.55q-.1 1.05-.65 1.85-.9 1.15-2.5 1.8Q-7.4-7.55-9-9l-2.6-.75 2.35-1.6 2-1 .35.15q2 .65 2.9 2.05v.25l-.95.6h.9m8.6 20.35-1.3-3.1 2.9-.5.55 2.95-2.15.65m-9.8-24.5 2.35-.95q1.7 1.65 1.6 2.65l-.35.3-2.35-1 .2.35-1.45-1.35" fill="#988727" fill-rule="evenodd" transform="translate(24.6 26.95)"/><path d="m24.4-.9-1 2.6q-1.9 3.95-5.85 6L14.1 9.05l-.95-.2Q14.9-.9 18.9-5.75q-3.75 1.35-6.75 8.7L11.65.8q.5-2.95 1.6-5.2l.2-.4Q15-7.7 17.6-9.35l.1-.05.15-.1q6.5 2.05 6.55 8.6m-11.55 10 .45.1q-.75 4.15.05 6.45.5 1.65 1.85 2.35-1.9.25-3.25-1.9l.15-.55q.75-3.15.75-6.45M-2 12.5q-9.45-1.8-16.6 2.9-.85 1.15-2 1-.85-.45-1.5-1.1 2.45-1.6 4.9-2.5l1.5-.5 1.25-.35.9-.15 4.3-.45h.95l1.55.1.9.1.75.15.2.05.55.1 1.95.5.4.15M2.85-4.9 1.9-3.85l1.8-.6Q6.15-2.95 5-.55 4.05.5 2.35 1.05 7 4.5 3.3 6.6 1.35 6.55 0 4.75l.45-.05q1.6-.8 1.45-1.8-.2-1.05-.95-1.7L.35.9l-1.6.05q3.7-3 1.85-5.15l-.05-.15q1.2-.9 2.3-.55m11.6 11.1 3.75-.15q3.05-3.3 4.2-7.55-3.3 5.05-7.95 7.7" fill="#9b821c" fill-rule="evenodd" transform="translate(24.6 26.95)"/><path d="M11.15-.9q.65-4.75 4.3-7.85l1.15-.9.2-.15.6-.4.35-.2.35-.1 1.35.3q3.25.7 4.6 4.05 1 2.45.35 5.25-.05-6.55-6.55-8.6l-.15.1-.1.05Q15-7.7 13.45-4.8l-.2.4q-1.1 2.25-1.6 5.2l-.5-1.7m3.2 10.4q3.55 1.25 4.05 5.85l.05.85v.05q0 1.4-.5 2.45l-.15-2.55q-.6-3.55-3.45-6.65m-38.25 3.1q-1.3-3.25-.15-8.55 1.15-5.4 3.85-10.3l.65-1.1 1.3-.8.15-1.2q2.15-2.65 5.05-4.15 2.05-1.05 4.45-1.55l.7-.1 2.65 1.7-2.15 1.05-1.45-.3q-2.45.6-3.35 2.75l.6.2q-5.8 4.3-9 10.95l-.3.65-.15.1.05.1v.1l-.85 2.05-.15.45-.45 1.4-.85-.35.7.85q-.85 2.85-1.3 6.05m10.9-26-.6.6-.35.75 1.5.25 1-.75-.35-1.05-1.2.2m-7.6 14.6-.85.3-.5-.8.5.8.85-.3m-.4.95-.45-.65-.6.35.6-.35.45.65" fill="#dcbb38" fill-rule="evenodd" transform="translate(24.6 26.95)"/><path d="M11.05 2.4q-.15-1.75.1-3.3l.5 1.7.5 2.15q3-7.35 6.75-8.7-4 4.85-5.75 14.6h-.3l-.25-.05-1.4-.15-.05-.05-.1-6.2m.15 6.25 1.65.45q0 3.3-.75 6.45l-.15.55q1.35 2.15 3.25 1.9-1.35-.7-1.85-2.35-.8-2.3-.05-6.45l1.05.3q2.85 3.1 3.45 6.65l.15 2.55q-.8 1.5-2.75 2.3-1.25.55-2.3-.45l-1.7-2.1-.85-1.55-.5-1.5-.25-.9-.1-.8.35-.65.45-1.15.9-3.25" fill="#8b7418" fill-rule="evenodd" transform="translate(24.6 26.95)"/><path d="M14.45 6.2q4.65-2.65 7.95-7.7-1.15 4.25-4.2 7.55l-3.75.15M0 15.25h-.05H0m-2.95.15-.05-.05h.05v.05" fill="#73733c" fill-rule="evenodd" transform="translate(24.6 26.95)"/><path d="M1.15 10.25-1.8 9.8l1.15-1.9 1.8 1.45v.9" fill="#9f7920" fill-rule="evenodd" transform="translate(24.6 26.95)"/><path d="m7.75 13.3-.85.95-.75-.45-.35.45-.95-.75.05-.65 1.2-.95 1.65 1.4m-6.7 1.9-.5.7-.6-.65-1.45 1.15-1.45-1-.85 1.15-.65-.05-.4.05h-.35l-1.25.5-.85.25-2.3-1.4-.1-.05 1.6-.5.15.4 4.95-.4.05.05v-.05h.15l2.5-.1h.5l.85-.05m-12.05.15-.5-.7q3.65-1.5 9.6-2.1h.05l.1.1 1.5.65.15.1q-6.85.1-10.9 1.95" fill="#986d1f" fill-rule="evenodd" transform="translate(24.6 26.95)"/><path d="m-7.1-15.25 3.85.55.35.3-2.35.95-2.65-1.7.8-.1m-4.5 5.5-.6-.2q.9-2.15 3.35-2.75l1.45.3.15.05-2 1-2.35 1.6M-13-13.4l1.2-.2.35 1.05-1 .75-1.5-.25.35-.75.6-.6m10.1 8.35.25-.4 1.95.05-1.4-.85.3-1-1 .5-.5-.4 1.1-.75Q.2-6.8-.25-4.7l-2.65-.35m-.9-1.75.1.65-.3.25-.45-.45.65-.45" fill="#b6a230" fill-rule="evenodd" transform="translate(24.6 26.95)"/><path d="m-8.6-15.05.05-.35.65.25-.7.1" fill="#663" fill-rule="evenodd" transform="translate(24.6 26.95)"/><path d="M-8.55-15.4q.1-1.75 1.5-2.1 1.95-.15 3-.65l.15.8q.1 1.3-.9 1.45l-2.3.65-.8.1-.65-.25" fill="#58582c" fill-rule="evenodd" transform="translate(24.6 26.95)"/><path d="M-2.8-10.65H-3l-.15-.55.35.55" fill="#b16934" fill-rule="evenodd" transform="translate(24.6 26.95)"/><path d="M-2.55.45-.9-2.1q-.8 1.6-.95 3.55.65 1.1 2.2 1.7L-2.3 2.7-2.55.45m-8.9-7Q-6.8-4.5-4.85 1.9q.05 3.05-2.4 7.15Q-5.1 1.8-8.05-2l-3.4-4.55" fill="#7d6815" fill-rule="evenodd" transform="translate(24.6 26.95)"/><path d="m-1.75 12.65 1.5.65-1.5-.65" fill="#676736" fill-rule="evenodd" transform="translate(24.6 26.95)"/><path d="M-2.95 15.35v.05-.05" fill="#533e11" fill-rule="evenodd" transform="translate(24.6 26.95)"/><path d="m-20.9 1.85-.1.2-.05-.1.15-.1" fill="#b6c173" fill-rule="evenodd" transform="translate(24.6 26.95)"/><path d="m.4-13.35.15-.1-.05.15-.25 1.45-.15.8-.05.45 1.6.95-1.75.5v2.8L-1.75-9.3h-3.2l.95-.6 1.35-.55-.15-.2-.35-.55-.65-.9-.2-.35 2.35 1 .35-.3 1.7-1.6M2.9-6.5l1.05.1 1.2-2.2.35 2.4 1.5.35-1.25.8.75 2.25-2.1-1.9-.7.25-1.8.6.95-1.05.55-.45L1.8-6.6l1.1.1m-6.2-.65.5.4 1-.5-.3 1 1.4.85-1.95-.05-.25.4-.7 1.2v-1l.1-.5-1.4.1.9-.65.3-.25-.1-.65-.25-1 .75.65" fill="#e7dca0" fill-rule="evenodd" transform="translate(24.6 26.95)"/><path d="m25.1 13.65 1.3.75m.75.5 1.55 1.3m.05.05 1.1 1.2m.05-.05q2.1 2.55 3 4.7m0 .05q1.65 3.4 2.75 7.2-.15-1.75.1-3.3.65-4.75 4.3-7.85l1.15-.9m.2-.15.6-.4.35-.2.35-.1 1.35.3q3.25.7 4.6 4.05 1 2.45.35 5.25l-1 2.6q-1.9 3.95-5.85 6L38.7 36l-.95-.2m-.55-.05-1.4-.15-.05-.05.05.05 1.65.45.45.1 1.05.3Q42.5 37.7 43 42.3l.05.85m0 .05q0 1.4-.5 2.45-.8 1.5-2.75 2.3-1.25.55-2.3-.45l-1.7-2.1-.85-1.55-.5-1.5-.25-.9-.1-.8-.4.45m-12.9 2.4-.65-.05m-.4.05h-.35l-1.25.5-.85.25m5.5-4.75h-.1l-.1-.05q-9.45-1.8-16.6 2.9-.85 1.15-2 1-.85-.45-1.5-1.1-1.2-1.1-1.8-2.7Q-.6 36.3.55 31 1.7 25.6 4.4 20.7l.65-1.1 1.3-.8.15-1.2q2.15-2.65 5.05-4.15Q13.6 12.4 16 11.9l.05-.35q.1-1.75 1.5-2.1 1.95-.15 3-.65l.15.8q.1 1.3-.9 1.45l-2.3.65 3.85.55.7.2q1.55.4 2.95 1.15m1.9 1.1-.5-.3m.5.3.25.2m-1.95 7.85-.05-.15m-.55 9.1H24q-.85 0-1.55-1m13.35 4.9-.9 3.25-.45 1.15-.35.65m1.55-11.3.1 6.2M24.6 31.7l.45-.05q1.6-.8 1.45-1.8-.2-1.05-.95-1.7l-.6-.3-1.6.05q3.7-3 1.85-5.15-3.1-.55-3.4 2.6l.25 2.05m4.85 14.35q.7-1.05.75-2.65M16.7 11.8l-.65-.25m.65.25-.7.1m.7-.1.8-.1m6.85 28.55.15.1q.4.3.05.95m-.2-1.05-1.5-.65-.1-.1" fill="none" stroke="#663232" stroke-linecap="round" stroke-linejoin="round" stroke-opacity=".431" stroke-width=".05"/><path d="m26.4 14.4.65.35.1.15m1.55 1.3.05.05M33.7 41.1l-1.25-.95-.1.1-.85.95-.75-.45-.35.45-.95-.75-.3.15L28 42.15m-.1-.05-.45.05m-.55-.4-.65-.1-.6.5-.5.7-.6-.65-1.45 1.15m3.8-28.65.15.05m-2.5 27.45h.05" fill="none" stroke="#58582c" stroke-linecap="round" stroke-linejoin="round" stroke-width=".05"/><path d="M13.1 41.6q3.65-1.5 9.6-2.1h.1" fill="none" stroke="#7c7c3f" stroke-linecap="round" stroke-linejoin="round" stroke-width=".05"/><path d="m-18.4 2.7.35-.5-.7-.6m1.4-.35-.7.95 1 .8m-4.9-2.3.5.8.85-.3m-1.45.65.6-.35.45.65" fill="none" stroke="#533e11" stroke-linecap="round" stroke-linejoin="round" transform="translate(24.6 26.95)"/><path d="M4.75-26.85h-.1l.05-.1-5.15.8q4.15 2.1 6.65 5.25-2.45 3.55-6.95 4.65 3.15 2.9 7.4 2.55-.8-1-1.15-1.95-.85-1.9 3.75-5.05-3.95-1.7-6.75-4.7.55-1 2.25-1.45" fill="#c8d8ce" fill-rule="evenodd" transform="translate(24.6 26.95)"/><path d="M15.1-22.65h-.3L9.75-18.3q.55 1.25 4.15 5-.8 1.7-2.9 2.4 3.4.75 4.2-1.95-2.45-2.4-3.95-5.25 1.6-2.4 3.85-4.55" fill="#c9d9cf" fill-opacity=".663" fill-rule="evenodd" transform="translate(24.6 26.95)"/></g></defs></svg>