<svg viewBox="0 0 172.24 308.95" xmlns="http://www.w3.org/2000/svg" xmlns:xlink="http://www.w3.org/1999/xlink"><use width="172.25" height="308.95" xlink:href="#a"/><defs><g id="a"><path d="m277.4 162.15-5-70.5q31.05-26.25 42.65-55.7 4.65-15.9 3.9-33.2L321.1 8q7.8 48.6-3.15 89-16.8 34.9-40.55 65.15v.05l-3.05 3.8-11.95 14-9.25-7.1q-9.05 5.5 0 17.05l-8.45 8.5q-18.05 17.4-38.9 32.95-5.75-11.9 5-19l11.05-7.1q7.1-7.1 0-19.75l-17.5-27.1 2.15-6.85 6.6 20.4 8.4-33.4 5.5-3.85q-5.15 9.8 17 22.35 19.45.65-1.1-35.8 9.35-8.75 19.65-20.2l14.85 61.05" fill="#fc0" fill-rule="evenodd" transform="translate(-164.2 -2.5)"/><path d="M302.8 304.65q-1.3 2.6-9.15 4.5-9.35 2.3-22.55 2.3t-22.55-2.3q-9.35-2.25-9.35-5.5l.25-1-16.4.55q-24.4 0-41.65-4.65-17.2-4.6-17.2-11.15 0-3.4 4.65-6.3-7.25 9.9 20.95 14.95l.35.25q25.05 5.1 51.6 2.95l-1.15 1.7q5.95 6.75 28.5 7.7 18.55 0 33.7-4M172 279.45q17.6-14.1 17.9-36.75l1.5-1q-.8 10.25-3.4 19.1-2.1 8.15-8.35 13.75l-7.65 4.9m-1.55-13.9-.95-.05q-2.05-.85-1.55-3.15.1-3.6 4.05-7.55l1.4-1.2q-4.05 3.8-4.4 9.45-.15 1.75 1.45 2.5M227 134.75q7.6-5.7 15.9-13.45 20.55 36.45 1.1 35.8-22.15-12.55-17-22.35m-22.65 23.7 17.5 27.1q7.1 12.65 0 19.75l-11.05 7.1q-10.75 7.1-5 19l-6.35 4.7-.2-.25q-7.2-35.95 5.1-77.4m48.8 31.5q-9.05-11.55 0-17.05l9.25 7.1-9.25 9.95m-58.6 49.55q-1.35-4.65-2.55-9.3-6.35-24.45-8.45-49.75 5.3 30.9 15.7 55.4l.1.3-4.8 3.35m-2.3 34.7q1.55-.85 1.85-2.8l-1.45-5.35q-1.15-5.65-2.25-4.85l1.25-2.5q2 1.45 5.4 13-1 1.65-4.8 2.5m73 34.75-1.95-.15.1.15h1.85" fill="#660" fill-rule="evenodd" transform="translate(-164.2 -2.5)"/><path d="M321.1 8q10.85 27.35 13.65 56.75 7 74.95-20.1 123.95l-40.2-22.65 37 27.4-21.3 33.95-45.45-28.95 37.95 33.3q-22 16.1-46.5 15 17.2-6.1-30.35-15.35 20.85-15.55 38.9-32.95l8.45-8.5q6.9 11.65 13.75 8.25 6.5-1.35 4.7-11.1l-9.2-7.1 11.95-14 3.05-3.8v.05-.1Q301.15 131.9 317.95 97q10.95-40.4 3.15-89m-46.65 158.05-.1-.05.1.05" fill="#ffe375" fill-rule="evenodd" transform="translate(-164.2 -2.5)"/><path d="M236.15 246.75q-17.1-.75-35.4-9.9 18.8 15.65 42.05 22.55-22.25-4.1-41.3-15.45-6.65 5.45-4.9 16.6 2.55 12.45 12.05 11.8l10.05-.7 4.35-.05q24.4 0 41.6 4.6 17.25 4.65 17.25 11.2 0 4.75-9 8.45 12.05.15 20.75 2.25 9.35 2.3 9.35 5.55l-.2 1q-15.15 4-33.7 4-22.55-.95-28.5-7.7l1.15-1.7q-26.55 2.15-51.6-2.95l-.35-.25q-28.2-5.05-20.95-14.95 1.35-.85 3.15-1.65l7.65-4.9q6.25-5.6 8.35-13.75 2.6-8.85 3.4-19.1l-4.35 2.9q5.65-5.45 4.95-14.4 1.2 4.65 2.55 9.3l4.8-3.35 1.4.7-1.4-.7.1-.05 6.35-4.7q47.55 9.25 30.35 15.35m-59.5 4.55q-3 5.3-2.55 8.65.75 5.55-3.65 5.6-1.6-.75-1.45-2.5.35-5.65 4.4-9.45 1.3-1.1 3.25-2.3m76.5-61.35 9.25-9.95 9.2 7.1q1.8 9.75-4.7 11.1-6.85 3.4-13.75-8.25m-58.6 49.55-3.15 2.2 3.15-2.2m-2.3 34.7q3.8-.85 4.8-2.5-3.4-11.55-5.4-13l-1.25 2.5q-1.55 1-3.1 13.6 3.2.35 4.95-.6m14.25 20.4-.2-.1v.1h.2m64.55 12.45.05.15v-.25l-.05.1" fill="#8a8a00" fill-rule="evenodd" transform="translate(-164.2 -2.5)"/><path d="m113.2 159.65-5-70.5q31.05-26.25 42.65-55.7 4.65-15.9 3.9-33.2l2.15 5.25q10.85 27.35 13.65 56.75 7 74.95-20.1 123.95l-40.2-22.65 37 27.4-21.3 33.95-45.45-28.95 37.95 33.3q-22 16.1-46.5 15-17.1-.75-35.4-9.9Q55.35 250 78.6 256.9q-22.25-4.1-41.3-15.45m-11.6-1.25-2.85 1.9-10.4 6.7m-4.65 3.5 1.4-1.2q1.3-1.1 3.25-2.3m27.7-92.85 2.15-6.85 6.6 20.4 8.4-33.4 5.5-3.85q7.6-5.7 15.9-13.45 9.35-8.75 19.65-20.2l14.85 61.05v.05-.05q23.75-30.25 40.55-65.15m-113.6 61.45q-12.3 41.45-5.1 77.4l.1.3-4.8 3.35q-1.35-4.65-2.55-9.3-6.35-24.45-8.45-49.75 5.3 30.9 15.7 55.4m.2.25 6.35-4.7q20.85-15.55 38.9-32.95l8.45-8.5 9.25-9.95 11.95-14 3.05-3.8v.05-.1m-2.95 3.9-.1-.05M25.7 240.2l1.5-1 3.15-2.2m4.8-3.35 1.4.7m-1.4-.7-.1-.3m.2.25-.1.05" fill="none" stroke="#000" stroke-linecap="round" stroke-linejoin="round" stroke-opacity=".388" stroke-width=".5"/><path d="M272.4 281.75q-.65.25-1.65 0t-1.7-.9q-.65-.55-.65-1.2 0-.6.65-.9l1.7.05q1 .25 1.65.85.7.65.7 1.25 0 .65-.7.85M293.45 300.9l-1.65.25q-1-.15-1.7-.65-.65-.5-.65-1.15 0-.6.65-.95l1.7-.2q1 .1 1.65.6.7.55.7 1.15 0 .65-.7.95" fill="#ffffd7" fill-rule="evenodd" transform="translate(-164.2 -2.5)"/></g></defs></svg>