<svg viewBox="0 0 45.706 39.906" xmlns="http://www.w3.org/2000/svg" xmlns:xlink="http://www.w3.org/1999/xlink"><use transform="matrix(.6497 -.758 .758 .6497 -4.59 8.92)" width="19.2" height="58.35" xlink:href="#a"/><defs><linearGradient id="c" x1="-819.2" x2="819.2" gradientTransform="matrix(.0193 -.0152 .0169 .0213 11.8 25.65)" gradientUnits="userSpaceOnUse"><stop stop-color="#a44243" offset=".231"/><stop stop-color="#ffa4a4" offset="1"/></linearGradient><use width="19.2" height="58.35" xlink:href="#b" id="a"/><g id="b"><path d="M8.8 0q3.5 0 7.05 5.55l1.05 1.8 1.6 5.9-6.65 1.8h6.85L18 20.2q-1.15 7.3-2.75 12.6h-2.5l1.65 2.55q-2.3 6.35-5.4 9.3v13.2l-2.15-13.2q-4.3-5.1-5.75-13.5-.4-2.4-.55-5-.25-3.5-.1-7.45l.2-3.2 4.9-1.6L0 13.2l.2-1.65.15-1.45.35-2.75.8-1.4 1.4-2Q5.85 0 8.8 0l.35 1.5L8.8 0 7.65 1.8q-.7 7.35-.95 14.75l-.05.7-.05 1.6-.1 2.8-.05 4.2v.3q-.1 9.2.4 18.5-.5-9.3-.4-18.5v-.3l.05-4.2.1-2.8.05-1.6.05-.7q.25-7.4.95-14.75L8.8 0m.15 4.6-.3 5.1-.05 1.6-.05 1.3-.1 5.05-.05 1.3v8.6-8.6l.05-1.3.1-5.05.05-1.3.05-1.6.3-5.1m-5.5 18.55-1.6-.95 1.6.95m6.7 6.85 3.75-.55-3.75.55M8.6 35.75l-.2-7.55.2 7.55h3.5-4.05.55l.4 8.9-.4-8.9m-2.8-7.7-5.25-1.9 5.25 1.9m-1.15 4.6-3.55-1.5 3.55 1.5M8.4 28.2v-.65.65m.65-3.4 7.05-2.25-7.05 2.25" fill="#f5f0e9" fill-rule="evenodd" transform="translate(.25 .25)"/><path d="M9.05.25q3.5 0 7.05 5.55l1.05 1.8 1.6 5.9-6.65 1.8h6.85l-.7 5.15q-1.15 7.3-2.75 12.6H13l1.65 2.55q-2.3 6.35-5.4 9.3v13.2L7.1 44.9q-4.3-5.1-5.75-13.5-.4-2.4-.55-5-.25-3.5-.1-7.45l.2-3.2 4.9-1.6-5.55-.7.2-1.65.15-1.45.35-2.75.8-1.4 1.4-2Q6.1.25 9.05.25l.35 1.5M9.05.25 7.9 2.05Q7.2 9.4 6.95 16.8l-.05.7-.05 1.6-.1 2.8-.05 4.2v.3q-.1 9.2.4 18.5m1.55-17.1v-8.6l.05-1.3.1-5.05.05-1.3.05-1.6.3-5.1m-.55 23.6.2 7.55.4 8.9M2.1 22.45l1.6.95m10.45 6.3-3.75.55M8.85 36h3.5M.8 26.4l5.25 1.9m2.8 7.7H8.3m-6.95-4.6 3.55 1.5m3.75-5.1v.65m7.7-5.65L9.3 25.05" fill="none" stroke="#844920" stroke-linecap="round" stroke-linejoin="round" stroke-width=".5"/><path d="m8.8 0 .35 1.5-.2 3.1-.3 5.1-.05 1.6-.05 1.3-.1 5.05-.05 1.3v8.6q-.85 4.95-1.75-10.3l.05-.7q.25-7.4.95-14.75L8.8 0" fill="#f5f0e9" fill-rule="evenodd" transform="translate(.25 .25)"/><path d="M9 44.65v13.2l-2.15-13.2q-.5-9.3-.4-18.5v-.3l.05-4.2.1-2.8.05-1.6q.9 15.25 1.75 10.3v.65l.2 7.55h-.55.55l.4 8.9" fill="#c0ac9e" fill-rule="evenodd" transform="translate(.25 .25)"/><path d="M8.8 0q3.5 0 7.05 5.55l1.05 1.8 1.6 5.9-6.65 1.8h6.85L18 20.2q-1.15 7.3-2.75 12.6h-2.5l1.65 2.55q-2.3 6.35-5.4 9.3l-.4-8.9-.2-7.55v-9.25l.05-1.3.1-5.05.05-1.3.05-1.6.3-5.1.2-3.1L8.8 0 7.65 1.8q-.7 7.35-.95 14.75l-.05.7-.05 1.6-.1 2.8-.05 4.2v.3q-.1 9.2.4 18.5-4.3-5.1-5.75-13.5-.4-2.4-.55-5-.25-3.5-.1-7.45l.2-3.2 4.9-1.6L0 13.2l.2-1.65.15-1.45.35-2.75.8-1.4 1.4-2Q5.85 0 8.8 0m3.3 35.75H8.6h3.5m-8.65-12.6-1.6-.95 1.6.95m3.1-14.2-4.35-1 4.35 1M10.15 30l3.75-.55-3.75.55m.45-12.5 2.5-.35-2.5.35M4.65 32.65l-3.55-1.5 3.55 1.5m1.15-4.6-5.25-1.9 5.25 1.9m3.25-3.25 7.05-2.25-7.05 2.25" fill="url(#c)" fill-rule="evenodd" transform="translate(.25 .25)"/><path d="M9.05.25q3.5 0 7.05 5.55l1.05 1.8 1.6 5.9-6.65 1.8h6.85l-.7 5.15q-1.15 7.3-2.75 12.6H13l1.65 2.55q-2.3 6.35-5.4 9.3v13.2L7.1 44.9q-4.3-5.1-5.75-13.5-.4-2.4-.55-5-.25-3.5-.1-7.45l.2-3.2 4.9-1.6-5.55-.7.2-1.65.15-1.45.35-2.75.8-1.4 1.4-2Q6.1.25 9.05.25l.35 1.5m-.2 3.1-.3 5.1-.05 1.6-.05 1.3-.1 5.05-.05 1.3v8.6m0 .65.2 7.55.4 8.9M9.05.25 7.9 2.05Q7.2 9.4 6.95 16.8l-.05.7-.05 1.6-.1 2.8-.05 4.2v.3q-.1 9.2.4 18.5" fill="none" stroke="#000" stroke-linecap="round" stroke-linejoin="round" stroke-width=".05"/><path d="M8.65 27.8v.65m.2 7.55H8.3" fill="none" stroke="#e95c3a" stroke-linecap="round" stroke-linejoin="round" stroke-width=".05"/><path d="M8.85 36h3.5M2.45 8.2l4.35 1M2.1 22.45l1.6.95m9.65-6-2.5.35m3.3 11.95-3.75.55M1.35 31.4l3.55 1.5M.8 26.4l5.25 1.9m10.3-5.5L9.3 25.05" fill="none" stroke="#29611f" stroke-linecap="round" stroke-linejoin="round" stroke-width=".05"/></g></defs></svg>