<svg viewBox="0 0 89.75 168.05" xmlns="http://www.w3.org/2000/svg" xmlns:xlink="http://www.w3.org/1999/xlink"><use transform="translate(.03 .025)" width="89.7" height="168" xlink:href="#a"/><defs><g id="a"><path d="m300.9 125.85.95-2.3-.65 5.05-.1.8-.25-.05.3-.75.05-.05.35-2.5-.2.05-.45-.25m8.25 38.2-.05 1.1.05-1.1M270.7 203.5l.1-.05-2.2 4.8 1.45-3.35.4-.75-.55-.25.8-.4-.25.65.25-.65" fill="#fed067" fill-rule="evenodd" transform="translate(-246.35 -84.6)"/><path d="m298.65 135.65-.1-.05.1.05m-33.05 50.6-.05.05h-.05l.1-.05m28.3-19.6v.05l-.05-.05h.05" fill="#fc0" fill-rule="evenodd" transform="translate(-246.35 -84.6)"/><path d="m283.6 174.7.05-.05-1.65 3.75-.7 1.5.65-1.5 1.65-3.7m17.3-48.85.45.25.2-.05-.35 2.5-.05.05-.3.75-2.1 1.9 2.15-5.4m-30.65 15.6-.1.25v-.05l.1-.2" fill="#cd8f01" fill-rule="evenodd" transform="translate(-246.35 -84.6)"/><path d="m297.15 136.95-.2.35-.1-.2.3-.15m-7.1 18.05-.35 1.05-.55-.15.9-.9m-6.4 19.65.3.05-1.5 3.7-.1.25-11.55 24.8-.1.05.05-.05.85-1.95 9.7-21.6.7-1.5 1.65-3.75M270.2 136.3l-.35.3-.1-.8.45.5m12.15 42.35.05-.1.05-.15-.1.15v.1m-7.6 7.9.25-.75.5-1.6 1-.75-1.55 3.2-.2-.1" fill="#f1bb01" fill-rule="evenodd" transform="translate(-246.35 -84.6)"/><path d="m292.75 147.35.05-.05-.15.3-.05-.1.15-.15-.1.25.1-.25M277.4 181.6l-.1-.1.3-.3-.2.4" fill="#f7c75a" fill-rule="evenodd" transform="translate(-246.35 -84.6)"/><path d="m261.2 214.9 1.4.6q-6.8 12.6-4.2 28.4l-5-6.45-1.6-2.05 1.2-3.2 6.65-18 1.55.7-.85 1.7.85-1.7" fill="#8f6f01" fill-rule="evenodd" transform="translate(-246.35 -84.6)"/><path d="m258.4 243.9-8.85 6.25q3.35-5.75 4.2-12.2l-.35-.5 5 6.45" fill="#473201" fill-rule="evenodd" transform="translate(-246.35 -84.6)"/><path d="M315.4 147q-7.4 1.35-4.25 3.7 3.1 2.3 4.5 3.55 1.35 1.25-2.85.7l-4.2-.45v.15l.05.25v.15q.65 4.4.5 9l-.05 1.1-.1 1.05q-.1 1.15-10.25 3.2.45-.65-4.85-2.75h-.05l.05.05q2.7 8.05 8.35 14.25l.35.65 2.75.65-.55 1.35-.85 2.1-2.55 5.4-12.65-5.4 11 13.25q-6.8 4.7-10.05 7.7l-4.9 3.9q-10.35 7.2-19.35 5.1l-.1-1.05.1 1.05-1.25-.3 5.7-11.45.55.25-.4.75-1.45 3.35 2.2-4.8 1.05-.45q5.95-2.4 9.25-8.2 4-7.05 9-12.75l.35-1.7q-3.25-4.05-3.25-11 .05-1.3.9-2.25.85-1 2.05-1.45l1.2-.3.45.15v-.35l.25.3q-.85-.85-1.2-2.1l.35-2.95q.05-.35.45-.65l.05-4.65 3.4-9.05 20.3.95m-47.75 63.25.45-.9.5-1.1-.5 1.1-.45.9" fill="#ecdfc6" fill-rule="evenodd" transform="translate(-246.35 -84.6)"/><path d="M301.85 123.55 309 103.9l7-19.3q-1.7 9-2.05 16.85l22.1-11.6q-13.9 12.65-22.15 20.6-1.35 18.2 5.25 21.85-12.2 3.85-3.75 14.7l-20.3-.95-3.4 9.05-.05 4.65q-.4.3-.45.65l-.35 2.95q.35 1.25 1.2 2.1l-.25-.3v.35l-.45-.15-1.2.3q-1.2.45-2.05 1.45-.85.95-.9 2.25 0 6.95 3.25 11l-.35 1.7q-5 5.7-9 12.75-3.3 5.8-9.25 8.2l-1.05.45 11.55-24.8.1-.25 1.5-3.7-.3-.05-.05.05.65-1.95.7-2.2.6-1.8.55-1.7.15-.6.5-1.4 1.2-3.8.65-1.85 1.1-3.3v-.05.05l-.55-.2.55.15.35-1.05 1.6-4.5 1-2.8v-.1l.15-.3-.05.05q2.65-7.25 4.2-10.05l.2-.35q.95-1.75 1.4-1.35l.1.05q1.2 1.15 2.45-6.25l.1-.8.65-5.05m-3.1 45.85-1.55.3q10.7 5.55 8.15 12.55l-2.75-.65-.35-.65q-5.65-6.2-8.35-14.25v-.05q5.3 2.1 4.85 2.75m-28.45-33-.4.4-.05-.2.35-.3.1.1m-20.75 113.75-2.7 1.9-.5-.45v-10.55l5.3-6.7.15 1.05 1.6 2.05.35.5q-.85 6.45-4.2 12.2m1.8-13.55.45-1.2-.45 1.2" fill="#dbc493" fill-rule="evenodd" transform="translate(-246.35 -84.6)"/><path d="M278.6 127.8q12.4 2.1 19.75-2.2 1.3-.4 2.55.25l-2.15 5.4q-11.25 9.25-22.95 4.95l-1.45 2.15.75 1.25 1 1.1q3.1 1.5 6.5 2.65 7.3-2.7 14.25-6.25l.1.2q-1.55 2.8-4.2 10.05l-.15.15q-16.1 12.8-35.45 22v.8q0 1.8 1.3 3.15 16.2-5.95 30.7-17.55l.55.2-1.1 3.3-.65 1.85-1.2 3.8q-13.65 6.7-25.15 16.55l.5 1.45 1.1 1.7 1.55-.05 8.45-4.55 3.05-1.9 2.8-1.8 5.2-3.7-.65 1.95-1.65 3.7-.65 1.5-9.7 21.6-.85 1.95-.05.05-.8.4-5.7 11.45-.95-.35-.4-.15-.55-.2-.8-.4 12.3-25.2-12.3 25.2-1.55-.85-1.3-.85h-.05q-5-3.7-11.3-19.5l13.5-6.5-13.7-2.2q1.95-7.45 7.25-19.8l1.9-4.1 12.7-.5 2.15-.1-.4-.4-13.4-4.85 12.85-12.9.1-.25-.35-4.65.4-.4 2.45 2.65 2.95-2.95 3.55-3.4q.75-.15-3.75-5.55l3.1.65m-17.25 81.8-2.7 2.95 2.7-2.95m18-32-.55 1.2.55-1.2m-2.05 3.9-2.05 1.65-1.75.5-.85.35-4.05 1.05-1.75.2-1.25 1-.1.05h.05l-3.15 2.15q-7.7 4.55-5.25 12.25 1.45 0 2.3-.7l12.5-10.95 1.55-1.35 1.25-1.15.2.1 1.55-3.2.9-1.85.2-.4-.3.3m-3.5 7.55q.75-.5.45-.9l-.45.9" fill="#d0b375" fill-rule="evenodd" transform="translate(-246.35 -84.6)"/><path d="M278.6 127.8q5.9 0 3.9-11.8l9.55-4.15-1.95-7.2q-.3-.95 1.15-.95 2.95.8 4.25 3.65l.45.8-.3 2.1 6.8-3.2-1.25-16.25.55-.2q2.9 7.2 4 14.9l3.25-1.6-7.15 19.65-.95 2.3q-1.25-.65-2.55-.25-7.35 4.3-19.75 2.2m22.5 1.6q-1.25 7.4-2.45 6.25l-.1-.05q-.45-.4-1.4 1.35l-.3.15q-6.95 3.55-14.25 6.25-3.4-1.15-6.5-2.65l-1-1.1-.75-1.25 1.45-2.15q11.7 4.3 22.95-4.95l2.1-1.9.25.05m-8.45 18.2v.1l-1 2.8-1.6 4.5-.9.9q-14.5 11.6-30.7 17.55-1.3-1.35-1.3-3.15v-.8q19.35-9.2 35.45-22l.05.1m-5.9 17.45-.5 1.4-.15.6-.55 1.7-.6 1.8-.7 2.2-5.2 3.7-2.8 1.8-3.05 1.9-8.45 4.55-1.55.05-1.1-1.7-.5-1.45q11.5-9.85 25.15-16.55m10.6-30.45 1.4-3.35-1.4 3.35m-20.05 46.9.1.1-.9 1.85-1 .75-.5 1.6-.25.75-1.25 1.15-1.55 1.35-12.5 10.95q-.85.7-2.3.7-2.45-7.7 5.25-12.25l3.15-2.15.05-.05 1.25-1 1.75-.2 4.05-1.05.85-.35 1.75-.5 2.05-1.65" fill="#e7d6b6" fill-rule="evenodd" transform="translate(-246.35 -84.6)"/><path d="m62.65 19.3-3.25 1.6q-1.1-7.7-4-14.9l-.55.2 1.25 16.25-6.8 3.2.3-2.1-.45-.8q-1.3-2.85-4.25-3.65-1.45 0-1.15.95l1.95 7.2-9.55 4.15q2 11.8-3.9 11.8l-3.1-.65q4.5 5.4 3.75 5.55l-3.55 3.4-2.95 2.95-2.45-2.65-.1-.1-.45-.5.1.8.05.2.35 4.65-.1.25L10.95 70l13.4 4.85.4.4m37.9-55.95 7-19.3q-1.7 9-2.05 16.85l22.1-11.6Q75.8 17.9 67.55 25.85 66.2 44.05 72.8 47.7q-12.2 3.85-3.75 14.7-7.4 1.35-4.25 3.7 3.1 2.3 4.5 3.55 1.35 1.25-2.85.7l-4.2-.45v.15l.05.25m0 .15q.65 4.4.5 9l-.05 1.1-.1 1.05q-.1 1.15-10.25 3.2l-1.55.3q10.7 5.55 8.15 12.55L58.45 99l-.85 2.1-2.55 5.4-12.65-5.4 11 13.25q-6.8 4.7-10.05 7.7l-4.9 3.9q-10.35 7.2-19.35 5.1l-1.25-.3M52.2 51q-.45-.4-1.4 1.35l-.2.35q-1.55 2.8-4.2 10.05m-.1.25v.1l-1 2.8-1.6 4.5-.35 1.05v.05l-1.1 3.3-.65 1.85-1.2 3.8m-.5 1.4-.15.6-.55 1.7-.6 1.8m-.7 2.2-.65 1.95M36 94.05l-11.55 24.8-2.2 4.8-.5 1.1-.45.9M46.3 63l.1-.25m-23.8 12.6-12.7.5-1.9 4.1Q2.7 92.3.75 99.75l13.7 2.2-13.5 6.5q6.3 15.8 11.3 19.5h.05M36 94.05l.05-.1.05-.15-.1.15v.1m-1.05 1.25.65-1.5 1.65-3.7m-2.3 5.2-9.7 21.6-.85 1.95-.05.05-.25.65-.4.75-1.45 3.35m-7.1 6 .8.4.55.2.4.15.95.35m-4.25-1.95-1.3-.85m2.85 1.7-1.55-.85" fill="none" stroke="#8f6f01" stroke-linecap="round" stroke-linejoin="round" stroke-width=".05"/><path d="m54.55 41.25.95-2.3 7.15-19.65M19.1 131.05l.1 1.05.8 9.85m34.55-100.7-2.15 5.4L51 50m-38.7 77.95L15 125m17.45-30.8L33 93m-2.85 5.85.9-1.85m-3.6 7.45-12.3 25.2-.3.65L14 132m5-2 .1 1.05m-6.8-3.1-1.15 1.25L3 138m8.15-8.8L2 138m14-4-2 12m3-13 2 9m-7-12-8 15" fill="none" stroke="#c78b01" stroke-linecap="round" stroke-linejoin="round" stroke-width=".05"/><path d="m13.3 129.6-.7-.35m3.9 1-.25.65 2.95 1.2m-4.35-1.8 1.4.6q-6.8 12.6-4.2 28.4l-8.85 6.25-2.7 1.9-.5.55m14.85-37.7-1.55-.7-6.65 18-1.2 3.2 1.6 2.05 5 6.45m1.55-30.5-.3.8m-8 20.15 1.35-2.15m-1.2 3.2L5 152m-5 15v-10.55l5.3-6.7.15 1.05" fill="none" stroke="#553c00" stroke-linecap="round" stroke-linejoin="round" stroke-width=".05"/></g></defs></svg>