<svg viewBox="0 0 80.81 63.25" xmlns="http://www.w3.org/2000/svg" xmlns:xlink="http://www.w3.org/1999/xlink"><g transform="translate(-259.4 -199.9)"><use transform="translate(259.4 199.9)" width="80.8" height="63.25" xlink:href="#a"/><use transform="translate(293.99 213.01) scale(.2069)" width="147.8" height="67.5" xlink:href="#b"/><use transform="translate(293.14 213.01) scale(.2069)" width="147.8" height="67.5" xlink:href="#c"/></g><defs><use transform="translate(-4.3 67.95) scale(1.7578)" width="147.8" height="67.5" fill="#c60" xlink:href="#d" id="b"/><use transform="translate(-4.3 67.95) scale(1.7578)" width="147.8" height="67.5" fill="#930" xlink:href="#d" id="c"/><path d="M39.2 0v-1.75L37.5-2q-1.1-.25-1.55-.45-.85-.45-1.1-1.05-.3-.6-.3-1.5v-25.55q0-.85.3-1.55.25-.7 1.1-1l1.55-.35 1.7-.25v-1.75H24.45v1.75l1.7.3 1.6.6 1.15 1.05.3 1.45v10.75H12.55v-11q0-.85.3-1.55.25-.7 1.1-1l1.55-.35 1.7-.25v-1.75H2.45v1.75l1.7.3 1.6.6q.8.35 1.15 1.05l.3 1.45v25.6q0 .95-.35 1.6-.35.6-1.1.9l-1.55.3-1.75.15V0H17.2v-1.75L15.5-2l-1.55-.45q-.85-.45-1.1-1.05-.3-.6-.3-1.5v-12.35H29.2V-4.7q0 .95-.35 1.6-.35.6-1.1.9l-1.55.3-1.75.15V0H39.2" fill-rule="evenodd" id="d"/><g id="a"><path d="M304.95 202.3q-.2-.65-.1-1.65-.1 1 .1 1.65m-32.3 2.25v-.1q0-.5.7-.9 1.45-.95 6-1.65l1.1-.2 3.15-.4 3.15-.25 3.75-.25q4.1-.25 8.8-.2 2.85-.05 5.55.05l13.3 1.05q7.8 1.15 7.8 2.75v.15q-.15.55-1.2 1.05l-.05-.1-.05.1q-1.9.85-6.5 1.55l-6.3.65 3.5-.4q6.75-.85 6.75-2.05l-.25-.45.25-.3q0-.8-5.25-1.35l-1.5-.15-8-.45-7.95-.15h-.7l-7.95.15-7.2.4h-.1l-.7.05-3.15.35q-.4-.75-.25-1.6-.15.85.25 1.6-2.65.35-3.35.8l-.25.35.2.25.1.05q-.3.2-.3.45 0 1.2 6.75 2.05l.55.1-2.85-.35q-7.6-1.15-7.8-2.65v-.1.1m.05 54.5v-.1.1M295 202.3q-.05-.85-.45-1.3.4.45.45 1.3m-4.35 0q.1-.7-.15-1.5.25.8.15 1.5m8.6 0 .1-1.45-.1 1.45m-15.65-1q.35 1.1-.05 1.8.4-.7.05-1.8m-7.6 1.6.25 1.4-.25-1.4m40.9-.9q.4.4-.05 1.3.45-.9.05-1.3m-29.6.45q-.05-.8-.55-1.4.5.6.55 1.4m23.5 0 .15-1-.15 1m11 1.45q.3-.65.9-1-.6.35-.9 1" fill="#79500b" fill-rule="evenodd" transform="translate(-259.4 -199.9)"/><path d="m307.55 205 4.25.1.2-.15.1-.05.1-.3v-.1l-.05-.05-.05-.2-.05-.1-.55-.2-4.9-.15-12.65-.05-.25.05-.1.05-.1.15-6.85-.05-5.1.4-.05.05-.05.2v.25l.05.1.25.2 4.25.1.45-.05 21-.15.1-.05m-28.6-.25q0-.55 6-.9 5.95-.35 14.45-.35t14.5.35 6 .9q0 .5-6 .85t-14.5.35-14.45-.35q-6-.35-6-.85" fill="#f0df13" fill-rule="evenodd" transform="translate(-259.4 -199.9)"/><path d="m293.5 204 .1-.15.1-.05.25-.05 12.65.05 4.9.15.55.2.05.1.05.2.05.05v.1l-.1.3-.1.05-.2.15-4.25-.1h.05l.15-.2.05-.15v-.25l-.1-.2-.1-.1-.35-.05-13.75-.05" fill="#fff" fill-rule="evenodd" transform="translate(-259.4 -199.9)"/><path d="m285.8 227.65-.5-.1q-.85-1.25.2-2.85l2.15-4.6q1.1-3.05.95-6.2.5.2.05-.5l5.3.15 6.4.55.1.1.1-.1 4.55-.05q4.2-.25 4.65 3.85 1.45.1 1.65.55.25 5 4.55 8.8l.25.35q.4.9-.2 1.15l-.15.05h-.15l-2.75.15q-1.3.15-2.6-.8l-.7.85.7-.85q-.35.95-.65.85h-.05l-.95-.4-2.1-.2-3.8.05-5.65.25-4.85.35-4.05.35q.3-.8-1.15-.7l-.65.1-.45-1.1q-.4-.9-.25-.3l.05.25m22.9-3.6-.1-.5.05-.05q.45.65.15.7l-.1-.15m-2.3-9.05-.1.05-.2.25-.05.1-.05 1 .6 8.1q-1.95.55-3.35 1.95v.35l.25.55 10.95-.3.2-.35.05-.2-.1-.35-.15-.2-3.25-.65v-.1l-2.85-6.1-.05-.3-1.1-3.7-.2-.1-.25-.1-.35.1" fill="#f8b97a" fill-rule="evenodd" transform="translate(-259.4 -199.9)"/><path d="m286.8 218.85.45-1.65q.65-2.6.2-5.05h.7l4.9.3 1.45.2q-1.75.8 1.55.5 3.1-.25 4.3.95l-6.4-.55-5.3-.15q.45.7-.05.5.15 3.15-.95 6.2l-2.15 4.6q-1.05 1.6-.2 2.85l.5.1q.3 1.25-.25 1.6h-3.15q.95-2.05 2.8-4.75 1.85-2.65 1.6-5.65m5.5 10.2 4.85-.35 5.65-.25 3.8-.05 2.1.2.95.4-.6.25-2.45.05-4.85-.05-.25-.65v.65h-7.35l-1.85-.2m23.55-.25.15-.05q.6-.25.2-1.15l.25.45.45.8-1.05-.05m.1-1.55q-4.3-3.8-4.55-8.8l.25.5 2.75 5.35.2.35 1.35 2.6m-6.2-9.35q-.45-4.1-4.65-3.85l-4.55.05q1.6-1.2 3.45-1.15l3.1-.05 2.55-.2q.65.7.75 1.8.05 1.6-.65 3.4" fill="#db7511" fill-rule="evenodd" transform="translate(-259.4 -199.9)"/><path d="m338.1 228.45 1 1.1q-.7-.05-1-1.1m1.1 1.15.35.55q.4.65-.2 1.1l-.55.25q.4-.75.4-1.5v-.4m-4 4.75q-2.65 5.55-9.25 24.6-.35 1.5-7.8 2.6l-18.85 1.1-18.85-1.1q-7.15-1.05-7.75-2.5v-.1q-6.05-18.35-8.6-24.3l.4.2q-.15.95 1.05 1.3l1.45.5q.7 2.05 1.75 4.1 3.75 7.55 6.8 15.4.2.65.9.7h.1l.15.55-.15-.55q2.85.1 4.7-1.4l.3 1.65-.3-1.65q1.35-1.05 2.2-2.9l2.2-4.9 1.5-3.2q1.05-2.3 2.25-4.5l.15-.35h1.4q1.35.5 1.9 0l1.25.05-1.4 2.45-1.9 3.6-.3.5q-1.1 1.7.85 2.25l2.75.45h1.65q3.1-.2 6.25.05l3.85.45 3.45.55 4.25.55.35-.1 2.7-2.15-.95 7.95.95-7.95q2.55-2.35 4.55-5.2l-1.85 3.45-1.55 2.35q-1.4 1.6.35 2.75l1-.1q2.1-2.4 3.8-5.2l-3.7 7.15q-1.05 1.95-3.55 2.75l-7 .4.65-6.65-.65 6.65-6.35-1.25-.65-.15-7.7-1.6.15-4.7-.15 4.7-6.6-.2-.2-8.95.2 8.95q-.8.15-1.15.55-1.6 1.55-4.65 3.15l-2.35 1.2-.35-.35-.1.05-.15.05h-.1l-1.75-.65h-.05l-2.3-.8q-.7-.8-.85-1.75l-.45-.4-.05-.1-.2-.65v-.35l-.05-.1-1.5-5.45-.35-1.3-1.3-1.75q-1-1.25.9 3.4l-.05.2q-.1.25-.05.55l.05.1.2.2v.15l.25.75-.05.2-.05.65.6.9v.3l.1.15.2.2v.3l.05.1q.3.4.25 1l.05.1.2.2q.05.7.6 1.2v.25q-.05.15.05.3l1.1 1.45 1.6.35-1.25.2 7.3 1.45 17.85 1.05 17.8-1.05q7.05-1.05 7.35-2.45 5.4-15.55 8-21.6l2.5-1m-74.5-5.8.4-.5.35-.3.45-.5q3.1-3.45 4.9-6.65 3.6-6.55 5.85-16.05.2 1.5 7.8 2.65l2.85.35 1.65.15 14.1.6h.75l12.05-.45 6.3-.65q4.6-.7 6.5-1.55-.5 1.25-6.05 2.15l-1.25.2-5.05.6-.05-.35.05.35-5.4.35-4.4.1q.85.7 4.55 1.2h.15l5.55.45q.45 7.95 1.85 13.95-1.4-6-1.85-13.95l2.75.15 4.25.65q.3 3.8 1.55 6.85l.7 3.3.6 2.35.5 2.1q.8 2.9 2.85 5.55l.25.3.2.85q-2.4-.9-2.5-.7l-.05.35v.15l-.55.1-5.8 1H314q-5.25-.2-10.4-.05l-1.65.15-.45.05-.1-.7.1.7q-3.35-.1-7.1-.05h-.1q-.4-1.1-.15-1.1h.2l.05 1.1-.05-1.1 7.05.45q.6-2.6.35-3.9l4.85.05 2.45-.05.6-.25h.05q.3.1.65-.85 1.3.95 2.6.8l2.75-.15h.15l-.1.05.1-.05 1.05.05-.45-.8-.25-.45-.25-.35-1.35-2.6-.2-.35-2.75-5.35-.25-.5q-.2-.45-1.65-.55.7-1.8.65-3.4-.1-1.1-.75-1.8l-2.55.2.1-2.65-.1 2.65-3.1.05q-1.85-.05-3.45 1.15l-.1.1-.1-.1q-1.2-1.2-4.3-.95-3.3.3-1.55-.5l-1.45-.2-4.9-.3h-.7q.45 2.45-.2 5.05l-.45 1.65-3.8-4.95q-3.8-2.25-5.8-4.05l.55-1.75-.55 1.75-2.05-2-.15-.1-.3-.1-.4.1-.2.25-.1.2-.05.2-1 3.1-.25.2-.15.2q-.8 2.25-2.1 4.25l-.05.1-.1.25-.75 1.05-.1.35.3.25 1.15.8-1.25-.45-.45-.05-.2.4q-.3.45.3.9-1.95 1.7-2.9 3.45l-.2.25-.1.1q-1.3 2-3 3.8-.1.8.7 1.25l.85.4q2.4 1.15 6 2.15l2.4.6 10.7 1.35h.1l3.75-.25q.15.2.35.2l.3-.2 5.05 1h-4.55l-.9-.05-.6-.05-1.3-.1h-.4l-.25-.05-1.55-.5 1.55.5-5.65-.55-8.85-1.25q-8.55-2-9.15-3.35l-.1-.3-.85.4m27.65-20-.2 3.6.2-3.6m5.5.3q.75 0 .65 3.8.1-3.8-.65-3.8m-10.45-.9-.4 5.95.4-5.95m28 10.5-.2-.5-1.45-.05 1.45.05.2.5m-10.95-4.35h.1-.1v.1-.1h-.1.1l-.65-5.8.65 5.8m-30.7 4.05-.1.35.1-.35M274 206.2q-2.15 5.15-3.7 10.3 1.55-5.15 3.7-10.3m-9.6 23.35.25-.55-.25.55m6.9 18.5v-.2l1.05 4.25v-.05l-.2-.2v-.35l-.55-.95.05-.25.1-.3-.05-.15-.45-1.3v-.2l.05-.3m7.55 9.9.15-.25-.1-.1q-.5-.05-.05.35m36.85-29.15.05.05-.05-.05m.05.05 1.55 4.05-1.55-4.05-3.1.55q-1.3 0-2.3-1.25 1 1.25 2.3 1.25l3.1-.55m-5.4 4.15-1.3-3.75 1.3 3.75m-.75 13.55-.2-.1.25-.05-.05.15.05-.15.25.25h-.05l-.25-.1m13.9-7.5h.3l-1.1 1.6.8-1.6m-35.9-6.2-.85.7-.8.1.8-.1.85-.7m7.7 12.35q.05.7-.35.45l.1-.1.15-.35h.1m6.7 3.75-.35 6.25.35-6.25m-15.25-15.4 1.2-.5-1.2.5m31.75-26.15.1.4-.1-.4" fill="#754d0b" fill-rule="evenodd" transform="translate(-259.4 -199.9)"/><path d="m283.3 207.55-.55-.1q-6.75-.85-6.75-2.05 0-.25.3-.45 1.05.65 6.45 1.15l.55.05 15.75.6h.25l12.55-.35 3.5-.3q5.4-.5 6.5-1.15l.25.45q0 1.2-6.75 2.05l-3.5.4-12.05.45h-.75l-14.1-.6-1.65-.15" fill="#643609" fill-rule="evenodd" transform="translate(-259.4 -199.9)"/><path d="M283.45 203.1h.1l7.2-.4 7.95-.15h.7l7.95.15 8 .45 1.5.15q5.25.55 5.25 1.35l-.25.3q-1.1.65-6.5 1.15l-3.5.3-12.55.35h-.25l-15.75-.6-.55-.05q-5.4-.5-6.45-1.15l-.1-.05-.2-.25.25-.35q.7-.45 3.35-.8l3.15-.35.7-.05m-4.5 1.65q0 .5 6 .85 5.95.35 14.45.35t14.5-.35 6-.85q0-.55-6-.9t-14.5-.35-14.45.35q-6 .35-6 .9m-2.75.15.05-.6-.05.6" fill="#222b33" fill-rule="evenodd" transform="translate(-259.4 -199.9)"/><path d="m307.55 205-.1.05-21 .15-.45.05-4.25-.1-.25-.2-.05-.1v-.25l.05-.2.05-.05 5.1-.4 6.85.05 13.75.05.35.05.1.1.1.2v.25l-.05.15-.15.2h-.05" fill="#f1b425" fill-rule="evenodd" transform="translate(-259.4 -199.9)"/><path d="m285.8 227.65-.05-.25q-.15-.6.25.3l.45 1.1.65-.1q1.45-.1 1.15.7l4.05-.35 1.85.2h7.35l-.1 3.9-7.05-.45h-.2q-.25 0 .15 1.1h.1l.05.4-.45-.4-.7.05-5.05-1-.3.2q-.2 0-.35-.2l-3.75.25h-.1l-10.7-1.35-2.4-.6q-3.6-1-6-2.15 2.4-3.85 4.65-9.25l.35-1.25 1.25.45-1.15-.8.55-1.65.1-.25.05-.1q1.3-2 2.1-4.25l.15-.2.25-.2 1-3.1.05-.2.1-.2.2-.25.4-.1.3.1.15.1 2.05 2q.6 3.95-6.55 21.3 7.15-17.35 6.55-21.3 2 1.8 5.8 4.05l3.8 4.95q.25 3-1.6 5.65-1.85 2.7-2.8 4.75h3.15q.55-.35.25-1.6l.2.05-.2-.05m8.55 5.05-.2-3.45.2 3.45m-.8.75.45.35-.45-.35m-8-4.2q-1.1 3.6-1.7 3.85.6-.25 1.7-3.85m1.55-.55 1.15.7-1.15-.7m-8.9 3.45q3.65-8.65 4.8-18.25-1.15 9.6-4.8 18.25" fill="#76400a" fill-rule="evenodd" transform="translate(-259.4 -199.9)"/><path d="M337.85 228.15h.05l-.05.05v-.05m-25.1-17.45-5.55-.45h-.15q-3.7-.5-4.55-1.2l4.4-.1.1 1 .05.3-.05-.3-.1-1 5.4-.35 5.05-.6 1.25-.2 1.15 3.7-1.15-3.7q5.55-.9 6.05-2.15l.05-.1.05.1q2.4 9.1 5.9 15.3 1.95 3.4 5.45 7.05l.5.5-9.45 3.3-.95.15-.25-.3-2.85-5.55 2.85 5.55q-2.05-2.65-2.85-5.55l-.5-2.1-1.3-5.65 1.3 5.65-.6-2.35-.7-3.3-1.55-6.85-4.25-.65-2.75-.15-.45-2.1.45 2.1m-5.75-.75.2.3-.2-.3m-28.5 48.1h.1l.15-.05.1-.05.35.35 2.35-1.2.25 1.3-.25-1.3q3.05-1.6 4.65-3.15.35-.4 1.15-.55l.1 5.85-.1-5.85 6.6.2 7.7 1.6-.3 4.8.3-4.8.65.15 6.35 1.25 7-.4-.35 2.75.35-2.75q2.5-.8 3.55-2.75l3.7-7.15 1.6-2.95.6-1.15 1.6-2.35.85-1.5.6-.6q.6-.7.65-1.2l3.9-1.2q-2.6 6.05-8 21.6-.3 1.4-7.35 2.45l-17.8 1.05-17.85-1.05-7.3-1.45 1.25-.2 2.85.3m43.3-.4 3.3-15.45-3.3 15.45m-27.95 2.2.1-6.25-.1 6.25m14.5-.15.3-3.1-.3 3.1m11.4-48.2 1.55 6.85q-1.25-3.05-1.55-6.85m17 17.15q.3.3.75 0l-1.3.8q-.75-.1.55-.8" fill="#271603" fill-rule="evenodd" transform="translate(-259.4 -199.9)"/><path d="m306.4 215 .35-.1.25.1.2.1 1.1 3.7.05.3 2.85 6.1v.1l3.25.65.15.2.1.35-.05.2-.2.35-10.95.3-.25-.55v-.35q1.4-1.4 3.35-1.95l-.6-8.1.05-1 .05-.1.2-.25.1-.05m2.3 9.05.1.15q.3-.05-.15-.7l-.05.05.1.5" fill="#f38d29" fill-rule="evenodd" transform="translate(-259.4 -199.9)"/><path d="m270.3 216.5-.55 1.65-.3-.25.1-.35.75-1.05m-.65 2-.35 1.25q-2.25 5.4-4.65 9.25l-.85-.4q-.8-.45-.7-1.25 1.7-1.8 3-3.8l.1-.1.2-.25q.95-1.75 2.9-3.45-.6-.45-.3-.9l.2-.4.45.05m31.85 10.75v-.65l.25.65q.25 1.3-.35 3.9l.1-3.9h.25-.25" fill="#80450b" fill-rule="evenodd" transform="translate(-259.4 -199.9)"/><path d="m337.75 228.05.45-.15-.45.2v-.05m.15.15.1.15.1.1q.3 1.05 1 1.1h.05l.05.05v.4q0 .75-.4 1.5-.9 1.5-3.6 2.85l-2.5 1-3.9 1.2-1.25.35-1.4.3-8.4 1.45-7.4.75v-.3.3l-2.5.15-5.3.1-.95.05h-2.3l-5.2-.05-1.25-.05q-12.45-.45-21.75-2.7-4-.95-6.6-2.05l-.4-.2q-2.5-1.1-3.7-2.35-1-1.05-1-2.25v-.25l.2-.85 1.1-.4.85-.4.1.3q.6 1.35 9.15 3.35l3.75.9q10.1 2.15 24.4 2.15l18.55-1.15 5.8-1 .55-.1.05.15.4.35-2.1.45-1.45.2-5.3.65-16.85.75q-13 0-22.2-1.4l-3.4-.6-.3-.05-.35-.1-4.05-.8-3.55-1.2-.15-.3-.3.15-.5-.25-.2-.2-.1-.25-.35.15-1.35-.6-.4.1-.2.25-.1.2v.3l.05.25.4.2-.1.45v.2q0 .9.95 1.75 1.15.95 3.55 1.8l.35.15q2.5.85 6.3 1.6 8.85 1.75 20.7 2.1l1.2.05 4.95.05 2.2-.05 5.95-.1q10.5-.45 18.6-2l.15-.05 1.2-.25 3.75-.95 2.35-.8q2.6-1.05 3.45-2.2l.4-1.1-.05-.25v-.15h-.05l-.75-.4.4-.55-.1-.35-.2-.2-.15-.1-.6-.1-.4.1-1 .65-.1.05h-.1l-.45.15q-2.45-.05-4.6 1.2l-2.2.1 9.45-3.3.1.1v.05h.05q-1.3.7-.55.8l1.3-.8.4-.45m-76-.95-.05-.05.05.05m64.25 9.95.05-.2-.05.2" fill="#3f4f5f" fill-rule="evenodd" transform="translate(-259.4 -199.9)"/><path d="m268.3 232.2 4.05.8.35.1-2.4-.45-2-.45m-5.6-.55-.05.15v.2q0 .75.9 1.45 1.1.85 3.35 1.6l.4.1q2.35.75 5.95 1.35 8.5 1.5 19.8 1.8l1.15.05 4.7.05 2.1-.05 5.7-.1 17.9-1.75 1.15-.2 1.9-.4q3.95-.3 7.45-2.7l.15-.45.05-.3.25-.3 1.1-1.3.75.4h.05v.15l.05.25-.4 1.1q-.85 1.15-3.45 2.2l-2.35.8-3.75.95-1.2.25-.15.05q-8.1 1.55-18.6 2l-5.95.1-2.2.05-4.95-.05-1.2-.05q-11.85-.35-20.7-2.1-3.8-.75-6.3-1.6l-.35-.15q-2.4-.85-3.55-1.8-.95-.85-.95-1.75v-.2l.1-.45 1.15.65m1.1-1.05-.65-.3.35-.15.1.25.2.2" fill="#8a9eb0" fill-rule="evenodd" transform="translate(-259.4 -199.9)"/><path d="m272.7 233.1.3.05 3.4.6q9.2 1.4 22.2 1.4l16.85-.75 5.3-.65 1.45-.2 2.1-.45q0 .5.9.65.9.05 2.8-.7l-.25.25q-1.7.9-1.95 2.5l.2.15 1.65-.05-1.9.4-1.15.2-17.9 1.75-5.7.1-2.1.05-4.7-.05-1.15-.05q-11.3-.3-19.8-1.8-3.6-.6-5.95-1.35l-.4-.1q-2.25-.75-3.35-1.6-.9-.7-.9-1.45v-.2l.05-.15q4.35 2.2 9.35 2.65l.35-.3.15-.4q-.15-.55-.6-.6l-1.65-.35 2.4.45m-8.4-2.25.3-.15.15.3-.45-.15m44.1 5.1.15.2q-.25.45-.15 1l.2.1q2.1.4 1.35-1.55l-.15-.1-.1-.3-.15-.2-.2-.1-.3-.1v.05l-.45.15-.25.3.05.55m-8.35-.3-.1-.1-.15-.1-4.35-.1-.35.1q-.1 0-.15.1l-.15.15-.2.3.05.55q.4.6 1.1.2l.1-.1 3.65.05.45-.1.15-.2.1-.2v-.15l-.05-.2-.1-.2m-18.85-.8-.1.1-.05.35q-.05.4.3.75l.8.1.15-.2q.45-.7 0-1.3l-.2-.1-.3-.05-.3.05-.15.05-.15.25" fill="#b3c6c5" fill-rule="evenodd" transform="translate(-259.4 -199.9)"/><path d="m268.3 232.2 2 .45 1.65.35q.45.05.6.6l-.15.4-.35.3q-5-.45-9.35-2.65l-1.15-.65-.4-.2-.05-.25v-.3l.1-.2.2-.25.4-.1 1.35.6.65.3.5.25.45.15 3.55 1.2m40.1 3.75-.05-.55.25-.3.45-.15v-.05l.3.1.2.1.15.2.1.3.15.1q.75 1.95-1.35 1.55l-.2-.1q-.1-.55.15-1l-.15-.2m-8.35-.3.1.2.05.2v.15l-.1.2-.15.2-.45.1-3.65-.05-.1.1q-.7.4-1.1-.2l-.05-.55.2-.3.15-.15q.05-.1.15-.1l.35-.1 4.35.1.15.1.1.1m-18.85-.8.15-.25.15-.05.3-.05.3.05.2.1q.45.6 0 1.3l-.15.2-.8-.1q-.35-.35-.3-.75l.05-.35.1-.1" fill="#fdeee1" fill-rule="evenodd" transform="translate(-259.4 -199.9)"/><path d="m267 236.65 4.3 1.35 5.25 18.85L271.3 238l2.3.8 2.8.5 1.95.05 8.7.25h2.5l-.15.35q-1.2 2.2-2.25 4.5l-1.5 3.2-2.2 4.9q-.85 1.85-2.2 2.9-1.85 1.5-4.7 1.4h-.1q-.7-.05-.9-.7-3.05-7.85-6.8-15.4-1.05-2.05-1.75-4.1m11.35 2.7 2.9 16.1-2.9-16.1m8.7.25.1 4.85-.1-4.85m23.25-.15 7.4-.2-1.1 9 1.1-9 5.8-.2-.8 1.6-1.55 2.4q-2 2.85-4.55 5.2l-2.7 2.15-.35.1-4.25-.55-3.45-.55-3.85-.45.55-9.3-.55 9.3q-3.15-.25-6.25-.05h-1.65l-2.75-.45q-1.95-.55-.85-2.25l.3-.5 1.9-3.6 1.4-2.45 5.2.05h2.3l.95-.05 5.3-.1 2.45-.1-.65 6.95.65-6.95m-16 .55-.2 8.9.2-8.9m15.3 6.55-.3 3.4.3-3.4.25.1h.05l-.25-.25-.25.05.2.1m-14.3-1.35h-.1l-.15.35-.1.1q.4.25.35-.45" fill="#854e0c" fill-rule="evenodd" transform="translate(-259.4 -199.9)"/><path d="m271.3 238-4.3-1.35-1.45-.5q-1.2-.35-1.05-1.3 2.6 1.1 6.6 2.05 9.3 2.25 21.75 2.7-.55.5-1.9 0h-3.9l-8.7-.25-1.95-.05-2.8-.5-2.3-.8m57.5-1.45q-.05.5-.65 1.2l-.6.6-.85 1.5-1.6 2.35-.6 1.15-1.6 2.95q-1.7 2.8-3.8 5.2l-1 .1q-1.75-1.15-.35-2.75l1.55-2.35 1.85-3.45 1.55-2.4 1.1-1.6h-.3l-5.8.2-7.4.2.05-.05-.05.05-2.45.1 2.5-.15 7.4-.75-.05.6.05-.6 8.4-1.45 1.4-.3 1.25-.35m-2.65.65-1.05 5 1.05-5" fill="#703f03" fill-rule="evenodd" transform="translate(-259.4 -199.9)"/><path d="m317.5 233.7-18.55 1.15q-14.3 0-24.4-2.15l-3.75-.9 8.85 1.25 5.65.55.25.05h.4l1.3.1.6.05.9.05h4.55l.7-.05.45.4-.05-.4q3.75-.05 7.1.05l.45-.05 1.65-.15q5.15-.15 10.4.05h3.5" fill="#462702" fill-rule="evenodd" transform="translate(-259.4 -199.9)"/><path d="m275.65 257.75-1.6-.35-1.1-1.45q-.1-.15-.05-.3v-.25q-.55-.5-.6-1.2l-.2-.2-.05-.1q.05-.6-.25-1l-.05-.1v-.3l-.2-.2-.1-.15v-.3l-.6-.9.05-.65.05-.2-.25-.75v-.15l-.2-.2-.05-.1q-.05-.3.05-.55l.05-.2q-1.9-4.65-.9-3.4l1.3 1.75.35 1.3 1.5 5.45.05.1v.35l.2.65.05.1.45.4q.15.95.85 1.75l2.3.8h.05l1.75.65-2.85-.3m-4.35-9.7-.05.3v.2l.45 1.3.05.15-.1.3-.05.25.55.95v.35l.2.2v.05l-1.05-4.25v.2" fill="#532d06" fill-rule="evenodd" transform="translate(-259.4 -199.9)"/><path d="M278.85 257.95q-.45-.4.05-.35l.1.1-.15.25" fill="#425362" fill-rule="evenodd" transform="translate(-259.4 -199.9)"/><path d="M325.95 204.6q2.55 9.7 6.3 16.25 1.95 3.5 5.5 7.2v.05l.1.05v.05h.05l-.4.45q-.45.3-.75 0h-.05v-.05l-.6-.6q-3.5-3.65-5.45-7.05-3.5-6.2-5.9-15.3 1.05-.5 1.2-1.05" fill-rule="evenodd" transform="translate(-259.4 -199.9)"/><path d="m324.3 233.1-.4-.35-.05-.15v-.15l.05-.35q.1-.2 2.5.7l-.2-.85.95-.15 2.2-.1q2.15-1.25 4.6-1.2l.45-.15h.1l.1-.05 1-.65.4-.1.6.1.15.1.2.2.1.35-.4.55-1.1 1.3-.25.3-.05.3-.15.45q-3.5 2.4-7.45 2.7l-1.65.05-.2-.15q.25-1.6 1.95-2.5l.25-.25q-1.9.75-2.8.7-.9-.15-.9-.65" fill="#421200" fill-rule="evenodd" transform="translate(-259.4 -199.9)"/><path d="M45.45.75q-.1 1 .1 1.65M39.95.95l-.1 1.45M31.1.9q.25.8.15 1.5m3.9-1.3q.4.45.45 1.3m-11.45.8q.4-.7.05-1.8m-7.35 3L16.6 3m40.85.4q.45-.9.05-1.3M19.95 2q-.15.85.25 1.6m31.35-2.05-.15 1m-24.05-1.4q.5.6.55 1.4M63.3 3q-.6.35-.9 1" fill="none" stroke="#4a210b" stroke-linecap="round" stroke-linejoin="round" stroke-width="1.5"/><path d="M272.65 204.55v-.1q0-.5.7-.9 1.45-.95 6-1.65l1.1-.2 3.15-.4 3.15-.25 3.75-.25q4.1-.25 8.8-.2 2.85-.05 5.55.05l13.3 1.05q7.8 1.15 7.8 2.75v.15m-1.2 1.05q1.05-.5 1.2-1.05" fill="none" stroke="#a75403" stroke-linecap="round" stroke-linejoin="round" transform="translate(-259.4 -199.9)"/><path d="m27.4 18.95.45-1.65q.65-2.6.2-5.05h.7m12.2 1.95-6.4-.55-5.3-.15q.45.7-.05.5.15 3.15-.95 6.2l-2.15 4.6q-1.05 1.6-.2 2.85l.5.1-.05-.25q-.15-.6.25.3l.45 1.1.65-.1q1.45-.1 1.15.7l4.05-.35 4.85-.35 5.65-.25 3.8-.05 2.1.2.95.4.7-.85q1.3.95 2.6.8l2.75-.15h.15l.15-.05q.6-.25.2-1.15l-.25-.35q-4.3-3.8-4.55-8.8-.2-.45-1.65-.55-.45-4.1-4.65-3.85l-4.55.05-.1.1-.1-.1q-1.2-1.2-4.3-.95-3.3.3-1.55-.5l-1.45-.2-4.9-.3m-1.35 6.7q.25 3-1.6 5.65-1.85 2.7-2.8 4.75h3.15q.55-.35.25-1.6l.2.05M47.7 13l2.55-.2q.65.7.75 1.8.05 1.6-.65 3.4l1.45.05.2.5.25.5L55 24.4l.2.35 1.35 2.6M47.7 13l-3.1.05q-1.85-.05-3.45 1.15h-.1m-.1 0h.1m15.3 14.75.1-.05 1.05.05-.45-.8-.25-.45m-.45 1.25-3.1.55q-1.3 0-2.3-1.25-.35.95-.65.85h-.05l-.6.25m-7.3 0 4.85.05 2.45-.05m-7.3 0h-7.6l-1.85-.2m-4.05.35-1.15-.7" fill="none" stroke="#eb9c63" stroke-linecap="round" stroke-linejoin="round" stroke-width="1.5"/><path d="m28.75 12.25.2-3.6m6.15 4.1q.1-3.8-.65-3.8M23.6 14l.4-5.95M10.9 16.6l-.55 1.65m-.1.35-.35 1.25q-2.25 5.4-4.65 9.25l-.25.55m6.25 1.6Q18.4 13.9 17.8 9.95m37.4 14.8q-1.4-6-1.85-13.95m-5.55-.45L47.7 13m12.65-1.4L59.2 7.9m-18.15 6.3-.65-5.8m7.4 1.95-.2-.3M10.25 18.6l.1-.35m.55-1.65q1.55-5.15 3.7-10.3m2.55 50.65L11.9 38.1m9.95 17.45-2.9-16.1m8.8 5.1-.1-4.85m38.05 2.6-3.3 15.45M57.9 33l-1.55-4.05m-6.7.4 1.3 3.75m0 6.4-.05.05m7.4-.2.05-.6m-7.4.75v-.3m-16.2-9.85.2 3.45M34.7 49l.2-8.9m8.25-.35-.55 9.3m7.3 1 .3-3.4m.05-.15.65-6.95m-.65 6.95-.05.15m-.3 3.4-.65 6.65-.3 3.1m7.3-3.5.95-7.95 1.1-9m7.4 2.95 1.05-5m-42.3-4.1q.6-.25 1.7-3.85M34.7 49l-.15 4.7-.1 6.25m7.8-4.65.35-6.25M27.95 53.5l.1 5.85m-.1-5.85-.2-8.95m14.5 10.75-.3 4.8m14.3-3.8-.35 2.75M23.6 14q-1.15 9.6-4.8 18.25m44.4-8.15-1.3-5.65-1.55-6.85m2.85 12.5.5 2.1 2.85 5.55m.25 5.35-.05.2" fill="none" stroke="#040100" stroke-linecap="round" stroke-linejoin="round" stroke-width="1.5"/><path d="M24.05 3.2h.1m-7.3 1.2-.05.6" fill="none" stroke="#b05817" stroke-linecap="round" stroke-linejoin="round" stroke-width="1.5"/><path d="m23.9 7.65 1.65.15m14.1.6h.25" fill="none" stroke="#703803" stroke-linecap="round" stroke-linejoin="round" stroke-width="2.25"/><path d="M19.55 4.85q0-.55 6-.9Q31.5 3.6 40 3.6t14.5.35 6 .9q0 .5-6 .85T40 6.05 25.55 5.7q-6-.35-6-.85" fill="none" stroke="#eded12" stroke-linecap="round" stroke-linejoin="round" stroke-width="1.5"/><path d="m18.35 8.2-.55 1.75M52.9 8.7l-.05-.35m-11.8 5.85v.1M52.9 8.7l.45 2.1m-5.7-.45-.05-.3-.1-1M17.3 57.5l-.15-.55m.15.55h.05m4.8-.3-.3-1.65m34.5-26.6-.05-.05m-14.2.45-.1 3.9.1.7.45-.05m-7.55 0-.05-1.1m-6.75.15q.15.2.35.2l.3-.2m5.75.95-.45-.35m.45.35.45.4-.05-.4m-10.55-.7h-.1l1.55.5.25.05h.4l.8-.1.85-.7m.35.2-1.2.5m-5.2 23.55.25 1.3M59.2 7.9l-.1-.4" fill="none" stroke="#6f3904" stroke-linecap="round" stroke-linejoin="round" stroke-width="1.5"/><path d="M39.9 8.4h.5l12.05-.45m12.8-2.2q-1.9.85-6.5 1.55l-6.3.65" fill="none" stroke="#391d02" stroke-linecap="round" stroke-linejoin="round" stroke-width="5.5"/><path d="M325.95 204.6q2.55 9.7 6.3 16.25 1.95 3.5 5.5 7.2v.05l.1.05v.05h.05l.1.15.1.1 1 1.1m.1.05.35.55q.4.65-.2 1.1l-.55.25m-12.85 27.45q-.35 1.5-7.8 2.6l-18.85 1.1-18.85-1.1q-7.15-1.05-7.75-2.5v-.1q-6.05-18.35-8.6-24.3m-3.4-6.1.4-.5.35-.3.45-.5q3.1-3.45 4.9-6.65 3.6-6.55 5.85-16.05v-.1m.05 54.5v.1" fill="none" stroke="#a75403" stroke-linecap="round" stroke-linejoin="round" transform="translate(-259.4 -199.9)"/><path d="M335.2 234.35q-2.65 5.55-9.25 24.6" fill="none" stroke="#2d1702" stroke-linecap="round" stroke-linejoin="round" transform="translate(-259.4 -199.9)"/></g></defs></svg>