<?xml version="1.0" encoding="UTF-8" standalone="no"?>
<!DOCTYPE svg PUBLIC "-//W3C//DTD SVG 1.1//EN" "http://www.w3.org/Graphics/SVG/1.1/DTD/svg11.dtd">
<svg width="100%" height="100%" viewBox="0 0 51 66" version="1.1" xmlns="http://www.w3.org/2000/svg" xmlns:xlink="http://www.w3.org/1999/xlink" xml:space="preserve" xmlns:serif="http://www.serif.com/" style="fill-rule:evenodd;clip-rule:evenodd;stroke-linecap:round;stroke-linejoin:round;">
    <g transform="matrix(1,0,0,1,-22.9395,-11.9797)">
        <g transform="matrix(-0.8,0,0,0.8,47.9995,69.9997)">
            <g id="sprite0">
                <g id="shape0" transform="matrix(1,0,0,1,-0.2,-7.55)">
                    <path d="M5.35,-5.35L8.1,-1.45L7.05,0.35L9,1.15L13.5,-3.7L12.25,-6.3L15.2,-7C18.5,-7.933 21.55,-9.15 24.35,-10.65L27.55,-12.6L25,-7.5L22.1,-6.3L21,-4.05L12.3,1.25L12.1,1.35L10.7,2.85L10.7,5.8L14.75,8.65L11.05,7.65L15.4,12.05L16.2,13.7L16.3,13.85L16.95,15.15L15.5,16.7L11.3,16.1L8,13.4C5,13.9 3.3,14.6 2.9,15.5L6,8.3L5.35,8.05L6.5,7.6L6.05,6.95L3.95,5.75L4.05,7.1L4.4,7.6L2.95,7L3.15,4.65L2.45,4.3L1.6,2.3L1.25,6.2L0.35,5.8L-2.9,7.5L-2.9,7L0.85,3.45L-1.75,0.95L-3.2,2.1L-3.25,1.8L-4.6,0.9L-4.4,3L-6.7,4.75L-7.9,4.6L-8.35,4.8L-8.6,-0.85L-10.2,-3L-12.65,-6.35L-11.55,-6.1L-7.2,-5.5L-6.1,-5.4L-4.1,-2.15L-4,-2.05L-5.1,-0.05L0.95,-0.85L3.3,1.55L2.15,-1.05L2.25,-1.05L0.15,-5.1L5.35,-5.35M14.7,5.8L17.95,6.7L19.1,8.1L18.5,9.75L14.6,9.5L14.75,8.65L14.7,5.8M7.1,1.15L6.45,2.5L7.05,4.25L8.45,2.1L7.1,1.15M8.4,8.9L7.45,10.9L8,12.3L8.05,12.4L9.2,12.45L11.15,14.8L13.1,14.55L11.05,10.6L8.4,8.9" style="fill:#2c2b23;"/>
                    <path d="M5.35,-5.35L6.85,-5.5L11.3,-6.1L12.25,-6.3L13.5,-3.7L9,1.15L7.05,0.35L8.1,-1.45L5.35,-5.35M12.3,1.25L13.55,4.05L13.85,4.2L14.7,5.8L14.75,8.65L14.6,9.5L18.5,9.75L19.1,8.1L21.25,10.75L16.3,13.85L16.2,13.7L15.4,12.05L11.05,7.65L14.75,8.65L10.7,5.8L10.7,2.85L12.1,1.35L12.3,1.25M-8.9,8.7L-16.7,10.4L-17.6,9.45L-8.35,4.8L-7.9,4.6L-6.7,4.75L-6.05,4.85L-8.9,8.7M-12.8,0.1L-16.35,-3.8L-23.95,-5.85L-27.6,-12.4L-24.75,-10.65C-21.883,-9.117 -18.783,-7.9 -15.45,-7L-12.65,-6.35L-10.2,-3L-10.7,0.9L-12.8,0.1M-6.1,-5.4L-0.2,-5.1L0.15,-5.1L2.25,-1.05L2.15,-1.05L3.3,1.55L0.95,-0.85L-5.1,-0.05L-4,-2.05L-4.1,-2.15L-6.1,-5.4M13.1,3.9L13.55,4.05L13.1,3.9M7.1,1.15L8.45,2.1L7.05,4.25L6.45,2.5L7.1,1.15" style="fill:#1f1d19;"/>
                    <path d="M2.9,15.5L2.85,15.55L-0.1,16.8L-0.15,16.85L-0.25,16.75L-4.45,15.3L-4.3,13.5L-5.1,12.8L-12.15,16L-12.15,13.6L-11.65,12.8L-7.6,12.2L-5.55,9.75L-7.4,9.2L-7.95,7.75L-8.8,8.65L-8.9,8.7L-6.05,4.85L-6.7,4.75L-4.4,3L-4.35,3.45L-5.75,6L-6.3,5.9L-7.8,7.6L-7.15,8.35L-4.95,8.35L-4.15,6.6L-3,5.5L-2.6,5.55L-1.7,2.8L-2.95,3.55L-3.2,2.1L-1.75,0.95L0.85,3.45L-2.9,7L-2.9,7.5L0.35,5.8L1.25,6.2L1.15,7.1L0.3,7.7L-0.6,7.1L-3.15,11.4L-3.3,11.65L-3.25,11.65L-4.15,12.05L-4.2,12.65L-1.8,12.95L-1.7,13L-1.15,13.45L1.45,11.95L1.45,11.05L-0.15,11.2L1.4,10.3L1.35,9.2L1.9,10.3L2.7,10.2L2.95,7L4.4,7.6L5.35,8.05L6,8.3L2.9,15.5M-16.7,10.4L-17.45,10.6L-21.45,10.95L-20.35,7.8L-18.05,8.85L-9.8,4.7L-11,2.75L-15.1,2.25L-12.8,0.1L-10.7,0.9L-10.2,-3L-8.6,-0.85L-8.35,4.8L-17.6,9.45L-16.7,10.4M-4.3,13.5L-4.2,12.65L-4.3,13.5M2.35,14.45L1.5,13.25L-0.45,13.75L-0.4,14.55L-1.75,14.25L-2.1,15L0.2,15.7L2.35,14.45M-0.1,16.8L-0.25,16.75L-0.1,16.8" style="fill:#38362e;"/>
                    <path d="M1.25,6.2L1.6,2.3L2.45,4.3L3.15,4.65L2.95,7L2.7,10.2L1.9,10.3L1.35,9.2L1.35,8.45L0.3,7.7L1.15,7.1L1.25,6.2M4.4,7.6L4.05,7.1L3.95,5.75L6.05,6.95L6.5,7.6L5.35,8.05L4.4,7.6M-3.2,2.1L-2.95,3.55L-4.55,4.55L-4.3,5.35L-3,5.5L-4.15,6.6L-4,6.2L-5.75,6L-4.35,3.45L-4.4,3L-4.6,0.9L-3.25,1.8L-3.2,2.1M2.35,14.45L0.2,15.7L-2.1,15L-1.75,14.25L-0.4,14.55L-0.45,13.75L1.5,13.25L2.35,14.45" style="fill:#4d4b39;"/>
                    <path d="M-11.65,12.8L-8.75,8.65L-8.8,8.65L-7.95,7.75L-7.4,9.2L-5.55,9.75L-7.6,12.2L-11.65,12.8M-2.95,3.55L-1.7,2.8L-2.6,5.55L-3,5.5L-4.3,5.35L-4.55,4.55L-2.95,3.55M-1.8,12.95L-4.2,12.65L-4.15,12.05L-3.25,11.65L-3.3,11.65L-3.15,11.4L-1.8,12.95" style="fill:#7a785d;"/>
                    <path d="M-20.35,7.8L-20,6.85L-15.1,2.25L-11,2.75L-9.8,4.7L-18.05,8.85L-20.35,7.8M-4.15,6.6L-4.95,8.35L-7.15,8.35L-7.8,7.6L-6.3,5.9L-5.75,6L-4,6.2L-4.15,6.6M0.3,7.7L1.35,8.45L1.35,9.2L1.4,10.3L-0.15,11.2L1.45,11.05L1.45,11.95L-1.15,13.45L-1.7,13L-1.8,12.95L-3.15,11.4L-0.6,7.1L0.3,7.7M8.4,8.9L11.05,10.6L13.1,14.55L11.15,14.8L9.2,12.45L8.05,12.4L8,12.3L7.45,10.9L8.4,8.9" style="fill:#5c5a45;"/>
                    <path d="M12.25,-6.3L11.3,-6.1L6.85,-5.5L5.35,-5.35L0.15,-5.1L-0.2,-5.1L-6.1,-5.4L-7.2,-5.5L-11.55,-6.1L-12.65,-6.35L-15.45,-7C-18.783,-7.9 -21.883,-9.117 -24.75,-10.65L-27.6,-12.4L-23.95,-5.85L-16.35,-3.8L-12.8,0.1L-15.1,2.25L-20,6.85L-20.35,7.8L-21.45,10.95L-17.45,10.6L-16.7,10.4L-8.9,8.7L-8.8,8.65L-8.75,8.65L-11.65,12.8L-12.15,13.6L-12.15,16L-5.1,12.8L-4.3,13.5L-4.45,15.3L-0.25,16.75L-0.1,16.8L-0.15,16.85L-0.25,16.75M12.25,-6.3L15.2,-7C18.5,-7.933 21.55,-9.15 24.35,-10.65L27.55,-12.6L25,-7.5L22.1,-6.3L21,-4.05L12.3,1.25L13.55,4.05L13.85,4.2L14.7,5.8L17.95,6.7L19.1,8.1L21.25,10.75L16.3,13.85L16.95,15.15L15.5,16.7L11.3,16.1L8,13.4C5,13.9 3.3,14.6 2.9,15.5L2.85,15.55L-0.1,16.8M16.2,13.7L15.4,12.05L11.05,7.65L14.75,8.65L10.7,5.8L10.7,2.85L12.1,1.35L12.3,1.25M13.55,4.05L13.1,3.9M-4.2,12.65L-4.3,13.5M-3.25,11.65L-4.15,12.05L-4.2,12.65" style="fill:none;fill-rule:nonzero;stroke:#100707;stroke-opacity:0.51;stroke-width:0.05px;"/>
                    <path d="M-16.8,-16.9L-16.4,-16.45" style="fill:none;fill-rule:nonzero;stroke:#0f0606;stroke-opacity:0.29;stroke-width:0.05px;"/>
                    <path d="M15.95,-11.2L15.95,-11.3C15.95,-11.9 16.367,-12.4 17.2,-12.8C18.033,-13.2 19.033,-13.4 20.2,-13.4C21.367,-13.4 22.367,-13.2 23.2,-12.8C24,-12.4 24.417,-11.917 24.45,-11.35L24.45,-11.3L24.4,-10.95C24.3,-10.583 24,-10.25 23.5,-9.95L23.2,-9.8C22.367,-9.367 21.367,-9.15 20.2,-9.15C19.033,-9.15 18.033,-9.367 17.2,-9.8L16.95,-9.95C16.283,-10.317 15.95,-10.733 15.95,-11.2M24.4,-8.95L24.45,-8.6L24.4,-8.3L24.4,-8.95M24.45,-11.35L24.4,-10.95L24.45,-11.35M-25.15,-11.35C-25.117,-11.917 -24.7,-12.4 -23.9,-12.8C-23.067,-13.2 -22.067,-13.4 -20.9,-13.4C-19.733,-13.4 -18.733,-13.2 -17.9,-12.8C-17.067,-12.4 -16.65,-11.9 -16.65,-11.3L-16.65,-11.2C-16.65,-10.733 -16.967,-10.317 -17.6,-9.95L-17.9,-9.8C-18.733,-9.367 -19.733,-9.15 -20.9,-9.15C-22.067,-9.15 -23.067,-9.367 -23.9,-9.8L-24.15,-9.95C-24.683,-10.25 -25,-10.583 -25.1,-10.95L-25.15,-11.3L-25.15,-11.35L-25.1,-10.95L-25.15,-11.35M-25.1,-8.95L-25.1,-8.3L-25.15,-8.6L-25.1,-8.95" style="fill:#928e72;"/>
                    <path d="M24.4,-10.95L24.4,-8.3C24.3,-7.833 23.9,-7.433 23.2,-7.1L22.35,-6.75L18.1,2.65L14.25,11.25L12.8,11L15.75,2.9L16.45,1L15.25,2.45L13.9,4L14.7,1.9L17.85,-6.8L17.2,-7.1C16.367,-7.5 15.95,-8 15.95,-8.6L15.95,-11.2C15.95,-10.733 16.283,-10.317 16.95,-9.95L17.2,-9.8C18.033,-9.367 19.033,-9.15 20.2,-9.15C21.367,-9.15 22.367,-9.367 23.2,-9.8L23.5,-9.95C24,-10.25 24.3,-10.583 24.4,-10.95M22.35,-6.75L20.2,-6.45L17.85,-6.8L20.2,-6.45L22.35,-6.75M-25.1,-10.95C-25,-10.583 -24.683,-10.25 -24.15,-9.95L-23.9,-9.8C-23.067,-9.367 -22.067,-9.15 -20.9,-9.15C-19.733,-9.15 -18.733,-9.367 -17.9,-9.8L-17.6,-9.95C-16.967,-10.317 -16.65,-10.733 -16.65,-11.2L-16.65,-8.6C-16.65,-8 -17.067,-7.5 -17.9,-7.1L-18.55,-6.8L-15.85,0.55L-13.1,8.1L-12.2,9L-12.6,10.8L-14.9,11.25L-15.35,10.3L-14.7,9.55L-15.6,5.8L-17.45,1.7L-19.1,-2L-21.85,-4.15L-23.05,-6.75L-23.9,-7.1C-24.6,-7.433 -25,-7.833 -25.1,-8.3L-25.1,-10.95M-18.55,-6.8L-20.9,-6.45L-23.05,-6.75L-20.9,-6.45L-18.55,-6.8M-15.85,0.55L-17.45,1.7L-15.85,0.55M18.1,2.65L16.6,3.4L18.1,2.65M16.3,3.4L15.75,2.9L16.3,3.4M14.7,1.9L15.25,2.45L14.7,1.9" style="fill:#423f36;"/>
                    <path d="M-21.85,-4.15L-19.1,-2L-17.45,1.7L-17.8,1.9L-19.45,1.15L-17.8,1.9L-17.45,1.7L-15.6,5.8L-14.7,9.55L-15.35,10.3L-19.45,1.15L-21.85,-4.15" style="fill:#7d7b60;"/>
                    <path d="M12.8,11L11.9,10.8L11.5,9L12.4,8.1L13.9,4L15.25,2.45L16.45,1L15.75,2.9L15.25,2.45L15.75,2.9L12.8,11" style="fill:#a19d74;"/>
                    <path d="M15.95,-11.2L15.95,-11.3C15.95,-11.9 16.367,-12.4 17.2,-12.8C18.033,-13.2 19.033,-13.4 20.2,-13.4C21.367,-13.4 22.367,-13.2 23.2,-12.8C24,-12.4 24.417,-11.917 24.45,-11.35L24.45,-11.3L24.4,-10.95L24.4,-8.95L24.45,-8.6L24.4,-8.3C24.3,-7.833 23.9,-7.433 23.2,-7.1L22.35,-6.75L18.1,2.65L14.25,11.25L12.8,11L11.9,10.8L11.5,9L12.4,8.1L13.9,4L14.7,1.9L17.85,-6.8L17.2,-7.1C16.367,-7.5 15.95,-8 15.95,-8.6L15.95,-11.2C15.95,-10.733 16.283,-10.317 16.95,-9.95L17.2,-9.8C18.033,-9.367 19.033,-9.15 20.2,-9.15C21.367,-9.15 22.367,-9.367 23.2,-9.8L23.5,-9.95C24,-10.25 24.3,-10.583 24.4,-10.95L24.45,-11.35M17.85,-6.8L20.2,-6.45L22.35,-6.75M24.4,-8.3L24.4,-8.95M-16.65,-11.2L-16.65,-11.3C-16.65,-11.9 -17.067,-12.4 -17.9,-12.8C-18.733,-13.2 -19.733,-13.4 -20.9,-13.4C-22.067,-13.4 -23.067,-13.2 -23.9,-12.8C-24.7,-12.4 -25.117,-11.917 -25.15,-11.35L-25.1,-10.95C-25,-10.583 -24.683,-10.25 -24.15,-9.95L-23.9,-9.8C-23.067,-9.367 -22.067,-9.15 -20.9,-9.15C-19.733,-9.15 -18.733,-9.367 -17.9,-9.8L-17.6,-9.95C-16.967,-10.317 -16.65,-10.733 -16.65,-11.2L-16.65,-8.6C-16.65,-8 -17.067,-7.5 -17.9,-7.1L-18.55,-6.8L-15.85,0.55L-13.1,8.1L-12.2,9L-12.6,10.8L-14.9,11.25L-15.2,11.3M-25.15,-11.35L-25.15,-11.3L-25.1,-10.95L-25.1,-8.3C-25,-7.833 -24.6,-7.433 -23.9,-7.1L-23.05,-6.75L-20.9,-6.45L-18.55,-6.8M-25.1,-8.95L-25.15,-8.6L-25.1,-8.3M-23.05,-6.75L-21.85,-4.15L-19.45,1.15L-15.35,10.3L-14.9,11.25" style="fill:none;fill-rule:nonzero;stroke:#100707;stroke-opacity:0.51;stroke-width:0.05px;"/>
                    <path d="M-17.45,1.7L-15.85,0.55M-19.45,1.15L-17.8,1.9L-17.45,1.7M15.25,2.45L15.75,2.9L16.3,3.4M16.6,3.4L18.1,2.65M15.25,2.45L14.7,1.9" style="fill:none;fill-rule:nonzero;stroke:#0f0606;stroke-opacity:0.29;stroke-width:0.05px;"/>
                </g>
                <g id="sprite1" transform="matrix(1,0,0,1,0,-36.15)">
                    <g id="shape1">
                        <path d="M19.05,-13.2L19.2,-13.8L19.35,-13.1L19.35,-12.5C19.35,-11.267 18.967,-10.133 18.2,-9.1C17.633,-8.333 16.867,-7.617 15.9,-6.95L15.35,-6.55C15.783,-7.383 15.95,-8.083 15.85,-8.65L15.55,-9.3L16.5,-9.95L18.05,-11.5L19.05,-13.2" style="fill:#49483a;"/>
                        <path d="M19.3,-14.3L15.25,-14.3L19.05,-13.2L18.05,-11.5L5,-13.65L15.1,-9L14.35,-8.55L14.2,-8.45L13.6,-8.15C12.3,-7.517 10.883,-6.967 9.35,-6.5L9.15,-6.45L3.85,-8.25L5.25,-5.65L3.65,-5.45L1.6,-8.75L-1.75,-8.65L-4.1,-5.65L-8.7,-7.3L-8.75,-7.3L-7.45,-10L-8.95,-10.45L-14.05,-8.5L-15.1,-9.4L-12.05,-11.4L-12.85,-12.15L-15.15,-11.55L-15.2,-11.55L-16.6,-11.15L-17.15,-11.75L-18.4,-11.3L-18.5,-11.4L-18.65,-11.65C-19.183,-12.35 -19.533,-13.067 -19.7,-13.8L-19.85,-15.1L-19.5,-17L-16,-18.3L-18.5,-18.75L-17.05,-20.2L-12.6,-20.75L-11.05,-20.35L-7.9,-19.9L-8,-19.95L-13.5,-22.3L-13.45,-22.35C-9.75,-24.05 -5.35,-24.9 -0.25,-24.9C5.15,-24.9 9.767,-23.95 13.6,-22.05C17.433,-20.117 19.35,-17.8 19.35,-15.1L19.3,-14.3M-4.5,-19.35L-8,-19.95L-4.5,-19.35M2.1,-11.5L3.85,-8.25L2.1,-11.5M-17.95,-10.8L-18.4,-11.3L-17.15,-11.75L-16.6,-11.15L-17.95,-10.8M-15.55,-12.3L-17.15,-11.75L-15.55,-12.3" style="fill:#b3ac8b;"/>
                        <path d="M19.05,-13.2L15.25,-14.3L19.3,-14.3L19.2,-13.8L19.05,-13.2M-19.5,-17L-18.5,-18.75L-16,-18.3L-19.5,-17M-14.05,-8.5L-8.95,-10.45L-7.45,-10L-8.75,-7.3L-11.75,-7.2L-11.65,-7.1L-11.9,-7.2L-13.1,-7.7L-13.2,-7.75L-13.15,-7.75L-14.05,-8.5" style="fill:#d8cfb1;"/>
                        <path d="M-13.5,-22.3L-8,-19.95L-7.9,-19.9L-11.05,-20.35L-12.6,-20.75L-14,-21.15L-13.5,-22.3M9.15,-6.45L9.35,-6.5L9.4,-3.95L9.35,-6.5C10.883,-6.967 12.3,-7.517 13.6,-8.15L14.2,-8.45L14.35,-8.55L15.1,-9L15.55,-9.3L15.85,-8.65C15.95,-8.083 15.783,-7.383 15.35,-6.55L14.25,-5.9L13.6,-5.55L12.75,-5.15L9.4,-3.95C8.133,-3.583 6.817,-3.3 5.45,-3.1L5.3,-5.6L5.3,-5.65L5.3,-5.6L5.45,-3.1L-0.25,-2.7C-5.25,-2.7 -9.567,-3.517 -13.2,-5.15L-14.1,-5.55L-14.8,-5.95L-16.45,-6.95L-17.55,-7.85L-18.7,-9.05L-19.45,-10.45C-19.717,-11.117 -19.85,-11.8 -19.85,-12.5L-19.7,-13.8C-19.533,-13.067 -19.183,-12.35 -18.65,-11.65L-18.5,-11.4L-18.4,-11.3L-17.95,-10.8L-17.8,-10.65L-16,-7.95L-13.2,-7.75L-13.1,-7.7L-11.9,-7.2L-11.65,-7.1L-10.2,-5.65L-7.2,-5.5L-5.3,-4.3L-3.1,-5.35L-2.9,-5.35L-0.25,-5.3L3.65,-5.45L5.25,-5.65L5.3,-5.6L5.25,-5.65L5.3,-5.65L7.5,-6.05L9.15,-6.45M-21.75,20.75L-22.5,20.4L-23.1,20.1L-22.1,19.4L-21.75,20.75M-18.15,-9L-18.45,-11.3L-18.4,-11.3L-18.45,-11.3L-18.15,-9M-18.45,-11.3L-18.5,-11.4L-18.45,-11.3M-16.9,5.75L-17.45,6.3L-19.25,8.2L-20,8.7L-21.05,10.3L-17.6,12.65L-11.55,14.4L-13.55,14.3L-19.7,12.6L-20.55,11.95L-22.35,12.2L-23.55,14L-24.8,15.85L-21.4,9.45L-20.15,7.15L-20.25,6.45L-16.9,5.75M-21.05,10.3L-20.55,11.95L-21.05,10.3" style="fill:#605f4a;"/>
                        <path d="M9.15,-6.45L7.5,-6.05L5.3,-5.65L5.25,-5.65L3.85,-8.25L9.15,-6.45" style="fill:#a19b7d;"/>
                        <path d="M5.45,-3.1C6.817,-3.3 8.133,-3.583 9.4,-3.95L12.75,-5.15L13.6,-5.55L14.25,-5.9L13.8,-4.9C13.333,-4.167 12.617,-3.467 11.65,-2.8L11.9,-4.5L11.65,-2.8L11.5,-2.7L10.1,-1.9C7.233,-0.467 3.767,0.25 -0.3,0.25C-3.933,0.25 -7.1,-0.333 -9.8,-1.5L-10.7,-1.9C-11.667,-2.4 -12.467,-2.917 -13.1,-3.45L-14.35,-4.85L-14.8,-5.95L-14.1,-5.55L-13.2,-5.15C-9.567,-3.517 -5.25,-2.7 -0.25,-2.7L5.45,-3.1M-10.2,-3.7L-9.8,-1.5L-10.2,-3.7" style="fill:#2c2b23;"/>
                        <path d="M-4.1,-5.65L-1.75,-8.65L1.6,-8.75L3.65,-5.45L-0.25,-5.3L-2.9,-5.35L-3.1,-5.35L-3.35,-5.4L-4.1,-5.65M-16.6,-11.15L-15.2,-11.55L-15.15,-11.55L-12.85,-12.15L-12.05,-11.4L-15.1,-9.4L-15.95,-10.15L-17.75,-10.6L-17.95,-10.8L-16.6,-11.15L-15.9,-10.4L-16.6,-11.15M-17.45,6.3L-14.8,8.5L-12.55,8.85L-11.3,9.95L-11.45,9.95L-17.5,9.3L-19.25,8.2L-17.45,6.3" style="fill:#ccc4a7;"/>
                        <path d="M15.1,-9L5,-13.65L18.05,-11.5L16.5,-9.95L15.55,-9.3L15.1,-9" style="fill:#f0e6c4;"/>
                        <path d="M15.35,-6.55L15.9,-6.95C16.533,-6.05 16.85,-5.083 16.85,-4.05L16.85,-4C16.85,-2.333 15.983,-0.817 14.25,0.55L11.6,-2.55L11.5,-2.7L11.65,-2.8L11.6,-2.55L11.65,-2.8C12.617,-3.467 13.333,-4.167 13.8,-4.9L14.25,-5.9L15.35,-6.55M-9.8,-1.5L-10.3,-0.55L-12.65,-2.15L-13.1,-3.45C-12.467,-2.917 -11.667,-2.4 -10.7,-1.9L-9.8,-1.5" style="fill:#38362e;"/>
                        <path d="M15.9,-6.95C16.867,-7.617 17.633,-8.333 18.2,-9.1C20.2,-7.967 21.7,-6.733 22.7,-5.4L23,-4.95C23.833,-3.717 24.25,-2.4 24.25,-1L24.25,-0.7L23.85,1.4L19.5,2.3C15.567,3.333 11.7,3.733 7.9,3.5C9.3,3.1 10.617,2.6 11.85,2L14.25,0.55C15.983,-0.817 16.85,-2.333 16.85,-4L16.85,-4.05C16.85,-5.083 16.533,-6.05 15.9,-6.95M19.5,2.3L14.25,0.55L19.5,2.3" style="fill:#6b6753;"/>
                        <path d="M29.25,14.8L28.3,15.3L28.8,13.95L29.25,14.8M11.5,-2.7L11.6,-2.55L14.25,0.55L11.85,2C10.617,2.6 9.3,3.1 7.9,3.5C6.067,4 4.083,4.317 1.95,4.45L-5.85,2.5L-10.3,-0.55L-9.8,-1.5C-7.1,-0.333 -3.933,0.25 -0.3,0.25C3.767,0.25 7.233,-0.467 10.1,-1.9L11.5,-2.7" style="fill:#423f36;"/>
                        <path d="M23,-4.95C25.4,-2.217 27.417,0.533 29.05,3.3L29.45,3.85C30.683,5.517 31.3,7.317 31.3,9.25C31.3,10.283 31.117,11.3 30.75,12.3C28.417,7.467 26.067,3.933 23.7,1.7L23.85,1.4L24.25,-0.7L24.25,-1C24.25,-2.4 23.833,-3.717 23,-4.95" style="fill:#4f4b3d;"/>
                        <path d="M1.95,4.45C4.083,4.317 6.067,4 7.9,3.5C11.7,3.733 15.567,3.333 19.5,2.3L22.75,3.4L21.8,4.45L21.45,4.8L14.2,7.35L7.65,10.6L7.8,10.6L7.55,10.65L7.25,10.7L7.1,10.75L3.65,11.1L1.5,11.25L-1.5,11.25L0.2,10.3L1.5,11.25L0.2,10.3L-1.5,11.25C-5.067,11.15 -8.333,10.733 -11.3,10L-11.45,9.95L-11.3,9.95L-12.55,8.85L-14.8,8.5L-17.45,6.3L-16.9,5.75L-15.25,4.65L-15.15,4.6L-12.6,2.85L-11.8,2.3C-10.233,3.033 -8.517,3.583 -6.65,3.95L-0.3,4.55L1.95,4.45M0.5,10.1L0.2,10.3L-2.15,8.55L-15.25,4.65L-2.15,8.55L0.2,10.3L0.5,10.1M-12.6,2.85L-6.65,3.95L-12.6,2.85M-8.4,17.25L-11.6,15.85L-1.65,17.05L-8.4,17.25" style="fill:#a19d74;"/>
                        <path d="M28.3,15.3L27.85,16.5L24.95,18.75L22.05,20.4C19.483,21.667 16.717,22.683 13.75,23.45L10.85,24.05L3.1,24.4C5.733,24.2 7.7,23.75 9,23.05L9.65,22.65L10.2,22.2C12.2,20 10.017,16.3 3.65,11.1L7.1,10.75L7.25,10.7L7.55,10.65L7.8,10.6L14.85,10.7L21.45,4.8L21.8,4.45L22.75,3.4L22.95,3.45L26.45,9.8L26.65,10.15L27.6,11.8L26.8,11.6L26.65,10.15L26.8,11.6L27.6,11.8L28.8,13.95L28.3,15.3M17.8,21.9L19,15.8L26.45,11.5L26.8,11.6L26.45,11.5L19,15.8L17.8,21.9" style="fill:#706e56;"/>
                        <path d="M30.75,12.3L29.3,14.9L29.25,14.8L28.8,13.95L27.6,11.8L26.65,10.15L26.45,9.8L22.95,3.45L22.75,3.4L23.7,1.7C26.067,3.933 28.417,7.467 30.75,12.3M-29.2,15.55C-30.2,14.417 -30.733,13.333 -30.8,12.3L-31.3,6.5L-31.15,6.1L-30.9,5.55L-30.9,5.5L-30.8,5.3C-28.5,0.3 -25.45,-3.8 -21.65,-7C-23.717,-5.2 -24.75,-3.2 -24.75,-1L-24.75,-0.65C-24.65,1.65 -23.383,3.733 -20.95,5.6L-23.2,8.3L-29.2,15.55M-10.3,-0.55L-5.85,2.5L1.95,4.45L-0.3,4.55L-6.65,3.95C-8.517,3.583 -10.233,3.033 -11.8,2.3L-12.4,2L-12.65,1.9C-15.817,0.267 -17.417,-1.683 -17.45,-3.95L-17.45,-4.05C-17.45,-5.083 -17.117,-6.05 -16.45,-6.95L-14.8,-5.95L-14.35,-4.85L-13.1,-3.45L-12.65,-2.15L-10.3,-0.55L-11.8,2.3L-10.3,-0.55M28.3,12L27.6,11.8L28.3,12M-23.2,8.3L-24.45,6.45L-23.2,8.3M-28.9,10.2C-28.633,8.833 -27.9,8.117 -26.7,8.05L-26.6,8.2L-26.55,8.65L-26.6,8.2L-26.7,8.05C-27.9,8.117 -28.633,8.833 -28.9,10.2M-29.75,3.9L-30.9,5.55L-29.75,3.9" style="fill:#7a785d;"/>
                        <path d="M-13.45,-22.35L-13.5,-22.3L-13.5,-22.35L-13.45,-22.35M-21.65,-7L-20.95,-7.55L-20.95,-7.6L-18.7,-9.05L-17.55,-7.85L-16.45,-6.95C-17.117,-6.05 -17.45,-5.083 -17.45,-4.05L-17.45,-3.95C-17.417,-1.683 -15.817,0.267 -12.65,1.9L-12.4,2L-11.8,2.3L-12.6,2.85L-15.15,4.6L-15.25,4.65L-16.9,5.75L-20.25,6.45C-20.083,6.35 -20.317,6.067 -20.95,5.6C-23.383,3.733 -24.65,1.65 -24.75,-0.65L-24.75,-1C-24.75,-3.2 -23.717,-5.2 -21.65,-7M-17.05,-20.2L-15.15,-21.5L-14,-21.15L-12.6,-20.75L-17.05,-20.2M22.75,3.4L19.5,2.3L23.85,1.4L23.7,1.7L22.75,3.4M-15.15,4.6L-12.65,1.9L-15.15,4.6M-13.55,14.3L-12.7,14.55L-14.45,14.35L-14.75,14.35L-19.65,13.75L-22.35,12.2L-20.55,11.95L-19.7,12.6L-13.55,14.3" style="fill:#aaa484;"/>
                        <path d="M3.1,24.4L-4.35,24.9L-6.55,24.7L-10.5,24.2L-14.05,23.45C-16.817,22.783 -19.383,21.883 -21.75,20.75L-22.1,19.4L-23.55,14L-22.35,12.2L-19.65,13.75L-14.75,14.35L-14.45,14.35L-12.7,14.55L-13.55,14.3L-11.55,14.4L-17.6,12.65L-21.05,10.3L-20,8.7L-19.25,8.2L-17.5,9.3L-11.45,9.95L-11.3,10C-8.333,10.733 -5.067,11.15 -1.5,11.25L1.5,11.25L3.65,11.1C10.017,16.3 12.2,20 10.2,22.2L9.65,22.65L9,23.05C7.7,23.75 5.733,24.2 3.1,24.4M-3.3,16L-1.9,14.6L1.4,11.25L-1.9,14.6L-3.3,16M4.8,16.95L3.65,17L4.8,16.95M2.7,17L0.05,17.1L2.7,17M-2,11.5L-1.5,11.25L-1.7,11.35L-1.9,14.6L-1.7,11.35L-2,11.5M-15.55,16.4L-15.9,16.05L-15.55,16.4M-16.15,14.9L-15.45,15L-16.15,14.9M-6.9,19.65C-6.833,19.683 -6.817,19.767 -6.85,19.9L-6.9,19.95L-6.9,20.05L-7.2,20.6L-7.45,21.2L-7.85,21.8C-7.883,21.3 -7.783,20.817 -7.55,20.35L-7.55,20.15C-7.55,19.983 -7.65,19.85 -7.85,19.75L-8,19.6C-8.067,19.3 -8,19.05 -7.8,18.85L-7.25,18.75L-7.8,18.85C-8,19.05 -8.067,19.3 -8,19.6L-7.85,19.75C-7.65,19.85 -7.55,19.983 -7.55,20.15L-7.55,20.35C-7.783,20.817 -7.883,21.3 -7.85,21.8L-7.45,21.2L-7.2,20.6L-6.9,20.05L-6.9,19.95L-6.85,19.9C-6.817,19.767 -6.833,19.683 -6.9,19.65M-8.4,17.25L-1.65,17.05L-11.6,15.85L-8.4,17.25M-14.55,15.1L-5.85,15.8L-14.55,15.1" style="fill:#7d7b60;"/>
                        <path d="M7.8,10.6L7.65,10.6L14.2,7.35L21.45,4.8L14.85,10.7L7.8,10.6M-15.1,-9.4L-14.05,-8.5L-13.15,-7.75L-13.2,-7.75L-16,-7.95L-17.8,-10.65L-17.75,-10.6L-15.95,-10.15L-15.1,-9.4M-8.75,-7.3L-8.7,-7.3L-4.1,-5.65L-3.35,-5.4L-3.1,-5.35L-5.3,-4.3L-7.2,-5.5L-10.2,-5.65L-11.75,-7.2L-8.75,-7.3" style="fill:#bab391;"/>
                        <path d="M-23.1,20.1L-25.1,18.95L-26.35,18.1L-25.55,16.95L-27.1,17.55L-29.2,15.55L-23.2,8.3L-20.95,5.6C-20.317,6.067 -20.083,6.35 -20.25,6.45L-20.15,7.15L-21.4,9.45L-24.8,15.85L-23.55,14L-22.1,19.4L-23.1,20.1M-21.4,9.45C-21.867,9.217 -22.317,8.967 -22.75,8.7C-22.317,8.967 -21.867,9.217 -21.4,9.45M-25.55,16.95L-24.8,15.85L-25.55,16.95" style="fill:#858366;"/>
                        <path d="M19.2,-13.8L19.3,-14.3L19.35,-15.1C19.35,-17.8 17.433,-20.117 13.6,-22.05C9.767,-23.95 5.15,-24.9 -0.25,-24.9C-5.35,-24.9 -9.75,-24.05 -13.45,-22.35L-13.5,-22.35M18.2,-9.1C18.967,-10.133 19.35,-11.267 19.35,-12.5L19.35,-13.1L19.2,-13.8M5.45,-3.1C6.817,-3.3 8.133,-3.583 9.4,-3.95L12.75,-5.15L13.6,-5.55L14.25,-5.9L13.8,-4.9C13.333,-4.167 12.617,-3.467 11.65,-2.8L11.5,-2.7L11.6,-2.55L11.65,-2.8M15.35,-6.55L15.9,-6.95C16.867,-7.617 17.633,-8.333 18.2,-9.1C20.2,-7.967 21.7,-6.733 22.7,-5.4L23,-4.95C25.4,-2.217 27.417,0.533 29.05,3.3L29.45,3.85C30.683,5.517 31.3,7.317 31.3,9.25C31.3,10.283 31.117,11.3 30.75,12.3L29.3,14.9M27.85,16.5L24.95,18.75L22.05,20.4C19.483,21.667 16.717,22.683 13.75,23.45L10.85,24.05L3.1,24.4L-4.35,24.9L-6.55,24.7L-10.5,24.2L-14.05,23.45C-16.817,22.783 -19.383,21.883 -21.75,20.75L-22.5,20.4L-23.1,20.1L-25.1,18.95L-26.35,18.1M-27.1,17.55L-29.2,15.55C-30.2,14.417 -30.733,13.333 -30.8,12.3L-31.3,6.5L-31.15,6.1L-30.9,5.55L-30.9,5.5L-30.8,5.3C-28.5,0.3 -25.45,-3.8 -21.65,-7L-20.95,-7.55L-20.95,-7.6L-18.7,-9.05L-19.45,-10.45C-19.717,-11.117 -19.85,-11.8 -19.85,-12.5L-19.7,-13.8L-19.85,-15.1L-19.5,-17L-18.5,-18.75L-17.05,-20.2L-15.15,-21.5M14.25,0.55C15.983,-0.817 16.85,-2.333 16.85,-4L16.85,-4.05C16.85,-5.083 16.533,-6.05 15.9,-6.95M15.35,-6.55L14.25,-5.9M11.5,-2.7L10.1,-1.9C7.233,-0.467 3.767,0.25 -0.3,0.25C-3.933,0.25 -7.1,-0.333 -9.8,-1.5L-10.3,-0.55M1.95,4.45C4.083,4.317 6.067,4 7.9,3.5C9.3,3.1 10.617,2.6 11.85,2L14.25,0.55M-16.45,-6.95L-17.55,-7.85L-18.7,-9.05M-16.45,-6.95C-17.117,-6.05 -17.45,-5.083 -17.45,-4.05L-17.45,-3.95C-17.417,-1.683 -15.817,0.267 -12.65,1.9L-12.4,2L-11.8,2.3C-10.233,3.033 -8.517,3.583 -6.65,3.95L-0.3,4.55L1.95,4.45M-13.1,-3.45L-14.35,-4.85L-14.8,-5.95L-16.45,-6.95M-13.1,-3.45C-12.467,-2.917 -11.667,-2.4 -10.7,-1.9L-9.8,-1.5M5.45,-3.1L-0.25,-2.7C-5.25,-2.7 -9.567,-3.517 -13.2,-5.15L-14.1,-5.55L-14.8,-5.95" style="fill:none;fill-rule:nonzero;stroke:#100707;stroke-opacity:0.51;stroke-width:0.05px;"/>
                        <path d="M-13.45,-22.35L-13.5,-22.3L-13.5,-22.35M-8,-19.95L-4.5,-19.35M9.35,-6.5L9.15,-6.45L3.85,-8.25L2.1,-11.5M5.3,-5.65L5.3,-5.6L5.45,-3.1M9.4,-3.95L9.35,-6.5M5.25,-5.65L5.3,-5.6M5.25,-5.65L3.85,-8.25M29.3,14.9L29.25,14.8L28.8,13.95L28.3,15.3L27.85,16.5M-26.35,18.1L-25.55,16.95L-27.1,17.55M-15.15,-21.5L-14,-21.15L-13.5,-22.3M11.65,-2.8L11.9,-4.5M14.25,0.55L11.6,-2.55M22.75,3.4L19.5,2.3L14.25,0.55M22.75,3.4L22.95,3.45L26.45,9.8M26.65,10.15L27.6,11.8L28.8,13.95M-14,-21.15L-12.6,-20.75L-11.05,-20.35L-7.9,-19.9M-12.6,-20.75L-17.05,-20.2M-11.8,2.3L-10.3,-0.55M-9.8,-1.5L-10.2,-3.7M-6.65,3.95L-12.6,2.85L-15.15,4.6L-15.25,4.65L-16.9,5.75M-11.8,2.3L-12.6,2.85M-12.65,1.9L-15.15,4.6M-19.25,8.2L-20,8.7L-21.05,10.3L-17.6,12.65L-11.55,14.4M-14.45,14.35L-14.75,14.35M-22.35,12.2L-23.55,14L-22.1,19.4L-21.75,20.75M-19.25,8.2L-17.45,6.3M-24.8,15.85L-23.55,14M-20.55,11.95L-22.35,12.2M-20.55,11.95L-21.05,10.3M-22.1,19.4L-23.1,20.1M-24.8,15.85L-25.55,16.95M-30.9,5.55L-29.75,3.9" style="fill:none;fill-rule:nonzero;stroke:#0f0606;stroke-opacity:0.29;stroke-width:0.05px;"/>
                        <path d="M26.45,9.8L26.65,10.15L26.8,11.6L27.6,11.8L28.3,12M26.8,11.6L26.45,11.5L19,15.8L17.8,21.9M1.4,11.25L-1.9,14.6L-3.3,16M-15.25,4.65L-2.15,8.55L0.2,10.3L0.5,10.1M1.5,11.25L0.2,10.3L-1.5,11.25L-1.7,11.35L-1.9,14.6M-1.7,11.35L-2,11.5" style="fill:none;fill-rule:nonzero;stroke:#0f0606;stroke-opacity:0.14;stroke-width:0.05px;"/>
                        <path d="M0.05,17.1L2.7,17M3.65,17L4.8,16.95M-18.4,-11.3L-18.45,-11.3L-18.15,-9M-16.6,-11.15L-17.15,-11.75L-18.4,-11.3M-18.5,-11.4L-18.45,-11.3M-16.6,-11.15L-15.9,-10.4M-17.15,-11.75L-15.55,-12.3M-18.5,-11.4L-18.65,-11.65M-15.45,15L-16.15,14.9M-15.9,16.05L-15.55,16.4M-7.25,18.75L-7.8,18.85C-8,19.05 -8.067,19.3 -8,19.6L-7.85,19.75C-7.65,19.85 -7.55,19.983 -7.55,20.15L-7.55,20.35C-7.783,20.817 -7.883,21.3 -7.85,21.8L-7.45,21.2L-7.2,20.6L-6.9,20.05L-6.9,19.95L-6.85,19.9C-6.817,19.767 -6.833,19.683 -6.9,19.65M-5.85,15.8L-14.55,15.1M-26.55,8.65L-26.6,8.2L-26.7,8.05C-27.9,8.117 -28.633,8.833 -28.9,10.2M-24.45,6.45L-23.2,8.3M-22.75,8.7C-22.317,8.967 -21.867,9.217 -21.4,9.45" style="fill:none;fill-rule:nonzero;stroke:#0f0606;stroke-opacity:0.15;stroke-width:0.05px;"/>
                    </g>
                    <g id="shape2" transform="matrix(1,0,0,1,0.05,14.9)">
                        <path d="M-19.65,5.2L-19.1,4.05L-18.45,4.3M-27.5,0.95L-26.75,-0.25M-28.15,0.15L-27.8,-0.45M-11.65,7.9L-11.25,6L-9.95,6.3L-10.75,7.45M-8.9,6.8L-8.75,8M-15.35,6.55L-15,5.3L-13.5,5.5L-13.6,6.05L-14.35,5.95L-14.45,6.45M-16.95,6.2L-16.5,4.9L-15.95,5.3L-16.25,6.55M-7.1,7.7L-2.85,7.9M-1.9,7.9L-0.45,7.75M1.1,8.75L1.1,6.8L1.9,6.8L2.1,7.7M8.95,8.15L9.1,7.85L9.5,6.85L10.45,7.5L10.65,7.6M3.5,8.1L7.65,7.8M10.45,7.5L9.6,7.75L9.1,7.85M30.05,-8.7L30.55,-7.9M29.55,-6.75L30.5,-5.55M28.7,-2.6L29.5,-2.1M29.5,-3.5L29.85,-3.2M24.75,2.25L24.45,1M21.9,4.3L20.85,2.8L22.4,2.05L22.7,2.7M27.25,0.55L26.25,-0.8M18.9,4.65L19.75,4.3M11.6,7.15L13.05,5.2L14.05,6.3L12.15,6.85M16.15,5.65L17.6,5.05M29.5,-8.4L30.55,-7M-30.5,-7.3L-30.5,-8.35M-29.95,-3.05L-29.25,-3.8M-29.9,-4.7L-30.45,-6.25M-29.65,-1.5L-28.15,-2.85" style="fill:none;fill-rule:nonzero;stroke:#0f0606;stroke-opacity:0.29;stroke-width:0.05px;"/>
                    </g>
                </g>
                <g id="shape3" transform="matrix(1,0,0,1,-0.45,-59.85)">
                    <path d="M8.7,-8.5L10.75,0L4.05,-1.95L3.3,-10.1L4.05,-1.95L10.75,0L6.25,4.9L2.2,3.8L4.05,-1.95L2.15,-1.9L4.05,-1.95L2.2,3.8L-2.2,3.8L-4.3,-1.85L2.15,-1.9L-4.3,-1.85L-4.15,-3.5L-3.5,-10.05L-2.85,-10.05L2.15,-10.1L3.3,-10.1L8.7,-8.55L8.7,-8.5M4.45,12.6L-4.05,12.65L-10.7,10.75L-14.4,7.55L-14.55,3.35L-8.55,7.1L-8.55,9.25L-8.05,9.7L-6.2,11.3L-8.05,11.05L-6.2,11.3L-2.05,12.4L2.25,12.4L4.45,12.6M-4.05,12.65L-2.05,12.4L-4.05,12.65M-14.4,7.55L-8.55,9.25L-14.4,7.55M-8.05,11.05L-10.7,10.75L-8.05,11.05" style="fill:#5294f1;fill-opacity:0.58;"/>
                    <path d="M-2.2,3.8L2.2,3.8L6.25,4.9L8.6,7L8.6,9.2L6.5,11.2L6.15,11.3L2.25,12.4L-2.05,12.4L-6.2,11.3L-8.05,9.7L-8.55,9.25L-8.55,7.1L-8.05,6.65L-6.25,5L-2.2,3.8" style="fill:#2e6fce;fill-opacity:0.58;"/>
                    <path d="M10.75,0L8.7,-8.5L11.8,-5.95L14.55,3.2L10.75,0L14.55,3.2L14.6,7.4L8.6,9.2L8.6,7L6.25,4.9L10.75,0M14.55,3.2L8.6,7L14.55,3.2" style="fill:#2a6bcc;fill-opacity:0.58;"/>
                    <path d="M14.6,7.4L10.75,10.75L8.8,11.3L4.45,12.6L2.25,12.4L6.15,11.3L6.5,11.2L8.6,9.2L14.6,7.4M10.75,10.75L6.5,11.2L10.75,10.75" style="fill:#1d5ebf;fill-opacity:0.58;"/>
                    <path d="M-4.3,-1.85L-2.2,3.8L-6.25,5L-8.05,3L-10.7,0L-8.05,-0.8L-4.3,-1.85L-8.05,-0.8L-10.7,0L-8.7,-8.55L-3.5,-10.05L-4.15,-3.5L-4.3,-1.85" style="fill:#0e4fb0;fill-opacity:0.64;"/>
                    <path d="M-14.55,3.35L-11.8,-5.8L-11.8,-5.85L-8.7,-8.55L-10.7,0L-14.55,3.35" style="fill:#0040a1;fill-opacity:0.64;"/>
                    <path d="M-10.7,0L-8.05,3L-6.25,5L-8.05,6.65L-8.55,7.1L-14.55,3.35L-10.7,0" style="fill:#0040a1;fill-opacity:0.56;"/>
                    <path d="M2.15,-1.9L-4.3,-1.85L-2.2,3.8L2.2,3.8M8.8,11.3L4.45,12.6L2.25,12.4L-2.05,12.4L-4.05,12.65M-2.85,-10.05L2.15,-10.1M2.25,12.4L6.15,11.3M-8.05,-0.8L-4.3,-1.85L-4.15,-3.5M-8.05,3L-6.25,5L-2.2,3.8M-8.05,6.65L-6.25,5M-6.2,11.3L-8.05,9.7M-8.05,11.05L-6.2,11.3L-2.05,12.4" style="fill:none;fill-rule:nonzero;stroke:#c5ffff;stroke-opacity:0.6;stroke-width:0.05px;"/>
                    <path d="M-10.7,10.75L-14.4,7.55L-14.55,3.35L-11.8,-5.8L-11.8,-5.85L-8.7,-8.55L-3.5,-10.05L-2.85,-10.05M-4.15,-3.5L-3.5,-10.05M-10.7,0L-8.05,-0.8M-8.7,-8.55L-10.7,0L-8.05,3M-8.55,9.25L-8.55,7.1L-14.55,3.35L-10.7,0M-8.55,7.1L-8.05,6.65M-8.05,9.7L-8.55,9.25L-14.4,7.55M-10.7,10.75L-8.05,11.05" style="fill:none;fill-rule:nonzero;stroke:#c5ffff;stroke-opacity:0.38;stroke-width:0.05px;"/>
                    <path d="M10.75,0L8.7,-8.5L8.7,-8.55L3.3,-10.1L4.05,-1.95L10.75,0L14.55,3.2L11.8,-5.95L8.7,-8.5M2.15,-10.1L3.3,-10.1M2.2,3.8L4.05,-1.95L2.15,-1.9M2.2,3.8L6.25,4.9L10.75,0M14.6,7.4L10.75,10.75L8.8,11.3M14.55,3.2L14.6,7.4L8.6,9.2L6.5,11.2L10.75,10.75M8.6,9.2L8.6,7L6.25,4.9M6.15,11.3L6.5,11.2M8.6,7L14.55,3.2" style="fill:none;fill-rule:nonzero;stroke:#c5ffff;stroke-opacity:0.5;stroke-width:0.05px;"/>
                    <path d="M11.8,-2.55L11.75,-5.95L14.55,3.2L14.6,7.4L11.8,-2.55L14.6,7.4L10.75,10.75L8.7,0.15L11.8,-2.55M4.45,12.6L-4.05,12.65L-3.25,1.7L3.6,1.7L4.35,11.3L4.45,12.6" style="fill:#93d6ff;fill-opacity:0.29;"/>
                    <path d="M-4.05,12.65L-8.05,11.5L-10.7,10.75L-14.4,7.55L-14.55,3.35L-11.8,-5.8L-11.7,-2.4L-8.7,0.15L-8.05,0.35L-3.25,1.7L-4.05,12.65M-10.7,10.75L-8.7,0.15L-10.7,10.75M-11.7,-2.4L-14.4,7.55L-11.7,-2.4" style="fill:#6aacff;fill-opacity:0.29;"/>
                    <path d="M10.75,10.75L8.8,11.3L4.45,12.6L4.35,11.3L3.6,1.7L8.7,0.15L10.75,10.75" style="fill:#daffff;fill-opacity:0.36;"/>
                    <path d="M8.8,11.3L4.45,12.6L-4.05,12.65L-8.05,11.5M-8.05,0.35L-3.25,1.7L2.15,1.7M4.35,11.3L4.45,12.6M-3.25,1.7L-4.05,12.65" style="fill:none;fill-rule:nonzero;stroke:#c5ffff;stroke-opacity:0.6;stroke-width:0.05px;"/>
                    <path d="M-8.05,11.5L-10.7,10.75L-14.4,7.55L-14.55,3.35L-11.8,-5.8L-11.7,-2.4L-8.7,0.15L-8.05,0.35M-8.7,0.15L-10.7,10.75M-14.4,7.55L-11.7,-2.4" style="fill:none;fill-rule:nonzero;stroke:#c5ffff;stroke-opacity:0.38;stroke-width:0.05px;"/>
                    <path d="M14.6,7.4L14.55,3.2L11.75,-5.95L11.8,-2.55L14.6,7.4L10.75,10.75L8.8,11.3M2.15,1.7L3.6,1.7L8.7,0.15L11.8,-2.55M3.6,1.7L4.35,11.3M10.75,10.75L8.7,0.15" style="fill:none;fill-rule:nonzero;stroke:#c5ffff;stroke-opacity:0.5;stroke-width:0.05px;"/>
                    <path d="M3.25,-10.1L-0.05,-12.65L-2.85,-10.55L-3.5,-10.05L-8.7,-8.55C-6.733,-9.483 -4.783,-10.4 -2.85,-11.3L-0.05,-12.65L2.15,-11.6L8.65,-8.55L3.25,-10.1" style="fill:#92d5ff;fill-opacity:0.58;"/>
                    <path d="M2.15,-10.95L3.25,-10.1L2.15,-10.1L-2.85,-10.05L-3.5,-10.05L-2.85,-10.55L-0.05,-12.65L2.15,-10.95" style="fill:#93d6ff;fill-opacity:0.29;"/>
                    <path d="M2.15,-10.95L-0.05,-12.65L-2.85,-10.55M-2.85,-10.05L2.15,-10.1M2.15,-11.6L-0.05,-12.65L-2.85,-11.3" style="fill:none;fill-rule:nonzero;stroke:#c5ffff;stroke-opacity:0.6;stroke-width:0.05px;"/>
                    <path d="M-2.85,-10.55L-3.5,-10.05L-2.85,-10.05M-2.85,-11.3C-4.783,-10.4 -6.733,-9.483 -8.7,-8.55L-3.5,-10.05" style="fill:none;fill-rule:nonzero;stroke:#c5ffff;stroke-opacity:0.38;stroke-width:0.05px;"/>
                    <path d="M3.25,-10.1L2.15,-10.95M2.15,-10.1L3.25,-10.1L8.65,-8.55L2.15,-11.6" style="fill:none;fill-rule:nonzero;stroke:#c5ffff;stroke-opacity:0.5;stroke-width:0.05px;"/>
                    <path d="M-0.05,-12.65L-0.05,-12.6L-0.05,-12.65L-0.05,-12.6L-0.05,-12.65L-0.05,-12.6L-0.8,-12L-0.05,-12.65" style="fill:#92d5ff;fill-opacity:0.58;"/>
                    <path d="M-11.7,-2.4L-11.8,-5.8L-11.75,-5.85L-5.6,-9.45L-5.55,-9.45L-2.85,-11.05L-0.05,-12.65L-0.8,-12L-2.85,-10.2L-11.7,-2.4" style="fill:#5ea0fc;fill-opacity:0.58;"/>
                    <path d="M-3.3,1.7L-8.05,0.35L-8.7,0.15L-8.05,-0.8L-6.25,-3.5L-2.85,-8.5L-0.05,-12.6L-0.05,-12.55L-3.3,1.7" style="fill:#85c6ff;fill-opacity:0.45;"/>
                    <path d="M-8.7,0.15L-11.7,-2.4L-2.85,-10.2L-0.8,-12L-0.05,-12.6L-2.85,-8.5L-6.25,-3.5L-8.05,-0.8L-8.7,0.15" style="fill:#86c7ff;fill-opacity:0.3;"/>
                    <path d="M2.15,-9.4L8.7,0.15L3.6,1.7L2.15,-3.9L-0.05,-12.55L-0.05,-12.6L0,-12.55L2.15,-9.4" style="fill:#ecffff;fill-opacity:0.73;"/>
                    <path d="M2.15,-11.35L0.05,-12.55L2.15,-10.75M2.15,1.7L-3.3,1.7L-8.05,0.35M-2.85,-11.3L-0.05,-12.65L2.15,-11.6M2.15,-3.9L-0.05,-12.55L-3.3,1.7M-0.05,-12.65L-0.05,-12.6L0.05,-12.55L0,-12.55L2.15,-9.4M-0.05,-12.6L-0.05,-12.65L-0.05,-12.6L0,-12.55M-0.05,-12.6L-0.05,-12.55L-0.05,-12.6L-2.85,-8.5M-6.25,-3.5L-8.05,-0.8M-2.85,-10.2L-0.8,-12L-0.05,-12.65L-2.85,-11.05M-0.8,-12L-0.05,-12.6" style="fill:none;fill-rule:nonzero;stroke:#c5ffff;stroke-opacity:0.6;stroke-width:0.05px;"/>
                    <path d="M-8.05,0.35L-8.7,0.15L-11.7,-2.4L-11.8,-5.8L-11.8,-5.85L-11.75,-5.85L-8.7,-8.55C-6.733,-9.483 -4.783,-10.4 -2.85,-11.3M-2.85,-8.5L-6.25,-3.5M-8.05,-0.8L-8.7,0.15M-2.85,-11.05L-5.55,-9.45L-5.6,-9.45L-11.75,-5.85L-11.8,-5.8M-11.7,-2.4L-2.85,-10.2" style="fill:none;fill-rule:nonzero;stroke:#c5ffff;stroke-opacity:0.38;stroke-width:0.05px;"/>
                    <path d="M2.15,-10.75L11.8,-2.55L11.8,-5.95L11.7,-6L2.15,-11.35M2.15,-11.6L8.65,-8.55L11.7,-6M2.15,-9.4L8.7,0.15L11.8,-2.55M3.6,1.7L2.15,1.7M8.7,0.15L3.6,1.7L2.15,-3.9" style="fill:none;fill-rule:nonzero;stroke:#c5ffff;stroke-opacity:0.5;stroke-width:0.05px;"/>
                    <path d="M1.45,1.7L0.7,1.7M-1.05,1.3L-1.15,2.15M-5.4,0.5L-6.4,1.1" style="fill:none;fill-rule:nonzero;stroke:#ecffff;stroke-width:0.05px;"/>
                    <path d="M-12.35,0.9L-12.85,1.35" style="fill:none;fill-rule:nonzero;stroke:#c5ffff;stroke-opacity:0.38;stroke-width:0.05px;"/>
                    <path d="M6.4,-9.6L6.85,-9.65L7,-10.7M7.45,-9.7L6.85,-9.65L6.75,-8.8" style="fill:none;fill-rule:nonzero;stroke:#c5ffff;stroke-opacity:0.5;stroke-width:0.05px;"/>
                </g>
            </g>
        </g>
    </g>
</svg>
