<svg width="362" height="530" xmlns="http://www.w3.org/2000/svg" xmlns:xlink="http://www.w3.org/1999/xlink">
 <defs>
  <g transform="matrix(1,0,0,1,192.55,294) " id="shape0">
   <path id="svg_1" stroke-opacity="0" stroke-linejoin="round" stroke-linecap="round" stroke="#ff00ff" fill="none" d="m187.95,-293.5l0,380l-379.95,0l-0.05,0l0,-380l380,0m-95,294.1l-189.95,0"/>
   <path id="svg_2" stroke-opacity="0" stroke-linejoin="round" stroke-linecap="round" stroke="#ff00ff" fill="none" d="m187.95,-293.5l-190,190l190,190m-380,-380l190,190l-189.95,190"/>
   <path id="svg_3" fill-rule="evenodd" fill="#000000" d="m67.5,-27.75l0.05,0l-0.05,-0.05l0,0.05"/>
   <path id="svg_4" stroke-width="2.25" stroke-linejoin="round" stroke-linecap="round" stroke="#413123" fill="none" d="m-82.65,-49.95l-13.35,-9.95l-0.1,-7.85l6.85,-16.35l0.05,-0.65q0.95,-13.7 -1.7,-21.45q0.3,-5.8 4.5,-6.55l0.15,-0.1q1.6,-0.55 2.95,0.25l1.05,0.85l0.1,0.15l0.35,0.4l0.8,1.35l0.65,1.35l0.05,-0.9l0.9,-4.85q0.75,-3.1 1.9,-6.3l2.45,-5.75l1.85,-3.6l4.6,-7.4l6.45,-8.5l0,-0.1q0.05,-1.2 -0.75,-1.9q-1.15,-1.1 -4.25,-1.05l-0.4,0q-3.05,0.15 -7.9,1.4q2.6,-6.35 6.45,-11.45q3.45,-4.7 7.9,-8.4l3.35,-2.55l-6.15,-3.55l8.65,-1.9l-6.85,-13.8l3.95,2.15l-1.7,-14.65l5.05,3.15l10.1,-36.15l2.3,-3.5q1.25,-1.85 2.4,-2.75l1.6,-1l0.4,-0.1l-0.85,1.9q-2.3,5.95 -2.5,15.55l0,5.25l4.9,-7.9l6.6,29.7l0,0.05l1.15,5.05l2.05,-6.9q2.4,7.9 5.85,15.8l1.45,3.35q4.4,9.2 10.25,18.45q3.4,-3.65 9.25,-3.3l-3.15,-9.95q3.55,3.2 6.9,7.45l1.4,1.75q2.25,-1.5 6.85,-1.35l7.45,0.8l8.1,1.9l0.15,0.05q3.75,2.2 6.65,4.4q8.7,6.55 9.6,12.75q0.4,2.4 -0.4,4.8l4.5,1.7l0.2,0.05l2,0.95q7.65,3.65 12.05,8.95l3,4.45q4.65,8.5 2.7,20.4l-1.8,2.55q-0.9,1.5 -1.7,3.5l-0.3,-0.65l0.5,2.05q0.15,0.85 -0.05,1.05l1,1.65l-1.45,0.55q0,2.05 0.6,3.9l0.55,1.65l-0.9,-0.8l-0.15,3.15l0.2,2.85q-0.45,-0.25 -0.75,-1.45l-0.8,4.1l1.5,2.3l-1.6,6.15l0.7,4.7l-1.25,-2.5l-2.1,8.25l7.05,0.9q5.65,1.2 8.95,4.15l0.35,2.2l0.3,0l2.1,3.6q1.7,2.65 1.2,4.5q-1.4,0 -3.35,-1.25l-0.2,1.05q-0.4,2.15 -1.45,3.85l-2,0.2l0.25,3.65l-0.7,0.55l0.4,1.9q0.6,2.65 -0.65,4.5q-1.85,0.05 -4,-2.25l-0.75,-0.85l-4.5,-0.2l0.6,1.6l-2.35,2.25q-2.45,0.95 -1.55,4.1l-0.2,0.05l0.2,2.95l-0.5,0.15q-1.8,0.2 -4.05,-2.25l-0.35,-0.35l-0.95,-1.25l-9.8,0.95l-1.05,-1.85l-11.8,-8.65l1.25,-0.8l-17.45,-7.9q-0.05,-3.4 2.75,-6.3l1.05,-0.05l2.75,-5.05q-1.45,-1.85 -2.75,-4.45q-2.25,-4.55 -3.85,-11.4l0,-0.05l0.15,-0.5l2.25,-7.85q-2.6,1.65 -5.15,2.55q-4.45,1.5 -8.65,0.5l-0.15,1.2q-1.5,8.95 -4.8,16.35l1.35,1.5q9,10.45 12.2,26.6q3.2,2.25 5.05,6.6q-0.9,5.25 -2.8,8l6.35,15.55q2.35,7.55 0.9,12.9q-4.3,5.75 -9.45,3.9q-4.4,6.9 -17.55,4.45q-3.2,2.35 -7.4,1.15l2.5,-4.4q-1.65,-1.8 -2.05,-4.25q-0.2,-1.2 -0.05,-2.55l-0.3,0.05q-7.7,0.65 -11.75,-2.7l-0.75,0.5l-1.4,0.65q-1.65,0.6 -4,0.7l-0.75,-0.45q-1.6,-1.4 -0.85,-2.65l0.8,-1.6l-0.35,-2.65l0,-1.1q0.25,-2.15 1.4,-4.1q-2.95,1.5 -4.75,1.8q-2.85,0.5 -2.65,-2.3l-6.8,0.35q2.3,-3.2 5.35,-5.55l2.65,-1.7l2.65,-5.9l0.1,-0.15l0.35,-0.7l0.05,-0.15l0.1,-0.15q2.2,-4.4 8.15,-5.6l7.8,-1.4l3.7,0.15l-1.65,-12.55l-0.1,0.7l-1.55,-2.9l-0.15,-0.2q0.3,1.15 -0.3,3.45q-0.9,3.4 -4.9,7.25l-0.25,0.25l-0.55,0.5l0.25,-0.6q4,-12.15 -0.65,-22.65l0,-0.05q-0.7,1.55 -1.85,1.9q1,-4.1 0.15,-8l-2.15,1.1l1.55,-2.5q1.25,-2.45 1.25,-5.1l-3.4,-0.7l2.25,-2.25l-2.7,-2l1.6,0.75l0.55,-0.1l0.1,-0.05l-3.55,-5.95l-2.05,-4.95l-4.8,0l-3.55,3.55l-0.8,10.75q-2.4,1.65 -5.75,2l-5.7,-0.2l-2.3,-1.6q2.6,5.65 1.5,11.3l0.25,1.15q0.6,2.65 -0.65,4.5q-1.85,0 -4,-2.25l-0.8,-0.9l-0.05,0l-1.1,0.2l-1.75,-1.4l0,1q0,0.65 -0.3,1.2l-0.55,0.6q0.5,2.5 -0.7,4.25q-1.85,0.05 -3.95,-2.25l-0.8,-0.85l-0.1,-0.15l-0.2,-0.45l-0.25,0l-5.55,-1.95l-0.9,0.35l-0.15,0.4l-0.1,0.3l-0.55,0.65l0.15,0.8q0.45,1.85 -0.05,3.25l-0.55,1.25q-1.9,0.05 -4,-2.25l-0.5,-0.5l-1.55,-0.5l-1.2,0.05z"/>
   <path id="svg_5" fill-rule="evenodd" fill="#ffe7ae" d="m-45.4,-232l-9.4,33.55l-5.05,-3.15l1.7,14.65l-3.95,-2.15l6.85,13.8l0.8,1.5l0.15,1.95l-3.45,2l-3.35,2.55q-4.45,3.7 -7.9,8.4q8.5,-4.95 17.05,-4.7l-0.75,-0.4q5.3,-4.3 12.8,-3q-2.4,-5.7 -5.85,-12q-0.5,-1 -0.05,-0.65l2.45,2.95q17.65,17 15.1,14.95l6.3,5.35q-0.75,-2.95 -0.8,-5.1q0,-2.1 -2.35,-9.2l3.35,7q6.1,8.4 11,10.85l5.55,2.65l0,-1.6l3,2.7l-4.05,-7.65l-1.15,-2.3l-1.7,-2.6q-5.85,-9.25 -10.25,-18.45l-1.45,-3.35q-3.45,-7.9 -5.85,-15.8l-2.05,6.9l-0.1,-0.4l-0.6,2.9l0.7,-2.5l-0.7,2.5l-0.55,2.85l-0.45,3.75q-0.6,-7.15 0.5,-14.15l0.05,-0.05l-6.6,-29.7l-3.45,5.55l-4.15,9.65q-0.85,5.5 -0.75,11.35l0.95,14.75q-4.55,-17.9 -3.6,-27.2l2.05,-18.95m22.95,200.3l-0.25,0.6l0.55,-0.5l-0.3,-0.1m27.75,-134l-1.4,-1.75q-3.35,-4.25 -6.9,-7.45l3.15,9.95l2.45,7.6l2.05,4.95l0.35,0.8q0.8,3.4 4.8,8.35q3.9,4.9 9.45,10.2l0.25,0.25l0,-0.2l-2.75,-12.3l-0.4,-1.7l0.65,1.5l0,-0.3l-0.65,-1.2l-2.8,-5.55l-5.1,-8.6l-3.15,-4.55m-63.25,-19.35l-0.2,-1.9l0.2,1.9m3.15,-13.4l-1,3.65l1,-3.65m40.8,135.4l-0.1,0.25l-0.1,0.2q-0.35,-3.95 -2.95,6.4q1.35,16.05 2.65,11.25l1,-11l0,-0.05l-0.15,-0.75l-0.3,-5.25l0.05,0.3l0.25,1.55l0.4,1.3l-0.4,-1.3l0.35,1.6l0.05,-0.3l2.7,5.95q-1,-6.65 0.05,-11.1l0.55,-2.7q-0.7,0.85 -2.65,1.45l-0.2,0.4l-0.25,0.35l-0.95,1.45m-5.15,6.45l0,-5.2q-0.6,-3.5 -2.6,3.3q-0.65,3.25 0.05,6.35q4.75,13.95 3.15,4.75l-0.2,-0.95l-0.65,-4.55l0.1,-3.15l0.15,-0.55"/>
   <path id="svg_6" fill-rule="evenodd" fill="#deb776" d="m-38.1,-241.75l-0.3,-0.1l-1.6,1q-1.15,0.9 -2.4,2.75l-2.3,3.5l-0.7,2.6l-2.05,18.95q-0.95,9.3 3.6,27.2l-0.95,-14.75q-0.1,-5.85 0.75,-11.35l4.15,-9.65l-1.45,2.35l0,-5.25q0.2,-9.6 2.5,-15.55l0.75,-1.7m-17.15,66.45l-8.65,1.9l6.15,3.55l3.45,-2l-0.15,-1.95l-0.8,-1.5m-13.75,16.4q-3.85,5.1 -6.45,11.45q4.85,-1.25 7.9,-1.4l0.4,0q3.1,-0.05 4.25,1.05q0.8,0.7 0.75,1.9l0.1,0l1.2,-1.45l0.65,-0.25q4.7,-5.55 13.95,-10.15l11.1,-2.4l0.35,0.25l1.5,0.65l4.55,2.4l1.85,0.95l0.3,0.1q2.1,0.85 3.7,2.6l-20.45,-23.5l20.45,23.5l0.5,0.7l1,1.05l2.4,2.15l-0.15,-0.7l-0.55,-4l-0.25,-2.95q-0.05,-0.5 2,0.6q5.2,4.1 12.5,8.75l1.95,1.25l0.1,-0.1l0.65,-0.6l0.15,1.25l1.15,0.8q0.55,-1.6 1.65,-2.05q-0.7,1.7 0.25,3.3l4.15,2.9q0.2,-1.65 1.35,-2.9l0.1,1.05q0.05,1.05 0.5,2.05q0.45,1 3.4,3.3l2.85,2.55l1.1,-0.85l0.1,0l-0.45,1.55l0,0.1l0.1,0.25l0.2,0.15l0.2,-0.2l0.3,0l0.1,0.1l0.05,0.1l0,0.8l0.4,0.4l0.25,0.35l0.1,-0.1l0.4,-0.25q0.4,0.15 0.2,1.15l0.8,1l1.1,0.9l1.9,2.1l0.1,0l0.1,-0.6q-0.75,-2 0.8,-2.85l0.5,-0.7q0.25,-0.6 7.8,2.95q1.2,0.55 2.45,1.15q2.4,1 0.2,-0.1l-0.2,-0.1l-2.35,-1.2q-2.45,-1.35 -4.15,-2.6q-2.55,-1.75 -3,-2.8l-0.1,-0.5l-0.05,-0.1l-0.05,-0.1l-4.35,-10.15l-0.35,-0.85l0,0.3l-0.25,0.2l2.75,12.3l0,0.2l-0.25,-0.25q-5.55,-5.3 -9.45,-10.2q-4,-4.95 -4.8,-8.35l-0.35,-0.8l-2.05,-4.95l-2,-1.25l-0.05,0l0,-0.05l-5.65,-3.7l1.8,5.1l-4.1,-1.8l1.15,2.3l4.05,7.65l-3,-2.7l0,1.6l-5.55,-2.65q-4.9,-2.45 -11,-10.85l-3.35,-7q2.35,7.1 2.35,9.2q0.05,2.15 0.8,5.1l-6.3,-5.35q2.55,2.05 -15.1,-14.95l-2.45,-2.95q-0.45,-0.35 0.05,0.65q3.45,6.3 5.85,12q-7.5,-1.3 -12.8,3l0.75,0.4q-8.55,-0.25 -17.05,4.7m43.25,87.55l-0.1,0.05l-0.55,0.1l-1.6,-0.75l2.7,2l-2.25,2.25l3.4,0.7q0,2.65 -1.25,5.1l-1.55,2.5l2.15,-1.1q0.85,3.9 -0.15,8q1.15,-0.35 1.85,-1.9l0,0.05q4.65,10.5 0.65,22.65l0.3,0.1q4.9,-5.35 4.55,-9.35q-0.35,-3.65 -0.95,-6.45q1.6,9.2 -3.15,-4.75q-0.7,-3.1 -0.05,-6.35q2,-6.8 2.6,-3.3l0,5.2l0.1,4.6l0.6,4.55l1.15,3.15l0.75,1.95l1.55,2.9l0.1,-0.7l0.4,-4.8q-1.3,4.8 -2.65,-11.25q2.6,-10.35 2.95,-6.4l0,-1.2l0.05,0.75l0.05,0.2l0,0.05l0.1,-0.25l0,-1.45l-0.1,-0.35l-2.75,0.5l0,0.05l-1.8,2.5l-0.5,-0.65l-0.6,-1.5l-0.45,0l-0.4,0.75l-1.55,2.1l0,-0.15l-0.5,-5.1l-0.6,-1.25l-0.15,-0.35l-0.25,-0.7l-0.7,-1.05l-0.2,-0.25l-0.75,-1.4l-0.45,0m88.2,0.25l1.25,2.5l-0.7,-4.7l-0.55,2.2m0.65,-10.65l0.8,-4.1q0.3,1.2 0.75,1.45l-0.2,-2.85l0.15,-3.15l0.9,0.8l-0.55,-1.65q-0.6,-1.85 -0.6,-3.9l1.45,-0.55l-1,-1.65q0.2,-0.2 0.05,-1.05l-0.25,-1.3q-1.2,2.95 -2.15,6.75l0,0.1l-0.2,1.1l-0.15,0.3l-1.2,6.3l1.2,1.85l0.15,0.15l0.85,1.4m-91.9,-111l-1.05,-4.65l-0.05,0q-1.1,7 -0.5,14.15l0.45,-3.75l0.55,-2.85l0.6,-2.9m-13.4,-25.3l0.85,-1.2l-0.85,1.2m-9.75,54.45l7,0.65l0,0.15l-7,-0.8m-11.4,11.3q10.45,-5.75 16.45,-5.5l0.65,0.05l-0.65,-0.05q-6,-0.25 -16.45,5.5m18.4,-10.65q4.1,0.65 8.05,2.1l0.35,0.15l0.05,0.05l1.35,0.5l-1.35,-0.5l-0.05,-0.05l-0.35,-0.15q-3.95,-1.45 -8.05,-2.1m20.8,95.95l0.75,-0.95l-0.75,0.95m0.5,10.65l0.55,1.95l-0.55,-1.95m21.5,-97.4l-1.15,-3.5l1.15,3.5m64.4,68.55l0,-2.2l0,0.4l0.05,1.8l-0.05,0m1.25,-5.6l-0.05,-0.05l0.05,-0.05l0,0.1m0.45,-5l0.4,0.65l-0.4,-0.65"/>
   <path id="svg_7" fill-rule="evenodd" fill="#966d55" d="m-38.1,-241.75l0.1,-0.2l-0.4,0.1l0.3,0.1m-24.05,95.85l0,0.1l0.1,-0.1l-0.1,0m40,114.3l0.25,-0.25q4,-3.85 4.9,-7.25q0.6,-2.3 0.3,-3.45l0.15,0.2l-0.75,-1.95l-1.15,-3.15l-0.6,-4.55l-0.1,-4.6l-0.15,0.55l-0.1,3.15l0.65,4.55l0.2,0.95q0.6,2.8 0.95,6.45q0.35,4 -4.55,9.35m-7.7,-165.8l0,-0.05l-0.05,0.05l0.05,0m-15.1,34.45l-7,-0.65l7,0.8l0,-0.15m41.45,16.6l0.05,0l0.05,-0.1l-0.1,0.1m-16.2,-7.65l0,-0.55l-0.25,-2.4l0.25,2.95m5.6,91.2l0,-0.05l-0.05,-0.2l-0.05,-0.75l0,1.2l0.1,-0.2m0.45,2.65l-0.25,-1.55l-0.05,-0.3l0.3,5.25l0.15,0.75l0,0.05l0.2,-2.6l-0.35,-1.6m-3.05,17.6l-0.45,-1.05l-0.15,-0.7l0.15,0.7l0.45,1.05m17.3,-116.05l-0.05,-0.55l0,0.5l0.05,0.05l-0.05,-0.05l0,0.05l0.05,0m16.15,13.3l0.25,-0.2l-0.65,-1.5l0.4,1.7m3,18.05l-0.1,0l0.1,0.05l0,-0.05m-2,-2.1l-1.1,-0.9l0.7,0.7l0.4,0.2"/>
   <path id="svg_8" fill-rule="evenodd" fill="#575445" d="m-62.15,-145.8l-6.45,8.5l-4.6,7.4l-1.85,3.6l-2.45,5.75l0,3.35q1.2,-2.15 4.75,-6.3q16.2,-12.95 21.2,-14.6q-0.3,1.75 0.5,1.5l-0.35,2.25q10.1,-7.45 15.5,-8.7l11.9,-0.35q1.4,0.35 2.1,0.85l2.9,-1.65q0.35,1.45 1.7,2.4q1.6,1.05 3.45,1.4q-0.8,-1.35 -1,-3.55q-0.05,-1.35 0.4,-2.45q5.4,0.35 9.75,3.15l8.15,6q1.9,1.55 0.55,1.95l-5.8,-0.3q-9,-1.45 2.6,0.8l-2.25,-0.05l2,1.75q1.35,1.05 2.8,1.8l6.05,0.3q2.6,-0.1 4.65,-0.7l0.85,-0.7l-0.4,-0.4l0,-0.8l-0.05,-0.1l-0.1,-0.1l-0.3,0l-0.2,0.2l-0.2,-0.15l-0.1,-0.25l0,-0.1l0.45,-1.55l-0.1,0l-1.1,0.85l-2.85,-2.55q-2.95,-2.3 -3.4,-3.3q-0.45,-1 -0.5,-2.05l-0.1,-1.05q-1.15,1.25 -1.35,2.9l-4.15,-2.9q-0.95,-1.6 -0.25,-3.3q-1.1,0.45 -1.65,2.05l-1.15,-0.8l-0.15,-1.25l-0.65,0.6l-0.05,0.1l-0.05,0l-1.95,-1.25q-7.3,-4.65 -12.5,-8.75q-2.05,-1.1 -2,-0.6l0.25,2.4l0,0.55l0.55,4l0.15,0.7l-2.4,-2.15l-1,-1.05l-0.5,-0.7q-1.6,-1.75 -3.7,-2.6l-0.3,-0.1l-1.85,-0.95l-4.55,-2.4l-1.5,-0.65l-0.35,-0.25l-11.1,2.4q-9.25,4.6 -13.95,10.15l-0.65,0.25l-1.2,1.45l-0.1,0.1m-11.1,92.05l5.55,1.95l0.25,0l-1.3,-2.55l0,-0.05q1.85,-1.4 3.8,-1.75q-1.95,-1.4 -2.8,-3.6q-1.4,-5.3 -4.75,-8.2l-0.85,-0.5l-7.85,-2.75l-0.55,-0.5l-2.45,-0.3l7.6,5.9q4.65,6.05 2.7,12.1l0,0.05l0.65,0.2m15.25,-0.2l0.05,0l-0.1,-0.1l0.05,0.1m17.8,-17.7l0.5,-7.05l3.55,-3.55l4.8,0q-1.6,-4.8 -1.55,-9.35l-0.65,-0.35l0.65,-1l0.5,-3.4l1.35,-4.35q2.6,-6.65 9.15,-12.75l0.95,-0.85l-0.95,0.85l12.45,-0.95l0.1,0.05l4.65,2.55l0.45,2.35l-1.4,9.65q-0.4,2.75 0.5,5.45l0.8,2.3l3.85,0.55l1.8,-0.05l-1.55,2.25q-1.65,2.45 -2.65,5.25q0.3,6.6 -2.4,12.7q-1.1,2.35 -3.15,4q4.35,1.9 8,5.8l0.75,0.65l-1.35,-1.5q3.3,-7.4 4.8,-16.35l0.15,-1.2q4.2,1 8.65,-0.5q2.55,-0.9 5.15,-2.55l0.15,-1.05q1.3,-8.15 -2.45,-11.8l-1.8,-0.85l-0.15,-0.1l-0.85,-0.4l-0.05,0l-0.15,0.45l-0.7,1.75q-0.75,2.35 -1.05,5.05l-0.05,0.8l-0.8,-1.5q-0.95,-2.05 -1.55,-4.7l-0.15,-0.7l0.3,0l-0.35,-0.35l0,-0.05l-8.4,-0.15l-0.7,-3q-0.45,-4.25 1.7,-9.3l1.1,-2.3l-3.05,-8.4l-2.9,0l-5.9,0.25l-16.3,-4.8l-1.15,-0.85l-0.6,-1l-0.1,-0.3l0,-0.6l0,-0.25l0.25,-0.8l0.2,-0.4l-4,4.3l-1.55,2.6l-3.95,5.5l9.95,0.3l3.9,1.6q-10.75,3.85 -12.55,14.55l-0.5,5.7l2.95,1.85l-2.95,-1.85l-7.3,-4.6l0.85,-23.65q-3.9,8.7 -6.85,18l-2.35,7.9q0.75,2.25 2.25,4.6l2.15,3q5.5,6.5 7,14.25l0.55,2.65m6.6,52.25l-2.55,5.7l2.1,-0.9l-2.1,8.05l-1.2,-0.25q-0.2,2.8 2.65,2.3q1.8,-0.3 4.75,-1.8l1.75,-2.35q3.05,-2.55 6.25,-3.3l7.3,-7l0.5,-2.3q-7.2,4.95 -15.45,7.35q-2.1,-0.35 -3.8,-1.6l-0.2,-3.9m9.55,23.8q4.05,3.35 11.75,2.7l0.3,-0.15q0.75,-7 9.8,-18.3l-0.75,-1.2q-1.05,-1.3 -0.3,-1.35l1.05,-3.55q-5,14.4 -15.95,17.2l-3.8,0.9q-0.35,2.4 -2.1,3.75m-11.45,-10.8l-0.65,-0.15l0.65,0.15m67,-70.05l9.6,8.9l0.55,2.05q0.45,2.55 0.1,5.15l0,0.3l-1.4,2.1q-0.55,0.8 -0.2,1.15q2.95,-1.3 4.95,-3.55q3.8,-4.2 4,-11.65q2.15,-2.8 3.25,-5.95q0.8,-2.1 0.95,-4.75l-2.25,-3.15l-0.85,0.35l-0.15,1.4l0,0.15l-0.05,0q-0.2,1.95 -0.9,3.3l-0.75,0.95q-2,2.25 -5.1,3.9l-5.3,-0.1q0.1,-3.95 -2,-4.35l-0.2,0l-2.05,0.8l0,0.15l0.05,0.05q0.75,1.15 0.4,1.6q-0.2,2.2 -0.95,1.85q-0.85,-0.05 -1.7,-0.65"/>
   <path id="svg_9" fill-rule="evenodd" fill="#78745b" d="m-77.5,-120.55q-1.15,3.2 -1.9,6.3l-0.9,4.85l-0.05,0.9l-0.15,1.05q-0.75,9 2.2,17.55q1.35,3.95 3.45,7.85l0.25,0.35q1.9,3.4 4.45,6.7q3.15,5.85 7.6,6.4l5.9,-0.95l1.85,1.3l1.15,0.9l1.7,1.2l5.7,0.2q3.35,-0.35 5.75,-2l0.3,-3.7l-0.55,-2.65q-1.5,-7.75 -7,-14.25l-2.15,-3q-1.5,-2.35 -2.25,-4.6l2.35,-7.9q2.95,-9.3 6.85,-18l-0.85,23.65l7.3,4.6l0.5,-5.7q1.8,-10.7 12.55,-14.55l-3.9,-1.6l-9.95,-0.3l3.95,-5.5l1.55,-2.6l4,-4.3l-0.2,0.4l-0.25,0.8l0,0.25l0,0.6l0.1,0.3l0.6,1l1.15,0.85l16.3,4.8l5.9,-0.25l1.95,-0.05l0.9,-0.05l0.05,0.1l3.2,-0.1l6.1,-1.9l-1.6,3.1l2.25,0l2.9,0.2l2.15,0.6l5.6,2.2l0,-0.05l2.2,1.15l3.05,1.65l-0.15,-0.1l0.75,0.35l0.1,0q0,0.05 0.1,0.05l0.2,0.1l1.9,-6.25l-3.6,-4l7.05,6.1l-1.2,4l0.4,-0.45l0.95,-0.8l0.05,-0.1l2.95,-2.05l0.05,-0.05l1.85,-0.95l0.25,-0.05l2.1,-0.7l0.5,2.35l-0.15,2.3q2.05,-1.6 2.95,-3.45q0.55,-1.25 0.55,-2.65q-3.8,-4.05 -7.65,-6.65q1.8,-5.05 1.05,-10.55l-1.7,-8.15q-3.1,-13.85 -6.6,-17.2l-1.2,0.35l-0.05,0.05l-0.05,0q-2.7,1.1 -4.75,4.75l-1.45,3.1l-1.5,4.65l-0.9,3.8l4.35,10.15l0.05,0.1l0.05,0.1l0.1,0.5q0.45,1.05 3,2.8q1.7,1.25 4.15,2.6l2.35,1.2l3.1,1.75l-3.1,-1.75l0.2,0.1q2.2,1.1 -0.2,0.1q-1.25,-0.6 -2.45,-1.15q-7.55,-3.55 -7.8,-2.95l-0.5,0.7q-1.55,0.85 -0.8,2.85q0.4,1 1.45,2.4l2.55,2.85l-2.55,-2.85l-1.55,-1.75l-0.1,-0.05l-1.9,-2.1l-0.4,-0.2l-0.7,-0.7l-0.8,-1q0.2,-1 -0.2,-1.15l-0.4,0.25l-0.1,0.1l-0.25,-0.35l-0.85,0.7q-2.05,0.6 -4.65,0.7l-13.7,3.95l-16.5,-3.35l8,-4.45l5.7,0l7.65,1.75l-2,-1.75l2.25,0.05q-11.6,-2.25 -2.6,-0.8l5.8,0.3q1.35,-0.4 -0.55,-1.95l-8.15,-6q-4.35,-2.8 -9.75,-3.15q-0.45,1.1 -0.4,2.45q0.2,2.2 1,3.55q-1.85,-0.35 -3.45,-1.4q-1.35,-0.95 -1.7,-2.4l-2.9,1.65q-0.7,-0.5 -2.1,-0.85l-11.9,0.35q-5.4,1.25 -15.5,8.7l0.35,-2.25q-0.8,0.25 -0.5,-1.5q-5,1.65 -21.2,14.6q-3.55,4.15 -4.75,6.3l0,-3.35m-11.7,35.8l-0.05,0.65l1.3,-3.05l-0.25,-0.05q-0.3,1.25 -1,2.45m57.85,2.5l2.05,4.95l3.55,5.95l0.45,0l0.75,1.4l0.2,0.25l0.7,1.05l0.25,0.7l0.15,0.35l0.6,1.25l0.5,5.1l0,0.15l1.55,-2.1l0.4,-0.75l0.45,0l0.6,1.5l0.5,0.65l1.8,-2.5l0,-0.05l2.75,-0.5l0.1,0.35l0,1.45l0.95,-1.45l0.25,-0.35l0.2,-0.4q1.95,-0.6 2.65,-1.45l-0.55,2.7q-1.05,4.45 -0.05,11.1l-2.7,-5.95l-0.05,0.3l-0.2,2.6l-1,11l-0.4,4.8l1.1,8.55l0.65,-0.05l1.5,-0.4q0.9,-3.7 0.85,-7.9l2.15,1.9q0.7,-5.55 -0.8,-11.95l4.05,4.35q-0.4,-0.1 -0.8,-0.3q5.05,9.4 6.4,20.4q0.25,1.75 0.1,3.8q-6.7,3.8 -13.8,10.05l-5.5,4.55q-0.65,0 -1,-0.75l-0.3,-0.85q1.85,-2.95 5.65,-7.75q3.85,-4.75 4.1,-6.1l-1.1,-2.45q-9.2,-1.3 -21.85,5.45l-0.1,0.2l0.2,3.9q1.7,1.25 3.8,1.6q8.25,-2.4 15.45,-7.35l-0.5,2.3l-7.3,7q-3.2,0.75 -6.25,3.3l-1.75,2.35q-1.15,1.95 -1.4,4.1l0.75,-0.45q1.7,-0.95 3.4,-1.5l0.3,0l2.9,0.5l1.9,0.3q0.45,2.25 0.15,4l3.8,-0.9q10.95,-2.8 15.95,-17.2l-1.05,3.55q-0.75,0.05 0.3,1.35l0.75,1.2q-9.05,11.3 -9.8,18.3l0,0.1q-0.15,1.35 0.05,2.55q0.4,2.45 2.05,4.25l3.3,-3.85l0.2,-0.1q2.85,-1.7 3.85,0.2q0.9,1.5 0.7,5.1l-3.15,1.9q13.15,2.45 17.55,-4.45q5.15,1.85 9.45,-3.9q1.45,-5.35 -0.9,-12.9l-6.35,-15.55q1.9,-2.75 2.8,-8q-1.85,-4.35 -5.05,-6.6q-3.2,-16.15 -12.2,-26.6l-0.75,-0.65q-3.65,-3.9 -8,-5.8q2.05,-1.65 3.15,-4q2.7,-6.1 2.4,-12.7q1,-2.8 2.65,-5.25l1.55,-2.25l-1.8,0.05l-3.85,-0.55l-0.8,-2.3q-0.9,-2.7 -0.5,-5.45l1.4,-9.65l-0.45,-2.35l-4.65,-2.55l-0.1,-0.05l-12.45,0.95q-6.55,6.1 -9.15,12.75l-1.35,4.35l-0.5,3.4l0,1.35q-0.05,4.55 1.55,9.35m49.05,-0.75l-2.25,7.85l-0.15,0.5l0,0.05q1.6,6.85 3.85,11.4q1.3,2.6 2.75,4.45q1.65,1.95 3.45,3.15q2.45,1.45 5.3,1.5l1.5,-0.05l1.65,-0.75l3.45,-1.2l1,-0.25l1.6,-0.25l0.05,0.65l0.45,0.75l1.8,1.1q1.85,1.25 4.55,-0.5l1.05,-0.85l2.6,-3q4.25,-5.7 5.9,-13.75l-0.2,-1.85q-0.65,-4.9 -2.75,-8.65q-0.15,2.65 -0.95,4.75q-1.1,3.15 -3.25,5.95q-0.2,7.45 -4,11.65q-2,2.25 -4.95,3.55q-0.35,-0.35 0.2,-1.15l1.4,-2.1l0,-0.3q0.35,-2.6 -0.1,-5.15l-0.55,-2.05l-9.6,-8.9l-1.3,-1.5l-0.2,-0.35q-1,-4.15 1.15,-10.2q1.7,-4.8 5.7,-7.45l0.15,-0.1l2,-1.1q2.8,-0.55 4.85,1.05l-2.85,-6.05l-3.15,-5.6l-1.45,-0.25l-4.55,-0.05l-20.6,5.25l-10.6,-6.1q-2.15,5.05 -1.7,9.3l0.7,3l8.4,0.15l0,0.05l4.35,-0.35l0.15,-0.45l0.05,0l0.85,0.4l0.15,0.1l1.8,0.85q3.75,3.65 2.45,11.8l-0.15,1.05m47.75,-43.25l-3,-4.45l-0.15,0.3q-1.65,3.75 -5.6,4.1l-9.2,-13.3l2.9,-0.05l-2,-0.95q-3.95,0.45 -7.1,2.65l0.1,0.45l-0.15,0.15q-0.1,0.1 0.3,3.75q0.4,3.6 4.4,7.9l4.6,4.75q0.45,0.45 6.1,-0.85q6,-1 8.8,-4.45m-21.35,-20.9q-0.9,-6.2 -9.6,-12.75q-2.15,5.4 0.75,12.15q2.35,3.15 3.75,3.4l1,-0.15q2.15,-0.4 3.7,-1.45l0,-1.2l0.4,0m-16.25,-17.15l-0.15,-0.05l-8.1,-1.9l-7.45,-0.8q-4.6,-0.15 -6.85,1.35l3.15,4.55q1.35,0.9 3.1,1.3q3.4,0.9 8.85,1.05q3.15,-4.1 7.45,-5.5m-53.7,33.4l0.05,0l-0.1,0.1l0.05,-0.1m-1.05,1.1l-0.3,0.4l-3.25,1.35q1.8,-1.05 3.55,-1.75m-48.3,31.85l-0.3,1.15l0.35,-1.65l-0.05,0.5m11.65,-12.3q-2.75,8.95 0,17.9l1.6,4.95q3.1,8.75 7.65,15.15q-3.1,-0.9 -8.45,-4.25q-5.3,-3.35 -6.25,-5.5l-1.1,-2.15q-3.05,-6.75 -3.65,-14.2l-0.1,-0.5q5.5,-6.8 9.75,-10.9l0.55,-0.5m42.9,0.95q-1.75,5.25 -2.4,10.95q-0.9,8.8 0.85,18.65l-6.6,-8.3q-0.45,-4.95 0.8,-9.35q1.45,-5.55 5.55,-10.1l1.8,-1.85m12,111.95l0.05,-0.25l12.7,-14.95l0,0.85l-1.5,3.65q-1.35,4.3 -3.1,8q-1.9,-0.15 -3.65,0.85q-2.4,1.35 -4.5,1.85m48.65,-120.5l-1.7,0.2l1.7,-0.2m3.1,61.05l-3.25,0.2l3.25,-0.2"/>
   <path id="svg_10" fill-rule="evenodd" fill="#8e896c" d="m-13.8,-31.6l0.55,4l-3.7,-0.15l-7.8,1.4q-5.95,1.2 -8.15,5.6l-0.1,0.15l-0.05,0.15l-0.35,0.7l-0.1,0.15q12.65,-6.75 21.85,-5.45l1.1,2.45q-0.25,1.35 -4.1,6.1q-3.8,4.8 -5.65,7.75l0.3,0.85q0.35,0.75 1,0.75l5.5,-4.55q7.1,-6.25 13.8,-10.05q0.15,-2.05 -0.1,-3.8q-1.35,-11 -6.4,-20.4q0.4,0.2 0.8,0.3l-4.05,-4.35q1.5,6.4 0.8,11.95l-2.15,-1.9q0.05,4.2 -0.85,7.9l-1.5,0.4l-0.65,0.05m76.25,-99.1q-4.4,-5.3 -12.05,-8.95l-2.9,0.05l9.2,13.3q3.95,-0.35 5.6,-4.1l0.15,-0.3m-53.05,-0.3l-6.05,-0.3q-1.45,-0.75 -2.8,-1.8l-7.65,-1.75l-5.7,0l-8,4.45l16.5,3.35l13.7,-3.95m-72.95,20.75l-0.55,0.5q-4.25,4.1 -9.75,10.9l0.1,0.5q0.6,7.45 3.65,14.2l1.1,2.15q0.95,2.15 6.25,5.5q5.35,3.35 8.45,4.25q-4.55,-6.4 -7.65,-15.15l-1.6,-4.95q-2.75,-8.95 0,-17.9m42.9,0.95l-1.8,1.85q-4.1,4.55 -5.55,10.1q-1.25,4.4 -0.8,9.35l6.6,8.3q-1.75,-9.85 -0.85,-18.65q0.65,-5.7 2.4,-10.95m12,111.95q2.1,-0.5 4.5,-1.85q1.75,-1 3.65,-0.85q1.75,-3.7 3.1,-8l1.5,-3.65l0,-0.85l-12.7,14.95l-0.05,0.25"/>
   <path id="svg_11" fill-rule="evenodd" fill="#785252" d="m-75.2,-97.95l0.05,-0.5l-0.35,1.65l0.3,-1.15"/>
   <path id="svg_12" fill-rule="evenodd" fill="#413f34" d="m-80.35,-108.5l-0.65,-1.35l-0.8,-1.35l-0.25,0.75l-1.25,-2.15q-1.35,-0.8 -2.95,-0.25l-0.15,0.1q-4.2,0.75 -4.5,6.55q2.65,7.75 1.7,21.45q0.7,-1.2 1,-2.45l0.25,0.05l-1.3,3.05l-6.85,16.35l0.1,7.85l13.35,9.95l1.2,-0.05l1.1,-0.1l-1.4,-2.9q3.1,-2.35 6.25,-1.85l0.55,2.8l0.55,-0.65l0.1,-0.3l0.15,-0.4l0.25,-0.55l0,-0.05q1.95,-6.05 -2.7,-12.1l-7.6,-5.9l2.45,0.3l0.55,0.5l7.85,2.75l0.85,0.5q3.35,2.9 4.75,8.2q0.85,2.2 2.8,3.6l2.45,-0.05l0.3,1.45l1.35,0.4l0,-0.8l-0.05,-0.5q-0.75,-5.5 -4.75,-10.5l-4.1,-4.2l-6.75,-0.65l6.75,0.65l4.1,4.2q4,5 4.75,10.5l2.45,1.8l0.45,-0.1l-0.05,-0.1l-1.45,-3l-0.05,-0.05l0.05,0q3.15,-2.3 6.25,-1.8l0.5,2.45q1.1,-5.65 -1.5,-11.3l-0.55,-0.5l-1.85,-1.3l-5.9,0.95q-4.45,-0.55 -7.6,-6.4q-2.55,-3.3 -4.45,-6.7l-0.25,-0.35q-2.1,-3.9 -3.45,-7.85q-2.95,-8.55 -2.2,-17.55l0.15,-1.05m79.05,-11.1l3.05,8.4l-1.1,2.3l10.6,6.1l20.6,-5.25l-1.75,-4.9l-0.4,0.45l1.2,-4l-7.05,-6.1l3.6,4l-1.9,6.25l-0.05,0.05l0.15,0.1l-0.4,0.1l0.2,0.4l-0.95,2.6l-0.35,0.7q-0.55,1.2 -1.1,1.5l-1.45,0.75l-2.9,0.95l-3.1,0.4l-1.9,-0.1l-3.2,-0.55q-1.1,-0.4 -1.9,-1.65q-2.2,-4.75 -0.9,-9.1l0.95,-2.3l-2.25,0l1.6,-3.1l-6.1,1.9l-3.2,0.1m-87.95,35.5l0.05,1.85l-0.05,-1.85m2.15,-5.1l-0.85,2.05l0.85,-2.05"/>
   <path id="svg_13" fill-rule="evenodd" fill="#533939" d="m-81.8,-111.2l-0.35,-0.4l-0.1,-0.15l-1.05,-0.85l1.25,2.15l0.25,-0.75m20.95,56.05l1.75,1.4l0.65,-0.1l-2.45,-1.8l0.05,0.5m48.55,62.25l0.3,-0.05l0,-0.1l-0.3,0.15m-20.6,-100.05l-0.65,1l0.65,0.35l0,-1.35m83.95,7.1l-0.85,-0.95l0,1.3l0.85,-0.35m-15.3,5.6q-2.15,-0.15 -2.05,0.8l2.05,-0.8m1.5,24.15l0,0.5l0,-0.5m30.25,28.3l0,0.05l0.05,0l-0.05,-0.05"/>
   <path id="svg_14" fill-rule="evenodd" fill="#514f40" d="m21.9,-58.75l-2.75,5.05l-1.05,0.05q-2.8,2.9 -2.75,6.3l17.45,7.9l-1.25,0.8l11.8,8.65l1.05,1.85l9.8,-0.95l-1.75,-3.65l-2,-0.15q-0.7,0.4 -4,-1.05q-3.3,-1.4 -4.4,-5.75l-2.45,-6.25l-0.05,-0.25l-1.45,-5.2l0.35,0.35l1.15,1.6q4.95,2.7 10.6,0l0.85,-1.4l0.25,-1.65l0.45,-0.6l0.5,0.1l5.6,3l5.5,13.65l4.5,0.2l-0.1,-0.1l-1.55,-3.1q3.15,-2.3 6.35,-1.75l0.3,1.65l0.7,-0.55l-0.25,-3.65l2,-0.2q1.05,-1.7 1.45,-3.85l-0.05,-2.5l-4.75,-5.15q-2.2,-2.15 -5.7,-2.75l-10.85,-0.9q0.7,-3.45 2.45,-9.25q1.85,-5.8 0.3,-10.9l-2.9,-8.4q-1.1,-2.8 -0.05,-6.2l0.5,-1.3l1.3,-2.7q4.45,-0.15 7.85,-4.1q0.85,-1.3 1.5,-1.45l1.8,-2.55q1.95,-11.9 -2.7,-20.4q-2.8,3.45 -8.8,4.45q-5.65,1.3 -6.1,0.85l-4.6,-4.75q-4,-4.3 -4.4,-7.9q-0.4,-3.65 -0.3,-3.75l0.15,-0.15l-0.1,-0.45q3.15,-2.2 7.1,-2.65l-0.2,-0.05l-4.5,-1.7q0.8,-2.4 0.4,-4.8l-0.4,0l0,1.2q-1.55,1.05 -3.7,1.45l-1,0.15q-1.4,-0.25 -3.75,-3.4q-2.9,-6.75 -0.75,-12.15q-2.9,-2.2 -6.65,-4.4q-4.3,1.4 -7.45,5.5q-5.45,-0.15 -8.85,-1.05q-1.75,-0.4 -3.1,-1.3l5.1,8.6l2.8,5.55l0.65,1.2l0.35,0.85l0.9,-3.8l1.5,-4.65l1.45,-3.1q2.05,-3.65 4.75,-4.75l0.1,-0.05l1.2,-0.35q3.5,3.35 6.6,17.2l1.7,8.15q0.75,5.5 -1.05,10.55q3.85,2.6 7.65,6.65q0,1.4 -0.55,2.65q-0.9,1.85 -2.95,3.45q-0.15,1.4 -0.8,2.75l-1.45,2.25l1.45,0.25l3.15,5.6l2.85,6.05l1.75,1.15l3.1,3.9q1.25,1.9 1.35,5.55l0.15,-1.3l0.85,0.95l2.25,3.15q2.1,3.75 2.75,8.65l0.2,1.85q-1.65,8.05 -5.9,13.75l-2.6,3l-1.05,0.85l-0.25,2.25q-0.65,2.7 -2.55,3.25l-1.05,-1.75l-2.5,-4.35l-2.1,-1.15l-1,0.25l0,0.5l0,-0.5l-3.45,1.2q-0.05,2.7 -0.75,4.8l-0.25,0.55q-1.05,2.85 -3.5,4.45l-0.6,-2.5q-1.2,-4.9 -3.35,-8q-1.8,-1.2 -3.45,-3.15m-21.75,-106.2q-5.85,-0.35 -9.25,3.3l1.7,2.6l4.1,1.8l-1.8,-5.1l5.65,3.7l0,-0.5l0.05,0.55l2,1.25l-2.45,-7.6m43.55,22.6q-2.3,-0.8 -4.7,-2q2.4,1.2 4.7,2m-22.4,16.9q-1.05,-1.4 -1.45,-2.4l-0.1,0.6l0,0.05l1.55,1.75m51.9,79.25l-2,3.05q-1.9,2.55 -3.4,0.55l-3.45,-4.05l-4.95,-5.25l-6.2,-3.6l0.05,-0.1l-0.25,0l0.6,-0.1l7.65,-1.55q8.55,1.65 11.6,5.9l0.35,5.15l0.1,2.55l-0.1,-2.55m-37.4,4.9l-3,1.85l3,-1.85"/>
   <path id="svg_15" fill-rule="evenodd" fill="#8a655b" d="m25.95,-161.25l0.05,0l0.05,-0.05l-0.1,0.05"/>
   <path id="svg_16" fill-rule="evenodd" fill="#63614e" d="m59.6,-30.65l4.35,-4.1l-0.6,-1.6l-5.5,-13.65l-5.6,-3l-0.5,-0.1l-0.45,0.6l-0.25,1.65l-0.85,1.4q-5.65,2.7 -10.6,0l-1.15,-1.6l-0.35,-0.35l1.45,5.2l0.05,0.25l2.45,6.25q1.1,4.35 4.4,5.75q3.3,1.45 4,1.05l2,0.15l-0.1,-0.05q3,-2.85 6.2,-2.2l1.05,4.35m17.15,-17.05l0.2,-1.05q0.35,-2.95 -0.25,-6.8l0,-0.05l-0.35,-2.2q-3.3,-2.95 -8.95,-4.15l-7.05,-0.9l2.1,-8.25l0.55,-2.2l1.6,-6.15l-1.5,-2.3l-0.85,-1.4l-0.15,-0.15l-1.2,-1.85l1.2,-6.3l0.35,-1.5q0.95,-3.8 2.15,-6.75l-0.25,-0.75l0.3,0.65q0.8,-2 1.7,-3.5q-0.65,0.15 -1.5,1.45q-3.4,3.95 -7.85,4.1l-1.3,2.7l-0.5,1.3q-1.05,3.4 0.05,6.2l2.9,8.4q1.55,5.1 -0.3,10.9q-1.75,5.8 -2.45,9.25l10.85,0.9q3.5,0.6 5.7,2.75l4.75,5.15l0.05,2.5m-16.9,-13.25l0.5,-1.9l-0.5,1.9m-6.6,5.35l-0.05,0.1l6.2,3.6l4.95,5.25l3.45,4.05q1.5,2 3.4,-0.55l2,-3.05l-0.35,-5.15q-3.05,-4.25 -11.6,-5.9l-7.65,1.55l-0.6,0.1l0.25,0l0.35,-0.1l-0.35,0.1"/>
   <path id="svg_17" fill-rule="evenodd" fill="#d2b991" d="m38.65,-113l0.15,-2.3l-0.5,-2.35l-2.1,0.7q0.7,0.8 0.7,1.95q0,0.75 -0.35,1.35l0.2,0.15q0.35,0.35 0.3,0.85q0.05,0.45 -0.3,0.8q-0.3,0.35 -0.8,0.35q-0.45,0 -0.85,-0.35l-0.25,-0.35l-0.95,0.2q-1.2,-0.05 -2.1,-0.9l-0.65,-0.9l-0.05,-0.05l-0.05,0.1l-0.95,0.8l1.75,4.9l4.55,0.05l1.45,-2.25q0.65,-1.35 0.8,-2.75m-28.15,7.55l3.2,0.55l1.9,0.1l3.1,-0.4l2.9,-0.95l1.45,-0.75q0.55,-0.3 1.1,-1.5l0.35,-0.7l0.95,-2.6l-0.2,-0.4l-3.55,-1.75l-0.35,-0.15l-0.05,0.1q-0.2,1.05 -0.9,1.95l-0.45,0.45l0,0.05l-0.4,0.35l0,0.15q-0.1,0.8 -0.65,1.45q-0.65,0.75 -1.6,0.75l-0.2,0l-0.15,0q-0.85,0 -1.45,-0.6l-0.4,-0.6l-0.15,-0.35l-1.7,-1.2q-1.4,-1.4 -1.45,-3.4l0.05,-0.4l0,-0.15l0.05,-0.4l0.55,-1.4l0.1,-0.15l0,-0.05l-1.3,-0.1l-0.85,1.75l-1,3.3l-0.2,1.9q-0.05,2.15 0.75,4.1l0.55,1.05m11.7,-5.9l2.15,0.75q-0.25,1.2 -0.8,2.05q-0.7,1.05 -1.95,1.45q-1.85,0.7 -4.2,1.05q2.8,-2 3.95,-3.55q0.75,-0.95 0.85,-1.75m12.8,1l1.5,-0.6l-0.85,2.2l-2.1,0.35l1.45,-1.95"/>
   <path id="svg_18" fill-rule="evenodd" fill="#caa673" d="m35.95,-116.9l-1.85,0.95l-0.05,0.05l-2.95,2.05l0.05,0.05l3,-2.1q0.9,-0.45 1.8,-1"/>
   <path id="svg_19" fill-rule="evenodd" fill="#000000" d="m36.2,-116.95l-0.25,0.05q-0.9,0.55 -1.8,1l-3,2.1l0.65,0.9q0.9,0.85 2.1,0.9l0.95,-0.2l-0.05,-0.45q0,-0.5 0.3,-0.85l0.85,-0.35l0.6,0.2q0.35,-0.6 0.35,-1.35q0,-1.15 -0.7,-1.95m-14.7,2.55l-2.2,-1.15l0,0.05l-5.6,-2.2l-2.15,-0.6l-2.9,-0.2l-0.95,2.3q-1.3,4.35 0.9,9.1q0.8,1.25 1.9,1.65l-0.55,-1.05q-0.8,-1.95 -0.75,-4.1l0.2,-1.9l1,-3.3l0.85,-1.75l1.3,0.1l0,0.05l-0.1,0.15l-0.55,1.4l-0.05,0.4l0,0.15l-0.05,0.4q0.05,2 1.45,3.4l1.7,1.2l0,-0.45l0,-0.15l0,-0.3q0,-1 0.65,-1.75q0.6,-0.65 1.4,-0.7l0.3,-0.05l1.2,0.4l0.4,0.35l0.55,1.05l0.1,0.55l0,0.25l0.4,-0.35l0,-0.05l0.45,-0.45q0.7,-0.9 0.9,-1.95l0.05,-0.1l0.35,0.15l-0.2,-0.55m28.5,30.45l-4.1,2.05l-6.45,1l-5,-2.05l-0.75,-2.55l-1.1,2.25l1.1,3.8l-3.3,1.25l1.1,1.75q0.85,0.6 1.7,0.65q0.75,0.35 0.95,-1.85q0.35,-0.45 -0.4,-1.6l-0.05,-0.05l0,-0.15q-0.1,-0.95 2.05,-0.8l0.2,0q2.1,0.4 2,4.35l5.3,0.1q3.1,-1.65 5.1,-3.9l0.75,-0.95q0.7,-1.35 0.9,-3.3"/>
   <path id="svg_20" fill-rule="evenodd" fill="#fefefe" d="m34.85,-112.2l0.25,0.35q0.4,0.35 0.85,0.35q0.5,0 0.8,-0.35q0.35,-0.35 0.3,-0.8q0.05,-0.5 -0.3,-0.85l-0.2,-0.15l-0.6,-0.2l-0.85,0.35q-0.3,0.35 -0.3,0.85l0.05,0.45m-17.75,3.45l0.2,0q0.95,0 1.6,-0.75q0.55,-0.65 0.65,-1.45l0,-0.15l0,-0.25l-0.1,-0.55l-0.55,-1.05l-0.4,-0.35l-1.2,-0.4l-0.3,0.05q-0.8,0.05 -1.4,0.7q-0.65,0.75 -0.65,1.75l0,0.3l0,0.2l0.2,0.5l0.45,0.7q0.65,0.65 1.5,0.75m5.1,-2.6q-0.1,0.8 -0.85,1.75q-1.15,1.55 -3.95,3.55q2.35,-0.35 4.2,-1.05q1.25,-0.4 1.95,-1.45q0.55,-0.85 0.8,-2.05l-2.15,-0.75m12.8,1l-1.45,1.95l2.1,-0.35l0.85,-2.2l-1.5,0.6"/>
   <path id="svg_21" fill-rule="evenodd" fill="#5e5142" d="m43.85,-96.1q-2.05,-1.6 -4.85,-1.05l-2,1.1l-0.1,1l-0.05,-0.9q-4,2.65 -5.7,7.45q-2.15,6.05 -1.15,10.2l0.2,0.35l0.2,-0.25l3.3,-1.25l-1.1,-3.8l1.1,-2.25l0.75,2.55l5,2.05l6.45,-1l4.1,-2.05l0.05,-0.15l0,-1.4q-0.1,-3.65 -1.35,-5.55l-3.1,-3.9l-1.75,-1.15m-1.7,2.6q0.45,-1.25 1.4,-1q1,0.25 1.6,0.65q1.8,1.3 1.9,3.1q-0.05,1.55 -0.9,2.2l-2.75,-0.15q-2.1,-1.95 -1.25,-4.8"/>
   <path id="svg_22" fill-rule="evenodd" fill="#462022" d="m-61.7,-52.35l0.55,-0.6q0.3,-0.55 0.3,-1.2l0,-0.2l-1.35,-0.4l0.5,2.4m34.8,-77.45q-1.75,0.7 -3.55,1.75l3.25,-1.35l0.3,-0.4m63.9,33.75l-0.15,0.1l0.05,0.9l0.1,-1"/>
   <path id="svg_23" fill-rule="evenodd" fill="#301617" d="m-31.35,-2.2l0,1.1l0.35,2.65l0.05,-0.1q0.35,-0.8 2.55,-2.9l0.85,-0.8q1.75,-1.35 3.55,-1.4l-2.9,-0.5l-0.3,0q-1.7,0.55 -3.4,1.5l-0.75,0.45m5.5,-128.7l-0.05,0.1l0.1,-0.1l-0.05,0m24.55,11.3l-0.05,-0.1l-0.9,0.05l0.95,0.05m51.5,32.8l-0.15,1.3l0,1.4l-0.05,0.15l0.05,0l0,-0.15l0.15,-1.4l0,-1.3"/>
   <path id="svg_24" fill-rule="evenodd" fill="#e0cd98" d="m42.15,-93.5q-0.85,2.85 1.25,4.8l2.75,0.15q0.85,-0.65 0.9,-2.2q-0.1,-1.8 -1.9,-3.1q-0.6,-0.4 -1.6,-0.65q-0.95,-0.25 -1.4,1"/>
   <path id="svg_25" fill-rule="evenodd" fill="#342e25" d="m30.2,-77.95l1.3,1.5l-1.1,-1.75l-0.2,0.25"/>
   <path id="svg_26" fill-rule="evenodd" fill="#cccccc" d="m8.05,-96.4l0.35,0.35l-0.3,0l0.15,0.7l3.45,0.35l0.7,-1.75l-4.35,0.35"/>
   <path id="svg_27" fill-rule="evenodd" fill="#54240a" d="m25.55,-112.35l-0.2,-0.1q-0.1,0 -0.1,-0.05l0.1,0.15q-0.4,-0.15 -0.8,-0.4l-3.05,-1.65l0.2,0.55l3.55,1.75l0.4,-0.1l-0.15,-0.1l0.05,-0.05m-0.2,0l0.15,0.05l-0.15,-0.05"/>
   <path id="svg_28" fill-rule="evenodd" fill="#c9c1ab" d="m-79.9,-49.5l0.5,0.5q2.1,2.3 4,2.25l0.55,-1.25q0.5,-1.4 0.05,-3.25l-0.15,-0.8l-0.55,-2.8q-3.15,-0.5 -6.25,1.85l1.4,2.9l0.05,0.15l0.15,0.1l0.25,0.35m12.45,-2.3l0.2,0.45l0.1,0.15l0.8,0.85q2.1,2.3 3.95,2.25q1.2,-1.75 0.7,-4.25l-0.5,-2.4l-0.3,-1.45l-2.45,0.05q-1.95,0.35 -3.8,1.75l0,0.05l1.3,2.55m9.5,-2.15l0.8,0.9q2.15,2.25 4,2.25q1.25,-1.85 0.65,-4.5l-0.25,-1.15l-0.5,-2.45q-3.1,-0.5 -6.25,1.8l0,0.05l1.45,3l0.1,0.1m66.2,-41.4q0.6,2.65 1.55,4.7l0.8,1.5l0.05,-0.8q0.3,-2.7 1.05,-5.05l-3.45,-0.35m38.45,40.75q-2.7,1.75 -4.55,0.5l-1.8,-1.1l2.5,4.35l3.6,-1.5l0.25,-2.25m-12.9,-0.3l-1.65,0.75l-1.5,0.05q-2.85,-0.05 -5.3,-1.5q2.15,3.1 3.35,8q0.45,-2.6 4.35,-2.5q0.7,-2.1 0.75,-4.8"/>
   <path id="svg_29" fill-rule="evenodd" fill="#ffffff" d="m-36.15,-13.7l-2.65,1.7q-3.05,2.35 -5.35,5.55l6.8,-0.35l1.2,0.25l2.1,-8.05l-2.1,0.9m5.15,15.25l-0.8,1.6q-0.75,1.25 0.85,2.65l0.75,0.45q2.35,-0.1 4,-0.7l1.4,-0.65l0.75,-0.5q1.75,-1.35 2.1,-3.75q0.3,-1.75 -0.15,-4l-1.9,-0.3q-1.8,0.05 -3.55,1.4l-0.85,0.8q-2.2,2.1 -2.55,2.9l-0.05,0.1m21.1,12.3l-2.5,4.4q4.2,1.2 7.4,-1.15l3.15,-1.9q0.2,-3.6 -0.7,-5.1q-1,-1.9 -3.85,-0.2l-0.2,0.1l-3.3,3.85m64.1,-42.95l0.95,1.25l0.35,0.35q2.25,2.45 4.05,2.25l0.5,-0.15l-0.45,-5.25l-1.05,-4.35q-3.2,-0.65 -6.2,2.2l0.1,0.05l1.75,3.65m13.65,-7.05l0.75,0.85q2.15,2.3 4,2.25q1.25,-1.85 0.65,-4.5l-0.4,-1.9l-0.3,-1.65q-3.2,-0.55 -6.35,1.75l1.55,3.1l0.1,0.1m9.1,-12.6q1.95,1.25 3.35,1.25q0.5,-1.85 -1.2,-4.5l-2.1,-3.6l-0.3,0l0,0.05q0.6,3.85 0.25,6.8m-136.45,-8.3l0,-0.05l-0.05,0l0.05,0.05m102.35,6.2l1.05,1.75q1.9,-0.55 2.55,-3.25l-3.6,1.5m-14.15,3.25l0.6,2.5q2.45,-1.6 3.5,-4.45l0.25,-0.55q-3.9,-0.1 -4.35,2.5"/>
   <path id="svg_30" fill-rule="evenodd" fill="#d2dadd" d="m-81.45,-50l1.55,0.5l-0.25,-0.35l-0.15,-0.1l-0.05,-0.15l-1.1,0.1m7.3,-3.4l0.9,-0.35l-0.65,-0.2l-0.25,0.55m19.9,-14.35l0.6,0.4l-1.15,-0.9l0.55,0.5m94.6,12.55l-0.45,-0.75l-0.05,-0.65l-1.6,0.25l2.1,1.15"/>
   <path id="svg_31" stroke-width="0.05" stroke-linejoin="round" stroke-linecap="round" stroke="#432e0c" fill="none" d="m-38.4,-241.85l0.4,-0.1l-0.1,0.2m-0.3,-0.1l-1.6,1q-1.15,0.9 -2.4,2.75l-2.3,3.5l-0.7,2.6l-9.4,33.55l-5.05,-3.15l1.7,14.65l-3.95,-2.15l6.85,13.8l-8.65,1.9l6.15,3.55m-9.8,21l0.4,0q3.1,-0.05 4.25,1.05q0.8,0.7 0.75,1.9l0,0.1l-6.45,8.5l-4.6,7.4l-1.85,3.6l-2.45,5.75q-1.15,3.2 -1.9,6.3l-0.9,4.85l-0.05,0.9l-0.65,-1.35l-0.8,-1.35l-0.35,-0.4l-0.1,-0.15l-1.05,-0.85q-1.35,-0.8 -2.95,-0.25l-0.15,0.1q-4.2,0.75 -4.5,6.55q2.65,7.75 1.7,21.45l-0.05,0.65l-6.85,16.35l0.1,7.85l13.35,9.95l1.2,-0.05m1.55,0.5l0.5,0.5q2.1,2.3 4,2.25l0.55,-1.25q0.5,-1.4 0.05,-3.25l-0.15,-0.8l0.55,-0.65l0.1,-0.3l0.15,-0.4l0.9,-0.35l5.55,1.95l0.25,0l0.2,0.45l0.1,0.15l0.8,0.85q2.1,2.3 3.95,2.25q1.2,-1.75 0.7,-4.25l0.55,-0.6q0.3,-0.55 0.3,-1.2m0,-1l1.75,1.4l0.65,-0.1l0.45,-0.1l0.05,0l0.8,0.9q2.15,2.25 4,2.25q1.25,-1.85 0.65,-4.5l-0.25,-1.15q1.1,-5.65 -1.5,-11.3l0.6,0.4l1.7,1.2l5.7,0.2q3.35,-0.35 5.75,-2l0.3,-3.7l0.5,-7.05l3.55,-3.55l4.8,0l2.05,4.95l3.55,5.95m-2.25,-0.6l2.7,2l-2.25,2.25l3.4,0.7q0,2.65 -1.25,5.1l-1.55,2.5l2.15,-1.1q0.85,3.9 -0.15,8q1.15,-0.35 1.85,-1.9l0,0.05q4.65,10.5 0.65,22.65l-0.25,0.6m6,-11.45l0.15,0.2l1.55,2.9l0.1,-0.7l1.1,8.55l0.55,4l-3.7,-0.15l-7.8,1.4q-5.95,1.2 -8.15,5.6l-0.1,0.15l-0.05,0.15l-0.35,0.7l-0.1,0.15l-0.1,0.2l-2.55,5.7l-2.65,1.7q-3.05,2.35 -5.35,5.55l6.8,-0.35q-0.2,2.8 2.65,2.3q1.8,-0.3 4.75,-1.8q-1.15,1.95 -1.4,4.1l0,1.1l0.35,2.65l-0.8,1.6q-0.75,1.25 0.85,2.65l0.75,0.45q2.35,-0.1 4,-0.7l1.4,-0.65l0.75,-0.5q4.05,3.35 11.75,2.7l0.3,-0.05q-0.15,1.35 0.05,2.55q0.4,2.45 2.05,4.25l-2.5,4.4q4.2,1.2 7.4,-1.15q13.15,2.45 17.55,-4.45q5.15,1.85 9.45,-3.9q1.45,-5.35 -0.9,-12.9l-6.35,-15.55q1.9,-2.75 2.8,-8q-1.85,-4.35 -5.05,-6.6q-3.2,-16.15 -12.2,-26.6l-1.35,-1.5q3.3,-7.4 4.8,-16.35l0.15,-1.2q4.2,1 8.65,-0.5q2.55,-0.9 5.15,-2.55l-2.25,7.85l-0.15,0.5l0,0.05q1.6,6.85 3.85,11.4q1.3,2.6 2.75,4.45l-2.75,5.05l-1.05,0.05q-2.8,2.9 -2.75,6.3l17.45,7.9l-1.25,0.8l11.8,8.65l1.05,1.85l9.8,-0.95l0.95,1.25l0.35,0.35q2.25,2.45 4.05,2.25l0.5,-0.15l-0.45,-5.25l4.35,-4.1l-0.6,-1.6l4.5,0.2l0.75,0.85q2.15,2.3 4,2.25q1.25,-1.85 0.65,-4.5l-0.4,-1.9l0.7,-0.55l-0.25,-3.65l2,-0.2q1.05,-1.7 1.45,-3.85l0.2,-1.05q1.95,1.25 3.35,1.25q0.5,-1.85 -1.2,-4.5l-2.1,-3.6l-0.3,0l-0.35,-2.2q-3.3,-2.95 -8.95,-4.15l-7.05,-0.9l2.1,-8.25m1.25,2.5l-0.7,-4.7l1.6,-6.15l-1.5,-2.3l0.8,-4.1q0.3,1.2 0.75,1.45l-0.2,-2.85l0.15,-3.15l0.9,0.8l-0.55,-1.65q-0.6,-1.85 -0.6,-3.9l1.45,-0.55l-1,-1.65q0.2,-0.2 0.05,-1.05l-0.25,-1.3l0.05,-0.1q0.8,-2 1.7,-3.5l1.8,-2.55q1.95,-11.9 -2.7,-20.4l-3,-4.45q-4.4,-5.3 -12.05,-8.95l-2,-0.95l-0.2,-0.05l-4.5,-1.7q0.8,-2.4 0.4,-4.8q-0.9,-6.2 -9.6,-12.75q-2.9,-2.2 -6.65,-4.4l-0.15,-0.05l-8.1,-1.9l-7.45,-0.8q-4.6,-0.15 -6.85,1.35l-1.4,-1.75q-3.35,-4.25 -6.9,-7.45l3.15,9.95q-5.85,-0.35 -9.25,3.3q-5.85,-9.25 -10.25,-18.45l-1.45,-3.35q-3.45,-7.9 -5.85,-15.8l-2.05,6.9l-0.1,-0.4l-1.05,-4.65l0,-0.05l-6.6,-29.7l-3.45,5.55l-1.45,2.35l0,-5.25q0.2,-9.6 2.5,-15.55l0.75,-1.7m-3.25,22.5l-0.85,1.2m-15.95,31.1l0.2,1.9m14.6,8.35l-2.45,-2.95m-6.15,16.05l7,0.65m-1.3,5.2l-0.65,-0.05q-6,-0.25 -16.45,5.5m8.9,-21.5l-0.8,-1.5m25.85,-14.55l0.7,-2.5m-1.25,5.35l0.55,-2.85m-13.95,13.15l20.45,23.5m-3.7,-2.6l-0.3,-0.1l-1.85,-0.95l-4.55,-2.4l-1.5,-0.65l-0.35,-0.25l-1.35,-0.5l-0.05,-0.05l-0.35,-0.15q-3.95,-1.45 -8.05,-2.1m25,6l0.25,2.95l0.55,4m-2.25,-1.45l-1,-1.05l-0.5,-0.7m1,39.75l0.95,-0.85m-0.95,0.85q-6.55,6.1 -9.15,12.75l-1.35,4.35l-0.5,3.4l0,1.35q-0.05,4.55 1.55,9.35m-2.2,-9.7l-2.95,-1.85l-7.3,-4.6l0.85,-23.65m56.4,25.25l0.15,0.1l1.8,0.85q3.75,3.65 2.45,11.8l-0.15,1.05m-79.85,-62.8l0.1,-0.1l1.2,-1.45l0.65,-0.25q4.7,-5.55 13.95,-10.15l11.1,-2.4m-20.65,-34.65l1,-3.65m0,130.2l-1.85,-1.3l-5.9,0.95q-4.45,-0.55 -7.6,-6.4q-2.55,-3.3 -4.45,-6.7l-0.25,-0.35q-2.1,-3.9 -3.45,-7.85q-2.95,-8.55 -2.2,-17.55l0.15,-1.05m-8.85,26.25l-0.05,-1.85l1.3,-3.05l0.85,-2.05m22.15,33.05q-1.95,0.35 -3.8,1.75l0,0.05l1.3,2.55m-12.9,1.7l-1.1,0.1m1.55,0.5l-0.25,-0.35l-0.15,-0.1l-0.05,-0.15l-1.4,-2.9q3.1,-2.35 6.25,-1.85l0.55,2.8m-1.55,-18.95l6.75,0.65l4.1,4.2q4,5 4.75,10.5l0.05,0.5m27.95,-36.45l-0.65,-0.35m10.15,24l-0.75,0.95m9.65,22.05l-0.4,4.8m4.95,-26.55l-0.55,2.7q-1.05,4.45 -0.05,11.1l-2.7,-5.95l-0.4,-1.3l-0.25,-1.55m0.4,5.75l-1,11m1.25,-13.9l-0.05,0.3m-9.8,4.15l-0.55,-1.95m6.35,12.05l0.15,0.7l0.45,1.05m-45.5,-12.2l0.5,2.4m-3.25,-3.8l2.45,-0.05l0.3,1.45m-11.7,0.8l0.65,0.2m-10.95,-18.25l7.6,5.9q4.65,6.05 2.7,12.1l0,0.05l-0.25,0.55m19.35,-14.85l0.55,0.5m-5.25,10.65q3.15,-2.3 6.25,-1.8l0.5,2.45m-6.75,-0.65l-0.05,0l0.05,0.05l1.45,3m0.1,0.1l-0.1,-0.1m28.1,47.75l1.75,-2.35q3.05,-2.55 6.25,-3.3l7.3,-7m-22.7,12.15l1.2,0.25l0.65,0.15m-0.65,-0.15l2.1,-8.05l-2.1,0.9m12.15,10.05l1.9,0.3q0.45,2.25 0.15,4q-0.35,2.4 -2.1,3.75m21.85,-15.75q-9.05,11.3 -9.8,18.3l0,0.1m-19,-5.5l0.05,-0.1q0.35,-0.8 2.55,-2.9l0.85,-0.8q1.75,-1.35 3.55,-1.4m50.05,-157.65l1.2,-0.35q3.5,3.35 6.6,17.2l1.7,8.15q0.75,5.5 -1.05,10.55l-3.1,-1.75l-2.35,-1.2q-2.45,-1.35 -4.15,-2.6q-2.55,-1.75 -3,-2.8l-0.1,-0.5l-0.05,-0.1l-0.05,-0.1l-4.35,-10.15l0.9,-3.8l1.5,-4.65l1.45,-3.1q2.05,-3.65 4.75,-4.75m0.1,-0.05l-0.1,0.05m-25.4,2.6l-5.65,-3.7l1.8,5.1l-4.1,-1.8l-1.7,-2.6m9.7,3.05l-0.05,-0.05m0.05,0.05l2,1.25l2.05,4.95m12.35,6.6l0.35,0.85m-24.75,-14.1l1.15,2.3m8.85,-0.6l-2.45,-7.6m5.15,-0.75l3.15,4.55l5.1,8.6l2.8,5.55l0.65,1.2m22,1.45q2.4,1.2 4.7,2m-12.1,14.95l-0.2,-0.1m6.9,9.85l1.7,-0.2m-1.35,4.85l0.15,-2.3l-0.5,-2.35l-2.1,0.7l-0.25,0.05l-1.85,0.95l-0.05,0.05l-2.95,2.05l-0.05,0.1l-0.95,0.8l-0.4,0.45l1.2,-4m-7.05,-6.1l-2.55,-2.85m-1.65,-1.8l-1.9,-2.1l-1.1,-0.9m17.85,4.5q3.85,2.6 7.65,6.65q0,1.4 -0.55,2.65q-0.9,1.85 -2.95,3.45q-0.15,1.4 -0.8,2.75l-1.45,2.25l-4.55,-0.05l-1.75,-4.9m-10.45,-14.3l0.1,0.05l1.55,1.75m3.95,12.95l-0.1,0l-0.75,-0.35l0.15,0.1l-3.05,-1.65l-2.2,-1.15m0,0.05l-5.6,-2.2l-2.15,-0.6l-2.9,-0.2l-2.25,0l1.6,-3.1m17.25,9.5l0.4,-0.1l-0.15,-0.1l0.05,-0.05l1.9,-6.25l-3.6,-4m1.65,10.3l-0.15,-0.05l-0.1,-0.15m-0.7,-0.25l0.6,0.25m0.2,0.15q-0.4,-0.15 -0.8,-0.4m0.7,0.65l0.2,0.4l-0.95,2.6l-0.35,0.7q-0.55,1.2 -1.1,1.5l-1.45,0.75l-2.9,0.95l-3.1,0.4l-1.9,-0.1l-3.2,-0.55q-1.1,-0.4 -1.9,-1.65q-2.2,-4.75 -0.9,-9.1l0.95,-2.3m-11.95,-38.75l1.15,3.5m38.55,45.75l1.45,0.25l3.15,5.6l2.85,6.05q-2.05,-1.6 -4.85,-1.05l-2,1.1l-0.15,0.1q-4,2.65 -5.7,7.45q-2.15,6.05 -1.15,10.2l0.2,0.35l1.3,1.5m21.8,-6.25q2.1,3.75 2.75,8.65l0.2,1.85q-1.65,8.05 -5.9,13.75l-2.6,3l-1.05,0.85q-2.7,1.75 -4.55,0.5l-1.8,-1.1l-0.45,-0.75m-0.05,-0.65l3.25,-0.2m6.95,-28.7q-0.1,-3.65 -1.35,-5.55l-3.1,-3.9l-1.75,-1.15m18.25,4.65l0.35,-1.5m-0.35,1.5l-1.2,6.3l1.2,1.85l0.15,0.15l0.85,1.4m-12.9,-5.05l-0.15,1.3l0,1.4l-0.05,0.15l-4.1,2.05l-6.45,1l-5,-2.05l-0.75,-2.55l-1.1,2.25l1.1,3.8l0,0.15l0.05,0.05q0.75,1.15 0.4,1.6q-0.2,2.2 -0.95,1.85q-0.85,-0.05 -1.7,-0.65m18.7,-10.35l0.85,0.95l2.25,3.15m-3.1,-2.8l0,-1.3m-0.15,2.7l0,0.15l-0.05,0q-0.2,1.95 -0.9,3.3l-0.75,0.95q-2,2.25 -5.1,3.9l-5.3,-0.1q0.1,-3.95 -2,-4.35l-0.2,0q-2.15,-0.15 -2.05,0.8m16.35,-4.65l0.15,-1.4m-12.95,29.4l1,-0.25l2.1,1.15l2.5,4.35l1.05,1.75q1.9,-0.55 2.55,-3.25l0.25,-2.25m-9.45,-1.5l-3.45,1.2l-1.65,0.75l-1.5,0.05q-2.85,-0.05 -5.3,-1.5q-1.8,-1.2 -3.45,-3.15m16.35,2.4l1.6,-0.25m12.4,3.6l5.6,3l5.5,13.65m-30.3,-13.75q0.7,-2.1 0.75,-4.8m-0.75,4.8l-0.25,0.55q-1.05,2.85 -3.5,4.45l-0.6,-2.5m31.65,-15.25l-0.5,1.9m-6.6,5.35l0.35,-0.1l7.65,-1.55q8.55,1.65 11.6,5.9l0.35,5.15l0.1,2.55m-20.05,-11.95l-0.25,0l0.6,-0.1m-1.15,22.95l-0.1,-0.05q3,-2.85 6.2,-2.2l1.05,4.35m-5.4,1.55l-1.75,-3.65m-19.65,-6.7l3,-1.85m-10.45,-14.3q2.15,3.1 3.35,8m35.65,-52.85l0.25,0.75q-1.2,2.95 -2.15,6.75m1.9,-2.2l-0.4,-0.65m13,47.05q0.35,-2.95 -0.25,-6.8l0,-0.05m-8.85,19.45l-0.1,-0.1l-1.55,-3.1q3.15,-2.3 6.35,-1.75l0.3,1.65m-82.75,53.3l3.3,-3.85l0.2,-0.1q2.85,-1.7 3.85,0.2q0.9,1.5 0.7,5.1l-3.15,1.9m68,-90.4l-0.55,2.2"/>
   <path id="svg_32" stroke-width="0.05" stroke-linejoin="round" stroke-linecap="round" stroke="#966d55" fill="none" d="m-57.75,-169.85l-3.35,2.55q-4.45,3.7 -7.9,8.4q-3.85,5.1 -6.45,11.45q4.85,-1.25 7.9,-1.4"/>
  </g>
  <g id="sprite0">
   <use id="svg_33" xlink:href="#shape1" width="102.95" height="45"/>
  </g>
  <g id="shape1">
   <path id="svg_34" fill-rule="evenodd" fill-opacity="0" fill="#ff00ff" d="m0,0l102.95,0l0,45l-102.95,0l0,-45"/>
  </g>
 </defs>
 <g>
  <title>background</title>
  <rect fill="none" id="canvas_background" height="532" width="364" y="-1" x="-1"/>
 </g>
 <g>
  <title>Layer 1</title>
  <g id="svg_35" transform="matrix(2,0,0,2,0,0) ">
   <use x="98.050003" y="244" id="svg_36" xlink:href="#shape0" width="381" transform="matrix(1,0,0,1,-192.55,-294) " height="381"/>
   <use x="-52.014166" y="-29.931068" xlink:href="#sprite0" width="102.95" transform="matrix(1.8072000000000004,0,0,1.6538,87.00000305175782,148.3) " id="_mcMask" height="45"/>
  </g>
 </g>
</svg>