<svg width="220" height="239" xmlns="http://www.w3.org/2000/svg" xmlns:xlink="http://www.w3.org/1999/xlink">
 <g id="Layer_1">
  <title>Layer 1</title>
  <defs>
   <g transform="matrix(1.0, 0.0, 0.0, 1.0, 328.0, 429.45)" id="svg_244">
    <path id="svg_334" stroke-opacity="0" stroke-linejoin="round" stroke-linecap="round" stroke="#ff00ff" fill="none" d="m187.95,-293.5l0,380l-379.95,0l-0.05,0l0,-380l380,0l-190,190l190,190m-379.95,0l189.95,-190l-190,-190m285,294.1l-189.95,0"/>
    <path id="svg_335" fill-rule="evenodd" fill="#999933" d="m-53.5,-51.55l0.4,0.3l0.05,0.1l0.4,0.4l-0.85,-0.8"/>
    <path id="svg_336" fill-rule="evenodd" fill="#989701" d="m-75.8,-198.25l-0.15,0.5l0,-0.05l0,-0.05l0.05,-0.1l0.1,-0.3m24,148.3l0.3,0.25l0.15,0.2l-0.1,-0.1l-0.35,-0.35"/>
    <path id="svg_337" fill-rule="evenodd" fill-opacity="0.23137" fill="#ffcc00" d="m-75.95,-197.75l-0.05,0.15l-0.05,0.1l0.1,-0.3l0,0.05m0,-0.05l-0.05,0.2l0.05,-0.2"/>
    <path id="svg_338" stroke-width="0.2" stroke-opacity="0.4" stroke-miterlimit="3" stroke-linejoin="miter-clip" stroke="#000000" fill="none" d="m8.4,-172.4l2.7,-0.3m-85.95,-29.05l-0.7,2.65l-0.25,0.85l-0.15,0.5l-0.05,0.15l-0.05,0.1l-0.05,0.1l-0.1,0.55l-0.15,0.7l-0.05,0l-0.6,2.2m1,-3.65l0.05,-0.2l-0.1,0.3m0.1,-0.35l0,0.05m-0.25,0.95l-0.2,0.7m0.5,-1.8l0.35,-1.15m22.05,147.55l-0.1,-0.1l-0.45,-0.45m0.55,0.55l0.4,0.3l0.05,0.1l0.4,0.4l0.1,0.1l0.1,0.1l0.25,0.25l0.4,0.35l0.3,0.25m0.15,0.2l-0.1,-0.1l-0.35,-0.35m-0.85,-0.8l-0.85,-0.8m-22.4,-146.4l0.1,-0.3"/>
    <path id="svg_339" stroke-width="6.45" stroke-linejoin="round" stroke-linecap="round" stroke="#10152e" fill="none" d="m25.3,-203.4l-9.85,2.7l-16.55,7.95l-4.9,2.95l1.15,0.55l9.35,7.55l2,1.85l0.1,-0.45l-0.6,-3.1l2.05,-2.75l-0.6,-2.85l2.15,-3.2l6.15,-4.95l9.7,-5l-0.15,-1.25m-18.65,-21.3l-0.15,-0.4l-10.2,6.6l-16.4,14.95l-5.95,6.25l-1.2,1.25l1.7,-0.35l5.8,1.45l0.65,-1.45l0.25,1.7l7.05,2.35l0.5,1.25l1.95,0.25l0.3,-2.15l-1.3,-3.15l1.6,-3.75l-1.2,-2.8l1.65,-4.35l5.65,-7.65l9.6,-9.15l-0.15,-0.35l0,-0.1l-0.15,-0.4m79.15,76.9q10.7,34.25 0.2,49.05q7.35,-1.05 7.05,9.35l-0.3,0.65l0.15,0.15q14.75,-23.8 -3.85,-56.5q-3.95,-6.9 -3.25,-2.7m-81.3,-33.9l-0.2,2.3l1.7,0.85l0.5,-1.3l6.95,6.95l1.85,-0.2l11.15,-0.3l6.1,1.05l-0.25,0.8l-6.6,0.3l-4.55,1.3l-2.05,1.25l-0.35,1.8l-1.45,0.85q1.35,2.4 2.4,5.2q1,2.7 1.6,5.85l0,4.4q4.1,2.65 6.85,6.7l0,7.45q3.55,9.25 7.55,16.8q9.85,18.9 22.1,27.5l1.4,0.95l0.6,0.4q7.45,4.4 14.2,2.1q2.45,-0.85 4.85,-2.55q2.1,-1.55 4.1,-3.8l3,-3.7l0.05,0l-1.1,1.4l7.85,8.6q-1.75,3 -4.05,5.5l-0.2,0.15q-1.95,2.1 -4.35,3.75l-4.15,2.3q-13.85,6.1 -27.15,-2.75l-0.05,-0.05l-0.1,-0.05q-3.65,-2.3 -7.1,-5.15q-11.65,-9.75 -20.75,-26.35q-2.5,10.95 -6.25,18.85l0,2.7l1.65,1.1l0.05,0l0.15,0.1l12.35,8l0,1.95l-5.15,6.95l1.55,6.25l0.8,4.55l0.65,5.25l0.35,4.9l12.9,24.15l0,7.95l-0.15,0.25l0.5,0.55l0.55,2.3l-0.6,1.5l2.5,1.8l0.75,2.9q-0.75,3.35 -3.55,4.3l-0.7,0.2q-3.75,-0.75 -6.25,-4.2l-0.8,-2.95l1.55,-1.9l-2.5,0.45l-1.15,2.05l2.25,2.55l0,4q-1.75,4.6 -5,5.95l-0.9,0.25q-3.9,-1.05 -5.7,-5.8l0,-3.8q-1.9,2.4 -4.5,3.2l-0.8,0.2q-3.5,-0.75 -4.55,-4.2l0.5,-2.95l2.3,-1.95l-0.95,-1.4l0.4,-2.2l-1.35,-2.75l0,-7.75l9.6,-21.8l-0.75,-6l-1.1,-4.85l-1.2,-4.05q-4.15,-12.35 -13.4,-22.95l1.2,-3.5l-0.25,-0.35l1.6,-4.9l1.15,-7.45q1.05,-12.15 -0.6,-21.05l-3.1,1.9l-0.2,4q-11.1,13.8 -16.1,32.8l13.2,14.2l1,10.4l1,2.7l1.35,1.25l-0.65,2.2l-0.15,2.3l-0.2,1.8q-0.85,2.05 -2.35,3.3l-0.25,0.25q-1,0.85 -2.25,1.25q1.55,-1.65 0.5,-5.25l-1.8,-1.4l0.35,-1.6l-0.6,-0.9l-3.55,6.65l0.35,2.75l0.95,1.55l-1.2,1.9l-0.75,2.2l-0.65,1.7q-1.35,1.8 -3.1,2.6l-0.35,0.2l-2.5,0.6q1.95,-1.2 1.85,-5l-1.35,-1.8l0.7,-1.45l-0.05,-0.2l-5.35,0.75l-2.1,-2.05l-0.2,0.55l0.65,1.45l-1.3,1.85q-0.05,3.75 1.8,4.95l-2.35,-0.6l-0.35,-0.15q-1.65,-0.85 -2.95,-2.65l-0.6,-1.7l-0.7,-2.15l-1.15,-1.95l0.95,-1.55l0.45,-3.85l-0.75,-0.7l-0.9,3.55l-9.15,5.2l-6.85,0l-0.2,0.4l-3.3,0l0.85,3.2l-4.25,3.9l-5.3,0l-1.05,0l-2.05,-2.15l0.55,-3.3l-3.8,2.55l-5.25,0l-1.1,0l-1.2,-2.2l4.5,-7.9l-3.3,4.15l-0.7,0l-0.65,-1.75l4.3,-6.65l3.3,-2l0.35,-1.7l3.75,-1.75l2.5,-2.45l0.7,0.5l2.3,-2.25l9.55,0l14.4,-14.6l-0.1,0.05l-0.25,0.25q-0.55,0.35 -1.1,0.45l-0.25,0l-2.7,-2.75l0.05,0l-0.95,-0.8l-0.3,-0.25l-1.25,-1.05q-7.7,-5.95 -17.75,-7.35l-0.8,-3.45l-1.45,-1.35l2.6,-5.5q17.7,-21.3 38.1,-34.75l3.4,-2.1l0.5,-3.95l-0.2,-0.1l-1.9,-8.15l-6.7,-3.45l-3.85,1.55l-11,-3.55l-3.35,-4.25l-0.55,0.55l-4,1.45l-1.95,-1.15l-2.1,1l-2.7,-0.3l-1.05,1.85q-1.4,0.85 -3.05,1.5l-1.05,1.3q-0.9,1.3 -0.65,2.4q0.35,1.35 2.35,2.45q-0.3,6.45 -6.9,7.1l0.2,0.4l1.75,3.6l1.85,3.95l0,4.5q-7.4,6.25 -11.6,15.85l-4.4,0.95l-6,-2.05l0.55,3.8l0.6,2.9l0.05,0.85l0.9,0.15l0,1.95l2.25,0.8l5.9,5.3l6.05,9.25l0,5l2.05,1.1l1.1,-0.8l1.4,1.5q2.85,0.05 3.75,-2.05q-0.05,1.45 -0.45,2.75l-0.1,0.35q-0.65,1.9 -2,3.45l-1.3,0.7l-1.65,0.8l-1.45,1.3l-1.2,-1l-2.9,-0.5l1.05,2.3l1.55,0.45l0.3,2.3q2.65,2.75 4.85,2.2q-1,0.85 -2.2,1.35l-0.35,0.1q-1.85,0.65 -4.1,0.4q-0.85,-0.35 -1.7,-0.75l-2.05,-1l-2.25,-0.55l-0.4,-1.75l-2.4,-3.1l-1.35,-0.15l-1.95,3.05l-2.85,-0.55l-0.9,2.6l0.65,1.45l-1.3,1.8q-0.05,3.8 1.8,4.95q-1.25,-0.1 -2.35,-0.6l-0.35,-0.15q-1.65,-0.85 -2.95,-2.6l-0.6,-1.75l-0.7,-2.15l-1.15,-1.95l0.9,-1.55l0.4,-3.35l-1.6,-2.25l1.3,-9.55l-3.35,-9q-1.25,-2.5 -0.95,-4.55l-0.1,-0.05l2.85,-16.25l-1.6,-0.55q-1.1,-0.95 -1.9,-2.25l-1.3,-2.9q-2.45,5.75 -5.05,6.75q1.15,-5.7 0.8,-12.5l-0.2,-2.5l-6.75,-3.4l-6.85,-1.7l-0.85,2.75q-1.3,4.95 -1.7,9.4q-2.4,-1.95 -2.8,-11.05l0,-3.75l-0.2,-0.2l-0.15,-0.15q-0.7,-1.05 -1,-2.2l-0.05,-0.2l-0.1,-0.4l-0.05,-0.65l-0.05,-0.7l0,-0.15l0,-0.1l0,-0.1l0,-0.2l0,-0.05l0.55,-2.5l7.4,-10.1l0,-0.05l2.95,-4.1l-2.25,-6.15l7.75,-9.05l0,-2.9l0.75,-1l-0.45,-1.1l0.2,-1.75l-3.1,-2.85l-1.15,-8.05l2.15,-3.95l1.9,-8.95l2.35,-3.85l3.45,-5.75l1.55,0l-0.85,7.5l1.55,9.6l1.25,0.45l1.7,4.4l1.4,1.1l1.35,-0.65l0.55,0.4l2.55,-1.85l0.9,-0.65l2.1,-7.85l3.7,-8.85l12.25,-18.15l1.35,-0.4l-4.8,14.4l-2.35,13.9l1.45,1l0.1,0.1l0.4,0.25l2.25,-0.15l1.35,-0.1l6.75,1.05q2.55,0.8 4.8,2.25l2.9,-6.85l9.9,-18.25l7.3,-8.05l0.65,1.05l0.05,0.05l0.3,0.5l-5.6,11.05l-2.3,9.35l0.2,5.25l2.45,3.45l0.05,3.85l4.5,-0.95l-2.5,2.6l9.1,1.15l0.1,-1.15l0.8,-1.5l0.9,0.25l0.45,2.7l7.1,0.9l0.05,0.1l-1.3,5.3l-2.75,5.35l-2.15,2.1l-0.2,0.6l1.95,-0.75l2.55,0l2.65,-3.85l2.7,-3l-3.25,-1.65l3.9,-2.3l0,-1.15l1.15,0.55l-1.15,0.6l0,3.2l-0.65,0.75q6.05,2.95 12.1,5.85l-0.35,3.75l-1.5,2.5l6.3,0.7l4.7,-0.45l0.4,0.45l0.25,1.95q1.8,2 3.2,4.45l-0.35,0.25l-0.45,1.95l-0.75,0.85l-0.85,-1.1l0.55,4.9l-10.95,11.3l-12.6,0l-0.1,-0.05l-0.05,-0.1l-11.5,-8.1l2.5,-6.4l-4.5,0l5.15,-1.8l1.05,-2.8l3.65,-1.3l0.6,-1.3l-2.1,-1.85l-6.25,4.5l-2.75,0.2l-0.25,0.4l-1.6,0.8l3.8,10.55l-6.35,-7.8l-0.55,1.95l-3.55,1l-2.2,2.35l-1.8,-2.35l5.85,-1.9l-9,-2.15l-0.1,-0.05l-0.45,-0.6l-0.45,-0.65l-1.45,-1.85l-0.15,-0.15l-0.4,-0.5l-0.4,-0.55l-3.15,-4.05l7.15,-0.65l-9.2,-2.6q-4.3,-7.9 -0.8,-13.4l1.1,-1.45l-3.6,-0.55l2.3,-5.4l2.05,1.4l2.5,2.35l11.35,-2.35l0,0.75l2.65,3.75l0.65,2.65l-12.3,-1.8q2.1,3.25 3.45,7.45l0.05,0.15l2,0l1.6,1.95l5.4,0.85l3.85,-2.5l1,0l0.75,-0.1l1,-1.5l1,-8.85l2.25,0.3l1.75,11.45l-0.8,2.3l-0.9,0.9l0.7,-0.3l-0.1,0.35l0.1,1.55l4.15,-2.2l0.35,-0.45l6.95,0l-2.25,1.3l-0.5,0.3l-5,0.1l1.3,2.05l-0.45,0.55l-1.35,1.55l1.05,0.95l4.55,-3.25l-2.45,5.1l0.9,0.8l12,-4.3l0.85,0.1l-2.05,3.45q-3.8,2.55 -7.65,5.05l1.5,3.4m14.5,-11.2l3.85,0.45l1.5,1.5l0.8,6.4l-6.5,-8.3l0.35,-0.05m3.25,47.45l-0.85,-3.7l-0.8,-2.7q2.05,-5.2 6.45,-6.75l0,-6.5l1.95,-7.45l2.55,1.5l0,8.15q1.75,-1 4.2,-1.25l2.65,7.25l0,4.7q-1.25,11.25 -3.3,20.35q-4.25,-7.75 -7.9,-16.95l-0.1,-1.2l-0.85,2.2l-4,2.35m9.3,-17.45q-5,3 -4.45,12.9l4.65,-11.55l-0.2,-0.25l0,-1.1m-27.9,6.7l2.75,-1.8q8.7,1.8 4.85,12.3l-3.6,1.65l0.5,0.9l2.8,1l0.5,0.2l2,-4.1q2.65,-2.85 4.7,-0.45l1,2.95l-4.55,2.7l-0.35,-0.15l-0.15,-0.05l-0.15,-0.05l-2.5,-0.85l-0.45,0.8l0,0.15l-0.05,0q-9.45,18.45 -21.45,34.45l11.2,-2.5l2.15,2.3l-0.8,3.1q-0.55,2.3 -4.75,4.3l-4.15,-0.5l-0.05,0q-4.2,-1.15 -5.35,-4.5l1.75,-2.2l-1.45,0.3l-1.95,2.5l2.3,2.95l-0.65,1.4l-0.15,0.2l-0.4,0.65l-0.05,0.05l-0.75,0.9l4,-0.9l0.8,-0.2l2.4,6.15l-5.2,20.2l-1.9,-1.95l0.1,-1.55q0.7,-10.3 -0.2,-21.75l-0.55,-5.8l0.25,-0.35l-0.25,-0.4l-0.05,-0.05q-0.75,1.8 -1.5,2.9l-0.85,0.95l-1.4,0.75m102.2,-9.55q6.6,3.85 6,11.65m-20.2,-13.75l1.9,1.1q2.6,8.85 -3.25,12.9q-2.85,-1.35 -5.6,-3m-0.15,-0.1l-0.1,-0.1l5.2,-12.15m-47.7,0.9l0.7,-2q5.35,-3.9 7.8,-0.8l0,1.5l-1.5,2.85l-3.85,2.6l-2.9,-2.3l0.2,-1.25l-0.45,-0.6m-3.3,29.55l0,0.25l-2.65,2.7l1.7,3.55l0.2,3l2.45,-3.35m-6.75,-0.25l0.5,-0.95l1.9,-2m1.65,10.6l0.9,-3.1l1.65,-2m13.95,-11.55q1.4,0.9 3.6,0.5q1.45,-0.3 3.3,-1.2m0.8,4.55l-0.1,0.05q-1.75,0.7 -3.1,0.9q-2,0.25 -3.3,-0.75m1.1,4.85l0.2,0.15q1.2,1 3.2,0.8l0.1,-0.05l2.55,-0.7m-5.3,5.8l0.2,2.4q0.85,2.1 2.8,2.1l0.1,0q2.45,-0.45 2.55,-3.25l0,-2.15l-0.05,-0.05l-5,-0.4l-0.6,1.35m-0.65,41.6l0,-0.35l0.85,-0.95l0.45,-2.7l-1.8,-1.8l1.25,-1.5l0.15,-0.95l0,-0.7l0.2,-0.3l0.05,-0.35l-2.35,-4.8l-2.65,0l-0.9,1.15l-0.25,6.4l-0.85,0.5l-1.35,2.6l2.7,6.95m-3.1,-12.5l0.1,-0.7l2.75,-3.25m17.75,7.6l0,-0.05l-1.55,-1.4l-0.75,-2.9l1.4,-3.25l0.45,-1.15l2.65,0l3.85,4.25m-17.95,0.9l2.3,-4.2l0.8,-1.55l2.85,0l3.45,6.6l0,3.2m1.6,-8.05l2.45,6.4l-0.1,0.05l-0.55,0.45l-0.25,2.6l5.55,6.95m-18.35,-4.5l1.4,-1.7l-1.35,-1.95l0,-3.3m2.5,-5.2l0.85,8.85l-0.1,0.05l-0.75,0.65l-0.95,3.65l4.15,9.6m51.65,-96.1l0.4,0.25q6.05,3.9 5.35,11.55m-4.55,3.9q0.85,-7.9 -5.3,-11.9m-119.9,-76.6l0.25,0.05l0.05,0.05l0.1,0.05l5.65,1.55l5.4,-0.3l2.8,3.5l0.5,-1.8l2.05,-0.95l-0.4,-1.05l2.25,-0.15l3.65,-7.35l1.1,-0.8l0,-0.7l-4.95,2.5l4.25,-4.1l-1.1,0.45l-2.65,-2.35l-1.2,-2.25l-0.1,-0.35m13,12.9l1.8,1.6l0.4,0.75l0.95,1.95l-3.2,2.1l-6.8,0l0.65,-1.8l3.25,-1.15l1.45,-2.95l1.5,-0.5m-35.95,-21.6l2.05,-1.95l1.2,-0.25l1.7,2l0.65,1l-5.6,-0.8m-3.85,41.5l-3.25,2.15l3.95,-10.25l-2.4,-0.95l-3.9,-10l1.7,-6.9l-3.55,-3.45l-4.85,8.4l-5.5,4.4l-6.8,2l-1.45,0.15l3.1,-4.6l0.95,-5.15l-2.25,-7.95l-13.25,6.15l-2.1,2.7l-0.9,3.4l-0.4,-0.25l-0.7,-6.15l1.25,-7l-3.75,4.35m39.55,38.5l-0.2,0l-5.3,0.5l3,6.6q-1.7,4.4 -3.8,8.25l-1.35,2.3q-1.95,3.1 -4.2,5.8l-3.4,-0.65l-3.35,-1.15l0,0.65l0.4,4.9l-8.7,-3.05l0.9,-5l-3,-1.05q-1.5,-0.45 -1.45,-2.25l0.25,-0.7l-0.05,-0.75l-0.25,0.85l-1.2,3.2l-0.7,-2.75l0.5,-1.1l-4.05,-1.9m-0.2,-2.5l4.9,2.4l0.25,0.1l1.15,-2.3q0.35,-1.45 1.05,-2.7l0.75,2.3l1.3,2.65l2,-0.8l1.25,-7l0,-0.6l0.05,-0.05l-0.05,-0.05l0.25,-4.55q1.05,-2.75 3.15,-2.7l0.4,0l0.4,0.05l2,1.6l1.3,2.75l-1.2,4.85q6.1,-4.45 11.7,-5.65l-0.15,-0.4l-8.15,-3.95l12.15,0.3l1.65,3.55m-30.2,15.15l0.1,1.3q2.1,2 4.2,2.15l0.65,-4l-0.2,-0.25l-1.3,-1.7l-3.1,0.3l-0.4,1.45l0,-1.5l-0.75,-0.2l-0.9,1.9l1.4,0.65m12.85,-8.75q-3.95,3.75 -7.1,5.35l-0.5,2.75l1.65,1.5q0.25,1.55 -1.3,2.45l-1,0.05l-0.1,0.55l7.4,2.5q-0.3,-7.8 1.4,-15.5l-0.45,0.35m11.35,8.85l-3.3,2.3l-1.45,0l-1.2,1.35l1.05,0.9q0.3,1.5 -1.3,2.4q-2.6,0.45 -5.15,-2.1l-0.2,-2.6q0,-3.5 1.45,-6.1q1.2,4.65 4.15,7.5m-4.75,15.75q-0.25,1.7 -2.5,4.4l-3.85,1.7q-4.1,1.3 -6.3,-0.4q0.1,-0.95 0.6,-1.85q5.75,-4.95 12.05,-3.85m22.5,12.7l-0.4,-1.75q1.5,-6.4 4.3,-5.85l1.75,3.05l0.5,-0.1l1,-0.3l0.15,-0.35q18.6,-16.3 39.35,-26.25l-4.5,-8.3l0.5,-3.85m-89.4,-11.8q-2.7,0.7 -2.6,2.25l2.6,-2.25m11.4,18.45l-0.4,2.5l0.4,0.05m-7.55,-20.2q2.55,1.55 1.95,3.7l-1.95,-3.7m-17.7,13.45l4.5,1.65m-4.5,-5.4l1.85,1.75l3.5,0.9m62.4,37.4l10.95,-2.65l0.8,1.4l-0.15,8.4l3.6,3.45l2.5,2.65l0,0.05m-2.5,-2.7l-1.05,2.45l-0.4,0.7l-0.65,0.85l-0.15,0.25q-0.75,0.75 -1.55,0.9m-19.4,20.95l1.7,1.25l-0.05,0.3l-0.1,0.55l0.65,-0.65l3.6,2.2l0.05,0.4l0.05,0.4l4.35,2.1l0.15,0.4q2.75,6.1 0.95,10.2m-10.5,-48.9l1.45,1.35l1.7,-1.35l0.35,-0.9l1.85,0l1.8,-4.05m-25,24.25l-0.65,-0.8l3.2,-2q1.9,-0.85 4.25,-1.1l0.25,0.45l0.45,-2.65q0.6,-2.15 1.7,-4.1l1.25,0.65m-3.4,6.1l0.65,1.5m7.2,-0.6l1.2,-2.35l2.1,-1.8m-10.7,0.6l5.5,1.45l2.25,-0.65l-2,3.55m-25.95,0.8l0.15,-1.55q1.8,0.1 3.45,0.8q1.85,0.8 3.5,2.25l-0.55,1.8m-6,5.7l2,1.55l1.55,2.8m-4.25,-6.5l3.05,2.6l-0.55,-2.95l1.25,-7.25m16.2,8.1l2.65,-0.45l3.15,0.8m-10.35,-9.55l4.15,6.05l2.5,1.7l-4.15,0.45m4.7,14.75l-2.65,3.45l3.95,-2.4l0.25,-1.8l-1.55,0.75m-5.2,14.05l7.2,-10.05l3.25,-1.6l0,-0.05l-2.35,-2.25l0.45,0.4l3.7,0l6.05,-4.15m-4.2,-2.5l-4.85,3.35l-2.65,0l-0.3,-0.3l1.4,1.7l3.9,-1.8l2.4,-2.4m-4.95,17.1l0.8,-5.05l3.15,-2.45l-0.55,-2.1l3.95,-2.2l1.8,-3.05l0.15,0.1m4.5,2.5l-4.35,4.2l-3.65,0l2.6,1.85l0.5,0.35m-0.5,-0.35l-2.65,1.6l-3.2,10.05m8.45,-8.3l0.25,1.2m-5.45,-6.4l-0.05,0l-0.6,-0.45l0.65,0.45m39.8,5.05l3.35,-0.5l0.35,-0.05l2.4,-4.5m-2.75,4.55l0.2,1.3l-0.6,3l3.25,-2.65m-4.5,6.5l1.65,-2.75l2.1,-1.55m-18.65,-10.45l2.95,2.95l2.8,2.85m-6,1.55l3.05,2.6l-0.55,-2.95l0.7,-4.05m-2.5,6.55l2,1.55l1.55,2.8m-35,-12.85l0.75,0.7l-0.75,-0.75"/>
   </g>
   <g id="svg_243">
    <use id="svg_340" xlink:href="#svg_242" width="60.1" height="63.55"/>
   </g>
   <g id="svg_242">
    <path id="svg_341" fill-rule="evenodd" fill="#fd8002" d="m41.75,12.3l17.15,-12.3l1.2,2.4l-15.35,16.9l-8.5,14.25l-2,8l3,5.25l-2,7l3.25,5.75l0,4l-38.5,-4.75l15.25,-18.75l26.5,-27.75"/>
   </g>
   <g id="svg_241">
    <use id="svg_342" href="#svg_240" xlink:href="#svg_240" width="43.05" height="54.35"/>
   </g>
   <g id="svg_240">
    <path id="svg_343" fill-rule="evenodd" fill="#5e5d00" d="m43.05,27.35l0,14.45l-11.75,8.55l-6.5,-0.75l-3,4.75l-12,-2.5l-5.05,-6.95l2.05,-14.8l-5.2,-13.9q-2.9,-5.75 -0.55,-9.9q9.55,-8.2 20,-5.7l0,3l3.5,1.25l9.15,8.2l9.35,14.3"/>
   </g>
   <g transform="matrix(1.0, 0.0, 0.0, 1.0, 9.8, 6.7)" id="svg_239">
    <path id="svg_344" stroke-width="0.2" stroke-opacity="0.4" stroke-miterlimit="3" stroke-linejoin="miter-clip" stroke="#000000" fill="none" d="m20.55,18.6l-1.85,6.3m-27.15,-25.1q-2.35,4.15 0.55,9.9l5.2,13.9l-2.05,14.8l5.05,6.95l12,2.5l3,-4.75"/>
    <path id="svg_345" stroke-width="0.2" stroke-opacity="0.4" stroke-miterlimit="3" stroke-linejoin="miter-clip" stroke-linecap="round" stroke="#000000" fill="none" d="m18.7,24.9l0.85,7.3l-2.6,8.8l-1.65,2.1"/>
    <path id="svg_346" stroke-width="0.2" stroke-opacity="0.4" stroke-miterlimit="3" stroke-linejoin="miter-clip" stroke-linecap="round" stroke="#000000" fill="none" d="m15.3,43.1l6.5,0.75l11.75,-8.55l0,-14.45l-9.35,-14.3l-9.15,-8.2l-3.5,-1.25l0,-3m7.15,30.8l-1.15,-6.05"/>
    <path id="svg_347" fill-rule="evenodd" fill-opacity="0.31373" fill="#000000" d="m11.55,-5.9l0,3l3.5,1.25l9.15,8.2l9.35,14.3l0,14.45l-11.75,8.55l-6.5,-0.75l-3,4.75l-12,-2.5l-5.05,-6.95l2.05,-14.8l-5.2,-13.9q-2.9,-5.75 -0.55,-9.9q9.55,-8.2 20,-5.7"/>
   </g>
   <g transform="matrix(1.0, 0.0, 0.0, 1.0, 0.1, 0.1)" id="svg_238">
    <use id="svg_348" href="#svg_237" xlink:href="#svg_237" width="16.8" transform="matrix(1.0, 0.0, 0.0, 1.0, -1.9, -1.9)" height="28.3"/>
   </g>
   <g transform="matrix(1.0, 0.0, 0.0, 1.0, 1.9, 1.9)" id="svg_237">
    <path id="svg_349" fill-rule="evenodd" fill="#7a7a28" d="m8.35,23.05q-2.55,-1.3 -4.6,-4.05l-0.9,-2.65l3.1,2.4l2.4,4.3m-6.6,-10.05l-1.75,-3l1.4,-2.4l0.85,-7.6q2.75,0.2 5.3,1.25l-1.95,11.2l0.9,4.6l-4.75,-4.05"/>
    <path id="svg_350" fill-rule="evenodd" fill="#424216" d="m7.55,1.25q2.85,1.2 5.45,3.5l-2.3,6.75l1.05,2.25l-2,2.8q-0.1,5.85 2.75,7.7q-1.95,-0.15 -3.65,-0.95l-0.5,-0.25l-2.4,-4.3l-3.1,-2.4l-1.1,-3.35l4.75,4.05l-0.9,-4.6l1.95,-11.2m2.2,15.3l-3,0.7l-0.25,-0.2l0.25,0.2l3,-0.7"/>
    <path id="svg_351" stroke-width="0.2" stroke-opacity="0.4" stroke-miterlimit="3" stroke-linejoin="miter-clip" stroke="#000000" fill="none" d="m7.55,1.25q2.85,1.2 5.45,3.5l-2.3,6.75l1.05,2.25l-2,2.8q-0.1,5.85 2.75,7.7q-1.95,-0.15 -3.65,-0.95m-0.5,-0.25q-2.55,-1.3 -4.6,-4.05l-0.9,-2.65l-1.1,-3.35l-1.75,-3l1.4,-2.4l0.85,-7.6q2.75,0.2 5.3,1.25m-1.05,15.8l0.25,0.2l3,-0.7m-8,-3.55l4.75,4.05"/>
   </g>
   <g transform="matrix(1.0, 0.0, 0.0, 1.0, 6.15, -1.6)" id="svg_236">
    <path id="svg_352" fill-rule="evenodd" fill="#cc6600" d="m-6.05,1.8l-0.1,0l0.1,-0.2l0,0.2"/>
   </g>
   <g id="svg_235">
    <use id="svg_353" href="#svg_234" xlink:href="#svg_234" width="48.5" height="74.65"/>
   </g>
   <g id="svg_234">
    <path id="svg_354" fill-rule="evenodd" fill="#5e5d00" d="m48.5,6.35l-0.25,6.05q-18.6,23.15 -26.15,55.55q-0.85,3.6 -7.35,6.7l-6.4,-0.8l-0.1,0q-6.5,-1.75 -8.25,-6.95q20.25,-26.3 35.85,-56.7l0.1,0l0,-0.2l3.8,-7.6q4.1,-4.4 7.25,-0.75l1.5,4.7"/>
   </g>
   <g transform="matrix(1.0, 0.0, 0.0, 1.0, 42.5, 8.9)" id="svg_233">
    <path id="svg_355" stroke-width="0.2" stroke-opacity="0.4" stroke-miterlimit="3" stroke-linejoin="miter-clip" stroke="#000000" fill="none" d="m-42,58.5q20.25,-26.3 35.95,-56.9l3.8,-7.6q4.1,-4.4 7.25,-0.75l1.5,4.7l-0.25,6.05q-18.6,23.15 -26.15,55.55"/>
    <path id="svg_356" fill-rule="evenodd" fill-opacity="0.28235" fill="#000000" d="m6.5,-2.05l-0.25,6.05q-18.6,23.15 -26.15,55.55q-0.85,3.6 -7.35,6.7l-6.4,-0.8l27.5,-51.35l0.05,-0.1q6.3,-11.9 0.05,-12.2l0,-0.2l3.8,-7.6q4.1,-4.4 7.25,-0.75l1.5,4.7"/>
   </g>
   <g transform="matrix(1.0, 0.0, 0.0, 1.0, 0.15, 0.1)" id="svg_232">
    <use id="svg_357" href="#svg_231" xlink:href="#svg_231" width="37.95" transform="matrix(1.0, 0.0, 0.0, 1.0, -1.35, -1.3)" height="87.6"/>
   </g>
   <g transform="matrix(1.0, 0.0, 0.0, 1.0, 1.35, 1.3)" id="svg_231">
    <path id="svg_358" fill-rule="evenodd" fill="#cc6600" d="m17.7,23.05l0.05,0.2l-0.1,-0.15l0.05,-0.05m0.9,2.8l0.05,0.15l-0.15,-0.1l0.1,-0.1l0,0.05"/>
    <path id="svg_359" fill-rule="evenodd" fill-opacity="0.30196" fill="#000000" d="m12.7,24.15q-5.15,-12.1 -12.7,-23.9l13,-0.25q5.9,9.2 10,18.15q-3.9,-0.55 -5.9,3.15l0.6,1.75l0.05,0.2l0.85,2.55l0.05,0.2q7.15,22.8 8.1,46.5l0,8.7l-3.25,-4.45q0.1,-23.75 -8.4,-46.65l-2.2,-5.45l-0.15,-0.4l-0.05,-0.1"/>
    <path id="svg_360" stroke-width="0.2" stroke-opacity="0.4" stroke-miterlimit="3" stroke-linejoin="miter-clip" stroke="#000000" fill="none" d="m12.9,24.65l-0.2,-0.5q-5.15,-12.1 -12.7,-23.9l13,-0.25q5.9,9.2 10,18.15q8.2,17.85 9.15,34.65l1.45,12.7q0.5,4.2 1.7,6.9l-1,4.1q-2.75,8.45 -4.55,8.5m-3,-12.5l0,8.7l1.2,3.8m-4.45,-8.25q0.1,-23.75 -8.4,-46.65l-2.2,-5.45l10.6,52.1z"/>
   </g>
   <g id="svg_230">
    <use id="svg_361" href="#svg_229" xlink:href="#svg_229" width="31.85" height="34.4"/>
   </g>
   <g id="svg_229">
    <path id="svg_362" fill-rule="evenodd" fill="#fd8002" d="m30.05,14.85l-12.45,2.2l-7.85,4.85l1.6,-5.6l6.25,-6l8.6,-2.55l3.85,7.1m-29.95,-4.5l11.15,-10.35q6,0.5 11.4,4l-8.4,2.4l-6.15,5.4l-3.15,7.85l-4.95,-9.25l0.1,-0.05m11.25,17.25l5.8,-2.3l14.7,0l-9.4,5.45l-0.15,-0.15l-3.25,3.8l-7.7,-6.8"/>
   </g>
   <g id="svg_228">
    <use id="svg_363" href="#svg_227" xlink:href="#svg_227" width="33.3" height="41.5"/>
   </g>
   <g id="svg_227">
    <path id="svg_364" fill-rule="evenodd" fill="#989701" d="m19.8,1.5l1.45,2.25l-8.6,2.55l-6.25,6l-1.6,5.6l7.85,-4.85l12.45,-2.2q5.9,12.05 8.2,26l0,0.15l-5,4.5l-5,-3l-9.2,-8.1l3.25,-3.8l0.15,0.15l9.4,-5.45l-14.7,0l-5.8,2.3l-4.1,-3.6l-2.3,-4.35l3.15,-7.85l6.15,-5.4l8.4,-2.4l2.1,1.5"/>
   </g>
   <g transform="matrix(1.0, 0.0, 0.0, 1.0, 10.5, 10.0)" id="svg_226">
    <path id="svg_365" stroke-width="0.2" stroke-opacity="0.4" stroke-miterlimit="3" stroke-linejoin="miter-clip" stroke="#000000" fill="none" d="m1.25,-9.5q6,0.5 11.4,4l2.1,1.5l1.45,2.25l3.85,7.1q5.9,12.05 8.2,26l0,0.15l-5,4.5m-5,-3l-21,-18.5l-7.25,-13.6"/>
    <path id="svg_366" fill-rule="evenodd" fill-opacity="0.33333" fill="#000000" d="m18.25,33l-21,-18.5l-7.25,-13.6l0.1,-0.05l5.6,-5.15q1.15,3.3 2.65,6.4l2.8,5.35l1.8,2.8q1.95,2.9 4.2,5.55q2.4,2.8 5.15,5.3l0.15,0.15q6.85,6.1 15.8,10.1l0,0.15l-5,4.5l-5,-3"/>
   </g>
   <g id="svg_225">
    <use id="svg_367" href="#svg_224" xlink:href="#svg_224" width="22.45" height="94"/>
   </g>
   <g id="svg_224">
    <path id="svg_368" fill-rule="evenodd" fill="#fd8002" d="m12.35,94l-12.35,-13.5q18.75,-22.4 1.4,-78.05q-1.1,-6.5 5,4.2q28.75,50.55 5.95,87.35"/>
   </g>
   <g transform="matrix(1.0, 0.0, 0.0, 1.0, 8.3, 81.8)" id="svg_223">
    <path id="svg_369" stroke-width="0.2" stroke-opacity="0.4" stroke-miterlimit="3" stroke-linejoin="miter-clip" stroke="#000000" fill="none" d="m4.35,12.5q22.8,-36.8 -5.95,-87.35q-6.1,-10.7 -5,-4.2q17.35,55.65 -1.4,78.05"/>
   </g>
   <g id="svg_222">
    <use id="svg_370" href="#svg_221" xlink:href="#svg_221" width="29.45" height="33.7"/>
   </g>
   <g id="svg_221">
    <path id="svg_371" fill-rule="evenodd" fill="#fd8002" d="m0,15.7q3.8,-1.3 7.45,-3.95q9.55,6.2 8.2,18.4l-3.2,2l-3.2,1.55q0.9,-12.05 -9.25,-18m29.45,-1.05q-2.85,5.25 -6.75,9.45q1.1,-11.8 -8.25,-17.85l-0.6,-0.35q2.35,-2.6 4.6,-5.75q11.45,-1.7 11,14.5"/>
   </g>
   <g id="svg_220">
    <use id="svg_372" href="#svg_219" xlink:href="#svg_219" width="55.9" height="31.65"/>
   </g>
   <g id="svg_219">
    <path id="svg_373" fill-rule="evenodd" fill="#999933" d="m47.55,0.35q9.35,6.05 8.25,17.85l-0.3,0.3q-3.05,3.2 -6.75,5.75q1.35,-12.2 -8.2,-18.4q3.25,-2.4 6.4,-5.85l0.6,0.35m-39.5,4.1q13.2,9.4 25.05,5.35q10.15,5.95 9.25,18q-21.6,9.55 -42.35,-4.5l8.05,-18.85"/>
   </g>
   <g transform="matrix(1.0, 0.0, 0.0, 1.0, 0.3, 0.15)" id="svg_218">
    <path id="svg_374" stroke-width="0.2" stroke-opacity="0.4" stroke-miterlimit="3" stroke-linejoin="miter-clip" stroke="#000000" fill="none" d="m51.55,0.15l-4.6,5.75q-3.15,3.45 -6.4,5.85q-3.65,2.65 -7.45,3.95q-11.85,4.05 -25.05,-5.35m-8.05,18.85q20.75,14.05 42.35,4.5l3.2,-1.55l3.2,-2q3.7,-2.55 6.75,-5.75l0.3,-0.3q3.9,-4.2 6.75,-9.45"/>
   </g>
   <g id="svg_217">
    <use id="svg_375" href="#svg_216" xlink:href="#svg_216" width="70.7" height="103.5"/>
   </g>
   <g id="svg_216">
    <path id="svg_376" fill-rule="evenodd" fill="#999933" d="m13.45,0q7.3,21.05 15.75,37.2q17.6,33.8 40.25,46.3q4,13.7 -5,20q-10.5,-4.95 -19.9,-12.8q-26.45,-22.05 -44.3,-67q-2,-22.35 13.2,-23.7"/>
   </g>
   <g transform="matrix(1.0, 0.0, 0.0, 1.0, 0.3, 0.3)" id="svg_215">
    <path id="svg_377" fill-rule="evenodd" fill-opacity="0.30196" fill="#000000" d="m29.2,37.2l-1.6,21.15q0.7,13.9 16.95,32.35q-26.45,-22.05 -44.3,-67q-2,-22.35 13.2,-23.7q7.3,21.05 15.75,37.2"/>
    <path id="svg_378" stroke-width="0.2" stroke-opacity="0.4" stroke-miterlimit="3" stroke-linejoin="miter-clip" stroke="#000000" fill="none" d="m69.45,83.5q-22.65,-12.5 -40.25,-46.3q-8.45,-16.15 -15.75,-37.2q-15.2,1.35 -13.2,23.7q17.85,44.95 44.3,67q9.4,7.85 19.9,12.8"/>
   </g>
   <g id="svg_214">
    <use id="svg_379" href="#svg_213" xlink:href="#svg_213" width="41.75" height="40.25"/>
   </g>
   <g id="svg_213">
    <path id="svg_380" fill-rule="evenodd" fill="#797800" d="m24.25,40.25l-16.5,0l-7.75,-4.25l0,-12l6,-6l11,0l16.5,-16.75l5.5,-1.25l2.75,7l-7,27.25l-10.5,6"/>
   </g>
   <g transform="matrix(1.0, 0.0, 0.0, 1.0, 33.9, 8.55)" id="svg_212">
    <path id="svg_381" fill-rule="evenodd" fill-opacity="0.32157" fill="#000000" d="m8.15,-1.2l-7,27.25l-10.5,6l-16.5,0l-7.75,-4.25l0,-12l4.25,-4.25l12.85,8.1q5.35,1.65 9.75,-2.5q8.7,-9.6 10.75,-25l1.4,-0.35l2.75,7m-12.45,4.75q-4.85,9.15 -14.3,10.55q7.95,-3.65 14.3,-10.55"/>
    <path id="svg_382" stroke-width="0.2" stroke-opacity="0.4" stroke-miterlimit="3" stroke-linejoin="miter-clip" stroke="#000000" fill="none" d="m8.15,-1.2l-7,27.25l-10.5,6l-16.5,0l-7.75,-4.25l0,-12l6,-6l11,0l16.5,-16.75l5.5,-1.25l2.75,7m-32,15.5l5.25,-0.2q9.45,-1.4 14.3,-10.55q1.2,-2.35 1.95,-4.5"/>
   </g>
   <g transform="matrix(1.0, 0.0, 0.0, 1.0, 0.1, 0.1)" id="svg_211">
    <use id="svg_383" href="#svg_210" xlink:href="#svg_210" width="24.45" transform="matrix(1.0, 0.0, 0.0, 1.0, -1.5, -1.5)" height="26.25"/>
   </g>
   <g transform="matrix(1.0, 0.0, 0.0, 1.0, 1.5, 1.5)" id="svg_210">
    <path id="svg_384" fill-rule="evenodd" fill="#7a7a28" d="m8.35,8.4l-0.05,-2.4l5.2,-2.5l3,-3.5l4.5,2.5l0.1,0.45l-6.25,4.8l-4.25,0l-0.6,-0.5l-1.65,1.15"/>
    <path id="svg_385" fill-rule="evenodd" fill="#424216" d="m21.1,2.95q1.35,7.35 -2.35,12.15l-3.75,0l0,-3.6l-4.4,-3.75l4.25,0l6.25,-4.8"/>
    <path id="svg_386" stroke-width="0.2" stroke-opacity="0.4" stroke-miterlimit="3" stroke-linejoin="miter-clip" stroke="#000000" fill="none" d="m8.35,8.4l-0.05,-2.4l5.2,-2.5l3,-3.5l4.5,2.5l0.1,0.45q1.35,7.35 -2.35,12.15l-3.75,0"/>
    <path id="svg_387" fill-rule="evenodd" fill="#424216" d="m13.1,9.9l1.9,1.6l0,7.25l-6,4.5l-6.05,0l6.65,-11.55l3.5,-1.8"/>
    <path id="svg_388" fill-rule="evenodd" fill="#7a7a28" d="m2.95,23.25l-1.2,0l-1.75,-2.5l4,-9.5l6,-4l3.1,2.65l-3.5,1.8l-6.65,11.55"/>
    <path id="svg_389" stroke-width="0.2" stroke-opacity="0.4" stroke-miterlimit="3" stroke-linejoin="miter-clip" stroke="#000000" fill="none" d="m13.1,9.9l1.9,1.6l0,7.25l-6,4.5l-6.05,0l-1.2,0l-1.75,-2.5l4,-9.5l6,-4l3.1,2.65z"/>
   </g>
   <g id="svg_209">
    <use id="svg_390" href="#svg_208" xlink:href="#svg_208" width="13.5" height="31.05"/>
   </g>
   <g id="svg_208">
    <path id="svg_391" fill-rule="evenodd" fill="#797800" d="m11.95,7q-2.8,1.2 -4.95,1.5q-3.15,0.4 -5.1,-1.15l-1.9,-6.3q2.15,1.45 5.55,0.8q2.25,-0.45 5.1,-1.85l1.3,7m-3.1,9.3l0.1,-0.05q1.8,-0.25 4,-1.1q0.5,5.5 0.55,10.9q-0.15,4.35 -4,5l-0.15,0q-3,0 -4.35,-3.25q-0.35,-6.6 -1.45,-12.95l0.3,0.25q1.9,1.5 5,1.2"/>
   </g>
   <g id="svg_207">
    <use id="svg_392" href="#svg_206" xlink:href="#svg_206" width="37" height="62.65"/>
   </g>
   <g id="svg_206">
    <path id="svg_393" fill-rule="evenodd" fill="#ca6601" d="m3,3.35q8.25,-6.05 12,-1.25l0,6.5l22,14.25l0,3l-8,10.75l0.3,1.1l2.1,8.6q-2.85,1.4 -5.1,1.85q-3.4,0.65 -5.55,-0.8q-6.4,-19.05 -20.75,-35.5l3,-8.5m30.7,58.1q-2.2,0.85 -4,1.1l-0.1,0.05q-3.1,0.3 -5,-1.2l-0.3,-0.25l-1.65,-7.5q1.95,1.55 5.1,1.15q2.15,-0.3 4.95,-1.5l1,8.15"/>
   </g>
   <g transform="matrix(1.0, 0.0, 0.0, 1.0, 0.5, 0.5)" id="svg_205">
    <path id="svg_394" fill-rule="evenodd" fill-opacity="0.31373" fill="#000000" d="m30.1,77.35q-3,0 -4.35,-3.25q-0.35,-6.6 -1.45,-12.95l-1.65,-7.5l-1.9,-6.3q-6.4,-19.05 -20.75,-35.5l3,-8.5q8.25,-6.05 12,-1.25l0,6.5l3.45,2.25q-7,3.3 2.5,10.65l10.15,5.7l5.9,-3.95l0,2.6l-8,10.75l0.3,1.1q-3.9,2.95 -3,10.45q0.3,2.95 1.45,6.65l1.1,3.4l0.75,4.4q1.2,8.55 0.5,14.75"/>
    <path id="svg_395" stroke-width="0.2" stroke-opacity="0.4" stroke-miterlimit="3" stroke-linejoin="miter-clip" stroke="#000000" fill="none" d="m25.75,74.1q-0.35,-6.6 -1.45,-12.95l-1.65,-7.5l-1.9,-6.3q-6.4,-19.05 -20.75,-35.5l3,-8.5q8.25,-6.05 12,-1.25l0,6.5l22,14.25l0,3l-8,10.75l0.3,1.1l2.1,8.6l1.3,7l1,8.15q0.5,5.5 0.55,10.9"/>
   </g>
   <g id="svg_204">
    <use id="svg_396" href="#svg_203" xlink:href="#svg_203" width="81.8" height="72.5"/>
   </g>
   <g id="svg_203">
    <path id="svg_397" fill-rule="evenodd" fill="#ca6601" d="m62.95,6q4.75,-3.15 9.55,-6q13.45,2.75 7.5,19q-35.2,15.8 -66.45,43.15l-3.05,6.85l-2.85,-0.05l-0.55,1.45l-2.6,2.1l-4.5,-4.25l4,-8.5q27.4,-32.9 58.95,-53.75"/>
   </g>
   <g transform="matrix(1.0, 0.0, 0.0, 1.0, 70.3, 10.3)" id="svg_202">
    <path id="svg_398" fill-rule="evenodd" fill-opacity="0.30196" fill="#000000" d="m-7.05,-4l9.55,-6q13.45,2.75 7.5,19q-35.2,15.8 -66.45,43.15l-3.05,6.85l-2.85,-0.05l3.6,-10q23.65,-26.8 45,-39.55q11.9,-10.25 6.7,-13.4"/>
    <path id="svg_399" stroke-width="0.2" stroke-opacity="0.4" stroke-miterlimit="3" stroke-linejoin="miter-clip" stroke="#000000" fill="none" d="m-59.5,59l3.05,-6.85q31.25,-27.35 66.45,-43.15q5.95,-16.25 -7.5,-19l-9.55,6q-31.55,20.85 -58.95,53.75l-4,8.5l4.5,4.25l2.6,-2.1l4.15,-11.45"/>
   </g>
   <g transform="matrix(1.0, 0.0, 0.0, 1.0, 0.1, 0.1)" id="svg_201">
    <use id="svg_400" href="#svg_200" xlink:href="#svg_200" width="62.7" transform="matrix(1.0, 0.0, 0.0, 1.0, -1.3, -1.3)" height="66.15"/>
   </g>
   <g transform="matrix(1.0, 0.0, 0.0, 1.0, 1.3, 1.3)" id="svg_200">
    <path id="svg_401" fill-rule="evenodd" fill-opacity="0.31373" fill="#000000" d="m59.75,1.65l0.35,0.75l-15.35,16.9l-8.5,14.25l-2,8l3,5.25l-2,7l3.25,5.75l0,4l-38.5,-4.75l7.8,-9.55l12.55,0.05l11.6,-20.95l15.05,-15.4l12.75,-11.3"/>
    <path id="svg_402" stroke-width="0.2" stroke-opacity="0.4" stroke-miterlimit="3" stroke-linejoin="miter-clip" stroke="#000000" fill="none" d="m38.5,63.55l0,-4l-3.25,-5.75l2,-7l-3,-5.25l2,-8l8.5,-14.25l15.35,-16.9l-1.2,-2.4l-17.15,12.3l-26.5,27.75l-15.25,18.75"/>
   </g>
   <g id="svg_199">
    <use id="svg_403" href="#svg_198" xlink:href="#svg_198" width="56.75" height="53"/>
   </g>
   <g id="svg_198">
    <path id="svg_404" fill-rule="evenodd" fill="#989701" d="m56.55,1.4l0.2,0.6l-14.8,14.1l-8.75,11.85l-2.6,6.7l1.85,4.35l-2.45,5.85l2,4.8l-0.45,3.35l-31.55,-4l14.9,-15.6l25.4,-23.15l15.75,-10.25l0.45,1.3l0.05,0.1"/>
   </g>
   <g id="svg_197">
    <use id="svg_405" href="#svg_196" xlink:href="#svg_196" width="44.25" height="44"/>
   </g>
   <g id="svg_196">
    <path id="svg_406" fill-rule="evenodd" fill="#fd8002" d="m35.75,33.25l-18,10.75l-10,-3.5l-7.75,-14.25l2,-15.75l21.5,-10.5l15,3.25l5.75,8.75l-8.5,21.25"/>
   </g>
   <g transform="matrix(1.0, 0.0, 0.0, 1.0, 0.1, 0.1)" id="svg_195">
    <use id="svg_407" href="#svg_194" xlink:href="#svg_194" width="46.45" transform="matrix(1.0, 0.0, 0.0, 1.0, -1.1, -1.1)" height="46.2"/>
   </g>
   <g transform="matrix(1.0, 0.0, 0.0, 1.0, 1.1, 1.1)" id="svg_194">
    <path id="svg_408" stroke-width="0.2" stroke-opacity="0.4" stroke-miterlimit="3" stroke-linejoin="miter-clip" stroke="#000000" fill="none" d="m23.5,0l-21.5,10.5l-2,15.75l7.75,14.25l10,3.5l18,-10.75l8.5,-21.25l-5.75,-8.75l-15,-3.25z"/>
    <path id="svg_409" fill-rule="evenodd" fill-opacity="0.4902" fill="#000000" d="m1,18.35l1,-7.85l21.5,-10.5l15,3.25l5.75,8.75l-8.5,21.25l-18,10.75l-2.35,-0.8q7.75,-8.5 -1.8,-17.85l-12.6,-7"/>
    <path id="svg_410" fill-rule="evenodd" fill-opacity="0.25098" fill="#000000" d="m1,18.35l12.6,7q9.55,9.35 1.8,17.85l-7.65,-2.7l-7.75,-14.25l1,-7.9"/>
   </g>
   <g id="svg_193">
    <use id="svg_411" href="#svg_192" xlink:href="#svg_192" width="63.5" height="58"/>
   </g>
   <g id="svg_192">
    <path id="svg_412" fill-rule="evenodd" fill="#fd8002" d="m50,2q7.1,6.4 11,17.25q1.5,4.15 2.5,9l0,21.25q-2.1,5.4 -10.75,8.5l-18.75,0l-13.25,-6.25l-3,-12.75l-17.75,-12.5l6.45,-17.05l26.55,-9.45l17,2"/>
   </g>
   <g transform="matrix(1.0, 0.0, 0.0, 1.0, 0.1, 0.1)" id="svg_191">
    <use id="svg_413" href="#svg_190" xlink:href="#svg_190" width="65.7" transform="matrix(1.0, 0.0, 0.0, 1.0, -1.1, -1.1)" height="60.2"/>
   </g>
   <g transform="matrix(1.0, 0.0, 0.0, 1.0, 1.1, 1.1)" id="svg_190">
    <path id="svg_414" stroke-width="0.2" stroke-opacity="0.4" stroke-miterlimit="3" stroke-linejoin="miter-clip" stroke="#000000" fill="none" d="m52.75,58q8.65,-3.1 10.75,-8.5l0,-21.25q-1,-4.85 -2.5,-9q-3.9,-10.85 -11,-17.25l-17,-2l-26.55,9.45l-6.45,17.05l17.75,12.5l3,12.75"/>
    <path id="svg_415" fill-rule="evenodd" fill-opacity="0.51373" fill="#000000" d="m61,19.25l-9.85,10.55l1.6,28.2l-18.75,0l-13.25,-6.25l-3,-12.75l-17.75,-12.5l6.45,-17.05l26.55,-9.45l17,2q7.1,6.4 11,17.25"/>
    <path id="svg_416" fill-rule="evenodd" fill-opacity="0.26275" fill="#000000" d="m52.75,58l-1.6,-28.2l9.85,-10.55q1.5,4.15 2.5,9l0,21.25q-2.1,5.4 -10.75,8.5"/>
   </g>
   <g id="svg_189">
    <use id="svg_417" href="#svg_188" xlink:href="#svg_188" width="96.05" height="68.75"/>
   </g>
   <g id="svg_188">
    <path id="svg_418" fill-rule="evenodd" fill="#fd8002" d="m3.1,30.75q-1.8,-2.55 -3.1,-5l14.2,4.05l-11.1,0.95m57.95,-27.7l0,6.75l-5.15,5.8l-4.7,6.7l-14,7.25l11.25,-11l4.25,-8.25l2,-8.25l-0.85,-2.05q3.65,1.4 7.2,3.05m32.5,27.7l2.5,20.5l-17,17.5l-19.45,0l-10.5,-5.4l-6,2.4l-17,-5.5l-7.95,-10.2l9.05,-3l-13.95,-3.3l-4.6,-5.85l9.3,2.65l8.4,-0.5l14.1,17.5l-6.45,-18l7.7,-0.5l16.75,-12l-7,14.5l-13,4.5l17.5,0l16.75,-11l5.5,-9.25l0.85,-9.3q7.75,6.85 14.5,14.25"/>
   </g>
   <g transform="matrix(1.0, 0.0, 0.0, 1.0, 0.5, 0.55)" id="svg_187">
    <path id="svg_419" fill-rule="evenodd" fill-opacity="0.34118" fill="#000000" d="m44.6,10.8l11.95,-9.4l0.2,0.6l-14.8,14.1l-8.75,11.85l-2.6,6.7l1.85,4.35l-2.45,5.85l2,4.8l-0.45,3.35l-31.55,-4l7.65,-7.95l10.45,0.05l12.15,-17.45l14.35,-12.85"/>
    <path id="svg_420" stroke-width="0.2" stroke-opacity="0.4" stroke-miterlimit="3" stroke-linejoin="miter-clip" stroke="#000000" fill="none" d="m31.55,53l0.45,-3.35l-2,-4.8l2.45,-5.85l-1.85,-4.35l2.6,-6.7l8.75,-11.85l14.8,-14.1l-0.7,-2l-15.75,10.25l-25.4,23.15l-14.9,15.6"/>
   </g>
   <g id="svg_186">
    <use id="svg_421" href="#svg_185" xlink:href="#svg_185" width="82.75" height="63.8"/>
   </g>
   <g id="svg_185">
    <path id="svg_422" fill-rule="evenodd" fill="#989701" d="m21.85,56.3l-4.9,-6.3l13.95,3.3l-9.05,3m60.9,-33.55l-0.85,9.3l-5.5,9.25l-16.75,11l-17.5,0l13,-4.5l7,-14.5l-16.75,12l-7.7,0.5l6.45,18l-14.1,-17.5l-8.4,0.5l-9.3,-2.65l-5.55,-7.15l11.1,-0.95l-14.2,-4.05q-6.7,-12.2 -1.3,-20.7q1.75,-2.85 4.9,-5.3l29,-6q11.15,2.35 21.25,6.25l0.85,2.05l-2,8.25l-4.25,8.25l-11.25,11l14,-7.25l4.7,-6.7l5.15,-5.8l0,-6.75l3.55,1.7q7.6,5.65 14.45,11.75"/>
   </g>
   <g transform="matrix(1.0, 0.0, 0.0, 1.0, 0.3, 0.3)" id="svg_184">
    <path id="svg_423" stroke-width="0.2" stroke-opacity="0.4" stroke-miterlimit="3" stroke-linejoin="miter-clip" stroke="#000000" fill="none" d="m46.8,66.5l6,3.1"/>
    <path id="svg_424" stroke-width="0.2" stroke-opacity="0.4" stroke-miterlimit="3" stroke-linejoin="miter-clip" stroke-linecap="round" stroke="#000000" fill="none" d="m52.8,69.6l10.5,5.4l19.45,0l17,-17.5l-2.5,-20.5q-6.75,-7.4 -14.5,-14.25q-6.85,-6.1 -14.45,-11.75l-3.55,-1.7l-7.2,-3.05q-10.1,-3.9 -21.25,-6.25l-29,6q-3.15,2.45 -4.9,5.3q-5.4,8.5 1.3,20.7l3.1,5l23,29.5l17,5.5l6,-2.4"/>
    <path id="svg_425" fill-rule="evenodd" fill-opacity="0.30196" fill="#000000" d="m16.65,8l19.25,-4.5q11.45,2.5 22,6.85q3.5,1.45 6.85,3.1l1.15,0.55q7.5,6.6 9,11.25l-1.5,-6.25l9.05,7.2q8.2,6.95 15.25,14.55l2.05,16.75l-7.65,7.9l-4.45,-18.65l-33.25,-29.5l-17.25,-8.25l-20.5,-1"/>
    <path id="svg_426" fill-rule="evenodd" fill-opacity="0.4902" fill="#000000" d="m92.1,65.4l-9.35,9.6l-19.45,0l-10.5,-5.4l-6,2.4l-17,-5.5l-23,-29.5l-3.1,-5q-6.7,-12.2 -1.3,-20.7l14.25,-3.3l20.5,1l17.25,8.25l33.25,29.5l4.45,18.65"/>
   </g>
   <g id="svg_183">
    <use id="svg_427" href="#svg_182" xlink:href="#svg_182" width="11.05" height="7.05"/>
   </g>
   <g id="svg_182">
    <path id="svg_428" fill-rule="evenodd" fill="#fd8002" d="m5.9,2.95l-0.05,-0.15l0,-0.05l-0.1,0.1l-3.4,4.2l-2.35,-5.85l4.6,-0.95l0.3,-0.2l0.1,0.15l-0.05,-0.2l6.1,0l-5.1,2.95l-0.05,0"/>
   </g>
   <g id="svg_181">
    <use id="svg_429" href="#svg_180" xlink:href="#svg_180" width="43.55" height="59"/>
   </g>
   <g id="svg_180">
    <path id="svg_430" fill-rule="evenodd" fill="#989701" d="m0,35.8l15.8,-35.8l7.75,0.6l20,37.45l0,12.3l-3.85,5.8q-18.4,5.7 -35.55,0l-4.15,-8.4l0,-11.95"/>
   </g>
   <g transform="matrix(1.0, 0.0, 0.0, 1.0, 20.4, 4.8)" id="svg_179">
    <path id="svg_431" stroke-width="0.2" stroke-opacity="0.4" stroke-miterlimit="3" stroke-linejoin="miter-clip" stroke="#000000" fill="none" d="m-4.3,-4.5l-15.8,35.8l0,11.95l4.15,8.4q17.15,5.7 35.55,0l3.85,-5.8l0,-12.3l-20,-37.45l-7.75,-0.6m6.8,19.35q0.3,12.9 10,18.05m-23.9,0.35q10,-1.55 9.35,-18.4"/>
    <path id="svg_432" fill-rule="evenodd" fill-opacity="0.30196" fill="#000000" d="m12.5,32.9q-9.7,-5.15 -10,-18.05q4.5,10.95 10,18.05m-16.8,-37.4l7.75,0.6l4.2,7.85q-11.05,1.35 -9.7,10.9q0.65,16.85 -9.35,18.4q-9.35,4.45 10.8,8.85q14.75,0.55 24.05,-6.45l0,10.2l-3.85,5.8q-18.4,5.7 -35.55,0l-4.15,-8.4l0,-11.95l15.8,-35.8"/>
   </g>
   <g transform="matrix(1.0, 0.0, 0.0, 1.0, 0.1, -1.9)" id="svg_178">
    <use id="svg_433" href="#svg_177" xlink:href="#svg_177" width="14.55" transform="matrix(1.0, 0.0, 0.0, 1.0, -0.9, 1.1)" height="23.2"/>
   </g>
   <g transform="matrix(1.0, 0.0, 0.0, 1.0, 0.9, -1.1)" id="svg_177">
    <path id="svg_434" fill-rule="evenodd" fill="#999933" d="m3.7,3.35l0.9,-1.35l3.15,0l3.75,5.75l0,2.75l-1.25,1.8l2.5,2.2l0,3.5q-1.95,4 -5.55,5.15l-4.55,-8.35l1.05,-3.15l0.85,-0.55l0.1,-0.05l-0.95,-7.7m6.55,8.95l-4,-2.3l-1.6,1.05l1.6,-1.05l4,2.3"/>
    <path id="svg_435" fill-rule="evenodd" fill="#53531c" d="m7.2,23.15l-0.95,0.25q-4.3,-0.95 -6.25,-5.05l0,-3.6l2.45,-2.3l-1.45,-1.7l0,-3.5l2.7,-3.9l0.95,7.7l-0.1,0.05l-0.85,0.55l-1.05,3.15l4.55,8.35m-4.75,-10.7l1.25,-0.8l-1.25,0.8"/>
    <path id="svg_436" stroke-width="0.2" stroke-opacity="0.4" stroke-miterlimit="3" stroke-linejoin="miter-clip" stroke="#000000" fill="none" d="m3.7,3.35l0.9,-1.35l3.15,0l3.75,5.75l0,2.75l-1.25,1.8l2.5,2.2l0,3.5q-1.95,4 -5.55,5.15l-0.95,0.25q-4.3,-0.95 -6.25,-5.05l0,-3.6l2.45,-2.3l-1.45,-1.7l0,-3.5l2.7,-3.9m0.95,7.7l1.6,-1.05l4,2.3m-5.7,-1.2l-0.85,0.55l-1.25,0.8"/>
   </g>
   <g id="svg_176">
    <use id="svg_437" href="#svg_175" xlink:href="#svg_175" width="28.3" height="100.5"/>
   </g>
   <g id="svg_175">
    <path id="svg_438" fill-rule="evenodd" fill="#fd8002" d="m28.3,12.65l0,18.85q-4.55,42.05 -17.05,65l-6,4l-4.5,-3.5l0.3,-1.95l-1.05,-1.5l2.45,-7.55l1.8,-11.5q1.95,-22.95 -2.2,-38.35l-1.3,-4.15q3.2,-8 10,-10.4l0,-10.05l3,-11.55q9,4.6 14.55,12.65"/>
   </g>
   <g transform="matrix(1.0, 0.0, 0.0, 1.0, 0.3, 0.3)" id="svg_174">
    <path id="svg_439" stroke-width="0.2" stroke-opacity="0.4" stroke-miterlimit="3" stroke-linejoin="miter-clip" stroke="#000000" fill="none" d="m13.75,0q9,4.6 14.55,12.65l0,18.85q-4.55,42.05 -17.05,65"/>
    <path id="svg_440" stroke-width="0.2" stroke-opacity="0.4" stroke-miterlimit="3" stroke-linejoin="miter-clip" stroke="#000000" fill="none" d="m0.75,97l0.3,-1.95l6.7,0.95l4.5,-7"/>
    <path id="svg_441" stroke-width="0.2" stroke-opacity="0.4" stroke-miterlimit="3" stroke-linejoin="miter-clip" stroke-linecap="round" stroke="#000000" fill="none" d="m1.05,95.05l-1.05,-1.5l2.45,-7.55l1.8,-11.5q1.95,-22.95 -2.2,-38.35l-1.3,-4.15q3.2,-8 10,-10.4"/>
    <path id="svg_442" fill-rule="evenodd" fill-opacity="0.30196" fill="#000000" d="m28.3,12.65l0,18.85q-4.55,42.05 -17.05,65l-6,4l-4.5,-3.5l0.3,-1.95l6.7,0.95l4.5,-7q9.9,-23.95 10.2,-52.7q-10.15,-15.2 -20.4,-0.15l-1.3,-4.15q3.2,-8 10,-10.4l0,-10.05l3,-11.55q9,4.6 14.55,12.65"/>
   </g>
   <g id="svg_173">
    <use id="svg_443" href="#svg_172" xlink:href="#svg_172" width="48.25" height="70"/>
   </g>
   <g id="svg_172">
    <path id="svg_444" fill-rule="evenodd" fill="#989701" d="m48.25,42l-7,7.25l-10,18.75l-14,2l-16.25,-16.25l0.2,-2.35q1.3,-20.05 -1.2,-42.65l3.4,-4.4l19.6,-4.35l23.75,25.5l1.5,16.5"/>
   </g>
   <g transform="matrix(1.0, 0.0, 0.0, 1.0, 7.1, 7.1)" id="svg_171">
    <use id="svg_445" href="#svg_170" xlink:href="#svg_170" width="49.45" transform="matrix(1.0, 0.0, 0.0, 1.0, -7.5, -7.5)" height="71"/>
   </g>
   <g transform="matrix(1.0, 0.0, 0.0, 1.0, 7.5, 7.5)" id="svg_170">
    <path id="svg_446" fill-rule="evenodd" fill-opacity="0.30196" fill="#000000" d="m5.3,-4.6l10.7,-2.4l23.75,25.5l1.5,16.5l-7,7.25l-10,18.75l-14,2l-16.25,-16.25l0.2,-2.35q8.7,10.25 17.4,11.7q-1.8,-6.2 0,-10.2q2.55,8.95 8.85,10.55q5.9,-1.75 7.4,-14.85q-2.8,-28.05 -22.55,-46.2"/>
    <path id="svg_447" stroke-width="0.2" stroke-opacity="0.4" stroke-miterlimit="3" stroke-linejoin="miter-clip" stroke="#000000" fill="none" d="m-3.6,-2.65l-3.4,4.4q2.5,22.6 1.2,42.65l-0.2,2.35l16.25,16.25l14,-2l10,-18.75l7,-7.25l-1.5,-16.5l-23.75,-25.5"/>
   </g>
   <g transform="matrix(1.0, 0.0, 0.0, 1.0, 17.65, 42.5)" id="svg_169">
    <use id="svg_448" href="#svg_168" xlink:href="#svg_168" width="35.3" transform="matrix(1.0, 0.0, 0.0, 1.0, -17.65, -42.5)" height="85"/>
   </g>
   <g transform="matrix(1.0, 0.0, 0.0, 1.0, 17.65, 42.5)" id="svg_168">
    <path id="svg_449" fill-rule="evenodd" fill="#989701" d="m1.05,-16.5l5.1,-2.95l-6.1,0l-0.05,0.05l-0.3,0.2l-4.6,0.95l-0.05,-0.1q-5.15,-12.1 -12.7,-23.9l13,-0.25q5.9,9.2 10,18.15q8.2,17.85 9.15,34.65l1.45,12.7q0.5,4.2 1.7,6.9l-1,4.1q-2.75,8.45 -4.55,8.5l-1.8,0l-1.2,-3.8l-3.25,-4.45q0.1,-23.75 -8.4,-46.65l3.4,-4.2l0.15,0.1l0.05,0"/>
   </g>
   <g id="svg_167">
    <use id="svg_450" href="#svg_166" xlink:href="#svg_166" width="56" height="51.25"/>
   </g>
   <g id="svg_166">
    <path id="svg_451" fill-rule="evenodd" fill="#fd8002" d="m46.25,17l-4.9,-10.85l-12.6,-6.15l18.75,0.5l8.5,17.75l0,7q-11.5,9.65 -18,24.5l-6.75,1.5l-25.25,-8.75q-1.7,-1.5 -2.95,-3.5q-2.2,-3.55 -3.05,-8.75q1.75,-4.2 3.9,-8.15q-0.85,3.3 -0.55,7.3l-0.4,1.1q-0.05,2.75 2.3,3.5l21.25,7.25l5.25,1q3.5,-4.15 6.5,-9l2.1,-3.55q3.25,-5.9 5.9,-12.7m-39.55,4.45l-0.9,-2.7q2.7,-4.5 5.95,-8.75l2.2,-1.25q-4.2,6.2 -7.25,12.7"/>
   </g>
   <g id="svg_165">
    <use id="svg_452" href="#svg_164" xlink:href="#svg_164" width="35.05" height="66.35"/>
   </g>
   <g id="svg_164">
    <path id="svg_453" fill-rule="evenodd" fill="#989701" d="m15.25,0l2.4,0l-1.3,11.6l2.4,14.85l1.9,0.65l2.6,6.85l2.2,1.65l2.05,-1l7.55,5.55l-3.25,18.7l-12.65,7.5l-3.35,-3.2l-5.9,-0.45l-3.65,-8.35l0.35,-2.7l-4.85,-4.4l-1.75,-12.45l3.35,-6.15l2.9,-13.8l9,-14.85"/>
   </g>
   <g transform="matrix(1.0, 0.0, 0.0, 1.0, 0.3, 0.3)" id="svg_163">
    <path id="svg_454" fill-rule="evenodd" fill="#3c0000" d="m13.95,8.75l14.8,-8.75l12.6,6.15l4.9,10.85q-2.65,6.8 -5.9,12.7l-5.1,3.55l-2.25,0l-1.85,2.1q-4.6,-4.4 -6.4,-11.6q-2.25,4.05 -2.25,9.45l-5.3,-1.7l-3.1,-2.65l-3.4,-0.65q-2.5,-2.9 -4,-6.75q3.05,-6.5 7.25,-12.7"/>
    <path id="svg_455" fill-rule="evenodd" fill="#b3b366" d="m3.9,22.1q0.55,-2.25 1.65,-4.2l0.25,0.85l0.9,2.7q1.5,3.85 4,6.75l2.85,2.7q0.45,2.35 -2,3.75q-4.05,0.65 -8,-3.25l-0.2,-2q-0.3,-4 0.55,-7.3m18.6,11.1q0,-5.4 2.25,-9.45q1.8,7.2 6.4,11.6l1.6,1.4q0.45,2.35 -2,3.75q-4.05,0.65 -8,-3.25q-0.3,-2.1 -0.25,-4.05"/>
    <path id="svg_456" fill-rule="evenodd" fill="#660000" d="m10.7,28.2l3.4,0.65l3.1,2.65l5.3,1.7q-0.05,1.95 0.25,4.05q3.95,3.9 8,3.25q2.45,-1.4 2,-3.75l-1.6,-1.4l1.85,-2.1l2.25,0l5.1,-3.55l-2.1,3.55q-3,4.85 -6.5,9l-5.25,-1l-21.25,-7.25q-2.35,-0.75 -2.3,-3.5l0.4,-1.1l0.2,2q3.95,3.9 8,3.25q2.45,-1.4 2,-3.75l-2.85,-2.7"/>
    <path id="svg_457" stroke-width="0.2" stroke-opacity="0.4" stroke-miterlimit="3" stroke-linejoin="miter-clip" stroke-linecap="round" stroke="#000000" fill="none" d="m28.75,0l18.75,0.5l8.5,17.75l0,7q-11.5,9.65 -18,24.5l-6.75,1.5l-25.25,-8.75q-1.7,-1.5 -2.95,-3.5q-2.2,-3.55 -3.05,-8.75q1.75,-4.2 3.9,-8.15q0.55,-2.25 1.65,-4.2l0.25,0.85q2.7,-4.5 5.95,-8.75l2.2,-1.25l14.8,-8.75l12.6,6.15l4.9,10.85q-2.65,6.8 -5.9,12.7l-2.1,3.55q-3,4.85 -6.5,9l-5.25,-1l-21.25,-7.25q-2.35,-0.75 -2.3,-3.5l0.4,-1.1q-0.3,-4 0.55,-7.3m2.8,-0.65l-0.9,-2.7m8.15,-10q-4.2,6.2 -7.25,12.7q1.5,3.85 4,6.75l3.4,0.65l3.1,2.65l5.3,1.7q0,-5.4 2.25,-9.45q1.8,7.2 6.4,11.6l1.85,-2.1l2.25,0l5.1,-3.55m-37,-0.3l0.2,2q3.95,3.9 8,3.25q2.45,-1.4 2,-3.75l-2.85,-2.7m11.8,5q-0.05,1.95 0.25,4.05q3.95,3.9 8,3.25q2.45,-1.4 2,-3.75l-1.6,-1.4"/>
    <path id="svg_458" stroke-width="0.2" stroke-opacity="0.4" stroke-miterlimit="3" stroke-linejoin="miter-clip" stroke-linecap="round" stroke="#000000" fill="none" d="m41.35,6.15l0.85,0.4"/>
    <path id="svg_459" fill-rule="evenodd" fill-opacity="0.73333" fill="#000000" d="m53.9,13.8q-2.55,3.65 -8.8,0.65l-3.75,-8.3l-12.6,-6.15l18.75,0.5l6.4,13.3"/>
    <path id="svg_460" fill-rule="evenodd" fill-opacity="0.50196" fill="#000000" d="m45.1,14.45q6.25,3 8.8,-0.65l2.1,4.45l0,7q-11.5,9.65 -18,24.5l-6.75,1.5l-25.25,-8.75q-1.7,-1.5 -2.95,-3.5q29,11.7 26.05,2.75l2.65,0.5q3.5,-4.15 6.5,-9l2.1,-3.55q3.25,-5.9 5.9,-12.7l-1.15,-2.55"/>
    <path id="svg_461" fill-rule="evenodd" fill-opacity="0.25098" fill="#000000" d="m29.1,41.75q2.95,8.95 -26.05,-2.75q-2.2,-3.55 -3.05,-8.75q1.75,-4.2 3.9,-8.15q-0.85,3.3 -0.55,7.3l-0.4,1.1q-0.05,2.75 2.3,3.5l21.25,7.25l2.6,0.5m-22.4,-20.3l-0.9,-2.7q2.7,-4.5 5.95,-8.75l2.2,-1.25q-4.2,6.2 -7.25,12.7"/>
   </g>
   <g transform="matrix(1.0, 0.0, 0.0, 1.0, -2.15, -23.55)" id="svg_162">
    <path id="svg_462" fill-rule="evenodd" fill-opacity="0.26275" fill="#ffcc00" d="m42.85,57.8l2.2,1.65l-3.75,1.8l-7.7,11.6l-1.5,10.95l3.3,3.2l-5.9,-0.45l-3.65,-8.35l0.35,-2.7l1.15,-9.35l6.45,-8.8l6.85,-1.25l2.2,1.7"/>
    <path id="svg_463" fill-rule="evenodd" fill-opacity="0.37255" fill="#ffcc00" d="m22.95,52.5l1.6,-2.85l8.8,-1.1l5,1.75l1.9,0.65l2.6,6.85l-2.2,-1.7l-6.85,1.25l-6.45,8.8l-1.15,9.35l-4.85,-4.4l-1.75,-12.45l3.35,-6.15"/>
    <path id="svg_464" fill-rule="evenodd" fill-opacity="0.46275" fill="#ffcc00" d="m22.95,52.5l2.9,-13.8l9,-14.85l2.4,0l-1.3,11.6l2.4,14.85l-5,-1.75l-8.8,1.1l-1.6,2.85"/>
    <path id="svg_465" fill-rule="evenodd" fill-opacity="0.34118" fill="#000000" d="m28.75,33.95l0.2,15.15l-4.4,0.55l4.7,13.95l-1.9,2.55l7.6,4.7l-1.35,2l-0.35,2.65l18.95,2.8l-0.8,4.4l-12.65,7.5l-3.35,-3.2l-5.9,-0.45l-3.65,-8.35l0.35,-2.7l-4.85,-4.4l-1.75,-12.45l3.35,-6.15l2.9,-13.8l2.9,-4.75"/>
    <path id="svg_466" stroke-width="0.2" stroke-opacity="0.4" stroke-miterlimit="3" stroke-linejoin="miter-clip" stroke="#000000" fill="none" d="m37.25,23.85l-2.4,0l-9,14.85l-2.9,13.8m4.4,13.65l-1.15,9.35"/>
    <path id="svg_467" stroke-width="0.2" stroke-opacity="0.4" stroke-miterlimit="3" stroke-linejoin="miter-clip" stroke-linecap="round" stroke="#000000" fill="none" d="m22.95,52.5l1.6,-2.85l8.8,-1.1l5,1.75l1.9,0.65l2.6,6.85l2.2,1.65l2.05,-1l7.55,5.55l-3.25,18.7l-12.65,7.5l-3.35,-3.2l-3.3,-3.2l1.5,-10.95l7.7,-11.6l3.75,-1.8m-18.85,16.05l-0.35,2.7l3.65,8.35l5.9,0.45m-9.2,-11.5l-4.85,-4.4l-1.75,-12.45l3.35,-6.15"/>
    <path id="svg_468" stroke-width="0.2" stroke-opacity="0.4" stroke-miterlimit="3" stroke-linejoin="miter-clip" stroke-linecap="round" stroke="#000000" fill="none" d="m38.35,50.3l-2.4,-14.85l1.3,-11.6m5.6,33.95l-2.2,-1.7l-6.85,1.25l-6.45,8.8"/>
    <path id="svg_469" fill-rule="evenodd" fill="#cccc99" d="m2.55,149l6.95,2.6q-2,7.6 -2.65,14.55q-3.75,-3.05 -4.3,-17.15"/>
    <path id="svg_470" fill-rule="evenodd" fill="#b3b366" d="m2.55,149q-0.15,-3.65 -0.05,-8.05l10.35,0.15q-2,5.4 -3.35,10.5l-6.95,-2.6"/>
    <path id="svg_471" stroke-width="0.2" stroke-opacity="0.4" stroke-miterlimit="3" stroke-linejoin="miter-clip" stroke="#000000" fill="none" d="m9.5,151.6q1.35,-5.1 3.35,-10.5l-10.35,-0.15q-0.1,4.4 0.05,8.05q0.55,14.1 4.3,17.15q0.65,-6.95 2.65,-14.55z"/>
    <path id="svg_472" fill-rule="evenodd" fill="#cccc99" d="m40.55,163q-4.65,13.5 -9.65,15.45q1.75,-8.85 1.25,-19.4l8.4,3.95"/>
    <path id="svg_473" fill-rule="evenodd" fill="#b3b366" d="m32.15,159.05l-0.5,-6.35l11.25,2.5l-2.35,7.8l-8.4,-3.95"/>
    <path id="svg_474" stroke-width="0.2" stroke-opacity="0.4" stroke-miterlimit="3" stroke-linejoin="miter-clip" stroke="#000000" fill="none" d="m32.15,159.05l-0.5,-6.35l11.25,2.5l-2.35,7.8q-4.65,13.5 -9.65,15.45q1.75,-8.85 1.25,-19.4z"/>
    <path id="svg_475" fill-rule="evenodd" fill="#000000" d="m32.9,133.95l-3,-5.75q3.95,2.4 3,5.75m-9,-7l-4,3.5q-0.15,-2.4 4,-3.5"/>
    <path id="svg_476" stroke-width="0.2" stroke-opacity="0.4" stroke-miterlimit="3" stroke-linejoin="miter-clip" stroke="#000000" fill="none" d="m32.9,133.95l-3,-5.75q3.95,2.4 3,5.75m-9,-7q-4.15,1.1 -4,3.5l4,-3.5"/>
   </g>
   <g id="svg_161">
    <use id="svg_477" href="#svg_160" xlink:href="#svg_160" width="87.35" height="81.8"/>
   </g>
   <g id="svg_160">
    <path id="svg_478" fill-rule="evenodd" fill="#989701" d="m82.6,42.75l-8.5,-9.75l4.25,15.5l-1,11.8l-5.6,10.15l-4.75,2.3l-1.65,2q-1.35,2 -0.95,3.7l-5.05,3.35l6.25,-16.25l0,-10.8l-3.75,-13l-9,-8.75l-7.5,13l-8.5,6.75l-13.15,3.9l5.15,-7.65l1.5,-8l-3.5,-12.25l-20.5,9.5l-3.2,4.15l-1.8,6.6l-1.35,-11.2l1.95,-10.85q12.5,-13.65 29.35,-23q10.3,-4 19.15,-3.95q-10.35,8.25 -14.35,16.5q11.45,-10.25 24.8,-14.9q5.65,1.75 10.6,5.65q3.6,2.9 6.45,6.75q4,5.5 6.35,13q1.1,3.45 1.8,7.35q3.6,19.5 -3.1,20.9l1.1,-6.25l-1.5,-6.25"/>
   </g>
   <g id="svg_159">
    <use id="svg_479" href="#svg_158" xlink:href="#svg_158" width="114.5" height="113.35"/>
   </g>
   <g id="svg_158">
    <path id="svg_480" fill-rule="evenodd" fill="#fd8002" d="m114.5,49l-1.1,6.25q-2.25,9.9 -11.25,15.2l5.6,-10.15l1,-11.8l-4.25,-15.5l8.5,9.75l1.5,6.25m-22.25,-7.25l3.75,13l0,10.8l-6.25,16.25l5.05,-3.35q0.5,2.1 3.6,3.8q-0.45,10.2 -11,11q-12.55,-0.65 -27,10q-13.1,12.6 -21,9.5l-18,-9l-16,-4q-5.85,-4.25 -5.35,-10.6q0.15,-1.85 0.85,-3.9l16,-22l-3.5,-9.5l12,-14l0,-4.5q3.3,-4.35 6.95,-8.3l-1.95,10.85l1.35,11.2l1.8,-6.6l3.2,-4.15l20.5,-9.5l3.5,12.25l-1.5,8l-5.15,7.65l13.15,-3.9l8.5,-6.75l7.5,-13l9,8.75m-11.4,-41.75q5.5,0 10.45,1.6q-13.35,4.65 -24.8,14.9q4,-8.25 14.35,-16.5m-47.95,87.75q0.95,-3.35 -3,-5.75l3,5.75m-13,-3.5l4,-3.5q-4.15,1.1 -4,3.5"/>
   </g>
   <g transform="matrix(1.0, 0.0, 0.0, 1.0, 1.6, -44.6)" id="svg_157">
    <path id="svg_481" fill-rule="evenodd" fill-opacity="0.50196" fill="#000000" d="m114.7,73.2q1.1,3.45 1.8,7.35q3.6,19.5 -3.1,20.9q-2.25,9.9 -11.25,15.2q-2.2,1.3 -4.75,2.3l-1.65,2l-3.85,1.5q-7.35,3.3 -10.25,8.75q0.05,4.85 16.75,-2.75q-0.45,10.2 -11,11q-12.55,-0.65 -27,10q-13.1,12.6 -21,9.5l-3,-1.5q30.2,-10.2 24.25,-23.5q-5.35,-3.35 -11.35,-6.1q-5.55,-2.55 -11.6,-4.65q-1.45,-3.55 -7.3,-4l-3.35,0.85q-7.4,-1.9 -15.5,-3.2l5.35,-7.4l-3.5,-9.5q11.1,6.25 23.55,10.35q15.4,5 32.85,6.75q14.05,1.9 26.2,-11.5q5.85,-6.45 11.25,-16.4l2.2,-4.3l5.25,-11.65m-97.3,53.25q5.05,-2.45 10.05,-1.7q6.95,1.65 9,8q-0.35,4.8 -5.75,3q-3.6,-3.2 -9.25,-1.75l-2.8,-1.3q-2.3,-2.3 -1.25,-6.25m12.5,1.75l3,5.75q0.95,-3.35 -3,-5.75m-10,2.25l4,-3.5q-4.15,1.1 -4,3.5"/>
    <path id="svg_482" fill-rule="evenodd" fill-opacity="0.25098" fill="#000000" d="m114.7,73.2l-5.25,11.65l-2.2,4.3q-5.4,9.95 -11.25,16.4q-12.15,13.4 -26.2,11.5q-17.45,-1.75 -32.85,-6.75q30.35,-9.6 -3.4,-21.7l-2.7,-0.9l-5.45,-1.75l0,-4.5l5,2.55l5.05,2.2q12.5,5.05 24.5,5.45q8.75,0.25 17.25,-1.95q6.15,-1.65 12.15,-4.55q5.45,-2.7 10.8,-6.45q9.35,-7.05 8.2,-18.5q4,5.5 6.35,13m-65.4,54.65q6,2.75 11.35,6.1q5.95,13.3 -24.25,23.5l-15,-7.5l-16,-4q-5.85,-4.25 -5.35,-10.6q7.95,9.8 32.1,9.35q20.2,-4.45 17.15,-16.85m49.1,0.6q-16.7,7.6 -16.75,2.75q2.9,-5.45 10.25,-8.75l3.85,-1.5q-1.35,2 -0.95,3.7q0.5,2.1 3.6,3.8"/>
    <path id="svg_483" stroke-width="0.2" stroke-opacity="0.4" stroke-miterlimit="3" stroke-linejoin="miter-clip" stroke="#000000" fill="none" d="m101.9,53.45q-4.95,-3.9 -10.6,-5.65q-4.95,-1.6 -10.45,-1.6q-8.85,-0.05 -19.15,3.95q-16.85,9.35 -29.35,23q-3.65,3.95 -6.95,8.3l0,4.5l-12,14l3.5,9.5l-16,22q-0.7,2.05 -0.85,3.9q-0.5,6.35 5.35,10.6l16,4l18,9q7.9,3.1 21,-9.5q14.45,-10.65 27,-10q10.55,-0.8 11,-11q-3.1,-1.7 -3.6,-3.8q-0.4,-1.7 0.95,-3.7l1.65,-2q2.55,-1 4.75,-2.3q9,-5.3 11.25,-15.2q6.7,-1.4 3.1,-20.9q-0.7,-3.9 -1.8,-7.35q-2.35,-7.5 -6.35,-13q-2.85,-3.85 -6.45,-6.75m-83.25,79.25q-2.3,-2.3 -1.25,-6.25l2.6,-2.5q3.2,-2.6 7.05,-3.9l3.35,-0.85"/>
    <path id="svg_484" fill-rule="evenodd" fill="#ff3300" d="m30.45,115.95l-2.35,0.4q-2.9,0 -4.95,-2.15q-2.05,-2.1 -2.05,-5.1l0.1,-1.15l9.25,8"/>
    <path id="svg_485" fill-rule="evenodd" fill="#cc0000" d="m21.2,107.95q0.3,-2.25 1.95,-4q2.05,-2.15 4.95,-2.15q2.9,0 4.95,2.15q2.05,2.15 2.05,5.15q0,3 -2.05,5.1q-1.2,1.25 -2.6,1.75l-9.25,-8"/>
    <path id="svg_486" stroke-width="1.5" stroke-opacity="0.4" stroke-miterlimit="3" stroke-linejoin="miter-clip" stroke="#ff9900" fill="none" d="m21.2,107.95q0.3,-2.25 1.95,-4q2.05,-2.15 4.95,-2.15q2.9,0 4.95,2.15q2.05,2.15 2.05,5.15q0,3 -2.05,5.1q-1.2,1.25 -2.6,1.75l-2.35,0.4q-2.9,0 -4.95,-2.15q-2.05,-2.1 -2.05,-5.1l0.1,-1.15z"/>
   </g>
   <g id="svg_156">
    <use id="svg_487" href="#svg_155" xlink:href="#svg_155" width="24.8" height="26.55"/>
   </g>
   <g id="svg_155">
    <path id="svg_488" fill-rule="evenodd" fill="#fd8002" d="m13.2,1.3q6,3.35 11.6,9.7l-0.95,4.3q-3.05,12.15 -6.8,11.2q-8,-10.2 -16.75,-16.75q-0.5,-0.9 -0.2,-1.9q0.85,-3.4 10.45,-7.85l2.65,1.3"/>
   </g>
   <g transform="matrix(1.0, 0.0, 0.0, 1.0, -16.75, -90.6)" id="svg_154">
    <path id="svg_489" fill-rule="evenodd" fill-opacity="0.26275" fill="#000000" d="m21.65,100.05q9.35,5.8 16.5,2.9q3.65,-1.95 -6.6,-9.45q6,3.35 11.6,9.7l-0.95,4.3q-2.85,3.05 -7.75,2.15l-12.8,-9.6"/>
    <path id="svg_490" fill-rule="evenodd" fill-opacity="0.51373" fill="#000000" d="m42.2,107.5q-3.05,12.15 -6.8,11.2q-8,-10.2 -16.75,-16.75q-0.5,-0.9 -0.2,-1.9l3.2,0l12.8,9.6q4.9,0.9 7.75,-2.15"/>
    <path id="svg_491" stroke-width="0.2" stroke-opacity="0.4" stroke-miterlimit="3" stroke-linejoin="miter-clip" stroke="#000000" fill="none" d="m35.4,118.7q-8,-10.2 -16.75,-16.75q-0.5,-0.9 -0.2,-1.9q0.85,-3.4 10.45,-7.85"/>
    <path id="svg_492" fill-rule="evenodd" fill="#ff3300" d="m60.8,120.15q-0.6,1.9 -2.7,3.4q-2.95,2.15 -7.15,2.15q-4.15,0 -7.1,-2.15q-1.65,-1.2 -2.4,-2.65l19.35,-0.75"/>
    <path id="svg_493" fill-rule="evenodd" fill="#cc0000" d="m41.45,120.9q-0.55,-1.15 -0.55,-2.45q0,-3 2.95,-5.15q2.95,-2.15 7.1,-2.15q4.2,0 7.15,2.15q2.95,2.15 2.95,5.15l-0.25,1.7l-19.35,0.75"/>
    <path id="svg_494" stroke-width="1.5" stroke-opacity="0.4" stroke-miterlimit="3" stroke-linejoin="miter-clip" stroke="#ff9900" fill="none" d="m41.45,120.9q-0.55,-1.15 -0.55,-2.45q0,-3 2.95,-5.15q2.95,-2.15 7.1,-2.15q4.2,0 7.15,2.15q2.95,2.15 2.95,5.15l-0.25,1.7q-0.6,1.9 -2.7,3.4q-2.95,2.15 -7.15,2.15q-4.15,0 -7.1,-2.15q-1.65,-1.2 -2.4,-2.65z"/>
    <path id="svg_495" fill-rule="evenodd" fill="#cc6600" d="m42.15,114.7l-1,-0.1l1.05,-0.05l-0.05,0.15"/>
   </g>
   <g id="svg_153">
    <use id="svg_496" href="#svg_152" xlink:href="#svg_152" width="34.15" height="17.95"/>
   </g>
   <g id="svg_152">
    <path id="svg_497" fill-rule="evenodd" fill="#fd8002" d="m32.2,16.6q-16.05,-0.85 -30.15,1.35q-3.75,-0.7 -0.6,-7.75q1.25,-2.9 3.65,-6.8l2.65,-0.8q9.2,-2.7 20.5,-2.6q8.3,12.45 4.95,15.9l-1,0.7m-26.15,-3.85l-1.05,0.05l1,0.1l0.05,-0.15"/>
   </g>
   <g transform="matrix(1.0, 0.0, 0.0, 1.0, -35.85, -101.6)" id="svg_151">
    <path id="svg_498" fill-rule="evenodd" fill-opacity="0.48235" fill="#000000" d="m69.35,117.7l-1,0.7q-16.05,-0.85 -30.15,1.35q-3.75,-0.7 -0.6,-7.75q0.3,2 3.55,2.6l1,0.1l20.75,0q6.55,1.05 6.45,3"/>
    <path id="svg_499" fill-rule="evenodd" fill-opacity="0.25098" fill="#000000" d="m41.15,114.6q15.95,-1.05 21,-4.4q7.45,-7.3 -18.25,-5.8q9.2,-2.7 20.5,-2.6q8.3,12.45 4.95,15.9q0.1,-1.95 -6.45,-3l-20.75,0l-1,-0.1"/>
    <path id="svg_500" stroke-width="0.2" stroke-opacity="0.4" stroke-miterlimit="3" stroke-linejoin="miter-clip" stroke="#000000" fill="none" d="m68.35,118.4q-16.05,-0.85 -30.15,1.35q-3.75,-0.7 -0.6,-7.75q1.25,-2.9 3.65,-6.8"/>
   </g>
   <g id="svg_150">
    <use id="svg_501" href="#svg_149" xlink:href="#svg_149" width="60.5" height="63"/>
   </g>
   <g id="svg_149">
    <path id="svg_502" fill-rule="evenodd" fill="#989701" d="m51.25,22.35l1.5,-2.35l1.75,-15.5l2.25,-4.5l3.75,24.5l-1.7,5l0.2,3.5l-1.75,1.25l-6,12l-5.65,2.65l-1.6,5.85l-5.5,1.5l-4.25,4.5l-6.25,2.25l-3,-1.75l-3.25,1.5l-9.25,-1l-6.5,-2.5l-6,-15.5l3.25,-13.25l8.75,-12.5l7.25,0l5,4l7.5,0l2.45,3l8.4,1.35l5.9,-3.85l2.75,-0.15"/>
   </g>
   <g transform="matrix(1.0, 0.0, 0.0, 1.0, -85.8, -51.0)" id="svg_148">
    <path id="svg_503" fill-rule="evenodd" fill-opacity="0.46275" fill="#ffcc00" d="m137.4,73.8l1.5,-2.35l1.75,-15.5l2.25,-4.5l3.75,24.5l-1.7,5l-1.05,3l-3,1.5l-5,-9.25l1.5,-2.4"/>
    <path id="svg_504" fill-rule="evenodd" fill-opacity="0.31373" fill="#ffcc00" d="m128.75,77.8l5.9,-3.85l2.75,-0.15l-1.5,2.4l5,9.25l3,-1.5l1.05,-3l0.2,3.5l-1.75,1.25l-6,12l-5.65,2.65l-2.35,1.1l-3.25,-8.25l0,-13.75l2.6,-1.65"/>
    <path id="svg_505" fill-rule="evenodd" fill-opacity="0.23137" fill="#ffcc00" d="m131.75,100.35l-1.6,5.85l-5.5,1.5l-4.25,4.5l-6.25,2.25l-7.75,-4.25l-3,-17.25l6.75,-13.75l7,-3.25l11.6,1.85l-2.6,1.65l0,13.75l3.25,8.25l2.35,-1.1"/>
    <path id="svg_506" fill-rule="evenodd" fill-opacity="0.30196" fill="#000000" d="m104.65,90.45l21.5,0.8l0,-2.75l12.75,-6.75l-1.5,-2.8l5.3,-4.2l0.55,-21.05l3.4,22.25l-1.7,5l0.2,3.5l-1.75,1.25l-6,12l-5.65,2.65l-1.6,5.85l-5.5,1.5l-4.25,4.5l-6.25,2.25l-3,-1.75l-3.25,1.5l-9.25,-1l-6.5,-2.5l-6,-15.5l17.6,-0.3l-0.35,-1.95l1.25,-2.5"/>
    <path id="svg_507" stroke-width="0.2" stroke-opacity="0.4" stroke-miterlimit="3" stroke-linejoin="miter-clip" stroke="#000000" fill="none" d="m89.4,81.95l-3.25,13.25l6,15.5l6.5,2.5l9.25,1l3.25,-1.5"/>
    <path id="svg_508" stroke-width="0.2" stroke-opacity="0.4" stroke-miterlimit="3" stroke-linejoin="miter-clip" stroke-linecap="round" stroke="#000000" fill="none" d="m111.15,112.7l-4.75,-2.5l-3,-17.25l6.75,-13.75l7,-3.25l3.2,0.5l8.4,1.35l5.9,-3.85l2.75,-0.15l1.5,-2.35l1.75,-15.5l2.25,-4.5l3.75,24.5l-1.7,5l0.2,3.5l-1.75,1.25l-6,12l-5.65,2.65l-1.6,5.85l-5.5,1.5l-4.25,4.5l-6.25,2.25l-3,-1.75m26.25,-38.9l-1.5,2.4l5,9.25l3,-1.5l1.05,-3m-13.2,19.4l-2.35,1.1l-3.25,-8.25l0,-13.75l2.6,-1.65"/>
    <path id="svg_509" stroke-width="0.2" stroke-opacity="0.4" stroke-miterlimit="3" stroke-linejoin="miter-clip" stroke-linecap="round" stroke="#000000" fill="none" d="m120.35,76.45l-2.45,-3l-7.5,0l-5,-4l-7.25,0"/>
   </g>
   <g id="svg_147">
    <use id="svg_510" href="#svg_146" xlink:href="#svg_146" width="34.25" height="73.55"/>
   </g>
   <g id="svg_146">
    <path id="svg_511" fill-rule="evenodd" fill="#989701" d="m24.7,22.95l-3.65,21.5l4.8,3.35l0.5,3.95q-5.7,12.9 -15.8,18.4q-4.45,2.4 -9.75,3.4q-1.4,-4.05 -0.3,-12.15l4.9,-18.35l5.7,-13.7l18.95,-28.05l4.2,-1.3l-9.55,22.95"/>
   </g>
   <g transform="matrix(1.0, 0.0, 0.0, 1.0, -50.9, 0.35)" id="svg_145">
    <path id="svg_512" fill-rule="evenodd" fill-opacity="0.44314" fill="#ffcc00" d="m63.35,27.85l17.9,-26.55l4.2,-1.3l-9.55,22.95l-5.15,4.85l-7.4,0.05"/>
    <path id="svg_513" fill-rule="evenodd" fill-opacity="0.23137" fill="#ffcc00" d="m75.9,22.95l-3.65,21.5l-11.9,8.55l-5.65,-2.9l1.9,-7.05l5.7,-13.7l1.05,-1.5l7.4,-0.05l5.15,-4.85"/>
    <path id="svg_514" fill-rule="evenodd" fill-opacity="0.30196" fill="#000000" d="m85.45,0l-9.55,22.95l-3.65,21.5l4.8,3.35l0.5,3.95q-5.7,12.9 -15.8,18.4l-1.4,-17.15l3.7,-2.6l4.3,-22.55l2.4,-0.05l12.55,-27.15l2.15,-0.65"/>
    <path id="svg_515" stroke-width="0.2" stroke-opacity="0.4" stroke-miterlimit="3" stroke-linejoin="miter-clip" stroke="#000000" fill="none" d="m52,73.55q-1.4,-4.05 -0.3,-12.15l3,-11.3"/>
    <path id="svg_516" stroke-width="0.2" stroke-opacity="0.4" stroke-miterlimit="3" stroke-linejoin="miter-clip" stroke-linecap="round" stroke="#000000" fill="none" d="m54.7,50.1l1.9,-7.05l5.7,-13.7l1.05,-1.5l17.9,-26.55l4.2,-1.3l-9.55,22.95l-3.65,21.5l-11.9,8.55l-5.65,-2.9m21.2,-27.15l-5.15,4.85l-7.4,0.05"/>
    <path id="svg_517" stroke-width="0.2" stroke-opacity="0.4" stroke-miterlimit="3" stroke-linejoin="miter-clip" stroke-linecap="round" stroke="#000000" fill="none" d="m72.25,44.45l4.8,3.35l0.5,3.95"/>
   </g>
   <g id="svg_144">
    <use id="svg_518" href="#svg_143" xlink:href="#svg_143" width="102.95" height="45"/>
   </g>
   <g id="svg_143">
    <path id="svg_519" fill-rule="evenodd" fill-opacity="0" fill="#ff00ff" d="m102.95,45l-102.95,0l0,-45l102.95,0l0,45"/>
   </g>
  </defs>
  <g id="svg_520">
   <g id="svg_285">
    <use x="116.05" y="233.5" id="svg_286" href="#svg_244" xlink:href="#svg_244" width="651.9" transform="matrix(1 0 0 1 -328 -429.45)" height="651.9"/>
    <use x="799.56898" y="279.58049" href="#svg_243" xlink:href="#svg_243" width="60.1" transform="matrix(0.2135 0.2164 -0.1955 0.2163 19.95 -185.1)" id="svg_283" height="63.55"/>
    <use x="179.50502" y="361.17553" href="#svg_241" xlink:href="#svg_241" width="43.05" transform="matrix(0.6465 0 0 0.6465 -84.5 -104.95)" id="svg_282" height="54.35"/>
    <use x="179.36629" y="360.8964" id="svg_287" href="#svg_239" xlink:href="#svg_239" width="43.65" transform="matrix(0.647 0 0 0.647 -84.8405 -105.085)" height="54.85"/>
    <use x="-311.41637" y="237.03022" id="svg_288" href="#svg_238" xlink:href="#svg_238" width="13.2" transform="matrix(0 -0.7498 0.4896 0 -60.249 -73.125)" height="24.7"/>
    <use x="179.50502" y="361.17553" id="svg_289" href="#svg_238" xlink:href="#svg_238" width="13.2" transform="matrix(0.6465 0 0 0.6465 -81.1647 -75.3147)" height="24.7"/>
    <use x="108.47995" y="137.84995" id="svg_290" href="#svg_238" xlink:href="#svg_238" width="13.2" transform="matrix(0.4888 -0.4888 0.4572 0.4572 -68.9446 151.053)" height="24.7"/>
    <use x="-20.15977" y="518.09659" id="svg_291" href="#svg_236" xlink:href="#svg_236" width="0.1" transform="matrix(0.563 -0.3158 0.2459 0.4384 -78.3189 -135.306)" height="0.2"/>
    <use x="-20.15977" y="518.09659" href="#svg_235" xlink:href="#svg_235" width="48.5" transform="matrix(0.563 -0.3158 0.2459 0.4384 -100.95 -128.4)" id="svg_281" height="74.65"/>
    <use x="-20.15977" y="518.09659" id="svg_292" href="#svg_233" xlink:href="#svg_233" width="49.5" transform="matrix(0.563 -0.3158 0.2459 0.4384 -101.366 -128.43)" height="75.55"/>
    <use x="-332.29532" y="276.65941" id="svg_293" href="#svg_232" xlink:href="#svg_232" width="35.55" transform="matrix(-0.5359 -0.1984 -0.2242 0.6057 -42.5972 -184.381)" height="85.2"/>
    <use x="-332.29532" y="276.65941" href="#svg_230" xlink:href="#svg_230" width="31.85" transform="matrix(-0.5359 -0.1984 -0.2242 0.6057 -25.85 -197.2)" id="svg_280" height="34.4"/>
    <use x="-332.29532" y="276.65941" href="#svg_228" xlink:href="#svg_228" width="33.3" transform="matrix(-0.5359 -0.1984 -0.2242 0.6057 -29.45 -195.75)" id="svg_279" height="41.5"/>
    <use x="-332.29532" y="276.65941" id="svg_294" href="#svg_226" xlink:href="#svg_226" width="39.25" transform="matrix(-0.5359 -0.1984 -0.2242 0.6057 -25.4807 -197.423)" height="46.5"/>
    <use x="179.50502" y="361.17553" href="#svg_225" xlink:href="#svg_225" width="22.45" transform="matrix(0.6465 0 0 0.6465 84.9 -149.4)" id="svg_278" height="94"/>
    <use x="179.50502" y="361.17553" id="svg_295" href="#svg_223" xlink:href="#svg_223" width="23.05" transform="matrix(0.6465 0 0 0.6465 84.7338 -149.586)" height="94.6"/>
    <use x="179.50502" y="361.17553" href="#svg_222" xlink:href="#svg_222" width="29.45" transform="matrix(0.6465 0 0 0.6465 74 -98.85)" id="svg_277" height="33.7"/>
    <use x="179.50502" y="361.17553" href="#svg_220" xlink:href="#svg_220" width="55.9" transform="matrix(0.6465 0 0 0.6465 52.6 -95.05)" id="svg_276" height="31.65"/>
    <use x="179.50502" y="361.17553" id="svg_296" href="#svg_218" xlink:href="#svg_218" width="63.15" transform="matrix(0.6465 0 0 0.6465 52.406 -98.947)" height="38"/>
    <use x="179.50502" y="361.17553" href="#svg_217" xlink:href="#svg_217" width="70.7" transform="matrix(0.6465 0 0 0.6465 16.8 -143.7)" id="svg_275" height="103.5"/>
    <use x="179.50502" y="361.17553" id="svg_297" href="#svg_215" xlink:href="#svg_215" width="70.05" transform="matrix(0.6465 0 0 0.6465 16.606 -143.894)" height="104.1"/>
    <use x="133.13067" y="267.86739" href="#svg_214" xlink:href="#svg_214" width="41.75" transform="matrix(0.8717 0 0 0.8717 -53.05 -78.25)" id="svg_274" height="40.25"/>
    <use x="133.13067" y="267.86739" id="svg_298" href="#svg_212" xlink:href="#svg_212" width="42.35" transform="matrix(0.8717 0 0 0.8717 -53.3023 -78.5535)" height="40.9"/>
    <use x="283.84388" y="332.28976" id="svg_299" href="#svg_211" xlink:href="#svg_211" width="21.65" transform="matrix(0.6273 0 -0.1866 0.7027 -61.1941 -60.8703)" height="23.45"/>
    <use x="171.08137" y="267.86739" id="svg_300" href="#svg_211" xlink:href="#svg_211" width="21.65" transform="matrix(0.8717 0 -0.1235 0.8717 -62.3248 -58.9372)" height="23.45"/>
    <use x="64.14337" y="267.86739" id="svg_301" href="#svg_211" xlink:href="#svg_211" width="21.65" transform="matrix(0.8717 0 0.2245 0.8717 -58.8096 -56.0372)" height="23.45"/>
    <use x="-35.41463" y="471.53782" id="svg_302" xlink:href="#shape22" width="0.15" transform="matrix(0.386 -0.4379 0.2751 0.4623 -18.8537 -71.4705)" height="0"/>
    <use x="-35.41463" y="471.53782" href="#svg_209" xlink:href="#svg_209" width="13.5" transform="matrix(0.386 -0.4379 0.2751 0.4623 -31 -81.7)" id="svg_273" height="31.05"/>
    <use x="-35.41463" y="471.53782" href="#svg_207" xlink:href="#svg_207" width="37" transform="matrix(0.386 -0.4379 0.2751 0.4623 -51.75 -94.05)" id="svg_272" height="62.65"/>
    <use x="-35.41463" y="471.53782" id="svg_303" href="#svg_205" xlink:href="#svg_205" width="38" transform="matrix(0.386 -0.4379 0.2751 0.4623 -52.0805 -94.0622)" height="78.25"/>
    <use x="179.50502" y="361.17553" href="#svg_204" xlink:href="#svg_204" width="81.8" transform="matrix(0.6465 0 0 0.6465 -50.7 -137.55)" id="svg_271" height="72.5"/>
    <use x="179.50502" y="361.17553" id="svg_304" href="#svg_202" xlink:href="#svg_202" width="82.4" transform="matrix(0.6465 0 0 0.6465 -50.9011 -137.759)" height="73.1"/>
    <use x="795.74328" y="279.45099" id="svg_305" href="#svg_201" xlink:href="#svg_201" width="60.3" transform="matrix(0.2146 0.2173 -0.1958 0.2168 19.8981 -185.193)" height="63.75"/>
    <use x="381.3034" y="387.82047" href="#svg_243" xlink:href="#svg_243" width="60.1" transform="matrix(0.462 0.1617 -0.155 0.4431 -1.95 -212.95)" id="svg_270" height="63.55"/>
    <use x="230.25899" y="-61.49798" id="svg_306" href="#svg_201" xlink:href="#svg_201" width="60.3" transform="matrix(0.4626 0.1618 -0.155 0.4432 -1.9808 10.4895)" height="63.75"/>
    <use x="179.50502" y="361.17553" href="#svg_199" xlink:href="#svg_199" width="56.75" transform="matrix(0.6465 0 0 0.6465 -29.75 -225.1)" id="svg_269" height="53"/>
    <use x="50.00881" y="296.77175" href="#svg_199" xlink:href="#svg_199" width="56.75" transform="matrix(0.6465 0 0.2821 0.7868 -63.8 -229.65)" id="svg_268" height="53"/>
    <use x="179.36629" y="360.8964" href="#svg_197" xlink:href="#svg_197" width="44.25" transform="matrix(0.647 0 0 0.647 -7.1 -148.9)" id="svg_267" height="44"/>
    <use x="179.50502" y="361.17553" id="svg_307" href="#svg_195" xlink:href="#svg_195" width="44.45" transform="matrix(0.6465 0 0 0.6465 -7.1647 -148.915)" height="44.2"/>
    <use x="179.36629" y="360.8964" href="#svg_193" xlink:href="#svg_193" width="63.5" transform="matrix(0.647 0 0 0.647 -19.75 -173.3)" id="svg_266" height="58"/>
    <use x="179.50502" y="361.17553" id="svg_308" href="#svg_191" xlink:href="#svg_191" width="63.7" transform="matrix(0.6465 0 0 0.6465 -19.8147 -173.315)" height="58.2"/>
    <use x="179.50502" y="361.17553" href="#svg_189" xlink:href="#svg_189" width="96.05" transform="matrix(0.6465 0 0 0.6465 -46.65 -192.35)" id="svg_265" height="68.75"/>
    <use x="179.36629" y="360.8964" id="svg_309" href="#svg_187" xlink:href="#svg_187" width="57.75" transform="matrix(0.647 0 0 0.647 -30.0735 -225.456)" height="54.05"/>
    <use x="51.28704" y="296.69631" id="svg_310" href="#svg_187" xlink:href="#svg_187" width="57.75" transform="matrix(0.647 0 0.2793 0.787 -64.2271 -230.183)" height="54.05"/>
    <use x="179.50502" y="361.17553" href="#svg_186" xlink:href="#svg_186" width="82.75" transform="matrix(0.6465 0 0 0.6465 -49 -196.4)" id="svg_264" height="63.8"/>
    <use x="179.50502" y="361.17553" id="svg_311" href="#svg_184" xlink:href="#svg_184" width="100.35" transform="matrix(0.6465 0 0 0.6465 -49.194 -196.594)" height="75.6"/>
    <use x="179.36629" y="360.8964" href="#svg_183" xlink:href="#svg_183" width="11.05" transform="matrix(0.647 0 0 0.647 -5.7 -161.95)" id="svg_263" height="7.05"/>
    <use x="179.50502" y="361.17553" href="#svg_181" xlink:href="#svg_181" width="43.55" transform="matrix(0.6465 0 0 0.6465 15.75 -51.25)" id="svg_262" height="59"/>
    <use x="179.50502" y="361.17553" id="svg_312" href="#svg_179" xlink:href="#svg_179" width="44.15" transform="matrix(0.6465 0 0 0.6465 15.5608 -51.4533)" height="59.6"/>
    <use x="67.83671" y="280.64903" id="svg_313" href="#svg_178" xlink:href="#svg_178" width="12.95" transform="matrix(0.832 0 0.2124 0.832 33.3704 -22.7693)" height="21.6"/>
    <use x="184.85251" y="280.64903" id="svg_314" href="#svg_178" xlink:href="#svg_178" width="12.95" transform="matrix(0.832 0 -0.1345 0.832 16.9612 -22.7693)" height="21.6"/>
    <use x="127.56953" y="203.02583" id="svg_315" href="#svg_178" xlink:href="#svg_178" width="12.95" transform="matrix(0.9097 0 0 1.1501 24.609 -23.4148)" height="21.6"/>
    <use x="179.50502" y="361.17553" id="svg_316" xlink:href="#shape22" width="0.15" transform="matrix(0.6465 0 0 0.6465 28.3606 -45.4409)" height="0"/>
    <use x="179.50502" y="361.17553" href="#svg_209" xlink:href="#svg_209" width="13.5" transform="matrix(0.6465 0 0 0.6465 22.3 -65.5)" id="svg_261" height="31.05"/>
    <use x="179.50502" y="361.17553" href="#svg_207" xlink:href="#svg_207" width="37" transform="matrix(0.6465 0 0 0.6465 8.9 -95.45)" id="svg_260" height="62.65"/>
    <use x="179.50502" y="361.17553" id="svg_317" href="#svg_205" xlink:href="#svg_205" width="38" transform="matrix(0.6465 0 0 0.6465 8.5767 -95.7733)" height="78.25"/>
    <use x="179.50502" y="361.17553" href="#svg_176" xlink:href="#svg_176" width="28.3" transform="matrix(0.6465 0 0 0.6465 9.85 -152.1)" id="svg_259" height="100.5"/>
    <use x="179.50502" y="361.17553" id="svg_318" href="#svg_174" xlink:href="#svg_174" width="28.9" transform="matrix(0.6465 0 0 0.6465 9.656 -152.294)" height="101"/>
    <use x="-169.1691" y="361.17553" id="svg_319" href="#svg_238" xlink:href="#svg_238" width="13.2" transform="matrix(-0.686 0 0 0.6465 -0.4314 -51.4147)" height="24.7"/>
    <use x="-75.32856" y="395.3216" id="svg_320" href="#svg_238" xlink:href="#svg_238" width="13.2" transform="matrix(-0.6626 0.1776 0.1673 0.6245 7.5495 -64.0802)" height="24.7"/>
    <use x="179.50502" y="361.17553" id="svg_321" href="#svg_238" xlink:href="#svg_238" width="13.2" transform="matrix(0.6465 0 0 0.6465 -22.5647 -52.3147)" height="24.7"/>
    <use x="179.50502" y="361.17553" href="#svg_173" xlink:href="#svg_173" width="48.25" transform="matrix(0.6465 0 0 0.6465 -24.4 -88.6)" id="svg_258" height="70"/>
    <use x="179.50502" y="361.17553" id="svg_322" href="#svg_171" xlink:href="#svg_171" width="48.65" transform="matrix(0.6465 0 0 0.6465 -24.4904 -88.6904)" height="70.2"/>
    <use x="179.50502" y="361.17553" id="svg_323" href="#svg_236" xlink:href="#svg_236" width="0.1" transform="matrix(0.6465 0 0 0.6465 0.7238 -120.666)" height="0.2"/>
    <use x="179.50502" y="361.17553" href="#svg_235" xlink:href="#svg_235" width="48.5" transform="matrix(0.6465 0 0 0.6465 -22.5 -127.15)" id="svg_257" height="74.65"/>
    <use x="179.50502" y="361.17553" id="svg_324" href="#svg_233" xlink:href="#svg_233" width="49.5" transform="matrix(0.6465 0 0 0.6465 -22.7775 -127.454)" height="75.55"/>
    <use x="179.36629" y="360.8964" href="#svg_169" xlink:href="#svg_169" width="35.3" transform="matrix(0.647 0 0 0.647 -13.9193 -176.847)" id="svg_256" height="85"/>
    <use x="179.50502" y="361.17553" id="svg_325" href="#svg_232" xlink:href="#svg_232" width="35.55" transform="matrix(0.6465 0 0 0.6465 -14.047 -176.915)" height="85.2"/>
    <use x="179.50502" y="361.17553" href="#svg_230" xlink:href="#svg_230" width="31.85" transform="matrix(0.6465 0 0 0.6465 -26.8 -194.75)" id="svg_255" height="34.4"/>
    <use x="179.50502" y="361.17553" href="#svg_228" xlink:href="#svg_228" width="33.3" transform="matrix(0.6465 0 0 0.6465 -23.6 -192.2)" id="svg_254" height="41.5"/>
    <use x="179.50502" y="361.17553" id="svg_326" href="#svg_226" xlink:href="#svg_226" width="39.25" transform="matrix(0.6465 0 0 0.6465 -27.0886 -195.115)" height="46.5"/>
    <use x="179.50502" y="361.17553" href="#svg_167" xlink:href="#svg_167" width="56" transform="matrix(0.6465 0 0 0.6465 -87.15 -143.35)" id="svg_253" height="51.25"/>
    <use x="179.50502" y="361.17553" href="#svg_165" xlink:href="#svg_165" width="35.05" transform="matrix(0.6465 0 0 0.6465 -98.8 -214.25)" id="svg_252" height="66.35"/>
    <use x="179.50502" y="361.17553" id="svg_327" href="#svg_163" xlink:href="#svg_163" width="56.6" transform="matrix(0.6465 0 0 0.6465 -87.344 -143.544)" height="51.85"/>
    <use x="179.50502" y="361.17553" id="svg_328" href="#svg_162" xlink:href="#svg_162" width="52.8" transform="matrix(0.6465 0 0 0.6465 -110.06 -214.424)" height="155.35"/>
    <use x="179.50502" y="361.17553" href="#svg_161" xlink:href="#svg_161" width="87.35" transform="matrix(0.6465 0 0 0.6465 -91.8 -199.8)" id="svg_251" height="81.8"/>
    <use x="179.50502" y="361.17553" href="#svg_159" xlink:href="#svg_159" width="114.5" transform="matrix(0.6465 0 0 0.6465 -111.45 -199.8)" id="svg_250" height="113.35"/>
    <use x="179.50502" y="361.17553" id="svg_329" href="#svg_157" xlink:href="#svg_157" width="120.95" transform="matrix(0.6465 0 0 0.6465 -112.484 -200.815)" height="116.55"/>
    <use x="179.50502" y="361.17553" href="#svg_156" xlink:href="#svg_156" width="24.8" transform="matrix(0.6465 0 0 0.6465 -99.6 -170.05)" id="svg_249" height="26.55"/>
    <use x="179.50502" y="361.17553" id="svg_330" href="#svg_154" xlink:href="#svg_154" width="46.55" transform="matrix(0.6465 0 0 0.6465 -100.621 -171.074)" height="37.35"/>
    <use x="179.50502" y="361.17553" href="#svg_153" xlink:href="#svg_153" width="34.15" transform="matrix(0.6465 0 0 0.6465 -88.1 -163.85)" id="svg_248" height="17.95"/>
    <use x="179.50502" y="361.17553" id="svg_331" href="#svg_151" xlink:href="#svg_151" width="34.65" transform="matrix(0.6465 0 0 0.6465 -88.2719 -163.962)" height="18.45"/>
    <use x="179.50502" y="361.17553" href="#svg_150" xlink:href="#svg_150" width="60.5" transform="matrix(0.6465 0 0 0.6465 -55.8 -196.4)" id="svg_247" height="63"/>
    <use x="179.50502" y="361.17553" id="svg_332" href="#svg_148" xlink:href="#svg_148" width="61.15" transform="matrix(0.6465 0 0 0.6465 -55.9777 -196.677)" height="63.75"/>
    <use x="179.50502" y="361.17553" href="#svg_147" xlink:href="#svg_147" width="34.25" transform="matrix(0.6465 0 0 0.6465 -78.35 -229.65)" id="svg_246" height="73.55"/>
    <use x="179.50502" y="361.17553" id="svg_333" href="#svg_145" xlink:href="#svg_145" width="34.9" transform="matrix(0.6465 0 0 0.6465 -78.5416 -229.876)" height="74.2"/>
    <use x="64.21536" y="141.18999" href="#svg_144" xlink:href="#svg_144" width="102.95" transform="matrix(1.8072 0 0 1.6538 -127 -183)" id="svg_245" height="45"/>
   </g>
  </g>
 </g>

</svg>