<svg width="469" height="408" xmlns="http://www.w3.org/2000/svg" xmlns:xlink="http://www.w3.org/1999/xlink">
 <defs>
  <g transform="matrix(1,0,0,1,192.55,294) " id="shape0">
   <path id="svg_1" stroke-opacity="0" stroke-linejoin="round" stroke-linecap="round" stroke="#ff00ff" fill="none" d="m187.95,-293.5l0,380l-379.95,0l-0.05,0l0,-380l380,0m-95,294.1l-189.95,0"/>
   <path id="svg_2" stroke-opacity="0" stroke-linejoin="round" stroke-linecap="round" stroke="#ff00ff" fill="none" d="m187.95,-293.5l-190,190l190,190m-380,-380l190,190l-189.95,190"/>
  </g>
  <g transform="matrix(1,0,0,1,-30.45,-0.05) " id="shape1">
   <path id="svg_3" stroke-width="4" stroke-linejoin="round" stroke-linecap="round" stroke="#322210" fill="none" d="m338.65,113.1q0.45,3.45 0.25,6.85l-0.25,2.5l-1.1,3.6l-2.05,4.4l-4.5,1.5q-15.1,-4.5 -19.7,4.9l-1.4,5q0,2.95 0.65,4.1q0.5,0.85 1.4,0.55q3.6,1.75 6.45,2.65q4.35,1.35 7.05,0.65l1.75,-0.75l1.2,-3.8l0.55,-4.35l0.95,-0.6q1.45,0.95 2.2,5.7l-1.05,5.1l-1.95,5.3l-2.65,2.35q-8.65,0.3 -16.65,-3.4q-2.3,0.25 -3.3,3.75l-0.25,1.05l-0.2,0.95l-0.1,5.85q-0.05,1.75 0.35,3.3q0.45,1.8 1.45,3.4l0.15,0.25l1.35,1.7l2.05,1.3q6.35,3.1 12.1,1.15l1.3,-0.55q2,-0.5 2.85,-4.75l0.7,-4.1q1.25,-2.2 2.2,2.4l0,2.65q-0.15,3.4 -1.05,6l-0.2,0.55q-2.7,6.65 -8.35,6.5q-8.25,0.75 -15.4,-2.3l-1.95,-2.65q-1.1,-1.85 -1.75,-4.2l-0.65,-8q-0.35,-1.2 -1.2,-2.05q-4.6,0.55 -9,-1.45q-3.45,-1.8 -5.3,-6.35l-1.95,-7.15l-2.05,-1.25l-0.15,-0.05l-9.25,-2.2l-3.05,-0.6l-10.3,-0.9l-0.45,0q-0.05,1.25 -1.3,2.9l-5.45,-0.3q-1.3,-0.65 -1.95,-2.4l-0.25,-0.65l-5,-0.25l-0.55,-0.05l-1,-0.05l-0.7,0l-17.85,-0.3l-0.05,2.45l3,4l3.7,3.6l3.45,-2.45l4.1,1.3l2.45,4l6.45,1.95l0.65,1.8l-2.2,1.2l2.45,0.25l3.55,1.05l8.35,7.8q0.75,5.85 0.6,11.7l-2,6.2l-1.35,43.25l4.1,4.35l0.95,6.45l-1.5,0.25l3.05,8.25l-21,0l-0.6,-11.75l2.15,-4.2l0.15,-22.65l-1.3,-14.45l-1.9,3.05l0.25,2.85l-1.7,1.5l-0.05,0l1.25,2.2l-1.8,5.2l-1.15,7.6l0.65,2.6l-2.05,0.85l-0.3,0.25l0.3,-0.05l-1.8,15.4l0.6,11.5l-23.9,0l-13.8,-2.05l-45.8,0l3.2,-9.25l-2.05,1.45l-4.25,-5.4l12.25,-4.9l-0.5,-1.9l-11.25,5.4l-0.5,-2l10.9,-4.35l-13.2,0.15l0.75,-3.05l4.45,0.25l2,-2.15l2.85,0.45l-3,-2.2l1.25,-0.65l6.6,1.7l2.85,-7.15l-0.9,-1.25l1.15,-2.45l0.6,-9.55l1.6,-2l0.05,-0.05l1.2,-1.4l-2,-1.2l1.5,-1.6l1.85,-6l-1.1,-5.25l3.25,-3.9l-2,-1.45l0.75,-1.25l0.7,-3l-7.55,4.75l-19.2,21.5l-9.2,6.05l0.05,1.6l-6.35,6.85l-16,-1.15l-2.7,-3.3l-5.45,-4.7l-1.25,-4.25l-4.65,-7.25l-1.95,-0.7l-0.35,-4.35l-6.7,-8.9l0.55,-1.3l0.45,0.2l-0.9,-5.45l-2.5,-3.65l1.3,-2.75l-1.75,-2.7l-0.7,-3.05l3.15,-8.9l-5.9,0.95l-7.95,2.7l-3.7,1.8l-0.5,0.2l-0.05,2.6l-9.15,1.85l-1.3,-2.15l-13.3,5.15l-10.5,5.7l-1.7,-3.1l2.8,-3.1l-4.5,0l-1.3,-10.9q8.4,-3.7 15.2,-6.2l12.6,-3l0.8,-2.1l7.7,-1.25l1.35,0l0.45,2.35l0.45,-0.5l1.2,-0.25l3.4,-0.65l2.75,-0.35l0.4,-0.05l1.4,-5.1l2.05,-3.4l7.5,0.8l1.1,-3.5l8,-0.6l3.2,2.4l1.3,1.7l0.15,-1.8l2.3,-4.55l6.2,1.5l2.15,2.9l0.1,-1.05l-0.75,-6.05l3.4,-2.15l5.95,0.4l1.3,5.55l-0.7,3.95l1.2,4.3l3.05,-0.25l3.2,-0.25l1.15,-0.1l0.7,-1.7l9.45,0.45l-0.1,0.55l4,-0.25l6.8,-0.35l21,-0.9l4.9,-0.15l1.3,-0.05l12.65,-0.3l-8.4,-4.85l-2.8,-3.1l-6.55,1l-1,-0.1l-0.85,-3.2l-1.9,0l-1.15,2.75l-12.9,-1.65l1.45,-3.95l-0.9,0.15l-2.45,3.6l-8.7,-1.4l-3.7,1.25l9.45,-10.95l6.45,-13.35l7.55,-11.75l-0.65,-1.65l0.25,-4l4.35,-6.35l2.75,0.25l-0.05,0.45l0.1,-0.45l0,-0.05l12.7,-53.1l2,-6.2l24.05,-19.35l0.25,0l7.95,3.75l12.15,34.7l7.3,34.15l0.35,1.15l0.05,0.05l3.35,4.95l5.2,2.4l2.05,6l-1.05,1.35l0.05,0.1l6.75,8.85l11.9,20.85l-3,-0.25l0.15,0.45l-5.25,1.4l-2.95,1.2l-3,-2.85l1.3,3.55l-4.1,1.65l-3.3,-7.65l-1.85,0.65l1.3,8l-8.25,1.75l-1.45,4.2l-8.75,5.35l13.55,0.2l6.45,-0.3l1.1,-2.6q3.7,-1.35 7.1,0.35q0.7,1.5 0.65,3.05l0.1,0.15l-0.05,0.05l0.05,0l1.4,-0.1l9.75,0.5l1.45,0.2l4.75,0.65l8.55,1.45q2.45,-0.65 4.35,-4.05q3.5,-3.75 8,-2.5q3.35,0.4 9.7,-1.25l3.1,-4.85q3.1,-5.7 7,-6.25l16.75,0.45q2.1,-0.65 2.95,-3.4l1.1,-5.7q0.85,-1.85 1.8,-0.75m-165.6,34.55l-28.95,2l-3.1,0.3l0.25,2.55l0,0.05l-5.4,4.45l-3.7,-0.05l-6.8,6l-3.85,7.45l0.3,0l-0.3,3.25l-1.55,1.95l0.4,6.2l0.4,-0.35l3.05,3.85l1.25,5.8l4.4,2.9l1.05,0.05l12.25,-9.95l20.35,-21.35l-1.7,-0.65l1.25,-2.45l1.9,1l2.55,-9.2l4.6,-3.45l1.35,-0.35m127.6,-4.05q-7.5,-2 -10.65,2.2l-0.2,0.6l-0.35,1.35l0,1.8q0.25,1.85 3.05,3.15l3.9,1.7q3.3,0.9 5.25,-1.85l0.45,-2.85l0,-0.05l0.45,-2.75l-0.1,-0.7l-0.25,-1.2q-0.45,-1.6 -1.55,-1.4m-138.85,86.1l0.4,1.2l-0.9,-0.05l0.5,-1.15"/>
   <path id="svg_4" fill-rule="evenodd" fill="#9e7310" d="m301.9,165.3l2.3,0l2.35,-5.2l0,0.55l-0.1,0.45l0.05,1.3l-0.1,4.55q-0.05,1.75 0.35,3.3q0.5,1.8 1.5,3.4l0.2,0.25l2.55,4.1l5.55,2.6l-8.2,0l1.4,3l-2.7,-0.85l-3.55,-5.9l-0.55,-7.4l-0.2,-1.05l-0.85,-3.1m17.25,-16.15l-12.15,-1.65l4.1,-1.55q0.5,0.85 1.45,0.55q3.65,1.75 6.6,2.65m18.2,-32.45l0.55,-2.85q0.95,-1.85 1.85,-0.75q0.5,3.45 0.3,6.85l-2.05,-0.45l-0.65,-2.8m-7.9,27.6l0.4,-3.4l1,-0.6q1.45,0.95 2.25,5.7l-0.55,2.5l-2.5,-0.9l-0.6,-3.3m-0.65,26.5l0.4,-2.15q1.25,-2.2 2.2,2.4l0,2.65l-1.95,0l-0.65,-2.9"/>
   <path id="svg_5" fill-rule="evenodd" fill="#7a4e05" d="m286.05,149.1l1.45,6.35l4.3,2.45l-5.85,0.1q-1.4,-5.35 0.1,-8.9m39.65,6.2l2.25,-4.2l-1.65,-1.3l1.8,-0.75l1.25,-3.8l0.1,-0.95l0.6,3.3l2.5,0.9l-0.55,2.6q-2,2.8 -4.25,3.95l-2.05,0.25m8.05,-26.75l2.6,-5.6l-2.55,0q2.15,-0.65 3.05,-3.4l0.5,-2.85l0.65,2.8l2.05,0.45l-0.3,2.5l-1.05,3.6l-4.95,2.5m-9.55,49.5l1.35,-0.55q2.05,-0.5 2.9,-4.75l0.35,-1.95l0.65,2.9l1.95,0q-0.15,3.4 -1.05,6l-0.25,0.55l-4.35,3.25l1.45,-4.5l-3,-0.95"/>
   <path id="svg_6" fill-rule="evenodd" fill="#8f680e" d="m332.75,122.95l1.05,0l2.55,0l-2.6,5.6l-1.9,0.95l-16.25,-0.75l-4.85,7.7l-0.3,4.55l0.15,0.4l-0.15,0.45q0,2.95 0.65,4.1l-4.1,1.55l12.15,1.65q4.4,1.35 7.15,0.65l1.65,1.3l-2.25,4.2l-0.8,-0.15l0.55,1.45l-8,-0.45l4.3,-1.55l-15.4,-2.55q1.4,1.15 0.2,8.55l0,-0.5l-2.35,5.2l-2.3,0l-1.15,-2.1l-10.25,-0.4q-3,-1.65 -4.55,-4.8l5.85,-0.1l-4.3,-2.45l-1.45,-6.35l-13.9,-3.15l-1.55,-2.35l0.35,-1.65l4.8,0.65l-0.55,-2.65l8.75,1.45q2.45,-0.65 4.4,-4.05q3.6,-3.75 8.15,-2.5q3.45,0.4 9.95,-1.25l3.15,-4.85q3.15,-5.7 7.1,-6.25l16.05,0.45m-24.3,50.95l1.35,1.7l2.1,1.3q6.45,3.1 12.3,1.15l3,0.95l-1.45,4.5l-0.75,0.5q-8.25,1.45 -15.25,-0.4l-1.4,-3l8.2,0l-5.55,-2.6l-2.55,-4.1m-18.4,-28.2l-0.1,0.7q-0.25,0.65 -0.35,1.35q-0.15,0.85 -0.05,1.8q0.3,1.85 3.1,3.15l4,1.7q3.4,0.9 5.4,-1.85l0.45,-2.85l0,-0.05l0.45,-2.75l-0.1,-0.7l0.4,-3.45l-0.9,-1.8l-0.05,-0.55l-3.8,-1.8q-2.95,-0.25 -5.7,1.9l2.95,0.05l-4.6,2.45l-1.1,2.7m-230.5,3.2q-0.25,3.35 -0.2,6.9l-3.6,1.4l-18.45,9.25l-5.6,0l-1.15,-8.4q14.65,-5.5 25.15,-8.35l3.85,-0.8m-23.55,21.25l7.95,-4.1l-8.35,8.45l-1.55,-2.45l1.55,-1.55l0.4,-0.35"/>
   <path id="svg_7" fill-rule="evenodd" fill="#653f01" d="m306.55,160.6q1.2,-7.4 -0.2,-8.55l15.4,2.55l-4.3,1.55l8,0.45l-0.55,-1.45l0.8,0.15l2.05,-0.25q2.25,-1.15 4.25,-3.95l-1.95,5.3l-2.7,2.35q-8.85,0.3 -17,-3.4q-2.35,0.25 -3.35,3.75q-0.3,0.85 -0.45,2l0,-0.5m4.05,-19.2l-0.15,-0.4l0.3,-4.55l4.85,-7.7l16.25,0.75l1.9,-0.95l4.95,-2.5q-0.9,2.3 -2.15,4.4l-4.55,1.5q-15.45,-4.5 -20.1,4.9l-1.3,4.55m-20.45,4.4l-0.1,-0.1l1.1,-2.7l4.6,-2.45l-2.95,-0.05q2.75,-2.15 5.7,-1.9l3.8,1.8l0.05,0.55l0.9,1.8l-0.4,3.45l-0.25,-1.2q-0.45,-1.6 -1.6,-1.4q-7.65,-2 -10.85,2.2m16.85,13.3l0.75,-3.45l-0.75,3.45m-0.5,2l-0.05,0l0.1,-0.45l-0.05,0.45"/>
   <path id="svg_8" fill-rule="evenodd" fill="#553500" d="m275.2,139.95l0.55,2.65l-4.8,-0.65l-0.35,1.65l1.55,2.35l13.9,3.15q-1.5,3.55 -0.1,8.9q1.55,3.15 4.55,4.8l10.25,0.4l1.15,2.1l0.85,3.1l0.2,1.05l0.55,7.4l3.55,5.9l2.7,0.85q7,1.85 15.25,0.4l0.75,-0.5l4.35,-3.25q-2.7,6.65 -8.45,6.5q-8.45,0.75 -15.75,-2.3l-2,-2.65q-1.1,-1.85 -1.8,-4.2l-0.65,-8q-0.35,-1.2 -1.25,-2.05q-4.7,0.55 -9.15,-1.45q-3.5,-1.8 -5.4,-6.35l-1.95,-7.15l-2.15,-1.25l-0.15,-0.05l-9.45,-2.2l-2.45,-6.9l0.9,-2.9l4.8,0.65m25.9,25.35l0.35,4.3l-0.35,-4.3m-241.75,-9.5l0.2,3.45q0.25,2.85 0.75,5.05l-4.55,1.65l-19.7,9.2l-0.45,-0.65l8.35,-8.45l-7.95,4.1l1.3,-1.2l-5.25,0l-0.35,-2.5l5.6,0l18.45,-9.25l3.6,-1.4"/>
   <path id="svg_9" fill-rule="evenodd" fill="#4e2b01" d="m306.55,161.1l-0.05,1.3l-0.05,-1.3l0.05,0l0,0.05l0.05,-0.05m-127.95,6.05l0.85,-2.55l0.8,5l-1.55,-1.95l-0.1,-0.5m9.4,1.15l0.1,1.45l-0.15,3.35l-3.3,-1.45l-0.1,-0.55l3.45,-2.8m33.4,17.95l0.1,0.3l-0.15,0l0.05,-0.3m68.55,-39.85l0.1,-0.7l0.1,0.1l-0.2,0.6"/>
   <path id="svg_10" fill-rule="evenodd" fill="#e8c604" d="m213.15,2.05l7.95,3.75l6.35,18.2l-7.75,-12.15l-7.95,0l2.55,28.15l-2.3,1.4l-3.95,-17.3l-17.35,15l1.35,-6.45l-2.25,0l0,0.05l-7.2,32.95l-5.6,3.15l9.85,-41.2l2,-6.2l24.05,-19.35l0.25,0"/>
   <path id="svg_11" fill-rule="evenodd" fill="#d6a70a" d="m250.5,90.55l0.05,0.1l6.75,8.85l11.9,20.85l-1.55,-0.1l-1.45,-0.15l-0.95,-2.5l-11.2,-16.85l9.9,18l-12.05,-1.85l-1.15,-8.65l-19.95,-30l0.05,-2.15l2.1,1l1,0.45l1.85,0.85l3.4,1.7l0.45,6.3l5.85,1.55l-0.4,-3.9l0.45,-0.1l4.95,6.6m-16.85,-12.3l0.3,-0.7l-0.3,0.7m-6.2,-54.25l5.8,16.5l1.3,6.15l-1.05,22.45l-4.45,2.8l-1.4,-2.55l-3.85,-0.15l1.15,3.3l-2.55,0.9l-0.75,0.85l-6.7,0.55l-0.05,-0.5l0,-0.05l0,-0.1l-0.15,-1.95l-1.7,-2.45l-4.25,0.3l-3,2.05l-0.15,4.85l-1.35,0.65l-1.1,0.05l-0.15,0.35l-2.75,-0.1l-1.75,-0.05l-0.55,-1.25l-3.95,2.1l1,-3.35l-1.25,-1.05l-4.7,0l-2,2.6l0.05,3.55l-1.6,1l-0.1,-0.25l-1.6,-1.45l-1.75,2.5l-0.8,-4.55l-4.4,0.5l-1.05,4.65l-1.65,1.85l-0.35,-0.25l-0.6,0.3l-0.25,0.15l-0.95,0.45l0.3,-0.45l1.7,-3.7l0.1,-0.45l0,-0.05l2.85,-11.9l5.6,-3.15l7.2,-32.95l0,-0.05l2.25,0l-1.35,6.45l17.35,-15l3.95,17.3l2.3,-1.4l-2.55,-28.15l7.95,0l7.75,12.15m-31.9,51.8l-0.5,-0.45l0.5,0.45m4.75,0.45l0,1.65l0,-1.65m3.4,0.25l-0.5,1.05l0,0.1l0,-0.1l0.5,-1.05m15.95,-2.7l0.65,-0.9l-0.65,0.9m-1.35,-1.25l-3.4,1.7l3.4,-1.7m8.5,30.95l0,-17.25l2.7,0l6.6,14.85l1.6,10.8l-7.45,1.75l-3.45,-10.15"/>
   <path id="svg_12" fill-rule="evenodd" fill="#f2d117" d="m182.1,82.25l1.75,-2.5l1.6,1.45l0.1,0.25l1.6,-1l0.05,1.45l0,1.6l1.5,2.85l5.7,-1.25l0.95,-2.45l-0.75,-2l-0.65,-1.55l0.1,-0.4l3.95,-2.1l0.55,1.25l1.75,0.05l2.75,0.1l0.15,-0.35l1.1,-0.05l1.35,-0.65l-0.1,1.55l0,0.3l1.25,2.8l6.45,0l2.15,-1.3l-0.4,-5.15l-0.05,-0.35l6.7,-0.55l0.75,-0.85l2.55,-0.9l0.95,2.8l0,0.1l-0.25,3.75l1.15,0.9l3.95,0.45l0.05,-2.25l19.95,30l1.15,8.65l-9.5,-1.5l-5.3,-14.3l-1,0l-6.6,-14.85l-2.7,0l0,17.25l-0.25,11.4l-10.45,1.3l-9.15,1.15l-3.8,1l-15.65,3.95l-0.15,0.05l0,-0.05l-0.05,-0.9l-0.5,-5.75l-1.85,0l-1.8,6.7l-2,0l-7.2,1.2l2.5,-21.55l4.25,-13.95l1.05,-0.1l0.85,-2.95l-0.2,-1.2l-0.3,-1.55m3.45,-0.8q-0.25,0.1 -0.45,0.25q0.2,-0.15 0.45,-0.25"/>
   <path id="svg_13" fill-rule="evenodd" fill="#797e05" d="m174.05,81.2l-1.7,3.7l-0.3,0.45l-1.95,2.95l-2.55,-2.25l3.8,-5.55l2.75,0.25l-0.05,0.45m1.8,1.65l1.05,-4.65l4.4,-0.5l0.8,4.55l0.3,1.55l-4.6,1.8l-2.5,-0.45l0.55,-2.3m11.3,-2.4l-0.05,-3.55l2,-2.6l4.7,0l1.25,1.05l-1,3.35l-0.1,0.4l0.65,1.55l-3.8,2.1l-3.6,-0.85l-0.05,-1.45m41.9,-8.55l1.75,3.2l0.05,0.05l0,0.25l0,0.7l-0.05,2.15l-1.35,-2l-1.4,1.15l-2.15,-2l0,-0.1l-0.95,-2.8l-1.15,-3.3l3.85,0.15l1.4,2.55m-23.4,5.05l0.15,-4.85l3,-2.05l4.25,-0.3l1.7,2.45l0.15,1.95l0,0.1l0,0.05l0.05,0.5l0.05,0.35l-1.35,0.6l-2.25,2.65l-5.85,0.1l0.1,-1.55l0.6,-0.35l-0.6,0.35m-24.5,61.4l1.7,5.6l-4.9,-3.25l1.9,-2.3l1.3,-0.05m-6.2,0.2l-2.6,3.45l6.5,2.25l0.35,1.15l-0.25,0l-24.5,0.35l-8.75,1.05l1.45,-7l6.8,-0.35l21,-0.9m-102.65,8.55l1.9,-0.35l5.25,-0.65l0.35,0.1l-0.3,1.2l3.05,1.2l-1.6,2.45l2.25,2.45l-9,1.95l-0.75,0.25l-1.85,-4.55l0.7,-4.05"/>
   <path id="svg_14" fill-rule="evenodd" fill="#575b04" d="m245,83.3l0.1,0.75l0.4,3.9l-5.85,-1.55l-0.45,-6.3l0,-0.15l-0.05,-0.4l-2.1,-4.3l3.85,0.55l0.05,0.05l0.95,3.35l3.1,4.1m-77.45,2.75l2.55,2.25l-2.7,4.2l-0.65,-1.65l0.25,-4l0.55,-0.8m13.15,2l-4.55,0.4l-1.1,-2.2l0.25,-1.1l2.5,0.45l4.6,-1.8l0.2,1.2l-0.85,2.95l-1.05,0.1m13.9,-7.4l0.75,2l-0.95,2.45l-5.7,1.25l-1.5,-2.85l0,-1.6l3.6,0.85l3.8,-2.1m31.3,-5.25l2.15,2l1.4,-1.15l1.35,2l-0.05,2.25l-3.95,-0.45l-1.15,-0.9l0.25,-3.75m-20.35,3.1l5.85,-0.1l2.25,-2.65l1.35,-0.6l0.4,5.15l-2.15,1.3l-6.45,0l-1.25,-2.8l0,-0.3"/>
   <path id="svg_15" fill-rule="evenodd" fill="#f3e43a" d="m172.05,85.35l0.95,-0.45l0.25,-0.15l0.6,-0.3l0.35,0.25l1.65,-1.85l-0.55,2.3l-0.25,1.1l1.1,2.2l4.55,-0.4l-4.25,13.95l-11.9,22.3l-4.85,0.65l-0.9,0.15q-6.7,0.95 -11.15,2.2l-3.7,1.25l9.45,-10.95l6.45,-13.35l7.55,-11.75l2.7,-4.2l1.95,-2.95"/>
   <path id="svg_16" fill-rule="evenodd" fill="#6d5123" d="m240.25,128.25l-1.45,4.2q-0.15,0.1 -0.25,0.15l-1.35,-5.4l-14.4,-2.4l-6.15,0.45l0.15,-0.5l-0.15,-2.1l-0.55,-6.45l10.45,-1.3l0.25,-11.4l3.45,10.15l7.45,-1.75l-1.6,-10.8l1,0l5.3,14.3l0.05,4.6l-0.95,4.5l-1.25,3.75m-37.1,-9.9l-0.95,5.85l-0.25,1.55l0.2,0.5l-2.25,0.2l-12.1,5.95l0.85,2.65l-3.25,-1.85l-2.8,-3.1l-1.85,-2.7l0.4,-5.05l2,0l1.8,-6.7l1.85,0l0.5,5.75l0.05,0.9l0,0.05l0.15,-0.05l15.65,-3.95m-15.85,3.05l-1.8,0.55l1.8,-0.55m51.5,3.5l-12.75,-3.55l12.75,3.55m-51.7,3.15l5.2,-2.4l-5.2,2.4"/>
   <path id="svg_17" fill-rule="evenodd" fill="#684e11" d="m266.35,120.55l-5.25,1.4l-2.95,1.2l-3,-2.85l1.3,3.55l-4.1,1.65l-3.3,-7.65l-1.85,0.65l1.3,8l-8.25,1.75l1.25,-3.75l0.95,-4.5l-0.05,-4.6l9.5,1.5l12.05,1.85l-9.9,-18l11.2,16.85l0.95,2.5l0.15,0.45m-118.7,6.75q4.45,-1.25 11.15,-2.2l-2.45,3.6l-8.7,-1.4m12.05,-2.35l4.85,-0.65l11.9,-22.3l-2.5,21.55l7.2,-1.2l-0.4,5.05l1.85,2.7l-6.55,1l-1,-0.1l-0.85,-3.2l-1.9,0l-1.15,2.75l-12.9,-1.65l1.45,-3.95"/>
   <path id="svg_18" fill-rule="evenodd" fill="#b6913d" d="m142,149.95l0.25,2.55l-3.95,1.05l-8.6,-3.15l0.95,-0.75l0,-3.3l2.45,-5.6l0.7,-1.7l9.45,0.45l-0.1,0.55l-1.4,7.2l0,0.05l0.25,2.65m-4.7,-6.85l-0.05,0.1l-0.85,3.65l3.45,0.4l0.9,-2.65l-0.5,-1.5l-2.95,0"/>
   <path id="svg_19" fill-rule="evenodd" fill="#ddc195" d="m122.25,138.8l0.75,3.6l-4.5,0.1l0,-1.6l2.1,-2.25l1.65,0.15m15.05,4.3l2.95,0l0.5,1.5l-0.9,2.65l-3.45,-0.4l0.85,-3.65l0.05,-0.1m-54.1,0.1l2.75,0.05l0.05,1.9l0.05,0.5l-2.85,0.6l0,-0.8l0,-2.25m13.75,3.5l-3.8,0.95l-0.05,-0.1l-1,-2.6l4.95,-0.15l-0.1,1.65l0,0.25"/>
   <path id="svg_20" fill-rule="evenodd" fill="#3a3d05" d="m259,147.6q-0.1,1.25 -1.35,2.9l-5.4,-0.3q-1.35,-0.65 -2,-2.4l-0.25,-0.65l-6.35,-0.3l0,-0.05l-0.45,0l-17.85,-0.3l1.75,-6.9l2.95,-1.8l12.4,0.15l0.1,0l0.85,0.05l6.25,-0.3l1.1,-2.6q3.65,-1.35 7.05,0.35q0.7,1.5 0.65,3.05l0.05,0.2q-0.35,-0.2 -1.25,4.4q-0.1,3.95 0.95,4.45l0.8,0.05m-65.2,-9.55l0.2,0.1l5.35,4.2l2.6,3.65l1,0.15l-0.2,0.45l-17.85,0.55l-4.95,0.2l-1,-1.95l0.25,0l-0.35,-1.15l-6.5,-2.25l2.6,-3.45l4.9,-0.15l-1.9,2.3l4.9,3.25l-1.7,-5.6l12.65,-0.3m56.2,9.1q-0.95,-4.8 -0.35,-9.45q-0.6,4.65 0.35,9.45m7.5,2.25q-0.65,-2.9 -0.8,-6.65q0.45,-6.15 1.15,-5.95q-0.7,-0.2 -1.15,5.95q0.15,3.75 0.8,6.65m-114.35,-9.35l4,-0.25l-1.45,7l-3.95,0.5l0,-0.05l1.4,-7.2"/>
   <path id="svg_21" fill-rule="evenodd" fill="#856229" d="m249.35,164.6l3.55,1.05l8.35,7.8q0.75,5.85 0.6,11.7l-2,6.2l-1.35,43.25l-0.05,1.35l0.7,3.05l-1.9,0.5l-1.75,-6.75l0.65,-35.05l-2.75,2.15l-4.6,-7.6l1.25,9.25l-5.05,4.8l-0.5,-5.45l-1,-9.4l-1,0.75l-1.05,-0.65l-1.4,-0.45l-1.45,0.3l-0.6,-0.9l-2.3,-3.35l-2.9,-0.2l4.25,-10.45l7.6,-10.9l2.25,-1.25l2.45,0.25m-10.8,-32l-8.5,5.2l-2.95,1.8l-1.7,1.05l-4.35,6.45l-11.65,0l-4.25,-0.65l-2.2,-0.3l-1,-0.15l-2.6,-3.65l-5.35,-4.2l-0.2,-0.1l-5.15,-3l-0.85,-2.65l12.1,-5.95l2.25,-0.2l1.95,4.2l10.15,0l2.4,-5.2l6.15,-0.45l14.4,2.4l1.35,5.4m-35.8,14l0.2,-0.45l2.2,0.3l10.25,6.05l6.7,9.25l-6.6,3.25q3.8,0.65 8.2,0.15l-1.75,4.8l-4.9,8.05l-1.4,-2.7l-2.65,2.05l2.9,3.7l-2.75,4.5l-5.6,-2.35l-5.8,-3.3l4,-2.75l-2.05,-1.8l-3.3,2.55l0.35,-1.05l2.1,-5.9l-2.85,0.05l-2.85,0.05l-0.15,6.15l-0.85,-0.45l-4.2,-1.85l-0.45,-0.2l-0.7,-0.35l0,-0.2l9.15,-10.15l-1.8,-1.5l-5,3.25l-2.3,4.5l0.1,-3.65l2.3,-7.2l-1.45,-3.6l1.85,-2.45l7.8,-3.35l0.75,-1.95l0.55,-1.45m-22.8,0.75l4.95,-0.2l-2.1,0.65l-3.75,7.6l1.2,2.9l-0.1,0.9l-1.5,0.35l0.8,5.05l-0.85,2.55l-0.45,-2.15l-6.05,-11.15l-3,3.55l7.6,8l0.85,1.1l0.85,1.05l-7.7,-4.15l-5.15,-2.75l2.55,-9.2l4.6,-3.45l1.35,-0.35l5.9,-0.3m16.3,9.05l3.7,-2.45l1.5,-3.95l-1.5,3.95l-3.7,2.45m35.5,-26.4l-4.6,-2.2l4.6,2.2m-89.5,22.5l0,0.05l-5.4,4.45l-3.7,-0.05l-6.8,6l-3.5,6.75l-0.35,0.7l-3.6,0.5l-2.9,2.3l-2.2,-0.15l-1.5,-2.65l-0.5,-4.75l1.6,-0.45l5.6,0.85l7.3,-10.8l0.05,0l0.3,-0.35l-0.35,0.35l-7.4,0.8l1.35,4.45l-8.2,2.15l1.4,-2.3q0.3,-4.6 1.95,-7.35l0.1,-0.2l0.1,-0.35l1.1,-0.9l7.15,0.25l3.85,0.15l0.85,-0.7l1.15,-0.85l8.6,3.15l3.95,-1.05m15.65,16.8l6.2,-6.55l0.8,0.3l7.05,2.75l0.75,0.3l2.25,1.45l-1.3,1l0.25,2.45l-1.6,6.8l-7.55,4.75l-19.2,21.5l-9.2,6.05l-0.25,-6.15l7.7,-2.75l19.2,-20.95l3.4,-10l-4.3,-2.75l-4.2,1.8m55.85,-4.7l1.75,0.4l-1.75,-0.4m-49.7,1.5l0.85,-3.05l-0.85,3.05m3.45,13.35l-2.75,3.1l2.75,-3.1m39.65,-15.6q-1,1 -2.3,0.35q-1.05,-0.65 -1.55,-1.1q0.5,0.45 1.55,1.1q1.3,0.65 2.3,-0.35m37.75,22.8l-4.25,2.1l-2.65,1.75l2.65,-1.75l4.25,-2.1m-21.55,-47.7q-15.9,-5.35 -24.85,-1.15q8.95,-4.2 24.85,1.15m-143.5,7.1l0.05,-0.3l3.3,-0.3l0,0.8l2.85,-0.6l-0.05,-0.5l1.15,-0.1l2.05,-6.9l1.6,0.2l-1.6,5.1l-0.05,0l0,0.05l-0.05,1.4l-0.1,2.2l0.1,-2.2l3.05,2.9l0.95,-0.25l0.05,0.1l3.8,-0.95l0,0.55l0,-0.55l0,-0.25l1.1,-0.3l-0.95,-4.25l3.1,-7.45l2.9,2.2l1.3,1.7l-0.45,4.95l-3.4,0.35l-0.15,4.55l-7,3.4l-4.5,-1.75l0.1,-2.75l-5.2,2l-1.2,-0.5l-0.05,0l-3.05,-1.2l0.3,-1.2l0.05,-0.15m34.05,-11.4l1.3,1.75l-0.75,6.1l-0.05,0.3l0,0.05l-0.1,0.8l0.5,1.1l-0.3,-1.95l3.55,0l4.6,0l2.7,-2.8l0.35,1.35l0.5,1.65l-0.75,2.65l-9.9,0.85l-0.75,-1.75l0.15,1.65l1.5,4.05l-2.9,2.6l-1.45,1.35l-3.6,0.4l-1,0.1l-0.55,-0.95l-3.4,-6.3l0.2,-2.5l2.25,1.75l5.5,-2.35l2.4,-9.9m11,-2.75l0.3,1.2l-0.6,3.2l-4.6,-1l4.9,-3.4m-34.3,24.45l11.75,-1.8l-2.2,3.2l-3.8,3.1l-7.4,0l1.65,-4.5m11.2,-17.15l-1.15,2.7l-0.1,0.25l0,1.5l0,-1.5l0.1,-0.25l1.15,-2.7m-1.15,2.7l2,-0.1l-2,0.1m14.55,29.5l3.7,-0.5l-3.7,0.5m-7.6,-21.55l1,-0.2l-1,0.2m3.65,1.7l0.05,0l0,-0.05l0.65,-2.5l-3.35,0.65l-0.35,1.8l3,0.1m-23.25,12l2.65,3.35l1.1,0.2q0.6,3.25 2.45,6.55l-3.3,-1.1l-1,-1.55l-1.75,-2.7l-0.7,-3.05l0.55,-1.7m44.3,-6.65l0.85,0.05l-0.85,-0.05"/>
   <path id="svg_22" fill-rule="evenodd" fill="#495306" d="m178.95,145.4l1,1.95l-5.9,0.3l-28.95,2l-3.1,0.3l-0.25,-2.65l3.95,-0.5l8.75,-1.05l24.5,-0.35m-119.4,13.85l1.6,1.8l6.8,-1.8l1.85,-3.55l-0.05,-0.55q-0.05,-6.8 0.85,-7.3l0.5,-0.5l1.2,-0.25l-0.7,4.05l1.85,4.55l0.75,-0.25l9,-1.95l-2.25,-2.45l1.6,-2.45l0.05,0l1.2,0.5l5.2,-2l-0.1,2.75l4.5,1.75l7,-3.4l0.15,-4.55l3.4,-0.35l-0.2,1.85l-0.2,2.5l3.4,6.3l-2.6,0.3l-2,0.3l-11.75,1.8l-5.9,0.95l-10.5,3.5l-2.1,1l-0.6,0.2l0,2.6l-9.8,1.85l-1.4,-2.15q-0.5,-2.2 -0.75,-5.05m66.15,-17.9l3.05,-0.25l1.3,2.8l1.9,-3.05l1.15,-0.1l-2.45,5.6l0,3.3l-0.95,0.75l-1.15,0.85l-4.7,0.55l-7.15,-0.25l-1.1,0.9l-0.45,0.4l-1.6,0.2l2.9,-2.6l-1.5,-4.05l-0.15,-1.65l0.75,1.75l9.9,-0.85l0.75,-2.65l-0.5,-1.65m-55.9,14.35q0.15,4.5 1.7,6.3q-1.55,-1.8 -1.7,-6.3"/>
   <path id="svg_23" fill-rule="evenodd" fill="#5c6804" d="m79.45,146.1l0.4,-0.05l-0.05,0.15l-0.35,-0.1m49.3,-5l3.2,-0.25l-1.9,3.05l-1.3,-2.8m45.2,100.3l0.95,0.6l-2.35,8.9l7,0l-0.95,-6.7l3.9,2.45l16.4,5.05l0.2,0.05l-45.8,0l3.2,-9.25l7.2,-4.95l-1.55,5.15l-4.3,2.35l2.5,2.6l3.55,-1.75l4.6,1.35l1.25,-4.15l4.2,-1.7"/>
   <path id="svg_24" fill-rule="evenodd" fill="#dfc42b" d="m245.55,83.95l-0.45,0.1l-0.1,-0.75l0.55,0.65m-81.45,78.8l-1.7,-0.65l1.25,-2.45l1.9,1l5.15,2.75l1.25,2.4l-7.05,-2.75l-0.8,-0.3m14.3,4.8l-0.85,-1.05l0.95,0.95l0.1,-0.3l0.1,0.5l-0.2,-0.2l-0.1,0.1m21.6,3.45l2.85,-0.05l-2.1,5.9l-0.75,-5.85m-19.75,-1.35l-0.05,0l0.05,-0.05l0,0.05m4.9,6l-5,0.75l-2.45,-3.65l3.35,0.25l4.1,2.65"/>
   <path id="svg_25" fill-rule="evenodd" fill="#412914" d="m216.1,116.2l0.55,6.45l-6.85,-0.35l-7.6,1.9l0.95,-5.85l3.8,-1l9.15,-1.15"/>
   <path id="svg_26" fill-rule="evenodd" fill="#5c401d" d="m202.2,124.2l7.6,-1.9l6.85,0.35l0.15,2.1l-0.15,0.5l-2.4,5.2l-10.15,0l-1.95,-4.2l-0.2,-0.5l0.25,-1.55"/>
   <path id="svg_27" fill-rule="evenodd" fill="#513f04" d="m232,156.55l3.45,-2.45l4.1,1.3l2.45,4l6.45,1.95l-7.25,3.4l-9.6,16.35l-1.95,7.65l-1.6,-7.95l-2.7,2.6l2.5,7.75l-2.4,-0.5l-0.55,-2.4l-0.4,-0.4l-1.7,-1.6l-1.3,0.3l-0.1,-0.3l-1.15,-2.2l6.55,-6.55l-1.65,-2.15l-5.75,7.05l-2.35,-4.4l4.9,-8.05l1.75,-4.8l1.2,-3.3l7.1,-5.3m-47.1,-9.4l17.85,-0.55l-0.55,1.45l-10.25,3.55l-1.9,4.95l1.5,3.35l-0.75,2.1l-3.25,-0.15l0.3,4.6l-2.25,-2.35l-1.6,2.15l-1,-7.7l-2.85,0.65l0.1,-0.9l-1.2,-2.9l3.75,-7.6l2.1,-0.65m28.25,38.4l2.75,-4.5l2.2,2.85l0.1,0.5l-1.9,2.55l-3.15,-1.4"/>
   <path id="svg_28" fill-rule="evenodd" fill="#8c6017" d="m170.7,163.4l7.7,4.15l0.1,-0.1l0.2,0.2l1.55,1.95l-0.05,0.05l-3.3,-1.3l-1.95,-0.8l-2.25,-1.45l-0.75,-0.3l-1.25,-2.4m6.85,3.1l-0.85,-1.1l-7.6,-8l3,-3.55l6.05,11.15l0.45,2.15l-0.1,0.3l-0.95,-0.95m1.9,-1.9l-0.8,-5.05l1.5,-0.35l2.85,-0.65l1,7.7l1.6,-2.15l2.25,2.35l1.05,1.05l-0.05,0.15l-0.85,0.65l-3.45,2.8l-0.4,0.35l-3,-1.35l-0.9,-0.45l0,-0.05l-0.8,-5m11.4,5.65l2.3,-4.5l5,-3.25l1.8,1.5l-9.15,10.15l0.05,-3.9m9.55,7.65l3.3,-2.55l2.05,1.8l-4,2.75l-0.25,-0.15l-0.15,-0.05l-0.2,-0.15l-1.1,-0.65l0.35,-1m15.5,3.15l-2.9,-3.7l2.65,-2.05l1.4,2.7l2.35,4.4l0.85,1.65l1.15,2.2l-0.05,0.3l0.15,0l1.3,-0.3l1.7,1.6l0.4,0.4l0.55,2.4l-1.3,-0.3l-0.65,-0.1l-6.15,-2.8l1.35,-0.3l2.65,-0.6l-2.65,0.6l-0.25,-1.35l-1.45,1.5l-0.7,-0.35l1.9,-2.55l-0.1,-0.5l-2.2,-2.85m-25.1,-6.65l0.45,0.3l-3.2,0.5l-2.5,0.4l-0.4,0.05l-4.1,-2.65l3.4,0.25l4.65,0.35l1.6,0.7l0.1,0.1m43.95,17.7l-1.3,0.25l-2.25,-0.5l0.65,-2.75l1.25,0.05l1.4,1.95l0.25,1m-50.75,-25.85l-2.5,3.3l2.5,-3.3m43.85,24.9l-2.5,-7.75l2.7,-2.6l1.6,7.95l0.6,2.9l-2.4,-0.5m-3.35,-3.3l-0.9,0.4l0.55,2.1l-0.55,-2.1l0.9,-0.4m-6.3,-3.45l0.25,1.4l-0.25,-1.4"/>
   <path id="svg_29" fill-rule="evenodd" fill="#382c03" d="m248.45,161.35l0.65,1.8l-2.2,1.2l-2.25,1.25l-7.6,10.9l-4.25,10.45l-0.45,-0.05l-0.5,2.2l-0.65,2.75l-0.95,-0.2l-0.6,-2.9l1.95,-7.65l9.6,-16.35l7.25,-3.4m-46.25,-13.3l-0.75,1.95l-7.8,3.35l-1.85,2.45l1.45,3.6l-2.3,7.2l0.1,-4.6l-0.25,0l0.75,-2.1l-1.5,-3.35l1.9,-4.95l10.25,-3.55"/>
   <path id="svg_30" fill-rule="evenodd" fill="#ab8a1d" d="m190.8,162l0.25,0l-0.1,4.6l-0.1,3.65l-0.05,3.9l0,0.2l-0.1,-0.05l-0.9,-0.65l-0.6,-0.05l-0.1,0l-1.15,-0.5l0.15,-3.35l-0.1,-1.45l0.85,-0.65l0.1,-0.1l-0.05,-0.05l-1.05,-1.05l-0.3,-4.6l3.25,0.15m6.2,15.2l0.15,-6.15l2.85,-0.05l0.75,5.85l-0.35,1.05l-0.95,0.7l-0.75,-0.4l-0.15,-0.1l-1.55,-0.9m22.4,5.2l5.75,-7.05l1.65,2.15l-6.55,6.55l-0.85,-1.65"/>
   <path id="svg_31" fill-rule="evenodd" fill="#373902" d="m240.95,75.85l3.35,4.95l5.2,2.4l2.05,6l-1.05,1.35l-4.95,-6.6l-0.55,-0.65l-0.15,-1.65l-0.55,-0.85l0.55,0.85l0.15,1.65l-3.1,-4.1l-0.95,-3.35"/>
   <path id="svg_32" fill-rule="evenodd" fill="#c58c0a" d="m235.8,78.4l-1.85,-0.85l-1,-0.45l-2.1,-1.7l0,-0.25l-0.05,-0.05l-1.75,-3.2l4.45,-2.8l1.05,-22.45l6,28l0.35,1.15l-3.85,-0.55l2.1,4.3l0.05,0.4l-3.4,-1.55m-1.5,-1.65l-0.35,0.8l0.35,-0.8"/>
   <path id="svg_33" fill-rule="evenodd" fill="#a0781b" d="m230.85,75.4l2.1,1.7l-2.1,-1l0,-0.7"/>
   <path id="svg_34" fill-rule="evenodd" fill="#c69f20" d="m239.2,80.1l-3.4,-1.7l3.4,1.55l0,0.15"/>
   <path id="svg_35" fill-rule="evenodd" fill="#785225" d="m225.35,146.5l-0.05,2.45l3,4l3.7,3.6l-7.1,5.3l-1.2,3.3q-4.4,0.5 -8.2,-0.15l6.6,-3.25l-6.7,-9.25l-10.25,-6.05l4.25,0.65l11.65,0l4.35,-6.45l1.7,-1.05l-1.75,6.9"/>
   <path id="svg_36" fill-rule="evenodd" fill="#424503" d="m258.45,138.5l0.1,0.15l-0.05,0.05l-0.05,-0.2"/>
   <path id="svg_37" fill-rule="evenodd" fill="#422400" d="m271.95,149.1l-4,-0.75l-0.05,0l-8.5,-0.75l-0.4,0l-0.8,-0.05q-1.05,-0.5 -0.95,-4.45q0.9,-4.6 1.25,-4.4l0.05,0l1.4,-0.1l7.95,0.4l0.05,0l2.45,0.3l-0.9,2.9l2.45,6.9"/>
   <path id="svg_38" fill-rule="evenodd" fill="#979706" d="m59.55,148.9l0.05,-0.05l-0.05,0l0.85,-2.1l8.25,-1.25l1.45,0l0.5,2.35q-0.9,0.5 -0.85,7.3l0.05,0.55l-1.85,3.55l-6.8,1.8l-1.6,-1.8l-0.2,-3.45q-0.05,-3.55 0.2,-6.9"/>
   <path id="svg_39" fill-rule="evenodd" fill="#c09738" d="m79.9,145.75l1.35,-4.8l2.05,-3.4l5.9,0.6l-2.05,6.9l-1.15,0.1l-0.05,-1.9l-2.75,-0.05l0,2.25l-3.3,0.3m10.9,-7.4l1.1,-3.5l8,-0.6l0.3,0.2l-3.1,7.45l0.95,4.25l-1.1,0.3l0.1,-1.65l-4.95,0.15l1,2.6l-0.95,0.25l-3.05,-2.9l0.05,-1.4l0.05,-0.05l1.6,-5.1m-8.1,4.8l0.5,0.05l-0.5,-0.05"/>
   <path id="svg_40" fill-rule="evenodd" fill="#c69e44" d="m131.5,194.05l12.25,-9.95l14.15,-14.8l4.2,-1.8l4.3,2.75l-3.4,10l-19.2,20.95l-7.7,2.75l-0.1,-3.9l-1.35,-5.95l-3.15,-0.05m113.5,12.25l5.05,-4.8l-1.25,-9.25l4.6,7.6l2.75,-2.15l-0.65,35.05l1.75,6.75l-6.85,1.85l-4.75,-0.85l0,-2.55l0.15,-22.65l-0.8,-9m-140.6,-67.95l0.15,-1.8l2.3,-4.55l6.2,1.5l0.85,1.15l-2.4,9.9l-5.5,2.35l-2.25,-1.75l0.2,-1.85l0.45,-4.95m10.8,-1.95l0.1,-1.05l-0.75,-6.05l3.4,-2.15l5.95,0.4l1,4.35l-4.9,3.4l4.6,1l-0.1,0.75l0.85,2.95l-2.7,2.8l-4.6,0l-3.55,0l-0.05,-0.3l0.75,-6.1m-26.05,7.1l0,-0.05l0.05,0l-0.05,0.05m33.1,-4.7l-1.65,-0.15l-2.1,2.25l0,1.6l4.5,-0.1l-0.75,-3.6m-2.35,-0.25l0.7,0.1l-0.7,-0.1m-1.4,3.95l-0.45,0.3l0.45,-0.3m-6.45,20.15l8.2,-2.15l-1.35,-4.45l7.4,-0.8l0.35,-0.35l-0.3,0.35l-0.05,0l-7.3,10.8l-5.6,-0.85l-1.6,0.45l-0.2,-2.25l0.45,-0.75m1.75,10.4l2.2,0.15l-1.45,1.25l-0.75,-1.4m-17.45,-12.2l-4.85,4l0.25,2.25l-1.1,-0.2l-2.65,-3.35l0.95,-2.7l7.4,0"/>
   <path id="svg_41" fill-rule="evenodd" fill="#e9dfad" d="m169.35,201.45l-2,-1.2l1.5,-1.6l1.85,-6l-1.1,-5.25l1.8,-2.15l6.45,5.6l17.2,7.95l6.7,1.3l3.9,5.15l1.35,-2.15l3.4,0.5l0.25,5.15l11.85,4.3l4.35,-1.9l0,16.3l-6.15,-0.2l-20.65,-10.1q-14.1,-5.65 -30.7,-15.7m2.25,-13.55l6.25,2.95l-6.25,-2.95m-70.05,-27.05l-1.35,3.05l-1.05,0.9l-2.8,2.45l0.1,0.55l-4.7,-0.7l-0.25,-2.25l4.85,-4l5.2,0m-9.55,22l13.65,5.3l2.4,0l-2.2,1.95l-12.8,-3.45l-2.05,-2.7l0.55,-1.3l0.45,0.2m19.45,5.3l2.45,0l1.7,-1.45l1.2,1.7l-6,2.35l0.65,-2.6m51.35,37.15l2.85,-7.15l-0.2,-0.25l1.95,-1.25l1.35,0.4l25.4,14.25l29.9,11.9l-3.05,10.6l-8.1,0l-0.8,-0.1l-6.45,-1.95l-8.25,-2.5l-23.9,-10.45l-9.85,-6.5l-0.45,-1.4l-0.4,-1.2l-0.55,-1.65l0.55,-2.75m45.75,-24l-0.4,-0.15l1.8,-2.9l0.45,3.45l-1.85,-0.4m0.45,50.45l-3.35,0l3.35,0"/>
   <path id="svg_42" fill-rule="evenodd" fill="#bfaa64" d="m122.8,170.4l-0.3,3.25l-1.55,1.95l0.4,6.2l-5.75,4.9l-1.7,1.45l-2.45,0l-3.4,0l-2.4,0l-13.65,-5.3l-0.15,-0.85l-0.75,-4.6l-1.6,-2.35l11.9,4.5l15.1,-1.1l3.5,-4.75l-4,-0.5l2.9,-2.3l3.6,-0.5l0.3,0m6,22.55l1.65,1.05l2.75,3.05l-3.45,15.1l-11.15,3.45l-7.25,-1.5l-5.45,-4.7l-1.25,-4.25l-4.65,-7.25l1.7,0.55l0.05,0l13.2,4.3l11.55,-3.5l0.8,-2.9l1.5,-3.4m-26.45,-38.4l2,-0.3l2.6,-0.3l0.55,0.95l1,-0.1l3.6,-0.4l1.45,-1.35l1.6,-0.2l0.25,0.1l0,0.05q-1.65,2.75 -1.95,7.35l-1.4,2.3l-1.65,0.45l-1.35,-2.55l-4.95,0.3l-2.55,0l2.8,-6.6l-2.8,6.6l-5.2,0l3.8,-3.1l2.2,-3.2m9.45,11.1l0.5,4.75l1.5,2.65l0.75,1.4l-0.05,0.05l-1.6,1.25l-4.4,-0.25l-10.8,-0.75l-1.25,-6.95l1.25,6.95l-0.15,0l-3.35,-1.1q-1.85,-3.3 -2.45,-6.55l4.7,0.7l5.45,0.8l9.9,-2.95m3.35,-12.8l-3.15,2.65l3.15,-2.65m-6.65,1.95l-1.35,3.65l-3.05,2.4l3.05,-2.4l1.35,-3.65m-1.75,13.2l1.75,7.5l-1.75,-7.5m9.3,13.7l4.9,-6.1l-4.9,6.1"/>
   <path id="svg_43" fill-rule="evenodd" fill="#ddd195" d="m101.55,160.85l2.55,0l-3.85,3.1l-0.05,-0.05l1.35,-3.05m63.9,57.05l-0.7,-1l1.15,-2.45l0.6,-9.55l1.6,-2l0.05,-0.05l37.95,19.35l-4.5,1.9l-0.05,0l-11.3,-1.2l-21.5,-5.85l-1.35,-0.4l-1.95,1.25m80.2,20.05l0,2.55l4.75,0.85l6.85,-1.85l0.65,2.45l-4.65,1.45l0.3,10.5l-9.45,0l-0.6,-11.75l2.15,-4.2"/>
   <path id="svg_44" fill-rule="evenodd" fill="#f1eac2" d="m184.55,171.1l0.1,0.55l-0.5,-0.2l0.4,-0.35m-7.65,-2.75l7.55,4.9l-3.4,-0.25l-3.35,-0.25l2.45,3.65l5,-0.75l0.4,-0.05l0.95,4.35l6.5,8.6l1.85,-8.6l0.5,-0.3l0.65,0.4l2.55,1.05l-0.65,13.9l1.9,2.5l-18.85,-8.15l-8.1,-5.85l-2,-1.45l0.75,-1.25l0.7,-3l1.6,-6.8l-0.25,-2.45l1.3,-1l1.95,0.8m-76.65,-4.4l3.85,-3.1l4.95,-0.3l1.35,2.55l1.65,-0.45l-0.45,0.75l0.2,2.25l-9.9,2.95l-5.45,-0.8l-0.1,-0.55l2.8,-2.45l1.1,-0.85m-2.55,10.8l10.8,0.75l4.4,0.25l1.6,-1.25l0.05,-0.05l1.45,-1.25l4,0.5l-3.5,4.75l-15.1,1.1l-11.9,-4.5l-0.35,-0.55l-0.55,-0.75l1.3,-2.75l1,1.55l3.3,1.1l3.35,1.1l0.15,0m67.95,43.4l-0.2,-0.25l0.2,0.25m-3.7,13.6l0,-0.15l0.35,-0.75l0.9,0.05l0.45,1.4l9.85,6.5l23.9,10.45l8.25,2.5l-6.55,0l6.55,0l6.45,1.95l-13,-1.95l-0.2,-0.05l-16.4,-5.05l-3.9,-2.45l-3.7,-2.2l-0.95,-0.6l-3.1,-1.95l-6.45,-4.2l-1.85,-1.15l-0.1,-0.45l-0.5,-1.9m66.3,-3.1l-4.2,14.55l-29.9,-11.9l-25.4,-14.25l21.5,5.85l10.7,2.95l22.2,3.7l5.1,-0.9"/>
   <path id="svg_45" fill-rule="evenodd" fill="#a5853a" d="m111.3,151.5l-0.05,0.05l-3,-0.1l0.35,-1.8l3.35,-0.65l-0.65,2.5"/>
   <path id="svg_46" fill-rule="evenodd" fill="#e1dca8" d="m115.5,152.8l-0.1,0.2l0,-0.05l0.1,-0.15"/>
   <path id="svg_47" fill-rule="evenodd" fill="#b19b52" d="m121.35,181.8l0.4,-0.35l3.05,3.85l1.1,5.05l0.15,0.75l2.75,1.85l-1.5,3.4l-3.55,1.35l3.55,-1.35l-0.8,2.9l-11.55,3.5l-13.2,-4.3l-0.05,0l-1.7,-0.55l-1.95,-0.7l-0.35,-4.35l-4.65,-6.2l12.8,3.45l2.2,-1.95l3.4,0l-0.65,2.6l6,-2.35l-1.2,-1.7l5.75,-4.9m9.1,12.2l1.05,0.05l3.15,0.05l1.35,5.95l0.1,3.9l0.25,6.15l-1.7,1.1l1.7,-1.1l0.05,1.6l-6.35,6.85l-16,-1.15l-2.7,-3.3l7.25,1.5l11.15,-3.45l3.45,-15.1l-2.75,-3.05m69.35,3.5l-1.9,-2.5l0.65,-13.9l0.3,0.15l21.6,8.9l10.9,3.95l3.85,0.05l1.1,4.4l5.95,-1.7l-2.3,-3.45l-1.35,-2l1.45,-0.3l1.4,0.45l1.05,0.65l1,-0.75l1,9.4l-1.9,3.05l0.25,2.85l-1.7,1.5l-0.05,0l1.25,2.2l-1.8,5.2l-1.15,7.6l0.65,2.6l-2.05,0.85l-0.3,0.25l-9.45,1.7l-5.1,0.9l-22.2,-3.7l-10.7,-2.95l11.3,1.2l0.05,0l4.5,-1.9l-37.95,-19.35l1.2,-1.4q16.6,10.05 30.7,15.7l20.65,10.1l6.15,0.2l0,-16.3l-4.35,1.9l-11.85,-4.3l-0.25,-5.15l-3.4,-0.5l-1.35,2.15l-3.9,-5.15l6.75,1.3l4.45,0.85l-2.55,-0.55l-0.45,-3.45l-1.8,2.9l-8.35,-3.65m-4.45,-17.85l-0.5,0.3l-1.85,8.6l-6.5,-8.6l-0.95,-4.35l2.5,-0.4l7.3,4.45m47.15,12.55l-2.55,1.2l2.55,-1.2m-129.2,6.6l1.7,-2l7.6,-1.45l3.3,-5l-3.3,5l-7.6,1.45l-1.7,2m110.35,9.2l4.1,0.5l13.35,-0.25l-13.35,0.25l-4.1,-0.5m12.55,34.3l0.6,11.5l-15.8,0l3.05,-10.6l0.85,0.35l11.3,-1.25m-8.55,-37.05l-14.7,-3l14.7,3m8.65,20.5q-3.25,1.55 -9.45,1.7q6.2,-0.15 9.45,-1.7"/>
   <path id="svg_48" fill-rule="evenodd" fill="#9b7d1a" d="m235.2,194.15l-0.45,-2.05l-0.25,-1l-1.4,-1.95l-1.25,-0.05l0.5,-2.2l0.45,0.05l2.9,0.2l2.3,3.35l0.6,0.9l1.35,2l2.3,3.45l-5.95,1.7l-1.1,-4.4m-2.45,-5.5l0.35,0.5l-0.35,-0.5"/>
   <path id="svg_49" fill-rule="evenodd" fill="#b69f54" d="m258.5,234.6l4.1,4.35l0.95,6.45l-1.5,0.25l3.05,8.25l-11.55,0l-0.3,-10.5l4.65,-1.45l-0.65,-2.45l1.9,-0.5l-0.7,-3.05l0.05,-1.35m-66.55,-59.7l4.2,1.85l0.85,0.45l1.55,0.9l-3.2,1.55l-7.3,-4.45l3.2,-0.5l0.7,0.2m9.8,5l5.8,3.3l5.6,2.35l3.15,1.4l0.7,0.35l1.45,-1.5l0.25,1.35l-1.35,0.3l6.15,2.8l0.65,0.1l1.3,0.3l2.4,0.5l2.4,0.5l0.95,0.2l2.25,0.5l1.3,-0.25l0.45,2.05l-3.85,-0.05l-10.9,-3.95l-21.6,-8.9l2.3,-1.45l0,-0.25l0.2,0.15l0.15,0.05l0.25,0.15m-13.8,-6.8l1.15,0.5l-4.65,-0.35l-7.55,-4.9l3.3,1.3l0.05,0l0,0.05l0.9,0.4l3,1.35l0.5,0.2l3.3,1.45m-15.1,10.4l8.1,5.85l18.85,8.15l8.35,3.65l0.4,0.15l-0.05,0.1l-6.75,-1.3l-6.7,-1.3l-17.2,-7.95l-6.45,-5.6l1.45,-1.75m57.5,8.7l-0.1,-0.55l0.1,0.55m-13,-4.75l-0.35,-0.15l0.35,0.15m8.2,3.8l-0.1,-0.6l0.1,0.6m35.55,47.2l-1.95,0.55l1.95,-0.55m-3.95,7.9l4.9,-0.7l-4.9,0.7m-19.15,-19.45l-1.8,15.4l-11.3,1.25l-0.85,-0.35l4.2,-14.55l9.45,-1.7l0.3,-0.05"/>
   <path id="svg_50" fill-rule="evenodd" fill="#e8d69b" d="m198.55,181.1l-2.55,-1.05l-0.65,-0.4l3.2,-1.55l0.15,0.1l0.75,0.4l0.6,0.3l1.1,0.65l0,0.25l-2.3,1.45l-0.3,-0.15m1.3,-1.65l0.2,-0.55l-0.2,0.55"/>
   <path id="svg_51" fill-rule="evenodd" fill="#d7ad22" d="m160,227.9l-2.05,-1.45l2.15,0.65l-2.15,-0.65l-3,-2.2l1.25,-0.65l6.6,1.7l-0.55,2.75l0.55,1.65l-0.5,1.15l-1.2,-0.05l-13.2,0.15l0.75,-3.05l4.45,0.25l6.9,-0.25l0.45,0.25l-0.45,-0.25m2.45,5.75l0.1,0.45l1.85,1.15l6.45,4.2l-1.1,3.65l-1.25,4.15l-4.6,-1.35l-2.5,-0.7l0.75,-2.5l1.55,-5.15l-7.2,4.95l-2.05,1.45l-4.25,-5.4l12.25,-4.9m12.45,8.35l3.7,2.2l0.95,6.7l-7,0l2.35,-8.9m-10.5,-6.75l-0.7,2.3l0.7,-2.3"/>
   <path id="svg_52" fill-rule="evenodd" fill="#b58820" d="m157.95,226.45l2.05,1.45l-6.9,0.25l2,-2.15l2.85,0.45m4.35,4.4l-0.35,0.75l0,0.15l-11.25,5.4l-0.5,-2l10.9,-4.35l1.2,0.05m8.55,8.6l3.1,1.95l-4.2,1.7l1.1,-3.65m-6.95,6.45l-3.55,1.75l-2.5,-2.6l4.3,-2.35l-0.75,2.5l2.5,0.7"/>
   <path id="svg_53" stroke-width="0.25" stroke-opacity="0.372549" stroke-linejoin="round" stroke-linecap="round" stroke="#000000" fill="none" d="m332.75,122.95l-16.05,-0.45q-3.95,0.55 -7.1,6.25l-3.15,4.85q-6.5,1.65 -9.95,1.25q-4.55,-1.25 -8.15,2.5q-1.95,3.4 -4.4,4.05l-8.75,-1.45m31.35,20.15l0,0.5m19.75,-10.8q-2.75,0.7 -7.15,-0.65m-8.05,-3.2q-0.65,-1.15 -0.65,-4.1l0.15,-0.45m23.2,-18.45q2.15,-0.65 3.05,-3.4l0.5,-2.85l0.55,-2.85q0.95,-1.85 1.85,-0.75q0.5,3.45 0.3,6.85l-0.3,2.5l-1.05,3.6q-0.9,2.3 -2.15,4.4l-4.55,1.5q-15.45,-4.5 -20.1,4.9l-1.3,4.55m18.85,2.9l0.4,-3.4l1,-0.6q1.45,0.95 2.25,5.7l-0.55,2.5l-0.55,2.6l-1.95,5.3l-2.7,2.35q-8.85,0.3 -17,-3.4q-2.35,0.25 -3.35,3.75q-0.3,0.85 -0.45,2l-0.05,1.3l-0.1,4.55q-0.05,1.75 0.35,3.3q0.5,1.8 1.5,3.4m0.2,0.25l1.35,1.7l2.1,1.3q6.45,3.1 12.3,1.15l1.35,-0.55q2.05,-0.5 2.9,-4.75l0.35,-1.95l0.4,-2.15q1.25,-2.2 2.2,2.4l0,2.65q-0.15,3.4 -1.05,6l-0.25,0.55q-2.7,6.65 -8.45,6.5q-8.45,0.75 -15.75,-2.3l-2,-2.65q-1.1,-1.85 -1.8,-4.2l-0.65,-8q-0.35,-1.2 -1.25,-2.05q-4.7,0.55 -9.15,-1.45q-3.5,-1.8 -5.4,-6.35l-1.95,-7.15l-2.15,-1.25l-0.15,-0.05l-9.45,-2.2l-4,-0.75l-0.05,0l-8.5,-0.75l-0.4,0q-0.1,1.25 -1.35,2.9l-5.4,-0.3q-1.35,-0.65 -2,-2.4l-0.25,-0.65l-6.35,-0.3m0,-0.05l-0.45,0l-17.85,-0.3l-0.05,2.45l3,4l3.7,3.6l3.45,-2.45l4.1,1.3l2.45,4l6.45,1.95l0.65,1.8l0.25,1.45l3.55,1.05l8.35,7.8q0.75,5.85 0.6,11.7l-2,6.2l-1.35,43.25l4.1,4.35l0.95,6.45l-1.5,0.25l3.05,8.25l8.75,0m52.45,-104.1l1.8,-0.75l1.25,-3.8l0.1,-0.95m-88.5,-68.45l3.35,4.95l5.2,2.4l2.05,6l-1.05,1.35l0.05,0.1l6.75,8.85l11.9,20.85l-1.55,-0.1l-1.3,0.3l-5.25,1.4l-2.95,1.2l-3,-2.85l1.3,3.55l-4.1,1.65l-3.3,-7.65l-1.85,0.65l1.3,8l-8.25,1.75l-1.45,4.2q-0.15,0.1 -0.25,0.15l-8.5,5.2l12.4,0.15l0.1,0l0.85,0.05l6.25,-0.3l1.1,-2.6q3.65,-1.35 7.05,0.35q0.7,1.5 0.65,3.05l0.1,0.15l0,0.05l1.4,-0.1l7.95,0.4l0.05,0l2.45,0.3l4.8,0.65m-29.65,-56l-0.55,-0.65l0.1,0.75l0.4,3.9l-5.85,-1.55l-0.45,-6.3l-3.4,-1.7m-1.85,-0.85l-0.3,0.7m10.65,2.55l0.55,0.85l0.15,1.65l-3.1,-4.1l-0.95,-3.35l-0.05,-0.05l-3.85,-0.55l2.1,4.3l0.05,0.4l0,0.15m6.35,3.85l4.95,6.6m-37.35,-88.5l7.95,3.75l6.35,18.2l5.8,16.5l1.3,6.15l6,28l0.35,1.15m-63.9,-7l-2.85,11.9l0,0.05l-0.1,0.45l-1.7,3.7l-0.3,0.45l0.95,-0.45m0.25,-0.15l0.6,-0.3m0.35,0.25l1.65,-1.85l1.05,-4.65l4.4,-0.5l0.8,4.55l1.75,-2.5l1.6,1.45m0.1,0.25l1.6,-1l-0.05,-3.55l2,-2.6l4.7,0l1.25,1.05l0.5,0.45m17.35,-73.75l-24.05,19.35l-2,6.2l-9.85,41.2m-2.85,11.95l-0.05,0l-2.75,-0.25l-3.8,5.55l-0.55,0.8l-0.25,4l0.65,1.65l-7.55,11.75l-6.45,13.35l-9.45,10.95l3.7,-1.25q4.45,-1.25 11.15,-2.2l0.9,-0.15l4.85,-0.65l11.9,-22.3m-6.35,-13.7l1.95,-2.95m3.25,-0.2l-0.25,1.1l1.1,2.2l4.55,-0.4l1.05,-0.1l0.85,-2.95l-0.2,-1.2l-0.3,-1.55m-6.8,2.9l0.55,-2.3m-8.45,9.65l2.7,-4.2m30.2,-10.4l0,-1.65m-6.25,2.45l3.95,-2.1l0.55,1.25m4.5,0.15l0.15,-0.35l0,-0.1l0.5,-1.05m-9.1,4.15l-0.65,-1.55l0.1,-0.4l1,-3.35m-7.85,6.55l0,1.6l1.5,2.85l5.7,-1.25l0.95,-2.45l-0.75,-2m-7.4,1.25l-0.05,-1.45m-2.05,1.25q0.2,-0.15 0.45,-0.25m43.5,-9.55l1.75,3.2l0.05,0.05l0,0.25l2.1,1.7m1,0.45l0.35,-0.8m-5.25,-4.85l-1.4,-2.55l-3.85,-0.15l1.15,3.3l0.95,2.8l0,0.1m4.9,2.85l0.05,-2.15l0,-0.7m-10.55,-2.5l-0.65,0.9m-14,3.15l0.15,-4.85l3,-2.05l4.25,-0.3l1.7,2.45l0.15,1.95l0,0.1l3.4,-1.7m-3.3,2.6l-0.05,-0.35l-0.05,-0.5l0,-0.05m6.75,0l0.75,-0.85m-7.4,1.75l0.4,5.15l-2.15,1.3l-6.45,0l-1.25,-2.8l0,-0.3l0.1,-1.55l-1.35,0.65m1.35,-0.65l0.6,-0.35m24.55,1.65l-0.05,2.25l-3.95,-0.45l-1.15,-0.9l0.25,-3.75m10.2,25.7l1,0l5.3,14.3l9.5,1.5m-35.8,-0.7l10.45,-1.3l0.25,-11.4l3.45,10.15l7.45,-1.75l-1.6,-10.8m4.15,27.15l1.25,-3.75l0.95,-4.5l-0.05,-4.6m-25.75,7.25l-0.55,-6.45l-9.15,1.15l-3.8,1l-0.95,5.85m14.45,-1.55l0.15,2.1l-0.15,0.5m-13.9,21.35l0.2,-0.45l-1,-0.15l-2.6,-3.65l-5.35,-4.2l-0.2,-0.1l-12.65,0.3m-1.3,0.05l-4.9,0.15m5,8.8l4.95,-0.2l17.85,-0.55l-0.55,1.45l-0.75,1.95l-1.5,3.95l-3.7,2.45m6.7,-10.25l2.2,0.3l4.25,0.65l11.65,0l4.35,-6.45l1.7,-1.05l2.95,-1.8m-27.9,-11.55l1.95,4.2l10.15,0l2.4,-5.2m10.45,14.35l-1.75,6.9m-38.05,-25.1l-0.5,-5.75l-1.85,0l-1.8,6.7l-2,0l-0.4,5.05l1.85,2.7l2.8,3.1l3.25,1.85m13.5,-8.8l-0.2,-0.5l0.25,-1.55m-14.9,-2.8l0.05,0.9l0,0.05l0.15,-0.05l15.65,-3.95m-22,4l-7.2,1.2l2.5,-21.55m-16.75,22.95l-1.45,3.95l12.9,1.65l1.15,-2.75l1.9,0l0.85,3.2l1,0.1l6.55,-1m-2.75,8.3l1.3,-0.05m-15.6,22.3l2.55,-9.2l4.6,-3.45l1.35,-0.35l-28.95,2l-3.1,0.3l0.25,2.55l0,0.05l-5.4,4.45l-3.7,-0.05l-6.8,6l-3.5,6.75l-0.05,0.7l-0.3,3.25l-1.55,1.95l0.4,6.2l0.4,-0.35l3.05,3.85l1.1,5.05l0.15,0.75l2.75,1.85l1.65,1.05l1.05,0.05l12.25,-9.95l14.15,-14.8l6.2,-6.55l-1.7,-0.65l1.25,-2.45l1.9,1l5.15,2.75l7.7,4.15l-0.85,-1.05l-0.85,-1.1l-7.6,-8l3,-3.55l6.05,11.15l0.45,2.15l0.85,-2.55l-0.8,-5.05l1.5,-0.35l0.1,-0.9l-1.2,-2.9l3.75,-7.6l2.1,-0.65m-4.95,0.2l-5.9,0.3m19.75,-9.6l-5.15,-3m2.3,31.55l2.3,-7.2l-1.45,-3.6l1.85,-2.45l7.8,-3.35m0.75,-1.95l-10.25,3.55l-1.9,4.95l1.5,3.35l-0.75,2.1l0.25,0l-0.1,4.6l-0.1,3.65l2.3,-4.5l5,-3.25l1.8,1.5l-9.15,10.15l0,0.2l0.7,0.35l0.45,0.2l4.2,1.85l0.85,0.45l0.15,-6.15l2.85,-0.05l2.85,-0.05l-2.1,5.9l-0.35,1.05l3.3,-2.55l2.05,1.8l-4,2.75l5.8,3.3l5.6,2.35l2.75,-4.5l-2.9,-3.7l2.65,-2.05l1.4,2.7l4.9,-8.05l1.75,-4.8q-4.4,0.5 -8.2,-0.15l-1.75,-0.4m-25.9,1.85l-0.3,-4.6l3.25,0.15m-10.65,-2.8l2.85,-0.65l1,7.7l1.6,-2.15l2.25,2.35l1.05,1.05l0.05,0.05l-0.1,0.1l-0.85,0.65l0.1,1.45l-0.15,3.35l1.15,0.5l0.1,0l0.6,0.05l0.9,0.65l0.1,0.05l0,0.05l0.45,0.3l0.25,0m-6.85,-3.05l3.3,1.45m-3.3,-1.45l-0.5,-0.2l-3,-1.35l-0.9,-0.4l0,-0.05l-0.05,0l-3.3,-1.3l7.55,4.9l4.65,0.35l1.6,0.7l0.1,0.1m-6.65,-2.95l0.4,-0.35l3.45,-2.8m0.85,-0.65l0.05,-0.15m-52.8,36.45l0.25,6.15l9.2,-6.05l19.2,-21.5l2.75,-3.1m-2.6,-16.4l-0.85,3.05m0.05,-3.35l0.8,0.3l7.05,2.75l0.75,0.3l2.25,1.45l1.95,0.8m-1.95,-0.8l-1.3,1l0.25,2.45l-1.6,6.8l-0.7,3l-0.75,1.25l2,1.45l8.1,5.85l18.85,8.15m-1.25,-16.4l-2.55,-1.05l-0.65,-0.4l-7.3,-4.45l-2.5,0.4l-0.4,0.05l-5,0.75l-2.45,-3.65l3.35,0.25l3.4,0.25m-4.2,-3.6l0,-0.05l-1.55,-1.95l-0.2,-0.2l-0.1,0.1m1.85,2.1l0.9,0.45m-3.6,-3.6l0.95,0.95l0.1,-0.3l0.1,0.5m1.55,1.95l-0.8,-5m-8.05,20.65l-1.8,2.15l1.1,5.25l-1.85,6l-1.5,1.6l2,1.2q16.6,10.05 30.7,15.7l20.65,10.1l6.15,0.2q6.2,-0.15 9.45,-1.7m-34.55,-25.65l-6.7,-1.3l-17.2,-7.95l-6.25,-2.95m0.7,-10.1l-7.55,4.75m8.1,0.95l-1.45,1.75m28.05,-6.65l-0.75,-0.4m1.35,0.7l-0.6,-0.3l0.95,-0.7l-0.35,1l1.1,0.65l0.2,0.15m0.15,0.05l0.25,0.15m-2.9,1.35l-0.3,-0.15m0.3,0.15l21.6,8.9l10.9,3.95l3.85,0.05l-0.45,-2.05l-1.3,0.25l-2.25,-0.5l-0.95,-0.2l0.1,0.55m-31.8,-14.1l-1.55,-0.9m3.05,1.7l-0.2,0.55m-8.6,-4.75l0.7,0.2m-0.7,-0.2l-3.2,0.5m-6.55,-5.65l2.5,-3.3m6.8,7.9l0.05,-3.9m41.15,-13.7l-7.1,5.3l-1.2,3.3m-20.4,-2.05q0.5,0.45 1.55,1.1q1.3,0.65 2.3,-0.35m9.9,14.15l2.35,4.4l5.75,-7.05l1.65,2.15l-6.55,6.55l1.15,2.2l-0.05,0.3l0.15,0l1.3,-0.3l1.7,1.6l0.4,0.4l0.55,2.4l2.4,0.5l-2.5,-7.75l2.7,-2.6l1.6,7.95l1.95,-7.65l9.6,-16.35l7.25,-3.4m-29.05,21.05l0.85,1.65m-3.95,2.9l1.9,-2.55l-0.1,-0.5l-2.2,-2.85m5.45,5.5l-2.65,0.6l-1.35,0.3l6.15,2.8l0.65,0.1l-0.55,-2.1l0.9,-0.4m-5.8,-0.7l-0.25,-1.35l-1.45,1.5l0.35,0.15m-0.35,-0.15l-0.7,-0.35l-3.15,-1.4m5.3,0.25l-0.25,-1.4m12.05,7.25l-2.4,-0.5m4,-2.05l0.5,-2.2l0.45,0.05l4.25,-10.45l7.6,-10.9l2.25,-1.25l2.2,-1.2m-19.45,25.6l0.6,2.9m-4.8,-1l-1.3,-0.3m1.3,0.3l0.1,0.6m5.65,0.6l0.65,-2.75m1.25,0.05l-0.35,-0.5m5.85,2.75l1.45,-0.3l1.4,0.45l1.05,0.65l1,-0.75l1,9.4l0.5,5.45l0.8,9l-0.15,22.65l0,2.55l4.75,0.85l6.85,-1.85l1.9,-0.5l-0.7,-3.05l0.05,-1.35m-19.9,-43.2l-0.6,-0.9l-2.3,-3.35l-2.9,-0.2m5.2,3.55l2.65,-1.75l4.25,-2.1m-10.15,5.45l-0.25,-1l-1.4,-1.95m6.85,4.25l2.55,-1.2m-7.3,1.95l1.1,4.4l5.95,-1.7l-2.3,-3.45l-1.35,-2m51.35,-45l0.2,-0.6q3.2,-4.2 10.85,-2.2q1.15,-0.2 1.6,1.4l0.25,1.2l0.1,0.7l-0.45,2.75m0,0.05l-0.45,2.85q-2,2.75 -5.4,1.85l-4,-1.7q-2.8,-1.3 -3.1,-3.15q-0.1,-0.95 0.05,-1.8m21.5,-1.8q0.5,0.85 1.45,0.55q3.65,1.75 6.6,2.65m-52.95,-29.05l1.45,0.15m-1.45,-0.15l-0.95,-2.5l-11.2,-16.85l9.9,18l-12.05,-1.85m-2.25,20.8q-0.6,4.65 0.35,9.45m8.55,-8.5l-0.05,0.05l0.05,0m-0.05,0q-0.35,-0.2 -1.25,4.4q-0.1,3.95 0.95,4.45l0.8,0.05m-1.15,-10.8q-0.7,-0.2 -1.15,5.95q0.15,3.75 0.8,6.65m-10.6,14.95l2.45,0.25m58.4,-8.95l-0.75,3.45m-0.45,1.55l0,-0.55m0,0.55l-0.05,0.45l0,0.05l0.05,-0.05l0,-0.5m-5.1,9l-0.35,-4.3m-230.5,-17.45l-0.5,-2.35l-1.45,0l-8.25,1.25l-0.85,2.1l0.05,0l-0.05,0.05q-0.25,3.35 -0.2,6.9l0.2,3.45m10.25,-3.55l-0.05,-0.55q-0.05,-6.8 0.85,-7.3l0.5,-0.5l1.2,-0.25l1.9,-0.35l5.25,-0.65l0.4,-0.05l0.05,-0.3l1.35,-4.8l2.05,-3.4l5.9,0.6l1.6,0.2l1.1,-3.5l8,-0.6l0.3,0.2l2.9,2.2l1.3,1.7l0.15,-1.8l2.3,-4.55l6.2,1.5l0.85,1.15l1.3,1.75l0.1,-1.05l-0.75,-6.05l3.4,-2.15l5.95,0.4l1,4.35l0.3,1.2l-0.6,3.2l-0.1,0.75l0.85,2.95l0.35,1.35l3.05,-0.25l3.2,-0.25l1.15,-0.1l0.7,-1.7l9.45,0.45l-0.1,0.55l4,-0.25l6.8,-0.35l21,-0.9m-95.1,7.5l-0.05,0.15l-0.3,1.2l3.05,1.2m0.05,0l1.2,0.5l5.2,-2l0.1,-2.2l0.05,-1.4l0.05,-0.05l1.6,-5.1m-31.25,10.55l-3.85,0.8q-10.5,2.85 -25.15,8.35l1.15,8.4l0.35,2.5l5.25,0l-1.3,1.2m-0.4,4.35l0.45,0.65l19.7,-9.2l4.55,-1.65q-0.5,-2.2 -0.75,-5.05m-23.95,11.25l-1.55,1.55l1.55,2.45m36.5,-12.7l-0.6,0.2l0,2.6l0.6,-2.8l2.1,-1l10.5,-3.5l5.9,-0.95l11.75,-1.8l2,-0.3l2.6,-0.3l-3.4,-6.3l0.2,-2.5l0.2,-1.85l-3.4,0.35l-0.15,4.55l-7,3.4l-4.5,-1.75l0.1,-2.75m-17.5,14.9q-1.55,-1.8 -1.7,-6.3m-9.5,8.6l1.4,2.15l9.8,-1.85m-11.95,-15.75l0,0.05m55.25,-4.15l0.75,1.75l9.9,-0.85l0.75,-2.65l-0.5,-1.65m-3.45,-2.55l-1.65,-0.15l-2.1,2.25l0,1.6l4.5,-0.1l-0.75,-3.6m-7.75,4l0.3,1.95l-0.5,-1.1l0.1,-0.8m0,-0.05l0.05,-0.3l0.75,-6.1m22.1,6.7l-0.05,0.1l-0.85,3.65l3.45,0.4l0.9,-2.65l-0.5,-1.5l-2.95,0m5.85,-3.05l-1.4,7.2l0,0.05l0.25,2.65m-8.9,-9.2l-2.45,5.6l0,3.3l-0.95,0.75m29.1,-25.3l-2.45,3.6l-8.7,-1.4m-64.45,15.9l2.75,0.05l0.05,1.9l0.05,0.5l-2.85,0.6l0,-0.8l0,-2.25l-0.5,-0.05m17.85,0.5l0,-1.5l0.1,-0.25l1.15,-2.7m-4.85,7.5l-3.8,0.95l-0.05,-0.1l-1,-2.6l4.95,-0.15l-0.1,1.65l0,0.25l0,0.55m7.45,-8.9l-0.45,4.95m16.65,-4.65l-0.7,-0.1m-5.45,3.95l0.05,0.3m-0.95,10.25l2.9,-2.6l-1.5,-4.05l-0.15,-1.65m3.25,-1.95l0.45,-0.3m-15.85,-0.7l-2,0.1m6.3,12.05l0.55,0.95l1,-0.1l3.6,-0.4l1.45,-1.35l1.6,-0.2l0.45,-0.4l1.1,-0.9l7.15,0.25l4.7,-0.55l1.15,-0.85m-14.2,2.4l-0.1,0.15l0,0.05q-1.65,2.75 -1.95,7.35l-1.4,2.3l-0.45,0.75l0.2,2.25l0.5,4.75l1.5,2.65m2.2,0.15l2.9,-2.3l-3.7,0.5m0.3,-18.6l-0.35,0.05m0.45,-0.4l-0.1,0.35m-3.5,2.7l3.15,-2.65m-6.55,-3.2l-1,0.2m3.65,1.7l0.05,0l0,-0.05m-0.05,0.05l-3,-0.1l0.35,-1.8l3.35,-0.65l-0.65,2.5m-9.75,9.35l-1.35,3.05m0.05,0.05l3.85,-3.1l3.05,-2.4l1.35,-3.65m-4.15,-0.55l-2.8,6.6m-5.2,0l-4.85,4l0.25,2.25m4.7,0.7l-0.1,-0.55l2.8,-2.45l1.05,-0.9m-3.75,3.9l1.25,6.95l10.8,0.75l-1.75,-7.5m-10.4,-7.15l3.8,-3.1l2.2,-3.2m-11.75,1.8l-1.65,4.5l-0.95,2.7l-0.55,1.7l0.7,3.05l1.75,2.7l1,1.55l3.3,1.1q-1.85,-3.3 -2.45,-6.55m7.4,-2.3l1.1,-0.85m-6.05,9.7l3.35,1.1l0.15,0m-8.2,0.3l1.6,2.35l0.75,4.6l0.15,0.85l13.65,5.3l2.4,0l3.4,0l2.45,0l1.7,-1.45l5.75,-4.9m-29.8,0.85l0.3,-0.65m-0.3,0.65l-0.55,1.3l2.05,2.7m-3.15,-15.65l-1.3,2.75l0.55,0.75m26.85,-1.3l-1.45,1.25l-0.05,0.05l-1.6,1.25l-4.4,-0.25m-8.5,22.4l-1.95,-0.7l-0.35,-4.35l-4.65,-6.2m27.9,-11.05l-4.9,6.1m-1.5,-7.25l-0.75,-1.4m19.35,-16.1l-0.85,-0.05m-3.75,-5.65l-0.85,0.7l-3.85,-0.15m-1,17.9l-0.35,0.7l-3.6,0.5m4.85,26.8l3.55,-1.35l1.5,-3.4m-2.9,-2.6l-3.3,5l-7.6,1.45l-1.7,2m-1.95,15.3l7.25,1.5l11.15,-3.45l3.45,-15.1l-2.75,-3.05m1.05,0.05l3.15,0.05l1.35,5.95l0.1,3.9m0.25,6.15l-1.7,1.1m1.7,-1.1l0.05,1.6l-6.35,6.85l-16,-1.15l-2.7,-3.3l-5.45,-4.7l-1.25,-4.25l-4.65,-7.25l1.7,0.55l0.05,0l13.2,4.3l11.55,-3.5l0.8,-2.9m30.65,30.1l2.05,1.45l0.45,0.25m-2.5,-1.7l2.15,0.65m-2.15,-0.65l-3,-2.2l1.25,-0.65l6.6,1.7l2.85,-7.15l-0.2,-0.25l-0.7,-1l1.15,-2.45l0.6,-9.55l1.6,-2m0.05,-0.05l1.2,-1.4m-16.25,26.7l2,-2.15l2.85,0.45m4,5.3l0,-0.15l0.35,-0.75l-1.2,-0.05l-10.9,4.35l0.5,2l11.25,-5.4l0.5,1.9l0.1,0.45l1.85,1.15l6.45,4.2l3.1,1.95l0.95,0.6l3.7,2.2l3.9,2.45l16.4,5.05l0.2,0.05l6.55,0l-8.25,-2.5l-23.9,-10.45l-9.85,-6.5l-0.45,-1.4l-0.9,-0.05l0.5,-1.15l-0.55,-1.65l0.55,-2.75m-2.8,2.6l-6.9,0.25l-4.45,-0.25l-0.75,3.05l13.2,-0.15m1.35,2.85l-12.25,4.9l4.25,5.4l2.05,-1.45l7.2,-4.95l0.7,-2.3m-13.75,16.5l2.65,0l3.2,-9.25m5.65,0.2l-4.3,2.35l2.5,2.6l3.55,-1.75l-2.5,-0.7l0.75,-2.5l1.55,-5.15m89.85,16.35l11.55,0l1.15,3.15m-22.15,-3.15l-0.6,-11.75l2.15,-4.2m16.4,7.7l-4.9,0.7m2,-7.35l1.95,-0.55m-17,15.45l9.45,0m-9.45,0l0.05,1.7m-3.05,-47.35l-13.35,0.25l-4.1,-0.5m20.85,-7.15l-1.9,3.05l0.25,2.85l-1.7,1.5l-0.05,0l1.25,2.2l-1.8,5.2l-1.15,7.6l0.65,2.6l-2.05,0.85l0,0.2l-1.8,15.4l0.6,11.5l1.2,0m-29.45,-52.5l-0.4,-0.15l-8.35,-3.65m8.75,3.8l1.85,0.4l2.55,0.55l14.7,3m-14.7,-3l-4.45,-0.85l-6.75,-1.3m35.95,26.85l0.3,-0.05m0,-0.2l-0.3,0.25l-9.45,1.7l-5.1,0.9l-22.2,-3.7l-10.7,-2.95l-21.5,-5.85l25.4,14.25l29.9,11.9l0.85,0.35l11.3,-1.25m-15.2,11.5l15.8,0l0,0.55m-71.35,-36.45l1.95,-1.25l1.35,0.4m-5.55,13.85l-0.4,-1.2m6.95,13.4l1.1,-3.65m-6.95,6.45l4.6,1.35l1.25,-4.15l4.2,-1.7m0.95,0.6l-2.35,8.9l7,0l-0.95,-6.7m33.5,9.5l-6.45,-1.95l3.35,0m3.1,1.95l0.4,0.1l0.4,0l-0.8,-0.1l-13,-1.95l-45.8,0m59.2,2.05l3.2,1m6.45,0.4l-9.25,-1.4l8.1,0m-8.5,0l-13.35,0m42.55,0.1l2.4,0"/>
   <path id="svg_54" stroke-width="0.25" stroke-linejoin="round" stroke-linecap="round" stroke="#281a0d" fill="none" d="m227.15,127.8l4.6,2.2m-5.7,-8.65l12.75,3.55m-53.3,-2.95l1.8,-0.55m5,4.25l-5.2,2.4m11.4,9.75q8.95,-4.2 24.85,1.15"/>
   <path id="svg_55" stroke-linejoin="round" stroke-linecap="round" stroke="#caa422" fill="none" d="m185.35,115.1l0.75,-10.9m33.75,-30l4.45,7.45"/>
  </g>
  <g id="sprite0">
   <use id="svg_56" xlink:href="#shape2" width="102.95" height="45"/>
  </g>
  <g id="shape2">
   <path id="svg_57" fill-rule="evenodd" fill-opacity="0" fill="#ff00ff" d="m0,0l102.95,0l0,45l-102.95,0l0,-45"/>
  </g>
 </defs>
 <g>
  <title>background</title>
  <rect fill="none" id="canvas_background" height="410" width="471" y="-1" x="-1"/>
 </g>
 <g>
  <title>Layer 1</title>
  <g id="svg_58" transform="matrix(2,0,0,2,0,0) ">
   <use x="114.050003" y="192" id="svg_59" xlink:href="#shape0" width="381" transform="matrix(1,0,0,1,-192.55,-294) " height="381"/>
   <use x="152.473266" y="243.130303" id="svg_60" xlink:href="#shape1" width="310.5" transform="matrix(0.748,0,0,0.7897,-113.2229,-191.1105) " height="257.1"/>
   <use x="-43.160691" y="-61.373806" xlink:href="#sprite0" width="102.95" transform="matrix(1.8072000000000004,0,0,1.6538,74.4000030517578,177.75) " id="_mcMask" height="45"/>
  </g>
 </g>
</svg>