<svg width="168.00000000000003" height="267" xmlns="http://www.w3.org/2000/svg" xmlns:xlink="http://www.w3.org/1999/xlink">
 <defs>
  <g transform="matrix(1,0,0,1,192.55,294) " id="shape0">
   <path id="svg_1" stroke-opacity="0" stroke-linejoin="round" stroke-linecap="round" stroke="#ff00ff" fill="none" d="m187.95,-293.5l0,380l-379.95,0l-0.05,0l0,-380l380,0m-95,294.1l-189.95,0"/>
   <path id="svg_2" stroke-opacity="0" stroke-linejoin="round" stroke-linecap="round" stroke="#ff00ff" fill="none" d="m187.95,-293.5l-190,190l190,190m-380,-380l190,190l-189.95,190"/>
  </g>
  <g transform="matrix(1,0,0,1,58.2,71.05) " id="shape1">
   <path id="svg_3" stroke-width="1.75" stroke-linejoin="round" stroke-linecap="round" stroke="#21170e" fill="none" d="m4.3,-61.35l-1.2,1.45l-0.9,1.05l-1.25,1.55l-0.8,0.95m6.1,0l0.85,-1.1l0.35,-0.5l0.7,-0.9l1.8,-2.2l0.25,-0.3"/>
   <path id="svg_4" stroke-width="1.5" stroke-linejoin="round" stroke-linecap="round" stroke="#21170e" fill="none" d="m10.2,-61.35l1.7,-1.95l1.95,-2.1l0.4,0.35m-2.05,-2.3l-3.15,2.3l-2.45,1.1l-0.6,0.65l-1.7,1.95"/>
   <path id="svg_5" stroke-width="2.5" stroke-linejoin="round" stroke-linecap="round" stroke="#21170e" fill="none" d="m0.15,-56.35l-2.75,3.5l-3.65,4.85q-1.9,2 -2.25,2.05l-0.7,0.65l-0.45,0.45m9.75,0l0.15,-0.45l0.1,-0.25l1.45,-3.6q1.7,0 1.1,-2.7l0.85,-0.95l0.05,-0.05l0.7,-1l1.75,-2.5"/>
   <path id="svg_6" stroke-width="3.25" stroke-linejoin="round" stroke-linecap="round" stroke="#21170e" fill="none" d="m-9.65,-44.85q-2.5,2.5 -1.85,4.05l-0.65,1.55l-3.8,8q-1.5,3 -3.15,5.95m12.4,0l0.8,-2.55l2.8,-8.4l3.2,-8.6"/>
   <path id="svg_7" stroke-width="3.5" stroke-linejoin="round" stroke-linecap="round" stroke="#21170e" fill="none" d="m-19.1,-25.3l-0.85,1.6l-1.05,1.8q-3.95,6.5 -9,12.2l-2.65,3.85q-0.9,1.6 -1,2.85l0,0.7m24.85,0l0.05,-2.15l0.1,-0.05q2.5,-0.9 0.05,-5.95q-0.7,-1.65 -1.5,-2.8q3.15,-0.7 1.1,-4.2l2.3,-7.85"/>
   <path id="svg_8" stroke-width="3.75" stroke-linejoin="round" stroke-linecap="round" stroke="#21170e" fill="none" d="m-33.65,-2.3q0.05,2.25 2,4.35l-1.85,3.15q-1.35,2.2 -1.65,3.5q-0.4,1.5 0.55,1.9l0.9,0.15l-0.75,10.75l-2.15,1.2m28.5,0q-0.5,-6.9 -0.65,-14l-0.1,-8.8l0.05,-2.2"/>
   <path id="svg_9" stroke-width="4" stroke-linejoin="round" stroke-linecap="round" stroke="#21170e" fill="none" d="m-36.6,22.7l-1.35,1l-2.05,2.25l-1.85,3l-0.95,2.6l-2,0.1q-5.25,0.6 -8.7,4.8q-1.5,2 -2.15,4.15l-0.5,2.5l0.05,2.95q0.6,5.25 4.8,8.55q4.3,3.4 9.6,2.8l1.85,-0.35l-1.85,7.95l-0.55,2.1l-1.95,7.25l-0.2,0.65l-0.6,1.95q-1.45,0.75 -1.8,1.65l-0.1,0.65q0,2.55 7.35,4.85l2.1,0.6l5.1,1.15l10.65,1.2q6.8,0.45 12.3,0l5.5,-0.7q7.4,-1.35 7.4,-3.9l-0.15,-0.75l-0.3,-0.5l-0.1,-0.15l-1.4,-1.15l0,-0.05l-0.55,-2.2l-0.15,-0.6q-5.1,-21.35 -7.4,-39l-0.4,-3q-0.75,-6.1 -1.15,-12.35"/>
   <path id="svg_10" fill-rule="evenodd" fill="#4b401b" d="m-45.25,90.2l3,-2.8l-4.75,-11.1l1.45,-2.6l2.8,0.6l-0.15,4.55l4.1,7.65l6.05,2.7l-1.55,3.15l-18.15,0.7l-1.05,-1.6l8.25,-1.25m-2.95,-26.75l0.1,0l0.75,0.1l0.65,1.8l-1.9,1.7l0.6,1.6l-1.6,1.25l-0.05,0l-3.05,-2.65l0,-2.4l2,-1.5l0.9,-5.8l4.55,-2.9l2.2,1.45l-5.15,3.65l0,3.7"/>
   <path id="svg_11" fill-rule="evenodd" fill="#72672c" d="m-6.25,-48q3.8,-5.2 7.2,-9.3l2.15,-2.6l3.5,-4.05l2.45,-1.1q6.95,-3.1 5.2,-0.8l-0.1,0.15l-4.2,4.65l-2.5,3.1l-0.35,0.5l-4.35,0.5q-3.75,2.75 -1.1,2.1l2.85,1l-0.75,1.05l-0.85,0.95q0.35,-0.85 -0.5,-1.85q-0.9,-1 -8.65,5.7q7.75,-6.7 8.65,-5.7q0.85,1 0.5,1.85q0.6,2.7 -1.1,2.7l-1.45,3.6q-2.25,-4.35 -11.3,5l-1.2,1.3l0.65,-1.55q-0.75,-1.85 3,-5.15q0.35,-0.05 2.25,-2.05m22,-21.1l3.7,-1.35q3.2,0.25 2.25,0.65q-1.8,0.5 -3.5,1.3l-1.15,0.55l-1.85,0.55l-1.55,-0.8l2.1,-0.9m-14.15,16.45l0.5,0.35l-0.5,-0.35m-17.55,21.4q14.85,-18.95 12.85,-5l-2.8,8.4q0.25,-4.85 -15.1,5.95l1.05,-1.8l4,-7.55m2.75,15.65q-2.85,-0.8 -6.65,2.4q-5.05,4.15 -11.8,15.25q-2.25,-2.4 -2,-5.05q0.1,-1.25 1,-2.85q4.95,-5.9 12,-10.6l0.6,-0.4q7.3,-1.15 6.85,1.15l0,0.1"/>
   <path id="svg_12" fill-rule="evenodd" fill="#b9a746" d="m4.5,-53.85l-2.85,-1q-2.65,0.65 1.1,-2.1l4.35,-0.5l-2.6,3.6m-4.15,8.3l-3.45,9.3q2,-13.95 -12.85,5l3.8,-8l1.2,-1.3q9.05,-9.35 11.3,-5m-6.25,17.7l-3.1,10.4q2.05,3.5 -1.1,4.2l-0.35,-0.4q-1.25,-1.55 -2.75,-1.95l0,-0.1q0.45,-2.3 -6.85,-1.15l-0.6,0.4q-7.05,4.7 -12,10.6l2.65,-3.85q5.05,-5.7 9,-12.2q15.35,-10.8 15.1,-5.95m-3.3,10.05l0.2,0.35l-0.2,-0.35"/>
   <path id="svg_13" fill-rule="evenodd" fill="#413a18" d="m14.15,-65.7l0.1,-0.15q1.75,-2.3 -5.2,0.8q3,-2.3 5.45,-3.8l1.25,-0.25l-2.1,0.9l1.55,0.8l1.85,-0.55l1.15,-0.55l-4.05,2.8"/>
   <path id="svg_14" fill-rule="evenodd" fill="#dfdf68" d="m-19.25,-10.6q-6.15,5.1 -0.6,-2.6q3.8,-3.2 6.65,-2.4q1.5,0.4 2.75,1.95q1.75,4.8 -1.4,2.55q-2.8,-3.6 -7.4,0.5"/>
   <path id="svg_15" fill-rule="evenodd" fill="#a2923e" d="m-10.1,-13.25q0.8,1.15 1.5,2.8q2.45,5.05 -0.05,5.95l-2.9,-6.2l-0.3,-0.4q3.15,2.25 1.4,-2.55l0.35,0.4m-9.75,0.05q-5.55,7.7 0.6,2.6q-2.25,2 -4.95,5.8l-10.4,15.4q-1.75,-0.8 1.1,-5.4l1.85,-3.15q6.75,-11.1 11.8,-15.25"/>
   <path id="svg_16" fill-rule="evenodd" fill="#6c5e2b" d="m-8.65,-4.5l-0.1,0.05l-0.1,4.35q-1.75,-8.65 -6.4,-7.9q-5.85,2.8 -9.1,10.75l-10.85,26.1q1.05,-9.05 1.5,-18.1l-0.9,-0.15l10.4,-15.4q2.7,-3.8 4.95,-5.8q4.6,-4.1 7.4,-0.5l0.3,0.4l2.9,6.2m-28.85,49.35l18.4,3.65l-16.85,26.3l-1,0.1l-2.6,0.4q-3.65,0.7 -5.45,1.65l0.6,-1.95l0.2,-0.65l1.95,-7.25l0.55,-2.1q2.45,-10.1 4.2,-20.15"/>
   <path id="svg_17" fill-rule="evenodd" fill="url(#gradient0)" d="m-8.85,-0.1q-0.1,18.1 1.9,35.15q2.25,18.8 7.8,42l0.15,0.6l0.55,2.2l-0.05,0l0.05,0l0,0.05l-0.05,-0.05q-1.85,-1.15 -5.4,-2.25q-1.45,-0.5 -3,-0.85q-3.55,-0.9 -7.7,-1.45l-7.1,-0.65q-8,-0.55 -14.25,0.15l16.85,-26.3l-18.4,-3.65q1.4,-8 2.3,-16l10.85,-26.1q3.25,-7.95 9.1,-10.75q4.65,-0.75 6.4,7.9m-5.6,75.05l-0.15,0.35l0.15,-0.35m9.75,-0.15l-2.2,1.95l2.2,-1.95"/>
   <path id="svg_18" fill-rule="evenodd" fill="#514a28" d="m-35.95,74.8q6.25,-0.7 14.25,-0.15l7.1,0.65l-1.1,2.5l1.1,-2.5q4.15,0.55 7.7,1.45l-2.75,2.6l2.75,-2.6q1.55,0.35 3,0.85q3.55,1.1 5.4,2.25l-8.85,0.75l8.85,-0.75l0.05,0.05l1.4,1.15l0.4,0.65l0.15,0.75q0,2.55 -7.4,3.9l-5.5,0.7q-5.5,0.45 -12.3,0l-10.65,-1.2l-5.1,-1.15l-2.1,-0.6q-7.35,-2.3 -7.35,-4.85l0.1,-0.65q0.35,-0.9 1.8,-1.65q1.8,-0.95 5.45,-1.65l2.6,-0.4l1,-0.1m20.25,3l-6,-0.7q-4.8,-0.3 -8.5,0.1l-0.55,0.05l-1.55,0.25q-2.2,0.4 -3.25,1q-0.85,0.4 -1.05,0.95l-0.1,0.4q0,1.2 2.75,2.3l1.65,0.6l1.45,0.4l-1.5,2.7l1.5,-2.7l9.15,1.35l9.55,-0.25l1.05,-0.2q4.4,-0.8 4.4,-2.3l-0.1,-0.45l-0.25,-0.4l-0.3,-0.3l-0.5,-0.4l-1.8,-0.85l-1.45,-0.5l-1.8,-0.5l-2.8,-0.55m-21.75,6.9l3.5,-2.55l-3.5,2.55m28.05,2.35l-2.75,-2.8l2.75,2.8"/>
   <path id="svg_19" fill-rule="evenodd" fill="#2f2413" d="m-33.95,82.15q-2.75,-1.1 -2.75,-2.3l0.1,-0.4q0.2,-0.55 1.05,-0.95q1.05,-0.6 3.25,-1l1.55,-0.25l0.55,-0.05q3.7,-0.4 8.5,-0.1l6,0.7l2.8,0.55l1.8,0.5l1.45,0.5l1.8,0.85l0.5,0.4l0.3,0.3l0.25,0.4l0.1,0.45q0,1.5 -4.4,2.3l-1.05,0.2l-0.95,-0.9l0.95,0.9l-9.55,0.25l-9.15,-1.35l-1.45,-0.4l-1.65,-0.6l1,-0.7l-1,0.7m17.85,-3.55l0.4,-0.8l-0.4,0.8m5.75,1.35l0.7,-0.6l-0.7,0.6m3,0.65l-1.5,0.1l1.5,-0.1"/>
   <path id="svg_20" fill-rule="evenodd" fill="#6c5437" d="m2.95,81.05l0.1,0.15l0.3,0.5l-0.4,-0.65"/>
   <path id="svg_21" stroke-linejoin="round" stroke-linecap="round" stroke="#453c1b" fill="none" d="m9.05,-65.05l-2.45,1.1l-3.5,4.05l-2.15,2.6q-3.4,4.1 -7.2,9.3q7.75,-6.7 8.65,-5.7q0.85,1 0.5,1.85l0.85,-0.95l0.75,-1.05l2.6,-3.6l0.35,-0.5l2.5,-3.1l4.2,-4.65l0.1,-0.15q1.75,-2.3 -5.2,0.8"/>
   <path id="svg_22" stroke-width="1.25" stroke-linejoin="round" stroke-linecap="round" stroke="#261e15" fill="none" d="m9.05,-65.05q3,-2.3 5.45,-3.8l1.25,-0.25l3.7,-1.35q3.2,0.25 2.25,0.65q-1.8,0.5 -3.5,1.3l-4.05,2.8m1.6,-3.4l-2.1,0.9l1.55,0.8l1.85,-0.55l1.15,-0.55"/>
   <path id="svg_23" stroke-width="1.25" stroke-linejoin="round" stroke-linecap="round" stroke="#554d1e" fill="none" d="m0.35,-45.55l1.45,-3.6q1.7,0 1.1,-2.7m-6,15.6l3.45,-9.3m-12.5,6.3l-3.8,8l-4,7.55l-1.05,1.8q-3.95,6.5 -9,12.2l-2.65,3.85q-0.9,1.6 -1,2.85q-0.25,2.65 2,5.05m28.55,-38.3l-2.8,8.4l-3.1,10.4m2.75,-30.55q-1.9,2 -2.25,2.05q-3.75,3.3 -3,5.15l-0.65,1.55"/>
   <path id="svg_24" stroke-linejoin="round" stroke-linecap="round" stroke="#c9bd3a" fill="none" d="m2.1,-52.3l-0.5,-0.35"/>
   <path id="svg_25" stroke-linejoin="round" stroke-linecap="round" stroke="#53442d" fill="none" d="m-9,-17.45q2.05,3.5 -1.1,4.2q0.8,1.15 1.5,2.8q2.45,5.05 -0.05,5.95l-0.1,0.05l-0.1,4.35q-0.1,18.1 1.9,35.15q2.25,18.8 7.8,42l0.15,0.6l1.2,2.15l0.75,1.25l0.1,0.15l0.3,0.5l-0.4,-0.65l-1.4,-1.15l0,-0.05l-0.55,-2.2m-11.45,-91.3q-1.25,-1.55 -2.75,-1.95q-2.85,-0.8 -6.65,2.4q-5.05,4.15 -11.8,15.25l-1.85,3.15q-2.85,4.6 -1.1,5.4m24.15,-24.25l0.35,0.4m1.1,-4.2l-0.2,-0.35m-26,46.65q1.05,-9.05 1.5,-18.1l-0.9,-0.15m-0.6,18.25q-0.9,8 -2.3,16m-6.9,30.15l0.2,-0.65l1.95,-7.25l0.55,-2.1q2.45,-10.1 4.2,-20.15m-6.9,30.15l-2.7,3.6"/>
   <path id="svg_26" stroke-linejoin="round" stroke-linecap="round" stroke="#2f2413" fill="none" d="m3.35,81.7l0.15,0.75q0,2.55 -7.4,3.9l-5.5,0.7q-5.5,0.45 -12.3,0l-10.65,-1.2l-5.1,-1.15l-2.1,-0.6q-7.35,-2.3 -7.35,-4.85l0.1,-0.65q0.35,-0.9 1.8,-1.65"/>
   <path id="svg_27" stroke-opacity="0.490196" stroke-linejoin="round" stroke-linecap="round" stroke="#2f2413" fill="none" d="m2.2,79.8l0.95,-0.1m-17.75,-4.4l0.15,-0.35m-1.25,2.85l1.1,-2.5m-17.75,10.55l1.5,-2.7m-3.1,-1l-3.5,2.55m4.5,-3.25l-1,0.7m24.3,-2.8l2.75,-2.6m8.4,3.1l0.05,0l0.65,-0.05m-17.9,-2l-0.4,0.8m3.95,5.65l2.75,2.8m2.05,-6.45l8.85,-0.75m-11.15,-0.5l-0.7,0.6m1.5,0.75l1.5,-0.1m-4.8,3.65l-0.95,-0.9"/>
   <path id="svg_28" stroke-linejoin="round" stroke-linecap="round" stroke="#1e150d" fill="none" d="m-7.05,80.9l0.25,0.4"/>
   <path id="svg_29" stroke-width="1.25" stroke-linejoin="round" stroke-linecap="round" stroke="#6c5e2b" fill="none" d="m-6.9,76.75l2.2,-1.95"/>
  </g>
  <g transform="matrix(1,0,0,1,8.4,10.45) " id="shape2">
   <path id="svg_30" fill-rule="evenodd" fill="#6e7f27" d="m18.3,-0.3l0.35,3.85l-4.6,1.75l4.05,2.9q-0.75,2.95 -2.4,5.5q-3.15,5.65 -7.1,9.9q-2.6,2.75 -5.55,4.9q0.8,-9.2 -2.2,-15.7l4,-1.2l-6.8,-2.2q-0.3,-1.7 -1.8,-3.15q1.5,-9.6 -4.15,-11.8q5.05,0.5 8.6,3.95l1.7,-2.8q3.6,-4.95 9.2,-5.55l4.15,5.25q-6,1.4 -8.85,5.9q6.1,-1.85 11.4,-1.5m-16.4,-0.85l-1.2,-0.45l1.2,0.45m4.7,21.4q1.4,-4.3 1.75,-9.7q-0.7,-6.35 -4.3,-9.5q3.6,3.15 4.3,9.5q-0.35,5.4 -1.75,9.7"/>
   <path id="svg_31" stroke-linejoin="round" stroke-linecap="round" stroke="#505d18" fill="none" d="m18.1,8.2q-0.75,2.95 -2.4,5.5q-3.15,5.65 -7.1,9.9m-6.2,-28q3.6,-4.95 9.2,-5.55l4.15,5.25q-6,1.4 -8.85,5.9m-2.85,-0.15q3.6,3.15 4.3,9.5q-0.35,5.4 -1.75,9.7"/>
   <path id="svg_32" stroke-linejoin="round" stroke-linecap="round" stroke="#473c19" fill="none" d="m0.7,-1.6l1.7,-2.8m-1.7,2.8l1.2,0.45"/>
   <path id="svg_33" stroke-linejoin="round" stroke-linecap="round" stroke="#3a4410" fill="none" d="m4.85,11.6l-6.8,-2.2m-5.95,-14.95q5.05,0.5 8.6,3.95"/>
   <path id="svg_34" stroke-linejoin="round" stroke-linecap="round" stroke="#abce1e" fill="none" d="m3.05,28.5q0.8,-9.2 -2.2,-15.7m-2.8,-3.4q-0.3,-1.7 -1.8,-3.15q1.5,-9.6 -4.15,-11.8"/>
   <path id="svg_35" stroke-width="1.25" stroke-linejoin="round" stroke-linecap="round" stroke="#abce1e" fill="none" d="m18.3,-0.3l0.35,3.85l-4.6,1.75m-5.45,18.3q-2.6,2.75 -5.55,4.9"/>
  </g>
  <g transform="matrix(1,0,0,1,10.6,12.95) " id="shape3">
   <path id="svg_36" fill-rule="evenodd" fill="#626a20" d="m-0.7,-3.95q1.6,-6 6.35,-8.5l5.25,3.65q-4.85,3.4 -5.95,8.75q4.75,-3.9 9.55,-5.35l1.45,3.55l-3.45,3.3l4.45,1.4q0.25,3.05 -0.4,6.1q-1,6.55 -3.15,12q-1.45,3.55 -3.35,6.6q-2.15,-9.15 -6.8,-14.4l3.15,-2.5l-6.7,0.2q-0.75,-1.5 -2.55,-2.4q-1.65,-9.8 -7.25,-10q4.55,-1.25 8.75,0.85l0.65,-3.25m11.3,22.35q-0.1,-4.65 -1.45,-9.95q-2.6,-5.9 -6.75,-7.7q4.15,1.8 6.75,7.7q1.35,5.3 1.45,9.95m-10.75,-19l-1.2,-0.1l1.2,0.1"/>
   <path id="svg_37" stroke-linejoin="round" stroke-linecap="round" stroke="#505d18" fill="none" d="m2.4,0.75q4.15,1.8 6.75,7.7q1.35,5.3 1.45,9.95"/>
   <path id="svg_38" stroke-linejoin="round" stroke-linecap="round" stroke="#3a4410" fill="none" d="m-0.7,-3.95q1.6,-6 6.35,-8.5l5.25,3.65q-4.85,3.4 -5.95,8.75m9.55,-5.35l1.45,3.55l-3.45,3.3m4.45,1.4q0.25,3.05 -0.4,6.1q-1,6.55 -3.15,12q-1.45,3.55 -3.35,6.6m-3.65,-16.9l-6.7,0.2m-9.8,-12.4q4.55,-1.25 8.75,0.85"/>
   <path id="svg_39" stroke-linejoin="round" stroke-linecap="round" stroke="#abce1e" fill="none" d="m10.05,27.55q-2.15,-9.15 -6.8,-14.4m-3.55,-2.3q-0.75,-1.5 -2.55,-2.4q-1.65,-9.8 -7.25,-10"/>
   <path id="svg_40" stroke-linejoin="round" stroke-linecap="round" stroke="#473c19" fill="none" d="m-1.35,-0.7l0.65,-3.25m-0.65,3.25l1.2,0.1"/>
  </g>
  <g transform="matrix(1,0,0,1,37.85,24.6) " id="shape4">
   <path id="svg_41" fill-rule="evenodd" fill="#6e7f27" d="m-0.35,-7.5l-1.05,-0.3l1.15,0.25l-0.1,0.05"/>
   <path id="svg_42" fill-rule="evenodd" fill="#626a20" d="m-11.7,-19.2l2.05,0.7l-2.05,-0.7m-1.5,-1.3l2.9,-2.9l3.35,1q-1.2,3.9 -4.6,7.9q4.85,-1.1 7.85,-5.1l3.5,4.05q-2.15,3.85 0.5,8.2l-4.4,-1.75l-1.95,-0.05q-1.25,-0.35 -0.2,0l4.85,1.35l1.05,0.3q-8.4,1.3 -9.35,5q-0.35,-4.5 -9.4,-5.45q-0.95,-1.4 -2.35,-1.95l0,-5.35l-2.25,2.6q-5.05,-3.5 -13.55,-4.85q2.75,-1.65 6,-2.9q4.9,-2 10.95,-3.05l5.65,-0.55l1.45,3.5m11.8,11.45l-2.7,-0.05l2.7,0.05m-4.6,-5.65l1.35,1.85l-1.35,-1.85m-22.8,-3.6l9.2,0.8q5.55,1.8 7.4,5.1q-1.85,-3.3 -7.4,-5.1l-9.2,-0.8"/>
   <path id="svg_43" stroke-linejoin="round" stroke-linecap="round" stroke="#505d18" fill="none" d="m0.3,-7.35q-2.65,-4.35 -0.5,-8.2l-3.5,-4.05q-3,4 -7.85,5.1m-0.65,2.1q-1.85,-3.3 -7.4,-5.1l-9.2,-0.8"/>
   <path id="svg_44" stroke-linejoin="round" stroke-linecap="round" stroke="#dfe397" fill="none" d="m-9.65,-18.5l-2.05,-0.7m7.05,6.35l-1.35,-1.85"/>
   <path id="svg_45" stroke-linejoin="round" stroke-linecap="round" stroke="#473c19" fill="none" d="m-0.35,-7.5l-1.05,-0.3l-4.85,-1.35q-1.05,-0.35 0.2,0l1.95,0.05l2.7,0.05m-4.85,-0.1l0.2,0l4.65,1.35l1.15,0.25m-0.1,0.05l0.65,0.15"/>
   <path id="svg_46" stroke-linejoin="round" stroke-linecap="round" stroke="#3a4410" fill="none" d="m-21.45,-15.25l0,5.35m11.75,7.4q0.95,-3.7 9.35,-5m0.1,-0.05l-0.1,0.05"/>
   <path id="svg_47" stroke-width="1.25" stroke-linejoin="round" stroke-linecap="round" stroke="#abce1e" fill="none" d="m-6.95,-22.4l-3.35,-1l-2.9,2.9m-1.45,-3.5l-5.65,0.55q-6.05,1.05 -10.95,3.05q-3.25,1.25 -6,2.9q8.5,1.35 13.55,4.85"/>
   <path id="svg_48" stroke-linejoin="round" stroke-linecap="round" stroke="#abce1e" fill="none" d="m-21.45,-9.9q1.4,0.55 2.35,1.95q9.05,0.95 9.4,5.45"/>
  </g>
  <g transform="matrix(1,0,0,1,6.65,7.15) " id="shape5">
   <path id="svg_49" fill-rule="evenodd" fill="#9e9354" d="m-6.05,1.05l-0.1,-1.05q-0.2,-2.8 1.5,-4.7q1.7,-2 4.25,-1.95q2.5,-0.05 4.45,1.95l0.25,0.3l0.1,1.05q0.15,2.75 -1.5,4.7q-1.7,1.95 -4.25,1.95q-2.55,0 -4.45,-1.95l-0.25,-0.3m5.95,-4.35q0.95,-1.2 -0.1,-1.9q1.05,0.7 0.1,1.9m-1.7,4.75q1,0.45 2.05,-1.45q-1.05,1.9 -2.05,1.45m-3.1,-2.45q1.7,-0.2 0.75,-1.75q0.95,1.55 -0.75,1.75"/>
   <path id="svg_50" fill-rule="evenodd" fill="#766d3f" d="m4.3,-4.4q1.65,1.85 1.8,4.4q0.15,2.75 -1.55,4.7q-1.7,1.95 -4.2,1.95q-2.55,0 -4.45,-1.95q-1.55,-1.6 -1.95,-3.65l0.25,0.3q1.9,1.95 4.45,1.95q2.55,0 4.25,-1.95q1.65,-1.95 1.5,-4.7l-0.1,-1.05"/>
   <path id="svg_51" stroke-linejoin="round" stroke-linecap="round" stroke="#2f2b1a" fill="none" d="m4.3,-4.4q1.65,1.85 1.8,4.4q0.15,2.75 -1.55,4.7q-1.7,1.95 -4.2,1.95q-2.55,0 -4.45,-1.95q-1.55,-1.6 -1.95,-3.65"/>
   <path id="svg_52" stroke-linejoin="round" stroke-linecap="round" stroke="#57532d" fill="none" d="m-4.15,-2.75q0.95,1.55 -0.75,1.75m5.15,1q-1.05,1.9 -2.05,1.45m1.6,-6.65q1.05,0.7 0.1,1.9"/>
   <path id="svg_53" stroke-linejoin="round" stroke-linecap="round" stroke="#474225" fill="none" d="m-6.05,1.05l-0.1,-1.05q-0.2,-2.8 1.5,-4.7q1.7,-2 4.25,-1.95q2.5,-0.05 4.45,1.95l0.25,0.3l-10.35,5.45z"/>
  </g>
  <g transform="matrix(1,0,0,1,4.25,4.25) " id="shape6">
   <path id="svg_54" fill-rule="evenodd" fill="#c8c7b7" d="m1.4,-3.9l0.75,0.55q1.05,1.05 1.05,2.55l-0.05,0.8q-0.25,0.9 -1,1.65q-1.05,1.05 -2.5,1.1q-1.45,-0.05 -2.5,-1.1q-0.75,-0.75 -0.95,-1.65l-0.1,-0.8l0.1,-0.9l0.85,-1.25q1.25,-1.2 2.95,-1.2l1.4,0.25"/>
   <path id="svg_55" fill-rule="evenodd" fill="#a09a76" d="m-3.8,-1.7l-0.1,0.9l0.1,0.8q0.2,0.9 0.95,1.65q1.05,1.05 2.5,1.1q1.45,-0.05 2.5,-1.1q0.75,-0.75 1,-1.65l0.05,-0.8q0,-1.5 -1.05,-2.55l-0.75,-0.55l1.5,0.95q0.9,0.9 1.15,2l0.1,0.95q0,1.7 -1.25,2.9q-1.2,1.25 -2.9,1.25q-1.7,0 -2.95,-1.25q-1.2,-1.2 -1.2,-2.9l0.1,-0.95l0.25,-0.75"/>
   <path id="svg_56" stroke-width="0.25" stroke-linejoin="round" stroke-linecap="round" stroke="#4b5140" fill="none" d="m-3.8,-1.7l-0.25,0.75l-0.1,0.95q0,1.7 1.2,2.9q1.25,1.25 2.95,1.25q1.7,0 2.9,-1.25q1.25,-1.2 1.25,-2.9l-0.1,-0.95q-0.25,-1.1 -1.15,-2l-1.5,-0.95l-1.4,-0.25q-1.7,0 -2.95,1.2l-0.85,1.25z"/>
   <path id="svg_57" fill-rule="evenodd" fill="#000000" d="m1.4,-0.05q0,0.55 -0.4,1q-0.4,0.4 -0.95,0.4q-0.6,0 -1.05,-0.4l-0.35,-1q0,-0.55 0.35,-0.95q0.45,-0.4 1.05,-0.4q0.55,0 0.95,0.4q0.4,0.4 0.4,0.95"/>
   <path id="svg_58" fill-rule="evenodd" fill="#ffffff" d="m0.95,-1.05q-0.35,-0.35 -0.9,-0.35q-0.6,0 -1.05,0.4l-0.3,0.6l-0.3,-0.2q-0.35,-0.45 -0.3,-1.1q0.05,-0.6 0.5,-1q0.5,-0.35 1.1,-0.35q0.65,0.05 1,0.5l0.35,1.1l-0.1,0.4"/>
   <path id="svg_59" fill-rule="evenodd" fill="#6c5437" d="m-1.3,-0.4l0.3,-0.6q0.45,-0.4 1.05,-0.4q0.55,0 0.9,0.35l-0.4,0.6q-0.45,0.35 -1.1,0.25l-0.75,-0.2"/>
  </g>
  <g transform="matrix(1,0,0,1,41.65,38.1) " id="shape7">
   <path id="svg_60" stroke-width="1.25" stroke-linejoin="round" stroke-linecap="round" stroke="#312c11" fill="none" d="m-27.7,62.25q1.9,-0.05 3.75,0.6"/>
   <path id="svg_61" stroke-width="1.25" stroke-linejoin="round" stroke-linecap="round" stroke="#161207" fill="none" d="m-38.35,61.75l-2.4,3.25l3,2.1q5.15,-4.75 10.05,-4.85l-10.65,-0.5z"/>
   <path id="svg_62" stroke-opacity="0.211765" stroke-linejoin="round" stroke-linecap="round" stroke="#47391d" fill="none" d="m-18.6,-20.15q4.95,-8.35 7.7,-17.45"/>
   <path id="svg_63" stroke-opacity="0.392157" stroke-linejoin="round" stroke-linecap="round" stroke="#47391d" fill="none" d="m-20.5,-13.2l-2.4,-2.6l1.2,-3.4l3.1,-0.95m-5.5,14.35l2.6,2.6m-0.4,0l-0.4,15.4m-16.4,62.8l-2.45,-2.1l0.65,-5.3m10.6,-4.8l-1.2,-2.4l3.05,-2.75l0.75,-6.85m12.6,0.9l-0.2,-4m10.2,26.9q-4.95,-20.6 -6,-42"/>
   <path id="svg_64" stroke-opacity="0.490196" stroke-linejoin="round" stroke-linecap="round" stroke="#47391d" fill="none" d="m-14.1,75.2l0.6,-3l-1,-15.4"/>
   <path id="svg_65" fill-rule="evenodd" fill="#27210e" d="m-3.2,37.6l8,-5.8l3.55,7.55l1.7,-0.25l1.95,5.3l-2,1.65l-0.85,3.35l-2.1,0.2l-0.95,-3l-2.7,-2.65l2.4,-3.4l-2.65,-4.2l-5.35,3.75l-4.95,7.8l-1.8,-9.55l5.75,-0.75m16.35,33l-4.4,14.45l11.25,5.2l9.25,1l-0.55,1.85l-27.15,0.35l-1,-1.25l2.45,-4.95l2.65,-2.5l4.65,-12.95l-2.15,-3.2l-11,8.3l-1.95,-8.8l3.9,0.95l10.9,-4.55l3.15,6.1"/>
   <path id="svg_66" stroke-linejoin="round" stroke-linecap="round" stroke="#1e150d" fill="none" d="m-3.2,37.6l-5.75,0.75"/>
  </g>
  <g id="sprite0">
   <use id="svg_67" xlink:href="#shape8" width="102.95" height="45"/>
  </g>
  <g id="shape8">
   <path id="svg_68" fill-rule="evenodd" fill-opacity="0" fill="#ff00ff" d="m0,0l102.95,0l0,45l-102.95,0l0,-45"/>
  </g>
  <linearGradient y2="1.03641" y1="0.073411" x2="0.374988" x1="0.651901" spreadMethod="pad" id="gradient0">
   <stop stop-color="#a2923e" offset="0"/>
   <stop stop-color="#caad4d" offset="1"/>
  </linearGradient>
 </defs>
 <g>
  <title>background</title>
  <rect fill="none" id="canvas_background" height="269" width="170" y="-1" x="-1"/>
 </g>
 <g>
  <title>Layer 1</title>
  <g id="svg_69">
   <use x="91.393939" y="238.575758" id="svg_70" xlink:href="#shape0" width="381" transform="matrix(1,0,0,1,-192.55,-294) " height="381"/>
   <use x="-63.73357" y="166.370821" id="svg_71" xlink:href="#shape1" width="80.7" transform="matrix(-1.434,0,0,1.434,74.5082,-208.385) " height="164.1"/>
   <use x="-63.73357" y="166.370821" id="svg_72" xlink:href="#shape2" width="27.65" transform="matrix(-1.434,0,0,1.434,-26.3045,-214.5352) " height="39.55"/>
   <use x="0.843222" y="0.276028" id="svg_73" xlink:href="#shape3" width="28.1" transform="matrix(-0.26709999999999984,-1.5169999999999988,-1.3796999999999995,0.2428999999999999,63.447699999999976,41.12337887096396) " height="41"/>
   <use x="-63.73357" y="166.370821" id="svg_74" xlink:href="#shape4" width="38.65" transform="matrix(-1.434,0,0,1.434,15.9265,-234.8262) " height="22.6"/>
   <use x="1.086596" y="-2.550007" id="svg_75" xlink:href="#shape5" width="13.25" transform="matrix(-0.8902999999999999,-0.14169999999999996,-0.14169999999999996,0.8902999999999999,66.5336,30.976799999999997) " height="14.3"/>
   <use x="0" y="0" id="svg_76" xlink:href="#shape5" width="13.25" transform="matrix(-1.0769,-0.1714,-0.1714,1.0769,57.83083943548204,34.165957741928146) " height="14.3"/>
   <use x="0.182686" y="-0.3866" id="svg_77" xlink:href="#shape6" width="8.5" transform="matrix(-4.450099999999998,-0.5351999999999998,-0.5351999999999998,4.450099999999998,166.23770000000002,181.05543943548201) " height="8.5"/>
   <use x="3.599547" y="47.947383" id="svg_78" xlink:href="#shape6" width="8.5" transform="matrix(-4.8056,2.2669,2.2669,4.8056,41.9395,-85.658) " height="8.5"/>
   <use x="-63.73357" y="166.370821" id="svg_79" xlink:href="#shape7" width="70.9" transform="matrix(-1.434,0,0,1.434,50.7757,-161.135) " height="131.55"/>
   <use x="39.214768" y="111.865597" xlink:href="#sprite0" width="102.95" transform="matrix(2.3306,0,0,2.1327,-108.9,-97.65) " id="_mcMask" height="45"/>
  </g>
 </g>
</svg>