<svg width="230" height="234" xmlns="http://www.w3.org/2000/svg" xmlns:xlink="http://www.w3.org/1999/xlink">
 <defs>
  <g transform="matrix(1,0,0,1,192.55,294) " id="shape0">
   <path id="svg_1" stroke-opacity="0" stroke-linejoin="round" stroke-linecap="round" stroke="#ff00ff" fill="none" d="m187.95,-293.5l0,380l-379.95,0l-0.05,0l0,-380l380,0m-95,294.1l-189.95,0"/>
   <path id="svg_2" stroke-opacity="0" stroke-linejoin="round" stroke-linecap="round" stroke="#ff00ff" fill="none" d="m187.95,-293.5l-190,190l190,190m-380,-380l190,190l-189.95,190"/>
  </g>
  <g transform="matrix(1,0,0,1,121.5,124.25) " id="shape1">
   <path id="svg_3" stroke-width="2.5" stroke-linejoin="round" stroke-linecap="round" stroke="#250f0a" fill="none" d="m-6.8,-112.8l3.95,3.5l2.65,-1.3l-0.6,2.45l3.55,4.4l4.5,-2.8l10.95,-1.6l0.45,10.6l1.05,4.35l1.4,0.35l2,2.65l0,4.2l-2.6,-0.95l-2.7,2.15l2.65,1.45l-2,1.1l0.75,4.55l-0.05,2.35l3.5,2.85l-2.7,6.65l-0.7,-0.55l-0.55,1.45l-0.15,2.35l-2.3,5.35l2.85,1.6l-3,2.8l-3.25,2.25l4.35,0.55l3.8,0l3.1,3.3l0.8,3.1l0.95,0.6l0.3,-0.3l1.05,-0.1l0.3,0.45l7.3,6.85l-0.4,1.25l2.8,1.75l4.85,1l1.7,3.1l4.05,2.9l0.7,1.95l0.25,2.55l9.75,0l14.1,-6.6l0.9,-0.75q4.3,-4.5 8.85,-8.2q4.75,-3.95 9.75,-6.95l15.1,-2.25l0.15,0l9.35,5.85l1,3.55l2.55,3.3l-1,6.8l-2,3.35l-10.9,2.3l-1.9,-1.9l-4.3,-1.35l-1.7,-4l-5.2,-2.25l-11.55,2.9l-12.95,5.75l-13.45,3.15l-1.55,-0.25l-7.4,5.25l-8.25,-0.35l-5.15,-1.05l-2.1,-3.55l-0.4,0.25l-1.4,-1.45l0.85,-0.8l-0.75,-3.7l1.65,-0.75l0,-0.45l2.35,-2.05l0.2,-1.25l-2.1,-1.5l-1.35,0.85l-6.7,-3.3l-4.7,-3.9l0.5,-0.75l0.5,-0.35l-0.2,-0.9l-2.15,-2.35l-1.45,-1l-5.7,1.65l-4.45,0.4l-0.7,0.7l0.05,0.1l3.35,9.95l4.85,5.1l0.35,1.45l2.75,0.55l0.05,0l5.3,4.65l6.4,16.2l-2.55,-0.85l0.2,2.4l3,17.25l-3.85,-6.6l-1.45,6.8l-1.1,-4.6l-2.25,1.2l-1.95,3.4l0.15,-1.4l-7.45,9.1l-2.3,2.3l-1,0.9l-4.8,4l1.25,1.1l1.75,1.05l3.85,-0.9l0.05,1.75l4.9,0.4l1.55,5.6l-3.3,7.6l-0.6,4.7l1.9,3.45l0,3.05l-3,1.25l-4.5,5l-7.15,-0.85l-0.7,-3.05l-0.55,0.65l-2.85,1.5l-1.5,-2.15l0.05,-0.45l-2.2,-0.8l0,-4.75l1.5,0l0.05,0l0.5,0.4l-0.05,-0.85l1.3,-1.35l1.45,1.55l3.45,-0.35l1.1,-0.95l2.7,-10.35l-2.5,0.9l-1.5,-2.15l-7.1,-1.1l-6.7,0.85l-0.95,-1.45l0.15,-0.85l-0.65,0.35l-9.5,8.6l-2.25,4.45l0.45,4.05l3.1,0l1.1,3.9l-2.1,3.95l1,2.35l-5.1,12.9l-9.55,9.75l-1.35,3l-4,0.25l0.35,3.7l-1.65,1.6l0.65,6.95l-2.05,5.3l-7.4,0.45l-4.4,5.55l-3.95,-0.25l-0.65,3.25l-5.8,2.1l-1.85,-2.55l-0.45,-1.05l-1.85,3.6l-4.65,-1.4l-0.9,-2.5l-0.55,1.15l-4.1,0l-1.4,-3.85l-0.7,0.35l-3.7,0l-1.1,-6.25l2.5,-3l3.7,1.5l-0.45,-1.05l1.6,-2.55l2.8,1.2l1.4,1.35l4.25,1.35l4.5,-0.15l10.45,-7.2l4.1,-5.75l1.7,-4.1l-0.95,-0.35l-0.95,-2.3l3.25,-4.6l0.7,-3.75l2.05,-3.2l1.2,-0.9l5.75,-11.55l-0.9,-1.65l0.45,-5.55l2.85,-1.1l-0.3,-5.7l-1.45,-1.65l0.2,-7.1l1.3,-3.1l2.7,-1.3l6.65,-4.85l0.85,-1.6l-0.8,-0.3l-0.05,0l-12.2,-4.45l-6.6,-0.8l-4.75,-7.65l5.05,-9q1.5,-1.7 3.4,-3.25q5.25,-4.3 13.55,-7.9l0.05,-0.05l-2.75,-0.7l8.55,-5.65l-1.85,-1.9l6.85,-2.2l5.1,-3.55l8.4,-2.25l2.25,-2.4l-2.75,-4.6l-0.6,0.2l-9.75,-1.55l-5.2,-4.5l-2,0.4l0.15,1.45l-1.85,8l-5.25,7.3l-8.65,3.05l-10,0.45l-7.5,-4.15l-2,0.85l-3.6,3.7l-3.4,5.85l-4.05,1.5l-0.4,-0.8l-3.3,-0.5l-1.1,1.8l-3.5,0.3l-8.05,-2.3l-8.35,1.1l-2,-2.55l-0.7,-2.75l-4.3,5.5l1.15,0.15l0,1.15l0.9,0.2l-0.3,1.4l3.1,0.15l-0.25,1.45l-1.8,2.5l-5.35,2.3l-7.55,-1.8l-0.65,-1.2l-2.95,-1.5l0,-1.6l-1.2,-2.1l0.5,-2.2l-1.8,-2.05l0.3,-3.1l7.75,-7.15l-2.45,0l-1.55,-2.35l1.05,-1.65l1.45,-0.1q3.35,-0.4 4.15,-2.55l5.75,0l3.6,1.35l1.3,0l3.55,-2.2l13.25,4l5.95,-1.05l1.3,2.9l2.1,0.75l6.1,-3.5l1.6,-1.8l-4.9,-11.25l-2.65,-11.3l-1.55,-2.2l0.25,-1.55l1.3,-0.9l-0.7,-8.85l-1.3,-2.4l4.5,-16.6l0.8,-2.95l0.95,-0.9l3.85,-3.85l1.75,-1.1l2.3,-6.35l1.15,3.45l5.1,-8.9l0.85,5l0.5,-1.1l8.6,-18.8l0.45,3.1l7.95,1.2l0.05,-0.15l6.6,-8.15l8,-6.2l-0.9,2.65l8.85,-2.85l-4.2,7.1l10.65,3.1m97,79.1l9,-0.35l0.85,0.25l-0.5,-4.8l0,-0.15l0.85,-0.9l-6.3,1.2l-10.3,4.4l-4.4,3.4l10.8,-3.05"/>
   <path id="svg_4" fill-rule="evenodd" fill="#e4cf87" d="m-35.85,-108.3l0.05,-0.15l6.6,-8.15l8,-6.2l-0.9,2.65l8.85,-2.85l-4.2,7.1l10.65,3.1l1.85,1.7l-3.85,7.25l5.65,-1.7l-2.8,7.15l5.7,-3.2l0.4,-0.5l0.45,-0.25l2.15,-1.4l4.5,-2.8l10.95,-1.6l0.45,10.6l1.05,4.35l1.4,0.35l2,2.65l0,4.2l-2.6,-0.95l-3.4,-1.45l-7.2,-0.25l4.6,3.3q-9,-1.95 -3.85,2.6l0.5,0.4l4.25,3.8l3.75,3.2l3.5,2.85l-2.7,6.65l-0.7,-0.55l-0.55,1.45l-0.15,2.35l-2.3,5.35l2.85,1.6l-3,2.8l-3.25,2.25l-0.75,-0.05l-4.45,0.25l-9.65,-9.6q-4.5,-5 2.5,-3.25l-2.75,-2.2l-1.75,-0.95l-3.35,-1.1l-3.35,-0.5l-3.75,0q-2.7,-2.95 11.25,-8.8l-5,0.9q-12.2,1.9 -11.35,-1.05q0.85,-3 5.9,-5.8l-3,-3l3.75,-2.75l-2,-0.65q-4.7,-0.95 3.8,-3.95l-4.25,0.75l-7.25,1.8l-6.15,2.05l-6.05,2.75l-0.1,0.05l-3.95,-3.95l-1.95,-1.95l-2.3,0.95l-0.1,0.05l3.9,-6.95l-2.95,2.3l2.8,-8.75l3.6,-4.3m-25,17.15l0.4,-1.1l0.25,0.65l-0.65,0.45m80.55,-2.05l-3.25,-0.8l3.25,0.8m-1.25,26.25l0.8,0.55l-0.8,-0.55m-18.9,54.55l4.75,-0.25l7.4,-4l1.6,1.8l6.55,2.45l-3.3,1.1l1.45,1.6l-0.05,2.55l2.45,9.65l-2.65,-2.35l-0.05,3.2l-0.55,1l-4.1,14.1l-1.9,1.9l-1.15,-8.65l-2.2,4.9l-4.6,0.5l0.4,-14.7l-3.85,3.15l0.85,-2.85l-5.75,6.05l-0.85,1.15l-0.45,0.55l-3.25,4.35l0,-0.1l0.35,-5.6l-4.7,0l-2.3,1.8l-1.35,1l1.25,-5.7l0.05,-0.25l-0.05,0.25l-0.25,0l0.3,-0.25l5.9,-4.7l-9,-1.35q7.55,-4.35 15.1,-4.4l-5.8,-0.95q3.25,-1.55 6.45,-3.15l-6.4,0l9.7,-3.8m-12.35,20.55l-1.25,0.95l1.25,-0.95m3.55,-0.45l-0.1,1.4l0.1,-1.4"/>
   <path id="svg_5" fill-rule="evenodd" fill="#b68c49" d="m-4.95,-111.1l2.1,1.8l2.65,-1.3l-0.6,2.45l3.55,4.4l-2.15,1.4l-0.45,0.25l-0.4,0.5l-5.7,3.2l2.8,-7.15l-5.65,1.7l3.85,-7.25m25.45,24.15l-2.7,2.15l2.65,1.45l-2,1.1l0.75,4.55l-0.05,2.35l-3.75,-3.2l-4.25,-3.8l-0.5,-0.4q-5.15,-4.55 3.85,-2.6l-4.6,-3.3l7.2,0.25l3.4,1.45m-7.05,64l2.75,0.55l0.05,0l5.3,4.65l6.4,16.2l-2.55,-0.85l0.2,2.4l3,17.25l-3.85,-6.6l-1.45,6.8l-1.1,-4.6l-2.25,1.2l-1.95,3.4l0.15,-1.4l0.05,-0.85l-2.3,0.5l-2.85,2.75l4.1,-14.1l0.55,-1l0.05,-3.2l2.65,2.35l-2.45,-9.65l0.05,-2.55l-1.45,-1.6l3.3,-1.1l-6.55,-2.45l-1.6,-1.8l1.2,-0.65l1.35,-2.45l-0.8,-3.2m-76.2,-62.95l1.9,-5.25l0.65,-0.45l0.9,2.8l5.1,-8.9l0.85,5l0.5,-1.1l8.6,-18.8l0.45,3.1l7.95,1.2l-3.6,4.3l-2.8,8.75l2.95,-2.3l-3.9,6.95l0.1,-0.05l2.3,-0.95l1.95,1.95l3.95,3.95l0.1,-0.05l6.05,-2.75l6.15,-2.05l7.25,-1.8l4.25,-0.75q-8.5,3 -3.8,3.95l2,0.65l-3.75,2.75l3,3q-5.05,2.8 -5.9,5.8q-0.85,2.95 11.35,1.05l5,-0.9q-13.95,5.85 -11.25,8.8l3.75,0l3.35,0.5l3.35,1.1l1.75,0.95l2.75,2.2q-7,-1.75 -2.5,3.25l9.65,9.6l-3.25,0.25l-3.9,-1.8l-1.5,-0.7l-1,-0.1l-0.4,-0.65l-4.4,-1.05l-4.2,-4.05q-4.1,-4.45 4.85,-1.5q-4.05,-4.65 -14.4,-3.4l0,-2.45l-1.95,-1.2l3.7,-2.9q-9.5,1.1 -7.9,-2.75l-0.1,-0.05l0.6,-3.7l-4.8,-1.6q-2,-3.3 8.8,-10.65q-6.3,0.6 -14.25,5.95l-0.25,-0.6l-0.75,-0.35l-9.9,-4.75l-9.05,0.25l-4.95,1.45l-1.4,0.85m80.55,1.1l-0.95,-0.5l0.95,0.5m-0.5,99.15l-1.4,1.35l1.4,-1.35m-0.45,-31.3l2.25,2.6l-2.25,-2.6m-70.2,-75.75l-1.55,3.35l1.55,-3.35m-5.75,4.5l-0.2,-0.6l0.2,0.6m79.05,102.25l0.7,-1.25l-0.7,1.25m5.65,-14.05l0.35,4.85l-1.2,5.8l1.2,-5.8l-0.35,-4.85m-5.1,-9.8l1.05,10.65l-2.95,10.45l-0.4,3.9l0.4,-3.9l2.95,-10.45l-1.05,-10.65m4.8,6l0.1,1.4l-0.1,-1.4m-3.1,16.65l-0.4,-1.55l0.4,1.55m-28.2,-2.95l0.85,-1.15l5.75,-6.05l-0.85,2.85l3.85,-3.15l-0.4,14.7l-1.8,-1.85l0,-4.85l-2.4,0.35l-3.15,4.05l1.05,-3.45l-3,0.55l0.1,-2m5,0.85l1.25,-1.65l-1.25,1.65m2.4,-1.9l0,1.55l0,-1.55m-4.25,1.75l-0.25,0.75l0.25,-0.75"/>
   <path id="svg_6" fill-rule="evenodd" fill="#9a713f" d="m-32.45,-1.55l-2.75,-0.7l8.55,-5.65l-1.85,-1.9l6.85,-2.2l5.1,-3.55l8.4,-2.25l-1.9,1.95l0.2,1l6.6,2.65l2.8,-0.2l-9.7,3.8l6.4,0q-3.2,1.6 -6.45,3.15l5.8,0.95q-7.55,0.05 -15.1,4.4l9,1.35l-5.9,4.7l-0.3,0.25l-5.45,0.15l0.55,-2.45l-7.6,3.8l5.95,-8.4l-9.25,2.6l0.05,-0.1l1.75,-2.9l-1.75,-0.45m-4,-81.2q7.95,-5.35 14.25,-5.95q-10.8,7.35 -8.8,10.65l4.8,1.6l-0.6,3.7l0.1,0.05q-1.6,3.85 7.9,2.75l-3.7,2.9l-0.9,-0.55l-2.85,1.8l-0.25,0l-1.6,0.05l0,-0.1l-0.25,-0.5l-8.1,-16.4m15.9,19.35q10.35,-1.25 14.4,3.4q-8.95,-2.95 -4.85,1.5l4.2,4.05l-4.2,-0.95l-7.3,2.5l-7.45,-1.2l0.1,-0.9l-0.15,-0.65l3.35,-3.1l0.05,-0.25l0.05,-1.1l1.8,-2l0,-1.3m-2,5.95l0.1,-1.3l-0.1,1.3m6.45,58.55l-5.5,2.8l5.5,-2.8m-10.55,-9l1.9,-1.2l-1.9,1.2m10.8,11.45l-0.55,2.4l0.55,-2.4m-7.25,-10.05l-7.65,4.5l7.65,-4.5"/>
   <path id="svg_7" fill-rule="evenodd" fill="#b16f2e" d="m4.85,-39.55l0.05,0.1l3.35,9.95l4.85,5.1l0.3,1.2l-4.35,4.55l-4.15,-0.45l-0.55,-4.8l-1.9,-1.4l-2.2,-0.25l-6.8,-4.45l-0.75,-2.9l7.35,-5.9l-1.15,-1.15l-11.2,3.65l-5.6,0.85q13.05,-10.3 -17.25,-0.75l-0.85,0.6l-4.5,-0.75l-0.4,-3.55l-1.6,2l-4.15,3.05l-0.8,-0.4l3,-3.95l2,-3.65l11.9,-5l19.35,-0.7l14.4,6.4l0.2,0.1l0.1,0.4l1.35,2.1m-93.45,148.3l1.05,-1.25l2.15,0.9q-3.45,-0.65 -1.25,0.65l1.5,1.3l-1.5,-1.3l7.9,3.45l-6.65,1.4l1.05,-1.45l-2.25,-0.65l-2,-3.05m23.65,-2.9l5.65,-3.9l4.1,-5.75l0.2,-0.45l3.7,2l0.8,5.4l-7.15,7.95l-5.55,2.2l-1.55,5.25l-6.85,-0.25l-0.4,-0.85l-0.5,-1.15l1.75,-0.85l-1.75,0.85l0.5,1.15l-2.2,1.5l-4.8,-1.25l-0.45,-1.4l1.35,-0.9l2.75,-0.15l5.7,-0.35l-1.1,0.55q-2.75,1.35 0.1,1.05l0.35,-0.05l3.75,-0.7l1.95,-3.25l2.1,-0.5l4.55,-5.55q-12.5,5 -7,-0.6m23.3,-61.75l0.05,-1.4l1.3,-3.1l2.7,-1.3l1.65,-1.2l4.45,0.9l0.2,0.1l2.45,3.05l-5.55,3.3l-7.25,-0.35m10.55,-10.55l0.15,-0.1l0.85,-1.6l6.9,-12.85q0.5,-1.5 1.85,-3.2l0.8,-0.95l8.25,-3.4l0.3,3.25l1.3,-0.8l0.45,2.65l5.4,-3.3l-0.05,2.55l5.15,-2.65l-0.25,3.1l1.2,0.8l-1.4,2.7l3.15,0.05q2.35,2.2 -0.5,4.85q-6.55,6.1 -16.8,11.85q-9.35,4.65 -12.6,3.6l-1.35,-1.2l1.35,-3.7l-4.45,1.55l0.3,-3.2m-89.1,-39.45l0.25,-2.8l7.75,-7.15l0.5,-0.45q7.75,-4.5 3.85,3.5l7.45,-3.9l-3.55,8.8l-7.15,6.8l-2.85,0.55l-0.7,-2.75l-2.55,0.7l-0.3,-3.05l-2.7,-0.25m45.35,-11.6l2.1,0.75l6.1,-3.5l1.6,-1.8l0.95,-1l0.75,0.15l0.2,0l3.1,0.5l1.6,3.7l-11.3,10.25l-2.2,0.9l-0.4,-0.55l0.4,0.55l-0.85,0.2l-0.45,0.5l0.85,-1.15l0.05,-0.1l2.55,-4.25l-4.7,2.6l-3.6,-1.15l0,-5.2l2.6,-1.65l0.65,0.25m52.35,-49.55l1.95,1.2l0,2.45l0,1.3l-1.8,2l-0.05,1.1l-0.05,0.25l-3.35,3.1l-2.3,-10.1l1.6,-0.05l0.25,0l2.85,-1.8l0.9,0.55m-2.95,2.95l1.6,-1.3l0.85,2l-0.85,-2l-1.6,1.3m30.6,40.8l-0.8,-0.6l0.8,0.6m-1.65,-18.35l-0.3,-0.5l0.3,0.5m-43.35,0.45l-1.05,1.3l1.05,-1.3m-31.85,24.8l-1.05,-0.35l1.05,0.35m5.05,-3.85l0.55,-0.3l2.75,-2.35l-2.75,2.35l-0.55,0.3m20.15,121.65l-2.2,1.35l-0.15,-2.7l2.4,-2.05l-0.05,3.4m-21.95,15.35l-1.85,-0.3l1.85,0.3m-11.05,-1.3l-3.5,0.95l-1.15,-0.8l4.65,-0.15m3.9,1.3l-1.9,-0.35l1.9,0.35m-5,-4.6l-3.25,-0.45l-0.5,0.75l0.5,-0.75l3.25,0.45"/>
   <path id="svg_8" fill-rule="evenodd" fill="#d89b38" d="m12.85,-50.6l4.35,0.55l3.8,0l2.5,2.65l-14.95,2.05l-6.8,-2.4l-1.25,-4.2l1.25,4.2l1.65,5.7l-0.2,-0.1l-2.4,-3.8l2.4,3.8l-14.4,-6.4l-19.35,0.7l-11.9,5l2.85,-5.05l0.55,-0.5l1.4,-1.05q1.85,-1.4 3.9,-2.4q3.2,-1.6 7,-2.45l1,0.2l7.45,1.2l7.3,-2.5l4.2,0.95l4.4,1.05l0.4,0.65l1,0.1l1.5,0.7l3.9,1.8l3.25,-0.25l4.45,-0.25l0.75,0.05m-98.25,159l1.55,0.6l1.6,0.6l8,-0.3l4.5,-0.15l4.8,-3.3q-5.5,5.6 7,0.6l-4.55,5.55l-2.1,0.5l-1.95,3.25l-3.75,0.7l-0.35,0.05q-2.85,0.3 -0.1,-1.05l1.1,-0.55l-5.7,0.35l-0.85,-1.05l-0.65,0.4l0.65,-0.4l0.85,1.05l-2.75,0.15l0.85,-0.55l-2.25,0.6l-4.65,0.15l-0.95,-0.6l-0.35,-1.05l0.05,-0.05l6.65,-1.4l-7.9,-3.45q-2.2,-1.3 1.25,-0.65m-14.8,-129.55l1.3,0l-0.15,0.1l-0.5,1.9l-0.3,1.1l-0.55,1.35l-7.45,3.9q3.9,-8 -3.85,-3.5l5.5,-5.05l6,0.2m98.2,-31.6l2.05,3.35l-2.05,-3.35m1.6,4.85l-2.2,-1.95l-4.9,-2.9l-7.05,0.45l-3.75,-0.6l3.75,0.6l7.05,-0.45l4.9,2.9l2.2,1.95m-78.9,162.1l-2.3,-0.8l2.3,0.8"/>
   <path id="svg_9" fill-rule="evenodd" fill="#894521" d="m23.5,-47.4l0.6,0.65l0.8,3.1l0.95,0.6l1.05,0.65l0.3,0.65l-3.6,3.6l-3.15,1l-0.75,0.1l-0.2,-1l-0.2,-0.9l-2.15,-2.35l-1.45,-1l-5.7,1.65l-4.45,0.4l-0.7,0.7l-1.35,-2.1l-0.1,-0.4l-1.65,-5.7l6.8,2.4l14.95,-2.05m10.9,12.5l2.8,1.75l4.85,1l1.7,3.1l4.05,2.9l0.7,1.95l0.25,2.55l-2.45,-0.1l0.1,-0.6l-1.55,-0.25l-1.1,0.7l-0.3,-1.6l-1.7,-0.05l-1.15,1.6l-0.35,-1.2l-0.65,-0.15l0.65,0.15l0.35,1.2l1.15,-1.6l1.7,0.05l0.3,1.6l1.1,-0.7l1.55,0.25l-0.1,0.6l-0.45,1.7l3.1,0.2l-1.65,3.65l-1.4,-0.15l-1.1,1l-2.65,-0.65l-2.3,1.15l-1.6,-1.65l-2.15,1.05l-1.75,-2.15l0.7,-1.35l0,-4.1l0,-0.05l0.65,-0.55l0.05,0l2.15,1.05l0,0.15l0.8,-1.05l0.9,0.2l-1,-0.7l-0.2,0l-4.2,-2.9l-3.4,1.55l0,-0.45l2.35,-2.05l0.2,-1.25l-2.1,-1.5l2.25,-1.4l0.9,-2.9m-3.55,16l-0.4,0.25l-1.4,-1.45l0.85,-0.8l0.9,-0.95l0,-0.35l4.15,-0.85l-1.35,2.65l-2.75,1.5m-17.45,-4.3l0.05,0.25l0.8,3.2l-1.35,2.45l-1.2,0.65l-7.4,4l-4.75,0.25l-2.8,0.2l-6.6,-2.65l-0.2,-1l1.9,-1.95l2.25,-2.4l-2.75,-4.6l-0.6,0.2l-4.75,-0.75q-8.95,-3.8 -4,-7.5l-5.2,2l-1,0.2l-2,0.4l-7.15,1.45l-2.85,-0.35l-0.8,-0.1l-4.3,3.25l-0.3,-2.95l-0.2,-0.35l-3.15,-4.7l-1.7,-0.85l4.15,-3.05l1.6,-2l0.4,3.55l4.5,0.75l0.85,-0.6q30.3,-9.55 17.25,0.75l5.6,-0.85l11.2,-3.65l1.15,1.15l-7.35,5.9l0.75,2.9l6.8,4.45l2.2,0.25l1.9,1.4l0.55,4.8l4.15,0.45l4.35,-4.55m4.75,39.25l-1.9,2.3l-0.35,0.45l-5.2,6.35l-2.3,2.3l-1,0.9l-4.8,4l-2.8,1.95l-14.85,6.5l-0.65,0.35l-9.5,8.6l-2.25,4.45l0.3,2.55l-2.05,3.5l-6.6,1.05l-2.65,-3.8l5,-6.25l1.6,0.3l3.3,-5.4l-3.3,-0.75l-3.55,0.45l-1.1,0.85l1.1,-0.85l3.55,-0.45l3.3,0.75l-3.3,5.4l-1.6,-0.3l-4.15,-0.75l-2.7,1.05l-0.05,-0.1l-1.45,-1.65l0.15,-5.7l7.25,0.35l5.55,-3.3l-2.45,-3.05l-0.2,-0.1l-4.45,-0.9l4.85,-3.55l-0.3,3.2l4.45,-1.55l-1.35,3.7l1.35,1.2q3.25,1.05 12.6,-3.6q10.25,-5.75 16.8,-11.85q2.85,-2.65 0.5,-4.85l-3.15,-0.05l1.4,-2.7l-1.2,-0.8l0.25,-3.1l-5.15,2.65l0.05,-2.55l-5.4,3.3l-0.45,-2.65l-1.3,0.8l-0.3,-3.25l-8.25,3.4l3.45,-3.35l0.75,-0.6l2.3,-1.8l4.7,0l-0.35,5.6l0,0.1l3.25,-4.35l0.45,-0.55l-0.1,2l3,-0.55l-1.05,3.45l3.15,-4.05l2.4,-0.35l0,4.85l1.8,1.85l4.6,-0.5l2.2,-4.9l1.15,8.65l1.9,-1.9l2.85,-2.75l2.3,-0.5l-0.05,0.85m-62.05,78.3l0.35,3.7l-1.65,1.6l0.65,6.95l-2.05,5.3l-7.4,0.45l-4.4,5.55l-3.95,-0.25l-0.65,3.25l-5.8,2.1l-1.85,-2.55l-0.45,-1.05l-1.85,3.6l-4.65,-1.4l-0.9,-2.5l-0.55,1.15l-4.1,0l-1.4,-3.85l-0.7,0.35l-3.7,0l-1.1,-6.25l1.45,-1.75l2,3.05l2.25,0.65l-1.05,1.45l-0.05,0.05l0.35,1.05l0.95,0.6l1.15,0.8l3.5,-0.95l2.25,-0.6l-0.85,0.55l-1.35,0.9l0.45,1.4l4.8,1.25l2.2,-1.5l0.4,0.85l6.85,0.25l1.55,-5.25l5.55,-2.2l7.15,-7.95l-0.8,-5.4l-3.7,-2l1.5,-3.65l6.9,2.45l2.7,-0.2m-39.95,14.65l-0.45,-1.05l1.6,-2.55l2.8,1.2l0.3,0.35l1.1,1l4.25,1.35l-8,0.3l-1.6,-0.6m24.55,-123.15l-2,0.85l-3.6,3.7l-3.4,5.85l-4.05,1.5l-0.4,-0.8l-3.3,-0.5l0.1,-0.1l-2.1,-0.25l-2.45,-4.55l1.25,-9.2l2.2,-0.8l0.85,0.45l0.7,0.25l-2.6,1.65l0,5.2l3.6,1.15l4.7,-2.6l-2.55,4.25l-0.05,0.1l-0.85,1.15l0.45,-0.5l0.85,-0.2l2.2,-0.9l11.3,-10.25l-1.6,-3.7l-3.1,-0.5l-0.2,0l-0.75,-0.15l0.65,-0.65l-0.05,0.1l1.15,-1.25l3.25,0.2l2.85,2.2l0.4,6.35l-0.1,0.35l-1.05,0.5l-2.3,1.1m-40.45,6.2l-4.3,5.5l-2.2,2.7l-0.1,0.65l-0.1,0.65l1.75,1.05l1.75,-1.05q0.15,-0.75 0.65,-1.1l3.1,0.15l-0.25,1.45l-1.8,2.5l-5.35,2.3l-7.55,-1.8l-0.65,-1.2l-2.95,-1.5l0,-1.6l-1.2,-2.1l0.5,-2.2l-1.8,-2.05l0.05,-0.3l2.7,0.25l0.3,3.05l2.55,-0.7l0.7,2.75l2.85,-0.55l7.15,-6.8l3.55,-8.8l0.55,-1.35l-1.2,4.65l0.8,3.35l0.5,2.1m-12.45,-7.9l-2.45,0l-1.55,-2.35l1.05,-1.65l1.45,-0.1q3.35,-0.4 4.15,-2.55l5.75,0l3.6,1.35l-6,-0.2l-5.5,5.05l-0.5,0.45m96.95,-18.05l-2.75,1.05l2.75,-1.05m16.85,16.8l0.25,-3.7l-2.65,-1.85l2.65,1.85l-0.25,3.7m-1.35,-8.45l-5.1,-0.6l-3.8,1.35l3.8,-1.35l5.1,0.6m19.65,-15.45l-0.6,-0.55l-3.05,-0.9l-0.55,0.15l0.55,-0.15l3.05,0.9l0.6,0.55m-16.55,25.55l-1.75,-0.75l1.75,0.75m34.5,-12.3l-4.15,-1.1l-0.35,-0.25l0.35,0.25l4.15,1.1m4.65,6l-1,0l1,0m-1.9,-0.2l0.15,0.45l-0.3,1.3l0.3,2.3l1.4,1.9l-1.4,-1.9l-0.3,-2.3l0.3,-1.3l-0.15,-0.45m-1.1,0.85l-1,0l1,0m3.4,-4.7l-2.15,1.8l-2.15,0l2.15,0l2.15,-1.8m-5,3.35l-0.35,3.45l0.7,2.5l-0.7,-2.5l0.35,-3.45m-1,1l-1.35,-0.1l1.35,0.1m9.95,2.25l-1,-0.75l0,-0.1l0,0.1l1,0.75m-1.7,-1.95l-0.65,-0.1l0.65,0.1m1.5,2.9l-1.15,-0.45l0.35,-1.25l-0.35,1.25l1.15,0.45m-0.75,1.9l0.05,-0.1l-2.4,-1.45l-0.35,-1.9l0.6,-1.7l-0.05,-0.4l0.05,0.4l-0.6,1.7l0.35,1.9l2.4,1.45l-0.05,0.1m-117.15,9.7l-0.7,-0.9l0.7,0.9m32.1,-22.85l2.15,0.25l-2.15,-0.25m-33.6,26.45l-1.4,-2.55l0.9,-1.25l-0.9,1.25l1.4,2.55m-31.95,5.65q0.25,0.2 0.55,0.35q-0.3,-0.15 -0.55,-0.35m-7.95,-21.45l-1.05,-1.1l1.05,1.1m66.15,120.25l0.05,-3.4l-2.4,2.05l0.15,2.7l2.2,-1.35m-24.6,18l-0.5,-1.1l0.5,1.1m-9.2,-11.2l0.7,-1.25l-0.7,1.25m-4.25,8.2l-0.55,-1.4l0.55,1.4m5.55,1.3l0.5,1.4l-0.5,-1.4"/>
   <path id="svg_10" fill-rule="evenodd" fill="#6b532c" d="m-25.75,-54.1l-1,-0.2q-3.8,0.85 -7,2.45l-1.25,-9l0,-0.05l1.95,-3.75l1.45,1.55l-0.65,-5.9l3.95,10.2l-0.05,-7.55l0.25,0.5l0,0.1l2.3,10.1l0.15,0.65l-0.1,0.9"/>
   <path id="svg_11" fill-rule="evenodd" fill="#6a3420" d="m9.5,35.35l4.9,0.4l1.55,5.6l-3.3,7.6l-0.6,4.7l1.9,3.45l0,3.05l-3,1.25l-4.5,5l-7.15,-0.85l-0.7,-3.05l-0.55,0.65l-2.85,1.5l-1.5,-2.15l0.05,-0.45l0.65,-4.1l0.3,-0.15l-1.1,-0.9l-0.05,-0.85l1.3,-1.35l1.45,1.55l3.45,-0.35l1.1,-0.95l2.7,-10.35l2.25,-0.85l3.85,-5.6l-0.15,-2.8m-36.65,21.4l0.15,1.5l0.9,2.4l-8.65,3.1l-6,-4.2l0.7,-2.3l0,-0.1l-0.3,-5.7l0.05,0.1l2.7,-1.05l4.15,0.75l-5,6.25l2.65,3.8l6.6,-1.05l2.05,-3.5m-2.95,-24.9l-0.8,-0.3l-0.05,0l-12.2,-4.45l-6.6,-0.8l-4.75,-7.65l5.05,-9q1.5,-1.7 3.4,-3.25q5.25,-4.3 13.55,-7.9l0.05,-0.05l1.75,0.45l-1.75,2.9l-0.05,0.1l9.25,-2.6l-5.95,8.4l7.6,-3.8l-0.55,2.45l5.45,-0.15l0.25,0l-1.25,5.7l1.35,-1l-0.75,0.6l-3.45,3.35l-0.8,0.95q-1.35,1.7 -1.85,3.2l-6.9,12.85m16.1,-57.2l-5,-0.8l-5.2,-4.5l1,-0.2l5.2,-2q-4.95,3.7 4,7.5m-18.4,41l3.75,0.15l0.55,-0.2l5.25,0l0.85,-0.2l-0.85,0.2l-5.25,0l-0.55,0.2l-3.35,1.5l3.35,-1.5l-3.75,-0.15m30,42.55l-1.9,-0.85l-1,0.45l1,-0.45l1.9,0.85m2.15,-2.3l-1.5,1.45l1.5,-1.45m4.3,2.95l-4.05,-0.9l-1.95,2l0.55,2.55l-0.55,-2.55l1.95,-2l4.05,0.9"/>
   <path id="svg_12" fill-rule="evenodd" fill="#5a4225" d="m-26.2,-30.25l0.15,1.45l-1.85,8l-5.25,7.3l-8.65,3.05l-10,0.45l-7.5,-4.15l2.3,-1.1l0.85,0.55l1.7,0l1.35,-0.95l5.3,2.5l5.4,-1.25l4,-4.95l2.2,-9.8l2.85,0.35l7.15,-1.45m-38.2,-44.6l-2.65,7.15l-1.15,18.05l0.15,0.95l1.05,5.6l0.95,5.15l0.3,1.6l0.2,0.45l0.05,0.2l0.25,0.6l3.05,6.95l-0.75,1.15l-6.7,-18l0.55,-21.85l4.7,-8"/>
   <path id="svg_13" fill-rule="evenodd" fill="#dc7d0a" d="m27.5,-43l4.85,4.55l2.45,2.3l-0.4,1.25l-0.9,2.9l-2.25,1.4l-1.35,0.85l-6.7,-3.3l-4.7,-3.9l0.5,-0.75l0.5,-0.35l0.2,1l0.75,-0.1l3.15,-1l3.6,-3.6l0.3,-0.3l0,-0.95m-54.5,101.25l3.1,0l1.1,3.9l-2.1,3.95l1,2.35l-5.1,12.9l-9.55,9.75l-1.35,3l-4,0.25l-2.7,0.2l-6.9,-2.45l-0.95,-0.35l-0.35,-0.8l10.2,0.45l3.2,-4.15l-4.55,-3.95l0.55,-1l3.6,0.6l4.7,-1.35l4.7,-4.8l0.9,-8.5l-2.9,0.4l-4.7,-1.15l-3.45,-2.25l-0.8,-1.45l0.05,-0.2l0.4,-5.35l2.85,-1.1l0,0.1l-0.7,2.3l6,4.2l8.65,-3.1l-0.9,-2.4m-22.65,20l0.25,-0.35l1.2,-0.9l0.8,-1.65l6.2,3.45l-8.45,-0.55m-26.4,-81.8l-1.1,1.8l-3.5,0.3l-8.05,-2.3l-3,0.35l-5.35,0.75l-2,-2.55l-0.7,-2.75l-0.5,-2.1q0.75,1.9 2.4,0.35l0.2,-5.4l5.8,-7.2l8.25,2.5l-9.3,7.45l-0.65,2.2l0.3,0.1l6.4,2.15l4.1,-2.6l2.6,-9.2l4,-0.7l1.3,2.9l-0.65,-0.25l-0.7,-0.25l-0.85,-0.45l-2.2,0.8l-1.25,9.2l2.45,4.55l2.1,0.25l-0.1,0.1m100.1,-29.9l6.75,0.5l1.55,-5.5l-1.55,5.5l-6.75,-0.5m-75.5,-1.15l3.4,0.9l2.9,4.25l0.35,0.2l0.85,0.85l2.15,-0.9l0.2,0.35l0.3,2.95l0.25,2.65l-1.95,1.4l-2.6,0.2l-3.75,1.5l-2.35,3.6l-1.4,1l-1.35,0.95l-1.7,0l-0.85,-0.55l1.05,-0.5l0.1,-0.35l-0.4,-6.35l-2.85,-2.2l-3.25,-0.2l-1.15,1.25l0.05,-0.1l-0.55,-1.75l0.45,-0.7l4.45,-0.3l4.25,2.2l4.95,-0.65l3.4,-3.15l-1.05,-2.6l-5,-2.5l0.6,-0.25l0.5,-1.2m-42.1,24.45l-1.4,4.35l-3,-2.3l0.1,-1.6l-0.1,1.6l3,2.3l1.4,-4.35m1.85,6.75l-3.25,-2.4l3.25,2.4m1.75,-0.75l-3.3,-5.9l3.3,5.9"/>
   <path id="svg_14" fill-rule="evenodd" fill="#ffb612" d="m25.85,-43.05l0.3,-0.3l1.05,-0.1l0.3,0.45l0,0.95l-0.3,0.3l-0.3,-0.65l-1.05,-0.65m-80.65,134l-0.6,-1.5l3.25,-4.6l0.7,-3.75l1.8,-2.85l8.45,0.55l-6.2,-3.45l4.95,-9.9l-0.1,-0.2l3.45,2.25l4.7,1.15l2.9,-0.4l-0.9,8.5l-4.7,4.8l-4.7,1.35l-3.6,-0.6l-0.55,1l4.55,3.95l-3.2,4.15l-10.2,-0.45m-44.1,-112.1l3.55,-2.2l3.5,1.05l-5.8,7.2l-0.2,5.4q-1.65,1.55 -2.4,-0.35l-0.8,-3.35l1.2,-4.65l0.3,-1.1l0.5,-1.9l0.15,-0.1m15.3,1.35l1.5,0.45l1.95,-0.35l-2.6,9.2l-4.1,2.6l-6.4,-2.15l-0.3,-0.1l0.65,-2.2l9.3,-7.45m36.15,-15.45l0.8,0.4l1.7,0.85l3.15,4.7l-2.15,0.9l-0.85,-0.85l-0.35,-0.2l-2.9,-4.25l-3.4,-0.9l0.35,-0.9l1.6,-0.7l2.05,0.95m-14.75,7.1l0.25,-0.3l3.25,-0.2l2.05,-2.95l1.85,-0.7l2.25,-0.85l5,2.5l1.05,2.6l-3.4,3.15l-4.95,0.65l-4.25,-2.2l-4.45,0.3l0.6,-0.85l0.75,-1.15m4.55,-0.55l-1.05,0.05l1.05,-0.05"/>
   <path id="svg_15" fill-rule="evenodd" fill="#828716" d="m48.75,-21.65l9.75,0l5.35,-2.5l4.65,2.1l-13.2,3.1l-1.55,-0.25l-4.8,-0.65l-3.1,-0.2l0.45,-1.7l2.45,0.1m-18.85,0.75l-0.75,-3.7l1.65,-0.75l3.4,-1.55l4.2,2.9l0.2,0l1,0.7l-0.9,-0.2l-0.8,1.05l0,-0.15l-2.15,-1.05l-0.05,0l-0.65,0.55l0,-0.1l-0.1,0.15l-4.15,0.85l0,0.35l-0.9,0.95m5.15,-2.3l0.65,-0.45l-0.65,0.45m74.15,-7.1l0.1,0.05l2.8,1.95l0.3,0.1l4.2,1.4l-7,2.85l-3.85,-0.65l-4.05,-2.5l-0.95,-0.4l6.5,0.95l1.95,-3.75"/>
   <path id="svg_16" fill-rule="evenodd" fill="#6d6c12" d="m73.5,-29q4.3,-4.5 8.85,-8.2l11.6,-5.6l16.6,-1.6l6.15,3.85l1,3.55l2.55,3.3l-1,6.8l-2,3.35l-10.9,2.3l-1.9,-1.9l-4.3,-1.35l-1.7,-4l1.15,0.5l1.15,0.5l0.95,0.4l4.05,2.5l3.85,0.65l7,-2.85l-4.2,-1.4l-0.3,-0.1l-2.8,-1.95l3.95,-1.65l1.3,-4.9l-0.35,-1.2l-0.4,-1.4l-6.15,-4.1l-4.05,0.7l-3.2,3.15l-6.3,1.2l-10.3,4.4l-4.4,3.4l-5.9,1.65m-19.75,9.8l-7.4,5.25l-8.25,-0.35l-5.15,-1.05l-2.1,-3.55l2.75,-1.5l1.35,-2.65l0.1,0l0,4.1l-0.7,1.35l1.75,2.15l2.15,-1.05l1.6,1.65l2.3,-1.15l2.65,0.65l1.1,-1l1.4,0.15l1.65,-3.65l4.8,0.65m60.05,-20.2l-0.3,-0.95l0.3,0.95m3.9,2.4l1.05,3.55l-1.35,6.35l-0.8,0.3l0.8,-0.3l1.35,-6.35l-1.05,-3.55m-13.25,13.85l-4.85,-4.85l4.85,4.85"/>
   <path id="svg_17" fill-rule="evenodd" fill="#a2b01d" d="m63.85,-24.15l8.75,-4.1l0.9,-0.75l5.9,-1.65l10.8,-3.05l9,-0.35l0.85,0.25l4.35,1.25l2.35,0.65l0.4,0.1l2.05,1.5l-1.95,3.75l-6.5,-0.95l-1.15,-0.5l-1.15,-0.5l-5.2,-2.25l-11.55,2.9l-12.95,5.75l-0.25,0.05l-4.65,-2.1m18.5,-13.05q4.75,-3.95 9.75,-6.95l15.1,-2.25l0.15,0l3.2,2l-16.6,1.6l-11.6,5.6m-47.3,14.1l0,0.05l-0.1,0l0.1,-0.15l0,0.1m-100.4,-12.55l0.1,0.55l-0.25,-0.6l-0.05,-0.2l0.2,0.25"/>
   <path id="svg_18" fill-rule="evenodd" fill="#794724" d="m-53.75,-75.2l-2.85,-0.6l-4.05,2.7l-0.15,-2.6l4.85,-1.35l2.2,1.85m-12.3,37.25l2.3,-0.9l3.75,3.05l0.9,2.35l-6.25,-2.2l-0.2,-0.25l-0.2,-0.45l-0.3,-1.6m-0.35,-27.15l0.15,-2.6l2.3,-5.2l0.2,7.25l-2.65,0.55m-0.6,5.2l2.25,-0.3l1.2,4.45l-3.45,0.45l0,-4.6"/>
   <path id="svg_19" fill-rule="evenodd" fill="#a4672b" d="m-60.65,-73.1l4.05,-2.7l2.85,0.6l1.05,0.9l-7.65,7.75l-0.3,-6.55m10,4.9l3.6,1.85l1.25,2.75l-11.35,5.95l0.9,-6.15l5.6,-4.4m-3.95,29.4l2.4,-5.25l9.8,-3.3l-12.35,11.8l0.15,-3.25"/>
   <path id="svg_20" fill-rule="evenodd" fill="#868517" d="m-37.65,-49.45l-1.4,1.05l-4.1,-14l-9.35,-12.55l-1.25,-0.25l-2.2,-1.85l-4.85,1.35l0.15,2.6l-1.55,0.95l0.05,7.25l0.05,0.75l-0.05,-0.75l1.95,0l-1.75,3.7l0.05,0.35l0.2,2.35l1.4,0.65l-0.9,4.2l1.25,7.2l0.5,2.2l1.25,4.85l1.8,5.6l1.6,1.5l-1.85,0.7l-2.05,2.95l-3.25,0.2l-0.25,0.3l-3.05,-6.95l-0.1,-0.55l6.25,2.2l-0.9,-2.35l-3.75,-3.05l-2.3,0.9l-0.95,-5.15l-1.05,-5.6l-0.15,-0.95l1.15,-18.05l2.65,-7.15l0.45,-1.15l0.35,-0.2l4.95,-2.9l7.8,0.85l9.25,14.85l2.9,8.9l1.05,5.05m-18.45,16.5l-0.3,-0.85l0.3,0.85m-10.3,-32.15l2.65,-0.55l-0.2,-7.25l-2.3,5.2l-0.15,2.6m4.2,-7.05l0.1,-3.05l-0.1,3.05m0.5,14.05l0,-0.4l0,0.4m-5.3,-1.8l0,4.6l3.45,-0.45l-1.2,-4.45l-2.25,0.3m5.8,6.25l-0.1,-1.15l0.1,1.15m-6,5.5l1.25,5.9l1.45,0.55l2,-1.25l-0.95,-4.15q-1,-1.05 -1.65,-1.05l-2.1,0m14.1,32.5l1.4,-1l2.35,-3.6l3.75,-1.5l2.6,-0.2l1.95,-1.4l-0.25,-2.65l4.3,-3.25l0.8,0.1l-2.2,9.8l-4,4.95l-5.4,1.25l-5.3,-2.5m-8.85,-45.55l-0.1,-1.3l0.1,1.3"/>
   <path id="svg_21" fill-rule="evenodd" fill="#b8bf20" d="m-42.45,-42.85l-2,3.65l-3,3.95l-2.05,-0.95l-1.6,0.7l-0.35,0.9l-0.5,1.2l-0.6,0.25l-2.25,0.85l-1.6,-1.5l-1.8,-5.6l-1.25,-4.85l-0.5,-2.2l-1.25,-7.2l0.9,-4.2l-1.4,-0.65l-0.2,-2.35l-0.05,-0.35l1.75,-3.7l-1.95,0l-0.05,-7.25l1.55,-0.95l0.3,6.55l7.65,-7.75l-1.05,-0.9l1.25,0.25l9.35,12.55l4.1,14l-0.55,0.5l-2.85,5.05m-8.2,-25.35l-5.6,4.4l-0.9,6.15l11.35,-5.95l-1.25,-2.75l-3.6,-1.85m9.5,14.65q-2.05,-5 -5.3,-6.15l-7.15,7.15l-1.4,2.7l1.65,2.9l11.25,-4.3l0.95,-2.3m-13.45,14.75l-0.15,3.25l12.35,-11.8l-9.8,3.3l-2.4,5.25"/>
   <path id="svg_22" fill-rule="evenodd" fill="#775c33" d="m-65.05,-22.05l-4.9,-11.25l-2.65,-11.3l-1.55,-2.2l0.25,-1.55l1.3,-0.9l-0.7,-8.85l-1.3,-2.4l4.5,-16.6l0.8,-2.95l0.95,-0.9l3.85,-3.85l1.75,-1.1l1.4,-0.85l8.9,0.35l6.75,4.2l6.95,11.9l0.2,0.45l0.7,1.75l2.85,7.25l1.25,9q-2.05,1 -3.9,2.4l-1.05,-5.05l-2.9,-8.9l-9.25,-14.85l-7.8,-0.85l-4.95,2.9l-0.35,0.2l-0.45,1.15l-4.7,8l-0.55,21.85l6.7,18l-0.6,0.85l-0.45,0.7l0.55,1.75l-0.65,0.65l-0.95,1"/>
   <path id="svg_23" fill-rule="evenodd" fill="#ac8139" d="m-28.35,-66.35l0.05,7.55l-3.95,-10.2l0.65,5.9l-1.45,-1.55l-1.95,3.75l0,0.05l-2.85,-7.25l-0.7,-1.75l-0.2,-0.45l-6.95,-11.9l-6.75,-4.2l-8.9,-0.35l4.95,-1.45l9.05,-0.25l9.9,4.75l0.75,0.35l0.25,0.6l8.1,16.4m-9.55,-11.45l1,2l-1,-2m-6.2,-4.8l4.8,7.6l-4.8,-7.6m9.4,6.6l-2.6,-5l-3,-2l3,2l2.6,5"/>
   <path id="svg_24" fill-rule="evenodd" fill="#313309" d="m-41.15,-53.55l-0.95,2.3l-11.25,4.3l-1.65,-2.9l1.4,-2.7l7.15,-7.15q3.25,1.15 5.3,6.15m-26.05,5.4l2.1,0q0.65,0 1.65,1.05l0.95,4.15l-2,1.25l-1.45,-0.55l-1.25,-5.9"/>
   <path id="svg_25" fill-rule="evenodd" fill="#74341d" d="m-104.05,-2.45l1.15,0.15l0,1.15l0.9,0.2l-0.3,1.4q-0.5,0.35 -0.65,1.1l-1.75,1.05l-1.75,-1.05l0.1,-0.65l0.1,-0.65l2.2,-2.7m-2.3,3.35l2.1,-0.6l0.3,-1.85l1.05,0.4l-1.05,-0.4l-0.3,1.85l-2.1,0.6"/>
   <path id="svg_26" fill-rule="evenodd" fill="#ac4e09" d="m2.6,32.35l1.25,1.1l1.75,1.05l3.85,-0.9l0,1l0.05,0.35l0,0.4l0.15,2.8l-3.85,5.6l-2.25,0.85l-2.5,0.9l-1.5,-2.15l-7.1,-1.1l-6.7,0.85l-0.95,-1.45l0.15,-0.85l14.85,-6.5l2.8,-1.95"/>
   <path id="svg_27" fill-rule="evenodd" fill="#5c2916" d="m-6.25,62.05l-2.2,-0.8l0,-4.75l1.5,0l0.05,0l0.5,0.4l1.1,0.9l-0.3,0.15l-0.65,4.1"/>
   <path id="svg_28" fill-rule="evenodd" fill="#d0dae3" d="m100.05,-33.8l-0.5,-4.8l3.3,-1.7l0.55,-0.25l1.4,-0.05l-0.1,0l0.2,-0.05l1.55,5.1l-0.05,0.1l-1.65,2.45l-0.35,0.45l-4.35,-1.25"/>
   <path id="svg_29" fill-rule="evenodd" fill="#b6c1d3" d="m99.55,-38.6l0,-0.15l0.85,-0.9l3.2,-3.15l4.05,-0.7l6.15,4.1l0.4,1.4l-1.85,2.85l-0.35,0.55l-1.1,1.7l-4.15,1l-2.35,-0.65l0.35,-0.45l1.75,-2.4l1.8,0.55l4.05,-0.3l-4.05,0.3l-1.8,-0.55l-1.75,2.4l1.65,-2.45l0.05,-0.1l-1.55,-5.1l-0.2,0.05l0.1,0l-1.4,0.05l-0.55,0.25l-3.3,1.7m7.95,-3.25l-2.7,1.25l2.7,-1.25m-1.1,6.4l0.1,0.05l-0.1,-0.05"/>
   <path id="svg_30" fill-rule="evenodd" fill="#7d95b0" d="m106.75,-31.9l4.15,-1l1.1,-1.7l0.35,-0.55l1.85,-2.85l0.35,1.2l-1.3,4.9l-3.95,1.65l-0.1,-0.05l-2.05,-1.5l-0.4,-0.1m6.05,-1.45l-0.8,-1.25l0.8,1.25"/>
   <path id="svg_31" stroke-width="0.05" stroke-linejoin="round" stroke-linecap="round" stroke="#4a2e00" fill="none" d="m-35.85,-108.3l0.05,-0.15l6.6,-8.15l8,-6.2l-0.9,2.65l8.85,-2.85l-4.2,7.1l10.65,3.1l1.85,1.7l2.1,1.8l2.65,-1.3l-0.6,2.45l3.55,4.4l4.5,-2.8l10.95,-1.6l0.45,10.6l1.05,4.35l1.4,0.35l2,2.65l0,4.2l-2.6,-0.95l-2.7,2.15l2.65,1.45l-2,1.1l0.75,4.55l-0.05,2.35l3.5,2.85l-2.7,6.65l-0.7,-0.55l-0.55,1.45l-0.15,2.35l-2.3,5.35l2.85,1.6l-3,2.8l-3.25,2.25l4.35,0.55l3.8,0l2.5,2.65l0.6,0.65l0.8,3.1l0.95,0.6l0.3,-0.3l1.05,-0.1l0.3,0l0,0.45l4.85,4.55l2.45,2.3l-0.4,1.25l2.8,1.75l4.85,1l1.7,3.1l4.05,2.9l0.7,1.95l0.25,2.55l9.75,0l5.35,-2.5l8.75,-4.1l0.9,-0.75q4.3,-4.5 8.85,-8.2q4.75,-3.95 9.75,-6.95l15.1,-2.25l0.15,0l3.2,2l6.15,3.85l1,3.55l2.55,3.3l-1,6.8l-2,3.35l-10.9,2.3l-1.9,-1.9l-4.3,-1.35l-1.7,-4l-5.2,-2.25l-11.55,2.9l-12.95,5.75l-0.25,0.05l-13.2,3.1l-1.55,-0.25l-7.4,5.25l-8.25,-0.35l-5.15,-1.05l-2.1,-3.55l-0.4,0.25l-1.4,-1.45l0.85,-0.8l-0.75,-3.7l1.65,-0.75l0,-0.45l2.35,-2.05l0.2,-1.25l-2.1,-1.5l-1.35,0.85l-6.7,-3.3l-4.7,-3.9l0.5,-0.75l0.5,-0.35l-0.2,-0.9l-2.15,-2.35l-1.45,-1l-5.7,1.65l-4.45,0.4l-0.7,0.7l0.05,0.1l3.35,9.95l4.85,5.1l0.3,1.2l0.05,0.25l2.75,0.55l0.05,0l5.3,4.65l6.4,16.2l-2.55,-0.85l0.2,2.4l3,17.25l-3.85,-6.6l-1.45,6.8l-1.1,-4.6l-2.25,1.2l-1.95,3.4l0.15,-1.4l-1.9,2.3m-0.35,0.45l-5.2,6.35l-2.3,2.3l-1,0.9l-4.8,4l1.25,1.1l1.75,1.05l3.85,-0.9l0,1m0.05,0.35l0,0.4l4.9,0.4l1.55,5.6l-3.3,7.6l-0.6,4.7l1.9,3.45l0,3.05l-3,1.25l-4.5,5l-7.15,-0.85l-0.7,-3.05l-0.55,0.65l-2.85,1.5l-1.5,-2.15l0.05,-0.45l-2.2,-0.8l0,-4.75l1.5,0l0.05,0l0.5,0.4l-0.05,-0.85l1.3,-1.35l1.45,1.55l3.45,-0.35l1.1,-0.95l2.7,-10.35l-2.5,0.9l-1.5,-2.15l-7.1,-1.1l-6.7,0.85l-0.95,-1.45l0.15,-0.85l-0.65,0.35l-9.5,8.6l-2.25,4.45l0.3,2.55l0.15,1.5l3.1,0l1.1,3.9l-2.1,3.95l1,2.35l-5.1,12.9l-9.55,9.75l-1.35,3l-4,0.25l0.35,3.7l-1.65,1.6l0.65,6.95l-2.05,5.3l-7.4,0.45l-4.4,5.55l-3.95,-0.25l-0.65,3.25l-5.8,2.1l-1.85,-2.55l-0.45,-1.05l-1.85,3.6l-4.65,-1.4l-0.9,-2.5l-0.55,1.15l-4.1,0l-1.4,-3.85l-0.7,0.35l-3.7,0l-1.1,-6.25l1.45,-1.75l1.05,-1.25l2.15,0.9l1.55,0.6l-0.45,-1.05l1.6,-2.55l2.8,1.2l0.3,0.35l1.1,1l4.25,1.35l4.5,-0.15l4.8,-3.3l5.65,-3.9l4.1,-5.75l0.2,-0.45l1.5,-3.65l-0.95,-0.35l-0.35,-0.8l-0.6,-1.5l3.25,-4.6l0.7,-3.75l1.8,-2.85l0.25,-0.35l1.2,-0.9l0.8,-1.65l4.95,-9.9l-0.1,-0.2l-0.8,-1.45m0.05,-0.2l0.4,-5.35l2.85,-1.1l-0.3,-5.7l-1.45,-1.65l0.15,-5.7l0.05,-1.4l1.3,-3.1l2.7,-1.3l1.65,-1.2l4.85,-3.55l0.15,-0.1l0.85,-1.6l-0.8,-0.3m-0.05,0l-12.2,-4.45l-6.6,-0.8l-4.75,-7.65l5.05,-9q1.5,-1.7 3.4,-3.25q5.25,-4.3 13.55,-7.9l0.05,-0.05l-2.75,-0.7l8.55,-5.65l-1.85,-1.9l6.85,-2.2l5.1,-3.55l8.4,-2.25l2.25,-2.4l-2.75,-4.6l-0.6,0.2l-4.75,-0.75l-5,-0.8l-5.2,-4.5l-2,0.4l0.15,1.45l-1.85,8l-5.25,7.3l-8.65,3.05l-10,0.45l-7.5,-4.15l-2,0.85l-3.6,3.7l-3.4,5.85l-4.05,1.5l-0.4,-0.8l-3.3,-0.5l-1.1,1.8l-3.5,0.3l-8.05,-2.3l-3,0.35l-5.35,0.75l-2,-2.55l-0.7,-2.75l-4.3,5.5l1.15,0.15l0,1.15l0.9,0.2l-0.3,1.4l3.1,0.15l-0.25,1.45l-1.8,2.5l-5.35,2.3l-7.55,-1.8l-0.65,-1.2l-2.95,-1.5l0,-1.6l-1.2,-2.1l0.5,-2.2l-1.8,-2.05l0.05,-0.3l0.25,-2.8l7.75,-7.15l-2.45,0l-1.55,-2.35l1.05,-1.65l1.45,-0.1q3.35,-0.4 4.15,-2.55l5.75,0l3.6,1.35l1.3,0l3.55,-2.2l3.5,1.05l8.25,2.5l1.5,0.45l1.95,-0.35l4,-0.7l1.3,2.9l2.1,0.75l6.1,-3.5l1.6,-1.8l-4.9,-11.25l-2.65,-11.3l-1.55,-2.2l0.25,-1.55l1.3,-0.9l-0.7,-8.85l-1.3,-2.4l4.5,-16.6l0.8,-2.95l0.95,-0.9l3.85,-3.85l1.75,-1.1l1.9,-5.25l0.4,-1.1l0.25,0.65l0.9,2.8l5.1,-8.9l0.85,5l0.5,-1.1l8.6,-18.8l0.45,3.1l7.95,1.2l-3.6,4.3m47.1,53.6l4.45,-0.25l0.75,0.05m7.65,-36.35l-3.4,-1.45m-1.7,9.85l3.75,3.2m-2.7,-18.65l3.25,0.8m-2.85,7.9l0.95,0.5m1.45,18.4l-0.8,-0.55m-18.3,-35.15l-0.4,0.5m0.85,-0.75l2.15,-1.4m-25.25,36.7l1.95,1.2l0,2.45l0,1.3l-1.8,2l-0.05,1.1m15.6,4.55l4.4,1.05l0.4,0.65l1,0.1l1.5,0.7l3.9,1.8l3.25,-0.25m-34.15,-15.4l0.25,0l2.85,-1.8l0.9,0.55m-0.5,3.65l-0.85,-2l-1.6,1.3m3,5.35l-0.1,1.3m22.8,31.9l2.2,0.25l1.9,1.4l0.8,0.6m-1.75,-18.75l0.1,0.4l1.35,2.1m-1.65,-2.6l0.3,0.5m-3,-10.3l1.25,4.2l1.65,5.7m-21.7,-10.85l3.75,0.6l7.05,-0.45l4.9,2.9l2.2,1.95m0.45,-1.5l-2.05,-3.35m2.8,6.8l2.4,3.8m-45.65,-0.7l-2,3.65l-3,3.95l0.8,0.4l4.15,-3.05l1.6,-2l1.05,-1.3m6.1,-10.65q3.2,-1.6 7,-2.45l1,0.2l0.1,-0.9l-0.15,-0.65l-2.3,-10.1l0,-0.1l-0.25,-0.5m-5.4,14.5q-2.05,1 -3.9,2.4l-1.4,1.05l-0.55,0.5l-2.85,5.05m16.7,-11.25l7.45,1.2l7.3,-2.5l4.2,0.95m-17.4,23.8l1,-0.2l5.2,-2l2.75,-1.05m14.8,21.5l-2.8,0.2l-6.6,-2.65l-0.2,-1l1.9,-1.95m-0.5,-7l3.8,-1.35l5.1,0.6m-1.05,2.9l2.65,1.85l-0.25,3.7m10.1,0.45l-7.4,4l-4.75,0.25m-15.95,18.35l-0.05,0.25l-1.25,5.7l1.35,-1l2.3,-1.8l1.25,-0.95m26.25,-31.1l0.8,3.2l-1.35,2.45l-1.2,0.65m1.35,35.1l2.85,-2.75l1.4,-1.35m-15.7,-30.55l1.75,0.75m12.35,-26.85l0.55,-0.15l3.05,0.9l0.6,0.55m7.6,-2l0,0.95l-0.3,0.3l-3.6,3.6l-3.15,1l-0.75,0.1l-0.2,-1m8,-4.95l-0.3,-0.45m-1.35,0.4l1.05,0.65l0.3,0.65m5.15,3.3l-1.55,5.5l-6.75,-0.5m-4.95,19.1l-2.25,-2.6m18.1,-6.1l-4.15,0.85l0,0.35l-0.9,0.95m3.45,-8.2l0.35,0.25l4.15,1.1m-6.6,-2.85l2.25,-1.4l0.9,-2.9m1.3,11.25l0.05,0l2.15,1.05l0,0.15l0.8,-1.05l0.9,0.2l-1,-0.7l-0.2,0l-4.2,-2.9l-3.4,1.55m8.8,2.05l0.65,0.15l0.35,1.2l1.15,-1.6l1.7,0.05l0.3,1.6l1.1,-0.7l1.55,0.25l-0.1,0.6l2.45,0.1m-10.15,-2.35l2.15,0l2.15,-1.8m-4.4,4.7l1,0m2.65,5.1l-1.4,-1.9l-0.3,-2.3l0.3,-1.3l-0.15,-0.45m0.9,0.2l1,0m-7.45,-1.3l0,-0.05l0,-0.1l-0.1,0.15l0.1,0l0,4.1l-0.7,1.35l1.75,2.15l2.15,-1.05l-0.7,-2.5l0.35,-3.45m-2.85,-0.65l0.65,-0.55l-0.65,0.45m0.5,1.65l1.35,0.1m-1.95,-1.6l-1.35,2.65l-2.75,1.5m18.1,-0.95l-1.65,3.65l-1.4,-0.15l-1.1,1l-2.65,-0.65l-2.3,1.15l-1.6,-1.65m6.25,-4.75l0.65,0.1m0.7,1.1l0,0.1l1,0.75m-0.55,-2.55l-0.45,1.7l3.1,0.2l4.8,0.65m-10,-2.7l0.05,0.4l-0.6,1.7l0.35,1.9l2.4,1.45l-0.05,0.1m-0.05,-3.6l-0.35,1.25l1.15,0.45m-105.95,-70.55l0.2,0.6m4.2,-1.15l1.55,-3.35m-9.4,6.8l1.4,-0.85l4.95,-1.45l9.05,-0.25l9.9,4.75l0.75,0.35l0.25,0.6l8.1,16.4m-9.3,16.9l-1.05,-5.05l-2.9,-8.9l-9.25,-14.85l-7.8,-0.85l-4.95,2.9l-0.35,0.2l-0.45,1.15l-2.65,7.15l-1.15,18.05l0.15,0.95l1.05,5.6l0.95,5.15m0.8,2.85l3.05,6.95l0.25,-0.3l3.25,-0.2l2.05,-2.95l1.85,-0.7l2.25,-0.85l0.6,-0.25l0.5,-1.2l0.35,-0.9l1.6,-0.7l2.05,0.95m-8.95,1.45l0.3,0.85m-6.05,-31.95l0.05,0.75m0.2,3.3l0.2,2.35l0,0.4m0.5,4.45l1.25,7.2l0.5,2.2l1.25,4.85l1.8,5.6m-5.8,-38.35l0.05,7.25m0.05,-10.3l-0.1,3.05m0.85,-14.6l8.9,0.35l6.75,4.2l6.95,11.9m0.2,0.45l0.7,1.75m-61.05,46.95l-0.15,0.1l-0.5,1.9m-0.3,1.1l-1.2,4.65l0.8,3.35l0.5,2.1m-11.95,-8.35l-0.5,0.45m0.5,-0.45l5.5,-5.05l6,0.2m24.7,3.4l0.65,0.25m2.1,0.75l1.05,0.35m-3.8,-1.35l-0.7,-0.25l-0.85,-0.45l-2.2,0.8l-1.25,9.2l2.45,4.55l2.1,0.25l-0.1,0.1m14.75,-51.25l0.1,1.15m19.4,24.35l-3.15,-4.7l-1.7,-0.85m-16.9,8.7l-0.45,0.7l0.55,1.75l-0.05,0.1l1.15,-1.25l3.25,0.2l2.85,2.2l0.4,6.35l-0.1,0.35l-1.05,0.5l0.85,0.55l1.7,0l1.35,-0.95l1.4,-1l2.35,-3.6l3.75,-1.5l2.6,-0.2l1.95,-1.4l-0.25,-2.65l-0.3,-2.95l-0.2,-0.35m-23.75,-6.6l0.05,0.2l0.25,0.6m-0.3,-0.8l-0.2,-0.45l-0.3,-1.6m2.5,11.8l0.6,-0.85l0.75,-1.15m-1.15,5.25l-2.75,2.35l-0.55,0.3m1.6,-1.8l0.95,-1l0.65,-0.65m0.1,0.8l0.2,0m-8.8,15.35l0.7,0.9m18.15,-9l5.3,2.5l5.4,-1.25l4,-4.95l2.2,-9.8l-0.8,-0.1l-4.3,3.25m-17.4,-2.65l1.05,-0.05m0.65,13.45l-2.3,1.1m23.1,-15l2.85,0.35l7.15,-1.45m-10.8,1l-2.15,-0.25m-22.9,-33l0.1,1.3m29.5,59.65l1.75,0.45l-1.75,2.9l-0.05,0.1l9.25,-2.6l-5.95,8.4l7.6,-3.8l5.5,-2.8m-5.9,14.3l-0.85,0.2l-5.25,0l-0.55,0.2l-3.35,1.5m3.35,-1.5l-3.75,-0.15m-39.95,-23.75l0.4,0.55m-1.3,0.7l-0.9,1.25l1.4,2.55m-0.5,-3.8l0.85,-1.15m-25.45,-1.7l-0.1,1.6l3,2.3l1.4,-4.35l0.65,-2.2l9.3,-7.45m-9.65,9.75l3.3,5.9m-5,-1.65l3.25,2.4m-11.2,2.25l-1.05,-0.4l-0.3,1.85l-2.1,0.6l-0.1,0.65l1.75,1.05l1.75,-1.05q0.15,-0.75 0.65,-1.1m-1.85,2.5q-0.3,-0.15 -0.55,-0.35m-1.65,-1.7l0.1,-0.65l2.2,-2.7m67.55,49.15l1.1,-0.85l3.55,-0.45l3.3,0.75l-3.3,5.4l-1.6,-0.3l-4.15,-0.75l-2.7,1.05l-0.05,-0.1m0.3,5.7l0,0.1l-0.7,2.3l6,4.2l8.65,-3.1l-0.9,-2.4m52.4,-60.65l-0.1,-1.4m-7.1,19l0.4,-3.9l2.95,-10.45l-1.05,-10.65m4.25,20.45l1.2,-5.8l-0.35,-4.85m-4.95,12.8l-0.7,1.25m-1.8,2l0.05,-0.85l-2.3,0.5m5.9,-4.4l0.4,1.55m-19,4.25l4.6,-0.5l2.2,-4.9l1.15,8.65l1.9,-1.9m-19.05,-8.55l-0.1,2l3,-0.55l0.25,-0.75m4.25,-0.2l0,-1.55m-1.15,0.25l-1.25,1.65l2.4,-0.35l0,4.85l1.8,1.85m-27.95,-26.2l-1.9,1.2m5.05,11.8l-0.55,2.45l5.45,-0.15l0.25,0m0.05,-0.25l0.55,-2.4m-0.5,7.35l-0.75,0.6l-3.45,3.35l-0.8,0.95q-1.35,1.7 -1.85,3.2l-6.9,12.85m20.75,-22.75l0.1,-1.4m-4.8,1.4l4.7,0l-0.35,5.6l0,0.1l3.25,-4.35m-8.6,30.35l14.85,-6.5l2.8,-1.95m-5.7,-21l-1.05,3.45l3.15,-4.05m4.55,33.85l2.25,-0.85l3.85,-5.6l-0.15,-2.8m-14.8,22.45l1,-0.45l1.9,0.85m-3.85,3.85l0.65,-4.1l0.3,-0.15l-1.1,-0.9m5,5.6l-0.55,-2.55l1.95,-2l4.05,0.9m-5.8,-1.5l1.5,-1.45m-30.5,-57.9l7.65,-4.5m-90.6,-13.45l1.05,1.1m59.15,110.95l6.9,2.45l2.7,-0.2m-27.7,23.95l0.5,1.1m0.8,-2.95l1.85,0.3m-18.2,-7.7l1.5,1.3m5.55,-3.4l-0.7,1.25m-3.55,0.8l1.6,0.6l8,-0.3m4.6,5.6l-1.1,0.55l-1.75,0.85l0.5,1.15l0.4,0.85m0.95,-1.8l0.35,-0.05m-6.55,-1.85l0.65,-0.4l0.85,1.05m-2.75,0.15l0.85,-0.55m-7.85,0.15l0.55,1.4m6.45,-1l-1.35,0.9l0.45,1.4m1.5,-1.3l1.9,0.35m-6,-3.35l2.3,0.8m-6.1,-0.3l1.05,-1.45l0.5,-0.75l3.25,0.45m-4.5,2.85l-0.35,-1.05l0.05,-0.05m6.9,5.2l-0.5,-1.4m158.4,-148.35l10.8,-3.05l9,-0.35l0.85,0.25l-0.5,-4.8l0,-0.15l0.85,-0.9l-6.3,1.2l-10.3,4.4l-4.4,3.4l-5.9,1.65m40.7,-9l-0.4,-1.4l-6.15,-4.1l-4.05,0.7l-3.2,3.15m13.1,-0.7l0.3,0.95m-9.4,6.85l2.35,0.65l0.4,0.1l2.05,1.5l0.1,0.05l3.95,-1.65l1.3,-4.9l-0.35,-1.2m-4.9,7.75l2.8,1.95l0.3,0.1m4.2,1.4l0.8,-0.3l1.35,-6.35l-1.05,-3.55m-1.1,10.2l-7,2.85l-3.85,-0.65l-4.05,-2.5l-0.95,-0.4l-1.15,-0.5l4.85,4.85m-4.85,-4.85l-1.15,-0.5m1.6,-5.3l4.35,1.25"/>
   <path id="svg_32" stroke-width="0.25" stroke-linejoin="round" stroke-linecap="round" stroke="#66ff00" fill="none" d="m0.15,-102.1l0.45,-0.25"/>
   <path id="svg_33" stroke-width="0.05" stroke-linejoin="round" stroke-linecap="round" stroke="#e6c273" fill="none" d="m-40.3,-83l3,2l2.6,5m-4.6,1l-4.8,-7.6m7.2,6.8l-1,-2"/>
   <path id="svg_34" stroke-width="0.05" stroke-linejoin="round" stroke-linecap="round" stroke="#455b70" fill="none" d="m106.4,-35.45l0.05,-0.1l-1.55,-5.1l-0.2,0.05l0.1,0l-1.4,0.05l-0.55,0.25m1.95,-0.3l2.7,-1.25m4.85,6.7l-4.05,0.3l-1.8,-0.55l-1.75,2.4m7.25,-1.6l0.8,1.25m-6.3,-2.05l-0.1,-0.05"/>
  </g>
  <g id="sprite0">
   <use id="svg_35" xlink:href="#shape2" width="102.95" height="45"/>
  </g>
  <g id="shape2">
   <path id="svg_36" fill-rule="evenodd" fill-opacity="0" fill="#ff00ff" d="m0,0l102.95,0l0,45l-102.95,0l0,-45"/>
  </g>
 </defs>
 <g>
  <title>background</title>
  <rect fill="none" id="canvas_background" height="236" width="232" y="-1" x="-1"/>
 </g>
 <g>
  <title>Layer 1</title>
  <g id="svg_37">
   <use x="90.610979" y="219.573171" id="svg_38" xlink:href="#shape0" width="381" transform="matrix(1,0,0,1,-192.55,-294) " height="381"/>
   <use x="97.055461" y="235.189771" id="svg_39" xlink:href="#shape1" width="243" transform="matrix(0.9336,0,0,0.9336,-89.8835,-218.3509) " height="248.5"/>
   <use x="43.542037" y="115.303876" xlink:href="#sprite0" width="102.95" transform="matrix(2.081,0,0,1.9043,-116.55,-186.2) " id="_mcMask" height="45"/>
  </g>
 </g>
</svg>