<svg width="207" height="228" xmlns="http://www.w3.org/2000/svg" xmlns:xlink="http://www.w3.org/1999/xlink">
 <defs>
  <g transform="matrix(1,0,0,1,192.55,294) " id="shape0">
   <path id="svg_1" stroke-opacity="0" stroke-linejoin="round" stroke-linecap="round" stroke="#ff00ff" fill="none" d="m187.95,-293.5l0,380l-379.95,0l-0.05,0l0,-380l380,0m-95,294.1l-189.95,0"/>
   <path id="svg_2" stroke-opacity="0" stroke-linejoin="round" stroke-linecap="round" stroke="#ff00ff" fill="none" d="m187.95,-293.5l-190,190l190,190m-380,-380l190,190l-189.95,190"/>
  </g>
  <g transform="matrix(1,0,0,1,754.85,66.8) " id="shape1">
   <path id="svg_3" stroke-width="6" stroke-linejoin="round" stroke-linecap="round" stroke="#592500" fill="none" d="m-662.35,45.2l0.15,-0.55l0.2,-0.25l-0.35,0.8"/>
   <path id="svg_4" stroke-width="6" stroke-linejoin="round" stroke-linecap="round" stroke="#551100" fill="none" d="m-581.2,-40.45q-2.8,-7.85 -14.25,-23.35q-0.95,9.65 -1.3,20.05q-0.65,16.75 0.25,35.45q1.35,10.15 5.85,30.15l-14.15,-5.05q-7.6,-2.95 -17.75,-0.55l-2.5,0.65l-3.15,1q-1.2,0.4 -2.4,0.95q-3.55,1.35 -7.35,3.3l-2.3,1.2l-4.8,2.8l-13.65,7.15q-22.95,-26.9 -34.5,-37.65q-18.85,-14.1 -37,-25.05q-10.95,-6.5 -21.65,-11.85q5.3,24.1 10.8,32.8q6.35,9.65 27.1,24.2q11.6,8.15 34.85,17.55q5.65,2.25 11.05,4.9l-18.95,18.75l-0.2,1.45l-6.7,-1.5q-24,-0.7 -41.9,4.35q17.85,16.3 25.25,20.05q2.35,1.2 5.35,2l0.1,0.05l-0.1,0l-1.15,6.1l1.15,2.3l-2.8,2.8l-2.9,-1.35q-2.6,1.9 -4.85,4.1l-0.8,0.85l-1.95,2.2l-3.05,3.75q-0.95,1.3 -2.65,11.35l-0.35,2.7l-0.6,3.75l0,0.1q-0.15,1.1 -0.6,2.4l0,0.15l-0.6,1.45l-1.1,2.3q-2.7,1.45 -4.05,4.75l-0.2,0.1q-6.05,3.6 -7.5,9.2q-1.95,7.25 2.65,9.2q2.4,0.95 5.8,0.95q3.8,-0.3 6.8,-2.15l-0.95,2.65q-2.6,8.05 5.55,12.3l3.85,0.75q9.75,-0.9 12.25,-3.65q2.5,-2.75 1.9,-7.1l-0.15,-1.25l0.55,0.6l3.35,-0.45l2.75,-0.5q-0.2,2 0.65,4.35q2.4,5.2 7.15,6.2q2.15,0.4 4.85,0q7.95,-1.4 8,-5.45q-0.9,-7.3 -3.1,-11.4q2.65,-4.3 2.25,-6.75l-3.65,-8.95l-1.8,-9.45l-0.25,-1.2l-0.25,-1.35l-0.1,-0.85l-0.35,-1.7l6.6,1.1l7.25,5.4q25.1,12.6 30.85,15.7q1.6,0.65 3.15,1.25q0.95,4.55 0.65,7.85l-3.5,7.8l-3.85,2.3l-1.25,4.7l-0.45,2.45l-0.15,0.6l-0.35,2.4q-2,12.9 1.35,20.2l0,0.5l0.45,4.35l0.25,0.95q0.7,2.9 1.8,4.75l8.8,5.5q2,5.9 6.8,6.95l4.6,0.1q8.1,-1.45 8.5,-6.15l-0.1,-2.5l3.95,-1.5l0.1,-0.8q3.95,4.6 9.2,4.45q2.25,-0.1 4.75,-1.1q7.95,-3.25 6.9,-7.5l-1.95,-4.55l1.1,-0.4q5.6,-2.7 4.5,-5.8q-4.1,-7.95 -8.35,-10.05q-4.1,-2.25 -6.2,-1.1l-0.1,0.1q-5.65,-6.35 -7.75,-10.85q-2,-2.6 -3.65,-4q-3.1,-2.6 -5.3,-1.45l-1.7,-7.75l-0.45,-0.4q0.4,-1.4 1.45,-2.65q10.45,3.35 15.1,3.45q12.3,0 17,0.35q9.65,1.3 19.25,-0.9q-1.9,10.95 0.15,15.5l2.35,6.4l-1.75,3.15q-0.8,2.1 0.25,5q2,4.35 6.3,5.45l4.2,0.35q7.15,-0.6 7.25,-3.9l0,-0.25l0.15,0.05l4.7,-1.3q14.5,6.95 20.2,6q3.1,-0.65 3.65,-3.5q-0.1,-2.9 -0.75,-5.6q5.5,0.8 8.6,0q3.25,-0.95 3.9,-3.6q-0.1,-8 -5.7,-14.05l-3,-1.1q-0.05,-2.65 -3.65,-5.65l-0.15,-0.15l-0.8,-0.95l-1.85,-2.9l-2.55,-4.95q-5.8,-10.45 -5.3,-13.35l-8.95,-7.75l-2.05,0l0,-0.6q1.9,-2.8 2.45,-5.95l-3.65,-10.8l-0.55,-0.35q-1.95,-8.3 -5.55,-21.05l1.95,-4.75q-2.9,-4.5 -9.3,-22.6q-1.85,-4.95 -5.05,-9.85q8.4,-1.45 12.55,-4.8q8.2,-6.55 10.35,-13.1q1.75,-5.85 2.3,-25.05q-11.65,4.15 -23.4,14.9q-3.7,5 -10.1,17.65q-3.35,-3.5 -7.4,-6.95l-0.6,-0.2l-0.15,-0.05l0.5,-2.1q-0.75,-0.35 -1.75,-0.55l-7.15,-2.55l0.8,-5.5q3.35,-19.35 3.05,-30.75q-0.45,-20.4 -3.5,-29.25"/>
  </g>
  <g transform="matrix(1,0,0,1,9.05,24.4) " id="sprite0">
   <use id="svg_5" xlink:href="#shape2" width="18.15" transform="matrix(1,0,0,1,-9.05,-24.4) " height="24.8"/>
  </g>
  <g transform="matrix(1,0,0,1,9.05,24.4) " id="shape2">
   <path id="svg_6" fill-rule="evenodd" fill="#fff024" d="m0.5,0.25q-1.25,-3.7 -1.7,-7.4q-0.4,-4 -1.15,-6.35q-1.25,-4.25 -2.4,-6.05q-1.05,-1.65 -4.3,-4.85l0.9,4.15q0.85,3.45 2.1,7.35q1.5,3.6 6.55,13.15m-4.65,-15.8l0.2,4.25l-1.85,-5.5l-0.1,-0.3l-0.1,-0.25l0.1,0.25l0.1,0.3l1.85,5.5q1,3.3 2.55,6.7q-1.55,-3.4 -2.55,-6.7l-0.2,-4.25"/>
   <path id="svg_7" stroke-width="0.05" stroke-linejoin="round" stroke-linecap="round" stroke="#ff910b" fill="none" d="m-6.05,-12.9q-1.25,-3.9 -2.1,-7.35l-0.9,-4.15q3.25,3.2 4.3,4.85q1.15,1.8 2.4,6.05q0.75,2.35 1.15,6.35q0.45,3.7 1.7,7.4"/>
   <path id="svg_8" stroke-width="0.05" stroke-linejoin="round" stroke-linecap="round" stroke="#ff910b" fill="none" d="m-6,-17.35l0.1,0.25l0.1,0.3l1.85,5.5q1,3.3 2.55,6.7m-2.55,-6.7l-0.2,-4.25"/>
   <path id="svg_9" fill-rule="evenodd" fill="#fff024" d="m2.3,0.4q1.05,-1.4 2.8,-1.65q1.9,-0.3 2.65,-1.05q1.3,-1.35 1.35,-2.7q0.05,-1.25 -0.95,-5.2q-2.15,0.85 -4,3.1q-0.75,1.65 -1.85,7.5m5,-4.9l-2.2,0l1.55,-2l1.05,-2l-1.05,2l-1.55,2q-1.05,1 -1.65,2.75q0.6,-1.75 1.65,-2.75l2.2,0"/>
   <path id="svg_10" stroke-width="0.05" stroke-linejoin="round" stroke-linecap="round" stroke="#ff910b" fill="none" d="m4.15,-7.1q1.85,-2.25 4,-3.1q1,3.95 0.95,5.2q-0.05,1.35 -1.35,2.7q-0.75,0.75 -2.65,1.05q-1.75,0.25 -2.8,1.65"/>
   <path id="svg_11" stroke-width="0.05" stroke-linejoin="round" stroke-linecap="round" stroke="#ff910b" fill="none" d="m7.7,-8.5l-1.05,2l-1.55,2q-1.05,1 -1.65,2.75m1.65,-2.75l2.2,0"/>
  </g>
  <g transform="matrix(1,0,0,1,2.45,0.95) " id="sprite1">
   <use id="svg_12" xlink:href="#shape3" width="7" transform="matrix(1,0,0,1,-2.45,-0.95) " height="7"/>
  </g>
  <g transform="matrix(1,0,0,1,2.45,0.95) " id="shape3">
   <path id="svg_13" fill-rule="evenodd" fill="#c24215" d="m4.55,6.05q-0.8,-1.05 -0.7,-3.3q0.05,-1.75 -1.5,-3.45l-2.35,-0.25q2.6,2.9 2.6,6.6l1.95,0.4"/>
   <path id="svg_14" fill-rule="evenodd" fill="#e85019" d="m2.6,5.65q0,-3.7 -2.6,-6.6q-1.45,0.6 -2.45,2.65q-0.1,1.1 1.4,2.1q1.55,0.95 1.55,2.25l2.1,-0.4"/>
   <path id="svg_15" stroke-width="0.05" stroke-linejoin="round" stroke-linecap="round" stroke="#82250f" fill="none" d="m0,-0.95l2.35,0.25q1.55,1.7 1.5,3.45q-0.1,2.25 0.7,3.3"/>
   <path id="svg_16" stroke-width="0.05" stroke-linejoin="round" stroke-linecap="round" stroke="#82250f" fill="none" d="m0,-0.95q-1.45,0.6 -2.45,2.65q-0.1,1.1 1.4,2.1q1.55,0.95 1.55,2.25"/>
  </g>
  <g transform="matrix(1,0,0,1,7.6,0.4) " id="sprite2">
   <use id="svg_17" xlink:href="#shape4" width="12.4" transform="matrix(1,0,0,1,-7.6,-0.4) " height="13.25"/>
  </g>
  <g transform="matrix(1,0,0,1,7.6,0.4) " id="shape4">
   <path id="svg_18" fill-rule="evenodd" fill="#ffd070" d="m-2.4,8.9q-3.2,-0.6 -4.4,2.05q-0.65,-0.2 -0.8,-0.75q0,-1.65 1.2,-2.9q2.15,-1.05 3.95,1.1l0.05,0.5"/>
   <path id="svg_19" fill-rule="evenodd" fill="#a15b06" d="m-6.8,10.95q1.2,-2.65 4.4,-2.05l0.1,1.4q-3.25,1 -4.5,0.65"/>
   <path id="svg_20" stroke-width="0.05" stroke-linejoin="round" stroke-linecap="round" stroke="#93550b" fill="none" d="m-2.45,8.4q-1.8,-2.15 -3.95,-1.1q-1.2,1.25 -1.2,2.9q0.15,0.55 0.8,0.75q1.25,0.35 4.5,-0.65"/>
   <path id="svg_21" fill-rule="evenodd" fill="#ffd070" d="m-4.4,12.85q-0.65,-0.15 -0.75,-0.75q0.05,-1.85 1.2,-3.35q2.05,-1.4 3.7,0.7l0.05,0.6q-3,-0.3 -4.2,2.8"/>
   <path id="svg_22" fill-rule="evenodd" fill="#a15b06" d="m-0.2,10.05l0.05,1.5q-3.1,1.5 -4.25,1.3q1.2,-3.1 4.2,-2.8"/>
   <path id="svg_23" stroke-width="0.05" stroke-linejoin="round" stroke-linecap="round" stroke="#93550b" fill="none" d="m-0.15,11.55q-3.1,1.5 -4.25,1.3q-0.65,-0.15 -0.75,-0.75q0.05,-1.85 1.2,-3.35q2.05,-1.4 3.7,0.7"/>
   <path id="svg_24" fill-rule="evenodd" fill="#ff910b" d="m-2.1,0.65l0.3,2l-0.7,2.1l-2.35,0.95l0.4,-0.6l1.5,-0.7l0.8,-1.8l-0.35,-1.6l0.15,-0.1l0.25,-0.25"/>
   <path id="svg_25" fill-rule="evenodd" fill="#780502" d="m-4.85,5.7l2.35,-0.95l0.7,-2.1l-0.3,-2l1.1,-0.95l0.85,0l0.9,2.5l1.15,-0.25q1.2,5.2 -1.15,9.9l-1.3,-0.35q-2.15,-3.45 -3.65,-2.2q-0.35,-1.75 -1.5,-1.8q-0.4,-0.75 0.65,-1.6l0.05,0l0.15,-0.2m2.35,-4.7l0.35,1.6l-0.8,1.8l-1.5,0.7l0.5,-1.05q1.2,-2.15 1.1,-2.75l0.35,-0.3m2.9,7.4q-1.1,-0.5 -1.65,0.2q0.55,-0.7 1.65,-0.2"/>
   <path id="svg_26" fill-rule="evenodd" fill="#5c0301" d="m0.75,11.85q2.35,-4.7 1.15,-9.9l-1.15,0.25l-0.9,-2.5l2.25,-0.1l0.85,1.7l0.8,0.45q1.55,5.2 0.85,6.75l-0.9,2.4l-2.95,0.95"/>
   <path id="svg_27" stroke-width="0.05" stroke-linejoin="round" stroke-linecap="round" stroke="#ff910b" fill="none" d="m-2.1,0.65l-0.25,0.25m2.2,-1.2l-0.85,0l-1.1,0.95m-0.75,0.65l0.35,-0.3m2.35,-1.3l2.25,-0.1l0.85,1.7l0.8,0.45q1.55,5.2 0.85,6.75"/>
   <path id="svg_28" stroke-width="0.05" stroke-linejoin="round" stroke-linecap="round" stroke="#ff910b" fill="none" d="m-4.45,5.1l-0.4,0.6m-0.2,0.2q-1.05,0.85 -0.65,1.6m10.3,1l-0.9,2.4m-4.95,-2.3q0.55,-0.7 1.65,-0.2m-4.85,-3.3l0.5,-1.05q1.2,-2.15 1.1,-2.75"/>
   <path id="svg_29" fill-rule="evenodd" fill="#ffd070" d="m3.15,12.65l-0.9,0.05q-1.5,-0.1 -1.5,-0.8q0.2,-1.85 0.95,-2.55q0.7,-0.7 1.3,-0.6l0.05,0q-0.9,3.6 0.1,3.9"/>
   <path id="svg_30" fill-rule="evenodd" fill="#a15b06" d="m3.05,8.75q0.55,0.1 1,0.95l0.45,0.8l-0.05,1q-0.45,0.9 -1.3,1.15q-1,-0.3 -0.1,-3.9"/>
   <path id="svg_31" stroke-width="0.05" stroke-linejoin="round" stroke-linecap="round" stroke="#93550b" fill="none" d="m3.15,12.65l-0.9,0.05q-1.5,-0.1 -1.5,-0.8q0.2,-1.85 0.95,-2.55q0.7,-0.7 1.3,-0.6m0.05,0q0.55,0.1 1,0.95l0.45,0.8l-0.05,1q-0.45,0.9 -1.3,1.15l-0.1,-3.9z"/>
  </g>
  <g transform="matrix(1,0,0,1,16.5,17.6) " id="sprite3">
   <use id="svg_32" xlink:href="#shape5" width="32.5" transform="matrix(1,0,0,1,-16.5,-17.6) " height="27.65"/>
  </g>
  <g transform="matrix(1,0,0,1,16.5,17.6) " id="shape5">
   <path id="svg_33" fill-rule="evenodd" fill="#e85019" d="m-15.8,1.8l7.55,0.95l11.3,-2.3l11.4,-7.15l0.45,6.8q0.3,3.45 -4.5,5.85q-5.45,2 -6.7,2.5q-6.35,1.75 -8.15,1.6l-3.5,-0.35q-2.5,0.05 -4.85,-1q-2.05,-0.9 -2.85,-2.15l-0.15,-4.75"/>
   <path id="svg_34" stroke-width="0.05" stroke-linejoin="round" stroke-linecap="round" stroke="#82250f" fill="none" d="m14.45,-6.7l0.45,6.8q0.3,3.45 -4.5,5.85q-5.45,2 -6.7,2.5q-6.35,1.75 -8.15,1.6l-3.5,-0.35"/>
   <path id="svg_35" stroke-width="0.05" stroke-linejoin="round" stroke-linecap="round" stroke="#82250f" fill="none" d="m-7.95,9.7q-2.5,0.05 -4.85,-1q-2.05,-0.9 -2.85,-2.15l-0.15,-4.75"/>
   <path id="svg_36" fill-rule="evenodd" fill="#fef7e0" d="m-1.9,3.9q0.3,1.05 -0.35,1.95q-0.7,0.85 -1.65,1.05l-1.95,0q-1.05,-0.2 -0.95,-1.7q0.05,-1.5 0.6,-2.35q0.5,-0.9 1.45,-1.05q0.9,-0.15 1.7,0.45q0.8,0.6 1.15,1.65"/>
   <path id="svg_37" stroke-width="0.05" stroke-linejoin="round" stroke-linecap="round" stroke="#93550b" fill="none" d="m-1.9,3.9q0.3,1.05 -0.35,1.95q-0.7,0.85 -1.65,1.05l-1.95,0q-1.05,-0.2 -0.95,-1.7q0.05,-1.5 0.6,-2.35q0.5,-0.9 1.45,-1.05q0.9,-0.15 1.7,0.45q0.8,0.6 1.15,1.65z"/>
   <path id="svg_38" fill-rule="evenodd" fill="#310a04" d="m-3.7,4q0.25,0.1 0.25,0.35l-0.25,0.5l-0.55,0.25l-0.55,-0.1l-0.25,-0.4l0.25,-0.45q0.2,-0.25 0.55,-0.25l0.55,0.1"/>
   <path id="svg_39" fill-rule="evenodd" fill="#5c0301" d="m15.95,-7.3l0.05,2.75l-1.55,-1.25l-0.05,-0.75l-0.05,0l-0.45,-0.05l-0.55,-2.35l2.6,1.65m0,3.4q-0.2,3.2 -1.2,5.85l-2.95,0.7l1.05,-4.1l-0.7,-8.3l0.05,0.05l0.75,0.5l0.05,0l-0.05,0l0.55,3.2l2.45,2.1"/>
   <path id="svg_40" fill-rule="evenodd" fill="#780502" d="m12.15,-9.75l0.05,0l-2.3,-3.6l2.6,1.75l1.45,1.8l-0.95,0.6l-0.05,0l-0.75,-0.5l-0.05,-0.05m2,0.2l1.8,2.25l-2.6,-1.65l0,-0.05l0.8,-0.55"/>
   <path id="svg_41" fill-rule="evenodd" fill="#ff910b" d="m13.95,-9.8l0.2,0.25l-0.8,0.55l0,0.05l0.55,2.35l0.45,0.05l0.05,0l0.05,0.75l1.55,1.25l-0.05,0.65l-2.45,-2.1l-0.55,-3.2l0.05,0l0.95,-0.6"/>
   <path id="svg_42" fill-rule="evenodd" fill="#eb9327" d="m11.15,-10.4l1,0.65l0.7,8.3l-1.05,4.1l-0.7,0.15q1.3,-3.85 0.05,-13.2"/>
   <path id="svg_43" fill-rule="evenodd" fill="#fff024" d="m11.15,-10.4q-2.15,-3.45 -4.85,-5.4l3.6,2.45l2.3,3.6l-0.05,0l-1,-0.65"/>
   <path id="svg_44" stroke-width="0.05" stroke-linejoin="round" stroke-linecap="round" stroke="#9e2510" fill="none" d="m15.95,-7.3l0.05,2.75l-0.05,0.65q-0.2,3.2 -1.2,5.85l-2.95,0.7"/>
   <path id="svg_45" stroke-width="0.05" stroke-linejoin="round" stroke-linecap="round" stroke="#9e2510" fill="none" d="m9.9,-13.35l2.6,1.75l1.45,1.8l0.2,0.25l1.8,2.25l-6.05,-6.05z"/>
   <path id="svg_46" fill-rule="evenodd" fill="#ff910b" d="m-14.65,-1.5l1.65,-0.5l3,-4.6l0.3,0.1l-3.1,4.8l-2.05,0.7l0.2,-0.5"/>
   <path id="svg_47" fill-rule="evenodd" fill="#780502" d="m-14.65,-1.5l1.25,-3.5l2.2,-1.95l1.2,0.35l-3,4.6l-1.65,0.5m-1.1,6.55l0,-3.5l0.9,-2.55l2.05,-0.7l3.1,-4.8l1.85,0.5l1.05,0.75l-3.8,3.95l-0.1,0.15l-0.8,2.55l-2.75,2.4l-0.2,2.05l-1.3,-0.8m9.5,-9.85l1.95,1.4q-2.1,3 -2.65,4.75l-0.8,3l-1.1,1.05l0,-2.45l-1.35,-0.7l-0.35,-0.95l0.85,-2.05l0.25,-0.95l3.2,-3.1m-3.5,12.05q-2.45,-0.35 -4.4,-1.25l0.25,-1.75l2.65,-2.4l1.9,1.55l0,2.7l-0.05,0.2l-0.35,0.95"/>
   <path id="svg_48" fill-rule="evenodd" fill="#5c0301" d="m-4.3,-3.4l3.25,1.8l1.7,4.85l-2.35,1.55q-0.7,-1.05 -2.35,-0.9q-1.7,0.1 -2.85,1.95l-0.15,1.25l-2.7,0.15l0.35,-0.95l0.05,-0.2l0.4,-0.6l0.1,-0.1l1.1,-1.05l0.8,-3q0.55,-1.75 2.65,-4.75"/>
   <path id="svg_49" fill-rule="evenodd" fill="#fff024" d="m-11.2,-6.95l-2.2,1.95l-1.25,3.5l-0.2,0.5l-0.9,2.55l0,3.5l-0.75,-0.55q0.1,-2.85 0.4,-3.85l2.55,-6.65l1.85,-1.1l0.5,0.15m4.4,1.7l0.55,0.45l-3.2,3.1l-0.25,0.95l-0.85,2.05l0.35,0.95l1.35,0.7l0,2.45l-0.1,0.1l-0.4,0.6l0,-2.7l-1.9,-1.55l-2.65,2.4l-0.25,1.75l-0.3,-0.15l0.2,-2.05l2.75,-2.4l0.8,-2.55l0.1,-0.15l3.8,-3.95"/>
   <path id="svg_50" stroke-width="0.05" stroke-linejoin="round" stroke-linecap="round" stroke="#ff910b" fill="none" d="m-10,-6.6l-1.2,-0.35l-0.5,-0.15l-1.85,1.1l-2.55,6.65q-0.3,1 -0.4,3.85m6.5,-11.1l0.3,0.1l1.85,0.5l1.05,0.75l0.55,0.45l1.95,1.4"/>
   <path id="svg_51" stroke-width="0.05" stroke-linejoin="round" stroke-linecap="round" stroke="#ff910b" fill="none" d="m-4.3,-3.4l3.25,1.8l1.7,4.85"/>
   <path id="svg_52" stroke-width="0.05" stroke-linejoin="round" stroke-linecap="round" stroke="#552b00" fill="none" d="m0.65,3.25l-2.35,1.55q-0.7,-1.05 -2.35,-0.9q-1.7,0.1 -2.85,1.95l-0.15,1.25l-2.7,0.15"/>
   <path id="svg_53" stroke-width="0.05" stroke-linejoin="round" stroke-linecap="round" stroke="#552b00" fill="none" d="m-16.5,4.5l0.75,0.55m6,2.2q-2.45,-0.35 -4.4,-1.25l-0.3,-0.15l-1.3,-0.8"/>
   <path id="svg_54" fill-rule="evenodd" fill="#cf4a33" d="m-5.25,-2.7l0.05,-0.05l-0.05,0.05"/>
   <path id="svg_55" fill-rule="evenodd" fill="#8a1f0d" d="m-2,2.35l0.05,0l0,0.05l-0.05,-0.05"/>
   <path id="svg_56" fill-rule="evenodd" fill="#f2573c" d="m-6.8,-15.45l-0.05,0.1l-0.1,-0.05l0.15,-0.05"/>
   <path id="svg_57" fill-rule="evenodd" fill="#8c3223" d="m1.5,-2.65l0.2,-0.15l-0.05,0.15l-0.15,0m-4.05,4.1l0.6,0.9l-0.05,0l-0.55,-0.9m9.5,-7.05l0,-0.05l0,0.05"/>
   <path id="svg_58" fill-rule="evenodd" fill="#ff910b" d="m1.7,-2.8l1,-0.9l2.5,-0.65l1.75,-1.25l0.35,1.5l-1.9,1l-3.1,0.35l-1,3.5l-3.25,1.6l-0.6,-0.9l0.8,-0.65l1.9,0l1.5,-3.45l0.05,-0.15m-10.7,-10l0.3,-0.3l1.15,2l-1.2,2.05l1.85,-0.6l-3.4,1.6l-1.85,0l2.8,-0.85l0.9,-2.15l-0.55,-1.75"/>
   <path id="svg_59" fill-rule="evenodd" fill="#780502" d="m2.55,-10l-0.05,0l-0.7,0.5l-0.4,1.35l-1.3,0l-0.5,0.45l-1.7,1.6l-0.85,0.15l-0.6,-2.6l0,-1l-3.35,-0.1l2.4,-1.3l2.6,-2.5l1.15,0.35l2.1,1.1l1.2,2m-8.55,-5.6l4.1,0.65l-0.65,1.45l-3,2.1l-1.35,1.75l2.75,1.1l0.35,2.8l-1.7,0.4l3.05,-0.4l-0.95,0.95l-0.15,0.15l0.05,0.6l-1.7,1.3l-0.05,0.05l-2.7,-1.3l2.45,-1.35l-3.15,1l-2,-0.95l-2.8,-0.45l1.55,-2.7q1.2,-2.4 2.9,-4.35l0.55,1.75l-0.9,2.15l-2.8,0.85l1.85,0l3.4,-1.6l-1.85,0.6l1.2,-2.05l-1.15,-2l2.6,-2.5l0.1,0"/>
   <path id="svg_60" fill-rule="evenodd" fill="#5c0301" d="m1.8,-9.5l0.7,-0.5l0.05,0l1.05,4.45l1.6,1.2l-2.5,0.65l-1,0.9l-2.05,-0.7l-1.75,-2.6l1.7,-1.6l0.5,-0.45l1.3,0l0.4,-1.35m-4.25,3.75l1.35,3.05l2.6,0.05l0.15,0l-1.5,3.45l-1.9,0l-0.8,0.65l-2.7,-4.15l0.05,-0.05l1.7,-1.3l-0.05,-0.6l0.15,-0.15l0.95,-0.95m0.5,8.1l3.25,-1.6l1,-3.5l3.1,-0.35l-0.45,3.85l0.7,3.4l-5.2,1.9l-2.4,-3.7"/>
   <path id="svg_61" fill-rule="evenodd" fill="#ad5701" d="m-7.95,-4l-0.25,1.25l-0.55,-0.25l0.1,-1.35l0.7,0.35m5.4,5.45l0.55,0.9l0.05,0.05l-0.65,0.65l-0.4,-0.65l0.45,-0.95"/>
   <path id="svg_62" fill-rule="evenodd" fill="#c06407" d="m2.55,-10l1.2,-0.8l0.9,-0.55q1.45,2.8 2.3,5.75l-1.75,1.25l-1.6,-1.2l-1.05,-4.45m-5,4.25l0.35,-0.35l1.75,2.6l2.05,0.7l-0.2,0.15l-2.6,-0.05l-1.35,-3.05m7.85,2.65l1.9,-1l-0.35,-1.5q0.75,2.75 0.95,5.55l0,0.15l0.05,3.15l-2.3,0.9l-0.7,-3.4l0.45,-3.85"/>
   <path id="svg_63" fill-rule="evenodd" fill="#d06b09" d="m2.55,-10l-1.2,-2l-2.1,-1.1l-1.15,-0.35l-2.6,2.5l-2.4,1.3l1.35,-1.75l3,-2.1l0.65,-1.45l-4.1,-0.65q4.15,-0.45 10.65,4.25l-0.9,0.55l-1.2,0.8"/>
   <path id="svg_64" fill-rule="evenodd" fill="#eb9327" d="m-5.5,-1.55l0.25,-1.15l2.7,4.15l-0.45,0.95l-2.5,-3.95m3.55,3.9l2.4,3.7l-1.1,0.1l-1.95,-3.1l0.65,-0.65l0,-0.05"/>
   <path id="svg_65" fill-rule="evenodd" fill="#fff024" d="m-6.9,-9.65l3.35,0.1l0,1l0.6,2.6l0.85,-0.15l-0.35,0.35l-3.05,0.4l1.7,-0.4l-0.35,-2.8l-2.75,-1.1m-0.05,-5.75l0.1,0.05l0.05,-0.1l0.7,-0.15l-2.6,2.5l-0.3,0.3q-1.7,1.95 -2.9,4.35l-1.55,2.7l-0.85,-0.15l0.85,0.15l2.8,0.45l2,0.95l-0.1,1.35l-2.15,-0.95l-3,-0.55l-0.4,-1.4q0.7,-0.85 2.45,-4.4q1.35,-2.7 4.9,-5.1m-1.25,12.65l0.25,-1.25l-0.7,-0.35l3.15,-1l-2.45,1.35l2.7,1.3l-0.25,1.15l-2.7,-1.2"/>
   <path id="svg_66" stroke-width="0.05" stroke-linejoin="round" stroke-linecap="round" stroke="#ff910b" fill="none" d="m1.4,-8.15l0.4,-1.35m2.85,-1.85q-6.5,-4.7 -10.65,-4.25m-0.95,0.2q-3.55,2.4 -4.9,5.1q-1.75,3.55 -2.45,4.4l0.85,0.15m7.35,-9.85l-0.7,0.15l-0.15,0.05m-1,11.4l-0.7,-0.35m3.4,1.65l0.05,-0.05m1.7,-1.3l-0.05,-0.6m1.6,7l0,0.05"/>
   <path id="svg_67" stroke-width="0.05" stroke-linejoin="round" stroke-linecap="round" stroke="#ff910b" fill="none" d="m0.45,6.05l5.2,-1.9l2.3,-0.9l-0.05,-3.15l0,-0.15q-0.2,-2.8 -0.95,-5.55q-0.85,-2.95 -2.3,-5.75m-18.55,6.85l-0.4,-1.4"/>
   <path id="svg_68" fill-rule="evenodd" fill="#ff910b" d="m2.55,-13.45l-0.9,-0.35l3.7,-0.2l0.4,0.3l2.35,1.6l-3.2,-1.35l-2.35,0m-2.95,-1.5l-0.5,-0.35l1.9,-1.6l2.7,-0.25l0.5,0.2l0.6,0.25l-3.35,0l-1.85,1.75"/>
   <path id="svg_69" fill-rule="evenodd" fill="#eb9327" d="m3.6,-10.25l0.9,-1.15l0.9,2.55l0.55,1.75q1.1,4 1.3,7.7l0.05,2.95l-1.15,-0.1q-0.1,-6.55 -2.55,-13.7"/>
   <path id="svg_70" fill-rule="evenodd" fill="#780502" d="m2.55,-13.45l2.35,0l3.2,1.35l-2.35,-1.6l1.4,-1.6l3.25,2.75l-2.25,0.45l-0.05,0l-3.6,0.7l-0.5,-0.35q-0.85,-0.65 -1.45,-1.7m2.8,-0.55l-3.7,0.2l-1.3,-0.7l-0.75,-0.45l1.85,-1.75l3.35,0l0.5,0.25l1.4,0.85l-1.35,1.6m-6.25,-1.3l-0.9,-0.65l-4.65,0l6.5,-1.5l3.65,0.3l-2.7,0.25l-1.9,1.6"/>
   <path id="svg_71" fill-rule="evenodd" fill="#5c0301" d="m10.4,-12.55q1.3,3.4 1.85,7.25l-3,3.65l-0.7,5.1l-0.05,0l-1.2,0.1l-0.05,-2.95q-0.2,-3.7 -1.3,-7.7l0.9,-0.3l0.35,-0.8l1.85,-1.2l-3.65,0.55l-0.9,-2.55l3.6,-0.7l0.05,0l2.25,-0.45m1.95,8.05l0.1,0.95l-2.15,6.85l-1.3,0.1l0.5,-3.55l0.65,-0.85l-0.05,-0.8l2.25,-2.7"/>
   <path id="svg_72" fill-rule="evenodd" fill="#c06407" d="m5.75,-13.7l-0.4,-0.3l1.35,-1.6l0.45,0.3l-1.4,1.6"/>
   <path id="svg_73" fill-rule="evenodd" fill="#fff024" d="m1.65,-13.8l0.9,0.35q0.6,1.05 1.45,1.7l0.5,0.35l-0.9,1.15q-3.55,-4.4 -10.35,-4.8l-0.1,-0.85l0.4,-0.05l4.65,0l0.9,0.65l0.5,0.35l0.75,0.45l1.3,0.7m10.6,8.5l0.1,0.8l-2.25,2.7l0.05,0.8l-0.65,0.85l-0.5,3.55l-0.45,0.05l0.7,-5.1l3,-3.65m-6.85,-3.55l3.65,-0.55l-1.85,1.2l-0.35,0.8l-0.9,0.3l-0.55,-1.75"/>
   <path id="svg_74" stroke-width="0.05" stroke-linejoin="round" stroke-linecap="round" stroke="#ff910b" fill="none" d="m-6.45,-15.95l-0.4,0.05m11.05,-1.05l0.6,0.25m0.5,0.25l1.4,0.85l0.45,0.3l3.25,2.75m-16.85,-3.4l6.5,-1.5l3.65,0.3"/>
   <path id="svg_75" stroke-width="0.05" stroke-linejoin="round" stroke-linecap="round" stroke="#ff910b" fill="none" d="m10.4,-12.55q1.3,3.4 1.85,7.25l0.1,0.8l0.1,0.95l-2.15,6.85l-1.3,0.1l-0.45,0.05m-0.05,0l-1.2,0.1"/>
  </g>
  <g transform="matrix(1,0,0,1,8.8,0.85) " id="sprite4">
   <use id="svg_76" xlink:href="#shape6" width="12.8" transform="matrix(1,0,0,1,-8.8,-0.85) " height="13.95"/>
  </g>
  <g transform="matrix(1,0,0,1,8.8,0.85) " id="shape6">
   <path id="svg_77" fill-rule="evenodd" fill="#ffd070" d="m-5.75,5.4l0.05,0.05q-2.1,3.05 -1.4,3.65l-0.75,-0.2q-1.15,-0.55 -0.9,-1.2q0.8,-1.65 1.7,-2.05q0.85,-0.5 1.3,-0.25"/>
   <path id="svg_78" fill-rule="evenodd" fill="#a15b06" d="m-5.7,5.45q0.4,0.3 0.45,1.2l0.05,0.85q-0.05,0.45 -0.45,0.95q-0.7,0.7 -1.45,0.65q-0.7,-0.6 1.4,-3.65"/>
   <path id="svg_79" stroke-width="0.05" stroke-linejoin="round" stroke-linecap="round" stroke="#93550b" fill="none" d="m-5.7,5.45q0.4,0.3 0.45,1.2l0.05,0.85q-0.05,0.45 -0.45,0.95q-0.7,0.7 -1.45,0.65l-0.75,-0.2q-1.15,-0.55 -0.9,-1.2q0.8,-1.65 1.7,-2.05q0.85,-0.5 1.3,-0.25"/>
   <path id="svg_80" fill-rule="evenodd" fill="#ffd070" d="m-5.6,11.7l-1,-0.2q-1.65,-0.7 -1.4,-1.55q0.85,-2.3 2,-2.9l2,-0.1q-2.15,3.5 -1.6,4.75"/>
   <path id="svg_81" fill-rule="evenodd" fill="#a15b06" d="m-4,6.95q0.4,0.4 0.55,1.35l0.2,1.15q0.05,0.6 -0.4,1.25q-0.85,1.05 -1.95,1q-0.55,-1.25 1.6,-4.75"/>
   <path id="svg_82" stroke-width="0.05" stroke-linejoin="round" stroke-linecap="round" stroke="#93550b" fill="none" d="m-5.6,11.7l-1,-0.2q-1.65,-0.7 -1.4,-1.55q0.85,-2.3 2,-2.9l2,-0.1q0.4,0.4 0.55,1.35l0.2,1.15q0.05,0.6 -0.4,1.25q-0.85,1.05 -1.95,1z"/>
   <path id="svg_83" fill-rule="evenodd" fill="#ffd070" d="m-0.2,13.05l-0.95,0q-1.7,-0.3 -1.75,-1.25q0.05,-2.55 0.85,-3.5q0.95,-1.2 1.8,-0.6q-0.85,4.2 0.05,5.35"/>
   <path id="svg_84" fill-rule="evenodd" fill="#a15b06" d="m-0.25,7.7q0.45,0.35 0.9,1.25l0.55,1.2q0.2,0.6 0.05,1.4q-0.45,1.25 -1.45,1.5q-0.9,-1.15 -0.05,-5.35"/>
   <path id="svg_85" stroke-width="0.05" stroke-linejoin="round" stroke-linecap="round" stroke="#93550b" fill="none" d="m-0.2,13.05l-0.95,0q-1.7,-0.3 -1.75,-1.25q0.05,-2.55 0.85,-3.5q0.95,-1.2 1.8,-0.6q0.45,0.35 0.9,1.25l0.55,1.2q0.2,0.6 0.05,1.4q-0.45,1.25 -1.45,1.5z"/>
   <path id="svg_86" fill-rule="evenodd" fill="#780502" d="m0.05,9.55l-1.75,0.1q-1.05,0.7 -1.1,1.65l-0.9,-0.35l-0.15,-1.25l1.35,-2.75l1.25,0.3l0.4,0.7l0.9,1.6m-4,-0.65q-1.2,-1.1 -2.5,-1.2q-0.55,-0.9 0.3,-1.8q1.5,-1.65 2,-2.7l0.75,-0.85l1.85,0.5l1.25,0.05l-0.6,2.1l-1.9,1.55l-1.15,2.35m4.25,-5.95l1.4,0.05q0.45,3.45 -1.25,6.4l-1.2,-2.3l0.45,-2.95l0.6,-1.2m-2.45,5.25q0.45,-0.55 1.3,-0.25q-0.85,-0.3 -1.3,0.25"/>
   <path id="svg_87" fill-rule="evenodd" fill="#5c0301" d="m3.35,2l0.05,0l0.25,1l0.1,0.5l-1.35,3.25l1,2.75l-0.35,0.95l-1.9,1.2q0,-0.9 -0.7,-1.8l-0.2,-0.2l0.2,-0.25q1.7,-2.95 1.25,-6.4l1.65,-1m0.5,2.1q0.4,2.65 -0.3,4.2l0,0.1l-0.55,-1.55l0.85,-2.75"/>
   <path id="svg_88" fill-rule="evenodd" fill="#ff910b" d="m3.75,3.5l0,0.1l0.1,0.5l-0.85,2.75l0.55,1.55l-0.1,0.9l-0.05,0.2l-1,-2.75l1.35,-3.25m-7.6,6.2l-0.05,-0.75l-0.05,-0.05l1.15,-2.35l1.9,-1.55l0.6,-2.1l0.2,-0.65l0.5,0.05l0.2,-0.05l-0.3,0.7l-0.6,1.2l-0.45,2.95l1.2,2.3l-0.2,0.25l-0.2,-0.1l-0.9,-1.6l-0.4,-0.7l-1.25,-0.3l-1.35,2.75"/>
   <path id="svg_89" fill-rule="evenodd" fill="#eb9327" d="m2.6,1.55l0.75,0.45l-1.65,1l-0.15,-0.95l1.05,-0.5"/>
   <path id="svg_90" fill-rule="evenodd" fill="#ffd070" d="m-3.4,2.35q0.65,-0.55 1.1,-0.3l2.2,0.2l-0.2,0.65l-1.25,-0.05l-1.85,-0.5m4,-0.1l0.95,-0.2l0.15,0.95l-1.4,-0.05l0.3,-0.7"/>
   <path id="svg_91" fill-rule="evenodd" fill="#e85019" d="m-2.3,2.05l0.35,-1.6l1.4,-1.15l0.95,3l-0.5,-0.05l-2.2,-0.2"/>
   <path id="svg_92" fill-rule="evenodd" fill="#c24215" d="m-0.55,-0.7q1,-0.45 2.35,0.45l0.8,1.8l-1.05,0.5l-0.95,0.2l-0.2,0.05l-0.95,-3"/>
   <path id="svg_93" stroke-width="0.05" stroke-linejoin="round" stroke-linecap="round" stroke="#ff910b" fill="none" d="m2.6,1.55l0.75,0.45l0.05,0l0.25,1m0.1,0.5l0,0.1m0.1,0.5q0.4,2.65 -0.3,4.2m-3.15,-6l0.2,-0.05l0.95,-0.2l1.05,-0.5"/>
   <path id="svg_94" stroke-width="0.05" stroke-linejoin="round" stroke-linecap="round" stroke="#ff910b" fill="none" d="m3.55,8.3l0,0.1m-0.15,1.1l-0.35,0.95l-1.9,1.2q0,-0.9 -0.7,-1.8l-0.4,-0.3l-1.75,0.1q-1.05,0.7 -1.1,1.65m-1.1,-2.35l-0.05,-0.05q-1.2,-1.1 -2.5,-1.2q-0.55,-0.9 0.3,-1.8q1.5,-1.65 2,-2.7l0.75,-0.85q0.65,-0.55 1.1,-0.3m2.75,7.8l-0.2,-0.2l-0.2,-0.1m-0.9,-1.6q-0.85,-0.3 -1.3,0.25m2.05,-5.95l-2.2,-0.2m2.7,0.25l-0.5,-0.05"/>
  </g>
  <g transform="matrix(1,0,0,1,1.7,3) " id="sprite5">
   <use id="svg_95" xlink:href="#shape7" width="9.5" transform="matrix(1,0,0,1,-1.7,-3) " height="6.15"/>
  </g>
  <g transform="matrix(1,0,0,1,1.7,3) " id="shape7">
   <path id="svg_96" fill-rule="evenodd" fill="#c24215" d="m7.75,-1.35l-0.8,1q-0.05,0.75 -2,2.05q-2,1.25 -3.2,1.45l-2.1,-0.1q-1.15,0 -1.35,-1.9l0.45,-0.95l0.15,-0.85l8.85,-0.7"/>
   <path id="svg_97" fill-rule="evenodd" fill="#e85019" d="m-1.1,-0.65l0.05,-0.2q0.7,-1.25 1.8,-1.5l2.95,-0.2l1.7,-0.35q1.1,-0.35 2.4,0.3l-0.05,1.25l-8.85,0.7"/>
  </g>
  <g transform="matrix(1,0,0,1,5.35,1) " id="sprite6">
   <use id="svg_98" xlink:href="#shape8" width="13.5" transform="matrix(1,0,0,1,-5.35,-1) " height="15.8"/>
  </g>
  <g transform="matrix(1,0,0,1,5.35,1) " id="shape8">
   <path id="svg_99" fill-rule="evenodd" fill="#5c0301" d="m-0.55,12.35q-3.7,-0.6 -4.1,-1.25q-0.65,-1 -0.55,-1.55l0.75,-1.85l0.4,-1.95l0.05,-0.25l1.1,1.1l0.55,1.2l1.3,-0.5l0.05,0.1l0.3,1.2l-0.15,1.55l0,0.25l0.3,1.95m-3.4,-7.3l0.4,-1.95l0.4,-1.1l1.15,1.75l1.95,0.5q-1.2,1.5 -1.1,2.55l0.05,0.1l-1.15,0.25l-0.55,-1.1l-1.15,-1m0.4,-1.95l0.05,0l-0.05,0"/>
   <path id="svg_100" fill-rule="evenodd" fill="#ff910b" d="m5.15,5.7l0.15,0.5l0,0.05l-1.1,0.45l-1.25,0.9l-0.65,1.3l0.25,-1.45l0.8,-0.9l1.8,-0.85m-6.25,1.2l-0.05,-0.1l0.95,-0.7l0.75,-1.9l0.6,-0.1l-0.85,2.25l-1.05,0.85l-0.3,0.1l-0.05,-0.4"/>
   <path id="svg_101" fill-rule="evenodd" fill="#e85019" d="m-0.75,-0.85l1.55,0.1l0.8,0.8l0.95,1.05q1.15,1.3 -1.25,2.05q-0.2,-1.35 -0.9,-2.55l-1.15,-1.45"/>
   <path id="svg_102" fill-rule="evenodd" fill="#ffd070" d="m1.6,0.05l0.6,-0.3l1,0.85l0.2,0.2l0.4,0.45l-0.05,1.55l-1.75,1.2l-0.85,0.1l-0.6,0.1l-0.6,0.05l0.2,-0.25l0.35,-0.95l0.8,0.1q2.4,-0.75 1.25,-2.05l-0.95,-1.05"/>
   <path id="svg_103" fill-rule="evenodd" fill="#c24215" d="m-2.55,1.1q-0.1,-0.6 0.55,-1.4l1.25,-0.55l1.15,1.45q0.7,1.2 0.9,2.55l-0.8,-0.1l-0.95,0.2q-0.55,0.15 -1.1,-0.5l-0.85,-1.2l-0.15,-0.45"/>
   <path id="svg_104" fill-rule="evenodd" fill="#eb9327" d="m-3.15,2l0.1,-0.25l0.25,-0.65l0.25,0l0.15,0.45l0.85,1.2q0.55,0.65 1.1,0.5l0.95,-0.2l-0.35,0.95l-0.2,0.25l-1.95,-0.5l-1.15,-1.75"/>
   <path id="svg_105" fill-rule="evenodd" fill="#780502" d="m3.8,1.25l0.6,0.75l0.55,2.35l0.1,0.55l0.1,0.8l-1.8,0.85l-0.8,0.9l-0.25,1.45l0.65,-1.3l1.25,-0.9l1.1,-0.45l0.1,0.3l0.25,0.45q0.65,0.35 0.95,1.3l-0.15,0.05q-1.3,0.15 -1.8,2.5q-1.65,-0.55 -2.85,0.25l-1.65,1.35l-0.7,-0.1l-0.3,-1.95l0,-0.25l0.15,-1.55l-0.3,-1.2l-0.05,-0.1l0.3,-0.1l1.05,-0.85l0.85,-2.25l0.85,-0.1l1.75,-1.2l0.05,-1.55m-4.95,5.55q-0.1,-1.05 1.1,-2.55l0.6,-0.05l-0.75,1.9l-0.95,0.7"/>
   <path id="svg_106" fill-rule="evenodd" fill="#e68209" d="m-4,5.5l0.05,-0.25l0,-0.2l1.15,1l0.55,1.1l1.15,-0.25l0.05,0.4l-1.3,0.5l-0.55,-1.2l-1.1,-1.1"/>
   <path id="svg_107" fill-rule="evenodd" fill="#bbae8c" d="m-3.5,3.1l-0.05,0l0.05,0"/>
   <path id="svg_108" stroke-width="0.05" stroke-linejoin="round" stroke-linecap="round" stroke="#ff910b" fill="none" d="m-0.75,-0.85l1.55,0.1l0.8,0.8l0.95,1.05q1.15,1.3 -1.25,2.05m0.9,-3.4l1,0.85m0.2,0.2l0.4,0.45l0.6,0.75l0.55,2.35m0.1,0.55l0.1,0.8l0.15,0.5m0,0.05l0.1,0.3m-5.25,5.9l-0.7,-0.1q-3.7,-0.6 -4.1,-1.25q-0.65,-1 -0.55,-1.55l0.75,-1.85l0.4,-1.95l0.05,-0.25m0.05,-0.25l0,-0.2l0.4,-1.95l0.4,-1.1m0.1,-0.25l0.25,-0.65m-0.7,2l-0.05,0"/>
   <path id="svg_109" stroke-width="0.05" stroke-linejoin="round" stroke-linecap="round" stroke="#ff910b" fill="none" d="m-2.55,1.1q-0.1,-0.6 0.55,-1.4l1.25,-0.55m6.15,7.4l0.25,0.45q0.65,0.35 0.95,1.3l-0.15,0.05q-1.3,0.15 -1.8,2.5q-1.65,-0.55 -2.85,0.25l-1.65,1.35m-2.7,-11.35l0.15,0.45l0.85,1.2q0.55,0.65 1.1,0.5l0.95,-0.2l0.8,0.1"/>
   <path id="svg_110" fill-rule="evenodd" fill="#a15b06" d="m6.3,12q-1.3,-0.1 -2.15,-1.1q-0.35,-0.65 -0.35,-0.85l0.25,-1q0.2,-0.8 0.6,-1.15l1.35,1.85l0.3,2.25"/>
   <path id="svg_111" fill-rule="evenodd" fill="#ffd070" d="m6.3,12l-0.3,-2.25l-1.35,-1.85l1.85,0.1q1.25,0.75 1.55,1.9q0.4,1.5 -0.55,1.9l-1.2,0.2"/>
   <path id="svg_112" stroke-width="0.05" stroke-linejoin="round" stroke-linecap="round" stroke="#93550b" fill="none" d="m4.65,7.9q-0.4,0.35 -0.6,1.15l-0.25,1q0,0.2 0.35,0.85q0.85,1 2.15,1.1m-1.65,-4.1l1.85,0.1q1.25,0.75 1.55,1.9q0.4,1.5 -0.55,1.9l-1.2,0.2"/>
   <path id="svg_113" fill-rule="evenodd" fill="#a15b06" d="m3.15,14.8q-2,-0.2 -2.5,-0.75q-0.55,-0.55 -0.4,-1.45l0.3,-2.05q0.15,-1.1 1.3,-1.7q1.15,2.55 1.3,5.95"/>
   <path id="svg_114" fill-rule="evenodd" fill="#ffd070" d="m3.15,14.8q-0.15,-3.4 -1.3,-5.95q1.05,-0.2 1.9,0.7q0.8,0.9 1.35,2.55q0.55,1.65 -1.15,2.55l-0.8,0.15"/>
   <path id="svg_115" stroke-width="0.05" stroke-linejoin="round" stroke-linecap="round" stroke="#93550b" fill="none" d="m1.85,8.85q-1.15,0.6 -1.3,1.7l-0.3,2.05q-0.15,0.9 0.4,1.45q0.5,0.55 2.5,0.75m-1.3,-5.95q1.05,-0.2 1.9,0.7q0.8,0.9 1.35,2.55q0.55,1.65 -1.15,2.55l-0.8,0.15"/>
   <path id="svg_116" fill-rule="evenodd" fill="#ffd070" d="m-2.7,14.45l-1,0q-1.65,-0.3 -1.65,-1.15q0.25,-2.2 1.1,-3q0.55,-0.55 1.35,-0.35l0.1,0.05q0.35,1.05 0.05,2.85q-0.3,1.45 0.05,1.6"/>
   <path id="svg_117" fill-rule="evenodd" fill="#a15b06" d="m-2.8,10q0.85,0.2 1.15,0.9l0.5,1.05q0.15,0.5 -0.1,1.2q-0.5,1.1 -1.45,1.3q-0.35,-0.15 -0.05,-1.6q0.3,-1.8 -0.05,-2.85"/>
   <path id="svg_118" stroke-width="0.05" stroke-linejoin="round" stroke-linecap="round" stroke="#93550b" fill="none" d="m-2.7,14.45l-1,0q-1.65,-0.3 -1.65,-1.15q0.25,-2.2 1.1,-3q0.55,-0.55 1.35,-0.35m0.1,0.05q0.85,0.2 1.15,0.9l0.5,1.05q0.15,0.5 -0.1,1.2q-0.5,1.1 -1.45,1.3l-0.1,-4.45z"/>
  </g>
  <g transform="matrix(1,0,0,1,9.4,1.7) " id="sprite7">
   <use id="svg_119" xlink:href="#shape9" width="9.55" transform="matrix(1,0,0,1,-9.4,-1.7) " height="5.2"/>
  </g>
  <g transform="matrix(1,0,0,1,9.4,1.7) " id="shape9">
   <path id="svg_120" stroke-width="0.05" stroke-linejoin="round" stroke-linecap="round" stroke="#68390b" fill="none" d="m-7.95,1.55l1.05,-1.3q2,-2.15 4.05,-1.95q2.1,0.2 3,2.45"/>
   <path id="svg_121" fill-rule="evenodd" fill="#e98727" d="m-7.25,2.85l-0.9,0.6l-0.9,-0.15q-0.35,-0.3 -0.35,-0.8q0,-0.55 0.35,-1q0.35,-0.45 0.9,-0.55l0.9,0.1q0.35,0.3 0.35,0.85q0,0.5 -0.35,0.95"/>
   <path id="svg_122" stroke-width="0.05" stroke-linejoin="round" stroke-linecap="round" stroke="#ffb945" fill="none" d="m-7.25,2.85l-0.9,0.6l-0.9,-0.15q-0.35,-0.3 -0.35,-0.8q0,-0.55 0.35,-1q0.35,-0.45 0.9,-0.55l0.9,0.1q0.35,0.3 0.35,0.85q0,0.5 -0.35,0.95z"/>
  </g>
  <g transform="matrix(1,0,0,1,19.8,19.55) " id="sprite8">
   <use id="svg_123" xlink:href="#shape10" width="20.15" transform="matrix(1,0,0,1,-19.8,-19.55) " height="26.1"/>
  </g>
  <g transform="matrix(1,0,0,1,19.8,19.55) " id="shape10">
   <path id="svg_124" fill-rule="evenodd" fill="#fff024" d="m-6.85,-11.95q-3,-2.9 -6.1,-5.15l-3.7,-2.45q-0.4,4.95 0.15,6.75q0.7,2 4.1,5q1.9,1.7 6.1,3.65q3.9,1.75 6.65,4.55q-4.85,-9.3 -7.2,-12.35m-0.85,3.1q2.75,2.3 4.75,5.3q-2,-3 -4.75,-5.3l-4.15,-4.15l-3.1,-3.7l3.1,3.7l4.15,4.15l-4.75,-1.8l4.75,1.8"/>
   <path id="svg_125" stroke-width="0.05" stroke-linejoin="round" stroke-linecap="round" stroke="#ff910b" fill="none" d="m-14.95,-16.7l3.1,3.7l4.15,4.15l-4.75,-1.8m9.5,7.1q-2,-3 -4.75,-5.3"/>
   <path id="svg_126" stroke-width="0.05" stroke-linejoin="round" stroke-linecap="round" stroke="#ff910b" fill="none" d="m-6.85,-11.95q-3,-2.9 -6.1,-5.15l-3.7,-2.45q-0.4,4.95 0.15,6.75q0.7,2 4.1,5q1.9,1.7 6.1,3.65q3.9,1.75 6.65,4.55"/>
   <path id="svg_127" fill-rule="evenodd" fill="#fff024" d="m-16.6,1.3l2.8,1.65l4.35,0.15l5.25,0.65l-5.25,-0.65l-4.35,-0.15l-2.8,-1.65m5.75,-0.6q-4.9,-0.15 -8.95,0.9q2.7,3.35 3.95,4.15q1.5,0.85 4.8,0.8q1.9,-0.05 4.95,-1.25q2.85,-1.15 5.7,-1q-7.6,-3.05 -10.45,-3.6m-1.85,4.05l3.25,-1.65l-3.25,1.65m-1.1,-1.8l-3.55,-0.55l3.55,0.55"/>
   <path id="svg_128" stroke-width="0.05" stroke-linejoin="round" stroke-linecap="round" stroke="#ff910b" fill="none" d="m-4.2,3.75l-5.25,-0.65l-4.35,-0.15l-2.8,-1.65m-0.75,1.1l3.55,0.55m4.35,0.15l-3.25,1.65"/>
   <path id="svg_129" stroke-width="0.05" stroke-linejoin="round" stroke-linecap="round" stroke="#ff910b" fill="none" d="m-10.85,0.7q-4.9,-0.15 -8.95,0.9q2.7,3.35 3.95,4.15q1.5,0.85 4.8,0.8q1.9,-0.05 4.95,-1.25q2.85,-1.15 5.7,-1"/>
  </g>
  <g id="sprite9">
   <use id="svg_130" xlink:href="#shape11" width="102.95" height="45"/>
  </g>
  <g id="shape11">
   <path id="svg_131" fill-rule="evenodd" fill-opacity="0" fill="#ff00ff" d="m102.95,45l-102.95,0l0,-45l102.95,0l0,45"/>
  </g>
 </defs>
 <g>
  <title>background</title>
  <rect fill="none" id="canvas_background" height="230" width="209" y="-1" x="-1"/>
 </g>
 <g>
  <title>Layer 1</title>
  <g id="svg_132">
   <use x="109.050003" y="220.5" id="svg_133" xlink:href="#shape0" width="381" transform="matrix(1,0,0,1,-192.55,-294) " height="381"/>
   <use x="0" y="0" id="svg_134" xlink:href="#shape1" width="254.85" transform="matrix(0.7999999999999998,0,0,0.7999999999999998,1.0292030517578188,1.110799999999955) " height="282"/>
   <use x="44.150758" y="56.947314" id="svg_135" xlink:href="#sprite0" width="18.15" transform="matrix(3.872,0,-1.087,3.872,19.481,-217.0267) " height="24.8"/>
   <use x="21.194707" y="16.636582" id="svg_136" xlink:href="#sprite1" width="7" transform="matrix(-0.8737999999999999,-3.7692999999999994,-3.8757999999999995,0.41409999999999997,262.4227030517578,230.69129999999996) " height="7"/>
   <use x="-28.16374" y="56.947314" id="svg_137" xlink:href="#sprite2" width="12.4" transform="matrix(-3.872,0,0,3.872,93.4272,-67.2988) " height="13.25"/>
   <use x="23.453876" y="-16.293786" id="svg_138" xlink:href="#sprite3" width="32.5" transform="matrix(-3.8452999999999995,-0.44109999999999994,-0.44109999999999994,3.8452999999999995,267.66120305175775,147.80099999999993) " height="27.65"/>
   <use x="-18.210606" y="68.005181" id="svg_139" xlink:href="#sprite1" width="7" transform="matrix(-3.872,0,0.5667,3.2424,11.1981,-65.6303) " height="7"/>
   <use x="-28.16374" y="56.947314" id="svg_140" xlink:href="#sprite4" width="12.8" transform="matrix(-3.872,0,0,3.872,30.7235,-50.1412) " height="13.95"/>
   <use x="-40.120325" y="49.31823" id="svg_141" xlink:href="#sprite5" width="9.5" transform="matrix(-3.7729,-0.8581,-0.8581,3.7729,-32.1618,-92.5098) " height="6.15"/>
   <use x="-28.16374" y="56.947314" id="svg_142" xlink:href="#sprite6" width="13.5" transform="matrix(-3.872,0,0,3.872,-43.6348,-94.322) " height="15.8"/>
   <use x="20.223769" y="-20.270568" id="svg_143" xlink:href="#sprite7" width="9.55" transform="matrix(-3.8520999999999996,0.25139999999999996,0.25139999999999996,3.8520999999999996,274.23200305175783,192.33789999999993) " height="5.2"/>
   <use x="34.152162" y="-12.132245" id="svg_144" xlink:href="#sprite7" width="9.55" transform="matrix(-2.4303,-0.762,0,3.8719999999999994,243.09470305175782,211.0308) " height="5.2"/>
   <use x="10.83099" y="56.947314" id="svg_145" xlink:href="#sprite8" width="20.15" transform="matrix(3.872,0,1.1785,3.872,-117.8042,-198.8475) " height="26.1"/>
   <use x="53.333009" y="117.845118" xlink:href="#sprite9" width="102.95" transform="matrix(2.0447,0,0,1.8711,-111.95,-94) " id="_mcMask" height="45"/>
  </g>
 </g>
</svg>