<svg width="207" height="229" xmlns="http://www.w3.org/2000/svg" xmlns:xlink="http://www.w3.org/1999/xlink">
 <defs>
  <g transform="matrix(1,0,0,1,192.55,294) " id="shape0">
   <path id="svg_1" stroke-opacity="0" stroke-linejoin="round" stroke-linecap="round" stroke="#ff00ff" fill="none" d="m187.95,-293.5l0,380l-379.95,0l-0.05,0l0,-380l380,0m-95,294.1l-189.95,0"/>
   <path id="svg_2" stroke-opacity="0" stroke-linejoin="round" stroke-linecap="round" stroke="#ff00ff" fill="none" d="m187.95,-293.5l-190,190l190,190m-380,-380l190,190l-189.95,190"/>
  </g>
  <g transform="matrix(1,0,0,1,755.1,66.85) " id="shape1">
   <path id="svg_3" stroke-width="6" stroke-linejoin="round" stroke-linecap="round" stroke="#3a3c13" fill="none" d="m-596.7,-43.75q0.3,-10.4 1.25,-20.1q11.45,15.5 14.25,23.35q3.1,8.9 3.55,29.3q0.25,11.4 -3.1,30.75l-0.75,5.05q4.25,0.4 7.95,1.75l0.6,0.2q5.1,4.35 9.05,8.75q5.65,-10.95 9,-15.5q11.75,-10.8 23.4,-14.9q-0.5,19.15 -2.3,25.05q-2.1,6.5 -10.3,13.05q-3.75,3.05 -10.95,4.5q1.7,3.15 2.85,6.25q6.45,18.1 9.35,22.65l-2.15,5.1l0.4,1.35q4.85,16.95 6.9,26.45l2.6,7.75q-0.45,2.35 -1.6,4.5l-0.05,2.25l1.8,0l8.95,7.75q-0.5,2.9 5.35,13.3q4.1,8.2 5.2,8.85q3.75,3.1 3.8,5.75q1.45,0.4 2.95,1.15q5.6,6 5.7,14.05q-0.65,2.65 -3.85,3.6q-3.15,0.8 -8.65,0q0.65,2.7 0.75,5.6q-0.55,2.85 -3.6,3.5q-5.7,0.95 -20.25,-6l-4.7,1.25l-0.15,-0.05l0.05,0.3q-0.15,3.3 -7.3,3.9l-4.2,-0.4q-4.3,-1.05 -6.3,-5.45q-1,-2.85 -0.25,-4.95l1.8,-3.15l-2.4,-6.4q-2.1,-4.55 -0.1,-15.6q-9.5,2.1 -19.05,0.8q-4.7,-0.35 -17,-0.35q-4.65,-0.1 -15,-3.4q-1.7,1.8 -2.1,3.8q1.8,3.6 1.95,6.65q3.45,-1.7 8.95,5.45q2.1,4.5 7.75,10.9l0.15,-0.15q2.1,-1.1 6.15,1.1q4.3,2.1 8.35,10.05q1.1,3.1 -4.5,5.8l-1.1,0.45l1.95,4.5q1.1,4.25 -6.9,7.5q-2.5,1 -4.7,1.1q-5.25,0.15 -9.2,-4.45l-0.1,0.85l-4,1.45l0.1,2.5q-0.35,4.7 -8.45,6.2l-4.6,-0.15q-4.8,-1.05 -6.8,-6.95l-8.8,-5.5q-2.15,-3.5 -2.55,-10.5q-4.55,-10 0.85,-30.4l3.85,-2.3l3.9,-8.6q-0.05,-2.8 -0.8,-6.35l-0.1,-0.6l-2.55,-1q-5.75,-3.1 -30.85,-15.75l-6.85,-5l-7,-1.25l2.75,14.5l3.6,8.95q0.45,2.45 -2.25,6.9q2.05,4.05 2.9,11q-0.05,4.05 -8,5.45q-2.7,0.4 -4.85,0q-4.75,-1 -7.15,-6.2q-0.75,-2.2 -0.7,-4.05l-2.45,0.45l-3.35,0.45l-0.8,-0.85l0.15,1.25q0.6,4.35 -1.9,7.1q-2.5,2.8 -12.25,3.65l-3.85,-0.7q-8.15,-4.3 -5.55,-12.35l0.95,-2.65q-3,1.85 -6.8,2.15q-3.4,0 -5.8,-0.95q-4.6,-1.95 -2.65,-9.2q1.45,-5.6 7.5,-9.2l0.65,-0.4q1.35,-2.9 3.85,-4.2q2,-3.8 2.3,-6.3q2.4,-16.2 3.6,-17.9q3.35,-4.8 7.75,-8.6l2.9,-2.3l2.9,1.35l2.4,-2.45l-0.3,-1.25l0.45,-7.45q-3.15,-0.85 -5.6,-2.05q-7.4,-3.8 -25.25,-20.1q6.7,-1.9 14.2,-3q12.7,-1.8 27.7,-1.35q3,0.55 7.15,1.6l0.3,-1.8l18.55,-18.4q-5.45,-2.7 -11.15,-5q-23.3,-9.35 -34.9,-17.55q-20.75,-14.5 -27.1,-24.2q-5.5,-8.7 -10.8,-32.8q10.7,5.4 21.65,11.9q18.15,10.9 37,25q11.6,10.75 34.55,37.65l14.75,-7.7q24.6,-14.9 39.6,-9l13.85,4.9q-4.45,-19.7 -5.8,-29.8q-0.9,-18.7 -0.2,-35.45m-65.25,88.2l-0.15,0.55l0.35,-0.8l-0.2,0.25m-26.4,42.55l-3.9,-1.85l3.75,0.1l0.15,1.75"/>
  </g>
  <g transform="matrix(1,0,0,1,9.05,24.4) " id="sprite0">
   <use id="svg_4" xlink:href="#shape2" width="18.2" transform="matrix(1,0,0,1,-9.05,-24.4) " height="24.8"/>
  </g>
  <g transform="matrix(1,0,0,1,9.05,24.4) " id="shape2">
   <path id="svg_5" fill-rule="evenodd" fill-opacity="0.6" fill="#6bbd28" d="m4.2,-7.1q1.8,-2.25 3.95,-3.1q1,3.95 1,5.2q-0.1,1.35 -1.4,2.7q-0.75,0.75 -2.65,1.05q-1.75,0.25 -2.75,1.65q1.05,-5.85 1.85,-7.5m-8.35,-8.45l0.25,4.25l-1.85,-5.5l-0.15,-0.3l-0.05,-0.25l0.05,0.25l0.15,0.3l1.85,5.5l-0.25,-4.25m9.25,11.05q-1.05,1 -1.65,2.75q0.6,-1.75 1.65,-2.75l1.55,-2l1.05,-2l-1.05,2l-1.55,2l2.25,0l-2.25,0m-11.15,-8.4q-1.25,-3.9 -2.1,-7.35l-0.9,-4.15q3.25,3.2 4.3,4.85q1.15,1.8 2.45,6.05q0.7,2.35 1.15,6.35q0.4,3.7 1.65,7.4q-5.05,-9.55 -6.55,-13.15m4.65,8.3q-1.55,-3.4 -2.5,-6.7q0.95,3.3 2.5,6.7"/>
   <path id="svg_6" stroke-width="0.05" stroke-linejoin="round" stroke-linecap="round" stroke="#6d8738" fill="none" d="m4.2,-7.1q1.8,-2.25 3.95,-3.1q1,3.95 1,5.2q-0.1,1.35 -1.4,2.7q-0.75,0.75 -2.65,1.05q-1.75,0.25 -2.75,1.65m-8.4,-13.3q-1.25,-3.9 -2.1,-7.35l-0.9,-4.15q3.25,3.2 4.3,4.85q1.15,1.8 2.45,6.05q0.7,2.35 1.15,6.35q0.4,3.7 1.65,7.4"/>
   <path id="svg_7" stroke-width="0.05" stroke-linejoin="round" stroke-linecap="round" stroke="#6d8738" fill="none" d="m7.7,-8.5l-1.05,2l-1.55,2l2.25,0m-3.9,2.75q0.6,-1.75 1.65,-2.75m-11.05,-12.85l0.05,0.25l0.15,0.3l1.85,5.5l-0.25,-4.25m0.25,4.25q0.95,3.3 2.5,6.7"/>
  </g>
  <g transform="matrix(1,0,0,1,2.45,0.95) " id="sprite1">
   <use id="svg_8" xlink:href="#shape3" width="7" transform="matrix(1,0,0,1,-2.45,-0.95) " height="7"/>
  </g>
  <g transform="matrix(1,0,0,1,2.45,0.95) " id="shape3">
   <path id="svg_9" fill-rule="evenodd" fill="#68390b" d="m0.05,-0.95l2.3,0.25q1.55,1.7 1.5,3.45q-0.1,2.25 0.7,3.3l-1.9,-0.4q-0.05,-3.7 -2.6,-6.6"/>
   <path id="svg_10" fill-rule="evenodd" fill="#995210" d="m2.65,5.65l-2.15,0.4q0,-1.3 -1.5,-2.25q-1.55,-1 -1.45,-2.1q1,-2.05 2.5,-2.65q2.55,2.9 2.6,6.6"/>
  </g>
  <g transform="matrix(1,0,0,1,7.6,0.4) " id="sprite2">
   <use id="svg_11" xlink:href="#shape4" width="12.4" transform="matrix(1,0,0,1,-7.6,-0.4) " height="13.25"/>
  </g>
  <g transform="matrix(1,0,0,1,7.6,0.4) " id="shape4">
   <path id="svg_12" fill-rule="evenodd" fill="#fef7e0" d="m-6.8,10.95q-0.65,-0.2 -0.8,-0.75q0.05,-1.65 1.15,-2.9q2.15,-1.05 4,1.1l0.05,0.55q-3.2,-0.65 -4.4,2"/>
   <path id="svg_13" fill-rule="evenodd" fill="#d9ceb4" d="m-2.4,8.95l0.1,1.35q-3.2,0.95 -4.5,0.65q1.2,-2.65 4.4,-2"/>
   <path id="svg_14" stroke-width="0.05" stroke-linejoin="round" stroke-linecap="round" stroke="#93550b" fill="none" d="m-2.3,10.3q-3.2,0.95 -4.5,0.65q-0.65,-0.2 -0.8,-0.75q0.05,-1.65 1.15,-2.9q2.15,-1.05 4,1.1"/>
   <path id="svg_15" fill-rule="evenodd" fill="#fef7e0" d="m-0.25,10.05q-2.95,-0.3 -4.2,2.75q-0.65,-0.1 -0.75,-0.7q0.05,-1.85 1.2,-3.4q2.05,-1.35 3.75,0.75l0,0.6"/>
   <path id="svg_16" fill-rule="evenodd" fill="#d9ceb4" d="m-4.45,12.8q1.25,-3.05 4.2,-2.75l0.05,1.5q-3.05,1.5 -4.25,1.25"/>
   <path id="svg_17" stroke-width="0.05" stroke-linejoin="round" stroke-linecap="round" stroke="#93550b" fill="none" d="m-0.25,9.45q-1.7,-2.1 -3.75,-0.75q-1.15,1.55 -1.2,3.4q0.1,0.6 0.75,0.7q1.2,0.25 4.25,-1.25"/>
   <path id="svg_18" fill-rule="evenodd" fill="#66822f" d="m4.4,9.1l-0.7,1.8l-2.95,0.95q1.7,-3.4 1.55,-7.1l0.95,3.3l1.15,1.05"/>
   <path id="svg_19" fill-rule="evenodd" fill="#8a8525" d="m-0.15,-0.3l2.25,-0.1l0.85,1.7l0.8,0.45q1.55,5.2 0.85,6.75l-0.2,0.6l-1.15,-1.05l-0.95,-3.3l0,-0.35l-0.05,-0.2l-0.15,-1.15l-0.2,-1.1l-1.15,0.25l-0.9,-2.5"/>
   <path id="svg_20" fill-rule="evenodd" fill="#aba719" d="m-2.85,1.3l1.85,-1.6l0.85,0l0.9,2.5l1.15,-0.25l0.2,1.1l-3.7,0.45l-1.45,-1.25l0.05,-0.15l0.15,-0.8m1.3,8.85q-1.55,-1.8 -2.65,-0.85q-0.35,-1.75 -1.5,-1.8q-0.4,-0.75 0.7,-1.6l1.05,-1.8l1.35,1.75l-0.15,1.35l-0.05,0.1q1.3,1.25 1.25,2.85"/>
   <path id="svg_21" fill-rule="evenodd" fill="#7e9c39" d="m-3.95,4.1l0,-0.05l0.05,0l0.85,-1.8l1.45,1.25l3.7,-0.45l0.15,1.15l0.05,0.2l-2.8,2.1l-2.25,0.7l0.15,-1.35l-1.35,-1.75"/>
   <path id="svg_22" fill-rule="evenodd" fill="#6d9115" d="m0.75,11.85l-1.3,-0.35l-0.2,-0.25l-0.8,-1.1q0.05,-1.6 -1.25,-2.85l0.05,-0.1l2.25,-0.7l2.8,-2.1l0,0.35q0.15,3.7 -1.55,7.1m-0.35,-3.45q-1.1,-0.5 -1.65,0.2q0.55,-0.7 1.65,-0.2"/>
   <path id="svg_23" stroke-width="0.05" stroke-linejoin="round" stroke-linecap="round" stroke="#635d1a" fill="none" d="m-2.85,1.3l1.85,-1.6l0.85,0l2.25,-0.1l0.85,1.7l0.8,0.45q1.55,5.2 0.85,6.75"/>
   <path id="svg_24" stroke-width="0.05" stroke-linejoin="round" stroke-linecap="round" stroke="#635d1a" fill="none" d="m4.6,8.5l-0.2,0.6l-0.7,1.8m-9.4,-3.4q-0.4,-0.75 0.7,-1.6l1.05,-1.8l0,-0.05l0.05,0l0.85,-1.8m0.05,-0.15l0.15,-0.8m1.6,7.3q0.55,-0.7 1.65,-0.2"/>
   <path id="svg_25" fill-rule="evenodd" fill="#fef7e0" d="m3.15,12.65l-0.9,0.05q-1.45,-0.1 -1.5,-0.8q0.2,-1.8 0.95,-2.55q0.7,-0.7 1.3,-0.6l0.05,0q-0.95,3.6 0.1,3.9"/>
   <path id="svg_26" fill-rule="evenodd" fill="#d9ceb4" d="m3.05,8.75q0.55,0.1 1,0.9l0.4,0.85q0.2,0.4 0,1q-0.45,0.9 -1.3,1.15q-1.05,-0.3 -0.1,-3.9"/>
   <path id="svg_27" stroke-width="0.05" stroke-linejoin="round" stroke-linecap="round" stroke="#93550b" fill="none" d="m3.15,12.65l-0.9,0.05q-1.45,-0.1 -1.5,-0.8q0.2,-1.8 0.95,-2.55q0.7,-0.7 1.3,-0.6m0.05,0q0.55,0.1 1,0.9l0.4,0.85q0.2,0.4 0,1q-0.45,0.9 -1.3,1.15l-0.1,-3.9z"/>
  </g>
  <g transform="matrix(1,0,0,1,16.55,17.65) " id="sprite3">
   <use id="svg_28" xlink:href="#shape5" width="32.5" transform="matrix(1,0,0,1,-16.55,-17.65) " height="27.7"/>
  </g>
  <g transform="matrix(1,0,0,1,16.55,17.65) " id="shape5">
   <path id="svg_29" fill-rule="evenodd" fill="#68390b" d="m-8,9.7q-2.5,0.05 -4.85,-1q-2.05,-0.9 -2.85,-2.15l-0.15,-4.75l7.55,0.95l11.3,-2.3l11.4,-7.15l0.45,6.8q0.3,3.45 -4.5,5.85l-6.7,2.5q-6.35,1.75 -8.15,1.6l-3.5,-0.35"/>
   <path id="svg_30" fill-rule="evenodd" fill="#fef7e0" d="m-2.3,5.85q-0.7,0.85 -1.65,1.05l-1.95,0q-1.05,-0.2 -0.95,-1.7q0.05,-1.5 0.6,-2.35q0.5,-0.9 1.45,-1.05q0.9,-0.15 1.7,0.45q0.8,0.6 1.15,1.65q0.3,1.05 -0.35,1.95"/>
   <path id="svg_31" stroke-width="0.05" stroke-linejoin="round" stroke-linecap="round" stroke="#93550b" fill="none" d="m-2.3,5.85q-0.7,0.85 -1.65,1.05l-1.95,0q-1.05,-0.2 -0.95,-1.7q0.05,-1.5 0.6,-2.35q0.5,-0.9 1.45,-1.05q0.9,-0.15 1.7,0.45q0.8,0.6 1.15,1.65q0.3,1.05 -0.35,1.95z"/>
   <path id="svg_32" fill-rule="evenodd" fill="#22180d" d="m-3.75,4.6l-0.55,0.25l-0.6,-0.05l-0.2,-0.4l0.2,-0.45l0.6,-0.25l0.55,0.05l0.25,0.45l-0.25,0.4"/>
   <path id="svg_33" fill-rule="evenodd" fill="#518513" d="m12.15,-8.2l1.7,1.55l0.9,1.9l-1.35,0.5l-1.7,0.1l-0.4,-4.85l0.85,0.8"/>
   <path id="svg_34" fill-rule="evenodd" fill="#45731f" d="m12.5,-9.5l0.15,0.1l-0.5,1.2l-0.85,-0.8l-0.05,-0.3l-0.15,-1.1l1.4,0.9m-0.75,6.3l1.7,0.8l-1.8,1.95l0.1,-2.75"/>
   <path id="svg_35" fill-rule="evenodd" fill="#659d17" d="m9.55,-12.6l2.45,1.75l0.5,1.35l-1.4,-0.9l-1.55,-2.2"/>
   <path id="svg_36" fill-rule="evenodd" fill="#7e9c39" d="m9.55,-12.6l-0.15,-0.2q-1.45,-1.8 -3.15,-3l6.2,4.2l3.45,4.3l-3.2,-2.05l-0.05,-0.05l-0.15,-0.1l-0.5,-1.35l-2.45,-1.75"/>
   <path id="svg_37" fill-rule="evenodd" fill="#6d8a32" d="m12.65,-9.4l0.05,0.05l3.2,2.05q0.25,5.25 -1.2,9.25l-3.65,0.85l0.55,-2.6l0.05,-0.65l1.8,-1.95l-1.7,-0.8l0,-0.15l-0.05,-0.8l1.7,-0.1l1.35,-0.5l-0.9,-1.9l-1.7,-1.55l0.5,-1.2"/>
   <path id="svg_38" stroke-width="0.05" stroke-linejoin="round" stroke-linecap="round" stroke="#635d1a" fill="none" d="m15.9,-7.3l-3.45,-4.3l-6.2,-4.2"/>
   <path id="svg_39" stroke-width="0.05" stroke-linejoin="round" stroke-linecap="round" stroke="#635d1a" fill="none" d="m11.05,2.8l3.65,-0.85q1.45,-4 1.2,-9.25l-4.85,10.1z"/>
   <path id="svg_40" fill-rule="evenodd" fill="#ede0be" d="m-15.8,5.05l-0.75,-0.55q0.1,-2.85 0.4,-3.85l2.55,-6.65l1.85,-1.1l0.5,0.15l-2,1.75l-0.2,0.2l-1.25,3.45l-1.1,3.1l0,3.5m3.45,-7.4l0.35,-0.1q0.15,0.85 -0.3,1.75q-0.25,1.2 -1,1.9l-1.15,0.8q-0.55,-1 0.55,-3.5l0.75,-0.7l0.8,-0.15m-2.05,5.75l0.2,1l-0.45,1.15l-0.45,-1.3q-0.1,-1.5 0.7,-0.85"/>
   <path id="svg_41" fill-rule="evenodd" fill="#659d17" d="m-3.2,-2.75l2.1,1.15l1.7,4.85l-1.2,0.8l-0.1,0.05l-1.8,-1.55l-0.6,-1.2l0.65,-2.1l-0.75,-2m-1.1,6.65q-1.55,0.25 -2.65,1.95l-0.05,0l-0.1,-0.85l1.85,-1.5l0.95,0.4m-5.9,-7.45l-1.05,0.25l-1.1,0.95l-0.8,0.15l-0.75,0.7l-0.8,-0.05l1.25,-3.45l0.2,-0.2l0.2,1.4l2.85,0.25"/>
   <path id="svg_42" fill-rule="evenodd" fill="#aba719" d="m-11.25,-6.95l0.05,0l3.3,0.95l1.85,1.35l-4.15,1.1l-2.85,-0.25l-0.2,-1.4l2,-1.75m1.1,8.5l0.6,-1.85l0.95,-0.55l-0.45,0.75l0.15,1.15l1.3,-1.15l-0.8,2.55l-1.65,1.2l-0.1,-2.1"/>
   <path id="svg_43" fill-rule="evenodd" fill="#8a8525" d="m-4.35,-3.4l1.15,0.65l0.75,2l-0.65,2.1l0.6,1.2l1.8,1.55l-1.05,0.7q-0.7,-1.05 -2.35,-0.9l-0.2,0l-0.95,-0.4l-1.85,1.5l0.1,0.85l0.05,0l-0.15,1.25l-2.7,0.15l0.1,-0.45q0.4,-1.35 1.9,-2.45l0.8,-3q0.55,-1.75 2.65,-4.75"/>
   <path id="svg_44" fill-rule="evenodd" fill="#7e9c39" d="m-6.05,-4.65l0.3,0.2l1.4,1.05q-2.1,3 -2.65,4.75l-0.8,3q-1.5,1.1 -1.9,2.45l-0.1,0.45q-3.55,-0.5 -6,-2.2l0,-3.5l1.1,-3.1l0.8,0.05q-1.1,2.5 -0.55,3.5l1.15,-0.8q0.75,-0.7 1,-1.9q0.45,-0.9 0.3,-1.75l-0.35,0.1l1.1,-0.95l1.05,-0.25l4.15,-1.1m-4.1,6.2l0.1,2.1l1.65,-1.2l0.8,-2.55l-1.3,1.15l-0.15,-1.15l0.45,-0.75l-0.95,0.55l-0.6,1.85m-4.25,1.85q-0.8,-0.65 -0.7,0.85l0.45,1.3l0.45,-1.15l-0.2,-1"/>
   <path id="svg_45" stroke-width="0.05" stroke-linejoin="round" stroke-linecap="round" stroke="#635d1a" fill="none" d="m-4.35,-3.4l1.15,0.65l2.1,1.15l1.7,4.85l-1.2,0.8m-0.1,0.05l-1.05,0.7q-0.7,-1.05 -2.35,-0.9l-0.2,0q-1.55,0.25 -2.65,1.95l-0.15,1.25l-2.7,0.15"/>
   <path id="svg_46" stroke-width="0.05" stroke-linejoin="round" stroke-linecap="round" stroke="#635d1a" fill="none" d="m-5.75,-4.45l1.4,1.05m-5.45,10.65q-3.55,-0.5 -6,-2.2l-0.75,-0.55q0.1,-2.85 0.4,-3.85l2.55,-6.65l1.85,-1.1l0.5,0.15l0.05,0l3.3,0.95l1.85,1.35"/>
   <path id="svg_47" fill-rule="evenodd" fill="#cf4a33" d="m-5.3,-2.7l0.05,-0.05l-0.05,0.05"/>
   <path id="svg_48" fill-rule="evenodd" fill="#f2573c" d="m-7,-15.4l0.15,-0.05l-0.05,0.1l-0.1,-0.05"/>
   <path id="svg_49" fill-rule="evenodd" fill="#8c3223" d="m6.9,-5.6l0,-0.05l0,0.05m-9.5,7.05l0.6,0.9l-0.05,0l-0.55,-0.9"/>
   <path id="svg_50" fill-rule="evenodd" fill="#897c5a" d="m4.2,-6.55l0.05,0.05l-0.05,0l0,-0.05"/>
   <path id="svg_51" fill-rule="evenodd" fill="#ede0be" d="m3.05,-10.1l-0.05,0.1l-0.05,-0.1l0.1,0m-9.6,-4.45l-1.8,1.8q-2,2.1 -3.35,4.8l-1.8,2.2l-0.85,-0.15q0.7,-0.85 2.45,-4.4q1.35,-2.7 4.9,-5.1l0.1,0.05l0.05,-0.1l0.05,0l0.3,0.85l-0.05,0l0,0.05"/>
   <path id="svg_52" fill-rule="evenodd" fill="#d4c8a9" d="m5.25,-10.05l0.05,0.1l1.6,4.35l-1,0.75l-1.65,-1.65l-0.05,-0.05l-1.2,-3.45l0.05,-0.1l2.2,0.05"/>
   <path id="svg_53" fill-rule="evenodd" fill="#7a6e50" d="m7.45,-3l0.05,-0.05l0,0.05l0,-0.05l0,0.05l-0.05,0"/>
   <path id="svg_54" fill-rule="evenodd" fill="#63ba3b" d="m-6.5,-14.45l-0.05,-0.1l0,-0.05l0.05,0l0,0.15"/>
   <path id="svg_55" fill-rule="evenodd" fill="#659d17" d="m-8.6,-4.25l-2.1,-1.05l-1.6,-0.25l1,-0.3l0.9,-0.25l0.95,-1.05l-0.1,1.4l0.95,1.5m1.05,0.15l0.9,-0.3l0.25,1.2l-1.55,-0.75l0.4,-0.15"/>
   <path id="svg_56" fill-rule="evenodd" fill="#518513" d="m3,-10l1.2,3.45l0,0.05l-0.7,0.2l-0.35,-1.1l-0.25,-0.95l-1.2,-0.9l1.25,-0.85l0.05,0.1m-6.6,5.35l0.15,-0.15l3,-2.9l0.5,-0.45l0.45,0l-0.75,1.35l-0.45,0.05l-1.25,1.4l0,1.9l-0.45,0.8l-0.05,-0.05l-1.9,-0.75l0.8,-0.6l-0.05,-0.6m11.35,5.35l-0.1,2.75l-1.55,0.6l0.65,-0.85l0.3,-0.45l0.7,-2.05m-2.2,3.55l-5.55,2.1l-0.95,-2.05l1,0.25l0.2,0l0.5,-0.55l1.3,0.75l1.8,0l0.35,-1.45l0.65,-1.1l0.25,0.75l0.45,1.3m-6.75,-5.25l-0.05,0.95l-0.6,-0.85l-0.15,-1.15l0.8,1.05"/>
   <path id="svg_57" fill-rule="evenodd" fill="#aba719" d="m-6.5,-14.45l0.9,0.95l-0.5,1.65l1.5,0.2l0.1,1.9l0.9,0.9l3.45,-1.2l1.15,-1.4l1.35,1.5l-0.65,0.7l-0.25,0.75l-1.55,-0.55l-2.35,1.1l-3.45,0.1l-0.75,-1.75l-0.8,-0.65l0,-1.5l-0.9,-1l1.8,-1.8l0.05,0.1m-4.8,8.6l0.4,-1.4l1.9,-1.3l0,2.4l1.45,2.05l-0.4,0.15l-0.65,-0.3l-0.95,-1.5l0.1,-1.4l-0.95,1.05l-0.9,0.25"/>
   <path id="svg_58" fill-rule="evenodd" fill="#99942a" d="m4.25,-6.5l1.65,1.65l-3.1,2.2l-0.75,0.8l1.25,-2.6l-0.15,-2.95l0.35,1.1l0.7,-0.2l0.05,0m2.4,2.75l-0.4,1.5l-0.25,0.15l-3.55,2.3l0.25,-1.95l3.95,-2"/>
   <path id="svg_59" fill-rule="evenodd" fill="#8a8525" d="m7.75,0.1l0,0.6l-0.7,2.05l-0.3,0.45l-1.65,-0.25l-0.25,-0.75l-0.35,-1.25l-2.1,-0.75l0.05,0l3.55,-2.3l1.75,2.2"/>
   <path id="svg_60" fill-rule="evenodd" fill="#7e9c39" d="m5.25,-10.05l-2.2,-0.05l-0.1,0l-1.25,0.85l0.65,-0.7l-1.35,-1.5l-1.15,1.4l-3.45,1.2l-0.9,-0.9l-0.1,-1.9l-1.5,-0.2l0.5,-1.65l-0.9,-0.95l0,-0.15l-0.3,-0.85q4.3,-1 11.4,4.1l0.65,1.3m-13.6,-2.7l0.9,1l0,1.5l0.8,0.65l0.75,1.75l3.45,-0.1l2.35,-1.1l1.55,0.55l-0.1,0.35l-0.85,0l-0.45,0l-0.5,0.45l-3,2.9l-0.15,0.15l0.05,0.6l-0.8,0.6l-0.9,0.7l-0.05,0.05l-1.1,-0.5l-0.25,-1.2l-0.9,0.3l-1.45,-2.05l0,-2.4l-1.9,1.3l-0.4,1.4l-1,0.3l-1.2,-0.2l1.8,-2.2q1.35,-2.7 3.35,-4.8"/>
   <path id="svg_61" fill-rule="evenodd" fill="#6d8a32" d="m1.45,-8.5l0.25,-0.75l1.2,0.9l0.25,0.95l0.15,2.95l-1.25,2.6l-0.8,0.85l1.45,-0.75l-0.25,1.95l-0.05,0l-4.1,2.65l-0.3,-0.5l3.25,-1.6l-3.05,0.05l-0.8,0.65l-2.7,-4.15l0.05,-0.05l0.9,-0.7l1.9,0.75l0.05,0.05l0.45,-0.8l0,-1.9l1.25,-1.4l0.45,-0.05l0.75,-1.35l0.85,0l0.1,-0.35m5.2,4.75l0.6,-0.35l-0.35,-1.5l0.6,2.55l-0.05,0.05l-1.2,0.75l0.4,-1.5m-7.85,2.75l-0.8,-1.05l0.15,1.15l0.6,0.85l0.05,-0.95"/>
   <path id="svg_62" fill-rule="evenodd" fill="#4e6925" d="m5.9,-4.85l1,-0.75l0.35,1.5l-0.6,0.35l-3.95,2l-1.45,0.75l0.8,-0.85l0.75,-0.8l3.1,-2.2m0.35,2.6l1.2,-0.75l0.05,0l0.25,3.1l-1.75,-2.2l0.25,-0.15m-0.15,6.3l-0.55,0.2l-0.45,-1.3l1.65,0.25l-0.65,0.85m-3.7,-3.85l2.1,0.75l0.35,1.25l-0.65,1.1l-0.35,1.45l-1.8,0l-1.3,-0.75l-0.5,0.55l-0.2,0l-1,-0.25l-0.1,-0.15l-0.65,-1.3l4.1,-2.65m-5,1.25l0.8,-0.65l3.05,-0.05l-3.25,1.6l-0.6,-0.9"/>
   <path id="svg_63" fill-rule="evenodd" fill="#636128" d="m0,6.35l-1.1,0.1l-1.35,-3.1l-3.1,-4.9l-5.4,-2.4l-3,-0.55l-0.4,-1.4l0.85,0.15l1.2,0.2l1.6,0.25l2.1,1.05l0.65,0.3l1.55,0.75l1.1,0.5l2.7,4.15l0.55,0.9l0.05,0l0.3,0.5l0.65,1.3l0.1,0.15l0.95,2.05"/>
   <path id="svg_64" stroke-width="0.05" stroke-linejoin="round" stroke-linecap="round" stroke="#635d1a" fill="none" d="m6.9,-5.6l-1.6,-4.35m2.2,6.9l-0.6,-2.55m0.6,2.6l0,-0.05m0,0.05l0.25,3.1l0,0.6l-0.1,2.75l-1.55,0.6l-0.55,0.2l-5.55,2.1m-13.95,-10.85l-0.4,-1.4m18.95,-5.45l0.65,1.3m-6.95,12.9l0.65,1.3m-4.25,-6.85l2.7,4.15m0.6,0.9l0.3,0.5m-0.3,-0.5l-0.6,-0.9m1.65,2.85l0.95,2.05"/>
   <path id="svg_65" stroke-width="0.05" stroke-linejoin="round" stroke-linecap="round" stroke="#635d1a" fill="none" d="m-14.35,-5.9q0.7,-0.85 2.45,-4.4q1.35,-2.7 4.9,-5.1l0.15,-0.05l0.05,0q4.3,-1 11.4,4.1m-11.1,-3.1l0,-0.15m-2.1,10.35l-2.1,-1.05l-1.6,-0.25l-1.2,-0.2l-0.85,-0.15m7.95,2.7l1.1,0.5l0.05,-0.05m1.7,-1.3l-0.05,-0.6m-5,0.4l0.65,0.3m1.55,0.75l-1.55,-0.75"/>
   <path id="svg_66" fill-rule="evenodd" fill="#ede0be" d="m5.4,-16.05l0.55,0.25l-1.45,0.65l-2.6,-0.4l1.45,-0.55l1,-0.4l1.05,0.45"/>
   <path id="svg_67" fill-rule="evenodd" fill="#897c5a" d="m4.35,-11.7l-0.05,0.05l-0.05,-0.15l0.1,0.1"/>
   <path id="svg_68" fill-rule="evenodd" fill="#518513" d="m5.95,-11.95l4.4,-0.6q1.6,4.2 2.05,9l-4,0.45l2.45,-2.2l-0.1,-1.55l-1.35,-1.95l-1,-0.2l0.6,-0.4l-0.45,0.1l0.4,-0.6l-0.75,-1.2l-2.5,-0.8l0.25,-0.05"/>
   <path id="svg_69" fill-rule="evenodd" fill="#659d17" d="m7.65,-14.1l-0.1,-0.85l2.8,2.4l-4.4,0.6l1.9,-1.15l-0.2,-1m-8.6,-3.15l0.95,-0.2l2.9,0.05l-2.45,0.55l-1.4,-0.4"/>
   <path id="svg_70" fill-rule="evenodd" fill="#45731f" d="m8.4,-3.1l4,-0.45l-2.2,7.1l-1.2,0l-0.75,-2.1l0.95,0.35l1.2,-2.4l0,-1.3l-2.35,-0.85l0.35,-0.35"/>
   <path id="svg_71" fill-rule="evenodd" fill="#aba719" d="m5.7,-16.2l-0.3,0.15l-1.05,-0.45l-1,0.4l-1.55,-0.05l-1.6,1.6l-2.05,-1.4l-4.65,0l4.8,-1.1l0.75,-0.2l1.4,0.4l2.45,-0.55l0.4,0.1q1.1,0.35 2.4,1.1m-1.7,3.95l2.25,-0.75l1.4,-1.1l0.2,1l-1.9,1.15l-0.25,0.05l-1.35,0.2l-0.1,-0.1l-0.25,-0.45"/>
   <path id="svg_72" fill-rule="evenodd" fill="#7e9c39" d="m7.55,-14.95l0.1,0.85l-1.4,1.1l-2.25,0.75l-0.05,-0.05l-0.1,-0.15q-0.95,-0.3 -1.35,-1q-1.05,-0.35 -2.2,-1.05l-0.05,-0.05l-0.05,0l1.6,-1.6l1.55,0.05l-1.45,0.55l2.6,0.4l1.45,-0.65l-0.55,-0.25l0.3,-0.15l1.55,1.05l0.3,0.2"/>
   <path id="svg_73" fill-rule="evenodd" fill="#4e6925" d="m5.35,-8.85l3.2,-0.45l0.45,-0.1l-0.6,0.4l-1.25,0.8l-0.35,0.8l-0.9,0.3l-0.55,-1.75m2,5.85l1.05,-0.1l-0.35,0.35l2.35,0.85l0,1.3l-1.2,2.4l-0.95,-0.35l0.75,2.1l-1.75,0l-0.05,-2.95q-0.1,-1.7 0.15,-3.6"/>
   <path id="svg_74" fill-rule="evenodd" fill="#6d8a32" d="m4.35,-11.7l1.35,-0.2l2.5,0.8l0.75,1.2l-0.4,0.6l-3.2,0.45l-1.05,-2.8l0.05,-0.05m4.05,2.7l1,0.2l1.35,1.95l0.1,1.55l-2.45,2.2l-1.05,0.1l-1.45,-4.1l0.9,-0.3l0.35,-0.8l1.25,-0.8"/>
   <path id="svg_75" fill-rule="evenodd" fill="#47461d" d="m4.25,-11.8l0.05,0.15l1.05,2.8l0.55,1.75l1.45,4.1q-0.25,1.9 -0.15,3.6l0.05,2.95l-0.6,0.1q-0.45,-4.65 -0.35,-6.7l-3.05,-7.25l1,-1.5"/>
   <path id="svg_76" fill-rule="evenodd" fill="#636128" d="m0.2,-14.55l0.05,0l0.05,0.05q1.15,0.7 2.2,1.05q0.4,0.7 1.35,1l0.1,0.15l0.05,0.05l0.25,0.45l-1,1.5q-3.25,-4.35 -10.05,-4.75l-0.1,-0.85l0.4,-0.05l4.65,0l2.05,1.4"/>
   <path id="svg_77" stroke-width="0.05" stroke-linejoin="round" stroke-linecap="round" stroke="#635d1a" fill="none" d="m7.25,-15.15l-1.55,-1.05m4.65,3.65l-2.8,-2.4m-14.45,-0.95l0.4,-0.05l4.8,-1.1m0.75,-0.2l0.95,-0.2l2.9,0.05m0.4,0.1q1.1,0.35 2.4,1.1"/>
   <path id="svg_78" stroke-width="0.05" stroke-linejoin="round" stroke-linecap="round" stroke="#635d1a" fill="none" d="m12.4,-3.55q-0.45,-4.8 -2.05,-9m-1.35,16.1l1.2,0l2.2,-7.1m-5.15,7.1l1.75,0"/>
   <path id="svg_79" fill-rule="evenodd" fill="#ede0be" d="m2.15,-10.35q0.7,-0.05 0.95,0.45q0.25,0.45 -0.15,1.2q-0.4,0.7 -1.15,1.25q-0.8,0.55 -1.45,0.6l-0.35,0q-0.4,-1.65 2.15,-3.5m-4.05,4.2l0.15,0l0.05,0l0.35,0.25l-0.1,0.6l-0.45,0.55q-0.35,0.25 -0.6,0.25l-0.1,0q0.05,-0.75 0.7,-1.65"/>
   <path id="svg_80" fill-rule="evenodd" fill="#f4ecd9" d="m0,-6.85l-0.55,-0.45q-0.25,-0.5 0.1,-1.2l1.15,-1.25q0.75,-0.55 1.45,-0.6q-2.55,1.85 -2.15,3.5m-2.6,2.35l-0.3,-0.25l0.05,-0.6l0.5,-0.55l0.45,-0.25q-0.65,0.9 -0.7,1.65"/>
  </g>
  <g transform="matrix(1,0,0,1,8.85,0.75) " id="sprite4">
   <use id="svg_81" xlink:href="#shape6" width="12.85" transform="matrix(1,0,0,1,-8.85,-0.75) " height="13.85"/>
  </g>
  <g transform="matrix(1,0,0,1,8.85,0.75) " id="shape6">
   <path id="svg_82" fill-rule="evenodd" fill="#fef7e0" d="m-7.1,9.1l-0.75,-0.2q-1.15,-0.55 -0.95,-1.2q0.85,-1.65 1.75,-2.05q0.8,-0.45 1.3,-0.2l0.05,0q-2.1,3.1 -1.4,3.65"/>
   <path id="svg_83" fill-rule="evenodd" fill="#d9ceb4" d="m-5.7,5.45q0.4,0.25 0.4,1.2l0.05,0.85q0,0.4 -0.35,0.9q-0.7,0.75 -1.5,0.7q-0.7,-0.55 1.4,-3.65"/>
   <path id="svg_84" stroke-width="0.05" stroke-linejoin="round" stroke-linecap="round" stroke="#93550b" fill="none" d="m-7.1,9.1l-0.75,-0.2q-1.15,-0.55 -0.95,-1.2q0.85,-1.65 1.75,-2.05q0.8,-0.45 1.3,-0.2m0.05,0q0.4,0.25 0.4,1.2l0.05,0.85q0,0.4 -0.35,0.9q-0.7,0.75 -1.5,0.7l1.4,-3.65z"/>
   <path id="svg_85" fill-rule="evenodd" fill="#fef7e0" d="m-5.6,11.7l-1,-0.2q-1.65,-0.7 -1.45,-1.55q0.9,-2.3 2,-2.9l2.05,-0.1q-2.2,3.5 -1.6,4.75"/>
   <path id="svg_86" fill-rule="evenodd" fill="#d9ceb4" d="m-4,6.95q0.4,0.4 0.55,1.3l0.2,1.15q0,0.65 -0.4,1.3q-0.85,1.05 -1.95,1q-0.6,-1.25 1.6,-4.75"/>
   <path id="svg_87" stroke-width="0.05" stroke-linejoin="round" stroke-linecap="round" stroke="#93550b" fill="none" d="m-4,6.95q0.4,0.4 0.55,1.3l0.2,1.15q0,0.65 -0.4,1.3q-0.85,1.05 -1.95,1l-1,-0.2q-1.65,-0.7 -1.45,-1.55q0.9,-2.3 2,-2.9l2.05,-0.1z"/>
   <path id="svg_88" fill-rule="evenodd" fill="#fef7e0" d="m-0.2,13.05l-0.95,0q-1.7,-0.3 -1.75,-1.25q0.05,-2.55 0.85,-3.5q0.95,-1.2 1.8,-0.6q-0.85,4.2 0.05,5.35"/>
   <path id="svg_89" fill-rule="evenodd" fill="#d9ceb4" d="m-0.25,7.7q0.45,0.35 0.9,1.25l0.55,1.2q0.2,0.6 0.05,1.4q-0.45,1.25 -1.45,1.5q-0.9,-1.15 -0.05,-5.35"/>
   <path id="svg_90" stroke-width="0.05" stroke-linejoin="round" stroke-linecap="round" stroke="#93550b" fill="none" d="m-0.25,7.7q0.45,0.35 0.9,1.25l0.55,1.2q0.2,0.6 0.05,1.4q-0.45,1.25 -1.45,1.5l-0.95,0q-1.7,-0.3 -1.75,-1.25q0.05,-2.55 0.85,-3.5q0.95,-1.2 1.8,-0.6z"/>
   <path id="svg_91" fill-rule="evenodd" fill="#aba719" d="m-2.6,10.6l-0.15,0.4l-0.05,0.3l-0.9,-0.35l-0.2,-2l-0.05,0q-1.2,-1.15 -2.5,-1.25q-0.55,-0.9 0.3,-1.8l1.35,-1.6l0.6,-0.95l0.15,1.85l-0.2,1.2l0.75,0.9l0.9,3.3m-0.05,-8.6l0.35,0.05l2.7,0.25l0.8,-0.15l-0.3,0.85l-1.25,0.35l-1.45,0.85l-0.2,-1.05l-0.65,-1.15"/>
   <path id="svg_92" fill-rule="evenodd" fill="#7e9c39" d="m0.25,9.65l-0.1,-0.05l0.35,-1.3l0.5,0l-0.75,1.35m-4.45,-6.3l0.05,-0.15q0.85,-1.15 1.5,-1.2l0.65,1.15l0.2,1.05l1.45,-0.85l1.25,-0.35l0.3,-0.85l0.1,-0.05l0.25,-0.05l0.1,0.65q0.35,2.4 -0.25,4.5l-0.65,-1.15l-0.1,-2.3l-1.2,1.15l-1.05,1.9l-1.9,0.5l-0.75,-0.9l0.2,-1.2l-0.15,-1.85m1.9,-1.3q0.05,-0.85 0.7,-1.9l1.2,-0.75q1.2,1.85 0.8,2.9l-2.7,-0.25"/>
   <path id="svg_93" fill-rule="evenodd" fill="#6d9115" d="m0.15,9.6q-0.6,-0.4 -1.2,-0.25l-0.65,0.3q-0.65,0.4 -0.9,0.95l-0.9,-3.3l1.9,-0.5l1.05,-1.9l1.2,-1.15l0.1,2.3l0.65,1.15l-0.1,0.25l-0.3,0.85l-0.5,0l-0.35,1.3m-0.65,-1.5q-1.1,-0.55 -1.8,0.35q0.7,-0.9 1.8,-0.35"/>
   <path id="svg_94" fill-rule="evenodd" fill="#8a8525" d="m4,6.3l-0.45,2l-0.2,1.35l-0.05,0.15l-0.25,0.65l-1.9,1.2q0,-1 -0.85,-1.95l-0.05,-0.05l0.75,-1.35l0.3,-0.85l0.1,-0.25l1.65,-0.25l0.95,-0.65"/>
   <path id="svg_95" fill-rule="evenodd" fill="#66822f" d="m-0.4,-0.6q1.25,-0.4 2.2,0.35l0.8,1.8l0.8,0.45q0.6,2.35 0.6,4.05l0,0.25l-0.95,0.65l-1.65,0.25q0.6,-2.1 0.25,-4.5l-0.1,-0.65l-0.25,0.05l-0.1,0.05l-0.8,0.15q0.4,-1.05 -0.8,-2.9m3,2.15l-1.05,0.5l1.05,-0.5"/>
   <path id="svg_96" stroke-width="0.05" stroke-linejoin="round" stroke-linecap="round" stroke="#635d1a" fill="none" d="m-0.4,-0.6q1.25,-0.4 2.2,0.35l0.8,1.8l0.8,0.45q0.6,2.35 0.6,4.05m0,0.25l-0.45,2m-6.15,2.3l-0.15,0.4m0.45,-8.95q0.05,-0.85 0.7,-1.9l1.2,-0.75m0.8,2.9l0.8,-0.15m0.1,-0.05l0.25,-0.05l1.05,-0.5m-4.9,0.5l2.7,0.25"/>
   <path id="svg_97" stroke-width="0.05" stroke-linejoin="round" stroke-linecap="round" stroke="#635d1a" fill="none" d="m3.55,8.3l-0.2,1.35m-0.05,0.15l-0.25,0.65l-1.9,1.2q0,-1 -0.85,-1.95l-0.05,-0.05l-0.1,-0.05q-0.6,-0.4 -1.2,-0.25l-0.65,0.3q-0.65,0.4 -0.9,0.95m-0.15,0.4l-0.05,0.3m-1.1,-2.35l-0.05,0q-1.2,-1.15 -2.5,-1.25q-0.55,-0.9 0.3,-1.8l1.35,-1.6l0.6,-0.95l0.05,-0.15q0.85,-1.15 1.5,-1.2l0.35,0.05m0,6.4q0.7,-0.9 1.8,-0.35"/>
   <path id="svg_98" fill-rule="evenodd" fill="#ede0be" d="m1.3,6l-0.45,0.05q-0.3,-0.15 -0.3,-0.8l0.15,-1.15q0.1,-0.7 0.45,-1q0.2,-0.35 0.45,-0.1l0.25,0.8l-0.15,1.2l-0.4,1"/>
   <path id="svg_99" fill-rule="evenodd" fill="#ede0be" d="m0.8,8.6l-0.25,-0.05l-0.15,-0.4l0.05,-0.5l0.2,-0.4q0.1,-0.15 0.25,0l0.1,0.4l-0.05,0.55l-0.15,0.4"/>
  </g>
  <g transform="matrix(1,0,0,1,1.7,3) " id="sprite5">
   <use id="svg_100" xlink:href="#shape7" width="9.5" transform="matrix(1,0,0,1,-1.7,-3) " height="6.15"/>
  </g>
  <g transform="matrix(1,0,0,1,1.7,3) " id="shape7">
   <path id="svg_101" fill-rule="evenodd" fill="#68390b" d="m7.75,-1.35l-0.8,1q-0.05,0.75 -2,2.05q-2,1.25 -3.2,1.45l-2.1,-0.1q-1.15,0 -1.35,-1.9l0.45,-0.95l0.15,-0.85l8.85,-0.7"/>
   <path id="svg_102" fill-rule="evenodd" fill="#995210" d="m-1.1,-0.65l0.05,-0.2q0.7,-1.25 1.8,-1.5l2.95,-0.2l1.7,-0.35q1.1,-0.35 2.4,0.3l-0.05,1.25l-8.85,0.7"/>
  </g>
  <g transform="matrix(1,0,0,1,5.35,1) " id="sprite6">
   <use id="svg_103" xlink:href="#shape8" width="13.5" transform="matrix(1,0,0,1,-5.35,-1) " height="15.8"/>
  </g>
  <g transform="matrix(1,0,0,1,5.35,1) " id="shape8">
   <path id="svg_104" fill-rule="evenodd" fill="#659d17" d="m-0.7,8.6l1.4,0.1l-0.2,0.65l-1.35,0.8l0.15,-1.55"/>
   <path id="svg_105" fill-rule="evenodd" fill="#aba719" d="m5.65,7q0.65,0.35 0.95,1.3l-0.15,0.05q-1.3,0.15 -1.8,2.5q-1.65,-0.55 -2.85,0.25l-1.65,1.35l-0.7,-0.1l-0.3,-1.95l0,-0.25l1.35,-0.8l0.2,-0.65l0.1,-0.5l-0.35,-1.5l0.8,-1.6l1.25,1.25l1.5,0.25l0.95,0.15l0.7,0.25m-4.35,1.6l-0.6,0.1l0.6,-0.1"/>
   <path id="svg_106" fill-rule="evenodd" fill="#bbae8c" d="m-3.5,3.1l-0.05,0l0.05,0m3.65,0.9l0.05,0l-0.05,0"/>
   <path id="svg_107" fill-rule="evenodd" fill="#45731f" d="m-2.55,1.1q-0.1,-0.6 0.55,-1.4l1.25,-0.55l1.15,1.45q0.7,1.2 0.9,2.55l-0.8,-0.1l-0.95,0.2q-0.55,0.15 -1.1,-0.5l-0.85,-1.2l-0.15,-0.45l0.15,0.45l0.85,1.2q0.55,0.65 1.1,0.5l0.95,-0.2l-0.35,0.95q-1.45,1.75 -1.25,2.9l0.4,1.7l-2.15,-0.7l2.15,0.7l-0.15,1.55l-1.7,-1.3l-0.3,-0.95l-0.25,-0.95l-0.95,-1.2l0.5,-2.65l0.75,-2l0.25,0m-1,2l0.05,0l-0.05,0"/>
   <path id="svg_108" fill-rule="evenodd" fill="#8e8515" d="m-0.55,12.35q-3.7,-0.6 -4.1,-1.25q-0.65,-1 -0.55,-1.55l0.75,-1.85l0.4,-1.95l0.95,1.2l0.25,0.95l0.3,0.95l1.7,1.3l0,0.25l0.3,1.95"/>
   <path id="svg_109" fill-rule="evenodd" fill="#7e9c39" d="m0.5,3.05l0.8,0.1q-0.2,-1.35 -0.9,-2.55l-1.15,-1.45l1.55,0.1l0.8,0.8l0.6,-0.3l1,0.85l0.2,0.2l1,1.2l0.55,2.35l0.1,0.55l0.1,0.8l0.5,1.3l-0.7,-0.25l-0.95,-0.15l-1.5,-0.25l-1.25,-1.25l-0.8,1.6l0.35,1.5l-0.1,0.5l-1.4,-0.1l-0.4,-1.7q-0.2,-1.15 1.25,-2.9l0.35,-0.95m-0.35,0.95l0.05,0l-0.05,0m1.15,-0.85q2.4,-0.75 1.25,-2.05l-0.95,-1.05l0.95,1.05q1.15,1.3 -1.25,2.05"/>
   <path id="svg_110" stroke-width="0.05" stroke-linejoin="round" stroke-linecap="round" stroke="#635d1a" fill="none" d="m-0.75,-0.85l-1.25,0.55q-0.65,0.8 -0.55,1.4l0.15,0.45l0.85,1.2q0.55,0.65 1.1,0.5l0.95,-0.2l0.8,0.1m4.35,3.85q0.65,0.35 0.95,1.3l-0.15,0.05q-1.3,0.15 -1.8,2.5q-1.65,-0.55 -2.85,0.25l-1.65,1.35m-3,-4.55l2.15,0.7l1.4,0.1l0.6,-0.1m3.65,-1.85l0.7,0.25"/>
   <path id="svg_111" stroke-width="0.05" stroke-linejoin="round" stroke-linecap="round" stroke="#635d1a" fill="none" d="m-0.75,-0.85l1.55,0.1l0.8,0.8l0.95,1.05q1.15,1.3 -1.25,2.05m0.9,-3.4l1,0.85m0.2,0.2l1,1.2l0.55,2.35m0.1,0.55l0.1,0.8l0.5,1.3m-5.5,5.45l-0.7,-0.1q-3.7,-0.6 -4.1,-1.25q-0.65,-1 -0.55,-1.55l0.75,-1.85l0.4,-1.95l0.5,-2.65l0.75,-2m-0.7,2l-0.05,0m3.7,0.9l0.05,0l-0.05,0"/>
   <path id="svg_112" fill-rule="evenodd" fill="#fef7e0" d="m4.65,7.9l1.85,0.1q1.25,0.75 1.55,1.9q0.4,1.5 -0.55,1.9l-1.2,0.2l-0.3,-2.25l-1.35,-1.85"/>
   <path id="svg_113" fill-rule="evenodd" fill="#d9ceb4" d="m4.65,7.9l1.35,1.85l0.3,2.25q-1.3,-0.1 -2.15,-1.1q-0.35,-0.65 -0.35,-0.85l0.25,-1q0.2,-0.8 0.6,-1.15"/>
   <path id="svg_114" stroke-width="0.05" stroke-linejoin="round" stroke-linecap="round" stroke="#93550b" fill="none" d="m6.3,12l1.2,-0.2q0.95,-0.4 0.55,-1.9q-0.3,-1.15 -1.55,-1.9l-1.85,-0.1m1.65,4.1q-1.3,-0.1 -2.15,-1.1q-0.35,-0.65 -0.35,-0.85l0.25,-1q0.2,-0.8 0.6,-1.15"/>
   <path id="svg_115" fill-rule="evenodd" fill="#fef7e0" d="m3.15,14.8q-0.15,-3.4 -1.3,-5.95q1.05,-0.2 1.9,0.7q0.8,0.9 1.35,2.55q0.55,1.65 -1.15,2.55l-0.8,0.15"/>
   <path id="svg_116" fill-rule="evenodd" fill="#d9ceb4" d="m3.15,14.8q-2,-0.2 -2.5,-0.75q-0.55,-0.55 -0.4,-1.45l0.3,-2.05q0.15,-1.1 1.3,-1.7q1.15,2.55 1.3,5.95"/>
   <path id="svg_117" stroke-width="0.05" stroke-linejoin="round" stroke-linecap="round" stroke="#93550b" fill="none" d="m1.85,8.85q-1.15,0.6 -1.3,1.7l-0.3,2.05q-0.15,0.9 0.4,1.45q0.5,0.55 2.5,0.75m-1.3,-5.95q1.05,-0.2 1.9,0.7q0.8,0.9 1.35,2.55q0.55,1.65 -1.15,2.55l-0.8,0.15"/>
   <path id="svg_118" fill-rule="evenodd" fill="#fef7e0" d="m-2.8,10q0.35,1.05 0.05,2.85q-0.3,1.45 0.05,1.6l-1,0q-1.65,-0.3 -1.65,-1.15q0.25,-2.2 1.1,-3q0.55,-0.55 1.35,-0.35l0.1,0.05"/>
   <path id="svg_119" fill-rule="evenodd" fill="#d9ceb4" d="m-2.7,14.45q-0.35,-0.15 -0.05,-1.6q0.3,-1.8 -0.05,-2.85q0.85,0.2 1.15,0.9l0.5,1.05q0.15,0.5 -0.1,1.2q-0.5,1.1 -1.45,1.3"/>
   <path id="svg_120" stroke-width="0.05" stroke-linejoin="round" stroke-linecap="round" stroke="#93550b" fill="none" d="m-2.7,14.45q0.95,-0.2 1.45,-1.3q0.25,-0.7 0.1,-1.2l-0.5,-1.05q-0.3,-0.7 -1.15,-0.9m-0.1,-0.05q-0.8,-0.2 -1.35,0.35q-0.85,0.8 -1.1,3q0,0.85 1.65,1.15l1,0l-0.2,-4.5z"/>
   <path id="svg_121" fill-rule="evenodd" fill="#ede0be" d="m4.25,3.9l-0.6,0.6q-0.4,0.15 -0.8,-0.4q-0.4,-0.45 -0.5,-1.3q-0.2,-0.75 0,-1.35q0.05,-0.6 0.55,-0.7q0.35,-0.1 0.8,0.4l0.45,1.35l0.1,1.4"/>
   <path id="svg_122" fill-rule="evenodd" fill="#ede0be" d="m5.05,6.85l-0.25,0.2q-0.25,0.05 -0.45,-0.2q-0.15,-0.15 -0.2,-0.5q-0.15,-0.35 0,-0.6l0.3,-0.25l0.35,0.15l0.2,0.6l0.05,0.6"/>
  </g>
  <g transform="matrix(1,0,0,1,9.4,1.7) " id="sprite7">
   <use id="svg_123" xlink:href="#shape9" width="9.55" transform="matrix(1,0,0,1,-9.4,-1.7) " height="5.2"/>
  </g>
  <g transform="matrix(1,0,0,1,9.4,1.7) " id="shape9">
   <path id="svg_124" stroke-width="0.05" stroke-linejoin="round" stroke-linecap="round" stroke="#68390b" fill="none" d="m-7.95,1.55l1.05,-1.3q2,-2.15 4.05,-1.95q2.1,0.2 3,2.45"/>
   <path id="svg_125" fill-rule="evenodd" fill="#e98727" d="m-7.25,2.85l-0.9,0.6l-0.9,-0.15q-0.35,-0.3 -0.35,-0.8q0,-0.55 0.35,-1q0.35,-0.45 0.9,-0.55l0.9,0.1q0.35,0.3 0.35,0.85q0,0.5 -0.35,0.95"/>
   <path id="svg_126" stroke-width="0.05" stroke-linejoin="round" stroke-linecap="round" stroke="#ffb945" fill="none" d="m-7.25,2.85l-0.9,0.6l-0.9,-0.15q-0.35,-0.3 -0.35,-0.8q0,-0.55 0.35,-1q0.35,-0.45 0.9,-0.55l0.9,0.1q0.35,0.3 0.35,0.85q0,0.5 -0.35,0.95z"/>
  </g>
  <g transform="matrix(1,0,0,1,19.75,19.55) " id="sprite8">
   <use id="svg_127" xlink:href="#shape10" width="20.1" transform="matrix(1,0,0,1,-19.75,-19.55) " height="26.1"/>
  </g>
  <g transform="matrix(1,0,0,1,19.75,19.55) " id="shape10">
   <path id="svg_128" fill-rule="evenodd" fill-opacity="0.6" fill="#76bd28" d="m0.35,0.4q-2.75,-2.8 -6.65,-4.55q-4.2,-1.95 -6.1,-3.65q-3.4,-3 -4.05,-5q-0.6,-1.8 -0.2,-6.75l3.75,2.45q3.05,2.25 6.05,5.15q2.35,3.05 7.2,12.35m-12.8,-11.05l4.8,1.8l-4.15,-4.15l-3.1,-3.7l3.1,3.7l4.15,4.15q2.7,2.3 4.7,5.3q-2,-3 -4.7,-5.3l-4.8,-1.8m12.1,14.95q-2.9,-0.15 -5.75,1q-3.05,1.2 -4.9,1.25q-3.35,0.05 -4.8,-0.8q-1.3,-0.8 -3.95,-4.15q4,-1.05 8.9,-0.9q2.85,0.55 10.5,3.6m-9.1,-1.2l-4.3,-0.15l-3.6,-0.55l3.6,0.55l-2.85,-1.65l2.85,1.65l4.3,0.15l5.25,0.65l-5.25,-0.65l-3.25,1.65l3.25,-1.65"/>
   <path id="svg_129" stroke-width="0.05" stroke-linejoin="round" stroke-linecap="round" stroke="#6d8738" fill="none" d="m-6.85,-11.95q-3,-2.9 -6.05,-5.15l-3.75,-2.45q-0.4,4.95 0.2,6.75q0.65,2 4.05,5q1.9,1.7 6.1,3.65q3.9,1.75 6.65,4.55m-11.2,0.3q-4.9,-0.15 -8.9,0.9q2.65,3.35 3.95,4.15q1.45,0.85 4.8,0.8q1.85,-0.05 4.9,-1.25q2.85,-1.15 5.75,-1"/>
   <path id="svg_130" stroke-width="0.05" stroke-linejoin="round" stroke-linecap="round" stroke="#6d8738" fill="none" d="m-14.9,-16.7l3.1,3.7l4.15,4.15q2.7,2.3 4.7,5.3m-4.7,-5.3l-4.8,-1.8m8.25,14.4l-5.25,-0.65l-3.25,1.65m-4.65,-2.35l3.6,0.55l-2.85,-1.65m2.85,1.65l4.3,0.15"/>
  </g>
  <g id="sprite9">
   <use id="svg_131" xlink:href="#shape11" width="102.95" height="45"/>
  </g>
  <g id="shape11">
   <path id="svg_132" fill-rule="evenodd" fill-opacity="0" fill="#ff00ff" d="m0,0l102.95,0l0,45l-102.95,0l0,-45"/>
  </g>
 </defs>
 <g>
  <title>background</title>
  <rect fill="none" id="canvas_background" height="231" width="209" y="-1" x="-1"/>
 </g>
 <g>
  <title>Layer 1</title>
  <g id="svg_133">
   <use x="111.050003" y="222.5" id="svg_134" xlink:href="#shape0" width="381" transform="matrix(1,0,0,1,-192.55,-294) " height="381"/>
   <use x="0" y="0" id="svg_135" xlink:href="#shape1" width="255.1" transform="matrix(0.7999999999999999,0,0,0.7999999999999999,1.429203051757776,1.3207999999999345) " height="281.55"/>
   <use x="44.812293" y="57.463843" id="svg_136" xlink:href="#sprite0" width="18.2" transform="matrix(3.872,0,-1.087,3.872,18.081,-218.7767) " height="24.8"/>
   <use x="20.621608" y="16.249765" id="svg_137" xlink:href="#sprite1" width="7" transform="matrix(-0.8737999999999999,-3.7692999999999994,-3.8757999999999995,0.41409999999999997,261.02270305175784,228.94129999999996) " height="7"/>
   <use x="-28.680269" y="57.463843" id="svg_138" xlink:href="#sprite2" width="12.4" transform="matrix(-3.872,0,0,3.872,92.0272,-69.0488) " height="13.25"/>
   <use x="22.881627" y="-15.839314" id="svg_139" xlink:href="#sprite3" width="32.5" transform="matrix(-3.8452999999999995,-0.44109999999999994,-0.44109999999999994,3.8452999999999995,266.47550305175776,145.88079999999994) " height="27.7"/>
   <use x="-18.636857" y="68.622008" id="svg_140" xlink:href="#sprite1" width="7" transform="matrix(-3.872,0,0.5667,3.2424,9.7981,-67.3803) " height="7"/>
   <use x="-28.680269" y="57.463843" id="svg_141" xlink:href="#sprite4" width="12.85" transform="matrix(-3.872,0,0,3.872,29.5171,-51.504) " height="13.85"/>
   <use x="-40.738984" y="49.70762" id="svg_142" xlink:href="#sprite5" width="9.5" transform="matrix(-3.7729,-0.8581,-0.8581,3.7729,-33.5618,-94.2598) " height="6.15"/>
   <use x="-28.680269" y="57.463843" id="svg_143" xlink:href="#sprite6" width="13.5" transform="matrix(-3.872,0,0,3.872,-45.0348,-96.072) " height="15.8"/>
   <use x="19.740514" y="-19.719832" id="svg_144" xlink:href="#sprite7" width="9.55" transform="matrix(-3.8520999999999996,0.25139999999999996,0.25139999999999996,3.8520999999999996,272.83200305175774,190.58789999999993) " height="5.2"/>
   <use x="33.329219" y="-11.777669" id="svg_145" xlink:href="#sprite7" width="9.55" transform="matrix(-2.4303,-0.762,0,3.8719999999999994,241.69470305175778,209.28079999999994) " height="5.2"/>
   <use x="11.190306" y="57.463843" id="svg_146" xlink:href="#sprite8" width="20.1" transform="matrix(3.872,0,1.1785,3.872,-119.0106,-200.5975) " height="26.1"/>
   <use x="54.311147" y="118.914008" xlink:href="#sprite9" width="102.95" transform="matrix(2.0447,0,0,1.8711,-111.95,-94) " id="_mcMask" height="45"/>
  </g>
 </g>
</svg>