<svg width="154" height="180" xmlns="http://www.w3.org/2000/svg" xmlns:xlink="http://www.w3.org/1999/xlink">
 <defs>
  <g transform="matrix(1,0,0,1,2.25,2.25) " id="sprite0">
   <use id="svg_1" xlink:href="#shape0" width="279.7" transform="matrix(1,0,0,1,-2.25,-2.25) " height="327.2"/>
  </g>
  <g transform="matrix(1,0,0,1,2.25,2.25) " id="shape0">
   <path id="svg_2" fill-rule="evenodd" fill="url(#gradient0)" d="m80.35,306.65l43.6,-8.1l40.15,-6.3l4.25,-10.25l6.35,-8.05l-0.1,-0.3l40.8,-10.95l62.05,1.5l-41.45,28.45l-6.2,19.9l-63.5,12.4q-57.75,-6.5 -85.95,-18.3"/>
   <path id="svg_3" fill-rule="evenodd" fill="#331c19" d="m190.75,45.95l0.9,6.5l-10.45,-3.1l0.1,-0.05l-0.1,0.05l10.45,3.1l-0.9,-6.5l17.25,6.05l0.75,6.35l7.75,7.75l-2.45,-0.8l-50.05,-16.35l-4.05,-1.35l-4.1,-1.3l-11.75,-3.85l-1.6,-0.55l-0.75,-0.2l-2.65,-0.9l-0.05,0l-6.4,-2.1l-6.9,-4.4l0.8,-9.3l0.65,0.2l7.65,2.45l-7.65,-2.45l-0.65,-0.2l-0.8,9.3l6.9,4.4l6.4,2.1l0.05,0l2.65,0.9l0.75,0.2l1.6,0.55l11.75,3.85l4.1,1.3l4.05,1.35l50.05,16.35l2.45,0.8l0.65,18.85l4.95,4.2q2.8,7.1 4.5,19.6l-0.7,0.85q-3.15,3.35 -8.95,5.95l-12.2,1.1l-16.2,-3.6l9.6,-1.15l15.35,-2.15l3.3,-2.15l1.75,-1.15l-0.1,-0.25l-0.4,-1.6l-1.6,-5l-1.4,-3.25q-0.95,-1.9 -1.95,-3.1l-15.1,-4.95l-8.65,-2.8l-26.2,-8.5l-11.1,-3.7l-5.9,2.9l-1.7,2l-9.35,11.1l-4.75,5.6q-23.65,9.05 -47.25,11.85l-4.9,-2.1l-2.5,-1.8l-0.35,-1.95l-0.4,-2.1l0.25,-0.3q1.05,-1.35 2.95,-2.15l6.15,2.05q18.95,-2.2 41.5,-11.75l8.15,-12.05l3.95,-5.85l12.4,-6.15l62.45,20.9l-62.45,-20.9l-12.4,6.15l-3.95,5.85l-8.15,12.05q-22.55,9.55 -41.5,11.75l-6.15,-2.05q-1.9,0.8 -2.95,2.15l-0.25,0.3l0.4,2.1l0.35,1.95l2.5,1.8l4.9,2.1q23.6,-2.8 47.25,-11.85l4.75,-5.6l9.35,-11.1l1.7,-2l5.9,-2.9l11.1,3.7l26.2,8.5l8.65,2.8l15.1,4.95q1,1.2 1.95,3.1l1.4,3.25l1.6,5l0.4,1.6l0.1,0.25l-1.75,1.15l-3.3,2.15l-15.35,2.15l-9.6,1.15l16.2,3.6l7.45,1.55l-0.15,1.35l-0.7,7.95l-7.55,10.05l-6.2,4.25l-6.1,-0.55l3.95,6.5l-1.2,1.7q-12.35,-2.4 -26.7,-4.35q1.05,11.75 1.35,26.05q-1.15,-0.05 -2.1,0.4l-19.95,-17.3q-2.55,12.85 -7.7,28.5l-0.55,-0.05l-0.2,6.45l-0.1,3.75l12.9,1l-0.25,4.15l-1.7,0.85l-0.75,4.5l-10.35,5.8l-0.45,1.1l12.2,1.8l0.25,-0.3q6.8,-6.8 16.45,-6.8l3,0.2q7.7,0.85 13.45,6.6l2.55,3l12.35,2.15l11.45,-17.9l31.5,6.35l0.05,6.75l-0.95,2.2l-0.1,12.3l3,0.55l-0.55,3.4l-19.5,42.65l-9.85,-2.9l-2.5,3.05q-3.7,3.65 -8.35,4.9l-1.9,3.6l0.65,1.55l-1.3,2.8l-31.7,-7.2l-3.3,-5.75l-39.95,44.2l-56.05,-16.8l-0.7,-2.85l-2.2,-4.4l0,0.05l3.9,-3.1l-0.8,-3.25l2.8,-1.85l-12.7,-26.5l2.7,-13.25l12.3,-6.9l-0.95,-15.8l-2.8,-7.85l-10.4,-1.4l-1.55,-5.25l-1.65,-0.2l-1.4,-5.25l12.55,-3.7l-2.6,-14.6l3.15,-7.8l-3.3,-8.25q-2.7,1.55 -5.6,2.85l-0.7,-0.35l-0.75,-0.75l0.7,-33.25l-1,0.9q-19.65,6.1 -42.5,7.35l-0.7,0.05q9.65,-19.05 21.1,-33.5l-35.5,-5.9l0.35,-0.35q15,-14.25 30.15,-23.9l-0.85,-1q-13.1,-15.05 -24.55,-32.6l1.95,-1.7q21,1.95 37.65,5.2l-0.65,-0.9q-3.45,-21.8 -1.6,-43.35l2,-0.5q17.6,11.5 31.15,28.3l13.15,-33.9q1.25,-1.4 2.55,-1.2q9.85,18.55 16,34.5l20.1,-28.15l3.1,-0.75q2.55,11.65 4.35,22l13.5,4.35l0.2,2.15q8.25,-5.75 16.15,-11l2.55,-0.1q-0.95,11.1 -2.45,21.15l14.2,4.4l2.3,0.7l9.45,-3.35m-9.55,3.4l-2.2,-0.75l2.2,0.75m-32.65,-15.2l0.3,2.95l0.2,2.15l8.9,2.8l6.85,2.15l-6.85,-2.15l-8.9,-2.8l-0.2,-2.15l-0.3,-2.95m49.45,54.15l0.1,10.75l3.75,0.95l3.25,-1.2l0,-1.45l0.5,0.15l0,1.3l-0.5,0l0.5,0l0,-1.3l-0.5,-0.15l0,1.45l-3.25,1.2l-3.75,-0.95l-0.1,-10.75m-35.35,-6.05l0,0.1l-1.95,1.85l-1.75,-0.35l0,0.7l-3.25,2.3l-11.2,-3.05l-0.05,-5.6l0.05,5.6l11.2,3.05l3.25,-2.3l0,-0.7l0.05,-2.5l3.65,0.9l0.5,-5.25l-0.5,5.25l-3.65,-0.9l-0.05,2.5l1.75,0.35l1.95,-1.85l0,-0.1m38.4,10.35l0,-0.5l0,0.5m12.2,-8.95l3.9,1.3l-3.9,-1.3m-1.2,35.9l-8.8,-0.5l-38.3,-5.7l-15.45,-1.5q-1.65,0 -12.65,6.65q-6.2,4.35 -13.5,7.1l-14.3,1.65l-12.95,0.75l-1.95,0.1l-10.3,0.2l-6.8,0.05l-6.5,-0.15l-2.65,-0.3l-0.2,-0.05l-0.25,-1.6l-1.8,-11.3l-1.75,-10.75l11.45,-3.3l-11.45,3.3l1.75,10.75l1.8,11.3l0.25,1.6l0.2,0.05l2.65,0.3l6.5,0.15l6.8,-0.05l10.3,-0.2l1.95,-0.1l12.95,-0.75l14.3,-1.65q7.3,-2.75 13.5,-7.1q11,-6.65 12.65,-6.65l15.45,1.5l38.3,5.7l8.8,0.5m1.05,-26.3l-0.2,7.6l-3.6,1.1l-3.7,-1l0,-2.15l0,2.15l3.7,1l3.6,-1.1l0.2,-7.6m-130,13.5l5.7,3.75l41,3.6l11.15,-6.4l4.7,-2.7l0.6,-0.35l1.75,-1l26.15,5.6l5.45,1.15l8.95,2.65l-8.95,-2.65l-5.45,-1.15l-26.15,-5.6l-1.75,1l-0.6,0.35l-4.7,2.7l-11.15,6.4l-41,-3.6l-5.7,-3.75m83.75,32.1l0.5,4l0.2,2.25l-0.2,-2.25l-0.5,-4l-9.05,-1l9.05,1l9.75,1.1l-9.75,-1.1m0.4,27.9q-2.2,-11.55 -6.15,-21l-3.35,1.25l-2.95,-6.4l4,-0.6l-1,-2.15l1,2.15l-4,0.6l2.95,6.4l3.35,-1.25q3.95,9.45 6.15,21m24.7,-21.4l-3.85,-4.4l3.4,0.3l-3.4,-0.3l3.85,4.4m24.85,-37.75q-6.35,2.1 -30.45,2.1l-12.2,-0.45l12.2,0.45q24.1,0 30.45,-2.1m-121.45,-53.15l0,-6.65l0,-0.1l-0.45,-6.1l4.7,1.5l-0.5,-12.3l-4.8,1.6l-3.05,-24.6l3.05,24.6l4.8,-1.6l0.5,12.3l-4.7,-1.5l0.45,6.1l0,0.1l0,6.65l14.35,-11.75l-14.35,11.75l-1,0.85l1,-0.85m33.1,-40.15l-1.25,10.9l1.25,-10.9m2.05,-8.65l-1.4,2l1.4,-2m64.95,142.1l-28.1,-4.9l28.1,4.9m-18.85,-7.8l11.5,1l-11.5,-1m-69.3,-105.4l1.2,3.15l1.2,3.5l0,1.5l0,-1.5l-1.2,-3.5l-1.2,-3.15m7.7,2.75l-4.55,4.75l-0.75,0.65l0.75,-0.65l4.55,-4.75m-19.65,10.5l-1,7.5l-0.55,4.3l-1.4,10.35l-7.6,1.05l-0.7,0.15l-3.95,1l-5.15,1.65l-3.2,1.15l-1.45,0l-12.45,-0.05l0.55,-14.5l0.9,-0.85l2,-1.7q4.65,-3.5 8.3,-2.1q1.45,0.55 2.75,1.9l0.05,-8.7l7.35,-4.85l0.1,0l15.45,3.6l-15.45,-3.6l-0.1,0l-7.35,4.85l-0.05,8.7q-1.3,-1.35 -2.75,-1.9q-3.65,-1.4 -8.3,2.1l-2,1.7l-0.9,0.85l-0.55,14.5l12.45,0.05l1.45,0l3.2,-1.15l5.15,-1.65l3.95,-1l0.7,-0.15l7.6,-1.05l1.4,-10.35l0.55,-4.3l1,-7.5m-20.35,26l-0.8,4.3l-0.15,1.35q-0.5,5.95 0.75,10.3q1.3,4.35 3.65,4.6q2.35,0.15 4.35,-3.9q2,-4.05 2.55,-10q0.45,-5.4 -0.55,-9.45q1,4.05 0.55,9.45q-0.55,5.95 -2.55,10q-2,4.05 -4.35,3.9q-2.35,-0.25 -3.65,-4.6q-1.25,-4.35 -0.75,-10.3l0.15,-1.35l0.8,-4.3m40.3,-36.85l11.25,-11.95l-11.25,11.95m18.65,37.65l-0.2,-14.25l-1.1,-21.65l1.1,21.65l0.2,14.25m14.15,6.8l0,0.05l0.1,-0.05l-0.1,0l0.1,0l-0.1,0.05l0,-0.05m-13,7.9l3.65,4.05l2.2,14.35l-2.2,-14.35l-3.65,-4.05m-41.3,-29.7l8.1,-2.9l0.25,18.9l20.8,-12.7l-1.2,-26.45l-11.3,5.6l11.3,-5.6l1.2,26.45l-20.8,12.7l-0.25,-18.9l-8.1,2.9m-36.65,26.1l-1.1,-0.05q-10.95,2 -24.6,-2.8l-0.95,-1.15l0.95,1.15q13.65,4.8 24.6,2.8l-0.4,-0.05l-3.45,-0.3l-10.35,-1.55l-8.8,-1.95l-1.5,-0.35l-0.1,-0.15l-0.25,-0.35l0.25,0.35l0.1,0.15l1.5,0.35l8.8,1.95l10.35,1.55l3.45,0.3l0.4,0.05l1.1,0.05m-12.45,-34.1l2.85,0.55l3.45,0.8l0.35,0.25q4.75,2.9 8,6.35q-3.25,-3.45 -8,-6.35l-0.35,-0.25l-3.45,-0.8l-2.85,-0.55m36.05,2.45l0.1,-3.75l-0.1,3.75m-68.3,-4.85l26.15,16.5l1.2,-5.35l10.1,6.75l-3.7,3.55l14.7,8.05l-14.7,-8.05l3.7,-3.55l-10.1,-6.75l-1.2,5.35l-26.15,-16.5m48.15,44.95l-18.7,3.6l0.65,-5.25l-11.2,2l1.85,4.3q-13.3,3.35 -28.65,5.85q15.35,-2.5 28.65,-5.85l-1.85,-4.3l11.2,-2l-0.65,5.25l18.7,-3.6m9.05,-38.4l-3.85,-8.85l5.45,-0.65q-1.95,-6.15 -5.35,-11.35l-4.05,4.4l-15.05,-28.7l15.05,28.7l4.05,-4.4q3.4,5.2 5.35,11.35l-5.45,0.65l3.85,8.85m7.95,-18.3l0.15,0.35l0.8,1.9l1.35,4.4l-1.35,-4.4l-0.8,-1.9l-0.15,-0.35l-0.15,-0.35l-0.5,-0.55l0.5,0.55l0.15,0.35l0.3,-0.75l-0.3,0.75m-1.05,-1.3l-0.95,-1l0.95,1m-6.2,38.8l-1.85,1.55l-4.65,27.4l0.05,0.3l-0.05,-0.3l4.65,-27.4l1.85,-1.55m-11,96.45l0.15,-1.1l-0.15,1.1m5.6,-2.85q7.6,-4.25 13.8,-10.1q4.6,-4.45 8.45,-9.75l0.9,4.15q3,14.25 3.9,25.55l0.3,5.6l2.2,1.45l3.95,-3.05l4,-3.45l2.9,-2.85l4.15,-4.85l0.15,-0.15l2.65,-3.6l0.7,-1.1l0.7,-1.15q3.5,-5.6 5.8,-11.85q7.65,10.3 12.95,20.1l3.55,6.95l0.9,2l1.7,0.25l-1.7,-0.25l-0.9,-2l-3.55,-6.95q-5.3,-9.8 -12.95,-20.1q-2.3,6.25 -5.8,11.85l-0.7,1.15l-0.7,1.1l-2.65,3.6l-0.15,0.15l-4.15,4.85l-2.9,2.85l-4,3.45l-3.95,3.05l-2.2,-1.45l-0.3,-5.6q-0.9,-11.3 -3.9,-25.55l-0.9,-4.15q-3.85,5.3 -8.45,9.75q-6.2,5.85 -13.8,10.1m-29.45,-56.7l0.65,0.1l0.2,0.05l6.95,1.1q10.45,-4.65 16.9,-11l1.25,-1.35l1.15,-1.35l0.6,-0.7l-0.6,0.7l-1.15,1.35l-1.25,1.35q-6.45,6.35 -16.9,11l-6.95,-1.1l-0.2,-0.05q-11.75,16.4 -19.95,31.35l-1.1,2l1.1,-2q8.2,-14.95 19.95,-31.35l-0.65,-0.1m27.95,54.15l0.3,-0.4q6.85,-8.3 10.85,-15.1l2.55,-4.8l0.3,-0.55l-4.8,-0.95l4.35,-7.8l3.05,3.5l0.8,-2.05l1.95,-5.8l0.7,-2.45l-0.7,2.45l-1.95,5.8l-0.8,2.05l-3.05,-3.5l-4.35,7.8l4.8,0.95l-0.3,0.55l-2.55,4.8q-4,6.8 -10.85,15.1l-0.3,0.4m-4.85,-28.95l2.2,-2.3l4.4,-5.25l1.15,-1.6l0.55,-0.8l0.55,-0.85l-0.55,0.85l-0.55,0.8l-1.15,1.6l-4.4,5.25l-2.2,2.3m4,-37.65l-0.95,0.95q-7.05,6.55 -17.55,11.6l-43.75,-6.35l43.75,6.35q10.5,-5.05 17.55,-11.6l0.95,-0.95m-40.6,41.65q11.35,-3.6 22.45,-10.3l-4.05,-3l8.65,-5.35l1.1,4.8q7.65,-4.45 13,-9.7l2.5,-2.55l-2.5,2.55q-5.35,5.25 -13,9.7l-1.1,-4.8l-8.65,5.35l4.05,3q-11.1,6.7 -22.45,10.3m99.8,-7.2l12.45,1.4l-12.45,-1.4l-0.35,0.8q1.1,3.45 0.25,9l-0.45,2.35l-0.65,2.65l-0.3,2.5q7.7,10.05 13.7,21.2l3.75,7.45l0.05,0.05l0.85,1.85l0.5,1.05l-0.5,-1.05l-0.85,-1.85l-0.05,-0.05l-3.75,-7.45q-6,-11.15 -13.7,-21.2l0.3,-2.5l0.65,-2.65l0.45,-2.35q0.85,-5.55 -0.25,-9l0.35,-0.8l-0.55,-0.05l0.55,0.05m24.45,-29.2l-0.6,0.35l0.6,-0.35m-12,30.6q1.85,4.8 2.65,8.95l0.05,0.1l-4.75,-0.6l2.4,10.6l3.85,-2.95l0,0.05l0.45,4.1q1.3,13.55 0.25,20.35q1.05,-6.8 -0.25,-20.35l-0.45,-4.1l0,-0.05l-3.85,2.95l-2.4,-10.6l4.75,0.6l-0.05,-0.1q-0.8,-4.15 -2.65,-8.95l10.5,1.15l13.05,1.45l-13.05,-1.45l-10.5,-1.15m-44.9,15.95l-0.9,-4l0.05,-0.05l3,-3.5l0.3,-1.15l0.6,-2.1l1.15,-5.8l0.45,-3.8l-0.45,3.8l-1.15,5.8l-0.6,2.1l-0.3,1.15l-3,3.5l-0.05,0.05l0.9,4m79.55,19.95l-21.3,-20.85l0.55,-3.95q-1.05,-5.7 -3.4,-9.95q2.35,4.25 3.4,9.95l-0.55,3.95l21.3,20.85m-98.35,-42.95l12.95,1.4l10.5,1.2l-10.5,-1.2l-12.95,-1.4m27.25,52.2l0.75,-1.25l0.2,-0.35q2.5,-4.25 4.35,-9l1.7,-4.95l1.6,-6.35l1,-5.85l-4.65,1.35l1.55,-10.1l3.9,2.05l0.6,-13.55l-0.6,13.55l-3.9,-2.05l-1.55,10.1l4.65,-1.35l-1,5.85l-1.6,6.35l-1.7,4.95q-1.85,4.75 -4.35,9l-0.2,0.35l-0.75,1.25m-3.8,-49.6l14.8,1.6l12.45,1.4l-12.45,-1.4l-14.8,-1.6m27.25,3l0.2,0.85l-0.2,-0.85m-34.05,14.9l1.25,-1.5l-1.25,1.5m51.05,44.2l0.05,0l-0.05,0l0,2.5l-24.75,10.65l24.75,-10.65l0,-2.5l0.15,-3.75l-0.15,3.75m9.35,-42.6l-0.75,3.95l0.75,-3.95m-27.3,0.85q-0.3,1.5 -0.8,2.25q0.5,-0.75 0.8,-2.25m-22.25,35.65l-32.95,-2.2l32.95,2.2m-28.1,54.65l4,-2.35l-0.05,-0.45l0.05,0.45l0.1,1.75l-0.1,-1.75l-4,2.35q0.35,1.55 1.05,3.25l45.2,7.45l25.05,-20.75l0.35,-3.1l-3.5,-0.55l0.1,1.75l-0.1,-1.75l3.5,0.55l-0.35,3.1l-25.05,20.75l-45.2,-7.45q-0.7,-1.7 -1.05,-3.25l45.9,6.9l-45.9,-6.9m-2.25,-42.25l0.5,2.9l-0.5,-2.9m58.5,94.5l-0.3,0.3l0.3,-0.3m-3.75,3.65l-1.05,1l-3.05,-26.8l2.05,-14.2l-2.05,14.2l3.05,26.8l1.05,-1m-7.45,-76.55l-0.95,0l0.95,0m22.8,5.15l0.3,1.8l-0.3,-1.8m-0.1,-15.65l-1.6,4.05l1.65,11.25l-1.65,-11.25l1.6,-4.05m-11.05,92.5l-3.75,3.95l0,-5.55l0,5.55l3.75,-3.95m-2,14.7l-0.6,-3.9l0,-4l3.35,-3.65l-3.35,3.65l0,4l0.6,3.9m-52.45,-30.8l-0.6,-1.4l0.6,1.4m-2.3,5.7l-0.3,-2l0.3,2m46.65,-82.9l-61.4,-6.6l61.4,6.6m3.85,47.85l-58.8,-11.8l58.8,11.8m3.65,52.25l-58.35,-16.1l58.35,16.1m-1.8,-8.6l-53.45,-13.85l53.45,13.85m79.9,-22.7l11.4,-21.75l-2.95,-9.8l-8.6,-29.05l-4.05,-0.75l4.05,0.75l8.6,29.05l0.4,0.35q5,5.4 5,12.9q0,5.8 -3,10.35q3,-4.55 3,-10.35q0,-7.5 -5,-12.9l-0.4,-0.35l2.95,9.8l-11.4,21.75m-31.15,-27.45l0.25,-1.75l3.4,-26.65l-1.1,-6.9l-23.65,-3.45l23.65,3.45l1.1,6.9l-3.4,26.65l2.35,0.7l0,0.7l1.7,-0.6q4.25,-1.7 7.75,-5.2q6.8,-6.8 6.8,-16.45q0,-3.05 -0.65,-5.8l-1.3,-3.7q-0.95,-2.1 -2.3,-3.95q1.35,1.85 2.3,3.95l1.3,3.7q0.65,2.75 0.65,5.8q0,9.65 -6.8,16.45q-3.5,3.5 -7.75,5.2l-1.7,0.6l0,-0.7l-2.35,-0.7l-0.25,1.75m-6.4,22.45l11.85,-13.1l-0.25,-3.8l0.6,-3.5l0.05,-0.4l0,-0.05l-3.25,-0.95l0.05,2.1l-0.05,-2.1l0,-1l0,1l3.25,0.95l0,0.05l-0.05,0.4l-0.6,3.5l0.25,3.8l-11.85,13.1m75.3,-46.65l-0.4,3.85l0.4,-3.85m-50.55,-141.15l-50.6,7.85l50.6,-7.85m-22.1,-62.45l-18.4,14.05l18.4,-14.05m-2.75,5.8l-6.55,13.2l6.55,-13.2"/>
   <path id="svg_4" stroke-width="4.5" stroke-linejoin="round" stroke-linecap="round" stroke="#331c19" fill="none" d="m148.55,34.15q8.25,-5.75 16.15,-11l2.55,-0.1q-0.95,11.1 -2.45,21.15m32.8,97.6l-6.1,-0.55l3.95,6.5l-1.2,1.7q-12.35,-2.4 -26.7,-4.35q1.05,11.75 1.35,26.05q-1.15,-0.05 -2.1,0.4l-19.95,-17.3q-2.55,12.85 -7.7,28.5l-0.55,-0.05l-0.2,6.45m-0.1,3.75l12.9,1l-0.25,4.15l-1.7,0.85l-0.75,4.5l-10.35,5.8l-0.45,1.1l12.2,1.8l0.25,-0.3q6.8,-6.8 16.45,-6.8l3,0.2q7.7,0.85 13.45,6.6l2.55,3l12.35,2.15l11.45,-17.9l31.5,6.35l0.05,6.75l-0.95,2.2l-0.1,12.3l3,0.55l-0.55,3.4l-19.5,42.65l-9.85,-2.9l-2.5,3.05q-3.7,3.65 -8.35,4.9l-1.9,3.6l0.65,1.55l-1.3,2.8l-31.7,-7.2l-3.3,-5.75l-39.95,44.2l-56.05,-16.8l-0.7,-2.85l-2.2,-4.4l0,0.05l3.9,-3.1l-0.8,-3.25l2.8,-1.85l-12.7,-26.5l2.7,-13.25l12.3,-6.9l-0.95,-15.8l-2.8,-7.85l-10.4,-1.4l-1.55,-5.25l-1.65,-0.2l-1.4,-5.25l12.55,-3.7l-2.6,-14.6l3.15,-7.8l-3.3,-8.25q-2.7,1.55 -5.6,2.85l-0.7,-0.35l-0.75,-0.75l0.7,-33.25l-1,0.9q-19.65,6.1 -42.5,7.35l-0.7,0.05q9.65,-19.05 21.1,-33.5l-35.5,-5.9l0.35,-0.35q15,-14.25 30.15,-23.9l-0.85,-1q-13.1,-15.05 -24.55,-32.6l1.95,-1.7q21,1.95 37.65,5.2l-0.65,-0.9q-3.45,-21.8 -1.6,-43.35l2,-0.5q17.6,11.5 31.15,28.3l13.15,-33.9q1.25,-1.4 2.55,-1.2q9.85,18.55 16,34.5l20.1,-28.15l3.1,-0.75q2.55,11.65 4.35,22m32.7,117.45l-0.2,-2.25l-0.5,-4m-9.05,-1l1,2.15l-4,0.6l2.95,6.4l3.35,-1.25q3.95,9.45 6.15,21m24.25,-25.5l-3.4,-0.3l3.85,4.4m-3.85,-4.4l-11.5,-1m-9.25,2.9l28.1,4.9m-66.35,-140.1l1.4,-2m-3.3,19.55l1.25,-10.9m-37.2,-6.5l3.05,24.6l4.8,-1.6l0.5,12.3l-4.7,-1.5l0.45,6.1l0,0.1l0,6.65m14.35,-11.75l0,-1.5l-1.2,-3.5l-1.2,-3.15m-11.95,13.15l-15.45,-3.6l-0.1,0l-7.35,4.85l-0.05,8.7q-1.3,-1.35 -2.75,-1.9q-3.65,-1.4 -8.3,2.1l-2,1.7l-0.9,0.85l-0.55,14.5l12.45,0.05l1.45,0l3.2,-1.15l5.15,-1.65l3.95,-1l0.7,-0.15l7.6,-1.05l1.4,-10.35l0.55,-4.3l1,-7.5m-10.55,23.2q1,4.05 0.55,9.45q-0.55,5.95 -2.55,10q-2,4.05 -4.35,3.9q-2.35,-0.25 -3.65,-4.6q-1.25,-4.35 -0.75,-10.3l0.15,-1.35l0.8,-4.3m0.6,-38.65l0.95,1m0.4,0.4l0.5,0.55l0.15,0.35l0.3,-0.75m2,7.4l-1.35,-4.4l-0.8,-1.9l-0.15,-0.35m-30.8,-26.85l15.05,28.7l4.05,-4.4q3.4,5.2 5.35,11.35l-5.45,0.65l3.85,8.85m-65.1,48.9q15.35,-2.5 28.65,-5.85l-1.85,-4.3l11.2,-2l-0.65,5.25l18.7,-3.6m-30.1,-12.45l0.95,1.15q13.65,4.8 24.6,2.8l-0.4,-0.05l-3.45,-0.3l-10.35,-1.55l-8.8,-1.95l-1.5,-0.35l-0.1,-0.15l-0.25,-0.35m29.7,-2.25l-14.7,-8.05l3.7,-3.55l-10.1,-6.75l-1.2,5.35l-26.15,-16.5m68.4,1.1l-0.1,3.75m-21.4,5.5q-3.25,-3.45 -8,-6.35l-0.35,-0.25l-3.45,-0.8l-2.85,-0.55m11.35,34.05l1.1,0.05m8.5,29.25l-2.5,2.55q-5.35,5.25 -13,9.7l-1.1,-4.8l-8.65,5.35l4.05,3q-11.1,6.7 -22.45,10.3m41.2,-42.35l-0.6,0.7l-1.15,1.35l-1.25,1.35q-6.45,6.35 -16.9,11l-6.95,-1.1l-0.2,-0.05q-11.75,16.4 -19.95,31.35l-1.1,2m-14.75,-39.7l43.75,6.35q10.5,-5.05 17.55,-11.6l0.95,-0.95m4.85,26.85l-0.55,0.85l-0.55,0.8l-1.15,1.6l-4.4,5.25l-2.2,2.3m24.9,-7.45l-0.7,2.45l-1.95,5.8l-0.8,2.05l-3.05,-3.5l-4.35,7.8l4.8,0.95l-0.3,0.55l-2.55,4.8q-4,6.8 -10.85,15.1l-0.3,0.4m-27.3,-54.05l-0.65,-0.1m103.1,70.85l-1.7,-0.25l-0.9,-2l-3.55,-6.95q-5.3,-9.8 -12.95,-20.1q-2.3,6.25 -5.8,11.85l-0.7,1.15l-0.7,1.1l-2.65,3.6l-0.15,0.15l-4.15,4.85l-2.9,2.85l-4,3.45l-3.95,3.05l-2.2,-1.45l-0.3,-5.6q-0.9,-11.3 -3.9,-25.55l-0.9,-4.15q-3.85,5.3 -8.45,9.75q-6.2,5.85 -13.8,10.1m-5.45,1.75l-0.15,1.1m62.45,-37.55l-0.35,0.8q1.1,3.45 0.25,9l-0.45,2.35l-0.65,2.65l-0.3,2.5q7.7,10.05 13.7,21.2l3.75,7.45l0.05,0.05l0.85,1.85l0.5,1.05m0,-6.9q1.05,-6.8 -0.25,-20.35l-0.45,-4.1l0,-0.05l-3.85,2.95l-2.4,-10.6l4.75,0.6l-0.05,-0.1q-0.8,-4.15 -2.65,-8.95m10.5,1.15q2.35,4.25 3.4,9.95l-0.55,3.95l21.3,20.85m-74.9,-40.35l-0.45,3.8l-1.15,5.8l-0.6,2.1l-0.3,1.15l-3,3.5l-0.05,0.05l0.9,4m19.45,-18.8l-0.6,13.55l-3.9,-2.05l-1.55,10.1l4.65,-1.35l-1,5.85l-1.6,6.35l-1.7,4.95q-1.85,4.75 -4.35,9l-0.2,0.35l-0.75,1.25m23.65,-45.75l-0.2,-0.85m-1.75,19.6q0.5,-0.75 0.8,-2.25m26.55,3.1l0.75,-3.95m-34.1,55.75l24.75,-10.65l0,-2.5l0.15,-3.75m-0.1,3.75l-0.05,0m-49.8,-45.7l-1.25,1.5m50.55,76.9l-1.65,-11.25l1.6,-4.05m-67.75,31.15q0.35,1.55 1.05,3.25l45.2,7.45l25.05,-20.75l0.35,-3.1l-3.5,-0.55l0.1,1.75m-0.1,-1.75l-0.3,-1.8m-23.75,-5.15l0.95,0m5.4,36.55l-2.05,14.2l3.05,26.8l1.05,-1m3.45,-3.35l0.3,-0.3m-58,-91.6l-0.5,-2.9m6.2,39.45l0.05,0.45l0.1,1.75m-0.1,-1.75l-4,2.35m-0.35,48.95l0.3,2m1.7,-7.1l0.6,1.4m55.2,19.25l-3.35,3.65l0,4l0.6,3.9m-1.75,-16.3l0,5.55l3.75,-3.95m112.85,-72.3l0.4,-3.85m-41.95,-9.7l4.05,0.75l8.6,29.05l0.4,0.35q5,5.4 5,12.9q0,5.8 -3,10.35m-63.1,-58.25l23.65,3.45l1.1,6.9l-3.4,26.65l2.35,0.7l0,0.7l1.7,-0.6q4.25,-1.7 7.75,-5.2q6.8,-6.8 6.8,-16.45q0,-3.05 -0.65,-5.8l-1.3,-3.7q-0.95,-2.1 -2.3,-3.95m-11.95,38.8l-0.05,-2.1l0,-1m0,1l3.25,0.95l0,0.05l-0.05,0.4l-0.6,3.5l0.25,3.8l-11.85,13.1m6.65,-24.2l-0.25,1.75m39.6,-4.1l2.95,9.8l-11.4,21.75m-44.2,-236.25l6.55,-13.2m-15.65,8.25l18.4,-14.05"/>
   <path id="svg_5" stroke-width="4.5" stroke-linejoin="round" stroke-linecap="round" stroke="#331c19" fill="none" d="m181.3,49.3l-0.1,0.05l10.45,3.1l-0.9,-6.5l-9.45,3.35m-2.3,-0.7l2.2,0.75m-16.4,-5.15l14.2,4.4m-14.2,-4.4l-6.85,-2.15l-8.9,-2.8l-0.2,-2.15l-0.3,-2.95l-0.2,-2.15l-13.5,-4.35l-7.65,-2.45l-0.65,-0.2l-0.8,9.3l6.9,4.4l6.4,2.1l0.05,0l2.65,0.9l0.75,0.2l1.6,0.55l11.75,3.85l4.1,1.3l4.05,1.35l50.05,16.35l2.45,0.8l-7.75,-7.75l-0.75,-6.35l-17.25,-6.05m22,37.55l-62.45,-20.9l-12.4,6.15l-3.95,5.85l-8.15,12.05q-22.55,9.55 -41.5,11.75l-6.15,-2.05q-1.9,0.8 -2.95,2.15l-0.25,0.3l0.4,2.1l0.35,1.95l2.5,1.8l4.9,2.1q23.6,-2.8 47.25,-11.85l4.75,-5.6l9.35,-11.1l1.7,-2l5.9,-2.9l11.1,3.7l26.2,8.5l8.65,2.8l15.1,4.95q1,1.2 1.95,3.1l1.4,3.25l1.6,5l0.4,1.6l0.1,0.25l-1.75,1.15l-3.3,2.15l-15.35,2.15l-9.6,1.15l16.2,3.6l12.2,-1.1q5.8,-2.6 8.95,-5.95l0.7,-0.85q-1.7,-12.5 -4.5,-19.6l-4.95,-4.2l-3.9,-1.3m-12.2,8.45l0,0.5m-56.6,-14.4l0.05,5.6l11.2,3.05l3.25,-2.3l0,-0.7l0.05,-2.5l3.65,0.9l0.5,-5.25m-4.2,6.85l1.75,0.35l1.95,-1.85l0,-0.1m42.45,16.55l0.5,0l0,-1.3l-0.5,-0.15l0,1.45l-3.25,1.2l-3.75,-0.95l-0.1,-10.75m18.5,-22.2l0.65,18.85m-11.55,13.85l0,2.15l3.7,1l3.6,-1.1l0.2,-7.6m-137.75,7.65l-11.45,3.3l1.75,10.75l1.8,11.3l0.25,1.6l0.2,0.05l2.65,0.3l6.5,0.15l6.8,-0.05l10.3,-0.2l1.95,-0.1l12.95,-0.75l14.3,-1.65q7.3,-2.75 13.5,-7.1q11,-6.65 12.65,-6.65l15.45,1.5l38.3,5.7l8.8,0.5l0.15,-1.35l-7.45,-1.55m7.3,2.9l-0.7,7.95l-7.55,10.05l-6.2,4.25m-9.05,-28.75l-8.95,-2.65l-5.45,-1.15l-26.15,-5.6l-1.75,1l-0.6,0.35l-4.7,2.7l-11.15,6.4l-41,-3.6l-5.7,-3.75m83.75,32.1l-9.05,-1m18.8,2.1l-9.75,-1.1m7.3,-29.6l12.2,0.45q24.1,0 30.45,-2.1m-121.45,-53.15l14.35,-11.75l0.75,-0.65l4.55,-4.75m-20.65,18l1,-0.85m15.1,-12.4l11.3,-5.6l1.2,26.45l-20.8,12.7l-0.25,-18.9l-8.1,2.9m47.15,48.1l-2.2,-14.35l-3.65,-4.05m13,-7.9l0.1,0l-0.1,0.05l0,-0.05m-15.45,-42.7l1.1,21.65l0.2,14.25m-7.4,-49.6l-11.25,11.95m-51.4,67.25l-0.05,-0.3l4.65,-27.4l1.85,-1.55m75.3,30.05l0.6,-0.35m-12,30.6l-12.45,-1.4m12.45,1.4l10.5,1.15l13.05,1.45m-63.8,-7.05l-10.5,-1.2l-12.95,-1.4m50.7,5.6l-12.45,-1.4l-14.8,-1.6m27.25,3l0.55,0.05m-56.7,50.75l32.95,2.2m-28.1,54.65l45.9,6.9m-47.05,38.8l53.45,13.85m-56.55,-7.5l58.35,16.1m-62.45,-64.05l58.8,11.8m-65.25,-54.45l61.4,6.6m22.2,-116.15l50.6,-7.85"/>
   <path id="svg_6" fill-rule="evenodd" fill="url(#gradient1)" d="m240.9,205.4l0.05,6.75l-0.95,2.2l-0.1,12.3l-0.4,3.85l-18.95,38.25l-2.75,-13.3l0.8,-1.7l0.05,-4.8l22.25,-43.55"/>
   <path id="svg_7" fill-rule="evenodd" fill="url(#gradient2)" d="m242.9,227.2l-0.55,3.4l-19.5,42.65l-0.35,-2.25l20.4,-43.8m-5.1,-22.45l3.1,0.65l-22.25,43.55l-32.1,-7.7l8.95,-6.8q24.95,-18.85 32.65,-23.4l9.65,-6.3"/>
   <path id="svg_8" fill-rule="evenodd" fill="url(#gradient3)" d="m183,240.4l26.4,-41.35l28.4,5.7l-9.65,6.3q-7.7,4.55 -32.65,23.4l-8.95,6.8l-3.55,-0.85"/>
   <path id="svg_9" fill-rule="evenodd" fill="url(#gradient4)" d="m239.9,226.65l3,0.55l-20.4,43.8l0.35,2.25l-32,-9.4l-2.25,-2.25l2.7,-3.7l-3.85,-10.35l-1.2,-1.2l-3.25,-5.95l3.55,0.85l32.1,7.7l-0.05,4.8l-0.8,1.7l2.75,13.3l18.95,-38.25l0.4,-3.85m-47.25,34.7l-1.35,-3.45l1.35,3.45"/>
   <path id="svg_10" stroke-width="0.05" stroke-linejoin="round" stroke-linecap="round" stroke="#9e6b53" fill="none" d="m191.3,257.9l-3.85,-10.35l-1.2,-1.2l-3.25,-5.95l3.55,0.85m52.95,-10.75l0.4,-3.85m-48.6,31.25l1.35,3.45"/>
   <path id="svg_11" stroke-width="0.05" stroke-linejoin="round" stroke-linecap="round" stroke="#744e3f" fill="none" d="m240.9,205.4l0.05,6.75l-0.95,2.2l-0.1,12.3l3,0.55l-0.55,3.4l-19.5,42.65l-32,-9.4l-2.25,-2.25l2.7,-3.7m-8.3,-17.5l26.4,-41.35l28.4,5.7l3.1,0.65"/>
   <path id="svg_12" fill-rule="evenodd" fill="url(#gradient5)" d="m197.1,241.05q7.85,0 13.4,5.55q5.5,5.55 5.5,13.4q0,7.85 -5.5,13.4q-5.55,5.5 -13.4,5.55q-7.9,-0.05 -13.4,-5.55q-5.55,-5.55 -5.55,-13.4q0,-7.85 5.55,-13.4q5.5,-5.55 13.4,-5.55"/>
   <path id="svg_13" stroke-width="0.05" stroke-linejoin="round" stroke-linecap="round" stroke="#744e3f" fill="none" d="m197.1,241.05q7.85,0 13.4,5.55q5.5,5.55 5.5,13.4q0,7.85 -5.5,13.4q-5.55,5.5 -13.4,5.55q-7.9,-0.05 -13.4,-5.55q-5.55,-5.55 -5.55,-13.4q0,-7.85 5.55,-13.4q5.5,-5.55 13.4,-5.55z"/>
   <path id="svg_14" fill-rule="evenodd" fill="url(#gradient6)" d="m198.4,225.7q-1.55,-0.6 -3.8,-1.3l0,-0.35q0,-2.2 -3.4,-3.9l-0.9,-0.4q-1.8,-1.15 -3.65,-1.15l-0.1,0.05l-5.85,-0.5q-10.45,0 -19.35,12.65q-3,4.3 -5.25,9.15q-1.75,3.95 -1.8,5.05l-2.5,-0.55l10.55,-33.8l39.65,7.05l-3.6,8m-5.3,11.95l0.25,-0.55l-0.25,0.55"/>
   <path id="svg_15" fill-rule="evenodd" fill="url(#gradient7)" d="m154.3,245q0.05,-1.1 1.8,-5.05q2.25,-4.85 5.25,-9.15q8.9,-12.65 19.35,-12.65l5.85,0.5l0.1,-0.05q1.85,0 3.65,1.15l0.9,0.4q3.4,1.7 3.4,3.9l0,0.35q2.25,0.7 3.8,1.3l-5.05,11.4l-0.25,0.55l-6.65,14.9l-32.15,-7.55"/>
   <path id="svg_16" fill-rule="evenodd" fill="url(#gradient8)" d="m198.4,225.7l3.6,-8l11.55,38.85l-13.3,25.35l0.65,1.55l-1.3,2.8l-12.95,-31.15l0.9,-2.3l-1.1,-0.25l6.65,-14.9l0.25,-0.55l5.05,-11.4"/>
   <path id="svg_17" fill-rule="evenodd" fill="url(#gradient9)" d="m149.2,246.7l37.45,8.4l12.95,31.15l-31.7,-7.2l-18.7,-32.35"/>
   <path id="svg_18" fill-rule="evenodd" fill="url(#gradient10)" d="m151.8,244.45l2.5,0.55l32.15,7.55l1.1,0.25l-0.9,2.3l-37.45,-8.4l0.95,-2.65l1.65,0.4"/>
   <path id="svg_19" stroke-width="0.05" stroke-linejoin="round" stroke-linecap="round" stroke="#9e6b53" fill="none" d="m151.8,244.45l2.5,0.55m-2.5,-0.55l-1.65,-0.4l-0.95,2.65"/>
   <path id="svg_20" stroke-width="0.05" stroke-linejoin="round" stroke-linecap="round" stroke="#744e3f" fill="none" d="m202,217.7l-39.65,-7.05l-10.55,33.8m47.8,41.8l-31.7,-7.2l-18.7,-32.35m50.4,39.55l1.3,-2.8l-0.65,-1.55l13.3,-25.35l-11.55,-38.85"/>
   <path id="svg_21" fill-rule="evenodd" fill="url(#gradient11)" d="m143.5,225.5q0.3,0.3 0.75,0.3q0.55,0 1.95,-3.55q1.75,-4.55 3.4,-6.9q1.8,-2.45 6.2,-5.1q6.35,-3.8 12.95,-3.8l2.75,0.15l-0.35,-0.3l-0.7,-0.5l-0.45,-0.35l-0.2,-0.1l-0.05,-0.05l-0.1,-0.05l-0.05,-0.05q7.7,0.85 13.45,6.6q4.65,4.65 6.15,10.65l-1.85,-2.45l-4.75,-6.45q-2.9,-3.25 -7.8,-5.3l-2.1,-0.6l0.25,0.25q5.55,5.55 5.55,13.4q0,7.8 -5.55,13.35q-5.5,5.5 -13.35,5.55q-7.85,-0.05 -13.35,-5.55q-1.6,-1.6 -2.7,-3.35l-0.2,-3.05q0,-1.4 0.15,-2.75"/>
   <path id="svg_22" fill-rule="evenodd" fill="url(#gradient12)" d="m169.6,205.2l0.05,0.05l0.1,0.05l0.05,0.05l0.2,0.1l0.45,0.35l0.7,0.5l0.35,0.3l-2.75,-0.15q-6.6,0 -12.95,3.8q-4.4,2.65 -6.2,5.1q-1.65,2.35 -3.4,6.9q-1.4,3.55 -1.95,3.55q-0.45,0 -0.75,-0.3q0.85,-7.9 6.65,-13.7q6.8,-6.8 16.45,-6.8l3,0.2"/>
   <path id="svg_23" fill-rule="evenodd" fill="url(#gradient13)" d="m143.55,231.3q1.1,1.75 2.7,3.35q5.5,5.5 13.35,5.55q7.85,-0.05 13.35,-5.55q5.55,-5.55 5.55,-13.35q0,-7.85 -5.55,-13.4l-0.25,-0.25l2.1,0.6q4.9,2.05 7.8,5.3l4.75,6.45l1.85,2.45q0.65,2.75 0.65,5.8q0,9.65 -6.8,16.45q-6.8,6.8 -16.45,6.8q-9.65,0 -16.45,-6.8q-5.7,-5.7 -6.6,-13.4"/>
   <path id="svg_24" stroke-width="0.05" stroke-linejoin="round" stroke-linecap="round" stroke="#9e6b53" fill="none" d="m143.5,225.5q-0.15,1.35 -0.15,2.75l0.2,3.05m26.05,-26.1l-3,-0.2q-9.65,0 -16.45,6.8q-5.8,5.8 -6.65,13.7"/>
   <path id="svg_25" stroke-width="0.05" stroke-linejoin="round" stroke-linecap="round" stroke="#744e3f" fill="none" d="m189.2,222.45q-1.5,-6 -6.15,-10.65q-5.75,-5.75 -13.45,-6.6m19.6,17.25q0.65,2.75 0.65,5.8q0,9.65 -6.8,16.45q-6.8,6.8 -16.45,6.8q-9.65,0 -16.45,-6.8q-5.7,-5.7 -6.6,-13.4"/>
   <path id="svg_26" fill-rule="evenodd" fill="url(#gradient14)" d="m92.05,245.55l-1.25,-0.25l1.3,0.25l-0.05,0m80.45,-29.2l-0.55,0q-16.15,2 -29.2,2l-25.7,1.45q-5.45,3.05 -12.75,7.2q-7.7,4.2 -13.45,7.7q-11.1,6.75 -11.1,9.05l0.2,1.2q0.55,1.1 2,1.1l2,-0.5q9.3,2.85 29.1,6.55l11.4,2.1l-4.05,3.15l-58.8,-11.8l58.8,11.8l-2.05,14.2l-59.45,-12.75l2.7,-13.25l65.45,-36.8l46.5,6.8l-1.05,0.8m-56.05,10.55l-0.1,-0.15l0.05,-0.05l0.05,0.2m4.95,71.45l0.3,-0.3l0.5,2.9l0.05,0.05l-53.45,-13.85l2.8,-1.85l0.6,1.4l49.2,11.65m4.5,-4.35l0.3,-0.3l0.05,0l-0.35,0.3m-56.3,-3.6l0.3,2l53,14.35l1,-1.1l0.5,2.45l0.25,0.85l-0.6,0.65l-58.35,-16.1l3.9,-3.1m56.85,7.2l-0.05,0.05l-0.05,-0.15l0.1,0.1"/>
   <path id="svg_27" fill-rule="evenodd" fill="url(#gradient15)" d="m92.05,245.55l0.05,0l-1.3,-0.25l1.25,0.25m32.4,8.65l-11.4,-2.1q-19.8,-3.7 -29.1,-6.55l-2,0.5q-1.45,0 -2,-1.1l-0.2,-1.2q0,-2.3 11.1,-9.05q5.75,-3.5 13.45,-7.7q7.3,-4.15 12.75,-7.2l25.7,-1.45q13.05,0 29.2,-2l0.55,0l-48.05,37.85m-8,-27.3l-0.05,-0.2l-0.05,0.05l0.1,0.15m5.25,71.15l0,-0.05l0.75,-0.65l3.45,-3.35l0.35,-0.3l-0.05,0l44.8,-42.85l0.25,-1.75l2.35,0.7l-47.15,47.8l-0.1,-0.1l0.05,0.15l-3.5,3.55l-0.65,-0.2l-0.05,-0.05l-0.5,-2.9l0.75,-0.7l-0.75,0.7m2.95,10.9l-0.25,-0.85l-0.5,-2.45l2.25,-2.3l0.5,-0.6l0,0.05l47,-49.2l-0.05,-2.1l3.25,0.95l0,0.05l-49.45,53.45l-2.75,3m2,-6.15l-0.5,0.55l0.5,-0.55"/>
   <path id="svg_28" fill-rule="evenodd" fill="url(#gradient16)" d="m172.5,216.35l1.05,-0.8l1.1,6.9l-3.4,26.65l-0.25,1.75l-44.8,42.85l-0.3,0.3l-3.45,3.35l-0.75,0.65l0,0.05l-0.3,0.3l-3.05,-26.8l2.05,-14.2l4.05,-3.15l48.05,-37.85m-49.6,90.4l0,-5.55l3.5,-3.55l0.05,-0.05l47.15,-47.8l0,1.7l0.05,2.1l-47,49.2l0,-0.05l-0.5,0.6l-2.25,2.3l-1,1.1m1.15,2.85l0.6,-0.65l2.75,-3l49.45,-53.45l-0.65,3.9l0.25,3.8l-51.8,57.3l-0.6,-3.9l0,-4"/>
   <path id="svg_29" fill-rule="evenodd" fill="url(#gradient17)" d="m118.35,271.55l3.05,26.8l-49.2,-11.65l-0.6,-1.4l-12.7,-26.5l59.45,12.75"/>
   <path id="svg_30" fill-rule="evenodd" fill="url(#gradient18)" d="m69.9,292.4l-0.3,-2l-0.8,-3.25l53.45,13.85l0.65,0.2l0,5.55l-53,-14.35m-4.2,1.1l58.35,16.1l0,4l0.6,3.9l-56.05,-16.8l-0.7,-2.85l-2.2,-4.4l0,0.05"/>
   <path id="svg_31" stroke-width="0.05" stroke-linejoin="round" stroke-linecap="round" stroke="#9e6b53" fill="none" d="m127.05,208.75l-65.45,36.8m58.8,11.8l-2.05,14.2l3.05,26.8l0.3,-0.3m4.2,-4.05l0.3,-0.3m44.8,-42.85l0.25,-1.75m-101.65,41.3l0.3,2m53,14.35l0,-5.55m-54.1,-14.05l0.8,3.25l-3.9,3.1m58.35,16.1l0.6,-0.65l2.75,-3m-3.5,-0.3l-1,1.1m-51.3,-21.45l0.6,1.4m-0.6,-1.4l-12.7,-26.5l2.7,-13.25m7.2,41.6l2.8,-1.85m53.05,32.2l-56.05,-16.8l-0.7,-2.85l-2.2,-4.4l0,0.05m107.95,-39.9l-0.05,-2.1l0,-1.7m-47.15,47.8l-0.05,0.05m-3.95,-0.3l-0.75,0.7m2.2,7.6l2.25,-2.3l0.5,-0.55m50.2,-50.3l0,-0.05m-52.8,57.15l0,4l0.6,3.9"/>
   <path id="svg_32" stroke-width="0.05" stroke-linejoin="round" stroke-linecap="round" stroke="#f0e7c1" fill="none" d="m61.6,245.55l58.8,11.8m1.85,43.65l-53.45,-13.85m-3.1,6.35l58.35,16.1"/>
   <path id="svg_33" stroke-width="0.05" stroke-linejoin="round" stroke-linecap="round" stroke="#744e3f" fill="none" d="m173.55,215.55l-46.5,-6.8m44.2,40.35l3.4,-26.65l-1.1,-6.9m3.3,36.9l-3.25,-0.95m-48.95,66l51.8,-57.3l-0.25,-3.8l0.65,-3.9m-3.25,-2.7l-2.35,-0.7"/>
   <path id="svg_34" fill-rule="evenodd" fill="url(#gradient19)" d="m59.25,145l12.9,0.5q2.65,5.5 7.25,14.2q7.9,12.85 12.4,18.65l-23.55,-1.55l-9.75,-24.45l0.75,-7.35m52.1,2l0.9,-0.1l1.1,2.85l2.1,5.1q0,1.7 -2.15,12.45l-1.95,12.15l-0.15,0.05l2.9,8.15l-0.5,0.15l1.5,-0.5l-0.7,10.65l0,6.5l-0.05,1.25l-0.85,0.35l-0.35,0l-44.95,-3.95l-0.5,-2.9l-2.6,-14.6l32.95,2.2q-0.7,7.6 -0.7,9.65q0,1.8 1.65,1.8q3.35,0 13.95,-8.3l0.45,-0.35l0,-1.75l-0.45,-1.5l-0.05,0l-2.15,-6.75l0.05,-0.35l3.15,-25.1l-2.6,-7.15m22.7,26.05l-0.15,-0.45q0.45,-1.05 1.75,-6.9l2.3,-11.5q0.3,-2.6 1.45,-6.45l0.7,2.5l-5.2,22.55q1.05,3 3.15,5.85l0.45,0.95l-0.7,0.25l0.9,-0.3l-0.3,9.6l-0.1,3.75l-0.05,0l0,2.5l-0.65,0.3q-0.35,-0.35 -0.4,-1.95l-0.05,-5.2q0,-3.6 0.35,-8.25l0.05,-0.35l0.25,-0.1l-0.05,-0.05l-2.2,-3.6q-1.1,-1.9 -1.5,-3.15m-60.1,66.05l-1,-16.25l-2.45,-6.85q6.5,3 18.1,7.25q6.2,2.65 25.05,12.2l1.4,11.85l-41,-6.45l-0.1,-1.75m30.7,-58.5l0.05,0.05l-0.05,0l0,-0.05m33.75,8.55l-0.15,3.75l0.15,-3.75"/>
   <path id="svg_35" fill-rule="evenodd" fill="url(#gradient20)" d="m72.15,145.5l-12.9,-0.5l25.3,-2.8l53.85,2.05l-26.15,2.65l-0.9,0.1l-39.2,-1.5l39.2,1.5l2.6,7.15l-3.15,25.1l-12.25,-0.45l-6.75,-0.45q-4.5,-5.8 -12.4,-18.65q-4.6,-8.7 -7.25,-14.2m39.2,33.95l22.7,-6.4q0.4,1.25 1.5,3.15l2.2,3.6l-0.2,0.15l-0.15,0.05l-23.3,7.65l-2.9,-8.15l0.15,-0.05m26.7,-0.8l0.65,0.9l-0.9,0.3l0.7,-0.25l-0.45,-0.95m13.15,15.25l-0.25,4.15l-1.7,0.85l-32.5,15.85l-0.2,-5.25l2.65,-1.2l32,-14.4m-9.6,34.4l-0.35,3.1l-25.05,20.75l-0.35,-3.8l0.05,0l25.7,-20.05"/>
   <path id="svg_36" fill-rule="evenodd" fill="url(#gradient21)" d="m112.25,146.9l26.15,-2.65l1,3.5q-1.15,3.85 -1.45,6.45l-2.3,11.5q-1.3,5.85 -1.75,6.9l0.15,0.45l-22.7,6.4l1.95,-12.15q2.15,-10.75 2.15,-12.45l-2.1,-5.1l-1.1,-2.85m25.9,62.3l-2.05,5.15l1.65,11.25l0.05,0.35l-0.05,0l-24.9,2.5l-0.15,-1.15l1.35,-6.5l0.95,0l0.95,0l22.2,-11.6m-24.05,-21.55l23.3,-7.65l0.1,0.3q-0.35,4.65 -0.35,8.25l0.05,5.2q0.05,1.6 0.4,1.95l-23.25,10l0.05,-1.25l0,-6.5l0.7,-10.65l-1.5,0.5l0.5,-0.15"/>
   <path id="svg_37" fill-rule="evenodd" fill="url(#gradient22)" d="m111.35,179.45l-0.15,0.05l0.15,-0.05m26.2,0.5l0.2,-0.15l0.05,0.05l-0.25,0.1"/>
   <path id="svg_38" fill-rule="evenodd" fill="url(#gradient23)" d="m137.8,225.95l0.3,1.8l0.1,1.75l-23.15,17.8l-1.4,-11.85l-0.8,-7l24.9,-2.5l0.05,0m-0.4,-45.95l0.15,-0.05l-0.05,0.35l-0.1,-0.3"/>
   <path id="svg_39" fill-rule="evenodd" fill="url(#gradient24)" d="m68.25,176.8l23.55,1.55l6.75,0.45l-0.1,4.85l-0.2,3.15l-0.2,0l-32.95,-2.2l3.15,-7.8m1.7,64.65l4,-2.35l0.1,1.75l41,6.45l-0.25,0q0.1,0.7 1.1,1.05l-0.05,0l-45.9,-6.9m-14.8,-38.55l12.55,-3.7l0.5,2.9l44.95,3.95q0.05,0.8 3.8,1.75l2.25,0.5l-2.65,1.2l-61.4,-6.6"/>
   <path id="svg_40" fill-rule="evenodd" fill="url(#gradient25)" d="m116.2,252.15l-45.2,-7.45q-0.7,-1.7 -1.05,-3.25l45.9,6.9l0.35,3.8m-58,-43.8l-1.65,-0.2l-1.4,-5.25l61.4,6.6l0.2,5.25l-1.9,-0.2l-56.65,-6.2"/>
   <path id="svg_41" fill-rule="evenodd" fill="url(#gradient26)" d="m138.3,192.9l12.9,1l-32,14.4l-2.25,-0.5q-3.75,-0.95 -3.8,-1.75l0.35,0l0.85,-0.35l23.25,-10l0.65,-0.3l0,-2.5l0.05,0m-0.2,34.85l3.5,0.55l-25.7,20.05q-1,-0.35 -1.1,-1.05l0.25,0l23.15,-17.8l-0.1,-1.75m-67.95,-12.75l-10.4,-1.4l-1.55,-5.25l56.65,6.2l0.15,6.25l-0.95,0l-43.9,-5.8"/>
   <path id="svg_42" fill-rule="evenodd" fill="url(#gradient27)" d="m149.25,198.9l-0.75,4.5l-10.35,5.8l-22.2,11.6l-0.95,0l-0.15,-6.25l1.9,0.2l32.5,-15.85"/>
   <path id="svg_43" fill-rule="evenodd" fill="url(#gradient28)" d="m70.5,216l-0.35,-1l43.9,5.8l-1.35,6.5l0.15,1.15l0.8,7q-18.85,-9.55 -25.05,-12.2q-11.6,-4.25 -18.1,-7.25"/>
   <path id="svg_44" fill-rule="evenodd" fill="url(#gradient29)" d="m98.25,186.8l0.2,-3.15l0.1,-4.85l12.25,0.45l-0.05,0.35l2.15,6.75l0.05,0l0.45,1.5l0,1.75l-0.45,0.35q-10.6,8.3 -13.95,8.3q-1.65,0 -1.65,-1.8q0,-2.05 0.7,-9.65l0.2,0.05l0,-0.05m6.4,-6.2l0,0.05l0.05,0l-0.05,-0.05"/>
   <path id="svg_45" fill-rule="evenodd" fill="url(#gradient30)" d="m98.05,186.8l0.2,0l0,0.05l-0.2,-0.05"/>
   <path id="svg_46" stroke-width="0.05" stroke-linejoin="round" stroke-linecap="round" stroke="#9e6b53" fill="none" d="m59.25,145l12.9,0.5l39.2,1.5l0.9,-0.1l26.15,-2.65l-53.85,-2.05l-25.3,2.8l-0.75,7.35l9.75,24.45l-3.15,7.8m74.3,-36.85l-1,-3.5m1,3.5l0.7,2.5l-5.2,22.55q1.05,3 3.15,5.85l0.65,0.9l-0.3,9.6m-0.1,3.75l12.9,1l-0.25,4.15l-1.7,0.85l-0.75,4.5l-10.35,5.8l-2.05,5.15l1.65,11.25m0.05,0.35l0.3,1.8l3.5,0.55l-0.35,3.1l-25.05,20.75l-45.2,-7.45q-0.7,-1.7 -1.05,-3.25l4,-2.35l-1,-16.25l-2.45,-6.85l-0.35,-1l-10.4,-1.4l-1.55,-5.25l-1.65,-0.2l-1.4,-5.25l12.55,-3.7l-2.6,-14.6m72.5,11.1l0.65,-0.3l0,-2.5l0.15,-3.75m-0.1,3.75l-0.05,0m-24.3,-38.75l-2.6,-7.15m26.85,82.5l-0.1,-1.75m-69.9,-25.65l-0.5,-2.9m46.65,6.5l-0.85,0.35m1.5,14.75l-0.95,0m1.85,27.55l-0.05,0m-41.9,-9.25l0.1,1.75m63.55,-45.15l-23.25,10"/>
   <path id="svg_47" stroke-width="0.05" stroke-linejoin="round" stroke-linecap="round" stroke="#f0e7c1" fill="none" d="m65.1,184.6l32.95,2.2m17.8,61.55l-45.9,-6.9m-14.8,-38.55l61.4,6.6"/>
   <path id="svg_48" fill-rule="evenodd" fill="url(#gradient31)" d="m134.8,192.75l-17.7,7.5l0,-9.25l18.15,-6.2l-0.45,7.95m-2.8,33.95l-4.2,0.6l-7.65,0.65l-3.5,0.45l-0.05,0.05l-0.25,-1.6l17.75,-9.1l0.85,6.9l-2.95,2.05"/>
   <path id="svg_49" fill-rule="evenodd" fill="url(#gradient32)" d="m116.6,228.45l0.05,-0.05l3.5,-0.45l7.65,-0.65l4.2,-0.6l-14.2,9.65l-1.2,-7.9"/>
   <path id="svg_50" fill-rule="evenodd" fill="url(#gradient33)" d="m107.3,34.55l1.2,3.15l20.6,-30.05l0.5,13.55q0,5.9 -0.85,11.7l-0.6,2.5l-0.75,3.65l-2.35,-0.25q2.25,-12.4 3.4,-24.5q-1.15,12.1 -3.4,24.5l2.35,0.25q-0.8,4.2 -1.65,9.8l-0.3,1.35l-1.1,-0.4l-1.3,3.2l-2.3,4.9l-0.15,0.55l-0.1,0.4l0.25,-0.9l-2.2,4.45l-0.05,0.15l0.6,-0.45l-53.6,42l0.4,6.45l0.1,2.65l0.05,1.25l-0.05,0.1l0,11.85q-2.75,3.95 -6.2,7.3q-2,2.05 -12.45,4.75l-14.75,3.5l-9.55,1.1l-6.85,0.25q8.2,-14.95 19.95,-31.35l0.2,0.05l6.95,1.1q10.45,-4.65 16.9,-11l1.25,-1.35l1.15,-1.35l-0.95,0.95q-7.05,6.55 -17.55,11.6l-43.75,-6.35q15,-14.25 30.15,-23.9l0.95,1.15q13.65,4.8 24.6,2.8l-0.4,-0.05l-3.45,-0.3l-10.35,-1.55l-8.8,-1.95l8.8,1.95l-0.7,-0.1q-3.9,-0.45 -7.4,-1.65l-0.05,0l-0.65,-0.2l-1.5,-0.35l-0.1,-0.15l-0.25,-0.35q-12.15,-16.6 -24.15,-34.55q21,1.95 37.65,5.2l2.85,0.55l3.45,0.8l0.35,0.25l-0.35,-0.25l-3.45,-0.8q-3.65,-18.5 -3.1,-45.3q17.6,11.5 31.15,28.3l0.95,1l-0.1,0.3q0,0.7 2.1,3.25q3.65,9.7 1.55,17.9l2.35,3.5l-0.05,0.05l0,0.5q0.1,0.5 0.5,0.5l0.3,-0.1q1.3,-0.85 1.45,-10.05l-0.1,-3.7q-0.2,-1.4 -1.65,-4.3q-3.05,-6.2 -4.9,-7.6l13.3,-36.35q9.85,18.55 16,34.5m13.45,23.35l2.05,-8.65l1.55,0.55l-1.55,-0.55l-2.05,8.65m16.35,-15.7l0.2,-0.15l0.35,3.55l0.15,1.85l-0.05,0.05l-0.2,-1.85l0.1,-0.05l-0.1,0.05l-0.45,-3.45m4.7,-3.35l22.9,-15.7l2.55,-0.1l-25.5,19.4l0.05,-3.6m-36.45,137.25q-4.85,5 -10.85,9.35q-1.3,-16.55 -5.15,-34.25l1.05,-1.5l6.55,8.9q3.95,5.55 5.55,9.6l0.6,1.6l2.25,6.3m-31.5,-108q-2.45,-9.2 -8.05,-21.2l5.45,-0.65q-1.95,-6.15 -5.35,-11.35l-4.05,4.4l-15.05,-28.7l15.05,28.7l4.05,-4.4q3.4,5.2 5.35,11.35l-5.45,0.65q5.6,12 8.05,21.2m-8.15,1.3l0.95,0.9l1.95,0.55q1.35,0 1.3,-1.05q-0.1,-1.1 -1.9,-4.35q-1.8,-3.25 -3.25,-4.9q-1.5,-1.7 -6.75,-4.7q-5,-2.85 -5.7,-2.85l-0.95,0.2q10.35,6.35 13.65,15.25l0.7,0.95m29.15,-7.85q1.1,-10.25 0.05,-19.95l4.7,1.5l-0.5,-12.3l-4.8,1.6l-3.05,-24.6l3.05,24.6l4.8,-1.6l0.5,12.3l-4.7,-1.5q1.05,9.7 -0.05,19.95m-15.15,-2.7l0.4,-1.25l-0.4,1.25m23.25,3.15l2.3,-3.1q4.5,-7.1 4.45,-17.7l-1.2,-3.5l1.2,3.5q0.05,10.6 -4.45,17.7q0.95,3 2.3,5.7q-1.35,-2.7 -2.3,-5.7l-2.3,3.1m-19.25,0.7l-0.5,-0.65l0.5,0.65m-26.55,23l-1.1,-0.05l1.1,0.05m-44.7,-36.5l26.15,16.5l1.2,-5.35l10.1,6.75l-3.7,3.55l14.7,8.05l-14.7,-8.05l3.7,-3.55l-10.1,-6.75l-1.2,5.35l-26.15,-16.5m48.15,44.95l-18.7,3.6l0.65,-5.25l-11.2,2l1.85,4.3q-13.3,3.35 -28.65,5.85q15.35,-2.5 28.65,-5.85l-1.85,-4.3l11.2,-2l-0.65,5.25l18.7,-3.6m-38.6,46.9q11.35,-3.6 22.45,-10.3l-4.05,-3l8.65,-5.35l1.1,4.8q7.65,-4.45 13,-9.7l2.85,-2.95l-2.85,2.95q-5.35,5.25 -13,9.7l-1.1,-4.8l-8.65,5.35l4.05,3q-11.1,6.7 -22.45,10.3m41.2,-42.35l-0.6,0.7l0.6,-0.7m-5.9,11.8l0.15,0.05l0.05,-0.2l-0.2,0.15m7.9,19q1.45,-0.5 7.2,2.05q5.7,2.5 8.45,6.3l6,7.2q-4.45,6.15 -11.3,13.55l-9.7,6.75q-4.1,2.95 -6.35,4.95q2.15,-15.85 1.3,-35.55l4.4,-5.25m-1.75,36.5q9.9,-11.95 14,-20.85l-4.8,-0.95l4.35,-7.8l3.05,3.5l0.8,-2.05l-0.8,2.05l-3.05,-3.5l-4.35,7.8l4.8,0.95q-4.1,8.9 -14,20.85m34.35,14.4q3.1,-4.95 5.3,-10.6q-2.2,5.65 -5.3,10.6"/>
   <path id="svg_51" fill-rule="evenodd" fill="url(#gradient34)" d="m129.1,7.65l1.4,-2q4.45,20.15 6.6,36.45l0,0.1l0.45,3.45l0.2,1.85l0.05,-0.05l-0.15,-1.85l-0.35,-3.55l4.5,-3.2l-0.05,3.6l25.5,-19.4q-2.1,24.7 -7.1,44q-4.5,6.85 -10.05,10.55q2.15,3.7 4.7,9.5l3.35,7.9q3.95,9.8 7.25,19.65q3.9,0.95 8.1,3.2q11.45,12 21.95,29.9l-1.2,1.7q-12.35,-2.4 -26.7,-4.35q1.05,11.75 1.35,26.05q-1.15,-0.05 -2.1,0.4l-19.95,-17.3q-2.55,12.85 -7.7,28.5q-7.65,-16.9 -18.85,-31.6q-0.3,1.5 -0.8,2.25q-2.55,6.9 -6.5,13l-3.35,4.7l-0.15,0.15l-4.15,4.85l-2.25,-6.3l-0.6,-1.6q-1.6,-4.05 -5.55,-9.6l-6.55,-8.9l-1.05,1.5l-0.9,-4l0.05,-0.05l3,-3.5l0.9,-3.25l1.15,-5.8l0.5,-4.4q2.45,-2.85 5.2,-5.05q0.85,-0.7 1.8,-1.35q-0.95,0.65 -1.8,1.35q-2.75,2.2 -5.2,5.05l-0.5,4.4l-1.15,5.8l-0.9,3.25l-3,3.5l-0.05,0.05l0.9,4l-1.25,1.65l-0.9,-4.15q-10.75,14.9 -27.85,22.7l-0.7,-0.35l0.85,-0.75q2.25,-2 6.35,-4.95l9.7,-6.75q6.85,-7.4 11.3,-13.55l-6,-7.2q-2.75,-3.8 -8.45,-6.3q-5.75,-2.55 -7.2,-2.05l1.15,-1.6l0.55,-0.8l2,-3.3l2.6,-5.95l-2.6,5.95l-2,3.3l-0.55,0.8l-1.15,1.6l-4.4,5.25l-2.2,2.3l-1,0.9q-19.65,6.1 -42.5,7.35l1.1,-2l6.85,-0.25l9.55,-1.1l14.75,-3.5q10.45,-2.7 12.45,-4.75q3.45,-3.35 6.2,-7.3l0,-11.85l0.05,-0.1l-0.05,-1.25l-0.1,-2.65l-0.4,-6.45l53.6,-42l-0.6,0.45l0.05,-0.15l2.2,-4.45l-0.25,0.9l0.1,-0.4l0.15,-0.55l2.3,-4.9l1.3,-3.2l1.1,0.4l1.9,0.7q2.25,-5.5 2.9,-11.55l-2.85,-0.3l2.85,0.3q-0.65,6.05 -2.9,11.55l-1.9,-0.7l0.3,-1.35q0.85,-5.6 1.65,-9.8l0.75,-3.65l0.6,-2.5q0.85,-5.8 0.85,-11.7l-0.5,-13.55m-11.1,59.4l1.7,-5.45l0.9,-3.15l-0.9,3.15l-1.7,5.45m-51.65,47.05l-0.3,0.35l0.3,-0.35m-30.85,-2.25l-35.5,-5.9l0.35,-0.35l43.75,6.35q10.5,-5.05 17.55,-11.6l0.95,-0.95l-1.15,1.35l-1.25,1.35q-6.45,6.35 -16.9,11l-6.95,-1.1l-0.2,-0.05l-0.65,-0.1m-5,-30.15l-0.85,-1l-0.4,-0.45l1.95,0.7l0.25,0.35l-0.25,-0.35l0.25,0.35l0.1,0.15l1.5,0.35l0.65,0.2l0.05,0q3.5,1.2 7.4,1.65l0.7,0.1l10.35,1.55l3.45,0.3l0.4,0.05q-10.95,2 -24.6,-2.8l-0.95,-1.15m95.95,-10.4l-0.25,-2.95q8.6,-5.85 11.75,-18.55l-0.2,-2.3l0.2,2.3q-3.15,12.7 -11.75,18.55l0.25,2.95m15.3,-28.85l-4.1,3.15l4.1,-3.15m7.55,17.05l15.2,-30.65l-15.2,30.65m-97.95,-6.3l0.95,-0.2q0.7,0 5.7,2.85q5.25,3 6.75,4.7q1.45,1.65 3.25,4.9q1.8,3.25 1.9,4.35q0.05,1.05 -1.3,1.05l-1.95,-0.55l-0.95,-0.9l-0.7,-0.95q-3.3,-8.9 -13.65,-15.25m26.25,-15.75l0.15,0.35l0.8,1.9l-0.8,-1.9l-0.15,-0.35l0.3,-0.75l0.1,-0.3q1.85,1.4 4.9,7.6q1.45,2.9 1.65,4.3l0.1,3.7q-0.15,9.2 -1.45,10.05l-0.3,0.1q-0.4,0 -0.5,-0.5l0,-0.5l0.05,-0.05l-2.35,-3.5q2.1,-8.2 -1.55,-17.9q-2.1,-2.55 -2.1,-3.25l0.1,-0.3l0.4,0.4l0.5,0.55l0.15,0.35m5.6,24.6l-0.75,-0.95l0.75,0.95m-25.9,48.45l0.2,-0.15l-0.05,0.2l-0.15,-0.05m28.45,9q-0.75,4.5 -1.9,8.9l-1.05,3.65l-1.95,5.8l1.95,-5.8l1.05,-3.65q1.15,-4.4 1.9,-8.9m1.45,29.2l1.25,-1.5l-1.25,1.5m6.85,-18.5q0.4,-5.75 -0.6,-10.8q1,5.05 0.6,10.8m15.05,-4.25l-0.9,20l-3.9,-2.05l-1.55,10.1l4.65,-1.35l-1,5.85l-1.6,6.35l-1.7,4.95l1.7,-4.95l1.6,-6.35l1,-5.85l-4.65,1.35l1.55,-10.1l3.9,2.05l0.9,-20m12.35,8.7q0.75,-1.8 1.7,-3.35q-0.95,1.55 -1.7,3.35q1.6,4.9 -0.85,14l-0.3,2.5l0.3,-2.5q2.45,-9.1 0.85,-14q-0.7,-2.85 -2.05,-5.4q1.35,2.55 2.05,5.4m21.6,-53.8q3.7,-1.05 7.05,-3.25q-3.35,2.2 -7.05,3.25m3.5,42.65q6.55,3.85 12.25,16.5l-4,0.6l2.95,6.4l3.35,-1.25q3.95,9.45 6.15,21q-2.2,-11.55 -6.15,-21l-3.35,1.25l-2.95,-6.4l4,-0.6q-5.7,-12.65 -12.25,-16.5m5.95,-2.8q8.3,3.35 13.65,13.3l1.2,8.85l0.2,2.25l-0.2,-2.25l-1.2,-8.85q-5.35,-9.95 -13.65,-13.3m2.2,-6.5q5.15,-1 10.7,0.45q-5.55,-1.45 -10.7,-0.45m37.25,31.15q-6.85,-8.5 -15.55,-14.05l-1.95,2.1l-5.85,-4.3l3.2,-3.05q-6.6,-6.6 -14.1,-8.65q7.5,2.05 14.1,8.65l-3.2,3.05l5.85,4.3l1.95,-2.1q8.7,5.55 15.55,14.05m-60.8,-16.9q4.5,8.9 5.8,15.85l-4.75,-0.6l2.4,10.6l3.85,-2.95q1.9,16.75 0.7,24.5q1.2,-7.75 -0.7,-24.5l-3.85,2.95l-2.4,-10.6l4.75,0.6q-1.3,-6.95 -5.8,-15.85m8.05,1.15q6.9,5.65 8.95,16.75l-0.55,3.95l-0.75,3.95l0.75,-3.95l0.55,-3.95q-2.05,-11.1 -8.95,-16.75m-79.85,41.8l0.15,-1.1l-0.15,1.1m136.1,-23.65l-28.1,-4.9l28.1,4.9m-26.55,23.4l-21.3,-20.85l21.3,20.85"/>
   <path id="svg_52" fill-rule="evenodd" fill="url(#gradient35)" d="m130.5,5.65l-1.4,2l-20.6,30.05l-1.2,-3.15l20.1,-28.15l3.1,-0.75"/>
   <path id="svg_53" fill-rule="evenodd" fill="url(#gradient36)" d="m29.65,80.7q-13.1,-15.05 -24.55,-32.6l1.95,-1.7q12,17.95 24.15,34.55l-1.95,-0.7l0.4,0.45m15.05,-29.1l-0.65,-0.9q-3.45,-21.8 -1.6,-43.35l2,-0.5q-0.55,26.8 3.1,45.3l-2.85,-0.55m30.9,-16.45l13.15,-33.9q1.25,-1.4 2.55,-1.2l-13.3,36.35l-0.1,0.3l-0.3,0.75l-0.15,-0.35l-0.5,-0.55l-0.4,-0.4l-0.95,-1"/>
   <path id="svg_54" fill-rule="evenodd" fill="url(#gradient37)" d="m139.15,182.75l-2.25,-0.3q-6.2,-14 -17.4,-29.05q0.5,-0.75 0.8,-2.25q11.2,14.7 18.85,31.6m-44.65,2.7l-2.2,-1.45q-0.4,-13.2 -4.2,-31.15l1.25,-1.65q3.85,17.7 5.15,34.25m-35.85,-14.4l-0.75,-0.75l0.7,-33.25l2.2,-2.3q0.85,19.7 -1.3,35.55l-0.85,0.75m-43.55,-25.75l-0.7,0.05q9.65,-19.05 21.1,-33.5l0.65,0.1q-11.75,16.4 -19.95,31.35l-1.1,2"/>
   <path id="svg_55" stroke-width="0.05" stroke-linejoin="round" stroke-linecap="round" stroke="#760a0a" fill="none" d="m129.1,7.65l1.4,-2l-3.1,0.75l-20.1,28.15l1.2,3.15l1.2,3.5q0.05,10.6 -4.45,17.7q0.95,3 2.3,5.7m19.85,-25.55l2.85,0.3q-0.65,6.05 -2.9,11.55l-1.9,-0.7l-1.1,-0.4l-1.55,-0.55l-2.05,8.65l-0.15,0.55l-0.9,3.15l-1.7,5.45m10.45,-52.75q-1.15,12.1 -3.4,24.5l2.35,0.25m-61.35,75.4l0.3,-0.35m64.15,-108.45q4.45,20.15 6.6,36.45l0,0.1l0.2,-0.15l4.5,-3.2l22.9,-15.7l2.55,-0.1q-2.1,24.7 -7.1,44q-4.5,6.85 -10.05,10.55q-3.35,2.2 -7.05,3.25m22.35,33.8q3.9,0.95 8.1,3.2q11.45,12 21.95,29.9l-1.2,1.7q-12.35,-2.4 -26.7,-4.35q1.05,11.75 1.35,26.05q-1.15,-0.05 -2.1,0.4l-19.95,-17.3q-2.55,12.85 -7.7,28.5l-2.25,-0.3q-6.2,-14 -17.4,-29.05q-2.55,6.9 -6.5,13l-3.35,4.7l-0.15,0.15l-4.15,4.85q-4.85,5 -10.85,9.35l-2.2,-1.45q-0.4,-13.2 -4.2,-31.15l-0.9,-4.15q-10.75,14.9 -27.85,22.7l-0.7,-0.35l-0.75,-0.75l0.7,-33.25l-1,0.9q-19.65,6.1 -42.5,7.35l-0.7,0.05q9.65,-19.05 21.1,-33.5l-35.5,-5.9l0.35,-0.35q15,-14.25 30.15,-23.9l-0.85,-1q-13.1,-15.05 -24.55,-32.6l1.95,-1.7q21,1.95 37.65,5.2l-0.65,-0.9q-3.45,-21.8 -1.6,-43.35l2,-0.5q17.6,11.5 31.15,28.3l13.15,-33.9q1.25,-1.4 2.55,-1.2q9.85,18.55 16,34.5m30.45,12.95l0.2,2.3q-3.15,12.7 -11.75,18.55l0.25,2.95m11.2,-25.7l-0.1,0.05l0.2,1.85m-0.1,-1.9l4.1,-3.15l25.5,-19.4m-30.15,19.15l0.45,3.45m26.95,-16.8l-15.2,30.65m-102.5,-48.9l15.05,28.7l4.05,-4.4q3.4,5.2 5.35,11.35l-5.45,0.65q5.6,12 8.05,21.2m-22.5,-14.9l-0.35,-0.25l-3.45,-0.8l-2.85,-0.55m21,17.8l-0.7,-0.95q-3.3,-8.9 -13.65,-15.25m39.9,-45.4l3.05,24.6l4.8,-1.6l0.5,12.3l-4.7,-1.5q1.05,9.7 -0.05,19.95m-16.3,-21.85l-0.8,-1.9l-0.15,-0.35l-0.15,-0.35l-0.5,-0.55m1.6,3.15q3.65,9.7 1.55,17.9l2.35,3.5l0.75,0.95l0.5,0.65m-5.8,-26l-0.3,0.75m-2,-2.3l0.95,1m3.55,21.45l-0.4,1.25m25.55,0.05l-2.3,3.1m-46.9,23.65l1.1,0.05m-15.3,-1.95l10.35,1.55l3.45,0.3l0.4,0.05q-10.95,2 -24.6,-2.8l-0.95,-1.15m2.55,0.1l8.8,1.95m-8.8,-1.95l-1.5,-0.35l-0.1,-0.15l-0.25,-0.35m29.7,-2.25l-14.7,-8.05l3.7,-3.55l-10.1,-6.75l-1.2,5.35l-26.15,-16.5m23.7,62.75l-0.65,-0.1m-30.95,-7.2q15.35,-2.5 28.65,-5.85l-1.85,-4.3l11.2,-2l-0.65,5.25l18.7,-3.6m2,5.25l-1.15,1.35l-1.25,1.35q-6.45,6.35 -16.9,11l-6.95,-1.1l-0.2,-0.05q-11.75,16.4 -19.95,31.35m49.8,-28.75l-2.85,2.95q-5.35,5.25 -13,9.7l-1.1,-4.8l-8.65,5.35l4.05,3q-11.1,6.7 -22.45,10.3m-21.65,-35.45l43.75,6.35q10.5,-5.05 17.55,-11.6l0.95,-0.95l0.6,-0.7m2.8,15.85l0.05,-0.1m5.45,3.4l-2.6,5.95l-2,3.3l-0.55,0.8l-1.15,1.6l-4.4,5.25l-2.2,2.3m22.25,0.8l1.95,-5.8l1.05,-3.65q1.15,-4.4 1.9,-8.9m-4.9,18.35l-0.8,2.05l-3.05,-3.5l-4.35,7.8l4.8,0.95q-4.1,8.9 -14,20.85m37.6,-42.2q-0.95,0.65 -1.8,1.35q-2.75,2.2 -5.2,5.05l-0.5,4.4l-1.15,5.8l-0.9,3.25l-3,3.5l-0.05,0.05l0.9,4m13.75,18.6l1.7,-4.95l1.6,-6.35l1,-5.85l-4.65,1.35l1.55,-10.1l3.9,2.05l0.9,-20m-15.65,-6.55q1,5.05 0.6,10.8m-5.6,17l-1.25,1.5m33.1,2.45l0.3,-2.5q2.45,-9.1 0.85,-14q-0.7,-2.85 -2.05,-5.4m3.75,2.05q-0.95,1.55 -1.7,3.35m-1.95,18.75q0.5,-0.75 0.8,-2.25q11.2,14.7 18.85,31.6m7.7,-28.5l0.75,-3.95l0.55,-3.95q-2.05,-11.1 -8.95,-16.75m-0.05,46.25q1.2,-7.75 -0.7,-24.5l-3.85,2.95l-2.4,-10.6l4.75,0.6q-1.3,-6.95 -5.8,-15.85m26.55,-11.05q7.5,2.05 14.1,8.65l-3.2,3.05l5.85,4.3l1.95,-2.1q8.7,5.55 15.55,14.05m-26.55,-30.7q-5.55,-1.45 -10.7,-0.45m12.85,30.9l-0.2,-2.25l-1.2,-8.85q-5.35,-9.95 -13.65,-13.3m14.75,46.05q-2.2,-11.55 -6.15,-21l-3.35,1.25l-2.95,-6.4l4,-0.6q-5.7,-12.65 -12.25,-16.5m-131.45,21.8l1.1,-2m86.9,26.5q-2.2,5.65 -5.3,10.6m-38.3,-10.1l-0.15,1.1m88.25,-21.1l21.3,20.85m-1.55,-28.3l28.1,4.9"/>
   <path id="svg_56" fill-rule="evenodd" fill="#ffcc33" d="m217.15,84.75l0,0.2l-0.6,-0.15l0.1,0l0.15,0l0.35,-0.05m-4,-1.1l0.1,0l-0.05,0l-0.05,0"/>
   <path id="svg_57" fill-rule="evenodd" fill="#ffefcc" d="m122,41.7l0.95,21.2l-19.55,11.9l0.05,-4.25l0.3,-15.05l0,-0.6l10.35,-7.9l7.9,-5.3"/>
   <path id="svg_58" fill-rule="evenodd" fill="#95762f" d="m205.1,98.8l0,-1.45l0.5,0.15l0,1.3l-0.5,0"/>
   <path id="svg_59" fill-rule="evenodd" fill="#59371d" d="m146.25,104.65l-0.6,0.35l0.6,-0.35"/>
   <path id="svg_60" fill-rule="evenodd" fill="#8c4011" d="m192.95,113.9l0.05,0.15l-0.45,-0.1l0.4,-0.05"/>
   <path id="svg_61" fill-rule="evenodd" fill="#8c2211" d="m225.9,109.6q-3.15,3.35 -8.95,5.95l-12.2,1.1l-11.75,-2.6l-0.05,-0.15l11.95,-1.3l9.75,-1.4l6.25,-4.95q-4.4,-7.15 -6.55,-11.75l0.7,1.85q-0.95,-1.9 -1.95,-3.1l-12.1,-4.1l-3,-0.85l-8.65,-2.8l-24.8,-8.05l55.15,12.45q1.6,1.65 1.9,2.55l2.7,9.05q0.95,3.5 1.6,8.1"/>
   <path id="svg_62" fill-rule="evenodd" fill="#763c01" d="m70.55,128.2l-2.65,-0.3l2.65,0.15l0,0.15"/>
   <path id="svg_63" fill-rule="evenodd" fill="#a08467" d="m162.65,82.25l0,0.1l-1.95,1.85l-1.75,-0.35l0.05,-2.5l1.65,0.4l2,0.5m-3.7,2.3l-3.25,2.3l-11.2,-3.05l3.6,-2.35l0.1,-0.05l10.75,3.15m42.05,4.6l12.1,4.1l-0.1,4.95q-3.05,-1.4 -6.7,-3.6l-5.25,-2.5l-0.05,-2.95m0.1,8.6l4,1.05l-3.25,1.2l-3.75,-0.95l3,-1.3m7.8,-0.95l0.1,3l3.9,1.05l-3.6,1.1l-3.7,-1l0,-2.15l0,-1.3l3.3,-0.7"/>
   <path id="svg_64" fill-rule="evenodd" fill="#ffead5" d="m144.5,83.8l-0.05,-5.6l1.7,-2l1.9,-0.95l0,0.25l0.05,5.9l0,0.05l-3.6,2.35m53.55,10.15q1.05,-0.3 2.7,-1.2l0.3,-0.15l0.05,5.15l-3,1.3l-0.05,-5.1"/>
   <path id="svg_65" fill-rule="evenodd" fill="#c2b19a" d="m162.65,82.25l-2,-0.5l-3.7,-2.05q-0.55,-0.35 -7.65,-3.6l-1.25,-0.6l0,-0.25l4,-1.95l11.1,3.7l-0.5,5.25m35.35,6.05l3,0.85l0.05,2.95l0,0.5l-0.3,0.15q-1.65,0.9 -2.7,1.2l-0.05,-5.65"/>
   <path id="svg_66" fill-rule="evenodd" fill="#402615" d="m158.95,83.85l1.75,0.35l1.95,-1.85l0,-0.1l0.5,-5.25l1.4,0.45l24.8,8.05l-50.6,7.85l-3.65,-4.05l9.35,-11.1l0.05,5.6l11.2,3.05l3.25,-2.3l0,-0.7"/>
   <path id="svg_67" fill-rule="evenodd" fill="#db6f02" d="m78.05,104.5l0.15,0.15l3.3,1.4l3.95,2.25l3.35,2.2l41,3.6l8.1,-4.65l3.05,-1.75l4.7,-2.7l0.6,-0.35l1.75,-1l22.7,4.85l0.7,0.15l-0.7,-0.15l0.8,0.15l-0.1,0q-14.75,-1.4 -22.2,-2.9l-2,1.1q-9.1,6 -13.8,8.8l-24.1,-1.65l-19.1,-1.3l-9.1,-6l-3.05,-2.2"/>
   <path id="svg_68" fill-rule="evenodd" fill="#fffcf7" d="m85.45,62.55l25,-20.5l11.3,-5.6l0.2,4.9l0.05,0.35l-7.9,5.3l-10.35,7.9l0,0.6l-0.3,15.05l-0.05,4.25l-1.25,0.8l-0.25,-18.4l0,-0.5l-16.45,5.85"/>
   <path id="svg_69" fill-rule="evenodd" fill="#8d7258" d="m205.1,97.35l0.25,-1.75l3.55,1.2l-3.3,0.7l-0.5,-0.15"/>
   <path id="svg_70" fill-rule="evenodd" fill="url(#gradient38)" d="m173.1,46.8l5.9,1.8l2.2,0.75l2.7,0.75l7.75,2.35l-0.15,-0.85l-0.1,-0.85l2.15,0.55q-1.05,-0.8 -1.05,-1.4q0,-1.4 2.7,-1.4q1.95,0 12.85,4l0.05,0.4l0.65,5.45l3.55,3.55l0.6,0.6l0.4,1.05q-40.85,-13.55 -58.35,-19.95l-1.35,-0.45l0.1,-0.3q1.25,0 18.45,3.65l0.95,0.3m40.95,18.5q0,3.35 1.9,14.55l0.85,4.9l-0.15,0.05l-1.3,-0.45l-2.1,-0.7l-0.1,0l-0.4,-0.15l-62.45,-20.9l-9.2,4.6l-0.85,-2.35q-1.6,-15.9 -2.75,-22.5q1.85,0.15 22.45,5.25l54.1,17.7"/>
   <path id="svg_71" fill-rule="evenodd" fill="url(#gradient39)" d="m172.15,46.5l0.95,0.3l-0.95,-0.3m18.6,-0.55l17.25,6.05l0.1,0.9l-0.05,-0.4q-10.9,-4 -12.85,-4q-2.7,0 -2.7,1.4q0,0.6 1.05,1.4l-2.15,-0.55l0.1,0.85l-0.75,-5.65m21.55,15.95l0.6,0.6l-0.6,-0.6m4.2,4.2l0.65,18.65l-0.35,0.05l0,-0.05l-0.85,-4.9q-1.9,-11.2 -1.9,-14.55l2.45,0.8"/>
   <path id="svg_72" fill-rule="evenodd" fill="url(#gradient40)" d="m212.9,62.5l3.6,3.6l-2.45,-0.8l-54.1,-17.7l-15.85,-5.15l-5,-1.65l-3.8,-1.25l3.8,1.25l5,1.65l15.85,5.15q-20.6,-5.1 -22.45,-5.25q1.15,6.6 2.75,22.5l0.85,2.35l-3.2,1.55l-1.4,2.1l-0.5,-10.6l-1.05,-13.9q-0.65,-6.75 0.35,-6.8l-2.65,-0.85l-4.7,-2.9l-2,-1.5q1.2,-1.35 1.65,-3.4l0.7,-3.2l-0.45,-0.15l0.65,0.2l10,2.9l9.15,1.65l0.75,0.15l0.65,6.8l23.1,7.25q-17.2,-3.65 -18.45,-3.65l-0.8,0l0.7,0.3l1.35,0.45q17.5,6.4 58.35,19.95l-0.4,-1.05"/>
   <path id="svg_73" fill-rule="evenodd" fill="url(#gradient41)" d="m216.55,84.8l-6.75,-1.8l-7.6,-2.6q-9.75,-2.5 -16.2,-4.9l-19.3,-6.35l-9.6,-2.8q-4.55,-1.4 -6.45,-2.3l-10.75,6.65q-0.35,5.8 -10.95,20.3q-4.35,3.1 -14.65,6.45q-23.2,6.55 -29.05,7.05q-5.85,0.45 -8.15,-0.65l-1.4,-1l0,-0.1l-0.35,-1.85l-0.4,-2.1l0.25,-0.3q1.05,-1.35 2.95,-2.15l6.15,2.05q18.95,-2.2 41.5,-11.75l8.15,-12.05l2.55,-3.75l1.4,-2.1l3.2,-1.55l9.2,-4.6l62.45,20.9l0.4,0.15l0.05,0l0.05,0l2.1,0.7l1.2,0.45"/>
   <path id="svg_74" fill-rule="evenodd" fill="url(#gradient42)" d="m215.35,84.35l1.3,0.45l-0.1,0l-1.2,-0.45"/>
   <path id="svg_75" fill-rule="evenodd" fill="url(#gradient43)" d="m217.15,84.95l4.95,4.2q2.8,7.1 4.5,19.6l-0.7,0.85q-0.65,-4.6 -1.6,-8.1l-2.7,-9.05q-0.3,-0.9 -1.9,-2.55l-55.15,-12.45l-1.4,-0.45l-11.1,-3.7l-4,1.95l-1.9,0.95l-1.7,2l-9.35,11.1l-4.75,5.6q-23.65,9.05 -47.25,11.85l-1.6,-0.7l-3.3,-1.4l-0.15,-0.15l-0.95,-0.65q2.3,1.1 8.15,0.65q5.85,-0.5 29.05,-7.05q10.3,-3.35 14.65,-6.45q10.6,-14.5 10.95,-20.3l10.75,-6.65q1.9,0.9 6.45,2.3l9.6,2.8l19.3,6.35q6.45,2.4 16.2,4.9l7.6,2.6l6.75,1.8l0.6,0.15m-2.1,11.4l-0.7,-1.85q2.15,4.6 6.55,11.75l-6.25,4.95l-9.75,1.4l-11.95,1.3l-0.4,0.05l-4,-0.9l9.6,-1.15l15.35,-2.15l3.3,-2.15l1.75,-1.15l-0.1,-0.25l-0.4,-1.6l-1.6,-5l-1.4,-3.25"/>
   <path id="svg_76" fill-rule="evenodd" fill="url(#gradient44)" d="m179,48.6l2.3,0.7l-0.1,0.05l0.1,-0.05l2.6,0.8l-2.7,-0.75l-2.2,-0.75m37.8,36.15l0,0.05l-0.15,0l0.15,-0.05m-63.2,-41.6l-0.7,-0.3l0.8,0l-0.1,0.3"/>
   <path id="svg_77" fill-rule="evenodd" fill="url(#gradient45)" d="m135.1,89.3l3.65,4.05l50.6,-7.85l8.65,2.8l0.05,5.65l0.05,5.1l3.75,0.95l3.25,-1.2l0.5,0l0,2.15l3.7,1l3.6,-1.1l0.1,-2.65l0.1,-4.95q1,1.2 1.95,3.1l1.4,3.25l1.6,5l0.4,1.6l0.1,0.25l-1.75,1.15q-6.35,2.1 -30.45,2.1l-12.2,-0.45l-2.75,-0.6l0.1,0l-0.8,-0.15l-22.7,-4.85l-1.75,1l-0.6,0.35l-4.7,2.7l-2.2,-14.2q1.7,13.7 -0.85,15.95l-8.1,4.65l-41,-3.6l-3.35,-2.2l-2.35,-1.55q23.6,-2.8 47.25,-11.85l4.75,-5.6m3.65,4.05l0,0.15l0,-0.15"/>
   <path id="svg_78" fill-rule="evenodd" fill="url(#gradient46)" d="m160.65,81.75l-1.65,-0.4l-0.05,2.5l0,0.7l-10.75,-3.15l-0.1,0l-0.05,-5.9l1.25,0.6q7.1,3.25 7.65,3.6l3.7,2.05m40.4,10.85l0,-0.5l5.25,2.5q3.65,2.2 6.7,3.6l-0.1,2.65l-3.9,-1.05l-0.1,-3l-3.55,-1.2l-0.25,1.75l0,1.45l-4,-1.05l-0.05,-5.15"/>
   <path id="svg_79" fill-rule="evenodd" fill="url(#gradient47)" d="m216.8,107.6l-3.3,2.15l-15.35,2.15l-9.6,1.15l-8.95,-2.65l-5.45,-1.15l12.2,0.45q24.1,0 30.45,-2.1m-75.85,0.1l-3.05,1.75q2.55,-2.25 0.85,-15.95l2.2,14.2"/>
   <path id="svg_80" fill-rule="evenodd" fill="url(#gradient48)" d="m81.5,106.05l1.6,0.7l2.35,1.55l-3.95,-2.25"/>
   <path id="svg_81" fill-rule="evenodd" fill="url(#gradient49)" d="m212.05,119.55l-0.7,7.95l-7.55,10.05l-6.2,4.25l-63.5,-10.4l-57.05,-3.05q29.5,0 46.3,-2.75q7.3,-2.75 13.5,-7.1q11,-6.65 12.65,-6.65q9.05,0 53.75,7.2l8.8,0.5"/>
   <path id="svg_82" fill-rule="evenodd" fill="url(#gradient50)" d="m181.3,49.3l9.45,-3.35l0.75,5.65l0.15,0.85l-7.75,-2.35l-2.6,-0.8m-70.85,-7.25l4.55,-4.75l0.3,-0.35l11.25,-11.95l21.8,7l0.05,0.45l-0.75,-0.15l-9.15,-1.65l-10,-2.9l-0.65,-0.2l0.45,0.15l-0.7,3.2q-0.45,2.05 -1.65,3.4l2,1.5l0.25,0.3l-6.25,5.25l-0.2,-4.9l-11.3,5.6m26.05,28.8l-2.55,3.75q0.15,-12.15 -1.3,-35.9l2.65,0.85q-1,0.05 -0.35,6.8l1.05,13.9l0.5,10.6m-9.95,-45.85l-0.8,9.45l0.8,-9.45"/>
   <path id="svg_83" fill-rule="evenodd" fill="url(#gradient51)" d="m67.65,81.55l-0.05,0l0.25,-1.25l-0.2,1.25m60.55,-45.45l-0.25,-0.3l0.35,0.25l-0.1,0.05"/>
   <path id="svg_84" fill-rule="evenodd" fill="url(#gradient52)" d="m67.85,80.3l0.65,-3.8l16.95,-13.95l16.45,-5.85l0,0.5q-0.35,0.25 -0.75,0.55l-18.05,14.15q-10.85,8 -15.45,9.65l0.2,-1.25"/>
   <path id="svg_85" fill-rule="evenodd" fill="#541a01" d="m197.6,141.8l-21,-1.85l-106.05,-11.75l0,-0.15l6.5,0.3l57.05,3.05l63.5,10.4"/>
   <path id="svg_86" fill-rule="evenodd" fill="url(#gradient53)" d="m63.9,104.2l-0.05,-0.3l3.8,-22.35q4.6,-1.65 15.45,-9.65l18.05,-14.15q0.4,-0.3 0.75,-0.55l0.25,18.4l1.25,-0.8l19.55,-11.9l-0.95,-21.2l-0.05,-0.35l6.25,-5.25l0.1,-0.05l-0.35,-0.25l4.7,2.9q1.45,23.75 1.3,35.9l-8.15,12.05q-22.55,9.55 -41.5,11.75l-6.15,-2.05q-1.9,0.8 -2.95,2.15l-0.25,0.3l0.4,2.1l-11.45,3.3"/>
   <path id="svg_87" fill-rule="evenodd" fill="url(#gradient54)" d="m204.75,116.65l7.45,1.55l-0.15,1.35l-8.8,-0.5q-44.7,-7.2 -53.75,-7.2q-1.65,0 -12.65,6.65q-6.2,4.35 -13.5,7.1q-16.8,2.75 -46.3,2.75l-6.5,-0.3l-1.65,-9.35l-1.05,-9.25l-0.3,-1.65l4.05,-2.75q0.75,-0.6 4.05,-2.3l0.05,0l0,0.1l1.4,1l0.95,0.65l3.05,2.2l9.1,6l19.1,1.3l24.1,1.65q4.7,-2.8 13.8,-8.8l2,-1.1q7.45,1.5 22.2,2.9l2.75,0.6l5.45,1.15l8.95,2.65l4,0.9l0.45,0.1l11.75,2.6"/>
   <path id="svg_88" fill-rule="evenodd" fill="#fca047" d="m67.9,127.9l-0.2,-0.05l-3.8,-23.65l11.45,-3.3l0.35,1.85l-0.05,0q-3.3,1.7 -4.05,2.3l-4.05,2.75l0.3,1.65l1.05,9.25l1.65,9.35l-2.65,-0.15"/>
   <path id="svg_89" stroke-width="0.05" stroke-linejoin="round" stroke-linecap="round" stroke="#000000" fill="none" d="m205.6,97.5l-0.5,-0.15"/>
   <path id="svg_90" stroke-width="0.05" stroke-linejoin="round" stroke-linecap="round" stroke="#622f0d" fill="none" d="m164.55,77.45l-1.4,-0.45"/>
   <path id="svg_91" stroke-width="0.05" stroke-linejoin="round" stroke-linecap="round" stroke="#805f2b" fill="none" d="m172.15,46.5l0.95,0.3l5.9,1.8m2.3,0.7l9.45,-3.35m21.55,15.95l0.6,0.6l3.6,3.6m0.65,18.65l0,0.2l-0.6,-0.15m-152.65,19.4l-0.05,-0.3l3.8,-22.35l0.2,-1.25l0.65,-3.8l16.95,-13.95m25,-20.5l4.55,-4.75m0.3,-0.35l11.25,-11.95l21.8,7l0.05,0.45l0.65,6.8l23.1,7.25m9.15,2.8l-0.1,0.05l-2.2,-0.75m-20.05,35.25l1.75,0.35l1.95,-1.85l0,-0.1l-2,-0.5l-1.65,-0.4l-0.05,2.5l0,0.7l-3.25,2.3l-11.2,-3.05l-0.05,-5.6m18.7,-1.2l-0.5,5.25m35.35,6.05l3,0.85m0.05,3.45l0,-0.5m4.05,6.7l0,-1.45m8.15,-13.7l-0.05,0m-7.6,15.15l0,-1.3m-57.5,-16.1l0.1,0m-0.1,0.05l0.1,-0.05m-0.1,0.05l0,-0.05"/>
   <path id="svg_92" stroke-width="0.05" stroke-opacity="0.301961" stroke-linejoin="round" stroke-linecap="round" stroke="#855713" fill="none" d="m85.45,62.55l25,-20.5l11.3,-5.6l0.2,4.9l0.05,0.35l0.95,21.2l-19.55,11.9l-1.25,0.8l-0.25,-18.4l0,-0.5l-16.45,5.85"/>
   <path id="svg_93" stroke-width="0.05" stroke-opacity="0.301961" stroke-linejoin="round" stroke-linecap="round" stroke="#875421" fill="none" d="m181.2,49.35l2.7,0.75"/>
   <path id="svg_94" stroke-width="0.05" stroke-opacity="0.501961" stroke-linejoin="round" stroke-linecap="round" stroke="#695037" fill="none" d="m212.2,118.2l-0.15,1.35m-144.15,8.35l-0.2,-0.05l-3.8,-23.65m134.1,-15.9l0.05,5.65l0.05,5.1l3.75,0.95l3.25,-1.2l0.5,0l0,2.15l3.7,1l3.6,-1.1l0.1,-2.65l0.1,-4.95m-136,10.6l0.95,0.65m-2.35,-1.75l0,0.1m1.35,25.5q29.5,0 46.3,-2.75q7.3,-2.75 13.5,-7.1q11,-6.65 12.65,-6.65q9.05,0 53.75,7.2l8.8,0.5m-19.5,-5.6l0.45,0.1m-22.3,-5.55l0.7,0.15m-25.15,-4l-0.6,0.35l0.6,-0.35m27.9,4.6l12.2,0.45q24.1,0 30.45,-2.1m-78.05,-14.1l0,-0.15m-68.2,34.7l6.5,0.3m-1.7,-27.45l-11.45,3.3m19.2,2.55l2.35,1.55"/>
   <path id="svg_95" stroke-width="0.05" stroke-linejoin="round" stroke-linecap="round" stroke="#a0501b" fill="none" d="m226.6,108.75l-0.7,0.85"/>
   <path id="svg_96" stroke-linejoin="round" stroke-linecap="round" stroke="#351406" fill="none" d="m212.05,119.55l-0.7,7.95l-7.55,10.05l-6.2,4.25l-21,-1.85"/>
   <path id="svg_97" stroke-linejoin="round" stroke-linecap="round" stroke="#351406" fill="none" d="m176.6,139.95l-106.05,-11.75l-2.65,-0.3"/>
   <path id="svg_98" stroke-width="0.05" stroke-opacity="0.501961" stroke-linejoin="round" stroke-linecap="round" stroke="#000000" fill="none" d="m135.1,89.3l3.65,4.05m2.2,14.35l-2.2,-14.2"/>
   <path id="svg_99" stroke-width="0.05" stroke-opacity="0.501961" stroke-linejoin="round" stroke-linecap="round" stroke="#1c150f" fill="none" d="m204.75,116.65l7.45,1.55m-19.2,-4.15l11.75,2.6m-16.2,-3.6l4,0.9m-18.4,-4.7l5.45,1.15l8.95,2.65m-17.15,-4.4l2.75,0.6"/>
   <path id="svg_100" stroke-width="0.05" stroke-opacity="0.65098" stroke-linejoin="round" stroke-linecap="round" stroke="#541800" fill="none" d="m217.15,84.95l4.95,4.2q2.8,7.1 4.5,19.6m-0.7,0.85q-3.15,3.35 -8.95,5.95l-12.2,1.1m-60.3,-38.45l-9.35,11.1m54.25,-3.8l-24.8,-8.05m36.45,11.7l12.1,4.1q1,1.2 1.95,3.1l1.4,3.25l1.6,5l0.4,1.6l0.1,0.25l-1.75,1.15l-3.3,2.15l-15.35,2.15l-9.6,1.15m-110.5,-8.55l0.15,0.15l3.3,1.4l1.6,0.7q23.6,-2.8 47.25,-11.85l4.75,-5.6m54.25,-3.8l8.65,2.8m15.25,-4.65l2.1,0.7m-2.6,-0.85l-62.45,-20.9l-9.2,4.6l-3.2,1.55l-1.4,2.1l-2.55,3.75l-8.15,12.05q-22.55,9.55 -41.5,11.75l-6.15,-2.05q-1.9,0.8 -2.95,2.15l-0.25,0.3l0.4,2.1l0.35,1.85m0,0.1l1.4,1m139.45,-19.05l-1.2,-0.45m-44.65,24.15l-22.7,-4.85l-1.75,1m-0.6,0.35l-4.7,2.7l-3.05,1.75l-8.1,4.65l-41,-3.6l-3.35,-2.2m59,-30.1l1.7,-2l1.9,-0.95l4,-1.95l11.1,3.7"/>
   <path id="svg_101" stroke-width="0.05" stroke-opacity="0.572549" stroke-linejoin="round" stroke-linecap="round" stroke="#964423" fill="none" d="m190.75,45.95l17.25,6.05l0.1,0.9l0.65,5.45l3.55,3.55m4.2,4.2l0.65,18.65m-25.65,-33.15l0.15,0.85l-7.75,-2.35m7.6,1.5l-0.75,-5.65"/>
   <path id="svg_102" stroke-width="0.05" stroke-opacity="0.482353" stroke-linejoin="round" stroke-linecap="round" stroke="#8d5925" fill="none" d="m214.05,65.3l2.45,0.8m-90.55,-31.8l2,1.5m4.7,2.9l2.65,0.85l3.8,1.25l5,1.65l15.85,5.15l54.1,17.7m-88.3,-30.85l0.8,-9.45"/>
   <path id="svg_103" fill-rule="evenodd" fill="#ffffff" d="m76.6,69.45q2.05,-4.05 4.4,-3.85q2.3,0.2 3.6,4.55q1.25,4.35 0.75,10.3q-0.55,5.95 -2.55,10q-2,4.05 -4.35,3.9q-2.35,-0.25 -3.65,-4.6q-1.25,-4.35 -0.75,-10.3q0.55,-5.95 2.55,-10"/>
   <path id="svg_104" stroke-width="0.05" stroke-opacity="0.372549" stroke-linejoin="round" stroke-linecap="round" stroke="#5e3f39" fill="none" d="m76.6,69.45q2.05,-4.05 4.4,-3.85q2.3,0.2 3.6,4.55q1.25,4.35 0.75,10.3q-0.55,5.95 -2.55,10q-2,4.05 -4.35,3.9q-2.35,-0.25 -3.65,-4.6q-1.25,-4.35 -0.75,-10.3q0.55,-5.95 2.55,-10z"/>
   <path id="svg_105" fill-rule="evenodd" fill="#330000" d="m81.45,90.85q-1.1,2.8 -2.35,2.65q-1.3,-0.15 -2,-3.15q-0.7,-2.9 -0.4,-7q0.25,-4.05 1.35,-6.75q1.1,-2.8 2.4,-2.65q1.25,0.15 1.95,3.05q0.65,3 0.4,7.1q-0.3,4 -1.35,6.75"/>
   <path id="svg_106" fill-rule="evenodd" fill="url(#gradient55)" d="m58.3,63.55q2.7,-1.6 5.8,-2.45q4.7,-1.35 9.85,-1.1l-0.6,-10.35l6.1,-5.35l0.35,-0.2l-2.15,23.3q-8.15,0.5 -19.75,7.5l0.4,-11.35"/>
   <path id="svg_107" fill-rule="evenodd" fill="#323d29" d="m57.9,74.9q11.6,-7 19.75,-7.5l2.65,0.45l12.1,2.1q-5.45,0.25 -12.25,2.2q-3.95,1.1 -8.35,2.8l-13.9,-0.05"/>
   <path id="svg_108" fill-rule="evenodd" fill="url(#gradient56)" d="m94.95,50.75l-2.55,19.2l-12.1,-2.1l0.6,-20.25l2.4,3.85l-2.05,-4.75l13.7,4.05"/>
   <path id="svg_109" fill-rule="evenodd" fill="url(#gradient57)" d="m79.45,44.3l-6.1,5.35l0.6,10.35q-5.15,-0.25 -9.85,1.1q-3.1,0.85 -5.8,2.45l0.15,-3.15q8.45,-8.45 13.95,-2.75l0.05,-8.7l7,-4.65"/>
   <path id="svg_110" fill-rule="evenodd" fill="url(#gradient58)" d="m77.65,67.4l2.15,-23.3l15.55,3.6l-0.4,3.05l-13.7,-4.05l2.05,4.75l-2.4,-3.85l-0.6,20.25l-2.65,-0.45"/>
   <path id="svg_111" stroke-width="0.05" stroke-linejoin="round" stroke-linecap="round" stroke="#212100" fill="none" d="m79.45,44.3l-7,4.65l-0.05,8.7q-5.5,-5.7 -13.95,2.75l-0.15,3.15l-0.4,11.35m21.9,-30.8l-0.35,0.2m0.35,-0.2l15.55,3.6l-0.4,3.05l-2.55,19.2q-5.45,0.25 -12.25,2.2q-3.95,1.1 -8.35,2.8l-13.9,-0.05"/>
  </g>
  <g transform="matrix(1,0,0,1,19.8,15.9) " id="shape1">
   <path id="svg_112" stroke-opacity="0" stroke-linejoin="round" stroke-linecap="round" stroke="#ff00ff" fill="none" d="m200.7,-15.4l0,220l-219.95,0l-0.05,0l0,-220l220,0"/>
   <path id="svg_113" stroke-opacity="0" stroke-linejoin="round" stroke-linecap="round" stroke="#ff00ff" fill="none" d="m200.7,-15.4l-110,110l110,110m-220,-220l110,110l-109.95,110"/>
   <path id="svg_114" stroke-opacity="0" stroke-linejoin="round" stroke-linecap="round" stroke="#ff00ff" fill="none" d="m145.7,132.25l-109.95,0"/>
   <path id="svg_115" stroke-opacity="0" stroke-linejoin="round" stroke-linecap="round" stroke="#ff00ff" fill="none" d="m149,159.2l-118.15,0l0,-136.2l118.15,0l0,136.2z"/>
  </g>
  <g id="sprite1">
   <use id="svg_116" xlink:href="#shape2" width="100" height="40"/>
  </g>
  <g id="shape2">
   <path id="svg_117" fill-rule="evenodd" fill-opacity="0" fill="#ff00ff" d="m100,40l-100,0l0,-40l100,0l0,40"/>
  </g>
  <linearGradient y2="-4.039016" y1="-4.589097" x2="2.070393" x1="0.163498" spreadMethod="pad" id="gradient0">
   <stop stop-opacity="0.121569" stop-color="#99caff" offset="0"/>
   <stop stop-color="#1a0600" offset="1"/>
  </linearGradient>
  <linearGradient y2="-3.793212" y1="-3.793212" x2="20.382295" x1="-50.390942" spreadMethod="pad" id="gradient1">
   <stop stop-color="#b5623d" offset="0"/>
   <stop stop-color="#ba854a" offset="0.976471"/>
  </linearGradient>
  <linearGradient y2="-3.49854" y1="-3.49854" x2="8.928129" x1="-20.147297" spreadMethod="pad" id="gradient2">
   <stop stop-color="#f2d08c" offset="0"/>
   <stop stop-color="#c98b4e" offset="1"/>
  </linearGradient>
  <linearGradient y2="-1.385394" y1="-3.986645" x2="5.235632" x1="4.063638" spreadMethod="pad" id="gradient3">
   <stop stop-color="#f2d08c" offset="0"/>
   <stop stop-color="#c98b4e" offset="1"/>
  </linearGradient>
  <linearGradient y2="-5.61266" y1="-5.61266" x2="8.458265" x1="-18.893992" spreadMethod="pad" id="gradient4">
   <stop stop-color="#b5623d" offset="0"/>
   <stop stop-color="#dea158" offset="0.976471"/>
  </linearGradient>
  <linearGradient y2="-7.281001" y1="-7.281001" x2="13.513868" x1="-29.772782" spreadMethod="pad" id="gradient5">
   <stop stop-color="#f2d08c" offset="0"/>
   <stop stop-color="#c98b4e" offset="1"/>
  </linearGradient>
  <linearGradient y2="-7.14847" y1="-7.14847" x2="10.714144" x1="-21.923308" spreadMethod="pad" id="gradient6">
   <stop stop-color="#f5bd78" offset="0"/>
   <stop stop-color="#fad17f" offset="1"/>
  </linearGradient>
  <linearGradient y2="3.839555" y1="7.930791" x2="-4.395645" x1="-2.812973" spreadMethod="pad" id="gradient7">
   <stop stop-color="#b5623d" offset="0"/>
   <stop stop-color="#d6a66a" offset="1"/>
  </linearGradient>
  <linearGradient y2="1.933344" y1="3.986423" x2="-8.339405" x1="-5.763913" spreadMethod="pad" id="gradient8">
   <stop stop-color="#b5623d" offset="0"/>
   <stop stop-color="#c98b4e" offset="1"/>
  </linearGradient>
  <linearGradient y2="-7.120101" y1="-7.120101" x2="10.723212" x1="-21.784718" spreadMethod="pad" id="gradient9">
   <stop stop-color="#b5623d" offset="0"/>
   <stop stop-color="#dea158" offset="0.976471"/>
  </linearGradient>
  <linearGradient y2="-10.218994" y1="-26.514028" x2="9.475945" x1="5.554039" spreadMethod="pad" id="gradient10">
   <stop stop-color="#f2d08c" offset="0"/>
   <stop stop-color="#c98b4e" offset="1"/>
  </linearGradient>
  <linearGradient y2="-1.846103" y1="-4.982469" x2="7.122414" x1="5.721644" spreadMethod="pad" id="gradient11">
   <stop stop-color="#f2d08c" offset="0"/>
   <stop stop-color="#c98b4e" offset="1"/>
  </linearGradient>
  <linearGradient y2="-11.533652" y1="-11.533652" x2="19.505357" x1="-39.008929" spreadMethod="pad" id="gradient12">
   <stop stop-color="#f5bd78" offset="0"/>
   <stop stop-color="#fad17f" offset="1"/>
  </linearGradient>
  <linearGradient y2="5.00813" y1="6.435425" x2="-2.691231" x1="-0.656501" spreadMethod="pad" id="gradient13">
   <stop stop-color="#b5623d" offset="0"/>
   <stop stop-color="#dea158" offset="0.976471"/>
  </linearGradient>
  <linearGradient y2="-2.441249" y1="-2.441249" x2="1.130961" x1="0.606501" spreadMethod="pad" id="gradient14">
   <stop stop-color="#f2d08c" offset="0"/>
   <stop stop-color="#ffae63" offset="1"/>
  </linearGradient>
  <linearGradient y2="-2.713283" y1="-2.713283" x2="6.281153" x1="-10.592172" spreadMethod="pad" id="gradient15">
   <stop stop-color="#d1a166" offset="0"/>
   <stop stop-color="#c98b4e" offset="1"/>
  </linearGradient>
  <linearGradient y2="-2.456596" y1="-2.456596" x2="9.714529" x1="-18.292305" spreadMethod="pad" id="gradient16">
   <stop stop-color="#b5623d" offset="0"/>
   <stop stop-color="#c98b4e" offset="1"/>
  </linearGradient>
  <linearGradient y2="-5.848499" y1="-0.889804" x2="-2.595626" x1="-3.665174" spreadMethod="pad" id="gradient17">
   <stop stop-color="#f2d08c" offset="0"/>
   <stop stop-color="#c98b4e" offset="1"/>
  </linearGradient>
  <linearGradient y2="-10.6112" y1="-10.6112" x2="10.584393" x1="-17.20865" spreadMethod="pad" id="gradient18">
   <stop stop-color="#f5bd78" offset="0"/>
   <stop stop-color="#fad17f" offset="1"/>
  </linearGradient>
  <linearGradient y2="-1.78348" y1="-1.78348" x2="3.110855" x1="-0.659875" spreadMethod="pad" id="gradient19">
   <stop stop-color="#f2d08c" offset="0"/>
   <stop stop-color="#c98b4e" offset="1"/>
  </linearGradient>
  <linearGradient y2="-1.610732" y1="-1.610732" x2="6.8559" x1="-10.96248" spreadMethod="pad" id="gradient20">
   <stop stop-color="#b5623d" offset="0"/>
   <stop stop-color="#c98b4e" offset="1"/>
  </linearGradient>
  <linearGradient y2="-2.127672" y1="-2.127672" x2="20.616759" x1="-37.793233" spreadMethod="pad" id="gradient21">
   <stop stop-color="#b5623d" offset="0"/>
   <stop stop-color="#754724" offset="1"/>
  </linearGradient>
  <linearGradient y2="-428.699997" y1="-428.699997" x2="21.746236" x1="-39.847735" spreadMethod="pad" id="gradient22">
   <stop stop-color="#e0764c" offset="0"/>
   <stop stop-color="#c98b4e" offset="1"/>
  </linearGradient>
  <linearGradient y2="-3.190052" y1="-3.190052" x2="22.753453" x1="-41.877715" spreadMethod="pad" id="gradient23">
   <stop stop-color="#b5623d" offset="0"/>
   <stop stop-color="#a96d34" offset="1"/>
  </linearGradient>
  <linearGradient y2="-2.994409" y1="-2.994409" x2="2.082977" x1="1.14419" spreadMethod="pad" id="gradient24">
   <stop stop-color="#f2d08c" offset="0"/>
   <stop stop-color="#ffae63" offset="1"/>
  </linearGradient>
  <linearGradient y2="-4.828426" y1="-4.828426" x2="10.300325" x1="-16.297078" spreadMethod="pad" id="gradient25">
   <stop stop-color="#f5bd78" offset="0"/>
   <stop stop-color="#fad17f" offset="1"/>
  </linearGradient>
  <linearGradient y2="-4.108205" y1="-4.108205" x2="6.789785" x1="-10.827419" spreadMethod="pad" id="gradient26">
   <stop stop-color="#d1a166" offset="0"/>
   <stop stop-color="#c98b4e" offset="1"/>
  </linearGradient>
  <linearGradient y2="-10.675794" y1="-10.675794" x2="16.709302" x1="-30.918603" spreadMethod="pad" id="gradient27">
   <stop stop-color="#b5623d" offset="0"/>
   <stop stop-color="#805127" offset="1"/>
  </linearGradient>
  <linearGradient y2="-12.220051" y1="-12.220051" x2="14.111617" x1="-23.209566" spreadMethod="pad" id="gradient28">
   <stop stop-color="#d1a166" offset="0"/>
   <stop stop-color="#ad7643" offset="1"/>
  </linearGradient>
  <linearGradient y2="-4.341085" y1="-6.034239" x2="11.697987" x1="10.513848" spreadMethod="pad" id="gradient29">
   <stop stop-color="#ffdc94" offset="0"/>
   <stop stop-color="#c98b4e" offset="1"/>
  </linearGradient>
  <linearGradient y2="-4484.72635" y1="-4484.72635" x2="1071.495155" x1="-466.985962" spreadMethod="pad" id="gradient30">
   <stop stop-color="#ffdc94" offset="0"/>
   <stop stop-color="#c98b4e" offset="1"/>
  </linearGradient>
  <linearGradient y2="-4.233678" y1="-4.233678" x2="37.187828" x1="-49.499996" spreadMethod="pad" id="gradient31">
   <stop stop-color="#a35815" offset="0"/>
   <stop stop-color="#861e13" offset="1"/>
  </linearGradient>
  <linearGradient y2="-20.26941" y1="-20.26941" x2="9.726186" x1="-4.200213" spreadMethod="pad" id="gradient32">
   <stop stop-color="#d2761c" offset="0"/>
   <stop stop-color="#861e13" offset="1"/>
  </linearGradient>
  <radialGradient spreadMethod="pad" r="819.2" id="gradient33" gradientUnits="userSpaceOnUse" gradientTransform="matrix(0.5644, 0.0, 0.0, 0.5644, 29.05, 34.45)" cy="0" cx="0">
   <stop stop-color="#cc1010" offset="0"/>
   <stop stop-color="#1a0600" offset="1"/>
  </radialGradient>
  <radialGradient spreadMethod="pad" r="819.2" id="gradient34" gradientUnits="userSpaceOnUse" gradientTransform="matrix(0.5644, 0.0, 0.0, 0.5644, 29.05, 34.45)" cy="0" cx="0">
   <stop stop-color="#990c0c" offset="0"/>
   <stop stop-color="#050100" offset="1"/>
  </radialGradient>
  <radialGradient spreadMethod="pad" r="819.2" id="gradient35" gradientUnits="userSpaceOnUse" gradientTransform="matrix(0.5644, 0.0, 0.0, 0.5644, 29.05, 34.45)" cy="0" cx="0">
   <stop stop-color="#e31c11" offset="0"/>
   <stop stop-color="#380c00" offset="1"/>
  </radialGradient>
  <radialGradient spreadMethod="pad" r="819.2" id="gradient36" gradientUnits="userSpaceOnUse" gradientTransform="matrix(0.5644, 0.0, 0.0, 0.5644, 29.05, 34.45)" cy="0" cx="0">
   <stop stop-color="#fc4613" offset="0"/>
   <stop stop-color="#380c00" offset="1"/>
  </radialGradient>
  <radialGradient spreadMethod="pad" r="819.2" id="gradient37" gradientUnits="userSpaceOnUse" gradientTransform="matrix(0.5644, 0.0, 0.0, 0.5644, 29.05, 34.45)" cy="0" cx="0">
   <stop stop-color="#b30e0e" offset="0"/>
   <stop stop-color="#d12c10" offset="0"/>
   <stop stop-color="#591100" offset="0.988235"/>
  </radialGradient>
  <linearGradient y2="-1.819788" y1="-1.819788" x2="6.962799" x1="-13.697982" spreadMethod="pad" id="gradient38">
   <stop stop-color="#bd5100" offset="0"/>
   <stop stop-color="#f5b72b" offset="1"/>
  </linearGradient>
  <linearGradient y2="-0.386704" y1="-2.992961" x2="4.916016" x1="-1.513794" spreadMethod="pad" id="gradient39">
   <stop stop-color="#ffcc33" offset="0"/>
   <stop stop-color="#d97715" offset="1"/>
  </linearGradient>
  <linearGradient y2="1.664915" y1="-0.189164" x2="2.41767" x1="-0.522584" spreadMethod="pad" id="gradient40">
   <stop stop-color="#ffc238" offset="0"/>
   <stop stop-color="#d97715" offset="1"/>
  </linearGradient>
  <linearGradient y2="3.46443" y1="3.865935" x2="-0.264921" x1="0.966193" spreadMethod="pad" id="gradient41">
   <stop stop-color="#e33d00" offset="0"/>
   <stop stop-color="#eea966" offset="1"/>
  </linearGradient>
  <linearGradient y2="-264.997304" y1="-264.997304" x2="364.849573" x1="-895.469954" spreadMethod="pad" id="gradient42">
   <stop stop-color="#e33d00" offset="0"/>
   <stop stop-color="#eea966" offset="1"/>
  </linearGradient>
  <linearGradient y2="1.004366" y1="-0.890137" x2="1.576501" x1="0.054268" spreadMethod="pad" id="gradient43">
   <stop stop-color="#ff6600" offset="0"/>
   <stop stop-color="#bf0900" offset="1"/>
  </linearGradient>
  <linearGradient y2="1.234271" y1="3.65965" x2="-2.137353" x1="1.744552" spreadMethod="pad" id="gradient44">
   <stop stop-color="#9c553c" offset="0"/>
   <stop stop-color="#f5b72b" offset="1"/>
  </linearGradient>
  <linearGradient y2="-6.201021" y1="-4.711567" x2="0.374164" x1="-0.312887" spreadMethod="pad" id="gradient45">
   <stop stop-color="#402615" offset="0"/>
   <stop stop-color="#59371d" offset="1"/>
  </linearGradient>
  <linearGradient y2="-2.014779" y1="-4.490153" x2="2.906606" x1="0.260445" spreadMethod="pad" id="gradient46">
   <stop stop-color="#ffefcc" offset="0"/>
   <stop stop-color="#91593f" offset="1"/>
  </linearGradient>
  <linearGradient y2="2.220795" y1="6.46974" x2="-1.953488" x1="-1.336752" spreadMethod="pad" id="gradient47">
   <stop stop-color="#95762f" offset="0"/>
   <stop stop-color="#592f10" offset="1"/>
  </linearGradient>
  <linearGradient y2="75.296176" y1="99.326043" x2="-15.455889" x1="68.164794" spreadMethod="pad" id="gradient48">
   <stop stop-color="#8c4600" offset="0"/>
   <stop stop-color="#cc6600" offset="1"/>
  </linearGradient>
  <linearGradient y2="4.629996" y1="6.572006" x2="0.183503" x1="2.564645" spreadMethod="pad" id="gradient49">
   <stop stop-color="#7a0c01" offset="0"/>
   <stop stop-color="#984b01" offset="1"/>
  </linearGradient>
  <linearGradient y2="-1.207661" y1="-1.207661" x2="0.730735" x1="-6.642065" spreadMethod="pad" id="gradient50">
   <stop stop-color="#c44b2e" offset="0"/>
   <stop stop-color="#fadb96" offset="1"/>
   <stop stop-color="#fde3bd" offset="1"/>
  </linearGradient>
  <linearGradient y2="-1.545355" y1="-1.545355" x2="10.24794" x1="-16.743821" spreadMethod="pad" id="gradient51">
   <stop stop-color="#c44b2e" offset="0"/>
   <stop stop-color="#fadb96" offset="1"/>
   <stop stop-color="#fac14d" offset="1"/>
  </linearGradient>
  <linearGradient y2="0.788771" y1="3.669981" x2="0.122354" x1="2.911222" spreadMethod="pad" id="gradient52">
   <stop stop-color="#c44b2e" offset="0"/>
   <stop stop-color="#fadb96" offset="1"/>
   <stop stop-color="#fde3bd" offset="1"/>
  </linearGradient>
  <linearGradient y2="0.933345" y1="-0.240363" x2="4.00804" x1="0.210799" spreadMethod="pad" id="gradient53">
   <stop stop-color="#ffd95e" offset="0"/>
   <stop stop-color="#d97715" offset="1"/>
  </linearGradient>
  <linearGradient y2="4.63989" y1="5.535889" x2="-0.046081" x1="1.290464" spreadMethod="pad" id="gradient54">
   <stop stop-color="#8c4600" offset="0"/>
   <stop stop-color="#f57a00" offset="1"/>
  </linearGradient>
  <linearGradient y2="1.20847" y1="2.729841" x2="-2.551934" x1="-0.808796" spreadMethod="pad" id="gradient55">
   <stop stop-color="#285e43" offset="0"/>
   <stop stop-color="#528352" offset="1"/>
  </linearGradient>
  <linearGradient y2="1.48907" y1="3.504479" x2="-5.34385" x1="-2.738065" spreadMethod="pad" id="gradient56">
   <stop stop-color="#0e2117" offset="0"/>
   <stop stop-color="#528352" offset="1"/>
  </linearGradient>
  <linearGradient y2="1.923163" y1="4.357357" x2="-2.661341" x1="-0.85639" spreadMethod="pad" id="gradient57">
   <stop stop-color="#37805b" offset="0"/>
   <stop stop-color="#71b371" offset="1"/>
  </linearGradient>
  <linearGradient y2="1.567195" y1="3.540174" x2="-4.273298" x1="-2.116534" spreadMethod="pad" id="gradient58">
   <stop stop-color="#285e43" offset="0"/>
   <stop stop-color="#426942" offset="1"/>
  </linearGradient>
 </defs>
 <g>
  <title>background</title>
  <rect fill="none" id="canvas_background" height="182" width="156" y="-1" x="-1"/>
 </g>
 <g>
  <title>Layer 1</title>
  <g id="svg_118">
   <use x="27.202074" y="-19.615101" id="svg_119" xlink:href="#sprite0" width="279.7" transform="matrix(-0.5404,0,0,0.5404,167.3659,12.7341) " height="327.2"/>
   <use x="-14.700001" y="-10.6" id="svg_120" xlink:href="#shape1" width="221" transform="matrix(1,0,0,1,-19.8,-15.9) " height="221"/>
   <use x="-28.199386" y="-21.564237" xlink:href="#sprite1" width="100" transform="matrix(1.2056999999999998,0,0,1.2056999999999998,44.94999923706054,49.549999618530265) " id="_mcMask" height="40"/>
  </g>
 </g>
</svg>