<svg width="93" height="124" xmlns="http://www.w3.org/2000/svg" xmlns:xlink="http://www.w3.org/1999/xlink">
 <defs>
  <g transform="matrix(1,0,0,1,192.55,294) " id="shape0">
   <path id="svg_1" stroke-opacity="0" stroke-linejoin="round" stroke-linecap="round" stroke="#ff00ff" fill="none" d="m187.95,-293.5l0,380l-379.95,0l-0.05,0l0,-380l380,0m-95,294.1l-189.95,0"/>
   <path id="svg_2" stroke-opacity="0" stroke-linejoin="round" stroke-linecap="round" stroke="#ff00ff" fill="none" d="m187.95,-293.5l-190,190l190,190m-380,-380l190,190l-189.95,190"/>
  </g>
  <g transform="matrix(1,0,0,1,37.1,23.9) " id="shape1">
   <path id="svg_3" stroke-width="3" stroke-linejoin="round" stroke-linecap="round" stroke="#44371c" fill="none" d="m13,-18.8q-3.75,-3.6 -8.8,-3.6l-4.15,0.65q-2.5,0.85 -4.5,2.9q-2.55,2.5 -3.4,5.65l-0.05,0.25l-0.1,0.4l-1.95,0.25l-0.55,0.5q-0.65,0.85 0.55,1.7l1.75,0.65l0.2,0.05l-2.15,0.45q-3.9,1.1 -7.2,3.45l-2.95,2.4l-0.95,1.25q-3.5,4.3 -8.35,15.5q-4.9,11.15 -5.65,20l-0.15,4.4q-0.6,2.8 0.85,5.85q5.75,5.45 9.9,4.05q7.9,-2.4 8.15,-8.7l1.55,0.25q0.45,-5.9 -2.6,-11.15q-1.8,-3.6 -2,-10.9q-0.15,-6.6 1,-10.5q0.9,-3.05 3.6,-6.75l1.6,-2.1q4.4,-5.55 7.25,-5.15q0.15,2.15 1.1,3.95q0.75,1.3 1.95,2.45q2.95,3.15 7.2,3.15q4.25,0.05 7.4,-3.05q3,-3 3,-7.25l0,-0.9l1.9,-0.6l2.15,-0.8q1.4,-1.2 0,-2.05l-2.3,-0.8l-0.05,0.15l-0.05,-0.15l-0.7,-2.15l-1.75,-2.8l-0.75,-0.9z"/>
  </g>
  <g transform="matrix(1,0,0,1,77.2,43.4) " id="sprite0">
   <use id="svg_4" xlink:href="#shape2" width="118.55" transform="matrix(1,0,0,1,-77.2,-43.4) " height="88.2"/>
  </g>
  <g transform="matrix(1,0,0,1,77.2,43.4) " id="shape2">
   <path id="svg_5" fill-rule="evenodd" fill-opacity="0.470588" fill="#fe98db" d="m-67.1,-19.55q-0.8,-0.85 -2.05,-0.85q-1.3,0 -2.25,0.85q-0.6,0.65 -0.7,1.5l0,0.4l0,0.2l0.45,1.9l0.25,0.25q0.95,0.85 2.25,0.85q1.25,0 2.05,-0.85q0.9,-0.8 0.95,-2.15q-0.05,-1.25 -0.95,-2.1m-5.95,-3.7q4.25,-4.05 10.2,-4.05q5.95,0 10,4.05q4.25,4.25 4.25,10.2q0,5.95 -4.25,10q-4.05,4.25 -10,4.25q-5.95,0 -10.2,-4.25q-4.05,-4.05 -4.05,-10q0,-5.95 4.05,-10.2"/>
   <path id="svg_6" fill-rule="evenodd" fill="#ffffff" d="m23.7,-33.45q-0.05,1.35 -0.95,2.15q-0.8,0.85 -2.05,0.85q-1.3,0 -2.25,-0.85l-0.25,-0.25q-0.35,-0.85 -0.45,-1.9l0,-0.2l0,-0.4q0.1,-0.85 0.7,-1.5q0.95,-0.85 2.25,-0.85q1.25,0 2.05,0.85q0.9,0.85 0.95,2.1m-90.8,13.9q0.9,0.85 0.95,2.1q-0.05,1.35 -0.95,2.15q-0.8,0.85 -2.05,0.85q-1.3,0 -2.25,-0.85l-0.25,-0.25l-0.45,-1.9l0,-0.2l0,-0.4q0.1,-0.85 0.7,-1.5q0.95,-0.85 2.25,-0.85q1.25,0 2.05,0.85"/>
   <path id="svg_7" fill-rule="evenodd" fill-opacity="0.470588" fill="#f464ac" d="m37,-39.25q4.25,4.25 4.25,10.2q0,5.95 -4.25,10q-4.05,4.25 -10,4.25q-5.95,0 -10.2,-4.25q-4.05,-4.05 -4.05,-10q0,-5.95 4.05,-10.2q4.25,-4.05 10.2,-4.05q5.95,0 10,4.05m-13.3,5.8q-0.05,-1.25 -0.95,-2.1q-0.8,-0.85 -2.05,-0.85q-1.3,0 -2.25,0.85q-0.6,0.65 -0.7,1.5l0,0.4l0,0.2q0.1,1.05 0.45,1.9l0.25,0.25q0.95,0.85 2.25,0.85q1.25,0 2.05,-0.85q0.9,-0.8 0.95,-2.15"/>
   <path id="svg_8" fill-rule="evenodd" fill-opacity="0.470588" fill="#fa2993" d="m6.6,40.45q-4.05,4.25 -10,4.25q-5.95,0 -10.2,-4.25q-4.05,-4.05 -4.05,-10q0,-5.95 4.05,-10.2q4.25,-4.05 10.2,-4.05q5.95,0 10,4.05q4.25,4.25 4.25,10.2q0,5.95 -4.25,10m-47.45,-45.25q5.95,0 10,4.05q4.25,4.25 4.25,10.2q0,5.95 -4.25,10q-4.05,4.25 -10,4.25q-5.95,0 -10.2,-4.25q-4.05,-4.05 -4.05,-10q0,-5.95 4.05,-10.2q4.25,-4.05 10.2,-4.05"/>
   <path id="svg_9" stroke-width="0.25" stroke-linejoin="round" stroke-linecap="round" stroke="#ff3399" fill="none" d="m37,-39.25q4.25,4.25 4.25,10.2q0,5.95 -4.25,10q-4.05,4.25 -10,4.25q-5.95,0 -10.2,-4.25q-4.05,-4.05 -4.05,-10q0,-5.95 4.05,-10.2q4.25,-4.05 10.2,-4.05q5.95,0 10,4.05m-30.4,79.7q-4.05,4.25 -10,4.25q-5.95,0 -10.2,-4.25q-4.05,-4.05 -4.05,-10q0,-5.95 4.05,-10.2q4.25,-4.05 10.2,-4.05q5.95,0 10,4.05q4.25,4.25 4.25,10.2q0,5.95 -4.25,10m-79.65,-63.7q4.25,-4.05 10.2,-4.05q5.95,0 10,4.05q4.25,4.25 4.25,10.2q0,5.95 -4.25,10q-4.05,4.25 -10,4.25q-5.95,0 -10.2,-4.25q-4.05,-4.05 -4.05,-10q0,-5.95 4.05,-10.2m32.2,18.45q5.95,0 10,4.05q4.25,4.25 4.25,10.2q0,5.95 -4.25,10q-4.05,4.25 -10,4.25q-5.95,0 -10.2,-4.25q-4.05,-4.05 -4.05,-10q0,-5.95 4.05,-10.2q4.25,-4.05 10.2,-4.05"/>
   <path id="svg_10" fill-rule="evenodd" fill-opacity="0.243137" fill="#ff037b" d="m36.5,-31.9q0,-2.15 -0.45,-4.05q2.6,3.1 2.6,7.4q0,4.25 -3.1,7.6q-3.3,3.05 -8.05,3.05l-3.85,-0.45q5.25,-0.5 9.05,-4.05q3.8,-4.05 3.8,-9.5"/>
   <path id="svg_11" fill-rule="evenodd" fill-opacity="0.243137" fill="#ff037b" d="m-31.35,6.6q0,-2.15 -0.45,-4.05q2.6,3.1 2.6,7.4q0,4.25 -3.1,7.6q-3.3,3.05 -8.05,3.05l-3.85,-0.45q5.25,-0.5 9.05,-4.05q3.8,-4.05 3.8,-9.5"/>
   <path id="svg_12" fill-rule="evenodd" fill-opacity="0.243137" fill="#ff037b" d="m-53.35,-15.9q0,-2.15 -0.45,-4.05q2.6,3.1 2.6,7.4q0,4.25 -3.1,7.6q-3.3,3.05 -8.05,3.05l-3.85,-0.45q5.25,-0.5 9.05,-4.05q3.8,-4.05 3.8,-9.5"/>
   <path id="svg_13" fill-rule="evenodd" fill-opacity="0.243137" fill="#ff037b" d="m6.1,27.6q0,-2.15 -0.45,-4.05q2.6,3.1 2.6,7.4q0,4.25 -3.1,7.6q-3.3,3.05 -8.05,3.05l-3.85,-0.45q5.25,-0.5 9.05,-4.05q3.8,-4.05 3.8,-9.5"/>
  </g>
  <g transform="matrix(1,0,0,1,35.7,22.5) " id="shape3">
   <path id="svg_14" fill-rule="evenodd" fill="#27210e" d="m-26.95,41.5l0,-2.7l2,0.45l5.65,-2.5l1.6,3.1l-2.25,7.5l5.75,2.55l0.95,1.7l-2,1.1l-8.45,-0.95l-0.5,-0.65l1.25,-2.5l1.4,-1.35l2.35,-6.75l-1.1,-1.6l-6.65,2.6"/>
   <path id="svg_15" fill-rule="evenodd" fill="#7a7a05" d="m-17.35,-5.5q3.3,-2.35 7.2,-3.45q2.75,-0.75 5.65,-0.7l-1.35,2.65l-0.25,-0.05q-2.85,-0.4 -7.25,5.15l-1.6,2.1q5.2,-8.45 -2.4,-5.7m-10.2,47.1l-1.8,-0.05l1.3,-0.5l0.5,0.55m1.85,-1.4q3.3,-1.1 6.65,-1.1l0.55,2.75q-1.35,-2.5 -7.2,-0.2l0,-1.45"/>
   <path id="svg_16" fill-rule="evenodd" fill="#9d9c06" d="m-14.95,0.2q-2.7,3.7 -3.6,6.75q-1.15,3.9 -1,10.5q0.2,7.3 2,10.9q3.05,5.25 2.6,11.15l-1.55,-0.25q-0.25,6.3 -8.15,8.7q-4.15,1.4 -9.9,-4.05q-1.45,-3.05 -0.85,-5.85l0.15,-4.4q1.5,10.8 3.6,8.4q3.2,-2.75 8,-3.95q1.55,-0.4 1.3,-1.15q-4.2,-8.9 -3.6,-14.8q1.05,-13.05 8,-24.4q1,-3.55 -2.35,-0.85l2.95,-2.4q7.6,-2.75 2.4,5.7m-12.6,41.4l1.25,1.4l0.6,0l0,-1.35q5.85,-2.3 7.2,0.2l0.55,0l1.45,-2.6l-2.55,-0.15q-3.35,0 -6.65,1.1l-2.35,0.85l-1.3,0.5l1.8,0.05"/>
   <path id="svg_17" fill-rule="evenodd" fill="#c7c701" d="m-35.25,33.65q0.75,-8.85 5.65,-20q4.85,-11.2 8.35,-15.5l0.95,-1.25q3.35,-2.7 2.35,0.85q-6.95,11.35 -8,24.4q-0.6,5.9 3.6,14.8q0.25,0.75 -1.3,1.15q-4.8,1.2 -8,3.95q-2.1,2.4 -3.6,-8.4"/>
   <path id="svg_18" fill-rule="evenodd" fill="#c8c7b7" d="m-25.7,41.65l0,1.35l-0.6,0l-1.25,-1.4l-0.5,-0.55l2.35,-0.85l0,1.45m6.65,-2.55l2.55,0.15l-1.45,2.6l-0.55,0l-0.55,-2.75"/>
   <path id="svg_19" stroke-width="0.25" stroke-linejoin="round" stroke-linecap="round" stroke="#4b5140" fill="none" d="m-17.35,-5.5q3.3,-2.35 7.2,-3.45q2.75,-0.75 5.65,-0.7l1.05,-1.6l-4,0.5m4,-0.5l0.9,-0.15m-1.95,1.75l-1.35,2.65l-0.25,-0.05q1.5,0.35 3.05,1.55m-3.05,-1.55q-2.85,-0.4 -7.25,5.15l-1.6,2.1q-2.7,3.7 -3.6,6.75q-1.15,3.9 -1,10.5q0.2,7.3 2,10.9q3.05,5.25 2.6,11.15l-1.55,-0.25q-0.25,6.3 -8.15,8.7q-4.15,1.4 -9.9,-4.05q-1.45,-3.05 -0.85,-5.85l0.15,-4.4q0.75,-8.85 5.65,-20q4.85,-11.2 8.35,-15.5l0.95,-1.25l2.95,-2.4m-8.35,47.15l0,1.35l-0.6,0l-1.25,-1.4l-0.5,-0.55l2.35,-0.85q3.3,-1.1 6.65,-1.1l2.55,0.15l-1.45,2.6l-0.55,0l-0.55,-2.75m-10.3,2.45l1.3,-0.5m2.35,0.6l0,-1.45"/>
   <path id="svg_20" fill-rule="evenodd" fill="#a09a76" d="m11.6,-15.15q-3.1,-3.05 -7.35,-3.05l-3.5,0.55q-2.05,0.7 -3.75,2.4q-2.2,2.2 -2.9,5l-0.25,2.35q0,2.6 1.15,4.8q0.75,1.3 1.9,2.45q3,3.15 7.25,3.15q4.25,0.05 7.35,-3.05q3.05,-3 3.05,-7.25l-0.25,-2.35l-0.6,-1.95q-0.75,-1.65 -2.1,-3.05m0.8,10.2l-1.05,1.25q-2.7,2.65 -6.3,2.65q-3.5,0 -6,-2.5q7.3,0.9 13.35,-1.4"/>
   <path id="svg_21" fill-rule="evenodd" fill="#c8c7b7" d="m12.4,-4.95q-6.05,2.3 -13.35,1.4q2.5,2.5 6,2.5q3.6,0 6.3,-2.65l1.05,-1.25"/>
   <path id="svg_22" stroke-width="0.25" stroke-linejoin="round" stroke-linecap="round" stroke="#4b5140" fill="none" d="m11.6,-15.15q-3.1,-3.05 -7.35,-3.05l-3.5,0.55q-2.05,0.7 -3.75,2.4q-2.2,2.2 -2.9,5l-0.25,2.35q0,2.6 1.15,4.8q0.75,1.3 1.9,2.45q3,3.15 7.25,3.15q4.25,0.05 7.35,-3.05q3.05,-3 3.05,-7.25l-0.25,-2.35l-0.6,-1.95q-0.75,-1.65 -2.1,-3.05z"/>
   <path id="svg_23" fill-rule="evenodd" fill="#000000" d="m0.7,-7.95q0,1.35 1,2.45q1,1 2.4,1q1.45,0 2.6,-1q0.85,-1.1 0.85,-2.45q0,-1.4 -0.85,-2.4q-1.15,-1 -2.6,-1q-1.4,0 -2.4,1q-1,1 -1,2.4"/>
   <path id="svg_24" fill-rule="evenodd" fill="#27210e" d="m-34.45,45.55l0,-1.35l3.3,-1.2l-0.7,0.25l4.4,2.15q-0.35,3.85 -2.25,7.35l4.65,4.15l-0.55,1.8l-2.25,0.2l-6.1,-2.7l1.3,-2.45l1.35,-1.25q3.95,-4.4 2.35,-6.55l-3,-1.35l-2.5,0.95"/>
   <path id="svg_25" fill-rule="evenodd" fill="#c7c701" d="m-7.85,-13.2q0.85,-3.15 3.4,-5.65q2,-2.05 4.5,-2.9l4.15,-0.65q5.05,0 8.8,3.6l0.75,0.9q-1.05,1.9 -3.15,3.5q-4.2,3.2 -10.15,3.2l-2.45,-0.15l-0.5,-0.05l5.65,1.1l7.75,-0.5q4.2,-0.2 1,1.2l-5.65,0.65l-10.7,-0.7l-6.05,-2.15l0.55,-0.5l1.1,-0.15l5.6,0.9l-0.6,-0.1q-2.15,-0.5 -4,-1.55m12.7,-6.45l0.2,-0.5l-0.2,-0.55l-0.55,-0.2l-0.5,0.2l-0.25,0.55q0,0.3 0.25,0.5q0.2,0.25 0.5,0.25q0.3,0 0.55,-0.25m-2.55,-1.65l-1.25,0.15q-1.1,0.3 -2.55,1.2q-1.45,0.9 -0.75,1.2l1.45,0.6l1.35,0.3q0.6,0 0.55,-0.8q-0.05,-0.85 0.7,-1.65q0.7,-0.85 0.5,-1m-6.9,5.05q1.05,-0.75 1.4,-0.75l0.55,-0.3l0.2,-0.5l-0.2,-0.55l-0.55,-0.2l-0.5,0.2l-1.1,1.55q-0.9,1.25 0.2,0.55m3.35,-0.65l-0.25,0.1l-0.15,0.3l0.15,0.25q0.1,0.15 0.25,0.15q0.15,0 0.3,-0.15l0.1,-0.25l-0.1,-0.3l-0.3,-0.1m-1.8,6.05l-2.8,-0.4q-2.25,-0.4 -1.1,0.2l2.25,1l1.7,0.4l2.55,0.1q1.9,0.05 0.35,-0.45l-1.95,-0.7l-1,-0.15"/>
   <path id="svg_26" fill-rule="evenodd" fill="#f5f503" d="m2.3,-21.3q0.2,0.15 -0.5,1q-0.75,0.8 -0.7,1.65q0.05,0.8 -0.55,0.8l-1.35,-0.3l-1.45,-0.6q-0.7,-0.3 0.75,-1.2q1.45,-0.9 2.55,-1.2l1.25,-0.15m2.55,1.65q-0.25,0.25 -0.55,0.25q-0.3,0 -0.5,-0.25q-0.25,-0.2 -0.25,-0.5l0.25,-0.55l0.5,-0.2l0.55,0.2l0.2,0.55l-0.2,0.5m-7.9,8.8l1,0.15l1.95,0.7q1.55,0.5 -0.35,0.45l-2.55,-0.1l-1.7,-0.4l-2.25,-1q-1.15,-0.6 1.1,-0.2l2.8,0.4m1.8,-6.05l0.3,0.1l0.1,0.3l-0.1,0.25q-0.15,0.15 -0.3,0.15q-0.15,0 -0.25,-0.15l-0.15,-0.25l0.15,-0.3l0.25,-0.1m-3.35,0.65q-1.1,0.7 -0.2,-0.55l1.1,-1.55l0.5,-0.2l0.55,0.2l0.2,0.55l-0.2,0.5l-0.55,0.3q-0.35,0 -1.4,0.75m-25.55,51.95l-0.25,0.6l-0.6,0.25l-0.6,-0.25l-0.25,-0.6l0.25,-0.6q0.25,-0.25 0.6,-0.25l0.6,0.25q0.25,0.25 0.25,0.6m2.2,-23.25q0.15,1.15 -1.7,7.8q-1.85,6.6 -0.95,8.35q0.9,1.75 0.55,3.15q-0.4,1.4 -1.15,1.5l-1.75,-0.35q-0.95,-0.5 -0.5,-3.35q0.4,-2.9 2.85,-10.6q2.45,-7.7 2.65,-6.5"/>
   <path id="svg_27" fill-rule="evenodd" fill="#9d9c06" d="m-7.85,-13.2q1.85,1.05 4,1.55l0.6,0.1l-5.6,-0.9l0.85,-0.1l0.1,-0.4l0.05,-0.25m-2.65,1.4l6.05,2.15l10.7,0.7l5.65,-0.65q3.2,-1.4 -1,-1.2l-7.75,0.5l-5.65,-1.1l0.5,0.05l2.45,0.15q5.95,0 10.15,-3.2q2.1,-1.6 3.15,-3.5l1.75,2.8l0.7,2.15l0.05,0.15l0.05,-0.15l2.3,0.8q1.4,0.85 0,2.05l-2.15,0.8q-11.95,4 -24.65,-0.15l-1.75,-0.65q-1.2,-0.85 -0.55,-1.7"/>
   <path id="svg_28" stroke-width="0.25" stroke-linejoin="round" stroke-linecap="round" stroke="#4b5140" fill="none" d="m13.75,-17.9l-0.75,-0.9q-3.75,-3.6 -8.8,-3.6l-4.15,0.65q-2.5,0.85 -4.5,2.9q-2.55,2.5 -3.4,5.65l-0.05,0.25l-0.1,0.4l-0.85,0.1l-1.1,0.15l-0.55,0.5m24.25,-6.1l1.75,2.8l0.7,2.15l0.1,0l2.3,0.8q1.4,0.85 0,2.05l-2.15,0.8q-11.95,4 -24.65,-0.15l-1.75,-0.65q-1.2,-0.85 -0.55,-1.7m26.7,-1.15l0.05,0.15"/>
   <path id="svg_29" fill-rule="evenodd" fill="#f5f503" d="m-32.7,34.85l0.25,-0.15l0.15,-0.25q0,-0.2 -0.15,-0.3q-0.1,-0.15 -0.25,-0.15q-0.2,0 -0.3,0.15l-0.15,0.3l0.15,0.25l0.3,0.15"/>
  </g>
  <g transform="matrix(1,0,0,1,61.5,60) " id="sprite1">
   <use id="svg_30" xlink:href="#shape4" width="117.9" transform="matrix(1,0,0,1,-61.5,-60) " height="130.45"/>
  </g>
  <g transform="matrix(1,0,0,1,61.5,60) " id="shape4">
   <path id="svg_31" fill-rule="evenodd" fill-opacity="0.470588" fill="#fe98db" d="m-32.1,-52.25q-1.3,0 -2.25,0.85q-0.6,0.65 -0.7,1.5l0,0.4l0,0.2l0.45,1.9l0.25,0.25q0.95,0.85 2.25,0.85q1.25,0 2.05,-0.85q0.9,-0.8 0.95,-2.15q-0.05,-1.25 -0.95,-2.1q-0.8,-0.85 -2.05,-0.85m6.3,-6.9q5.95,0 10,4.05q4.25,4.25 4.25,10.2q0,5.95 -4.25,10q-4.05,4.25 -10,4.25q-5.95,0 -10.2,-4.25q-4.05,-4.05 -4.05,-10q0,-5.95 4.05,-10.2q4.25,-4.05 10.2,-4.05"/>
   <path id="svg_32" fill-rule="evenodd" fill="#ffffff" d="m-32.1,-52.25q1.25,0 2.05,0.85q0.9,0.85 0.95,2.1q-0.05,1.35 -0.95,2.15q-0.8,0.85 -2.05,0.85q-1.3,0 -2.25,-0.85l-0.25,-0.25l-0.45,-1.9l0,-0.2l0,-0.4q0.1,-0.85 0.7,-1.5q0.95,-0.85 2.25,-0.85"/>
   <path id="svg_33" stroke-width="1.75" stroke-linejoin="round" stroke-linecap="round" stroke="#ff3399" fill="none" d="m-25.8,-59.15q5.95,0 10,4.05q4.25,4.25 4.25,10.2q0,5.95 -4.25,10q-4.05,4.25 -10,4.25q-5.95,0 -10.2,-4.25q-4.05,-4.05 -4.05,-10q0,-5.95 4.05,-10.2q4.25,-4.05 10.2,-4.05z"/>
   <path id="svg_34" fill-rule="evenodd" fill-opacity="0.243137" fill="#ff037b" d="m-14.15,-44.55q0,4.45 -3.2,7.6q-3.2,3.2 -7.95,3.25l-3.8,-0.6q5.3,-0.35 9,-4.05q3.9,-3.95 3.8,-9.5q0.05,-2.15 -0.45,-4.05q2.6,3.2 2.6,7.35"/>
   <path id="svg_35" fill-rule="evenodd" fill-opacity="0.470588" fill="#fe98db" d="m4.95,-6.05q-1.3,0 -2.25,0.85q-0.6,0.65 -0.7,1.5l0,0.4l0,0.2q0.1,1.05 0.45,1.9l0.25,0.25q0.95,0.85 2.25,0.85q1.25,0 2.05,-0.85q0.9,-0.8 0.95,-2.15q-0.05,-1.25 -0.95,-2.1q-0.8,-0.85 -2.05,-0.85m6.3,-6.9q5.95,0 10,4.05q4.25,4.25 4.25,10.2q0,5.95 -4.25,10q-4.05,4.25 -10,4.25q-5.95,0 -10.2,-4.25q-4.05,-4.05 -4.05,-10q0,-5.95 4.05,-10.2q4.25,-4.05 10.2,-4.05"/>
   <path id="svg_36" fill-rule="evenodd" fill="#ffffff" d="m4.95,-6.05q1.25,0 2.05,0.85q0.9,0.85 0.95,2.1q-0.05,1.35 -0.95,2.15q-0.8,0.85 -2.05,0.85q-1.3,0 -2.25,-0.85l-0.25,-0.25q-0.35,-0.85 -0.45,-1.9l0,-0.2l0,-0.4q0.1,-0.85 0.7,-1.5q0.95,-0.85 2.25,-0.85"/>
   <path id="svg_37" stroke-width="1.75" stroke-linejoin="round" stroke-linecap="round" stroke="#ff3399" fill="none" d="m11.25,-12.95q5.95,0 10,4.05q4.25,4.25 4.25,10.2q0,5.95 -4.25,10q-4.05,4.25 -10,4.25q-5.95,0 -10.2,-4.25q-4.05,-4.05 -4.05,-10q0,-5.95 4.05,-10.2q4.25,-4.05 10.2,-4.05z"/>
   <path id="svg_38" fill-rule="evenodd" fill-opacity="0.243137" fill="#ff037b" d="m20.75,-1.65q0.05,-2.15 -0.45,-4.05q2.6,3.2 2.6,7.35q0,4.45 -3.2,7.6q-3.2,3.2 -7.95,3.25l-3.8,-0.6q5.3,-0.35 9,-4.05q3.9,-3.95 3.8,-9.5"/>
   <path id="svg_39" fill-rule="evenodd" fill-opacity="0.470588" fill="#fa2993" d="m-24.65,41.1q5.95,0 10,4.05q4.25,4.25 4.25,10.2q0,5.95 -4.25,10q-4.05,4.25 -10,4.25q-5.95,0 -10.2,-4.25q-4.05,-4.05 -4.05,-10q0,-5.95 4.05,-10.2q4.25,-4.05 10.2,-4.05"/>
   <path id="svg_40" stroke-width="1.75" stroke-linejoin="round" stroke-linecap="round" stroke="#ff3399" fill="none" d="m-24.65,41.1q5.95,0 10,4.05q4.25,4.25 4.25,10.2q0,5.95 -4.25,10q-4.05,4.25 -10,4.25q-5.95,0 -10.2,-4.25q-4.05,-4.05 -4.05,-10q0,-5.95 4.05,-10.2q4.25,-4.05 10.2,-4.05z"/>
   <path id="svg_41" fill-rule="evenodd" fill-opacity="0.243137" fill="#ff037b" d="m-15.15,52.5q0,-2.15 -0.45,-4.05q2.6,3.1 2.6,7.4q0,4.25 -3.1,7.6q-3.3,3.05 -8.05,3.05l-3.85,-0.45q5.25,-0.5 9.05,-4.05q3.8,-4.05 3.8,-9.5"/>
   <path id="svg_42" fill-rule="evenodd" fill-opacity="0.470588" fill="#fe98db" d="m7.65,41.25q-0.8,-0.85 -2.05,-0.85q-1.3,0 -2.25,0.85q-0.6,0.65 -0.7,1.5l0,0.4l0,0.2q0.1,1.05 0.45,1.9l0.25,0.25q0.95,0.85 2.25,0.85q1.25,0 2.05,-0.85q0.9,-0.8 0.95,-2.15q-0.05,-1.25 -0.95,-2.1m4.25,-7.75q5.95,0 10,4.05q4.25,4.25 4.25,10.2q0,5.95 -4.25,10q-4.05,4.25 -10,4.25q-5.95,0 -10.2,-4.25q-4.05,-4.05 -4.05,-10q0,-5.95 4.05,-10.2q4.25,-4.05 10.2,-4.05"/>
   <path id="svg_43" fill-rule="evenodd" fill="#ffffff" d="m7.65,41.25q0.9,0.85 0.95,2.1q-0.05,1.35 -0.95,2.15q-0.8,0.85 -2.05,0.85q-1.3,0 -2.25,-0.85l-0.25,-0.25q-0.35,-0.85 -0.45,-1.9l0,-0.2l0,-0.4q0.1,-0.85 0.7,-1.5q0.95,-0.85 2.25,-0.85q1.25,0 2.05,0.85"/>
   <path id="svg_44" stroke-width="1.75" stroke-linejoin="round" stroke-linecap="round" stroke="#ff3399" fill="none" d="m11.9,33.5q5.95,0 10,4.05q4.25,4.25 4.25,10.2q0,5.95 -4.25,10q-4.05,4.25 -10,4.25q-5.95,0 -10.2,-4.25q-4.05,-4.05 -4.05,-10q0,-5.95 4.05,-10.2q4.25,-4.05 10.2,-4.05z"/>
   <path id="svg_45" fill-rule="evenodd" fill-opacity="0.243137" fill="#ff037b" d="m21.4,44.9q0,-2.15 -0.45,-4.05q2.6,3.1 2.6,7.4q0,4.25 -3.1,7.6q-3.3,3.05 -8.05,3.05l-3.85,-0.45q5.25,-0.5 9.05,-4.05q3.8,-4.05 3.8,-9.5"/>
   <path id="svg_46" fill-rule="evenodd" fill-opacity="0.470588" fill="#fe98db" d="m41.3,26.9q-5.95,0 -10.2,-4.25q-4.05,-4.05 -4.05,-10q0,-5.95 4.05,-10.2q4.25,-4.05 10.2,-4.05q5.95,0 10,4.05q4.25,4.25 4.25,10.2q0,5.95 -4.25,10q-4.05,4.25 -10,4.25m-6.3,-21.6q-1.3,0 -2.25,0.85q-0.6,0.65 -0.7,1.5l0,0.4l0,0.2q0.1,1.05 0.45,1.9l0.25,0.25q0.95,0.85 2.25,0.85q1.25,0 2.05,-0.85q0.9,-0.8 0.95,-2.15q-0.05,-1.25 -0.95,-2.1q-0.8,-0.85 -2.05,-0.85"/>
   <path id="svg_47" fill-rule="evenodd" fill="#ffffff" d="m35,5.3q1.25,0 2.05,0.85q0.9,0.85 0.95,2.1q-0.05,1.35 -0.95,2.15q-0.8,0.85 -2.05,0.85q-1.3,0 -2.25,-0.85l-0.25,-0.25q-0.35,-0.85 -0.45,-1.9l0,-0.2l0,-0.4q0.1,-0.85 0.7,-1.5q0.95,-0.85 2.25,-0.85"/>
   <path id="svg_48" stroke-width="1.75" stroke-linejoin="round" stroke-linecap="round" stroke="#ff3399" fill="none" d="m41.3,26.9q-5.95,0 -10.2,-4.25q-4.05,-4.05 -4.05,-10q0,-5.95 4.05,-10.2q4.25,-4.05 10.2,-4.05q5.95,0 10,4.05q4.25,4.25 4.25,10.2q0,5.95 -4.25,10q-4.05,4.25 -10,4.25z"/>
   <path id="svg_49" fill-rule="evenodd" fill-opacity="0.243137" fill="#ff037b" d="m50.8,9.8q0,-2.15 -0.45,-4.05q2.6,3.1 2.6,7.4q0,4.25 -3.1,7.6q-3.3,3.05 -8.05,3.05l-3.85,-0.45q5.25,-0.5 9.05,-4.05q3.8,-4.05 3.8,-9.5"/>
   <path id="svg_50" fill-rule="evenodd" fill-opacity="0.470588" fill="#fe98db" d="m-32.15,31.5q0,5.95 -4.25,10q-4.05,4.25 -10,4.25q-5.95,0 -10.2,-4.25q-4.05,-4.05 -4.05,-10q0,-5.95 4.05,-10.2q4.25,-4.05 10.2,-4.05q5.95,0 10,4.05q4.25,4.25 4.25,10.2m-23.5,-4.6l0,0.2l0.45,1.9l0.25,0.25q0.95,0.85 2.25,0.85q1.25,0 2.05,-0.85q0.9,-0.8 0.95,-2.15q-0.05,-1.25 -0.95,-2.1q-0.8,-0.85 -2.05,-0.85q-1.3,0 -2.25,0.85q-0.6,0.65 -0.7,1.5l0,0.4"/>
   <path id="svg_51" fill-rule="evenodd" fill="#ffffff" d="m-55.65,26.9l0,-0.4q0.1,-0.85 0.7,-1.5q0.95,-0.85 2.25,-0.85q1.25,0 2.05,0.85q0.9,0.85 0.95,2.1q-0.05,1.35 -0.95,2.15q-0.8,0.85 -2.05,0.85q-1.3,0 -2.25,-0.85l-0.25,-0.25l-0.45,-1.9l0,-0.2"/>
   <path id="svg_52" stroke-width="1.75" stroke-linejoin="round" stroke-linecap="round" stroke="#ff3399" fill="none" d="m-32.15,31.5q0,5.95 -4.25,10q-4.05,4.25 -10,4.25q-5.95,0 -10.2,-4.25q-4.05,-4.05 -4.05,-10q0,-5.95 4.05,-10.2q4.25,-4.05 10.2,-4.05q5.95,0 10,4.05q4.25,4.25 4.25,10.2z"/>
   <path id="svg_53" fill-rule="evenodd" fill-opacity="0.243137" fill="#ff037b" d="m-36.9,28.65q0,-2.15 -0.45,-4.05q2.6,3.1 2.6,7.4q0,4.25 -3.1,7.6q-3.3,3.05 -8.05,3.05l-3.85,-0.45q5.25,-0.5 9.05,-4.05q3.8,-4.05 3.8,-9.5"/>
   <path id="svg_54" fill-rule="evenodd" fill-opacity="0.470588" fill="#fe98db" d="m1,-34.1q-0.05,-1.25 -0.95,-2.1q-0.8,-0.85 -2.05,-0.85q-1.3,0 -2.25,0.85q-0.6,0.65 -0.7,1.5l0,0.4l0,0.2l0.45,1.9l0.25,0.25q0.95,0.85 2.25,0.85q1.25,0 2.05,-0.85q0.9,-0.8 0.95,-2.15m13.3,-5.8q4.25,4.25 4.25,10.2q0,5.95 -4.25,10q-4.05,4.25 -10,4.25q-5.95,0 -10.2,-4.25q-4.05,-4.05 -4.05,-10q0,-5.95 4.05,-10.2q4.25,-4.05 10.2,-4.05q5.95,0 10,4.05"/>
   <path id="svg_55" fill-rule="evenodd" fill="#ffffff" d="m1,-34.1q-0.05,1.35 -0.95,2.15q-0.8,0.85 -2.05,0.85q-1.3,0 -2.25,-0.85l-0.25,-0.25l-0.45,-1.9l0,-0.2l0,-0.4q0.1,-0.85 0.7,-1.5q0.95,-0.85 2.25,-0.85q1.25,0 2.05,0.85q0.9,0.85 0.95,2.1"/>
   <path id="svg_56" stroke-width="1.75" stroke-linejoin="round" stroke-linecap="round" stroke="#ff3399" fill="none" d="m14.3,-39.9q4.25,4.25 4.25,10.2q0,5.95 -4.25,10q-4.05,4.25 -10,4.25q-5.95,0 -10.2,-4.25q-4.05,-4.05 -4.05,-10q0,-5.95 4.05,-10.2q4.25,-4.05 10.2,-4.05q5.95,0 10,4.05z"/>
   <path id="svg_57" fill-rule="evenodd" fill-opacity="0.243137" fill="#ff037b" d="m13.8,-32.55q0,-2.15 -0.45,-4.05q2.6,3.1 2.6,7.4q0,4.25 -3.1,7.6q-3.3,3.05 -8.05,3.05l-3.85,-0.45q5.25,-0.5 9.05,-4.05q3.8,-4.05 3.8,-9.5"/>
   <path id="svg_58" fill-rule="evenodd" fill-opacity="0.470588" fill="#fe98db" d="m-46.3,-14.7q-0.6,0.65 -0.7,1.5l0,0.4l0,0.2l0.45,1.9l0.25,0.25q0.95,0.85 2.25,0.85q1.25,0 2.05,-0.85q0.9,-0.8 0.95,-2.15q-0.05,-1.25 -0.95,-2.1q-0.8,-0.85 -2.05,-0.85q-1.3,0 -2.25,0.85m-1.65,-3.7q4.25,-4.05 10.2,-4.05q5.95,0 10,4.05q4.25,4.25 4.25,10.2q0,5.95 -4.25,10q-4.05,4.25 -10,4.25q-5.95,0 -10.2,-4.25q-4.05,-4.05 -4.05,-10q0,-5.95 4.05,-10.2"/>
   <path id="svg_59" fill-rule="evenodd" fill="#ffffff" d="m-46.3,-14.7q0.95,-0.85 2.25,-0.85q1.25,0 2.05,0.85q0.9,0.85 0.95,2.1q-0.05,1.35 -0.95,2.15q-0.8,0.85 -2.05,0.85q-1.3,0 -2.25,-0.85l-0.25,-0.25l-0.45,-1.9l0,-0.2l0,-0.4q0.1,-0.85 0.7,-1.5"/>
   <path id="svg_60" stroke-width="1.75" stroke-linejoin="round" stroke-linecap="round" stroke="#ff3399" fill="none" d="m-47.95,-18.4q4.25,-4.05 10.2,-4.05q5.95,0 10,4.05q4.25,4.25 4.25,10.2q0,5.95 -4.25,10q-4.05,4.25 -10,4.25q-5.95,0 -10.2,-4.25q-4.05,-4.05 -4.05,-10q0,-5.95 4.05,-10.2z"/>
   <path id="svg_61" fill-rule="evenodd" fill-opacity="0.243137" fill="#ff037b" d="m-28.25,-11.05q0,-2.15 -0.45,-4.05q2.6,3.1 2.6,7.4q0,4.25 -3.1,7.6q-3.3,3.05 -8.05,3.05l-3.85,-0.45q5.25,-0.5 9.05,-4.05q3.8,-4.05 3.8,-9.5"/>
  </g>
  <g id="sprite2">
   <use id="svg_62" xlink:href="#shape5" width="102.95" height="45"/>
  </g>
  <g id="shape5">
   <path id="svg_63" fill-rule="evenodd" fill-opacity="0" fill="#ff00ff" d="m0,0l102.95,0l0,45l-102.95,0l0,-45"/>
  </g>
 </defs>
 <g>
  <title>background</title>
  <rect fill="none" id="canvas_background" height="126" width="95" y="-1" x="-1"/>
 </g>
 <g>
  <title>Layer 1</title>
  <g id="svg_64">
   <use x="40.050003" y="161.5" id="svg_65" xlink:href="#shape0" width="381" transform="matrix(1,0,0,1,-192.55,-294) " height="381"/>
   <use x="0" y="0" id="svg_66" xlink:href="#shape1" width="57.9" transform="matrix(1.1203000000000003,0,0,1.1203000000000003,2.586303051757799,30.374500000000015) " height="73.65"/>
   <use x="104.1709" y="211.632657" id="svg_67" xlink:href="#sprite0" width="118.55" transform="matrix(-0.5393,0.4547,0.4547,0.5393,22.455,-167.8063) " height="88.2"/>
   <use x="0" y="0" id="svg_68" xlink:href="#shape3" width="55.1" transform="matrix(1.1203000000000003,0,0,1.1203000000000003,4.154703051757853,31.94290000000004) " height="81.4"/>
   <use x="104.1709" y="211.632657" id="svg_69" xlink:href="#sprite1" width="117.9" transform="matrix(-0.5393,0.4547,0.4547,0.5393,6.2402,-172.7213) " height="130.45"/>
   <use x="-84.108012" y="-79.816181" xlink:href="#sprite2" width="102.95" transform="matrix(1.8072000000000004,0,0,1.6538,92.1500030517578,147.5) " id="_mcMask" height="45"/>
  </g>
 </g>
</svg>