<svg width="147" height="126" xmlns="http://www.w3.org/2000/svg" xmlns:xlink="http://www.w3.org/1999/xlink">
 <defs>
  <g transform="matrix(1,0,0,1,192.55,294) " id="shape0">
   <path id="svg_1" stroke-opacity="0" stroke-linejoin="round" stroke-linecap="round" stroke="#ff00ff" fill="none" d="m187.95,-293.5l0,380l-379.95,0l-0.05,0l0,-380l380,0m-95,294.1l-189.95,0"/>
   <path id="svg_2" stroke-opacity="0" stroke-linejoin="round" stroke-linecap="round" stroke="#ff00ff" fill="none" d="m187.95,-293.5l-190,190l190,190m-380,-380l190,190l-189.95,190"/>
  </g>
  <g transform="matrix(1,0,0,1,-15.3,40.6) " id="shape1">
   <path id="svg_3" fill-rule="evenodd" fill="#fede81" d="m19.05,-3.5q-3.25,-4.05 -3.5,-9q6.45,-0.85 8.3,-4.05q1.75,-3.25 4.95,-7.4q3.25,-4.15 8.5,-8q5.15,-3.95 11.4,-5.35l9.05,-1.75l3.3,-0.2l1.45,0l18.45,-1.1l-2.2,1.1q-3.35,1.4 -5.25,4.25l-1.6,3.05l4.25,-0.95l5,-0.45q7.35,-0.55 14.55,1.4q7.55,2.2 14.1,6.8l4.6,3.25q-3.9,-1.6 -7.85,-2.5q-3.65,-1.2 -7.45,-1.85l-6.15,0.75l-2.8,0.65q-10.65,-1.65 -16.2,1.75q2.4,-0.4 6.45,3.5l2.1,0.55q5.1,-0.75 12.9,2.2l1.2,2.5q1.2,3.4 1.65,7.35q-1.65,-3.4 -4.75,-5.6q-2.6,-1.85 -5.75,-1.1l-3.5,1.45l-4.05,2.85l-0.9,2.7l-0.3,0.1l0.1,0.25l6.65,15.5q-6.75,7.25 -16.85,9.1l-9.05,-2.2l0.1,0.1q7,5.4 8.65,14.1q0.65,2.65 -0.35,5.4l-0.95,2.05l-5.05,1.1l-2.4,-1.4q-2.5,-1.8 -3.6,-4.75q-1.75,-6.65 -3.2,-13.3l-0.2,-1.9l-1,5.85q-16.05,1.4 -28,-9.75l-0.95,-1.65q-3.3,-7.35 -3.85,-15.4l7.65,7.1l-7.65,-7.1m16.55,-14.1l1.05,-0.9q1.85,-2.1 3,-4.6q1.2,-2.6 0,-3.4l-4.1,-0.1q-2.9,0.65 -5.1,2.4l-0.25,0.15l-1.5,1.6q-0.75,0.9 -1.1,2.1q-0.65,2.1 0.75,3.4q1,0.95 2.75,1q0,0.4 0.35,0.5q0.75,0.25 2.4,-0.75l1.75,-1.4m3.05,-0.1l-0.55,0.6q-2.85,2.1 -3.3,4.1q-0.65,2.25 0.75,3.45q0.7,0.7 1.8,0.9l-0.45,0q-2.4,0 -2.85,1.2q-0.45,1.2 1.2,2.85q1.55,1.65 4.4,2.85q2.8,1.1 5.2,1.1q2.4,0 2.85,-1.2q0.45,-1.2 -1.2,-2.85q-1.65,-1.75 -4.45,-2.85q-2,-0.8 -3.65,-1l1,-0.1q1,0.3 2.75,-0.55q1.75,-0.9 3.25,-2.5q1.2,-1.35 1.65,-2.65l0.25,-0.55q1.05,-2.2 0.55,-3.8q-0.45,-1.65 -3.1,-1.55q-2.75,0.1 -6.1,2.55m21.2,33.75l-0.9,-0.65q-1.05,-0.65 -2.15,-1q-2.2,-1.05 -3.5,0.9q-0.45,0.65 -0.45,1.5l0,0.15l0,0.5l0,-0.5l0,-0.15q0,-0.85 0.45,-1.5q1.3,-1.95 3.5,-0.9q1.1,0.35 2.15,1l0.9,0.65"/>
   <path id="svg_4" fill-rule="evenodd" fill="#e9af50" d="m84,-22.45l-1.5,0.8l1.65,-0.35l1.5,-0.1l2.5,0.3q4.85,1 7.25,4.95q-7.8,-2.95 -12.9,-2.2l-2.1,-0.55q-4.05,-3.9 -6.45,-3.5q5.55,-3.4 16.2,-1.75q-3.2,0.8 -6.15,2.4m3.75,8.75l0.75,3.1q1.75,7.75 0.55,15.4l-0.1,0.75q-1.45,8.4 -6.9,14.85l-3.2,3.3l-0.4,-0.2l-1.55,-1.1q-2.2,-1.4 -4.35,-1.65q-3,-0.35 -4.3,1.4q-1.05,1.35 -0.4,3.5l0.3,0.9q0.75,1.65 2.4,2.85l-0.55,0.2l-1.4,0.65q-1.65,-8.7 -8.65,-14.1l-0.1,-0.1l9.05,2.2q10.1,-1.85 16.85,-9.1l-6.65,-15.5l0.2,-0.35q2.4,-0.75 4.25,0.35q1,0.65 1.75,1.85l1.75,3.2q1.35,-3.3 1.1,-6.45q-0.4,-3.5 -3.9,-4.5q3.5,1 3.9,4.5q0.25,3.15 -1.1,6.45l-1.75,-3.2q-0.75,-1.2 -1.75,-1.85q-1.85,-1.1 -4.25,-0.35l-0.2,0.35l-0.1,-0.25l0.3,-0.1l0.9,-2.7l4.05,-2.85l3.5,-1.45m-31.5,46.35q-5.8,0 -11.25,-2.05q-6.6,-2.1 -12.15,-6.35q-5.8,-4.45 -9,-10.7q11.95,11.15 28,9.75l1,-5.85l0.2,1.9q1.45,6.65 3.2,13.3m26.25,-54.3l-2.1,2.05l2.1,-2.05"/>
   <path id="svg_5" fill-rule="evenodd" fill="#b6620e" d="m78.85,23.7q2.55,2.2 3.65,4.8q1.1,2.75 -0.15,4.4q-1.3,1.75 -3.5,0.35q-2.25,-1.35 -5.8,-2.65l-0.2,0l-1.85,-0.9l-0.45,-0.3q-1.65,-1.2 -2.4,-2.85l-0.3,-0.9q-0.65,-2.15 0.4,-3.5q1.3,-1.75 4.3,-1.4q2.15,0.25 4.35,1.65l1.55,1.1l0.4,0.2m-28.2,16.75q-0.3,2.15 -2.85,2.15q-2.7,-0.2 -6.45,0.55l-0.2,0.05l-2.05,0.2q-2.35,-0.1 -3.95,-1.35l-0.75,-0.6q-1.65,-1.55 -1.35,-3.3q0.25,-2.1 3.05,-3.3q2,-0.85 4.5,-0.75l1.95,0.1q3.65,0.45 5.95,2.3q2.4,1.85 2.15,3.95"/>
   <path id="svg_6" fill-rule="evenodd" fill="#c7d1d8" d="m28.7,-22.45l1.5,-1.6l0.25,-0.15q2.2,-1.75 5.1,-2.4l4.1,0.1q1.2,0.8 0,3.4q-1.15,2.5 -3,4.6l-1.05,0.9l1.2,-1.2q1.5,-1.65 2.15,-3q0.45,-1.3 -0.3,-1.5q-0.75,-0.25 -2.2,0.65q-1.65,1 -3.15,2.65q-1.45,1.6 -1.9,2.95q-0.4,0.65 -0.3,1.1q-1.75,-0.05 -2.75,-1q-1.4,-1.3 -0.75,-3.4q0.35,-1.2 1.1,-2.1m9.95,4.75q3.35,-2.45 6.1,-2.55q2.65,-0.1 3.1,1.55q0.5,1.6 -0.55,3.8l-0.25,0.55l0.2,-0.45q0.25,-1.4 -0.75,-1.75l-1.85,0.05q-1.55,-1.8 -6,-1.2"/>
   <path id="svg_7" fill-rule="evenodd" fill="#000000" d="m31.1,-15.95q-0.1,-0.45 0.3,-1.1q0.45,-1.35 1.9,-2.95q1.5,-1.65 3.15,-2.65q1.45,-0.9 2.2,-0.65q0.75,0.2 0.3,1.5q-0.65,1.35 -2.15,3l-1.2,1.2l-1.75,1.4q-1.65,1 -2.4,0.75q-0.35,-0.1 -0.35,-0.5m15.95,1.6q-0.45,1.3 -1.65,2.65q-1.5,1.6 -3.25,2.5q-1.75,0.85 -2.75,0.55l-0.1,0q-1,-0.45 -0.65,-1.95q0.4,-1.35 1.85,-2.95q1.5,-1.65 3.25,-2.55l0.9,-0.4l1.85,-0.05q1,0.35 0.75,1.75l-0.2,0.45"/>
   <path id="svg_8" fill-rule="evenodd" fill="#ffffff" d="m38.1,-17.1l0.55,-0.6q4.45,-0.6 6,1.2l-0.9,0.4q-1.75,0.9 -3.25,2.55q-1.45,1.6 -1.85,2.95q-0.35,1.5 0.65,1.95l0.1,0l-1,0.1l-1.05,-0.1q-1.1,-0.2 -1.8,-0.9q-1.4,-1.2 -0.75,-3.45q0.45,-2 3.3,-4.1"/>
   <path id="svg_9" fill-rule="evenodd" fill-opacity="0.321569" fill="#f40bae" d="m38.4,-8.55q1.65,0.2 3.65,1q2.8,1.1 4.45,2.85q1.65,1.65 1.2,2.85q-0.45,1.2 -2.85,1.2q-2.4,0 -5.2,-1.1q-2.85,-1.2 -4.4,-2.85q-1.65,-1.65 -1.2,-2.85q0.45,-1.2 2.85,-1.2l0.45,0l1.05,0.1"/>
   <path id="svg_10" stroke-width="0.5" stroke-linejoin="round" stroke-linecap="round" stroke="#b8800c" fill="none" d="m90.15,-24.85l2.8,-0.65l6.15,-0.75q3.8,0.65 7.45,1.85q3.95,0.9 7.85,2.5l-4.6,-3.25q-6.55,-4.6 -14.1,-6.8q-7.2,-1.95 -14.55,-1.4l-5,0.45l-4.25,0.95l1.6,-3.05q1.9,-2.85 5.25,-4.25l2.2,-1.1l-18.45,1.1l-1.45,0l-3.3,0.2l-9.05,1.75q-6.25,1.4 -11.4,5.35q-5.25,3.85 -8.5,8q-3.2,4.15 -4.95,7.4q-1.85,3.2 -8.3,4.05q0.25,4.95 3.5,9l7.65,7.1m57.45,-25.6l-0.15,-0.45l-1.5,0.8l1.65,-0.35l1.5,-0.1l2.5,0.3q4.85,1 7.25,4.95l1.2,2.5q1.2,3.4 1.65,7.35q-1.65,-3.4 -4.75,-5.6q-2.6,-1.85 -5.75,-1.1l0.75,3.1q1.75,7.75 0.55,15.4l-0.1,0.75q-1.45,8.4 -6.9,14.85l-3.2,3.3m-10.25,6.55q0.65,2.65 -0.35,5.4l-0.95,2.05l-5.05,1.1l-2.4,-1.4q-2.5,-1.8 -3.6,-4.75q-5.8,0 -11.25,-2.05q-6.6,-2.1 -12.15,-6.35q-5.8,-4.45 -9,-10.7l-0.95,-1.65q-3.3,-7.35 -3.85,-15.4m64.95,-18.95q2.95,-1.6 6.15,-2.4m-9.75,5.25l2.1,-2.05m5.25,7.95l-3.5,1.45q3.5,1 3.9,4.5q0.25,3.15 -1.1,6.45l-1.75,-3.2q-0.75,-1.2 -1.75,-1.85q-1.85,-1.1 -4.25,-0.35l-0.2,0.35m-19.25,22.4l0.1,0.1q7,5.4 8.65,14.1m7.55,-63.15l-2.65,-2.1m6.7,25.6l4.05,-2.85m-5.25,5.65l0.3,-0.1m-26.45,24.15l0,-0.5l0,-0.15q0,-0.85 0.45,-1.5q1.3,-1.95 3.5,-0.9q1.1,0.35 2.15,1l0.9,0.65m-3.6,16.6q-1.75,-6.65 -3.2,-13.3l-0.2,-1.9"/>
   <path id="svg_11" stroke-width="2" stroke-linejoin="round" stroke-linecap="round" stroke="#95662f" fill="none" d="m78.85,23.7q2.55,2.2 3.65,4.8q1.1,2.75 -0.15,4.4q-1.3,1.75 -3.5,0.35q-2.25,-1.35 -5.8,-2.65l-0.2,0l-1.85,-0.9l-0.45,-0.3l-0.55,0.2l-1.4,0.65m-17.95,10.2q0.25,-2.1 -2.15,-3.95q-2.3,-1.85 -5.95,-2.3l-1.95,-0.1q-2.5,-0.1 -4.5,0.75q-2.8,1.2 -3.05,3.3q-0.3,1.75 1.35,3.3l0.75,0.6q1.6,1.25 3.95,1.35l2.05,-0.2l0.2,-0.05q3.75,-0.75 6.45,-0.55q2.55,0 2.85,-2.15"/>
   <path id="svg_12" stroke-linejoin="round" stroke-linecap="round" stroke="#644726" fill="none" d="m35.6,-17.6l1.05,-0.9q1.85,-2.1 3,-4.6q1.2,-2.6 0,-3.4l-4.1,-0.1q-2.9,0.65 -5.1,2.4l-0.25,0.15l-1.5,1.6m9.4,5.35l0.55,-0.6q3.35,-2.45 6.1,-2.55q2.65,-0.1 3.1,1.55q0.5,1.6 -0.55,3.8l-0.25,0.55"/>
  </g>
  <g id="sprite0">
   <use id="svg_13" xlink:href="#shape2" width="102.95" height="45"/>
  </g>
  <g id="shape2">
   <path id="svg_14" fill-rule="evenodd" fill-opacity="0" fill="#ff00ff" d="m0,0l102.95,0l0,45l-102.95,0l0,-45"/>
  </g>
 </defs>
 <g>
  <title>background</title>
  <rect fill="none" id="canvas_background" height="128" width="149" y="-1" x="-1"/>
 </g>
 <g>
  <title>Layer 1</title>
  <g id="svg_15" transform="matrix(2,0,0,2,0,0) ">
   <use x="46.550003" y="122" id="svg_16" xlink:href="#shape0" width="381" transform="matrix(1,0,0,1,-192.55,-294) " height="381"/>
   <use x="203.867171" y="-240.297044" id="svg_17" xlink:href="#shape1" width="99.35" transform="matrix(-0.7136999999999999,0,0,0.7136999999999999,217.1306030517578,173.17439999999993) " height="85"/>
   <use x="-80.511288" y="-103.700568" xlink:href="#sprite0" width="102.95" transform="matrix(1.8072000000000004,0,0,1.6538,83.00000305175784,165.3) " id="_mcMask" height="45"/>
  </g>
 </g>
</svg>