<svg width="171" height="149" xmlns="http://www.w3.org/2000/svg" xmlns:xlink="http://www.w3.org/1999/xlink">
 <defs>
  <g transform="matrix(1,0,0,1,192.55,294) " id="shape0">
   <path id="svg_1" stroke-opacity="0" stroke-linejoin="round" stroke-linecap="round" stroke="#ff00ff" fill="none" d="m187.95,-293.5l0,380l-379.95,0l-0.05,0l0,-380l380,0m-95,294.1l-189.95,0"/>
   <path id="svg_2" stroke-opacity="0" stroke-linejoin="round" stroke-linecap="round" stroke="#ff00ff" fill="none" d="m187.95,-293.5l-190,190l190,190m-380,-380l190,190l-189.95,190"/>
  </g>
  <g id="shape1">
   <path id="svg_3" fill-rule="evenodd" fill="#000000" d="m1.9,0l10.2,8.7l6.4,15.55l3.9,6.35l-0.15,9.55l-3.5,-0.5l0.95,-6.1l-19.7,-12.8q6.15,-5.4 1.9,-20.75"/>
   <path id="svg_4" fill-rule="evenodd" fill="#a89a6f" d="m35.5,61.65l-1.5,-1.25l-0.15,-0.15l1.5,0q-0.45,0.25 0.3,1.2l-0.15,0.2m1.05,-1.4l0.95,0l0.05,0.05l-0.15,0.15l-0.85,-0.2"/>
   <path id="svg_5" fill-rule="evenodd" fill="#a19b61" d="m40.15,68.45l-0.45,1.15l0,0.05l-0.8,0l0.75,-2.15l0.55,0.5l-0.15,0.35l-0.05,0.05l0.15,0.05m-1.25,2.9l0.1,0.3l0,1l-0.75,0.75l-0.25,-0.5l0.1,-1.65l0.35,0.05l0.3,0.1l0.15,-0.05m0,-3.65l-1.95,1.9l-0.65,-0.2l1.3,-1.75l0.05,-0.15l-0.05,-0.15l0,-0.05l0.75,-0.15l0.55,0.55m-3.25,3.25l-0.65,0.7l-0.75,0.5l-1,0.25l0.25,-1l1,-1l0.8,-0.3l-0.3,0.55l0.65,0.3m0.55,-3.65l0,0.05l-1.7,2.05l0,-0.5l-0.5,-0.1l0.1,-0.1l1.4,-1.75l0.05,-0.1l0.45,-0.5l0.25,0.65l0,0.25l-0.05,0.05m-3.15,3.2l-0.55,0.4l-0.75,0.25l-1,1l-0.25,-0.5l0.25,-1l1.25,-0.75l0.65,-0.25l0.1,-0.05l0,0.05l0,0.75l0.3,0.1m1.4,-4l-2.75,1.85l-0.1,-0.25l-0.1,-0.45l2.95,-2.15q0.4,0.3 0.3,0.5l-0.15,0.35l-0.15,0.15m-5.45,3.4l-1.5,1l0.25,-1l1.25,-1l0.6,-0.3l0.15,0.8l-0.75,0.5m9.2,-5.8l-0.8,-0.75l0.8,0.75l0.3,0.3l-0.3,-0.3m-2.55,-2.55l-0.05,-0.05l0.05,0l0.05,0.05l0.4,0.3l-0.15,0.15l-0.1,-0.1l-0.2,-0.35"/>
   <path id="svg_6" fill-rule="evenodd" fill="#d9cebf" d="m36,62.05l-0.5,-0.4l0.15,-0.1l0.2,0.35l0.1,0.1l0.05,0.05"/>
   <path id="svg_7" fill-rule="evenodd" fill="#bdb592" d="m35.35,60.25l1.2,0l0.85,0.2l0.25,0l0.35,0.45l0.85,0.95l0.5,0.55l0.45,0.45l0.3,0.35l0.25,0.3l0.15,0.15l0.3,0.25l0.35,0.25l0.15,-0.1q0.25,-0.45 0.45,-0.4l0.1,0q0.55,0.1 0.9,0.5l0.25,0.25l0.1,0.1l0.15,0.4l-0.75,0.7l0.25,0.8l-0.25,0.5l-0.35,0.1l-0.4,0.1l-0.65,0.45l-0.1,0.1l-0.5,0.65l-0.35,0.15l-0.1,-0.1l0.15,-0.35l-0.55,-0.5l-0.4,0.4l-0.35,-0.2l-0.55,-0.55l-0.75,0.15l0,0.05l0.05,0.15l-0.05,0.15l-0.45,0.05q-0.75,0 -0.9,-0.3l-0.05,-0.1l0.05,-0.05l0,-0.25l-0.25,-0.65l-0.45,0.5l-0.5,-0.2l-0.05,0l-0.35,-0.2l-0.05,-0.1l0.15,-0.35q0.1,-0.2 -0.3,-0.5l0.55,-0.35l1.75,-0.5l1.45,-0.55l0.3,0.3l-0.3,-0.3l-0.8,-0.75l-0.25,-0.2l-0.3,-0.3l-0.85,-0.8l-0.05,-0.05l0.15,-0.15l-0.4,-0.3l-0.05,-0.05l-0.05,0l0.05,-0.05q-0.75,-0.95 -0.3,-1.2m7.15,5.35l-0.5,0.3l-1.25,-0.25l-1.75,0.5q-0.85,-0.15 -1.25,-0.5q-0.2,-0.2 0.15,-0.35l0.35,-0.15l0.25,-0.75l-0.25,0.75l-0.35,0.15q-0.35,0.15 -0.15,0.35q0.4,0.35 1.25,0.5l1.75,-0.5l1.25,0.25l0.5,-0.3"/>
   <path id="svg_8" fill-rule="evenodd" fill="#544630" d="m35.5,61.65l0.15,-0.2l-0.05,0.05l0.05,0.05l-0.15,0.1"/>
   <path id="svg_9" fill-rule="evenodd" fill="#c5c5c5" d="m34.85,62.55l-0.2,0.05l0.3,-0.1l-0.1,0.05"/>
   <path id="svg_10" fill-rule="evenodd" fill="#81784e" d="m41,63.75l-0.05,-0.15l-0.2,-0.45l-0.15,-0.4l-0.6,-1.1l-1.1,-1.4l1,0l0.1,0.1l1.25,2.05l0.6,1.2l-0.1,0.05q-0.2,-0.05 -0.45,0.4l-0.15,0.1l-0.15,-0.4"/>
   <path id="svg_11" fill-rule="evenodd" fill="#b4a881" d="m37.55,60.3l0.1,0.15l-0.25,0l0.15,-0.15"/>
   <path id="svg_12" fill-rule="evenodd" fill="#dadada" d="m40.8,63.9l0.2,-0.15l0.15,0.4l-0.35,-0.25m1.05,-0.3l0,0.05l-0.1,0l0.1,-0.05m-9.2,6.05l-0.45,-0.2l0.65,-0.55l0.1,-0.05l-0.2,0.75l0,0.05l0,-0.05l-0.1,0.05m0.95,-0.9l0.3,-0.05l0.2,0l-0.1,0.1l-0.4,-0.05m1.9,-1.8l-0.45,-0.3l0.5,0.2l-0.05,0.1m-0.85,-0.5l-0.2,0.05l0.15,-0.15l0.05,0.1m-3.65,2.95l-0.05,0.1l-0.85,0.25l-1,0.15l-0.1,0l0.75,-0.5l0.05,0l1.2,0m6.15,-6.25l-0.25,0.05l-0.15,-0.3l0.1,-0.05l0.3,0.3m-7.4,6.25l0.05,0l-0.05,0"/>
   <path id="svg_13" fill-rule="evenodd" fill-opacity="0.231373" fill="#666600" d="m40.6,63.4l0.05,0.05l0.1,0.2l-0.1,0l-0.05,-0.2l0,-0.05"/>
   <path id="svg_14" fill-rule="evenodd" fill="#e2dacb" d="m38.1,71.25l-0.25,-0.1l0.6,0.15l-0.35,-0.05m-6.4,-2.9l0.05,0.3l-0.15,-0.55l0.1,0.25m9.45,-4.2l0.15,-0.1l-0.15,0.1"/>
   <path id="svg_15" fill-rule="evenodd" fill="#81754e" d="m39.7,69.65l0.05,0l0,1.25q-0.45,0.2 -0.85,0.45l-0.15,0.05l-0.3,-0.1l-0.6,-0.15l-0.1,0l0,-1l0.75,-0.5l0.4,0l0.8,0m-2.75,-0.05l0.05,0.05l-0.25,1l-0.75,0.5l-0.35,-0.2l-0.65,-0.3l0.3,-0.55l0.2,-0.45l0.75,-0.25l0.05,0l0.65,0.2m-2.45,-0.2l0,0.5l-1,0.75l-0.45,-0.15l-0.3,-0.1l0,-0.75l0,-0.05l0.2,-0.75l0.05,-0.2l0.6,0.1l0.4,0.05l0.5,0.1l0,0.5m-2.75,-0.75q0.1,0.55 -0.25,0.75l-0.5,0l-1.2,0l-0.05,0l-0.15,-0.8l-0.1,-0.45l0.5,-0.5l1.5,0l0.1,0.45l0.15,0.55"/>
   <path id="svg_16" stroke-width="0.05" stroke-opacity="0.321569" stroke-linejoin="round" stroke-linecap="round" stroke="#660000" fill="none" d="m35.5,61.65l-1.5,-1.25l-0.15,-0.15m3.65,0l0.05,0.05l0.1,0.15l0.35,0.45l0.85,0.95l0.5,0.55l0.45,0.45l0.3,0.35l0.25,0.3l0.15,0.15l0.3,0.25m0.2,-0.15l-0.05,-0.15l-0.2,-0.45l-0.15,-0.4l-0.6,-1.1l-1.1,-1.4m1,0l0.1,0.1l1.25,2.05l0.6,1.2l0,0.05q0.55,0.1 0.9,0.5l0.25,0.25l0.1,0.1l0.15,0.4l-0.75,0.7l0.25,0.8l-0.25,0.5l-0.35,0.1l-0.4,0.1l-0.65,0.45l-0.1,0.1l-0.5,0.65l-0.35,0.15l-0.45,1.15l0,0.05l0.05,0l0,1.25q-0.45,0.2 -0.85,0.45l0.1,0.3l0,1l-0.75,0.75l-0.25,-0.5l0.1,-1.65l-0.25,-0.1l-0.1,0l0,-1l0.75,-0.5l0.4,0l0.75,-2.15l-0.4,0.4l-0.35,-0.2l-0.55,-0.55l-0.75,0.15l0,0.05l0.05,0.15l-0.05,0.15l-0.45,0.05q-0.75,0 -0.9,-0.3l-0.05,-0.1l0,0.05l-1.7,2.05l0,0.5l-1,0.75l-0.45,-0.15l-0.55,0.4l-0.75,0.25l-1,1l-0.25,-0.5l0.25,-1l1.25,-0.75l0.65,-0.25m4.3,-0.05l0.05,0.05l-0.25,1l-0.75,0.5l-0.35,-0.2l-0.65,0.7l-0.75,0.5l-1,0.25l0.25,-1l1,-1l0.8,-0.3l0.2,-0.45l0.75,-0.25l0.05,0l1.3,-1.75m-4.65,1.2l0.05,-0.2l0.6,0.1m0.5,-0.05l1.4,-1.75l0.05,-0.1l-0.5,-0.2l-0.05,0l-0.35,-0.2l-0.05,-0.1l0.15,-0.35q0.1,-0.2 -0.3,-0.5l0.55,-0.35l1.75,-0.5l1.45,-0.55l-0.8,-0.75l-0.25,-0.2l-0.3,-0.3l-0.85,-0.8l-0.5,-0.4m-1.05,4.85l-2.75,1.85l0.05,0.3q0.1,0.55 -0.25,0.75l-0.5,0m-2,0.5l-1.5,1l0.25,-1l1.25,-1l0.6,-0.3l-0.1,-0.45l0.5,-0.5l1.5,0l2.95,-2.15m4.05,-1.1l-0.3,-0.3m3.1,-0.05q0.25,-0.45 0.45,-0.4l0.1,0m-0.55,0.4l-0.15,0.1l-0.35,-0.25m0.35,0.25l-0.15,-0.4m-9.4,4.35l-0.1,-0.45m-1.75,1.75l-0.15,-0.8m0.2,0.8l-0.05,0l-0.75,0.5m0.75,-0.5l0.05,0l1.2,0m7.5,-5l-0.25,0.75l-0.35,0.15q-0.35,0.15 -0.15,0.35q0.4,0.35 1.25,0.5l1.75,-0.5l1.25,0.25l0.5,-0.3m-6.95,1.25l0.45,-0.5l0.25,0.65l0,0.25l-0.05,0.05m0.75,2.3l-0.65,-0.2m3.85,-0.95l-0.15,-0.05l0.05,-0.05l0.15,-0.35l-0.55,-0.5m0.05,2.15l-0.8,0m-4.3,-3.3l-0.15,0.15m-2.75,1.85l-0.1,-0.25m1.15,1.55l0,-0.05l-0.1,0.05m0.1,-0.05l0.2,-0.75m1.05,-0.05l0.1,-0.1m0.4,0.7l0,-0.5l-0.5,-0.1l-0.4,-0.05m1.7,1.35l-0.3,0.55l0.65,0.3m-2.9,-1.3l0,0.75l0.3,0.1m5.85,0.85l-0.15,0.05l-0.3,-0.1l-0.35,-0.05"/>
  </g>
  <g id="shape2">
   <path id="svg_17" fill-rule="evenodd" fill="#544630" d="m8,1.4l-1.5,-1.25l-0.15,-0.15l1.5,0q-0.45,0.25 0.3,1.2l-0.15,0.2m1.05,-1.4l0.95,0l0.05,0.05l-0.15,0.15l-0.85,-0.2"/>
   <path id="svg_18" fill-rule="evenodd" fill="#544630" d="m12.65,8.2l-0.45,1.15l0,0.05l-0.8,0l0.75,-2.15l0.55,0.5l-0.15,0.35l-0.05,0.05l0.15,0.05m-1.25,2.9l0.1,0.3l0,1l-0.75,0.75l-0.25,-0.5l0.1,-1.65l0.35,0.05l0.3,0.1l0.15,-0.05m0,-3.65l-1.95,1.9l-0.65,-0.2l1.3,-1.75l0.05,-0.15l-0.05,-0.15l0,-0.05l0.75,-0.15l0.55,0.55m-3.25,3.25l-0.65,0.7l-0.75,0.5l-1,0.25l0.25,-1l1,-1l0.8,-0.3l-0.3,0.55l0.65,0.3m0.55,-3.65l0,0.05l-1.7,2.05l0,-0.5l-0.5,-0.1l0.1,-0.1l1.4,-1.75l0.05,-0.1l0.45,-0.5l0.25,0.65l0,0.25l-0.05,0.05m-3.15,3.2l-0.55,0.4l-0.75,0.25l-1,1l-0.25,-0.5l0.25,-1l1.25,-0.75l0.65,-0.25l0.1,-0.05l0,0.05l0,0.75l0.3,0.1m1.4,-4l-2.75,1.85l-0.1,-0.25l-0.1,-0.45l2.95,-2.15q0.4,0.3 0.3,0.5l-0.15,0.35l-0.15,0.15m-5.45,3.4l-1.5,1l0.25,-1l1.25,-1l0.6,-0.3l0.15,0.8l-0.75,0.5m9.2,-5.8l-0.8,-0.75l0.8,0.75l0.3,0.3l-0.3,-0.3m-2.25,-2.1l-0.1,-0.1l-0.2,-0.35l-0.05,-0.05l0.05,0l0.05,0.05l0.4,0.3l-0.15,0.15"/>
   <path id="svg_19" fill-rule="evenodd" fill="#544630" d="m8.5,1.8l-0.5,-0.4l0.15,-0.1l0.2,0.35l0.1,0.1l0.05,0.05"/>
   <path id="svg_20" fill-rule="evenodd" fill="#544630" d="m7.85,0l1.2,0l0.85,0.2l0.25,0l0.35,0.45l0.85,0.95l0.5,0.55l0.45,0.45l0.3,0.35l0.25,0.3l0.15,0.15l0.3,0.25l0.35,0.25l0.15,-0.1q0.25,-0.45 0.45,-0.4l0.1,0q0.55,0.1 0.9,0.5l0.25,0.25l0.1,0.1l0.15,0.4l-0.75,0.7l0.25,0.8l-0.25,0.5l-0.35,0.1l-0.4,0.1q-0.45,0.15 -0.65,0.45l-0.1,0.1l-0.5,0.65l-0.35,0.15l-0.1,-0.1l0.15,-0.35l-0.55,-0.5l-0.4,0.4l-0.35,-0.2l-0.55,-0.55l-0.75,0.15l0,0.05l0.05,0.15l-0.05,0.15l-0.45,0.05q-0.75,0 -0.9,-0.3l-0.05,-0.1l0.05,-0.05l0,-0.25l-0.25,-0.65l-0.45,0.5l-0.5,-0.2l-0.05,0l-0.35,-0.2l-0.05,-0.1l0.15,-0.35q0.1,-0.2 -0.3,-0.5l0.55,-0.35l1.75,-0.5l1.45,-0.55l0.3,0.3l-0.3,-0.3l-0.8,-0.75l-0.25,-0.2l-0.3,-0.3l-0.85,-0.8l-0.05,-0.05l0.15,-0.15l-0.4,-0.3l-0.05,-0.05l-0.05,0l0.05,-0.05q-0.75,-0.95 -0.3,-1.2m7.15,5.35l-0.5,0.3l-1.25,-0.25l-1.75,0.5q-0.85,-0.15 -1.25,-0.5q-0.2,-0.2 0.15,-0.35l0.35,-0.15l0.25,-0.75l-0.25,0.75l-0.35,0.15q-0.35,0.15 -0.15,0.35q0.4,0.35 1.25,0.5l1.75,-0.5l1.25,0.25l0.5,-0.3"/>
   <path id="svg_21" fill-rule="evenodd" fill="#544630" d="m8,1.4l0.15,-0.2l-0.05,0.05l0.05,0.05l-0.15,0.1"/>
   <path id="svg_22" fill-rule="evenodd" fill="#544630" d="m7.35,2.3l-0.2,0.05l0.3,-0.1l-0.1,0.05"/>
   <path id="svg_23" fill-rule="evenodd" fill="#544630" d="m13.5,3.5l-0.05,-0.15l-0.2,-0.45l-0.15,-0.4l-0.6,-1.1l-1.1,-1.4l1,0l0.1,0.1l1.25,2.05l0.6,1.2l-0.1,0.05q-0.2,-0.05 -0.45,0.4l-0.15,0.1l-0.15,-0.4"/>
   <path id="svg_24" fill-rule="evenodd" fill="#544630" d="m10.05,0.05l0.1,0.15l-0.25,0l0.15,-0.15"/>
   <path id="svg_25" fill-rule="evenodd" fill="#544630" d="m13.3,3.65l0.2,-0.15l0.15,0.4l-0.35,-0.25m1.05,-0.3l0,0.05l-0.1,0l0.1,-0.05m-9.2,6.05l-0.45,-0.2q0.4,-0.4 0.65,-0.55l0.1,-0.05l-0.2,0.75l0,0.05l0,-0.05l-0.1,0.05m0.95,-0.9l0.3,-0.05l0.2,0l-0.1,0.1l-0.4,-0.05m1.9,-1.8l-0.45,-0.3l0.5,0.2l-0.05,0.1m-0.85,-0.5l-0.2,0.05l0.15,-0.15l0.05,0.1m-3.65,2.95l-0.05,0.1l-0.85,0.25l-1,0.15l-0.1,0l0.75,-0.5l0.05,0l1.2,0m6.15,-6.25l-0.25,0.05l-0.15,-0.3l0.1,-0.05l0.3,0.3m-7.4,6.25l0.05,0l-0.05,0"/>
   <path id="svg_26" fill-rule="evenodd" fill-opacity="0.231373" fill="#544630" d="m13.1,3.15l0.05,0.05l0.1,0.2l-0.1,0l-0.05,-0.2l0,-0.05"/>
   <path id="svg_27" fill-rule="evenodd" fill="#544630" d="m10.6,11l-0.25,-0.1l0.6,0.15l-0.35,-0.05m-6.4,-2.9l0.05,0.3l-0.15,-0.55l0.1,0.25m9.6,-4.3l-0.15,0.1l0.15,-0.1"/>
   <path id="svg_28" fill-rule="evenodd" fill="#544630" d="m12.2,9.4l0.05,0l0,1.25q-0.45,0.2 -0.85,0.45l-0.15,0.05l-0.3,-0.1l-0.6,-0.15l-0.1,0l0,-1l0.75,-0.5l0.4,0l0.8,0m-2.75,-0.05l0.05,0.05l-0.25,1l-0.75,0.5l-0.35,-0.2l-0.65,-0.3l0.3,-0.55l0.2,-0.45l0.75,-0.25l0.05,0l0.65,0.2m-2.45,-0.2l0,0.5l-1,0.75l-0.45,-0.15l-0.3,-0.1l0,-0.75l0,-0.05l0.2,-0.75l0.05,-0.2l0.6,0.1l0.4,0.05l0.5,0.1l0,0.5m-2.75,-0.75q0.1,0.55 -0.25,0.75l-0.5,0l-1.2,0l-0.05,0l-0.15,-0.8l-0.1,-0.45l0.5,-0.5l1.5,0l0.1,0.45l0.15,0.55"/>
   <path id="svg_29" stroke-width="0.05" stroke-opacity="0.321569" stroke-linejoin="round" stroke-linecap="round" stroke="#544630" fill="none" d="m8,1.4l-1.5,-1.25l-0.15,-0.15m3.65,0l0.05,0.05l0.1,0.15l0.35,0.45l0.85,0.95l0.5,0.55l0.45,0.45l0.3,0.35l0.25,0.3l0.15,0.15l0.3,0.25m0.2,-0.15l-0.05,-0.15l-0.2,-0.45l-0.15,-0.4l-0.6,-1.1l-1.1,-1.4m1,0l0.1,0.1l1.25,2.05l0.6,1.2l0,0.05q0.55,0.1 0.9,0.5l0.25,0.25l0.1,0.1l0.15,0.4l-0.75,0.7l0.25,0.8l-0.25,0.5l-0.35,0.1l-0.4,0.1q-0.45,0.15 -0.65,0.45l-0.1,0.1l-0.5,0.65l-0.35,0.15l-0.45,1.15l0,0.05l0.05,0l0,1.25q-0.45,0.2 -0.85,0.45l0.1,0.3l0,1l-0.75,0.75l-0.25,-0.5l0.1,-1.65l-0.25,-0.1l-0.1,0l0,-1l0.75,-0.5l0.4,0l0.75,-2.15l-0.4,0.4l-0.35,-0.2l-0.55,-0.55l-0.75,0.15l0,0.05l0.05,0.15l-0.05,0.15l-0.45,0.05q-0.75,0 -0.9,-0.3l-0.05,-0.1l0,0.05l-1.7,2.05l0,0.5l-1,0.75l-0.45,-0.15l-0.55,0.4l-0.75,0.25l-1,1l-0.25,-0.5l0.25,-1l1.25,-0.75l0.65,-0.25l0.1,-0.05l0.2,-0.75l0.05,-0.2l0.6,0.1m3.35,0.85l0.05,0.05l-0.25,1l-0.75,0.5l-0.35,-0.2l-0.65,0.7l-0.75,0.5l-1,0.25l0.25,-1l1,-1l0.8,-0.3l0.2,-0.45l0.75,-0.25l0.05,0l1.3,-1.75m-3.5,1.05l1.4,-1.75l0.05,-0.1l0.45,-0.5l0.25,0.65l0,0.25l-0.05,0.05m-1.15,-0.65l-0.05,0l-0.35,-0.2l-0.05,-0.1l0.15,-0.35q0.1,-0.2 -0.3,-0.5l0.55,-0.35l1.75,-0.5l1.45,-0.55l-0.8,-0.75l-0.25,-0.2l-0.3,-0.3l-0.85,-0.8l-0.5,-0.4m-1.05,4.85l-2.75,1.85l0.05,0.3q0.1,0.55 -0.25,0.75l-0.5,0m-2,0.5l-1.5,1l0.25,-1l1.25,-1l0.6,-0.3l-0.1,-0.45l0.5,-0.5l1.5,0l2.95,-2.15m4.05,-1.1l-0.3,-0.3m2.95,0.05l-0.15,-0.4m0.15,0.4l-0.35,-0.25m0.5,0.15l-0.15,0.1m0.15,-0.1q0.25,-0.45 0.45,-0.4l0.1,0m-10.25,4.45l-0.1,-0.45m-1.75,1.75l0.05,0l1.2,0m-1.2,0l-0.05,0l-0.75,0.5m0.75,-0.5l-0.15,-0.8m8.9,-4.2l-0.25,0.75l-0.35,0.15q-0.35,0.15 -0.15,0.35q0.4,0.35 1.25,0.5l1.75,-0.5l1.25,0.25l0.5,-0.3m-5.55,4l-0.65,-0.2m3.85,-0.95l-0.15,-0.05l0.05,-0.05l0.15,-0.35l-0.55,-0.5m0.05,2.15l-0.8,0m-4.3,-3.3l-0.15,0.15m1.1,0.35l-0.5,-0.2m-3.35,1.7l-0.1,-0.25m1.15,1.55l0,-0.05m1.75,-0.2l0,-0.5l-0.5,-0.1l-0.4,-0.05m0.4,0.05l0.1,-0.1m1.2,1.4l-0.3,0.55l0.65,0.3m-2.9,-1.3l0,0.75l0.3,0.1m5.4,0.8l-0.35,-0.05m0.8,0.1l-0.15,0.05l-0.3,-0.1"/>
  </g>
  <g transform="matrix(1,0,0,1,-1.15,-10.2) " id="shape3">
   <path id="svg_30" fill-rule="evenodd" fill="#fffdea" d="m39.75,11.2l-31.25,6.7q12.2,-9.35 27.45,-7.35l3.8,0.65m-33,9.85l4.25,1.1l1.6,3.35l-7.8,-3.35l1.95,-1.1m38.15,2.85l-26.85,2.1l24.65,-8.15l1,3.5l0,-0.9l1.2,3.45m-30.7,16.6l2.35,2.15l0.95,1.3q-0.65,3.05 2.55,5.9l1.6,1.3l-4.6,-0.95l-2.9,-3.1l1.15,-3.55l-0.75,-0.95l-1,1.05l0.1,1.5l-1,-1.45l-3.5,1.35l1.55,-2.75l-2.55,1.4l-0.3,2l-5.55,1.55l-0.45,-0.1l-0.1,-0.35l3.7,-2.45l-0.8,-0.85l0.15,-0.05l3.3,-1.2l-0.65,0.2l1.85,-0.7l4.45,-1.7l0.45,0.45m19.8,10.5l7,-9.35l3.9,1.7l-7.05,7.4l-3.85,0.25m-31.7,-3.7l-0.4,0l-0.05,-0.1l0.45,0.1m26.05,5.85l-9.1,-1.55l-2.2,-1.35l4.6,0.9q2.85,1.25 6.7,2"/>
   <path id="svg_31" fill-rule="evenodd" fill="#d9cebf" d="m52.75,29.2l-3.65,-4.4l-6.05,-6.15l0.65,1.8l0,0.9l-1,-3.5l-24.65,8.15l26.85,-2.1l1,2.9l-28.95,2.4l-0.2,-0.45l-0.85,1l-3.05,2.1l0.4,-2.6l-9.85,-5.85l1.4,-1.25l7.8,3.35l-1.6,-3.35l-4.25,-1.1l1.75,-3.15l31.25,-6.7l13.85,13.6l-0.85,4.4l0.9,-4.4l1.15,1.7l-0.2,0.25l-1.7,2.75l-0.15,-0.3m-36.2,13.45l0.65,0.15l0.3,1.15l-0.95,-1.3m14.55,10.35l1.95,-1.65l0.6,0.15l0.35,-0.5l3.85,-0.25l-0.1,3.6l0.05,0.45l-2.15,0.2l-5.6,-0.4l-4.25,3.3l-5.45,-2.4l-3.8,0.9l-2.95,-3.2l-3.2,1.3l-2.1,-2.05l-0.15,-0.2l-1.75,-1.75l-3.15,0.65l-1.45,-3.95l0.05,0l0.05,0.1l0.4,0l6.75,1.35l1.05,0.85l-0.3,-0.7l7.25,1.45l2.2,1.35l9.1,1.55l1.7,0.3l1.05,-0.4l6.65,1.3l-6.65,-1.35m15.75,-10l0.85,0l-0.45,0l-0.4,0m-42.25,0.4l0.2,0.05l-0.15,0.05l-0.05,-0.1m7.75,-6.9l1,2.85l-1.35,0.5l0.35,-3.35m-3.2,8.55l3.5,-1.35l1,1.45l0.5,1.95l2.9,3.1l-7.25,-1.45l-0.65,-3.7m-1.3,0.65l-0.15,0.95l1.35,1.95l-6.75,-1.35l5.55,-1.55m-6.1,1.1l0.1,0.35l-0.05,0l-0.05,-0.35"/>
   <path id="svg_32" fill-rule="evenodd" fill="#bca887" d="m43.7,20.45l-0.65,-1.8l6.05,6.15l3.65,4.4l-2.15,10.7l-1.8,4.55l-0.25,-2.1l-0.85,0.65l0.85,-0.65l0.25,2.1l-0.1,2.55q-1,4.9 -3.35,8.85l-7.05,-1.4l4.25,-7l4.45,-2.25l0.25,-2.2l0.45,0l-0.85,0l-1.95,0.35l-3.9,-1.7l-7,9.35l-0.35,0.5l-0.6,-0.15l-1.95,1.65l-9.45,-1.85l-1.6,-1.3q-3.2,-2.85 -2.55,-5.9l-0.3,-1.15l-0.65,-0.15l-2.35,-2.15q0.4,-2.1 -0.45,-3.8q-0.85,-1.75 -2.45,-2.1l0,-0.5l0,0.5l-0.2,0.65l0.2,-1.15l-0.05,-0.15l-0.1,-0.4q0.3,-1.55 -1.5,-3.05q-1.8,-1.5 -4.65,-2.05l-0.4,0.15l-0.2,0.1l-1.75,-1.4l0.75,-3.9l9.85,5.85l-0.4,2.6l3.05,-2.1l-0.5,0.8q-1.45,3.15 1.85,4.6q-3.3,-1.45 -1.85,-4.6l0.5,-0.8l1.05,-0.55l28.95,-2.4l-1,-2.9l-1.2,-3.45m-38.9,23l-0.2,-0.05l-1.4,-2.65l6.1,1l-1.85,0.7l0.65,-0.2l-3.3,1.2m26.3,9.6l-1.05,0.4l-1.7,-0.3q-3.85,-0.75 -6.7,-2l9.45,1.9m-25.6,2l27.7,4.4l5.1,-5l7.05,1.4q-1.15,1.15 -2.75,2.05q-0.55,2.75 -7.3,3.45q-6.8,0.7 -15.8,-1.1l2.8,-0.6l-6.15,-0.45l-11,-3l0.35,-1.15m45.1,-15.15l2.15,-10.7l0.15,0.3l1.7,-2.75l0.3,0.35l-4.3,12.8m-13.05,-7.95q3.5,1.25 7,0.95l3,-0.2l1.55,-7.9l-1.55,7.9l-3,0.2q-3.5,0.3 -7,-0.95l-0.2,-0.1l-0.15,-0.05l-0.85,-0.3l-3.25,-1.15q-6.25,1 -12.1,3.3l-2.2,0.9l-1.05,0.55l-0.5,0.05l-0.15,0.75l-0.05,3.3l2.4,8.1l4.55,2.45l6.5,-0.55l5.95,-7.2l0.35,-0.45l2.5,-3l-1.1,-3.8l-0.65,-2.8"/>
   <path id="svg_33" fill-rule="evenodd" fill="#211e14" d="m4.6,28.6l0.4,-0.15l6.15,5.1l0.1,0.4l0.05,0.15l-0.2,1.15l-0.6,1.15q-5,7.6 -7.8,-2.05l-0.05,-0.2l2.05,-5.25l-0.1,-0.3m32.95,3.35l0.65,2.8l-1.4,6.8l-0.35,0.45l-10.8,4.8l-6.1,-2.4l-2.5,-5.2l0.05,-3.3l0.65,-0.8l1.05,-0.55l17.55,-3.05l0.85,0.3l0.15,0.05l0.2,0.1"/>
   <path id="svg_34" fill-rule="evenodd" fill="#544630" d="m5,28.45q2.85,0.55 4.65,2.05q1.8,1.5 1.5,3.05l-6.15,-5.1m6.3,6.15q1.6,0.35 2.45,2.1q0.85,1.7 0.45,3.8l-0.45,-0.45l-4.45,1.7l-6.1,-1l-1.65,-4.7l0.85,-1.65l0.3,-0.05q2.8,9.65 7.8,2.05l0.6,-1.15l0.2,-0.65m33.6,8.75l1.95,-0.35l0.4,0l-0.25,2.2l-4.45,2.25l-4.25,7l-5.1,5l-2.75,-2.7l5.3,-1.5l-0.1,-0.25l2.15,-0.2l-0.05,-0.45l0.55,0.1l-0.55,-0.1l0.1,-3.6l7.05,-7.4m3.9,1.1l1.8,-4.55l4.3,-12.8l0.95,5.45l-1.7,7.35l-4.8,6.5l1.25,-6.5l-1.3,6.45l-0.6,0.65l0.1,-2.55m-36.45,-7.95l-0.35,3.35l1.35,-0.5l-1,-2.85m25.85,-1.75l1.1,3.8l-2.5,3l1.4,-6.8m-1.75,7.25l-5.95,7.2l-6.5,0.55l-4.55,-2.45l-2.4,-8.1l2.5,5.2l6.1,2.4l10.8,-4.8m-19.35,-6.1l0.15,-0.75l0.5,-0.05l-0.65,0.8m1.7,-1.35l2.2,-0.9q5.85,-2.3 12.1,-3.3l3.25,1.15l-17.55,3.05"/>
   <path id="svg_35" fill-rule="evenodd" fill="#462200" d="m7.85,45.7l0.3,-2l2.55,-1.4l-1.55,2.75l0.65,3.7l-0.75,-0.15l-1.35,-1.95l0.15,-0.95m5.8,-0.55l-0.1,-1.5l1,-1.05l0.75,0.95l-1.15,3.55l-0.5,-1.95m-3.85,3.65l0.3,0.7l-1.05,-0.85l0.75,0.15"/>
   <path id="svg_36" fill-rule="evenodd" fill="#48412b" d="m8.3,52.45l2.1,2.05l3.2,-1.3l2.95,3.2l3.8,-0.9l5.45,2.4l4.25,-3.3l5.6,0.4l0.1,0.25l-5.3,1.5l2.75,2.7l-27.7,-4.4l2.55,-2.7l0.25,0.1m14,7.2l-2.8,0.6l-3.35,-1.05l6.15,0.45"/>
   <path id="svg_37" fill-rule="evenodd" fill="#dbd9b4" d="m54.8,26.5l0.05,0.1l0.05,0.4l0,0.1l-0.3,-0.35l0.2,-0.25"/>
   <path id="svg_38" fill-rule="evenodd" fill="#e2dacb" d="m15.9,29.75l0.85,-1l0.2,0.45l-1.05,0.55m39,-2.7l0,0.05l0,-0.05"/>
   <path id="svg_39" stroke-width="0.05" stroke-opacity="0.321569" stroke-linejoin="round" stroke-linecap="round" stroke="#660000" fill="none" d="m53.6,24.8l-13.85,-13.6m-31.25,6.7l-1.75,3.15m-1.95,1.1l-1.4,1.25m12.5,6.35l0.85,-1m-8.25,-10.85q12.2,-9.35 27.45,-7.35l3.8,0.65m-22.5,23.95q-3.3,-1.45 -1.85,-4.6l0.5,-0.8m-11.3,-1.15l0.4,-0.15q2.85,0.55 4.65,2.05q1.8,1.5 1.5,3.05m0.1,0.4l0.05,0.15l0,0.5m33.6,8.75l1.95,-0.35l0.4,0l0.45,0l0.85,-0.65l0.25,2.1l1.8,-4.55l4.3,-12.8l0.95,5.45m-51.25,-3.95l-0.2,0.1l0.3,0.2m-0.3,-0.2l-1.75,-1.4l0.75,-3.9m-1,11l0.25,-0.25l2.05,-5.25m-1.5,11.85l-1.65,-4.7l0.85,-1.65m0.3,-0.05l-0.05,-0.2m0.55,6.6l1.4,2.65l0.05,0.1m-2.9,3.3l3.7,-2.45l-0.8,-0.85m-1.95,-9.15q2.8,9.65 7.8,2.05l0.6,-1.15l0.2,-0.65m-3.45,11.1l0.3,-2l2.55,-1.4l-1.55,2.75m4.5,0.1l-0.1,-1.5l1,-1.05l0.75,0.95l-1.15,3.55m-9.35,-24.95l1.95,-1.1m1.1,24.65l-0.15,0.95l1.35,1.95m0.75,0.15l-0.65,-3.7m-0.1,3.6l1.05,0.85l-0.3,-0.7m-8,-1.6l1.45,3.95l3.15,-0.65l1.75,1.75l0.15,0.2l2.1,2.05l3.2,-1.3l2.95,3.2l3.8,-0.9l5.45,2.4l4.25,-3.3l5.6,0.4l2.15,-0.2l-0.05,-0.45m-29.7,-2l0.1,-0.1m-0.1,0.1l-2.55,2.7m-3.7,-7.9l-0.05,-0.35m14.4,12.4l-11,-3l0.35,-1.15m8.15,-9.9l0.5,1.95m39.5,-22.3l1.15,1.7m0.05,0.1l0.05,0.4l0,0.05l0,0.05l0,-0.1m-0.75,12.9l-4.8,6.5m-0.25,-21.6l-1.55,7.9l-3,0.2q-3.5,0.3 -7,-0.95l0.65,2.8m-1.4,6.8l-0.35,0.45m-19.4,-2.8l0.05,-3.3l0.15,-0.75l0.5,-0.05l1.05,-0.55l2.2,-0.9q5.85,-2.3 12.1,-3.3l3.25,1.15l0.85,0.3m0.15,0.05l0.2,0.1m-0.75,9.6l1.4,-6.8m7.15,21.1q2.35,-3.95 3.35,-8.85l0.1,-2.55m-31.75,-5.25l2.5,5.2l6.1,2.4l10.8,-4.8m-14.15,17.65l-6.15,-0.45l3.35,1.05q9,1.8 15.8,1.1q6.75,-0.7 7.3,-3.45q1.6,-0.9 2.75,-2.05m3.95,-9.5l-0.6,0.65m-10.85,3.75l-0.1,3.6m7.15,-11l-7.05,7.4"/>
   <path id="svg_40" fill-rule="evenodd" fill="#ffffff" d="m3.2,29.65q2.2,-2.25 5.45,-2.4q3.2,-0.1 5.75,2.05q2.3,2.25 2.65,5.45q0.05,3.35 -2.05,5.65q-2.25,2.4 -5.45,2.5q-3.25,0.15 -5.75,-2.15q-2.5,-2.1 -2.55,-5.45q-0.35,-3.2 1.95,-5.65"/>
   <path id="svg_41" stroke-width="0.05" stroke-linejoin="round" stroke-linecap="round" stroke="#000000" fill="none" d="m3.2,29.65q-2.3,2.45 -1.95,5.65q0.05,3.35 2.55,5.45q2.5,2.3 5.75,2.15q3.2,-0.1 5.45,-2.5q2.1,-2.3 2.05,-5.65q-0.35,-3.2 -2.65,-5.45q-2.55,-2.15 -5.75,-2.05q-3.25,0.15 -5.45,2.4z"/>
   <path id="svg_42" fill-rule="evenodd" fill="#000000" d="m5.05,37.2q-0.05,-0.6 0.45,-1q0.3,-0.4 0.95,-0.4l1.05,0.3l0.4,1q0.05,0.6 -0.3,0.95l-0.95,0.55l-1.05,-0.45q-0.5,-0.35 -0.55,-0.95"/>
   <path id="svg_43" fill-rule="evenodd" fill="#ffffff" d="m18.05,28.5q3.6,-3.7 8.7,-3.85q5.15,-0.2 9.1,3.25q3.8,3.6 4.3,8.65q0.05,5.3 -3.25,9q-3.55,3.85 -8.7,4.05q-5.1,0.15 -9.1,-3.45q-4,-3.45 -4.1,-8.75q-0.45,-5.05 3.05,-8.9"/>
   <path id="svg_44" stroke-width="0.05" stroke-linejoin="round" stroke-linecap="round" stroke="#000000" fill="none" d="m18.05,28.5q-3.5,3.85 -3.05,8.9q0.1,5.3 4.1,8.75q4,3.6 9.1,3.45q5.15,-0.2 8.7,-4.05q3.3,-3.7 3.25,-9q-0.5,-5.05 -4.3,-8.65q-3.95,-3.45 -9.1,-3.25q-5.1,0.15 -8.7,3.85z"/>
   <path id="svg_45" fill-rule="evenodd" fill="#000000" d="m21,40.2q-0.05,-0.95 0.7,-1.55q0.6,-0.6 1.55,-0.65q0.8,-0.05 1.6,0.55q0.65,0.55 0.7,1.5q0.05,1 -0.5,1.6l-1.55,0.85q-0.95,-0.15 -1.6,-0.75q-0.85,-0.55 -0.9,-1.55"/>
   <path id="svg_46" fill-rule="evenodd" fill="#d7d7d7" d="m6.3,38.65l0.6,0.15l0.15,0l1.3,0.05q3.2,-0.1 5.3,-2.5l0.35,-0.4q0.85,3.5 3.6,6.15q3.95,3.55 9.05,3.3q5.1,-0.1 8.45,-3.9q3.5,-3.8 3.2,-8.95l-0.1,-1.3q1.4,2.5 1.6,5.6q0.3,5.15 -3.2,8.95q-3.3,3.8 -8.45,3.9q-5.1,0.25 -9,-3.3q-2.75,-2.65 -3.65,-6.15l-0.35,0.4q-2.1,2.4 -5.3,2.5q-3.25,0.1 -5.7,-2.1q-2.35,-2.2 -2.5,-5.45l1,1.15q1.65,1.45 3.65,1.9"/>
   <path id="svg_47" stroke-width="0.05" stroke-linejoin="round" stroke-linecap="round" stroke="#000000" fill="none" d="m3.05,29.95q-2.1,2.4 -1.9,5.6q0.15,3.25 2.55,5.5q2.5,2.2 5.8,2.1q3.25,-0.1 5.4,-2.5l0.35,-0.4l-0.35,-2.55q-0.25,-3.3 1.1,-6.05q-0.65,-1.15 -1.75,-2.1q-2.4,-2.2 -5.65,-2.1q-3.3,0.1 -5.55,2.5m12.2,10.3q0.9,3.5 3.7,6.15q4,3.55 9.2,3.3q5.2,-0.1 8.6,-3.9q3.55,-3.8 3.25,-8.95q-0.3,-5.15 -4.3,-8.7q-3.8,-3.5 -8.95,-3.35q-5.25,0.2 -8.8,3.95q-1.25,1.35 -1.95,2.9"/>
   <path id="svg_48" fill-rule="evenodd" fill="#003333" d="m81.4,16.15q-1.05,1.8 -1.7,3.55q-7.25,2.2 -19.4,9.25l4.15,-5.15q6.9,-6.8 16.95,-7.65m-3.2,9.25q-0.2,1.9 0,3.7l-7.4,2.25q3,-4.05 7.4,-5.95"/>
   <path id="svg_49" fill-rule="evenodd" fill="#000000" d="m78.2,29.1q0.35,3.35 2.05,6.45l-26.05,-0.95l-0.55,7.1l-4.15,-2.05l2.35,-10.05l6.15,-3.85l11.55,-11.6l14.1,-1.65q-1.3,1.85 -2.25,3.65q-10.05,0.85 -16.95,7.65l-4.15,5.15q12.15,-7.05 19.4,-9.25q-1.2,2.95 -1.5,5.7q-4.4,1.9 -7.4,5.95l7.4,-2.25m-16.65,-5l8.4,-9.35l12.8,-1.5l-12.8,1.5l-8.4,9.35m-8.95,6l8.55,-6l-8.55,6"/>
   <path id="svg_50" stroke-width="2" stroke-linejoin="round" stroke-linecap="round" stroke="#016564" fill="none" d="m82.75,13.25l-12.8,1.5l-8.4,9.35m-0.4,0l-8.55,6"/>
  </g>
  <g id="sprite0">
   <use id="svg_51" xlink:href="#shape4" width="102.95" height="45"/>
  </g>
  <g id="shape4">
   <path id="svg_52" fill-rule="evenodd" fill-opacity="0" fill="#ff00ff" d="m0,0l102.95,0l0,45l-102.95,0l0,-45"/>
  </g>
 </defs>
 <g>
  <title>background</title>
  <rect fill="none" id="canvas_background" height="151" width="173" y="-1" x="-1"/>
 </g>
 <g>
  <title>Layer 1</title>
  <g id="svg_53" transform="matrix(2,0,0,2,0,0) ">
   <use x="35.550003" y="105.5" id="svg_54" xlink:href="#shape0" width="381" transform="matrix(1,0,0,1,-192.55,-294) " height="381"/>
   <use x="35.550003" y="105.5" id="svg_55" xlink:href="#shape1" width="43.25" transform="matrix(1,0,0,1,-34.8,-105) " height="73.4"/>
   <use x="35.550003" y="105.5" id="svg_56" xlink:href="#shape2" width="15.75" transform="matrix(1,0,0,1,-21.45,-50.35) " height="13.15"/>
   <use x="35.550003" y="105.5" id="svg_57" xlink:href="#shape3" width="82.6" transform="matrix(1,0,0,1,-33.65,-94.8) " height="51.35"/>
   <use x="-86.598052" y="-113.677591" xlink:href="#sprite0" width="102.95" transform="matrix(1.8072000000000004,0,0,1.6538,94.80000305175781,187.3) " id="_mcMask" height="45"/>
  </g>
 </g>
</svg>