<svg width="241" height="292" xmlns="http://www.w3.org/2000/svg" xmlns:xlink="http://www.w3.org/1999/xlink">
 <defs>
  <g transform="matrix(1,0,0,1,192.55,294) " id="shape0">
   <path id="svg_1" stroke-opacity="0" stroke-linejoin="round" stroke-linecap="round" stroke="#ff00ff" fill="none" d="m187.95,-293.5l0,380l-379.95,0l-0.05,0l0,-380l380,0m-95,294.1l-189.95,0"/>
   <path id="svg_2" stroke-opacity="0" stroke-linejoin="round" stroke-linecap="round" stroke="#ff00ff" fill="none" d="m187.95,-293.5l-190,190l190,190m-379.95,0l189.95,-190l-190,-190"/>
  </g>
  <g transform="matrix(1,0,0,1,104.95,130.5) " id="sprite0">
   <use id="svg_3" xlink:href="#sprite1" width="204.15" transform="matrix(1.0236,0,0,1.0236,-104.4543,-130.0432) " height="253.9"/>
   <use id="svg_4" xlink:href="#shape4" width="209.95" transform="matrix(1,0,0,1,-104.95,-130.5) " height="223.35"/>
  </g>
  <g transform="matrix(1,0,0,1,102.05,127.05) " id="sprite1">
   <use id="svg_5" xlink:href="#shape1" width="189.45" transform="matrix(1,0,0,1,-87.35,-125.4) " height="252.25"/>
   <use id="svg_6" xlink:href="#sprite2" width="2.25" transform="matrix(2.6021,-0.211,0.2861,1.9194,57.156,18.5311) " height="8.45"/>
   <use id="svg_7" xlink:href="#sprite2" width="2.25" transform="matrix(-3.8932,0.3157,0.428,2.8718,60.7295,14.9752) " height="8.45"/>
   <use id="svg_8" xlink:href="#sprite2" width="2.25" transform="matrix(2.4374,0.0028,-0.0027,2.56,20.9084,29.1949) " height="8.45"/>
   <use id="svg_9" xlink:href="#sprite2" width="2.25" transform="matrix(3.5214,0.9955,-0.9478,3.6985,19.4811,28.0213) " height="8.45"/>
   <use id="svg_10" xlink:href="#shape3" width="136.3" transform="matrix(1,0,0,1,-102.05,-127.05) " height="215"/>
  </g>
  <g transform="matrix(1,0,0,1,87.35,125.4) " id="shape1">
   <path id="svg_11" fill-rule="evenodd" fill="url(#gradient0)" d="m25.75,74.9q-0.1,10.35 16.2,14.2q-14.5,3.45 -5.15,14.7q-20.25,2.75 -21.55,15.7q-19.6,-3.75 -26.3,7.35q-12.6,-10.55 -30.4,-4.65q-2.2,-13.1 -28,-13.8q1.85,-15.45 -17.9,-17.15q30,0.45 27.45,-8.05q17,-0.55 12,-13.5q20.5,8 30.35,-4q5.65,21.45 43.3,9.2"/>
   <path id="svg_12" fill-rule="evenodd" fill="#000000" d="m16.1,88.3q-16.65,-0.15 -20.25,-13.05q-6.6,-6.25 -6.75,-25q0.15,-2.9 0.15,-5.8l-5.3,-5.3l-15.9,-3.5l-12.15,3.15q-5.45,4.35 -3.5,10.1q10,26.75 8.05,32.05q-1.1,3.35 -17.45,9q24.8,19.05 44.45,16.65q16,-2.05 28.65,-18.3"/>
   <path id="svg_13" stroke-width="0.25" stroke-opacity="0.470588" stroke-linejoin="round" stroke-linecap="round" stroke="#000000" fill="none" d="m-57,89.95q16.35,-5.65 17.45,-9q1.95,-5.3 -8.05,-32.05q-1.95,-5.75 3.5,-10.1l12.15,-3.15l15.9,3.5l5.3,5.3q0,2.9 -0.15,5.8q0.15,18.75 6.75,25q3.6,12.9 20.25,13.05"/>
   <path id="svg_14" fill-rule="evenodd" fill="#000000" d="m-0.8,43.95q-8.85,-6.65 -28.9,-5.7l-4.45,6.4q0,10.35 4.25,19.35q9.2,4.8 15.1,-0.35q3.85,-14.35 11.05,-17.85l2.95,-1.85"/>
   <path id="svg_15" fill-rule="evenodd" fill="#171d18" d="m-29.9,64q-4.25,-9 -4.25,-19.35l4.45,-6.4q20.05,-0.95 28.9,5.7q5.15,-4.05 7,-12.55q2.6,-10.65 -2.95,-17.85q-5.35,-7.4 -22.65,-2.95q-17.15,4.4 -23.05,12.9q-5.9,8.3 -5.9,16.95q0,8.45 6.65,14.35l1.65,1.5q5.55,5.15 10.15,7.7"/>
   <path id="svg_16" fill-rule="evenodd" fill="#262615" d="m-4.85,-9.7l1.8,-2.35l0.5,-2.6l9.1,1.1l10.65,-12.15l23.35,34.65q-16.6,5.05 -25.25,32.95l-2.9,15.4q-1.5,-17.55 -5,-24.4q-4.9,6.05 -6.65,23q-1.4,-22.7 -6.1,-32.65l-1.85,9.95q0,-11.3 -4.95,-7.7q6.25,-15.4 7.3,-35.2m-1.8,30.5l1.3,2.45l-1.3,-2.45"/>
   <path id="svg_17" stroke-width="0.5" stroke-opacity="0.4" stroke-linejoin="round" stroke-linecap="round" stroke="#000000" fill="none" d="m-4.85,-9.7q-1.05,19.8 -7.3,35.2q4.95,-3.6 4.95,7.7l1.85,-9.95l-1.3,-2.45m1.3,2.45q4.7,9.95 6.1,32.65q1.75,-16.95 6.65,-23q3.5,6.85 5,24.4l2.9,-15.4q8.65,-27.9 25.25,-32.95"/>
   <path id="svg_18" fill-rule="evenodd" fill-opacity="0.588235" fill="#666633" d="m75.75,-122.35q1.4,1.4 1.4,3.35q0,1.95 -1.4,3.35q-1.4,1.4 -3.35,1.4q-1.95,0 -3.35,-1.4q-1.4,-1.4 -1.4,-3.35q0,-1.95 1.4,-3.35q1.4,-1.4 3.35,-1.4q1.95,0 3.35,1.4"/>
   <path id="svg_19" fill-rule="evenodd" fill-opacity="0.490196" fill="#d6d6ad" d="m69.6,-120.3q0,-0.75 0.55,-1.3q0.5,-0.55 1.3,-0.55q0.75,0 1.3,0.55q0.5,0.55 0.5,1.3q0,0.75 -0.5,1.3q-0.55,0.5 -1.3,0.5q-0.8,0 -1.3,-0.5q-0.55,-0.55 -0.55,-1.3"/>
   <path id="svg_20" fill-rule="evenodd" fill="#7e6501" d="m87.2,-119.55q-4.6,-2.9 5.05,-2.95l1.6,0.9q9.85,9.6 7.55,12.5l-7.95,-7.2q-2.9,-2.65 -6.25,-3.25m-19.05,2.1q2.55,0.8 1.4,8.5q-1.4,2.1 -2.65,4.55q-0.95,-6.65 -5.4,-4.7q2.8,-4.55 6.65,-8.35m-13.7,32.3q6.15,-18 5.6,-5.65q-1.05,12.55 -5.45,17.35l-0.2,-2.75q-0.25,-4.7 0.05,-8.95m6,36.3q6.65,-7.3 5.6,-19.4q2.65,6.7 4.6,14.15q-0.45,11.45 -8.8,12.05q-0.4,-3.35 -1.4,-6.7l0,-0.1m12.25,34.15q-6.75,-0.9 -5.65,-12.3q2.6,-11.2 6.35,-12.9q1.15,15.3 -0.7,25.2"/>
   <path id="svg_21" fill-rule="evenodd" fill="#666600" d="m92.25,-122.5q-9.65,0.05 -5.05,2.95q-3.6,-0.75 -7.75,0.75q-5.6,3.3 -9.9,9.85q1.15,-7.7 -1.4,-8.5l2.6,-2.4q10.5,-8.45 21.5,-2.65m-30.75,13.4q4.45,-1.95 5.4,4.7l-2.4,5.25q-4.65,16.15 0.8,29.05l0.75,1.85q1.05,12.1 -5.6,19.4q-4.95,-13.75 -5.85,-24.6q4.4,-4.8 5.45,-17.35q0.55,-12.35 -5.6,5.65q0.8,-13.8 7.05,-23.95m9.15,55q1.55,6 2.6,12.55l0.15,1.65q-3.75,1.7 -6.35,12.9q-1.1,11.4 5.65,12.3q-0.85,4.25 -2.2,7.5q-9.25,-1.55 -11.1,-16.55q3.5,-9 2.45,-18.3q8.35,-0.6 8.8,-12.05"/>
   <path id="svg_22" stroke-width="0.5" stroke-opacity="0.239216" stroke-linejoin="round" stroke-linecap="round" stroke="#99cc00" fill="none" d="m92.25,-122.5q-9.65,0.05 -5.05,2.95m-19.05,2.1q2.55,0.8 1.4,8.5m-1.4,-8.5l-0.15,-0.85m-1.1,13.9q-0.95,-6.65 -5.4,-4.7m-7.05,23.95q6.15,-18 5.6,-5.65q-1.05,12.55 -5.45,17.35m5.85,24.6q6.65,-7.3 5.6,-19.4m4.6,14.15q-0.45,11.45 -8.8,12.05m10.85,27.35q-6.75,-0.9 -5.65,-12.3q2.6,-11.2 6.35,-12.9m-0.7,25.2l0.35,0.95"/>
   <path id="svg_23" stroke-width="0.5" stroke-opacity="0.4" stroke-linejoin="round" stroke-linecap="round" stroke="#000000" fill="none" d="m87.2,-119.55q3.35,0.6 6.25,3.25l7.95,7.2q2.3,-2.9 -7.55,-12.5l-1.6,-0.9q-11,-5.8 -21.5,2.65l-2.6,2.4q-3.85,3.8 -6.65,8.35q-6.25,10.15 -7.05,23.95q-0.3,4.25 -0.05,8.95l0.2,2.75q0.9,10.85 5.85,24.6l0,0.1q1,3.35 1.4,6.7q1.05,9.3 -2.45,18.3m10.15,-85.2q4.3,-6.55 9.9,-9.85q4.15,-1.5 7.75,-0.75m-20.3,15.15q1.25,-2.45 2.65,-4.55m-3.5,40.7l-0.75,-1.85q-5.45,-12.9 -0.8,-29.05l2.4,-5.25m3.75,50.3q-1.95,-7.45 -4.6,-14.15m7.35,28.35l-0.15,-1.65q-1.05,-6.55 -2.6,-12.55m-0.15,46.9q1.35,-3.25 2.2,-7.5m0.7,-25.2q1.15,15.3 -0.7,25.2"/>
   <path id="svg_24" fill-rule="evenodd" fill-opacity="0.301961" fill="#000000" d="m94.9,-118.35q2.75,2.8 5.75,4.6q1.9,3.15 0.75,4.6l-7.95,-7.15q-2.9,-2.6 -6.25,-3.3q-3.6,-0.7 -7.75,0.8q-5.6,3.3 -9.9,9.85q-1.4,2.1 -2.65,4.55l-2.4,5.25q-4.65,16.15 0.8,29.1l0.75,1.85q2.65,6.6 4.6,14.1q1.55,6.05 2.6,12.55l0.15,1.65q1.15,15.3 -0.7,25.2q-0.85,4.2 -2.2,7.5q-5.35,-0.9 -8.25,-6.3q2.7,-7.3 3.75,-15.9q0.9,-7.05 -0.05,-13.85l-1.25,-6.3l-1,-3.95l-3.7,-15.55q-1.25,-5.95 -1.55,-12.05q-0.2,-4 0,-8.05q0.15,-3.5 0.85,-6.65q1.35,-6.25 4.6,-11.5q0.55,-0.85 1.25,-1.55l0.25,-0.3q1.95,-3.15 4.4,-5.65q2.5,-2.6 5.5,-4.6q4.7,-3 10.1,-3.15l2.65,0.3q3.75,0.75 6.85,3.9"/>
   <path id="svg_25" fill-rule="evenodd" fill="#666600" d="m52.7,-13.85q4.45,9.6 10.3,4.65q0.7,-6.6 -5.5,-10.5l2,-3.5q8.3,-2 11.25,13.05q-3.2,6.05 -6.6,10.55q-2.6,-9.7 -4.45,-4.2q-1.9,5.95 -0.5,9.9q-9.8,9.55 -21.05,7.2q-9.85,-8.8 -7.1,-23.05q12.95,3.9 21.65,-4.1"/>
   <path id="svg_26" fill-rule="evenodd" fill="#7e6501" d="m57.5,-19.7q6.2,3.9 5.5,10.5q-5.85,4.95 -10.3,-4.65q2.6,-2.4 4.8,-5.85m1.7,25.8q-1.4,-3.95 0.5,-9.9q1.85,-5.5 4.45,4.2q-2.4,3.25 -4.95,5.7"/>
   <path id="svg_27" stroke-width="0.5" stroke-opacity="0.4" stroke-linejoin="round" stroke-linecap="round" stroke="#000000" fill="none" d="m31.05,-9.75l-0.85,-0.25m22.5,-3.85q-8.7,8 -21.65,4.1q-2.75,14.25 7.1,23.05q11.25,2.35 21.05,-7.2m4.95,-5.7q3.4,-4.5 6.6,-10.55m-11.25,-13.05l-2,3.5q-2.2,3.45 -4.8,5.85m11.45,14.25q-2.4,3.25 -4.95,5.7"/>
   <path id="svg_28" stroke-width="0.5" stroke-opacity="0.239216" stroke-linejoin="round" stroke-linecap="round" stroke="#99cc00" fill="none" d="m57.5,-19.7q6.2,3.9 5.5,10.5q-5.85,4.95 -10.3,-4.65m6.5,19.95q-1.4,-3.95 0.5,-9.9q1.85,-5.5 4.45,4.2"/>
   <path id="svg_29" fill-rule="evenodd" fill-opacity="0.301961" fill="#000000" d="m65.4,-22q3.6,2.9 5.35,11.85q-3.2,6.05 -6.6,10.55q-2.4,3.25 -4.95,5.7q-9.8,9.55 -21.05,7.2q-4.35,-3.9 -6.25,-8.8l3.5,-0.6q7.2,-2.15 14.15,-5.55q5.2,-2.55 8.6,-6l1.6,-1.8q1.6,-2 2.85,-4.25q2,-3.85 2.8,-8.3"/>
   <path id="svg_30" fill-rule="evenodd" fill-opacity="0.588235" fill="#666633" d="m90.8,-125.4q1.45,0 2.5,1.05q1.05,1.05 1.05,2.5q0,1.45 -1.05,2.5q-1.05,1.05 -2.5,1.05q-1.45,0 -2.5,-1.05q-1.05,-1.05 -1.05,-2.5q0,-1.45 1.05,-2.5q1.05,-1.05 2.5,-1.05"/>
   <path id="svg_31" fill-rule="evenodd" fill-opacity="0.490196" fill="#d6d6ad" d="m88.7,-122.8q0,-0.6 0.4,-0.95q0.4,-0.4 0.95,-0.4q0.55,0 1,0.4q0.4,0.35 0.4,0.95q0,0.55 -0.4,0.95q-0.45,0.4 -1,0.4q-0.55,0 -0.95,-0.4q-0.4,-0.4 -0.4,-0.95"/>
   <path id="svg_32" fill-rule="evenodd" fill="#666637" d="m16.45,-29.1l0.5,-2.55l4.4,-1.9l12.5,7l21.85,23.65l9.55,18.4q-3.55,6.8 -10.45,0.35l-0.1,-0.35l-23.15,-36.9q-6.4,-7.7 -12.55,-9.75l-2.55,2.05m50.2,76.1l0.1,0.85q0.3,4.15 2,9.35q-3.3,-2.15 -5.6,-4.7l-4.7,-25.65l8.2,20.15m-46.1,-3.15l-6.35,-24.15l-14.65,-28.5l-2.55,-3.25l-1.8,2.3l0.2,-4.6l10.75,-0.2l3.9,3.35l0.05,0.05l-0.05,0l-0.1,0.1q9.45,10.35 15.7,20.7l0,0.05q3.25,5.35 5.6,10.75l0.1,0.25q-2.1,15.2 -6.7,17.8l-3,-10.65l-1.1,16m-3.6,-70.85l1.5,-1.9q9.9,10.25 18.75,26.45l7.85,23.75q-3.8,11.2 -7.85,5.35l-0.15,-0.25l-0.05,-0.05l-16.6,-27.15q-4.6,-10.25 -6.6,-19.65l0.25,-2.7q5.45,7.2 8.4,15.75q2.4,6.85 7.45,11.95q-1.05,-10.65 -6.15,-21.7q-2.7,-5.8 -6.8,-9.85m17.8,23.75l-0.5,-1.15l-0.75,-1.35q-1.1,-1.25 -2.7,-0.75l-0.05,1.85l1.7,2.35l0.55,0.35q0,2.1 1.05,4.15l0.2,0.4l0.5,-0.35l0.6,-0.75q-0.05,-2.2 -0.75,-3.95l0.15,-0.8m-0.2,9.8l-1.45,0.55q-2,2.75 -0.1,5.25l1.45,0.5q2.85,-3.85 0.1,-6.3l0.45,-0.15l-1.9,-0.85l1.45,1"/>
   <path id="svg_33" fill-rule="evenodd" fill="#3e3e22" d="m16.45,-29.1l2.55,-2.05q6.15,2.05 12.55,9.75l23.15,36.9l0.1,0.35q6.9,6.45 10.45,-0.35l6.45,12.35l14.2,17.15q-2.1,-1.4 -4.05,-2.3q-7.95,-3.6 -15,0q-0.3,1.95 -0.2,4.3l-8.2,-20.15l4.7,25.65q-2.05,-2.35 -3.3,-4.95q-3.2,-1.35 -6.65,-2.1l-0.2,-0.05q-6.6,-1.45 -14.15,-0.75l-1.2,6.4q-2.8,-6.7 -5.2,-3.3q1.6,-12.8 -1,-14.65q-2.95,5.2 -3.55,18.9q-1.45,10.25 -7.25,16.95q2.15,-13 0.65,-22.2l-0.75,-2.9l1.1,-16l3,10.65q4.6,-2.6 6.7,-17.8l-0.1,-0.25q-2.35,-5.4 -5.6,-10.75l0,-0.05q-6.25,-10.35 -15.7,-20.7l0.1,-0.1l0.05,0l-0.05,-0.05l-3.9,-3.35l7.75,-8.8l0.15,0.2l-0.25,2.7q2,9.4 6.6,19.65l16.6,27.15l0.05,0.05l0.15,0.25q4.05,5.85 7.85,-5.35l-7.85,-23.75q-8.85,-16.2 -18.75,-26.45l-1.5,1.9l-0.75,-0.7l0.25,-1.4m43.4,76.65q-5.95,-26 -25,-58.65q-6.75,-10.85 -16.05,-18.25l-0.35,0.45l0.35,-0.45q9.3,7.4 16.05,18.25q19.05,32.65 25,58.65m-39.45,-48.35q2.25,5.1 5.25,10.45q-3,-5.35 -5.25,-10.45m53,37.45q-5.85,0.95 -6.55,6.05q0.7,-5.1 6.55,-6.05m-36.1,8.75q-0.6,-12.35 -5.95,-24.7q5.35,12.35 5.95,24.7"/>
   <path id="svg_34" fill-rule="evenodd" fill="#858161" d="m13.9,-23.35l1.9,-2.2l0.4,-2.15l0.75,0.7l-1.15,1.45l1.15,-1.45q4.1,4.05 6.8,9.85q5.1,11.05 6.15,21.7q-5.05,-5.1 -7.45,-11.95q-2.95,-8.55 -8.4,-15.75l-0.15,-0.2m20.85,20.1l-0.15,0.8q0.7,1.75 0.75,3.95l-0.6,0.75l-0.5,0.35l-0.2,-0.4q-1.05,-2.05 -1.05,-4.15l-0.55,-0.35l-1.7,-2.35l0.05,-1.85q1.6,-0.5 2.7,0.75l0.75,1.35l0.5,1.15m-0.2,9.8l-1.45,-1l1.9,0.85l-0.45,0.15q2.75,2.45 -0.1,6.3l-1.45,-0.5q-1.9,-2.5 0.1,-5.25l1.45,-0.55"/>
   <path id="svg_35" stroke-width="0.5" stroke-opacity="0.4" stroke-linejoin="round" stroke-linecap="round" stroke="#000000" fill="none" d="m65.25,15.5l-9.55,-18.4l-21.85,-23.65l-12.5,-7l-4.4,1.9l-0.5,2.55m48.8,44.6l6.45,12.35l14.2,17.15q-2.1,-1.4 -4.05,-2.3q-7.95,-3.6 -15,0q-0.3,1.95 -0.2,4.3m0.1,0.85q0.3,4.15 2,9.35q-3.3,-2.15 -5.6,-4.7q-2.05,-2.35 -3.3,-4.95q-3.2,-1.35 -6.65,-2.1m-0.2,-0.05q-6.6,-1.45 -14.15,-0.75l-1.2,6.4q-2.8,-6.7 -5.2,-3.3q1.6,-12.8 -1,-14.65q-2.95,5.2 -3.55,18.9q-1.45,10.25 -7.25,16.95q2.15,-13 0.65,-22.2l-0.75,-2.9l-6.35,-24.15l-14.65,-28.5l-2.55,-3.25l-1.8,2.3l0.2,-4.6l10.75,-0.2l7.75,-8.8l1.9,-2.2l0.4,-2.15l0.25,-1.4m0.5,2.1l1.5,-1.9l0.35,-0.45q9.3,7.4 16.05,18.25q19.05,32.65 25,58.65m-44.05,-73.1l1.15,-1.45m-3.15,6.55q2,9.4 6.6,19.65m-10.45,-10.25q9.45,10.35 15.7,20.7q-3,-5.35 -5.25,-10.45m46.45,43.5q0.7,-5.1 6.55,-6.05m-42.15,-16.2q-2.35,-5.4 -5.6,-10.75l0,-0.05m5.7,11.05q5.35,12.35 5.95,24.7"/>
   <path id="svg_36" stroke-width="0.5" stroke-linejoin="round" stroke-linecap="round" stroke="#b8bb9d" fill="none" d="m49.5,-6.6l-3.75,-4.5m10.7,13.05l-3.4,-4.45m8.65,15.15l-3.1,-6.4m13.75,26.5l-3.7,-4.85m6.25,6.85l3.45,4.1m-12.15,-15.55l-3.15,-5.75m-65.1,-31l3.4,2.75m23.9,-18.65l-4.55,-2.25m12.95,7.95l-3.55,-3.8m11.2,12.15l-4.1,-4.55m-28.9,22.75l2.7,5m-7.5,-14.65l2.1,4.95m19.2,55.05l-1.5,7.9m0.5,-18.4l1.05,4.8m-4.25,-17.35l2.25,7m-5,-17l1.9,5.6m-5.65,-13.5l2.35,5"/>
   <path id="svg_37" fill-rule="evenodd" fill="#262615" d="m-63.05,43.8l1.75,2.25l-1.75,-2.25m44.95,-17.15q-15.65,6.9 -19.05,35.2l0,15.4q-4.8,-16.95 -9.6,-23.25q-3.75,6.45 -2.3,23.25q-5.7,-22 -12.25,-31.2l0,9.95q-2.1,-11.05 -6.4,-6.95q3.35,-15.8 0.7,-35.3l1.35,-2.5l0,-2.6l9.3,0l8.4,-13.1l29.85,31.1"/>
   <path id="svg_38" stroke-width="0.5" stroke-opacity="0.4" stroke-linejoin="round" stroke-linecap="round" stroke="#000000" fill="none" d="m-61.3,46.05l-1.75,-2.25m-3.95,-30.05q2.65,19.5 -0.7,35.3q4.3,-4.1 6.4,6.95l0,-9.95q6.55,9.2 12.25,31.2q-1.45,-16.8 2.3,-23.25q4.8,6.3 9.6,23.25l0,-15.4q3.4,-28.3 19.05,-35.2"/>
   <path id="svg_39" fill-rule="evenodd" fill="#3e3e22" d="m27.85,27.45l1.55,3.7l-17.15,-3.2l-5.15,-4.95l-5.2,-15.3l3.1,-9.3l-3.1,9.3q-4.75,4.1 -20.2,4.45q-2.7,-12.2 5.4,-28.7q9,4.35 25.8,-8.65l-7.9,23.6l0.75,10.85l6.65,14.7l7.85,2.4l7.6,1.1m-70.1,8.5l3.85,-8.4l0.15,-0.4l14.25,-35.35l7.35,-10.7l23,-22.45l-15.95,18l-4.45,6.15l-0.75,1.05l-9.55,23.45l-6.35,19.9l-11.55,8.75m-5.55,-13.35l0,-8.15l-7.95,-7.55l0,-8.15q1.5,0.6 3.2,0.55q2.9,-0.1 5.7,-0.85q2.2,-0.6 4.2,-1.55q1.3,-0.55 1.9,-1.7q0.75,-1.45 0.1,-2.9q-0.7,-1.55 -2.3,-2.65l-2.9,-1.7q-1.4,-0.75 -1.05,-1.55l1.05,-0.25q5.05,-1.15 11.7,-5.05q7.25,2.6 19.5,-5.95l-10.25,12.35l-0.6,0.7l-7.2,15.9l-15.1,18.5m104.45,-12.35l-5,-2.2l-5.95,0l0,-8.35l-6.8,-24.65l-10.15,-17.3l6.6,-2.6l11.1,26.65l9.6,17.1l2.35,9.2l-1.75,2.15m-50.75,-45.85l1.2,0l-0.55,0.4l1.2,0.8q0.25,5.25 -4.25,7.3l-0.9,-1.85l0.55,-1.25q1.55,-3.55 3.4,-5l-0.65,-0.4m1,9.1q0.55,-1.95 2.35,-3.05l0.9,-0.6q0.3,3 -2.1,4.85l-1.25,-0.6l0.1,-0.6m-17.95,-11.5l0,0.3l-0.6,0q-1.55,4.65 -8.8,7.55l-0.3,0l0,-3l4.85,-4.25q1.45,-1.3 3.35,-1.55l1.15,0.45l0.3,0.25l0.05,0.25m-20.9,26.6l-1.8,-0.6l-0.1,0.35l-0.55,-0.05l-1.5,0l-2.4,1.8l-0.3,1.2l1.2,0.95l2.1,0.3l3.35,-2.45l0,-1.5"/>
   <path id="svg_40" fill-rule="evenodd" fill="#666637" d="m28.75,-42.25l-6.55,2.6l-9.15,30.2q-5.2,16.6 -1.6,27.45l7.55,5.6l7.2,0l1.65,3.85l-7.6,-1.1l-7.85,-2.4l-6.65,-14.7l-0.75,-10.85l7.9,-23.6q-16.8,13 -25.8,8.65l-1.15,-0.65l4.45,-6.15l15.95,-18l-23,22.45l-7.35,10.7l-1.7,0.4q-1.5,0.3 0.8,-4.7l10.25,-12.35l2.65,-3.25l17.5,-16.35l3.65,-1.05l-3.65,1.05l-17.5,16.35l-2.65,3.25q-12.25,8.55 -19.5,5.95q-6.65,3.9 -11.7,5.05l-1.05,0.25l1.05,-1.05l3.9,-2.2l3.25,-1.95q1,-0.6 1.5,-1.6q0.4,-0.85 -0.1,-1.6q-0.85,-1.35 -2.4,-1.85l-4.35,-0.85l9.65,-7.7q3.15,-0.9 6.3,-2.15q8.3,-3.35 15.25,-7.45l-2.15,-0.6l-3.3,0.15q-0.15,0 -0.3,-0.15q2.2,-0.85 4.8,-1.5q4.35,-0.85 8.25,-2.6l5.2,1.05l6.25,-3.15l3.25,3.3l22.2,-6.5l5.2,2.8l4.35,14.3l13.95,24.65l11.5,11.95l-6.75,14.75l-6.75,3.95l0,-5.55l3.8,-4.6l1.75,-2.15l-2.35,-9.2l-9.6,-17.1l-11.1,-26.65l-6.6,2.6m-22.85,6.65l0.65,0.4q-1.85,1.45 -3.4,5l-0.55,1.25l0.9,1.85q4.5,-2.05 4.25,-7.3l-1.2,-0.8l0.55,-0.4l-1.2,0m1,9.1l-0.1,0.6l1.25,0.6q2.4,-1.85 2.1,-4.85l-0.9,0.6q-1.8,1.1 -2.35,3.05m-17.95,-11.5l-0.05,-0.25l-0.3,-0.25l-1.15,-0.45q-1.9,0.25 -3.35,1.55l-4.85,4.25l0,3l0.3,0q7.25,-2.9 8.8,-7.55l0.6,0l0,-0.3"/>
   <path id="svg_41" fill-rule="evenodd" fill="#858161" d="m-55.75,-15.25l0,-0.15l11.7,-9.3l4.35,0.85q1.55,0.5 2.4,1.85q0.5,0.75 0.1,1.6q-0.5,1 -1.5,1.6l-3.25,1.95l-3.9,2.2l-1.05,1.05q-5,0.85 -8.25,-1.25l-0.6,-0.4m21.35,-17.15l4.1,-3.3l14.3,-13.1l10.45,2.1q-3.9,1.75 -8.25,2.6q-2.6,0.65 -4.8,1.5q0.15,0.15 0.3,0.15l3.3,-0.15l2.15,0.6q-6.95,4.1 -15.25,7.45q-3.15,1.25 -6.3,2.15"/>
   <path id="svg_42" fill-rule="evenodd" fill="#625f46" d="m-55.75,-1.25l0,-14l0.6,0.4q3.25,2.1 8.25,1.25q-0.35,0.8 1.05,1.55l2.9,1.7q1.6,1.1 2.3,2.65q0.65,1.45 -0.1,2.9q-0.6,1.15 -1.9,1.7q-2,0.95 -4.2,1.55q-2.8,0.75 -5.7,0.85q-1.7,0.05 -3.2,-0.55m23.8,-10.15l0,1.5l-3.35,2.45l-2.1,-0.3l-1.2,-0.95l0.3,-1.2l2.4,-1.8l1.5,0l0.55,0.05l0.1,-0.35l1.8,0.6"/>
   <path id="svg_43" fill-rule="evenodd" fill="#262615" d="m7.1,23l-8.75,-2.2l-9.95,-5.15l-20.3,15.5l-10.35,4.8l11.55,-8.75l6.35,-19.9l9.55,-23.45l0.75,-1.05l1.15,0.65q-8.1,16.5 -5.4,28.7q15.45,-0.35 20.2,-4.45l5.2,15.3m-45.35,4.15l-14.35,2.8l4.8,-7.35l15.1,-18.5l7.2,-15.9l0.6,-0.7q-2.3,5 -0.8,4.7l1.7,-0.4l-14.25,35.35"/>
   <path id="svg_44" stroke-width="0.5" stroke-opacity="0.4" stroke-linejoin="round" stroke-linecap="round" stroke="#000000" fill="none" d="m28.75,-42.25l-6.55,2.6l-9.15,30.2q-5.2,16.6 -1.6,27.45l7.55,5.6l7.2,0l1.65,3.85l1.55,3.7l-17.15,-3.2l-5.15,-4.95l-8.75,-2.2l-9.95,-5.15l-20.3,15.5l-10.35,4.8l3.85,-8.4m0.15,-0.4l-14.35,2.8l4.8,-7.35l0,-8.15l-7.95,-7.55l0,-8.15l0,-14l0,-0.15l11.7,-9.3l9.65,-7.7l4.1,-3.3l14.3,-13.1l10.45,2.1l5.2,1.05l6.25,-3.15l3.25,3.3l22.2,-6.5l5.2,2.8l4.35,14.3l13.95,24.65l11.5,11.95l-6.75,14.75l-6.75,3.95l0,-5.55l3.8,-4.6l-5,-2.2l-5.95,0l0,-8.35l-6.8,-24.65l-10.15,-17.3l6.6,-2.6l11.1,26.65l9.6,17.1l2.35,9.2l-1.75,2.15m-47.5,-55.75l-3.65,1.05l-17.5,16.35l-2.65,3.25l-10.25,12.35l-0.6,0.7l-7.2,15.9l-15.1,18.5m38.2,-45.95l-4.45,6.15l-0.75,1.05l-9.55,23.45l-6.35,19.9l-11.55,8.75m55.15,-61.15l-7.9,23.6l-3.1,9.3l5.2,15.3"/>
   <path id="svg_45" stroke-width="0.5" stroke-linejoin="round" stroke-linecap="round" stroke="#b8bb9d" fill="none" d="m11.35,-14.05l-1.35,3.8"/>
   <path id="svg_46" stroke-width="0.5" stroke-linejoin="round" stroke-linecap="round" stroke="#b8bb9d" fill="none" d="m21.05,-42.5l4.85,-3.35m-13.15,27.1l1.65,-5.6m0.9,-3.65l1.2,-4.2m1.55,-4.25l1.35,-4.1m9.85,-6.5l5.45,-1.2m-22.75,72.65l2.15,2.9m-5.9,-10.6l2.25,5.6m-3.95,-13.5l1.25,5.15m-0.75,-12.25l-0.65,4.25m2.3,-12.1l-1.05,4.7"/>
   <path id="svg_47" fill-rule="evenodd" fill="#000000" d="m22.2,-39.65l8.75,-3.6l12.75,23.85l4.75,21.9l-2.35,3.6l-11.95,0q-4.95,2.2 -9.95,4.35l-9.95,9.15l-2.8,-1.6q-2.85,-7.55 -1.55,-16.7l12.3,-40.95"/>
   <path id="svg_48" fill-rule="evenodd" fill="#ffffff" d="m37.6,-12.5q0.75,0.85 0.9,2.05q0.25,1.4 -0.25,2.35q-0.5,0.9 -1.45,0.95q-0.9,0.05 -1.6,-0.85q-0.7,-0.85 -0.85,-2.05q-0.2,-1.45 0.25,-2.25q0.5,-1.05 1.45,-1.05q0.8,-0.15 1.55,0.85"/>
   <path id="svg_49" fill-rule="evenodd" fill-opacity="0.160784" fill="#17ff1d" d="m40.4,-10.45q0.4,2.35 -0.55,4.2q-0.95,1.8 -2.7,2q-1.65,-0.05 -3,-1.65q-1.4,-1.65 -1.75,-4.05q-0.3,-2.55 0.55,-4.2q1,-1.8 2.75,-1.95q1.65,-0.15 3.1,1.6q1.3,1.55 1.6,4.05m-2.8,-2.05q-0.75,-1 -1.55,-0.85q-0.95,0 -1.45,1.05q-0.45,0.8 -0.25,2.25q0.15,1.2 0.85,2.05q0.7,0.9 1.6,0.85q0.95,-0.05 1.45,-0.95q0.5,-0.95 0.25,-2.35q-0.15,-1.2 -0.9,-2.05"/>
   <path id="svg_50" fill-rule="evenodd" fill="#ffffff" d="m23.85,-8.7l-1.05,0.05q-0.6,0.5 -0.85,1.55q-0.3,1.05 -0.05,2.25q0.05,1 0.55,1.55q0.55,0.25 1.25,-0.25q0.5,-0.45 0.8,-1.5q0.25,-1.05 0.1,-2.1q-0.25,-1.15 -0.75,-1.55m3.15,-0.85q0.45,3.1 -0.3,6.1q-0.75,3 -2.4,4.35q-1.65,1.25 -3.1,0.2q-1.35,-1.25 -1.8,-4.15q-0.55,-3.1 0.2,-6.1q0.85,-3 2.55,-4.45q1.55,-1.3 2.9,-0.2q1.45,1.2 1.95,4.25"/>
   <path id="svg_51" fill-rule="evenodd" fill="#000000" d="m23.85,-8.7q0.5,0.4 0.75,1.55q0.15,1.05 -0.1,2.1q-0.3,1.05 -0.8,1.5q-0.7,0.5 -1.25,0.25q-0.5,-0.55 -0.55,-1.55q-0.25,-1.2 0.05,-2.25q0.25,-1.05 0.85,-1.55l1.05,-0.05"/>
   <path id="svg_52" fill-rule="evenodd" fill-opacity="0.160784" fill="#17ff1d" d="m25.95,-17.6q2.1,1.75 2.9,6.45q0.6,4.55 -0.55,9.1q-1.1,4.35 -3.5,6.4q-2.45,2 -4.55,0.35q-2.1,-1.75 -2.8,-6.1q-0.8,-4.7 0.35,-9.2q1.25,-4.55 3.7,-6.65q2.4,-2.15 4.45,-0.35m1.05,8.05q-0.5,-3.05 -1.95,-4.25q-1.35,-1.1 -2.9,0.2q-1.7,1.45 -2.55,4.45q-0.75,3 -0.2,6.1q0.45,2.9 1.8,4.15q1.45,1.05 3.1,-0.2q1.65,-1.35 2.4,-4.35q0.75,-3 0.3,-6.1"/>
  </g>
  <g transform="matrix(1,0,0,1,1.15,4.2) " id="sprite2">
   <use id="svg_53" xlink:href="#shape2" width="2.25" transform="matrix(1,0,0,1,-1.15,-4.2) " height="8.45"/>
  </g>
  <g transform="matrix(1,0,0,1,1.15,4.2) " id="shape2">
   <path id="svg_54" fill-rule="evenodd" fill="#222b24" d="m-0.7,-3.15l-0.1,-0.05l-0.25,-0.2l0.5,-0.7l0.6,0l0.35,0.7l-0.5,0.35l-0.2,0.15l-0.4,-0.25"/>
   <path id="svg_55" fill-rule="evenodd" fill="#b5b7a8" d="m-0.7,-3.15l0.4,0.25l0.25,0.15q-0.3,2.95 1.05,6.45l-1.1,0.45q-1.1,-4 -0.6,-7.3"/>
   <path id="svg_56" stroke-width="0.25" stroke-opacity="0.470588" stroke-linejoin="round" stroke-linecap="round" stroke="#000000" fill="none" d="m-0.3,-2.9l0.2,-0.15l0.5,-0.35l-0.35,-0.7l-0.6,0l-0.5,0.7l0.25,0.2l0.1,0.05l0.4,0.25l0.25,0.15l-0.05,-0.3m0,7.2l1.1,-0.45q-1.35,-3.5 -1.05,-6.45"/>
  </g>
  <g transform="matrix(1,0,0,1,102.05,127.05) " id="shape3">
   <path id="svg_57" fill-rule="evenodd" fill="#7e6501" d="m-72,7.9q-3.65,-0.15 -3.85,2.95q-0.55,4.9 7.7,0.75q3.55,2.65 7.25,2.75q0.3,3.15 -5.15,5.1q-13.05,2.25 -19.85,-7.45q-10.55,-19.05 -3,-19.2q3.6,2.05 7.2,7.9q5.15,2.65 4.75,0q2.4,4.25 4.95,7.2m-1.65,26.85q-3.1,-2.05 -5.95,-4.85q6.2,-6.35 19.5,-2.45q7.7,3.65 -13.55,7.3"/>
   <path id="svg_58" fill-rule="evenodd" fill="#666600" d="m-68.15,11.6q-8.25,4.15 -7.7,-0.75q0.2,-3.1 3.85,-2.95l3.85,3.7m-8.8,-10.9q0.4,2.65 -4.75,0q-3.6,-5.85 -7.2,-7.9q-7.55,0.15 3,19.2q6.8,9.7 19.85,7.45q5.45,-1.95 5.15,-5.1q3.15,0.1 6.4,-1.7q16.85,7.65 16.9,23.4q-20.5,9 -36.05,-1.3q21.25,-3.65 13.55,-7.3q-13.3,-3.9 -19.5,2.45q-10.35,-10 -18.15,-29.75q5.8,-14.25 13.9,-14.5q3.35,8.9 6.9,15.05"/>
   <path id="svg_59" stroke-width="0.5" stroke-opacity="0.4" stroke-linejoin="round" stroke-linecap="round" stroke="#000000" fill="none" d="m-68.15,11.6l-3.85,-3.7q-2.55,-2.95 -4.95,-7.2m16.05,13.65q-3.7,-0.1 -7.25,-2.75m-5.5,23.15q-3.1,-2.05 -5.95,-4.85q-10.35,-10 -18.15,-29.75m13.9,-14.5q3.35,8.9 6.9,15.05m3.3,34.05q15.55,10.3 36.05,1.3q-0.05,-15.75 -16.9,-23.4q-3.25,1.8 -6.4,1.7"/>
   <path id="svg_60" stroke-width="0.5" stroke-opacity="0.239216" stroke-linejoin="round" stroke-linecap="round" stroke="#99cc00" fill="none" d="m-72,7.9q-3.65,-0.15 -3.85,2.95q-0.55,4.9 7.7,0.75m-8.8,-10.9q0.4,2.65 -4.75,0q-3.6,-5.85 -7.2,-7.9q-7.55,0.15 3,19.2q6.8,9.7 19.85,7.45q5.45,-1.95 5.15,-5.1m-18.7,15.55q6.2,-6.35 19.5,-2.45q7.7,3.65 -13.55,7.3"/>
   <path id="svg_61" fill-rule="evenodd" fill-opacity="0.309804" fill="#000000" d="m-62.9,39.45q-5.65,-1.35 -10.75,-4.7q-3.1,-2.05 -5.95,-4.85q-10.35,-10 -18.15,-29.75q2.5,-6.15 5.45,-9.7l0.05,0l0.65,3.65q2.95,13.2 12.45,23.95l1.8,1.9q3.9,4.05 8.5,6l7.7,2.7q1.25,9.55 -1.75,10.8"/>
   <path id="svg_62" fill-rule="evenodd" fill-opacity="0.6" fill="#000000" d="m-62.9,39.45q3,-1.25 1.75,-10.8q-2.2,-1.6 -2.1,-2q0.4,-1.35 0.05,-2.85l-1.15,-5.05l-1.35,-5.65q2.35,1.2 4.8,1.25q3.15,0.1 6.4,-1.7q12.3,5.6 15.65,15.5q1.25,3.65 1.25,7.9q-13.8,6.05 -25.3,3.4"/>
   <path id="svg_63" fill-rule="evenodd" fill="#3e3e22" d="m-50.9,-1.75l0.25,0.2l0.25,2.65q3.75,8.95 10.3,18.45l7.2,9.6l-7.2,-9.6l21.7,24.6l0.05,0.05l0.2,0.2q5.15,5.25 6.85,-6.15l-12.35,-22.3q-11.85,-14.8 -23.7,-23.7l0.25,-0.45q10.7,6.15 19.5,15.95q25.2,29.7 36.05,54.4q-3.45,-0.95 -7.05,-1.25l-0.2,-0.05q-6.85,-0.6 -14.3,0.95l0,6.4q-4.05,-6.25 -5.8,-2.6q-0.85,-12.75 -3.8,-14.25q-1.95,5.45 0,18.9q0.55,10.25 -4.05,17.45q-0.3,-12.95 -3.5,-21.8l-1.3,-2.7l-1.95,-15.8l5.05,10.05q4.1,-3.05 3.35,-18.15l-0.15,-0.25q-3.4,-5 -7.65,-9.9q-8.2,-9.4 -19.6,-18.4l0.1,-0.1l0.05,-0.05l-0.05,0l-4.55,-2.85l6.05,-9.5m1.5,-5.95l2.15,-2.3q6.55,1.3 14.4,8.05l30.1,33.4l0.15,0.35q8.1,5.45 10.4,-1.6l8.75,11.3l17.45,15.1q-2.3,-1.1 -4.5,-1.75q-8.6,-2.55 -15,1.75q0.1,2 0.65,4.25l-12,-18.75l9.55,24.5q-2.5,-2 -4.25,-4.45q-10.85,-24.7 -36.05,-54.4q-8.8,-9.8 -19.5,-15.95l-0.25,0.45l-1.15,2.05l-0.9,-0.6l0,-1.4m69.35,57.6q-5.65,1.65 -5.45,6.7q-0.2,-5.05 5.45,-6.7m-34.45,12.8q-2.95,-11.95 -10.6,-23.4q7.65,11.45 10.6,23.4"/>
   <path id="svg_64" fill-rule="evenodd" fill="#666637" d="m-50.65,-1.55q6.8,6.4 11.35,14.4q3.7,6.4 9.7,10.8q-3.05,-10.3 -10.25,-20.5q-3.8,-5.35 -8.65,-8.85l1.15,-2.05q11.85,8.9 23.7,23.7l12.35,22.3q-1.7,11.4 -6.85,6.15l-0.2,-0.2l-0.05,-0.05l-21.7,-24.6q-6.55,-9.5 -10.3,-18.45l-0.25,-2.65m-6.3,9.3l4.55,2.85l0.05,0l-0.05,0.05l-0.1,0.1q11.4,9 19.6,18.4q4.25,4.9 7.65,9.9l0.15,0.25q0.75,15.1 -3.35,18.15l-5.05,-10.05l1.95,15.8l-10.9,-22.9l-20.05,-26.15l-3.15,-2.9l-1.35,2.5l-0.7,-4.55l10.75,-1.45m7.55,-15.45l0,-2.55l4.05,-2.35l13.85,5.4l26.25,20.5l13.05,16.9q-2.3,7.05 -10.4,1.6l-0.15,-0.35l-30.1,-33.4q-7.85,-6.75 -14.4,-8.05l-2.15,2.3m64.55,68.55l0.25,0.8q1.1,4.05 3.75,8.9q-3.7,-1.7 -6.45,-3.95l-9.55,-24.5l12,18.75m-45.95,-48.1l0.3,1.8l2.15,2.1l0.65,0.25q0.35,2.1 1.8,3.95l0.25,0.35l0.45,-0.4l0.45,-0.8q-0.45,-2.15 -1.5,-3.75l0,-0.8l-0.7,-1.1l-1,-1.2q-1.35,-1.05 -2.85,-0.4m6.25,12.3l0.4,-0.2l-2.1,-0.6l1.7,0.8l-1.4,0.7q-1.45,2.95 0.9,5.15l1.55,0.3q2.15,-4.1 -1.05,-6.15"/>
   <path id="svg_65" fill-rule="evenodd" fill="#858161" d="m-50.65,-1.55l-0.25,-0.2l0.15,-0.25l0.05,-0.1l1.3,-2.05l0,-2.15l0.9,0.6q4.85,3.5 8.65,8.85q7.2,10.2 10.25,20.5q-6,-4.4 -9.7,-10.8q-4.55,-8 -11.35,-14.4m1.25,-2.6l0.9,-1.55l-0.9,1.55m18.6,16.9q1.5,-0.65 2.85,0.4l1,1.2l0.7,1.1l0,0.8q1.05,1.6 1.5,3.75l-0.45,0.8l-0.45,0.4l-0.25,-0.35q-1.45,-1.85 -1.8,-3.95l-0.65,-0.25l-2.15,-2.1l-0.3,-1.8m6.25,12.3q3.2,2.05 1.05,6.15l-1.55,-0.3q-2.35,-2.2 -0.9,-5.15l1.4,-0.7l-1.7,-0.8l2.1,0.6l-0.4,0.2"/>
   <path id="svg_66" stroke-width="0.5" stroke-opacity="0.4" stroke-linejoin="round" stroke-linecap="round" stroke="#000000" fill="none" d="m-48.5,-5.7l-0.9,1.55l-1.3,2.05l-0.05,0.1l-0.15,0.25l-6.05,9.5m4.45,3q11.4,9 19.6,18.4l-7.2,-9.6q-6.55,-9.5 -10.3,-18.45m1,-7.4l0,2.15m57.2,34.35l-13.05,-16.9l-26.25,-20.5l-13.85,-5.4l-4.05,2.35l0,2.55l0,1.4m57.2,36.5l8.75,11.3l17.45,15.1q-2.3,-1.1 -4.5,-1.75q-8.6,-2.55 -15,1.75q0.1,2 0.65,4.25m0.25,0.8q1.1,4.05 3.75,8.9q-3.7,-1.7 -6.45,-3.95q-2.5,-2 -4.25,-4.45q-3.45,-0.95 -7.05,-1.25m-0.2,-0.05q-6.85,-0.6 -14.3,0.95l0,6.4q-4.05,-6.25 -5.8,-2.6q-0.85,-12.75 -3.8,-14.25q-1.95,5.45 0,18.9q0.55,10.25 -4.05,17.45q-0.3,-12.95 -3.5,-21.8l-1.3,-2.7l-10.9,-22.9l-20.05,-26.15l-3.15,-2.9l-1.35,2.5l-0.7,-4.55l10.75,-1.45m9.6,-15.5l0.25,-0.45q10.7,6.15 19.5,15.95q25.2,29.7 36.05,54.4m-56.95,-67.85l1.15,-2.05m61.85,64.35q-0.2,-5.05 5.45,-6.7m-45.2,-10.85q-3.4,-5 -7.65,-9.9m7.8,10.15q7.65,11.45 10.6,23.4"/>
   <path id="svg_67" stroke-width="0.5" stroke-linejoin="round" stroke-linecap="round" stroke="#b8bb9d" fill="none" d="m-12.1,10.45l-4.6,-3.95m13.15,11.5l-4.25,-3.95m11.5,13.8l-4.3,-5.9m18.75,24.3l-4.6,-4.3m7.55,5.95l4.25,3.6m-15.1,-13.8l-4.25,-5.25m-70.95,-22.65l3.9,2.3m20.4,-21.05l-4.95,-1.65m14.45,6.25l-4.25,-3.3m13.45,10.55l-4.9,-3.95m-24.65,25.6l3.6,4.6m-10.2,-13.45l3,4.6m29.55,51.55l0,7.9m-2.95,-18.05l1.95,4.6m-7.55,-16.45l3.6,6.55m-8.2,-16.05l2.95,5.25m-8.2,-12.5l3.3,4.6"/>
   <path id="svg_68" fill-rule="evenodd" fill="#666600" d="m-63.65,-110.6q2.5,-6.65 7.45,-11.25q12.95,-7.8 10.05,-3.25q-6.6,2.8 -8.95,7.7l-4.55,10.3l-0.6,2.45q0,-6.3 -3.4,-5.95m5.35,17.3l1.5,4.1l2.1,2.4l2.65,3.5l2.7,4.35q-4.2,-3.1 -2.4,6q3.15,10.9 -2.75,12.75q0,-4.95 -4.75,-13.8q5,0.85 0.35,-8.15q-4.1,-8.05 -6.65,-7.1q-0.95,-4.6 -0.6,-9.35q2.85,-2 7.85,5.3m13.7,24.3q1.4,3.45 2.65,7.35q1.75,20.15 -8.6,27.25q-3.55,3.2 -7.35,2.65q0.7,-5.1 -4,-10.25q-5.15,-8 -7.2,-3.85q-3,-6.75 -6.65,-6q-3.4,-0.9 -6.8,5.15q-1.2,-15.05 -10.5,-13.95q3.35,-5.8 8.1,-11.1q7.05,-4.95 11.95,-2.4q-0.2,19.3 6.45,23.3q5.3,3.3 1.8,-10.75q3.55,6.7 6.3,6.9q-0.9,12.2 7.55,7.85q6.2,-5 5.05,-12.15q-1.25,-8.65 1.25,-10m-39.85,28.85q-1.25,7.85 0,17.95q-2.8,-12.6 -6.75,-11q-7.2,3.55 7.7,17.35l1.85,8.65q-3.25,11.5 -15.45,9.25q-6.25,-15.9 -4.15,-37.35l0.6,-4.5q13.9,-10.2 16.2,-0.35"/>
   <path id="svg_69" fill-rule="evenodd" fill="#7e6501" d="m-63.65,-110.6q3.4,-0.35 3.4,5.95q-0.45,4.25 1.95,11.35q-5,-7.3 -7.85,-5.3l0.15,-1.9q0.6,-5.55 2.35,-10.1m14.3,31.65q2.55,4.45 4.75,9.95q-2.5,1.35 -1.25,10q1.15,7.15 -5.05,12.15q-8.45,4.35 -7.55,-7.85q1.05,0.1 1.95,-0.75q2,-1.55 2,-4.7l0,-0.05q5.9,-1.85 2.75,-12.75q-1.8,-9.1 2.4,-6m-8.55,47.2q-4.05,-0.55 -8.35,-5.3q-1.35,-5.35 -2.85,-8.8q2.05,-4.15 7.2,3.85q4.7,5.15 4,10.25m-24.65,-14.95l-0.9,1.7l-1,4.85q-2.3,-9.85 -16.2,0.35q1.8,-11.1 7.6,-20.85q9.3,-1.1 10.5,13.95m-1.9,24.5l0.95,6.35q-14.9,-13.8 -7.7,-17.35q3.95,-1.6 6.75,11m11.45,-51.95q2.85,1.4 4.95,5.35q1.75,4.25 3.3,7.2q3.5,14.05 -1.8,10.75q-6.65,-4 -6.45,-23.3m13.75,0.15l-1.4,-2.5q-3.65,-6.25 -4.9,-12.75q2.55,-0.95 6.65,7.1q4.65,9 -0.35,8.15"/>
   <path id="svg_70" stroke-width="0.5" stroke-opacity="0.4" stroke-linejoin="round" stroke-linecap="round" stroke="#000000" fill="none" d="m-60.25,-104.65l0.6,-2.45l4.55,-10.3q2.35,-4.9 8.95,-7.7q2.9,-4.55 -10.05,3.25q-4.95,4.6 -7.45,11.25m3.4,5.95q-0.45,4.25 1.95,11.35l1.5,4.1l2.1,2.4l2.65,3.5l2.7,4.35q2.55,4.45 4.75,9.95q1.4,3.45 2.65,7.35q1.75,20.15 -8.6,27.25q-3.55,3.2 -7.35,2.65q-4.05,-0.55 -8.35,-5.3q-1.35,-5.35 -2.85,-8.8q-3,-6.75 -6.65,-6q-3.4,-0.9 -6.8,5.15l-0.9,1.7l-1,4.85q-1.25,7.85 0,17.95l0.95,6.35l1.85,8.65m-15.45,9.25q-6.25,-15.9 -4.15,-37.35l0.6,-4.5q1.8,-11.1 7.6,-20.85q3.35,-5.8 8.1,-11.1q7.05,-4.95 11.95,-2.4q2.85,1.4 4.95,5.35q1.75,4.25 3.3,7.2q3.55,6.7 6.3,6.9q1.05,0.1 1.95,-0.75q2,-1.55 2,-4.7m0,-0.05q0,-4.95 -4.75,-13.8l-1.4,-2.5q-3.65,-6.25 -4.9,-12.75q-0.95,-4.6 -0.6,-9.35l0.15,-1.9q0.6,-5.55 2.35,-10.1"/>
   <path id="svg_71" stroke-width="0.5" stroke-opacity="0.239216" stroke-linejoin="round" stroke-linecap="round" stroke="#99cc00" fill="none" d="m-63.65,-110.6q3.4,-0.35 3.4,5.95m5.75,44.5l0,-0.05q5.9,-1.85 2.75,-12.75q-1.8,-9.1 2.4,-6m-35.1,38.8q-2.3,-9.85 -16.2,0.35m17.15,23.95q-14.9,-13.8 -7.7,-17.35q3.95,-1.6 6.75,11m-8.6,-38.45q9.3,-1.1 10.5,13.95m17.8,-14.9q3.5,14.05 -1.8,10.75q-6.65,-4 -6.45,-23.3m28.4,5.15q-2.5,1.35 -1.25,10q1.15,7.15 -5.05,12.15q-8.45,4.35 -7.55,-7.85m-7.1,-34.55q2.55,-0.95 6.65,7.1q4.65,9 -0.35,8.15m-9.85,28.15q2.05,-4.15 7.2,3.85q4.7,5.15 4,10.25m-8.25,-66.85q2.85,-2 7.85,5.3"/>
   <path id="svg_72" fill-rule="evenodd" fill-opacity="0.309804" fill="#000000" d="m-55.1,-117.4l-4.55,10.3l-0.6,2.45q-0.45,4.25 1.95,11.35l1.5,4.1l2.1,2.4l2.65,3.5l2.7,4.35q2.55,4.45 4.75,9.95q1.4,3.45 2.65,7.35q1.75,20.15 -8.6,27.25q-3.55,3.2 -7.35,2.65q-4.05,-0.55 -8.35,-5.3q-1.35,-5.35 -2.85,-8.8q-3,-6.75 -6.65,-6q-3.05,-0.8 -6.05,3.9l-0.6,-0.3l-0.25,0.1q-2.95,1.05 -4.5,3.75l-0.4,0.7q-2.5,5.15 -3.9,10.65q-0.8,3.1 -1.25,6.35l-0.45,4.5q-0.75,12.8 4.25,23.95l-8.2,0.3q-6.25,-15.9 -4.15,-37.35l0.6,-4.5l0.1,-0.6l2.55,-4.9q4.55,-8.05 11.7,-13.05l4.6,-2.8q6.5,-3.45 10.4,3.65l0.45,0.8q1.65,2.9 3.7,5.45q3.05,3.85 6.95,6.85l3.6,0q1,-0.6 1.85,-1.3q3.65,-3.1 4.2,-8.25q0.55,-5.5 -0.25,-10.7q-1.4,-8.95 -6.8,-17.05l-1.35,-1.9l-0.35,-1.15l-0.9,-0.85q-2.75,-6.3 -2.85,-12.85q-0.1,-4 0.8,-8.1l0.85,-3.15l1.4,-4.05q3.8,-4.4 8.3,-8q-2.25,1.9 -3.4,4.35m8.95,-7.7q-2.7,1.15 -4.7,2.65l5.2,-3.65l-0.5,1"/>
   <path id="svg_73" fill-rule="evenodd" fill-opacity="0.588235" fill="#666633" d="m-46.25,-118q0,1.95 -1.4,3.35q-1.4,1.4 -3.35,1.4q-1.95,0 -3.35,-1.4q-1.4,-1.4 -1.4,-3.35q0,-1.95 1.4,-3.35q1.4,-1.4 3.35,-1.4q1.95,0 3.35,1.4q1.4,1.4 1.4,3.35"/>
   <path id="svg_74" fill-rule="evenodd" fill-opacity="0.490196" fill="#d6d6ad" d="m-53.8,-119.3q0,-0.75 0.55,-1.3q0.5,-0.55 1.3,-0.55q0.75,0 1.3,0.55q0.5,0.55 0.5,1.3q0,0.75 -0.5,1.3q-0.55,0.5 -1.3,0.5q-0.8,0 -1.3,-0.5q-0.55,-0.55 -0.55,-1.3"/>
   <path id="svg_75" fill-rule="evenodd" fill-opacity="0.588235" fill="#666633" d="m-55.75,-109.85q0,0.65 -0.45,1.15q-0.5,0.45 -1.15,0.45q-0.65,0 -1.1,-0.45q-0.5,-0.5 -0.5,-1.15q0,-0.65 0.5,-1.1q0.45,-0.5 1.1,-0.5q0.65,0 1.15,0.5q0.45,0.45 0.45,1.1"/>
   <path id="svg_76" fill-rule="evenodd" fill-opacity="0.490196" fill="#d6d6ad" d="m-58.3,-110.3l0.2,-0.45l0.4,-0.15l0.45,0.15l0.2,0.45l-0.2,0.45q-0.2,0.15 -0.45,0.15l-0.4,-0.15l-0.2,-0.45"/>
   <path id="svg_77" fill-rule="evenodd" fill-opacity="0.588235" fill="#666633" d="m-34,-109.85q0,0.65 -0.45,1.15q-0.5,0.45 -1.15,0.45q-0.65,0 -1.1,-0.45q-0.5,-0.5 -0.5,-1.15q0,-0.65 0.5,-1.1q0.45,-0.5 1.1,-0.5q0.65,0 1.15,0.5q0.45,0.45 0.45,1.1"/>
   <path id="svg_78" fill-rule="evenodd" fill-opacity="0.490196" fill="#d6d6ad" d="m-36.55,-110.3l0.2,-0.45l0.4,-0.15l0.45,0.15l0.2,0.45l-0.2,0.45q-0.2,0.15 -0.45,0.15l-0.4,-0.15l-0.2,-0.45"/>
   <path id="svg_79" fill-rule="evenodd" fill-opacity="0.588235" fill="#666633" d="m-19.1,-119.6q0.65,0 1.15,0.5q0.45,0.45 0.45,1.1q0,0.65 -0.45,1.15q-0.5,0.45 -1.15,0.45q-0.65,0 -1.1,-0.45q-0.5,-0.5 -0.5,-1.15q0,-0.65 0.5,-1.1q0.45,-0.5 1.1,-0.5"/>
   <path id="svg_80" fill-rule="evenodd" fill-opacity="0.490196" fill="#d6d6ad" d="m-20.05,-118.45l0.2,-0.45l0.4,-0.15l0.45,0.15l0.2,0.45l-0.2,0.45q-0.2,0.15 -0.45,0.15l-0.4,-0.15l-0.2,-0.45"/>
   <path id="svg_81" fill-rule="evenodd" fill-opacity="0.588235" fill="#666633" d="m-45.85,-87.4q0.65,0 1.15,0.5q0.45,0.45 0.45,1.1q0,0.65 -0.45,1.15q-0.5,0.45 -1.15,0.45q-0.65,0 -1.1,-0.45q-0.5,-0.5 -0.5,-1.15q0,-0.65 0.5,-1.1q0.45,-0.5 1.1,-0.5"/>
   <path id="svg_82" fill-rule="evenodd" fill-opacity="0.490196" fill="#d6d6ad" d="m-46.8,-86.25l0.2,-0.45l0.4,-0.15l0.45,0.15l0.2,0.45l-0.2,0.45q-0.2,0.15 -0.45,0.15q-0.25,0 -0.4,-0.15l-0.2,-0.45"/>
   <path id="svg_83" fill-rule="evenodd" fill-opacity="0.588235" fill="#666633" d="m-55.75,-83.85q0,-1.45 1.05,-2.5q1.05,-1.05 2.5,-1.05q1.45,0 2.5,1.05q1.05,1.05 1.05,2.5q0,1.45 -1.05,2.5q-1.05,1.05 -2.5,1.05q-1.45,0 -2.5,-1.05q-1.05,-1.05 -1.05,-2.5"/>
   <path id="svg_84" fill-rule="evenodd" fill-opacity="0.490196" fill="#d6d6ad" d="m-54.3,-84.8q0,-0.6 0.4,-0.95q0.4,-0.4 0.95,-0.4q0.55,0 1,0.4q0.4,0.35 0.4,0.95q0,0.55 -0.4,0.95q-0.45,0.4 -1,0.4q-0.55,0 -0.95,-0.4q-0.4,-0.4 -0.4,-0.95"/>
  </g>
  <g transform="matrix(1,0,0,1,104.95,130.5) " id="shape4">
   <path id="svg_85" stroke-width="1.5" stroke-opacity="0.498039" stroke-linejoin="round" stroke-linecap="round" stroke="#000000" fill="none" d="m16.5,90.4q-14.4,-0.15 -19.25,-9.55l-1.45,-3.85q-4.55,-4.3 -6.1,-14.3l11.55,-0.4l0.15,0q3.7,0.35 7.25,1.35q1.75,2.45 4.35,4.55q2.8,2.25 6.6,4q-2.7,-4.95 -3.85,-9.1l-0.25,-0.85q-0.55,-2.3 -0.65,-4.3l0.85,-0.55l-0.05,3.9l4.4,-0.5l-0.4,-5.05l2.75,-0.5q0.1,6.85 -1.3,15.3q5.3,-6.05 7.05,-14.9l2.05,0.5q2.25,0.65 4.6,1.8l-6.25,-5.4q0.7,-13.5 3.65,-18.7q2.65,1.9 1.05,15.05q2.45,-3.5 5.3,3.35l1.25,-6.55q7.7,-0.7 14.45,0.75l0.2,0.05q3.5,0.75 6.8,2.15q1.3,2.7 3.4,5.05q2.35,2.65 5.7,4.85q-1.7,-5.3 -2.05,-9.6l-0.05,-0.85q-0.15,-2.4 0.15,-4.4q7.25,-3.65 15.35,0l4.15,2.35l-14.5,-17.55l-9.45,-18.05l4,-8.7l-1.85,-1.9q2.45,-3.35 4.85,-7.5l1.2,0.3l0.05,0q1.35,-3.35 2.2,-7.65l0,-0.05q1.9,-10.1 0.75,-25.8l-0.15,-1.25l0,-0.4q-1.1,-6.7 -2.7,-12.9l-4,-12.7l-0.7,-1.75l-0.4,-1l-0.15,-0.35l-0.2,-0.55l-0.4,-0.9l-2.6,-14.3q-0.05,-6.9 2.2,-14.5l2.4,-5.4l2.05,-3.55l0.7,-1.1q2.1,-3.3 4.6,-5.75l1.75,-1.1l0.9,-1.25q1.4,-1.1 2.9,-1.95l2.05,-0.65l5.85,-0.2l0.45,0.1l0.75,0.2q1,1 2.4,1.05l0.75,0.45l1.2,0.85l0.85,0.7l8.15,7.35q1.2,-1.45 -0.75,-4.7q-1.9,-3.05 -6.5,-7.65l0.05,-0.65q-0.05,-1.5 -1.1,-2.55q-1.05,-1.1 -2.55,-1.1q-1.5,0 -2.55,1.1l-0.15,0.15q-6.75,-1.9 -13.25,1.45q-1.25,-1 -2.9,-1q-2,0 -3.4,1.45q-1.45,1.4 -1.45,3.4q0,0.95 0.35,1.75q-3.85,3.8 -6.65,8.35l0,0.05q-6.4,10.35 -7.25,24.5q-0.3,4.35 0,9.15l0.15,2.8q0.95,11.15 6,25.2l0.05,0.1q1,3.45 1.4,6.85q1.1,9.5 -2.5,18.75l0.1,0.6l-2.05,3.5q-2.25,3.5 -4.85,5.95l-12.1,-21.45l-4.5,-14.65l-5.3,-2.85l-22.75,6.65l-3.3,-3.4l-6.4,3.25l-16,-3.25l-14.65,13.4l-26.05,20.8l0,21.75l-1.25,1.95l-6.7,0.9l-2.2,0l0,0.3l-2.1,0.3l0.5,3.1l-0.95,-0.65l-3.95,-3.85q-2.6,-3 -5.1,-7.35q-2.9,-5.05 -5.7,-11.95l-1,-5l-0.95,-6.45q-1.25,-10.35 0,-18.4q0.35,-2.6 1.05,-4.95l0.9,-1.75l0.8,-1.25l0.2,-0.35l4.45,-3.7l1.5,0.05q3.7,-0.8 6.8,6.15q1.55,3.5 2.95,9q4.4,4.85 8.55,5.45l1.9,0l5.6,-2.75q10.6,-7.25 8.8,-27.85l0,-0.05l-2.7,-7.55q-2.25,-5.6 -4.85,-10.15l-1.1,-1.85l0.75,-0.6q1.05,-1.1 1.05,-2.55q0,-1.5 -1.05,-2.55q-1.1,-1.1 -2.55,-1.1q-1.35,0 -2.35,0.85l-0.25,-0.25l-2.15,-2.45l-1.55,-4.2l-0.3,-0.95l-1.65,-10.65l0,-0.05l0.05,-0.35l0.2,-1.1l0.35,-1l0.85,-2.15l0.35,0.5q0.5,0.45 1.15,0.45q0.65,0 1.15,-0.45q0.5,-0.5 0.5,-1.2q0,-0.65 -0.5,-1.15q-0.5,-0.5 -1.15,-0.45l-0.55,0.1l0.55,-1.3l0.55,-1.3l1.3,-2.75q0.35,1.05 1.25,1.95q1.4,1.45 3.4,1.45q2,0 3.45,-1.45q1.4,-1.45 1.4,-3.4q0,-2 -1.4,-3.45q-1.25,-1.25 -2.9,-1.4l3.2,-1.9l1.2,-0.5l0.05,-0.05l0.5,-1q0.65,-2.6 -10.8,4.35q-5.1,4.7 -7.65,11.5q-1.8,4.65 -2.4,10.35l-0.15,1.95q-0.35,4.85 0.6,9.55q1.25,6.65 5.05,13.05l1.4,2.55q4.9,9.05 4.9,14.15l0,0.05q-0.05,3.2 -2.05,4.8q-0.95,0.85 -2,0.75q-2.85,-0.2 -6.45,-7.05q-1.65,-3.05 -3.4,-7.35q-2.15,-4.05 -5.05,-5.5q-5.05,-2.6 -12.25,2.45q-4.85,5.45 -8.3,11.35q-5.75,9.75 -7.7,20.8l-0.1,0.55l0,0.05l-0.1,0.6l-0.25,1.95l-0.25,2.05q-2.15,21.9 4.25,38.25l0.15,0q7.75,18.7 17.8,28.45l5.3,4.45l0.75,0.5l0.95,0.6l6.75,3.25q-0.5,5.6 -1.6,10.8q4.4,-4.2 6.55,7.15l0,-10.25q6.7,9.45 12.55,32q-1.45,-17.2 2.35,-23.8q1.15,1.5 2.35,3.65q3.1,9.05 4.4,14.85q1.5,6.65 0.7,9.05q-1.15,3.4 -17.9,9.25m75.25,-49.6l-0.85,-1.1q1.1,-3.4 2.35,-6.45l0.55,2.2q-0.9,2.75 -1.55,5.75l-0.5,-0.4m4.45,3.85l-1.3,-1.1l0.4,-2.45l0.9,3.55"/>
  </g>
  <g id="sprite3">
   <use id="svg_86" xlink:href="#shape5" width="102.95" height="45"/>
  </g>
  <g id="shape5">
   <path id="svg_87" fill-rule="evenodd" fill-opacity="0" fill="#ff00ff" d="m102.95,45l-102.95,0l0,-45l102.95,0l0,45"/>
  </g>
  <radialGradient spreadMethod="pad" r="819.2" id="gradient0" gradientUnits="userSpaceOnUse" gradientTransform="matrix(0.0, -0.0395, -0.0756, 0.0, -19.1, 93.85)" cy="0" cx="0">
   <stop stop-color="#000000" offset="0.380392"/>
   <stop stop-opacity="0" stop-color="#2b362d" offset="1"/>
  </radialGradient>
 </defs>
 <g>
  <title>background</title>
  <rect fill="none" id="canvas_background" height="294" width="243" y="-1" x="-1"/>
 </g>
 <g>
  <title>Layer 1</title>
  <g id="svg_88">
   <use x="116" y="242" id="svg_89" xlink:href="#shape0" width="381" transform="matrix(1,0,0,1,-192.55,-294) " height="381"/>
   <use x="103.951967" y="216.865311" id="svg_90" xlink:href="#sprite0" width="209.95" transform="matrix(1.1159,0,0,1.1159,-112.9611,-239.7217) " height="260.35"/>
   <use x="-1.106684" y="-1.209336" xlink:href="#sprite3" width="102.95" transform="matrix(1.8072000000000004,0,0,1.6538,17.94999999999999,105.1) " id="_mcMask" height="45"/>
  </g>
 </g>
</svg>