<svg width="101.00000000000001" height="118.99999999999999" xmlns="http://www.w3.org/2000/svg" xmlns:xlink="http://www.w3.org/1999/xlink">
 <defs>
  <g transform="matrix(1,0,0,1,192.55,294) " id="shape0">
   <path id="svg_1" stroke-opacity="0" stroke-linejoin="round" stroke-linecap="round" stroke="#ff00ff" fill="none" d="m187.95,-293.5l0,380l-379.95,0l-0.05,0l0,-380l380,0"/>
   <path id="svg_2" stroke-opacity="0" stroke-linejoin="round" stroke-linecap="round" stroke="#ff00ff" fill="none" d="m187.95,-293.5l-190,190l190,190m-380,-380l190,190l-189.95,190"/>
   <path id="svg_3" stroke-opacity="0" stroke-linejoin="round" stroke-linecap="round" stroke="#ff00ff" fill="none" d="m92.95,-38.4l-189.95,0"/>
  </g>
  <g id="sprite0">
   <use id="svg_4" xlink:href="#shape1" width="100" height="40"/>
  </g>
  <g id="shape1">
   <path id="svg_5" fill-rule="evenodd" fill-opacity="0" fill="#ff00ff" d="m100,40l-100,0l0,-40l100,0l0,40"/>
  </g>
  <g transform="matrix(1,0,0,1,1.1,84.25) " id="sprite1">
   <use id="svg_6" xlink:href="#shape2" width="142.65" transform="matrix(1,0,0,1,-1.1,-84.25) " height="168.55"/>
  </g>
  <g transform="matrix(1,0,0,1,1.1,84.25) " id="shape2">
   <path id="svg_7" fill-rule="evenodd" fill="#7aac1c" d="m118.95,-63.85l3.1,0.25q-4.7,11.35 -12.1,21.6l-2.2,-0.35l6.35,-10.1l4.85,-11.4m19.75,55.5l0.65,5.25q-24.95,-15.05 -43.45,-19.45l-6.65,-0.85l-5.4,-0.15q-6.05,0.15 -7.3,2.55q-16,2.05 -27.9,8.2q-3.85,1.95 -7.3,4.4q-3.45,2.45 -6.45,5.35q-9.75,9.3 -18.4,23.9q-0.6,-3.75 -0.85,-7.2l9.15,-12.75l12,-14l15,-8l22,-4.5l1,1.35l1.35,-2.9l8.6,-1.4l0.05,0.45l14,2l21.5,6.5l18.4,11.25m-115.3,-12.8q-15.9,-5.3 -23.4,-23.05q1.55,0.6 3.3,1.05l5.3,9.3l7.35,5.9l9.6,4.45l-2.15,2.35"/>
   <path id="svg_8" fill-rule="evenodd" fill="#87d121" d="m97.65,-58.25q8.9,-6.2 21.3,-5.6l-4.85,11.4l-6.35,10.1l-3.9,-0.35l3.9,0.35l2.2,0.35q8.75,1.75 14.95,7.3q11.05,9.85 13.8,26.35l-18.4,-11.25l-21.5,-6.5l-14,-2l-0.05,-0.45l-8.6,1.4q3,-6.3 6.25,-9.9l1.35,-1.35q2.35,-2.2 4.85,-3l3.8,-0.65l0.4,-0.05l1.6,-0.25l2.5,-0.25q3.65,-0.3 6.95,-0.1l1.5,-12.85l-7.8,5.55l0.1,-8.25m-82,71.9q-2.05,-22.95 7.75,-34.8l2.15,-2.35l-9.6,-4.45l-7.35,-5.9l-5.3,-9.3q7.6,2 19.1,1.6q0.55,2.35 1.5,4.75l-2.5,-0.7l5.4,12.85l-1.25,1.15l1.25,-1.15l2.5,-1.95q4.95,-3.45 12,-5.15l7.2,-1.25l11.35,-0.35l2.2,0.25q1.8,0.35 3.5,1.05q4,1.65 7.4,5.45l0.85,1l-22,4.5l-15,8l-12,14l-9.15,12.75m32.9,-45.3l-4.55,0.8q-12.15,0.95 -22.3,14.85l-1.7,4.35q10.85,-15.65 28.65,-19.6l1.4,-0.3l1,-0.15l-2.15,-0.05l-0.35,0.1"/>
   <path id="svg_9" fill-rule="evenodd" fill="#468512" d="m26.8,-24.65l-5.4,-12.85l2.5,0.7l17.4,5.05q-7.05,1.7 -12,5.15l-2.5,1.95m38.75,-7.4l4.9,-13.35l11.95,8.35q-3.25,3.6 -6.25,9.9l-1.35,2.9l-1,-1.35l-0.85,-1q-3.4,-3.8 -7.4,-5.45m32,-17.95l7.8,-5.55l-1.5,12.85q-3.3,-0.2 -6.95,0.1l-2.5,0.25l-1.6,0.25l3.85,-7.35l0.9,-0.55"/>
   <path id="svg_10" fill-rule="evenodd" fill="#f0d01a" d="m59,-70.8q0,1.45 1.65,2.5q1.65,1.05 3.95,1.05q2.3,0 3.95,-1.05q1.65,-1.05 1.65,-2.5q0,-1.45 -1.65,-2.5q-1.65,-1.05 -3.95,-1.05q-2.3,0 -3.95,1.05q-1.65,1.05 -1.65,2.5m-4.45,34.45q-8.85,-10.7 -10.15,-27.2q-1.5,-4 -3.9,-1.5q-2.75,2.55 -2.35,6.55q2.1,11.05 6.2,15.75l-2,-1.35q-5.2,-7.6 -5.85,-13.5q-1.2,-11.25 14.15,-16.65q16.85,-5.95 24.55,5q3,4.2 4.6,10.95l0,4.75q-5.75,-5.3 -13.8,-8.25q-9,11.05 -6.15,28.45l-5.3,-3"/>
   <path id="svg_11" fill-rule="evenodd" fill="#f9e7aa" d="m59,-70.8q0,-1.45 1.65,-2.5q1.65,-1.05 3.95,-1.05q2.3,0 3.95,1.05q1.65,1.05 1.65,2.5q0,1.45 -1.65,2.5q-1.65,1.05 -3.95,1.05q-2.3,0 -3.95,-1.05q-1.65,-1.05 -1.65,-2.5"/>
   <path id="svg_12" fill-rule="evenodd" fill="#dfb98c" d="m79.8,-53.55l0,-4.75l1.75,-12.65l1.85,-7.85q13.6,11.95 9,36.75l-3.8,0.65q-3.35,-7.15 -8.8,-12.15m-57.4,12q-1.95,-8 0.3,-17.45q8.65,16.9 25.8,26l-7.2,1.25l-17.4,-5.05q-0.95,-2.4 -1.5,-4.75m43.15,9.5q-1.7,-0.7 -3.5,-1.05q-3.2,-13 3.6,-24.15q13.3,4.8 18.1,18.85l-1.35,1.35l-11.95,-8.35l-4.9,13.35"/>
   <path id="svg_13" fill-rule="evenodd" fill="#ca9f0f" d="m44.35,-42.75q-4.1,-4.7 -6.2,-15.75q-0.4,-4 2.35,-6.55q2.4,-2.5 3.9,1.5q1.3,16.5 10.15,27.2q-5.4,-3.1 -10.2,-6.4"/>
   <path id="svg_14" fill-rule="evenodd" fill="#eedcbf" d="m44.35,-42.75q4.8,3.3 10.2,6.4l5.3,3q-2.85,-17.4 6.15,-28.45q8.05,2.95 13.8,8.25q5.45,5 8.8,12.15q-2.5,0.8 -4.85,3q-4.8,-14.05 -18.1,-18.85q-6.8,11.15 -3.6,24.15l-2.2,-0.25l-11.35,0.35q-17.15,-9.1 -25.8,-26q0.2,0.15 0.75,-1.35q3.45,3.7 7.45,7.25q5.25,4.6 11.45,9l2,1.35m39.05,-36.05l1,-4.35q12.55,9.55 13.25,24.9l-0.1,8.25l-0.9,0.55l-3.85,7.35l-0.4,0.05q4.6,-24.8 -9,-36.75"/>
   <path id="svg_15" fill-rule="evenodd" fill="#d8a870" d="m79.8,-58.3q-1.6,-6.75 -4.6,-10.95l2.95,-6.1l3.4,4.4l-1.75,12.65m-43.3,0.7q0.65,5.9 5.85,13.5q-6.2,-4.4 -11.45,-9l0,-7.65l5.6,3.15"/>
   <path id="svg_16" fill-rule="evenodd" fill="#49c09c" d="m46.4,24.8l-0.25,0l0.25,0m0.2,20.5l0.85,-0.3l0.5,1.4l-1.35,-1.1"/>
   <path id="svg_17" fill-rule="evenodd" fill="#7cd1b7" d="m98.6,-11.35l0.15,0.15l-0.6,0.55l0.45,-0.7m12.85,18.5l0.6,1.25l-1.4,-0.85l0.8,-0.4"/>
   <path id="svg_18" fill-rule="evenodd" fill="#c2ebe4" d="m92.4,-20.85l0.4,0l-0.2,0.2l-0.2,-0.2m-26.9,77.5l1.05,0.45l-0.35,0.85l-0.7,-1.3"/>
   <path id="svg_19" fill-rule="evenodd" fill="#cfe772" d="m48.65,-31.25l-0.1,-0.4l0.35,-0.1l2.15,0.05l-1,0.15l-1.4,0.3"/>
   <path id="svg_20" fill-rule="evenodd" fill="#c1e463" d="m48.65,-31.25q-17.8,3.95 -28.65,19.6l1.7,-4.35q10.15,-13.9 22.3,-14.85l4.55,-0.8l0.1,0.4"/>
   <path id="svg_21" fill-rule="evenodd" fill="#1b4b38" d="m55.25,58.55q-6.15,10.05 -9.45,19.85q-0.8,3.25 -2.4,4q-1.65,0.75 -5.3,0.8q-3.7,0.05 -0.55,-11.95q3.15,-12.05 12.9,-16.3q1.35,1.4 4.8,3.6m80.3,-42.4q9.1,-7.4 1.25,16.95q-7.9,24.3 -14.25,19.55q1.95,-25.05 13,-36.5"/>
   <path id="svg_22" fill-rule="evenodd" fill="#ea5757" d="m45.9,-7.75l9.85,-5.05l11.05,0l5.4,5.4l3.3,3.9l0,-10.95l6.6,-6.4l0.4,-0.55l9.9,0.55l0.2,0.2q3.8,3.7 6,9.3l-0.45,0.7l0.6,-0.55q7.75,7.85 12.7,18.35l-0.8,0.4l0,0.05l-0.8,0.15q-0.8,0.5 -0.6,1.3l2.45,9.8l0.3,0.4l0.45,0.6l0.85,2.55q0.65,1.45 1.95,2.2q1.45,0.8 1.95,-0.3l-0.2,4.4q-0.8,-0.95 -2.45,-1.4q-0.6,0 -1.05,0.55q-1.05,1.25 -0.75,3.05q-0.75,1.25 -0.8,2.7q-0.1,1.4 0.4,2.55q1.15,2.75 2.5,1.3q-3.25,8.1 -11,13.35q-7.55,-0.95 -14.1,-2.95l0.1,-1.5q0,-4.45 -4.2,-7.6q-4.15,-3.1 -10.05,-3.1q-3.7,0 -6.7,1.25q-6.5,-5.35 -11.25,-12.6l0.9,-0.75q1.35,-1.35 1.35,-3.3q0,-1.95 -1.35,-3.3q-1.35,-1.35 -3.3,-1.35q-1.2,0 -2.2,0.55l-2.1,-4.95l-1.75,-4.9q-2.05,-6.55 -3.3,-14.05m52.25,-2.9l-0.7,-0.25l-0.6,0.15l-0.35,0.3q-0.55,0.45 -0.5,1.15l-6.4,9.5q-0.65,0.95 -0.05,1.9q1.1,1.7 1.7,-0.2q0.4,-1.2 1.25,-2.2q3.8,-4.35 6.2,-9.45l-0.05,-0.15l-0.5,-0.75m-16.65,13.95l-0.35,-0.4l-11.95,-1.3q-1.15,0.1 -1.4,1.3q-0.05,0.35 0.2,0.45q6.05,1.85 12.85,1.1l0.1,-0.1l0.4,-0.45l0.15,-0.45l0,-0.15m-30.8,3.55l0.25,-0.6l-0.25,-0.6l-0.6,-0.25q-0.35,0 -0.6,0.25q-0.25,0.25 -0.25,0.6l0.25,0.6q0.25,0.25 0.6,0.25l0.6,-0.25"/>
   <path id="svg_23" fill-rule="evenodd" fill="#e63737" d="m41.05,-4.4l3.7,-2.8l1.15,-0.55q1.25,7.5 3.3,14.05l1.75,4.9l2.1,4.95q-0.6,0.3 -1.1,0.8q-1.35,1.35 -1.35,3.3q0,1.95 1.35,3.3q1.35,1.35 3.3,1.35q1.3,0 2.4,-0.6q4.75,7.25 11.25,12.6q-1.85,0.7 -3.4,1.85q-4.15,3.15 -4.15,7.6q0,4.45 4.15,7.55q4.2,3.15 10.1,3.15q5.9,0 10.05,-3.15q3.5,-2.55 4.1,-6.05q6.55,2 14.1,2.95q-5.8,3.9 -14.05,6.25q-8,3.75 -20.1,1.15l-3.15,-1.1l-1.05,-0.45l-1,-1.8l-8.6,-8.05q1.1,-0.6 2,-1.5q2.35,-2.35 2.35,-5.65q0,-3.3 -2.35,-5.65q-2.35,-2.35 -5.65,-2.35q-3.3,0 -5.65,2.35l-1.05,1.35l-1.05,-2.85l0.55,0.05l2,-3.35l-0.65,-4.4q0.65,-0.05 1.1,-0.5q0.55,-0.45 0.55,-1.1q0,-0.65 -0.55,-1.15q-0.55,-0.45 -1.35,-0.45l-0.25,0.05l-1.7,-10.8l-1.95,-5.35l-1.55,0q0,-4.75 0.35,-9.9m5.25,7.75q0.55,-0.6 0.55,-1.45q0,-0.85 -0.55,-1.5q-0.55,-0.6 -1.35,-0.6q-0.8,0 -1.35,0.6q-0.55,0.65 -0.55,1.5q0,0.85 0.55,1.45q0.55,0.65 1.35,0.65q0.8,0 1.35,-0.65m4.05,8.1l-0.6,-0.85q-0.7,-0.75 -1.7,-0.75q-1,0 -1.75,0.75q-0.7,0.75 -0.7,1.8q0,1.05 0.7,1.8q0.75,0.75 1.75,0.75q1,0 1.7,-0.75q0.75,-0.75 0.75,-1.8l-0.15,-0.95"/>
   <path id="svg_24" fill-rule="evenodd" fill="#8b1212" d="m95.9,-22.55l3.35,3.75l-6.45,-2.05l-0.4,0l-9.9,-0.55l-0.4,0.55l-6.6,6.4l0,10.95l-3.3,-3.9l-5.4,-5.4l-11.05,0l-9.85,5.05l-1.15,0.55l-3.7,2.8l-1.65,1.2l-4.6,9.3q-0.1,-4.45 0.1,-9.15q3,-2.9 6.45,-5.35q3.45,-2.45 7.3,-4.4q11.9,-6.15 27.9,-8.2q1.25,-2.4 7.3,-2.55l5.4,0.15l6.65,0.85m-50.35,57.9l1.05,-1.35q2.35,-2.35 5.65,-2.35q3.3,0 5.65,2.35q2.35,2.35 2.35,5.65q0,3.3 -2.35,5.65q-0.9,0.9 -2,1.5l-3.2,-3.25l-3.5,-5.35l-2.45,-0.25l-1.4,1.65l2.1,5.4l-0.85,0.3q-2.35,-2.35 -2.35,-5.65q0,-2.4 1.3,-4.3m44.2,12.5q-0.6,3.5 -4.1,6.05q-4.15,3.15 -10.05,3.15q-5.9,0 -10.1,-3.15q-4.15,-3.1 -4.15,-7.55q0,-4.45 4.15,-7.6q1.55,-1.15 3.4,-1.85q3,-1.25 6.7,-1.25q5.9,0 10.05,3.1q4.2,3.15 4.2,7.6l-0.1,1.5m-32.1,-23.55q-1.1,0.6 -2.4,0.6q-1.95,0 -3.3,-1.35q-1.35,-1.35 -1.35,-3.3q0,-1.95 1.35,-3.3q0.5,-0.5 1.1,-0.8q1,-0.55 2.2,-0.55q1.95,0 3.3,1.35q1.35,1.35 1.35,3.3q0,1.95 -1.35,3.3l-0.9,0.75m40.5,-34.95l0.5,0.75l0.05,0.15q-2.4,5.1 -6.2,9.45q-0.85,1 -1.25,2.2q-0.6,1.9 -1.7,0.2q-0.6,-0.95 0.05,-1.9l6.4,-9.5q-0.05,-0.7 0.5,-1.15l0.35,-0.3l0.6,-0.15l0.7,0.25m-16.65,13.95l0,0.15l-0.15,0.45l-0.4,0.45l-0.1,0.1q-6.8,0.75 -12.85,-1.1q-0.25,-0.1 -0.2,-0.45q0.25,-1.2 1.4,-1.3l11.95,1.3l0.35,0.4m-31.15,8.15l0.15,0.95q0,1.05 -0.75,1.8q-0.7,0.75 -1.7,0.75q-1,0 -1.75,-0.75q-0.7,-0.75 -0.7,-1.8q0,-1.05 0.7,-1.8q0.75,-0.75 1.75,-0.75q1,0 1.7,0.75l0.6,0.85"/>
   <path id="svg_25" fill-rule="evenodd" fill="#ed7878" d="m99.25,-18.8l7.2,8.65q40.15,52.05 -15.85,73.65q-22.05,3.55 -35.35,-4.95q-3.45,-2.2 -4.8,-3.6q-15.05,-15.75 -15.65,-48.85l4.6,-9.3l1.65,-1.2q-0.35,5.15 -0.35,9.9l-1.55,0l-0.7,3.85l2.1,19.55l2.25,3.4l1.7,0.2l1.05,2.85q-1.3,1.9 -1.3,4.3q0,3.3 2.35,5.65l1.35,1.1l0.2,0.55l4.25,5.1l6.5,5.05l4.8,1.7l2.5,-0.85l0.35,-0.85l3.15,1.1q12.1,2.6 20.1,-1.15q8.25,-2.35 14.05,-6.25q7.75,-5.25 11,-13.35l1.05,-1.65l1.15,-2.65q1.25,-2.9 -0.05,-4.45l0.2,-4.4l0.2,-0.65q0.55,-3.95 -0.4,-7.65q-1.3,-5 -4.95,-7.6l-0.6,-1.25q-4.95,-10.5 -12.7,-18.35l-0.15,-0.15q-2.2,-5.6 -6,-9.3l0.2,-0.2l6.45,2.05"/>
   <path id="svg_26" fill-rule="evenodd" fill="#fad3d3" d="m40.7,5.5l1.55,0l1.95,5.35l1.7,10.8l0.25,-0.05q0.8,0 1.35,0.45q0.55,0.5 0.55,1.15q0,0.65 -0.55,1.1q-0.45,0.45 -1.1,0.5l0.65,4.4l-2,3.35l-0.55,-0.05l-1.7,-0.2l-2.25,-3.4l-2.1,-19.55l0.7,-3.85l1.55,0m15.2,41.3l8.6,8.05l1,1.8l0.7,1.3l-2.5,0.85l-4.8,-1.7l-6.5,-5.05l-4.25,-5.1l-0.2,-0.55l-0.5,-1.4l-2.1,-5.4l1.4,-1.65l2.45,0.25l3.5,5.35l3.2,3.25m56.15,-38.4q3.65,2.6 4.95,7.6q0.95,3.7 0.4,7.65l-0.2,0.65q-0.5,1.1 -1.95,0.3q-1.3,-0.75 -1.95,-2.2l-0.85,-2.55l-0.45,-0.6l-0.3,-0.4l-2.45,-9.8q-0.2,-0.8 0.6,-1.3l0.8,-0.15l0,-0.05l1.4,0.85m4.95,20.3q1.3,1.55 0.05,4.45l-1.15,2.65l-1.05,1.65q-1.35,1.45 -2.5,-1.3q-0.5,-1.15 -0.4,-2.55q0.05,-1.45 0.8,-2.7q-0.3,-1.8 0.75,-3.05q0.45,-0.55 1.05,-0.55q1.65,0.45 2.45,1.4m-66.3,-21.85l-0.6,0.25q-0.35,0 -0.6,-0.25l-0.25,-0.6q0,-0.35 0.25,-0.6q0.25,-0.25 0.6,-0.25l0.6,0.25l0.25,0.6l-0.25,0.6m-4.4,-3.5q-0.55,0.65 -1.35,0.65q-0.8,0 -1.35,-0.65q-0.55,-0.6 -0.55,-1.45q0,-0.85 0.55,-1.5q0.55,-0.6 1.35,-0.6q0.8,0 1.35,0.6q0.55,0.65 0.55,1.5q0,0.85 -0.55,1.45m0.1,21.45l-0.25,0l0.25,0"/>
   <path id="svg_27" stroke-width="0.05" stroke-opacity="0.301961" stroke-linejoin="round" stroke-linecap="round" stroke="#000000" fill="none" d="m97.65,-58.25q8.9,-6.2 21.3,-5.6l3.1,0.25q-4.7,11.35 -12.1,21.6q8.75,1.75 14.95,7.3q11.05,9.85 13.8,26.35l0.65,5.25q-24.95,-15.05 -43.45,-19.45l3.35,3.75m-44,77.35q-6.15,10.05 -9.45,19.85q-0.8,3.25 -2.4,4q-1.65,0.75 -5.3,0.8q-3.7,0.05 -0.55,-11.95q3.15,-12.05 12.9,-16.3q1.35,1.4 4.8,3.6m-20.45,-52.45q-0.1,-4.45 0.1,-9.15q-9.75,9.3 -18.4,23.9q-0.6,-3.75 -0.85,-7.2q-2.05,-22.95 7.75,-34.8q-15.9,-5.3 -23.4,-23.05q1.55,0.6 3.3,1.05q7.6,2 19.1,1.6m18.9,9.8l7.2,-1.25m-25.1,11.85l2.15,-2.35l1.25,-1.15l2.5,-1.95q4.95,-3.45 12,-5.15m20.75,-1.35q1.8,0.35 3.5,1.05q4,1.65 7.4,5.45l0.85,1l1,1.35l1.35,-2.9q3,-6.3 6.25,-9.9l1.35,-1.35m-21.7,5.3l-2.2,-0.25l-11.35,0.35m55.35,-9.7l3.9,0.35l2.2,0.35m-17.15,-0.1l-0.4,0.05l-3.8,0.65q-2.5,0.8 -4.85,3m14.4,27.75l0.45,-0.7m36.95,27.5q-11.05,11.45 -13,36.5q6.35,4.75 14.25,-19.55q7.85,-24.35 -1.25,-16.95"/>
   <path id="svg_28" stroke-width="0.75" stroke-linejoin="round" stroke-linecap="round" stroke="#7aac1c" fill="none" d="m26.8,-24.65l-5.4,-12.85l2.5,0.7l17.4,5.05m24.25,-0.3l4.9,-13.35l11.95,8.35m15.15,-12.95l7.8,-5.55l-1.5,12.85m-6.3,-7.3l-0.9,0.55l-3.85,7.35"/>
   <path id="svg_29" stroke-width="0.05" stroke-linejoin="round" stroke-linecap="round" stroke="#d8a870" fill="none" d="m44.35,-42.75q4.8,3.3 10.2,6.4l5.3,3q-2.85,-17.4 6.15,-28.45q8.05,2.95 13.8,8.25l0,-4.75l1.75,-12.65l1.85,-7.85l1,-4.35q12.55,9.55 13.25,24.9l-0.1,8.25m-55.2,5.9l2,1.35m30.85,-26.5l2.95,-6.1l3.4,4.4m-59.15,29.4q-1.95,-8 0.3,-17.45q0.2,0.15 0.75,-1.35q3.45,3.7 7.45,7.25l0,-7.65l5.6,3.15m-12.6,20.8q-0.95,-2.4 -1.5,-4.75m8.5,-11.55q5.25,4.6 11.45,9m46.25,2.7q-3.35,-7.15 -8.8,-12.15"/>
   <path id="svg_30" stroke-width="0.75" stroke-linejoin="round" stroke-linecap="round" stroke="#ca9f0f" fill="none" d="m79.8,-58.3q-1.6,-6.75 -4.6,-10.95q-7.7,-10.95 -24.55,-5q-15.35,5.4 -14.15,16.65q0.65,5.9 5.85,13.5"/>
   <path id="svg_31" stroke-width="1.75" stroke-linejoin="round" stroke-linecap="round" stroke="#349470" fill="none" d="m95.9,-22.55l-6.65,-0.85l-5.4,-0.15q-6.05,0.15 -7.3,2.55q-16,2.05 -27.9,8.2q-3.85,1.95 -7.3,4.4q-3.45,2.45 -6.45,5.35"/>
   <path id="svg_32" stroke-width="0.05" stroke-linejoin="round" stroke-linecap="round" stroke="#e63737" fill="none" d="m99.25,-18.8l7.2,8.65q40.15,52.05 -15.85,73.65q-22.05,3.55 -35.35,-4.95m-4.8,-3.6q-15.05,-15.75 -15.65,-48.85"/>
   <path id="svg_33" stroke-width="2.25" stroke-linejoin="round" stroke-linecap="round" stroke="#27694b" fill="none" d="m95.9,-22.55q18.5,4.4 43.45,19.45l-0.65,-5.25q-2.75,-16.5 -13.8,-26.35q-6.2,-5.55 -14.95,-7.3q7.4,-10.25 12.1,-21.6l-3.1,-0.25q-12.4,-0.6 -21.3,5.6q-0.7,-15.35 -13.25,-24.9l-2.85,12.2l-3.4,-4.4l-2.95,6.1q-7.7,-10.95 -24.55,-5q-15.35,5.4 -14.15,16.65l-5.6,-3.15l0,7.65q-4,-3.55 -7.45,-7.25q-0.55,1.5 -0.75,1.35q-2.25,9.45 -0.3,17.45q-11.5,0.4 -19.1,-1.6q-1.75,-0.45 -3.3,-1.05q7.5,17.75 23.4,23.05q-9.8,11.85 -7.75,34.8q0.25,3.45 0.85,7.2q8.65,-14.6 18.4,-23.9m15.55,58q-9.75,4.25 -12.9,16.3q-3.15,12 0.55,11.95q3.65,-0.05 5.3,-0.8q1.6,-0.75 2.4,-4q3.3,-9.8 9.45,-19.85m80.3,-42.4q-11.05,11.45 -13,36.5q6.35,4.75 14.25,-19.55q7.85,-24.35 -1.25,-16.95"/>
   <path id="svg_34" stroke-width="2.25" stroke-linejoin="round" stroke-linecap="round" stroke="#e63737" fill="none" d="m34.9,-3.05q-0.2,4.7 -0.1,9.15q0.6,33.1 15.65,48.85m4.8,3.6q13.3,8.5 35.35,4.95q56,-21.6 15.85,-73.65l-7.2,-8.65l-3.35,-3.75l-40.65,81.1z"/>
  </g>
 </defs>
 <g>
  <title>background</title>
  <rect fill="none" id="canvas_background" height="121" width="103" y="-1" x="-1"/>
 </g>
 <g>
  <title>Layer 1</title>
  <g id="svg_35">
   <use x="61.457425" y="162.27779" id="svg_36" xlink:href="#shape0" width="381" transform="matrix(1,0,0,1,-192.55,-294) " height="381"/>
   <use x="46.16" y="121.885076" xlink:href="#sprite0" width="100" transform="matrix(1.3314,0,0,1.3314,-73.5,-143.85) " id="_mcMask" height="40"/>
   <use x="88.237508" y="232.990366" id="svg_37" xlink:href="#sprite1" width="142.65" transform="matrix(0.6965,0,0,0.6965,-60.8161,-161.4791) " height="168.55"/>
  </g>
 </g>
</svg>