<svg width="139" height="122.00000000000001" xmlns="http://www.w3.org/2000/svg" xmlns:xlink="http://www.w3.org/1999/xlink">
 <defs>
  <g transform="matrix(1,0,0,1,192.55,294) " id="shape0">
   <path id="svg_1" stroke-opacity="0" stroke-linejoin="round" stroke-linecap="round" stroke="#ff00ff" fill="none" d="m187.95,-293.5l0,380l-379.95,0l-0.05,0l0,-380l380,0"/>
   <path id="svg_2" stroke-opacity="0" stroke-linejoin="round" stroke-linecap="round" stroke="#ff00ff" fill="none" d="m187.95,-293.5l-190,190l190,190m-380,-380l190,190l-189.95,190"/>
   <path id="svg_3" stroke-opacity="0" stroke-linejoin="round" stroke-linecap="round" stroke="#ff00ff" fill="none" d="m92.95,-38.4l-189.95,0"/>
  </g>
  <g id="sprite0">
   <use id="svg_4" xlink:href="#shape1" width="100" height="40"/>
  </g>
  <g id="shape1">
   <path id="svg_5" fill-rule="evenodd" fill-opacity="0" fill="#ff00ff" d="m100,40l-100,0l0,-40l100,0l0,40"/>
  </g>
  <g transform="matrix(1,0,0,1,0.85,143.3) " id="shape2">
   <path id="svg_6" fill-rule="evenodd" fill="#333333" d="m302.5,-97l-0.25,1.65l-0.95,6.45l-0.8,5.45l-8,1.45l-6.95,3l-13.35,7.45l-3.6,0.95l22.15,-23l11.75,-3.4m-7.65,19.75q1.75,2.75 2.9,6.7q1.05,2.55 0.55,4.4l0.05,0.95q0.45,-0.6 -0.15,3.65q-1.15,7.35 -6.75,11.8l-4.45,-1.15q2.2,0.15 4.45,-5.5l2.4,-5.85q0.7,-1.8 0.7,-3.6q-0.1,-4.95 -2.05,-9.6l2.35,-1.8m-185.95,17.2l9.05,4.15l-7.2,30.7l-0.45,9.95l-2.15,-8.95q0.6,-7.3 0.85,-14.8q0.3,-10.35 -0.1,-21.05m5.25,60.8l1.15,1.8l0.35,0.5l-1.9,-2.9l1.9,2.9l10.9,16.85l0.35,0.55l-7.7,0.9l-1.15,-0.85l-0.55,6.6l-47.8,4.05l-13.5,-14.1l-1.6,-15.95l0.05,-0.45l0.05,-0.3l10.8,2l19.5,3.7l0.15,0.25l-30.5,-5.65l30.5,5.65l7.85,18.15l-3.85,-17.4l-0.05,-0.25l13.7,2.6l-15.7,-11.45l-8.2,-6l-0.8,-1.8l4.9,-10.85l4.7,-10.45l2.35,-5.3l0.3,0.45l19.5,30.15l3.9,6l0.4,0.6m3.1,-7.1l-6.1,-10.35l5.8,0l7.75,0l0,0.05l0.8,2.45l3.7,11l0.1,0l3.85,13.05l-0.35,0l-6.15,-0.4l-9.4,-15.8m12.6,-14.65l2.6,-3.4l2.6,7.55l0.3,-10.15l6.95,-0.85l3.75,8.4l-0.25,-5.8l3.75,0.6l2.25,2.85l-19.45,12.95l-0.05,0l-2.45,-12.15m99.25,-92.95q3.55,-1 6.9,-2.5l19,-21.85l-16,32.35l-9.9,-8m24.35,-2.2l28.5,-14l-35.45,27.2l6.95,-13.2m-42.85,17.6l1.25,-1.55l0.3,-0.35l0.9,-0.9l34.8,16l13.95,14.1l0.2,0.25l0,0.05l-4.2,0.1l-31.85,-11.8l-0.35,-0.1l0.5,0q-1.75,-0.35 -0.85,-0.05l-15.75,-4.15q-1.8,-4.4 -0.5,-8.3q0.5,-1.7 1.6,-3.3m75.4,46.45l0.05,0l0.05,0.85l0.05,0.1l-1.15,-0.3l1,-0.65m-55,-36.85l-19.15,-11.15l19.15,11.15m-5.5,0l-16.5,-6.3l16.5,6.3m-104.65,101.85l-31.7,-5.85l31.7,5.85m11.95,-3.05l-7.3,-24.05l7.3,24.05m157.7,-100.3l11.75,-4.9l-11.75,4.9m-1,5.5l11.8,-3.95l-11.8,3.95"/>
   <path id="svg_7" fill-rule="evenodd" fill="#555555" d="m284.85,-91.35l4.65,-4.6l13.5,-4.5l-0.5,3.45l-11.75,3.4l-22.15,23l-0.6,0.15l0.45,-0.55l16.4,-20.35m-71.8,-10l2.45,-2.1l36,17l10.3,15.2l-13.95,-14.1l-34.8,-16"/>
   <path id="svg_8" fill-rule="evenodd" fill="#3d3d3d" d="m292.5,-82l2.35,4.75l-2.35,1.8q1.95,4.65 2.05,9.6q0,1.8 -0.7,3.6l-2.4,5.85q-2.25,5.65 -4.45,5.5l4.45,1.15l0.05,0l1.55,0.4l0.05,0l5.45,1.8q14.25,5.35 36.45,20.6q9.05,8.6 14.4,15.75l-25.4,-16.25q-8.55,-7.6 -72.65,-20l-0.15,0.1l0.15,-0.1l1.05,-0.8l1,-0.75l1.3,-0.95q2.9,-2.15 4.3,-3l11,-1l0.65,0.1l14.35,2.4l1.15,0.3l-0.05,-0.1l-0.05,-0.85l-0.05,0l1.45,-2.35q1.5,-2.55 2.65,-5.55q1.1,-3.05 1.55,-6.5l-0.1,-1.6q-0.9,-3.05 -2.2,-5.95l-0.05,-0.1q-1.15,-2.45 -2.8,-4.3l-0.1,-0.4l-0.85,-0.15l6.95,-3m-78.8,31.1l0.35,0.1l1.4,0l0.45,-0.05l2.15,0.05l0.35,0.05q0.25,0.05 0.35,-0.15l0.1,0q20.55,0.5 30.5,6.35l-6.6,8.5l-28,3.1l-5.75,-6.7l3.25,-0.65l-6.85,-2.9l-2.9,-6.75l11.2,-0.95"/>
   <path id="svg_9" fill-rule="evenodd" fill="#212121" d="m298.2,-61.55l0.35,14l-5.45,-1.8l-0.05,0l-1.55,-0.4l-0.05,0q5.6,-4.45 6.75,-11.8m51.2,50.35l4,6.1l0,0.15l-88.9,-3.5l-28,0q-2.45,-1.15 -4,-2.5l-0.35,-0.35l-2.55,-2.4l-0.35,1.15l5.25,6.6l23.6,16.2l3.4,1.25l0,0.05q3.9,41.55 5,56q-3.8,4.65 -9.45,9.15l5.35,1.35l-12.05,3.8l-12.8,7.35l-0.25,1.75q-0.25,-1.35 -0.1,-1.95l-7.5,1.5l-2.8,-1l-30.5,-7.95l-3.75,-2.1l18.35,-0.4l-21.75,-17.75l-23.45,0.35q-2.45,-3 -4.15,-6.25l39.1,-4.85l-11.9,-17.1l-0.05,-0.05l-30.15,14.5q-0.85,-3 -1.2,-6.15l17.05,-2.9l-0.25,-33.55q-4.55,2.05 -9.15,4.05l7.4,-17.15l-26.1,22.9l0.2,-0.85q-28.05,29.65 -72.6,43.8q-41.6,-18.1 -65,-48.3q-4.9,-6.35 -9,-13.2q1.1,-7.25 6.05,-21.7l21.05,43.8l9.95,-21.65l-8.05,-8.45l5.85,-4.35l1.85,-1.4q3.2,-8.15 6.85,-13.45l21.95,33l-10.8,-2l-0.05,0.3l-0.05,0.45l1.6,15.95l-19.15,-20.05l19.15,20.05l13.5,14.1l47.8,-4.05l0.55,-6.6l1.15,0.85l7.7,-0.9l-0.35,-0.55l-10.9,-16.85l-0.35,-0.5l2.2,-1.5l-0.25,-7.4l9.4,15.8l6.15,0.4l0.35,0l-3.85,-13.05l-0.1,0l0.05,-0.05l3.05,-5.6l0,0.05l0.05,-0.05l19.45,-12.95l9.2,-6.15l1.2,-2.55l12.65,-26.9l22.7,-0.95l4.05,-8.65l-8.35,-6.35l1.15,-6.9l5.45,6.9l4.9,-5.75l-13.15,-14.4l1.4,-2.85l7.7,7.75l2.6,-6.05l-1.3,-10.1q6,-3.1 13.9,-5.45q4.4,-0.95 10.55,-2.95l2.65,-0.8l9.9,8l16,-32.35l4.5,-4.15l-7.5,27l1.45,-0.7l-6.95,13.2l35.45,-27.2l0.55,-0.3l-15,26l17.35,13.1l-16.4,20.35l-6.45,0l0,0.05l0,-0.05l-0.2,-0.25l-10.3,-15.2l-36,-17l-2.45,2.1l-0.9,0.9l-0.3,0.35l-1.25,1.55l-4.15,-0.65l-1.75,10.2l2.85,5.75l6.55,6.5q-1.5,4.9 -1.95,10.15q-0.3,3.85 -0.15,7.8q0.15,3.45 1.2,6.7l0.5,1.2l-11.2,0.95l2.9,6.75l6.85,2.9l-3.25,0.65l5.75,6.7l28,-3.1l6.6,-8.5q1.2,-1.8 1.55,-3l0.45,0.1q64.1,12.4 72.65,20l25.4,16.25m-250.85,131.5l-11.05,-3.25l11.8,-22.1l0.3,-0.3l3.55,-4.05l4.85,-7.05l-0.35,1.4l-0.2,0.75l-4.3,4.9l4.3,-4.9l-8.9,34.6m-6.25,-17.7l-10.3,11.45l-16.5,-8.5l28.55,-35.55l5.3,1.35l26.55,-12.8l6.1,7l-26.9,10.1l-13.15,25.5l0.35,1.45m24.65,-119.3l-0.45,-15.75l3.15,0.7l5.05,15.05l-7.75,0m236.45,11.6l-23.4,-6.85l-100.25,-5.45l100.25,5.45l23.4,6.85m-102.2,-42.25l0.15,-0.1l-0.15,0.1m-118.2,41.9l-0.7,-3.35l0.7,3.35m125.25,-58.85l6.6,2.7l6.3,-1.4l-1.15,9.05l-11,1l-0.75,-11.35m-28.5,46.9q0.1,-1.45 0.75,-3.05l12.25,-15.6l-12.25,15.6q-0.65,1.6 -0.75,3.05q-0.3,3.45 2.4,6.1q-2.7,-2.65 -2.4,-6.1m-175.4,18l0.3,0.05l-0.3,-0.05m28.6,-40.9l4.75,9.15l-4.7,10.45l-2.5,-11.25q1,-4.7 2.45,-8.35m4.15,38.25l15.7,11.45l-13.7,-2.6l0.05,0.25l-4,-0.75l4,0.75l3.85,17.4l-7.85,-18.15l-0.15,-0.25l4.1,0.75l-2,-8.85m83.95,8.7l-0.05,0.1l0.1,-0.1l-0.05,0m3.45,32.9l0,-0.7l0,0.7"/>
   <path id="svg_10" fill-rule="evenodd" fill="#876123" d="m267.55,90.45l8.3,6.25l-15.45,5.45l-1.85,-1.45l9,-10.25m11.25,15.45l-3.1,7.4l-12.85,-1l2.65,-6.25l0,0.25l13.3,-0.4m-5.75,13.6l-2.5,6.05l-0.05,0l7.85,0.2l-16.5,11.6l8.5,3.1l14.25,-14.6l3.6,0.1l-10.75,15.05l7.1,1.45l13.4,-16.3l5.7,0.15l-13.4,15.85l5.95,2.55l11.35,-10l0.4,1.05l3.05,8.55l3,4.75l-5,-6.5q-12,-1.55 -12.1,4.8q-0.05,2.15 1.3,5.2l-38.2,-8.5l-10,-1.5l9.9,-23.25l13.15,0.2m43.7,7.05l4.5,11.4l-7.75,-5.4l-5.7,1.9l8.95,-7.9m-150.9,-25.35l-2.5,7.5l-10.25,-6.2l1.75,-5.35l11,4.05m-3.65,10.95l-3.2,9.4l0,1.15l-8.95,-10.65l-0.05,0l0.05,-0.05l1.85,-5.8l10.3,5.95m-3.2,15.55l0,6.35l-5.65,4.6l-9.95,-22.95l3.8,-2.1l11.8,14.1m-8.1,12.9l-2.75,2.2l-19.1,-20.25l6.45,-2.5l1.65,-0.9l13.75,21.45m-5.4,4.35l-3.8,3.05l-32.7,-17.75l11.75,-4.55l24.75,19.25m-6.05,4.85l-0.95,0.75l-1.25,-1.5l2.2,0.75m-21.45,8.25l-5,-6.5l5,-2.5q0.3,-3.15 -0.25,-5.4l-0.4,-1.25l7.2,2.4q-3.2,1.1 -6.55,4.25l0,9m-15,-13.25l1.3,-6.75l4.55,1.55l-5.85,5.2"/>
   <path id="svg_11" fill-rule="evenodd" fill="#beb765" d="m321.25,137.95l7.75,5.35l-0.95,0.05l-20.1,-7.6l-0.4,-1.05l-0.05,-0.15l0.3,-0.1l5.7,-1.9l7.75,5.4m-7.25,11.1l1.45,1.85l-18.55,-3.55q0.1,-6.35 12.1,-4.8l5,6.5m-194.65,16.95l-1.35,1.05l0,-9l0,-9q3.35,-3.15 6.55,-4.25q5.25,-1.85 10,1.8l-15.2,19.4m-23.15,-14.45l-0.7,0l7.5,-6.75l5.85,-5.2l1.65,-1.55q5.15,0.45 6.85,4.35l0.4,1.25l-21.55,7.9"/>
   <path id="svg_12" fill-rule="evenodd" fill="#6d481d" d="m263.45,87.35l4.1,3.1l-9,10.25l-9.1,-6.95q5.05,-0.15 5.05,-2.95l1.5,-4.3q-0.05,2.65 2.7,1.05q2.75,-1.6 2.75,-0.8q0,0.75 2,0.6m12.4,9.35l5.15,3.85l-2.2,5.35l-13.3,0.4l0,-0.25l-5.1,-3.9l15.45,-5.45m-0.15,16.6l-2.65,6.2l-13.15,-0.2l2.95,-7l12.85,1m2.65,12.45l6.25,0.1l-14.25,14.6l-8.5,-3.1l16.5,-11.6m9.85,0.2l9.75,0.2l-13.4,16.3l-7.1,-1.45l10.75,-15.05m15.45,0.35l13.1,0.25l-8.95,7.9l-0.3,0.1l0.05,0.15l-11.35,10l-5.95,-2.55l13.4,-15.85m-137.25,-26.85l-0.55,1.75l-11,-4.05l2.15,-6.65q0.55,-0.15 2.3,-3.95q0.75,-1.65 3.1,-1.45q1.85,0.2 -2.15,8.6q8.7,-6.2 10.75,-4.95q-10.5,7.95 -8.1,9l0.9,0.35l0.15,0.05l3.05,0.25q1.7,-0.35 -0.6,1.05m-3.05,9.25l-1.15,3.45l-10.3,-5.95l1.2,-3.7l10.25,6.2m-4.35,14l0,5l-11.8,-14.1l2.8,-1.55l0.05,0l8.95,10.65m-5.65,15.95l-2.45,1.95l-13.75,-21.45l6.25,-3.45l9.95,22.95m-5.2,4.15l-2.65,2.15l-24.75,-19.25l8.3,-3.15l19.1,20.25m-6.45,5.2l-2.25,1.8l-2.2,-0.75l-2.7,-2.45q-4.75,-3.65 -10,-1.8l-7.2,-2.4q-1.7,-3.9 -6.85,-4.35l-1.65,1.55l-4.55,-1.55l1.2,-6.5l3.5,-1.3l32.7,17.75"/>
   <path id="svg_13" fill-rule="evenodd" fill="#dfe0b6" d="m328.05,143.35l-17.05,0.95l-3.05,-8.55l20.1,7.6m-12.6,7.55l3.55,4.65l-20.8,-3q-1.35,-3.05 -1.3,-5.2l18.55,3.55m-176.95,-0.35l-19.15,15.45l15.2,-19.4l2.7,2.45l1.25,1.5m-25.5,1l-16.8,0l21.55,-7.9q0.55,2.25 0.25,5.4l-5,2.5"/>
   <path id="svg_14" fill-rule="evenodd" fill="#1b1714" d="m264.5,-8.45l-3,19.95l-3.4,-1.25l-23.6,-16.2l-5.25,-6.6l0.35,-1.15l2.55,2.4l0.35,0.35q1.55,1.35 4,2.5l28,0m-2.1,86.5l1.5,0.4q4.95,1.3 2.1,3.9q-2.85,2.6 -2.55,5q-2,0.15 -2,-0.6q0,-0.8 -2.75,0.8q-2.75,1.6 -2.7,-1.05l-1.5,4.3q0,2.8 -5.05,2.95q3.05,2.6 2.45,3.2q-2.55,2.6 -2.15,4.05q0.35,1.45 -5.65,-2.5q-6.05,-4 -6.55,-6.3l-0.25,-1.25l0.25,-1.75l12.8,-7.35l12.05,-3.8m-32.7,12.45q-26.85,4.7 -50.75,-0.35q-3.05,3.15 -3.25,1.25q-0.3,-1.3 -0.9,-0.75q-1.25,1.05 -2.4,3.8q-1.15,2.75 -6,5q2.3,-1.4 0.6,-1.05l-3.05,-0.25l-0.15,-0.05l-0.9,-0.35q-2.4,-1.05 8.1,-9q-2.05,-1.25 -10.75,4.95q4,-8.4 2.15,-8.6q-2.35,-0.2 -3.1,1.45q-1.75,3.8 -2.3,3.95q-2.05,-0.35 -3.55,-0.05q-1.55,0.25 -1.45,-1.9q0.05,-2.15 1.7,-7.05q1.6,-4.9 4.25,-4.95l-9.6,-7.2l-22.8,42l-4.5,-13.4l-11.55,25.6l-10.95,-3.25l8.9,-34.6l0.2,-0.75l0.35,-1.4l-4.85,7.05l-3.55,4.05l-0.1,-0.1l-7.2,8.05l-0.35,-1.45l13.15,-25.5l26.9,-10.1l-6.1,-7l-26.55,12.8l-5.3,-1.35l-12.5,-3.25l52.05,-17.8l4.2,-1.9l8.6,-31.95l26.1,-22.9l-7.4,17.15q4.6,-2 9.15,-4.05l0.25,33.55l-17.05,2.9q0.35,3.15 1.2,6.15l30.15,-14.5l0.05,0.05l11.9,17.1l-39.1,4.85q1.7,3.25 4.15,6.25l23.45,-0.35l21.75,17.75l-18.35,0.4l3.75,2.1l30.5,7.95l2.8,1m-223.65,-115.65l2.95,-8.35l4.5,-11.95l21.35,29.65l-5.85,4.35l8.05,8.45l-9.95,21.65l-21.05,-43.8m30.65,7.95l-8.2,-19.75q2.1,-19.05 29,-53q12.15,40.2 15.35,58.6q-0.85,-13.2 1.65,-25.1q13.7,-16.2 33,-24q1,10.4 1.4,20.4q0.4,10.7 0.1,21.05q-0.25,7.5 -0.85,14.8l2.15,8.95l3.85,16l-0.4,-0.6l-3.9,-6l-19.5,-30.15l-0.3,-0.45l-2.35,5.3l-4.75,-9.15q-1.45,3.65 -2.45,8.35l2.5,11.25l-4.9,10.85l0.8,1.8l8.2,6l2,8.85l-4.1,-0.75l-19.5,-3.7l-21.95,-33q-3.65,5.3 -6.85,13.45m82.95,-14.55l8.35,1.8l1.85,8.95l2.45,12.15l-3.05,5.6l-0.05,0.05l-3.7,-11l-0.8,-2.45l0,-0.05l-5.05,-15.05m42.55,1.25q-13.95,-12.35 -14.7,-28.45l3.2,-26.7q13.95,-8.05 19.45,-5.35l2.85,28.55l2.55,-14.05l7.6,0.95l-0.45,-0.15l0.75,-1.7l0.1,-0.15l0.2,-0.4l0.7,-1.4l0.65,-1.3l6.5,-12.85l13.15,14.4l-4.9,5.75l-5.45,-6.9l-1.15,6.9l8.35,6.35l-4.05,8.65l-22.7,0.95l-10.7,0.45l10.7,-0.45l-12.65,26.9m30.8,-65.85l2,-4q3.1,-2.35 7,-4.4l1.3,10.1l-2.6,6.05l-7.7,-7.75m75.6,25.75l3.6,-0.95l-1.05,8.55l-6.3,1.4l-6.6,-2.7l-0.15,-2.05l-0.3,-4.5l4.2,-0.1l0,-0.05l6.45,0l-0.45,0.55l0.6,-0.15m-58,-27.95q-1.1,1.6 -1.6,3.3q-1.3,3.9 0.5,8.3l15.75,4.15l0.35,0.05l-0.35,-0.05q-0.9,-0.3 0.85,0.05l-0.5,0q-2.95,0.05 -4,1.25q-1.15,1.3 -1.3,2l-0.05,0.25q-0.2,-0.3 -0.35,0.65l-0.55,1.55l0,0.25l-0.4,1.3q-2,5.25 -2.35,10.8q-0.4,5.85 2,13.15q-0.15,-0.6 0.15,-0.05l0.1,0.4l-0.05,0.2l-0.05,0.1q-0.1,0.2 -0.35,0.15l-0.35,-0.05l-2.15,-0.05l-0.45,0.05l-1.4,0l-0.35,-0.1l-0.5,-1.2q-1.05,-3.25 -1.2,-6.7q-0.15,-3.95 0.15,-7.8q0.45,-5.25 1.95,-10.15l-6.55,-6.5l-2.85,-5.75l1.75,-10.2l4.15,0.65m-2.1,3.1l0.5,0.2l-0.5,-0.2m-24,20l-1.8,-0.25l1.8,0.25m-74.2,60.2l-0.45,9.4l0.45,-9.4m-9.8,-37.7l7.65,28.75l-7.65,-28.75m-21.6,44.9l-1.2,-0.9l0.4,-0.9l-0.4,0.9l1.2,0.9l6.1,14.1l-6.1,-14.1m-6.05,-23.3q1.1,6.5 1.65,13.1l3.6,8.4l-3.6,-8.4l-9,-20.7l9,20.7q-0.55,-6.6 -1.65,-13.1m71,81.2l-17.95,8.7l17.95,-8.7m-49.8,20.15l3.95,-4.95l35.6,-16.1l-35.6,16.1l-3.95,4.95m19.95,7.1l7.05,20.85l-7.05,-20.85m51.1,-67.75l-10.1,4.45l10.1,-4.45m10.9,70.45l16.65,-0.35l-16.65,0.35m-42.4,-30.85l6.3,-2.15l-6.3,2.15m16.65,7.85l11.4,-1.4l-11.4,1.4m15.55,4.85l-10.05,0.15l10.05,-0.15m-11.55,-19.35l3.2,-0.55l-3.2,0.55m4.4,5.6l-7.15,3.4l7.15,-3.4m-10.3,21.45l-0.55,-0.4l-17.8,9.1l-8.95,19.9l8.95,-19.9l17.8,-9.1l0.55,0.4l1.9,-3.55l-1.9,3.55"/>
   <path id="svg_15" fill-rule="evenodd" fill="#aaaaaa" d="m272.2,-71.55l13.35,-7.45l0.85,0.15l0.1,0.4q1.65,1.85 2.8,4.3l0.05,0.1l-15.35,5.35l-3.35,14.85l-0.65,-0.1l1.15,-9.05l1.05,-8.55m-52.85,-5.25l0,-0.25l0.55,-1.55q0.15,-0.95 0.35,-0.65l0.05,-0.25q0.15,-0.7 1.3,-2q1.05,-1.2 4,-1.25l0.35,0.1l31.85,11.8l0.3,4.5l-33.85,-11.85l-4.9,1.4"/>
   <path id="svg_16" fill-rule="evenodd" fill="#cccccc" d="m218.75,-50.9l0.05,-0.1l0.05,-0.2l-0.1,-0.4q-0.3,-0.55 -0.15,0.05q-2.4,-7.3 -2,-13.15q0.35,-5.55 2.35,-10.8l0.4,-1.3l4.9,-1.4l33.85,11.85l0.15,2.05l0.75,11.35q-1.4,0.85 -4.3,3l-1.3,0.95l1,-0.8l0.3,-0.15l-0.3,0.15q-1.25,0.9 -3.5,2.25q-0.35,1.2 -1.55,3q-9.95,-5.85 -30.5,-6.35l-0.1,0m51.9,-2.95l3.35,-14.85l15.35,-5.35q1.3,2.9 2.2,5.95l0.1,1.6q-0.45,3.45 -1.55,6.5q-1.15,3 -2.65,5.55l-1.45,2.35l-1,0.65l-14.35,-2.4"/>
   <path id="svg_17" fill-rule="evenodd" fill="#646464" d="m253.4,-49l-1,0.75l-1.05,0.8l-0.45,-0.1q2.25,-1.35 3.5,-2.25l-1,0.8"/>
   <path id="svg_18" stroke-width="0.05" stroke-opacity="0.301961" stroke-linejoin="round" stroke-linecap="round" stroke="#000000" fill="none" d="m302.5,-97l-0.25,1.65m-9.75,13.35l2.35,4.75q1.75,2.75 2.9,6.7m0.55,4.4l0.05,0.95m55.05,60.1l0.1,0.15l-0.1,0l-88.9,-3.5l-3,19.95l0,0.05q3.9,41.55 5,56q-3.8,4.65 -9.45,9.15l5.35,1.35l1.5,0.4q4.95,1.3 2.1,3.9q-2.85,2.6 -2.55,5l4.1,3.1l8.3,6.25l5.15,3.85l-2.2,5.35l-3.1,7.4l-2.65,6.2l-2.5,6.05l-0.05,0l7.85,0.2l6.25,0.1l3.6,0.1l9.75,0.2l5.7,0.15l13.1,0.25l4.5,11.4l7.75,5.35l-0.95,0.05l-17.05,0.95l3,4.75l1.45,1.85l3.55,4.65l-20.8,-3l-38.2,-8.5l-10,-1.5l9.9,-23.25l2.95,-7l2.65,-6.25l-5.1,-3.9l-1.85,-1.45l-9.1,-6.95q3.05,2.6 2.45,3.2q-2.55,2.6 -2.15,4.05q0.35,1.45 -5.65,-2.5q-6.05,-4 -6.55,-6.3l-0.25,-1.25q-0.25,-1.35 -0.1,-1.95l-7.5,1.5q-26.85,4.7 -50.75,-0.35q-3.05,3.15 -3.25,1.25q-0.3,-1.3 -0.9,-0.75q-1.25,1.05 -2.4,3.8q-1.15,2.75 -6,5l-0.55,1.75l-2.5,7.5l-1.15,3.45l-3.2,9.4l0,1.15l0,5l0,6.35l-5.65,4.6l-2.45,1.95l-2.75,2.2l-2.65,2.15l-3.8,3.05l-2.25,1.8l-0.95,0.75l-19.15,15.45l-1.35,1.05l0,-9l-5,-6.5l-16.8,0l-0.7,0l7.5,-6.75l1.3,-6.75l1.2,-6.5l3.5,-1.3l11.75,-4.55l8.3,-3.15l6.45,-2.5l1.65,-0.9l6.25,-3.45l3.8,-2.1l2.8,-1.55l0.05,-0.05l1.85,-5.8l1.2,-3.7l1.75,-5.35l2.15,-6.65q-2.05,-0.35 -3.55,-0.05q-1.55,0.25 -1.45,-1.9q0.05,-2.15 1.7,-7.05q1.6,-4.9 4.25,-4.95l-9.6,-7.2m-27.3,28.6l-11.55,25.6l-10.95,-3.25l-11.05,-3.25l11.8,-22.1l0.2,-0.4l-7.2,8.05l-10.3,11.45l-16.5,-8.5l28.55,-35.55m39.55,-21.05l4.2,-1.9l8.6,-31.95l0.2,-0.85q-28.05,29.65 -72.6,43.8q-41.6,-18.1 -65,-48.3q-4.9,-6.35 -9,-13.2q1.1,-7.25 6.05,-21.7l2.95,-8.35l4.5,-11.95l21.35,29.65l1.85,-1.4l-8.2,-19.75q2.1,-19.05 29,-53q12.15,40.2 15.35,58.6q-0.85,-13.2 1.65,-25.1q13.7,-16.2 33,-24q1,10.4 1.4,20.4m9.05,4.15l-7.2,30.7l-0.45,9.95l3.85,16m1.15,1.8l2.2,-1.5m2.15,-32.8l8.35,1.8l1.85,8.95m21.95,-0.8l9.2,-6.15l1.2,-2.55q-13.95,-12.35 -14.7,-28.45l3.2,-26.7q13.95,-8.05 19.45,-5.35l2.85,28.55l2.55,-14.05l7.6,0.95l-0.45,-0.15l-0.1,0l0.1,0l0.75,-1.7m32.45,-32.8q4.4,-0.95 10.55,-2.95l2.65,-0.8q3.55,-1 6.9,-2.5l19,-21.85l4.5,-4.15l-7.5,27l1.45,-0.7l28.5,-14l0.55,-0.3l-15,26l17.35,13.1m8.25,42l-0.05,0m-1.55,-0.4l-0.05,0m19.55,194.05l-3.05,-8.55l-0.4,-1.05m6.45,14.35l-5,-6.5q-12,-1.55 -12.1,4.8q-0.05,2.15 1.3,5.2m9.6,-18.1l-0.3,0.1l0.05,0.15m13.7,3.25l-7.75,-5.4l-5.7,1.9m-46,-205.7l0.2,0.25l0,0.05m-36.4,-11.8l-0.35,-0.05q-0.9,-0.3 0.85,0.05m-17.1,-12.5l-0.5,-0.2m-25.8,19.75l1.8,0.25m-52.2,66.6l0,0.05l0.05,-0.05m-0.05,0l-2.45,-12.15m2.45,12.2l0.7,3.35m18.8,-16.35l-19.45,12.95m154.05,-70l-0.85,-0.15m-16.95,8.4l-0.6,0.15l0.45,-0.55m-10.65,0.15l0.3,4.5l0.15,2.05m12.9,1.3l1.05,-8.55m-18.8,22.55l-1,0.75l-1.05,0.8l-0.15,0.1m2.2,-1.65l1.3,-0.95l-0.3,0.15m15.6,-4.15l0.65,0.1m15.35,1.75l0.05,0m-27.05,-0.85l-0.75,-11.35m11.75,10.35l1.15,-9.05m14.85,10.9l-1,0.65m-59.4,-31.3l0.35,0.1m-182.4,52q-3.65,5.3 -6.85,13.45m-1.85,1.4l-5.85,4.35l8.05,8.45l19.15,20.05l13.5,14.1m40.15,-37l0.45,-9.4l-2.15,-8.95l-7.65,-28.75m-17.55,12.65q-1.45,3.65 -2.45,8.35l2.5,11.25m6.1,27.5l0.05,0.25l3.85,17.4l-7.85,-18.15l-0.15,-0.25m-6.1,-14.1l6.1,14.1m4.1,0.75l-2,-8.85m-9,-7.8l-3.6,-8.4l-9,-20.7m9,20.7q-0.55,-6.6 -1.65,-13.1m36.15,-7.65q0.3,-10.35 -0.1,-21.05m24.7,109l-35.6,16.1l-3.95,4.95m13.4,15.7l0.2,-0.75m-4.5,5.65l4.3,-4.9m-8.15,9.25l0.3,-0.3l3.55,-4.05m-0.15,54.2l5.85,-5.2l1.65,-1.55q5.15,0.45 6.85,4.35l0.4,1.25q0.55,2.25 0.25,5.4l0,9m6.55,-13.25q5.25,-1.85 10,1.8l2.7,2.45l1.25,1.5m-20.5,-1.5l-5,2.5m5,-2.5q3.35,-3.15 6.55,-4.25m138.9,-57.45q-2,0.15 -2,-0.6q0,-0.8 -2.75,0.8q-2.75,1.6 -2.7,-1.05l-1.5,4.3q0,2.8 -5.05,2.95m-128.4,4.2l8.95,-19.9l17.8,-9.1l0.55,0.4m15.45,28.75l-0.9,-0.35q-2.4,-1.05 8.1,-9q-2.05,-1.25 -10.75,4.95q4,-8.4 2.15,-8.6q-2.35,-0.2 -3.1,1.45q-1.75,3.8 -2.3,3.95m9.4,8.95q2.3,-1.4 0.6,-1.05l-3.05,-0.25"/>
   <path id="svg_19" stroke-opacity="0.301961" stroke-linejoin="round" stroke-linecap="round" stroke="#000000" fill="none" d="m302.25,-95.35l-0.95,6.45l-0.8,5.45l-8,1.45m6.05,34.45q14.25,5.35 36.45,20.6q9.05,8.6 14.4,15.75l4,6.1m-68.55,-86.25l4.65,-4.6l13.5,-4.5l-0.5,3.45m-33.9,26.4l3.6,-0.95l13.35,-7.45l6.95,-3m-62.75,64.6l100.25,5.45l23.4,6.85m-142.8,-93.45l1.25,-1.55l0.3,-0.35l0.9,-0.9l2.45,-2.1l36,17l10.3,15.2m6.65,0.25l16.4,-20.35m-75.85,-3.9q0.5,-1.7 1.6,-3.3m14.65,15.75l-15.75,-4.15q-1.8,-4.4 -0.5,-8.3l16.5,6.3m36.5,18l-4.2,0.1m-31.85,-11.8l31.85,11.8m-45.95,-29.25l19.15,11.15m70.3,0.05l-11.8,3.95m12.75,-10.4l-11.75,4.9"/>
   <path id="svg_20" stroke-linejoin="round" stroke-linecap="round" stroke="#212121" fill="none" d="m291.45,-49.75l-4.45,-1.15m11.55,3.35l-5.45,-1.8m-50.35,13.3l6.6,-8.5m36.8,-6.6l-1.15,-0.3m-26,-1.5l11,-1m-37.85,42.65l0.35,0.35q1.55,1.35 4,2.5l28,0m-34.75,-8.95q-0.3,3.45 2.4,6.1m10.6,-24.75l-12.25,15.6q-0.65,1.6 -0.75,3.05"/>
   <path id="svg_21" stroke-width="0.05" stroke-linejoin="round" stroke-linecap="round" stroke="#1b1714" fill="none" d="m114.15,0.75l1.15,1.8m77.7,-98.9l7.7,7.75l2.6,-6.05l-1.3,-10.1m-27.15,47.35l22.7,-0.95l4.05,-8.65l-8.35,-6.35l1.15,-6.9l5.45,6.9l4.9,-5.75l-13.15,-14.4m-27.45,36.55l10.7,-0.45m-87.15,26.25l2.35,-5.3l0.3,0.45m-7.35,15.3l4.7,-10.45m-4.7,10.45l-4.9,10.85l-0.4,0.9l1.2,0.9l8.2,6l15.7,11.45m12.85,-6.35l-0.35,-0.5m-1.55,-2.4l0.4,0.6m3.9,19.75l1.15,0.85l7.7,-0.9l-0.35,-0.55m47.95,18.95l0,0.7m-9.4,-30.2q4.6,-2 9.15,-4.05l0.25,33.55l-17.05,2.9l-3.2,0.55m4.4,5.6l30.15,-14.5l0.05,0.05l11.9,17.1l-39.1,4.85l-11.4,1.4m15.55,4.85l23.45,-0.35l21.75,17.75l-18.35,0.4l-16.65,0.35m-21,-66l10.1,-4.45m-13.6,41.95l7.15,-3.4m-2.9,13.9l10.05,-0.15"/>
   <path id="svg_22" stroke-linejoin="round" stroke-linecap="round" stroke="#aaaaaa" fill="none" d="m254.4,-49.8q-1.25,0.9 -3.5,2.25q-0.35,1.2 -1.55,3m9.65,-8.4q-1.4,0.85 -4.3,3m30.3,-1.5l-14.35,-2.4"/>
   <path id="svg_23" stroke-width="2" stroke-linejoin="round" stroke-linecap="round" stroke="#655c50" fill="none" d="m249.35,-44.55q-9.95,-5.85 -30.5,-6.35l-0.1,0"/>
   <path id="svg_24" stroke-width="1.75" stroke-linejoin="round" stroke-linecap="round" stroke="#424242" fill="none" d="m54.65,0.65l-0.3,-0.05m36,-36.6l19.5,30.15l3.9,6l1.9,2.9m-26.5,4l31.7,5.85m-66.2,-12.25l30.5,5.65l4,0.75m35.55,-23.7l0.8,2.45l7.3,24.05m-6.25,10.05l-10.9,-16.85"/>
   <path id="svg_25" stroke-width="0.75" stroke-linejoin="round" stroke-linecap="round" stroke="#1b1714" fill="none" d="m148.35,69.35l-22.8,42l-4.5,-13.4l-7.05,-20.85m-19.95,-7.1l-12.5,-3.25l52.05,-17.8m-39.55,21.05l5.3,1.35l26.55,-12.8l17.95,-8.7m-3.95,-3.05l-6.3,2.15m14.75,20.4l1.9,-3.55"/>
   <path id="svg_26" stroke-width="0.75" stroke-linejoin="round" stroke-linecap="round" stroke="#212121" fill="none" d="m293.05,-49.35l-1.55,-0.4"/>
   <path id="svg_27" stroke-width="1.75" stroke-linejoin="round" stroke-linecap="round" stroke="#000000" fill="none" d="m292.5,-82l2.35,4.75q1.75,2.75 2.9,6.7q1.05,2.55 0.55,4.4l0.05,0.95q0.45,-0.6 -0.15,3.65l0.35,14q14.25,5.35 36.45,20.6q9.05,8.6 14.4,15.75l0.05,0.1q2.35,3.15 3.95,6l0,0.15l-88.9,-3.5l-3,19.95l0,0.05q3.9,41.55 5,56q-3.8,4.65 -9.45,9.15l5.35,1.35l1.5,0.4q4.95,1.3 2.1,3.9q-2.85,2.6 -2.55,5l17.55,13.2l-10.45,25l-0.05,0l46.25,1l4.5,11.4l7.75,5.35l-18,1l3,4.75l5,6.5l-20.8,-3l-38.2,-8.5l-10,-1.5l15.5,-36.5l-16.05,-12.3q3.05,2.6 2.45,3.2q-2.55,2.6 -2.15,4.05q0.35,1.45 -5.65,-2.5q-6.05,-4 -6.55,-6.3l-0.25,-1.25q-0.25,-1.35 -0.1,-1.95l-7.5,1.5q-26.85,4.7 -50.75,-0.35q-2.1,2.15 -2.85,1.95q-0.35,-0.1 -0.4,-0.7q-0.3,-1.3 -0.9,-0.75q-1.25,1.05 -2.35,3.7l-0.05,0.1q-1.15,2.75 -6,5l-7.4,22.1l0,12.5l-41,33l0,-9l-5,-6.5l-17.5,0l7.5,-6.75l2.5,-13.25l30,-11.5l14.5,-8l0.05,-0.05l6.95,-21.5q-2.05,-0.35 -3.55,-0.05q-1.55,0.25 -1.45,-1.9q0.05,-1.55 0.9,-4.45l0.8,-2.6l0.1,-0.4q1.6,-4.5 4.15,-4.55l-9.6,-7.2l-22.8,42l-4.5,-13.4l-11.55,25.6l-22,-6.5l11.8,-22.1l0.3,-0.3l-0.1,-0.1l-17.5,19.5l-16.5,-8.5l28.55,-35.55l-12.5,-3.25l52.05,-17.8l4.2,-1.9l8.8,-32.8q-17.05,18.05 -40.15,30.35q-14.95,7.9 -32.45,13.45q-5.7,-2.45 -11,-5.15q-33.8,-17.05 -54,-43.15q-4.9,-6.35 -9,-13.2q1.1,-7.25 6.05,-21.7l2.95,-8.35l4.5,-11.95l21.35,29.65l1.85,-1.4l-8.2,-19.75q2.1,-19.05 29,-53q12.15,40.2 15.35,58.6q-0.85,-13.2 1.65,-25.1q13.7,-16.2 33,-24q1,10.4 1.4,20.4l9.05,4.15l-7.2,30.7l-0.45,9.95l3.85,16l1.15,1.8l2.2,-1.5l-0.25,-7.4l-6.1,-10.35l5.8,0l-0.45,-15.75l11.5,2.5l1.85,8.95l2.6,-3.4l2.6,7.55l0.3,-10.15l6.95,-0.85l3.75,8.4l-0.25,-5.8l3.75,0.6l2.25,2.85l9.2,-6.15l1.2,-2.55q-13.95,-12.35 -14.7,-28.45l3.2,-26.7q13.95,-8.05 19.45,-5.35l2.85,28.55l2.55,-14.05l7.6,0.95l-0.45,-0.15l0.75,-1.7l0.1,-0.15l0.2,-0.4l0.7,-1.4l0.65,-1.3l9.9,-19.7q3.1,-2.35 7,-4.4q6,-3.1 13.9,-5.45q4.4,-0.95 10.55,-2.95l2.65,-0.8q3.55,-1 6.9,-2.5l19,-21.85l4.5,-4.15l-7.5,27l30.5,-15l-15,26l17.35,13.1l4.65,-4.6l13.5,-4.5l-2.5,17l-8,1.45z"/>
  </g>
 </defs>
 <g>
  <title>background</title>
  <rect fill="none" id="canvas_background" height="124" width="141" y="-1" x="-1"/>
 </g>
 <g>
  <title>Layer 1</title>
  <g id="svg_28">
   <use x="60.050212" y="148.804543" id="svg_29" xlink:href="#shape0" width="381" transform="matrix(1,0,0,1,-192.55,-294) " height="381"/>
   <use x="36.260015" y="89.85239" xlink:href="#sprite0" width="100" transform="matrix(1.6561,0,0,1.6561,-80.2,-152.95) " id="_mcMask" height="40"/>
   <use x="-155.168505" y="384.507862" id="svg_30" xlink:href="#shape2" width="355.1" transform="matrix(-0.387,0,0,0.387,77.9789,-148.2518) " height="311.2"/>
  </g>
 </g>
</svg>