<svg width="206" height="287" xmlns="http://www.w3.org/2000/svg" xmlns:xlink="http://www.w3.org/1999/xlink">
 <defs>
  <g transform="matrix(1,0,0,1,192.55,294) " id="shape0">
   <path id="svg_1" stroke-opacity="0" stroke-linejoin="round" stroke-linecap="round" stroke="#ff00ff" fill="none" d="m187.95,-293.5l0,380l-379.95,0l-0.05,0l0,-380l380,0"/>
   <path id="svg_2" stroke-opacity="0" stroke-linejoin="round" stroke-linecap="round" stroke="#ff00ff" fill="none" d="m187.95,-293.5l-190,190l190,190m-380,-380l190,190l-189.95,190"/>
   <path id="svg_3" stroke-opacity="0" stroke-linejoin="round" stroke-linecap="round" stroke="#ff00ff" fill="none" d="m92.95,-38.4l-189.95,0"/>
  </g>
  <g id="sprite0">
   <use id="svg_4" xlink:href="#shape1" width="100" height="40"/>
  </g>
  <g id="shape1">
   <path id="svg_5" fill-rule="evenodd" fill-opacity="0" fill="#ff00ff" d="m100,40l-100,0l0,-40l100,0l0,40"/>
  </g>
  <g transform="matrix(1,0,0,1,1,276.1) " id="sprite1">
   <use id="svg_6" xlink:href="#shape2" width="349.65" transform="matrix(1,0,0,1,-1,-276.1) " height="206.3"/>
   <use id="svg_7" xlink:href="#sprite2" width="0" transform="matrix(15.3941,-1.6948,-1.6948,-15.3941,69.4,-116.95) " height="0"/>
   <use id="svg_8" xlink:href="#shape3" width="370.55" transform="matrix(1,0,0,1,20.3,-221.25) " height="497.35"/>
  </g>
  <g transform="matrix(1,0,0,1,1,276.1) " id="shape2">
   <path id="svg_9" fill-rule="evenodd" fill="#b3b4bd" d="m346.35,-257.15l0.8,-0.35l-0.95,1.8l0.15,-1.45"/>
   <path id="svg_10" fill-rule="evenodd" fill="#94949c" d="m347.15,-257.5l-0.8,0.35l0.2,-0.3l-0.2,0.3l-8.4,5.15l-53.7,31.8l-11.7,0.3l-60.6,31.9l-5.55,16.35l-19.15,-2.1l-56.5,29.5l-15.65,10.15l-1.25,-1l-2.7,2l0,-0.55q-1.9,-6.65 -7.95,-10.75l24.55,-3.85l57.3,-33l6.2,-12.75l22.15,0.4l58.25,-29.1l6.35,-8.4l54.85,-26.15l14.8,-7.2l-1.1,7l0.6,-0.05"/>
   <path id="svg_11" fill-rule="evenodd" fill="#cfc6b5" d="m346.35,-257.15l-0.15,1.45q-6.4,36.3 -28.5,59.75l-17.6,7.5l11.5,-14.1l9.8,-5.6l16.55,-43.85l8.4,-5.15m-215.3,136.1l72.05,-31.9l7.3,-7.6l9.1,-0.9l18.15,-8.15l11.6,-12.95l-8.35,19.8l-94.95,41.4l-14.9,0.3"/>
   <path id="svg_12" fill-rule="evenodd" fill="#ebe2cf" d="m347.65,-264.45l-14.8,7.2l-45.7,-6.05l-11.05,7.15l-7.75,-8.4l-20.05,0.25l15.3,-10.45l3.65,5.1l-3.35,-4.85q43.05,-3.15 83.75,10.05m-120,38.1l-7.4,6.5l-20.35,-5.7l-37.15,24.95l-4.9,6l-15.95,4.1l-15.25,16.8l-4.35,11.05l-19.9,-3.8l-0.7,-4.2l6.8,-9l87.65,-54.15l27.95,9.3l3.55,-1.85"/>
   <path id="svg_13" fill-rule="evenodd" fill="#c4c6cf" d="m332.85,-257.25l-54.85,26.15l-6.35,8.4l-58.25,29.1l-22.15,-0.4l-6.2,12.75l-57.3,33l-24.55,3.85l-1.3,-1l4.75,-1.35l-4.25,-19.7l19.9,3.8l4.35,-11.05l15.25,-16.8l15.95,-4.1l4.9,-6l37.15,-24.95l20.35,5.7l7.4,-6.5l20.9,-12.1l-0.25,-25.85l20.05,-0.25l7.75,8.4l11.05,-7.15l45.7,6.05"/>
   <path id="svg_14" fill-rule="evenodd" fill="#a9aab3" d="m337.95,-252l-16.55,43.85l-9.8,5.6l-11.5,14.1l-0.3,0.3l-22.45,-9.5l-25.8,12.3l-1.65,0.75l-0.65,2.05l-11.6,12.95l-18.15,8.15l-9.1,0.9l-7.3,7.6l-72.05,31.9l-1.75,0.2l-14.2,-13.25l15.65,-10.15l56.5,-29.5l19.15,2.1l5.55,-16.35l60.6,-31.9l11.7,-0.3l53.7,-31.8"/>
   <path id="svg_15" fill-rule="evenodd" fill="#302f2d" d="m111.15,-133.1l2.7,-2l1.25,1l14.2,13.25l27.2,24.85l-28.15,8.25l-46.8,-25.75l-0.35,-0.25l5.15,-3.1q5.2,2.4 11.1,1.75q7.45,-0.9 11.45,-6.3q3.45,-4.85 2.65,-10.85l-0.4,-0.85m-9.45,-37.55l0.7,4.2l4.25,19.7l-4.75,1.35q-6,-3.6 -12.9,-2.7q-7.5,0.85 -11.45,6.3l-0.75,0.9q-1.15,1.85 -1.65,3.9l-6.1,1.75l3.95,-52.05l22.45,-14l6.25,30.65m-73.3,82.55l5.6,7.2l-20.3,10.1l-13.7,-16.45l20.75,-10.7l1.65,1.85l6,8"/>
   <path id="svg_16" fill-rule="evenodd" fill="#eecce6" d="m103.2,-144.4q6.05,4.1 7.95,10.75l0,0.55l0.4,0.85l-0.65,-0.55q-6.6,-4.8 -13.35,-7.3q-3.8,-1.05 -7.65,-1.5q-6.45,-0.95 -13.1,0.7l0.75,-0.9q3.95,-5.45 11.45,-6.3q6.9,-0.9 12.9,2.7l1.3,1"/>
   <path id="svg_17" fill-rule="evenodd" fill="#cf71b2" d="m74.75,-135.2l0.4,-1.8q0.5,-2.05 1.65,-3.9q6.65,-1.65 13.1,-0.7q3.85,0.45 7.65,1.5q6.75,2.5 13.35,7.3l0.65,0.55q0.8,6 -2.65,10.85q-4,5.4 -11.45,6.3q-5.9,0.65 -11.1,-1.75l-2.7,-1.75q-3.7,-2.3 -6.05,-5.4q-1.5,-2.55 -2.25,-5.55q-0.8,-2.95 -0.6,-5.65"/>
   <path id="svg_18" fill-rule="evenodd" fill="#86521e" d="m81.55,-113.5l-53.15,25.4l-6,-8l55.2,-27.9q2.35,3.1 6.05,5.4l2.7,1.75l-5.15,3.1l0.35,0.25"/>
   <path id="svg_19" fill-rule="evenodd" fill="#d08133" d="m20.9,-105.7l53.85,-29.5q-0.2,2.7 0.6,5.65q0.75,3 2.25,5.55l-55.2,27.9l-1.65,-1.85l-0.05,-0.55l0.2,-7.2m0.35,7.1l-0.55,0.1l0.3,0.25l0.25,-0.35"/>
   <path id="svg_20" fill-rule="evenodd" fill="#ad9c78" d="m20.7,-98.5l0.55,-0.1l-0.25,0.35l-0.3,-0.25"/>
   <path id="svg_21" fill-rule="evenodd" fill="#53597b" d="m0,-87.25l0.9,-14.45l20.2,-10.05l-0.2,6.05l-0.2,7.2l0.05,0.55l-20.75,10.7"/>
   <path id="svg_22" stroke-width="0.05" stroke-linejoin="round" stroke-linecap="round" stroke="#82838a" fill="none" d="m346.35,-257.15l-0.15,1.45l0.95,-1.8l-0.6,0.05l-0.2,0.3m-97.1,74.6l0.65,-2.05l1.65,-0.75l-2.3,2.8m-118.2,61.5l-1.75,0.2"/>
   <path id="svg_23" stroke-width="2" stroke-linejoin="round" stroke-linecap="round" stroke="#000000" fill="none" d="m300.1,-188.45l17.6,-7.5q22.1,-23.45 28.5,-59.75m1.45,-8.75l-1.1,7m-82.65,-17.05q43.05,-3.15 83.75,10.05m-120,38.1l-3.55,1.85l-27.95,-9.3l-87.65,54.15l-6.8,9m125.95,-55.7l20.9,-12.1l-0.25,-25.85l15.3,-10.45m-12.05,89.4l25.8,-12.3l22.45,9.5l0.3,-0.3m-50.85,5.9l-8.35,19.8l-94.95,41.4l-14.9,0.3m-1.75,0.2l27.2,24.85l-28.15,8.25l-46.8,-25.75l-53.15,25.4l5.6,7.2l-20.3,10.1l-13.7,-16.45l0.9,-14.45l20.2,-10.05m-0.2,6.05l53.85,-29.5m0.4,-1.8l-6.1,1.75"/>
   <path id="svg_24" stroke-width="0.05" stroke-linejoin="round" stroke-linecap="round" stroke="#21201f" fill="none" d="m103.2,-144.4q6.05,4.1 7.95,10.75l0,0.55m2.7,-2l1.25,1l14.2,13.25m-27.6,-49.8l0.7,4.2l4.25,19.7m-4.75,1.35l1.3,1m-28.45,9.2l0.4,-1.8q0.5,-2.05 1.65,-3.9l0.75,-0.9q3.95,-5.45 11.45,-6.3q6.9,-0.9 12.9,2.7m-32.85,10.15l3.95,-52.05l22.45,-14l6.25,30.65m9.85,38.4l-0.4,-0.85m-24.8,16.25l-2.7,-1.75q-3.7,-2.3 -6.05,-5.4q-1.5,-2.55 -2.25,-5.55q-0.8,-2.95 -0.6,-5.65m6.45,21.45l0.35,0.25m30,-18.75q0.8,6 -2.65,10.85q-4,5.4 -11.45,6.3q-5.9,0.65 -11.1,-1.75m-65.65,18.35l0.55,-0.1m-0.25,0.35l-0.3,-0.25l0.05,0.55"/>
   <path id="svg_25" stroke-width="0.05" stroke-linejoin="round" stroke-linecap="round" stroke="#705934" fill="none" d="m77.6,-124l-55.2,27.9"/>
  </g>
  <g transform="matrix(1,0,0,1,-20.3,221.25) " id="shape3">
   <path id="svg_26" fill-rule="evenodd" fill="#302f2d" d="m180.65,-122.7l-0.2,0.2l-0.75,1l-0.25,-0.2l-0.4,-0.7q-0.35,-0.35 -0.75,-0.3l-0.05,0l-0.25,0.05l-0.35,-0.2l2.65,-1.85l1.55,0.5l-1.2,1.5m-1.3,3.3l-0.15,2.25l-1.5,-1l-0.6,-3.25l0,-0.05l0.35,0.15l0.35,0.6q0.35,0.3 0.75,0.3l0.65,-0.3l0,-0.05l0.2,0.05l0,0.1l-0.05,1.2m-5.55,-3.55l-0.1,0.55l-1.3,-0.6l0.25,-1.3l1.35,0.6l-0.05,0.15l-0.15,0.6"/>
   <path id="svg_27" fill-rule="evenodd" fill="#ebe2cf" d="m180.65,-122.7l0.7,0l6,2.05l0.65,1.7l0.25,0.1l-0.6,-0.1l-0.55,-1.2l-2.65,-0.8l-0.45,0l-0.85,-0.6l-1.4,-0.05l-0.7,0.2l-0.6,-1.1l0.2,-0.2m10.2,3.35l1.1,0.35l-0.1,0.35l0.1,-0.35q1.85,1.95 2.8,4.4l-0.9,-0.4l-1.5,-2.45l-0.8,-0.25l0.1,-0.7l-0.8,-0.95"/>
   <path id="svg_28" fill-rule="evenodd" fill="#eecce6" d="m178.25,-122.7l0.05,0q0.4,-0.05 0.75,0.3l0.4,0.7l0,0.1l-0.2,0.8l-0.05,0.05l-0.2,-0.95l-0.2,-0.4l-0.55,-0.6m0.95,2l0,-0.05l0,0.05"/>
   <path id="svg_29" fill-rule="evenodd" fill="#cf71b2" d="m177.9,-122.6l0.1,-0.05l0.25,-0.05l0.55,0.6l0.2,0.4l0.2,0.95l0,0.05l-0.65,0.3q-0.4,0 -0.75,-0.3l-0.35,-0.6l0,-0.2l0,-0.5l0.2,-0.35l0.25,-0.25"/>
   <path id="svg_30" fill-rule="evenodd" fill="#c4c6cf" d="m180.45,-122.5l0.6,1.1l0.7,-0.2l1.4,0.05l0.85,0.6l0.45,0l2.65,0.8l0.55,1.2l0.6,0.1l1.4,0.55l1.2,-1.05l0.8,0.95l-0.1,0.7l0.8,0.25l1.5,2.45l-3.4,-1.6l-0.65,0l-3.7,-1.65l-0.85,-1.05l-0.85,0.2l-3.8,-1.45l-1.15,-1.05l0,-0.1l0.25,0.2l0.75,-1"/>
   <path id="svg_31" fill-rule="evenodd" fill="#94949c" d="m194.75,-114.6l-0.35,0.25l-0.05,0l0.05,0l-0.05,0l-0.55,-0.2q-1.85,-0.7 -3.65,-1.35l-0.45,-0.55l-3.9,-1.65l-1,0.4l-0.65,-1l-3.65,-1.55l-1.1,-0.35l0,-0.1l-0.2,-0.05l0.05,-0.05l0.2,-0.8l1.15,1.05l3.8,1.45l0.85,-0.2l0.85,1.05l3.7,1.65l0.65,0l3.4,1.6l0.9,0.4"/>
   <path id="svg_32" fill-rule="evenodd" fill="#a9aab3" d="m189.25,-113.9l-0.45,-1.45l-1.6,-0.75l-0.1,-0.05l-0.1,0.05l-1.1,-0.05l-1.1,-0.55l-0.4,-0.4l-0.65,-0.05l-4.35,-2.2l-0.05,-0.05l0.05,-1.2l1.1,0.35l3.65,1.55l0.65,1l1,-0.4l3.9,1.65l0.45,0.55q1.8,0.65 3.65,1.35l-2.75,0.9l-0.65,-0.25l-1.15,0"/>
   <path id="svg_33" fill-rule="evenodd" fill="#cfc6b5" d="m194.3,-114.3q-2,1.1 -4,0.95l-1.05,-0.55l1.15,0l0.65,0.25l2.75,-0.9l0.55,0.2l-0.05,0.05m-7.3,-1.8l-1.3,0.4l-5.7,-2.95l-0.6,-0.7l4.35,2.2l0.65,0.05l0.4,0.4l1.1,0.55l1.1,0.05"/>
   <path id="svg_34" fill-rule="evenodd" fill="#b3b4bd" d="m194.4,-114.35l-0.1,0.05l0.05,-0.05l0.05,0"/>
   <path id="svg_35" fill-rule="evenodd" fill="#d08133" d="m174.35,-124l3.55,1.4l-0.25,0.25l-0.2,0.35l-3.5,-1.55l0.05,-0.15l0.05,0l-0.05,-0.05l0,0.05l0,-0.05l0.35,-0.25"/>
   <path id="svg_36" fill-rule="evenodd" fill="#86521e" d="m177.1,-121.4l-3.3,-1.55l0.15,-0.6l3.5,1.55l0,0.5l0,0.2l-0.35,-0.15l0,0.05"/>
   <path id="svg_37" fill-rule="evenodd" fill="#53597b" d="m172.65,-124.3l0.75,-0.5l1.25,0.55l-0.3,0.25l-0.35,0.25l0,0.05l-1.35,-0.6"/>
   <path id="svg_38" fill-rule="evenodd" fill="#ad9c78" d="m174,-123.75l0.05,0.05l-0.05,0l0,-0.05"/>
   <path id="svg_39" stroke-width="0.05" stroke-linejoin="round" stroke-linecap="round" stroke="#21201f" fill="none" d="m180.65,-122.7l-0.2,0.2m-1.1,3.1l-0.15,2.25l-1.5,-1l-0.6,-3.25m-3.4,-1l-1.3,-0.6l0.25,-1.3l0.75,-0.5l1.25,0.55m3.25,1.65l0.1,-0.05l0.25,-0.05l0.05,0q0.4,-0.05 0.75,0.3l0.4,0.7m-1.8,-1.15l2.65,-1.85l1.55,0.5l-1.2,1.5m-0.95,1.2l0.75,-1m-1.25,1.8l0,-0.05l0.05,-0.05l0.2,-0.8l0,-0.1m-0.05,1.1l-0.05,1.2m0.05,-1.2l0,-0.1m-0.2,0l-0.65,0.3q-0.4,0 -0.75,-0.3l-0.35,-0.6l0,-0.2l0,-0.5l0.2,-0.35l0.25,-0.25m-0.8,1.15l0,0.05m-3.1,-2.35l0.05,0.05m-0.05,0l0,-0.05l0,0.05"/>
   <path id="svg_40" stroke-width="0.05" stroke-linejoin="round" stroke-linecap="round" stroke="#82838a" fill="none" d="m188.25,-118.85l-0.25,-0.1l-0.65,-1.7l-6,-2.05l-0.7,0m7.6,3.85l1.4,0.55l1.2,-1.05l1.1,0.35q1.85,1.95 2.8,4.4l-0.35,0.25l-0.1,0.05q-2,1.1 -4,0.95l-1.05,-0.55l-0.45,-1.45l-1.6,-0.75l-0.2,0l-1.3,0.4l-5.7,-2.95l-0.6,-0.7l-0.05,-0.05m7.85,3.3l-0.1,-0.05l-0.1,0.05m7.35,1.75l-0.05,0.05m0.05,-0.05l0.05,0"/>
   <path id="svg_41" stroke-width="0.05" stroke-linejoin="round" stroke-linecap="round" stroke="#705934" fill="none" d="m177.45,-122l-3.5,-1.55"/>
   <path id="svg_42" fill-rule="evenodd" fill="#594466" d="m218.1,-121.8l0.75,-0.95l6.1,-3.75l7,-3.35l6,2.35l3.25,6.65l-1.9,5.75l-5.25,-5l-3.5,0l-9.85,8.85l-8.75,9.8l-2.75,0.1l-8.4,4.1l1.05,-3.75l16.25,-20.8m66.5,16.25l6.35,5.55l1.85,6.6l-1.35,4.95l-1.4,4.95l-6.5,10.5l-5.6,3.35l-3.65,1.55l-4,-4.6l2.4,-0.9l3.6,-2l6.95,-12.85l0.95,-5.15l-3.9,-4.75l-6.5,1.25l-13.4,18l-5.95,8l-5.4,2.75l-11.45,-1.25l-0.05,0l-28.35,-3.15l-3.15,-1.5l-1.85,-3.4l46.35,3.05l22.05,-30.45l12,-0.5m30.05,150.4l2.95,3.55l0,6.25l-3.5,4.5l-2.15,-4.4l-2.1,-4.35l-5,-2.75l-7.5,0l-4,-4.4l2.25,-3.1l-11.75,-37l0,-14l1.75,-2l9.25,-14.75l12.95,-1.4l1.95,3.3l-2.05,5.35l-0.35,-3.9l-5.5,-2.1l-6.75,2.5l-9.65,15.35l2.15,12l10.35,33.75l10.4,0l6.3,7.6m-127.9,-87.25l0.05,0.25l0.75,5.15l-0.9,1.1l0,0.05l0,-0.05l-19.2,-6.4l1.35,-1l0.05,0l17.9,0.9m0.7,11.8l2.1,0.9l1.4,2.8l-2.5,3.5l-3,0.3l-11.7,1l2.05,-7.65l-4.25,-7.8l15.9,6.95m0.35,17.35l-0.1,7.75l-12.45,0l-2.05,0l0.4,-9.1l0,-0.65l-2.2,-2l-2.2,-2l16.25,-1.1l0,0.6l2.4,2.8l-0.05,3.7m-61.15,-87.7l-0.05,7.8l-6.3,18.5l-6.5,7.75l2.45,-6.1l3.95,-10l2.9,-16.75l-12.5,-21.65l0,-7.45l5.85,0l6.15,4.45l-2.15,2.65l-3.5,-0.05l-1,2.45l2.2,3.35l-0.35,1.6l8.85,13.45m-40.1,15.45l7.25,-1.15l-3.3,7.25l0.8,2.4l4.15,2.85l-6.3,-2.4l-2.6,-4.85l0,-4.1m97.35,15.9l-11.25,2.45l-11.5,-3.55l-1.1,-4.95l20.9,0l2.1,2l0.85,4.05m3.2,10.25l-8,3.75l-19,-3.75l27,0m5,8l-15.25,1l-9,-4.75l24.25,3.75m-102.4,-30.4l0.8,2.35l-0.8,-2.35m86.4,97.9l16.1,0l0.4,1l-1.65,3.75l-16.6,-0.15l1.75,-4.6"/>
   <path id="svg_43" fill-rule="evenodd" fill="#cecab7" d="m239.3,-115.1l1.9,-5.75l-3.25,-6.65l-6,-2.35l-7,3.35l11.95,-17.8l41.45,-17.05l-15.25,24.5l2.75,0l100.5,-32.25l-46,36l-18.25,7l-18.25,7l28.25,8.5l8,0l45.25,0l13.75,13.25l-65.75,-4.25l-11.75,10l-10.15,3.15l10.15,-3.15l19.4,14.9l12.85,9.85l37,41.25l19,8.75l-34.25,-11l-19,-12l-5.3,-0.25l-5.25,-0.25l0,-22l-1.5,-2.65l-8.7,23.1l-22,-6.7l-16.9,-7.55l-3.4,-7.6l5.5,1.1l-4.75,-5.45l3.65,-1.55l5.6,-3.35l6.5,-10.5l1.4,-4.95l1.35,-4.95l-1.85,-6.6l-6.35,-5.55l-2.4,-2.1l-8.15,-2.1l-4.5,1.65l-1.9,1.95l-7.8,-1.1l-10.3,-1.5l-8.85,-5l-1.4,-1.35m-1.35,-12.4l13.65,-9.35l11.5,0l-11.5,0l-13.65,9.35m-52,397.25l-0.2,0.3l-4.15,5.05l13.75,-20.7l30.25,-74l0.3,-3.5l5.45,-72.25l-18.25,26.5l0,-21.75l-10.75,39l-15.8,20.2l-24.45,31.3l6.9,-25.65l11.35,-42.6l0,-54l-35.25,27.5l15.25,-30.5l5.5,-31l7.95,-16.45l-2.7,32.45l8,0l6.1,2.5l3.9,-1.75l1.85,-39.5l1.65,-3.75l-0.4,-1l6.6,0l3,-2.75l-0.3,-2.75l5.9,-1l-6.05,99.35l16.65,-102.65l4.7,-2.25l5.4,37.05l-2.65,-39.1l6.1,-4.7l20.25,63.75l-0.45,6.3l-7.25,9.75l0,17.5l2.5,2.25l4.75,-4.5l-10.75,81l-34.75,65.75l-19.9,30.6m-71.95,-169.75l0.85,-7.85l17.5,-26.7l7.2,-52.95l14.8,-20l1.2,3.35l1.8,2.1l-13.5,17.7l-11.45,49.75l4.2,-6.5l15,-48.25l6.3,-12.05l5.9,6.9l3.7,2.2l-22.4,52.45l-31.1,55.85l-2.15,2.9l2.15,-18.9m130.15,-118.35l1.7,-3.25l13.2,20.35l12.25,40.6l1.15,7.9l-0.55,0.2l-15.05,-46.05l-12.7,-19.75m-5.1,9.95l0.9,-1.75l30.1,57.5l0,0.8l-5.2,2.1l-25.8,-58.65m-38.7,123.55l1,-6.15l-1,6.15m-68.5,-46.25l0.5,-3.45l0.05,-0.05l-0.05,0.05l-0.5,3.45m100.25,25.75l-0.75,10l0.75,-10"/>
   <path id="svg_44" fill-rule="evenodd" fill="#464544" d="m211.95,-101.45l8.75,-9.8l9.85,-8.85l3.5,0l5.25,5l1.4,1.35l8.85,5l10.3,1.5l-16.65,2.4l1.15,4.25l-10,5.5l-25.15,4.45l0,-3.35l2.75,-7.45m-99.9,-6.65l6.15,10.6l0,8.9l-6.1,13.25l-5.15,2.45l-11.5,-1.25l-4.15,-2.85l20.75,-31.1"/>
   <path id="svg_45" fill-rule="evenodd" fill="#7d714f" d="m218.1,-121.8l-16.25,20.8l-1.05,3.75l-1.1,3.75l-8,0l-2.25,-2.75l3.25,-5.35l0.05,-0.05l7.3,-12.1l0,-5.15l-4.35,-4.35l-8.5,2.6l-16.4,18.15l-4.75,3.6l-4.85,3.65q-2.85,-1.15 -5.75,-2.35l-5.4,6.2l-11.1,-1.6l-3.9,-1.15l-4,-5l-3.25,0l-1.15,-1.8l-8.85,-13.45l9.2,2.4l4.55,8.4l5.5,2.85l6.75,0l5.9,-4.6l1.6,-3.75l7.7,-17.2l7.35,-9.8l0,-10.55l0.5,0.15l11.75,5.65l10,-2.75l9.05,-9.75l1.95,-2.15l0.05,0l2.45,-2.05l-1.75,-13.35l-6.1,-1.05l-3.05,-0.5l6.6,-8.85l-3.5,-12.2l-9.3,-10.8l0.6,15.3l-2.85,-0.25l0,-24.55l12.8,15.8l7.75,19l8.3,9.4l10,23.25l-3.5,24.55m-16.25,-56.95l-4.05,-2.55l4.05,2.55m-66,-26.6l13.75,0l15.15,16.7l-5.8,1.15l-8.5,-12.2l-7.25,-2.8l-7.35,-2.85m14.1,38.65l8.05,3.1l15.9,-6.15l-15.95,11.25l-2,-2.85l-6,-5.35"/>
   <path id="svg_46" fill-rule="evenodd" fill="#7b7767" d="m302.1,-126.1l39.5,0l-21.5,15.5l-8,0l-28.25,-8.5l18.25,-7m-163.55,259.95l-6.2,3.55l-35.5,22.5l25.55,-34.1l4.95,-2.15l3.25,-8.25l0,10q10.15,-5.35 20.25,-10.75l-12.3,19.2"/>
   <path id="svg_47" fill-rule="evenodd" fill="#e7d292" d="m326.05,-20.35l0,13.75l-15,13.2l-8.1,7.15l-1.2,-4.05l15.95,-35l6.85,-39.7l1.5,2.65l0,22l0,20m10.05,15.2l-6.9,26l-16.4,11.35l-1.8,1.2l14.95,-17.65l10.15,-20.9"/>
   <path id="svg_48" fill-rule="evenodd" fill="#a4a193" d="m301.6,-91.6l11.75,-10l35,19.25l-27.35,5.65l-19.4,-14.9m29.7,51.5l22.55,28.5l-25.25,-8.75l-2.55,0l0,-20l5.25,0.25m-61.95,152.75l-17,61.7l-25.25,44.75l-41.15,50.65l19.9,-30.6l34.75,-65.75l10.75,-81l4.75,-4.5l5.8,-9.55l2.1,-1.2l1.85,8.5l0,5.5l-2.1,8.35l-6.15,0.9l-5.75,9l8.75,7.7l10,-5.85l-1.25,1.4m38.45,-141.65l-1.95,-3.25l-9.25,-1.4l-7.05,6.25l-9.25,-16.6l0,-4.5l-3.35,-7.65l16.9,7.55l22,6.7l-6.1,16.2l-1.95,-3.3m-63.65,10.65l12.7,19.75l15.05,46.05l-1.85,0.7l0,-0.8l-30.1,-57.5l4.2,-8.2m-12.6,15.7l7.5,-5.75l25.8,58.65l-3,1.15l-7,8.75l-3.5,7.25l0.45,-6.3l-20.25,-63.75m-13.55,9l-16.65,102.65l6.05,-99.35l5.9,-1.05l4.7,-2.25m4.7,-2.25l2.75,-2.05l2.65,39.1l-5.4,-37.05m-50.6,10.8l1.85,1.25l2.15,0l-1.75,4.6l-0.55,6.45l-7.95,16.45l-13,20.25l-38.85,52.1l31.1,-55.85l22.4,-52.45l3.75,2.2l0.45,2.5l0.4,2.5m-14.75,-16.95l0.55,0.65l-6.3,12.05l-15,48.25l-4.2,6.5l11.45,-49.75l13.5,-17.7"/>
   <path id="svg_49" fill-rule="evenodd" fill="#a37f9d" d="m200.8,-97.25l8.4,-4.1l2.75,-0.1l-2.75,7.45l0,3.35l0,3.4l4.85,4.75l24.9,2.4l5.85,-1l15,-16.9l7.85,-8.15l1.9,-1.95l4.5,-1.65l8.15,2.1l2.4,2.1l-12,0.5l-22.05,30.45l-46.35,-3.05l-5.25,-9.6l0,-3.6l0.75,-2.65l1.1,-3.75m88.75,69.85l7.05,-6.25l9.25,1.4l1.95,3.25l-12.95,1.4l-9.25,14.75l-1.75,2l0,14l11.75,37l-2.25,3.1l-6.45,-20.5l-4.5,-14.3l-0.3,-0.95l-1.3,-7.4l-1.85,-10.6l3.6,-6.15l3.4,-5.9l2,-3.45l1.6,-1.4m-82.45,-38.2l2.7,12.1l-4.75,4l-9,4.1l-9.75,0l0.45,3l-17.9,-0.9l-3.4,-4.6l-11.75,-2.85l-1.9,-2l-5.75,-17.65l1.4,-1.35l8.5,4.35l6.25,1.65l-1.05,-4.95l11.5,3.55l11.25,-2.45l0.8,4.1l6.85,0l11.25,-2.65l2.25,-1.15l1.4,-0.7l0,1.5l0.65,2.9m-20.45,29.75l-1.45,1.7l2.25,3.55l-15.9,-6.95l-2.4,-1.05l-1.95,-3.55l0.25,-0.15l19.2,6.4l0,0.05m-1.2,12.75l0,2.65l0,0.1l-16.25,1.1l1.15,-2.55l3.4,-0.3l11.7,-1m-96.45,-46.2l-5.05,-3.35l-1.15,-7.85l3.75,-5l0,4.1l2.6,4.85l6.3,2.4l11.5,1.25l5.15,-2.45l6.1,-13.25l0,-8.9l-6.15,-10.6l-4.8,-8.25l-1.4,-2.4l0,-3.35l4.75,-6.75l0,7.45l12.5,21.65l-2.9,16.75l-3.95,10l-18.5,7.4l-6.3,-2.05l-2.45,-1.65m81.45,24.8l-1.6,1.2l1.6,-1.2m21.65,-6.85l-24.25,-3.75l9,4.75l15.25,-1m-5,-8l-27,0l19,3.75l8,-3.75m-13.3,86.55l0.55,-6.45l16.6,0.15l-1.85,39.5l-3.9,1.75l-6.1,-2.5l-8,0l2.7,-32.45"/>
   <path id="svg_50" fill-rule="evenodd" fill="#302f2d" d="m311.05,6.6l1.1,11.05l-2.5,2.4l-6.7,-6.3l8.1,-7.15m1.75,25.6l1.85,12.65l-5.4,-10.2l1.75,-1.25l1.8,-1.2m-8.85,-47.6l-2.1,-10.95l5.5,2.1l0.35,3.9l-3.75,4.95m-43.55,-63.7l13.4,-18l6.5,-1.25l3.9,4.75l-0.95,5.15l-6.95,12.85l-3.6,2l-2.4,0.9l-3.75,-4.3l1.75,-0.75l3.75,-0.75l-2.35,-1l-5.9,0l-3.4,0.4m-15.5,42.3l3.4,3.95l-1.75,9.85l-0.7,1.4l-1.7,3.25l-4.2,8.2l-0.9,1.75l-7.5,5.75l-6.1,4.7l2.1,-15.55l9.65,-6.9l7.7,-16.4m-126.75,-79.2l-2.2,-3.35l1,-2.45l3.5,0.05l-1.5,1.75l-0.8,4m64.3,18.6l-3.1,0q-1.95,-0.9 -3.9,-1.85l3.9,-4.65l4.6,-2.25l3.75,1.15l0,3.85l-5.25,3.75"/>
   <path id="svg_51" fill-rule="evenodd" fill="#5a5e61" d="m259.85,-107.25l7.8,1.1l-7.85,8.15l-15,16.9l-5.85,1l-24.9,-2.4l-4.85,-4.75l0,-3.4l25.15,-4.45l10,-5.5l-1.15,-4.25l16.65,-2.4m41.9,116.95l1.2,4.05l6.7,6.3l-2.45,2.3l-0.65,0.85l2.7,11.45l5.4,10.2l-6.3,-7.6l-10.4,0l-10.35,-33.75l-2.15,-12l9.65,-15.35l6.75,-2.5l2.1,10.95l-6.9,9.05l4.7,16.05m-19.35,-1.25l4.5,14.3l-5.45,0l-4,3.6l-3.1,-10.6l0.9,-1.3l2.95,-4.45l4.2,-1.55"/>
   <path id="svg_52" fill-rule="evenodd" fill="#fbf0cc" d="m312.15,17.65l23.95,-22.8l-10.15,20.9l-14.95,17.65l-1.75,1.25l-2.7,-11.45l0.65,-0.85l2.45,-2.3l2.5,-2.4m12.4,-82.65l-6.85,39.7l-15.95,35l-4.7,-16.05l6.9,-9.05l3.75,-4.95l2.05,-5.35l6.1,-16.2l8.7,-23.1m-165.65,-22.25l-4.45,5.25l-4.4,-9.4l5.4,-6.2q2.9,1.2 5.75,2.35l-1.5,7l-0.8,1m-23.85,-6.9l-3.75,6.25l-3.5,-6.85l0,-4.4l3.25,0l4,5"/>
   <path id="svg_53" fill-rule="evenodd" fill="#99793f" d="m155.7,-27l1.85,-0.65l0,-7.75l-7.55,-9.4l5.7,2.3l11.1,2.85q1.15,0.5 2.35,1.05l2.4,1.05l4.25,7.8l-2.05,7.65l-3.4,0.3l-7.15,0.65l-7.5,-5.85m-17.25,-34.95l-2.5,6.45l-3.5,-5.75l-6.1,35.75l-0.25,-2.1l1.25,-32.75l-4.75,-6.55l-2.8,0l-8.25,4.5l-8.7,0l0.75,-0.85l-1.55,-1l1.55,1l-0.75,0.85l-3.15,3.4l14.7,-1l-3.1,3.95l-0.95,1.2l0.95,-1.2l11.15,1.7l-3.9,7.7l-15.6,17.5l0,5l-5.25,3.65l-1.15,6.75l-2.6,-5.5l-1.4,-0.65l0,5.5l-12.1,9l-1.65,-13.25l-15.35,8.5l3.75,-10.25l-8.65,-1.65l5.4,-0.85l-9.55,-8l9.4,4.05l16.9,0l6.95,-5.25l-0.8,-14l-6.75,-8.4l0,7l-1.85,12.9l-1.15,2.5l0,-23.5l-5.75,17.25l-4.5,-15.65l8.1,-13.45l3.9,-12.1l-1.4,8.3l2.65,2l0,7.75l2.55,0.7l2.55,0.7l1.75,3.55l0.7,1.45l-0.7,-1.45l4.25,0l7.75,3.55l3.4,6.75l-6,-3.25l-8.7,-5.6l5.2,10.75l0.05,8.8l-0.3,0.6l19.15,-9.35l3.15,-8.8l-6.85,0.6l0,-3.9l-18.75,-3.1l5.85,-5.1l5.8,0l-5.8,0l-5.8,0l-4.4,0l4.05,-4.7l2.45,1.65l6.3,2.05l3.2,1l1.1,0.35l5.8,-0.2l5.95,-2.45l6.5,-7.75l6.3,-18.5l0.05,-7.8l1.15,1.8l0,4.4l3.5,6.85l3.75,-6.25l3.9,1.15l11.1,1.6l4.4,9.4l4.45,-5.25l9.8,4.85l8.1,0l2.4,0l6,-3.6l6.5,-7.5l8,0l-0.75,2.65l0,3.6l5.25,9.6l1.85,3.4l3.15,1.5l28.35,3.15l0,0.05l0.05,-0.05l11.45,1.25l5.4,-2.75l5.95,-8l3.4,-0.4l5.9,0l2.35,1l-3.75,0.75l-1.75,0.75l3.75,4.3l4,4.6l4.75,5.45l-5.5,-1.1l-7.1,-5.85l-6.85,-1.05l0,13.65l-4.25,-7.3l-4.25,3.2l-3.7,-0.65l1.2,22.9l-6.5,-9.75l0,-7.25l-0.8,-6.95l-6.1,-1.05l0.75,-1.85l-4.35,1.2l-10.15,2.75l-14.35,-3.85l-0.65,-2.9l0,-1.5l-1.4,0.7l-12.45,-7l-8.7,6.7l-0.85,-4.05l-2.1,-2l-20.9,0l1.1,4.95l-14.05,-7.9l-11.75,3l-1.2,6l4.3,7.65m142.35,62.05l1.3,7.4l0.3,0.95l-4.2,1.55l-2.95,4.45l-4.45,-1.3l10,-13.05m-13.1,-70.7l-3.05,-2.75l-5.05,2.7l5.05,-2.7l3.05,2.75m1.5,-1.75l1.1,-0.35l-1.1,0.35m3.35,4.95l1.75,-0.7l-1.75,0.7m-85.75,25.25l16.05,0l7,4.15l10.5,-3.35l-4.75,8.2l-9.25,4.8l-19.7,-7.5l0,-0.05l0.9,-1.1l-0.75,-5.15m2.75,12.45l8.4,3.7l0,1.75l-9.5,0.85l2.5,-3.5l-1.4,-2.8m-4.1,9.25l32.65,-2.4l-18.5,10.75l-11.8,-1.15l0.05,-3.7l-2.4,-2.8l0,-0.6l0,-0.1m12,14.95l5.9,-0.35l28.3,-11.4l4.7,-14.35l-7.3,-8.1l-5.5,6.6l-0.05,-0.05l9.35,-21.35l1.7,-2.6l0,15.9l1.15,-6.45l9.2,10.85l-7.7,16.4l-9.65,6.9l-9.25,6.6l-15.75,6l-2.2,0.2l-0.3,-2.9l-2.6,-1.9m34.15,-59l4.35,-1.2l-0.75,1.85l-4.85,3.6l-21.65,18.9l4.5,-7.65l18.4,-15.5m22.5,33.75l0,-4.75l-4,-14.25l8.15,2.9l6.6,8l-6,0l2.85,19.85l5.6,-7.25l-3.4,10.6l-2.2,-3.35l-7.6,-11.75m-16.55,-38.8l-1.6,3.85l1.6,-3.85m-3.2,29.55l0.2,-1.2l-0.2,1.2m29.35,39.75l7.85,-17l-4.15,17l-3.7,0m3,2.75l8.4,-10.85l-1.35,7.25l-1.55,7.6l-5.5,-4m-216.9,-74.45l0.9,2.7l0.7,7.25l-4.95,-1.05l-6.5,-1.45l1.75,-3.4l8.1,-4.05m-8.1,4.05l4.75,4.85l-4.75,-4.85m8.55,21.55l-4,-4.55l10.85,4.55l5.6,0l-8.25,3.85l-3.3,-2.95l-0.9,-0.9m74.1,-30l8.25,4.05l1.55,2.7l-1.55,-2.7l-8.25,-4.05m43.1,34.05l-19.85,-6.8l21.2,5.8l-1.35,1m-10.3,22.65l-1.95,-1.95l16.2,4.35l2.2,2l0,0.65l-7.5,-0.75l-3.4,1.2l-5.55,-5.5m2.8,9.75l9.5,5.3l-0.6,0.5l0.55,3.05l-9.45,-8.85m-89.15,-72.4l7.3,-0.95l-3.4,5.25l-1.45,2.15l-1.3,-3.4l-1.15,-3.05m1.8,25.95l4.35,-11.9l0.5,-3l-0.5,3l-4.35,11.9m2.1,-21.65l-2.75,-1.25l2.75,1.25m5.4,16.5l0,7l0,-7m46.7,-21.1l5.8,10.3l-5.8,-10.3"/>
   <path id="svg_54" fill-rule="evenodd" fill="#a19180" d="m311.95,54.75l0,30.9l-2.4,3.75l-2.45,3.75l-3.5,9l-5.85,0l-2.9,4.75l-11.65,3.55l-7.35,5.45l-6.5,-3.25l1.25,-1.4l-10,5.85l-8.75,-7.7l5.75,-9l6.15,-0.9l2.1,-8.35l11,3.5l8.25,-7l4.75,5l11.75,-4.25l5.65,0.75l1.2,-31.9l-5.35,-1.85l-15.5,-14l-7.4,2.75l0,-6.05l-1.25,-10.6l-1.5,-1.15l4,-3.6l5.45,0l6.45,20.5l4,4.4l7.5,0l5,2.75l2.1,4.35m-35,-110.9l3.35,7.65l0,4.5l9.25,16.6l-1.6,1.4l-2,3.45l-4.3,-12.55l-6.35,-9.15l-4.35,3.65l1.75,-6.65l-9.7,0l-3.4,-3.25l0,-6.5l0,-13.65l6.85,1.05l7.1,5.85l3.4,7.6m-85.25,-37.35l-6.5,7.5l-6,3.6l-2.4,0l8.3,-15l7.6,-4.2l-3.25,5.35l2.25,2.75m88.6,50.75l0,-1.25l0,1.25m-10.2,5.5l5,0l-2.9,6.35l-3,-3l0.9,-3.35m3.15,10.75l7.35,0l-1.45,8.55l-3.35,-1.3l0,-2.25l-4.85,-1.65l2.3,-3.35m-29.15,121.15l8,-15.75l10,-10.25l1.9,8.5l-2.1,1.2l-5.8,9.55l-4.75,4.5l-4.75,4.5l-2.5,-2.25m65.45,-5.25l-2.3,-0.25l2.3,0.25m-255.6,-217.75l13.9,9.5l0,3.6l0.6,-0.6l8.1,-3.65l2.9,-7.75l1,0l0,11.5l7.25,7l-1.5,7l-0.75,0.9l-12,7.1l-4.65,6.25l1.6,4.1l0.4,1.1l1.15,3.05l1.3,3.4l-6.15,9.35l-3.5,-3.5l-1.7,3.95l-14.95,-13.6l-2,-5.1l-4.1,-4.25l0,-0.05l7,-1.75l-11.15,-11.8l13.25,11.25l1,0l3.1,-2.4l2.9,-2.65l2.5,-1.7l-14.15,-12.75l16.25,9.35l2.5,-1.75l4.4,-1.5l-1.4,4.15l-6.35,1.95l-1.25,0.55l0,1.85l-1,0.9l-4.4,4l-3.1,0l-3.75,3.75l-6.35,-1.45l6.35,1.45l3.75,-3.75l3.1,0l4.4,-4l1,-0.9l0,-1.85l1.25,-0.55l6.35,-1.95l1.4,-4.15l5.25,0l6.35,-4.75l0.4,-1l0,-5.25l0,5.25l-0.4,1l-6.35,4.75l-5.25,0l-14.5,-23.6m20.6,10.95l-8.6,4l8.6,-4m91.5,18.5l4.75,-3.6l16.4,-18.15l8.5,-2.6l4.35,4.35l0,5.15l-7.3,12.1l-2.9,-5.55l-8.8,0l-9.65,9.6l-5.35,-1.3m1.3,12.8l-2.75,-2.9l3.1,1.75l6.15,-2.25l-6.5,3.4m-104.35,-2.1l5.8,0.7l-5.8,-0.7l-7.95,3.45l-10.1,0l10.1,0l7.95,-3.45l-2.55,-0.3l-1.9,-4.5l-0.1,-2.35l0.1,2.35l1.9,4.5l2.55,0.3m220.2,198.65l5.9,-8.55l-5.9,8.55m17.4,-13.05l-2.85,4.75l2.85,-4.75m-42.5,6.3l4.6,0l1.05,-4.2l-1.05,4.2l-1.1,4.2l1.1,-4.2l-4.6,0m12.5,7.55l9.75,-10.85l-9.75,10.85"/>
   <path id="svg_55" fill-rule="evenodd" fill="#bfa464" d="m155.2,-21.6l-1.9,-1.9l2.4,-3.5l7.5,5.85l7.15,-0.65l-1.15,2.55l2.2,2l-16.2,-4.35m-5.2,-23.2q-4.3,-1.7 -8.55,-3.45l1.35,-6l-4.35,-7.7l-4.3,-7.65l1.2,-6l11.75,-3l14.05,7.9l1.05,4.95l-6.25,-1.65l-8.5,-4.35l-1.4,1.35l5.75,17.65l1.9,2l11.75,2.85l3.4,4.6l-0.05,0l-21.2,-5.8l19.85,6.8l-0.25,0.15l1.95,3.55q-1.2,-0.55 -2.35,-1.05l-11.1,-2.85l-5.7,-2.3m-23.9,17.2l-3.65,-26.75l-11.15,-1.7l3.1,-3.95l-14.7,1l3.15,-3.4l8.7,0l8.25,-4.5l2.8,0l4.75,6.55l-1.25,32.75m156.45,10.95l-3.6,6.15l1.85,10.6l-10,13.05l1.4,-6.65l1.55,-7.6l1.35,-7.25l-8.4,10.85l0.7,-2.75l4.15,-17l-7.85,17l-3.25,-4.75l3.45,-10.65l3.4,-10.6l-5.6,7.25l-2.85,-19.85l6,0l-6.6,-8l-8.15,-2.9l4,14.25l0,4.75l0,4.75l-5.8,-6.85l-3.4,-3.95l-9.2,-10.85l-1.15,6.45l0,-15.9l0,-5.15l0.65,-1.6l-0.65,1.6l0,5.15l-1.7,2.6l-9.35,21.35l0,0.05l0,-0.05l0.05,0.05l5.5,-6.6l7.3,8.1l-4.7,14.35l-28.3,11.4l-5.9,0.35l-2.45,0l-7.3,0l0.1,-7.75l11.8,1.15l18.5,-10.75l-32.65,2.4l0,-2.65l3,-0.3l9.5,-0.85l0,-1.75l-8.4,-3.7l-2.1,-0.9l-2.25,-3.55l1.45,-1.7l19.7,7.5l9.25,-4.8l4.75,-8.2l-10.5,3.35l-7,-4.15l-16.05,0l-0.05,-0.25l-0.45,-3l9.75,0l9,-4.1l4.75,-4l-2.7,-12.1l14.35,3.85l10.15,-2.75l-18.4,15.5l-4.5,7.65l21.65,-18.9l4.85,-3.6l6.1,1.05l0.8,6.95l0,7.25l6.5,9.75l-1.2,-22.9l3.7,0.65l4.25,-3.2l4.25,7.3l0,6.5l3.4,3.25l9.7,0l-1.75,6.65l-0.85,3.35l-0.9,3.35l3,3l5.25,-1.85l-4.2,6.25l-2.3,3.35l4.85,1.65l0,2.25l3.35,1.3l3.4,1.3m-55.6,-18l-3.4,1.55l3.4,-1.55m36.05,-12.6l3.45,3.3l-8.2,-2.9l8.2,2.9l-3.45,-3.3m-25.45,-22.3l0,-0.05l0.05,0l-0.05,0.05m-14.35,37.05l0.3,-0.6l0.05,0l-0.05,0l-0.3,0.6m44,-10.75l-0.75,-0.7l0.75,0.7m-196.8,-40.15l1.7,-0.85l7.5,0l-0.75,4.7l-3.9,12.1l-8.1,13.45l4.5,15.65l5.75,-17.25l0,23.5l1.15,-2.5l1.85,-12.9l0,-7l6.75,8.4l0.8,14l-6.95,5.25l-16.9,0l-9.4,-4.05l-1.2,-1l-2.95,-14.45l0.9,0.9l3.3,2.95l8.25,-3.85l-5.6,0l-10.85,-4.55l-1.15,-1.25l6.6,-1.35l-19.5,-9.15l14.5,-10.75l2.2,-1.2l0.9,2.65l-8.1,4.05l2.75,-2.25l-2.75,2.25l-1.75,3.4l6.5,1.45l4.95,1.05l7.95,1.75l2.55,-5.8l1.7,-3.95l3.5,3.5l6.15,-9.35l1.45,-2.15l3.4,-5.25l-7.3,0.95l-0.4,-1.1m12.25,22.6l0,-1.45l6.7,-2.35l5.8,0l-5.85,5.1l18.75,3.1l0,3.9l6.85,-0.6l-3.15,8.8l-19.15,9.35l0.3,-0.6l-0.05,-8.8l-5.2,-10.75l8.7,5.6l6,3.25l-3.4,-6.75l-7.75,-3.55l-4.25,0l-1.75,-3.55l-2.55,-0.7m122.4,-8.5l-2.25,1.15l-11.25,2.65l-6.85,0l-0.8,-4.1l8.7,-6.7l12.45,7m-47.9,49.65l5.55,5.5l3.4,-1.2l7.5,0.75l-0.4,9.1l-2.65,0l-1.1,0.9l-9.5,-5.3l-1.3,-3.45l-1.5,-6.3m-42.75,-40.35l1.2,-1.5l-1.2,1.5m-56.05,9l-18.4,-13.5l18.4,13.5"/>
   <path id="svg_56" fill-rule="evenodd" fill="#dac7af" d="m285.95,-22.55l-3.4,5.9l-3.4,-1.3l1.45,-8.55l-7.35,0l4.2,-6.25l-5.25,1.85l2.9,-6.35l-5,0l0.85,-3.35l4.35,-3.65l6.35,9.15l4.3,12.55m-109.15,-59.85l-8.1,0l-9.8,-4.85l0.8,-1l1.5,-7l4.85,-3.65l5.35,1.3l5.4,1.3l8.3,-1.1l-8.3,15m95.1,129.85l0.55,-0.2l7.75,-3.1l7.4,-2.75l15.5,14l5.35,1.85l-1.2,31.9l-5.65,-0.75l-11.75,4.25l-4.75,-5l-8.25,7l-11,-3.5l0,-5.5l-1.85,-8.5l-1.9,-8.5l-10,10.25l-8,15.75l0,-17.5l7.25,-9.75l3.5,-7.25l7,-8.75l3,-1.15l5.2,-2.1l1.85,-0.7m13.2,31.45l0,8.75l0,-8.75m-256.65,-198.15l0,-5.35l4.5,-2.9l5.5,0l0,-6l5.6,-2.85l8.25,0l1.75,-5.5l2.65,-1.65l5.5,1.25l18.25,14.4l0,0.6l-1,0l-2.9,7.75l-8.1,3.65l-0.6,0.6l0,-3.6l-13.9,-9.5l14.5,23.6l-4.4,1.5l-2.5,1.75l-16.25,-9.35l14.15,12.75l-2.5,1.7l-2.9,2.65l-3.1,2.4l-1,0l-13.25,-11.25l11.15,11.8l-7,1.75l-0.05,0l0.05,0l0,0.05l-0.05,-0.05l-2.25,-0.55l-16,-19l-1.25,-5.65l1,-4l6.15,-1l0,1.4l0,-1.4m38.1,14.25l-2.5,1.75l2.5,-1.75m-17.65,30.4l-1.95,-5.05l14.95,13.6l-2.55,5.8l-7.95,-1.75l-0.7,-7.25l-0.9,-2.7l-0.9,-2.65m118.45,-11.5l6.5,-3.4l-6.15,2.25l-3.1,-1.75l2.75,2.9"/>
   <path id="svg_57" fill-rule="evenodd" fill="#4a4946" d="m154.35,-7.5l-2.8,-7.75l3.65,-6.35l1.95,1.95l1.5,6.3l1.3,3.45l9.45,8.85l1.85,10.95l-3.75,-2.2l-3.7,-2.2l-5.9,-6.9l-0.55,-0.65l-1.8,-2.1l-1.2,-3.35m73.2,-6l-2.1,15.55l-2.75,2.05l-4.7,2.25l-4.7,2.25l-5.9,1.05l-5.9,1l-1.15,-11.35l2.2,-0.2l15.75,-6l9.25,-6.6m-35.45,13.05l0.15,0l1.45,1.05l1,9.7l-1.7,1.55l-14.15,0l-1.05,-0.7l-0.05,-0.1l-1.8,-10.7l0.95,-0.8l15.2,0"/>
   <path id="svg_58" fill-rule="evenodd" fill="#a19166" d="m164.75,-188.65l7.85,-1.5l7.8,0.7l-2.85,-30.8l5.2,6.45l0,24.55l2.85,0.25l12.2,7.7l-6.6,8.85l3.05,0.5l2.4,3.45l-3.1,6.45l-30.25,8.4l-6.6,0l3.25,4.75l6.4,2.25l0,10.55l-7.35,9.8l-7.7,17.2l-1.75,0.25l-7.25,0l-10.35,-1.9l-5.15,-2.85l0,1.25l0.2,0.35l-9.2,-2.4l0.35,-1.6l0.8,-4l1.5,-1.75l2.15,-2.65l18.95,-22.75l8.55,-1.35l2.75,-2.25l-6.75,-8.95l-5.25,-3.7l-4.55,3l0.55,-6.5l3.55,-2.6l2.05,-6l2.5,-2l-2.35,-17.6l-6.75,-10.25l7.35,2.85l5.1,10.2l0,12.1l8.65,-6.95l2,-0.35l5.8,-1.15m-19.8,11.15l3.35,-2.7l-3.35,2.7m-7.6,47.25l-10.55,16.65l10.55,-16.65m38.6,-41l-2.05,1.5l2.05,-1.5m6.8,-18l-2.3,-0.2l-0.05,0l0.05,0l2.3,0.2m5.45,16.25l3,0.55l-3,-0.55m-47.8,3.5l3.55,-2.6l6,5.4l-6,-5.4l-3.55,2.6m33.5,-0.25l-15.9,6.15l-8.05,-3.1l6,5.35l2,2.85l15.95,-11.25"/>
   <path id="svg_59" fill-rule="evenodd" fill="#351d00" d="m127,-112l-0.2,-0.35l0,-1.25l5.15,2.85l10.35,1.9l7.25,0l1.75,-0.25l-1.6,3.75l-5.9,4.6l-6.75,0l-5.5,-2.85l-4.55,-8.4"/>
   <path id="svg_60" fill-rule="evenodd" fill="#645840" d="m185.6,-189l-0.6,-15.3l9.3,10.8l3.5,12.2l-12.2,-7.7m-26.65,1.5l-2,0.35l-8.65,6.95l0,-12.1l-5.1,-10.2l7.25,2.8l8.5,12.2"/>
   <path id="svg_61" fill-rule="evenodd" fill="#5c533a" d="m141.55,-147.15l-5.85,-6.75l0.6,-6.5l4.55,-3l5.25,3.7l6.75,8.95l-11.75,-7l4.25,7.9l4.75,1.35l-8.55,1.35m24.8,0.5l-6.4,-2.25l-3.25,-4.75l6.6,0l30.25,-8.4l3.1,-6.45l-2.4,-3.45l6.1,1.05l1.75,13.35l-2.45,2.05l-0.05,0l-1.95,2.15l-9.05,9.75l-10,2.75l-11.75,-5.65l-0.5,-0.15m3.2,-2.05l-3.2,0.95l3.2,-0.95l8.9,3.45l10.15,-1.75l7.1,-9.75l-26.15,8.05m-30.45,-9.05l2,0l-2,0"/>
   <path id="svg_62" fill-rule="evenodd" fill="#786b52" d="m192.75,-101.65l-0.05,0.05l-7.6,4.2l-8.3,1.1l-5.4,-1.3l9.65,-9.6l8.8,0l2.9,5.55m-10.3,4.25l5.25,-3.75l0,-3.85l-3.75,-1.15l-4.6,2.25l-3.9,4.65q1.95,0.95 3.9,1.85l3.1,0l2.65,0l-2.65,0"/>
   <path id="svg_63" fill-rule="evenodd" fill="#544060" d="m113.8,-66.9l-5.95,2.45l-5.8,0.2l-1.1,-0.35l-3.2,-1l18.5,-7.4l-2.45,6.1"/>
   <path id="svg_64" fill-rule="evenodd" fill="#6d7072" d="m93.8,-86.65l13.45,-29.7l4.8,8.25l-20.75,31.1l-0.8,-2.4l3.3,-7.25"/>
   <path id="svg_65" fill-rule="evenodd" fill="#ec9606" d="m195,-5.5l2.45,0l2.6,1.9l0.3,2.9l1.15,11.35l0.3,2.75l-3,2.75l-6.6,0l-16.1,0l-2.15,0l-1.85,-1.25l23.2,-1.15l2.1,-0.1l0.15,-0.25l0.2,-0.3l0,-14.7l-2.75,-3.9m-17.25,16.55l-2.95,-7.85l-1.35,-3.5l3.75,-2.45l14.75,2.25l0.15,0.05l-15.2,0l-0.95,0.8l1.8,10.7"/>
   <path id="svg_66" fill-rule="evenodd" fill="#fdffc1" d="m195,-5.5l2.75,3.9l0,14.7l-0.2,0.3l-2.15,-0.05l2,-12.55l-2.4,-6.3m0.3,19.25l-23.2,1.15l-0.4,-2.5l23.7,0.95l-0.1,0.4m-20.5,-10.55l-3.8,-4.6l4.25,-4.1l16.7,5l-14.75,-2.25l-3.75,2.45l1.35,3.5"/>
   <path id="svg_67" fill-rule="evenodd" fill="#ffcd2b" d="m187.7,-5.5l7.3,0l2.4,6.3l-2,12.55l2.15,0.05l-0.15,0.25l-2.1,0.1l0.1,-0.4l-23.7,-0.95l-0.45,-2.5l-1.85,-10.95l-0.55,-3.05l0.6,-0.5l1.1,-0.9l2.65,0l2.05,0l-4.25,4.1l3.8,4.6l2.95,7.85l0.05,0.1l1.05,0.7l14.15,0l1.7,-1.55l-1,-9.7l-1.45,-1.05l-0.15,0l-0.15,-0.05l-16.7,-5l12.45,0"/>
   <path id="svg_68" fill-rule="evenodd" fill="#959387" d="m225.9,176.9l-18.3,24l-51.75,39l41.95,-64.4l-17.2,8.9l5.95,-15.8l15.8,-20.2l10.75,-39l0,21.75l18.25,-26.5l-5.45,72.25m-71.25,-27.15l-36.55,15.9l20.45,-31.8l12.3,-19.2q-10.1,5.4 -20.25,10.75l0,-10l-3.25,8.25l-4.95,2.15l-87.55,37.6l79.15,-63.4l-2.15,18.9l2.15,-2.9l38.85,-52.1l13,-20.25l-5.5,31l-15.25,30.5l35.25,-27.5l0,54l-16.25,14l-9.45,4.1m45.7,24.4l-2.55,1.35l2.55,-1.35"/>
   <path id="svg_69" fill-rule="evenodd" fill="#696558" d="m169,174.25q-50.1,23.05 -100.15,46.15l51.1,-31.55l0,-0.05l34.7,-39.05l9.45,-4.1l16.25,-14l-11.35,42.6"/>
   <path id="svg_70" stroke-width="0.05" stroke-opacity="0.211765" stroke-linejoin="round" stroke-linecap="round" stroke="#000000" fill="none" d="m224.95,-126.5l-6.1,3.75l-0.75,0.95l-16.25,20.8l-1.05,3.75l-1.1,3.75l-8,0l-6.5,7.5l-6,3.6l-2.4,0l-8.1,0l-9.8,-4.85l-4.45,5.25l-4.4,-9.4l-11.1,-1.6l-3.9,-1.15l-3.75,6.25l-3.5,-6.85l0,-4.4l-1.15,-1.8l-0.05,7.8l-6.3,18.5l-6.5,7.75l-5.95,2.45l-5.8,0.2l1.55,1l-0.75,0.85m109.1,-39.05l8.75,-9.8l9.85,-8.85l3.5,0l5.25,5l1.9,-5.75l-3.25,-6.65l-6,-2.35l-7,3.35l11.95,-17.8l41.45,-17.05l-15.25,24.5l2.75,0l100.5,-32.25l-46,36l-18.25,7l39.5,0l2.75,0m-105.05,11l1.4,1.35l8.85,5l10.3,1.5l7.8,1.1l1.9,-1.95l4.5,-1.65l8.15,2.1l2.4,2.1l6.35,5.55l1.85,6.6l-1.35,4.95l10.15,-3.15l11.75,-10l65.75,4.25l-13.75,-13.25l-45.25,0l-8,0l-28.25,-8.5l18.25,-7m-119.35,-87.7l12.8,15.8l7.75,19l8.3,9.4l10,23.25l-3.5,24.55m45,-15.05l-11.5,0l-13.65,9.35m83.05,50.8l12.85,9.85l37,41.25l19,8.75l-34.25,-11l-19,-12l-5.3,-0.25l22.55,28.5l-25.25,-8.75l-2.55,0l0,13.75l-15,13.2l1.1,11.05l23.95,-22.8l-6.9,26l-16.4,11.35l1.85,12.65l2.95,3.55l0,6.25l-3.5,4.5l-2.15,-4.4l0,30.9l-2.4,3.75l-2.45,3.75l-3.5,9l-5.85,0l-2.9,4.75l-11.65,3.55l-7.35,5.45l-6.5,-3.25l-17,61.7l-25.25,44.75l-41.15,50.65m-0.2,0.3l-4.15,5.05l13.75,-20.7l30.25,-74l0.3,-3.5l-18.3,24l-51.75,39l41.95,-64.4l-17.2,8.9l5.95,-15.8l-24.45,31.3l6.9,-25.65q-50.1,23.05 -100.15,46.15l51.1,-31.55l0,-0.05l34.7,-39.05l-36.55,15.9l20.45,-31.8l-6.2,3.55l-35.5,22.5l25.55,-34.1l-87.55,37.6l79.15,-63.4l0.85,-7.85l17.5,-26.7l7.2,-52.95l14.8,-20l-2.8,-7.75l3.65,-6.35l-1.9,-1.9l2.4,-3.5l1.85,-0.65l0,-7.75l-7.55,-9.4q-4.3,-1.7 -8.55,-3.45l1.35,-6l-4.35,-7.7l-2.5,6.45l-3.5,-5.75l-6.1,35.75l-0.25,-2.1l-3.65,-26.75l-3.9,7.7l-15.6,17.5l0,5l-5.25,3.65l-1.15,6.75l-2.6,-5.5l-1.4,-0.65l0,5.5l-12.1,9l-1.65,-13.25l-15.35,8.5l3.75,-10.25l-8.65,-1.65l-2,0.3m245.05,-69.85l19.4,14.9l27.35,-5.65l-35,-19.25m12.7,61.25l0,-22l-1.5,-2.65l-8.7,23.1l-22,-6.7l-16.9,-7.55l3.35,7.65l0,4.5l9.25,16.6l-1.6,1.4l-2,3.45l-3.4,5.9l-3.6,6.15l1.85,10.6l1.3,7.4l0.3,0.95l4.5,14.3l6.45,20.5m8.4,-33.55l1.2,4.05l8.1,-7.15m20.25,-46.7l-5.25,-0.25l0,20m-36.5,-7.05l7.05,-6.25l9.25,1.4l1.95,3.25l1.95,3.3l6.1,-16.2m-11.9,26.5l3.75,-4.95l-0.35,-3.9l-5.5,-2.1l-6.75,2.5l-9.65,15.35l2.15,12l10.35,33.75l10.4,0l6.3,7.6m-5.4,-10.2l-2.7,-11.45l0.65,-0.85l2.45,-2.3l2.5,-2.4m-2.4,-43.35l-2.05,5.35m-47.3,-58.75l13.4,-18l6.5,-1.25l3.9,4.75l-0.95,5.15l-6.95,12.85l-3.6,2l-2.4,0.9l4,4.6l3.65,-1.55l5.6,-3.35l6.5,-10.5l1.4,-4.95m-23.8,-17.7l-7.85,8.15l-15,16.9l-5.85,1l-24.9,-2.4l-4.85,-4.75l0,-3.4l0,-3.35l2.75,-7.45m48.45,22.35l3.4,-0.4l5.9,0l2.35,1l-3.75,0.75l-1.75,0.75l3.75,4.3l-1.1,0.35m-9.6,1.7l5.05,-2.7l3.05,2.75m5.85,6.85l-7.1,-5.85l-6.85,-1.05l0,13.65l0,6.5l3.4,3.25l9.7,0l-1.75,6.65l-0.85,3.35l-0.9,3.35l3,3l5.25,-1.85l-4.2,6.25l-2.3,3.35l4.85,1.65l0,2.25l3.35,1.3l3.4,1.3m-44.95,-52.95l11.45,1.25l5.4,-2.75l5.95,-8m13.9,11l4.75,5.45l-5.5,-1.1l3.4,7.6m-2.65,-11.95l-1.75,0.7m-40.95,2.9l-10.15,2.75m-14.35,-3.85l2.7,12.1l-4.75,4l-9,4.1l-9.75,0l0.45,3l0.05,0.25m-0.15,6.3l-1.45,1.7l2.25,3.55l2.1,0.9l8.4,3.7l0,1.75l-9.5,0.85l-3,0.3l0,2.65m2.35,7.2l-0.1,7.75l7.3,0l2.45,0l2.6,1.9l0.3,2.9l1.15,11.35l5.9,-1m16.15,-42.75l3.4,-1.55m8.25,-29.2l0.75,-1.85l-4.35,1.2m-18.4,15.5l-4.5,7.65l21.65,-18.9l4.85,-3.6l-0.65,1.6l0,5.15l0,15.9l1.15,-6.45l9.2,10.85l3.4,3.95l5.8,6.85l0,-4.75l0,-4.75l-4,-14.25l8.15,2.9l8.2,2.9l-3.45,-3.3m-27.05,-18.45l1.6,-3.85l0.05,-0.05l-0.05,0l-28.35,-3.15l-3.15,-1.5l-1.85,-3.4l-5.25,-9.6l0,-3.6l0.75,-2.65m34.85,52.3l-0.2,1.2m-10.8,6.9l-0.05,0l-0.3,0.6m0.3,-0.65l0,0.05m22.35,11.5l-1.7,3.25m27.75,65.8l0.55,-0.2l-1.15,-7.9l-12.25,-40.6l-13.2,-20.35l0.7,-1.4l1.75,-9.85m-3.4,-3.95l-7.7,16.4l-9.65,6.9l-9.25,6.6l-15.75,6l-2.2,0.2m25.1,2.75l6.1,-4.7l7.5,-5.75l0.9,-1.75l4.2,-8.2m-11.3,-36.15l-9.35,21.35m56.8,-10.85l0,1.25m-13.85,-1.2l0.75,0.7m0.1,17l-3.4,10.6l-3.45,10.65l3.25,4.75m7.85,-17l-4.15,17l-0.7,2.75m7.05,-3.6l-1.55,7.6l-1.4,6.65m-6.9,-28.8l-2.2,-3.35l-7.6,-11.75m21.15,45.2l2.95,-4.45l4.2,-1.55m-15,-8.7l-3.7,0m8.5,6.75l-5.5,-4m10.75,23.85l4,-3.6l5.45,0m-6.7,21.4l0,-6.05l-1.25,-10.6l-1.5,-1.15l-3.1,-10.6l0.9,-1.3l-4.45,-1.3m-48.1,-9.05l-4.7,2.25l-16.65,102.65l-1,6.15m17.65,-108.8l-4.7,2.25l-5.9,1.05m18.05,-7.6l-2.75,2.05l5.4,37.05m23.25,26.25l3.5,-7.25l7,-8.75l3,-1.15m-13.5,17.15l-7.25,9.75l0,17.5l2.5,2.25l4.75,-4.5l4.75,-4.5l5.8,-9.55l2.1,-1.2l1.85,8.5l0,5.5m-3.75,-22.5l1.9,8.5m21.1,10.5l0,-8.75m-4.9,-34.75l7.4,-2.75m19.65,47.75l2.3,0.25m-39.5,-41.25l-5.2,2.1m5.2,-2.1l1.85,-0.7m0.55,-0.2l7.75,-3.1m-40.25,-54.3l30.1,57.5m-38.5,-50l20.25,63.75m52.15,-76.5l-6.9,9.05l4.7,16.05m11.05,22.5l-1.8,1.2l-1.75,1.25m2.7,20.1l-2.1,-4.35l-5,-2.75l-7.5,0l-4,-4.4m48.25,-169.35l-21.5,15.5m-155.35,-78.05l7.85,-1.5l7.8,0.7l-2.85,-30.8l5.2,6.45m0,24.55l2.85,0.25m12.2,7.7l4.05,2.55m-121.4,51.5l0,-0.6l-18.25,-14.4l-5.5,-1.25l-2.65,1.65l-1.75,5.5l-8.25,0l-5.6,2.85l0,6l-5.5,0l-4.5,2.9l0,5.35l0,1.4m40,2l8.1,-3.65l2.9,-7.75m1,0l0,11.5l7.25,7l-1.5,7l-0.75,0.9l-12,7.1l-4.65,6.25l1.6,4.1l1.7,-0.85l7.5,0l-0.75,4.7l-1.4,8.3l2.65,2l0,7.75l2.55,0.7l0,-1.45l6.7,-2.35l-4.4,0l4.05,-4.7l-5.05,-3.35l-1.15,-7.85l3.75,-5l7.25,-1.15l13.45,-29.7l-1.4,-2.4l0,-3.35l4.75,-6.75l5.85,0l6.15,4.45l18.95,-22.75l-5.85,-6.75l0.6,-6.5l0.55,-6.5l3.55,-2.6l2.05,-6l2.5,-2l-2.35,-17.6l-6.75,-10.25l13.75,0l15.15,16.7l-5.8,1.15l-2,0.35l-8.65,6.95l-3.35,2.7m-79,64.1l8.6,-4m45.9,-4.35l-3.5,-0.05l-1,2.45l2.2,3.35l0.8,-4l1.5,-1.75l2.15,-2.65m-4.45,8.4l-0.35,1.6l8.85,13.45m0.35,-11.05l-0.2,-0.35l0,-1.25l10.55,-16.65m-10.55,16.65l5.15,2.85l10.35,1.9l7.25,0l1.75,-0.25m15.05,-37.55l-6.4,-2.25l-3.25,-4.75m37.55,-18.3l-3.05,-0.5l-3,-0.55m-7.8,-16.45l0.05,0l2.3,0.2m-8.85,19.5l2.05,-1.5m23.7,15.75l2.45,-2.05l-1.75,-13.35l-6.1,-1.05m3.55,-9.35l-12.2,-7.7m-32.75,38.25l-2.75,2.25m-0.15,-18.2l-6,-5.4l-3.55,2.6m33.5,-0.25l-15.95,11.25m-2,-2.85l-6,-5.35m16.4,20.05l0.5,0.15m30.8,-6.85l1.95,-2.15m-33.25,7.75l3.2,-0.95l26.15,-8.05l-7.1,9.75l-10.15,1.75l-8.9,-3.45m-16.7,-2.05l-11.75,-7l4.25,7.9l4.75,1.35m-9,-9.25l-2,0m26.95,58.85l4.75,-3.6l16.4,-18.15l8.5,-2.6l4.35,4.35l0,5.15l-7.3,12.1l-0.05,0.05l-3.25,5.35l2.25,2.75m-163.25,-25.75l-6.15,1l-1,4l1.25,5.65l16,19l2.25,0.55l0.05,0l6.35,1.45l3.75,-3.75l3.1,0l4.4,-4l1,-0.9l0,-1.85l1.25,-0.55l6.35,-1.95l1.4,-4.15l-14.5,-23.6m-17.25,25.75l13.25,11.25l1,0m3.1,-2.4l2.9,-2.65m2.5,-1.7l-14.15,-12.75m16.25,9.35l2.5,-1.75l2.5,-1.75m-25.75,15.95l0.05,0.05m6.1,9.35l1.95,5.05l0.9,2.65l0.9,2.7l0.7,7.25l7.95,1.75l2.55,-5.8m-14.95,-13.6l-2,-5.1l-4.1,-4.25m0.85,21.1l2.75,-2.25m2,7.1l-4.75,-4.85m-1.75,3.4l6.5,1.45l4.95,1.05m-5.15,11.1l-1.15,-1.25l6.6,-1.35l-19.5,-9.15l14.5,-10.75l2.2,-1.2m-2.65,23.7l4,4.55l0.9,0.9m131.3,-51.95l-3.1,0q-1.95,-0.9 -3.9,-1.85l3.9,-4.65l4.6,-2.25l3.75,1.15l0,3.85l-5.25,3.75l2.65,0m-1.2,27.8l0.8,4.1l6.85,0l11.25,-2.65l2.25,-1.15l1.4,-0.7l0,1.5l0.65,2.9m-45.95,-5.1l1.05,4.95l-6.25,-1.65l-8.5,-4.35l-1.4,1.35l5.75,17.65l1.9,2l11.75,2.85l3.4,4.6l1.6,-1.2m13.45,-25.1l-0.85,-4.05l-2.1,-2l-20.9,0l1.1,4.95m-27,1.1l4.3,7.65m22.75,-33.3l4.85,-3.65m1.3,12.8l6.5,-3.4l-6.15,2.25l-3.1,-1.75l2.75,2.9m-6.15,-9.15q-2.85,-1.15 -5.75,-2.35l-5.4,6.2m8.85,4.15l0.8,-1l1.5,-7m-34.2,-16.75l4.55,8.4l5.5,2.85l6.75,0l5.9,-4.6l1.6,-3.75m-17.15,39.5l-1.55,-2.7l-8.25,-4.05m44.8,37.75l-1.95,-3.55l0.25,-0.15l1.35,-1l0.05,0m0.3,4.7l2.4,1.05l15.9,6.95m-20.65,-9.05q1.15,0.5 2.35,1.05m-13.45,-3.9l-5.7,-2.3m5.2,23.2l1.95,1.95l5.55,5.5m10.9,-0.45l0,-0.65l-2.2,-2m-14.25,-2.4l1.5,6.3l1.3,3.45m9.5,5.3l1.1,-0.9l2.65,0l0.4,-9.1m-4.4,-4.65l2.2,2m-1.05,-4.55l-1.15,2.55m16.25,-1.1l0,-0.1m-22.25,-0.7l7.15,-0.65l3.4,-0.3l2.05,-7.65l-4.25,-7.8m15.1,1.7l0,-0.05l0.9,-1.1l-0.75,-5.15m2.75,12.45l1.4,2.8l-2.5,3.5m-3,3.05l0,0.6l2.4,2.8l-0.05,3.7m-14.05,-8.85l11.7,-1m-57.65,-76.05l3.25,0l4,5m-23,-13.95l6.15,10.6l0,8.9l-6.1,13.25l-5.15,2.45l-11.5,-1.25l-4.15,-2.85l-0.8,-2.4l-0.8,-2.35m8.05,16.15l3.2,1l1.1,0.35m-1.1,-0.35l-5.8,0l-5.8,0m3.55,29.05l-0.05,-8.8l-5.2,-10.75l-0.7,-1.45l-1.75,-3.55l-2.55,-0.7m-2.2,-54.95l0,5.25l-0.4,1l-6.35,4.75l-5.25,0m-23.5,20l10.1,0l7.95,-3.45l-2.55,-0.3l-1.9,-4.5l-0.1,-2.35m10.35,7.85l-5.8,-0.7m10.25,12.35l-6.15,9.35l-3.5,-3.5l-1.7,3.95m8.5,-17.35l0.4,1.1m7.3,-0.95l-3.4,5.25l-1.45,2.15l-1.3,-3.4l-1.15,-3.05m1.15,3.05l2.75,1.25m2.75,6.75l-0.5,3l-4.35,11.9m16.4,-12.95l2.45,1.65l6.3,2.05m-17.65,18.1l0,-7l0,-7m6.85,4.95l4.25,0l7.75,3.55l3.4,6.75l-6,-3.25m-41.95,18.6l9.55,8l-5.4,0.85m-8.3,-24.3l2.95,14.45l1.2,1m56.9,-25.15l-0.95,1.2m0.95,-1.2l3.1,-3.95l-14.7,1l3.15,-3.4m19.6,8.05l-11.15,-1.7m0.75,-52.05l-4.8,-8.25m8.35,54.85l-1.2,1.5m-23.9,-19.4l3.3,-7.25m78.3,101.55l1.85,1.25l2.15,0l16.1,0l6.6,0l3,-2.75l-0.3,-2.75m-9.4,-11.1l0.15,0l1.45,1.05l1,9.7l-1.7,1.55l-14.15,0l-1.05,-0.7l-0.05,-0.1m-2.5,-16.55l-2.05,0m18.9,5.05l-15.2,0l-0.95,0.8l1.8,10.7m-2.5,-16.55l12.45,0m-13.35,26.25l-0.55,6.45l-2.7,32.45l8,0l6.1,2.5l3.9,-1.75l1.85,-39.5l1.65,-3.75l-0.4,-1m-17.85,4.6l1.75,-4.6m-6.65,-20.75l-0.6,0.5l0.55,3.05l1.85,10.95l0.45,2.5l0.4,2.5m-14.75,-16.95l0.55,0.65l5.9,6.9l3.7,2.2l3.75,2.2m-16.9,-17.4l1.2,3.35l1.8,2.1m-24.95,67.45l4.2,-6.5l15,-48.25m17.8,-11.7l-9.45,-8.85m-27.55,75.3l-0.05,0.05l-0.5,3.45m-17.85,47.1l38.85,-52.1l13,-20.25l-5.5,31l-15.25,30.5l35.25,-27.5l0,54l-11.35,42.6m-36.4,-246.55l-5.8,-10.3m-86.85,18.1l18.4,13.5m64.05,176.8l4.95,-2.15l3.25,-8.25l0,10q10.15,-5.35 20.25,-10.75l-12.3,19.2m16.1,15.9l9.45,-4.1l16.25,-14m17.45,43.85l2.55,-1.35m-13.8,-5.55l15.8,-20.2l10.75,-39l0,21.75l18.25,-26.5l0.75,-10m-118.1,5.35l-2.15,18.9l2.15,-2.9m175.85,-23.35l11.75,-4.25l5.65,0.75m-9.5,13l2.85,-4.75m-11.5,4.5l-5.9,8.55m-19.45,-10.95l-1.05,4.2l-1.1,4.2m1.1,-4.2l-4.6,0m11.25,8.95l1.25,-1.4l-10,5.85l-8.75,-7.7l5.75,-9l6.15,-0.9l2.1,-8.35m14.5,9.25l-9.75,10.85m-39.25,-6.6l-5.45,72.25"/>
   <path id="svg_71" stroke-width="0.05" stroke-linejoin="round" stroke-linecap="round" stroke="#00ff00" fill="none" d="m270.05,47.35l0,0.8m-70.45,-203.65l0.05,0"/>
   <path id="svg_72" stroke-width="2" stroke-linejoin="round" stroke-linecap="round" stroke="#000000" fill="none" d="m218.85,-122.75l-0.75,0.95l3.5,-24.55l-10,-23.25l-8.3,-9.4l-7.75,-19l-18,-22.25l2.85,30.8l-7.8,-0.7l-7.85,1.5l-15.15,-16.7l-13.75,0l6.75,10.25l2.35,17.6l-2.5,2l-2.05,6l-3.55,2.6l-1.15,13l5.85,6.75l-18.95,22.75l-6.15,-4.45l-5.85,0l-4.75,6.75l0,3.35l1.4,2.4l-13.45,29.7l-7.25,1.15l-3.75,5l1.15,7.85l5.05,3.35l-4.05,4.7l4.4,0l-6.7,2.35l0,1.45l-2.55,-0.7l0,-7.75l-2.65,-2l2.15,-13l-7.5,0l-1.7,0.85l-1.6,-4.1l4.65,-6.25l12,-7.1l0.75,-0.9l1.5,-7l-7.25,-7l0,-12.1l-18.25,-14.4l-5.5,-1.25l-2.65,1.65l-1.75,5.5l-8.25,0l-5.6,2.85l0,6l-5.5,0l-4.5,2.9l0,5.35l-6.15,1l-1,4l1.25,5.65l16,19l2.25,0.55l4.15,4.3l3.95,10.15l-2.2,1.2l-14.5,10.75l19.5,9.15l-6.6,1.35l5.15,5.8l2.95,14.45l10.75,9l-5.4,0.85l8.65,1.65l-3.75,10.25l15.35,-8.5l1.65,13.25l12.1,-9l0,-5.5l1.4,0.65l2.6,5.5l1.15,-6.75l5.25,-3.65l0,-5l15.6,-17.5l3.9,-7.7l3.9,28.85l6.1,-35.75l3.5,5.75l2.5,-6.45l4.35,7.7l-1.35,6q4.25,1.75 8.55,3.45l7.55,9.4l0,7.75l-1.85,0.65l-2.4,3.5l1.9,1.9l-3.65,6.35l2.8,7.75l-14.8,20l-7.2,52.95l-17.5,26.7l-0.85,7.85l-79.15,63.4l87.55,-37.6l-25.55,34.1l35.5,-22.5l6.2,-3.55l-20.45,31.8l36.55,-15.9l-34.7,39.05l0,0.05l-51.1,31.55q50.05,-23.1 100.15,-46.15l-6.9,25.65l24.45,-31.3l-5.95,15.8l17.2,-8.9l-41.95,64.4l51.75,-39l18.3,-24l-0.3,3.5l-30.25,74l-13.75,20.7l45.5,-56l25.25,-44.75l17,-61.7l6.5,3.25l7.35,-5.45l11.65,-3.55l2.9,-4.75l5.85,0l3.5,-9l4.85,-7.5l0,-30.9l2.15,4.4l3.5,-4.5l0,-6.25l-2.95,-3.55l-1.85,-12.65l16.4,-11.35l6.9,-26l-23.95,22.8l-1.1,-11.05l15,-13.2l0,-13.75l2.55,0l25.25,8.75l-22.55,-28.5l5.3,0.25l19,12l34.25,11l-19,-8.75l-37,-41.25l-12.85,-9.85l27.35,-5.65l-35,-19.25l65.75,4.25l-13.75,-13.25l-45.25,0l21.5,-15.5l-39.5,0l18.25,-7l46,-36l-100.5,32.25l-2.75,0l15.25,-24.5l-41.45,17.05l-11.95,17.8l-6.1,3.75m27.7,99.75l-0.7,1.4l13.2,20.35l12.25,40.6l1.15,7.9l7.75,-3.1l0,-6.05l-1.25,-10.6l-1.5,-1.15l-3.1,-10.6l0.9,-1.3l-4.45,-1.3l1.4,-6.65l-5.5,-4l0.7,-2.75l-3.7,0l-3.25,-4.75l3.45,-10.65l-9.8,-15.1l0,4.75l-5.8,-6.85l-1.75,9.85"/>
  </g>
 </defs>
 <g>
  <title>background</title>
  <rect fill="none" id="canvas_background" height="289" width="208" y="-1" x="-1"/>
 </g>
 <g>
  <title>Layer 1</title>
  <g id="svg_73">
   <use x="110.050003" y="224.5" id="svg_74" xlink:href="#shape0" width="381" transform="matrix(1,0,0,1,-192.55,-294) " height="381"/>
   <use x="78.747766" y="160.644007" xlink:href="#sprite0" width="100" transform="matrix(1.3975,0,0,1.3975,-68.6,-165.9) " id="_mcMask" height="40"/>
   <use x="-214.689823" y="437.963324" id="svg_75" xlink:href="#sprite1" width="391.85" transform="matrix(-0.5126,0,0,0.5126,92.7626,-222.7383) " height="552.2"/>
  </g>
 </g>
</svg>