<svg width="245" height="233" xmlns="http://www.w3.org/2000/svg" xmlns:xlink="http://www.w3.org/1999/xlink">
 <defs>
  <g transform="matrix(1,0,0,1,192.55,294) " id="shape0">
   <path id="svg_1" stroke-opacity="0" stroke-linejoin="round" stroke-linecap="round" stroke="#ff00ff" fill="none" d="m187.95,-293.5l0,380l-379.95,0l-0.05,0l0,-380l380,0"/>
   <path id="svg_2" stroke-opacity="0" stroke-linejoin="round" stroke-linecap="round" stroke="#ff00ff" fill="none" d="m187.95,-293.5l-190,190l190,190m-380,-380l190,190l-189.95,190"/>
   <path id="svg_3" stroke-opacity="0" stroke-linejoin="round" stroke-linecap="round" stroke="#ff00ff" fill="none" d="m92.95,-38.4l-189.95,0"/>
  </g>
  <g id="sprite0">
   <use id="svg_4" xlink:href="#shape1" width="100" height="40"/>
  </g>
  <g id="shape1">
   <path id="svg_5" fill-rule="evenodd" fill-opacity="0" fill="#ff00ff" d="m100,40l-100,0l0,-40l100,0l0,40"/>
  </g>
  <g transform="matrix(1,0,0,1,0,225.3) " id="sprite1">
   <use id="svg_6" xlink:href="#shape2" width="472.7" transform="matrix(1,0,0,1,0,-225.3) " height="450.65"/>
  </g>
  <g transform="matrix(1,0,0,1,0,225.3) " id="shape2">
   <path id="svg_7" fill-rule="evenodd" fill="#a46694" d="m413,-114.5l-1.35,0.6l-4,1.75q-2.75,1.2 -5.95,2.45l-1.45,0.35l-0.05,-0.3q-10.05,0.65 -20.65,0.5l-0.7,-1.7l0,-0.3l-4.15,-10.1l4.15,10.1l0,0.3l0.7,1.7l-3.1,-0.05l-1.7,-0.05l0,-0.3l-0.7,-0.05q-35.7,-1 -62.95,-11.3l59.5,1.25l-0.35,-0.9l28.55,-16.15l1.5,-0.85l12.7,23.05m-1.35,0.6l-12.85,-22.8l12.85,22.8m-0.9,-69.65q25.25,25.6 24.6,43.05q-0.25,6 -4,11.4q-6.1,-15 -16.4,-25.25l4,-4.45l-8.2,-24.75"/>
   <path id="svg_8" fill-rule="evenodd" fill="#7a556d" d="m400.25,-109.35q-10.8,3.8 -22.9,6.3l-0.15,0.05l-11.05,1.9l-14,1.55l-19.4,0.85l-11.2,-0.1l-2.65,-0.1l-18.4,-1.15l-3.2,-0.35l-5.2,-0.6l-7.9,-1.1l-10.9,-2l-1.4,-0.3l0.5,-1.25l0.05,-0.05l6.45,-16.65l3.4,0.15l28.8,1.3q27.25,10.3 62.95,11.3l0.7,0.05l0,0.3l1.7,0.05l3.1,0.05q10.6,0.15 20.65,-0.5l0.05,0.3m16.1,-6.95l-3.35,1.8l-12.7,-23.05l14.65,-16.8q10.3,10.25 16.4,25.25q-4.6,6.95 -15,12.8m-35.05,11.7l-1.75,-4.55l1.75,4.55m-99,-17.6l-6.3,16.2l6.3,-16.2"/>
   <path id="svg_9" fill-rule="evenodd" fill="#a596a0" d="m400.3,-137.55l-1.5,0.85l-28.55,16.15l0.35,0.9l-59.5,-1.25q-12.6,-4.85 -23.6,-11.55l-1.25,-0.75l-2.85,-1.8q-24.8,-16 -29.3,-35.9l-0.1,-0.5l36.7,12.7l0.9,-0.05l55.3,-5.75l28.8,-2.95l0.35,4.25l-0.35,-4.25l7,-0.75q11.1,14.65 17.6,30.65m10.45,-46l8.2,24.75l-4,4.45q-8.95,-7.85 -19,-14.4l-8.35,-5.15l6.65,-24.3q6.35,4.65 12,10.05l4.5,4.6m-138.3,-30.35l2.4,-1.3q11.4,-4.55 23.6,-6.35l6.65,-0.95q11.85,-1.05 24.25,0.3q25.95,2.9 46.75,13.1l-4.85,23.9l-74.55,7.4l-1.5,0.05l-19.15,-7.5l-15.2,-12.6q0,-3.35 1.05,-6.25l0.1,-0.25q1.2,-3.15 3.7,-5.85l0.6,-0.05l-0.05,-0.3l6.2,-3.35m25.9,-5.15l6.6,-0.95l-6.6,0.95m-8.4,76.25l-3.7,9.6l3.7,-9.6m99.2,-11.05l9.65,17.15l-9.65,-17.15m12.15,-25.2l-8.6,-8.05l8.6,8.05m-126.6,-33.65l-8.55,4.65l8.55,-4.65m67.65,55.1l4.55,-6.9l-4.55,6.9"/>
   <path id="svg_10" fill-rule="evenodd" fill="#302f2d" d="m400.25,-109.35l1.45,-0.35q3.2,-1.25 5.95,-2.45l4,-1.75l1.35,-0.6l3.35,-1.8l8.6,7.25l0,12.65l-11.35,16.35l-8.25,-2.35l-3.15,-0.9l-23.25,-15.85l-1.6,-3.9q12.1,-2.5 22.9,-6.3m35.95,19.55l3.5,0l0,4.75l-9.9,13.8l-0.05,-0.05l-5.75,-1.35l12.2,-17.15m-190.8,-22.2q10.3,3.8 21.85,6.55l-10.4,18.25l-4.15,2.75l-2,-0.5l-8.55,-19.1l3.25,-7.95"/>
   <path id="svg_11" fill-rule="evenodd" fill="#875f79" d="m405.35,-82.4l8.25,2.35l6.15,-2.45l14.7,-13.7l1,-0.95l8.75,0l0,5.6l-7.2,-0.5l-0.8,2.25l-16.35,15.15l-9.5,0l-5,-7.75m43.7,63.05l4.15,1.15l6.6,5.9l1,7.1l-2.1,4l-3.75,3.25l-1.15,-6.25l-3.1,-4.85l-14.65,-2l-9.25,3.25l-7.35,29.25l9.1,0l5.3,3.25l5.35,3.25l4.75,5.6l0.9,0.85l0.95,0.9l1.15,5l-2.25,2.65l-2.65,0l-3.6,-4.15l-16.15,-10.6l-5,0l-4.75,-3.15l0,-5.1l1.65,-6.85l3.5,-14.8l2,-8.35l3.6,-3.5l7.05,-3.35l4.35,-2.05l1.85,-0.3l8.25,-1.3l2.2,0.6l2.05,0.6m-4.5,54.65l0.3,-0.9l-0.3,0.9m-214.6,-127.35l0,6.9l14,7.9l-10.45,-1.05l-2.55,-0.25l-4.75,-3.15l0,-6.35l3.75,-4m-8.65,33.65l-0.25,-0.8l1.4,-2.6l1.75,0l-1.75,0l-1.4,2.6l0.25,0.8l3,11.35l3.05,4.05l3.1,4.05l0,3.15l-7.65,8.25l-6.8,7.45l-8.2,9.05l-4,0l-4.35,-1l-6.3,-4.8l-2.1,-1.6l-1.65,-4.15l-1.7,-4.1l1.25,-5.6l3.1,-2.25l3.9,0l1.35,0.9l-3,3.7l0.75,1.75l0.75,1.75l5.25,6.9l2.25,0l17.65,-19.5l0,-1.9l-4.8,-4.45l-0.9,-2.5l-1.3,-3.5l-1,-2.8l0,-5.6l5.25,-5.4l4.75,-1l5.55,4.7l-0.05,0.05l-7.15,3.05m-2.45,6.5l-3.6,4l3.6,-4"/>
   <path id="svg_12" fill-rule="evenodd" fill="#593e4e" d="m377.35,-103.05l1.6,3.9l23.25,15.85l3.15,0.9l5,7.75l9.5,0l16.35,-15.15l0.8,-2.25l7.2,0.5l0,5.65l-4.35,8.6l-7.05,9.65l-7.6,-0.65l4.55,-3l0.05,0.05l9.9,-13.8l0,-4.75l-3.5,0l-12.2,17.15l-1.55,2.1l-4.15,3.1l-10.25,-1.75l-24.75,-15l-4.8,-4.2l-7.25,-6.4l-3.7,-3.25l-1.4,-3.05l11.05,-1.9l0.15,-0.05m62.35,19.15l0,-1.15l0,1.15m-11.1,14.25l1.2,-1.6l-1.2,1.6m-203.75,-91.6l-0.9,7.4l54.9,30.9l0.05,0.6l-6.45,16.65l-0.05,0.05l-0.5,1.25l1.4,0.3l1.55,2.75l-14.9,23.3l-1.45,1.05l-1.55,1.05l-2.55,-0.25l-10.45,-1.05l-14,-7.9l0,-6.9l8,-1.9l-1.35,4.4l1.1,1.35l13,3.25l2,0.5l4.15,-2.75l10.4,-18.25q-11.55,-2.75 -21.85,-6.55l-4.8,-1.9l-2.9,-1.2q-16.85,-7.5 -24.95,-16.15q-2.3,-2.45 -3.85,-4.95q-1.35,-2.15 -2.2,-4.35q-1.3,-4.15 -1,-8.4q0.1,-5.45 3.35,-11.75q2.4,-4.8 6.65,-10.05l0.4,-0.5l1.9,-2.3l5.05,-5.4l4.55,-4.5l-2.75,22.2q-8.8,8.95 -14.05,19.1q5.25,-10.15 14.05,-19.1"/>
   <path id="svg_13" fill-rule="evenodd" fill="#696765" d="m413.6,-80.05l11.35,-16.35l0,-12.65l9.5,12.85l-14.7,13.7l-6.15,2.45m41.35,82.1l-10.1,32.35l-0.9,-0.85l-4.75,-5.6l3.15,-1.85l8.75,-23.5l-4.5,-9.75l-7,7.5l-5.75,24.35l-5.3,-3.25l-9.1,0l7.35,-29.25l9.25,-3.25l14.65,2l3.1,4.85l1.15,6.25m-37.25,-3.75l-3.5,14.8l-5.15,-2.15l3.65,-10.25l1.8,-0.85l3.2,-1.55m-167,-83.25l-13,-3.25l-1.1,-1.35l1.35,-4.4l3.05,-7.35l0.25,-0.55l0.9,-2.2l8.55,19.1m-54.9,58.5l19.45,-21.45l0.9,2.5l4.8,4.45l0,1.9l-17.65,19.5l-2.25,0l-5.25,-6.9m20.2,6.35l6.8,-7.45l3.8,2.5l3.65,-1.75l0.1,3l-4.8,5.1l-1.6,0.9l-3,0l-3,0l-1.95,-2.3m12.95,-4.95l-2.35,0l2.35,0"/>
   <path id="svg_14" fill-rule="evenodd" fill="#7a651d" d="m442.25,-68.35l29.2,-6.2l-33.5,12.9l6.1,3.1l-8.45,-1l8.2,9.5l10.25,1.9l-9.35,3.6l7,13l-5.85,4.8l-3.6,-2.95l0,-8.15l-10.85,-8.1l2.9,6.3l-1.65,-1.15l-11.35,-17.75l9.4,3.35l-4,-4.25l5.25,-7.05l0.05,0l4.55,-0.85l0.65,0.05l5.05,-1.05m-63.75,-20.05l4.8,4.2l24.75,15l10.25,1.75l4.15,-3.1l1.55,-2.1l5.75,1.35l-4.55,3l7.6,0.65l-0.35,0.5l-0.45,0.65l-0.05,0l-0.3,0.05l-11.35,2.05l-11.85,0l-3.2,-2.2l2.9,12.7l3.9,20.85l-0.3,-0.45l-7.35,-24.55l0,-9.15l-16.45,-11.5l0.55,3.85l0.35,2.8l0,4.65l-6.05,8.3l-2.95,4.05l-2.5,-6.35l4.25,-5.75l3.75,-13.35l-3.65,-2.55l-7.35,-1.4l-13.9,12.75l-28.25,4.9l-2,-3.25l-3.95,-1.3l4.1,-1.55l-4.1,1.55l-13.35,4.95l-0.6,-0.15l-7.45,-1.9l-27.65,-23.55l-1.8,2.1l-3.55,12.75l0,-8.45l-11.9,14.2l1.5,5.6l-0.95,3.35l0.95,-3.35l3.9,-5.35l-2.75,14.55l-2.1,2.55l0,-8.4l-5.3,18.25l-0.9,-10.9l-0.95,-10.85l-22,-1.15l-6.9,-0.35l1.05,-0.5l21.35,-1.45l9.25,0l-1.7,-6.8l2.55,0.25l1.55,-1.05l1.45,-1.05l14.9,-23.3l2.5,4.45l27,20.75l19.25,3.25l6.75,0l6.75,0l22.5,-3.25l12.75,-12.25l6.15,0m48.7,33.35l4.2,9.1l-4.2,-9.1m16.5,10.9l1,-0.4l-1,0.4m-10,-15.65l1.9,0.25l-1.9,-0.25m-136.15,18.05l-15.85,3.6l27.25,-9.4l17.25,-10.1l-2.35,3.45l-0.4,-1.2l0.4,1.2l-8.15,8.3l-18.15,4.15m-3.3,-6.9l-12.6,1.4l9.05,-6.4l0,-4.8l13.15,7.35l-3.15,1.05l-4.1,-0.6l0,0.05l-2.35,1.95m151.05,18.25l3.25,-2.75l-6.3,-4.7l6.3,4.7l-3.25,2.75m-40.55,-4.9l5.3,15.45l-5,8.15l1.25,-6.6l-5.75,2l-1.85,-3.1l-0.4,-23.5l5.1,4.5l0.05,-6.45l2.85,3.95l-1.55,5.6l-1.6,5.55l-0.6,2.1l0.6,-2.1l1.6,-5.55m-164.15,-78.6l4.8,1.9l-3.25,7.95l-0.9,2.2l-6.8,-2.35l-14,2l-5.75,5.3l-24.95,3.4l1.2,-0.7l39.75,-17.9l-20.75,-2.7l-9.8,4.3l-1.45,0.6l-26.75,2.6l-38.6,2.8l67.45,-19.65l39.8,10.25m-2.65,19.95l-8,1.9l-3.75,4l-27.85,6l0.8,-0.7l31.65,-17.8l10.2,-0.75l-3.05,7.35m20.55,16.95l1.45,5.6l-1.45,-5.6m-28.7,6.95l0.55,-2.35l0,-2.65l3.15,-3.25l13.95,3.5l-12.35,2.1l-5.3,2.65m-19.75,-35.95l-3.6,2.65l-8.3,4.9l-16.1,-5.85l35,-6.85l-7,5.15m155.05,67.3l-17.35,15.7l-2.15,0.8l9.6,-17.75l5.5,-4.25l4.4,5.5m3.1,-5.25l-13.35,-14.25l12.45,-8.75l6.8,-7l0,23.9l-5.9,6.1m-27.75,-2.85l1.75,-6.6l2.5,1.5l-2,-3.9l4.4,2.2l3.45,10.1l-5.45,-2.2l-1.35,5.95l-3.3,-7.05m-4.3,15.9l-0.8,-7l4.45,-16.75l0.2,9.45l-1.95,7.2l-1.9,7.1m-5.1,-13.4l-1.85,6.25l0,-17.75l10.65,-10.35l-9.5,20l0.7,1.85m13.05,27.15l29.75,-22.5l0,12.5l-23.8,9.9l-5.95,0.1m57.7,-20.4l0.2,1.2l-3.05,15.8l5.1,0l-5.1,0l3.05,-15.8l-0.2,-1.2m0.2,1.2l1.15,6.6l-1.15,-6.6m-135.9,-2.35l-0.1,0l3.6,-36.45l2.6,13.85l6.15,-22.6l3.25,10.4l1.5,7.6l-3.35,7.2l0,-5.45l-13.65,25.45m14.75,-27.5l-1.1,2.05l1.1,-2.05m15.85,2.15l-8.4,-8.1l24.25,10.1l17.5,-2.05l-19.35,7.9l-14,-7.85"/>
   <path id="svg_15" fill-rule="evenodd" fill="#9c8a24" d="m432.8,-67.65l3.75,0.3l-4.55,0.85l0.45,-0.65l0.35,-0.5m-1.15,1.2l0.3,-0.05l-5.25,7.05l4,4.25l-9.4,-3.35l11.35,17.75l-25.45,-18.25l0.95,5.15l-2.9,-12.7l3.2,2.2l11.85,0l11.35,-2.05m-149.95,28.3l12.55,-10.5l2.35,-1.95l0,-0.05l4.1,0.6l3.15,-1.05l-13.15,-7.35l-6.85,-3.8l-0.75,-3.65l-1.5,-7.6l-1.5,-7.55l1.5,7.55l-3.25,-10.4l-6.15,22.6l-2.6,-13.85l-3.6,36.45l0.1,0l-0.15,0.25l-1.6,3l-1.75,-21.15l2.75,-14.55l-3.9,5.35l-1.5,-5.6l11.9,-14.2l0,8.45l3.55,-12.75l1.8,-2.1l27.65,23.55l7.45,1.9l0.6,0.15l13.35,-4.95l3.95,1.3l2,3.25l28.25,-4.9l13.9,-12.75l7.35,1.4l3.65,2.55l-3.75,13.35l-4.25,5.75l2.5,6.35l2.5,6.4l-3.65,10l-0.6,1.5l0,8.5l0,2.25l-6.6,2.7l-14.95,6.1l-0.5,0.2l-6,0.15l23.8,-9.9l0,-12.5l-29.75,22.5l-6.25,0.45l0,-4.2l4.65,-5.85l4.6,-5.9l-3.35,-7.1l1.35,-5.95l5.45,2.2l-3.45,-10.1l-4.4,-2.2l2,3.9l-2.5,-1.5l-1.75,6.6l-0.45,1.6l-0.2,-9.45l-4.45,16.75l0.8,7l-0.05,0.1l-1.95,-5.2l-3.1,-8.3l-0.7,-1.85l9.5,-20l-10.65,10.35l0,17.75l-2.7,-8.1l-2.65,-8.05l2.35,-3.45l-17.25,10.1l-27.25,9.4m117,18.75l-5.55,-14.45l3.05,-16.8l-3.7,4.95l0,-4.1l-2.95,-5.05l-6.75,-4.25l6.05,-8.3l0,-4.65l-0.35,-2.8l-0.55,-3.85l16.45,11.5l0,9.15l7.35,24.55l-5.45,-7.4l-2.85,-3.95l-2.9,-3.95l0,-11l0,11l2.9,3.95l-0.05,6.45l-5.1,-4.5l0.4,23.5m-185.95,-111.85q8.1,8.65 24.95,16.15l2.9,1.2l-39.8,-10.25l-67.45,19.65l-1.65,0.1l45.75,-25.65l13.9,-0.45l21.4,-0.75m31.2,54l10.45,1.05l1.7,6.8l-9.25,0l-21.35,1.45l4.3,-2.1l5.3,-2.65l12.35,-2.1l-13.95,-3.5l10.45,1.05m-43.8,-33.25l9.8,-4.3l20.75,2.7l-39.75,17.9l7.2,-4.25l8.3,-4.9l3.6,-2.65l7,-5.15l-35,6.85l16.65,-5.6l1.45,-0.6m14.55,13.6l5.75,-5.3l14,-2l6.8,2.35l-0.25,0.55l-10.2,0.75l-31.65,17.8l15.55,-14.15m116.75,32.2l-1.4,0.6l1.4,-0.6m21.25,15.9l-1.2,-2.65l-3.4,-7.45l3.4,7.45l1.2,2.65m12.4,10.1l-4.4,-5.5l-5.5,4.25l-9.6,17.75l2.15,-0.8l17.35,-15.7m3.1,-5.25l5.9,-6.1l0,-23.9l-6.8,7l-12.45,8.75l13.35,14.25m-16.7,-7.5l-4.4,-2.15l4.4,2.15m26.6,8.3l0,6l0,-6m14.4,-10.75l0,4.1l0,-4.1m8.05,7.25l0,-2.15l0,2.15m-13.95,-13.25l2.95,5.05l-2.95,-5.05m-121.9,0.7l-2.1,2.6l2.1,-2.6m40.15,8.85l-1,-0.75l1,0.75m25.2,-13.75l-17.5,2.05l-24.25,-10.1l8.4,8.1l14,7.85l19.35,-7.9"/>
   <path id="svg_16" fill-rule="evenodd" fill="#a68771" d="m432.65,-40.8l1.65,1.15l-2.9,-6.3l10.85,8.1l0,8.15l3.6,2.95l1.2,0.95l0,2.8l-0.05,3.05l-2.2,-0.6l-8.25,1.3l1.3,-11.15l-10.3,-9.75l1.3,5.25l-14.65,-11.05l1.9,17.8l-11.35,-7.15l1.55,-5.6l5.45,7.4l0.3,0.45l-3.9,-20.85l-0.95,-5.15l25.45,18.25m9.4,83.75l0,13.4l-7.95,13l-8.6,2.8l-1.4,1.95l-10.75,0l-5.75,-3.75l-9,0l-5.55,-10.55l-8,-4.85l-5.45,-8.85l4.45,-5.15l8.55,-9.85l17.2,-8.6l2.75,2.55l4.75,3.15l5,0l16.15,10.6l3.6,4.15m-22.35,-53l10.65,-14.35l0,7.5l-7.05,3.35l-3.6,3.5m18.15,64.65l0.75,-2.25l-3.5,-4l-5,-7.25l-8.25,0l-8,-1.25l-5.75,-6l-9.5,0l-8.25,13l3.8,1.55l-3.3,7.2l9.25,8.75l4.25,1.1l8.75,-18.35l0,2.75l-4.45,16.65l5.2,4.1l11.65,1.55l12.35,-17.55m-206.5,-121.7l22,1.15l0.95,10.85l-10.5,10.7l0,-10.9l0,10.9l0,6.7l-8.9,4.1l0,4.55l-4.65,2.25l-3.65,1.75l-3.8,-2.5l7.65,-8.25l0,-3.15l-3.1,-4.05l2.75,-7.65l13.7,-4.65l-1.45,-6.35l-11.15,-2.9l0.15,-2.55m-38.2,50.25l6.3,4.8l4.35,1l4,0l8.2,-9.05l1.95,2.3l3,0l-7.75,9.5l-0.2,3.2l-1.55,6.8l-14.75,7.65l-4.4,4.85l-8.2,1.55l-15.5,0.6l26.25,-11.9l7.75,-7.1l0.65,-4.45l-6.9,-3.8l-3.2,-5.95m-67.95,28.8l27.65,-19.1l27.95,-1.65l3.5,4.05l-19.1,-1.3l-19.5,5.65l-5.45,5.35l-8.95,8.75l-6.1,-1.75m57.1,-6.45l-2.75,-0.3l-9.5,0l-9.35,2l-6.25,4.8l1.25,9.1l-4.4,4l-4.6,-11.5l-3,5.6l-7.55,2.25l4.1,-16.5l5.45,-5.35l19.5,-5.65l19.1,1.3l1.75,2l-0.75,6.45l-3,1.8m51.65,-38.7l0.95,-0.4l-0.95,0.4m-71.15,37.8l-2.1,2.6l2.1,-2.6m5.15,-5.75l-5,3.3l-12,3.3l-4.25,8.15l4.25,-8.15l12,-3.3l5,-3.3m-13.65,12.25l0.15,0.9l-0.15,-0.9m238.75,48.7l-2.2,-4.2l2.2,4.2m14.55,10.55l1.05,-3.85l-1.05,3.85"/>
   <path id="svg_17" fill-rule="evenodd" fill="#ece3d2" d="m447.05,-23l2,2.05l0,1.6l-2.05,-0.6l0.05,-3.05m-32,15.25l-1.6,-5.3l1,-2.7l2.1,-5.95l9.25,-6.85l0,-4.5l0,4.5l-9.25,6.85l-2.1,5.95l-4.15,-3.15l-0.25,-0.95l-5.3,-15.45l11.35,7.15l-1.9,-17.8l14.65,11.05l-1.3,-5.25l10.3,9.75l-1.3,11.15l-1.85,0.3l-4.35,2.05l0,-7.5l-10.65,14.35l-2,8.35l-3.2,1.55l0.55,-2.9l-2,-2.25l2,-2.45l3,-3.65l-3,3.65m-0.85,20.85l-1.65,6.85l0,5.1l-2.75,-2.55l-2.75,-2.55l2.15,-4.6l-1.4,-2.5l1.25,-1.9l5.15,2.15m20.9,35.25l3.5,4l-0.75,2.25l-12.35,17.55l-11.65,-1.55l-5.2,-4.1l4.45,-16.65l0,-2.75l-8.75,18.35l-4.25,-1.1l-9.25,-8.75l3.3,-7.2l-3.8,-1.55l8.25,-13l9.5,0l5.75,6l8,1.25l8.25,0l5,7.25m-36.75,-9.25l-4.2,9.3l4.2,-9.3m-177.05,-97.5l7.15,-3.05l0.05,-0.05l2.7,-3.05l11.15,2.9l1.45,6.35l-13.7,4.65l-2.75,7.65l-3.05,-4.05l-3,-11.35m-31.9,35.8l1.65,4.15l2.1,1.6l3.2,5.95l6.9,3.8l-0.65,4.45l-7.75,7.1l-26.25,11.9l8.95,-8l4.75,-2.85l3,-1.8l0.75,-6.45l-1.75,-2l-3.5,-4.05l-27.95,1.65l-27.65,19.1l12.5,-16.6l10.35,-9.4l12.5,-2.95l4.4,-3.4l6.1,0l18.35,-2.2m-12.1,9.8l3.5,4l-3.5,-4m48.05,-45.25l3.1,-3.4l-3.1,3.4m-39.3,55.3l0.75,-6.4l-0.75,6.4"/>
   <path id="svg_18" fill-rule="evenodd" fill="#bcb9af" d="m440.7,5.8l4.75,-5.75l0.5,9.5l-6.4,10.25l1.15,-14m-227.75,-60l1,2.8l-18.9,23.2l-0.75,-1.75l3,-3.7l15.65,-20.55"/>
   <path id="svg_19" fill-rule="evenodd" fill="#959181" d="m440.7,5.8l-1.15,14l6.4,-10.25l-0.5,-9.5l-4.75,5.75m-6.85,18.9l5.75,-24.35l7,-7.5l4.5,9.75l-8.75,23.5l-3.15,1.85l-5.35,-3.25m-219.9,-76.1l1.3,3.5l-19.45,21.45l-0.75,-1.75l18.9,-23.2"/>
   <path id="svg_20" fill-rule="evenodd" fill="#616980" d="m263.25,-209.2l2.45,-1q-2.5,2.7 -3.7,5.85l-0.1,0.25q-1.05,2.9 -1.05,6.25l15.2,12.6l19.15,7.5l1.5,-0.05l-5.1,19.05l-0.9,0.05l-36.7,-12.7l-4.5,-8.2l-8,-14.5l0.65,-0.55l6.45,-4.55q7.15,-5.65 14.65,-10q-7.5,4.35 -14.65,10l-6.45,4.55l-0.65,0.55l-0.5,-0.9l3.5,-2.6q4.05,-3.2 8,-5.7l1.35,-0.85q4.85,-3.1 9.4,-5.05m-10.15,27.65l-3.6,1.95l3.6,-1.95l0.1,0.15l0,-0.2l-0.05,-0.4l-0.3,0.05l0.25,0.4m17.8,-7.55l-13.65,5.5l-0.3,0.05l-3.75,1.95l3.75,-1.95l0.3,-0.05l13.65,-5.5m-1.75,10.95l11.15,-1.2l-11.15,1.2"/>
   <path id="svg_21" fill-rule="evenodd" fill="#707b94" d="m296.7,-177.8l74.55,-7.4l5.75,6.1q-3,-1.65 -6.2,-3.05q6.4,6.8 11.9,13.95l-7,0.75l-0.55,-6.95l0.55,6.95l-28.8,2.95l-55.3,5.75l5.1,-19.05m7.15,13.95l8.5,-5.25l-8.5,5.25m43.05,-0.65l0.25,-0.3l-0.25,0.3"/>
   <path id="svg_22" fill-rule="evenodd" fill="#dfc262" d="m253.1,-181.55l-0.25,-0.4l0.3,-0.05l0.05,0.4l0,0.2l-0.1,-0.15l0.1,-0.05l-0.1,0.05"/>
   <path id="svg_23" fill-rule="evenodd" fill="#7d7178" d="m241.5,-194.1l8,14.5l4.5,8.2l0.1,0.5q4.5,19.9 29.3,35.9l2.85,1.8l-3.3,8.65l0.05,0.6l-0.7,1.75l0.7,-1.75l-0.05,-0.6l3.3,-8.65l1.25,0.75q11,6.7 23.6,11.55l-28.8,-1.3l-3.4,-0.15l-0.05,-0.6l-54.9,-30.9l0.9,-7.4l4.5,-4.25q8.6,-7.55 20.15,-14.1q-11.55,6.55 -20.15,14.1l-4.5,4.25l2.75,-22.2l6.7,-6.25l3.75,-3.35l0.8,-0.55l2.15,-1.4l0.5,0.9l-9.8,9.05l9.8,-9.05m135.5,15q5.45,2.4 10.6,5.2l8.35,5.15q10.05,6.55 19,14.4l-14.65,16.8q-6.5,-16 -17.6,-30.65q-5.5,-7.15 -11.9,-13.95q3.2,1.4 6.2,3.05"/>
   <path id="svg_24" fill-rule="evenodd" fill="#7c88ad" d="m376.1,-209.1l5.6,3.05q6.6,3.6 12.55,7.85l-6.65,24.3q-5.15,-2.8 -10.6,-5.2l-5.75,-6.1l4.85,-23.9m-0.15,2.5q2.9,1.4 5.65,3.1q-2.75,-1.7 -5.65,-3.1"/>
   <path id="svg_25" fill-rule="evenodd" fill="#545049" d="m238.85,-193.6l-15.4,-21.2l-21.25,-9.25l42.5,10.5l7.8,10.25q-3.95,2.5 -8,5.7l-3.5,2.6l-2.15,1.4m-4.55,3.9l-6.7,6.25l-4.55,4.5l-21.7,-10.35l-34.15,-23.5l45.75,11.5l21.35,11.6m-16.3,16.15l-1.9,2.3l-2.25,-2.3l4.15,0"/>
   <path id="svg_26" fill-rule="evenodd" fill="#807a6c" d="m385.05,54.95l3.3,47.9l-6,55.25l-1.85,-21.5l-4.1,-48.25l-2.8,45l-2.05,3.05l-49.2,72.45l37.25,-71.25l5.5,-89l-3.75,24.5l-35,67.5l-12.15,9.35l0,0.05l-63.35,48.85l-20.5,25.25l37.5,-55.25l58.75,-47.75l11,-105l15.1,0.5l5.75,-3.45l-0.4,-5.4l1.1,-6.55l9.7,-3.75l3.3,-3.15l2.8,2.05l2.75,-2.45l3.4,4.45l2.95,42.6l-4.45,5.15l5.45,8.85m-146.25,64l-5.7,4.9l-16.25,3l-49.25,45.75l54.25,-57l54.5,-32.25l-9.55,11.5l-28,24.1m-36.3,-54.4l-80.3,23.1l65.75,-24.2l73.75,-23.4l9.35,-10.35l32.3,-19.25l10.95,-4.9l1.5,-0.2l0,6.35l1.5,1.3l-19.45,23.6l-18,17.5l-68,7.75l-9.35,2.7m-7,-15.55l-38.4,-10.9l57.45,0l33.4,-16.3l28.1,-32.85l14.45,-4.2l-0.3,1.7l-4,1.9l-10.6,23.75l-11.15,10l-13.6,8.1l-14.9,7.75l-21.25,8.15l-19.2,2.9m97.2,-78.05l-3.5,-2.4l0,-2.75l24.85,17.6l-2.85,0.35l-9.95,-6.9l-5.05,-3.45l-3.5,-2.45m4.85,-9.25l0,-3.45l18.15,-4.15l8.15,-8.3l2.65,8.05l-6.15,4l-22.8,3.85m-81.85,-132.45q-4.25,5.25 -6.65,10.05l-4.45,-0.35l4.45,0.35q-3.25,6.3 -3.35,11.75q-0.3,4.25 1,8.4q0.85,2.2 2.2,4.35q1.55,2.5 3.85,4.95l-21.4,0.75l-0.15,-1.05l-13.1,-14.25l24.35,7.35l-1.5,-3.2l-8.1,-5.55l-18.15,-5.75l-26.35,0l25.35,-7l23.25,-1.75l7.65,0.65l-7,-8l-29.75,-15l47.85,13.3m-14.75,29.1l7.95,5.45l-7.95,-5.45m139.5,94.85l3.3,7.05l3.35,7.1l-4.6,5.9l-4.45,-11.25l1.95,-7.2l0.45,-1.6m-9.4,2.5l3.1,8.3l-3.1,4.85l0,-13.15m6.8,27.6l-5.95,0.4l0,-8.6l5.95,8.2m-11.85,0.75l-5.2,-1.3l-12.05,-17.8l11.85,5.5l5.4,13.6m5.55,31.85l1.95,0.1l-30.4,77.85l-26.25,15l-24.25,5.75l2.8,-3.65l40.2,-19.1l35.95,-75.95m44.85,72.45l-0.3,-3.25l0.3,3.25"/>
   <path id="svg_27" fill-rule="evenodd" fill="#cec4ae" d="m322.35,208.85l25.95,-60.8l5.05,-11.95l8,-63l3.75,-24.5l-5.5,89l-37.25,71.25m-92,15.25l7.5,-32.25l16,-31.25l4.3,-5.75l0,-0.05l44.95,-60.95l30.4,-77.85l4.1,0.1l-11,105l-58.75,47.75l-37.5,55.25m-62.75,-51.5l-2.5,2.25l31.75,-62.5l21,-20.75l3.25,-3.25l58.75,-34.25l18,-17.5l19.45,-23.6l1.55,1.35l5.1,2.6l7.6,-1.05l-35.95,75.95l-40.2,19.1l13.7,-18.1l-2.3,2l9.55,-11.5l-54.5,32.25l-54.25,57m-45.4,-84.95l-0.3,0.1l-1.3,0.35l55.7,-36.25l19.2,-2.85l19.2,-2.9l21.25,-8.15l14.9,-7.75l13.6,-8.1l11.15,-10l10.6,-23.75l4,-1.9l2.15,5.1l2.9,1.3l-2.3,2.2l0,11.3l3.35,3.7l5.5,1.05l1.55,-0.65l-32.3,19.25l-9.35,10.35l-73.75,23.4l-65.75,24.2m34.9,-49.55l50.25,-6l73.25,-49l10.15,0l-0.25,1.65l-14.45,4.2l-28.1,32.85l-33.4,16.3l-57.45,0m132.1,-72.3l8.35,-4.1l22.8,-3.85l6.15,-4l2.7,8.1l1.85,-6.25l0,13.15l3.1,-4.85l1.95,5.2l0.05,-0.1l1.9,-7.1l4.45,11.25l-4.65,5.85l0,4.2l-5.95,-8.2l0,8.6l-5.9,0.35l-5.4,-13.6l-11.85,-5.5l12.05,17.8l-1.35,-0.35l-2.6,0l-0.5,1.15l-2,-0.2l-0.3,0.05l-24.85,-17.6"/>
   <path id="svg_28" fill-rule="evenodd" fill="#7b694d" d="m348.3,148.05l-53.45,44.55l19.35,-42.6l0,-0.05l12.15,-9.35l35,-67.5l-8,63l-5.05,11.95m-130.45,-56.45l-49.5,1.75l34.15,-28.8l9.35,-2.7l68,-7.75l-58.75,34.25l-3.25,3.25"/>
   <path id="svg_29" fill-rule="evenodd" fill="#c87511" d="m274.85,-101.35l-1.55,-2.75l10.9,2l4.15,5.7l21.75,14.25l10.1,1.35l1.65,-5.75l4.1,1.75l6.4,0l1.6,-1.15l1.6,5.4l21.4,-3.25l14.3,-11l7.25,6.4l-6.15,0l-12.75,12.25l-22.5,3.25l-6.75,0l-6.75,0l-19.25,-3.25l-27,-20.75l-2.5,-4.45m40.95,106.7l-1.5,0.2l-10.95,4.9l-1.55,0.65l-2.4,-3.7l0,-3.1l0,-7.9l3.8,-4.85l11.2,-3.7l1.4,0l0,17.5m28.9,-19.15l4.8,2.55l-8.55,0l-3.5,1.3l-7.95,1l-3.75,-1.3l-2.45,2.7l2.75,15.15l-0.55,-1.8l-4.15,-13.6l1.6,-5.1l7.9,2.6l13.85,-3.5m5.35,-3.45l6,-0.15l0.5,-0.2l2.65,3.2l0.3,1.4l1.05,5.45l-1.4,8.75l-1.1,6.55l0.4,5.4l-5.75,3.45l-15.1,-0.5l-4.1,-0.1l-1.95,-0.1l-7.6,1.05l-5.1,-2.6l6,-0.5l9.45,0l12.05,0l5,-3.5l3.45,0l1.05,0l0,-1.65l0,-21.35l-0.95,-0.75l-4.85,-3.85m21.45,-6.45l6.6,-2.7l0,-2.25l3,1.35l1,2.5l0,2.65l-0.8,6.8l-0.85,6.8l-2.75,2.45l-2.75,2.45l-2.8,-2.05l3.2,-3.1l-0.75,-11.35l-3.1,-3.55"/>
   <path id="svg_30" fill-rule="evenodd" fill="#684317" d="m366.15,-101.1l1.4,3.05l3.7,3.25l-14.3,11l-21.4,3.25l-1.6,-5.4l14.05,-10.15l3.95,-2.85l0.2,-0.6l14,-1.55m-63.05,6.45l18.75,8.1l-1.65,5.75l-10.1,-1.35l-21.75,-14.25l-4.15,-5.7l7.9,1.1l2.5,0.6l2.7,0l3.2,0.35l2.6,5.4"/>
   <path id="svg_31" fill-rule="evenodd" fill="#735748" d="m352.15,-99.55l-0.2,0.6l-3.95,2.85l-4.55,-0.75l-10.7,-1.85l19.4,-0.85m-15.2,6.5l-4.75,4.15l-6.15,-0.4l6,-1.6l4.9,-2.15m-4.5,-3.9l-2.6,4.05l-2.75,0.85l-1.5,0.35l-3.5,-4l4.5,2.25l5.85,-3.5m-10.9,-1.85l-18.45,4.15l-2.6,-5.4l18.4,1.15l2.65,0.1"/>
   <path id="svg_32" fill-rule="evenodd" fill="#ae8f80" d="m348,-96.1l-14.05,10.15l-1.6,1.15l-6.4,0l-4.1,-1.75l-18.75,-8.1l18.45,-4.15l11.2,0.1l10.7,1.85l4.55,0.75m-11.05,3.05l-4.9,2.15l-6,1.6l6.15,0.4l4.75,-4.15m6.5,-3.8l-2.3,0.4l-11.3,3.55l11.3,-3.55l2.3,-0.4m-13.6,3.95l2.6,-4.05l-5.85,3.5l-4.5,-2.25l3.5,4l1.5,-0.35l2.75,-0.85m-6.5,1.2l2.25,0l-2.25,0"/>
   <path id="svg_33" fill-rule="evenodd" fill="#ffcd2b" d="m290.5,-15.25l0.25,-1.65l0.95,-6.05l1.5,-1.2l3,-2.45l5.05,3.45l-3.3,3.2l-1.1,5.4l0.65,5.15l-2.25,2.25l2.25,-2.25l1.15,-1.15l0.3,-0.1l6.85,-3.4l4.2,-2.1l1.2,-0.1l2.85,-0.35l0.3,-0.05l2,0.2l0.5,-1.15l2.6,0l1.35,0.35l5.2,1.3l5.9,-0.35l5.95,-0.4l6.25,-0.45l5.95,-0.1l4.85,3.85l-1.1,11.1l0.9,11.15l1.15,-0.15l0,1.65l-1.05,0l-0.1,-1.5l-4.25,0.5l-16.15,4.5l-9.45,0l-6,0.5l-1.55,-1.35l-1.5,-1.3l0,-6.35l0,-17.5l0,-1.6l0,-1.6l0.55,-1.1l-0.55,1.1l0,1.6l-13.95,4.95l-3.65,5.65l1.2,7.45l0,3.1l2.4,3.7l-5.5,-1.05l-3.35,-3.7l0,-11.3l2.3,-2.2l-2.9,-1.3l-2.15,-5.1l0.3,-1.7m59,4l-4.8,-2.55l-3,-1.5l-15.05,3.2l-5.45,-2.95l-1.4,7.15l5.7,13.7l0.55,1.8l0.25,1.35l1.45,0.8l1.5,0.8l21.3,-3.7l0.85,-1.55l-0.85,-13.75l-0.75,-2.8l-0.3,0m-56.3,-1.05l1.55,-10.25l-3,6.3l1.45,3.95"/>
   <path id="svg_34" fill-rule="evenodd" fill="#ffe9b5" d="m315.8,-13.75l0,1.6l-1.4,0l-11.2,3.7l-3.8,4.85l0,7.9l-1.2,-7.45l3.65,-5.65l13.95,-4.95m9.7,19.55l-5.7,-13.7l1.4,-7.15l5.45,2.95l15.05,-3.2l3,1.5l-13.85,3.5l-7.9,-2.6l-1.6,5.1l4.15,13.6m29.4,-19.2l0.95,0.75l0,21.35l-1.15,0.15l-0.9,-11.15l1.1,-11.1m-0.1,23.75l-3.45,0l-5,3.5l-12.05,0l16.15,-4.5l4.25,-0.5l0.1,1.5m-61.6,-22.65l-1.45,-3.95l3,-6.3l-1.55,10.25"/>
   <path id="svg_35" fill-rule="evenodd" fill="#8e5c20" d="m291.3,-28.8l1.4,-0.25l3.5,2.45l-3,2.45l-1.9,-4.65m58.2,17.55l0.3,0l0.75,2.8l-10.75,-0.2l-12.05,4.25l0,14.15l-1.45,-0.8l-0.25,-1.35l-2.75,-15.15l2.45,-2.7l3.75,1.3l7.95,-1l3.5,-1.3l8.55,0m7.05,-6.35l14.95,-6.1l3.1,3.55l-15.1,7.15l-0.3,-1.4l-2.65,-3.2m21.55,-11.05l0,-8.5l0.6,-1.5l6.25,5.5l1.5,7.5l-2.75,7.35l-2.4,2.95l0.8,-6.8l0,-2.65l-1,-2.5l-3,-1.35m-80.6,19.25l-0.65,-5.15l1.1,-5.4l3.3,-3.2l9.95,6.9l-1.2,0.1l-4.2,2.1l-5.8,-4.35l-1.05,7.75l-0.3,0.1l-1.15,1.15"/>
   <path id="svg_36" fill-rule="evenodd" fill="#b17d27" d="m290.75,-16.9l-2.9,-6.9l2.1,-4.75l1.35,-0.25l1.9,4.65l-1.5,1.2l-0.95,6.05m59.8,8.45l0.85,13.75l-0.85,1.55l-21.3,3.7l-1.5,-0.8l0,-14.15l12.05,-4.25l10.75,0.2m8.6,9.65l1.4,-8.75l-1.05,-5.45l15.1,-7.15l0.75,11.35l-3.2,3.1l-3.3,3.15l-9.7,3.75m-60.2,-11.85l1.05,-7.75l5.8,4.35l-6.85,3.4"/>
   <path id="svg_37" fill-rule="evenodd" fill="#524532" d="m380.5,136.6l-8.65,13l-0.3,-13.2l2.05,-3.05l2.8,-45l4.1,48.25m-122.35,18.25l-18.55,8.75l17.5,-25.75l-45.75,39.25l18.25,-29.5l25.25,-22.75l-15.5,2.75l9.5,-8.65l-10.05,0l28,-24.1l2.3,-2l-13.7,18.1l-2.8,3.65l24.25,-5.75l26.25,-15l-44.95,60.95l0,0.05"/>
   <path id="svg_38" stroke-width="0.05" stroke-opacity="0.2" stroke-linejoin="round" stroke-linecap="round" stroke="#000000" fill="none" d="m377.35,-103.05l1.6,3.9l23.25,15.85l3.15,0.9l8.25,2.35m11.35,-29l-8.6,-7.25m27.85,24.75l0,-5.6l-8.75,0l-1,0.95l-14.7,13.7l-6.15,2.45m22.6,-9.75l3.5,0l0,4.75l0,1.15m4.5,-7.65l0,5.65l-4.35,8.6l-7.05,9.65l3.75,0.3l0.65,0.05l5.05,-1.05l29.2,-6.2l-33.5,12.9l6.1,3.1l1,0.5m-66.55,-30.35l4.8,4.2l24.75,15l10.25,1.75l4.15,-3.1l1.55,-2.1l12.2,-17.15m-6.45,18.5l-4.55,3l7.6,0.65m-0.35,0.5l-0.45,0.65m-2.2,-4.75l-1.2,1.6m1.2,-1.6l9.9,-13.8m-15.7,12.4l5.75,1.35m2.2,4.8l0.05,0m-0.35,0.05l0.3,-0.05m0.7,25.7l1.65,1.15l-2.9,-6.3l-4.2,-9.1m-2.25,-54l9.5,12.85m1.15,36.65l-1.9,-0.25m11,15.25l-1,0.4m0.35,-14.4l-8.45,-1l8.2,9.5l10.25,1.9l-9.35,3.6l7,13l-5.85,4.8l1.2,0.95l0,2.8l2,2.05l0,1.6l4.15,1.15l6.6,5.9l1,7.1l-2.1,4l-3.75,3.25l-10.1,32.35l0.95,0.9l1.15,5l-2.25,2.65l-2.65,0l0,13.4l-7.95,13l-8.6,2.8l-1.4,1.95l-10.75,0l-5.75,-3.75l-9,0l-5.55,-10.55l-8,-4.85l3.3,47.9l-6,55.25l-1.85,-21.5l-8.65,13l-0.3,-13.2l-49.2,72.45l25.95,-60.8l-53.45,44.55l19.35,-42.6l-63.35,48.85l-20.5,25.25l7.5,-32.25l16,-31.25l4.3,-5.75l-18.55,8.75l17.5,-25.75l-45.75,39.25l18.25,-29.5l25.25,-22.75l-15.5,2.75l9.5,-8.65l-10.05,0l-5.7,4.9l-16.25,3l-49.25,45.75l-2.5,2.25l31.75,-62.5l21,-20.75l-49.5,1.75l34.15,-28.8l-80.3,23.1m-0.3,0.1l-1.3,0.35l55.7,-36.25l19.2,-2.85l-38.4,-10.9l50.25,-6l73.25,-49l10.15,0l-2.9,-6.9l2.1,-4.75l1.35,-0.25l1.4,-0.25l-3.5,-2.4l0,-2.75l8.35,-4.1l0,-3.45l-15.85,3.6l12.55,-10.5l-12.6,1.4l-1.05,0.1m150.8,1.2l10.85,8.1l6.3,4.7l-3.25,2.75m-33.55,-3.1l0.3,0.45l-3.9,-20.85l-0.95,-5.15l25.45,18.25m-18.2,25.05l-1,2.7l1.6,5.3l3,-3.65m-3.6,-4.35l2.1,-5.95l9.25,-6.85l0,-4.5m-15.75,13.2l0.25,0.95l4.15,3.15m27.8,-22.1l0,8.15l3.6,2.95m-15.5,9.85l4.35,-2.05l1.85,-0.3l8.25,-1.3l2.2,0.6l2.05,0.6m-44.3,-15.95l5.3,15.45l-5,8.15l1.25,-6.6l-5.75,2l-1.85,-3.1l-5.55,-14.45l3.05,-16.8l-3.7,4.95l-0.8,1.05m55.3,24.7l0.05,-3.05m-16.7,6.1l-7.05,3.35l-3.6,3.5l-2,8.35l-3.5,14.8l-1.65,6.85l0,5.1l4.75,3.15l5,0l16.15,10.6l3.6,4.15m-8.2,-18.25l-5.3,-3.25l-9.1,0l7.35,-29.25l9.25,-3.25l14.65,2l3.1,4.85l1.15,6.25m-21.1,22.65l5.35,3.25l4.75,5.6l0.9,0.85l-0.3,0.9m-30.05,-35.45l-1.8,0.85l-3.65,10.25l5.15,2.15m0.3,-13.25l3.2,-1.55m-2.65,-6.05l-2,2.45l2,2.25l-0.55,2.9m20.6,48.5l-5,-7.25l-8.25,0m-8,-1.25l-5.75,-6l-9.5,0m-4.45,14.55l4.2,-9.3m14.75,8l0,2.75l-4.45,16.65l-1.05,3.85m17.9,1.8l12.35,-17.55m-199,-248.2l-15.4,-21.2l-21.25,-9.25l42.5,10.5l7.8,10.25m-104.15,50.35l-1.75,0m69.1,-17.8l-47.85,-13.3l29.75,15l7,8l4.45,0.35m58.2,55.25l-10.4,18.25l-4.15,2.75l-2,-0.5l-13,-3.25l-1.1,-1.35l1.35,-4.4l-8,1.9m14,14.8l10.45,1.05l2.55,0.25l1.55,-1.05l1.45,-1.05l14.9,-23.3l-1.55,-2.75m-55.3,-69.45l-4.15,0l2.25,2.3m6.95,-7.7l-21.7,-10.35l-34.15,-23.5l45.75,11.5l21.35,11.6m-85.95,36.75l25.35,-7l23.25,-1.75l7.65,0.65m-13.25,30.55l-0.15,-1.05l-13.1,-14.25l24.35,7.35l-1.5,-3.2l-8.1,-5.55l-18.15,-5.75l-26.35,0m-15,48.45l-1.65,0.1l45.75,-25.65l13.9,-0.45l21.4,-0.75m-21.8,37.05l-1.2,0.7l24.95,-3.4l5.75,-5.3l14,-2m6.8,2.35l0.9,-2.2l3.25,-7.95m-112.05,7.5l38.6,-2.8l26.75,-2.6l1.45,-0.6m8.75,-25.7l-7.95,-5.45m-1.8,58.9l-0.8,0.7l27.85,-6l3.75,-4m8,-1.9l3.05,-7.35l0.25,-0.55m-15.75,33.9l-1.05,0.5l6.9,0.35l22,1.15l0.95,10.85l0.9,10.9l5.3,-18.25l0.95,-3.35l-1.5,-5.6l-1.45,-5.6m-34.3,15.2l-1.75,0l-1.4,2.6l0.25,0.8l7.15,-3.05l0.05,-0.05l-5.55,-4.7l-4.75,1l-5.25,5.4l0,5.6l1,2.8l1.3,3.5l0.9,2.5l4.8,4.45l0,1.9l-17.65,19.5l-2.25,0l-5.25,-6.9m37.7,-51.85l-3.15,3.25l0,2.65l-0.55,2.35l5.3,-2.65l12.35,-2.1m-13.95,-3.5l10.45,1.05m-10.45,-1.05l-2.55,-0.25l-4.75,-3.15l0,-6.35m5,23.5l-2.7,3.05m2.85,-5.6l-0.15,2.55m12.6,9.25l0,10.9l10.5,-10.7m-24.5,-14.95l-4.3,2.1m-27.35,-30.5l8.3,-4.9l3.6,-2.65m-28,1.7l16.1,5.85l-7.2,4.25m-1.2,0.7l-1.55,0.2m-6.15,-11l16.65,-5.6m-3.65,81.7l0.75,1.75m1.5,-7.2l-3,3.7l0.75,1.75m-5.65,5.6l-1.7,-4.1l1.25,-5.6l3.1,-2.25l3.9,0l1.35,0.9l15.65,-20.55m-23.55,31.6l1.65,4.15l2.1,1.6l6.3,4.8l4.35,1l4,0l8.2,-9.05l6.8,-7.45l7.65,-8.25l0,-3.15l-3.1,-4.05l-3.05,-4.05l-3,-11.35m-31.9,35.8l-18.35,2.2l-6.1,0l-4.4,3.4l-12.5,2.95l-10.35,9.4l-12.5,16.6m55.6,-20.75l-3.5,-4m66.5,-31.6l0,6.7l-8.9,4.1l0,4.55l-4.65,2.25l0.1,3l-4.8,5.1l-1.6,0.9l-3,0l-7.75,9.5l-0.2,3.2l-1.55,6.8l-14.75,7.65l-4.4,4.85l-8.2,1.55l-15.5,0.6l8.95,-8l4.75,-2.85l-2.75,-0.3l-9.5,0l-9.35,2l-6.25,4.8l1.25,9.1l-4.4,4l-4.6,-11.5l-3,5.6l-7.55,2.25l4.1,-16.5l-8.95,8.75l-6.1,-1.75m90.8,-32.05l1.95,2.3l3,0m1.85,-9.75l3.8,2.5l3.65,-1.75m4.65,-6.8l-0.95,0.4m-7.35,8.15l2.35,0m-0.5,-36.4l-3.1,3.4m-26.2,-24.7l15.55,-14.15m-60.25,108.9l-0.15,-0.9m-7.6,2.5l4.25,-8.15l12,-3.3l5,-3.3m-7.25,8.35l2.1,-2.6m-22.55,0.35l5.45,-5.35l19.5,-5.65l19.1,1.3l-3.5,-4.05m109.7,-6.45l0.25,-1.65m-103.95,7.75l-0.75,6.4l-0.75,6.45l-3,1.8m3.75,-8.25l-1.75,-2m18.2,69.3l9.35,-2.7l68,-7.75l18,-17.5m19.45,-23.6l-1.5,-1.3l0,-6.35l-1.5,0.2l-10.95,4.9m-13.15,-24l-4,1.9l-10.6,23.75l-11.15,10l-13.6,8.1l-14.9,7.75l-21.25,8.15l-19.2,2.9m170.65,-150.1l1.4,3.05l3.7,3.25l7.25,6.4l-6.15,0l-12.75,12.25l-22.5,3.25l-6.75,0l-4.1,1.55m55.35,4.2l-4.25,5.75l2.5,6.35l2.95,-4.05l6.05,-8.3l0,-4.65l-0.35,-2.8m23.25,41.35l-5.45,-7.4l-1.55,5.6l-1.6,5.55l-0.6,2.1m-50.4,-71.9l-0.2,0.6l-3.95,2.85l-14.05,10.15l1.6,5.4l21.4,-3.25l14.3,-11m-41.4,1.9l11.3,-3.55l2.3,-0.4m-13.6,3.95l-2.75,0.85m-1.5,0.35l-2.25,0m6.7,27.6l1.4,-0.6m-28.35,-29.95l18.75,8.1l4.1,1.75l6.4,0l1.6,-1.15m14.15,27.05l3.4,7.45l1.2,2.65m-5.6,-4.8l-4.4,-2.2l2,3.9l-2.5,-1.5l-1.75,6.6l3.3,7.05m3.35,-13.85l4.4,2.15m-17.35,15.45l-3.1,-8.3l-0.7,-1.85l9.5,-20m-5.7,30.15l1.95,5.2l0.05,-0.1l1.9,-7.1m1.95,-7.2l0.45,-1.6m-11.25,8.75l1.85,-6.25m-1.85,6.25l-2.7,-8.1m13.5,0.95l-1.95,7.2m4.45,11.25l4.6,-5.9l-3.35,-7.1m-5.9,23.05l0,-4.2l4.65,-5.85m-10.6,10.45l5.95,-0.4l6.25,-0.45l29.75,-22.5m-41.95,23.35l-5.9,0.35l-5.2,-1.3l-1.35,-0.35l-2.6,0l-0.5,1.15l-0.55,1.1l0,1.6l0,1.6l0,17.5m33.7,-16.6l0.3,0l0.75,2.8l0.85,13.75l-0.85,1.55l-21.3,3.7l-1.5,-0.8l-1.45,-0.8l-0.25,-1.35l-2.75,-15.15l2.45,-2.7l3.75,1.3l7.95,-1l3.5,-1.3l8.55,0m0.55,-6l6,-0.15l0.5,-0.2l14.95,-6.1l6.6,-2.7l0,-2.25l0,-8.5l0,-6m-18.6,30.15l-0.3,-1.4l-2.65,-3.2m-37.7,31.95l5.1,2.6l7.6,-1.05l1.95,0.1l4.1,0.1l15.1,0.5l5.75,-3.45l-0.4,-5.4l1.1,-6.55l1.4,-8.75l-1.05,-5.45m15.1,-7.15l-3.1,-3.55m-27.4,6.55l5.95,-0.1m50.5,-42.55l0,11l2.9,3.95l2.85,3.95m-13.8,-8.9l0,-4.1m11.55,33.35l-5.1,0l3.05,-15.8l-0.2,-1.2m-1.25,-11.25l0,2.15m-8.05,0.95l0,-4.1l-2.95,-5.05l-6.75,-4.25m6.75,4.25l-2.95,-5.05m-7.9,21.25l3.65,-10l-2.5,-6.4m-1.75,17.9l0.6,-1.5l6.25,5.5l1.5,7.5l-2.75,7.35l-2.4,2.95l-0.85,6.8l-2.75,2.45l3.4,4.45l2.95,42.6l8.55,-9.85l17.2,-8.6l-2.75,-2.55l2.15,-4.6l-1.4,-2.5l1.25,-1.9m-30.95,-39.6l3,1.35l1,2.5l0,2.65l-0.8,6.8m21.85,-14.4l-1.15,-6.6m-79.9,-59.35l4.5,2.25l5.85,-3.5m-31.95,-3.1l2.6,5.4m-5.8,-5.75l-2.7,0l-2.5,-0.6m-7.9,-1.1l4.15,5.7l21.75,14.25l10.1,1.35l1.65,-5.75m-9.55,20l0.6,0.15l13.35,-4.95m-51.4,-30l2.5,4.45l27,20.75l19.25,3.25l6.75,0m-67.75,16.3l2.1,-2.6m1.4,20.5l13.65,-25.45l1.1,-2.05m2.25,0.3l0.75,3.65l6.85,3.8l13.15,7.35l1,0.75m-23.25,-23.15l1.5,7.6l-3.35,7.2l0,-5.45m0.35,-16.9l1.5,7.55m-21.1,11.05l0,8.4l2.1,-2.55l1.75,21.15l1.6,-3m-1.6,3l0.1,1.5m59.4,-20.25l2.65,8.05m-2.65,-8.05l-0.4,-1.2m0.4,1.2l-8.15,8.3l-18.15,4.15m-0.95,-8.9l0,0.05l-2.35,1.95m9.6,-2.45l-3.15,1.05m-19.05,2.8l9.05,-6.4l0,-4.8m2.5,34.3l3,-2.45l-3.5,-2.45m4.8,19.65l-0.65,-5.15l1.1,-5.4l3.3,-3.2l-5.05,-3.45m-5.7,11.35l-0.3,1.7l2.15,5.1l2.9,1.3l2.25,-2.25l1.15,-1.15l0.3,-0.1m6.85,-3.4l4.2,-2.1l1.2,-0.1l-9.95,-6.9m-8.05,-1l-1.5,1.2l-0.95,6.05m25.6,0.45l-2,-0.2l-0.3,0.05l-2.85,0.35m-11.8,20.55l0,-7.9l3.8,-4.85l11.2,-3.7l1.4,0m4.8,-17.4l-11.85,-5.5l12.05,17.8m-24.1,-46.8l14,7.85l19.35,-7.9m-34.8,56.95l-2.3,2.2l0,11.3l3.35,3.7l5.5,1.05l-2.4,-3.7l0,-3.1m2.4,6.8l1.55,-0.65m13.95,2.55l1.55,1.35m53.3,-20.05l2.8,2.05l2.75,-2.45m-3.1,-14.05l0.75,11.35l-3.2,3.1l-3.3,3.15l-9.7,3.75m35,47.2l-3.3,7.2l2.2,4.2m-9,-18.85l-4.45,5.15l5.45,8.85m-79.25,-69l-6.85,3.4m81.55,147.25l-4.1,-48.25l-2.8,45l-2.05,3.05m-23.25,11.65l5.05,-11.95l8,-63l-35,67.5l-12.15,9.35l0,0.05m-58.8,-39.05l13.7,-18.1l-2.3,2l-28,24.1m64.3,-25.1l-26.25,15l-24.25,5.75l2.8,-3.65m2.75,43.9l0,-0.05l44.95,-60.95m-85.25,-2.25l3.25,-3.25l58.75,-34.25m96.25,31l0.3,3.25m33.4,-65.85l2.75,2.55"/>
   <path id="svg_39" stroke-width="0.05" stroke-linejoin="round" stroke-linecap="round" stroke="#00ff00" fill="none" d="m436.55,-67.35l5.7,-1m-10.25,1.85l4.55,-0.85"/>
   <path id="svg_40" stroke-width="0.25" stroke-linejoin="round" stroke-linecap="round" stroke="#593e4e" fill="none" d="m398.8,-136.7l12.85,22.8m-139.2,-100q-4.7,2 -9.2,4.7q-7.5,4.35 -14.65,10l-6.45,4.55l-0.65,0.55l-9.8,9.05m17.8,5.45l3.6,-1.95m0.1,-0.05l3.75,-1.95l0.3,-0.05l13.65,-5.5m-17.7,7.5l-0.1,0.05m-3.6,1.95q-11.55,6.55 -20.15,14.1l-4.5,4.25q-8.8,8.95 -14.05,19.1m71.5,19.95l0.7,-1.75l-0.05,-0.6l3.3,-8.65l3.7,-9.6m108.85,6.1l-9.65,-17.15m-9.6,44.7l-0.7,-1.7l0,-0.3l-4.15,-10.1m4.85,12.1l1.75,4.55m-105.3,-1.4l6.3,-16.2"/>
   <path id="svg_41" stroke-width="0.25" stroke-linejoin="round" stroke-linecap="round" stroke="#cec8cd" fill="none" d="m304.95,-220l-6.6,0.95m14,49.95l-8.5,5.25m-23.55,-15.5l-11.15,1.2m112.45,-25.35q-2.75,-1.7 -5.65,-3.1m-0.25,39.15l0.35,4.25m-0.9,-11.2l0.55,6.95m17,-19.65l8.6,8.05m-54.15,14.25l-0.25,0.3l-4.55,6.9m-76.2,-50.45l8.55,-4.65"/>
   <path id="svg_42" stroke-width="0.05" stroke-linejoin="round" stroke-linecap="round" stroke="#696765" fill="none" d="m215.25,-47.9l3.6,-4"/>
   <path id="svg_43" stroke-width="2.5" stroke-linejoin="round" stroke-linecap="round" stroke="#000000" fill="none" d="m322.35,208.85l49.2,-72.45l0.3,13.2l8.65,-13l1.85,21.5l6,-55.25l-3.3,-47.9l8,4.85l5.55,10.55l9,0l5.75,3.75l10.75,0l1.4,-1.95l8.6,-2.8l7.95,-13l0,-13.4l2.65,0l2.25,-2.65l-1.15,-5l-0.95,-0.9l10.1,-32.35l3.75,-3.25l2.1,-4l-1,-7.1l-6.6,-5.9l-4.15,-1.15l0,-1.6l-2,-2.05l0,-2.8l-1.2,-0.95l5.85,-4.8l-7,-13l9.35,-3.6l-10.25,-1.9l-8.2,-9.5l8.45,1l-6.1,-3.1l33.5,-12.9l-34.25,7.25l-4.4,-0.35l7.05,-9.65l4.35,-8.6l0,-11.25l-8.75,0l-1,0.95l-9.5,-12.85l-8.6,-7.25q10.4,-5.85 15,-12.8q3.75,-5.4 4,-11.4q0.65,-17.45 -24.6,-43.05l-4.5,-4.6q-5.65,-5.4 -12,-10.05q-5.95,-4.25 -12.55,-7.85l-5.6,-3.05q-20.8,-10.2 -46.75,-13.1q-12.4,-1.35 -24.25,-0.3l-6.65,0.95q-12.2,1.8 -23.6,6.35l-8.6,4.65l0.05,0.3l-0.6,0.05l-2.45,1q-4.55,1.95 -9.4,5.05l-1.35,0.85l-7.8,-10.25l-42.5,-10.5l21.25,9.25l15.4,21.2l-0.8,0.55l-3.75,3.35l-21.35,-11.6l-45.75,-11.5l34.15,23.5l21.7,10.35l-5.05,5.4l-4.15,0l2.25,2.3l-0.4,0.5l-47.85,-13.3l29.75,15l7,8l-7.65,-0.65l-23.25,1.75l-25.35,7l26.35,0l18.15,5.75l8.1,5.55l1.5,3.2l-24.35,-7.35l13.1,14.25l0.15,1.05l-13.9,0.45l-45.75,25.65l40.25,-2.9l26.75,-2.6l-16.65,5.6l16.1,5.85l-8.4,4.95l24.95,-3.4l-16.35,14.85l27.85,-6l0,6.35l4.75,3.15l2.55,0.25l-3.15,3.25l0,2.65l-0.55,2.35l-5.35,2.6l6.9,0.35l-0.15,2.55l-2.7,3.05l-5.55,-4.7l-4.75,1l-5.25,5.4l0,5.6l-15.65,20.55l-1.35,-0.9l-3.9,0l-3.1,2.25l-1.25,5.6l1.7,4.1l-18.35,2.2l-6.1,0l-4.4,3.4l-12.5,2.95l-10.35,9.4l-12.5,16.6l6.1,1.75l8.95,-8.75l-4.1,16.5l7.55,-2.25l3,-5.6l4.6,11.5l4.4,-4l-1.25,-9.1l6.25,-4.8l9.35,-2l9.5,0l2.75,0.3l-4.75,2.85l-8.95,8l15.5,-0.6l8.2,-1.55l4.4,-4.85l14.75,-7.65l1.55,-6.8l0.2,-3.2l7.75,-9.5l3,0l1.6,-0.9l4.8,-5.1l-0.1,-3l4.65,-2.25l0,-4.55l8.9,-4.1l0,-6.7l10.5,-10.7l0.9,10.9l5.3,-18.25l0,8.4l2.1,-2.55l1.75,21.15l15.4,-28.7l0,5.45l3.35,-7.2l0.75,3.65l6.85,3.8l0,4.8l-9.05,6.4l12.6,-1.4l-12.55,10.5l15.85,-3.6l0,3.45l-8.35,4.1l0,2.75l3.5,2.4l-2.75,0.5l-2.1,4.75l2.9,6.9l-10.15,0l-73.25,49l-50.25,6l38.4,10.9l-19.2,2.85l-55.7,36.25l81.9,-23.55l-34.15,28.8l49.5,-1.75l-21,20.75l-31.75,62.5l51.75,-48l16.25,-3l5.7,-4.9l10.05,0l-9.5,8.65l15.5,-2.75l-25.25,22.75l-18.25,29.5l45.75,-39.25l-17.5,25.75l18.55,-8.75l-4.3,5.75l-16,31.25l-7.5,32.25l20.5,-25.25l63.35,-48.85l-19.35,42.6l53.45,-44.55m66.15,-163.8l-1,2.7l1.6,5.3l-2,2.45l2,2.25l-0.55,2.9l-1.8,0.85l-3.65,10.25l-1.25,1.9l1.4,2.5l-2.15,4.6l2.75,2.55l-17.2,8.6l-8.55,9.85l-2.95,-42.6l-3.4,-4.45l2.75,-2.45l0.85,-6.8l2.4,-2.95l2.75,-7.35l-1.5,-7.5l-6.25,-5.5l3.65,-10l-2.5,-6.4l2.95,-4.05l6.75,4.25l2.95,5.05l0,4.1l3.7,-4.95l-3.05,16.8l5.55,14.45l1.85,3.1l5.75,-2l-1.25,6.6l5,-8.15l0.25,0.95l4.15,3.15"/>
   <path id="svg_44" stroke-width="2" stroke-linejoin="round" stroke-linecap="round" stroke="#000000" fill="none" d="m348.3,148.05l-25.95,60.8l25.95,-60.8z"/>
   <path id="svg_45" fill-rule="evenodd" fill="#302f2d" d="m174.65,10.15l-12,3.35q-18.15,5.25 -35.4,11.35q7.7,9.7 17.4,17.65q20.35,16.75 49.45,25.65l-1.2,0.3q-4.25,1.45 -4.95,5.45q-0.8,4 2.35,8.35l0.8,1.05l2.3,2.2l-1.2,2.3l1.2,-2.3q2.35,1.9 5.35,3.05q5.2,2.05 9.45,0.7q4.25,-1.45 5,-5.45q0.75,-4.05 -2.4,-8.35l-2.75,-2.95l25.35,15.45l-16.95,13.5l-24.55,-13.1l0.3,-0.55q-51.3,-7.15 -78.75,-28.35q-12.3,-9.45 -19.75,-21.7l-0.75,-1.2l-0.25,1.6l-0.9,0.35l-29.15,-19.8l1.65,-0.15q20.95,-1.65 40.75,-4.3q-19.8,2.65 -40.75,4.3q-18.95,-5.45 -28.3,-18.2q-5.55,-7.5 -7.7,-17.55l0.8,0.3q5.2,2.05 9.45,0.7q4.25,-1.45 5,-5.45l0,-0.1l2.55,3.95l-0.85,-0.1l0.85,0.1q17,24.25 58.95,32.05q39.35,-5.3 74.05,-14.6l2,-0.55l6.6,-1.85l2.45,-0.7l-6.45,2.15q-1.25,2.95 -2.1,6q-3.7,2.45 -6.95,5.45m37.1,-9.05l0.05,-0.15q0.25,-1.25 0.8,-2.4l0,-0.1l0.15,-0.65l0.45,-1l0.4,-3.45l11.25,5l-13.1,2.75m-8.75,68.3l-0.6,-0.25l-0.55,-0.2l0.05,-0.05l0.05,-0.15l1.05,0.65m-178.5,-106.7l-1.25,0.3q-4.25,1.45 -4.95,5.45q-0.75,3.65 1.85,7.6l-4.35,-0.05l-9.5,-16.45l18.2,3.15"/>
   <path id="svg_46" fill-rule="evenodd" fill="#696765" d="m127.25,24.85q17.25,-6.1 35.4,-11.35l12,-3.35l-3.7,3.65l0,1.15l0.4,0.6l5.5,0.75q3.95,-0.35 7.85,-0.1l3.95,-0.65q3.5,-0.8 6.45,-2.35l0.05,-0.2l0.2,-0.05l0.85,-1.95l0.05,-0.1l0.15,-0.1l0.2,-0.1l0.35,-0.4q1.2,-0.7 2.6,-1.15q3.3,-1.1 5.55,-3.6l0.35,-0.1l0.3,-0.25l4,-2.15l1.6,-1.1l0.1,-0.4l0.3,-0.45l13.1,-2.75l-12.25,27.15q-3.5,-1.35 -8.05,-1.6q-20,-1.25 -59.9,18.6q-9.7,-7.95 -17.4,-17.65m-62.95,-6.3l-1.65,0.15l4.55,30.85q-33.15,-16.85 -43.15,-43.2l0.65,-6.75l-15.3,-1l6.4,-22.6l4.35,0.05l0.5,0.75l0.8,1.05q2.15,2.45 5,4.05l1.85,0.9q2.15,10.05 7.7,17.55q9.35,12.75 28.3,18.2m27.5,19.95l0.9,-0.35l0.25,-1.6l0.75,1.2q7.45,12.25 19.75,21.7q27.45,21.2 78.75,28.35l-0.3,0.55l-3,16.8l0.6,0.5q-79.9,-12.15 -99.85,-38.55l-1.25,-1.8l3.7,-23.5l-0.3,-3.3m112.75,-14.6q1.95,-11.1 5.2,-20.85q-3.25,9.75 -5.2,20.85m11.9,77.55l16.95,-13.5l-4.15,24.2l-15.3,13.65l2.5,-24.35m-190,-119.55l-1.75,17.7l1.75,-17.7"/>
   <path id="svg_47" fill-rule="evenodd" fill="#8f8c89" d="m62.65,18.7l29.15,19.8l0.3,3.3l-3.7,23.5l1.25,1.8l-22.1,-15.15l-0.35,-2.4l-4.55,-30.85m126.85,86.95l-0.6,-0.5l3,-16.8l24.55,13.1l-2.5,24.35l-24.45,-20.15m-183.2,-146.1l9.5,16.45l-6.4,22.6l-9.4,-17.9l6.3,-21.15"/>
   <path id="svg_48" fill-rule="evenodd" fill="#eecce6" d="m191.1,83.3l-0.8,-1.05q-3.15,-4.35 -2.35,-8.35q0.7,-4 4.95,-5.45l1.2,-0.3q3.55,-0.75 7.75,0.8l0.55,0.2l0.6,0.25l0.3,0.1l-0.1,0.05l-1.85,0.4l-0.45,0.15q-9.1,2.8 -9.8,13.2m-166.6,-120.6q3.75,-0.8 8.25,1l0.9,0.35q-2.3,0.4 -4.1,1.2q-6.75,2.9 -7.9,10.8l-0.2,1.8l-0.8,-1.05l-0.5,-0.75q-2.6,-3.95 -1.85,-7.6q0.7,-4 4.95,-5.45l1.25,-0.3"/>
   <path id="svg_49" fill-rule="evenodd" fill="#cf71b2" d="m193.4,85.5l-2.3,-2.2q0.7,-10.4 9.8,-13.2l0.45,-0.15l1.85,-0.4l0.1,-0.05q2.6,1.15 4.75,3l2.75,2.95q3.15,4.3 2.4,8.35q-0.75,4 -5,5.45q-4.25,1.35 -9.45,-0.7q-3,-1.15 -5.35,-3.05m-171.95,-107.65l0.2,-1.8q1.15,-7.9 7.9,-10.8q1.8,-0.8 4.1,-1.2q4.55,2 7.5,5.95q3.1,4.25 2.4,8.25l0,0.1q-0.75,4 -5,5.45q-4.25,1.35 -9.45,-0.7l-0.8,-0.3l-1.85,-0.9q-2.85,-1.6 -5,-4.05"/>
   <path id="svg_50" stroke-width="0.05" stroke-linejoin="round" stroke-linecap="round" stroke="#875f79" fill="none" d="m92.95,36.55l0.75,1.2q7.45,12.25 19.75,21.7q27.45,21.2 78.75,28.35m1.9,-19.65q-29.1,-8.9 -49.45,-25.65q-9.7,-7.95 -17.4,-17.65m-83.7,-46.6l2.55,3.95m-17.8,0.6q2.15,10.05 7.7,17.55q9.35,12.75 28.3,18.2m40.75,-4.3q-41.95,-7.8 -58.95,-32.05"/>
   <path id="svg_51" stroke-width="0.05" stroke-linejoin="round" stroke-linecap="round" stroke="#21201f" fill="none" d="m192.2,87.8l1.2,-2.3l-2.3,-2.2l-0.8,-1.05q-3.15,-4.35 -2.35,-8.35q0.7,-4 4.95,-5.45l1.2,-0.3m-105.7,-2.85l1.25,1.8q19.95,26.4 99.85,38.55m2.4,-17.3l0.3,-0.55m10.8,-18.4l-0.6,-0.25l-0.55,-0.2q-4.2,-1.55 -7.75,-0.8m8.9,1.25l-1.05,-0.65l-0.05,0.15l-0.05,0.05m1.45,0.55l-0.3,-0.1m-9.6,16.1q2.35,1.9 5.35,3.05q5.2,2.05 9.45,0.7q4.25,-1.45 5,-5.45q0.75,-4.05 -2.4,-8.35l-2.75,-2.95q-2.15,-1.85 -4.75,-3m30.1,18.45l-25.35,-15.45m-174.4,-108.45l-0.9,-0.35q-4.5,-1.8 -8.25,-1l-1.25,0.3q-4.25,1.45 -4.95,5.45q-0.75,3.65 1.85,7.6l0.5,0.75l0.8,1.05q2.15,2.45 5,4.05l1.85,0.9l0.8,0.3q5.2,2.05 9.45,0.7q4.25,-1.45 5,-5.45l0,-0.1m-9.9,-14.2q4.55,2 7.5,5.95q3.1,4.25 2.4,8.25m23.65,71.3q-33.15,-16.85 -43.15,-43.2l0.65,-6.75l-15.3,-1l-9.4,-17.9m24.7,18.9l1.75,-17.7"/>
   <path id="svg_52" stroke-width="0.05" stroke-opacity="0.701961" stroke-linejoin="round" stroke-linecap="round" stroke="#302f2d" fill="none" d="m190.15,-3.45l-2.45,0.7l-6.6,1.85l-2,0.55q-34.7,9.3 -74.05,14.6q-19.8,2.65 -40.75,4.3l-1.65,0.15l4.55,30.85l0.35,2.4l22.1,15.15m135.2,-68.75l-11.25,-5m-9.05,30.55q4.55,0.25 8.05,1.6l12.25,-27.15m-20.3,25.55q-20,-1.25 -59.9,18.6"/>
   <path id="svg_53" stroke-width="0.05" stroke-opacity="0.701961" stroke-linejoin="round" stroke-linecap="round" stroke="#d9d6d6" fill="none" d="m209.75,3.05q-3.25,9.75 -5.2,20.85m-158.45,-41.7q100.6,12.8 138.5,13l0.05,0l1.45,0l8.95,-0.3m6.85,74q-0.9,-24.75 2.65,-45m-158.45,-41.7l-0.85,-0.1"/>
   <path id="svg_54" stroke-width="0.05" stroke-linejoin="round" stroke-linecap="round" stroke="#21201f" fill="none" d="m189.5,105.65l-0.6,-0.5m25.05,20.65l15.3,-13.65l4.15,-24.2m-43.9,17.7l24.45,20.15m-189.45,-163.1l-18.2,-3.15"/>
  </g>
 </defs>
 <g>
  <title>background</title>
  <rect fill="none" id="canvas_background" height="235" width="247" y="-1" x="-1"/>
 </g>
 <g>
  <title>Layer 1</title>
  <g id="svg_55">
   <use x="108.050003" y="195.5" id="svg_56" xlink:href="#shape0" width="381" transform="matrix(1,0,0,1,-192.55,-294) " height="381"/>
   <use x="76.241888" y="137.948067" xlink:href="#sprite0" width="100" transform="matrix(1.4172,0,0,1.4172,-99.65,-163.6) " id="_mcMask" height="40"/>
   <use x="-5.896226" y="-1.965409" id="svg_57" xlink:href="#sprite1" width="472.7" transform="matrix(-0.5088000000000003,0,0,0.5088000000000003,239.0500030517578,2.1595000000000084) " height="450.65"/>
  </g>
 </g>
</svg>