<svg width="112" height="211" xmlns="http://www.w3.org/2000/svg" xmlns:xlink="http://www.w3.org/1999/xlink">
 <defs>
  <g transform="matrix(1,0,0,1,192.55,294) " id="shape0">
   <path id="svg_1" stroke-opacity="0" stroke-linejoin="round" stroke-linecap="round" stroke="#ff00ff" fill="none" d="m187.95,-293.5l0,380l-379.95,0l-0.05,0l0,-380l380,0"/>
   <path id="svg_2" stroke-opacity="0" stroke-linejoin="round" stroke-linecap="round" stroke="#ff00ff" fill="none" d="m187.95,-293.5l-190,190l190,190m-380,-380l190,190l-189.95,190"/>
   <path id="svg_3" stroke-opacity="0" stroke-linejoin="round" stroke-linecap="round" stroke="#ff00ff" fill="none" d="m92.95,-38.4l-189.95,0"/>
  </g>
  <g id="shape1">
   <path id="svg_4" fill-rule="evenodd" fill="#4d4d0d" d="m103.1,277.8l8.7,-0.75q5.95,0.05 11.45,2.1q5.7,2.15 9.7,6.65l-0.1,0.65l8.55,1.9l-2.2,0.8l-6.9,1.35q-4.6,0.6 -9.3,-0.2l0.85,0.35l0.7,0.45l0.65,0.55l0.5,0.65l0.75,1.35l0.15,0.45l0.25,0.9q-9.45,5.05 -20.05,5.1l6.7,-1.7l-32.75,-3.65l-20.45,-0.9l4.55,-2.55q-5.7,1.35 0.15,-2.95q5.85,-4.35 -28.5,-1.75l0.85,-0.85l0.9,-0.8q0.45,-0.35 1,-0.55q1.35,-0.7 2.85,-1.15l3.15,-0.65l-9.9,-1.8q-35.4,-0.35 -2.75,-2.15q32.6,-1.85 34.9,-5.3q2.35,-3.45 36.8,3.4l-1.2,1.05"/>
   <path id="svg_5" fill-rule="evenodd" fill="#666600" d="m115.8,296.6l3.35,0.8q-3.4,1.6 -7.2,2.35q-7.95,1.2 -14.9,-2.85l11.9,0.1l-7.2,-0.9l14.05,0.5m-60.6,-14.9q-4.1,1.1 -8,-0.5l2,-0.45q3.95,-0.75 8,0.45l-2,0.5m15.6,2.5l-2.25,0.75q-9.35,3.1 -18.55,-0.75q10.45,-3.65 20.8,0"/>
   <path id="svg_6" fill-rule="evenodd" fill="#3e3e0b" d="m86.75,290.7l-0.3,-0.1l-0.95,-0.2l-0.9,-2.15q-3.45,1.15 -7.05,1q-2.75,-0.05 -5.2,-0.95l-3.55,-1.3l6.25,-1.15l6.3,-0.55l-2.15,-2.1l-23.2,-4q127.6,-2.35 67.2,1l-6.2,2l17.8,1.8l-11.6,1.5l3.45,0.9q1.65,0.45 3.25,1.2l0.85,0.7l0.25,0.4l0.15,0.55l-1,0.9l-2.3,1.2l-1.45,0.35l-5.5,0.75l7.1,0.95l-5.75,0.7l-15,0l-7.7,-1.15l2.45,0.85l-1.1,0.3q-8.85,2.45 -17.85,0.85l-2.3,-0.5l-2.35,-0.65l4.25,-0.75l12.75,-0.5l-8.65,-1.85m-0.5,-1.6l4.5,0l-4.5,0m8.3,-3.9l5.4,-0.55l-3.75,-0.6l-1.65,1.15m19.6,0.4l4.5,0l-4.5,0m12.95,5.5l-8.95,0l8.95,0m-47.35,-4l3.5,0l-3.5,0"/>
   <path id="svg_7" stroke-width="0.05" stroke-linejoin="round" stroke-linecap="round" stroke="#666600" fill="none" d="m86.45,290.6l0.3,0.1m-0.3,-0.1l-13.65,0m17.95,-1.5l-4.5,0m32.4,-3.5l-4.5,0m4,5.5l8.95,0m-59.8,-13.95l-5,0m-4.95,4.95l4.45,0m21.45,5l-3.5,0"/>
   <path id="svg_8" fill-rule="evenodd" fill="#a39550" d="m123.25,82.2l1.15,2.2l1.7,3.3l0.4,1.4l1.95,6.55l0.95,1.35l4.8,3.2l3,7l1.8,1.2l0,2.2l-1.1,1.9l-0.4,2.5l1.1,2.3l-0.3,4.8l-4.1,-1.65l-4.55,-3.4l-2.2,-7.9l-3.4,-8.45l-12.7,-9.9l-2.85,-11.35l-0.25,1.7l-0.05,-0.35l0.3,-1.35l-0.3,1.35l-0.35,1.65l-1.8,-1.4l-0.35,2.6q-7.45,0.85 -8.9,5.7q-1.8,4.95 -2.45,9.9l-7.5,4.7l-1.55,0.1l-2.65,-3.15l1.75,-10.9q5.4,-5.75 13.2,-8.75q0,-3.05 5.4,-6.65l-8.05,3.25l-1.2,-3l0.75,-7.45l0.6,-5.6q-0.1,-1.65 0.2,-0.65l0.95,4.85l2.4,-4.2l0.9,2.8l0.15,0.95l0.55,3.2l2.5,2.15l0.8,0.05l1.35,1.65l3,0.45l2.7,2.7l1.65,-0.45l2.6,0.85l3.4,3.75l2.6,0.6l2.35,1.65l0.05,0.05m10.5,57.85l2.45,3.55l0.6,1.2l0.8,0.5l2.2,5.3l0.1,2l1.6,3.25l1.8,5.95l0.1,3.9l-0.7,0.1l-1.4,-4l-0.15,-0.15l-0.9,-3.95l-3.3,0.65l-0.25,0l-0.5,-0.05l-0.1,8.7l-1,3.3l-2.6,3.3l-0.5,-0.6l0.35,-3.75l1,-2.4l-0.95,-6l-3.1,0.85l-0.9,-0.3l-1,0.8l-0.8,2.15l-0.75,-3.05q1.45,-7.45 -1.45,-13.4l1.3,-4.75q3.65,-5.3 7.5,-3.95l0,0.1l0.55,0.75m-32,66.25l-1.8,7.3l-0.6,0.5l-0.15,0.55l0.25,0.5l-4.15,11.9l0,0.5l1.25,6.5l8.5,15.55l5.75,13l0,11.75l-1,15.55l-5.6,2l-3.95,-5.6l-1.15,-22l-6.65,-25.45l-6.7,-2.15q5.85,-0.75 16,-30.4m-15.8,-169.25l0.55,0.3l0.2,1.1l-0.5,0.65l-1.05,-1.1l-0.05,-0.05l0.65,-1l0.2,0.1m-0.1,2.45l-0.05,0.05l-0.05,-0.05l-0.75,-0.05l-0.65,0.65l-0.95,-1l0,-0.15l0.4,-0.75l0.65,-0.15l0.65,-0.15l0,0.05l0.05,0.05l0.6,1.5l0.1,0m-8.8,-5.9l0.45,-0.15l0.7,0.7l-0.55,1.8l-1.2,0.9l-0.75,-0.35l-0.1,-0.55l2.3,-2l-0.85,-0.35m2.45,5.05l0.4,-0.4l1.85,0.55l0.25,1.15l0.1,0.5l-0.3,0.35l-0.65,0.1l-1,-0.8l-0.65,-1.45m2.8,2.2l0.05,-0.35l0,-0.1l0.5,-0.1l0.95,0.8l0.15,0.75l-0.75,0.05l-0.9,-1.05m-3.45,-0.9l-0.1,0.2l-0.75,0.1l-0.55,-0.55l-0.05,-0.1l0.3,-0.25l0.3,-0.3l0.85,0.9m29.1,38.75l0.25,2.1l-0.25,-2.1m-26.35,-25.7l-0.75,0.05l0.7,-0.25l0.05,0.2m17.05,8.8l1.05,3.75l-1.05,-3.75m-2.4,4.2l0.3,1.5l-0.3,-1.5m18.95,13.5l0.25,4.4q8.6,6.95 10.35,12.1l-1,-7.9l-5.15,-6.3l-4.45,-2.3m-4.6,-3.75l-0.7,0.15l0.7,-0.15m-76.8,9.9l3.6,1.4l1.85,2.3l2.15,1.15l0.65,0.5l1.3,3.3l2.2,2.25l1.2,0.8l2,4.55l2.45,2.05l-4.65,-2.25l-3.35,-4.75q-6.35,-4.7 -11.3,-5.4l0.7,1.75l-3.2,-0.65l-4.6,1.6l-2.25,2.7l-4.55,0.05l-5.65,1.25l-0.35,-0.8l1.55,-1.55l3.95,-1.5l4.55,-0.2l4.1,-4.45l-1.2,-0.6l0.7,-0.8l-0.05,-1.35l-0.45,-0.2l6.6,1.65l2.15,-1.1l-0.1,-1.7m-2.95,5.5l-1.45,1.5l1.45,-1.5m24.45,17.9l0.05,-0.05l0,0.05l-0.05,0m-23.4,-17.5l-0.15,-0.4l0.15,0.4m104.6,27.15q0.85,-11.55 -4.85,-16.35l-4.2,-4.15l1.55,3.45q4.25,10.6 4.4,10.05l3.1,7m-7.85,29.45l1.7,9.05l-1.15,-13.2l-0.55,4.15m2.7,-2.8l3.15,7.1l3,3.35l-6.35,-11.25l0.2,0.8m-31.75,103.6l5.15,14.2l1.65,18.4q2.75,-10.95 1.1,-20.5l-7.9,-12.1"/>
   <path id="svg_9" fill-rule="evenodd" fill="#857643" d="m87.7,36l-0.75,0.35l-0.7,0.2l-0.35,0.1l0,-0.75l1.8,-2.1l-2.25,1.35l-1.15,0.2l-0.8,-0.45l-0.05,-0.85l-0.3,0.15l-0.95,-0.25l0.1,-0.75l-1.15,0.75l-1,-1.45l0.15,-0.35l1.65,0.6l0.75,-0.45l0.75,-0.55l0.5,1.25l0.5,0.35l0.65,0.45l2.95,-0.5l0,0.05l-0.35,0.45l0.35,-0.45l0.55,1.25l-0.95,1.05l0.05,0.35m-1.5,3.1l-0.35,0.4l-0.1,0l0.05,0.05l0.05,0.2l-0.7,0.25l-0.05,1.2l-0.4,0.05l-0.15,-0.2l0.15,0.65l-0.9,1.5l-1.6,-0.6l-0.8,-1.15l-2,-0.3l-2.05,0l-0.65,-0.3l-2.55,2.7l0,-0.1l0.25,-0.5l0.05,-0.05l0.05,-0.15l0.6,-1.25l0,-0.65l0.05,0l0.25,-1.05l-0.7,-0.6l-1.3,-0.55l1.3,0.55l0.7,0.6l-0.25,1.05l-0.05,0l-0.9,0.05l-0.1,0l-0.3,-1.3l-0.7,-0.4l-0.05,-0.05l0.3,-0.55l0.05,0.05l0.05,-1l0.8,-0.9l0.15,-0.1l0.55,1.25l0.5,0.45l0.35,0.35l1.45,0.15l0.45,0.5l-0.3,0.25l0.05,0.1l0.15,0.6l0.65,0.45l0.5,-0.6l-0.5,0.6l-0.65,-0.45l-0.15,-0.6l0.55,0.55l0.75,-0.1l0.1,-0.2l1.15,0.4l1.3,1l0.4,-0.45l-0.4,0.45l-1.3,-1l-0.45,-0.35l-0.1,-0.55l-0.15,-0.65l0.2,-0.15l0.65,1.45l1,0.8l0.65,-0.1l-0.1,0.1l0.55,0.2l0.05,-0.25l0.9,1.05l0.75,-0.05l-0.15,-0.75l0.5,-0.35l-0.85,-1.15l0,-0.05l-0.05,-0.45l0.95,1l0.65,-0.65l0.75,0.05l-0.6,-1.5l1.05,1.1m12.85,1.2l0.1,0.95l0.25,0.35l-2.1,2.4l-0.95,0.4l-2.65,0.15l-2.55,1.55l-1.2,0.05l1.75,-1.65l1.05,-0.15l1.7,-1l1.75,0.35l1.5,-1.35l1.35,-2.05m-20.85,-6.15l1.25,-0.45l0.5,-0.9l0,1.95l-1.3,-0.1l-0.05,1.2l-1.3,2l-1.3,-0.2l-0.3,-1.15l0.75,0.35l1.2,-0.9l0.55,-1.8l0.45,0.45l0,0.05l0,-0.05l-0.45,-0.45m4.5,-1.85l-0.15,0.7l-0.25,0.2l0.25,-0.2l0.15,-0.7m1.75,1.05l-1,0.7l1,-0.7m0.1,7.7l-0.25,-0.3l0.25,0.3m-0.6,0.8l0.05,0.45l-0.85,0.1l-0.9,-1.3l0.9,1.3l0.85,-0.1l-0.05,-0.45"/>
   <path id="svg_10" fill-rule="evenodd" fill="#4d4126" d="m95.2,36l0,0.05l0.4,1.25l0,0.35l-0.1,0.8l-0.75,1.05l-0.65,-0.3l-0.15,-2.05l0.6,-1l0.65,-0.15"/>
   <path id="svg_11" fill-rule="evenodd" fill="#6d6136" d="m95.2,36l0.05,0l0.1,0l0.5,-0.15l0.85,1.9l0,0.05l-1.1,-0.15l0,-0.35l-0.4,-1.25l0,-0.05m-20.1,4.85l0,0.65l-0.6,1.25l-0.05,0.15l-0.15,-1.2l-0.45,-0.7l-0.6,-0.9l-1.15,-0.6l0.3,-0.2l0.7,-0.1l0.7,0.4l0.3,1.3l0.1,0l0.9,-0.05m21.75,81.6l-0.4,-0.4l1.5,-1.6l-0.25,1l-0.65,0.35l-0.2,0.65m-22.65,-81.55l-0.35,0.1l0.35,-0.1m-3.75,18.7l-0.8,0.15l0.05,-1.05l0.7,0.85l0.05,0.05"/>
   <path id="svg_12" fill-rule="evenodd" fill="#4d3e26" d="m86.25,36.55l-0.3,0.5l-0.2,-0.1l-0.65,1l0,-0.05l-0.65,0.15l0.3,-1.55l-1.85,-0.7l-0.55,0.3l-0.9,0.5l0.3,-0.4l-0.2,-0.85l-0.95,0.2l0.2,1.2l-0.55,-0.05l-0.5,-0.45l-0.8,1.05l0.3,0.25l-0.5,0.05l-0.2,0l-0.25,0l-0.6,1l1.75,0.85l0.1,0.55l0.45,0.35l-1.15,-0.4l-0.85,-0.9l-0.3,0.3l-0.45,-0.5l-1.45,-0.15l-0.35,-0.35l0.55,-0.7l1.3,0.2l1.3,-2l0.05,-1.2l1.3,0.1l0,-1.95l0,-0.55l0.2,0.25l1,1.45l1.15,-0.75l-0.1,0.75l0.95,0.25l0.3,-0.15l0.05,0.85l0.8,0.45l1.15,-0.2l2.25,-1.35l-1.8,2.1l0,0.75l0.35,-0.1m-4.25,3.4l1.45,-0.4l0,0.05l0.85,1.15l-0.5,0.35l-0.95,-0.8l-0.5,0.1l0,0.1l-0.05,0.35l-0.05,0.25l-0.55,-0.2l0.1,-0.1l0.3,-0.35l-0.1,-0.5m-10.25,4.35l0,-0.05l0.05,-0.7l0.35,-0.1l-0.35,0.1l0,-0.1l-0.6,-0.4l-0.2,0l0.2,-0.55l-0.6,-0.8l0.6,-1.6l0.9,-0.6l1.15,0.6l0.6,0.9l0.45,0.7l0.15,1.2l-1.5,1.1l-1.2,0.3m-0.55,-1.8l0.85,-0.6l0.55,0.1l-0.55,-0.1l-0.85,0.6m1.4,-0.5l-0.75,0.45l-0.2,0.5l0.5,0.5l0.65,-0.25l0.45,-0.45l0.1,-0.65l-0.75,-0.1m3.15,2.6l-0.15,-0.15l-0.05,-1.3l0.5,-0.05l0.6,0.45l-0.6,0.5l0.2,1.1l-0.5,-0.55"/>
   <path id="svg_13" fill-rule="evenodd" fill="#d8ccb1" d="m126.1,165.6l0.1,0.1l-1.5,4.6l-0.9,0.3l0.4,-3.9l-0.05,-0.4l0.05,0l0.25,-0.1l1.05,-1.3l0.6,0.7m-44.65,-129l-0.6,0.8l-1.35,0.3l-0.25,-0.15l-0.3,-0.25l0.8,-1.05l0.5,0.45l0.55,0.05l-0.2,-1.2l0.95,-0.2l0.2,0.85l-0.3,0.4m-79.7,43.45l0.9,-0.4l1.15,0l-2.8,1.5l-0.15,0.05l-0.85,0.2l0.2,-0.65l1.55,-0.7"/>
   <path id="svg_14" fill-rule="evenodd" fill="#615230" d="m103.1,201l-1.35,5.3q-10.15,29.65 -16,30.4l6.7,2.15l6.65,25.45l1.15,22l3.95,5.6l-2.15,0.75l-4.25,-0.75l-1.25,-7l-6.8,-23.3l-6.25,-17.3l-0.9,-6.5l-0.1,-0.75l-3.75,-8.5l-0.9,-7.1q14.15,-17.2 25.25,-20.45m-24.35,-163.4l0.75,0.6l1.95,-0.45l0.85,-1.1l0.05,-0.55l0.55,-0.3l1.85,0.7l-0.3,1.55l-0.65,0.15l-0.4,0.75l0,0.15l0.05,0.45l-1.45,0.4l-0.25,-1.15l-1.85,-0.55l-0.4,0.4l-0.2,0.15l0.15,0.65l-1.75,-0.85l0.6,-1l0.25,0l0.2,0m11,222.5l0,1.5l0,-1.5m1.25,-20.95l-4.55,1.65l2.9,3.3l1.65,-4.95"/>
   <path id="svg_15" fill-rule="evenodd" fill="#857143" d="m95.6,37.65l1.1,0.15l-0.1,1.75l-1.05,0.35l-0.8,-0.4l0.75,-1.05l0.1,-0.8"/>
   <path id="svg_16" fill-rule="evenodd" fill="#99702c" d="m124.4,84.4l1.75,-1.15l2.3,-3.05l-0.5,4.85l-1.45,4.05l-0.4,-1.4l-1.7,-3.3m-24,-41l2.45,1.15l-0.45,2.85l-2.35,-0.5l-1.1,-0.5l0.6,-1l-0.9,0.25l1.05,-1.55l0.7,-0.7"/>
   <path id="svg_17" fill-rule="evenodd" fill="#efdecb" d="m88.65,51.5l-0.85,2l-2.2,2.4l-0.35,-0.7l0.4,-2.4l-0.25,-1.4l1.15,-0.45l2.1,0.55m-5.8,0.85l-0.75,2.15l-0.45,-0.25l-0.05,-1.25l-0.05,-0.2l1.3,-0.45m-4.9,1.45l-0.7,1.9l-0.55,-0.35l-0.45,-2.15l1.7,0.6m-2.75,-0.9l-0.35,1.3l-0.4,0.85l-0.65,-0.15l-0.45,-1.45l1.65,-0.65l0.2,0.1m-6.55,6.4l0.15,0.1l0.1,0.05l0.6,-0.95l1.05,-1.65l0.2,1.1l0.75,1.4l0.05,0.15l0.05,0.7l-1.15,-0.6l-0.05,-0.05l-0.7,-0.85l-0.2,-0.2l0.2,0.2l-0.05,1.05l-0.05,0.75l-0.7,-0.25l-0.2,-0.75l-0.05,-0.2"/>
   <path id="svg_18" fill-rule="evenodd" fill="#c2af5f" d="m91.65,33.4l-0.95,0.75l-0.65,-3.2l1.3,0.55l0.3,1.9m-2.6,-3.4l-1.45,0.25l-0.7,-0.7l-0.2,-0.2l-0.05,-0.7l2,0.2l0.4,1.15m-6.5,-0.5l-1.85,-0.1l-0.35,1.3l-1.2,0.65l0.2,-1.2l1.4,-1.4l0.35,0.05l1.15,0.15l0.3,0.55m32.65,50l4.45,2.3l5.15,6.3l1,7.9q-1.75,-5.15 -10.35,-12.1l-0.25,-4.4m-38.85,-45l0.6,-0.85l0.1,-0.05l0.85,0.35l-2.3,2l-0.1,-0.3l0.85,-1.15m-45.55,49.35l1.25,1.1l1.75,0.7l0.1,1.7l-2.15,1.1l-6.6,-1.65l-12.85,-5.3l-5.1,-0.8l-4.95,0.9l-1.25,-0.45l2.8,-1.5l0.6,-0.05l2.65,-0.35l1.15,-0.2l1.2,0.1l12.65,0.7l1.9,0.9l4.5,2l1.5,0.65l0.65,0.3l0.15,0.1l0.05,0.05m-10.25,8.55l2.15,-0.8l2.25,-2.45l1.2,0.6l-4.1,4.45l-4.55,0.2l-3.95,1.5l2.05,-2.2l2,-0.3l2.95,-1m115.95,26.3l-3.1,-7q-0.15,0.55 -4.4,-10.05l-1.55,-3.45l4.2,4.15q5.7,4.8 4.85,16.35m-36.9,130.25l7.9,12.1q1.65,9.55 -1.1,20.5l-1.65,-18.4l-5.15,-14.2"/>
   <path id="svg_19" fill-rule="evenodd" fill="#816c41" d="m71.8,43.55l-0.05,0.05l0.05,-0.15l0,0.1"/>
   <path id="svg_20" fill-rule="evenodd" fill="#965c25" d="m101.35,154.15l0.15,0.15l0.4,-0.1l-0.1,2.1l0.5,2.6l0.95,0.75l0.95,0.55l1.2,-0.3l0.1,0.7l-0.25,0.9l-0.15,-0.1l-4.75,-2.4l0.25,-2.4l0.75,-2.45m1.65,-0.2l0.5,-0.15l0.25,-0.5l1.25,2.6l0.2,2.15l-0.25,-0.2l-1.15,0.35l-0.25,0.3l-0.55,-2.5l0,-2.05"/>
   <path id="svg_21" fill-rule="evenodd" fill="#9b5733" d="m106.85,184.25l0.1,2.8l-0.8,1.55l0.2,1.7l-0.6,1.4l-1.7,1l-0.2,0l-2.15,0l-1.9,-0.8l1.05,-1.15l2.1,0.55l1.75,-0.3l0.4,-2.05l-0.4,0.1l-0.6,-0.55l0.9,-0.5l0.9,-0.7l-0.05,-2l1,-1.05m-35.75,-58.7l-0.3,0.25l-0.05,-0.65l0.35,0.4m7.15,16.25l0.6,0.8l-0.25,0.8l-0.35,-1.6m23.4,9.05l0.85,-0.25l0.3,-0.1l0.3,-0.6l0,1.8l-0.8,0.9l-0.45,0.05l-0.35,0.05l-0.65,-0.6l0.8,-1.25m0.85,-0.25l-0.65,2.05l0.65,-2.05m3.65,38l-1.05,0.35l1.05,-0.35"/>
   <path id="svg_22" fill-rule="evenodd" fill="#e8e2a8" d="m138.45,123.05l2.45,0.9l0.95,-0.95l2.45,0.85l3.8,-3.7l0,0.05l-3.2,6.85l2.7,2.85l0.4,1.7l-0.05,0.15l-1.7,3.5l-5.65,-0.65l-7.95,-5.8l0,-4.05l1.35,-2.05l0.75,-0.6l0.35,-0.3l3.35,1.25m-25.85,43.7l6.7,6.05l10.2,13.6l-4.05,0.9l-28.55,-25.85l-0.6,-4.5l4.05,2.05l4.75,2.4l0.15,0.1l0.85,0.6l1.1,0.75l4.1,2.75l1.3,1.15m28.3,-42.8l1.55,0.6l2.45,2.5l-2.45,-2.5l-1.55,-0.6"/>
   <path id="svg_23" fill-rule="evenodd" fill="#55482b" d="m102.75,55.3l-0.85,5.2l0.2,2.9l-1.45,-1.6l-2.75,-4.45q-2.45,-2 -5.95,-2.4q-3.75,0.95 -3.75,1.15l-5.05,3.2l-0.4,-0.6l-1.35,-0.45l-2.05,-2.15l-6.3,0.5l-1.95,-0.7l1.3,-2.1l0.95,-0.35l0.45,1.45l0.65,0.15l0.4,-0.85l0.35,-1.3l1.05,0.3l0.45,2.15l0.55,0.35l0.7,-1.9l1.8,0.55l1.1,-1.3l0.75,-0.05l0.05,1.25l0.45,0.25l0.75,-2.15l2.55,-0.95l0.25,1.4l-0.4,2.4l0.35,0.7l2.2,-2.4l0.85,-2l0.75,0.2l-0.4,-0.9l1.2,0.9l1.6,-0.1l0.3,-0.05l1.85,1.95l1.4,-0.6l3.2,0l4.2,2.4m-21.4,1.2l1.4,2.2l-1.4,-2.2"/>
   <path id="svg_24" fill-rule="evenodd" fill="#614e30" d="m71.1,55.9l1.95,0.7l6.3,-0.5l2.05,2.15l-1.95,-0.65l-4.3,-0.1l-2.25,1.35l-1.35,0.65l-0.05,-0.15l-0.75,-1.4l-0.2,-1.1l0.55,-0.95"/>
   <path id="svg_25" fill-rule="evenodd" fill="#765434" d="m103.9,55.9l-0.2,-0.05l-0.95,-0.55l-4.2,-2.4l-3.2,0l-1.4,0.6l-1.85,-1.95l-0.3,0.05l0.4,-0.6l2,0.6l-0.35,-0.5l1.8,0.45l1.2,0.65l2.4,0.25l4.65,3.45m-29.45,-13l-0.05,0.05l-0.25,0.5l0,0.1l-0.25,0.45l-1.85,4.25l-0.25,-2.7l-0.9,1l0.9,-1l0.25,2.7l-0.9,2.25l-0.15,0.3l-0.6,1.7l0,0.05l-0.4,1l-1.55,0.45l-10,5.9l4.35,-3.3l4.25,-2.3l2.55,-2.05l-0.75,-0.45l-5.2,0.15l3.3,-0.7l2.5,-0.15l1.4,-0.7l0.05,0l-0.4,-1.3l0.35,-2.45l0.05,-0.1l0.85,-2.25l1.2,-0.3l1.5,-1.1m-6,13.4l-0.45,0.6l0.1,0.55l-0.3,0.15l-1.5,0.7l-1.85,0.3l-2.65,1l2.3,-1.4l2.35,-0.8l2,-1.1m2.55,-5.5l-0.1,-0.4l0.1,0.4"/>
   <path id="svg_26" fill-rule="evenodd" fill="#9e7b41" d="m84.7,41.7l0.1,0.5l-0.45,1.8l-0.05,0.25l0.35,1.95l2.1,1.7l2.9,0.95l1.3,0.4l2.45,1.15l0.45,0.7l0.35,0.5l-2,-0.6l-0.4,0.6l-1.6,0.1l-1.2,-0.9l0.4,0.9l-0.75,-0.2l-2.1,-0.55l-1.15,0.45l-2.55,0.95l-1.3,0.45l-0.7,0.25l-1.1,1.3l-1.8,-0.55l-1.7,-0.6l-1.05,-0.3l-0.2,-0.1l-1.65,0.65l-0.95,0.35l-1.3,2.1l-0.55,0.95l-1.05,1.65l-0.6,0.95l-0.1,-0.05l-0.15,-0.1l-0.35,-0.25l-0.2,-1.6l-0.1,-0.55l0.45,-0.6l1.15,-1.65l0.05,-0.05l0.35,-1.05l0.4,-1l0,-0.05l0.6,-1.7l0.15,-0.3l0.9,-2.25l1.85,-4.25l0.25,-0.45l2.55,-2.7l0.65,0.3l2.05,0l2,0.3l0.8,1.15l1.6,0.6l0.9,-1.5m-0.65,5.9l-1.1,-0.9l-0.6,-2.25l-1.85,-2.2q-3.1,3.95 -2.95,6.7q1.2,1.2 4.6,0.55l6.1,-0.3l-4.2,-1.6m-7.4,-4.05l-0.6,-0.45l-0.5,0.05l0.05,1.3l0.15,0.15l0.3,1.2l1.3,-0.15l0.15,-1.3l-0.4,-0.3l-0.45,-0.5"/>
   <path id="svg_27" fill-rule="evenodd" fill="#b68e4e" d="m84.05,47.6l4.2,1.6l-6.1,0.3q-3.4,0.65 -4.6,-0.55q-0.15,-2.75 2.95,-6.7l1.85,2.2l0.6,2.25l1.1,0.9"/>
   <path id="svg_28" fill-rule="evenodd" fill="#8d6d3a" d="m75.75,44.6l0.5,0.55l-0.2,-1.1l0.6,-0.5l0.45,0.5l0.4,0.3l-0.15,1.3l-1.3,0.15l-0.3,-1.2m1.35,0.65l-0.85,-0.1l0.85,0.1"/>
   <path id="svg_29" fill-rule="evenodd" fill="#b89e76" d="m72.15,43.45l-0.5,-0.5l0.2,-0.5l0.75,-0.45l0.75,0.1l-0.1,0.65l-0.45,0.45l-0.65,0.25"/>
   <path id="svg_30" fill-rule="evenodd" fill="#73623c" d="m89.15,30.2l0.9,-0.95l0.15,-1.2l1.35,0.45l0.65,2.35l2.55,1.4l1.65,0.4l3,4.45l0.15,4.65l-0.15,-0.15l-0.25,-0.35l-0.1,-0.95l-0.25,-2.2l-1.1,-1.95l-1.25,-0.35l-1.4,-0.6l1.4,0.6l1.25,0.35l1.1,1.95l0.25,2.2l-1.35,2.05l-1.5,1.35l-1.75,-0.35l-1.7,1l-1.05,0.15l-1.75,1.65l-2.5,0.15l-0.05,0.25l2.25,2.3l-2.9,-0.95l-2.1,-1.7l-0.35,-1.95l0.05,-0.25l0.45,-1.8l-0.1,-0.5l-0.15,-0.65l0.15,0.2l0.4,-0.05l0.05,-1.2l0.7,-0.25l-0.05,-0.2l0.05,-0.05l0.35,-0.4l0.5,-0.65l-0.2,-1.1l-0.55,-0.3l0.3,-0.5l0.7,-0.2l0.75,-0.35l0.2,-0.1l3,-0.1l1.65,-2.1l-0.25,-1.85l-1.6,-1.55l-1.35,0.25l-0.1,0l-0.1,-0.35m0.4,14.4l-5.2,-0.6l5.2,0.6m2.95,-8.4l0.75,-0.95l0.85,-0.5l0.95,0.45l-0.9,0.2l-0.4,0.5l0.4,-0.5l0.9,-0.2l-0.95,-0.45l-0.85,0.5l-0.75,0.95m4.2,1.6l0,-0.05l-0.85,-1.9l-0.5,0.15l-0.1,0l-0.05,0l-0.65,0.15l-0.6,1l0.15,2.05l0.65,0.3l0.8,0.4l1.05,-0.35l0.1,-1.75m-21.25,0.55l-0.5,-0.45l-0.55,-1.25l-0.15,0.1l-0.35,0.2l0.05,-0.15l0.4,-1.55l0.35,-0.2l0.35,-0.2l0.4,-0.25l0.9,-0.1l-0.85,1.15l0.1,0.3l0.1,0.55l0.3,1.15l-0.55,0.7m14.95,6.35l1.3,-0.2l-1.3,0.2m5.95,-4.3l0.25,-0.15l0.65,-1.45l0,-1.05l-0.8,-1.95l0.8,1.95l0,1.05l-0.65,1.45l-0.25,0.15m-1.9,0.15l0.2,0.15l0.95,0.05l0.4,-0.2l-0.4,0.2l-0.95,-0.05l-0.2,-0.15m-1,-1.5l0.1,0.25l-0.1,-0.25m-0.3,-1.6l0.05,0.45l-0.05,-0.45"/>
   <path id="svg_31" fill-rule="evenodd" fill="#8c7748" d="m100.45,49.55l-0.75,0.2l1.2,1.2l3,0.3l2.75,1.3l-3.95,-0.9l-5.6,-0.4l2.45,0.5l5.05,3.45l2.95,0.8l1.8,1.9l-3.3,-1.7l-1.9,-0.3l-0.25,0l-4.65,-3.45l-2.4,-0.25l-1.2,-0.65l-1.8,-0.45l-0.45,-0.7l-2.45,-1.15l-1.3,-0.4l-2.25,-2.3l0.05,-0.25l2.5,-0.15l1.2,-0.05l2.55,-1.55l2.65,-0.15l0.95,-0.4l-1,1.15l-2.85,1.2l4.1,-0.15l-1.05,1.25l2.7,0.15l-1.2,0.75l2.45,1.2m-5.9,-0.15l0.8,-0.15l3,1.4l2.55,0.3l-2.55,-0.3l-3,-1.4l-0.8,0.15"/>
   <path id="svg_32" fill-rule="evenodd" fill="#aa9259" d="m89.15,30.2l0.1,0.35l0.1,0l1.35,-0.25l1.6,1.55l0.25,1.85l-1.65,2.1l-3,0.1l-0.2,0.1l-0.05,-0.35l0.95,-1.05l-0.55,-1.25l0,-0.05l-2.95,0.5l-0.65,-0.45l-0.5,-0.35l-0.5,-1.25l-0.75,0.55l-0.75,0.45l-1.65,-0.6l-0.15,0.35l-0.2,-0.25l0,0.55l-0.5,0.9l-1.25,0.45l-0.7,-0.7l-0.45,0.15l0.25,-0.8l0.8,-0.15l0.05,-0.8l0.95,-0.3l0.05,-0.2l1.2,-0.65l0.35,-1.3l1.85,0.1l0.45,0.85l0,0.05l-0.3,1.9l0.3,-1.9l0,-0.05l-0.45,-0.85l-0.3,-0.55l-1.15,-0.15l0.55,-1.1l2.8,-0.7l2.15,1.3l0.05,0.35l0.05,0.7l0.2,0.2l0.7,0.7l1.45,-0.25l0.1,0.2m2.5,3.2l-0.3,-1.9l-1.3,-0.55l0.65,3.2l0.95,-0.75m7.75,8.2l0.15,0.15l0.3,0.35l1.35,-0.4l2.05,-0.3l-1.55,0.75l-1.3,1.25l-0.7,0.7l-1.05,1.55l0.9,-0.25l-0.6,1l1.1,0.5l2.35,0.5l1.15,0.2l-3.35,1.3l0.7,0.5l-0.45,0.15l-2.45,-1.2l1.2,-0.75l-2.7,-0.15l1.05,-1.25l-4.1,0.15l2.85,-1.2l1,-1.15l2.1,-2.4m-14.9,-13.85l-1.1,1.2l-0.4,1.4l0.4,-1.4l1.1,-1.2m1.05,4.9l-1.1,0.7l1.1,-0.7m3.65,-0.9l-1.1,1.55l-0.05,0.05l0.05,-0.05l1.1,-1.55m-3,-0.85l-0.3,1.1l0.3,-1.1"/>
   <path id="svg_33" fill-rule="evenodd" fill="#754f22" d="m74.25,36.75l-0.8,0.9l-0.05,1l-0.05,-0.05l-0.3,0.55l0.05,0.05l-0.7,0.1l-1,-3.15l1.2,0.95l0.5,-0.65l-0.1,-3.35l1,0.8l0.7,1.15l-0.35,0.2l-0.4,1.55l-0.05,0.15l0.35,-0.2"/>
   <path id="svg_34" fill-rule="evenodd" fill="#896438" d="m68.1,57.45l0.2,1.6l0.35,0.25l0.05,0.2l-2.5,2.15l-1.2,0.3l-4.2,2.1l-1.35,0l-2.2,0.75l-2.4,-0.2l0.95,0l3.9,-1.2l2.15,-1.05l3.25,-1.1l2,-1.8l0.7,-1.85l0.3,-0.15"/>
   <path id="svg_35" fill-rule="evenodd" fill="#d9803e" d="m82.35,36.1l-0.05,0.55l-0.85,1.1l-1.95,0.45l-0.75,-0.6l0.5,-0.05l0.25,0.15l1.35,-0.3l0.6,-0.8l0.9,-0.5"/>
   <path id="svg_36" fill-rule="evenodd" fill="#514428" d="m141.15,161.65l-3.35,-3.25l-0.85,-0.05l3.3,-0.65l0.9,3.95m-8.8,7.6l0.25,-2.55l-1.8,-4.5l-1.5,-0.5l3.1,-0.85l0.95,6l-1,2.4"/>
   <path id="svg_37" fill-rule="evenodd" fill="#817241" d="m138.3,122.1l0.15,0.95l-3.35,-1.25l-0.35,0.3l-3.65,-2.4l-3.7,1.4l-0.5,1.5l2.5,3.9l1.65,1l-0.15,1.7l2.2,2l-0.1,0.8l-1,1.7l1.2,5.5q-3.85,-1.35 -7.5,3.95l-1.3,4.75q2.9,5.95 1.45,13.4l0.75,3.05l-0.5,1.25l-0.6,-0.7l-1.05,1.3l-0.25,0.1l-0.05,0l0,-0.1l-1,-8.6l-0.85,-3.4l-0.9,-3.6l-3.2,-1.2l-1.7,1.5l-0.1,0.9l-1.9,2l-0.3,1l-0.8,1.75l-0.7,0.05l-1.5,1.4l-0.05,0.3l-0.65,-0.1l-0.4,-1.3l1.7,-2.4l2.6,-6.5l2.2,-4.3l4.4,-3.4l0.7,-2.7l2.6,-1.8l0.2,-1.8l1.6,-0.7l0.6,-2.2l-2.5,-6.7l1.25,-5.75l1.8,-2.6l0.05,-0.8l0,-0.85l0,0.85l-3.3,-2.7l-2.8,-5.05l-2,-6.15l-0.4,-1.2l-0.45,-0.6l-2.5,-1.55l-1.55,-1l-5.9,-5.05l-1.45,-3.65l0.2,-3.55l0.7,-2.3l0.35,-1.65l0.05,0.35l0.25,-1.7l2.85,11.35l12.7,9.9l3.4,8.45l2.2,7.9l4.55,3.4l4.1,1.65m-51.45,-18.15l7.5,-4.7q0.65,-4.95 2.45,-9.9q1.45,-4.85 8.9,-5.7l-0.9,6.65l-2.3,1.6l2.3,3.55l-1.7,7.95l-1,-0.2l-1,-0.25l-0.3,-3.75l-5.05,4.05l1,2.15l3.6,-0.85l-2.1,2.25l-5.8,-3.3l-5.6,0.45m28.95,-7.6l2.55,3.2l-2.55,-3.2m15.55,49l-0.2,-0.8l6.35,11.25l-3,-3.35l-3.15,-7.1m-2.7,2.8l0.55,-4.15l1.15,13.2l-1.7,-9.05"/>
   <path id="svg_38" fill-rule="evenodd" fill="#7c6d3f" d="m75.25,119.75l-1.1,-4.7l0.35,-1.1l-1.25,-2.95l-0.95,0l-2,-2.15l-0.2,-2.2l-0.7,-0.9l-0.1,-0.65l4.3,3.4l0.25,0.4l3.05,4.6l-1.65,6.25m-5.15,-20.8l-2.7,-4.3l0.6,-1.25l0.45,-0.9l0,-0.3l-0.15,-1.1l1.2,-1.9l0.05,-0.1l0.05,-0.2l0.25,-1.3l0.35,-0.75l1.6,-3.25l-1.2,7.75l0.75,5.7l1.25,1.9l-0.75,1.25l-1.3,-0.75l-0.25,-0.15l-0.2,-0.35m3.9,12.05l-0.75,0l0.75,0"/>
   <path id="svg_39" fill-rule="evenodd" fill="#dbc442" d="m38.15,43.75l0.75,-0.2l1.2,0.45l0.4,1.3l-0.65,0.15l-1.35,-0.55l-0.3,-1.15l-0.05,0"/>
   <path id="svg_40" fill-rule="evenodd" fill="#745e3a" d="m78.55,74.6q1.35,0.95 2.35,2.7q0.9,-0.35 1.8,-2.1l0.4,-0.85l1.85,-1l-1.7,2.35l1.5,1.4l4.55,-2.6l-1.95,0.6l1.2,-6.4l1.4,2.75l1.15,-6.45l0,-0.1l2.15,-4.9l-1.3,7.3l0.3,5.05l2.25,-4.95l-0.75,7.45l1.2,3l8.05,-3.25q-5.4,3.6 -5.4,6.65q-7.8,3 -13.2,8.75l-1.75,10.9l2.65,3.15l1.55,-0.1l5.6,-0.45l5.8,3.3l-0.15,0.2l-11.7,-1.3l-7.25,-3.75l-7.65,-1.2l-2.65,2.3l-0.1,-0.55l1.35,-3.55l0.2,0.35l0.25,0.15l1.3,0.75l0.75,-1.25l-1.25,-1.9l-0.75,-5.7l1.2,-7.75l-1.6,3.25l2.2,-7.25l0.4,0.15l1.75,-0.75l1,-1.3l1.85,-1.55l0.7,-1.45l0.45,-0.1m-10.55,18.8l0.45,-1.2l0,0.3l-0.45,0.9m1.5,-4.2l0.1,-0.3l-0.05,0.2l-0.05,0.1m7.05,11.05l-3.95,-1.3l3.95,1.3"/>
   <path id="svg_41" fill-rule="evenodd" fill="#55452b" d="m102.1,63.4l0.15,3.3l-0.5,2.05l1.8,2.2l-0.8,-0.05l-2.5,-2.15l-0.55,-3.2l-0.15,-0.95l-0.9,-2.8l-2.4,4.2l-0.95,-4.85l-0.4,-2.05l0.4,2.05q-0.3,-1 -0.2,0.65l-0.6,5.6l-2.25,4.95l-0.3,-5.05l1.3,-7.3l-2.15,4.9l0,0.1l-1.15,6.45l-1.4,-2.75l-1,-1.95l0,-2.6l-2.6,9.2l-1.85,1l-0.4,0.85q-0.9,1.75 -1.8,2.1q-1,-1.75 -2.35,-2.7l0.9,-0.3l3,-9.2l0,-0.1l0.8,-5.5l-0.1,-0.2l5.05,-3.2q0,-0.2 3.75,-1.15q3.5,0.4 5.95,2.4l2.75,4.45l1.45,1.6m-4.05,-2.9l0.6,1.3l-0.6,-1.3m-17.35,86.3q5.75,3.55 11.5,0q3.35,-2.95 3.65,-9l2.95,8.95l0.05,0.35l0.4,1.3l-0.15,0.3l-3.6,4.3l-3.7,1.3l-0.15,0.35l-0.85,-0.45l-4.2,-3.25l0.15,-0.2l-0.35,-0.2l-0.7,-0.95l-2.1,0.1l-2.25,-2.05l-0.65,-0.85m-68.4,-65.3l12.85,5.3l0.45,0.2l0.05,1.35l-0.7,0.8l-2.25,2.45l-2.15,0.8l-3.3,-1.05l-2.15,0.75l-6.35,0.75l-4.3,1.95l-0.7,-0.1l0.7,-1.25l3.75,-2.9l4.05,-1.1l0.2,-0.75l-4,-0.75l-4.05,0.3l-3.6,1.65l-0.55,-0.15l1.8,-2.2l3.75,-1.65l9.75,-0.7l-0.05,-1.65l-3.2,-2l0,-0.05"/>
   <path id="svg_42" fill-rule="evenodd" fill="#6a4520" d="m7.35,181.3l10.65,11l9.3,1.8l11.25,-4.6l-0.35,2.4l-1.65,2.5l-7.3,3.7l-5.25,0l-8,-2.3l-4.35,-2.8l-3.85,-8.5l-0.45,-3.2"/>
   <path id="svg_43" fill-rule="evenodd" fill="#79100b" d="m26.8,49.95l-0.15,-0.1l-0.75,-1.5l-0.05,-1.75l2.35,-3.1l1.4,-0.45l1.35,0.85l-0.2,1l-0.6,-0.1l-0.35,-0.4l-1.15,2.9l0.5,2.55l-0.4,0.15l-0.75,0.75l-1.2,-0.8m11.05,-1.45l-4.1,2.5l-0.95,1.1l-0.15,0.2l-1.35,1.4q-0.95,0.8 2.85,-4.85q2.8,-0.8 3.7,-0.35m-6.9,5.7l-0.35,1.2l0.25,0.75l-0.4,6.3l1.1,1.4l-1.25,0.5l-1.1,-0.85l-0.65,-4.5l-0.05,-1.35l-0.35,0l1.8,-1.3l1,-2.15m-21.55,24.95l3.55,-1.5l0.1,-0.05l2.8,-2.1l3.2,-2.45l1.05,-3.55l0.55,-4.85l4.75,11.05l-1.45,5.05l-1.9,-0.9l-12.65,-0.7"/>
   <path id="svg_44" fill-rule="evenodd" fill="#a7150e" d="m21.65,37.5l-1.8,0.6l-5.1,2.8l-4,3.2l-2.5,3.8l2.5,-3.8l4,-3.2l5.1,-2.8l1.8,-0.6m-17.6,19.65l-1.2,2.95l-0.45,-0.05l0.2,-5.35l4.85,-9.15l5.6,-4.95l2.2,-1.05l3.35,-2.05l3.6,-1.35l3.1,-0.65l0.6,0.35l-1.35,1l-1.5,0.2l0.15,1.15l2.4,2l1.7,0.55l1.2,0.75l-2.75,3.5l0.1,1.6l0.05,1.75l0.75,1.5l0.15,0.1l-2.95,1.65l-1.2,-0.6l0.35,-1.2l-2.1,0.9l2.9,-7.7l-2.4,1.7l-5.55,7.65l0.7,-6l6.05,-6.45l-3.4,0.7l-10.95,7.3l-1.25,1.8l-2.95,7.45m25.1,-7.3l1.65,-0.55l3.85,-2.95l0.2,-0.15l0.65,-0.9l0.4,-1l1.55,-0.95l0.7,0.4l0.05,0l0.3,1.15l1.35,0.55l0.65,-0.15l2,3.95l-0.2,0.85l-0.8,0.15l-1.9,-1.7l-1.45,-0.25l-0.3,0.2q-0.9,-0.45 -3.7,0.35q-3.8,5.65 -2.85,4.85l-0.3,0.35l-0.05,0.15l-1,2.15l-1.8,1.3l-0.15,-0.05l-2.7,2.3l-0.5,4.35l-0.35,1.15l1.05,3.45l5.95,7.1l-0.65,7.9l-0.05,-0.05l-0.15,-0.1l-0.65,-0.3l0.1,-6.35l-4.45,-5.8l2.95,6.3l-0.1,5.2l-4.5,-2l1.45,-5.05l-4.75,-11.05l0.3,-3.05l1.95,-2.15l0.6,-1.1l0,-0.4l-1.35,1.3l-1.3,0.3l-7.2,4.3l-1.2,1.7l-0.6,-0.15l-0.5,0.65l-1.45,0.2l1.15,-0.75l0.5,-0.6l0,-0.75l-0.95,-0.7l-0.15,0.5l-1.15,1.5l-0.55,-0.45l0.45,-0.55l0.35,-0.9l-0.3,-0.15l-1.05,-0.6l-0.65,-0.4l-2.45,0.25l0.15,-0.5l2.75,-0.75l1.95,0.35l0.6,0.05l1.4,1.15l1.15,0.25l8.45,-4.95l1.7,-2.65l2.35,-3.8l1.5,-1.05l0.7,0.15l0.2,-0.15l0.75,-0.75l0.4,-0.15m8.25,-4.05l1.15,1.25l1.45,-0.2l-0.95,-1l-1.6,-0.1l-0.05,0.05m-8.8,5.2l-0.8,-0.1l0.8,0.1m-17.4,11.8l-1.25,-1.05l1.25,1.05m15.1,-6.8l-0.85,0l-1.95,1.95l1.95,-1.95l0.85,0"/>
   <path id="svg_45" fill-rule="evenodd" fill="#640d09" d="m22.65,51l1.2,0.6l2.95,-1.65l1.2,0.8l-0.2,0.15l-0.7,-0.15l-1.5,1.05l-2.35,3.8l-0.85,-0.7l-0.8,0.05l1.05,-3.95m8.9,12.85l0.1,0.15l1.5,0.25l0.25,-0.05l1.55,-2.75l1.25,-0.5l1.5,0.6l0.05,-1.1l-1.7,-1.2l3.2,0.7l-0.15,0.65l-0.5,0.2l0.05,1.45l0.3,-0.05l1,0.3l-0.2,0.7l-0.8,0.75l-0.7,1.75l-2,-0.6l-1.15,-0.1l-3.5,0.9l-1.8,-0.2l0,-1.05l-0.55,-0.9l-0.05,-0.25l1.1,0.85l1.25,-0.5m6.15,-2.3l0,0.05l-0.15,0.95l0.15,-0.95l0,-0.05m-28.45,1.85l-1.25,0.25l-0.95,1l-0.45,-0.25l1.6,-1.6l1.05,0.6m28.2,1.6l0.65,-0.65l0.55,-0.9l0,-1.2l0,1.2l-0.55,0.9l-0.65,0.65m-0.25,-1.05l0.35,-1.4l-1.25,-1q-0.35,0.2 -0.75,0.35l-0.65,1.95l1.2,0.8l1.1,-0.7m-24.15,13.65l-1.4,-3.8l0.3,-2.15l2.5,-5.75l2.55,2.2l0.45,1.95l-0.9,1.6l0.5,-1.7l-1.85,-1.65l-1.1,4.45l1.75,2.75l-2.8,2.1"/>
   <path id="svg_46" fill-rule="evenodd" fill="#85110c" d="m34.65,46.35l-4.9,-10l-1.3,-5.15l2.35,6.6l2.7,4.1l0.9,0.75l0.4,-1.05l-0.9,-4.5l-0.85,-2.35l-0.9,-5.05l3.35,10.65l1.95,2.95l0,0.05l-1.55,0.95l-0.4,1l-0.65,0.9l-0.2,0.15m0.45,-3.1l-0.7,-0.6l0.7,0.6m-33.35,36.8l-0.05,-4.45l-0.9,-4.8l3.3,-6.55l5.85,6.85l-1.55,2.8l-0.05,-2l-1.55,-2.85l-1.75,-0.55l-1.25,2.35l1.25,6.1l2,2.3l-2.65,0.35l-0.6,0.05l-1.15,0l-0.9,0.4"/>
   <path id="svg_47" fill-rule="evenodd" fill="#6c5237" d="m84.95,73.35l2.6,-9.2l0,2.6l1,1.95l-1.2,6.4l1.95,-0.6l-4.55,2.6l-1.5,-1.4l1.7,-2.35m17.15,29.85l0.35,5.4l-3.95,8.45l-5.7,3.9l3.4,-9.15l-5.4,4.45q-7.9,-9.75 -15.45,-10.1l-1.5,2.75l-0.25,-0.4l-4.3,-3.4l-0.2,-0.9l-0.25,-1.15l2.65,-2.3l7.65,1.2l7.25,3.75l11.7,1.3l0.15,-0.2l2.1,-2.25l-3.6,0.85l-1,-2.15l5.05,-4.05l0.3,3.75l1,0.25m-24.9,18.75l1.3,1.55l-2.15,6.65l-0.45,0.15l1.3,-8.35"/>
   <path id="svg_48" fill-rule="evenodd" fill="#d31212" d="m4.05,57.15l2.95,-7.45l1.25,-1.8l10.95,-7.3l3.4,-0.7l-6.05,6.45l-0.7,6l5.55,-7.65l2.4,-1.7l-2.9,7.7l2.1,-0.9l-0.35,1.2l-1.05,3.95l-0.55,0.05l-2.15,2.65l-2.75,2.35l0.8,-1.55l0.75,-2.7l-0.75,-1.95l-4.75,1.1l-2.1,3.4l0.25,-1.75l-1.6,-2.25l-2.1,0.1l-2.6,2.75"/>
   <path id="svg_49" fill-rule="evenodd" fill="#a98301" d="m71.55,124.55l-0.45,1l-0.35,-0.4l-0.55,-0.7l-2.5,0.3l-0.7,1.95l-0.05,0.05l0.85,2.65l-0.1,0.05l-1.7,-0.7l-1.55,-2.6l0.5,-2.65l2.3,-2.3l1.95,0.55l0.25,0.05l2.1,2.75"/>
   <path id="svg_50" fill-rule="evenodd" fill="#c79a01" d="m69.5,141.75l0.2,0.3l0.4,0.5l-0.15,1.7l1.15,0.7l0.95,-0.2l0.75,-1l-0.25,-0.85l0.75,-0.25l-0.1,0.7l0.15,0.25l-0.45,1.1l-0.1,0.25l-0.8,0.7l-0.45,0.1l-0.85,0.2l-1.35,-1.2l-0.15,-0.9l-0.1,-0.65l0.4,-1.45m8.45,5l0.9,0.95l0.05,2.2l-0.5,2l-0.15,0.45l-0.4,1l-0.1,0.05l-1,0.5l-0.05,-0.25l0.4,-1.7l0.3,-0.35l-0.3,0.35l-0.4,1.7l0.05,0.25l0.2,2.45l0.75,1.35l0.1,0.15l0.85,-0.6l0,0.05l0.15,0.8l0.05,0.2l-0.45,0.9l-0.5,0.65l-0.4,0.5l-0.25,1.4l-1.2,-0.1l0.3,-0.85l0.4,-1.2l0.45,-0.55l-0.45,-0.65l-0.5,-0.85l-0.35,-2.2l0.1,-1.7l-0.55,-0.45l-0.85,-1.75l0,-0.2l-0.15,-1.65l-0.1,-0.85l0.5,-3.2l0.7,0.4l-0.05,1.95l0.4,2.7l0.5,1l-0.4,1.5l0,0.55l0,-0.55l0.4,-1.5l0.05,-0.15l0.95,0.15l0.2,-0.25l0.35,-4.55l0,-0.05m-0.35,17l0.2,0.55l0.95,0.5l0.15,0l1.15,0.05l0.7,0.25l0.4,0.45l-1.25,0.4l-0.5,0.15l-0.95,0l-0.45,-0.05l-0.3,-0.3l-1.2,-1.2l0,-0.2l1.1,-0.6m-0.4,-4.7l0.3,-0.45l1.3,-0.5l-1.3,0.5l-0.3,0.45m23.3,-13.85l-0.5,-0.05l0.1,-2.25l1.4,-2l0.3,0l0.1,0l2.1,-0.2l1.9,1.8l-0.2,2.6l-0.8,1.6l-1.5,0.75l-0.2,-0.55l-0.1,-0.1l1,-0.9l0.5,-1.9l-1.5,-1.4l-2,0.5l-0.6,2.1m2.6,4.7l0.45,-1.05l0.75,1.25l0.1,1.7l1.3,2.7l0.6,4.4l-0.1,-0.1l-0.1,3.3l-0.85,-0.6l0.25,-0.9l-0.1,-0.7l-1.2,0.3l-0.95,-0.55l-0.95,-0.75l-0.5,-2.6l0.1,-2.1l-0.4,0.1l-0.15,-0.15l-1.15,-1l0.65,-1.05l0.65,0.6l0.35,-0.05l0.45,-0.05l0.8,-0.9l0,-1.8m-0.1,4.05l-1.1,0.25l1.1,-0.25l0,2.05l0.55,2.5l0,0.05l1.75,0.85l0.1,0.5l-0.1,-0.5l-1.75,-0.85l0,-0.05l0.25,-0.3l1.15,-0.35l0.25,0.2l-0.2,-2.15l-1.25,-2.6l-0.25,0.5l-0.5,0.15m1.4,-2.15l-0.65,1.5l0.65,-1.5m1.8,7l-1,-0.75l1,0.75"/>
   <path id="svg_51" fill-rule="evenodd" fill="#705427" d="m140.5,135.7l-2.5,0.1l-1.9,1l-2.35,3.25l-0.55,-0.75l0,-0.1l-1.2,-5.5l1,-1.7l0.1,-0.8l7.4,4.5m-18.2,18.5l-1,0.4l-0.4,1.2l-1.9,2.7l-1.5,0.4l0,0.15l0.1,1.15l-1.9,2.7l-1.6,0.6l0,1.3l-1.5,1.95l-1.3,-1.15l-4.1,-2.75l0.5,-0.75l2.3,-2.5l1,-0.3l0.15,-1l0.05,-0.3l1.5,-1.4l0.7,-0.05l0.8,-1.75l0.3,-1l1.9,-2l0.1,-0.9l1.7,-1.5l3.2,1.2l0.9,3.6"/>
   <path id="svg_52" fill-rule="evenodd" fill="#c9bc78" d="m147.95,131.75l1.85,1.25l1.7,2.5l-0.3,4.2l-1.6,0.5l-3.7,-1.3l-0.85,-1.35l0.15,-0.1l1.05,-2.2l1.7,-3.5m-18.25,54.9l1.3,1.1l0.15,0.65l-2.65,2.9l-0.2,0.2l-1.35,-1.15l0.85,-0.85l1.8,-2.9l0.1,0.05"/>
   <path id="svg_53" fill-rule="evenodd" fill="#ac9c46" d="m131.15,188.4l1.75,5.8l0.05,0.1l-0.65,0.8l-3.8,-3.8l2.65,-2.9m-49.95,-38.55l2.4,-0.15l2.1,-0.1l0.7,0.95l-0.5,-0.25l-0.75,0.1l-1.25,2.15l1.25,-2.15l0.75,-0.1l0.5,0.25l0.35,0.2l-0.15,0.2l-2.1,2.65l-0.1,0.15l-0.55,-0.6l0.1,-0.6l-0.05,0l-1.15,-0.9l-2.9,-1.2l0.7,-0.6l0.65,0"/>
   <path id="svg_54" fill-rule="evenodd" fill="#eae1b3" d="m141.85,123l5.45,-5.4l1.2,-0.3l-0.4,2.85l-3.8,3.7l-2.45,-0.85"/>
   <path id="svg_55" fill-rule="evenodd" fill="#8d7a3a" d="m145.05,137.55l-0.65,0.35l-3.8,-2.2l-0.1,0l-7.4,-4.5l-2.2,-2l0.15,-1.7l-1.65,-1l-2.5,-3.9l0.5,-1.5l3.7,-1.4l3.65,2.4l-0.75,0.6l-1.35,2.05l0,4.05l7.95,5.8l5.65,0.65l-1.05,2.2l-0.15,0.1m-15.55,48.85l0.2,0.25l-0.1,-0.05l-1.8,2.9l-0.85,0.85l-12.35,-10.35l-20.3,-17l-0.7,-0.65l-3.05,-2.95l-1.95,-1.85l-1.75,-1.7l-1.9,-1.8l-0.45,-0.45l2.1,-2.65l4.2,3.25l0.85,0.45l1.15,0.55l2.35,1.2l1.15,0.55l0.6,4.5l28.55,25.85l4.05,-0.9m1.55,-58.9l0.05,-0.5l1.55,-2.25l-1.55,2.25l-0.05,0.5"/>
   <path id="svg_56" fill-rule="evenodd" fill="#564a23" d="m114.6,180l-1.2,2.05l-1.25,-0.15l-1.75,-1.5l-16.2,-13.9l-1.55,-1.35l-0.15,-1l1.1,-1.8l0.7,0.65l20.3,17"/>
   <path id="svg_57" fill-rule="evenodd" fill="#514128" d="m105.7,83.65l0.35,-2.6l1.8,1.4l-0.7,2.3l-0.2,3.55l1.45,3.65l5.9,5.05l1.55,1l-0.55,1.6l-0.95,0.15l-3.1,2.95l-3.1,3.8l-4.45,3.9l-1.85,4.5l-3.5,3.9l-0.4,1.65l-1.5,1.6l0.4,0.4l-1.6,5.5l-0.5,1.8l1.2,4.1l-0.15,3.85l0.05,0.1q-0.3,6.05 -3.65,9q-5.75,3.55 -11.5,0l-1.5,-1.9l0,-0.05l0.7,-1.2l-0.15,-2.45l-1.9,-1.7l-0.7,0l-0.3,-2.05l-1.75,-1.35l-0.8,-0.15l-1.5,-0.25l-0.25,0.05l-1.3,-4.7l-0.45,-5.25l0.3,-0.25l0.45,-1l0.05,-0.1l0.2,-0.45l-0.05,-0.1l0.8,-1.75l0.55,-2.95l0,-0.05l0.6,-2.9l0.45,-1.2l1.1,4.7l0.05,0.1l-1.5,4.4l0.45,9.7l8.5,6.25q3.8,2.35 9.2,-18.7l0.85,-0.55l5.7,-3.9l3.95,-8.45l-0.35,-5.4l1,0.2l1.7,-7.95l-2.3,-3.55l2.3,-1.6l0.9,-6.65m-14.7,155.5l-1.65,4.95l-2.9,-3.3l4.55,-1.65"/>
   <path id="svg_58" fill-rule="evenodd" fill="#7b4218" d="m66.2,133.4l-0.25,-1.05l0.55,-1.8l1.2,-1.1l0.15,0.05l2.35,7.45l-0.95,1.7l-0.2,2.15l0.45,0.95l-0.4,1.45l0.1,0.65l-1.15,1.25l-0.4,2.6l0.3,2.3l0.9,0.85l1.5,-0.4l1.3,-2.45l-0.1,-2.25l0.45,-0.1l0.8,-0.7l0.1,-0.25l0.6,2.3l-0.55,2.8l-1.25,2.5l-1.75,1.15l-2.05,-1.55l-0.75,-0.6l-0.9,-2.6l0,-0.25l0.05,-2.05l0.6,-1.85l-1.5,0.55l-1,-0.7l-0.4,-0.8l-0.75,-1.6l-0.35,-0.7l0.45,-1.1l0.85,-0.1l-0.05,0.2l0.9,1.5l0.85,-0.15l0.85,-1.65l0.95,-3.05l-0.35,-4.55l-0.8,0.25l-0.35,0.75m2.45,8.75l-1.5,1.45l-0.25,0.95l0.25,-0.95l1.5,-1.45m1.45,0.4l0.25,0.3l2,0.1l0.2,-0.05l0.25,0.85l-0.75,1l-0.95,0.2l-1.15,-0.7l0.15,-1.7m2.9,-0.55l-1.45,-0.15l-0.45,-0.65l0.35,-1.35l1.55,2.15m-0.85,20.5l-3.1,-9.05l3.5,4.9l-0.5,-1.5l-0.35,-3.25l1.05,-2.7l1.7,-1.3l0.15,1.65l-1.25,1.05l-0.4,2.45l0.4,2.7l0.85,1.25l1.2,0.1l1.35,-0.4l0.45,0.65l-0.45,0.55l-0.4,1.2l-2.05,-0.4l-0.1,-0.1l-1.45,-1.35l-0.2,-0.6l0.2,0.6l1.45,1.35l0.1,0.1l2.05,0.4l-0.3,0.85l-0.05,0.15l0.15,0.75l0.35,1.8l0,0.2l1.2,1.2l-0.4,1.9l-2.65,-2.3l-2.5,-2.85m4.35,-17.6l-1,-0.45l0.05,-0.85l0.95,1.3m0.75,1.1l0.7,0.75l0,0.05l-0.35,4.55l-0.2,0.25l-0.95,-0.15l-0.05,0.15l-0.5,-1l-0.4,-2.7l0.05,-1.95l0.35,0.2l1.35,-0.15m1.6,1.7l0.95,1l1.4,1.15l-0.65,0l-0.7,0.6l2.9,1.2l1.15,0.9l0.05,0l-0.1,0.6l0.55,0.6l0.1,-0.15l0.45,0.45l1.9,1.8l-2.35,0.45l-1.8,1.55l-0.9,1.7l-0.05,-0.05l-0.5,-0.8l-0.95,-0.45l-0.3,-0.15l0.05,-0.8l-0.1,-0.5l-0.2,-1.1l-0.3,-1.45l-0.2,-0.3l-1,-1.6l0.15,-0.45l0.5,-2l-0.05,-2.2m-2.1,6.2l1,-0.5l0.25,1l0.65,2.85l-0.85,0.6l-0.1,-0.15l-0.75,-1.35l-0.2,-2.45m2.7,-2.4l0.9,1.35l0,1.95l-0.6,0.9l0.6,-0.9l0,-1.95l-0.9,-1.35m1.65,5l-0.8,1.75l0.8,-1.75l0.2,-0.45l0.05,-0.1l-0.25,0.55m0.35,-4.45l0.2,1.95l-0.3,1.8l0,0.15l0,-0.15l0.3,-1.8l-0.2,-1.95m-1.55,12.05l-0.25,-1.3l0.1,-1.45l0.4,-1.45l0.1,-0.45l0.6,0.35l0.1,0.2l0.65,1.65l0.35,0.85l-0.05,1.55l-0.35,0.55l-1.65,-0.5m-1.45,2l0.95,0l0.5,-0.15l2.85,1.65l-2.85,-1.65l1.25,-0.4l1.4,1.7l0.1,0.1l0.1,0.25l0.55,1.3l0.4,1.1l-0.2,0.95l-2.95,-1.1l-2,-1.25l2,1.25l2.95,1.1l-0.2,0.85l-0.1,0.5l-1.25,0.75l-1.5,-0.7l-1.55,-2.35l-0.35,-1.4l-0.05,-0.25l-0.05,-2.25m-4.25,-5.8l1.95,2.25l-1.95,-2.25m10.75,-6.25l-1.95,0.6l-1.65,1.15l1.65,-1.15l1.95,-0.6"/>
   <path id="svg_59" fill-rule="evenodd" fill="#552811" d="m73.1,119.2l-0.55,2.95l-0.8,1.75l-0.15,0.55l-0.05,0.1l-2.1,-2.75l0.1,0l3.55,-2.6m-2.3,6.6l0.45,5.25l1.3,4.7l-0.45,0.1l-1.35,0.8l-0.55,0.3l-2.35,-7.45l-0.05,-0.1l-0.85,-2.65l0.05,-0.05l0.7,-1.95l2.5,-0.3l0.55,0.7l0.05,0.65m8.4,19.05l0,0.05l1.5,1.9l0.65,0.85l2.25,2.05l-2.4,0.15l-1.4,-1.15l-0.95,-1l-0.9,-0.95l-0.7,-0.75l-0.75,-1.1l-0.95,-1.3l0,-0.8l0.15,-0.15l1.05,-1.1l1.1,0.05l0.25,0l0.15,0.2l0.35,1.6l0.6,1.45m16.65,-7.05l-0.05,-0.1l0.15,-3.85l-1.2,-4.1l0.5,-1.8l6.55,12.8l0.1,0.15l-0.1,0l-0.3,0l-1.4,2l-0.1,2.25l-0.3,-0.05l-0.9,1.65l-2.95,-8.95m-30.6,-2.4l0.95,-2l0.35,-0.75l0.8,-0.25l0.35,4.55l-0.95,3.05l-0.85,1.65l-0.85,0.15l-0.9,-1.5l0.05,-0.2l0.55,-3.65l0.5,-1.05m7.55,3.05l0.45,-0.4l1.55,0.25l0.85,0.15l0.45,1.05l-2,1.3l-0.15,0.4l-0.65,1.35l0,-0.05l-0.3,-0.5l-1.55,-2.15l0.1,-0.4l1.25,-1m-8.4,5.95l1,0.7l1.5,-0.55l-0.6,1.85l-0.05,2.05l-1.85,-4.05m4.65,9.05l-1.15,-1.55l2.05,1.55l1.75,-1.15l1.25,-2.5l0.55,-2.8l-0.6,-2.3l0.45,-1.1l0.8,1.55l0.7,0.4l-0.5,3.2l0.1,0.85l-1.7,1.3l-1.05,2.7l0.35,3.25l0.5,1.5l-3.5,-4.9m0.15,-9.6l0.15,0.9l1.35,1.2l0.85,-0.2l0.1,2.25l-1.3,2.45l-1.5,0.4l-0.9,-0.85l-0.3,-2.3l0.4,-2.6l1.15,-1.25m5.4,7.4l0,0.2l0.85,1.75l0.55,0.45l-0.1,1.7l0.35,2.2l0.5,0.85l-1.35,0.4l-1.2,-0.1l-0.85,-1.25l-0.4,-2.7l0.4,-2.45l1.25,-1.05m3.3,8.6l0.45,0.2l0.95,-0.15l0.25,-0.35l0.6,0.35l-0.4,1.45l-0.1,1.45l0.25,1.3l-0.1,-0.05l-0.9,0.75l-0.15,0l-0.95,-0.5l-0.2,-0.55l-0.45,-1.35l0.1,-0.65l0.25,-1.4l0.4,-0.5m7.55,16.4l-1.35,-1.2l1.05,-2.2l-0.05,-1.1l0,-0.35l-0.15,-1.95l-0.35,-0.8l-0.2,-0.5l-0.4,-0.9l2.15,-0.75l2.5,-1.9l1.55,-2.45l0.35,-2.75l3.05,2.95l-1.1,1.8l0.15,1l1.55,1.35l-1.9,2.1l-2.15,-2l-0.2,-2.95l1.25,-2.45l-1.25,2.45l0.2,2.95l2.15,2l-2.9,3.25l-4.3,-0.45l4.3,0.45l-3.95,4.4m-1.8,-9.75l-0.05,-0.1l-1.6,-1.5l0.7,-0.55l0.3,-1.1l-0.35,-2.25l-0.05,-0.1l-0.8,-1.35l0.9,-1.7l1.8,-1.55l2.35,-0.45l1.75,1.7l1.95,1.85l-0.35,2.75l-1.55,2.45l-2.5,1.9l-2.15,0.75l-0.35,-0.75m16.55,-13.35l1.15,1l-0.75,2.45l-0.25,2.4l-4.05,-2.05l-1.15,-0.55l2.45,-1.1l2.2,-1.6l0.4,-0.55m-16.55,12.25l0.85,0.1l1.8,-0.95l1.6,-2.1l0.95,-3l-0.25,-1.9l0.25,1.9l-0.95,3l-1.6,2.1l-1.8,0.95l-0.85,-0.1m1.75,3.1l-1,-0.35l1,0.35m5.9,0.35l-4.5,0.15l-1,-0.35l1,0.35l4.5,-0.15m14.55,16.45l0.05,2l-0.9,0.7l-0.9,0.5l0.6,0.55l0.4,-0.1l-0.4,2.05l-1.75,0.3l-2.1,-0.55l5,-5.45"/>
   <path id="svg_60" fill-rule="evenodd" fill="#ba9101" d="m74.3,135.95l0.8,0.15l1.75,1.35l0.3,2.05l0.7,0l1.9,1.7l0.15,2.45l-0.7,1.2l-0.6,-1.45l0.25,-0.8l-0.6,-0.8l-0.15,-0.2l-0.25,0l-0.9,-2.1l-0.85,0l-0.45,-1.05l-0.85,-0.15l-0.5,-2.35m-3.55,0.7l2.05,1.8l-1.25,1l-0.1,0.4l-0.35,1.35l0.45,0.65l1.45,0.15l0.3,0.5l0,0.05l0,0.1l0,-0.1l0.65,-1.35l1.75,1.45l-0.15,0.15l0,0.8l-0.05,0.85l1,0.45l0.75,1.1l-1.35,0.15l-0.35,-0.2l-0.7,-0.4l-0.7,-0.4l-0.8,-1.55l-0.15,-0.25l0.1,-0.7l-0.75,0.25l-0.2,0.05l-2,-0.1l-0.25,-0.3l-0.4,-0.5l-0.2,-0.3l-0.45,-0.95l0.2,-2.15l0.95,-1.7l0.55,-0.3m6.2,2.85l0.2,0l-0.2,0m0.8,13.9l0.1,-0.05l0.4,-1l1,1.6l-1.25,0.45l-0.25,-1m0.9,3.9l1.3,-0.5l0.1,0.5l-0.05,0.8l0.3,0.15l0.95,0.45l0.5,0.8l-0.8,0.5l-0.1,-0.2l-0.6,-0.35l-0.1,0.45l-0.6,-0.35l-0.25,0.35l-0.95,0.15l-0.45,-0.2l0.5,-0.65l0.45,-0.9l-0.05,-0.2l-0.15,-0.8m0.25,7.5l0.9,-0.75l0.1,0.05l1.65,0.5l0.2,0.05l0.25,0.25l-0.25,-0.25l-0.2,-0.05l0.35,-0.55l0.05,-1.55l-0.35,-0.85l1,-0.75l0.05,0.1l0.35,2.25l-0.3,1.1l-0.7,0.55l1.6,1.5l0.05,0.1l-1.1,0.75l-1.4,-1.7l-0.4,-0.45l-0.7,-0.25l-1.15,-0.05m1.1,-6.7l-0.15,1l-0.3,0.45l0.3,-0.45l0.15,-1m4.1,16.95l-2.4,0.15l-2.5,-2.1l-1.4,-2.9l-0.5,-2.55l0.4,-1.9l0.3,0.3l0.45,0.05l0.05,2.25l0,0.2l0.05,0.05l0.35,1.4l1.55,2.35l1.5,0.7l1.25,-0.75l0.1,-0.5l1.8,-0.05l0.05,1.1l-1.05,2.2"/>
   <path id="svg_61" fill-rule="evenodd" fill="#fed343" d="m83.5,170.95l0.2,-0.95l-0.4,-1.1l1.3,-0.25l0.35,0.8l0.15,1.95l0,0.35l-1.8,0.05l0.2,-0.85"/>
   <path id="svg_62" fill-rule="evenodd" fill="#fec70c" d="m72.55,135.75l0.25,-0.05l1.5,0.25l0.5,2.35l-1.55,-0.25l-0.45,0.4l-2.05,-1.8l1.35,-0.8l0.45,-0.1m4.4,3.75l0.9,2.1l-1.1,-0.05l-1.05,1.1l-1.75,-1.45l0.15,-0.4l2,-1.3l0.85,0m2.3,14.45l0.2,0.3l0.3,1.45l0.2,1.1l-1.3,0.5l0,-0.05l-0.65,-2.85l1.25,-0.45m-2,7.8l-0.1,0.65l0.45,1.35l-1.1,0.6l-0.35,-1.8l-0.15,-0.75l0.05,-0.15l1.2,0.1m3.7,-1.75l0.8,-0.5l0.05,0.05l0.8,1.35l-1,0.75l-0.65,-1.65m2.35,8.9l-0.55,-1.3l-0.1,-0.25l-0.1,-0.1l1.1,-0.75l0.35,0.75l0.4,0.9l0.2,0.5l-1.3,0.25m16.95,-21.45l0.65,-2.2l1,0.15l1.2,1.4l-1.55,2.35l-0.05,-0.25l-0.3,-1l-0.95,-0.45"/>
   <path id="svg_63" fill-rule="evenodd" fill="#b48b01" d="m100,145.15l0.5,0.05l0.4,0.05l-0.65,2.2l-0.45,-0.25l-0.55,1.2l-0.4,-1.3l-0.05,-0.35l0.9,-1.65l0.3,0.05m3.1,1.65l0.1,0.1l0.2,0.55l0.3,1.05l-0.15,0.35l-0.45,1.05l-0.3,0.6l-0.3,0.1l-0.85,0.25l0.25,-0.45l-0.35,-1.25l1.55,-2.35"/>
   <path id="svg_64" fill-rule="evenodd" fill="#5a2b12" d="m63.25,142l0.75,1.6l0.35,0.8l0.05,0l1.85,4.05l0,0.25l0.9,2.6l0.75,0.6l1.15,1.55l3.1,9.05l-2.8,-3.2l-4.55,-7.3l-1,-2.75l-1.85,-5.05l0.65,-2.15l0.65,-0.05"/>
   <path id="svg_65" fill-rule="evenodd" fill="#6d2e16" d="m100.5,145.2l0.6,-2.1l2,-0.5l1.5,1.4l-0.5,1.9l-1,0.9l-1.2,-1.4l-1,-0.15l-0.4,-0.05m1,3.7l0.05,0.25l0.35,1.25l-0.25,0.45l-0.8,1.25l-0.65,1.05l-0.4,0.55l-2.2,1.6l-2.45,1.1l-2.35,-1.2l4.15,-1l4.55,-5.3"/>
   <path id="svg_66" fill-rule="evenodd" fill="#7e5125" d="m99.25,148.4l0.55,-1.2l0.45,0.25l0.95,0.45l0.3,1l-4.55,5.3l-4.15,1l-1.15,-0.55l0.15,-0.35l3.7,-1.3l3.6,-4.3l0.15,-0.3"/>
   <path id="svg_67" fill-rule="evenodd" fill="#ef4545" d="m37.4,45.8l0.05,-0.05l1.6,0.1l0.95,1l-1.45,0.2l-1.15,-1.25m-8.95,36.95l0.1,-5.2l-2.95,-6.3l4.45,5.8l-0.1,6.35l-1.5,-0.65"/>
   <path id="svg_68" fill-rule="evenodd" fill="#483624" d="m89.75,261.6l0.5,12.75l-0.35,5.2l-3.1,3.1l-8.35,-2.6l-2.45,-6.75l-2,-11.2l-8.05,-11l-3,-8.45l-3,-1.85l0,-4.5l-0.55,-0.55l15.45,-16.8l0.65,0.6l-0.5,10.25l3.65,4.65l3.95,3.35l0.9,6.5l6.25,17.3m-38.55,-157.65l0.15,0.1l0.05,0.05l1.9,2.8l2.8,-3.1l2.2,-6.75l1.65,-1.5l0.3,-1.05l-0.25,-6.55l0.95,-2.3l6.2,-6.45l1.35,-0.8l3,0.8l0.9,0.4l-2.2,7.25l-0.35,0.75l-0.25,1.3l-0.1,0.3l-1.2,1.9l0.15,1.1l-0.45,1.2l-0.6,1.25l2.7,4.3l-1.35,3.55l0.1,0.55l0.25,1.15l-0.45,0.05l-9.15,6.65l-9.4,10.5l0.6,-4.5l4.65,-7.85l0,-0.05l-0.05,0.05l-10.45,9.85l-1.1,-1.25l-0.25,-1.65l-1.3,-2.6l-0.4,-2.05l-0.05,-0.1l-2.4,-5.15l-0.25,-2.9l-1.25,-2.65l-1.35,-1.4l-0.35,-1.9l-1.9,-1.7l-1,-0.6l-0.65,-1.65l-0.7,-1.75q4.95,0.7 11.3,5.4l3.35,4.75l4.65,2.25m19.25,-19.65l-0.6,3.3l0.6,-3.3m-10.2,10.2l0.55,-2.05l-0.55,2.05m-7.6,13.05l0.65,-0.65l-0.65,0.65m11.15,41.7l1,2.75l4.55,7.3l2.8,3.2l2.5,2.85l2.65,2.3l0.5,2.55l1.4,2.9l2.5,2.1l2.4,-0.15l1.35,1.2l-27.8,30.95l0.05,-4.6l-0.45,-1.5l-0.4,-2.9l1.2,-11.7l-0.7,-8.85l0.15,-3.65l-0.45,-0.6l-0.2,-1.3l0.55,-1.75l-0.05,-5.1l0.2,-0.95l3.05,-4.35l-0.1,-0.65l1.6,-5.45l0.95,-1.25l0.75,-3.35m0.15,94.05l-1,-0.65l1,0.65"/>
   <path id="svg_69" fill-rule="evenodd" fill="#53351a" d="m74.15,115.05l-0.45,1.2l-0.6,2.9l0,0.05l-3.55,2.6l-0.1,0l-0.25,-0.05l-1.95,-0.55l-2.3,2.3l-0.5,2.65l1.55,2.6l1.7,0.7l-1.2,1.1l-0.55,1.8l0.25,1.05l-0.95,2l-0.6,-0.3l-4.5,0.9l-0.15,-2l-1.85,2.65l-12.8,6.15l0,0.05l-7.3,5.55l-4.45,5.05l-0.4,-1.45l9.1,-11.9l-1.9,-5.7l0.75,-11.45l0.9,-1.4l2.8,-2.65l10.45,-9.85l0.05,0l-4.65,7.85l-0.6,4.5l9.4,-10.5l9.15,-6.65l0.45,-0.05l0.2,0.9l0.1,0.65l0.7,0.9l0.2,2.2l2,2.15l0.95,0l1.25,2.95l-0.35,1.1"/>
   <path id="svg_70" fill-rule="evenodd" fill="#6f4722" d="m74,33.9l0.85,-6.65q0.3,1.8 0.9,3.45l1.55,-3.75l0.65,1.05l0.8,-4.2l3.3,-8.5l0.7,1.5l0.35,-2.7l1.45,-4.3l0.3,-6.6l-0.3,-3.2l0.8,4.3l0.45,5.9l2,4.3l2.25,2.55l0.7,3.7l0.75,-3.15l4,5.3l-0.1,0.65l0.55,0.15l1.25,3.4l0.05,0.05l2.15,-2.1l2.95,-4.75l0.75,-4.6l0.2,11.45l0.5,3.3l-1.55,4.65l1.45,-2.45l1.55,8.25l1.7,-3.35l0.25,-2.85l0.95,12.35l-1.15,1.8l1.45,-0.75l0.25,5.15l1.9,-2.7l1.85,-4.75l1.55,-2.75l-0.7,2.75l-0.3,9.2l0.15,1.7l-0.7,4l0.65,0.35l0.8,-1.65l0.35,3.45l0.75,0.9l0.05,1.2l-0.05,0.05l-0.05,0l-0.75,0.45l-0.25,1.8l0.25,-1.8l0.75,-0.45l0.05,0l0.05,0.1l1.8,7.45l3.95,-2.75l3.15,-4.65l-2.05,12.45l2.3,-2.9l-0.75,3.6l0.35,3l-0.6,0.85l-2.35,-1.65l-2.6,-0.6l-3.4,-3.75l-2.6,-0.85l-1.65,0.45l-2.7,-2.7l-3,-0.45l-1.35,-1.65l-1.8,-2.2l0.5,-2.05l-0.15,-3.3l-0.2,-2.9l0.85,-5.2l0.95,0.55l0.2,0.05l0.25,0l1.9,0.3l3.3,1.7l-1.8,-1.9l-2.95,-0.8l-5.05,-3.45l-2.45,-0.5l5.6,0.4l3.95,0.9l-2.75,-1.3l-3,-0.3l-1.2,-1.2l0.75,-0.2l0.45,-0.15l-0.7,-0.5l3.35,-1.3l-1.15,-0.2l0.45,-2.85l-2.45,-1.15l1.3,-1.25l1.55,-0.75l-2.05,0.3l-1.35,0.4l-0.3,-0.35l-0.15,-4.65l-3,-4.45l-1.65,-0.4l-2.55,-1.4l-0.65,-2.35l-1.35,-0.45l-0.15,1.2l-0.9,0.95l-0.1,-0.2l-0.4,-1.15l-2,-0.2l-0.05,-0.35l-2.15,-1.3l-2.8,0.7l-0.55,1.1l-0.35,-0.05l-1.4,1.4l-0.2,1.2l-0.05,0.2l-0.95,0.3l-0.05,0.8l-0.8,0.15l-0.25,0.8l-0.1,0.05l-0.6,0.85l-0.9,0.1l-0.4,0.25l-0.35,0.2l-0.7,-1.15m24.2,-5.35l-0.95,-1.4l0.95,1.4m10.5,24.7l-1.05,1.5l1.05,-1.5m4.4,7.8l-1.3,2.55l1.3,-2.55m2.75,36.95l2.5,1.55l0.45,0.6l0.4,1.2l-6.85,5.6l-6.65,4.2l4,-0.8l5.1,-2l-8.05,7.6l-9.05,5.5l0.25,-1l0.4,-1.65l3.5,-3.9l1.85,-4.5l4.45,-3.9l3.1,-3.8l3.1,-2.95l0.95,-0.15l0.55,-1.6m-39.2,-65.15l-0.9,-2.15l0.9,2.15m-35.5,90.1l-0.75,11.45l1.9,5.7l-9.1,11.9l-0.25,-0.85l-1.85,4.35l-4.45,5.85l-1.1,-2.3l-0.3,2.9l-2.8,4.95l-1.35,9.65l1.05,5.8l-1.05,1.55l1.85,0l2.75,2.45l7.45,1.85l2.6,-1.7l2.3,-6.95l0.95,6.35l-0.45,3.6l-11.25,4.6l-9.3,-1.8l-10.65,-11l-1,-7.05l2.55,4.45l2.45,-18.75l1.2,6.35l0.95,-8.2l3.85,-12.2l1.25,4.35l4.3,-9.05l4.5,-8.25l-0.9,12.2l14.65,-22.2"/>
   <path id="svg_71" fill-rule="evenodd" fill="#5c4a2e" d="m92.8,120.95l-0.85,0.55q-5.4,21.05 -9.2,18.7l-8.5,-6.25l-0.45,-9.7l1.5,-4.4l-0.05,-0.1l1.65,-6.25l-3.05,-4.6l1.5,-2.75q7.55,0.35 15.45,10.1l5.4,-4.45l-3.4,9.15m-15.6,1l-0.25,-0.3l0,-1.7l0,1.7l0.25,0.3l-1.3,8.35l0.45,-0.15l2.15,-6.65l-1.3,-1.55m-1.95,8.5l0.65,-0.15l-0.65,0.15"/>
   <path id="svg_72" fill-rule="evenodd" fill="#4d3926" d="m103.85,192.7l0.2,0.6l-0.25,4.7l-0.7,3q-11.1,3.25 -25.25,20.45l-0.6,-5.05l22.55,-24.5l1.9,0.8l2.15,0"/>
   <path id="svg_73" stroke-width="0.05" stroke-opacity="0.423529" stroke-linejoin="round" stroke-linecap="round" stroke="#663300" fill="none" d="m74,33.9l0.85,-6.65q0.3,1.8 0.9,3.45l1.55,-3.75l0.65,1.05l0.8,-4.2l3.3,-8.5l0.7,1.5l0.35,-2.7l1.45,-4.3l0.3,-6.6l-0.3,-3.2l0.8,4.3l0.45,5.9l2,4.3l2.25,2.55l0.7,3.7l0.75,-3.15l4,5.3l-0.1,0.65l0.55,0.15l1.25,3.4l0.05,0.05l2.15,-2.1l2.95,-4.75l0.75,-4.6l0.2,11.45l0.5,3.3l-1.55,4.65l1.45,-2.45l1.55,8.25l1.7,-3.35l0.25,-2.85l0.95,12.35l-1.15,1.8l1.45,-0.75l0.25,5.15l1.9,-2.7l1.85,-4.75l1.55,-2.75l-0.7,2.75l-0.3,9.2l0.15,1.7l-0.7,4m0.65,0.35l0.8,-1.65l0.35,3.45l0.75,0.9l0.05,1.2l0,0.15l1.8,7.45l3.95,-2.75l3.15,-4.65l-2.05,12.45l2.3,-2.9l-0.75,3.6l0.35,3l-0.55,0.9l1.15,2.2l1.75,-1.15l2.3,-3.05l-0.5,4.85l-1.45,4.05l1.95,6.55l0.95,1.35l4.8,3.2l3,7l1.8,1.2l0,2.2l-1.1,1.9l-0.4,2.5l1.1,2.3l-0.3,4.8l0.15,0.95l2.45,0.9l0.95,-0.95l5.45,-5.4l1.2,-0.3l-0.4,2.85l0,0.05l-3.2,6.85l2.7,2.85l0.4,1.7l-0.05,0.15l1.85,1.25l1.7,2.5l-0.3,4.2l-1.6,0.5l-3.7,-1.3l-0.85,-1.35l-0.65,0.35l-3.8,-2.2l-0.1,0l-2.5,0.1l-1.9,1l-2.35,3.25l2.45,3.55l0.6,1.2l0.8,0.5l2.2,5.3l0.1,2l1.6,3.25l1.8,5.95l0.1,3.9l-0.7,0.1l-1.4,-4l-0.15,-0.15l-3.35,-3.25l-0.85,-0.05m-0.25,0l-0.5,-0.05l-0.1,8.7l-1,3.3l-2.6,3.3l-0.5,-0.6l0.35,-3.75l0.25,-2.55l-1.8,-4.5l-1.5,-0.5l-0.9,-0.3l-1,0.8l-0.8,2.15l-0.5,1.25l0.1,0.1l-1.5,4.6l-0.9,0.3l0.4,-3.9l-0.05,-0.4l0,-0.1l-1,-8.6l-0.85,-3.4l-1,0.4l-0.4,1.2l-1.9,2.7l-1.5,0.4l0,0.15l0.1,1.15l-1.9,2.7l-1.6,0.6l0,1.3l-1.5,1.95l6.7,6.05l10.2,13.6l0.2,0.25l1.3,1.1l0.4,0.35l-0.25,0.3l1.75,5.8l0.05,0.1l-0.65,0.8l-3.8,-3.8l-0.2,0.2l-1.35,-1.15l-12.35,-10.35l-1.2,2.05l-1.25,-0.15l-1.75,-1.5l-3.55,3.85l0.1,2.8l-0.8,1.55l0.2,1.7l-0.6,1.4l-1.7,1l-0.2,0l0.2,0.6l-0.25,4.7l-0.7,3l-1.35,5.3l-1.8,7.3l-0.6,0.5l-0.15,0.55l0.25,0.5l-4.15,11.9m0,0.5l1.25,6.5l8.5,15.55l5.75,13l0,11.75l-1,15.55l-5.6,2l-2.15,0.75l-4.25,-0.75l-1.25,-7l-6.8,-23.3l0.5,12.75l-0.35,5.2l0.6,-0.65m6.75,-251.75l0.95,1.4m1.35,13.2l-0.15,-4.65l-3,-4.45l-1.65,-0.4l-2.55,-1.4l-0.65,-2.35l-1.35,-0.45l-0.15,1.2l-0.9,0.95l0.1,0.35l0.1,0l1.35,-0.25l1.6,1.55l0.25,1.85l-1.65,2.1l-3,0.1l-0.2,0.1l-0.75,0.35l-0.7,0.2l-0.35,0.1l0,-0.75l1.8,-2.1l-2.25,1.35l-1.15,0.2l-0.8,-0.45l-0.05,-0.85l-0.3,0.15l-0.95,-0.25l0.1,-0.75l-1.15,0.75l-1,-1.45m5.8,4.55l0.55,0.3l0.2,1.1l-0.5,0.65l-0.35,0.4l-0.05,0.05l0.05,0.2l-0.7,0.25l-0.05,1.2l-0.4,0.05l-0.15,-0.2l0.15,0.65l0.1,0.5l-0.45,1.8l5.2,0.6m4.2,-8.7l0.4,-0.5l0.9,-0.2l-0.95,-0.45l-0.85,0.5l-0.75,0.95m4.2,1.6l0,-0.05l-0.85,-1.9l-0.5,0.15l-0.1,0l-0.05,0l0,0.05l0.4,1.25l0,0.35m1.1,0.15l-0.1,1.75l-1.05,0.35l-0.8,-0.4l-0.65,-0.3l-0.15,-2.05l0.6,-1l0.65,-0.15m-0.15,-0.8l1.4,0.6l1.25,0.35l1.1,1.95l0.25,2.2l0.1,0.95l0.25,0.35l0.15,0.15l0.3,0.35l1.35,-0.4l2.05,-0.3l-1.55,0.75l-1.3,1.25l-0.7,0.7l-1.05,1.55l0.9,-0.25l-0.6,1l1.1,0.5l2.35,0.5l1.15,0.2l-3.35,1.3l0.7,0.5l-0.45,0.15l-0.75,0.2l1.2,1.2l3,0.3l2.75,1.3l-3.95,-0.9l-5.6,-0.4l2.45,0.5l5.05,3.45l2.95,0.8l1.8,1.9l-3.3,-1.7l-1.9,-0.3m-0.25,0l-0.2,-0.05l-0.95,-0.55l-0.85,5.2l0.2,2.9l0.15,3.3l-0.5,2.05l1.8,2.2l1.35,1.65l3,0.45l2.7,2.7l1.65,-0.45l2.6,0.85l3.4,3.75l2.6,0.6l2.35,1.65l0.05,0.05m-34.2,-52.2l-0.4,-1.15l-2,-0.2l0.05,0.7l0.2,0.2m-5.8,-0.75l0.55,-1.1l2.8,-0.7l2.15,1.3l0.05,0.35m2.4,1.35l0.1,0.2m-6.45,2.1l0.3,-1.9l0,-0.05l-0.45,-0.85l-0.3,-0.55l-1.15,-0.15l-0.35,-0.05l-1.4,1.4l-0.2,1.2l-0.05,0.2l-0.95,0.3l-0.05,0.8l-0.8,0.15l-0.25,0.8l0.45,-0.15l0.7,0.7l0.45,0.45l0,0.05l1.3,0.1l0,-1.95l0,-0.55l0.2,0.25m4.3,0.85l1.1,-0.7m-2.55,-2.3l0.4,-1.4l1.1,-1.2m3.55,5.6l0.05,-0.05l1.1,-1.55m-6.9,1.45l0.25,-0.2l0.15,-0.7m-1.25,4.3l-0.6,0.8l-1.35,0.3l-0.25,-0.15l-0.3,-0.25l0.8,-1.05l0.5,0.45l0.55,0.05l-0.2,-1.2l0.95,-0.2l0.2,0.85l-0.3,0.4m-2,2.85l-0.15,-0.65l0.2,-0.15l0.4,-0.4l1.85,0.55l0.25,1.15m1.45,-0.4l-0.05,-0.45l0,-0.15l0.4,-0.75l0.65,-0.15l0.65,-0.15l0,0.05l0.65,-1l0.2,0.1m-2.5,-3l1,-0.7m3.6,0l-0.35,0.45m-1.8,-1.8l0.3,-1.1m-1.05,7.1l-0.05,-0.05m0.7,1.6l-0.05,-0.05l-0.6,-1.5m-1.7,1.55l0,0.05l0.85,1.15l0.25,0.3m-0.75,0.05l-0.95,-0.8l-0.5,0.1l0,0.1l-0.05,0.35l-0.05,0.25l0.9,1.3l0.85,-0.1l-0.05,-0.45l-0.15,-0.75m-2,-0.3l0.3,-0.35l-0.1,-0.5m-0.3,0.95l0.1,-0.1m-0.1,0.1l-0.4,0.45l-1.3,-1l-0.45,-0.35l-0.1,-0.55m-0.6,0.5l-0.1,0.2l-0.5,0.6l-0.65,-0.45l-0.15,-0.6l-0.05,-0.1l0.3,-0.25l0.3,-0.3l0.85,0.9m-1.6,-1.1l-1.45,-0.15l-0.35,-0.35l-0.5,-0.45l-0.55,-1.25l-0.15,0.1l-0.35,0.2l0.05,-0.15l0.4,-1.55l0.35,-0.2l0.35,-0.2m-1.65,3.8l1.3,0.55l0.7,0.6l-0.25,1.05l-0.05,0l-0.9,0.05l-0.1,0l-0.3,-1.3l-0.7,-0.4l-0.05,-0.05l0.3,-0.55l0.05,0.05m10.95,5.35l-0.05,0.25l0.35,1.95l2.1,1.7l2.9,0.95m2.05,-4.35l-1.3,0.2m3.45,6.4l-0.45,-0.7l-2.45,-1.15l-1.3,-0.4m6.8,-13.05l0.8,1.95l0,1.05l-0.65,1.45l-0.25,0.15m-4.65,4.1l1.05,-0.15l1.7,-1l1.75,0.35l1.5,-1.35l1.35,-2.05m-4.3,-0.8l0.75,-1.05l0.1,-0.8m-2.4,0.25l-0.05,-0.45m0.4,1.85l-0.1,-0.25m2.55,1.5l-0.4,0.2l-0.95,-0.05l-0.2,-0.15m6.45,10.4l-2.55,-0.3l-3,-1.4l-0.8,0.15m13.1,5.35l1.05,-1.5m6.3,11.75l-0.05,0l-0.75,0.45l-0.25,1.8m1.1,-2.3l-0.05,0.05m-3.2,-1.4l1.3,-2.55m-19.25,-9.95l0.35,0.5l-2,-0.6l-0.4,0.6l0.3,-0.05l1.85,1.95l1.4,-0.6l3.2,0l4.2,2.4m-19.6,4l0.1,0.2l-0.8,5.5l0,0.1l-3,9.2l-0.9,0.3m29.3,7.85l0.35,-1.65l-0.25,-2.1m-19.3,-27.2l0.75,0.2l-0.4,-0.9l1.2,0.9l1.6,-0.1m-6.4,-0.2l0.25,1.4l-0.4,2.4l0.35,0.7l2.2,-2.4l0.85,-2l-2.1,-0.55l-1.15,0.45l-2.55,0.95l-0.75,2.15l-0.45,-0.25l-0.05,-1.25m-0.75,0.05l-1.1,1.3l-1.8,-0.55l-0.7,1.9l-0.55,-0.35l-0.45,-2.15l-1.05,-0.3l-0.35,1.3l-0.4,0.85l-0.65,-0.15l-0.45,-1.45l-0.95,0.35l-1.3,2.1m10.3,2.35l1.35,0.45l-1.4,-2.2m0.2,-3.7l0.05,0.2m1.25,-0.65l-1.3,0.45l-0.7,0.25m2.3,6.25l-0.4,-0.6m27.15,17.2l0.7,-0.15m-2.75,6.7l-0.7,2.3l-0.2,3.55l1.45,3.65l5.9,5.05l1.55,1l2.5,1.55l-2.55,-3.2m-7.6,-15.55l0.05,0.35l0.25,-1.7l-0.3,1.35m-34.05,34.25l-0.45,1.2l-0.6,2.9l0,0.05l-0.55,2.95l-0.8,1.75l0.05,0.1l-0.2,0.45l-0.05,0.1l-0.45,1l-0.3,0.25l0.45,5.25l1.3,4.7l0.25,-0.05l1.5,0.25l0.8,0.15l1.75,1.35l0.3,2.05l0.7,0l1.9,1.7l0.15,2.45l-0.7,1.2l0,0.05l1.5,1.9m15.15,-9l-0.05,-0.1l0.15,-3.85l-1.2,-4.1l0.5,-1.8l1.6,-5.5l0.2,-0.65l0.65,-0.35l0.25,-1l0.4,-1.65l3.5,-3.9l1.85,-4.5l4.45,-3.9l3.1,-3.8l3.1,-2.95l0.95,-0.15l0.55,-1.6m8.55,-13.6l1.7,3.3l0.4,1.4m-54.1,-49.8l-1,-3.15l1.2,0.95l0.5,-0.65l-0.1,-3.35l1,0.8m2.35,0.6l0.6,-0.85l0.1,-0.05m-1.45,2.35l-0.1,-0.3l0.85,-1.15m-0.65,2l-0.1,-0.55m3.05,-1.3l-0.05,1.2l-1.3,2l-1.3,-0.2m-0.25,-6.95l0.9,2.15m-6.65,20.7l-1.55,0.45l-10,5.9l4.35,-3.3l4.25,-2.3l2.55,-2.05l-0.75,-0.45l-5.2,0.15l3.3,-0.7l2.5,-0.15l1.4,-0.7l0.05,0l-0.4,-1.3l0.35,-2.45l0.05,-0.1l0.85,-2.25l0,-0.05l0.05,-0.7l-0.05,0.05l0.05,-0.15l-0.6,-0.4l-0.2,0l0.2,-0.55l-0.6,-0.8l0.6,-1.6l0.9,-0.6l0.3,-0.2m0.2,2.7l-0.55,-0.1l-0.85,0.6m1.4,-0.5l0.75,0.1l-0.1,0.65l-0.45,0.45l-0.65,0.25l-0.35,0.1l0,-0.1m4.85,0.1l-0.6,-0.45l-0.5,0.05l0.05,1.3l0.15,0.15l0.5,0.55l-0.2,-1.1l0.6,-0.5l0.45,0.5m-6.1,6.75l-0.6,1.7l0,0.05l-0.4,1l-0.35,1.05l-0.05,0.05l-1.15,1.65l-0.45,0.6l0.1,0.55l0.2,1.6l0.35,0.25l0.15,0.1l0.1,0.05l0.6,-0.95l1.05,-1.65l0.55,-0.95m5.15,-10.75l0.85,0.1m-1.4,-8.75l0.3,1.15m-67.75,10.25l2.5,-3.8l4,-3.2l5.1,-2.8l1.8,-0.6m4.2,9.1l-0.1,-1.6l2.75,-3.5l-1.2,-0.75l-1.7,-0.55l-2.4,-2l-0.15,-1.15l1.5,-0.2l1.35,-1l-0.6,-0.35l-3.1,0.65l-3.6,1.35l-3.35,2.05l-2.2,1.05l-5.6,4.95l-4.85,9.15l-0.2,5.35l0.45,0.05l1.2,-2.95l2.95,-7.45l1.25,-1.8m18.55,2.05l-0.15,-0.1l-0.75,-1.5l-0.05,-1.75l2.35,-3.1l1.4,-0.45l1.35,0.85l-0.2,1l-0.6,-0.1l-0.35,-0.4l-1.15,2.9l0.5,2.55l1.65,-0.55l3.85,-2.95l-4.9,-10l-1.3,-5.15l2.35,6.6l2.7,4.1l0.9,0.75l0.4,-1.05l-0.9,-4.5l-0.85,-2.35l-0.9,-5.05l3.35,10.65l1.95,2.95l0,0.05l0.7,0.4l0.75,-0.2l1.2,0.45l0.4,1.3l2,3.95l-0.2,0.85l-0.8,0.15l-1.9,-1.7l-1.45,-0.25l-0.3,0.2l-4.1,2.5l-0.95,1.1m-0.15,0.2l-1.35,1.4l-0.3,0.35l-0.05,0.15l-0.35,1.2l0.25,0.75l-0.4,6.3l1.1,1.4l0.1,0.15l1.5,0.25l0.25,-0.05l1.55,-2.75l1.25,-0.5l1.5,0.6l0.05,-1.1l-1.7,-1.2l3.2,0.7l-0.15,0.65l-0.5,0.2l0.05,1.45l0.3,-0.05l1,0.3l-0.2,0.7l-0.8,0.75l-0.7,1.75l-2,-0.6l-1.15,-0.1l-3.5,0.9l-1.8,-0.2l0,-1.05l-0.55,-0.9l-0.05,-0.25l-0.65,-4.5l-0.05,-1.35l-0.35,0l-0.15,-0.05l-2.7,2.3l-0.5,4.35l-0.35,1.15l1.05,3.45l5.95,7.1l-0.65,7.9l1.25,1.1l1.75,0.7l3.6,1.4l1.85,2.3l2.15,1.15l0.65,0.5l1.3,3.3l2.2,2.25l1.2,0.8l2,4.55l2.45,2.05l0.15,0.1l0.05,0.05l1.9,2.8l2.8,-3.1l2.2,-6.75l1.65,-1.5l0.3,-1.05l-0.25,-6.55l0.95,-2.3l6.2,-6.45l1.35,-0.8l3,0.8l0.9,0.4l0.4,0.15l1.75,-0.75l1,-1.3l1.85,-1.55l0.7,-1.45l0.45,-0.1m-44.15,-31.95l0.7,0.6m-0.45,3.1l0.2,-0.15l0.65,-0.9l0.4,-1m2.25,-0.55l0.05,0l0.3,1.15l1.35,0.55l0.65,-0.15m-2.95,17.25l0.15,-0.95l0,-0.05m-8.55,-11.7l-0.4,0.15l-0.75,0.75l-0.2,0.15l0.8,0.1m-5.35,4.6l2.35,-3.8l1.5,-1.05l0.7,0.15m0.2,-0.15l-1.2,-0.8m-22.75,7.2l2.6,-2.75l2.1,-0.1l1.6,2.25l-0.25,1.75l2.1,-3.4l4.75,-1.1l0.75,1.95l-0.75,2.7l-0.8,1.55l2.75,-2.35l2.15,-2.65l0.55,-0.05l0.8,-0.05l0.85,0.7l-1.7,2.65l-8.45,4.95l-1.15,-0.25l-1.4,-1.15l-0.6,-0.05m10.7,2.9l0.3,-3.05l1.95,-2.15l0.6,-1.1l0,-0.4l-1.35,1.3l-1.3,0.3l-7.2,4.3l-1.2,1.7l-0.6,-0.15l-0.5,0.65l-1.45,0.2l1.15,-0.75l0.5,-0.6l0,-0.75l-0.95,-0.7l-0.15,0.5l-1.15,1.5l-0.55,-0.45l0.45,-0.55l0.35,-0.9l-0.3,-0.15l-1.25,0.25l-0.95,1l-0.45,-0.25l1.6,-1.6l-0.65,-0.4l-2.45,0.25l0.15,-0.5l2.75,-0.75l1.95,0.35m13.55,-3.8l1.95,-1.95l0.85,0m12.35,6.25l0,1.2l-0.55,0.9l-0.65,0.65m-0.25,-1.05l0.35,-1.4l-1.25,-1q-0.35,0.2 -0.75,0.35l-0.65,1.95l1.2,0.8l1.1,-0.7m-29,-1.15l1.05,0.6m-2.2,15.85l-2,-2.3l-1.25,-6.1l1.25,-2.35l1.75,0.55l1.55,2.85l0.05,2l1.55,-2.8l-5.85,-6.85l-3.3,6.55l0.9,4.8l0.05,4.45l0.9,-0.4l1.15,0l0.6,-0.05l2.65,-0.35l1.15,-0.2l1.2,0.1l3.55,-1.5l0.1,-0.05l-1.4,-3.8l0.3,-2.15l2.5,-5.75l2.55,2.2l0.45,1.95l-0.9,1.6l0.5,-1.7l-1.85,-1.65l-1.1,4.45l1.75,2.75l3.2,-2.45l1.05,-3.55l0.55,-4.85m3.3,16.1l4.5,2m1.5,0.65l0.65,0.3l0.15,0.1l0.05,0.05m-5.65,2.95l-12.85,-5.3l0,0.05l3.2,2l0.05,1.65l-9.75,0.7l-3.75,1.65l-1.8,2.2l0.55,0.15l3.6,-1.65l4.05,-0.3l4,0.75l-0.2,0.75l-4.05,1.1l-3.75,2.9l-0.7,1.25l0.7,0.1l4.3,-1.95l6.35,-0.75l2.15,-0.75l3.3,1.05l2.15,-0.8l2.25,-2.45l0.7,-0.8l-0.05,-1.35l-0.45,-0.2m-12.1,-9.2l2.8,-2.1m-14.1,4.55l-1.55,0.7l-0.2,0.65l0.85,-0.2l0.15,-0.05l2.8,-1.5m-2.8,1.5l1.25,0.45l4.95,-0.9l5.1,0.8m1.25,14.4l-1.55,1.55l0.35,0.8l5.65,-1.25l4.55,-0.05l2.25,-2.7l4.6,-1.6l1.45,-1.5m-10.3,1.25l-2.95,1l-2,0.3l-2.05,2.2m10.4,-15.15l-1.9,-0.9l-12.65,-0.7m20.55,4.25l-1.5,-0.65m3.45,8.8l0.7,1.75l0.65,1.65l1,0.6l1.9,1.7l0.35,1.9l1.35,1.4l1.25,2.65l0.25,2.9l2.4,5.15l0.05,0.1l0.4,2.05l1.3,2.6l0.25,1.65l1.1,1.25l10.45,-9.85l0.05,-0.05l0,0.05l-4.65,7.85l-0.6,4.5l9.4,-10.5l9.15,-6.65m0.45,-0.05l-0.25,-1.15l-0.1,-0.55l1.35,-3.55l-2.7,-4.3l0.6,-1.25l0.45,-0.9l0,-0.3l-0.15,-1.1l1.2,-1.9l0.05,-0.1l0.05,-0.2l0.25,-1.3l0.6,-3.3m-38.7,6.85l0.15,0.4m-2.5,1.1l3.2,0.65m45.35,-39.5l-1.7,-0.6m-5.35,-2.8l0.1,0.4m2.35,2.65l1.65,-0.65l0.2,0.1m-3.65,6.6l-0.05,-0.15l-0.75,-1.4l-0.2,-1.1m1,2.65l0.05,0.7l-1.15,-0.6l-0.8,0.15l-0.05,0.75l-0.7,-0.25l-0.2,-0.75l-2.5,2.15l-1.2,0.3l-4.2,2.1l-1.35,0l-2.2,0.75l-2.4,-0.2l0.95,0l3.9,-1.2l2.15,-1.05l3.25,-1.1l2,-1.8l0.7,-1.85l-1.5,0.7l-1.85,0.3l-2.65,1l2.3,-1.4l2.35,-0.8l2,-1.1m12.95,1.95l-1.95,-0.65l-4.3,-0.1l-2.25,1.35l-1.35,0.65m-2.05,-1l0.2,0.2l0.7,0.85l0.05,0.05m-2.65,-2l0.3,-0.15m0.55,1.85l0.05,0.2m0.95,0.25l0.05,-1.05m2.9,40.25l3.95,1.3m-15.75,-7.8l-0.55,2.05m13.9,20.55l0.35,-1.1l-1.25,-2.95l-0.95,0l-2,-2.15l-0.2,-2.2l-0.7,-0.9l-0.1,-0.65l-0.2,-0.9m4.15,6.8l0.75,0m-3.9,-12.05l0.2,0.35l0.25,0.15m-2.85,30l-1.7,-0.7l-1.55,-2.6l0.5,-2.65l2.3,-2.3l1.95,0.55m0.25,0.05l0.1,0m7.4,-1.85l0,1.7l0.25,0.3l1.3,1.55l-2.15,6.65l-0.45,0.15l-0.65,0.15m-21.95,-23.55l-0.65,0.65m-7.8,11.35l-2.8,2.65l-0.9,1.4l-14.65,22.2l0.9,-12.2l-4.5,8.25l-4.3,9.05l-1.25,-4.35l-3.85,12.2l-0.95,8.2l-1.2,-6.35l-2.45,18.75l-2.55,-4.45l1,7.05l0.45,3.2l3.85,8.5l4.35,2.8l8,2.3l5.25,0l7.3,-3.7l1.65,-2.5l0.35,-2.4l0.45,-3.6l-0.95,-6.35l-2.3,6.95l-2.6,1.7l-7.45,-1.85l-2.75,-2.45l-1.85,0l1.05,-1.55l-1.05,-5.8l1.35,-9.65l2.8,-4.95l0.3,-2.9l1.1,2.3l4.45,-5.85l1.85,-4.35l0.25,0.85l0.4,1.45l4.45,-5.05l7.3,-5.55l0,-0.05l12.8,-6.15l1.85,-2.65l0.15,2l4.5,-0.9m0.6,0.3l0.95,-2l-0.25,-1.05l0.55,-1.8l1.2,-1.1l0.15,0.05l-0.05,-0.1l-0.85,-2.65l0.05,-0.05l0.7,-1.95l2.5,-0.3l0.55,0.7l0.35,0.4m0.5,-1.1l0.15,-0.55m0.8,11.85l-0.45,0.1l-1.35,0.8l-0.55,0.3l-0.95,1.7l-0.2,2.15l0.45,0.95l0.2,0.3l0.4,0.5l0.25,0.3l2,0.1l0.2,-0.05l0.75,-0.25l0,-0.1l0,-0.05l-0.3,-0.5l-1.45,-0.15l-0.45,-0.65l0.35,-1.35l0.1,-0.4l1.25,-1l0.45,-0.4l1.55,0.25m-4.05,-13.15l0.05,0.65m-4.6,7.6l0.35,-0.75l0.8,-0.25l0.35,4.55l-0.95,3.05l-0.85,1.65l-0.85,0.15l-0.9,-1.5l0.05,-0.2l-0.85,0.1l-0.45,1.1l0.35,0.7l0.75,1.6l0.4,0.8l1,0.7l1.5,-0.55l0.25,-0.95l1.5,-1.45m-5.4,-0.15l-0.65,0.05l-0.65,2.15l1.85,5.05l1,2.75l4.55,7.3l2.8,3.2m-3.1,-9.05l-1.15,-1.55l-0.75,-0.6l-0.9,-2.6l0,-0.25l-1.85,-4.05l-0.05,0l-0.35,-0.8m0.2,-3.5l0.55,-3.65l0.5,-1.05m4.25,6.35l-0.4,1.45l0.1,0.65l0.15,0.9l1.35,1.2l0.85,-0.2l0.45,-0.1l0.8,-0.7l0.1,-0.25l0.45,-1.1l-0.15,-0.25l0.1,-0.7m-3.2,-0.1l-0.15,1.7l1.15,0.7l0.95,-0.2l0.75,-1l-0.25,-0.85m-5.65,1.65l-0.6,1.85l-0.05,2.05m2.95,-4.6l-1.15,1.25l-0.4,2.6l0.3,2.3l0.9,0.85l1.5,-0.4l1.3,-2.45l-0.1,-2.25m5.6,-6.25l-0.2,0l-0.85,0l-2,1.3l-0.15,0.4m3.9,0.4l0.25,0l0.15,0.2l0.6,0.8l-0.25,0.8l0.6,1.45m-3.5,-2.2l1.05,-1.1l1.1,0.05m-1.75,-2.1l-0.45,-1.05l-0.85,-0.15m-3.35,1.55l1.55,2.15m2.55,1.6l0,-0.8l0.15,-0.15m0.8,2.25l-1,-0.45l0.05,-0.85l0.95,1.3l0.75,1.1l0.7,0.75l0.9,0.95l0.95,1l1.4,1.15l2.4,-0.15l-2.25,-2.05l-0.65,-0.85m-5.15,-0.85l0.35,0.2l1.35,-0.15m-1.7,-0.05l-0.7,-0.4l-0.5,3.2l0.1,0.85l0.15,1.65l0,0.2l0.85,1.75l0.55,0.45l0,-0.55l0.4,-1.5l-0.5,-1l-0.4,-2.7l0.05,-1.95m-2.2,-2.35l0.8,1.55l0.7,0.4m-6.95,6.35l2.05,1.55l1.75,-1.15l1.25,-2.5l0.55,-2.8l-0.6,-2.3m5.05,2.05l0,0.05l-0.35,4.55l-0.2,0.25l-0.3,0.35l-0.4,1.7l0.05,0.25l1,-0.5l0.1,-0.05l0.4,-1l0.15,-0.45l0.5,-2l-0.05,-2.2m-5.55,-5.15l0.65,-1.35m4.3,0.6l0.35,1.6m-10.75,-13.9l2.35,7.45m11,12.9l-0.65,0l-0.7,0.6l2.9,1.2l1.15,0.9l1.25,-2.15l0.75,-0.1l0.5,0.25l-0.7,-0.95l-2.1,0.1m-5.6,4.7l-0.25,-1m1.5,0.55l0.2,0.3l0.3,1.45l0.6,-0.9l0,-1.95l-0.9,-1.35m-0.2,2.45l-1,-1.6m-0.85,-0.75l-0.95,-0.15l-0.05,0.15m0.35,6.8l-1.35,0.4l-1.2,-0.1l-0.85,-1.25l-0.4,-2.7l0.4,-2.45l1.25,-1.05m-0.15,-1.65l-1.7,1.3l-1.05,2.7l0.35,3.25l0.5,1.5l0.2,0.6l1.45,1.35l0.1,0.1l2.05,0.4l0.4,-1.2l0.45,-0.55l-0.45,-0.65l-0.5,-0.85l-0.35,-2.2l0.1,-1.7m2.65,3.65l0,-0.05l-0.85,0.6l-0.1,-0.15l-0.75,-1.35l-0.2,-2.45m3.2,2.9l-0.2,-1.1m0.2,1.1l0.1,0.5l-0.05,0.8l0.3,0.15l0.8,-1.75l0.25,-0.55l0,-0.15l0.3,-1.8l-0.2,-1.95m-1.9,7.5l-0.25,0.35l-0.95,0.15l-0.45,-0.2l-0.4,0.5l-0.25,1.4l-0.1,0.65l0.45,1.35l0.2,0.55l0.95,0.5l0.15,0l0.9,-0.75l0.1,0.05l-0.25,-1.3l0.1,-1.45l0.4,-1.45l0.1,-0.45l0.6,0.35l0.1,0.2l0.65,1.65l0.35,0.85l-0.05,1.55l-0.35,0.55l-1.65,-0.5m-0.35,-4.55l0.3,-0.45l0.15,-1m-1.2,0l-1.3,0.5l-0.3,0.45m0.7,0.8l0.5,-0.65l0.45,-0.9l-0.05,-0.2l-0.15,-0.8m3.1,2.2l-0.5,-0.8l-0.95,-0.45m-1.65,-1l-0.65,-2.85m-14.2,-5.15l-0.75,3.35l-0.95,1.25l-1.6,5.45l0.1,0.65l-3.05,4.35l-0.2,0.95l0.05,5.1l-0.55,1.75l0.2,1.3l0.45,0.6l-0.15,3.65l0.7,8.85l-1.2,11.7l0.4,2.9l0.45,1.5l-0.05,4.6l27.8,-30.95m-1.35,-1.2l-2.4,0.15l-2.5,-2.1l-1.4,-2.9l-0.5,-2.55l-2.65,-2.3l-2.5,-2.85m3.9,-0.85l-0.05,0.15l0.15,0.75l0.35,1.8m1.2,1.4l-1.2,-1.2l0,-0.2m1.95,1.75l-0.45,-0.05l-0.3,-0.3l-0.4,1.9m3.85,-2.1l-0.4,-0.45l-0.7,-0.25l-1.15,-0.05m1,1.15l-0.5,0.15l-0.95,0l0.05,2.25l0.05,0.25l2,1.25l2.95,1.1l0.2,-0.95l-0.4,-1.1l-0.55,-1.3l-2.85,-1.65l1.25,-0.4l1.4,1.7m1.1,-0.75l-0.05,-0.1l-1.6,-1.5l-0.25,-0.25l-0.2,-0.05m-3,4l0.35,1.4l1.55,2.35l1.5,0.7l1.25,-0.75l0.1,-0.5l0.2,-0.85m-5,-2.6l0,0.2l0.05,0.05m-6,-10.25l-3.5,-4.9m7.1,9.1l-1.95,-2.25m2.15,0.5l-0.3,0.85m51.25,-46.4l-0.05,0.8l-1.8,2.6l-1.25,5.75l2.5,6.7l-0.6,2.2l-1.6,0.7l-0.2,1.8l-2.6,1.8l-0.7,2.7l-4.4,3.4l-2.2,4.3l-2.6,6.5l-1.7,2.4l0.4,1.3m0.65,0.1l0.05,-0.3l1.5,-1.4l0.7,-0.05l0.8,-1.75l0.3,-1l1.9,-2l0.1,-0.9l1.7,-1.5l3.2,1.2l0.9,3.6m10.8,-23l-2.2,-2l0.15,-1.7l-1.65,-1l-2.5,-3.9l0.5,-1.5l3.7,-1.4l3.65,2.4l0.35,-0.3l3.35,1.25m-11.15,-7.8l0,-0.85m-8.1,-13.05l2,6.15l2.8,5.05l3.3,2.7m7.45,6.85l-0.75,0.6l-1.35,2.05l-1.55,2.25l-0.05,0.5m15.2,7.75l1.7,-3.5m-14.85,-0.55l7.4,4.5m-7.3,3.5l-1.2,-5.5l1,-1.7m0.75,8.05l-0.55,-0.75l0,-0.1m11.7,-12.15l-2.45,-2.5l-1.55,-0.6m4.15,13.6l0.15,-0.1l1.05,-2.2m-48.55,-13.8l9.05,-5.5l8.05,-7.6l-5.1,2l-4,0.8l6.65,-4.2l6.85,-5.6l-0.4,-1.2l-0.45,-0.6m-18.35,45.6l0.5,0.05l0.6,-2.1l2,-0.5l1.5,1.4l-0.5,1.9l-1,0.9l0.1,0.1l0.2,0.55l1.5,-0.75l0.8,-1.6l0.2,-2.6l-1.9,-1.8l-2.1,0.2l-0.1,0l-0.3,0l-1.4,2l-0.1,2.25l-0.3,-0.05l-0.9,1.65l0.05,0.35l0.4,1.3l0.55,-1.2l0.45,0.25l0.95,0.45l0.3,1l0.05,0.25l0.35,1.25l-0.25,0.45l-0.8,1.25l-0.65,1.05l1.15,1l0.15,0.15l0.4,-0.1l1.1,-0.25l0.5,-0.15l0.25,-0.5l0.65,-1.5l1.3,2.7l0.6,4.4l-0.1,-0.1l-0.1,3.3l1.1,0.75m-6.3,-17.6l-0.4,-0.05m2.6,1.6l-1.2,-1.4l-1,-0.15m-2.1,1.5l-2.95,-8.95m6.05,3.1l-0.1,-0.15l-6.55,-12.8m8.3,20.9l0.15,-0.35l-0.3,-1.05m-0.3,2.45l0.45,-1.05l0.75,1.25l0.1,1.7m3.3,10.3l2.3,-2.5l1,-0.3l0.15,-1m-9.5,-7.45l0.85,-0.25l0.3,-0.1l0.3,-0.6l0,1.8l-0.8,0.9l-0.45,0.05l-0.35,0.05l-0.65,-0.6m1,0.55l0.65,-2.05m-0.6,3.6l-0.1,2.1l0.5,2.6l0.95,0.75l0.95,0.55l1.2,-0.3l-0.1,-0.5l-1.75,-0.85l0,-0.05l-0.55,-2.5l0,-2.05m2.2,4.1l1,0.75m-1,-0.75l-0.25,-0.2l-1.15,0.35l-0.25,0.3m1.85,1.4l0.1,0.7l-0.25,0.9l0.85,0.6m-2.35,-8.8l1.25,2.6l0.2,2.15m7.4,8.7l-1.3,-1.15l-4.1,-2.75m-1.95,-1.35l-0.15,-0.1l-4.75,-2.4l-4.05,-2.05m3.9,-3.8l-0.4,0.55l-2.2,1.6l-2.45,1.1l1.15,0.55m-4.5,-2.65l3.7,-1.3l3.6,-4.3l0.15,-0.3m-4.1,8l-2.35,-1.2l-1.15,-0.55l-0.85,-0.45l-4.2,-3.25l-2.1,2.65l0.45,0.45l1.9,1.8l1.75,1.7l1.95,1.85l3.05,2.95l0.7,0.65l20.3,17m-14.25,-21l0.25,-2.4l0.75,-2.45m-14.95,-3.6l0.35,0.2l-0.15,0.2m-2.1,2.65l-0.1,0.15l-0.55,-0.6l0.1,-0.6l-0.05,0m-2.55,3.25l1.65,-1.15l1.95,-0.6m-3.6,1.9l-0.05,0.1l-0.2,0.45m0.7,3.05l0.9,-1.7l1.8,-1.55l2.35,-0.45m-5.1,3.65l0.05,0.05l0.8,1.35l0.05,0.1l0.35,2.25l-0.3,1.1l-0.7,0.55m6.6,-7.35l0.25,1.9l-0.95,3l-1.6,2.1l-1.8,0.95l-0.85,-0.1m0.35,1.85l2.15,-0.75l2.5,-1.9l1.55,-2.45l0.35,-2.75m0.65,1.8l-1.25,2.45l0.2,2.95l2.15,2l1.9,-2.1l-1.55,-1.35l-0.15,-1l1.1,-1.8m-9.6,4.9l0.4,0.9l1,0.35m-1,-0.35l0.2,0.5l0.35,0.8l0.15,1.95l4.3,0.45l2.9,-3.25m-9.55,-1l-0.1,-0.25l-0.1,-0.1m2.55,4.5l0.05,1.1l-1.05,2.2m1,-3.65l0,0.35m0.7,-3.1l1,0.35l4.5,-0.15m-7.65,-2.35l0.35,0.75m16.85,23.5l-1.05,1.15l1.9,0.8l2.15,0m3,-8.45l-0.05,-0.4m0.05,0.4l-1,1.05l0.05,2l-0.9,0.7l-0.9,0.5l0.6,0.55l0.4,-0.1l1.05,-0.35m-5.3,2.15l2.1,0.55l1.75,-0.3l0.4,-2.05m-10.9,-22.45l16.2,13.9m-4.55,4.9l-5,5.45m-11.45,-18.9l-3.95,4.4m40.65,-10.65l-0.6,-0.7l-1.05,1.3l-0.25,0.1l-0.05,0m5.55,20.35l-0.1,-0.05l-1.8,2.9l-0.85,0.85m4.2,-1.95l-0.15,-0.65m-2.5,3.55l2.65,-2.9m-48.55,49.4l0.9,6.5l6.25,17.3l0,-1.5m-11.9,-38.65l0.9,7.1l3.75,8.5l0.1,0.75l-3.95,-3.35l-3.65,-4.65l0.5,-10.25m-0.65,-0.6l-15.45,16.8l-13.2,14.3l-4.8,3.3l-8.75,1.25l-3,-1.75l-0.75,-6.8l2.75,-8.5l1.15,-2.65l24.85,-27.7m2.3,29.1l0,4.5l3,1.85l1,0.65m-1,-0.65l3,8.45l8.05,11l2,11.2l2.45,6.75l8.35,2.6l3.1,-3.1m-3.1,3.1l2.45,0.75m-3,-0.25l0.55,-0.5m-9.55,-66.25l-2.4,2.55m24.95,-27.05l-22.55,24.5l0.6,5.05"/>
   <path id="svg_74" stroke-width="0.05" stroke-opacity="0.423529" stroke-linejoin="round" stroke-linecap="round" stroke="#663300" fill="none" d="m74.25,36.75l-0.8,0.9l-0.05,1m-1,0.65l0.7,-0.1m0.75,1.8l0.35,-0.1m-3.3,5.65l0.9,-1l0.25,2.7"/>
   <path id="svg_75" stroke-width="0.05" stroke-linejoin="round" stroke-linecap="round" stroke="#a39550" fill="none" d="m95.3,61.15l-0.4,-2.05m0.4,2.05l0.95,4.85m2.4,-4.2l-0.6,-1.3m-1.5,7l-0.3,-1.5m3.45,-0.45l-1.05,-3.75"/>
   <path id="svg_76" stroke-width="0.05" stroke-linejoin="round" stroke-linecap="round" stroke="#ff0099" fill="none" d="m9.95,61.75l1.25,1.05"/>
   <path id="svg_77" stroke-width="0.05" stroke-linejoin="round" stroke-linecap="round" stroke="#fdf9f7" fill="none" d="m81.05,35.9l-0.75,0.35"/>
   <path id="svg_78" fill-rule="evenodd" fill="#c2af5f" d="m138.45,149.2l0.05,7.95q-0.9,-5.3 -7.1,-12.8l0.2,-4.45l3.35,2.65l3.5,6.65"/>
   <path id="svg_79" fill-rule="evenodd" fill="#c2af5f" d="m88.95,86.15l-4.05,5.2q3,-3.1 9.25,-5.85l2.1,-3l-2.6,0.55l-4.7,3.1"/>
  </g>
  <g id="shape2">
   <path id="svg_80" fill-rule="evenodd" fill="#7b4218" d="m2.3,87.25l48.9,-54.85l-1.85,-10.35l-0.65,-3.6l16.6,-18.45l16.2,13.9l-59.35,64.4l-2.9,-2.15l-4.25,5.4l-0.6,4l-1.9,1.3l-8.75,1.25l-1.45,-0.85m24,-24.4l-2.5,1.35l-0.35,4.35l4.05,0l-1.2,-5.7"/>
   <path id="svg_81" fill-rule="evenodd" fill="#e3ab18" d="m48.7,18.45l0.65,3.6l-37.05,42.4l-12.05,17.35l-0.25,-2.25l2.75,-8.5l1.15,-2.65l44.8,-49.95"/>
   <path id="svg_82" fill-rule="evenodd" fill="#be8617" d="m49.35,22.05l1.85,10.35l-48.9,54.85l-1.55,-0.9l-0.5,-4.55l12.05,-17.35l37.05,-42.4"/>
   <path id="svg_83" fill-rule="evenodd" fill="#661140" d="m14.4,85.55l0.6,-4l4.25,-5.4l2.9,2.15l-4.85,5.25l-2.9,2m11.9,-22.7l1.2,5.7l-4.05,0l0.35,-4.35l2.5,-1.35"/>
  </g>
  <g transform="matrix(1,0,0,1,0,-3.4) " id="shape3">
   <path id="svg_84" fill-rule="evenodd" fill="#241f17" d="m57.75,3.4l1.55,0l3.95,8.5l-63.25,70l30.4,-36l-7.4,4.9l6.9,-6.9q0.6,-4.5 -8,2.5l5.05,-4.7q10.8,-8.7 5.2,0.7l13.1,-12.7l4.6,-5.8q3.65,-10.55 -10.8,4.25l9.7,-12.55q8.3,-3.6 9,-12.2"/>
   <path id="svg_85" fill-rule="evenodd" fill="#151017" d="m72.35,15.35l0,1.75q-8.05,1.7 -10.7,10.15l-11.5,10.9q13.2,-15.9 3.1,-11.15l-5.3,5.15l-11.3,14.3q8.75,-6.55 1.25,5.1l-4.15,5.5q6.05,-9.25 1.65,-8.15l-6.2,7.55l4.15,-7.85l-32.7,33.85l63.2,-70l8.5,2.9"/>
  </g>
  <g transform="matrix(1,0,0,1,-71.35,-27.35) " id="shape4">
   <path id="svg_86" stroke-width="0.5" stroke-linejoin="round" stroke-linecap="round" stroke="#4d3e26" fill="none" d="m71.6,41.45l0.75,1"/>
   <path id="svg_87" stroke-width="0.05" stroke-linejoin="round" stroke-linecap="round" stroke="#dcc441" fill="none" d="m90.65,30.6l1.4,1.35l0.1,1.5m-7.95,-6.1l-2.2,0.5m10.15,6l-1.45,1.6m-4.45,-7l-1.8,-1.1m-5.95,4.7l-0.15,0.9l-0.85,0.1m3.4,-4l-1.15,1"/>
   <path id="svg_88" fill-rule="evenodd" fill-opacity="0.470588" fill="#6a4520" d="m98.25,71.45l0.7,-0.2l0.7,0.2l0.3,0.5l-0.3,0.5l-0.7,0.2l-0.7,-0.2l-0.3,-0.5q0,-0.3 0.3,-0.5m-2.65,14.8l0.7,0.25l0.3,0.6l-0.3,0.6l-0.7,0.25l-0.7,-0.25q-0.3,-0.25 -0.3,-0.6q0,-0.35 0.3,-0.6q0.3,-0.25 0.7,-0.25m5.15,-4.6q0,-0.4 0.35,-0.7q0.4,-0.3 0.9,-0.3q0.5,0 0.85,0.3q0.4,0.3 0.4,0.7l-0.4,0.7q-0.35,0.3 -0.85,0.3l-0.9,-0.3q-0.35,-0.3 -0.35,-0.7m-11.85,0.35l-1.8,0.35l-1.8,-0.35q-0.75,-0.3 -0.75,-0.75q0,-0.45 0.75,-0.8l1.8,-0.3l1.8,0.3q0.75,0.35 0.75,0.8q0,0.45 -0.75,0.75m1.6,12.05q0,0.5 -0.45,0.8l-1.1,0.35l-1.1,-0.35q-0.45,-0.3 -0.45,-0.8q0,-0.5 0.45,-0.85q0.45,-0.3 1.1,-0.3q0.65,0 1.1,0.3q0.45,0.35 0.45,0.85m2.8,-2.65l-0.6,0.15l-0.6,-0.15l-0.25,-0.4q0,-0.25 0.25,-0.4l0.6,-0.15l0.6,0.15l0.25,0.4l-0.25,0.4m-0.9,4.6q0.35,-0.3 0.85,-0.3q0.5,0 0.8,0.3q0.35,0.3 0.35,0.7l-0.35,0.7q-0.3,0.3 -0.8,0.3l-0.85,-0.3q-0.3,-0.3 -0.3,-0.7q0,-0.4 0.3,-0.7m26.4,-6.75q0.9,0.85 0.9,2q0,1.15 -0.9,1.95q-0.85,0.85 -2.05,0.85q-1.2,0 -2.1,-0.85q-0.85,-0.8 -0.85,-1.95q0,-1.15 0.85,-2q0.9,-0.8 2.1,-0.8q1.2,0 2.05,0.8m1.3,6.9q-0.45,-0.35 -0.45,-0.85q0,-0.5 0.45,-0.9q0.45,-0.35 1.1,-0.35q0.65,0 1.1,0.35q0.45,0.4 0.45,0.9q0,0.5 -0.45,0.85q-0.45,0.4 -1.1,0.4q-0.65,0 -1.1,-0.4m-32.9,17.15l1,-0.3q0.6,0 1,0.3q0.4,0.35 0.4,0.8q0,0.45 -0.4,0.75q-0.4,0.35 -1,0.35q-0.6,0 -1,-0.35q-0.4,-0.3 -0.4,-0.75q0,-0.45 0.4,-0.8m0.9,6.9q1,0 1.7,0.8q0.7,0.85 0.7,2q0,1.15 -0.7,1.95q-0.7,0.85 -1.7,0.85q-1,0 -1.7,-0.85q-0.7,-0.8 -0.7,-1.95q0,-1.15 0.7,-2q0.7,-0.8 1.7,-0.8m1.7,9.25q0.35,0.35 0.35,0.8l-0.35,0.75q-0.3,0.35 -0.75,0.35q-0.45,0 -0.8,-0.35q-0.3,-0.3 -0.3,-0.75q0,-0.45 0.3,-0.8q0.35,-0.3 0.8,-0.3q0.45,0 0.75,0.3m-0.2,6.85q0.95,0 1.6,0.8q0.65,0.85 0.65,2q0,1.15 -0.65,1.95q-0.65,0.85 -1.6,0.85q-0.95,0 -1.6,-0.85q-0.65,-0.8 -0.65,-1.95q0,-1.15 0.65,-2q0.65,-0.8 1.6,-0.8m7.75,72.6q-0.65,0.9 -1.6,0.9q-0.95,0 -1.6,-0.9q-0.65,-0.9 -0.65,-2.15q0,-1.25 0.65,-2.15q0.65,-0.9 1.6,-0.9q0.95,0 1.6,0.9q0.65,0.9 0.65,2.15q0,1.25 -0.65,2.15m-8.35,8.15q0,-1.4 1.05,-2.4q1.1,-0.95 2.6,-0.95q1.5,0 2.55,0.95q1.1,1 1.1,2.4q0,1.4 -1.1,2.35q-1.05,1 -2.55,1q-1.5,0 -2.6,-1q-1.05,-0.95 -1.05,-2.35m4.85,14.3q0.55,0.75 0.55,1.8q0,1.05 -0.55,1.8q-0.55,0.75 -1.3,0.75q-0.75,0 -1.3,-0.75q-0.55,-0.75 -0.55,-1.8q0,-1.05 0.55,-1.8q0.55,-0.75 1.3,-0.75q0.75,0 1.3,0.75m-1.45,-2.45q-0.45,0.4 -1.15,0.4q-0.7,0 -1.2,-0.4q-0.45,-0.4 -0.45,-1q0,-0.6 0.45,-1q0.5,-0.4 1.2,-0.4q0.7,0 1.15,0.4q0.5,0.4 0.5,1q0,0.6 -0.5,1m5.6,12.2l-0.25,1.25l-0.6,0.55q-0.35,0 -0.6,-0.55l-0.25,-1.25q0,-0.75 0.25,-1.3q0.25,-0.5 0.6,-0.5l0.6,0.5l0.25,1.3m0.5,4.8q0.25,-0.2 0.6,-0.2l0.6,0.2l0.25,0.5l-0.25,0.5l-0.6,0.2q-0.35,0 -0.6,-0.2l-0.25,-0.5q0,-0.3 0.25,-0.5m4,4.2l-0.5,0.3q-0.3,0 -0.5,-0.3l-0.2,-0.7l0.2,-0.7q0.2,-0.3 0.5,-0.3l0.5,0.3l0.2,0.7l-0.2,0.7m-0.05,13.5l-0.15,0.5l-0.3,0.2q-0.2,0 -0.35,-0.2l-0.1,-0.5l0.1,-0.5q0.15,-0.2 0.35,-0.2l0.3,0.2l0.15,0.5m-3.75,-10.7l0.5,-0.3q0.3,0 0.5,0.3l0.2,0.7l-0.2,0.7q-0.2,0.3 -0.5,0.3l-0.5,-0.3l-0.2,-0.7l0.2,-0.7m1.6,17.7q-0.45,0.7 -1.1,0.7q-0.65,0 -1.1,-0.7q-0.45,-0.7 -0.45,-1.7q0,-1 0.45,-1.7q0.45,-0.7 1.1,-0.7q0.65,0 1.1,0.7q0.45,0.7 0.45,1.7q0,1 -0.45,1.7m4.05,6.25q-0.3,0.55 -0.8,0.55q-0.5,0 -0.85,-0.55q-0.3,-0.5 -0.3,-1.25q0,-0.75 0.3,-1.3q0.35,-0.5 0.85,-0.5q0.5,0 0.8,0.5q0.35,0.55 0.35,1.3l-0.35,1.25m-0.1,7.25q0.4,0 0.7,0.35l0.3,0.9l-0.3,0.85q-0.3,0.4 -0.7,0.4l-0.7,-0.4q-0.3,-0.35 -0.3,-0.85q0,-0.5 0.3,-0.9q0.3,-0.35 0.7,-0.35"/>
  </g>
  <g transform="matrix(1,0,0,1,0.25,0.25) " id="shape5">
   <path id="svg_89" stroke-width="0.5" stroke-linejoin="round" stroke-linecap="round" stroke="#6a4520" fill="none" d="m102.85,15.7l0.2,11.45l0.5,3.3l-1.55,4.65l1.45,-2.45l1.55,8.25l1.7,-3.35l0.25,-2.85l0.95,12.35l-1.15,1.8l1.45,-0.75l0.25,5.15l1.9,-2.7l1.85,-4.75l1.55,-2.75l-0.7,2.75l-0.3,9.2l0.15,1.7l-0.7,4l0.65,0.35l0.8,-1.65l0.35,3.45l0.75,0.9l0.05,1.2l-0.05,0.05l0.05,0.1l1.8,7.45l3.95,-2.75l3.15,-4.65l-2.05,12.45l2.3,-2.9l-0.75,3.6l0.35,3l-0.6,0.85l0.05,0.05l1.15,2.2l1.75,-1.15l2.3,-3.05l-0.5,4.85l-1.45,4.05l1.95,6.55l0.95,1.35l4.8,3.2l3,7l1.8,1.2l0,2.2l-1.1,1.9l-0.4,2.5l1.1,2.3l-0.3,4.8l0.15,0.95l2.45,0.9l6.4,-6.35l1.2,-0.3l-0.4,2.9l-3.2,6.85l2.7,2.85l0.4,1.7l-0.05,0.15l1.85,1.25l1.7,2.5l-0.3,4.2l-1.6,0.5l-3.7,-1.3l-0.85,-1.35l-0.65,0.35l-3.8,-2.2l-2.6,0.1l-1.9,1l-2.35,3.25l2.45,3.55l0.6,1.2l0.8,0.5l2.2,5.3l0.1,2l1.6,3.25l1.8,5.95l0.1,3.9l-0.7,0.1l-1.4,-4l-0.15,-0.15l-0.9,-3.95l-3.3,0.65l-0.75,-0.05l-0.1,8.7l-1,3.3l-2.6,3.3l-0.5,-0.6l0.35,-3.75l1,-2.4l-0.95,-6l-3.1,0.85l-0.9,-0.3l-1,0.8l-1.3,3.4l-0.6,-0.7l-1.05,1.3l-0.25,0.1l-0.05,0l0,-0.1l-1,-8.6l-0.85,-3.4l-1,0.4l-0.4,1.2l-1.9,2.7l-1.5,0.4l0,0.15l0.1,1.15l-1.9,2.7l-1.6,0.6l0,1.3l-1.5,1.95l6.7,6.05l10.4,13.85l1.3,1.1l1.9,6.45l0.05,0.1l-0.65,0.8l-3.8,-3.8l-0.2,0.2l-13.7,-11.5l-1.2,2.05l-1.25,-0.15l-1.75,-1.5l-10.6,11.5l1.9,0.8l2.15,0l0.2,0.6l-0.25,4.7l-3.85,15.6l-0.6,0.5l-0.15,0.55l0.25,0.5l-4.15,11.9l0,0.5l1.25,6.5l8.5,15.55l5.75,13l-0.15,14.45l1.15,0l6.1,0.6l2.65,0.65q41.5,-0.3 4.85,1.8q2.9,1.4 5.35,3.5l4.05,0.4l-3.15,0.4l1.3,1.4l-0.1,0.65l8.55,1.9l-2.2,0.8l-6.9,1.35l-3.1,0.25l-1.35,0.6l-1.45,0.35l-1.05,0.15l0.35,0.45l0.55,0.85l1.75,0.25l-1.55,0.25l0.15,0.45l0.25,0.9q-9.45,5.05 -20.05,5.1l0.45,-0.1q-3.65,-0.2 -7.05,-1.55l-3.15,-1.55l3.25,0.05l-19.55,-2.2l-12.85,-0.6l-7.6,-0.3l4.55,-2.55q-5.7,1.35 0.15,-2.95q2.15,-1.65 -1.15,-2.25l-9.45,-0.45l-17.9,0.95l0.85,-0.85l0.9,-0.8q0.45,-0.35 1,-0.55q1.35,-0.7 2.85,-1.15l3.15,-0.65l-9.9,-1.8q-35.4,-0.35 -2.75,-2.15q32.6,-1.85 34.9,-5.3l0.4,-0.35q1.65,-1.1 7.95,-0.7l-1.85,-10.2l-8.05,-11l-3,-8.45l-3,-1.85l0,-4.5l-0.55,-0.55l-13.2,14.3l-4.8,3.3l-8.75,1.25l-3,-1.75l-0.75,-6.8l2.75,-8.5l1.15,-2.65l24.85,-27.7l0.05,-4.6l-0.45,-1.5l-0.4,-2.9l1.2,-11.7l-0.7,-8.85l0.15,-3.65l-0.45,-0.6l-0.2,-1.3l0.55,-1.75l-0.05,-5.1l0.2,-0.95l3.05,-4.35l-0.1,-0.65l1.6,-5.45l0.95,-1.25l0.75,-3.35l-1.85,-5.05l0.65,-2.15l0.65,-0.05l-0.35,-0.7l0.45,-1.1l0.85,-0.1l0.55,-3.65l0.5,-1.05l-0.6,-0.3l-4.5,0.9l-0.15,-2l-1.85,2.65l-12.8,6.15l0,0.05l-7.3,5.55l-4.45,5.05l-0.65,-2.3l-1.85,4.35l-4.45,5.85l-1.1,-2.3l-0.3,2.9l-2.8,4.95l-1.35,9.65l1.05,5.8l-1.05,1.55l1.85,0l2.75,2.45l7.45,1.85l2.6,-1.7l2.3,-6.95l0.95,6.35l-0.8,6l-1.65,2.5l-7.3,3.7l-5.25,0l-8,-2.3l-4.35,-2.8l-3.85,-8.5l-1.45,-10.25l2.55,4.45l2.45,-18.75l1.2,6.35l0.95,-8.2l3.85,-12.2l1.25,4.35l4.3,-9.05l4.5,-8.25l-0.9,12.2l15.55,-23.6l2.8,-2.65l-1.1,-1.25l-0.25,-1.65l-1.3,-2.6l-0.4,-2.05l-0.05,-0.1l-2.4,-5.15l-0.25,-2.9l-1.25,-2.65l-1.35,-1.4l-0.35,-1.9l-1.9,-1.7l-1,-0.6l-0.65,-1.65l-3.2,-0.65l-4.6,1.6l-2.25,2.7l-4.55,0.05l-5.65,1.25l-0.35,-0.8l3.6,-3.75l2,-0.3l2.95,-1l-3.3,-1.05l-2.15,0.75l-6.35,0.75l-4.3,1.95l-0.7,-0.1l0.7,-1.25l3.75,-2.9l4.05,-1.1l0.2,-0.75l-4,-0.75l-4.05,0.3l-3.6,1.65l-0.55,-0.15l1.8,-2.2l3.75,-1.65l9.75,-0.7l-0.05,-1.65l-3.2,-2l0,-0.05l-5.1,-0.8l-4.95,0.9l-1.25,-0.45l2.8,-1.5l-1.15,0l-0.9,0.4l-0.05,-4.45l-0.9,-4.8l3.3,-6.55l5.85,6.85l-1.55,2.8l-0.05,-2l-1.55,-2.85l-1.75,-0.55l-1.25,2.35l1.25,6.1l2,2.3l1.15,-0.2l1.2,0.1l3.55,-1.5l0.1,-0.05l-1.4,-3.8l0.3,-2.15l2.5,-5.75l2.55,2.2l0.45,1.95l-0.9,1.6l0.5,-1.7l-1.85,-1.65l-1.1,4.45l1.75,2.75l3.2,-2.45l1.05,-3.55l0.85,-7.9l1.95,-2.15l0.6,-1.1l0,-0.4l-1.35,1.3l-1.3,0.3l-7.2,4.3l-1.2,1.7l-0.6,-0.15l-0.5,0.65l-1.45,0.2l1.15,-0.75l0.5,-0.6l0,-0.75l-0.95,-0.7l-0.15,0.5l-1.15,1.5l-0.55,-0.45l0.45,-0.55l0.35,-0.9l-0.3,-0.15l-1.25,0.25l-0.95,1l-0.45,-0.25l1.6,-1.6l-0.65,-0.4l-2.45,0.25l0.15,-0.5l2.75,-0.75l2.55,0.4l1.4,1.15l1.15,0.25l8.45,-4.95l1.7,-2.65l-0.85,-0.7l-1.35,0.1l-2.15,2.65l-2.75,2.35l0.8,-1.55l0.75,-2.7l-0.75,-1.95l-4.75,1.1l-2.1,3.4l0.25,-1.75l-1.6,-2.25l-2.1,0.1l-2.6,2.75l-1.2,2.95l-0.45,-0.05l0.2,-5.35l4.85,-9.15l5.6,-4.95l2.2,-1.05l3.35,-2.05l3.6,-1.35l3.1,-0.65l0.6,0.35l-1.35,1l-1.5,0.2l0.15,1.15l2.4,2l1.7,0.55l1.2,0.75l-2.75,3.5l0.1,1.6l2.35,-3.1l1.4,-0.45l1.35,0.85l-0.2,1l-0.6,-0.1l-0.35,-0.4l-1.15,2.9l0.5,2.55l1.65,-0.55l3.85,-2.95l-4.9,-10l-1.3,-5.15l2.35,6.6l2.7,4.1l0.9,0.75l0.4,-1.05l-0.9,-4.5l-0.85,-2.35l-0.9,-5.05l3.35,10.65l1.95,2.95l0,0.05l0.7,0.4l0.75,-0.2l1.2,0.45l0.4,1.3l2,3.95l-0.2,0.85l-0.8,0.15l-1.9,-1.7l-1.45,-0.25l-4.4,2.7l-2.75,3.05l-0.4,1.35l0.25,0.75l-0.4,6.3l1.2,1.55l1.5,0.25l0.25,-0.05l1.55,-2.75l1.25,-0.5l1.5,0.6l0.05,-1.1l-1.7,-1.2l3.2,0.7l-0.15,0.65l-0.5,0.2l0.05,1.45l0.3,-0.05l1,0.3l-0.2,0.7l-0.8,0.75l-0.7,1.75l-2,-0.6l-1.15,-0.1l-3.5,0.9l-1.8,-0.2l0,-1.05l-0.55,-0.9l-0.7,-4.75l-0.05,-1.35l-0.35,0l-0.15,-0.05l-2.7,2.3l-0.5,4.35l-0.35,1.15l1.05,3.45l5.95,7.1l-0.65,7.9l1.25,1.1l5.35,2.1l1.85,2.3l2.15,1.15l0.65,0.5l1.3,3.3l2.2,2.25l1.2,0.8l2,4.55l2.6,2.15l0.05,0.05l1.9,2.8l2.8,-3.1l2.2,-6.75l1.65,-1.5l0.3,-1.05l-0.25,-6.55l0.95,-2.3l6.2,-6.45l1.35,-0.8l3,0.8l1.25,0.55l0.05,0l1.75,-0.75l1,-1.3l1.85,-1.55l0.7,-1.45l1.35,-0.4l3,-9.2l0,-0.1l0.8,-5.5l-0.5,-0.8l-3.3,-1.1l-4.3,-0.1l-2.25,1.35q-0.7,0.35 -1.35,0.65l0.05,0.7l-1.15,-0.6l-0.8,0.15l-0.05,0.75l-0.7,-0.25l-0.2,-0.75l-2.5,2.15l-1.2,0.3l-4.2,2.1l-1.35,0l-2.2,0.75l-2.4,-0.2l0.95,0l3.9,-1.2q1.1,-0.5 2.15,-1.05l3.25,-1.1l2,-1.8l0.7,-1.85l-1.5,0.7l-1.85,0.3l-2.65,1l2.3,-1.4l2.35,-0.8l2,-1.1l1.15,-1.65l0.05,-0.05l0.35,-1.05l-1.55,0.45l-10,5.9l4.35,-3.3l4.25,-2.3l2.55,-2.05l-0.75,-0.45l-5.2,0.15l3.3,-0.7l2.5,-0.15l1.4,-0.7l0.05,0l-0.4,-1.3l0.35,-2.45l0.05,-0.1l0.85,-2.25l0,-0.05l0.05,-0.7l-0.05,0.05l0.05,-0.15l-0.6,-0.4l-0.2,0l0.2,-0.55l-0.6,-0.8l0.6,-1.6l1.2,-0.8l-1,-3.15l1.2,0.95l0.5,-0.65l-0.1,-3.35l1,0.8l0.85,-6.65q0.3,1.8 0.9,3.45l1.55,-3.75l0.65,1.05l0.8,-4.2l3.3,-8.5l0.7,1.5l0.35,-2.7l1.45,-4.3l0.3,-6.6l-0.3,-3.2l0.8,4.3l0.45,5.9l2,4.3l2.25,2.55l0.7,3.7l0.75,-3.15l4,5.3l-0.1,0.65l0.55,0.15l1.25,3.4l0.05,0.05l2.15,-2.1l2.95,-4.75l0.75,-4.6m22.35,102.95l-1.25,5.75l2.5,6.7l-0.6,2.2l-1.6,0.7l-0.2,1.8l-2.6,1.8l-0.7,2.7l-4.4,3.4l-2.2,4.3l-2.6,6.5l-1.7,2.4l0.4,1.3l0.65,0.1l-0.15,1l-1,0.3l-2.3,2.5l-0.5,0.75l-1.95,-1.35l0.25,-0.9l-0.1,-0.7l-1.2,0.3l-0.95,-0.55l-0.95,-0.75l-0.5,-2.6l0.1,-2.1l1.1,-0.25l0,2.05l0.55,2.5l0.25,-0.3l1.15,-0.35l1.25,0.95l0.1,0.1l-0.6,-4.4l-1.3,-2.7l-0.1,-1.7l-0.75,-1.25l0.15,-0.35l-0.3,-1.05l1.5,-0.75l0.8,-1.6l0.2,-2.6l-1.9,-1.8l-2.1,0.2l-0.1,-0.15l-6.55,-12.8l1.8,-6.15l9.7,-5.85l8.05,-7.6l-5.1,2l-4,0.8l6.65,-4.2l6.85,-5.6l2,6.15l2.8,5.05l3.3,2.7l-0.05,0.8l-1.8,2.6m-42.85,119.15l-3.95,-3.35l-3.65,-4.65l0.5,-10.25l-0.65,-0.6l2.4,-2.55l1.5,12.15l3.75,8.5l0.1,0.75m7.65,36.35l-0.5,-12.55l3.85,13.15l-3.35,-0.6"/>
  </g>
  <g transform="matrix(1,0,0,1,-30.35,-136.35) " id="shape6">
   <path id="svg_90" stroke-width="0.5" stroke-linejoin="round" stroke-linecap="round" stroke="#ffffff" fill="none" d="m74.1,138.1l-1.15,-1.5m4.15,4.3l-1.15,-0.7m3.2,14.75l-0.9,0.25m24.45,-9l-0.95,0.95m-17.15,22.35l-1.05,0.25m-1.55,-9.4l-0.9,0.55m-44.95,72l-2.2,2.25m-0.85,1.4l-2.5,7.8m46.2,-57.9l-39.8,45.65"/>
  </g>
  <g id="sprite0">
   <use id="svg_91" xlink:href="#shape7" width="102.95" height="45"/>
  </g>
  <g id="shape7">
   <path id="svg_92" fill-rule="evenodd" fill-opacity="0" fill="#ff00ff" d="m0,0l102.95,0l0,45l-102.95,0l0,-45"/>
  </g>
 </defs>
 <g>
  <title>background</title>
  <rect fill="none" id="canvas_background" height="213" width="114" y="-1" x="-1"/>
 </g>
 <g>
  <title>Layer 1</title>
  <g id="svg_93">
   <use x="53" y="212" id="svg_94" xlink:href="#shape0" width="381" transform="matrix(1,0,0,1,-192.55,-294) " height="381"/>
   <use x="-76.778212" y="307.112849" id="svg_95" xlink:href="#shape1" width="151.5" transform="matrix(-0.6903,0,0,0.6903,53.6,-210.95) " height="300.1"/>
   <use x="-76.778212" y="307.112849" id="svg_96" xlink:href="#shape2" width="81.5" transform="matrix(-0.6903,0,0,0.6903,33.65,-96) " height="88.1"/>
   <use x="-76.778212" y="307.112849" id="svg_97" xlink:href="#shape3" width="72.35" transform="matrix(-0.6903,0,0,0.6903,29.15,-94.8029) " height="79.05"/>
   <use x="-76.778212" y="307.112849" id="svg_98" xlink:href="#shape4" width="51.4" transform="matrix(-0.6903,0,0,0.6903,4.3455,-192.0697) " height="259.25"/>
   <use x="-76.778212" y="307.112849" id="svg_99" xlink:href="#shape5" width="151.75" transform="matrix(-0.6903,0,0,0.6903,53.6226,-211.1226) " height="300.6"/>
   <use x="-76.778212" y="307.112849" id="svg_100" xlink:href="#shape6" width="72.6" transform="matrix(-0.6903,0,0,0.6903,32.6487,-116.8245) " height="108.25"/>
   <use x="0" y="0" xlink:href="#sprite0" width="102.95" transform="matrix(1.5970000000000004,0,0,1.4610000000000003,-30.050000000000004,-3.649999999999949) " id="_mcMask" height="45"/>
  </g>
 </g>
</svg>