<svg width="308" height="228" xmlns="http://www.w3.org/2000/svg" xmlns:xlink="http://www.w3.org/1999/xlink">
 <defs>
  <g transform="matrix(1,0,0,1,192.55,294) " id="shape0">
   <path id="svg_1" stroke-opacity="0" stroke-linejoin="round" stroke-linecap="round" stroke="#ff00ff" fill="none" d="m187.95,-293.5l0,380l-379.95,0l-0.05,0l0,-380l380,0m-95,294.1l-189.95,0"/>
   <path id="svg_2" stroke-opacity="0" stroke-linejoin="round" stroke-linecap="round" stroke="#ff00ff" fill="none" d="m187.95,-293.5l-190,190l190,190m-380,-380l190,190l-189.95,190"/>
   <path id="svg_3" fill-rule="evenodd" fill="#e3b277" d="m84.8,-213.75l4.15,-1.85l12,6.65l-6.3,0.95l6.3,-0.95l-7.15,11.1l3.05,3.75l3.8,0l1.75,10.65l-3.9,4.15l0,2.6l2.4,0l4.85,-2.85l3.05,0l3.7,0.85l1.9,2.95l-1.3,1.25l-4.65,-2.2l-5.1,0l2.05,1.55l0,2.65l-2.05,-2.85l-4.85,0l0,1.3l1.05,0.85l-6.45,3.4l-1.75,0l-2.65,-0.4l-9.75,9.55l-3.6,-0.2l-10.4,-0.55l-1.3,-0.05l-1.3,-2.45l1.3,2.45l1.3,0.05l-5.65,8.6l-0.65,-3.5l1.75,-3.55l1.95,-4.05l9.1,0l3.9,0l7.5,-6.8l2.2,-1.95l6.2,0l3.85,-2.15l0.35,-2.05l0.6,-3.4l2.85,-3.7l-2.05,-10.15l-1.95,3.6l-6.25,-4.75l6,-12.75l-9.85,-5.75m-5.45,4.75l-3.8,2.45l3.8,-2.45l0,2.9l-5.95,9.75l-4.85,7.8l3.85,-8.75l3.15,-7.25l0,-2l-19.1,-5.2l1.35,-1.2l1.15,-1.6l-1.15,1.6l-8.6,-3.15l1.65,-7.2l3.6,-3.9l-3.6,3.9l-16.2,-4.95l-0.85,-3.05l0.85,3.05l-3.85,12.9l-1.1,-0.95l1.1,0.95l-2.95,0.8l-2.95,-1.85l4.8,0.1l4.1,-15l20.65,4.1l-3.2,9.65l6.95,2.85l0.75,0.15l1.15,-1.6l19.25,7.15m14.45,11.15l-5.15,2.6l5.15,-2.6m8.6,14.4l-3.5,-0.5l3.5,0.5m-51.15,-34.1l-2.05,1.45l2.05,-1.45m24.1,53.65l3.6,3.25l-3.6,-3.25m-49.95,-7.8l4.55,2.3l-1.2,5.9l-1.4,6.75l-4.25,7.4l1.45,-16.9l-3.3,-4.1l1.55,-9.15l5.5,-2.45l-5.5,2.45l-6.5,-3.15l2.9,-2.4l7.05,2.35l2.05,0.75l-4.5,9.4l1.6,0.85m25.05,13.65l8.2,1.75l0.65,3.5l-3,-0.55l-11,-1.95l-6.65,6.45l-0.35,0.3l-2.65,-0.9l-0.95,-8.3l-4.65,-3.55l3.3,-1.4l4.85,2.35l-3.5,2.6l3.5,-2.6l-0.95,8.6l1.4,0l5.5,-7.7l6.3,1.4m-14.8,8.6l1.6,-2.3l-1.6,2.3m3,-2.3l-0.35,3.2l0.35,-3.2m5.5,-7.7l1.15,4.15l-1.15,-4.15m-0.4,13.95l-1.55,3.2q-1.8,3.85 -0.85,8.35l-4.3,-0.7q4.1,-4.2 3,-9.85l0.15,-0.15q2.65,-1.3 1.85,-1.3l1.15,-0.1q0.6,0.1 0.55,0.55m18.5,-7.65l-0.15,0.3q-2.65,4.4 -2.5,9.35l-2.3,2.15l-0.1,0.4q-1.55,1.2 -2.35,2.9q-0.55,1.05 -0.1,1.8q0.55,0 0.2,0.35q-3.35,2.85 -4.75,6.8q-0.05,-0.85 0.2,-1.6q1.45,-5 3.2,-9.4l0.6,-0.1l2.25,-1.6q1.2,-1.6 1.4,-3.55q0.4,-4.75 4.4,-7.8l0.8,-1.2l0.55,0.3l-1.35,0.9m36.25,-23.55l0,1.35l0,-1.35m0,2.65l-1.95,-1.6l-1.45,0.85l1.45,-0.85l1.95,1.6m2.4,-2.65l2.45,0l-2.45,0m-9.65,4.05l1.85,2.85l-1.85,-2.85m7.25,-6.65l-2.45,-0.95l2.45,0.95m-51.25,56.65l4.5,0l1.65,2.55l-8.8,1.25l-12.55,5.55l-4.65,0.65l-0.5,-1.25l2.5,-2.25l4.75,-0.8l6.05,-4.25l0.9,0.5l6.15,-1.95m-12.4,-11.2l0.65,0.6q1.65,4.9 -1.55,9.1q-2.1,2.65 -5.05,3l1.5,-1.1q2.6,-2.25 3.35,-5.5q0.7,-3.25 0.6,-6.6l0.5,0.5m-3.8,43.45l-5.35,-3.35l-0.05,0l-0.1,0.05l0.15,0.2l-0.2,-0.15l0.05,-0.05l-0.05,-0.2l0.2,0.15l3.55,0.25l2.25,1.3q1.95,1.7 3.2,4l0,0.8l0.2,0.2l0,0.9l-2.05,3.8l0,-0.15l0.5,-4.15q0.1,-1.05 -0.45,-1.85l-1.85,-1.75m14.25,5.4l0.4,1.2l-4.25,0l-1.9,-2.4l1.9,2.4l-3.85,9.3l-5.5,0.7l1.2,-3.15l2.6,0l3.65,-9.25l1.2,0l4.15,0l0.4,1.2m-16.35,4.65l1.5,0.25l1.55,0.25l1.3,1.65l-11.9,-1.7l-2.25,3.45l-3.6,-0.8l0,-2l2.75,0.65l2.15,-3.3l2.85,0.5l2.8,0.5l2.85,0.55m-13.4,0.1l-1.75,-0.65l1.5,-0.9l0.25,1.55m-9.05,-3.2l-2.55,0.65l0,-2.5l-3.95,-1.25l-1.3,2.65l-6,-1.8l0,-0.15l0,-0.4l0.65,-2.95l0.2,-0.75l-9.7,-2.45l0,-5.75l-2.85,-1.6l-2.95,3l-1.7,2.85l-2.1,-2.6l1.75,-1l2.35,-8.2l-1,-3.25l-1,-3.15l2.95,-4.85l1.1,-1.75l0,-14.1l-1.95,-5.6l0,-5.7l1.15,-1.35l2.8,-3.4l-2.8,3.4l-1.6,-3.55l0,-2.2l0,-2.15l2.75,-3.25l1.1,-7.75l1.65,-2.8l1.6,-2.8l0,-6.25l1.8,6.6l-3.3,6.85l0,4.25l-2,5.75l0.8,3.9l2.8,-3.35l2.25,-5.25l1,-4.85l2.25,-1.5l0,11.65l-5.05,7.45l0,6.05l-1.1,0.9l0,5.45l-0.35,1.8l-3.8,-2.3l3.8,2.3l-1.2,5.8l0,5.95l1.55,2.85l-4.7,3.65l-0.4,11.55q-0.4,0.3 -0.7,0.5l-0.95,1.75l-1.8,0.95l1.8,-0.95l0.95,-1.75q0.3,-0.2 0.7,-0.5l1.55,0.95l-1.55,-0.95l2.5,0l3.55,1.5l2.3,1.05l-1.3,4.1l1.95,0.5l1.9,0.6l3.9,1.1l2,0.55l-0.55,1.75l-0.55,1.75l1.2,0.85l1.3,0.85l1.15,-2.3l1.25,0.35l2.8,0.7l1.1,2.05l2.15,-0.35l0.4,2.2m-32.25,-9.35l0.55,2.3l-5.35,10.8l2.4,-10.7l2.4,-2.4m61.65,15.85l1.7,2.45l-1.7,-2.45m26.9,30.9l-1.05,0.9q2.5,-4.45 6.9,-5.05l5.65,-1.35q2.1,-0.5 3.65,-1.85l-1.35,2.6q-1.1,1.6 -3.1,1.7q-3.4,-1.4 -6.35,0.9q-1.8,1.4 -4,2.15l-0.35,0m5,1.15l7.85,1.3l0.55,-0.1l-0.55,1.1l-1.1,1.35l-0.45,0.45q-1.6,-1.85 -4.15,-1.9q-2.5,-0.05 -4.55,1.45l-2.5,1.9q-0.4,0.25 -0.65,-0.1l-0.95,-0.1l0.2,-0.45q3.15,-2.05 5.95,-4.6l0.35,-0.3m-5.55,9.6l0.8,0.5l4.2,2.65l-4.05,-0.1q-2.8,-1.7 -5.9,-0.45l-1.15,0.05l-0.35,-0.65l-1.45,-0.2l7.7,-1.8l0.2,0m-8.4,5.85q3.4,0.5 4.25,3.2q-3.05,-0.85 -5.4,1.7l-0.15,-0.45q-1,-1.85 -2.5,-3.3l0.15,-0.15q1.95,-1.15 4.15,-1.3l-0.5,0.3m-23,-6.8l-0.05,0.3l-0.65,2.35q-2.55,-3.1 -6.75,-4.3l-2.55,-0.45q-4.1,0.4 -5.85,3.9q-2.3,-3.8 -5.35,-5.85l2.2,0.3q0.2,-0.95 1.15,-1.3l0.8,0.05q0.45,0.6 1.2,1.05q1.4,0.75 2.55,0.95q2.4,-1.4 5.75,-1.05l1.85,0.2l5.25,3.25l0.45,0.6m4.1,2.15l3.25,0.15q-0.45,1.5 -0.1,3.05q0.85,1.05 2.2,1.55l-0.1,0.1q-0.95,2.05 -1.55,4.15l-4.3,-0.2q2.05,-1.8 2,-4.8q-0.05,-1.5 -0.65,-2.7l-0.75,-1.3l-0.4,-0.05l0.4,0.05m10,6.95l2.35,-0.85l-0.6,0.35l0.2,0.2q2.05,3.6 -1.25,4.55l-0.55,-3.35l-0.15,-0.9m-60.4,-175.3l4.85,-3.45l-2,-7.7l16.55,-3.55l3.25,2l-14.55,3.45l0.6,6l-1.4,1.6l3.15,5.8l-6.6,0.55l-3.85,-4.7l7.3,-1.65l-7.3,1.65m22.3,-8.1l15.45,-2.9l4.1,3.25l-17.2,2.35l-2.4,-1.1l2.4,1.1l-2.2,6.85l3.3,1.55q2.4,1.15 4.85,2.25l-5.65,2.55l5.65,-2.55l-2.1,7.8l-1.65,6.05l4.55,1.95l-0.9,3.2l-7.25,-2.85l1.7,-13.6l-10.25,-6.5l-1.15,-0.75l1.15,0.75l-3.45,16.4l0.9,3.65l-2.25,5.4l0,-3.9l0.05,-5.45l1.1,-9.8l0.05,-0.55l0.5,-4.2l1.95,-2.3l4.4,-1.2l3.75,1.8l0.55,-7.65l0.05,-1.6m-86.15,78l4.15,3.3l-11.75,-3.35l-3.25,-4.35l-1.45,-1.9l-5.3,-7l-0.8,-3.25l-3.15,-13.65l-1.55,-5.25l-0.85,-2.15l0.85,2.15l1.55,5.25l-5.35,0l-6,6.4q-2.8,1.4 -5.55,2.7l0,2.85q1.7,-0.95 4,-1.2l7.5,0.3q-4.15,1.8 -7.9,4.3q-3.8,2.5 -2.8,5.9l-0.8,0.6l0,0.8l-6.55,8.45l0,11.4l-0.5,5.85l1.2,-0.8q2.95,-1.85 5.9,-1.55q-3.75,3.95 -5.85,9.5q-0.45,1.15 -0.15,2.45l1.75,1.9l0.35,0.5q0.2,0.7 -0.5,0.75l-0.55,0l-1,2.75l0.05,0q1,-1.3 3.8,-2.75l1.6,0.3l-2,6.9l4.3,5.7l-0.75,14.1l-2.35,-11.3l-10.25,-13.35l0,-3.25l2.25,-18.2l-1.9,-8.6l5.65,-12.95l0,-13.15l13.25,-8.6l3.05,-4.95l3.7,-1.15l-4.65,-11.25l0,-6.45l14.1,-12.65l11.45,0l-12.75,6.1l-5.9,8.75l0.45,0.95l6.55,-1.65l0.55,0l0,1.6l-4.9,4.35l1.2,2.35q3.55,-1.1 7.85,-0.75l1.3,1.85q-4,0.5 -7.9,3.4l1.2,6.9l11.15,-4.55l-1.05,1.85q0.65,0.1 0.7,1.05l-0.2,2.05l-0.5,0.8l-0.55,2.55q-5.5,0.6 -7.9,5l2.05,11.4q5.2,1.25 10.75,-1q0.4,-0.15 0.7,-0.35q0.2,-0.85 0.25,-1.8l0.75,0q0.1,1.1 -1,1.8q-1.2,4.55 -6.5,5.65l-2.05,0.1l4.7,6.15l4.1,3.4m41.75,-14.75l-6.25,-6.3l-17.6,-6.45l-4.1,-7.25l-1.55,-5.45l5.15,1.4l3.25,7l11.15,4.7l2.55,1.1l5.65,1.2l1.75,3.85l0,6.2m44.55,-53.7l-0.75,-0.3l0.75,0.3m-9.2,12.65q1.95,-2.65 3.6,-5.4l0,-0.35l0.45,-0.4l-0.45,0.75l-0.15,1.65q-0.3,0.85 -0.3,1.7q0,1.4 0.3,2.75q-0.95,1 -1,2.55q-0.05,1.7 -0.55,3.15q-0.15,-1.5 -0.65,-2.95l-1.5,-3.05l0.25,-0.4m8.3,43.7l0.15,-0.45q1.05,-4.3 1.55,-8.8q1.85,-2.25 4,-3.85l0.45,-0.75l0.15,-0.6q1.1,-2.1 1.25,-3.55l0,1.6q0.2,1.1 0.05,2.45q-0.55,4.15 -2.85,7.7q-2,2.95 -0.6,6.4l-4.15,-0.15m17.7,-27.9l-2.55,2.2l2.55,-2.2m6.15,3.15l-5.4,3.15l5.4,-3.15m-9.55,9.05l0.1,-1.1q-0.05,0.45 0.05,0.85q0.2,1.1 -0.35,2.1l-0.1,0.15l-0.3,1.3l-1.7,1.15l-0.85,3q0.6,0.45 0,1.7q-1.5,2.95 -2.45,6q-0.05,-0.9 0.2,-1.85q0.5,-2.15 0.55,-4.3q0.2,-5.6 4.85,-9m-18.4,-18.9l-0.45,0.85q-2.75,6.15 0.85,11.5l1.3,0.3q-0.4,1.25 -1.2,2.25q-2.6,3.25 -3.95,6.75l-0.45,0.25l0,0.3l0,2.4q0,1.4 0.45,2.15q-0.65,0.75 -1.6,1.3l-6.2,4.4q1.1,-1.6 2.05,-3.35q2.4,-4.5 2.5,-9.2l0.3,-0.55q2.8,-1.35 2.9,-4.3q0.1,-3.55 -0.4,-7.15q-0.85,-5.7 2.15,-9.5l1.75,1.6m-7.75,38.55l11.7,2.7l4.75,7l0,5l1.45,2.75l-1.65,2.8l-7.55,-6.95l-3.6,-5.9l-3.75,0l-9.95,2.2l0,-3.9l2.3,-3.35l6.3,-2.35m34.95,-12.2l-0.3,0.4q-2.3,3.35 -3.95,6.85l0,0.3q-0.4,2.7 -0.15,5.4l-0.25,0.65q-1.15,1.5 -2.6,2.5q2.75,-5.65 2.4,-12.1q2.05,-0.9 3.1,-2.85l1.75,-2.9l0,-0.25l0.35,-0.1l-0.35,0.35l0,1.75m-36.55,-58.8l-5.25,-1.9l5.25,1.9m0.6,6l-3.85,-0.2l3.85,0.2m14.55,24.65l3.6,-2.3l-3.6,2.3m-7.85,80.1q-0.15,0.9 -1.2,1.65l-0.4,0.4q-1.65,0.2 -3.1,1.25q-2.6,1.7 -3.55,4.25l0,0.15l-0.1,0.1l-0.1,0.25l0,-0.05l0.1,-0.2l0.1,-0.25q0.05,-1.7 0.8,-4l0.65,-1.85q2,-1.4 4.65,-1.75l2.15,0.05m0.25,8.55l-0.1,0.05l-0.05,0.1l0,0.05l-0.05,0.05l0,0.05l0.05,0.45q-1.35,0.7 -2.35,1.95q-0.35,0.45 -0.85,0.7l-0.2,0.45l0.15,-0.4l0.05,-0.05l0,-0.05q0.65,-1.75 2.6,-3.1l0.75,-0.25m-6.65,2.45l2.7,-1.35l-2.7,1.35m13.25,-5.8l0.6,0.65l-1.9,0.6l0.7,0.95l-0.8,1.45l-2,-1.65l1.1,-2l2.3,0m-3.3,6.35q-0.4,0.95 -1.5,1.45l-0.15,0.05l-0.3,0.1q-0.4,-0.05 0.5,-0.75q0.65,-0.5 1.45,-0.85m11.15,-9.55l-2.4,2.35l0,2.95l-2,2.1l-0.75,-2.05l0.75,-5l1.45,-1.3l2.95,0.95m-25,-3.85q-0.95,1.45 -1.5,3.05l-0.15,0.85l-0.4,-0.05l-0.5,-0.25q-0.4,-0.25 0,-0.45l-0.4,0q0.35,-1.85 1.6,-3.3l0.2,-0.15l0.45,0l0.2,0.1l0.25,0.15l0.25,0.05m-3.15,8.75l-2.65,1.65l2.65,-1.65m1.3,-4.1l-3.95,0l3.95,0m-22.6,44.75l-0.05,0.1l0.35,0.2l0.2,0.85q0.2,1.35 -0.2,2.4q-1.5,0.8 -2.85,0.85l0.85,0.9l0.6,0.1l0.75,0.7q0.3,0.35 0.1,0.75l-0.15,0.15l-3.55,2.7l0,-3.3q-2.5,-1.4 -5.45,-1.1l1.6,-3.85q3.1,-0.9 5.95,0.55l1.8,-1.9l-0.2,-0.1l0.25,0m60.3,-34.3l0.15,0.2l0.55,0.15q1.25,0.5 1.8,1.85l1.05,2.15l-0.15,0.35l-1.1,1.1l-0.25,0.3q-0.25,-0.8 -0.05,-1.75q0.2,-1.05 -0.4,-1.8l-2.95,-3.35l0.65,0.55l0.7,0.25m-4.1,7.8l-0.95,-2l0.95,2m-2.25,3.45l-0.85,-2.15l0.85,2.15m-11.6,-7.85l0,-3.05l2.5,-1.7l0.9,1.1l-1.15,1.75l1.9,1.4l-1.5,1.65l-2.65,-1.15m-8.85,0.4l-1.05,-2.2l1.05,2.2m1.3,-2.65l-1.2,-1.85l1.2,1.85m-7.3,0.7l2.45,-1.95l-2.45,1.95m-48.75,-9.05l1.45,0q3.75,0.6 6.25,4l0.05,0.1q-1.65,0.1 -3.15,0.9l-0.05,0.05l-0.1,-0.2q0.3,-0.9 -0.45,-1.6l-0.55,-0.1l-4.3,-1l-0.7,-0.3l1.55,-1.85m4.5,11.1l-0.15,0.85l-0.2,0.75l-0.45,-0.25q-1.3,-1.55 -2.95,-2.35q-4.8,-2.05 -9.45,0.35l0,-0.05l1.9,-1.05q2.2,-1.25 4.4,-1.95q1.5,0.85 3.6,1.5l3.25,0.5l0,0.45q0.3,0.65 0.05,1.25m3.4,4q0.05,1.35 -0.3,2.45l-7.95,-0.75l-2.35,-0.25l-1.15,0q4.65,-2.5 9.55,-3.85l0.3,-0.15q1.85,0.65 1.9,2.55m-16.6,-4.65l-1.1,1.1l0.1,-0.55l1,-0.55m8.85,16.95l-0.25,-1.75l-0.4,-0.45l-0.2,-0.55l0.05,-0.1q2.45,-1.25 5.4,-1.15l-0.15,0.15q0.35,0.6 0.35,1.55q-0.1,1.25 -0.5,1.55l-1.15,0l-3.1,0.75l-0.05,0l0.05,0l-0.2,0.1l-0.05,0l-0.05,0.3l0.7,0.5q1.35,1.2 0.85,3.05l-0.8,0.4q-3.25,1.8 -6.05,4.2q0.45,2.45 0,4.85q-3.05,0.35 -5.55,-0.85q0.8,-3.55 2.55,-6.85q4.05,-0.95 7.55,-2.85l0.75,-2.45l-0.45,-0.15l0.5,-0.15l0.05,-0.1l0.15,0m8.15,6.55l-0.2,1.7l-0.4,1.15l-1.1,0l-0.75,0.35q-5.8,3.4 -5.7,10.05l-0.15,0q-1.45,0.2 -2.7,-0.55l0.7,-0.15q0.85,-1.4 1.5,-3.35q0.55,-1.55 1.65,-2.8l0.05,-1.15q0.5,-2.4 1.55,-4.25l5.55,-1m-8.55,18.55l0.25,-0.75l5.45,-0.4l0.15,0q-0.1,0.05 -0.3,0.15l0.4,0l0.05,0q0.1,0.2 0.4,0.15l0.45,0.4l-1.3,1.3l1,2.55l-0.7,0.2l-3.45,0.5q-0.1,1.55 -0.9,2.85l-1.35,2q0.6,-3.55 1.7,-7.25l-0.15,-0.45l-0.7,-0.4q-0.9,-0.2 -1,-0.85m-1.3,10.8l0.15,-0.25l0,-0.3l0.05,0.1l-0.05,0.2l0,0.4l1.3,1.3l0,3.55l0.4,1l-0.55,1.1l-0.15,1.6l0.55,0.4l0.2,0.3q0.55,0.55 1.3,1l1.65,1q0.45,1.1 1.35,1.95q1.25,1.2 1.35,2.3q-0.95,0.35 -1.95,-0.4q-0.95,-0.75 -2.2,-0.85l-1.85,-1.65q-1.25,-1.65 -1.7,-3.5l-0.7,-0.15l-2.85,-0.3l-0.25,-0.35l-0.05,-0.5l0.15,-0.7l0.15,-0.15q1.95,-0.9 3.4,-2.35l0.1,-0.35q0.35,-2.1 0.35,-4.25l-0.15,-0.15m67.25,-8.7l-0.7,-0.1l-0.2,-0.45l0,-0.05l0.9,0.6m-6.55,2.6q1,0.9 1.7,2.15l0.5,1.6l-1.35,0.65l-3,0.2l0.05,-0.1q2,-2.6 1.5,-5.75l1.55,0l-0.7,0.45l-0.25,0.8m-7.05,6.7q1.3,-0.7 2.35,0.3l0,0.1q-1.45,1.25 -2.25,2.8q2.45,2.05 3.55,4.45l-0.05,0.25q-0.55,2.2 -2.55,3.05l-0.55,-0.45q-0.15,-0.65 0.3,-1.35q0.3,-0.6 0.15,-1.1q-1,-2.8 -4.4,-2.85l0.05,-0.65q0.3,-1.45 -0.05,-2.8l1.65,-0.7l1.8,-1.05l-0.55,0.3l0.65,-0.65q0.3,0 -0.1,0.35"/>
   <path id="svg_4" fill-rule="evenodd" fill="#a35c3b" d="m72.4,-197.3l-3.85,8.75l4.85,-7.8l11.15,9.85l4.3,3.75l6.6,5.9l-0.35,2.05l-3.85,2.15l-6.2,0l-2.2,1.95l-5.6,-6.5l0.35,-0.65l-0.35,0.65l-10.6,-12.35l-22.4,-3.7l-14.1,-2.35l-8.15,3l0,-4.2l3.3,-6.85l-3.3,6.85l0,4.2l-8.95,3.2l2.1,-7.8q-2.45,-1.1 -4.85,-2.25l15,-4.2l10.25,-2.85l11.05,2.15l-0.3,1.55l-2.05,5.15l0,4.4l0,-4.4l2.05,-5.15l0.3,-1.55l7.15,1.35l15.55,3l3.1,2.7m8.4,12.95l3.75,-2.15l-3.75,2.15l-3.4,3.8l0.2,2.7l3.2,-6.5m4.55,7.1l3.5,-5.5l-3.5,5.5m-31.7,-25.45l0.1,-0.3l-0.1,0.3"/>
   <path id="svg_5" fill-rule="evenodd" fill="#7b402d" d="m84.8,-213.75l9.85,5.75l-6,12.75l-2.6,7.9l-1.5,0.85l1.5,-0.85l2.6,-7.9l6.25,4.75l1.95,-3.6l2.05,10.15l-2.85,3.7l-0.6,3.4l-6.6,-5.9l-4.3,-3.75l-11.15,-9.85l5.95,-9.75l5.45,-7.65m-27,0.8l-1.35,1.2l19.1,5.2l0,2l-3.15,7.25l-3.1,-2.7l-15.55,-3l2.7,-8.75l-2.7,8.75l-7.15,-1.35l-11.05,-2.15l-10.25,2.85l-15,4.2l-3.3,-1.55l2.2,-6.85l17.2,-2.35l-4.1,-3.25l2.6,-2.95l2.95,1.85l2.95,-0.8l3.85,-12.9l16.2,4.95l-1.65,7.2l8.6,3.15m37.1,22.45l-2.45,2.2l-3.6,5.55l3.6,-5.55l2.45,-2.2m-51.7,1.3l1.05,-1.2l0.8,2.3l-1.05,4.4l-0.95,2.15l0.95,-6.6l-0.8,-1.05m6,-26.9l-2.6,11.75l2.6,-11.75m-42,0.95l-0.35,4.6l-0.05,1.6l-0.55,7.65l-3.75,-1.8l-4.4,1.2l-1.95,2.3l-0.5,4.2l-0.15,0.05l-0.5,-2.95l-3.15,-5.8l1.4,-1.6l-0.6,-6l14.55,-3.45m19.2,4.95l0,4.2l-1.1,2.35l1.1,-2.35l0,-4.2"/>
   <path id="svg_6" fill-rule="evenodd" fill="#ad6b40" d="m108.8,-179.55l3.1,0l0.7,-1.75l6.95,-3.15l-5.8,0.3l0.3,-0.65l1.9,-2.15l3.8,-0.9l6.25,2.15l-2.45,-3l5.75,0.3l3.15,4.7l-0.95,3.3l-1.2,3.95l-0.55,2l-0.45,-3.35l-4.5,-4.7l-2.9,-0.45l0,0.55l3.9,6.4l-0.1,4.85l-3.5,1.25l1.55,-4.15l-1.85,-4.05l-0.75,-1.1l-3.1,0l1.5,1.25l3.8,4.25l-4.15,3.85l-1.3,-3.6l-0.55,-0.9l-3,-5.2l-2.45,0l2.45,0l3,5.2l-0.45,6.05l-1.5,2.7l-2.05,-6.55l-5.95,-1.45l2.5,1.85l1.8,5l-1,3.9l-3.1,0l0.6,-2.6l-4.15,-4.05l1.95,6.1l-3.4,6.05l-0.5,-8.7l-2.55,-7.15l-1.05,-0.85l0,-1.3l4.85,0l2.05,2.85l0,-2.65l-2.05,-1.55l5.1,0l4.65,2.2l1.3,-1.25l-1.9,-2.95l-3.7,-0.85m-2.3,-9.85l0,-10.1l2.6,-2.15l0.5,5.95l2.15,1.8l-1,2.55l-4.25,1.95m32.8,-3.85l-1.2,3.45l-3.35,-6.5l4.55,3.05m-33.9,18.1l2,1.55l-2,-1.55m-38.65,37.7l5.9,-8.25l0.9,4.15l-2.7,1.8l-4.1,2.3m-7.45,34.15l-0.1,0.75l-5.2,8.6l-7.8,3.95l1.85,4l-2.35,4.7l0,-2.5l-0.4,-1.2l1.5,-1.5l-2.25,-2.65l-5.4,-1.55l-0.25,-0.7l5.15,1.35l9.4,-5l4.15,-6.65l0.6,-2.05l1.1,0.45m-3.2,25.65l-1.3,-0.45l0.9,-3.65l-0.75,-2.6l1.75,-9.3l3.6,-5.7l-0.25,3.05l-3.3,10.45l0,5.8l-0.65,2.4m5.95,-20.65l0.25,-2.5l7.5,-5.55l4.1,-7.15l1.25,-3.35l0.8,2.95l-3.15,4.8l-0.85,0.95l-9.9,9.85m-31,7.9l1.85,1.75q0.55,0.8 0.45,1.85l-0.5,4.15l0,0.15l2.05,-3.8l0,-0.9l-0.2,-0.2l0,-0.8q-1.25,-2.3 -3.2,-4l-2.25,-1.3l-3.55,-0.25l-0.2,-0.15l0.05,0.2l-0.05,0.05l0.2,0.15l-0.15,-0.2l0.1,-0.05l0.05,0l5.35,3.35m-3,-7.85l5.75,5.5l2.4,4.55l-4.2,8.35l-1.55,-0.25l1.25,-2.95l0,-4.55l-7.4,-6l-4.35,-1.85l2.75,-1.9l3.35,-0.9l2,0m28.4,22.5l1.85,1.4l-0.9,4.3l-0.9,4.3l-2.6,3.4l-1.55,-0.2l2.4,-4.85l1.7,-8.35m-11.1,24.9l4.15,-8.5l4.4,0l-7.3,7.25l-1.25,1.25m-22.6,-41.8l7.4,8.3l-1.2,4l-2.85,-0.55l-0.4,-3.45l-2.95,-4.15l0,-4.15m-31.55,7.25l-0.4,-0.25l0.4,0.2l0,0.05m1.85,-3.85l0.3,0.05l-0.65,2.95l0,-0.45l0.35,-2.55m38.7,15.6l0.35,-0.15l-0.2,0.5l-0.15,-0.35m4.6,0.35l-0.65,0.1l0.15,-0.3l0.5,0.2m-39.55,58.65l-1.5,-0.85l0,-5.3l-5.1,-4.65l2,-6.4l5.2,-1.6l2.45,-2.4l2,-6.4l2.55,-1.75l5.4,2l8.85,0l4.3,-2l3.85,1.85l3.85,3.3l6.7,1.45l4.15,5.7l0.25,1.35l0.95,4.45l-2.5,2.85l-4.15,3.1l-5,-2.85l-1.55,-4.5l4,-1.15l0,-1.7l-1.45,-4.85l0,3.4l-3.7,1.9l-4.3,-2.3l2.45,-2.15l-3.85,-1l-4,4l-3.4,0l-5.15,-3.85l0,-1.7l-5.15,-2.85l1.9,1.85l0,5l-3.25,2.3l-4.35,0.55l2.6,3.7l0,6.35l-5.05,5.15m45,-15.7l5.4,0l4.25,-1.35l0,-3.15l5.3,-1.6l6.4,-1.25l6.45,4.25l0.25,5.85l-6.95,-4l-8.2,0l4.15,2.05l2.45,5.35l0,2l-8.85,2.4l-2.1,-5.2l-1.1,-1.8l-0.75,7.3l-0.95,0.4l-1.55,-1.95l-0.35,-1.85q3.3,-0.95 1.25,-4.55l-0.2,-0.2l0.6,-0.35l-2.35,0.85l-3.15,-3.2m20.45,-4.95l-0.2,0l-7.7,1.8l1.45,0.2l0.35,0.65l1.15,-0.05q3.1,-1.25 5.9,0.45l4.05,0.1l-4.2,-2.65l-0.8,-0.5m-7.55,3.7l-1.35,-0.7l-1.9,0.6l1.9,-0.6l1.35,0.7m-0.85,2.15l0.5,-0.3q-2.2,0.15 -4.15,1.3l-0.15,0.15q1.5,1.45 2.5,3.3l0.15,0.45q2.35,-2.55 5.4,-1.7q-0.85,-2.7 -4.25,-3.2m-2.5,6.1l-1,-1.65l1,1.65m-20.5,-12.9l-0.45,-0.6l-5.25,-3.25l-1.85,-0.2q-3.35,-0.35 -5.75,1.05q-1.15,-0.2 -2.55,-0.95q-0.75,-0.45 -1.2,-1.05l-0.8,-0.05q-0.95,0.35 -1.15,1.3l-2.2,-0.3q3.05,2.05 5.35,5.85q1.75,-3.5 5.85,-3.9l2.55,0.45q4.2,1.2 6.75,4.3l0.65,-2.35l0.05,-0.3m4.1,2.15l-0.4,-0.05l0.4,0.05l0.75,1.3q0.6,1.2 0.65,2.7q0.05,3 -2,4.8l4.3,0.2q0.6,-2.1 1.55,-4.15l0.1,-0.1q-1.35,-0.5 -2.2,-1.55q-0.35,-1.55 0.1,-3.05l-3.25,-0.15m12.25,3.75l2.05,3.55l-2.05,-3.55m-59.5,-155.25l-3.15,-16.85l3.85,4.7l0.85,12.15l-0.85,-12.15l6.6,-0.55l0.5,2.95l0.1,0.5l-1.1,9.8l-0.05,5.45l-2.3,-3l-2.35,-3l-0.55,0l-1.55,0m-1.5,72.5l5.25,7.95l2.3,0.9l-3.85,2.95l-1.45,7.75l-1.95,-0.5l1.3,-4.1l-2.3,-1.05l-3.55,-1.5l-2.5,0l0.4,-11.55l4.7,-3.65l1.65,2.8m14,20.7l-0.75,0.25q-1.95,1.35 -2.6,3.1l0,0.05l-0.05,0.05l-0.15,0.4l0.2,-0.45q0.5,-0.25 0.85,-0.7q1,-1.25 2.35,-1.95l-0.05,-0.45l0,-0.05l0.05,-0.05l0,-0.05l0.05,-0.1l0.1,-0.05m-4.5,2.85l3.8,-3.4l2.3,-0.95l0.25,1.25l0.3,1.3l-3.2,1l-2.8,3.4l-1.2,-0.85l0.55,-1.75m10.1,1.75l0.3,2.15l-2.15,0.35l-1.1,-2.05l-2.8,-0.7l3,-2.6l2.75,2.85m-2.3,-1.6q-0.8,0.35 -1.45,0.85q-0.9,0.7 -0.5,0.75l0.3,-0.1l0.15,-0.05q1.1,-0.5 1.5,-1.45m-13.85,-13.4l-0.25,-0.05l-0.25,-0.15l-0.2,-0.1l-0.45,0l-0.2,0.15q-1.25,1.45 -1.6,3.3l0.4,0q-0.4,0.2 0,0.45l0.5,0.25l0.4,0.05l0.15,-0.85q0.55,-1.6 1.5,-3.05m1.8,-2.35l-4.7,2.45l-1.25,3.5l1.25,-3.5l4.7,-2.45m-45.3,59.75l6.1,0l0,-7.15l5.55,-3.25l3.5,1.85l6.4,-2.85l2.95,0l1.3,3.15l-4.45,1.5l0,6.75l-6.8,5.4l-3.05,-1.55l0,-1.85l-5.4,1.1l2.6,2l-2.45,5l-2.75,0l-0.4,-1.4l-2.7,0l1.7,4.6l-3.85,3.8l1.85,0.75l1.2,3.9l-3.05,0l3.05,0l3.1,0l0,4.25l-2,0l7.9,4l-5.1,3.25l-5.55,-0.5l0,-3.3l-4.5,-1.65l-1,-3.05l-6.15,0l0,-4.1l4.1,-2.25l1.6,-5.15l2.4,-4.25l0,-2.95l-6.55,1.65l0.9,-1.9l1.5,-3.4l6.7,-2.4l1.35,0m19.05,-8l-0.25,0l0.2,0.1l-1.8,1.9q-2.85,-1.45 -5.95,-0.55l-1.6,3.85q2.95,-0.3 5.45,1.1l0,3.3l3.55,-2.7l0.15,-0.15q0.2,-0.4 -0.1,-0.75l-0.75,-0.7l-0.6,-0.1l-0.85,-0.9q1.35,-0.05 2.85,-0.85q0.4,-1.05 0.2,-2.4l-0.2,-0.85l-0.35,-0.2l0.05,-0.1m60.3,-34.3l-0.7,-0.25l-0.65,-0.55l2.95,3.35q0.6,0.75 0.4,1.8q-0.2,0.95 0.05,1.75l0.25,-0.3l1.1,-1.1l0.15,-0.35l-1.05,-2.15q-0.55,-1.35 -1.8,-1.85l-0.55,-0.15l-0.15,-0.2m-81.4,20.2l0.05,0l-0.05,0m-0.4,25.1q0.1,0.65 1,0.85l0.7,0.4l0.15,0.45q-1.1,3.7 -1.7,7.25l1.35,-2q0.8,-1.3 0.9,-2.85l3.45,-0.5l0.7,-0.2l-1,-2.55l1.3,-1.3l-0.45,-0.4q-0.3,0.05 -0.4,-0.15l-0.05,0l-0.4,0q0.2,-0.1 0.3,-0.15l-0.15,0l-5.45,0.4l-0.25,0.75m-6.7,3l-0.4,-0.2l0.4,0.2m5.4,7.8l0.15,0.15q0,2.15 -0.35,4.25l-0.1,0.35q-1.45,1.45 -3.4,2.35l-0.15,0.15l-0.15,0.7l0.05,0.5l0.25,0.35l2.85,0.3l0.7,0.15q0.45,1.85 1.7,3.5l1.85,1.65q1.25,0.1 2.2,0.85q1,0.75 1.95,0.4q-0.1,-1.1 -1.35,-2.3q-0.9,-0.85 -1.35,-1.95l-1.65,-1q-0.75,-0.45 -1.3,-1l-0.2,-0.3l-0.55,-0.4l0.15,-1.6l0.55,-1.1l-0.4,-1l0,-3.55l-1.3,-1.3l0,-0.4l0.05,-0.2l-0.05,-0.1l0,0.3l-0.15,0.25m67.25,-8.7l-0.9,-0.6l0,0.05l0.2,0.45l0.7,0.1m-6.55,2.6l0.25,-0.8l0.7,-0.45l-1.55,0q0.5,3.15 -1.5,5.75l-0.05,0.1l3,-0.2l1.35,-0.65l-0.5,-1.6q-0.7,-1.25 -1.7,-2.15m-7.05,6.7q0.4,-0.35 0.1,-0.35l-0.65,0.65l0.55,-0.3l-1.8,1.05l-1.65,0.7q0.35,1.35 0.05,2.8l-0.05,0.65q3.4,0.05 4.4,2.85q0.15,0.5 -0.15,1.1q-0.45,0.7 -0.3,1.35l0.55,0.45q2,-0.85 2.55,-3.05l0.05,-0.25q-1.1,-2.4 -3.55,-4.45q0.8,-1.55 2.25,-2.8l0,-0.1q-1.05,-1 -2.35,-0.3"/>
   <path id="svg_7" fill-rule="evenodd" fill="#ca7547" d="m77.25,-177.2l5.6,6.5l-7.5,6.8l-3.9,0l-11.1,-11l-17.7,-5.65l0.4,-1l0.95,-2.15l1.05,-4.4l-0.8,-2.3l-1.05,1.2l-2.9,3.15l0,4.75l-9,-2.9l-5.05,1.5l-7.05,-2.35l-2.9,2.4l-0.35,1.25l-4.55,-1.95l1.65,-6.05l8.95,-3.2l8.15,-3l14.1,2.35l22.4,3.7l10.6,12.35l-1.3,2.55l1.3,-2.55m-33,-16.05l0,2.85l0,-2.85m-21.3,7.35l-0.95,-3.35l0,-3.35l0,3.35l0.95,3.35"/>
   <path id="svg_8" fill-rule="evenodd" fill="#f09056" d="m42.65,-180.55l17.7,5.65l11.1,11l-9.1,0l-1.95,4.05l-6.4,-7.1l-13.9,-5.45l1.5,-5.65l-1.5,5.65l-5.65,-2.25l-9.05,2.95l-1.6,-0.85l4.5,-9.4l-2.05,-0.75l5.05,-1.5l9,2.9l0,0.6l1.3,2.65l1.05,-2.5"/>
   <path id="svg_9" fill-rule="evenodd" fill="#fa9f60" d="m40.1,-172.4l13.9,5.45l6.4,7.1l-1.75,3.55l-8.2,-1.75l-2.3,-2.8l-14.75,-4.75l-4.65,2.1l1.2,-5.9l-4.55,-2.3l9.05,-2.95l5.65,2.25l-0.4,1.6l-2.15,3.4l2.15,-3.4l0.4,-1.6"/>
   <path id="svg_10" fill-rule="evenodd" fill="#ffcf80" d="m28.75,-163.5l4.65,-2.1l14.75,4.75l2.3,2.8l-6.3,-1.4l-5.5,7.7l-1.4,0l0.95,-8.6l-4.85,-2.35l-3.3,1.4l-2.7,4.55l1.4,-6.75"/>
   <path id="svg_11" fill-rule="evenodd" fill="url(#gradient0)" d="m64.95,-161.4l10.4,0.55l-9.95,19.75l-6.5,5.95l0,8.8l2.45,4l3.75,-1.6l4.75,5.8l0,6.35l-3.95,5.7l-5.5,3.3l-1.1,-0.5l-1.1,-0.45l-1.8,-0.8l3.75,-0.05l2.1,-1.4l2.1,-1.4l3.4,-4.45l0,-4.85l-0.95,-2.6l-3.6,0l-3.9,0l-8.35,5.9l-7.05,0l-17.4,6.7l-3.95,-5.25l-1.9,6.5l-0.6,2.05l-2.45,1.05l1.75,-2.95l-2.9,2.7l-0.5,-0.8l0.5,-0.3l1.75,-4.55l1.75,-4.6l0.45,-4.25l-2.55,-5l-1.75,-2.5l-1.75,-2.5l-4.2,-11.45l-2.9,-3.5l2.9,3.5l4.2,11.45l1.75,2.5l0.95,3.9l0,4.25l-4.05,4.5l-6.05,-2.9l-8.75,-13.1l-7.85,1.55l-4,0l-2.15,-4.1l0.35,-1.8l0,-5.45l1.1,-0.9l7.65,-6.2l3.55,2.8l10.4,0l-1.15,-2.6l4.15,0.15q-1.4,-3.45 0.6,-6.4q2.3,-3.55 2.85,-7.7q0.15,-1.35 -0.05,-2.45l0,-1.6q-0.15,1.45 -1.25,3.55l-0.15,0.6l-0.45,0.75q-2.15,1.6 -4,3.85l1.8,-7l3.8,-8.05l0,-3.4l1.65,-5.85l0.9,-3.2l0.35,-1.25l6.5,3.15l-1.55,9.15l-3.75,5.6l0,5.25l3.75,-10.85l3.3,4.1l-1.45,16.9l4.25,-7.4l2.7,-4.55l4.65,3.55l0.95,8.3l2.65,0.9l-1.55,7.65l2.4,-3.7l-0.5,-4.25l6.65,-6.45l11,1.95l-0.25,7.05l-7.15,6.15l0,9.65l1.35,-4.2l0.9,-5.05l3.2,-3.25l1.7,-3.3l3.25,-6.5l5.65,-8.6m-29.3,11.95l-3.4,2.45l0,5.95l3.4,-8.4m-5.1,10.65l0.15,-0.2l-0.6,-0.35q-0.75,-0.55 -1.65,-0.45q-2.85,1.95 -5.35,4.25q-0.3,0.15 -0.6,1.35q-0.85,3.55 0.95,6.75l0.2,-1.2q0.45,-3.4 2,-6.3q1.65,-3.3 4.9,-3.85m13.2,-6.7q0.05,-0.45 -0.55,-0.55l-1.15,0.1q0.8,0 -1.85,1.3l-0.15,0.15q1.1,5.65 -3,9.85l4.3,0.7q-0.95,-4.5 0.85,-8.35l1.55,-3.2m18.5,-7.65l1.35,-0.9l-0.55,-0.3l-0.8,1.2q-4,3.05 -4.4,7.8q-0.2,1.95 -1.4,3.55l-2.25,1.6l-0.6,0.1q-1.75,4.4 -3.2,9.4q-0.25,0.75 -0.2,1.6q1.4,-3.95 4.75,-6.8q0.35,-0.35 -0.2,-0.35q-0.45,-0.75 0.1,-1.8q0.8,-1.7 2.35,-2.9l0.1,-0.4l2.3,-2.15q-0.15,-4.95 2.5,-9.35l0.15,-0.3m-21.15,32.45l-0.9,-0.5l-6.05,4.25l-4.75,0.8l-2.5,2.25l0.5,1.25l4.65,-0.65l12.55,-5.55l8.8,-1.25l-1.65,-2.55l-4.5,0l-6.15,1.95m25.7,1.4l0.95,0l-0.95,0m-31.95,-14.55l-0.5,-0.5q0.1,3.35 -0.6,6.6q-0.75,3.25 -3.35,5.5l-1.5,1.1q2.95,-0.35 5.05,-3q3.2,-4.2 1.55,-9.1l-0.65,-0.6m-4.5,10.05q1.7,-2 2.6,-5.2q0.85,-3.2 0.35,-5.75q-0.5,-2.55 -2.1,-2.95q-1.55,-0.45 -3.3,1.5l-1.15,1.7l-1.4,3.45q-0.85,3.2 -0.35,5.8q0.5,2.55 2.1,2.95q1.55,0.45 3.25,-1.5m13.9,-1.6l-10.85,7.85l10.85,-7.85m-23.85,-34.95q-4.65,3.4 -4.85,9q-0.05,2.15 -0.55,4.3q-0.25,0.95 -0.2,1.85q0.95,-3.05 2.45,-6q0.6,-1.25 0,-1.7l0.85,-3l1.7,-1.15l0.3,-1.3l0.1,-0.15q0.55,-1 0.35,-2.1q-0.1,-0.4 -0.05,-0.85l-0.1,1.1m-26.15,19.65l-6.3,2.35l-2.3,3.35l0,3.9l9.95,-2.2l3.75,0l3.6,5.9l7.55,6.95l1.65,-2.8l-1.45,-2.75l0,-5l-4.75,-7l-11.7,-2.7m28.85,-8.65l-2.7,4.6l0,8.2l2.7,-12.8m6.1,-3.55l0,-1.75l0.35,-0.35l-0.35,0.1l0,0.25l-1.75,2.9q-1.05,1.95 -3.1,2.85q0.35,6.45 -2.4,12.1q1.45,-1 2.6,-2.5l0.25,-0.65q-0.25,-2.7 0.15,-5.4l0,-0.3q1.65,-3.5 3.95,-6.85l0.3,-0.4m0,35.65l-6.65,5.3l6.65,-5.3"/>
   <path id="svg_12" fill-rule="evenodd" fill="#925738" d="m38.3,-148.55l0.35,-0.3l0.5,4.25l-2.4,3.7l1.55,-7.65m-2.65,-0.9l-3.4,8.4l0,-5.95l3.4,-2.45m23.65,-3.35l-3.25,6.5l-1.7,3.3l-3.2,3.25l-0.9,5.05l-1.35,4.2l0,-9.65l7.15,-6.15l0.25,-7.05l3,0.55m3.9,33.5l0.4,0.55l-5.6,5.35l-7.05,0l8.35,-5.9l3.9,0m-53.6,-41.6l-2.75,3.6l3.55,-12.35l4.65,-8.55l-1.65,5.85l0,3.4l-3.8,8.05m11.65,-9.45l-3.75,10.85l0,-5.25l3.75,-5.6m1.85,21l-2.7,12.8l0,-8.2l2.7,-4.6"/>
   <path id="svg_13" fill-rule="evenodd" fill="#ff9242" d="m29.85,-135.6l0.7,-0.3l0.7,0.5l-0.2,0.9q-1.1,0.8 -2.2,0.25l-0.3,-0.55l0.5,-1l0.25,-0.15l0.95,-0.2l-0.4,0.55m0.45,0.55l-0.05,-0.1l-0.25,-0.15l-0.45,0q-0.35,0.25 -0.15,0.65l0.05,0.1l0.95,-0.1q0.25,-0.15 -0.1,-0.4m-0.1,4.4l0.1,0.5l0.25,0.5q-1.75,1.25 -1.65,3.55l-0.15,1.75l-0.6,-0.15q-1.2,-0.45 -2.15,-1.1l-0.15,-0.4q-0.3,-3.6 2.6,-5.85l0.25,0.3l1.35,-0.05l0.1,0.45l0.05,0.5m-1.6,0.2q-1.85,1.15 -1.9,3.35l0,0.3l0.35,0.15l0.15,0l0.15,0l0.25,-0.25l0.15,-0.2l0.1,-0.15l-0.1,-0.35l0.6,-0.8l0.65,-1.1l0.05,-0.2l-0.75,0l0.3,-0.75"/>
   <path id="svg_14" fill-rule="evenodd" fill="url(#gradient1)" d="m29.85,-135.6l0.4,-0.55l-0.95,0.2l-0.25,0.15l-0.5,1l0.3,0.55q1.1,0.55 2.2,-0.25l0.2,-0.9l-0.7,-0.5l-0.7,0.3m0.35,4.95l-0.05,-0.5l-0.1,-0.45l-1.35,0.05l-0.25,-0.3q-2.9,2.25 -2.6,5.85l0.15,0.4q0.95,0.65 2.15,1.1l0.6,0.15l0.15,-1.75q-0.1,-2.3 1.65,-3.55l-0.25,-0.5l-0.1,-0.5m0.15,6.85q-1.7,1.95 -3.25,1.5q-1.6,-0.4 -2.1,-2.95q-0.5,-2.6 0.35,-5.8l1.4,-3.45l1.15,-1.7q1.75,-1.95 3.3,-1.5q1.6,0.4 2.1,2.95q0.5,2.55 -0.35,5.75q-0.9,3.2 -2.6,5.2"/>
   <path id="svg_15" fill-rule="evenodd" fill="#74402e" d="m75.95,-107.4l3.05,1.8l-0.25,2.1l-0.45,3.85l3.9,0l0,4.95l-4.9,1.4l-0.55,2.55l-3.95,1.75l0.55,2.1l4.2,-2.3l-0.95,8.45l-2.8,-4.15l-5.65,1.4l-0.6,-0.1l-0.3,-3.3l-2.6,2.7l-3.55,-0.7l4.2,-8.45l6.15,-4.25l1.65,-7.55l2.85,-2.25m-45.4,-31.4q-3.25,0.55 -4.9,3.85q-1.55,2.9 -2,6.3l-0.2,1.2q-1.8,-3.2 -0.95,-6.75q0.3,-1.2 0.6,-1.35q2.5,-2.3 5.35,-4.25q0.9,-0.1 1.65,0.45l0.6,0.35l-0.15,0.2m40.3,-0.95l-3.5,7.35l-2.25,8.45l-3.75,1.6l-2.45,-4l7.85,-11.1l4.1,-2.3m-21.95,64.25l3.25,1.95l3.2,-1.65l1.1,-0.55l-1.7,8.35l-2.4,4.85l1.55,0.2l0,3l-4.4,0l-4.15,8.5l-3.6,3.6l-11.85,0l-3.05,-2.3l-23.15,-5.3l-3.65,-3l-2.1,1.05l-3.3,0l-9.45,-4.05l-8.75,-8.5l-3.7,-4.2l-3.7,-4.25l16.1,15.3l8.3,2.7l10.25,0l13.1,5.95l13.8,2.3l3.75,-2l12.15,-8.7l2.4,-13.25m28.9,-20.25l0.5,-3.9l-0.5,3.9m5.55,15.2l5,-1.8l1,2.65l-5.95,2.4l-2,-1.35l1.95,-1.9m-32.4,-32.85l7.05,0l5.6,-5.35l-0.4,-0.55l3.6,0l0.95,2.6l0,4.85l-3.4,4.45l-2.1,1.4l-15.5,-3.8l-10.2,4.8l-10.85,3.05l-5.05,-3.5l1.9,-6.5l3.95,5.25l17.4,-6.7l7.05,0m-17.15,20.65l1.3,0.35l2.5,4.8l-4.3,9.4l-1.3,-1.65l4.2,-8.35l-2.4,-4.55m19.05,19.6l-0.7,-0.4l0.7,0.4m-28.55,-20.45l7.4,6l0,4.55l-1.25,2.95l-1.5,-0.25l1.2,-4l-7.4,-8.3l-3.3,-2l0,-0.95l0.5,0.15l-0.5,-0.15l0,-1.95l-3.3,-1.45l-3.25,-1.45l-3.35,1.05l-0.25,0.95l-3.75,-5.8l4.1,2.4l1.15,0l1.15,1.05l0.95,0.35l6.75,1.7l-0.4,-0.75l1.45,-1l3.3,2.25l2.05,0l-3.35,0.9l-2.75,1.9l4.35,1.85m-8.2,-31l1.75,2.5l2.55,5l-0.45,4.25l-1.75,4.6l-4.85,1.45l-4.05,0l-8.45,-9.8l-1.55,-2.35l-1.3,-2.1l-1.85,-2.8l-2.9,-1.25l-3.6,4.4l-2.6,0l-4.05,-4l1.2,-5.8l2.15,4.1l4,0l7.85,-1.55l8.75,13.1l6.05,2.9l4.05,-4.5l0,-4.25l-0.95,-3.9m0.35,22l2.9,-2.7l-1.75,2.95l-0.35,0.65l-1.7,0l0.9,-0.9m-20.3,-21.25l0.05,0l-0.05,0m-2.4,19.6l2.3,0.95l-4.6,2.85l-1.1,7.5l-1.9,-0.6l1.45,-7.75l3.85,-2.95m0.5,12.4l1.9,-1.65l7.95,-3.1l-2.3,2.7l-2.3,0.95l-3.8,3.4l0.55,-1.75l-2,-0.55m7.8,-0.8l3.55,2.75l2.1,0l-1.9,2.1l-2.75,-2.85l-0.7,-0.7l0.7,0.7l-3,2.6l-1.25,-0.35l-1.15,2.3l-1.3,-0.85l2.8,-3.4l3.2,-1l-0.3,-1.3m7.7,-7.7l-0.2,0.95l0.2,-0.95m13.55,18.95l-2.9,-3.65l2.35,-3.45l2.95,4.15l0.4,3.45l-2.8,-0.5m-32.95,-45l2.9,1.3l-2.9,-1.3"/>
   <path id="svg_16" fill-rule="evenodd" fill="#593023" d="m78.95,-160.65l9.75,-9.55l2.65,0.4l1.75,0l-2.15,5.9l-8,6.95l-3.3,11.75l0,5.75l4.7,6.4l-0.5,1l-3.05,6.65l-4.3,-2.25l0,-7.85l-3.7,9.9l1.6,5.85l0.75,2.9l-1.25,3.35l-4.1,7.15l-7.5,5.55l-0.25,2.5l-2,2l2,-2l9.9,-9.85l1.15,3l-1.65,7.55l-6.15,4.25l-4.2,8.45l3.55,0.7l2.9,0.6l0.6,0.1l6.55,6l0,2.85l-1.05,0.85l-7.75,-2.15l-8.5,5.9l0.9,-4.3l-1.85,-1.4l-1.1,0.55l-3.2,1.65l-3.25,-1.95l-3.2,-1.95l0,-3.85l2.35,-4.7l-1.85,-4l7.8,-3.95l5.2,-8.6l0.1,-0.75l1.1,0.5l5.5,-3.3l3.95,-5.7l0,-6.35l-4.75,-5.8l2.25,-8.45l3.5,-7.35l2.7,-1.8l2.7,-1.8l-0.5,-12.45l3.2,-4.85m11.4,1.05l1.7,-1.55l0,4.4l-6.75,14.65l0.9,1l2.45,-2.85l3.75,-6.8l-0.45,4.05l-0.5,4l0.5,-4l2.1,0l5.4,-5.05l-0.55,1.85l0,0.05l-1.1,3.65l-3.15,1.75l-3.2,1.75l-0.35,3.05l-2.25,1.15l-5.3,2.65l-0.75,-2.8l-1.45,-5.5l2.85,-6.2l0.6,6.15l5.55,-15.4m-7.55,20.95l2,-5.55l-2,5.55m-26.7,61l-0.75,2.45l0.75,-2.45l0.65,-2.4l0,-5.8l4.35,0.95l-4.35,-0.95l3.3,-10.45l0.25,-3.05l-3.6,5.7l-1.75,9.3l0.75,2.6l-0.9,3.65l1.3,0.45m-35.45,-27.8l5.05,3.5l10.85,-3.05l10.2,-4.8l15.5,3.8l-2.1,1.4l-3.75,0.05l-5,-2.3l-0.9,0.2l-2.25,0.5l-2.75,0.65l-7.65,1.65l-2.05,1.2l-2.45,1.35l-2.45,1.45l-2.85,1.6l-2,0l-2.05,0l-3.3,-2.25l-1.45,1l0.4,0.75l-6.75,-1.7l-0.95,-0.35l-1.15,-1.05l-1.15,0l-4.1,-2.4l-1.2,-0.7l0,-1.25l0,-3.85l0,-0.05l-1.1,-2l-2.4,-4.5l8.45,9.8l4.05,0l4.85,-1.45l-1.75,4.55l-0.5,0.3l0.5,0.8l-0.9,0.9l1.7,0l0.35,-0.65l2.45,-1.05l0.6,-2.05m18.5,14.75l5.4,1.55l2.25,2.65l-1.5,1.5l-0.4,-1.2l-4.15,0l-1.6,-4.5m14.75,28.35l2.6,-3.4l7.95,-3.35l-6.25,6.15l-1.55,6l-3.2,2.85l-1.05,4.1l-1.05,4.15l1.05,-4.15l8.35,-4.55l-6,8l-0.75,4.25l2.9,2.3l-0.15,3.55l-5,-2.25l-1.55,-2.7l1.15,-4.45l-4.75,-6.25l7.3,-7.25l0,-3m-34.45,-33.25l0,0.95l3.3,2l0,4.15l-2.35,3.45l-3.75,1l-1.35,2.25l-1.5,0.9l-1.5,0.95l-2.8,0l-2.7,-2l-0.3,-1.5l2.8,1.4l2.8,0l3.15,-2.45l-2.6,-4.15l3.5,-5.3l0,-5.05l3.3,1.45l0,1.95m-3.5,-7.8l-2.7,1.55l-2.45,0l2.45,0l2.7,-1.55m1.05,14.05l2.45,-4.3l0,-1l0,1l-2.45,4.3m3.05,-14.05l-0.6,2.05l1.25,0.85l-1.25,-0.85l0.6,-2.05"/>
   <path id="svg_17" fill-rule="evenodd" fill="#562d23" d="m92.05,-161.15l-1.7,1.55l-3.25,3l-2.9,6.25l-2.85,6.2l1.45,5.5l0.75,2.8l0.8,2.8l-4.7,-6.4l0,-5.75l3.3,-11.75l8,-6.95l2.15,-5.9l6.45,-3.4l-2.9,5.2l-2.95,5.3l-1.65,1.55m-17.65,41.4l-1.6,-5.85l3.7,-9.9l0,7.85l4.3,2.25l-3.2,2.85l-3.2,2.8m-43.5,19.9q0.7,1.8 2.2,3.35q3.05,3 7.4,3q4.25,0 7.35,-3q3.05,-3.05 3.05,-7.35l-0.4,-2.8l0.9,-0.2l5,2.3l1.8,0.8l-0.6,2.05l-4.15,6.65l-9.4,5l-5.15,-1.35l-3.8,-1l-1.3,-0.35l-5.75,-5.5l2.85,-1.6m53.1,53.95l2.35,1.05l3.85,6.3l-3.25,8.4l-5.3,2.45l-2.25,6.8l-6,1.7l-6.5,0l-2,2.15l-12.7,0l-7.15,5.1l-9.25,0l-4.85,-7.1l-7.45,-2.15l0,-3.45l2.95,2.4l5.35,1.35l4.1,6.05l3.95,-0.4l3.85,-5.15l2.35,4.65l4.4,-2.3l0,-2l3.3,1.95l9.15,-1.85l2.1,-5.35l-1.1,-1.15q3.4,1.75 6.9,3.55l4.2,-2.8l-1.05,-7l9.4,-0.8l2.45,-8.2l-3.6,-4.95l1.8,0.75m-63.8,17.25l-1.4,1.2l-9.55,-2.6l-3.7,2.9l0,6.95l-2,1.8l0,-9.2l4.15,-3.35l2.4,-1.15l3.6,2l5.85,0l0.65,1.45m-30.55,-92.05l3.6,-4.4l2.9,1.25l-1.65,1.2q-3.25,2.9 -3.25,7.1q0,4.1 3.35,7.05q3.4,2.9 6.35,2.85q2.85,-0.05 3.4,-0.55l0,1.25l1.2,0.7l-7.55,1.85l-1.95,-0.9l-2.3,-0.95l-2.3,-0.9l-5.25,-7.95l3.45,-7.6l-3.45,7.6l-1.65,-2.8l-1.55,-2.85l0,-5.95l4.05,4l2.6,0m19.6,90.65l0.85,-0.65l0,-1.4l0,1.4l-0.85,0.65"/>
   <path id="svg_18" fill-rule="evenodd" fill="#84513b" d="m122.2,-169.9l-3.15,8.7l-5.05,1.5l-5.05,1.45l-2.65,0.8l-0.8,3.25l-3.3,2.15l-3.3,2.15l0.55,-1.85l0.5,-1.85l0,-10.3l-3.3,-4.1l3.3,4.1l0,10.3l-0.5,1.85l-5.4,5.05l-2.1,0l0.45,-4.05l-3.75,6.8l-2.45,2.85l-0.9,-1l6.75,-14.65l0,-4.4l1.65,-1.55l2.95,-5.3l2.9,-5.2l2.55,7.15l0.5,8.7l3.4,-6.05l-1.95,-6.1l4.15,4.05l-0.6,2.6l3.1,0l1,-3.9l-1.8,-5l-2.5,-1.85l5.95,1.45l2.05,6.55l1.5,-2.7l0.45,-6.05l0.55,0.9l1.3,3.6l4.15,-3.85l0.4,-0.35l-1.55,4.15m-31.95,53.75l-8.35,3.05l4.9,-6.85l2.05,-18.55l4.8,7.65l-3.4,14.7m-11.5,12.65l2.5,0l2.8,4.55l-0.85,5.8l-4.1,3l0,5.7l2.25,1.55l3.5,-2.4l1.75,1.45l1.05,-1.3l2.35,-2.8l1.35,-4.85l0,5.65l0,4.4l-1,2.15l-1,0.9l-1,-2.65l-5,1.8l-1.15,-1.65l-5.6,1.45l0.95,-8.45l-4.2,2.3l-0.55,-2.1l3.95,-1.75l0.55,-2.55l4.9,-1.4l0,-4.95l-3.9,0l0.45,-3.85m7,3.9l2.4,0.45l1.85,3.8l-3.25,4.3l0.95,-4.6l-1.95,-3.95m-1.55,-50.75l2.9,-6.25l3.25,-3l-5.55,15.4l-0.6,-6.15m23.4,-12.5l-1.3,5.4l1.3,-5.4m-26.8,37.45l3.05,-6.65l-0.05,9.5l-6.2,7l0,-7l3.2,-2.85m12,-28.5l-0.4,3.15l0.4,-3.15m-1.35,11.2l3.2,-1.75l-0.85,7.8l-2.35,-6.05"/>
   <path id="svg_19" fill-rule="evenodd" fill="url(#gradient2)" d="m75.35,-160.85l3.6,0.2l-3.2,4.85l-3.15,4.85l3.15,-4.85l0.5,12.45l-2.7,1.8l-0.9,-4.15l-5.9,8.25l-7.85,11.1l0,-8.8l6.5,-5.95l9.95,-19.75"/>
   <path id="svg_20" fill-rule="evenodd" fill="#826357" d="m114,-159.7l2.25,1.3l1.5,9.5l-3.15,-2.6l-2.8,-3.35l-1.45,4.35l-4.85,-3.7l0.8,-3.25l2.65,-0.8l2.85,3.4l-2.85,-3.4l5.05,-1.45m-0.55,20.5l-1.7,2.7l-7.4,2.45l-1.3,4.2l-3.35,2.8l1.95,-11.8l4,0.65l0,-8.15l0,-3.9l5.1,8.65l4.75,-0.8l-2.05,3.2m-17.1,14.95l-3,7l0.3,-13.6l-2.55,-8.8l0.35,-3.05l2.35,6.05l0.85,-7.8l3.15,-1.75l1.1,-3.65l0,-0.05l3.3,-2.15l0.85,1.7l-1.7,6.85l-6.15,2.25l0.6,3.15l2.25,3.15l0,6.7l-1.7,4m-15.1,20.75l2.5,0l2,3.9l1.95,3.95l-4,4.4l-4.35,3.25l2.6,2.8l3.15,-2.65l2.55,2.7l-1.05,1.3l-1.75,-1.45l-3.5,2.4l-2.25,-1.55l0,-5.7l4.1,-3l0.85,-5.8l-2.8,-4.55m50.75,24.25l-1.3,-1.75l-1.3,0l-3.15,0.45l-0.15,0l-1.25,0.2l-3.25,-2.45l3.45,-3.05l-3.25,-3.05l-0.7,0.7l-12.45,2.3l-4.65,-1.6l-4.1,3.9l-6.35,0l-3.2,3l1,-2.15l0,-4.4l3.2,-2.65l6.35,0l7.9,-6.4l2.1,2.55l5.65,2.1l8.2,-5.55l2.15,6.7l0.05,0.1l0.4,-0.25l2.25,3.5l4.8,-1.5l1.95,-6.9l0.6,1.65l0,4.45l-1.8,8.05l-3.15,2.05m-7.3,-12.6l-2.9,2.95l2.9,-2.95m-29.85,4.75l-1.3,3.5l1.3,-3.5m31.1,2.2l-0.9,-0.95l0.9,0.95m-19.5,-4.8l-2.45,2.2l2.45,-2.2m-2.1,-44.35l1.3,-4.15l-1.3,4.15"/>
   <path id="svg_21" fill-rule="evenodd" fill="#b39280" d="m138.1,-189.8l1.6,0l2,4l0,1.55l4.6,0l6.5,-3.55l6.4,2l1.75,4.1l-4.05,-1.8l-4.75,1.55l-4.55,2.75l-3.4,0l-4.65,3.95l-3.9,-2.9l2.65,-3.25l-0.35,-1.3l0.15,-7.1m-21.85,31.4l2.2,1.35l6,-2l1.05,1q-0.15,7.45 -1.25,14.95l0.2,0.25q2.35,-1.9 5.15,-3.05q0.5,2.1 0.5,4.8q0,0.75 0.45,1.35l1.3,-3.85q2.4,-1.8 5.05,-0.55l1.4,0.15l0.3,0.1l0.6,0.3l0.6,0q-0.85,-1.25 -1.5,-3.45l-0.15,-0.45q0.5,-1.4 1.4,-2.55l1.55,1.6l2.85,-1.4l2.5,1.05l12.7,-3.5l7.05,-4.9l1.4,0.6l-3.7,6.9l-2.75,-0.3l-5.65,3.95l-2.55,-1l-9.55,4.55l2.45,2.4l1.85,0.95l5.25,2.5l5.85,-1.7l2.7,2.4l9,-1.55l2.55,1.25l-1.75,0.75l-13.8,5.55l-8.2,0l-5.25,-5.05l-12.75,0l-9.35,3.45l-4.35,8.2l-6.35,9.5l-8.2,0l1.7,-3.4l5.45,-4.45l0,-6.25l6,-3.15l1.4,-6.55l-4.15,-1.55l2.05,-3.2l-4.75,0.8l-5.1,-8.65l0,3.9l0,8.15l-4,-0.65l-1.95,11.8l-3.35,2.8l1.7,-4l0,-6.7l-2.25,-3.15l-0.6,-3.15l6.15,-2.25l1.7,-6.85l-0.85,-1.7l3.3,-2.15l4.85,3.7l1.45,-4.35l2.8,3.35l3.15,2.6l-1.5,-9.5m5.5,10.6l-4.15,2.15l-2.1,3.25l2.1,-3.25l4.15,-2.15m-1.55,-4.7l-1.75,-4.55l1.75,4.55m3.95,11l-4.65,2.75l-1.9,1.1l1.9,-1.1l4.65,-2.75m-0.4,2.75l-4.25,0l4.25,0m18.7,-8.3l-1.35,-1.4l1.35,1.4"/>
   <path id="svg_22" fill-rule="evenodd" fill="#7d645f" d="m93.35,-117.25l-3.1,1.1l3.4,-14.7l-4.8,-7.65l2.25,-1.15l2.55,8.8l-0.3,13.6"/>
   <path id="svg_23" fill-rule="evenodd" fill="#58403c" d="m173.05,-136.25l-1.45,1.15l-0.3,-0.4l1.75,-0.75m-91.15,23.15l-1.65,2.25l-4.3,3.45l-2.85,2.25l-1.15,-3l0.85,-0.95l3.15,-4.8l-0.8,-2.95l-0.75,-2.9l3.2,-2.8l0,7l6.2,-7l0.05,-9.5l0.5,-1l-0.8,-2.8l5.3,-2.65l-2.05,18.55l-4.9,6.85m-17.25,28.9l2.6,-2.7l0.3,3.3l-2.9,-0.6m3.5,0.7l5.65,-1.4l2.8,4.15l5.6,-1.45l1.15,1.65l-1.95,1.9l2,1.35l5.95,-2.4l-4.1,3.9l-4.75,0l-1.1,-0.95l-4,3.8l-2.85,0l1.1,-0.85l1.05,-0.85l0,-2.85l-6.55,-6m13.25,4.85l-2,1.9l2,-1.9"/>
   <path id="svg_24" fill-rule="evenodd" fill="#c29070" d="m112.6,-181.3l1.15,-2.85l5.8,-0.3l-6.95,3.15m-3.5,-20.35l2.65,-2.15l6,0l10.25,-7.7l3.6,0.85l3.4,-2.15l6.15,2l2.4,10.6l-4.25,6.95l-4.55,-3.05l3.35,6.5l-2.15,6.3l-4.45,3.1l0.95,-3.3l-3.15,-4.7l-5.75,-0.3l2.45,3l-6.25,-2.15l-3.8,0.9l2.8,-3.15l2.85,-3.15l2.85,0l2.85,0l5.65,4l-1.35,-7.75l-7.15,0.2l0,-3.55l8.15,-1.95l4.05,2.3l-4.75,-4.35l-3.45,0l-2,2l-2.3,-2.05l-3.1,6.15l-0.35,-0.05l-1.55,-0.5l-4.9,-1.4l-2.5,6.3l-2.15,-1.8l-0.5,-5.95m20.65,27.2l-0.6,2l-3.45,1.3l0.1,-4.85l-3.9,-6.4l0,-0.55l2.9,0.45l4.5,4.7l0.45,3.35m3.55,-29.9l-1.4,0l1.4,0m-9.95,30.65l-3.8,-4.25l-1.5,-1.25l3.1,0l0.75,1.1l1.85,4.05l-0.4,0.35"/>
   <path id="svg_25" fill-rule="evenodd" fill="#814f3b" d="m114.05,-184.8l-4,-0.9l-3.55,-3.7l4.25,-1.95l1,-2.55l2.5,-6.3l4.9,1.4l1.55,0.5l0.35,0.05l-3.2,2.3l0.9,5.85l-2.8,3.15l-1.9,2.15"/>
   <path id="svg_26" fill-rule="evenodd" fill="#8f614f" d="m121.05,-198.25l3.4,1.45l0,3.55l-2.85,0l-2.85,3.15l-0.9,-5.85l3.2,-2.3"/>
   <path id="svg_27" fill-rule="evenodd" fill="#956957" d="m124.45,-200.35l0,3.55l-3.4,-1.45l3.1,-6.15l2.3,2.05l-2,2l2,-2l2,-2l3.45,0l4.75,4.35l-4.05,-2.3l-8.15,1.95m0,3.55l7.15,-0.2l1.35,7.75l-5.65,-4l-2.85,0l0,-3.55"/>
   <path id="svg_28" fill-rule="evenodd" fill="#927468" d="m140.45,-171.45l-5.3,0l-4.85,-5l1.2,-3.95l4.45,-3.1l2.15,-6.3l-0.15,7.1l-2.3,4.55l0,4.9l4.8,1.8m27.15,14.85l0.5,0.15l-1.4,7.1l-2.45,2.05l-4.45,0l-3.35,4.45l-0.1,0.6l-2.2,1.1l-4.25,0l-2.2,2l-1.85,-0.95l-2.45,-2.4l9.55,-4.55l2.55,1l5.65,-3.95l2.75,0.3l3.7,-6.9m4,21.5l-9.1,7.3l-4.9,-0.15l-3.4,0.15q-3.9,0.6 -7.05,1.7l-7.3,-4.7l-6.55,0l-8.15,2l-1.4,5.7l-3.7,3.2l0,3.2l-5.6,6.45l-8.55,0l-2.85,-3.6l8.2,0l6.35,-9.5l4.35,-8.2l9.35,-3.45l12.75,0l5.25,5.05l8.2,0l13.8,-5.55l0.3,0.4m-51.55,12l0,3.2l0,-3.2"/>
   <path id="svg_29" fill-rule="evenodd" fill="#a8897b" d="m160.95,-181.7l-7.15,0l-1.6,4.6l-5.5,0l-6.25,5.65l-4.8,-1.8l0,-4.9l2.3,-4.55l0.35,1.3l-2.65,3.25l3.9,2.9l4.65,-3.95l3.4,0l4.55,-2.75l4.75,-1.55l4.05,1.8"/>
   <path id="svg_30" fill-rule="evenodd" fill="#b6886f" d="m125.5,-158.05l2.8,2.55l0,3.85l3.3,0l0,2.9l7,-2.3l0.95,1q-0.9,1.15 -1.4,2.55l0.15,0.45q0.65,2.2 1.5,3.45l-0.6,0l-0.6,-0.3l-0.3,-0.1l-1.4,-0.15q-2.65,-1.25 -5.05,0.55l-1.3,3.85q-0.45,-0.6 -0.45,-1.35q0,-2.7 -0.5,-4.8q-2.8,1.15 -5.15,3.05l-0.2,-0.25q1.1,-7.5 1.25,-14.95m-13.8,58.25l5.05,0l6,-5.6q3.3,1.5 6.7,3.05l4.15,0l0,8.8l-6.25,3l-0.45,0.15l-2.15,-6.7l-8.2,5.55l-5.65,-2.1l1.5,-4.3l-0.7,-1.85m16.6,-48l0,-3.85l0,3.85m3.3,2l0,-2.95l0,2.95"/>
   <path id="svg_31" fill-rule="evenodd" fill="#b08773" d="m88.15,-99.15l2.35,0.45l4.5,3.8l4.5,-1.6l7.45,-5.15l4.15,0l-2.3,5.45l-7.9,6.4l-6.35,0l-3.2,2.65l0,-5.65l-1.35,4.85l-2.35,2.8l-2.55,-2.7l1.2,-1.05l0.45,-2.15l-0.45,2.15l-1.2,1.05l-3.15,2.65l-2.6,-2.8l4.35,-3.25l4,-4.4l-0.95,4.6l3.25,-4.3l-1.85,-3.8"/>
   <path id="svg_32" fill-rule="evenodd" fill="#af7e62" d="m111.1,-101.65l0.6,1.85l0.7,1.85l-1.5,4.3l-2.1,-2.55l2.3,-5.45m15.8,11.25l0.45,-0.15l-0.4,0.25l-0.05,-0.1"/>
   <path id="svg_33" fill-rule="evenodd" fill="#c19e8c" d="m133.6,-102.35l2.75,6.9l-1.95,6.9l-4.8,1.5l-2.25,-3.5l6.25,-3l0,-8.8m10.2,24.8l6.15,4.8l1.05,0.85l0,3.15l-4.55,0.75l-4.8,-4.05l2.15,-5.5m11.85,8.6l8.25,3.2l0,1.75l-8.25,-1.5l0,-3.45"/>
   <path id="svg_34" fill-rule="evenodd" fill="#b08e7b" d="m136.35,-95.45l4.8,0.9l2.75,6.75l-2.35,3.35l3.15,1.55l-6.05,6.35l-3.5,-4.75l1.8,-8.05l0,-4.45l-0.6,-1.65m13.6,22.7l3.55,0l-2.5,4l0,-3.15l-1.05,-0.85m-10.75,-8.3l2.35,-3.4l-2.35,3.4"/>
   <path id="svg_35" fill-rule="evenodd" fill="#957362" d="m144.7,-82.9l-0.9,5.35l-2.15,5.5l4.8,4.05l4.55,-0.75l2.5,-4l2.15,3.8l0,3.45l8.25,1.5l0,1.8l-10.7,0l-6,-3.55l-6.1,-1.7l-9.1,-11.8l3.15,-2.05l2.85,6.85l0.65,-2.1l6.05,-6.35"/>
   <path id="svg_36" fill-rule="evenodd" fill="#ae8d7d" d="m135.15,-81.3l3.5,4.75l-0.65,2.1l-2.85,-6.85"/>
   <path id="svg_37" fill-rule="evenodd" fill="#ffd67d" d="m30.3,-135.05q0.35,0.25 0.1,0.4l-0.95,0.1l-0.05,-0.1q-0.2,-0.4 0.15,-0.65l0.45,0l0.25,0.15l0.05,0.1m-1.7,4.6l-0.3,0.75l0.75,0l-0.05,0.2l-0.65,1.1l-0.6,0.8l0.1,0.35l-0.1,0.15l-0.15,0.2l-0.25,0.25l-0.15,0l-0.15,0l-0.35,-0.15l0,-0.3q0.05,-2.2 1.9,-3.35"/>
   <path id="svg_38" fill-rule="evenodd" fill="url(#gradient3)" d="m41.2,-100.7q1.5,-0.35 2.65,-1.5q1.45,-1.4 1.65,-3.3l2.75,-0.65q0.35,0.95 0.35,2.1q0,2.75 -2.3,4.7q-2.25,1.85 -5.3,2l0.35,-1q0.4,-1.55 -0.15,-2.35m-5.4,-1.95l0.4,0.45q1.2,1.2 2.75,1.5q-0.8,1.3 -1,3q-1.65,-0.5 -3,-1.65q-1,-0.9 -1.6,-1.95l2.45,-1.35"/>
   <path id="svg_39" fill-rule="evenodd" fill="#000000" d="m41.2,-100.7q-0.45,-0.65 -1.6,-0.8l0.25,-0.35l-0.3,0.35l0.05,0l-0.65,0.8q-1.55,-0.3 -2.75,-1.5l-0.4,-0.45l2.05,-1.2l7.65,-1.65q-0.2,1.9 -1.65,3.3q-1.15,1.15 -2.65,1.5m-41.9,-18.25l1.55,2.35l2.4,4.5l-1.25,0.15q-1.7,0 -2.9,-1.15q-0.8,-0.85 -1,-1.9l1.6,-0.6l-0.3,-0.55l-1,-0.4l0.35,0.25l-0.7,-0.4q0.15,-1.15 1.05,-2.1l0.2,-0.15m-0.9,2.4l-0.35,-0.15l0.35,0.15"/>
   <path id="svg_40" fill-rule="evenodd" fill="#ffffff" d="m38.95,-100.7l0.65,-0.8l-0.05,0l0.3,-0.35l-0.25,0.35q1.15,0.15 1.6,0.8q0.55,0.8 0.15,2.35l-0.35,1q-1,2 -3.1,0.75l-0.05,-0.5l0.1,-0.6q0.2,-1.7 1,-3m-43.7,-14.15l-1.9,-0.55l0.15,-0.15l1.75,-1.2l2.8,0.05l0.7,0.4l-0.35,-0.25l1,0.4l0.3,0.55l-1.6,0.6l-2.85,0.15"/>
   <path id="svg_41" fill-rule="evenodd" fill="url(#gradient4)" d="m37.95,-97.7l-0.1,0.6l0.05,0.5q2.1,1.25 3.1,-0.75q3.05,-0.15 5.3,-2q2.3,-1.95 2.3,-4.7q0,-1.15 -0.35,-2.1l2.25,-0.5l0.4,2.8q0,4.3 -3.05,7.35q-3.1,3 -7.35,3q-4.35,0 -7.4,-3q-1.5,-1.55 -2.2,-3.35l2.45,-1.45q0.6,1.05 1.6,1.95q1.35,1.15 3,1.65"/>
   <path id="svg_42" fill-rule="evenodd" fill="url(#gradient5)" d="m35.1,-92.4l3.8,1l0.25,0.7l1.6,4.5l-1.2,0l-3.65,9.25l-2.6,0l0,-1.25l4.3,-9.4l-2.5,-4.8"/>
   <path id="svg_43" fill-rule="evenodd" fill="url(#gradient6)" d="m45.7,-81.3l0,3.85l3.2,1.95l-6.05,10.55l-7.9,4.2l2.45,-4.2l-0.4,-0.65q0.15,-2.4 0.6,-4.7l0.25,-1.3l0.2,-1.2q-1,2.15 -3.85,5.65l-0.1,0.3q0.85,3.3 0.05,6.5l-4.7,2.55l-2.8,-1.65l4.05,-5.7q0.05,-2.3 0.5,-5.15l0.7,-3l0.2,-0.5l5.5,-0.7l3.85,-9.3l4.25,0l0,2.5m-9.85,7.8q-1.4,1.55 -2.3,3.6l-0.1,0.35q2.25,-0.8 2.85,-3.5l0.05,-0.25l-0.5,-0.2m9.75,0.5l-0.45,-0.9q-0.35,-0.7 -0.4,-1.5l-0.05,-1l-0.5,-1.4q-0.4,5 -3.2,9.3l-0.05,0.1l4.65,-4.6"/>
   <path id="svg_44" fill-rule="evenodd" fill="url(#gradient7)" d="m57.4,-70.05l8.5,-5.9l7.75,2.15l-1.1,0.85l-2.1,1.7l2.5,3.45l5.85,1.85l2.85,4.7l-6,-2.3l-7.5,-1.4l-4.4,3l-0.9,1.6l-2.95,0.55l-3.25,2.85l1.55,-6l6.25,-6.15l-7.95,3.35l0.9,-4.3"/>
   <path id="svg_45" fill-rule="evenodd" fill="url(#gradient8)" d="m33.3,-78.2l0,1.25l-1.2,3.15l-0.35,0.15q-2.15,3.6 -4.85,6.9q-0.15,0.2 -0.15,0.4q0.7,3.45 -0.4,6.7l-10.25,-5.85l-26.75,0l-20.3,-12.3l0.4,-1.9l5.35,-10.8l-0.55,-2.3l0,-3.7l2.1,2.6l1.7,-2.85l2.95,-3l2.85,1.6l0,5.75l9.7,2.45l-0.2,0.75l-0.3,-0.05q-0.7,2 -1.85,3.8l-0.4,-0.2l0.4,0.25l-1.75,2.15l-0.15,0.2q0.15,3.35 -0.05,6.95q0.75,-4.35 3.45,-8.35l0,-1.25l6,1.8l1.3,-2.65l3.95,1.25l0,2.5l2.55,-0.65l0.3,1.5l2.7,2l2.8,0l1.5,-0.95l1.75,0.65l0,1l0,2l3.6,0.8l2.25,-3.45l11.9,1.7m-42.5,-7.45l0.8,-2.85l0.75,-0.75l-0.5,0l-0.25,0.75q-2.2,2.35 -4.35,3.55l-0.3,1.65l-2.9,2.4q0.1,4.9 -1.45,10l4,-8.4l0,-0.6q1.1,-1.2 1.2,-2.95l3,-2.8m39.75,12.35l0,-0.2q-0.25,-1 -0.15,-2l0.8,-1.1l-0.5,-0.5l-0.3,1.6q-2.2,2.95 -3.65,6.25q1.65,-2.25 3.8,-4.05m-48.8,-20.95l0.5,-2.25q-1.7,4.85 -4.4,9.2q-0.3,0.45 -0.2,1.15l0.15,2.9q1.3,-5.4 3.75,-10.5l0.2,-0.5m0.7,6.95l0.5,-0.75l-0.7,-2.05l-2.4,2.4l0.55,4.25q-0.8,2.9 -1.9,5.35l3.25,-4.85q-1,-2 0.7,-4.35m29.25,9.85l-0.85,1.25l-1.9,1.5l-1.5,9.1q2.45,-5.3 4.25,-11.5l0,-0.15l0.15,-0.85l-0.15,0.65m3.55,-0.5l-0.1,0l-0.7,0.85q-0.45,1.65 -2.9,4.3l-0.15,0.15l0.1,2.65l-0.45,3.85l1.55,-3.75l2.2,-6.5l-0.2,-0.55l0.55,-0.65l0.1,-0.35m-16.4,-5.5q-1.5,2.3 -2,5.15l-0.05,0.2l0.6,-0.45l0.45,-0.4q1.1,-1.2 1.3,-3.45l0.05,-0.55l-0.35,-0.5m-2.7,3.1l0.05,-1.05l0.6,-0.5l-0.5,-0.7l-0.1,1.2q-2.25,2 -2.1,5.3l0,0.2q1.85,-1.6 2.05,-4.45"/>
   <path id="svg_46" fill-rule="evenodd" fill="#da9450" d="m-9.2,-85.65l-3,2.8q-0.1,1.75 -1.2,2.95l0,0.6l-4,8.4q1.55,-5.1 1.45,-10l2.9,-2.4l0.3,-1.65q2.15,-1.2 4.35,-3.55l0.25,-0.75l0.5,0l-0.75,0.75l-0.8,2.85m45.55,12.35l-0.05,0.25q-0.6,2.7 -2.85,3.5l0.1,-0.35q0.9,-2.05 2.3,-3.6l-0.15,0.3l0.65,-0.1m-5.8,0q-2.15,1.8 -3.8,4.05q1.45,-3.3 3.65,-6.25l0.3,-1.6l0.5,0.5l-0.8,1.1q-0.1,1 0.15,2l0,0.2m15.05,0.3l-4.65,4.6l0.05,-0.1q2.8,-4.3 3.2,-9.3l0.5,1.4l0.05,1q0.05,0.8 0.4,1.5l0.45,0.9m-63.85,-21.25l-0.2,0.5q-2.45,5.1 -3.75,10.5l-0.15,-2.9q-0.1,-0.7 0.2,-1.15q2.7,-4.35 4.4,-9.2l-0.5,2.25m29.95,16.8l0.15,-0.65l-0.15,0.85l0,0.15q-1.8,6.2 -4.25,11.5l1.5,-9.1l1.9,-1.5l0.85,-1.25m-15.55,-2.9q-0.2,2.85 -2.05,4.45l0,-0.2q-0.15,-3.3 2.1,-5.3l0.1,-1.2l0.5,0.7l-0.6,0.5l-0.05,1.05"/>
   <path id="svg_47" fill-rule="evenodd" fill="#8c5236" d="m48.9,-75.5l-2.4,13.25l-12.15,8.7l-3.75,2l-13.8,-2.3l-13.1,-5.95l-10.25,0l-8.3,-2.7l-16.1,-15.3l20.3,12.3l26.75,0l10.25,5.85q1.1,-3.25 0.4,-6.7q0,-0.2 0.15,-0.4q2.7,-3.3 4.85,-6.9l0.15,0.35l-0.7,3q-0.45,2.85 -0.5,5.15l-4.05,5.7l2.8,1.65l4.7,-2.55q0.8,-3.2 -0.05,-6.5l0.1,-0.3q2.85,-3.5 3.85,-5.65l-0.2,1.2l-0.25,1.3q-0.45,2.3 -0.6,4.7l0.4,0.65l-2.45,4.2l7.9,-4.2l6.05,-10.55m-56.2,-10.2l0,1.25q-2.7,4 -3.45,8.35q0.2,-3.6 0.05,-6.95l0.15,-0.2l1.75,-2.15l0,-0.05q1.15,-1.8 1.85,-3.8l-0.35,2.55l0,0.45l-0.1,0.5l0.1,0.05l-0.1,-0.05l0.1,-0.5l0,0.4l0,0.15m-10.25,-1.6q-1.7,2.35 -0.7,4.35l-3.25,4.85q1.1,-2.45 1.9,-5.35l-0.55,-4.25l2.4,-2.4l0.7,2.05l-0.5,0.75m32.8,9.35l-0.1,0.35l-0.55,0.65l0.2,0.55l-2.2,6.5l-1.55,3.75l0.45,-3.85l-0.1,-2.65l0.15,-0.15q2.45,-2.65 2.9,-4.3l0.7,-0.85l0.1,0m-16.4,-5.5l0.35,0.5l-0.05,0.55q-0.2,2.25 -1.3,3.45l-0.45,0.4l-0.6,0.45l0.05,-0.2q0.5,-2.85 2,-5.15m-6.15,-2.4l-0.1,0.1l0.1,-0.1"/>
   <path id="svg_48" fill-rule="evenodd" fill="url(#gradient9)" d="m62.85,-60.35l0.9,-1.6l4.4,-3l7.5,1.4l6,2.3l-3.1,3l-5.85,-0.3l1.7,1.75l4.15,1.25l4.95,1.6l0,3.85l-5.9,2.7l-2.8,0l5.85,5.7l-2.7,5.25l-7.1,0l-3.95,-3.95l-3.75,2.7l-6.4,1.25l0.15,-3.55l0.15,-3.55l6.25,-6.55l7.15,-2.75l0,-4.95l-4.6,-3.05l-3,0.5m6,-1.05l-3,0.55l3,-0.55m-1.05,16.5l-0.35,0.3q-2.8,2.55 -5.95,4.6l-0.2,0.45l0.95,0.1q0.25,0.35 0.65,0.1l2.5,-1.9q2.05,-1.5 4.55,-1.45q2.55,0.05 4.15,1.9l0.45,-0.45l1.1,-1.35l0.55,-1.1l-0.55,0.1l-7.85,-1.3m-5,-1.15l0.35,0q2.2,-0.75 4,-2.15q2.95,-2.3 6.35,-0.9q2,-0.1 3.1,-1.7l1.35,-2.6q-1.55,1.35 -3.65,1.85l-5.65,1.35q-4.4,0.6 -6.9,5.05l1.05,-0.9m6.2,-0.8l-7.95,3.7l-4.3,6.7l4.3,-6.7l7.95,-3.7"/>
   <path id="svg_49" fill-rule="evenodd" fill="#73402e" d="m56.65,-56.95l3.25,-2.85l2.95,-0.55l3,-0.5l4.6,3.05l0,4.95l-7.15,2.75l-6.25,6.55l-0.15,3.55l-2.9,-2.3l0.75,-4.25l6,-8l-8.35,4.55l1.05,-4.1l3.2,-2.85m26.85,3l3.45,3.95l-2.95,4.1l-1.8,-0.75l-1.8,-0.75l-2.8,0l5.9,-2.7l0,-3.85m-60,29.3l0,-3.35l-1.95,-1.85l-1.35,1.2l-0.65,-1.45l-5.85,0l-3.6,-2l0,-2.9l0,2.9l-2.4,1.15l-4.15,3.35l0,9.2l-5.3,4.6l-1.45,-0.85l5.05,-5.15l0,-6.35l-2.6,-3.7l4.35,-0.55l3.25,-2.3l0,-5l-1.9,-1.85l5.15,2.85l0,1.7l5.15,3.85l3.4,0l4,-4l3.85,1l-2.45,2.15l4.3,2.3l3.7,-1.9l0,-3.4l1.45,4.85l0,1.7l-4,1.15l1.55,4.5l5,2.85l4.15,-3.1l2.5,-2.85l-0.95,-4.45l0.05,0l3.15,3.2l0.15,0.9l0.55,3.35l0.35,1.85l1.55,1.95l0.95,-0.4l0.75,-7.3l1.1,1.8l2.1,5.2l8.85,-2.4l0,-2l-2.45,-5.35l-4.15,-2.05l8.2,0l6.95,4l-0.25,-5.85l-6.45,-4.25l3.75,-2.7l3.95,3.95l7.1,0l2.7,-5.25l-5.85,-5.7l2.8,0l2.8,0l1.8,0.75l3.6,4.95l-2.45,8.2l-9.4,0.8l1.05,7l-4.2,2.8q-3.5,-1.8 -6.9,-3.55l1.1,1.15l-2.1,5.35l-9.15,1.85l-3.3,-1.95l0,2l-4.4,2.3l-2.35,-4.65l-3.85,5.15l-3.95,0.4l-4.1,-6.05l-5.35,-1.35l-2.95,-2.4m55.05,-33.6l0,2.7l-4.15,-1.25l-1.7,-1.75l5.85,0.3m-18.1,29.55l-1.6,-0.85l1.6,0.85m-19.7,9.05l2.45,-4.15l-0.5,-2.1l0.5,2.1l-2.45,4.15m-83.25,-59.55l3.45,6.1l-1.6,4.15l0,2.55l-3.4,0l5.85,2.6l0,5.4l3,1.6l2.9,0l-6.4,2.85l-3.5,-1.85l-5.55,3.25l0,7.15l-6.1,0l3.15,-9.45l8.8,-5.05l-3.35,-5.85l1.2,-0.65l0,-7.25l-6,-1.85l6,1.85l0,7.25l-1.2,0.65l-7.85,4.05l6.25,-7.8l-3.2,-6l5.15,0l2.4,-3.7m14.45,25.55l1.4,3.25l-1.85,7l-5.4,4.25l0,4.6l-9,0l-0.3,-0.2l-0.85,1.45l-5.25,2.35l0.7,2.65l-2.1,3.1l1.25,1.55l5.9,4.65l7.5,-1.35l2.85,3l-4.55,4l-9.15,4l-7.3,0l0,-3.3l5.55,0.5l5.1,-3.25l-7.9,-4l2,0l0,-4.25l-3.1,0l-1.2,-3.9l-1.85,-0.75l3.85,-3.8l-1.7,-4.6l2.7,0l0.4,1.4l2.75,0l2.45,-5l-2.6,-2l5.4,-1.1l0,1.85l3.05,1.55l6.8,-5.4l0,-6.75l4.45,-1.5m-30.65,36.05l-7.15,-3.05l6.15,0l1,3.05m-1.45,-14.55l-4.15,-2.55l0,-3l6.55,-1.65l0,2.95l-2.4,4.25m-3.25,-7.45l-4.9,-2.1l0,-3.45l-3.85,-5.1l1.45,-3.6l0,-5.85l1.95,7.55l3.4,2.15l6.55,-2.5l-4.65,4.95l1.55,4.55l-1.5,3.4m-0.3,-25.35l-2.9,-3.45l4.85,-6l6.35,-1.6l2.35,1.8l-1.25,0.7l-6.7,2.4l-1.25,3.05l-1.25,3.05l1.25,-3.05l4.65,0q-2.95,1.55 -5.9,3.05l-0.2,0.05m-2.9,-7.3l-5.4,0l-1.7,-3.95l6.8,-5.25l7.8,-2.45l4.25,1.55l-5.9,2.3l-4.55,3.25l-1.3,4.55m1.7,-15.1l1.6,-3.15l5.85,0.4l-7.45,2.75m14.55,52.05l1.05,4.35l-1.05,-4.35m-0.35,10.1l-1.2,-1.55l-1.85,-0.8l1.85,0.8l1.2,1.55m74.75,-6.8l-2.5,2.15l2.5,-2.15m5.45,4.7l-4,1.15l-2,-1.85l2,1.85l4,-1.15m-71.85,-14.25l0,5.4l-0.85,1.4l0.85,-1.4l0,-5.4m-2.4,22.75l1.2,-0.2l-1.2,0.2"/>
   <path id="svg_50" fill-rule="evenodd" fill="#b89a8d" d="m-52.9,-222.5l2.55,0l2.35,-2.95l7.3,0l6.8,-4.45l0,4.3l-3.25,2.65l-6.3,1.35l-2.25,3.55l0.55,3.75l0.95,0.7l-2.6,0.75l-3.4,4.15l0.3,5l0.35,4.95l-2.75,0.95l-4.35,-4.8l-3.2,0l1.95,-5.5l3.05,-2.8l-6.25,-0.05l-1.35,2.7l-3,-3.5l1,-3.95l5.45,3l6.25,-4.75l7.05,-0.6l-1.45,-1.7l-3.25,0l-2.5,-2.75m-1.95,9.1l0,2.5l4.3,-4.95l-4.3,2.45m9.7,-0.9l-5.4,-1.55l5.4,1.55m-8.3,7.25l3.55,3.35l-3.55,-3.35"/>
   <path id="svg_51" fill-rule="evenodd" fill="#cfa78d" d="m-55.7,-220l2.8,-2.5l2.5,2.75l3.25,0l1.45,1.7l-7.05,0.6l-6.25,4.75l-5.45,-3l6,-1.45l2.75,-2.85m-6.75,11.75l1.35,-2.7l6.25,0.05l0,-2.5l4.3,-2.45l-4.3,4.95l-3.05,2.8l-1.95,5.5l-2.6,-2.15l0,-3.5"/>
   <path id="svg_52" fill-rule="evenodd" fill="#dfba97" d="m-55.7,-220l-0.95,-3.1l0,-2.1l3.35,-2.25l2.9,0.55l7.45,-2.3l9.05,-0.7l-6.8,4.45l-7.3,0l-2.35,2.95l-2.55,0l-2.8,2.5"/>
   <path id="svg_53" fill-rule="evenodd" fill="#924d2b" d="m-82.35,-200.5l1.95,1.25l0,8.2l-8.45,4.1l1.7,2.6l-2.75,1.15q-2.15,0.95 -3.15,2.1l7.25,-1.25l3.6,5.5q-4.4,-0.45 -7.15,4.4l-1.45,0q4.55,1.25 9.6,0l1.95,10.65q-5.1,-0.4 -9.4,2.3q-0.8,1.65 -0.45,3.15l0.45,-0.55q2.55,-0.85 5.2,-0.75l7.35,7.1l-0.05,1.5q0.1,5.9 -4.8,8.55q5.3,1.85 7.5,-4.35l1.15,5.9l-7,6.4l-4.1,-3.4l-4.7,-6.15l2.05,-0.1q5.3,-1.1 6.5,-5.65q1.1,-0.7 1,-1.8l-0.75,0q-0.05,0.95 -0.25,1.8q-0.3,0.2 -0.7,0.35q-5.55,2.25 -10.75,1l-2.05,-11.4q2.4,-4.4 7.9,-5l0.55,-2.55l0.5,-0.8l0.2,-2.05q-0.05,-0.95 -0.7,-1.05l1.05,-1.85l-11.15,4.55l-1.2,-6.9q3.9,-2.9 7.9,-3.4l-1.3,-1.85q-4.3,-0.35 -7.85,0.75l-1.2,-2.35l4.9,-4.35l0,-1.6l-0.55,0l-6.55,1.65l-0.45,-0.95l5.9,-8.75l12.75,-6.1m-18.5,37.75l3.15,13.65l-9.2,0.05l-1.05,1.95q-4.3,0.75 -7.35,4.9l0.1,0q2.85,-0.3 5.25,-1.2l-5.5,10.3l0,7l-4.3,0l5.05,10.25l-4.85,6.45l-0.5,1.15q0.95,0.5 2.05,-0.35q2.2,-1.7 4.45,-3l-2.9,7.75l1.35,3.2l-0.95,1.55q-1.85,3.2 -1.55,6.45l0.7,-0.1l3.6,-3.7l2.45,5.5l0,18l-1.9,0l4.85,6.1l-7.65,-2.5l-1.1,-5.3l0.75,-14.1l-4.3,-5.7l2,-6.9l-1.6,-0.3q-2.8,1.45 -3.8,2.75l-0.05,0l1,-2.75l0.55,0q0.7,-0.05 0.5,-0.75l-0.35,-0.5l-1.75,-1.9q-0.3,-1.3 0.15,-2.45q2.1,-5.55 5.85,-9.5q-2.95,-0.3 -5.9,1.55l-1.2,0.8l0.5,-5.85l0,-11.4l6.55,-8.45l0,-0.8l0.8,-0.6q-1,-3.4 2.8,-5.9q3.75,-2.5 7.9,-4.3l-7.5,-0.3q-2.3,0.25 -4,1.2l0,-2.85q2.75,-1.3 5.55,-2.7l6,-6.4l5.35,0m-1.25,13.05l4.4,0.6l-4.4,-0.6m52.65,6.65l7.75,0l1.3,3.8l-2.3,3.7l3.85,11.15l-0.6,4.4l-2.15,1.7l-3.1,-2.25l0.55,-10.2l-5.3,-4.55l0,-7.75"/>
   <path id="svg_54" fill-rule="evenodd" fill="#542b1e" d="m-80.4,-199.25l11.05,6.8l-4.35,6.75l0,7.25l-1.9,7.25l8.8,28.3l0,5.4l-4.15,5.95l-4.2,2.3l-4.15,-3.3l7,-6.4l-1.15,-5.9q-2.2,6.2 -7.5,4.35q4.9,-2.65 4.8,-8.55l0.05,-1.5l-7.35,-7.1q-2.65,-0.1 -5.2,0.75l-0.45,0.55q-0.35,-1.5 0.45,-3.15q4.3,-2.7 9.4,-2.3l-1.95,-10.65q-5.05,1.25 -9.6,0l1.45,0q2.75,-4.85 7.15,-4.4l-3.6,-5.5l-7.25,1.25q1,-1.15 3.15,-2.1l2.75,-1.15l-1.7,-2.6l8.45,-4.1l0,-8.2m16.55,60.95l1.6,-2.3l-6.5,-22.15l-2.3,-8.05l2.45,-7.3l1.55,5.35l1.55,5.45l-1.6,2.25l6.6,13.85l9.2,5.2l-2.4,6.4l4.25,-3.45l-3.3,8.75l4.85,4.85l0,13.4l3.5,1.8l10.65,-1.7l-0.85,3.9l-9.55,10.7l-4.65,-1.2l-6.15,-6.6l-2.65,-2.9l-1.05,-5.5l-0.55,-3.1l-1.6,-8.35l2,-4.9l-5.05,-4.4m-33.85,-10.8l0.8,3.25l5.3,7l-1.2,4.35l-7,10.55l-6.4,3l-6.8,-5.15l-2.45,0l7.4,7.85l7.7,29.75l-3.2,19.7l-4.35,1.95l-4.85,-6.1l1.9,0l0,-18l-2.45,-5.5l-3.6,3.7l-0.7,0.1q-0.3,-3.25 1.55,-6.45l0.95,-1.55l-1.35,-3.2l2.9,-7.75q-2.25,1.3 -4.45,3q-1.1,0.85 -2.05,0.35l0.5,-1.15l4.85,-6.45l-5.05,-10.25l4.3,0l0,-7l5.5,-10.3q-2.4,0.9 -5.25,1.2l-0.1,0q3.05,-4.15 7.35,-4.9l1.05,-1.95l9.2,-0.05m44,9.5l-4.15,3.35l-0.95,2.35l0.95,-2.35l4.15,-3.35m-13.4,-25.45l-1.65,2.3l1.65,-2.3"/>
   <path id="svg_55" fill-rule="evenodd" fill="#854527" d="m-69.35,-192.45l0.65,6.3l0.7,6.3l-0.6,1.75l-2.45,7.3l2.3,8.05l6.5,22.15l-1.6,2.3l-2.95,4.35l-4.15,2.4l4.15,-5.95l0,-5.4l-8.8,-28.3l1.9,-7.25l0,-7.25l4.35,-6.75m-22.25,53.6l1.45,1.9l-0.45,3.45l-6.45,13.65l-6.95,5.15l-1.1,-5.4l-1.1,-0.85l1.1,0.85l1.1,5.4l3.7,16.8l9.3,-4.25l10.5,-16l-4.55,2.45l-5.95,0l10.05,-6.85l6.05,3.25l5.65,-1.15l5.8,2.05l3.2,-1.4l1.05,-0.85l0.55,3.1l-6.45,2.75l-7.75,-1.7l-5.2,1.95l-4.75,9.6l-7.7,7l-5.75,2.6l-3.35,0.75l1.65,7.3l-4.55,18.05q-0.5,0.25 -1.05,0.45l3.2,-19.7l-7.7,-29.75l-7.4,-7.85l2.45,0l6.8,5.15l6.4,-3l7,-10.55l1.2,-4.35m18.75,22.35l-7.65,-1.65l7.65,1.65m-26.75,21.9l-0.7,-3.3l0.7,3.3"/>
   <path id="svg_56" fill-rule="evenodd" fill="#997467" d="m-39.95,-214.75l1.35,-2.95l3,-0.95l2.95,3.4l0,5.1l-3.05,-4.6l-4.25,0m11.95,1l5.05,8.4l-1.35,6.45l-3.2,3.65l-2.2,0l0.65,-2.5l-1.15,-1.75l-4,0.25l-0.1,0l-1.85,-4.55l3.95,-3.6l2.35,2.9l0,-2.7l1.85,-6.55m12.45,25.65l1.15,2.5l-5.15,1.9l-3.25,4.1l-3.1,2l1.1,1.45l0,6.25l1.6,0.55l6.45,-2.75l1.85,-4.1l0,6.25l-1.6,2.8l-6.7,3.25l-4.5,-7l-1.25,1.7l-5.8,-1.8l-5.8,-6.5l0,1.35l-0.2,0.5l-4.3,-2l-2.35,-3.75l0,-4.3l-2.1,-0.65l-3.85,-3.55l-0.95,-3.35l2,-4.55l2.65,6.3l6.95,-3.3l4,0l-6,3.3l0,6l10,-5.05l8.6,1.95l-1.5,0.2l-4.6,0l-2.4,0.55l-1.9,4.05l0,7.65l6.25,3.3l-0.75,-6.05l7.3,-7.1l8.15,-2.1m-34,-10.65l-0.35,-4.95l-0.3,-5l7.85,0l6.2,4.9l-7.25,0.15l-6.15,4.9m16.25,-13.9l-2.4,-2.1l2.4,2.1m-13.15,23.4l-0.95,1.45l0,2.1l0,-2.1l0.95,-1.45m11.85,1.4l-2.35,0.5l-3.6,4.8l0,5.05l0,-5.05l3.6,-4.8l2.35,-0.5"/>
   <path id="svg_57" fill-rule="evenodd" fill="#c49373" d="m-44.2,-213.6l4.25,-1.15l4.25,0l3.05,4.6l0,-5.1l-2.95,-3.4l3.05,-0.95l4.55,2l0,3.85l-1.85,6.55l0,2.7l-2.35,-2.9l-3.95,3.6l1.85,4.55l0.1,0l4,-0.25l1.15,1.75l-0.65,2.5l2.2,0l2.2,0l2.6,3.5l-1.9,2.95l-1.5,0.2l-8.6,-1.95l-10,5.05l0,-6l6,-3.3l-4,0l-6.95,3.3l-2.65,-6.3l2.75,-0.95l6.15,-4.9l7.25,-0.15l-6.2,-4.9l-7.85,0l3.4,-4.15l2.6,-0.75m-5.4,18.65q0.9,0.45 2.2,-0.3l0.7,-0.1q1.15,-0.75 1.85,-2.1l0.15,-0.25q2.25,-0.75 4.05,-2.5l1.25,-1.15l1.1,0q-1.1,-0.7 -2.25,-1l-0.3,-0.1q-3.25,4.25 -8.75,6.05l-0.4,0.75l0.4,0.7m5.05,-16.05l0,1.6q3.35,-2.1 6.6,1.5l0.35,0.3l0.9,-0.35q0.8,-1.55 -0.1,-3.3q-0.45,-0.9 -1.5,-1.3l0.55,-0.15q-3.35,0.45 -6.8,1.55l0,0.15m14.85,-6.45l-2.55,-0.95l0.15,1.15l0.55,0q2.3,2.5 1,5.85q-0.15,0.4 0.1,0.5q1.85,-1.65 1.8,-4.35l-0.15,-1.1l0.4,-0.9q-0.25,-0.4 -0.75,-0.2l-0.55,0m-2.25,19.75l-0.5,0.55q-3,-0.8 -5.9,0.5l-0.15,0.1l-0.75,0.5l7.5,-0.75q0.8,-0.05 0.4,-0.7q-0.25,-0.4 -0.6,-0.2m-2.35,-1.55l-5.1,0.35l-2.55,1.8l2.55,-1.8l5.1,-0.35m-1.5,4l6.1,0l-6.1,0m-4.95,4.05l-0.85,1.15l9,-2.45l1.05,-0.05l0.35,0.55l1.25,0.35l0.6,0.55q1.4,0.25 2.65,-0.55l0.45,-0.5q-3.6,-1.05 -7.3,-1.5l-0.2,0l-3.65,0.7l-1.85,1.1q-0.9,0 -1.5,0.65m14.5,-0.95l0.4,0.15l-0.55,-0.75l0.15,0.6"/>
   <path id="svg_58" fill-rule="evenodd" fill="#e8c090" d="m-49.6,-194.95l-0.4,-0.7l0.4,-0.75q5.5,-1.8 8.75,-6.05l0.3,0.1q1.15,0.3 2.25,1l-1.1,0l-1.25,1.15q-1.8,1.75 -4.05,2.5l-0.15,0.25q-0.7,1.35 -1.85,2.1l-0.7,0.1q-1.3,0.75 -2.2,0.3m21.7,10.25l-1.45,0.9l-1,0.4q-0.6,0.2 -1,0.7q0,1.15 -0.45,2.45q-0.35,1.15 -1.05,1.95l-1.8,-1.3l-0.2,-0.75l0.05,-0.3l0.35,-1q0.9,-2.3 2.2,-4l5.15,-0.3l-1.55,0.3l0.75,0.95m-4.05,-13q0.35,-0.2 0.6,0.2q0.4,0.65 -0.4,0.7l-7.5,0.75l0.75,-0.5l0.15,-0.1q2.9,-1.3 5.9,-0.5l0.5,-0.55m-8.8,6.5q0.6,-0.65 1.5,-0.65l1.85,-1.1l3.65,-0.7l0.2,0q3.7,0.45 7.3,1.5l-0.45,0.5q-1.25,0.8 -2.65,0.55l-0.6,-0.55l-1.25,-0.35l-0.35,-0.55l-1.05,0.05l-9,2.45l0.85,-1.15m14.5,-0.95l-0.15,-0.6l0.55,0.75l-0.4,-0.15m12.65,8.5l0.1,0l-0.5,0.2l-0.9,1.85q-4.05,2.2 -3.65,6.95l-0.85,0.05q-2.4,0.75 -3.75,-0.25l0.3,-0.4q2.65,-2.3 2.6,-5.6l0.45,-0.35q3.1,-1.4 6.2,-2.45"/>
   <path id="svg_59" fill-rule="evenodd" fill="#391714" d="m-68.7,-186.15l8.65,4.9l1.85,4.3l7.3,1.95l2.95,5.65l4.35,2.3l0.7,2.75l0,0.05l7,2.35l6.25,7.55l-0.9,2.65l8.55,0.5l0,2.2l1.6,3.55l-1.15,1.35l0,5.7l1.95,5.6l0,14.1l-1.1,1.75l-3.4,0l-2,2.25l-3.85,0l-3.8,-1.25l0.85,-3.9l-2.65,-3.95l-1.25,-1.9l-0.85,-1.25l-2.1,-8.95l2.2,-5.2l0,-6.2l0,-6.2l-1.75,-3.85l-5.65,-1.2l-2.55,-1.1l-11.15,-4.7l-3.25,-7l-5.15,-1.4l-1.55,-5.35l0.6,-1.75l-0.7,-6.3m12.25,18.85l0,-5.45l-1.75,-4.2l1.75,4.2l0,5.45m23.55,22.8l2.35,-7.2l-2.35,7.2m-9.3,-16.95l-0.7,-2.8l0.7,2.8m-5.75,-7.9l2.9,5.6l-2.45,4.1l2.45,-4.1l-2.9,-5.6m12.4,45.55l1.85,-3.05l-3.1,1.15l3.1,-1.15l3.2,-1.1l5.15,-9.85l-5.15,9.85l-3.2,1.1l-1.85,3.05"/>
   <path id="svg_60" fill-rule="evenodd" fill="#6a3621" d="m-65.5,-167.3l4.1,7.25l17.6,6.45l6.25,6.3l0,6.2l-2.2,5.2l2.1,8.95l0.85,1.25l1.25,1.9l2.65,3.95l-0.85,3.9l-10.65,1.7l-3.5,-1.8l0,-13.4l-4.85,-4.85l3.3,-8.75l-4.25,3.45l2.4,-6.4l-9.2,-5.2l-6.6,-13.85l1.6,-2.25m16.05,24.25l0,7.75l5.3,4.55l-0.55,10.2l3.1,2.25l2.15,-1.7l0.6,-4.4l-3.85,-11.15l2.3,-3.7l-1.3,-3.8l-7.75,0"/>
   <path id="svg_61" fill-rule="evenodd" fill="#864831" d="m-4.5,-195.35l0.15,-0.05l-0.05,0.55l-0.1,-0.5"/>
   <path id="svg_62" fill-rule="evenodd" fill="url(#gradient10)" d="m-0.75,-201.15l10.25,6.5l-1.7,13.6l7.25,2.85l-4.65,8.55l-3.55,12.35l2.75,-3.6l-1.8,7q-0.5,4.5 -1.55,8.8l-0.15,0.45l1.15,2.6l-10.4,0l-3.55,-2.8l-7.65,6.2l0,-6.05l5.05,-7.45l0,-11.65l-2.25,1.5l-1,4.85l-2.25,5.25l-2.8,3.35l-0.8,-3.9l2,-5.75l0,-4.25l3.3,-6.85l-1.8,-6.6l0,-3.9l7.05,-2.5l2.3,3l0,3.9l2.25,-5.4l-0.9,-3.65l3.45,-16.4m-1.45,12.8l-0.25,0.4l1.5,3.05q0.5,1.45 0.65,2.95q0.5,-1.45 0.55,-3.15q0.05,-1.55 1,-2.55q-0.3,-1.35 -0.3,-2.75q0,-0.85 0.3,-1.7l0.15,-1.65l0.45,-0.75l-0.45,0.4l0,0.35q-1.65,2.75 -3.6,5.4m4.2,9.1l-1.75,-1.6q-3,3.8 -2.15,9.5q0.5,3.6 0.4,7.15q-0.1,2.95 -2.9,4.3l-0.3,0.55q-0.1,4.7 -2.5,9.2q-0.95,1.75 -2.05,3.35l6.2,-4.4q0.95,-0.55 1.6,-1.3q-0.45,-0.75 -0.45,-2.15l0,-2.4l0,-0.3l0.45,-0.25q1.35,-3.5 3.95,-6.75q0.8,-1 1.2,-2.25l-1.3,-0.3q-3.6,-5.35 -0.85,-11.5l0.45,-0.85m-5.9,7.2l-1.65,-3.65l1.65,3.65"/>
   <path id="svg_63" fill-rule="evenodd" fill="#e6bd8d" d="m-29.7,-217.45l0.55,0q0.5,-0.2 0.75,0.2l-0.4,0.9l0.15,1.1q0.05,2.7 -1.8,4.35q-0.25,-0.1 -0.1,-0.5q1.3,-3.35 -1,-5.85l-0.55,0l-0.15,-1.15l2.55,0.95m-14.85,6.45l0,-0.15q3.45,-1.1 6.8,-1.55l-0.55,0.15q1.05,0.4 1.5,1.3q0.9,1.75 0.1,3.3l-0.9,0.35l-0.35,-0.3q-3.25,-3.6 -6.6,-1.5l0,-1.6"/>
   <path id="svg_64" fill-rule="evenodd" fill="#c49474" d="m-26.1,-188.6l1.5,-0.2l-3.3,4.1l-0.75,-0.95l1.55,-0.3l-5.15,0.3q-1.3,1.7 -2.2,4l-0.35,1l-1.7,-3.15l1.9,-4.05l2.4,-0.55l4.6,0l1.5,-0.2m-3.25,4.8l-2,1.1q0.4,-0.5 1,-0.7l1,-0.4"/>
   <path id="svg_65" fill-rule="evenodd" fill="#b77c56" d="m-24.6,-188.8l3.6,-0.55l5.45,1.25l-8.15,2.1l-7.3,7.1l0.75,6.05l-6.25,-3.3l0,-7.65l1.7,3.15l-0.05,0.3l0.2,0.75l1.8,1.3q0.7,-0.8 1.05,-1.95q0.45,-1.3 0.45,-2.45l2,-1.1l1.45,-0.9l3.3,-4.1m10.2,3.2l2.1,0l1.55,0l0.55,0l2.35,3l-7.05,2.5l0,3.9l-1.85,4.1l-6.45,2.75l-1.6,-0.55l0,-6.25l-1.1,-1.45l3.1,-2l3.25,-4.1l5.15,-1.9m0.8,1.95q-3.1,1.05 -6.2,2.45l-0.45,0.35q0.05,3.3 -2.6,5.6l-0.3,0.4q1.35,1 3.75,0.25l0.85,-0.05q-0.4,-4.75 3.65,-6.95l0.9,-1.85l0.5,-0.2l-0.1,0"/>
   <path id="svg_66" fill-rule="evenodd" fill="#835646" d="m-19.25,-156.6l-10,-10.15l-3.45,0l-6.5,-4.3l-1.15,-4.4l-0.2,-0.7l0,-1.35l5.8,6.5l5.8,1.8l1.25,-1.7l4.5,7l6.7,-3.25l-1.65,2.8l-1.1,7.75"/>
   <path id="svg_67" fill-rule="evenodd" fill="url(#gradient11)" d="m-3.85,-123.85l1.85,2.8l-0.95,0.8q-1.55,1.45 -1.8,3.5l-1.75,1.2l-0.15,0.15l1.9,0.55q0.25,2 1.8,3.55q1.85,1.85 4.5,1.85q1.5,0 2.8,-0.65l0,0.05l0,3.85q-0.55,0.5 -3.4,0.55q-2.95,0.05 -6.35,-2.85q-3.35,-2.95 -3.35,-7.05q0,-4.2 3.25,-7.1l1.65,-1.2"/>
   <path id="svg_68" fill-rule="evenodd" fill="url(#gradient12)" d="m-2,-121.05l1.3,2.1l-0.2,0.15q-0.9,0.95 -1.05,2.1l-2.8,-0.05q0.25,-2.05 1.8,-3.5l0.95,-0.8m-2.75,6.2l2.85,-0.15q0.2,1.05 1,1.9q1.2,1.15 2.9,1.15l1.25,-0.15l1.1,2q-1.3,0.65 -2.8,0.65q-2.65,0 -4.5,-1.85q-1.55,-1.55 -1.8,-3.55"/>
   <path id="svg_69" fill-rule="evenodd" fill="url(#gradient13)" d="m-3.95,-103.3l1.95,0.9l7.55,-1.85l3.75,5.8l-0.45,1.85l-4.75,0l-7.95,3.1l-1.9,1.65l-3.9,-1.1l1.1,-7.5l4.6,-2.85m3.9,2.35l-2.15,-0.05q-2.65,0.35 -4.65,1.75l-0.65,1.85q-0.75,2.3 -0.8,4l-0.1,0.25l-0.1,0.2l0,0.05l0.1,-0.25l0.1,-0.1l0,-0.15q0.95,-2.55 3.55,-4.25q1.45,-1.05 3.1,-1.25l0.4,-0.4q1.05,-0.75 1.2,-1.65m4.3,2.5l5.05,0l-5.05,0"/>
   <path id="svg_70" fill-rule="evenodd" fill="url(#gradient14)" d="m4.1,-96.6l4.75,0l0.45,-1.85l0.25,-0.95l3.35,-1.05l3.25,1.45l0,5.05l-3.5,5.3l2.6,4.15l-3.15,2.45l-2.8,0l-2.8,-1.4l-0.4,-2.2l-0.3,-2.15l1.9,-2.1l-2.1,0l-3.55,-2.75l-0.25,-1.25l2.3,-2.7m4.4,4.55l0,-2.9l0.35,-1.65l-0.35,1.65l0,2.9m-1.7,-3.7l-2.3,0l-1.1,2l2,1.65l0.8,-1.45l-0.7,-0.95l1.9,-0.6l-0.6,-0.65m7.85,-3.2l-2.95,-0.95l-1.45,1.3l-0.75,5l0.75,2.05l2,-2.1l0,-2.95l2.4,-2.35m-7.1,14.65l2.65,1.15l1.5,-1.65l-1.9,-1.4l1.15,-1.75l-0.9,-1.1l-2.5,1.7l0,3.05"/>
   <path id="svg_71" fill-rule="evenodd" fill="#977265" d="m-26.1,-114.7l2,-2.25l3.4,0l-2.95,4.85l1,3.15l-3.3,1.55l-2.4,3.25l-5.45,0l-3.7,3.15l-2,4.4l-2.4,-1.85l-3.55,1.45l-8.45,-1.75l-7.1,3.55l-0.8,1.6l-3.2,-1.9l-4.85,0l-7.85,6.45l-6.65,0l-4.45,-3.7l7.45,-3.15l3.9,-4.3l9.6,-2.1l2.25,-4.55l5.15,0l5.5,-2.3l6.15,6.6l4.65,1.2l9.55,-10.7l0.85,-3.9l3.8,1.25l3.85,0l-1.95,2.3l1.95,-2.3m-30.2,14.1l0,-3.95l-4.15,-2.3l4.15,2.3l0,3.95"/>
   <path id="svg_72" fill-rule="evenodd" fill="url(#gradient15)" d="m-30.95,-77.8l3.7,4.25l-3.7,1.75l-4.05,-2.45l-1.05,2.9l-4.6,2.4l1.6,-4.15l-3.45,-6.1l-1.85,-6l-9.55,-3.45l10.15,0l4.4,4.25l-1.3,-6.1l-13.25,-8.25l8.45,1.75l1.95,0.4l4,0l2,-4.4l3.7,-3.15l5.45,0l2.4,-3.25l3.3,-1.55l1,3.25l-2.35,8.2l-1.75,1l0,3.7l-2.4,2.4l-2.4,10.7l-0.4,1.9m-2.95,-5.7l0,6.3l-1.1,2.95l1.1,-2.95l0,-6.3"/>
   <path id="svg_73" fill-rule="evenodd" fill="url(#gradient16)" d="m-53.9,-98.75l13.25,8.25l1.3,6.1l-4.4,-4.25l-10.15,0l9.55,3.45l1.85,6l-2.4,3.7l-5.15,0l3.2,6l-6.25,7.8l7.85,-4.05l3.35,5.85l-8.8,5.05l-3.15,9.45l-1.35,0l-6.7,2.4l-1.55,-4.55l4.65,-4.95l-6.55,2.5l-3.4,-2.15l-1.95,-7.55l3.1,-3.4l3.9,-1.85l0.1,0.15l0.1,-0.2q2.95,-1.5 5.9,-3.05l-4.65,0l1.25,-3.05l6.7,-2.4l1.25,-0.7l-2.35,-1.8l-6.35,1.6l-4.85,6l0,-3.85l1.3,-4.55l4.55,-3.25l5.9,-2.3l-4.25,-1.55l-7.8,2.45l-6.8,5.25l3.25,-8.6l5.55,-2.55l7.45,-2.75l-5.85,-0.4l1.5,-3.1l0.8,-1.6l7.1,-3.55m-2.15,3.85l-1.55,1.85l0.7,0.3l4.3,1l0.55,0.1q0.75,0.7 0.45,1.6l0.1,0.2l0.05,-0.05q1.5,-0.8 3.15,-0.9l-0.05,-0.1q-2.5,-3.4 -6.25,-4l-1.45,0m4.5,11.1q0.25,-0.6 -0.05,-1.25l0,-0.45l-3.25,-0.5q-2.1,-0.65 -3.6,-1.5q-2.2,0.7 -4.4,1.95l-1.9,1.05l0,0.05q4.65,-2.4 9.45,-0.35q1.65,0.8 2.95,2.35l0.45,0.25l0.2,-0.75l0.15,-0.85m-13.2,-0.65l-1,0.55l-0.1,0.55l1.1,-1.1m16.6,4.65q-0.05,-1.9 -1.9,-2.55l-0.3,0.15q-4.9,1.35 -9.55,3.85l1.15,0l2.35,0.25l7.95,0.75q0.35,-1.1 0.3,-2.45m-7.7,12.3l3.1,-0.75l1.15,0q0.4,-0.3 0.5,-1.55q0,-0.95 -0.35,-1.55l0.15,-0.15q-2.95,-0.1 -5.4,1.15l-0.05,0.1l0.2,0.55l0.4,0.45l0.25,1.75l-0.15,0l-0.05,0.1l-0.5,0.15l0.45,0.15l-0.75,2.45q-3.5,1.9 -7.55,2.85q-1.75,3.3 -2.55,6.85q2.5,1.2 5.55,0.85q0.45,-2.4 0,-4.85q2.8,-2.4 6.05,-4.2l0.8,-0.4q0.5,-1.85 -0.85,-3.05l-0.7,-0.5l0.05,-0.3l0.05,0l0.2,-0.1m-1.45,13.4l-1.5,1.6l1.5,-1.6m9.55,-6.85l-5.55,1q-1.05,1.85 -1.55,4.25l-0.05,1.15q-1.1,1.25 -1.65,2.8q-0.65,1.95 -1.5,3.35l-0.7,0.15q1.25,0.75 2.7,0.55l0.15,0q-0.1,-6.65 5.7,-10.05l0.75,-0.35l1.1,0l0.4,-1.15l0.2,-1.7m-5.35,-0.75l-2.5,1.3l2.5,-1.3"/>
   <path id="svg_74" fill-rule="evenodd" fill="url(#gradient17)" d="m15.55,-79.25l0,-1l-0.25,-1.55l1.35,-2.25l3.75,-1l2.9,3.65l-2.85,-0.5l-2.15,3.3l-2.75,-0.65"/>
   <path id="svg_75" fill-rule="evenodd" fill="#25100d" d="m-75.15,-129.25l4.2,-2.3l4.15,-2.4l2.95,-4.35l5.05,4.4l-2,4.9l1.6,8.35l-1.05,0.85l-3.2,1.4l-5.8,-2.05l-5.65,1.15l-6.05,-3.25l-10.05,6.85l5.95,0l4.55,-2.45l-10.5,16l-9.3,4.25l-3.7,-16.8l6.95,-5.15l6.45,-13.65l0.45,-3.45l3.25,4.35l11.75,3.35m-14.3,16.05l4.4,-2.5l-4.4,2.5"/>
   <path id="svg_76" stroke-width="0.05" stroke-opacity="0.301961" stroke-linejoin="round" stroke-linecap="round" stroke="#000000" fill="none" d="m84.8,-213.75l9.85,5.75l6.3,-0.95m12.8,24.8l0.3,-0.65l1.9,-2.15m-4.85,85.3l0.6,1.85m-3.05,13.9l1,0.35m-34.1,-121l3.8,-2.45m-20.4,-5.55l-1.15,1.6l-1.35,1.2l19.1,5.2l0,2l-3.15,7.25l-3.85,8.75l4.85,-7.8l5.95,-9.75m5.2,19.6l-3.75,2.15l-3.2,6.5l-0.35,0.65l-1.3,2.55m6.9,3.95l2.2,-1.95l6.2,0l3.85,-2.15l0.35,-2.05l0.6,-3.4l2.85,-3.7l3.5,0.5m-13.55,0.7l-3.5,5.5m-0.8,-9.25l1.5,-0.85l2.6,-7.9l6,-12.75m-5.8,25.25l3.6,-5.55l2.45,-2.2l-6.25,-4.75l5.15,-2.6m1.1,7.35l1.95,-3.6l2.05,10.15m-44.45,-43.25l-3.6,3.9l-1.65,7.2l2.05,-1.45m-17.45,-13.75l0.85,3.05l16.2,4.95m-1.65,7.2l8.6,3.15m-28.1,-3.35l1.1,0.95l3.85,-12.9m9.6,35l0,-4.4l2.05,-5.15l0.3,-1.55l2.6,-11.75m-23.9,12.45l-3.3,6.85l0,4.2l0,3.35l0.95,3.35m17.35,4.6l0,-4.75l2.9,-3.15l1.05,-1.2l0,-2.85m-1.2,11.7l0.95,-2.15l1.05,-4.4l-0.8,-2.3m-1.05,1.2l0.8,1.05l-0.95,6.6l-0.4,1l-1.05,2.5l-1.3,-2.65l0,-0.6m31.15,17.4l3.9,0l7.5,-6.8m-29.1,-32.3l-0.1,0.3m0.1,-0.3l2.7,-8.75m-16.35,39.35l-0.4,1.6l-2.15,3.4m22.85,7.55l1.95,-4.05l9.1,0m-9.1,0l1.3,2.45l1.3,0.05l10.4,0.55l3.6,0.2l-3.6,-3.25m-33.75,-14.15l-1.5,5.65m-14.7,0.7l4.55,2.3l-1.2,5.9l-1.4,6.75l2.7,-4.55l4.65,3.55l3.5,-2.6l-0.95,8.6l1.4,0l5.5,-7.7l6.3,1.4l8.2,1.75l1.75,-3.55m-34.15,-22.85l2.05,0.75l-4.5,9.4l1.6,0.85m12.8,11.35l-4.85,-2.35l-3.3,1.4m5.6,11.85l-0.95,-8.3m2.55,6l-1.6,2.3l2.65,0.9l0.35,-3.2m0,2.9l-0.35,0.3m0.35,-0.3l6.65,-6.45l-1.15,-4.15m15.15,6.65l-0.65,-3.5m0.65,3.5l-3.25,6.5l-1.7,3.3l-3.2,3.25l-0.9,5.05m6.05,-18.65l-11,-1.95m11,1.95l3,0.55l5.65,-8.6m33.55,-13.95l0,1.3l1.05,0.85l-6.45,3.4l-1.85,-2.85m16.95,7.2l-0.6,2.6m2.3,-8.9l-2.5,-1.85l-2,-1.55l-2.05,-1.55l-2.45,0m-2.4,1.35l0,-1.35m-3.4,1.9l1.45,-0.85l1.95,1.6m-19.55,13.4l9.75,-9.55l2.65,0.4l1.75,0m-2.75,10.2l1.7,-1.55l1.65,-1.55l2.95,-5.3l2.9,-5.2m-15.2,40.15l-0.8,-2.8l-0.75,-2.8l-1.45,-5.5l2.85,-6.2l2.9,-6.25l3.25,-3l-5.55,15.4l-2,5.55m13.25,-41.6l2.45,0.95m-1.85,11.3l3.3,4.1l0,10.3l-0.5,1.85l-0.55,1.85l3.3,-2.15l3.3,-2.15l0.8,-3.25l1.3,-5.4m-26.8,-21.5l-3.4,3.8l0.2,2.7m-1.85,22.05l-3.15,4.85m3.15,-4.85l3.2,-4.85m-8.1,20.9l-3.5,7.35l-2.25,8.45l4.75,5.8l0,6.35l-3.95,5.7l-5.5,3.3l-1.1,-0.5m-13.6,22l0,3.85l3.2,1.95l3.25,1.95l3.2,-1.65l0.75,-2.45m3.95,-18.65l2,-2m13.1,-18.55l-0.75,-2.9l-1.6,-5.85m8,0.2l3.05,-6.65l0.5,-1m8.05,-17.7l0.4,-3.15m1.85,9.45l3.15,-1.75l1.1,-3.65l0,-0.05m-6.95,3.2l-0.5,4l3.2,-1.75m-3.55,4.8l-2.25,1.15l-2.05,18.55l-4.9,6.85m9.2,-26.55l0.35,-3.05m0.5,-4l0.45,-4.05m13.25,12.55l0,-8.15m9.85,3.95l2.1,-3.25l4.15,-2.15m-38.2,11.95l5.3,-2.65m35.6,-58.3l0,-3.55l2,-2l2,-2l3.45,0l1.4,0m-12.25,6.1l3.4,1.45m2.85,3.55l-2.85,0l-2.85,0l-2.85,3.15l-2.8,3.15m13.35,-1.45l3.15,4.7l-0.95,3.3l4.45,-3.1l2.15,-6.3m-18.95,-9l1.55,0.5m3.75,5.05l0,-3.55m5.85,20.35l1.2,-3.95m-9.6,2.3l1.85,4.05l-1.55,4.15m-4.85,-4.45l0.55,0.9m-6,-6.1l2.45,0l3,5.2m1.1,17.3l1.75,4.55m-8.4,-2.35l-2.85,-3.4l-2.65,0.8m5.5,2.6l2.8,3.35m-1.15,12.3l2.05,-3.2m2.1,4.75l1.9,-1.1l4.65,-2.75m-4.65,2.75l4.25,0m4.55,-12.9l0,3.85m12.8,-0.65l1.35,1.4m-10.85,-1.7l0,2.95m-22.65,-12.45l5.05,-1.45m31.85,19.6l1.85,0.95m-122.8,-77.25l2.95,1.85l2.95,-0.8m89.25,95.45l0,-3.2m-9.15,29.45l1.5,-4.3l-0.7,-1.85m10.1,10.9l2.9,-2.95m-31.15,8.25l1.3,-3.5m41.5,-8.35l0.6,1.65l0,4.45m4.6,4.9l-2.35,3.4m11.8,12.3l0,-3.15l-1.05,-0.85m-24.9,-13.1l0.9,0.95m-29.6,-39.35l1.7,-4l0,-6.7l-2.25,-3.15m-20.65,21.25l0.8,2.95l-3.15,4.8l-0.85,0.95l1.15,3l2.85,-2.25m1.65,-15.15l-3.2,2.8m6.4,-5.65l-3.2,2.85m0.7,22.9l-0.5,3.9m8.95,4.7l-0.45,2.15l-1.2,1.05m-6.35,-15.65l-0.45,3.85m-5.2,-5.5l-1.65,7.55l-6.15,4.25l-4.2,8.45l3.55,0.7l2.6,-2.7m0.3,3.3l0.6,0.1m17.6,-16.1l1.95,3.95l-0.95,4.6m-4.8,5.85l3.15,-2.65m-44,-32.85l6.15,-1.95m-24.7,10.7l-1.9,6.5m9.7,-18.35q-1.7,1.95 -3.25,1.5q-1.6,-0.4 -2.1,-2.95q-0.5,-2.6 0.35,-5.8l1.4,-3.45l1.15,-1.7q1.75,-1.95 3.3,-1.5q1.6,0.4 2.1,2.95q0.5,2.55 -0.35,5.75q-0.9,3.2 -2.6,5.2m3.05,6.25l10.85,-7.85m-3.05,24.7q1.5,-0.35 2.65,-1.5q1.45,-1.4 1.65,-3.3l-7.65,1.65l-2.05,1.2l0.4,0.45q1.2,1.2 2.75,1.5m2.05,3.35q3.05,-0.15 5.3,-2q2.3,-1.95 2.3,-4.7q0,-1.15 -0.35,-2.1l-2.75,0.65m-9.7,2.85l-2.45,1.35q0.6,1.05 1.6,1.95q1.35,1.15 3,1.65m12.55,-8.95l0.4,2.8q0,4.3 -3.05,7.35q-3.1,3 -7.35,3q-4.35,0 -7.4,-3q-1.5,-1.55 -2.2,-3.35l-2.85,1.6l5.75,5.5l1.3,0.35l3.8,1l5.15,1.35l9.4,-5l4.15,-6.65l0.6,-2.05l-1.8,-0.8l-5,-2.3l-0.9,0.2l-2.25,0.5m-2.95,21.15l0.4,1.2l0,2.5m-12.35,-20l-2.45,1.45m8,8.45l0.25,0.7l1.6,4.5l4.15,0l0.4,1.2m12.9,-18.75l1.1,0.45m5.35,19.1l2.9,0.6m-10.8,-2.25l0,5.8l-0.65,2.4m0.35,1.9l1.85,1.4l-0.9,4.3m16.25,-3.75l1.05,-0.85l0,-2.85l-6.55,-6m-12.8,8.3l1.1,-0.55m-2.55,13.4l2.6,-3.4l0.9,-4.3m-88.35,-7.75l3.7,4.25m81.15,14.2l0,-3m-1.75,-11.2l0.7,0.4m3.9,-12.7l4.35,0.95m-4.45,27.95l3.25,-2.85l2.95,-0.55l3,-0.5l3,-0.55m3.7,-11.55l1.1,-0.85m-40.35,-3.15l2.6,0l3.65,-9.25l1.2,0m-1.2,0l1.9,2.4l4.25,0m-21.4,-9.8l-4.35,-1.85l-0.5,-0.15l0,0.95l3.3,2l7.4,8.3l-1.2,4l1.5,0.25l1.55,0.25l4.2,-8.35l-2.4,-4.55m-0.5,15.8l0,-1.25l-11.9,-1.7l-2.25,3.45l-3.6,-0.8l0,-2l0,-1l-1.75,-0.65l-1.5,0.95l-2.8,0l-2.7,-2l-0.3,-1.5l-2.55,0.65l0,-2.5l-3.95,-1.25l-1.3,2.65l-6,-1.8l-0.1,-0.05l0.1,-0.5l0.65,-2.95l0.2,-0.75l-9.7,-2.45l0,-5.75l-2.85,-1.6m-6.75,3.25l0,3.7m-4.8,13.1l-0.4,1.9m63.05,4l1.2,-3.15m-1.3,-2.9l1.3,1.65m-1.2,4.4l5.5,-0.7l-1.7,-2.45m1.7,2.45l3.85,-9.3m10.95,33.8l1.05,-4.1l3.2,-2.85m-4.25,6.95l-1.05,4.15l-1.15,4.45l1.55,2.7l5,2.25l4.3,-6.7l7.95,-3.7m-15.1,-12.5l-7.3,7.25m57.4,-35.4l2.45,-2.2m-27.05,12.95l2,-1.9l1.95,-1.9m-41.6,50.2l0.05,0m30.9,-28.2l1.7,1.75l4.15,1.25m-3.75,8.15l2.8,0m4.6,0.75l1.8,0.75m-1.8,-0.75l-1.8,-0.75l-2.8,0m-14.45,9.7l6.45,4.25m-14.9,1.85l4.15,2.05l1.6,0.85m11.5,-79.45l-9.9,9.85m-2,2l-3.3,10.45m-5.3,54.15l1.9,-0.6l1.35,0.7m-5.45,4.8l1.1,1.8l1,1.65m5.4,-13.1l6.4,-1.25m-29.65,7.55l0,1.7l-4,1.15m13.2,1.4l-0.95,-4.45m7.5,3.55l-2.05,-3.55m-4.5,4.45l0.5,2.1l-2.45,4.15m64.9,-118.55l-1.3,4.15m-160.05,-85.95l2.8,-2.5l2.55,0m-0.05,2.75l3.25,0l1.45,1.7m-16.75,9.8l1.35,-2.7m6.25,-2.45l4.3,-2.45l5.4,1.55m4.8,38.85l-0.4,-0.2m-34.4,46.4l4.2,-2.3l4.15,-2.4l2.95,-4.35l1.6,-2.3l-6.5,-22.15l-2.3,-8.05l2.45,-7.3l0.6,-1.75l-0.7,-6.3m18.5,-22.55l0.3,5l0.35,4.95l6.15,-4.9m-6.8,-5.05l3.4,-4.15l2.6,-0.75m-5.35,14.85l-2.75,0.95m26.2,9.2l1.5,-0.2m-25.3,-14.9l-3.55,-3.35m-49.8,36.9l0.85,2.15l1.55,5.25l3.15,13.65l0.8,3.25l5.3,7l1.45,1.9l3.25,4.35l11.75,3.35m-22.55,-19.85l-4.4,-0.6m64.55,2.4l0,-6.2l-1.75,-3.85l-5.65,-1.2l-2.55,-1.1l-11.15,-4.7l-3.25,-7l-5.15,-1.4l1.55,5.45l-1.6,2.25m13.4,25.45l4.25,-3.45m15.7,27.1l0.85,-3.9l-2.65,-3.95l-1.25,-1.9l-0.85,-1.25l-2.1,-8.95l2.2,-5.2l0,-6.2m-20.65,-29.65l1.75,4.2l0,5.45m-12.15,-10.8l1.55,5.35m-1.7,10l1.65,-2.3m8.3,31.15l0.95,-2.35l4.15,-3.35m62.9,-68.25l17.2,-2.35l-4.1,-3.25m-29.65,1.75l14.55,-3.45m-0.4,6.2l2.4,1.1l-2.2,6.85l3.3,1.55m15,-4.2l1.1,-2.35l0,-4.2m-19.55,-0.35l-0.05,1.6l-0.55,7.65l0.75,0.3m-11.35,5.6l0.5,-4.2l1.95,-2.3l4.4,-1.2l3.75,1.8m-8.15,-0.6l1.15,0.75l10.25,6.5l5.65,-2.55q-2.45,-1.1 -4.85,-2.25m-17.65,-12.25l0.6,6l-1.4,1.6l3.15,5.8l0.5,2.95l0.1,0.5l-1.1,9.8m1.15,-10.35l-0.05,0.55m-1.15,15.25l0,3.9l1.65,3.65m15.3,-11.3l1.65,-6.05l2.1,-7.8m1.15,14.55l2.9,-2.4l7.05,2.35m-61.95,-32.05l2.4,2.1m-2.4,-2.1l-4.25,0m10.1,10.25l-2.35,-2.9l-3.95,3.6l1.85,4.55l0.1,0l4,-0.25l1.15,1.75l-0.65,2.5l2.2,0m-2.2,0l-6.1,0m-6.15,-1.85l2.55,-1.8l5.1,-0.35m-13.1,13.55l0,-2.1l0.95,-1.45m5.9,11.75l0,-5.05l3.6,-4.8l2.35,-0.5l2.4,-0.55m4.6,0l1.5,-0.2m14.5,-9.15l-3.85,-4.7l7.3,-1.65m-2.6,18.5l0.55,0l2.35,3l2.3,3m-6.75,-6l1.55,0l-0.85,-12.15l6.6,-0.55m-17.8,18.7l3.25,-4.1l5.15,-1.9m1.85,28.15l-2.25,5.25l-2.8,3.35l-2.8,3.4l-1.15,1.35l0,5.7l1.95,5.6l3.8,2.3l0.35,-1.8l0,-5.45l1.1,-0.9l7.65,-6.2m3.55,2.8l10.4,0l2.9,3.5l4.2,11.45l1.75,2.5l1.75,2.5m-2.8,-56.1l-7.25,-2.85l1.7,-13.6m-26,27.5l-1.65,2.8l-1.1,7.75m4.35,-19.6l0,6.25l-1.6,2.8m-24.05,-10.35l0,1.35l0.2,0.7m-2.55,11.2l0.7,2.8m11.65,9.75l-2.35,7.2m10.9,-6.7l0,2.2l1.6,3.55m48.7,-36.5l-5.5,2.45l-1.55,9.15l2.55,-2.2m-7.85,-8.85l-0.9,3.2l-1.65,5.85l0,3.4l-3.8,8.05m11.65,-9.45l3.3,4.1l5.4,-3.15m-10,56.55l-1.75,4.6l-1.75,4.55l-0.5,0.3m4.1,0l0.6,-2.05m6.7,-51.3l-4.25,7.4l1.45,-16.9m-1.75,-13.25l-6.5,-3.15l-0.35,1.25l-4.55,-1.95l-3.6,2.3m-18.4,-24.85l3.85,0.2m-5.85,-7.9l5.25,1.9m-40.15,52.05l2.45,-4.1l-2.9,-5.6m44.1,45.5l0.05,0l-0.05,0l1.85,2.8l1.3,2.1l1.55,2.35l2.4,4.5l1.1,2l0,0.05l0,3.85q-0.55,0.5 -3.4,0.55q-2.95,0.05 -6.35,-2.85q-3.35,-2.95 -3.35,-7.05q0,-4.2 3.25,-7.1l1.65,-1.2l-2.9,-1.25l-3.6,4.4l-3.45,7.6l5.25,7.95l2.3,0.9l2.3,0.95l1.95,0.9l7.55,-1.85l-1.2,-0.7l0,-1.25m-9.1,-10.55q0.25,-2.05 1.8,-3.5l0.95,-0.8m0.05,4.35q0.15,-1.15 1.05,-2.1l0.2,-0.15m3.95,6.85l-1.25,0.15q-1.7,0 -2.9,-1.15q-0.8,-0.85 -1,-1.9m-2.85,0.15q0.25,2 1.8,3.55q1.85,1.85 4.5,1.85q1.5,0 2.8,-0.65m1.2,5.85l4.1,2.4l1.15,0l2.45,0l2.7,-1.55m-19.9,0.1l-4.6,2.85l-1.1,7.5l3.9,1.1l1.9,-1.65l7.95,-3.1l4.75,0l0.45,-1.85l-5.05,0m-10,6.6l2,0.55l-0.55,1.75m6.1,-4.35l2.3,-2.7m-7.85,5.3l-2.7,1.35m15.3,-6.65l-0.35,1.65l0,2.9m1.05,-7.35l-0.25,0.95m-7.5,4.55l0.25,1.25l0.3,1.3l0.7,0.7l2.75,2.85l0.3,2.15l0.4,2.2m9.65,-15.55l-3.25,-1.45m-3.35,1.05l0.2,-0.95m-13.4,13.4l1.3,0.85l1.15,-2.3l1.25,0.35l2.8,0.7l1.1,2.05l2.15,-0.35m11.15,-16.05l-1.7,0m0.6,2.7l3.3,1.45l0,1.95m0,0.95l0,1l-2.45,4.3m9.05,-8.9l2,0m-2,0l-2.05,0l-3.3,-2.25l-1.25,-0.85l0.6,-2.05m2.7,14.9l0,-4.15m-0.2,-19.3l6.65,-5.3m-45,-13.25l-1.2,5.8l4.05,4l2.6,0m-10.35,3.75l-3.4,0l-2,2.25l-1.95,2.3m7.35,-4.55l-2.95,4.85l1,3.15l1,3.25l-2.35,8.2l1.8,-0.95l0.95,-1.75q0.3,-0.2 0.7,-0.5l1.55,0.95m-0.6,-33.05l0,14.1l-1.1,1.75m-16.1,-8.75l3.1,-1.15l3.2,-1.1l5.15,-9.85m-8.35,10.95l-1.85,3.05m1.8,7.85l-0.85,3.9l-9.55,10.7l-4.65,-1.2l-6.15,-6.6l-2.65,-2.9l-1.05,-5.5l-0.55,-3.1l-1.6,-8.35l2,-4.9l-5.05,-4.4m3.4,31.45l4.15,2.3l0,3.95m30.2,-14.1l-3.85,0l-3.8,-1.25m-5.75,19.35l-4,0l-1.95,-0.4l-8.45,-1.75m0,10.1l9.55,3.45l1.85,6l3.45,6.1l-1.6,4.15m5.65,-5.3l1.1,-2.95l0,-6.3m-5.6,-13.1l2,-4.4l3.7,-3.15l5.45,0l2.4,-3.25l3.3,-1.55m-1.35,11.45l-1.75,1m-4.8,16.8l2.4,-10.7l2.4,-2.4m14.2,-0.75l1.9,0.6m-4.85,-6.25l2.3,1.05l-1.3,4.1l1.95,0.5m-4.6,-4.6l3.95,0m-3.95,5.75l2.65,-1.65m-7.05,-6.65l2.5,0l3.55,1.5l1.25,-3.5l4.7,-2.45m-36.7,39.4l1.2,-0.65l0,-7.25l-6,-1.85m-3.05,13.8l7.85,-4.05m-8.6,20.35l6.1,0l0,-7.15l5.55,-3.25m-22.7,-31.55l1.6,-3.15m20.95,47.1l0,1.85m57.9,-37.7l2.75,0.65l2.15,-3.3l2.85,0.5l2.8,0.5l2.85,0.55m-8.55,-4.7l-3.75,1l-1.35,2.25l0.25,1.55m4.9,-1.65l0.95,2m1.35,-8.6l-2.35,3.45m-6.6,4.15l1.5,-0.9m3,3.2l0.85,2.15m-21.5,-9.65l1.05,2.2m0.1,-4.5l1.2,1.85m-7.4,0.8l0.1,-0.1m2.45,-1.95l-2.45,1.95m3.65,-1.1l-1.2,-0.85l0.55,-1.75m-2.45,-35.55l-2.9,-1.3m-75.4,10.7l4.55,-2.45l7.65,1.65m11.05,22.9l0.8,-1.6l7.1,-3.55m-50.1,-15.95l6.95,-5.15l6.45,-13.65l0.45,-3.45m-13.85,22.25l-1.1,-5.4l-1.1,-0.85l-6.8,-5.15l-2.45,0m15.15,28.2l0.7,3.3m-0.7,-3.3l-3.7,-16.8m37.4,42.45l1.3,-4.55l4.55,-3.25m-2.75,15.05l1.25,-3.05l1.25,-3.05l6.7,-2.4m-9.4,8.55l0.2,-0.05q2.95,-1.5 5.9,-3.05m-1.2,15.55l1.5,-1.6m1.7,-6.3l2.5,-1.3m-8.8,18.7l-1.55,-4.55l4.65,-4.95m4.95,7.1l-1.35,0l-6.7,2.4l-1.5,3.4l0.4,0.2m-0.5,-25.6l-0.1,0.2l-0.1,-0.15m-21.35,-50.75l-4.4,2.5m40.15,82.25l-1.05,-4.35l-0.4,-1.4l-2.7,0m-2.15,8.4l1.85,0.75l1.85,0.8l1.2,1.55m-1.85,1.55l-3.05,0m6.15,0l-3.1,0m74.1,-6.2l2.5,-2.15l2.45,-2.15m-16.4,-0.85l0,2.9l0,1.4l-0.85,0.65m14.25,2.05l2,1.85l4,-1.15m-19.4,-7.7l0,-1.7m-53.65,17.7l-1.2,0.2m1.55,-15.95l0.85,-1.4l0,-5.4"/>
   <path id="svg_77" stroke-linejoin="round" stroke-linecap="round" stroke="#7b402d" fill="none" d="m100.95,-208.95l-12,-6.65l-4.15,1.85m16.15,4.8l-7.15,11.1l3.05,3.75l3.8,0l1.75,10.65l-3.9,4.15l0,2.6l2.4,0l4.85,-2.85l3.05,0l3.1,0l0.7,-1.75l1.15,-2.85m0.3,-0.65l-4,-0.9l-3.55,-3.7l0,-10.1l2.6,-2.15l2.65,-2.15l6,0l10.25,-7.7l3.6,0.85l3.4,-2.15l6.15,2l2.4,10.6l-4.25,6.95m-59.95,-15.75l-19.25,-7.15l-1.15,1.6m20.4,8.45l0,-2.9m0,2.9l5.45,-7.65m-33.55,-3.8l3.2,-9.65l-20.65,-4.1l-4.1,15l-4.8,-0.1m26.35,-1.15l6.95,2.85l0.75,0.15m-71.25,28.95l-3.15,-16.85l4.85,-3.45l-2,-7.7l16.55,-3.55l3.25,2l-0.35,4.6l15.45,-2.9l2.6,-2.95"/>
   <path id="svg_78" stroke-linejoin="round" stroke-linecap="round" stroke="#927468" fill="none" d="m138.1,-189.8l1.6,0l2,4l0,1.55l4.6,0l6.5,-3.55l6.4,2l1.75,4.1m-35.45,23.65l2.8,2.55l0,3.85l3.3,0l0,2.9l7,-2.3l0.95,1l1.55,1.6l2.85,-1.4l2.5,1.05l12.7,-3.5l7.05,-4.9l1.4,0.6m-19.9,17.45l5.25,2.5l5.85,-1.7l2.7,2.4l9,-1.55l2.55,1.25l-1.45,1.15"/>
   <path id="svg_79" stroke-linejoin="round" stroke-linecap="round" stroke="#814f3b" fill="none" d="m139.3,-193.25l-1.2,3.45"/>
   <path id="svg_80" stroke-linejoin="round" stroke-linecap="round" stroke="#593023" fill="none" d="m130.3,-176.45l-0.55,2l-0.6,2l-3.45,1.3l-3.5,1.25l-3.15,8.7l-5.05,1.5"/>
   <path id="svg_81" stroke-linejoin="round" stroke-linecap="round" stroke="#58403c" fill="none" d="m160.95,-181.7l-7.15,0l-1.6,4.6l-5.5,0l-6.25,5.65l-5.3,0l-4.85,-5m-16.3,16.75l2.25,1.3m51.35,1.8l0.5,0.15l-1.4,7.1l-2.45,2.05l-4.45,0l-3.35,4.45l-0.1,0.6l-2.2,1.1l-4.25,0l-2.2,2m23.9,4.05l-9.1,7.3l-4.9,-0.15l-3.4,0.15q-3.9,0.6 -7.05,1.7l-7.3,-4.7l-6.55,0l-8.15,2l-1.4,5.7l-3.7,3.2l0,3.2l-5.6,6.45l-8.55,0l-2.85,-3.6m10.4,-25.35l-1.7,2.7l-7.4,2.45l-1.3,4.2l-3.35,2.8m-3.35,2.8l-3,7l-3.1,1.1l-8.35,3.05l-1.65,2.25l-4.3,3.45l3.05,1.8l-0.25,2.1l2.5,0l2.5,0l2,3.9m58.95,16.7l-0.9,5.35m20.1,13.55l0,1.8l-10.7,0l-6,-3.55l-6.1,-1.7l-9.1,-11.8l-1.3,-1.75l-1.3,0l-3.15,0.45m-0.15,0l-1.25,0.2l-3.25,-2.45l3.45,-3.05l-3.25,-3.05l-0.7,0.7l-12.45,2.3m-15.1,2.3l6.35,0l4.1,-3.9l4.65,1.6m-127.9,-70.7l-10,-10.15l-3.45,0l-6.5,-4.3l-1.15,-4.4m-14.6,66.3l-5.5,2.3m15,9.85l3.55,-1.45l2.4,1.85m-22.3,3l-3.2,-1.9l-4.85,0l-7.85,6.45l-6.65,0l-4.45,-3.7l7.45,-3.15l3.9,-4.3l9.6,-2.1l2.25,-4.55l5.15,0"/>
   <path id="svg_82" stroke-linejoin="round" stroke-linecap="round" stroke="#826357" fill="none" d="m116.25,-158.4l2.2,1.35l6,-2l1.05,1m-22.45,44.2l1.7,-3.4l5.45,-4.45l0,-6.25l6,-3.15l1.4,-6.55l-4.15,-1.55m-13.75,12.15l-3.35,2.8m-10.6,24.65l2.4,0.45l2.35,0.45l4.5,3.8l4.5,-1.6l7.45,-5.15l4.15,0m0.6,1.85l5.05,0l6,-5.6q3.3,1.5 6.7,3.05l4.15,0l2.75,6.9l4.8,0.9l2.75,6.75l-2.35,3.35l3.15,1.55m-0.9,5.35l6.15,4.8l3.55,0l2.15,3.8l8.25,3.2l0,1.75m-197.8,-165.9l-9.05,0.7l-7.45,2.3l-2.9,-0.55l-3.35,2.25l0,2.1l0.95,3.1l-2.75,2.85l-6,1.45l-1,3.95l3,3.5m28.55,-21.65l0,4.3l-3.25,2.65l-6.3,1.35l-2.25,3.55l0.55,3.75l0.95,0.7l4.25,-1.15l1.35,-2.95l3,-0.95l3.05,-0.95l4.55,2l0,3.85l5.05,8.4l-1.35,6.45l-3.2,3.65l2.2,0l2.6,3.5l-1.9,2.95l3.6,-0.55l5.45,1.25l1.15,2.5l2.1,0m-28.45,9.95l-4.3,-2l-2.35,-3.75l0,-4.3l-2.1,-0.65l-3.85,-3.55l-0.95,-3.35l2,-4.55l-4.35,-4.8l-3.2,0l-2.6,-2.15l0,-3.5"/>
   <path id="svg_83" stroke-width="0.05" stroke-linejoin="round" stroke-linecap="round" stroke="#ad6b40" fill="none" d="m67.75,-119.3l-0.95,0"/>
   <path id="svg_84" stroke-linejoin="round" stroke-linecap="round" stroke="#5f3425" fill="none" d="m-27.25,-73.55l3.7,4.2l8.75,8.5l9.45,4.05l3.3,0l2.1,-1.05l3.65,3l23.15,5.3l3.05,2.3l11.85,0l3.6,-3.6m1.25,-1.25l-1.25,1.25m1.25,-1.25l4.75,6.25"/>
   <path id="svg_85" stroke-linejoin="round" stroke-linecap="round" stroke="#73402e" fill="none" d="m90.35,-80.6l3.2,-3m-4.2,3.9l1,-0.9m-8.95,1.95l2,1.35l5.95,-2.4l-4.1,3.9l-4.75,0l-1.1,-0.95m-82.6,62.1l-1.5,-0.85l0,-5.3l-5.1,-4.65l2,-6.4l5.2,-1.6l2.45,-2.4l2,-6.4l2.55,-1.75l5.4,2l8.85,0l4.3,-2l3.85,1.85l3.85,3.3l6.7,1.45l4.15,5.7l0.25,1.35m0.05,0l5.4,0l4.25,-1.35l0,-3.15l5.3,-1.6"/>
   <path id="svg_86" stroke-linejoin="round" stroke-linecap="round" stroke="#562d23" fill="none" d="m81.65,-61.25l-2.85,-4.7l-5.85,-1.85l-2.5,-3.45l2.1,-1.7m6.85,-3.8l-4,3.8l-2.85,0m6,17.4l4.95,1.6l3.45,3.95l-2.95,4.1m-5.45,-12.35l3.1,-3m-3.1,5.7l0,-2.7"/>
   <path id="svg_87" stroke-linejoin="round" stroke-linecap="round" stroke="#25100d" fill="none" d="m84,-45.9l2.35,1.05l3.85,6.3l-3.25,8.4l-5.3,2.45l-2.25,6.8l-6,1.7l-6.5,0l-2,2.15l-12.7,0l-7.15,5.1l-9.25,0l-4.85,-7.1l-7.45,-2.15l0,-3.45l0,-3.35l-1.95,-1.85l-1.35,1.2l-1.4,1.2l-9.55,-2.6l-3.7,2.9l0,6.95l-2,1.8l-5.3,4.6l-1.45,-0.85m-37.45,-54.3l4.6,-2.4l1.05,-2.9l4.05,2.45l3.7,-1.75m-5.05,16.75l-2.9,0l-3,-1.6l0,-5.4l-5.85,-2.6l3.4,0l0,-2.55m8.35,12.15l2.95,0l1.3,3.15l1.4,3.25l-1.85,7l-5.4,4.25l0,4.6l-9,0m-0.3,-0.2l-0.85,1.45l-5.25,2.35l0.7,2.65l-2.1,3.1l1.25,1.55l5.9,4.65l7.5,-1.35l2.85,3l-4.55,4l-9.15,4l-7.3,0l0,-3.3"/>
   <path id="svg_88" stroke-linejoin="round" stroke-linecap="round" stroke="#542b1e" fill="none" d="m-82.35,-200.5l1.95,1.25l11.05,6.8l0.65,6.3l8.65,4.9l1.85,4.3l7.3,1.95l2.95,5.65l4.35,2.3l0.7,2.75l0,0.05l7,2.35l6.25,7.55l-0.9,2.65l8.55,0.5m-36.65,33.65l-6.45,2.75l-7.75,-1.7l-5.2,1.95l-4.75,9.6l-7.7,7l-5.75,2.6l-3.35,0.75l1.65,7.3l-4.55,18.05q-0.5,0.25 -1.05,0.45l-4.35,1.95l-7.65,-2.5l-1.1,-5.3"/>
   <path id="svg_89" stroke-linejoin="round" stroke-linecap="round" stroke="#cd8b3d" fill="none" d="m-82.35,-200.5l-11.45,0l-14.1,12.65l0,6.45l4.65,11.25l-3.7,1.15l-3.05,4.95l-13.25,8.6l0,13.15l-5.65,12.95l1.9,8.6l-2.25,18.2l0,3.25l10.25,13.35l2.35,11.3"/>
   <path id="svg_90" stroke-linejoin="round" stroke-linecap="round" stroke="#864c30" fill="none" d="m-22,-151.2l0,-2.15l2.75,-3.25"/>
   <path id="svg_91" stroke-width="0.05" stroke-linejoin="round" stroke-linecap="round" stroke="#ffffff" fill="none" d="m-0.3,-115.6l-0.3,-0.55l-1,-0.4m-0.35,-0.15l0.35,0.15"/>
   <path id="svg_92" stroke-linejoin="round" stroke-linecap="round" stroke="#623526" fill="none" d="m-54.2,-12.65l0,-3.3l-4.5,-1.65l-7.15,-3.05l0,-4.1l4.1,-2.25l1.6,-5.15l-4.15,-2.55l0,-3l0.9,-1.9l-4.9,-2.1l0,-3.45l-3.85,-5.1l1.45,-3.6l0,-5.85l3.1,-3.4l3.9,-1.85l-2.9,-3.45l0,-3.85l-5.4,0l-1.7,-3.95l3.25,-8.6l5.55,-2.55m1.6,-3.15l1.5,-3.1"/>
  </g>
  <g transform="matrix(1,0,0,1,49.9,49.9) " id="sprite0">
   <use id="svg_93" xlink:href="#shape1" width="99.8" transform="matrix(1,0,0,1,-49.9,-49.9) " height="99.8"/>
  </g>
  <g transform="matrix(1,0,0,1,49.9,49.9) " id="shape1">
   <path id="svg_94" fill-rule="evenodd" fill="url(#gradient18)" d="m35.3,-35.25q14.6,14.6 14.6,35.25q0,20.7 -14.6,35.3q-14.6,14.6 -35.3,14.6q-20.65,0 -35.25,-14.6q-14.65,-14.6 -14.65,-35.3q0,-20.65 14.65,-35.25q14.6,-14.65 35.25,-14.65q20.7,0 35.3,14.65"/>
  </g>
  <g id="sprite1">
   <use id="svg_95" xlink:href="#shape2" width="102.95" height="45"/>
  </g>
  <g id="shape2">
   <path id="svg_96" fill-rule="evenodd" fill-opacity="0" fill="#ff00ff" d="m0,0l102.95,0l0,45l-102.95,0l0,-45"/>
  </g>
  <radialGradient spreadMethod="pad" r="819.2" id="gradient0" gradientUnits="userSpaceOnUse" gradientTransform="matrix(0.1037, 0.0, 0.0, 0.1037, 13.2, -117.45)" cy="0" cx="0">
   <stop stop-color="#6a3621" offset="0.003922"/>
   <stop stop-color="#935738" offset="0.380392"/>
   <stop stop-color="#ad6b40" offset="1"/>
  </radialGradient>
  <linearGradient y2="0.496788" y1="0.496788" x2="1.000758" x1="-0.000758" spreadMethod="pad" id="gradient1">
   <stop stop-color="#990000" offset="0.564706"/>
   <stop stop-color="#3e1c17" offset="1"/>
  </linearGradient>
  <radialGradient spreadMethod="pad" r="819.2" id="gradient2" gradientUnits="userSpaceOnUse" gradientTransform="matrix(0.0327, 0.0, 0.0, 0.0327, 72.55, -149.35)" cy="0" cx="0">
   <stop stop-color="#6a3621" offset="0.003922"/>
   <stop stop-color="#935738" offset="0.380392"/>
   <stop stop-color="#ad6b40" offset="1"/>
  </radialGradient>
  <radialGradient spreadMethod="pad" r="819.2" id="gradient3" gradientUnits="userSpaceOnUse" gradientTransform="matrix(0.018, 0.0, 0.0, 0.018, 47.7, -104.55)" cy="0" cx="0">
   <stop stop-color="#ffd67d" offset="0"/>
   <stop stop-color="#ff9242" offset="1"/>
  </radialGradient>
  <radialGradient spreadMethod="pad" r="819.2" id="gradient4" gradientUnits="userSpaceOnUse" gradientTransform="matrix(0.0231, 0.0, 0.0, 0.0231, 33.0, -99.55)" cy="0" cx="0">
   <stop stop-color="#ffffff" offset="0.694118"/>
   <stop stop-color="#dfdfe8" offset="1"/>
  </radialGradient>
  <radialGradient spreadMethod="pad" r="819.2" id="gradient5" gradientUnits="userSpaceOnUse" gradientTransform="matrix(0.0181, 0.0, 0.0, 0.0181, 35.25, -77.6)" cy="0" cx="0">
   <stop stop-color="#6a3621" offset="0.003922"/>
   <stop stop-color="#935738" offset="0.380392"/>
   <stop stop-color="#ad6b40" offset="1"/>
  </radialGradient>
  <radialGradient spreadMethod="pad" r="819.2" id="gradient6" gradientUnits="userSpaceOnUse" gradientTransform="matrix(0.0226, 0.0, 0.0, 0.0226, 43.45, -67.3)" cy="0" cx="0">
   <stop stop-color="#6a3621" offset="0.003922"/>
   <stop stop-color="#935738" offset="0.380392"/>
   <stop stop-color="#ad6b40" offset="1"/>
  </radialGradient>
  <radialGradient spreadMethod="pad" r="819.2" id="gradient7" gradientUnits="userSpaceOnUse" gradientTransform="matrix(0.0259, 0.0, 0.0, 0.0259, 66.5, -75.7)" cy="0" cx="0">
   <stop stop-color="#593023" offset="0"/>
   <stop stop-color="#73402e" offset="1"/>
  </radialGradient>
  <radialGradient spreadMethod="pad" r="819.2" id="gradient8" gradientUnits="userSpaceOnUse" gradientTransform="matrix(0.0723, 0.0, 0.0, 0.0723, 26.75, -69.25)" cy="0" cx="0">
   <stop stop-color="#6a3621" offset="0.003922"/>
   <stop stop-color="#935738" offset="0.380392"/>
   <stop stop-color="#ad6b40" offset="1"/>
  </radialGradient>
  <radialGradient spreadMethod="pad" r="819.2" id="gradient9" gradientUnits="userSpaceOnUse" gradientTransform="matrix(0.0375, 0.0, 0.0, 0.0375, 68.1, -64.95)" cy="0" cx="0">
   <stop stop-color="#6a3621" offset="0.003922"/>
   <stop stop-color="#935738" offset="0.380392"/>
   <stop stop-color="#ad6b40" offset="1"/>
  </radialGradient>
  <radialGradient spreadMethod="pad" r="819.2" id="gradient10" gradientUnits="userSpaceOnUse" gradientTransform="matrix(0.0703, 0.0, 0.0, 0.0703, 3.85, -143.7)" cy="0" cx="0">
   <stop stop-color="#6a3621" offset="0.003922"/>
   <stop stop-color="#935738" offset="0.380392"/>
   <stop stop-color="#ad6b40" offset="1"/>
  </radialGradient>
  <radialGradient spreadMethod="pad" r="819.2" id="gradient11" gradientUnits="userSpaceOnUse" gradientTransform="matrix(0.0145, 0.0, 0.0, 0.0145, -5.75, -112.5)" cy="0" cx="0">
   <stop stop-color="#ffffff" offset="0.694118"/>
   <stop stop-color="#dfdfe8" offset="1"/>
  </radialGradient>
  <radialGradient spreadMethod="pad" r="819.2" id="gradient12" gradientUnits="userSpaceOnUse" gradientTransform="matrix(0.0143, 0.0, 0.0, 0.0143, 3.1, -110.75)" cy="0" cx="0">
   <stop stop-color="#ffd67d" offset="0"/>
   <stop stop-color="#ff9242" offset="1"/>
  </radialGradient>
  <radialGradient spreadMethod="pad" r="819.2" id="gradient13" gradientUnits="userSpaceOnUse" gradientTransform="matrix(0.0212, 0.0, 0.0, 0.0212, -7.25, -93.0)" cy="0" cx="0">
   <stop stop-color="#6a3621" offset="0.003922"/>
   <stop stop-color="#935738" offset="0.380392"/>
   <stop stop-color="#ad6b40" offset="1"/>
  </radialGradient>
  <radialGradient spreadMethod="pad" r="819.2" id="gradient14" gradientUnits="userSpaceOnUse" gradientTransform="matrix(0.0222, 0.0, 0.0, 0.0222, 11.6, -82.3)" cy="0" cx="0">
   <stop stop-color="#6a3621" offset="0.003922"/>
   <stop stop-color="#935738" offset="0.380392"/>
   <stop stop-color="#ad6b40" offset="1"/>
  </radialGradient>
  <radialGradient spreadMethod="pad" r="819.2" id="gradient15" gradientUnits="userSpaceOnUse" gradientTransform="matrix(0.0486, 0.0, 0.0, 0.0486, -23.5, -104.9)" cy="0" cx="0">
   <stop stop-color="#593023" offset="0"/>
   <stop stop-color="#73402e" offset="1"/>
  </radialGradient>
  <radialGradient spreadMethod="pad" r="819.2" id="gradient16" gradientUnits="userSpaceOnUse" gradientTransform="matrix(0.0619, 0.0, 0.0, 0.0619, -42.9, -90.05)" cy="0" cx="0">
   <stop stop-color="#6a3621" offset="0.003922"/>
   <stop stop-color="#935738" offset="0.380392"/>
   <stop stop-color="#ad6b40" offset="1"/>
  </radialGradient>
  <radialGradient spreadMethod="pad" r="819.2" id="gradient17" gradientUnits="userSpaceOnUse" gradientTransform="matrix(0.0077, 0.0, 0.0, 0.0077, 17.55, -79.45)" cy="0" cx="0">
   <stop stop-color="#6a3621" offset="0.003922"/>
   <stop stop-color="#935738" offset="0.380392"/>
   <stop stop-color="#ad6b40" offset="1"/>
  </radialGradient>
  <radialGradient spreadMethod="pad" r="819.2" id="gradient18" gradientUnits="userSpaceOnUse" gradientTransform="matrix(0.0616, 0.0, 0.0, 0.0616, 0.0, 0.0)" cy="0" cx="0">
   <stop stop-opacity="0.509804" stop-color="#f5de63" offset="0.019608"/>
   <stop stop-opacity="0" stop-color="#f5de63" offset="1"/>
  </radialGradient>
 </defs>
 <g>
  <title>background</title>
  <rect fill="none" id="canvas_background" height="230" width="310" y="-1" x="-1"/>
 </g>
 <g>
  <title>Layer 1</title>
  <g id="svg_97">
   <use x="132.050003" y="234.5" id="svg_98" xlink:href="#shape0" width="381" transform="matrix(1,0,0,1,-192.55,-294) " height="381"/>
   <use x="0" y="0" id="svg_99" xlink:href="#sprite0" width="99.8" transform="matrix(0.5701999999999999,0,0,0.5701999999999999,141.74670305175775,45.64670000000001) " height="99.8"/>
   <use x="-33.200531" y="-35.675414" xlink:href="#sprite1" width="102.95" transform="matrix(1.8072000000000004,0,0,1.6538,83.10000305175781,154.3) " id="_mcMask" height="45"/>
  </g>
 </g>
</svg>