<svg width="125" height="92" xmlns="http://www.w3.org/2000/svg" xmlns:xlink="http://www.w3.org/1999/xlink">
 <defs>
  <g transform="matrix(1,0,0,1,81.55,117.2) " id="shape0">
   <path id="svg_1" fill-rule="evenodd" fill="url(#gradient0)" d="m-81.55,-92q15.65,3.7 5.55,15.65q21.7,2.95 23.15,16.9q20.95,-4.05 28.15,7.75q13.6,-11.25 32.55,-5q2.4,-13.95 29.95,-14.7q-1.85,-16.55 19.3,-18.4q-32.15,0.55 -29.4,-8.65q-18.2,-0.55 -12.85,-14.3q-22.1,8.45 -32.55,-4.45q-6.1,23 -46.55,9.95q0.2,11.05 -17.3,15.25"/>
   <path id="svg_2" fill-rule="evenodd" fill="#262615" d="m-66.1,-89.25l2.05,0.4l0.15,0l-2.2,-0.4"/>
   <path id="svg_3" stroke-width="0.25" stroke-opacity="0.470588" stroke-linejoin="round" stroke-linecap="round" stroke="#000000" fill="none" d="m32.3,-96.75l3.85,6.25"/>
  </g>
  <g transform="matrix(1,0,0,1,8,7.65) " id="sprite0">
   <use id="svg_4" xlink:href="#shape1" width="18.25" transform="matrix(1,0,0,1,-8,-7.65) " height="15.25"/>
  </g>
  <g transform="matrix(1,0,0,1,8,7.65) " id="shape1">
   <path id="svg_5" fill-rule="evenodd" fill="#000000" d="m-1.4,2.4l-1.05,-0.65l-1,-1.2l-0.2,-0.75l0.15,-1l1.3,-3q0.8,-1.4 2.2,-2.4l0.55,0.45q1.7,1.4 4.25,2.35q2.5,1 4.4,2.45q1.85,1.45 0.5,3.45q-1.4,1.95 -1.3,2.35q0.2,1.65 -0.7,3.15l-2.7,-2.15q-2.3,-1.7 -6.15,-2.9l-0.25,-0.15"/>
   <path id="svg_6" fill-rule="evenodd" fill="#262615" d="m-6.5,1.1q0.65,-0.75 0.35,-1.55l-0.1,-0.2l-0.6,-1.2l0.2,-1.15q0.35,-1.65 1.75,-3.1q1.1,-1.05 2.6,-1.4q0.95,-0.25 2.3,0.9q-1.4,1 -2.2,2.4l-1.3,3l-0.15,1l0.2,0.75l1,1.2l1.05,0.65l-5.4,-0.35l0.15,-0.35l0.15,-0.6"/>
   <path id="svg_7" fill-rule="evenodd" fill="#52522c" d="m-6.5,1.1l-0.15,0.6l-0.2,0.45l-1.1,-0.1l0.8,-0.1l0.25,-0.3l0.4,-0.55"/>
   <path id="svg_8" fill-rule="evenodd" fill="#666637" d="m-7.95,2.05l-0.05,0l0.05,0"/>
   <path id="svg_9" stroke-width="0.25" stroke-opacity="0.470588" stroke-linejoin="round" stroke-linecap="round" stroke="#000000" fill="none" d="m-6.85,-1.85l0.6,1.2l0.1,0.2q0.3,0.8 -0.35,1.55m6.5,-7.7q-1.35,-1.15 -2.3,-0.9m-4.85,9.45l0.65,-0.85"/>
  </g>
  <g transform="matrix(1,0,0,1,2.7,0.25) " id="sprite1">
   <use id="svg_10" xlink:href="#shape2" width="5.4" transform="matrix(1,0,0,1,-2.7,-0.25) " height="4.4"/>
  </g>
  <g transform="matrix(1,0,0,1,2.7,0.25) " id="shape2">
   <path id="svg_11" fill-rule="evenodd" fill="#ffffff" d="m-1.45,0.9l0.15,0.55l-0.15,0.3l-0.35,-0.1l-0.3,-0.4l-0.15,-0.55l0.15,-0.3q0.15,-0.1 0.3,0.1l0.35,0.4"/>
   <path id="svg_12" fill-rule="evenodd" fill-opacity="0.160784" fill="#17ff1d" d="m-1.45,0.9l-0.35,-0.4q-0.15,-0.2 -0.3,-0.1l-0.15,0.3l0.15,0.55l0.3,0.4l0.35,0.1l0.15,-0.3l-0.15,-0.55m-0.3,-0.95q0.35,0.25 0.6,0.85q0.3,0.5 0.3,1q0,0.45 -0.3,0.6l-0.6,-0.2l-0.65,-0.8l-0.3,-1q0,-0.5 0.3,-0.6l0.65,0.15"/>
   <path id="svg_13" fill-rule="evenodd" fill="#ffffff" d="m2.15,2.8l0.15,0.45l-0.15,0.25l-0.3,-0.05l-0.3,-0.4l-0.15,-0.45q0,-0.25 0.15,-0.3l0.3,0.1l0.3,0.4"/>
   <path id="svg_14" fill-rule="evenodd" fill-opacity="0.160784" fill="#17ff1d" d="m1.85,1.9l0.55,0.75l0.3,0.9l-0.3,0.55l-0.55,-0.15l-0.55,-0.75l-0.25,-0.85q0,-0.45 0.25,-0.55l0.55,0.1m0.3,0.9l-0.3,-0.4l-0.3,-0.1q-0.15,0.05 -0.15,0.3l0.15,0.45l0.3,0.4l0.3,0.05l0.15,-0.25l-0.15,-0.45"/>
  </g>
  <g transform="matrix(1,0,0,1,192.55,294) " id="shape3">
   <path id="svg_15" fill-rule="evenodd" fill="url(#gradient1)" d="m1.95,-79.5l-0.2,-2.4q1.15,-3.65 1.3,-5.85q0.2,-1.85 3.85,-5l3.9,-2.9q1.65,-2.05 1.1,-6.1q-0.2,-2.4 1.65,-3.5q2,-1.1 2,-1.45q-0.15,-0.2 -0.15,-0.35l-2.8,0l-6.8,0.9l-2.2,0.35q-7,-2.55 -7.7,-3.1q0,-0.2 -2.95,-1.1l-2.2,-4.8q-3.3,-6.8 -6.1,-8.1l-5.5,-0.7l-2.95,-0.95l-4.95,1.3l-0.9,0l-3.7,-0.9q-2.2,-1.3 -2.75,-1.3l-1.3,0.35l4.25,3.3q4.6,3.9 14.15,16l0.9,1.1l1.85,1.65q3.5,2.95 4.4,2.95q1.3,-0.55 2.95,-0.55l4.4,0.55q2.95,-1.65 6.1,-1.8q-2.75,0.9 -6.45,4.75q-4.6,0.55 -5.35,4.25l0.95,1.85q3.5,7.35 3.65,13.95q3.5,-1.65 7.55,-2.4m-27.6,-53.85l-1.1,0.15l-0.35,0q-0.9,-0.35 -2,-1.65q-0.55,0.4 -1.1,0.55q-1.7,0.75 -1.7,1.3q0,0.9 3.15,3.15q3.3,2.2 5.5,2.2l1.65,-0.2q0.2,-3.7 -4.05,-5.5m27.25,31.45l1.45,-0.2l-0.55,0.2l-0.9,0m-16.2,-14q1.65,0.9 1.65,2.6q0,2 -4.05,2q-1.25,0 -3.65,-4.8l0,-0.9l2.2,-0.2q1.3,0 2.2,0.95l1.65,0.35"/>
   <path id="svg_16" fill-rule="evenodd" fill="url(#gradient2)" d="m-25.65,-133.35q4.25,1.8 4.05,5.5l-1.65,0.2q-2.2,0 -5.5,-2.2q-3.15,-2.25 -3.15,-3.15q0,-0.55 1.7,-1.3q0.55,-0.15 1.1,-0.55q1.1,1.3 2,1.65l0.35,0l1.1,-0.15m-11.75,8.25l1.3,-0.35q0.55,0 2.75,1.3l3.7,0.9l0.9,0l4.95,-1.3l2.95,0.95l5.5,0.7q2.8,1.3 6.1,8.1l2.2,4.8q2.95,0.9 2.95,1.1q0.7,0.55 7.7,3.1l2.2,-0.35l6.8,-0.9l2.8,0q0,0.15 0.15,0.35q0,0.35 -2,1.45q-1.85,1.1 -1.65,3.5q0.55,4.05 -1.1,6.1l-3.9,2.9q-3.65,3.15 -3.85,5q-0.15,2.2 -1.3,5.85l0.2,2.4l4.05,-0.9q6.8,-0.75 13.05,-3.7q4.8,-2.75 9.75,-4.75q2.2,-0.95 3.7,-2.2l0.35,-1.5q0,-2.2 -0.55,-4.2q-7,-11.4 -18.6,-20.05q-11.4,-8.85 -27.95,-16.95q-16.35,-8.1 -32.7,-4.4q-4.25,1.1 -6.45,4.25q-8.8,11.75 -8.65,23.7q1.65,-11.2 2.2,-10.5q5.9,-13.2 9.4,-11.95q3.5,1.1 7.9,3.9q2.6,1.45 5.15,3.65"/>
   <path id="svg_17" fill-rule="evenodd" fill="#52522c" d="m1.6,-101.9l0.9,0l0.55,-0.2l-1.45,0.2"/>
   <path id="svg_18" fill-rule="evenodd" fill="#3e3e22" d="m32.3,-96.75q0.55,2 0.55,4.2l-0.35,1.5q-1.5,1.25 -3.7,2.2q-4.95,2 -9.75,4.75q-6.25,2.95 -13.05,3.7l-4.05,0.9l0.55,2.05q0,0.9 -0.9,1.25q5.85,2.05 7.55,2.25q3.65,0.15 5.15,1.45q1.45,1.3 2.75,1.3l4.2,0l0.4,-0.2q5.5,-2.95 9.75,-7q4.2,-4.05 4.95,-6.8q0.9,-3.1 -0.75,-6.25l-3.3,-5.3"/>
   <path id="svg_19" fill-rule="evenodd" fill="#5e5844" d="m1.95,-79.5q-4.05,0.75 -7.55,2.4q0.55,2.2 -3.1,7.75l-6.8,9.35l13.95,-2.95q11.8,-2.55 22.8,-8.25l-4.2,0q-1.3,0 -2.75,-1.3q-1.5,-1.3 -5.15,-1.45q-1.7,-0.2 -7.55,-2.25q0.9,-0.35 0.9,-1.25l-0.55,-2.05"/>
   <path id="svg_20" stroke-width="0.25" stroke-opacity="0.470588" stroke-linejoin="round" stroke-linecap="round" stroke="#000000" fill="none" d="m-5.6,-77.1q-0.15,-6.6 -3.65,-13.95l-0.95,-1.85m-8.8,-12.9q-9.55,-12.1 -14.15,-16l-4.25,-3.3q-2.55,-2.2 -5.15,-3.65q-4.4,-2.8 -7.9,-3.9q-3.5,-1.25 -9.4,11.95m-2.2,10.5q-0.15,-11.95 8.65,-23.7q2.2,-3.15 6.45,-4.25q16.35,-3.7 32.7,4.4q16.55,8.1 27.95,16.95q11.6,8.65 18.6,20.05"/>
   <path id="svg_21" stroke-width="0.1" stroke-linejoin="round" stroke-linecap="round" stroke="#333333" fill="none" d="m-10.2,-92.9q0.75,-3.7 5.35,-4.25q3.7,-3.85 6.45,-4.75l0.9,0l0.55,-0.2l-1.45,0.2q-3.15,0.15 -6.1,1.8l-4.4,-0.55q-1.65,0 -2.95,0.55q-0.9,0 -4.4,-2.95l-1.85,-1.65l-0.9,-1.1m4.4,-10.1q1.65,0.9 1.65,2.6q0,2 -4.05,2q-1.25,0 -3.65,-4.8l0,-0.9l2.2,-0.2q1.3,0 2.2,0.95l1.65,0.35m4.4,23l0,1.1q0,0.55 0.95,0.75"/>
   <path id="svg_22" stroke-opacity="0" stroke-linejoin="round" stroke-linecap="round" stroke="#ff00ff" fill="none" d="m187.95,-293.5l0,380l-379.95,0l-0.05,0l0,-380l380,0"/>
   <path id="svg_23" stroke-opacity="0" stroke-linejoin="round" stroke-linecap="round" stroke="#ff00ff" fill="none" d="m187.95,-293.5l-190,190l190,190m-380,-380l190,190l-189.95,190"/>
   <path id="svg_24" stroke-opacity="0" stroke-linejoin="round" stroke-linecap="round" stroke="#ff00ff" fill="none" d="m92.95,-38.4l-189.95,0"/>
   <path id="svg_25" stroke-opacity="0" stroke-linejoin="round" stroke-linecap="round" stroke="#ff00ff" fill="none" d="m98.65,-227.1l0,235.2l-204.1,0l0,-235.2l204.1,0z"/>
  </g>
  <g id="sprite2">
   <use id="svg_26" xlink:href="#shape4" width="100" height="40"/>
  </g>
  <g id="shape4">
   <path id="svg_27" fill-rule="evenodd" fill-opacity="0" fill="#ff00ff" d="m100,40l-100,0l0,-40l100,0l0,40"/>
  </g>
  <radialGradient spreadMethod="pad" r="819.2" id="gradient0" gradientUnits="userSpaceOnUse" gradientTransform="matrix(0.0, -0.0423, 0.081, 0.0, -16.05, -87.05)" cy="0" cx="0">
   <stop stop-color="#000000" offset="0"/>
   <stop stop-opacity="0" stop-color="#2b362d" offset="1"/>
  </radialGradient>
  <linearGradient y2="0.143938" y1="0.938313" x2="0.176184" x1="0.677451" spreadMethod="pad" id="gradient1">
   <stop stop-color="#68624a" offset="0"/>
   <stop stop-color="#a89c77" offset="1"/>
  </linearGradient>
  <linearGradient y2="0.118448" y1="0.8115" x2="0.459337" x1="0.711391" spreadMethod="pad" id="gradient2">
   <stop stop-color="#52522c" offset="0"/>
   <stop stop-color="#8f8f4d" offset="1"/>
  </linearGradient>
 </defs>
 <g>
  <title>background</title>
  <rect fill="none" id="canvas_background" height="94" width="127" y="-1" x="-1"/>
 </g>
 <g>
  <title>Layer 1</title>
  <g id="svg_28">
   <use x="77.050003" y="143.5" id="svg_29" xlink:href="#shape0" width="138.65" transform="matrix(1,0,0,1,-81.55,-117.2) " height="65.5"/>
   <use x="17.823272" y="28.974095" id="svg_30" xlink:href="#sprite0" width="18.25" transform="matrix(4.323,0,0,4.9527,-67.0336,-139.4378) " height="15.25"/>
   <use x="13.693153" y="25.502497" id="svg_31" xlink:href="#sprite1" width="5.4" transform="matrix(5.6269,0,0,5.6269,-41.1926,-107.0067) " height="4.4"/>
   <use x="77.050003" y="143.5" id="svg_32" xlink:href="#shape3" width="381" transform="matrix(1,0,0,1,-192.55,-294) " height="381"/>
   <use x="41.849983" y="77.942534" xlink:href="#sprite2" width="100" transform="matrix(1.8411,0,0,1.8411,-112.35,-135.9) " id="_mcMask" height="40"/>
  </g>
 </g>
</svg>