<svg width="215" height="213" xmlns="http://www.w3.org/2000/svg" xmlns:xlink="http://www.w3.org/1999/xlink">
 <defs>
  <g transform="matrix(1,0,0,1,-175.75,-171.75) " id="shape0">
   <path id="svg_1" fill-rule="evenodd" fill-opacity="0.4" fill="#000033" d="m323.35,253.7l2.2,2.2l2.45,2.55q2.1,-0.8 4.55,-0.7l0.15,0.2l0.1,0q4.4,-0.35 8.55,0.9q2.3,0.65 3.8,1.55l1.4,-3.1q2.35,-5.5 2.6,-7.05l0.55,-2.8l2.4,0q-0.65,7 -1.05,7.9q-0.95,1.9 -0.55,5.05q4.55,-1.25 10.25,-1.95l0,-0.05q3.35,-2.95 5.25,-4.2q2.05,-1.4 10,-3.7l-0.05,-0.05l2.95,-0.8l0.1,-0.05l0.1,0.05l3.7,-1l-0.05,-0.05l0.05,-0.05l7,-1.8l0.05,0l0.45,-0.15l5.6,0l-5.5,2.55l-1.1,0.25l-9.1,2l-2.75,0.55q-3.1,0.45 -9.2,4.55l-1.9,1.35l1.1,-0.1l8.6,-0.35l7.65,0.2l1,0.05l0.3,0.05l0.2,0l0.1,0l8.95,1l6.5,1.25l1.3,0.25l1.25,0.35l3.5,0.95l0.4,0.1q2.75,0.85 5.05,1.8q6.2,2.65 8.85,6.25q3.85,5.15 -2,9.75l2.6,0q2.15,0.1 2.4,0.45q0.25,0.3 -1.5,0.7l-4.55,0.6l-1.6,0.1l-0.05,0l-0.05,0.05l-0.05,0l-0.1,0l-0.4,0.2l0.05,0l0,0.05l0.05,0l0.85,0.8q0.6,0.8 0.25,1.5q-0.3,0.65 -1.4,0.7q-1.1,0.1 -2.35,-0.45l-1.2,-0.75q-8.65,3.4 -22.4,4.4q-17.7,1.3 -33.45,-2.15l-1.9,-0.5l-0.05,0l-0.25,-0.1l-5.15,-1.45l-0.3,-0.1l-0.4,-0.15l-0.2,-0.05l-0.2,-0.05q-5.6,-2 -8.9,-4.55l-0.2,-0.1l-0.1,-0.1l-0.25,-0.15l-2.2,-2.35l-0.1,-0.1q-3.15,-4.2 0.1,-8l-4.3,-0.75l-1.25,0.85q-4.1,2.4 -12,3q-5.7,0.4 -2.7,1.3l-7.3,2.55l0.05,0.05l0,0.05l-0.1,0l-0.1,0l-0.05,-0.05l-1.75,-2.3l-0.05,0l-0.45,-0.1l0.1,0.1q5.15,5.5 7.05,8.85q0.8,1.55 1,2.6l0.05,0.95q-0.1,1.6 -1.1,4.4l-1.05,2.65l-0.05,0.05l-0.05,0.15l-2.65,5.55l-0.05,0l-0.6,0.05l-0.05,0l-14.7,3.6l-8.35,2.2l-0.05,0l-0.1,0l-0.05,-0.05l0,-0.05l2.45,-2.1q8.3,-3.15 12.5,-4.2q-6.55,-1.45 -16.45,-1.3l-0.05,0l-0.05,0l-0.05,0l0,-0.05l0.05,-0.05l9.05,-0.7l12.75,1.1l3.95,-10.05l-0.05,-2.25l-0.75,-2.6l-1.65,-3.85l-5.3,-5.9l-0.55,-0.1l-0.05,-0.05l-0.5,-0.05l0.25,-0.9l1.15,-0.9l-2.85,-0.85q-2.15,-0.85 -3.45,-1.8l4.45,-0.2l-0.55,-1.3l1.45,0.2l-4.8,-1.95l-0.85,1.1l-1.65,-0.4q-0.65,-2.15 2.6,-4q4.1,-2.4 12,-3q7.9,-0.6 14.95,1l0.15,0.05l0.1,0l-0.05,-0.05l-4.1,-3.45l-0.05,-0.05l-4.35,-3.55l-0.2,-0.15q-5.55,-4.4 -13.7,-6.55l-7.4,-2.1l3.35,0.3l0.65,-0.05l-3.85,-1.85l-4.45,-4.85l-2.9,-3.85l-11,-4.55l-0.1,-0.05l-0.05,0l0.05,-0.05l0.1,0l0.05,0l6.9,1.9l7.1,1.85l0.05,0l11.55,-3.55l0.1,-0.05l0.05,0l0.05,0l0.1,0l0.05,0.05l-0.05,0.05q-7,2.45 -7.8,4.25q-0.5,1.1 0.65,3.9l-0.05,0l1.25,2.6l5,3.05l0.55,0.15l0.05,0l3.6,1.05q5.5,1.7 9.1,3.8l1.15,0.7l4.7,3.25l3.5,3.1l0.05,0.05m6.7,6.6l-0.85,-0.1l0.55,0.85l0.3,-0.75m-2.2,-1.85l0.05,0.05l0.1,-0.05l-0.05,0l-0.1,0m-87.75,-6.95l0.1,0l0.05,0.05q2,0.55 2,3.75l11.15,3.05l1.95,0.2q11.2,1.3 21.7,3.6q5.3,1.15 15.15,5.55l0.25,0.15l0.05,0l0.25,0.1l0.05,0l3,2.4l2.7,-1.4l0.1,0l0.1,0l0.05,0l-0.05,0.05l-2.8,1.45l0,-0.05l-0.05,0l-0.1,0l-0.05,0l0.05,0l-2.2,1.15l0,0.05l0.05,0l-0.4,0.25l2.95,1.45l0,0.05l-0.05,0l-0.1,0l-0.1,0l-3,-1.5l0,-0.05l0.4,-0.2l-1.35,-2.95q-5.55,-2.5 -10.35,-4.15q-2.95,-1 -19.3,-3.05l0.05,0l-2.25,-0.3l-6,-0.7l-8.7,-1.2l-1.85,-0.35l-0.3,-0.15q-0.1,-0.1 0.25,-0.15l3.5,-0.15q-5.15,-0.55 -9.5,-3.5l-16.85,-2.5l-0.1,0l0,-0.05l0.05,0l13.75,-0.6l-6,-2.55l0,-0.05l0.05,0l0.1,0l11.15,2.45l0.35,-0.15l0.1,0m66.25,20.9l0.15,0.05l-0.15,-0.05m-67.65,-4.15l-33.05,-17.1q-3.2,2.55 -14.6,5.05l0.6,0.15l0,-0.15l0.05,0l0.05,-0.05l0.1,0.05l0.05,0l0,0.25l7.8,2.45l16.9,-1.2l0.1,0l0.05,0l0,0.05l-0.1,0l-16.75,1.25l9.15,2.95l16.25,0.65l0.05,0.05l0.05,0l-0.05,0.05l-0.05,0l-16.3,-0.65l-0.05,0l-9.35,-3.05l-0.05,0l-7.3,-2.35q6.7,4.3 0.7,8.25l1.35,0.2l0.05,0l0.05,0q17,2.5 32.65,6.1q10.45,2.45 20.4,5.4l0.05,0.05l0.1,-0.05l1.9,0l1.85,0.3q1.75,0.4 2.3,1.15l0.15,0.2l0.1,0.05l4.1,1.65l0.1,0l0.05,0.05q10.45,4.25 20.5,8.7l0,0.05l-0.05,0l-0.1,0l-0.05,0q-10.05,-4.45 -20.5,-8.7l-4.15,-1.35l-0.65,0.7q-1,0.6 -2.95,0.75l-3.7,-0.3q-1.8,-0.45 -2.3,-1.15q-0.55,-0.7 0.45,-1.3q0.9,-0.6 2.6,-0.75q-9.9,-2.95 -20.3,-5.35l-0.25,-0.05q-7.05,-1.4 -24.65,-2.35l-4.05,0.25l-0.1,0l-0.05,0l0.05,-0.05l0.05,0l3.9,-0.3l-3.25,-1.55l-22.7,1.65l-0.1,0l-0.05,0l0,-0.05l0.1,-0.05l22.6,-1.65l-4.25,-2l-1.5,-0.2l-0.05,0l0,-0.05q6.2,-4 -0.95,-8.4l-0.85,-0.25l-0.4,0.1l-0.05,0l-0.1,0l-0.05,-0.05l0.05,0l0.35,-0.15l-6.2,-1.9l-0.05,0l0,-0.05l0.1,0l0.1,0l6.25,1.9q11.45,-2.5 14.65,-5l-7.55,-3.9l-0.05,0l0.05,-0.05l0.1,0l0.1,0l7.6,3.9l33.15,17.15l0.05,0.05l-0.05,0l-0.1,0l-0.1,0m15.15,10.35l0.1,0l2.45,0.8l-2.55,-1l0,0.2m109.25,-15.15l-0.05,0l0.05,0m-3.65,-0.75l0,-0.1l-0.05,0.05l0.05,0.05m-30.65,1.05l-0.65,-0.1l0.5,0.1l0.15,0m-91,-8.8l1,0.15l-1.3,-0.25l0.15,0.05l0.1,0l0.05,0.05m-8,16.3l-0.1,0.05l-0.05,0l-0.1,-0.05l-11.05,-5.95l0,-0.05l0.05,-0.05l0.1,0l0.05,0.05l11.05,5.95l0.05,0.05m-24.65,-10.15l0.1,0l0.05,0.05l0.8,5.15l0,0.05l-0.1,0l-0.1,0l-0.05,-0.05l-0.8,-5.15l0.05,0l0.05,-0.05m19.55,9.7q-14.45,-3.25 -30,-5.55l7.4,3.55l22.6,2"/>
   <path id="svg_2" fill-rule="evenodd" fill="#632121" d="m308.85,185.15l-1.6,-0.4l-6.65,-2.85l-1.55,0.45l1.55,-0.45l3.5,17.75q-1.8,9.4 -3.95,14.9l-0.75,1.8q-0.85,1.8 -1.9,2.95q-1,1 -2.15,1.4l-0.3,0l-1.85,0.05l2.3,-4.8l0.15,-0.4l1.35,-3.65q0.8,-2.75 0.9,-4.7q0,-1.65 1.3,-6.75q1,-3.95 0.25,-7.75q-1.15,-5.9 -0.4,-10.35l-1.85,0.55l0.3,-2.3q0.7,-2.7 2.95,-6.6q2.2,-3.95 6.35,-0.9q-0.15,2 2.05,12.05"/>
   <path id="svg_3" fill-rule="evenodd" fill="#a37d01" d="m295.5,215.95l-2.3,4.8l0.45,0.75l-6.9,4.15l8.65,-9.8l0.1,0.1"/>
   <path id="svg_4" fill-rule="evenodd" fill="#99ff00" d="m293.2,220.75l1.85,-0.05l-1.4,0.8l-0.45,-0.75"/>
   <path id="svg_5" stroke-width="0.05" stroke-opacity="0.360784" stroke-linejoin="round" stroke-linecap="round" stroke="#660000" fill="none" d="m308.85,185.15q-2.2,-10.05 -2.05,-12.05q-4.15,-3.05 -6.35,0.9q-2.25,3.9 -2.95,6.6l-0.3,2.3l1.85,-0.55l1.55,-0.45l6.65,2.85m-8.2,-2.4q-0.75,4.45 0.4,10.35q0.75,3.8 -0.25,7.75q-1.3,5.1 -1.3,6.75q-0.1,1.95 -0.9,4.7l-1.35,3.65l-0.15,0.4l-2.3,4.8l1.85,-0.05l0.3,0q1.15,-0.4 2.15,-1.4q1.05,-1.15 1.9,-2.95l0.75,-1.8q2.15,-5.5 3.95,-14.9l-3.5,-17.75m-4.95,33.65l-0.25,0.3l-8.65,9.8"/>
   <path id="svg_6" stroke-width="0.05" stroke-opacity="0.360784" stroke-linejoin="round" stroke-linecap="round" stroke="#660000" fill="none" d="m286.75,225.65l6.9,-4.15l1.4,-0.8"/>
  </g>
  <g transform="matrix(1,0,0,1,1,1) " id="shape1">
   <path id="svg_7" stroke-width="2" stroke-linejoin="round" stroke-linecap="round" stroke="#000033" fill="none" d="m24.1,5.25q10.8,6.9 15.75,8.85q-5.5,5.35 -15.75,6.9l9.5,0.2l12.1,-5.5l11.4,26.3q0.75,1.95 1.4,5.15l0.05,0.25l0.15,0.65l0.05,0.15l0,0.1l1.15,6.95l1.2,10.75l-0.8,14.25l-2.7,-5.25l-0.1,0l-5.5,0.7l-1.8,3.75l-0.05,0.15l1.9,1.85l-1.05,2.5l0.6,0.55l0.8,8.25q-3.7,7.8 -7.3,13.25q-2.2,3.35 -17.05,12.05l-2.05,1.2l-5.4,3.15q-11,6.55 -9.35,6.75l4.65,-0.4l0.05,0l0.2,-0.05l-0.2,0.05q-4.4,1.65 -6.95,11.2l0,0.1l-9,3.4l8,1.65l-4.85,12.45l9.4,-8.85l0.6,0.25q1.55,-1.9 -0.85,-10.55l9,-10.45l1.8,-0.95q10.2,-5.75 19,-14q4.4,-4.15 11,-17.8l0.2,-0.45l0.2,-0.4l2.9,-10.5l3.9,6.3l-0.7,1.05q-1.5,2.55 -2.1,5.5l4.55,-0.35l0.45,3.65l1.3,-0.85l-3.35,6.2l-1.7,-2.85l-1.35,1.4q0.95,5.85 5.55,10.3q5.9,5.65 14.25,5.65l0.65,0l-8.2,9.3l8.3,-4.95l0.3,0q1.15,-0.4 2.15,-1.4l1.9,-2.95l0.3,-0.65q4.95,-1.25 8.8,-5l0.1,-0.05l0,-0.05l0.1,-0.05l0,0.15l0,0.05l-1.5,10.15l-0.05,0.1l-1.7,10.4l-0.1,0.45q-1.25,7.1 -3.8,12.55q-2.1,4.45 -5.05,7.85l-0.25,0.3q-6.4,7.25 -5.6,6.8q0.8,-0.5 3.1,-1.6l0.85,0.1l-2.5,5.8l-0.9,13.85l0,11l-7.75,14.55q1.45,-2.05 5.45,-6.5l5.8,-6.5l0.1,0l0,0.05l14.4,7.4q-8.85,-5.3 -11,-10q-1.35,-2.95 -2.25,-10.65l-0.05,-0.1l-0.7,-7.25l2.75,-9.15l0.5,-0.55l2.85,-3.55q4.2,-5.75 6.25,-12l0.65,-2.05q1.4,-4.7 2.3,-9.8l1.2,-8.95l0,-0.2l0.55,-6.35l0.6,-7.4q2.75,1.75 5.2,1.1l0,-0.55l0.1,0q4.65,0 7.9,-4.15q1.8,-2.25 2.65,-4.95l3.65,8.05q6.45,14.35 7.85,18.5q2.15,6.4 9.6,26.5l0.05,0.05l0.5,1.45l0.4,2.45l-0.75,6.5q-1,4.65 0.2,8.05q1.9,5.45 5,8q-3,-6.65 -2.2,-14.3l11.6,1.85l-11.55,-6.2l-0.15,-7.2l-2.35,-2.4l-0.1,-0.25q-10.7,-35.25 -12.25,-38.5q-2.4,-5.05 -4.35,-13.7q5.65,2.55 12,3.45q5.55,7.25 8.35,10.25q3.05,3.25 12.7,8l3.55,1.7l4.7,2.1l8.35,3.5l0.6,0.25q5.1,3.85 6.4,7.45l0.05,-0.05l-0.3,5.05l0.05,0l-0.05,0.05l-0.1,0.75l0.35,5l15.05,6.3l-10.95,-9.05l7.6,-1.9l-11.6,-0.5l0.7,-0.3l0.55,-7.65l0.15,-0.35l-9.8,-11.35l-1.25,-0.45l-10.6,-3.65l-3.15,-0.9q-3.45,-0.7 -12.6,-10.45l-2.95,-3.35l1.3,0l8.85,-0.75l7.55,-2.05l0.9,-0.35l0.3,-0.1l0.2,-0.05l0.1,-0.05l8.2,-4.5q2.9,-2.05 5.6,-4.6l1.05,-1l1.05,-1.1l2.8,-3.25l0.3,-0.45l3.7,-5.85q4.25,-8.4 4.25,-18.45q0,-14.75 -9.2,-25.85l2.6,-0.6q2.05,-0.7 2.05,-1.65q0,-0.95 -2.05,-1.65q-2.05,-0.7 -4.95,-0.7l-1.85,0.1l-0.75,-0.65l0.25,-2.4q0,-2.35 -0.8,-4q-0.75,-1.65 -1.85,-1.65q-1.1,0 -1.9,1.65q-0.5,1.1 -0.65,2.5l0.2,0.15l-0.2,0l0,-0.15q-11.2,-7.65 -25.75,-7.65q-9.65,0 -17.85,3.35q-2.5,1.05 -4.85,2.35q-1.85,1.05 -3.65,2.35l-0.05,0.05l-0.3,0.2l-0.15,0.1l-0.2,0.15l-0.55,0.4l-0.3,0.2q-1.95,1.5 -3.85,3.3l-1.55,1.6l-0.3,0.3l-4.05,4.95l-0.25,0.35l-0.3,0.4l-0.15,0.25l-0.15,0.2q-4.15,6.4 -5.6,13.95l-0.05,0.35l-0.05,0.2l-0.1,0.55q-0.55,3.25 -0.55,6.7l0,0.3q0,12 6.05,21.6q-2,0.9 -3.7,2.9l-1.95,-2.15q-1.8,-8.55 -1.7,-10.4q-4.15,-3.05 -6.35,0.9l-2.1,4.2l-4.05,-0.35q-6,0 -3.7,-3.05l-5.4,4.4l-4.6,-3.35q1.1,-15.85 0.5,-25.2q-0.3,-4.25 -0.9,-7.15l-0.65,-2.55q-1.3,-4.35 -4.35,-11.55l-3.05,-7.05l-0.25,-0.5l-6.7,-14.35l-0.65,0q-7.15,-2.35 -17.4,-6.7l-9.95,-4.3l4,5.25z"/>
  </g>
  <g id="shape2">
   <path id="svg_8" stroke-width="0.05" stroke-opacity="0.603922" stroke-linejoin="round" stroke-linecap="round" stroke="#ffffff" fill="none" d="m94.85,0l-6.9,17.8l-18.65,47.95l-3.1,7.95l-2.8,7.15l-20.5,52.7l-4.7,11.95m12.8,-60l12.4,-4.65m2.8,-7.15l-14.45,9.35l-0.45,0.65l-5.9,9.1l-7.2,10.65l15.8,-4.95m33.95,-80.7q-6.75,14 -14.05,27.55q-10.45,19.25 -22.15,37.7m-29.85,3.4q1.7,-0.45 4.3,0q17.25,-6.2 23.15,-11.45q13.4,-13.35 24.55,-29.65m-35.7,58.1l-7.1,10.05l17.9,0m-41.5,-7.4q6.3,-3.45 12.3,-7.3l1.4,-0.9l2.8,-6.4l-24,0m25.25,30.95l-0.15,-0.7l-0.75,1q13.5,4.5 18.55,10.8m-19.1,-11.1l0.55,0.3l-4.9,6.45m5.65,-7.45q3.9,-13.35 -5.3,-22.95m11.3,14.7l-6,8.25m-3.9,-23.85q15.15,-10.1 28.15,-22.9m-25.35,16.5l2.2,-5.05m19.2,6.35l6.6,-18.3"/>
  </g>
  <g transform="matrix(1,0,0,1,-109.5,-25.5) " id="shape3">
   <path id="svg_9" fill-rule="evenodd" fill="#000033" d="m328.55,132.5l-4.85,-0.5l-2.3,0.2l-1.75,0.45l1.55,-1.6l3.85,-3.3l0.3,-0.2l0.55,-0.4l0.2,-0.15l4.3,0l1.3,0.15l3.4,0.4l0.1,0q-0.9,0.5 -2.65,1.85l-4,3.1m-14.1,6.6q3.5,-0.25 8.75,0.1l-0.55,0l-3.8,3.9q-0.9,0.8 -3.5,4.85q-2.65,4.05 -1.95,4.05l-4.55,1.05q1.45,-7.55 5.6,-13.95m12.15,13.05q-0.15,-3.15 7.4,-11.1q2.75,0.65 4.3,1.2q9.4,3.3 18,10.05q6.1,4.8 9.9,10.95q2.7,4.5 4.2,9.75q3.05,10.95 1.6,20.6l-0.05,0l-0.25,1.65l-1.3,4.85l-0.15,0.45l-0.9,0.35q0.3,-0.55 -0.8,-6.8l-1.2,-6.45q-2.5,-12.45 -11.4,-21.3q-15,-12.3 -29.35,-14.2m-41.4,27.05l5.4,-4.4q-2.3,3.05 3.7,3.05q8.35,0 14.2,5.65l1.95,2.15q1.7,-2 3.7,-2.9q-6.05,-9.6 -6.05,-21.6l0,-0.3l1.8,-0.3l2.1,-0.7q-0.25,7.4 6.15,14.1q0.35,-8.25 6.3,-14.25l2.25,0.65q12.85,4.5 20.9,11.7l0.8,0.75q10.45,11.9 12.2,25l0.35,4.25l0,1.05l0.85,-0.15l-8.85,0.75l-1.3,0l-5.45,-6.2l-1.8,-8.25q2.1,-3.45 -2.2,-6.75l-1.85,6.1l-2.6,3.25l-4.55,4.2l-1,-5.55l-2.05,1.7l-0.9,-6.65q0.55,0.1 1.95,-1.05q-2.95,-4.85 -4,-5q-1.55,-0.25 -3.2,4.35l-1,2.95l-1.3,5.1l-0.85,3.8l-0.3,1.4l1.85,4.8l0,-2.95l1,-2.8l0.8,-2.65q0.45,-1.9 2.55,-4.45l0.4,5.7l-0.7,1.3l2.25,4.9q-0.85,2.7 -2.65,4.95q-1.95,2.45 -4.35,3.5q-1.65,0.65 -3.55,0.65l-0.1,0l0.2,-3.5l-4.15,-1.45l-0.75,-1.65l0.3,-0.9l-0.8,-0.25q-0.3,-8 -2.7,-7.3l-0.3,0.1l-0.15,0.1l-0.4,0.4l-0.75,0.65l-1.25,1.1l2.3,7.4l-0.65,4.15l-0.25,1.65l-0.1,0.05l0,0.05l-0.1,0.05q-5.85,5.65 -14.2,5.65q-8.35,0 -14.25,-5.65q-4.6,-4.45 -5.55,-10.3l1.35,-1.4l1.7,2.85l0.75,1.6l0.2,-0.2l1.5,-1.9l0.1,4.25l0.05,0.65l0,0.05l0,1.05l2.2,0.1l5.45,0.2l0.85,0.05l1.4,0.05l2.75,-4.05l1.3,1.9l1.55,-0.75l1.9,-7.1l-3.1,1.1l-3.85,1.4l-3.3,-3.6l-2.55,2l-1.65,-1.2l-0.7,-0.45l-0.3,-2.15l-1.2,0.8l-1.3,0.85l-0.45,-3.65l-4.55,0.35q0.6,-2.95 2.1,-5.5l0.7,-1.05l1.5,-1.9l1.15,-1.25l0.5,-0.4l0.05,-0.05l0.75,-0.7l3.6,-2.95l0.7,0.05l-0.45,-0.25m65.2,-48l0.15,0.05l0.1,0.05l2.05,0.85l6.4,2.9q9.85,4.55 16.05,11.75q1.85,2.15 3.35,4.6q6.95,12.15 7.25,32.8l-0.05,5.6l0,0.45l-1.05,1q-2.7,2.55 -5.6,4.6l0.05,-0.35l0.3,-6.1q-0.05,-7.9 -2.55,-16.35q-1.95,-6.55 -4.75,-12.05l-0.7,-1.3l-0.1,-0.6l-0.6,-1.05q-8.8,-15.2 -26.35,-21.8q2.2,-3.1 6.05,-5.05m28.95,10.6q-6,-7.25 -14.3,-12.15l0.45,0.05q11.1,0.95 20.65,3.8l1.7,0.85l0.75,0.95l1.6,2.05l0.5,0.65l0,0.05q7.1,10.15 7.1,23.1q0,10.05 -4.25,18.45l-0.2,-2.5l-0.7,-4.65q-2.65,-14.3 -9.05,-24.7l-4.25,-5.95m-33.5,61.45q-6.35,-0.9 -12,-3.45l-0.2,-0.95l-0.15,-0.95l7.75,-5.85l0.15,0.2l2.3,8.1l2.15,2.9m-10.75,-81.3l3.3,-1.2l0,0.05l-0.25,0.05l-3.05,1.15l0,-0.05m-20.95,60.8q1.35,-0.65 2.85,-0.8l1.15,-0.1q1.9,0 3.55,0.7q1.2,0.45 2.3,1.3q-1.1,-0.85 -2.3,-1.3q-1.65,-0.7 -3.55,-0.7l-1.15,0.1q-1.5,0.15 -2.85,0.8m-28.65,-0.05l2.2,-2.15q-0.7,-0.05 -2.85,1.45q-2.6,1.75 -3.6,2.85l-1.35,1.4l-0.15,0.15q-0.4,0.5 -0.4,1.15q0,0.65 0.4,1.1q0.4,0.5 0.95,0.5q0.55,0 1.2,-1.7q0.6,-1.7 3.6,-4.75m0.6,6.55l-0.7,0.9q-0.25,0.45 -0.25,1q0,1.1 0.95,1.85q0.7,0.6 1.65,0.75l1.7,-0.1q1.4,-0.2 7.1,-3.4q5.7,-3.2 3.35,-3.15l-6.25,0.7l-5.25,0.7q-1.35,0 -2.3,0.75m24.35,-3.6q3.95,4.95 3.95,11.45q0,2.85 -0.75,5.45q0.75,-2.6 0.75,-5.45q0,-6.5 -3.95,-11.45"/>
   <path id="svg_10" fill-rule="evenodd" fill="#d30101" d="m319.65,132.65l1.75,-0.45l2.3,-0.2l4.85,0.5l1.6,0.2l-1.75,2.35q-2.45,2.85 -2.65,4.3l-3.95,-0.5l3.05,0.5l-1.65,-0.15q-5.25,-0.35 -8.75,-0.1l0.15,-0.2l0.15,-0.25l0.3,-0.4l0.25,-0.35l4.05,-4.95l0.3,-0.3m15.55,-5.1l-0.1,0l-3.4,-0.4l-1.3,-0.15l-4.3,0l0.15,-0.1l0.3,-0.2l0.05,-0.05l3.65,-2.35q2.35,-1.3 4.85,-2.35l0,0.05l3.05,-1.15l0.25,-0.05l4.4,0.75l-1.5,0.5l-0.85,0.3l-5,4.4l-0.05,0.7l0,0.05l-0.2,0.05m-18.9,23.9q-0.75,0.8 -1.65,3.1q-0.6,1.35 -1.15,3.25l-0.1,1.7l-1.25,0.3l-0.15,0.05l-2.1,0.7l-1.8,0.3q0,-3.25 0.5,-6.3l0.05,-0.4l0.1,-0.55l0.05,-0.2l0.05,-0.35l4.55,-1.05l2.9,-0.55m6.9,7.95q-0.3,-0.35 0.25,-2.15q0.75,-2.5 1.4,-3.75l0.75,-1.5l1,0.15q14.35,1.9 29.35,14.2l-8.35,5.7q-8.05,-7.2 -20.9,-11.7l-2.25,-0.65l-0.1,-0.05l-0.7,-0.15l-0.15,-0.05l-0.3,-0.05m26.05,-28.65l-3.75,-1.45l4.3,1.3q2.3,-2.6 5.05,-3.6q2.7,-1 3.9,-0.55q3.3,1.45 6.3,3.2q8.3,4.9 14.3,12.15q-0.1,-0.1 -1.35,1.85l-2.85,3.15q-6.2,-7.2 -16.05,-11.75l-6.4,-2.9l-2.05,-0.85l0.55,0.15l-0.65,-0.2l-0.15,-0.05l-0.65,-0.25l-0.5,-0.2m37.5,58.4l-1.05,1.1l0,-0.45l0.35,0.1l0.7,-0.75m-16,11.25l-0.2,0.05l-0.3,0.1l0.15,-0.45l0.35,0.3m-0.4,18l10.6,3.65q-1.65,2.7 -5.8,3.25l-4.7,-2.1l-3.55,-1.7q2.45,-0.6 3.45,-3.1m-58.1,-1.5l-0.55,6.35l0,0.2l-1.15,8.75l-0.05,0.2q-1,0.75 -2.35,0.65l-1.75,-0.3l-0.6,-0.55l-0.45,-0.35l0.1,-0.45l1.7,-10.4l0.05,-0.1q2.7,0.3 5.1,-4.75l-0.05,0.75m-4.05,25.3l-0.65,2.05q-2.05,6.25 -6.25,12l-0.15,0q-4.2,0.15 -4.75,-3.5l-0.15,-0.2l0.25,-0.3q2.95,-3.4 5.05,-7.85q2.25,2 6.65,-2.2m-70.5,-23.3l5.4,-3.15q1.05,-0.65 2.05,-1.2q-0.9,2.2 -0.35,3.65q0.55,1.45 2.1,1.15l-5.6,3.55l-0.9,-0.15q-1.95,-0.45 -2.2,-1.25q-0.25,-0.8 -0.15,-1.45q0.1,-0.7 -0.15,-1.05l-0.2,-0.1m39.3,-67.15l-1.15,-6.95q0.8,-2.8 3.7,-3.85l0.65,2.55q0.6,2.9 0.9,7.15q-1.3,-1.45 -4.1,1.1m-5.95,-20.6l-4.7,-10.85q1.4,-2.15 4.45,-0.8l1.1,2.35l0.25,0.5l3.05,7.05l0.4,0.95q-1.3,-0.55 -2.2,-0.35q-0.9,0.2 -1.35,0.7q-0.5,0.5 -1,0.45m64.45,-5.1l0.15,-0.15l-0.15,0.1l0,0.05m8.15,9.95l0.7,0.25q17.55,6.6 26.35,21.8l-4.5,5.2q-3.8,-6.15 -9.9,-10.95q-8.6,-6.75 -18,-10.05q1.75,-3.35 5.35,-6.25m-49.2,62.85q-2.4,4.4 -5.35,8.85l-1.3,-0.05l-5.45,-0.2l-0.2,-0.95q-1.2,-0.3 -2.05,-0.9l-0.1,-4.25l-1.5,1.9l-0.1,-0.5q1.6,-3.15 4.7,-5.3l1.65,1.2l2.55,-2l3.3,3.6l3.85,-1.4"/>
   <path id="svg_11" fill-rule="evenodd" fill="#26264d" d="m328.55,132.5l4,-3.1q1.75,-1.35 2.65,-1.85l0.85,0.1l0.2,0l8.45,1.55l4.55,1.55l0.5,0.2l0.65,0.25q-3.85,1.95 -6.05,5.05l-0.7,-0.25l-6.45,-1.95l-6.9,-1.45l-0.15,0.1l-1.6,-0.2m-5.35,6.7l1.65,0.15l9.15,1.7q-7.55,7.95 -7.4,11.1l-1,-0.15l-6.4,-0.7l-1.15,-0.1l-0.15,0.05l-1.6,0.2l-2.9,0.55q-0.7,0 1.95,-4.05q2.6,-4.05 3.5,-4.85l3.8,-3.9l0.55,0m-9.8,20.3l8.3,-0.35l1.5,0.25l0.3,0.05l0.15,0.05l0.7,0.15l0.1,0.05q-5.95,6 -6.3,14.25q-6.4,-6.7 -6.15,-14.1l0.15,-0.05l1.25,-0.3m45.35,-33.05l-0.75,-0.35l-5.55,-2.05q-4.6,-1.55 -9.65,-2.5l-4.4,-0.75l0,-0.05q6.8,-2.15 14.55,-2.15l1,0q13.95,0.25 24.75,7.65l0,0.15l0.2,0q2.45,1.65 4.75,3.75l0.75,0.65l0.25,0.25l3.2,3.3l-1.7,-0.85q-9.55,-2.85 -20.65,-3.8l-0.45,-0.05q-3,-1.75 -6.3,-3.2m31.45,10.9l0.5,0.65l0.05,0.05l-0.05,0l0,-0.05l-0.5,-0.65"/>
   <path id="svg_12" fill-rule="evenodd" fill="#f90606" d="m324.85,139.35l-3.05,-0.5l3.95,0.5q0.2,-1.45 2.65,-4.3l1.75,-2.35l0.15,-0.1l6.9,1.45l6.45,1.95q-3.6,2.9 -5.35,6.25q-1.55,-0.55 -4.3,-1.2l-9.15,-1.7m-8.55,12.1l1.6,-0.2l0.15,-0.05l1.15,0.1l6.4,0.7l-0.75,1.5q-0.65,1.25 -1.4,3.75q-0.55,1.8 -0.25,2.15l-1.5,-0.25l-8.3,0.35l0.1,-1.7q0.55,-1.9 1.15,-3.25q0.9,-2.3 1.65,-3.1m42.45,-25q-1.2,-0.45 -3.9,0.55q-2.75,1 -5.05,3.6l-4.3,-1.3l3.75,1.45l-4.55,-1.55l-8.45,-1.55l-0.2,0l-0.85,-0.1l0.2,-0.05l0,-0.05l0.05,-0.7l5,-4.4l0.85,-0.3l1.5,-0.5q5.05,0.95 9.65,2.5l5.55,2.05l0.75,0.35m-8.2,4.8l0.65,0.2l-0.55,-0.15l-0.1,-0.05m-15.05,-5.2l0,-0.05l0.15,-0.1l-0.15,0.15"/>
   <path id="svg_13" fill-rule="evenodd" fill="#632121" d="m378.7,126.25q0.15,-1.4 0.65,-2.5q0.8,-1.65 1.9,-1.65q1.1,0 1.85,1.65q0.8,1.65 0.8,4l-0.25,2.4q-2.3,-2.1 -4.75,-3.75l-0.2,-0.15m5.7,4.55l1.85,-0.1q2.9,0 4.95,0.7q2.05,0.7 2.05,1.65q0,0.95 -2.05,1.65l-1.85,0.5l-0.75,0.1l-0.75,-0.95l-3.2,-3.3l-0.25,-0.25m-32.75,72.9l2.95,3.35q9.15,9.75 12.6,10.45l3.15,0.9q-1,2.5 -3.45,3.1q-9.65,-4.75 -12.7,-8q-2.8,-3 -8.35,-10.25l5.8,0.45l-5.8,-0.45l-2.15,-2.9l-2.3,-8.1l-0.1,-0.25l-0.05,0.05l-7.75,5.85l0.15,0.95l0.2,0.95q1.95,8.65 4.35,13.7q1.55,3.25 12.25,38.5l0.1,0.25l0.4,1.35l-1.1,0.45l-0.05,-0.05q-7.45,-20.1 -9.6,-26.5q-1.4,-4.15 -7.85,-18.5l-3.65,-8.05l-2.25,-4.9l0.7,-1.3l-0.4,-5.7l0.75,-0.9l0.55,-0.65l1.2,-1.95l0.9,6.65l2.05,-1.7l1,5.55l4.55,-4.2l2.6,-3.25l1.85,-6.1q4.3,3.3 2.2,6.75l1.8,8.25l5.45,6.2m29.3,18.35l1.25,0.45l9.65,11.2l0.15,0.15l-0.15,0.35l-0.55,7.65l-0.45,-0.45l-0.55,0.1l-0.05,0l0.3,-5.05l-0.05,0.05q-1.3,-3.6 -6.4,-7.45l-0.6,-0.25l-8.35,-3.5q4.15,-0.55 5.8,-3.25m-62.9,-12l0,0.55q-2.45,0.65 -5.2,-1.1l0,-1.1l0.05,-3.8l-0.05,-2.3l0.5,1.15l0.75,1.65l4.15,1.45l-0.2,3.5m-5.4,2.15l-0.4,4.7l0.05,-0.75q-2.4,5.05 -5.1,4.75l1.45,-9.8q1.6,1.4 3.9,2.4l0.1,-1.3m-2.15,20.2q-0.9,5.1 -2.3,9.8q-4.4,4.2 -6.65,2.2q2.45,-5.35 3.75,-12.2l0.05,-0.35l0.45,0.35l0.6,0.55l1.75,0.3q1.35,0.1 2.35,-0.65m-9.2,23.85l-2.85,3.55l-0.5,0.55l-2.75,9.15l0.7,7.25l0.05,0.1l-4.75,0.65l0.9,-13.85l2.5,-5.8l-0.85,-0.1l-3.1,1.6q-0.8,0.45 5.6,-6.8l0.15,0.2q0.55,3.65 4.75,3.5l0.15,0m-23.9,-69.6l-1.75,-2.8l1.5,-0.85l2.45,-1.85l1,1.9l-0.05,0.05l-0.5,0.4l-1.15,1.25l-1.5,1.9m-3.9,-6.3l-2.9,10.5l-0.2,0.4l-0.2,0.45q-6.6,13.65 -11,17.8l-4.25,3.8q-6.95,5.8 -14.75,10.2l-1.8,0.95l-9,10.45q2.4,8.65 0.85,10.55l-0.6,-0.25l-2.55,-9.55l-1,0.8q2.55,-9.55 6.95,-11.2l0.2,-0.05l-0.2,0.05l-0.05,0l-4.65,0.4q-1.65,-0.2 9.35,-6.75l0.2,0.1q0.25,0.35 0.15,1.05q-0.1,0.65 0.15,1.45q0.25,0.8 2.2,1.25l0.9,0.15l5.6,-3.55q-1.55,0.3 -2.1,-1.15q-0.55,-1.45 0.35,-3.65l9.8,-6.05q5.9,-4 7.25,-6q3.6,-5.45 7.3,-13.25l-0.8,-8.25l-0.6,-0.55l1.05,-2.5l-0.25,-0.2l4.6,2.6m3.9,-3.6l0.8,-14.25l-0.85,-7.95l-0.35,-2.8q2.8,-2.55 4.1,-1.1l0.2,3.9q0.2,8.55 -0.7,21.3q-0.05,0.3 4.6,3.35l0.45,0.25l-0.7,-0.05l-3.6,2.95q-1.3,-0.5 -2.65,-3.05l-1.3,-2.55m-1.55,-31.95l0,-0.1l-0.05,-0.15l-0.15,-0.65l-0.05,-0.25q-0.65,-3.2 -1.4,-5.15l-3.15,-7.35q0.5,0.05 1,-0.45q0.45,-0.5 1.35,-0.7q0.9,-0.2 2.2,0.35l-0.4,-0.95q3.05,7.2 4.35,11.55q-2.9,1.05 -3.7,3.85m-9.5,-24.5l-3.55,-8.1l-2.2,-0.9q0.9,-3.55 3.95,-3.8l0.65,0l5.6,12q-3.05,-1.35 -4.45,0.8m124.2,116.15l1.3,-2.25l0,-0.5l0,0.5l-1.3,2.25m-60.4,-44.25l-3,2.55l3,-2.55m14.25,-2.95l-0.05,-0.1l0,0.1l0.05,0m-0.05,0q-1.45,2.75 -2.95,3q1.5,-0.25 2.95,-3m-10.85,8.65l-0.3,-1.85l0.3,1.85m-10.1,-1.75l-1,2.8l0,2.95l-1.85,-4.8l0.3,-1.4l0.85,0.2l1.7,0.25m-38.2,-16.95l-0.25,0.2l0.25,-0.2m30.65,28.75l-1.75,-2.85l1.75,2.85m-21.25,49.9q3.1,-0.5 3.85,1.95q-0.75,-2.45 -3.85,-1.95m0.6,11.65l-0.65,2.05l0.65,-2.05m-56.8,-45.05q-1.8,0.85 -2.35,0.55l-0.25,-0.3q-1.35,0.05 -2.55,0.5q1.2,-0.45 2.55,-0.5l0.25,0.3q0.55,0.3 2.35,-0.55"/>
   <path id="svg_14" fill-rule="evenodd" fill="#4f1500" d="m375.15,146.8l2.85,-3.15q1.25,-1.95 1.35,-1.85l4.25,5.95q6.4,10.4 9.05,24.7l0.7,4.65l-6.05,5.55l-1.55,1.55q-0.3,-20.65 -7.25,-32.8q-1.5,-2.45 -3.35,-4.6m-27.55,25.25l8.35,-5.7q8.9,8.85 11.4,21.3l1.2,6.45q-3.65,0.45 -6.6,3l-1.4,0.1l0.05,0.6q-1.75,-13.1 -12.2,-25l-0.8,-0.75m18.6,-8.8l4.5,-5.2l0.6,1.05l0.1,0.6l0.7,1.3q2.8,5.5 4.75,12.05q2.5,8.45 2.55,16.35q-3.8,1.9 -7.4,4.2q1.45,-9.65 -1.6,-20.6q-1.5,-5.25 -4.2,-9.75"/>
   <path id="svg_15" fill-rule="evenodd" fill="#2b0900" d="m393.55,179.6q-1.6,3.05 -3.7,5.85l-0.3,0.45l-2.8,3.25l-0.7,0.75l-0.35,-0.1l0.05,-5.6l1.55,-1.55l6.05,-5.55l0.2,2.5m-14.5,16.25l-8.2,4.5l-0.1,0.05l-0.35,-0.3l1.3,-4.85l0.25,-1.65l0.05,0q3.6,-2.3 7.4,-4.2l-0.3,6.1l-0.05,0.35m-9.7,5.05l-7.55,2.05l-0.85,0.15l0,-1.05l-0.35,-4.25l-0.05,-0.6l1.4,-0.1q2.95,-2.55 6.6,-3q1.1,6.25 0.8,6.8"/>
   <path id="svg_16" fill-rule="evenodd" fill="#ffcc00" d="m391.3,241.85l-0.7,0.3l4,2.4l10.95,9.05l-15.05,-6.3l-0.35,-5l0.1,-0.75l0.05,-0.05l0.55,-0.1l0.45,0.45m-40.75,10.4l2.35,2.4l0.15,7.2l11.55,6.2l-11.6,-1.85q-0.8,7.65 2.2,14.3q-3.1,-2.55 -5,-8q-1.2,-3.4 -0.2,-8.05l0.75,-6.5l-0.4,-2.45l-0.5,-1.45l1.1,-0.45l-0.4,-1.35m-54.6,24.6q0.9,7.7 2.25,10.65q2.15,4.7 11,10l-14.4,-7.4l0,-0.05l-0.1,0l-5.8,6.5q-4,4.45 -5.45,6.5l7.75,-14.55l0,-11l4.75,-0.65m-66.3,-31.65l-9.4,8.85l4.85,-12.45l0.05,-0.1l0,-0.05l0,-0.1q0.3,-2.35 0.85,-4.4l0.1,-0.4l0,-0.1l1,-0.8l2.55,9.55m33.15,-133l-12.1,5.5l-9.5,-0.2q10.25,-1.55 15.75,-6.9q-4.95,-1.95 -15.75,-8.85l-4,-5.25l9.95,4.3q10.25,4.35 17.4,6.7q-3.05,0.25 -3.95,3.8l2.2,0.9m87.95,145.75l0.35,2.05l-0.35,-2.05m1.5,3.45l0.75,4.8l-0.75,-4.8m-57.9,23.6l0.45,5.05l-0.45,-5.05"/>
   <path id="svg_17" fill-rule="evenodd" fill="#a37d01" d="m390.6,242.15l11.6,0.5l-7.6,1.9l-4,-2.4m-165.5,-0.55l-8,-1.65l8.2,-3.1l0.7,0.1q-0.55,2.05 -0.85,4.4l-0.05,0.25"/>
   <path id="svg_18" fill-rule="evenodd" fill="#7b2828" d="m312.85,209.5l-0.2,2.7l-0.1,1.3q-2.3,-1 -3.9,-2.4l0.05,-0.35l0,-0.05l0,-0.15l0.25,-1.65l0.65,-4.15l-2.3,-7.4l1.25,-1.1l0.75,-0.65l0.55,-0.5l-0.55,0.5l0.55,-0.5l0.3,-0.1q2.4,-0.7 2.7,7.3l0.05,2.3l-0.05,3.8l0,1.1m-37.2,-25.65l-2.15,-3.5l-4.6,-2.6l-1.65,-1.65l0.05,-0.15l1.8,-3.75l5.5,-0.7l0.1,0l2.7,5.25l1.3,2.55l0.9,1.85l-2.45,1.85l-1.5,0.85m48.35,0q1.65,-4.6 3.2,-4.35q1.05,0.15 4,5q-1.4,1.15 -1.95,1.05l-1.2,1.95l-0.55,0.65l-0.75,0.9q-2.1,2.55 -2.55,4.45l-0.8,2.65l-1.7,-0.25l-0.85,-0.2l0.85,-3.8l1.3,-5.1l1,-2.95m-15.45,12.4l0.75,-0.65l-0.75,0.65m1.65,4.25l-0.6,4.25l0.6,-4.25"/>
   <path id="svg_19" fill-rule="evenodd" fill="#ffffff" d="m286.1,189.25q0.95,-0.75 2.3,-0.75l5.25,-0.7l6.25,-0.7q2.35,-0.05 -3.35,3.15q-5.7,3.2 -7.1,3.4l-1.7,0.1q-0.95,-0.15 -1.65,-0.75q-0.95,-0.75 -0.95,-1.85q0,-0.55 0.25,-1l0.7,-0.9m-0.6,-6.55q-3,3.05 -3.6,4.75q-0.65,1.7 -1.2,1.7q-0.55,0 -0.95,-0.5q-0.4,-0.45 -0.4,-1.1q0,-0.65 0.4,-1.15l0.15,-0.15l1.35,-1.4q1,-1.1 3.6,-2.85q2.15,-1.5 2.85,-1.45l-2.2,2.15"/>
   <path id="svg_20" fill-rule="evenodd" fill="#a92505" d="m294.45,198.85l3.1,-1.1l-1.9,7.1l-1.55,0.75l-1.3,-1.9l-2.75,4.05l-1.4,-0.05l0.45,0q2.95,-4.45 5.35,-8.85m-14.3,7.45l0,-0.05l0,0.05"/>
   <path id="svg_21" fill-rule="evenodd" fill="#ff0000" d="m277.55,201.85l3.35,-6.2l1.2,-0.8l0.3,2.15l0.7,0.45q-3.1,2.15 -4.7,5.3l0.1,0.5l-0.2,0.2l-0.75,-1.6m11.55,5.85l-0.45,0l-0.85,-0.05l1.3,0.05m-6.75,-0.25l-2.2,-0.1l0,-1.05l0,-0.05l-0.05,-0.65q0.85,0.6 2.05,0.9l0.2,0.95"/>
   <path id="svg_22" fill-rule="evenodd" fill="#361212" d="m312.85,202.3l0.8,0.25l-0.3,0.9l-0.5,-1.15"/>
   <path id="svg_23" fill-rule="evenodd" fill="#336600" d="m225.3,236.85l0.65,-0.25l0.15,-0.05l-0.2,0.05l0.05,0l-0.05,0l0.2,-0.05l-0.1,0.4l-0.7,-0.1l0.6,-0.25l-0.6,0.25"/>
   <path id="svg_24" fill-rule="evenodd" fill="#99ff00" d="m225.15,241.35l0,0.1l0,0.05l-0.05,0.1l0.05,-0.25"/>
   <path id="svg_25" stroke-width="0.05" stroke-linejoin="round" stroke-linecap="round" stroke="#ff9900" fill="none" d="m319.65,132.65l1.75,-0.45l2.3,-0.2l4.85,0.5m1.6,0.2l-1.6,-0.2m-2.95,19.5l-6.4,-0.7l-1.15,-0.1l-0.15,0.05l-1.6,0.2m9.3,0.55l1,0.15m-17.75,0.9l4.55,-1.05l2.9,-0.55m42.45,-25l-0.75,-0.35l-5.55,-2.05q-4.6,-1.55 -9.65,-2.5m36.55,20.25q-6,-7.25 -14.3,-12.15q-3,-1.75 -6.3,-3.2m22.2,95.6l1.25,0.45l9.65,11.2m0,0.5l-0.55,7.65m-1.05,-0.35l0.3,-5.05m-95.35,33.05l0.7,7.25l0.05,0.1m-4.75,0.65l0.9,-13.85l2.5,-5.8m1.65,-5.3l0.25,-0.3q2.95,-3.4 5.05,-7.85m3.8,-12.55l0.1,-0.45l1.7,-10.4m-81.05,15.45q2.55,-9.55 6.95,-11.2l0.2,-0.05m31.3,-117.7l0.65,0l5.6,12m59.35,13.2l0.15,-0.1l6.9,1.45l6.45,1.95l0.7,0.25m11.6,30.1q-15,-12.3 -29.35,-14.2m44.1,5.9q-8.8,-15.2 -26.35,-21.8m-79.8,-28.75q-3.05,0.25 -3.95,3.8l2.2,0.9m-17.65,102.35q-0.9,2.2 -0.35,3.65q0.55,1.45 2.1,1.15l-5.6,3.55l-0.9,-0.15q-1.95,-0.45 -2.2,-1.25q-0.25,-0.8 -0.15,-1.45q0.1,-0.7 -0.15,-1.05l-0.2,-0.1"/>
   <path id="svg_26" stroke-width="0.05" stroke-opacity="0.360784" stroke-linejoin="round" stroke-linecap="round" stroke="#660000" fill="none" d="m326.1,127l-0.2,0.15l-0.55,0.4l-0.3,0.2l-3.85,3.3l-1.55,1.6m-0.3,0.3l-4.05,4.95l-0.25,0.35l-0.3,0.4l-0.15,0.25l-0.15,0.2m-6.35,21.75q0,-3.25 0.5,-6.3l0.05,-0.4l0.1,-0.55l0.05,-0.2l0.05,-0.35q1.45,-7.55 5.6,-13.95m-29.25,40.1l5.4,-4.4q-2.3,3.05 3.7,3.05q8.35,0 14.2,5.65l1.95,2.15q1.7,-2 3.7,-2.9q-6.05,-9.6 -6.05,-21.6l0,-0.3m30.3,-40.1q6.8,-2.15 14.55,-2.15l1,0q13.95,0.25 24.75,7.65q0.15,-1.4 0.65,-2.5q0.8,-1.65 1.9,-1.65q1.1,0 1.85,1.65q0.8,1.65 0.8,4l-0.25,2.4l0.75,0.65l1.85,-0.1q2.9,0 4.95,0.7q2.05,0.7 2.05,1.65q0,0.95 -2.05,1.65l-1.85,0.5l-0.75,0.1l1.6,2.05l0.5,0.65l0,0.05q7.1,10.15 7.1,23.1q0,10.05 -4.25,18.45q-1.6,3.05 -3.7,5.85l-0.3,0.45l-2.8,3.25l-1.05,1.1l-1.05,1q-2.7,2.55 -5.6,4.6l-8.2,4.5l-0.1,0.05l-0.2,0.05l-0.3,0.1l-0.9,0.35l-7.55,2.05l-8.85,0.75l-1.3,0l2.95,3.35q9.15,9.75 12.6,10.45l3.15,0.9l10.6,3.65m10.9,11.65l0.15,0.15l-0.15,0.35l-1.3,2.25l-0.05,0.05q-1.3,-3.6 -6.4,-7.45l-0.6,-0.25l-8.35,-3.5m16.15,16.55l-0.7,0.3l11.6,0.5l-7.6,1.9l10.95,9.05l-15.05,-6.3l-0.35,-5l0.1,-0.75l0,-0.05m-19.8,-18.3l-3.55,-1.7q-9.65,-4.75 -12.7,-8q-2.8,-3 -8.35,-10.25q-6.35,-0.9 -12,-3.45m16.7,52.45l2.35,2.4l0.15,7.2l11.55,6.2l-11.6,-1.85q-0.8,7.65 2.2,14.3q-3.1,-2.55 -5,-8q-1.2,-3.4 -0.2,-8.05l0.75,-6.5l-0.4,-2.45l-0.5,-1.45l-0.05,-0.05q-7.45,-20.1 -9.6,-26.5q-1.4,-4.15 -7.85,-18.5l-3.65,-8.05q-0.85,2.7 -2.65,4.95q-1.95,2.45 -4.35,3.5q-1.65,0.65 -3.55,0.65l-0.1,0l0,0.55q-2.45,0.65 -5.2,-1.1l-0.2,2.7l-0.4,4.7l-0.55,6.35l0,0.2l-1.15,8.75l-0.05,0.2q-0.9,5.1 -2.3,9.8l-0.65,2.05q-2.05,6.25 -6.25,12l-2.85,3.55l-0.5,0.55l-2.75,9.15m0.75,7.35q0.9,7.7 2.25,10.65q2.15,4.7 11,10l-14.4,-7.4l-0.1,-0.05l-5.8,6.5q-4,4.45 -5.45,6.5l7.75,-14.55l0,-11m3.4,-19.65l-0.85,-0.1l-3.1,1.6q-0.8,0.45 5.6,-6.8m5.3,-8.15q2.45,-5.35 3.75,-12.2l0.05,-0.35m1.85,-10.95l1.45,-9.8l0.05,-0.35l0,-0.05l0,-0.15l-0.1,0.05l0,0.05l-0.1,0.05q-5.85,5.65 -14.2,5.65q-8.35,0 -14.25,-5.65q-4.6,-4.45 -5.55,-10.3l1.35,-1.4l1.7,2.85m3.35,-6.2l-1.3,0.85l-0.45,-3.65l-4.55,0.35q0.6,-2.95 2.1,-5.5l0.7,-1.05l-1.75,-2.8l-2.15,-3.5l-2.9,10.5l-0.2,0.4l-0.2,0.45q-6.6,13.65 -11,17.8l-4.25,3.8q-6.95,5.8 -14.75,10.2l-1.8,0.95l-9,10.45q2.4,8.65 0.85,10.55l-0.05,0.05l-0.55,-0.3l-9.4,8.85l4.85,-12.45l-8,-1.65l8.2,-3.1m0.65,-0.25l0.15,-0.15l1,-0.8l2.55,9.55m3.6,-20l-0.2,0.05l-0.05,0l-4.65,0.4q-1.65,-0.2 9.35,-6.75l5.4,-3.15q1.05,-0.65 2.05,-1.2l9.8,-6.05q5.9,-4 7.25,-6q3.6,-5.45 7.3,-13.25l-0.8,-8.25l-0.6,-0.55l1.05,-2.5l-0.25,-0.2l-1.65,-1.65l0.05,-0.15l1.8,-3.75l5.5,-0.7l0.1,0l2.7,5.25l0.8,-14.25l-0.85,-7.95l-0.35,-2.8l-1.15,-6.95l0,-0.1l-0.05,-0.15l-0.15,-0.65l-0.05,-0.25q-0.65,-3.2 -1.4,-5.15l-3.15,-7.35l-4.7,-10.85m-3.55,-8.1l-12.1,5.5l-9.5,-0.2q10.25,-1.55 15.75,-6.9q-4.95,-1.95 -15.75,-8.85l-4,-5.25l9.95,4.3q10.25,4.35 17.4,6.7m6.25,12l1.1,2.35l0.25,0.5l3.05,7.05q3.05,7.2 4.35,11.55l0.65,2.55q0.6,2.9 0.9,7.15l0.2,3.9q0.2,8.55 -0.7,21.3q-0.05,0.3 4.6,3.35l0.45,0.25l-0.7,-0.05l-3.6,2.95l-0.75,0.7l-0.05,0.05l-0.5,0.4l-1.15,1.25l-1.5,1.9m61,-65.9l-3.3,1.2m-9,5.05l0.15,-0.1l0.3,-0.2l0.05,-0.05l3.65,-2.35q2.35,-1.3 4.85,-2.35m52.75,12.4l0.75,0.95m-9.7,-8.9l-0.2,0l0,-0.15l0.2,0.15q2.45,1.65 4.75,3.75m0.75,0.65l0.25,0.25l3.2,3.3m4,99.35l0,0.5m-1.25,7.95l4,2.4m-70.6,-60.7q1.65,-4.6 3.2,-4.35q1.05,0.15 4,5q-1.4,1.15 -1.95,1.05l0.9,6.65l2.05,-1.7l1,5.55l4.55,-4.2l2.6,-3.25l1.85,-6.1q4.3,3.3 2.2,6.75l1.8,8.25l5.45,6.2l-5.8,-0.45l-2.15,-2.9l-2.3,-8.1q1.5,-0.25 2.95,-3m-3.1,2.8l-7.75,5.85l0.15,0.95l0.2,0.95m-4.6,-14.25l-1.2,1.95l-0.55,0.65l-0.75,0.9l0.4,5.7l3,-2.55m14.25,-2.95l-0.05,-0.1l0,0.1m-3.1,2.8l0.05,-0.05l0.1,0.25m-12.7,8.7l-2.25,-4.9l0.7,-1.3m6.05,1.3l0.3,1.85m-6.75,-8.85q-2.1,2.55 -2.55,4.45l-0.8,2.65l-1,2.8l0,2.95l-1.85,-4.8l0.3,-1.4l0.85,-3.8l1.3,-5.1l1,-2.95q-1.1,-0.85 -2.3,-1.3q-1.65,-0.7 -3.55,-0.7l-1.15,0.1q-1.5,0.15 -2.85,0.8m-29.2,-3.35l0.25,-0.2m0.9,10.05q0.95,-0.75 2.3,-0.75l5.25,-0.7l6.25,-0.7q2.35,-0.05 -3.35,3.15q-5.7,3.2 -7.1,3.4l-1.7,0.1q-0.95,-0.15 -1.65,-0.75q-0.95,-0.75 -0.95,-1.85q0,-0.55 0.25,-1l0.7,-0.9m-0.6,-6.55q-3,3.05 -3.6,4.75q-0.65,1.7 -1.2,1.7q-0.55,0 -0.95,-0.5q-0.4,-0.45 -0.4,-1.1q0,-0.65 0.4,-1.15l0.15,-0.15l1.35,-1.4q1,-1.1 3.6,-2.85q2.15,-1.5 2.85,-1.45l-2.2,2.15m3.15,25l-0.85,-0.05m-7.65,-1.35l0,-0.05l-0.05,-0.65m14.35,-6.75l-3.85,1.4l-3.3,-3.6l-2.55,2m24.55,-3.05l0.55,-0.5l0.3,-0.1q2.4,-0.7 2.7,7.3l0.5,1.15l0.3,-0.9q0.75,-2.6 0.75,-5.45q0,-6.5 -3.95,-11.45m-1.15,9.95l0.4,-0.4l0.15,-0.1m-1.3,1.15l-1.25,1.1l2.3,7.4l0.6,-4.25m-0.9,-4.9l-0.75,0.65m4.3,13.25l0,-1.1l0.05,-3.8l-0.05,-2.3m-4.15,8.25l0.25,-1.65l0.65,-4.15m4.5,0.35l1.75,2.85m-2.5,-4.5l0.75,1.65l4.15,1.45l-0.2,3.5m-19.6,49.75q-0.75,-2.45 -3.85,-1.95m56.5,2.15l-0.35,-2.05m0.2,-4.35l-0.4,-1.35m-56,19.3l0.65,-2.05m-0.4,20.6l0,-0.05l-0.45,-5.05m58.65,-18.8l-0.75,-4.8m-72.65,-80.25l-0.9,-1.85l-1.3,-2.55m3.2,6.3l-1,-1.9m-0.9,-1.85q1.35,2.55 2.65,3.05m-12.45,-4.6l4.6,2.6m9.6,17.1l-0.7,-0.45l-0.3,-2.15l-1.2,0.8m-47.65,29.55q1.2,-0.45 2.55,-0.5l0.25,0.3q0.55,0.3 2.35,-0.55m-12.45,12.15l-0.05,0l0.2,-0.05l0,-0.1m0,0.1l-0.1,0.4q-0.55,2.05 -0.85,4.4l0,0.1l0,0.05l-0.05,0.1l0.05,-0.25m0.75,-4.75l-0.6,0.25"/>
   <path id="svg_27" stroke-linejoin="round" stroke-linecap="round" stroke="#ff9900" fill="none" d="m277.55,201.85l3.35,-6.2m7.75,12.05l1.4,0.05l2.75,-4.05l1.3,1.9l1.55,-0.75l1.9,-7.1l-3.1,1.1m-6.65,8.8l-5.45,-0.2l-2.2,-0.1l0,-1.05m-0.05,-0.7l-0.1,-4.25l-1.5,1.9l-0.2,0.2l-0.75,-1.6"/>
   <path id="svg_28" stroke-width="0.05" stroke-opacity="0.352941" stroke-linejoin="round" stroke-linecap="round" stroke="#000000" fill="none" d="m227.05,165.35q-10.45,19.25 -22.15,37.7l14.45,-9.35l3.1,-7.95l18.65,-47.95q-6.75,14 -14.05,27.55q-11.15,16.3 -24.55,29.65q-13,12.8 -28.15,22.9m73.65,-97.9l-6.9,17.8m-36.95,67.7l12.4,-4.65l2.8,-7.15m-14.45,9.35l-0.45,0.65l-5.9,9.1l-7.2,10.65l15.8,-4.95m-4.65,-23.5q-5.9,5.25 -23.15,11.45l-2.2,5.05l-2.8,6.4m5,-11.45q-2.6,-0.45 -4.3,0m16.3,17l-7.1,10.05l17.9,0m-23.75,8.95l-0.15,-0.7l-0.75,1q13.5,4.5 18.55,10.8l20.5,-52.7m-39.6,41.6l0.55,0.3q-2.4,3.2 -31.65,33.2m32.4,-34.2l6,-8.25m-44.75,-22l37.65,0m3.65,83.45l-0.6,1.55m-35.75,-20.05l1.4,-0.5m50.2,-22.4l-15.25,41.4m17.75,-82.15l6.6,-18.3"/>
   <path id="svg_29" stroke-width="0.05" stroke-opacity="0.172549" stroke-linejoin="round" stroke-linecap="round" stroke="#000000" fill="none" d="m174.35,217.9l-48.55,23.2q41.15,-18.45 34.85,-15m-14.8,49.85l45.7,-16.9m-65.75,-17.95q56.35,-12.7 52.45,0.65m2.55,53.2l22.35,-23"/>
   <path id="svg_30" stroke-width="0.05" stroke-opacity="0.352941" stroke-linejoin="round" stroke-linecap="round" stroke="#000000" fill="none" d="m188.15,226.5l-3,-14"/>
   <path id="svg_31" fill-rule="evenodd" fill="#ffffff" d="m214.6,159.95q0.95,-0.4 2.2,0.8q1.25,1.2 2,3.25q0.8,2.05 0.65,3.8q-0.15,1.7 -1.15,2.1q-1,0.35 -2.25,-0.85q-1.25,-1.2 -2,-3.25q-0.8,-2.1 -0.65,-3.8q0.15,-1.7 1.2,-2.05"/>
   <path id="svg_32" stroke-width="0.05" stroke-opacity="0.501961" stroke-linejoin="round" stroke-linecap="round" stroke="#000000" fill="none" d="m214.6,159.95q0.95,-0.4 2.2,0.8q1.25,1.2 2,3.25q0.8,2.05 0.65,3.8q-0.15,1.7 -1.15,2.1q-1,0.35 -2.25,-0.85q-1.25,-1.2 -2,-3.25q-0.8,-2.1 -0.65,-3.8q0.15,-1.7 1.2,-2.05z"/>
   <path id="svg_33" fill-rule="evenodd" fill="#ffcccc" d="m320.25,152.45q0.75,0.75 0.75,1.8l0,0.3q-0.1,0.85 -0.75,1.45q-0.7,0.75 -1.75,0.75q-1.05,0 -1.8,-0.75q-0.6,-0.6 -0.65,-1.45l-0.05,-0.3q0,-1.05 0.7,-1.8q0.75,-0.7 1.8,-0.7q1.05,0 1.75,0.7m25.05,-26.05q-0.7,0.75 -1.75,0.75q-1.05,0 -1.8,-0.75q-0.7,-0.7 -0.7,-1.75q0,-1.05 0.7,-1.8q0.75,-0.7 1.8,-0.7q1.05,0 1.75,0.7q0.75,0.75 0.75,1.8q0,1.05 -0.75,1.75m-11.85,7.75q0.75,0.75 0.75,1.8q0,1.05 -0.75,1.75q-0.7,0.75 -1.75,0.75q-1.05,0 -1.8,-0.75q-0.7,-0.7 -0.7,-1.75q0,-1.05 0.7,-1.8q0.75,-0.7 1.8,-0.7q1.05,0 1.75,0.7"/>
   <path id="svg_34" fill-rule="evenodd" fill="#333366" d="m303.95,184.65q-3.9,-0.75 -10.5,-0.25q-6.6,0.45 -4.8,-0.45l2.6,-1.6q0.8,-0.75 0.2,-1.4q-0.6,-0.7 7.9,1.85q8.5,2.55 4.6,1.85"/>
   <path id="svg_35" stroke-width="0.05" stroke-linejoin="round" stroke-linecap="round" stroke="#ff9900" fill="none" d="m320.25,152.45q0.75,0.75 0.75,1.8l0,0.3q-0.1,0.85 -0.75,1.45q-0.7,0.75 -1.75,0.75q-1.05,0 -1.8,-0.75q-0.6,-0.6 -0.65,-1.45l-0.05,-0.3q0,-1.05 0.7,-1.8q0.75,-0.7 1.8,-0.7q1.05,0 1.75,0.7m25.05,-26.05q-0.7,0.75 -1.75,0.75q-1.05,0 -1.8,-0.75q-0.7,-0.7 -0.7,-1.75q0,-1.05 0.7,-1.8q0.75,-0.7 1.8,-0.7q1.05,0 1.75,0.7q0.75,0.75 0.75,1.8q0,1.05 -0.75,1.75m-11.85,7.75q0.75,0.75 0.75,1.8q0,1.05 -0.75,1.75q-0.7,0.75 -1.75,0.75q-1.05,0 -1.8,-0.75q-0.7,-0.7 -0.7,-1.75q0,-1.05 0.7,-1.8q0.75,-0.7 1.8,-0.7q1.05,0 1.75,0.7"/>
   <path id="svg_36" stroke-width="0.05" stroke-linejoin="round" stroke-linecap="round" stroke="#000000" fill="none" d="m196.55,155.5l-3.9,-1.55m16.7,-4.15l-1.7,-2.2m-10.2,24.25l-3.3,0.9"/>
   <path id="svg_37" fill-rule="evenodd" fill="#ffffff" d="m216.35,174.2q-1.2,1.15 -3.15,1.85l-3.55,0.5q-1.65,-0.15 -2,-1.05q-0.3,-1 0.85,-2.1q1.15,-1.2 3.1,-1.9q1.95,-0.65 3.6,-0.55q1.6,0.25 1.95,1.15q0.3,0.95 -0.8,2.1"/>
   <path id="svg_38" stroke-width="0.05" stroke-opacity="0.501961" stroke-linejoin="round" stroke-linecap="round" stroke="#000000" fill="none" d="m216.35,174.2q1.1,-1.15 0.8,-2.1q-0.35,-0.9 -1.95,-1.15q-1.65,-0.1 -3.6,0.55q-1.95,0.7 -3.1,1.9q-1.15,1.1 -0.85,2.1q0.35,0.9 2,1.05l3.55,-0.5q1.95,-0.7 3.15,-1.85z"/>
   <path id="svg_39" fill-rule="evenodd" fill="#000000" d="m224.15,171.5q0,2.05 -1.5,3.5q-1.45,1.5 -3.5,1.5q-2.05,0 -3.55,-1.5q-1.45,-1.45 -1.45,-3.5q0,-2.05 1.45,-3.55q1.5,-1.45 3.55,-1.45q2.05,0 3.5,1.45q1.5,1.5 1.5,3.55"/>
   <path id="svg_40" fill-rule="evenodd" fill="#ffffff" d="m220.45,195.35l-0.9,0.35q-0.55,0 -0.9,-0.35q-0.4,-0.4 -0.4,-0.9q0,-0.55 0.4,-0.9q0.35,-0.4 0.9,-0.4q0.5,0 0.9,0.4q0.35,0.35 0.35,0.9l-0.35,0.9"/>
   <path id="svg_41" fill-rule="evenodd" fill="#ffffff" d="m193.8,223.7q-0.4,0.35 -0.9,0.35q-0.55,0 -0.9,-0.35q-0.4,-0.4 -0.4,-0.9q0,-0.55 0.4,-0.9q0.35,-0.4 0.9,-0.4q0.5,0 0.9,0.4q0.35,0.35 0.35,0.9l-0.35,0.9"/>
   <path id="svg_42" fill-rule="evenodd" fill="#ffffff" d="m205.95,194.55l-0.9,0.35q-0.55,0 -0.9,-0.35q-0.4,-0.4 -0.4,-0.9q0,-0.55 0.4,-0.9q0.35,-0.4 0.9,-0.4l0.9,0.4l0.35,0.9l-0.35,0.9"/>
   <path id="svg_43" fill-rule="evenodd" fill="#666666" d="m220.85,166.9l-0.8,-0.1q-1.85,0 -3.2,1.3q-1.3,1.35 -1.3,3.2q0,1.85 1.3,3.15l0.2,0.2l0.2,0.2q1.35,1.35 3.2,1.35l0.25,0l-1.75,0.3q-2.05,0 -3.55,-1.5q-1.45,-1.45 -1.45,-3.5q0,-2.05 1.45,-3.55q1.5,-1.45 3.55,-1.45l1.9,0.4"/>
   <path id="svg_44" fill-rule="evenodd" fill="#ffffff" d="m222.05,168.35q0.35,0.35 0.35,0.85l-0.35,0.85l-0.85,0.35q-0.5,0 -0.85,-0.35q-0.35,-0.35 -0.35,-0.85q0,-0.5 0.35,-0.85q0.35,-0.35 0.85,-0.35q0.5,0 0.85,0.35m-3.15,2.75q-0.45,0.45 -1.05,0.45l-1.1,-0.45q-0.45,-0.45 -0.45,-1.1q0,-0.65 0.45,-1.1q0.45,-0.45 1.1,-0.4q0.6,-0.05 1.05,0.4q0.45,0.45 0.45,1.1q0,0.65 -0.45,1.1"/>
   <path id="svg_45" stroke-opacity="0" stroke-linejoin="round" stroke-linecap="round" stroke="#ff00ff" fill="none" d="m430,26l0,320l-319.95,0l-0.05,0l0,-320l320,0"/>
   <path id="svg_46" stroke-opacity="0" stroke-linejoin="round" stroke-linecap="round" stroke="#ff00ff" fill="none" d="m430,26l-160,160l160,160m-320,-320l160,160l-159.95,160"/>
   <path id="svg_47" stroke-opacity="0" stroke-linejoin="round" stroke-linecap="round" stroke="#ff00ff" fill="none" d="m350,240.8l-159.95,0"/>
  </g>
 </defs>
 <g>
  <title>background</title>
  <rect fill="none" id="canvas_background" height="215" width="217" y="-1" x="-1"/>
 </g>
 <g>
  <title>Layer 1</title>
  <g id="svg_48">
   <use x="-212" y="-93" id="svg_49" xlink:href="#shape0" width="248.4" transform="matrix(1,0,0,1,175.75,171.75) " height="131.85"/>
   <use x="-212" y="-93" id="svg_50" xlink:href="#shape1" width="190.45" transform="matrix(1,0,0,1,216.2,95.35) " height="208.55"/>
   <use x="-212" y="-93" id="svg_51" xlink:href="#shape2" width="94.85" transform="matrix(1,0,0,1,154.15,119.9) " height="145.5"/>
   <use x="-212" y="-93" id="svg_52" xlink:href="#shape3" width="321" transform="matrix(1,0,0,1,109.5,25.5) " height="321"/>
  </g>
 </g>
</svg>