<?xml version="1.0" encoding="UTF-8" standalone="no"?>
<!DOCTYPE svg PUBLIC "-//W3C//DTD SVG 1.1//EN" "http://www.w3.org/Graphics/SVG/1.1/DTD/svg11.dtd">
<svg width="100%" height="100%" viewBox="0 0 20 20" version="1.1" xmlns="http://www.w3.org/2000/svg" xmlns:xlink="http://www.w3.org/1999/xlink" xml:space="preserve" xmlns:serif="http://www.serif.com/" style="fill-rule:evenodd;clip-rule:evenodd;stroke-linecap:round;stroke-linejoin:round;">
    <g transform="matrix(1,0,0,1,-8.875,-9.275)">
        <g transform="matrix(-1,0,0,1,14.95,26.9)">
            <g id="sprite0" transform="matrix(0.6614,0,0,0.7349,0.94999,-0.5)">
                <g id="shape0">
                    <path d="M3.4,-1.7C4.3,-1.367 4.767,-0.9 4.8,-0.3C4.8,0.267 4.367,0.8 3.5,1.3C2.633,1.8 1.567,2.117 0.3,2.25L-3,1.9C-3.9,1.567 -4.35,1.117 -4.35,0.55C-4.383,-0.05 -3.95,-0.583 -3.05,-1.05C-2.183,-1.55 -1.117,-1.867 0.15,-2L3.4,-1.7" style="fill:#382c16;"/>
                </g>
            </g>
            <g id="shape1" transform="matrix(1,0,0,1,-0.55,-1.15)">
                <path d="M3.35,-1.7C3.35,-2.133 3.517,-2.5 3.85,-2.8C4.117,-3.1 4.483,-3.25 4.95,-3.25C5.383,-3.25 5.75,-3.1 6.05,-2.8C6.317,-2.533 6.467,-2.2 6.5,-1.8L6.15,-1.5C5.783,-1.267 5.367,-1.15 4.9,-1.15C4.4,-1.15 3.983,-1.267 3.65,-1.5L3.35,-1.7" style="fill:#fffdf9;"/>
                <path d="M6.5,-1.8L6.5,-1.65C6.5,-1.25 6.35,-0.883 6.05,-0.55C5.75,-0.25 5.383,-0.1 4.95,-0.1C4.483,-0.1 4.117,-0.25 3.85,-0.55C3.517,-0.883 3.35,-1.25 3.35,-1.65L3.35,-1.7L3.65,-1.5C3.983,-1.267 4.4,-1.15 4.9,-1.15C5.367,-1.15 5.783,-1.267 6.15,-1.5L6.5,-1.8" style="fill:#c2bda3;"/>
                <path d="M6.5,-1.8L6.5,-1.65C6.5,-1.25 6.35,-0.883 6.05,-0.55C5.75,-0.25 5.383,-0.1 4.95,-0.1C4.483,-0.1 4.117,-0.25 3.85,-0.55C3.517,-0.883 3.35,-1.25 3.35,-1.65L3.35,-1.7C3.35,-2.133 3.517,-2.5 3.85,-2.8C4.117,-3.1 4.483,-3.25 4.95,-3.25C5.383,-3.25 5.75,-3.1 6.05,-2.8C6.317,-2.533 6.467,-2.2 6.5,-1.8Z" style="fill:none;fill-rule:nonzero;stroke:#867b59;stroke-width:0.25px;"/>
            </g>
            <g id="shape2" transform="matrix(-0.1299,-0.3375,-0.4678,-0.1227,2.45013,0.50004)">
                <path d="M0.15,-1.85C1.117,-2.317 1.917,-2.017 2.55,-0.95C3.183,0.117 2.6,0.967 0.8,1.6L-3.55,3L-5.95,3.05C-6.483,2.75 -5.833,1.967 -4,0.7C-2.2,-0.567 -0.817,-1.417 0.15,-1.85"/>
            </g>
            <g id="shape21" serif:id="shape2" transform="matrix(0.352,0.0635,-0.0753,0.4176,-2.05007,-1.45)">
                <path d="M0.15,-1.85C1.117,-2.317 1.917,-2.017 2.55,-0.95C3.183,0.117 2.6,0.967 0.8,1.6L-3.55,3L-5.95,3.05C-6.483,2.75 -5.833,1.967 -4,0.7C-2.2,-0.567 -0.817,-1.417 0.15,-1.85"/>
            </g>
            <g id="shape3" transform="matrix(1,0,0,1,0.4,-5.3)">
                <path d="M0.95,-1.65C1.55,-2.75 2.217,-3.667 2.95,-4.4L2.95,1.75L1.8,4.15L0.6,4.15C-0.933,4.15 -1.933,3.883 -2.4,3.35L-3.75,1.7C-3.583,0.167 -3.233,-1.2 -2.7,-2.4L-1.3,-5.15L-0.7,-5.65L-0.9,-2.55C-0.133,-2.35 0.483,-2.05 0.95,-1.65M-0.05,0.3L0,-0.3L-0.05,0.3M-1.5,-0.25L-1.4,-0.9L-1.5,-0.25" style="fill:#d3ede3;"/>
                <path d="M2.95,-4.4L3.45,-1.6L3.7,3.4C3.767,3.967 3.55,4.467 3.05,4.9L2.15,5.6L0.05,5.45L-2.8,4.25C-3.3,4.05 -3.617,3.2 -3.75,1.7L-2.4,3.35C-1.933,3.883 -0.933,4.15 0.6,4.15L1.8,4.15L2.95,1.75L2.95,-4.4" style="fill:#7cc7ab;"/>
                <path d="M-0.7,-5.65L-0.9,-2.55C-0.133,-2.35 0.483,-2.05 0.95,-1.65" style="fill:none;fill-rule:nonzero;stroke:#24646c;stroke-width:0.25px;"/>
                <path d="M2.95,-4.4L3.45,-1.6L3.7,3.4C3.767,3.967 3.55,4.467 3.05,4.9L2.15,5.6L0.05,5.45L-2.8,4.25C-3.3,4.05 -3.617,3.2 -3.75,1.7" style="fill:none;fill-rule:nonzero;stroke:#1e545b;stroke-width:0.25px;"/>
                <path d="M-1.4,-0.9L-1.5,-0.25M0,-0.3L-0.05,0.3" style="fill:none;fill-rule:nonzero;stroke:#000;stroke-width:0.25px;"/>
            </g>
            <g id="sprite1" transform="matrix(1,0,0,1,-0.75,-2.55)">
                <g id="shape4">
                    <path d="M-1.65,1.25C-2.017,0.617 -2.167,-0 -2.1,-0.6C-2.033,-1.3 -1.867,-1.8 -1.6,-2.1C-1,-2.367 -0.3,-2.25 0.5,-1.75L1.9,-0.8C2.2,-0.067 2.183,0.617 1.85,1.25C1.883,0.883 1.433,0.583 0.5,0.35C-0.033,0.05 -0.6,0.05 -1.2,0.35C-1.667,0.55 -1.817,0.85 -1.65,1.25M0.9,-0.15L1.5,-0.75L0.55,-1.25L0.5,-1.2L0.9,-0.15M-1.2,-1.75L-0.95,-0.8L-0.3,-1.7L-1.2,-1.75" style="fill:#0a1613;"/>
                    <path d="M-1.2,-1.75L-0.3,-1.7L-0.95,-0.8L-1.2,-1.75M0.9,-0.15L0.5,-1.2L0.55,-1.25L1.5,-0.75L0.9,-0.15" style="fill:#fcfff1;"/>
                    <path d="M1.85,1.25C1.583,1.783 1.183,2.133 0.65,2.3L-0.35,2.15C-0.783,2.017 -1.15,1.833 -1.45,1.6L-1.45,1.55L-1.65,1.25C-1.817,0.85 -1.667,0.55 -1.2,0.35C-0.6,0.05 -0.033,0.05 0.5,0.35C1.433,0.583 1.883,0.883 1.85,1.25" style="fill:#366d61;"/>
                </g>
            </g>
            <g id="shape5" transform="matrix(-0.151,-0.1319,0.1319,-0.151,-2.30048,-7.04965)">
                <path d="M9.8,-6.6L8.5,-10.35L9.95,-10.75L11.75,-7.45L13.25,-7.7L15.1,-10.65L16.1,-10L15.15,-7.05L19.3,-4.9L18.8,-3.25L15.75,-3.95L9.25,-1.8L0,0L0,-2.05L9,-4.15L9.8,-6.6" style="fill:#1e545b;"/>
            </g>
            <g id="shape51" serif:id="shape5" transform="matrix(-0.1548,-0.1258,0.1258,-0.1548,3.85005,-4.2495)">
                <path d="M9.8,-6.6L8.5,-10.35L9.95,-10.75L11.75,-7.45L13.25,-7.7L15.1,-10.65L16.1,-10L15.15,-7.05L19.3,-4.9L18.8,-3.25L15.75,-3.95L9.25,-1.8L0,0L0,-2.05L9,-4.15L9.8,-6.6" style="fill:#1e545b;"/>
            </g>
            <g id="shape6" transform="matrix(1,0,0,1,1.5501,-7.7002)">
                <path d="M0,0C-3.7,-5.033 -8.1,-8.133 -13.2,-9.3" style="fill:none;fill-rule:nonzero;stroke:#366d61;stroke-width:0.75px;"/>
            </g>
            <g id="shape7" transform="matrix(1,0,0,1,-10.45,-16.65)">
                <path d="M2.4,8.05L2.55,8.85L2.45,9.4L2.45,9.6L1.65,12.3L1,13.6L0.75,13.55C0.083,13.283 -0.45,12.617 -0.85,11.55L-1.05,11.3L-1.65,8.75L-1.05,8.3L0.95,7.75L2.4,8.05" style="fill:#c9e9dc;"/>
                <path d="M-1.1,5.5L-1.25,4.45L-0.7,4.5L0,5.15L0.05,5.2L0.15,5.25L1.2,5.5L1.45,5.4C1.95,5.1 2.167,5.2 2.1,5.7L1.5,6.75L1.3,6.85C0.9,7.183 0.467,7.35 0,7.35C-0.533,7.35 -1.033,7.15 -1.5,6.75L-1.65,6.65C-2.017,6.317 -2.183,6.017 -2.15,5.75C-2.183,5.417 -1.967,5.35 -1.5,5.55L-0.95,5.75L-1.1,5.5" style="fill:#356d61;"/>
                <path d="M-1.65,6.65L-1.5,6.75C-1.033,7.15 -0.533,7.35 0,7.35C0.467,7.35 0.9,7.183 1.3,6.85L1.5,6.75L1.75,6.95L2.4,8.05L0.95,7.75L-1.05,8.3L-1.65,8.75L-1.05,11.3L-0.85,11.55C-0.45,12.617 0.083,13.283 0.75,13.55L1,13.6C0.6,14.233 0.15,14.45 -0.35,14.25C-1.083,13.95 -1.683,13.167 -2.15,11.9L-2.45,10.9L-2.8,8.85C-2.8,8.117 -2.55,7.483 -2.05,6.95L-1.65,6.65" style="fill:#a5dac6;"/>
                <path d="M-0.05,2.1L-0.1,-0.85" style="fill:none;fill-rule:nonzero;stroke:#583827;stroke-opacity:0.41;stroke-width:0.25px;"/>
                <path d="M-1.1,5.5L-0.95,5.75M-1.65,6.65L-1.5,6.75C-1.033,7.15 -0.533,7.35 0,7.35C0.467,7.35 0.9,7.183 1.3,6.85L1.5,6.75M1,13.6C0.6,14.233 0.15,14.45 -0.35,14.25C-1.083,13.95 -1.683,13.167 -2.15,11.9L-2.45,10.9L-2.8,8.85C-2.8,8.117 -2.55,7.483 -2.05,6.95L-1.65,6.65M0,5.15L-0.05,2.1L0,5.15Z" style="fill:none;fill-rule:nonzero;stroke:#366d61;stroke-width:0.25px;"/>
            </g>
        </g>
    </g>
</svg>
