<?xml version="1.0" encoding="UTF-8" standalone="no"?>
<!DOCTYPE svg PUBLIC "-//W3C//DTD SVG 1.1//EN" "http://www.w3.org/Graphics/SVG/1.1/DTD/svg11.dtd">
<svg width="100%" height="100%" viewBox="0 0 19 40" version="1.1" xmlns="http://www.w3.org/2000/svg" xmlns:xlink="http://www.w3.org/1999/xlink" xml:space="preserve" xmlns:serif="http://www.serif.com/" style="fill-rule:evenodd;clip-rule:evenodd;stroke-miterlimit:3;">
    <g transform="matrix(1,0,0,1,-0.882766,-0.0206)">
        <g transform="matrix(0.6,0,0,0.6,12.3002,41.3006)">
            <g id="sprite0">
                <g id="shape1" transform="matrix(1,0,0,1,-9.5,-55.7)">
                    <path d="M-1.45,3.95L-1.45,3.9L-1.4,3.9L-1.45,3.95" style="fill:#366685;"/>
                    <path d="M-8.3,3.25C-8.133,2.25 -7.617,0.75 -6.75,-1.25L-6.65,-1.5C-7.517,-1.7 -8.4,-1.467 -9.3,-0.8L-9.45,-0.8C-8.383,-1.967 -7.25,-2.317 -6.05,-1.85L-5.85,-4.45L-5.7,-4.2L-4.9,-1.35L-4.25,-1.95L-4.15,-1.8L-3.15,-4.1L-3.3,-1.65L-2.35,-2.25L-3.6,0.95L-3.3,3.6C-3.633,4.367 -3.783,5.217 -3.75,6.15C-1.017,8.217 0.033,10.267 -0.6,12.3L-0.65,12.4C-1.483,13.2 -2.1,13.133 -2.5,12.2C-2.633,11.867 -2.867,11.833 -3.2,12.1C-3.833,12.6 -4.217,12.483 -4.35,11.75C-4.45,11.55 -4.667,11.483 -5,11.55C-5.5,11.717 -5.8,11.65 -5.9,11.35C-5.9,10.717 -5.617,10.15 -5.05,9.65L-4.35,9C-3.617,7.967 -3.683,7.267 -4.55,6.9L-6,7L-6.25,7C-6.317,4.3 -6.133,2.767 -5.7,2.4L-6.55,2.35L-6.75,2.5L-7.4,2.6L-8.3,3.25M-5.45,19.1L-6,19.15C-7.2,19.117 -7.7,18.65 -7.5,17.75C-7.033,18.117 -6.667,18.083 -6.4,17.65C-5.867,17.917 -5.5,17.517 -5.3,16.45C-5.067,15.117 -5.033,14.383 -5.2,14.25L-5.55,13.55L-5.7,13L-5.35,12.95C-5.183,12.817 -4.933,12.9 -4.6,13.2C-4.233,13.767 -3.8,13.883 -3.3,13.55C-3,13.25 -2.717,13.317 -2.45,13.75L-1.65,14.25C-1.317,15.55 -1.4,16.533 -1.9,17.2C-2.833,18.233 -4.017,18.867 -5.45,19.1" style="fill:#1c556c;"/>
                    <path d="M-7.55,-0.15C-7.817,-0.783 -8.4,-1 -9.3,-0.8C-8.4,-1.467 -7.517,-1.7 -6.65,-1.5L-6.75,-1.25C-7.617,0.75 -8.133,2.25 -8.3,3.25L-9.1,4.25L-9.2,3.75C-9.133,2.75 -8.583,1.45 -7.55,-0.15M-5.7,-4.2L-4.25,-1.95L-4.9,-1.35L-5.7,-4.2M-3.15,-4.1L-3.1,-4.25L-2.3,-2.35L-2.25,-2.15L-0.75,-2.05L-1.25,0.3L-1.05,1L-1.05,1.3L-0.65,3.55L0.35,5.1L-0.5,4.75L-0.9,4.7L-1,4.85L-1.05,4.85L-1.05,4.9L-1.2,5.1C-1.4,5.4 -1.333,5.6 -1,5.7L0.6,6.3C1.167,6.567 1.817,7.417 2.55,8.85C3.183,10.283 3.217,11.233 2.65,11.7L1.8,12.5L1.85,12.35L0.9,12.45L0.45,12.8L-0.05,12.45C-0.283,12.283 -0.467,12.233 -0.6,12.3C0.033,10.267 -1.017,8.217 -3.75,6.15C-3.783,5.217 -3.633,4.367 -3.3,3.6L-3.6,0.95L-2.35,-2.25L-3.3,-1.65L-3.15,-4.1M1.75,12.7C1.317,13.867 1.217,15.033 1.45,16.2C1.717,17.233 1.033,17.883 -0.6,18.15L-1.35,18.2L-2.2,19.05L-2.5,19.3L-3.25,19.6L-4.5,19.4L-5.3,19.1L-5.45,19.1C-4.017,18.867 -2.833,18.233 -1.9,17.2C-1.4,16.533 -1.317,15.55 -1.65,14.25L-0.55,13.85L0.1,13.8L0.6,14.1C0.933,14.233 1.317,13.767 1.75,12.7M-6,19.15L-6.9,19.35C-8.167,19.383 -8.633,18.783 -8.3,17.55L-7.7,16.85L-7.75,17.55L-7.5,17.75C-7.7,18.65 -7.2,19.117 -6,19.15M-6.4,17.65L-6.2,16.7C-5.967,15.4 -5.917,14.667 -6.05,14.5L-6.45,13.75L-6.65,11.25L-6.65,11.15C-6.517,10.617 -6.283,10.217 -5.95,9.95L-5.2,9.3C-4.433,8.2 -4.517,7.5 -5.45,7.2L-6,7L-4.55,6.9C-3.683,7.267 -3.617,7.967 -4.35,9L-5.05,9.65C-5.617,10.15 -5.9,10.717 -5.9,11.35L-5.95,11.25C-6.183,11.117 -6.417,11.117 -6.65,11.25L-6.45,12.4C-6.317,12.833 -6.067,13.033 -5.7,13L-5.55,13.55L-5.2,14.25C-5.033,14.383 -5.067,15.117 -5.3,16.45C-5.5,17.517 -5.867,17.917 -6.4,17.65M-6.25,7C-6.65,7.033 -6.933,7.283 -7.1,7.75C-7.233,4.75 -7.067,3.05 -6.6,2.65L-6.75,2.5L-6.55,2.35L-5.7,2.4C-6.133,2.767 -6.317,4.3 -6.25,7M-1.45,3.95L-1.4,3.9L-1.45,3.9L-1.45,3.95" style="fill:#113544;"/>
                    <path d="M-3.2,12.1C-2.867,11.833 -2.633,11.867 -2.5,12.2C-2.1,13.133 -1.483,13.2 -0.65,12.4L-0.55,13.85L-1.65,14.25L-2.45,13.75C-2.717,13.317 -3,13.25 -3.3,13.55L-3.2,12.1" style="fill:#4fabd2;"/>
                    <path d="M-5,11.55C-4.667,11.483 -4.45,11.55 -4.35,11.75C-4.217,12.483 -3.833,12.6 -3.2,12.1L-3.3,13.55C-3.8,13.883 -4.233,13.767 -4.6,13.2C-4.933,12.9 -5.183,12.817 -5.35,12.95L-5,11.55" style="fill:#99cfe6;"/>
                    <path d="M1.8,12.5L1.75,12.65L1.75,12.7C1.317,13.767 0.933,14.233 0.6,14.1L0.1,13.8L-0.55,13.85L-0.65,12.4L-0.6,12.3C-0.467,12.233 -0.283,12.283 -0.05,12.45L0.45,12.8L0.9,12.45L1.85,12.35L1.8,12.5M-6.65,11.25C-6.417,11.117 -6.183,11.117 -5.95,11.25L-5.9,11.35C-5.8,11.65 -5.5,11.717 -5,11.55L-5.35,12.95L-5.7,13C-6.067,13.033 -6.317,12.833 -6.45,12.4L-6.65,11.25" style="fill:#257596;"/>
                    <path d="M-9.3,-0.8C-8.4,-1 -7.817,-0.783 -7.55,-0.15M-9.3,-0.8L-9.45,-0.8C-8.383,-1.967 -7.25,-2.317 -6.05,-1.85L-5.85,-4.45L-5.7,-4.2L-4.25,-1.95M-4.15,-1.8L-3.15,-4.1L-3.1,-4.25L-2.3,-2.35M-2.25,-2.15L-0.75,-2.05L-1.25,0.3M-1.05,1L-1.05,1.3L-0.65,3.55L0.35,5.1L-0.5,4.75L-0.9,4.7M-1,4.85L-1.05,4.85M-1.05,4.9L-1.2,5.1C-1.4,5.4 -1.333,5.6 -1,5.7L0.6,6.3C1.167,6.567 1.817,7.417 2.55,8.85C3.183,10.283 3.217,11.233 2.65,11.7L1.8,12.5L1.75,12.65L1.75,12.7C1.317,13.867 1.217,15.033 1.45,16.2C1.717,17.233 1.033,17.883 -0.6,18.15L-1.35,18.2M1.85,12.35L1.8,12.5" style="fill:none;fill-rule:nonzero;stroke:#000;stroke-opacity:0.33;stroke-width:0.05px;"/>
                    <path d="M1.05,-0.8L1.2,0.15L0.9,1.1C0.7,1.367 0.467,1.483 0.2,1.45L0,1.45L-0.45,1L-0.6,0L-0.3,-0.9L0.2,-1.2L0.4,-1.2L1.05,-0.8" style="fill:#873601;"/>
                    <path d="M0.3,-2L0.15,-2.05L-0.15,-1.85L-0.8,-1.9L-3.3,-1.55L-3.5,-1.3L-3.25,-1.9L-0.75,-2.25L0.45,-2.05L0.3,-2" style="fill:#f90;"/>
                    <path d="M-2.6,1.2L-3.2,1.1C-3.6,0.8 -3.6,0.45 -3.2,0.05C-2.133,-0.017 -1.817,-0.283 -2.25,-0.75L-3.1,-0.85L-3.5,-1.3L-3.3,-1.55L-0.8,-1.9L-0.15,-1.85L-0.65,-1.55L-1.1,-0.05L-1.1,0.1L-1,0.95L-1.05,0.95L-2.6,1.2" style="fill:#fc0;"/>
                    <path d="M-0.15,-1.85L0.15,-2.05L0.3,-2L0.45,-2.05C0.883,-2.017 1.2,-1.8 1.4,-1.4C1.7,-0.967 1.817,-0.45 1.75,0.15C1.717,0.75 1.533,1.233 1.2,1.6C0.933,2 0.583,2.183 0.15,2.15L-0.05,2.15L-1.85,2.3C-2.75,2.267 -3.167,2.083 -3.1,1.75C-2.7,1.583 -2.533,1.4 -2.6,1.2L-1.05,0.95L-1,0.95L-1.1,0.1L-1.1,-0.05L-0.65,-1.55L-0.15,-1.85C0.517,-1.85 0.667,-1.783 0.3,-1.65C0.667,-1.783 0.517,-1.85 -0.15,-1.85M1.05,-0.8L0.4,-1.2L0.2,-1.2L-0.3,-0.9L-0.6,0L-0.45,1L0,1.45L0.2,1.45C0.467,1.483 0.7,1.367 0.9,1.1L1.2,0.15L1.05,-0.8" style="fill:#e0a00e;"/>
                    <path d="M-0.15,-1.85C0.517,-1.85 0.667,-1.783 0.3,-1.65M0.45,-2.05L0.3,-2M-2.6,1.2L-3.2,1.1C-3.6,0.8 -3.6,0.45 -3.2,0.05C-2.133,-0.017 -1.817,-0.283 -2.25,-0.75L-3.1,-0.85M-3.5,-1.3L-3.25,-1.9L-0.75,-2.25L0.45,-2.05" style="fill:none;fill-rule:nonzero;stroke:#000;stroke-opacity:0.33;stroke-width:0.05px;"/>
                </g>
                <g id="sprite2" transform="matrix(1,0,0,1,6.85,-34.45)">
                    <g id="shape2">
                        <path d="M2.9,-0.1L3.35,0L4.9,2.5L4.95,2.65L4.4,5.3L1.95,6.55L1.9,6.65L1.35,7.45L1.85,6.65L1.9,6.55L4.35,5.3L4.9,2.65L4.85,2.5L3.3,0L2.9,-0.1" style="fill:#52cfc2;"/>
                        <path d="M1.75,-0.35L2.75,-0.1L2.9,-0.1L3.3,0L4.85,2.5L4.9,2.65L4.35,5.3L1.9,6.55L2.05,6.25L3.85,5.3L4.4,2.65L4.35,2.5L2.8,0L-1,-0.8L-0.9,-0.9L1.75,-0.35" style="fill:#b6ebe4;"/>
                        <path d="M-0.4,7.6L-2.3,6.65L-2.15,4.5L-2.15,4.45L-3.05,3.9L-3.35,2.3L-3.35,2.25L-3.5,1.2L-1,-0.8L2.8,0L4.35,2.5L4.4,2.65L3.85,5.3L2.05,6.25L1.4,6.55L1.35,6.65L0.8,7.45L-0.4,7.6M3.55,4.95L2.05,6.2L2.05,6.25L2.05,6.2L3.55,4.95M-1,6.15L-1.5,4.95L-2.15,4.5L-1.5,4.95L-1,6.15" style="fill:#73d9c4;"/>
                        <path d="M-2.15,4.5L-2.2,4.45L-2.35,6.65L-0.4,7.65L1.3,7.45L1.35,7.45L1.85,6.65L2.05,6.25L2.05,6.2L3.55,4.95M2.9,-0.1L3.3,0L4.85,2.5L4.9,2.65L4.35,5.3L1.9,6.55M-0.9,-0.9L-0.95,-0.9L-2.25,0.2L-3.5,1.2L-3.55,1.2L-3.1,3.9L-2.2,4.45M-2.15,4.5L-1.5,4.95L-1,6.15M-0.9,-0.9L1.75,-0.35" style="fill:none;fill-rule:nonzero;stroke:#000;stroke-opacity:0.45;stroke-width:0.05px;"/>
                        <path d="M1.75,-0.35L2.75,-0.1L2.9,-0.1" style="fill:none;fill-rule:nonzero;stroke:#000;stroke-opacity:0.45;stroke-width:0.05px;stroke-linecap:round;"/>
                    </g>
                </g>
                <g id="sprite3" transform="matrix(1,0,0,1,3.7,-40.7)">
                    <g id="sprite4">
                        <g id="shape3">
                            <path d="M3.8,5.8L4.4,6.6M0.75,5.75L0.75,6.6" style="fill:none;fill-rule:nonzero;stroke:#000;stroke-opacity:0.3;stroke-width:0.05px;"/>
                            <path d="M2.6,6.2L3.8,5.8L2.6,6.2Z" style="fill:none;fill-rule:nonzero;stroke:#3ca89e;stroke-width:0.05px;"/>
                            <path d="M0.6,-0.4L0.95,-0.4C1.817,1.9 2.767,3.917 3.8,5.65C3.467,6.417 3.033,6.533 2.5,6C1.533,4 0.9,1.867 0.6,-0.4" style="fill:#b6ebe4;"/>
                            <path d="M0.6,-0.4C0.9,1.867 1.533,4 2.5,6C3.033,6.533 3.467,6.417 3.8,5.65L4.3,6.5L3.3,7.55L2.6,7.55C1.767,7.65 1.15,7.433 0.75,6.9C0.383,4.7 -0.2,2.567 -1,0.5L-0.45,-0.4L0.6,-0.4" style="fill:#73d9c4;"/>
                            <path d="M3.8,5.65C2.767,3.917 1.817,1.9 0.95,-0.4L-0.45,-0.4L-1,0.5C-0.2,2.567 0.383,4.7 0.75,6.9M3.8,5.65L4.3,6.5" style="fill:none;fill-rule:nonzero;stroke:#000;stroke-opacity:0.3;stroke-width:0.05px;"/>
                            <path d="M2.5,6C3.033,6.533 3.467,6.417 3.8,5.65L2.5,6Z" style="fill:none;fill-rule:nonzero;stroke:#3ca89e;stroke-width:0.05px;"/>
                        </g>
                    </g>
                    <g id="shape4">
                        <path d="M1.25,1.45L1.3,1.55L1.6,2.3L1.95,3.1L2.15,3.7L2.75,5.15L3.35,6.4C3.417,6.767 3.367,6.85 3.2,6.65L3.05,6.25L2,6.7C1.633,6.267 1.517,5.833 1.65,5.4C2.017,5.3 2.267,5.1 2.4,4.8L1.25,1.9L1.15,1.6L1.25,1.45" style="fill:#fbc904;"/>
                        <path d="M1.65,5.4C1.517,5.833 1.633,6.267 2,6.7L0.75,6.7L0.4,5.4L1.65,5.4" style="fill:#e0a00e;"/>
                        <path d="M1.3,1.55L2.15,1.9L2.4,1.9L2.95,2.25L3,2.35L3.6,2.85L3.6,2.9L3.95,3.45L4,3.65L4.05,4.6L3.9,5.25L3.9,5.4L3.35,6.4L2.95,5.5L2.75,5.15L2.55,4.35L2.3,3.85L2.15,3.7L1.95,3.1L1.6,2.3L1.3,1.55M2.15,1.9L1.6,2.3L2.15,1.9M1.95,3.1L3,2.35L1.95,3.1M2.3,3.85L3.6,2.9L2.3,3.85M4,3.65L2.55,4.35L4,3.65M2.75,5.15L4.05,4.6L2.75,5.15M3.9,5.25L2.95,5.5L3.9,5.25" style="fill:#bff0f5;fill-opacity:0.7;"/>
                        <path d="M3.35,6.4L3.9,5.4L3.9,5.25L4.05,4.6L4,3.65L3.95,3.45L3.6,2.9L3.6,2.85L3,2.35L2.95,2.25L2.4,1.9L2.15,1.9L1.3,1.55L1.25,1.45L1.45,1.3L1.45,1.35C2.283,1.417 3.117,1.833 3.95,2.6C4.717,3.433 4.517,4.7 3.35,6.4" style="fill:#fff;fill-opacity:0.72;"/>
                        <path d="M1.6,2.3L2.15,1.9M2.95,5.5L3.9,5.25M4.05,4.6L2.75,5.15M2.55,4.35L4,3.65M3.6,2.9L2.3,3.85M3,2.35L1.95,3.1" style="fill:none;fill-rule:nonzero;stroke:#d1f1eb;stroke-opacity:0.45;stroke-width:0.05px;"/>
                        <path d="M1.25,1.45L1.15,1.6L1.25,1.9L2.4,4.8C2.267,5.1 2.017,5.3 1.65,5.4L0.4,5.4L0.75,6.7L2,6.7L3.05,6.25L3.2,6.65C3.367,6.85 3.417,6.767 3.35,6.4" style="fill:none;fill-rule:nonzero;stroke:#000;stroke-opacity:0.3;stroke-width:0.05px;"/>
                    </g>
                </g>
                <g id="sprite5" transform="matrix(1,0,0,1,1.8,-46.1)">
                    <g id="sprite6">
                        <g id="shape5">
                            <path d="M-1.3,-0.2L0.8,-0.3C1.433,-0.333 1.9,0.183 2.2,1.25L2.55,2.55C2.717,4.15 3.083,5.517 3.65,6.65L3.65,6.7L2.85,7.1C1.65,3.367 0.8,1.5 0.3,1.5C-0.233,1.5 -0.583,1.983 -0.75,2.95L-0.3,3.8L-2,3L-1.3,-0.2" style="fill:#b6ebe4;"/>
                            <path d="M2.85,7.1L1.3,7.25L0.65,5.95L0.25,5L-0.3,3.8L-0.75,2.95C-0.583,1.983 -0.233,1.5 0.3,1.5C0.8,1.5 1.65,3.367 2.85,7.1" style="fill:#73d9c4;"/>
                            <path d="M-1.3,-0.2L0.8,-0.3C1.433,-0.333 1.9,0.183 2.2,1.25L2.55,2.55C2.717,4.15 3.083,5.517 3.65,6.65L3.65,6.7M1.3,7.25L0.65,5.95L0.25,5L-0.3,3.8L-2,3M-0.75,2.95L-0.3,3.8" style="fill:none;fill-rule:nonzero;stroke:#000;stroke-opacity:0.45;stroke-width:0.05px;"/>
                        </g>
                    </g>
                    <g id="shape6">
                        <path d="M1.45,0.2L1.55,0.5L1.55,0.65L1.8,1.4L2.15,2.55L2.5,3.65L2.75,4.7L2.95,5.95L3.25,7.15L3,7.25L2.65,5.4L2.2,5.7L1.45,3.95L2.15,3.5L1.65,1.75L1.55,1.85L1.45,2.05L1.2,2.1L0.9,1.95L0.55,1.45L0.55,0.65L0.95,0.25L1.4,0.2L1.45,0.2M1.3,0.55L1.15,0.8L1.05,1.05L1.05,1.9L1.15,1.75L1.2,1.65L1.2,1.6L1.15,1.5L1.2,1.35L1.2,1.3L1.3,1.15L1.45,1.15L1.5,1.2L1.5,1.15L1.4,0.7L1.3,0.55" style="fill:#fbc904;"/>
                        <path d="M1.45,3.95L2.2,5.7L0.8,6.05C0.567,5.883 0.3,5.317 0,4.35L1.45,3.95" style="fill:#e0a00e;"/>
                        <path d="M3.25,7.15L3.3,6.7L4.35,5.3L4.5,4.1L4.3,3.1L3.95,2.7L3.6,2.25L3.3,1.75L2.95,1.6C2.55,1.1 2.083,0.783 1.55,0.65L1.55,0.5L1.45,0.2L1.4,0.1C2.533,0.367 3.6,1.183 4.6,2.55C5.5,3.75 5.167,5.217 3.6,6.95L3.25,7.15" style="fill:#fff;fill-opacity:0.72;"/>
                        <path d="M1.55,0.65C2.083,0.783 2.55,1.1 2.95,1.6L3.3,1.75L3.6,2.25L3.95,2.7L4.3,3.1L4.5,4.1L4.35,5.3L3.3,6.7L3.25,7.15L2.95,5.95L2.75,4.7L2.5,3.65L2.15,2.55L1.8,1.4L1.55,0.65M2.95,1.6L1.8,1.4L2.95,1.6M2.15,2.55L3.6,2.25L2.15,2.55M2.5,3.65L4.3,3.1L2.5,3.65M2.75,4.7L4.5,4.1L2.75,4.7M2.95,5.95L4.35,5.3L2.95,5.95" style="fill:#9cd5da;fill-opacity:0.7;"/>
                        <path d="M1.8,1.4L2.95,1.6M4.35,5.3L2.95,5.95M4.5,4.1L2.75,4.7M4.3,3.1L2.5,3.65M3.6,2.25L2.15,2.55" style="fill:none;fill-rule:nonzero;stroke:#d1f1eb;stroke-opacity:0.45;stroke-width:0.05px;"/>
                        <path d="M1.45,3.95L0,4.35C0.3,5.317 0.567,5.883 0.8,6.05L2.2,5.7" style="fill:none;fill-rule:nonzero;stroke:#000;stroke-opacity:0.33;stroke-width:0.05px;"/>
                        <path d="M1.45,0.2L1.55,0.5L1.55,0.65L1.8,1.4L2.15,2.55L2.5,3.65L2.75,4.7L2.95,5.95L3.25,7.15L3,7.25L2.65,5.4L2.2,5.7M1.45,0.2L1.4,0.2L0.95,0.25L0.55,0.65L0.55,1.45L0.9,1.95L1.2,2.1L1.45,2.05L1.55,1.85L1.65,1.75L2.15,3.5L1.45,3.95M1.3,0.55L1.15,0.8L1.05,1.05L1.05,1.9L1.15,1.75L1.2,1.65L1.2,1.6L1.15,1.5L1.2,1.35L1.2,1.3L1.3,1.15L1.45,1.15L1.5,1.2L1.5,1.15L1.4,0.7L1.3,0.55" style="fill:none;fill-rule:nonzero;stroke:#000;stroke-opacity:0.3;stroke-width:0.05px;"/>
                    </g>
                </g>
                <g id="shape7" transform="matrix(1,0,0,1,-6.5,-11.9)">
                    <path d="M5.55,0.75L5.7,1L5.7,1.15L5.65,1L5.55,0.75M5.7,1.25L5.8,1.25L5.8,1.65L5.7,1.45L5.7,1.25" style="fill:#9be3db;"/>
                    <path d="M5.4,0.35L5.55,0.65L5.55,0.75L5.65,1L5.7,1.15L5.7,1.25L5.4,1.15L5.7,1.25L5.7,1.45L5.8,1.65L5.8,1.7L5.85,1.85L5.8,1.85L5.4,1.65L4.95,1.5L5.4,1.6L5.4,0.35M5.4,1.65L5.4,1.6L5.8,1.65L5.4,1.6L5.4,1.65M5.8,1.7L5.8,1.85L5.8,1.7" style="fill:#264559;"/>
                    <path d="M5.85,-2.95L5.85,-3.1L7.25,-0.8L5.85,-2.95M5.8,1.65L5.8,1.45L7.5,2.1L5.8,1.65" style="fill:#30ada0;"/>
                    <path d="M3.4,-5.7L4.25,-6.65L4.25,-6.7C4.783,-5.9 5.133,-4.883 5.3,-3.65L5.3,-3.45L5.4,-2.35L5.4,0.2L5.2,-0.2L5.05,-0.4L4.9,-0.55L4.35,-1.15L3.4,-5.7L4.35,-1.15L4.3,-1.2L3.4,-1.65L2.25,-4.7L3.4,-5.7M4.25,-6.65L4.9,-0.55L4.25,-6.65M1,-3.95L2.25,-4.7L3.4,-1.65L2.15,-1.8L1.45,-1.8L0.95,-1.7L-0.1,-3.45L0.95,-1.7L0,-0.95L-0.4,0.35L-0.4,0.85L-0.45,1L-0.4,1L-0.4,1.2L-0.1,2.1L-0.25,2L-1.15,1.15L-2.5,-0.05L-5.5,-2.45L-4.85,-2.45L-3,-2.65L-1.4,-2.95L-0.1,-3.45L1,-3.95L2.15,-1.8L1,-3.95M-0.45,1L-4.85,-2.45L-0.45,1M-0.4,0.35L-3,-2.65L-0.4,0.35M0,-0.95L-1.4,-2.95L0,-0.95" style="fill:#89d8e0;fill-opacity:0.8;"/>
                    <path d="M5.4,0.2L5.4,-2.35L5.3,-3.45L5.3,-3.65C5.133,-4.883 4.783,-5.9 4.25,-6.7L4.25,-6.65L3.4,-5.7L3.3,-6.1L3.4,-5.7L2.25,-4.7L1,-3.95L-0.1,-3.45L-0.4,-4.05L0.75,-4.5C1.183,-4.667 1.617,-4.883 2.05,-5.15L2.25,-4.7L2.05,-5.15L3.3,-6.1L4.7,-7.55C5.367,-6.517 5.75,-5.067 5.85,-3.2L5.85,0.8L5.8,1.25L5.7,1.25L5.7,1L5.55,0.75L5.55,0.65L5.4,0.35L5.4,0.2M1,-3.95L0.75,-4.5L1,-3.95M-7.25,-3.45L-5.95,-3.35L-3.6,-3.45L-1.8,-3.65L-0.4,-4.05L-0.1,-3.45L-1.4,-2.95L-3,-2.65L-4.85,-2.45L-5.5,-2.45C-6.2,-2.95 -6.783,-3.283 -7.25,-3.45M-5.95,-3.35L-4.85,-2.45L-5.95,-3.35M-1.4,-2.95L-1.8,-3.65L-1.4,-2.95M-3.6,-3.45L-3,-2.65L-3.6,-3.45" style="fill:#bde2de;fill-opacity:0.8;"/>
                    <path d="M5.8,1.45L5.8,1.25L5.85,1.25L7.8,1.85C8.5,2.017 8.6,1.633 8.1,0.7L7.25,-0.8L8.5,1.2C9,2.133 8.9,2.517 8.2,2.35L7.5,2.1L5.8,1.45M-8.45,-2.8L-7.95,-2.95C-8.583,-1.883 -8.383,1.2 -7.35,6.3C-6.917,6.633 -6.367,6.433 -5.7,5.7C-4.7,3.633 -3.317,2.167 -1.55,1.3L-1.15,1.65L-0.65,2.1C-2.783,2.9 -4.4,4.467 -5.5,6.8C-6.4,7.8 -7.1,7.8 -7.6,6.8L-7.75,5.75C-8.85,0.95 -9.083,-1.9 -8.45,-2.8" style="fill:#cae7e4;fill-opacity:0.7;"/>
                    <path d="M-0.25,2L-0.65,2.1L-1.15,1.65L-1.55,1.3L-1.15,1.15L-0.25,2" style="fill:#c0ddda;fill-opacity:0.7;"/>
                    <path d="M-8.45,-2.8C-8.217,-3.367 -7.9,-3.583 -7.5,-3.45L-7.25,-3.45C-6.783,-3.283 -6.2,-2.95 -5.5,-2.45L-2.5,-0.05L-2.55,0.45L-2.5,-0.05L-1.15,1.15L-1.55,1.3L-2.55,0.45L-3.6,-0.55L-4.95,-1.6L-5.5,-1.95L-6.2,-2.35L-7.3,-2.8L-7.95,-2.95L-8.45,-2.8" style="fill:#96d5dc;fill-opacity:0.89;"/>
                    <path d="M5.8,1.25L5.85,0.8L5.85,-2.95L7.25,-0.8L8.1,0.7C8.6,1.633 8.5,2.017 7.8,1.85L5.85,1.25L5.8,1.25M6.3,0.95L5.85,0.05L6.3,0.95M7.1,0.7L5.85,-1.8L7.1,0.7M-7.95,-2.95L-7.3,-2.8L-6.2,-2.35L-5.5,-1.95L-4.95,-1.6L-3.6,-0.55L-2.55,0.45L-2.4,1.35L-2.55,0.45L-1.55,1.3C-3.317,2.167 -4.7,3.633 -5.7,5.7C-6.367,6.433 -6.917,6.633 -7.35,6.3C-8.383,1.2 -8.583,-1.883 -7.95,-2.95M-6.85,4.7C-7.55,2.233 -7.7,-0.267 -7.3,-2.8C-7.7,-0.267 -7.55,2.233 -6.85,4.7M-3.45,1.85C-3.817,1.25 -3.867,0.45 -3.6,-0.55C-3.867,0.45 -3.817,1.25 -3.45,1.85M-5.8,3.65C-6.433,1.75 -6.567,-0.25 -6.2,-2.35C-6.567,-0.25 -6.433,1.75 -5.8,3.65M-4.6,2.7C-5.333,1.567 -5.45,0.133 -4.95,-1.6C-5.45,0.133 -5.333,1.567 -4.6,2.7" style="fill:#96d5dc;fill-opacity:0.77;"/>
                    <path d="M0.75,3.05L0.65,2.75L0.6,2.65L0.6,2.4L0.5,2.25L0.45,1.9L0.45,1.2C0.483,-0.3 1.05,-1.117 2.15,-1.25C3.15,-1.35 3.983,-1.15 4.65,-0.65L4.7,-0.65L4.9,-0.4L5.4,0.35L5.4,1.6L4.95,1.5L3.9,1.35L3.3,1.45L3.15,1.5C2.55,1.667 2.183,2.183 2.05,3.05L2,3.9C1.433,3.733 1.017,3.45 0.75,3.05" style="fill:#023d4a;"/>
                    <path d="M5.4,0.2L5.4,0.35L4.9,-0.4L4.7,-0.65L4.65,-0.65C3.983,-1.15 3.15,-1.35 2.15,-1.25C1.05,-1.117 0.483,-0.3 0.45,1.2L0.45,1.9L0.5,2.25L0.6,2.4L0.6,2.65L0.65,2.75L0.75,3.05L0.15,2.4L-0.1,2.1L-0.4,1.2L-0.4,1L-0.45,1L-0.4,0.85L-0.4,0.35L0,-0.95L0.95,-1.7L1.45,-1.8L2.15,-1.8L3.4,-1.65L4.3,-1.2L4.35,-1.15L4.9,-0.55L5.05,-0.4L5.2,-0.2L5.4,0.2" style="fill:#014e6d;"/>
                    <path d="M5.4,0.35L5.55,0.65L5.55,0.75L5.7,1L5.7,1.25L5.8,1.25L5.85,0.8L5.85,-3.2C5.75,-5.067 5.367,-6.517 4.7,-7.55L3.3,-6.1L2.05,-5.15C1.617,-4.883 1.183,-4.667 0.75,-4.5L-0.4,-4.05L-1.8,-3.65L-3.6,-3.45L-5.95,-3.35L-7.25,-3.45C-6.783,-3.283 -6.2,-2.95 -5.5,-2.45L-2.5,-0.05L-1.15,1.15L-0.25,2L-0.1,2.1L0.15,2.4L0.75,3.05L0.65,2.75L0.6,2.65L0.6,2.4L0.5,2.25L0.45,1.9L0.45,1.2C0.483,-0.3 1.05,-1.117 2.15,-1.25C3.15,-1.35 3.983,-1.15 4.65,-0.65L4.7,-0.65L4.9,-0.4L5.4,0.35L5.4,1.15L5.7,1.25M5.7,1.3L5.7,1.45L5.8,1.65L5.8,1.25L5.85,1.25M8.1,0.7L7.25,-0.8L5.85,-2.95M5.85,-3.1L7.25,-0.8L8.5,1.2C9,2.133 8.9,2.517 8.2,2.35L7.5,2.1L5.8,1.45M5.8,1.65L5.8,1.7L5.85,1.85L5.8,1.85L5.4,1.65L4.95,1.5L3.9,1.35L3.3,1.45L3.15,1.5C2.55,1.667 2.183,2.183 2.05,3.05L2,3.9C1.433,3.733 1.017,3.45 0.75,3.05M4.95,1.5L5.4,1.6L5.4,1.15M5.8,1.85L5.8,1.7M5.8,1.65L5.4,1.6L5.4,1.65M-8.45,-2.8C-8.217,-3.367 -7.9,-3.583 -7.5,-3.45L-7.25,-3.45M-0.65,2.1C-2.783,2.9 -4.4,4.467 -5.5,6.8C-6.4,7.8 -7.1,7.8 -7.6,6.8L-7.75,5.75C-8.85,0.95 -9.083,-1.9 -8.45,-2.8" style="fill:none;fill-rule:nonzero;stroke:#000;stroke-opacity:0.33;stroke-width:0.05px;"/>
                    <path d="M-0.45,1L-0.4,1" style="fill:none;fill-rule:nonzero;stroke:#afe9e2;stroke-width:0.05px;"/>
                    <path d="M-2.55,0.45L-2.4,1.35" style="fill:none;fill-rule:nonzero;stroke:#82dbd1;stroke-width:0.05px;"/>
                    <path d="M3.3,-6.1L3.4,-5.7L4.35,-1.15M4.9,-0.55L4.25,-6.65M2.25,-4.7L2.05,-5.15M0.75,-4.5L1,-3.95L2.15,-1.8M-0.1,-3.45L0.95,-1.7M3.4,-1.65L2.25,-4.7M5.85,0.05L6.3,0.95M5.85,-1.8L7.1,0.7M-4.85,-2.45L-5.95,-3.35M-2.55,0.45L-2.5,-0.05M-0.1,-3.45L-0.4,-4.05M-4.85,-2.45L-0.45,1M-3,-2.65L-0.4,0.35M-1.8,-3.65L-1.4,-2.95L0,-0.95M-3,-2.65L-3.6,-3.45M-4.95,-1.6C-5.45,0.133 -5.333,1.567 -4.6,2.7M-6.2,-2.35C-6.567,-0.25 -6.433,1.75 -5.8,3.65M-3.6,-0.55C-3.867,0.45 -3.817,1.25 -3.45,1.85M-7.3,-2.8C-7.7,-0.267 -7.55,2.233 -6.85,4.7" style="fill:none;fill-rule:nonzero;stroke:#fff;stroke-opacity:0.33;stroke-width:0.05px;"/>
                </g>
                <g id="shape8" transform="matrix(1,0,0,1,2.2,-33.6)">
                    <path d="M-6.35,4.15L-6.95,5.75L-9.55,7.3L-6.95,5.75L-7.35,6.9L-7.65,8.05L-7.95,9.3L-8.15,10.3L-8.35,11.6L-8.5,12.5L-8.5,12.8L-8.55,13.35L-8.55,13.5C-9.95,13.033 -10.8,12.367 -11.1,11.5L-11.25,10.75L-11.2,10.15L-11,9.5L-10.6,8.75L-10.05,8.6L-10.6,8.75L-10.25,8.1L-9.6,7.3L-9.55,7.3C-8.783,6.333 -7.717,5.283 -6.35,4.15M-8.5,14L-8.35,14.5L-8.15,15.2L-7.9,15.9L-7.65,16.55L-7.35,17.2L-7.05,17.8L-8.35,17.6L-8.85,17.1L-9.1,16.55L-9.1,16.15L-9.05,15.85L-9,15.4L-8.95,15.2L-8.35,14.5L-8.95,15.2L-8.5,14M-7,18L-6.7,18.55L-6.15,19.65L-5.75,20.25L-5.65,20.3L-5.35,20.85L-5,21.4L-4.75,21.7L-5.8,21.85L-6.55,21.7L-7.25,21.2L-7.45,20.65L-7.5,19.85L-7.4,19.2L-7,18M-4.6,21.95L-4.4,22.3L-4.05,22.7L-3.8,23.05L-3.75,23.15L-3.55,23.6L-3.3,24L-3.1,24.35L-2.95,24.6L-3.75,24.8L-4.2,24.7L-4.55,24.25L-4.65,24L-4.7,23.85L-4.75,23.25L-4.05,22.7L-4.75,23.25L-4.8,22.7L-4.6,21.95M-10.05,8.6L-8.35,8.2L-7.65,8.05L-8.35,8.2L-10.05,8.6M-7.95,9.3L-11,9.5L-7.95,9.3M-8.15,15.2L-9.05,15.85L-8.15,15.2M-7.9,15.9L-9.1,16.55L-7.9,15.9M-7.65,16.55L-8.85,17.1L-7.65,16.55M-7.35,17.2L-8.35,17.6L-7.35,17.2M-6.45,19.05L-7.5,19.85L-6.45,19.05M-6.15,19.65L-7.45,20.65L-6.15,19.65M-5.75,20.25L-7.25,21.2L-5.75,20.25M-5,21.4L-5.8,21.85L-5,21.4M-5.35,20.85L-6.55,21.7L-5.35,20.85M-4.4,22.3L-4.8,22.7L-4.4,22.3M-3.3,24L-4.2,24.7L-3.3,24M-3.55,23.6L-4.55,24.25L-3.55,23.6M-3.75,23.15L-4.7,23.85L-3.75,23.15M-11.25,10.75L-8.35,11.6L-11.25,10.75M-11.1,11.5L-8.5,12.8L-11.1,11.5M-10.25,8.1L-7.35,6.9L-10.25,8.1M-11.2,10.15L-8.15,10.3L-11.2,10.15M-6.7,18.55L-7.4,19.2L-6.7,18.55M-3.1,24.35L-3.75,24.8L-3.1,24.35" style="fill:#89d8e0;fill-opacity:0.7;"/>
                    <path d="M-6.35,4.15C-7.717,5.283 -8.783,6.333 -9.55,7.3L-9.6,7.3L-10.25,8.1L-10.6,8.75L-11,9.5L-11.2,10.15L-11.25,10.75L-11.1,11.5C-10.8,12.367 -9.95,13.033 -8.55,13.5L-8.5,13.7L-8.55,13.7L-8.5,14L-8.95,15.2L-9,15.4L-9.05,15.85L-9.1,16.15L-9.1,16.55L-8.85,17.1L-8.35,17.6L-7.05,17.8L-7.05,17.9L-7,18L-7.4,19.2L-7.5,19.85L-7.45,20.65L-7.25,21.2L-6.55,21.7L-5.8,21.85L-4.75,21.7L-4.6,21.95L-4.8,22.7L-4.75,23.25L-4.7,23.85L-4.65,24L-4.55,24.25L-4.2,24.7L-3.75,24.8L-2.95,24.6L-2.95,24.65C-4.083,25.283 -4.783,25.15 -5.05,24.25C-5.317,23.35 -5.267,22.55 -4.9,21.85C-6.733,22.283 -7.717,21.95 -7.85,20.85C-7.95,19.783 -7.767,18.85 -7.3,18.05C-8.833,18.05 -9.567,17.5 -9.5,16.4C-9.433,15.267 -9.117,14.367 -8.55,13.7L-8.65,13.7C-13.717,12.9 -12.883,9.583 -6.15,3.75L-6.35,4.15" style="fill:#fff;fill-opacity:0.72;"/>
                    <path d="M-6.95,5.75L-6.35,4.15L-6.15,3.75" style="fill:none;fill-rule:nonzero;stroke:#000;stroke-opacity:0.45;stroke-width:0.05px;"/>
                    <path d="M-8.5,13.7L-8.65,13.7C-13.717,12.9 -12.883,9.583 -6.15,3.75M-9.6,7.3L-9.55,7.3" style="fill:none;fill-rule:nonzero;stroke:#9be3db;stroke-opacity:0.45;stroke-width:0.05px;"/>
                    <path d="M-9.55,7.3L-6.95,5.75M-11,9.5L-7.95,9.3M-9.05,15.85L-8.15,15.2M-8.95,15.2L-8.35,14.5M-9.1,16.55L-7.9,15.9M-8.85,17.1L-7.65,16.55M-8.35,17.6L-7.35,17.2M-7.5,19.85L-6.45,19.05M-7.45,20.65L-6.15,19.65M-7.25,21.2L-5.75,20.25M-5.8,21.85L-5,21.4M-6.55,21.7L-5.35,20.85M-4.8,22.7L-4.4,22.3M-4.2,24.7L-3.3,24M-4.55,24.25L-3.55,23.6M-4.7,23.85L-3.75,23.15M-4.75,23.25L-4.05,22.7M-7.4,19.2L-6.7,18.55M-8.15,10.3L-11.2,10.15M-7.35,6.9L-10.25,8.1M-8.5,12.8L-11.1,11.5M-8.35,11.6L-11.25,10.75M-3.75,24.8L-3.1,24.35" style="fill:none;fill-rule:nonzero;stroke:#d1f1eb;stroke-opacity:0.45;stroke-width:0.05px;"/>
                    <path d="M-10.05,8.6L-10.6,8.75" style="fill:none;fill-rule:nonzero;stroke:#eaf9f6;stroke-opacity:0.45;stroke-width:0.05px;"/>
                    <path d="M-6.95,5.75L-7.35,6.9L-7.65,8.05" style="fill:none;fill-rule:nonzero;stroke:#000;stroke-opacity:0.45;stroke-width:0.05px;"/>
                    <path d="M-7.65,8.05L-7.95,9.3L-8.15,10.3L-8.35,11.6L-8.5,12.5L-8.5,12.8L-8.55,13.35L-8.55,13.5L-8.5,13.7" style="fill:none;fill-rule:nonzero;stroke:#000;stroke-opacity:0.45;stroke-width:0.05px;stroke-linecap:round;"/>
                    <path d="M-7.65,8.05L-8.35,8.2L-10.05,8.6" style="fill:none;fill-rule:nonzero;stroke:#d1f1eb;stroke-opacity:0.45;stroke-width:0.05px;stroke-linecap:round;"/>
                    <path d="M3.75,0L3.8,0.05L3.75,0.05L3.75,0M4.4,0.5L4.45,0.55L4.45,0.6L4.4,0.5M-3.65,1.5L-3.65,1.6L-3.8,1.65L-3.65,1.5M-6,3.45L-5.95,3.45L-6,3.5L-6,3.45" style="fill:#366685;"/>
                    <path d="M3.55,-0.1L3.75,0L3.75,0.05L3.55,-0.1M-2.95,1.2L-3.65,1.6L-3.65,1.5L-2.95,1.2M-4.15,22.55L-4.2,22.5L-4.2,22.45L-4.15,22.55M-7.9,24.15L-7.85,24.15L-7.9,24.15L-7.95,24.1L-7.85,24.15L-7.4,24.95L-7.9,24.15" style="fill:#2f5873;"/>
                    <path d="M-2.75,25.05L-2.9,24.8L-2.75,24.95L-2.75,25.05M-3.95,22.85L-4.05,22.8L-4.1,22.7L-3.95,22.85" style="fill:#739cb7;"/>
                    <path d="M-7.4,24.95L-7.85,24.15L-4.25,29.7L-5.7,28.05L-5.75,27.95L-5.8,27.9L-7.4,24.95" style="fill:#35464a;"/>
                    <path d="M2.05,-0.25L2,-0.3L2.05,-0.4L2.7,-0.3L3,-0.3L3.3,-0.2L4.7,6.1L4.45,0.6C5.05,1.4 5.383,2.45 5.45,3.75L5.45,4.4L5.5,12.75L4.5,21.6L3.9,23.55L3.75,23.3L3.75,22.9L3.6,24.25L3.3,25.05L3.25,25.15L2.8,26.1L2.75,26.15L2.3,23.95C4.633,16.483 4.55,8.417 2.05,-0.25M-0.5,0.15C-0.033,2.117 0.317,4.4 0.55,7C0.85,10.533 0.8,14.017 0.4,17.45L-0.4,22.25L-0.25,22.55L0.75,24C2.283,25.933 2.033,27.75 0,29.45L-0.2,29.55L-0.8,29.8L-0.95,29.9L-2,30.1L-1.85,29.7C-0.283,27.6 0.1,26.133 -0.7,25.3L-0.6,25.25L-1.2,24.5L-1.2,24.45L-1.3,24.45L-1.55,24.15L-3.85,20.75C-5.25,18.683 -6,16.367 -6.1,13.8C-5.767,8.967 -4.95,4.9 -3.65,1.6L-2.95,1.2L-2.85,1.15L-2.55,1.05L-2.2,0.85C-3.7,5.783 -4.55,9.917 -4.75,13.25L-4.6,15.9L-4.65,15.3C-3.75,17.767 -2.617,19.917 -1.25,21.75C-0.283,15.45 -0.35,8.383 -1.45,0.55L-0.65,0.2L-0.55,0.15L-0.5,0.15M-8.55,12.65L-8.2,13.85C-7.133,16.983 -4.95,20.517 -1.65,24.45L-1.6,24.45C-1.1,25.283 -0.917,26 -1.05,26.6L-1.05,26.65L-1.85,29.7L-2.45,30.15L-3.95,29.85L-4.25,29.7L-7.85,24.15L-7.55,24.45L-5.4,26.55C-4.533,27.417 -3.867,27.7 -3.4,27.4C-4.467,25.667 -5.7,24.033 -7.1,22.5L-6.55,22.45C-5.15,23.917 -4,25.433 -3.1,27L-3.4,27.4L-3.1,27L-2.8,25.85L-2.75,25.05L-2.75,24.95L-3.95,22.85L-4.1,22.7L-4.1,22.65L-4.2,22.55L-5.15,21.2L-5.4,20.75L-5.55,20.55L-5.65,20.45C-7.15,18.05 -8.117,15.85 -8.55,13.85L-8.55,13.6L-8.6,13.5L-8.55,12.9L-8.55,12.65M-4.15,22.55L-4.15,22.6L-4.15,22.55L-4.2,22.45L-4.2,22.5L-4.15,22.55" style="fill:#025f86;"/>
                    <path d="M2.05,-0.25C4.55,8.417 4.633,16.483 2.3,23.95L1.25,20.55C0.883,19.65 0.6,18.617 0.4,17.45C0.8,14.017 0.85,10.533 0.55,7C0.883,4.8 1.383,2.383 2.05,-0.25M3.3,25.05L3.6,24.25L3.75,22.9L3.75,23.3L3.9,23.55L3.3,25.05M4.45,0.6L4.7,6.1L3.3,-0.2L3.5,-0.1L3.55,-0.1L3.75,0.05L3.8,0.05L4.3,0.45L4.4,0.5L4.45,0.6" style="fill:#014e6d;"/>
                    <path d="M2.05,-0.4L2,-0.3L2.05,-0.25C1.383,2.383 0.883,4.8 0.55,7C0.317,4.4 -0.033,2.117 -0.5,0.15L2,-0.4L2.05,-0.4M2.3,23.95L2.75,26.15C1.95,27.683 1.033,28.783 0,29.45C2.033,27.75 2.283,25.933 0.75,24L-0.25,22.55L-0.4,22.25L0.4,17.45C0.6,18.617 0.883,19.65 1.25,20.55L2.3,23.95M-2.2,0.85L-1.45,0.55C-0.35,8.383 -0.283,15.45 -1.25,21.75C-2.617,19.917 -3.75,17.767 -4.65,15.3L-4.6,15.9L-4.75,13.25C-4.55,9.917 -3.7,5.783 -2.2,0.85M-0.7,25.3C0.1,26.133 -0.283,27.6 -1.85,29.7L-1.05,26.65L-1.05,26.6L-0.7,25.3" style="fill:#01354b;"/>
                    <path d="M-6.55,22.45L-5.4,22.75C-4.2,23.85 -3.333,24.883 -2.8,25.85L-3.1,27C-4,25.433 -5.15,23.917 -6.55,22.45" style="fill:#011821;"/>
                    <path d="M3.3,-0.2L3,-0.3L3.25,-0.3L3.3,-0.2M-0.65,0.2L-0.5,0.1L-0.5,0.15L-0.55,0.15L-0.65,0.2" style="fill:#038ec9;"/>
                    <path d="M-3.65,1.6C-4.95,4.9 -5.767,8.967 -6.1,13.8C-6,16.367 -5.25,18.683 -3.85,20.75L-1.55,24.15L-1.3,24.45L-1.2,24.45L-1.2,24.5L-0.6,25.25L-0.7,25.3L-1.05,26.6C-0.917,26 -1.1,25.283 -1.6,24.45L-1.65,24.45C-4.95,20.517 -7.133,16.983 -8.2,13.85L-8.55,12.65L-8.4,11.75L-8.2,10.45L-8,9.45L-7.7,8.2L-7,5.9L-6.4,4.3L-6.2,3.85L-6,3.5L-5.95,3.45L-6,3.45C-5.633,2.883 -4.9,2.283 -3.8,1.65L-3.65,1.6M-1.85,29.7L-2,30.1L-2.45,30.15L-1.85,29.7M-1.55,24.15L-1.6,24.45L-1.55,24.15M-3.4,27.4C-3.867,27.7 -4.533,27.417 -5.4,26.55L-7.55,24.45L-7.85,24.15C-7.883,23.25 -7.633,22.7 -7.1,22.5C-5.7,24.033 -4.467,25.667 -3.4,27.4" style="fill:#023d4a;"/>
                    <path d="M5.45,4.4L5.45,3.8M5.45,3.75C5.383,2.45 5.05,1.4 4.45,0.6L4.4,0.5L4.3,0.45L3.8,0.05L3.75,0.05L3.55,-0.1L3.5,-0.1L3.3,-0.2L3,-0.3L2.7,-0.3L2.05,-0.4L2,-0.4L-0.5,0.15L-0.55,0.15L-0.65,0.2L-1.45,0.55L-2.2,0.85L-2.55,1.05L-2.85,1.15L-2.95,1.2L-3.65,1.6L-3.8,1.65C-4.9,2.283 -5.633,2.883 -6,3.45M-7.85,24.15L-7.9,24.15M-7.1,22.5L-6.55,22.45L-5.4,22.75C-4.2,23.85 -3.333,24.883 -2.8,25.85M-7.85,24.15C-7.883,23.25 -7.633,22.7 -7.1,22.5C-5.7,24.033 -4.467,25.667 -3.4,27.4M-3.1,27C-4,25.433 -5.15,23.917 -6.55,22.45" style="fill:none;fill-rule:nonzero;stroke:#000;stroke-opacity:0.33;stroke-width:0.05px;"/>
                    <path d="M2.75,26.15L2.8,26.1L3.25,25.15L3.3,25.05L3.9,23.55L4.5,21.6L5.5,12.75L5.45,4.4M5.45,3.8L5.45,3.75M0,29.45C1.033,28.783 1.95,27.683 2.75,26.15M-2,30.1L-0.95,29.9L-0.8,29.8L-0.2,29.55L0,29.45M-6,3.45L-5.95,3.45L-6,3.5L-6.2,3.85M-6,3.5L-6,3.45M-5.55,20.55L-5.45,20.7L-5.4,20.75L-5.15,21.2L-4.2,22.55L-4.15,22.6L-4.15,22.55L-4.2,22.5M-5.55,20.55L-5.65,20.45C-7.15,18.05 -8.117,15.85 -8.55,13.85M-7.4,24.95L-7.85,24.15L-7.95,24.1L-7.9,24.15M-2.8,25.85L-2.75,25.05L-2.75,24.95L-3.95,22.85L-4.05,22.8L-4.1,22.7L-4.1,22.65L-4.15,22.6M-3.4,27.4C-3.867,27.7 -4.533,27.417 -5.4,26.55L-7.55,24.45L-7.85,24.15M-4.25,29.7L-3.95,29.85L-2.45,30.15L-2,30.1M-3.4,27.4L-3.1,27L-2.8,25.85M-4.1,22.7L-3.95,22.85M-4.25,29.7L-5.7,28.05L-5.75,27.95L-5.8,27.9L-7.4,24.95" style="fill:none;fill-rule:nonzero;stroke:#000;stroke-opacity:0.45;stroke-width:0.05px;"/>
                    <path d="M-0.4,22.25L-0.25,22.55M-1.2,24.45L-1.2,24.5M-1.6,24.45L-1.55,24.15M-1.05,26.65L-1.05,26.6C-0.917,26 -1.1,25.283 -1.6,24.45" style="fill:none;fill-rule:nonzero;stroke:#000;stroke-opacity:0.3;stroke-width:0.05px;"/>
                    <path d="M3.7,-0.7L3.75,-0.7L3.95,-0.55L4,-0.55L4.5,-0.15L4.6,-0.1L4.65,0C5.25,0.8 5.583,1.85 5.65,3.15L5.7,8C4.933,9.1 4.317,9.1 3.85,8C2.55,6.633 1.15,6.617 -0.35,7.95C-1.883,9.217 -3.4,9.2 -4.9,7.9L-7.55,7.85L-7.5,7.6L-6.8,5.3L-6.2,3.7L-6,3.25L-5.8,2.9L-5.75,2.85L-5.8,2.85C-5.433,2.283 -4.7,1.683 -3.6,1.05L-3.45,1L-2.75,0.6L-2.65,0.55L-2.35,0.45L-2,0.25L-0.35,-0.45L2.25,-1L3.7,-0.7M5.7,12.2L4.95,18.95L2.35,19L-1.1,19.1L-4.15,19.15L-5.85,19.2C-7.117,17.067 -7.95,15.083 -8.35,13.25L-8.35,13L-8.4,12.9L-8.35,12.3L-8.35,12.1C-7.283,10.767 -6.217,10.767 -5.15,12.1C-3.483,13.4 -1.95,13.417 -0.55,12.15C1.183,10.483 2.6,10.483 3.7,12.15L5.7,12.2M3.45,24.55C2.517,26.617 1.433,28.05 0.2,28.85L0,28.95L-0.6,29.2L-0.75,29.3L-1.8,29.5L-2.25,29.55L-3.75,29.25L-4.05,29.1L-7.65,23.55L-7.35,23.85L-5.2,25.95C-4.333,26.817 -3.667,27.1 -3.2,26.8L-2.9,26.4L-2.6,25.25L-2.55,24.45L-2.55,24.35L-3.75,22.25L-3.9,22.1L-3.9,22.05L-1.2,21.95C-0.133,23.15 1,23.1 2.2,21.8C3.433,20.967 4.2,20.933 4.5,21.7L4.1,22.95L3.45,24.55" style="fill:url(#_Radial1);"/>
                </g>
                <g id="sprite7" transform="matrix(0.9672,-0.3819,0.3819,0.9672,0.800085,-32.3999)">
                    <g id="sprite8">
                        <g id="shape9">
                            <path d="M5.2,-2.15L5.2,-2.3L5.25,-2.15L5.2,-2.15" style="fill:#af7841;"/>
                            <path d="M-1.15,1L-1.3,1.45L-1.3,0.95L-1.15,1M-4.05,-0.9L-4.3,-0.75L-4.1,-0.9L-4.05,-0.9" style="fill:#2b998d;"/>
                            <path d="M4.75,-5.05L4.8,-4.35L4.9,-4.1L5.2,-2.55L5.2,-2.5L5.25,-2.2L5.4,-1.05L5.55,0.3C3.15,1.567 0.917,1.8 -1.15,1L-0.55,-0.8L-0.3,-1.85L-0.2,-1.85C0.1,-2.75 0.383,-3.267 0.65,-3.4C0.917,-4.167 0.917,-4.733 0.65,-5.1L2.9,-4.85L2.9,-4.05L3.45,-4.05L3.45,-5.05L4.75,-5.05M5.2,-2.3L5.2,-2.15L5.25,-2.15L5.2,-2.5L5.2,-2.3" style="fill:#b6ebe4;"/>
                            <path d="M-1.75,-3.65L-0.5,-4.25L-0.7,-5.4L-0.65,-5.6C-0.683,-6.033 -0.383,-6.4 0.25,-6.7L0.45,-6.75L3.15,-6.75C3.817,-6.55 4.333,-6.1 4.7,-5.4L4.75,-5.05L3.45,-5.05L3.45,-4.05L2.9,-4.05L2.9,-4.85L0.65,-5.1C0.917,-4.733 0.917,-4.167 0.65,-3.4C0.383,-3.267 0.1,-2.75 -0.2,-1.85L-0.3,-1.85L-0.55,-0.8L-1.15,1L-1.3,0.95C-2.267,0.55 -3.183,-0.067 -4.05,-0.9L-4.1,-0.9C-3.3,-2.433 -2.567,-3.333 -1.9,-3.6L-1.8,-3.6L-1.8,-3.65L-1.75,-3.65L-1.8,-3.6L-1.75,-3.65" style="fill:#73d9c4;"/>
                            <path d="M2.9,-0.65L2.8,-0.65" style="fill:none;fill-rule:nonzero;stroke:#000;stroke-opacity:0.3;stroke-width:0.05px;"/>
                            <path d="M-1.75,-3.65L-0.5,-4.25L-0.7,-5.4L-0.65,-5.6C-0.683,-6.033 -0.383,-6.4 0.25,-6.7L0.45,-6.75L3.15,-6.75C3.817,-6.55 4.333,-6.1 4.7,-5.4L4.75,-5.05M4.8,-4.35L4.9,-4.1L5.2,-2.55L5.2,-2.5L5.25,-2.2L5.4,-1.05L5.55,0.3M-4.3,-0.75L-4.1,-0.9C-3.3,-2.433 -2.567,-3.333 -1.9,-3.6L-1.8,-3.6L-1.8,-3.65L-1.75,-3.7L-1.75,-3.65L-1.8,-3.6M-1.8,-3.65L-1.75,-3.65" style="fill:none;fill-rule:nonzero;stroke:#000;stroke-opacity:0.45;stroke-width:0.05px;"/>
                            <path d="M-1.15,1L-1.3,0.95M-4.05,-0.9L-4.1,-0.9" style="fill:none;fill-rule:nonzero;stroke:#000;stroke-opacity:0.33;stroke-width:0.05px;"/>
                        </g>
                    </g>
                </g>
                <g id="sprite9" transform="matrix(0.9995,-0.0044,0.0044,0.9995,0.699745,-38.0002)">
                    <g id="sprite10">
                        <g id="shape10">
                            <path d="M5.25,-3.65L5.2,-3.65L5.3,-3.8L5.25,-3.65" style="fill:#af7841;"/>
                            <path d="M5.3,-3.85L5.35,-3.9L5.3,-3.8L5.3,-3.85M1.75,-3.45L1.8,-3.3L1.75,-3.4L1.75,-3.45" style="fill:#7d460f;"/>
                            <path d="M1.55,-4.15L1.7,-3.55L1.25,-4.45L1.55,-4.15" style="fill:#a3fefd;"/>
                            <path d="M-0.2,-8.1L0.6,-7.8L1.85,-7.4L2.35,-6.8L3.95,-6.3C4.15,-5.333 3.9,-4.633 3.2,-4.2L1.55,-4.15C0.917,-5.017 0.333,-5.583 -0.2,-5.85C0.667,-5.05 1.283,-3.933 1.65,-2.5L0.95,-1.9L-0.5,-1.7C-1.1,-1.767 -1.7,-2.15 -2.3,-2.85C-2.9,-3.583 -2.95,-4.483 -2.45,-5.55L-2.05,-6.45L-0.8,-6.45C-2.567,-7.817 -2.367,-8.65 -0.2,-8.95L-0.2,-8.1" style="fill:#b6ebe4;"/>
                            <path d="M1.85,-7.4L2.3,-7.3L3.7,-6.75L3.85,-6.7L3.95,-6.3L2.35,-6.8L1.85,-7.4M1.7,-3.55L1.75,-3.45L1.75,-3.4L1.8,-3.3L1.85,-2.9L1.65,-2.5C1.283,-3.933 0.667,-5.05 -0.2,-5.85C0.333,-5.583 0.917,-5.017 1.55,-4.15L1.25,-4.45L1.7,-3.55" style="fill:#fff;"/>
                            <path d="M3.85,-6.7C4.383,-6.4 4.75,-5.983 4.95,-5.45L5.3,-4.25L5.3,-3.8L5.2,-3.65L5.2,-3.6L4.55,-2.5C4.117,-2.133 3.567,-1.95 2.9,-1.95L2.55,-0.85L2.55,-0.8L2.4,0.2L2.4,0.25L1.9,0.85L1.45,1.3L-1.1,1.8L-1.95,1.8L-1.95,1.3L-2.65,0.7L-2.85,0.25L-3.05,-0.4L-3.4,-1.5L-5.05,-3.6L-6.1,-5.9L-4.3,-7.2L-3.95,-7.55L-3.2,-8.05L-3.8,-10.3L-1.25,-10.55C-0.417,-10.283 -0.067,-9.75 -0.2,-8.95C-2.367,-8.65 -2.567,-7.817 -0.8,-6.45L-2.05,-6.45L-2.45,-5.55C-2.95,-4.483 -2.9,-3.583 -2.3,-2.85C-1.7,-2.15 -1.1,-1.767 -0.5,-1.7L0.95,-1.9L1.65,-2.5L1.85,-2.9L1.8,-3.3L1.75,-3.45L1.7,-3.55L1.55,-4.15L3.2,-4.2C3.9,-4.633 4.15,-5.333 3.95,-6.3L3.85,-6.7M2.9,-1.95C2.4,-2.05 2.067,-2.217 1.9,-2.45L1.85,-2.9L1.9,-2.45C2.067,-2.217 2.4,-2.05 2.9,-1.95M0.9,-0.85C1.367,-1.217 1.7,-1.75 1.9,-2.45C1.7,-1.75 1.367,-1.217 0.9,-0.85C0.4,-0.483 -0.183,-0.317 -0.85,-0.35C-1.55,-0.417 -2.067,-0.617 -2.4,-0.95L-2.45,-1C-3.083,-1.567 -3.383,-2.2 -3.35,-2.9C-3.383,-2.2 -3.083,-1.567 -2.45,-1L-2.4,-0.95C-2.067,-0.617 -1.55,-0.417 -0.85,-0.35C-0.183,-0.317 0.4,-0.483 0.9,-0.85" style="fill:#73d9c4;"/>
                            <path d="M2.9,-1.95L2.55,-0.85L2.55,-0.8" style="fill:none;fill-rule:nonzero;stroke:#000;stroke-opacity:0.3;stroke-width:0.05px;"/>
                            <path d="M4.95,-5.45L5.3,-4.25L5.3,-3.85L5.35,-3.9L5.2,-3.6L4.55,-2.5C4.117,-2.133 3.567,-1.95 2.9,-1.95C2.4,-2.05 2.067,-2.217 1.9,-2.45L1.85,-2.9L1.8,-3.3L1.75,-3.45L1.7,-3.55L1.55,-4.15C0.917,-5.017 0.333,-5.583 -0.2,-5.85M-2.85,0.25L-3.05,-0.4L-3.4,-1.5L-5.05,-3.6L-6.1,-5.9L-4.3,-7.2L-3.95,-7.55L-3.2,-8.05L-3.8,-10.3L-1.25,-10.55C-0.417,-10.283 -0.067,-9.75 -0.2,-8.95L-0.2,-8.1M1.75,-3.4L1.75,-3.45M0.9,-0.85C0.4,-0.483 -0.183,-0.317 -0.85,-0.35C-1.55,-0.417 -2.067,-0.617 -2.4,-0.95L-2.45,-1C-3.083,-1.567 -3.383,-2.2 -3.35,-2.9M5.2,-3.6L5.25,-3.65L5.2,-3.65L5.3,-3.8L5.25,-3.65L5.25,-3.7" style="fill:none;fill-rule:nonzero;stroke:#000;stroke-opacity:0.3;stroke-width:0.05px;"/>
                            <path d="M3.85,-6.7C4.383,-6.4 4.75,-5.983 4.95,-5.45M1.9,-2.45C1.7,-1.75 1.367,-1.217 0.9,-0.85" style="fill:none;fill-rule:nonzero;stroke:#000;stroke-opacity:0.3;stroke-width:0.05px;"/>
                            <path d="M2.55,-0.8L2.4,0.2M5.3,-3.8L5.3,-3.85M5.2,-3.65L5.2,-3.6" style="fill:none;fill-rule:nonzero;stroke:#000;stroke-opacity:0.3;stroke-width:0.05px;stroke-linecap:round;"/>
                            <path d="M4.6,-6.95C4.667,-6.65 4.783,-6.4 4.95,-6.2L5.35,-5.4L5.45,-5.1C5.217,-5.433 5.067,-5.233 5,-4.5L4.95,-3.45L5,-4.5C5.067,-5.233 5.217,-5.433 5.45,-5.1L5.5,-3.9L5.4,-3.45L5.3,-3.25L4.8,-3.1L4.9,-3.4L4.95,-3.45C4.817,-4.283 4.567,-4.65 4.2,-4.55C4.567,-4.65 4.817,-4.283 4.95,-3.45L4.9,-3.4L4.8,-3.1L3.9,-3.05L3,-3.25C2.767,-3.783 2.95,-3.9 3.55,-3.6L4.2,-3.6L3.7,-4.2C3.633,-4.5 3.8,-4.617 4.2,-4.55C4.4,-4.75 4.5,-5.083 4.5,-5.55L4.5,-5.85L4.2,-6.6L4.45,-6.95L4.6,-6.95" style="fill:#b0b500;"/>
                            <path d="M5.3,-3.25L4.3,-2.15L4.1,-2.05L2,-2.1C2.333,-2.2 2.617,-2.35 2.85,-2.55C3.05,-2.75 3.1,-2.983 3,-3.25L3.9,-3.05L4.8,-3.1L4.1,-2.05L4.8,-3.1L5.3,-3.25" style="fill:#5a7a00;"/>
                            <path d="M5.45,-5.1L5.35,-5.4L4.95,-6.2C4.783,-6.4 4.667,-6.65 4.6,-6.95M4.1,-2.05L4.8,-3.1" style="fill:none;fill-rule:nonzero;stroke:#000;stroke-opacity:0.3;stroke-width:0.05px;"/>
                            <path d="M4.6,-6.95L4.45,-6.95" style="fill:none;fill-rule:nonzero;stroke:#52cfc2;stroke-opacity:0.33;stroke-width:0.05px;"/>
                            <path d="M4.45,-6.95L4.2,-6.6L4.5,-5.85L4.5,-5.55C4.5,-5.083 4.4,-4.75 4.2,-4.55M4.8,-3.1L4.9,-3.4L4.95,-3.45" style="fill:none;fill-rule:nonzero;stroke:#000;stroke-opacity:0.3;stroke-width:0.05px;"/>
                            <path d="M4.2,-4.55C4.567,-4.65 4.817,-4.283 4.95,-3.45L5,-4.5C5.067,-5.233 5.217,-5.433 5.45,-5.1L5.5,-3.9L5.4,-3.45L5.3,-3.25L4.3,-2.15L4.1,-2.05L2,-2.1C2.333,-2.2 2.617,-2.35 2.85,-2.55C3.05,-2.75 3.1,-2.983 3,-3.25C2.767,-3.783 2.95,-3.9 3.55,-3.6L4.2,-3.6L3.7,-4.2C3.633,-4.5 3.8,-4.617 4.2,-4.55" style="fill:none;fill-rule:nonzero;stroke:#000;stroke-opacity:0.3;stroke-width:0.05px;stroke-linecap:round;"/>
                            <path d="M1.8,-1.55L1.65,-1.35L1.55,-1.25L1.35,-1C1.017,-0.633 0.65,-0.383 0.25,-0.25L0.15,-0.25L-0.05,-0.2L-1.15,-0.2C-1.683,-0.267 -2.117,-0.433 -2.45,-0.7L-2.6,-0.85C-3.167,-0.683 -3.433,-1.05 -3.4,-1.95L-3.4,-2L-3.1,-2L-2.9,-1.95L-2.85,-2.05C-2.783,-2.25 -2.867,-2.5 -3.1,-2.8L-3.15,-2.85L-3.2,-2.95L-2.35,-3.6L-2.15,-3.75L-1.9,-3.9L-1.85,-3.6L-1.95,-3.55L-1.85,-3.4L-1.8,-3.25L-1.5,-2.6L-1.35,-2.35L-1.25,-2.15L-1.2,-1.6L-1.15,-1.25L-0.95,-0.9L-0.4,-0.6C0,-0.367 0.633,-0.617 1.5,-1.35L1.8,-1.55M-1.8,-2.45L-1.3,-2.1L-1.2,-1.5L-1.2,-1.25L-1,-0.9L-0.9,-0.8L-1,-0.8L-1.4,-0.85L-2.2,-1.1L-2.7,-1.5L-2.9,-1.7L-2.7,-1.5L-2.2,-1.1L-1.4,-0.85L-1,-0.8L-0.9,-0.8L-1,-0.9L-1.2,-1.25L-1.2,-1.5L-1.3,-2.1L-1.8,-2.45M-0.9,-0.8L-0.8,-0.6C-0.6,-0.367 -0.367,-0.233 -0.1,-0.2C-0.367,-0.233 -0.6,-0.367 -0.8,-0.6L-0.9,-0.8M-1.2,-1.5L-1.2,-1.6L-1.2,-1.5" style="fill:#5a7a00;"/>
                            <path d="M0.35,-4L0.3,-3.9L0.3,-3.8L0.35,-3.6L0.3,-3.55L0.3,-3.15L0.4,-2.95L0.9,-3L0.95,-3.15C1.45,-3.483 1.783,-3.217 1.95,-2.35L1.65,-1.5L1.5,-1.35C0.633,-0.617 0,-0.367 -0.4,-0.6L-0.95,-0.9L-1.15,-1.25L-1.2,-1.6L-1.25,-2.15L-1.35,-2.35L-1.5,-2.6L-1.8,-3.25L-1.85,-3.4L-1.85,-3.45L-1.6,-3.55L-0.85,-4.05L-0.45,-4.25L-0.4,-4.3C0,-4.333 0.25,-4.233 0.35,-4M0.3,-3.45C-0.5,-3.617 -1,-3 -1.2,-1.6C-1,-3 -0.5,-3.617 0.3,-3.45" style="fill:#b0b500;"/>
                            <path d="M0.95,-3.15L0.95,-3.45C1.583,-3.85 1.983,-3.533 2.15,-2.5L2.15,-2.45L2.1,-2.2L2.05,-2.1L2.05,-2.05L1.8,-1.55L1.5,-1.35L1.65,-1.5L1.95,-2.35C1.783,-3.217 1.45,-3.483 0.95,-3.15M-1.9,-3.9L-1.05,-4.45L-0.55,-4.7L-0.5,-4.75C0.167,-4.783 0.45,-4.533 0.35,-4C0.25,-4.233 0,-4.333 -0.4,-4.3L-0.45,-4.25L-0.85,-4.05L-1.6,-3.55L-1.85,-3.45L-1.85,-3.4L-1.95,-3.55L-1.85,-3.6L-1.9,-3.9" style="fill:#dbdb02;"/>
                            <path d="M0.35,-4L0.3,-3.9L0.3,-3.8L0.35,-3.6L0.3,-3.55L0.3,-3.15L0.4,-2.95L0.9,-3L0.95,-3.15L0.95,-3.45C1.583,-3.85 1.983,-3.533 2.15,-2.5L2.15,-2.45L2.1,-2.2L2.05,-2.1L2.05,-2.05L1.8,-1.55L1.65,-1.35L1.55,-1.25L1.35,-1C1.017,-0.633 0.65,-0.383 0.25,-0.25L0.15,-0.25L-0.05,-0.2L-1.15,-0.2C-1.683,-0.267 -2.117,-0.433 -2.45,-0.7L-2.6,-0.85C-3.167,-0.683 -3.433,-1.05 -3.4,-1.95L-3.4,-2L-3.1,-2L-2.9,-1.95L-2.85,-2.05C-2.783,-2.25 -2.867,-2.5 -3.1,-2.8L-3.15,-2.85L-3.2,-2.95L-2.35,-3.6L-2.15,-3.75L-1.9,-3.9L-1.05,-4.45L-0.55,-4.7L-0.5,-4.75C0.167,-4.783 0.45,-4.533 0.35,-4M-0.4,-4.3L-0.45,-4.25M-1.85,-3.45L-1.85,-3.4L-1.95,-3.55L-1.85,-3.6L-1.9,-3.9M-1.2,-1.6C-1,-3 -0.5,-3.617 0.3,-3.45M-2.9,-1.7L-2.7,-1.5L-2.2,-1.1L-1.4,-0.85L-1,-0.8L-0.9,-0.8L-1,-0.9L-1.2,-1.25L-1.2,-1.5L-1.3,-2.1L-1.8,-2.45M-1.2,-1.6L-1.2,-1.5M-0.1,-0.2C-0.367,-0.233 -0.6,-0.367 -0.8,-0.6L-0.9,-0.8" style="fill:none;fill-rule:nonzero;stroke:#000;stroke-opacity:0.3;stroke-width:0.05px;"/>
                        </g>
                    </g>
                </g>
                <g id="shape11" transform="matrix(1,0,0,1,0.9,-31.1)">
                    <path d="M5.45,-0.65C5.65,-0.183 5.817,-0.083 5.95,-0.35L6.05,-0.75L6,0.05C5.867,0.65 5.633,0.533 5.3,-0.3L5.25,-0.45C4.95,-1.15 4.667,-1.3 4.4,-0.9C3.8,-0.1 2.95,-0.05 1.85,-0.75C1.283,-1.15 0.517,-0.8 -0.45,0.3C-0.95,1.467 -1.633,1.833 -2.5,1.4C-3.1,1.3 -3.7,1.733 -4.3,2.7L-4.55,3.1L-4.6,3.2C-4.933,3.667 -5.283,3.867 -5.65,3.8C-5.983,3.7 -6.117,2.9 -6.05,1.4L-5.3,0.25L-4.9,-0.3L-4.7,-0.55L-4.95,0.7L-4.95,-0.2L-5.15,0.7L-5.3,1.15L-5.4,1.5C-5.633,2.2 -5.667,2.733 -5.5,3.1L-5.5,3.15C-5.233,3.217 -4.967,3.067 -4.7,2.7L-4.3,2.05L-4,1.7L-3.4,1.05C-3.2,0.883 -2.983,0.783 -2.75,0.75L-2.5,0.8L-1.55,0.95L-0.75,0.25L-0.45,-0.35L-0.3,-0.45L0.2,-0.95C0.4,-1.15 0.583,-1.283 0.75,-1.35L1.35,-1.55L1.85,-1.35C2.05,-1.217 2.25,-1.117 2.45,-1.05L3.5,-0.9C3.8,-0.967 4.083,-1.15 4.35,-1.45L4.4,-1.5C4.533,-1.733 4.667,-1.817 4.8,-1.75L5.3,-0.9L5.45,-0.65" style="fill:#fff;fill-opacity:0.72;"/>
                    <path d="M4.9,-3.7L5.05,-3.85C5.417,-3.417 5.633,-2.883 5.7,-2.25L5.85,-1.8L5.95,-1.55L6.05,-0.8L6.05,-0.75L5.95,-0.35C5.817,-0.083 5.65,-0.183 5.45,-0.65C5.717,-1.017 5.533,-2.033 4.9,-3.7C5.533,-2.033 5.717,-1.017 5.45,-0.65L5.3,-0.9L4.8,-1.75L4.25,-3.2L4.8,-1.75C4.667,-1.817 4.533,-1.733 4.4,-1.5L4.35,-1.45C4.083,-1.15 3.8,-0.967 3.5,-0.9L2.85,-2.7C3.117,-2.767 3.383,-2.867 3.65,-3L4.25,-3.2L4.9,-3.7M0.25,-2.4L0.75,-2.45L0.9,-2.45L1.35,-1.55L0.9,-2.45L1.7,-2.5L2.85,-2.7L3.5,-0.9L2.45,-1.05C2.25,-1.117 2.05,-1.217 1.85,-1.35L1.35,-1.55L0.75,-1.35C0.583,-1.283 0.4,-1.15 0.2,-0.95L-0.6,-2.45L0.25,-2.4L0.75,-1.35L0.25,-2.4M1.7,-2.5C2.033,-1.633 2.283,-1.15 2.45,-1.05C2.283,-1.15 2.033,-1.633 1.7,-2.5M3.65,-3L4.35,-1.45L3.65,-3M-4.7,-0.55L-4.5,-0.7L-4.15,-0.95L-3.45,-1.55L-2.95,-1.9L-2.35,-2.35L-1.8,-2.65L-0.6,-2.45L0.2,-0.95L-0.3,-0.45L-0.45,-0.35L-0.75,0.25L-1.55,0.95L-2.5,0.8L-2.75,0.75C-2.983,0.783 -3.2,0.883 -3.4,1.05L-4,1.7L-4.3,2.05L-4.7,2.7C-4.9,2.367 -4.983,1.7 -4.95,0.7C-4.983,1.7 -4.9,2.367 -4.7,2.7C-4.967,3.067 -5.233,3.217 -5.5,3.15L-5.5,3.1C-5.667,2.733 -5.633,2.2 -5.4,1.5L-5.35,1.45L-5.3,1.15L-5.15,0.7L-4.95,-0.2L-4.95,0.7L-4.7,-0.55M-1.8,-2.65L-0.3,-0.45L-1.8,-2.65M-2.95,-1.9C-2.417,-0.333 -1.95,0.617 -1.55,0.95C-1.95,0.617 -2.417,-0.333 -2.95,-1.9M-4.5,-0.7L-4,1.7L-4.5,-0.7M-0.75,0.25C-1.117,0.117 -1.65,-0.75 -2.35,-2.35C-1.65,-0.75 -1.117,0.117 -0.75,0.25M-3.4,1.05C-3.633,0.85 -3.883,0.183 -4.15,-0.95C-3.883,0.183 -3.633,0.85 -3.4,1.05M-2.75,0.75L-3.45,-1.55L-2.75,0.75" style="fill:#bff0f5;fill-opacity:0.7;"/>
                    <path d="M4.9,-3.7C5.533,-2.033 5.717,-1.017 5.45,-0.65M5.95,-0.35L6.05,-0.75L6.05,-0.8L5.95,-1.55L5.85,-1.8M4.25,-3.2L4.8,-1.75M0.25,-2.4L0.75,-1.35M1.35,-1.55L0.9,-2.45M2.45,-1.05C2.283,-1.15 2.033,-1.633 1.7,-2.5M2.85,-2.7L3.5,-0.9M4.35,-1.45L3.65,-3M-0.3,-0.45L-1.8,-2.65M-1.55,0.95C-1.95,0.617 -2.417,-0.333 -2.95,-1.9M-4.95,-0.2L-4.95,0.7C-4.983,1.7 -4.9,2.367 -4.7,2.7M-4,1.7L-4.5,-0.7M-5.3,1.15L-5.4,1.5C-5.633,2.2 -5.667,2.733 -5.5,3.1L-5.5,3.15M-3.45,-1.55L-2.75,0.75M-4.15,-0.95C-3.883,0.183 -3.633,0.85 -3.4,1.05M-2.35,-2.35C-1.65,-0.75 -1.117,0.117 -0.75,0.25M0.2,-0.95L-0.6,-2.45" style="fill:none;fill-rule:nonzero;stroke:#c4eeea;stroke-width:0.05px;"/>
                </g>
                <g id="shape12" transform="matrix(1,0,0,1,1.6,-33.25)">
                    <path d="M3.4,-2.8L3.35,-2.85L3.25,-3.2L3.9,-3.3L3.9,-3.25L3.4,-2.8M3.75,0.6L2.3,0.55L1.85,1L1.7,1L1.55,1.1L1.05,1.05L0.95,1.55L0.85,1.95C0.583,2.517 0.233,2.65 -0.2,2.35C-0.467,1.883 -0.783,1.783 -1.15,2.05C-1.35,2.317 -1.267,2.533 -0.9,2.7L-1.35,3.1L-1.25,3.05L-1.35,3.15C-1.717,3.383 -2.117,3.283 -2.55,2.85L-3.15,1.85L-3.25,1.9C-3.183,2.067 -3.167,2.3 -3.2,2.6C-3.467,2.833 -3.683,2.683 -3.85,2.15L-4.15,0.65L-4.15,0.6L-4.4,1.75C-4.7,1.95 -4.833,1.767 -4.8,1.2L-5.4,0.05L-5.4,-0.25L-4.7,-0.6L-4.25,-1.65L-4,-1.45L-3.95,-1.4C-3.417,-1.667 -3.133,-1.567 -3.1,-1.1L-2.9,0.35L-2.8,0.35L-2.3,0.6L-2.05,0.7L-2.05,1L-1.2,1L-1.05,1.05L-1,1L-0.75,0.65L-0.65,0.55L0.7,-0.85L1.2,-0.6L1.35,-0.6L1.95,-0.45L1.75,-0.55L2.25,-1L2.25,-1.05C2.317,-0.45 2.833,-0.133 3.8,-0.1L3.9,-0.1L4.7,-0.3L3.75,0.6M0,0.8L0.2,0.75L0.2,0.7L0,0.8L-0.7,0.95L-0.6,1.1C-0.333,1.233 -0.083,1.35 0.15,1.45C-0.083,1.35 -0.333,1.233 -0.6,1.1L-0.7,0.95L0,0.8M-4.7,-0.6L-4.6,-0.45L-4.65,-0.2L-4.8,1.2L-4.65,-0.2L-4.6,-0.45L-4.7,-0.6M3.9,-0.1L2.6,0.3L2.2,0.4L1.95,-0.45L2.2,0.4L2.6,0.3L3.9,-0.1M1.55,0.3L0.2,0.75L1.55,0.3M-0.7,0.95L-1,1L-0.7,0.95M-2.05,1L-2.7,0.95L-4.15,0.6L-2.7,0.95L-2.05,1" style="fill:#5a7a00;"/>
                    <path d="M3.4,-2.8L3.9,-3.25L3.9,-3.3L4.15,-3.05L4.3,-1.75L4.3,-1.55C4.3,-1.15 4.483,-0.867 4.85,-0.7L4.95,-0.65L4.95,-0.6C5.35,-0.633 5.517,-0.367 5.45,0.2L4.65,0.05L4.75,0.45C4.35,0.75 4.017,0.8 3.75,0.6L4.7,-0.3L4.8,-0.35L4.85,-0.7L4.8,-0.35L4.7,-0.3L3.9,-0.1L3.8,-0.1C2.833,-0.133 2.317,-0.45 2.25,-1.05L2.25,-1.15L2.5,-1.05C2.6,-0.883 2.65,-0.917 2.65,-1.15L2.65,-1.9C2.65,-2.1 2.817,-2.183 3.15,-2.15L3.25,-2.15L3.8,-1.75L3.9,-1.95L3.4,-2.8M-3.1,-1.1L-2.65,-1.15C-2.85,-0.717 -2.833,-0.333 -2.6,0L-1.9,-1.05L-1.2,-1.25L-0.95,-1.05C-0.583,-0.517 -0.033,-0.45 0.7,-0.85L-0.65,0.55L-0.75,0.65L-1,1L-2.05,1L-2.05,0.7L-2.3,0.6L-2.8,0.35L-2.9,0.35L-3.1,-1.1M3.15,-2.15C2.917,-1.25 3.133,-0.567 3.8,-0.1C3.133,-0.567 2.917,-1.25 3.15,-2.15M-0.95,-1.05L-1.95,0.45L-2.05,0.7L-1.95,0.45L-0.95,-1.05" style="fill:#b0b500;"/>
                    <path d="M1.7,1L1.55,1.1" style="fill:none;fill-rule:nonzero;stroke:#000;stroke-opacity:0.3;stroke-width:0.05px;"/>
                    <path d="M3.9,-3.3L3.25,-3.2L3.35,-2.85L3.4,-2.8L3.9,-3.25L3.9,-3.3L4.15,-3.05L4.3,-1.75L4.3,-1.55C4.3,-1.15 4.483,-0.867 4.85,-0.7L4.95,-0.65L4.95,-0.6C5.35,-0.633 5.517,-0.367 5.45,0.2L4.65,0.05L4.75,0.45C4.35,0.75 4.017,0.8 3.75,0.6L2.3,0.55L2.2,0.65M1.55,1.1L1.05,1.05L0.95,1.55L0.85,1.95C0.583,2.517 0.233,2.65 -0.2,2.35C-0.467,1.883 -0.783,1.783 -1.15,2.05C-1.35,2.317 -1.267,2.533 -0.9,2.7L-1.35,3.1L-1.25,3.05L-1.35,3.15C-1.717,3.383 -2.117,3.283 -2.55,2.85L-3.15,1.85L-3.25,1.9C-3.183,2.067 -3.167,2.3 -3.2,2.6C-3.467,2.833 -3.683,2.683 -3.85,2.15L-4.15,0.65L-4.15,0.6L-4.4,1.75C-4.7,1.95 -4.833,1.767 -4.8,1.2L-5.4,0.05L-5.4,-0.25L-4.7,-0.6L-4.25,-1.65L-4,-1.45L-3.95,-1.4C-3.417,-1.667 -3.133,-1.567 -3.1,-1.1L-2.65,-1.15C-2.85,-0.717 -2.833,-0.333 -2.6,0L-1.9,-1.05L-1.2,-1.25L-0.95,-1.05C-0.583,-0.517 -0.033,-0.45 0.7,-0.85M0.8,-0.8L1.2,-0.6L1.35,-0.7L1.35,-0.6L1.75,-0.55L2.05,-0.95L2.25,-1.1L2.25,-1.15L2.5,-1.05C2.6,-0.883 2.65,-0.917 2.65,-1.15L2.65,-1.9C2.65,-2.1 2.817,-2.183 3.15,-2.15L3.25,-2.15L3.8,-1.75L3.9,-1.95L3.4,-2.8L3.35,-2.8L3.3,-2.9L3.35,-2.85L3.35,-2.8M2.25,-1.05L2.25,-1.1M1.75,-0.55L2.25,-1L2.25,-1.05M3.8,-0.1C3.133,-0.567 2.917,-1.25 3.15,-2.15M1.2,-0.6L1.35,-0.6M1.95,-0.45L1.75,-0.55M4.7,-0.3L4.8,-0.35L4.85,-0.7M3.8,-0.1L3.9,-0.1L4.7,-0.3M0,0.8L0.2,0.75L1.55,0.3M0,0.8L-0.7,0.95L-0.6,1.1C-0.333,1.233 -0.083,1.35 0.15,1.45M1.95,-0.45L2.2,0.4L2.6,0.3L3.9,-0.1M-4.8,1.2L-4.65,-0.2L-4.6,-0.45L-4.7,-0.6M-1,1L-0.7,0.95M-1,1L-2.05,1L-2.05,0.7L-1.95,0.45L-0.95,-1.05M-4.15,0.6L-2.7,0.95L-2.05,1" style="fill:none;fill-rule:nonzero;stroke:#000;stroke-opacity:0.33;stroke-width:0.05px;"/>
                </g>
                <g id="sprite11" transform="matrix(1,0,0,1,-0.05,-46.3)">
                    <g id="sprite12">
                        <g id="shape13">
                            <path d="M2.95,-0.45C2.45,-0.75 2,-1.083 1.6,-1.45C1.067,-2.217 0.8,-2.95 0.8,-3.65L0.8,-3.75L0.9,-4.4L1.35,-4.45L2.4,-4.45C3.333,-4.483 4.25,-4.767 5.15,-5.3C5.983,-6 6.433,-6.783 6.5,-7.65L7.15,-7.9L7.8,-6.55L7.8,-5.85C7.933,-5.417 7.583,-4.633 6.75,-3.5C5.95,-2.467 4.683,-1.45 2.95,-0.45" style="fill:#b6ebe4;"/>
                            <path d="M3.25,-0.3L2.95,-0.45C4.683,-1.45 5.95,-2.467 6.75,-3.5C7.583,-4.633 7.933,-5.417 7.8,-5.85L7.8,-6.55L7.15,-7.9L7.5,-8.5L8.4,-6.55L8.4,-5.85C8.533,-5.417 8.183,-4.633 7.35,-3.5C6.517,-2.4 5.15,-1.333 3.25,-0.3" style="fill:#fff;"/>
                            <path d="M-5.1,-20.1C-3.867,-20.667 -1.917,-20.85 0.75,-20.65L4.75,-19L7.25,-15.95L7.85,-14.05L7.7,-12.05L7.5,-8.55L7.5,-8.5L7.15,-7.9L6.5,-7.65C6.433,-6.783 5.983,-6 5.15,-5.3C4.25,-4.767 3.333,-4.483 2.4,-4.45L1.35,-4.45L0.9,-4.4L0.8,-3.75L0.8,-3.65C0.8,-2.95 1.067,-2.217 1.6,-1.45C2,-1.083 2.45,-0.75 2.95,-0.45L3.25,-0.3L1.7,-0.65C0.2,-0.983 -1.6,-1.617 -3.7,-2.55L-7.8,-6.55L-9.2,-10.75L-9.3,-14.45L-7.9,-17.6L-7.3,-18.85L-5.1,-20.1" style="fill:#73d9c4;"/>
                            <path d="M7.7,-12.05L7.85,-14.05L7.25,-15.95L4.75,-19L0.75,-20.65C-1.917,-20.85 -3.867,-20.667 -5.1,-20.1" style="fill:none;fill-rule:nonzero;stroke:#000;stroke-opacity:0.45;stroke-width:0.05px;"/>
                        </g>
                    </g>
                    <g id="shape14">
                        <path d="M7.45,-14.9L7.95,-13.85L7.8,-13.2C8.167,-11.7 8.217,-10.283 7.95,-8.95L7.5,-6.85L6.7,-6.05L6.7,-6.15L6.55,-5.95C4.75,-9.35 2.5,-11.65 -0.2,-12.85L-0.4,-12.95L-0.4,-12.7C-0.533,-11.1 -0.217,-9.417 0.55,-7.65L0.5,-7.7L0,-8.05C-1.4,-9.05 -2.367,-10.05 -2.9,-11.05L-3.05,-9.85L-2.85,-8.15C-2.417,-6.517 -1.25,-4.967 0.65,-3.5L-0.9,-3.75L-1.95,-4.15C-1.017,-2.95 0.083,-2.2 1.35,-1.9L-0.3,-1.95L-2.65,-2.45L-2.65,-2.3C-2.483,-1.533 -2.133,-0.8 -1.6,-0.1L-2.25,-0.3L-2.75,-0.5L-3.5,-2.5L-4.7,-3.45L-6.05,-4.85L-7.65,-5.95L-8.3,-7.3L-9.4,-10.4L-9.6,-13.2C-9.6,-13.8 -9.4,-14.467 -9,-15.2L-8.75,-16.15L-8.6,-16.3L-8.55,-16.3L-8.6,-16.45L-8.25,-17.1L-7.85,-17.8L-7.6,-18.35L-7.45,-18.9L-7.35,-18.95L-7.35,-19.05L-5.6,-20.1C-5.3,-20.167 -5,-20.3 -4.7,-20.5L0.2,-20.75L2.85,-20.3L4,-19.75C4.4,-19.583 4.75,-19.35 5.05,-19.05L5.8,-18.3L6,-17.9L6.1,-17.5L6.45,-16.75L7.25,-16L7.35,-15.5L7.3,-15.2L7.45,-14.9M-0.4,-12.95L-0.45,-13L-0.8,-13.1L-0.4,-12.95" style="fill:#0b2028;"/>
                        <path d="M7.3,-15.2L7.45,-14.9" style="fill:none;fill-rule:nonzero;stroke:#000;stroke-opacity:0.33;stroke-width:0.05px;"/>
                    </g>
                    <g id="sprite13" transform="matrix(1,0,0,1,0.4,-0.1)">
                        <g id="shape15">
                            <path d="M6.3,-6.35L6.45,-6.55L6.45,-6.45L6.3,-6.35M-0.65,-13.35L-0.8,-13.4L-0.85,-13.45L-0.75,-13.4L-0.7,-13.4L-0.65,-13.35" style="fill:#a0b40a;"/>
                            <path d="M9.65,-14.7L9.65,-15.1L9.55,-15.9L9.5,-16.05L9.3,-16.75L9,-17.65L8.05,-19.3L7.3,-19.85L7,-20.05L6.65,-20.25L6.6,-20.2C5.467,-20.533 4.783,-20.917 4.55,-21.35L4.15,-21.5L3.1,-21.8L0.2,-22.25L3.6,-21.8L4.45,-21.55L4.65,-21.5L5.2,-21.25L6.8,-20.5L7.3,-20.15L7.8,-19.85L8.55,-19.3L9.5,-17.65L9.8,-16.75L10.05,-15.9L10,-16.05L10.15,-15.1L10,-13.85L9.75,-13.1L9.9,-12.2L10,-11.35L10.05,-10.75L10.1,-10.4C10.233,-7.7 9.683,-5.533 8.45,-3.9L8.55,-4.8C9.25,-6.133 9.617,-7.75 9.65,-9.65L9.6,-10.4L9.6,-10.8L9.5,-11.5L9.3,-10.85L8.5,-8.95L8.3,-8.65L7.9,-8L7.55,-7.55L7.5,-7.65L7.45,-7.9L7.45,-8.05L7.5,-8.1L8.8,-10.85L8.95,-11.25C9.283,-11.083 9.383,-11.7 9.25,-13.1L9.5,-13.8L9.45,-13.8L9.65,-14.7L9.65,-14.6L9.65,-14.7M0.7,-21.1L3.15,-20.05C2.483,-20.017 1.917,-19.733 1.45,-19.2C1.083,-18.767 0.583,-18.517 -0.05,-18.45L-1.5,-18.45L-2.15,-18.65C-2.917,-18.75 -3.483,-18.5 -3.85,-17.9C-4.25,-17.567 -4.667,-17.35 -5.1,-17.25L-6.4,-17.3L-6.75,-17.35C-7.417,-17.45 -8.117,-17.233 -8.85,-16.7L-8.95,-16.6C-9.283,-16.4 -9.583,-16.267 -9.85,-16.2L-10,-16.15L-10.8,-16.2L-10.2,-17.55C-9.967,-17.383 -9.733,-17.333 -9.5,-17.4L-9.25,-17.5L-8.85,-17.9C-8.483,-18.433 -7.95,-18.65 -7.25,-18.55L-6.8,-18.45L-5.55,-18.4C-5.183,-18.5 -4.867,-18.717 -4.6,-19.05C-4.167,-19.583 -3.617,-19.8 -2.95,-19.7L-2.5,-19.6L-1.3,-19.6C-0.833,-19.7 -0.45,-19.9 -0.15,-20.2L0.7,-21.1M7.05,-14.35L6.85,-14.25L5.95,-14.05L5.3,-14L0.2,-13.9C-0.5,-13.867 -0.4,-14.033 0.5,-14.4C1.367,-14.8 1.933,-15.217 2.2,-15.65L2.7,-15.3C3.4,-14.867 4.183,-14.717 5.05,-14.85L5.2,-14.85C6.167,-15.017 6.65,-15.2 6.65,-15.4L6.65,-15.45L6.6,-15.5L6.75,-15.45L7.15,-14.35L7.05,-14.35M-0.5,-13.3C-0.667,-11.767 -0.517,-10.317 -0.05,-8.95L0.3,-8.05L0.25,-8.1L-0.25,-8.45L-0.4,-8.55L-0.75,-9.55C-1.117,-10.783 -1.25,-11.967 -1.15,-13.1L-0.75,-13.65L-0.85,-13.45L-0.95,-13.3L-0.65,-13.35L-0.6,-13.35L-0.5,-13.3M-3.3,-10.6L-3.3,-10.25L-3.1,-8.55C-2.7,-6.95 -1.6,-5.45 0.2,-4.05L0.4,-3.9L-0.15,-3.95L-0.55,-4.25C-2.183,-5.617 -3.2,-7.05 -3.6,-8.55C-3.767,-9.117 -3.667,-9.8 -3.3,-10.6M-1.95,-4.2C-1.117,-3.267 -0.167,-2.65 0.9,-2.35L1.1,-2.3L0.6,-2.3L0.25,-2.4C-0.883,-2.733 -1.867,-3.45 -2.7,-4.55L-1.95,-4.2M-2.9,-2.65C-2.767,-2.05 -2.5,-1.467 -2.1,-0.9L-1.85,-0.5L-2.5,-0.7L-2.85,-1.25L-3.4,-2.7L-3.4,-2.85L-2.9,-2.65M-4.65,-1.5L-4.65,-1.45C-4.783,-0.85 -5.15,-0.3 -5.75,0.2C-5.55,-0.167 -5.433,-0.5 -5.4,-0.8L-5.1,-1.85L-4.7,-1.55L-4.65,-1.5" style="fill:#39c;"/>
                            <path d="M7.5,-8.1L7.45,-8.05L7.45,-7.9L7.25,-7.25L6.9,-6.85L6.8,-6.8L6.45,-6.45L6.45,-6.55L6.3,-6.35L6.1,-6.75L5.85,-7.2C4.283,-9.9 2.383,-11.817 0.15,-12.95L-0.3,-13.2L-0.45,-13.25L-0.25,-13.45L0.15,-13.35L0.25,-13.3L0.3,-13.3L0.55,-13.2L0.35,-13.3L0.65,-13.25C1.583,-13.083 2.7,-12.517 4,-11.55L6,-9.65L5.8,-10.35L6.35,-9.1L6.45,-9L7,-8.05L7.1,-7.8L7,-8.55L6.6,-10.4L7,-9.6L7.4,-8.3L7.7,-9.35L7.5,-8.1M7.9,-8L8.3,-8.65L8.5,-8.95L9.3,-10.85L9.5,-11.5L9.55,-11.15L9.45,-10.45L9.6,-10.8L9.6,-10.4L9.65,-9.65C9.617,-7.75 9.25,-6.133 8.55,-4.8L8.25,-6.85L8.1,-7.4L8,-7.75L7.9,-8M6.3,-7.75L6.3,-7.8L6.2,-8L6.3,-7.75M6.75,-7L6.8,-7L6.75,-7.05L6.75,-7M-0.15,-3.95L-1.15,-4.15L-1.65,-4.3L-1.9,-4.6L-1.15,-4.25L-1.4,-4.6L-0.55,-4.25L-0.15,-3.95M0.6,-2.3L0.15,-2.3L-0.55,-2.35L-2.6,-2.75L-2.6,-2.9L-2.1,-2.7L-2.1,-2.9L0.25,-2.4L0.6,-2.3M-2.5,-0.7L-3.9,-1.35L-3.85,-1.55L-3.8,-1.9L-2.85,-1.25L-2.5,-0.7M-5.4,-0.8C-5.367,-1.367 -5.567,-1.867 -6,-2.3L-6.45,-2.75L-7.15,-3C-7.683,-3.267 -8.283,-3.717 -8.95,-4.35C-10.383,-5.983 -11.25,-8 -11.55,-10.4C-11.65,-12.667 -11.4,-14.6 -10.8,-16.2L-10,-16.15C-10.6,-14.583 -10.85,-12.683 -10.75,-10.45C-10.45,-8.05 -9.583,-6.033 -8.15,-4.4L-6.35,-3.05C-6.117,-2.917 -5.883,-2.833 -5.65,-2.8L-5.2,-2.35L-4.7,-1.55L-5.1,-1.85L-5.4,-0.8M-10.2,-17.55L-8.75,-19.45L-8.2,-19.95C-7.467,-20.583 -6.583,-21.1 -5.55,-21.5L-4.55,-21.8L-3.55,-22.05L-0.95,-22.4L-2.75,-22.1L-3.6,-21.9L-3.75,-21.85L-3.85,-21.8L-4.75,-21.55C-5.617,-21.017 -6.5,-20.5 -7.4,-20L-7.95,-19.5L-9.4,-17.6L-9.5,-17.4C-9.733,-17.333 -9.967,-17.383 -10.2,-17.55" style="fill:#113544;"/>
                            <path d="M3.55,-20.05L3.7,-20L4.2,-19.65L4.7,-19.35L5.45,-18.8L6.4,-17.15L6.7,-16.25L6.85,-15.75L6.9,-15.55L6.95,-15.4L6.95,-15.35L6.75,-15.45L6.6,-15.5L6.65,-15.45L6.65,-15.4C6.65,-15.2 6.167,-15.017 5.2,-14.85L5.05,-14.85C4.183,-14.717 3.4,-14.867 2.7,-15.3L2.2,-15.65C1.933,-15.217 1.367,-14.8 0.5,-14.4C-0.4,-14.033 -0.5,-13.867 0.2,-13.9L5.3,-14L5.95,-14.05L6.85,-14.25L7.05,-14.35L6.9,-13.35L6.65,-12.6L6.8,-11.7L6.9,-10.85L6.95,-10.25L7,-9.9L7,-9.6L6.6,-10.4L7,-8.55L7.1,-7.8L7,-8.05L6.45,-9L6.35,-9.1L5.8,-10.35L6,-9.65L4,-11.55C2.7,-12.517 1.583,-13.083 0.65,-13.25L0.35,-13.3L0.55,-13.2L0.3,-13.3L0.25,-13.3L0.15,-13.35L-0.25,-13.45L-0.45,-13.25L-0.5,-13.3L-0.6,-13.35L-0.65,-13.35L-0.95,-13.3L-0.85,-13.45L-0.75,-13.65L-1.15,-13.1C-1.25,-11.967 -1.117,-10.783 -0.75,-9.55L-0.4,-8.55C-1.267,-9.217 -1.967,-9.867 -2.5,-10.5L-2.9,-11.1L-3.15,-11.45L-3.15,-11.3L-3.25,-10.8L-3.3,-10.7L-3.3,-10.6C-3.667,-9.8 -3.767,-9.117 -3.6,-8.55C-3.2,-7.05 -2.183,-5.617 -0.55,-4.25L-1.4,-4.6L-1.15,-4.25L-1.9,-4.6L-1.65,-4.3L-2.2,-4.55L-1.95,-4.2L-2.7,-4.55C-1.867,-3.45 -0.883,-2.733 0.25,-2.4L-2.1,-2.9L-2.1,-2.7L-2.6,-2.9L-2.6,-2.75L-2.9,-2.85L-2.9,-2.65L-3.4,-2.85L-3.4,-2.7L-2.85,-1.25L-3.8,-1.9L-3.85,-1.55L-3.9,-1.35L-4.3,-1.65L-4.6,-1.85L-4.65,-1.5L-4.7,-1.55L-5.2,-2.35L-5.65,-2.8C-5.883,-2.833 -6.117,-2.917 -6.35,-3.05L-8.15,-4.4C-9.583,-6.033 -10.45,-8.05 -10.75,-10.45C-10.85,-12.683 -10.6,-14.583 -10,-16.15L-9.85,-16.2C-9.583,-16.267 -9.283,-16.4 -8.95,-16.6L-8.85,-16.7C-8.117,-17.233 -7.417,-17.45 -6.75,-17.35L-6.4,-17.3L-5.1,-17.25C-4.667,-17.35 -4.25,-17.567 -3.85,-17.9C-3.483,-18.5 -2.917,-18.75 -2.15,-18.65L-1.5,-18.45L-0.05,-18.45C0.583,-18.517 1.083,-18.767 1.45,-19.2C1.917,-19.733 2.483,-20.017 3.15,-20.05L3.55,-20.05M7.45,-7.9L7.5,-7.65L7.55,-7.55L7.5,-7.55L7.25,-7.25L7.45,-7.9M9.55,-11.15L9.6,-10.8L9.45,-10.45L9.55,-11.15M0.95,-21.2L0.7,-21.1L-0.15,-20.2C-0.45,-19.9 -0.833,-19.7 -1.3,-19.6L-2.5,-19.6L-2.95,-19.7C-3.617,-19.8 -4.167,-19.583 -4.6,-19.05C-4.867,-18.717 -5.183,-18.5 -5.55,-18.4L-6.8,-18.45L-7.25,-18.55C-7.95,-18.65 -8.483,-18.433 -8.85,-17.9L-9.25,-17.5L-9.5,-17.4L-9.4,-17.6L-7.95,-19.5L-7.4,-20C-6.5,-20.5 -5.617,-21.017 -4.75,-21.55L-3.85,-21.8L-3.75,-21.85L-3.6,-21.9L0.5,-21.3L0.95,-21.2M0.3,-13.3L0.35,-13.3L0.3,-13.3M6.3,-7.75L6.2,-8L6.3,-7.8L6.3,-7.75M6.75,-7L6.75,-7.05L6.8,-7L6.75,-7M-0.65,-13.35L-0.7,-13.4L-0.75,-13.4L-0.85,-13.45L-0.8,-13.4L-0.65,-13.35" style="fill:#1c556c;"/>
                            <path d="M6.6,-20.2L6.65,-20.25L7,-20.05L7.3,-19.85L8.05,-19.3L9,-17.65L9.3,-16.75L9.5,-16.05L9.55,-15.9L9.65,-15.1L9.65,-14.7L9.6,-15.05L8.95,-15.05L7.35,-15.25L6.95,-15.35L6.95,-15.4L6.9,-15.55L6.85,-15.75L6.7,-16.25L6.4,-17.15L5.45,-18.8L4.7,-19.35L4.2,-19.65L3.7,-20L3.55,-20.05L3.65,-20.05L4.4,-19.9L5.8,-19.9C6.167,-19.967 6.433,-20.067 6.6,-20.2M0.2,-22.25L3.1,-21.8L4.15,-21.5L4.55,-21.35C4.283,-21.117 3.967,-20.967 3.6,-20.9L2.45,-20.9L1.5,-21.15L1.3,-21.2L0.95,-21.2L0.5,-21.3L-3.6,-21.9L-2.75,-22.1L-0.95,-22.4L-0.8,-22.4L0.2,-22.25M9.45,-13.8L9.5,-13.8L9.25,-13.1C9.383,-11.7 9.283,-11.083 8.95,-11.25L8.8,-10.85L7.5,-8.1L7.7,-9.35L7.4,-8.3L7,-9.6L7,-9.9L6.95,-10.25L6.9,-10.85L6.8,-11.7L6.65,-12.6L6.9,-13.35L7.05,-14.35L7.15,-14.35L7.3,-14.45L7.25,-14.5C7.35,-14.433 7.467,-14.35 7.6,-14.25C8.067,-14.017 8.6,-13.867 9.2,-13.8L9.45,-13.8" style="fill:#277494;"/>
                            <path d="M4.55,-21.35C4.783,-20.917 5.467,-20.533 6.6,-20.2C6.433,-20.067 6.167,-19.967 5.8,-19.9L4.4,-19.9L3.65,-20.05L3.15,-20.05L0.7,-21.1L0.95,-21.2L1.3,-21.2L1.5,-21.15L2.45,-20.9L3.6,-20.9C3.967,-20.967 4.283,-21.117 4.55,-21.35M6.95,-15.35L7.35,-15.25L8.95,-15.05L9.6,-15.05L9.65,-14.7L9.45,-13.8L9.2,-13.8C8.6,-13.867 8.067,-14.017 7.6,-14.25C7.467,-14.35 7.35,-14.433 7.25,-14.5L7.3,-14.45L7.15,-14.35L6.75,-15.45L6.95,-15.35" style="fill:#71bbdb;"/>
                        </g>
                    </g>
                </g>
                <g id="sprite14" transform="matrix(1,0,0,1,4.75,-52.55)">
                    <g id="shape16">
                        <path d="M0.8,2.3L1.05,2.1L1.15,2.3L0.8,2.65L0.8,2.3M0.7,2.8L0.7,2.75L0.75,2.75L0.95,2.8L1.05,3L1,3.15L0.9,3.25L0.75,3.3L0.7,3.3L0.75,3.25L0.85,3.2L0.85,2.95L0.7,2.8" style="fill:#fff;"/>
                        <path d="M0.8,2.3L1.05,2.1L1.15,2.3L1.1,2.35M0.8,2.3L0.4,2.55L-0.35,2.25L-1.15,3L-1,2.95L-0.85,2.95L-0.3,2.8L-0.2,2.8L0.45,3.05L0.7,2.8M-0.8,3.25L-0.3,3.45" style="fill:none;fill-rule:nonzero;stroke:#39ada0;stroke-width:0.05px;"/>
                        <path d="M-2.15,-1.2L-1.8,-0.95L-1.55,-0.15L-1.5,0.25L-1.5,0.35L-1.45,0.65L-1.55,0.75L-1.65,0.95L-5.8,1.3L-6.05,1.1L-6.9,0.05C-6.967,-0.45 -6.867,-0.767 -6.6,-0.9C-5.867,-1.467 -5.217,-1.767 -4.65,-1.8L-3.3,-1.65L-2.15,-1.2" style="fill:#1a5e56;"/>
                        <path d="M0.9,-4.35C1.467,-5.783 2.05,-6.533 2.65,-6.6" style="fill:none;fill-rule:nonzero;stroke:#000;stroke-opacity:0.45;stroke-width:0.05px;"/>
                        <path d="M-1.85,-3.15C-3.217,-4.083 -4.6,-4.2 -6,-3.5" style="fill:none;fill-rule:nonzero;stroke:#000;stroke-opacity:0.45;stroke-width:0.05px;"/>
                        <path d="M0.8,1.25L1.1,0.75" style="fill:none;fill-rule:nonzero;stroke:#000;stroke-opacity:0.3;stroke-width:0.05px;"/>
                        <path d="M1.75,-3.7L2.05,-4.05C2.317,-4.083 2.433,-3.8 2.4,-3.2L2.4,-1.5L2.35,-1.4L1.8,-1.15L1.8,-1.75L1.75,-3.7M1.1,-1.75L1.2,-2.15L1.3,-1.3L1.35,-0.9L1.1,-1.75" style="fill:#d0f2ef;"/>
                        <path d="M1.8,-1.75L1.8,-1.15L1.35,-0.9L1.3,-1.3L1.8,-1.75" style="fill:#666;"/>
                        <path d="M1.75,-3.7L1.8,-1.75L1.3,-1.3L1.2,-2.15L1.35,-2.6L1.75,-3.7" style="fill:#6ff;"/>
                        <path d="M1.75,-3.7L1.8,-1.75L1.8,-1.15L2.35,-1.4M1.3,-1.3L1.35,-0.9L1.8,-1.15M1.2,-2.15L1.3,-1.3" style="fill:none;fill-rule:nonzero;stroke:#000;stroke-opacity:0.45;stroke-width:0.05px;"/>
                        <path d="M2.4,-3.2C2.433,-3.8 2.317,-4.083 2.05,-4.05L1.75,-3.7L1.35,-2.6L1.2,-2.15L1.1,-1.75" style="fill:none;fill-rule:nonzero;stroke:#000;stroke-opacity:0.6;stroke-width:0.75px;"/>
                        <path d="M-1.85,-0.45L-1.8,-0.05L-1.8,0L-1.75,0.3L-1.85,0.4L-1.95,0.55L-2.6,0.6L-2.45,0.15L-2.45,-0.55L-1.85,-0.45M-4.55,0.8L-5.7,0.9L-5.95,0.7L-6.7,-0.25L-4.75,-0.7L-4.75,-0.05L-4.55,0.8" style="fill:#fff;"/>
                        <path d="M-6.7,-0.25C-6.767,-0.717 -6.683,-1 -6.45,-1.1C-5.783,-1.633 -5.183,-1.917 -4.65,-1.95L-4.75,-0.7L-6.7,-0.25M-2.4,-1.4L-2.05,-1.15L-1.85,-0.45L-2.45,-0.55L-2.4,-1.4" style="fill:#d0f2ef;"/>
                        <path d="M-2.6,0.6L-4.55,0.8L-4.75,-0.05L-4.75,-0.7L-4.15,-0.8L-2.45,-0.55L-2.45,0.15L-2.6,0.6" style="fill:#6ff;"/>
                        <path d="M-4.65,-1.95L-3.45,-1.8L-2.4,-1.4L-2.45,-0.55L-4.15,-0.8L-4.75,-0.7L-4.65,-1.95" style="fill:#02d2d2;"/>
                        <path d="M-1.85,0.4L-1.95,0.55L-2.6,0.6L-4.55,0.8L-5.7,0.9L-6.35,0.95M-4.65,-1.95L-4.75,-0.7L-4.75,-0.05L-4.55,0.8M-2.45,-0.55L-2.4,-1.4M-2.6,0.6L-2.45,0.15L-2.45,-0.55" style="fill:none;fill-rule:nonzero;stroke:#000;stroke-opacity:0.45;stroke-width:0.05px;"/>
                        <path d="M-6.45,-1.1C-5.783,-1.633 -5.183,-1.917 -4.65,-1.95L-3.45,-1.8L-2.4,-1.4L-2.05,-1.15" style="fill:none;fill-rule:nonzero;stroke:#000;stroke-opacity:0.6;stroke-width:1px;"/>
                        <path d="M-3.95,-0.3L-4.4,-1.05C-4.633,-0.917 -4.9,-0.767 -5.2,-0.6L-4.95,0.75L-3.95,-0.3" style="fill:#fff;"/>
                    </g>
                </g>
                <g id="sprite15" transform="matrix(1,0,0,1,-8.35,-28.75)">
                    <g id="shape17">
                        <path d="M-0.85,6.6L-2.35,5.8L-2.5,4.9L-2.5,4.75L-4.25,2.65L-3.7,-0.05L-1.4,-1.65L2.1,-0.9L3.65,2.05L2.15,4.35L1.1,4.5L0.35,6.55L-0.85,6.6" style="fill:#b6ebe4;"/>
                        <path d="M-1.4,-1.65L-1.7,-1.75L-1.55,-1.85L2.7,-0.9L4.25,2.05L3.65,2.95L3.65,3L2.75,4.35L1.7,4.5L0.95,6.55L-1.2,6.65L-1.25,6.65L-0.85,6.6L0.35,6.55L1.1,4.5L2.15,4.35L3.65,2.05L2.1,-0.9L-1.4,-1.65" style="fill:#fff;"/>
                        <path d="M-1.4,-1.65L-3.7,-0.05L-4.25,2.65L-2.5,4.75L-2.5,4.9L-2.35,5.8L-0.85,6.6L-1.25,6.65L-2.75,5.8L-2.9,4.9L-2.9,4.75L-4.65,2.65L-4.1,-0.05L-1.7,-1.75L-1.4,-1.65" style="fill:#73d9c4;"/>
                        <path d="M-0.85,6.6L-2.35,5.8L-2.5,4.9L-2.5,4.75L-4.25,2.65L-3.7,-0.05L-1.4,-1.65" style="fill:none;fill-rule:nonzero;stroke:#c6c6c6;stroke-opacity:0.3;stroke-width:0.05px;"/>
                        <path d="M-1.7,-1.75L-4.1,-0.05L-4.65,2.65L-2.9,4.75L-2.9,4.9L-2.75,5.8L-1.25,6.65L-1.2,6.65L0.95,6.55L1.7,4.5L2.75,4.35L3.65,3L3.65,2.95L4.25,2.05L2.7,-0.9L-1.55,-1.85L-1.7,-1.75" style="fill:none;fill-rule:nonzero;stroke:#000;stroke-opacity:0.3;stroke-width:0.05px;"/>
                    </g>
                </g>
                <g id="sprite16" transform="matrix(1,0,0,1,-6.45,-37.25)">
                    <g id="sprite17">
                        <g id="shape18">
                            <path d="M-2.9,8.65C-1.233,2.95 0.2,-0.117 1.4,-0.55C0.733,1.817 0.233,4.017 -0.1,6.05C-0.233,7.15 -0.217,7.7 -0.05,7.7L-1.35,8.55L-2.9,8.65" style="fill:#b6ebe4;"/>
                            <path d="M0.85,-1.2L0.8,-1.2L0.85,-1.2L1.45,-0.7L1.4,-0.55C0.2,-0.117 -1.233,2.95 -2.9,8.65L-3.55,8.2L-3.95,7.45L-3.95,7.4L-3.4,6.3L-1.05,-1.45C-0.617,-1.85 -0.15,-1.9 0.35,-1.6L0.85,-1.2" style="fill:#73d9c4;"/>
                            <path d="M0.8,-1.2L0.85,-1.2M-1.05,-1.45L-3.4,6.3L-3.95,7.4L-3.95,7.45M1.4,-0.55L1.45,-0.7M1.4,-0.55C0.733,1.817 0.233,4.017 -0.1,6.05C-0.233,7.15 -0.217,7.7 -0.05,7.7" style="fill:none;fill-rule:nonzero;stroke:#000;stroke-opacity:0.45;stroke-width:0.05px;"/>
                        </g>
                    </g>
                    <g id="shape19">
                        <path d="M-0.3,5.9L-0.15,5.85L0.05,5.75L0.05,7.15L-0.7,7.6L-1.35,7.75L-0.3,7.2L-0.3,5.9M-2.45,7.8L-2.5,7.9L-2.55,8.15L-2.8,8.35L-2.75,8.25L-2.7,8.2L-2.65,7.75L-2.45,7.8M-1.8,1.3L-1.8,1.15L-1.55,1.2L-1.65,1.6L-2.1,5.55L-1.2,6L-0.9,6.05L-0.9,6.15L-1.75,6L-2.3,5.65L-2.2,5.15L-2.2,4.8L-2.15,4.7L-2.1,4.35L-2.1,4.3L-2,3.45L-1.95,3.25L-1.9,2.35L-1.85,2.15L-1.85,1.7L-1.75,1.4L-1.75,1.3L-1.8,1.3" style="fill:#e0a00e;"/>
                        <path d="M-1.8,7.75L-2.45,7.65L-2.45,7.8L-2.65,7.75L-2.7,8.2L-2.75,8.25L-2.8,8.35L-2.9,7.95L-2.85,7.9L-2.35,4.85L-2.35,4.75L-1.8,1.3L-1.75,1.3L-1.75,1.4L-1.85,1.7L-1.85,2.15L-1.9,2.35L-1.95,3.25L-2,3.45L-2.1,4.3L-2.1,4.35L-2.15,4.7L-2.2,4.8L-2.2,5.15L-2.3,5.65L-1.75,6L-0.9,6.15L-0.9,7.25L-1.8,7.75" style="fill:#fbc904;"/>
                        <path d="M-1.35,7.75L-1.8,7.75L-0.9,7.25L-0.9,6.05L-0.3,5.9L-0.3,7.2L-1.35,7.75" style="fill:#fcdb58;"/>
                        <path d="M-0.3,5.9L-0.15,5.85L0.05,5.75L0.05,7.15L-0.7,7.6L-1.35,7.75L-1.8,7.75L-2.45,7.65L-2.45,7.8L-2.5,7.9L-2.55,8.15L-2.8,8.35L-2.9,7.95L-2.85,7.9L-2.35,4.85L-2.35,4.75L-1.8,1.3L-1.8,1.15L-1.55,1.2L-1.65,1.6L-2.1,5.55L-1.2,6L-0.9,6.05L-0.3,5.9Z" style="fill:none;fill-rule:nonzero;stroke:#000;stroke-opacity:0.3;stroke-width:0.05px;"/>
                        <path d="M0.35,1.75L0.3,1.85L0.2,2.2L0.05,2.6L0,2.75L-0.35,3.65L-0.4,3.8L-0.65,4.65L-0.75,5L-0.75,5.15L-0.8,5.2L-0.9,5.45L-1.05,5.95L-1.65,6L-2.55,5.8L-2.5,5.7L-2.15,5.75L-1.2,5.75L0.1,2L0.2,1.6L0.4,1.65L0.35,1.75M-1.85,7.95L-1.6,8L-1.75,8.4L-1.75,8.6L-1.9,8.3L-1.85,8.05L-1.85,7.95M-2.8,7.45L-3.3,7L-3.8,6.3L-3.2,5.05L-3.05,5.2L-3,5.3L-3.55,6.5L-2.8,7.45" style="fill:#e0a00e;"/>
                        <path d="M-2.55,5.8L-1.65,6L-1.05,5.95L-0.9,5.45L-0.8,5.2L-0.75,5.15L-0.75,5L-0.65,4.65L-0.4,3.8L-0.35,3.65L0,2.75L0.05,2.6L0.2,2.2L0.3,1.85L0.35,1.75L-0.65,5.15L-0.7,5.25L-1.55,8.2L-1.5,8.25L-1.65,8.4L-1.75,8.6L-1.75,8.4L-1.6,8L-1.85,7.95L-1.8,7.8L-2.4,7.6L-3,6.8L-2.55,5.8" style="fill:#fbc904;"/>
                        <path d="M-2.5,5.7L-2.55,5.8L-3,6.8L-2.4,7.6L-2.8,7.45L-3.55,6.5L-3,5.3L-2.5,5.7" style="fill:#fcdb58;"/>
                        <path d="M0.35,1.75L0.4,1.65L0.2,1.6L0.1,2L-1.2,5.75L-2.15,5.75L-2.5,5.7L-3,5.3L-3.05,5.2L-3.2,5.05L-3.8,6.3L-3.3,7L-2.8,7.45L-2.4,7.6L-1.8,7.8L-1.85,7.95M-1.75,8.6L-1.65,8.4L-1.5,8.25L-1.55,8.2L-0.7,5.25L-0.65,5.15L0.35,1.75L-1.75,8.6Z" style="fill:none;fill-rule:nonzero;stroke:#000;stroke-opacity:0.3;stroke-width:0.05px;"/>
                        <path d="M-2,8.05L-2.05,8.05L-2.15,8C-2.217,7.933 -2.267,7.9 -2.3,7.9L-2.8,7.55L-3.4,7.15L-3.45,7L-3.6,6.9L-4.05,6.25L-4.4,5.15L-4.35,4.9L-4.1,4.1L-4.1,4.05L-3.6,3.45L-3.35,3.1L-3.3,3L-2.6,2.35L-1.9,2L-1.7,1.85L-1.25,1.65L-1.1,1.55L-0.9,1.45L-1.05,2.45L-2.2,2.15L-1.05,2.45L-1.2,3.55L-1.35,4.35L-1.35,4.4L-1.45,4.6L-1.55,5.3L-1.65,6.3L-1.8,6.8L-2,8.05M-3.45,7L-1.9,6.85L-1.8,6.8L-1.9,6.85L-3.45,7M-1.2,3.55L-1.25,3.55L-3.35,3.1L-1.25,3.55L-1.2,3.55M-4.05,6.25L-1.65,6.3L-4.05,6.25M-1.55,5.3L-4.4,5.15L-1.55,5.3M-1.45,4.6L-4.1,4.1L-1.45,4.6" style="fill:#bff0f5;fill-opacity:0.72;"/>
                        <path d="M-0.9,1.45L-1.1,1.55L-1.25,1.65L-1.7,1.85L-1.9,2L-2.6,2.35L-3.3,3L-3.35,3.1L-3.6,3.45L-4.1,4.05L-4.1,4.1L-4.35,4.9L-4.4,5.15L-4.05,6.25L-3.6,6.9L-3.45,7L-3.4,7.15L-2.8,7.55L-2.3,7.9C-2.267,7.9 -2.217,7.933 -2.15,8L-2.05,8.05L-2,8.05L-2,8.1L-2.15,8.05L-2.2,8L-2.3,7.95C-2.5,7.817 -2.667,7.717 -2.8,7.65L-3.6,7.1C-5.1,6 -5.5,4.933 -4.8,3.9L-3.6,2.6C-3.067,2.133 -2.483,1.75 -1.85,1.45L-1.75,1.45L-1.25,1.2L-1.25,1.15L-0.9,1.3L-0.9,1.45" style="fill:#fff;fill-opacity:0.72;"/>
                        <path d="M-1.8,6.8L-1.9,6.85L-3.45,7M-2.2,2.15L-1.05,2.45M-3.35,3.1L-1.25,3.55L-1.2,3.55M-4.1,4.1L-1.45,4.6M-4.4,5.15L-1.55,5.3M-1.65,6.3L-4.05,6.25" style="fill:none;fill-rule:nonzero;stroke:#d1f1eb;stroke-opacity:0.45;stroke-width:0.05px;"/>
                    </g>
                </g>
                <g id="sprite18" transform="matrix(1,0,0,1,-4.35,-43.2)">
                    <g id="sprite19">
                        <g id="shape20">
                            <path d="M-1.1,1.95L-1.15,1.95L-1.2,1.9L-1.1,1.95" style="fill:#abb388;"/>
                            <path d="M0.2,-1.9L0.55,-1.8L0.6,-1.75L1.2,-1.25L1.65,-0.2C1.65,0.1 1.517,0.25 1.25,0.25C-0.15,-0.083 -0.85,-0.383 -0.85,-0.65C-0.85,-0.917 -0.5,-1.333 0.2,-1.9" style="fill:#b6ebe4;"/>
                            <path d="M2.3,-2.8C2.333,-1.433 2.2,-0.6 1.9,-0.3L2.2,0.95C1.767,0.75 1.25,1.05 0.65,1.85L-0.8,5.5L-1.05,6.2L-1.85,7.8C-2.783,8.333 -3.467,8.217 -3.9,7.45L-3.9,6.95L-3.5,5.25C-2.967,3.983 -2.583,2.533 -2.35,0.9L-2.15,-0.55L-2,-0.85L-0.2,-2.2L2.3,-2.8M0.2,-1.9C-0.5,-1.333 -0.85,-0.917 -0.85,-0.65C-0.85,-0.383 -0.15,-0.083 1.25,0.25C1.517,0.25 1.65,0.1 1.65,-0.2L1.2,-1.25L0.6,-1.75L0.55,-1.8L0.2,-1.9M-1.1,1.95L-1.2,1.9L-1.15,1.95L-1.1,1.95M1.05,0.9L0.65,1.85L1.05,0.9" style="fill:#73d9c4;"/>
                            <path d="M2.2,0.95C1.767,0.75 1.25,1.05 0.65,1.85L-0.8,5.5L-1.05,6.2L-1.85,7.8M-3.9,7.45L-3.9,6.95L-3.5,5.25C-2.967,3.983 -2.583,2.533 -2.35,0.9L-2.15,-0.55L-2,-0.85L-0.2,-2.2L2.3,-2.8M0.65,1.85L1.05,0.9" style="fill:none;fill-rule:nonzero;stroke:#000;stroke-opacity:0.45;stroke-width:0.05px;"/>
                            <path d="M-0.1,-0.95L0.3,-0.9L0.8,-0.4L0.75,0.5L0.25,1.1L-0.2,1.3L-0.45,1.3L0.05,1.05L0.1,1L0.45,0.5L0.5,-0.4L0,-0.9L-0.1,-0.95M-0.95,1.05L-1.7,2.95L-2.05,2.75L-1.15,0.9L-1,1L-0.95,1.05M-1.1,3.3L-0.25,3.45C-0.25,4.283 -0.467,4.967 -0.9,5.5L-1.85,5.45C-1.35,4.917 -1.1,4.2 -1.1,3.3M-2.55,5.15L-3.3,7.35L-3.5,7.3L-3.5,7.2L-2.75,5L-2.55,5.15" style="fill:#fcdb58;"/>
                            <path d="M-0.45,1.3L-0.55,1.2L-0.7,1L-0.85,0.9L-0.95,1.05L-1,1L-1.15,0.9L-2.05,2.75L-1.7,2.95L-1.1,3.3C-1.1,4.2 -1.35,4.917 -1.85,5.45L-2.05,5.4L-2.55,5.15L-2.75,5L-3.5,7.2L-3.5,7.3L-3.6,7.4L-3.55,7.25L-3.1,5.85L-2.7,4.4L-2.25,3.15L-2.15,2.9L-2.1,2.75L-1.65,1.8L-1.1,0.55L-0.65,-0.4L-0.6,-0.6L-0.45,-0.85L-0.35,-0.85L-0.1,-0.95L0,-0.9L0.5,-0.4L0.45,0.5L0.1,1L0.1,0.3L0.05,0.05L-0.05,-0.25L-0.25,-0.5L-0.3,-0.35L-0.45,-0.5L-0.75,0.2L-0.5,0.2L-0.3,0.35L-0.4,0.7L-0.4,0.75L-0.3,0.9L-0.15,0.8L-0.1,0.9L0.05,1.05L-0.45,1.3M-0.6,0.25L-0.55,0.2L-0.6,0.25" style="fill:#fbc904;"/>
                            <path d="M-0.25,3.45L0.1,3.45C0.1,4.35 -0.15,5.017 -0.65,5.45L-0.9,5.5C-0.467,4.967 -0.25,4.283 -0.25,3.45M-0.55,0.2L-0.75,0.2L-0.45,-0.5L-0.3,-0.35L-0.55,0.2M-0.5,0.2L-0.3,0.2L-0.1,0.35L-0.2,0.7L-0.2,0.75L-0.15,0.8L-0.3,0.9L-0.4,0.75L-0.4,0.7L-0.3,0.35L-0.5,0.2" style="fill:#e0a00e;"/>
                            <path d="M-0.1,-0.95L0.3,-0.9L0.8,-0.4L0.75,0.5L0.25,1.1L-0.2,1.3L-0.45,1.3M-0.95,1.05L-1.7,2.95L-1.1,3.3L-0.25,3.45L0.1,3.45C0.1,4.35 -0.15,5.017 -0.65,5.45L-0.9,5.5L-1.85,5.45L-2.05,5.4L-2.55,5.15L-3.3,7.35L-3.5,7.3M-0.45,-0.85L-0.35,-0.85M-0.3,-0.35L-0.25,-0.5L-0.05,-0.25L0.05,0.05L0.1,0.3L0.1,1M-0.3,-0.35L-0.55,0.2M-0.5,0.2L-0.3,0.2L-0.1,0.35L-0.2,0.7L-0.2,0.75L-0.15,0.8" style="fill:none;fill-rule:nonzero;stroke:#000;stroke-opacity:0.3;stroke-width:0.05px;"/>
                            <path d="M-1.95,0.25L-1.9,0.35L-1.75,0.7L-1.9,0.55L-2.1,0.15L-2.1,-0.55L-1.6,-1.2L-1,-1.25C-0.833,-1.25 -0.733,-1.183 -0.7,-1.05L-0.8,-1.1L-1.4,-1.05L-1.9,-0.35L-1.95,0.2L-1.95,0.25M-1.25,0.85L-1,0.85L-1.45,2.65L-1.9,3.05L-1.25,0.85M-2.65,2.7L-2.7,2.6L-2.65,2.4L-2.65,2.7M-3.15,4.25L-3.15,4.4L-3.2,4.4L-3.15,4.25M-2.45,4.65L-2.45,4.6L-2.3,4.65L-3,6.55L-3.05,6.65L-3.25,6.55L-2.45,4.65" style="fill:#fcdb58;"/>
                            <path d="M-0.9,-0.55L-0.85,-0.65L-1.1,-0.55L-1.4,-0.45L-1.5,-0.3L-1.95,0.2L-1.9,-0.35L-1.4,-1.05L-0.8,-1.1L-0.7,-1.05L-0.55,-0.85L-0.5,-0.8L-0.55,-0.5L-0.6,-0.4L-0.85,0.6L-1.2,1.75L-1.45,2.65L-1,0.85L-1.25,0.85L-1.2,0.7L-1.4,0.65L-1.6,0.7L-1.75,0.7L-1.9,0.35L-1.95,0.25L-1.75,0.25L-1.65,0.2L-1.6,0.35L-1.45,0.3L-1.4,0.3L-1.3,-0.05L-1.05,0L-1,0L-0.9,0.15L-0.7,-0.55L-0.9,-0.55M-1.9,3.05L-1.45,2.65L-1.45,2.8L-1.55,3.05L-1.95,4.15L-2.5,5.45L-3,6.55L-2.3,4.65L-2.45,4.6L-2.45,4.65L-2.8,4.9L-3.15,4.4L-3.15,4.25C-3.283,3.783 -3.133,3.233 -2.7,2.6L-2.65,2.7L-1.9,3.05" style="fill:#fbc904;"/>
                            <path d="M-0.9,-0.55L-0.7,-0.55L-0.9,0.15L-1,0L-0.9,-0.55M-1.05,0L-1.3,-0.05L-1.4,0.3L-1.45,0.3L-1.6,0.35L-1.65,0.2L-1.6,0.15L-1.55,0.15L-1.45,-0.15L-1.2,-0.15L-1.05,0" style="fill:#e0a00e;"/>
                            <path d="M-1.95,0.2L-1.5,-0.3L-1.4,-0.45L-1.1,-0.55L-0.85,-0.65L-0.9,-0.55M-0.5,-0.8L-0.55,-0.85M-0.7,-1.05L-0.8,-1.1M-1.75,0.7L-1.9,0.55L-2.1,0.15L-2.1,-0.55L-1.6,-1.2L-1,-1.25C-0.833,-1.25 -0.733,-1.183 -0.7,-1.05M-1.65,0.2L-1.6,0.15L-1.55,0.15L-1.45,-0.15L-1.2,-0.15L-1.05,0M-1.9,3.05L-2.65,2.7M-2.7,2.6C-3.133,3.233 -3.283,3.783 -3.15,4.25L-3.2,4.4M-1.9,3.05L-1.25,0.85M-2.7,2.6L-2.65,2.4M-3,6.55L-3.05,6.65L-3.25,6.55L-2.45,4.65" style="fill:none;fill-rule:nonzero;stroke:#000;stroke-opacity:0.3;stroke-width:0.05px;"/>
                            <path d="M-3.6,7.25L-4.1,7.1C-6.3,5.1 -6.683,3.367 -5.25,1.9C-3.75,0.367 -2.217,-0.567 -0.65,-0.9L-0.35,-1L-0.35,-0.95L-0.45,-0.85L-0.6,-0.6L-0.65,-0.4C-1.45,-0.2 -2.167,0.183 -2.8,0.75L-3.25,1L-3.8,1.55L-4.35,2.05L-4.9,2.6L-5.25,3.75L-5.1,5.15L-3.6,6.7L-3.6,7.25" style="fill:#fff;fill-opacity:0.72;"/>
                            <path d="M-0.65,-0.4L-1.1,0.55L-1.65,1.8L-2.1,2.75L-2.15,2.9L-2.25,3.15L-2.7,4.4L-3.1,5.85L-3.55,7.25L-3.6,7.4L-3.6,6.7L-5.1,5.15L-5.25,3.75L-4.9,2.6L-4.35,2.05L-3.8,1.55L-3.25,1L-2.8,0.75C-2.167,0.183 -1.45,-0.2 -0.65,-0.4M-2.7,4.4L-5.25,3.75L-2.7,4.4M-3.1,5.85L-5.1,5.15L-3.1,5.85M-2.8,0.75L-1.1,0.55L-2.8,0.75M-1.65,1.8L-3.8,1.55L-1.65,1.8M-2.25,3.15L-4.9,2.6L-2.25,3.15" style="fill:#bcf8fe;fill-opacity:0.81;"/>
                            <path d="M-4.9,2.6L-2.25,3.15M-3.8,1.55L-1.65,1.8M-1.1,0.55L-2.8,0.75M-5.1,5.15L-3.1,5.85M-5.25,3.75L-2.7,4.4" style="fill:none;fill-rule:nonzero;stroke:#d1f1eb;stroke-opacity:0.45;stroke-width:0.05px;"/>
                        </g>
                    </g>
                </g>
            </g>
        </g>
    </g>
    <defs>
        <radialGradient id="_Radial1" cx="0" cy="0" r="1" gradientUnits="userSpaceOnUse" gradientTransform="matrix(10.0762,0.4096,-0.8192,18.6778,3.05,4.85)"><stop offset="0" style="stop-color:#7cd8ce;stop-opacity:0.2"/><stop offset="0.02" style="stop-color:#7cd8ce;stop-opacity:0.2"/><stop offset="1" style="stop-color:#2f5873;stop-opacity:0.51"/></radialGradient>
    </defs>
</svg>
