<svg width="258" height="310" xmlns="http://www.w3.org/2000/svg" xmlns:xlink="http://www.w3.org/1999/xlink">
 <defs>
  <g transform="matrix(1,0,0,1,1.45,112.2) " id="sprite0">
   <use id="svg_1" xlink:href="#shape0" width="184.7" transform="matrix(1,0,0,1,-1.45,-112.2) " height="223.5"/>
  </g>
  <g transform="matrix(1,0,0,1,1.45,112.2) " id="shape0">
   <path id="svg_2" stroke-width="3" stroke-opacity="0.721569" stroke-linejoin="round" stroke-linecap="round" stroke="#171a28" fill="none" d="m126.8,-101.85l-0.3,-0.4"/>
   <path id="svg_3" stroke-width="3" stroke-opacity="0.721569" stroke-linejoin="round" stroke-linecap="round" stroke="#171a28" fill="none" d="m139,-100.35q-1.7,1.9 -2.85,3.6q0.25,-2 0,-5.4l-0.6,-5.05l-0.95,4.95q-0.8,3.7 -1.8,6.45l-0.4,1.05l-5.6,-7.1l0.25,0.35q1.7,2.65 1.75,6.9l-0.45,4q-2,0.95 -3.75,2.45l-0.35,0.3l-0.75,0.65l-0.65,0.6l-1.55,1.8q-1.05,1.3 -1.8,2.8l-1.05,2.2l-1.45,-0.65q-11.1,0.65 -22.25,3.65l-6,1.75l-11.75,5.15l-6.65,16.05l0.5,1.25l-7.75,3.8l-5.05,-5.85l-1.35,0.85q-0.85,2.9 -0.2,7q1.05,6.3 3.95,11.45l0.7,0.85l-0.15,0.85q-0.7,4 -0.75,7.65q0.6,10.35 3.6,19.9l1.3,3.75l0.4,1.15l0.1,-1.15q0.2,-1.95 0.85,-3.75q0.95,-2.8 2.95,-5.35l6.45,-5.9l0.45,-0.4l2.85,5.35l3.05,0.15l0.2,0.55q-0.85,0.9 -0.8,2.6q0,1.4 0.65,2.85l0.05,0.05l0.05,0.1l0.15,0.3l0.5,0.95q1.3,1.95 3,2.9q8.3,6.5 16.2,10.45l4.3,2l0.9,0.35q1.55,0.6 3.35,0.7q-1.25,1.4 -1.45,2.7l-0.05,1l-5.8,3.2l-3.6,0.6l-4.15,0.9l-4.55,1.4l-14.1,10.5l-17.45,5.85l-0.9,-0.1l-0.25,-0.1q5.9,-5.45 4,-13.25l-0.4,-1.45l-0.75,-2.25l1.25,-0.3q2.8,-0.65 3.95,-2.5q1.15,-1.8 0.45,-3q-0.7,-1.25 -2.9,-1.15q-2.15,0.05 -4.5,1.45l-0.55,0.3q-1.2,-2.25 -2.75,-4.1l-1.8,-1.8l0.1,-0.05l-2.8,-6.45q0.65,2.5 -0.35,4.55l-1.95,-0.75q-2.6,-8.1 -9.8,-13.75l-5.35,-3.5q2.55,1.95 4.3,4.25l0.8,1.1q1.35,2.05 2.15,4.4l0.05,0.2l0.1,0.3q0.85,2.9 0.8,6.15q-0.65,-3.05 -6.75,-5.7q-1.95,-0.05 -4.35,0.55q3.55,0.4 5.1,2.3q1.15,1.45 1.1,3.85q-0.55,-0.7 -1.85,-1.2q-1.45,-0.65 -4.1,1.95l3.05,0.4q-1.95,0.95 -3.55,2.4l-0.6,0.5q-3.05,2.8 -4.4,6.35l-2.5,-0.65q-1.15,-0.65 -2.9,-0.8l1.25,0.65l-2.6,0.2l-1.35,0.3l-1,0.3q-1.15,0.4 -2.15,0.95q0,-1.25 0.6,-2.9q-1.55,1.4 -2.7,4.2q-2.1,1.55 -3.5,3.9l-0.2,0.3l-0.4,0.7l-0.35,0.65q-1.05,2.1 -1.45,4.35l-0.75,-0.4l-2.25,-0.85l-1.45,-0.15q-1.8,0 -2.3,1q-0.5,1 0.5,2.45q0.7,0.95 2,1.5l1.3,0.35l2.65,0.6l0.05,0.45l0.15,1.25q0.9,5.9 6.55,8.25l1.1,0.4l-0.3,0.8q-1.35,0.8 -2.1,1.95q-0.8,1.2 -0.5,2.1l0.05,0.15l-5.2,2.55l-5.4,7.95l1.2,3.8q0.75,2.1 1.85,4.35l11.8,3.85l4.15,-0.9l4.85,3.45l9.45,-2.1l4.35,2.65l4.35,-4.1l4.85,1l4.1,-3.05l4.6,0l3.85,-3.1l4.1,0.55l3.35,-9.5l-0.25,-0.75l3.65,-0.75l0.4,-0.1l0.35,-0.1q7.55,-2 14.75,-6.15q0.1,17.7 -2.55,26.6l2.55,7.35l-0.2,5.65q-5.55,2.85 -11.1,5.65l1,5.7l-1.45,10l71.1,0l0,-1.1l-2.05,-11.3l4.9,-14.2l-3.55,-3.9l-0.1,0l-8.45,-0.85l0.45,-5.45l5.85,-9.75l0.1,-0.35l0,0.35l-0.1,0l-1.9,6.3l1.3,5.6l3.5,0.9l0.05,0l8.55,0.7l7.6,14.8l11.25,3.05l4.65,-2.55l3.55,-11.75l-2.3,-7.45l-0.25,0l-1.15,-9.9l-3.05,-4l0.6,-1.45l-0.25,-2.1l-0.75,-6.35l-5.25,-1.2l-9.3,-12.15l-0.35,0l-0.05,-0.7l-0.2,-2.65l-2.15,-1.35l-1.8,-3.05l0,-0.05q0.7,-0.9 0.1,-2.4q-0.55,-1.3 -1.8,-2.4l-0.1,-0.3l1.65,-1.7q2.95,-3.5 3.75,-8.05l0.05,-0.4q0.65,-4.15 -0.3,-8.35l-0.4,-1.7q1.7,-0.4 3.1,0.6q1.7,1.2 2.6,3.05q-0.25,-2.15 -0.9,-4l-0.65,-1.35q-1.3,-2.15 -3.95,-2.7l-1.35,-0.15l-0.8,0.05l-0.9,0.2l0.8,-0.45q1.6,-0.85 3.35,-1.3l1.5,-0.35l3.35,-0.4l4.05,1l4.25,1.35l-2.5,-1.75q-3.55,-2.5 -7.65,-3.7q-3.9,-1.05 -7.9,-0.75l-0.05,0l-0.3,0.05l8.85,-11.6l-7.35,-24.1l-0.3,-1.6l-0.3,-1.35l-0.65,-1.25l-0.9,-1.5l16.75,-8.6q3.45,-2.7 3.6,-6.55q-0.3,-9.1 -4.2,-17.05q-1.8,-3.45 -4.05,-5.4l-2.25,-1.5l-2.65,0.9l-2,12.75l-5.9,2.65l0.3,-3.05l-0.2,-2.75q-0.35,-2.6 -1.5,-4.85l-0.25,-0.5l-2.2,-3.25l-0.8,-0.8l-0.05,-0.05q-2,-2 -4.35,-3.2l-0.6,-0.3l1.6,-1.8l0.65,-0.65q1.85,-1.75 3.8,-2.7q1.65,-0.8 3.45,-1.05l-4.05,0.5q-3.55,0.65 -6.4,2.25l-0.2,-0.1l-2.4,-0.95q0.75,-2.5 2.35,-5.35q2.45,-4.5 7.1,-9.9q-5.75,5.15 -9.4,9.2l-1,1.15m17.5,98.45l-0.1,-0.25m3.25,37.15l0.4,0.7m-14.7,43.6l0.05,-0.05l0.05,0.05m-108.9,-76.25l-1.95,-0.05m-25.45,20.75l-0.2,-0.6l0.4,0.3m8.75,-6.45q0.4,-1.4 0.3,-2.7l-0.35,-1.7m1.4,4.1q-0.7,-1.1 -1.05,-2.4"/>
  </g>
  <g transform="matrix(1,0,0,1,19.05,29.75) " id="shape1">
   <path id="svg_4" fill-rule="evenodd" fill="#b69f5c" d="m-18.05,-13.05l0.15,-0.6q0.65,-2.75 2.05,-5.15l1.8,-2.8l1.55,-1.8l0.65,-0.6l0.75,-0.65l0.35,-0.3q2.55,-2.2 5.6,-3.25l3,-0.75l2.9,-0.25l1.25,0l1.7,0.2l3.2,0.75l1.85,0.8q2.35,1.2 4.35,3.2l0.05,0.05l0.8,0.8q1.3,1.5 2.2,3.25l0.25,0.5q0.4,3.35 -0.55,6.05q-0.6,1.7 -1.65,3.1l-1.65,1.75q-5.1,2.65 -10.95,2.6l-8.8,-0.35q-3.35,-0.25 -6.6,-1.4q-3.6,-1.65 -4.15,-4.3l-0.1,-0.85m16.7,19.5l-1,0.5q-0.45,-0.4 -0.3,-2.8q3.4,-1.45 3.7,-0.75q-0.6,2.35 -2,2.5l-0.4,0.55"/>
   <path id="svg_5" fill-rule="evenodd" fill="#a3771a" d="m16.4,-19.65q1.15,2.25 1.5,4.85l0.2,2.75q-0.1,7.1 -5.35,12.1q-4.8,4.55 -11.75,5.2l-2.35,1.2l0.4,-0.55q1.4,-0.15 2,-2.5q-0.3,-0.7 -3.7,0.75q-0.15,2.4 0.3,2.8l-1.1,0.55q-2.35,0.15 -3.75,-3.1l-1.1,-0.4q-1.9,-0.75 -3.6,-1.85l-1.95,-1.5l-1.5,-1.5q-4.05,-4.5 -3,-10.7l0.1,-0.65l0.2,-0.85l0.1,0.85q0.55,2.65 4.15,4.3q3.25,1.15 6.6,1.4l8.8,0.35q5.85,0.05 10.95,-2.6l1.65,-1.75q1.05,-1.4 1.65,-3.1q0.95,-2.7 0.55,-6.05m-12.7,22.9l-2.7,2l2.7,-2m-10.9,1.15l-1.45,-1.35l1.45,1.35"/>
   <path id="svg_6" stroke-linejoin="round" stroke-linecap="round" stroke="#845c08" fill="none" d="m-18.05,-13.05l0.15,-0.6q0.65,-2.75 2.05,-5.15l1.8,-2.8l1.55,-1.8l0.65,-0.6l0.75,-0.65l0.35,-0.3q2.55,-2.2 5.6,-3.25l3,-0.75l2.9,-0.25l1.25,0l1.7,0.2l3.2,0.75l1.85,0.8q2.35,1.2 4.35,3.2l0.05,0.05l0.8,0.8q1.3,1.5 2.2,3.25m0.25,0.5q1.15,2.25 1.5,4.85l0.2,2.75q-0.1,7.1 -5.35,12.1q-4.8,4.55 -11.75,5.2l-2.35,1.2l-1,0.5l-1.1,0.55q-2.35,0.15 -3.75,-3.1l-1.1,-0.4q-1.9,-0.75 -3.6,-1.85l-1.95,-1.5l-1.5,-1.5q-4.05,-4.5 -3,-10.7l0.1,-0.65l0.2,-0.85m9.4,16.1l1.45,1.35m8.2,0.85l2.7,-2"/>
  </g>
  <g transform="matrix(1,0,0,1,6.6,2.75) " id="shape2">
   <path id="svg_7" fill-rule="evenodd" fill-opacity="0.321569" fill="#af077d" d="m4.7,-1.95q1.9,0.8 1.95,2q-0.05,1.15 -1.95,2q-1.95,0.8 -4.7,0.8q-2.75,0 -4.65,-0.8q-1.95,-0.85 -1.95,-2q0,-1.2 1.95,-2q1.9,-0.85 4.65,-0.8q2.75,-0.05 4.7,0.8"/>
  </g>
  <g transform="matrix(1,0,0,1,4.3,3.5) " id="shape3">
   <path id="svg_8" stroke-width="0.5" stroke-linejoin="round" stroke-linecap="round" stroke="#845c08" fill="none" d="m-1.5,-0.75q-2.4,-0.65 -2.55,-2.5m5.6,3.55q0.55,2.15 5.4,2.1"/>
  </g>
  <g transform="matrix(1,0,0,1,9.95,23.35) " id="shape4">
   <path id="svg_9" fill-rule="evenodd" fill="#b69f5c" d="m3.05,-12.5l1,-1.15q3.65,-4.05 9.4,-9.2q-4.65,5.4 -7.1,9.9q-1.6,2.85 -2.35,5.35q-0.85,2.85 -0.55,5.2q0.15,1.2 0.6,2.3q-0.45,-1.1 -0.6,-2.3l3.1,0.5l0.1,0.05l-1,2.75l-1.7,-0.2l-4.95,2l-7.4,0.25l0.75,-5.1l0.5,-4.6q-0.05,-4.25 -1.75,-6.9l-0.25,-0.35l4.95,6.3l0.65,0.8l0.4,-1.05q1,-2.75 1.8,-6.45l0.95,-4.95l0.6,5.05q0.25,3.4 0,5.4l-0.05,0.7q-0.35,3.2 0.4,5.55l2.5,-9.85m-2.25,10.6l-0.25,-0.75l0.25,0.75m-3.6,-4.1l-0.75,-0.9l0.75,0.9"/>
   <path id="svg_10" fill-rule="evenodd" fill="#a77d39" d="m4,-7.6l2.4,0.95l0.2,0.1q2.85,-1.6 6.4,-2.25l4.05,-0.5q-1.8,0.25 -3.45,1.05q-1.95,0.95 -3.8,2.7l-0.65,0.65l-2.5,3.05l-0.1,-0.05l-3.1,-0.5q-0.3,-2.35 0.55,-5.2m-3.45,4.95q-0.75,-2.35 -0.4,-5.55l0.05,-0.7q1.15,-1.7 2.85,-3.6l-2.5,9.85"/>
   <path id="svg_11" stroke-linejoin="round" stroke-linecap="round" stroke="#845c08" fill="none" d="m3.05,-12.5l1,-1.15q3.65,-4.05 9.4,-9.2q-4.65,5.4 -7.1,9.9q-1.6,2.85 -2.35,5.35l2.4,0.95l0.2,0.1q2.85,-1.6 6.4,-2.25l4.05,-0.5q-1.8,0.25 -3.45,1.05q-1.95,0.95 -3.8,2.7l-0.65,0.65l-2.5,3.05m-14.3,-0.3l0.5,-4.6q-0.05,-4.25 -1.75,-6.9l-0.25,-0.35l-0.3,-0.4m9.65,5.5l-0.05,0.7q-0.35,3.2 0.4,5.55l0.25,0.75m2.25,-10.6q-1.7,1.9 -2.85,3.6q0.25,-2 0,-5.4l-0.6,-5.05l-0.95,4.95q-0.8,3.7 -1.8,6.45l-0.4,1.05l0.75,0.9m6.25,3.6q0.15,1.2 0.6,2.3m2.5,-1.8l0.1,0.05m-2.65,-5.75q-0.85,2.85 -0.55,5.2m-7.65,-5.3l0.65,0.8m0.4,-1.05l-1.05,0.25l-4.95,-6.3"/>
  </g>
  <g transform="matrix(1,0,0,1,-5.65,-8.6) " id="shape5">
   <path id="svg_12" fill-rule="evenodd" fill="#845c08" d="m8.7,16.8q-0.9,-1.1 -1.7,-2.95q-0.8,-1.85 -1,-3.3q-0.25,-1.45 0.2,-1.65q0.45,-0.2 1.3,1l1.65,3q0.8,1.85 1.05,3.25q0.3,1.45 -0.15,1.65q-0.45,0.2 -1.35,-1"/>
   <path id="svg_13" stroke-width="0.5" stroke-linejoin="round" stroke-linecap="round" stroke="#a3771a" fill="none" d="m8.7,16.8q0.9,1.2 1.35,1q0.45,-0.2 0.15,-1.65q-0.25,-1.4 -1.05,-3.25l-1.65,-3q-0.85,-1.2 -1.3,-1q-0.45,0.2 -0.2,1.65q0.2,1.45 1,3.3q0.8,1.85 1.7,2.95z"/>
  </g>
  <g transform="matrix(1,0,0,1,49.85,78.9) " id="sprite1">
   <use id="svg_14" xlink:href="#shape6" width="99.7" transform="matrix(1,0,0,1,-49.85,-78.9) " height="157.8"/>
  </g>
  <g transform="matrix(1,0,0,1,49.85,78.9) " id="shape6">
   <path id="svg_15" fill-rule="evenodd" fill="#303455" d="m40.95,-78.9l0.15,0.05l1.75,1.2q1.9,1.65 3.45,4.55q3.25,6.7 3.55,14.4q-0.15,3.25 -3.05,5.55l-14.15,7.2l0.75,1.3l1.05,3.55l0.2,1.3l5.8,19.05l-7.8,10.5l-5.65,1.55l-0.1,0.05l-5.65,1.5l-6.05,-1.65l1.4,-2.05l2.5,-3.85l0.2,-0.35l0.15,-0.25l2.35,-0.2l3.1,-2.05l1.7,-9.25l-0.3,-0.55q-1.6,-2.65 -3.75,-4.6l0.15,-0.6l-0.65,0.2l-2.85,0.7l-0.05,0l-0.15,0.05l-1.15,1.7l-0.65,-1.8l-0.1,-0.2l-1.55,-2.25l-0.25,-0.4l-0.05,0l-2.5,-3l-4.9,-4.9l-0.3,-0.25l-2.25,-2l-1.05,-0.8q-2.85,-2.1 -6.45,-3.3l-0.7,-0.25l-2.9,-0.8l-2.8,0.15l-4.85,0.3l-0.9,0.1l-7.8,0.45q-1.05,-0.9 -2.35,-1.4l-0.1,-0.05l-0.25,-0.15l-2.5,-0.65l-2.15,-0.25q-1.95,0.55 -3.7,1.3q-2.2,0.85 -4,1.95q-3.25,1.9 -5.55,4.55l-1.75,5.5l-0.95,3.9l-0.15,0.8l-0.6,-0.7l-0.75,-1.45q-1.9,-3.75 -2.65,-8.2q-0.55,-3.45 0.2,-5.9l1.15,-0.75l2,2.35l0.15,0.15l2.1,2.45q3.25,-1.65 6.55,-3.25l-0.4,-1l5.6,-13.55l9.95,-4.4l5.05,-1.45l5.9,-1.4l0.3,-0.05l9,-1.35l0.85,-0.05l2.75,-0.2q8.15,3.45 15.1,7.95l5.3,3.75l-4.15,2.15q-1.1,1.95 -1.05,5.05l0,0.3l0,0.5q0.15,3.95 1.85,6.55l0.8,1q1.5,1.7 3.8,2.4l1.9,0.4l4.4,-2.3l-2.5,-1.65q-4.15,-3.7 -4.15,-8.95l0.05,-0.6l0.1,-1.45l0.25,-1.15l0.05,-0.15l0.15,-0.55l0.95,-2.35l13.6,-6l1.7,-11.25l1.25,-0.45m-33.2,93.1l-7.4,0.65l-3.6,3.4l-1.6,0.95l4.5,-6.65l0.1,-0.55l0.25,0.05l3.65,0.2l3.8,-0.4l2.45,-0.55l0.3,1.3l-2.45,1.6m7.65,19.15l6.65,0l-0.65,1.7l0.65,0.25l1.75,13.35l-0.2,0.55l-4.9,8.25l0,0.2l-0.5,5.75l0,0.05l-0.35,3.25l0,0.05l-22.2,8.7l-8.05,1.4l-0.05,-0.55l0.85,-4.6l-2,-1.05l0,-1.55l2,-0.9l2.3,-8.85l-2.15,-7.95l0,-5.25l-0.1,-0.3l1.4,-1.1l1.5,0.15l-0.05,0.75q1.05,2.75 3.05,1l0.1,-0.05l1.45,-1.75l0.75,-5.35l2.15,-1.85l0.35,8q0.6,1.25 1.2,1.65q1.1,0.7 2.25,-2.05l0.45,-4.55l5.4,-5.2l6.9,-2.15l0.05,0m-45.75,-48l-2.45,-4.55l1.35,-1.25l1.2,-1.3l0.4,1.5l2.05,5.7l-2.55,-0.1m25.4,23.7q0.2,0.75 0.8,1.35l0.1,0.1l1.15,0.75l-0.3,0.8l-4.6,6.2l-1.5,1.25l0.3,0.35l-3.25,8.1l0.4,0.6l-3.2,1.45l-3.15,6.7l2.3,0.85l2.65,-1.1l-0.2,2.6l-1.05,-0.05l-1.4,2.7l0,10.25l2.1,7.95l-2.25,8.85l-2,0.9l0,1.4l-2.75,-0.2l0.1,1.2l4.45,0.5l0.1,0.05l-1.2,5.15l-6.65,1.15l-4.1,-2.6l3.85,-3.4l0.25,-7.2l-0.1,-0.35l0.45,-2.45l-1.35,-3.25l1.05,-3.7l-1.05,-1.55q0.75,-4.8 0.95,-11.35q0.1,-2.85 0.05,-6l1.2,-10.85l4.7,-7.95l0.2,-0.3l0.2,-0.3l1.65,-2.8l-0.05,0.05l0.1,-0.15l11,-6.1l0.05,0.4m-2.35,14.95l1.55,-3.25l1.1,1.25l0.1,0.25l-2.75,1.75"/>
  </g>
  <g transform="matrix(1,0,0,1,30.85,64.55) " id="sprite2">
   <use id="svg_16" xlink:href="#shape7" width="61.65" transform="matrix(1,0,0,1,-30.85,-64.55) " height="129.1"/>
  </g>
  <g transform="matrix(1,0,0,1,30.85,64.55) " id="shape7">
   <path id="svg_17" fill-rule="evenodd" fill="#fbf1e3" d="m19.35,-57.65l0.05,-0.1l0.4,-0.95l1.05,0.8l2.25,2l0.3,0.25l4.9,4.9l2.5,3l-0.75,1.75l-0.65,1.6q-1.3,3.3 -2.35,6.8l-0.1,0.25l-0.9,3.25l-0.15,0.6l-0.4,1.45q-1.4,-1.85 -2.3,-4.3q-1.75,-7.05 -1.35,-14.25l0.1,-1.1l0,-0.1l0.05,-0.15l0.4,-1.85l-0.6,0.55l-1.15,1.05l-1.05,1l-0.85,0.8l-0.8,0.75q-0.15,-1.5 0.05,-3.05l0.25,-1.85l0.45,-1.4l0.6,-1.6l0.05,-0.1m-15.95,-3.3l-5.1,4.5l-0.35,0.3l-1,1.05l0.1,0.25q-0.65,3.75 -2.15,7.5l-0.65,1.55l-1.25,2.6l-4.3,4.6l3.3,-4.35l-7.9,9.3l-1.35,1.25l-0.4,0.35l-5.4,4.95l-1.75,2.75l-0.75,1.8l-0.75,3.15l-0.05,1l-0.35,-1l-1.1,-3.15l-0.1,-0.3q-2.1,-6.8 -2.75,-14.1l-0.2,-2.4q0.05,-3.1 0.65,-6.45l0.15,-0.75l0.15,-0.8l0.95,-3.9l1.75,-5.5q2.3,-2.65 5.55,-4.55q1.8,-1.1 4,-1.95q1.75,-0.75 3.7,-1.3l2.15,0.25l2.5,0.65l0.25,0.15l0.1,0.05q1.3,0.5 2.35,1.4l12.9,-0.75l-2.9,1.85"/>
   <path id="svg_18" fill-rule="evenodd" fill="#ffffff" d="m12.65,-1.95q1.05,0.5 2.65,0.75l-0.1,0.55l-4.5,6.65l-1.5,0.9l0.6,0.65l-1.55,3.25l-0.05,0.05l-0.2,0.2l-0.55,1.25l-1.8,1.75l-0.25,0.2q-0.05,0 -0.15,0.1l-1.55,1l-0.4,-0.6l3.25,-8.1l5.8,-7.8l0.3,-0.8m-6.4,48.1l-2.3,8.85l-2,0.9l0,1.55q1,0.55 2,1.05l-0.85,4.6l0.05,0.55l-2.85,0.5l-0.05,0.05l-2.05,0.35l1.2,-5.15l0,-0.05l0.1,-0.3l-2,-1.05l0,-1.55l2,-0.9l2.25,-8.85l-2.1,-7.95l0,-10.25l1.4,-2.7l1.05,0.05l-0.6,6.2q0.55,0.8 1.4,0.85l0.15,0l0.95,-0.25l0.1,0.3l0,5.25l2.15,7.95"/>
  </g>
  <g transform="matrix(1,0,0,1,51.65,62.75) " id="sprite3">
   <use id="svg_19" xlink:href="#shape8" width="103.35" transform="matrix(1,0,0,1,-51.65,-62.75) " height="125.5"/>
  </g>
  <g transform="matrix(1,0,0,1,51.65,62.75) " id="shape8">
   <path id="svg_20" fill-rule="evenodd" fill="#eec59b" d="m22.1,-39.7l-1.7,9.25l-3.1,2.05l-2.35,0.2l-0.15,0.25l-0.2,0.35l-2.5,3.85l-1.4,2.05l-0.2,0.25l1,7.7l0.1,0.8q1.65,0.45 1.95,1.5q0.35,1.45 -2.3,3.2l-1.2,0.75q-1.55,0.85 -3.5,1.5l-2,0.6l-5.05,0.75l-2.2,-0.05q-3.15,-0.3 -3.55,-1.75l0.1,-1.05l-0.35,0.1l-1.7,0.05l-2.85,-0.6l-0.75,-0.3l-3.65,-1.7q-6.65,-3.35 -13.65,-8.8l-0.4,-0.35l-0.3,-0.25l-0.7,-0.6l-1,-1.15l-0.7,-1.15l-0.05,-0.1l-0.25,-0.95l-0.05,-0.95l0.1,-0.9l0.25,-1l0.25,-0.45l-0.35,-0.85l-2.05,-5.7l-0.4,-1.5l1.85,-1.95l-0.35,1.5l0.15,1.65l0.15,0.5l1.6,3.5l2.55,0.15l2.25,-1.35l0,-1.2l-1.9,-4.5l-0.35,0.15l-1,-1.35q-1.05,-0.6 -2.2,0l4.95,-5.35l1.25,-2.6l0.65,-1.55q1.5,-3.75 2.15,-7.5l-0.1,-0.25l1,-1.05l0.35,-0.3l5.1,-4.5q1.75,-1.4 2.9,-1.85l-4.2,0.25l0,-0.05l4.85,-0.3l2.8,-0.15l2.9,0.8l0.7,0.25q3.6,1.2 6.45,3.3l-0.2,0.45l-0.2,0.5l-0.05,0.1l-0.05,0.1l-0.6,1.6l-0.45,1.4l-0.25,1.85l-0.05,3.05l0.8,-0.75l0.85,-0.8l1.05,-1l1.15,-1.05l0.6,-0.55l-0.4,1.85l-0.05,0.15l0,0.1l-0.1,1.1q-0.4,7.2 1.35,14.25q0.9,2.45 2.3,4.3l0.05,0l0.75,-2.85q1.15,-4.3 2.65,-8.25l1.7,-4.2l0.05,-0.05l0.15,-0.35l0.25,0.4l1.55,2.25l0.1,0.2l0.65,1.8l1.15,-1.7l0.15,-0.05l0.05,0l2.85,-0.7l0.25,0.2l0.25,0.2q2.15,1.95 3.75,4.6l0.3,0.55m-29.4,3.45l-0.25,0.5l0.25,-0.15l0,-0.35m0.15,-4l-1.2,-1.75q-1.15,-1.65 -3.2,-2.1l-1.1,-0.15l-0.45,0.05q-1,0.2 -1.65,1.05q-1.2,1.5 -1.45,3.05l0.65,2.15l-0.25,0.15l1.75,2.75l4.4,0.5l0.7,-0.4l-0.2,0.4l0.25,-0.45l1.15,-0.65l0.55,-2.55l0.05,-2.05m3.35,14.4l-0.65,-0.45l-2.4,0.45l-9.7,5.5l-4.2,1l7.6,3.55l-0.1,3.35l2.95,2.1l1.9,-0.25l5.9,-3l3.9,-5.2l-0.45,-2.25l-0.1,-0.45l-0.6,-1.5l-0.65,-0.7l-0.25,-0.25l-1.95,-1.4l-1.2,-0.5m-13.6,24.85l3,-0.55l-6.1,3.4l-0.1,0.15l-0.4,0.7l-1.2,2.05l-0.2,0.3l-0.2,0.3l-4.7,7.95l-1.2,10.85q-6.05,3.5 -12.4,5.2l-0.35,0.1l-0.3,0.05l-3.1,0.65l-0.75,-2.35l1.6,-5.45l-3.05,-6.05l-4.8,-1.5l15,-5l11.9,-8.85q1.5,-0.65 3.8,-1.2l3.55,-0.75m65.95,37.05l1,8.35l2.15,6.3l-3,9.95l-3.9,2.1l-9.5,-2.55l-6.45,-12.5l0.7,0.1l2.5,0.3q6.7,-2 10.15,-6.7l3.75,-8.7l2.6,3.35"/>
  </g>
  <g transform="matrix(1,0,0,1,69,75.15) " id="sprite4">
   <use id="svg_21" xlink:href="#shape9" width="137.95" transform="matrix(1,0,0,1,-69,-75.15) " height="150.3"/>
  </g>
  <g transform="matrix(1,0,0,1,69,75.15) " id="shape9">
   <path id="svg_22" fill-rule="evenodd" fill="#f4a80b" d="m34.7,-66.25l0,-0.3q-0.05,-3.1 1.05,-5.05l6.95,-3.55l-0.35,0.6l-0.95,2.35l-0.05,0.3l-0.1,0.25l-0.05,0.15l-0.25,1.15l-0.1,1.45l-0.05,0.6l-6.1,2.05m-18.4,58.3q-0.2,0.55 -0.1,1.05q0.4,1.45 3.55,1.75l2.2,0.05q2.3,-0.1 5.05,-0.75l2,-0.6l3.5,-1.5l1.2,-0.75q2.65,-1.75 2.3,-3.2q-0.3,-1.05 -1.95,-1.5l-0.1,-0.8l0.95,0.05q4.35,0.65 4.95,3q0.35,1.45 -0.85,3.05l-2.05,1.95l-0.15,0.1q-3.1,2.3 -7.8,3.7l-1.1,0.3l-0.05,0l-2.45,0.55l-3.8,0.4l-3.65,-0.2l-0.25,-0.05q-1.6,-0.25 -2.65,-0.75l-1.15,-0.75l-0.1,-0.1q-0.6,-0.65 -0.8,-1.35l-0.05,-0.4l0.05,-0.8q0.2,-1.15 1.25,-2.3l1.7,-0.05l0.35,-0.1m2,41.9l-1.2,-1.65l-0.35,-8l-2.15,1.85l-0.75,5.35l-1.45,1.75l-0.1,0.05q-2,1.75 -3.05,-1l0.95,-9.95l-2.4,9.05l-1.4,1.1l-0.05,0l-0.9,0.25l-0.15,0q-0.85,-0.05 -1.4,-0.85l0.8,-8.8l-2.65,1.1l-2.3,-0.85l3.15,-6.7l3.2,-1.45l1.55,-1q0.1,-0.1 0.15,-0.1q0.1,-0.15 0.25,-0.2l1.8,-1.75l0.55,-1.25l0.2,-0.2l0.05,-0.05l2.75,-1.8l-0.05,-0.05l-0.05,-0.15l-1.7,-1.9l1.5,-0.9l-0.25,0.35l0.9,-0.75l0.95,-0.55l3.6,-3.4l7.4,-0.65l2.45,-1.6l0.2,0l5.4,-1.1l14.9,4.3l3.25,3.5l1.5,2.45l-0.15,0.05l0.05,0.05l0.5,0.3l0.05,0.05l1.5,0.95l0.15,2.8l0.35,0l5.75,9.75l0.2,0.05l1.9,0.45l1.8,0.4l2.6,0.65l0.65,5.35l0.2,1.75l-4.3,9.95q-3.45,4.7 -10.15,6.7l-2.5,-0.3l-0.7,-0.1l-7.2,-0.6l-0.05,0l-2.95,-0.75l-1.1,-4.7l1.55,-5.35l0.1,0l0,-0.3l0.1,-0.25l-1.75,-13.35l-0.65,-0.25l0.65,-1.7l-6.65,0l-0.1,-0.05l-0.35,0.2l-6.5,2l-0.25,0.25l-6.55,3.8l-0.15,5.7l-1.15,2.05m25.2,15.45l3,3.3l-4.15,12l1.75,9.55l0,0.9l-25.85,0l0,-0.45l-0.05,0.45l-34.15,0l1.25,-8.45l-0.85,-4.8l9.35,-4.8l-0.1,2.45l-3.85,3.4l4.1,2.6l8.7,-1.5l0.05,-0.05l10.9,-1.9l22.2,-8.7l0,-0.05l0.35,-3.25l0,-0.05l0.15,-1.35l7.1,0.7l0.1,0m-78.2,-36l0.35,0l1.8,-0.6l1.4,0.95l6.75,2.1l3.05,6.05l-1.6,5.45l1,2.95l-2.85,8.05l-3.45,-0.45l-3.25,2.6l-3.9,0l-3.45,2.55l-4.1,-0.8l-3.7,3.45l-3.65,-2.25l-7.95,1.8l-8.45,-6.05l-0.7,-1.5l-0.85,-2.6l-0.05,-0.2q-0.65,-2.55 -0.7,-5.2l0,-0.55q0,-2.15 0.45,-4.35l0.3,-1.35l0.1,-0.4l0.65,-2.05l0.45,-1.3l11.55,-7.55l14.7,-2.35l5,2.6l1.1,1m-26.2,10.1l0.05,0l0.55,-0.35l-0.6,0.35"/>
   <path id="svg_23" fill-rule="evenodd" fill="url(#gradient0)" d="m40.8,-68.3q0,5.25 4.15,8.95l2.5,1.65l-4.4,2.3l-1.9,-0.4q-2.3,-0.7 -3.8,-2.4l-0.8,-1q-1.7,-2.6 -1.85,-6.55l0,-0.5l6.1,-2.05"/>
   <path id="svg_24" fill-rule="evenodd" fill-opacity="0.439216" fill="#f4a80b" d="m26.15,22.4l-5.15,4.95l-0.45,4.55q-1.15,2.75 -2.25,2.05l1.15,-2.05l0.15,-5.7l6.55,-3.8"/>
  </g>
  <g transform="matrix(1,0,0,1,81.25,17.95) " id="shape10">
   <path id="svg_25" fill-rule="evenodd" fill="#363a5f" d="m39.75,-0.25l0.35,-0.6l12.25,-5.6l1.7,-10.75l1,-0.3l-1.7,11.25l-13.6,6m-5.4,118.2l-0.3,0.45l0.3,-0.45m-44,-2.6l1.05,1.55l-1.05,3.7l1.35,3.25l-0.45,2.45l-2,-5.85q0.65,-2.25 1.1,-5.1m16,-34.55l-0.3,-0.35l1.5,-1.25l-1.2,1.6m-1.15,24.9l2.4,-9.05l-0.8,8.35l-0.1,0.85l-1.5,-0.15"/>
   <path id="svg_26" fill-rule="evenodd" fill="#171a28" d="m46.15,51.3q-3.8,10.7 -9.2,2.5l0,-0.05l5.3,-1.45l0.1,-0.05l3.8,-1.05l0,0.1l-9.2,2.5l9.2,-2.5m-11.5,66.1l-0.3,0.55l0.3,-0.55m-32.55,-20l-0.05,2.6l-0.15,0l0.2,-2.6"/>
   <path id="svg_27" fill-rule="evenodd" fill="#0d0e15" d="m30.6,26.4l0.05,0l-0.15,0.35l-0.05,0.05l-1.7,4.2q-1.5,3.95 -2.65,8.25l-0.75,2.85l-0.05,0l0.4,-1.45l0.15,-0.6l0.9,-3.25l0.1,-0.25q1.05,-3.5 2.35,-6.8l0.65,-1.6l0.75,-1.75"/>
   <path id="svg_28" fill-rule="evenodd" fill="#003366" d="m36.4,66.2q4.4,4.95 10.7,9.05l0.55,0.35l0.1,0.1l1.3,4.25l-3,-3.2l-14.9,-4.3l-5.4,1.1l-0.2,0l-0.3,-1.3l0.05,0l1.1,-0.3q4.7,-1.4 7.8,-3.7l0.15,-0.1l2.05,-1.95m1.5,-37.2l-0.25,-0.2l-0.25,-0.2l0.65,-0.2l-0.15,0.6m-26.75,50.75l-0.9,0.75l0.25,-0.35l0.05,-0.05l0.6,-0.35"/>
   <path id="svg_29" fill-rule="evenodd" fill="#c67e09" d="m-63.45,97.8l-0.05,0l0.55,-0.35l-0.5,0.35"/>
   <path id="svg_30" fill-rule="evenodd" fill="#ffcc00" d="m50.8,82.7l0.1,0.2l-0.2,-0.1l-0.05,-0.05l0.15,-0.05"/>
   <path id="svg_31" fill-rule="evenodd" fill="#fede81" d="m30.3,94.45l0.35,-0.2l-0.35,0.2"/>
   <path id="svg_32" fill-rule="evenodd" fill="#f4a80b" d="m6.8,105l-0.15,1.6l0.05,-0.75l0.1,-0.85"/>
   <path id="svg_33" fill-rule="evenodd" fill="#d0d3e3" d="m2.05,100l-0.05,1.2l-0.7,5l0.6,-6.2l0.15,0"/>
   <path id="svg_34" fill-rule="evenodd" fill="#d2863c" d="m-0.75,75.85l0.05,-0.05l-0.45,0.75l0.4,-0.7"/>
   <path id="svg_35" fill-rule="evenodd" fill="#eec59b" d="m69.4,118.25l0.2,0l1.95,6.3l-2.15,-6.3m-134.4,-1.65l-3.45,0.75l-10,-3.25l-0.15,-0.4l-1.4,-3.25l-1,-3.2l4.55,-6.7l3.55,-1.8l2.05,-1l-0.3,1.35l-0.45,4.35l0,0.55q0.05,2.65 0.7,5.2l0.05,0.2l0.85,2.6l0.7,1.5l4.3,3.1"/>
   <path id="svg_36" fill-rule="evenodd" fill="#252c41" d="m-0.8,133.55l-0.1,-0.05l-4.45,-0.5l-0.1,-1.2l2.75,0.2l0,0.15l2,1.05l-0.1,0.3l0,0.05"/>
   <path id="svg_37" fill-rule="evenodd" fill="#ffffff" d="m49.8,19.85l-1.05,-3.55l0.55,1.1l0.25,1.1l0.25,1.35m-45.5,35.9l-1.65,-1l1.9,-0.3l6.5,-3.55l3.25,-3.15l1.1,-0.2l0.65,0.45l-0.75,1.5l-0.25,0.25l-1.1,-0.4l-0.15,1.25l-1.25,1.4l-2.05,1.15l-4.3,2.4l-1.35,0.15l-0.55,0.05m16.5,-2.95l0.45,2.25l-2.4,3.2l-0.6,0.8l-3.6,2.1l-4.05,1.15l-0.65,-0.45l0.2,-1.2l0.85,-0.5l0,0.45l1.85,-0.6l2.35,-0.75l4.15,-3.95l1.45,-2.5"/>
   <path id="svg_38" fill-rule="evenodd" fill="#fbf1e3" d="m-7.55,40l0.85,2l0,1.2l-2.25,1.35l-2.55,-0.15l-1,-2.25q2.2,-2.2 4.95,-2.15m20.2,-5.3l0,0.95q-0.6,2.15 -0.55,2.55l-1.15,0.65l-0.05,0.05l-0.7,0.4l-4.4,-0.5l-1.75,-2.75l0.25,-0.15l-0.3,-0.95q3.7,-2.15 7.5,-0.75l1.15,0.5m-0.1,3.25l-0.25,0.15l0.25,-0.5l0,0.35"/>
   <path id="svg_39" fill-rule="evenodd" fill="url(#gradient1)" d="m1,11.65l0.9,-0.1l0,0.05l-0.9,0.05"/>
   <path id="svg_40" fill-rule="evenodd" fill="#b5ae8c" d="m-12.15,36.3q1.15,-0.6 2.2,0l1,1.35l0.35,-0.15l1.05,2.5q-2.75,-0.05 -4.95,2.15l-0.6,-1.25l-0.15,-0.5l-0.15,-1.65l0.35,-1.5l0.9,-0.95m16.15,-1.35l-0.35,-1.2q0.25,-1.55 1.45,-3.05q0.65,-0.85 1.65,-1.05l0.45,-0.05l1.1,0.15q2.05,0.45 3.2,2.1l1.2,1.75l-0.05,1.1l-1.15,-0.5q-3.8,-1.4 -7.5,0.75"/>
   <path id="svg_41" fill-rule="evenodd" fill="#d99d55" d="m10.95,38.85l-0.25,0.45l0.2,-0.4l0.05,-0.05"/>
   <path id="svg_42" fill-rule="evenodd" fill-opacity="0.8" fill="#c1af8b" d="m0.2,55.05l-1.1,-0.55l4.2,-1l9.7,-5.5l1.3,-0.25l-3.25,3.15l-6.5,3.55l-1.9,0.3l1.65,1l-2.15,0.2l-1.95,-0.9m18.05,4l-0.9,1.2l-5.9,3l-1.9,0.25l-1.05,-1.35l0,-1.85l0.75,-1.35l1.75,-0.35l0,0.3l0,1.25l-0.85,0.5l-0.2,1.2l0.65,0.45l4.05,-1.15l3.6,-2.1"/>
   <path id="svg_43" fill-rule="evenodd" fill="#5b2e00" d="m16.05,48l1.2,0.5l1.95,1.4l0.25,0.25l-3.2,2.8l-0.95,0.85q-0.8,0.7 -1.4,2.1l-0.05,0.15q-0.45,1.1 -0.75,2.6l-0.25,1.35l-1.85,0.6l0,-0.45l0,-1.25l0.95,-2.15l0,-1.85l-0.65,-1.4l-0.8,-0.35l2.05,-1.15l1.25,-1.4l0.15,-1.25l1.1,0.4l0.25,-0.25l0.75,-1.5"/>
   <path id="svg_44" fill-rule="evenodd" fill="#a35101" d="m20.7,52.35l0.1,0.45l-1.45,2.5l-4.15,3.95l-2.35,0.75l0.25,-1.35q0.3,-1.5 0.75,-2.6l0.05,-0.15q0.6,-1.4 1.4,-2.1l0.95,-0.85l4.45,-0.6"/>
   <path id="svg_45" fill-rule="evenodd" fill="#874401" d="m19.45,50.15l0.65,0.7l0.6,1.5l-4.45,0.6l3.2,-2.8"/>
   <path id="svg_46" fill-rule="evenodd" fill="#663300" d="m2.15,55.95l2.15,-0.2l0.55,-0.05l1.35,-0.15l4.3,-2.4l0.8,0.35l0.65,1.4l0,1.85l-0.95,2.15l0,-0.3l-1.75,0.35l-0.75,1.35l0,1.85l1.05,1.35l-2.95,-2.1l0.1,-3.35l-4.55,-2.1"/>
   <path id="svg_47" fill-rule="evenodd" fill="#000000" d="m53.25,86.9l7.85,10.25l-1.9,-0.45l-0.2,-0.05l-5.75,-9.75"/>
   <path id="svg_48" stroke-width="0.05" stroke-opacity="0.6" stroke-linejoin="round" stroke-linecap="round" stroke="#171a28" fill="none" d="m46.15,51.2l1.85,-0.5l7.8,-10.5l-2.75,-9.55m-6.9,20.55l-3.8,1.05m-0.1,0.05l-5.3,1.45l-0.3,0.15"/>
   <path id="svg_49" stroke-width="0.05" stroke-opacity="0.6" stroke-linejoin="round" stroke-linecap="round" stroke="#171a28" fill="none" d="m4.3,-9.55l9,-1.35m35.45,27.2l-0.75,-1.3l-3.15,1.6l-4.4,2.3l-1.9,-0.4q-2.3,-0.7 -3.8,-2.4l-0.8,-1q-1.7,-2.6 -1.85,-6.55l0,-0.5l0,-0.3q-0.05,-3.1 1.05,-5.05l4.15,-2.15l-5.3,-3.75q-6.95,-4.5 -15.1,-7.95l-2.75,0.2m40.9,-6.55l-1,0.3l-1.7,10.75l-12.25,5.6l-0.35,0.6q-0.55,1.15 -0.95,2.35m16.25,-19.6l1.25,-0.45l0.15,0.05l1.75,1.2q1.9,1.65 3.45,4.55q3.25,6.7 3.55,14.4q-0.15,3.25 -3.05,5.55l-14.15,7.2m1.8,4.85l-1.05,-3.55l0.55,1.1m0.5,2.45l3.25,10.8l2.95,9.55l-7.8,10.5l-2.05,0.6m-9.2,2.5l-0.3,0.1l-2.85,0.75m4.8,-51.85l-0.25,1.15l-0.1,1.45l-0.05,0.6q0,5.25 4.15,8.95l2.5,1.65m-42.95,-5.05l4.85,-0.3l2.8,-0.15l2.9,0.8l0.7,0.25q3.6,1.2 6.45,3.3l1.05,0.8l2.25,2l0.3,0.25l4.9,4.9l2.5,3l0.05,0l0.25,0.4l1.55,2.25m-7.15,13.05q-1.4,-1.85 -2.3,-4.3q-1.75,-7.05 -1.35,-14.25l0.1,-1.1l0,-0.1l0.05,-0.15l0.4,-1.85l-0.6,0.55l-1.15,1.05l-1.05,1l-0.85,0.8l-0.8,0.75q-0.15,-1.5 0.05,-3.05l0.25,-1.85l0.45,-1.4l0.6,-1.6m-17.2,-5.05l-0.9,0.1m24.3,30.45l0.4,-1.45m0.15,-0.6l0.9,-3.25m0.1,-0.25q1.05,-3.5 2.35,-6.8l0.65,-1.6l0.75,-1.75m6.35,27.4l9.2,-2.5m-21.05,22.55l0.45,-0.3m-19.2,7.25l1.2,-1.6l4.6,-6.2m-5.8,7.8l-3.25,8.1m42.05,7.75l2.25,-0.15m-43.65,10.3l0.15,5.55l2.15,7.95l-2.3,8.85l-2,0.9l0,1.55l2,1.05l-0.85,4.6m34.4,-136.7l2.8,-1.4m-62.2,13.15l-0.4,-1l5.6,-13.55l9.95,-4.4l5.05,-1.45l5.9,-1.4m-25.85,22.35l-0.25,-0.55m9.65,34.1l-2.55,-0.1l-2.45,-4.55m-41.25,64.1l3.5,4.4l0.9,0.45l-2.25,-6.8m-10.8,3.25l-0.85,-2.35"/>
   <path id="svg_50" stroke-width="0.3" stroke-opacity="0.301961" stroke-linejoin="round" stroke-linecap="round" stroke="#23263e" fill="none" d="m50.3,37.3l0.4,2l1.6,0.3l0.25,-0.1l-0.15,-1.55m1.75,0.7l-1.6,0.85l0.15,1.6m-2,-1.8l-0.3,2.9m-1.6,-3.25l1.9,0.35"/>
   <path id="svg_51" stroke-width="0.5" stroke-opacity="0.6" stroke-linejoin="round" stroke-linecap="round" stroke="#171a28" fill="none" d="m30.35,52.4l1,7.7l0.95,0.05q4.35,0.65 4.95,3q0.35,1.45 -0.85,3.05q4.4,4.95 10.7,9.05l0.55,0.35l0.1,0.1l1.3,4.25l0.25,0.3l1.5,2.45l0.1,0.2l0.3,0.2l0.05,0.05l1.5,0.95l0.15,2.2l0.35,0.6l7.85,10.25l1.8,0.4l2.6,0.65l0.65,5.35l0.2,1.75l-0.55,1.25l2.6,3.35l1,8.35l-4.4,-6.55m6.55,12.85l-3,9.95l-3.9,2.1l-9.5,-2.55l-6.45,-12.5l-7.2,-0.6l-0.05,0l-2.95,-0.75l-1.1,-4.7l1.55,-5.35l-4.3,7.25m-0.6,1l0,0.2l-0.35,4.4l7.1,0.7l0.05,-0.05l0.05,0.05l3,3.3l-4.15,12l1.75,9.55m-10.15,-88.45l0.1,0.8q1.65,0.45 1.95,1.5q0.35,1.45 -2.3,3.2l-1.2,0.75q-1.55,0.85 -3.5,1.5l-2,0.6l-5.05,0.75l-2.2,-0.05q-3.15,-0.3 -3.55,-1.75q-0.1,-0.5 0.1,-1.05m22.7,-0.15l-2.05,1.95l-0.15,0.1q-3.1,2.3 -7.8,3.7l-1.1,0.3l-0.05,0l-2.45,0.55l-3.8,0.4l-3.65,-0.2l-0.25,-0.05l-2.65,-0.75l-1.15,-0.75l-0.1,-0.1l-0.8,-1.35l-0.05,-0.4l-4.9,2.7l-6.1,3.4l-0.1,0.15m26.5,-2.3l5.4,-1.1l14.9,4.3l3,3.2m-50.2,-3.4l-1.2,2.05l-0.2,0.3l-0.2,0.3l-4.7,7.95l-1.2,10.85q0.05,3.15 -0.05,6q-0.2,6.55 -0.95,11.35m0.9,10.95l0.1,0.35l-0.15,4.75l-9.35,4.8l0.85,4.8l-1.25,8.45m24,-77.15l-3,0.55l-3.55,0.75q-2.3,0.55 -3.8,1.2l-7.7,5.7m24.25,-14q-1.05,1.15 -1.25,2.3q-0.1,0.4 -0.05,0.8m5.5,10.3l7.25,-4.75l-7.4,0.65l-3.6,3.4l-0.95,0.55m-0.9,0.75l0.25,-0.35l-1.5,0.9l1.75,2.05l0.05,0.05l-2.75,1.8m2.45,-4.8l0.05,-0.05l0.6,-0.35m8.25,3.75q-1.55,-1.6 -2.7,-1.25m-14.6,15.15l-2.65,1.1l-2.3,-0.85l3.15,-6.7l3.2,-1.45l1.55,-1l0.15,-0.1l0.25,-0.2l1.8,-1.75l0.55,-1.25m-0.55,1.25l-0.25,0.5l-1.15,2.3l-3.65,5.65l-0.1,2.5m-0.8,8.8q0.55,0.8 1.55,0.85l0.9,-0.25l0.05,0l1.4,-1.1l2.4,-9.05l2.65,-3.2q1.5,-2.2 2.35,-4.55l3.65,-1.75m-8.65,9.5l-0.8,8.35l-0.15,1.6q1.05,2.75 3.05,1l0.1,-0.05l1.45,-1.75l0.75,-5.35l2.15,-1.85l-0.1,-1.05l0.3,-0.2l3.65,-2.85l0.3,-0.25l0.05,-0.05l1.1,-1.05l0.05,0l1.65,-1.8l0.9,-1.15m1.9,-4.55q-1.8,-1.55 -2.85,-1.25m8.1,3.65l-1.5,-1.4q-1.1,-0.95 -2.1,-0.2m-11.45,12.15l0.35,8q0.6,1.25 1.2,1.65q1.1,0.7 2.25,-2.05l0.45,-4.55l5.4,-5.2l6.5,-2l0.1,-0.05l0.2,-0.1l0.05,0l0.05,0l0.05,0l6.65,0l6.15,-3m-12.9,2.95l1.3,-1.8m-1.3,1.8l-0.05,0.05m0.1,0l0.05,0m-0.35,0.1l0.3,-0.1m6.7,0l-0.65,1.7l0.65,0.25l1.75,13.35l-0.2,0.55m-15.85,-35l1.6,-1.05m-14.2,6.05l4.5,-6.65m35.65,9.25l0.05,0.05l0.2,0.1m-9.3,14.1l1.15,-0.1m1.35,-5.85l1.75,-0.85m13.35,6.5l-0.2,-0.05l-5.75,-9.75m-0.35,-0.6l0,0.6m-3,-4.6l0.75,0.45m10.45,14.4l-1.9,-0.45l3,7.05l-0.1,0.35m3.7,2.45l-1.3,3.05m-2.85,-3.8l0.25,-1m-13.2,16.75l0.7,0.1l2.5,0.3q6.7,-2 10.15,-6.7l2.1,-4.9m-23.35,13.35l0.1,0m28.5,-5.45l2.15,6.3m-37.2,-6.6l0.3,-0.55m-0.6,1l0.3,-0.45m4.75,-6.75l0.1,3.15l2.65,3.3m-40.55,-11.45l0.6,-6.2l0.2,-2.6m-2,40.9l10.9,-1.9l22.2,-8.7l0,-0.05l0.35,-3.25l0,-0.05l0.15,-1.35m-34.4,18.75l1,0l0.3,0q6.2,0 10.55,2.05l1.85,1q2.65,1.75 2.65,4l0,0.65m17.55,-21.8l0.95,-0.3m-0.1,-8.75l-3.85,5.3l0,2.1m-101.05,-28.25l0.1,-0.4l0.65,-2.05l0.45,-1.3l11.55,-7.55l14.7,-2.35l5,2.6l1.1,1l0.35,0l1.8,-0.6l1.4,0.95m-29.7,9.75l-1,0.65m1.5,-1l0.9,-0.55m-0.9,0.55l-0.5,0.35m-1.55,18.8l-3.45,0.75l-10,-3.25l-0.15,-0.4l-1.4,-3.25l-1,-3.2l4.55,-6.7l3.55,-1.8l2.05,-1l-0.3,1.35l-0.45,4.35l0,0.55q0.05,2.65 0.7,5.2m0.05,0.2l0.85,2.6l0.7,1.5l4.3,3.1l4.15,2.95l7.95,-1.8l3.65,2.25l3.7,-3.45l4.1,0.8l3.45,-2.55l3.9,0l3.25,-2.6l3.45,0.45l2.85,-8.05m-0.55,-1.55l-0.45,-1.4l1.6,-5.45l-3.05,-6.05m25.85,-13.6l0.4,-0.7m-31,12.8l14.95,-5l3.35,-2.5m10.75,50.85l0,-1.4l2,-0.9l2.25,-8.85l-2.1,-7.95l0,-10.25l1.4,-2.7m-9.6,26.35l-2,-5.85q0.65,-2.25 1.1,-5.1m-15.1,-11.35l3.05,-0.65l0.3,-0.05l0.35,-0.1l0.45,-0.15q6.15,-1.7 11.95,-5.05m-0.2,34.85l-0.05,1l-3.85,3.4l4.1,2.6l6.65,-1.15l1.2,-5.15m-1.9,-1.55l0,0.15l2,1.05l-0.1,0.3l0,0.05m-14.2,15.9l-0.05,-0.65q0,-2.95 4.45,-5l2.7,-1l2.3,-0.55l4.9,-0.5m-66.65,-34.6l1.6,4.35l4.75,5.5l5.95,-0.45l-3.8,-1.3l-0.55,-4.45l1.6,-1.4m-2.95,-10.6l-1.65,1.95"/>
   <path id="svg_52" stroke-width="0.5" stroke-opacity="0.301961" stroke-linejoin="round" stroke-linecap="round" stroke="#3c1e00" fill="none" d="m15.85,79.9l-0.6,0.35q-1.4,0.1 -1.9,1.25m-14.05,60.25l-0.15,-2.4l0.9,-1l0.05,-0.05"/>
   <path id="svg_53" stroke-width="0.3" stroke-opacity="0.4" stroke-linejoin="round" stroke-linecap="round" stroke="#171a28" fill="none" d="m4,-9.5l0.3,-0.05m-6.85,5.6l-0.7,2.5l-0.3,1.5q-0.65,2.95 -0.75,6.3m1.05,-7.8l-3.05,0.45m-1.65,2.2l4.4,-1.15m4.45,-2.15l-2.95,0.45m2.7,0.6l-3.4,0.9"/>
   <path id="svg_54" stroke-width="0.5" stroke-opacity="0.6" stroke-linejoin="round" stroke-linecap="round" stroke="#171a28" fill="none" d="m37.9,29q2.15,1.95 3.75,4.6l0.3,0.55l-1.7,9.25l-3.1,2.05l-2.35,0.2l-0.15,0.25l-0.2,0.35l-2.5,3.85l-1.4,2.05l-0.2,0.25m-29.35,-40.75l0.9,-0.05l4.2,-0.25q-1.15,0.45 -2.9,1.85l-5.1,4.5l-0.35,0.3l-1,1.05l0.1,0.25q-0.65,3.75 -2.15,7.5l-0.65,1.55l-1.25,2.6l-4.95,5.35m-0.9,0.95l-1.85,1.95l0.4,1.5q0.8,2.85 2.05,5.7l0.35,0.85l-0.25,0.45l-0.25,1l-0.1,0.9l0.05,0.95l0.25,0.95l0.05,0.1l0.7,1.15l1,1.15l0.7,0.6l0.3,0.25l0.4,0.35q7,5.45 13.65,8.8l3.65,1.7l0.75,0.3l2.85,0.6l1.7,-0.05l0.35,-0.1l0.95,-0.25l5.35,-1.7q5.75,-5.7 10.35,-12m-16.05,-4.65l-1.3,0.25l-9.7,5.5l-4.2,1l1.1,0.55m1.95,0.9l2.15,-0.2m10,-8l1.1,-0.2l0.65,0.45l1.2,0.5l1.95,1.4l0.25,0.25l0.65,0.7l0.6,1.5l0.1,0.45l0.45,2.25l-2.4,3.2m-0.6,0.8l-0.9,1.2l-5.9,3l-1.9,0.25l-2.95,-2.1l0.1,-3.35m9.35,-10.05l-0.75,1.5l-0.25,0.25m-1.25,0.85l-1.25,1.4l-2.05,1.15l-4.3,2.4l-1.35,0.15m6.15,3.2l0,1.25l0,0.45l1.85,-0.6l2.35,-0.75l4.15,-3.95l1.45,-2.5m17.1,-23.8l-0.25,-0.2l-0.25,-0.2m-2.9,0.7l-0.65,0.8l-0.1,0.15q-0.7,1.05 -1.05,2.35l-0.15,0.65m2.25,12.4l-1.05,-1.35m-24.2,19.2l-1.05,-1.35l0,-1.85l0.75,-1.35l1.75,-0.35l0,0.3m-20.15,-48.2q1.3,0.5 2.35,1.4m-15.05,0.75q1.8,-1.1 4,-1.95l3.7,-1.3l2.15,0.25l2.5,0.65m-20.75,17.1l0.15,-0.8l0.95,-3.9q0.7,-2.7 1.75,-5.5q2.3,-2.65 5.55,-4.55m-8.4,14.75l-0.15,0.75q-0.6,3.35 -0.65,6.45l0.2,2.4q0.65,7.3 2.75,14.1l0.1,0.3l1.1,3.15l0.35,1l0.05,-1l0.75,-3.15l0.75,-1.8l1.75,-2.75l5.4,-4.95l0.4,-0.35l1.35,-1.25l1.2,-1.3m1.85,-1.95l0.9,-0.95m13.15,-24.65l-7.25,0.4"/>
   <path id="svg_55" stroke-width="0.5" stroke-opacity="0.501961" stroke-linejoin="round" stroke-linecap="round" stroke="#291a0a" fill="none" d="m39.4,37l0.25,-0.75q0.4,-1.8 -0.85,-3.2q-1.5,-1.75 -2,-1.7q-2.55,1.65 -1.45,4.15l1.1,1.6l0.95,1.05l-0.4,1.3l-1.3,0.85m-0.95,-8.6q0.55,-0.55 2.05,-0.35"/>
   <path id="svg_56" stroke-width="0.2" stroke-opacity="0.6" stroke-linejoin="round" stroke-linecap="round" stroke="#171a28" fill="none" d="m12.85,60l0.25,-1.35q0.3,-1.5 0.75,-2.6m0.05,-0.15q0.6,-1.4 1.4,-2.1l0.95,-0.85l3.2,-2.8"/>
   <path id="svg_57" stroke-width="0.5" stroke-opacity="0.8" stroke-linejoin="round" stroke-linecap="round" stroke="#2b1500" fill="none" d="m15.05,49.75l-1.1,-0.4l-0.15,1.25"/>
   <path id="svg_58" stroke-width="0.05" stroke-linejoin="round" stroke-linecap="round" stroke="#000000" fill="none" d="m-22.1,12.3l-6.55,3.25l-2.1,-2.45l-0.15,-0.15l-2,-2.35l-1.15,0.75q-0.75,2.45 -0.2,5.9q0.75,4.45 2.65,8.2l0.75,1.45l0.6,0.7"/>
   <path id="svg_59" stroke-width="0.5" stroke-opacity="0.65098" stroke-linejoin="round" stroke-linecap="round" stroke="#261e15" fill="none" d="m-1.05,142.2l0.6,7.75"/>
   <path id="svg_60" stroke-width="0.2" stroke-opacity="0.501961" stroke-linejoin="round" stroke-linecap="round" stroke="#523203" fill="none" d="m28.9,133.9l0.8,-0.55m1.8,-1.9l-1.4,0.75l0.2,0.75l1.55,-0.45m-2,-1.1l0.25,0.8m-2.25,0.55l1.45,-0.35m3.25,12.05l-0.85,0.2m-1.4,-11.7l0.2,0.6l-0.5,3.4l1.15,7.8l0.15,1.1l0.5,3.15m1,-3.35l-0.65,0.1m-0.85,0.1l-2.15,0.9m2,-2l-2.15,-0.15"/>
   <path id="svg_61" stroke-width="0.2" stroke-opacity="0.501961" stroke-linejoin="round" stroke-linecap="round" stroke="#523203" fill="none" d="m26.55,130.6l3.3,0.8"/>
   <path id="svg_62" stroke-linejoin="round" stroke-linecap="round" stroke="#68411c" fill="none" d="m-0.7,25.7q3.2,-4.55 7.45,-6.3q1,-0.4 2.05,-0.65l0.5,-0.1l0.75,-0.15l1.85,-0.15"/>
   <path id="svg_63" stroke-width="2" stroke-linejoin="round" stroke-linecap="round" stroke="#68411c" fill="none" d="m4.3,35.9l-0.65,-2.15q0.25,-1.55 1.45,-3.05q0.65,-0.85 1.65,-1.05l0.4,-0.05l1.15,0.15q2.05,0.45 3.15,2.1l1.25,1.75m-21.65,4.05l-1.05,-1.35l-2.35,0.05q-1,0.8 -1.05,2.35l0.15,1.7l0.15,0.5l0.25,0.55"/>
   <path id="svg_64" stroke-width="0.5" stroke-linejoin="round" stroke-linecap="round" stroke="#b77d1e" fill="none" d="m12.5,37.95l-2.3,1.3l-4.4,-0.45m-17.3,5.6l2.5,0.15l2.25,-1.35l0,-1.2"/>
   <path id="svg_65" stroke-width="0.5" stroke-opacity="0.6" stroke-linejoin="round" stroke-linecap="round" stroke="#51350d" fill="none" d="m-5,45.6l-1.45,1.25"/>
   <path id="svg_66" stroke-width="0.5" stroke-opacity="0.6" stroke-linejoin="round" stroke-linecap="round" stroke="#51350d" fill="none" d="m-2.9,42.3l-0.2,1m-1.15,1.65l-0.75,0.65"/>
   <path id="svg_67" fill-rule="evenodd" fill="#4f3115" d="m12.25,34.5l0.25,1.1q0.15,0.9 -0.35,1.7q-0.5,0.8 -1.4,1q-0.95,0.15 -1.7,-0.35q-0.85,-0.55 -1,-1.4l-0.6,-2.85q2.35,-0.3 4.8,0.8"/>
   <path id="svg_68" fill-rule="evenodd" fill="#3e2611" d="m12.25,34.5q-2.45,-1.1 -4.8,-0.8l-0.15,-0.6q-0.2,-0.9 0.35,-1.7q0.5,-0.8 1.4,-1q0.9,-0.2 1.7,0.3q0.8,0.55 1,1.45l0.5,2.35"/>
   <path id="svg_69" fill-rule="evenodd" fill="#4f3115" d="m-7.8,40l0.3,1.1q0.2,0.75 -0.1,1.45q-0.3,0.7 -0.9,0.9q-0.65,0.15 -1.2,-0.3q-0.6,-0.5 -0.8,-1.25l-0.3,-1.1q1.4,-0.8 3,-0.8"/>
   <path id="svg_70" fill-rule="evenodd" fill="#3e2611" d="m-7.8,40q-1.6,0 -3,0.8l-0.5,-1.9q-0.2,-0.8 0.1,-1.5q0.25,-0.7 0.9,-0.85q0.6,-0.15 1.2,0.3q0.6,0.45 0.8,1.25l0.5,1.9"/>
   <path id="svg_71" fill-rule="evenodd" fill="#7a4b21" d="m10.25,36.5q-0.05,0.65 -0.75,1.45q-0.65,-0.1 -0.8,-0.65q0.25,-0.8 0.9,-1.3q0.6,-0.2 0.65,0.45l0,0.05"/>
   <path id="svg_72" fill-rule="evenodd" fill="#7a4b21" d="m8.85,32.05l-0.8,-1q0.3,-0.45 0.75,-0.4l0.65,1.1q-0.1,0.5 -0.55,0.3l-0.05,0"/>
   <path id="svg_73" fill-rule="evenodd" fill="#ffffff" d="m6.9,38.5q-0.55,-0.05 -0.95,-0.4q-0.4,-0.4 -0.35,-0.95q-0.05,-0.55 0.35,-0.95q0.4,-0.45 0.95,-0.4q0.6,-0.05 1,0.4q0.4,0.4 0.4,0.95q0,0.55 -0.4,0.95q-0.4,0.35 -1,0.4"/>
   <path id="svg_74" fill-rule="evenodd" fill="#291a0a" d="m10.15,32.1q0.8,-0.05 1.4,0.5q0.55,0.6 0.55,1.4q0,0.75 -0.55,1.35q-0.6,0.5 -1.4,0.55q-0.75,-0.05 -1.35,-0.55q-0.55,-0.6 -0.5,-1.35q-0.05,-0.8 0.5,-1.4q0.6,-0.55 1.35,-0.5"/>
   <path id="svg_75" fill-rule="evenodd" fill="#ffffff" d="m8.1,34.75l0.6,-0.2l0.55,0.2l0.2,0.6l-0.2,0.55l-0.55,0.2l-0.6,-0.2l-0.2,-0.55l0.2,-0.6"/>
   <path id="svg_76" fill-rule="evenodd" fill="#7a4b21" d="m11.4,35.9l-0.05,0q0,-0.4 0.45,-0.2l0.65,0.85q-0.1,0.25 -0.55,0.25q-0.5,-0.55 -0.5,-0.9"/>
   <path id="svg_77" fill-rule="evenodd" fill="#7a4b21" d="m-9.15,41.8l-0.6,1.1q-0.5,-0.1 -0.6,-0.5l0.7,-1q0.45,-0.15 0.5,0.35l0,0.05"/>
   <path id="svg_78" fill-rule="evenodd" fill="#7a4b21" d="m-10.25,38.35l-0.6,-0.75q0.2,-0.35 0.55,-0.3l0.5,0.8q-0.05,0.4 -0.4,0.25l-0.05,0"/>
   <path id="svg_79" fill-rule="evenodd" fill="#291a0a" d="m-9.3,38.4q0.65,-0.05 1.1,0.4q0.4,0.4 0.4,1.05q0,0.55 -0.4,1q-0.45,0.45 -1.1,0.45l-1.05,-0.45q-0.4,-0.45 -0.35,-1q-0.05,-0.65 0.35,-1.05q0.45,-0.45 1.05,-0.4"/>
   <path id="svg_80" fill-rule="evenodd" fill="#ffffff" d="m-10.8,40.45q0.15,-0.15 0.4,-0.15l0.45,0.15l0.15,0.45q0,0.25 -0.15,0.4l-0.45,0.2l-0.4,-0.2l-0.15,-0.4l0.15,-0.45"/>
   <path id="svg_81" fill-rule="evenodd" fill="#7a4b21" d="m-8.3,41.3q0,-0.3 0.35,-0.15l0.5,0.65q-0.1,0.2 -0.45,0.2l-0.4,-0.7"/>
  </g>
  <g transform="matrix(1,0,0,1,4.65,3.6) " id="shape11">
   <path id="svg_82" fill-rule="evenodd" fill="url(#gradient2)" d="m3.3,-2.55q1.35,1.05 1.35,2.55q0,1.5 -1.35,2.55q-1.35,1.05 -3.3,1.05q-1.95,0 -3.3,-1.05q-1.35,-1.05 -1.35,-2.55q0,-1.5 1.35,-2.55q1.35,-1.05 3.3,-1.05q1.95,0 3.3,1.05"/>
  </g>
  <g transform="matrix(1,0,0,1,81,17.95) " id="shape12">
   <path id="svg_83" fill-rule="evenodd" fill-opacity="0.231373" fill="#ffffff" d="m39.75,-0.25q-0.55,1.15 -0.95,2.35l-0.15,0.55l-0.05,0.15l-0.25,1.15l-0.1,1.45l-0.05,0.6l-6.1,2.05l0,-0.3q-0.05,-3.1 1.05,-5.05l6.95,-3.55l-0.35,0.6m-26.05,66.6q-0.2,0.55 -0.1,1.05q0.4,1.45 3.55,1.75l2.2,0.05q-1.1,1.8 -0.35,4l-3.65,-0.2l-0.1,-1.45l-0.1,-0.05q-2.8,-0.9 -3.55,-1.65l-0.4,1.5q-0.6,-0.6 -0.8,-1.35l-0.05,-0.4q-0.05,-0.4 0.05,-0.8q0.2,-1.15 1.25,-2.3l1.7,-0.05l0.35,-0.1m5.3,30.15q4.7,-5.45 7.15,-7.45q2.65,1.15 2.25,3.3l-8.75,4.7l-0.65,-0.55m14.5,-3.9q0.35,-2.05 -0.2,-4.15l0.9,-1.95l10.05,0.3l-1.95,3.8l-8.8,2m18.35,-9.1l-0.25,4.05l1.05,3.55l-1.8,2.55l1.25,0.65l1.7,-1.25l0.85,3.85l-0.15,0.15l-2.55,2.95l2.2,0.55l2.15,-2.65l2.35,6.2l-0.8,3.05l-4.05,1.3l0,1.65l4.65,-0.25l3.55,-5.35l-0.35,1.3l2.2,-2.8l0.25,-4.7l-1.2,-0.75l2.6,0.65l0.65,5.35l-4.6,7.15l-1,0.55l-3.55,2.8l-7.3,0l1.25,-11.5l-4.5,-3l4.2,-2.65l-5.95,-2.4l4.9,-2.2l1.1,-9.5l1.15,0.7m-90.35,23.3l-0.6,1.7l-0.95,-8l1.55,6.3m4.05,0.3l-0.45,1.25l-0.9,-0.8l-0.2,-7.55l1.55,7.1m5.5,-2.5l-1.05,2.35l-0.75,-1.6l-0.75,-7.35l2.55,6.6m20.1,28.25l-6.55,3.5l0.25,0.25l-0.75,0.75l1.2,4l-1.3,8.1l-2.55,0l1.25,-8.45l-0.85,-4.8l9.35,-4.8l-0.05,1.45m-36.15,-21.75l-1.35,-8.15l2.3,6.65l-0.95,1.5m31.25,33.7l0.1,-1.4l0.3,-0.25q2.65,-2.25 5,-1.35q-2.6,0.4 -5.4,3m-48.3,-42.45l1.95,3.05l-0.85,6.4l-1.5,0.3l-4.55,-9.4l-1.9,-0.35q-0.85,2.95 0.4,7.4l-2.35,-0.35l-0.05,-0.2q-0.65,-2.55 -0.7,-5.2l0,-0.55l0.45,-4.35l5.05,0.15l0.6,1.6l2.1,-0.9l-0.25,2.4l1.55,-0.1l0.05,0.1"/>
   <path id="svg_84" fill-rule="evenodd" fill-opacity="0.580392" fill="#ffffff" d="m12.45,72.2l-1.15,-0.75l-0.1,-0.1l0.4,-1.5q0.75,0.75 3.55,1.65l0.1,0.05l0.1,1.45l-0.25,-0.05l-2.65,-0.75m40.3,11.9l0.15,2.8l0.35,0l5.75,9.75l0.2,0.05l3,7.05l-0.2,0.75l-3.55,5.35l-4.65,0.25l0,-1.65l4.05,-1.3l0.8,-3.05l-2.35,-6.2l-2.15,2.65l-2.2,-0.55l2.55,-2.95l0.15,-0.15l-0.85,-3.85l-1.7,1.25l-1.25,-0.65l1.8,-2.55l-1.05,-3.55l0.25,-4.05l0.9,0.6"/>
   <path id="svg_85" fill-rule="evenodd" fill-opacity="0.2" fill="#000000" d="m33.2,127.7l0,-0.05l0.05,0l-0.05,0.05"/>
   <path id="svg_86" fill-rule="evenodd" fill="url(#gradient3)" d="m-43.4,84.1l5,2.6l1.1,1l0.35,0l1.8,-0.6l1.4,0.95l6.75,2.1l3.05,6.05l-1.6,5.45l-2.65,-8.15q-1.75,1.35 -6.9,2.9l-13.65,3.1l-9.65,0.15l-5.05,-1.85l1.4,-0.9l-6.85,0.35l-1.2,-1.95l0.45,-1.3l11.55,-7.55l14.7,-2.35"/>
   <path id="svg_87" fill-rule="evenodd" fill="url(#gradient4)" d="m13,144.8q2.65,1.75 2.65,4l0,0.2l-0.05,0.45l-28.65,0q0.2,-2.65 4.4,-4.6l2.7,-1q1.1,-0.35 2.3,-0.55l4.15,-0.45l1.75,-0.05q6.3,0 10.75,2"/>
   <path id="svg_88" fill-rule="evenodd" fill="url(#gradient5)" d="m32.4,136.1l3.8,-3.25l3.35,16.6l-18.75,0l0.55,-9.75l5.5,0q2.2,-0.9 5.55,-3.6"/>
   <path id="svg_89" fill-rule="evenodd" fill="url(#gradient6)" d="m37.4,96.25l-0.65,-0.25l0.65,-1.7l6.15,-3l-1.75,3.1l0.95,2.5l-1.15,0.1l2.55,0.95l-2.55,2.55l4.1,2.1l-3.1,12.45l-2.45,-1.4l-1.05,-2.45l0.1,3.15l2.65,3.3l5.9,0l3.45,1.25l-0.05,1l-10,-0.2l-3.1,-1.35l-0.65,-2.85l1.55,-5.35l0.1,0l0,-0.3l0.1,-0.25l-1.75,-13.35"/>
   <path id="svg_90" fill-rule="evenodd" fill="url(#gradient7)" d="m64.1,98.3l-0.25,4.7l-2.2,2.8l0.55,-2.05l-3,-7.05l1.9,0.45l1.8,0.4l1.2,0.75"/>
   <path id="svg_91" fill-rule="evenodd" fill="url(#gradient8)" d="m25.75,73.55l5.4,-1.1l14.9,4.3l3.25,3.5l0.95,1.6l-1.7,2.25l-8.8,1.5l-9.45,0.05l-9.35,-4l-0.45,-3.5l4.2,-4.05l0.85,-0.55l0.2,0"/>
   <path id="svg_92" fill-rule="evenodd" fill="url(#gradient9)" d="m19.75,88.75l1.35,1.55l0.05,1.05l-1.65,1.8l-0.05,0l-1.1,1.05l-0.05,0.05l-0.3,0.25l-3.65,2.85l-0.3,0.2l0.1,1.05l-2.15,1.85l-0.75,5.35l-1.45,1.75l-0.1,0.05l-0.75,-1.55l2.1,-9.05l0.2,-0.1q2.45,-1.2 4.5,-5.85l4,-2.3"/>
   <path id="svg_93" fill-rule="evenodd" fill="url(#gradient10)" d="m7.6,96.65l-2.4,9.05l-1.4,1.1l-0.05,0l-0.9,0.25l1.35,-1.7l1.4,-8.9q3,-2.7 5.25,-8l0.2,-0.35l3,-1.55l1.15,1.1l-2.6,1.25q-0.85,2.35 -2.35,4.55l-2.65,3.2"/>
   <path id="svg_94" fill-rule="evenodd" fill="url(#gradient11)" d="m5.85,89.25l-3.65,5.65l-0.1,2.5l-2.45,1.05l2.1,-6.9l4.1,-2.3"/>
   <path id="svg_95" fill-rule="evenodd" fill="url(#gradient12)" d="m15.7,75.8l7.4,-0.65l-7.85,5.1q-1.4,0.1 -1.9,1.25l-0.2,0.1l-2.35,1.6l-0.1,-0.25l-1.7,-1.9l1.5,-0.9l-0.25,0.35l0.9,-0.75l0.95,-0.55l3.6,-3.4"/>
   <path id="svg_96" fill-rule="evenodd" fill="url(#gradient13)" d="m33.2,127.65l0.35,-3.25l0,-0.05l0.15,-1.35l7.1,0.7l0.1,0l0.45,0.5l-5.1,0.75l-2.1,2.4l-0.9,0.3l-0.05,0"/>
   <path id="svg_97" fill-rule="evenodd" fill="url(#gradient14)" d="m33.25,127.65l2.9,0.2l-18.4,7.85l-14.45,3.3l0.4,-1.3l7.3,-1.3l22.2,-8.7l0.05,-0.05"/>
   <path id="svg_98" fill-rule="evenodd" fill="url(#gradient15)" d="m-15.4,136.35l6.55,-3.5l-0.05,1l-3.85,3.4l3.7,2.35l-3.25,-0.5l-3.1,-2.75"/>
   <path id="svg_99" fill-rule="evenodd" fill="url(#gradient16)" d="m64.15,110.35l-2.1,4.9q-3.45,4.7 -10.15,6.7l-2.5,-0.3l3.8,-1.3l7.5,-5.1l3.45,-4.9"/>
   <path id="svg_100" fill-rule="evenodd" fill="url(#gradient17)" d="m-67.35,107.15l1.6,4.35l3.25,3.75l-0.55,2.75l-6.25,-4.5l-0.7,-1.5l3.1,1.4l-0.45,-6.25"/>
   <path id="svg_101" fill-rule="evenodd" fill="url(#gradient18)" d="m-25.1,103.05l0.55,1.55l-1.55,4.4l-2.2,1.75l-5.5,0.9l-2,1.9l-5.9,0.6l-2.35,1.3l-1.65,-0.2l-4.9,0.95l-8.4,-2.1l-0.2,-1.55l1.05,-1.6l8.75,3.55l8.25,-4.15l11.35,-1.7l4.7,-5.6"/>
   <path id="svg_102" fill-rule="evenodd" fill="url(#gradient19)" d="m31.45,60.9l-0.1,-0.8l0.95,0.05q4.35,0.65 4.95,3q0.35,1.45 -0.85,3.05l-2.05,1.95l-0.15,0.1q-3.1,2.3 -7.8,3.7l-1.1,0.3l-0.05,0l-2.45,0.55l-3.8,0.4q-0.75,-2.2 0.35,-4l5.05,-0.75l2,-0.6q1.95,-0.65 3.5,-1.5l1.2,-0.75q2.65,-1.75 2.3,-3.2q-0.3,-1.05 -1.95,-1.5"/>
   <path id="svg_103" fill-rule="evenodd" fill="url(#gradient20)" d="m44.8,16.55l-4.4,2.3l-1.9,-0.4q-2.3,-0.7 -3.8,-2.4l-0.8,-1q-1.7,-2.6 -1.85,-6.55l0,-0.5l6.1,-2.05q0,5.25 4.15,8.95l2.5,1.65"/>
   <path id="svg_104" fill-rule="evenodd" fill-opacity="0.439216" fill="#000000" d="m0.6,141.75q6.2,0 10.55,2.05l1.85,1q-4.45,-2 -10.75,-2l-1.75,0.05l-4.15,0.45q-1.2,0.2 -2.3,0.55l-2.7,1q-4.2,1.95 -4.4,4.6l-1.95,0l-0.05,-0.65q0,-2.95 4.45,-5l2.7,-1l2.3,-0.55l4.9,-0.5l1,0l0.3,0m-26.7,-32.75l-1.3,3.65l-3.45,-0.45l-3.25,2.6l-3.9,0l-3.45,2.55l-4.1,-0.8l-3.7,3.45l-3.65,-2.25l-7.95,1.8l-2.2,-1.55l0.55,-2.75l1.5,1.75l5.95,-0.45l-3.8,-1.3l-0.15,-1.15l8.4,2.1l4.9,-0.95l1.65,0.2l2.35,-1.3l5.9,-0.6l2,-1.9l5.5,-0.9l2.2,-1.75"/>
   <path id="svg_105" fill-rule="evenodd" fill="url(#gradient21)" d="m-20,14.8l-0.25,1.85l4.25,-4.7l-1.05,3.7l2.4,-0.35q1.4,-0.55 2.35,-2l0.3,-0.5l1.7,3.75l0.8,-3.2l0.95,8.85l-6.9,12.1l-4.85,6.95l2.15,-6.2l-3.1,-5.55l-5.05,14.35l-0.45,-3.5l-1.75,5l-2.35,-8.15l-0.2,-2.4q0.05,-3.1 0.65,-6.45l0.15,-0.75l0.15,-0.8l0.95,-3.9l3.2,-4.05l5.95,-4.05"/>
   <path id="svg_106" fill-rule="evenodd" fill-opacity="0.2" fill="#432e16" d="m21.6,20.9l-1.15,1.05l-1.05,1l-0.85,0.8l1.3,-4.4l-1.35,-1.15l0.6,-1.6l0.05,-0.1l9.35,10.3q-2.2,3.85 -1.65,9.75l-0.1,0.25l-0.9,3.25q-3.05,-9.8 -1.45,-15l-2.65,-2.6l0,-0.1l0.05,-0.15l0.4,-1.85l-0.6,0.55m-27.85,-8.85l4.85,1.6l-0.45,2.3l-1.75,1.45l-1.05,-1.55l-0.1,6.25l-3.45,9.1l-3.3,4.35l-3.5,3.75l6.6,-11.3q3.4,-8.15 1.5,-12l-2.3,-5.3l-0.05,-0.05l0.1,0.05q1.3,0.5 2.35,1.4l0.55,-0.05m-18.2,33.9q0.05,-4.5 3.5,-11.35l0.9,1.95l-0.05,0.3q-1.25,6.6 -4.35,9.1m-1.3,5.65l-0.75,3.15l-0.05,1l-0.35,-1l-1.1,-3.15l-0.1,-0.3l1.35,-6.15l1.75,4.65l-0.75,1.8"/>
   <path id="svg_107" fill-rule="evenodd" fill-opacity="0.4" fill="#432e16" d="m23.2,18.5l4.9,4.9l2.5,3l-0.75,1.75l-0.65,1.6q-1.3,3.3 -2.35,6.8q-0.55,-5.9 1.65,-9.75l-9.35,-10.3l0.05,-0.1l0.4,-0.95l1.05,0.8l2.25,2l0.3,0.25m-20,-5.3l-5.1,4.5l-0.35,0.3l-1,1.05l0.1,0.25q-0.65,3.75 -2.15,7.5l-0.65,1.55l-1.25,2.6l-4.3,4.6l3.3,-4.35l3.45,-9.1l0.1,-6.25l1.05,1.55l1.75,-1.45l0.45,-2.3l-4.85,-1.6l12.35,-0.7q-1.15,0.45 -2.9,1.85"/>
   <path id="svg_108" fill-rule="evenodd" fill-opacity="0.2" fill="#000000" d="m9.2,81.25l0.4,0.45l-1.55,3.25l-0.05,0.05l-0.2,0.2l-0.55,1.25l-1.8,1.75l-0.25,0.2l-0.15,0.1l-1.55,1l-0.4,-0.6l3.25,-8.1l0.35,-0.45l2.5,0.9m-6.35,25.8l0.95,-0.25l0.1,0.3l0,5.25l2.15,7.95l-1.05,3.95l-3.9,-1.7l0.45,-1.7l-2.1,-7.95l0,-10.25l1.4,-2.7l1.05,0.05l-0.6,6.2q0.55,0.8 1.4,0.85l0.15,0m0.1,30.75l-4.95,0.9l0.9,-3.8l4.5,-0.35l-0.5,2.7l0.05,0.55m0.7,-4.65l-4.45,0.35l0.1,-0.3l-2,-1.05l0,-0.05l4.8,-0.3l1.65,0.85l-0.1,0.5"/>
   <path id="svg_109" fill-rule="evenodd" fill-opacity="0.301961" fill="#000000" d="m11.3,74.15l2.65,0.9l-3.45,5.1l-1.5,0.9l0.2,0.2l-2.5,-0.9l4.6,-6.2"/>
   <path id="svg_110" fill-rule="evenodd" fill-opacity="0.478431" fill="#000000" d="m11.3,74.15l0.85,-1.15l0.3,-0.8l2.65,0.75l-0.1,0.55l-1.05,1.55l-2.65,-0.9"/>
   <path id="svg_111" fill-rule="evenodd" fill="url(#gradient22)" d="m11.8,13.15l-3,5.6l0.5,-0.1l2.7,-0.05l0.6,1.05l0.45,0.85q2.5,4.9 2.7,9.25l-3.2,7.85l-0.25,0.5l-0.2,0.1q-0.05,-0.4 0.55,-2.55l0.05,-2.05l-1.2,-1.75q-1.15,-1.65 -3.2,-2.1l-1.1,-0.15l-0.45,0.05q-1,0.2 -1.65,1.05q-1.2,1.5 -1.45,3.05l0.65,2.15l-0.25,0.15l1.4,2.15q-2.25,0.75 -4.85,2.05q-3.15,1.6 -6.8,4l-1.4,3.15q2.25,5.15 6.5,10.3l5.5,6.2q-6.65,-3.35 -13.65,-8.8l-0.4,-0.35l-0.3,-0.25l-0.7,-0.6l-1,-1.15l-0.7,-1.15l-0.05,-0.1l-0.25,-0.95l-0.05,-0.95l0.1,-0.9l0.25,-1l0.25,-0.45l-0.35,-0.85q-1.25,-2.85 -2.05,-5.7l-0.4,-1.5l1.85,-1.95l-0.35,1.5l0.15,1.65l0.15,0.5l1.6,3.5l2.55,0.15l2.25,-1.35l0,-1.2l-1.9,-4.5l-0.35,0.15l-1,-1.35q-1.05,-0.6 -2.2,0l4.95,-5.35l1.25,-2.6l0.65,-1.55q1.5,-3.75 2.15,-7.5l-0.1,-0.25l1,-1.05l0.35,-0.3l5.1,-4.5q4,-0.65 8.6,-0.05"/>
   <path id="svg_112" fill-rule="evenodd" fill="url(#gradient23)" d="m33.95,44.55l2.4,-0.4l3.5,-2.45l1.8,-8.1l0.3,0.55l-1.7,9.25l-3.1,2.05l-2.35,0.2l-0.6,-0.75l-0.25,-0.35"/>
   <path id="svg_113" fill-rule="evenodd" fill="url(#gradient24)" d="m34.2,44.9l0.45,1l-0.2,0.35l-2.5,3.85l-0.25,-3.1l2.05,-2.7l0.2,0.25l0.25,0.35"/>
   <path id="svg_114" fill-rule="evenodd" fill="url(#gradient25)" d="m21.6,20.9l0.6,-0.55l-0.4,1.85l-0.05,0.15l0,0.1l-0.1,1.1l-2.5,2.5l0.25,-3.1l1.05,-1l1.15,-1.05"/>
   <path id="svg_115" fill-rule="evenodd" fill="url(#gradient26)" d="m12.45,11.9l0.7,0.25q3.6,1.2 6.45,3.3l-0.4,0.95l-0.05,0.1l-0.05,0.1q-3.05,-1.9 -6.05,-3l-1.25,-0.45l0.65,-1.25"/>
   <path id="svg_116" fill-rule="evenodd" fill="url(#gradient27)" d="m3.2,13.2q1.75,-1.4 2.9,-1.85l-4.2,0.25l0,-0.05l4.85,-0.3l2.8,-0.15l2.9,0.8l-0.65,1.25q-4.6,-0.6 -8.6,0.05"/>
   <path id="svg_117" fill-rule="evenodd" fill="url(#gradient28)" d="m30.45,26.8l0.05,-0.05l0.15,-0.35l0.25,0.4l1.55,2.25l0.1,0.2l0.65,1.8l0.55,-0.8q-0.7,1.05 -1.05,2.35l-2.55,-2.15q-1.85,5.65 -2.75,12.75l-1.3,-3.95q1.15,-4.3 2.65,-8.25l1.7,-4.2"/>
   <path id="svg_118" fill-rule="evenodd" fill="url(#gradient29)" d="m39.65,36.25q-1.4,-2.4 -3.2,0.85l-1.1,-1.6q-1.1,-2.5 1.45,-4.15q0.5,-0.05 2,1.7q1.25,1.4 0.85,3.2"/>
   <path id="svg_119" fill-rule="evenodd" fill="url(#gradient30)" d="m37,39.45l0.65,2.2l-1.95,-1.35l1.3,-0.85"/>
   <path id="svg_120" fill-rule="evenodd" fill="url(#gradient31)" d="m17.6,62.3l-0.6,1.85l-3.35,-0.15l3.95,-1.7"/>
   <path id="svg_121" fill-rule="evenodd" fill="url(#gradient32)" d="m5.3,58.95l-4.65,-3.7l6.05,2.8l-0.1,3l-1.3,-2.1"/>
   <path id="svg_122" fill-rule="evenodd" fill="url(#gradient33)" d="m62.4,120.2l0.3,-0.35l2.3,-8.15l0.95,1.4l-1.65,9.15l2.5,5.4l-1.65,8.7l-0.5,0.25l-9.5,-2.55l-4.8,-9.35l3.1,0.85q4.6,-0.85 8.95,-5.35"/>
   <path id="svg_123" fill-rule="evenodd" fill="url(#gradient34)" d="m-5.85,47.75l0.15,-1.55l0.7,-0.6l3.15,0.85l-4,1.3"/>
   <path id="svg_124" fill-rule="evenodd" fill="url(#gradient35)" d="m-27,90.15l-4.8,-1.5l15,-5l3.7,-2.75l-4.35,7.45l-8.95,2.95l-0.6,-1.15"/>
   <path id="svg_125" fill-rule="evenodd" fill-opacity="0.533333" fill="#2e130e" d="m31.45,60.9q1.65,0.45 1.95,1.5q0.35,1.45 -2.3,3.2l-1.2,0.75q-1.55,0.85 -3.5,1.5l-2,0.6l-5.05,0.75l-2.2,-0.05q-3.15,-0.3 -3.55,-1.75q-0.1,-0.5 0.1,-1.05l0.95,-0.25l5.35,-1.7q5.75,-5.7 10.35,-12l1,7.7l0.1,0.8m-29,11.95l3,-0.55l-6.1,3.4l-0.1,0.15l-0.4,0.7l-1.2,2.05l-0.2,0.3l-0.2,0.3l-4.7,7.95l-1.2,10.85q-6.05,3.5 -12.4,5.2l-0.35,0.1l-0.3,0.05l-3.1,0.65l-0.75,-2.35l1.6,-5.45l-2.45,-4.9l8.95,-2.95l4.35,-7.45l8.2,-6.1q1.5,-0.65 3.8,-1.2l3.55,-0.75m65.95,37.05l1,8.35l-4.4,-6.55l-2.3,8.15l-0.3,0.35q-4.35,4.5 -8.95,5.35l-3.1,-0.85l-1.65,-3.15l3.2,0.4q6.7,-2 10.15,-6.7l3.75,-8.7l2.6,3.35m-139.25,-12.15l-0.3,1.35l-0.45,4.35l0,0.55q0.05,2.65 0.7,5.2l0.05,0.2l0.85,2.6l0.7,1.5l4.3,3.1l-3.45,0.75l-10,-3.25l-0.15,-0.4l-1.4,-3.25l-1,-3.2l4.55,-6.7l3.55,-1.8l2.05,-1"/>
   <path id="svg_126" fill-rule="evenodd" fill-opacity="0.443137" fill="#ffffff" d="m50.05,26.45l1.25,-1l4.5,14.75l-3.15,4.25l1.75,-5l-4.35,-13m6.25,-44.4l0.15,0.05l0.45,7.65l-2,6.15l-16.25,6.75l0.15,-0.55q0.4,-1.2 0.95,-2.35l13.6,-6l1.7,-11.25l1.25,-0.45m-52.3,8.45l0.3,-0.05l9,-1.35l-3.5,2.45l-1.45,4.15l-10.9,0.35l-8.5,2.9l-6,3.9l-1.6,-0.8l1.75,-4.3l9.95,-4.4l5.05,-1.45l5.9,-1.4"/>
   <path id="svg_127" fill-rule="evenodd" fill="url(#gradient36)" d="m60.05,-14.15l3.25,7.85l1.1,8.4l-1.9,4.35l-18.4,9.65l-1.75,-1.15q-4.15,-3.7 -4.15,-8.95l15.9,-5.3l4.7,-8l-0.5,-8l1.75,1.15m-14.75,40.5q1.2,3.4 3.45,12.4l0.05,0.2l0.15,0.6q-1.3,7.35 -2.8,11.65l-3.8,1.05l-0.1,0.05l-5.65,1.5l-6.05,-1.65l1.4,-2.05l2.5,-3.85l0.2,-0.35l0.15,-0.25l2.35,-0.2l3.1,-2.05l1.7,-9.25l-0.3,-0.55q-1.6,-2.65 -3.75,-4.6l0.15,-0.6l-0.65,0.2l-2.85,0.7l-0.05,0l-0.15,0.05l-1.15,1.7l-0.65,-1.8l-0.1,-0.2l-1.55,-2.25l-0.25,-0.4l-0.05,0l-2.5,-3l-4.9,-4.9l-0.3,-0.25l-2.25,-2l-1.05,-0.8q-2.85,-2.1 -6.45,-3.3l-0.7,-0.25l-2.9,-0.8l-2.8,0.15l-4.85,0.3l-0.9,0.1l-7.8,0.45q-1.05,-0.9 -2.35,-1.4l-0.1,-0.05l-0.25,-0.15l-2.5,-0.65l0.05,-0.25l11.35,-4.8q12.65,-2.15 24.25,3.05q1.15,0.5 2.3,1.1l0.7,0.85q0.7,9.95 9.2,16.6q5.8,2.15 9.45,-0.05m-20.05,45.9l0.3,1.3l-2.45,1.6l-7.4,0.65l-3.6,3.4l-1.6,0.95l4.5,-6.65l0.1,-0.55l0.25,0.05l3.65,0.2l3.8,-0.4l2.45,-0.55m-12.8,-0.05l-0.3,0.8l-4.6,6.2l-1.5,1.25l0.3,0.35l-3.25,8.1l0.4,0.6l-3.2,1.45l-3.15,6.7l2.3,0.85l2.65,-1.1l-0.2,2.6l-1.05,-0.05l-1.4,2.7l0,10.25l2.1,7.95l-0.45,1.7l-5.35,-2.35l-2.35,11.25l0.65,3.8l4.85,-0.35l-0.9,3.8l-6.65,1.15l-4.1,-2.6l3.85,-3.4l0.25,-7.2l-0.1,-0.35l0.45,-2.45l-1.35,-3.25l1.05,-3.7l-1.05,-1.55q0.75,-4.8 0.95,-11.35l2.55,2.15l0.1,-8.55l2.75,2l-2.7,-5l0.35,-7.3l5.55,-9.1l-1.25,-1.3l0.65,-1.1l-0.05,0.05l0.1,-0.15l11,-6.1l0.05,0.4q0.2,0.75 0.8,1.35l0.1,0.1l1.15,0.75m-1.75,10.75l0.1,0.25l-2.75,1.75l1.55,-3.25l1.1,1.25m-3.55,31.65l3.15,1.05l16.1,-2.35l-6.15,7.05l-12.8,4.95l-2.45,-1.05l1.05,-3.95l-2.15,-7.95l0,-0.45l3.25,2.7m3.7,17.65l-7.2,1.05l0.1,-0.65l-2,-1.05l0,-0.1l5.8,-0.05l8.4,-2.45l-5.1,3.25m-7.9,5.55l-0.05,-0.55l0.5,-2.7l7.4,-0.55l14.75,-5.85l7.7,-0.95l-0.05,0.45l0,0.05l-22.2,8.7l-8.05,1.4m-33.7,-124.7l2.1,2.45l6.55,-3.25l0.25,0.55q-3.25,1.9 -5.55,4.55q-1.05,2.8 -1.75,5.5l-0.95,3.9l-0.15,0.8l-0.6,-0.7l-0.75,-1.45l-1.2,-12l0,-0.05l1.9,-0.45l0.15,0.15m15.85,26.1l0.4,1.5q0.8,2.85 2.05,5.7l-2.55,-0.1l-2.45,-4.55l1.35,-1.25l1.2,-1.3"/>
   <path id="svg_128" fill-rule="evenodd" fill-opacity="0.662745" fill="#000000" d="m26.65,9.8l6.65,-7.45l-1.2,5.7l0,0.5q0.15,3.95 1.85,6.55l0.8,1q1.5,1.7 3.8,2.4l1.9,0.4l5.9,-3.9q2,0.65 -0.15,1.3q1.85,3.65 0.6,4.4q-1.3,0.7 -1.45,5.6l-0.05,0l0,0.05q-3.65,2.2 -9.45,0.05q-8.5,-6.65 -9.2,-16.6"/>
   <path id="svg_129" fill-rule="evenodd" fill="url(#gradient37)" d="m3.9,111.9l0,-4.8l-0.1,-0.3l1.4,-1.1l1.5,0.15l-0.05,0.75q1.05,2.75 3.05,1l0.1,-0.05l1.45,-1.75l0.75,-5.35l2.15,-1.85l0.35,8q0.6,1.25 1.2,1.65q1.1,0.7 2.25,-2.05l0.45,-4.55l5.4,-5.2l6.9,-2.15l0.05,0l6.65,0l-0.65,1.7l0.65,0.25l1.75,13.35l-0.2,0.55l-4.6,7.8l-0.1,-7.7l-5.05,-3.7l-22.05,8.05l-3.25,-2.7"/>
   <path id="svg_130" fill-rule="evenodd" fill="#b6620e" d="m47.6,75.95q1.35,1.05 1.9,2.3q0.5,1.25 -0.1,2.05q-0.65,0.75 -1.65,0.15q-1,-0.65 -2.65,-1.25l-0.1,0l-0.8,-0.4q-0.95,-0.55 -1.35,-1.4l-0.1,-0.45q-0.3,-1 0.2,-1.6q0.6,-0.8 1.95,-0.65q1,0.15 2,0.75l0.7,0.5m-17,9l-0.05,0.05l-0.95,0.05q-1.1,0 -1.85,-0.55l-0.35,-0.3q-0.75,-0.7 -0.6,-1.5q0.1,-1 1.4,-1.55l2.05,-0.35l0.9,0.05q1.65,0.25 2.75,1.05q1.05,0.85 0.95,1.85q-0.15,0.95 -1.3,0.95l-2.95,0.25"/>
   <path id="svg_131" stroke-width="0.5" stroke-opacity="0.301961" stroke-linejoin="round" stroke-linecap="round" stroke="#000000" fill="none" d="m30.6,84.95l2.95,-0.25q1.15,0 1.3,-0.95q0.1,-1 -0.95,-1.85q-1.1,-0.8 -2.75,-1.05l-0.9,-0.05l-2.05,0.35q-1.3,0.55 -1.4,1.55q-0.15,0.8 0.6,1.5l0.35,0.3q0.75,0.55 1.85,0.55l0.95,-0.05l0.05,-0.05m17,-9l-0.7,-0.5q-1,-0.6 -2,-0.75q-1.35,-0.15 -1.95,0.65q-0.5,0.6 -0.2,1.6l0.1,0.45q0.4,0.85 1.35,1.4l0.8,0.4l0.1,0q1.65,0.6 2.65,1.25q1,0.6 1.65,-0.15q0.6,-0.8 0.1,-2.05q-0.55,-1.25 -1.9,-2.3"/>
   <path id="svg_132" fill-rule="evenodd" fill="#e9af50" d="m22.55,71.45q5.5,5.05 12.85,4.45l0.45,-2.7l0.1,0.9l1.45,6.1q-2.65,-0.05 -5.15,-0.95q-3,-0.95 -5.55,-2.95q-2.65,-2 -4.15,-4.85m16.95,11.15l1.7,-2.15l-0.3,-3.35l-4.4,-5.3q0.45,-0.3 1.2,0l0.95,0.5l0.4,0.25l4.15,1.05q4.65,-0.9 7.7,-4.2l-1.6,-3.8l3.2,1.6l-0.05,0.2l-0.05,0.35q-0.7,3.85 -3.15,6.8q-1.75,2 -3.9,3.35l-0.45,-1.85l-4.1,-1.85q1.75,2.05 2.3,4.85q0.3,1.25 -0.2,2.5l-0.4,0.95l-2.35,0.5l-0.65,-0.4m8.4,-20.3l-0.05,-0.15l0.15,0l0.4,-1.5l1.85,-1.05q1.6,0.45 1.8,2.05q0.1,1.45 -0.5,2.95l-0.8,-1.45l-0.85,-0.85l-1.9,-0.15l-0.1,0.15m7.45,-4.8q-3.55,-1.35 -5.9,-1l-1,-0.3q-1.85,-1.75 -2.9,-1.55q2.5,-1.6 7.4,-0.85q-1.45,0.4 -2.8,1.1l-0.7,0.4l0.75,-0.2l0.7,0l1.15,0.15q2.2,0.45 3.3,2.25m-10.75,-6.9l-2.75,0.3q1.7,-3.05 5.55,-3.5q-1.3,0.65 -2.1,1.75l-0.7,1.45m3.85,5.6l1,-0.9l-1,0.9"/>
   <path id="svg_133" fill-rule="evenodd" fill="#fede81" d="m20.35,63.65q-1.45,-1.9 -1.6,-4.2q2.95,-0.35 3.8,-1.8q0.8,-1.5 2.3,-3.4q1.45,-1.9 3.85,-3.65q2.4,-1.85 5.25,-2.5l4.15,-0.75l1.5,-0.1l0.7,0l8.4,-0.5l-0.95,0.5l-0.35,0.15q-3.85,0.45 -5.55,3.5l2.75,-0.3l0.55,-0.15l1.4,-0.3l2.3,-0.2q3.35,-0.25 6.65,0.65q3.45,0.95 6.45,3.1l2.1,1.5q-1.75,-0.75 -3.55,-1.15q-1.75,-0.6 -3.45,-0.85l-2.85,0.3l-1.25,0.3q-4.9,-0.75 -7.4,0.85q1.05,-0.2 2.9,1.55l1,0.3q2.35,-0.35 5.9,1l0.55,1.15l0.8,3.35q-0.8,-1.55 -2.25,-2.55q-1.15,-0.85 -2.6,-0.55l-1.6,0.7l-1.85,1.05l-0.4,1.5l-0.15,0l0.05,0.15l1.4,3.3l1.6,3.8q-3.05,3.3 -7.7,4.2l-4.15,-1.05l-0.4,-0.25l-0.95,-0.5q-0.75,-0.3 -1.2,0l4.4,5.3l0.3,3.35l-1.7,2.15l-0.45,-0.25q-1.15,-0.85 -1.65,-2.15l-1.45,-6.1l-0.1,-0.9l-0.45,2.7q-7.35,0.6 -12.85,-4.45l-0.4,-0.8q-1.05,-2.2 -1.5,-4.55l2.7,0.3l-3,-2.75"/>
   <path id="svg_134" fill-rule="evenodd" fill="#e49e29" d="m20.35,63.65l3,2.75l-2.7,-0.3l-0.3,-2.45m28.95,1.95l-1.4,-3.3l0.1,-0.15l1.9,0.15l0.85,0.85l0.8,1.45q0.6,-1.5 0.5,-2.95q-0.2,-1.6 -1.8,-2.05l1.6,-0.7l0.35,1.45q0.75,3.5 0.3,6.85l-3.2,-1.6m-6.2,13.45q-0.55,-2.8 -2.3,-4.85l4.1,1.85l0.45,1.85l-2.25,1.15"/>
   <path id="svg_135" stroke-width="0.5" stroke-linejoin="round" stroke-linecap="round" stroke="#b8800c" fill="none" d="m47.4,47.4l0.35,-0.15l0.95,-0.5l-8.4,0.5l-0.7,0l-1.5,0.1l-4.15,0.75q-2.85,0.65 -5.25,2.5q-2.4,1.75 -3.85,3.65q-1.5,1.9 -2.3,3.4q-0.85,1.45 -3.8,1.8q0.15,2.3 1.6,4.2l3,2.75m-2.7,-0.3q0.45,2.35 1.5,4.55l0.4,0.8q1.5,2.85 4.15,4.85q2.55,2 5.55,2.95q2.5,0.9 5.15,0.95q0.5,1.3 1.65,2.15l0.45,0.25l0.65,0.4l2.35,-0.5l0.4,-0.95q0.5,-1.25 0.2,-2.5l2.25,-1.15q2.15,-1.35 3.9,-3.35q2.45,-2.95 3.15,-6.8l0.05,-0.35l0.05,-0.2q0.45,-3.35 -0.3,-6.85l-0.35,-1.45q1.45,-0.3 2.6,0.55q1.45,1 2.25,2.55l-0.8,-3.35l-0.55,-1.15q-1.1,-1.8 -3.3,-2.25l-1.15,-0.15l-0.7,0l-0.75,0.2l-1,0.9m-0.6,5.95l0.15,0l-0.1,0.15m0.5,-1.65l1.85,-1.05l1.6,-0.7m1.1,-5.1l1.25,-0.3l2.85,-0.3q1.7,0.25 3.45,0.85q1.8,0.4 3.55,1.15l-2.1,-1.5q-3,-2.15 -6.45,-3.1q-3.3,-0.9 -6.65,-0.65l-2.3,0.2l-1.4,0.3m2.25,-3.05q-1.3,0.65 -2.1,1.75l-0.7,1.45m-24.25,13.05l0.3,2.45m29.5,-11.2l-0.7,0.4m0.75,-0.2l-0.05,-0.2q1.35,-0.7 2.8,-1.1m-2.7,5.8q1.6,0.45 1.8,2.05q0.1,1.45 -0.5,2.95l-0.8,-1.45l-0.85,-0.85l-1.9,-0.15"/>
   <path id="svg_136" fill-rule="evenodd" fill="#b8800c" d="m37.85,71.6l0.1,0.2l-0.1,0.15l-0.15,0.1l-0.2,-0.1l-0.05,-0.15l0.05,-0.2l0.2,-0.05l0.15,0.05m-1.7,0.15l0.2,-0.05l0.15,0.05l0.1,0.2l-0.1,0.15l-0.15,0.1l-0.2,-0.1l-0.05,-0.15l0.05,-0.2m-0.5,1.35l0.2,-0.05l0.15,0.05l0.1,0.2l-0.1,0.15l-0.15,0.1l-0.2,-0.1l-0.05,-0.15l0.05,-0.2m3.7,-0.5l-0.1,0.15l-0.15,0.1l-0.2,-0.1l-0.05,-0.15l0.05,-0.2l0.2,-0.05l0.15,0.05l0.1,0.2m1,0.85l0.15,0.05l0.1,0.2l-0.1,0.15l-0.15,0.1l-0.2,-0.1l-0.05,-0.15l0.05,-0.2l0.2,-0.05m-4.4,1.15l0.2,-0.05l0.15,0.05l0.1,0.2l-0.1,0.15l-0.15,0.1l-0.2,-0.1l-0.05,-0.15l0.05,-0.2m0.3,1.5l0.2,-0.05l0.15,0.05l0.1,0.2l-0.1,0.15l-0.15,0.1l-0.2,-0.1l-0.05,-0.15l0.05,-0.2m0.7,1.5l0.1,0.2l-0.1,0.15l-0.15,0.1l-0.2,-0.1l-0.05,-0.15l0.05,-0.2l0.2,-0.05l0.15,0.05m0.05,1.5l0.2,-0.05l0.15,0.05l0.1,0.2l-0.1,0.15l-0.15,0.1l-0.2,-0.1l-0.05,-0.15l0.05,-0.2m3.95,-5.1l0.1,0.2l-0.1,0.15l-0.15,0.1l-0.2,-0.1l-0.05,-0.15l0.05,-0.2l0.2,-0.05l0.15,0.05m1.05,1.5l-0.1,0.15l-0.15,0.1l-0.2,-0.1l-0.05,-0.15l0.05,-0.2l0.2,-0.05l0.15,0.05l0.1,0.2m0.3,1.25l0.2,-0.05l0.15,0.05l0.1,0.2l-0.1,0.15l-0.15,0.1l-0.2,-0.1l-0.05,-0.15l0.05,-0.2m0.5,1.6l0.2,-0.05l0.15,0.05l0.1,0.2l-0.1,0.15l-0.15,0.1l-0.2,-0.1l-0.05,-0.15l0.05,-0.2"/>
  </g>
  <g transform="matrix(1,0,0,1,-22.65,-50.9) " id="shape13">
   <path id="svg_137" fill-rule="evenodd" fill="#fefefe" d="m25.45,54.05l-0.4,0.5q-1.25,1.65 -1.85,3.05q-0.55,1.5 0,1.85q0.55,0.35 1.95,-0.55l0.55,-0.45l0.95,-0.9l0.15,-0.15l1,-1.15l1.05,-1.5q-0.2,-2.85 -3.35,-0.75l-0.05,0.05"/>
   <path id="svg_138" fill-rule="evenodd" fill="#c7d1d8" d="m28.85,54.75l0.8,-1.65q0.6,-1.45 0,-1.85q-0.55,-0.35 -1.85,0.6q-1.15,0.8 -2.3,2.15q3.15,-2.1 3.35,0.75"/>
   <path id="svg_139" stroke-width="0.5" stroke-opacity="0.501961" stroke-linejoin="round" stroke-linecap="round" stroke="#b8800c" fill="none" d="m25.45,54.05l-0.4,0.5q-1.25,1.65 -1.85,3.05q-0.55,1.5 0,1.85q0.55,0.35 1.95,-0.55l0.55,-0.45l0.95,-0.9l0.15,-0.15l1,-1.15l1.05,-1.5l0.8,-1.65q0.6,-1.45 0,-1.85q-0.55,-0.35 -1.85,0.6q-1.15,0.8 -2.3,2.15"/>
   <path id="svg_140" fill-rule="evenodd" fill="#161616" d="m27.4,54.7l0.1,-0.05l-0.1,-0.05l-0.7,0.1l-0.7,0.9l-0.3,1.05q0,0.45 0.3,0.6q0.2,0.15 0.6,-0.2l0.7,-0.8l0.15,-0.3l-0.25,0.05l-0.3,-0.45q-0.05,-0.2 0.05,-0.5l0.45,-0.35"/>
   <path id="svg_141" fill-rule="evenodd" fill="#fefefe" d="m30.35,55.35q7.05,1.1 7.3,8.75l-1.6,1.7q-2.3,1.55 -5.55,0.65q-3.05,-0.9 -3.5,-2.35q-0.65,-2.1 0.5,-5q1,-2.35 2.85,-3.75"/>
   <path id="svg_142" fill-rule="evenodd" fill="#c7d1d8" d="m30.35,55.35l0.6,-0.5q2.3,-1.5 4.55,-0.85q2.3,0.55 3,2.9q1,3.2 0.15,5.3l-1,1.9q-0.25,-7.65 -7.3,-8.75"/>
   <path id="svg_143" stroke-width="0.5" stroke-opacity="0.501961" stroke-linejoin="round" stroke-linecap="round" stroke="#b8800c" fill="none" d="m37.65,64.1l1,-1.9q0.85,-2.1 -0.15,-5.3q-0.7,-2.35 -3,-2.9q-2.25,-0.65 -4.55,0.85l-0.6,0.5m7.3,8.75l-1.6,1.7q-2.3,1.55 -5.55,0.65q-3.05,-0.9 -3.5,-2.35q-0.65,-2.1 0.5,-5q1,-2.35 2.85,-3.75"/>
   <path id="svg_144" fill-rule="evenodd" fill="#161616" d="m30.65,56.2l0.25,-0.1l-0.15,-0.1q-0.45,-0.2 -1.05,0.35l-1.2,1.5l-0.65,1.75q0,0.8 0.35,1q0.4,0.2 1,-0.4l1.15,-1.4l0.25,-0.5l-0.35,-0.05l-0.45,-0.55q0,-0.4 0.25,-0.85l0.6,-0.65"/>
  </g>
  <g transform="matrix(1,0,0,1,23.3,19) " id="shape14">
   <path id="svg_145" fill-rule="evenodd" fill="#bc891e" d="m13.1,-9.85l-0.3,0.3l-2,2.3l0.8,2.05q1.7,5.45 -1.05,10.6q-2.55,4.7 -7.7,6.95l-1.55,1.5l0.2,-0.55q1,-0.45 0.9,-2.4q-0.4,-0.45 -2.65,1.5q0.45,1.9 0.95,2.1l-0.7,0.7q-1.75,0.7 -3.65,-1.45l-0.95,-0.05l-3.25,-0.5l-1.85,-0.65q-5.65,-2.35 -6.55,-8.25l-0.15,-1.25q1.15,3.5 7.7,1.05q-1.4,0.55 -0.6,3l0.45,1l0.85,0.6l2.2,0.1q1.2,-0.35 1.8,-1.25l0.15,-0.25q0.45,-0.5 0.2,-0.65l-0.25,-0.2q-1.05,0.15 -2.65,-1.65l3,-0.7q2.6,-0.7 3.35,-1.4l-0.1,0.2l-0.7,0.9l-0.45,0.5q-0.85,0.85 -1.35,0.5l0.05,0.3l0.05,0.25q0.3,1.2 1.3,1.6l2.2,0.1q1.15,-0.35 1.8,-1.25l0.45,-1.45l-0.35,-1.25q-0.4,-0.7 -1.1,-1q3.85,1 6.5,-3.25q1.35,-2.25 1.4,-4.7q0.05,-2.3 -1.1,-4.8l-0.3,-0.3l0.35,-0.8l1.4,-2.05q2,0.2 3.25,3.95m-29.55,12.45l-2.65,-0.6l-1.3,-0.35q-1.35,-3.85 1.25,-4.8q1.05,0.2 2.25,0.85l0.75,0.4q-0.45,2.15 -0.3,4.5m8.3,-15.7l2.15,-0.95l1,-0.3q-0.55,1.8 -1.9,3.75q-1.25,-0.8 -1.25,-2.5m18.95,5.85q-0.95,-1.95 -2.4,-3.4q1.45,1.45 2.4,3.4m-6.4,17.35l-1.55,2.25l1.55,-2.25m-8.05,-24.75l2.6,-0.2q1.55,1.2 -0.05,3q-1.6,-1.2 -2.55,-2.8m-2.2,5.2l2.4,0.8q-2.25,-0.3 -3.15,1.55q-1.8,-1.35 -1.95,-3.2l2.7,0.85m0.7,22.5l1.5,0.7l-1.5,-0.7"/>
   <path id="svg_146" fill-rule="evenodd" fill="#d2b76a" d="m9.85,-13.8l1,-0.95q1.45,-1 2.5,-0.5q1,0.5 1,2.25q0,1.6 -1.25,3.15q-1.25,-3.75 -3.25,-3.95m-8.55,27.65l-0.6,0.65q-0.5,-0.2 -0.95,-2.1q2.25,-1.95 2.65,-1.5q0.1,1.95 -0.9,2.4l-0.2,0.55m-17.7,-10.8l-0.05,-0.45q-0.15,-2.35 0.3,-4.5q0.4,-2.25 1.45,-4.35l0.35,-0.65l0.4,-0.7l0.2,-0.3q1.4,-2.35 3.5,-3.9q1.15,-2.8 2.7,-4.2q-0.6,1.65 -0.6,2.9q0,1.7 1.25,2.5q1.35,-1.95 1.9,-3.75l1.35,-0.3q0.95,1.6 2.55,2.8q1.6,-1.8 0.05,-3l1.65,0.15q2.1,0.3 4.15,1.4l0.85,0.4l2.5,1.95l0.3,0.3q1.15,2.5 1.1,4.8q-0.05,2.45 -1.4,4.7q-2.65,4.25 -6.5,3.25l-0.05,0l-0.1,-0.05l-0.3,-0.1l-0.85,0.2l-0.35,0.45l-0.15,0.1q-0.75,0.7 -3.35,1.4l-3,0.7l-0.05,0l-1.2,-0.55l-0.7,-0.2l-0.1,0l-0.1,0.05q-6.55,2.45 -7.7,-1.05m-4,-1.4q-1.3,-0.55 -2,-1.5q-1,-1.45 -0.5,-2.45q0.5,-1 2.3,-1l1.45,0.15q-2.6,0.95 -1.25,4.8m22.7,-14q-0.35,-1.55 -1.7,-2.35q1.35,0.8 1.7,2.35m-3.15,1l-0.25,-0.5l0.25,0.5m-12.9,3.45l2.65,1.8l-2.65,-1.8m2.1,0.4q0.6,-2.45 1.4,-4.3q-0.8,1.85 -1.4,4.3m-1.05,3.75l-1.25,-3.85l1.25,3.85m6.85,-5.7l-2.7,-0.85q0.15,1.85 1.95,3.2q0.9,-1.85 3.15,-1.55l-2.4,-0.8l-1.05,-1.15l1.05,1.15"/>
   <path id="svg_147" fill-rule="evenodd" fill="#96510b" d="m-4.6,13.7l0,0.05q0.25,0.9 -0.7,1.6l-2.25,2.05q-1.25,1.35 -2.45,1.35q-1.2,-0.05 -1.5,-0.95q-0.3,-0.9 0.5,-2.1q0.8,-1.25 2.25,-2.05l0.9,-0.45l3.25,0.5m23.85,-6l0,0.05l-2.8,-0.45q-1.15,-0.05 -1.2,-1q-0.1,-0.95 1,-1.7q1.1,-0.7 2.75,-0.8l0.85,-0.05q-2.4,2.25 -0.6,3.95"/>
   <path id="svg_148" fill-rule="evenodd" fill="#c56a0e" d="m19.85,3.75q1.05,0.05 1.95,0.5q1.15,0.6 1.2,1.55q0.05,0.75 -0.65,1.4l-0.35,0.25q-0.8,0.5 -1.8,0.45l-0.9,-0.15l-0.05,-0.05q-1.8,-1.7 0.6,-3.95"/>
   <path id="svg_149" fill-rule="evenodd" fill="#a4adb2" d="m1.6,2.1q0.7,0.3 1.1,1l0.35,1.25l-0.45,1.45q-0.65,0.9 -1.8,1.25l-2.2,-0.1q-1,-0.4 -1.3,-1.6l-0.05,-0.25l-0.05,-0.3q0.5,0.35 1.35,-0.5l0.45,-0.5l0.7,-0.9l0.1,-0.2l0.15,-0.1l0.35,-0.45l0.85,-0.2l0.3,0.1l0.1,0.05l0.05,0m-8.15,2.7q1.6,1.8 2.65,1.65l0.25,0.2q0.25,0.15 -0.2,0.65l-0.15,0.25q-0.6,0.9 -1.8,1.25l-2.2,-0.1l-0.85,-0.6l-0.45,-1q-0.8,-2.45 0.6,-3l0.1,-0.05l0.1,0l0.7,0.2l1.2,0.55l0.05,0"/>
   <path id="svg_150" stroke-width="0.5" stroke-linejoin="round" stroke-linecap="round" stroke="#986a09" fill="none" d="m9.85,-13.8l1,-0.95q1.45,-1 2.5,-0.5q1,0.5 1,2.25q0,1.6 -1.25,3.15l-0.3,0.3l-2,2.3l0.8,2.05q1.7,5.45 -1.05,10.6q-2.55,4.7 -7.7,6.95l-1.55,1.5l-0.6,0.65l-0.7,0.7q-1.75,0.7 -3.65,-1.45l-0.95,-0.05m-3.25,-0.5l-1.85,-0.65q-5.65,-2.35 -6.55,-8.25l-0.15,-1.25l-0.05,-0.45l-2.65,-0.6l-1.3,-0.35q-1.3,-0.55 -2,-1.5q-1,-1.45 -0.5,-2.45q0.5,-1 2.3,-1l1.45,0.15q1.05,0.2 2.25,0.85l0.75,0.4q0.4,-2.25 1.45,-4.35l0.35,-0.65l0.4,-0.7l-0.2,-0.6l0.4,0.3q1.4,-2.35 3.5,-3.9q1.15,-2.8 2.7,-4.2q-0.6,1.65 -0.6,2.9l2.15,-0.95l1,-0.3q0.4,-1.4 0.3,-2.7q-0.1,-0.9 -0.35,-1.7m13.15,7.8l-2.5,-1.95l-0.85,-0.4q-2.05,-1.1 -4.15,-1.4q1.35,0.8 1.7,2.35m5.8,1.4l0.35,-0.8l1.4,-2.05m-1.45,3.15l-0.3,-0.3m0.3,0.3q1.45,1.45 2.4,3.4m-13.5,12.6l-0.05,-0.25l-0.05,-0.3q0.5,0.35 1.35,-0.5l0.45,-0.5l0.7,-0.9l0.1,-0.2l0.15,-0.1l0.35,-0.45l0.85,-0.2m-7.7,2.85q1.6,1.8 2.65,1.65m6.75,5.9l1.55,-2.25m-5.45,-24.95l-2.6,0.2q0.95,1.6 2.55,2.8q1.6,-1.8 0.05,-3l-1.25,-0.65q1.75,0.15 2.9,0.8l-1.65,-0.15m-2.6,0.2q-0.7,-1.1 -1.05,-2.4m-9.05,9.15l-0.2,0.3l1.25,3.85m2.45,-8.05q-0.8,1.85 -1.4,4.3m0.55,1.4l-2.65,-1.8m12.65,-3.95l0.25,0.5m-5,1.9l-1.05,-1.15q-1.25,-0.8 -1.25,-2.5m1.25,2.5q1.35,-1.95 1.9,-3.75m-1.55,19.15l-0.05,0m-1.25,8.4l3.25,0.5m0.95,0.05l-1.5,-0.7m-11.3,-10.45q-0.15,-2.35 0.3,-4.5"/>
  </g>
  <g transform="matrix(1,0,0,1,9.85,-1.3) " id="shape15">
   <path id="svg_151" fill-rule="evenodd" fill="#281b0f" d="m-6.75,4.5q1.3,1.1 1.85,1.95q0.75,1.1 0.4,1.35l-0.95,-0.15l-1,-1l-0.25,-0.4l0.2,-0.2l0.2,-0.65l-0.2,-0.6l-0.3,-0.2l0.05,-0.1"/>
   <path id="svg_152" fill-rule="evenodd" fill="#281b0f" d="m0.8,2l-0.05,-0.05l0.55,-0.65l1,0.8q0.4,0.65 0.4,1.3l-0.05,0.1q-0.05,0.7 -0.5,1q-0.5,0.3 -1.15,0q-0.65,-0.3 -1,-1l-0.15,-0.25l0.35,0.1l0.6,-0.25l0.25,-0.55l-0.25,-0.55"/>
   <path id="svg_153" fill-rule="evenodd" fill="#a4adb2" d="m-8.6,4l0.1,0l0.7,0.25l1.2,0.5l0,0.35l0.15,0.6l0.35,0.75l1,1l0.95,0.15q0.35,-0.25 0.3,-0.95l-0.05,-0.25l0.25,0.2q0.25,0.15 -0.2,0.65l-0.15,0.25q-0.65,0.9 -1.8,1.25l-2.2,-0.1l-0.85,-0.55l-0.45,-1.05q-0.8,-2.45 0.6,-3l0.1,-0.05"/>
   <path id="svg_154" stroke-width="0.5" stroke-linejoin="round" stroke-linecap="round" stroke="#986a09" fill="none" d="m-8.6,4l-0.1,0.05q-1.4,0.55 -0.6,3l0.45,1.05m5,-0.85q0.45,-0.5 0.2,-0.65l-0.25,-0.2m-2.7,-1.65l-1.2,-0.5l-0.7,-0.25"/>
  </g>
  <g transform="matrix(1,0,0,1,67.05,-47.65) " id="shape16">
   <path id="svg_155" fill-rule="evenodd" fill="#e4a625" d="m-32,69.75l0.45,-0.3q1.95,-1.15 3.8,-1.2q1.8,-0.1 2.45,0.95q0.55,1 -0.4,2.55q-1,1.55 -3.3,2.1l-1.05,0.25q-0.85,-2.35 -1.95,-4.35"/>
   <path id="svg_156" fill-rule="evenodd" fill="#ffcc00" d="m-40.1,62.45q0.85,0.25 1.65,0.65q-0.4,0.75 -1.1,1.5l-0.55,-2.15"/>
   <path id="svg_157" fill-rule="evenodd" fill="#fede81" d="m-46.65,56.55l-0.05,-0.25l-0.05,-0.15q-0.65,-2 -1.85,-3.75l-0.65,-0.9q-1.5,-1.95 -3.65,-3.6q2.5,1.35 4.55,2.95q6.05,4.75 8.25,11.6l0.55,2.15q0.7,-0.75 1.1,-1.5q0.85,-1.75 0.3,-3.85l2.4,5.45l-0.15,0.05l1.55,1.5q1.3,1.55 2.35,3.5q1.1,2 1.95,4.35l0.6,1.9l0.35,1.25q1.6,6.6 -3.4,11.15l-0.05,0.1l-1.8,1.35l-1.35,0.8l-0.45,1.15l-1.4,1.15l-4.95,-0.8l-0.75,-0.9l-4.1,-4.85l-4.55,-1.65l-4.45,-8l0,-0.6l-0.1,-0.45q-0.25,-0.65 -1,-1.3l-0.95,-0.7q-0.8,-0.55 -1.85,-0.9q1.05,0.35 1.85,0.9l0.95,0.7q0.75,0.65 1,1.3l0.1,0.45l0,0.6q-0.25,0.75 -1.1,0.85l-0.85,0l-2.4,-0.15l-1.6,0l-0.9,0l-0.75,-0.1q-1.3,-0.3 -2.1,-1.05l-0.75,-0.85l0,-2.15q0.5,-0.65 1.8,-0.95l0.5,-0.05l3.5,0.25l0.75,0.25l0.45,-1.35q1.15,-3.1 3.75,-5.45l0.5,-0.45l5.75,2.05l1.25,-3.3l3.4,2.7l1.35,-2.55l-2.85,-7.9m11.6,32.6l-0.65,1.5l0.65,-1.5m-3.3,-7.6l0.1,-0.25l-0.15,0.25l0.05,0m0.35,-0.75l-0.15,0.2l0.15,-0.2"/>
   <path id="svg_158" fill-rule="evenodd" fill="#899baf" d="m-38.35,81.55l-0.05,0l0.15,-0.25l-0.1,0.25m0.35,-0.75l-0.15,0.2l0.15,-0.2"/>
   <path id="svg_159" fill-rule="evenodd" fill="#b6620e" d="m-36.15,91.8l0.45,-1.15l1.35,-0.8l1.8,-1.35q1.65,0 2.8,0.65q0.55,0.3 0.85,0.7q0.35,0.45 0.35,1q0,1 -1.2,1.7l-2.9,0.1l-2.85,-0.65l-0.65,-0.2m-18.35,-1.35l0.85,-0.3l2.95,-0.05q1.3,0.4 1.55,1.35q0.25,0.95 -0.85,1.35q-1.15,0.4 -2.65,1.35q1.2,-2.25 -1.85,-3.7"/>
   <path id="svg_160" fill-rule="evenodd" fill="#dfab55" d="m-43.25,91.25l0.75,0.9l-1.3,-0.45l0.55,-0.45"/>
   <path id="svg_161" fill-rule="evenodd" fill="#e9af50" d="m-50.1,62.6q0.05,-2 -0.95,-3.25q-1.3,-1.6 -4.25,-1.95l3.65,-0.45q5.15,2.2 5.7,4.8q0.05,-2.75 -0.7,-5.2l2.85,7.9l-1.35,2.55l-3.4,-2.7l-1.25,3.3l-5.75,-2.05q1.4,-1.2 3,-2l-2.55,-0.35q2.2,-2.15 3.45,-1.65q1.1,0.45 1.55,1.05q0,0.95 -0.3,2.15q0.3,-1.2 0.3,-2.15m-6.25,14.15l4.45,8l4.55,1.65l4.1,4.85l-0.55,0.45l-0.65,-0.1l-0.15,-0.05l-1.75,-0.4l-3.85,-1.3l-0.2,-0.05q-3.25,-1.4 -5.8,-3.5q-3.15,-2.6 -4.1,-6.2l-0.4,-2.65l2.4,0.15l0.85,0q0.85,-0.1 1.1,-0.85m4.7,-11.15q0.35,-1.5 -0.9,-2.05q1.25,0.55 0.9,2.05"/>
   <path id="svg_162" fill-rule="evenodd" fill="#ee8011" d="m-54.5,90.45q3.05,1.45 1.85,3.7l-0.05,0.05l-0.8,0.45l-2,0.1l-0.4,-0.1q-0.95,-0.4 -1.15,-1.2q-0.25,-0.95 0.75,-1.95q0.7,-0.7 1.8,-1.05"/>
   <path id="svg_163" stroke-width="0.5" stroke-linejoin="round" stroke-linecap="round" stroke="#b8800c" fill="none" d="m-46.65,56.55q0.75,2.45 0.7,5.2q-0.55,-2.6 -5.7,-4.8l-3.65,0.45q2.95,0.35 4.25,1.95q1,1.25 0.95,3.25q0,0.95 -0.3,2.15m-5.15,0.8l-0.5,0.45q-2.6,2.35 -3.75,5.45l-0.45,1.35q1.05,0.35 1.85,0.9l0.95,0.7q0.75,0.65 1,1.3l0.1,0.45l0,0.6m13.85,15.4l4.95,0.8l1.4,-1.15l0.45,-1.15l0.65,-1.5m-5.05,-26.7q-2.2,-6.85 -8.25,-11.6q-2.05,-1.6 -4.55,-2.95q2.15,1.65 3.65,3.6l0.65,0.9q1.2,1.75 1.85,3.75m-4.3,3.2l-1.65,-0.05m0.15,4.25q1.25,0.55 0.9,2.05m1.55,-3q-0.45,-0.6 -1.55,-1.05q-1.25,-0.5 -3.45,1.65l2.55,0.35q-1.6,0.8 -3,2m-4.7,7.25l-0.75,-0.25l-3.5,-0.25l-0.5,0.05q-1.3,0.3 -1.8,0.95l0,2.15l0.75,0.85q0.8,0.75 2.1,1.05l0.75,0.1l0.9,0l1.6,0l2.4,0.15l0.85,0q0.85,-0.1 1.1,-0.85m-4.35,0.7l0.4,2.65q0.95,3.6 4.1,6.2q2.55,2.1 5.8,3.5l0.2,0.05l3.85,1.3l1.75,0.4l0.15,0.05l0.65,0.1l1.3,0.45m4.05,-29.05q-0.8,-0.4 -1.65,-0.65l0.55,2.15q0.7,-0.75 1.1,-1.5q0.85,-1.75 0.3,-3.85l2.4,5.45m-0.15,0.05l1.55,1.5q1.3,1.55 2.35,3.5l0.45,-0.3q1.95,-1.15 3.8,-1.2q1.8,-0.1 2.45,0.95q0.55,1 -0.4,2.55q-1,1.55 -3.3,2.1l-1.05,0.25l0.6,1.9l0.35,1.25q1.6,6.6 -3.4,11.15l-0.05,0.1l-1.8,1.35l-1.35,0.8m3.7,-20.9q1.1,2 1.95,4.35"/>
   <path id="svg_164" stroke-width="0.5" stroke-opacity="0.301961" stroke-linejoin="round" stroke-linecap="round" stroke="#000000" fill="none" d="m-52.65,94.15q1.5,-0.95 2.65,-1.35q1.1,-0.4 0.85,-1.35q-0.25,-0.95 -1.55,-1.35l-2.95,0.05l-0.85,0.3m1.85,3.7l-0.05,0.05l-0.8,0.45l-2,0.1l-0.4,-0.1q-0.95,-0.4 -1.15,-1.2q-0.25,-0.95 0.75,-1.95q0.7,-0.7 1.8,-1.05m21.95,-1.95q1.65,0 2.8,0.65q0.55,0.3 0.85,0.7q0.35,0.45 0.35,1q0,1 -1.2,1.7l-2.9,0.1l-2.85,-0.65l-0.65,-0.2"/>
  </g>
  <g transform="matrix(1,0,0,1,53.6,-73.85) " id="shape17">
   <path id="svg_165" fill-rule="evenodd" fill="#fefefe" d="m-39.75,78.1q1,2.25 0.55,4.8q-0.7,3.05 -2.9,4.5l-5.15,0.15q-4,-1 -5.45,-3.5q-0.6,-1 -0.65,-2.3q5.4,-6.35 13.6,-3.65"/>
   <path id="svg_166" fill-rule="evenodd" fill="#c7d1d8" d="m-53.35,81.75l0.2,-2.1q0.5,-2.25 3.7,-4.4q2.3,-1.6 5.05,-0.95q2.8,0.65 4.3,3.1l0.35,0.7q-8.2,-2.7 -13.6,3.65"/>
   <path id="svg_167" stroke-width="0.5" stroke-opacity="0.501961" stroke-linejoin="round" stroke-linecap="round" stroke="#b8800c" fill="none" d="m-53.35,81.75l0.2,-2.1q0.5,-2.25 3.7,-4.4q2.3,-1.6 5.05,-0.95q2.8,0.65 4.3,3.1l0.35,0.7q1,2.25 0.55,4.8q-0.7,3.05 -2.9,4.5l-5.15,0.15q-4,-1 -5.45,-3.5q-0.6,-1 -0.65,-2.3z"/>
   <path id="svg_168" fill-rule="evenodd" fill="#fefefe" d="m-31.1,80.75l-0.15,0.65q-0.5,2.4 -1.85,4.05q-1.35,1.65 -2.8,1.45q-1.5,-0.25 -2.1,-2.15l-0.2,-0.85q-0.4,-0.7 -0.2,-1.5l0,-0.25l0.3,-1.8l0.6,-2.05q4.7,-1.95 6.4,2.35l0,0.1"/>
   <path id="svg_169" fill-rule="evenodd" fill="#c7d1d8" d="m-37.5,78.3q0.45,-1.15 1.2,-1.95q1.35,-1.65 2.85,-1.4q1.45,0.2 2.1,2q0.5,1.65 0.25,3.7q-1.7,-4.3 -6.4,-2.35"/>
   <path id="svg_170" stroke-width="0.5" stroke-opacity="0.501961" stroke-linejoin="round" stroke-linecap="round" stroke="#b8800c" fill="none" d="m-31.1,80.75l-0.15,0.65q-0.5,2.4 -1.85,4.05q-1.35,1.65 -2.8,1.45q-1.5,-0.25 -2.1,-2.15l-0.2,-0.85q-0.4,-0.7 -0.2,-1.5l0,-0.25l0.3,-1.8l0.6,-2.05q0.45,-1.15 1.2,-1.95q1.35,-1.65 2.85,-1.4q1.45,0.2 2.1,2q0.5,1.65 0.25,3.7"/>
   <path id="svg_171" fill-rule="evenodd" fill="#161616" d="m-40.8,78.75l-0.1,-0.2l0.15,0q0.55,0.05 0.95,0.85q0.25,0.85 0.2,1.9q-0.1,1.1 -0.45,1.85q-0.45,0.7 -1,0.7q-0.55,-0.05 -0.8,-0.9q-0.4,-0.8 -0.3,-1.85l0.1,-0.55l0.35,0.2l0.85,-0.3l0.3,-0.8q0,-0.5 -0.25,-0.9"/>
   <path id="svg_172" fill-rule="evenodd" fill="#161616" d="m-36.5,79.15l-0.1,-0.2l0.15,0q0.5,0.05 0.75,0.75q0.2,0.75 0.15,1.7l-0.5,1.55l-0.9,0.55q-0.5,-0.05 -0.65,-0.75q-0.3,-0.7 -0.25,-1.65l0.15,-0.45l0.3,0.15l0.75,-0.2l0.3,-0.65q0.05,-0.5 -0.15,-0.8"/>
  </g>
  <g transform="matrix(1,0,0,1,192.55,294) " id="shape18">
   <path id="svg_173" stroke-opacity="0" stroke-linejoin="round" stroke-linecap="round" stroke="#ff00ff" fill="none" d="m187.95,-293.5l0,380l-379.95,0l-0.05,0l0,-380l380,0m-95,294.1l-189.95,0"/>
   <path id="svg_174" stroke-opacity="0" stroke-linejoin="round" stroke-linecap="round" stroke="#ff00ff" fill="none" d="m187.95,-293.5l-190,190l190,190m-380,-380l190,190l-189.95,190"/>
  </g>
  <g id="sprite5">
   <use id="svg_175" xlink:href="#shape19" width="102.95" height="45"/>
  </g>
  <g id="shape19">
   <path id="svg_176" fill-rule="evenodd" fill-opacity="0" fill="#ff00ff" d="m0,0l102.95,0l0,45l-102.95,0l0,-45"/>
  </g>
  <radialGradient spreadMethod="pad" r="819.2" id="gradient0" gradientUnits="userSpaceOnUse" gradientTransform="matrix(0.0156, 0.0, 0.0, 0.0156, 37.05, -65.1)" cy="0" cx="0">
   <stop stop-color="#f4a80b" offset="0.164706"/>
   <stop stop-color="#7a4b05" offset="1"/>
  </radialGradient>
  <radialGradient spreadMethod="pad" r="819.2" id="gradient1" gradientUnits="userSpaceOnUse" gradientTransform="matrix(0.0572, 0.0, 0.0, 0.0572, -1.1, 17.95)" cy="0" cx="0">
   <stop stop-color="#c2762c" offset="0.003922"/>
   <stop stop-color="#d99d55" offset="0.760784"/>
  </radialGradient>
  <radialGradient spreadMethod="pad" r="819.2" id="gradient2" gradientUnits="userSpaceOnUse" gradientTransform="matrix(0.0057, 0.0, 0.0, 0.0057, 0.0, 0.0)" cy="0" cx="0">
   <stop stop-color="#ff6600" offset="0"/>
   <stop stop-opacity="0" stop-color="#e3b04a" offset="1"/>
  </radialGradient>
  <linearGradient y2="-0.003537" y1="0.687298" x2="0.271678" x1="0.53439" spreadMethod="pad" id="gradient3">
   <stop stop-opacity="0.301961" stop-color="#37220d" offset="0"/>
   <stop stop-opacity="0.113725" stop-color="#3d2610" offset="1"/>
  </linearGradient>
  <linearGradient y2="1.473084" y1="0.241203" x2="0.245815" x1="0.736764" spreadMethod="pad" id="gradient4">
   <stop stop-opacity="0.301961" stop-color="#37220d" offset="0"/>
   <stop stop-opacity="0.113725" stop-color="#3d2610" offset="1"/>
  </linearGradient>
  <linearGradient y2="1.686912" y1="0.542005" x2="0.796834" x1="0.429833" spreadMethod="pad" id="gradient5">
   <stop stop-opacity="0.301961" stop-color="#37220d" offset="0"/>
   <stop stop-opacity="0.113725" stop-color="#3d2610" offset="1"/>
  </linearGradient>
  <linearGradient y2="0.824934" y1="0.189052" x2="0.475826" x1="0.147012" spreadMethod="pad" id="gradient6">
   <stop stop-opacity="0.301961" stop-color="#37220d" offset="0"/>
   <stop stop-opacity="0.113725" stop-color="#3d2610" offset="1"/>
  </linearGradient>
  <linearGradient y2="0.617617" y1="0.239525" x2="0.763576" x1="0.562955" spreadMethod="pad" id="gradient7">
   <stop stop-opacity="0.301961" stop-color="#37220d" offset="0"/>
   <stop stop-opacity="0.113725" stop-color="#3d2610" offset="1"/>
  </linearGradient>
  <linearGradient y2="0.725109" y1="0.327921" x2="0.150239" x1="0.811106" spreadMethod="pad" id="gradient8">
   <stop stop-opacity="0.301961" stop-color="#37220d" offset="0"/>
   <stop stop-opacity="0.113725" stop-color="#3d2610" offset="1"/>
  </linearGradient>
  <linearGradient y2="-0.049689" y1="0.749954" x2="0.990872" x1="0.091095" spreadMethod="pad" id="gradient9">
   <stop stop-opacity="0.301961" stop-color="#37220d" offset="0"/>
   <stop stop-opacity="0.113725" stop-color="#3d2610" offset="1"/>
  </linearGradient>
  <linearGradient y2="-0.162143" y1="0.645069" x2="1.30652" x1="0.231942" spreadMethod="pad" id="gradient10">
   <stop stop-opacity="0.301961" stop-color="#37220d" offset="0"/>
   <stop stop-opacity="0.113725" stop-color="#3d2610" offset="1"/>
  </linearGradient>
  <linearGradient y2="0.052478" y1="0.675783" x2="0.804581" x1="0.276065" spreadMethod="pad" id="gradient11">
   <stop stop-opacity="0.301961" stop-color="#37220d" offset="0"/>
   <stop stop-opacity="0.113725" stop-color="#3d2610" offset="1"/>
  </linearGradient>
  <linearGradient y2="0.79201" y1="0.201779" x2="0.060567" x1="0.64156" spreadMethod="pad" id="gradient12">
   <stop stop-opacity="0.301961" stop-color="#37220d" offset="0"/>
   <stop stop-opacity="0.113725" stop-color="#3d2610" offset="1"/>
  </linearGradient>
  <linearGradient y2="1.836698" y1="0.356853" x2="-0.446705" x1="0.397625" spreadMethod="pad" id="gradient13">
   <stop stop-opacity="0.301961" stop-color="#37220d" offset="0"/>
   <stop stop-opacity="0.113725" stop-color="#3d2610" offset="1"/>
  </linearGradient>
  <linearGradient y2="0.405012" y1="0.202918" x2="0.611151" x1="0.880477" spreadMethod="pad" id="gradient14">
   <stop stop-opacity="0.301961" stop-color="#37220d" offset="0"/>
   <stop stop-opacity="0.113725" stop-color="#3d2610" offset="1"/>
  </linearGradient>
  <linearGradient y2="0.835319" y1="0.349867" x2="0.464183" x1="0.589252" spreadMethod="pad" id="gradient15">
   <stop stop-opacity="0.301961" stop-color="#37220d" offset="0"/>
   <stop stop-opacity="0.113725" stop-color="#3d2610" offset="1"/>
  </linearGradient>
  <linearGradient y2="0.257966" y1="0.68169" x2="0.62662" x1="0.437787" spreadMethod="pad" id="gradient16">
   <stop stop-opacity="0.301961" stop-color="#37220d" offset="0"/>
   <stop stop-opacity="0.113725" stop-color="#3d2610" offset="1"/>
  </linearGradient>
  <linearGradient y2="-0.024833" y1="0.835893" x2="-0.033782" x1="0.687114" spreadMethod="pad" id="gradient17">
   <stop stop-opacity="0.301961" stop-color="#37220d" offset="0"/>
   <stop stop-opacity="0.113725" stop-color="#3d2610" offset="1"/>
  </linearGradient>
  <linearGradient y2="-0.009083" y1="0.701098" x2="0.5434" x1="0.472473" spreadMethod="pad" id="gradient18">
   <stop stop-opacity="0.301961" stop-color="#37220d" offset="0"/>
   <stop stop-opacity="0.113725" stop-color="#3d2610" offset="1"/>
  </linearGradient>
  <linearGradient y2="0.373228" y1="0.573338" x2="0.978546" x1="0.020113" spreadMethod="pad" id="gradient19">
   <stop stop-opacity="0.301961" stop-color="#37220d" offset="0"/>
   <stop stop-opacity="0.113725" stop-color="#3d2610" offset="1"/>
  </linearGradient>
  <radialGradient spreadMethod="pad" r="819.2" id="gradient20" gradientUnits="userSpaceOnUse" gradientTransform="matrix(0.0156, 0.0, 0.0, 0.0156, 34.4, 9.15)" cy="0" cx="0">
   <stop stop-opacity="0" stop-color="#000000" offset="0.164706"/>
   <stop stop-opacity="0.262745" stop-color="#000000" offset="1"/>
  </radialGradient>
  <linearGradient y2="0.138057" y1="0.697272" x2="0.698076" x1="0.217479" spreadMethod="pad" id="gradient21">
   <stop stop-opacity="0.192157" stop-color="#ffffff" offset="0"/>
   <stop stop-opacity="0.321569" stop-color="#ffffff" offset="1"/>
  </linearGradient>
  <radialGradient spreadMethod="pad" r="819.2" id="gradient22" gradientUnits="userSpaceOnUse" gradientTransform="matrix(0.0572, 0.0, 0.0, 0.0572, -1.1, 17.95)" cy="0" cx="0">
   <stop stop-opacity="0.301961" stop-color="#3f250e" offset="0.003922"/>
   <stop stop-opacity="0.301961" stop-color="#4d2f11" offset="0.760784"/>
  </radialGradient>
  <radialGradient spreadMethod="pad" r="819.2" id="gradient23" gradientUnits="userSpaceOnUse" gradientTransform="matrix(0.0086, 0.0, 0.0, 0.0086, 37.95, 39.6)" cy="0" cx="0">
   <stop stop-opacity="0.301961" stop-color="#3f250e" offset="0.003922"/>
   <stop stop-opacity="0.301961" stop-color="#4d2f11" offset="0.760784"/>
  </radialGradient>
  <radialGradient spreadMethod="pad" r="819.2" id="gradient24" gradientUnits="userSpaceOnUse" gradientTransform="matrix(0.0038, 0.0, 0.0, 0.0038, 33.15, 47.2)" cy="0" cx="0">
   <stop stop-opacity="0.301961" stop-color="#3f250e" offset="0.003922"/>
   <stop stop-opacity="0.301961" stop-color="#4d2f11" offset="0.760784"/>
  </radialGradient>
  <radialGradient spreadMethod="pad" r="819.2" id="gradient25" gradientUnits="userSpaceOnUse" gradientTransform="matrix(0.0041, 0.0, 0.0, 0.0041, 20.65, 23.2)" cy="0" cx="0">
   <stop stop-opacity="0.301961" stop-color="#3f250e" offset="0.003922"/>
   <stop stop-opacity="0.301961" stop-color="#4d2f11" offset="0.760784"/>
  </radialGradient>
  <radialGradient spreadMethod="pad" r="819.2" id="gradient26" gradientUnits="userSpaceOnUse" gradientTransform="matrix(0.0061, 0.0, 0.0, 0.0061, 15.7, 14.25)" cy="0" cx="0">
   <stop stop-opacity="0.301961" stop-color="#3f250e" offset="0.003922"/>
   <stop stop-opacity="0.301961" stop-color="#4d2f11" offset="0.760784"/>
  </radialGradient>
  <radialGradient spreadMethod="pad" r="819.2" id="gradient27" gradientUnits="userSpaceOnUse" gradientTransform="matrix(0.0066, 0.0, 0.0, 0.0066, 7.15, 12.15)" cy="0" cx="0">
   <stop stop-opacity="0.301961" stop-color="#3f250e" offset="0.003922"/>
   <stop stop-opacity="0.301961" stop-color="#4d2f11" offset="0.760784"/>
  </radialGradient>
  <radialGradient spreadMethod="pad" r="819.2" id="gradient28" gradientUnits="userSpaceOnUse" gradientTransform="matrix(0.0107, 0.0, 0.0, 0.0107, 29.9, 34.8)" cy="0" cx="0">
   <stop stop-opacity="0.301961" stop-color="#3f250e" offset="0.003922"/>
   <stop stop-opacity="0.301961" stop-color="#4d2f11" offset="0.760784"/>
  </radialGradient>
  <radialGradient spreadMethod="pad" r="819.2" id="gradient29" gradientUnits="userSpaceOnUse" gradientTransform="matrix(0.0045, 0.0, 0.0, 0.0045, 37.4, 34.2)" cy="0" cx="0">
   <stop stop-opacity="0.301961" stop-color="#3f250e" offset="0.003922"/>
   <stop stop-opacity="0.301961" stop-color="#4d2f11" offset="0.760784"/>
  </radialGradient>
  <radialGradient spreadMethod="pad" r="819.2" id="gradient30" gradientUnits="userSpaceOnUse" gradientTransform="matrix(0.0018, 0.0, 0.0, 0.0018, 36.65, 40.55)" cy="0" cx="0">
   <stop stop-opacity="0.301961" stop-color="#3f250e" offset="0.003922"/>
   <stop stop-opacity="0.301961" stop-color="#4d2f11" offset="0.760784"/>
  </radialGradient>
  <radialGradient spreadMethod="pad" r="819.2" id="gradient31" gradientUnits="userSpaceOnUse" gradientTransform="matrix(0.0027, 0.0, 0.0, 0.0027, 15.6, 63.25)" cy="0" cx="0">
   <stop stop-opacity="0.301961" stop-color="#3f250e" offset="0.003922"/>
   <stop stop-opacity="0.301961" stop-color="#4d2f11" offset="0.760784"/>
  </radialGradient>
  <radialGradient spreadMethod="pad" r="819.2" id="gradient32" gradientUnits="userSpaceOnUse" gradientTransform="matrix(0.0051, 0.0, 0.0, 0.0051, 3.7, 58.15)" cy="0" cx="0">
   <stop stop-opacity="0.301961" stop-color="#3f250e" offset="0.003922"/>
   <stop stop-opacity="0.301961" stop-color="#4d2f11" offset="0.760784"/>
  </radialGradient>
  <radialGradient spreadMethod="pad" r="819.2" id="gradient33" gradientUnits="userSpaceOnUse" gradientTransform="matrix(0.0171, 0.0, 0.0, 0.0171, 58.55, 124.15)" cy="0" cx="0">
   <stop stop-opacity="0.301961" stop-color="#3f250e" offset="0.003922"/>
   <stop stop-opacity="0.301961" stop-color="#4d2f11" offset="0.760784"/>
  </radialGradient>
  <radialGradient spreadMethod="pad" r="819.2" id="gradient34" gradientUnits="userSpaceOnUse" gradientTransform="matrix(0.0027, 0.0, 0.0, 0.0027, -3.85, 46.7)" cy="0" cx="0">
   <stop stop-opacity="0.301961" stop-color="#3f250e" offset="0.003922"/>
   <stop stop-opacity="0.301961" stop-color="#4d2f11" offset="0.760784"/>
  </radialGradient>
  <radialGradient spreadMethod="pad" r="819.2" id="gradient35" gradientUnits="userSpaceOnUse" gradientTransform="matrix(0.0131, 0.0, 0.0, 0.0131, -22.45, 86.1)" cy="0" cx="0">
   <stop stop-opacity="0.301961" stop-color="#3f250e" offset="0.003922"/>
   <stop stop-opacity="0.301961" stop-color="#4d2f11" offset="0.760784"/>
  </radialGradient>
  <linearGradient y2="-0.028379" y1="0.803757" x2="0.798856" x1="0.141473" spreadMethod="pad" id="gradient36">
   <stop stop-opacity="0.392157" stop-color="#000000" offset="0"/>
   <stop stop-opacity="0.25098" stop-color="#000000" offset="1"/>
  </linearGradient>
  <linearGradient y2="1.051035" y1="0.268205" x2="0.173803" x1="0.864387" spreadMethod="pad" id="gradient37">
   <stop stop-opacity="0.65098" stop-color="#000000" offset="0"/>
   <stop stop-opacity="0.380392" stop-color="#000000" offset="1"/>
  </linearGradient>
 </defs>
 <g>
  <title>background</title>
  <rect fill="none" id="canvas_background" height="312" width="260" y="-1" x="-1"/>
 </g>
 <g>
  <title>Layer 1</title>
  <g id="svg_177">
   <use x="99.284567" y="0" id="svg_178" xlink:href="#sprite0" width="184.7" transform="matrix(-1.3697999999999997,0,0,1.3697999999999997,390.63620000000003,1.862199999999973) " height="223.5"/>
   <use x="99.284567" y="0" id="svg_179" xlink:href="#shape1" width="37.65" transform="matrix(-1.3697999999999997,0,0,1.3697999999999997,229.344,28.299499999999995) " height="37.75"/>
   <use x="-318.115085" y="186.77228" id="svg_180" xlink:href="#shape2" width="13.25" transform="matrix(-0.6446,-0.5143,-0.5143,0.6446,-53.4811,-235.5282) " height="5.6"/>
   <use x="-99.284567" y="0" id="svg_181" xlink:href="#shape3" width="11.5" transform="matrix(1.3697999999999997,0,0,1.3697999999999997,192.66,45.20580000000001) " height="6.15"/>
   <use x="99.284567" y="0" id="svg_182" xlink:href="#shape4" width="27.5" transform="matrix(-1.3697999999999997,0,0,1.3697999999999997,216.07920000000001,3.3159999999999172) " height="26.3"/>
   <use x="-318.115085" y="186.77228" id="svg_183" xlink:href="#shape2" width="13.25" transform="matrix(-0.6446,-0.5143,-0.5143,0.6446,-32.8311,-222.5282) " height="5.6"/>
   <use x="99.284567" y="0" id="svg_184" xlink:href="#shape5" width="4.9" transform="matrix(-1.3697999999999997,0,0,1.3697999999999997,195.86079999999993,53.42999999999995) " height="9.5"/>
   <use x="83.82643" y="0" xlink:href="#sprite1" width="99.7" transform="matrix(-1.6223999999999998,0,0,1.6223999999999998,311.7269,34.44219999999996) " id="fringues" height="157.8"/>
   <use x="83.82643" y="0" xlink:href="#sprite2" width="61.65" transform="matrix(-1.6223999999999998,0,0,1.6223999999999998,306.10119999999995,79.12369999999996) " id="cheveux" height="129.1"/>
   <use x="83.82643" y="0" xlink:href="#sprite3" width="103.35" transform="matrix(-1.6223999999999998,0,0,1.6223999999999998,307.3473,81.54400000000001) " id="peau" height="125.5"/>
   <use x="83.82643" y="0" xlink:href="#sprite4" width="137.95" transform="matrix(-1.6223999999999998,0,0,1.6223999999999998,371.896,62.176199999999994) " id="gants" height="150.3"/>
   <use x="83.82643" y="0" id="svg_185" xlink:href="#shape10" width="153.05" transform="matrix(-1.6223999999999998,0,0,1.6223999999999998,387.5704999999999,34.42779999999999) " height="168.15"/>
   <use x="-46.543405" y="121.269055" id="svg_186" xlink:href="#shape11" width="9.3" transform="matrix(-2.3419,0,0,2.3419,-5.6102,-162.3808) " height="7.2"/>
   <use x="-216.133983" y="76.75691" id="svg_187" xlink:href="#shape11" width="9.3" transform="matrix(-0.9547,-0.6163,-1.2682,1.9646,34.4551,-142.1566) " height="7.2"/>
   <use x="83.82643" y="0" id="svg_188" xlink:href="#shape12" width="150.4" transform="matrix(-1.6223999999999998,0,0,1.6223999999999998,387.16489999999993,34.42779999999999) " height="167.4"/>
   <use x="8.443085" y="368.263211" id="svg_189" xlink:href="#shape2" width="13.25" transform="matrix(-0.764,0.3135,0.3135,0.764,-33.7199,-115.5703) " height="5.6"/>
   <use x="83.82643" y="0" id="svg_190" xlink:href="#shape13" width="16.65" transform="matrix(-1.6223999999999998,0,0,1.6223999999999998,219.0025,146.13049999999996) " height="16.15"/>
   <use x="99.284567" y="0" id="svg_191" xlink:href="#shape14" width="46.3" transform="matrix(-1.3697999999999997,0,0,1.3697999999999997,388.9656,172.5244) " height="37.75"/>
   <use x="-185.745046" y="416.734416" id="svg_192" xlink:href="#shape2" width="13.25" transform="matrix(-0.6658,-0.0352,-0.0352,0.6658,127.4414,-73.2987) " height="5.6"/>
   <use x="-318.470428" y="325.985346" id="svg_193" xlink:href="#shape2" width="13.25" transform="matrix(-0.6129,-0.2644,-0.2644,0.6129,111.2722,-75.7903) " height="5.6"/>
   <use x="99.284567" y="0" id="svg_194" xlink:href="#shape15" width="12.55" transform="matrix(-1.3697999999999997,0,0,1.3697999999999997,370.5422,200.33069999999992) " height="7.6"/>
   <use x="83.82643" y="0" id="svg_195" xlink:href="#shape16" width="42.2" transform="matrix(-1.6223999999999998,0,0,1.6223999999999998,364.53229999999996,140.85759999999993) " height="47.45"/>
   <use x="345.544025" y="202.756649" id="svg_196" xlink:href="#shape2" width="13.25" transform="matrix(0.5934,0.4737,-0.4737,0.5934,61.0366,-86.1583) " height="5.6"/>
   <use x="83.82643" y="0" id="svg_197" xlink:href="#shape17" width="22.85" transform="matrix(-1.6223999999999998,0,0,1.6223999999999998,342.71099999999996,183.36469999999994) " height="14.35"/>
   <use x="-13.139196" y="368.145035" id="svg_198" xlink:href="#shape2" width="13.25" transform="matrix(0.7599,-0.3232,0.3232,0.7599,91.8958,-81.8563) " height="5.6"/>
   <use x="109" y="284" id="svg_199" xlink:href="#shape18" width="381" transform="matrix(1,0,0,1,-192.55,-294) " height="381"/>
   <use x="-75.254537" y="0" xlink:href="#sprite5" width="102.95" transform="matrix(1.8072000000000004,0,0,1.6538,148.95000000000005,93.15) " id="_mcMask" height="45"/>
  </g>
 </g>
</svg>