<svg width="628" height="433" xmlns="http://www.w3.org/2000/svg" xmlns:xlink="http://www.w3.org/1999/xlink">
 <defs>
  <g transform="matrix(1,0,0,1,192.55,294) " id="shape0">
   <path id="svg_1" stroke-opacity="0" stroke-linejoin="round" stroke-linecap="round" stroke="#ff00ff" fill="none" d="m187.95,-293.5l0,380l-379.95,0l-0.05,0l0,-380l380,0m-95,294.1l-189.95,0"/>
   <path id="svg_2" stroke-opacity="0" stroke-linejoin="round" stroke-linecap="round" stroke="#ff00ff" fill="none" d="m187.95,-293.5l-190,190l190,190m-380,-380l190,190l-189.95,190"/>
   <path id="svg_3" fill-rule="evenodd" fill="#ceffff" d="m52.5,-218.9l13.65,-5.5l9.5,-8.75l-5.65,10.55l-4.2,4.2l18,0l24.1,-3.85l18.35,-14.55l-7.45,11.1l-1.6,1.5l-5.5,5.25l-5.8,1.95l-15.55,5.3l-25.65,5.65l17.35,-6.9l-26.6,2.75l4.15,-4.2l-12.3,7.05q-14.8,4.7 -15.8,0.45l-0.05,-0.55q0.1,-4.1 2.7,-7.25l0.75,-0.6l4.25,-2.6l2.45,-0.35q1.7,-0.25 2.55,0.7q0.4,0.3 0.4,1.05l0,0.55l-0.4,0.45l0.4,-0.15l-0.2,0.95l-0.55,2.6l-2.2,1.85l-4.75,0l0.75,-4l0,-0.05l0.2,-0.35l-0.15,0.05l-0.2,0.1l-0.25,0.2l-0.7,0.4q-0.9,0.5 -1.1,1.3q-0.3,1.1 0,2.35l0.75,1.05q5,2.05 9.7,-2q2.95,-2.55 3.45,-6.35l1.1,0.2q2.2,0.7 4.1,0.85l-1.2,0.95q-2.25,2.1 -3.35,4.15l4.5,-1.9q4.3,-1.7 7.4,-4.35q-3.45,1.45 -6.9,2.6l-0.15,-0.45q3.6,-2.6 7,-5.55l0.2,-0.15l-0.25,0.1q-4.45,2 -9.25,2.2m-33.1,82l1.25,3.7l-3.05,-2.35l0,2.55l4.35,5.25l2.65,4.55l5.55,3.15l1,1.4l-3.95,0.55l0,4.25l0,0.1l1.45,0l1.15,0l0.1,0.1l1.05,0.8l1.35,0.9l6.25,4.4l0,8.25l-5.15,-1.95l-3.6,-1.35l2.65,-1.85l-12.35,-2.6l0.7,1.05l-1.8,-0.2l-0.7,1.05l0.9,0.55l-1.2,0.15l1,0.5l-1.75,0.45l-0.1,0.1l-0.4,0.6l-0.1,0l0,-0.15l0.1,-0.55l-0.05,-0.05l-0.05,0.3l-0.1,0.25l-0.4,1.1l-0.45,1.25q-0.9,1.95 -1.85,3.15l-1.3,1.1l-0.7,0.35l-1,0.1q-1,-0.3 -1.7,-0.8l-0.5,-0.4q-1.05,-0.95 -1.5,-2.5q0.1,1.15 0.35,1.75l0.4,0.8l0,0.05l0.2,0.4l-0.05,0.05l-6.85,0.6l-1.05,-0.1l-1,-0.3l-1.6,-0.75q-4,-1.7 -7.1,-4.8l-0.4,-0.35l-0.15,0.05l-0.15,-0.35q0.35,-4.2 0.3,-8.5l-0.05,-1.05q-0.75,0 -1.15,-2.25q-0.45,-2.3 -0.15,-4l0.1,-0.7l-0.15,0.2l0.15,-0.3l-0.5,0.8l-0.05,0.05l0,0.05l-0.05,0.15l-1.2,2.05l0,-0.1l-1.8,0.95l-3.1,1.5q-2.1,0.3 -3.5,-1.3l-1.55,-1.4l-0.35,-0.65q0.35,-2.25 1.3,-4.45l0.8,-1.55l0.15,-0.25l-6.3,-2.25l0.15,-0.3l6.4,-0.05l9.65,-7.55l-9.05,4.4l4.85,-8.75l-8.45,7.25l3,-8.45l-4.9,4.05l0.25,-1.65l0.05,-0.1l0.5,-3.25l0.45,-2.4l0.15,-1.35l0.1,-2.2q-1.35,2.7 -3.05,4.95l-0.65,0.8l-0.2,-0.05l-0.5,-0.15l-0.6,-0.15l-0.1,0.15q0,0.85 -0.15,1.65l-0.5,1.3l-1.2,0.1l0,-0.3l0,-2.05l-0.05,2.05l-0.45,0.3l-2.85,0.25q1.45,-1.4 2.3,-3.05l0.35,-0.8l-0.8,0.6l-0.75,0.45l-0.1,-0.2q1.1,-1.15 1.85,-2.65l0.6,-1.45q1,-2.75 0.95,-5.75l-1.6,3.5l-0.55,0.9l-0.15,-1.65q-0.2,-4.4 -1.2,-8.5l-0.2,4.5l-0.4,-1.2l-0.3,-0.7q-1,-2.5 -2.6,-4.65l1.15,0.05l1.8,3.2l0.25,-3.1l0.1,0l0.1,0.1l0.55,0.45q1.35,1.25 2,2.8l0.55,1.25l0.2,0.6l0.05,0.25l0.4,-0.35q0.45,-2.6 -0.1,-5.05l-2.35,-3.3l4.5,2.75l3.35,3.25l0.7,1.85l0.65,0.35l0.45,1.5l0.15,1.45q0,0.35 0.5,0.3l1.6,0.1l0.6,0.15q0.75,0.35 1.5,1.25l1.15,1.75l0.3,0.65l0.4,0.95l0.3,0.55l0.15,0.15q0.95,-0.9 1.4,-2.3l0.45,-0.95l1.3,-1.2l0.2,-0.3l5.55,3.4l1.3,2.2l5.15,1.3l2.85,4.5l3.3,1.85l6.85,-0.75l7.15,-0.8m33.45,42.05l0,-3.6l4.05,4.2l-0.25,4.25l-3.8,-4.85m-27.3,37.85l-9.95,10.65l4.5,-8.6l-1.1,-0.9l-5.6,-8.65l-4.25,8.2l-3.85,2.95l-9.6,9.2l5.85,-14.8l-1.2,-0.95l2.05,-9.1l-5.65,6.1l-2.65,-2.25l-6.2,0l4,-2.9l-10.75,0l10.4,-8.5l-0.1,1.5l10.5,-3.45l3.45,7.1l1.75,-0.55l-1.75,7.85l10.8,-10.5l9.35,17.6m-81.7,-22.45l2.9,-4.75l0.95,5.45l-3.05,2.95l-0.8,-3.65m-6.4,-53.95l-0.45,-1.05l0.25,-0.1l4.45,1.25l-0.55,1.3l-3.7,-1.4m-8.85,-16.45l0.5,-1.25l0.3,-0.8l5.4,0.2l0.65,0.9q-1.7,0 -2.85,0.6l-1.1,0.95l-0.1,0.55l0.2,0.05l-0.75,-0.05l-0.3,-0.1q-1.25,-0.2 -1.95,-1.05m-64.45,-33.2l5.95,-6.4l17.7,-7.7l-11.7,0l11.7,-6.55l15.1,0l0,0.15q-3.9,0.1 -7.5,1.25l1.9,0.15q3.45,0.45 6.6,2.15q1.65,0.95 2.8,2.45l0,1.1l-0.45,0.25q-1.3,0.8 -2.8,0.4q-2.05,-0.55 -3.3,-2.1l0.15,-0.4l0.95,-0.55l1.25,0.55l0.4,0.95l0.15,-1.1l-1.6,-1.65l-1.7,0.1q-0.85,0.2 -1.35,1.05q-0.4,0.7 -0.25,1.6l0.9,1.45l5.8,1.35q2.85,0.55 5.55,1.65q3.3,1.2 5.75,3.7l-0.3,-0.95l-0.55,-0.95q-0.85,-0.95 -2.05,-1.5l-3.65,-1.75l0.05,-0.15l3.25,0.8l-0.25,-1.1q-0.4,-1.1 -1.1,-1.95l-2.7,-2.6l0.2,-0.4l0.85,0.5q3,1.65 5.7,3.95q3.2,2.85 5.6,6.4q2.6,3.8 3.55,8.2l-1,-1.3l0.95,5l-6.35,-9.45l-5.4,-4.35l-24.6,0l-24.2,7.75m67.9,2.8l0,-0.5l-2.05,-7.05l0,-11.3l2.95,7.3l6.45,19.8l-1.55,0.85l-1.55,1q-0.85,0.55 -1.15,1.35l-1.7,4.7l-4.85,-7.15l0.65,-3.75l1.3,-0.35l0.95,1.15q1.4,1.6 1.6,3.8l-1.6,0l0.15,-1.85l-0.3,0.25l0.15,1.6l1.45,1.6l1.25,0l0.9,-0.95l0.6,-1.05q0.7,-2.1 -0.1,-4.2q-1.1,-3.1 -3.55,-5.25m10.8,14.8q2.25,-1.85 4.5,-2.7l-1.3,-4.55l2.5,4.2q6.05,-1.25 10.95,1.1l0.45,0.75l-2.45,1.15l-0.75,0.55l-0.5,0.5l-0.95,0.4l0.2,-2q-1.65,-0.05 -2.7,3.2l-0.1,-2.9l-1.45,2.05l-1.6,3.4l-0.7,1.8l-0.5,-1.85l-0.6,1.9q-0.7,2.55 -0.35,5.1l0,1.05l0,0.15l-0.15,0.5l-1.25,4.15l-0.45,-1.05q-0.55,1.4 -0.45,2.5l-0.15,-0.4l-0.45,-0.75l-0.45,-0.45l-0.05,0.1l-0.15,0.45l-0.45,-1.5l0.05,-1.65l0.2,-1.05l-0.6,0.75q-1.1,1.7 -0.7,4.65l-0.7,-0.55l-0.6,-1.1q-0.15,-0.5 -0.3,-0.3q-0.15,0.4 -0.3,-0.15l-0.3,-0.95l-0.05,0.05l-0.15,0.75l-0.4,-0.85l-0.15,-0.55q-0.35,-1 -0.35,-2.1l-0.55,1.2l-1.1,-1.6l-0.3,0.1l-0.25,-0.85q-0.3,-0.9 -0.5,-0.45l0,0.1l-0.4,-0.5l-0.1,0.1l-1,-1.55q0.95,-0.8 2.1,-1.35l0.15,-0.05l0,-2q2.05,-4.2 4.65,-6.05l1,-0.9m48.7,14l0.4,-1.05q4.5,2.95 8.5,-0.65l2.05,-2.25l2.85,0l-9.25,9.45l-4.55,-5.5m2.05,-5.3l2.65,-6.85l0,-1.6l0.55,-0.2l1.15,-0.5l0.5,-0.65l1.25,-0.7l0.75,2.75l3.5,-4.75l0.15,-0.7q2.85,1.95 7.15,0.8l1.15,-0.35l-4.3,7.75l0,-6.2l-4.8,8.7q-0.6,-1.55 -2.85,-2.8l-0.95,0q-1.2,0.4 -1.95,1.3l-0.2,0.7l-0.05,1.5l0.4,-1.4l0.05,-0.1l0.7,-0.15q1.25,-0.25 2,0.55q0.7,2.85 -2,4.7l-2.35,0q-1.5,-0.65 -2.5,-1.8m2.65,-11.9l0,-1.55l1.95,-2.25l0.65,2.15l-0.25,0.15l-2.35,1.5m9.05,-5.3l1.55,-4.95l2.9,4.55l4.3,-10.05l0.25,-0.5l0.65,-4.4l0.65,0.3l0.6,1q3.15,8.9 -4.8,15q-3.5,1.3 -6.1,-0.95m10.15,-19.25l0.6,-4.15l0.1,-0.3l-1.15,-4.8l0.5,0l0.9,-2.45l3.35,4.7l1,2.7l3.75,-7.8q2.25,2.05 5.45,2.35l-0.7,0.65q-3.95,3.75 -2.4,8.7l-0.45,0.7l-0.85,5.95l-2.35,2.2l-2,3.7q0.75,-4.5 -1.25,-8.3q-1.65,-3.1 -4.5,-3.85m31.25,-30.55l7.3,-7.9l-2,7.05l-2.9,3.4l-0.1,-0.1l-0.75,-1.2l-0.9,-0.75l-0.65,-0.5m-4.05,19.8l-10.45,9.25l-3.65,4.6l2.35,-9l-2.95,4q0.4,-2.65 2.1,-4.4q1.05,-1.25 2.8,-1.3l0.35,-0.4l2.45,-0.55q3.6,-0.9 7,-2.2m-95.1,51.65l0.35,-1.25l0.5,-1.1l0.9,-1.7l0.9,-1.4l0.3,-0.5l2.35,-2.75l0.25,-0.2l0.95,-0.95l0.6,-0.55l0.1,0l0.1,-0.15l0.15,-0.1l1.15,-0.3q2,-0.25 3.05,1.25l-0.3,1.7l-0.85,0.25l-0.55,0.35l-0.4,0.25l-0.8,0.65l0,0.1l-3.25,2.55l-2.1,3.25l-2.3,6.2q-0.9,-0.55 -1.2,-1.75l-0.15,-1.4l0.15,-1.8l0.1,-0.5l0,-0.15m-4.15,9.9l-1.55,-2.6l0.6,2.25l-2.7,-3.3l1.6,1.25l0.15,-0.6q0.15,-0.4 0.4,0l0.95,1.1l-0.15,-0.55l0.65,0.45l0.15,-0.05l0.25,1.45l-0.5,-0.85l0.15,1.45m2.6,-4.7l0.1,0.15q0.2,1.1 0.8,2.1l0.65,0.5l0.1,-0.85l0,-0.7l0,-0.25l0.25,0.15l0.5,1.15l0.75,0.5l0.25,-0.6l0.7,-1.4l0.4,-0.45l-0.05,5.5l-0.3,-2.35l-0.1,-0.6l-0.4,0.9l-0.15,0.75l0.05,0.65l-1.2,-2.05l0,2.2l-1.25,-1.2l-0.75,-1.25l-0.05,0.5l0.15,0.6l0.05,0.35l-0.2,0.1l-0.9,-1.65l0.1,-0.05q0.35,-0.15 0.25,-0.9l0.1,-1.5l0.15,-0.3m37.4,25.9l0.5,1.05l-0.2,1.6l-2,0.4q-1.25,-0.7 -1.65,-1.9l0.4,3.35l0.5,0.9l0.6,0.35q4.25,0.15 4.35,-4.2l-0.35,-0.9q1.85,0.15 3.8,-1.35l0.75,-0.45l0.35,-0.95q0.35,-2.35 -1.1,-3.95q2.1,0.2 3.8,-1.1q0.5,-1.75 0.4,-3.65l-0.4,-0.55l0,-0.75q-1.85,-1.7 -4.15,-2q2.4,0.85 2.3,3.65l0.05,0.55q-2,3.05 -5.65,3.1l0.9,0.55l1.25,2.75l0.05,0.5q-0.3,1 -1.1,1.65l-0.2,0.2q-1.35,0.95 -3.05,1.05l-0.2,0l0.05,0.1m29.7,-54.9l-0.1,0l0,0.2l0.1,-0.2m-0.6,56.25l-0.15,-0.15l-1.2,-0.2l1.2,0.25l0.15,0.1l1.25,0.75l0.45,0.55l0.1,0.25l0.2,0.3l0,0.2q-0.3,0.8 -1.25,1.2l-2.4,0.45l0.9,0.35l0.35,0.7l0.65,0.85l0.25,0.6l-0.65,0.75l-4.25,0.15q-0.6,-0.15 -0.15,0.6l0.1,0.35l0.05,0.55q-1.8,1.35 -4.55,1.3l-0.15,0l-1.45,-0.55l-1.5,0.35l2.95,0.2l0.15,0.05l4,0.1l0.4,0l0.9,-0.9l0,-1.45l1.65,0.15l2.3,0.2l1.1,-0.95l0,-2l-0.25,-0.6l-0.3,-0.25l-0.55,-0.4l1.5,0q0.95,0.1 1.65,-0.35l0.3,-0.6l0.1,-0.5l-0.05,-0.7l-2.35,-1.15l-1.45,-0.55m0.3,-6.7l-3.25,-2.85l-3.95,0l-9.4,-5.9q0.95,6.8 7.15,10q5.75,3 12.05,2.95q-1.7,-0.75 -3.8,-2.75q-1.15,-1 -2.6,-1.45l3.8,0m7.4,11.55l-0.3,0.15l-0.1,-0.2l-0.35,-0.4l-0.35,-0.25l-0.3,-0.3l-0.25,-0.2l-0.05,0l0.1,0.15l0.3,0.45l0.15,0.25l0.4,0.65l0,0.05l0.45,0.9l0.35,1.2l0.05,1l-0.05,0.1l-0.1,0.35l-0.35,0.5q-0.5,0.3 -1,0.45l-0.35,0.1l-1.75,-0.25l0.95,0.5l0.5,0.15l0.1,0l0.2,0.05l1.4,-0.3l0.55,-0.35l0.05,0.1l-2.7,1.8l-1.65,0.15l-0.3,0l0.15,0.05l0.2,0.15l0.1,0.25l0.05,0.15l-0.7,0.55l-6.95,0l3.7,1.6l0.15,1.45l-1.3,0.9l-2,0l-3.85,-1.05l0.75,1.65q-0.25,0.3 -0.9,0.3l-0.9,0.05l-0.95,0l-5.15,-2l-1.95,-0.75l1.85,0.9l0.5,0.75q3.75,3 7.85,1.55l0.2,-0.3l-0.2,-0.7q3.5,1.85 7.05,0.35q1,-0.35 1.5,-1.25l0,-0.9l-0.7,-1.1l0.05,-0.3q4.4,0.2 6.65,-2.95q1.5,-2.2 0.6,-4.8l-1.4,-1.35m-40.15,-5.05l-0.2,-1.55l0,0.15l0.2,1.4"/>
   <path id="svg_4" fill-rule="evenodd" fill="#694edc" d="m113.75,-209.05l1.15,1.35l-2,1.2q-22.75,8.8 -45.8,8.05q-5.55,2.15 -9.55,6.45l-0.3,-0.3q1.55,-1.55 2.35,-3.25q-7.15,3.9 -15.65,6.2l-0.8,0.8q-1,0.85 -2.1,1.35q2.85,-5.7 7.65,-10q-1.3,0.75 -3.65,1.75q-9.9,4 -17.95,10.95l-0.05,-0.1q-0.1,-2.5 1.1,-4.6l0.35,-0.65l0.05,-0.25l3.65,-4.6l10.45,-9.25l1.6,-1.4l3.05,-2l12.3,-7.05l-4.15,4.2l26.6,-2.75l-17.35,6.9l25.65,-5.65l15.55,-5.3l9.65,0.15q-2.65,2.65 -6.45,3.45q-5.75,1.2 -9.4,4.4l0.9,0.7l13.15,-0.75m-151.55,120.15l0,-2.35q5.85,0 10,-3.5q2.1,-1.8 3.2,-4l0.3,0.2l0.3,1.5l0.1,1.25l0.45,1.7l0.35,0.65l0.25,0.45l0.3,0.65l0.3,0.75l0.7,1l-3.7,2.4q-1.25,0.8 -2.65,1.25l-1.7,0.55l-0.85,0.25l-1.55,0.45l-0.7,0.15l-0.4,0.15l-0.3,-0.75l-1.6,-3.75l-0.45,0.35l-2.35,2.05l0,-1.4m9.45,-44l-0.6,-5.5l1.15,-0.75l-0.25,2.35l0.55,-0.35l1.25,-1.05l0.55,-0.25l0,1.45l0,0.2q-0.05,0.75 0.25,0.15l-0.25,1.65l4.9,-4.05l-3,8.45l8.45,-7.25l-4.85,8.75l9.05,-4.4l-9.65,7.55l-6.4,0.05l2.05,-1.9l-1,-3.65l-2.2,-1.4l0,-0.05m-0.95,21.75l0,-7.9l0,-2.55l4.5,0.2l0.6,2.75l0.3,2.45q0.05,1.9 1.9,2.65q2.4,1.05 5.05,1.8l0.6,0.3l-2.05,3.45l0.3,2.1l0.05,0q1.35,0.05 2.35,1.55q0.95,1.55 0.95,3.7l-9.3,-3.15l-3.3,-4.1l-1.95,-3.25"/>
   <path id="svg_5" fill-rule="evenodd" fill="#7aa0f8" d="m117.2,-224.2l22.85,7.1l-7.6,0l13.65,17.8l5.1,14.4l-9.3,-13.5l-14.75,-8.75l-10.9,-3.45l6,5.85l-6.55,-3.8l0.55,-0.65l-1.55,0.1l-2.25,-1.25l1.3,1.3l-13.15,0.75l-0.9,-0.7q3.65,-3.2 9.4,-4.4q3.8,-0.8 6.45,-3.45l-9.65,-0.15l5.8,-1.95l5.5,-5.25m-2.3,16.5q4.75,5.55 7.7,12.25q0.85,5.25 0,10q-2.55,-11.5 -8,-17.1l2.9,17.25l-7.85,-16.7q3.55,10.9 3.7,21.85q-3.65,-10.95 -9.3,-17.15l-11.25,7.65l-15.75,4.2l-13.25,0l-9.8,13.45l3.1,-14l-11.15,22.4l0,-10.75l-3.25,4.75l-5.65,10.15l0,-15.8l-2.55,5.7l-4,3.85l-1.65,-9.1l-9.2,13.55l-9,7.25l-1.2,-2.9l-1.35,4l-6,6.85l2.4,5.7l6.15,2.7l1.6,1.55l-6.85,0.75l-3.3,-1.85l-2.85,-4.5l-5.15,-1.3l-1.3,-2.2l-5.55,-3.4l-0.2,0.3l-1.3,1.2l-0.45,0.95q-0.45,1.4 -1.4,2.3l-0.15,-0.15l-0.3,-0.55l-0.4,-0.95l-0.3,-0.65l-1.15,-1.75q-0.75,-0.9 -1.5,-1.25l-0.6,-0.15l-1.6,-0.1q-0.5,0.05 -0.5,-0.3l-0.15,-1.45l-0.45,-1.5l8.05,4.25l0,0.1l0.35,0l6.35,-3.15l4.55,5.5l9.25,-9.45l-2.85,0l-2.05,2.25q-4,3.6 -8.5,0.65l1.65,-4.25q1,1.15 2.5,1.8l2.35,0q2.7,-1.85 2,-4.7q-0.75,-0.8 -2,-0.55l-0.7,0.15l-0.05,0.1l-0.35,-0.1l0.2,-0.7q0.75,-0.9 1.95,-1.3l0.95,0q2.25,1.25 2.85,2.8l4.8,-8.7l0,6.2l4.3,-7.75l-1.15,0.35q-4.3,1.15 -7.15,-0.8l1.2,-4q2.6,2.25 6.1,0.95q7.95,-6.1 4.8,-15l-0.6,-1l-0.65,-0.3l0.5,-3.9q2.85,0.75 4.5,3.85q2,3.8 1.25,8.3l2,-3.7l2.35,-2.2l0.85,-5.95l0.45,-0.7q-1.55,-4.95 2.4,-8.7l0.7,-0.65q-3.2,-0.3 -5.45,-2.35q3.2,-4.3 7.5,-7.6l2.15,-1.8q-2.6,3.15 -2.7,7.25l0.05,0.55q1,4.25 15.8,-0.45l-3.05,2l-1.6,1.4q-3.4,1.3 -7,2.2l-2.45,0.55l-0.35,0.4q-1.75,0.05 -2.8,1.3q-1.7,1.75 -2.1,4.4l2.95,-4l-2.35,9l-0.05,0.25l-0.35,0.65q-1.2,2.1 -1.1,4.6l0,0.15l0.05,-0.05q8.05,-6.95 17.95,-10.95q2.35,-1 3.65,-1.75q-4.8,4.3 -7.65,10q1.1,-0.5 2.1,-1.35l0.8,-0.8q8.5,-2.3 15.65,-6.2q-0.8,1.7 -2.35,3.25q-0.3,0.25 -0.15,0.75l0.45,-0.45q4,-4.3 9.55,-6.45q23.05,0.75 45.8,-8.05l2,-1.2m-83.75,89.05l1.3,1.95l-0.15,4.75l-1.35,-0.9l0,-0.25l-0.85,-0.55l-0.2,0l-0.1,-0.1l-1.15,0l-1.45,-0.1l0,-4.25l3.95,-0.55m16.1,22.7l-1.8,-5.05l7.4,8.2l0,-2.05l3.8,4.85l-0.1,1.5l-1,0.7l-1.2,0.85l-0.55,0l-2.7,-0.45l-0.3,-0.1l-0.2,-0.4l-0.55,-0.8l-0.55,-0.85l-2.25,-6.4m-28.25,40.1l-5.1,-4.15l-4.75,3.7l4.25,-8.2l5.6,8.65m-18.65,-4.05l-3.6,-3l5.65,-6.1l-2.05,9.1m-52.65,-18.85l0.05,0.1l5.45,-9.25l-0.8,5.2l-1.15,7.55l-2.8,2.25l-3.55,-1.85l-0.25,-1.05l3.05,-2.95m14.5,-12.5l0,-3.3l4.3,-5.5l2.3,3.7l1.9,-4.75l0,-4.35l1.2,-1.55l2.25,3.25l0.45,0.85q0.6,1.65 0.9,3.45l0.05,0.35l-0.15,0.35q-1.1,2.2 -3.2,4q-4.15,3.5 -10,3.5m-24.95,-43.3l-5.95,-7.4l-0.95,0l-10.35,-6.15l8.7,1.65l-0.5,-2.4l0.4,-1q0.7,0.85 1.95,1.05l0.3,0.1l0.75,0.05l-0.2,-0.05l0.1,-0.55l1.1,-0.95q1.15,-0.6 2.85,-0.6l-0.65,-0.9l-5.4,-0.2l-0.3,0.8l-3.8,-1.6l-10.55,-9.05l5.45,0l7.1,6.7l-2,-6.7l-9.5,-9.15l-10.7,3.65l3.8,-4.2l-3.45,0l1.95,-2.35l-8.15,2l-10,0l11.65,-5.85l-2.75,-2.5l-5.45,0l-12.55,8.55l-14.2,7.1l10.55,-10.4l-2.9,0l1.8,-5.25l-20.75,18.4l-13.65,4.9l12.4,-7.65l5.95,-13.5l4.8,-5.05l24.2,-7.75l24.6,0l5.4,4.35l6.35,9.45l-0.95,-5l1,1.3q-0.95,-4.4 -3.55,-8.2q-2.4,-3.55 -5.6,-6.4q-2.7,-2.3 -5.7,-3.95l-0.85,-0.5l-3.4,-1.8l3.2,2.2l2.7,2.6q0.7,0.85 1.1,1.95l0.25,1.1l-3.25,-0.8l-0.5,-0.1l0.45,0.25l3.65,1.75q1.2,0.55 2.05,1.5l0.55,0.95l0.3,0.95q-2.45,-2.5 -5.75,-3.7q-2.7,-1.1 -5.55,-1.65l-5.8,-1.35l-0.9,-1.45q-0.15,-0.9 0.25,-1.6q0.5,-0.85 1.35,-1.05l1.7,-0.1l1.6,1.65l-0.15,1.1l-0.4,-0.95l-1.25,-0.55l-0.95,0.55l-0.15,0.4q1.25,1.55 3.3,2.1q1.5,0.4 2.8,-0.4l0.45,-0.25l0,-1.1q-1.15,-1.5 -2.8,-2.45q-3.15,-1.7 -6.6,-2.15l-1.9,-0.15q3.6,-1.15 7.5,-1.25l0.35,0l14.2,4.6q3.95,4.5 7.85,10.35q3.9,5.8 6.75,13.55l0,-5.2q2.45,2.15 3.55,5.25q0.8,2.1 0.1,4.2l-0.6,1.05l-0.9,0.95l-1.25,0l-1.45,-1.6l1.6,0q-0.2,-2.2 -1.6,-3.8l-0.95,-1.15l-1.3,0.35l-0.65,3.75l4.85,7.15l1.7,-4.7q0.3,-0.8 1.15,-1.35l1.55,-1l1.55,-0.85l1.2,3.3l2.25,3.25l-1,0.9q-2.6,1.85 -4.65,6.05l0,2l-0.15,0.05q-1.15,0.55 -2.1,1.35l1,1.55l0.3,0.65l-0.15,-0.7l-0.05,-0.05l0.4,0.5l0,-0.1q0.2,-0.45 0.5,0.45l0.25,0.85l0.4,1.4l-0.1,-1.5l1.1,1.6l0.55,-1.2q0,1.1 0.35,2.1l0.15,0.55l0.4,0.85l0.15,-0.75l0.05,-0.05l0.3,0.95q0.15,0.55 0.3,0.15q0.15,-0.2 0.3,0.3l0.6,1.1l0.7,0.55q-0.4,-2.95 0.7,-4.65l0.6,-0.75l-0.2,1.05l-0.05,1.65l0.45,1.5l0.15,-0.45l0.05,-0.1l0.45,0.45l0.45,0.75l0.15,0.4q-0.1,-1.1 0.45,-2.5l0.45,1.05l1.25,-4.15l0.1,0l-0.15,1.8l0.15,1.4q0.3,1.2 1.2,1.75l2.3,-6.2l2.1,-3.25l3.25,-2.55l0,-0.1l0.8,-0.65l0.4,-0.25l0.55,-0.35l0.85,-0.25l0.3,-1.7q-1.05,-1.5 -3.05,-1.25l-1.15,0.3l-0.15,0.1l-0.1,0.15l-0.1,0l-0.6,0.55l-0.95,0.95l-0.25,0.2l-2.35,2.75l-0.3,0.5l-0.9,1.4l-0.9,1.7l-0.5,1.1l-0.35,1.25l-0.05,0l0.1,-1.3l-0.1,0.25q-0.35,-2.55 0.35,-5.1l0.6,-1.9l0.5,1.85l0.7,-1.8l1.6,-3.4l1.45,-2.05l0.1,2.9q1.05,-3.25 2.7,-3.2l-0.2,2l0.95,-0.4l0.5,-0.5l0.75,-0.55l2.45,-1.15l0.25,-0.35l5.15,2.9l2.25,3.25l2.35,3.3q0.55,2.45 0.1,5.05l-0.45,0.1l-0.2,-0.6l-0.55,-1.25q-0.65,-1.55 -2,-2.8l-0.55,-0.45l-0.1,-0.1l-0.1,0l-0.25,3.1l-1.8,-3.2l-1.15,-0.05q1.6,2.15 2.6,4.65l0.3,0.7l0.4,1.2l0.2,-4.5q1,4.1 1.2,8.5l0.15,1.65l0.55,-0.9l1.6,-3.5q0.05,3 -0.95,5.75l-0.6,1.45q-0.75,1.5 -1.85,2.65l-0.75,0.7l0.85,-0.5l0.75,-0.45l0.8,-0.6l-0.35,0.8q-0.85,1.65 -2.3,3.05l2.85,-0.25l0.45,-0.3l0.05,0l0,0.3l1.2,-0.1l0.5,-1.3q0.15,-0.8 0.15,-1.65l0.1,-0.15l0.6,0.15l0.5,0.15l0.2,0.05l0.65,-0.8q1.7,-2.25 3.05,-4.95l-0.1,2.2l-0.15,1.35l-0.45,2.4l-0.5,3.25l-0.3,-0.05l0,-0.2l0,-1.45l-0.55,0.25l-1.25,1.05l-0.55,0.35l0.25,-2.35l-1.15,0.75l0.6,5.5l-0.75,-0.5l-1.5,5.75l-1.1,-5.5l-3.85,4.55l-0.05,0.05l-0.9,1.1l0.6,-2.25l1.15,-4.3l-3.25,3l-0.05,-0.95l0,-2.15l-1.05,-1l-5.35,-1.15l-0.75,-0.55l0.6,-0.2q2.9,-0.95 4.85,-3.25l0.15,-0.15l0.95,-1.4q1.3,-2.3 1,-5q-0.4,-3.6 -2.05,-6.65l-0.3,-0.4l-0.1,-0.1q-0.85,-0.85 -2.05,-1.35l-0.45,0.05l-2,1.25l-0.05,0l-2.05,4.1l-0.05,0.05l-0.6,2.15l-0.35,1.35l-0.4,-0.1l0.2,-1.1l-0.2,0.65l-0.1,0.8l-0.2,1.3l0.1,-0.65l0.4,0.05l-0.15,0.85l-0.05,0.3l-0.2,1l0,0.1l-0.25,2.05l0,3.35l-0.05,0.15l-0.15,0l-1.2,-0.7l-0.05,-0.65l0,-0.1l0.05,-0.65l-0.2,0.15q-0.25,0.15 -0.45,0l-0.05,-0.05l-0.3,-1.35l0,-0.15l-0.1,0.05l0,0.15l-0.4,0.7q-0.2,0.15 -0.4,0l-0.15,-0.6l-0.05,0.5l-0.3,-0.35l-0.1,-0.15l-0.15,-0.15l-0.05,-0.1l-0.75,-0.5l-0.05,-0.1l-0.55,-0.45l0.05,0.3l-0.15,-0.15l-0.15,-0.25l-0.05,0l-0.45,-0.55l0,0.25l0.1,0.4l-0.05,0l-0.3,-0.5l-0.2,-0.4l-0.1,-0.25l-0.25,-0.6l-0.05,0.1l-0.1,0.1l-0.05,0.15l0,0.2l-0.05,0.4l-0.45,-0.1l-0.25,-1.45l-0.1,-0.8l-0.05,0.85l-0.65,-0.45l0.15,0.55l-0.95,-1.1q-0.25,-0.4 -0.4,0l-0.15,0.6l-1.6,-1.25l2.7,3.3l-0.6,-2.25l1.55,2.6l0.25,0.4l0,0.05l0,0.15l0.1,0.55l0.3,0.6l0.15,0.5l0.1,0.25l0.25,0.6l0.1,0.7l-0.25,0.55l-0.45,0.85l-0.3,-1.1l-0.5,-0.55l-0.05,0.1l-0.1,0l0.1,-0.05l0,-0.05l-0.1,-0.05l-1.85,-2.65l-0.4,-0.4l-0.35,-0.45l-0.2,-0.2l-0.15,-0.15l-0.1,-0.2l-0.05,0.05l-0.25,-0.25l0,0.15l-0.05,0l-0.05,-0.1l-0.3,-0.35q-2.15,-2.35 -4.3,-2.45l-0.15,0.9l-0.1,0.3l-0.15,0.6l0.15,2.4l0,0.1l0.15,0.4l0,0.15l0.75,2.05l0.3,0.6l0.2,0.35l0.9,1.05l1.6,1.05q1.8,0.85 3.45,1q1.2,-0.9 1.4,-1.5l0.05,0.05l-1.8,3.1l-4.45,-1.25m59,-30.65l0,-3.45l2.35,-1.5l0.25,-0.15l0.85,3.05l-1.25,0.7l-0.5,0.65l-1.15,0.5l-0.55,0.2m42.9,-52.7l5,-3l2.55,-2.85l0.65,0.5l0.9,0.75l0.75,1.2l0.1,0.1l-4.55,5.25l0,-0.55q0,-0.75 -0.4,-1.05q-0.85,-0.95 -2.55,-0.7l-2.45,0.35m5.4,2.25l0.05,-0.05l0.05,0l4.65,-1.85l3.2,-1.35q4.8,-0.2 9.25,-2.2l0.05,0.05q-3.4,2.95 -7,5.55l-1.2,0.85l1.35,-0.4q3.45,-1.15 6.9,-2.6q-3.1,2.65 -7.4,4.35l-4.5,1.9q1.1,-2.05 3.35,-4.15l1.2,-0.95q-1.9,-0.15 -4.1,-0.85l-1.1,-0.2q-0.5,3.8 -3.45,6.35q-4.7,4.05 -9.7,2l-0.75,-1.05q-0.3,-1.25 0,-2.35q0.2,-0.8 1.1,-1.3l0.7,-0.4l0.4,0.05l-0.75,4l4.75,0l2.2,-1.85l0.55,-2.6l0.2,-0.95m54.85,25.05l6.55,2.15l-0.5,14.8l6.25,7.6l-9,-6.05l-0.9,-11.05l-4.25,9.95l1.25,-12.15l-2.35,-2.8l2.95,-2.45m-45.1,22.1l9.2,-9.95l5.25,-3.65l-3.45,11.3l-11,2.3m67.8,-7.7l-4.85,-5.85l7.05,1.65l-2.2,4.2m20.7,-6.55l1.1,8.1l-13.85,-9.85l-1.4,-15.35l14.15,17.1m-196.7,35.8l0,-0.15l-0.1,0l-0.15,0.3l-0.1,1.5q0.1,0.75 -0.25,0.9l-0.15,-0.05l0.05,0.1l0.9,1.65l0.15,0.2q0.1,0.05 0.05,-0.3l-0.05,-0.35l-0.15,-0.6l0.05,-0.5l0.75,1.25l1.25,1.2l0,-2.2l1.2,2.05l-0.05,-0.65l0.15,-0.75l0.4,-0.9l0.1,0.6l0.3,2.35l0.05,-5.5l-0.4,0.45l-0.7,1.4l-0.25,0.6l-0.75,-0.5l-0.5,-1.15l-0.1,-0.4l-0.15,0.25l0,0.25l0,0.7l-0.1,0.85l-0.65,-0.5q-0.6,-1 -0.8,-2.1m4.35,5.65l0,0.1l0.05,0.1l0,0.4l0.15,0.6l-0.15,-1l-0.05,-0.2m-5.1,-3.15l-0.1,-0.2l-0.05,0l0.05,0.05l0.1,0.15m-0.2,-0.3l0.05,0.05l0,-0.05l-0.05,0m25.55,20.75l1.8,-1.65l0.15,0.05l6.3,2.25l-0.15,0.25l-0.8,1.55q-0.95,2.2 -1.3,4.45l0.35,0.65l1.55,1.4q1.4,1.6 3.5,1.3l3.1,-1.5l1.8,-0.95l0,0.1l1.2,-2.05l0.05,-0.15l0,-0.05l0.05,-0.05l0.5,-0.8l-0.15,0.3l0.15,-0.2l-0.1,0.7q-0.3,1.7 0.15,4q0.4,2.25 1.15,2.25l0.05,1.05q0.05,4.3 -0.3,8.5l-0.05,0.45l0.2,-0.1l0.15,-0.05l0.4,0.35q3.1,3.1 7.1,4.8l1.6,0.75l1,0.3l1.05,0.1l6.85,-0.6l0.05,-0.05l-0.2,-0.4l0,-0.05l-0.4,-0.8q-0.25,-0.6 -0.35,-1.75q0.45,1.55 1.5,2.5l0.5,0.4q0.7,0.5 1.7,0.8l1,-0.1l0.7,-0.35l1.3,-1.1q0.95,-1.2 1.85,-3.15l0.45,-1.25l0.4,-1.1l0.1,0.05l0,0.15l0.05,0.5l1.5,0.15l-1.45,-0.65l0.4,-0.6l0.1,-0.1l1.75,-0.45l-1,-0.5l1.2,-0.15l-0.9,-0.55l0.7,-1.05l1.8,0.2l-0.7,-1.05l12.35,2.6l-2.65,1.85l-1.55,3.5l-2.45,-0.05q-5.1,0.45 -9.1,-2.35l-0.2,0.85l-0.3,0.95l-1,2.1l-0.75,1.15l-0.8,0.95l-0.2,0.15l-0.65,0.4l-0.15,0.05l-1.15,0.05l-2.2,2.6l-11.5,1.2l-8.6,-4.35l-3.95,-5.25q0,-2.15 -0.95,-3.7q-1,-1.5 -2.35,-1.55l-0.05,0l-0.3,-2.1l2.05,-3.45l-0.6,-0.3q-2.65,-0.75 -5.05,-1.8q-1.85,-0.75 -1.9,-2.65l-0.3,-2.45l-0.6,-2.75l-4.5,-0.2l0,-2.4m-5.1,-16.5l0.05,-0.15l0.1,-0.2l0,-0.5l-0.15,0.85m17.95,19.2q1.7,-0.1 3.05,-1.05l0.2,-0.2q0.8,-0.65 1.1,-1.65l-0.05,-0.5l-1.25,-2.75l-0.9,-0.55q3.65,-0.05 5.65,-3.1l-0.05,-0.55q0.1,-2.8 -2.3,-3.65q2.3,0.3 4.15,2l0,0.75l0.4,0.55q0.1,1.9 -0.4,3.65q-1.7,1.3 -3.8,1.1q1.45,1.6 1.1,3.95l-0.35,0.95l-0.75,0.45q-1.95,1.5 -3.8,1.35l0.35,0.9q-0.1,4.35 -4.35,4.2l-0.6,-0.35l-0.5,-0.9l-0.4,-3.35q0.4,1.2 1.65,1.9l2,-0.4l0.2,-1.6l-0.5,-1.05l0.15,-0.1m30.4,2l2.35,1.15l0.05,0.7l-0.1,0.5l-0.3,0.6q-0.7,0.45 -1.65,0.35l-1.5,0l0.55,0.4l0.3,0.25l0.25,0.6l0,2l-1.1,0.95l-2.3,-0.2l-1.65,-0.15l0,1.45l-0.9,0.9l-0.4,0l-4,-0.1l0,-0.05q2.75,0.05 4.55,-1.3l-0.05,-0.55l-0.1,-0.35q-0.45,-0.75 0.15,-0.6l4.25,-0.15l0.65,-0.75l-0.25,-0.6l-0.65,-0.85l-0.35,-0.7l-0.9,-0.35l2.4,-0.45q0.95,-0.4 1.25,-1.2l0,-0.2l-0.2,-0.3l-0.1,-0.25l-0.45,-0.55l0.2,-0.2m-1.15,-7.25l-3.8,0q1.45,0.45 2.6,1.45q2.1,2 3.8,2.75q-6.3,0.05 -12.05,-2.95q-6.2,-3.2 -7.15,-10l9.4,5.9l3.95,0l3.25,2.85m7.1,11.7l0.2,0.35l0.6,0.35l0.05,0.1l-0.55,-0.95l1.4,1.35q0.9,2.6 -0.6,4.8q-2.25,3.15 -6.65,2.95l-0.95,-0.1l0.9,0.4l0.7,1.1l0,0.9q-0.5,0.9 -1.5,1.25q-3.55,1.5 -7.05,-0.35l0.2,0.7l-0.2,0.3q-4.1,1.45 -7.85,-1.55l-0.5,-0.75l0.1,-0.15l5.15,2l0.95,0l0.9,-0.05q0.65,0 0.9,-0.3l-0.75,-1.65l3.85,1.05l2,0l1.3,-0.9l-0.15,-1.45l-3.7,-1.6l6.95,0l0.7,-0.55l-0.05,-0.15l-0.1,-0.25l-0.05,-0.2l1.65,-0.15l2.7,-1.8l0.05,0l0.4,-0.8l-0.35,0.45l-0.15,0.25l-0.55,0.35l-1.4,0.3l-0.2,-0.05l-0.1,0l-0.5,-0.15l-0.95,-0.5l1.75,0.25l0.35,-0.1q0.5,-0.15 1,-0.45l0.35,-0.5l0.1,-0.35l0.05,-0.1l-0.05,-1l-0.35,-1.2l-0.45,-0.9l0,-0.05l-0.4,-0.65l-0.15,-0.25l0.2,-0.1l0.35,0.25l0.35,0.4l0.1,0.2m-30.35,53l3.8,0l3.65,5.8l-9.85,11.1l0,9.85l-3.05,-10.35l6.35,-9.1l-9.65,4.85l8.75,-8.5l0,-3.65m-13.1,-1.45l6.35,0.55l-9.8,6.55l-10.05,-5.3l13.5,-1.8m34.95,10.55l0,22.2l-4.4,6.9l-4.35,-16.35l8.75,-12.75m-19.3,23.3l0,-7.65l4.35,5.8l-4.35,1.85"/>
   <path id="svg_6" fill-rule="evenodd" fill="#8e211c" d="m115.7,-208.55l-1,-0.55l1.55,-0.1l-0.55,0.65"/>
   <path id="svg_7" fill-rule="evenodd" fill="#ffff33" d="m61.75,-221.1l0.25,-0.1l-0.2,0.15l-0.05,-0.05m-24.3,6.6l0.2,-0.1l0.15,-0.05l-0.2,0.35l-0.15,-0.2m-105.95,44.1l-0.15,-1.6l0.3,-0.25l-0.15,1.85m16.05,18.1l0,0.15l-0.1,0.5l0.05,-0.5l0.05,-0.15m36,31l-0.15,0.1l-0.05,-0.1l0.2,0m29.55,-54.8l-0.1,0.2l0,-0.2l0.1,0m-0.6,56.25l-0.15,-0.1l-1.2,-0.25l1.2,0.2l0.15,0.15m-8.95,9.95l-0.15,-0.05l-2.95,-0.2l1.5,-0.35l1.45,0.55l0.15,0l0,0.05m12.55,1.7l0.05,0.2l-0.2,-0.15l-0.15,-0.05l0.3,0m-17.9,4.05l-0.1,0.15l-1.85,-0.9l1.95,0.75m-18.15,-15.9l-0.2,-1.4l0,-0.15l0.2,1.55"/>
   <path id="svg_8" fill-rule="evenodd" fill="#ffffcc" d="m-63,-134.45l-0.05,-0.15l0.3,0.05l-0.25,0.1m-34.1,-69.25l0.35,0.15l-0.35,0l0,-0.15m151.9,-11.8l0.15,0.45l-1.35,0.4l1.2,-0.85m-145.2,21.15l-0.45,-0.25l0.5,0.1l-0.05,0.15m-0.75,-5l-3.2,-2.2l3.4,1.8l-0.2,0.4m28.65,47.3l0.1,1.5l-0.4,-1.4l0.3,-0.1m5.85,7.65l0.05,-0.85l0.1,0.8l-0.15,0.05m23.25,4.5l-0.85,0.5l0.75,-0.7l0.1,0.2m-20.6,-7.2l0.1,0l0,0.15l-0.1,-0.15m1.65,0.95l0.15,-0.25l0.1,0.4l-0.25,-0.15m-1.15,3.35q0.05,0.35 -0.05,0.3l-0.15,-0.2l0.2,-0.1m-1.1,-1.55l-0.05,-0.1l0.15,0.05l-0.1,0.05m27.1,18.7l0.3,-0.25l-0.15,0.3l-0.15,-0.05m17.25,23.05l0.15,0.35l-0.2,0.1l0.05,-0.45m26.9,-0.2l0.1,0l1.45,0.65l-1.5,-0.15l-0.05,-0.5m3.55,-12.2l0.55,0.95l-0.05,-0.1l-0.6,-0.35l-0.2,-0.35l0.3,-0.15m0.2,4.75l0.15,-0.25l0.35,-0.45l-0.4,0.8l-0.05,0l-0.05,-0.1m-6.1,4.65l-0.9,-0.4l0.95,0.1l-0.05,0.3"/>
   <path id="svg_9" fill-rule="evenodd" fill="#601313" d="m27.05,-184.6l0.05,0.1l-0.05,0.05l0,-0.15m30.2,-7.7l0.3,0.3l-0.45,0.45q-0.15,-0.5 0.15,-0.75"/>
   <path id="svg_10" fill-rule="evenodd" fill="#21213f" d="m74.3,-115.5l2.7,-4.45l5.7,11.25l0.7,0.25l-0.35,-3.3l5.55,3.55l0.6,2.75l-1.75,-1.6l-1.1,-1.05l-2.7,1.8l-3.45,6.2l-0.9,-3.75l-0.9,-0.25l-2.45,-0.7q1.65,0.35 2.85,-0.55l0.05,-0.1l-0.45,-2.1l-4.1,-7.95m-2.5,24.8l0,7.4l2.2,6.5l1.5,1.85l-2.5,-2l-3.3,-0.55l-2.55,0.3l0,-0.2l-0.1,0.05l0,0.05l-0.35,0.5l-0.3,0.45l-2.25,3.75l0,3.1l3.1,4.2l-3.45,0l-7.1,-5.85l-0.15,-1.8l0.8,0.7l0.35,0.5q0.5,0.75 1.35,1.25l0.8,0.85l0.45,0.3q-0.1,-0.55 -0.05,-1.15l0.2,-2.75l0.4,-1.6l0.3,-0.85l1.6,-2.35l0.4,-0.45q0.8,-1.1 2.05,-1.65l0.45,-0.15l1.45,-0.3l0,-0.8l0,-1.25l0,-1.2l0,-1.1l0.05,-1.05l0,-1.1l0.05,-1.4l0.05,-1.2l0,-1.25l0,-0.6l0,-1.35l0,-0.3l-0.35,-0.25l-0.2,-0.1l1.75,-9l1.7,3.95l0,4.2l0,2.5l1.65,1.2m-24.95,4.45l-13.15,-5.25l-6.3,-2.5l0,-3.2l0.85,-1.9l1.55,-3.5l3.6,1.35l-1.6,4.4l13.4,6.7l1.65,3.9m-81.3,5.8l-0.05,0.05l-11.05,7.2l0.85,-4.1l11.15,-8.8l0.15,-0.05l0.3,0.75l1.05,2.3l-2.6,2.35l0.2,0.3m-17.7,21.95l0.15,1.8l-5.55,6.9l-3.2,0.55l2.15,-4.6l-0.55,-3.05l-2.65,-3.35l-0.4,-0.4l-0.3,-0.4l-0.05,-0.05l-0.05,0l-0.1,-0.1q-0.2,-0.1 0,0.25l-2.35,0.1q-1.45,0.25 -3,1.05l-1.85,2.35l0.95,-1.95l0.9,-6.8l-1.3,-7.3l1.3,-1.4l-0.45,-2.5l-0.7,-4.15l0.9,-4.15l3.2,8.6l-0.2,0.1l-0.2,0.35l0,0.2l0.2,1.4l0.15,0.55l0.2,1.25l0.3,1.2l0.25,1.35l0.2,1.05l0.2,1.05l0.2,1.05l0.2,1.2l0.25,1.2l0.15,0.85l1.4,0.05l0.4,0.05q1.2,0.35 2.2,1.3l0.45,0.4l1.85,2.05l0.45,0.8l0.6,1.45l0.75,2.7l0.1,1.1l0.4,-0.3l0.6,-1l0.95,-1.45l0.25,-0.5l0.65,-0.85m-35.75,-26.65l0.05,-2.8l4.55,-4.4l0.2,3.25l0.65,-0.35l3.2,-12l3.35,3.95l-2.4,8.5l-0.1,2.15l0.1,0.05l2.7,0.1l-2.15,1.1l-0.75,0.35l-0.2,3.9l-4.2,-5.55l-2.9,-1.3l-0.8,1.15l-1.3,1.9"/>
   <path id="svg_11" fill-rule="evenodd" fill="#ffff99" d="m80.25,-95.5l-0.05,-4.6l3.45,-6.2l2.7,-1.8l1.1,1.05l-0.05,7.7l-3.4,2.15l-3.75,1.7m-4.75,20.55l3.45,0l0,1.3l-0.9,0.45l-4.4,1.9l-1.3,0.4l-4.05,0.15l-0.15,-0.1l-0.3,-1.4l-0.15,-1.6q-0.15,-0.7 0.2,-1.15l1.4,-1.95l0.4,-0.55l3.3,0.55l2.5,2m-148.4,19.45l-0.25,-1.4l3.25,-0.55l1.85,-2.35q1.55,-0.8 3,-1.05l0.45,0.5l1.55,1.7q0.4,0.35 0.45,1.05l0.15,1.65q0.05,0.65 -0.05,1.4l-0.15,0.05q-1.8,0.9 -3.7,0.6l-1.3,-0.25l-4.4,-1.05l-0.85,-0.3m-5.8,-25.85l0.75,4.5l-3.75,-1l-3.45,-1.6l-1.45,-7.6l0.8,-1.15l2.9,1.3l4.2,5.55m34.8,-27.1l-2.5,6.15q-0.8,0.3 -3.4,3.35l-1.95,2.15l-0.15,0.05l0,-0.05l-0.05,0.15l-0.05,-0.2l0,-0.05l-0.1,-0.1l-1.3,-1.55l-0.35,-0.4l-4,-4.9l-2.25,-4.55q-1.1,-7.75 0,-14.85q1.2,-4 2.85,-7.05l-0.4,0.2l-0.15,0.2l-0.15,0.05q-1.05,0.95 -1.7,2.25l-0.2,0.35l-0.15,0.35l-0.2,0.3l-0.7,2.1l-0.15,0.45l-0.1,1.3l-0.1,0.6l-0.35,2.75l-0.1,1.3l0.05,2.95l0.05,0.6l0,0.25l0.35,2.75l0.2,2.9l0,0.25l0,2.85l0,1.7l-0.1,0.9l-0.15,1q-3,-4.8 -4.55,-10.15l-0.8,-5.2l2.65,-6.75l4.15,-6.4l0.9,-1.55l0.55,-1.3l1.8,-3.1l0.05,-0.1l0.4,-0.7l0.45,-0.85l1.65,0.4l0.4,0.3l0.15,0.35l0,0.05q0.7,3.4 1.75,6.75l0.9,2.85l0.1,0.4l-0.4,3.7l0.95,0.2l-0.95,14.1l0.2,-0.3l2.1,-5.15q1.95,-4.85 7.1,-7.9q1.65,-1.05 3.15,-1.6l2.9,-0.55l0.95,0l1.5,0.3l0.75,0.15l-0.35,0.2l-3.1,2.25l-7.3,11.2l-0.75,1.9m119.85,3.65l2.45,0.7l0.65,3l-0.2,0.55l-1.4,2.7l-0.55,0.7l-0.45,1.15l-0.2,0.1l-0.2,0.4l-0.7,0.5l-5.2,0.6l0,-4.2l2.6,-4.2l2.55,-2.2l0.65,0.2m-131.75,-10.85l0,4.4l1.7,0l0,-1.05l-1.1,0l1.2,-5.5l0.65,-0.2l0,-1.65l-1.2,0l-1.25,4m-9.55,0l0.9,0.15l1.2,4.25l1.2,0l-2.25,-4.95l-1,0l-0.05,0.55m-10.25,28.95l0.55,-0.3l2.75,1.75l3.1,3.7l0.7,4.15l-4.8,0.3l-0.75,-0.4l-0.25,-0.35l-0.2,-0.1l-0.65,-1.05l-0.6,-0.6l-1.8,-2.45l-0.25,-0.45l0.05,-3.1l2.15,-1.1"/>
   <path id="svg_12" fill-rule="evenodd" fill="#f3b016" d="m89.2,-105.45l0.85,3.95l-5.65,10.15l-4,0l-0.15,-4.15l3.75,-1.7l3.4,-2.15l0.05,-7.7l1.75,1.6m-9,5.35l-3.15,7.1l-3.6,3.45l-1.65,-1.15l-1.65,-1.2l0,-2.5l5.2,-0.6l0.7,-0.5l0.2,-0.4l0.2,-0.1l0.45,-1.15l0.55,-0.7l1.4,-2.7l0.2,-0.55l-0.65,-3l0.9,0.25l0.9,3.75m-1.25,26.45l0,2.7l-8.25,5.65l-3.45,0l-3.1,-4.2l0,-3.1l2.25,-3.75l0.3,-0.45l0.35,-0.5l0.1,0.1l2.55,-0.3l-0.4,0.55l-1.4,1.95q-0.35,0.45 -0.2,1.15l0.15,1.6l0.3,1.4l0.15,0.1l4.05,-0.15l1.3,-0.4l4.4,-1.9l0.9,-0.45m-139.7,24.4l-3.15,0.55l-8.5,-4.2l-0.5,-2.6l0.85,0.3l4.4,1.05l1.3,0.25q1.9,0.3 3.7,-0.6l0.15,-0.05q0.1,-0.75 0.05,-1.4l-0.15,-1.65q-0.05,-0.7 -0.45,-1.05l-1.55,-1.7l-0.45,-0.5l2.35,-0.1l0.2,-0.1l0.3,0.4l0.4,0.4l2.65,3.35l0.55,3.05l-2.15,4.6m-8.6,-24.25l-1.25,1.45l-4,-2.85l-4.1,-6.45l0.2,-3.9l0.75,-0.35l-0.05,3.1l0.25,0.45l1.8,2.45l0.6,0.6l0.65,1.05l0.2,0.1l0.25,0.35l0.75,0.4l4.8,-0.3l0.45,2.5l-1.3,1.4m-8.6,-3.35l0.65,4.15l-3.7,0.6l-7,-9.05l0.1,-4l1.3,-1.9l1.45,7.6l3.45,1.6l3.75,1m44.45,-23.2l-2.25,-3.95l4.4,-11.85l-0.3,-1.65l0,-0.05l2.35,-1.5l0,7.9l0,5.7l0,4.35l-1.9,4.75l-2.3,-3.7m-12.9,-2.25l-4.5,12.65l-1.8,0l-5.25,-7.65q-1.8,-2.25 -3.25,-4.65l0.15,-1l0.1,-0.9l0,-1.7l0,-2.85l0,-0.25l-0.2,-2.9l-0.35,-2.75l0,-0.25l-0.05,-0.6l-0.05,-2.95l0.1,-1.3l0.35,-2.75l0.1,-0.6l0.1,-1.3l0.15,-0.45l0.7,-2.1l0.2,-0.3l0.15,-0.35l0.2,-0.35q0.65,-1.3 1.7,-2.25l0.15,-0.05l0.15,-0.2l0.4,-0.2q-1.65,3.05 -2.85,7.05q-1.1,7.1 0,14.85l2.25,4.55l4,4.9l0.35,0.4l1.3,1.55l0.1,0.1l0,0.05l0.05,0.2l0.05,-0.15l0,0.05l0.15,-0.05l1.95,-2.15q2.6,-3.05 3.4,-3.35m-9.2,-35.75l0.25,-0.55l0.1,-0.15l-0.2,-0.55l-0.25,-0.6l-0.1,-0.25l-0.15,-0.5l-0.3,-0.6l-0.1,-0.55l0,-0.15l0,-0.05l-0.25,-0.4l-0.15,-1.45l0.5,0.85l0.45,0.1l0.05,-0.4l0,-0.2l0.05,-0.15l0.1,-0.1l0.05,-0.1l0.25,0.6l0.1,0.25l0.2,0.4l0.3,0.5l0.05,0l-0.1,-0.4l0,-0.25l0.45,0.55l0.05,0l0.15,0.25l0.15,0.15l-0.05,-0.3l0.55,0.45l0.05,0.1l0.75,0.5l0.05,0.1l0.15,0.15l0.1,0.15l0.3,0.35l0.05,-0.5l0.15,0.6q0.2,0.15 0.4,0l0.4,-0.7l0,-0.15l0.1,-0.05l0,0.15l0.3,1.35l0.05,0.05q0.2,0.15 0.45,0l0.2,-0.15l-0.05,0.65l0,0.1l0.05,0.65l1.2,0.7l0.15,0l1.1,0.3l0,-0.15l0,-1.1l2.2,1.75l0.55,0.45l0.3,0.1l5.35,1.15l1.05,1l0,2.15l-7.35,-1.2l0.4,7.55l9.1,-4.1l-0.6,2.25l0.9,-1.1l0.05,-0.05l3.85,-4.55l1.1,5.5l1.5,-5.75l0.75,0.5l0,0.05l2.2,1.4l1,3.65l-2.05,1.9l-0.3,0.25l-1.8,1.65l-3.5,-0.25l0.4,0.25l-0.75,-0.15l-1.5,-0.3l-0.95,0l-2.9,0.55q-1.5,0.55 -3.15,1.6q-5.15,3.05 -7.1,7.9l-2.1,5.15l-0.2,0.3l0.95,-14.1l-0.95,-0.2l0.4,-3.7l-0.1,-0.4l-0.9,-2.85q-1.05,-3.35 -1.75,-6.75l0,-0.05l-0.15,-0.35l-0.4,-0.3l-1.65,-0.4m-0.2,22.4l1.25,-4l1.2,0l0,1.65l-0.65,0.2l-1.2,5.5l1.1,0l0,1.05l-1.7,0l0,-4.4m-9.55,0l0.05,-0.55l1,0l2.25,4.95l-1.2,0l-1.2,-4.25l-0.9,-0.15"/>
   <path id="svg_13" fill-rule="evenodd" fill="#48498c" d="m38.55,-99.3l8.7,3.35l2.25,6.4l0.45,1.35l-5.25,-3.15l0.5,1.2l-13.4,-6.7l1.6,-4.4l5.15,1.95m18.35,5.05l5.85,-22.6l4.9,-6.55l2.5,0l4.15,7.9l4.1,7.95l0.45,2.1l-0.05,0.1q-1.2,0.9 -2.85,0.55l-0.65,-0.2l-2.55,2.2l-2.6,4.2l-1.7,-3.95l-1.75,9l0.2,0.1l0.35,0.25l0,0.3l0,1.35l0,0.6l0,1.25l-0.05,1.2l-0.05,1.4l0,1.1l-0.05,1.05l0,1.1l0,1.2l0,1.25l0,0.8l-1.45,0.3l-0.45,0.15q-1.25,0.55 -2.05,1.65l-0.4,0.45l-1.6,2.35l-0.3,0.85l-0.4,1.6l-0.2,2.75q-0.05,0.6 0.05,1.15l-0.45,-0.3l-0.8,-0.85q-0.85,-0.5 -1.35,-1.25l-0.35,-0.5l-0.8,-0.7l-0.55,-6.2l0.55,-9.35l0.1,-1.5l0.25,-4.25m20.1,-25.7l0.85,-1.2l4.85,-2.6l4.6,9.25l1.3,6.3l-5.55,-3.55l0.35,3.3l-0.7,-0.25l-5.7,-11.25m-129.75,55.2l0.6,6.25l-0.65,0.85l-0.25,0.5l-0.95,1.45l-0.6,1l-0.4,0.3l-0.1,-1.1l-0.75,-2.7l-0.6,-1.45l-0.45,-0.8l-1.85,-2.05l-0.45,-0.4q-1,-0.95 -2.2,-1.3l-0.4,-0.05l-1.4,-0.05l-0.15,-0.85l-0.25,-1.2l-0.2,-1.2l-0.2,-1.05l-0.2,-1.05l-0.2,-1.05l-0.25,-1.35l-0.3,-1.2l-0.2,-1.25l-0.15,-0.55l-0.2,-1.4l0,-0.2l0.2,-0.35l0.2,-0.1l-3.2,-8.6l-0.9,4.15l-3.1,-3.7l-2.75,-1.75l-0.55,0.3l-2.7,-0.1l-0.1,-0.05l0.1,-2.15l2.4,-8.5l2.4,-8.4l2.3,-0.45l5.7,5.7l9.35,21.2l0.8,3.65l0.25,1.05l2.35,10m-35.1,-23.2l0.1,-6.4l2.6,-9.9l4.95,1.75l0.95,1.05l-3.2,12l-0.65,0.35l-0.2,-3.25l-4.55,4.4m40.25,5.25l9.8,-6.2l0,1.4l2.35,-2.05l1.9,3.45l-11.15,8.8l0.25,-1.2l-4.3,3.85l0,-0.5l1.15,-7.55"/>
   <path id="svg_14" fill-rule="evenodd" fill="#352b80" d="m56,-79.15l-4,-4.55l-9.3,0l4.15,-2.55l-1.65,-3.9l-0.5,-1.2l5.25,3.15l-0.45,-1.35l0.55,0.85l0.55,0.8l0.2,0.4l0.3,0.1l2.7,0.45l0.55,0l1.2,-0.85l1,-0.7l-0.55,9.35m-101.55,5.95l4.25,1.9l-8.55,1.5l-2.9,5.05l-2.35,-10l3.55,1.85l2.8,-2.25l0,0.5l4.3,-3.85l-0.25,1.2l-0.85,4.1m-14.2,-57.25l-2.1,-1.3l-0.7,-1.65l3.7,1.4l-0.9,1.55m-4.65,-8.55l-0.75,-2.05l0,-0.15l-0.15,-0.4l0,-0.1l-0.15,-2.4l0.15,-0.6l0.1,-0.3l0.15,-0.9q2.15,0.1 4.3,2.45l0.3,0.35l0.05,0.1l-0.35,0.1l-0.05,0.1l-0.5,0.4l0,0.05l-0.05,0.05q-1.15,-0.9 -2.2,-1l-0.1,0.05q-0.5,0.95 -0.6,2.05l0.05,2.15l-0.2,0.05m7.5,0.25l0.05,-0.1l0.5,0.55l0.3,1.1l-0.4,0.7l-0.05,-0.05l-0.75,-1.75l0.25,-0.6l0,0.35l0,0.15l0,-0.1l0.15,-0.1l-0.05,-0.05l0,-0.1m8.35,1l0,-3.35l0.25,-2.05q0.75,0.55 1.5,0.8l-1.2,3.2l0.4,0.55l0,1.15l-0.95,-0.3m1.85,-12.15l2.05,-4.1l0.05,0l2,-1.25l0.45,-0.05q1.2,0.5 2.05,1.35l-0.05,0.05l0.35,0.35l0.1,0.1q1.65,3.05 2.05,6.65q0.3,2.7 -1,5q0.5,-1.3 0.3,-3.3q-0.5,-4.25 -2.45,-5.75l-1,-0.15q-0.65,-0.05 -1.65,1.5l-0.6,-0.2l-2.65,-0.2m22.1,51.15l0.15,-0.35l0.15,0.55l-0.3,-0.2"/>
   <path id="svg_15" fill-rule="evenodd" fill="#d47e2f" d="m67.05,-77.35l0.1,-0.05l0,0.2l-0.1,-0.15m-129.65,16.25l-0.1,0.15q-0.2,-0.35 0,-0.25l0.1,0.1"/>
   <path id="svg_16" fill-rule="evenodd" fill="#5ec254" d="m67.05,-77.35l0.1,0.15l-0.1,-0.1l0,-0.05m-129.6,16.25l-0.15,0.15l0.1,-0.15l0.05,0"/>
   <path id="svg_17" fill-rule="evenodd" fill="#9b4a0f" d="m-40.5,-167.4l0.65,0.35l0.05,0.05l-0.25,0.35l-0.45,-0.75m77.7,-46.9l0.25,-0.2l0.15,0.2l0,0.05l-0.4,-0.05m-89.75,62.65l-0.1,0l0.15,-0.5l0,-0.15l0.05,0l-0.05,0.15l-0.05,0.5m3.95,14.05l0.05,-0.15l0.95,0.3l0.1,0l0,0.15l-1.1,-0.3m0.7,-7.8l-0.4,-0.05l0.1,-0.6l0.1,-0.4l0.4,0.1l-0.2,0.95m7.9,-8.45l0.3,0.4l-0.1,-0.1l-0.35,-0.35l0.15,0.05m14.3,17.05l0.3,0.05l-0.05,0.1q-0.3,0.6 -0.25,-0.15m-5.45,-0.85l-0.05,0l0.05,-2.05l0,2.05m0.75,-14.75l0.45,-0.1l-0.4,0.35l-0.05,-0.25m-26.15,15.95l0.05,-0.1l0,0.15l-0.05,-0.05m53.9,-23.6l0.35,0.1l-0.4,1.4l0.05,-1.5m15.15,40.2l1.45,0.55l-0.2,0.2l-1.25,-0.75m-8.95,9.9l0,0.05l0,-0.05"/>
   <path id="svg_18" fill-rule="evenodd" fill="#fece2c" d="m-63.95,-153.65l0.05,0.05l0.15,0.7l-0.3,-0.65l0.1,-0.1"/>
   <path id="svg_19" fill-rule="evenodd" fill="#000000" d="m-60.4,-143l0.05,0l0,-0.15l0.25,0.25l0.15,0.15l0.15,0.15l0.15,0.2l0.4,0.45l0.4,0.4l1.85,2.65l0.1,0.05l0,0.05l-0.1,0.05l0,-0.15l-0.25,0.6l-0.1,0.1l-0.1,0.15l-0.15,0.15l-0.65,0.35l-0.75,0l-0.25,0l-0.75,-0.35l-0.65,-0.55l0.3,-0.05q0.35,-0.15 0.45,-0.55l-0.15,-0.95l-0.7,-0.7l-0.7,-0.1l-0.15,0.25l-0.1,-0.35l0,-0.3l0,-0.15l0.2,-0.55l0,-0.05l0.15,-0.35l0.15,0.1l-0.1,-0.15l0,-0.05l0.5,-0.4l0.05,-0.1l0.35,-0.1m12.1,-0.25l0.2,-1l0.05,-0.3l0.15,-0.85l0.2,-0.95l0.35,-1.35l0.6,-2.15l0.05,-0.05l2.65,0.2l0.6,0.2l0.8,0.65l0.05,0.05l0.7,0.9l-0.5,-0.05l-0.3,0l-0.05,0q-0.65,0.1 -1.1,0.5q-0.55,0.55 -0.5,1.35q-0.05,0.75 0.5,1.3q0.6,0.55 1.45,0.55l0.55,-0.05l-0.8,1q-1.2,1.15 -2.85,1.15l-0.2,0l-1.1,-0.2q-0.75,-0.25 -1.5,-0.8l0,-0.1m0,-2.2l-0.1,0.65l0.2,-1.3l0.1,-0.8l0.2,-0.65l-0.2,1.1l-0.1,0.4l-0.1,0.6m-10.75,5.1l-0.2,0.35l0.15,0.45q0.15,0.25 0.4,0.3l0.45,-0.05q0.15,-0.15 0.15,-0.4l-0.1,-0.45l-0.4,-0.3l-0.45,0.1m12.55,-5.3l-0.7,0.1l-0.4,0.7l0.3,0.75l0.65,0.5q0.4,0.1 0.75,-0.15q0.3,-0.25 0.35,-0.65l-0.25,-0.8l-0.7,-0.45m11.05,56.1l0.45,-0.35l1.6,3.75l-0.15,0.05l-1.9,-3.45"/>
   <path id="svg_20" fill-rule="evenodd" fill="#fff5d5" d="m-38.65,-141.8l-0.95,1.4l-0.15,0.15q-1.95,2.3 -4.85,3.25l-0.6,0.2l-0.1,0l-2.2,-1.75l-0.1,-0.05l-0.4,-0.55l1.2,-3.2l1.1,0.2l0.2,0q1.65,0 2.85,-1.15l0.8,-1l-0.55,0.05q-0.85,0 -1.45,-0.55q-0.55,-0.55 -0.5,-1.3q-0.05,-0.8 0.5,-1.35q0.45,-0.4 1.1,-0.5l0.05,0l0.3,0l0.5,0.05l-0.7,-0.9l-0.05,-0.05l-0.8,-0.65q1,-1.55 1.65,-1.5l1,0.15q1.95,1.5 2.45,5.75q0.2,2 -0.3,3.3m-22.7,-0.5l-0.15,0.35l0,0.05l-0.2,0.55l0,0.15l0,0.3l0.1,0.35l0.15,-0.25l0.7,0.1l0.7,0.7l0.15,0.95q-0.1,0.4 -0.45,0.55l-0.3,0.05l0.65,0.55l0.75,0.35l0.25,0l0.75,0l0.65,-0.35l0.05,0l0.1,-0.15l0.1,-0.15l0.1,-0.1l0.75,1.75l-0.05,0.1q-0.2,0.6 -1.4,1.5q-1.65,-0.15 -3.45,-1l-1.6,-1.05l-0.9,-1.05l-0.2,-0.35l-0.1,-0.65l-0.05,-2.15q0.1,-1.1 0.6,-2.05l0.1,-0.05q1.05,0.1 2.2,1m2.3,1.95l0.45,-0.1l0.4,0.3l0.1,0.45q0,0.25 -0.15,0.4l-0.45,0.05q-0.25,-0.05 -0.4,-0.3l-0.15,-0.45l0.2,-0.35m12.55,-5.3l0.7,0.45l0.25,0.8q-0.05,0.4 -0.35,0.65q-0.35,0.25 -0.75,0.15l-0.65,-0.5l-0.3,-0.75l0.4,-0.7l0.7,-0.1"/>
   <path id="svg_21" fill-rule="evenodd" fill="#791d17" d="m-48.3,-143.15l0,-0.1l0,0.1m8.2,-10.8l0.1,0.1l-0.15,-0.05l0.05,-0.05m-21.2,11.6l0.1,0.15l-0.15,-0.1l0.05,-0.05m-2.9,3.3l0.1,0.65l-0.3,-0.6l0.2,-0.05m7.7,2.65l0,-0.15l0.05,0.05l-0.05,0.1"/>
   <path id="svg_22" fill-rule="evenodd" fill="#ad2c20" d="m-52.5,-152.3l0,-1.05l0.1,-0.25l-0.1,1.3"/>
   <path id="svg_23" fill-rule="evenodd" fill="#ff6600" d="m-3.75,-170.2l0,-8.9l1.95,6.65l-1.95,2.25m18.75,-32.25l-1.45,-6.3l2.85,3.85l-0.9,2.45l-0.5,0m-64.55,61.15l0.05,0.2l0.15,1l-0.15,-0.6l0,-0.4l-0.05,-0.1l0,-0.1m-5.1,-3.15l-0.1,-0.15l-0.05,-0.05l0.05,0l0.1,0.2m-0.2,-0.3l0.05,0l0,0.05l-0.05,-0.05m20.45,4.25l0.15,-0.85l0,0.5l-0.1,0.2l-0.05,0.15"/>
   <path id="svg_24" fill-rule="evenodd" fill="#ffcc00" d="m-55.35,-138.6l-0.1,-0.7l0.2,0.55l-0.1,0.15m17.3,6.65l0.05,0.95l3.25,-3l-1.15,4.3l-9.1,4.1l-0.4,-7.55l7.35,1.2"/>
   <path id="svg_25" fill-rule="evenodd" fill="#fedd92" d="m-45.2,-136.8l0.75,0.55l-0.3,-0.1l-0.55,-0.45l0.1,0"/>
   <path id="svg_26" fill-rule="evenodd" fill="#6763c7" d="m34.5,-169.55l-3.8,8.5l3.25,3.1l-3.45,0l-8,5.25l0,5.7l-2.75,4.3l0,-8l-3.1,9.5l2.05,2.15l0.7,2.15l-7.15,0.8l-1.6,-1.55l-6.15,-2.7l-2.4,-5.7l6,-6.85l1.35,-4l1.2,2.9l9,-7.25l9.2,-13.55l1.65,9.1l4,-3.85"/>
   <path id="svg_27" fill-rule="evenodd" fill="#fed067" d="m29.9,-113.65l0.2,0l0.85,0.55l0,0.25l-1.05,-0.8m-1.25,-0.1l-1.45,0l0,-0.1l1.45,0.1"/>
   <path id="svg_28" fill-rule="evenodd" fill="#e9a228" d="m16.55,-103l0.1,-0.25l0.05,-0.3l0.05,0.05l-0.1,0.55l-0.1,-0.05m2.55,-12.7l-0.2,0.1l-0.3,-0.45l-0.1,-0.15l0.05,0l0.25,0.2l0.3,0.3"/>
   <path id="svg_29" fill-rule="evenodd" fill="#302d7d" d="m33.7,-91.5l-2.65,3.15l-1.55,0.3l-2.85,8l0,21.85l-1.1,1.2l-9.35,-17.6l-10.8,10.5l1.75,-7.85l-1.75,0.55l-3.45,-7.1l-10.5,3.45l0.1,-1.5l1.05,-0.95l-8.35,2.35l6,-4.35l1.2,-3.15l0.5,-2.6l-2,1.4l-14.4,6.5l-9.9,-2.8l-0.1,-0.3l-0.2,-0.3l2.6,-2.35l-1.05,-2.3l0.4,-0.15l0.7,-0.15l1.55,-0.45l0.85,-0.25l1.7,-0.55q1.4,-0.45 2.65,-1.25l3.7,-2.4l-0.7,-1l-0.3,-0.75l-0.3,-0.65l-0.25,-0.45l-0.35,-0.65l-0.45,-1.7l-0.1,-1.25l-0.3,-1.5l-0.15,-0.55l-0.05,-0.35q-0.3,-1.8 -0.9,-3.45l-0.45,-0.85l-2.25,-3.25l0.75,-0.9l3.3,4.1l9.3,3.15l3.95,5.25l8.6,4.35l11.5,-1.2l2.2,-2.6l1.15,-0.05l0.15,-0.05l0.65,-0.4l0.2,-0.15l0.8,-0.95l0.75,-1.15l1,-2.1l0.3,-0.95l0.2,-0.85q4,2.8 9.1,2.35l2.45,0.05l-0.85,1.9l0,3.2l6.3,2.5"/>
   <path id="svg_30" fill-rule="evenodd" fill="#de9f0c" d="m-32.4,-124l-0.4,-0.25l3.5,0.25l0,2.4l0,2.55l-2.35,1.5l-1.1,-6.25l0.35,-0.2"/>
   <path id="svg_31" fill-rule="evenodd" fill="#8c221a" d="m-35.75,-104l-3.45,-7.25l3.35,-10.3l3.1,-2.25l1.1,6.25l0,0.05l0.3,1.65l-4.4,11.85"/>
   <path id="svg_32" fill-rule="evenodd" fill="#ff3300" d="m-39.2,-111.25l-0.25,1q-0.75,5.8 0,12l-2.95,-4.7l-1.5,-5.5l0.75,-1.9l7.3,-11.2l-3.35,10.3"/>
   <path id="svg_33" fill-rule="evenodd" fill="#4aa2a0" d="m-62.55,-61.1l0.05,0.05l-0.2,0.1l0.15,-0.15"/>
  </g>
  <g transform="matrix(1,0,0,1,1.5,1.5) " id="sprite0">
   <use id="svg_34" xlink:href="#shape1" width="446.85" transform="matrix(1,0,0,1,-1.5,-1.5) " height="278.65"/>
  </g>
  <g transform="matrix(1,0,0,1,1.5,1.5) " id="shape1">
   <path id="svg_35" stroke-width="3" stroke-opacity="0.8" stroke-linejoin="round" stroke-linecap="round" stroke="#36306d" fill="none" d="m395.25,18.05l32.7,10.1l-10.9,0l19.55,25.5l7.25,20.6l-13.3,-19.3l-21.05,-12.5l-15.6,-4.95l8.55,8.35l-14.05,-8.05l1.85,1.9l1.7,1.95q6.85,7.9 11,17.5q1.25,7.55 0,14.3q-3.65,-16.4 -11.45,-24.45l4.15,24.7l-11.2,-23.95q5.1,15.65 5.25,31.3q-5.25,-15.6 -13.3,-24.55l-16.1,10.95l-22.5,6l-19,0l-14,19.3l4.4,-20.05l-15.9,32.05l0,-15.35l-4.7,6.75l-8.05,14.55l0,-22.65l-9.1,20.35l4.65,4.4l-4.95,0l-11.45,7.55l0,8.1l-3.95,6.2l0,-11.4l-4.4,13.55l2.9,3.1l2.85,8.3l-4.4,-3.35l0,3.7l6.25,7.5l3.75,6.55l7.95,4.45l3.35,4.85l-0.3,6.8l8.95,6.25l0,11.85l12.45,4.75l-2.55,-7.2l10.6,11.7l0,-8.05l5.8,5.95l8.35,-32.3l7,-9.35l3.6,0l5.9,11.3l5.1,-8.15l7,-3.65l6.55,13.25l3.9,18.55l-8.1,14.55l-5.7,0l-0.25,-12.55l-4.5,10.2l-5.15,4.9l-2.35,-1.6l0,10.55l3.1,9.3l2.15,2.65l4.9,0l0,5.7l-11.75,8.1l-9.9,0l-10.15,-8.35l-1,-11.45l-5.7,-6.5l-13.35,0l6,-3.65l-18.9,-7.55l-3.7,4.5l-2.25,0.45l-4.1,11.45l0,31.3l-15.85,16.9l6.5,-12.25l-8.85,-7.25l-12.3,9.5l-13.75,13.15l8.35,-21.15l-10.7,-8.85l-8.85,0l5.75,-4.2l-15.4,0l16.4,-13.5l-11.95,3.35l8.6,-6.2l1.7,-4.5l0.7,-3.7l-2.85,1.95l-20.65,9.3l-14.1,-4l-0.2,-0.4l-15.9,10.35l6.15,2.7l-12.25,2.15l-4.15,7.25l1.05,11.5l-7.9,9.9l-9.15,1.6l-12.15,-6.05l-1.05,-5.7l4.6,-0.8l1.45,-2.8l1.25,-9.75l-1.85,-10.4l-1.85,2.05l-5.65,-4.05l-5.85,-9.25l1.95,12.35l-5.3,0.9l-10,-13l0.35,-18.85l3.75,-14.15l7.1,2.45l6.15,7.2l3.35,-12.05l3.35,-0.6l8.15,8.1l13.35,30.4l4.15,-6.85l1.4,7.8l0.05,0.15l7.8,-13.25l-1.15,7.5l14.05,-8.9l0,-8.1l6.15,-7.9l-3.2,-5.6l-4.95,-10.35l-0.4,1.4q-1.05,8.25 0,17.15l-4.2,-6.7l-2.15,-7.9l-3.55,8.8l-6.5,18.15l-2.5,0l-7.55,-11q-2.6,-3.25 -4.65,-6.65q-4.25,-6.85 -6.55,-14.5l-1.1,-7.5l3.75,-9.65l6,-9.1l-3.05,-1.9l-1.75,-4.1l0.45,0.1l-8.45,-10.55l-1.35,0l-14.85,-8.85l12.45,2.4l-0.75,-3.45l1.3,-3.2l-5.45,-2.3l-15.1,-13l7.8,0l10.2,9.65l-2.9,-9.65l-13.55,-13.05l-15.35,5.25l5.45,-6l-4.95,0l2.85,-3.45l-11.7,2.9l-14.35,0l16.7,-8.35l-3.9,-3.6l-7.85,0l-17.95,12.25l-20.3,10.15l15.05,-14.85l-4.15,0l2.6,-7.55l-29.65,26.3l-19.55,7.05l17.7,-10.95l8.6,-19.3l15.35,-16.4l25.3,-11l-16.7,0l16.7,-9.35l21.6,0l0.5,0.2l20.35,6.55q5.65,6.45 11.2,14.8q5.6,8.35 9.65,19.4l0,-8.15l-2.9,-10.1l0,-16.2l4.2,10.45l10.95,33.1l3.25,4.65q3.2,-2.65 6.45,-3.85l-1.9,-6.55l3.55,6.05q8.7,-1.8 15.7,1.6l1,0.5l7.4,4.2l3.2,4.65l6.45,3.9l4.75,4.7l1,2.6l12.45,6.6l0.05,0.15l0.5,0l9.1,-4.5l6.75,-17.4l0,-22.15l5.95,20.85l5,-6.8l4.15,-13.8l4.15,6.55l6.15,-14.4l0.4,-0.75l2.5,-17.8l0.1,-0.4l-3.65,-15.95l8.8,12.25l1.5,3.9l5.35,-11.2q4.55,-6.15 10.7,-10.85l3.1,-2.6l1.05,-0.85l13.2,-8.05l14.15,-15.35l-2.85,10.1l-11.3,13.05l31.55,-12.8l13.6,-12.5l-8.15,15.15l-5.95,5.95l25.75,0l34.45,-5.45l26.25,-20.85l-10.65,15.9l-2.25,2.15z"/>
  </g>
  <g id="sprite1">
   <use id="svg_36" xlink:href="#shape2" width="102.95" height="45"/>
  </g>
  <g id="shape2">
   <path id="svg_37" fill-rule="evenodd" fill-opacity="0" fill="#ff00ff" d="m0,0l102.95,0l0,45l-102.95,0l0,-45"/>
  </g>
 </defs>
 <g>
  <title>background</title>
  <rect fill="none" id="canvas_background" height="435" width="630" y="-1" x="-1"/>
 </g>
 <g>
  <title>Layer 1</title>
  <g id="svg_38" transform="matrix(2,0,0,2,0,0) ">
   <use x="161.050003" y="238.5" id="svg_39" xlink:href="#shape0" width="381" transform="matrix(1,0,0,1,-192.55,-294) " height="381"/>
   <use x="230.466518" y="341.29937" id="svg_40" xlink:href="#sprite0" width="446.85" transform="matrix(0.6988,0,0,0.6988,-160.0482,-237.6482) " height="278.65"/>
   <use x="-17.153608" y="-33.256742" xlink:href="#sprite1" width="102.95" transform="matrix(1.8072000000000004,0,0,1.6538,83.00000305175784,126.30000000000001) " id="_mcMask" height="45"/>
  </g>
 </g>
</svg>