<?xml version="1.0" encoding="UTF-8" standalone="no"?>
<!DOCTYPE svg PUBLIC "-//W3C//DTD SVG 1.1//EN" "http://www.w3.org/Graphics/SVG/1.1/DTD/svg11.dtd">
<svg width="100%" height="100%" viewBox="0 0 31 33" version="1.1" xmlns="http://www.w3.org/2000/svg" xmlns:xlink="http://www.w3.org/1999/xlink" xml:space="preserve" xmlns:serif="http://www.serif.com/" style="fill-rule:evenodd;clip-rule:evenodd;stroke-miterlimit:3;">
    <g transform="matrix(1,0,0,1,0.00136,0.459416)">
        <g transform="matrix(0.6,0,0,0.6,14.8502,24.8004)">
            <g id="sprite0">
                <g id="sprite1" transform="matrix(0.7205,0,0,0.3602,0.500925,-0.55159)">
                    <g id="shape0">
                        <path d="M24.75,-24.8C31.617,-17.933 35.05,-9.667 35.05,0C35.05,9.667 31.617,17.917 24.75,24.75C17.917,31.617 9.667,35.05 0,35.05C-9.667,35.05 -17.933,31.617 -24.8,24.75C-31.633,17.917 -35.05,9.667 -35.05,0C-35.05,-9.667 -31.633,-17.933 -24.8,-24.8C-17.933,-31.633 -9.667,-35.05 0,-35.05C9.667,-35.05 17.917,-31.633 24.75,-24.8" style="fill:url(#_Radial1);"/>
                    </g>
                </g>
                <g id="sprite2" transform="matrix(1,0,0,1,-20.65,-35.25)">
                    <g id="shape1">
                        <path d="M20.25,0.05L19.85,0.6L18.7,0.05L20.25,0.05" style="fill:#a6a6a6;"/>
                        <path d="M32.8,16.45L33.1,19.25L32.65,16.6L32.8,16.45M5.9,5.9L6,5.8L6.05,5.85L5.9,5.9" style="fill:url(#_Linear2);"/>
                        <path d="M33.1,19.25L33.1,19.75C33.5,27.217 31.533,32.967 27.2,37C22.2,39.633 15.483,39.133 7.05,35.5L5.9,34.45C1.967,30.517 0,25.767 0,20.2C0,14.6 1.967,9.833 5.9,5.9L6.05,5.85C7.15,10.317 9.7,13.667 13.7,15.9C21.533,18.133 27.85,18.367 32.65,16.6L33.1,19.25" style="fill:url(#_Radial3);"/>
                        <path d="M32.8,16.45C35.667,15.883 37.7,14.533 38.9,12.4C39.833,14.8 40.333,17.4 40.4,20.2C40.333,25.767 38.367,30.517 34.5,34.45C31.067,37.817 27.083,39.733 22.55,40.2C24.317,39.3 25.867,38.233 27.2,37C31.533,32.967 33.5,27.217 33.1,19.75L33.1,19.25L32.8,16.45" style="fill:#bfb4a1;"/>
                        <path d="M38.9,12.4C37.7,14.533 35.667,15.883 32.8,16.45C31.3,9.417 28.683,4.967 24.95,3.1L19.85,0.6L20.25,0.05C25.783,0.017 30.533,1.967 34.5,5.9C36.4,7.867 37.867,10.033 38.9,12.4" style="fill:#71684a;"/>
                        <path d="M19.85,0.6L24.95,3.1C28.683,4.967 31.3,9.417 32.8,16.45L32.65,16.6C27.85,18.367 21.533,18.133 13.7,15.9C9.7,13.667 7.15,10.317 6.05,5.85L6,5.8C9.567,2.3 13.8,0.383 18.7,0.05L19.85,0.6M27.2,37C25.867,38.233 24.317,39.3 22.55,40.2C22.517,40.2 22.467,40.233 22.4,40.3L21.7,40.3L20.25,40.4L18.7,40.3C14.3,40.033 10.417,38.433 7.05,35.5C15.483,39.133 22.2,39.633 27.2,37" style="fill:#8e7e66;"/>
                        <path d="M38.9,12.4C37.867,10.033 36.4,7.867 34.5,5.9C30.533,1.967 25.783,0.017 20.25,0.05L18.7,0.05C13.8,0.383 9.567,2.3 6,5.8L5.9,5.9C1.967,9.833 0,14.6 0,20.2C0,25.767 1.967,30.517 5.9,34.45L7.05,35.5C10.417,38.433 14.3,40.033 18.7,40.3L20.25,40.4L21.7,40.3L22.4,40.3M22.55,40.2C27.083,39.733 31.067,37.817 34.5,34.45C38.367,30.517 40.333,25.767 40.4,20.2C40.333,17.4 39.833,14.8 38.9,12.4" style="fill:none;fill-rule:nonzero;stroke:#332;stroke-opacity:0.73;stroke-width:0.05px;"/>
                        <path d="M22.55,40.2C22.517,40.2 22.467,40.233 22.4,40.3" style="fill:none;fill-rule:nonzero;stroke:#313421;stroke-opacity:0.59;stroke-width:0.05px;"/>
                        <path d="M19.85,0.6L24.95,3.1C28.683,4.967 31.3,9.417 32.8,16.45L33.1,19.25L33.1,19.75C33.5,27.217 31.533,32.967 27.2,37C25.867,38.233 24.317,39.3 22.55,40.2M18.7,0.05L19.85,0.6" style="fill:none;fill-rule:nonzero;stroke:#313421;stroke-opacity:0.35;stroke-width:0.05px;"/>
                        <path d="M32.8,16.45L32.65,16.6L33.1,19.25" style="fill:none;fill-rule:nonzero;stroke:#1e1f14;stroke-opacity:0.35;stroke-width:0.05px;"/>
                        <path d="M27.2,21.35L28.8,22.95M34.9,6.3C37.067,8.9 36.183,10.983 32.25,12.55C31.85,11.117 31.367,10.05 30.8,9.35M6.5,22.2C6.533,20.367 6.867,18.65 7.5,17.05M9.2,15.25L7.95,14M7,31.25L7.95,33.9L5.3,33.85" style="fill:none;fill-rule:nonzero;stroke:#000;stroke-opacity:0.15;stroke-width:0.5px;"/>
                        <path d="M28.3,22.45L30.95,19.95C32.117,18.75 32.833,17.683 33.1,16.75L32.25,12.55M8.65,14.7C8.183,15.433 7.8,16.217 7.5,17.05" style="fill:none;fill-rule:nonzero;stroke:#000;stroke-opacity:0.15;stroke-width:0.5px;stroke-linecap:round;"/>
                        <path d="M30.95,19.95L30.25,19.15M28.3,22.45L26.15,24.1M30.95,19.95L31.85,20.95M7.5,17.05L6.5,16.4M7.5,17.05L8.6,17.8M8.65,14.7C9.65,13 11.033,11.433 12.8,10M7.95,33.9C9.817,33.767 11.367,33.383 12.6,32.75" style="fill:none;fill-rule:nonzero;stroke:#000;stroke-opacity:0.15;stroke-width:0.5px;stroke-linecap:round;"/>
                    </g>
                </g>
                <g id="sprite3" transform="matrix(1,0,0,1,-21.45,-22.55)">
                    <g id="shape2">
                        <path d="M41.3,3.5L41.2,2.4L41.1,2.15L41.7,3.1L41.6,3.6L41.3,3.5M1.05,13.2L1.05,13.1L1.1,13.1L1.05,13.2M0.25,3.6L0.15,2.95L1.05,1.7L0.65,2.65L0.55,3.5L0.25,3.6M31.85,12L31.7,11.9L31.85,11.9L31.85,12M30.3,19.85L30.3,19.9L30.25,19.85L30.3,19.85M30.15,19.85L29.85,19.6L30.25,19.85L30.15,19.85" style="fill:#9e8958;"/>
                        <path d="M0.3,6.95L0.3,6.5L0.25,3.6L0.55,3.5C0.55,4.667 0.917,5.783 1.65,6.85L1.75,7L2,7.3C2.733,8.167 3.767,9 5.1,9.8L6.5,10.5C8.4,11.433 10.533,12.15 12.9,12.65L13.05,12.65L13.5,12.7L20.95,13.35L21.7,13.35L27.5,12.9L29.85,12.4L30.15,12.3L31.7,11.9L31.85,12L31.7,12.75C31.133,15.683 30.517,17.967 29.85,19.6L24.55,16.4L18.9,20.8L13.45,15.6L7.75,18.55L3.9,12.1L1.1,13.1L0.3,6.95" style="fill:#b6a47c;"/>
                        <path d="M18.9,20.9L18.8,20.9L18.9,20.8L18.9,20.9M38.5,16.1L38.3,16.25L38.4,16L38.5,16.1" style="fill:#9c3030;"/>
                        <path d="M31.9,11.85L35.35,10.5L36.85,9.7C38.083,8.967 39.083,8.167 39.85,7.3L40,7.15C40.867,5.983 41.3,4.767 41.3,3.5L41.6,3.6L41.5,4.5L41.1,7.1L41.35,8.25L38.4,16L34.55,14.15L30.3,19.85L30.25,19.85L29.85,19.6C30.517,17.967 31.133,15.683 31.7,12.75L31.85,12L31.85,11.9L31.9,11.85" style="fill:#786743;"/>
                        <path d="M30.7,10.65L31.7,10.3L34.65,9.1C36.417,8.167 37.783,7.167 38.75,6.1L38.9,5.9L39.35,5.25L39.4,5.2L40.15,3.05L40.25,2.8L40.25,2.15C40.25,1.45 40.133,0.817 39.9,0.25L40.8,1.7L41.1,2.15L41.2,2.4L41.3,3.5C41.3,4.767 40.867,5.983 40,7.15L39.85,7.3C39.083,8.167 38.083,8.967 36.85,9.7L35.35,10.5L31.9,11.85L30.7,10.65" style="fill:#a4865b;"/>
                        <path d="M30.7,10.65L31.9,11.85L31.85,11.9L31.7,11.9L30.15,12.3L29.85,12.4L27.5,12.9L21.7,13.35L20.95,13.35L13.5,12.7L13.05,12.65L12.9,12.65C10.533,12.15 8.4,11.433 6.5,10.5L5.1,9.8C3.767,9 2.733,8.167 2,7.3L1.75,7L1.65,6.85C0.917,5.783 0.55,4.667 0.55,3.5L0.65,2.65L1.05,1.7L1.1,1.6C1.333,1.167 1.667,0.717 2.1,0.25L2.15,0.15C1.883,0.75 1.75,1.417 1.75,2.15L1.85,2.8L1.9,3.3C2,3.833 2.2,4.367 2.5,4.9L3.05,5.75L3.2,5.9C4.1,7.033 5.483,8.1 7.35,9.1C9.017,9.967 10.867,10.633 12.9,11.1L13.05,11.1L13.5,11.2L20.95,12L21.7,12L27.5,11.45L29.85,10.95L30.15,10.9C30.317,10.767 30.5,10.683 30.7,10.65" style="fill:#dbcebd;"/>
                        <path d="M41.35,8.25L41.85,11.05L41.05,12.65C40.783,13.517 40.3,14.35 39.6,15.15L39.5,15.25L38.5,16.1L38.4,16L41.35,8.25M29.9,20L27.5,20.4L27.05,20.5L21.7,20.9L18.9,20.9L18.9,20.8L24.55,16.4L29.85,19.6L30.15,19.85L29.85,19.9C29.517,20 29.533,20.033 29.9,20M38.4,16L37.75,16.5L35.8,17.75C35.633,17.85 35.483,17.933 35.35,18L31.7,19.45L30.3,19.85L34.55,14.15L38.4,16" style="fill:#780101;"/>
                        <path d="M18.8,20.9L16.75,20.75L13.5,20.25L13.05,20.15L12.9,20.15L10.8,19.6L7.75,18.55L13.45,15.6L18.9,20.8L18.8,20.9" style="fill:#b80101;"/>
                        <path d="M1.7,14.1L1.05,13.2L1.1,13.1L1.05,13.1C0.983,13.333 0.867,13.017 0.7,12.15L0,10.9L0.3,6.95L1.1,13.1L3.9,12.1L7.75,18.55L7.15,18.3L6.5,18C5.2,17.4 4.033,16.567 3,15.5L2.35,14.85L1.7,14.1" style="fill:#fc1b1b;"/>
                        <path d="M39.5,15.25C39.167,16.417 38.383,17.483 37.15,18.45L36.95,18.6L37.05,18.35L34.2,20.2L30.85,21.55L29.55,21.95L29.4,21.95L29.1,22C28.733,22.1 28.817,22.117 29.35,22.05L26.95,22.45L21.55,22.9L18.85,22.9L13.95,22.3L13.55,22.2L13.4,22.2L8.6,20.75L7.45,20.2C5.483,19.3 3.8,17.817 2.4,15.75L2.45,15.7L2.4,15.7C2.333,15.9 2.233,15.6 2.1,14.8L1.7,14.1L2.35,14.85L3,15.5C4.033,16.567 5.2,17.4 6.5,18L7.15,18.3L7.75,18.55L10.8,19.6L12.9,20.15L13.05,20.15L13.5,20.25L16.75,20.75L18.8,20.9L21.7,20.9L27.05,20.5L27.5,20.4L29.9,20L30.1,19.95L30.25,19.95L30.3,19.9L30.3,19.85L31.7,19.45L35.35,18C35.483,17.933 35.633,17.85 35.8,17.75L37.75,16.5L38.4,16L38.3,16.25L38.5,16.1L39.5,15.25" style="fill:#382510;fill-opacity:0.3;"/>
                        <path d="M41.3,3.5L41.2,2.4L41.1,2.15L41.7,3.1L41.5,4.5L41.1,7.1L41.35,8.25L41.85,11.05L41.05,12.65C40.783,13.517 40.3,14.35 39.6,15.15L39.5,15.25L38.5,16.1L38.3,16.25L38.4,16L41.35,8.25M1.7,14.1L1.05,13.2L1.05,13.1C0.983,13.333 0.867,13.017 0.7,12.15L0,10.9L0.3,6.95L0.3,6.5L0.25,3.6M1.05,1.7L1.1,1.6C1.333,1.167 1.667,0.717 2.1,0.25L2.15,0.15C1.883,0.75 1.75,1.417 1.75,2.15L1.85,2.8L1.9,3.3C2,3.833 2.2,4.367 2.5,4.9L3.05,5.75L3.2,5.9C4.1,7.033 5.483,8.1 7.35,9.1C9.017,9.967 10.867,10.633 12.9,11.1L13.05,11.1L13.5,11.2L20.95,12L21.7,12L27.5,11.45L29.85,10.95L30.15,10.9C30.317,10.767 30.5,10.683 30.7,10.65M40.8,1.7L39.85,0.1L39.9,0.25L39.75,0L39.85,0.1M29.9,20L27.5,20.4L27.05,20.5L21.7,20.9L18.8,20.9L16.75,20.75L13.5,20.25L13.05,20.15L12.9,20.15L10.8,19.6L7.75,18.55L7.15,18.3L6.5,18C5.2,17.4 4.033,16.567 3,15.5L2.35,14.85L1.7,14.1M30.3,19.9L30.3,19.85L30.25,19.85L30.3,19.9L30.25,19.95L30.1,19.95L29.9,20C29.533,20.033 29.517,20 29.85,19.9L30.15,19.85L29.85,19.6L24.55,16.4L18.9,20.8L13.45,15.6L7.75,18.55L3.9,12.1L1.1,13.1L0.3,6.95M30.15,19.85L30.25,19.85M30.3,19.85L31.7,19.45L35.35,18C35.483,17.933 35.633,17.85 35.8,17.75L37.75,16.5L38.4,16L34.55,14.15L30.3,19.85M1.05,1.7L0.65,2.65L0.55,3.5M1.1,13.1L1.05,13.1" style="fill:none;fill-rule:nonzero;stroke:#332;stroke-opacity:0.59;stroke-width:0.05px;"/>
                        <path d="M31.85,11.9L31.7,11.9M31.85,11.9L31.9,11.85" style="fill:none;fill-rule:nonzero;stroke:#332;stroke-opacity:0.59;stroke-width:0.05px;"/>
                        <path d="M41.1,2.15L40.8,1.7L39.9,0.25C40.133,0.817 40.25,1.45 40.25,2.15L40.25,2.8L40.15,3.05L39.4,5.2L39.35,5.25L38.9,5.9L38.75,6.1C37.783,7.167 36.417,8.167 34.65,9.1L31.7,10.3L30.7,10.65" style="fill:none;fill-rule:nonzero;stroke:#332;stroke-opacity:0.59;stroke-width:0.05px;stroke-linecap:round;"/>
                    </g>
                </g>
                <g id="sprite4" transform="matrix(1,0,0,1,-14.75,-40.9)">
                    <g id="shape3">
                        <path d="M14.5,11.75C12,11.75 9.867,11.317 8.1,10.45C6.367,9.583 5.5,8.517 5.5,7.25C5.5,6.017 6.367,4.967 8.1,4.1C9.867,3.2 12,2.75 14.5,2.75C17,2.75 19.117,3.2 20.85,4.1C22.617,4.967 23.5,6.017 23.5,7.25C23.5,8.517 22.617,9.583 20.85,10.45C19.117,11.317 17,11.75 14.5,11.75" style="fill:#423f24;"/>
                    </g>
                    <g id="sprite5" transform="matrix(0.7472,0,0,0.7472,13.9502,8.9501)">
                        <g id="shape4">
                            <path d="M0.3,-8.5L-0.15,-8.5C-2.983,-8.5 -5.4,-8 -7.4,-7L-7.9,-6.75C-8.933,-6.183 -9.633,-5.533 -10,-4.8L-10.15,-4.9L-16.8,-6.8C-16.1,-7.533 -15.183,-8.2 -14.05,-8.8L-13.15,-9.3C-11.617,-10.1 -9.917,-10.717 -8.05,-11.15L0.3,-8.5M0.2,-4.95L0.2,-4.9L-0.15,-4.9L0.2,-4.95M9.15,-1.25L8.9,-0.55L8.5,-0.7L9.15,-1.25M15.95,1.9L16.2,1.95L15.95,2.15L15.95,1.9M18.65,-2.35L18.55,-2.35L18.65,-2.7L18.65,-2.35M-18.2,-0.65L-18.6,-0.65L-18.6,-2.3L-18.2,-0.65" style="fill:#d5be8a;"/>
                            <path d="M0.05,-8.5L0.3,-8.5C2.933,-8.467 5.183,-7.967 7.05,-7L9,-5.7L8.8,-2.7L8.6,-2.45L7.05,-3.45L5.65,-4.05C4.05,-4.617 2.233,-4.9 0.2,-4.9L0.2,-4.95L0.05,-8.5" style="fill:#ae9658;"/>
                            <path d="M0.3,-8.5L-8.05,-11.15C-5.617,-11.75 -2.917,-12.033 0.05,-12C5.183,-12 9.567,-11.1 13.2,-9.3C16.833,-7.467 18.65,-5.267 18.65,-2.7L18.55,-2.35L9.2,-5.5L9,-5.7L7.05,-7C5.183,-7.967 2.933,-8.467 0.3,-8.5" style="fill:#c5ad6e;"/>
                            <path d="M8.6,-2.45L8.8,-2.7L9,-5.7L9.2,-5.5C9.767,-4.867 10.05,-4.167 10.05,-3.4C10.05,-2.767 9.85,-2.167 9.45,-1.6L8.6,-2.45" style="fill:#c8b177;"/>
                            <path d="M9.45,-1.6C9.85,-2.167 10.05,-2.767 10.05,-3.4C10.05,-4.167 9.767,-4.867 9.2,-5.5L18.55,-2.35L18.65,-2.35L18.65,-2.25C18.55,-1.017 18,0.133 17,1.2L16.2,1.95L15.95,1.9L8.9,-0.55L9.15,-1.25L9.45,-1.6" style="fill:#d6be89;"/>
                            <path d="M2.75,6.35L2.75,6.55L0.05,6.6C-5.117,6.6 -9.517,5.7 -13.15,3.9L-14.05,3.4L-17,1.2L-18.2,-0.65L2.75,6.35" style="fill:#cbbb7d;"/>
                            <path d="M-16.8,-6.8L-10.15,-4.9L-10,-4.8C-10.267,-4.367 -10.4,-3.9 -10.4,-3.4C-10.4,-2.767 -10.183,-2.167 -9.75,-1.6L-9.5,-1.25C-9.1,-0.817 -8.567,-0.417 -7.9,-0.05L-7.4,0.2L-6.65,0.55C-4.817,1.317 -2.65,1.7 -0.15,1.7L0.55,1.7C3.05,1.6 5.217,1.1 7.05,0.2L8.5,-0.7L8.9,-0.55L15.95,1.9L15.95,2.15L13.2,3.9C10.233,5.367 6.75,6.25 2.75,6.55L2.75,6.35L-18.2,-0.65L-18.6,-2.3L-18.6,-2.8C-18.6,-4.267 -18,-5.6 -16.8,-6.8" style="fill:#c8af71;"/>
                            <path d="M-10,-4.8C-9.633,-5.533 -8.933,-6.183 -7.9,-6.75L-7.4,-7C-5.4,-8 -2.983,-8.5 -0.15,-8.5L0.05,-8.5L0.2,-4.95L-0.15,-4.9L-1.4,-4.9C-3.7,-4.767 -5.7,-4.283 -7.4,-3.45L-7.9,-3.15C-8.733,-2.683 -9.35,-2.167 -9.75,-1.6C-10.183,-2.167 -10.4,-2.767 -10.4,-3.4C-10.4,-3.9 -10.267,-4.367 -10,-4.8M15.95,7.6C15.883,7.6 15.833,7.633 15.8,7.7L13.2,9.3C10.2,10.767 6.717,11.65 2.75,11.95L2.75,6.55C6.75,6.25 10.233,5.367 13.2,3.9L15.95,2.15L15.95,7.6" style="fill:#9e824f;"/>
                            <path d="M2.75,11.95L2.7,11.95L0.05,12.05C-5.117,12.017 -9.517,11.1 -13.15,9.3L-14.05,8.8C-16.85,7.233 -18.367,5.4 -18.6,3.3L-18.6,-0.65L-18.2,-0.65L-17,1.2L-14.05,3.4L-13.15,3.9C-9.517,5.7 -5.117,6.6 0.05,6.6L2.75,6.55L2.75,11.95" style="fill:#a89458;"/>
                            <path d="M16.2,1.95L17,1.2C18,0.133 18.55,-1.017 18.65,-2.25L18.65,2.9C18.583,4.633 17.683,6.2 15.95,7.6L15.95,2.15L16.2,1.95" style="fill:#b79e62;"/>
                            <path d="M0.05,-8.5L0.3,-8.5M-0.15,-8.5L0.05,-8.5L0.2,-4.95L0.2,-4.9L-1.4,-4.9M9.45,-1.6L9.15,-1.25M8.6,-2.45L9.45,-1.6M-18.6,3.3L-18.6,4.55M-18.6,-2.7L-18.6,-2.45" style="fill:none;fill-rule:nonzero;stroke:#8f804c;stroke-opacity:0.3;stroke-width:1px;"/>
                            <path d="M9.2,-5.5C9.767,-4.867 10.05,-4.167 10.05,-3.4C10.05,-2.767 9.85,-2.167 9.45,-1.6" style="fill:none;fill-rule:nonzero;stroke:#8f804c;stroke-opacity:0.65;stroke-width:1px;"/>
                            <path d="M-10,-4.8C-9.633,-5.533 -8.933,-6.183 -7.9,-6.75L-7.4,-7C-5.4,-8 -2.983,-8.5 -0.15,-8.5M0.2,-4.9C2.233,-4.9 4.05,-4.617 5.65,-4.05L7.05,-3.45L8.6,-2.45M9,-5.7L7.05,-7C5.183,-7.967 2.933,-8.467 0.3,-8.5M9.15,-1.25L8.5,-0.7L7.05,0.2C5.217,1.1 3.05,1.6 0.55,1.7L-0.15,1.7C-2.65,1.7 -4.817,1.317 -6.65,0.55L-7.4,0.2L-7.9,-0.05C-8.567,-0.417 -9.1,-0.817 -9.5,-1.25L-9.75,-1.6C-10.183,-2.167 -10.4,-2.767 -10.4,-3.4C-10.4,-3.9 -10.267,-4.367 -10,-4.8M-9.75,-1.6C-9.35,-2.167 -8.733,-2.683 -7.9,-3.15L-7.4,-3.45C-5.7,-4.283 -3.7,-4.767 -1.4,-4.9" style="fill:none;fill-rule:nonzero;stroke:#7e6c40;stroke-opacity:0.8;stroke-width:1px;"/>
                            <path d="M-18.6,-2.3L-18.6,-0.65" style="fill:none;fill-rule:nonzero;stroke:#705d35;stroke-opacity:0.7;stroke-width:1px;"/>
                            <path d="M-8.05,-11.15C-9.917,-10.717 -11.617,-10.1 -13.15,-9.3L-14.05,-8.8C-15.183,-8.2 -16.1,-7.533 -16.8,-6.8C-18,-5.6 -18.6,-4.267 -18.6,-2.8L-18.6,-2.7M-8.05,-11.15C-5.617,-11.75 -2.917,-12.033 0.05,-12C5.183,-12 9.567,-11.1 13.2,-9.3C16.833,-7.467 18.65,-5.267 18.65,-2.7M-18.6,-0.65L-18.6,3.3M18.65,-2.25L18.65,2.9" style="fill:none;fill-rule:nonzero;stroke:#705d35;stroke-opacity:0.92;stroke-width:1px;"/>
                            <path d="M15.95,7.6C15.883,7.6 15.833,7.633 15.8,7.7L13.2,9.3C10.2,10.767 6.717,11.65 2.75,11.95M2.7,11.95L0.05,12.05C-5.117,12.017 -9.517,11.1 -13.15,9.3L-14.05,8.8C-16.85,7.233 -18.367,5.4 -18.6,3.3M18.65,2.9C18.583,4.633 17.683,6.2 15.95,7.6" style="fill:none;fill-rule:nonzero;stroke:#705d35;stroke-opacity:0.92;stroke-width:1px;"/>
                            <path d="M0.3,-8.5L-8.05,-11.15M-16.8,-6.8L-10.15,-4.9M8.8,-2.7L9,-5.7L9.2,-5.5L18.55,-2.35L18.65,-2.35L18.65,-2.25C18.55,-1.017 18,0.133 17,1.2L16.2,1.95L15.95,1.9L15.95,2.15L16.2,1.95M8.9,-0.55L15.95,1.9M8.5,-0.7L8.9,-0.55M18.65,-2.7L18.65,-2.35M2.75,11.95L2.7,11.95M15.95,7.6L15.95,2.15L13.2,3.9C10.233,5.367 6.75,6.25 2.75,6.55L2.75,11.95M2.75,6.55L0.05,6.6C-5.117,6.6 -9.517,5.7 -13.15,3.9L-14.05,3.4L-17,1.2L-18.2,-0.65L2.75,6.35M-17.2,-6.9L-16.8,-6.8" style="fill:none;fill-rule:nonzero;stroke:#8f804c;stroke-opacity:0.43;stroke-width:1px;"/>
                            <path d="M-18.6,-2.45L-18.6,-2.3L-18.2,-0.65" style="fill:none;fill-rule:nonzero;stroke:#705d35;stroke-opacity:0.92;stroke-width:1px;stroke-linecap:round;"/>
                        </g>
                    </g>
                </g>
            </g>
        </g>
    </g>
    <defs>
        <radialGradient id="_Radial1" cx="0" cy="0" r="1" gradientUnits="userSpaceOnUse" gradientTransform="matrix(36.0448,0,0,36.0448,0,0)"><stop offset="0" style="stop-color:#52493f;stop-opacity:1"/><stop offset="0.58" style="stop-color:#52493f;stop-opacity:1"/><stop offset="0.96" style="stop-color:#747864;stop-opacity:0"/><stop offset="1" style="stop-color:#747864;stop-opacity:0"/></radialGradient>
        <linearGradient id="_Linear2" x1="0" y1="0" x2="1" y2="0" gradientUnits="userSpaceOnUse" gradientTransform="matrix(41.1238,25.0675,-25.0675,41.1238,12.3138,9.78804)"><stop offset="0" style="stop-color:#dddcd5;stop-opacity:1"/><stop offset="1" style="stop-color:#999;stop-opacity:1"/><stop offset="1" style="stop-color:#d9d9d9;stop-opacity:1"/></linearGradient>
        <radialGradient id="_Radial3" cx="0" cy="0" r="1" gradientUnits="userSpaceOnUse" gradientTransform="matrix(23.593,0,0,23.593,11.45,20.8)"><stop offset="0" style="stop-color:#efeae0;stop-opacity:1"/><stop offset="0.3" style="stop-color:#efeae0;stop-opacity:1"/><stop offset="0.99" style="stop-color:#b9ae9a;stop-opacity:1"/><stop offset="1" style="stop-color:#b9ae9a;stop-opacity:1"/></radialGradient>
    </defs>
</svg>
