<svg width="327" height="480" xmlns="http://www.w3.org/2000/svg" xmlns:xlink="http://www.w3.org/1999/xlink">
 <defs>
  <g transform="matrix(1,0,0,1,192.55,294) " id="shape0">
   <path id="svg_1" stroke-opacity="0" stroke-linejoin="round" stroke-linecap="round" stroke="#ff00ff" fill="none" d="m187.95,-293.5l0,380l-379.95,0l-0.05,0l0,-380l380,0m-95,294.1l-189.95,0"/>
   <path id="svg_2" stroke-opacity="0" stroke-linejoin="round" stroke-linecap="round" stroke="#ff00ff" fill="none" d="m187.95,-293.5l-190,190l190,190m-380,-380l190,190l-189.95,190"/>
   <path id="svg_3" fill-rule="evenodd" fill="#632121" d="m77.35,-133.65l0.05,0.1l0,1l-0.1,0l0.05,-1.1m-0.8,1.1l1.05,0.55q2.3,1.5 4.4,5.45q1.5,2.95 2.05,6.45q0.9,6.15 -1.4,13.95q-3.6,12.25 -4.25,20.6l-0.75,8.1l0.1,-0.8l-14.95,0.65l-0.3,0l0.3,0l-0.1,0l-0.2,0l-2.8,-0.5q-0.75,-0.2 6.25,-1.45l-7.7,0.3q-4.35,1 -8.05,-0.05q1.8,0.7 2.45,1.2l0.15,0.15l-4.1,-0.15l-0.4,0l-0.95,-0.15l0.95,0.15l-0.45,-0.1l-0.5,-0.05l-2.05,-0.35l-6.35,-0.9q-3.2,-0.45 0,0.25l25.2,6.5l0.15,0.15q0.65,0.55 3.9,-0.45l3.75,-0.35l1.3,0.85l-6.65,9.85l-5.25,1.1l-2.55,4.1l-1.45,2.3l-2.15,-0.15l-0.25,-0.35l-0.15,-0.75q0.05,-0.55 -0.3,-1l-0.5,-0.65q-3.45,-0.85 -6.5,-2.5l1.15,-1.1q1.5,-1.85 -0.05,-3.6l-4.3,0.25l-42.8,-9.95l0,-0.05q27.1,-3.2 -3.5,-1.75q7.05,-1.45 6.8,-2.45q14.55,-2.25 13.15,-2.45l-3.85,0.2l12.35,-1.5l24.5,-10.55l0.45,-6.2l0.7,0.05l0.65,0l5.55,-13q2.65,-6.05 11.05,-7.9l-0.05,-0.1q-0.95,-0.75 -2.05,-0.25l-1.55,-0.05q-0.1,-0.35 -0.05,-0.65l-0.05,-1.05l0,-0.3l1.15,-0.6l2.2,-1l0,0.85l6.85,-5.1l-3.85,1.2l0.4,-0.75l-0.15,-0.7l-0.35,-0.65l-0.3,-0.35l3.45,-2.35l1.55,-0.1m3.5,13.2l-2.65,2.65l-2.05,3.15l-1.15,7.95q5.6,-8.2 5.85,-13.75m-110.3,-52.95l-0.85,-1.05l0,-0.1l-0.1,-0.05l-0.05,-0.1l4.55,0.1l2.4,0l-2.4,2.2l-3.1,-0.25l-0.1,-0.15l-0.35,-0.6m-20.7,-3.7l-0.1,0.15l0,-0.05l0.1,-0.1m9.15,4.3q0.65,1.35 0.7,2.55l0,0.15q-0.05,0.85 -0.35,1.65l-0.45,0.7l-1.55,2.3l-0.75,0q-0.85,-0.65 -1.5,-2.3q-0.35,-0.85 0.65,-2.15l0.65,-0.75l2.6,-2.15m27.65,96.2l0.6,-0.15l0.1,0.7l0.3,1.4l0,0.05l-0.25,-0.4l-0.75,-1.6m65.8,-29.25l0.05,-2.95q1.25,0.3 2.05,0.75q-0.5,1.05 -1.8,1.95l-0.3,0.25m-1.5,-14.3l-0.05,-0.2l0.9,-0.4l-0.85,0.6m11.75,-16.6l-0.05,-0.1l0.4,0.05l-0.35,0.05m-2.8,4.05l3.6,-0.25l-2.95,0.75l-0.65,-0.5m-117.85,-61.85q0.35,-0.35 1.2,-0.7l1.85,-0.8q1.9,-0.8 6.55,-0.15q-6.05,0.35 -7.35,1.15q-0.65,0.45 -0.4,1.05q0.3,0.6 -0.2,1.85q-0.5,1.15 -2.35,0.5q-1.85,-0.7 -0.5,-1.9l0.9,-0.7l0.3,-0.3m-0.3,0.3l-0.45,1.45l1.35,-1.4l-1.35,1.4l0.45,-1.45m111.85,115.2l-4.1,-0.15l4.1,0.15m-7.45,-3.25l0,0.05q-0.25,0.1 1.9,0.8q-0.95,-0.35 -1.9,-0.85m7.8,17.25l5.65,6.45l-5.65,-6.45m-56.6,8.6l-0.15,-0.65l0.15,0.65m1.3,3.25l0.05,-0.05l-0.05,0.05"/>
   <path id="svg_4" fill-rule="evenodd" fill="#361212" d="m77.3,-133.95l0.05,0.3l-0.05,1.1l-0.75,0l-0.9,-0.65l-0.95,-0.8q-1.75,-1.65 -4.9,-5.25l-0.55,-0.6l-0.8,1.2l-0.2,0.25l-5.5,2.6l-0.5,0.1l0.5,-0.1l-0.45,0.1l-0.05,0l-0.4,-0.05l0.05,0.1l-4.2,0.45l-0.85,0.05l-0.55,0l-17,2.1l-0.85,-0.3l-2.7,-0.9l16.85,-5.65l0.65,0.2l1,-2.9l0.3,-1l0.5,-1.5l5.35,0.25l13.35,0.65l0.55,1.75l0.05,0l0.25,0.8l2.7,7.7m0.35,56.5l-0.2,1.4l-0.8,-1.6l-0.35,0.5l-0.85,1.3l-0.15,0.2l-2.05,3.1l-1.3,-0.85l-3.75,0.35l0.05,-0.05l3,-0.8l-2.6,0.05q-0.85,-0.7 -2.05,-0.7q-1.15,0 -2.05,0.7q-0.75,0.6 -0.4,1.1l-25.2,-6.5q-3.2,-0.7 0,-0.25l6.35,0.9l2.05,0.35l0.5,0.05l0.45,0.1l0.4,0l4.1,0.15l-0.15,-0.15q-0.65,-0.5 -2.45,-1.2q3.7,1.05 8.05,0.05l7.7,-0.3q-7,1.25 -6.25,1.45l2.8,0.5l-9.7,-0.35l9.7,0.35l0.2,0l0.1,0l14.95,-0.65l-0.1,0.8m-96.85,-140.9l0,-0.05l3.3,-2.5l0.4,0.55l0.5,0.4l-2.85,5.6l-0.1,0l0.05,0.1l-5.1,10.25l0.15,-0.55l1.4,-3.9l-1.3,3.4l-0.45,1.5l-1.2,2.4l-0.6,-0.45l-2.65,-1.7l-0.35,-0.85l-0.15,-0.35l-0.15,-0.4l-1.3,-3.05l6.8,-6.25q-1.6,1.4 1.9,-2.9l1.7,-1.25m-3.6,4.15l0.25,-0.25l-0.15,1.6l0.15,-1.6l-0.25,0.25m0.25,1.25l0,-0.05l0.1,-0.45l-0.1,0.5l-0.15,0.1l-0.3,1.45l0.05,0.05l0.4,-1.6m0.5,-0.35l-0.9,1.95l-0.5,1.9l-0.7,5.1l-0.15,0.9l0.2,-0.55l0.35,-0.85l0.2,-0.5l-0.05,0l2.4,-8.45q-0.1,-1 -0.85,0.5l-0.5,0.3l0.5,-0.3m-1.75,7.65l-0.15,0.55l0,0.05l0.05,-0.3l0.1,-0.3m-26,-6.9l10.65,11.9q-0.15,2.8 0.25,5.9q0.4,3.2 1.45,6.9l0.05,0.2l0.45,-0.45q0.45,-0.5 0.65,-1.35q0.2,-0.85 2.45,3.95q2.3,4.8 3.4,5.45l0.8,0.4l-1.6,2.05l-0.35,0.9l-0.25,0.95q-0.1,0.95 0.4,1.8l0.2,0.3l0,0.05l0.05,0.1l0.1,0.05l0,0.1l0.85,1.05l0.35,0.6l0.1,0.15l3.1,0.25l-2.25,1.2l-6.85,1l-4.2,2.65q-1.75,1.1 -3.45,2.1l1.55,-2.3l0.45,-0.7q0.3,-0.8 0.35,-1.65l0.1,-0.1l-0.1,-0.05q-0.05,-1.2 -0.7,-2.55l0,-0.1l-0.1,-0.2l-0.7,-1l-0.3,-0.35l-0.2,-0.15l-0.45,-0.35q-0.7,-0.5 -1.65,-0.85l-0.35,-0.1l-0.4,-0.15l-0.2,-0.05l-0.8,0l0,0.05l-2,0.15l-0.6,0.05l-0.1,0.05l0.1,-0.05l0.6,-0.05l0,0.05l-0.35,0.05l-0.35,0l-0.35,0l-1.7,0.15l0.65,-1.3l0.1,-0.15l1.9,-1.25l0.7,-0.45l2.45,-1.55l0.25,-1.4l0.1,-0.5l-1.6,-4.45l-1.75,-4.8l-0.35,-0.95l-3.6,-1.05l-7.2,5.5l3.15,3.3l-2.95,-0.15l-1.15,0.2l-0.1,-0.05l-0.05,0.05l-0.65,0.1l0.65,-0.1l-0.8,1.6q-0.2,1.55 0.3,3.6q0.5,2.05 1.8,4.55l0,0.1l0.1,0.2l0.55,1l-0.25,0.8l-0.05,0l0,0.15l0,0.85q0,1 0.8,1.7q2.3,-2.95 6.35,-2.2l0,0.05l0,0.05q0,1 -0.25,1.4l-2.2,3l2.25,2.8l-0.7,0.35l-0.4,0.3q-1.6,1.05 -2.85,2.8l-0.05,0l-0.65,1l-0.6,1.05l-0.05,0.1l-0.8,1.65l-2.35,-1.55l-1.3,-0.8l-2.55,-0.75l-3.5,-0.6q-2.05,-0.55 -3.35,-1.7l-1.35,-1.5l-1.75,-2.65l0.25,-0.3l1.7,1.65q2.5,2.55 5.05,3.2q2.45,0.7 4.7,0.55l6.25,-0.6q-8.55,0.35 -9.5,-0.85l-2.9,-3.65q-2.1,-2.4 -2.8,-6.35l0.45,-0.6l0.15,-0.35l0.3,-0.8l0.35,-0.35q3.25,-2.9 5.9,-5.95q0.1,-0.55 -0.3,-1l-0.45,-0.65l-0.6,-0.3l-2.2,-0.05l-0.25,0l0.65,-0.65l0.3,-0.25l2.15,-0.7l3.05,0.05q-0.15,-3.1 -1.3,-6.15l-1,-2.35l-0.9,-1.15l0,-0.05l-0.2,-0.3l-0.6,-0.8l-1.25,-2.75l-0.15,-0.3l0,-0.05l-0.45,-1.5l-0.25,-1.8l0,-2.15l3.5,-3.65l1.3,0.65l1.3,0.85l-1.3,-0.85l1.25,-1.8q0.15,0.05 0.1,-0.2l0.35,-0.6l0.45,0.05l0,-0.4l2.6,-0.7l0,-0.55l6.05,-0.05l3.25,-1.8m4.9,9.55l-1.45,1.25l1.45,-1.25m-6.15,-3.4l-1.15,-2.55l-0.85,-1.8l0.85,1.8l1.15,2.55m7.8,16.45q0.85,3.6 1.15,5.9q0.3,2.25 -1.05,4q-1.4,1.7 -3.75,3.15l-2.1,1.8l8.95,-6.1q-0.45,-4.8 -1.8,-8.1q-1.4,-3.35 -4.85,-8.15q2.5,3.85 3.45,7.5m28.3,18.6l2.05,0.4l0.05,0.05q4.3,4.6 2.75,8.35q-1.45,3.5 -2.15,3.7l-0.1,0l-0.45,0.05l-1.2,2.25l-0.85,0.95l0.85,-0.85q-2.95,4.6 -9.6,9.05l-0.85,-1.5l-0.15,0.45q-1.25,3.05 -5.85,7.95l0.25,0.6q-1.7,0.85 -3.15,0.9q-3.85,-2.1 -7.3,-4.6q-3.6,-2.3 -7.15,-6.3l-0.2,-2.15q-0.05,-1.55 0.7,-3.25q0.8,-1.8 2.75,-3.3q1.1,1.05 1.45,0.85l0.15,-0.15l0.15,0.1l-0.15,-1.2l-0.6,-1.2l5.65,-0.65l4.45,-1.1l0.2,-0.15l0.05,-0.05l5.2,-4.3l0.05,-0.05l6.05,-4.95l1.4,1.75q0.25,-0.05 0.5,-0.2l0.2,0.2l0,0.05l-0.75,0.85l0.95,0.65l-1.4,1.9l-1.65,2.7l-1.6,3.05l-0.7,1.5l-0.1,0.25l-1.55,1.45l-0.15,0.15l-0.6,0.45l-0.1,0.1l-0.1,0.05l-1.6,1.4l-0.65,0.65l-2.5,1.95l-0.2,-0.05l0.25,0.9q0.7,1.15 1.8,0.65l0.7,-0.35l0.1,0.05l-0.05,-0.05q6.1,-2.9 10.5,-7.6q3.9,-4.2 6.5,-9.9q0.1,-0.6 -0.3,-1l-0.5,-0.7l-0.55,-0.3l-0.9,-0.25l0,-0.2m-12.4,21.55l-2.3,-1.55l2.3,1.55m19.5,-9.1l-0.4,2.95l-0.45,2.2l-2.5,8.35l-0.35,0.7l-2.15,2.9l-0.6,0.55l-5.75,4.9l-0.45,0.3l-3.8,3.05l0,1.55l-2.45,3.45l-0.85,-0.55l-0.55,-0.35l0,2.8l-0.65,0.5l-0.25,0.2l-2.7,1.8l-2.75,1.05q-2.1,0.75 -3.55,0.95l-0.1,0l-0.7,0.1l-5.95,0.45q3.7,-0.75 4.3,-1.05l2.75,-1l-2.3,0.35l-3.3,0.75q7.4,-3 7.35,-3.6q-0.6,-4 1.95,-7.2l-2.4,-0.95l-1.3,0.1l-0.3,0.4l-0.6,-0.25l-1.7,-0.9q-2.1,-1.05 -4.25,-1.9l-0.75,0.2l-0.95,1.2l-1.05,0.8q-2.5,-0.2 -4.05,-1.7l0.35,-1l0.75,-3.85l0.4,-0.35l0.25,-0.15l0.35,-0.35l-0.7,-3.7q0.6,-0.3 1.25,-0.75l0.8,-0.55l0.35,-0.35l4.95,4.7l2,1.45l0.25,0.2l3.1,2.15l1.5,1.1l0.15,0.15q1.5,1 2.15,1.05q0.95,0.15 2.45,-0.5l0.3,-0.1l1.4,-0.7l0.85,-0.55l0.3,-0.3l1.2,-1.6l2.05,-2.85q0.95,-1.45 2.1,-2.55q2.1,-2.2 4.7,-3.2l6.75,-4.95l1.5,-2.9l0.1,-0.2l0.3,-0.5l0,-0.05l1,-2l0.65,0.1m-18.85,26.2l-1.45,2l0,1.8l0,-1.8l1.45,-2m-4.6,-47.3l0.85,-0.05l-0.85,0.05m-7.45,-0.25l-0.55,0.45l-0.2,0.2q-1.05,1.05 -3.3,2.4q-1.45,0.85 -3.35,1.8l-0.8,0.4l0.8,-0.4q1.9,-0.95 3.35,-1.8q2.25,-1.35 3.3,-2.4l0.2,-0.2l0.55,-0.45m8.95,8.7l0.85,1.45l-0.85,-1.45m8.3,3.9l-1.15,1.4l-3.45,2.7q-3.85,3.05 -5.85,4.55l-1.75,0.95l-1.7,0.5q-2.65,0.5 -6.6,0.15l-0.8,-0.4l0.8,0.4q3.95,0.35 6.6,-0.15l1.7,-0.5l1.75,-0.95q2,-1.5 5.85,-4.55l3.45,-2.7l1.15,-1.4m-11,15.05l-4.05,-1.8l-5.45,-3l5.45,3l4.05,1.8m9.85,-13.65l-1.45,1.65l1.45,-1.65m-8.6,23.45l0.15,-0.7q-0.5,-0.4 -4.8,-1q-3.3,-0.5 -7.15,-6l-0.05,0.55q2.9,8.9 11.4,8.15q0.35,-0.45 0.45,-1m3.4,4.8l-0.05,0l0.05,0m14.3,62.35q5.1,-1.2 7.25,-2.55l0.4,-0.25l6.5,-1.5l13.5,-1.55l3.85,-0.2q1.4,0.2 -13.15,2.45q0.25,1 -6.8,2.45q30.6,-1.45 3.5,1.75l0,0.05l42.8,9.95l4.3,-0.25q1.55,1.75 0.05,3.6l-1.15,1.1q3.05,1.65 6.5,2.5l0.5,0.65q0.35,0.45 0.3,1l0.15,0.75l0.25,0.35l-13.15,-1.2l0.65,-2.8l0.8,-3.8l0.15,-0.8l-0.15,0.8q-8.9,3.25 -13,5.9l-3.55,1.9l-2.55,1.15l-0.7,0.25l-0.7,0.25q-7.75,2.9 -15.65,6.65l-0.25,0.15l-4.9,2.35l-3.55,-6.05l-0.8,-1.5l-1.3,-3.25l-0.15,-0.65l-0.4,-1.25l-0.05,-0.15q-1.2,-4.3 -2.65,-6.55l-5.45,-7.95l-1,-1.6l0,-0.05l-0.3,-1.4l-0.1,-0.7m64.95,-24.1l0.25,-5l0.3,-0.25q1.3,-0.9 1.8,-1.95q-0.8,-0.45 -2.05,-0.75q0.1,-5.5 -0.5,-8.45q-0.25,-1.3 -1.05,-2.9l0.85,-0.6l-0.9,0.4q-2.2,-4.55 -8.25,-11.8l-0.05,-0.3l0.8,-0.1l0.1,-0.45l3.9,1l12.5,-0.7l0.65,0.5l2.95,-0.75l12.5,-0.9l-2.4,0.4l2.2,-0.1l-3.45,2.35l0.3,0.35l0.35,0.65l0.15,0.7l-0.4,0.75l-0.15,0l-2.85,0.9l0,2.15l-2.2,1l-1.15,0.6l0,0.3l0.05,1.05q-0.05,0.3 0.05,0.65l1.55,0.05q1.1,-0.5 2.05,0.25l0.05,0.1q-8.4,1.85 -11.05,7.9l-5.55,13l-0.65,0l-0.7,-0.05m2.85,-42.85l0.3,-1l-0.3,1m20.35,0.95l-0.3,-0.8l0.3,0.8m-128.85,-67.8l-0.7,-0.9l0.7,0.9m-7.7,13.6l-0.65,0.15q-1.8,-0.3 -3.95,0.75q2.15,-1.05 3.95,-0.75l0.65,-0.15m-1.65,3.2l0.7,-1.65l-0.7,1.65m4.85,-0.8l-0.3,0.1l0,0.2l0,-0.2l0.3,-0.1l-0.3,0.3l-0.9,0.7q-1.35,1.2 0.5,1.9q1.85,0.65 2.35,-0.5q0.5,-1.25 0.2,-1.85q-0.25,-0.6 0.4,-1.05q1.3,-0.8 7.35,-1.15q-4.65,-0.65 -6.55,0.15l-1.85,0.8q-0.85,0.35 -1.2,0.7m4.6,-4.1l1.8,-3.75l3.3,-2.15l1.25,0.4l-1.25,-0.4l-3.3,2.15l-1.8,3.75m6.2,-3.6l-0.35,0.2l-3.4,2.95l3.4,-2.95l0.35,-0.2m0.5,-5.65l-4.25,4.2l4.25,-4.2m-13.05,13.9l-1.35,0.95l1.35,-0.95m7.45,-3.9l0.85,-0.75l-0.85,0.75m-10.2,5.9l1.1,-0.8l-1.1,0.8m0.5,-3.9l1.85,0.5l-1.85,-0.5m7.75,-4.2l2.3,-2.45l-2.3,2.45m0.25,-2.05l-0.65,1.25l0.65,-1.25m-7.05,-6.85l0.1,-1.15l-0.1,1.15m-0.75,23.75q0.35,-0.05 1.45,0.55q-1.1,-0.6 -1.45,-0.55m-5.5,0.9l-0.4,0.65l0.4,-0.65m12.9,16.1l0.35,0.45l-0.35,-0.45m-4.35,34.6l0,0.35l0.2,0.95l-0.95,1.35l-0.25,0.95l-0.4,1.1q-0.35,0.45 -0.3,1l0.05,0.15l0.1,0.45l0.05,0.15l0.05,0.2l0.05,0.1l0.1,0.2l0.2,0.75l0.25,1.15l0,0.15q-1.55,-1.15 -2.85,-0.7l-0.95,0.55l-1.4,1.3l-0.05,0l0,0.05l0,0.05l-0.15,0.1l0.45,0.25q0.5,0.65 1.5,0.8l-0.05,0.15q-2.85,-0.9 -4.7,2.9l-0.1,-4.2l-0.15,-0.5l-0.6,-2.8l-0.05,-0.5q0,-0.55 0.8,-1.5l0.75,-0.8l1.85,-0.9l0.15,1.05l0.05,0.6l0,-0.35l2.55,-3.45l3.05,-0.75l0.75,-0.35m-6.1,10l0,0.15l0,-0.15q0.4,-0.95 0.05,-1.3l-0.05,1.3m0.05,-3.05l-0.05,-0.45l0,-0.05l-0.25,-1.55l0.25,1.55l0,0.05l0.05,0.45m141.85,48.45l-13.5,-0.45l13.5,0.45m-30.95,-4.05q0.95,0.5 1.9,0.85q-2.15,-0.7 -1.9,-0.8l0,-0.05m-44.75,1.25q0.1,0.3 0.35,0.5q-0.25,-0.2 -0.35,-0.5m-2.75,27.85l0.05,-0.05l-0.05,0.05"/>
   <path id="svg_5" fill-rule="evenodd" fill="#c12c06" d="m57.35,-55.2q-3.55,0 -14.65,1.85l-1,0.75l-0.1,-0.55l1.1,-0.2l0.85,-0.65l0.3,-0.3l-0.3,0.3l-0.85,0.65l-1.1,0.2l0.6,-1.9q-2.25,2.65 -3.25,3.1l0.2,-1.45l-1.85,2.1q-2.75,1.05 -5.65,1.7q-12,2.6 -24.3,2.55q7.9,-3.75 15.65,-6.65l-0.1,0.6q0,0.7 0.3,1.3q1.05,1.8 3.05,1.15q9.4,-3 16.45,-8.7l-0.65,2.8l13.15,1.2l2.15,0.15m-56,36l0.4,-0.05l0.05,0.3l-0.45,-0.25m72.05,-24.6l0.95,-2.1l1.4,-0.45l3.2,-0.3q4.6,0.4 5.35,5.9q-1.45,-2.75 -4.6,-3.15q-3.7,-0.55 -6.3,0.1m-72.45,-110.95q0.65,1.25 1.5,2.25l0.1,0.15l0.15,0.15l2.4,2.1q0.2,0.15 0.45,0.25l3,1.55l22.6,-6.35q-15.25,9.1 -14.55,12.9l-0.4,0.05q-1.85,-0.15 -8.85,-2.55q8.55,7.3 8.05,9.05q-0.3,1.05 0.8,2l1.4,0.9l-1.4,-0.55l-0.1,-0.05q-1.5,-1.6 -3.6,-2.25q-3.2,-2.9 -2.75,-2.85q-4.05,-2.9 -4.2,-3.15q-2.85,-5.2 -7.95,-10.85l1.85,0.2l0.55,-0.7l1.1,-1.55l1.35,1.55l-1.35,-1.55l0.1,-0.2l-0.25,-0.5m-16.45,-22l-0.4,-0.1l0.75,-0.2l-0.35,0.3m-19.7,10.75q4.3,-2.15 8.65,-3.65l-2.9,1.95l-2.45,1.85q-0.2,0.35 0.35,0.65q-1.3,2.4 -7.85,3.1q-6.6,0.65 -3.35,-0.55q3.25,-1.25 7.55,-3.35m5.65,-3.15l0.1,-0.05l0.05,0.05l-0.15,0m71.15,37.85l-1.5,0.2l-0.45,-1.8l-0.2,-0.15l1.05,0.4l1.1,1.35m-7.75,-11.8l-0.05,0.05l-0.05,-0.05l0.1,0"/>
   <path id="svg_6" fill-rule="evenodd" fill="#fa6230" d="m58.45,-38l2.1,-0.55q9.15,-3.5 9.95,-4q1.25,-0.9 2.9,-1.25l-0.6,1.25q-0.3,1.5 -1.95,3.6q-2,2.5 -4.15,3.1q-3.05,0.7 -8.25,-2.15m-48.35,-155l0.1,0q1.15,-0.95 -7.75,-0.65l-2.3,0.05l-2.3,0.1l2.3,-0.65l2.3,-0.6l13.75,-3.65l7.2,-2.1l0.65,-1.05l0.1,-0.2l-0.45,0l3,0.1l2.2,0.35q0.7,0.2 1.25,0.6q0.9,0.65 -1.25,0.95l-1.55,0.15q-4,0.25 -10.15,3.4l-1,0.35q-2.75,0.95 -6.1,2.85m-1.2,0.7l-0.2,0.05l0.4,-0.15l0.05,-0.05l-0.25,0.15m-40.15,18.7l0,-0.05l-0.2,-0.3l0.2,0.35m-30.45,102.15l0.45,2.55l-2.4,2.05l-5.2,-0.2l7.15,-4.4m-6.95,5.7q13.35,19.95 33.5,32.7q7.6,4.5 18.55,9.25l-1.65,-0.25q-6.05,-0.85 32.2,11.05l-0.05,0l-0.95,0.25l-1.5,0.4l-0.05,0l-7.45,1.7l-0.75,0.15l-9,0.7q-9.9,-3.35 -20.2,-5.6q-10.05,-5.1 -19.6,-11.45l-0.75,-0.95q-8,-8.05 -14.3,-17.1l-0.8,-0.4l-0.45,-0.15l-2.95,-13.15q-0.4,-1.65 -2.15,-3.3l-1.65,-1.35l0,-2.5m82.85,52.65l0.1,-0.6q0.1,-0.55 -0.3,-1.05l-0.4,-0.45l6.7,0.45l-5.85,1.6l-0.25,0.05m-60.85,-5.75l1.1,-0.6l0.5,-0.05q4.55,3.85 10.1,6.05l1.9,0.75l0.5,0.1q-3.35,-0.85 -6.3,-1.95l-1.1,-0.45q-3.45,-1.45 -6.7,-3.85"/>
   <path id="svg_7" fill-rule="evenodd" fill="#8e1b04" d="m1.75,-19.25q6.05,-0.8 22.15,-6.9q10,-3.85 19.1,-7.75l13.8,-3.65q-7.1,9.8 -12.3,15q-3.45,3.45 -11.75,5.55l-10.4,1.8l-2.05,0.45l-6.7,-0.45l-0.25,-0.05l-10.55,-3.2l-1,-0.5l-0.05,-0.3m21.95,-182.5l0.45,0l-0.1,0.2l-0.65,1.05l-7.2,2.1l-13.75,3.65l-2.3,0.6l-2.3,0.65l2.3,-0.1l2.3,-0.05q8.9,-0.3 7.75,0.65l-0.1,0l-0.95,0.55l-0.05,0.05l-0.4,0.15l0.2,-0.05l-0.45,0.3l-0.75,0.45l-1.65,1.05l-0.05,0.05l-3.55,2.5l-2.3,1.8l-2.45,2.2l-0.85,0.75q-4.2,3.65 -9.25,5.15l-2.75,1l-0.75,0.2l0.4,0.1q2.15,0.8 4.95,3.25q0.6,0.5 2.1,7.65q-0.7,-2.3 -1.85,-3.25q-1.1,-1 -2.55,-1.8l-0.05,-0.05l-2.05,-0.4l-0.65,0.05l-2,0.5l-1.85,0.7l-0.55,0.2q-0.25,0.15 -0.5,0.2l-1.4,-1.75l-6.05,4.95l-0.05,0.05l-5.2,4.3l-0.05,0.05l-0.2,0.15l-4.45,1.1l-5.65,0.65l-0.35,-0.4l-0.6,-0.45l-0.1,-0.1l-0.5,-0.15l-2.7,-1.7l-0.3,-0.15l-1.65,-1.1l0,-0.05l0.2,-3.1l0.5,-0.4l0,0.3l0.35,0.25q1.55,-0.5 3.1,-1.25l0.55,-0.3q-1,1.3 -0.65,2.15q0.65,1.65 1.5,2.3l0.75,0q1.7,-1 3.45,-2.1l4.2,-2.65l6.85,-1l0.05,0.4l-0.05,-0.4l2.25,-1.2l2.4,-2.2l-2.4,0l0.7,-0.6l1.05,-1.05l0.35,-0.45l-0.85,0l2.65,-0.05l-1.35,-1.25l-7.45,0.2l0.35,-0.9l1.6,-2.05l1.5,0.8l-1.5,-0.8l-0.05,-0.45l3.9,-0.35l0.05,0q1.5,0.65 2.95,0.8l1.55,-0.2l1.4,-0.15l-1.3,-0.65q-1.45,-0.65 -2.7,-1.65l-0.05,-0.25l2.7,-0.75l2.6,0.2l5.55,-0.15q0.55,-0.1 0.85,-0.5l1.45,-0.55l0.2,-0.1l0.3,0.05l-0.55,-0.1l-2.55,-2.7l3.4,-0.95q-3,-1.5 -4.65,-3.6q-0.8,-0.95 -1.25,-2.05l1.35,0.4l0.05,0l0.1,0.05l2.3,0.1q2.85,-0.05 6.1,-0.95l6.1,-1.95l2.3,-0.8l4.35,-1.45l9.4,-2.6l5.35,-0.85l2.15,0.05m-30.3,17.55l-3.65,-0.15l3.65,0.15m-13.9,3.05l-0.65,0.5l0.65,-0.5m4.6,4.3l-2,-0.2l-0.35,0.1q-0.8,0.1 -1.6,0.55l-1.4,0.6l-1.55,0.15l1.55,-0.15l1.4,-0.6q0.8,-0.45 1.6,-0.55l0.35,-0.1l2,0.2m-5.7,5.15l-0.3,0.25l0.3,-0.25m-23.9,0.7l0.05,0.05l-0.15,0.05l-0.25,0.2l0.35,-0.3m10.3,5q-4.3,2.1 -7.55,3.35q-3.25,1.2 3.35,0.55q6.55,-0.7 7.85,-3.1q-0.55,-0.3 -0.35,-0.65l2.45,-1.85l2.9,-1.95q-4.35,1.5 -8.65,3.65m5.65,-3.15l0.15,0l-0.05,-0.05l-0.1,0.05"/>
   <path id="svg_8" fill-rule="evenodd" fill="#e0e6e9" d="m-42.9,-228.45l2.4,-1.6l0,-0.05l0.25,-0.15l0.1,0.6l0,0.05l-0.8,0.7l-0.25,0.25l-0.6,0.45l-0.75,-0.1l-0.35,-0.15m32.15,44l0.15,0.05l0.05,0l-0.2,0.1l0,-0.15l-0.05,0l0.05,0m-57.05,-27.7l0.25,0.05l0.05,0.1l0.5,0.2l-0.8,-0.35"/>
   <path id="svg_9" fill-rule="evenodd" fill="#e9eeef" d="m-42.9,-228.45l-0.3,0.2l0.3,-0.2l0.35,0.15l0.75,0.1l0.6,-0.45l0.55,-0.4l0.65,0.15l6,-1.7l-2.85,1.85l0.05,0q3.1,0.3 5.95,1.4l3.65,1.45l1.6,0.8q2.3,1.55 2.85,2.95q0.55,1.35 -0.35,2.05q-0.4,0.4 -0.9,0.5q-2.3,-4.1 -7,-4.1l-8.45,0.05q-3.7,0.1 2.65,-2.95l-23.05,4.5l-0.3,0l-0.25,-0.15l-1.25,-1.15l-0.15,0.25l-0.4,-0.25l10.45,-2.2l-2.15,-1.2l3.95,-0.5q4.6,-0.05 6.5,-0.85l0.25,-0.1l0.25,-0.2l0.05,0m6.15,16.2l-1.15,0.1q-1.5,-0.15 1.15,-0.1m0.85,-1.05q-5.2,-3.65 -6.25,-4.15l9.5,-1.85l-3.65,3.4q0.5,1.95 0.4,2.6"/>
   <path id="svg_10" fill-rule="evenodd" fill="#c2ced3" d="m-15.85,-193.75q0.45,1.1 1.25,2.05q1.65,2.1 4.65,3.6l-3.4,0.95l2.55,2.7l0.05,0l0,0.15l-1.45,0.55l-0.85,0.5l-5.55,0.15l-2.6,-0.2l-2.7,0.75l-0.15,0.05l-1,-0.95l1,0.95l0.2,0.2q1.25,1 2.7,1.65l1.3,0.65l-1.4,0.15l-1.55,0.2q-1.45,-0.15 -2.95,-0.8l-0.05,0l-2.35,-1.3l-3.05,-2.45l3.05,2.45l2.35,1.3l-3.9,0.35l-0.75,0.05q-1.1,-0.65 -3.4,-5.45q-2.25,-4.8 -2.45,-3.95q-0.2,0.85 -0.65,1.35l-0.45,0.45l-0.05,-0.2q-1.05,-3.7 -1.45,-6.9q-0.4,-3.1 -0.25,-5.9l-10.65,-11.9l-3.25,1.8q-3.5,-6.85 -9.35,-11l-0.25,-0.05l-0.1,-0.1q0.25,0 0.35,0.15q-0.1,-0.15 -0.35,-0.15l-2.95,-1.75l3.9,0.5l0.15,-0.25l1.25,1.15l-0.05,0l-0.2,0.15l-0.05,0.05l0.15,-0.05l0.4,0l0.3,0l23.05,-4.5q-6.35,3.05 -2.65,2.95l8.45,-0.05q4.7,0 7,4.1q0.5,-0.1 0.9,-0.5q0.9,-0.7 0.35,-2.05q-0.55,-1.4 -2.85,-2.95q3.65,1.85 6.2,6.4l0.2,0.3l0,0.05l-1.7,1.25l-5.8,4.45l-3.55,2.7l0,-0.1l0,0.1l-0.2,0.15l0.15,0.3l0.05,-0.25l-0.05,0.3l0,-0.05q-2.1,11.55 -1.3,11.4q0.75,-0.15 -2.55,7.25q5.2,-4.75 6.75,-6.45l0.55,-1q1.3,-1.55 1.85,-3.3l0.6,0.45l1.2,-2.4l0.1,-0.25l0.1,-0.2l5.1,-10.25l0.4,4.45q0.05,1.45 0.9,2.5q1.3,1.85 4.35,2.45l-5.1,2.8l-0.95,0.5l1,-0.05l0.2,4.1l0.3,0.65l0,0.05l0,0.05l0.95,3m-14.35,-15.45l0.55,1.25l0.25,0.65q-0.65,0.3 -0.8,-1.9m1.9,4.3l0.15,0.4l0.15,0.35l-0.5,-1.05l0.2,0.3m-7.6,-8.4q0.1,-0.65 -0.4,-2.6l3.65,-3.4l-9.5,1.85q1.05,0.5 6.25,4.15m-0.85,1.05q-2.65,-0.05 -1.15,0.1l1.15,-0.1m-2.1,8.9l-0.3,2.7l0.3,-2.7m19.75,1.9l0.8,-0.1l-0.8,0.1m-12.35,-4.4l-0.15,0.15l-0.5,1.65q-0.55,1.95 0.65,-1.8m20.65,21.4q-2.35,-0.5 -3.8,-1.85l-2.05,-2.5l2.05,2.5q1.45,1.35 3.8,1.85m-12,1l1.6,0.15l-1.6,-0.15m-39.85,-34.95l-0.1,2.3l0,0.85l0,0.65l0,3.1l0,0.45l0.1,1.65l0.05,0.15l0.05,0.55l0.05,0.2q0.05,0.25 -0.1,0.2l-0.05,0l-0.1,-0.1l0,-0.05l-0.15,-0.1l-1.8,-1.8l-0.1,-0.05l-0.2,-0.15l-2,-1.25l-0.5,-0.2l-0.05,-0.1l-0.25,-0.05l-1.15,-0.35l-1.3,-0.25l-3.2,-0.4q2.9,-0.95 2.05,-1.1l-1.85,0.15l1.75,-0.45l0.2,-0.05l-2.05,-1.3l1.7,-0.15l-0.1,0l2.85,-0.35l-2.85,0.35l0.1,0q7.15,-3.5 7.95,-2.85q0.8,0.65 1.05,0.5m10.85,3.6l2,2.25l-2,-2.25"/>
   <path id="svg_11" fill-rule="evenodd" fill="#99adb5" d="m-30.25,-209.95l0,-0.1l0,0.1m-0.05,0.45l0,0.05l0.1,0.25q0.15,2.2 0.8,1.9l0.9,2.1l0.5,1.05l0.35,0.85l2.65,1.7q-0.55,1.75 -1.85,3.3l-0.55,1q-1.55,1.7 -6.75,6.45q3.3,-7.4 2.55,-7.25q-0.8,0.15 1.3,-11.4m-1.15,3.65q-1.2,3.75 -0.65,1.8l0.5,-1.65l0.15,-0.15"/>
   <path id="svg_12" fill-rule="evenodd" fill="#edc18f" d="m-30.3,-209.5l-0.15,-0.3l0.2,-0.15l3.55,-2.7l0.25,-0.15q0.35,-0.15 5.55,-4.3q-3.5,4.3 -1.9,2.9l-6.8,6.25l-0.7,-1.5l0.7,1.5l-0.05,0l0.05,0l1.3,3.05l-0.2,-0.3l-0.9,-2.1l-0.25,-0.65l-0.55,-1.25l-0.1,-0.25l0.05,-0.3l-0.05,0.25m7.45,4.95l-0.15,0.55l-0.1,0.2l0.25,-0.75m-0.1,-6.8l0.9,-1.95q0.75,-1.5 0.85,-0.5l-2.4,8.45l0.05,0l-0.2,0.5l-0.35,0.85l-0.2,0.55l0.15,-0.9l0.2,-0.7l0,-0.05l0.15,-0.55l0.3,-1.2q0.4,-1.95 0.05,-2.6l0.5,-1.9m-6.95,39.65l-0.35,-0.6l0.35,0.6m-18.45,-6l-0.7,0.45l0.65,-0.45l0.05,0m7.25,8.55l0.1,0.05l-0.1,0.1l0,-0.15m9.25,16.85l-0.45,-0.25l2.5,-1.95l-1.05,1.05l-1,1.15m6.65,-6.15l-1.4,1.15l1.55,-1.45l-0.15,0.3m-2.65,20.45l-0.05,0l0.05,0m13.55,-3.25l0.6,-0.55l-0.05,0l-0.55,0.55m-33.45,11.15l-3.55,0.15l0.55,-0.35q1.95,-1.25 3.35,-3.15l0.05,-0.1l0.1,-0.15l-0.05,-0.25l0.1,0.55q0.35,1.6 1.2,2.75l-0.3,0.35l-1.45,0.2l0.5,-1.35l-0.5,1.35m-7.7,-0.8l0.05,0.45l-0.15,-0.05l-0.1,1.35l-0.15,0.05l-2.15,0.7q-1.55,-0.05 -1.35,-2.85l-0.2,-0.95l0,-0.35q3.3,-1.5 3.85,-1.95q0.85,-0.75 3.6,-1.2l0.55,0.2l-0.35,1l-1.25,0.65q-1.35,0.8 -1.8,1.65l-0.05,0.05l-0.35,0.7l-0.15,0.4l0,0.15m28.4,2.7l-0.55,-0.35l0.85,0.55l-0.3,-0.2m-45,-44.35q0.7,3.95 2.8,6.35l2.9,3.65q0.95,1.2 9.5,0.85l-6.25,0.6q-2.25,0.15 -4.7,-0.55q-2.55,-0.65 -5.05,-3.2l-1.7,-1.65l-0.9,-0.85l-0.85,-1.6l0.75,-1.5l-0.05,-1.6l0.3,0.35q1.1,0.9 0.45,-3.4q2.35,3.45 2.65,3.1q0.15,-0.15 0.15,-0.55m16.45,42.05l-0.2,1.4l0.2,-1.4l0.05,0l0,-0.1l0,-0.15l-0.05,0.15l0,0.1m-0.15,-2.2l0.1,0.5l0.1,1.45l-0.1,-1.45l-0.1,-0.5m-8.1,11.7l0.05,-0.15l0.2,0.15l0,0.1l-0.25,-0.1m-1.7,-1.35l0.05,0.1l0.05,0.05l-0.1,-0.1l0.05,0.05l-0.05,-0.05l0,-0.05m10.1,-8.7l-0.1,0.3l0.1,-0.3"/>
   <path id="svg_13" fill-rule="evenodd" fill="#fcdfc2" d="m-15.9,-220.9l0.15,-0.1l0.35,0.55l-0.1,0.1l-0.4,-0.55m-1.95,6.55l-0.05,0.1l-0.05,-0.1l0.1,0m-3.05,-2.75q-5.2,4.15 -5.55,4.3l-0.25,0.15l5.8,-4.45m-2.3,13.55l0.45,-1.5l1.3,-3.4l-1.4,3.9l-0.25,0.75l-0.1,0.25m0.65,-9.4l0,-0.05l0,0.05l0.1,-0.5l-0.1,0.45l0,0.05l-0.45,1.55l0.3,-1.45l0.15,-0.1m11.35,67.55l-0.4,0.8l-0.2,0.35q-0.6,1.05 -1.9,2.45l2.15,-2.9l0.35,-0.7m-6.4,-25.4l-1.35,1.85l-0.65,0.8l-0.95,-0.65l0.75,-0.85l0,-0.05l0.35,-0.4l1.85,-0.7m-51.05,48.5l0.1,4.2q1.85,-3.8 4.7,-2.9l0.25,0.1q-0.3,3.15 -2.6,4.45q0.35,3.1 -1.35,3.4l-0.4,0.1q-1.35,0.15 -1.9,-0.25l-0.35,-1.4l0,-0.05l0.05,-7.05l1.2,-0.95l0.3,0.35m4.85,1.15q-1,-0.15 -1.5,-0.8l-0.45,-0.25l0.15,-0.1l0,-0.05l0.05,0.05l-0.05,-0.05l0.05,-0.05l1.4,-1.3l0.95,-0.55q1.3,-0.45 2.85,0.7l0.1,1.15l0,0.1q-0.75,1.5 -2.3,1.55l-1.05,-0.35l-0.05,0l-1.85,-1.15l1.85,1.15l0.05,0l0,0.05l-0.05,-0.05l-0.15,-0.05l0.15,0.05l0.05,0.05l0,0.05l-0.2,-0.15m-1.8,-1.4l0.05,-1.3q0.35,0.35 -0.05,1.3m-0.25,-5.45l0,0.35l-0.05,-0.6l0.05,0.25m0.3,5.65l0,-0.05l0,0.05l0,0.05l0.1,0.1l-0.05,-0.05l-0.05,-0.1m0,0.05l-0.05,0l0.05,0m0.1,0.1l0.15,0.25l-0.15,-0.25m1.85,1.2l0,-0.05l0.85,0.55l-0.05,-0.05l-0.8,-0.45m-5.05,4.85l-1.55,1.5l1.55,-1.5m0,-1.65l0,0.1l0.1,-0.1l-0.1,0l0.1,-0.3l-0.1,0.3m2.45,1.35l-0.85,0.45l-1.5,-1.8l2.2,-2.2l-2.2,2.2l1.5,1.8l0.85,-0.45"/>
   <path id="svg_14" fill-rule="evenodd" fill="#e8ab71" d="m-23,-211.4l0.45,-1.55l-0.4,1.6l-0.05,-0.05m-1.15,7.05l0.7,-5.1q0.35,0.65 -0.05,2.6l-0.3,1.2l-0.1,0.3l-0.05,0.3l-0.2,0.7m11.3,33.45q1.45,0.8 2.55,1.8q1.15,0.95 1.85,3.25l0.1,0.45l0.45,1.85l0.05,0.15l0.15,2.1l0,0.65l0,0.25l-0.15,1.4l0,0.1l-0.65,-0.1l-1,2l-0.35,-0.8l-0.45,-0.65l-0.6,-0.25l-0.7,-0.3l-0.65,0.65l-0.05,0.1l0,-0.05l0,-0.1l0.05,-0.45q0.7,-0.2 2.15,-3.7q1.55,-3.75 -2.75,-8.35m1.05,11.95l-0.1,0.05l-0.3,0.05l-0.05,0.4l0.45,-0.5m4.1,-1.45l-0.8,1.4l0.8,-1.4m-6.3,3.85l0,0.1l-0.85,0.85l0.85,-0.95m-35.2,9.2l-0.1,-0.65l0.65,0.5l-0.55,0.15m24,-11.1q-0.8,1.75 -1.55,1.3l0.15,-0.15l1.4,-1.15m-3.95,3.3l-0.65,0.65l0.65,-0.65m-45.4,-11.35l-0.25,0.3l-0.65,-1.15l0.9,0.85m79.5,160.8l0.1,5.75q-6.05,2.75 -12.75,3.4q-2.75,-1.55 -4.3,-4.4l16.95,-4.75"/>
   <path id="svg_15" fill-rule="evenodd" fill="#824b15" d="m-43.25,-189.95q-0.95,-3.65 -3.45,-7.5q3.45,4.8 4.85,8.15q1.35,3.3 1.8,8.1l-8.95,6.1l2.1,-1.8q2.35,-1.45 3.75,-3.15q1.35,-1.75 1.05,-4q-0.3,-2.3 -1.15,-5.9"/>
   <path id="svg_16" fill-rule="evenodd" fill="#af5a05" d="m-14.35,-193.3l-0.1,-0.05l-0.05,0l-1.35,-0.4l-0.95,-3l0,-0.05l2.9,-3.75q0.85,-0.55 1.35,-0.5q0.45,0.05 0.45,0.75l-0.05,0.3l-2.2,6.7m-33.25,46.45l-0.35,0.35l-0.8,0.55q-0.65,0.45 -1.25,0.75q-1.65,0.65 -2.9,0l-0.45,-0.2q-1.15,-1.55 -1.3,-2.9l0,-0.8l0,-1q0.3,-2.55 1.75,-5.25l0.25,-0.55l0.1,-0.1l0,-0.1l0.1,-0.1l0.05,-0.05l2.05,-2.75l1.6,-1.35l1,-0.55q1.45,-0.75 2.65,-0.4l0.5,0.15l0.1,0.1l0.6,0.45l0.35,0.4l0.6,1.2l0.15,1.2l-0.15,-0.1l-0.85,-0.45l-0.05,-0.05l-0.6,-0.6l-0.1,-0.05l-0.35,-0.1l-1.8,0.15l-0.15,0.1l-0.75,0.4q-1.75,1.2 -3,3.6q-0.85,1.6 -1.15,3.1l-0.15,1.45l0.05,0.55q0.1,1 0.95,2.1q0.85,0.45 1.7,0.35l0.55,-0.15l1.05,0.65"/>
   <path id="svg_17" fill-rule="evenodd" fill="#fef0e7" d="m-15.4,-220.45l0.4,0.5l-0.5,-0.4l0.1,-0.1m0.45,49.3l0.9,0.25l0.55,0.3l0.5,0.7q0.4,0.4 0.3,1q-2.6,5.7 -6.5,9.9q-4.4,4.7 -10.5,7.6l-0.05,0l-0.7,0.35q-1.1,0.5 -1.8,-0.65l-0.25,-0.9l0.2,0.05l0.45,0.25l1,-1.15l1.05,-1.05l0.65,-0.65l1.6,-1.4l0.1,-0.05l0.1,-0.1l0.6,-0.45q0.75,0.45 1.55,-1.3l0.15,-0.3l0.1,-0.25l0.7,-1.5l1.6,-3.05l1.65,-2.7l1.6,-1.65l3.25,-2.9l0.55,-0.2l0.65,-0.15m-36.45,35.35q1.55,1.5 4.05,1.7l1.05,-0.8l0.95,-1.2l0.75,-0.2q2.15,0.85 4.25,1.9l1.7,0.9l0.75,0.35l0.6,0.35q1,1.1 0.75,2.7q-0.15,1 -0.85,1.7q-0.1,1.65 -0.9,2.8q-0.9,1.25 -2.75,1.95l-2,1q-1.5,0.35 -2.6,-0.8l-1,0.15l-0.45,0.2q-1.75,0.35 -2.7,-1.15l0,-1.35q0.2,-1.4 1.3,-2.55l0.5,-0.5l1.7,-1.65l0.3,-0.35q-0.85,-1.15 -1.2,-2.75l-0.1,-0.55l0.05,0.25l-0.1,0.15l-0.05,0.1q-1.4,1.9 -3.35,3.15l-0.55,0.35q-1.15,0.6 -2.5,1.05l-1.3,-0.05l-0.35,-1.95l0,-0.15l0.15,-0.4l0.35,-0.7l0.05,-0.05q0.45,-0.85 1.8,-1.65l1.25,-0.65l0.35,-1l0.1,-0.3m0.35,-40.05l-0.65,1.3l-0.9,1.8l0.05,0.05l0.1,0.85l0.1,0.65q-4.05,-0.75 -6.35,2.2q-0.8,-0.7 -0.8,-1.7l0,-0.85l0.85,-0.8q3.25,-1.8 4.95,-1.95q1.7,-0.25 2,-1.15l0.3,-1.05l0.15,0.1l0.3,0.35l0,0.05l-0.1,0.1l0,0.05m19.2,23.55l2.1,0.9l-2.1,-0.9m0.6,9.5q-0.1,0.55 -0.45,1q-8.5,0.75 -11.4,-8.15l0.05,-0.55q3.85,5.5 7.15,6q4.3,0.6 4.8,1l-0.15,0.7m-28.2,-28.9q0.2,-0.15 -0.05,0.15l0,-0.15l0.05,0m-9.25,-10.9l0.25,0l2.2,0.05l0.6,0.3l0.45,0.65q0.4,0.45 0.3,1q-2.65,3.05 -5.9,5.95l-0.35,0.35l-0.3,0.8l-0.15,0.35l-0.8,-1.5l0.35,2.1q0,0.4 -0.15,0.55q-0.3,0.35 -2.65,-3.1q0.65,4.3 -0.45,3.4l-0.3,-0.35l-0.1,-1.45l-0.05,-1.45l0.6,-0.35l0.1,-0.1l1.05,-0.4q0.55,-2.1 1.5,-3.05q0.95,-1 2.2,-1l1.85,-2.75l-0.25,0m13.25,51.55l0.15,-0.4l-0.15,0.4"/>
   <path id="svg_18" fill-rule="evenodd" fill="#971806" d="m41.7,-52.6l-3.7,2.95q0.65,-0.55 0.95,-2.3q1,-0.45 3.25,-3.1l-0.6,1.9l0.1,0.55m-4.4,1.3q-6.1,6.3 -12.65,8.1l-16.3,4.35l-1.55,0.4l-1,0.3l-0.15,0l-0.4,-0.7l-2.2,-4.15l-0.85,-1.55l4.9,-2.35l0.25,-0.15q12.3,0.05 24.3,-2.55q2.9,-0.65 5.65,-1.7m-48.1,-133.15l0.55,0.1l-0.3,-0.05l-0.05,0l-0.15,-0.05l-0.05,0m10.85,5.1q-1.4,3.25 -2.1,5.85l-0.9,4.1q-0.3,3 0.4,5.85l0.4,1.3l0,0.2l1.15,3.05l0.35,1q0.75,1.9 1.45,3.1l0.15,0.15l0.25,0.5l-0.1,0.2l-1.1,1.55l-0.55,0.7l-1.85,-0.2q5.1,5.65 7.95,10.85q0.15,0.25 4.2,3.15q-0.45,-0.05 2.75,2.85q2.1,0.65 3.6,2.25l0.1,0.05l1.4,0.55l0.4,0.2q2.6,1.2 4.8,3.15l-0.25,0.05l-4.15,0.55l-0.25,-0.3l-1.65,-1.15l-0.3,-0.2l-1.95,-1.3l-3.5,-2.1q-4.6,-3.55 -10.6,-6.45l-4.85,-2.25l-0.65,-0.25l-4.3,-1.65l-1.95,-0.6l0.4,-0.8l2.5,-8.35l0.45,-2.2l0.4,-2.95l0,-0.1l0.15,-1.4l0,-0.25l0,-0.65l-0.15,-2.1l-0.05,-0.15l-0.35,-1.55l-0.2,-0.75q-1.5,-7.15 -2.1,-7.65q-2.8,-2.45 -4.95,-3.25l0.35,-0.3l2.75,-1q5.05,-1.5 9.25,-5.15l3.2,3.85m8.4,-12.65l0.45,-0.3l-0.45,0.3m-13.7,30.65l6.35,7.3l-6.35,-7.3"/>
   <path id="svg_19" fill-rule="evenodd" fill="#a62d04" d="m61.35,-61.6l3.45,1.45q-2.55,3.65 -3.9,4.95l-0.35,-0.3l0.3,0.4q-1.25,1.1 -1.4,0.45q-0.2,-0.55 -2,-0.55l-0.1,0l1.45,-2.3l2.55,-4.1m-54.45,-127.6q-2.55,2.1 -4.45,5.15l-2.3,4.35l-0.1,0.35l-3.2,-3.85l0.85,-0.75l2.45,-2.2l2.3,-1.8l3.55,-2.5l0.9,1.25m-12.8,110.75q2.1,-1.8 12.45,-8.3q-6.3,5.55 -5.95,6.8l-6.5,1.5m64.7,20.95l1.75,2l-1.75,-2"/>
   <path id="svg_20" fill-rule="evenodd" fill="#fde9d7" d="m-17.6,-170.8l2,-0.5l0.65,-0.05l0,0.2l-0.65,0.15l-0.55,0.2l-3.25,2.9l-1.6,1.65l1.4,-1.9l0.65,-0.8l1.35,-1.85m-12.1,19.4l0.05,0.05l-0.1,-0.05l0.05,0m-8.95,17.9l0.6,0.25l0.3,-0.4l1.3,-0.1l2.4,0.95q-2.55,3.2 -1.95,7.2q0.05,0.6 -7.35,3.6l3.3,-0.75l2.3,-0.35l-2.75,1q-0.6,0.3 -4.3,1.05q-2.8,0.05 -4.75,-0.05q-2.65,-0.1 -6.9,-1.7q-2.4,-1.2 -3.7,-2.6l-0.2,-0.2l-0.6,-0.75l-0.2,-0.35l-0.05,-0.15q-0.05,-0.55 0.3,-1l0.4,-1.1l0.25,-0.95l0.95,-1.35q-0.2,2.8 1.35,2.85l2.15,-0.7l0.15,-0.05l0.1,-1.35l0.15,0.05l-0.05,-0.45l0.35,1.95l1.3,0.05q1.35,-0.45 2.5,-1.05l3.55,-0.15l-0.75,1.95l0.75,-1.95l1.45,-0.2l-1.7,1.65l-0.5,0.5q-1.1,1.15 -1.3,2.55l0,1.35q0.95,1.5 2.7,1.15l0.45,-0.2l1,-0.15q1.1,1.15 2.6,0.8l2,-1q1.85,-0.7 2.75,-1.95q0.8,-1.15 0.9,-2.8q0.7,-0.7 0.85,-1.7q0.25,-1.6 -0.75,-2.7l-0.6,-0.35l-0.75,-0.35m8.2,-7l0.5,0.45l-0.25,0.15l-0.25,-0.6m-20.15,-38.2q0.5,0 0.85,0.35l0.05,0l0.15,0.25l-0.75,0.75l-0.65,1.35l0,-0.05l-0.3,-0.35l-0.15,-0.1l-0.3,1.05q-0.3,0.9 -2,1.15q-1.7,0.15 -4.95,1.95l-0.85,0.8q0.25,-0.3 0.05,-0.15l0.25,-0.8l0.3,-0.2l3.25,-2.35l0.7,-1.05l1.1,-1.15l1.25,-0.85l0.3,-0.15l1.7,-0.45m-5.15,50.6l-0.05,-1l0.05,1m-5.4,-55.45l0.05,-0.05l0.1,0.05l-0.15,0m8.7,11.7l0.1,0.7l0,-0.05l-0.1,-0.65m-19.15,-1.3l-0.45,0.6l-0.35,-2.1l0.8,1.5m14.4,13.7l0.65,-1l0.05,0l-0.7,1m-10.7,-24l0.15,-0.05l-0.3,0.25l0.15,-0.2"/>
   <path id="svg_21" fill-rule="evenodd" fill="#eec59b" d="m-11.8,-158.95l-0.45,0.5l0.05,-0.4l0.3,-0.05l0.1,-0.05m-2.2,2.4l1.2,-2.25l0.45,-0.05l0.1,0l-0.05,0.45l0,0.1l0,0.05l0.05,-0.1l0.65,-0.65l0.7,0.3l0.6,0.25l0.45,0.65l0.35,0.8l0,0.05l-0.3,0.5l-0.1,0.2l-1.5,2.9l-6.75,4.95q-2.6,1 -4.7,3.2q-1.15,1.1 -2.1,2.55l-2.05,2.85l-1.2,1.6l-0.3,0.3l-0.85,0.55l-1.4,0.7l-0.3,0.1q-1.5,0.65 -2.45,0.5q-0.65,-0.05 -2.15,-1.05l-0.15,-0.15l-1.5,-1.1l-3.1,-2.15l-0.25,-0.2l-2,-1.45l-4.95,-4.7l-1.05,-0.65l-0.65,-0.5l0.1,0.65q-0.85,0.1 -1.7,-0.35q-0.85,-1.1 -0.95,-2.1l-0.05,-0.55l0.15,-1.45q0.3,-1.5 1.15,-3.1q1.25,-2.4 3,-3.6l0.75,-0.4l0.15,-0.1l1.8,-0.15l1.1,0.8l0.85,0.45l-0.15,0.15q-0.35,0.2 -1.45,-0.85q-1.95,1.5 -2.75,3.3q-0.75,1.7 -0.7,3.25l0.2,2.15q3.55,4 7.15,6.3q3.45,2.5 7.3,4.6q1.45,-0.05 3.15,-0.9l0.25,-0.15l-0.5,-0.45q4.6,-4.9 5.85,-7.95l0.15,-0.45l0.85,1.5q6.65,-4.45 9.6,-9.05l0,-0.1m4.5,-0.45l-0.3,0.55l0.3,-0.55m-41.75,6.5q0.65,1.5 1.95,2.5q-1.3,-1 -1.95,-2.5"/>
   <path id="svg_22" fill-rule="evenodd" fill="#691003" d="m-31.6,-176.7l7.45,-0.2l1.35,1.25l-2.65,0.05l-2.95,0l-0.4,0l-3.05,-0.15l3.05,0.15l0.4,0l2.95,0l0.85,0l-0.35,0.45l-1.05,1.05l-0.7,0.6l-4.55,-0.1l-0.2,-0.35q-0.5,-0.85 -0.4,-1.8l0.25,-0.95m-11.3,3.35l0.3,0.35l0.7,1l0.1,0.2l0,0.1l-2.6,2.15l-0.65,0.75l-0.55,0.3q-1.55,0.75 -3.1,1.25l-0.35,-0.25l0,-0.3l3.2,-2.9l0.25,-0.2l0.15,-0.05l-0.05,-0.05l2.6,-2.35"/>
   <path id="svg_23" fill-rule="evenodd" fill="#ad0101" d="m-47.15,-185.6l0.4,1.4l-0.15,0.05l-2.05,0.9l-1.15,0.8l-0.65,2.6l-0.1,0l-2.2,-0.25l-0.85,-1.25q-1.2,-1.55 -2.55,-2.1l-0.45,-0.15l-1.35,-2.7q1.65,-1 3.4,-2.1l2.3,-1.35l1.8,3.75l-0.15,-3.55l2,-0.85l1.75,4.8"/>
   <path id="svg_24" fill-rule="evenodd" fill="#ff0000" d="m-47.15,-185.6l1.6,4.45l-0.1,0.5l-3,-2.1l1,3.2l-2.05,1.2l-0.05,0q-0.35,-0.35 -0.85,-0.35l-0.15,-0.8l0,-0.35l0.65,-2.6l1.15,-0.8l2.05,-0.9l0.15,-0.05l-0.4,-1.4"/>
   <path id="svg_25" fill-rule="evenodd" fill="#ffffff" d="m-45.65,-180.65l-0.25,1.4l-2.45,1.55l-0.05,0l-0.65,0.45l-1.9,1.25l0.65,-1.35l0.75,-0.75l-0.15,-0.25l2.05,-1.2l-1,-3.2l3,2.1m-3.25,-9.75l-2,0.85l0.15,3.55l-1.8,-3.75l-2.3,1.35q-1.75,1.1 -3.4,2.1l1.35,2.7l-3.15,-3.3l7.2,-5.5l3.6,1.05l0.35,0.95m-9.8,3.4l0.45,0.7l-0.45,-0.7m3.45,-2.35l0.4,0.95l-0.4,-0.95m4.35,-0.7l0,0.5l0,-0.5m-1.65,0.3l-0.15,-0.5l0.15,0.5"/>
   <path id="svg_26" fill-rule="evenodd" fill="#ae8051" d="m-44.8,-121.05l5.95,-0.45l0.7,-0.1l0.05,0.05l0.35,0.2l0.05,0.05l0.55,0.4l-0.55,-0.4l-0.05,-0.05l-0.35,-0.2l0.05,-0.05q1.45,-0.2 3.55,-0.95l2.75,-1.05l1.65,0.65l0,0.05l0.35,0.15l-0.55,0.4l-4.75,2.8l-0.4,-0.3l-1.15,-0.7l1.3,-0.6l-1.8,0.3l-0.05,-0.05l-0.25,-0.2l0,0.3q-15.4,2.55 -21.95,-1.1l-0.2,-0.1l-0.7,-0.4l-0.1,-1.15l0,-0.15l-0.25,-1.15l-0.05,-0.4l0.5,-0.15q1.3,1.4 3.7,2.6q4.25,1.6 6.9,1.7q1.95,0.1 4.75,0.05"/>
   <path id="svg_27" fill-rule="evenodd" fill="#c59f7c" d="m-38.15,-121.6l0.1,0l-0.05,0.05l-0.05,-0.05m2.7,1.75l0.4,0.3l-0.05,0l-0.35,-0.3m-25.5,-6.5l0.6,0.75l0.2,0.2l-0.5,0.15l0.05,0.4l-0.2,-0.75l-0.1,-0.2l-0.05,-0.1l-0.05,-0.2l-0.05,-0.15l0.1,-0.1"/>
   <path id="svg_28" fill-rule="evenodd" fill="#a27948" d="m-35.05,-119.55l4.75,-2.8l0.55,-0.4l0.9,0.4l0.2,1.6l0.8,5.5l-5.65,2.05l-0.2,-1.15l-0.75,-4.45l-0.05,-0.4l-0.55,-0.35l0.55,0.35l0.05,0.4l0.75,4.45l-0.75,-3.95q0.45,5 0.1,5.65q-0.25,0.35 -2.6,1l-9.25,2.15q-7,1.45 -7.95,6.65q-2.6,3.3 -4.85,-1.4l-0.1,-0.95l-0.8,-1.4q0.05,-0.75 -0.45,-1.15q-1.95,-1.7 -4.25,-2.9q0.35,-0.95 0.2,-2.6q1.8,-1.25 2.65,-2.6q0.85,-1.4 0.65,-4.5l1.65,-1.45l0.1,-0.1q6.55,3.65 21.95,1.1l0,-0.3l0.25,0.2l0.05,0.05l0.5,0.3l-0.5,-0.3l1.8,-0.3l-1.3,0.6l1.15,0.7l0.35,0.3l0.05,0m-18.95,9.1q8.9,0.95 18.4,-1.85l1.25,-0.35l-1.25,0.35q-9.5,2.8 -18.4,1.85m1.55,-6.3q8.35,0.45 15.3,-1.25l2.7,-0.8l-2.7,0.8q-6.95,1.7 -15.3,1.25m26,-11.05l-0.6,-0.4l0.3,0.2l0.3,0.2m5.9,9.2l-1.1,0.7l-1.8,1.1l2.9,-1.8m-40.6,-8.1l0.2,0.35l-0.1,0.1l-0.1,-0.45m49.15,125.75l-1.05,-2.7l0.15,0.45q8.7,-2.95 17.8,-3.4l-0.05,-0.25l0.05,0.3l0.05,0.85l-16.95,4.75"/>
   <path id="svg_29" fill-rule="evenodd" fill="#785736" d="m-31.75,-123.6l2.7,-1.8l0.25,-0.2l0.65,-0.5l0,-2.8l0.55,0.35l0.55,0.35l0.6,0.4l1.4,0.95l0.35,0.95l2.6,1.25l1.55,6.05l-2.9,1.8l1.8,-1.1l0.4,0.95q1.7,0.4 -1.7,2.7l-0.6,0.4q-1.65,1.05 -5.3,2.3l-3.45,1.1l-0.05,0.05l-0.35,0.1l-1.65,0.5l-0.15,0l-0.4,0.15l-0.15,0l-1.25,0.35l-4.1,1.1l-8.4,2q-1.9,0.4 -2.1,1.65l-0.15,0.75q-0.25,1 -0.8,1.4q-1.9,1.4 -2.85,1.75l-4,-0.2l-0.75,-0.35q-1.7,-0.9 -2.5,-2.7q-0.8,-1.65 -0.6,-3.1q0.1,-0.85 -2.6,-2l-1.2,-0.45l-0.15,-0.05l-0.35,-0.15l-1.1,-3.3l0.4,-0.1q1.7,-0.3 1.35,-3.4q2.3,-1.3 2.6,-4.45l0,-0.1l0.8,0.45l0.05,0.05l-0.85,-0.55l0,-0.05l1.05,0.35q1.55,-0.05 2.3,-1.55l0,-0.1l0.7,0.4l0.2,0.1l-0.1,0.1l-1.65,1.45q0.2,3.1 -0.65,4.5q-0.85,1.35 -2.65,2.6q0.15,1.65 -0.2,2.6q2.3,1.2 4.25,2.9q0.5,0.4 0.45,1.15l0.8,1.4l0.1,0.95q2.25,4.7 4.85,1.4q0.95,-5.2 7.95,-6.65l9.25,-2.15q2.35,-0.65 2.6,-1l0.85,-0.3l0.35,2l-1.2,1.15l1.2,-1.15l-0.35,-2l-0.85,0.3q0.35,-0.65 -0.1,-5.65l0.75,3.95l0.2,1.15l5.65,-2.05l-0.8,-5.5l-0.2,-1.6l-0.9,-0.4l-0.35,-0.15l0,-0.05l-1.65,-0.65m3.1,2.85l4.6,-3.5l-0.65,-1.65l0.65,1.65l-4.6,3.5m5.2,3.95l-4.15,2.6l-1.25,2.65l1.25,-2.65l4.15,-2.6m-10.05,3.85l0,-0.25l0,0.25"/>
   <path id="svg_30" fill-rule="evenodd" fill="#fa7d5f" d="m18.15,-141.1l1.3,-0.9q4.1,-1 4.1,-0.55q5.1,-2.35 14.75,-4.9q9.6,-2.5 12.35,-1q2.7,1.55 9.75,3.6l-5.35,-0.25l-0.5,1.5l-0.3,1l-1,2.9l-0.65,-0.2l-16.85,5.65l-0.4,-0.15l-1.85,-0.6l-0.4,-0.3q-2.35,-1.75 0.7,-7.75l0.05,-0.05l-0.1,0l-0.15,0.05l-0.1,0l-5.8,7.6q-1.25,-1.65 -9,-4.4l-0.55,-1.25m15.3,-6.25l4.75,-2l0,0.05l-0.15,0.1q-2.25,1.2 -4.6,1.85m0.05,4.3q-7.2,1.85 -8.6,1.55l-1.4,-0.3q1.85,2.05 4.8,0.85l5.15,-2l0.05,-0.1m0.1,0l0.95,-1.35l-0.7,1.3l0.7,-1.3l-0.95,1.35m5.7,10l17,-2.1l0.55,0l0.85,-0.05l4.2,-0.45l0.35,-0.05l0.05,0l0.45,-0.1l5.5,-2.6l0.2,-0.25l0.8,-1.2l0.55,0.6l-0.55,0.55l-0.5,0.95q1,2.35 3.8,3.9l2.65,1.1l-12.5,0.9l-3.6,0.25l-12.5,0.7l-3.9,-1l-2.2,-0.75l-1.05,-0.4l-0.15,0"/>
   <path id="svg_31" fill-rule="evenodd" fill="#f9bf60" d="m-3.8,-19.95l3.2,0.75l1.95,0l0.45,0.25l1,0.5l10.55,3.2l0.25,0.05l0.4,0.45q0.4,0.5 0.3,1.05l-0.1,0.6l-0.25,0.1q-38.25,-11.9 -32.2,-11.05l1.65,0.25q-10.95,-4.75 -18.55,-9.25q-20.15,-12.75 -33.5,-32.7l0,-1.15l-0.2,-0.15l5.2,0.2l-0.1,0.1l-2.3,1.95l-0.3,-0.45l0.3,0.45q1.2,1.8 7.35,8.4l1.35,1.45l0.1,0.1l2.3,2.45l10.95,11.25l1.65,1.55l0.45,0.35l0.6,0.45l0.6,0.45l0.95,0.7l3.3,2.1l4.2,2.5l1.75,0.95l0.15,0.15l3.75,1.95l6.05,3.05q10.9,5.25 16.75,7m23.25,-122.05l13.25,-5.1l0.7,-0.25l0.05,0q2.35,-0.65 4.6,-1.85l0.15,-0.1l0,-0.05l6.35,-2.65l23.35,6.25l0.3,0.1l5.55,1.45l-13.35,-0.65q-7.05,-2.05 -9.75,-3.6q-2.75,-1.5 -12.35,1q-9.65,2.55 -14.75,4.9q0,-0.45 -4.1,0.55m14.05,-1.05l-0.05,0.1l-5.15,2q-2.95,1.2 -4.8,-0.85l1.4,0.3q1.4,0.3 8.6,-1.55m-0.05,-4.3l-0.75,0.25l0.75,-0.25m36.35,8.1q3.15,3.6 4.9,5.25l0.95,0.8l0.9,0.65l-1.55,0.1l-2.2,0.1l2.4,-0.4l-2.65,-1.1q-2.8,-1.55 -3.8,-3.9l0.5,-0.95l0.55,-0.55"/>
   <path id="svg_32" fill-rule="evenodd" fill="#e43307" d="m16.6,-141.75q0.1,0.6 0.6,1.1l1.5,0.8q7.75,2.75 9,4.4l5.8,-7.6l0.1,0l0.15,-0.05l0.05,0.05q-3.05,6 -0.7,7.75l0.4,0.3l1.85,0.6l0.4,0.15l2.7,0.9l0.85,0.3l0.15,0l0.2,0.15l0.45,1.8l-17.3,2.15q-2.2,-1.95 -4.8,-3.15l-0.4,-0.2l-1.4,-0.9q-1.1,-0.95 -0.8,-2q0.5,-1.75 -8.05,-9.05q7,2.4 8.85,2.55l0.4,-0.05m17.85,7.45l-0.95,-0.7l0.95,0.7m-96.35,88.85l0.45,0.15l0.8,0.4q6.3,9.05 14.3,17.1l0.75,0.95q9.55,6.35 19.6,11.45q10.3,2.25 20.2,5.6l-5.8,-0.05l0.3,-0.8l-3.1,0.65l-1.25,-0.05l-2.7,-0.2l-0.25,-0.05l-13.95,-2.3l-0.5,-0.1l-1.9,-0.75q-5.55,-2.2 -10.1,-6.05l-0.5,0.05l-1.1,0.6l-1.5,-1.2l-3.55,-3.3l-3.45,-3.8l-0.9,-1.15l-3.45,-4.95l-1.5,-2.6l0,-5.35l-0.9,-4.25m105.4,-17.7l-0.8,3.8q-7.05,5.7 -16.45,8.7q-2,0.65 -3.05,-1.15q-0.3,-0.6 -0.3,-1.3l0.1,-0.6l0.7,-0.25l0.7,-0.25l2.55,-1.15l3.55,-1.9q4.1,-2.65 13,-5.9m-20.5,9.45l0.7,-0.25l-0.7,0.25"/>
   <path id="svg_33" fill-rule="evenodd" fill="#768e9a" d="m-60.4,-222.25l0.25,0.15l-0.4,0l-0.15,0.05l0.05,-0.05l0.2,-0.15l0.05,0m-0.05,0l0.3,0.15l-0.3,-0.15m-2.2,3.85l0.1,-3.3l-0.1,-0.1l0.25,0.05q5.85,4.15 9.35,11l-6.05,0.05l0,0.55l-2.6,0.7l-0.45,0.35l-0.35,0.6l-0.05,-0.2l-0.05,-0.55l-0.05,-0.15l-0.1,-1.65l0,-0.45l0,-3.1l0,-0.65l0,-0.85l0.1,-2.3m1.95,0.85q-0.75,3.1 -1,8.1q0.25,-5 1,-8.1m-9.55,4.8l1.3,0.25l1.15,0.35l0.8,0.35l2,1.25l0.2,0.15l0.1,0.05l1.8,1.8l0.15,0.1l0,0.05l0.1,0.1l0.05,0l-1.25,1.8l-1.3,-0.65l-3.5,3.65l0,2.15l0.25,1.8l0.45,1.5l0,0.05l0.15,0.3l1.25,2.75l0.6,0.8l0.2,0.3l0,0.05l0.9,1.15l1,2.35q1.15,3.05 1.3,6.15l-3.05,-0.05l-2.15,0.7l-0.15,0.05l-3.2,-4.45l-0.2,-0.35l0,0.1l-0.05,0l-0.85,-0.3l-0.8,-1.3l-0.5,4.15q-0.55,-1.45 -0.7,-4.55q-0.25,-4.8 0.95,-9.35l0.3,-1.3l0.45,-2.6q0.35,-3.05 0,-5.85l-0.75,-3.4l3,-0.1m-1.95,18.6q0.1,3.4 0.9,5.9q-0.8,-2.5 -0.9,-5.9m1.05,-6.3l0.2,1.3l0.05,0.1l0,0.1q0.7,3.9 2.3,7.25l0.4,0.7l2.35,3.6l-2.35,-3.6l-0.4,-0.7q-1.6,-3.35 -2.3,-7.25l0,-0.1l-0.05,-0.1l-0.2,-1.3m2.5,-3.65l0,0.6l0,-0.6m-1.55,-5.35l5.05,2.3l-5.05,-2.3"/>
   <path id="svg_34" fill-rule="evenodd" fill="#9daeb7" d="m-62.15,-209.1l0.45,-0.35l0,0.4l-0.45,-0.05m-9.1,21l-0.05,-0.15l0.2,0.35l-0.1,-0.1l-0.05,-0.1"/>
   <path id="svg_35" fill-rule="evenodd" fill="#ffcc33" d="m-56.45,-183.45q1.35,0.55 2.55,2.1l0.85,1.25l0.2,0.45l0.25,0.7l0.3,0.7l-0.3,0.15l-1.25,0.85l0.35,-0.3l-3.25,1.3l-2.6,0.1q-1.15,-0.55 -2.3,-2.2q-0.5,-2.05 -0.3,-3.6l0.8,-1.6l0.15,0l1.15,-0.2l2.95,0.15l0.45,0.15"/>
   <path id="svg_36" fill-rule="evenodd" fill="#ad7901" d="m-61.65,-178.35q1.15,1.65 2.3,2.2l2.6,-0.1l3.25,-1.3l-0.35,0.3l-1.1,1.15l-0.7,1.05l-3.25,2.35l-0.3,0.2l-0.55,-1l-0.1,-0.2l0,-0.1q-1.3,-2.5 -1.8,-4.55"/>
   <path id="svg_37" fill-rule="evenodd" fill="#660000" d="m-53.05,-180.1l2.2,0.25l0.1,0l0,0.35l0.15,0.8l-1.7,0.45l-0.3,-0.7l-0.25,-0.7l-0.2,-0.45"/>
   <path id="svg_38" fill-rule="evenodd" fill="#f3d73a" d="m-52.65,-155.9l-0.25,0.55q-1.45,2.7 -1.75,5.25l-3.55,1.75q-1.3,-1 -1.4,-3.45q3,-2.95 6.95,-4.1m0.1,-8q1.6,-0.8 2.8,-0.4l0,0.05l1.65,1.1l0.3,0.15q-2.35,2.15 -5.2,4l-4.7,2.75l-1.4,0.95l0.25,-0.65l-0.25,0.65l0.25,-0.65l0.2,-0.7l0.8,-1.65l0.05,-0.1l0.6,-1.05l0.7,-1q1.25,-1.75 2.85,-2.8l0.4,-0.3l0.7,-0.35"/>
   <path id="svg_39" fill-rule="evenodd" fill="#f9922b" d="m-45.1,-161.3q-1.2,-0.35 -2.65,0.4l-1,0.55l-1.6,1.35l-2.05,2.75l-0.05,0.05l-0.1,0.1l0,0.1l-0.1,0.1q-3.95,1.15 -6.95,4.1l0,-0.25q0,-1.6 0.5,-3.25l1.4,-0.95l4.7,-2.75q2.85,-1.85 5.2,-4l2.7,1.7m-9.55,11.2l0,1l0,0.8q0.15,1.35 1.3,2.9l-4,-2.5l-0.6,-0.3l-0.25,-0.15l3.55,-1.75"/>
   <path id="svg_40" fill-rule="evenodd" fill="#001e3c" d="m3.7,-26l-0.4,0.4l-1.1,0.95l-2.9,2.35l-0.2,0.15l-2.9,2.2q-5.85,-1.75 -16.75,-7l-6.05,-3.05l-3.75,-1.95l-0.15,-0.15l-0.05,-0.05l-0.6,-1.55l-0.2,-0.55q11.65,3.75 22.85,9.1l0.2,0.2l12,-1.05l-0.4,0.4l0.4,-0.4m-26.65,-88.25l0.95,2.2l0.15,0.25l-0.85,0.5q-9.25,5.25 -19.35,7.6l-0.7,-0.1l-7,4l-4.75,3q-0.6,0.4 -1.1,0.65q-2.75,1.3 -5.25,-0.3l-0.15,-2.15l0.15,2.15l-1.25,-1.05l-0.9,-0.65q0.25,3.45 0.15,7.05q-0.1,1.8 -0.35,3.55q3,2.9 2.95,7.65q-0.1,7.15 1.4,14.05q0.65,2.85 1,5.65q5.35,3.05 10.2,6.9q3.8,3 8.6,3.85l-0.7,-4.75l-0.45,-2.55q-1.2,-5.15 -3.25,-10.15q-1.6,-4.2 -4.05,-8q-2.4,-3.8 -4.2,-7.9l0.8,0.3q0.95,0.2 2,0l0.05,0l0.05,0l0.15,0q0.5,2.6 1.3,4.3l0.1,0.25l2.2,4.05l1.95,3.9q3.85,7.45 4.25,9.45q0.25,1 1.9,4.7q1,2.25 1.15,3.75l0.05,0.45l-0.05,0.4q-0.2,1.95 1.95,9.3l0,0.1l0.15,0.45l0,0.1l1.65,5.2l0.25,0.65l-0.25,-0.65l0.25,0.6l0,0.05l-0.25,1.9l-0.2,0.5l-4.2,-2.5l-3.3,-2.1l-0.95,-0.7l0.95,0.7l-0.95,-0.7l-0.3,-0.6l-0.3,0.15l-0.6,-0.45l-0.45,-0.35l-0.25,-1.15l-1.4,-0.4l-10.95,-11.25l-2.3,-2.45l-0.1,-0.1l0.1,0.1l-0.1,-0.1l-1.35,-1.45l-0.95,-4.25l-1.5,-7.6l-0.1,-0.65l-0.45,-2.55l-0.05,-0.3l0,-0.1l-1.55,-9.15q-3.7,-5.55 -3.85,-7.65q-0.15,-3.1 0.3,-13.35l0.35,-7.15l0.15,-0.3l1.2,0.45q2.7,1.15 2.6,2q-0.2,1.45 0.6,3.1q0.8,1.8 2.5,2.7l0.75,0.35l4,0.2q0.95,-0.35 2.85,-1.75q0.55,-0.4 0.8,-1.4l0.15,-0.75q0.2,-1.25 2.1,-1.65l8.4,-2l4.1,-1.1l1.25,-0.35l0.15,0l0.4,-0.15l0.15,0l1.65,-0.5l0.35,-0.1l0.05,-0.05l3.45,-1.1q3.65,-1.25 5.3,-2.3l0.6,-0.4m-27,10.65l0.2,3.8l-0.2,-3.8m-4.35,14.7l0.7,3.6l-0.65,-0.45q-2.5,-1.45 -0.1,-3.1l0.05,-0.05m17.8,48.15l-0.1,0.05l0.15,0.1l-0.4,-1.1l0.35,0.95"/>
   <path id="svg_41" fill-rule="evenodd" fill="#003366" d="m4.1,-26.35l-0.25,0.2l-0.15,0.15l-12,1.05l-0.2,-0.2q-11.2,-5.35 -22.85,-9.1l0.2,0.55l0.6,1.55l0.05,0.05l-1.75,-0.95l0.2,-0.5l0.25,-1.9l0.65,1.75l-0.65,-1.75l0,-0.05l-0.25,-0.6l-1.65,-5.2l0,-0.1l-0.15,-0.45l0,-0.1q-2.15,-7.35 -1.95,-9.3l0.05,-0.4l-0.05,-0.45q-0.15,-1.5 -1.15,-3.75q-1.65,-3.7 -1.9,-4.7q-0.4,-2 -4.25,-9.45l-1.95,-3.9l-2.2,-4.05l-0.1,-0.25q-0.8,-1.7 -1.3,-4.3l-0.15,0l-0.05,0l-0.05,0q-1.05,0.2 -2,0l-0.8,-0.3q1.8,4.1 4.2,7.9q2.45,3.8 4.05,8q2.05,5 3.25,10.15l0.45,2.55l0.7,4.75q-4.8,-0.85 -8.6,-3.85q-4.85,-3.85 -10.2,-6.9q-0.35,-2.8 -1,-5.65q-1.5,-6.9 -1.4,-14.05q0.05,-4.75 -2.95,-7.65q0.25,-1.75 0.35,-3.55q0.1,-3.6 -0.15,-7.05l0.9,0.65l1.25,1.05q2.5,1.6 5.25,0.3l1.2,6.5l-5.1,-2.05q-1,-2 -1.35,-4.75q0.35,2.75 1.35,4.75l5.1,2.05l-1.2,-6.5q0.5,-0.25 1.1,-0.65l4.75,-3l0.3,9.75l0.5,5.45l0.3,2.1l-0.3,-2.1l-0.5,-5.45l-0.3,-9.75l7,-4l0.7,0.1q10.1,-2.35 19.35,-7.6l0.85,-0.5l-0.15,-0.25l0.75,1.55l0.2,0.4q-1.05,2.55 -4.45,4.65l-0.9,0.65q5,10.75 7.65,15.55l0.15,0.25l-0.15,0q-1.4,0.1 -2.45,-0.45l-2.25,-3.5l-0.25,0.15q-3.6,-4 -6.85,-8.1q-7.2,6.7 -15.2,12.25q11.4,10.3 12.8,26.95l0.1,1l0.55,7.85q12.75,-16.95 14.25,-19.8l0.4,0.25l0.55,0.85l0.45,0.85q-3,8.7 -14.4,21.1q2.3,2.8 2.8,6.55q0.25,1.5 0.1,3q1.45,1.75 2.15,3.75l28.8,8.85l0.75,0.35l0.55,0.75m-45.4,-12.45l0.3,-0.15l0.3,0.6l-0.6,-0.45m-13.1,-50.85l1.05,5.6q0.75,0.85 1.65,1.25q-0.9,-0.4 -1.65,-1.25l-1.05,-5.6m0.1,0.75l-0.05,0.05q-2.4,1.65 0.1,3.1l0.65,0.45l-0.7,-3.6m23.85,-15l7,10.95l-7,-10.95m10.9,30.75l0.4,0.1l-1.1,0.45q-1.5,0.6 -6.3,-7.2q6.1,7.05 7,6.75l0,-0.1m-16.95,32.4l-0.35,-0.95l0.4,1.1l-0.15,-0.1l0.1,-0.05"/>
   <path id="svg_42" fill-rule="evenodd" fill="#e8e1d0" d="m-66.5,-109.5l0.15,0.05l-0.15,0.3l0,-0.35"/>
   <path id="svg_43" fill-rule="evenodd" fill="#7b1c04" d="m-61.25,-68.9l0.1,0.65l1.5,7.6l0.95,4.25q-6.15,-6.6 -7.35,-8.4l2.3,-1.95l0.1,-0.1l2.4,-2.05"/>
   <path id="svg_44" fill-rule="evenodd" fill="#543d25" d="m-56.05,-28.3l0.9,1.15l3.45,3.8l3.55,3.3l-8.3,3.05l-4.35,-1.3l-3.15,-4.9l7.9,-5.1"/>
   <path id="svg_45" fill-rule="evenodd" fill="#0255a8" d="m-19.55,-106.75l4.75,10.35l1.45,3.9l-2.45,4.3l-1.05,1.75l-0.1,0.15l-0.35,0.6q1.05,0.75 2.15,2.4l0,5.35l1,2.45l0.75,1.6l0.25,0.4l1,1.6l5.45,7.95q1.45,2.25 2.65,6.55l0.05,0.15l0.4,1.25l0.15,0.65l1.3,3.25l0.8,1.5l3.55,6.05l0.85,1.55q-1.75,1.6 -1.05,10.5l-2.2,-9q-0.8,-4.4 -6,-13.05q-5.4,-19.65 -5.2,-6.15q0.15,13.45 -6.1,-24.25l-0.7,-1.4q-3,3.05 3.7,-5.95q-8.45,-14.75 -6.8,-12.55q1.6,2.2 2.1,1.75q-1,-2.15 -0.35,-3.65m1.15,59.5l0,-0.85q1.6,3.95 7.05,11.1q-5.1,-0.2 -6.45,-2.1q-0.15,-4.25 -0.6,-8.15m7.65,8.05l0.95,-0.2l-0.85,-0.15q0.05,-5.1 -0.35,-8.15q1.85,5.4 2,6.7q0.1,0.55 2.85,2.95l-3.35,-1.2l-1.55,0.65l0.3,-0.6"/>
   <path id="svg_46" fill-rule="evenodd" fill="#d5c8aa" d="m-21.25,-110.5l0.2,0.4l-0.2,-0.4"/>
   <path id="svg_47" fill-rule="evenodd" fill="#014383" d="m5.65,-38.15l0,0.05l0.25,0.3l1.9,3.25l-3,1.75q1.45,2.9 1.5,3.6q0,0.75 -2.2,2.85l-0.55,-0.75l-0.75,-0.35l-28.8,-8.85q-0.7,-2 -2.15,-3.75q0.15,-1.5 -0.1,-3q-0.5,-3.75 -2.8,-6.55q11.4,-12.4 14.4,-21.1l-0.45,-0.85l-0.55,-0.85l-0.4,-0.25q-1.5,2.85 -14.25,19.8l-0.55,-7.85l-0.1,-1q-1.4,-16.65 -12.8,-26.95q8,-5.55 15.2,-12.25q3.25,4.1 6.85,8.1l0.25,-0.15l2.25,3.5q1.05,0.55 2.45,0.45l0.15,0l-0.15,-0.25q-2.65,-4.8 -7.65,-15.55l0.9,-0.65q3.4,-2.1 4.45,-4.65l1.5,3.35q-0.65,1.5 0.35,3.65q-0.5,0.45 -2.1,-1.75q-1.65,-2.2 6.8,12.55q-6.7,9 -3.7,5.95l0.7,1.4q6.25,37.7 6.1,24.25q-0.2,-13.5 5.2,6.15q5.2,8.65 6,13.05l2.2,9q-0.7,-8.9 1.05,-10.5l2.2,4.15l0.4,0.7m-49.65,-3l1.4,0.4l0.25,1.15l-1.65,-1.55m23.15,-47.7l-0.35,-0.6l0.35,0.6m1.3,15.7l0,0.1q-0.9,0.3 -7,-6.75q4.8,7.8 6.3,7.2l1.1,-0.45l-0.4,-0.1m1.15,25.9q0.45,3.9 0.6,8.15q1.35,1.9 6.45,2.1q-5.45,-7.15 -7.05,-11.1l0,0.85m7.65,8.05l-0.3,0.6l1.55,-0.65l3.35,1.2q-2.75,-2.4 -2.85,-2.95q-0.15,-1.3 -2,-6.7q0.4,3.05 0.35,8.15l0.85,0.15l-0.95,0.2"/>
   <path id="svg_48" fill-rule="evenodd" fill="#965e50" d="m-5.8,-9.8l9,-0.7l0.75,-0.15l0.9,3.8l0.05,0.25q-9.1,0.45 -17.8,3.4l-0.15,-0.45l-0.15,-0.5l-0.1,-0.5l0,-0.1l1.7,-5.1l5.8,0.05"/>
   <path id="svg_49" fill-rule="evenodd" fill="#715133" d="m-13.05,-3.65l1.05,2.7q1.55,2.85 4.3,4.4q6.7,-0.65 12.75,-3.4l-0.1,-5.75l-0.05,-0.85l0.6,2.7l1.6,3.1q0.9,1.45 0.7,2.25q-0.3,1.15 -6.85,4q-2.4,1 -5.85,1.1l-4.9,-0.45q-1.8,-0.5 -3.8,-6.65q-0.4,-1.4 0.3,-4.25l0,0.1l0.1,0.5l0.15,0.5"/>
   <path id="svg_50" stroke-width="0.05" stroke-opacity="0.223529" stroke-linejoin="round" stroke-linecap="round" stroke="#663300" fill="none" d="m77.35,-133.65l0.05,0.1m0,1l-0.1,0l-0.75,0l1.05,0.55q2.3,1.5 4.4,5.45q1.5,2.95 2.05,6.45q0.9,6.15 -1.4,13.95q-3.6,12.25 -4.25,20.6l-0.75,8.1l-0.2,1.4l-0.8,-1.6l-0.35,0.5l-0.85,1.3m-0.15,0.2l-2.05,3.1l-6.65,9.85l-5.25,1.1l3.45,1.45q-2.55,3.65 -3.9,4.95l-0.05,0.05l0,0.05q-1.25,1.1 -1.4,0.45q-0.2,-0.55 -2,-0.55l-0.1,0q-3.55,0 -14.65,1.85l-1,0.75l-3.7,2.95q0.65,-0.55 0.95,-2.3l0.2,-1.45l-1.85,2.1q-6.1,6.3 -12.65,8.1l-16.3,4.35l-1.55,0.4l-1,0.3l-0.15,0l0,0.05l0.25,0.3l1.9,3.25l-3,1.75q1.45,2.9 1.5,3.6q0,0.75 -2.2,2.85m-0.25,0.2l-0.15,0.15l-0.4,0.4l-1.1,0.95l-2.9,2.35l-0.2,0.15l-2.9,2.2l3.2,0.75l1.95,0l0.4,-0.05q6.05,-0.8 22.15,-6.9q10,-3.85 19.1,-7.75l13.8,-3.65l1.65,-0.45l2.1,-0.55q9.15,-3.5 9.95,-4q1.25,-0.9 2.9,-1.25l0.95,-2.1l1.4,-0.45l3.2,-0.3q4.6,0.4 5.35,5.9q-1.45,-2.75 -4.6,-3.15q-3.7,-0.55 -6.3,0.1l-0.6,1.25q-0.3,1.5 -1.95,3.6q-2,2.5 -4.15,3.1q-3.05,0.7 -8.25,-2.15m21.6,-81.35q-0.25,5.55 -5.85,13.75l1.15,-7.95l2.05,-3.15l2.65,-2.65m-56.35,-82.4l-2.15,-0.05l-5.35,0.85l-9.4,2.6l-4.35,1.45l-2.3,0.8l-6.1,1.95q-3.25,0.9 -6.1,0.95l-2.3,-0.1l-0.1,-0.05l-0.05,0l-1.35,-0.4q0.45,1.1 1.25,2.05q1.65,2.1 4.65,3.6l-3.4,0.95l2.55,2.7l0.05,0l-0.05,0m0.55,0.1l3.65,0.15m30.3,-17.55l3,0.1l2.2,0.35q0.7,0.2 1.25,0.6q0.9,0.65 -1.25,0.95l-1.55,0.15q-4,0.25 -10.15,3.4l-1,0.5l0,0.05q-5.05,2.8 -9.3,6.45q-2.55,2.1 -4.45,5.15l-2.3,4.35l-0.1,0.35q-1.4,3.25 -2.1,5.85l-0.9,4.1q-0.3,3 0.4,5.85l0.4,1.3l0,0.2l1.15,3.05l0.35,1q0.75,1.9 1.45,3.1l0.15,0.15q0.65,1.25 1.5,2.25l0.1,0.15l0.15,0.15l2.4,2.1q0.2,0.15 0.45,0.25l3,1.55l22.6,-6.35q-15.25,9.1 -14.55,12.9q0.1,0.6 0.6,1.1l0.95,-0.45l1.3,-0.9l13.25,-5.1l0.75,-0.25l4.75,-2l6.35,-2.65l23.35,6.25m0.3,0.1l5.55,1.45l0.55,1.75l0.3,0.8l2.7,7.7m-67.2,-59.05q3.35,-1.9 6.1,-2.85l1,-0.35m-60.1,-32.25l2.4,-1.6l0,-0.05l0.25,-0.15l0.05,-0.1l0.9,-0.65l0.45,-0.35l3.05,-2.6m-7.4,5.7l0.3,-0.2m-0.3,0.2l-0.25,0.1q-1.9,0.8 -6.5,0.85l-3.95,0.5l2.15,1.2m-10.45,2.2l0.4,0.25m0.15,-0.25l1.25,1.15l0.25,0.15l-0.3,-0.15m34.85,-2.85l-1.6,-0.8l-3.65,-1.45q-2.85,-1.1 -5.95,-1.4l-0.05,0l2.85,-1.85l-6,1.7l-0.65,-0.15m0.5,-0.55l0,-0.05l-0.1,-0.6m0.25,1.35l-0.15,-0.7l-0.25,0.3l-0.25,0.25m3.85,0.3l1,-0.55l0.9,-0.25l0.1,-0.05q3.25,-1 6.65,-0.5m2.55,5q3.65,1.85 6.2,6.4l0.2,0.3l0,0.05l0,-0.05l3.3,-2.5l0.15,-0.1l0.35,0.55l0.4,0.5l-2.85,5.6l-0.05,0.1l0.4,4.45q0.05,1.45 0.9,2.5q1.3,1.85 4.35,2.45l-5.1,2.8l0.05,0.45l0.2,4.1l0.3,0.65l0,0.05l0,0.05l0,-0.05l2.9,-3.75q0.85,-0.55 1.35,-0.5q0.45,0.05 0.45,0.75l-0.05,0.3l-2.2,6.7m-15.9,-16.65l-0.2,0.15l0.15,0.3l0,0.05l0.7,1.5l6.8,-6.25m-3.9,1.55l-3.55,2.7m0.6,2l0.05,0l1.3,3.05m0.15,0.4l0.15,0.35l0.35,0.85l2.65,1.7l0.6,0.45l1.2,-2.4l0.1,-0.25l0.1,-0.2l5.1,-10.25m-4.8,1.4l0.15,-1.6l-0.25,0.25m0.25,1.2l0,0.05l0,-0.05l0.1,-0.45l-0.1,0.5l-0.45,1.55l0.3,-1.45l0.15,-0.1m-0.4,1.6l0.4,-1.6m0.5,-0.35l-0.5,0.3m-0.9,3.55l0.5,-1.9m-1.2,7l0.7,-5.1m2.55,-7.65l1.7,-1.25m-1.7,1.25l-5.8,4.45m-12.45,12l0.3,-2.7m8.4,23.3q-1.1,-0.65 -3.4,-5.45q-2.25,-4.8 -2.45,-3.95q-0.2,0.85 -0.65,1.35l-0.45,0.45l-0.05,-0.2q-1.05,-3.7 -1.45,-6.9q-0.4,-3.1 -0.25,-5.9l-10.65,-11.9l-2,-2.25m-1.25,4.05l0.85,1.8l1.15,2.55m4.7,4.65l1.45,-1.25m26.6,1.45l-0.8,0.1m1.75,-0.6l-0.95,0.5m24.3,11.1l0.05,-0.05l1.65,-1.05l0.75,-0.45l0.45,-0.3l0.25,-0.15l0.95,-0.55m-25.95,-0.75l-0.95,-3m13.65,13.55l0.85,-0.75l2.45,-2.2l2.3,-1.8l3.55,-2.5m-19.05,7.2q0.55,-0.1 0.85,-0.5l-0.85,0.5l-5.55,0.15l-2.6,-0.2l-2.7,0.75m0.05,0.25q1.25,1 2.7,1.65l0.65,-0.5m9.95,-3.25l-0.05,0l-0.15,-0.05m0,0.15l0.2,-0.1l0.3,0.05m-1.95,0.6l1.45,-0.55m-5.9,-4.5l2.05,2.5q1.45,1.35 3.8,1.85m-4.35,7.4l-0.75,0.2l0.4,0.1m0.35,-0.3l2.75,-1q5.05,-1.5 9.25,-5.15m-11.8,11.85l2.05,0.4l0.05,0.05q1.45,0.8 2.55,1.8q1.15,0.95 1.85,3.25q-1.5,-7.15 -2.1,-7.65q-2.8,-2.45 -4.95,-3.25m-2.1,5.95l2,-0.5l0.65,-0.05m-14.7,20l2.3,1.55m18.9,-16.05l0.2,0.75l0.35,1.55l0.05,0.15l0.15,2.1l0,0.65l0,0.25l-0.15,1.4l0,0.1l-0.4,2.95l-0.45,2.2l-2.5,8.35l-0.4,0.8l1.95,0.6l4.3,1.65l0.65,0.25l4.85,2.25q6,2.9 10.6,6.45l3.5,2.1l1.95,1.3l0.3,0.2l1.65,1.15l0.25,0.3l4.15,-0.55m-21.45,-25.15l-6.35,-7.3m-2.6,-2.05l-0.05,-0.15l-0.45,-1.85l-0.1,-0.45m-1.05,8.85l1,-2l0.8,-1.4m-2.1,3.95l-0.1,0.2l-1.5,2.9l-6.75,4.95q-2.6,1 -4.7,3.2q-1.15,1.1 -2.1,2.55l-2.05,2.85l-1.2,1.6l-0.3,0.3l-0.85,0.55l-1.4,0.7l-0.3,0.1q-1.5,0.65 -2.45,0.5q-0.65,-0.05 -2.15,-1.05l-0.15,-0.15l-1.5,-1.1l-3.1,-2.15m-0.25,-0.2l-2,-1.45l-4.95,-4.7l-0.35,0.35l-0.8,0.55q-0.65,0.45 -1.25,0.75l0.7,3.7l-0.35,0.35l-0.25,0.15l-0.4,0.35l-0.75,3.85l-0.35,1l-0.65,0.1q-2.75,0.45 -3.6,1.2q-0.55,0.45 -3.85,1.95l0,0.35l0.2,0.95q-0.2,2.8 1.35,2.85l2.15,-0.7l0.2,-1.4l0,-0.1l0.05,-0.15l-0.1,-1.45l-0.1,-0.5m10.95,11.65l5.95,-0.45l0.7,-0.1l0.1,0q1.45,-0.2 3.55,-0.95l2.75,-1.05l2.7,-1.8l0.25,-0.2l0.65,-0.5l0,-2.8l0,-1.8l1.45,-2m-16.25,-25.2l-0.85,-0.45l-1.1,-0.8l-1.8,0.15l-0.15,0.1l-0.75,0.4q-1.75,1.2 -3,3.6q-0.85,1.6 -1.15,3.1m-0.15,1.45l0.05,0.55q0.1,1 0.95,2.1q0.85,0.45 1.7,0.35m-0.1,-0.65q-1.3,-1 -1.95,-2.5m41.45,-5.95l0.3,-0.55m10.6,2.95l1.35,1.55m-23.65,-30.8l-1.6,-0.15m-2.25,0l1,0.95l0.15,-0.05m-1.9,2.1l-2.35,-1.3l-3.05,-2.45m5.4,3.75l0.05,0q1.5,0.65 2.95,0.8l1.55,-0.2l1.4,-0.15l-1.3,-0.65m-8.5,1l1.5,0.8m-1.5,-0.8l-0.8,-0.4l-0.85,0.05m1.65,0.35l-1.6,2.05l-0.35,0.9m8.8,1.05l1.55,-0.15l1.4,-0.6q0.8,-0.45 1.6,-0.55l0.35,-0.1l2,0.2m-14.55,-3.2l0.75,-0.05l3.9,-0.35m-6.05,4.7l3.05,0.15l0.4,0l2.95,0l2.65,-0.05m-7.45,3.35l-0.85,-1.05l0,-0.1l-0.1,-0.05l-0.05,-0.1l0,-0.05l-0.2,-0.3q-0.5,-0.85 -0.4,-1.8l0.25,-0.95m0.35,3.1l4.55,0.1m-3.2,1.8l-0.35,-0.6m0.35,0.6l0.1,0.15l3.1,0.25l2.4,-2.2l-2.4,0m-16.85,13.3l5.65,-0.65l4.45,-1.1l0.2,-0.15l0.05,-0.05l5.2,-4.3l0.05,-0.05l6.05,-4.95l0.3,-0.25m-2.25,-10.6l-0.2,-0.2m-23.1,-3.1l1.6,4.45l-0.1,0.5l-0.25,1.4l-2.45,1.55l-0.7,0.45l-1.9,1.25l-0.1,0.15l-0.65,1.3l1.7,-0.15l0.35,0l0.1,-0.05l0.6,-0.05l1.75,0l0.3,0l0.7,-0.1l0.25,-0.05l0.4,0.15l0.35,0.1q0.95,0.35 1.65,0.85l0.45,0.35l0.2,0.15l0.3,0.35l0.7,1l0.1,0.2l0,0.1q0.65,1.35 0.7,2.55l0,0.15q-0.05,0.85 -0.35,1.65l-0.45,0.7l-1.55,2.3q1.7,-1 3.45,-2.1m-6.95,-8.55l0.8,-0.4q1.9,-0.95 3.35,-1.8q2.25,-1.35 3.3,-2.4l0.2,-0.2l0.55,-0.45m-8.4,-5.35l-1.75,-4.8l-2,0.85l0.15,3.55l-1.8,-3.75l-2.3,1.35q-1.75,1.1 -3.4,2.1l1.35,2.7l0.45,0.15q1.35,0.55 2.55,2.1l0.85,1.25l2.2,0.25l0.1,0m0.15,1.15q0.5,0 0.85,0.35l0.05,0l2.05,-1.2l-1,-3.2l3,2.1m-1.3,5.65l0.8,0l0.2,0.05m10.15,5.85l6.85,-1l-0.85,-1.45m-15.7,0.55l-0.35,0.3l-3.2,2.9m4,-1l0.65,-0.75l2.6,-2.15m-1.1,-1.65l-2.6,2.35m0.45,2.2q-1,1.3 -0.65,2.15q0.65,1.65 1.5,2.3l0.75,0m0.65,6.55l0.8,0.4q3.95,0.35 6.6,-0.15l1.7,-0.5l1.75,-0.95q2,-1.5 5.85,-4.55l3.45,-2.7l1.15,-1.4m-21.45,9.75l0.15,0.1l-0.15,-1.2l-0.6,-1.2l-0.35,-0.4l-0.6,-0.45l-0.1,-0.1l-0.5,-0.15q-1.2,-0.35 -2.65,0.4l-1,0.55l-1.6,1.35l-2.05,2.75l-0.05,0.05l-0.1,0.1l0,0.1l-0.1,0.1m-0.25,0.55q-1.45,2.7 -1.75,5.25l0,1l0,0.8q0.15,1.35 1.3,2.9l0.45,0.2q1.25,0.65 2.9,0m5.1,-13.95l0.35,0.1l0.1,0.05l0.6,0.6l0.05,0.05m11.95,6.05l1,-1.15l1.05,-1.05l0.65,-0.65m-0.6,3.75l-2.1,-0.9m-10.15,-5.1l5.45,3l4.05,1.8m14.9,-18.2l-1.85,0.7m-0.15,1.95l0.65,-0.8m-1.05,-0.95l0.55,-0.2m-0.55,0.2q-0.25,0.15 -0.5,0.2m-4.55,10.95l0.1,-0.25l0.7,-1.5l1.6,-3.05l1.65,-2.7l1.4,-1.9m-9.35,-1.95l0.05,0.4m2.15,12.55q0.75,0.45 1.55,-1.3l-1.4,1.15l-0.15,0.15l-0.6,0.45l-0.1,0.1l-0.1,0.05l-1.6,1.4m3.95,-3.3l0.15,-0.3m0.95,-5.85l1.45,-1.65m-4.05,-5.05l-2.25,1.2m-0.8,18.7l0.1,0.05m2.9,23.35l2.45,-3.45l0,-1.55l3.8,-3.05l0.45,-0.3l5.75,-4.9l0.6,-0.55m-34.8,13.65l0.75,-1.95l0.5,-1.35m-8.3,0.95l-0.1,1.35l-0.15,0.05l0.05,1m20.3,8.25l0.4,0.3l0.55,0.35l0.05,0.4l0.75,4.45l0.2,1.15l0,0.25l-0.85,0.3l-1.25,0.35q-9.5,2.8 -18.4,1.85m23.9,-12.45l0,-0.05l-1.65,-0.65m3.9,8.35l-0.8,-5.5l-0.2,-1.6l-0.9,-0.4m-5.7,2.9l-1.15,-0.7l-0.5,-0.3l-0.05,-0.05l-0.55,-0.4l-0.05,-0.05l-0.35,-0.2l-0.05,-0.05m3.7,3.3l0.75,3.95m-0.75,-4.45l-2.7,0.8q-6.95,1.7 -15.3,1.25m25.4,-11.45l-0.55,-0.35l-0.55,-0.35m1.1,0.7l0.3,0.2l0.3,0.2l1.4,0.95l0.35,0.95l2.6,1.25l1.55,6.05l-1.1,0.7l0.4,0.95q1.7,0.4 -1.7,2.7l0.95,2.2l0.75,1.55m0.2,0.4l1.5,3.35l4.75,10.35l1.45,3.9l-2.45,4.3l-1.05,1.75l-0.1,0.15l-0.35,0.6q1.05,0.75 2.15,2.4l0,5.35l1,2.45l0.6,-0.15q5.1,-1.2 7.25,-2.55l0.4,-0.25q2.1,-1.8 12.45,-8.3q-6.3,5.55 -5.95,6.8l13.5,-1.55l12.35,-1.5l24.5,-10.55l0.45,-6.2l0.25,-5l0.05,-2.95q0.1,-5.5 -0.5,-8.45q-0.25,-1.3 -1.05,-2.9l-0.05,-0.2q-2.2,-4.55 -8.25,-11.8l-0.25,-0.25l-1.5,0.2l-17.3,2.15m-47.5,3.05l0.65,1.65l-4.6,3.5m5.2,3.95l1.8,-1.1m-7.2,6.35l1.25,-2.65l4.15,-2.6m11.85,-27.8l-0.2,0.35q-0.6,1.05 -1.9,2.45m47.2,-1.25l-5.8,7.6q-1.25,-1.65 -9,-4.4l-1.5,-0.8m16.65,-2.45l-0.05,0.05q-3.05,6 -0.7,7.75l0.4,0.3l1.85,0.6l0.4,0.15l16.85,-5.65m0.65,0.2l1,-2.9m0.3,-1l0.5,-1.5l5.35,0.25l13.35,0.65m-39.9,1.1l0.7,-1.3l-0.95,1.35m-0.1,8.05l0.95,0.7m1.3,0.05l2.7,0.9l0.85,0.3l17,-2.1m0.55,0l0.85,-0.05l4.2,-0.45m0.35,-0.05l0.5,-0.1l5.5,-2.6l0.2,-0.25l0.8,-1.2l0.55,0.6q3.15,3.6 4.9,5.25l0.95,0.8l0.9,0.65l-1.55,0.1l-2.2,0.1m-0.85,4.7l3.85,-1.2l-6.85,5.1l0,-0.85l0,-2.15l2.85,-0.9m-54,-0.65l0.6,-0.05m24.2,-3.1l-0.8,0.1l-0.2,0.05l-1.1,-1.35l-1.05,-0.4m-0.15,0l0.15,0m1.05,0.4l2.2,0.75l3.9,1l12.5,-0.7l3.6,-0.25l12.5,-0.9m-12.95,-2.95l-0.35,0.05m-7.35,-7.95l-0.3,1m-116.9,-79.2l0.1,0.1l-0.1,3.3l-0.1,2.3l0,0.85l0,0.65l0,3.1m0,0.45l0.1,1.65l0.05,0.15l0.05,0.55l0.05,0.2l0.35,-0.6m0.45,-0.35q0.25,-5 1,-8.1m-2.05,-4.35l0.1,0.1m0.25,0.05q-0.1,-0.15 -0.35,-0.15l-2.95,-1.75m4,14.6l0,-0.4m8.65,-1.3q-3.5,-6.85 -9.35,-11m7.45,11.4l0.7,0.9m-19.1,-6.45l2.05,1.3m-0.2,0.05l-1.75,0.45l1.85,-0.15q0.85,0.15 -2.05,1.1m3.2,0.4l1.3,0.25l1.15,0.35m0.8,0.35l2,1.25l0.2,0.15l0.1,0.05l1.8,1.8l0.15,0.1l0,0.05l0.1,0.1l0.05,0q0.15,0.05 0.1,-0.2m-7.75,-4.25l-3,0.1l0.75,3.4q0.35,2.8 0,5.85l-0.45,2.6l-0.3,1.3q-1.2,4.55 -0.95,9.35q0.15,3.1 0.7,4.55l0.25,0.6m1.95,-3.25q-0.8,-2.5 -0.9,-5.9m0.55,-21.9l-0.1,0l2.85,-0.35m1.9,4.6l-0.8,-0.35m5.15,-6.25q-0.25,0.15 -1.05,-0.5q-0.8,-0.65 -7.95,2.85m3,12.55l0,2.15l0.25,1.8l0.45,1.5l0,0.05m0.15,0.3l1.25,2.75q2.15,-1.05 3.95,-0.75l0.65,-0.15m-1.9,-10.65l-1.3,-0.65l-5.05,-2.3m1.55,5.95l0,-0.6m2.8,16.7l-2.35,-3.6l-0.4,-0.7q-1.6,-3.35 -2.3,-7.25l0,-0.1l-0.05,-0.1l-0.2,-1.3m8.25,6.15l-0.7,1.65m-4.15,9.15l2.15,-0.7l3.05,0.05q-0.15,-3.1 -1.3,-6.15l-1,-2.35l-0.9,-1.15l0,-0.05m-0.2,-0.3l-0.6,-0.8m14.85,-7.65l4.25,-4.2m-4.25,8.8l3.4,-2.95l0.35,-0.2m0.15,-1.9l-1.25,-0.4l-3.3,2.15l-1.8,3.75m-4.9,4.4l0,-0.2l0.3,-0.1q0.35,-0.35 1.2,-0.7m-4.3,2.2l1.35,-0.95m2.35,-0.2l-1.35,1.4l0.45,-1.45m6.85,-4.4l-0.85,0.75m-3.85,13.2l-3.15,-3.3l7.2,-5.5l3.6,1.05l0.35,0.95m-6.5,-9.4l0.65,-1.25m2.05,-0.4l-2.3,2.45m-5.9,4.7l-1.85,-0.5m0.6,3.1l-1.1,0.8m-0.6,-15.6l1.3,0.85m-0.05,-2.65l-1.25,1.8m2.15,-2.55l-0.1,1.15m3.55,21.6l-0.45,-0.7m-3.1,3.55l0.65,-0.1l0.05,-0.05q-1.1,-0.6 -1.45,-0.55m1.55,0.6l-0.15,0l-0.8,1.6q-0.2,1.55 0.3,3.6q0.5,2.05 1.8,4.55l0,0.1l0.1,0.2l0.55,1l0.3,-0.2l3.25,-2.35l0.7,-1.05l1.1,-1.15l1.25,-0.85l0.3,-0.15l-0.3,-0.7l-0.25,-0.7l-0.2,-0.45m-8.05,-3.5l0.1,0.05l1.15,-0.2l2.95,0.15m5.95,7.6l0.65,-1.35l0.75,-0.75l-0.15,-0.25m-2.75,6.5l-0.1,-0.85l-0.05,-0.05l0.9,-1.8m-0.65,3.4l0,0.05q0,1 -0.25,1.4l-2.2,3l2.25,2.8q1.6,-0.8 2.8,-0.4l0.2,-3.1l0.5,-0.4m-3.3,-3.35l-0.1,-0.7m2.8,-2.85l0.35,0l0.35,-0.05m-1.65,-3.95l-1.7,0.45m-2.55,-10.15l-0.4,-0.95m-13.2,6.75l0.4,-0.65m-6.75,17.05l1.75,2.65l1.35,1.5q1.3,1.15 3.35,1.7l3.5,0.6l2.55,0.75l1.3,0.8l2.35,1.55l0.8,-1.65l0.05,-0.1l0.6,-1.05l0.7,-1q1.25,-1.75 2.85,-2.8l0.4,-0.3l0.7,-0.35m-15.2,-19.6l-0.15,0.05l-0.15,0.2m-0.4,0.65l-1.85,2.75q-1.25,0 -2.2,1q-0.95,0.95 -1.5,3.05l-1.05,0.4l-0.1,0.1m-0.6,0.35l0.05,1.45l0.1,1.45l0.05,1.6l-0.75,1.5l0.85,1.6l0.65,1.15m3.5,-22.05l0.05,0.15m0.7,1.65l-0.55,-1.45m23.3,24.9l2.7,1.7m-4.65,-3l0,0.05l1.65,1.1m-11,7.85l0.25,-0.65l0.2,-0.7m-0.95,4.85l0,-0.25q0,-1.6 0.5,-3.25m4.3,-11.4l-0.35,-0.45m5.85,19.15l0.65,0.5l1.05,0.65m-1.05,-0.65l-0.55,0.15m-9,-1l0.25,0.15l0.6,0.3l4,2.5m-4,-2.5l-0.5,-0.25l-0.1,-0.05m-1.65,-3.6q0.1,2.45 1.4,3.45m6.7,12.85l0.1,-0.3m-0.1,0.3l-0.35,1l-1.25,0.65q-1.35,0.8 -1.8,1.65l-0.05,0.05l-0.35,0.7l-0.15,0.4m-10.45,2.8l-0.15,-1.05l-1.85,0.9l-0.75,0.8q-0.8,0.95 -0.8,1.5l0.05,0.5l0.6,2.8l0.15,0.5m4.85,1.15q-1,-0.15 -1.5,-0.8l-0.45,-0.25l0.15,-0.1l0,-0.05l0,-0.05l0,-0.15l0.05,-1.3m-0.3,-4.15l0,0.35l0.25,1.55l0,0.05l0.05,0.45m-0.35,-2.65l0.05,0.25l2.55,-3.45l3.05,-0.75l0.75,-0.35m-3.7,8.3l-0.95,0.55l-1.4,1.3l0,0.05l0.05,0.1l1.85,1.15l0.05,0l1.05,0.35q1.55,-0.05 2.3,-1.55l0,-0.1l-0.1,-1.15m-5.1,1.35l-0.05,-0.05l-0.05,-0.05l-0.05,-0.05l0.05,-0.05l-0.05,0m0.05,0.1l-0.05,0l0.05,0m0,-0.05l0,0.05m0.25,0.35l-0.15,-0.25m1.85,1.3l0,-0.1l-0.2,-0.15l0.15,0.05l0.05,0.05l0,-0.05m0,0.05l0,0.05l0.8,0.45l0.05,0.05l-0.85,-0.55m0,0.15q-0.3,3.15 -2.6,4.45q0.35,3.1 -1.35,3.4l-0.4,0.1l1.1,3.3l0.35,0.15l0.15,0.05m1.2,0.45q2.7,1.15 2.6,2q-0.2,1.45 0.6,3.1q0.8,1.8 2.5,2.7l0.75,0.35l4,0.2q0.95,-0.35 2.85,-1.75q0.55,-0.4 0.8,-1.4l0.15,-0.75q0.2,-1.25 2.1,-1.65l8.4,-2l4.1,-1.1l1.25,-0.35l0.15,0l0.4,-0.15l0.15,0l1.2,-1.15l-0.35,-2m-35.45,-9.7l-1.2,0.95l-0.05,7.05l1.55,-1.5m-0.15,-6.65l-0.15,0.15m0.3,4.85l0,0.1l0.1,-0.1l1.5,1.8l0.85,-0.45m-2.45,-1.35l0.1,-0.3m0.6,5.15q-1.35,0.15 -1.9,-0.25l-0.35,-1.4l0,-0.05m3.85,-5.35l-2.2,2.2m13,-12.95l0.1,-0.3m-0.1,0.3l0,0.15m-3.75,-0.65l-0.95,1.35l-0.25,0.95l-0.4,1.1q-0.35,0.45 -0.3,1l0.05,0.15l0.2,0.35l0.6,0.75l0.2,0.2q1.3,1.4 3.7,2.6q4.25,1.6 6.9,1.7q1.95,0.1 4.75,0.05m-16.35,-5.65l0.1,0.45l0.05,0.15l0.05,0.2l0.05,0.1m8.2,-64.45l0.15,0.5m1.65,0.2l0,-0.5m-9.95,93.6q0.35,2.75 1.35,4.75l5.1,2.05l-1.2,-6.5m5.85,-3.65l-0.2,-3.8m-10.9,7.15l-0.15,-2.15m-5.5,-10.55l-0.35,7.15q-0.45,10.25 -0.3,13.35q0.15,2.1 3.85,7.65l1.55,9.15l0,0.1l0.05,0.3l0.45,2.55l0.1,0.65l1.5,7.6l0.95,4.25l1.35,1.45l0.1,0.1l2.3,2.45l10.95,11.25m1.65,1.55l0.45,0.35m1.2,0.9l0.95,0.7l3.3,2.1l4.2,2.5m0.45,-2.4l-0.25,-0.65l-1.65,-5.2l0,-0.1l-0.15,-0.45l0,-0.1q-2.15,-7.35 -1.95,-9.3l0.05,-0.4l-0.05,-0.45q-0.15,-1.5 -1.15,-3.75q-1.65,-3.7 -1.9,-4.7q-0.4,-2 -4.25,-9.45l-1.95,-3.9l-2.2,-4.05l-0.1,-0.25q-0.8,-1.7 -1.3,-4.3l-0.15,0l-0.05,0l-0.05,0q-1.05,0.2 -2,0l-0.8,-0.3q-0.9,-0.4 -1.65,-1.25l-1.05,-5.6m-12.1,-19.85l0,0.35m16.75,9.35l0.3,9.75l0.5,5.45l0.3,2.1m-20.2,15.45l0.2,0.15m82.6,53.9l0.25,-0.1l0.25,-0.05l5.85,-1.6l-6.7,-0.45m-0.25,-0.05l-10.55,-3.2l-1,-0.5l-0.45,-0.25m-70.2,-47.85l7.15,-4.4m-4.35,6.65l2.3,-1.95m0.1,-0.1l2.4,-2.05m-4.8,4.1l-0.3,-0.45m-2.3,-0.5l0,2.5l1.65,1.35q1.75,1.65 2.15,3.3l2.95,13.15l0.9,4.25l0,5.35l1.5,2.6l3.45,4.95l0.9,1.15l3.45,3.8l3.55,3.3l1.5,1.2q3.25,2.4 6.7,3.85l1.1,0.45q2.95,1.1 6.3,1.95l13.95,2.3l0.25,0.05l2.7,0.2l1.25,0.05l3.1,-0.65l-0.3,0.8l5.8,0.05l9,-0.7l0.75,-0.15l7.45,-1.7l0.05,0l1.5,-0.4l0.95,-0.25l0.05,0m-72.65,-43.4q-6.15,-6.6 -7.35,-8.4m10,36.5l-7.9,5.1l3.15,4.9l4.35,1.3l8.3,-3.05m95.5,-58.2l0.95,0.15l0.4,0l4.1,0.15l9.7,0.35l0.3,0l13.5,0.45m-31,-1.45l2.05,0.35m-3.85,15.1l-0.8,3.8l-0.65,2.8l13.15,1.2l2.15,0.15m-13.7,-8.75l-0.15,0.8q-8.9,3.25 -13,5.9l-3.55,1.9l-2.55,1.15l-0.7,0.25l-0.7,0.25q-7.75,2.9 -15.65,6.65m36.5,-7.25l-0.3,0.3l-0.85,0.65l-1.1,0.2m22.55,-19.6q-0.35,-0.5 0.4,-1.1q0.9,-0.7 2.05,-0.7q1.2,0 2.05,0.7l2.6,-0.05l-3,0.8l-0.05,0.05q-3.25,1 -3.9,0.45l-0.15,-0.15m-5.35,15.25l-5.65,-6.45m7.4,8.45l-1.75,-2m-57.85,-21.95q-0.25,-0.2 -0.35,-0.5m-21.65,-30.15l-0.2,-0.4m0.05,21.05l0.35,0.6m-2.1,-25.4l-0.6,0.4q-1.65,1.05 -5.3,2.3l-3.45,1.1l-0.05,0.05l-0.35,0.1l-1.65,0.5m10.9,16.85l-7,-10.95m9.25,14.45l-2.25,-3.5m-18.9,53.35l-1.65,-1.55m30.85,-32.35l-0.25,-0.4l-0.75,-1.6m10.55,19.5l-0.4,-1.25l-0.05,-0.15q-1.2,-4.3 -2.65,-6.55l-5.45,-7.95l-1,-1.6m9.7,18.15l-0.15,-0.65m0.15,0.65l1.3,3.25l0.8,1.5l3.55,6.05l4.9,-2.35m-4.05,3.9l-0.85,-1.55m3.45,6.4l-0.4,-0.7l-2.2,-4.15m-15.05,42.05l-1.05,-2.7l-0.15,-0.5l-0.1,-0.5l0,-0.1q-0.7,2.85 -0.3,4.25q2,6.15 3.8,6.65l4.9,0.45q3.45,-0.1 5.85,-1.1q6.55,-2.85 6.85,-4q0.2,-0.8 -0.7,-2.25l-1.6,-3.1l-0.6,-2.7l0.05,0.85l0.1,5.75q-6.05,2.75 -12.75,3.4q-2.75,-1.55 -4.3,-4.4m-2.4,-9.05l2.8,0.15l-1.7,5.1m18.15,-2.1l-0.9,-3.8m0.95,4.1l-0.05,-0.3m-8.65,-13.1q-5.85,-1.75 -16.75,-7l-6.05,-3.05l-3.75,-1.95l-0.15,-0.15l-1.75,-0.95m1.75,0.95l-0.05,-0.05l-0.6,-1.55l-0.65,-1.75m-8.9,-2.9l-0.6,-0.45m61.6,24.05l2.05,-0.45l10.4,-1.8q8.3,-2.1 11.75,-5.55q5.2,-5.2 12.3,-15"/>
  </g>
  <g transform="matrix(1,0,0,1,62.7,201.05) " id="shape1">
   <path id="svg_51" fill-rule="evenodd" fill="#ffffff" d="m-52.8,-197.9l-0.7,-0.5l-0.25,-1.1l0.25,-1.2q0.3,-0.4 0.75,-0.35q0.45,-0.05 0.65,0.35q0.35,0.5 0.35,1.2q0,0.5 -0.15,0.85l-0.2,0.25q-0.2,0.5 -0.65,0.5l-0.05,0"/>
   <path id="svg_52" stroke-width="0.05" stroke-linejoin="round" stroke-linecap="round" stroke="#ffffff" fill="none" d="m-52.8,-197.9l-0.7,-0.5l-0.25,-1.1l0.25,-1.2q0.3,-0.4 0.75,-0.35q0.45,-0.05 0.65,0.35q0.35,0.5 0.35,1.2q0,0.5 -0.15,0.85l-0.2,0.25q-0.2,0.5 -0.65,0.5"/>
   <path id="svg_53" stroke-width="0.05" stroke-opacity="0.223529" stroke-linejoin="round" stroke-linecap="round" stroke="#663300" fill="none" d="m-52.75,-197.9l-0.05,0l0.05,0z"/>
   <path id="svg_54" fill-rule="evenodd" fill="#ffffff" d="m-61.95,-192.5l-0.55,-0.45l-0.2,-0.9l0.2,-1l0.55,-0.45l0.5,0.45l0.2,1l-0.2,0.9l-0.05,0.1l-0.4,0.35l-0.05,0"/>
   <path id="svg_55" stroke-width="0.05" stroke-linejoin="round" stroke-linecap="round" stroke="#ffffff" fill="none" d="m-61.95,-192.5l-0.55,-0.45l-0.2,-0.9l0.2,-1l0.55,-0.45l0.5,0.45l0.2,1l-0.2,0.9l-0.05,0.1"/>
   <path id="svg_56" stroke-width="0.05" stroke-opacity="0.223529" stroke-linejoin="round" stroke-linecap="round" stroke="#663300" fill="none" d="m-61.5,-192.85l-0.4,0.35l-0.05,0l0.45,-0.35z"/>
  </g>
  <g id="sprite0">
   <use id="svg_57" xlink:href="#shape2" width="102.95" height="45"/>
  </g>
  <g id="shape2">
   <path id="svg_58" fill-rule="evenodd" fill-opacity="0" fill="#ff00ff" d="m0,0l102.95,0l0,45l-102.95,0l0,-45"/>
  </g>
 </defs>
 <g>
  <title>background</title>
  <rect fill="none" id="canvas_background" height="482" width="329" y="-1" x="-1"/>
 </g>
 <g>
  <title>Layer 1</title>
  <g id="svg_59" transform="matrix(2,0,0,2,0,0) ">
   <use x="77.050003" y="232.5" id="svg_60" xlink:href="#shape0" width="381" transform="matrix(1,0,0,1,-192.55,-294) " height="381"/>
   <use x="381.27491" y="795.205529" id="svg_61" xlink:href="#text0" width="32.85" transform="matrix(0.2755,0.0352,-0.0352,0.2755,-61.7307,-120.2214) " height="67.3"/>
   <use x="77.050003" y="232.5" id="svg_62" xlink:href="#shape1" width="10.95" transform="matrix(1,0,0,1,-62.7,-201.05) " height="8.55"/>
   <use x="-63.634351" y="-36.88475" xlink:href="#sprite0" width="102.95" transform="matrix(1.8072000000000004,0,0,1.6538,74.00000305175784,72.9) " id="_mcMask" height="45"/>
  </g>
 </g>
</svg>