<?xml version="1.0" encoding="UTF-8" standalone="no"?>
<!DOCTYPE svg PUBLIC "-//W3C//DTD SVG 1.1//EN" "http://www.w3.org/Graphics/SVG/1.1/DTD/svg11.dtd">
<svg width="100%" height="100%" viewBox="0 0 490 765" version="1.1" xmlns="http://www.w3.org/2000/svg" xmlns:xlink="http://www.w3.org/1999/xlink" xml:space="preserve" xmlns:serif="http://www.serif.com/" style="fill-rule:evenodd;clip-rule:evenodd;stroke-linejoin:round;stroke-miterlimit:2;">
    <g transform="matrix(1,0,0,1,-155.155,82.2748)">
        <g id="Calque-1" serif:id="Calque 1" transform="matrix(1,0,0,1,155.155,-82.2747)">
            <g transform="matrix(1,0,0,1,103.887,379.355)">
                <path d="M0,-135.015C0.342,-135.009 0.684,-135.003 1.025,-134.996C12.811,-125.607 24.597,-116.218 37.052,-106.296C45.465,-124.527 53.503,-141.944 61.72,-159.751C69.829,-156.886 77.278,-154.253 85.11,-151.485C75.734,-126.032 66.532,-101.052 57.181,-75.664C58.748,-75.664 59.087,-75.594 59.377,-75.683C59.681,-75.777 59.936,-76.025 60.212,-76.206C68.763,-72.475 77.313,-68.745 85.865,-65.015C85.577,-64.277 84.766,-63.695 85.44,-62.19C101.215,-56.648 117.386,-50.967 133.642,-45.255C137.888,-50.305 141.938,-55.123 145.988,-59.941C161.16,-69.611 176.332,-79.281 192.001,-89.268C196.491,-75.838 203.023,-63.88 205.622,-50.642C207.764,-39.725 209.735,-28.811 213.116,-18.189C216.43,-7.776 219.593,2.685 222.752,12.896C224.269,13.156 224.764,12.538 225.156,11.759C242.469,8.469 259.783,5.179 277.166,1.876C280.495,-10.642 286.496,-22.514 280.935,-35.107C282.523,-37.707 284.958,-37.787 286.59,-39.099C286.591,-25.164 286.591,-11.229 286.591,2.849C284.607,3.559 283.086,4.176 281.522,4.652C264.341,9.883 247.157,15.103 229.964,20.292C227.667,20.985 225.311,21.49 225.811,24.736C213.187,23.659 200.702,21.733 188.429,19.096C186.486,2.453 184.605,-13.66 182.617,-30.688C171.066,-23.557 160.393,-16.968 149.72,-10.378C147.781,-9.857 145.261,-10.386 144.604,-7.547C141.956,-7.451 141.506,-5.845 141.539,-3.541C141.626,2.725 141.53,8.994 141.507,15.262L141.507,-10.915C134.571,-8.827 128.964,-7.4 123.557,-5.427C119.338,-3.888 115.606,-4.246 111.556,-6C103.317,-9.569 94.946,-12.84 86.565,-16.067C85.062,-16.646 82.948,-18.789 81.712,-15.51C80.556,-16.136 79.278,-16.609 78.262,-17.412C65.208,-27.741 52.186,-38.109 39.168,-48.483C32.173,-54.057 25.203,-59.661 18.19,-65.276C23.003,-75.828 27.605,-85.917 32.262,-96.125C18.699,-106.219 5.58,-115.983 -7.7,-125.866C-4.701,-129.43 -2.35,-132.223 0,-135.015" style="fill:#a3a21e;fill-rule:nonzero;"/>
            </g>
            <g transform="matrix(1,0,0,1,251.464,536.122)">
                <path d="M0,219.405C-1.803,219.895 -3.606,220.386 -5.412,220.879C-15.787,213.657 -27.19,208.135 -37.794,201.324C-43.338,197.761 -48.665,196.384 -55.118,198.023C-64.891,200.507 -75.074,201.069 -84.767,204.028C-86.73,204.275 -88.848,203.518 -90.633,204.929C-101.353,205.033 -111.894,207.756 -122.665,207.113C-123.865,206.783 -125.065,206.453 -126.473,206.066C-125.652,203.692 -124.907,201.539 -124.113,199.245C-113.211,197.871 -102.377,197.276 -91.92,194.972C-81.395,192.655 -72.231,186.482 -63.987,182.757C-56.116,167.28 -47.453,154.012 -39.631,140.279C-37.313,139.208 -34.996,138.137 -32.679,137.067C-24.359,134.596 -16.04,132.125 -8.041,129.75C-7.365,126.667 -9.357,124.564 -8.525,122.215L-8.517,122.211C-2.457,119.926 3.671,117.802 9.628,115.276C11.874,114.324 13.848,114.05 16.109,115.421C19.312,104.935 22.363,94.944 25.468,84.776C11.836,56.455 -1.809,28.107 -15.454,-0.241L-13.819,-1.474C7.888,21.024 29.595,43.521 51.302,66.019C57.567,68.26 64.043,66.56 70.402,67.044C77.774,66.442 85.034,69.134 92.43,67.791C93.754,69.543 95.079,71.294 96.403,73.045C93.78,82.017 90.99,90.946 88.631,99.988C87.875,102.889 85.792,105.706 87.135,108.998C84.592,113.287 81.899,117.497 79.564,121.896C78.167,124.528 76.25,125.549 73.4,126.217C65.02,128.186 56.427,129.249 48.235,132.019C39.845,133.33 31.512,134.871 23.084,137.611C25.276,144.111 27.273,150.034 29.27,155.958C27.487,157.396 25.652,156.919 23.634,156.395C14.664,154.07 5.649,151.914 -3.341,149.664C-4.946,149.261 -6.512,148.632 -8.449,149.849C-12.579,162.792 -16.791,175.993 -21.013,189.227C-17.31,192.552 -13.869,195.322 -9.779,197.207C-6.083,204.414 -0.66,210.86 0,219.405" style="fill:#a3a21e;fill-rule:nonzero;"/>
            </g>
            <g transform="matrix(1,0,0,1,142.793,556.92)">
                <path d="M0,-154.588C13.537,-149.069 27.065,-143.529 40.621,-138.06C42.272,-137.394 43.865,-136.228 45.84,-136.778C46.931,-136.069 47.971,-135.994 49.148,-137.204C48.191,-154.679 47.226,-172.327 46.21,-190.882C57.467,-186.451 68.057,-182.283 78.592,-178.136C85.335,-180.15 91.904,-182.112 98.718,-184.148C99.602,-168.832 98.056,-154.195 99.681,-139.634C89.484,-145.435 78.479,-145.455 67.025,-144.212C61.958,-138.689 58.031,-132.225 53.531,-125.557C61.967,-118.11 68.248,-109.135 76.432,-102.107C83.786,-95.791 90.552,-88.915 97.091,-81.861C101.239,-77.385 106.656,-73.495 107.581,-66.588C108.381,-60.613 112.731,-57.342 117.319,-54.094C128.305,-46.318 139.102,-38.276 149.958,-30.318C159.164,-23.571 168.347,-16.791 177.483,-10.066C186.568,-16.824 195.224,-23.262 203.879,-29.701C208.25,-23.35 212.608,-16.989 217.003,-10.655C218.212,-8.911 219.338,-6.771 222.05,-8.558C222.763,-8.167 223.048,-7.571 222.901,-6.769L209.05,-7.68C208.488,-7.873 207.928,-8.434 207.119,-7.381C211.232,-0.196 215.383,7.135 219.62,14.415C221.104,16.965 222.269,19.819 225.131,21.283C224.871,22.882 224.519,24.51 222.926,25.288C215.343,28.993 207.729,32.631 200.127,36.294C195.783,35.209 191.427,34.172 187.098,33.033C164.851,27.173 164.853,27.164 153.67,12.212C152.875,11.149 152.113,10.061 151.32,8.996C145.693,1.446 140.062,-6.101 134.299,-13.83C136.663,-14.73 139.024,-12.248 140.817,-15.245C136.396,-20.071 131.418,-24.379 126.586,-28.883C110.665,-43.729 95.176,-59.038 79.215,-73.839C73.734,-78.922 68.774,-84.667 62.791,-89.08C53.857,-95.668 48.112,-103.323 50.022,-115.039C50.659,-118.946 48.607,-121.071 45.203,-122.729C32.339,-128.994 19.569,-135.453 6.793,-141.896C4.594,-143.005 2.148,-143.74 0,-146.016L0,-154.588Z" style="fill:#6a3f20;fill-rule:nonzero;"/>
            </g>
            <g transform="matrix(1,0,0,1,455.776,764.26)">
                <path d="M0,-104.833C1.676,-105.123 2.894,-104.188 4.019,-103.205C13.424,-94.984 22.807,-86.738 32.181,-78.481C32.647,-78.07 32.967,-77.493 33.886,-76.31C10.219,-75.536 -12.836,-76.658 -36.088,-75.206L-36.088,-43.858C-21.062,-32.773 -6.111,-21.742 9.918,-9.917C1.661,-8.531 -5.286,-7.317 -12.25,-6.209C-23.912,-4.354 -35.582,-2.545 -47.257,-0.77C-49.55,-0.422 -51.879,-0.131 -54.192,-0.126C-82.687,-0.075 -111.181,-0.076 -139.675,-0.093C-140.78,-0.093 -141.987,0.29 -143.452,-0.943C-137.684,-9.301 -131.89,-17.695 -126.148,-26.016C-127.44,-27.687 -128.881,-27.182 -130.109,-27.184C-154.604,-27.219 -179.099,-27.208 -203.594,-27.214C-205.434,-27.214 -207.275,-27.273 -208.904,-26.195C-211.975,-30.013 -212.547,-34.395 -211.811,-39.073C-209.359,-39.072 -206.896,-38.922 -204.458,-39.1C-198.986,-39.499 -193.407,-38.001 -188.033,-40.033C-185.376,-40.056 -182.719,-40.079 -180.062,-40.102C-175.261,-40.091 -170.45,-39.884 -165.662,-40.128C-161.442,-40.344 -157.085,-38.981 -153.003,-41.056C-145.667,-41.363 -138.332,-41.67 -130.997,-41.978C-129.882,-41.696 -128.779,-41.234 -127.651,-41.161C-117.126,-40.479 -106.641,-39.418 -96.192,-37.986C-97.411,-29.999 -101.723,-23.131 -104.274,-15.626C-105.35,-12.462 -107.478,-9.62 -107.692,-4.722C-102.509,-8.153 -98.074,-10.661 -95.067,-15.09C-92,-18.866 -88.363,-21.947 -84.007,-24.149C-82.548,-25.081 -81.089,-26.013 -79.838,-26.812C-77.389,-27.629 -74.781,-25.758 -72.755,-27.93C-64.631,-27.612 -56.507,-27.298 -48.382,-26.978C-46.236,-26.894 -44.038,-27.162 -42.037,-26.064C-39.766,-24.146 -37.018,-25.17 -34.479,-24.602C-32.413,-26.746 -29.502,-27.986 -29.057,-31.108C-30.24,-32.497 -31.073,-31.449 -31.951,-31.23C-41.419,-35.719 -50.859,-40.268 -60.372,-44.659C-63.229,-45.978 -65.051,-47.756 -64.976,-51.048C-61.406,-58.939 -62.058,-67.978 -58.295,-76.132C-40.569,-84.6 -22.751,-93.099 -4.952,-101.639C-3.183,-102.487 -1.173,-103.031 0,-104.833" style="fill:#cfbd6a;fill-rule:nonzero;"/>
            </g>
            <g transform="matrix(1,0,0,1,343.895,527.704)">
                <path d="M0,76.209C-7.396,77.553 -14.656,74.86 -22.029,75.462C-28.309,73.504 -34.772,74.958 -41.128,74.438C-62.835,51.939 -84.542,29.442 -106.25,6.944L-107.884,8.178C-94.239,36.525 -80.594,64.873 -66.962,93.194C-70.067,103.362 -73.118,113.354 -76.321,123.839C-78.583,122.468 -80.557,122.742 -82.802,123.694C-88.759,126.221 -94.887,128.345 -100.947,130.628C-98.892,122.066 -96.852,113.501 -94.774,104.945C-92.344,94.935 -89.754,84.961 -87.564,74.898C-87.218,73.311 -84.466,70.322 -88.779,69.443C-88.768,68.263 -89.348,67.395 -90.239,66.689C-87.175,65.238 -89.632,63.528 -90.26,62.281C-97.374,48.147 -104.635,34.089 -111.826,19.994C-121.213,1.596 -130.61,-16.797 -139.909,-35.239C-141.762,-38.914 -144.102,-42.405 -145.101,-46.649C-142.713,-49.276 -140.376,-51.848 -138.04,-54.419C-114.667,-34.138 -92.664,-12.39 -70.251,8.92C-70.05,9.11 -70.027,9.487 -69.801,10.105C-71.018,10.311 -72.585,9.031 -73.413,10.827C-73.615,12.203 -72.623,13.158 -71.831,14.21C-62.531,26.561 -53.261,38.935 -43.919,51.254C-41.843,53.992 -40.527,57.529 -37.039,58.918C-32.103,60.882 -27.082,62.632 -22.097,64.474C-17.562,67.132 -12.534,68.675 -7.788,70.841C-4.941,72.14 -1.257,72.503 0,76.209" style="fill:#616018;fill-rule:nonzero;"/>
            </g>
            <g transform="matrix(1,0,0,1,108.64,690)">
                <path d="M0,2.955C14.543,-2.685 29.547,-6.939 44.362,-11.758C71.99,-20.744 99.656,-29.611 127.313,-38.511C129.203,-39.119 131.141,-39.583 133.056,-40.112C132.687,-37.713 132.318,-35.315 131.95,-32.916C130.965,-30.195 129.174,-28.591 126.134,-28.717C119.084,-23.298 110.777,-20.079 103.188,-15.604C102.543,-15.118 101.666,-14.77 101.286,-14.127C93.096,-0.277 84.96,13.605 77.198,26.829C60.07,38.851 40.742,41.545 21.091,43.067C22.203,40.337 19.577,40.906 18.592,40.599C12.25,38.619 5.816,36.936 -0.539,34.997C-2.672,34.347 -5.208,34.309 -6.748,31.856C-6.377,30.525 -5.916,29.114 -5.596,27.671C-3.77,19.423 -0.648,11.468 0,2.955" style="fill:#a78844;fill-rule:nonzero;"/>
            </g>
            <g transform="matrix(1,0,0,1,108.64,761.671)">
                <path d="M0,-68.716C-0.648,-60.203 -3.77,-52.248 -5.596,-44C-5.916,-42.557 -6.377,-41.146 -6.748,-39.815C-5.208,-37.362 -2.672,-37.324 -0.539,-36.674C5.816,-34.735 12.25,-33.052 18.592,-31.072C19.577,-30.765 22.203,-31.334 21.09,-28.604C19.694,-28.326 18.043,-28.84 16.836,-26.986C16.143,-23.942 13.976,-20.868 14.478,-16.758C16.654,-17.149 18.694,-16.603 20.16,-18.436C30.93,-17.793 41.472,-20.516 52.19,-20.619C55.544,-19.731 59.076,-19.247 62.217,-17.873C69.178,-14.826 75.238,-14.861 80.092,-21.518C82.972,-22.608 85.261,-19.232 88.159,-20.449C94.483,-17.785 100.807,-15.121 107.13,-12.457C107.731,-11.911 108.332,-11.366 108.932,-10.82C106.001,-9.651 102.792,-8.911 100.187,-7.235C88.947,0 76.873,-1.382 64.552,-2.859C46.401,-5.034 28.185,-6.653 10,-8.543C-10.83,-10.708 -31.653,-12.934 -52.483,-15.087C-64.548,-16.334 -76.622,-17.49 -88.706,-18.69C-89.156,-20.769 -87.426,-21.366 -86.429,-22.248C-75.832,-31.613 -65.181,-40.917 -54.524,-50.214C-53.404,-51.192 -52.287,-52.432 -50.948,-52.862C-34.009,-58.284 -17.206,-64.152 0,-68.716" style="fill:#cfbd6a;fill-rule:nonzero;"/>
            </g>
            <g transform="matrix(1,0,0,1,338.599,551.422)">
                <path d="M0,93.698C-1.342,90.406 0.74,87.59 1.497,84.688C3.855,75.646 6.646,66.718 9.268,57.745C16.647,62.313 22.995,68.448 30.578,72.331C32.001,71.421 31.474,70.639 31.222,69.884C47.154,54.826 63.086,39.767 78.597,25.108L78.597,-36.922C79.854,-37.963 81.007,-36.715 82.249,-36.056C82.056,-29.899 82.845,-23.779 83.023,-17.654C83.427,-3.84 83.154,9.992 83.264,23.815C83.284,26.426 82.697,28.64 81.22,30.813C70.93,45.947 60.652,61.091 50.524,76.333C47.337,81.129 43.64,85.647 41.238,91.016C45.875,96.807 50.324,102.366 54.635,107.75C54.154,109.923 51.902,110.801 52.2,112.91C50.482,114.865 48.765,116.82 47.048,118.774C43.184,118.33 41.287,120.543 40.194,123.844C37.26,126.534 33.131,127.844 31.172,131.661C31.069,130.424 30.382,129.795 29.155,129.73L27.153,127.838C27.075,124.999 24.592,123.676 23.116,121.817C15.565,112.32 8.31,102.573 0,93.698" style="fill:#616018;fill-rule:nonzero;"/>
            </g>
            <g transform="matrix(1,0,0,1,249.875,74.7392)">
                <path d="M0,244.675C-4.05,249.493 -8.101,254.311 -12.347,259.361C-28.603,253.649 -44.773,247.968 -60.548,242.425C-61.222,240.921 -60.412,240.339 -60.124,239.601C-42.176,226.436 -24.215,213.288 -6.283,200.102C7.104,190.258 20.522,180.455 33.773,170.431C36.875,168.085 40.324,167.388 43.863,166.592C46.553,165.986 49.261,165.457 52.977,164.682C46.363,158.909 40.479,153.774 34.688,148.72C35.509,146.834 36.852,147.559 37.884,147.344L38.906,148.459C45.256,153.999 51.605,159.538 58.018,165.132C56.994,166.23 56.441,166.824 55.888,167.419C48.564,168.505 41.02,168.608 34.647,173.326C8.225,192.886 -18.281,212.336 -44.686,231.92C-48.452,234.714 -52.593,237.145 -56.103,241.24C-49.4,243.478 -43.275,245.522 -37.15,247.567C-29.011,250.165 -21.254,254.018 -12.614,255.515C-8.578,250.217 -4.962,245.039 -0.897,240.242C4.107,234.337 7.488,226.961 14.419,222.781C20.541,219.09 26.772,215.583 32.919,211.934C53.927,199.467 74.919,186.974 95.917,174.491C100.228,171.772 104.92,169.631 108.906,166.283C106.827,159.534 104.825,153.039 102.839,146.593C103.651,145.084 104.356,143.774 105.06,142.465C115.991,126.111 126.924,109.757 137.855,93.403C139.229,91.351 140.602,89.299 142.055,87.126C132.676,72.035 123.466,57.216 114.623,42.988C107.408,41.028 100.698,41.864 93.25,41.01C98.425,23.65 103.368,7.067 108.406,-9.832C104.898,-10.459 102.451,-11.513 99.279,-11.162C94.613,5.904 89.936,23.009 85.098,40.704C70.341,40.055 55.97,39.423 41.426,38.784C39.892,44.449 38.277,49.764 38.021,55.802C48.216,57.059 57.922,58.231 67.621,59.461C74.537,60.338 82.424,59.498 88.133,62.618C97.762,67.878 106.006,75.671 114.98,82.51C108.771,93.186 102.924,103.242 97.076,113.298C95.009,117.029 92.942,120.761 90.875,124.493C83.658,122.803 76.441,121.113 69.224,119.424C69.313,115.674 71.959,117.364 73.504,117.657C78.538,118.614 83.515,119.868 88.954,121.108C96.364,108.486 103.656,96.064 111.188,83.232C103.303,77.153 95.939,70.611 87.707,65.454C82.723,62.332 76.076,63.373 70.182,62.544C58.368,60.882 46.51,59.537 33.963,57.973C35.555,50.477 37.048,43.447 38.641,35.95C53.394,36.611 67.791,37.255 82.659,37.921C87.505,20.364 92.298,3.002 97.181,-14.686C102.275,-13.744 106.94,-12.881 112.259,-11.896C107.163,5.04 102.208,21.51 97.183,38.209C103.395,39.693 109.573,39.132 115.938,39.761C125.203,54.353 134.534,69.049 143.864,83.743C143.608,85.09 144.825,85.675 145.351,86.614C143.46,92.229 138.908,96.239 136.385,101.473C135.86,102.189 135.335,102.904 134.811,103.618C132.968,104.708 131.924,106.29 131.822,108.455C123.241,121.1 114.66,133.744 105.948,146.582C108.135,153.514 110.32,160.441 112.614,167.714C100.861,174.709 89.323,181.59 77.771,188.448C57.896,200.247 38.101,212.184 18.079,223.729C12.155,227.145 8.826,232.6 4.743,237.544C2.284,239.337 1.597,242.309 0,244.675" style="fill:#442515;fill-rule:nonzero;"/>
            </g>
            <g transform="matrix(1,0,0,1,369.772,685.106)">
                <path d="M0,-2.024C1.958,-5.84 6.087,-7.15 9.021,-9.839C12.61,-9.765 14.396,-12.131 15.875,-14.91C17.592,-16.864 19.31,-18.819 21.027,-20.774C23.95,-21.151 25.538,-23.176 27.106,-25.498C26.058,-27.116 25.081,-28.624 24.104,-30.13C44.803,-29.562 65.447,-28.245 86.003,-25.678C84.831,-23.877 82.821,-23.333 81.052,-22.484C63.253,-13.944 45.435,-5.445 27.709,3.023C23.946,11.177 24.598,20.215 21.028,28.106C17.472,23.739 17.518,17.493 13.51,13.337C8.84,12.516 4.81,15.691 0.306,15.05C-0.342,11.117 -0.919,7.17 -1.666,3.256C-2.072,1.123 -1.979,-0.711 0,-2.024" style="fill:#a78844;fill-rule:nonzero;"/>
            </g>
            <g transform="matrix(1,0,0,1,319.1,249.23)">
                <path d="M0,-55.067C7.217,-53.378 14.434,-51.688 21.651,-49.998C26.379,-44.008 31.108,-38.017 35.836,-32.026C35.132,-30.717 34.427,-29.407 33.615,-27.898C35.601,-21.452 37.603,-14.957 39.682,-8.208C35.696,-4.86 31.004,-2.719 26.693,0C24.45,-1.404 22.202,-2.801 20.819,-5.124C18.135,-13.604 11.648,-19.401 6.366,-26.032L-30.318,-26.032L-31.34,-27.147C-20.894,-36.453 -10.447,-45.76 0,-55.067" style="fill:#ab6633;fill-rule:nonzero;"/>
            </g>
            <g transform="matrix(1,0,0,1,104.766,156.874)">
                <path d="M0,71.306C-2.749,71.893 -5.498,72.48 -8.682,73.16C-15.979,62.308 -21.82,50.575 -28.739,39.089C-26.166,25.597 -25.497,11.665 -22.131,-1.854C-12.229,6.497 -2.328,14.847 7.73,23.33C5.123,39.513 2.562,55.41 0,71.306" style="fill:#fcfeeb;fill-rule:nonzero;"/>
            </g>
            <g transform="matrix(1,0,0,1,395.227,158.014)">
                <path d="M0,3.342C-0.526,2.4 -1.743,1.815 -1.487,0.469C-1.036,-1.904 -2.229,-4.07 -2.521,-6.791C2.445,-14.635 8.261,-22.162 14.271,-29.988C24.204,-22.427 33.788,-15.13 43.372,-7.834C41.128,5.606 38.884,19.045 36.498,33.33C23.927,23.369 12.24,14.109 0.553,4.848C0.368,4.346 0.185,3.844 0,3.342" style="fill:#fcfeeb;fill-rule:nonzero;"/>
            </g>
            <g transform="matrix(1,0,0,1,364.843,362.353)">
                <path d="M0,186.009C-2.712,187.796 -3.837,185.656 -5.047,183.912C-9.442,177.578 -13.799,171.217 -18.17,164.866C-26.807,151.616 -35.459,138.377 -45.234,124.931C-52.391,131.852 -57.354,139.686 -63.806,146.821C-68.499,146.415 -73.228,145.649 -77.633,141.478C-72.572,140.085 -69.535,143.619 -65.217,143.696C-56.064,132.18 -46.292,120.848 -37.607,108.58C-39.387,105.795 -39.939,102.966 -42.349,100.783C-51.717,109.505 -61.743,117.109 -71.599,124.923C-74.136,126.934 -74.086,126.997 -76.482,125.115C-71.574,120.406 -65.399,117.097 -60.573,111.371C-81.69,94.852 -102.355,78.687 -122.476,62.947C-123.807,59.744 -122.432,57.378 -122.369,54.933C-123.994,40.372 -122.448,25.735 -123.332,10.419C-130.146,12.455 -136.714,14.417 -143.458,16.431C-153.993,12.284 -164.583,8.116 -175.839,3.685C-174.824,22.24 -173.858,39.888 -172.902,57.363C-174.079,58.573 -175.119,58.498 -176.209,57.789C-177.175,40.487 -178.142,23.184 -179.107,5.881L-179.244,1.492C-178.008,-1.787 -175.895,0.356 -174.391,0.935C-166.01,4.162 -157.639,7.433 -149.4,11.002C-145.35,12.756 -141.618,13.114 -137.399,11.575C-131.992,9.602 -126.385,8.176 -119.449,6.087L-119.449,60.876C-117.501,62.626 -116.277,63.726 -115.052,64.827C-114.052,65.496 -113.053,66.165 -112.053,66.834C-103.393,73.53 -94.733,80.227 -86.073,86.923C-85.34,88.166 -84.39,89.187 -83.079,89.838C-74.528,96.426 -65.978,103.016 -57.109,109.849C-51.869,105.401 -46.598,100.927 -41.075,96.238C-37.612,100.303 -36.161,104.902 -33.624,109.105C-36.816,113.346 -39.886,117.426 -42.934,121.474C-28.533,143.12 -14.267,164.565 0,186.009" style="fill:#442515;fill-rule:nonzero;"/>
            </g>
            <g transform="matrix(1,0,0,1,53.7808,605.25)">
                <path d="M0,41.811C-1.875,43.431 -3.749,45.05 -5.92,46.926C-15.928,41.081 -25.928,35.254 -35.906,29.391C-37.258,28.597 -37.875,27.171 -38.438,25.78C-42.609,15.485 -46.767,5.185 -50.929,-5.115C-39.247,-2.704 -27.564,-0.292 -15.971,2.101C-10.527,15.638 -5.263,28.724 0,41.811" style="fill:#f2eabd;fill-rule:nonzero;"/>
            </g>
            <g transform="matrix(1,0,0,1,85.7994,618.157)">
                <path d="M0,32.111C-1.096,29.894 -2.191,27.676 -3.602,24.822C5.156,17.203 13.763,9.714 22.389,2.209C34.635,1.466 46.736,0.733 58.838,0C53.273,9.636 47.708,19.274 42.199,28.816C40.257,28.946 38.768,28.991 37.292,29.152C24.89,30.507 12.358,30.214 0,32.111" style="fill:#f2eabd;fill-rule:nonzero;"/>
            </g>
            <g transform="matrix(1,0,0,1,53.9927,647.16)">
                <path d="M0,-11.823L0,-55.331C1.661,-54.866 4.014,-54.207 6.751,-53.44C10.411,-21.193 14.062,10.966 17.755,43.508L1.568,43.508C0.577,31.083 0.901,18.514 0.605,5.976C1.413,3.824 -0.43,0.694 3.567,-0.155C0.918,-3.988 1.076,-8.068 0,-11.823" style="fill:#804f29;fill-rule:nonzero;"/>
            </g>
            <g transform="matrix(1,0,0,1,351.843,578.241)">
                <path d="M0,-29.001L13.852,-28.09C19.451,-27.731 25.054,-27.416 30.646,-26.98C31.761,-26.892 33.12,-26.654 33.889,-25.958C41.203,-19.341 49.294,-13.57 56.081,-6.268C55.196,-3.971 54.431,-1.985 53.668,0C40.791,-0.852 27.911,-1.703 14.77,-2.571C9.776,-11.403 4.191,-19.802 0,-29.001" style="fill:#fcfeeb;fill-rule:nonzero;"/>
            </g>
            <g transform="matrix(1,0,0,1,321.798,402.879)">
                <path d="M0,189.298C-4.985,187.456 -10.006,185.706 -14.942,183.742C-18.431,182.354 -19.746,178.817 -21.823,176.078C-31.165,163.759 -40.434,151.385 -49.734,139.034C-50.526,137.983 -51.518,137.027 -51.316,135.652C-50.488,133.856 -48.921,135.135 -47.705,134.929C-47.93,134.312 -47.954,133.935 -48.154,133.744C-70.567,112.435 -92.57,90.687 -115.944,70.404C-116.403,69.991 -116.861,69.579 -117.318,69.166C-121.121,63.412 -127.192,59.861 -131.663,54.484C-131.976,48.294 -132.295,41.998 -132.625,35.495C-149.323,27.141 -165.783,18.905 -182.265,10.66C-182.561,6.112 -182.875,1.858 -182.142,-2.242C-179.923,-3.275 -179.697,-1.55 -179.005,-0.548C-179.004,2.43 -179.004,5.407 -179.004,8.025C-176.856,10.3 -174.41,11.036 -172.211,12.145C-159.435,18.588 -146.665,25.047 -133.802,31.312C-130.397,32.97 -128.346,35.094 -128.982,39.002C-130.892,50.718 -125.147,58.373 -116.214,64.961C-110.23,69.374 -105.271,75.119 -99.789,80.202C-83.828,95.003 -68.339,110.312 -52.418,125.157C-47.586,129.662 -42.609,133.97 -38.188,138.796C-39.98,141.793 -42.342,139.311 -44.706,140.211C-38.942,147.94 -33.311,155.486 -27.685,163.037C-26.891,164.102 -26.129,165.19 -25.334,166.253C-14.151,181.205 -14.153,181.214 8.093,187.073C12.422,188.213 16.779,189.25 21.123,190.335C19.244,192.573 16.658,192.384 14.124,192.372C9.365,191.58 5.602,186.217 0,189.298" style="fill:#442615;fill-rule:nonzero;"/>
            </g>
            <g transform="matrix(1,0,0,1,463.206,555.113)">
                <path d="M0,-27.953C0,-27.953 0.434,-27.932 0.435,-27.932C0.811,-25.493 3.035,-25.61 4.634,-25.056C11.516,-22.667 18.444,-20.412 25.355,-18.108C17.053,-13.513 9.666,-7.542 1.768,-2.338C-0.7,-0.712 -3.116,0.192 -6.101,0.149C-14.896,0.023 -23.695,0.104 -32.125,0.104C-34.445,-1.735 -34.352,-3.993 -34.685,-6.091C-26.854,-11.649 -19.028,-17.213 -11.195,-22.765C-7.785,-25.182 -4.622,-28.145 0,-27.953" style="fill:#f2eabd;fill-rule:nonzero;"/>
            </g>
            <g transform="matrix(1,0,0,1,78.0806,266.713)">
                <path d="M0,-13.606C3.179,-13.497 6.182,-12.746 8.946,-11.299C9.967,-9.112 9.859,-7.01 9.23,-4.267C0.977,-0.837 -7.57,2.714 -16.157,6.282C-26.498,3.915 -36.821,1.552 -47.146,-0.809C-40.857,-6.378 -34.524,-11.903 -28.298,-17.547C-26.262,-19.394 -24.048,-19.888 -21.473,-19.401C-14.315,-17.47 -7.158,-15.538 0,-13.606" style="fill:#f2eabd;fill-rule:nonzero;"/>
            </g>
            <g transform="matrix(1,0,0,1,384.686,207.627)">
                <path d="M0,-29.269C0.524,-29.984 1.05,-30.699 1.574,-31.414C4.077,-32.777 6.29,-31.584 8.547,-30.648C12.762,-28.901 16.99,-27.186 21.212,-25.457C26.29,-23.139 31.526,-21.023 34.019,-15.41C37.36,-9.104 40.702,-2.798 44.045,3.508C35.058,3.451 26.182,2.175 17.21,1.351C11.408,-8.972 5.704,-19.121 0,-29.269" style="fill:#f2eabd;fill-rule:nonzero;"/>
            </g>
            <g transform="matrix(1,0,0,1,359.587,58.64)">
                <path d="M0,28.847C-1.546,28.217 -2.193,26.954 -2.607,25.345C3.429,18.849 9.218,12.223 15.47,6.067C18.431,3.151 22.958,3.777 26.827,3.257C32.667,2.472 38.321,0 44.389,1.152C41.175,8.594 37.963,16.032 34.641,23.723C22.943,25.454 11.471,27.15 0,28.847" style="fill:#fcfeeb;fill-rule:nonzero;"/>
            </g>
            <g transform="matrix(1,0,0,1,326.013,9.0014)">
                <path d="M0,30.947C-1.519,33.472 -3.516,33.583 -5.953,32.28C-11.954,29.071 -17.991,25.929 -24.025,22.785C-25.245,22.149 -26.324,21.378 -26.769,20.038C-29.279,12.487 -31.756,4.924 -34.244,-2.636C-26.045,-1.859 -17.83,-1.204 -9.636,0.416C-6.368,10.771 -3.184,20.859 0,30.947" style="fill:#fcfeeb;fill-rule:nonzero;"/>
            </g>
            <g transform="matrix(1,0,0,1,285.96,167.355)">
                <path d="M0,25.673C-0.773,26.994 -1.822,28.023 -3.654,28.968C-10.722,27.121 -17.424,23.465 -24.959,20.576C-26.384,13 -27.818,5.377 -29.251,-2.245C-21.349,-3.295 -13.429,-3.082 -5.083,-3.077C-3.342,6.767 -1.671,16.22 0,25.673" style="fill:#f2eabd;fill-rule:nonzero;"/>
            </g>
            <g transform="matrix(1,0,0,1,418.705,161.384)">
                <path d="M0,30.832C-2.492,25.219 -7.729,23.103 -12.807,20.785C-19.73,16.21 -22.421,9.417 -22.925,1.478C-11.237,10.738 0.449,19.998 13.021,29.959C15.406,15.674 17.65,2.235 19.895,-11.205C20.19,-11.919 20.191,-12.877 21.622,-13.012C23.738,-9.668 25.318,-5.67 24.791,-1.969C22.643,13.108 19.852,28.094 17.173,43.844C11.016,39.179 5.508,35.006 0,30.832" style="fill:#a99166;fill-rule:nonzero;"/>
            </g>
            <g transform="matrix(1,0,0,1,164.1,216.984)">
                <path d="M0,86.165C-0.276,86.346 -0.532,86.594 -0.835,86.687C-1.125,86.777 -1.464,86.707 -3.032,86.707C6.32,61.319 15.521,36.339 24.897,10.886C17.065,8.118 9.617,5.485 1.508,2.62C-6.709,20.427 -14.747,37.844 -23.16,56.075C-35.615,46.153 -47.401,36.764 -59.187,27.374L-55.034,27.374C-44.74,35.532 -34.717,43.475 -24.107,51.883C-15.998,34.273 -8.107,17.135 0.064,-0.612C9.23,2.514 18.26,5.594 28.416,9.058C18.875,34.946 9.438,60.556 0,86.165" style="fill:#4e4814;fill-rule:nonzero;"/>
            </g>
            <g transform="matrix(1,0,0,1,215.771,749.198)">
                <path d="M0,0.015C-6.324,-2.649 -12.647,-5.313 -18.972,-7.977C-20.318,-10.362 -22.86,-10.826 -25.33,-11.98C-28.075,-9.757 -32.417,-12.905 -34.959,-9.198C-39.678,-10.473 -44.338,-6.296 -49.073,-9.048C-39.38,-12.007 -29.197,-12.57 -19.424,-15.053C-12.971,-16.693 -7.645,-15.315 -2.1,-11.753C8.503,-4.941 19.907,0.58 30.282,7.802C24.614,13.244 18.255,16.708 10.042,14.841C11.199,11.328 14.661,8.83 14.748,4.411C9.632,3.261 5.656,-0.943 0,0.015" style="fill:#5c5b16;fill-rule:nonzero;"/>
            </g>
            <g transform="matrix(1,0,0,1,118.766,580.109)">
                <path d="M0,-32.757C-2.51,-26.479 -5.024,-20.201 -7.528,-13.92C-8.226,-12.171 -9.33,-10.825 -10.998,-9.874C-16.716,-6.611 -22.401,-3.289 -28.081,0C-29.636,-1.153 -30.951,-2.127 -32.264,-3.101C-28.896,-11.523 -25.528,-19.946 -22.26,-28.119C-20.456,-28.748 -19.07,-29.232 -17.685,-29.715C-11.79,-30.729 -5.895,-31.743 0,-32.757" style="fill:#fcfeeb;fill-rule:nonzero;"/>
            </g>
            <g transform="matrix(1,0,0,1,381.069,499.242)">
                <path d="M0,-36.009C5.957,-32.438 11.912,-28.866 17.87,-25.298C19.62,-24.25 20.907,-22.9 21.641,-20.893C23.794,-15.001 26.1,-9.164 28.344,-3.312C27.65,-1.575 26.029,-0.968 24.743,0C16.674,-4.769 8.604,-9.538 0.683,-14.219C0.339,-21.842 -0.402,-28.904 0,-36.009" style="fill:#fcfeeb;fill-rule:nonzero;"/>
            </g>
            <g transform="matrix(1,0,0,1,185.6,248.588)">
                <path d="M0,115.257L0.136,119.646C-22.08,101.948 -44.296,84.251 -66.87,66.269C-62.164,56.087 -57.531,46.061 -52.678,35.56C-66.125,25.565 -79.542,15.592 -93.754,5.028C-89.202,2.012 -88.303,-4.389 -81.713,-4.249C-84.063,-1.456 -86.413,1.337 -89.413,4.901C-76.133,14.784 -63.014,24.548 -49.451,34.642C-54.107,44.85 -58.709,54.939 -63.522,65.49C-56.51,71.106 -49.539,76.71 -42.544,82.283C-29.526,92.657 -16.504,103.026 -3.45,113.354C-2.434,114.158 -1.156,114.631 0,115.257" style="fill:#4e4814;fill-rule:nonzero;"/>
            </g>
            <g transform="matrix(1,0,0,1,352.837,346.117)">
                <path d="M0,-34.777C6.321,-30.895 12.641,-27.013 19.281,-22.936C21.766,-16.444 24.35,-9.691 26.798,-3.294C26.319,-1.419 25.164,-0.739 24.073,0C16.061,-4.866 8.048,-9.734 0,-14.623L0,-34.777Z" style="fill:#fcfeeb;fill-rule:nonzero;"/>
            </g>
            <g transform="matrix(1,0,0,1,426.761,317.819)">
                <path d="M0,-33.659C-2.086,-26.67 -4.173,-19.681 -6.227,-12.801C-12.425,-8.438 -18.388,-4.241 -24.411,0C-25.723,-0.678 -26.891,-1.283 -28.061,-1.885C-25.292,-10.646 -22.523,-19.408 -19.697,-28.35C-13.012,-30.152 -6.506,-31.906 0,-33.659" style="fill:#fcfeeb;fill-rule:nonzero;"/>
            </g>
            <g transform="matrix(1,0,0,1,281.764,339.111)">
                <path d="M0,113.08C-1.311,112.43 -2.261,111.409 -2.994,110.164C2.583,107.518 7.158,103.373 12.185,99.916C24.869,91.194 37.379,82.221 49.513,73.663C50.827,69.979 48.263,67.73 47.934,64.98C47.434,61.734 49.79,61.229 52.087,60.537C69.28,55.347 86.464,50.127 103.646,44.897C105.209,44.42 106.73,43.804 108.714,43.094C108.714,29.016 108.714,15.08 108.713,1.145C109.176,0.306 109.838,0 110.953,0.474L110.953,45.351C91.013,51.427 71.207,57.46 51.402,63.494C50.292,67.379 53.571,70.194 53.338,74.22C45.231,79.962 36.857,85.911 28.464,91.833C19.907,97.871 11.313,103.858 2.782,109.932C1.655,110.734 -0.136,111.102 0,113.08" style="fill:#462e15;fill-rule:nonzero;"/>
            </g>
            <g transform="matrix(1,0,0,1,393.876,524.722)">
                <path d="M0,130.253C0.977,131.76 1.953,133.268 3.002,134.886C1.434,137.207 -0.154,139.232 -3.077,139.609C-3.375,137.5 -1.123,136.622 -0.643,134.449C-4.953,129.066 -9.402,123.507 -14.039,117.716C-11.638,112.347 -7.94,107.828 -4.753,103.032C5.375,87.79 15.652,72.647 25.942,57.513C27.42,55.34 28.007,53.125 27.986,50.515C27.877,36.691 28.149,22.859 27.746,9.046C27.567,2.921 26.778,-3.199 26.972,-9.356C27.86,-8.957 28.748,-8.559 30.979,-7.557C30.979,12.097 30.943,32.337 31.024,52.577C31.034,54.996 29.73,56.619 28.549,58.379C15.416,77.935 2.261,97.475 -11.103,117.338C-7.334,121.722 -3.667,125.987 0,130.253" style="fill:#462f16;fill-rule:nonzero;"/>
            </g>
            <g transform="matrix(1,0,0,1,326.013,-0.5076)">
                <path d="M0,40.456C-3.184,30.368 -6.368,20.28 -9.636,9.925C-17.83,8.305 -26.045,7.65 -34.244,6.873C-35.407,6.379 -36.958,7.018 -38.024,5.399C-36.028,1.862 -33.333,0 -28.881,0.628C-20.549,1.805 -12.173,2.674 -3.671,3.687C-0.251,14.447 3.043,24.814 6.231,34.846C4.422,37.695 2.683,39.61 0,40.456" style="fill:#aa9166;fill-rule:nonzero;"/>
            </g>
            <g transform="matrix(1,0,0,1,249.875,359.523)">
                <path d="M0,-40.109C1.597,-42.475 2.284,-45.447 4.743,-47.24C6.833,-46.766 8.134,-48.246 9.638,-49.22C21.885,-57.151 34.131,-65.084 46.501,-73.097C48.685,-70.782 49.15,-67.949 50.18,-65.398C56.759,-49.1 62.258,-32.629 65.445,-15.138C68.34,0.744 74.465,16.037 79.167,31.59C78.776,32.37 78.28,32.988 76.764,32.728C73.605,22.516 70.441,12.056 67.127,1.643C63.747,-8.98 61.776,-19.893 59.633,-30.81C57.035,-44.048 50.503,-56.006 46.013,-69.436C30.343,-59.449 15.172,-49.779 0,-40.109" style="fill:#4e4915;fill-rule:nonzero;"/>
            </g>
            <g transform="matrix(1,0,0,1,359.587,61.769)">
                <path d="M0,25.718C11.471,24.021 22.943,22.325 34.641,20.594C37.963,12.903 41.175,5.465 44.389,-1.977C45.122,-3.248 45.852,-4.514 46.626,-5.856C48.941,-5.241 49.603,-3.418 50.43,-1.028C46.542,7.687 42.509,16.727 38.449,25.83C26.389,27.776 14.644,29.671 2.841,31.574C1.28,29.727 -1.195,28.666 0,25.718" style="fill:#aa9167;fill-rule:nonzero;"/>
            </g>
            <g transform="matrix(1,0,0,1,204.48,594.393)">
                <path d="M0,-122.348C0.458,-121.935 0.916,-121.523 1.374,-121.11C-0.961,-118.537 -3.298,-115.966 -5.686,-113.339C-4.687,-109.095 -2.347,-105.604 -0.494,-101.929C8.805,-83.487 18.202,-65.094 27.589,-46.696C34.78,-32.601 42.042,-18.542 49.155,-4.409C49.783,-3.161 52.24,-1.452 49.176,0C44.719,-6.218 41.789,-13.277 38.325,-20.028C22.705,-50.459 7.244,-80.973 -8.268,-111.461C-8.567,-112.05 -8.776,-112.683 -9.141,-113.574C-6.545,-116.891 -3.307,-119.653 0,-122.348" style="fill:#353010;fill-rule:nonzero;"/>
            </g>
            <g transform="matrix(1,0,0,1,285.96,159.244)">
                <path d="M0,33.784C-1.671,24.331 -3.342,14.878 -5.083,5.034C-13.429,5.029 -21.349,4.816 -29.251,5.866C-30.054,5.725 -30.856,5.585 -31.959,5.392C-31.471,2.613 -29.205,1.695 -27.408,0L0.439,0C2.232,9.475 4.04,19.026 5.836,28.517C4.32,30.952 2.866,33.139 0,33.784" style="fill:#af9252;fill-rule:nonzero;"/>
            </g>
            <g transform="matrix(1,0,0,1,384.686,215.899)">
                <path d="M0,-37.541C5.704,-27.393 11.408,-17.244 17.21,-6.921C26.182,-6.097 35.058,-4.821 44.045,-4.764C44.933,-4.403 46.08,-4.687 46.789,-3.574C46.65,-1.774 45.42,-0.794 43.693,0C33.896,-0.829 23.966,-1.669 13.844,-2.525C8.175,-12.69 2.594,-22.697 -2.987,-32.705C-2.887,-34.869 -1.843,-36.452 0,-37.541" style="fill:#b09253;fill-rule:nonzero;"/>
            </g>
            <g transform="matrix(1,0,0,1,53.9927,613.383)">
                <path d="M0,21.954C1.076,25.709 0.918,29.789 3.567,33.622C-0.43,34.471 1.413,37.601 0.605,39.753C0.333,37.726 0.06,35.704 -0.212,33.68C-5.475,20.592 -10.739,7.506 -16.183,-6.031C-27.776,-8.424 -39.458,-10.836 -51.141,-13.247C-51.887,-14.66 -53.805,-15.261 -53.993,-17.799C-43.551,-15.737 -33.403,-13.397 -23.137,-11.829C-16.514,-10.818 -12.894,-7.512 -10.73,-1.327C-7.931,6.674 -4.425,14.427 -1.223,22.287C-1.161,22.439 -1.129,22.682 -1.021,22.725C-0.289,23.015 -0.3,22.27 0,21.954" style="fill:#b09354;fill-rule:nonzero;"/>
            </g>
            <g transform="matrix(1,0,0,1,85.7994,618.364)">
                <path d="M0,31.904C12.358,30.007 24.89,30.3 37.292,28.945C38.768,28.784 40.257,28.739 42.199,28.609C47.708,19.067 53.273,9.429 58.838,-0.207C60.023,-0.729 61.21,-1.249 63.066,-2.065C61.684,2.719 59.037,6.11 56.991,9.774C53.831,15.433 50.38,20.933 47.319,26.643C45.746,29.579 43.542,31.358 40.359,31.566C26.925,32.444 13.483,33.184 0.042,33.945C-0.385,33.969 -0.831,33.672 -1.377,33.486C-0.845,32.875 -0.422,32.389 0,31.904" style="fill:#b09355;fill-rule:nonzero;"/>
            </g>
            <g transform="matrix(1,0,0,1,104.766,152.616)">
                <path d="M0,75.564C2.562,59.668 5.123,43.771 7.73,27.588C-2.328,19.105 -12.229,10.755 -22.131,2.404C-22.386,1.523 -23.758,1.065 -22.455,-1.357C-11.438,8.042 -0.622,17.269 10.469,26.73C8.826,37.275 7.205,47.73 5.564,58.182C4.794,63.09 3.991,67.993 3.191,72.896C2.899,74.69 2.94,76.921 0,75.564" style="fill:#ab936a;fill-rule:nonzero;"/>
            </g>
            <g transform="matrix(1,0,0,1,426.761,311.545)">
                <path d="M0,-27.385C-6.506,-25.632 -13.012,-23.878 -19.697,-22.076C-22.523,-13.134 -25.292,-4.372 -28.061,4.389C-29.224,3.737 -30.402,3.1 -31.213,1.028C-28.792,-7.125 -26.2,-15.855 -23.485,-24.996C-14.823,-26.233 -7.052,-31.774 1.958,-30.578C2.083,-30.056 2.209,-29.534 2.334,-29.012C1.557,-28.469 0.778,-27.927 0,-27.385" style="fill:#aa9268;fill-rule:nonzero;"/>
            </g>
            <g transform="matrix(1,0,0,1,352.837,345.847)">
                <path d="M0,-34.507L0,-14.353C8.048,-9.464 16.061,-4.596 24.073,0.27C23.243,1.635 22.117,2.491 20.028,2.361C12.379,-2.157 4.423,-6.857 -4.09,-11.887C-4.09,-18.937 -4.08,-26.028 -4.099,-33.12C-4.103,-34.578 -3.647,-35.749 -2.243,-36.309C-0.519,-36.998 -0.4,-35.545 0,-34.507" style="fill:#aa9268;fill-rule:nonzero;"/>
            </g>
            <g transform="matrix(1,0,0,1,240.59,598.704)">
                <path d="M0,58.38C0.368,55.982 0.736,53.583 1.105,51.184C5.556,36.829 8.272,22.037 12.147,7.538C12.957,4.512 13.733,1.477 14.524,-1.556C18.838,-0.678 16.086,2.311 15.74,3.899C13.55,13.961 10.96,23.935 8.53,33.945C6.453,42.501 4.413,51.067 2.357,59.628C2.357,59.629 2.349,59.633 2.348,59.632C1.758,59.733 1.169,59.833 0.569,59.936C0.323,59.263 0.161,58.821 0,58.38" style="fill:#363111;fill-rule:nonzero;"/>
            </g>
            <g transform="matrix(1,0,0,1,321.798,620.671)">
                <path d="M0,-28.494C5.602,-31.575 9.365,-26.212 14.124,-25.42C19.67,-22.993 23.8,-19.346 27.915,-14.584C33.289,-8.364 41.202,-4.337 48.023,0.634C48.275,1.39 48.803,2.171 47.379,3.081C39.796,-0.802 33.448,-6.936 26.069,-11.505C24.745,-13.256 23.421,-15.007 22.097,-16.759C20.84,-20.465 17.156,-20.828 14.309,-22.127C9.563,-24.293 4.535,-25.836 0,-28.494" style="fill:#473017;fill-rule:nonzero;"/>
            </g>
            <g transform="matrix(1,0,0,1,381.069,499.515)">
                <path d="M0,-36.282C-0.402,-29.177 0.339,-22.115 0.683,-14.492C8.604,-9.811 16.674,-5.042 24.743,-0.273C23.987,1.685 22.754,1.55 21.212,0.626C13.57,-3.958 5.909,-8.507 -1.986,-13.212L-1.986,-37.199C-0.494,-37.967 -0.343,-36.973 0,-36.282" style="fill:#ac966d;fill-rule:nonzero;"/>
            </g>
            <g transform="matrix(1,0,0,1,351.843,579.923)">
                <path d="M0,-30.683C4.191,-21.484 9.776,-13.085 14.77,-4.253C27.911,-3.385 40.791,-2.534 53.668,-1.682C52.885,0.754 51.043,-0.391 49.532,-0.475C39.826,-1.015 30.122,-1.594 20.413,-2.087C18.979,-2.161 17.525,-1.852 16.081,-1.72C13.219,-3.184 12.054,-6.037 10.57,-8.587C6.333,-15.868 2.182,-23.199 -1.931,-30.384C-1.122,-31.437 -0.562,-30.875 0,-30.683" style="fill:#b09f7c;fill-rule:nonzero;"/>
            </g>
            <g transform="matrix(1,0,0,1,243.965,750.532)">
                <path d="M0,-25.345C-0.736,-20.667 -0.164,-16.284 2.907,-12.467C5.461,-7.327 8.016,-2.187 10.562,2.935C10.176,4.616 8.719,4.622 7.502,4.994C6.839,-3.55 1.416,-9.996 -2.279,-17.204C-1.842,-20.908 -2.856,-24.738 -1.414,-28.606C1.728,-29.249 4.749,-30.339 7.961,-29.119C5.923,-26.517 2.218,-28.486 0.053,-26.235C-0.089,-25.946 -0.106,-25.649 0,-25.345" style="fill:#534e18;fill-rule:nonzero;"/>
            </g>
            <g transform="matrix(1,0,0,1,463.206,547.532)">
                <path d="M0,-20.372C-4.622,-20.564 -7.785,-17.601 -11.195,-15.184C-19.028,-9.632 -26.854,-4.068 -34.685,1.49C-37.502,-0.474 -34.443,-0.979 -33.718,-1.498C-24.113,-8.359 -14.419,-15.096 -4.93,-21.736C-2.917,-21.862 -1.371,-21.424 0,-20.372" style="fill:#b59e67;fill-rule:nonzero;"/>
            </g>
            <g transform="matrix(1,0,0,1,56.608,263.53)">
                <path d="M0,-16.218C-2.575,-16.705 -4.79,-16.21 -6.826,-14.364C-13.051,-8.719 -19.385,-3.195 -25.674,2.375C-27.721,1.466 -26.254,0.573 -25.545,-0.051C-18.511,-6.239 -11.431,-12.375 -4.771,-18.172C-2.245,-18.593 -0.631,-17.593 1.102,-17.137C0.734,-16.831 0.367,-16.525 0,-16.218" style="fill:#b6a06a;fill-rule:nonzero;"/>
            </g>
            <g transform="matrix(1,0,0,1,215.771,763.268)">
                <path d="M0,-14.055C5.656,-15.013 9.632,-10.809 14.748,-9.659C14.661,-5.24 11.199,-2.742 10.042,0.771C8.724,0.958 8.136,0.625 8.854,-0.783C10.029,-3.084 11.163,-5.408 12.413,-7.922C8.913,-10.03 5.358,-11.218 1.805,-12.417C1.201,-12.964 0.601,-13.509 0,-14.055" style="fill:#524e1d;fill-rule:nonzero;"/>
            </g>
            <g transform="matrix(1,0,0,1,101.081,575.981)">
                <path d="M0,-25.587C-1.385,-25.104 -2.771,-24.62 -4.576,-23.991C-7.843,-15.818 -11.211,-7.395 -14.58,1.027C-16.674,0.568 -15.474,-0.861 -15.162,-1.65C-12.035,-9.577 -8.795,-17.459 -5.709,-25.053C-4.125,-26.142 -2.741,-26.572 -1.23,-26.614C-0.82,-26.272 -0.41,-25.93 0,-25.587" style="fill:#b4a88c;fill-rule:nonzero;"/>
            </g>
            <g transform="matrix(0.366674,-0.930349,-0.930349,-0.366674,486,523.421)">
                <path d="M-11.699,-7.363C-12.089,-0.089 -12.532,7.185 -12.834,14.463C-12.903,16.153 -13.828,18.18 -11.699,19.424C-11.065,11.199 -10.385,2.977 -9.87,-5.257C-9.821,-6.046 -8.717,-8.774 -11.699,-7.363" style="fill:#b5a16c;fill-rule:nonzero;"/>
            </g>
            <g transform="matrix(-0.181338,0.983421,0.983421,0.181338,71.6877,239.635)">
                <path d="M10.284,-13.438C9.915,-13.132 9.548,-12.827 9.18,-12.521C9.523,-6.977 9.755,-1.422 10.284,4.104C10.435,5.691 9.685,7.912 12.09,8.727C11.488,1.341 10.886,-6.048 10.284,-13.438" style="fill:#b6a574;fill-rule:nonzero;"/>
            </g>
            <g transform="matrix(0.26083,0.965385,0.965385,-0.26083,105.319,539.963)">
                <path d="M8.965,-6.812C8.527,-7.118 8.09,-7.424 7.653,-7.731C8.091,-1.702 8.534,4.327 8.965,10.357C9.065,11.731 9.217,12.896 10.641,11.055C10.082,5.099 9.524,-0.856 8.965,-6.812" style="fill:#b3a483;fill-rule:nonzero;"/>
            </g>
            <g transform="matrix(1,0,0,1,329.698,393.851)">
                <path d="M0,10.24C0.329,12.99 2.893,15.239 1.579,18.923C-10.555,27.481 -23.065,36.454 -35.749,45.176C-40.776,48.633 -45.352,52.778 -50.928,55.424C-59.588,48.729 -68.248,42.032 -76.908,35.336C-69.592,26.785 -61.117,19.374 -52.78,11.528C-59.088,0.886 -65.136,-9.393 -71.282,-19.614C-72.508,-21.653 -73.009,-24.483 -76.091,-24.875C-65.418,-31.464 -54.745,-38.053 -43.194,-45.184C-41.206,-28.156 -39.325,-12.043 -37.382,4.6C-25.109,7.237 -12.625,9.163 0,10.24" style="fill:#616018;fill-rule:nonzero;"/>
            </g>
            <g transform="matrix(1,0,0,1,249.791,370.977)">
                <path d="M0,56.203C8.494,49.556 15.538,41.409 23.712,34.011C17.081,22.805 10.683,11.996 4.566,1.662C2.301,0.481 0.36,2.106 -1.297,0.833C-0.643,-2.007 1.877,-1.479 3.816,-2C6.898,-1.609 7.399,1.221 8.625,3.261C14.771,13.481 20.819,23.76 27.127,34.402C18.79,42.248 10.315,49.66 3,58.21C2,57.541 1,56.872 0,56.203" style="fill:#462f16;fill-rule:nonzero;"/>
            </g>
            <g transform="matrix(1,0,0,1,338.599,720.94)">
                <path d="M0,-75.82C8.31,-66.945 15.565,-57.198 23.116,-47.701C24.592,-45.842 27.075,-44.519 27.153,-41.681C21.279,-41.822 15.843,-44.051 10.198,-45.283C7.98,-45.767 5.868,-46.164 4.232,-44.224C-1.051,-37.957 -6.267,-31.633 -11.886,-24.879C-0.475,-18.872 9.815,-12.237 21.21,-7.662C19.153,-6.037 15.906,-7.298 14.216,-4.781C11.255,-4.392 8.293,-4.005 5.332,-3.616C2.84,-5.797 0.923,-4.354 -0.947,-2.619C-5.257,-1.97 -9.357,0 -13.861,-0.571C-16.97,-5.05 -21.275,-8.141 -25.86,-10.908C-25.884,-12.288 -26.624,-13.18 -27.812,-13.766C-30.52,-18.74 -34.549,-22.737 -37.837,-27.284C-39.948,-30.205 -41.446,-32.914 -40.114,-36.852C-38.748,-40.891 -38.362,-45.254 -37.376,-49.434C-36.98,-51.114 -36.792,-52.393 -38.9,-52.799C-30.708,-55.569 -22.115,-56.632 -13.734,-58.6C-10.884,-59.269 -8.967,-60.29 -7.571,-62.922C-5.236,-67.321 -2.542,-71.531 0,-75.82" style="fill:#676618;fill-rule:nonzero;"/>
            </g>
            <g transform="matrix(1,0,0,1,251.927,696.667)">
                <path d="M0,24.748C-3.213,23.526 -6.234,24.616 -9.375,25.26C-10.818,29.128 -9.804,32.958 -10.241,36.661C-14.332,34.777 -17.772,32.008 -21.476,28.683C-17.253,15.448 -13.042,2.247 -8.912,-10.695C-6.975,-11.913 -5.409,-11.283 -3.804,-10.881C5.186,-8.631 14.201,-6.475 23.171,-4.149C25.189,-3.626 27.024,-3.148 28.807,-4.586C26.198,3.611 24.562,12 23.864,20.571C22.841,21.757 21.491,22.308 19.983,22.481C13.324,23.248 6.662,23.994 0,24.748" style="fill:#676618;fill-rule:nonzero;"/>
            </g>
            <g transform="matrix(1,0,0,1,275.792,668.141)">
                <path d="M0,49.098C0.698,40.526 2.333,32.137 4.943,23.94C2.946,18.015 0.949,12.092 -1.243,5.592C7.185,2.852 15.518,1.311 23.908,0C26.015,0.406 25.828,1.685 25.431,3.365C24.445,7.545 24.06,11.908 22.693,15.947C21.361,19.885 22.859,22.594 24.971,25.515C28.259,30.062 32.288,34.059 34.996,39.033C31.763,40.713 27.629,40.19 24.919,43.15C19.71,45.097 13.755,44.616 9.002,48.044C8.651,46.026 7.301,45.857 5.695,46.328C4.361,46.721 3.163,47.29 3.979,49.072L0,49.098Z" style="fill:#616018;fill-rule:nonzero;"/>
            </g>
            <g transform="matrix(1,0,0,1,128.8,676.228)">
                <path d="M0,67.007C-1.465,68.84 -3.506,68.294 -5.682,68.685C-6.184,64.574 -4.017,61.501 -3.323,58.457C-2.117,56.603 -0.465,57.116 0.931,56.839C20.583,55.317 39.911,52.622 57.039,40.601C64.801,27.377 72.936,13.494 81.126,-0.355C81.506,-0.998 82.383,-1.347 83.029,-1.833C83.031,-1.164 83.032,-0.495 83.034,0.174C75.212,13.906 66.548,27.174 58.678,42.651C50.434,46.376 41.27,52.549 30.745,54.866C20.287,57.17 9.454,57.765 -1.449,59.139C-2.242,61.433 -2.987,63.586 -3.808,65.96C-2.401,66.347 -1.2,66.677 0,67.007" style="fill:#524b15;fill-rule:nonzero;"/>
            </g>
            <g transform="matrix(1,0,0,1,240.59,673.189)">
                <path d="M0,-16.105C0.161,-15.664 0.323,-15.222 0.569,-14.549C1.169,-14.652 1.758,-14.752 2.348,-14.853C1.517,-12.502 3.509,-10.4 2.833,-7.317C-5.166,-4.942 -13.485,-2.47 -21.805,0C-17.348,-2.414 -12.817,-4.707 -8.473,-7.309C-6.947,-8.222 -3.91,-8.792 -5.816,-11.906C-2.776,-11.78 -0.985,-13.384 0,-16.105" style="fill:#616018;fill-rule:nonzero;"/>
            </g>
            <g transform="matrix(1,0,0,1,166.698,745.419)">
                <path d="M0,-5.269C4.734,-2.516 9.395,-6.694 14.113,-5.418C16.753,-5.367 19.394,-5.317 22.034,-5.266C17.18,1.391 11.12,1.425 4.16,-1.622C1.018,-2.996 -2.513,-3.479 -5.867,-4.368C-4.082,-5.779 -1.964,-5.022 0,-5.269" style="fill:#a78945;fill-rule:nonzero;"/>
            </g>
            <g transform="matrix(1,0,0,1,234.774,676.401)">
                <path d="M0,-15.118C1.907,-12.004 -1.131,-11.434 -2.656,-10.521C-7.001,-7.919 -11.531,-5.626 -15.989,-3.212C-18.306,-2.141 -20.623,-1.071 -22.94,0C-22.942,-0.668 -22.943,-1.337 -22.945,-2.006C-15.356,-6.48 -7.049,-9.699 0,-15.118" style="fill:#3d3711;fill-rule:nonzero;"/>
            </g>
            <g transform="matrix(1,0,0,1,302.766,603.448)">
                <path d="M0,-1.307C6.356,-0.786 12.819,-2.241 19.1,-0.283C12.741,-0.766 6.265,0.934 0,-1.307" style="fill:#8f984a;fill-rule:nonzero;"/>
            </g>
            <g transform="matrix(1,0,0,1,242.475,541.033)">
                <path d="M0,-123.747C-0.063,-121.302 -1.438,-118.936 -0.107,-115.733C20.013,-99.994 40.678,-83.829 61.795,-67.309C56.969,-61.583 50.794,-58.274 45.887,-53.565C48.283,-51.683 48.232,-51.747 50.77,-53.758C60.626,-61.571 70.651,-69.175 80.02,-77.897C82.429,-75.714 82.981,-72.885 84.761,-70.101C76.077,-57.832 66.304,-46.5 57.152,-34.985C52.833,-35.061 49.797,-38.595 44.735,-37.203C49.141,-33.032 53.87,-32.265 58.563,-31.859C65.015,-38.995 69.978,-46.829 77.134,-53.749C86.91,-40.303 95.562,-27.064 104.199,-13.814C95.542,-7.375 86.887,-0.937 77.802,5.821C68.666,-0.904 59.483,-7.684 50.277,-14.431C39.421,-22.389 28.624,-30.431 17.638,-38.207C13.05,-41.455 8.7,-44.726 7.899,-50.701C6.975,-57.608 1.558,-61.498 -2.59,-65.974C-9.129,-73.028 -15.895,-79.904 -23.25,-86.22C-31.433,-93.248 -37.714,-102.223 -46.15,-109.67C-41.65,-116.338 -37.723,-122.802 -32.656,-128.325C-21.202,-129.568 -10.197,-129.548 0,-123.747" style="fill:#ab6633;fill-rule:nonzero;"/>
            </g>
            <g transform="matrix(1,0,0,1,359.809,713.39)">
                <path d="M0,-0.111C-11.395,-4.687 -21.685,-11.322 -33.096,-17.329C-27.477,-24.084 -22.261,-30.407 -16.978,-36.674C-15.342,-38.614 -13.23,-38.217 -11.012,-37.733C-5.367,-36.502 0.069,-34.272 5.943,-34.132C6.61,-33.5 7.278,-32.869 7.945,-32.238C6.79,-31.307 5.469,-30.514 5.042,-28.47C6.549,-23.143 6.16,-16.969 8.907,-10.42C9.717,-12.092 9.993,-12.664 10.269,-13.234C14.772,-12.593 18.803,-15.768 23.473,-14.947C27.48,-10.792 27.435,-4.546 30.991,-0.178C30.916,3.115 32.738,4.893 35.595,6.211C45.107,10.603 54.548,15.152 64.016,19.641C63.018,21.401 61.729,22.848 59.084,23.88C58.021,24.914 55.111,20.788 53.93,24.806C51.929,23.708 49.73,23.977 47.585,23.893C39.46,23.573 31.336,23.258 23.211,22.941C20.9,21.041 18.048,21.594 14.916,20.862C14.485,23.198 10.453,23.228 11.959,26.721C7.604,28.923 3.967,32.004 0.9,35.781C-2.481,33.313 -3.415,38.503 -6.546,38.137C-4.185,32.261 -2.192,26.467 0.441,20.98C3.231,15.165 3.091,9.149 2.597,3.15C4.062,1.306 5.359,-0.325 7.361,-2.843C4.208,-1.673 2.104,-0.892 0,-0.111" style="fill:#838320;fill-rule:nonzero;"/>
            </g>
            <g transform="matrix(1,0,0,1,284.794,718.144)">
                <path d="M0,-1.959C4.753,-5.388 10.708,-4.906 15.917,-6.854C20.222,-4.451 23.91,-7.937 27.945,-8.112C32.53,-5.346 36.835,-2.255 39.945,2.224C39.958,2.86 39.972,3.499 39.985,4.139C32.65,4.446 25.314,4.753 17.979,5.061C14.507,5.037 11.023,4.831 7.563,5.031C2.016,5.353 -3.634,4.027 -9.08,6.015C-11.737,6.037 -14.394,6.061 -17.05,6.083C-24.958,6.106 -32.867,6.13 -40.776,6.153C-38.611,3.902 -34.905,5.871 -32.868,3.269C-26.205,2.517 -19.543,1.77 -12.883,1.004C-11.375,0.83 -10.026,0.279 -9.002,-0.906C-7.676,-0.914 -6.35,-0.923 -5.023,-0.933C-3.134,-0.222 -1.599,-1.246 0,-1.959" style="fill:#a78944;fill-rule:nonzero;"/>
            </g>
            <g transform="matrix(1,0,0,1,324.779,720.15)">
                <path d="M0,2.133C-0.013,1.493 -0.026,0.855 -0.04,0.218C4.463,0.79 8.563,-1.18 12.874,-1.83C15.24,-0.444 17.457,0.008 19.152,-2.826C22.114,-3.215 25.075,-3.602 28.036,-3.991C29.809,-2.074 32.614,-3.859 34.563,-2.207C35.258,0.547 34.929,3.34 34.805,6.124C24.356,4.693 13.871,3.631 3.346,2.949C2.218,2.876 1.115,2.414 0,2.133" style="fill:#a78844;fill-rule:nonzero;"/>
            </g>
            <g transform="matrix(1,0,0,1,359.584,743.811)">
                <path d="M0,-17.537C0.125,-20.321 0.454,-23.114 -0.242,-25.868C-2.191,-27.52 -4.996,-25.735 -6.769,-27.652C-5.078,-30.169 -1.832,-28.908 0.226,-30.533C2.33,-31.313 4.434,-32.095 7.587,-33.265C5.585,-30.746 4.288,-29.115 2.823,-27.271C3.317,-21.272 3.457,-15.256 0.667,-9.441C-1.967,-3.954 -3.959,1.84 -6.32,7.716C-3.189,8.082 -2.256,2.892 1.125,5.359C-1.881,9.788 -6.316,12.296 -11.5,15.728C-11.285,10.829 -9.157,7.987 -8.082,4.823C-5.531,-2.682 -1.218,-9.55 0,-17.537" style="fill:#504a14;fill-rule:nonzero;"/>
            </g>
            <g transform="matrix(1,0,0,1,413.739,733.681)">
                <path d="M0,4.515C1.182,0.497 4.091,4.623 5.154,3.589C7.8,2.557 9.088,1.11 10.086,-0.65C10.964,-0.87 11.797,-1.918 12.98,-0.529C12.535,2.593 9.624,3.833 7.559,5.978C5.02,5.41 2.271,6.433 0,4.515" style="fill:#554f17;fill-rule:nonzero;"/>
            </g>
            <g transform="matrix(0.318476,0.947931,0.947931,-0.318476,372.312,733.496)">
                <path d="M6.098,-2.622C2.307,-2.937 3.563,0.894 1.485,2.047C3.177,4.782 3.561,7.661 6.098,9.247C7.512,6.635 4.908,4.759 4.902,2.177C5.261,0.737 5.679,-0.942 6.098,-2.622" style="fill:#4d4713;fill-rule:nonzero;"/>
            </g>
            <g transform="matrix(0.0352331,0.999379,0.999379,-0.0352331,288.334,710.219)">
                <path d="M13.487,-13.103C11.693,-7.591 13.217,-1.991 13.091,3.565C13.012,7.03 13.34,10.503 13.487,13.973C15.415,9.82 13.901,5.514 13.968,1.289C14.043,-3.505 13.667,-8.306 13.487,-13.103" style="fill:#c3b97b;fill-rule:nonzero;"/>
            </g>
            <g transform="matrix(-0.117402,0.993085,0.993085,0.117402,258.124,713.653)">
                <path d="M12.227,-12.759C11.276,-4.907 10.324,2.943 9.372,10.795C12.021,5.695 11.189,-0.022 12.227,-5.408C12.691,-7.809 12.831,-10.272 13.118,-12.707C12.828,-12.848 12.531,-12.866 12.227,-12.759" style="fill:#c4bb7d;fill-rule:nonzero;"/>
            </g>
            <g transform="matrix(0.864174,0.503194,0.503194,-0.864174,188.346,740.009)">
                <path d="M0.406,0.07C-1.902,-1.215 -4.209,-2.5 -6.516,-3.784C-6.184,0.699 -0.848,0.164 0.406,3.466C3.121,3.711 5.552,4.589 7.914,3.206C6.023,0.696 2.346,2.461 0.406,0.07" style="fill:#57501a;fill-rule:nonzero;"/>
            </g>
            <g transform="matrix(1,0,0,1,370.078,683.966)">
                <path d="M0,16.19C-0.276,16.76 -0.552,17.332 -1.361,19.004C-4.109,12.455 -3.72,6.281 -5.227,0.954C-4.8,-1.09 -3.479,-1.883 -2.323,-2.814C-1.097,-2.749 -0.41,-2.121 -0.306,-0.883C-2.285,0.429 -2.378,2.263 -1.971,4.396C-1.225,8.31 -0.647,12.256 0,16.19" style="fill:#4a3215;fill-rule:nonzero;"/>
            </g>
            <g transform="matrix(1,0,0,1,385.647,674.897)">
                <path d="M0,-4.701C-1.479,-1.923 -3.265,0.444 -6.854,0.369C-5.761,-2.932 -3.864,-5.145 0,-4.701" style="fill:#473015;fill-rule:nonzero;"/>
            </g>
            <g transform="matrix(1,0,0,1,346.952,63.2258)">
                <path d="M0,124.811C5.848,114.755 11.695,104.7 17.904,94.023C8.93,87.184 0.686,79.392 -8.943,74.131C-14.652,71.012 -22.54,71.852 -29.455,70.974C-39.154,69.744 -48.86,68.573 -59.056,67.315C-58.799,61.277 -57.184,55.962 -55.65,50.297C-41.106,50.936 -26.735,51.568 -11.979,52.217C-7.14,34.522 -2.463,17.417 2.203,0.352C5.375,0 7.822,1.055 11.33,1.682C6.292,18.58 1.349,35.163 -3.827,52.524C3.622,53.377 10.332,52.541 17.547,54.501C26.39,68.729 35.6,83.548 44.979,98.64C43.525,100.812 42.152,102.864 40.78,104.916C39.889,105.317 38.98,105.686 38.106,106.124C25.455,112.455 13.049,119.288 0,124.811" style="fill:#ab6633;fill-rule:nonzero;"/>
            </g>
            <g transform="matrix(1,0,0,1,288.782,330.254)">
                <path d="M0,-107.056L36.684,-107.056C41.966,-100.425 48.453,-94.628 51.137,-86.148C52.52,-83.826 54.768,-82.429 57.011,-81.024C36.013,-68.541 15.021,-56.048 -5.987,-43.581C-12.134,-39.932 -18.366,-36.426 -24.487,-32.734C-31.418,-28.555 -34.799,-21.178 -39.804,-15.273C-43.869,-10.476 -47.484,-5.299 -51.52,0C-60.161,-1.497 -67.917,-5.35 -76.056,-7.949C-73.834,-8.359 -74.076,-10.356 -73.602,-11.847C-72.552,-15.15 -72.058,-18.64 -70.312,-21.683C-36,-40.091 -1.74,-58.471 32.866,-77.036C27.029,-81.1 22.005,-84.598 16.981,-88.097C17.535,-88.691 18.088,-89.285 19.111,-90.384C12.699,-95.977 6.35,-101.516 0,-107.056" style="fill:#6a3f20;fill-rule:nonzero;"/>
            </g>
            <g transform="matrix(1,0,0,1,305.763,322.306)">
                <path d="M0,-80.148C5.024,-76.65 10.048,-73.151 15.884,-69.087C-18.721,-50.522 -52.981,-32.142 -87.293,-13.734C-89.039,-10.692 -89.533,-7.201 -90.583,-3.898C-91.057,-2.408 -90.816,-0.411 -93.038,0C-99.163,-2.044 -105.288,-4.089 -111.991,-6.327C-108.481,-10.421 -104.34,-12.853 -100.573,-15.647C-74.168,-35.231 -47.663,-54.68 -21.241,-74.241C-14.868,-78.959 -7.323,-79.062 0,-80.148" style="fill:#ab6633;fill-rule:nonzero;"/>
            </g>
            <g transform="matrix(1,0,0,1,346.952,197.309)">
                <path d="M0,-9.272C13.049,-14.795 25.455,-21.628 38.106,-27.959C38.98,-28.397 39.889,-28.766 40.78,-29.167C29.848,-12.813 18.915,3.541 7.983,19.895C3.256,13.904 -1.473,7.914 -6.201,1.923C-4.134,-1.808 -2.067,-5.54 0,-9.272" style="fill:#6a3f20;fill-rule:nonzero;"/>
            </g>
            <g transform="matrix(1,0,0,1,312.739,710.835)">
                <path d="M0,-0.803C-4.035,-0.627 -7.723,2.858 -12.028,0.456C-9.318,-2.504 -5.185,-1.981 -1.952,-3.661C-0.764,-3.075 -0.024,-2.183 0,-0.803" style="fill:#4d3916;fill-rule:nonzero;"/>
            </g>
            <g transform="matrix(1,0,0,1,343.931,717.977)">
                <path d="M0,-0.653C-1.695,2.181 -3.912,1.729 -6.278,0.343C-4.409,-1.391 -2.492,-2.834 0,-0.653" style="fill:#544d16;fill-rule:nonzero;"/>
            </g>
            <g transform="matrix(1,0,0,1,284.794,715.734)">
                <path d="M0,0.451C-1.599,1.164 -3.134,2.188 -5.023,1.478C-5.84,-0.303 -4.642,-0.872 -3.307,-1.265C-1.702,-1.737 -0.351,-1.568 0,0.451" style="fill:#534b16;fill-rule:nonzero;"/>
            </g>
        </g>
    </g>
</svg>
