<?xml version="1.0" encoding="UTF-8" standalone="no"?>
<!DOCTYPE svg PUBLIC "-//W3C//DTD SVG 1.1//EN" "http://www.w3.org/Graphics/SVG/1.1/DTD/svg11.dtd">
<svg width="100%" height="100%" viewBox="0 0 417 538" version="1.1" xmlns="http://www.w3.org/2000/svg" xmlns:xlink="http://www.w3.org/1999/xlink" xml:space="preserve" xmlns:serif="http://www.serif.com/" style="fill-rule:evenodd;clip-rule:evenodd;stroke-linecap:round;stroke-linejoin:round;">
    <g transform="matrix(1,0,0,1,-1.50001,-1.6338)">
        <g transform="matrix(-0.8,0,0,0.8,417.2,270.294)">
            <g id="svg_58">
                <g id="svg_60">
                    <g transform="matrix(-1.25,0,0,1.25,521.5,-337.867)">
                        <ellipse cx="186.373" cy="159.094" rx="35.09" ry="11.811" style="fill:#fff;"/>
                    </g>
                    <path id="svg_6" d="M312.8,-306.35L312.25,-306.65L310.9,-306.35C307.867,-305.283 305.217,-303.733 302.95,-301.7L302.85,-301.7C300.917,-301.3 300.067,-300.25 300.3,-298.55L299.9,-298.3L300.45,-298.1L301.55,-297.65L309.05,-294.7L346.35,-323.8L314.35,-291.45L291.55,-297.95L356.8,-334.45L355.25,-332.85L324.45,-313.6L324.4,-313.65C321.633,-313.35 319.45,-312.15 317.85,-310.05C316.95,-309.75 316.433,-309.25 316.3,-308.55L312.8,-306.35" style="fill:#ccc;"/>
                    <path id="svg_7" d="M300.3,-298.55C300.067,-300.25 300.917,-301.3 302.85,-301.7L302.95,-301.7C305.217,-303.733 307.867,-305.283 310.9,-306.35L312.25,-306.65L312.8,-306.35C314.167,-305.483 314.45,-304.55 313.65,-303.55L312.4,-302.3C311.3,-301.467 310.15,-300.733 308.95,-300.1L307.2,-298.75C305.6,-297.483 304.183,-297.2 302.95,-297.9L301.55,-297.65L300.45,-298.1L300.3,-298.55M316.3,-308.55C316.433,-309.25 316.95,-309.75 317.85,-310.05C319.45,-312.15 321.633,-313.35 324.4,-313.65L324.45,-313.6C326.583,-313.033 326.883,-311.983 325.35,-310.45L324.15,-309.25C321.917,-307.183 319.5,-306.433 316.9,-307C316.6,-307.067 316.417,-307.267 316.35,-307.6L316.3,-308.55" style="fill:#fcfcfc;"/>
                    <path id="svg_8" d="M312.8,-306.35L316.3,-308.55L316.35,-307.6C316.417,-307.267 316.6,-307.067 316.9,-307C319.5,-306.433 321.917,-307.183 324.15,-309.25L325.35,-310.45C326.883,-311.983 326.583,-313.033 324.45,-313.6L355.25,-332.85L346.35,-323.8L309.05,-294.7L301.55,-297.65L302.95,-297.9C304.183,-297.2 305.6,-297.483 307.2,-298.75L308.95,-300.1C310.15,-300.733 311.3,-301.467 312.4,-302.3L313.65,-303.55C314.45,-304.55 314.167,-305.483 312.8,-306.35M300.45,-298.1L299.9,-298.3L300.3,-298.55L300.45,-298.1" style="fill:#ddd;"/>
                    <path id="svg_9" d="M291.55,-297.95L314.35,-291.45L304.85,-264.95L294.8,-271.9L299.95,-277.45C300.517,-277.25 301.133,-277.25 301.8,-277.45C304.7,-278.283 305.6,-280.217 304.5,-283.25C304.367,-283.683 304.283,-284.1 304.25,-284.5C304.117,-287.3 302.467,-288.45 299.3,-287.95C296.267,-286.917 294.683,-284.817 294.55,-281.65L294.6,-281.4L291.55,-278.25L291.55,-297.95" style="fill:#797979;"/>
                    <path id="svg_10" d="M294.6,-281.4L294.55,-281.65C294.683,-284.817 296.267,-286.917 299.3,-287.95C302.467,-288.45 304.117,-287.3 304.25,-284.5C304.283,-284.1 304.367,-283.683 304.5,-283.25C305.6,-280.217 304.7,-278.283 301.8,-277.45C301.133,-277.25 300.517,-277.25 299.95,-277.45L298.8,-278.3C298.067,-279.1 297.217,-279.767 296.25,-280.3L295,-280.85C294.767,-280.95 294.633,-281.133 294.6,-281.4M112.5,-78.2L112.6,-78.2C114.3,-77.933 115.75,-77.183 116.95,-75.95L117.7,-75.1L117.85,-74.95L118.35,-74.65C119.25,-73.983 119.667,-73.3 119.6,-72.6C119.5,-71.867 118.817,-71.117 117.55,-70.35C117.15,-70.083 116.767,-69.967 116.4,-70C115.9,-70.067 115.45,-70.333 115.05,-70.8L113,-73.15L112.5,-73.75C111.667,-74.15 111.133,-74.617 110.9,-75.15C110.633,-75.783 110.717,-76.5 111.15,-77.3C111.45,-77.833 111.9,-78.133 112.5,-78.2" style="fill:#96510f;"/>
                    <path id="svg_11" d="M294.6,-281.4C294.633,-281.133 294.767,-280.95 295,-280.85L296.25,-280.3L164.3,-136.45L162.05,-132.95L158.15,-137.1L291.55,-278.25L294.6,-281.4M13.35,53.05L9.65,57.3L0,50.15L4.35,44.55L10.85,39.55L105.05,-68.45L110.9,-75.15C111.133,-74.617 111.667,-74.15 112.5,-73.75L113,-73.15L7.75,47.75L13.35,53.05M4.35,44.55L7.75,47.75L4.35,44.55" style="fill:#ea8826;"/>
                    <path id="svg_12" d="M299.95,-277.45L294.8,-271.9L165.25,-129.55L162.05,-132.95L164.3,-136.45L296.25,-280.3C297.217,-279.767 298.067,-279.1 298.8,-278.3L299.95,-277.45M106.5,-58.2L13.35,53.05L7.75,47.75L113,-73.15L115.05,-70.8C115.45,-70.333 115.9,-70.067 116.4,-70L106.5,-58.2M116.95,-75.95L117.2,-75.8L118.35,-74.65L117.85,-74.95L117.7,-75.1L116.95,-75.95" style="fill:#ba6714;"/>
                    <path id="svg_13" d="M277,-165.3C273.033,-174.6 267.817,-184.15 261.35,-193.95L262.95,-192.9L297.95,-158.45L277,-165.3M294,-172.3C291.633,-178.533 291.633,-185.033 294,-191.8C298.567,-193.6 304.783,-193.683 312.65,-192.05L305.65,-188.3L303.7,-184.45L305.35,-178.7L314.65,-164.45L305.85,-164.45L294,-172.3M433.25,-82.6L446.85,-63.55L433.05,-69.95L440.4,-48.2L399.2,-60.8L395.55,-61.9L399.85,-55.9L407.1,-45.75L401.2,-45.5L378.7,-44.7L369.05,-36.05L365.55,-39.8L368.9,-47.5L391.95,-56.1L392.4,-56.3L392.05,-57.8L389.6,-67.5L392.75,-67.45L427.1,-67.15L422.55,-86.45L433.25,-82.6M455.2,-7C458.1,2.533 459.9,10.617 460.6,17.25C457.4,10.85 452.533,5.183 446,0.25C444.067,-0.617 441.55,-2.217 438.45,-4.55C428.95,-8.183 424.267,-9.85 424.4,-9.55C423.933,-9.15 423.333,-9.35 422.6,-10.15C419.8,-11.717 415.55,-12.133 409.85,-11.4C411.85,-11.867 410.333,-11.85 405.3,-11.35L385.3,-9.95L382.1,-18.6L398.3,-18.4L411.6,-18.3L401.15,-23.65L396.75,-25.9L410,-25.2L418.3,-24.75L438.25,-10.2L436.85,-18.3L455.2,-7M462.15,37.9L470.6,61.55L469.75,66.2L472.45,74.55L471.5,95.6L466.1,110.05L468.2,94.15L467.2,77.2L468,75.55L467,73.85L466.4,64.5L462.05,54.4L446.85,43.15L437.45,52.95L437.35,51.45L436,30.5L429.85,22.55L402,19.65L391.15,29.45L391.5,20.75L373.45,24.75L359.25,33.65L359.2,33.55L361.3,26.55L366.8,18.75L373.7,10.8L373.8,10.8L373.85,10.6L373.7,10.8L370.7,11C382.1,7.7 393.25,6.15 404.15,6.35L412.65,6.85C417.05,7.283 421.4,8.033 425.7,9.1L432.65,11C441.35,16.133 451.183,25.1 462.15,37.9M450.1,136.7L449.55,137.05L448.3,141.05L445.4,142.1L439.25,129.7L455,118.75L453.6,106.5L452.8,99.95L448.75,79.9L437,81.1L431.75,61.15L431.15,58.85L417.15,61.05L409.45,44.45L385.85,55.25L386.25,62.95L389.9,69.6L389.3,70.05L385.3,78.95L375.95,72.25L389.8,47.55L389.8,46.5L389.8,47.55L375.95,72.25L367.3,82.55L354.3,94.55L347.1,89.45L352.3,87.05L351.4,82.9L363.05,81.25L373.5,67.85L381.1,57.4L365.95,64.3L367.35,47.9L349.6,41.2L350.3,40.55L357.05,40.55L357.3,39.8L383.75,38.8L389.8,46.5L389.8,46.4L411.45,32.1L416.1,32.1L417.15,54.6L432.95,50.35L434.6,56.25L431.75,61.15L434.6,56.25L439.45,74.05L460.3,77.45L460.6,90.15L457.05,97.15L452.8,99.95L457.05,97.15L460.6,90.15L461.3,118.55L446.5,128.5L450.1,136.7M429.6,160.85L436.95,174.8L437.4,175.4L417.15,180.9L388.9,157.5L382.05,184.55L365.7,169.95L359.85,164.75L348.85,186.05L345.4,187.85L339.95,174.85L355.85,155.1L362.2,157.95L376.4,164.35L386.05,153.85C389.683,155.35 393.65,156.35 397.95,156.85L420,173.65L429.6,160.85M452.25,217.5L452.3,222.45L459,220.25L432.9,250.3L401.05,248.7L392.95,248.3L397.15,239.65L402.25,228.95L393.1,230.6L359.05,236.6L348.05,217.75L355.25,215L353.7,209.95L377.6,219.65L386.8,218.8L412.75,216.4L405.45,238.2L438.55,230.95L452.25,217.5M296.4,133.35L296.4,142.65L285.3,142.2L245.8,102.15L234,99L233.35,119.8L219.4,112.6L210.65,108.1L208.7,111.8L199.1,108.8C194.533,102.633 190.883,97.117 188.15,92.25L205.1,106.4L207.85,101.6L209.2,101.95L228.6,106.8L232.5,94.7L241,96.65L228.3,75.45L220.6,51.75L219.55,48.6L216.8,34.05L222.8,32L222.8,41.25C225.733,55.75 230.967,70.033 238.5,84.1L240.6,86.9C243.8,91.1 247.05,95.067 250.35,98.8L255.9,104.8C259.167,108.233 262.467,111.417 265.8,114.35C275.833,123.55 286.033,129.883 296.4,133.35M203.45,125.3L208.1,122.85L230.1,138.2L242.6,136.35L246.15,135.8L248.3,152.45L256.95,147.7L258.55,155.9L257.55,156.8C256.65,157.6 255.8,158.45 255,159.35L254.55,154L236.85,160.9L242.9,139.25L220.6,144.05L219.45,142.8L203.45,125.3M207.55,-23.55C204.483,-20.983 201.583,-18.117 198.85,-14.95L200.75,-22.85L205.35,-42.45C209.317,-48.783 214.15,-55.117 219.85,-61.45L208.1,-60.2L217.5,-75.15C211.667,-73.183 205.767,-70.367 199.8,-66.7C205.067,-71.333 210.65,-75.667 216.55,-79.7L207.15,-80.15L190.95,-80.95L201.05,-89.25L235,-90.9L233.65,-90.15L241.6,-91.1L223.5,-80L220.05,-75.95C225.75,-77.683 231.4,-78.6 237,-78.7L237.55,-78.7L237.6,-78.9L247.9,-77.55L219.4,-49.55L209,-31.9L207.55,-23.55M190.35,-16.2C184.55,-13.333 177.4,-10.767 168.9,-8.5L139.75,-9.95L109.25,-39L109.25,-53.8L110.45,-51.95L112.05,-49.4C117.45,-47.133 122.85,-45.383 128.25,-44.15L133.55,-43.1L139,-42.45L146.05,-43.2C157.117,-44.867 166.317,-48.35 173.65,-53.65C175.65,-55.783 177.333,-58.217 178.7,-60.95C179.833,-63.283 180.767,-65.817 181.5,-68.55L182.45,-73.15C182.85,-76.45 182.617,-79.65 181.75,-82.75L179.05,-87.25L172.35,-73.45L167.5,-74.8C162.3,-75.033 158.083,-76.233 154.85,-78.4L157.85,-83.95C162.617,-88.617 162.95,-93.283 158.85,-97.95L152.5,-103.45L152.45,-103.9L168.55,-108.8L169.9,-116.2L170,-123.5L174.25,-118.1L187,-108.9L188.35,-106.45L186.55,-102.7L180.35,-89.95L179.05,-87.25L180.35,-89.95L186.55,-102.7L191.2,-100.55L185.3,-92.05L180.35,-89.95L185.3,-92.05L208.35,-101.95L215.35,-106.55L201.05,-111.05L209.9,-114.3L198.4,-116.05L214.55,-126.95L224,-124.7L226.05,-130.4L230.85,-129.6L241.65,-136.65L243.85,-140.45L257.55,-143.9C254.017,-141.5 252.633,-139.1 253.4,-136.7C256,-133.167 259.617,-131 264.25,-130.2L268.4,-129.9L282.9,-136.2L289.6,-131.95L281.6,-128L294.85,-116.95L307.6,-117.65L305.9,-116.05L295.25,-115.4L283.75,-120.8L276.85,-125.15L269.1,-125.05L264.55,-119.9L263.4,-110.45L260.3,-116.75L263.4,-110.45L262.75,-105.4L258,-109.05L260.7,-102.45L264.1,-96.8L264,-96.25L260.95,-81.2L260.05,-71.45L253,-93.4L248.05,-113.1L248.25,-122.6L250.3,-128.05L251.9,-130.5L249.75,-132.55L243.75,-133.15L231.75,-125.2L230.45,-123.15L231.35,-122.95L231.35,-122.9L233.1,-122.65L225.65,-105.1L217.2,-99.55L181.5,-89.85L183.7,-89.7L182.45,-87.95L183.9,-83.9L185.55,-75.05L183.4,-61.7L183.9,-60L190.25,-37.2L180.2,-27.15L190.35,-16.2M107.2,-82.35L102.55,-86L109.55,-93.35L118.75,-92.95L119.5,-96.7L122.75,-112.9L135.95,-113.1L135.3,-118.45L143.35,-111.45L135.3,-118.45L134.7,-123.35L149.4,-124.85L144.55,-141.05C148.517,-140.817 152.483,-139.783 156.45,-137.95L156.95,-124.2L142.05,-119.8L143.35,-111.45L143.95,-107.4L126.5,-110.8L128.45,-90.5L128.85,-86L111.4,-90.2L111.15,-79.25L107.2,-82.35M312.1,-136.35L312.15,-136.35L320.85,-132.95C324.55,-133.783 326.783,-136.75 327.55,-141.85L329.35,-139.25L336.6,-128.8L343.55,-116.9L331.5,-124.3L321.95,-125.85L316,-120.75L313.15,-121.55L319.6,-126.4C318.633,-129.033 315.967,-131.3 311.6,-133.2L297.35,-134.45L306.1,-138.7L312.1,-136.35M308.05,-104.45L308.4,-103.7C308.567,-103.333 308.467,-103.033 308.1,-102.8C306.733,-101.933 305.5,-102.183 304.4,-103.55C302.867,-105.417 301.55,-107.35 300.45,-109.35L300.4,-109.5C300.267,-109.867 300.333,-110.2 300.6,-110.5C300.967,-110.933 301.417,-111.15 301.95,-111.15C304.617,-109.483 306.65,-107.25 308.05,-104.45M294.4,-103.2L293.85,-102.95L291.75,-103.1C289.483,-104.3 287.833,-105.883 286.8,-107.85C286.533,-108.317 286.317,-108.8 286.15,-109.3C286.05,-109.633 286.167,-109.933 286.5,-110.2C286.833,-110.467 287.183,-110.6 287.55,-110.6L294.15,-105.95C295.617,-104.85 295.7,-103.933 294.4,-103.2M278.8,-108.45C279.867,-107.583 280.167,-106.267 279.7,-104.5C279.467,-103.7 279.367,-102.9 279.4,-102.1C279.433,-101.2 279.083,-100.717 278.35,-100.65L277.7,-100.7C276.433,-100.967 275.75,-101.783 275.65,-103.15C275.55,-105.117 276.033,-106.85 277.1,-108.35C277.333,-108.683 277.65,-108.867 278.05,-108.9C278.317,-108.767 278.567,-108.617 278.8,-108.45M275.1,-79.5C274.933,-79.1 274.467,-78.717 273.7,-78.35C273.133,-78.083 272.583,-78.167 272.05,-78.6L268.7,-81.25C267.733,-81.983 267.25,-82.65 267.25,-83.25C267.25,-83.917 267.783,-84.5 268.85,-85L273.8,-81.7C274.933,-80.9 275.367,-80.167 275.1,-79.5M315.5,-101L315.55,-101.3C316.15,-103.667 316.35,-106.117 316.15,-108.65C316.117,-109.15 316.183,-109.55 316.35,-109.85C316.583,-110.283 317.033,-110.533 317.7,-110.6C319.267,-109.767 320,-108.283 319.9,-106.15L319.55,-101.2C319.417,-99.633 318.75,-98.483 317.55,-97.75L316.9,-97.55L316.25,-98C315.55,-98.867 315.3,-99.867 315.5,-101M337.9,-108.65L343.5,-101.5L336.95,-102L339.75,-92.7L351.55,-81.65L335.7,-80.4L341.25,-76.9L352.8,-65.8L333.95,-70.35L339.95,-57.7L327.35,-58.95L339.95,-57.7C345.283,-56.967 351.1,-55.867 357.4,-54.4L366.15,-45.9L351.35,-46.35L341.45,-46.65L369.3,-8.55L369.35,-8.45L369.45,-7.9L364.8,0.4L364.15,8.4L364.5,11L343.25,10.95L304,1.9L303.85,1.85L278.35,-26.95L311.85,0.05L311.85,-16.45L337.35,3.55L328.85,-12.95L357.3,-4.45L333.35,-39.45L333.35,-47.95L331.35,-51.65L327.35,-58.95L321.85,-72.95L334.35,-104.45L337.9,-108.65M360.5,-60.1C358.067,-63.267 355.267,-66.15 352.1,-68.75C356.5,-69.683 361.283,-68.967 366.45,-66.6L369,-58.8L360.5,-60.1M361.5,-84C358.7,-87.767 355.583,-91.45 352.15,-95.05L372.7,-91.15L399.3,-80.65L369.8,-83.25L361.5,-84M367.95,-100.95C362.783,-104.15 357.733,-107.483 352.8,-110.95L366.2,-110.95L377.2,-101.7L367.95,-100.95M311.4,-24.25L319.25,-24.25L311.65,-20.8L297.65,-21.05L288.25,-25.65L279.05,-32.4L276.15,-48.35L285.8,-37.25L292.6,-32.9L311.4,-24.25L298.85,-24.25L290.6,-28.85L298.85,-24.25L311.4,-24.25M441.3,44.55L437.35,51.45L441.3,44.55M469.75,66.2L468,75.55L469.75,66.2M427.45,75.55L428.05,88.1L429.85,95.8L424.9,93.8L424.3,93.55L413.8,91.05L415.8,85.25L417.45,77.8L421.55,78.65L427.4,75.05L427.45,75.55L415.8,85.25L427.45,75.55M437.8,107.25L440.5,109.35L450.3,110.2L450.3,112.7L449.7,113.55L437.8,113.55L449.7,113.55L444.05,121.8L435.25,128L426.45,137.15L422.2,138.2L419.8,135.05L426.8,135.05L437.8,113.55L437.8,107.25M456.8,113.55L453.6,106.5L456.8,113.55M372.7,48.7L363.8,40.55L357.05,40.55L363.8,40.55L372.7,48.7M234.4,-179.9L284.55,-156L283.75,-156.15L292.05,-153.3L295.9,-147.4L296.25,-138.4L299.95,-143.55L296,-134L293.5,-133.2L291.55,-143.25L288.9,-147.6L284.5,-151.6L276.3,-157.8L261.85,-160.95L249.8,-158.4C247,-166.167 241.867,-173.333 234.4,-179.9M256.15,-108.9L264,-96.25L256.15,-108.9M152.5,-103.45L158.85,-97.95C162.95,-93.283 162.617,-88.617 157.85,-83.95L154.85,-78.4C153.183,-76.167 150.45,-75.017 146.65,-74.95L146.35,-74.95L141.2,-78.45L135.8,-84L141.2,-78.45L137.85,-68.45C136.083,-67.65 133.733,-67.35 130.8,-67.55L130.5,-67.55L124.85,-68.45L122.05,-70.65L119.6,-72.6C119.667,-73.3 119.25,-73.983 118.35,-74.65L117.2,-75.8L124.25,-74.15L124.3,-74.15L127.2,-73.5L134.6,-76.4L135.75,-84L135.8,-84L149.1,-86.25L153.8,-93.85L152.5,-103.45M181.5,-89.85L180.35,-89.95L181.5,-89.85M174.25,-118.1L174.85,-104.45C172.417,-100.95 167.083,-98.783 158.85,-97.95C167.083,-98.783 172.417,-100.95 174.85,-104.45L174.25,-118.1M220.05,-75.95L217.5,-75.15L220.05,-75.95M174.75,-44.95L167.25,-43.8L146.75,-37.85L134.4,-36.1L129.95,-36.85L135.55,-22.25L135.05,-22.1L140.85,-13.3L144.35,-11.15L164.05,-9.25L170.45,-11.75L168.9,-27.8L182.4,-38.15L180.95,-55.55L174.75,-44.95M180.05,-57.3L183.9,-60L180.05,-57.3M260.5,-52.4L266.5,-54.15L261.9,-47.85L253.45,-40.6L247.1,-32.1L245.35,-31.45C245.083,-34.55 246.667,-37.967 250.1,-41.7L260.5,-52.4M230.45,-123.15L224,-124.7L230.45,-123.15M216.55,-79.7C221.917,-83.4 227.617,-86.883 233.65,-90.15C227.617,-86.883 221.917,-83.4 216.55,-79.7M215.35,-106.55C221.517,-111.15 226.85,-116.6 231.35,-122.9C226.85,-116.6 221.517,-111.15 215.35,-106.55M219.85,-61.45C225.017,-67.217 230.917,-72.967 237.55,-78.7C230.917,-72.967 225.017,-67.217 219.85,-61.45M128.45,-90.5C128.35,-90.567 128.283,-90.617 128.25,-90.65C125.317,-92.983 122.4,-95 119.5,-96.7C122.4,-95 125.317,-92.983 128.25,-90.65C128.283,-90.617 128.35,-90.567 128.45,-90.5" style="fill:#dea014;"/>
                    <path id="svg_14" d="M158.15,-137.1L162.05,-132.95L165.25,-129.55L170,-123.5L169.9,-116.2L168.55,-108.8L152.45,-103.9L152.5,-103.45L153.8,-93.85L149.1,-86.25L135.8,-84L135.75,-84L134.6,-76.4L127.2,-73.5L124.3,-74.15L124.25,-74.15L117.2,-75.8L116.95,-75.95C115.75,-77.183 114.3,-77.933 112.6,-78.2L112.5,-78.2L111.15,-79.25L111.4,-90.2L128.85,-86L128.45,-90.5L135.75,-84.05L135.8,-84L135.75,-84.05L128.45,-90.5L126.5,-110.8L143.95,-107.4L143.35,-111.45L142.05,-119.8L156.95,-124.2L156.45,-137.95L158.15,-137.1M277,-165.3L297.95,-158.45L262.95,-192.9L294,-172.3L305.85,-164.45L314.65,-164.45L305.35,-178.7L303.7,-184.45L305.65,-188.3L312.65,-192.05L313.95,-191.8C324.683,-184.267 332.817,-176.733 338.35,-169.2C341.483,-158.833 340.817,-150.917 336.35,-145.45C352.117,-141.583 368.267,-139.083 384.8,-137.95L346.85,-131.45C359.85,-125.45 372.833,-120.783 385.8,-117.45L404.8,-111.95L387.3,-111.95L429.8,-87.45L433.25,-82.6L422.55,-86.45L427.1,-67.15L392.75,-67.45L390.55,-69.75L369.8,-83.25L399.3,-80.65L372.7,-91.15L352.15,-95.05C355.583,-91.45 358.7,-87.767 361.5,-84C366.667,-77.067 370.8,-69.833 373.9,-62.3C371.333,-64.1 368.85,-65.533 366.45,-66.6C361.283,-68.967 356.5,-69.683 352.1,-68.75C355.267,-66.15 358.067,-63.267 360.5,-60.1C362.3,-57.733 363.9,-55.183 365.3,-52.45L357.4,-54.4C351.1,-55.867 345.283,-56.967 339.95,-57.7L333.95,-70.35L352.8,-65.8L341.25,-76.9L335.7,-80.4L351.55,-81.65L339.75,-92.7L336.95,-102L343.5,-101.5L337.9,-108.65L334.35,-104.45L321.85,-72.95L327.35,-58.95L331.35,-51.65L333.35,-47.95L333.35,-39.45L357.3,-4.45L328.85,-12.95L337.35,3.55L311.85,-16.45L311.85,0.05L278.35,-26.95L268.85,-38.45L266.4,-37.7L265.65,-38.75L265.55,-37.45L255.7,-35.45L247.1,-32.1L253.45,-40.6L261.9,-47.85L266.5,-54.15L260.5,-52.4L260.95,-52.9L246.8,-46.65L238.8,-42.05L224,-33.7C218.067,-31.133 212.583,-27.75 207.55,-23.55L209,-31.9L219.4,-49.55L247.9,-77.55L237.6,-78.9L237.55,-78.7L237,-78.7C231.4,-78.6 225.75,-77.683 220.05,-75.95L223.5,-80L241.6,-91.1L233.65,-90.15L235,-90.9L201.05,-89.25L194.35,-88.95L183.7,-89.7L181.5,-89.85L217.2,-99.55L225.65,-105.1L233.1,-122.65L231.35,-122.9L231.35,-122.95L230.45,-123.15L231.75,-125.2L243.75,-133.15L249.75,-132.55L251.9,-130.5L250.3,-128.05L248.25,-122.6L248.05,-113.1L253,-93.4L260.05,-71.45L260.95,-81.2L264,-96.25L266.95,-91.45L264,-96.25L264.1,-96.8L260.7,-102.45L258,-109.05L262.75,-105.4L263.4,-110.45L264.55,-119.9L269.1,-125.05L276.85,-125.15L283.75,-120.8L295.25,-115.4L305.9,-116.05L307.6,-117.65L307.8,-117.65L310.4,-119.5L313.15,-121.55L316,-120.75L321.95,-125.85L331.5,-124.3L343.55,-116.9L336.6,-128.8L329.35,-139.25L329.5,-139.3L334.35,-136.95L336.35,-145.45C335.183,-148.917 332.017,-152.083 326.85,-154.95L312.85,-153.45C305.883,-147.383 300.717,-141.05 297.35,-134.45L296,-134L299.95,-143.55L296.25,-138.4L295.9,-147.4L292.05,-153.3L283.75,-156.15L284.55,-156L234.4,-179.9L234.35,-179.95L277.35,-164.45L277,-165.3M446.85,-63.55L467.3,-34.95L454.8,-43.45L466.3,-14.45L449.3,-24.45L449.95,-22.7L455.2,-7L436.85,-18.3L438.25,-10.2L418.3,-24.75L410,-25.2L402.85,-35.4L407.85,-35.55L409.85,-35.65L401.2,-45.5L407.1,-45.75L399.85,-55.9L405.1,-54.65L399.2,-60.8L440.4,-48.2L433.05,-69.95L446.85,-63.55M466.1,110.05L458.15,131.4L450.1,136.7L446.5,128.5L461.3,118.55L460.6,90.15L460.3,77.45L439.45,74.05L434.6,56.25L437.35,51.45L437.45,52.95L446.85,43.15L462.05,54.4L466.4,64.5L467,73.85L468,75.55L467.2,77.2L460.6,90.15L467.2,77.2L468.2,94.15L466.1,110.05M445.4,142.1L428.3,148.2L427.5,156.85L429.6,160.85L420,173.65L397.95,156.85L400.3,157.05L420.2,148.2L427.3,145.05L422.2,138.2L426.45,137.15L435.25,128L444.05,121.8L449.7,113.55L450.3,112.7L450.3,113.55L449.7,113.55L450.3,113.55L450.3,110.2L440.5,109.35L437.8,107.25L437.8,99.05L429.85,95.8L428.05,88.1L427.45,75.55L429.8,73.55C431.8,70.283 431.8,67.283 429.8,64.55L431.75,61.15L437,81.1L448.75,79.9L452.8,99.95L450.3,101.55L450.3,110.2L450.3,101.55L452.8,99.95L453.6,106.5L451.3,101.55L453.6,106.5L455,118.75L439.25,129.7L445.4,142.1M437.4,175.4C446.667,188.2 451.617,202.233 452.25,217.5L438.55,230.95L405.45,238.2L412.75,216.4L386.8,218.8L380.3,206.7L371.75,190.8L365.7,169.95L382.05,184.55L388.9,157.5L417.15,180.9L437.4,175.4M459,220.25L466,217.95C472.7,223.317 475.75,229.4 475.15,236.2C471.417,238.867 468.3,241.833 465.8,245.1C461.467,250.733 458.983,257.317 458.35,264.85L455.65,269.35L438.65,269.35L445.7,277.25L436.95,292.6L432.4,276.45C428.9,271.017 420.883,268.1 408.35,267.7L405.4,267.9L404.85,257.5L401.05,248.7L432.9,250.3L459,220.25M379.75,270L368.1,280.55C357.267,282.117 350.3,280.583 347.2,275.95L360.25,266.85L357.3,259.8L364.4,248.55L376.5,241.75L383.3,248.55L379.75,270M296.4,142.65L296.4,155.9L290.25,164.85L286.75,154.75C281.05,151.317 275.017,149.517 268.65,149.35C264.817,151.217 261.45,153.4 258.55,155.9L256.95,147.7L248.3,152.45L246.15,135.8L242.6,136.35L252.7,133.55L223.65,115.95L219.4,112.6L233.35,119.8L234,99L245.8,102.15L285.3,142.2L296.4,142.65M264.8,175.85L212.85,175.65L220.4,172.1C220.967,166.9 219.383,161.7 215.65,156.5L214.6,155.15C213.933,153.883 212.983,152.65 211.75,151.45L212.15,150.8L219.45,142.8L220.6,144.05L242.9,139.25L236.85,160.9L254.55,154L255,159.35C253.767,160.683 252.65,162.1 251.65,163.6C251.75,166.733 253.417,169.567 256.65,172.1L264.8,175.85M200.75,-22.85C197.95,-20.483 194.483,-18.267 190.35,-16.2L180.2,-27.15L190.25,-37.2L183.9,-60L198.1,-70.2L191.8,-73.5L207.15,-80.15L216.55,-79.7C210.65,-75.667 205.067,-71.333 199.8,-66.7C205.767,-70.367 211.667,-73.183 217.5,-75.15L208.1,-60.2L219.85,-61.45C214.15,-55.117 209.317,-48.783 205.35,-42.45L200.75,-22.85M102.55,-86L101.35,-86.95C98.217,-92.983 98.35,-100.683 101.75,-110.05C104.35,-111.517 106.8,-112.55 109.1,-113.15C111.4,-113.783 113.833,-115.533 116.4,-118.4L121.65,-124.1L124.05,-126.4C124.717,-127 124.75,-127.333 124.15,-127.4C124.383,-131.067 125.833,-134.533 128.5,-137.8L128.6,-137.95L131.75,-139.2C136.017,-140.733 140.283,-141.35 144.55,-141.05L149.4,-124.85L134.7,-123.35L135.3,-118.45L135.95,-113.1L122.75,-112.9L119.5,-96.7L116.75,-98.25L119.5,-96.7L118.75,-92.95L109.55,-93.35L102.55,-86M392.05,-57.8L392.4,-56.3L391.95,-56.1L390,-58.3L392.05,-57.8M314.65,-164.45L317.35,-164.45L326.85,-154.95L317.35,-164.45L314.65,-164.45M344.1,-115.95L337.9,-108.65L344.1,-115.95M269,-98.9L263.4,-110.45L269,-98.9M316.35,-109.85L316.35,-110.45L308.05,-104.45C306.65,-107.25 304.617,-109.483 301.95,-111.15C301.417,-111.15 300.967,-110.933 300.6,-110.5C300.333,-110.2 300.267,-109.867 300.4,-109.5L299.85,-109.95L294.85,-102.95L294.4,-103.2C295.7,-103.933 295.617,-104.85 294.15,-105.95L287.55,-110.6C287.183,-110.6 286.833,-110.467 286.5,-110.2C286.167,-109.933 286.05,-109.633 286.15,-109.3C286.317,-108.8 286.533,-108.317 286.8,-107.85L285.85,-108.45L278.8,-108.45C278.567,-108.617 278.317,-108.767 278.05,-108.9C277.65,-108.867 277.333,-108.683 277.1,-108.35C276.033,-106.85 275.55,-105.117 275.65,-103.15C275.75,-101.783 276.433,-100.967 277.7,-100.7L278.35,-100.65L278.35,-87.45L271.35,-92.95L277.35,-78.45L275.1,-79.5C275.367,-80.167 274.933,-80.9 273.8,-81.7L268.85,-85C267.783,-84.5 267.25,-83.917 267.25,-83.25L265.85,-83.95L272.85,-74.45L277.85,-58.45L278.35,-57.55L278.4,-57.4L286.85,-42.45L293.85,-50.95C294.817,-47.617 294.817,-44.283 293.85,-40.95L315.85,-40.95L319.05,-46.45L321.35,-50.45C322.55,-47.617 322.55,-44.783 321.35,-41.95L326.35,-46.8L324.6,-55.45L324.6,-65.95L317.85,-60.45L317.85,-83.45L325.35,-102.45L317,-97.3L316.9,-97.55L317.55,-97.75C318.75,-98.483 319.417,-99.633 319.55,-101.2L319.9,-106.15C320,-108.283 319.267,-109.767 317.7,-110.6C317.033,-110.533 316.583,-110.283 316.35,-109.85M367.95,-100.95C375.817,-96.117 383.933,-91.617 392.3,-87.45L372.7,-91.15L392.3,-87.45C383.933,-91.617 375.817,-96.117 367.95,-100.95L377.2,-101.7L366.2,-110.95L352.8,-110.95C357.733,-107.483 362.783,-104.15 367.95,-100.95M385.8,-117.45L359.3,-117.45L375.8,-110.95L366.2,-110.95L375.8,-110.95L359.3,-117.45L385.8,-117.45M330.4,-119.65L326.25,-109.7L330.4,-119.65M351.35,-46.35L369.35,-33.45L368.25,-33.4L365.35,-33.2L366.5,-25.9L369.3,-8.55L341.45,-46.65L351.35,-46.35M398.3,-18.4L391.15,-25.6L401.15,-23.65L411.6,-18.3L398.3,-18.4M368.25,-33.4L352.3,-38.45L368.25,-33.4M329.55,-30.9L322.1,-24.25L320.1,-24.25L322.1,-24.25L329.55,-30.9M326.35,-46.8L331.35,-51.65L326.35,-46.8M319.25,-24.25L311.4,-24.25L292.6,-32.9L285.8,-37.25L276.15,-48.35L279.05,-32.4L288.25,-25.65L297.65,-21.05L311.65,-20.8L319.25,-24.25M359.2,33.55L359.25,33.65L373.45,24.75L391.5,20.75L391.15,29.45L402,19.65L429.85,22.55L436,30.5L437.35,51.45L434.6,56.25L432.95,50.35L417.15,54.6L416.1,32.1L411.45,32.1L389.8,46.4L389.8,46.5L383.75,38.8L357.3,39.8L359.2,33.55M366.5,-25.9L360.9,-33.7L366.5,-25.9M417,-38.45L420.35,-30.25L407.85,-35.55L420.35,-30.25L417,-38.45M419.15,-37.7L428.95,-30.75L423.5,-43.75L428.95,-30.75L419.15,-37.7M389.9,69.6L386.25,62.95L385.85,55.25L409.45,44.45L417.15,61.05L431.15,58.85L431.75,61.15L429.8,64.55C431.8,67.283 431.8,70.283 429.8,73.55L427.45,75.55L427.4,75.05L421.55,78.65L417.45,77.8L417.7,76.55C415.633,71.717 412.2,68.05 407.4,65.55C404.9,64.217 402.033,63.217 398.8,62.55L389.9,69.6M431.15,40L423.3,32.1L416.1,32.1L423.3,32.1L431.15,40M467,73.85L456.9,57L443.6,51.6L456.9,57L467,73.85M411.45,32.1L407.55,32.1L411.45,32.1M401.65,124.85L400.6,128.7L393.65,133.75L393.2,134.05L391.45,135.35L375.3,147.05L375.65,147.35C378.75,150.083 382.217,152.25 386.05,153.85L376.4,164.35L362.2,157.95L359.7,149.35L360.75,138.3L371.25,129.9L401.65,124.85M428.3,148.2L420.2,148.2L428.3,148.2M450.3,101.55L451.3,101.55L450.3,101.55M349.6,41.2L367.35,47.9L365.95,64.3L381.1,57.4L373.5,67.85L363.05,81.25L351.4,82.9L348.15,68.25L346.85,62.55L331.85,68.05L331.85,56.55L349.6,41.2M389.8,29.55L389.8,46.4L389.8,29.55M395.8,196.85C395.367,195.217 397.3,192.833 401.6,189.7L404,201.15L393.8,209.55L380.3,206.7L393.8,209.55L404,201.15L401.6,189.7C397.3,192.833 395.367,195.217 395.8,196.85M289.6,-131.95C285.733,-139.583 277.65,-147.75 265.35,-156.45L256.85,-156.45C246.55,-154.283 238.717,-151.783 233.35,-148.95L214.8,-147.45C211.433,-146.05 209.383,-143.5 208.65,-139.8C213.183,-134.133 218.983,-131 226.05,-130.4L224,-124.7L210.35,-127.95C204.583,-130.883 200.75,-135.717 198.85,-142.45C203.017,-150.25 208.683,-154.75 215.85,-155.95L250.1,-157.45L249.8,-158.4L261.85,-160.95L276.3,-157.8L284.5,-151.6L288.9,-147.6L291.55,-143.25L293.5,-133.2L289.6,-131.95M135.55,-22.25L156.25,-27.75L172.9,-41.85L174.75,-44.95L180.95,-55.55L182.4,-38.15L168.9,-27.8L170.45,-11.75L164.05,-9.25L144.35,-11.15L140.85,-13.3L135.05,-22.1L135.55,-22.25M272.85,-74.45L262.85,-74.45L269.85,-61.45L272.85,-74.45M220.6,51.75L228.3,75.45L241,96.65L232.5,94.7L228.6,106.8L209.2,101.95L207.5,84.55L207.1,80.8L208.8,62.9L220.6,51.75M223.9,82.7L223,89.35L215.05,79.65L212.9,98.15L207.5,84.55L212.9,98.15L215.05,79.65L223,89.35L223.9,82.7M152.5,-103.45L143.35,-111.45L152.5,-103.45M397.15,239.65L395.1,234.3L393.1,230.6L402.25,228.95L397.15,239.65M431.6,261.5L438.65,269.35L431.6,261.5" style="fill:#f2e337;"/>
                    <path id="svg_15" d="M355.25,-332.85L356.8,-334.45L304.85,-264.95L314.35,-291.45L346.35,-323.8L355.25,-332.85M374.7,4.6L374.5,4.55L374.7,4.55L373.95,-0.25L375.6,-0.5L377.15,-0.65C377.917,-0.617 378.6,-0.317 379.2,0.25C379.867,0.85 380,1.567 379.6,2.4C378.6,4.367 376.967,5.1 374.7,4.6M408.4,1.65L408,0.5C407.9,0.1 408.05,-0.267 408.45,-0.6C408.917,-1 409.45,-1.233 410.05,-1.3L411.25,-1.5C413.317,-1.733 415.133,-1.267 416.7,-0.1L416.8,-0L417.05,0.6C418.983,1.667 418.95,2.567 416.95,3.3L414.4,3.9L413.35,4C410.85,4.1 409.2,3.317 408.4,1.65M430.65,2.6C431.683,2.667 432.533,2.883 433.2,3.25L433.4,3.25C436.433,3.317 439.083,4.417 441.35,6.55L442.7,7.6C447.3,10.6 451.4,14.133 455,18.2L456.05,19.45C457.217,20.883 458.167,22.35 458.9,23.85C459.033,24.117 458.967,24.35 458.7,24.55C457.433,25.617 456.2,25.467 455,24.1L454.1,23.15C449.267,18.783 444.333,14.617 439.3,10.65C437.4,9.183 435.4,7.9 433.3,6.8C432.233,6.8 431.217,6.433 430.25,5.7L429.2,4.55C428.867,3.783 429.35,3.133 430.65,2.6M150.6,-54.85C154.933,-58.25 159.883,-60.383 165.45,-61.25C167.05,-61.517 168.517,-62.15 169.85,-63.15C170.317,-63.55 170.85,-63.817 171.45,-63.95L172.75,-64.2C174.483,-63.533 174.7,-62.333 173.4,-60.6L171.1,-57.4C168.433,-53.567 164.833,-51.117 160.3,-50.05C158.4,-49.583 156.567,-48.917 154.8,-48.05C152.367,-46.85 149.85,-46.3 147.25,-46.4L147,-46.4C146.633,-46.4 146.433,-46.6 146.4,-47C146.333,-48.1 146.633,-49.167 147.3,-50.2L148.35,-52.05C148.85,-53.15 149.583,-54.083 150.55,-54.85L150.6,-54.85M116.2,-61.25C116.467,-60.683 116.517,-59.95 116.35,-59.05C115.983,-57.083 114.967,-55.683 113.3,-54.85L112.65,-54.9L112.4,-55.1C112.167,-55.333 112.033,-55.633 112,-56C110.033,-58.3 110.4,-60.333 113.1,-62.1L114.5,-62.6C115.333,-62.333 115.9,-61.883 116.2,-61.25M138.7,-51.8L138.7,-50.25C138.5,-48.917 137.867,-47.85 136.8,-47.05C136.467,-46.783 136.067,-46.583 135.6,-46.45L135.5,-46.4C133.8,-46 132.15,-46.217 130.55,-47.05C130.25,-47.217 130,-47.4 129.8,-47.6C129.267,-48.167 129.133,-48.933 129.4,-49.9C129.933,-51.867 131.033,-53.233 132.7,-54L133.5,-54.35C134.3,-54.55 135,-54.433 135.6,-54L135.75,-53.95C137.45,-53.817 138.433,-53.1 138.7,-51.8" style="fill:#8b8b8b;"/>
                    <path id="svg_16" d="M312.15,-136.35L312.1,-136.35L306.1,-138.7L317.95,-146.15L320.45,-145.05L314.8,-141.75L312.15,-136.35M382.1,-9.6L385.3,-9.95L405.3,-11.35C410.333,-11.85 411.85,-11.867 409.85,-11.4C415.55,-12.133 419.8,-11.717 422.6,-10.15L411.25,-1.5L410.05,-1.3C409.45,-1.233 408.917,-1 408.45,-0.6C408.05,-0.267 407.9,0.1 408,0.5L408.4,1.65L404.15,6.35C393.25,6.15 382.1,7.7 370.7,11L370.4,11L370.8,7.65L374.8,5.2L374.7,4.6C376.967,5.1 378.6,4.367 379.6,2.4C380,1.567 379.867,0.85 379.2,0.25C378.6,-0.317 377.917,-0.617 377.15,-0.65C379.317,-4.95 380.967,-7.933 382.1,-9.6M257.55,-143.9L265.45,-145.6L269.6,-143.85L261.55,-141.15L258.95,-137.9L261.35,-135.05L264.25,-130.2C259.617,-131 256,-133.167 253.4,-136.7C252.633,-139.1 254.017,-141.5 257.55,-143.9" style="fill:#dadada;"/>
                    <path id="svg_17" d="M331.2,150.3L313.3,143.5L296.4,133.35C286.033,129.883 275.833,123.55 265.8,114.35C262.467,111.417 259.167,108.233 255.9,104.8L250.35,98.8C247.05,95.067 243.8,91.1 240.6,86.9L246.45,86.65L238.8,66.75L238.8,43.35L249.95,67.8L272.65,67.8L265.3,42.65L262.55,15.8L276.85,23.45L280.2,22.75L300.1,18.4L315.05,29.65L359.2,33.55L315.05,29.65L300.1,18.4L296.8,15.95L291,5.75L296.9,4.1L298.85,6.8L339.95,18.75L366.8,18.75L361.3,26.55L359.2,33.55L357.3,39.8L357.05,40.55L350.3,40.55L349.6,41.2L331.85,56.55L331.85,68.05L305.35,89.55L307.6,90.95L319.6,98.5L307.05,109.3L343.25,110.65L364.55,106L361.8,111.9L359.4,112.3C351.5,113.3 342.95,116.667 333.75,122.4L331.2,150.3M320.45,-145.05L317.95,-146.15L306.1,-138.7L297.35,-134.45C300.717,-141.05 305.883,-147.383 312.85,-153.45L326.85,-154.95C332.017,-152.083 335.183,-148.917 336.35,-145.45L334.35,-136.95L329.5,-139.3L327.55,-141.85L320.45,-145.05M311.7,-78.35C309.8,-77.917 308.383,-78.35 307.45,-79.65C307.117,-80.117 307.05,-80.633 307.25,-81.2C307.783,-82.5 308.767,-83.3 310.2,-83.6C312.133,-83.2 313.033,-81.917 312.9,-79.75C312.867,-79.017 312.467,-78.55 311.7,-78.35M313.6,-71.55C313.833,-69.75 312.867,-69.033 310.7,-69.4C309,-69.667 308.233,-70.633 308.4,-72.3C308.533,-73.8 309.317,-74.7 310.75,-75C312.383,-74.633 313.333,-73.483 313.6,-71.55M303.85,1.85L304,1.9L303.95,2.1L303.85,1.85M308.85,48.7L292.25,37.1L280.65,23.8L280.2,22.75L280.65,23.8L292.25,37.1L308.85,48.7M282.9,-136.2C279.8,-138.767 275.367,-141.317 269.6,-143.85L265.45,-145.6L257.55,-143.9L243.85,-140.45L233.35,-148.95C238.717,-151.783 246.55,-154.283 256.85,-156.45L265.35,-156.45C277.65,-147.75 285.733,-139.583 289.6,-131.95L282.9,-136.2M272.85,-74.45L269.85,-61.45L262.85,-74.45L272.85,-74.45M246.8,-46.65L260.95,-52.9L260.5,-52.4L250.1,-41.7L246.8,-46.65" style="fill:#814a16;"/>
                    <path id="svg_18" d="M313.15,-121.55L310.4,-119.5L311.95,-121.85C312.817,-124.15 311.783,-126.05 308.85,-127.55L307.8,-117.65L307.6,-117.65L294.85,-116.95L281.6,-128L289.6,-131.95L293.5,-133.2L296,-134L297.35,-134.45L311.6,-133.2C315.967,-131.3 318.633,-129.033 319.6,-126.4L313.15,-121.55M312.25,-127C312.65,-126.533 313.1,-126.45 313.6,-126.75C315.533,-127.983 315.417,-129.067 313.25,-130C311.45,-129.467 311.117,-128.467 312.25,-127M309.95,-129.65C310.15,-130.283 309.95,-130.75 309.35,-131.05C307.217,-132.15 304.867,-132.433 302.3,-131.9L298.05,-131.45C296.917,-131.35 296.45,-130.733 296.65,-129.6C296.717,-129.133 296.95,-128.85 297.35,-128.75C299.55,-128.15 301.85,-127.917 304.25,-128.05L307.25,-128C308.617,-127.833 309.517,-128.383 309.95,-129.65M295.55,-127.15L291.4,-127.15L291.3,-126.6C290.7,-123.4 291.883,-120.183 294.85,-116.95C296.883,-120.083 297.25,-123.217 295.95,-126.35L295.55,-127.15" style="fill:#fb9b77;"/>
                    <path id="svg_19" d="M309.95,-129.65C309.517,-128.383 308.617,-127.833 307.25,-128L304.25,-128.05C301.85,-127.917 299.55,-128.15 297.35,-128.75C296.95,-128.85 296.717,-129.133 296.65,-129.6C296.45,-130.733 296.917,-131.35 298.05,-131.45L302.3,-131.9C304.867,-132.433 307.217,-132.15 309.35,-131.05C309.95,-130.75 310.15,-130.283 309.95,-129.65M312.25,-127C311.117,-128.467 311.45,-129.467 313.25,-130C315.417,-129.067 315.533,-127.983 313.6,-126.75C313.1,-126.45 312.65,-126.533 312.25,-127" style="fill:#fcbcad;"/>
                    <path id="svg_20" d="M222.8,32L224,-33.7L238.8,-42.05L246.8,-46.65L250.1,-41.7C246.667,-37.967 245.083,-34.55 245.35,-31.45L247.1,-32.1L255.7,-35.45L265.55,-37.45L266.25,-37.65L266.3,-37.65L266.4,-37.7L296.9,4.1L291,5.75L296.8,15.95L300.1,18.4L280.2,22.75L276.85,23.45L262.55,15.8L265.3,42.65L272.65,67.8L249.95,67.8L238.8,43.35L238.8,66.75L246.45,86.65L240.6,86.9L238.5,84.1C230.967,70.033 225.733,55.75 222.8,41.25L222.8,32M308.05,-104.45L316.35,-110.45L316.35,-109.85C316.183,-109.55 316.117,-109.15 316.15,-108.65C316.35,-106.117 316.15,-103.667 315.55,-101.3L315.5,-101L315.1,-101.25C314,-101.05 313.45,-100.367 313.45,-99.2L313.5,-96.7C313.633,-94.7 314.483,-93 316.05,-91.6C316.35,-91.333 316.683,-91.217 317.05,-91.25C319.817,-91.55 321.25,-93.2 321.35,-96.2L321.25,-97.45C320.917,-99.25 320.067,-99.5 318.7,-98.2L317,-97.3L325.35,-102.45L317.85,-83.45L317.85,-60.45L324.6,-65.95L324.6,-55.45L326.35,-46.8L321.35,-41.95C322.55,-44.783 322.55,-47.617 321.35,-50.45L319.05,-46.45C320.05,-51.05 318.65,-55.65 314.85,-60.25L313.5,-63.05C311.1,-66.65 306.85,-67.717 300.75,-66.25L291.95,-68.15C283.15,-67.617 278.45,-64.383 277.85,-58.45L272.85,-74.45L265.85,-83.95L267.25,-83.25C267.25,-82.65 267.733,-81.983 268.7,-81.25L272.05,-78.6C272.583,-78.167 273.133,-78.083 273.7,-78.35C274.467,-78.717 274.933,-79.1 275.1,-79.5L277.35,-78.45L271.35,-92.95L278.35,-87.45L278.35,-100.65C279.083,-100.717 279.433,-101.2 279.4,-102.1C279.367,-102.9 279.467,-103.7 279.7,-104.5C280.167,-106.267 279.867,-107.583 278.8,-108.45L285.85,-108.45L286.8,-107.85C287.833,-105.883 289.483,-104.3 291.75,-103.1L293.85,-102.95L294.4,-103.2L294.85,-102.95L299.85,-109.95L300.4,-109.5L300.45,-109.35C301.55,-107.35 302.867,-105.417 304.4,-103.55C305.5,-102.183 306.733,-101.933 308.1,-102.8C308.467,-103.033 308.567,-103.333 308.4,-103.7L308.05,-104.45M311.8,-84.8C312.133,-84.267 312.583,-83.967 313.15,-83.9C314.883,-83.7 315.9,-84.383 316.2,-85.95C316.8,-89.35 315.45,-91.25 312.15,-91.65C310.717,-91.183 310.133,-90.133 310.4,-88.5C310.633,-87.167 311.1,-85.933 311.8,-84.8M311.7,-78.35C312.467,-78.55 312.867,-79.017 312.9,-79.75C313.033,-81.917 312.133,-83.2 310.2,-83.6C308.767,-83.3 307.783,-82.5 307.25,-81.2C307.05,-80.633 307.117,-80.117 307.45,-79.65C308.383,-78.35 309.8,-77.917 311.7,-78.35M313.6,-71.55C313.333,-73.483 312.383,-74.633 310.75,-75C309.317,-74.7 308.533,-73.8 308.4,-72.3C308.233,-70.633 309,-69.667 310.7,-69.4C312.867,-69.033 313.833,-69.75 313.6,-71.55M375.95,72.25L385.3,78.95L385.55,82.65L376.9,105.8C381.333,107.267 385.767,107.833 390.2,107.5C393.567,107.2 396.933,106.383 400.3,105.05L406.3,100.8C407.267,103.767 407.167,106.433 406,108.8C399.067,108.6 391.983,108.75 384.75,109.25C377.25,109.75 369.6,110.633 361.8,111.9L364.55,106L343.25,110.65L307.05,109.3L319.6,98.5L322.85,100.55L347.1,89.45L354.3,94.55L367.3,82.55L375.95,72.25M385.55,82.65L367.3,82.55L385.55,82.65M276.5,-87.75C276.267,-87.75 276.083,-87.633 275.95,-87.4C275.083,-86.167 275.25,-84.95 276.45,-83.75L277.25,-83C278.15,-82.167 278.85,-82.367 279.35,-83.6C280.25,-85.767 279.617,-86.983 277.45,-87.25L277.4,-87.35L276.5,-87.75M278.65,-69.25C277.417,-68.883 277.183,-68.183 277.95,-67.15C278.217,-66.817 278.517,-66.75 278.85,-66.95C280.183,-67.817 280.117,-68.583 278.65,-69.25M277,-72.75L276.55,-72.55C275.617,-71.85 275.567,-71.067 276.4,-70.2C277.667,-68.9 278.5,-69.05 278.9,-70.65L278.9,-70.75C279.133,-71.983 278.5,-72.65 277,-72.75M275.45,-78.5L275.2,-78.35C274.067,-77.383 273.933,-76.183 274.8,-74.75C275.333,-73.883 276.1,-73.567 277.1,-73.8C277.933,-74 278.317,-74.533 278.25,-75.4C278.15,-76.967 277.217,-78 275.45,-78.5M291,5.75L266.3,-37.65L291,5.75M260.3,40L247.45,21.75L238.8,-42.05L247.45,21.75L260.3,40M280.2,22.75L255.7,-35.45L280.2,22.75" style="fill:#673d12;"/>
                    <path id="svg_21" d="M310.4,-119.5L307.8,-117.65L308.85,-127.55C311.783,-126.05 312.817,-124.15 311.95,-121.85L310.4,-119.5M295.55,-127.15L295.95,-126.35C297.25,-123.217 296.883,-120.083 294.85,-116.95C291.883,-120.183 290.7,-123.4 291.3,-126.6L291.4,-127.15L295.55,-127.15" style="fill:#f86643;"/>
                    <path id="svg_22" d="M317,-97.3L318.7,-98.2C320.067,-99.5 320.917,-99.25 321.25,-97.45L321.35,-96.2C321.25,-93.2 319.817,-91.55 317.05,-91.25C316.683,-91.217 316.35,-91.333 316.05,-91.6C314.483,-93 313.633,-94.7 313.5,-96.7L313.45,-99.2C313.45,-100.367 314,-101.05 315.1,-101.25L315.5,-101C315.3,-99.867 315.55,-98.867 316.25,-98L316.9,-97.55L317,-97.3M311.8,-84.8C311.1,-85.933 310.633,-87.167 310.4,-88.5C310.133,-90.133 310.717,-91.183 312.15,-91.65C315.45,-91.25 316.8,-89.35 316.2,-85.95C315.9,-84.383 314.883,-83.7 313.15,-83.9C312.583,-83.967 312.133,-84.267 311.8,-84.8M276.5,-87.75L277.4,-87.35L277.45,-87.25C279.617,-86.983 280.25,-85.767 279.35,-83.6C278.85,-82.367 278.15,-82.167 277.25,-83L276.45,-83.75C275.25,-84.95 275.083,-86.167 275.95,-87.4C276.083,-87.633 276.267,-87.75 276.5,-87.75M275.45,-78.5C277.217,-78 278.15,-76.967 278.25,-75.4C278.317,-74.533 277.933,-74 277.1,-73.8C276.1,-73.567 275.333,-73.883 274.8,-74.75C273.933,-76.183 274.067,-77.383 275.2,-78.35L275.45,-78.5M277,-72.75C278.5,-72.65 279.133,-71.983 278.9,-70.75L278.9,-70.65C278.5,-69.05 277.667,-68.9 276.4,-70.2C275.567,-71.067 275.617,-71.85 276.55,-72.55L277,-72.75M278.65,-69.25C280.117,-68.583 280.183,-67.817 278.85,-66.95C278.517,-66.75 278.217,-66.817 277.95,-67.15C277.183,-68.183 277.417,-68.883 278.65,-69.25" style="fill:#9a5a1b;"/>
                    <path id="svg_23" d="M392.2,295.9C386.2,296.633 380.933,293.033 376.4,285.1L378.45,276.9L379,274.75L380.25,269.55L379.75,270L383.3,248.55L376.5,241.75L364.4,248.55L357.3,259.8L352.95,249.5L350.3,243.2L336.2,234.9L328.7,241.95L324.15,244.85C319.15,242.117 319.15,237.7 324.15,231.6L339.75,220.85L348.05,217.75L359.05,236.6L393.1,230.6L395.1,234.3L397.15,239.65L392.95,248.3L401.05,248.7L404.85,257.5L405.4,267.9C404.433,268.133 403.483,268.517 402.55,269.05L402.45,269.1C399.583,270.833 397.033,274.15 394.8,279.05L392.2,295.9M353.7,209.95L350.7,200.5L345.4,187.85L348.85,186.05L359.85,164.75L365.7,169.95L371.75,190.8L380.3,206.7L350.7,200.5L380.3,206.7L386.8,218.8L377.6,219.65L353.7,209.95M339.95,174.85L331.2,154.05L331.2,150.3L333.75,122.4C342.95,116.667 351.5,113.3 359.4,112.3L361.8,111.9C369.6,110.633 377.25,109.75 384.75,109.25C391.983,108.75 399.067,108.6 406,108.8L401.65,124.85L371.25,129.9L360.75,138.3L359.7,149.35L362.2,157.95L355.85,155.1L339.95,174.85M188.15,164.3L190.65,158.6L187.4,152.8L184.1,147L185.05,145.25L192.25,132.25L193,130.8L203.45,125.3L219.45,142.8L212.15,150.8L211.75,151.45C209.05,148.85 204.983,146.35 199.55,143.95L188.15,164.3M208.1,122.85L214.6,119.4L201.1,111.5L199.1,108.8L208.7,111.8L210.65,108.1L219.4,112.6L223.65,115.95L252.7,133.55L242.6,136.35L230.1,138.2L208.1,122.85M188.15,92.25L187.9,91.75C185.233,86.917 183.45,82.7 182.55,79.1C181.517,74.367 183.2,68.283 187.6,60.85L190.7,55.9C191.4,55.3 192.017,54.1 192.55,52.3C193.05,50.467 195.567,47.45 200.1,43.25C203.7,39.883 209.267,36.817 216.8,34.05L219.55,48.6L220.6,51.75L208.8,62.9L207.1,80.8L207.5,84.55L203.45,74.5L207.5,84.55L209.2,101.95L207.85,101.6L205.1,106.4L188.15,92.25M392.75,-67.45L389.6,-67.5L392.05,-57.8L390,-58.3L391.95,-56.1L368.9,-47.5L365.55,-39.8L369.05,-36.05L378.7,-44.7L401.2,-45.5L409.85,-35.65L407.85,-35.55L402.85,-35.4L410,-25.2L396.75,-25.9L401.15,-23.65L391.15,-25.6L398.3,-18.4L382.1,-18.6L385.3,-9.95L382.1,-9.6L369.35,-8.45L369.3,-8.55L366.5,-25.9L365.35,-33.2L368.25,-33.4L369.35,-33.45L351.35,-46.35L366.15,-45.9L357.4,-54.4L365.3,-52.45C363.9,-55.183 362.3,-57.733 360.5,-60.1L369,-58.8L366.45,-66.6C368.85,-65.533 371.333,-64.1 373.9,-62.3C370.8,-69.833 366.667,-77.067 361.5,-84L369.8,-83.25L390.55,-69.75L392.75,-67.45M399.85,-55.9L395.55,-61.9L399.2,-60.8L405.1,-54.65L399.85,-55.9M369.05,-36.05L372.8,-31.95L368.25,-33.4L372.8,-31.95L369.05,-36.05M360.8,-44.95L365.55,-39.8L360.8,-44.95M379.55,-33.6L388.95,-32.65L386.8,-37.95L400.1,-32.65L398.85,-39.4L407.85,-35.55L398.85,-39.4L400.1,-32.65L386.8,-37.95L388.95,-32.65L379.55,-33.6M183.7,-89.7L194.35,-88.95L201.05,-89.25L190.95,-80.95L207.15,-80.15L191.8,-73.5L198.1,-70.2L183.9,-60L183.4,-61.7L185.55,-75.05L183.9,-83.9L182.45,-87.95L183.7,-89.7M188.35,-106.45L200.95,-111.05L201.05,-111.05L215.35,-106.55L208.35,-101.95L185.3,-92.05L191.2,-100.55L186.55,-102.7L188.35,-106.45M174.75,-44.95L172.9,-41.85L156.25,-27.75L135.55,-22.25L129.95,-36.85L134.4,-36.1L146.75,-37.85L167.25,-43.8L174.75,-44.95M203.45,74.5L204.95,80.1L203.45,74.5M204.95,80.1L193.35,83.3L187.6,60.85L193.35,83.3L204.95,80.1M228.1,127.3L214.6,119.4L228.1,127.3" style="fill:#eec022;"/>
                    <path id="svg_24" d="M313.5,-63.05L314.85,-60.25C318.65,-55.65 320.05,-51.05 319.05,-46.45L315.85,-40.95L293.85,-40.95C294.817,-44.283 294.817,-47.617 293.85,-50.95L286.85,-42.45L278.4,-57.4L278.35,-57.55L281.9,-61.7L287.6,-64.5L297.1,-64.6L300.35,-62.55L304.75,-55.4L303.75,-60.75L304.6,-63.15L308.85,-64L313.5,-63.05M311.2,-60.4C310.633,-60.367 310.3,-60.067 310.2,-59.5C309.933,-57.967 310.55,-56.883 312.05,-56.25C312.783,-55.95 313.267,-56.167 313.5,-56.9C314.1,-58.933 313.333,-60.1 311.2,-60.4M313.3,-55.05C313.033,-54.483 312.967,-53.9 313.1,-53.3C313.4,-51.767 313.45,-50.183 313.25,-48.55C313.15,-47.683 313.233,-46.833 313.5,-46C313.7,-45.367 314.117,-45.183 314.75,-45.45C316.383,-46.217 317.3,-47.433 317.5,-49.1L317.65,-51C317.55,-53.333 316.483,-54.967 314.45,-55.9C313.917,-55.867 313.533,-55.583 313.3,-55.05" style="fill:#e66444;"/>
                    <path id="svg_25" d="M311.2,-60.4C313.333,-60.1 314.1,-58.933 313.5,-56.9C313.267,-56.167 312.783,-55.95 312.05,-56.25C310.55,-56.883 309.933,-57.967 310.2,-59.5C310.3,-60.067 310.633,-60.367 311.2,-60.4M313.3,-55.05C313.533,-55.583 313.917,-55.867 314.45,-55.9C316.483,-54.967 317.55,-53.333 317.65,-51L317.5,-49.1C317.3,-47.433 316.383,-46.217 314.75,-45.45C314.117,-45.183 313.7,-45.367 313.5,-46C313.233,-46.833 313.15,-47.683 313.25,-48.55C313.45,-50.183 313.4,-51.767 313.1,-53.3C312.967,-53.9 313.033,-54.483 313.3,-55.05" style="fill:#ee968a;"/>
                    <path id="svg_26" d="M364.5,11L364.15,8.4L364.8,0.4L369.45,-7.9L370.15,-3.3L370.2,-2.75L366.4,1.2L367,9.95L370.8,7.65L370.4,11L370.35,11.1L373.7,10.8L366.8,18.75L365.5,18.75L364.5,11" style="fill:#545454;"/>
                    <path id="svg_27" d="M370.8,7.65L367,9.95L366.4,1.2L370.2,-2.75L373.1,-5.6L373.95,-0.25L374.7,4.55L374.5,4.55L374.7,4.6L374.8,5.2L370.8,7.65" style="fill:#6c6c6c;"/>
                    <path id="svg_28" d="M460.6,17.25C462.8,23.617 463.317,30.5 462.15,37.9C451.183,25.1 441.35,16.133 432.65,11L425.7,9.1L429.2,4.55L430.25,5.7C431.217,6.433 432.233,6.8 433.3,6.8C435.4,7.9 437.4,9.183 439.3,10.65C444.333,14.617 449.267,18.783 454.1,23.15L455,24.1C456.2,25.467 457.433,25.617 458.7,24.55C458.967,24.35 459.033,24.117 458.9,23.85C458.167,22.35 457.217,20.883 456.05,19.45L455,18.2C451.4,14.133 447.3,10.6 442.7,7.6L441.35,6.55C439.083,4.417 436.433,3.317 433.4,3.25L433.2,3.25C432.533,2.883 431.683,2.667 430.65,2.6L438.45,-4.55C441.55,-2.217 444.067,-0.617 446,0.25C452.533,5.183 457.4,10.85 460.6,17.25M109.25,-53.8L106.5,-58.2L116.4,-70C116.767,-69.967 117.15,-70.083 117.55,-70.35C118.817,-71.117 119.5,-71.867 119.6,-72.6L122.05,-70.65L116.2,-61.25C115.9,-61.883 115.333,-62.333 114.5,-62.6L113.1,-62.1C110.4,-60.333 110.033,-58.3 112,-56C112.033,-55.633 112.167,-55.333 112.4,-55.1L110.45,-51.95L109.25,-53.8M105.05,-68.45L107.2,-82.35L111.15,-79.25L112.5,-78.2C111.9,-78.133 111.45,-77.833 111.15,-77.3C110.717,-76.5 110.633,-75.783 110.9,-75.15L105.05,-68.45M369.35,-8.45L382.1,-9.6C380.967,-7.933 379.317,-4.95 377.15,-0.65L375.6,-0.5L373.95,-0.25L373.1,-5.6L370.2,-2.75L370.15,-3.3L369.45,-7.9L369.35,-8.45M404.15,6.35L408.4,1.65C409.2,3.317 410.85,4.1 413.35,4L414.4,3.9L412.65,6.85L404.15,6.35M411.25,-1.5L422.6,-10.15C423.333,-9.35 423.933,-9.15 424.4,-9.55L416.8,-0L416.7,-0.1C415.133,-1.267 413.317,-1.733 411.25,-1.5M167.5,-74.8L172.35,-73.45L179.05,-87.25L181.75,-82.75C182.617,-79.65 182.85,-76.45 182.45,-73.15L181.5,-68.55C180.767,-65.817 179.833,-63.283 178.7,-60.95C177.333,-58.217 175.65,-55.783 173.65,-53.65C166.317,-48.35 157.117,-44.867 146.05,-43.2L147.25,-46.4C149.85,-46.3 152.367,-46.85 154.8,-48.05C156.567,-48.917 158.4,-49.583 160.3,-50.05C164.833,-51.117 168.433,-53.567 171.1,-57.4L173.4,-60.6C174.7,-62.333 174.483,-63.533 172.75,-64.2L171.45,-63.95C170.85,-63.817 170.317,-63.55 169.85,-63.15C168.517,-62.15 167.05,-61.517 165.45,-61.25C159.883,-60.383 154.933,-58.25 150.6,-54.85L153.85,-63.25L154.8,-63.2L154.1,-63.8L155.25,-66.85L157.2,-67.15L167.5,-74.8M133.55,-43.1L128.25,-44.15L129.8,-47.6C130,-47.4 130.25,-47.217 130.55,-47.05C132.15,-46.217 133.8,-46 135.5,-46.4L133.55,-43.1M137.2,-64.1L137.4,-64L145.65,-63.6L138.7,-51.8C138.433,-53.1 137.45,-53.817 135.75,-53.95L135.6,-54C135,-54.433 134.3,-54.55 133.5,-54.35L132.7,-54L137.2,-64.1" style="fill:#a7a7a7;"/>
                    <path id="svg_29" d="M278.35,-26.95L303.85,1.85L303.95,2.1L304,1.9L343.25,10.95L364.5,11L365.5,18.75L339.95,18.75L298.85,6.8L296.9,4.1L266.4,-37.7L268.85,-38.45L278.35,-26.95" style="fill:#be6f21;"/>
                    <path id="svg_30" d="M424.4,-9.55C424.267,-9.85 428.95,-8.183 438.45,-4.55L430.65,2.6C429.35,3.133 428.867,3.783 429.2,4.55L425.7,9.1C421.4,8.033 417.05,7.283 412.65,6.85L414.4,3.9L416.95,3.3C418.95,2.567 418.983,1.667 417.05,0.6L416.8,-0L424.4,-9.55M146.05,-43.2L139,-42.45L133.55,-43.1L135.5,-46.4L135.6,-46.45C136.067,-46.583 136.467,-46.783 136.8,-47.05C137.867,-47.85 138.5,-48.917 138.7,-50.25L138.7,-51.8L145.65,-63.6L153.85,-63.25L150.6,-54.85L150.55,-54.85C149.583,-54.083 148.85,-53.15 148.35,-52.05L147.3,-50.2C146.633,-49.167 146.333,-48.1 146.4,-47C146.433,-46.6 146.633,-46.4 147,-46.4L147.25,-46.4L146.05,-43.2M128.25,-44.15C122.85,-45.383 117.45,-47.133 112.05,-49.4L110.45,-51.95L112.4,-55.1L112.65,-54.9L113.3,-54.85C114.967,-55.683 115.983,-57.083 116.35,-59.05C116.517,-59.95 116.467,-60.683 116.2,-61.25L122.05,-70.65L124.85,-68.45L130.5,-67.55L130.8,-67.55L137.2,-64.1L132.7,-54C131.033,-53.233 129.933,-51.867 129.4,-49.9C129.133,-48.933 129.267,-48.167 129.8,-47.6L128.25,-44.15M154.1,-63.8L151.25,-66.25L155.25,-66.85L154.1,-63.8" style="fill:#e7e7e7;"/>
                    <path id="svg_31" d="M475.15,236.2L495.05,242.85C507.617,254.95 515.35,267.667 518.25,281L516,280.55L493.4,256.85L465.8,245.1C468.3,241.833 471.417,238.867 475.15,236.2M436.95,292.6L441.55,308.8C439.25,320.533 435.517,328.533 430.35,332.8L430.05,333.05L429,317.6L420.75,291.3L402.45,269.1L402.55,269.05C403.483,268.517 404.433,268.133 405.4,267.9L408.35,267.7C420.883,268.1 428.9,271.017 432.4,276.45L436.95,292.6M347.2,275.95L334.75,279.95L310.8,283.85L320.6,270.6L343.6,252.75L352.95,249.5L357.3,259.8L360.25,266.85L347.2,275.95M290.25,164.85L292.6,182L271.15,159.3L257.55,156.8L258.55,155.9C261.45,153.4 264.817,151.217 268.65,149.35C275.017,149.517 281.05,151.317 286.75,154.75L290.25,164.85M212.85,175.65C200.783,179.083 190.383,183.867 181.65,190L191.7,174.35L203.75,161.45L215.65,156.5C219.383,161.7 220.967,166.9 220.4,172.1L212.85,175.65M187.4,152.8L161.7,156.15L162.9,153.6L177.15,146.6L185.05,145.25L184.1,147L187.4,152.8M385.3,78.95L389.3,70.05L389.9,69.6L398.8,62.55C402.033,63.217 404.9,64.217 407.4,65.55L401.7,92.35L390.2,107.5C385.767,107.833 381.333,107.267 376.9,105.8L385.55,82.65L385.3,78.95M406.3,100.8L412.3,96.55L413.8,91.05L424.3,93.55L424.9,93.8L418.85,123.6L411.65,128.75L399.95,132L400.6,128.7L399.95,132L393.65,133.75L400.6,128.7L401.65,124.85L406,108.8C407.167,106.433 407.267,103.767 406.3,100.8M348.15,68.25L329.55,90.95L307.6,90.95L305.35,89.55L331.85,68.05L346.85,62.55L348.15,68.25M375.65,147.35L375.3,147.05L391.45,135.35L408.55,142.85L392.05,148.35L375.65,147.35" style="fill:#fff;"/>
                    <path id="svg_32" d="M516,280.55L465.15,270.2L458.35,264.85C458.983,257.317 461.467,250.733 465.8,245.1L493.4,256.85L516,280.55M430.05,333.05L427.85,334.5L398.4,303.4L392.2,295.9L394.8,279.05C397.033,274.15 399.583,270.833 402.45,269.1L420.75,291.3L429,317.6L430.05,333.05M310.8,283.85L303,285.1L324.15,244.85L328.7,241.95L336.2,234.9L350.3,243.2L352.95,249.5L343.6,252.75L320.6,270.6L310.8,283.85M292.6,182L293.15,186.2L264.8,175.85L256.65,172.1C253.417,169.567 251.75,166.733 251.65,163.6C252.65,162.1 253.767,160.683 255,159.35C255.8,158.45 256.65,157.6 257.55,156.8L271.15,159.3L292.6,182M181.65,190L180.25,191C179.317,189.633 179.317,186.683 180.25,182.15C181.05,176.517 183.683,170.567 188.15,164.3L199.55,143.95C204.983,146.35 209.05,148.85 211.75,151.45C212.983,152.65 213.933,153.883 214.6,155.15L215.65,156.5L203.75,161.45L191.7,174.35L181.65,190M162.9,153.6C168.767,141.767 178.55,134.65 192.25,132.25L185.05,145.25L177.15,146.6L162.9,153.6M429.85,95.8L437.8,99.05L437.8,113.55L426.8,135.05L419.8,135.05L422.2,138.2L427.3,145.05L420.2,148.2L400.3,157.05L397.95,156.85C393.65,156.35 389.683,155.35 386.05,153.85C382.217,152.25 378.75,150.083 375.65,147.35L392.05,148.35L408.55,142.85L391.45,135.35L393.2,134.05L393.65,133.75L411.65,128.75L418.85,123.6L424.9,93.8L429.85,95.8M417.7,76.55L417.45,77.8L415.8,85.25L413.8,91.05L412.3,96.55L400.3,105.05C396.933,106.383 393.567,107.2 390.2,107.5L401.7,92.35L407.4,65.55C412.2,68.05 415.633,71.717 417.7,76.55M351.4,82.9L352.3,87.05L347.1,89.45L322.85,100.55L319.6,98.5L307.6,90.95L329.55,90.95L348.15,68.25L351.4,82.9M399.95,132L399.3,135.05L419.8,135.05L399.3,135.05L399.95,132" style="fill:#f4ed95;"/>
                    <path id="svg_33" d="M233.35,-148.95L243.85,-140.45L241.65,-136.65L230.85,-129.6L226.05,-130.4C218.983,-131 213.183,-134.133 208.65,-139.8C209.383,-143.5 211.433,-146.05 214.8,-147.45L233.35,-148.95" style="fill:#a25e1d;"/>
                    <path id="svg_34" d="M141.2,-78.45L146.35,-74.95L146.65,-74.85L146.65,-74.95C150.45,-75.017 153.183,-76.167 154.85,-78.4C158.083,-76.233 162.3,-75.033 167.5,-74.8L157.2,-67.15L155.25,-66.85L151.25,-66.25L154.1,-63.8L154.8,-63.2L153.85,-63.25L145.65,-63.6L137.4,-64L137.2,-64.1L130.8,-67.55C133.733,-67.35 136.083,-67.65 137.85,-68.45L141.2,-78.45M146.65,-74.85L143.2,-65.05L151.25,-66.25L143.2,-65.05L146.65,-74.85" style="fill:#eed859;"/>
                    <path id="svg_35" d="M277.85,-58.45C278.45,-64.383 283.15,-67.617 291.95,-68.15L300.75,-66.25C306.85,-67.717 311.1,-66.65 313.5,-63.05L308.85,-64L304.6,-63.15L303.75,-60.75L304.75,-55.4L300.35,-62.55L297.1,-64.6L287.6,-64.5L281.9,-61.7L278.35,-57.55L277.85,-58.45" style="fill:#af2b18;"/>
                    <path id="svg_36" d="M355.25,-332.85L356.8,-334.45L291.55,-297.95M314.35,-291.45L346.35,-323.8L355.25,-332.85M299.95,-277.45L294.8,-271.9L304.85,-264.95M294.6,-281.4L291.55,-278.25L158.15,-137.1L162.05,-132.95M262.95,-192.9L261.35,-193.95C267.817,-184.15 273.033,-174.6 277,-165.3L277.35,-164.45L234.35,-179.95L234.4,-179.9C241.867,-173.333 247,-166.167 249.8,-158.4L250.1,-157.45L215.85,-155.95C208.683,-154.75 203.017,-150.25 198.85,-142.45C200.75,-135.717 204.583,-130.883 210.35,-127.95L214.55,-126.95M262.95,-192.9L294,-172.3C291.633,-178.533 291.633,-185.033 294,-191.8C298.567,-193.6 304.783,-193.683 312.65,-192.05L313.95,-191.8C324.683,-184.267 332.817,-176.733 338.35,-169.2C341.483,-158.833 340.817,-150.917 336.35,-145.45C352.117,-141.583 368.267,-139.083 384.8,-137.95M385.8,-117.45L404.8,-111.95L387.3,-111.95L429.8,-87.45L433.25,-82.6L446.85,-63.55L467.3,-34.95L454.8,-43.45L466.3,-14.45L449.3,-24.45L449.95,-22.7L455.2,-7C458.1,2.533 459.9,10.617 460.6,17.25M462.15,37.9L470.6,61.55L469.75,66.2L472.45,74.55L471.5,95.6L466.1,110.05L458.15,131.4L450.1,136.7L449.55,137.05L448.3,141.05L445.4,142.1L428.3,148.2L427.5,156.85L429.6,160.85L436.95,174.8L437.4,175.4C446.667,188.2 451.617,202.233 452.25,217.5L452.3,222.45L459,220.25L466,217.95C472.7,223.317 475.75,229.4 475.15,236.2L495.05,242.85C507.617,254.95 515.35,267.667 518.25,281L516,280.55L465.15,270.2L458.35,264.85L455.65,269.35L438.65,269.35L445.7,277.25L436.95,292.6L441.55,308.8C439.25,320.533 435.517,328.533 430.35,332.8L430.05,333.05L427.85,334.5L398.4,303.4L392.2,295.9C386.2,296.633 380.933,293.033 376.4,285.1L378.45,276.9M379,274.75L380.25,269.55L379.75,270L368.1,280.55C357.267,282.117 350.3,280.583 347.2,275.95L334.75,279.95L310.8,283.85L303,285.1L324.15,244.85C319.15,242.117 319.15,237.7 324.15,231.6L339.75,220.85L348.05,217.75L355.25,215L353.7,209.95L350.7,200.5L345.4,187.85L339.95,174.85L331.2,154.05L331.2,150.3L313.3,143.5L296.4,133.35L296.4,155.9L290.25,164.85L292.6,182L293.15,186.2L264.8,175.85L212.85,175.65C200.783,179.083 190.383,183.867 181.65,190L180.25,191C179.317,189.633 179.317,186.683 180.25,182.15C181.05,176.517 183.683,170.567 188.15,164.3L190.65,158.6L187.4,152.8L161.7,156.15L162.9,153.6C168.767,141.767 178.55,134.65 192.25,132.25L193,130.8L203.45,125.3L208.1,122.85L214.6,119.4L201.1,111.5L199.1,108.8C194.533,102.633 190.883,97.117 188.15,92.25M187.9,91.75C185.233,86.917 183.45,82.7 182.55,79.1C181.517,74.367 183.2,68.283 187.6,60.85L190.7,55.9C191.4,55.3 192.017,54.1 192.55,52.3C193.05,50.467 195.567,47.45 200.1,43.25C203.7,39.883 209.267,36.817 216.8,34.05L222.8,32L224,-33.7M200.75,-22.85C197.95,-20.483 194.483,-18.267 190.35,-16.2C184.55,-13.333 177.4,-10.767 168.9,-8.5L139.75,-9.95L109.25,-39L109.25,-53.8M106.5,-58.2L13.35,53.05L9.65,57.3L0,50.15L4.35,44.55L10.85,39.55L105.05,-68.45M107.2,-82.35L102.55,-86L101.35,-86.95C98.217,-92.983 98.35,-100.683 101.75,-110.05C104.35,-111.517 106.8,-112.55 109.1,-113.15C111.4,-113.783 113.833,-115.533 116.4,-118.4L121.65,-124.1L124.05,-126.4C124.717,-127 124.75,-127.333 124.15,-127.4C124.383,-131.067 125.833,-134.533 128.5,-137.8L128.6,-137.95L131.75,-139.2C136.017,-140.733 140.283,-141.35 144.55,-141.05C148.517,-140.817 152.483,-139.783 156.45,-137.95L158.15,-137.1M291.55,-278.25L291.55,-297.95M356.8,-334.45L304.85,-264.95M305.85,-164.45L294,-172.3M320.45,-145.05L317.95,-146.15L306.1,-138.7M327.55,-141.85L329.35,-139.25M329.5,-139.3L327.55,-141.85L320.45,-145.05M297.35,-134.45C300.717,-141.05 305.883,-147.383 312.85,-153.45L326.85,-154.95C332.017,-152.083 335.183,-148.917 336.35,-145.45L334.35,-136.95L329.5,-139.3M316.35,-109.85L316.35,-110.45L308.05,-104.45M300.4,-109.5L299.85,-109.95L294.85,-102.95L294.4,-103.2M286.8,-107.85L285.85,-108.45L278.8,-108.45M278.35,-100.65L278.35,-87.45L271.35,-92.95L277.35,-78.45L275.1,-79.5M365.35,-33.2L366.5,-25.9L369.3,-8.55L369.35,-8.45M303.85,1.85L304,1.9M370.7,11L373.7,10.8L373.85,10.6L373.8,10.8L373.7,10.8L366.8,18.75L361.3,26.55L359.2,33.55M373.7,10.8L370.35,11.1L370.4,11L370.7,11L370.35,11.1M389.8,46.4L389.8,46.5M375.95,72.25L385.3,78.95M389.3,70.05L389.9,69.6M417.45,77.8L417.7,76.55M424.9,93.8L424.3,93.55M449.7,113.55L450.3,113.55L450.3,112.7M451.3,101.55L450.3,101.55M357.3,39.8L359.2,33.55M349.6,41.2L350.3,40.55L357.05,40.55L357.3,39.8M347.1,89.45L354.3,94.55L367.3,82.55L375.95,72.25M331.85,68.05L331.85,56.55L349.6,41.2M361.8,111.9C369.6,110.633 377.25,109.75 384.75,109.25C391.983,108.75 399.067,108.6 406,108.8M331.2,150.3L333.75,122.4C342.95,116.667 351.5,113.3 359.4,112.3L361.8,111.9M367.3,82.55L385.55,82.65M305.35,89.55L307.6,90.95M375.65,147.35L375.3,147.05M297.35,-134.45L306.1,-138.7M230.45,-123.15L231.35,-122.95L231.35,-122.9M235,-90.9L233.65,-90.15M170,-123.5L174.25,-118.1L187,-108.9L188.35,-106.45L200.95,-111.05L201.05,-111.05L209.9,-114.3L198.4,-116.05L214.55,-126.95M170,-123.5L165.25,-129.55L162.05,-132.95M146.35,-74.95L146.65,-74.95M180.35,-89.95L181.5,-89.85M154.8,-63.2L153.85,-63.25M260.95,-52.9L260.5,-52.4M265.55,-37.45L265.65,-38.75L266.4,-37.7L266.25,-37.65L266.3,-37.65M266.25,-37.65L265.65,-38.75M265.55,-37.45L266.25,-37.65M111.15,-79.25L112.5,-78.2M116.95,-75.95L117.2,-75.8M146.65,-74.85L146.65,-74.95M137.2,-64.1L137.4,-64M122.05,-70.65L124.85,-68.45L130.5,-67.55L130.8,-67.55M118.35,-74.65L117.2,-75.8M119.6,-72.6L122.05,-70.65M116.4,-70L106.5,-58.2M107.2,-82.35L111.15,-79.25M110.9,-75.15L105.05,-68.45M7.75,47.75L13.35,53.05M7.75,47.75L4.35,44.55M240.6,86.9C243.8,91.1 247.05,95.067 250.35,98.8L255.9,104.8C259.167,108.233 262.467,111.417 265.8,114.35C275.833,123.55 286.033,129.883 296.4,133.35M222.8,32L222.8,41.25C225.733,55.75 230.967,70.033 238.5,84.1L240.6,86.9M204.95,80.1L203.45,74.5M438.65,269.35L431.6,261.5M294.8,-271.9L165.25,-129.55" style="fill:none;fill-rule:nonzero;stroke:#000;stroke-opacity:0.4;stroke-width:0.05px;"/>
                    <path id="svg_37" d="M384.8,-137.95L346.85,-131.45C359.85,-125.45 372.833,-120.783 385.8,-117.45M224,-33.7C218.067,-31.133 212.583,-27.75 207.55,-23.55C204.483,-20.983 201.583,-18.117 198.85,-14.95L200.75,-22.85M326.85,-154.95L317.35,-164.45L305.85,-164.45M337.9,-108.65L344.1,-115.95M343.55,-116.9L336.6,-128.8L329.35,-139.25M337.9,-108.65L334.35,-104.45L321.85,-72.95L327.35,-58.95L339.95,-57.7C345.283,-56.967 351.1,-55.867 357.4,-54.4L365.3,-52.45C363.9,-55.183 362.3,-57.733 360.5,-60.1C358.067,-63.267 355.267,-66.15 352.1,-68.75C356.5,-69.683 361.283,-68.967 366.45,-66.6C368.85,-65.533 371.333,-64.1 373.9,-62.3C370.8,-69.833 366.667,-77.067 361.5,-84C358.7,-87.767 355.583,-91.45 352.15,-95.05L372.7,-91.15L392.3,-87.45C383.933,-91.617 375.817,-96.117 367.95,-100.95C362.783,-104.15 357.733,-107.483 352.8,-110.95L375.8,-110.95L359.3,-117.45L385.8,-117.45M327.35,-58.95L331.35,-51.65L333.35,-47.95L333.35,-39.45L357.3,-4.45L328.85,-12.95L337.35,3.55L311.85,-16.45L311.85,0.05L278.35,-26.95M437.35,51.45L441.3,44.55M434.6,56.25L437.35,51.45M467,73.85L468,75.55L469.75,66.2M431.75,61.15L434.6,56.25M416.1,32.1L411.45,32.1M389.8,46.5L389.8,47.55L375.95,72.25M452.8,99.95L457.05,97.15L460.6,90.15L467.2,77.2L468,75.55M443.6,51.6L456.9,57L467,73.85M416.1,32.1L423.3,32.1L431.15,40M407.55,32.1L411.45,32.1M431.75,61.15L429.8,64.55C431.8,67.283 431.8,70.283 429.8,73.55L427.45,75.55L415.8,85.25M450.3,110.2L450.3,101.55L452.8,99.95M453.6,106.5L456.8,113.55M450.3,112.7L450.3,110.2M437.8,113.55L449.7,113.55M420.2,148.2L428.3,148.2M453.6,106.5L451.3,101.55M357.05,40.55L363.8,40.55L372.7,48.7M389.8,46.4L389.8,29.55M214.55,-126.95L224,-124.7L230.45,-123.15M181.5,-89.85L183.7,-89.7L194.35,-88.95L201.05,-89.25L235,-90.9M220.05,-75.95C225.75,-77.683 231.4,-78.6 237,-78.7L237.55,-78.7C230.917,-72.967 225.017,-67.217 219.85,-61.45C214.15,-55.117 209.317,-48.783 205.35,-42.45L200.75,-22.85M180.35,-89.95L185.3,-92.05M215.35,-106.55L208.35,-101.95L185.3,-92.05M217.5,-75.15C211.667,-73.183 205.767,-70.367 199.8,-66.7C205.067,-71.333 210.65,-75.667 216.55,-79.7M217.5,-75.15L220.05,-75.95M224,-33.7L238.8,-42.05L246.8,-46.65L260.95,-52.9M247.1,-32.1L255.7,-35.45L265.55,-37.45M266.4,-37.7L268.85,-38.45L278.35,-26.95M260.5,-52.4L250.1,-41.7C246.667,-37.967 245.083,-34.55 245.35,-31.45L247.1,-32.1M231.35,-122.9C226.85,-116.6 221.517,-111.15 215.35,-106.55M233.65,-90.15C227.617,-86.883 221.917,-83.4 216.55,-79.7M207.5,84.55L212.9,98.15L215.05,79.65L223,89.35L223.9,82.7M203.45,74.5L207.5,84.55M187.6,60.85L193.35,83.3L204.95,80.1M214.6,119.4L228.1,127.3" style="fill:none;fill-rule:nonzero;stroke:#c67513;stroke-width:2px;"/>
                    <path id="svg_38" d="M306.1,-138.7L312.1,-136.35M312.15,-136.35L320.85,-132.95C324.55,-133.783 326.783,-136.75 327.55,-141.85M264.25,-130.2L268.4,-129.9L282.9,-136.2M257.55,-143.9C254.017,-141.5 252.633,-139.1 253.4,-136.7C256,-133.167 259.617,-131 264.25,-130.2" style="fill:none;fill-rule:nonzero;stroke:#814a16;stroke-width:2px;"/>
                    <path id="svg_39" d="M313.15,-121.55L310.4,-119.5L307.8,-117.65L307.6,-117.65L294.85,-116.95L281.6,-128L289.6,-131.95L293.5,-133.2L296,-134L297.35,-134.45L311.6,-133.2C315.967,-131.3 318.633,-129.033 319.6,-126.4L313.15,-121.55" style="fill:none;fill-rule:nonzero;stroke:#d34949;stroke-width:1px;"/>
                    <path id="svg_40" d="M267.25,-83.25L265.85,-83.95L272.85,-74.45L277.85,-58.45C278.45,-64.383 283.15,-67.617 291.95,-68.15L300.75,-66.25C306.85,-67.717 311.1,-66.65 313.5,-63.05L314.85,-60.25C318.65,-55.65 320.05,-51.05 319.05,-46.45L321.35,-50.45C322.55,-47.617 322.55,-44.783 321.35,-41.95L326.35,-46.8L324.6,-55.45L324.6,-65.95L317.85,-60.45L317.85,-83.45L325.35,-102.45L317,-97.3M272.85,-74.45L262.85,-74.45L269.85,-61.45L272.85,-74.45M277.85,-58.45L278.35,-57.55" style="fill:none;fill-rule:nonzero;stroke:#673d12;stroke-width:0.05px;"/>
                    <path id="svg_41" d="M263.4,-110.45L269,-98.9M326.25,-109.7L330.4,-119.65M278.35,-26.95L303.85,1.85M304,1.9L343.25,10.95L364.5,11M331.35,-51.65L326.35,-46.8M320.1,-24.25L322.1,-24.25L329.55,-30.9M319.25,-24.25L298.85,-24.25L290.6,-28.85M365.5,18.75L339.95,18.75L298.85,6.8L296.9,4.1M263.4,-110.45L260.3,-116.75M264,-96.25L266.95,-91.45M264,-96.25L256.15,-108.9M266.4,-37.7L296.9,4.1" style="fill:none;fill-rule:nonzero;stroke:#c67513;stroke-width:1px;"/>
                    <path id="svg_42" d="M365.55,-39.8L369.05,-36.05M368.25,-33.4L372.8,-31.95L369.05,-36.05M407.85,-35.55L398.85,-39.4L400.1,-32.65L386.8,-37.95L388.95,-32.65L379.55,-33.6M365.55,-39.8L360.8,-44.95M352.3,-38.45L368.25,-33.4M360.9,-33.7L366.5,-25.9M407.85,-35.55L420.35,-30.25L417,-38.45M423.5,-43.75L428.95,-30.75L419.15,-37.7M183.9,-60L180.05,-57.3" style="fill:none;fill-rule:nonzero;stroke:#dea014;stroke-width:1px;"/>
                    <path id="svg_43" d="M278.4,-57.4L286.85,-42.45L293.85,-50.95C294.817,-47.617 294.817,-44.283 293.85,-40.95L315.85,-40.95L319.05,-46.45" style="fill:none;fill-rule:nonzero;stroke:#dea014;stroke-width:0.05px;"/>
                    <path id="svg_44" d="M369.35,-8.45L382.1,-9.6L385.3,-9.95M422.6,-10.15C419.8,-11.717 415.55,-12.133 409.85,-11.4C411.85,-11.867 410.333,-11.85 405.3,-11.35L385.3,-9.95M422.6,-10.15C423.333,-9.35 423.933,-9.15 424.4,-9.55C424.267,-9.85 428.95,-8.183 438.45,-4.55C441.55,-2.217 444.067,-0.617 446,0.25C452.533,5.183 457.4,10.85 460.6,17.25" style="fill:none;fill-rule:nonzero;stroke:#888;stroke-width:1.75px;"/>
                    <path id="svg_45" d="M369.45,-7.9L369.35,-8.45M370.2,-2.75L370.15,-3.3L369.45,-7.9M370.4,11L370.8,7.65" style="fill:none;fill-rule:nonzero;stroke:#545454;stroke-width:1.75px;"/>
                    <path id="svg_46" d="M460.6,17.25C462.8,23.617 463.317,30.5 462.15,37.9M370.7,11C382.1,7.7 393.25,6.15 404.15,6.35M425.7,9.1L432.65,11C441.35,16.133 451.183,25.1 462.15,37.9M412.65,6.85C417.05,7.283 421.4,8.033 425.7,9.1M412.65,6.85L404.15,6.35" style="fill:none;fill-rule:nonzero;stroke:#545454;stroke-width:3px;"/>
                    <path id="svg_47" d="M385.3,78.95L389.3,70.05M407.4,65.55C404.9,64.217 402.033,63.217 398.8,62.55L389.9,69.6M429.85,95.8L437.8,99.05L437.8,107.25M417.7,76.55C415.633,71.717 412.2,68.05 407.4,65.55M390.2,107.5C393.567,107.2 396.933,106.383 400.3,105.05L412.3,96.55L413.8,91.05L415.8,85.25L417.45,77.8M406.3,100.8C407.267,103.767 407.167,106.433 406,108.8L401.65,124.85L400.6,128.7L399.95,132M424.3,93.55L413.8,91.05M429.85,95.8L424.9,93.8M419.8,135.05L426.8,135.05L437.8,113.55L437.8,107.25M422.2,138.2L427.3,145.05L420.2,148.2M351.4,82.9L352.3,87.05L347.1,89.45M319.6,98.5L322.85,100.55L347.1,89.45M307.6,90.95L319.6,98.5M385.3,78.95L385.55,82.65L376.9,105.8C381.333,107.267 385.767,107.833 390.2,107.5M351.4,82.9L348.15,68.25L346.85,62.55L331.85,68.05L305.35,89.55M375.3,147.05L391.45,135.35L393.2,134.05M393.65,133.75L400.6,128.7M386.05,153.85C382.217,152.25 378.75,150.083 375.65,147.35M386.05,153.85C389.683,155.35 393.65,156.35 397.95,156.85L400.3,157.05L420.2,148.2M422.2,138.2L419.8,135.05L399.3,135.05L399.95,132M146.65,-74.95C150.45,-75.017 153.183,-76.167 154.85,-78.4M155.25,-66.85L151.25,-66.25L154.1,-63.8L154.8,-63.2M155.25,-66.85L157.2,-67.15L167.5,-74.8M130.8,-67.55L137.2,-64.1M137.4,-64L145.65,-63.6L153.85,-63.25M151.25,-66.25L143.2,-65.05L146.65,-74.85M258.55,155.9C261.45,153.4 264.817,151.217 268.65,149.35C275.017,149.517 281.05,151.317 286.75,154.75L290.25,164.85M211.75,151.45C209.05,148.85 204.983,146.35 199.55,143.95L188.15,164.3M211.75,151.45C212.983,152.65 213.933,153.883 214.6,155.15L215.65,156.5C219.383,161.7 220.967,166.9 220.4,172.1L212.85,175.65M185.05,145.25L184.1,147L187.4,152.8M192.25,132.25L185.05,145.25M257.55,156.8C256.65,157.6 255.8,158.45 255,159.35C253.767,160.683 252.65,162.1 251.65,163.6C251.75,166.733 253.417,169.567 256.65,172.1L264.8,175.85M258.55,155.9L257.55,156.8M405.4,267.9L408.35,267.7C420.883,268.1 428.9,271.017 432.4,276.45L436.95,292.6M402.45,269.1L402.55,269.05C403.483,268.517 404.433,268.133 405.4,267.9M392.2,295.9L394.8,279.05C397.033,274.15 399.583,270.833 402.45,269.1M458.35,264.85C458.983,257.317 461.467,250.733 465.8,245.1C468.3,241.833 471.417,238.867 475.15,236.2M357.3,259.8L352.95,249.5L350.3,243.2L336.2,234.9L328.7,241.95L324.15,244.85M347.2,275.95L360.25,266.85L357.3,259.8" style="fill:none;fill-rule:nonzero;stroke:#c09914;stroke-width:1px;"/>
                    <path id="svg_48" d="M359.2,33.55L315.05,29.65L300.1,18.4M280.2,22.75L280.65,23.8L292.25,37.1L308.85,48.7M291,5.75L296.8,15.95L300.1,18.4M250.1,-41.7L246.8,-46.65M266.3,-37.65L291,5.75M238.8,-42.05L247.45,21.75L260.3,40M255.7,-35.45L280.2,22.75" style="fill:none;fill-rule:nonzero;stroke:#563310;stroke-width:1px;"/>
                    <path id="svg_49" d="M380.3,206.7L393.8,209.55L404,201.15L401.6,189.7C397.3,192.833 395.367,195.217 395.8,196.85M350.7,200.5L380.3,206.7" style="fill:none;fill-rule:nonzero;stroke:#dea014;stroke-width:2px;"/>
                    <path id="svg_50" d="M226.05,-130.4C218.983,-131 213.183,-134.133 208.65,-139.8C209.383,-143.5 211.433,-146.05 214.8,-147.45L233.35,-148.95M226.05,-130.4L230.85,-129.6L241.65,-136.65L243.85,-140.45" style="fill:none;fill-rule:nonzero;stroke:#a25e1d;stroke-width:0.05px;"/>
                    <path id="svg_51" d="M154.85,-78.4L157.85,-83.95C162.617,-88.617 162.95,-93.283 158.85,-97.95L152.5,-103.45M135.8,-84L141.2,-78.45L146.35,-74.95M154.85,-78.4C158.083,-76.233 162.3,-75.033 167.5,-74.8L172.35,-73.45L179.05,-87.25L180.35,-89.95L186.55,-102.7L188.35,-106.45M158.85,-97.95C167.083,-98.783 172.417,-100.95 174.85,-104.45L174.25,-118.1M119.5,-96.7C122.4,-95 125.317,-92.983 128.25,-90.65C128.283,-90.617 128.35,-90.567 128.45,-90.5M143.35,-111.45L135.3,-118.45M116.75,-98.25L119.5,-96.7M135.8,-84L135.75,-84.05L128.45,-90.5M130.8,-67.55C133.733,-67.35 136.083,-67.65 137.85,-68.45L141.2,-78.45M143.35,-111.45L152.5,-103.45" style="fill:none;fill-rule:nonzero;stroke:#c67513;stroke-width:1.75px;"/>
                    <path id="svg_52" d="M109.25,-53.8L106.5,-58.2M179.05,-87.25L181.75,-82.75C182.617,-79.65 182.85,-76.45 182.45,-73.15L181.5,-68.55C180.767,-65.817 179.833,-63.283 178.7,-60.95C177.333,-58.217 175.65,-55.783 173.65,-53.65C166.317,-48.35 157.117,-44.867 146.05,-43.2L139,-42.45L133.55,-43.1L128.25,-44.15C122.85,-45.383 117.45,-47.133 112.05,-49.4L110.45,-51.95L109.25,-53.8" style="fill:none;fill-rule:nonzero;stroke:#707070;stroke-width:2px;"/>
                    <path id="svg_53" d="M105.05,-68.45L107.2,-82.35" style="fill:none;fill-rule:nonzero;stroke:#888;stroke-width:2px;"/>
                    <path id="svg_54" d="M518.25,281C515.35,267.667 507.617,254.95 495.05,242.85L475.15,236.2C475.75,229.4 472.7,223.317 466,217.95L452.3,222.45L452.25,217.5C451.617,202.233 446.667,188.2 437.4,175.4L436.95,174.8L427.5,156.85L428.3,148.2L448.3,141.05L449.55,137.05L458.15,131.4L471.5,95.6L472.45,74.55L469.75,66.2L470.6,61.55L462.15,37.9C463.317,30.5 462.8,23.617 460.6,17.25C459.9,10.617 458.1,2.533 455.2,-7L449.95,-22.7L449.3,-24.45L466.3,-14.45L454.8,-43.45L467.3,-34.95L429.8,-87.45L387.3,-111.95L404.8,-111.95L385.8,-117.45C372.833,-120.783 359.85,-125.45 346.85,-131.45L384.8,-137.95C368.267,-139.083 352.117,-141.583 336.35,-145.45C340.817,-150.917 341.483,-158.833 338.35,-169.2C332.817,-176.733 324.683,-184.267 313.95,-191.8L312.65,-192.05C304.783,-193.683 298.567,-193.6 294,-191.8C291.633,-185.033 291.633,-178.533 294,-172.3L261.35,-193.95C267.817,-184.15 273.033,-174.6 277,-165.3L277.35,-164.45L234.35,-179.95L234.4,-179.9C241.867,-173.333 247,-166.167 249.8,-158.4L250.1,-157.45L215.85,-155.95C208.683,-154.75 203.017,-150.25 198.85,-142.45C200.75,-135.717 204.583,-130.883 210.35,-127.95L214.55,-126.95L198.4,-116.05L209.9,-114.3L201.05,-111.05L200.95,-111.05L188.35,-106.45L187,-108.9L174.25,-118.1L165.25,-129.55L294.8,-271.9L304.85,-264.95L356.8,-334.45L291.55,-297.95L291.55,-278.25L158.15,-137.1L156.45,-137.95C152.483,-139.783 148.517,-140.817 144.55,-141.05C140.283,-141.35 136.017,-140.733 131.75,-139.2L128.6,-137.95L128.5,-137.8C125.833,-134.533 124.383,-131.067 124.15,-127.4C124.75,-127.333 124.717,-127 124.05,-126.4L121.65,-124.1L116.4,-118.4C113.833,-115.533 111.4,-113.783 109.1,-113.15C106.8,-112.55 104.35,-111.517 101.75,-110.05C98.35,-100.683 98.217,-92.983 101.35,-86.95L107.2,-82.35L105.05,-68.45L10.85,39.55L4.35,44.55L0,50.15L9.65,57.3L106.5,-58.2L109.25,-53.8L109.25,-39L139.75,-9.95L168.9,-8.5C177.4,-10.767 184.55,-13.333 190.35,-16.2C194.483,-18.267 197.95,-20.483 200.75,-22.85L198.85,-14.95C201.583,-18.117 204.483,-20.983 207.55,-23.55C212.583,-27.75 218.067,-31.133 224,-33.7L222.8,32L216.8,34.05C209.267,36.817 203.7,39.883 200.1,43.25C195.567,47.45 193.05,50.467 192.55,52.3C192.017,54.1 191.4,55.3 190.7,55.9L187.6,60.85C183.2,68.283 181.517,74.367 182.55,79.1C183.45,82.7 185.233,86.917 187.9,91.75L188.15,92.25C190.883,97.117 194.533,102.633 199.1,108.8L201.1,111.5L214.6,119.4L193,130.8L192.25,132.25C178.55,134.65 168.767,141.767 162.9,153.6L161.7,156.15M190.65,158.6L188.15,164.3C183.683,170.567 181.05,176.517 180.25,182.15C179.317,186.683 179.317,189.633 180.25,191M293.15,186.2L290.25,164.85M296.4,155.9L296.4,133.35L313.3,143.5L331.2,150.3L331.2,154.05L350.7,200.5L355.25,215L339.75,220.85L324.15,231.6C319.15,237.7 319.15,242.117 324.15,244.85L303,285.1" style="fill:none;fill-rule:nonzero;stroke:#673d12;stroke-width:2.75px;"/>
                    <path id="svg_55" d="M373.7,10.8L370.35,11.1L370.4,11L370.7,11L373.7,10.8L373.85,10.6L373.8,10.8L373.7,10.8M266.4,-37.7L266.3,-37.65L266.25,-37.65L265.55,-37.45L265.65,-38.75L266.4,-37.7M146.65,-74.95L146.35,-74.95L146.65,-74.85L146.65,-74.95" style="fill:none;fill-rule:nonzero;stroke:#000;stroke-width:1.75px;"/>
                    <path id="svg_56" d="M161.7,156.15L187.4,152.8L190.65,158.6M180.25,191L181.65,190C190.383,183.867 200.783,179.083 212.85,175.65L264.8,175.85L293.15,186.2M303,285.1L334.75,279.95L347.2,275.95C350.3,280.583 357.267,282.117 368.1,280.55L380.25,269.55L376.4,285.1C380.933,293.033 386.2,296.633 392.2,295.9L398.4,303.4L427.85,334.5L430.05,333.05L430.35,332.8C435.517,328.533 439.25,320.533 441.55,308.8L436.95,292.6L445.7,277.25L438.65,269.35L455.65,269.35L458.35,264.85L465.15,270.2L518.25,281" style="fill:none;fill-rule:nonzero;stroke:#9d9d9d;stroke-width:2.75px;"/>
                    <path id="svg_57" d="M290.25,164.85L296.4,155.9" style="fill:none;fill-rule:nonzero;stroke:#666;stroke-width:2.75px;"/>
                </g>
            </g>
        </g>
    </g>
</svg>
