<svg width="273" height="239" xmlns="http://www.w3.org/2000/svg" xmlns:xlink="http://www.w3.org/1999/xlink">
 <defs>
  <g transform="matrix(1,0,0,1,192.55,294) " id="shape0">
   <path id="svg_1" stroke-opacity="0" stroke-linejoin="round" stroke-linecap="round" stroke="#ff00ff" fill="none" d="m187.95,-293.5l0,380l-379.95,0l-0.05,0l0,-380l380,0m-95,294.1l-189.95,0"/>
   <path id="svg_2" stroke-opacity="0" stroke-linejoin="round" stroke-linecap="round" stroke="#ff00ff" fill="none" d="m187.95,-293.5l-190,190l190,190m-380,-380l190,190l-189.95,190"/>
   <path id="svg_3" stroke-width="0.25" stroke-linejoin="round" stroke-linecap="round" stroke="#000000" fill="none" d="m-17.4,-60.25l0.75,0.2l0.3,0.55q0,0.25 -0.3,0.5l-0.75,0.2l-0.75,-0.2l-0.3,-0.5l0.3,-0.55l0.75,-0.2z"/>
   <path id="svg_4" fill-rule="evenodd" fill-opacity="0.580392" fill="#b0ad99" d="m-97.3,-40.85l-9.4,0.85l-2.25,2.75l5.8,1.5l9.45,-1.55l-0.7,-2.5l-2.9,-1.05"/>
   <path id="svg_5" fill-rule="evenodd" fill="#716f67" d="m29.55,-22.8l-0.25,0.15l0,2.85l0.05,0.05l4.45,0.8l0.85,-1l-5.1,-2.85"/>
   <path id="svg_6" fill-rule="evenodd" fill="#807e75" d="m37.7,-23.5l-2.8,-2.65l-5.35,3.35l5.1,2.85l3.05,-3.55"/>
   <path id="svg_7" stroke-width="2" stroke-linejoin="round" stroke-linecap="round" stroke="#363529" fill="none" d="m33.8,-18.95l-1.85,2.25l3.45,13.75l4.05,-0.55l0,2.2l4.3,1.55l-2,7.3l3.45,1.75l9.15,2.4l11.4,-2.45l4.45,-4.25l0,-2.15l0.25,0l16.85,-4.3l12.95,-10.5l2.3,-6l-2,-6.4l0.4,-4.15l4.45,2.1l0,8.15l5.65,4.8l6.25,-0.15l7.85,-4.85l-1.15,-10.2l6.9,1.4l8.25,-3.45l0,-6.7l2.85,0.05l3.4,-3.85l0,-15l-1.55,-9.95l-0.55,0.1l0,-3.55l-2.5,-1.15l1.9,-3.95l-11.7,-7.1l-1.8,-10.55l-9.95,-4.05l3.6,-10.75l-6,-11l1.75,-7.25l-0.85,-0.4l1.3,-1.7l1.15,-4.75l-20.8,-15l-9.35,-1.25l1.05,-4.55l-0.9,-10.7l-5.1,-3.7l-8.25,-7.6l-8.15,0l0,-4.8l-12.05,-8.15l-12.95,-13.3l-26.65,-1.15l-1.85,0.35l-4.05,-2.45l-10.65,-9.5l-9.95,-1l-5.75,1.75l-9.7,5.95l-2.2,0.4l-5.1,-7.15l-3.25,-2.1l-4.35,-5.3l-14.8,0l-3.2,4.65l-10.45,-1.4l-6.5,17.75l-7.4,0.7l-7.35,9.45l-7.15,2.8l1.05,5.75l-10.8,2.8l-4.8,4.6l0,11.35l-9.05,14.1l3.5,3.2l-4.95,3.8l0,5.1l5.05,9.35l3.7,16.3l8.5,0l5.6,-3l-0.15,-1.25l15.1,3.25l4.7,-5.7l-3.65,-7.7l7.1,-2.1l4.85,-3.7l-2.85,-7.85l-4.85,-2.8l-4.4,3.25l-2.55,0.95l0,-5.1l-1.1,-2l1.1,-0.15l1.1,-3.65l8.8,-2.05l3.85,-10.5l-0.2,-0.1l1.55,-1.75l-2.4,-2.2l11.75,-2.35l2,-8.85l3.8,1.25l0.9,5.15l-1.85,0.1l-8.65,12.4l-1.6,6.7l1.95,2.2l0.15,0.65l-0.5,2.2l3.35,4.4l0.9,-0.2l1.55,9.45l-5,9l0.8,1l0.5,2.1l-7.3,9.1l0.15,1.85l-0.85,0.2l-8.75,6.8l-1.3,18.45l3.35,5.05l-3.25,14.55l-5.7,11.85l6.7,12.65l-1.4,2.6l6.8,4.65l13.05,-2.35l3.7,-3.15l1.5,2.25l3.45,-0.55l-0.55,-0.85l2.6,0.4l0.1,0.1l1.35,-0.25l-0.3,-0.5l0.3,-0.3l1.65,0.55l4,-0.65l0.6,-1.45l1.8,-0.65l3.1,1.25l0.1,-0.05l0,0.05l7.6,-1.25l4.15,1.6l5,-6.9l10,-3.4l2.65,-3l-3.8,-6.65l3.8,-2.1l-7.7,-9.75l-2.8,-0.55l1.15,-13.4l-8.9,-4.25l1.8,-2.3l4.3,2.1l16.75,-4.1l6.95,-7l1.1,-7.25l0.5,0.5l19.6,5.1l1.8,10.5l18.05,10.3l-2.9,16.6l6.25,4.7l-4.55,5.4l-1.3,19.15l-1,1.05l0,6.5l-2.9,3.45l-2.8,-2.65l-5.35,3.35l-0.25,0.15l0,2.85l0.05,0.05l4.45,0.8l0.85,-1l3.05,-3.55m36.6,-90.1l-6.9,-8.95l1.35,-4.55l-5.15,5.15l-4.4,0.8l1.15,4.5l9,4.95l0.05,0l3.95,5.7l-0.75,8.3l10.05,9.45l3.3,4.15l0.95,-5.7l-4.05,-3.4l0,-6l3.6,-4.45l-2.75,-1.4l-9.4,-8.55m43.65,75.05l-4,-11.35l-0.4,6l4.4,5.35m-88.4,15.75l5.1,2.85"/>
   <path id="svg_8" fill-rule="evenodd" fill="#a9a8a0" d="m-64.55,-148.8l0.15,0.65l0.15,-0.6l-0.3,-0.05m165.5,120.25l4.45,2.1l4.4,-1.3l-14.95,-6.5l2.35,3.95l1.75,0.85l2,0.9m-85.75,-173.6l-4.05,-2.5l-10.65,-9.45l-4.9,2.7l-1.3,10.4l1.2,3.1l19.7,-4.25m71.7,112.3l-0.95,5.65l-0.15,1.1l-0.1,1.4l4.15,-7.35l-2.35,-4.4l-0.6,3.6"/>
   <path id="svg_9" fill-rule="evenodd" fill="#e1dccc" d="m-55.3,-175.35l0.9,5.15l0.3,0l8,-0.35l2.45,-2.4l8.25,-1l4.15,-1.9l4.9,2.75q5.05,-2.2 10.15,-4.5l5.4,3.55l13.55,1.4l12.45,-5.7l14.7,-2.6l0.55,-0.25l7.65,-2.15l7.25,-3.8l-1.65,-14.25l-26.65,-1.15l-1.85,0.4l-19.7,4.25l-1.2,-3.1l1.3,-10.4l-10.8,-2l-9.7,6l-5.8,1.15l-3.6,0.7l-5.1,10.05l0,0.35l0,7.2q-6.55,2.95 -13.15,5.85l-3.2,2.3l0.45,4.45m42,-20.65l0,0.15l2.05,0.9l-2.5,-0.4l0.45,-0.5l-0.15,-0.1l0.15,-0.05m6.5,-1.25l5.75,2.75l-7.35,-1.45l1.6,-1.3l-0.25,-0.1l0.2,0l0.05,0.1m120.35,153.3l-4.9,-5.85l-13.8,5.05l0,5.25l0,5.25l14.95,6.5l8.4,0l5.45,-4.05l-5.55,-6.7l-4.55,-5.45m-131.95,-113.85l1.2,0.7l-0.95,-1.15l-0.25,0.45"/>
   <path id="svg_10" fill-rule="evenodd" fill="#d4d0c0" d="m122.85,-107.2l-6,-11l1.75,-7.3l-0.85,-0.35l-5.55,-2.45l6.9,0.6l1.1,-4.6l-20.8,-15l-9.35,-1.25l-15.45,0.65l2.15,6.85l3.45,1l-2.95,0.6l0.5,1.6l10.1,2.8l-9.75,1.1q1.9,3.5 2.8,5.95l0.35,0.1l10.3,1.85l3.1,4.15l-8.2,18.2l-3.6,4.45l2,3.95l14.1,-8.35l23.9,-3.55"/>
   <path id="svg_11" fill-rule="evenodd" fill="#98958a" d="m-63.3,-122.3l0.5,2.05l1.1,3.4l3.3,2l-3.85,-6.1l-1.05,-1.35m-6.8,11.2l0.15,1.85l0.75,10l4.55,-5.65l-5.45,-6.2m187.85,-14.75l1.3,-1.7l0.05,-0.15l-6.9,-0.6l5.55,2.45m-49.05,-49.25l0,-4.8l-14.35,-3.7l-9,-3.55l-7.25,3.8l-7.65,2.15l-0.55,0.25l-3.6,13.55l-3.6,2.15l-4.15,0l4.85,2.45l-1.75,17.1l8.1,21.15l33.85,2.55l5.15,-5.15l2.15,-7.2l-3.4,-2.4l-7.05,-2l-6.25,4.05l-9.45,-9.25l-1.55,-9.2l-0.85,-5.35l0.9,-12l5.75,-5.45l7.4,-1.75l5.1,2.6l7.2,0m-75.5,-22.15l-1.6,1.3l7.35,1.45l-5.75,-2.75m11.95,76.45l-2.25,5.05l1.9,3.5l0.35,-8.55m-15.15,9.7l-3.25,-2.25l0.9,3.6l0,4.15l2.35,-5.5m-11.45,3.9l2.75,-7l-4,5.6l-10.6,1.5l-7.25,-7l-0.55,0.25l0,2.1l9.1,7.2l0.75,-0.15l2.1,2.45l6.7,-2.4l1,-2.55m98.2,-33.85l0,4l0.5,-2.4l2.95,-0.6l-3.45,-1m1,3.2l-1.7,13.4l2.05,-9.5l9.75,-1.1l-10.1,-2.8m8.7,74.3l-0.25,-0.5l0.3,-0.15l15.4,-6.2l-16.95,3.5l0.55,6.5l0.95,-3.15"/>
   <path id="svg_12" fill-rule="evenodd" fill="#cfcbbc" d="m140.8,-70.8l1.9,-3.95l-11.7,-7.1l-1.8,-10.55l-9.95,-4.05l-7.25,-2.45l-24.5,5.45l2.35,4.4l-4.15,7.35l-4.1,7.4l3.35,7.35l0,0.05l16.95,-3.5l-15.4,6.2l-0.05,0.65l3.75,8.45l23.85,1.3l25.55,-14.6l1.2,-2.4m-60.05,12.25l-3.75,-2l-10,14l-1.25,1.75l0,9.25l18.5,6.9l-0.45,-2.4l-1.25,-6.5l-0.95,-4.85l12.25,-3.35l-1.6,-6.6l-11.5,-6.2"/>
   <path id="svg_13" fill-rule="evenodd" fill="#908d83" d="m119.25,-96.45l3.6,-10.75l-23.9,3.55l-14.1,8.35l-2,-3.95l0,6l4.05,3.4l0.6,-3.6l24.5,-5.45l7.25,2.45m-29.2,-52.1l1.05,-4.55l-0.9,-10.7l-9.05,4.25l-8.95,7.15l1.4,8.2l1,-3.7l15.45,-0.65"/>
   <path id="svg_14" fill-rule="evenodd" fill="#b9b7ac" d="m29.9,-180.95l-14.7,2.6l-12.45,5.7l11.15,13.1l7.75,13.85l1.75,-17.1l-4.85,-2.45l4.15,0l3.6,-2.15l3.6,-13.55m-42.3,40.75l-2.15,-2.5l-1.75,2.5l0.05,0.05l2.05,4.9l1.8,-4.95m-3.25,-13.85l-0.25,-3.75l-0.3,-0.5l-1.95,0.05l0.95,1.15l-0.4,0.65l1.95,2.4m-18.3,-0.05l0.2,0.05l0.05,-0.2l-0.25,0.15"/>
   <path id="svg_15" fill-rule="evenodd" fill="#a9a599" d="m43.2,-153.15l1.55,9.2l9.45,9.25l6.25,-4.05l7.05,2l3.4,2.4l2.7,-9.85l-1.4,-8.2l-1.6,1.3l-11.65,-5l-9.6,2.95l-6.15,0"/>
   <path id="svg_16" fill-rule="evenodd" fill="#dad5c5" d="m-54.1,-170.2l-2.15,0.1l11.35,2.45l11.45,-3.45l-12.65,0.55l-8,0.35m-10.3,22.05l-0.5,2.2l7.2,-4.25l9.7,4.75l8.3,2.15l0.25,-1.5l-8,-1.8l-9.7,-6.75l-6.7,3l-0.4,1.6l-0.15,0.6m4.2,17.85l-3.3,5.95l8.8,2.6l10.7,-0.3l2.2,-2.05l-5.4,1.05l-4.75,-2.25l-4.9,-0.7l-3.35,-4.3m-2.6,10.05l-7.3,9.15l5.45,6.2l20.45,3l12.2,-2.65l-9.1,-7.2l0,-2.1l-4.65,0.5l-12.1,-0.55l-0.55,-0.95l-3.3,-2l-1.1,-3.4m147.9,-47.25l-8.25,-7.6l-8.15,0l-7.2,0l-5.1,-2.6l-7.4,1.75l-5.75,5.45l-0.9,12l0.85,5.35l6.15,0l9.6,-2.95l11.65,5l1.6,-1.3l8.95,-7.15l3.95,-7.95m-84.6,-46.6l-9.95,-1l-5.75,1.7l10.8,2l4.9,-2.7m-7.8,80.3l-0.05,-0.45l-5.05,-5.95l-1.8,4.95l0,0.05l-1.6,5.05l-5.3,1.65l-5.05,0.65l-0.25,-1.6l-6.15,0.75l-4.5,1.95l-2.55,2.2l-1.5,9.95l0.55,0.5l7.25,7l10.6,-1.5l4,-5.6l-2.75,7l9.1,-2.55l-0.9,-3.6l3.25,2.25l12.9,-4.65l2.25,-5.05l-1.8,-0.9l-1.35,-0.7l-0.35,1.75l-8.55,3.6l-3.9,-4.55l-9.2,3l-3.5,-3.5l-1.9,-0.35l-0.5,-3.55l10.55,0.6l8.05,-8.4"/>
   <path id="svg_17" fill-rule="evenodd" fill="#787672" d="m4.95,-162.05l0.35,-1.65l-23.7,2.25l2.2,3.15l0.3,0.5l0.25,3.75l0.7,10.8l0.4,0.55l2.15,2.5l5.05,5.95l0.05,0.45l0.3,2.95l3.25,-1.65l7.4,1.2l-1.25,6.7l3.3,-1.55l3.6,-5.6l-6.7,-8.75l0,-8.9l2.35,-12.65"/>
   <path id="svg_18" fill-rule="evenodd" fill="#76736c" d="m43.15,-81l0.95,0.55l-0.65,3.6l7.2,2.1l12,15.55l0,8.5l-4,0l-11.2,-8.4l-4.55,5.35l18.4,8l5.7,-0.8l10,-14l3.75,2l-0.9,-2.2l1.75,-13.55l4.1,-7.4l0.1,-1.4l0.15,-1.1l-3.3,-4.1l-13.3,10.65l-15.6,4.4l-6.65,-9.3l0.4,-3.85l-4.35,5.4m-133.25,-83.55l-2.4,-0.85l-0.75,-3.9l-5.1,-1.35l6.8,19.45l1.45,-13.35m119.85,40l0.35,0.8l-5.15,1.25l-12.6,-12.6l-7.4,-26.95l-2.35,12.65l0,8.9l6.7,8.75l-3.6,5.6l-3.3,1.55l-0.4,2.2l1.35,0.7l1.9,0.4l3.35,0.7l3.45,1.25l25.55,3.7l5.1,11.85l-14.55,3.6l7.25,0l11,0l10.85,-4.05l4.05,-6l-0.95,-6.45l-1.15,-4.5l4.4,-0.8l-33.85,-2.55"/>
   <path id="svg_19" fill-rule="evenodd" fill="#87857e" d="m2.75,-172.65l-13.55,-1.4l16.1,10.35l-0.35,1.65l7.4,26.95l12.6,12.6l5.15,-1.25l-0.35,-0.8l-8.1,-21.15l-7.75,-13.85l-11.15,-13.1"/>
   <path id="svg_20" fill-rule="evenodd" fill="#cbc6b7" d="m90.2,-163.8l-5.1,-3.7l-3.95,7.95l9.05,-4.25m-21.5,-16.1l-12.05,-8.15l-12.95,-13.35l1.65,14.25l9,3.55l14.35,3.7"/>
   <path id="svg_21" fill-rule="evenodd" fill="#b2afa2" d="m70.9,-134.35l-2.15,7.2l-1.35,4.55l6.9,8.95l8.85,8l-1.9,-22.25l-0.35,-0.1q-0.9,-2.45 -2.8,-5.95l-2.05,9.5l1.7,-13.4l-0.5,-1.6l-0.5,2.4l0,-4l-2.15,-6.85l-1,3.7l-2.7,9.85"/>
   <path id="svg_22" fill-rule="evenodd" fill="#6f6d66" d="m69.35,-111.75l-3.6,9.05l6.85,4.95l0.75,-8.3l-3.95,-5.7l-0.05,0"/>
   <path id="svg_23" fill-rule="evenodd" fill="#7a7871" d="m-116.75,-145.8l-4.95,3.8l6.1,1.6l3.8,-1l0,-1.15l-1.5,0l-3.45,-3.25m12.3,34.55l5.6,-3.05l-0.15,-1.2l15.1,3.25l4.7,-5.7l-3.65,-7.7l7.1,-2.15l4.85,-3.65l-2.85,-7.9l-4.85,-2.75l-4.4,3.25l3.3,3.55l1.2,6.15l-4.8,2.5l-0.6,-1.25l-6.5,5.7l-4.75,-3.15l-2.65,-5l-1.4,-4.6l0.55,-1.25l2.6,0l2.5,-3.5l4.65,-2.65l-1.05,-2.3l-1.95,-3.45l-0.6,-1.15l-6.05,1.15l0.15,7.9l-5.5,4l-0.25,0l-1.05,1.25l3.3,12.15l0.1,0.1l-0.45,-0.05l-4,2.35l1.2,0.45l0.6,3.15l0,5.55m31.6,-54.15l11.75,-2.35l-11.1,-2.55l-13.35,7.4l6,-1.2l6.7,-1.3m76.2,43.7l1.8,0.9l0.1,-0.5l-1.9,-0.4m69.25,23.95l-6.85,-4.95l3.6,-9.05l-9,-4.95l0.95,6.45l-4.05,6l-10.85,4.05l-11,0l10.55,9.35l0.15,0.05l0,0.15l1.75,1.5l-0.35,2.75l-0.4,3.85l6.65,9.3l15.6,-4.4l13.3,-10.65l-10.05,-9.45m-24,10.05l-1.1,1.3l1.1,-1.3"/>
   <path id="svg_24" fill-rule="evenodd" fill="#a9a69a" d="m81.25,-127.9l1.9,22.25l0.55,0.55l2.75,1.4l8.2,-18.2l-3.1,-4.15l-10.3,-1.85"/>
   <path id="svg_25" fill-rule="evenodd" fill="#9d988c" d="m24.25,-101.2l1.8,10.5l17.1,9.7l4.35,-5.4l0.35,-2.75l-1.75,-1.5l-0.15,-0.2l-10.55,-9.35l-7.25,0l-3.9,-1m19.2,24.35l-2.25,13.05l6.25,4.7l11.2,8.4l4,0l0,-8.5l-12,-15.55l-7.2,-2.1"/>
   <path id="svg_26" fill-rule="evenodd" fill="#817e76" d="m4.15,-106.8l0.5,0.5l19.6,5.1l3.9,1l14.55,-3.6l-5.1,-11.85l-25.55,-3.7l-3.45,-1.25l-3.35,-0.7l-0.1,0.5l-0.35,8.55l0.1,0.3l-0.25,1.55l-0.5,3.6"/>
   <path id="svg_27" fill-rule="evenodd" fill="#dee3e4" d="m2.4,-124.6l1.25,-6.7l-9,3.5l-1.55,10.75l8.55,-3.6l0.35,-1.75l0.4,-2.2"/>
   <path id="svg_28" fill-rule="evenodd" fill="#a6a397" d="m-66.5,-151l1.95,2.2l0.3,0.05l0.4,-1.6l6.7,-3l9.7,6.75l8,1.8l1.45,5.65l-2.3,1.1l-1.3,-0.5l1.15,2.95l0.45,1.2l0.65,1.75l8.8,-2.15l0,-0.85l-4.6,-9.15l1.4,-9.25l-0.2,-0.05l-2.65,-2.75l-4.85,2.95l-9,1.05l-11.1,-2.7l-4.95,4.55m39.75,62.7l1.8,-2.25l4.3,2.05l16.75,-4.05l6.95,-7l1.1,-7.25l0.5,-3.6l0.15,-1.85l-1.9,-3.5l-12.9,4.65l-2.35,5.5l0,-4.15l-9.1,2.55l-1,2.55l-6.7,2.4l-2.85,-2.3l-12.2,2.65l-20.45,-3l-4.55,5.65l6.15,8.9l1.05,1.5l6,11.1l16.2,-6.8l12.6,-3.15l0.45,-0.6"/>
   <path id="svg_29" fill-rule="evenodd" fill="#caccbd" d="m-32.2,-214.2l-3.25,-2.05l-6.9,4.35l10.15,-2.3m-4.85,87.45l4.5,-1.95l6.15,-0.75l-1.7,-3.05l-2.35,-2.25l-0.1,-0.05l-8.8,2.15l2.3,5.9"/>
   <path id="svg_30" fill-rule="evenodd" fill="#cecabb" d="m-30.7,-206.25l3.6,-0.75l-5.1,-7.2l-10.15,2.3l6.9,-4.35l-4.35,-5.35l-14.8,0l-3.2,4.7l-2.35,3.4l-5.3,3l8.55,3.7l8.05,-2.3l-0.35,6.95l9.8,7l0,-0.35l5.1,-10.05l3.6,-0.7m-44.05,5.7l-7.4,0.7l3.5,9.95l3.9,-10.65m-20.85,18.7l-10.8,2.8l6.75,8.1l1.3,0.3l5.1,1.35l-2.35,-12.55m3.1,32.6l-4.15,-8.35l-7.65,1.5l5.3,8.1l0.45,-0.1l6.05,-1.15"/>
   <path id="svg_31" fill-rule="evenodd" fill="#9c998e" d="m-57.8,-216.9l-10.45,-1.45l-6.5,17.8l-3.9,10.65l-3.5,-9.95l-7.35,9.45l-7.15,2.8l1.05,5.75l2.35,12.55l0.75,3.9l2.4,0.85l4.55,1.65l13.35,-7.4l3.25,-9.2l-4.4,-3.75l10.4,0l0.5,-13.6l-0.2,-0.8l8.6,6.5l4.35,-1.1l0.5,-9.9l0.35,-6.95l-8.05,2.3l-8.55,-3.7l5.3,-3l2.35,-3.4"/>
   <path id="svg_32" fill-rule="evenodd" fill="#aaa69a" d="m-59.1,-176.6l3.8,1.25l-0.45,-4.45l3.2,-2.3q6.6,-2.9 13.15,-5.85l0,-7.2l-9.8,-7l-0.5,9.9l-4.35,1.1l-8.6,-6.5l0.2,0.8l-0.5,13.6l0,5.35l3.85,1.3"/>
   <path id="svg_33" fill-rule="evenodd" fill="#716f68" d="m-86.65,-145l1.1,-0.15l1.1,-3.65l8.8,-2.05l3.85,-10.5l-0.2,-0.1l-7.55,-2.65l-6,1.2l-4.55,-1.65l-1.45,13.35l-0.35,3.1l1.95,3.45l3.3,-0.35m25.55,-22.75l2,-8.85l-3.85,-1.3l0,-5.35l-10.4,0l4.4,3.75l-3.25,9.2l11.1,2.55"/>
   <path id="svg_34" fill-rule="evenodd" fill="#96a7ad" d="m-56.85,-132.05l0.1,-0.05l5.2,-2.05l3.8,-0.05q-0.05,-1.15 0.4,-2.1q0.6,-1.15 1.7,-1.35q1.1,-0.2 2.05,0.75q0.95,0.9 1.2,2.4l0,0.25l2.15,-0.05l-0.2,-1.3l-1.15,-2.95l-6.6,-2.4l-3.4,0.35l-4.15,2l-1.4,6.25l0,0.05l0.3,0.25m40.55,-8.15l-1.1,-2.65l-5.55,-4.9l-5.65,1.6l-1.95,3.2l0,7.3l0.3,0.7l2,-2.6l0,-0.05q-0.3,-1.5 0.3,-2.7q0.65,-1.15 1.7,-1.35q0.95,-0.15 1.75,0.5l1.75,-1l6.4,2l0.05,-0.05"/>
   <path id="svg_35" fill-rule="evenodd" fill="#a59f8f" d="m-64.9,-145.95l3.35,4.4l0.9,-0.25l5.8,-1.55l5.1,1.85l1.55,0.55l6.6,2.4l1.3,0.5l2.3,-1.1l-1.7,-4.15l-8.3,-2.15l-9.7,-4.75l-7.2,4.25m31.2,-8.3l3.1,-2.2l5.35,0l5.2,4.3l2.45,-4.3l0.4,-0.65l-1.2,-0.7l-9.05,-5l-9.5,4.55l3,4.15l0.25,-0.15"/>
   <path id="svg_36" fill-rule="evenodd" fill="#7e7c73" d="m-60.65,-141.8l1.2,7.5l2.25,1.95l0.05,0l1.4,-6.25l4.15,-2l1.85,-0.9l-5.1,-1.85l-5.8,1.55"/>
   <path id="svg_37" fill-rule="evenodd" fill="#63615c" d="m-83,-138.85l-2.55,0.95l0,-5.1l-1.1,-2l-3.3,0.35l1.05,2.3l-4.65,2.65l-2.5,3.5l-2.6,0l-0.55,1.25l1.4,4.6l2.65,5l4.75,3.15l6.5,-5.7l0.6,1.25l4.8,-2.5l-1.2,-6.15l-3.3,-3.55m11,-22.6l1.55,-1.75l-2.4,-2.2l-6.7,1.3l7.55,2.65"/>
   <path id="svg_38" fill-rule="evenodd" fill="#9d9a8f" d="m-106.4,-179.05l-4.8,4.6l0,11.35l-9.05,14.05l3.5,3.25l3.45,3.25l1.5,0l0,-5.7l7.5,-7.85l7.65,-1.5l4.15,8.35l0.6,1.15l0.35,-3.1l-6.8,-19.45l-1.3,-0.3l-6.75,-8.1m-15.3,37.05l0,5.1l5.05,9.35l3.7,16.3l8.5,0l0,-5.55l-0.6,-3.15l-1.2,-0.45l-5.55,-10.9l0,-10.1l-3.8,1l-6.1,-1.6"/>
   <path id="svg_39" fill-rule="evenodd" fill="#c9c5b6" d="m-10.8,-174.05l-5.4,-3.55q-5.1,2.3 -10.15,4.5l-4.9,-2.75l-4.15,1.9l-8.25,1l-2.45,2.4l12.65,-0.55l14.25,8.45l0.8,1.2l23.7,-2.25l-16.1,-10.35"/>
   <path id="svg_40" fill-rule="evenodd" fill="#969389" d="m-14.55,-142.7l-0.4,-0.55l-0.7,-10.8l-1.95,-2.4l-2.45,4.3l-5.2,-4.3l-5.35,0l-3.1,2.2l-0.05,0.2l-1.4,9.25l4.6,9.15l0,-7.3l1.95,-3.2l5.65,-1.6l5.55,4.9l1.1,2.65l1.75,-2.5"/>
   <path id="svg_41" fill-rule="evenodd" fill="#ccd5d7" d="m-26.4,-129.45l0.25,1.6l5.05,-0.65l5.3,-1.65l1.6,-5.05l0,-0.05l-2.05,-4.9l-0.1,0l-6.4,-2l-1.75,1l0.3,0.25q0.95,0.9 1.2,2.4q0.25,1.55 -0.35,2.7q-0.6,1.15 -1.7,1.35q-1.1,0.15 -2.05,-0.75q-0.9,-0.9 -1.15,-2.35l-2,2.6l-0.2,0.2l2.35,2.25l1.7,3.05m-21.35,-4.75l-3.8,0.05l-5.2,2.05l-0.1,0.05l-0.2,0.05l1.05,4.8l4.05,1.9l4.75,2.25l5.4,-1.05l0.5,-0.1l2.3,-3.1l-1.25,-7l-2.15,0.05q0.2,1.35 -0.35,2.4q-0.6,1.2 -1.75,1.35q-1.05,0.2 -2,-0.75q-0.95,-0.9 -1.2,-2.4l-0.05,-0.55"/>
   <path id="svg_42" fill-rule="evenodd" fill="#cdd2d6" d="m-56.85,-132.05l-0.3,-0.25l0.1,0.3l0.2,-0.05m26.3,-3.6l0,0.85l0.1,0.05l0.2,-0.2l-0.3,-0.7m14.2,-4.5l0.1,0l-0.05,-0.05l-0.05,0.05"/>
   <path id="svg_43" fill-rule="evenodd" fill="#32312e" d="m-42.4,-134.25l0,-0.25q-0.25,-1.5 -1.2,-2.4q-0.95,-0.95 -2.05,-0.75q-1.1,0.2 -1.7,1.35q-0.45,0.95 -0.4,2.1l0.05,0.55q0.25,1.5 1.2,2.4q0.95,0.95 2,0.75q1.15,-0.15 1.75,-1.35q0.55,-1.05 0.35,-2.4m17.9,-6.9q-0.8,-0.65 -1.75,-0.5q-1.05,0.2 -1.7,1.35q-0.6,1.2 -0.3,2.7l0,0.05q0.25,1.45 1.15,2.35q0.95,0.9 2.05,0.75q1.1,-0.2 1.7,-1.35q0.6,-1.15 0.35,-2.7q-0.25,-1.5 -1.2,-2.4l-0.3,-0.25"/>
   <path id="svg_44" fill-rule="evenodd" fill="#a6a299" d="m-63.5,-124.35l-0.6,1.05l0.8,1l1.05,1.35l3.85,6.1l0.55,0.95l12.1,0.55l4.65,-0.5l0,-0.75l1.5,-9.95l2.55,-2.2l-2.3,-5.9l-0.65,-1.75l-0.25,0.1l1.25,7l-2.3,3.1l-0.5,0.1l-2.2,2.05l-10.7,0.3l-8.8,-2.6m56.5,-6.5l-0.3,-2.95l-8.05,8.4l-10.55,-0.6l0.5,3.55l1.9,0.35l3.5,3.5l9.2,-3l0.6,-7.6l3.2,-1.65"/>
   <path id="svg_45" fill-rule="evenodd" fill="#bdb9ac" d="m-59.45,-134.3l0.35,2l-1.1,2l3.35,4.3l4.9,0.7l-4.05,-1.9l-1.05,-4.8l-0.1,-0.3l0,-0.05l-0.05,0l-2.25,-1.95m19,-1.3l0.2,1.3l0.25,-0.1l-0.45,-1.2"/>
   <path id="svg_46" fill-rule="evenodd" fill="#ffffff" d="m3.65,-131.3l-7.4,-1.2l-3.25,1.65l-3.2,1.65l4.85,1.4l9,-3.5"/>
   <path id="svg_47" fill-rule="evenodd" fill="#bec9cb" d="m-10.2,-129.2l-0.6,7.6l3.9,4.55l1.55,-10.75l-4.85,-1.4"/>
   <path id="svg_48" fill-rule="evenodd" fill="#8d887d" d="m-74.35,-32.45l13.05,-2.35l3.7,-3.15l-3.1,-4.7l-5,-19.5l-9.45,3.45l2.2,18.75l-1.4,7.5m27.9,-4.85l2.95,-0.45l0.6,-1.45l1.55,-14.5l3.45,15.05l7.6,-1.2l4.15,1.6l5,-6.95l8.85,-13l3.8,-2.15l-7.7,-9.7l-2.8,-0.55l1.15,-13.4l-8.9,-4.3l-0.45,0.6l-12.6,3.15l-16.2,6.8l-6,-11.1l-1.05,-1.5l-1.5,16.65l13,17.2l5.1,19.2"/>
   <path id="svg_49" fill-rule="evenodd" fill="#716f67" d="m-69.95,-109.25l-0.85,0.2l-8.75,6.8l-1.3,18.45l3.35,5l-3.25,14.6l-5.7,11.85l6.7,12.65l-1.4,2.6l6.8,4.65l1.4,-7.5l-2.2,-18.75l9.45,-3.45l5,19.5l3.1,4.7l1.5,2.25l3.45,-0.6l-0.55,-0.85l-0.7,-4.3l-0.5,-9.25l1.65,3l0.4,7.15l1.75,3.85l0.1,0.1l1.35,-0.25l-0.3,-0.5l-0.6,-0.9l1.75,-4.4l0.95,5.5l0.9,-0.15l-5.1,-19.2l-13,-17.2l1.5,-16.65l-6.15,-8.9l-0.75,-10m48.8,64.05l10,-3.35l2.65,-3l-3.8,-6.65l-8.85,13"/>
   <path id="svg_50" fill-rule="evenodd" fill="#a29e93" d="m-104.3,-156.1l-7.5,7.85l0,5.7l0,1.15l0,10.1l5.55,10.9l4,-2.35l0.35,-0.05l-3.3,-12.15l1.05,-1.25l0.25,0l5.5,-4l-0.15,-7.9l-0.45,0.1l-5.3,-8.1"/>
   <path id="svg_51" fill-rule="evenodd" fill="#8f8f85" d="m35.4,-3l4.05,-0.6l0,-5.65l-4.05,6.25m51.9,1.5l12.95,-10.5l-4.55,1.85l-8.4,8.65m13.25,-22.9l0.4,-4.15l-2,-0.9l1.6,5.05m-11.95,-16.85l3.4,-2.1l1.85,-2.4l-12.25,3.35l0.95,4.85l6.05,-3.7m-190.5,-81.55l-0.35,0.05l0.45,0.05l-0.1,-0.1"/>
   <path id="svg_52" fill-rule="evenodd" fill="#51492f" d="m-53.2,-37.15l2.6,0.45l-1.75,-3.85l-0.4,-7.15l-1.65,-3l0.5,9.25l0.7,4.3m3.75,-0.2l0.3,-0.3l1.65,0.55l0.15,-0.05l-0.95,-5.5l-1.75,4.4l0.6,0.9m6.55,-1.85l1.8,-0.65l3.1,1.2l0.1,0l-3.45,-15.05l-1.55,14.5"/>
   <path id="svg_53" fill-rule="evenodd" fill="#807e75" d="m42.9,-53.75l-1.25,19.2l-1.05,1.05l0,6.5l-8.65,10.25l3.45,13.75l4.05,-6.25l0,5.65l0,2.25l4.25,1.55l0.05,0l-2,7.3l3.45,1.75l9.15,2.4l11.4,-2.45l4.45,-4.25l0,-0.55l-4.85,0.7l2.3,-15.5l-19.2,-8.05l4.75,-4.4l9.9,1.6l7.1,10.85l0,13.2l0.25,0l16.85,-4.3l8.4,-8.65l-11.9,-20.9l0.45,2.4l-5.4,7.65l-6.85,0l-6.25,-13.35l0,-1.2l0,-9.25l1.25,-1.75l-5.7,0.8l-18.4,-8"/>
   <path id="svg_54" fill-rule="evenodd" fill="#8f8c82" d="m143.3,-66.1l0,-3.55l-2.5,-1.15l-1.2,2.4l-25.55,14.6l-23.85,-1.3l-3.75,-8.45l-0.95,3.15l-0.55,-6.5l0,-0.05l-3.35,-7.35l-1.75,13.55l0.9,2.2l11.5,6.2l1.6,6.6l-1.85,2.4l-3.4,2.1l6.25,1.75l0,-5.25l13.8,-5.05l4.9,5.85l0.4,-6l7.25,-4.95l3.25,-0.45l6.45,-7.65l4.1,0l8.3,-3.1"/>
   <path id="svg_55" fill-rule="evenodd" fill="#8f8c83" d="m100.25,-12l2.3,-6l-2,-6.4l-1.6,-5.05l-1.75,-0.85l-2.35,-3.95l0,-5.25l-6.25,-1.75l-6.05,3.7l1.25,6.5l11.9,20.9l4.55,-1.85"/>
   <path id="svg_56" fill-rule="evenodd" fill="#9f9c91" d="m139.15,-37.45l2.85,0.05l3.4,-3.85l0,-15l-1.55,-9.95l-0.55,0.1l-8.3,3.1l-4.1,0l-6.45,7.65l5.8,-0.8l8.9,11.95l0,6.75m-73.4,1.9l0,1.2l6.25,13.35l6.85,0l5.4,-7.65l-18.5,-6.9"/>
   <path id="svg_57" fill-rule="evenodd" fill="#848344" d="m67.65,-10.4l2.55,0l-7.1,-10.85l-9.9,-1.6l-4.75,4.4l19.2,8.05"/>
   <path id="svg_58" fill-rule="evenodd" fill="#655f3a" d="m70.2,4.4l0,-1.6l0,-13.2l-2.55,0l-2.3,15.5l4.85,-0.7"/>
   <path id="svg_59" fill-rule="evenodd" fill="#b1ada0" d="m124,-28.7l6.9,1.4l8.25,-3.45l0,-6.7l0,-6.75l-8.9,-11.95l-5.8,0.8l-3.25,0.45l-7.25,4.95l4,11.3l0.15,0.15l5.55,6.7l0.35,3.1"/>
   <path id="svg_60" fill-rule="evenodd" fill="#b0aca0" d="m111.05,-13.5l6.25,-0.15l7.85,-4.9l-1.15,-10.15l-0.35,-3.1l-5.45,4.05l-8.4,0l1.25,14.25"/>
   <path id="svg_61" fill-rule="evenodd" fill="#9e9c95" d="m105.4,-26.45l0,8.15l5.65,4.8l-1.25,-14.25l-4.4,1.3"/>
   <path id="svg_62" fill-rule="evenodd" fill="#e9e2cb" d="m-56.25,-170.1l-8.65,12.4l-1.6,6.7l4.95,-4.55l11.1,2.7l9,-1.05l4.85,-2.95l-1.4,-1.4l1.05,0l9.5,-4.55l9.05,5l0.25,-0.45l1.95,-0.05l-2.2,-3.15l-0.8,-1.2l-14.25,-8.45l-11.45,3.45l-11.35,-2.45"/>
   <path id="svg_63" stroke-width="0.05" stroke-opacity="0.8" stroke-linejoin="round" stroke-linecap="round" stroke="#4f4f3c" fill="none" d="m47.5,-86.4l1.1,-1.3m-1.1,1.3l-4.35,5.4"/>
   <path id="svg_64" stroke-width="0.05" stroke-linejoin="round" stroke-linecap="round" stroke="#4d5337" fill="none" d="m-42.4,-134.25l0,-0.25q-0.25,-1.5 -1.2,-2.4q-0.95,-0.95 -2.05,-0.75q-1.1,0.2 -1.7,1.35q-0.45,0.95 -0.4,2.1l0.05,0.55q0.25,1.5 1.2,2.4q0.95,0.95 2,0.75q1.15,-0.15 1.75,-1.35q0.55,-1.05 0.35,-2.4m17.9,-6.9q-0.8,-0.65 -1.75,-0.5q-1.05,0.2 -1.7,1.35q-0.6,1.2 -0.3,2.7l0,0.05q0.25,1.45 1.15,2.35q0.95,0.9 2.05,0.75q1.1,-0.2 1.7,-1.35q0.6,-1.15 0.35,-2.7q-0.25,-1.5 -1.2,-2.4l-0.3,-0.25"/>
   <path id="svg_65" fill-rule="evenodd" fill-opacity="0.6" fill="#f5f8f8" d="m-54.55,-131.7q-0.8,-2.25 0.15,-3.8l0.55,-0.6q-1.1,0.25 -1.75,1.3q-0.95,1.5 -0.25,3.65q0.75,2.15 2.75,3.65q1.45,1.1 2.9,1.4l-1.4,-1.2q-2.2,-2.25 -2.95,-4.4"/>
   <path id="svg_66" fill-rule="evenodd" fill-opacity="0.6" fill="#f5f8f8" d="m-28.7,-136.9q-0.7,-2.25 0.3,-3.75l0.55,-0.65q-1.1,0.25 -1.75,1.25q-1,1.5 -0.35,3.65q0.75,2.15 2.65,3.7q1.4,1.15 2.85,1.45l-1.35,-1.15q-2.15,-2.3 -2.9,-4.5"/>
   <path id="svg_67" fill-rule="evenodd" fill-opacity="0.541176" fill="#b1c043" d="m38.65,-200.6l0.15,1.45l-0.15,-1.45m-37.45,5.1l-1,0.55q-1.7,0.9 -1.45,2.9l0.3,0.4l2,0.2l1.7,-0.2l6.55,-1l2.65,-0.25q2.7,-0.2 4.1,-1.85l1.75,-0.2q5.6,-0.75 12.15,-2.4q6.6,-1.65 0.05,0.75q-6.45,2.35 -4.6,2.7l5.6,0.85q3.7,0.55 8.05,-0.2l1.1,-0.4l1.6,-0.65l0.85,-0.2q1.8,-0.45 1.55,-1.1l0.6,0.45l0.75,0.3l1,0.35q2.25,0.9 4.35,2.2q0.45,0.3 0.95,0.45l1.55,0.5l-9.7,-10l-12.95,-0.55l-1.65,-0.05l-0.7,0.25l-1.35,0.65l-0.7,0.85l-0.25,0.3l-1,0.35q-2.65,0.85 -5.3,0l-3.4,-0.15l-1.3,0.25l-3.55,0.45q-0.1,-0.25 0.1,-0.45l0.4,-0.55l0.35,-0.5l0.05,-0.25l0,-0.3l-1.2,0.15l-0.55,-0.1l-0.15,-0.05l-0.3,0.05l-2.1,0.65q-0.7,0.35 -2.05,0.35l-1.15,0.1l-0.3,0.05l-1.8,0.4q-0.3,0.2 -0.35,0.1q-0.35,-0.3 -1.1,0.2q-0.3,0.2 -0.6,0.25l-0.85,0.3l0.1,0.2l0.95,0.15l-0.05,0.25l0.45,0.05q1.45,0.05 2,1.05l-0.55,0.4l-0.9,0.6l-0.7,0.4l0.15,0.5l-0.15,-0.5m33.35,-2.9l0.15,-1.65l-0.15,1.65m-3.25,-1.75l-0.6,-1.75l0.6,1.75m-0.9,-0.9l0.45,1.05l-0.45,-1.05m-18.6,4.3l-0.15,1l0.15,-1m1.75,-1.5l-0.25,1.2l0.25,-1.2m1.65,0.45l-0.3,1.45l0.3,-1.45m-5.75,-0.9l0.25,1.15l-0.25,-1.15m1.75,0l-0.3,1.5l0.3,-1.5m-2.95,2.1l0.6,0.85l-0.6,-0.85m1.45,-0.95l0.35,0.95l-0.35,-0.95m-6.9,1.65l0.6,1.35l-0.6,-1.35m1.8,-0.55l-0.6,1.6l0.6,-1.6m0.85,7.55l-0.8,0.05l-0.7,0.15q-1.35,0.2 -2.05,1.05q-0.55,0.75 -1.45,0.8l-0.9,0l-0.6,-0.05l-1.1,-0.25q-4.1,-0.85 -7.75,1q-1.45,0.75 -0.85,1.8l0.4,0.45q0.35,0.3 0.8,0.25q2.45,-0.15 4.3,1.45l0.5,0.35l0.45,0.25l3.85,0.7l1.75,-0.05l7.4,-1.2q1.95,-0.3 3.6,-1.2l3.75,-1.9l1.4,-0.95q0.7,-0.6 0.15,-1.15l-0.35,-0.3l-6.75,-0.65l-1.3,0.1l0.05,0.15l-0.35,-0.15l-3.45,-0.7m1.95,2.9l0.3,0.9l-0.3,-0.9m-2.25,-0.3l0,1.3l0,-1.3m5.05,-1.05l-0.3,1.5l0.3,-1.5m-1.05,0.45l0,0.9l0,-0.9m-1.45,-0.45l0.55,1.95l-0.55,-1.95m-4,1.8l0.45,0.7l-0.45,-0.7m8.25,-1.2l-0.3,0.75l0.3,-0.75m-2.35,-0.3l0,1.2l0,-1.2m-41.3,-3.5l-0.5,0.15q-0.85,0.6 -1.05,1.6l0.05,0.65q0.8,0.95 2.4,0.3l1.8,-0.4q2,-0.15 3.85,-0.8l1.35,-0.55l0,-0.05q0.1,-0.3 -0.05,-0.45l-0.35,-0.25l-0.45,-0.1l-0.3,-0.1l-0.55,0l-0.3,0l0,-0.05l-0.85,-0.3l-0.35,-0.2l-1.75,-0.05l-0.85,0.15q-1,0.4 -2.1,0.45m31,4.1l0,1.2l0,-1.2m-3.85,-0.15l0,1.05l0,-1.05"/>
   <path id="svg_68" fill-rule="evenodd" fill-opacity="0.180392" fill="#a6c11e" d="m53.35,-191.35l-1.55,-0.5q-0.5,-0.15 -0.95,-0.45q-2.1,-1.3 -4.35,-2.2l-1,-0.35l-0.75,-0.3l-0.6,-0.45q0.25,0.65 -1.55,1.1l-0.85,0.2l-1.6,0.65l-1.1,0.4q-4.35,0.75 -8.05,0.2l-5.6,-0.85q-1.85,-0.35 4.6,-2.7q6.55,-2.4 -0.05,-0.75q-6.55,1.65 -12.15,2.4l-1.75,0.2q-1.4,1.65 -4.1,1.85l-2.65,0.25l-6.55,1l-1.7,0.2l-2,-0.2l-0.3,-0.4q-0.25,-2 1.45,-2.9l1,-0.55l0.7,-0.4l0.9,-0.6l0.55,-0.4q-0.55,-1 -2,-1.05l-0.45,-0.05l0.05,-0.25l-0.95,-0.15l-0.1,-0.2l-0.25,0.1l-0.4,0l-0.2,0l-1.2,-0.05l-0.05,0q-1.4,0.35 -2.05,1.8l-0.3,0.55q0.95,0.15 1.4,0.8l2.05,0.95l-1.65,-0.35l0.55,0.7q-0.9,1 -2.4,0.85l-3.2,-0.05l-1.7,0.3l-0.4,0.35l-0.15,0.35q-0.05,0.35 0.5,0.55q1.95,0.95 4.1,1.3l0.3,0.15q-1.55,1 -3.85,1.25l-1.8,0.4l-1.7,0.6l-1.8,0.65q-1.1,0.4 -1.45,1.25l-0.4,0.65q0.35,0.45 1.1,0.95l1.95,1.1l1.7,0.95q0.55,0.35 0.25,1.05l-0.65,2.1q3.75,0.9 7.55,1.05l3.8,0.45q2.25,0.35 4.2,-0.55q1.35,-0.7 2.9,-0.75l1.8,-0.25l1.15,-0.05l1.5,-0.15l3.8,-0.5l2.05,-0.1l3.15,-0.6l3.1,-1l2.6,-0.75q1.7,-0.35 3.3,-1.15l1.15,-0.1q-0.75,-0.95 -2.3,-1.4q-1.1,-0.35 -2.2,-0.85l-2.6,-1q-3.7,-1.15 -7.1,-2.25l-0.55,-0.2l-0.35,-0.15l-0.55,-0.35q0.4,-0.75 1.75,-0.5l8,0.85q2.45,0.1 4.8,0.8q0.2,0.05 0.5,-0.2q1.15,-0.8 2.6,-0.9l1.25,-0.2l0.8,-0.3l0.65,-0.35q1.25,-0.95 2.95,-0.8l2.15,0.45l1.05,-0.1l2.7,-0.5l1.2,0.2l2.9,0.6l0.9,0.35l3,1.7q1.45,0.85 2.85,1.35l0.35,0.1l3.8,1.1l0.1,-0.1l-2.3,-1.55l-3.25,-3.35m-42.85,-9.7l0.15,0.05l0.55,0.1l1.2,-0.15l0,0.3l-0.05,0.25l-0.35,0.5l-0.4,0.55q-0.2,0.2 -0.1,0.45l3.55,-0.45l1.3,-0.25l3.4,0.15q2.65,0.85 5.3,0l1,-0.35l0.25,-0.3l0.7,-0.85l1.35,-0.65l0.7,-0.25l-12.05,-0.55l-1.85,0.4l-0.7,-0.4l-0.45,0.15l-0.6,0.2q-1.5,0.35 -2.65,0.95l-0.25,0.15m-9.6,4.3l0.3,1.25l-0.3,-1.25m115.6,78.55q-1.6,-1.75 -4,-1.8l-1.75,-0.15l-0.45,-0.3q-1.05,-1.55 -2.75,-2.4q-1.05,-0.6 -1.2,-1.65l-0.15,-1.2l-0.05,-0.9l0.15,-0.3l0.4,-0.4l1.35,-0.8q3.65,-1.8 7.7,-2.65l0.45,-0.3q0.1,-0.8 -0.2,-1.4l-0.85,-1.15l-0.45,-0.3l-3.4,-3l0.9,-0.3l0.65,-0.3l-6.75,-4.9l-4.8,-0.35l-0.6,-0.05q-0.75,0 -0.35,1.35q0.2,0.85 1.05,1.45l2.6,1.55q4.05,1.95 7.3,5.1q-0.3,1.15 -1.75,1l-2.35,-0.1q-3.7,0.1 -6.8,1.35q-0.95,0.4 -1.3,1.35q-0.15,0.35 -0.05,0.8q0.8,2.75 3.45,4.05q1.4,0.7 1.45,2.15q0,0.75 -0.4,1.45l-0.9,1.9l-0.4,1.7q-0.2,3.4 -3.05,4.9l-3.15,1.45l-1.5,0.75l-0.9,0.85q1,0.55 2.65,0.7l2.05,0.05l2.05,-0.15l7.7,-1.4l0.85,-0.15l0.6,-0.1l1.5,-0.05l1.15,0q2,-0.35 3.4,0.95l0.55,0.7l0.75,0.95q0.85,1 1.6,1.2l1.35,0.15l2.4,-0.35l0.4,-0.1l-5.85,-10.8l-0.25,0.1l-0.05,-0.15m12.95,27.75l-0.3,-1.9l-9,-3.7q0.3,0.65 0.95,1.05l2.15,2.15q0.45,0.65 0.35,1.3q-0.2,0.8 -0.9,1.4q-0.9,0.75 -1.95,1.25q-2.95,1.5 -6.2,1.85l-0.7,0.5q-0.6,0.9 0.2,1.85l0.75,0.95q1.25,1.6 0.75,3.65q-0.25,0.85 -1.15,1.15l-2.7,0.15q-2.15,-0.45 -4.2,-1.25q-2.8,-1.05 -5.3,-2.5q-0.3,-0.2 0,-0.8l1.2,-1.55q1.35,-1.1 1.65,-2.75l0.1,-0.6q-0.7,-0.55 -2.05,0.4l-3.4,2.85q-0.45,2.6 -0.25,5.3q0.25,2.95 2.75,4.75q2.15,1.55 4.4,2.85l1.25,-0.35l-1.05,0.45l1.5,0.75q1.4,0.7 3,0.8l2.7,0.05l1.45,0.1l5,0.5l0.35,0.05q1.85,0.7 1.75,3.05l-0.25,1.7l-0.6,1.85q-1.9,4.5 -5.95,7.4l-2.5,1.9l0.75,0.1l25.55,-14.6l2.15,-4.4l-1.25,-1.3l-1.55,-1.35q-1.45,-1.05 -2.2,0.15l-0.85,1.5l-1.15,1.9q-0.7,0.85 -1.7,1.2l-3.4,0.7l-3.25,0.15q-1,0 -1.9,-0.45q-1.7,-0.8 -2.85,-1.8l1.25,-0.8l1.75,-1.45l2.95,-3.6q1.1,-1.65 1.05,-3.55q-0.05,-1.9 -0.95,-3.6q-0.95,-1.7 -0.55,-3.5q0.4,-1.85 1.9,-1.9l0.45,0m-124,-98.45l3.45,0.7l0.35,0.15l-0.05,-0.15l1.3,-0.1l6.75,0.65l0.35,0.3q0.55,0.55 -0.15,1.15l-1.4,0.95l-3.75,1.9q-1.65,0.9 -3.6,1.2l-7.4,1.2l-1.75,0.05l-3.85,-0.7l-0.45,-0.25l-0.5,-0.35q-1.85,-1.6 -4.3,-1.45q-0.45,0.05 -0.8,-0.25l-0.4,-0.45q-0.6,-1.05 0.85,-1.8q3.65,-1.85 7.75,-1l1.1,0.25l0.6,0.05l0.9,0q0.9,-0.05 1.45,-0.8q0.7,-0.85 2.05,-1.05l0.7,-0.15l0.8,-0.05m-53.4,4.85l0.35,0.1l0.25,0l0.3,0l0.65,0.2l0.85,-0.15l1.2,-0.15l1.5,-0.3q2,-0.85 4.35,-1.35l3.3,1.35l0.6,0.1l4.7,-0.05l2.3,-0.15q3.2,-0.6 6.25,-2l3.3,-1.15q2.75,-0.7 5.2,-1.9q0.85,-0.4 0.9,-1.35q0.1,-1 -0.55,-1.15l-0.6,-0.1l-7.35,-0.65l-3.25,-0.35l-3.75,-0.55l-0.65,-0.5q-1.05,-0.7 -1.55,-0.3q-0.25,0.2 -0.6,0.25l-1.1,0.15l-0.65,0.15q-2.2,0.75 -4.35,-0.6l-2.4,-1.1l-0.2,0.7l-0.5,0.5l0,6.5l-8.55,3.8l0.05,0.05m16.25,-6.5q1.1,-0.05 2.1,-0.45l0.85,-0.15l1.75,0.05l0.35,0.2l0.85,0.3l0,0.05l0.3,0l0.55,0l0.3,0.1l0.45,0.1l0.35,0.25q0.15,0.15 0.05,0.45l0,0.05l-1.35,0.55q-1.85,0.65 -3.85,0.8l-1.8,0.4q-1.6,0.65 -2.4,-0.3l-0.05,-0.65q0.2,-1 1.05,-1.6l0.5,-0.15"/>
   <path id="svg_69" fill-rule="evenodd" fill-opacity="0.541176" fill="#abab34" d="m3.1,-209.3l0.3,-2.1l-0.3,2.1m0.3,-2.1l-2.95,-2.65l-9.95,-1l-3.05,0.9l0.65,0.2l0.5,0.2l1.85,0.25l3.2,0.3q1.6,0.6 2.95,0.55l0.55,0.1q1,0.55 0.95,0.15q0.8,1.2 1.35,3q0.45,1.55 1.95,2.2l0.5,0.15l4.15,0.45l2.5,-0.2l-5.15,-4.6m113.1,93.2l0.05,0.15l0.25,-0.1l-0.3,-0.05"/>
   <path id="svg_70" fill-rule="evenodd" fill-opacity="0.541176" fill="#9aa837" d="m112.85,-137.5l-0.65,0.3l-0.9,0.3l3.4,3l0.45,0.3l0.85,1.15q0.3,0.6 0.2,1.4l-0.45,0.3q-4.05,0.85 -7.7,2.65l-1.35,0.8l-0.4,0.4l-0.15,0.3l0.05,0.9l0.15,1.2q0.15,1.05 1.2,1.65q1.7,0.85 2.75,2.4l0.45,0.3l1.75,0.15q2.4,0.05 4,1.8l0.3,0.05l1.7,-7.15l0,-0.15l-6.4,-2.8l6.95,0.6l1.05,-4.6l-7.25,-5.25m4.75,13.65l0.9,-1.45l-0.9,1.45m24.1,51.1l0.95,-2l-5.8,-3.45l-0.45,0.9l0.45,-0.9l-5.9,-3.6l-1.5,-8.65l-0.45,0q-1.5,0.05 -1.9,1.9q-0.4,1.8 0.55,3.5q0.9,1.7 0.95,3.6q0.05,1.9 -1.05,3.55l-2.95,3.6l-1.75,1.45l-1.25,0.8q1.15,1 2.85,1.8q0.9,0.45 1.9,0.45l3.25,-0.15l3.4,-0.7q1,-0.35 1.7,-1.2l1.15,-1.9l0.85,-1.5q0.75,-1.2 2.2,-0.15l1.55,1.35l1.25,1.3m-8.7,-5.6l-0.1,0.8l0.1,-0.8m-1.2,-0.95l0.5,1.85l-0.5,-1.85m4,3l0.6,-1l-0.6,1m-5.25,-5.2l0.1,1.8l-0.1,-1.8m-11.4,-50.05l-0.75,0.2l0.75,-0.2m10.5,55.85l0.05,1.45l-0.05,-1.45m1.4,-0.35l-0.4,1.75l0.4,-1.75m3.1,-1.1l-0.35,1.15l0.35,-1.15m-0.05,-0.5l-0.65,1.2l0.65,-1.2"/>
   <path id="svg_71" fill-rule="evenodd" fill-opacity="0.462745" fill="#899e21" d="m58.9,-186.45l-0.1,0.1l0.6,0.25l-0.5,-0.35m-106.85,2.4l-0.05,-0.05l0.05,0.05m131.85,127.3l-3.75,-2l1.1,0.65q1.25,0.75 2.65,1.35"/>
   <path id="svg_72" fill-rule="evenodd" fill-opacity="0.6" fill="#76751f" d="m-16.35,-70l-2.7,-0.55l0,-0.45l-1.7,0.15l-1.45,-0.1l-0.35,-0.1l-0.4,0.05l-1.05,0.1l-0.6,-0.1l-0.3,0.05q-1.7,0.15 -2.65,1q2.6,0.1 4.3,1.85q0.55,0.55 1.6,0.4l0.8,0.05q1.3,0.3 2.45,0.95q-0.65,0.1 -0.7,0.9l-0.3,0.45l-0.35,0.75q-0.15,0.95 -1,0.75l-1.15,-0.25l-0.95,-0.5q-1.65,-0.9 -3.25,-2.1q-1.25,-0.95 -1.65,-2.4l-1.35,-3.5l-0.2,-0.15l-0.45,-0.1q-2,-1.3 -3.45,-3.25l-0.9,-0.7l-3.45,0.1q-2.5,1 -2.65,3.5q-0.1,1.35 -0.6,2.35l-0.15,0.3l-0.5,0.55q-0.7,1.35 -0.5,3q0.25,2.75 0.15,5.6l-0.3,1.15l-0.7,1.55l-2,5.2l-0.5,0.6q-2.35,0.7 -4,-0.95q-1.85,-1.85 -4.2,-3.15q0.5,0.4 0.35,1.5l0.15,0.8q1.05,2.2 1.65,4.45l0.45,2.1l0.15,0.85q0.55,1.75 0.4,3.6q-0.05,0.3 -0.3,0.45l-0.85,1l-0.15,0.35q-0.15,0.45 -0.85,0.4l0.05,1l1.55,3.35l0.35,-1.45q0.15,-0.55 0.6,-0.55l0.2,0l1.4,-3.45l0.5,3l1.35,-0.95q0.25,-0.2 0.25,-0.5l0,-0.3l0.15,-0.3l1.55,-1.7l0.35,-0.45l0.7,-1.4l1.65,-4.35l0.4,-4.1l0.3,1.15l0.15,-0.05q0,-0.6 0.5,-0.6l2.35,0.35q0.45,0.1 0.75,0.35l0.55,0.85q0.35,0.85 0.2,2l0.2,1.05q1,1.95 3,1q1.15,-0.55 2.35,-0.7l0.35,-0.15l0.2,-0.2q-1.85,-2.35 -4.45,-4.5l-0.25,-0.35q-0.15,-1.1 -0.55,-2.05q-0.85,-2 -0.7,-4.15l0.3,-2.3q0.2,-0.95 1.25,-1.35l0.9,-0.15l0.85,0.3l0.6,0.65q0.5,0.75 0.6,1.7l0.1,0.3l4.35,1.15l2.05,0.3q0.3,0 0.65,-0.25l0.75,-0.7q0.8,-0.8 1.85,-0.8q-0.45,0.45 0.85,0.95l2.75,0.8q1.25,0.3 1.5,-0.2q2.35,-5.1 0.8,-10.75m-24.15,-11.9l-0.3,-0.85l-0.4,-0.7l-0.2,-0.45l-12.6,5.45l0.05,0.35l0.1,0.6q0.25,1.3 -0.85,1.9l-1,0.5q-0.7,0.35 -0.35,1q0.45,0.8 1.35,0.45l0.6,-0.2l0.45,-0.2l0.7,-0.05l0.2,0.25l0.25,0.1l2.25,-0.45l0.7,-0.05l0.4,0.3l0.75,1l0.85,1.1q0.3,0.35 0.6,0.25q1.35,-0.25 2.4,-1.2l0.5,-0.5q0.55,-0.8 0.4,-1.7q-0.3,-1.75 0.75,-3.1l0.65,-0.6q1.3,-0.9 1.65,-2.35l0.1,-0.85"/>
   <path id="svg_73" fill-rule="evenodd" fill="#585032" d="m-74.15,-48.3l-0.85,-1.1q-2.5,-3.1 -4.45,-6.4l0,4.4l0.1,1.45l0.1,0.55l-1.25,-1.75l-0.25,-0.45q-1.25,-2.75 -2.85,-5.4l-0.4,-0.55l-2.55,5.25l6.7,12.6l-1.4,2.65l6.8,4.6l1.45,-7l-1.15,-8.85m-4.3,-1.3l1.05,1l-1.05,-1m0.45,-1.05l0.9,1.05l-0.9,-1.05m-1.3,3.4l1.9,0.45l-1.9,-0.45m1.45,2.8l0.9,-0.15l-0.9,0.15"/>
   <path id="svg_74" fill-rule="evenodd" fill-opacity="0.611765" fill="#63591d" d="m-16.35,-70q1.55,5.65 -0.8,10.75q-0.25,0.5 -1.5,0.2l-2.75,-0.8q-1.3,-0.5 -0.85,-0.95q-1.05,0 -1.85,0.8l-0.75,0.7q-0.35,0.25 -0.65,0.25l-2.05,-0.3l-4.35,-1.15l-0.1,-0.3q-0.1,-0.95 -0.6,-1.7l-0.6,-0.65l-0.85,-0.3l-0.9,0.15q-1.05,0.4 -1.25,1.35l-0.3,2.3q-0.15,2.15 0.7,4.15q0.4,0.95 0.55,2.05l0.25,0.35q2.6,2.15 4.45,4.5l0.05,0l-0.25,0.2l-0.35,0.15q-1.2,0.15 -2.35,0.7q-2,0.95 -3,-1l-0.2,-1.05q0.15,-1.15 -0.2,-2l-0.55,-0.85q-0.3,-0.25 -0.75,-0.35l-2.35,-0.35q-0.5,0 -0.5,0.6l-0.15,0.05l3.2,13.9l7.55,-1.2l4.2,1.6l4.95,-6.95l10,-3.35l2.7,-3.05l-3.8,-6.6l3.8,-2.15l-7.75,-9.7l-0.05,0m-57.8,21.7l1.15,8.85l-1.45,7l0.05,0l13,-2.3l3.7,-3.15l1.55,2.25l3.45,-0.6l-0.55,-0.85l-0.75,-4.3l0,-0.4l-2.45,-0.45q-1.65,-0.05 -2.75,-0.8l-1,-0.75l-0.5,-0.35l-0.3,-0.3l-0.75,-1l-1.2,0.25q-0.85,0.4 -1.8,0.85l-0.95,0.85l-0.55,0.6q-0.55,0.35 -1.1,0.3q-1.7,-0.15 -3.25,-0.85l-0.45,-0.35l-1.3,-2l-1.8,-2.5m7.95,7.55l-0.3,1.6l0.3,-1.6m1.65,0.55l-0.6,1.5l0.6,-1.5m1.75,0l-1.05,2.25l1.05,-2.25m37.75,-10l0.15,1.05l-0.15,-1.05m11.05,-14.9l0,2.8l0,-2.8m-6.75,15.35l-0.6,1.45l0.6,-1.45m-2.25,-3.45l1.05,2.1l-1.05,-2.1m2.1,-1l0.3,2.65l-0.3,-2.65m2.05,1.15l-0.3,2.25l0.3,-2.25m-4.85,1.35l-0.15,2.1l0.15,-2.1m12.65,-10.75l-1.15,0.7l1.15,-0.7m-11.35,15.35l-0.3,1.9l0.3,-1.9m-1.45,-0.75l-0.9,0.9l0.9,-0.9"/>
   <path id="svg_75" fill-rule="evenodd" fill-opacity="0.611765" fill="#766a1f" d="m-54,-41.4l0,-0.4l0,0.4m94.9,8.9l-0.35,0l0.35,0"/>
   <path id="svg_76" fill-rule="evenodd" fill-opacity="0.611765" fill="#68771e" d="m-41.85,-49.55l-1.65,4.35l-0.7,1.4l-0.35,0.45l-1.55,1.7l-0.15,0.3l0,0.3q0,0.3 -0.25,0.5l-1.35,0.95l0.4,2.5l3.85,-0.6l0.65,-1.45l1.1,-10.4m-7.9,10.4l-0.2,0q-0.45,0 -0.6,0.55l-0.35,1.45l0.2,0.5l0.15,0.1l1.35,-0.25l-0.95,-1.4l0.4,-0.95m33.4,-30.85l0.05,0l-0.05,0"/>
   <path id="svg_77" fill-rule="evenodd" fill-opacity="0.6" fill="#878723" d="m-30.55,-48.6l-0.2,0.2l0.25,-0.2l-0.05,0m124.45,40.25l1.75,-1.75l4.5,-1.85l1.6,-4.25l-2.15,-1.35q-1.4,-0.8 -2.6,-1.8q-2.5,-2.1 -5.45,-1.05l-0.45,0.05q-1.05,-0.5 -1.95,-1.8l-4.35,-5.7l-0.7,-0.55l-0.05,0l-5.3,7.45l-4.45,0l-0.15,0.25q-0.3,0.5 -1.15,0.45l-0.6,-0.1l-0.35,-0.2l-1.1,-2.25q-0.55,-0.95 -1.5,-1.45l-0.55,-0.35l-1,-0.65q-1.7,-0.8 -2.55,-2.6l-0.7,-1.35l-0.65,-1.3q-0.8,-1.95 -3.05,-1.6l-0.6,0.1l-1.15,0.45q-0.75,0.6 -1.95,0.35l-0.5,0.7q-1.15,2.3 -2.9,4.2l-0.65,0.3q-0.65,0.05 -1.15,-0.9q-0.25,-0.45 -0.35,-0.95q-0.55,-4 -2.5,-7.65l-2.5,-4.95q-0.25,-0.45 -0.6,-0.5l-0.85,0.05l-3.3,0.95l-0.4,5.45l-1,1.05l0,0.95l0.35,0l0.25,0l1.1,0.2l0.3,0.4q1.45,4.55 1.05,9.4l-0.75,5.6q-0.35,1.95 -0.15,3.85q0.15,1.05 1.4,0.9q1.65,-0.25 3.1,-0.9l0.2,-0.25l0.2,-0.4q0.6,-1 0.75,-2.6l0.05,-0.3l0.25,-1.75q0.1,-0.8 0.35,-1.25l1,-1.4q0.25,-0.3 0.85,-0.4q0.3,-0.05 0.55,-0.25q0.95,-0.6 2.1,-0.65l0.9,-0.15q3.7,-1.25 7.35,0.1l0.95,0.35q2.7,1.2 4.95,3.1q1.7,1.35 2.9,3.2q0.55,0.85 1.2,1.25q2.45,1.4 2.65,4.35q0.15,2.3 2,3.65l1.4,0.9l0.65,-0.05l0.7,-0.7q0.8,-1.5 2.35,-2.65q1.6,-1.25 2.35,-2.8q0.3,-0.7 0.95,-1.25l3,0.1l2.25,1.95l2.15,1.6l1.7,1"/>
   <path id="svg_78" fill-rule="evenodd" fill-opacity="0.611765" fill="#736c22" d="m40.55,-32.5l0,5.55l-3.8,4.45l0.25,1.05l-0.25,-1.05l-1.25,1.5l0.6,1l-0.6,-1l-3.65,4.3l3.5,13.75l4.05,-6.25l0,7.85l4.25,1.6l-1.95,7.3l3.45,1.75l9.15,2.4l11.35,-2.45l4.45,-4.25l0,-2.15l0.3,0l16.8,-4.3l6.7,-6.9l-1.7,-1l-2.15,-1.6l-2.25,-1.95l-3,-0.1q-0.65,0.55 -0.95,1.25q-0.75,1.55 -2.35,2.8q-1.55,1.15 -2.35,2.65l-0.7,0.7l-0.65,0.05l-1.4,-0.9q-1.85,-1.35 -2,-3.65q-0.2,-2.95 -2.65,-4.35q-0.65,-0.4 -1.2,-1.25q-1.2,-1.85 -2.9,-3.2q-2.25,-1.9 -4.95,-3.1l-0.95,-0.35q-3.65,-1.35 -7.35,-0.1l-0.9,0.15q-1.15,0.05 -2.1,0.65q-0.25,0.2 -0.55,0.25q-0.6,0.1 -0.85,0.4l-1,1.4q-0.25,0.45 -0.35,1.25l-0.25,1.75l-0.05,0.3q-0.15,1.6 -0.75,2.6l-0.2,0.4l-0.2,0.25q-1.45,0.65 -3.1,0.9q-1.25,0.15 -1.4,-0.9q-0.2,-1.9 0.15,-3.85l0.75,-5.6q0.4,-4.85 -1.05,-9.4l-0.3,-0.4l-1.1,-0.2l-0.25,0l-0.35,0m-5.6,12.8l1.15,1.05l-1.15,-1.05m4.55,-1.3l-0.45,2.5l0.45,-2.5m28.65,8.1l-0.75,0.6l0.75,-0.6m-6.2,-4.85l0.75,2.65l-0.75,-2.65m2.5,0.1l-0.3,3.1l0.3,-3.1m1.75,2.25l-0.85,2.2l0.85,-2.2m-31.1,-0.9l1.3,1.2l-1.3,-1.2m1.15,-1.2l1.05,1.05l-1.05,-1.05m2.55,1.8l1.15,1.75l-1.15,-1.75m-3.25,3.65l1.45,0.45l-1.45,-0.45m2.35,-1.6l1.15,1.2l-1.15,-1.2m37.45,10.8l0,1.6l0,-1.6m2.05,-0.75l-1.3,1.9l1.3,-1.9m-39.5,-15.8l0.6,1.5l-0.6,-1.5m25.95,0.3l-0.45,1.05l0.45,-1.05m-9.75,0.15l0.3,1.05l-0.3,-1.05m1.65,-0.15l0.7,1.9l-0.7,-1.9m2.95,0.6l0.1,1.6l-0.1,-1.6m1,0l-0.45,1.6l0.45,-1.6m-20.2,-0.6l0.3,0.9l-0.3,-0.9m-1.75,0.45l0.3,1.9l-0.3,-1.9"/>
   <path id="svg_79" stroke-width="1.25" stroke-linejoin="round" stroke-linecap="round" stroke="#bcbb32" fill="none" d="m38.8,-199.15l-0.15,-1.45m-37.45,5.1l0.15,0.5m29.5,-5l-0.45,-1.05m-29.2,5.55l-0.3,-1.25m10.75,1l0.15,-1m-7.8,1.9l0.6,-1.6m-1.2,1.9l-0.6,-1.35"/>
   <path id="svg_80" stroke-width="1.25" stroke-linejoin="round" stroke-linecap="round" stroke="#a4a42b" fill="none" d="m30.7,-201.9l0.6,1.75m3.4,0.1l-0.15,1.65m-21.25,1.35l0.25,-1.2m-4.7,2.5l-0.6,-0.85m2.65,-0.6l0.3,-1.5m-1.5,1.15l-0.25,-1.15"/>
   <path id="svg_81" stroke-width="1.25" stroke-linejoin="round" stroke-linecap="round" stroke="#b0af2f" fill="none" d="m3.4,-211.4l-0.3,2.1m11.8,12.95l0.3,-1.45m-5.15,1.2l-0.35,-0.95m126.7,120.25l-0.6,1m-131.65,-108.55l-0.45,-0.7m4.55,0.15l-0.55,-1.95m1.45,1.35l0,-0.9m0.75,1.05l0.3,-1.5m-5.05,2.35l0,-1.3m-9.7,0.75l0,-1.05"/>
   <path id="svg_82" stroke-width="1.25" stroke-linejoin="round" stroke-linecap="round" stroke="#b4b330" fill="none" d="m118.5,-125.3l-0.9,1.45m1.7,0.3l0.35,-0.2m17.2,45.55l0.25,-0.5m-4.8,1.25l-0.5,-1.85m5.05,1.1l-0.45,0.9m-18,-54.05l0.75,-0.2m10.55,57.3l-0.05,-1.45m4.15,-0.3l0.35,-1.15"/>
   <path id="svg_83" stroke-width="1.25" stroke-linejoin="round" stroke-linecap="round" stroke="#c5c434" fill="none" d="m132.9,-77.55l0.1,-0.8m-2.35,-1.35l-0.1,-1.8m0.1,7.2l0.4,-1.75m2.4,-0.4l0.65,-1.2"/>
   <path id="svg_84" stroke-width="1.25" stroke-linejoin="round" stroke-linecap="round" stroke="#caca35" fill="none" d="m7.7,-185.1l-0.3,-0.9m2.2,0.15l0,-1.2m2.05,1.05l0.3,-0.75m-12.65,1.5l0,-1.2"/>
   <path id="svg_85" stroke-width="1.25" stroke-linejoin="round" stroke-linecap="round" stroke="#878723" fill="none" d="m-77.1,-49.6l-0.9,-1.05m0.6,2.05l-1.05,-1m1.5,5l-0.9,0.15m0.45,-2.35l-1.9,-0.45m65.3,-15.05l0,-2.8m-5.15,14.3l0.3,-2.25m-1.75,1.5l-0.3,-2.65m-1.05,3.1l-1.05,-2.1m10.8,-8.55l1.15,-0.7m76.4,49.25l0.85,-2.2m-2.05,0.85l0.3,-3.1m-1.75,2.55l-0.75,-2.65m5.45,5.45l0.75,-0.6m7.95,11.2l1.3,-1.9m-2.05,2.35l0,-1.6m-36.3,-9.6l-1.15,-1.2m-0.9,2.05l-1.45,-0.45m4.4,-1.9l-1.15,-1.75m-1.5,-0.75l-1.05,-1.05m0.15,2.4l-1.3,-1.2m2.95,-0.45l-0.3,-1.9m2.05,0.45l-0.3,-0.9m19.75,2.2l0.45,-1.6m-0.9,1.6l-0.1,-1.6m-2.25,1.3l-0.7,-1.9m-1.35,1.2l-0.3,-1.05m9.3,0.9l0.45,-1.05"/>
   <path id="svg_86" stroke-width="1.25" stroke-linejoin="round" stroke-linecap="round" stroke="#828122" fill="none" d="m-63.85,-37.95l1.05,-2.25m-2.35,1.5l0.6,-1.5m-1.95,1.05l0.3,-1.6m43.5,-4.45l0.3,-1.9m-2.35,0.15l0.9,-0.9"/>
   <path id="svg_87" stroke-width="1.25" stroke-linejoin="round" stroke-linecap="round" stroke="#989827" fill="none" d="m-24.9,-49.15l-0.15,-1.05m3.7,1.9l0.6,-1.45m-3.1,0.15l0.15,-2.1"/>
   <path id="svg_88" stroke-width="1.25" stroke-linejoin="round" stroke-linecap="round" stroke="#797920" fill="none" d="m36.75,-22.5l-0.35,-1.3m0.35,1.3l0.25,1.05m-0.9,1.45l-0.6,-1l-0.85,-1.35m4.4,3.85l0.45,-2.5m-3.4,2.35l-1.15,-1.05m3.55,1.8l-0.6,-1.5"/>
   <path id="svg_89" fill-rule="evenodd" fill="#76736c" d="m42.55,-157.3l-2.5,7.5l11.65,20.35l8.45,7.2l3.45,0.25l5.15,-5.15l2.15,-7.2l-3.4,-2.4l-7.05,-2l-6.25,4.05l-9.45,-9.2l-1.55,-9.2l-0.65,-4.2"/>
   <path id="svg_90" fill-rule="evenodd" fill="#e1dccc" d="m-30.55,-134.8l-8.8,2.15l2.3,5.95l4.5,-1.95l4.45,-3.85l-2.45,-2.3m-53.15,98.25l0.55,-0.95l-2.15,-1.75l-2,1.45l1.05,1.15l2.55,0.1m-13.6,-8.2l-1.45,-2.55l-8.1,-2.6l-4.1,5.65l2.3,2l3.95,-2.4l0.2,2.3l4.45,1.2l2.75,-3.6"/>
   <path id="svg_91" fill-rule="evenodd" fill="#c9c5b6" d="m-32.55,-128.65l0.15,0l6,-0.75l-1.7,-3.1l-4.45,3.85"/>
   <path id="svg_92" fill-rule="evenodd" fill="#a6a299" d="m-32.4,-128.65l-3.4,4.3l6.4,1.2l4,0.75l-0.75,-5.45l-0.25,-1.55l-6,0.75"/>
   <path id="svg_93" fill-rule="evenodd" fill="#a6a397" d="m-110.95,-44.25l-0.7,0.95l1.65,4.3l6.05,2.15l5.3,-1.3l2.65,-4.45l-1.3,-2.15l-2.75,3.6l-4.45,-1.2l-0.2,-2.3l-3.95,2.4l-2.3,-2"/>
   <path id="svg_94" fill-rule="evenodd" fill="#716f67" d="m-16.75,-42.6l-0.1,3.5l3.15,1l5.15,-1.2l-5.6,-5.75l-2.6,2.45m34.3,26.85l0.25,0.1l4.05,4.15l0,0.15l-3.35,2.9l-2.25,-3.95l-0.25,0l-3.55,1.3l-1.65,-1l-2,3.75l2.15,2.8l2.15,-1.65l3.6,1.55l8.05,-0.45l3.5,-3.9l-1.2,-3.3l-4.75,-2.6l-4.55,-0.2l-0.2,0.35"/>
   <path id="svg_95" fill-rule="evenodd" fill="#807e75" d="m17.8,-15.65l-0.25,-0.1l-1.55,3.35l0.25,0l2.25,3.95l3.35,-2.9l0,-0.15l-4.05,-4.15"/>
   <path id="svg_96" fill-rule="evenodd" fill="#cfcbbc" d="m145.4,-56.1l0,-0.15l-2.1,-13.4l0,3.55l-8.3,3.15l-4.1,0l-0.05,0.1l9.15,7.3l5.4,-0.55m-20.95,0.75l-3.25,0.5l-3.95,2.7l13.6,10l8.3,-1.85l0,-0.15l-8.9,-12l-5.8,0.8"/>
   <path id="svg_97" fill-rule="evenodd" fill="#8f8c82" d="m113.95,-49.95l-0.4,6.05l4.4,5.3l-4,-11.35"/>
   <path id="svg_98" stroke-width="0.5" stroke-opacity="0.45098" stroke-linejoin="round" stroke-linecap="round" stroke="#351b00" fill="none" d="m143.3,-69.65l-2.5,-1.1l1.9,-4l-11.7,-7.1l-1.8,-10.55l-9.95,-4.05l3.6,-10.75l-6,-11l1.75,-7.25l-0.85,-0.4l1.3,-1.65l0.05,-0.15l1.1,-4.6l-20.8,-15.05l-9.35,-1.25l1.05,-4.55l-0.9,-10.7l-5.1,-3.7l-8.25,-7.55l-8.15,0l0,-4.8l-12.05,-8.2l-12.95,-13.3l-26.65,-1.15l-1.85,0.35l-4.05,-2.45l-10.65,-9.45l-9.95,-1l-5.75,1.7l-9.7,5.95l-2.2,0.4l-5.1,-7.15l-3.25,-2.1l-4.35,-5.3l-14.8,0l-3.2,4.65l-10.45,-1.4l-6.5,17.75l-7.4,0.7l-7.35,9.5l-7.15,2.75l1.05,5.8l-10.8,2.75l-4.8,4.65l0,11.3l-9.05,14.1l3.5,3.25l-4.95,3.8l0,5.05l5.05,9.4l3.7,16.25l8.5,0l5.6,-3l-0.15,-1.25l15.1,3.25l4.7,-5.7l-3.65,-7.7l7.1,-2.1l4.85,-3.7l-2.85,-7.85l-4.85,-2.8l-4.4,3.25l-2.55,0.95l0,-5.1l-1.1,-2l1.1,-0.15l1.1,-3.65l8.8,-2.05l3.85,-10.5l0.25,-0.55l1.1,-1.3l0.35,0.35m-36.3,-16.2l6.75,8.1l6.4,1.65l0.75,3.9l2.4,0.9l-1.8,16.4l-0.6,-1.15l-4.15,-8.3l-7.65,1.45l-7.5,7.9l0,5.7l-1.5,0l-3.45,-3.25m12.45,-10.35l5.3,8.1l0.45,-0.05l0.15,7.9l-5.5,3.95l-0.25,0l-0.4,0.5l-0.65,0.8l-0.1,-0.55m6.1,0.55l0.55,-1.3l2.6,0l1.3,-1.75l1.85,6.35l9,3.75l-6.5,5.65l-4.75,-3.15l-2.65,-4.95l-1.4,-4.6l-0.25,-0.85m-4.45,-0.45l-0.65,0.5m-0.65,0.8l-0.35,0.4m6.9,-1.7l-5.25,0m6.1,5.9l2.65,8.55l-6.65,-0.9l-0.45,-0.05l-4,2.3l-5.55,-10.85l0,-10.1l0,-1.15m0,1.15l-3.8,1l-6.1,-1.6m63.9,-74.95l-2.35,3.4l-5.3,3.05l2.8,12.8l0.2,0.85l-0.5,13.6l-10.4,0l4.4,3.7l-3.25,9.25l-13.35,7.4l-4.55,-1.65m63,-42.5l-7.2,1.5l-5.1,10l0,7.55l-13.15,5.9l2.85,-10.15l0.85,-16.9l-8.05,2.35l-8.55,-3.7m11.7,19.6l-0.3,-0.25l4.35,-1.1m-12.95,-5.45l8.6,6.55m-20.7,-9.45l-3.9,10.65l-3.5,-9.95m97.35,-2.3l-19.7,4.25l-1.2,-3.1l1.3,-10.4l4.9,-2.65m-18.55,16.85l-3.05,1.85l5,0l0.8,-0.2l1.55,0.25l2.5,0.35l-2.05,-0.9l-0.15,-0.1l2.35,-0.5l2.7,0.5l7.35,1.45l-5.75,-2.7l-0.25,-0.1l2.55,-0.6m-2.3,0.7l-1.6,1.25m-4.9,0.1l-0.45,0.55m-1.45,-18.05l10.8,1.95m-27.8,-2.75l-10.15,2.3l6.9,-4.4m-3.95,28.3l3.9,-2.55m3.6,20.3l12.7,7.55l0.8,1.25l2.2,3.15l-1.95,0.05l-1.55,-1.9l-8.45,-4.05l-9.85,5.9l1.4,1.45l-4.85,2.9l-9,1.05l-11.1,-2.65l-4.95,4.5l1.6,-6.7l8.65,-12.4l11.35,2.5l11.45,-3.5l1.55,0.9l5.55,-2.85l10.15,-4.5l5.4,3.5l16.1,10.35l-23.7,2.3m-7.95,-11.65l-4.9,-2.75l-4.15,1.85l-8.25,1l-2.45,2.4l-8.3,0.35l-0.9,-5.15l-0.45,-4.45l3.2,-2.25m6.45,11.5l12.65,-0.55m38.75,7.4l-2.7,14.35l0,8.9l6.7,8.75l-3.6,5.55l-3.3,1.55l1.25,-6.65l-7.4,-1.25l-3.25,1.65l-0.35,-3.35l-7.6,-9.05l-0.95,-14.55l-0.3,-0.45m-20.4,1.45l2.65,2.7l3.35,-2.3l5.35,0l5.2,4.25l2.85,-4.95l-0.95,-1.1m-8,30.35l5.05,-0.65l5.3,-1.6l1.6,-5.1l0,-0.05l-2.05,-4.9l-0.05,0l-1.1,-2.65l-5.55,-4.95l-5.65,1.6l-1.95,3.25l0,8.1l-8.8,2.15l-1.1,-2.95l-1.15,-2.95l1.3,0.5l2.3,-1.05l-1.45,-5.65l-8,-1.85l-9.7,-6.7l-6.7,3l-0.55,2.15l-0.15,-0.65l-1.95,-2.2m28.5,-7.25l1.05,0l0.85,1.15l-0.5,0.3m8.5,24.3l-2.45,-2.3m-7.45,-4.3l-1.7,-4.15l0.25,-1.5m3.35,-12.35l2.15,3m-3,-4.15l9.5,-4.55l10.25,5.7m-54.35,-4.8l-0.45,0.5l-7.55,-2.65l6.7,-1.3l2.4,2.15l0.35,-0.35m-1.9,2.15l0.2,0.05m-13.75,-1.5l6,-1.2m24.25,-11.3l-3.8,-1.25l-3.85,-1.3l0,-5.3m6.7,13.1l1.85,-0.1m-18.45,4.85l11.75,-2.4l2,-8.85m-5.3,28.45l-0.5,2.25l3.35,4.4l0.9,-0.25l1.55,9.5l-5,9l0.8,1l0.5,2.05l-7.3,9.1l0.15,1.9l-0.85,0.15l-8.75,6.8l-1.3,18.5l3.35,5l-3.25,14.55l-5.7,11.85l6.7,12.65l-1.4,2.6l6.8,4.65l13.05,-2.35l3.7,-3.15l1.5,2.25l3.45,-0.55l-0.55,-0.85l2.6,0.4l0.1,0.1l1.35,-0.2l-0.3,-0.55l0.3,-0.3l1.65,0.55l0.15,0.1l0,-0.1l3.85,-0.65l0.6,-1.4l1.8,-0.7l3.1,1.25l0.1,0l7.6,-1.25l4.15,1.6l5,-6.9l10,-3.4l2.65,-3l-3.8,-6.65l3.8,-2.1l-7.7,-9.75l-2.8,-0.5l1.15,-13.45l-8.9,-4.25l1.8,-2.25l4.3,2.05l16.75,-4.1l6.95,-7l1.1,-7.25l0.5,0.5l19.6,5.15l1.8,10.5l18.05,10.25l-0.65,3.6l-2.25,13l6.25,4.75l-4.55,5.35l-1.25,19.15l-1.05,1.05l0,6.5l-8.65,10.25l3.45,13.8l4.05,-0.6l0,2.2l4.3,1.55l-2,7.3l3.45,1.75l9.15,2.45l10.3,-2.25l1.1,-0.25l4.45,-4.2l0,-2.2l17.1,-4.3l12.95,-10.5l2.3,-6l-2,-6.35l0.4,-4.2l4.45,2.1l0,8.2l5.65,4.75l6.25,-0.15l7.85,-4.85l-1.15,-10.2l6.9,1.4l8.25,-3.45l0,-6.7l2.85,0.05l3.4,-3.85l0,-14.85l0.2,0m-185.3,-87.15l-8.3,-2.2l-9.7,-4.75l0.55,-3.1m5.55,12.7l1.85,-0.9l1.55,0.55l-3.4,0.35l-4.15,2l-1.4,6.25l1.15,5.15l8.8,4.15l5.9,-1.15l0.9,-1.25m-20.25,-16.3l5.8,-1.6l5.1,1.85m-7.95,-8.7l-7.2,4.3m-27.15,-0.7l0.15,-1.5l1.95,3.5l1.05,2.25l-4.65,2.7l-1.2,1.7m4.8,-6.65l3.3,-0.4m-3.5,8.7l4.6,-1.6m2.55,-0.95l3.3,3.6l1.2,6.1l-4.8,2.5l-0.6,-1.2m-0.55,-20.95l1.65,-5.5m21.7,-13.45l-11.1,-2.5m-6.45,-19.65l-4.65,7.15m35.1,41.8l6.6,2.4m-48.8,16.35l0,6.7l-8.6,0l-0.45,-3.95l4.3,-2.3m19.4,-6l-2.75,-1.4m-11.9,13.65l6.5,3.25m0.6,-14.4l0.45,1m19.55,3.4l1.05,1.35l-0.55,0.7l1.1,3.35l3.3,2.05l0.55,0.9l12.1,0.6l4.65,-0.55l0,2.15l9.1,7.15l-12.2,2.7l-20.45,-3.05l-5.45,-6.2m12.25,-3.4l-0.55,-0.3l-3.85,-6.1m35.5,32.65l-0.45,0.6l-12.6,3.1l-16.2,6.8l-6,-11.1l-7.2,-10.35l4.55,-5.7m-12.85,26.15l2.05,7.6m6.25,-28.05l-0.75,-10m32.9,-17.5l-2.55,2.2l-1.5,9.9l0,0.75l0.55,-0.25l7.25,7l2.05,2.45l-0.75,0.1l2.85,2.3l6.7,-2.4l1,-2.55l9.1,-2.5l0,10.35l2.35,-11.75l12.9,-4.65l1.9,3.55l-0.15,1.85l-0.5,3.55m-44.6,-28.8l1.45,8.3l-0.6,0.85m7.05,-2.2l0.15,0l6,-0.75l-1.7,-3.1l-4.45,3.85l-4.5,1.95l-2.3,-5.95m9.95,9.5l4,0.75l1.9,0.3l3.5,3.55l2.15,2.25l-0.85,2.15l-4,5.6l-10.6,1.45m6.9,-22.3l0.25,1.55l0.75,5.45m-3.75,20.15l-2.1,-2.4m-9.3,-9.45l-0.55,-0.5m35.75,-13.2l-1.55,10.75l-3.9,-4.5l0.6,-7.6l4.85,1.35l9,-3.45m-13.65,20.15l-3.25,-2.25l0.9,3.65m-6.35,-4.45l-2.75,6.95m1.45,-11.35l9.2,-3m-14.15,31.05l-1.8,-0.9l1.85,-4.2m3.75,50.45l8.85,-13.05m-25.6,19.6l0,-0.05l-3.45,-15.05l-1.55,14.55m23.9,-31.4l-5.1,-0.15m-49.8,5.4l8.2,3.15l-9.45,3.5l-4.6,-2.3l5.85,-4.35m20.7,28.2l-0.7,-4.3l-0.5,-9.3l1.65,3l0.4,7.15l1.75,3.85m-7,-1.25l-3.1,-4.65l-5,-19.55m18.35,25.05l-0.95,-5.5l-1.75,4.35l0.6,0.9m1.95,0.25l0.15,0m-27.8,-21.55l2.2,18.7l-1.4,7.5m-5.4,-28.5l0,21.25m-24.7,-71.55l0,-5.55l-0.6,-3.15l3.9,1.4l1.7,-0.9m-5.6,-0.5l-1.2,-0.45m4.45,-2.25l0.15,0.65m-9.3,77.75l2.3,2l3.95,-2.4l0.2,2.3l4.45,1.2l2.75,-3.6m-1.25,-103.3l6.05,-1.2m-0.75,-20.05l-2.35,-12.5m88.6,50.95l-3.2,1.7m78.9,-45.9l-7.2,0l-5.1,-2.6l-7.4,1.7l-5.75,5.45l-0.9,12.05l0.2,1.15l0.65,4.2l1.55,9.2l9.45,9.2l6.25,-4.05l7.05,2l3.4,2.4l-2.15,7.2l-5.15,5.15l-3.45,-0.25l-30.4,-2.25l-8.1,-21.2l1.75,-17.1l-4.85,-2.4l4.15,0l3.6,-2.2l3.6,-13.5l0.55,-0.25l7.65,-2.15l7.25,-3.85l9,3.6l14.35,3.7m-7.2,4.8l3.25,1.65m20.35,5.9l-3.95,7.95l-8.95,7.2l-1.6,1.3l-11.65,-5l4.65,-1.4m17.55,-2.1l9.05,-4.25m-0.15,15.25l-15.45,0.7l-1,3.65l-1.4,-8.15m4.55,11.3l3.45,1l-2.95,0.6l-0.5,2.4l0,-4l-2.15,-6.8m48.25,40.65l-23.9,3.6l-14.1,8.3l-2,-3.9l3.6,-4.5l8.2,-18.2l-3.1,-4.15l-10.65,-1.9q-0.9,-2.5 -2.8,-6l9.75,-1.1l-10.1,-2.75l-0.5,-1.65m-34.05,-13.65l6.15,0l9.6,-2.95m7.25,15.45l-5.75,1.85m13.15,-5.45l-2.7,9.85m-81.7,-39.7l13.55,1.45l11.15,13.05l7.75,13.85m8.25,-35.2l-14.7,2.6l-12.45,5.7m40.95,-28.75l1.65,14.2m73.75,59.5l-6.9,-0.6l5.55,2.4m-0.9,7.65l-1.05,4.4l0,2.7m12.8,27.8l2.4,1.45m-11.75,-14.6l-7.25,-2.4l-24.5,5.4l-0.6,3.65l-4.05,-3.45l0,-5.95m62.55,43.1l0,-0.15l-2.1,-13.4l0,3.55l-8.3,3.15l-4.1,0l-0.05,0.1l-6.4,7.5l-3.25,0.5l-3.95,2.7l-0.55,-0.45m-3.15,8.7l-4.9,-5.9l-13.8,5.1l0,5.25l-6.25,-1.8q1.7,-1 3.4,-2.1l1.85,-2.35l-1.6,-6.6l-11.5,-6.2l-0.9,-2.25l1.75,-13.55l3.35,7.4l0.55,6.5l0.95,-3.1l3.75,8.4l23.85,1.3l25.55,-14.55l1.2,-2.4m-26.85,20.8l-0.4,6.05l4.4,5.3l5.7,6.85l-5.45,4l-8.4,0l-14.95,-6.45l0,-5.25m22.4,-12.7l-3.3,2.2l4,11.35m21.2,-5.4l0,-0.15l-8.9,-12l-5.8,0.8m5.5,13.4l0.9,-0.2l8.3,-1.85l0,6.55m-8.3,-25.4l9.15,7.3l5.4,-0.55m-21.75,24.35l0.35,3.05m-29.15,-5.5l2.35,3.95l1.75,0.8l1.6,5.1m-1.6,-5.1l2,0.9m8.85,0.8l-4.4,1.3m5.65,12.95l-1.25,-14.25m7.45,-24.4l13.6,10m-124.7,-79.25l2.45,0.85l-5.25,-1.15l-1.35,-0.7l0.4,-2.2m27.35,0.1l0.35,0.8l-18.05,4.4l-3.45,-1.25m-5.25,-1.15l1.8,0.9l-2.25,5.05m-9.8,-1.3l8.55,-3.55l0.35,-1.8m2.65,12.05l0.25,-1.6l-0.1,-0.25l0.35,-8.6m32.45,5.15l21.6,-5.55l1.15,4.5l0.95,6.5l-4.05,5.95l-10.85,4.1l-3.7,-3.6l-5.1,-11.9l-25.55,-3.65m12.2,18.15l3.9,1l7.25,0l10.55,9.3l0.15,0.25l1.75,1.5l-0.75,6.6l6.65,9.25l15.6,-4.4l13.3,-10.65l3.3,4.15l-0.15,1.1l-0.1,1.35l-4.1,7.4m-35.5,-16.3l0,-0.15l-0.15,-0.1m0.55,4.85l-2.4,5.6m-8.7,-19.75l11,0m-3.7,-3.6l-14.55,3.6m40.6,-27l-1.35,4.6l6.9,8.9l9.4,8.55l2.75,1.4m-3.8,15.4l-10.05,-9.45l0.75,-8.3l-3.95,-5.7l-0.05,0l-9,-4.95m9,4.95l-3.6,9.05l6.85,4.95m-13.4,-23.45l4.4,-0.8m23.9,28.55l2.35,4.4l-4.15,7.35m1.2,-8.1l-0.95,5.65m-43.05,30.45l18.4,8l5.7,-0.85l-1.25,1.75l0,9.25l0,1.25l6.25,13.3l6.85,0l5.4,-7.6l-0.45,-2.45l11.9,20.9l-8.4,8.65m-39.85,-57.55l11.2,8.35l4,0l7.25,0.1l-2.9,4.05m-4.35,-4.15l0,-8.45l-12,-15.6l-7.2,-2.05m37.3,18.3l-3.75,-2l-7.1,9.9m16.55,-12.9l0.05,-0.65l16.1,-6.4l-17.65,3.65m1.55,2.75l-0.3,0.1l0.25,0.55m2.15,22.25l-6.05,3.7l-0.95,-4.85l12.25,-3.3m-10.05,14.65l-1.25,-6.5m-12.35,40.35l0,-13.15l-7.1,-10.85l-9.9,-1.65l-4.75,4.4l-4.7,18.65m40.5,-28.8l-18.5,-6.95m-49.5,23.15l2.25,3.95l3.35,-2.9m0,-0.15l-4.05,-4.15m33.45,-29.15l-9.6,10.25m36.45,-99.4l-2.05,9.55l1.7,-13.4m-42.35,134.85l4.05,-6.25l0,5.65m25.2,13l3,-19.8l2.55,0m25.5,0.2l4.55,-1.85m-32.6,1.65l-19.2,-8.1"/>
   <path id="svg_99" stroke-width="1.25" stroke-linejoin="round" stroke-linecap="round" stroke="#363529" fill="none" d="m-16.75,-42.6l-0.1,3.5l3.15,1l5.15,-1.2l-5.6,-5.75l-2.6,2.45m-66.95,6.05l0.55,-0.95l-2.15,-1.75l-2,1.45l1.05,1.15l2.55,0.1m-27.25,-7.7l-0.7,0.95l1.65,4.3l6.05,2.15l5.3,-1.3l2.65,-4.45l-1.3,-2.15l-1.45,-2.55l-8.1,-2.6l-4.1,5.65m128.5,28.5l0.2,-0.35l4.55,0.2l4.75,2.6l1.2,3.3l-3.5,3.9l-8.05,0.45l-3.6,-1.55l-2.15,1.65l-2.15,-2.8l2,-3.75l1.65,1l3.55,-1.3m1.55,-3.35l-1.55,3.35"/>
   <path id="svg_100" stroke-width="1.25" stroke-linejoin="round" stroke-linecap="round" stroke="#bcbb32" fill="none" d="m47.5,-196.05l1.05,-2.2m0.15,2.95l1.45,-1.6m-10.45,-3.4l0.6,-3.25m-2.8,2.5l0.4,-3.7m-3.5,1.8l0.3,2.9m-33.5,-11l0.5,-1.85"/>
   <path id="svg_101" stroke-width="1.25" stroke-linejoin="round" stroke-linecap="round" stroke="#c7cd41" fill="none" d="m35.4,-200.75l-0.3,-2.95m-1.9,2.8l-0.9,-3.25"/>
   <path id="svg_102" stroke-width="1.25" stroke-linejoin="round" stroke-linecap="round" stroke="#a4a42b" fill="none" d="m40.7,-199.4l0.75,-1.65"/>
   <path id="svg_103" stroke-width="1.25" stroke-linejoin="round" stroke-linecap="round" stroke="#b0af2f" fill="none" d="m3.55,-210.2l0.6,-2.65m0.6,3.25l0.85,-1m127.25,131.2l0.3,-2.35m-4.3,-5.45l1.2,-2.2m-134.9,-124.6l-0.6,-1.65"/>
   <path id="svg_104" stroke-width="1.25" stroke-linejoin="round" stroke-linecap="round" stroke="#b4b330" fill="none" d="m115.7,-132.3l0.95,-0.45m-2.95,8.4l0,-1.4m4.1,3.4l0.6,0.2m-3.15,-0.8l0.35,-0.95m1.55,2.85l1.5,0.9m15.5,41.95l0.65,-1.7m-1,1.8l-0.2,-1.3m-15.25,-53l0.95,-1.3m-4.6,0.35l0,-2"/>
   <path id="svg_105" stroke-width="1.25" stroke-linejoin="round" stroke-linecap="round" stroke="#caca35" fill="none" d="m116,-125.2l-0.1,-1.95m1.25,5.5l1.1,0.15m-0.35,-1.3l0.3,-0.1l1.1,-0.65m-2.5,0l0.65,-1.65m-0.25,-8.5l0.75,-1.55m-1.8,1.4l0.35,-2"/>
   <path id="svg_106" stroke-width="1.25" stroke-linejoin="round" stroke-linecap="round" stroke="#c5c434" fill="none" d="m136.65,-77.8l0.1,-0.45l0.35,-0.45m1.55,2.6l0.7,-1.15"/>
   <path id="svg_107" stroke-width="1.25" stroke-linejoin="round" stroke-linecap="round" stroke="#878723" fill="none" d="m-13.4,-62.45l1.2,-1.5"/>
  </g>
  <g id="sprite0">
   <use id="svg_108" xlink:href="#shape1" width="102.95" height="45"/>
  </g>
  <g id="shape1">
   <path id="svg_109" fill-rule="evenodd" fill-opacity="0" fill="#ff00ff" d="m0,0l102.95,0l0,45l-102.95,0l0,-45"/>
  </g>
 </defs>
 <g>
  <title>background</title>
  <rect fill="none" id="canvas_background" height="241" width="275" y="-1" x="-1"/>
 </g>
 <g>
  <title>Layer 1</title>
  <g id="svg_110">
   <use x="124.050003" y="224.5" id="svg_111" xlink:href="#shape0" width="381" transform="matrix(1,0,0,1,-192.55,-294) " height="381"/>
   <use x="-37.627269" y="-41.722095" xlink:href="#sprite0" width="102.95" transform="matrix(1.8072000000000004,0,0,1.6538,53.10000305175785,126.30000000000001) " id="_mcMask" height="45"/>
  </g>
 </g>
</svg>