<?xml version="1.0" encoding="UTF-8" standalone="no"?>
<!DOCTYPE svg PUBLIC "-//W3C//DTD SVG 1.1//EN" "http://www.w3.org/Graphics/SVG/1.1/DTD/svg11.dtd">
<svg width="100%" height="100%" viewBox="0 0 21 13" version="1.1" xmlns="http://www.w3.org/2000/svg" xmlns:xlink="http://www.w3.org/1999/xlink" xml:space="preserve" xmlns:serif="http://www.serif.com/" style="fill-rule:evenodd;clip-rule:evenodd;stroke-linecap:round;stroke-linejoin:round;">
    <g transform="matrix(1,0,0,1,0.0195109,-0.762071)">
        <g transform="matrix(-0.4,0,0,0.4,10.6498,11.5002)">
            <g id="sprite0">
                <g id="sprite1" transform="matrix(1.127,0.0733,0,0.8159,13.8001,-8.9503)">
                    <g id="shape0">
                        <path d="M8.2,-5.6L8.15,-5.6L8.05,-5.75L8.2,-5.6" style="fill:#294a15;fill-opacity:0.5;"/>
                        <path d="M4.9,-7.45L5.3,-7.3L5.6,-7.2L6.95,-6.5L8,-5.8L8.05,-5.75L8.15,-5.6L8.2,-5.6L8.45,-5.45L8.65,-5.25L7.9,-0.4L2.25,5.95L-5.7,7.1L-6,6.85C-7.6,5.483 -8.567,3.917 -8.9,2.15L-6.8,-2.35L-0.1,-6.95L4.9,-7.45" style="fill:#06c;"/>
                        <path d="M4.9,-7.45L-0.1,-6.95L-6.8,-2.35L-8.9,2.15L-8.95,1.65L-9,0.75C-9,-1.683 -8,-3.75 -6,-5.45L-5.95,-5.45L-5.5,-5.8C-3.6,-7.267 -1.35,-8 1.25,-8L2.6,-7.9L3,-7.85L4.9,-7.45" style="fill:#4eb8fe;"/>
                        <path d="M-5.7,7.1L2.25,5.95L7.9,-0.4L8.65,-5.25C9.983,-4.05 10.833,-2.667 11.2,-1.1L11.4,0.05L11.4,0.75C11.4,3.117 10.417,5.15 8.45,6.85C7.783,7.35 7.1,7.833 6.4,8.3L5.95,8.5L2.85,9.35L1.25,9.45C-1.45,9.417 -3.767,8.633 -5.7,7.1" style="fill:#022d8e;"/>
                        <path d="M8.05,-5.75L8,-5.8L6.95,-6.5L5.6,-7.2L5.3,-7.3L4.9,-7.45L3,-7.85L2.6,-7.9L1.25,-8C-1.35,-8 -3.6,-7.267 -5.5,-5.8M8.65,-5.25L8.45,-5.45L8.2,-5.6L8.05,-5.75M8.65,-5.25C9.983,-4.05 10.833,-2.667 11.2,-1.1L11.4,0.05L11.4,0.75C11.4,3.117 10.417,5.15 8.45,6.85C7.783,7.35 7.1,7.833 6.4,8.3L5.95,8.5L2.85,9.35L1.25,9.45C-1.45,9.417 -3.767,8.633 -5.7,7.1" style="fill:none;fill-rule:nonzero;stroke:#000;stroke-opacity:0.38;stroke-width:0.05px;"/>
                        <path d="M-8.9,2.15C-8.567,3.917 -7.6,5.483 -6,6.85L-5.7,7.1M-8.9,2.15L-8.95,1.65L-9,0.75C-9,-1.683 -8,-3.75 -6,-5.45L-5.95,-5.45L-5.5,-5.8" style="fill:none;fill-rule:nonzero;stroke:#000;stroke-opacity:0.38;stroke-width:0.05px;"/>
                        <path d="M2.9,-6.4L3.35,-6.6L4.4,-5.8L3.8,-5.65L2.9,-6.4M4.15,-6.85L5.7,-6.6L6.6,-5.95L6.55,-5.95L6.75,-5.9L7.9,-5.7L5.95,-5.95L4.15,-6.85M2.25,-6L2.15,-5.2L2.15,-5.1C1.65,-4.9 1.183,-4.633 0.75,-4.3L0.75,-4.45L0.95,-4.9C1.083,-5.2 1.517,-5.567 2.25,-6" style="fill:#eff9ff;"/>
                        <path d="M2.9,-6.4L3.8,-5.65L2.15,-5.1L2.15,-5.2L2.25,-6L2.45,-6.15L2.9,-6.4M4.4,-5.8L3.35,-6.6L4.15,-6.85L5.95,-5.95L5.9,-5.95L4.4,-5.8" style="fill:#6ff;"/>
                        <path d="M2,-7.15L1.3,-7.05L0.65,-7.15C0.483,-7.183 0.4,-7.233 0.4,-7.3L0.7,-7.5L1.4,-7.55L2.05,-7.5L2.3,-7.3L2,-7.15" style="fill:#fff;"/>
                    </g>
                </g>
                <g id="sprite11" serif:id="sprite1" transform="matrix(1.4729,0.2127,-0.1942,1.5479,5.8006,-14.4999)">
                    <g id="shape01" serif:id="shape0">
                        <path d="M8.2,-5.6L8.15,-5.6L8.05,-5.75L8.2,-5.6" style="fill:#294a15;fill-opacity:0.5;"/>
                        <path d="M4.9,-7.45L5.3,-7.3L5.6,-7.2L6.95,-6.5L8,-5.8L8.05,-5.75L8.15,-5.6L8.2,-5.6L8.45,-5.45L8.65,-5.25L7.9,-0.4L2.25,5.95L-5.7,7.1L-6,6.85C-7.6,5.483 -8.567,3.917 -8.9,2.15L-6.8,-2.35L-0.1,-6.95L4.9,-7.45" style="fill:#06c;"/>
                        <path d="M4.9,-7.45L-0.1,-6.95L-6.8,-2.35L-8.9,2.15L-8.95,1.65L-9,0.75C-9,-1.683 -8,-3.75 -6,-5.45L-5.95,-5.45L-5.5,-5.8C-3.6,-7.267 -1.35,-8 1.25,-8L2.6,-7.9L3,-7.85L4.9,-7.45" style="fill:#4eb8fe;"/>
                        <path d="M-5.7,7.1L2.25,5.95L7.9,-0.4L8.65,-5.25C9.983,-4.05 10.833,-2.667 11.2,-1.1L11.4,0.05L11.4,0.75C11.4,3.117 10.417,5.15 8.45,6.85C7.783,7.35 7.1,7.833 6.4,8.3L5.95,8.5L2.85,9.35L1.25,9.45C-1.45,9.417 -3.767,8.633 -5.7,7.1" style="fill:#022d8e;"/>
                        <path d="M8.05,-5.75L8,-5.8L6.95,-6.5L5.6,-7.2L5.3,-7.3L4.9,-7.45L3,-7.85L2.6,-7.9L1.25,-8C-1.35,-8 -3.6,-7.267 -5.5,-5.8M8.65,-5.25L8.45,-5.45L8.2,-5.6L8.05,-5.75M8.65,-5.25C9.983,-4.05 10.833,-2.667 11.2,-1.1L11.4,0.05L11.4,0.75C11.4,3.117 10.417,5.15 8.45,6.85C7.783,7.35 7.1,7.833 6.4,8.3L5.95,8.5L2.85,9.35L1.25,9.45C-1.45,9.417 -3.767,8.633 -5.7,7.1" style="fill:none;fill-rule:nonzero;stroke:#000;stroke-opacity:0.38;stroke-width:0.05px;"/>
                        <path d="M-8.9,2.15C-8.567,3.917 -7.6,5.483 -6,6.85L-5.7,7.1M-8.9,2.15L-8.95,1.65L-9,0.75C-9,-1.683 -8,-3.75 -6,-5.45L-5.95,-5.45L-5.5,-5.8" style="fill:none;fill-rule:nonzero;stroke:#000;stroke-opacity:0.38;stroke-width:0.05px;"/>
                        <path d="M2.9,-6.4L3.35,-6.6L4.4,-5.8L3.8,-5.65L2.9,-6.4M4.15,-6.85L5.7,-6.6L6.6,-5.95L6.55,-5.95L6.75,-5.9L7.9,-5.7L5.95,-5.95L4.15,-6.85M2.25,-6L2.15,-5.2L2.15,-5.1C1.65,-4.9 1.183,-4.633 0.75,-4.3L0.75,-4.45L0.95,-4.9C1.083,-5.2 1.517,-5.567 2.25,-6" style="fill:#eff9ff;"/>
                        <path d="M2.9,-6.4L3.8,-5.65L2.15,-5.1L2.15,-5.2L2.25,-6L2.45,-6.15L2.9,-6.4M4.4,-5.8L3.35,-6.6L4.15,-6.85L5.95,-5.95L5.9,-5.95L4.4,-5.8" style="fill:#6ff;"/>
                        <path d="M2,-7.15L1.3,-7.05L0.65,-7.15C0.483,-7.183 0.4,-7.233 0.4,-7.3L0.7,-7.5L1.4,-7.55L2.05,-7.5L2.3,-7.3L2,-7.15" style="fill:#fff;"/>
                    </g>
                </g>
                <g id="sprite12" serif:id="sprite1" transform="matrix(1.3412,0,0.1886,1.4218,-0.3997,-11.4)">
                    <g id="shape02" serif:id="shape0">
                        <path d="M8.2,-5.6L8.15,-5.6L8.05,-5.75L8.2,-5.6" style="fill:#294a15;fill-opacity:0.5;"/>
                        <path d="M4.9,-7.45L5.3,-7.3L5.6,-7.2L6.95,-6.5L8,-5.8L8.05,-5.75L8.15,-5.6L8.2,-5.6L8.45,-5.45L8.65,-5.25L7.9,-0.4L2.25,5.95L-5.7,7.1L-6,6.85C-7.6,5.483 -8.567,3.917 -8.9,2.15L-6.8,-2.35L-0.1,-6.95L4.9,-7.45" style="fill:#06c;"/>
                        <path d="M4.9,-7.45L-0.1,-6.95L-6.8,-2.35L-8.9,2.15L-8.95,1.65L-9,0.75C-9,-1.683 -8,-3.75 -6,-5.45L-5.95,-5.45L-5.5,-5.8C-3.6,-7.267 -1.35,-8 1.25,-8L2.6,-7.9L3,-7.85L4.9,-7.45" style="fill:#4eb8fe;"/>
                        <path d="M-5.7,7.1L2.25,5.95L7.9,-0.4L8.65,-5.25C9.983,-4.05 10.833,-2.667 11.2,-1.1L11.4,0.05L11.4,0.75C11.4,3.117 10.417,5.15 8.45,6.85C7.783,7.35 7.1,7.833 6.4,8.3L5.95,8.5L2.85,9.35L1.25,9.45C-1.45,9.417 -3.767,8.633 -5.7,7.1" style="fill:#022d8e;"/>
                        <path d="M8.05,-5.75L8,-5.8L6.95,-6.5L5.6,-7.2L5.3,-7.3L4.9,-7.45L3,-7.85L2.6,-7.9L1.25,-8C-1.35,-8 -3.6,-7.267 -5.5,-5.8M8.65,-5.25L8.45,-5.45L8.2,-5.6L8.05,-5.75M8.65,-5.25C9.983,-4.05 10.833,-2.667 11.2,-1.1L11.4,0.05L11.4,0.75C11.4,3.117 10.417,5.15 8.45,6.85C7.783,7.35 7.1,7.833 6.4,8.3L5.95,8.5L2.85,9.35L1.25,9.45C-1.45,9.417 -3.767,8.633 -5.7,7.1" style="fill:none;fill-rule:nonzero;stroke:#000;stroke-opacity:0.38;stroke-width:0.05px;"/>
                        <path d="M-8.9,2.15C-8.567,3.917 -7.6,5.483 -6,6.85L-5.7,7.1M-8.9,2.15L-8.95,1.65L-9,0.75C-9,-1.683 -8,-3.75 -6,-5.45L-5.95,-5.45L-5.5,-5.8" style="fill:none;fill-rule:nonzero;stroke:#000;stroke-opacity:0.38;stroke-width:0.05px;"/>
                        <path d="M2.9,-6.4L3.35,-6.6L4.4,-5.8L3.8,-5.65L2.9,-6.4M4.15,-6.85L5.7,-6.6L6.6,-5.95L6.55,-5.95L6.75,-5.9L7.9,-5.7L5.95,-5.95L4.15,-6.85M2.25,-6L2.15,-5.2L2.15,-5.1C1.65,-4.9 1.183,-4.633 0.75,-4.3L0.75,-4.45L0.95,-4.9C1.083,-5.2 1.517,-5.567 2.25,-6" style="fill:#eff9ff;"/>
                        <path d="M2.9,-6.4L3.8,-5.65L2.15,-5.1L2.15,-5.2L2.25,-6L2.45,-6.15L2.9,-6.4M4.4,-5.8L3.35,-6.6L4.15,-6.85L5.95,-5.95L5.9,-5.95L4.4,-5.8" style="fill:#6ff;"/>
                        <path d="M2,-7.15L1.3,-7.05L0.65,-7.15C0.483,-7.183 0.4,-7.233 0.4,-7.3L0.7,-7.5L1.4,-7.55L2.05,-7.5L2.3,-7.3L2,-7.15" style="fill:#fff;"/>
                    </g>
                </g>
                <g id="sprite2" transform="matrix(0.8956,0.1604,-0.0814,0.8729,-3.85104,-6.79856)">
                    <g id="sprite3" transform="matrix(1.1379,0,-0.0701,1.3994,-17.0501,-1.90016)">
                        <g id="shape1">
                            <path d="M-5.25,0.25L-5.45,-0.15L-5.35,-0.35L-4.85,-0.75C-4.15,-2.517 -3.017,-3.95 -1.45,-5.05L-0.8,-5.5C0.167,-6.033 1.167,-6.2 2.2,-6L3.8,-5.45C4.767,-4.683 5.367,-3.65 5.6,-2.35C5.8,-1.25 5.717,-0.133 5.35,1L5.55,1.6L5.35,2.1L5,2.3L4.75,2.3L5.2,2.35L3.9,2.45L1,2.4L0.25,2.3L-4,1.05L-4.1,1.05L-4.85,0.6L-5.25,0.25M1.65,1.2L-0.5,0.45L-2.8,0.1L-4.7,-0.2L-4.8,-0.05C-3.067,0.95 -1.133,1.483 1,1.55L1.45,1.4L1.65,1.2" style="fill:#c08908;"/>
                            <path d="M-5.25,0.25L-4.85,0.6L-4.1,1.05L-4,1.05L0.25,2.3L1,2.4L3.9,2.45L5.2,2.35C4.6,3.717 3.717,4.75 2.55,5.45C0.817,6.35 -0.967,6.267 -2.8,5.2L-4,4.3L-4.95,2.9C-5.25,2.2 -5.333,1.433 -5.2,0.6L-5.25,0.25M-4.95,0.7L-5,0.65L-5,0.7L-4.9,0.7L-4.85,0.65L-4.95,0.7" style="fill:#b57206;"/>
                            <path d="M1.65,1.2L1.45,1.4L1,1.55C-1.133,1.483 -3.067,0.95 -4.8,-0.05L-4.7,-0.2L-2.8,0.1L-0.5,0.45L1.65,1.2" style="fill:#d6a61e;"/>
                            <path d="M5.2,2.35L4.75,2.3L5,2.3L5.35,2.1L5.55,1.6L5.35,1C5.717,-0.133 5.8,-1.25 5.6,-2.35C5.367,-3.65 4.767,-4.683 3.8,-5.45L2.2,-6C1.167,-6.2 0.167,-6.033 -0.8,-5.5L-1.45,-5.05C-3.017,-3.95 -4.15,-2.517 -4.85,-0.75L-5.35,-0.35L-5.45,-0.15L-5.25,0.25L-4.85,0.6L-4.1,1.05L-4,1.05L0.25,2.3L1,2.4L3.9,2.45L5.2,2.35C4.6,3.717 3.717,4.75 2.55,5.45C0.817,6.35 -0.967,6.267 -2.8,5.2L-4,4.3L-4.95,2.9C-5.25,2.2 -5.333,1.433 -5.2,0.6L-5.25,0.25" style="fill:none;fill-rule:nonzero;stroke:#1d0a00;stroke-opacity:0.4;stroke-width:0.05px;"/>
                        </g>
                    </g>
                    <g id="shape2">
                        <path d="M-14.25,11.75L-14.6,11.65L-15.15,11.55L-15.8,11.4L-16.25,11.3L-15.8,11.35L-14.85,11.55L-14.6,11.6L-14.55,11.6L-14.25,11.65L-14.25,11.75" style="fill:#690e0a;"/>
                        <path d="M-1.75,-16.4L-8.3,-13.1L-13.45,-12.15L-13,-12.6C-11.667,-13.833 -10.067,-14.95 -8.2,-15.95L-4.7,-16.35L-1.75,-16.4M-18.45,-0.15C-18.517,1.217 -18.467,2.35 -18.3,3.25C-18.033,4.95 -17.1,6.433 -15.5,7.7L-15.75,7.7C-18.15,6.133 -19.35,4.883 -19.35,3.95C-19.55,3.15 -19.5,2.433 -19.2,1.8L-18.8,0.55L-18.65,0.3L-18.5,-0.2L-18.45,-0.15" style="fill:#3cc;"/>
                        <path d="M-14.6,11.6L-14.55,11.55L-14.55,11.6L-14.6,11.6" style="fill:#00177b;"/>
                        <path d="M8.6,-1.85L8.3,4.85L0.8,13.45L-1.85,14.05L-10.35,12.6L-5.4,13L0.15,13.05L0.3,12.9L4.1,8.95C5.9,6.917 6.8,5.7 6.8,5.3L6.8,5.25L6.75,5.2L6.75,5.15C6.983,5.017 7.2,4.383 7.4,3.25L8,-0.65C8.1,-1.317 8.3,-1.717 8.6,-1.85" style="fill:#0056c7;"/>
                        <path d="M3,-14.15L3.3,-13.9L1.5,-12.85L-1.55,0.25L-5.6,7.45L-11.75,10.2L-19.1,8.6C-19.7,7.3 -20.133,5.267 -20.4,2.5C-19.1,-0.2 -17.85,-3.25 -16.65,-6.65L-16.05,-8.45L-15.85,-8.95L-15.6,-9.4L-15.45,-9.65L-15.2,-10L-14.65,-10.75L-13.5,-12.1L-13.45,-12.15L-8.3,-13.1L-1.75,-16.4L-1.15,-16.3C0.35,-16 1.683,-15.333 2.85,-14.3L3,-14.15M-18.45,-0.15L-18.5,-0.2L-18.65,0.3L-18.8,0.55L-19.2,1.8C-19.5,2.433 -19.55,3.15 -19.35,3.95C-19.35,4.883 -18.15,6.133 -15.75,7.7L-15.5,7.7C-17.1,6.433 -18.033,4.95 -18.3,3.25C-18.467,2.35 -18.517,1.217 -18.45,-0.15" style="fill:#06c;"/>
                        <path d="M4.25,-12.85C6.783,-10.117 8.283,-7.417 8.75,-4.75L8.6,-1.85C8.3,-1.717 8.1,-1.317 8,-0.65L7.4,3.25C7.2,4.383 6.983,5.017 6.75,5.15L6.75,5.2L6.8,5.25L6.8,5.3C6.8,5.7 5.9,6.917 4.1,8.95L0.3,12.9L0.15,13.05L-5.4,13L-10.35,12.6L-14.25,11.75L-14.25,11.65L-14.55,11.6L-14.55,11.55L-8.6,11.3L-2.65,10.25L3.75,1.45L4.25,-12.85" style="fill:#1c1075;"/>
                        <path d="M-19.1,8.6L-11.75,10.2L-5.6,7.45L-1.55,0.25L1.5,-12.85L3.3,-13.9L3.5,-13.7L3.7,-13.4L4.25,-12.85L3.75,1.45L-2.65,10.25L-8.6,11.3L-14.55,11.55L-14.6,11.6L-14.85,11.55L-15.8,11.35L-16.25,11.3L-16.65,11.05L-18.9,9.45L-19.1,8.6" style="fill:#022d8e;"/>
                        <path d="M3.3,-13.9L3,-14.15M2.85,-14.3C1.683,-15.333 0.35,-16 -1.15,-16.3M-13.45,-12.15L-13.5,-12.1L-14.65,-10.75L-15.2,-10L-15.45,-9.65M-15.6,-9.4L-15.85,-8.95L-16.05,-8.45L-16.65,-6.65C-17.85,-3.25 -19.1,-0.2 -20.4,2.5C-20.133,5.267 -19.7,7.3 -19.1,8.6L-18.9,9.45L-16.65,11.05M3.3,-13.9L3.5,-13.7L3.7,-13.4L4.25,-12.85C6.783,-10.117 8.283,-7.417 8.75,-4.75L8.6,-1.85L8.3,4.85L0.8,13.45L-1.85,14.05L-10.35,12.6L-14.25,11.75L-14.6,11.65L-15.15,11.55L-15.8,11.4L-16.25,11.3M-1.75,-16.4L-4.7,-16.35L-8.2,-15.95C-10.067,-14.95 -11.667,-13.833 -13,-12.6L-13.45,-12.15" style="fill:none;fill-rule:nonzero;stroke:#000;stroke-opacity:0.3;stroke-width:0.05px;"/>
                        <path d="M-8.7,-13.75C-8.4,-13.75 -8.233,-13.65 -8.2,-13.45C-8.133,-13.283 -8.217,-13.117 -8.45,-12.95L-9.4,-12.55L-10.35,-12.45C-10.583,-12.517 -11.267,-12.25 -12.4,-11.65C-13.533,-11.083 -13.483,-11.233 -12.25,-12.1C-11.017,-13 -10.183,-13.5 -9.75,-13.6L-8.7,-13.75" style="fill:#fef2f1;"/>
                        <path d="M-7.4,-13L-7.65,-13.35L-7.45,-13.85L-6.85,-14.15L-6.2,-14.1C-6,-14.033 -5.9,-13.917 -5.9,-13.75C-5.867,-13.55 -5.933,-13.383 -6.1,-13.25L-6.75,-12.95L-7.4,-13" style="fill:#fef2f1;"/>
                        <path d="M2.5,-12.15C2.033,-13.817 0.433,-14.917 -2.3,-15.45L-1.45,-15.75L-1.1,-15.9L-0.35,-15.9C0.117,-15.833 0.717,-15.25 1.45,-14.15L2.5,-12.15" style="fill:#3cc;"/>
                    </g>
                    <g id="sprite4" transform="matrix(1.7912,0,0,1.9707,3.79996,0.94968)">
                        <g id="shape3">
                            <path d="M2.1,-2.65C2.133,-3.25 2.017,-3.767 1.75,-4.2C1.417,-4.6 0.8,-4.933 -0.1,-5.2C-1.033,-5.467 -1.8,-5.333 -2.4,-4.8C-3.067,-4.233 -3.65,-3.367 -4.15,-2.2C-4.383,-1.8 -4.483,-1.217 -4.45,-0.45L-4.4,0.3L-4.15,0.35C-3.85,0.05 -2.85,-0.267 -1.15,-0.6L-4.75,1.05C-4.883,1.25 -4.6,1.333 -3.9,1.3L-1.5,0.65L-1.5,0.7L-1.4,0.6L-0.65,0.45L0.05,0.15L0.45,0C1.083,-0.267 1.683,-0.583 2.25,-0.95L2.2,-0.95L2.4,-1.05C3,-1.317 3.367,-1.567 3.5,-1.8L3.55,-2.05L3.35,-2.5C2.85,-2.4 2.067,-2.033 1,-1.4L2.1,-2.65M-4.95,1.6L-5.3,1.4L-5.3,1.2L-5.1,0.7C-5.367,-0.9 -5.133,-2.433 -4.4,-3.9C-3.667,-5.5 -2.35,-6.333 -0.45,-6.4C0.65,-6.267 1.583,-5.767 2.35,-4.9C3.017,-4.167 3.45,-3.317 3.65,-2.35L4.1,-1.95L4.2,-1.55L4,-1.25L3.8,-1.15L4.15,-1.3L3.2,-0.65C1.2,0.583 -1.083,1.367 -3.65,1.7L-3.7,1.75L-4.5,1.7L-4.95,1.6" style="fill:#ca9e0b;"/>
                            <path d="M2.1,-2.65L1,-1.4C2.067,-2.033 2.85,-2.4 3.35,-2.5L3.55,-2.05L3.5,-1.8C3.367,-1.567 3,-1.317 2.4,-1.05L2.2,-0.95L2.25,-0.95C1.683,-0.583 1.083,-0.267 0.45,0L0.05,0.15L-0.65,0.45L-1.4,0.6L-1.5,0.7L-1.5,0.65L-3.9,1.3C-4.6,1.333 -4.883,1.25 -4.75,1.05L-1.15,-0.6C-2.85,-0.267 -3.85,0.05 -4.15,0.35L-4.4,0.3L-4.45,-0.45C-4.483,-1.217 -4.383,-1.8 -4.15,-2.2C-3.65,-3.367 -3.067,-4.233 -2.4,-4.8C-1.8,-5.333 -1.033,-5.467 -0.1,-5.2C0.8,-4.933 1.417,-4.6 1.75,-4.2C2.017,-3.767 2.133,-3.25 2.1,-2.65M-1.1,-3.8C-1.4,-4.267 -1.683,-4.5 -1.95,-4.5C-2.25,-4.533 -2.567,-4.267 -2.9,-3.7C-3.333,-3.1 -3.533,-2.433 -3.5,-1.7L-3.4,-1.35L-3.05,-1.35L-2.8,-1.45L-1.2,-2.25C-0.9,-2.383 -0.733,-2.65 -0.7,-3.05L-1.1,-3.8M-3.55,0.9L-3.5,1L-1.65,0.3L-3.55,0.9M-0.75,-3.85C-0.75,-3.617 -0.617,-3.483 -0.35,-3.45C0.083,-3.45 0.3,-3.6 0.3,-3.9L-0.05,-4.35C-0.517,-4.383 -0.75,-4.217 -0.75,-3.85" style="fill:#fbdb3b;"/>
                            <path d="M-0.75,-3.85C-0.75,-4.217 -0.517,-4.383 -0.05,-4.35L0.3,-3.9C0.3,-3.6 0.083,-3.45 -0.35,-3.45C-0.617,-3.483 -0.75,-3.617 -0.75,-3.85M-3.55,0.9L-1.65,0.3L-3.5,1L-3.55,0.9" style="fill:#fefe5f;"/>
                            <path d="M-4.95,1.6L-4.5,1.7L-3.7,1.75L-3.65,1.7C-1.083,1.367 1.2,0.583 3.2,-0.65L4.15,-1.3C4.317,-0.033 4.1,1.1 3.5,2.1C2.567,3.5 1.133,4.2 -0.8,4.2C-2.767,4.2 -4.083,3.417 -4.75,1.85L-4.95,1.6M-4.5,1.75L-4.5,1.8L-4.6,1.8L-4.6,1.85L-4.5,1.8C-4.367,1.867 -4.367,1.85 -4.5,1.75" style="fill:#bd8108;"/>
                            <path d="M-1.1,-3.8L-0.7,-3.05C-0.733,-2.65 -0.9,-2.383 -1.2,-2.25L-2.8,-1.45L-3.05,-1.35L-3.4,-1.35L-3.5,-1.7C-3.533,-2.433 -3.333,-3.1 -2.9,-3.7C-2.567,-4.267 -2.25,-4.533 -1.95,-4.5C-1.683,-4.5 -1.4,-4.267 -1.1,-3.8" style="fill:#fefdc5;"/>
                            <path d="M4.15,-1.3L3.8,-1.15L4,-1.25L4.2,-1.55L4.1,-1.95L3.65,-2.35C3.45,-3.317 3.017,-4.167 2.35,-4.9C1.583,-5.767 0.65,-6.267 -0.45,-6.4C-2.35,-6.333 -3.667,-5.5 -4.4,-3.9C-5.133,-2.433 -5.367,-0.9 -5.1,0.7L-5.3,1.2L-5.3,1.4L-4.95,1.6L-4.5,1.7L-3.7,1.75L-3.65,1.7C-1.083,1.367 1.2,0.583 3.2,-0.65L4.15,-1.3C4.317,-0.033 4.1,1.1 3.5,2.1C2.567,3.5 1.133,4.2 -0.8,4.2C-2.767,4.2 -4.083,3.417 -4.75,1.85L-4.95,1.6" style="fill:none;fill-rule:nonzero;stroke:#000;stroke-opacity:0.4;stroke-width:0.05px;"/>
                        </g>
                    </g>
                </g>
            </g>
        </g>
    </g>
</svg>
