<svg width="71" height="72" xmlns="http://www.w3.org/2000/svg" xmlns:xlink="http://www.w3.org/1999/xlink">
 <defs>
  <g transform="matrix(1,0,0,1,192.55,294) " id="shape0">
   <path id="svg_1" stroke-opacity="0" stroke-linejoin="round" stroke-linecap="round" stroke="#ff00ff" fill="none" d="m187.95,-293.5l0,380l-379.95,0l-0.05,0l0,-380l380,0m-95,294.1l-189.95,0"/>
   <path id="svg_2" stroke-opacity="0" stroke-linejoin="round" stroke-linecap="round" stroke="#ff00ff" fill="none" d="m187.95,-293.5l-190,190l190,190m-380,-380l190,190l-189.95,190"/>
   <path id="svg_3" fill-rule="evenodd" fill="url(#gradient0)" d="m-13.15,-54.1l0.35,0.15l-0.45,-0.15l0.1,0m-2,0.2l0.05,-0.05l0.05,0l-0.1,0.05m0.1,0l0.1,0.05l-0.15,-0.05l0.05,0"/>
   <path id="svg_4" fill-rule="evenodd" fill="url(#gradient1)" d="m-15.05,-53.95l0.1,0l0,0.1l-0.1,-0.05l0.1,-0.05l-0.1,0.05l-0.05,0l-0.05,0l0.1,-0.05m0.6,-0.2l1.15,0.05l-0.2,0.05l-0.95,-0.1"/>
   <path id="svg_5" fill-rule="evenodd" fill="url(#gradient2)" d="m-12.8,-53.95l-2.15,0.1l-0.2,-0.05l-0.1,0l-0.45,-0.1l0.55,0.1l0.05,0l0.15,0.05l0,-0.1l0.5,-0.2l0.95,0.1l-1.35,0.1l-0.1,0l0.1,0l1.35,-0.1l0.2,-0.05l0.05,0l0.45,0.15l-2.05,0l2.05,0"/>
   <path id="svg_6" fill-rule="evenodd" fill="url(#gradient3)" d="m-31.95,-101.45q-0.35,-7.95 1.5,-5.65l8.65,11.5l1.75,9.05q2.2,8.5 1,14.5q-0.7,3.25 -2.35,5.8q-4.8,7.1 3.5,10.9l2.8,1.4l-0.05,0.05l-0.55,-0.1q-4.45,-1.05 -7.25,-3.75q-1.3,-1.2 -2.2,-2.75l-3.45,-6.05l-0.6,-0.65l-2.7,-2.55q-3.55,-3.35 -1.1,-8.65q2.4,-5.35 2.05,-11.8q-0.4,-6.5 -1,-11.25m2.3,21l-2.4,4.15q-0.35,1.8 0.45,2.9l7.4,7.8l-3.7,-6.1l-1.5,-3.3q-1.15,-2.1 -0.25,-5.45"/>
   <path id="svg_7" fill-rule="evenodd" fill="#ffffc8" d="m0.2,-116.65l11.65,-5.45q3.2,-1.15 6.35,5.45q1.35,2.8 9.3,5.25q-5.75,-0.95 -11.35,-2.65q-5.8,-1.75 -18.25,-1.2l-4.55,0.15q4.55,-0.55 6.85,-1.55m29.25,5.25q4.95,1.8 3.75,9.65l-0.2,1.3q-1.8,-3.4 -12.55,1.95q-10.7,5.3 -18.3,2.9q-4.75,-2.3 -8.35,-1.65q-3.85,0.75 -5.5,1.95q-1.7,1.2 -3.05,1.55q-3.7,0.15 -3.1,6.85q0.55,7.05 0.5,9.05q0.45,2.9 0.25,5.7q-0.25,2.8 -1.2,5.5q-3.5,7.2 0.4,11.3q-8.3,-3.8 -3.5,-10.9q1.65,-2.55 2.35,-5.8q1.2,-6 -1,-14.5l-1.75,-9.05l-8.65,-11.5q-1.85,-2.3 -1.5,5.65q-1.4,-10.2 0.2,-12.85q1.9,-2.45 12.05,-1.7q-11.25,0.95 -10.15,6.55q3.85,9.45 8.2,10.85l5.65,1.85l0.45,0q1.95,-0.1 3.7,-1.55q1.75,-1.5 4.2,-1.65q2.2,-0.25 4.7,0.5l4,1.45q1.75,0.75 4.3,1.05q2.7,0.2 6.15,-0.9q3.55,-1.05 12.1,-6.25q8.6,-5.2 5.85,-7.3m-3.8,34.25q1.15,-0.8 1.8,2.25q0.6,3 -3.6,3.1l-2.05,-0.2l-1.15,-0.85q0,-0.4 0.35,-0.9q1.35,-1.95 2.45,-2.25q1,-0.35 2.2,-1.15m-55.3,-3.3q-0.9,3.35 0.25,5.45l1.5,3.3l3.7,6.1l-7.4,-7.8q-0.8,-1.1 -0.45,-2.9l2.4,-4.15m20.55,13.8q-7.25,-1 -6.45,-2.95q3.3,-3.05 6.75,-0.15q3.45,2.85 -0.3,3.1"/>
   <path id="svg_8" fill-rule="evenodd" fill="url(#gradient4)" d="m-17.9,-55.35q-3.9,-4.1 -0.4,-11.3q0.95,-2.7 1.2,-5.5q0.2,-2.8 -0.25,-5.7q0.05,-2 -0.5,-9.05q-0.6,-6.7 3.1,-6.85q1.35,-0.35 3.05,-1.55q1.65,-1.2 5.5,-1.95q3.6,-0.65 8.35,1.65q7.6,2.4 18.3,-2.9q10.75,-5.35 12.55,-1.95q-3.1,10.85 -2.1,16.55q0.95,5.6 2.7,10.3q1.75,4.65 -2.6,9.25l-0.7,0.55q-0.4,0.65 -1.5,1.15l-0.05,0.05l-0.2,0.15l-1.2,0.4l-0.15,0.1l-3.2,0.95q-3.35,0.9 -7.6,1.5l-0.05,0l-6.4,3.75l-7.65,-0.55l-0.1,0l-15.35,2.2l-0.1,0l-0.05,0l-1.15,-0.05l-0.5,0.2l-0.1,0l-0.05,0l-2.8,-1.4m43.55,-21.8q-1.2,0.8 -2.2,1.15q-1.1,0.3 -2.45,2.25q-0.35,0.5 -0.35,0.9l1.15,0.85l2.05,0.2q4.2,-0.1 3.6,-3.1q-0.65,-3.05 -1.8,-2.25m-9.25,17.65l2.95,-2.5l-2.95,2.5m-25.5,-7.15q3.75,-0.25 0.3,-3.1q-3.45,-2.9 -6.75,0.15q-0.8,1.95 6.45,2.95m5.65,9.7l5.65,0.65l-5.65,-0.65"/>
   <path id="svg_9" fill-rule="evenodd" fill="url(#gradient5)" d="m0.2,-116.65q-2.3,1 -6.85,1.55l4.55,-0.15q12.45,-0.55 18.25,1.2q5.6,1.7 11.35,2.65q-7.95,-2.45 -9.3,-5.25q-3.15,-6.6 -6.35,-5.45l-11.65,5.45m29.25,5.25q2.75,2.1 -5.85,7.3q-8.55,5.2 -12.1,6.25q-3.45,1.1 -6.15,0.9q-2.55,-0.3 -4.3,-1.05l-4,-1.45q-2.5,-0.75 -4.7,-0.5q-2.45,0.15 -4.2,1.65q-1.75,1.45 -3.7,1.55l-0.45,0l-5.65,-1.85q-4.35,-1.4 -8.2,-10.85q-1.1,-5.6 10.15,-6.55q15.25,0.1 23.2,-4.25q7.9,-4.35 10.1,-3.75q2.2,0.6 5.5,4.65q3.3,4.05 6.65,5.55l3.7,2.4"/>
   <path id="svg_10" stroke-width="0.05" stroke-linejoin="round" stroke-linecap="round" stroke="#ebb601" fill="none" d="m33,-100.45l0.2,-1.3q1.2,-7.85 -3.75,-9.65m-49.15,-4.6q-10.15,-0.75 -12.05,1.7q-1.6,2.65 -0.2,12.85m64.95,1q-3.1,10.85 -2.1,16.55q0.95,5.6 2.7,10.3q1.75,4.65 -2.6,9.25l-0.7,0.55q-0.4,0.65 -1.5,1.15l-0.05,0.05l-0.2,0.15l-1.2,0.4l-0.15,0.1l-3.2,0.95q-3.35,0.9 -7.6,1.5l-0.05,0m-14.15,3.2l-15.35,2.2m-2.55,0.1q-4.45,-1.05 -7.25,-3.75q-1.3,-1.2 -2.2,-2.75l-3.45,-6.05l-0.6,-0.65l-2.7,-2.55q-3.55,-3.35 -1.1,-8.65q2.4,-5.35 2.05,-11.8q-0.4,-6.5 -1,-11.25m12.25,-14.55q15.25,0.1 23.2,-4.25q7.9,-4.35 10.1,-3.75q2.2,0.6 5.5,4.65q3.3,4.05 6.65,5.55l3.7,2.4m-44.5,57.45l0.1,0l0.5,-0.2l1.15,0.05l0.05,0l0.1,0m-1.8,0.25l0,-0.1l-0.1,0.05l-0.05,0l0.15,0.05m-0.2,-0.05l0.1,-0.05m-0.1,0.05l0.05,0m0.15,-0.05l0.1,0l1.35,-0.1m0.7,0.1l-0.45,-0.15m-0.05,0l-0.2,0.05m-1.35,0.1l2.05,0m-2.9,-0.05l0.55,0.1"/>
   <path id="svg_11" stroke-width="0.05" stroke-linejoin="round" stroke-linecap="round" stroke="#f9c000" fill="none" d="m16.35,-59.5l-6.4,3.75l-7.65,-0.55l-0.1,0l-5.65,-0.65m22.8,-5.05l-2.95,2.5"/>
   <path id="svg_12" fill-rule="evenodd" fill="#38a8ad" d="m23.4,-97.5l0.1,0.15q-0.25,0.05 -0.4,0.25l0.15,-0.25l0.15,-0.15m-0.4,0.9l-0.05,0l0,-0.05l0.05,-0.25l0,0.3m-11.6,28.75l-0.15,0l0.15,-0.55l0,0.55m-5.55,-4.25l0.05,0.1l-0.2,0.15l0.15,-0.25m-0.25,0.75l-0.05,0l0.05,-0.25l0,0.25m-16.8,10.35l-0.1,0l0.1,-0.4l0,0.4"/>
   <path id="svg_13" fill-rule="evenodd" fill="#ffffff" d="m23.5,-97.35l0.5,0.1l0.3,0.45l-0.1,0.45q-0.15,0.2 -0.4,0.25l-0.5,-0.1l-0.3,-0.4l0,-0.3l0.1,-0.2q0.15,-0.2 0.4,-0.25m-11.9,28.55l0.8,-0.5l1,0.25l0.5,0.8q0.1,0.5 -0.15,0.9q-0.3,0.4 -0.85,0.5l-0.95,-0.2q-0.45,-0.3 -0.55,-0.8l0,-0.55l0.2,-0.4m-5.7,-3.2l0.25,-0.1l0.5,0.15l0.3,0.4l-0.1,0.5l-0.45,0.25l-0.5,-0.1l-0.3,-0.45l0,-0.25l0.1,-0.25l0.2,-0.15m-7.65,-1.7l0.25,-0.05l0.5,0.1l0.25,0.45q0.05,0.25 -0.05,0.45l-0.45,0.3l-0.5,-0.15l-0.3,-0.4l0,-0.3l0.1,-0.2l0.2,-0.2m-8.65,-20.6l0.8,-0.45l0.95,0.2q0.4,0.3 0.5,0.8q0.1,0.45 -0.15,0.85l-0.8,0.5l-0.95,-0.2q-0.45,-0.3 -0.5,-0.8l0,-0.5l0.15,-0.4m-0.65,32.6l0.6,-0.35l0.7,0.15l0.4,0.6q0.1,0.35 -0.1,0.7l-0.6,0.35l-0.75,-0.15l-0.4,-0.6l0,-0.4l0.15,-0.3"/>
   <path id="svg_14" fill-rule="evenodd" fill="#86cfd9" d="m-1.8,-73.75l0.05,0.05l-0.2,0.2l0.15,-0.25m-0.25,0.75l-0.1,0l0.1,-0.3l0,0.3m-8.5,-20.4l-0.15,0l0.15,-0.5l0,0.5"/>
   <path id="svg_15" fill-rule="evenodd" fill="#ffc800" d="m23.4,-97.5l1.3,-0.7q0.9,-0.1 1.75,0.45q0.8,0.55 1,1.45q0.25,0.9 -0.25,1.6q-0.5,0.7 -1.45,0.85q-0.95,0.1 -1.75,-0.45q-0.8,-0.55 -1,-1.45q-0.15,-0.45 -0.05,-0.85l0.05,0l0.3,0.4l0.5,0.1q0.25,-0.05 0.4,-0.25l0.1,-0.45l-0.3,-0.45l-0.5,-0.1l-0.1,-0.15m-12,29.65q0.1,0.5 0.55,0.8l0.95,0.2q0.55,-0.1 0.85,-0.5q0.25,-0.4 0.15,-0.9l-0.5,-0.8l-1,-0.25l-0.8,0.5l0.3,-0.5q0.95,-1.4 2.8,-1.65q1.85,-0.2 3.5,0.9q1.6,1.05 2,2.85q0.5,1.8 -0.45,3.2q-1,1.4 -2.9,1.65q-1.85,0.25 -3.5,-0.85q-1.6,-1.1 -2,-2.95q-0.25,-0.9 -0.1,-1.7l0.15,0m-5.5,-4.15l-0.05,-0.1q0.5,-0.75 1.5,-0.85q0.95,-0.1 1.8,0.45q0.8,0.55 1.05,1.5q0.25,0.9 -0.25,1.65q-0.55,0.75 -1.5,0.85q-1,0.15 -1.8,-0.4q-0.85,-0.6 -1.05,-1.55l-0.05,-0.9l0.05,0l0.3,0.45l0.5,0.1l0.45,-0.25l0.1,-0.5l-0.3,-0.4l-0.5,-0.15l-0.25,0.1m-16.95,10.3l0.2,-0.35q0.75,-1.05 2.1,-1.2q1.35,-0.15 2.55,0.65q1.15,0.75 1.5,2.05q0.35,1.35 -0.35,2.4q-0.75,1 -2.1,1.2q-1.4,0.15 -2.6,-0.65q-1.15,-0.8 -1.5,-2.15l-0.05,-1.25l0.1,0l0.4,0.6l0.75,0.15l0.6,-0.35q0.2,-0.35 0.1,-0.7l-0.4,-0.6l-0.7,-0.15l-0.6,0.35"/>
   <path id="svg_16" fill-rule="evenodd" fill="#fff24b" d="m-1.8,-73.75q0.5,-0.75 1.5,-0.9q0.95,-0.1 1.8,0.5q0.85,0.55 1.1,1.5q0.2,0.9 -0.3,1.65q-0.5,0.75 -1.5,0.85q-1,0.15 -1.85,-0.4q-0.85,-0.6 -1.05,-1.55l-0.05,-0.9l0.1,0l0.3,0.4l0.5,0.15l0.45,-0.3q0.1,-0.2 0.05,-0.45l-0.25,-0.45l-0.5,-0.1l-0.25,0.05l-0.05,-0.05m-8.75,-19.65q0.05,0.5 0.5,0.8l0.95,0.2l0.8,-0.5q0.25,-0.4 0.15,-0.85q-0.1,-0.5 -0.5,-0.8l-0.95,-0.2l-0.8,0.45l0.3,-0.45q0.9,-1.35 2.7,-1.6q1.8,-0.2 3.35,0.85q1.5,1.05 1.95,2.7q0.45,1.75 -0.5,3.1q-0.95,1.35 -2.75,1.55q-1.8,0.25 -3.35,-0.8q-1.5,-1.05 -1.9,-2.8q-0.25,-0.85 -0.1,-1.65l0.15,0"/>
  </g>
  <g transform="matrix(1,0,0,1,4.2,6.95) " id="sprite0">
   <use id="svg_17" xlink:href="#shape1" width="6.95" transform="matrix(1,0,0,1,-4.2,-6.95) " height="11.6"/>
  </g>
  <g transform="matrix(1,0,0,1,4.2,6.95) " id="shape1">
   <path id="svg_18" fill-rule="evenodd" fill="#ffffff" d="m-3.25,2.2l-0.3,-0.75q-0.85,-2.15 -0.6,-4.4q0.2,-2.3 1.4,-3.35q1.15,-1.1 2.55,-0.3q1.4,0.7 2.3,2.85l0.05,0.25q0,3.5 -1.8,5.3q-1.75,1.75 -3.6,0.4"/>
   <path id="svg_19" fill-rule="evenodd" fill="#f2e7a7" d="m2.15,-3.5q0.75,2 0.55,4.15q-0.25,2.25 -1.45,3.35q-1.15,1.05 -2.55,0.35q-1.15,-0.65 -1.95,-2.15q1.85,1.35 3.6,-0.4q1.8,-1.8 1.8,-5.3"/>
   <path id="svg_20" stroke-width="0.05" stroke-linejoin="round" stroke-linecap="round" stroke="#fec849" fill="none" d="m-3.25,2.2l-0.3,-0.75q-0.85,-2.15 -0.6,-4.4q0.2,-2.3 1.4,-3.35q1.15,-1.1 2.55,-0.3q1.4,0.7 2.3,2.85l0.05,0.25q0.75,2 0.55,4.15q-0.25,2.25 -1.45,3.35q-1.15,1.05 -2.55,0.35q-1.15,-0.65 -1.95,-2.15z"/>
   <path id="svg_21" fill-rule="evenodd" fill="#000000" d="m0.4,-1.15q-0.1,0.35 -0.35,0.4l-0.55,-0.4l-0.25,-0.75l0.05,-0.8q0.15,-0.3 0.45,-0.3l0.45,0.3l0.3,0.8l-0.1,0.75"/>
  </g>
  <g transform="matrix(1,0,0,1,28.9,115.4) " id="shape2">
   <path id="svg_22" fill-rule="evenodd" fill="#38a8ad" d="m-28.8,-94.3l-0.05,0l0.05,-0.2l0,0.2"/>
   <path id="svg_23" fill-rule="evenodd" fill="#ffffff" d="m-28.45,-103.35q0.3,-0.4 0.8,-0.45l0.95,0.2l0.5,0.75q0.1,0.5 -0.2,0.9q-0.3,0.4 -0.75,0.45l-0.95,-0.2l-0.5,-0.75l0,-0.5l0.15,-0.4m1.3,23.9l0.85,-0.5l1,0.2q0.4,0.3 0.5,0.85q0.1,0.5 -0.15,0.9q-0.3,0.4 -0.85,0.5l-1,-0.2q-0.45,-0.3 -0.5,-0.8l0,-0.55l0.15,-0.4m-1.55,-15.25q0.1,-0.2 0.35,-0.2l0.45,0.1l0.25,0.35l-0.1,0.4l-0.35,0.2l-0.45,-0.1l-0.25,-0.35l0,-0.2l0.1,-0.2"/>
   <path id="svg_24" fill-rule="evenodd" fill-opacity="0.6" fill="#ffc300" d="m-28.6,-102.95l0,0.5l0.5,0.75l0.95,0.2q0.45,-0.05 0.75,-0.45q0.3,-0.4 0.2,-0.9l-0.5,-0.75l-0.95,-0.2q-0.5,0.05 -0.8,0.45l0.3,-0.45q0.95,-1.35 2.7,-1.6q1.8,-0.2 3.3,0.85q1.55,1 1.95,2.7q0.45,1.75 -0.45,3.1q-0.95,1.35 -2.75,1.55q-1.8,0.25 -3.35,-0.8q-1.5,-1.05 -1.9,-2.8q-0.25,-0.9 -0.1,-1.65l0.15,-0.5m1.45,23.5l0.3,-0.5q1,-1.45 2.85,-1.7q1.85,-0.2 3.5,0.9q1.6,1.1 2.05,2.85q0.5,1.85 -0.5,3.25q-1,1.45 -2.85,1.65q-1.9,0.25 -3.55,-0.85q-1.6,-1.1 -2.05,-2.95q-0.25,-0.9 -0.05,-1.75l0.15,-0.5l0,0.55q0.05,0.5 0.5,0.8l1,0.2q0.55,-0.1 0.85,-0.5q0.25,-0.4 0.15,-0.9q-0.1,-0.55 -0.5,-0.85l-1,-0.2l-0.85,0.5m-1.55,-15.25l0.15,-0.2l1.25,-0.75q0.8,-0.1 1.5,0.4q0.7,0.45 0.9,1.25q0.2,0.8 -0.2,1.4q-0.45,0.65 -1.25,0.75q-0.85,0.1 -1.55,-0.4q-0.75,-0.45 -0.9,-1.25l-0.05,-0.8l0.05,0l0.25,0.35l0.45,0.1l0.35,-0.2l0.1,-0.4l-0.25,-0.35l-0.45,-0.1q-0.25,0 -0.35,0.2"/>
   <path id="svg_25" fill-rule="evenodd" fill="#86cfd9" d="m-2.15,-112.6l0,-0.05l0.05,-0.25l0,0.3l-0.05,0"/>
   <path id="svg_26" fill-rule="evenodd" fill="#ffffff" d="m5.25,-111.75q0.5,-0.7 1.35,-0.8l1.6,0.35q0.7,0.5 0.9,1.35q0.15,0.85 -0.3,1.5q-0.5,0.7 -1.35,0.85q-0.9,0.15 -1.65,-0.35q-0.7,-0.5 -0.85,-1.35q-0.15,-0.45 0,-0.85l0.3,-0.7m-7.35,-1.15l0.1,-0.2l0.4,-0.25l0.5,0.15l0.25,0.4q0.05,0.2 -0.05,0.45l-0.45,0.25l-0.5,-0.1l-0.25,-0.4l0,-0.3m-18.9,1.25l0.15,-0.35l0.7,-0.45l0.85,0.2l0.45,0.7q0.1,0.45 -0.15,0.8q-0.25,0.35 -0.7,0.45l-0.85,-0.2q-0.4,-0.25 -0.45,-0.7l0,-0.45"/>
   <path id="svg_27" fill-rule="evenodd" fill="#ffffc1" d="m-2,-113.1l0.15,-0.25q0.5,-0.7 1.45,-0.85q0.9,-0.1 1.75,0.5q0.8,0.5 1,1.4q0.25,0.9 -0.25,1.65q-0.5,0.7 -1.45,0.8q-0.95,0.15 -1.75,-0.4q-0.85,-0.55 -1.05,-1.5l0,-0.85l0.05,0l0.25,0.4l0.5,0.1l0.45,-0.25q0.1,-0.25 0.05,-0.45l-0.25,-0.4l-0.5,-0.15l-0.4,0.25m-18.85,1.1l0.25,-0.45q0.85,-1.2 2.45,-1.45q1.65,-0.15 3.05,0.8q1.35,0.9 1.75,2.45q0.4,1.55 -0.45,2.8q-0.85,1.2 -2.5,1.4q-1.6,0.2 -3,-0.7q-1.4,-0.95 -1.75,-2.55q-0.25,-0.8 -0.1,-1.5l0.15,-0.45l0,0.45q0.05,0.45 0.45,0.7l0.85,0.2q0.45,-0.1 0.7,-0.45q0.25,-0.35 0.15,-0.8l-0.45,-0.7l-0.85,-0.2l-0.7,0.45"/>
   <path id="svg_28" fill-rule="evenodd" fill-opacity="0.6" fill="#ffd447" d="m5.25,-111.75l0.5,-0.8q1.6,-2.35 4.65,-2.8q3.1,-0.3 5.75,1.5q5.6,6.9 -1.95,12.7l-0.25,0q-3.1,0.45 -5.8,-1.35q-2.6,-1.8 -3.3,-4.8q-0.45,-1.55 -0.15,-2.9l0.25,-0.85q-0.15,0.4 0,0.85q0.15,0.85 0.85,1.35q0.75,0.5 1.65,0.35q0.85,-0.15 1.35,-0.85q0.45,-0.65 0.3,-1.5q-0.2,-0.85 -0.9,-1.35l-1.6,-0.35q-0.85,0.1 -1.35,0.8"/>
   <path id="svg_29" fill-rule="evenodd" fill-opacity="0.6" fill="#e6bf40" d="m14.2,-101.15q7.55,-5.8 1.95,-12.7q2.65,1.8 3.4,4.7q0.75,3 -0.85,5.35q-1.6,2.25 -4.5,2.65"/>
  </g>
  <g id="sprite1">
   <use id="svg_30" xlink:href="#shape3" width="102.95" height="45"/>
  </g>
  <g id="shape3">
   <path id="svg_31" fill-rule="evenodd" fill-opacity="0" fill="#ff00ff" d="m0,0l102.95,0l0,45l-102.95,0l0,-45"/>
  </g>
  <linearGradient y2="-207.504987" y1="19.90495" x2="-4.626419" x1="-8.182096" spreadMethod="pad" id="gradient0">
   <stop stop-opacity="0.901961" stop-color="#018bad" offset="0"/>
   <stop stop-opacity="0.501961" stop-color="#ebf9fa" offset="1"/>
  </linearGradient>
  <linearGradient y2="-112.445522" y1="-3.219958" x2="19.857434" x1="0.196626" spreadMethod="pad" id="gradient1">
   <stop stop-opacity="0.8" stop-color="#acdef0" offset="0"/>
   <stop stop-opacity="0.501961" stop-color="#ebf9fa" offset="1"/>
  </linearGradient>
  <linearGradient y2="-78.345333" y1="-8.987101" x2="9.276112" x1="1.310097" spreadMethod="pad" id="gradient2">
   <stop stop-opacity="0.8" stop-color="#229ab7" offset="0"/>
   <stop stop-opacity="0.501961" stop-color="#7cd8dc" offset="1"/>
  </linearGradient>
  <linearGradient y2="0.976972" y1="0.177843" x2="0.631115" x1="0.189017" spreadMethod="pad" id="gradient3">
   <stop stop-color="#ffff52" offset="0"/>
   <stop stop-color="#ffe300" offset="1"/>
  </linearGradient>
  <linearGradient y2="0.067221" y1="0.899763" x2="0.880865" x1="0.120122" spreadMethod="pad" id="gradient4">
   <stop stop-opacity="0.65098" stop-color="#ffffba" offset="0"/>
   <stop stop-opacity="0.701961" stop-color="#ffff52" offset="0.321569"/>
   <stop stop-color="#ffe300" offset="1"/>
  </linearGradient>
  <linearGradient y2="0.119836" y1="0.833416" x2="0.772488" x1="0.259672" spreadMethod="pad" id="gradient5">
   <stop stop-opacity="0.65098" stop-color="#ffffd5" offset="0"/>
   <stop stop-opacity="0.701961" stop-color="#ffff52" offset="0.478431"/>
   <stop stop-color="#ffe300" offset="0.968627"/>
  </linearGradient>
 </defs>
 <g>
  <title>background</title>
  <rect fill="none" id="canvas_background" height="74" width="73" y="-1" x="-1"/>
 </g>
 <g>
  <title>Layer 1</title>
  <g id="svg_32">
   <use x="35.251526" y="124.891589" id="svg_33" xlink:href="#shape0" width="381" transform="matrix(1,0,0,1,-192.55,-294) " height="381"/>
   <use x="45.476706" y="31.807794" id="svg_34" xlink:href="#sprite0" width="6.95" transform="matrix(-0.2372,2.8151,1.4474,-0.0984,4.3867,-92.0394) " height="11.6"/>
   <use x="0" y="0" id="svg_35" xlink:href="#sprite0" width="6.95" transform="matrix(-0.25649999999999956,3.0430000000000015,1.6676000000000009,0.027900000000000015,22.78882561068539,31.66698910512919) " height="11.6"/>
   <use x="35.251526" y="124.891589" id="svg_36" xlink:href="#shape2" width="48.7" transform="matrix(1,0,0,1,-28.9,-115.4) " height="42.45"/>
   <use x="-86.763212" y="-101.952117" xlink:href="#sprite1" width="102.95" transform="matrix(1.8072000000000004,0,0,1.6538,96.00000305175784,166.6) " id="_mcMask" height="45"/>
  </g>
 </g>
</svg>