<svg width="101" height="102" xmlns="http://www.w3.org/2000/svg" xmlns:xlink="http://www.w3.org/1999/xlink">
 <defs>
  <g transform="matrix(1,0,0,1,192.55,294) " id="shape0">
   <path id="svg_1" stroke-opacity="0" stroke-linejoin="round" stroke-linecap="round" stroke="#ff00ff" fill="none" d="m187.95,-293.5l0,380l-379.95,0l-0.05,0l0,-380l380,0m-95,294.1l-189.95,0"/>
   <path id="svg_2" stroke-opacity="0" stroke-linejoin="round" stroke-linecap="round" stroke="#ff00ff" fill="none" d="m187.95,-293.5l-190,190l190,190m-380,-380l190,190l-189.95,190"/>
   <path id="svg_3" fill-rule="evenodd" fill="#ffffc8" d="m4.65,-134.3q-17.75,-0.8 -26,1.75q-8.05,2.4 -16.15,3.75q11.3,-3.5 13.2,-7.5q4.5,-9.4 9.1,-7.75l16.6,7.75q3.25,1.45 9.8,2.2l-6.55,-0.2m-44.95,5.5q-3.95,3.05 8.35,10.45q12.15,7.35 17.25,8.9q4.9,1.5 8.75,1.25q3.6,-0.4 6.1,-1.45l5.75,-2.1q3.55,-1.1 6.7,-0.7q3.45,0.2 5.95,2.3q2.5,2.1 5.3,2.25l0.65,0l8.05,-2.65q6.15,-2 11.7,-15.5q1.55,-7.95 -14.45,-9.3q14.45,-1.05 17.15,2.4q2.25,3.85 0.25,18.3q0.5,-11.3 -2.1,-8.05l-12.35,16.4l-2.5,12.95q-3.1,12.1 -1.4,20.65q0.95,4.7 3.35,8.3q6.8,10.1 -5,15.55q5.5,-5.9 0.55,-16.15q-1.4,-3.85 -1.7,-7.85q-0.35,-3.95 0.4,-8.1q-0.1,-2.85 0.65,-12.9q0.85,-9.6 -4.4,-9.75q-1.95,-0.5 -4.3,-2.2q-2.45,-1.75 -7.9,-2.8q-5.15,-0.95 -11.85,2.3q-10.85,3.45 -26.1,-4.1q-15.35,-7.6 -17.95,-2.8l-0.3,-1.8q-1.7,-11.25 5.4,-13.8m84.25,44.15l3.4,5.9q0.5,2.55 -0.65,4.15l-10.5,11.15q3.4,-5.1 5.3,-8.7q1.45,-2.85 2.1,-4.75q1.6,-2.95 0.35,-7.75m-29.3,19.7q-5.35,-0.4 -0.4,-4.5q4.9,-4.1 9.6,0.25q1.15,2.75 -9.2,4.25m-49.55,-15q1.65,1.15 3.15,1.6q1.5,0.45 3.45,3.25q0.5,0.75 0.5,1.3l-1.6,1.2l-2.95,0.25q-6,-0.1 -5.15,-4.4q0.9,-4.3 2.6,-3.2"/>
   <path id="svg_4" fill-rule="evenodd" fill="url(#gradient0)" d="m29.8,-135.35q16,1.35 14.45,9.3q-5.55,13.5 -11.7,15.5l-8.05,2.65l-0.65,0q-2.8,-0.15 -5.3,-2.25q-2.5,-2.1 -5.95,-2.3q-3.15,-0.4 -6.7,0.7l-5.75,2.1q-2.5,1.05 -6.1,1.45q-3.85,0.25 -8.75,-1.25q-5.1,-1.55 -17.25,-8.9q-12.3,-7.4 -8.35,-10.45l5.3,-3.4q4.7,-2.1 9.45,-7.9q4.7,-5.8 7.8,-6.65q3.15,-0.85 14.45,5.35q11.3,6.2 33.1,6.05m-25.15,1.05l6.55,0.2q-6.55,-0.75 -9.8,-2.2l-16.6,-7.75q-4.6,-1.65 -9.1,7.75q-1.9,4 -13.2,7.5q8.1,-1.35 16.15,-3.75q8.25,-2.55 26,-1.75"/>
   <path id="svg_5" fill-rule="evenodd" fill="url(#gradient1)" d="m-45.4,-113.2q2.6,-4.8 17.95,2.8q15.25,7.55 26.1,4.1q6.7,-3.25 11.85,-2.3q5.45,1.05 7.9,2.8q2.35,1.7 4.3,2.2q5.25,0.15 4.4,9.75q-0.75,10.05 -0.65,12.9q-0.75,4.15 -0.4,8.1q0.3,4 1.7,7.85q4.95,10.25 -0.55,16.15l-3.95,1.95l-0.1,0.05l-0.15,0q-0.05,-0.4 -0.7,-0.35l-1.65,0.1l-0.05,0l-0.15,0q-11.55,-1.3 -21.9,-3.15l-0.15,0l-10.9,0.8l-9.15,-5.35l-0.05,0q-6.05,-0.85 -10.8,-2.1q-2.5,-0.65 -4.6,-1.4l-0.25,-0.1l-1.7,-0.6l-0.3,-0.25l-0.05,0q-1.6,-0.75 -2.1,-1.7l-1,-0.8q-6.25,-6.55 -3.75,-13.15q2.5,-6.65 3.9,-14.7q1.35,-8.1 -3.05,-23.6m60.05,48.25q10.35,-1.5 9.2,-4.25q-4.7,-4.35 -9.6,-0.25q-4.95,4.1 0.4,4.5m-49.55,-15q-1.7,-1.1 -2.6,3.2q-0.85,4.3 5.15,4.4l2.95,-0.25l1.6,-1.2q0,-0.55 -0.5,-1.3q-1.95,-2.8 -3.45,-3.25q-1.5,-0.45 -3.15,-1.6m41.5,28.75l-8.05,0.95l8.05,-0.95m-28.3,-3.6l-4.25,-3.6l4.25,3.6"/>
   <path id="svg_6" fill-rule="evenodd" fill="url(#gradient2)" d="m27.2,-48.85q11.8,-5.45 5,-15.55q-2.4,-3.6 -3.35,-8.3q-1.7,-8.55 1.4,-20.65l2.5,-12.95l12.35,-16.4q2.6,-3.25 2.1,8.05q-0.9,6.8 -1.35,16.05q-0.55,9.25 2.9,16.85q3.45,7.6 -1.55,12.3l-3.85,3.65l-0.9,0.95q0.3,-0.1 -4.9,8.6q-1.35,2.25 -3.15,3.95q-4,3.8 -10.3,5.35l-0.8,0.15l-0.05,-0.1l3.95,-1.95m16.75,-35.8q1.25,4.8 -0.35,7.75q-0.65,1.9 -2.1,4.75q-1.9,3.6 -5.3,8.7l10.5,-11.15q1.15,-1.6 0.65,-4.15l-3.4,-5.9"/>
   <path id="svg_7" fill-rule="evenodd" fill="url(#gradient3)" d="m23.25,-46.8l0.05,0l-0.3,0.05l0.25,-0.05m-3.35,-0.05l2.95,0l0.15,0l-0.15,0l-2.95,0l0.7,-0.25l0.05,0l0.25,0.05l1.4,-0.15q0.65,-0.05 0.7,0.35l0,0.1l-3.1,-0.1m2.95,0l-1.95,-0.2l1.95,0.2m1.25,-0.1l-0.65,0.15l-0.15,0l0.8,-0.15"/>
   <path id="svg_8" fill-rule="evenodd" fill="url(#gradient4)" d="m23.3,-46.8l-0.05,0l-0.15,0l-0.1,-0.05l0.1,0.05l-0.1,0.05l0,-0.1l0.15,0l0.15,0.05m-1,-0.4l-1.4,0.15l-0.25,-0.05l1.65,-0.1"/>
   <path id="svg_9" fill-rule="evenodd" fill="url(#gradient5)" d="m23.25,-46.8l-0.25,0.05l0.1,-0.05l0.15,0m0.05,0l-0.15,-0.05l0.1,-0.05l0.05,0.1m-2.7,-0.3l-0.7,0.25l0.55,-0.25l0.15,0"/>
   <path id="svg_10" stroke-width="0.05" stroke-linejoin="round" stroke-linecap="round" stroke="#ebb601" fill="none" d="m29.8,-135.35q-21.8,0.15 -33.1,-6.05q-11.3,-6.2 -14.45,-5.35q-3.1,0.85 -7.8,6.65q-4.75,5.8 -9.45,7.9l-5.3,3.4q-7.1,2.55 -5.4,13.8l0.3,1.8m92.6,-1.45q2,-14.45 -0.25,-18.3q-2.7,-3.45 -17.15,-2.4m-5.7,88.4q6.3,-1.55 10.3,-5.35q1.8,-1.7 3.15,-3.95q5.2,-8.7 4.9,-8.6l0.9,-0.95l3.85,-3.65q5,-4.7 1.55,-12.3q-3.45,-7.6 -2.9,-16.85q0.45,-9.25 1.35,-16.05m-23.9,67.85l-0.05,0l-0.25,0.05l0,-0.1q-0.05,-0.4 -0.7,-0.35l-1.65,0.1l0.25,0.05l1.95,0.2l-2.95,0m3.4,0.05l-0.15,-0.05l-0.15,0l0.1,0.05l0.15,0m-0.25,-0.05l-0.15,0m1.25,-0.1l-0.8,0.15m-2.65,-0.3l-0.05,0l-0.7,0.25m0.55,-0.25q-11.55,-1.3 -21.9,-3.15m-20.2,-4.55l-0.05,0q-6.05,-0.85 -10.8,-2.1q-2.5,-0.65 -4.6,-1.4l-0.25,-0.1l-1.7,-0.6l-0.3,-0.25l-0.05,0q-1.6,-0.75 -2.1,-1.7l-1,-0.8q-6.25,-6.55 -3.75,-13.15q2.5,-6.65 3.9,-14.7q1.35,-8.1 -3.05,-23.6m66,66.1l-0.15,0"/>
   <path id="svg_11" stroke-width="0.05" stroke-linejoin="round" stroke-linecap="round" stroke="#f9c000" fill="none" d="m-1.45,-50.25l-0.15,0l-10.9,0.8l-9.15,-5.35m-4.3,-3.6l4.25,3.6m20.25,4.55l8.05,-0.95"/>
   <path id="svg_12" fill-rule="evenodd" fill="#38a8ad" d="m-31.7,-108.95l-0.15,0.2l0.55,0.35l-0.2,-0.35l-0.2,-0.2m0.55,1.25l0.1,0l0,-0.05l-0.1,-0.35l0,0.4m16.75,41l-0.2,-0.8q0.15,0.4 0,0.8l0.2,0m8.15,-5l-0.1,-0.35l0,0.35l0.1,0m-0.25,-0.7l-0.2,-0.35l-0.05,0.15l0.25,0.2m24.1,15.45l0.15,0l-0.15,-0.55l0,0.55"/>
   <path id="svg_13" fill-rule="evenodd" fill="#ffffff" d="m-31.85,-108.75l-0.7,0.15l-0.45,0.65l0.15,0.6l0.55,0.4l0.75,-0.15q0.35,-0.25 0.4,-0.6l0,-0.4l-0.15,-0.3l-0.55,-0.35m17.25,41.25l-0.3,-0.55q-0.35,-0.55 -1.15,-0.7q-0.7,-0.15 -1.4,0.35q-0.6,0.4 -0.7,1.15q-0.15,0.7 0.2,1.25q0.4,0.6 1.2,0.75q0.7,0.1 1.35,-0.3q0.65,-0.45 0.8,-1.15q0.15,-0.4 0,-0.8m8.25,-4.2l0,-0.35l-0.15,-0.35l-0.25,-0.2l-0.35,-0.15l-0.75,0.2l-0.4,0.6q-0.1,0.35 0.15,0.7l0.6,0.35l0.75,-0.15l0.4,-0.65m10.5,-3.35l-0.35,-0.05l-0.7,0.15l-0.4,0.65l0.1,0.6q0.3,0.4 0.65,0.45l0.7,-0.2l0.4,-0.6l0,-0.4l-0.1,-0.3l-0.3,-0.3m12.35,-29.35l-1.15,-0.65q-0.7,-0.15 -1.35,0.3q-0.6,0.4 -0.75,1.15q-0.1,0.6 0.25,1.2q0.4,0.55 1.15,0.7q0.75,0.05 1.35,-0.3q0.6,-0.4 0.7,-1.15l0,-0.7l-0.2,-0.55m0.9,46.45q-0.3,-0.4 -0.85,-0.45l-1,0.2q-0.45,0.35 -0.55,0.85q-0.15,0.5 0.1,1q0.4,0.4 0.9,0.5l1.05,-0.2l0.55,-0.9l0,-0.55l-0.2,-0.45"/>
   <path id="svg_14" fill-rule="evenodd" fill="#86cfd9" d="m4.2,-75.1l-0.05,0.05l0.3,0.3l-0.25,-0.35m0.35,1.05l0.15,0l-0.15,-0.4l0,0.4m12.15,-29.1l0.2,0l-0.2,-0.7l0,0.7"/>
   <path id="svg_15" fill-rule="evenodd" fill="#ffc800" d="m-31.7,-108.95q-0.65,-0.9 -1.85,-1q-1.3,-0.15 -2.5,0.6q-1.15,0.8 -1.45,2.1q-0.35,1.25 0.35,2.25q0.75,1 2.1,1.25q1.35,0.15 2.5,-0.65q1.1,-0.8 1.4,-2.1q0.2,-0.6 0.1,-1.2l-0.1,0q-0.05,0.35 -0.4,0.6l-0.75,0.15l-0.55,-0.4l-0.15,-0.6l0.45,-0.65l0.7,-0.15l0.15,-0.2m16.8,40.9l-0.4,-0.7q-1.35,-2 -4,-2.35q-2.65,-0.3 -5,1.25q-2.3,1.5 -2.85,4.1q-0.7,2.55 0.65,4.55q1.4,2 4.1,2.35q2.65,0.35 5,-1.2q2.3,-1.6 2.85,-4.2q0.35,-1.3 0.15,-2.45l-0.2,0q-0.15,0.7 -0.8,1.15q-0.65,0.4 -1.35,0.3q-0.8,-0.15 -1.2,-0.75q-0.35,-0.55 -0.2,-1.25q0.1,-0.75 0.7,-1.15q0.7,-0.5 1.4,-0.35q0.8,0.15 1.15,0.7m8.65,-3.65l-0.1,0l-0.4,0.65l-0.75,0.15l-0.6,-0.35q-0.25,-0.35 -0.15,-0.7l0.4,-0.6l0.75,-0.2l0.35,0.15l0.05,-0.15q-0.7,-1.05 -2.15,-1.2q-1.35,-0.15 -2.55,0.65q-1.15,0.75 -1.5,2.1q-0.35,1.3 0.35,2.35q0.8,1.1 2.15,1.25q1.45,0.2 2.55,-0.6q1.25,-0.85 1.5,-2.2q0.25,-0.65 0.1,-1.3m23.65,13.75l-0.3,-0.45q-1.05,-1.5 -2.95,-1.75q-1.95,-0.2 -3.65,0.95q-1.65,1.05 -2.15,2.9q-0.5,1.95 0.5,3.45q1.05,1.4 3,1.7q2,0.2 3.7,-0.95q1.65,-1.1 2.15,-3.05l0.05,-1.8l-0.15,0l-0.55,0.9l-1.05,0.2q-0.5,-0.1 -0.9,-0.5q-0.25,-0.5 -0.1,-1q0.1,-0.5 0.55,-0.85l1,-0.2q0.55,0.05 0.85,0.45"/>
   <path id="svg_16" fill-rule="evenodd" fill="#fff24b" d="m4.2,-75.1q-0.7,-1.1 -2.1,-1.3q-1.4,-0.15 -2.6,0.7q-1.2,0.8 -1.55,2.15q-0.3,1.3 0.4,2.35q0.75,1.1 2.15,1.25q1.45,0.2 2.65,-0.6q1.2,-0.85 1.5,-2.2l0.05,-1.3l-0.15,0l-0.4,0.6l-0.7,0.2q-0.35,-0.05 -0.65,-0.45l-0.1,-0.6l0.4,-0.65l0.7,-0.15l0.35,0.05l0.05,-0.05m12.3,-29.3l-0.45,-0.65q-1.3,-1.9 -3.85,-2.3q-2.55,-0.25 -4.8,1.25q-2.1,1.5 -2.75,3.85q-0.65,2.5 0.7,4.4q1.35,1.95 3.95,2.2q2.55,0.35 4.75,-1.15q2.15,-1.5 2.7,-3.95q0.35,-1.25 0.15,-2.4l-0.2,0q-0.1,0.75 -0.7,1.15q-0.6,0.35 -1.35,0.3q-0.75,-0.15 -1.15,-0.7q-0.35,-0.6 -0.25,-1.2q0.15,-0.75 0.75,-1.15q0.65,-0.45 1.35,-0.3l1.15,0.65"/>
   <path id="svg_17" fill-rule="evenodd" fill="#38a8ad" d="m42.7,-104.4l0.1,0l-0.1,-0.3l0,0.3"/>
   <path id="svg_18" fill-rule="evenodd" fill="#ffffff" d="m42.2,-117.3q-0.4,-0.6 -1.15,-0.65l-1.35,0.3q-0.55,0.35 -0.7,1.05q-0.15,0.7 0.3,1.3q0.4,0.55 1.05,0.65q0.7,0.1 1.35,-0.3l0.75,-1.1l0,-0.7l-0.25,-0.55m-1.85,34.05q-0.4,-0.65 -1.2,-0.7q-0.7,-0.15 -1.45,0.3q-0.55,0.4 -0.7,1.2q-0.15,0.7 0.25,1.3q0.4,0.55 1.2,0.7q0.75,0.15 1.4,-0.3q0.65,-0.4 0.75,-1.15l0,-0.75l-0.25,-0.6m2.2,-21.75l-0.5,-0.25l-0.6,0.15l-0.4,0.5l0.15,0.55l0.5,0.3l0.65,-0.15l0.35,-0.5l0,-0.3l-0.15,-0.3"/>
   <path id="svg_19" fill-rule="evenodd" fill-opacity="0.6" fill="#ffc300" d="m42.45,-116.75l0,0.7l-0.75,1.1q-0.65,0.4 -1.35,0.3q-0.65,-0.1 -1.05,-0.65q-0.45,-0.6 -0.3,-1.3q0.15,-0.7 0.7,-1.05l1.35,-0.3q0.75,0.05 1.15,0.65l-0.4,-0.65q-1.35,-1.95 -3.85,-2.3q-2.6,-0.25 -4.7,1.25q-2.25,1.4 -2.8,3.85q-0.65,2.45 0.65,4.4q1.35,1.9 3.9,2.2q2.6,0.35 4.8,-1.15q2.15,-1.5 2.7,-4q0.35,-1.25 0.15,-2.35l-0.2,-0.7m-2.1,33.5l-0.4,-0.7q-1.45,-2.05 -4.1,-2.4q-2.6,-0.3 -4.95,1.25q-2.3,1.6 -2.95,4.1q-0.7,2.6 0.7,4.6q1.45,2.1 4.1,2.35q2.7,0.35 5.05,-1.2q2.3,-1.55 2.9,-4.2q0.35,-1.3 0.1,-2.5l-0.2,-0.7l0,0.75q-0.1,0.75 -0.75,1.15q-0.65,0.45 -1.4,0.3q-0.8,-0.15 -1.2,-0.7q-0.4,-0.6 -0.25,-1.3q0.15,-0.8 0.7,-1.2q0.75,-0.45 1.45,-0.3q0.8,0.05 1.2,0.7m2.35,-21.15l-0.35,0.5l-0.65,0.15l-0.5,-0.3l-0.15,-0.55l0.4,-0.5l0.6,-0.15l0.5,0.25l-0.2,-0.25q-0.55,-0.95 -1.75,-1.1q-1.15,-0.15 -2.15,0.6q-1,0.65 -1.3,1.75q-0.3,1.15 0.3,2q0.65,0.95 1.75,1.1q1.25,0.15 2.25,-0.6q1.05,-0.65 1.25,-1.75q0.25,-0.65 0.1,-1.15l-0.1,0"/>
   <path id="svg_20" fill-rule="evenodd" fill="#86cfd9" d="m4.7,-130.5l0,-0.05l-0.05,-0.4l0,0.45l0.05,0"/>
   <path id="svg_21" fill-rule="evenodd" fill="#ffffff" d="m-5.4,-128.3l-0.45,-1q-0.7,-1 -1.9,-1.15q-1.2,-0.2 -2.3,0.5q-1,0.75 -1.3,1.95q-0.2,1.2 0.45,2.15q0.7,1 1.95,1.2q1.25,0.2 2.35,-0.5q1,-0.7 1.2,-1.95q0.2,-0.6 0,-1.2m10.05,-2.65l-0.15,-0.25l-0.55,-0.35l-0.75,0.2q-0.25,0.2 -0.35,0.55l0.1,0.65l0.6,0.35l0.75,-0.15l0.35,-0.55l0,-0.45m26.75,1.3l-1,-0.65l-1.25,0.3q-0.5,0.35 -0.6,1q-0.15,0.65 0.2,1.15q0.35,0.5 1,0.65l1.2,-0.3q0.55,-0.35 0.65,-1l0,-0.65l-0.2,-0.5"/>
   <path id="svg_22" fill-rule="evenodd" fill="#ffffc1" d="m4.5,-131.2l-0.2,-0.35q-0.75,-1 -2.1,-1.25q-1.25,-0.15 -2.45,0.75q-1.15,0.7 -1.45,2q-0.35,1.25 0.35,2.35q0.7,1 2.05,1.1q1.4,0.25 2.5,-0.55q1.25,-0.8 1.5,-2.15l0,-1.2l-0.05,0l-0.35,0.55l-0.75,0.15l-0.6,-0.35l-0.1,-0.65q0.1,-0.35 0.35,-0.55l0.75,-0.2l0.55,0.35m27.1,2.05l0,0.65q-0.1,0.65 -0.65,1l-1.2,0.3q-0.65,-0.15 -1,-0.65q-0.35,-0.5 -0.2,-1.15q0.1,-0.65 0.6,-1l1.25,-0.3l1,0.65l-0.4,-0.65q-1.2,-1.7 -3.45,-2.05q-2.35,-0.2 -4.35,1.15q-1.95,1.25 -2.5,3.5q-0.6,2.2 0.65,3.95q1.2,1.75 3.55,2q2.25,0.3 4.25,-1q2,-1.35 2.5,-3.6q0.35,-1.15 0.15,-2.15l-0.2,-0.65"/>
   <path id="svg_23" fill-rule="evenodd" fill-opacity="0.6" fill="#ffd447" d="m-21.4,-132.3q-7.95,9.85 2.8,18.1l0.35,0q4.45,0.65 8.3,-1.9q3.7,-2.55 4.7,-6.85q0.65,-2.2 0.2,-4.15l-0.35,-1.2q0.2,0.6 0,1.2q-0.2,1.25 -1.2,1.95q-1.1,0.7 -2.35,0.5q-1.25,-0.2 -1.95,-1.2q-0.65,-0.95 -0.45,-2.15q0.3,-1.2 1.3,-1.95q1.1,-0.7 2.3,-0.5q1.2,0.15 1.9,1.15l-0.7,-1.15q-2.3,-3.35 -6.65,-3.95q-4.4,-0.45 -8.2,2.1"/>
   <path id="svg_24" fill-rule="evenodd" fill-opacity="0.6" fill="#e6bf40" d="m-21.4,-132.3q-3.75,2.6 -4.85,6.7q-1.05,4.3 1.25,7.65q2.25,3.2 6.4,3.75q-10.75,-8.25 -2.8,-18.1"/>
  </g>
  <g transform="matrix(1,0,0,1,4.2,6.95) " id="sprite0">
   <use id="svg_25" xlink:href="#shape1" width="6.95" transform="matrix(1,0,0,1,-4.2,-6.95) " height="11.6"/>
  </g>
  <g transform="matrix(1,0,0,1,4.2,6.95) " id="shape1">
   <path id="svg_26" fill-rule="evenodd" fill="#ffffff" d="m-3.25,2.2l-0.3,-0.75q-0.85,-2.15 -0.6,-4.4q0.2,-2.3 1.4,-3.35q1.15,-1.1 2.55,-0.3q1.4,0.7 2.3,2.85l0.05,0.25q0,3.5 -1.8,5.3q-1.75,1.75 -3.6,0.4"/>
   <path id="svg_27" fill-rule="evenodd" fill="#f2e7a7" d="m2.15,-3.5q0.75,2 0.55,4.15q-0.25,2.25 -1.45,3.35q-1.15,1.05 -2.55,0.35q-1.15,-0.65 -1.95,-2.15q1.85,1.35 3.6,-0.4q1.8,-1.8 1.8,-5.3"/>
   <path id="svg_28" stroke-width="0.05" stroke-linejoin="round" stroke-linecap="round" stroke="#fec849" fill="none" d="m-3.25,2.2l-0.3,-0.75q-0.85,-2.15 -0.6,-4.4q0.2,-2.3 1.4,-3.35q1.15,-1.1 2.55,-0.3q1.4,0.7 2.3,2.85l0.05,0.25q0.75,2 0.55,4.15q-0.25,2.25 -1.45,3.35q-1.15,1.05 -2.55,0.35q-1.15,-0.65 -1.95,-2.15z"/>
   <path id="svg_29" fill-rule="evenodd" fill="#000000" d="m0.4,-1.15q-0.1,0.35 -0.35,0.4l-0.55,-0.4l-0.25,-0.75l0.05,-0.8q0.15,-0.3 0.45,-0.3l0.45,0.3l0.3,0.8l-0.1,0.75"/>
  </g>
  <g transform="matrix(1,0,0,1,19.1,20.95) " id="sprite1">
   <use id="svg_30" xlink:href="#shape2" width="38.2" transform="matrix(1,0,0,1,-19.1,-20.95) " height="41.85"/>
  </g>
  <g transform="matrix(1,0,0,1,19.1,20.95) " id="shape2">
   <path id="svg_31" fill-rule="evenodd" fill="#e2aa01" d="m-12.8,4.2q6.75,-7.45 6.35,-21.9q-1,0 -1.6,-0.45q-0.65,-0.5 -0.65,-1.2q-0.05,-0.7 0.6,-1.15q0.6,-0.5 1.6,-0.45q0.9,-0.05 1.55,0.45q0.65,0.45 0.7,1.15q0,0.7 -0.65,1.2q-0.65,0.45 -1.55,0.45q1.25,13.35 7.45,20.75q-6.7,2 -13.8,1.15"/>
   <path id="svg_32" stroke-width="0.05" stroke-linejoin="round" stroke-linecap="round" stroke="#a36501" fill="none" d="m-12.8,4.2q6.75,-7.45 6.35,-21.9q-1,0 -1.6,-0.45q-0.65,-0.5 -0.65,-1.2q-0.05,-0.7 0.6,-1.15q0.6,-0.5 1.6,-0.45q0.9,-0.05 1.55,0.45q0.65,0.45 0.7,1.15q0,0.7 -0.65,1.2q-0.65,0.45 -1.55,0.45q1.25,13.35 7.45,20.75"/>
   <path id="svg_33" fill-rule="evenodd" fill="#e2aa01" d="m14.25,-11.7q-0.1,13.95 0.6,19.5q-2.55,-2.45 -5.5,-3.2q2.9,-3.1 4.9,-16.3"/>
   <path id="svg_34" fill-rule="evenodd" fill="#ffecce" d="m14.25,-11.7l0.75,-5.4l0.1,0q-1.45,16.75 4,28.9l-3.55,1.4l-0.7,-5.4q-0.7,-5.55 -0.6,-19.5"/>
   <path id="svg_35" stroke-width="0.05" stroke-linejoin="round" stroke-linecap="round" stroke="#a95c01" fill="none" d="m14.25,-11.7q-0.1,13.95 0.6,19.5l0.7,5.4l3.55,-1.4"/>
   <path id="svg_36" stroke-width="0.05" stroke-linejoin="round" stroke-linecap="round" stroke="#a95c01" fill="none" d="m19.1,11.8q-5.45,-12.15 -4,-28.9"/>
   <path id="svg_37" fill-rule="evenodd" fill="#e2aa01" d="m16.5,-19.05q0.4,0.7 0.3,1.6q-0.15,1 -0.7,1.6q-0.45,0.45 -1,0.4l-0.2,0q-0.7,-0.15 -1.1,-0.8q-0.4,-0.75 -0.3,-1.7q0.1,-0.95 0.65,-1.5q0.5,-0.55 1.25,-0.45q0.7,0.1 1.1,0.85"/>
   <path id="svg_38" stroke-width="0.05" stroke-linejoin="round" stroke-linecap="round" stroke="#a36501" fill="none" d="m16.5,-19.05q0.4,0.7 0.3,1.6q-0.15,1 -0.7,1.6q-0.45,0.45 -1,0.4l-0.2,0q-0.7,-0.15 -1.1,-0.8q-0.4,-0.75 -0.3,-1.7q0.1,-0.95 0.65,-1.5q0.5,-0.55 1.25,-0.45q0.7,0.1 1.1,0.85z"/>
   <path id="svg_39" fill-rule="evenodd" fill="#e2aa01" d="m16.1,6.05l0.1,-0.1l0,0.1l-0.1,0m-32.95,0l0.05,0l-0.05,0"/>
   <path id="svg_40" fill-rule="evenodd" fill="#694f01" d="m-16.8,6.05l1.3,-1.75q1.6,-2 3.55,-2.55q4.9,-1.25 11.75,-1.25q6.8,0 11.7,1.25q2.1,0.6 3.65,2.35q1.25,1.45 1.05,1.85l-0.1,0.1q-16.75,-4.15 -32.85,0l-0.05,0"/>
   <path id="svg_41" fill-rule="evenodd" fill="#feb336" d="m-16.8,6.05l0.05,0q3.35,1.8 4.8,2.2l0.95,0.25q4.6,1.15 10.8,1.15q6.15,0 10.75,-1.15l0.95,-0.25q3.7,-0.95 4.6,-2.2l0.1,0l0.25,6q-0.05,1.9 -4.95,3.15q-4.9,1.45 -11.7,1.45q-6.85,0 -11.75,-1.45q-4.9,-1.25 -4.9,-3.15l0,-6l0.05,0"/>
   <path id="svg_42" stroke-width="0.05" stroke-linejoin="round" stroke-linecap="round" stroke="#6b3c01" fill="none" d="m-16.8,6.05l0.05,0m32.85,0l0.1,-0.1l0,0.1m-33.05,0l0.05,0"/>
   <path id="svg_43" stroke-width="0.05" stroke-linejoin="round" stroke-linecap="round" stroke="#6b3c01" fill="none" d="m16.2,6.05l0.25,6q-0.05,1.9 -4.95,3.15q-4.9,1.45 -11.7,1.45q-6.85,0 -11.75,-1.45q-4.9,-1.25 -4.9,-3.15l0,-6m32.95,0q-0.9,1.25 -4.6,2.2l-0.95,0.25q-4.6,1.15 -10.75,1.15q-6.2,0 -10.8,-1.15l-0.95,-0.25q-1.45,-0.4 -4.8,-2.2m32.85,0l0.1,0"/>
   <path id="svg_44" fill-rule="evenodd" fill="#ffcf60" d="m4.85,-13.6q-0.95,-0.05 -1.6,-0.65q-0.65,-0.65 -0.6,-1.6q-0.05,-0.95 0.6,-1.55q0.65,-0.65 1.6,-0.65q0.95,0 1.6,0.65q0.6,0.6 0.65,1.55q-0.05,0.95 -0.65,1.6q-0.65,0.6 -1.6,0.65l0.5,6.7l0.3,8.75q0.5,12.5 1.7,19.05q-4.5,-3.55 -9.45,-4.3q6.85,-10.15 6.95,-30.2"/>
   <path id="svg_45" fill-rule="evenodd" fill="#ffecce" d="m5.35,-6.9q1.5,13.8 6.4,22.1q-2.85,1.15 -4.4,5.7q-1.2,-6.55 -1.7,-19.05l-0.3,-8.75"/>
   <path id="svg_46" stroke-width="0.05" stroke-linejoin="round" stroke-linecap="round" stroke="#a36501" fill="none" d="m4.85,-13.6q-0.95,-0.05 -1.6,-0.65q-0.65,-0.65 -0.6,-1.6q-0.05,-0.95 0.6,-1.55q0.65,-0.65 1.6,-0.65q0.95,0 1.6,0.65q0.6,0.6 0.65,1.55q-0.05,0.95 -0.65,1.6q-0.65,0.6 -1.6,0.65"/>
   <path id="svg_47" stroke-width="0.05" stroke-linejoin="round" stroke-linecap="round" stroke="#a36501" fill="none" d="m4.85,-13.6l0.5,6.7q1.5,13.8 6.4,22.1q-2.85,1.15 -4.4,5.7q-4.5,-3.55 -9.45,-4.3q6.85,-10.15 6.95,-30.2m0.8,15.45q0.5,12.5 1.7,19.05"/>
   <path id="svg_48" fill-rule="evenodd" fill="#ffcf60" d="m-16.5,-0.35q1.85,9.1 2.4,19.65q-0.95,-1.95 -4.1,-4.4q1.65,-6.3 1.7,-15.25"/>
   <path id="svg_49" fill-rule="evenodd" fill="#ffe8c1" d="m-14.1,19.3q-0.55,-10.55 -2.4,-19.65q-0.05,-6.55 -0.9,-14.55q3.45,23.1 8.8,30.7q-4.85,1.65 -5.5,3.5"/>
   <path id="svg_50" stroke-width="0.05" stroke-linejoin="round" stroke-linecap="round" stroke="#a36501" fill="none" d="m-17.4,-14.9q0.85,8 0.9,14.55q-0.05,8.95 -1.7,15.25"/>
   <path id="svg_51" stroke-width="0.05" stroke-linejoin="round" stroke-linecap="round" stroke="#5f3401" fill="none" d="m-14.1,19.3q0.65,-1.85 5.5,-3.5m-9.6,-0.9q3.15,2.45 4.1,4.4"/>
   <path id="svg_52" fill-rule="evenodd" fill="#ffcf60" d="m-16.5,-16q0.55,0.55 0.7,1.5q0.15,0.95 -0.25,1.65q-0.35,0.7 -1,0.8l-0.25,0q-0.6,0.05 -1.05,-0.4q-0.55,-0.6 -0.7,-1.55q-0.15,-0.95 0.25,-1.6q0.3,-0.75 1,-0.85q0.7,-0.1 1.3,0.45"/>
   <path id="svg_53" stroke-width="0.05" stroke-linejoin="round" stroke-linecap="round" stroke="#a36501" fill="none" d="m-16.5,-16q-0.6,-0.55 -1.3,-0.45q-0.7,0.1 -1,0.85q-0.4,0.65 -0.25,1.6q0.15,0.95 0.7,1.55q0.45,0.45 1.05,0.4l0.25,0q0.65,-0.1 1,-0.8q0.4,-0.7 0.25,-1.65q-0.15,-0.95 -0.7,-1.5z"/>
  </g>
  <g id="sprite2">
   <use id="svg_54" xlink:href="#shape3" width="102.95" height="45"/>
  </g>
  <g id="shape3">
   <path id="svg_55" fill-rule="evenodd" fill-opacity="0" fill="#ff00ff" d="m0,0l102.95,0l0,45l-102.95,0l0,-45"/>
  </g>
  <linearGradient y2="0.120865" y1="0.831705" x2="0.228117" x1="0.738879" spreadMethod="pad" id="gradient0">
   <stop stop-opacity="0.65098" stop-color="#ffffd5" offset="0"/>
   <stop stop-opacity="0.701961" stop-color="#ffff52" offset="0.478431"/>
   <stop stop-color="#ffe300" offset="0.968627"/>
  </linearGradient>
  <linearGradient y2="0.066441" y1="0.899957" x2="0.119219" x1="0.880386" spreadMethod="pad" id="gradient1">
   <stop stop-opacity="0.65098" stop-color="#ffffba" offset="0"/>
   <stop stop-opacity="0.701961" stop-color="#ffff52" offset="0.321569"/>
   <stop stop-color="#ffe300" offset="1"/>
  </linearGradient>
  <linearGradient y2="0.97659" y1="0.179049" x2="0.366791" x1="0.811271" spreadMethod="pad" id="gradient2">
   <stop stop-color="#ffff52" offset="0"/>
   <stop stop-color="#ffe300" offset="1"/>
  </linearGradient>
  <linearGradient y2="-73.475139" y1="-8.378622" x2="-8.146646" x1="-0.305733" spreadMethod="pad" id="gradient3">
   <stop stop-opacity="0.8" stop-color="#229ab7" offset="0"/>
   <stop stop-opacity="0.501961" stop-color="#7cd8dc" offset="1"/>
  </linearGradient>
  <linearGradient y2="-106.771376" y1="-3.006219" x2="-18.799489" x1="0.799487" spreadMethod="pad" id="gradient4">
   <stop stop-opacity="0.8" stop-color="#acdef0" offset="0"/>
   <stop stop-opacity="0.501961" stop-color="#ebf9fa" offset="1"/>
  </linearGradient>
  <linearGradient y2="-211.430657" y1="20.286941" x2="5.559342" x1="9.028896" spreadMethod="pad" id="gradient5">
   <stop stop-opacity="0.901961" stop-color="#018bad" offset="0"/>
   <stop stop-opacity="0.501961" stop-color="#ebf9fa" offset="1"/>
  </linearGradient>
 </defs>
 <g>
  <title>background</title>
  <rect fill="none" id="canvas_background" height="104" width="103" y="-1" x="-1"/>
 </g>
 <g>
  <title>Layer 1</title>
  <g id="svg_56">
   <use x="48.511549" y="148.269251" id="svg_57" xlink:href="#shape0" width="381" transform="matrix(1,0,0,1,-192.55,-294) " height="381"/>
   <use x="49.392711" y="-16.247624" id="svg_58" xlink:href="#sprite0" width="6.95" transform="matrix(0.3266,2.9677,-1.9929,-0.1038,-9.5708,-90.8931) " height="11.6"/>
   <use x="0" y="0" id="svg_59" xlink:href="#sprite0" width="6.95" transform="matrix(0.3876999999999993,3.5208999999999944,-2.5201999999999956,0.03229999999999993,61.34844899597167,59.756951346588146) " height="11.6"/>
   <use x="1.636442" y="163.690887" id="svg_60" xlink:href="#sprite1" width="38.2" transform="matrix(-0.9542,0.3289,0.3059,0.9025,4.2167,-141.8893) " height="41.85"/>
   <use x="-79.425882" y="-87.816392" xlink:href="#sprite2" width="102.95" transform="matrix(1.8072000000000004,0,0,1.6538,96.00000305175784,165.3) " id="_mcMask" height="45"/>
  </g>
 </g>
</svg>