<svg width="147" height="155" xmlns="http://www.w3.org/2000/svg" xmlns:xlink="http://www.w3.org/1999/xlink">
 <defs>
  <g transform="matrix(1,0,0,1,192.55,294) " id="shape0">
   <path id="svg_1" stroke-opacity="0" stroke-linejoin="round" stroke-linecap="round" stroke="#ff00ff" fill="none" d="m187.95,-293.5l0,380l-379.95,0l-0.05,0l0,-380l380,0m-95,294.1l-189.95,0"/>
   <path id="svg_2" stroke-opacity="0" stroke-linejoin="round" stroke-linecap="round" stroke="#ff00ff" fill="none" d="m187.95,-293.5l-190,190l190,190m-380,-380l190,190l-189.95,190"/>
   <path id="svg_3" fill-rule="evenodd" fill="#dec696" d="m-24.65,-114.8l0,-0.1l-0.2,0q-2.7,0 -4.6,2.05l-0.9,1.15l-0.05,0.2q-0.85,1.45 -0.95,3.2l1.2,-0.1l0.95,0.05q1.15,-3.2 3.5,-2.4l0,-0.2q0,-2.15 1.05,-3.85m-8.7,7.35l-0.4,0.3l-0.95,0.95q-1,0.8 -2.45,3.2q-1.9,3.1 -1.1,6.95q-2.7,2.3 -3.45,5.45q-0.7,3.15 1.05,5.35q0.65,1.95 3.1,3.85q-1,2 -0.25,4.35l0.65,1.9l0.25,0.55l0.35,0.7l0.1,0l-0.45,-0.7l0.45,0.7l0.4,0.65l0.05,0.2l0.3,0.45l0.45,0.4l-0.8,-1.05l0.8,1.05l0.05,0.05l1.35,1.2l0.3,0.25l0.05,0l0.05,0q0.8,0.5 1.75,0.85q1.4,0.5 3.05,0.55l0.35,3.25q0.4,2.55 0.3,3l-0.1,1.05l0,0.15q0.55,1.05 1.75,2.1l1,0.55q0.2,-3 -0.15,-5.15q2.15,-1.95 3.05,-1.75l-0.55,-0.75l0.55,0.75l0.6,0.65l0.05,0.4l1.1,0.65l-1.15,-1.05l1.15,1.05l0.05,0.05l2,1.2l0.45,0.25l0.1,0q3,1.3 7.05,1.4l0.5,3.25q0.5,2.35 0.45,2.95q1.4,0.2 3.6,-0.05l0.25,0.25q2.55,2.25 5.45,2.65l1.1,0.1l0.65,0.05l2.2,-0.3q1,-0.3 1.8,-0.9l0.2,-0.15q0.85,-0.65 1.2,-1.4l1.2,0.05q2.85,0 4.8,-1.35l1.5,-1.5q0.45,-0.75 0.5,-1.55l0,-0.25q0,-0.95 -0.55,-1.75l-0.15,-0.3l0.1,0l2.75,-0.4q0.35,0.25 0.55,-0.1l0.05,-0.05l0.05,0.05q1.1,0.15 1.95,-0.45q2.05,-1.5 2.35,-3.5q2.2,-0.25 3.8,-1.65q1.95,-1.65 1.9,-3.95l-0.25,-1.6q-0.4,-1.3 -1.6,-2.35l-0.7,1.15q-1.8,2.35 -4.5,2.5l-0.2,0l-0.05,0l-1.45,2q-2.55,2.7 -6.3,2.9q-3.7,0.15 -6.5,-2.3l-1.35,-1.5l-1.9,1.5q-1.4,0.8 -3.1,0.9l-0.3,0q-2.95,0 -5.2,-2.2l-1.35,-1.6q-1.1,-0.25 -2.75,-1.15l-0.1,0l-0.45,0.05l-1,-0.05l-0.9,-0.3q0.15,1.65 -0.9,2.65q-0.9,0.8 -2.55,0.4l-0.05,0.15l-0.05,0.5l0.1,0.75q-1.15,0.8 -4.5,-2.05q-0.4,-1 -1.15,-1.8q-1.05,-1.2 -2.4,-1.65l-0.2,-2.4l0,-0.15l0.3,-3.05l-0.25,-0.4q-0.9,-1.6 -1,-3.55l0,-0.9q0.1,-1.65 0.8,-3.05l0.15,-0.2l0.05,-0.15l-0.05,0l-0.2,0.05l-0.55,0.05l-1.05,-0.05q-0.4,-2.1 0.35,-4.4l-1.35,0.1q-0.85,1.65 -1.2,3.45l-0.25,0q-7.5,-7.35 -4.6,-17.95m56.85,30.6q1.4,-0.25 2.55,-1.05l0.4,-0.25l0.9,-0.85q-4.1,1.7 -6.7,0.4l1.75,1.1l1.1,0.65m1.1,-9.4l0.35,-0.35l0.15,-0.1q2.05,-1.9 2.05,-4.55l-0.15,-1.35q-0.95,4.15 -6,5.6l3,0.65l0.2,0l0.4,0.1m-36.25,14.75q0.05,-1.05 -0.25,-2q0.3,0.95 0.25,2m-8.85,-26.6l0.1,2.65l1.4,2.5l1.35,0.25l0.25,-0.25l3.15,-3.6l0.25,-0.5l1.25,-2.2q-2.2,1.25 -2.6,1.3q-0.45,0.45 -1.4,1q-1.55,0.8 -2.2,0.65q-0.65,-0.15 -1.2,-0.95l-0.35,-0.85m-15.5,16.7l-1.55,0l1.55,0m2.55,10.7l-0.1,0l0.1,0m5.75,1.4l-0.95,0l0.95,0m-3.3,-2.75l-0.7,2.2l0.7,-2.2m12.9,9.15l-0.1,0l0.1,0m39.55,-3.25l-0.9,0l-2.25,-0.3l2.25,0.3l0.9,0m-13.05,3.5l-0.55,1.25l-1.75,1.5l-1.25,0.6q-1.55,0.6 -3.45,0.75l-0.5,0.05l-0.5,0l-1.6,-0.1l-2.1,-0.45l2.1,0.45l1.6,0.1l0.5,0l0.5,-0.05q1.9,-0.15 3.45,-0.75l1.25,-0.6l1.75,-1.5l0.55,-1.25l2.1,0.7l1.55,0.2l1.15,0.05l0.45,0l-0.45,0l-1.15,-0.05l-1.55,-0.2l-2.1,-0.7l-1,-0.55l-0.7,-0.45l0.7,0.45l1,0.55m-18.1,1.15l-1.35,0l1.35,0m4.45,1.6q0.9,0.55 1.95,0.85q-0.15,0.15 -2,-0.75l0,-0.05l0.05,-0.05q-1.8,-1.05 -2.25,-2.4q0.45,1.35 2.25,2.4m11.8,4.25l-0.2,0.6l0.2,-0.6"/>
   <path id="svg_4" fill-rule="evenodd" fill="#425a68" d="m-38.6,-58.55l0.65,3.2q0.3,1.2 1.3,1.5l3.15,0.7l0.3,0.05l0.6,-2.05l0.75,2q1.1,-0.2 2,-0.9q1.3,-1.1 1.45,-2l0,-0.05l0,-0.25l0,-2.4l-1.5,1.6q-1.5,0.95 -3.65,0.95q-2.1,0 -3.65,-0.95l-1.4,-1.4m13,7.8l0.9,3.2q0.5,1.2 1.95,1.5l4.55,0.7l0.5,0.05l0.85,-2.05l1.1,2q1.65,-0.2 2.9,-0.9q1.9,-1.1 2.15,-2l0,-0.05l0,-0.25l0,-2.4l-2.15,1.6q-2.2,0.95 -5.35,0.95q-3.1,0 -5.35,-0.95l-2.05,-1.4m24.8,-1.7l0.3,0.9q0.5,1.2 1.95,1.5l4.55,0.7l0.25,0l2.2,0l2.2,-0.55l0.7,-3.1l0.7,2.3q1.25,-0.85 1.45,-1.55l0,-0.05l0,-0.25l0,-2.4l-2.15,1.6q-2.2,0.95 -5.35,0.95l-2.85,-0.2l-2.2,0.3l-0.65,-0.05l-1.1,-0.1m18.15,-54.65q0.3,-0.95 0.2,-2.05l-0.05,-0.05q-0.6,-3.75 -3.35,-8.05l-0.3,-0.5q-1.95,-2.9 -2.9,0.35q-0.05,1.75 -0.8,3.35l0.3,0.55l0.3,0.9l0.1,1.15q0,1.15 -0.45,2.15l0.1,0.2l0,0.05l0.2,0.95l0.5,0l2.15,-0.3q2.25,-0.05 4,1.3m-37.8,3.9q-0.3,1.8 -0.15,4.3l0,0.05l0.1,0.75l0.35,0.85q0.55,0.8 1.2,0.95q0.65,0.15 2.2,-0.65q0.95,-0.55 1.4,-1l0.35,-0.5l-0.95,0.15l-0.35,0q-2.3,0.3 -3.1,-0.5l-0.25,-0.35q-0.6,-1.3 -0.6,-2.75q0.05,-1.5 -0.2,-1.3m33.05,-15.2l0.45,0.25l0.3,0.6l0,0.6l-0.7,1.1q-0.55,0.8 -0.85,0.75l-0.1,-0.05q-0.15,-0.25 0.1,-1.35l0.15,-0.8l0.25,-0.85l0.4,-0.25"/>
   <path id="svg_5" fill-rule="evenodd" fill="#82c4cc" d="m-18.55,-108.25q-0.55,1.45 -0.3,1.5q0.3,0.05 0.95,-0.8l0.85,-1.1q0.2,-0.3 0.15,-0.65q0.05,-0.4 -0.15,-0.65l-0.4,-0.3l-0.4,0.3l-0.7,1.7m31.15,-10.15l-0.4,0.25l-0.25,0.85l-0.15,0.8q-0.25,1.1 -0.1,1.35l0.1,0.05q0.3,0.05 0.85,-0.75l0.7,-1.1l0,-0.6l-0.3,-0.6l-0.45,-0.25"/>
   <path id="svg_6" fill-rule="evenodd" fill="#f5eed3" d="m-24.6,-114.9l-0.05,0.1q-1.05,1.7 -1.05,3.85l0,0.2q-2.35,-0.8 -3.5,2.4l-0.95,-0.05l-1.2,0.1q-1.05,0.2 -2,0.85q-2.9,10.6 4.6,17.95l0.25,0q0.35,-1.8 1.2,-3.45l1.35,-0.1q-0.75,2.3 -0.35,4.4l1.05,0.05l0.55,-0.05l0.2,-0.05l0.05,0l-0.05,0.15l-0.15,0.2q-0.7,1.4 -0.8,3.05l0,0.9q0.1,1.95 1,3.55l0.25,0.4l-0.3,3.05l0,0.15l0.2,2.4q1.35,0.45 2.4,1.65q0.75,0.8 1.15,1.8q3.35,2.85 4.5,2.05l-0.1,-0.75l0.05,-0.5l0.05,-0.15q1.65,0.4 2.55,-0.4q1.05,-1 0.9,-2.65l0.9,0.3l1,0.05l0.45,-0.05l0.1,0l-2.05,-1.25q-0.6,-1.1 -1.65,-2.05q-1.5,-1.35 -3.45,-1.85l-0.3,-2.65l0,-0.15l0.45,-3.4l1.25,-3.25l0.9,-1.45l1,-1.35l0.7,-0.8l0,-0.05l0.5,-0.55l0.85,-0.8l0,-0.05l1.35,-1.15l2.7,-0.15q2.05,3.35 6.4,4.7l1.05,0.35l0.4,-0.3q1.4,-1.1 3.1,-1.55q-1.7,0.45 -3.1,1.55l-0.4,0.3q-3.2,3.1 -1.25,6.85l0.5,0.75l-0.4,0.65q-0.9,1.6 -0.5,3.2l0.4,1l-1.4,0.45l-0.3,0.1l-0.55,0.3l-0.15,0.1l-0.8,0.6q-0.75,0.7 -0.95,1.5l-0.1,0.55l0.15,0.85l-1.6,0.15l1.35,1.6q2.25,2.2 5.2,2.2l0.3,0q1.7,-0.1 3.1,-0.9l1.9,-1.5l1.35,1.5q2.8,2.45 6.5,2.3q3.75,-0.2 6.3,-2.9l1.45,-2l0.05,0l0.2,0q2.7,-0.15 4.5,-2.5l0.7,-1.15l-0.05,-0.05q-0.8,-0.7 -1.8,-1.05l-0.05,0l0.05,-0.05l0.05,0l-1.1,-0.65l-1.75,-1.1q2.6,1.3 6.7,-0.4q0.7,-0.8 0.95,-1.75l0.1,-0.95q0,-2.1 -1.95,-3.55l-1.25,-0.75l-0.45,-0.2l-0.15,-0.05l-0.05,0l-0.35,-0.1l0.35,0.1l0.05,0l-0.4,-0.1l-0.2,0l-3,-0.65q5.05,-1.45 6,-5.6q-0.25,-1.4 -1.2,-2.5l-0.85,-0.85q-1.2,-1.1 -2.7,-1.55l-0.35,-0.1l-2.25,-0.3l-0.15,0l-0.4,0.05l-0.25,0l0.05,-0.1l0.15,-0.2l0.2,-0.35q0.8,-1.45 0.8,-3.2l-0.1,-1.35l-0.3,-1l-0.3,-0.65l-0.15,-0.5l0,-0.05q-0.3,-0.95 -0.1,0.05l-1,-1.25l-0.75,-0.65q-1.75,-1.35 -4,-1.3l-2.15,0.3l-0.5,0.2l0,-0.2l-0.2,-0.95l0,-0.05l-0.1,-0.2l-1.05,-1.65q-1.35,-1.35 -3.3,-1.3q-1.4,-0.05 -2.5,0.65q-0.5,-1.9 -2,-3.35q-2.2,-2.2 -5.4,-2.2q-2.95,0 -5.1,1.9l-1.3,-1.4q-2.65,-2.4 -6.4,-2.35q-3.75,-0.05 -6.4,2.35l-1.55,1.75m-0.9,5.9l-0.2,-1.75l0.2,1.75m-3.7,0.65l0.85,0.25l-0.85,-0.25m37.85,1.9q0.95,-0.95 2.05,-1.45q-1.1,0.5 -2.05,1.45m-29.1,3.25l1.2,-4.25q1.7,-5.2 3,-2.15l0.5,1.5q0.35,1.5 1.3,3.05l0.6,0.8l1.3,0l0.4,0.7q1.2,0.8 1,2.6l-0.1,0.5l-1.4,1.15l-0.1,0.05l-1.25,2.2l-0.25,0.5l-3.15,3.6l-0.25,0.25l-1.35,-0.25l-1.4,-2.5l-0.1,-2.65l-0.1,-0.75l0,-0.05q-0.15,-2.5 0.15,-4.3m1,24.3l1.95,0.25l-1.95,-0.25m21,-30.1q0.35,-1.1 1.2,-1.95l0.8,-0.65l-0.8,0.65q-0.85,0.85 -1.2,1.95m15.55,11.5l0.55,-0.15l1.2,-0.2l-1.2,0.2l-0.55,0.15m-24.05,0.55l0.05,-0.1l0.05,0.05l0,0.05l-0.1,0m2,-3.55l0,-0.15l0,-0.05l0,0.2m0.6,-1.05l0,0.1l0,-0.1m-4.6,-13.7l0.95,1.8l-0.95,-1.8m9.85,40.85q-0.7,-0.35 -1.3,-0.85l-0.45,-0.35l-1.05,-1.35l1.05,1.35l0.45,0.35q0.6,0.5 1.3,0.85m2.25,-9.85q-2,0.25 -3.55,1.45l-1,1l1,-1q1.55,-1.2 3.55,-1.45m-15.05,10.75l-0.5,-1.25l0.5,1.25m7.6,2.8q-1.3,-0.8 -1.7,-1.8q0.4,1 1.7,1.8m27.7,-6.1l-1,-0.7l1,0.7"/>
   <path id="svg_7" fill-rule="evenodd" fill="#5f829a" d="m-38.25,-60.7l-0.45,1.3l0.1,0.85l1.4,1.4q1.55,0.95 3.65,0.95q2.15,0 3.65,-0.95l1.5,-1.6l0,-0.65l-0.25,-1.05l-0.75,1l-1,1.05q-1.3,1 -3,1q-1.6,0 -2.9,-0.95l-1.1,-1.1l-0.85,-1.25m13.15,7.8q-0.6,0.6 -0.65,1.3l0.15,0.85l2.05,1.4q2.25,0.95 5.35,0.95q3.15,0 5.35,-0.95l2.15,-1.6l0,-0.65q0.05,-0.55 -0.4,-1.05l-1,1q-0.75,0.6 -1.55,1.05q-1.95,1 -4.35,1q-2.35,0 -4.25,-0.95l-1.65,-1.1l-1.2,-1.25m38.6,-2.05l0,-0.65q0.05,-0.55 -0.4,-1.05l-1,1l-1.55,1.05q-1.95,1 -4.35,1l-1.05,-0.05l-0.2,0.15q-0.8,0.6 -1.8,0.9l2.85,0.2q3.15,0 5.35,-0.95l2.15,-1.6m-26.05,-49.3l-1.3,0l-0.6,-0.8q-0.95,-1.55 -1.3,-3.05l-0.5,-1.5q-1.3,-3.05 -3,2.15l-1.2,4.25q0.25,-0.2 0.2,1.3q0,1.45 0.6,2.75l0.25,0.35q0.8,0.8 3.1,0.5l0.35,0l0.95,-0.15l-0.35,0.5q0.4,-0.05 2.6,-1.3l0.1,-0.05l1.4,-1.15l0.1,-0.5q0.2,-1.8 -1,-2.6l-0.4,-0.7m-6,-4l0.7,-1.7l0.4,-0.3l0.4,0.3q0.2,0.25 0.15,0.65q0.05,0.35 -0.15,0.65l-0.85,1.1q-0.65,0.85 -0.95,0.8q-0.25,-0.05 0.3,-1.5m4.7,4l0.25,0.3l0.4,0.55l1.25,1.3l-1.25,-1.3l-0.4,-0.55l-0.25,-0.3"/>
   <path id="svg_8" fill-rule="evenodd" fill="#c4964a" d="m-0.65,-89.4l-1.05,-0.35q-4.35,-1.35 -6.4,-4.7l-2.7,0.15l-1.35,1.15l0.35,0.4q3.9,4.25 7.4,4.8q-0.85,1.95 -0.75,4.85q0.15,2.85 1.85,6.6l1.4,-0.45l-0.4,-1q-0.4,-1.6 0.5,-3.2l0.4,-0.65l-0.5,-0.75q-1.95,-3.75 1.25,-6.85"/>
   <path id="svg_9" fill-rule="evenodd" fill="#eedfb5" d="m-12.15,-93.15l0,0.05l-0.85,0.8l0.35,0.5q0,3 1.05,5.9q1.25,3.2 3.85,6.25l3.6,3.55l0.55,-0.3l0.3,-0.1q-1.7,-3.75 -1.85,-6.6q-0.1,-2.9 0.75,-4.85q-3.5,-0.55 -7.4,-4.8l-0.35,-0.4"/>
   <path id="svg_10" fill-rule="evenodd" fill="#cccccc" d="m-13,-92.3l-0.5,0.55l0,0.05l-0.7,0.8l-1,1.35l2.45,5.7l1.15,-2.05q-1.05,-2.9 -1.05,-5.9l-0.35,-0.5m5.25,12.65l-1.1,1.15l3.75,3.1l0.8,-0.6l0.15,-0.1l-3.6,-3.55"/>
   <path id="svg_11" fill-rule="evenodd" fill="#000000" d="m-11.6,-85.9l-1.15,2.05q-0.95,2.2 -0.15,3.65q0.95,1.7 1.95,2.15q-0.9,-1.4 0.85,-2l0.6,0.25q1.15,0.4 0.65,1.3l1.1,-1.15q-2.6,-3.05 -3.85,-6.25"/>
   <path id="svg_12" fill-rule="evenodd" fill="#ffffff" d="m-15.2,-89.55l-0.9,1.45l-1.25,3.25l-0.45,3.4l0,0.15q4.65,4.8 11.75,7.4q0.2,-0.8 0.95,-1.5l-3.75,-3.1q0.5,-0.9 -0.65,-1.3l-0.6,-0.25q-1.75,0.6 -0.85,2q-1,-0.45 -1.95,-2.15q-0.8,-1.45 0.15,-3.65l-2.45,-5.7"/>
   <path id="svg_13" fill-rule="evenodd" fill="#d1ad72" d="m-17.8,-81.3l0.3,2.65q1.95,0.5 3.45,1.85q1.05,0.95 1.65,2.05l2.05,1.25q1.65,0.9 2.75,1.15l1.6,-0.15l-0.15,-0.85l0.1,-0.55q-7.1,-2.6 -11.75,-7.4"/>
   <path id="svg_14" fill-rule="evenodd" fill="#957959" d="m-36.55,-73.9q-0.6,-0.05 -1.95,-3.25q0.25,7.5 0.05,11.15q-0.15,3.65 0.2,5.3l0.85,1.25l1.1,1.1q1.3,0.95 2.9,0.95q1.7,0 3,-1l1,-1.05l0.75,-1q0.5,-0.85 0.55,-1.4l0,-0.15l0.1,-1.05q0.1,-0.45 -0.3,-3l-0.35,-3.25q-1.65,-0.05 -3.05,-0.55q-0.95,-0.35 -1.75,-0.85l-0.05,0l-0.05,0l-0.3,-0.25l-1.35,-1.2l-0.05,-0.05l-0.45,-0.4l-0.3,-0.25l0,-0.2l-0.05,-0.2l-0.4,-0.65l-0.1,0m11.2,14.7l-0.05,1q-0.2,3.65 0.3,5.3l1.2,1.25l1.65,1.1q1.9,0.95 4.25,0.95q2.4,0 4.35,-1q0.8,-0.45 1.55,-1.05l1,-1q0.8,-0.95 0.85,-1.55l0.15,-1.05l0,-0.05q0.05,-0.6 -0.45,-2.95l-0.5,-3.25q-4.05,-0.1 -7.05,-1.4l-0.1,0l-0.45,-0.25l-2,-1.2l-0.05,-0.05l-1.1,-0.65l-0.05,-0.4l-0.6,-0.65q-0.9,-0.2 -3.05,1.75q0.35,2.15 0.15,5.15m38.45,2.55l0.75,-1.2l-1.5,1.5q-1.95,1.35 -4.8,1.35l-1.2,-0.05q-0.35,0.75 -1.2,1.4l1.05,0.05q2.4,0 4.35,-1l1.55,-1.05l1,-1m0.7,-4.75l-0.05,-0.3l-0.1,0l0.15,0.3m-45,-4.05q0.7,-0.25 1.3,-0.6l0.05,0q1.15,1.05 1.15,2.6l0,0.3q-0.1,1.3 -1.2,2.25q-1.2,1.1 -2.9,1.15q-1.65,-0.05 -2.85,-1.15q-1.2,-1.05 -1.25,-2.55q0.05,-1.05 0.55,-1.85l5.15,-0.15m9.9,12.35q-1.8,-1.05 -1.8,-2.55q0,-1.05 0.8,-1.85l7.65,-0.2l1.8,-0.55q1.75,1.05 1.7,2.6l0,0.05q0,1.45 -1.7,2.5q-1.75,1.1 -4.25,1.15q-2.5,-0.05 -4.2,-1.15"/>
   <path id="svg_15" fill-rule="evenodd" fill="#c5b69e" d="m-31.2,-65.45l-5.15,0.15q-0.5,0.8 -0.55,1.85q0.05,1.5 1.25,2.55q1.2,1.1 2.85,1.15q1.7,-0.05 2.9,-1.15q1.1,-0.95 1.2,-2.25l0,-0.3q0,-1.55 -1.15,-2.6l-0.05,0q-0.6,0.35 -1.3,0.6m9.9,12.35q1.7,1.1 4.2,1.15q2.5,-0.05 4.25,-1.15q1.7,-1.05 1.7,-2.5l0,-0.05q0.05,-1.55 -1.7,-2.6l-1.8,0.55l-7.65,0.2q-0.8,0.8 -0.8,1.85q0,1.5 1.8,2.55"/>
   <path id="svg_16" stroke-width="0.5" stroke-opacity="0.501961" stroke-linejoin="round" stroke-linecap="round" stroke="#423213" fill="none" d="m-24.65,-114.9l0.05,0l-0.05,0.1q-1.05,1.7 -1.05,3.85l0,0.2l0.2,1.75m-3.7,0.65l-0.95,-0.05l-1.2,0.1q0.1,-1.75 0.95,-3.2l0.05,-0.2l0.9,-1.15q1.9,-2.05 4.6,-2.05l0.2,0m35.05,5.6l-1.05,-1.65q-1.35,-1.35 -3.3,-1.3q-1.4,-0.05 -2.5,0.65q-0.5,-1.9 -2,-3.35q-2.2,-2.2 -5.4,-2.2q-2.95,0 -5.1,1.9l-1.3,-1.4q-2.65,-2.4 -6.4,-2.35q-3.75,-0.05 -6.4,2.35l-1.55,1.75m-8.75,7.45l-0.4,0.3l-0.95,0.95q-1,0.8 -2.45,3.2q-1.9,3.1 -1.1,6.95q-2.7,2.3 -3.45,5.45q-0.7,3.15 1.05,5.35q0.65,1.95 3.1,3.85q-1,2 -0.25,4.35l0.65,1.9l0.25,0.55l0.35,0.7m-1.95,-3.25q0.25,7.5 0.05,11.15q-0.15,3.65 0.2,5.3l-0.45,1.3l0.1,0.85l0.65,3.2q0.3,1.2 1.3,1.5l3.15,0.7l0.3,0.05l0.6,-2.05l0.75,2q1.1,-0.2 2,-0.9q1.3,-1.1 1.45,-2l0,-0.05l0,-0.25l0,-2.4l0,-0.65l-0.25,-1.05q0.5,-0.85 0.55,-1.4q0.55,1.05 1.75,2.1l1,0.55l-0.05,1q-0.2,3.65 0.3,5.3q-0.6,0.6 -0.65,1.3l0.15,0.85l0.9,3.2q0.5,1.2 1.95,1.5l4.55,0.7l0.5,0.05l0.85,-2.05l1.1,2q1.65,-0.2 2.9,-0.9q1.9,-1.1 2.15,-2l0,-0.05l0,-0.25l0,-2.4l0,-0.65q0.05,-0.55 -0.4,-1.05q0.8,-0.95 0.85,-1.55l0.15,-1.05l0,-0.05q1.4,0.2 3.6,-0.05l0.25,0.25q2.55,2.25 5.45,2.65l0.3,0.9q0.5,1.2 1.95,1.5l4.55,0.7l0.25,0l-0.3,0l0.55,0.05l-0.25,-0.05l2.2,0l2.2,-0.55l0.7,-3.1l0.7,2.3q1.25,-0.85 1.45,-1.55l0,-0.05l0,-0.25l0,-2.4l0,-0.65q0.05,-0.55 -0.4,-1.05l0.75,-1.2q0.45,-0.75 0.5,-1.55l0,-0.25q0,-0.95 -0.55,-1.75l-0.05,-0.3l2.75,-0.4q0.35,0.25 0.55,-0.1l0.1,0q1.1,0.15 1.95,-0.45q2.05,-1.5 2.35,-3.5q2.2,-0.25 3.8,-1.65q1.95,-1.65 1.9,-3.95l-0.25,-1.6q-0.4,-1.3 -1.6,-2.35l-0.05,-0.05q-0.8,-0.7 -1.8,-1.05l-0.05,0l0.05,-0.05l0.05,0q1.4,-0.25 2.55,-1.05l0.4,-0.25l0.9,-0.85q0.7,-0.8 0.95,-1.75l0.1,-0.95q0,-2.1 -1.95,-3.55l-1.25,-0.75l-0.45,-0.2l-0.15,-0.05l0.35,-0.35l0.15,-0.1q2.05,-1.9 2.05,-4.55l-0.15,-1.35q-0.25,-1.4 -1.2,-2.5l-0.85,-0.85q-1.2,-1.1 -2.7,-1.55l-0.35,-0.1l-2.25,-0.3l-0.15,0l-0.4,0.05l-0.25,0l0.05,-0.1l0.15,-0.2l0.2,-0.35q0.8,-1.45 0.8,-3.2l-0.1,-1.35l-0.3,-1l-0.3,-0.65l-0.15,-0.5l0,-0.05m-0.1,0.05l-1,-1.25l-0.75,-0.65q0.3,-0.95 0.2,-2.05m-0.05,-0.05q-0.6,-3.75 -3.35,-8.05l-0.3,-0.5q-1.95,-2.9 -2.9,0.35q-0.05,1.75 -0.8,3.35m0.25,4.75l0.1,0.2l0,0.05m0.2,1.15q-1.1,0.5 -2.05,1.45m-37,-1.65l-0.85,-0.25m-2.15,0.05q-1.05,0.2 -2,0.85m21.45,33.95q0.3,0.95 0.25,2m-0.9,-32.75l-1.3,0l-0.6,-0.8q-0.95,-1.55 -1.3,-3.05l-0.5,-1.5q-1.3,-3.05 -3,2.15l-1.2,4.25q-0.3,1.8 -0.15,4.3m0,0.05l0.1,0.75l0.35,0.85q0.55,0.8 1.2,0.95m7,-5.8l-1.25,-1.3l-0.4,-0.55l-0.25,-0.3m0.85,11.95l-0.5,0.55l0,0.05l-0.7,0.8l-1,1.35l-0.9,1.45l-1.25,3.25l-0.45,3.4l0,0.15l0.3,2.65l-1.95,-0.25m-18.1,-2.5l1.55,0m0.3,8.8l-0.3,-0.45m-0.05,-0.2l0.8,1.05l0.05,0.05l1.35,1.2l0.3,0.25l0.1,0q0.8,0.5 1.75,0.85q1.4,0.5 3.05,0.55l0.35,3.25q0.4,2.55 0.3,3l-0.1,1.05l0,0.15m-8.35,-12.05l-0.45,-0.7m0.85,1.35l-0.4,-0.65m14.6,8.45l1.15,1.05l0.05,0.05l2,1.2l0.45,0.25l0.1,0q3,1.3 7.05,1.4l0.5,3.25q0.5,2.35 0.45,2.95m-12.35,-10.8l-0.55,-0.75m1.15,1.4l-0.6,-0.65m-3.05,1.75q0.35,2.15 0.15,5.15m-3.3,-10.1l0.95,0m-4,-0.55l0.7,-2.2m20.65,-1.45l-2.05,-1.25q-0.6,-1.1 -1.65,-2.05q-1.5,-1.35 -3.45,-1.85m-11.15,18.2l-0.75,1l-1,1.05q-1.3,1 -3,1q-1.6,0 -2.9,-0.95l-1.1,-1.1l-0.85,-1.25m9.85,1.95l-1.5,1.6q-1.5,0.95 -3.65,0.95q-2.1,0 -3.65,-0.95l-1.4,-1.4m27.5,5.9l-1,1q-0.75,0.6 -1.55,1.05q-1.95,1 -4.35,1q-2.35,0 -4.25,-0.95l-1.65,-1.1l-1.2,-1.25m14.4,1.95l-2.15,1.6q-2.2,0.95 -5.35,0.95q-3.1,0 -5.35,-0.95l-2.05,-1.4m36.8,-57.35l-0.5,0.2m6.65,0.8q-1.75,-1.35 -4,-1.3l-2.15,0.3m7.65,10.25l-1.2,0.2l-0.55,0.15m-13.55,-14.1l-0.8,0.65q-0.85,0.85 -1.2,1.95m1.3,17.75q-1.7,0.45 -3.1,1.55l-0.4,0.3l-1.05,-0.35q-4.35,-1.35 -6.4,-4.7m-2.7,0.15l-1.35,1.15l0,0.05l-0.85,0.8l0.35,0.5q0,3 1.05,5.9l-1.15,2.05m4.75,-29.6l-0.95,-1.8m-2,37.2q-1,-0.45 -1.95,-2.15q-0.8,-1.45 0.15,-3.65m5,4.2l-1.1,1.15m3.75,3.1q-0.75,0.7 -0.95,1.5q-7.1,-2.6 -11.75,-7.4m6.2,-4.6q1.25,3.2 3.85,6.25l3.6,3.55l-0.15,0.1l-0.8,0.6m4.45,-14q-3.2,3.1 -1.25,6.85l0.5,0.75l-0.4,0.65q-0.9,1.6 -0.5,3.2l0.4,1l-1.4,0.45l-0.3,0.1l-0.55,0.3m2.75,-5.7l1,-1q1.55,-1.2 3.55,-1.45m-5.05,7.3l1.05,1.35l0.45,0.35q0.6,0.5 1.3,0.85m-11.25,0.9q1.65,0.9 2.75,1.15l1.6,-0.15q0.4,1 1.7,1.8m-8.1,-4.05l0.5,1.25m5.85,-0.4l-0.1,0.55l0.15,0.85m30.2,-13.85l0.35,0.1l0.05,0l-0.4,-0.1l-0.2,0m-5.7,19.9l2.25,0.3l0.9,0m0.95,-11.35l1,0.7m-9.75,15.1l-0.45,0l-1.15,-0.05l-1.55,-0.2l-2.1,-0.7l-1,-0.55l-0.7,-0.45m-10,4.6l2.1,0.45l1.6,0.1l0.5,0l0.5,-0.05q1.9,-0.15 3.45,-0.75l1.25,-0.6l1.75,-1.5l0.55,-1.25m5.4,1.25l-0.15,-0.3l0.1,0m-0.65,5.05l-1,1l-1.55,1.05q-1.95,1 -4.35,1l-1.05,-0.05q0.85,-0.65 1.2,-1.4l1.2,0.05q2.85,0 4.8,-1.35l1.5,-1.5m-10.7,5.25l2.85,0.2q3.15,0 5.35,-0.95l2.15,-1.6m3.6,-7.3l0.05,0.05m-28.2,0.7l1.35,0m4.4,1.65l0,0.05q1.85,0.9 2,0.75q-1.05,-0.3 -1.95,-0.85q-1.8,-1.05 -2.25,-2.4m10.65,9.7q1,-0.3 1.8,-0.9l0.2,-0.15m1.2,-1.4l0.2,-0.6m-7.35,3.2l1.1,0.1l0.65,0.05l2.2,-0.3"/>
  </g>
  <g transform="matrix(1,0,0,1,36.15,37.9) " id="sprite0">
   <use id="svg_17" xlink:href="#shape1" width="72.3" transform="matrix(1,0,0,1,-36.15,-37.9) " height="75.8"/>
  </g>
  <g transform="matrix(1,0,0,1,36.15,37.9) " id="shape1">
   <path id="svg_18" stroke-width="0.5" stroke-linejoin="round" stroke-linecap="round" stroke="#54483a" fill="none" d="m-17.45,-25.7l0,-0.2l-0.5,0l0.5,0.2"/>
   <path id="svg_19" stroke-width="2" stroke-linejoin="round" stroke-linecap="round" stroke="#54483a" fill="none" d="m31.75,5.05q-0.25,7.5 -0.05,11.15q0.15,3.65 -0.2,5.3q0.4,0.6 0.45,1.3l-0.1,0.85l-0.65,3.2q-0.3,1.2 -1.3,1.5l-3.15,0.7l-0.3,0.05l-0.6,-2.05l-0.75,2q-1.1,-0.2 -2,-0.9q-1.3,-1.1 -1.45,-2l0,-0.05l0,-0.25l0,-2.4l0,-0.65q0,-0.55 0.25,-1.05q-0.5,-0.85 -0.55,-1.4q-0.55,1.05 -1.75,2.1l-1,0.55l0.05,1q0.2,3.65 -0.3,5.3q0.6,0.6 0.65,1.3l-0.15,0.85l-0.9,3.2q-0.5,1.2 -1.95,1.5l-4.55,0.7l-0.5,0.05l-0.85,-2.05l-1.1,2q-1.65,-0.2 -2.9,-0.9q-1.9,-1.1 -2.15,-2l0,-0.05l0,-0.25l0,-2.4l0,-0.65q-0.05,-0.55 0.4,-1.05q-0.8,-0.95 -0.85,-1.55l-0.15,-1.05l0,-0.05l-3.6,-0.05l-0.25,0.25q-2.55,2.25 -5.45,2.65l-0.3,0.9q-0.5,1.2 -1.95,1.5l-4.55,0.7l-0.25,0l-2.2,0l-2.2,-0.55l-0.7,-3.1l-0.7,2.3l-1.45,-1.55l0,-0.05l0,-0.25l0,-2.4l0,-0.65q-0.05,-0.55 0.4,-1.05l-0.75,-1.2q-0.45,-0.75 -0.5,-1.55l0,-0.25q0,-0.95 0.55,-1.75l0.05,-0.3l-2.75,-0.4q-0.35,0.25 -0.55,-0.1l-0.05,-0.05l-0.05,0.05q-1.1,0.15 -1.95,-0.45q-2.05,-1.5 -2.35,-3.5q-2.2,-0.25 -3.8,-1.65q-1.95,-1.65 -1.9,-3.95q-0.05,-0.85 0.25,-1.6q0.4,-1.3 1.6,-2.35l0.05,-0.05q0.8,-0.7 1.8,-1.05l0.05,0l-0.05,-0.05l-0.05,0q-1.4,-0.25 -2.55,-1.05l-0.4,-0.25l-0.9,-0.85q-0.7,-0.8 -0.95,-1.75l-0.1,-0.95q0,-2.1 1.95,-3.55l1.25,-0.75l0.45,-0.2l0.15,-0.05l-0.35,-0.35l-0.15,-0.1q-2.05,-1.9 -2.05,-4.55l0.15,-1.35q0.25,-1.4 1.2,-2.5l0.85,-0.85q1.2,-1.1 2.7,-1.55l0.35,-0.1l2.25,-0.3l0.15,0l0.4,0.05l0.25,0l-0.05,-0.1l-0.15,-0.2l-0.2,-0.35q-0.8,-1.45 -0.8,-3.2l0.1,-1.35l0.3,-1l0.3,-0.65l0.15,-0.5l0,-0.05q0.3,-0.95 0.1,0.05l1,-1.25l0.75,-0.65q-0.3,-0.95 -0.2,-2.05l0.05,-0.05q0.6,-3.75 3.35,-8.05l0.3,-0.5q1.95,-2.9 2.9,0.35q0.05,1.75 0.8,3.35l-0.3,0.55l-0.3,0.9l-0.1,1.15q0,1.15 0.45,2.15l1.05,-1.65q1.35,-1.35 3.3,-1.3q1.4,-0.05 2.5,0.65q0.5,-1.9 2,-3.35q2.2,-2.2 5.4,-2.2q2.95,0 5.1,1.9l1.3,-1.4q2.65,-2.4 6.4,-2.35q3.75,-0.05 6.4,2.35l1.55,1.75l0.05,0.1l0,-0.1l0.2,0q2.7,0 4.6,2.05l0.9,1.15l0.05,0.2q0.85,1.45 0.95,3.2l2,0.85l0.4,0.3l0.95,0.95q1,0.8 2.45,3.2q1.9,3.1 1.1,6.95q2.7,2.3 3.45,5.45q0.7,3.15 -1.05,5.35q-0.65,1.95 -3.1,3.85q1,2 0.25,4.35l-0.65,1.9l-0.25,0.55l-0.35,0.7"/>
  </g>
  <g id="sprite1">
   <use id="svg_20" xlink:href="#shape2" width="102.95" height="45"/>
  </g>
  <g id="shape2">
   <path id="svg_21" fill-rule="evenodd" fill-opacity="0" fill="#ff00ff" d="m0,0l102.95,0l0,45l-102.95,0l0,-45"/>
  </g>
 </defs>
 <g>
  <title>background</title>
  <rect fill="none" id="canvas_background" height="157" width="149" y="-1" x="-1"/>
 </g>
 <g>
  <title>Layer 1</title>
  <g id="svg_22" transform="matrix(2,0,0,2,0,0) ">
   <use x="43.550003" y="121" id="svg_23" xlink:href="#shape0" width="381" transform="matrix(1,0,0,1,-192.55,-294) " height="381"/>
   <use x="-43.550003" y="121" id="svg_24" xlink:href="#sprite0" width="72.3" transform="matrix(-1,0,0,1,29.4,-120.1) " height="75.8"/>
   <use x="-82.171315" y="-104.305236" xlink:href="#sprite1" width="102.95" transform="matrix(1.8072000000000004,0,0,1.6538,80.75000305175784,168.75) " id="_mcMask" height="45"/>
  </g>
 </g>
</svg>