<svg width="217" height="297" xmlns="http://www.w3.org/2000/svg" xmlns:xlink="http://www.w3.org/1999/xlink">
 <defs>
  <g transform="matrix(1,0,0,1,192.55,294) " id="shape0">
   <path id="svg_1" stroke-opacity="0" stroke-linejoin="round" stroke-linecap="round" stroke="#ff00ff" fill="none" d="m187.95,-293.5l0,380l-379.95,0l-0.05,0l0,-380l380,0m-95,294.1l-189.95,0"/>
   <path id="svg_2" stroke-opacity="0" stroke-linejoin="round" stroke-linecap="round" stroke="#ff00ff" fill="none" d="m187.95,-293.5l-190,190l190,190m-380,-380l190,190l-189.95,190"/>
  </g>
  <g transform="matrix(1,0,0,1,1.5,1.5) " id="shape1">
   <path id="svg_3" stroke-width="3" stroke-linejoin="round" stroke-linecap="round" stroke="#381b00" fill="none" d="m117.1,0l-16.6,16.55l3.45,1.2q9.75,4.05 14.05,8.9q4.3,-8.4 3,-15q-0.7,-3.6 -2.55,-8.4l-1.35,-3.25m0.9,26.65q7,7.95 9.1,11.35q4,6.3 3.9,12.65q-0.1,5.9 -2.4,10.95l-2.3,4.7l1.7,-0.3q1.05,0 1.2,0.5q0.15,0.45 -0.6,1.1q-0.7,0.7 -1.95,1.2l-2.15,1.3l-0.9,3.7l1.9,-0.35q1.05,0 1.2,0.5q0.15,0.45 -0.6,1.1q-0.7,0.7 -1.95,1.2l-0.8,0.65l-0.4,0.35l-0.1,0.5q-0.55,3.25 -0.05,5.4l-3.8,3.4l-1.55,6.25l-1.55,-3.55l-3.9,3.4l-0.85,-6.05l-4.45,8.05l3.4,0.9q2,0.75 2.95,2q1.6,2.1 3.65,3.45q2.3,1.55 3.3,2.65q1.05,1.2 3.1,2.45q2,1.2 2.9,2.8q0.8,1.45 0.75,4.4l0,0.55q-0.2,3.35 -0.75,4.8l-1.2,1.65q5.05,1.9 6.1,5.6q-2.75,-2.85 -7.45,-3.35q4.7,4.3 4.95,9.85q-1.95,-5.7 -6.95,-8.9q1.65,7.55 1.1,15.1l0.05,1.1m-71.1,-119.85q8.4,4.1 10.5,6.8l1.45,-1.55l2.8,-2.95q8.4,-8.7 17.45,-14.9l2.3,-1.6l-1.8,10.3q6.85,-5.05 13.55,-6.4m0.55,-0.1l0.65,-0.15l-3.95,5.35l5.5,1.9m-59,59.6l-0.75,0.75l-0.75,0.8l-1.4,1.55q-2.95,3.35 -3.9,6.1q-0.55,1.55 2.75,3.35l19.55,5.95l3,1l9,2.25q10.3,2.45 13,2.75q2.9,0.35 16.15,-4.75l0.4,-0.15l3.8,-1.5l4.05,0.6q0.15,-0.25 0.3,-0.2l-0.1,0.2l-0.2,0m-40.05,10.45l1,0.15l0.25,0.1l-0.25,-0.4l2,-0.35q1.55,0.25 2.65,0.85q1.8,1 3,2l2.1,-0.25l4.9,0.25q3.65,0.7 5.85,3.8q3.6,-2.25 6.15,-2.8l3.75,-0.35l1.15,0l5.1,0.35q1.55,0.15 4.1,1l-3.95,-8.15l-5.6,-5.75m27.75,-29.45l-1.3,2.35l-0.5,1.45m-0.9,3.7l-0.6,3.05l0,0.05l-0.05,0.35m-7.05,12l3.1,-2.7m-4.1,24.55l-5.15,-0.9q-1.9,0 -4.75,3.45q-2.4,2.9 -9,15l-0.85,1.45l2.2,0.25q6.1,0.45 9.65,-0.7l2.3,-0.8q3.1,-1.25 7.5,-3.5l0.7,-0.35l3.6,-1.95q2.45,-1.55 3.7,-2.75m-3.7,2.75l0.35,0.45m-3.95,1.5q4.65,5.6 5.05,13.6m-14.45,-28.95l1.65,0.55m-34,4.55l-2.2,2.5q3.9,0.55 2.85,4.5l0.25,0l1.35,-0.25l0.25,-1.2l1.45,-2.15q1.95,-2.7 3.3,-3.5l4.75,-3.15l0.1,-0.05m-11.45,10.3l0.1,0.15l0.15,-0.15m18.5,8.35q-3.05,4.7 -8.15,7.55q-2.9,1.6 -8,1.1q-4.55,-0.45 -8,-2.1q-2.45,-1.15 -5.55,-3.95l-3.1,-2.75l-3.35,-4.65q1.55,7.4 -0.75,12.85l-0.25,2.5l-0.55,2l-0.4,1.1l-0.35,0.85l-1.1,2.3q-2.2,4.4 -2.6,5.75q-0.95,3.3 -1,15l-1.5,2.25l-2.5,3.75l-2.85,2.85l2.55,0.9m61.6,-48.55l0.7,4.8q-0.55,3.45 1.1,6.75l0.1,0.2l1.45,3.35q15.35,-2.8 23.45,3.4q-15.5,-1.35 -22.2,6.2l-0.4,2.95q-0.65,4.55 -1.5,7.15l-2.75,7.45l1.55,1.75l-1.05,5q-3.3,1.2 -6.6,0.4l-0.5,1.7q-4.05,0.45 -6.4,-0.8l-0.5,1l-3.75,-0.2l-2.6,-1.6q-1.25,-1.75 -0.8,-2.6l1.4,-3.1l3,-7q0.5,-1.95 -0.05,-3.95q-1.95,0.9 -5.75,1.4l-5.2,0.55l-3.65,-0.1l-0.35,2.25q-1.2,6.55 -2.05,8.25q-0.9,1.7 -1.25,4.2q-0.4,2.5 -1.6,3.35q-1.25,0.8 -2.65,0.95q-1.25,0.1 -2.45,1.1q-3.2,2.65 -7,4l-4.4,0.1l-0.6,-0.1l0,-1.9l-8.3,1.95l-0.55,-2.75l-3.7,0.95q-1.7,-2.8 -1.85,-5.6q0.5,-1.4 1.25,-2.4q0.7,-1 1.65,-1.65l0.65,0.25m67.5,-32.55l0.95,3.2m0.1,0.45l0.3,2.05q0.15,1.35 -0.1,3.9m-2.8,-13.15l0,0.25q0.15,2.05 -0.1,3q-2.25,7.8 -6,11q-3.25,2.75 -12,7l-0.05,0.05m16.05,-25.05l2.1,3.75m-13.25,33.25l4.4,-1.65l1.85,3.1l-0.95,3.15m0.95,-5.4l4.4,-2.55l0.75,0.8m-30.9,-7.55l-1.5,-0.25l-0.05,0l-7.8,0.35m-1,-5l4,3q1.45,1 4.8,1.65l1.65,-0.15l-0.1,0.4m14.3,10.1l2.9,-0.4l2.1,2.9l-1.4,3m-56.25,-101.45q-1.85,-0.8 -12,-0.05q-1.2,0.4 -1,-0.75q0.2,-1.6 3,-6.25q2.1,-3.45 4.6,-6.5l0.4,-0.5l-7,1l0.85,-0.5l6.1,-3.9l-3.65,-2.5l-0.8,-0.6q-8.85,-6.65 -10.5,-12.5q-8.5,-30 7.1,-34.75l0.15,-0.05l0.15,-0.05l15.3,6l8.35,3.8m-16.05,8.75q3.05,1.7 5.6,4.1q3.95,3.8 6.75,9.4q3.05,-6.8 2.1,-10.15l-0.45,-1.05q-2.3,-3.9 -12.4,-12.85l-4.85,-4.1m3.2,46.55q2.3,-1.65 3.05,-2.6q3.7,-4.8 7.45,-11.9l1.9,-3.9m-16.15,-28.65l-3.7,-3.1l-0.2,-0.2l-0.05,-0.05m32.75,85.8q-0.8,1.25 -4.6,3.6q-3.85,2.3 -3.6,7.7l6.2,-1.3l8.1,-0.35m1.5,0.25l1.4,2.1q-0.5,3.4 -3.65,2.65l-0.35,1.35l1.5,0.75l2.65,2.05l1.4,-1.05l0.1,0.15q2.7,0.7 2.35,4.1l0.05,0l0.3,-0.2l0.2,-0.2m-21.75,-10.3l-5.05,1.55l-5.75,2.15l10.6,-0.6l0.55,-0.05q7.75,-0.3 11.05,-0.05l2.15,0.35m-6.35,15l-0.55,-0.75l-5.45,5.1q0.45,-3.05 3,-6.75l-4.1,-8.35l-0.3,-4.5m6.85,14.5l7.25,-6.85l3.45,-3.25m-2.65,-2.05l-1.05,0.65q-3.7,2.5 -7.5,7.2l-1.95,2.65m18.1,6.4l-0.05,-0.75q-1.4,-4.25 -0.9,-8l0.15,-0.9q-1.2,0.7 -2.2,1.6m2.2,-1.6l0.05,-1.95l0,-0.25m-2.45,4.05q-3.35,3.1 -4.75,8.55q0,-8.15 3.4,-14.6l1.1,-1.9m-46.65,31.4q4.7,-3.2 11.05,-4.3q6.2,-1.55 10.2,-0.15l9.75,3.4q-0.05,-0.25 1.7,0.7m-1.7,-0.7l-9.85,0.45l-7.15,4.3m19.05,-4.9l-2.3,-1.75q-1.65,-1.35 -6.5,-3.55m26.9,-14.2q-0.85,1.9 -1.1,4.3m-15.8,9.6q-18.1,-10.4 -38.2,-8.05l4.95,1.55q-3.5,2.05 -7.65,4.8q-8.3,5.55 -11.35,9.2l-2.5,3l-3.5,4l3.2,-0.95l-0.15,1.3q-0.1,10.05 3.95,13.65q2,1.75 13.45,8.3q-1,-2.55 -2.05,-2.9l15.25,2.05l9.05,-2.75l7.8,-1.45m-3.35,15.05l-0.85,-4.35l0.25,-0.2q1.7,-1.4 4.85,-1.3m4.6,6.65l-0.2,-3.65q2.1,-1.4 4.2,-0.45m15.35,-57.9q0.5,-1 1.15,-1.85"/>
   <path id="svg_4" fill-rule="evenodd" fill="#f5c87e" d="m66.3,22.45q8.4,-8.7 17.45,-14.9l2.3,-1.6l-1.8,10.3q6.85,-5.05 13.55,-6.4l-17.25,10.75l-1.8,-4.45l-8.95,15.5l7.5,7.5q-12.6,16.25 -18.3,39.25l17.85,15.65l12.85,1.1l20.6,-9.35l6.9,2.65l-1.25,1.1l-3.9,3.4l-0.85,-6.05l-4.45,8.05q-0.15,-0.05 -0.3,0.2l-4.05,-0.6l-3.8,1.5l-0.5,-0.15l-11.25,2.95l-16.75,-2.95l-23.95,-13.45l0,-5.4l-5.8,-8.75l9.8,-21.45l13.8,-8.7l-1.45,-2.2l3.8,-13.5m-9.35,26.55l-6.85,10.8l11.6,-8.45l-4.75,-2.35m-9.4,17.5l7.85,-3l-6,8.2l10.4,-4.7l-0.6,-9.15l-11.65,8.65"/>
   <path id="svg_5" fill-rule="evenodd" fill="#fd850d" d="m98.35,9.75l0.65,-0.15l-0.3,0.4l-0.35,-0.25m2.2,7.1l16.6,-16.55l1.35,3.25q1.85,4.8 2.55,8.4q1.3,6.6 -3,15q-4.3,-4.85 -14.05,-8.9l-3.45,-1.2m-49,3.3l4.75,7.9l-2.9,5.75l-3.9,-1.8l-0.45,-1.05q-2,-3.4 -9.85,-10.55l-2.55,-2.3l-4.85,-4.1l-0.55,-0.5l-3.7,-3.1l0.15,-0.2l15.05,5.9q4.75,2.05 8.35,3.8l0.45,0.25m5.4,28.85l4.75,2.35l-11.6,8.45l6.85,-10.8m-9.9,135.45l-0.7,-3.55q0.1,-0.15 0.25,-0.2l-0.05,-0.05l-3.65,-2.45q0.7,-1 1.65,-1.65l0.65,0.25l2.85,-2.85l0.3,-0.45l12.7,-6.05l0.05,-0.1l8.15,0.95l2,9l-6.3,3.3l-0.8,3.5l-7.55,3.55l-0.05,0.4l-0.5,-0.1l0,-1.9l-0.15,-2.7l-0.05,-0.95q2.1,-1.4 4.2,-0.45q-2.1,-0.95 -4.2,0.45l0.05,0.95l-8.85,1.1m4.4,-5.05q-3.15,-0.1 -4.85,1.3q1.7,-1.4 4.85,-1.3m-3.7,-1.7l-2.55,-0.9l2.55,0.9"/>
   <path id="svg_6" fill-rule="evenodd" fill="#fadfb4" d="m97.8,9.85l0.55,-0.1l0.35,0.25l-3.65,4.95l5.5,1.9l3.45,1.2q9.75,4.05 14.05,8.9q7,7.95 9.1,11.35q4,6.3 3.9,12.65q-0.1,5.9 -2.4,10.95l-2.3,4.7l-1.3,2.35l-0.5,1.45l-0.9,3.7l-0.6,3.05l0,0.05l-0.05,0.35l-0.1,0.5q-0.55,3.25 -0.05,5.4l-3.8,3.4l-1.85,1.6l-6.9,-2.65l-20.6,9.35l-12.85,-1.1l-17.85,-15.65q5.7,-23 18.3,-39.25l-7.5,-7.5l8.95,-15.5l1.8,4.45l17.25,-10.75m11.55,16.4l0.35,-1.55l-6.15,-0.3l-5.55,0.85l11.7,3.55l3.75,7.55l-3.15,-0.3l7.3,4.75l4.7,18l0.95,-10.15l5.05,3.2l-11.35,-18l3.8,0l-11.4,-7.6m-40.25,48.7l-0.05,0.05l3.5,4.15l14.9,0.5l18.65,-0.95l0.8,-1.3l-0.1,-0.5q-17.3,0.05 -36.3,-4.45l-1.4,2.5m51.8,-5.55l-2.15,2.35l-5.85,2.9l2.4,1.6l4.7,-2.4l0.9,-4.45m-6.5,13q0.35,-0.4 0.3,-0.8q-0.2,-0.65 -1.5,-0.8l-3,0.3q-1.7,0.4 -2.8,1.15q-1.05,0.8 -0.85,1.45l0.25,0.35q-0.35,0.45 -0.25,0.85q0.15,0.6 1.4,0.75l1.85,0l0.45,-0.1l0.6,-0.1l0.15,-0.05q1.7,-0.45 2.75,-1.2q1.1,-0.75 0.95,-1.4l-0.3,-0.4m-5.35,54.55l2.1,3.75l-2.1,-3.75m2.1,3.75l0,0.25q0.15,2.05 -3.2,7.85q-2.8,4.8 -4.85,7.1l-0.8,0.85q-2.25,2.15 -5.75,3.7q-3.55,1.5 -3.55,1.55q-1.95,0.9 -5.75,1.4l-5.2,0.55l-3.65,-0.1l0.1,-0.4l-1.65,0.15q-3.35,-0.65 -4.8,-1.65l-1.85,-1.4l3.6,-5.05l-1.75,-5.55l13.7,-3.9l10.55,-0.75l3.3,-8.7l2.9,0.7l7.4,-4.35l0.15,1q-0.4,2.55 0.35,4.95l0.75,1.8"/>
   <path id="svg_7" fill-rule="evenodd" fill="#ffffff" d="m109.35,26.25l11.4,7.6l-3.8,0l11.35,18l-5.05,-3.2l-0.95,10.15l-4.7,-18l-7.3,-4.75l3.15,0.3l-3.75,-7.55l-11.7,-3.55l5.55,-0.85l6.15,0.3l-0.35,1.55m-61.8,40.25l11.65,-8.65l0.6,9.15l-10.4,4.7l6,-8.2l-7.85,3m21.55,8.45l1.4,-2.5q19,4.5 36.3,4.45l0.1,0.5l-0.8,1.3l-18.65,0.95l-14.9,-0.5l-3.5,-4.15l0.05,-0.05m51.8,-5.55l-0.9,4.45l-4.7,2.4l-2.4,-1.6l5.85,-2.9l2.15,-2.35"/>
   <path id="svg_8" fill-rule="evenodd" fill="#c16102" d="m106.75,94.95l3.4,0.9l-0.05,8.85l4.85,6.7l-5.15,-0.9l-1.65,-0.55l-3.95,-8.15l-1.4,-1.45l1.4,1.45l3.95,8.15l1.65,0.55l5.15,0.9l0.6,0.85l-8.35,4.2l-2.85,5.95l6.6,3.1l10.5,-4.9l5.1,-6.65l0.25,0.2q-0.2,3.35 -0.75,4.8l-1.2,1.65l-3.7,2.75l-3.6,1.95l-0.7,0.35q-4.4,2.25 -7.5,3.5l-2.3,0.8q-3.55,1.15 -9.65,0.7l-2.2,-0.25q-3.05,4.7 -8.15,7.55q-1.15,0.65 -2.7,0.95l-5.3,0.15l-1.25,-0.15q-3.8,-0.55 -6.75,-1.95q-2.45,-1.15 -5.55,-3.95l-3.1,-2.75l-3.35,-4.65l-0.55,-0.75l7.25,-6.85l3.45,-3.25l-2.65,-2.05l-1.05,0.65q-3.7,2.5 -7.5,7.2l-1.95,2.65l-4.1,-8.35l-0.3,-4.5l0.55,-0.05q7.75,-0.3 11.05,-0.05l2.15,0.35l-0.35,1.35l1.5,0.75l-1.5,-0.75l0.35,-1.35q3.15,0.75 3.65,-2.65l-1.4,-2.1l-0.25,-0.4l2,-0.35q1.55,0.25 2.65,0.85q1.8,1 3,2l2.1,-0.25l4.9,0.25q3.65,0.7 5.85,3.8l-0.1,0.05l-4.75,3.15q-1.35,0.8 -3.3,3.5l-0.45,0.65l2.45,7.7l7.65,-2.1l5.75,-8.55l7.45,-5.4l-4.8,-2.15l1.15,0l3.85,-8.25l-4.2,-4.3l3.8,-1.5l4.05,0.6l0.2,0l0.1,-0.2m-55.2,-74.8q8.4,4.1 10.5,6.8l1.45,-1.55l2.8,-2.95l-3.8,13.5l1.45,2.2l-13.8,8.7l-9.8,21.45l5.8,8.75l0,5.4l23.95,13.45l16.75,2.95l11.25,-2.95l0.1,0.3q-13.25,5.1 -16.15,4.75q-2.7,-0.3 -13,-2.75l-9,-2.25l-3,-1l-19.55,-5.95q-3.3,-1.8 -2.75,-3.35q0.95,-2.75 3.9,-6.1l1.4,-1.55q-1.85,-0.8 -12,-0.05q-1.2,0.4 -1,-0.75q0.2,-1.6 3,-6.25q2.1,-3.45 4.6,-6.5l0.4,-0.5l-6.1,0.9l-0.05,-0.4l6.1,-3.9l3.05,-2.6q3.7,-4.8 7.45,-11.9l1.9,-3.9q3.05,-6.8 2.1,-10.15l3.9,1.8l2.9,-5.75l-4.75,-7.9m-10,56.3l-0.75,0.75l-0.75,0.8l0.75,-0.8l0.75,-0.75m29.15,37.4l-1.1,1.9q-3.4,6.45 -3.4,14.6q1.4,-5.45 4.75,-8.55l0.2,-0.25q1,-0.9 2.2,-1.6l-0.15,0.9q-0.5,3.75 0.9,8q0.25,-2.4 1.1,-4.3l0.2,-0.5q0.5,-1 1.15,-1.85l0.15,-0.15l1.35,-0.25l0.25,-1.2l1,-1.5l-1,1.5l-0.25,1.2l-1.35,0.25l-0.25,0q1.05,-3.95 -2.75,-4.4l2.1,-2.6l-2.4,2.7l-0.35,0.2q0.35,-3.4 -2.35,-4.1l-0.1,-0.15l-1.4,1.05l1.4,-1.05l0.1,0.15m37.45,-3.9l-4.1,-1l-5.1,-0.35l5.1,0.35l4.1,1m-34,19.65l-0.05,-0.75l0.05,0.75m21.05,0.8l0.85,-1.45q6.6,-12.1 9,-15q2.85,-3.45 4.75,-3.45q-1.9,0 -4.75,3.45q-2.4,2.9 -9,15l-0.85,1.45"/>
   <path id="svg_9" fill-rule="evenodd" fill="#633101" d="m49.5,32q0.95,3.35 -2.1,10.15l-1.9,3.9q-3.75,7.1 -7.45,11.9l-3.05,2.6l-3.65,-2.5l9.5,-16l-0.2,-9.3l-0.1,-3l-8.75,-15.75l4.85,4.1l2.55,2.3q7.85,7.15 9.85,10.55l0.45,1.05m-2.1,10.15q-2.8,-5.6 -6.75,-9.4q3.95,3.8 6.75,9.4"/>
   <path id="svg_10" fill-rule="evenodd" fill="#cccccc" d="m119.05,86.85l-1.55,6.25l-1.55,-3.55l1.25,-1.1l1.85,-1.6m-55.8,23.4q-3.3,-0.25 -11.05,0.05l-0.55,0.05l-10.6,0.6l5.75,-2.15l5.05,-1.55l6.2,-1.3l8.1,-0.35l0.25,0l0.6,1.35l-0.3,1.85l-3.45,1.45m-7.2,12.95l1.95,-2.65q3.8,-4.7 7.5,-7.2l1.85,0.85l-0.05,0.5l-1.55,3.3l-7.25,6.85l-5.45,5.1q0.45,-3.05 3,-6.75m13.55,-7.45l1.5,0.4l1.1,2.05l-1.05,3.35l-0.2,0.25q-3.35,3.1 -4.75,8.55q0,-8.15 3.4,-14.6m5.8,8.3l-0.2,0.5q-0.85,1.9 -1.1,4.3q-1.4,-4.25 -0.9,-8l1.3,-0.1l0.9,1.25l0,2.05"/>
   <path id="svg_11" fill-rule="evenodd" fill="#666666" d="m63.25,110.25l3.45,-1.45l0.3,-1.85l-0.6,-1.35l1,0.15l0.25,0.1l1.4,2.1q-0.5,3.4 -3.65,2.65l-2.15,-0.35m2.25,3.1l1.05,-0.65l2.65,2.05l-3.45,3.25l1.55,-3.3l0.05,-0.5l-1.85,-0.85m4.1,2.4l1.1,-1.9q2.7,0.7 2.35,4.1l0.05,0l0.3,0.05l-0.05,1.95l0.05,-1.95l0,-0.25l2.4,-2.7l-2.1,2.6q3.8,0.45 2.75,4.4l0.1,0.15q-0.65,0.85 -1.15,1.85l0,-2.05l-0.9,-1.25l-1.3,0.1l0.15,-0.9q-1.2,0.7 -2.2,1.6l1.05,-3.35l-1.1,-2.05l-1.5,-0.4"/>
   <path id="svg_12" fill-rule="evenodd" fill="#984b01" d="m66.4,105.6l-0.25,0l-8.1,0.35l-6.2,1.3q-0.25,-5.4 3.6,-7.7q3.8,-2.35 4.6,-3.6l9,2.25q10.3,2.45 13,2.75q2.9,0.35 16.15,-4.75l0.4,-0.15l4.2,4.3l-3.85,8.25l-1.15,0l-3.75,0.35q-2.55,0.55 -6.15,2.8q-2.2,-3.1 -5.85,-3.8l-4.9,-0.25l-2.1,0.25q-1.2,-1 -3,-2q-1.1,-0.6 -2.65,-0.85l-2,0.35l0,0.3l-1,-0.15m28.8,24.8l2.2,0.25q6.1,0.45 9.65,-0.7l2.3,-0.8l0.55,3.8l-7.4,4.35l-2.9,-0.7l-3.3,8.7l-10.55,0.75l-13.7,3.9l1.75,5.55l-3.6,5.05l1.85,1.4q1.45,1 4.8,1.65l0.05,0l1.5,0.25l-0.35,2.25q-1.2,6.55 -2.05,8.25q-0.9,1.7 -1.25,4.2q-0.4,2.5 -1.6,3.35q-1.25,0.8 -2.65,0.95q-1.25,0.1 -2.45,1.1q-3.2,2.65 -7,4l-4.4,0.1l-0.05,-0.4l7.55,-3.55l0.8,-3.5l6.3,-3.3l-2,-9l-8.15,-0.95l-0.05,0.1l-12.7,6.05l2.2,-3.3l1.5,-2.25l0.05,-4.25q0.1,-4.9 0.45,-7.8q0.2,-1.9 0.5,-2.95q0.4,-1.35 2.6,-5.75l1.1,-2.3l0.35,-0.85l0.4,-1.1l0.55,-2l0.25,-2.5q2.3,-5.45 0.75,-12.85l3.35,4.65l3.1,2.75q3.1,2.8 5.55,3.95q2.95,1.4 6.75,1.95l1.25,0.15l5.3,-0.15q1.55,-0.3 2.7,-0.95q5.1,-2.85 8.15,-7.55m-63.55,-0.3q0.25,2.2 3.95,3.75q3.65,1.5 0.2,1.55l-16.45,0.1l0.35,-0.25l3.55,-2.2l0.25,-0.15l0.15,-0.1l1.2,-0.7l0.2,-0.15l-4.95,-1.55q5.85,-0.7 11.55,-0.3m-27.45,18.1l1.9,-0.5l6.15,-1.15q9.35,2.2 8.6,4.65q-0.8,2.4 -1.95,-1.65q-1.15,-4.1 -13.5,15.35q-2.4,-3.9 -2.3,-11.6l0.15,-1.3l-3.2,0.95l3.5,-4l0.25,-0.3l0.35,-0.45l0.05,0l-0.4,0.45l0.4,-0.45m17.75,24.65l1.55,-6.95q1.25,-4.8 3.6,-9.15q2.2,-4.25 5.9,-6.15l1.9,-0.8q-0.8,0.95 -1.9,2.8l-1.2,2.05q-4.3,7.55 0.2,10.2l0.15,0.05l0.85,0.5q3.9,2.5 4.05,7.05l0,0.95l-3.35,1l-11.75,-1.55m25.25,12.4l-3.7,0.95q-1.7,-2.8 -1.85,-5.6q0.5,-1.4 1.25,-2.4l3.65,2.45l-0.2,0.25l0.7,3.55l0.15,0.8l-0.15,-0.8l8.85,-1.1l0.15,2.7l-8.3,1.95l-0.55,-2.75m63.95,-44.3l0.1,-0.05l1.45,3.35l0.95,3.2l0.1,0.45l-5.9,12.15l-8.75,5.85l-0.4,7.75l-0.8,0.3l0.8,-0.3l3.6,-1.35l1.85,3.1l-0.95,3.15l-0.5,1.7q-4.05,0.45 -6.4,-0.8l-0.5,1l-3.75,-0.2l-2.6,-1.6q-1.25,-1.75 -0.8,-2.6l1.4,-3.1q2.65,-5.7 3,-7q0.5,-1.95 -0.05,-3.95q0,-0.05 3.55,-1.55q3.5,-1.55 5.75,-3.7l0.8,-0.85q2.05,-2.3 4.85,-7.1q3.35,-5.8 3.2,-7.85m-18.45,33l2.9,-0.4l2.1,2.9l-1.4,3l1.4,-3l-2.1,-2.9l-2.9,0.4m-24.65,-15l2.15,1.6l-2.15,-1.6m1,5l7.8,-0.35l-7.8,0.35"/>
   <path id="svg_13" fill-rule="evenodd" fill="#dd7002" d="m126.35,66.6l1.7,-0.3q1.05,0 1.2,0.5q0.15,0.45 -0.6,1.1q-0.7,0.7 -1.95,1.2l-2.15,1.3l0.5,-1.45l1.3,-2.35m-2.7,7.5l1.9,-0.35q1.05,0 1.2,0.5q0.15,0.45 -0.6,1.1l-1.95,1.2l-0.8,0.65l-0.35,-0.05l0.6,-3.05m-25.45,22.1l-0.1,-0.3l0.5,0.15l-0.4,0.15"/>
   <path id="svg_14" fill-rule="evenodd" fill="#a85502" d="m114.4,82.4l0.3,0.4q0.15,0.65 -0.95,1.4q-1.05,0.75 -2.75,1.2l-0.15,0.05l-0.6,0.1l-0.45,0.1l-1.85,0q-1.25,-0.15 -1.4,-0.75q-0.1,-0.4 0.25,-0.85q0.3,0.3 1.15,0.4l1.85,0l0.45,-0.1l0.6,-0.1l0.15,-0.05q1.7,-0.45 2.75,-1.2l0.65,-0.6"/>
   <path id="svg_15" fill-rule="evenodd" fill="#000000" d="m106.8,84.05l-0.25,-0.35q-0.2,-0.65 0.85,-1.45q1.1,-0.75 2.8,-1.15l3,-0.3q1.3,0.15 1.5,0.8q0.05,0.4 -0.3,0.8l-0.65,0.6q-1.05,0.75 -2.75,1.2l-0.15,0.05l-0.6,0.1l-0.45,0.1l-1.85,0q-0.85,-0.1 -1.15,-0.4"/>
   <path id="svg_16" fill-rule="evenodd" fill="#e17202" d="m110.15,95.85q2,0.75 2.95,2q1.6,2.1 3.65,3.45q2.3,1.55 3.3,2.65q1.05,1.2 3.1,2.45q2,1.2 2.9,2.8q0.8,1.45 0.75,4.4l0,0.35l-0.25,0l-5.1,6.65l-10.5,4.9l-6.6,-3.1l2.85,-5.95l8.35,-4.2l-0.6,-0.85l-4.85,-6.7l0.05,-8.85m-22.25,15.9q3.6,-2.25 6.15,-2.8l3.75,-0.35l4.8,2.15l-7.45,5.4l-5.75,8.55l-7.65,2.1l-2.45,-7.7l0.45,-0.65q1.95,-2.7 3.3,-3.5l4.75,-3.15l0.1,-0.05m10.8,61.9l0.4,-7.75l8.75,-5.85l5.9,-12.15l0.3,2.05q0.15,1.35 -0.1,3.9l-0.25,2.05l-0.15,0.9q-0.65,4.55 -1.5,7.15l-2.75,7.45l1.55,1.75l-1.05,5q-3.3,1.2 -6.6,0.4l0.95,-3.15l-1.85,-3.1l-3.6,1.35m5.45,-0.5l4.4,-2.55l0.75,0.8l-0.75,-0.8l-4.4,2.55"/>
   <path id="svg_17" fill-rule="evenodd" fill="#c26b01" d="m126.8,113.95l0,0.2l-0.25,-0.2l0.25,0m-80.65,27.15l-0.85,-0.3q-4,-1.4 -10.2,0.15l-2.1,0.45q-5.05,1.2 -8.95,3.85q3.9,-2.65 8.95,-3.85l2.1,-0.45q6.2,-1.55 10.2,-0.15l0.85,0.3l8.9,3.1l-9.85,0.45l9.85,-0.45l-9.85,0.45l-0.05,0.05q-0.3,1.75 -0.15,3.7q0.25,3.9 1.8,7.5q0.8,1.9 1.95,3.75q1.45,2.25 3.35,4.05l-0.05,4.25l-1.5,2.25l-7.8,1.45l-5.7,1.75l0,-0.95q-0.15,-4.55 -4.05,-7.05l-0.85,-0.5l-0.15,-0.05q-4.5,-2.65 -0.2,-10.2l1.2,-2.05q1.1,-1.85 1.9,-2.8l-1.9,0.8q-3.7,1.9 -5.9,6.15q-2.35,4.35 -3.6,9.15l-1.55,6.95l-3.5,-0.5q1.05,0.35 2.05,2.9q-11.45,-6.55 -13.45,-8.3q-0.95,-0.85 -1.65,-2.05q12.35,-19.45 13.5,-15.35q1.15,4.05 1.95,1.65q0.75,-2.45 -8.6,-4.65l-6.15,1.15l-1.9,0.5l1.85,-2.25q3.05,-3.65 11.35,-9.2l2.3,-1.5l-0.35,0.25l16.45,-0.1q3.45,-0.05 -0.2,-1.55q-3.7,-1.55 -3.95,-3.75q10.1,0.7 19.7,4.85l-0.3,0.2q-2.25,1.7 -3.65,3.75l-1.25,2.2m-8.1,7.85l7.1,-4.25l-7.1,4.25m8.3,31.95l0.2,-0.25l0.05,0.05q-0.15,0.05 -0.25,0.2m10.25,6.75l0.05,0.4l-0.1,0l0.05,-0.4"/>
   <path id="svg_18" fill-rule="evenodd" fill="#8d4e01" d="m27.3,10.15l0.2,0.2l0.05,0.05l3.7,3.1l0.55,0.5l8.75,15.75l0.1,3l0.2,9.3l-9.5,16l-0.8,-0.6q-8.85,-6.65 -10.5,-12.5q-2.2,-7.85 -2.8,-14q-1.6,-17.25 9.9,-20.75l0.15,-0.05m7.75,18.5q1.85,1 3.5,2.3l2.1,1.8l-2.1,-1.8q-1.65,-1.3 -3.5,-2.3"/>
   <path id="svg_19" fill-rule="evenodd" fill="#864800" d="m46.15,141.1l1.25,-2.2q1.4,-2.05 3.65,-3.75l0.3,-0.2q3.5,1.5 6.95,3.5l-0.25,2.5l-0.55,2l-0.4,1.1l-0.35,0.85l-1.1,2.3q-2.2,4.4 -2.6,5.75q-0.3,1.05 -0.5,2.95q-0.35,2.9 -0.45,7.8q-1.9,-1.8 -3.35,-4.05q-1.15,-1.85 -1.95,-3.75q-1.55,-3.6 -1.8,-7.5q-0.15,-1.95 0.15,-3.7l0.05,-0.05l9.85,-0.45l-8.9,-3.1m67.6,6.8l-0.1,-0.45l-0.95,-3.2q15.35,-2.8 23.45,3.4q-15.5,-1.35 -22.2,6.2q0.25,-2.55 0.1,-3.9l-0.3,-2.05m-65.45,-9l0.35,0q4.55,2.05 6.15,3.4l2.3,1.75l-2.3,-1.75q-1.6,-1.35 -6.15,-3.4l-0.35,0m8.45,6q-1.75,-0.95 -1.7,-0.7q-0.05,-0.25 1.7,0.7"/>
   <path id="svg_20" fill-rule="evenodd" fill="#999999" d="m124.85,120.6q5.05,1.9 6.1,5.6q-2.75,-2.85 -7.45,-3.35q4.7,4.3 4.95,9.85q-1.95,-5.7 -6.95,-8.9q1.65,7.55 1.1,15.1q-0.4,-8 -5.05,-13.6l3.6,-1.95l3.7,-2.75m-3.35,3.2l-0.35,-0.45l0.35,0.45"/>
   <path id="svg_21" stroke-width="0.05" stroke-opacity="0.411765" stroke-linejoin="round" stroke-linecap="round" stroke="#633101" fill="none" d="m66.3,22.45q8.4,-8.7 17.45,-14.9l2.3,-1.6l-1.8,10.3q6.85,-5.05 13.55,-6.4m0.55,-0.1l0.65,-0.15l-0.3,0.4l-3.65,4.95l5.5,1.9l16.6,-16.55l1.35,3.25q1.85,4.8 2.55,8.4q1.3,6.6 -3,15q7,7.95 9.1,11.35q4,6.3 3.9,12.65q-0.1,5.9 -2.4,10.95l-2.3,4.7l1.7,-0.3q1.05,0 1.2,0.5q0.15,0.45 -0.6,1.1q-0.7,0.7 -1.95,1.2l-2.15,1.3l-0.9,3.7l1.9,-0.35q1.05,0 1.2,0.5q0.15,0.45 -0.6,1.1l-1.95,1.2l-0.8,0.65l-0.4,0.35l-0.1,0.5q-0.55,3.25 -0.05,5.4l-3.8,3.4l-1.55,6.25l-1.55,-3.55l-3.9,3.4l-0.85,-6.05l-4.45,8.05l3.4,0.9q2,0.75 2.95,2q1.6,2.1 3.65,3.45q2.3,1.55 3.3,2.65q1.05,1.2 3.1,2.45q2,1.2 2.9,2.8q0.8,1.45 0.75,4.4l0,0.35l0,0.2q-0.2,3.35 -0.75,4.8l-1.2,1.65q5.05,1.9 6.1,5.6q-2.75,-2.85 -7.45,-3.35q4.7,4.3 4.95,9.85q-1.95,-5.7 -6.95,-8.9q1.65,7.55 1.1,15.1l0.05,1.1m-4.6,-113.05q-4.3,-4.85 -14.05,-8.9l-3.45,-1.2m16.65,71.6l1.85,-1.6m-52.75,-64.4l-2.8,2.95l-1.45,1.55q-2.1,-2.7 -10.5,-6.8m-2.05,11.85q0.95,3.35 -2.1,10.15l-1.9,3.9q-3.75,7.1 -7.45,11.9l-3.05,2.6l-6.1,3.9m0.05,0.4l6.1,-0.9l-0.4,0.5q-2.5,3.05 -4.6,6.5q-2.8,4.65 -3,6.25q-0.2,1.15 1,0.75q10.15,-0.75 12,0.05l0.75,-0.8l0.75,-0.75m-9.75,-62.45l4.85,4.1l2.55,2.3q7.85,7.15 9.85,10.55l0.45,1.05m10.55,63.95l-3,-1l-19.55,-5.95q-3.3,-1.8 -2.75,-3.35q0.95,-2.75 3.9,-6.1l1.4,-1.55m11.6,32.35l0.55,-0.05q7.75,-0.3 11.05,-0.05m2.9,-4.65l-8.1,0.35l-6.2,1.3l-5.05,1.55l-5.75,2.15l10.6,-0.6l0.3,4.5l4.1,8.35l1.95,-2.65q3.8,-4.7 7.5,-7.2l1.05,-0.65l-1.5,-0.75l0.35,-1.35l-2.15,-0.35m-11.4,-3q-0.25,-5.4 3.6,-7.7q3.8,-2.35 4.6,-3.6l9,2.25q10.3,2.45 13,2.75q2.9,0.35 16.15,-4.75m0.4,-0.15l3.8,-1.5l4.05,0.6q0.15,-0.25 0.3,-0.2l-0.1,0.2l-0.2,0m-18.55,16.6q-2.2,-3.1 -5.85,-3.8l-4.9,-0.25l-2.1,0.25q-1.2,-1 -3,-2q-1.1,-0.6 -2.65,-0.85l-2,0.35l0.25,0.4l1.4,2.1q-0.5,3.4 -3.65,2.65m2,-4.85l-1,-0.15m1.25,0.25l-0.25,-0.1m-1.65,12.25l3.45,-3.25l-2.65,-2.05m3.05,3.05l1.1,-1.9l-0.1,-0.15l-1.4,1.05m1.95,6.8q1,-0.9 2.2,-1.6l0.05,-1.95m-0.3,-0.05l-0.05,0q0.35,-3.4 -2.35,-4.1m53.85,-43.45l0.5,-1.45l1.3,-2.35m-3.35,10.95l0.05,-0.35l0,-0.05l0.6,-3.05m-6.45,14.35l-1.25,1.1m-17.35,6.5l-0.4,0.15m0.4,-0.15l4.2,4.3l1.4,1.45l3.95,8.15l1.65,0.55l5.15,0.9m-27.05,0.35q3.6,-2.25 6.15,-2.8l3.75,-0.35l1.15,0l5.1,0.35l4.1,1m-28.85,9.15l0.45,-0.65q1.95,-2.7 3.3,-3.5l4.75,-3.15l0.1,-0.05m-8.6,7.35l-1,1.5l-0.25,1.2l-1.35,0.25l-0.15,0.15q-0.65,0.85 -1.15,1.85m-0.2,0.5q-0.85,1.9 -1.1,4.3l0.05,0.75m35.65,-19.1q-1.9,0 -4.75,3.45q-2.4,2.9 -9,15l-0.85,1.45l2.2,0.25q6.1,0.45 9.65,-0.7l2.3,-0.8q3.1,-1.25 7.5,-3.5l0.7,-0.35l3.6,-1.95l3.7,-2.75m-97.35,-110.25l-0.15,-0.15l-0.05,-0.05l-0.15,0.05q-11.5,3.5 -9.9,20.75q0.6,6.15 2.8,14q1.65,5.85 10.5,12.5l0.8,0.6m-3.85,-47.7l0.05,0.05l3.7,3.1m-3.55,-3.3l-0.25,-0.1l-0.15,0.05m13.35,22.6l-2.1,-1.8q-1.65,-1.3 -3.5,-2.3m5.6,4.1q3.95,3.8 6.75,9.4m-19.7,-31.95l15.05,5.9q4.75,2.05 8.35,3.8m-22.15,44.95l-0.9,0.1l0.85,-0.5m6.1,-3.9l-3.65,-2.5m-7.3,87.2q3.9,-2.65 8.95,-3.85l2.1,-0.45q6.2,-1.55 10.2,-0.15l0.85,0.3m5.2,-6.15q-9.6,-4.15 -19.7,-4.85q-5.7,-0.4 -11.55,0.3l4.95,1.55l-0.2,0.15l-1.2,0.7l-0.15,0.1l-0.25,0.15l-3.55,2.2l-2.3,1.5q-8.3,5.55 -11.35,9.2l-1.85,2.25l-0.4,0.45l-0.25,0.3l-3.5,4l3.2,-0.95l-0.15,1.3q-0.1,7.7 2.3,11.6q0.7,1.2 1.65,2.05q2,1.75 13.45,8.3q-1,-2.55 -2.05,-2.9l3.5,0.5l11.75,1.55l3.35,-1l5.7,-1.75l7.8,-1.45l1.5,-2.25l0.05,-4.25m-6.95,-19l-7.1,4.25m7.1,-4.25l0.05,-0.05l9.85,-0.45l-8.9,-3.1m-3.25,37.1q-0.75,1 -1.25,2.4q0.15,2.8 1.85,5.6l3.7,-0.95l-0.15,-0.8l-0.7,-3.55q0.1,-0.15 0.25,-0.2q1.7,-1.4 4.85,-1.3m-8.55,-1.2q0.7,-1 1.65,-1.65l0.65,0.25l2.85,-2.85l0.3,-0.45l2.2,-3.3m70.6,-46.85l0.35,0.45m-10.35,16.9l-2.1,-3.75m2.2,3.95l-0.1,-0.2l0,0.25q0.15,2.05 -3.2,7.85q-2.8,4.8 -4.85,7.1l-0.8,0.85q-2.25,2.15 -5.75,3.7q-3.55,1.5 -3.55,1.55q0.55,2 0.05,3.95q-0.35,1.3 -3,7l-1.4,3.1q-0.45,0.85 0.8,2.6l2.6,1.6l3.75,0.2l0.5,-1l1.4,-3l-2.1,-2.9l-2.9,0.4m17.2,-41l0.15,1q-0.4,2.55 0.35,4.95l0.75,1.8m6.4,-15.4q4.65,5.6 5.05,13.6m-13.25,-9.75l0.55,3.8m-39.7,27.6l1.85,1.4q1.45,1 4.8,1.65l1.65,-0.15l-0.1,0.4l3.65,0.1l5.2,-0.55q3.8,-0.5 5.75,-1.4m2.2,-31.6q-3.05,4.7 -8.15,7.55q-1.15,0.65 -2.7,0.95l-5.3,0.15l-1.25,-0.15q-3.8,-0.55 -6.75,-1.95q-2.45,-1.15 -5.55,-3.95l-3.1,-2.75l-3.35,-4.65q1.55,7.4 -0.75,12.85l-0.25,2.5l-0.55,2l-0.4,1.1l-0.35,0.85l-1.1,2.3q-2.2,4.4 -2.6,5.75q-0.3,1.05 -0.5,2.95q-0.35,2.9 -0.45,7.8m61.55,-16.25l-0.95,-3.2l-1.45,-3.35m2.5,7l0.3,2.05q0.15,1.35 -0.1,3.9q6.7,-7.55 22.2,-6.2q-8.1,-6.2 -23.45,-3.4m1.25,9.6l-0.25,2.05l-0.15,0.9q-0.65,4.55 -1.5,7.15l-2.75,7.45l1.55,1.75l-1.05,5q-3.3,1.2 -6.6,0.4l-0.5,1.7q-4.05,0.45 -6.4,-0.8m-19.75,-57.25l-0.1,-0.15q1.05,-3.95 -2.75,-4.4m2.1,-2.6l-2.4,2.7l0,0.25m3.05,4.05l0.25,0m-3.3,-4.3l-0.3,0.2m0.1,2.9l0.15,-0.9m-2.4,1.85q-3.35,3.1 -4.75,8.55q0,-8.15 3.4,-14.6m4.5,13.1q-1.4,-4.25 -0.9,-8m-14.7,4l7.25,-6.85m-6.7,7.6l-0.55,-0.75l-5.45,5.1q0.45,-3.05 3,-6.75m1.05,20.85l-2.3,-1.75q-1.6,-1.35 -6.15,-3.4l-0.35,0m10,-0.45q-3.45,-2 -6.95,-3.5m3.7,9.25q-0.05,-0.25 1.7,0.7m13.45,15.65l-2.15,-1.6m-11.4,29.1l4.4,-0.1q3.8,-1.35 7,-4q1.2,-1 2.45,-1.1q1.4,-0.15 2.65,-0.95q1.2,-0.85 1.6,-3.35q0.35,-2.5 1.25,-4.2q0.85,-1.7 2.05,-8.25l0.35,-2.25l-1.5,-0.25l-0.05,0l-7.8,0.35m-12.4,24.1l-0.1,0l-0.5,-0.1l0,-1.9l-8.3,1.95l-0.55,-2.75m8.7,-1.9l-0.05,-0.95q2.1,-1.4 4.2,-0.45m-4,4.1l-0.15,-2.7m53.4,-11.95l-0.75,-0.8l-4.4,2.55m-6.25,0.8l0.8,-0.3l3.6,-1.35l1.85,3.1l-0.95,3.15m-58,-1.75l2.55,0.9"/>
   <path id="svg_22" stroke-width="0.05" stroke-linejoin="round" stroke-linecap="round" stroke="#000000" fill="none" d="m69.1,74.95l1.4,-2.5q19,4.5 36.3,4.45l0.1,0.5l-0.15,0.25m14.15,-8.25l-2.15,2.35l-6.15,3.05l-0.15,0.1l-2.15,-1.65m5,4.2l4.7,-2.4m-22.15,5.45l-14.9,0.6"/>
   <path id="svg_23" stroke-width="3" stroke-linejoin="round" stroke-linecap="round" stroke="#000000" fill="none" d="m118.15,73.8l-2.1,1.25m-30.7,2.3l7.05,0.75"/>
   <path id="svg_24" fill-rule="evenodd" fill="#ff9900" d="m73.4,87.5q-3.15,0 -5.4,-1.15q-2.2,-1.1 -2.2,-2.65q0,-1.55 2.2,-2.7q2.25,-1.1 5.4,-1.1q3.15,0 5.35,1.1q2.25,1.15 2.25,2.7q0,1.55 -2.25,2.65q-2.2,1.15 -5.35,1.15m47.95,-6.85q-0.7,0.55 -1.7,0.55q-1,0 -1.7,-0.55q-0.7,-0.5 -0.7,-1.2q0,-0.7 0.7,-1.25q0.7,-0.5 1.7,-0.5q1,0 1.7,0.5q0.7,0.55 0.7,1.25q0,0.7 -0.7,1.2"/>
   <path id="svg_25" stroke-width="0.05" stroke-opacity="0.411765" stroke-linejoin="round" stroke-linecap="round" stroke="#633101" fill="none" d="m67.55,106.4l-1.15,-0.2q-7.9,-1.3 -22.25,3.95m26.6,4.8l-0.6,1.2q-2.3,4.7 -3.1,8.85m-0.1,-11.65l-0.8,0.6q-6.15,4.45 -11.3,11.95"/>
   <path id="svg_26" stroke-linejoin="round" stroke-linecap="round" stroke="#ffffff" fill="none" d="m68,86.35q-2.2,-1.1 -2.2,-2.65q0,-1.55 2.2,-2.7q2.25,-1.1 5.4,-1.1q3.15,0 5.35,1.1q2.25,1.15 2.25,2.7q0,1.55 -2.25,2.65q-2.2,1.15 -5.35,1.15q-3.15,0 -5.4,-1.15m53.35,-5.7q-0.7,0.55 -1.7,0.55q-1,0 -1.7,-0.55q-0.7,-0.5 -0.7,-1.2q0,-0.7 0.7,-1.25q0.7,-0.5 1.7,-0.5q1,0 1.7,0.5q0.7,0.55 0.7,1.25q0,0.7 -0.7,1.2"/>
   <path id="svg_27" fill-rule="evenodd" fill="#ffffff" d="m111.5,81.25l1.05,-0.3q0.6,0 1.05,0.3q0.45,0.3 0.45,0.7l-0.45,0.7l-1.05,0.3l-1.05,-0.3q-0.45,-0.3 -0.45,-0.7q0,-0.4 0.45,-0.7"/>
   <path id="svg_28" fill-rule="evenodd" fill="url(#gradient0)" d="m58.5,108.6l-18.2,30q-7.75,12.35 -8.1,12.1q-0.4,-0.2 6.85,-12.85q7.1,-12.65 17.7,-30.3q10.5,-17.7 18.3,-30.05q7.7,-12.3 8.1,-12.1q0.35,0.25 -6.85,12.85l-17.8,30.35"/>
   <path id="svg_29" fill-rule="evenodd" fill="url(#gradient1)" d="m57.15,108.9l-30,-18.2q-12.35,-7.75 -12.1,-8.1q0.2,-0.4 12.85,6.85q12.65,7.1 30.3,17.7l30.05,18.3q12.3,7.7 12.1,8.1q-0.25,0.35 -12.85,-6.85l-30.35,-17.8"/>
   <path id="svg_30" fill-rule="evenodd" fill="#ffffff" d="m11.35,30.35l1.3,-6.3l7.1,4.25l-8.4,2.05"/>
   <path id="svg_31" fill-rule="evenodd" fill="#984b01" d="m128,51.1l0,8.7l-10.25,6.25l0.3,-0.55l2.6,-5.15l0.2,-0.35l0.1,-0.2l0.9,-1.75l0.15,-0.3l-6.95,1.7q6.2,-4.85 12.95,-8.35"/>
   <path id="svg_32" fill-rule="evenodd" fill="#984b01" d="m71.5,54.95l0,8.7l19.05,6.25l-0.55,-0.55l-4.85,-5.15l-0.35,-0.35l-0.2,-0.2l-1.65,-1.75l-0.3,-0.3l12.9,1.7q-11.5,-4.85 -24.05,-8.35"/>
  </g>
  <g id="sprite0">
   <use id="svg_33" xlink:href="#shape2" width="102.95" height="45"/>
  </g>
  <g id="shape2">
   <path id="svg_34" fill-rule="evenodd" fill-opacity="0" fill="#ff00ff" d="m0,0l102.95,0l0,45l-102.95,0l0,-45"/>
  </g>
  <radialGradient spreadMethod="pad" r="819.2" id="gradient0" gradientUnits="userSpaceOnUse" gradientTransform="matrix(0.0011, 7.0E-4, -0.032, 0.0536, 57.65, 108.05)" cy="0" cx="0">
   <stop stop-color="#ffffff" offset="0"/>
   <stop stop-opacity="0" stop-color="#ffffff" offset="1"/>
  </radialGradient>
  <radialGradient spreadMethod="pad" r="819.2" id="gradient1" gradientUnits="userSpaceOnUse" gradientTransform="matrix(-7.0E-4, 0.0011, -0.0536, -0.032, 57.7, 108.05)" cy="0" cx="0">
   <stop stop-color="#ffffff" offset="0"/>
   <stop stop-opacity="0" stop-color="#ffffff" offset="1"/>
  </radialGradient>
 </defs>
 <g>
  <title>background</title>
  <rect fill="none" id="canvas_background" height="299" width="219" y="-1" x="-1"/>
 </g>
 <g>
  <title>Layer 1</title>
  <g id="svg_35" transform="matrix(2,0,0,2,0,0) ">
   <use x="52.050003" y="173" id="svg_36" xlink:href="#shape0" width="381" transform="matrix(1,0,0,1,-192.55,-294) " height="381"/>
   <use x="182.815356" y="-157.351789" id="svg_37" xlink:href="#shape1" width="139.1" transform="matrix(-0.7657999999999999,0,0,0.7657999999999999,247.29880305175783,121.25119999999995) " height="190.9"/>
   <use x="-77.467906" y="-72.862498" xlink:href="#sprite0" width="102.95" transform="matrix(1.8072000000000004,0,0,1.6538,83.00000305175784,138) " id="_mcMask" height="45"/>
  </g>
 </g>
</svg>