<svg width="223" height="250" xmlns="http://www.w3.org/2000/svg" xmlns:xlink="http://www.w3.org/1999/xlink">
 <defs>
  <g transform="matrix(1,0,0,1,192.55,294) " id="shape0">
   <path id="svg_1" stroke-opacity="0" stroke-linejoin="round" stroke-linecap="round" stroke="#ff00ff" fill="none" d="m187.95,-293.5l0,380l-379.95,0l-0.05,0l0,-380l380,0m-95,294.1l-189.95,0"/>
   <path id="svg_2" stroke-opacity="0" stroke-linejoin="round" stroke-linecap="round" stroke="#ff00ff" fill="none" d="m187.95,-293.5l-190,190l190,190m-380,-380l190,190l-189.95,190"/>
  </g>
  <g transform="matrix(1,0,0,1,54.75,61.25) " id="shape1">
   <path id="svg_3" stroke-width="3.5" stroke-linejoin="round" stroke-linecap="round" stroke="#572c02" fill="none" d="m47.15,-35.65l-13.05,-4.15q-8.8,-13.4 -15.85,-17.75q-13.7,-8.25 -20.75,18.65l-2.95,14.8l-1.95,11.6q-2.5,-3 -6.1,-5.1q-6.15,-3.7 -12.8,-3.3l-2.8,0.3l0.8,-0.7l-0.8,-4.9q-7.95,-6.25 -12.6,-12.35l-2,-2.85l-1.6,-2.75l-3.3,2.5l-1.65,16.75l8.15,12.85l-1.5,3.35q-1.1,3.05 -1.8,6.4q-1.1,5.25 -1.25,11.3l-6.35,1.9q6.4,-0.45 6.2,3.55q-0.1,1.75 1.35,4.2q1.85,3.05 6.25,7.2l1.1,0.35l-3,4.45q-2.6,4.1 -3.75,8.55q0.5,2.6 2.35,5l0.1,0.15l0.15,0.2l-3.65,3l3.1,1.6l6.4,-0.6l2.15,0.4l5.5,-1.75l0.5,0.1q4.65,1.05 8.4,3.9l2.75,4q3.2,1.2 6.2,1.05l0.15,0l-0.25,0l1.9,3.2l2.95,0.1l1.95,-5.05q7.6,-4.6 7.3,-8.55l-2.25,-4l1.75,0.15l12.5,-4.45l2.5,-2.95l-3.55,0.25l2.9,-4.45l-2.7,1.2l8.5,-21.1l7,4q5.8,-0.7 11,-2.6q4.8,-1.8 9.1,-4.65l1.7,-9.35q3,-13.8 -0.25,-28.55l-4.15,-5.1z"/>
   <path id="svg_4" fill-rule="evenodd" fill="#d07404" d="m-5.45,-24.1l10.3,2.15l5.6,6.25l-8.6,1.5l-4.45,-3.5l-0.2,4.5l-0.25,0.05l-2.85,2.6l-0.65,-0.9l-0.85,-1.05l1.95,-11.6m4.1,23.7l3.75,1.5l9.7,-7.4l-3.25,-0.3l-9.85,-0.35l3.5,-3.75l21.55,-2.65l-0.8,0.9l1.15,0.1l0.65,-2.35q3.45,-10.85 10.6,-19.45q5.15,-3.2 9.65,-2.1l1.85,0.6l4.15,5.1q3.25,14.75 0.25,28.55l-1.7,9.35q-4.3,2.85 -9.1,4.65l-8.8,-3.65l-1.9,-14.9q-3.3,7.35 -7.3,17.15l-8.5,21.1l2.7,-1.2l-2.9,4.45l3.55,-0.25l-2.5,2.95l-12.5,4.45l-1.75,-0.15l-2.75,-5.1l2.75,5.1l2.25,4q0.3,3.95 -7.3,8.55l-4.65,1.2q5.05,-3.55 5.1,-10.85q-0.4,-1.8 -1.1,-3.25q-1.6,-3.3 -4.8,-5.05l-4.95,1.5q-8.8,-0.4 -17.3,-4.4q-5.1,-0.8 -5.65,-7.25l-0.55,-0.2l-1.1,-0.35q-4.4,-4.15 -6.25,-7.2q4.7,3.2 8.95,4.9l1.6,0.55q2.7,0.9 4.25,-0.45l0.8,-0.95l2.55,1.45l5.25,0.1l7.8,-4.9l2.4,-2.55l5.3,-5.55q-1.3,-0.85 -2.65,-1.25l-0.95,-0.2l-1.35,-0.15l1.55,-1.9q2.55,-3.4 4.1,-7.2l0,0.05l4.7,0.55l-0.2,-1.55m-27.45,28.25q-3.3,0.1 -8.75,-1.45q5.45,1.55 8.75,1.45l0.15,0.35l6.7,-1.05q-1.7,-1.35 -3.65,-0.15q-1.2,0.75 -3.2,0.85m8.55,-0.95l0.8,3.85q-1.2,-2.55 -2.5,-3.6q1.3,1.05 2.5,3.6l-0.8,-3.85l8.85,-0.9l2.95,0l1.5,0.2q2.1,0.45 0.85,1.9q1.3,1.85 2.25,4.8l1.95,3.95l10.15,-4.75l9.55,-30.35l-1.95,0.45l0.4,-1.15l-7.25,1.65l-0.05,-2.6q3.9,-2.45 7.5,-5.25l6.8,-7.3l-6.8,7.3q-3.6,2.8 -7.5,5.25q-5.55,3.5 -11.85,6.25q-1.1,3.6 -3.9,6.75l-3.8,3.8l-0.1,0.05l0.1,-0.05l0,0.25l-0.1,-0.2l-0.1,0.1q-4.35,3.9 -10.05,7.2l0.6,2.65m14.85,-21.35l0.05,0.25l1.55,0.95l0.9,-0.4l-0.9,0.4l-1.55,-0.95l-0.05,-0.25m44.45,-10.05l-0.15,4.65l7.3,-4.65q1.95,-12.05 -3.05,-25.15q-2.3,-0.8 -10.85,18.05l-1.25,2.75l-1,2.3l1,-2.3l1.25,-2.75q8.55,-18.85 10.85,-18.05q5,13.1 3.05,25.15l-7.3,4.65l0.15,-4.65m-87.65,-37.15l2,2.55q4.55,5.7 10.85,12.3l-0.25,2.85q-4.6,-3.6 -10.2,-5.5l2.25,10.55l4,1.7l2.95,3.5l-2.1,3.5l-0.15,0.15l-1.75,-0.3l-1.1,-1.7l-8.15,-12.85l1.4,-14.45l0.25,-2.3m12.2,90.2l-1.9,-0.4q-2.4,-1.7 -3.95,-3.6l0.05,-0.2l8.45,0.7l2.2,-1.05l1,1.4q0.95,1 2.15,1.6l0.15,0.3l-0.5,-0.1l-5.5,1.75l-2.15,-0.4m32.55,-15.65l-2.25,-4.8l-0.85,-1.9l0.85,1.9l2.25,4.8"/>
   <path id="svg_5" fill-rule="evenodd" fill="#ffa717" d="m10.45,-15.7l-5.6,-6.25l-10.3,-2.15l2.95,-14.8q7.05,-26.9 20.75,-18.65q7.05,4.35 15.85,17.75l11.2,3.55q-4.5,-1.1 -9.65,2.1q-7.15,8.6 -10.6,19.45l-0.65,2.35l-1.15,-0.1l0.8,-0.9l-21.55,2.65l-3.5,3.75l-1.05,1.1l0.7,5.45l0.2,1.55l-4.7,-0.55l0,-0.05q-1.55,3.8 -4.1,7.2l-1.55,1.9l-2.15,0.15l-9.3,1l-2.3,2.85l-0.35,0.25l-0.6,1.1l-0.85,1.45l-1.85,3.55l-1.05,2.6l0.1,0.1l-0.8,0.95q-1.55,1.35 -4.25,0.45l-1.6,-0.55q-4.25,-1.7 -8.95,-4.9q-1.45,-2.45 -1.35,-4.2q0.2,-4 -6.2,-3.55l6.35,-1.9q0.15,-6.05 1.25,-11.3q0.7,-3.35 1.8,-6.4l1.5,-3.35l1.1,1.7l1.75,0.3l0.15,-0.15l2.1,-3.5l-2.95,-3.5l-0.65,-0.75l4.4,-3.75l0.2,-2.25l0.25,-2.85q-6.3,-6.6 -10.85,-12.3l-2,-2.55l0.95,-0.7l0.3,0.65l-0.3,-0.65l2.15,-1.65l0.2,-0.15l1.6,2.75l2,2.85q4.65,6.1 12.6,12.35l0.8,4.9l-0.8,0.7l2.8,-0.3q3.65,2.9 3.7,14.05q9.8,-5.35 15.1,-4.75l0.95,0.15l0.65,0.9l2.85,-2.6l0.25,-0.05l4.65,-1l8.6,-1.5l6.45,-0.7l-6.45,0.7m-48.55,41.9l0.55,0.2q0.55,6.45 5.65,7.25q8.5,4 17.3,4.4l4.95,-1.5q3.2,1.75 4.8,5.05q0.7,1.45 1.1,3.25q-0.05,7.3 -5.1,10.85l-0.45,0.35l-1.45,0.2l-0.15,0q-3,0.15 -6.2,-1.05l-2.75,-4q-3.75,-2.85 -8.4,-3.9l-0.15,-0.3l1.95,0.65q2.35,0.5 4,-0.55l1.05,-0.95l1.8,-0.05l0.8,-2.5l-0.5,0.25l-2.7,-1.3l-0.25,-0.1l0.55,-1.25l-0.75,-0.85q-1.65,-1.75 -4,-2.25q-2.4,-0.5 -4.1,0.55q-1.65,1.05 -1.65,3.05q0,1.2 0.65,2.3l-2.2,1.05l-8.45,-0.7l-0.2,0l-0.1,-0.15q-1.85,-2.4 -2.35,-5q1.15,-4.45 3.75,-8.55l3,-4.45m61.25,-42.9l-2.5,1.1l2.5,-1.1m-2.65,-3.95l-2.25,4.8l2.25,-4.8m4.55,5.95l-2.45,0.5l2.45,-0.5m-70.65,-28.25l0.1,-1.05l-0.1,1.05m1.65,2.05l0.25,-0.5l-0.25,0.5m1.85,31.05l-2.55,8l-0.85,2.65l-0.1,1.6l-0.1,0.05l-0.1,1.3l0.1,0.2l-0.35,6.05l2.65,4.55l2.6,1.55q3.2,-3.6 5.3,-7.85l1.7,-3.95l-1.8,-4.25l-0.05,-0.15l-1.8,-4.2q-1.2,-3.7 -4.65,-5.55m36.2,-0.7l-0.85,0.75l0.85,-0.75m-14.7,48.9l-1.1,2.85l1.1,-2.85m-13.9,0.6l-0.45,0.15l-2.05,0.65l0.15,0.35l1,2.75l2.35,-1.15l-1,-2.75m22,1.5l-6.3,3.15l6.3,-3.15m-24.5,-0.7l-2.25,-4.55l2.25,4.55m3.25,-3.55l-1.2,2.9l1.2,-2.9m22.85,20.05l2.05,-0.55l-2.05,0.55"/>
   <path id="svg_6" fill-rule="evenodd" fill="#9f5204" d="m-1,-6.95l9.85,0.35l3.25,0.3l-9.7,7.4l-3.75,-1.5l-0.7,-5.45l1.05,-1.1m-35,-17l-0.2,2.25l-4.4,3.75l0.65,0.75l-4,-1.7l-2.25,-10.55q5.6,1.9 10.2,5.5"/>
   <path id="svg_7" fill-rule="evenodd" fill="#ffd066" d="m-7.4,-12.5l0.85,1.05l-0.95,-0.15q-5.3,-0.6 -15.1,4.75q-0.05,-11.15 -3.7,-14.05q6.65,-0.4 12.8,3.3q3.6,2.1 6.1,5.1m-24.15,56.5q-0.65,-1.1 -0.65,-2.3q0,-2 1.65,-3.05q1.7,-1.05 4.1,-0.55q2.35,0.5 4,2.25l0.75,0.85l-0.55,1.25l0.25,0.1l-1.25,3.65l1.85,-0.05l-1.05,0.95q-1.65,1.05 -4,0.55l-1.95,-0.65l-1.65,-3.7l-1.5,0.7m4.65,1.05l-0.1,-1.5l0.1,1.5"/>
   <path id="svg_8" fill-rule="evenodd" fill="#b35109" d="m-2.8,-13.2l0.2,-4.5l4.45,3.5l-4.65,1m-26,41.05q2,-0.1 3.2,-0.85q1.95,-1.2 3.65,0.15l-6.7,1.05l-0.15,-0.35m8.55,-0.95l-0.6,-2.65q5.7,-3.3 10.05,-7.2l0.1,-0.1l0.1,0.2l0,-0.25l3.8,-3.8q2.8,-3.15 3.9,-6.75q6.3,-2.75 11.85,-6.25l0.05,2.6l7.25,-1.65l-0.4,1.15l1.95,-0.45l-9.55,30.35l-10.15,4.75l-1.95,-3.95q-0.95,-2.95 -2.25,-4.8q1.25,-1.45 -0.85,-1.9l-1.5,-0.2l-2.95,0l-8.85,0.9m43,-16.3q4,-9.8 7.3,-17.15l1.9,14.9l8.8,3.65q-5.2,1.9 -11,2.6l-7,-4m-29.7,15.6l-3.65,-9.05l3.65,9.05"/>
   <path id="svg_9" fill-rule="evenodd" fill="#dba753" d="m-11.5,9.65l1.35,0.15l0.95,0.2q1.35,0.4 2.65,1.25l-5.3,5.55l-3.4,-0.95l0.1,-0.3q-0.4,-1.2 -0.95,-2l0.35,-0.4l0,-0.05l2.1,-3.3l2.15,-0.15m-33.15,-11.5l2.55,-8q3.45,1.85 4.65,5.55l-1.85,3.4l-0.1,-0.05l-0.15,0.35l-1.7,0.5l0.1,0.9l-3.5,-2.65"/>
   <path id="svg_10" fill-rule="evenodd" fill="#4e2701" d="m-27.3,24.15l-2.55,-1.45l-0.1,-0.1l1.05,-2.6l1.85,-3.55l0.85,-1.45l0.35,0.25l0.05,0.3q0.6,1.25 2,0.8q1.4,-1.95 -0.75,-3.15l-0.7,0.45l2.3,-2.85l9.3,-1l-2.1,3.3l0,0.05l-0.35,0.4q-1.95,-2.65 -5.95,-0.8l-0.2,2.95l1.35,2.55l0.85,-0.3l0,0.05l-0.2,0.2l-1.9,1.75q0.05,-1.15 -1.45,-1.8l-1.05,0.75l-0.45,1.15l0.35,0.2l0.1,0.3l0.9,0.8l-3.55,2.8m-12.25,-24.75l0.15,-0.35l0.1,0.05l1.85,-3.4l1.8,4.2l-2.85,-0.8l-1.05,0.3m3.95,0.65l1.8,4.25l-1.7,3.95q-2.1,4.25 -5.3,7.85l-2.6,-1.55l0.5,-3.15l2.75,0.1l0.5,-1.9l-0.6,-1.85l-0.6,0.1l-0.4,-0.3l-0.8,-0.15l0.4,-1.6l0.15,-0.6l-0.1,-0.05l0.2,-0.45q0.5,0.75 1.6,1.4q5.35,-0.6 4.2,-6.05"/>
   <path id="svg_11" fill-rule="evenodd" fill="#f9e2c8" d="m-11.85,16.8l-2.4,2.55l-7.8,4.9l-5.25,-0.1l3.55,-2.8l1.2,-0.15l0.4,-1.25l1.9,-1.75l0.2,-0.2l0,-0.05l0.1,0.05l0.55,0.25q3.1,0.55 4.15,-2.4l3.4,0.95m-32.8,-18.65l3.5,2.65l-0.4,0.55q-0.8,1.95 0.15,3.35l-0.2,0.45l0.1,0.05l-0.15,0.6l-0.4,1.6q-1.5,-0.15 -2.3,1.45q0.25,1.9 1.45,2.55l-0.5,3.15l-2.65,-4.55l0.35,-6.05l0.5,0.9l0.35,-0.15l0.3,0.15q1.4,0.2 1.85,-1.15q-0.75,-2.25 -2.9,-1.3l0.1,-1.6l0.85,-2.65"/>
   <path id="svg_12" fill-rule="evenodd" fill="#723901" d="m-20.05,18l0,-0.05l0,0.05"/>
   <path id="svg_13" fill-rule="evenodd" fill="#db8342" d="m-34.5,38.95l1,2.75l-2.35,1.15l-1,-2.75l-0.15,-0.35l2.05,-0.65l0.45,-0.15m12.5,3.6l2.7,1.3l0.5,-0.25l-0.8,2.5l-1.8,0.05l-1.85,0.05l1.25,-3.65"/>
   <path id="svg_14" fill-rule="evenodd" fill="#b66123" d="m-8.85,55.7l4.65,-1.2l-1.95,5.05l-2.95,-0.1l-1.9,-3.2l0.25,0l1.45,-0.2l0.45,-0.35m-33.4,-11.15q1.55,1.9 3.95,3.6l1.9,0.4l-6.4,0.6l-3.1,-1.6l3.65,-3"/>
   <path id="svg_15" fill-rule="evenodd" fill="#feb336" d="m-28.4,47q-1.2,-0.6 -2.15,-1.6l-1,-1.4l1.5,-0.7l1.65,3.7"/>
   <path id="svg_16" fill-rule="evenodd" fill="#ba711f" d="m-42.2,44.35l-0.05,0.2l-0.15,-0.2l0.2,0"/>
   <path id="svg_17" stroke-linejoin="round" stroke-linecap="round" stroke="#8c3e04" fill="none" d="m-5.45,-24.1l-1.95,11.6l0.85,1.05l0.65,0.9l2.85,-2.6l0.25,-0.05l4.65,-1l8.6,-1.5l6.45,-0.7m-18.05,17.55l-4.7,-0.55m-5.65,9.05l1.35,0.15l0.95,0.2q1.35,0.4 2.65,1.25m-38.9,7.4q1.85,3.05 6.25,7.2l1.1,0.35l0.55,0.2q5.45,1.55 8.75,1.45q2,-0.1 3.2,-0.85q1.95,-1.2 3.65,0.15q1.3,1.05 2.5,3.6l-0.8,-3.85l-0.6,-2.65q5.7,-3.3 10.05,-7.2l0.1,-0.1l0.1,-0.05l3.8,-3.8q2.8,-3.15 3.9,-6.75l-0.9,0.4l-1.55,-0.95l-0.05,-0.25m26.05,-21.15l2.5,-1.1m0.1,4.25l-6.8,7.3q-3.6,2.8 -7.5,5.25q-5.55,3.5 -11.85,6.25m1,30.5l2.75,5.1l1.75,0.15l12.5,-4.45l2.5,-2.95l-3.55,0.25l2.9,-4.45l-2.7,1.2l8.5,-21.1q4,-9.8 7.3,-17.15l1,-2.3l1.25,-2.75q8.55,-18.85 10.85,-18.05q5,13.1 3.05,25.15l-7.3,4.65l0.15,-4.65m-15,-8.85l-0.8,0.9m-0.65,-1.75l2.45,-0.5m-6.8,-1.15l2.25,-4.8m20.25,32.65q4.8,-1.8 9.1,-4.65l1.7,-9.35q3,-13.8 -0.25,-28.55l-4.15,-5.1l-1.85,-0.6l-11.2,-3.55q-8.8,-13.4 -15.85,-17.75q-13.7,-8.25 -20.75,18.65l-2.95,14.8m-40.05,-19.9l0.35,-3.4m-0.35,3.4l-0.1,1.05m-2.05,0.6l0.3,0.65m6.75,23.75l0.65,0.75l2.95,3.5m-2.1,3.5l-0.15,0.15l-1.75,-0.3l-1.1,-1.7l-1.5,3.35q-1.1,3.05 -1.8,6.4q-1.1,5.25 -1.25,11.3l-6.35,1.9q6.4,-0.45 6.2,3.55q-0.1,1.75 1.35,4.2m-3.4,-58l-1.4,14.45l8.15,12.85m-0.6,-30.95l-1,1.6l-0.25,0.5m2.25,2.35q4.65,6.1 12.6,12.35l0.8,4.9m-0.8,0.7l2.8,-0.3q6.65,-0.4 12.8,3.3q3.6,2.1 6.1,5.1m-41.25,-31.8l1,1.95m10.2,38.05q-1.2,-3.7 -4.65,-5.55m6.45,9.75l-1.8,-4.2m1.85,4.35l1.8,4.25m27.05,-14.1l0.85,-0.75m-7.75,20.35l2.15,-0.15m0.8,7.3l0.1,0.2l3.65,9.05l0.85,1.9l2.25,4.8l1.95,3.95m-11.75,-27.05l-9.3,1m14.1,44.9l4.65,-1.2q7.6,-4.6 7.3,-8.55l-2.25,-4m-22.55,-0.75l1.1,-2.85m-13.9,0.6l-0.45,0.15l-2.05,0.65l0.15,0.35l1,2.75l2.35,-1.15l-1,-2.75m-7.75,5.6q1.55,1.9 3.95,3.6l1.9,0.4l2.15,0.4l5.5,-1.75l0.5,0.1m-14,-2.75l-0.15,-0.2m-0.1,-0.15q-1.85,-2.4 -2.35,-5q1.15,-4.45 3.75,-8.55l3,-4.45m16.4,15l-0.55,1.25l0.25,0.1l2.7,1.3l0.5,-0.25l6.3,-3.15m-14.5,3.1l0.1,1.5m4.9,-2.5l-1.25,3.65l1.85,-0.05l1.8,-0.05l0.8,-2.5m-16.15,-4.5l1.2,-2.9m-5.5,-1l2.25,4.55m0.6,8.8l-6.4,0.6l-3.1,-1.6l3.65,-3m33.4,11.15l-2.05,0.55l0.15,0l1.45,-0.2m-1.45,0.2l-0.25,0l1.9,3.2l2.95,0.1l1.95,-5.05m-6.8,1.75l0.1,0q-3,0.15 -6.2,-1.05l-2.75,-4q-3.75,-2.85 -8.4,-3.9m51,-36.7l7,4q5.8,-0.7 11,-2.6"/>
   <path id="svg_18" fill-rule="evenodd" fill="#fffcdf" d="m-35.65,-0.1l0.05,0.15q1.15,5.45 -4.2,6.05q-1.1,-0.65 -1.6,-1.4q-0.95,-1.4 -0.15,-3.35l0.4,-0.55l-0.1,-0.9l2.75,-0.8l2.85,0.8m15.6,18.05l-0.85,0.3l-1.35,-2.55l0.2,-2.95q4,-1.85 5.95,0.8q0.55,0.8 0.95,2l-0.1,0.3q-1.05,2.95 -4.15,2.4l-0.55,-0.25l-0.1,-0.05m-19.6,-8.35l-0.5,1.9l-2.75,-0.1q-1.2,-0.65 -1.45,-2.55q0.8,-1.6 2.3,-1.45l0.8,0.15l0.4,0.3l0.6,-0.1l0.6,1.85m15.85,6.75q-1.4,0.45 -2,-0.8l-0.05,-0.3l-0.35,-0.25l0.6,-1.1l1.05,-0.7q2.15,1.2 0.75,3.15m-0.85,2.55l1.05,-0.75q1.5,0.65 1.45,1.8l-0.4,1.25l-1.2,0.15l-0.9,-0.8l-0.1,-0.3l-0.35,-0.2l0.45,-1.15m-20.2,-14.2l-0.35,0.15l-0.6,-1.1l0.1,-1.3l0.1,-0.05q2.15,-0.95 2.9,1.3q-0.45,1.35 -1.85,1.15l-0.3,-0.15"/>
  </g>
  <g id="sprite0">
   <use id="svg_19" xlink:href="#shape2" width="102.95" height="45"/>
  </g>
  <g id="shape2">
   <path id="svg_20" fill-rule="evenodd" fill-opacity="0" fill="#ff00ff" d="m0,0l102.95,0l0,45l-102.95,0l0,-45"/>
  </g>
 </defs>
 <g>
  <title>background</title>
  <rect fill="none" id="canvas_background" height="252" width="225" y="-1" x="-1"/>
 </g>
 <g>
  <title>Layer 1</title>
  <g id="svg_21" transform="matrix(2,0,0,2,0,0) ">
   <use x="54.550003" y="145" id="svg_22" xlink:href="#shape0" width="381" transform="matrix(1,0,0,1,-192.55,-294) " height="381"/>
   <use x="54.550003" y="145" id="svg_23" xlink:href="#shape1" width="109.5" transform="matrix(1,0,0,1,-53.55,-144.55) " height="122.55"/>
   <use x="-76.084551" y="-89.793204" xlink:href="#sprite0" width="102.95" transform="matrix(1.8072000000000004,0,0,1.6538,96.00000305175784,178.3) " id="_mcMask" height="45"/>
  </g>
 </g>
</svg>