<svg width="291" height="373" xmlns="http://www.w3.org/2000/svg" xmlns:xlink="http://www.w3.org/1999/xlink">
 <defs>
  <g transform="matrix(1,0,0,1,406.8,237.55) " id="shape0">
   <path id="svg_1" fill-rule="evenodd" fill="url(#gradient0)" d="m-319.2,-126.95l0.45,-1.75l-0.2,-0.05l-0.25,1.8m29.05,-56.9l0,0.1l0.05,-0.05l-0.05,-0.05m65.65,78.55q-4.85,-10.7 -11.65,-18.65l-0.8,1.9l-9.7,5.15l-6.95,1.9q-2,8.4 -2.5,18.1l1.3,5.45l5.8,-1.2l-5.8,2.05l0,0.9l9.7,-4.75l7.55,-2.5q8.3,1.7 13.3,8.25q0.3,-7.15 -0.25,-16.6m-134.35,-9.35l0.05,0l0,-0.05l-0.05,0.05m28.6,-37.25l-5.15,7.55l-2.2,3.5l-1.6,2.65l-1.8,3.05l-0.7,-7.7q6.1,-30.95 29.25,-44.8q4.8,-2.95 10.45,-5.1l2.5,-0.95l-9.8,-2.35l-0.1,-0.2l-5.2,-3.35q14.05,-0.6 27.85,2.05l4.75,-2.9l5.65,2.4l2.35,4.15l7.55,2.75l5.45,-1.15l2.5,4.05l8.7,4.25l-1.2,-5.15l-18.2,-46.8q21.5,21.15 28.8,40.55l5.4,15.6q15.75,-13.7 27.25,-17.85l1.25,1.65q-2.6,3.55 -4.15,7.55q6.6,-0.85 22.25,-0.3q-11.4,5.75 -14.85,9.85q6.2,3.15 10.85,9.5l0.25,1.15q7.65,-0.75 14.95,0.95q6.6,4.55 11.35,9.45q3.25,3.4 5.6,6.95q3.05,4.6 4.6,9.5q-1,7 -3.15,14.05l-4.45,0l0.05,0.15l4.4,0l8.05,0.55q11.5,10.5 13.7,20.25l0,1.3l-0.15,3.2q-0.25,1.8 -0.8,3.6q-1.45,4.6 -4.85,9.25l-4.15,2.55l-4.4,3.15l1.5,1.55q3.65,4 6.6,8.85l1.65,2.8l1.7,3.4q-0.95,4.7 -2.25,9.05l-0.4,1.25l-1.8,19.3l-25.5,13.2l11.65,-12.45l-21.35,1.1q-3.7,-2.4 -8.35,-4.1q-4.7,-1.75 -9.15,-6.45q-4.45,-4.7 -12,-13.65l1.45,-2.55l8,4.6l-11.05,-16.05l19.45,10.45l6,-3.45l0.1,-0.8l-2.8,1.25l0.55,-4.9l4.25,-6.6l-0.25,-0.3l-0.15,-0.15l-3.3,-3.7q-2.35,-2.8 -4.05,-5.55q-3.25,-5.2 -4.35,-10.25l-0.3,-1.5l2.25,-6.1l0.4,-0.95l-7.05,-6.6q-5.95,-7.4 -7.65,-14.1l-2.75,0.5l-3.65,0.1q4.7,10.55 4.95,19.8l-8.95,-8.05q0.4,9.4 -1.75,17.65l-3.15,10.05l1.55,2.8l1.7,4.15q-3.85,18.6 -8.65,29.85q-3.85,12.85 -5.55,25.7q-0.85,6.35 -1.15,12.75l1.9,5.55l-3.95,15l0.35,1.5l0.75,-0.3l1.45,5.45l2.95,5l2.35,0.7q1.3,0.5 2.55,1.25l9.15,12.05l5.1,7.65l-4.2,1.6l3.9,11l0.05,0.05l0.1,0.3l0.55,0.45l3.75,6.3l0.3,8.8q-12.8,8.5 -33.2,15.7l-1.1,0.4l-0.35,0.05l7.15,14.25l-0.65,1l-34,2.9q-12.25,-2.7 -23.9,-6.8l-76.25,0l3.45,-12.05l9.15,-20.4l0,-2.05l-2.35,-2.4q9.6,-12.7 12.2,-25.35l2.5,0.7l2.1,-3.9l2.15,-0.65l-6.4,-19.3l-9.2,-7.6l0.35,-1.05q3.35,-11.05 9.3,-21.45q-9.3,2.45 -30.25,16.6l-11.1,2.75l-5.7,2.1l-10.3,-18.1l-0.85,-13.55l0,-0.1l8.15,-54.75l2.3,-27.1q4.9,-5.25 12.65,-8.35q9.65,-5.5 20,-8.95l1.65,-1.9q3.7,-1.3 7.5,-1.6q1.8,2.15 2.5,5.05l0,2.75q1.7,6.8 5.05,13.35l0.85,1.65l-2,0.9l1.25,3.55l-3.2,1.6l-2.8,4.5l-0.3,-0.1l-0.05,0.05l-0.9,2.85l-3.75,0l-11.9,1.6l-8.4,-3q-5.95,27.5 -4.15,48.75l5.4,16.6l1.9,-1.7q6.05,-2.6 11.3,-5.3q11.95,-6.25 19.55,-13.15q-0.55,-5.05 0.45,-10.1q3.1,-7.8 20.95,-11.4q2,-1.55 5.05,-2.9l0.3,-0.15l3.85,-1.35l1.55,-0.3l1.9,-0.1l0.65,0.15l-0.8,-0.2l12.35,-1.8l5.55,0.6l4.2,-1.7l-2.75,1.85l0.7,0.05l3.25,-0.9l0.75,-11.95q-0.35,-2.4 -2.75,-1.95l-0.1,0.05q-2.95,0.6 -6,-0.4l-0.05,0l-0.5,-0.2q-4.75,-2.7 -10.2,-5.15l-0.9,4.4q-1.1,6.6 -0.75,13.1l-2,-1q-2.6,-8.2 -3.7,-16.35l-0.4,-3.4l-1.3,-0.5q-4.3,-2.2 -6.15,-4.6l-0.1,0.1q-3.2,3.85 -6,13.3l0.45,-7.65l-2.6,-0.95q1.2,-12.55 5.25,-25.2q-1.2,-6.1 -3.5,-11.95l-1.45,-1.4l-0.4,0.8l0,0.05q-2.25,5.2 -4.15,10.9q-3.15,-7.3 -0.25,-14.6l2.35,-8.65l-0.4,-0.35m8.7,18.8l0,-1.55l-0.1,0.55l0.1,1m81.8,153.7l-0.6,-7.4l-3.9,4.9l-6.5,-0.5l-0.95,-0.75l-0.8,-0.6q-6.75,-5.5 -11.05,-11.9l-3.8,-14.85q-3.6,4.5 -2.5,12.15l3.95,4.8l-3.8,3.35l-0.05,0.05l0,-0.05l-0.15,-0.25l-0.8,1.15l0.95,-0.85l8.2,13.65l5.1,0.9l0.3,1.1l0.7,-0.3l3.4,-0.1q6.7,-3.55 12.3,-4.5"/>
   <path id="svg_2" stroke-width="3.25" stroke-linejoin="round" stroke-linecap="round" stroke="#33170a" fill="none" d="m-330.25,-151.9l0.4,0.35l-2.35,8.65q-2.9,7.3 0.25,14.6q1.9,-5.7 4.15,-10.9l0,-0.05l0.4,-0.8l1.45,1.4q2.3,5.85 3.5,11.95q-4.05,12.65 -5.25,25.2l2.6,0.95l-0.45,7.65q2.8,-9.45 6,-13.3l0.1,-0.1q1.85,2.4 6.15,4.6l1.3,0.5l0.4,3.4q1.1,8.15 3.7,16.35l2,1q-0.35,-6.5 0.75,-13.1l0.9,-4.4q5.45,2.45 10.2,5.15l0.5,0.2l0.05,0q3.05,1 6,0.4l0.1,-0.05q2.4,-0.45 2.75,1.95l-0.75,11.95l-3.25,0.9l-0.7,-0.05l2.75,-1.85l-4.2,1.7l-5.55,-0.6l-12.35,1.8l0.8,0.2l-0.65,-0.15l-1.9,0.1l-1.55,0.3l-3.85,1.35l-0.3,0.15q-3.05,1.35 -5.05,2.9q-17.85,3.6 -20.95,11.4q-1,5.05 -0.45,10.1q-7.6,6.9 -19.55,13.15q-5.25,2.7 -11.3,5.3l-1.9,1.7l-5.4,-16.6q-1.8,-21.25 4.15,-48.75l8.4,3l11.9,-1.6l3.75,0l0.9,-2.85l0.05,-0.05l0.3,0.1l2.8,-4.5l3.2,-1.6l-1.25,-3.55l2,-0.9l-0.85,-1.65q-3.35,-6.55 -5.05,-13.35l0,-2.75q-0.7,-2.9 -2.5,-5.05q-3.8,0.3 -7.5,1.6l-1.65,1.9q-10.35,3.45 -20,8.95q-7.75,3.1 -12.65,8.35l-2.3,27.1l-8.15,54.75l0,0.1l0.85,13.55l10.3,18.1l5.7,-2.1l11.1,-2.75q20.95,-14.15 30.25,-16.6q-5.95,10.4 -9.3,21.45l-0.35,1.05l9.2,7.6l6.4,19.3l-2.15,0.65l-2.1,3.9l-2.5,-0.7q-2.6,12.65 -12.2,25.35l2.35,2.4l0,2.05l-9.15,20.4l-3.45,12.05l76.25,0q11.65,4.1 23.9,6.8l34,-2.9l0.65,-1l-7.15,-14.25l0.35,-0.05l1.1,-0.4q20.4,-7.2 33.2,-15.7l-0.3,-8.8l-3.75,-6.3l-0.55,-0.45l-0.1,-0.3l-0.05,-0.05l-3.9,-11l4.2,-1.6l-5.1,-7.65l-9.15,-12.05q-1.25,-0.75 -2.55,-1.25l-2.35,-0.7l-2.95,-5l-1.45,-5.45l-0.75,0.3l-0.35,-1.5l3.95,-15l-1.9,-5.55q0.3,-6.4 1.15,-12.75q1.7,-12.85 5.55,-25.7q4.8,-11.25 8.65,-29.85l-1.7,-4.15l-1.55,-2.8l3.15,-10.05q2.15,-8.25 1.75,-17.65l8.95,8.05q-0.25,-9.25 -4.95,-19.8l3.65,-0.1l2.75,-0.5q1.7,6.7 7.65,14.1l7.05,6.6l-0.4,0.95l-2.25,6.1l0.3,1.5q1.1,5.05 4.35,10.25q1.7,2.75 4.05,5.55l3.3,3.7l0.15,0.15l0.25,0.3l-4.25,6.6l-0.55,4.9l2.8,-1.25l-0.1,0.8l-6,3.45l-19.45,-10.45l11.05,16.05l-8,-4.6l-1.45,2.55q7.55,8.95 12,13.65q4.45,4.7 9.15,6.45q4.65,1.7 8.35,4.1l21.35,-1.1l-11.65,12.45l25.5,-13.2l1.8,-19.3l0.4,-1.25q1.3,-4.35 2.25,-9.05l-1.7,-3.4l-1.65,-2.8q-2.95,-4.85 -6.6,-8.85l-1.5,-1.55l4.4,-3.15l4.15,-2.55q3.4,-4.65 4.85,-9.25q0.55,-1.8 0.8,-3.6l0.15,-3.2l0,-1.3q-2.2,-9.75 -13.7,-20.25l-8.05,-0.55l-4.4,0l-0.05,-0.15l4.45,0q2.15,-7.05 3.15,-14.05q-1.55,-4.9 -4.6,-9.5q-2.35,-3.55 -5.6,-6.95q-4.75,-4.9 -11.35,-9.45q-7.3,-1.7 -14.95,-0.95l-0.25,-1.15q-4.65,-6.35 -10.85,-9.5q3.45,-4.1 14.85,-9.85q-15.65,-0.55 -22.25,0.3q1.55,-4 4.15,-7.55l-1.25,-1.65q-11.5,4.15 -27.25,17.85l-5.4,-15.6q-7.3,-19.4 -28.8,-40.55l18.2,46.8l1.2,5.15l-8.7,-4.25l-2.5,-4.05l-5.45,1.15l-7.55,-2.75l-2.35,-4.15l-5.65,-2.4l-4.75,2.9q-13.8,-2.65 -27.85,-2.05l5.2,3.35l0.1,0.2l9.8,2.35l-2.5,0.95q-5.65,2.15 -10.45,5.1q-23.15,13.85 -29.25,44.8l0.7,7.7l1.8,-3.05l1.6,-2.65l2.2,-3.5l5.15,-7.55m-28.6,37.25l0.05,-0.05l0,0.05l-0.05,0m134.35,9.35q0.55,9.45 0.25,16.6q-5,-6.55 -13.3,-8.25l-7.55,2.5l-9.7,4.75l0,-0.9l5.8,-2.05l-5.8,1.2l-1.3,-5.45q0.5,-9.7 2.5,-18.1l6.95,-1.9l9.7,-5.15l0.8,-1.9q6.8,7.95 11.65,18.65m-65.65,-78.55l0.05,0.05l-0.05,0.05l0,-0.1m-29.05,56.9l0.25,-1.8l0.2,0.05l-0.45,1.75m-2.35,-6.15l0,-1.55l-0.1,0.55l0.1,1m81.8,153.7q-5.6,0.95 -12.3,4.5l-3.4,0.1l-0.7,0.3l-0.3,-1.1l-5.1,-0.9l-8.2,-13.65l-0.95,0.85l0.8,-1.15l0.15,0.25l0,0.05l0.05,-0.05l3.8,-3.35l-3.95,-4.8q-1.1,-7.65 2.5,-12.15l3.8,14.85q4.3,6.4 11.05,11.9l0.8,0.6l0.95,0.75l6.5,0.5l3.9,-4.9l0.6,7.4"/>
  </g>
  <g transform="matrix(1,0,0,1,29.85,8.95) " id="sprite0">
   <use id="svg_3" xlink:href="#shape1" width="59.7" transform="matrix(1,0,0,1,-29.85,-8.95) " height="17.9"/>
  </g>
  <g transform="matrix(1,0,0,1,29.85,8.95) " id="shape1">
   <path id="svg_4" fill-rule="evenodd" fill="#7380d7" d="m5.3,1.4l-0.25,0.05l-0.45,0.05l-0.15,0l-1.45,0.3l-2.3,0.7l0.75,-1l7.3,-6.15l21.1,-4.3l-19.2,6.85l-2.6,3.05l-1.45,0.4l-0.65,0l-0.4,0.05l-0.25,0m-15.1,4.85l-3.9,1.15l-15.2,1.55l0.2,-0.4l0.1,-0.65l-0.05,-0.05l-0.4,-0.4l-0.8,-0.2l12.35,-1.8l7.7,0.8"/>
  </g>
  <g transform="matrix(1,0,0,1,61.25,89.35) " id="sprite1">
   <use id="svg_5" xlink:href="#shape2" width="122.45" transform="matrix(1,0,0,1,-61.25,-89.35) " height="178.75"/>
  </g>
  <g transform="matrix(1,0,0,1,61.25,89.35) " id="shape2">
   <path id="svg_6" fill-rule="evenodd" fill="#faa844" d="m5.15,-71.2l0.1,0.25l-0.75,0.25l2.2,6.2l-0.65,-6.75l-0.4,0.15l-0.5,-0.1m39,-15.45l1.75,2l-5.5,2.45l-0.8,4.2l-4.9,5.05l0,26.5l6.95,26.95q-3.6,4.5 -2.5,12.15l3.95,4.8l-3.8,3.35l-0.05,0l-4.55,-7.5l-10.3,-1.5l0,-0.05l-0.05,0.05l-32.5,-4.6q-26.25,2.85 -31.8,6.95l1.5,9.85l-9.2,-7.6l0.35,-1.05l0.6,-2l1.05,-3.05q3.05,-8.4 7.65,-16.4l1.9,-3.2l2.3,-3.6l2.1,-3.05l-0.75,-1.2l-0.05,-0.05l-1.5,-2.35l4.6,-5.65l-0.75,-1.55l-1.2,-2.95l-0.05,-0.2l0,-0.2l-0.15,-0.05l-0.95,-3.15q-0.8,-2.9 -1.1,-5.8q-0.55,-5.05 0.45,-10.1q3.05,-7.75 20.7,-11.35l0.1,0.1l-0.1,0.05l-1.55,1.7l-0.05,0.75l0.35,0.4l1.3,0.25l0.05,0l1.2,-0.15l2.6,-0.6l3.2,-1.25q2.3,-1.05 4.05,-2.2l3.8,1.7l13.95,-5.5l10.15,-2.9q-1.65,0.9 -2.85,1.9l-0.2,0.15q-1.05,0.85 -1.35,1.5q-0.25,0.45 -0.1,0.8l0.4,0.35l0.45,0.2l0.9,0.05l0.15,0.3l0.05,0.1l0,-0.1l0.65,-0.35l0.15,-0.05l0.05,0l0.1,0q2.55,-0.45 5.8,-1.85l4.05,-2.2l1.15,-0.85l1.15,-1.1l7,2.7m8.4,102.05l8.65,29.55l-0.4,13.25q-10.35,-0.6 -22.35,-3.1l-5.55,-1.2q-22.65,-5.25 -50.85,-16.65l-17.55,-7.45l0,-0.1l-0.2,-0.4l0.75,-4l0.75,-1.35l2.15,-0.65l2.15,-0.8l5.15,-1.8l3.5,-1.1q12.45,-3.9 27.4,-6.85l11.9,-2.1l10.15,0.4l6.55,1.2l0.05,0l12.5,2.25l0.15,0l5.1,0.9m-63.5,-91.8l0.05,0.2l0.25,-0.2l-0.3,0m-29.7,137.15l6.25,4.2q23.55,15.4 49.4,24.45l-76.25,0l3.45,-12.05l9.15,-20.4l0,-2.05l3.75,2.8l4.25,3.05"/>
  </g>
  <g transform="matrix(1,0,0,1,102.35,106) " id="sprite2">
   <use id="svg_7" xlink:href="#shape3" width="204.65" transform="matrix(1,0,0,1,-102.35,-106) " height="212"/>
  </g>
  <g transform="matrix(1,0,0,1,102.35,106) " id="shape3">
   <path id="svg_8" fill-rule="evenodd" fill="#be7216" d="m50.95,-58.8l-5.1,2.75q-7.15,4 -9.75,7.1q6.2,3.15 10.85,9.5l0.25,1.2q7.65,-0.8 14.95,0.9q6.6,4.55 11.35,9.5l3.8,4.35l0.05,0.05l0.45,0.6l0.3,0.4l1,1.5q3.05,4.6 4.6,9.5q-0.75,5.2 -2.1,10.4l-1.05,3.8l5.75,0.3l2.3,0.25q11.5,10.5 13.7,20.25l0,1.3l-0.15,3.2l-0.8,3.6q-1.45,4.6 -4.85,9.25l-1.5,0.9q-1.35,0.75 -2.65,1.65l-4.4,3.15l1.5,1.55q3.65,4 6.6,8.85l1.65,2.8l1.7,3.4l-1.25,5.55l-0.65,2.45l-0.25,0.75l0,0.05l-0.1,0.25l-0.2,0.65l-0.2,0.6l-1.8,19.3l-25.5,13.2l11.65,-12.45l-21.35,1.1l-3.95,-2.2l-4.4,-1.9q-4.7,-1.75 -9.15,-6.45q-4.45,-4.7 -12,-13.65l1.45,-2.55l8,4.6l-11.05,-16.05l19.45,10.45l6,-3.45l0.1,-0.8l-2.8,1.25l0.55,-4.9l4.25,-6.6l-0.25,-0.3l-0.15,-0.15l-3.3,-3.7q-2.35,-2.8 -4.05,-5.55q-3.25,-5.2 -4.35,-10.25l-0.3,-1.5q0.85,-2.75 1.95,-5.4l0.3,-0.7l0.4,-0.95l-7.05,-6.6q-5.95,-7.4 -7.65,-14.1l-2.75,0.5l-3.65,0.1q4.7,10.55 4.95,19.8l-4.75,-4.3l-4.2,-3.75q0.4,9.4 -1.75,17.65l-3.1,10.05l-1.4,-2q0.3,-7.15 -0.25,-16.6q-4.85,-10.7 -11.65,-18.65l-0.8,1.9l-9.7,5.15l-6.95,1.9l2.15,-10.9l2.7,-7.4l4.45,-0.75q4,-5.4 4.35,-11.3l0,-0.3l0,-1.3l-0.1,-1.6l-2.9,-3.05l-5.35,8.4l-12.8,12.7q-1.85,4.25 -4,8.4l-2.25,4.2l-2.05,3.6l-1.35,2.2l-0.05,-11.55l-6.9,3l-0.4,-2l7.25,-7.35l-0.15,-20.25l-11,10.55l11,-18.05l0,-0.2l-0.05,-5.4q-1.75,4.15 -3.85,8.3l-0.8,1.55l-0.2,0.35l-3,5.2q-3.25,5.4 -7.2,10.7l-0.65,0.9q-3.25,4.25 -6.9,8.45l-2.4,-0.2q3.9,-6.45 8.4,-17.7q1.25,-3.2 1.95,-7.05l0.6,-3.95q1,-7.2 0.9,-14.25q-0.1,-4.15 -0.75,-8.3l-1.1,-5.25l-4.05,0.8l-0.05,0.05q-24.15,13.25 -36.85,42.65l-0.6,1.4l-0.2,0.45l0,0.05l-0.7,1.7l-1.05,2.6q-2.05,4.95 -2.65,5.5l-0.25,-0.5l-0.35,-0.75l-0.2,-0.6q-0.85,-3.35 -0.6,-7.05q0.2,-2.7 1,-5.55l-0.25,0l1.9,-6.35l0.9,-1.95l0.1,-0.15l-0.3,0.4l-5.15,7.55l-2.2,3.5l-1.6,2.65l-1.8,3.05l-0.7,-7.7q1.15,-5.75 2.9,-10.9q7.5,-22.65 26.35,-33.9q4.6,-2.8 9.95,-4.9l0.5,-0.2l2.5,-0.95l-9.8,-2.35l-0.1,-0.2l-5.2,-3.35q14.05,-0.6 27.85,2.05l4.75,-2.9l5.65,2.4l2.35,4.15l7.55,2.75l5.45,-1.15l2.5,4.05l8.7,4.25l-1.2,-5.15l-18.2,-46.8q10.55,10.4 17.7,20.4q7.35,10.3 11.1,20.15l5.4,15.6q15.75,-13.7 27.25,-17.85l1.25,1.65q-2.6,3.55 -4.15,7.55l4.3,-0.35l0.1,0l1.25,-0.05l1.45,-0.05l7.1,-0.05l8.05,0.2m-2.3,23.05l-1.15,-1.05l0.15,0.9l0.05,0.5l0.95,-0.35m26.4,38.35l-0.1,0.2l0.3,0l-0.2,-0.2m-125.8,-56.45l-0.05,-0.05l0,0.05l0.05,0m-15.05,90.25q-1.1,6.6 -0.75,13.1l-2,-1q-2.6,-8.2 -3.7,-16.35l-0.4,-3.4l2.05,0.8q2.95,1.15 5.7,2.45l-0.9,4.4m-15.2,-14l0.9,1.25l-0.1,0.1q-3.2,3.85 -6,13.3l0.45,-7.65l-2.6,-0.95q1.2,-12.55 5.25,-25.2l0.45,2.75l0.1,0.65l0.1,0.65l0.25,2.3l0.05,0.5l0.05,0.85l0.05,0.55l0,1.35q0,2.05 -0.3,5.15l0.3,1.6q0.25,1.4 1.05,2.8"/>
  </g>
  <g transform="matrix(1,0,0,1,405.55,236.3) " id="shape4">
   <path id="svg_9" fill-rule="evenodd" fill="#9a5815" d="m-191.85,-166.75l1.15,1.05l-0.95,0.35l-0.05,-0.5l-0.15,-0.9"/>
   <path id="svg_10" fill-rule="evenodd" fill="#763e14" d="m-164.1,-127.15l-0.3,0l0.1,-0.2l0.2,0.2"/>
   <path id="svg_11" fill-rule="evenodd" fill="#ac5f13" d="m-329,65.55l0.05,0.15l-0.05,-0.05l0,-0.1"/>
   <path id="svg_12" fill-rule="evenodd" fill="#443c2b" d="m-237.45,10.55l0.75,0.05l0.75,-0.3l1.45,5.45l4.95,8.35l0.05,0.05l-5.2,5.25l-4.5,-2.75l-1,-11.4q0,-1.6 0.35,-2.65q2.15,-2.5 2.35,-1.95l0.05,-0.1"/>
   <path id="svg_13" fill-rule="evenodd" fill="#8f4b1b" d="m-298.4,-151.1l0.05,0.15l-0.1,-0.15l0.05,0m-5.35,10.55l-5.4,0.5l3.4,-7.25l-0.8,2.4l0.5,2.2l0.35,-1.75l0.1,-0.5l0.25,-0.75l0.05,0l0.5,2.2l1.05,2.95"/>
   <path id="svg_14" fill-rule="evenodd" fill="#fbd9b9" d="m-360.8,-97.05l0.05,-0.3l0.35,0.3l-0.4,0m33.2,-42.65l-0.1,0.25l0.1,-0.25l0,0.05l0,-0.05l0.6,-1.4l-0.4,1.05l-0.2,0.4l-0.1,0.2l-0.1,0.2l0.2,-0.45m-34.55,102.75q11.95,-6.25 19.55,-13.15q0.3,2.9 1.1,5.8l-10.7,7.05l-9.95,0.3m68.65,-55.65l-0.05,0l-0.5,-0.2l-1.05,-0.6l-7.9,-5.55l-5.6,-2.1l-7.7,-4.7l-0.75,-1.6l-0.5,-2.45l-0.05,-0.15l-1.45,-0.7l0.7,-5.2l1.65,-4.15l0.9,1.8q2.65,1.6 3.7,-3.45l0.4,-0.7l2.45,-4.4l-1.4,-3.3q-1.6,2.55 -5.4,4.05l-2.85,-1.9l0.15,-0.8l2.75,0.75l3.15,-2.15l-3.35,-0.2q2.05,-8.65 9.1,-6.55l2.45,0.1l2.45,-1.4l0.2,0.1l0.5,-0.45l0.4,0.2l0.1,0l0.2,0.1l0.55,-0.35l0.65,-0.4l6.2,-5.35q3.05,-1.8 3.75,-1.1l0.1,-0.3l1.9,-0.1q-4.5,11.25 -8.4,17.7l2.4,0.2l6.9,-8.45l-4.55,10.8l3.15,0.75l0.3,-0.15l1.85,-1l3.75,-0.75l0.2,0l8.55,-7.2l-1.8,4.7l4.45,-3.3l0,2.5l-7.25,7.35l0.4,2l6.9,-3l0,3l-3.1,5.4l1.1,2.85q-6.8,15.8 -14.2,19.2q-3.2,1.45 -6.5,0.6m44.85,-0.1l3.55,-1.75l7.55,-2.5q8.3,1.7 13.3,8.25l1.4,2l1.5,2.8l-8.1,-4.65q-8.55,-4.15 -16.5,3.35l-6.25,8.45l-1.1,-0.4l-3.15,-1.1l-2.6,3.5l2.6,-3.5l3.15,1.1l0,4.7l3.45,-0.85l1.3,-2.2l0.1,0l5.65,-7.15l5.7,0l0.75,2.15q-3.7,0.7 -7.45,9.25l0.1,13.35l-10.95,13.45q-3,2.05 -8.95,3.55l-8.2,-2.6l4.65,16.8l5.2,29l9.45,13.95q-6.75,-5.5 -11.05,-11.9l-3.8,-14.85l-6.95,-26.95l0,-14.2l1.6,-0.25l0.95,-4.5l0.4,-2.25l0.15,-0.65l-1.75,-3.75l-1.35,0.9l0,-1.8l2.45,-2.5l1.45,2.65l1,-5.2l0.8,-4.2l5.5,-2.45l-1.75,-2l-7,-2.7l0.35,-0.45l0.15,-0.3q0.15,-0.35 0.05,-0.65l-0.15,-0.25l-0.8,-0.35l1.45,-0.4l-0.65,0.75l0.65,-0.75l2.3,-0.65l1.6,-0.45l11.6,-5.65l6.65,-3.2m-72.9,-27.65q0.5,-2.45 1.65,-4.8l0.15,0.05l0.4,-0.1l0.35,0.7q-1.3,2.05 -2.45,5.5l-0.05,-0.85l-0.05,-0.5m4.9,-9.45l-0.05,0l0.2,-0.2l-0.15,0.2m28.3,26.6q-1.6,1.2 -4.05,1.45l3,0.25q2.1,0 3.5,-4.3q-0.9,1.4 -2.45,2.6m25.8,27.65l-0.55,-0.1l0.55,0.1l-2.4,3.35l0.4,5.1l2.9,-4.15l2.6,-3.5l-3.5,-0.8m-8.05,13.05l0.2,-1.3l-0.2,1.3m-0.45,2.3l-0.15,0.9l0.15,-0.9m4.85,-3.7l-0.9,-2.8l-1.25,0.15l-3.45,16.4l7.75,1.65l7.05,-2.4l5.85,-9.05l1.1,-10.75l-6.5,2.2l-0.8,-2.3l-3.25,0.85l-1.15,1.9l-3.55,4.05l-0.9,0.1m4.5,87.1l0.15,0.3l-0.15,0l0,-0.3m-19.1,-3.15l-10.15,-0.4l-11.9,2.1q-14.95,2.95 -27.4,6.85l-3.5,1.1l-5.15,1.8l-3.35,-6.3l10.6,-8.75q18.1,-6.85 47.1,-7.6l4.6,3.85l-0.85,7.35"/>
   <path id="svg_15" fill-rule="evenodd" fill="url(#gradient1)" d="m-327,-141.1q12.7,-29.4 36.85,-42.65l0.05,-0.05l4.05,-0.8l1.1,5.25q0.65,4.15 0.75,8.3q0.1,7.05 -0.9,14.25l-0.6,3.95l-0.45,0.05l-2.85,0.55l-0.3,0.05l-0.3,-0.4q-6.3,-7.75 -11,-2.65l-0.9,1.1q-1.55,2.1 -2.85,5.65l-0.95,2.7l-0.05,0.1l-0.25,0.75l-0.1,0.5l-0.35,1.75l0.45,-4.9l7.3,-15.45q2.65,-2.45 7.25,-3.7q-4.6,1.25 -7.25,3.7l-7.3,15.45l0,-0.1l-0.15,0.4l-3.4,7.25l5.4,-0.5l0.2,0.6l1.15,1.05l0.3,0.25l0.3,0l0.3,0.15l-0.5,0.45l-0.2,-0.1l-2.45,1.4l-2.45,-0.1q-7.05,-2.1 -9.1,6.55l-0.15,0.6l-0.15,-0.3l-0.05,-0.35l-0.05,-0.1l0.25,-1.5l-0.35,-1.5l-0.1,-0.5l-1,-0.9l-0.85,-0.65l-0.05,-0.05l-0.85,-0.45l-0.7,-0.15q-0.85,-0.1 -1.15,0.85l-0.15,0.65l-0.1,0.55l-0.3,3.6l0.35,0.45l0.05,0.2q0.2,2.15 1.05,4.3l0.6,0.4q-1.15,2.35 -1.65,4.8l-0.25,-2.3l-0.1,-0.65l-0.1,-0.65l-0.45,-2.75q-1.2,-6.1 -3.5,-11.95l-1.45,-1.4l0.4,-1.05m8.5,4.8l-7.45,-2.35l7.45,2.35m7.5,-4.5l1.75,0.9l0.1,-0.15l-0.1,0.15l-1.75,-0.9m7.7,2.5l0.25,-0.05l-0.55,-0.15l0.3,0.2m-13.65,2.35l1.65,0.15l-1.65,-0.15m4.4,-1.2q-2.5,-0.35 -4.8,-4.9q2.3,4.55 4.8,4.9"/>
   <path id="svg_16" fill-rule="evenodd" fill="url(#gradient2)" d="m-287.4,-92.25l-0.1,0.05q-2.95,0.6 -6,-0.4q3.3,0.85 6.5,-0.6q7.4,-3.4 14.2,-19.2l-1.1,-2.85l3.1,-5.4l0.05,8.55l1.35,-2.2l2.05,-3.6l-0.05,4.35q5.4,-5.3 9.15,-17.3q5.65,-3.15 10,-7.5l0.2,-0.15l0.25,-0.25l0.15,-0.3l1.6,-1.95q1.85,-2.45 3,-4.85q1.05,-2.15 1.5,-4.25l1.5,1.55l0.1,1.6l0,1.3l0,0.3q-0.35,5.9 -4.35,11.3l-4.45,0.75l-4.95,1.05l-2.35,11l4.6,-4.65l-2.15,10.9q-2.2,9.25 -2.45,18.05l0.6,5.6l-0.75,0.15l-3.6,0.75l-10.3,2.1l-3.25,2.75q5.7,-8.5 6.45,-20.75l-14.05,10.85q-2.2,1.75 -4.45,2.65l-2,0.6m45.45,-54.55l-1.1,0.95l1.1,-0.95m-6.3,8.45l3.45,-1.5l-1.25,-1.15l1.25,1.15l-3.45,1.5m-6.3,6.25l0.85,-0.15l-0.85,0.15m-23.4,50.7l-0.2,0.2l-0.4,0.15l0.6,-0.35m5.05,-0.95l0.65,0l0.8,0.35l0,0.05l0,-0.05l0.15,0.25l-0.05,-0.05l-0.1,-0.15l-0.85,-0.35l-0.1,-0.05l-0.5,0m2.1,-0.4l2.6,-3.05l12.85,-4.6l0.05,0.9l-11.6,5.65l-1.6,0.45l-2.3,0.65"/>
   <path id="svg_17" fill-rule="evenodd" fill="#c78038" d="m-378.15,-106.05l-0.35,-0.55l0.45,0.6q3.8,4 13.9,-5.5l0.2,0.35l-2.4,3l-0.95,1.2l-1.1,1.35l-5,6.25l-2.5,0l0.7,-1.9l-1.1,-1.8l-1.85,-3m17.4,8.7l0.85,-2.55l0.65,-1.8l5.1,-0.3l0.5,0.75l3.35,-3.85l-10.15,1.85l-2.1,-5.35l-0.9,-1.65l4.4,2.85l6.1,1.25l7.55,-2.75l0.85,1.65l-2,0.9l1.25,3.55l-3.2,1.6l-2.8,4.5l-0.3,-0.1l-0.05,0.05l-0.9,2.85l-3.75,0l-4.1,-3.15l-0.35,-0.3m8.05,-15.7l0.25,0.8l-4.25,0l-0.2,-0.25l-0.5,-0.55l2.85,-1.2l1.85,1.2l-1.85,-1.2l-2.85,1.2l-1.4,-1.6l0,-0.05l1.75,-0.7l2.55,-2.3l0,-1.25l1.8,5.9m4.2,11.85l-1.95,0.95l-1.85,0.9l-0.05,0l-1.3,-1.9l1.3,1.9l0.05,0l1.85,-0.9l1.95,-0.95m-1.25,-4l1.2,-0.25l2,-0.9l-2,0.9l-1.2,0.25m2.05,116.6l-1.25,-8.25q5.55,-4.1 31.8,-6.95l23.05,3.25q-26.5,-2.8 -49.1,7.7l-4.5,4.25m-2.75,-111.65l-1.15,3.45l1.15,-3.45m83.1,-17.65l2.25,-4.2q2.15,-4.15 4,-8.4l12.8,-12.7l5.35,-8.4l1.4,1.5q-0.45,2.1 -1.5,4.25l-4.2,3.75l1.2,1.1l-1.2,-1.1l4.2,-3.75q-1.15,2.4 -3,4.85l-1.6,1.95l-0.15,0.3l-0.25,0.25l-0.2,0.15q-4.35,4.35 -10,7.5q-3.75,12 -9.15,17.3l0.05,-4.35m15.65,-18.95l3.45,-1.5l-3.45,1.5m-67.2,8.95l2.85,1.9l3.05,1.95l1.3,1.7l-0.4,0.7q-1.05,5.05 -3.7,3.45l-0.9,-1.8l-0.05,-0.15l-2.25,-4.35l-0.35,-0.7l-0.1,-0.65l0.25,-1.1l0.3,-0.95m16.5,-11l0.6,0.25l-0.3,0l-0.3,-0.25m-2.95,-6.8l0.05,-0.1l0.95,-2.7l-0.45,5l-0.5,-2.2l-0.05,0m0.05,-0.1l0,0.1l0,-0.1m56.55,12.5l-2.7,7.4l-4.6,4.65l2.35,-11l4.95,-1.05m13.75,56.65l1.7,4.9l-1.95,3.45l3.3,2.75l0,0.25l-3.1,2l-0.1,2.25l0.6,1.2l-1.3,2.95l0.15,0.7l0,1.5l-1.1,0.75l-0.1,-2.5l-2.85,-8.85l2.25,-7.9l0.5,-3.2l0,-0.05l0.2,-0.05l0.95,2.8l-0.95,4.05l-0.95,4.1l1.9,8.65l-1.9,-8.65l0.95,-4.1l0.95,-4.05l-0.95,-2.8l1.8,-0.15m-1.8,7l1.55,1.35l-1.55,-1.35m-24.9,92.85l0,0.3l-12.5,-2.25l-0.05,0l-1.55,-0.25l-0.15,-6.4l-3.2,-7.05l-5.45,-6.75l10.3,1.5l4.4,7.25l-0.8,1.15l0.95,-0.85l8.05,13.35"/>
   <path id="svg_18" fill-rule="evenodd" fill="#e1aa68" d="m-401.25,-8.35l0,-6.55l-1.75,-12.5l17.75,-74.25q6.2,-1.1 3.55,-6.4q2.05,1.4 3.55,2l1.85,3l-4.7,6.85l0,0.05l-3.15,0.5l-7.2,41.3l-0.35,19l1.25,15.5l-2.25,8.9l-4.95,4.65l2.65,3.5l-0.5,-0.35l3.7,6.65l-2.25,0.85l-7.05,-12.35l-0.15,-0.35m23.2,-97.65q2.45,0.8 1.55,-2.35l12.9,-12.2l9.65,-5.45l3.5,3.1l0,0.65q1.7,6.8 5.05,13.35l-7.55,2.75l-6.1,-1.25l-4.4,-2.85l-0.5,-0.9l-0.2,-0.35q-10.1,9.5 -13.9,5.5m21.35,-6.25l4.25,0l-0.25,-0.8l0.9,0.55l-0.9,-0.55l-1.8,-5.9l0,-1.4l0,1.4l0,1.25l-2.55,2.3l-1.75,0.7l-0.05,0.05l0.05,0l1.4,1.6l0.5,0.55l0.2,0.25l0.15,0.2l0,1.55l0,-1.55l-0.15,-0.2m-3.1,-3.6l1,1.15l-1,-1.15m-4.35,4.35l-0.7,-1.3l1.5,-1.85l4.5,0l-4.5,0l-1.5,1.85l0.7,1.3m-9.55,80.05l0.25,-0.2q3.6,-1.55 6.95,-3.15l0.4,-0.2q2.05,-0.95 3.95,-1.95l9.95,-0.3l10.7,-7.05l0.95,3.15l0.15,0.25l0.05,0.2l1.2,2.95l-5.7,5.25l-0.1,0.05l-7.35,2.65l-0.1,-0.2l-8.45,2.45l-11.35,-1l-1.5,-2.9m97.8,-121.7l0.2,-0.35l0.8,-1.55q2.1,-4.15 3.85,-8.3l0.05,5.4l0,0.2l-11,18.05l6.5,-6.25l0.6,-0.6l3.9,-3.7l0.1,10.25l0,0.4l0.05,7.1l-4.45,3.3l1.8,-4.7l-8.55,7.2l-0.2,0l-3.75,0.75l-1.85,1l-0.3,0.15l-3.15,-0.75l4.55,-10.8l0.65,-0.9q3.95,-5.3 7.2,-10.7l3,-5.2m-9.8,0.3q-0.7,3.85 -1.95,7.05l-1.9,0.1l0.5,-1.45l0.1,-0.35l-0.05,-0.25l0,-4.05l-0.3,-0.4l0.3,-0.05l2.85,-0.55l0.45,-0.05m-30.35,26.85q3.8,-1.5 5.4,-4.05l1.4,3.3l-2.45,4.4l-1.3,-1.7l-3.05,-1.95m27.7,22.8q1.55,-1.2 2.45,-2.6q-1.4,4.3 -3.5,4.3l-3,-0.25q2.45,-0.25 4.05,-1.45m25.8,27.65l3.5,0.8l-2.6,3.5l-2.9,4.15l-0.4,-5.1l2.4,-3.35m9.25,-1.6l1.1,0.4l3.65,1.25l-1.3,2.2l-3.45,0.85l0,-4.7m16.95,-3.35l1.35,3.85l-1.8,0.15l-0.2,0.05l0,0.05l-0.5,3.2l-2.25,7.9l2.85,8.85l0.1,2.5l1.1,-0.75l0,-1.5l-0.15,-0.7l1.3,-2.95l-0.6,-1.2l0.1,-2.25l3.1,-2l-0.65,4.55l2,11.95l-5,3.55q-8.45,5.35 -10.15,-6.4l-6.45,10.35q-8.35,6.1 -14.85,4.85l-2.05,-0.85l1.95,10.6l-4.65,-16.8l8.2,2.6q5.95,-1.5 8.95,-3.55l10.95,-13.45l-0.1,-13.35q3.75,-8.55 7.45,-9.25m-33.05,11.5l-1,5.2l-1.45,-2.65l2.45,-2.55m-23.15,-7.3l-13.95,5.5l-3.8,-1.7l1.15,-0.85l1.4,-1.4l15.2,-1.55m55.35,-1.2l0.4,1l-0.4,-1m1.5,23.65l0,-0.85l0,0.85"/>
   <path id="svg_19" fill-rule="evenodd" fill="#ab9d72" d="m-301.5,-154.15l0.9,-1.1q4.7,-5.1 11,2.65q-2.9,-2 -7.3,0.25l-1.5,1.25l-0.6,-2.9l-1.2,-0.85l-1.3,0.7m-4.25,6.85l0.15,-0.4l0,0.1l-0.15,0.3l0.15,-0.3l-0.45,4.9l-0.5,-2.2l0.8,-2.4m-14.5,11.15l0.7,0.15l0.85,0.45l0.05,0.05l0.85,0.65l1,0.9l0.1,0.5l0.35,1.5l-0.25,1.5l0,0.1l-0.1,0.55l-0.5,0.45l-1.55,0.65l-0.2,-0.05l0.2,-1.2q0.15,-2.5 -0.35,-4.95l-1.15,-1.25m-1.4,2.05l0.1,1l-0.05,3.05l-0.35,-0.45l0.3,-3.6"/>
   <path id="svg_20" fill-rule="evenodd" fill="url(#gradient3)" d="m-301.5,-154.15l1.3,-0.7l1.2,0.85l0.6,2.9l-0.05,0l0.1,0.15q0.35,3.25 -0.1,6.45q-0.65,2.95 -2.15,5.25l-0.4,0.6l-0.8,0l-0.6,-0.25l-1.15,-1.05l-0.2,-0.6l-1.05,-2.95l0.45,-5q1.3,-3.55 2.85,-5.65"/>
   <path id="svg_21" fill-rule="evenodd" fill="#d9d5bd" d="m-298.4,-151.1l1.5,-1.25q4.4,-2.25 7.3,-0.25l0.3,0.4l0.3,0.4l0,4.05l0.05,0.25l-0.1,0.35l-0.5,1.45l-0.1,0.3q-0.7,-0.7 -3.75,1.1l-6.2,5.35l-0.65,0.4l-0.55,0.35l-0.2,-0.1l-0.1,0l-0.4,-0.2l-0.3,-0.15l0.8,0l0.4,-0.6q1.5,-2.3 2.15,-5.25q0.45,-3.2 0.1,-6.45l-0.05,-0.15"/>
   <path id="svg_22" fill-rule="evenodd" fill="#000000" d="m-303.3,-138.3l-0.3,-0.2l0.55,0.15l-0.25,0.05"/>
   <path id="svg_23" fill-rule="evenodd" fill="url(#gradient4)" d="m-316.7,-129.8l0.1,-0.55l0,-0.1l0.05,0.1l0.05,0.35l0.15,0.3q-0.7,0.45 -0.5,0.2l0.2,-0.3l0.15,-0.2l-0.2,0.2"/>
   <path id="svg_24" fill-rule="evenodd" fill="url(#gradient5)" d="m-320.25,-136.15l1.15,1.25q0.5,2.45 0.35,4.95l-0.2,1.2l-0.25,1.8l-0.25,1.1l0.1,0.65l-0.4,0.1l-0.15,-0.05l-0.6,-0.4q-0.85,-2.15 -1.05,-4.3l-0.05,-0.2l0.05,-3.05l0,-1.55l0.15,-0.65q0.3,-0.95 1.15,-0.85"/>
   <path id="svg_25" fill-rule="evenodd" fill="#fde9d7" d="m-351.3,-127.45l-6.35,0.3l-9.15,5.25l-22.85,11.6l-3.1,6.7l0.35,1.15l-5.8,41.35l-2.65,4.55l3.8,-25.6l2.3,-27.1q4.9,-5.25 12.65,-8.35q9.65,-5.5 20,-8.95l1.65,-1.9q3.7,-1.3 7.5,-1.6q1,1.2 1.65,2.6m56.2,34.05q-4.3,-2.4 -9.15,-4.55l-5.7,-2.45l-2.05,-0.8l-1.3,-0.5q-4.3,-2.2 -6.15,-4.6l-0.9,-1.25q-0.8,-1.4 -1.05,-2.8l-0.3,-1.6q0.3,-3.1 0.3,-5.15l0,-1.35l-0.05,-0.55q1.15,-3.45 2.45,-5.5l2.25,4.35l0.05,0.15l-1.65,4.15l-0.7,5.2l1.45,0.7l0.05,0.15l0.5,2.45l0.75,1.6l7.7,4.7l5.6,2.1l7.9,5.55m-21.1,-36.9l3.35,0.2l-3.15,2.15l-2.75,-0.75l1.55,-0.65l0.5,-0.45l0.05,0l-0.2,0.3q-0.2,0.25 0.5,-0.2l0.15,-0.6"/>
   <path id="svg_26" fill-rule="evenodd" fill="url(#gradient6)" d="m-285.4,-78.35l0.75,-11.95l-0.3,-1.05q-0.65,-1.2 -2.45,-0.9l2,-0.6q2.25,-0.9 4.45,-2.65l14.05,-10.85q-0.75,12.25 -6.45,20.75l-4.05,3.4l-0.55,0.8l-0.6,0.35l-1.15,0.5l-0.3,0.15l-2.4,1.2l-3,0.85"/>
   <path id="svg_27" fill-rule="evenodd" fill="url(#gradient7)" d="m-400.85,-56.55l2.65,-4.55l5.8,-41.35l-0.35,-1.15l3.1,-6.7l22.85,-11.6l9.15,-5.25l6.35,-0.3l0.85,2.45l0,2.1l-3.5,-3.1l-9.65,5.45l-12.9,12.2q0.9,3.15 -1.55,2.35l-0.45,-0.6l0.35,0.55q-1.5,-0.6 -3.55,-2q2.65,5.3 -3.55,6.4l-17.75,74.25l1.75,12.5l0,6.55l-3.1,-5.4l-0.85,-13.65l4.35,-29.15"/>
   <path id="svg_28" fill-rule="evenodd" fill="url(#gradient8)" d="m-376.3,-103.05l1.1,1.8l-0.7,1.9l-0.7,1.95l0,2.1q-5.95,27.5 -4.15,48.75l5.4,16.6l1.65,-1.5l1.5,2.9l11.35,1l8.45,-2.45l0.1,0.2l7.35,-2.65l0.1,-0.05l5.7,-5.25l0.75,1.55l-4.6,5.65l1.5,2.35l-37.5,25.3l-11.4,3.2l-4.6,-3.1l-2.65,-3.5l4.95,-4.65l2.25,-8.9l-1.25,-15.5l0.35,-19l7.2,-41.3l3.15,-0.5l0,-0.05l4.7,-6.85m-1.65,9.35l1.35,-3.7l-1.35,3.7m-0.35,76.05q1.4,-1.5 2.2,-4.9q-0.8,3.4 -2.2,4.9m2.4,-6.85l0.55,-5.45l-0.55,5.45"/>
   <path id="svg_29" fill-rule="evenodd" fill="#8f5826" d="m-367.3,-106.95l0.95,-1.2l1.7,3.25l0,3.85l4.75,1.15l-0.85,2.55l-0.05,0.3l-1.05,-0.05l-1.6,-1.2l-3,-4.45l-0.85,-4.2"/>
   <path id="svg_30" fill-rule="evenodd" fill="#754a22" d="m-368.4,-105.6l1.1,-1.35l0.85,4.2l-1.95,-2.85"/>
   <path id="svg_31" fill-rule="evenodd" fill="#b37231" d="m-375.9,-99.35l2.5,0l5,-6.25l1.95,2.85l3,4.45l1.1,2.85l-1.1,2.5l-4.75,0.65l-8.4,-3l0,-2.1l0.7,-1.95m9.55,-8.8l2.4,-3l0.5,0.9l0.9,1.65l2.1,5.35l10.15,-1.85l-3.35,3.85l-0.5,-0.75l-5.1,0.3l-0.65,1.8l-4.75,-1.15l0,-3.85l-1.7,-3.25"/>
   <path id="svg_32" fill-rule="evenodd" fill="#a86a2d" d="m-363.45,-98.3l1.6,1.2l1.05,0.05l0.4,0l4.1,3.15l-7.15,0.95l1.1,-2.5l-1.1,-2.85"/>
   <path id="svg_33" fill-rule="evenodd" fill="url(#gradient9)" d="m-284.95,-73.95l0,0.1l-0.05,-0.1l-0.15,-0.3l0.15,0l0.05,0.3l-0.05,0l0.05,0m-18.8,12l-0.1,-0.25l0.5,0.1l-0.4,0.15m-16.15,-5.25l-0.05,-0.2l0.3,0l-0.25,0.2"/>
   <path id="svg_34" fill-rule="evenodd" fill="url(#gradient10)" d="m-303.35,-62.1l0.4,-0.15l0.65,6.75l-2.2,-6.2l0.75,-0.25l0.4,-0.15"/>
   <path id="svg_35" fill-rule="evenodd" fill="url(#gradient11)" d="m-391.8,3.5l-3.7,-6.65l0.5,0.35l4.6,3.1l11.4,-3.2l37.5,-25.3l0.05,0.05l0.75,1.2l-2.1,3.05l-2.3,3.6l-1.9,3.2q-9.3,2.45 -30.25,16.6l-11.1,2.75l-3.45,1.25"/>
   <path id="svg_36" fill-rule="evenodd" fill="#f99926" d="m-321.45,-71.55l0.25,-0.05l-0.15,0.15l-0.1,-0.1m-18.95,30.65l-0.15,-0.25l0.15,0.05l0,0.2m-4.9,77.75l1.35,-2.55l-0.65,3.25l-0.1,0.75l-0.35,-0.85l0.45,0.1l-0.45,-0.1l-0.25,-0.6m75.6,-27.05l-0.05,0.05l0,-0.05l0.05,0"/>
   <path id="svg_37" fill-rule="evenodd" fill="url(#gradient12)" d="m-252.2,-76.75l6.25,-8.45q7.95,-7.5 16.5,-3.35l8.1,4.65l1.7,4.15q-3.85,18.6 -8.65,29.85q-5.75,19.2 -6.7,38.45q-1.85,-6.4 -9.1,-9.45q-2.8,-6.55 -3.7,-12l-0.45,-3.95l0.15,-0.25l1.35,-2.2l4.75,-1.4l6.4,-4.55l5,-3.55l-2,-11.95l0.65,-4.55l0,-0.25l-3.3,-2.75l1.95,-3.45l-1.7,-4.9l-1.35,-3.85l-0.75,-2.15l-5.7,0l-5.65,7.15l-0.1,0l-3.65,-1.25"/>
   <path id="svg_38" fill-rule="evenodd" fill="#f4ac04" d="m-321.2,-71.6q2,-1.55 5.05,-2.9l0.3,-0.15l3.85,-1.35l1.55,-0.3l1.9,-0.1l0.65,0.15l0.4,0.4l0.05,0.05l-0.1,0.65l-0.2,0.4l-1.4,1.4l-1.15,0.85q-1.75,1.15 -4.05,2.2l-3.2,1.25l-2.6,0.6l-1.2,0.15l-0.05,0l-1.3,-0.25l-0.35,-0.4l0.05,-0.75l1.55,-1.7l0.1,-0.05l0.15,-0.15m43.05,-9.6l2.3,-0.7l1.45,-0.3l0.15,0l0.45,-0.05l0.25,-0.05l0.25,0l0.4,-0.05l0.5,0l0.1,0.05l0.85,0.35l0.1,0.15l0.05,0.05q0.1,0.3 -0.05,0.65l-0.15,0.3l-0.35,0.45q-0.4,0.5 -1.15,1.1l-1.15,0.85q-1.7,1.1 -4.05,2.2q-3.25,1.4 -5.8,1.85l-0.1,0l-0.05,0l-0.15,0.05l-0.7,0.05l-0.15,0l-0.9,-0.05l-0.45,-0.2l-0.4,-0.35q-0.15,-0.35 0.1,-0.8q0.3,-0.65 1.35,-1.5l0.2,-0.15q1.2,-1 2.85,-1.9l2.4,-1.2l0.3,-0.15l1.15,-0.5l0.4,-0.15"/>
   <path id="svg_39" fill-rule="evenodd" fill="#b9511a" d="m-284.3,-74.3l-0.65,0.35l-0.05,-0.3l0.7,-0.05"/>
   <path id="svg_40" fill-rule="evenodd" fill="#fce1c9" d="m-274.3,-62.15l1.35,-0.9l1.75,3.75l-0.15,0.65l-0.4,2.25l-0.95,4.5l-1.6,0.25l0,-10.5m8.1,-1.75l0.9,-0.1l3.55,-4.05l1.15,-1.9l3.25,-0.85l0.8,2.3l6.5,-2.2l-1.1,10.75l-5.85,9.05l-7.05,2.4l-7.75,-1.65l3.45,-16.4l1.25,-0.15l0.9,2.8m-74.85,96.2l-2.1,-6.35l0.9,-0.75l3.35,6.3l-2.15,0.8"/>
   <path id="svg_41" fill-rule="evenodd" fill="url(#gradient13)" d="m-235.6,-45.25l-6.4,4.55l-4.75,1.4l-1.35,2.2l-1,-3.45l-2.5,4.3l-9,2.4l0.45,1.6l8.9,3.75l3.45,-4.4q0.9,5.45 3.7,12q7.25,3.05 9.1,9.45l1.9,5.55l-4.35,16.45l-0.05,0.1q-0.2,-0.55 -2.35,1.95l-4.4,5.5l-6.5,-0.5l-0.95,-0.75l-0.8,-0.6l-9.45,-13.95l-5.2,-29l-1.95,-10.6l2.05,0.85q6.5,1.25 14.85,-4.85l6.45,-10.35q1.7,11.75 10.15,6.4m-11.15,5.95l1.45,-2.4l-2.3,-4.4l2.3,4.4l-1.45,2.4"/>
   <path id="svg_42" fill-rule="evenodd" fill="#ab6d30" d="m-248.1,-37.1l-0.15,0.25l0.45,3.95l-3.45,4.4l-8.9,-3.75l-0.45,-1.6l9,-2.4l2.5,-4.3l1,3.45"/>
   <path id="svg_43" fill-rule="evenodd" fill="#864b11" d="m-248.2,67.2l4.15,1.4l7.15,5.45l-6.05,12.3l7.5,14.95l-0.65,1l-29.1,2.45l-0.05,-3.7l-4.2,-3.8l0.5,-10.2l0.7,-13.4l-2,-8.15l-0.3,-1.4q12,2.5 22.35,3.1m-21.25,-1.55l-0.8,-0.15l0.8,0.15m2.75,20.75q-1.2,0.6 -2.25,0.65q1.05,-0.05 2.25,-0.65m21,-5.6l2.75,5.55l-2.75,-5.55"/>
   <path id="svg_44" fill-rule="evenodd" fill="url(#gradient14)" d="m-347.45,13l-0.25,-1.6l4.5,-4.25q22.6,-10.5 49.1,-7.7l9.45,1.35l0.05,0l5.45,6.75l3.2,7.05l0.15,6.4l-5,-0.95l0.85,-7.35l-4.6,-3.85q-29,0.75 -47.1,7.6l-10.6,8.75l-0.9,0.75l-4.3,-12.95"/>
   <path id="svg_45" fill-rule="evenodd" fill="url(#gradient15)" d="m-265.2,104.75l-4.9,0.45q-12.25,-2.7 -23.9,-6.8q-25.85,-9.05 -49.4,-24.45l-6.25,-4.2l-4.25,-3.05l-3.75,-2.8l-2.35,-2.4l1,-1.4q8.7,-12 11.2,-23.95l1.2,0.35l1.3,0.35l0.25,0.6l0.35,0.85l0.2,0.4l0,0.1l17.55,7.45q28.2,11.4 50.85,16.65l5.55,1.2l0.3,1.4l-4.7,-0.95l4.7,0.95l2,8.15l-0.7,13.4l-1.85,-0.4l1.85,0.4l-0.5,10.2l4.2,3.8l0.05,3.7m-34.45,-26.7q0.2,-1.2 -0.3,-2.5q-0.6,-1.5 -1.85,-2.3q-0.35,-0.2 -0.65,-0.3l-0.1,-0.05l-1.6,0.05q-1.15,0.45 -1.55,1.85l-0.15,1.4l0.05,0.15l0.35,1.4q0.55,1.5 1.8,2.25l0.45,0.25l1.95,0.1q1.15,-0.5 1.5,-1.9l0.2,-0.3l-0.1,-0.1m-14.05,-24.4l-6.5,-2.45l6.5,2.45m21.25,6.85l-8.45,-2.6l8.45,2.6m-14.2,30.8l-8.95,-3.95l8.95,3.95m3,-34.25l-7.85,-2.6l7.85,2.6m9.1,38.9l-10,-3.75l10,3.75m23.75,-9.3q0.65,-1.35 0.15,-2.65q-0.55,-1.4 -2.1,-1.85l-1.25,-0.25l-2,0.4q-1.65,0.65 -2.45,2.1l-0.45,1.15l0.15,1.65q0.55,1.4 2.15,1.9l0.5,0.2q-0.2,1.25 -2.05,2.55q1.85,-1.3 2.05,-2.55l0,-0.1l0.2,0.05l2.5,-0.3q1.65,-0.7 2.5,-2.15l0,-0.05l0.1,-0.1m-10.7,-1.8q0.95,1.15 2.6,0.7q-1.65,0.45 -2.6,-0.7m8.4,-7.25q0.4,2.35 -0.9,4.3q1.3,-1.95 0.9,-4.3m-6.95,-13.7l-9.05,-2.45l9.05,2.45m0.25,36.6l-12.25,-3.65l12.25,3.65m-66.05,-61.8l-0.75,-2.2l0.75,2.2m16.1,8.55l-4.75,-2.1l4.75,2.1m-12.8,-5.95l-1.7,-0.85l1.7,0.85m6.05,2.95l-3.1,-1.5l3.1,1.5m11.55,19.7q-0.6,-1.45 -1.6,-2.25q-0.6,-0.5 -1.1,-0.55l-0.65,0.05q-0.75,-1 -0.75,-3q0,2 0.75,3l-0.05,0.05q-0.85,0.3 -1.05,1.55q-0.2,1.3 0.4,2.75l0,0.1l0.05,0.05q0.55,1.3 1.5,2.05l1.35,0.6l0.5,-0.1q0.8,-0.35 1,-1.65q0.2,-1.25 -0.35,-2.65q1.55,-1.45 3.55,-1.45q-2,0 -3.55,1.45m-8,3.15q2.8,-1.9 3.95,-1.45q-1.15,-0.45 -3.95,1.45m8.1,5.05q-1.5,-1.55 -1.25,-3.8q-0.25,2.25 1.25,3.8m-30.65,-8l-1.75,-1.55l1.75,1.55m-2.7,-2.35l-0.8,-1.7l0.8,1.7m11.35,8.25l-2.45,-1.6l2.45,1.6m-4.85,-3.15l-1.9,-1.3l1.9,1.3m10.85,6.9l-3.5,-2.15l3.5,2.15m6.2,3.65l-3.85,-2.25l3.85,2.25m7.9,4.35l-5.5,-2.95l5.5,2.95m4.6,-31.35l-5.75,-2.4l5.75,2.4m4.45,35.95l-6.7,-3.35l6.7,3.35"/>
   <path id="svg_46" fill-rule="evenodd" fill="url(#gradient16)" d="m-299.65,78.05l0.1,0.1l-0.2,0.3l0.1,-0.4m23.05,11.05l0.5,0.1l0,0.1l-0.5,-0.2"/>
   <path id="svg_47" fill-rule="evenodd" fill="#351d06" d="m-274,81.9l1.25,0.25q1.55,0.45 2.1,1.85q0.5,1.3 -0.15,2.65l-0.1,0.1l0,0.05q-0.85,1.45 -2.5,2.15l-2.5,0.3l-0.2,-0.05l-0.5,-0.1q-1.6,-0.5 -2.15,-1.9l-0.15,-1.65l0.85,0.2l-0.85,-0.2l0.45,-1.15q0.8,-1.45 2.45,-2.1l2,-0.4l-0.15,0.65l0.15,-0.65m-54.3,-20.7l0.65,-0.05q0.5,0.05 1.1,0.55q1,0.8 1.6,2.25q0.55,1.4 0.35,2.65q-0.2,1.3 -1,1.65l-0.5,0.1l-1.35,-0.6q-0.95,-0.75 -1.5,-2.05l-0.05,-0.15q-0.6,-1.45 -0.4,-2.75q0.2,-1.25 1.05,-1.55l0.05,-0.05"/>
   <path id="svg_48" stroke-width="0.25" stroke-opacity="0.65098" stroke-linejoin="round" stroke-linecap="round" stroke="#33170a" fill="none" d="m-327.4,-140.05l1.45,1.4m40.55,60.3l0.75,-11.95l-0.3,-1.05q-0.65,-1.2 -2.45,-0.9l-0.1,0.05q-2.95,0.6 -6,-0.4m-0.05,0l-0.5,-0.2l-1.05,-0.6q-4.3,-2.4 -9.15,-4.55l-0.9,4.4q-1.1,6.6 -0.75,13.1l-2,-1q-2.6,-8.2 -3.7,-16.35l-0.4,-3.4l-1.3,-0.5q-4.3,-2.2 -6.15,-4.6l-0.1,0.1q-3.2,3.85 -6,13.3l0.45,-7.65l-2.6,-0.95q1.2,-12.55 5.25,-25.2q-1.2,-6.1 -3.5,-11.95m54.25,-37.3l0.2,-1.1q0.7,-3.35 0.4,-6.85m3.2,11.8l1.1,-3.8m-25,-11.35l-3.85,2.15m-5.85,30.95l1.3,-0.7l1.2,0.85l0.6,2.9m0.05,0.15l-0.05,-0.15m0.05,0.15q0.35,3.25 -0.1,6.45q-0.65,2.95 -2.15,5.25l-0.4,0.6l-0.8,0l-0.3,0l-0.3,-0.25l-1.15,-1.05l-0.2,-0.6m-15,11.85l-0.15,0.8m3.1,9.7l-0.9,-1.8m14.3,-18.9l0.6,0.25m-2.55,-9.85l-0.45,5l1.05,2.95m-1.55,-5.15l0,-0.1m0.5,2.3l-0.5,-2.2m-14.95,9.55l1.15,1.25q0.5,2.45 0.35,4.95l-0.2,1.2m0.2,0.05l1.55,-0.65m0.6,-1.1l0.05,0.1l0.05,0.35l-0.15,0.2l-0.2,0.3m-4.75,-0.55l0.05,-3.05l0,-1.55m2.35,7.7l0.25,-1.8m-3.05,4.8l-0.45,-2.75m0.9,6.35l0.05,0.5l0.05,0.85m2.45,-5.5l-0.35,-0.7l-0.1,-0.65l0.25,-1.1l0.3,-0.95m-0.85,2.8l-0.15,-0.05l-0.6,-0.4q-0.85,-2.15 -1.05,-4.3m4.8,9.7l-2.25,-4.35m-2.55,4.15l-0.25,-2.3l-0.1,-0.65m2.45,17l-0.9,-1.25q-0.8,-1.4 -1.05,-2.8l-0.3,-1.6q0.3,-3.1 0.3,-5.15l0,-1.35m9.4,17.25l2.05,0.8l5.7,2.45m66.8,108.5l0.75,0.05l0.75,-0.3l1.45,5.45l4.95,8.35m0.05,0.05l-5.2,5.25l-4.5,-2.75l-1,-11.4q0,-1.6 0.35,-2.65"/>
   <path id="svg_49" stroke-width="0.75" stroke-opacity="0.65098" stroke-linejoin="round" stroke-linecap="round" stroke="#33170a" fill="none" d="m-293.85,-192.35l-5.65,-1.35l-2.5,0.95l-0.5,0.2q-5.35,2.1 -9.95,4.9q-18.85,11.25 -26.35,33.9q-1.75,5.15 -2.9,10.9l0.7,7.7l1.8,-3.05l1.6,-2.65l2.2,-3.5l5.15,-7.55l0.3,-0.4q15,-20.7 32.85,-31.9m-30.5,44.5l-0.2,0.45m0.2,-0.45l0.6,-1.4q12.7,-29.4 36.85,-42.65l0.05,-0.05l-0.05,0l0,-0.05l1.4,-3.8l2.3,0.4l2.1,3.45m-15.15,-9.9l-9.8,-2.35l-0.1,-0.2l-5.2,-3.35q14.05,-0.6 27.85,2.05l4.75,-2.9l5.65,2.4l2.35,4.15l7.55,2.75l5.45,-1.15l2.5,4.05l8.7,4.25l-1.2,-5.15l-18.2,-46.8q10.55,10.4 17.7,20.4q7.35,10.3 11.1,20.15l5.4,15.6q15.75,-13.7 27.25,-17.85l0.55,0.7l0.7,0.95q-2.6,3.55 -4.15,7.55l4.3,-0.35l1.35,-0.05m1.45,-0.05l7.1,-0.05l8.05,0.2l-5.1,2.75q-7.15,4 -9.75,7.1q6.2,3.15 10.85,9.5l0.25,1.2q7.65,-0.8 14.95,0.9q6.6,4.55 11.35,9.5l3.8,4.35l0.05,0.05l0.45,0.6l0.3,0.4l1,1.5q3.05,4.6 4.6,9.5q-0.75,5.2 -2.1,10.4l-1.05,3.8l5.75,0.3l2.3,0.25q11.5,10.5 13.7,20.25l0,1.3l-0.15,3.2q-0.25,1.8 -0.8,3.6q-1.45,4.6 -4.85,9.25l-1.5,0.9l-2.65,1.65l-4.4,3.15l1.5,1.55q3.65,4 6.6,8.85l1.65,2.8l1.7,3.4q-0.55,2.85 -1.25,5.55l-0.65,2.45l-0.25,0.75l0,0.05l-0.1,0.25l-0.2,0.65l-0.2,0.6l-1.8,19.3l-25.5,13.2l11.65,-12.45l-21.35,1.1l-3.95,-2.2l-4.4,-1.9q-4.7,-1.75 -9.15,-6.45q-4.45,-4.7 -12,-13.65l1.45,-2.55l8,4.6l-11.05,-16.05l19.45,10.45l6,-3.45l0.1,-0.8l-2.8,1.25l0.55,-4.9l4.25,-6.6l-0.25,-0.3l-0.15,-0.15l-3.3,-3.7q-2.35,-2.8 -4.05,-5.55q-3.25,-5.2 -4.35,-10.25l-0.3,-1.5l1.95,-5.4l0.3,-0.7l0.4,-0.95l-7.05,-6.6q-5.95,-7.4 -7.65,-14.1l-2.75,0.5l-3.65,0.1q4.7,10.55 4.95,19.8l0,1m16.9,-62.85l0.3,1.45l0.15,0.9l0.05,0.5l0.25,1.55l0.2,1.95l0.2,3.2l0,0.65l0,0.5q0,2.9 -0.3,5.7l-0.6,3.9q-1.1,5.4 -3.45,10.45q-3.15,7.4 -10.15,10.05l-2.1,0.65m-4.2,-58.2l1.15,-3.5m-27.95,14.7l2.3,3.45l0.15,0.25l3.35,5.6l0.4,-9.85l-2.6,-5.5m-6.55,29.7l-1.4,-1.5l-5.35,8.4l-12.8,12.7q-1.85,4.25 -4,8.4l-2.25,4.2m27.4,-27.75l0,-1.3l-0.1,-1.6l-1.5,-1.55m-1.4,-1.5l3.75,-5.85m6.4,-7q2.7,5 4.7,10.15l-0.2,1.7l-0.35,2.4l-0.8,4.55l-0.35,1.65q-2,9.05 -5.75,18.5l-0.6,1.55l-0.8,1.9l-9.7,5.15l-6.95,1.9q-2.2,9.25 -2.45,18.05l0.6,5.6m31.2,2.65q0.3,-7.15 -0.25,-16.6m4.55,-21l-0.35,-0.8m1.45,-7.3l2.75,3l2.1,5.25m-6.8,-10.35l1.4,1.5m-0.05,9.95l1,2.6l0.45,8.05l4.2,3.75l4.75,4.3m44.95,-20.8l0.9,-0.05l4.4,0m-5.6,0.05l0.3,0m-0.3,0l-2.05,0.1l-2.75,0.2l-10.9,1.55l-2.9,3.4l-3.85,5.1l-0.75,1.15m-5.3,9.6l0.8,-1.7l0.4,-0.85l0.8,-1.5l3.3,-5.55m-51,-58.1l-5.95,-7.65l-5.25,-2.6m0.1,9.85l0.1,-1.05m-6.3,-8.9l-2.6,-4.15m-15.5,-5.65q1.1,2.25 1.8,4.55l0.05,0.3l0.8,3.4m2.5,16.55l0.95,-3m-7.8,18.6l0.8,-1.55q2.1,-4.15 3.85,-8.3l2,-5.25m-1.95,18.35l6.8,-6.5l1.4,-0.8q4.8,-3.35 8.65,-11.45q2.3,-4.9 4.25,-11.55m-21.15,17.2l0.05,5.4l0,0.2l-11,18.05l6.5,-6.25m0.6,-0.6l3.9,-3.7l0.1,10.25m0,0.4l0.05,7.1l0,2.5l0.05,6.35l0,3l0.05,8.55l1.35,-2.2l2.05,-3.6m6.25,-12.6q2.1,-4.85 3.9,-9.85l2.7,-8.6l0.25,-0.95l0.45,-1.6l0.35,-1.45l0.6,-2.45q1.95,-8.45 3,-17.25m-36.9,-24.9l-1.2,0.75m-2.15,13l4.05,-0.8l1.1,5.25q0.65,4.15 0.75,8.3q0.1,7.05 -0.9,14.25l-0.6,3.95q-0.7,3.85 -1.95,7.05q-4.5,11.25 -8.4,17.7l2.4,0.2l6.9,-8.45l0.65,-0.9q3.95,-5.3 7.2,-10.7l3,-5.2m-10.55,-34.1l-3.65,3.45m-9.5,44.85l6.2,-5.35q3.05,-1.8 3.75,-1.1l0.1,-0.3l0.5,-1.45m-26.25,11.35l-1.65,-0.15m-0.4,-6.1q2.3,4.55 4.8,4.9m58.85,4.9l-0.85,0.15m5.8,-1.2l4.45,-0.75q4,-5.4 4.35,-11.3m-11.5,19.45l2.7,-7.4l-4.95,1.05m2.25,6.35l-2.15,10.9m-17.2,-8.65l-6.9,3l-0.4,-2l7.25,-7.35m15.5,39.6l0.05,0.9m90.95,1.3l-1.9,0.05l-0.9,0l-3.35,0.3l-1.5,0.2l-5.45,1.05l-2.6,4.1l-3.1,4.95m23.1,-10.4l-1.3,-0.1l-2.4,-0.15l-0.6,0m-25.05,26.15l-1.85,-1m-8.4,5.6l3.65,5.15m13.95,-16.05l-3.2,1.85m-37.6,-20.2l3.1,-10.05q2.15,-8.25 1.75,-17.65m66.6,31.05l-0.55,-0.55l-2.6,-2.4l-1.2,-1l-1.25,-0.25l-3.05,-0.4m1.8,51.55l1.9,-0.1l0.25,-0.15"/>
   <path id="svg_50" stroke-width="0.75" stroke-opacity="0.65098" stroke-linejoin="round" stroke-linecap="round" stroke="#33170a" fill="none" d="m-164.1,-127.15l-0.2,-0.2l-0.1,0.2m-23.2,11.5q-1.65,5.1 0.75,7.3m22.55,-19q2.65,-5.35 -0.05,-10.1m-7.65,49.8q-2.9,0.8 -3.9,3.85m11.55,-4.4q7.75,4.75 5.5,16.1m-4.9,-16.1l-0.7,-9.65m-31.55,45.55q4.75,5.1 8.95,4.7m8.9,-39.15q-3,-0.9 -4.15,-5.7m2.25,9.95q-7.7,-2.75 -8.45,-10.55m6.8,45.1q8.25,-0.3 13.45,-2.7m8.2,-37.3q5.45,1.85 9.05,8.65l0.35,0.6m-3.9,-7.6q10.05,-3.55 10.9,-9.55m-12.45,59.2l4.8,-3.4l1.15,-1.9q1.7,-2.95 3.7,-7.3q1.55,-5.4 1.3,-9.05m-18.95,-68.85q7.35,1.85 6.75,8.5"/>
   <path id="svg_51" stroke-width="0.75" stroke-opacity="0.65098" stroke-linejoin="round" stroke-linecap="round" stroke="#33170a" fill="none" d="m-190.7,-165.7l2.4,-0.55m-3.35,0.9l0.95,-0.35"/>
   <path id="svg_52" stroke-width="1.75" stroke-linejoin="round" stroke-linecap="round" stroke="#331709" fill="none" d="m-289.6,-152.6q-6.3,-7.75 -11,-2.65l-0.9,1.1m-2.85,5.65q1.3,-3.55 2.85,-5.65m-4.55,11.45l0.35,-1.75l0.1,-0.5l0.25,-0.75l0.05,-0.1l0.95,-2.7m-12.35,15.05l-0.1,-0.5l-1,-0.9l-0.85,-0.65l-0.05,-0.05l-0.85,-0.45l-0.7,-0.15m-1.4,2.05l0.1,-0.55l0.15,-0.65q0.3,-0.95 1.15,-0.85m-1.4,2.05l-0.3,3.6"/>
   <path id="svg_53" stroke-width="0.25" stroke-opacity="0.65098" stroke-linejoin="round" stroke-linecap="round" stroke="#33170a" fill="none" d="m-356.7,-112.25l0.15,0.2l0,1.55m66.95,-42.1l0.3,0.4m-11.8,13.9l0.1,0l0.2,0.1l0.55,-0.35m11.3,-8.95l-0.05,-0.25m0,-4.05l-0.3,-0.4m18.1,92.9l0.15,-0.9m-0.7,3.8l0.4,-2.25m-12.65,49.25l-12.05,-29.15m19.45,127.65l0.5,0.1m-52.85,-23.5l-0.05,-0.15"/>
   <path id="svg_54" stroke-width="1.3" stroke-linejoin="round" stroke-linecap="round" stroke="#763e14" fill="none" d="m-305.6,-147.6l7.3,-15.45q2.65,-2.45 7.25,-3.7m-18.1,26.7l-0.1,0.15l-1.75,-0.9m5.25,-6.5l0.15,-0.3m-0.15,0.3l-3.4,7.25"/>
   <path id="svg_55" stroke-width="0.5" stroke-opacity="0.4" stroke-linejoin="round" stroke-linecap="round" stroke="#50220e" fill="none" d="m-248.25,-138.35l-3.45,1.5m8.65,-9l1.1,-0.95m-4.1,5.8l-1.2,-1.1l4.2,-3.75m-3,4.85l1.25,1.15l-3.45,1.5"/>
   <path id="svg_56" stroke-linejoin="round" stroke-linecap="round" stroke="#763e14" fill="none" d="m-325.95,-138.65l7.45,2.35"/>
   <path id="svg_57" stroke-width="0.75" stroke-opacity="0.65098" stroke-linejoin="round" stroke-linecap="round" stroke="#33170a" fill="none" d="m-400.85,-56.55l-4.35,29.15l0.85,13.65l3.1,5.4m23.1,-97.7l-0.35,-0.55m28.05,-16.3l0,-2.1l-0.85,-2.45q-0.65,-1.4 -1.65,-2.6q-3.8,0.3 -7.5,1.6l-1.65,1.9q-10.35,3.45 -20,8.95q-7.75,3.1 -12.65,8.35l-2.3,27.1l-3.8,25.6m22.7,-49.5l1.85,3l1.1,1.8l-0.7,1.9l2.5,0l5,-6.25l1.1,-1.35l0.95,-1.2l2.4,-3l-0.2,-0.35m-2.3,8.75l-1.95,-2.85m8.5,5.7l-4.75,-1.15l0,-3.85l-1.7,-3.25m-0.95,1.2l0.85,4.2l3,4.45l1.6,1.2l1.05,0.05l0.4,0l4.1,3.15l-7.15,0.95l-4.75,0.65l-8.4,-3q-5.95,27.5 -4.15,48.75l5.4,16.6l1.65,-1.5l0.25,-0.2q3.6,-1.55 6.95,-3.15m5.75,-62.55l0.85,-2.55l0.65,-1.8l5.1,-0.3l0.5,0.75l1.3,1.9l0.05,0l1.85,-0.9l1.95,-0.95l-2.8,4.5l-0.35,-0.05l-0.9,2.85l-3.75,0m6,-11.2l-10.15,1.85l-2.1,-5.35l-0.9,-1.65l-0.5,-0.9m18.55,2.25q-3.35,-6.55 -5.05,-13.35l0,-0.65m-1.35,10.4l-0.9,-0.55l-1.85,-1.2l-2.85,1.2l0.5,0.55m2.4,-6.45l0,-1.4m-4.3,5.65l1.75,-0.7l2.55,-2.3l0,-1.25m-4.35,4.3l0.05,-0.05l-1,-1.15m1,1.2l-0.05,0l-4.5,0l-1.5,1.85l0.7,1.3m5.35,-3.2l0,0.05l1.4,1.6m12,4.15l0.85,1.65l-2,0.9l1.25,3.55l-3.2,1.6m-17.6,66.2q2.05,-0.95 3.95,-1.95q11.95,-6.25 19.55,-13.15q-0.55,-5.05 0.45,-10.1q3.05,-7.75 20.7,-11.35l0.25,-0.05q2,-1.55 5.05,-2.9l0.3,-0.15l3.85,-1.35l2.1,-0.4l1.2,-0.05l12.35,-1.8l7.7,0.8l3.25,-0.9m-61.15,-28l-2,0.9l-1.2,0.25m-1.85,8.4l-0.05,0.05m-8.75,-0.3l-0.35,-0.3m-2.7,4.4l1.1,-2.5l-1.1,-2.85m-13.15,3l0,-2.1l-1.35,3.7m38.8,55.95l-1.2,-2.95m-0.05,-0.2l-0.15,-0.25l-0.95,-3.15m-59.6,36.3l7.05,12.35l2.25,-0.85m50.3,-31.7l-1.5,-2.35l4.6,-5.65l-0.75,-1.55m-36.2,7.8l-0.55,5.45m34.4,-3.7l0.05,0.05l0.75,1.2l-2.1,3.05l-2.3,3.6l-1.9,3.2q-4.6,8 -7.65,16.4l-1.05,3.05l-0.6,2l-0.35,1.05l9.2,7.6l-0.25,-1.6l-1.25,-8.25l-1.35,0.3m3.3,-20.55q-9.3,2.45 -30.25,16.6l-11.1,2.75l-3.45,1.25m49.2,-53.6q0.3,2.9 1.1,5.8m-34.4,-55.05l-0.7,1.95m25,0.6l1.15,-3.45m95,8.9l6.45,-1.3l0.35,-0.05l3.55,-1.75l7.55,-2.5q8.3,1.7 13.3,8.25m-35.55,-1.75l-10.3,2.1l-3.25,2.75l-4.05,3.4l-0.55,0.8l-0.2,0.2l2.3,-0.7l1.45,-0.3l0.15,0l0.45,-0.05l0.25,-0.05m0.25,0l0.4,-0.05l0.65,0m1.45,-0.4l2.6,-3.05l12.85,-4.6l6.35,-2.25m-6.45,1.3l-0.75,0.15m0.9,1.7l6.65,-3.2m-14.45,17.05l0.55,0.1l3.5,0.8l2.6,-3.5l3.15,1.1l1.1,0.4l3.65,1.25l0.1,0l5.65,-7.15l5.7,0l0.75,2.15l1.35,3.85l1.7,4.9l-1.95,3.45l3.3,2.75l0,0.25l-0.65,4.55l2,11.95l-5,3.55l-6.4,4.55l-4.75,1.4l-1.35,2.2l-0.15,0.25l0.45,3.95q0.9,5.45 3.7,12q7.25,3.05 9.1,9.45q0.95,-19.25 6.7,-38.45q4.8,-11.25 8.65,-29.85l-1.7,-4.15l-1.5,-2.8l-1.4,-2m-58.15,9.5l2.4,-1.2l0.3,-0.15l1.15,-0.5l0.4,-0.15m6.3,0.85q-0.4,0.5 -1.15,1.1l-1.15,0.85q-1.7,1.1 -4.05,2.2q-3.25,1.4 -5.8,1.85l-0.1,0l-0.05,0l-0.15,0.05m11.4,-8.05l0.5,0l0.1,0.05l0.85,0.35l0,-0.05l-0.8,-0.35m0.95,0.6q0.1,0.3 -0.05,0.65l-0.15,0.3l-0.35,0.45l7,2.7l1.75,2l-5.5,2.45l-0.8,4.2l-1,5.2l-0.2,1.3m-0.85,-19.45l0.1,0.15l0.05,0.05l-0.15,-0.25l0.65,-0.75m2.3,-0.65l1.6,-0.45l11.6,-5.65m-16.55,23.05l-2.45,2.5l0,1.8l0,10.5l0,14.2l6.95,26.95l3.8,14.85q4.3,6.4 11.05,11.9m-16.9,-85.25l-2.45,2.55m10.2,-4.8l2.6,-3.5m-29.6,-2.7l-3.9,1.15l-13.95,5.5l-8.2,3.25l-5.2,0.35l-2.4,0.2m37.15,-7.25l-0.9,-0.05l-0.45,-0.2l-0.4,-0.35q-0.15,-0.35 0.1,-0.8q0.3,-0.65 1.35,-1.5l0.2,-0.15q1.2,-1 2.85,-1.9l-3,0.85m-26.6,2.35l1.55,-0.3l1.9,-0.1l0.65,0.15l-0.8,-0.2m0.8,0.2l0.4,0.4l0.05,0.05l-0.1,0.65l-0.2,0.4l15.2,-1.55m-17.75,3.8l3.8,1.7m8.55,27.7l11.9,4.35l8.15,1.35m-29.85,-37.35l-1.4,1.4l-1.15,0.85q-1.75,1.15 -4.05,2.2l-3.2,1.25l-2.6,0.6l-1.2,0.15l-0.05,0l-1.3,-0.25l-0.35,-0.4l0.05,-0.75l1.55,-1.7l0.1,-0.05l0.15,-0.15m36.05,-2.65l0.15,0l0.7,-0.05m-54.25,42.95q13.35,-8.8 25.35,-10.45l6.8,0.55m12.3,40.7l-23.05,-3.25q-26.25,2.85 -31.8,6.95m51,-46.25l-14.45,-5.3l-6.75,-0.85m71.55,3.15l2.3,4.4l-1.45,2.4m-22.95,49.1l3.8,-3.35l-3.95,-4.8l-4,-4.85l-19.55,-5.05m57.7,-46.45l0,-1.5l-0.15,-0.7l-1.9,-8.65l0.95,-4.1l0.95,-4.05l-0.95,-2.8l-0.4,-1m1.95,9.2l-1.55,-1.35m1.1,14.95l0,0.85m0.7,42.4l1.9,5.55l-4.35,16.45l-0.05,0.1q-0.2,-0.55 -2.35,1.95l-4.4,5.5l-6.5,-0.5l-0.95,-0.75m3.5,50.35l4.15,1.4l7.15,5.45l-6.05,12.3l7.5,14.95l-0.65,1l-29.1,2.45l-4.9,0.45q-12.25,-2.7 -23.9,-6.8l-76.25,0l3.45,-12.05l9.15,-20.4l0,-2.05l-2.35,-2.4l1,-1.4q8.7,-12 11.2,-23.95l1.2,0.35l1.3,0.35l1.35,-2.55l0.75,-1.35l2.15,-0.65l-2.1,-6.35l-4.3,-12.95m85.75,10.5l0.15,0l-0.15,-0.3m0,0.3l-12.5,-2.25l-0.05,0l-1.55,-0.25l-5,-0.95l-10.15,-0.4l-11.9,2.1q-14.95,2.95 -27.4,6.85l-3.5,1.1l-5.15,1.8l-2.15,0.8m79.5,-8.8l5.1,0.9l-0.25,-0.7m0.9,0.85l-0.65,-0.15l8.65,29.55l-0.4,13.25q-10.35,-0.6 -22.35,-3.1m0.65,-54.55l-4.4,-7.25l-10.3,-1.5l-0.05,0l-9.45,-1.35m24.4,10.35l-0.05,0.05l8.05,13.35m-12.6,-20.9l5.9,5.2l-1.5,2.05l0.15,0.25m-74.85,27.75l7.95,1.6l40.2,2.65l4.5,-1.3l-1,-1.3m-51.75,-0.9l0.2,0.4l0,0.1l17.55,7.45q28.2,11.4 50.85,16.65l5.55,1.2m27.6,22.25l-2.75,-5.55m-105.35,-77.2l-0.5,0.25m6.85,34.45l0.1,-0.75l-0.45,-0.1l0.35,0.85m-0.6,-1.45l0.25,0.6m1.1,-3.15l-0.65,3.25m-5.05,32.2l6.25,4.2q23.55,15.4 49.4,24.45m-63.65,-34.5l3.75,2.8m86.55,-77.2q-3.6,4.5 -2.5,12.15"/>
   <path id="svg_58" stroke-width="0.3" stroke-opacity="0.6" stroke-linejoin="round" stroke-linecap="round" stroke="#6d4522" fill="none" d="m-376.1,-22.55q-0.8,3.4 -2.2,4.9"/>
   <path id="svg_59" stroke-width="0.3" stroke-opacity="0.152941" stroke-linejoin="round" stroke-linecap="round" stroke="#c3551c" fill="none" d="m-341.8,-9.4l0.85,-1.85l-1.9,0.6m11.45,-2.9q-3.95,0.65 -7.9,1.8l-0.95,2.2m5.25,-13.4q-3.1,5.3 -5.95,11.7l1.65,-0.5l2.45,-5.05"/>
   <path id="svg_60" stroke-width="0.3" stroke-opacity="0.301961" stroke-linejoin="round" stroke-linecap="round" stroke="#c2551c" fill="none" d="m-342.95,-2.25l0.4,-1.65m58.25,-70.4l-0.65,0.35m-37.6,65.8q-5.8,0.2 -11.75,1.35"/>
   <path id="svg_61" stroke-width="0.5" stroke-opacity="0.301961" stroke-linejoin="round" stroke-linecap="round" stroke="#c2551c" fill="none" d="m-285,-73.95l-4.35,2.05m13,-0.8q2.05,-3.35 6.65,-4.05m-11.45,5.35l0.15,-3.15m-3.95,0.6l-0.05,0m-40.45,7.8l1.9,-2q-2.8,0.05 -5.95,1.35"/>
   <path id="svg_62" stroke-width="0.75" stroke-linejoin="round" stroke-linecap="round" stroke="#66ff00" fill="none" d="m-302.3,-55.5l4.35,12.4m-6.55,-18.6l-0.4,-1.15m0.4,1.15l2.2,6.2m6.25,16.95l-1.9,-4.55"/>
   <path id="svg_63" stroke-width="0.3" stroke-opacity="0.4" stroke-linejoin="round" stroke-linecap="round" stroke="#fbb359" fill="none" d="m-300.9,57.9l8.45,2.6m-27.75,-9.3l6.5,2.45m2.2,0.8l7.85,2.6m14.55,4.4l9.05,2.45m-66.55,-27.4l0.75,2.2m6.25,4.05l3.1,1.5m-7.75,-3.8l1.7,0.85m8.05,3.85l4.75,2.1m-29.25,12.85l0.8,1.7m0.95,0.8l1.75,1.55m27.6,-16.1l5.75,2.4"/>
   <path id="svg_64" stroke-width="0.3" stroke-linejoin="round" stroke-linecap="round" stroke="#cb7116" fill="none" d="m-315.6,87.35l8.95,3.95m2.1,0.9l10,3.75m2.5,0.9l12.25,3.65m-73.8,-34.9l1.9,1.3m2.4,1.55l2.45,1.6m14.6,8.8l5.5,2.95m-11.75,-6.6l3.85,2.25m-9.7,-5.8l3.5,2.15m16.45,9.25l6.7,3.35"/>
   <path id="svg_65" stroke-width="0.3" stroke-opacity="0.2" stroke-linejoin="round" stroke-linecap="round" stroke="#351d06" fill="none" d="m-270.25,65.5l0.8,0.15m-30.2,12.4l0.1,0.1m24.6,-13.6l4.7,0.95m1.3,21.55q1.05,-0.05 2.25,-0.65m-4.1,0.25l1.85,0.4m-9.95,-1.5q-1.65,0.45 -2.6,-0.7m2.6,0.7l0.85,0.2m3.9,-3.2l0.15,-0.65q1.3,-1.95 0.9,-4.3m-3,11.6l0.2,0.05m5,-2.5l0.1,-0.1m-5.3,2.65q-0.2,1.25 -2.05,2.55m2.05,-2.65l0,0.1m-48.85,-25.35q1.55,-1.45 3.55,-1.45m-6.9,-1.3q-0.75,-1 -0.75,-3m0.05,7.45l0.05,0.05m2.85,2.65q-0.25,2.25 1.25,3.8m-4.15,-6.5q-1.15,-0.45 -3.95,1.45"/>
   <path id="svg_66" stroke-width="0.75" stroke-linejoin="round" stroke-linecap="round" stroke="#a65c13" fill="none" d="m-274,81.9l1.25,0.25q1.55,0.45 2.1,1.85q0.5,1.3 -0.15,2.65m-8.1,-1.1l0.15,1.65q0.55,1.4 2.15,1.9"/>
   <path id="svg_67" stroke-width="0.75" stroke-linejoin="round" stroke-linecap="round" stroke="#8f5011" fill="none" d="m-274,81.9l-2,0.4q-1.65,0.65 -2.45,2.1l-0.45,1.15"/>
   <path id="svg_68" stroke-width="0.75" stroke-linejoin="round" stroke-linecap="round" stroke="#cd7216" fill="none" d="m-275.9,89.25l2.5,-0.3q1.65,-0.7 2.5,-2.15l0,-0.05"/>
   <path id="svg_69" stroke-width="0.75" stroke-linejoin="round" stroke-linecap="round" stroke="#9f5913" fill="none" d="m-329,65.55q-0.6,-1.45 -0.4,-2.75q0.2,-1.25 1.05,-1.55l0.05,-0.05m2.2,7.15l0.5,-0.1q0.8,-0.35 1,-1.65q0.2,-1.25 -0.35,-2.65"/>
   <path id="svg_70" stroke-width="0.75" stroke-linejoin="round" stroke-linecap="round" stroke="#8d4e11" fill="none" d="m-328.3,61.2l0.65,-0.05q0.5,0.05 1.1,0.55q1,0.8 1.6,2.25"/>
   <path id="svg_71" stroke-width="0.75" stroke-linejoin="round" stroke-linecap="round" stroke="#b36414" fill="none" d="m-328.95,65.7q0.55,1.3 1.5,2.05l1.35,0.6"/>
   <path id="svg_72" stroke-opacity="0.168627" stroke-linejoin="round" stroke-linecap="round" stroke="#000000" fill="none" d="m-327.7,-139.45l0.1,-0.25m-0.1,0.25l0.1,-0.2l0,-0.05"/>
   <path id="svg_73" stroke-width="0.75" stroke-opacity="0.168627" stroke-linejoin="round" stroke-linecap="round" stroke="#000000" fill="none" d="m-191.7,-165.85l-0.9,-1.55l-0.45,-0.7q-3.9,-5.65 -11.2,-7.55m7.4,13l-2.05,-1.7m-14.6,-26.25q-4,4.05 -5.35,8.3m11.65,-14.65q-4.75,2.3 -10.65,9.2m16.25,21.6q-6.55,-3.6 -14.85,-2.8m-30.45,-30l1.8,3.65q4.45,9.8 6.5,21.55"/>
   <path id="svg_74" fill-rule="evenodd" fill="#fef4e0" d="m-317,-131.9q0.2,0.6 0.05,1.3l-0.45,1.1l-0.75,0.1l-0.45,-0.75q-0.2,-0.6 -0.05,-1.25l0.45,-1.1q0.4,-0.45 0.8,-0.25l0.4,0.85"/>
   <path id="svg_75" fill-rule="evenodd" fill="#c1af8b" d="m-288.6,-124.95l0.3,-0.2l1.85,-0.95l3.75,-0.8l0.2,0q2.2,0.15 2.35,4.85l-0.05,0l-3.1,3l2.05,2.1q-1.35,3.35 -4.4,7.55q-2.85,2.15 -5.3,3.75q6.2,-5.95 2.25,-6.65l2,-2.7l0.6,-3.45l0.1,-0.6l-2.7,-0.75l-2.35,-0.7l-8.35,1.6l10.8,-6.05m-16,18.6l-2.7,-1.15l14.5,-8.55l0.6,2.95l-0.85,-0.15l-5.85,3.4l0.1,1.3l-1.1,-0.5l-0.1,-0.05l-4.6,2.75m18.65,-17.45l0.4,1.9l-0.45,2.85l0.45,-2.85l-0.4,-1.9m-0.15,5.35l2.8,-0.6l-2.8,0.6"/>
   <path id="svg_76" fill-rule="evenodd" fill="#f0e3d0" d="m-308.5,-106.6l0.9,-1.85l0.35,-1l1.05,0.05l3.2,-2.05l0.35,-0.95l1.1,0.15l3.15,-1.7l-0.05,-1l1.3,0.1l4.05,-2.55l0.3,1.35l-14.5,8.55l2.7,1.15l1.4,0.6l-1.05,0.1l-0.4,0.05l-0.05,0l-3.8,-1m22.5,-12.45l-0.1,0.6l-0.6,3.45l-2,2.7l-1,1.4l-0.25,0.35l-0.05,0.05l-1.9,-1.1l-0.2,-1.05l1.55,0.4l2.1,-3.4l-0.25,-4.15l2.7,0.75"/>
   <path id="svg_77" fill-rule="evenodd" fill="#f8f0e0" d="m-290,-110.5l0.05,-0.05l0,0.05l-0.05,0"/>
   <path id="svg_78" fill-rule="evenodd" fill="#8f4b1b" d="m-280.2,-122.05l0.05,0.05q0.05,2.25 -1.1,5.05l-2.05,-2.1l3.1,-3m-20.55,19.1q-3.4,-0.95 -6.65,-2.4l-2.15,-1l-0.9,-0.4l-4.4,-2.5q0.95,-0.65 1.95,-1.25l3.9,3.75l0.5,0.15l3.8,1l0.05,0l3.9,2.65"/>
   <path id="svg_79" fill-rule="evenodd" fill="#f7f0e6" d="m-290.95,-105.65l-0.3,0.2q-3.45,2.2 -6.2,3.35l-2.6,-0.65l-0.7,-0.2l-3.9,-2.65l0.4,-0.05l1.05,-0.1l-1.4,-0.6l4.6,-2.75l0.1,0.05l1.1,0.5l-0.1,-1.3l5.85,-3.4l0.85,0.15l-0.6,-2.95l-0.3,-1.35l-4.05,2.55l-1.3,-0.1l0.05,1l-3.15,1.7l-1.1,-0.15l-0.35,0.95l-3.2,2.05l-1.05,-0.05l-0.35,1l-0.9,1.85l-0.5,-0.15l-3.9,-3.75q5.9,-3.95 12.5,-7.85l1,-0.55l8.35,-1.6l2.35,0.7l0.25,4.15l-2.1,3.4l-1.55,-0.4l0.2,1.05l1.9,1.1l0.05,0l0,-0.05l0.25,-0.35l1,-1.4q3.95,0.7 -2.25,6.65m-1.15,-7l-0.1,-0.45l0.1,0.45"/>
   <path id="svg_80" stroke-width="0.75" stroke-opacity="0.65098" stroke-linejoin="round" stroke-linecap="round" stroke="#33170a" fill="none" d="m-288.3,-125.15l1.85,-0.95l3.75,-0.8l0.2,0q2.2,0.15 2.35,4.85l-0.05,0m0.05,0.05q0.05,2.25 -1.1,5.05q-1.35,3.35 -4.4,7.55q-2.85,2.15 -5.3,3.75l-0.3,0.2q-3.45,2.2 -6.2,3.35l-2.6,-0.65l-0.7,-0.2q-3.4,-0.95 -6.65,-2.4l-2.15,-1l-0.9,-0.4l-4.4,-2.5q0.95,-0.65 1.95,-1.25q5.9,-3.95 12.5,-7.85l1,-0.55l10.8,-6.05m-19.9,18.35l3.8,1l0.05,0l3.9,2.65m-3.5,-2.7l1.05,-0.1l-1.4,-0.6l-2.7,-1.15l14.5,-8.55l-0.3,-1.35m-19.8,6.9l3.9,3.75l0.5,0.15m22.5,-12.45l0.45,-2.85l-0.4,-1.9m-2.75,11.5l2,-2.7l0.6,-3.45l0.1,-0.6m-6.1,6.4l0.2,1.05l1.9,1.1l0.05,-0.05m0.25,-0.35l1,-1.4m-3.5,-0.8l0.1,0.45m-0.1,-0.45l-0.6,-2.95m11.55,-0.9l-2.05,-2.1l-2.8,0.6m2.8,-0.6l3.1,-3"/>
   <path id="svg_81" fill-rule="evenodd" fill="#fef4e0" d="m-292.3,-149.3q0.25,1 0,2.05q-0.2,0.95 -0.7,1.5l-1.05,0.05q-0.5,-0.35 -0.75,-1.35q-0.3,-0.9 -0.1,-1.9q0.2,-1.05 0.75,-1.6l1.15,-0.15q0.45,0.35 0.7,1.4"/>
   <path id="svg_82" fill-rule="evenodd" fill="#2c1607" d="m-302.15,-151.8l0.2,-0.15l-0.15,0.2l-0.05,-0.05"/>
   <path id="svg_83" fill-rule="evenodd" fill="#1e0f04" d="m-302.1,-151.75l-0.35,0.35l-0.05,1.2l0.35,1.05l1.2,0.5l0.35,-0.45q0.15,1.65 -0.1,3.3q-0.4,1.8 -1.3,3.2l-0.25,0.35l-0.45,0l-0.35,-0.15l-0.7,-0.65l-0.75,-2.15l0.25,-2.85l1.75,-3.55l0.05,-0.05l0.3,-0.15l0.05,0.05"/>
   <path id="svg_84" stroke-width="0.25" stroke-opacity="0.65098" stroke-linejoin="round" stroke-linecap="round" stroke="#33170a" fill="none" d="m-302.15,-151.8l0.2,-0.15"/>
   <path id="svg_85" fill-rule="evenodd" fill="#2c1607" d="m-320.5,-135.05l-0.1,0l0.05,-0.15l0.05,0l0.15,-0.15l0.1,-0.05l-0.25,0.35"/>
   <path id="svg_86" fill-rule="evenodd" fill="#1e0f04" d="m-320.6,-135.05l0.1,0l-0.05,0.85l0.2,0.7l0.6,0.35l0.15,-0.3q0.05,1.15 -0.05,2.3q-0.2,1.25 -0.65,2.2l-0.1,0.25l-0.25,0l-0.15,-0.1l-0.35,-0.45l-0.4,-1.5l0.15,-2l0.8,-2.3"/>
   <path id="svg_87" stroke-width="0.25" stroke-opacity="0.65098" stroke-linejoin="round" stroke-linecap="round" stroke="#33170a" fill="none" d="m-320.25,-135.4l-0.1,0.05"/>
   <path id="svg_88" fill-rule="evenodd" fill="#ce6c0b" d="m-309.05,-75.4q0.6,0.45 -0.75,1.6l-0.15,0.15l-0.25,-0.45l-3.75,-0.1l-4.35,1.2l1.7,-0.8q2.5,-1.15 4.75,-1.6q2.25,-0.45 2.8,0"/>
   <path id="svg_89" fill-rule="evenodd" fill="#fef4d6" d="m-320.5,-70.5l0.35,-0.2l1,-0.2l0.55,0.15l0.05,0.1l-0.3,0.5l-0.85,0.5l-0.95,0.3q-0.45,-0.05 -0.5,-0.25l0.2,-0.5l0.45,-0.4"/>
   <path id="svg_90" fill-rule="evenodd" fill="#ce6c0b" d="m-272.9,-81.35q0.6,0.45 -0.75,1.6l-0.15,0.15q-0.05,-0.3 -0.25,-0.45l-3.75,-0.1l-4.35,1.2l1.7,-0.8q2.5,-1.15 4.75,-1.6q2.25,-0.45 2.8,0"/>
   <path id="svg_91" fill-rule="evenodd" fill="#fef4d6" d="m-284.3,-76.4l0.35,-0.2l1,-0.2l0.55,0.15l0.05,0.1l-0.3,0.5q-0.3,0.3 -0.85,0.5q-0.5,0.25 -0.95,0.3q-0.45,-0.05 -0.5,-0.25l0.2,-0.5l0.45,-0.4"/>
  </g>
  <g id="sprite3">
   <use id="svg_92" xlink:href="#shape5" width="2.65" height="1.55"/>
  </g>
  <g id="shape5">
   <path id="svg_93" fill-rule="evenodd" fill-opacity="0.8" fill="#fef4d6" d="m0.7,0.4l0.35,-0.2l1,-0.2q0.45,-0.05 0.55,0.15l0.05,0.1l-0.3,0.5l-0.85,0.5l-0.95,0.3q-0.45,-0.05 -0.5,-0.25l0.2,-0.5l0.45,-0.4"/>
  </g>
  <g transform="matrix(1,0,0,1,370.25,235.95) " id="shape6">
   <path id="svg_94" fill-rule="evenodd" fill="#351d06" d="m-302.55,72.9l0.1,0.05q0.3,0.1 0.65,0.3q1.25,0.8 1.85,2.3q0.5,1.3 0.3,2.5l-0.05,0.1l-0.05,0.3q-0.35,1.4 -1.5,1.9l-1.95,-0.1l-0.45,-0.25q-1.25,-0.75 -1.8,-2.25l-0.35,-1.4l-0.05,-0.15l0.15,-1.4q0.4,-1.4 1.55,-1.85l1.6,-0.05"/>
   <path id="svg_95" stroke-width="0.3" stroke-opacity="0.2" stroke-linejoin="round" stroke-linecap="round" stroke="#351d06" fill="none" d="m-302.55,72.9q-0.8,-1.55 0.55,-3.5m-0.55,3.5l0.1,0.05m2.75,5.2q1.25,1.1 2.7,0.55m-8.8,-2.35l-0.05,-0.15q-1.15,0.15 -2.85,-1.4m5.5,5.45q-1.2,2.65 -0.4,3.3"/>
   <path id="svg_96" stroke-width="0.75" stroke-linejoin="round" stroke-linecap="round" stroke="#8d4e11" fill="none" d="m-302.45,72.95q0.3,0.1 0.65,0.3q1.25,0.8 1.85,2.3q0.5,1.3 0.3,2.5"/>
   <path id="svg_97" stroke-width="0.75" stroke-linejoin="round" stroke-linecap="round" stroke="#a35b13" fill="none" d="m-305.85,76.2l0.15,-1.4q0.4,-1.4 1.55,-1.85l1.6,-0.05m-0.65,7.35l1.95,0.1q1.15,-0.5 1.5,-1.9"/>
   <path id="svg_98" stroke-width="0.75" stroke-linejoin="round" stroke-linecap="round" stroke="#cb7116" fill="none" d="m-303.2,80.25l-0.45,-0.25q-1.25,-0.75 -1.8,-2.25l-0.35,-1.4"/>
   <path id="svg_99" stroke-width="0.25" stroke-opacity="0.65098" stroke-linejoin="round" stroke-linecap="round" stroke="#33170a" fill="none" d="m-299.65,78.05l-0.05,0.1m-0.05,0.3l0.05,-0.3"/>
   <path id="svg_100" fill-rule="evenodd" fill-opacity="0.388235" fill="#000000" d="m-259.8,-90.45l10.8,-2.2l-19.2,6.85l-2.6,3.05l-1.45,0.4l-0.65,0l-0.4,0.05l-0.25,0l-0.25,0.05l5.05,-5.1l8.95,-3.1m-32.75,14.15l-15.2,1.55l0.2,-0.4l0.1,-0.65l10.6,-1.3l5.7,0.4l-1.4,0.4"/>
   <path id="svg_101" fill-rule="evenodd" fill-opacity="0.34902" fill="#ffffff" d="m-354.65,-0.7l2.95,-2.2l8.15,-2.6l13.2,-1.05l0.15,1.2l-12.35,1.45l-0.4,1.65l-0.1,0l-13.25,6.6l0.45,-1.55l0.15,-0.45l1.05,-3.05m32.9,-9.55l-14.6,0.9l15.4,-3.75l7.8,0.6l-8.6,2.25m-6.55,51l27.65,2.6q14.65,5.65 -26.25,-0.25q-6.5,-1.75 -1.4,-2.35m-1.95,-12.15q12.45,-3.9 27.4,-6.85q15.6,4.15 -25.5,10.5q-6.75,-0.45 -1.9,-3.65m-36.55,57.75l8.25,-18.4l1.35,2.15l-5.45,13.5l-0.45,14.8l-7.15,0l3.45,-12.05m16.55,-1.1q6.5,6.65 15,13.15l-8.45,0q-4.4,-5.95 -7.45,-12.2l0.9,-0.95"/>
   <path id="svg_102" fill-rule="evenodd" fill="url(#gradient17)" d="m-342.95,-2.25l30.65,-3.7l26.9,6.65l-31.75,-4.5q-26.25,2.85 -31.8,6.95l-2.1,0.45l-3.55,1.8l6.8,5.25l0.35,2.35l-9.2,-7.6l0.35,-1.05l13.25,-6.6l0.1,0"/>
   <path id="svg_103" fill-rule="evenodd" fill="url(#gradient18)" d="m-338.55,-31.35q13.35,-8.8 25.35,-10.45l-10.05,-1.5l-9.55,4.3l-2.35,1.55l6.35,-6.8l12.35,-4.65l4.05,0.5l21.3,7.8l5.05,1.85l8.15,1.35l5.2,6.1l2.2,8.65l-6.45,9.1l0,7.35l-8.6,0l-5.8,-1.5l0,0.05l-29.95,-0.6l19,-3l-4.65,-1.35l20.65,0.1l0.75,-0.7l-9.9,-24.1l-7.8,-2.8l-23.45,4.55l-16.1,11.65l2.1,-3.05l-0.75,-1.2l2.9,-3.2m57.65,9.4l2.25,-9.35l-9.1,-3.25l6.85,12.6"/>
   <path id="svg_104" fill-rule="evenodd" fill="url(#gradient19)" d="m-293,-76.15l0.45,-0.15l5.3,-1.55l-10.85,7.5l-0.75,6.5l-4.5,1.75l-0.5,-0.1l0.6,-7.6l10.25,-6.35"/>
   <path id="svg_105" fill-rule="evenodd" fill="url(#gradient20)" d="m-319.65,-67.4l1.2,-0.15l2.6,-0.6l3.2,-1.25q2.3,-1.05 4.1,-2.3l2.05,0.9l-8.2,3.25l-5.2,0.35l0.25,-0.2"/>
   <path id="svg_106" fill-rule="evenodd" fill="url(#gradient21)" d="m-273.85,-3.2l7.95,9.65l-3.8,3.35l-0.05,0l-0.15,-0.25l1.5,-2.05l-5.9,-5.2l-10.3,-1.5l-0.05,0l5.5,-5.35l5.3,1.35"/>
   <path id="svg_107" fill-rule="evenodd" fill="url(#gradient22)" d="m-274.2,21.25l0.75,1.7l-0.05,0.05l-2.55,1.45l-4,7.65l4.6,13.3l1.2,-1.2l2.55,13.25l-4.4,5.45q-22.65,-5.25 -50.85,-16.65l48.8,9.75l1.25,-2.4l-5.6,-21.5l2.35,-7.9l-13.25,-1.2l10.9,-1.45l8.25,0.7l0,-1l0.05,0"/>
   <path id="svg_108" fill-rule="evenodd" fill="url(#gradient23)" d="m-341.05,32.3l2.15,-0.8l5.15,-1.8q-9,6.8 36.85,12.05l-39.75,-2.6l-7.95,-1.6l0.65,-3.25l0.75,-1.35l2.15,-0.65"/>
   <path id="svg_109" fill-rule="evenodd" fill="url(#gradient24)" d="m-354.25,98.4q-1.15,-8.9 -0.2,-15.95q3.35,9.9 8.4,15.95l-8.2,0"/>
   <path id="svg_110" fill-rule="evenodd" fill="url(#gradient25)" d="m-357.65,63.9l3.75,2.8l4.25,3.05q7.85,14.3 34.9,28.65l-11.45,0q-23.95,-17.75 -31.45,-32.45l0,-2.05"/>
   <path id="svg_111" fill-rule="evenodd" fill="url(#gradient26)" d="m-325.8,-53.25q-4.35,1.35 -8.7,5l-0.25,0.2l-1.85,9.4l2.75,-1.8l4,-4.45l11.75,-4.2l1.65,0.2l-12.35,4.65l-6.35,6.8l2.35,-1.55l9.55,-4.3l10.05,1.5q-12,1.65 -25.35,10.45l-2.9,3.2l-0.05,-0.05l-1.5,-2.35l4.6,-5.65l-0.75,-1.55l-1.2,-2.95l-0.05,-0.2l1.2,-13.1q1.3,-2.75 5.5,-5.5l25.7,-0.8l3.5,-1.4l2.2,6.2l0.35,3.75l-23.6,-1.65l-0.25,0.15m47.6,-22.95q2.35,-1.1 4.05,-2.2l1.15,-0.85q0.75,-0.6 1.15,-1.1l2.05,0.8l-1.25,1.3l-1.15,0.85q-1.7,1.1 -4.05,2.2q-2.65,1.15 -4.8,1.65l-1,0.2l-1.15,0.1l-1.35,-0.25l-0.4,-0.35l0,-0.1l0.65,-0.35l0.15,-0.05l0.05,0l0.1,0q2.55,-0.45 5.8,-1.85m3.9,14.35q-4.85,2.9 -9.65,5.85q-1.7,1.45 -3.7,1.15l-7.55,0.95l-0.1,0l-3.55,-9.95l10.7,-4.15q10.9,1 13.85,4.95l0,1.2m-34.25,-9.85q-1.8,1.25 -4.1,2.3l-3.2,1.25l-2.6,0.6l-1.2,0.15l-0.3,0l-1.05,-0.25l-0.35,-0.4l-0.05,-0.25l0.05,0l1.2,-0.15l2.6,-0.6l3.2,-1.25q2.3,-1.05 4.05,-2.2l1.75,0.8m39.35,54.05l-4.6,7.5l0.35,7.45l-0.4,-0.5l-11.7,-3l8.6,0l0,-7.35l6.45,-9.1l1.3,5m0.8,25.15l-1.5,2.05l-4.4,-7.25l5.9,5.2m-5.05,15.45l-0.75,-1.7l5.45,1l-6.6,12.4l9.95,19.25l16.95,-2.15l0.65,2.2l-0.4,13.25q-10.35,-0.6 -22.35,-3.1l-5.55,-1.2l4.4,-5.45l-2.55,-13.25l-1.2,1.2l-4.6,-13.3l4,-7.65l2.55,-1.45l0.05,-0.05m-41.3,75.45q-27.05,-14.35 -34.9,-28.65l6.25,4.2q10.75,10.1 40.8,24.45l-12.15,0"/>
   <path id="svg_112" fill-rule="evenodd" fill="url(#gradient27)" d="m-273.8,-10.15l4.6,-7.5l1.85,7.15q-3.6,4.5 -2.5,12.15l-3.6,-4.35l-0.35,-7.45"/>
   <path id="svg_113" fill-rule="evenodd" fill="url(#gradient28)" d="m-261.55,23.5l5.1,0.9l8,27.35l-16.95,2.15l-9.95,-19.25l6.6,-12.4l7.05,1.25l0.15,0"/>
   <path id="svg_114" fill-rule="evenodd" fill="url(#gradient29)" d="m-302.6,98.4q-30.05,-14.35 -40.8,-24.45q23.55,15.4 49.4,24.45l-8.6,0"/>
   <path id="svg_115" fill-rule="evenodd" fill="url(#gradient30)" d="m-325.8,-53.25l0.25,-0.15l23.6,1.65l-1,-10.5l4.1,-1.6l3.55,9.95l0.1,0l7.55,-0.95q2,0.3 3.7,-1.15q4.8,-2.95 9.65,-5.85l0,24.4l1.6,6.15l-5.2,-6.1l-8.15,-1.35l-5.05,-1.85l-21.3,-7.8l-5.7,-0.7l-11.75,4.2l-4,4.45l-2.75,1.8l1.85,-9.4l0.25,-0.2q4.35,-3.65 8.7,-5"/>
   <path id="svg_116" fill-rule="evenodd" fill="url(#gradient31)" d="m-341.7,-142.85q1.15,-5.75 2.9,-10.9q7.5,-22.65 26.35,-33.9q4.6,-2.8 9.95,-4.9l3.9,1.4q-13.45,7 -24.2,17.8l1.15,-2.85q-14.25,14.6 -19.8,35.7l-0.25,-2.35m27.1,-56.75q14.05,-0.6 27.85,2.05l-3.25,1.8l-0.4,-0.1q-12.25,-2.65 -23,-3l-1.2,-0.75m45.4,-36.35q10.55,10.4 17.7,20.4l-10.55,-8.85l1.5,10.7l-8.65,-22.25m-13.8,37.3l3.5,2.75l2.5,3.85q0.45,2.55 0.75,5.2l0.05,0.5q1.9,14 -0.55,23.5q0.05,-2.3 -0.2,-4.2q-0.6,10.15 -3.5,15.2l0.55,-4.5l-0.35,1.05l-0.45,0.9q-4.65,12.6 -14.2,26.4l-1.15,-0.1q3.9,-6.45 8.4,-17.7q1.25,-3.2 1.95,-7.05l0.6,-3.95q5.05,-9.5 5.4,-28.7l-1.6,-7.95l-3.4,-2.05l-3.1,2.35l2.4,-5l2.4,-0.5m94.6,9.9l-5.1,2.75l-10.05,-2.9l7.1,-0.05l8.05,0.2m0.5,22.4l-0.4,0.1l-2.4,0.55l-1.15,-1.05l-0.3,-1.45q7.65,-0.8 14.95,0.9q6.6,4.55 11.35,9.5l3.8,4.35l0,0.05l-2,-0.9l-0.35,-0.2l-9.1,-9.4l-6.2,-2.8l-5.6,0.95l-0.9,-0.6l-0.2,-0.2l-0.05,0l-1.45,0.2m-3.3,4.5l0.2,3.2l0,0.65l-1.8,0.25q-5.5,0.65 -8.9,-1.3l8.65,-1.8q-2.45,-3.25 -5.4,-6l-1.05,-1q-8.05,-3.95 -19.45,-3.9l0.5,-2.25l-0.15,-0.15l-1.1,-1.5l9.9,0.35q9.15,0.15 15.4,7.35l3,4.15l0.2,1.95m-16.2,-35.35q-14.75,9.15 -21.5,17q3.2,-2.4 8.3,-1.6q-3.7,1.65 -8.75,6.2l2.55,4.45l-5.75,0.45l0.15,-3.6l-2.6,-5.5q15.75,-13.7 27.25,-17.85l0.35,0.45m-49.55,11.4l-5.05,-4.35l-3.85,1.45l-4.25,-1.65l-1.5,-2.7l5.15,1.9l5.45,-1.15l2.5,4.05l2.25,1.05l0.35,3.1l-1.05,-1.7m-19.8,15.5l-0.1,0.85l-0.1,1.85l0.2,-2.7m7.35,56l-1.35,2.2l-0.15,-27.9l2,-2.2l-0.5,27.9"/>
   <path id="svg_117" fill-rule="evenodd" fill="url(#gradient32)" d="m-330.25,-151.9l-5.15,7.55q29,-47.85 49.85,-48.15l0.05,0.1l3.9,5.55l-2.6,15.8q-0.1,-4.15 -0.75,-8.3l0.6,-4.45l-2.1,-3.45l-2.3,-0.4l-1.4,3.8l0,0.1q-24.15,13.25 -37.3,43.7l-0.35,0.8l0,0.05q-2.25,5.2 -4.15,10.9q-3.15,-7.3 -0.25,-14.6q19.25,-28.85 35.1,-41.3q-18.05,11.3 -33.15,32.3m139.25,-5.6l0,-0.5l0,-0.65l4.05,-1.65q-3.45,4.25 -2.75,7.7q5.7,-7.05 14.95,-7.05l-3.65,5.3q6.7,0.1 12.4,3.35l0.15,0.1q5.6,3.2 10.2,9.5q-0.75,5.2 -2.1,10.4l-2.4,-7q-2.45,-5 -5.95,-8.15q-5.25,-4.8 -12.85,-5.3l-0.2,3.95l-2.35,-3.65l2.4,-5.45q-5.3,0.85 -10.1,7.5l-2.1,-2.7l-0.6,3.9q-4.25,8.6 -9.65,9.8l3.55,1.7l-0.65,1.35l-13.5,2.95l-6.7,-2.3l2.75,3l2.1,5.25q4.7,10.55 4.95,19.8l-4.75,-4.3q-0.9,-5.8 -2.8,-10.65l-0.3,-0.7l-2.55,-3.05l1,2.6l0.45,8.05q0.4,9.4 -1.75,17.65l-2.25,7.3l-0.1,-15.6q-6.2,-14 -13.45,-20.45l6.8,-2.95q5.15,-10.05 4.25,-19.7l-3.8,-4.45l0.2,-1.7q-2,-5.15 -4.7,-10.15l-3.35,-5.6q4.15,7.85 -0.6,12.9l-4.05,2.2l-4.5,7.1q-9.6,11.2 -9.9,4.75q5.6,-17.15 5.35,-29.55q-1.05,8.8 -3,17.25l-0.6,2.45l-0.35,1.45l-0.45,1.6l-0.25,0.95l-2.7,8.6q-1.8,5 -3.9,9.85q-1.85,4.25 -4,8.4q4.65,-16.4 2.65,-32.7l-8.45,12.45l-0.1,-7.9l-11,10.55l11,-18.05l0,-0.2l-0.05,-5.4q-1.75,4.15 -3.85,8.3l-0.8,1.55q2.7,-11.25 4,-22.45l0.2,-1.1q0.7,-3.35 0.4,-6.85q4.4,6.2 3.2,11.8l-0.1,0.35l-0.85,2.65l-0.2,0.5q1.6,7.6 -4.05,18.8l8.15,-8.6q10.9,-9.1 11.65,-17.6l0,-0.2q-0.3,-2.9 -1.5,-5.7l-1.1,-2.2l-0.35,-3.1l6.45,3.2l-1.2,-5.15l-3.1,-7.85l14.05,2.65l5.05,14.55l2.6,5.5l-0.2,4.3l3.3,11.65l12.45,15.8l12.15,3.85l-8.4,-5.25l8.4,0.05q9.75,-3.75 13.7,-13.6m-135.4,56.45l-1.3,-0.45q1.2,-12.55 5.25,-25.2l0.45,2.75l0.1,0.65q-2.9,9.55 -4.5,22.25m120.05,-87.75l-1.55,7.85l-4.05,-3.3l0.05,-0.2l0.1,-0.5l1.15,-3.5l4.3,-0.35m-1.25,62.05l2.1,-0.65l-0.15,0.55l1.2,0.95q-0.05,8.4 12.75,17.3l-0.4,0.85l-0.8,1.7l-7.05,-6.6q-5.95,-7.4 -7.65,-14.1m-102.35,26.35q0.9,8.2 3.65,19.75l-1.6,-0.8q-2.6,-8.2 -3.7,-16.35l-0.4,-3.4l2.05,0.8m128.65,19.9l1.35,0.7l-3.25,8.35l1.15,3.05l0,0.05l0.9,2.35l-9.85,6.7l-12.45,-7.85l-0.05,-0.05l0,0.05l-1.5,1.9l-5.7,-8.25l19.45,10.45l6,-3.45l0.1,-0.8l-2.8,1.25l0.55,-4.9l4.25,-6.6l-0.25,-0.3l-0.15,-0.15l-3.3,-3.7q-2.35,-2.8 -4.05,-5.55q-3.25,-5.2 -4.35,-10.25l-0.3,-1.5l1.95,-5.4l0.2,7l5.2,10.65l7.2,5.8l-0.3,0.45m-27.1,19.8l13.9,14.75l11.5,4.5l3.15,2.95l23.05,-0.95l2.15,1.75l-1.7,1.2l-23.25,1.2l-3.95,-2.2l-4.4,-1.9q-4.7,-1.75 -9.15,-6.45q-4.45,-4.7 -12,-13.65l0.7,-1.2m44.45,30.4l2.4,0.5l12.85,-8.45l5.35,-10.15l-1.05,11.25l-25.5,13.2l5.95,-6.35m13.2,-96.35q11.5,10.5 13.7,20.25l0,1.3l-0.15,3.2q-0.25,1.8 -0.8,3.6q-1.45,4.6 -4.85,9.25l-1.5,0.9l2.9,-4.95l2.65,-12.85l-4.1,-9.7l-10.15,-11.25l2.3,0.25m-6.25,39.1l1.25,0.25l1.2,1l2.6,2.4l0.55,0.55l1.5,1.55q3.65,4 6.6,8.85l1.65,2.8l1.7,3.4q-0.55,2.85 -1.25,5.55l-0.65,2.45l-0.25,0.75l-2.3,-9.95l-6.6,-11.35q-3.6,-6.8 -9.05,-8.65l3.05,0.4"/>
   <path id="svg_118" fill-rule="evenodd" fill="url(#gradient33)" d="m-330.25,-151.9q15.1,-21 33.15,-32.3q-15.85,12.45 -35.1,41.3l2.35,-8.65l-0.4,-0.35m138.95,0.1l2.1,2.7q4.8,-6.65 10.1,-7.5l-2.4,5.45l2.35,3.65l0.2,-3.95q7.6,0.5 12.85,5.3q3.5,3.15 5.95,8.15l2.4,7l-1.05,3.65l-4.45,0l0.05,0.15l4.4,0l5.75,0.3l10.15,11.25l4.1,9.7l-2.65,12.85l-2.9,4.95l-2.65,1.65l-4.4,3.15l-0.55,-0.55l-2.6,-2.4l-1.2,-1l-1.25,-0.25l-3.05,-0.4q5.45,1.85 9.05,8.65l6.6,11.35l2.3,9.95l0,0.05l-0.1,0.25l-0.2,0.65l-0.2,0.6l-0.75,8.05l-5.35,10.15l-12.85,8.45l-2.4,-0.5l5.7,-6.1l1.9,-0.1l1.7,-1.2l-2.15,-1.75l-23.05,0.95l-3.15,-2.95l-11.5,-4.5l-13.9,-14.75l0.75,-1.35l8,4.6l-5.35,-7.8l1.5,-1.9l0,-0.05l0.05,0.05l12.45,7.85l9.85,-6.7l-0.9,-2.35l0,-0.05l-1.15,-3.05l3.25,-8.35l-1.35,-0.7l0.3,-0.45l-7.2,-5.8l-5.2,-10.65l-0.2,-7l0.3,-0.7l0.4,-0.95l0.8,-1.7l0.4,-0.85q-12.8,-8.9 -12.75,-17.3l-1.2,-0.95l0.15,-0.55l-2.1,0.65l-2.75,0.5l-3.65,0.1l-2.1,-5.25l-2.75,-3l6.7,2.3l13.5,-2.95l0.65,-1.35l-3.55,-1.7q5.4,-1.2 9.65,-9.8l0.6,-3.9m-133.8,51.25l-1.3,-0.5q1.6,-12.7 4.5,-22.25l0.1,0.65l0.25,2.3l0.05,0.5l0.05,0.85l0.05,0.55l0,1.35q0,2.05 -0.3,5.15l0.3,1.6q0.25,1.4 1.05,2.8l0.9,1.25l-0.1,0.1q-3.2,3.85 -6,13.3l0.45,-7.65m96.8,-52.05l3.8,4.45q0.9,9.65 -4.25,19.7l-6.8,2.95l-0.05,0.2l-0.55,1.35l-0.8,1.9l-9.7,5.15l-6.95,1.9l2.15,-10.9l2.7,-7.4l4.45,-0.75q4,-5.4 4.35,-11.3l0,-0.3l0,-1.3l-0.1,-1.6l-2.9,-3.05l2.15,-3.35l4.05,-2.2q4.75,-5.05 0.6,-12.9l3.35,5.6q2.7,5 4.7,10.15l-0.2,1.7m9.85,30.15l-1,-2.6l2.55,3.05l0.3,0.7q1.9,4.85 2.8,10.65l-4.2,-3.75l-0.45,-8.05m54.15,-4.9l-0.1,0.2l0.3,0l-0.2,-0.2m-89.95,-22.55l0.45,-1.6l0.35,-1.45l0.6,-2.45q1.95,-8.45 3,-17.25q0.25,12.4 -5.35,29.55q0.3,6.45 9.9,-4.75l-3,4.65l-12.8,12.7q2.1,-4.85 3.9,-9.85l2.7,-8.6l0.25,-0.95m-30.1,-33.9l-0.6,4.45l-1.1,-5.25l-4.05,0.8l-0.05,-0.05l1.4,-3.8l2.3,0.4l2.1,3.45m6.25,61.15l7.25,-7.35l0.05,6.35l-6.9,3l-0.4,-2m-26.15,24.7l-0.9,4.4q-1.1,6.6 -0.75,13.1l-0.4,-0.2q-2.75,-11.55 -3.65,-19.75l5.7,2.45"/>
   <path id="svg_119" fill-rule="evenodd" fill="#ac5f13" d="m-306.75,-58.8q2.9,0.75 5.25,-0.85l0.2,-0.1q-1.15,-6.45 0.9,-12.2l7.1,-4.7l1.05,-0.45l5.65,-2.25l-13,8.55q-1.15,6.25 0,12.5l-1,-0.2q-2.6,5.05 -6.05,0.95l-0.1,-1.25m36.2,75.15l1.05,2.55l-0.05,0.05l-1.35,0.75l-1.2,0.7l-12.7,-28.05l14.25,24m7.75,12.4q3.35,-1.9 7.35,-3.55l3.4,-0.1q13.65,-7.25 22.85,-3.65l-8.4,1.85l2.15,0.9l0.35,1.6l-9.05,1.4l1.2,0.25l3.6,7.65l3.2,12.1l2.85,3.1l-2.8,1.05l-2.9,-6.55l-2.7,-7.4l2.7,7.4l0,5.85l0,4.7l7.1,9.45l0.25,0.45l1.8,0.65l-1.1,0.7l1.15,2.15l-3.95,2.9l1.55,-0.05l-5.05,9.45l-7.75,4.2l-4.4,0.65l-0.85,-1.15l-0.25,-4.05l2.15,-0.25l-2.15,0.25l-0.1,-1.25l-0.95,-16.45l1.05,-0.25l-1.05,0.25l-0.1,-1.4l-0.05,-0.95l-1.35,-6.3q2.7,-5.4 6.3,-10.6l-7.3,5.85l-0.35,-1.2l-0.75,-0.8l1,-0.65l-1,0.65l-0.7,-0.8l-0.45,-0.5l0.7,-4l13.9,-4.9l-1.5,-3.9q-3.85,-8.05 -15.8,-2.9l-1.5,0.7l-0.2,0.1l-2.1,-2.65m10.75,-3.65l8.4,-0.2l-8.4,0.2m-1.5,20.45l-2.3,1.25l2.3,-1.25m7.1,14.7l-1.85,0.5l1.85,-0.5m-3.7,0.95l-1.5,0.4l1.5,-0.4m1.25,18.2l-1.7,0.05l1.7,-0.05"/>
   <path id="svg_120" fill-rule="evenodd" fill="#5e513a" d="m-269.5,18.9l0.65,-0.35l0.9,2.15l1,2.3l0.3,0.75l0.05,0.1l3.8,4.9l2.1,2.65l0.05,0.05l-4.5,5.85l-2.2,-1l-1.8,-0.75l-0.05,0l-0.8,-0.35l-0.25,-1.3l-0.2,-0.85l3.6,1l2.25,-2.05l-4.95,-13.05l0.05,-0.05m42,20.15l2.5,-0.5l0.4,0.15l-1.25,1.45l0.2,2.8l1.75,0.4l1,-1.7l1.65,-0.25l0.65,1.45l-0.35,2.35l-3.4,2.25l-2.95,-0.1l-0.65,-7.05l0.45,-1.25m9.4,9.25l0.05,0.15l-0.85,4.25l-0.25,1.1l-0.15,0.7l-0.05,0.45l-0.05,0.15l-2.55,0.45l-2.7,-4.85l3.45,-0.9l0.05,-0.05l2.8,-2.05l0.25,0.6"/>
   <path id="svg_121" fill-rule="evenodd" fill="#351d06" d="m-267.2,46.25l-3.9,-1.95q0.75,-4.6 3.75,-8l2.2,1l4.5,-5.85l0.15,-0.15l1.5,-0.7q11.95,-5.15 15.8,2.9l1.5,3.9l-13.9,4.9l-0.7,4l-2.55,-2.85l-8.35,2.8m7.8,-3.4l0.55,0.6l-0.55,-0.6"/>
   <path id="svg_122" fill-rule="evenodd" fill="#75410f" d="m-299.6,-58.3l0.9,3.75l28.15,70.9l-14.25,-24l-21.5,-47.4l-0.35,-2.5q3.45,4.1 6.05,-0.95l1,0.2m70.4,79.75q1.3,0.5 2.55,1.25l9.15,12.05l5.1,7.65l-4.2,1.6l-2.95,1.15l-1.05,-2.3l-0.65,-1.45l-0.75,-1.6l-0.85,-0.35l-1.1,-0.45l-0.65,-0.3l-0.4,-0.15l-2.5,0.5l-1.65,0.3l0,0.25l0,1l0.25,8.05l-4.25,1.6l-0.15,0.05l-2.85,-3.1l-3.2,-12.1l-3.6,-7.65l-1.2,-0.25l9.05,-1.4l-0.35,-1.6l-2.15,-0.9l8.4,-1.85m-4.5,18.6q2.3,-0.45 4.55,0.55q-2.25,-1 -4.55,-0.55m10.6,-6.9q0.05,3.4 -0.85,5.85q0.9,-2.45 0.85,-5.85m-11,2.65q2.05,2.8 4.95,3.8q-2.9,-1 -4.95,-3.8m14,0.4q-1.65,0.6 -2.75,3.25q1.1,-2.65 2.75,-3.25"/>
   <path id="svg_123" fill-rule="evenodd" fill="#61360c" d="m-259.05,89.25l-0.7,0.1l-3.1,-2.35l-4.6,-19.7l-9,-20.05l0,-0.45q0.1,-5.75 4.6,-11.45l1.6,-1.45l0.25,1.3l0.8,0.35q-4.25,3.6 -5.4,10.1l-0.05,0.5l8.45,18.45l4.25,21.5l2.9,3.15m39.75,-34.75l0.15,-0.7l0.25,-1.1l0.85,-4.25l-0.05,-0.15l0.5,-0.8l0.85,-0.3l1.4,8.55l4.1,6.25l0.5,7.55l-15.65,9.25l-8.75,2.85l5.65,-10.2l-2.7,0.15l-1.55,0.05l3.95,-2.9l-1.15,-2.15l1.1,-0.7l-1.8,-0.65l-0.25,-0.45l-7.1,-9.45l0,-4.7l3.35,5.05l0.1,0l7,-2.5l3.9,3.6q0.05,2.75 -0.55,4.35q0.6,-1.6 0.55,-4.35l0.95,0.95l0.35,0.3l3.9,-0.25l0.1,-2.65l-0.05,-0.05l0.05,-0.15l0.05,-0.45m-4.4,5.05l0,-1.8l0,1.8m6.7,-4.2l-2.15,-1.55l2.15,1.55m0.15,-1.8l-2.05,-0.85l2.05,0.85m-18.4,4.95l3.35,6.3l-3.35,-6.3"/>
   <path id="svg_124" fill-rule="evenodd" fill="#787458" d="m-270.45,33.05l-0.55,-2.6l2.85,1.3l0,-0.05l0.95,-1.35l-3.7,-10.65l1.35,-0.75l4.95,13.05l-2.25,2.05l-3.6,-1m45.85,5.65l0.65,0.3l1.1,0.45l0.85,0.35l0.75,1.6l-1.65,0.25l-1,1.7l-1.75,-0.4l-0.2,-2.8l1.25,-1.45"/>
   <path id="svg_125" fill-rule="evenodd" fill="#864b11" d="m-267.25,50.35l8.55,3l4.65,-3.75l0.5,2.3l-0.5,-2.3l7.3,-5.85q-3.6,5.2 -6.3,10.6q-5.65,11.05 -7.6,22.8l-1.1,-6.55q4.65,-12.1 8.3,-18.05l-0.1,-0.65l-5.55,4l-6.35,-2.35l-1.8,-3.2m13.8,2.2l0.4,1.8l-0.4,-1.8"/>
   <path id="svg_126" fill-rule="evenodd" fill="#968e72" d="m-271,30.45l-0.1,-0.3l-1.95,-9.2l0.95,-0.55l1.2,-0.7l3.7,10.65l-0.95,1.35l0,0.05l-2.85,-1.3"/>
   <path id="svg_127" fill-rule="evenodd" fill="#443c2b" d="m-228.9,48.65l-0.25,-8.05l0,-1l0,-0.25l1.65,-0.3l-0.45,1.25l0.65,7.05l2.95,0.1l3.4,-2.25l0.35,-2.35l1.05,2.3l0.55,1.15l0.65,1.4l-2.8,2.05l-0.05,0.05l-3.45,0.9l2.7,4.85l-1.45,0.25l-0.55,-0.55l-0.4,-0.35l-3.95,-3.7l-0.3,-1.15l-0.3,-1.4m0.3,1.4l6.05,-1.95l3.55,-1.8l-3.55,1.8l-6.05,1.95"/>
   <path id="svg_128" fill-rule="evenodd" fill="#482809" d="m-216.6,44l3.9,11l0.05,0.05l0.1,0.3l0.55,0.45l3.75,6.3l0.3,8.8q-12.8,8.5 -33.2,15.7l5.45,-4.2l0.25,-0.2l0.3,-0.55l8.75,-2.85l15.65,-9.25l-0.5,-7.55l-4.1,-6.25l-1.4,-8.55l-0.85,0.3l-0.5,0.8l-0.25,-0.6l-0.65,-1.4l-0.55,-1.15l2.95,-1.15m-37,44.5l-5.45,0.75l-2.9,-3.15l-4.25,-21.5l-8.45,-18.45l0.05,-0.5q1.15,-6.5 5.4,-10.1l0.05,0l1.8,0.75q-3,3.4 -3.75,8l3.9,1.95l-2.05,0.65l-2.15,0.65l5.25,7.95l3.35,17.8l0.1,0.55l2.35,12.45l6.75,2.2m20.3,-38.2l0.15,-0.05l4.25,-1.6l0.3,1.4l0.3,1.15l3.95,3.7l0.4,0.35l0.55,0.55l1.45,-0.25l2.55,-0.45l0.05,0.05l-0.1,2.65l-3.9,0.25l-0.35,-0.3l-0.95,-0.95l-3.9,-3.6l-7,2.5l-0.1,0l-3.35,-5.05l0,-5.85l2.9,6.55l2.8,-1.05m9.35,4.95l0.25,2.5l-0.25,-2.5m-0.4,-0.35l-0.3,1.9l0.3,-1.9"/>
   <path id="svg_129" fill-rule="evenodd" fill="#6b3d0e" d="m-241.15,86.6l-1.1,0.4l-5.7,0.75l-5.65,0.75l-6.75,-2.2l-2.35,-12.45l-0.1,-0.55l-3.35,-17.8l-5.25,-7.95l2.15,-0.65l2,3.45l1.8,3.2l6.35,2.35l5.55,-4l0.1,0.65q-3.65,5.95 -8.3,18.05l1.1,6.55l1.1,6.3l1.25,2.15l3.2,1.15l5.7,-0.85l1.45,1.85l-1.45,-1.85l4.4,-0.65l7.75,-4.2l5.05,-9.45l2.7,-0.15l-5.65,10.2l-0.3,0.55l-0.25,0.2l-5.45,4.2"/>
   <path id="svg_130" fill-rule="evenodd" fill="#945210" d="m-269.25,46.9l2.05,-0.65l8.35,-2.8l2.55,2.85l0.45,0.5l0.7,0.8l0.75,0.8l0.35,1.2l-4.65,3.75l-8.55,-3l-2,-3.45m12.9,1.45l1.2,-0.75l-1.2,0.75m-1.85,-0.25l2.35,-1.3l-2.35,1.3m5.15,6.25l1.35,6.3l0.05,0.95l-1.65,0.4l1.65,-0.4l0.1,1.4l-2.2,0.5l2.2,-0.5l0.95,16.45l-1.4,0.05l1.4,-0.05l0.1,1.25l0.25,4.05l0.85,1.15l-5.7,0.85l-3.2,-1.15l-1.25,-2.15l-1.1,-6.3q1.95,-11.75 7.6,-22.8m0.6,26.55l1.95,-0.2l-1.95,0.2"/>
   <path id="svg_131" fill-rule="evenodd" fill="#bf6a15" d="m-306.75,-58.8q-0.4,-6.65 2.8,-12.4l5.25,-3.3l5.4,-2.15l-7.1,4.7q-2.05,5.75 -0.9,12.2l-0.2,0.1q-2.35,1.6 -5.25,0.85"/>
   <path id="svg_132" stroke-width="0.25" stroke-opacity="0.65098" stroke-linejoin="round" stroke-linecap="round" stroke="#33170a" fill="none" d="m-235.15,81.65l-0.3,0.55l-0.25,0.2m3.8,-17.6l-3.35,-6.3m3.35,6.3l0.25,0.45m0.7,1.35l1.15,2.15l-3.95,2.9l1.55,-0.05l2.7,-0.15l-5.65,10.2"/>
   <path id="svg_133" stroke-width="0.75" stroke-opacity="0.65098" stroke-linejoin="round" stroke-linecap="round" stroke="#33170a" fill="none" d="m-293.3,-76.65l-5.4,2.15l-5.25,3.3q-3.2,5.75 -2.8,12.4m14.5,-18.3l5.65,-2.25l-13,8.55q-1.15,6.25 0,12.5l0.9,3.75l28.15,70.9l1.05,2.55l0.65,-0.35l0.9,2.15m1,2.3l0.3,0.75l0.05,0.1l3.8,4.9q3.35,-1.9 7.35,-3.55l3.4,-0.1q13.65,-7.25 22.85,-3.65q1.3,0.5 2.55,1.25l9.15,12.05l5.1,7.65l-4.2,1.6l3.9,11l0.05,0.05l0.1,0.3l0.55,0.45l3.75,6.3l0.3,8.8q-12.8,8.5 -33.2,15.7l-1.1,0.4l-5.7,0.75l-5.65,0.75l-5.45,0.75l-0.7,0.1l-3.1,-2.35l-4.6,-19.7l-9,-20.05l0,-0.45q0.1,-5.75 4.6,-11.45l1.6,-1.45l-0.2,-0.85l-0.55,-2.6m-0.1,-0.3l-1.95,-9.2l0.95,-0.55l-12.7,-28.05l-21.5,-47.4l-0.35,-2.5l-0.1,-1.25m73.6,109.05l4.25,-1.6l-0.25,-8.05l0,-1l0,-0.25l1.65,-0.3l2.5,-0.5l0.4,0.15l0.65,0.3m-17.75,-1.6l2.7,7.4l2.9,6.55l2.8,-1.05m12.05,-8.9l-0.75,-1.6l-0.85,-0.35l-1.1,-0.45m3.35,3.85l-0.65,-1.45m1.95,13.1l0.15,-0.7l0.25,-1.1l0.85,-4.25l-0.05,-0.15l-0.25,-0.6l-0.65,-1.4l-0.55,-1.15l-1.05,-2.3m-1.35,12.7l2.55,-0.45l0.05,-0.15m0.35,-8.65l-3.55,1.8l-6.05,1.95l0.3,1.15l3.95,3.7l0.4,0.35l0.55,0.55l1.45,-0.25m2.4,-10.4l2.95,-1.15m-12.3,4.65l0.3,1.4m-40.95,-31.1l0.05,-0.05m-1.4,0.8l1.35,-0.75m-2.55,1.45l1.2,-0.7m1.7,15.85l-0.8,-0.35l-0.25,-1.3m2.9,2.4l-1.8,-0.75m1.95,10.7l-3.9,-1.95q0.75,-4.6 3.75,-8l2.2,1l4.5,-5.85m-0.05,-0.05l-2.1,-2.65m-6.45,18.15l2.05,-0.65l8.35,-2.8m-3.95,29.85l-3.35,-17.8l-5.25,-7.95l2.15,-0.65m25.6,-22l-8.4,0.2m-8.45,6.2l-0.15,0.15m0.15,-0.15l1.5,-0.7q11.95,-5.15 15.8,2.9l1.5,3.9l-13.9,4.9m-5.1,-10.9l0.2,-0.1m6.9,57.2l-6.75,-2.2l-2.35,-12.45"/>
   <path id="svg_134" stroke-width="0.5" stroke-opacity="0.301961" stroke-linejoin="round" stroke-linecap="round" stroke="#351d06" fill="none" d="m-258.85,43.45l-0.55,-0.6m5.35,6.75l-0.35,-1.2l-0.75,-0.8l-1.2,0.75m0.75,-6.05l-0.7,4l0.45,0.5l2.3,-1.25m-1.6,2.05l1,-0.65m-1.7,-0.15l0.7,0.8m-1.15,-1.3l-2.55,-2.85m3,3.35l-2.35,1.3m6.55,13.5l-0.05,-0.95l-1.35,-6.3l-0.4,-1.8l-0.1,-0.65l-0.5,-2.3m4.65,36.3l-0.85,-1.15l-0.25,-4.05l-1.95,0.2m0.8,-19.3l1.5,-0.4m1.85,-0.45l1.85,-0.5m-5.1,2.75l1.05,-0.25m-1.15,-1.15l-1.65,0.4m1.75,1l-0.1,-1.4m-2.1,1.9l2.2,-0.5l0.95,16.45l1.7,-0.05m-1.6,1.3l2.15,-0.25m-2.25,-1l-1.4,0.05m1.5,1.2l-0.1,-1.25m2.65,8.3l-1.45,-1.85"/>
   <path id="svg_135" stroke-width="0.5" stroke-opacity="0.301961" stroke-linejoin="round" stroke-linecap="round" stroke="#482809" fill="none" d="m-229.15,40.6q-2.25,-1 -4.55,-0.55m9.75,-1.05q0.9,-2.45 0.85,-5.85m-6.05,6.45q-2.9,-1 -4.95,-3.8m11.25,3.65q1.1,-2.65 2.75,-3.25m1.2,16.5l2.05,0.85m-2.3,0.25l2.15,1.55m-6.7,2.4l0,1.8m-0.95,-2.75q0.05,2.75 -0.55,4.35m1.5,-3.4l-0.25,-2.5m-0.7,1.55l0.3,-1.9"/>
   <path id="svg_136" stroke-width="0.5" stroke-opacity="0.301961" stroke-linejoin="round" stroke-linecap="round" stroke="#884c11" fill="none" d="m-242.9,52.2l1.85,4.45l-1.35,0.85l-1.75,-4.2m3.8,2.95l-0.7,0.4l1,2.05l-1.45,0.95l-0.9,-2.15l-4.85,3.1m3.95,0.2l1.8,-1.15q2.9,6.45 6.05,11.8m-4.6,-12.75l3,5.7m-0.8,-7.05l-2.2,1.35"/>
  </g>
  <g transform="matrix(1,0,0,1,29.6,29.6) " id="shape7">
   <path id="svg_137" fill-rule="evenodd" fill="url(#gradient34)" d="m20.9,-20.95q8.7,8.7 8.7,20.95q0,12.25 -8.7,20.9q-8.65,8.7 -20.9,8.7q-12.25,0 -20.95,-8.7q-8.65,-8.65 -8.65,-20.9q0,-12.25 8.65,-20.95q8.7,-8.65 20.95,-8.65q12.25,0 20.9,8.65"/>
  </g>
  <g transform="matrix(1,0,0,1,192.55,294) " id="shape8">
   <path id="svg_138" stroke-opacity="0" stroke-linejoin="round" stroke-linecap="round" stroke="#ff00ff" fill="none" d="m187.95,-293.5l0,380l-379.95,0l-0.05,0l0,-380l380,0m-95,294.1l-189.95,0"/>
   <path id="svg_139" stroke-opacity="0" stroke-linejoin="round" stroke-linecap="round" stroke="#ff00ff" fill="none" d="m187.95,-293.5l-190,190l190,190m-380,-380l190,190l-189.95,190"/>
  </g>
  <g id="sprite4">
   <use id="svg_140" xlink:href="#shape9" width="102.95" height="45"/>
  </g>
  <g id="shape9">
   <path id="svg_141" fill-rule="evenodd" fill-opacity="0" fill="#ff00ff" d="m0,0l102.95,0l0,45l-102.95,0l0,-45"/>
  </g>
  <radialGradient spreadMethod="pad" r="819.2" id="gradient0" gradientUnits="userSpaceOnUse" gradientTransform="matrix(0.2696, 0.0, 0.0, 0.2696, -272.25, -99.5)" cy="0" cx="0">
   <stop stop-color="#a66a2f" offset="0"/>
   <stop stop-color="#c78038" offset="1"/>
  </radialGradient>
  <radialGradient spreadMethod="pad" r="819.2" id="gradient1" gradientUnits="userSpaceOnUse" gradientTransform="matrix(0.0821, 0.0, 0.0, 0.0821, -289.45, -179.2)" cy="0" cx="0">
   <stop stop-color="#a66a2f" offset="0.160784"/>
   <stop stop-color="#c78038" offset="1"/>
  </radialGradient>
  <radialGradient spreadMethod="pad" r="819.2" id="gradient2" gradientUnits="userSpaceOnUse" gradientTransform="matrix(0.097, 0.0, 0.0, 0.097, -242.5, -147.3)" cy="0" cx="0">
   <stop stop-color="#d99440" offset="0"/>
   <stop stop-color="#e1aa68" offset="0.709804"/>
  </radialGradient>
  <radialGradient spreadMethod="pad" r="819.2" id="gradient3" gradientUnits="userSpaceOnUse" gradientTransform="matrix(0.0146, 0.0, 0.0, 0.0146, -302.3, -150.55)" cy="0" cx="0">
   <stop stop-color="#4a230f" offset="0.737255"/>
   <stop stop-color="#873a1b" offset="1"/>
  </radialGradient>
  <linearGradient y2="-60.247394" y1="-32.028366" x2="-3.673166" x1="33.041103" spreadMethod="pad" id="gradient4">
   <stop stop-color="#c78038" offset="0"/>
   <stop stop-color="#763e14" offset="1"/>
  </linearGradient>
  <radialGradient spreadMethod="pad" r="819.2" id="gradient5" gradientUnits="userSpaceOnUse" gradientTransform="matrix(0.0093, 0.0, 0.0, 0.0093, -321.0, -132.6)" cy="0" cx="0">
   <stop stop-color="#472c12" offset="0.737255"/>
   <stop stop-color="#874a23" offset="1"/>
  </radialGradient>
  <radialGradient spreadMethod="pad" r="819.2" id="gradient6" gradientUnits="userSpaceOnUse" gradientTransform="matrix(0.0354, 0.0, 0.0, 0.0354, -271.0, -100.15)" cy="0" cx="0">
   <stop stop-color="#704721" offset="0"/>
   <stop stop-color="#af7031" offset="0.709804"/>
  </radialGradient>
  <radialGradient spreadMethod="pad" r="819.2" id="gradient7" gradientUnits="userSpaceOnUse" gradientTransform="matrix(0.1373, 0.0, 0.0, 0.1373, -378.95, -118.6)" cy="0" cx="0">
   <stop stop-color="#fce4cf" offset="0"/>
   <stop stop-color="#fbd9b9" offset="0.235294"/>
  </radialGradient>
  <radialGradient spreadMethod="pad" r="819.2" id="gradient8" gradientUnits="userSpaceOnUse" gradientTransform="matrix(0.1087, 0.0, 0.0, 0.1087, -381.8, -88.35)" cy="0" cx="0">
   <stop stop-color="#d78f40" offset="0"/>
   <stop stop-color="#dda057" offset="1"/>
  </radialGradient>
  <radialGradient spreadMethod="pad" r="819.2" id="gradient9" gradientUnits="userSpaceOnUse" gradientTransform="matrix(0.0847, 0.0, 0.0, 0.0847, -276.95, -68.35)" cy="0" cx="0">
   <stop stop-color="#f99926" offset="0.72549"/>
   <stop stop-color="#fbb359" offset="1"/>
  </radialGradient>
  <radialGradient spreadMethod="pad" r="819.2" id="gradient10" gradientUnits="userSpaceOnUse" gradientTransform="matrix(0.082, 0.0, 0.0, 0.082, -276.8, -41.95)" cy="0" cx="0">
   <stop stop-color="#b34f1a" offset="0"/>
   <stop stop-color="#c9581d" offset="1"/>
  </radialGradient>
  <radialGradient spreadMethod="pad" r="819.2" id="gradient11" gradientUnits="userSpaceOnUse" gradientTransform="matrix(0.0671, 0.0, 0.0, 0.0671, -344.15, -22.75)" cy="0" cx="0">
   <stop stop-color="#a66a2f" offset="0"/>
   <stop stop-color="#c78038" offset="1"/>
  </radialGradient>
  <radialGradient spreadMethod="pad" r="819.2" id="gradient12" gradientUnits="userSpaceOnUse" gradientTransform="matrix(0.0761, 0.0, 0.0, 0.0761, -244.15, -28.95)" cy="0" cx="0">
   <stop stop-color="#925e29" offset="0.235294"/>
   <stop stop-color="#cb8b4e" offset="1"/>
  </radialGradient>
  <radialGradient spreadMethod="pad" r="819.2" id="gradient13" gradientUnits="userSpaceOnUse" gradientTransform="matrix(0.0829, 0.0, 0.0, 0.0829, -245.6, 16.3)" cy="0" cx="0">
   <stop stop-color="#a76a2f" offset="0"/>
   <stop stop-color="#c78038" offset="0.65098"/>
  </radialGradient>
  <radialGradient spreadMethod="pad" r="819.2" id="gradient14" gradientUnits="userSpaceOnUse" gradientTransform="matrix(0.0753, 0.0, 0.0, 0.0753, -286.8, 1.65)" cy="0" cx="0">
   <stop stop-color="#c78038" offset="0"/>
   <stop stop-color="#e1aa68" offset="0.898039"/>
  </radialGradient>
  <radialGradient spreadMethod="pad" r="819.2" id="gradient15" gradientUnits="userSpaceOnUse" gradientTransform="matrix(0.1262, 0.0, 0.0, 0.1262, -346.85, 41.4)" cy="0" cx="0">
   <stop stop-color="#864b11" offset="0"/>
   <stop stop-color="#ce7317" offset="1"/>
  </radialGradient>
  <radialGradient spreadMethod="pad" r="819.2" id="gradient16" gradientUnits="userSpaceOnUse" gradientTransform="matrix(0.1248, 0.0, 0.0, 0.1248, -357.6, 61.0)" cy="0" cx="0">
   <stop stop-color="#864b11" offset="0"/>
   <stop stop-color="#ce7317" offset="1"/>
  </radialGradient>
  <linearGradient y2="0.498681" y1="0.498681" x2="0.999792" x1="-0.000494" spreadMethod="pad" id="gradient17">
   <stop stop-opacity="0.023529" stop-color="#000000" offset="0"/>
   <stop stop-opacity="0.211765" stop-color="#000000" offset="1"/>
  </linearGradient>
  <linearGradient y2="0.5" y1="0.5" x2="0.999678" x1="0.000322" spreadMethod="pad" id="gradient18">
   <stop stop-opacity="0.023529" stop-color="#000000" offset="0"/>
   <stop stop-opacity="0.211765" stop-color="#000000" offset="1"/>
  </linearGradient>
  <linearGradient y2="0.498413" y1="0.498413" x2="0.99843" x1="0.001572" spreadMethod="pad" id="gradient19">
   <stop stop-opacity="0.023529" stop-color="#000000" offset="0"/>
   <stop stop-opacity="0.211765" stop-color="#000000" offset="1"/>
  </linearGradient>
  <linearGradient y2="0.5" y1="0.5" x2="1.001301" x1="-0.001303" spreadMethod="pad" id="gradient20">
   <stop stop-opacity="0.023529" stop-color="#000000" offset="0"/>
   <stop stop-opacity="0.211765" stop-color="#000000" offset="1"/>
  </linearGradient>
  <linearGradient y2="0.498258" y1="0.498258" x2="0.996741" x1="0.000593" spreadMethod="pad" id="gradient21">
   <stop stop-opacity="0.023529" stop-color="#000000" offset="0"/>
   <stop stop-opacity="0.211765" stop-color="#000000" offset="1"/>
  </linearGradient>
  <linearGradient y2="0.4994" y1="0.4994" x2="0.999223" x1="-0.000127" spreadMethod="pad" id="gradient22">
   <stop stop-opacity="0.023529" stop-color="#000000" offset="0"/>
   <stop stop-opacity="0.211765" stop-color="#000000" offset="1"/>
  </linearGradient>
  <linearGradient y2="0.497925" y1="0.497925" x2="0.999763" x1="0.000237" spreadMethod="pad" id="gradient23">
   <stop stop-opacity="0.023529" stop-color="#000000" offset="0"/>
   <stop stop-opacity="0.211765" stop-color="#000000" offset="1"/>
  </linearGradient>
  <linearGradient y2="0.498433" y1="0.498433" x2="0.997018" x1="-0.004974" spreadMethod="pad" id="gradient24">
   <stop stop-opacity="0.023529" stop-color="#000000" offset="0"/>
   <stop stop-opacity="0.211765" stop-color="#000000" offset="1"/>
  </linearGradient>
  <linearGradient y2="0.5" y1="0.5" x2="1.000304" x1="-0.000304" spreadMethod="pad" id="gradient25">
   <stop stop-opacity="0.023529" stop-color="#000000" offset="0"/>
   <stop stop-opacity="0.211765" stop-color="#000000" offset="1"/>
  </linearGradient>
  <linearGradient y2="0.572049" y1="0.293406" x2="0.751317" x1="-0.020831" spreadMethod="pad" id="gradient26">
   <stop stop-opacity="0.113725" stop-color="#000000" offset="0"/>
   <stop stop-opacity="0.333333" stop-color="#000000" offset="1"/>
  </linearGradient>
  <linearGradient y2="0.5" y1="0.5" x2="0.991454" x1="0.000791" spreadMethod="pad" id="gradient27">
   <stop stop-opacity="0.211765" stop-color="#000000" offset="0"/>
   <stop stop-opacity="0.4" stop-color="#000000" offset="1"/>
  </linearGradient>
  <linearGradient y2="0.49921" y1="0.49921" x2="0.999438" x1="0.000563" spreadMethod="pad" id="gradient28">
   <stop stop-opacity="0.211765" stop-color="#000000" offset="0"/>
   <stop stop-opacity="0.4" stop-color="#000000" offset="1"/>
  </linearGradient>
  <linearGradient y2="0.498978" y1="0.498978" x2="1.000806" x1="-0.000807" spreadMethod="pad" id="gradient29">
   <stop stop-opacity="0.211765" stop-color="#000000" offset="0"/>
   <stop stop-opacity="0.4" stop-color="#000000" offset="1"/>
  </linearGradient>
  <linearGradient y2="0.499232" y1="0.499232" x2="0.999982" x1="0.000019" spreadMethod="pad" id="gradient30">
   <stop stop-opacity="0.211765" stop-color="#000000" offset="0"/>
   <stop stop-opacity="0.4" stop-color="#000000" offset="1"/>
  </linearGradient>
  <linearGradient y2="0.454277" y1="0.590535" x2="0.159715" x1="0.875632" spreadMethod="pad" id="gradient31">
   <stop stop-opacity="0.243137" stop-color="#ffffff" offset="0"/>
   <stop stop-opacity="0.4" stop-color="#ffffff" offset="1"/>
  </linearGradient>
  <linearGradient y2="0.643415" y1="0.158665" x2="0.756575" x1="0.142846" spreadMethod="pad" id="gradient32">
   <stop stop-opacity="0.243137" stop-color="#000000" offset="0"/>
   <stop stop-opacity="0.392157" stop-color="#000000" offset="0.972549"/>
   <stop stop-opacity="0.4" stop-color="#000000" offset="1"/>
  </linearGradient>
  <linearGradient y2="0.857872" y1="0.379378" x2="0.838244" x1="0.39857" spreadMethod="pad" id="gradient33">
   <stop stop-opacity="0.4" stop-color="#000000" offset="0"/>
   <stop stop-opacity="0.501961" stop-color="#000000" offset="1"/>
  </linearGradient>
  <radialGradient spreadMethod="pad" r="819.2" id="gradient34" gradientUnits="userSpaceOnUse" gradientTransform="matrix(0.0374, 0.0, 0.0, 0.0374, 0.0, 0.0)" cy="0" cx="0">
   <stop stop-opacity="0.168627" stop-color="#cc0000" offset="0.027451"/>
   <stop stop-opacity="0" stop-color="#d90f0f" offset="1"/>
  </radialGradient>
 </defs>
 <g>
  <title>background</title>
  <rect fill="none" id="canvas_background" height="375" width="293" y="-1" x="-1"/>
 </g>
 <g>
  <title>Layer 1</title>
  <g id="svg_142">
   <use x="123.58333" y="273.526993" id="svg_143" xlink:href="#shape0" width="271.35" transform="matrix(1.0713,-0.0196,0.0196,1.0713,-141.3545,-286.4146) " height="344.35"/>
   <use x="123.58333" y="273.526993" xlink:href="#sprite0" width="59.7" transform="matrix(1.0713,-0.0196,0.0196,1.0713,-33.4533,-133.1032) " id="bretelles" height="17.9"/>
   <use x="123.58333" y="273.526993" xlink:href="#sprite1" width="122.45" transform="matrix(1.0713,-0.0196,0.0196,1.0713,-99.117,-118.7197) " id="tunique" height="178.75"/>
   <use x="123.58333" y="273.526993" xlink:href="#sprite2" width="204.65" transform="matrix(1.0713,-0.0196,0.0196,1.0713,-71.5732,-285.9514) " id="cheveux" height="212"/>
   <use x="123.58333" y="273.526993" id="svg_144" xlink:href="#shape4" width="268.85" transform="matrix(1.0713,-0.0196,0.0196,1.0713,-139.9909,-285.1) " height="341.85"/>
   <use x="-9.929325" y="-1.58174" id="svg_145" xlink:href="#sprite3" width="2.65" transform="matrix(3.137500000000001,-0.057400000000000014,0.057400000000000014,3.137500000000001,120.80000000000003,183.25000000000006) " height="1.55"/>
   <use x="-9.929325" y="-1.58174" id="svg_146" xlink:href="#sprite3" width="2.65" transform="matrix(3.137500000000001,-0.057400000000000014,0.057400000000000014,3.137500000000001,159.7,176.25) " height="1.55"/>
   <use x="123.58333" y="273.526993" id="svg_147" xlink:href="#shape6" width="233.2" transform="matrix(1.0713,-0.0196,0.0196,1.0713,-102.1676,-285.4166) " height="334.35"/>
   <use x="-67.150061" y="54.323243" id="svg_148" xlink:href="#sprite3" width="2.65" transform="matrix(1.2631,-2.868,4.0972,1.8044,4.9,-6.65) " height="1.55"/>
   <use x="-4.103276" y="-6.936592" id="svg_149" xlink:href="#sprite3" width="2.65" transform="matrix(0.8421,-1.912,4.006099999999999,1.7642999999999995,225.2,304.8999999999999) " height="1.55"/>
   <use x="-140.103582" y="1171.870864" id="svg_150" xlink:href="#shape7" width="59.2" transform="matrix(0.3333,-0.2391,0.1574,0.2194,-36.374,-182.0183) " height="59.2"/>
   <use x="137.75595" y="290.607234" id="svg_151" xlink:href="#shape8" width="381" transform="matrix(1,0,0,1,-192.55,-294) " height="381"/>
   <use x="-17.288651" y="-2.656165" xlink:href="#sprite4" width="102.95" transform="matrix(1.8072000000000004,0,0,1.6538,80.80000000000003,82.35) " id="_mcMask" height="45"/>
  </g>
 </g>
</svg>