<svg width="215" height="172" xmlns="http://www.w3.org/2000/svg" xmlns:xlink="http://www.w3.org/1999/xlink">
 <defs>
  <g transform="matrix(1,0,0,1,192.55,294) " id="shape0">
   <path id="svg_1" stroke-opacity="0" stroke-linejoin="round" stroke-linecap="round" stroke="#ff00ff" fill="none" d="m187.95,-293.5l0,380l-379.95,0l-0.05,0l0,-380l380,0m-95,294.1l-189.95,0"/>
   <path id="svg_2" stroke-opacity="0" stroke-linejoin="round" stroke-linecap="round" stroke="#ff00ff" fill="none" d="m187.95,-293.5l-190,190l190,190m-380,-380l190,190l-189.95,190"/>
  </g>
  <g transform="matrix(1,0,0,1,2.7,1.8) " id="shape1">
   <path id="svg_3" fill-rule="evenodd" fill="#000000" d="m1.85,1.65l-0.05,0.25l-1.7,-1.35l1.75,1.1m-0.4,0.45l-1.65,-1.45l1.7,1.2l-0.05,0.25m-1.45,0.2l-0.05,0.05l-1.05,-1.9l0.75,1.05l-0.45,-1.05l1.05,1.8l-0.2,0.2l-0.05,-0.15m-2.35,-2l0,-0.05l-0.1,-0.75l0.15,0.55l0.5,-1.85l-0.3,2.05l-0.15,0l0.35,1.25l-0.25,0.15l-0.2,-1.35m0.55,1.9l-0.05,-2.2l0.25,2.05l-0.2,0.15m1.5,0.35l-0.8,-2.05l0.95,1.85l-0.15,0.2m-1.95,-1.05l-0.25,0.15l-0.2,-2.15l0.45,2"/>
  </g>
  <g transform="matrix(1,0,0,1,26.05,22.85) " id="shape2">
   <path id="svg_4" fill-rule="evenodd" fill="#000000" d="m8.7,-1.85l-2.2,0.15q8.7,-2.7 14.4,-8q-4.35,5.15 -12.2,7.85m-6.4,1.25l1.95,-0.45q0.45,1 18.15,2.95l-19.15,-1.15q6.2,2.45 18.75,14.4q-11.5,-9.85 -19,-12.05q1.35,6.05 3.15,12.75l-5.25,-13.75l-1.8,20.75q0.65,-10.1 0.75,-19.25q-5.3,5.15 -13.2,11.5q17.9,-16.05 10.1,-12.3q-9.7,3.65 -22.8,1.75q33.5,-2.1 22.6,-4.25q-4.45,-1.85 -17.05,-5.75q14.35,4.15 17.1,4.25q-4.95,-3.7 -12,-15.25q8.85,10.85 14.85,15.8q-0.15,-9.6 -3.35,-22.2q4.25,9.05 3.95,21.65q1.95,-8.4 2.75,-13.35l-1.75,13.3q3.15,-3 5.45,-5.8l-4.2,6.45"/>
  </g>
  <g transform="matrix(1,0,0,1,0.4,14.45) " id="shape3">
   <path id="svg_5" fill-rule="evenodd" fill="#000000" d="m9.9,0.3q-0.65,1.15 2,0.9l3.9,-0.65q1.2,-0.5 1.45,-1.4q0.25,-0.85 -0.65,-1.5q-0.8,-0.7 -2.6,0.3q-1.85,0.95 -2.4,0.2l-0.85,0.05l-0.85,2.1"/>
   <path id="svg_6" fill-rule="evenodd" fill="#000000" d="m17.3,14q-0.3,0.95 2.7,1.8l4.2,0.8q1.2,-0.05 1.15,-0.8q-0.05,-0.8 -1.25,-1.8q-1.2,-0.95 -2.95,-0.7q-1.65,0.3 -2.65,-0.75q-1,-1 -0.95,-0.2l-0.25,1.65"/>
   <path id="svg_7" fill-rule="evenodd" fill="#000000" d="m14.25,-0.6l0.4,-0.35l2.7,2.2q3.45,3.3 3,7.2l-0.8,3.15q-0.25,0.95 -1.35,1.4l-0.6,-0.3q1.35,-1.9 1.8,-4.25q0.45,-2.75 -1.6,-5.3l-2.85,-3q-0.9,2.8 -4.2,3.85l-1.1,0.3q-1.25,0.45 -1.95,-0.2q0.2,-0.55 1.05,-0.45l1.8,-0.25q1.95,-0.75 2.9,-2.35l0.35,-0.8l0.45,-0.85"/>
   <path id="svg_8" fill-rule="evenodd" fill="#000000" d="m7.15,-14.2l0.4,-0.25l3.2,2.5q4.05,3.45 3.55,6.75q-0.2,1.4 -0.8,2.6q-0.3,0.8 -1.5,1q-0.35,-0.15 -0.75,-0.4q1.55,-1.35 1.95,-3.35q0.5,-2.3 -1.9,-4.9l-3.4,-3.15q-0.95,2.3 -4.7,2.55l-1.3,0.1q-1.45,0.15 -2.3,-0.6q0.25,-0.45 1.2,-0.2l2.1,0.15q2.3,-0.3 3.25,-1.5l0.5,-0.65l0.5,-0.65"/>
  </g>
  <g transform="matrix(1,0,0,1,23.5,24.35) " id="shape4">
   <path id="svg_9" fill-rule="evenodd" fill="#000000" d="m5.85,-6.25l0.65,-0.8l-0.55,0.85l-0.1,-0.05m-3.95,-3.2l0.9,-5.1l-0.7,5.3l-0.2,-0.2m8.1,6.5q6.4,-2.55 10.9,-6.75q3.9,5.2 -10.4,7.2l-0.5,-0.45m3.25,3.15q4.45,0.65 9.75,-3.25q-0.1,8.15 -10.3,3.9l0.55,-0.65m-9.1,7.75q6.05,7.95 2.5,13.5q0,-11.35 -3.15,-12.7l0.65,-0.8m9.75,-3.3q1.05,9.9 8.35,3.05q-6.8,10.6 -13.4,0.85l5.05,-3.9m-18.35,-21q4.05,-2.45 2.65,-8q2.4,5.15 3.35,11.4l-6,-3.4m-10.05,12.8l-6,-1.9l6.15,1.75l-0.15,0.15m2.55,-3.15q-7.05,-5.75 -3.45,-9.75q1.55,3.85 5.1,7.7l-1.65,2.05m7.2,14.6q-8.15,16.55 -8.6,7.2q3.5,3.6 8.15,-7.55l0.45,0.35m-3.9,-3.15q-13.75,4.4 -14.85,-2l12.1,-0.2l2.75,2.2m7.75,18.1q3.05,-6.4 0.55,-11.4l0.4,0.35q5.25,7.6 -0.95,11.05"/>
  </g>
  <g transform="matrix(1,0,0,1,24,9.35) " id="shape5">
   <path id="svg_10" fill-rule="evenodd" fill="#000000" d="m-16.85,4.4q1.2,0.7 -1.15,1.9q-2.35,1.25 -3.65,1.5q-1.3,0.25 -1.95,-0.35q-0.65,-0.6 -0.3,-1.65q0.35,-1 2.4,-1.15q2.05,-0.1 2.05,-1.15q0.1,-0.95 0.75,-0.35l1.85,1.25"/>
   <path id="svg_11" fill-rule="evenodd" fill="#000000" d="m-5,18.95q0.5,1.15 -2.15,2.65q-2.65,1.4 -3.8,1.6q-1.2,0.2 -1.3,-0.75q-0.1,-0.95 0.85,-2.3q0.95,-1.4 2.65,-1.35q1.65,0 2.4,-1.4q0.7,-1.4 0.8,-0.45l0.55,2"/>
   <path id="svg_12" fill-rule="evenodd" fill="#000000" d="m-1.95,4.55l-0.4,-0.35l-2.7,2.2q-3.45,3.3 -3,7.2l0.8,3.15q0.25,0.95 1.35,1.4l0.6,-0.3q-1.35,-1.9 -1.8,-4.25q-0.45,-2.75 1.6,-5.3l2.85,-3q0.9,2.8 4.2,3.85l1.1,0.3q1.25,0.45 1.95,-0.2q-0.2,-0.55 -1.05,-0.45l-1.8,-0.25q-1.95,-0.75 -2.9,-2.35l-0.35,-0.8l-0.45,-0.85"/>
   <path id="svg_13" fill-rule="evenodd" fill="#000000" d="m-13.75,-9.1l-0.4,-0.25l-3.2,2.5q-4.05,3.45 -3.55,6.75q0.2,1.4 0.8,2.6q0.3,0.8 1.5,1l0.75,-0.4q-1.55,-1.35 -1.95,-3.35q-0.5,-2.3 1.9,-4.9l3.4,-3.15q0.95,2.3 4.7,2.55l1.3,0.1q1.45,0.15 2.3,-0.6q-0.25,-0.45 -1.2,-0.2l-2.1,0.15q-2.3,-0.3 -3.25,-1.5l-0.5,-0.65l-0.5,-0.65"/>
   <path id="svg_14" fill-rule="evenodd" fill="#ffffff" d="m3.75,-3.15l0,-0.1l0.15,0.1l-0.1,0l0.05,0l-0.05,0l-0.05,0m3.25,-0.8q0.8,-1.45 1.85,-1.7q1.35,-0.3 2.05,1.65q0.65,1.95 -0.1,4q-0.75,2.05 -2.45,3q-1.7,0.95 -2.6,-0.25l-0.1,-0.2l0,0.1q0.05,1.65 -1.65,2.6l-3.35,0.2q-1.7,-0.7 -2.35,-2.65q-0.65,-1.95 0.15,-3.9q0.6,-1.5 2.7,-0.6l-0.05,0.1q-0.35,0.9 0,1.85q0.3,0.9 1.05,1.25l1.6,-0.15l0.8,-0.7l0.25,-0.45l0,-0.05l0.1,-0.15l0.1,-0.5l0.05,-0.25l0.3,1.1l1,-0.25q0.8,-0.45 1.15,-1.4q0.3,-0.95 0,-1.85l-0.5,-0.8"/>
   <path id="svg_15" fill-rule="evenodd" fill="#000000" d="m3.75,-3.15l0.05,0l0.05,0l-0.05,0l0.1,0l0.75,1.25q0.85,1.5 1.85,-0.95l0.5,-1.1l0.5,0.8q0.3,0.9 0,1.85q-0.35,0.95 -1.15,1.4l-1,0.25l-0.3,-1.1l-0.05,0.25l-0.1,0.5l-0.1,0.15l0,0.05l-0.25,0.45l-0.8,0.7l-1.6,0.15q-0.75,-0.35 -1.05,-1.25q-0.35,-0.95 0,-1.85l0.05,-0.1q0.35,-0.9 1.1,-1.3l1.5,-0.15"/>
  </g>
  <g id="sprite0">
   <use id="svg_16" xlink:href="#shape6" width="102.95" height="45"/>
  </g>
  <g id="shape6">
   <path id="svg_17" fill-rule="evenodd" fill-opacity="0" fill="#ff00ff" d="m0,0l102.95,0l0,45l-102.95,0l0,-45"/>
  </g>
 </defs>
 <g>
  <title>background</title>
  <rect fill="none" id="canvas_background" height="174" width="217" y="-1" x="-1"/>
 </g>
 <g>
  <title>Layer 1</title>
  <g id="svg_18" transform="matrix(2,0,0,2,0,0) ">
   <use x="61.050003" y="123" id="svg_19" xlink:href="#shape0" width="381" transform="matrix(1,0,0,1,-192.55,-294) " height="381"/>
   <use x="-28.900778" y="58.227608" id="svg_20" xlink:href="#shape1" width="4.55" transform="matrix(-2.1124,0,0,2.1124,0.2536,-91.5524) " height="4.35"/>
   <use x="111.081976" y="86.972096" id="svg_21" xlink:href="#shape2" width="48.45" transform="matrix(0.8782,0.4197,-0.4197,0.8782,-16.9377,-123.9511) " height="45.7"/>
   <use x="-66.842703" y="94.815216" id="svg_22" xlink:href="#shape2" width="48.45" transform="matrix(-1.1698,-0.1808,-0.1808,1.1698,30.9558,-114.9711) " height="45.7"/>
   <use x="99.856542" y="59.409721" id="svg_23" xlink:href="#shape2" width="48.45" transform="matrix(0.9928,0.6411,-0.6411,0.9928,-14.8632,-132.3353) " height="45.7"/>
   <use x="-58.540797" y="-172.566885" id="svg_24" xlink:href="#shape2" width="48.45" transform="matrix(1.1169999999999998,-0.3801999999999999,0.3801999999999999,1.1169999999999998,150.61550305175774,184.93099999999993) " height="45.7"/>
   <use x="10.94683" y="-140.875227" id="svg_25" xlink:href="#shape2" width="48.45" transform="matrix(-0.8344,0.4982,-0.4982,-0.8344,29.4714,-86.8622) " height="45.7"/>
   <use x="-211.672691" y="64.455922" id="svg_26" xlink:href="#shape2" width="48.45" transform="matrix(0.3418999999999999,0.9095999999999999,-0.9095999999999999,0.3418999999999999,198.87910305175782,169.89249999999993) " height="45.7"/>
   <use x="-114.072179" y="22.089799" id="svg_27" xlink:href="#shape2" width="48.45" transform="matrix(-0.7171,-0.9394,-0.9394,0.7171,35.0941,-84.014) " height="45.7"/>
   <use x="0" y="0" id="svg_28" xlink:href="#shape2" width="48.45" transform="matrix(0.27120000000000005,1.1483000000000003,-1.1483000000000003,0.27120000000000005,75.17410305175785,-5.2092999999999705) " height="45.7"/>
   <use x="91.184335" y="72.63263" id="svg_29" xlink:href="#shape2" width="48.45" transform="matrix(1.067,0.499,-0.499,1.067,-21.4449,-129.4804) " height="45.7"/>
   <use x="0" y="0" id="svg_30" xlink:href="#shape2" width="48.45" transform="matrix(-0.9453000000000004,-0.21850000000000008,0.21850000000000008,-0.9453000000000004,75.63260305175794,58.19400000000016) " height="45.7"/>
   <use x="130.935481" y="53.645093" id="svg_31" xlink:href="#shape2" width="48.45" transform="matrix(0.7288,0.6408,-0.6408,0.7288,-10.0944,-124.9954) " height="45.7"/>
   <use x="-90.370486" y="73.285113" id="svg_32" xlink:href="#shape2" width="48.45" transform="matrix(-1.0734,-0.4906,-0.4906,1.0734,33.421,-103.3966) " height="45.7"/>
   <use x="0" y="0" id="svg_33" xlink:href="#shape2" width="48.45" transform="matrix(0.7787,0.8843,-0.8843,0.7787,55.219803051757864,-9.478699999999947) " height="45.7"/>
   <use x="46.315293" y="107.15208" id="svg_34" xlink:href="#shape2" width="48.45" transform="matrix(1.1747,-0.062,0.062,1.1747,-37.7676,-116.8791) " height="45.7"/>
   <use x="0" y="0" id="svg_35" xlink:href="#shape2" width="48.45" transform="matrix(-0.9357000000000003,0.2518000000000001,-0.2518000000000001,-0.9357000000000003,85.42890305175777,46.169399999999996) " height="45.7"/>
   <use x="-28.900778" y="58.227608" id="svg_36" xlink:href="#shape3" width="25.75" transform="matrix(-2.1124,0,0,2.1124,-4.605,-118.2748) " height="31.05"/>
   <use x="75.114935" y="119.585352" id="svg_37" xlink:href="#shape2" width="48.45" transform="matrix(0.9675,0.0972,-0.0972,0.9675,-27.0816,-118.0894) " height="45.7"/>
   <use x="-30.796484" y="111.966921" id="svg_38" xlink:href="#shape2" width="48.45" transform="matrix(-1.1607,0.226,0.226,1.1607,20.9716,-125.8594) " height="45.7"/>
   <use x="3.398697" y="-182.39127" id="svg_39" xlink:href="#shape2" width="48.45" transform="matrix(0.9210999999999999,-0.7353999999999999,0.7353999999999999,0.9210999999999999,147.1515030517578,198.1585) " height="45.7"/>
   <use x="58.093277" y="-128.962601" id="svg_40" xlink:href="#shape2" width="48.45" transform="matrix(-0.6156,0.7507,-0.7507,-0.6156,29.0892,-98.9393) " height="45.7"/>
   <use x="137.252455" y="34.238693" id="svg_41" xlink:href="#shape2" width="48.45" transform="matrix(0.6292,0.7392,-0.7392,0.6292,-4.6488,-125.9329) " height="45.7"/>
   <use x="-99.948292" y="59.495013" id="svg_42" xlink:href="#shape2" width="48.45" transform="matrix(-0.9919,-0.6402,-0.6402,0.9919,35.3167,-98.2878) " height="45.7"/>
   <use x="115.708728" y="13.578292" id="svg_43" xlink:href="#shape2" width="48.45" transform="matrix(0.6435,0.9875,-0.9875,0.6435,0.6503,-132.7278) " height="45.7"/>
   <use x="-47.54231" y="-133.466697" id="svg_44" xlink:href="#shape2" width="48.45" transform="matrix(-0.9624,0.1146,-0.1146,-0.9624,22.5395,-73.2924) " height="45.7"/>
   <use x="105.12015" y="94.932115" id="svg_45" xlink:href="#shape2" width="48.45" transform="matrix(0.9019,0.3556,-0.3556,0.9019,-21.0188,-121.4197) " height="45.7"/>
   <use x="95.823891" y="66.543776" id="svg_46" xlink:href="#shape2" width="48.45" transform="matrix(1.0312,0.5675,-0.5675,1.0312,-19.5446,-129.8958) " height="45.7"/>
   <use x="7.285216" y="116.628752" id="svg_47" xlink:href="#shape2" width="48.45" transform="matrix(1.0831,-0.4558,0.4558,1.0831,-44.28,-104.425) " height="45.7"/>
   <use x="115.034561" y="82.211779" id="svg_48" xlink:href="#shape2" width="48.45" transform="matrix(0.8571,0.4567,-0.4567,0.8571,-15.8414,-124.5332) " height="45.7"/>
   <use x="-71.084737" y="92.003195" id="svg_49" xlink:href="#shape2" width="48.45" transform="matrix(-1.1582,-0.2313,-0.2313,1.1582,31.5081,-113.4893) " height="45.7"/>
   <use x="102.584127" y="55.107198" id="svg_50" xlink:href="#shape2" width="48.45" transform="matrix(0.9617,0.6824,-0.6824,0.9617,-13.4071,-132.8016) " height="45.7"/>
   <use x="89.84207" y="97.982274" id="svg_51" xlink:href="#shape4" width="46.5" transform="matrix(-0.3716,0.9638,0.9638,0.3716,-18.685,-124.7475) " height="47.2"/>
   <use x="4.784302" y="-141.532823" id="svg_52" xlink:href="#shape2" width="48.45" transform="matrix(-0.8535,0.4602,-0.4602,-0.8535,28.799,-85.5355) " height="45.7"/>
   <use x="-209.122092" y="73.843588" id="svg_53" xlink:href="#shape2" width="48.45" transform="matrix(0.30099999999999993,0.9215999999999999,-0.9215999999999999,0.30099999999999993,199.9179030517578,170.21269999999993) " height="45.7"/>
   <use x="-115.187618" y="17.116269" id="svg_54" xlink:href="#shape2" width="48.45" transform="matrix(-0.6738,-0.9677,-0.9677,0.6738,34.3139,-82.5867) " height="45.7"/>
   <use x="112.334001" y="-31.399962" id="svg_55" xlink:href="#shape2" width="48.45" transform="matrix(0.2202,1.1565,-1.1565,0.2202,15.3409,-127.5572) " height="45.7"/>
   <use x="94.487423" y="68.726092" id="svg_56" xlink:href="#shape4" width="46.5" transform="matrix(1.0418,0.544,-0.544,1.0418,-16.5867,-130.5529) " height="47.2"/>
   <use x="104.256855" y="81.986088" id="svg_57" xlink:href="#shape2" width="48.45" transform="matrix(-0.9327999999999997,-0.2591999999999999,0.2591999999999999,-0.9327999999999997,150.07770305175777,162.1655) " height="45.7"/>
   <use x="133.453866" y="47.968271" id="svg_58" xlink:href="#shape2" width="48.45" transform="matrix(0.6985,0.6706,-0.6706,0.6985,-9.0741,-125.28) " height="45.7"/>
   <use x="-93.705576" y="69.416483" id="svg_59" xlink:href="#shape2" width="48.45" transform="matrix(-1.0485,-0.5359,-0.5359,1.0485,33.3605,-101.8473) " height="45.7"/>
   <use x="48.8904" y="106.07489" id="svg_60" xlink:href="#shape4" width="46.5" transform="matrix(-0.7376,0.9155,0.9155,0.7376,-11.157,-131.3243) " height="47.2"/>
   <use x="51.082397" y="105.249431" id="svg_61" xlink:href="#shape2" width="48.45" transform="matrix(1.1737,-0.0104,0.0104,1.1737,-37.0135,-118.3973) " height="45.7"/>
   <use x="-33.975032" y="-137.905639" id="svg_62" xlink:href="#shape2" width="48.45" transform="matrix(-0.9437,0.2102,-0.2102,-0.9437,23.1862,-75.7605) " height="45.7"/>
   <use x="-28.900778" y="58.227608" id="svg_63" xlink:href="#shape5" width="35.2" transform="matrix(-2.1124,0,0,2.1124,45.2486,-107.5013) " height="32.6"/>
   <use x="-72.487826" y="-103.0959" xlink:href="#sprite0" width="102.95" transform="matrix(1.8072000000000004,0,0,1.6538,64.0000030517578,171.3) " id="_mcMask" height="45"/>
  </g>
 </g>
</svg>