<?xml version="1.0" encoding="UTF-8" standalone="no"?>
<!DOCTYPE svg PUBLIC "-//W3C//DTD SVG 1.1//EN" "http://www.w3.org/Graphics/SVG/1.1/DTD/svg11.dtd">
<svg width="100%" height="100%" viewBox="0 0 22 30" version="1.1" xmlns="http://www.w3.org/2000/svg" xmlns:xlink="http://www.w3.org/1999/xlink" xml:space="preserve" xmlns:serif="http://www.serif.com/" style="fill-rule:evenodd;clip-rule:evenodd;stroke-miterlimit:3;">
    <g transform="matrix(1,0,0,1,0.216529,0.299437)">
        <g transform="matrix(-1,0,0,1,12,24.35)">
            <g id="sprite0">
                <g id="sprite3" transform="matrix(0.8246,-0.0675,0,0.8246,-3.64987,-2.69999)">
                    <g id="shape1">
                        <path d="M0.1,-0.75L0.05,-0.5C-1.083,-0.867 -1.967,-0.667 -2.6,0.1L-2.95,-0.3C-2.85,-0.8 -2.55,-1.233 -2.05,-1.6C-1.15,-1.8 -0.433,-1.517 0.1,-0.75" style="fill:#ffffe0;"/>
                        <path d="M-2.6,0.1C-1.967,-0.667 -1.083,-0.867 0.05,-0.5L0,0.45L-2.6,0.1" style="fill:#ffe5b4;"/>
                        <path d="M0.1,-0.75C-0.433,-1.517 -1.15,-1.8 -2.05,-1.6C-2.55,-1.233 -2.85,-0.8 -2.95,-0.3L-2.6,0.1L0,0.45" style="fill:none;fill-rule:nonzero;stroke:#c16c0b;stroke-width:0.05px;"/>
                        <path d="M-3.3,-0.3L-2.85,-0.85L-0.7,-1.05L0.8,-1.25C1.8,-0.75 2.517,-0.2 2.95,0.4C3.317,0.967 3.433,1.55 3.3,2.15L2.95,3.45L0.25,3.95C-0.95,4.183 -2.05,3.967 -3.05,3.3C-3.783,2.067 -3.867,0.867 -3.3,-0.3" style="fill:#f7ffdc;"/>
                        <path d="M-3.3,-0.3C-3.867,0.867 -3.783,2.067 -3.05,3.3C-2.05,3.967 -0.95,4.183 0.25,3.95L2.95,3.45L3.3,2.15C3.433,1.55 3.317,0.967 2.95,0.4C2.517,-0.2 1.8,-0.75 0.8,-1.25L-0.7,-1.05L-2.85,-0.85L-3.3,-0.3Z" style="fill:none;fill-rule:nonzero;stroke:#648461;stroke-opacity:0.4;stroke-width:0.05px;"/>
                        <path d="M-1.95,0.85L-2.05,2.9L-6.4,3.05L-7.05,2.5C-6.917,1.6 -6.417,0.8 -5.55,0.1C-4.117,-0.5 -2.917,-0.25 -1.95,0.85" style="fill:#ffffe0;"/>
                        <path d="M-2.05,2.9L-6.4,3.05L-7.05,2.5C-6.917,1.6 -6.417,0.8 -5.55,0.1C-4.117,-0.5 -2.917,-0.25 -1.95,0.85" style="fill:none;fill-rule:nonzero;stroke:#e3ab63;stroke-width:0.05px;"/>
                        <path d="M-0.65,1.75L-0.45,3.9C-1.583,4.467 -2.883,4.733 -4.35,4.7L-5.05,4.25C-5.05,3.317 -4.717,2.433 -4.05,1.6C-2.85,0.733 -1.717,0.783 -0.65,1.75" style="fill:#ffffe0;"/>
                        <path d="M-0.65,1.75C-1.717,0.783 -2.85,0.733 -4.05,1.6C-4.717,2.433 -5.05,3.317 -5.05,4.25L-4.35,4.7C-2.883,4.733 -1.583,4.467 -0.45,3.9" style="fill:none;fill-rule:nonzero;stroke:#e3ab63;stroke-width:0.05px;"/>
                    </g>
                </g>
                <g id="sprite4" transform="matrix(0.8246,-0.0675,0,0.8246,4.20009,-0.749975)">
                    <g id="shape2">
                        <path d="M-2,-0.6L-0.05,-1C1.217,-0.4 2.15,0.233 2.75,0.9C3.283,1.533 3.517,2.2 3.45,2.9L3.3,4.45L0.55,4.9C-1.15,5.233 -2.55,5.067 -3.65,4.4C-4.65,3.133 -4.933,2.033 -4.5,1.1C-4.1,0.167 -3.267,-0.4 -2,-0.6" style="fill:#f7ffdc;"/>
                        <path d="M-2,-0.6C-3.267,-0.4 -4.1,0.167 -4.5,1.1C-4.933,2.033 -4.65,3.133 -3.65,4.4C-2.55,5.067 -1.15,5.233 0.55,4.9L3.3,4.45L3.45,2.9C3.517,2.2 3.283,1.533 2.75,0.9C2.15,0.233 1.217,-0.4 -0.05,-1L-2,-0.6Z" style="fill:none;fill-rule:nonzero;stroke:#648461;stroke-opacity:0.4;stroke-width:0.05px;"/>
                        <path d="M-2.05,1.85L-1.75,3.65C-3.683,4.55 -5.033,4.967 -5.8,4.9C-6.233,4.833 -6.517,4.633 -6.65,4.3C-6.717,3.267 -6.433,2.3 -5.8,1.4C-4.533,0.533 -3.283,0.683 -2.05,1.85" style="fill:#ffffe0;"/>
                        <path d="M-1.75,3.65C-3.683,4.55 -5.033,4.967 -5.8,4.9C-6.233,4.833 -6.517,4.633 -6.65,4.3C-6.717,3.267 -6.433,2.3 -5.8,1.4C-4.533,0.533 -3.283,0.683 -2.05,1.85" style="fill:none;fill-rule:nonzero;stroke:#e3ab63;stroke-width:0.05px;"/>
                        <path d="M1.35,5.15C1.15,5.917 0.717,6.4 0.05,6.6L-0.9,6.7C-2.033,6.633 -2.65,6.317 -2.75,5.75C-2.85,4.25 -2.667,3.2 -2.2,2.6C-1.633,1.867 -1.067,1.65 -0.5,1.95C-0.167,2.083 0.167,2.417 0.5,2.95L1.2,3.9C1.367,4.233 1.417,4.65 1.35,5.15" style="fill:#ffffe0;"/>
                        <path d="M1.35,5.15C1.15,5.917 0.717,6.4 0.05,6.6L-0.9,6.7C-2.033,6.633 -2.65,6.317 -2.75,5.75C-2.85,4.25 -2.667,3.2 -2.2,2.6C-1.633,1.867 -1.067,1.65 -0.5,1.95C-0.167,2.083 0.167,2.417 0.5,2.95L1.2,3.9C1.367,4.233 1.417,4.65 1.35,5.15Z" style="fill:none;fill-rule:nonzero;stroke:#e3ab63;stroke-width:0.05px;"/>
                        <path d="M2.75,2.2L2.8,2.25L3.5,2.9L3.85,3.5L3.95,4.25C3.85,4.683 3.633,4.967 3.3,5.1L2.8,5.15C2.2,5.117 1.867,4.933 1.8,4.6C1.733,3.667 1.817,3.033 2.05,2.7C2.283,2.333 2.517,2.167 2.75,2.2" style="fill:#ffffe0;"/>
                        <path d="M2.8,2.25L3.5,2.9L3.85,3.5L3.95,4.25C3.85,4.683 3.633,4.967 3.3,5.1L2.8,5.15C2.2,5.117 1.867,4.933 1.8,4.6C1.733,3.667 1.817,3.033 2.05,2.7C2.283,2.333 2.517,2.167 2.75,2.2" style="fill:none;fill-rule:nonzero;stroke:#e3ab63;stroke-width:0.05px;"/>
                    </g>
                </g>
                <g id="sprite6" transform="matrix(1,0,0,1,-1.7,-6.5)">
                    <g id="sprite7" transform="matrix(0.7119,-0.0247,0.006,0.7119,3.24999,-17.3)">
                        <g id="shape3">
                            <path d="M12.8,0.55L13.65,1.7C14.05,2.467 14.217,3.617 14.15,5.15L14.05,5.7C12.95,6.333 11.883,6.817 10.85,7.15L9.6,7.5L8.75,7.65C9.45,5.817 10.233,4.117 11.1,2.55C10.233,4.117 9.45,5.817 8.75,7.65L8.1,9.25L8,9.45L8.1,9.25L8.75,7.65L9.35,7.7L9.2,7.8C9.267,7.767 9.3,7.783 9.3,7.85L10.5,8.15L11.95,8.4L13.35,8.25L12.75,9.95L9.3,11.1L7.1,11.65L6.95,11.65L5.3,7.7L5.4,7.3L5.4,5.55C6.033,6.65 6.65,7.567 7.25,8.3L8,9.45L7.8,8.95L6.8,5.7C6.467,4.467 6.25,3.233 6.15,2C6.083,1.6 6.433,1.233 7.2,0.9C8.4,0.3 9.667,0.017 11,0.05L11.8,0.05L11.85,0L11.9,0L11.95,0.05L12.1,0.05L12.25,0.1L12.1,0.4L11.1,2.55L12.8,0.55M10.25,15.8L9.7,16.9C7.967,17.9 6.3,18.45 4.7,18.55L5.2,16.85L10.25,15.8M2.95,25C4.917,24.567 6.45,23.8 7.55,22.7L6.9,23.95C5.167,24.817 4,25.25 3.4,25.25L2.95,25.15L2.95,25M7.1,11.65L8,9.45L7.1,11.65" style="fill:#6e9b73;"/>
                            <path d="M9.35,7.7L13.7,7.1L13.35,8.25L11.95,8.4L10.5,8.15L9.3,7.85C9.3,7.783 9.267,7.767 9.2,7.8L9.35,7.7M12.75,9.95L10.25,15.8L5.2,16.85L4.8,16.9L3.75,16.05L1.65,13.75C1.683,12.75 1.8,11.833 2,11L3.2,13.05C4.033,14.35 4.883,15.2 5.75,15.6L5.95,14.95C6.05,14.517 6.2,14.117 6.4,13.75L7.1,11.65L6.4,13.75C6.2,14.117 6.05,14.517 5.95,14.95C4.183,13.283 2.983,11.533 2.35,9.7L2.85,7.85C3.417,6.15 4.2,4.617 5.2,3.25C5.433,4.55 5.933,5.917 6.7,7.35L7.25,8.3C6.65,7.567 6.033,6.65 5.4,5.55L5.4,7.3L5.3,7.7L6.95,11.65L7.1,11.65L9.3,11.1L12.75,9.95M5.2,16.85L5.55,16L5.65,15.9L5.75,15.6L5.65,15.9L5.55,16L5.2,16.85M4.55,9.7C4.617,11.167 5.233,12.517 6.4,13.75C5.233,12.517 4.617,11.167 4.55,9.7" style="fill:#648461;"/>
                            <path d="M9.7,16.9L8.1,19.9C6.967,21.967 5.25,23.667 2.95,25C3.45,22.8 4.033,20.65 4.7,18.55C4.033,20.65 3.45,22.8 2.95,25L2.9,25.1L2.95,25.15L3.4,25.25C4,25.25 5.167,24.817 6.9,23.95C6.067,25.05 4.483,26.45 2.15,28.15C1.783,29.217 1.567,30.1 1.5,30.8L1.1,30.6L2.05,27.7C0.917,25.8 0.233,23.95 0,22.15C0.733,24.05 1.55,25.283 2.45,25.85C0.783,23.417 0.05,21.167 0.25,19.1C1.017,21.6 1.783,23.433 2.55,24.6L2.8,24.95L2.8,24.65L2.75,24.65C1.317,21.05 0.933,17.617 1.6,14.35L1.65,13.75L3.75,16.05L4.8,16.9L5.2,16.85L4.7,18.55C6.3,18.45 7.967,17.9 9.7,16.9M2,11L2.35,9.7C2.983,11.533 4.183,13.283 5.95,14.95L5.75,15.6C4.883,15.2 4.033,14.35 3.2,13.05L2,11M2.45,25.85L2.5,25.95L2.5,25.9L2.45,25.85M2.95,25.15L2.15,28.15L2.95,25.15" style="fill:#546645;"/>
                            <path d="M2.55,24.6L2.8,24.9L2.8,24.95L2.55,24.6M2.95,25L2.95,25.15L2.9,25.1L2.95,25" style="fill:#ffe3ff;"/>
                            <path d="M14.05,5.7L14.15,5.15C14.217,3.617 14.05,2.467 13.65,1.7L12.8,0.55M11.1,2.55C10.233,4.117 9.45,5.817 8.75,7.65L8.1,9.25L8,9.45L7.1,11.65L6.4,13.75C6.2,14.117 6.05,14.517 5.95,14.95L5.75,15.6L5.65,15.9L5.55,16L5.2,16.85L4.7,18.55C4.033,20.65 3.45,22.8 2.95,25L2.95,25.15L2.15,28.15C1.783,29.217 1.567,30.1 1.5,30.8L1.1,30.6L2.05,27.7M11.1,2.55L12.1,0.4L12.25,0.1L12.1,0.05L11.95,0.05L11.9,0L11.85,0L11.8,0.05L11,0.05C9.667,0.017 8.4,0.3 7.2,0.9C6.433,1.233 6.083,1.6 6.15,2M13.7,7.1L13.35,8.25L12.75,9.95L10.25,15.8L9.7,16.9L8.1,19.9C6.967,21.967 5.25,23.667 2.95,25M7.55,22.7L6.9,23.95C6.067,25.05 4.483,26.45 2.15,28.15M2.45,25.85C0.783,23.417 0.05,21.167 0.25,19.1M2.8,24.9L2.8,24.8L2.75,24.65C1.317,21.05 0.933,17.617 1.6,14.35L1.65,13.75C1.683,12.75 1.8,11.833 2,11L2.35,9.7L2.85,7.85C3.417,6.15 4.2,4.617 5.2,3.25M2.8,24.65L2.8,24.8M9.7,16.9C7.967,17.9 6.3,18.45 4.7,18.55M6.4,13.75C5.233,12.517 4.617,11.167 4.55,9.7M2.35,9.7C2.983,11.533 4.183,13.283 5.95,14.95M2.5,25.9L2.5,25.95L2.45,25.85" style="fill:none;fill-rule:nonzero;stroke:#2e1700;stroke-opacity:0.23;stroke-width:0.5px;"/>
                        </g>
                    </g>
                    <g id="sprite8" transform="matrix(-1.2362,0,0,1.2362,0.69996,3.25008)">
                        <g id="shape4">
                            <path d="M-1.6,-8.1C-1.933,-7.6 -2.1,-7.1 -2.1,-6.6L-2.1,-6.55L-2.05,-6L-1.95,-6C-2.217,-5.6 -2.35,-5.233 -2.35,-4.9C-2.35,-3.867 -1.65,-3.067 -0.25,-2.5C0.65,-2.133 1.517,-1.95 2.35,-1.95L3.4,-2.05L4.05,-2.2L4.3,-2.2L4.3,-1.65L3.35,-1.75L1.45,-1.55L0.9,-1.1L0.9,-1.05C0.833,-0.65 1.317,-0.25 2.35,0.15L2.45,0.2L1.3,0.6C-0.033,1.033 -1.15,0.633 -2.05,-0.6C-2.917,-1.8 -3.333,-2.9 -3.3,-3.9C-3.267,-4.633 -3.1,-5.283 -2.8,-5.85L-2.65,-5.9L-2.65,-6.2L-2.6,-6.35C-2.567,-7.05 -2.35,-7.717 -1.95,-8.35L-1.9,-8.4L-1.75,-8.5L-1.6,-8.1" style="fill:#648461;"/>
                            <path d="M1.45,-8.7C0.75,-8.367 0.1,-7.867 -0.5,-7.2L-0.8,-6.8L-1.3,-6.2L-1.4,-6.25L-1.4,-7.05C-0.567,-7.917 0.383,-8.467 1.45,-8.7M4.3,-2.2L4.25,-2.7L4.2,-3L5.65,-2.1L4.3,-2L4.3,-2.2M4.2,-3.05L3.9,-4L5.4,-3.45L4.2,-3.05M-1.95,-8.35C-2.35,-7.717 -2.567,-7.05 -2.6,-6.35L-2.65,-6.2L-2.65,-5.9L-2.8,-5.85C-3.1,-5.283 -3.267,-4.633 -3.3,-3.9C-3.333,-2.9 -2.917,-1.8 -2.05,-0.6C-1.15,0.633 -0.033,1.033 1.3,0.6L2.45,0.2L2.35,0.15C1.317,-0.25 0.833,-0.65 0.9,-1.05L0.9,-1.1L1.45,-1.55L3.35,-1.75L4.3,-1.65L3.9,-0.5L3.2,0.4L3,0.55C2.133,1.317 1.133,1.75 0,1.85C-1.1,1.95 -2.133,1.733 -3.1,1.2L-4.6,0.15C-5.233,0.55 -5.85,0.85 -6.45,1.05L-6.15,0.65L-5.1,-0.4L-4.65,-0.75L-4.8,-1.3L-5.1,-1.05L-5.6,-0.65L-7.55,-0.6L-6.75,-0.95L-5.55,-1.3L-5.1,-1.4L-5.05,-1.9L-5.65,-1.75L-5.65,-2.4C-5.417,-3.633 -4.85,-4.65 -3.95,-5.45L-3.3,-5.95C-3.133,-7.083 -2.683,-7.883 -1.95,-8.35" style="fill:#546645;"/>
                            <path d="M1.45,-8.7L1.85,-8.8C1.683,-8.1 1.3,-7.4 0.7,-6.7C1.267,-6.6 1.817,-6.35 2.35,-5.95L2.6,-5.75L3.9,-4L4.2,-3.05L4.2,-3L4.25,-2.7L4.3,-2.2L4.05,-2.2L3.4,-2.05L2.35,-1.95C1.517,-1.95 0.65,-2.133 -0.25,-2.5C-1.65,-3.067 -2.35,-3.867 -2.35,-4.9C-2.35,-5.233 -2.217,-5.6 -1.95,-6L-2.05,-6L-2.1,-6.55L-2.1,-6.6C-2.1,-7.1 -1.933,-7.6 -1.6,-8.1L-1.4,-7L-1.4,-6.25L-1.3,-6.2L-0.8,-6.8L-0.5,-7.2C0.1,-7.867 0.75,-8.367 1.45,-8.7M-6.45,1.05L-6.6,1.05C-6.5,0.483 -6.167,-0.083 -5.6,-0.65L-5.1,-1.05L-4.8,-1.3L-4.65,-0.75L-5.1,-0.4L-6.15,0.65L-6.45,1.05M-7.55,-0.6C-7.25,-1.1 -6.617,-1.483 -5.65,-1.75L-5.05,-1.9L-5.1,-1.4L-5.55,-1.3L-6.75,-0.95L-7.55,-0.6" style="fill:#6e9b73;"/>
                            <path d="M3.9,-4L2.6,-5.75L2.35,-5.95C1.817,-6.35 1.267,-6.6 0.7,-6.7C1.3,-7.4 1.683,-8.1 1.85,-8.8L1.45,-8.7C0.383,-8.467 -0.567,-7.917 -1.4,-7.05L-1.4,-7L-1.6,-8.1L-1.75,-8.5L-1.9,-8.4L-1.95,-8.35C-2.683,-7.883 -3.133,-7.083 -3.3,-5.95L-3.95,-5.45C-4.85,-4.65 -5.417,-3.633 -5.65,-2.4L-5.65,-1.75C-6.617,-1.483 -7.25,-1.1 -7.55,-0.6L-5.6,-0.65L-5.1,-1.05L-4.8,-1.3M-1.4,-6.25L-1.4,-7M4.3,-2.2L4.25,-2.7L4.2,-3L4.2,-3.05L3.9,-4L5.4,-3.45L4.2,-3.05M4.3,-1.65L4.3,-2.2M4.3,-1.65L3.9,-0.5L3.2,0.4L3,0.55C2.133,1.317 1.133,1.75 0,1.85C-1.1,1.95 -2.133,1.733 -3.1,1.2L-4.6,0.15C-5.233,0.55 -5.85,0.85 -6.45,1.05L-6.6,1.05C-6.5,0.483 -6.167,-0.083 -5.6,-0.65M4.2,-3L5.65,-2.1L4.3,-2M-5.05,-1.9L-5.65,-1.75" style="fill:none;fill-rule:nonzero;stroke:#2e1700;stroke-opacity:0.3;stroke-width:0.25px;"/>
                        </g>
                    </g>
                    <g id="sprite9" transform="matrix(-0.181,0,0,0.181,-1.0498,-0.6)">
                        <g id="shape5">
                            <path d="M-2.25,19.95C-2.883,19.217 -3.2,18.433 -3.2,17.6C-3.2,16.9 -3.033,16.233 -2.7,15.6C4.867,15.967 11.95,16.917 18.55,18.45L21.35,19.15L20.65,19.75L19.85,20.3C17.417,22.033 14.55,23.317 11.25,24.15L7.05,23.75C4.883,23.45 3.067,23 1.6,22.4C-0.033,21.7 -1.25,20.933 -2.05,20.1L-2.05,19.95L-2.25,19.95M11.7,23.05L11.4,23.15L12.45,23L11.7,23.05" style="fill:#d8dcba;"/>
                            <path d="M-2.05,20.1C-1.25,20.933 -0.033,21.7 1.6,22.4C3.067,23 4.883,23.45 7.05,23.75L11.25,24.15C14.55,23.317 17.417,22.033 19.85,20.3L20.65,19.75L21.35,19.15L18.55,18.45C11.95,16.917 4.867,15.967 -2.7,15.6C-3.033,16.233 -3.2,16.9 -3.2,17.6C-3.2,18.433 -2.883,19.217 -2.25,19.95L-2.05,20.1Z" style="fill:none;fill-rule:nonzero;stroke:#2e1700;stroke-opacity:0.3;stroke-width:1px;"/>
                            <path d="M17.1,4.85L17.85,5.85L19.5,8.75L19.35,9.35L18.1,9.4L14.95,7.45C13.417,6.45 12.683,5.583 12.75,4.85C12.75,4.583 13.05,4.333 13.65,4.1L14.55,3.8C14.817,3.767 15.15,3.867 15.55,4.1C16.117,4.2 16.633,4.45 17.1,4.85" style="fill:#fffff1;"/>
                            <path d="M26.1,17.65C21.267,17.683 16.4,16.35 11.5,13.65C5.633,10.417 2.767,6.883 2.9,3.05C2.867,2.483 2.883,1.983 2.95,1.55C4.983,0.517 7.4,0 10.2,0L15.95,0.7C20.183,5.1 23.567,10.75 26.1,17.65M17.1,4.85C16.633,4.45 16.117,4.2 15.55,4.1C15.15,3.867 14.817,3.767 14.55,3.8L13.65,4.1C13.05,4.333 12.75,4.583 12.75,4.85C12.683,5.583 13.417,6.45 14.95,7.45L18.1,9.4L19.35,9.35L19.5,8.75L17.85,5.85L17.1,4.85" style="fill:#ffffe6;"/>
                            <path d="M26.95,19.95L23.35,20.35C19.117,20.55 14.517,19.833 9.55,18.2C1.817,15.667 -2.067,11.733 -2.1,6.4L-2.05,6.1C-0.85,4.033 0.817,2.517 2.95,1.55C2.883,1.983 2.867,2.483 2.9,3.05C2.767,6.883 5.633,10.417 11.5,13.65C16.4,16.35 21.267,17.683 26.1,17.65L26.95,19.95" style="fill:#f7ffdc;"/>
                            <path d="M-2.1,6.4C-2.067,11.733 1.817,15.667 9.55,18.2C14.517,19.833 19.117,20.55 23.35,20.35L26.95,19.95L27.65,22.3L23.05,22.4C13.517,22.4 4.367,20.75 -4.4,17.45C-4.567,12.85 -3.85,9.117 -2.25,6.25L-2.1,6.4" style="fill:#d8dcba;"/>
                            <path d="M26.95,19.95L26.1,17.65C23.567,10.75 20.183,5.1 15.95,0.7L10.2,0C7.4,0 4.983,0.517 2.95,1.55C0.817,2.517 -0.85,4.033 -2.05,6.1L-2.25,6.25C-3.85,9.117 -4.567,12.85 -4.4,17.45C4.367,20.75 13.517,22.4 23.05,22.4L27.65,22.3L26.95,19.95Z" style="fill:none;fill-rule:nonzero;stroke:#2e1700;stroke-opacity:0.3;stroke-width:1px;"/>
                        </g>
                    </g>
                    <g id="sprite10" transform="matrix(-1.2362,0,0,1.2362,0.2,-2.9)">
                        <g id="shape6">
                            <path d="M0.55,0L0.85,0.4L1,1.25L0.85,2.3C0.75,2.667 0.6,2.833 0.4,2.8L0.05,2.4L0,1.4L0.2,0.4L0.55,0" style="fill:#614a33;"/>
                            <path d="M0.9,0.7L0.7,0.85L0.45,0.7L0.4,0.4L0.45,0.1L0.7,0L0.9,0.1L1,0.4L0.9,0.7" style="fill:#fff;"/>
                        </g>
                    </g>
                    <g id="sprite11" transform="matrix(-1.2362,0,0,1.2362,-2.09999,-3.35)">
                        <g id="shape7">
                            <path d="M0.25,0.05C0.35,0.017 0.433,0.083 0.5,0.25L0.75,1.05L0.85,1.8L0.6,2.1C0.467,2.133 0.35,2.05 0.25,1.85L0.05,1.2L0.05,0.45C0.083,0.217 0.15,0.083 0.25,0.05" style="fill:#614a33;"/>
                            <path d="M0.7,0.65L0.5,0.75L0.25,0.65L0.2,0.35L0.25,0.1L0.5,0L0.7,0.1L0.8,0.35L0.7,0.65" style="fill:#fff;"/>
                        </g>
                    </g>
                </g>
            </g>
        </g>
    </g>
</svg>
