<?xml version="1.0" encoding="UTF-8" standalone="no"?>
<!DOCTYPE svg PUBLIC "-//W3C//DTD SVG 1.1//EN" "http://www.w3.org/Graphics/SVG/1.1/DTD/svg11.dtd">
<svg width="100%" height="100%" viewBox="0 0 74 69" version="1.1" xmlns="http://www.w3.org/2000/svg" xmlns:xlink="http://www.w3.org/1999/xlink" xml:space="preserve" xmlns:serif="http://www.serif.com/" style="fill-rule:evenodd;clip-rule:evenodd;stroke-linecap:round;stroke-linejoin:round;">
    <g transform="matrix(1,0,0,1,-58.6935,-69.0615)">
        <g id="sprite0" transform="matrix(0.6296,0,0,0.6296,91.0479,88.7487)">
            <g id="sprite1" transform="matrix(-0.785,0,0,0.4904,28.9009,72.4)">
                <g id="sprite2" transform="matrix(1.9322,0,0,0.4121,-0.00087,0.000515)">
                    <g id="shape0">
                        <path d="M-17.1,-17.1C-12.367,-21.8 -6.667,-24.15 0,-24.15C6.667,-24.15 12.35,-21.8 17.05,-17.1C21.783,-12.367 24.15,-6.667 24.15,0C24.15,6.667 21.783,12.35 17.05,17.05C12.35,21.783 6.667,24.15 0,24.15C-6.667,24.15 -12.367,21.783 -17.1,17.05C-21.8,12.35 -24.15,6.667 -24.15,0C-24.15,-6.667 -21.8,-12.367 -17.1,-17.1" style="fill:url(#_Radial1);"/>
                    </g>
                </g>
                <g id="sprite21" serif:id="sprite2" transform="matrix(0.5766,0,0,0.3444,21.2989,1.79946)">
                    <g id="shape01" serif:id="shape0">
                        <path d="M-17.1,-17.1C-12.367,-21.8 -6.667,-24.15 0,-24.15C6.667,-24.15 12.35,-21.8 17.05,-17.1C21.783,-12.367 24.15,-6.667 24.15,0C24.15,6.667 21.783,12.35 17.05,17.05C12.35,21.783 6.667,24.15 0,24.15C-6.667,24.15 -12.367,21.783 -17.1,17.05C-21.8,12.35 -24.15,6.667 -24.15,0C-24.15,-6.667 -21.8,-12.367 -17.1,-17.1" style="fill:url(#_Radial2);"/>
                    </g>
                </g>
                <g id="sprite22" serif:id="sprite2" transform="matrix(0.5766,0,0,0.3444,17.4489,1.79946)">
                    <g id="shape02" serif:id="shape0">
                        <path d="M-17.1,-17.1C-12.367,-21.8 -6.667,-24.15 0,-24.15C6.667,-24.15 12.35,-21.8 17.05,-17.1C21.783,-12.367 24.15,-6.667 24.15,0C24.15,6.667 21.783,12.35 17.05,17.05C12.35,21.783 6.667,24.15 0,24.15C-6.667,24.15 -12.367,21.783 -17.1,17.05C-21.8,12.35 -24.15,6.667 -24.15,0C-24.15,-6.667 -21.8,-12.367 -17.1,-17.1" style="fill:url(#_Radial3);"/>
                    </g>
                </g>
                <g id="sprite23" serif:id="sprite2" transform="matrix(0.5766,0,0,0.3444,10.0989,-1.65054)">
                    <g id="shape03" serif:id="shape0">
                        <path d="M-17.1,-17.1C-12.367,-21.8 -6.667,-24.15 0,-24.15C6.667,-24.15 12.35,-21.8 17.05,-17.1C21.783,-12.367 24.15,-6.667 24.15,0C24.15,6.667 21.783,12.35 17.05,17.05C12.35,21.783 6.667,24.15 0,24.15C-6.667,24.15 -12.367,21.783 -17.1,17.05C-21.8,12.35 -24.15,6.667 -24.15,0C-24.15,-6.667 -21.8,-12.367 -17.1,-17.1" style="fill:url(#_Radial4);"/>
                    </g>
                </g>
                <g id="sprite24" serif:id="sprite2" transform="matrix(0.5766,0,0,0.3444,33.6489,1.79946)">
                    <g id="shape04" serif:id="shape0">
                        <path d="M-17.1,-17.1C-12.367,-21.8 -6.667,-24.15 0,-24.15C6.667,-24.15 12.35,-21.8 17.05,-17.1C21.783,-12.367 24.15,-6.667 24.15,0C24.15,6.667 21.783,12.35 17.05,17.05C12.35,21.783 6.667,24.15 0,24.15C-6.667,24.15 -12.367,21.783 -17.1,17.05C-21.8,12.35 -24.15,6.667 -24.15,0C-24.15,-6.667 -21.8,-12.367 -17.1,-17.1" style="fill:url(#_Radial5);"/>
                    </g>
                </g>
                <g id="sprite25" serif:id="sprite2" transform="matrix(0.5766,0,0,0.3444,30.4489,2.79946)">
                    <g id="shape05" serif:id="shape0">
                        <path d="M-17.1,-17.1C-12.367,-21.8 -6.667,-24.15 0,-24.15C6.667,-24.15 12.35,-21.8 17.05,-17.1C21.783,-12.367 24.15,-6.667 24.15,0C24.15,6.667 21.783,12.35 17.05,17.05C12.35,21.783 6.667,24.15 0,24.15C-6.667,24.15 -12.367,21.783 -17.1,17.05C-21.8,12.35 -24.15,6.667 -24.15,0C-24.15,-6.667 -21.8,-12.367 -17.1,-17.1" style="fill:url(#_Radial6);"/>
                    </g>
                </g>
                <g id="sprite26" serif:id="sprite2" transform="matrix(0.5766,0,0,0.3444,-2.70111,1.79946)">
                    <g id="shape06" serif:id="shape0">
                        <path d="M-17.1,-17.1C-12.367,-21.8 -6.667,-24.15 0,-24.15C6.667,-24.15 12.35,-21.8 17.05,-17.1C21.783,-12.367 24.15,-6.667 24.15,0C24.15,6.667 21.783,12.35 17.05,17.05C12.35,21.783 6.667,24.15 0,24.15C-6.667,24.15 -12.367,21.783 -17.1,17.05C-21.8,12.35 -24.15,6.667 -24.15,0C-24.15,-6.667 -21.8,-12.367 -17.1,-17.1" style="fill:url(#_Radial7);"/>
                    </g>
                </g>
            </g>
            <g id="sprite3" transform="matrix(0.5972,0,0,0.5972,28.1003,72.7001)">
                <g id="sprite4" transform="matrix(1,0,0,1,0,0.7)">
                    <g id="shape1">
                        <path d="M4.1,-1.55C5.233,-1.117 5.8,-0.6 5.8,0C5.8,0.6 5.233,1.1 4.1,1.5L0,2.15L-4.1,1.5C-5.233,1.1 -5.8,0.6 -5.8,0C-5.8,-0.6 -5.233,-1.117 -4.1,-1.55L0,-2.15L4.1,-1.55" style="fill:#76533d;fill-opacity:0.89;"/>
                    </g>
                </g>
                <g id="sprite41" serif:id="sprite4" transform="matrix(0.5259,0,0,1,0.55022,-0.7)">
                    <g id="shape11" serif:id="shape1">
                        <path d="M4.1,-1.55C5.233,-1.117 5.8,-0.6 5.8,0C5.8,0.6 5.233,1.1 4.1,1.5L0,2.15L-4.1,1.5C-5.233,1.1 -5.8,0.6 -5.8,0C-5.8,-0.6 -5.233,-1.117 -4.1,-1.55L0,-2.15L4.1,-1.55" style="fill:#76533d;fill-opacity:0.89;"/>
                    </g>
                </g>
            </g>
            <g id="sprite31" serif:id="sprite3" transform="matrix(-0.3667,0,0,0.3667,47.9498,69.9501)">
                <g id="sprite42" serif:id="sprite4" transform="matrix(1,0,0,1,0,0.7)">
                    <g id="shape12" serif:id="shape1">
                        <path d="M4.1,-1.55C5.233,-1.117 5.8,-0.6 5.8,0C5.8,0.6 5.233,1.1 4.1,1.5L0,2.15L-4.1,1.5C-5.233,1.1 -5.8,0.6 -5.8,0C-5.8,-0.6 -5.233,-1.117 -4.1,-1.55L0,-2.15L4.1,-1.55" style="fill:#76533d;fill-opacity:0.89;"/>
                    </g>
                </g>
                <g id="sprite43" serif:id="sprite4" transform="matrix(0.5259,0,0,1,0.55022,-0.7)">
                    <g id="shape13" serif:id="shape1">
                        <path d="M4.1,-1.55C5.233,-1.117 5.8,-0.6 5.8,0C5.8,0.6 5.233,1.1 4.1,1.5L0,2.15L-4.1,1.5C-5.233,1.1 -5.8,0.6 -5.8,0C-5.8,-0.6 -5.233,-1.117 -4.1,-1.55L0,-2.15L4.1,-1.55" style="fill:#76533d;fill-opacity:0.89;"/>
                    </g>
                </g>
            </g>
            <g id="sprite32" serif:id="sprite3" transform="matrix(-0.2529,0,0,0.2529,41.6498,72.4001)">
                <g id="sprite44" serif:id="sprite4" transform="matrix(1,0,0,1,0,0.7)">
                    <g id="shape14" serif:id="shape1">
                        <path d="M4.1,-1.55C5.233,-1.117 5.8,-0.6 5.8,0C5.8,0.6 5.233,1.1 4.1,1.5L0,2.15L-4.1,1.5C-5.233,1.1 -5.8,0.6 -5.8,0C-5.8,-0.6 -5.233,-1.117 -4.1,-1.55L0,-2.15L4.1,-1.55" style="fill:#76533d;fill-opacity:0.89;"/>
                    </g>
                </g>
                <g id="sprite45" serif:id="sprite4" transform="matrix(0.5259,0,0,1,0.55022,-0.7)">
                    <g id="shape15" serif:id="shape1">
                        <path d="M4.1,-1.55C5.233,-1.117 5.8,-0.6 5.8,0C5.8,0.6 5.233,1.1 4.1,1.5L0,2.15L-4.1,1.5C-5.233,1.1 -5.8,0.6 -5.8,0C-5.8,-0.6 -5.233,-1.117 -4.1,-1.55L0,-2.15L4.1,-1.55" style="fill:#76533d;fill-opacity:0.89;"/>
                    </g>
                </g>
            </g>
            <g id="sprite33" serif:id="sprite3" transform="matrix(-0.3667,0,0,0.3667,34.5498,69.6501)">
                <g id="sprite46" serif:id="sprite4" transform="matrix(1,0,0,1,0,0.7)">
                    <g id="shape16" serif:id="shape1">
                        <path d="M4.1,-1.55C5.233,-1.117 5.8,-0.6 5.8,0C5.8,0.6 5.233,1.1 4.1,1.5L0,2.15L-4.1,1.5C-5.233,1.1 -5.8,0.6 -5.8,0C-5.8,-0.6 -5.233,-1.117 -4.1,-1.55L0,-2.15L4.1,-1.55" style="fill:#76533d;fill-opacity:0.89;"/>
                    </g>
                </g>
                <g id="sprite47" serif:id="sprite4" transform="matrix(0.5259,0,0,1,0.55022,-0.7)">
                    <g id="shape17" serif:id="shape1">
                        <path d="M4.1,-1.55C5.233,-1.117 5.8,-0.6 5.8,0C5.8,0.6 5.233,1.1 4.1,1.5L0,2.15L-4.1,1.5C-5.233,1.1 -5.8,0.6 -5.8,0C-5.8,-0.6 -5.233,-1.117 -4.1,-1.55L0,-2.15L4.1,-1.55" style="fill:#76533d;fill-opacity:0.89;"/>
                    </g>
                </g>
            </g>
            <g id="shape2">
                <path d="M-16.8,26.25L-16.2,26.3C-15.233,26.367 -14.017,26.75 -12.55,27.45C-11.25,28.083 -10.7,27.717 -10.9,26.35C-11.067,23.25 -12.85,21.1 -16.25,19.9C-13.617,23.5 -13.8,25.617 -16.8,26.25" style="fill:#231812;"/>
                <path d="M-16.8,26.25C-13.8,25.617 -13.617,23.5 -16.25,19.9L-17.9,19.5L-21.75,19.4C-23.417,19.633 -25.2,20.233 -27.1,21.2C-29.767,22.567 -31.3,23.917 -31.7,25.25C-32.1,26.55 -31.817,27.567 -30.85,28.3C-29.817,29.1 -28.383,29.167 -26.55,28.5L-21.95,27.1L-18.75,26.45L-16.8,26.25" style="fill:#503929;"/>
                <path d="M-16.25,19.9C-12.85,21.1 -11.067,23.25 -10.9,26.35C-10.7,27.717 -11.25,28.083 -12.55,27.45C-14.017,26.75 -15.233,26.367 -16.2,26.3L-16.8,26.25L-18.75,26.45L-21.95,27.1L-26.55,28.5C-28.383,29.167 -29.817,29.1 -30.85,28.3C-31.817,27.567 -32.1,26.55 -31.7,25.25C-31.3,23.917 -29.767,22.567 -27.1,21.2C-25.2,20.233 -23.417,19.633 -21.75,19.4L-17.9,19.5L-16.25,19.9Z" style="fill:none;fill-rule:nonzero;stroke:#000;stroke-width:0.25px;"/>
            </g>
            <g id="nate" transform="matrix(0.5016,-0.9712,-0.5374,-0.1099,-23.1997,22.5002)">
                <g id="shape3">
                    <path d="M-10.15,11.85L-9.75,12.95L-9,14.3L-13.95,20.15L-28.45,25.9L-14.05,15.85L-10.15,11.85M-5.45,16.3C-4.817,16.167 -4.2,15.767 -3.6,15.1L-3.25,14.7L-2.8,14.25L-4.7,23L-12.65,30.2L-6.45,20.95L-5.45,16.3" style="fill:#1d140f;"/>
                    <path d="M-10.15,11.85C-10.65,10.317 -10.733,8.7 -10.4,7C-10.1,5.267 -9.35,3.883 -8.15,2.85C-6.983,1.817 -5.967,1.15 -5.1,0.85C-4.267,0.55 -3.433,1.317 -2.6,3.15C-1.833,4.983 -1.5,7.033 -1.6,9.3C-1.733,11.533 -2.283,13.333 -3.25,14.7L-3.6,15.1C-4.2,15.767 -4.817,16.167 -5.45,16.3L-5.7,16.35L-6.6,16.25C-7.433,16.017 -8.167,15.467 -8.8,14.6L-9,14.3L-9.75,12.95L-10.15,11.85" style="fill:#2f1e18;"/>
                    <path d="M-3.25,14.7C-2.283,13.333 -1.733,11.533 -1.6,9.3C-1.5,7.033 -1.833,4.983 -2.6,3.15C-3.433,1.317 -4.267,0.55 -5.1,0.85C-5.967,1.15 -6.983,1.817 -8.15,2.85C-9.35,3.883 -10.1,5.267 -10.4,7C-10.733,8.7 -10.65,10.317 -10.15,11.85L-9.75,12.95L-9,14.3L-8.8,14.6C-8.167,15.467 -7.433,16.017 -6.6,16.25L-5.7,16.35L-5.45,16.3C-4.817,16.167 -4.2,15.767 -3.6,15.1L-3.25,14.7Z" style="fill:none;fill-rule:nonzero;stroke:#35251f;stroke-opacity:0.96;stroke-width:0.25px;"/>
                </g>
            </g>
            <g id="nate1" serif:id="nate" transform="matrix(-0.0162,0.3859,-0.4483,-0.0062,5.80063,52.2004)">
                <g id="shape4">
                    <path d="M2.85,44.55C-0.817,44.55 -3.933,42.283 -6.5,37.75C-9.1,33.217 -10.383,27.767 -10.35,21.4C-10.383,15 -9.1,9.533 -6.5,5C-3.933,0.5 -0.817,-1.75 2.85,-1.75C6.483,-1.75 9.6,0.5 12.2,5C14.767,9.533 16.05,15 16.05,21.4C16.05,27.767 14.767,33.217 12.2,37.75C9.6,42.283 6.483,44.55 2.85,44.55" style="fill:#231812;"/>
                    <path d="M2.85,44.55C-0.817,44.55 -3.933,42.283 -6.5,37.75C-9.1,33.217 -10.383,27.767 -10.35,21.4C-10.383,15 -9.1,9.533 -6.5,5C-3.933,0.5 -0.817,-1.75 2.85,-1.75C6.483,-1.75 9.6,0.5 12.2,5C14.767,9.533 16.05,15 16.05,21.4C16.05,27.767 14.767,33.217 12.2,37.75C9.6,42.283 6.483,44.55 2.85,44.55Z" style="fill:none;fill-rule:nonzero;stroke:#000;stroke-width:0.25px;"/>
                    <path d="M13.9,34.45C12.167,41.783 5.9,45.617 -4.9,45.95C-16.167,46.317 -19.733,44.583 -15.6,40.75C-11.5,36.917 -9.35,33.833 -9.15,31.5L12.85,34.5L13.9,34.45"/>
                    <path d="M6.5,9.75L7,23.45C7.3,33.283 2.4,35.85 -7.7,31.15C-10.667,14.35 -8.917,3.917 -2.45,-0.15C3.95,-4.217 8.783,-2.8 12.05,4.1C8.25,2.933 6.267,3.433 6.1,5.6C5.9,7.767 6.017,9.083 6.45,9.55L6.65,9.6L6.5,9.75" style="fill:#503929;"/>
                </g>
            </g>
            <g id="shape5" transform="matrix(0.794,-0.5854,0.5606,0.8099,5.25026,17.6994)">
                <path d="M9.95,31.15L11.4,32.15C9.433,36.617 6.583,38.283 2.85,37.15C6.55,36.35 8.917,34.35 9.95,31.15" style="fill:#110c09;"/>
                <path d="M-11.35,16.55L-10.25,17.3L-7.1,27.75L-13.15,33.95L-8.75,27.75L-11.35,16.55M0.1,24.4L1.2,25.15L-2.05,30.75L0.1,24.4" style="fill:#281c14;"/>
                <path d="M-11.35,16.55L-11.55,15.85L-5,9.15L-8.45,1.6L-3.65,-5L5.65,-4.35L9.95,3.2L20.9,-2.6L29.95,-0.65L20.55,-1.4L10.65,4.35L12.3,7.3L28.15,11.45L32.45,20.65C30.017,16.683 28.117,14 26.75,12.6L18.6,10.75L19.3,20.4L26.45,25.9L25.2,38.25L25.2,26.25L17.9,20.7L17.15,10.45C12.883,8.983 10.55,8.3 10.15,8.4L3.4,-1.1L-6.1,-1.55L1,19L14.5,25.4L11.4,32.15L9.95,31.15L11.4,26.15L2.6,22.7L2.6,22.65L1.2,25.15L0.1,24.4L0.95,21.9L-1.1,20.65L-4.85,10.45L-10.65,16.1L-10.25,17.3L-11.35,16.55" style="fill:#241913;"/>
                <path d="M11.4,32.15L14.5,25.4L1,19L-6.1,-1.55L3.4,-1.1L10.15,8.4C10.55,8.3 12.883,8.983 17.15,10.45L17.9,20.7L25.2,26.25L25.2,38.25L26.45,25.9L19.3,20.4L18.6,10.75L26.75,12.6C28.117,14 30.017,16.683 32.45,20.65L28.15,11.45L12.3,7.3L10.65,4.35L20.55,-1.4L29.95,-0.65L20.9,-2.6L9.95,3.2L5.65,-4.35L-3.65,-5L-8.45,1.6L-5,9.15L-11.55,15.85L-11.35,16.55" style="fill:none;fill-rule:nonzero;stroke:#050303;stroke-opacity:0.4;stroke-width:0.25px;"/>
                <path d="M20.35,10.1L19.8,9.2L27.2,11.2L26.35,11.7L20.35,10.1M0.8,20.7C0.733,20.1 0.967,19.767 1.5,19.7L12.5,24.95L0.8,20.7M19.75,21.5L19.9,20.7L26.55,25.95L19.75,21.5M27.25,12.05C27.55,11.85 27.867,11.667 28.2,11.5L31.6,18.55L27.25,12.05M18.4,11.35L19,19.65C18.567,20.817 18.133,18.017 17.7,11.25L18.4,11.35M25.85,26.8L26.45,26.55L25.3,38.05L25.85,26.8M13.1,26.15C13.333,25.95 13.583,25.867 13.85,25.9L10.8,32.8L13.1,26.15" style="fill:#7f7f00;fill-opacity:0.56;"/>
                <path d="M25.55,26.25L25.65,25.85C25.717,25.75 25.817,25.683 25.95,25.65L26.3,25.75L26.55,26.05L26.5,26.45L26.15,26.65L25.75,26.6L25.55,26.25M13,25.25L13.35,25L13.85,25.1L14.1,25.5L14,26L13.6,26.25L13.1,26.15L12.85,25.7C12.85,25.533 12.9,25.383 13,25.25M17.65,20.5L17.95,20.25L18.4,20.4L18.6,20.75L18.5,21.15L18.2,21.4L17.8,21.3L17.55,20.9L17.65,20.5M10.2,7.7L10.65,7.8L10.95,8.2L10.85,8.65L10.5,8.9L10,8.8L9.75,8.4L9.85,7.95C9.917,7.817 10.033,7.733 10.2,7.7M27.2,11.2C27.3,11.067 27.433,10.983 27.6,10.95L28.05,11.1L28.3,11.45L28.2,11.9L27.8,12.15L27.35,12.05L27.1,11.65L27.2,11.2" style="fill:#7f7f00;fill-opacity:0.56;"/>
            </g>
            <g id="shape6" transform="matrix(1.0055,0.0177,0.1439,1.0019,5.70018,44.5996)">
                <path d="M8.55,-13.6L10.9,-0.4L11.35,3.1C11.583,6.9 10.983,10.267 9.55,13.2C7.65,16.967 4.7,19.317 0.7,20.25C-3.3,21.15 -6.5,20.533 -8.9,18.4C-11.333,16.233 -12.9,13.233 -13.6,9.4C-14.3,5.533 -13.933,1.883 -12.5,-1.55L-7.65,-12.8C-5.85,-16.867 -2.85,-18.9 1.35,-18.9C5.55,-18.9 7.95,-17.133 8.55,-13.6" style="fill:#503929;"/>
                <path d="M8.55,-13.6L10.9,-0.4L11.35,3.1C11.583,6.9 10.983,10.267 9.55,13.2C7.65,16.967 4.7,19.317 0.7,20.25C-3.3,21.15 -6.5,20.533 -8.9,18.4C-11.333,16.233 -12.9,13.233 -13.6,9.4C-14.3,5.533 -13.933,1.883 -12.5,-1.55L-7.65,-12.8C-5.85,-16.867 -2.85,-18.9 1.35,-18.9C5.55,-18.9 7.95,-17.133 8.55,-13.6Z" style="fill:none;fill-rule:nonzero;stroke:#000;stroke-width:0.25px;"/>
                <path d="M0.85,10.8C-0.383,13.9 -2.017,15.3 -4.05,15C-6.117,14.667 -7.517,14.017 -8.25,13.05C-9.017,12.05 -9.483,10.633 -9.65,8.8C-9.85,6.933 -9.567,4.85 -8.8,2.55L-8.35,1.3C-4.817,5.2 -0.933,6.267 3.3,4.5L0.85,10.8" style="fill:#503929;"/>
                <path d="M10.65,-0.25L11.1,3.25C11.333,7.05 10.733,10.417 9.3,13.35C7.8,16.317 4.767,18.2 0.2,19C2.933,17.867 4.683,14.417 5.45,8.65C-3.55,14.117 -9.883,12.2 -13.55,2.9C-12.383,-1.7 -10.7,-6.467 -8.5,-11.4C-6.3,-16.333 -3.1,-18.783 1.1,-18.75C5.3,-18.75 7.7,-16.983 8.3,-13.45L10.65,-0.25" style="fill:#231812;"/>
            </g>
            <g id="shape7" transform="matrix(0.9846,0.0701,-0.0673,0.9941,-0.8979,8.14967)">
                <path d="M23.4,-7.85L28.05,-9.15L35,-16.4L35.1,-16.35L39.45,-14.05L46.25,-23.65L40.1,-12.45L34.8,-14.35L34.75,-14.35L31.95,-9.1L35.95,-2.25L47.5,-1.25L35.8,-0.3L30.35,-6.75L24,-5.15L23.4,-7.75L23.4,-7.85" style="fill:#503929;"/>
                <path d="M24,-5.15C25.333,1.717 24.45,8.283 21.35,14.55C17.883,21.617 12.633,26.217 5.6,28.35C1.2,29.717 -3.083,29.867 -7.25,28.8L-9.2,28.2L-18.1,25.5L-20.95,25.15L-22.8,22.45C-22.867,21.883 -22.25,21.167 -20.95,20.3L-21,20.25L-20.9,20.3L-16.85,22.2C-9.283,25.067 -3.033,23.683 1.9,18.05C-3.367,17.383 -8.05,16.35 -12.15,14.95L-17.15,12.9C-17.75,11.933 -19.233,11.267 -21.6,10.9C-23.967,10.533 -25.683,9.55 -26.75,7.95C-27.817,6.35 -28.567,3.967 -29,0.8C-29.467,-2.367 -28.717,-6.483 -26.75,-11.55C-25.15,-5.183 -21.083,0.083 -14.55,4.25C-8.05,8.383 -1.417,9.467 5.35,7.5C12.083,5.5 17.167,1.55 20.6,-4.35L21.7,-6.4L22.25,-7.55L22.95,-9.25L23.4,-7.85L23.4,-7.75L24,-5.15M-9.2,28.2C-11.067,27.533 -12.883,26.65 -14.65,25.55L-17.65,23.45L-20.95,20.3L-20.9,20.3L-20.95,20.3L-17.65,23.45L-14.65,25.55C-12.883,26.65 -11.067,27.533 -9.2,28.2" style="fill:#38241d;"/>
                <path d="M-26.75,-11.55L-25.5,-14.4C-22.033,-21.467 -16.783,-26.083 -9.75,-28.25C-2.683,-30.417 4.083,-29.5 10.55,-25.5C13.217,-23.833 15.5,-21.85 17.4,-19.55L21.1,-14.35L20.9,-14.3C21.7,-12.733 22.383,-11.05 22.95,-9.25L22.25,-7.55L21.7,-6.4L20.6,-4.35C17.167,1.55 12.083,5.5 5.35,7.5C-1.417,9.467 -8.05,8.383 -14.55,4.25C-21.083,0.083 -25.15,-5.183 -26.75,-11.55" style="fill:#76533d;"/>
                <path d="M-21,20.25L-20.65,19.95C-17.05,17.317 -15.883,14.967 -17.15,12.9L-12.15,14.95C-15.517,16.283 -17.083,18.7 -16.85,22.2L-20.9,20.3L-21,20.25M-20.65,19.95L-20.9,20.3L-20.65,19.95"/>
                <path d="M-16.85,22.2C-17.083,18.7 -15.517,16.283 -12.15,14.95C-8.05,16.35 -3.367,17.383 1.9,18.05C-3.033,23.683 -9.283,25.067 -16.85,22.2" style="fill:#9d1515;"/>
                <path d="M24,-5.15C25.333,1.717 24.45,8.283 21.35,14.55C17.883,21.617 12.633,26.217 5.6,28.35C1.2,29.717 -3.083,29.867 -7.25,28.8L-9.2,28.2L-18.1,25.5L-20.95,25.15L-22.8,22.45C-22.867,21.883 -22.25,21.167 -20.95,20.3L-21,20.25L-20.65,19.95C-17.05,17.317 -15.883,14.967 -17.15,12.9C-17.75,11.933 -19.233,11.267 -21.6,10.9C-23.967,10.533 -25.683,9.55 -26.75,7.95C-27.817,6.35 -28.567,3.967 -29,0.8C-29.467,-2.367 -28.717,-6.483 -26.75,-11.55L-25.5,-14.4C-22.033,-21.467 -16.783,-26.083 -9.75,-28.25C-2.683,-30.417 4.083,-29.5 10.55,-25.5C13.217,-23.833 15.5,-21.85 17.4,-19.55L21.1,-14.35L20.9,-14.3C21.7,-12.733 22.383,-11.05 22.95,-9.25M-20.9,20.3L-20.65,19.95M-20.9,20.3L-20.95,20.3L-17.65,23.45L-14.65,25.55C-12.883,26.65 -11.067,27.533 -9.2,28.2" style="fill:none;fill-rule:nonzero;stroke:#38241d;stroke-opacity:0.96;stroke-width:0.25px;"/>
                <path d="M-12.15,14.95C-15.517,16.283 -17.083,18.7 -16.85,22.2" style="fill:none;fill-rule:nonzero;stroke:#f03;stroke-width:0.05px;"/>
                <path d="M-26.2,-9.75C-24.333,-4.183 -20.45,0.483 -14.55,4.25C-8.05,8.383 -1.417,9.467 5.35,7.5C12.083,5.5 17.167,1.55 20.6,-4.35L21.7,-6.4L22,-7" style="fill:none;fill-rule:nonzero;stroke:#664a22;stroke-opacity:0.54;stroke-width:2px;"/>
                <path d="M-19.45,0.1C-18.183,-15.6 -11.3,-25.283 1.2,-28.95" style="fill:none;fill-rule:nonzero;stroke:#463317;stroke-opacity:0.96;stroke-width:0.25px;"/>
                <path d="M13.1,-14L14.6,-15.1L11.75,-18.65L10.55,-17.8M13.3,-19.85L11.75,-18.65L9.15,-20.75M16.35,-16.4L14.6,-15.1C15.433,-13.733 16.133,-12.217 16.7,-10.55L18.5,-11.55M16.45,-5.15L17.95,-5.85C17.65,-7.55 17.233,-9.117 16.7,-10.55L15.3,-9.8M19.7,-6.7L17.95,-5.85L18.6,-0.5M19.75,-2.4L21.05,0.05M-5.75,-27.5L-2.85,-26.3M-21,-5.65L-18.05,-3.3M-19.4,-10.95L-16.5,-8.65M-18,-15.75L-13.65,-13.25M-14.8,-21.05L-10.75,-18.95M-11.2,-23.75L-7.1,-22.4M-2.45,-29.2L2.05,-28.2" style="fill:none;fill-rule:nonzero;stroke:#463317;stroke-opacity:0.96;stroke-width:0.25px;"/>
            </g>
            <g id="shape8" transform="matrix(0.966,0.2378,-0.2364,0.9709,-0.70102,9.80038)">
                <path d="M-13.05,19.25C-12.95,18.683 -12.6,18.117 -12,17.55L-8.8,17.35C-9.633,17.617 -10.3,17.967 -10.8,18.4C-11.4,18.9 -11.883,19.8 -12.25,21.1C-12.617,22.367 -12.883,22.833 -13.05,22.5L-13.35,21.25C-13.383,20.783 -13.283,20.117 -13.05,19.25" style="fill:#fe9a9a;"/>
                <path d="M-7.5,16.5L-7.5,16.45C-6.667,16.183 -5.717,16.5 -4.65,17.4C-4.35,18.767 -4.4,19.9 -4.8,20.8C-6.367,22.367 -7.3,21.933 -7.6,19.5L-7.5,16.5" style="fill:#fbf3d9;"/>
                <path d="M-4.8,20.8C-4.4,19.9 -4.35,18.767 -4.65,17.4C-5.717,16.5 -6.667,16.183 -7.5,16.45L-7.3,15.55L-1.05,15.9L-4.6,20.85L-4.8,20.8" style="fill:#c6b797;"/>
                <path d="M-7.5,16.5L-7.6,19.5C-7.3,21.933 -6.367,22.367 -4.8,20.8L-4.6,20.85L-1.05,15.9L-7.3,15.55L-7.5,16.45" style="fill:none;fill-rule:nonzero;stroke:#886411;stroke-width:0.25px;"/>
            </g>
            <g id="sprite7" transform="matrix(0.893,0.2542,-0.1261,0.408,-78.1021,49.0571)">
                <g>
                    <clipPath id="_clip8">
                        <path d="M91.15,-142.8C91.15,-130.767 88.1,-120.5 82,-112C75.933,-103.5 68.6,-99.25 60,-99.25C51.433,-99.25 44.1,-103.5 38,-112C31.933,-120.5 28.9,-130.767 28.9,-142.8C28.9,-154.833 31.933,-165.1 38,-173.6C44.1,-182.1 51.433,-186.35 60,-186.35C68.6,-186.35 75.933,-182.1 82,-173.6C88.1,-165.1 91.15,-154.833 91.15,-142.8"/>
                    </clipPath>
                    <g clip-path="url(#_clip8)">
                        <g id="shape10" transform="matrix(-0.0298,0.4561,0.1747,0.0403,40.2481,-135.202)">
                            <path d="M11.85,-18.05L17.45,-14.8C26.35,-9.3 32.1,-3.767 34.7,1.8L35.55,3.75C36.25,5.783 36.55,7.683 36.45,9.45C36.317,11.75 35.483,13.833 33.95,15.7C31.75,18.3 28,19.65 22.7,19.75L17.35,19.55L14.6,19.2L10.7,18.5C7.6,17.867 4.417,17 1.15,15.9L-3.15,11.85C-14.617,0.617 -20.567,-9.4 -21,-18.2C-12.733,-20.267 -4.283,-20.7 4.35,-19.5L11.85,-18.05"/>
                            <path d="M11.85,-18.05L4.35,-19.5C-4.283,-20.7 -12.733,-20.267 -21,-18.2C-20.567,-9.4 -14.617,0.617 -3.15,11.85L1.15,15.9L-3.25,14.3C-15.883,3.4 -26.8,-9.233 -36,-23.6C-29.1,-27.267 -20.667,-28.45 -10.7,-27.15L-6.95,-26.25C-1.183,-24.55 5.083,-21.817 11.85,-18.05"/>
                            <path d="M-3.25,14.3L-4.6,13.8C-25.233,-0.733 -37.483,-14.5 -41.35,-27.5C-28.217,-28.633 -18,-28.517 -10.7,-27.15C-20.667,-28.45 -29.1,-27.267 -36,-23.6C-26.8,-9.233 -15.883,3.4 -3.25,14.3"/>
                        </g>
                        <g id="shape101" serif:id="shape10" transform="matrix(0.1907,0.4863,-0.4892,0.3653,54.8501,-141.398)">
                            <path d="M11.85,-18.05L17.45,-14.8C26.35,-9.3 32.1,-3.767 34.7,1.8L35.55,3.75C36.25,5.783 36.55,7.683 36.45,9.45C36.317,11.75 35.483,13.833 33.95,15.7C31.75,18.3 28,19.65 22.7,19.75L17.35,19.55L14.6,19.2L10.7,18.5C7.6,17.867 4.417,17 1.15,15.9L-3.15,11.85C-14.617,0.617 -20.567,-9.4 -21,-18.2C-12.733,-20.267 -4.283,-20.7 4.35,-19.5L11.85,-18.05"/>
                            <path d="M11.85,-18.05L4.35,-19.5C-4.283,-20.7 -12.733,-20.267 -21,-18.2C-20.567,-9.4 -14.617,0.617 -3.15,11.85L1.15,15.9L-3.25,14.3C-15.883,3.4 -26.8,-9.233 -36,-23.6C-29.1,-27.267 -20.667,-28.45 -10.7,-27.15L-6.95,-26.25C-1.183,-24.55 5.083,-21.817 11.85,-18.05"/>
                            <path d="M-3.25,14.3L-4.6,13.8C-25.233,-0.733 -37.483,-14.5 -41.35,-27.5C-28.217,-28.633 -18,-28.517 -10.7,-27.15C-20.667,-28.45 -29.1,-27.267 -36,-23.6C-26.8,-9.233 -15.883,3.4 -3.25,14.3"/>
                        </g>
                        <g id="shape102" serif:id="shape10" transform="matrix(-0.0298,0.4561,0.1747,0.0403,40.9481,-132.802)">
                            <path d="M11.85,-18.05L17.45,-14.8C26.35,-9.3 32.1,-3.767 34.7,1.8L35.55,3.75C36.25,5.783 36.55,7.683 36.45,9.45C36.317,11.75 35.483,13.833 33.95,15.7C31.75,18.3 28,19.65 22.7,19.75L17.35,19.55L14.6,19.2L10.7,18.5C7.6,17.867 4.417,17 1.15,15.9L-3.15,11.85C-14.617,0.617 -20.567,-9.4 -21,-18.2C-12.733,-20.267 -4.283,-20.7 4.35,-19.5L11.85,-18.05"/>
                            <path d="M11.85,-18.05L4.35,-19.5C-4.283,-20.7 -12.733,-20.267 -21,-18.2C-20.567,-9.4 -14.617,0.617 -3.15,11.85L1.15,15.9L-3.25,14.3C-15.883,3.4 -26.8,-9.233 -36,-23.6C-29.1,-27.267 -20.667,-28.45 -10.7,-27.15L-6.95,-26.25C-1.183,-24.55 5.083,-21.817 11.85,-18.05"/>
                            <path d="M-3.25,14.3L-4.6,13.8C-25.233,-0.733 -37.483,-14.5 -41.35,-27.5C-28.217,-28.633 -18,-28.517 -10.7,-27.15C-20.667,-28.45 -29.1,-27.267 -36,-23.6C-26.8,-9.233 -15.883,3.4 -3.25,14.3"/>
                        </g>
                        <g id="shape103" serif:id="shape10" transform="matrix(0.1907,0.4863,-0.4892,0.3653,53.7001,-137.348)">
                            <path d="M11.85,-18.05L17.45,-14.8C26.35,-9.3 32.1,-3.767 34.7,1.8L35.55,3.75C36.25,5.783 36.55,7.683 36.45,9.45C36.317,11.75 35.483,13.833 33.95,15.7C31.75,18.3 28,19.65 22.7,19.75L17.35,19.55L14.6,19.2L10.7,18.5C7.6,17.867 4.417,17 1.15,15.9L-3.15,11.85C-14.617,0.617 -20.567,-9.4 -21,-18.2C-12.733,-20.267 -4.283,-20.7 4.35,-19.5L11.85,-18.05"/>
                            <path d="M11.85,-18.05L4.35,-19.5C-4.283,-20.7 -12.733,-20.267 -21,-18.2C-20.567,-9.4 -14.617,0.617 -3.15,11.85L1.15,15.9L-3.25,14.3C-15.883,3.4 -26.8,-9.233 -36,-23.6C-29.1,-27.267 -20.667,-28.45 -10.7,-27.15L-6.95,-26.25C-1.183,-24.55 5.083,-21.817 11.85,-18.05"/>
                            <path d="M-3.25,14.3L-4.6,13.8C-25.233,-0.733 -37.483,-14.5 -41.35,-27.5C-28.217,-28.633 -18,-28.517 -10.7,-27.15C-20.667,-28.45 -29.1,-27.267 -36,-23.6C-26.8,-9.233 -15.883,3.4 -3.25,14.3"/>
                        </g>
                        <g id="shape104" serif:id="shape10" transform="matrix(-0.0298,0.4561,0.1747,0.0403,40.5981,-134.052)">
                            <path d="M11.85,-18.05L17.45,-14.8C26.35,-9.3 32.1,-3.767 34.7,1.8L35.55,3.75C36.25,5.783 36.55,7.683 36.45,9.45C36.317,11.75 35.483,13.833 33.95,15.7C31.75,18.3 28,19.65 22.7,19.75L17.35,19.55L14.6,19.2L10.7,18.5C7.6,17.867 4.417,17 1.15,15.9L-3.15,11.85C-14.617,0.617 -20.567,-9.4 -21,-18.2C-12.733,-20.267 -4.283,-20.7 4.35,-19.5L11.85,-18.05" style="fill:#fbf3d9;"/>
                            <path d="M11.85,-18.05L4.35,-19.5C-4.283,-20.7 -12.733,-20.267 -21,-18.2C-20.567,-9.4 -14.617,0.617 -3.15,11.85L1.15,15.9L-3.25,14.3C-15.883,3.4 -26.8,-9.233 -36,-23.6C-29.1,-27.267 -20.667,-28.45 -10.7,-27.15L-6.95,-26.25C-1.183,-24.55 5.083,-21.817 11.85,-18.05" style="fill:#eddbb0;"/>
                            <path d="M-3.25,14.3L-4.6,13.8C-25.233,-0.733 -37.483,-14.5 -41.35,-27.5C-28.217,-28.633 -18,-28.517 -10.7,-27.15C-20.667,-28.45 -29.1,-27.267 -36,-23.6C-26.8,-9.233 -15.883,3.4 -3.25,14.3" style="fill:#e1c584;"/>
                        </g>
                        <g id="shape105" serif:id="shape10" transform="matrix(0.1907,0.4863,-0.4892,0.3653,54.6501,-139.798)">
                            <path d="M11.85,-18.05L17.45,-14.8C26.35,-9.3 32.1,-3.767 34.7,1.8L35.55,3.75C36.25,5.783 36.55,7.683 36.45,9.45C36.317,11.75 35.483,13.833 33.95,15.7C31.75,18.3 28,19.65 22.7,19.75L17.35,19.55L14.6,19.2L10.7,18.5C7.6,17.867 4.417,17 1.15,15.9L-3.15,11.85C-14.617,0.617 -20.567,-9.4 -21,-18.2C-12.733,-20.267 -4.283,-20.7 4.35,-19.5L11.85,-18.05" style="fill:#fbf3d9;"/>
                            <path d="M11.85,-18.05L4.35,-19.5C-4.283,-20.7 -12.733,-20.267 -21,-18.2C-20.567,-9.4 -14.617,0.617 -3.15,11.85L1.15,15.9L-3.25,14.3C-15.883,3.4 -26.8,-9.233 -36,-23.6C-29.1,-27.267 -20.667,-28.45 -10.7,-27.15L-6.95,-26.25C-1.183,-24.55 5.083,-21.817 11.85,-18.05" style="fill:#eddbb0;"/>
                            <path d="M-3.25,14.3L-4.6,13.8C-25.233,-0.733 -37.483,-14.5 -41.35,-27.5C-28.217,-28.633 -18,-28.517 -10.7,-27.15C-20.667,-28.45 -29.1,-27.267 -36,-23.6C-26.8,-9.233 -15.883,3.4 -3.25,14.3" style="fill:#e1c584;"/>
                        </g>
                    </g>
                </g>
                <g id="shape111" serif:id="shape11" transform="matrix(0.1908,0,0.3815,0.7191,47.4502,-134.25)">
                    <path d="M-8.65,0.85C-8.95,1.517 -9.3,1.85 -9.7,1.85C-10.1,1.85 -10.45,1.517 -10.75,0.85C-11.05,0.217 -11.2,-0.567 -11.2,-1.5C-11.2,-2.433 -11.05,-3.233 -10.75,-3.9C-10.45,-4.533 -10.1,-4.85 -9.7,-4.85C-9.3,-4.85 -8.95,-4.533 -8.65,-3.9C-8.35,-3.233 -8.2,-2.433 -8.2,-1.5C-8.2,-0.567 -8.35,0.217 -8.65,0.85" style="fill-opacity:0;"/>
                    <path d="M-3.7,1.35C-3.933,1.85 -4.2,2.1 -4.5,2.1C-4.833,2.1 -5.117,1.85 -5.35,1.35C-5.583,0.817 -5.7,0.183 -5.7,-0.55C-5.7,-1.283 -5.583,-1.917 -5.35,-2.45C-5.117,-2.95 -4.833,-3.2 -4.5,-3.2C-4.2,-3.2 -3.933,-2.95 -3.7,-2.45C-3.433,-1.917 -3.3,-1.283 -3.3,-0.55C-3.3,0.183 -3.433,0.817 -3.7,1.35" style="fill-opacity:0;"/>
                    <path d="M2.7,0.5C2.467,1 2.2,1.25 1.9,1.25C1.567,1.25 1.283,1 1.05,0.5C0.817,-0.033 0.7,-0.667 0.7,-1.4C0.7,-2.133 0.817,-2.767 1.05,-3.3C1.283,-3.8 1.567,-4.05 1.9,-4.05C2.2,-4.05 2.467,-3.8 2.7,-3.3C2.967,-2.767 3.1,-2.133 3.1,-1.4C3.1,-0.667 2.967,-0.033 2.7,0.5" style="fill-opacity:0;"/>
                    <path d="M7.95,1.4C7.65,2.067 7.3,2.4 6.9,2.4C6.5,2.4 6.15,2.067 5.85,1.4C5.55,0.767 5.4,-0.017 5.4,-0.95C5.4,-1.883 5.55,-2.683 5.85,-3.35C6.15,-3.983 6.5,-4.3 6.9,-4.3C7.3,-4.3 7.65,-3.983 7.95,-3.35C8.25,-2.683 8.4,-1.883 8.4,-0.95C8.4,-0.017 8.25,0.767 7.95,1.4" style="fill-opacity:0;"/>
                </g>
            </g>
            <g id="shape51" serif:id="shape5" transform="matrix(0.8155,-0.5661,0.5503,0.8278,22.9497,18.2998)">
                <path d="M9.95,31.15L11.4,32.15C9.433,36.617 6.583,38.283 2.85,37.15C6.55,36.35 8.917,34.35 9.95,31.15" style="fill:#110c09;"/>
                <path d="M-11.35,16.55L-10.25,17.3L-7.1,27.75L-13.15,33.95L-8.75,27.75L-11.35,16.55M0.1,24.4L1.2,25.15L-2.05,30.75L0.1,24.4" style="fill:#281c14;"/>
                <path d="M-11.35,16.55L-11.55,15.85L-5,9.15L-8.45,1.6L-3.65,-5L5.65,-4.35L9.95,3.2L20.9,-2.6L29.95,-0.65L20.55,-1.4L10.65,4.35L12.3,7.3L28.15,11.45L32.45,20.65C30.017,16.683 28.117,14 26.75,12.6L18.6,10.75L19.3,20.4L26.45,25.9L25.2,38.25L25.2,26.25L17.9,20.7L17.15,10.45C12.883,8.983 10.55,8.3 10.15,8.4L3.4,-1.1L-6.1,-1.55L1,19L14.5,25.4L11.4,32.15L9.95,31.15L11.4,26.15L2.6,22.7L2.6,22.65L1.2,25.15L0.1,24.4L0.95,21.9L-1.1,20.65L-4.85,10.45L-10.65,16.1L-10.25,17.3L-11.35,16.55" style="fill:#241913;"/>
                <path d="M11.4,32.15L14.5,25.4L1,19L-6.1,-1.55L3.4,-1.1L10.15,8.4C10.55,8.3 12.883,8.983 17.15,10.45L17.9,20.7L25.2,26.25L25.2,38.25L26.45,25.9L19.3,20.4L18.6,10.75L26.75,12.6C28.117,14 30.017,16.683 32.45,20.65L28.15,11.45L12.3,7.3L10.65,4.35L20.55,-1.4L29.95,-0.65L20.9,-2.6L9.95,3.2L5.65,-4.35L-3.65,-5L-8.45,1.6L-5,9.15L-11.55,15.85L-11.35,16.55" style="fill:none;fill-rule:nonzero;stroke:#050303;stroke-opacity:0.4;stroke-width:0.25px;"/>
                <path d="M20.35,10.1L19.8,9.2L27.2,11.2L26.35,11.7L20.35,10.1M0.8,20.7C0.733,20.1 0.967,19.767 1.5,19.7L12.5,24.95L0.8,20.7M19.75,21.5L19.9,20.7L26.55,25.95L19.75,21.5M27.25,12.05C27.55,11.85 27.867,11.667 28.2,11.5L31.6,18.55L27.25,12.05M18.4,11.35L19,19.65C18.567,20.817 18.133,18.017 17.7,11.25L18.4,11.35M25.85,26.8L26.45,26.55L25.3,38.05L25.85,26.8M13.1,26.15C13.333,25.95 13.583,25.867 13.85,25.9L10.8,32.8L13.1,26.15" style="fill:#7f7f00;fill-opacity:0.56;"/>
                <path d="M25.55,26.25L25.65,25.85C25.717,25.75 25.817,25.683 25.95,25.65L26.3,25.75L26.55,26.05L26.5,26.45L26.15,26.65L25.75,26.6L25.55,26.25M13,25.25L13.35,25L13.85,25.1L14.1,25.5L14,26L13.6,26.25L13.1,26.15L12.85,25.7C12.85,25.533 12.9,25.383 13,25.25M17.65,20.5L17.95,20.25L18.4,20.4L18.6,20.75L18.5,21.15L18.2,21.4L17.8,21.3L17.55,20.9L17.65,20.5M10.2,7.7L10.65,7.8L10.95,8.2L10.85,8.65L10.5,8.9L10,8.8L9.75,8.4L9.85,7.95C9.917,7.817 10.033,7.733 10.2,7.7M27.2,11.2C27.3,11.067 27.433,10.983 27.6,10.95L28.05,11.1L28.3,11.45L28.2,11.9L27.8,12.15L27.35,12.05L27.1,11.65L27.2,11.2" style="fill:#7f7f00;fill-opacity:0.56;"/>
            </g>
            <g id="nate2" serif:id="nate" transform="matrix(0.4595,0.0177,0.2536,0.405,8.89921,55.7496)">
                <g id="shape41" serif:id="shape4">
                    <path d="M2.85,44.55C-0.817,44.55 -3.933,42.283 -6.5,37.75C-9.1,33.217 -10.383,27.767 -10.35,21.4C-10.383,15 -9.1,9.533 -6.5,5C-3.933,0.5 -0.817,-1.75 2.85,-1.75C6.483,-1.75 9.6,0.5 12.2,5C14.767,9.533 16.05,15 16.05,21.4C16.05,27.767 14.767,33.217 12.2,37.75C9.6,42.283 6.483,44.55 2.85,44.55" style="fill:#231812;"/>
                    <path d="M2.85,44.55C-0.817,44.55 -3.933,42.283 -6.5,37.75C-9.1,33.217 -10.383,27.767 -10.35,21.4C-10.383,15 -9.1,9.533 -6.5,5C-3.933,0.5 -0.817,-1.75 2.85,-1.75C6.483,-1.75 9.6,0.5 12.2,5C14.767,9.533 16.05,15 16.05,21.4C16.05,27.767 14.767,33.217 12.2,37.75C9.6,42.283 6.483,44.55 2.85,44.55Z" style="fill:none;fill-rule:nonzero;stroke:#000;stroke-width:0.25px;"/>
                    <path d="M13.9,34.45C12.167,41.783 5.9,45.617 -4.9,45.95C-16.167,46.317 -19.733,44.583 -15.6,40.75C-11.5,36.917 -9.35,33.833 -9.15,31.5L12.85,34.5L13.9,34.45"/>
                    <path d="M6.5,9.75L7,23.45C7.3,33.283 2.4,35.85 -7.7,31.15C-10.667,14.35 -8.917,3.917 -2.45,-0.15C3.95,-4.217 8.783,-2.8 12.05,4.1C8.25,2.933 6.267,3.433 6.1,5.6C5.9,7.767 6.017,9.083 6.45,9.55L6.65,9.6L6.5,9.75" style="fill:#503929;"/>
                </g>
            </g>
            <g id="shape121" serif:id="shape12">
                <path d="M8.15,35.4C7.917,41.1 6.033,43.083 2.5,41.35L3.1,41.8C4,42.6 4.883,43.967 5.75,45.9C6.55,47.533 7.417,47.6 8.35,46.1C10.65,42.867 10.583,39.3 8.15,35.4" style="fill:#231812;"/>
                <path d="M8.15,35.4L6.85,33.65C5.75,32.217 4.483,31.15 3.05,30.45C1.217,29.35 -1.033,28.517 -3.7,27.95C-7.467,27.183 -10.083,27.3 -11.55,28.3C-12.983,29.3 -13.517,30.567 -13.15,32.1C-12.75,33.633 -11.383,34.833 -9.05,35.7L-3.35,38C-1.817,38.733 -0.583,39.367 0.35,39.9L2.5,41.35C6.033,43.083 7.917,41.1 8.15,35.4" style="fill:#503929;"/>
                <path d="M2.5,41.35L0.35,39.9C-0.583,39.367 -1.817,38.733 -3.35,38L-9.05,35.7C-11.383,34.833 -12.75,33.633 -13.15,32.1C-13.517,30.567 -12.983,29.3 -11.55,28.3C-10.083,27.3 -7.467,27.183 -3.7,27.95C-1.033,28.517 1.217,29.35 3.05,30.45C4.483,31.15 5.75,32.217 6.85,33.65L8.15,35.4C10.583,39.3 10.65,42.867 8.35,46.1C7.417,47.6 6.55,47.533 5.75,45.9C4.883,43.967 4,42.6 3.1,41.8L2.5,41.35Z" style="fill:none;fill-rule:nonzero;stroke:#000;stroke-width:0.25px;"/>
            </g>
            <g id="sprite8" transform="matrix(-0.8462,0.4416,0.369,0.6668,5.24926,10.4506)">
                <g id="shape131" serif:id="shape13">
                    <path d="M11.8,-11.8C15.067,-8.533 16.7,-4.6 16.7,0C16.7,4.6 15.067,8.533 11.8,11.8C8.533,15.067 4.6,16.7 0,16.7C-4.6,16.7 -8.533,15.067 -11.8,11.8C-15.067,8.533 -16.7,4.6 -16.7,0C-16.7,-4.6 -15.067,-8.533 -11.8,-11.8C-8.533,-15.067 -4.6,-16.7 0,-16.7C4.6,-16.7 8.533,-15.067 11.8,-11.8" style="fill:url(#_Radial9);"/>
                </g>
            </g>
            <g id="nate3" serif:id="nate" transform="matrix(0.3212,-0.9512,-0.4376,-0.0274,-10.0003,26.7987)">
                <g id="shape31" serif:id="shape3">
                    <path d="M-10.15,11.85L-9.75,12.95L-9,14.3L-13.95,20.15L-28.45,25.9L-14.05,15.85L-10.15,11.85M-5.45,16.3C-4.817,16.167 -4.2,15.767 -3.6,15.1L-3.25,14.7L-2.8,14.25L-4.7,23L-12.65,30.2L-6.45,20.95L-5.45,16.3" style="fill:#1d140f;"/>
                    <path d="M-10.15,11.85C-10.65,10.317 -10.733,8.7 -10.4,7C-10.1,5.267 -9.35,3.883 -8.15,2.85C-6.983,1.817 -5.967,1.15 -5.1,0.85C-4.267,0.55 -3.433,1.317 -2.6,3.15C-1.833,4.983 -1.5,7.033 -1.6,9.3C-1.733,11.533 -2.283,13.333 -3.25,14.7L-3.6,15.1C-4.2,15.767 -4.817,16.167 -5.45,16.3L-5.7,16.35L-6.6,16.25C-7.433,16.017 -8.167,15.467 -8.8,14.6L-9,14.3L-9.75,12.95L-10.15,11.85" style="fill:#2f1e18;"/>
                    <path d="M-3.25,14.7C-2.283,13.333 -1.733,11.533 -1.6,9.3C-1.5,7.033 -1.833,4.983 -2.6,3.15C-3.433,1.317 -4.267,0.55 -5.1,0.85C-5.967,1.15 -6.983,1.817 -8.15,2.85C-9.35,3.883 -10.1,5.267 -10.4,7C-10.733,8.7 -10.65,10.317 -10.15,11.85L-9.75,12.95L-9,14.3L-8.8,14.6C-8.167,15.467 -7.433,16.017 -6.6,16.25L-5.7,16.35L-5.45,16.3C-4.817,16.167 -4.2,15.767 -3.6,15.1L-3.25,14.7Z" style="fill:none;fill-rule:nonzero;stroke:#35251f;stroke-opacity:0.96;stroke-width:0.25px;"/>
                </g>
            </g>
            <g id="sprite9" transform="matrix(-1,0,0,1,-12.3,24.9)">
                <g id="shape141" serif:id="shape14">
                    <path d="M1.1,5.3C1.6,4.967 2.167,4.8 2.8,4.8C3.767,4.8 4.6,5.183 5.3,5.95C6,6.717 6.35,7.633 6.35,8.7L6.3,9.3C4.867,6.533 3.133,5.2 1.1,5.3M-0.65,6.8L-0.95,9.05L-1,8.45C-1,7.85 -0.883,7.3 -0.65,6.8" style="fill:#ff0;fill-opacity:0.28;"/>
                    <path d="M-20.05,11.25C-18.283,9.417 -16.433,7.867 -14.5,6.6C-10.4,3.967 -6.517,3.2 -2.85,4.3L-1.8,4.6C-6.433,3.433 -10.817,4.833 -14.95,8.8C-15.983,8.7 -17.683,9.517 -20.05,11.25" style="fill:#ff0;fill-opacity:0.28;"/>
                </g>
            </g>
            <g id="shape151" serif:id="shape15">
                <path d="M-14.4,7.25C-14.133,8.417 -14.133,9.567 -14.4,10.7C-14.633,11.8 -15.033,12.533 -15.6,12.9C-16.167,13.3 -16.717,13.217 -17.25,12.65C-17.817,12.117 -18.217,11.267 -18.45,10.1C-18.65,8.867 -18.65,7.7 -18.45,6.6C-18.217,5.5 -17.817,4.767 -17.25,4.4C-16.683,4.033 -16.117,4.117 -15.55,4.65C-15.017,5.183 -14.633,6.05 -14.4,7.25" style="fill:#fff;"/>
                <path d="M-23.45,3.25C-23.25,3.75 -23.183,4.483 -23.25,5.45C-23.317,6.45 -23.5,7.367 -23.8,8.2C-24.133,9.033 -24.483,9.567 -24.85,9.8C-25.217,10.033 -25.517,9.9 -25.75,9.4C-25.95,8.9 -26.017,8.167 -25.95,7.2C-25.883,6.267 -25.7,5.383 -25.4,4.55C-25.067,3.683 -24.7,3.133 -24.3,2.9C-23.967,2.6 -23.683,2.717 -23.45,3.25" style="fill:#fff;"/>
            </g>
            <g id="shape161" serif:id="shape16" transform="matrix(0.9934,-0.0702,0.0714,1.0113,-6.94977,-29.8515)">
                <path d="M31.85,12.45C37.683,14.817 40.6,17.683 40.6,21.05C40.6,21.783 40.467,22.517 40.2,23.25C39.1,25.883 35.917,28.2 30.65,30.2C23.917,32.667 15.867,33.9 6.5,33.9C-2.967,33.9 -11.05,32.667 -17.75,30.2C-24.417,27.667 -27.75,24.617 -27.75,21.05L-27.6,20.1L-26.5,20.65C-19.767,23.117 -11.683,24.35 -2.25,24.35C7.117,24.35 15.167,23.117 21.9,20.65C26.8,18.75 29.9,16.617 31.2,14.25L31.45,13.7L31.85,12.45" style="fill:#ccb266;"/>
                <path d="M-31.4,4.85C-30.033,4.017 -28.4,3.233 -26.5,2.5C-19.767,-0.033 -11.683,-1.3 -2.25,-1.3C7.117,-1.3 15.167,-0.033 21.9,2.5C28.533,4.967 31.85,7.967 31.85,11.5L31.85,12.45L31.45,13.7L30.75,13.85C23.583,16.217 15,17.4 5,17.4C-5.1,17.4 -13.683,16.217 -20.75,13.85L-21.45,13.7C-28.183,11.333 -31.5,8.567 -31.4,5.4L-31.4,4.85" style="fill:#a62626;"/>
                <path d="M-27.6,20.1C-33.5,17.733 -36.45,14.867 -36.45,11.5C-36.45,9.067 -34.867,6.883 -31.7,4.95L-31.4,5.4C-31.5,8.567 -28.183,11.333 -21.45,13.7L-20.75,13.85C-13.683,16.217 -5.1,17.4 5,17.4C15,17.4 23.583,16.217 30.75,13.85L31.2,14.25C29.9,16.617 26.8,18.75 21.9,20.65C15.167,23.117 7.117,24.35 -2.25,24.35C-11.683,24.35 -19.767,23.117 -26.5,20.65L-27.6,20.1" style="fill:#d85050;"/>
                <path d="M31.85,12.45C37.683,14.817 40.6,17.683 40.6,21.05C40.6,21.783 40.467,22.517 40.2,23.25C39.1,25.883 35.917,28.2 30.65,30.2C23.917,32.667 15.867,33.9 6.5,33.9C-2.967,33.9 -11.05,32.667 -17.75,30.2C-24.417,27.667 -27.75,24.617 -27.75,21.05L-27.6,20.1" style="fill:none;fill-rule:nonzero;stroke:#ccb266;stroke-width:0.05px;"/>
                <path d="M-31.4,4.85C-30.033,4.017 -28.4,3.233 -26.5,2.5C-19.767,-0.033 -11.683,-1.3 -2.25,-1.3C7.117,-1.3 15.167,-0.033 21.9,2.5C28.533,4.967 31.85,7.967 31.85,11.5L31.85,12.45L31.45,13.7L31.2,14.25C29.9,16.617 26.8,18.75 21.9,20.65C15.167,23.117 7.117,24.35 -2.25,24.35C-11.683,24.35 -19.767,23.117 -26.5,20.65L-27.6,20.1C-33.5,17.733 -36.45,14.867 -36.45,11.5C-36.45,9.067 -34.867,6.883 -31.7,4.95" style="fill:none;fill-rule:nonzero;stroke:#a62626;stroke-width:0.05px;"/>
            </g>
        </g>
    </g>
    <defs>
        <radialGradient id="_Radial1" cx="0" cy="0" r="1" gradientUnits="userSpaceOnUse" gradientTransform="matrix(25.0675,0,0,25.0675,0,0)"><stop offset="0" style="stop-color:#4c411e;stop-opacity:0.28"/><stop offset="1" style="stop-color:#4a401e;stop-opacity:0"/></radialGradient>
        <radialGradient id="_Radial2" cx="0" cy="0" r="1" gradientUnits="userSpaceOnUse" gradientTransform="matrix(25.0675,0,0,25.0675,0,0)"><stop offset="0" style="stop-color:#4c411e;stop-opacity:0.28"/><stop offset="1" style="stop-color:#4a401e;stop-opacity:0"/></radialGradient>
        <radialGradient id="_Radial3" cx="0" cy="0" r="1" gradientUnits="userSpaceOnUse" gradientTransform="matrix(25.0675,0,0,25.0675,0,0)"><stop offset="0" style="stop-color:#4c411e;stop-opacity:0.28"/><stop offset="1" style="stop-color:#4a401e;stop-opacity:0"/></radialGradient>
        <radialGradient id="_Radial4" cx="0" cy="0" r="1" gradientUnits="userSpaceOnUse" gradientTransform="matrix(25.0675,0,0,25.0675,0,0)"><stop offset="0" style="stop-color:#4c411e;stop-opacity:0.28"/><stop offset="1" style="stop-color:#4a401e;stop-opacity:0"/></radialGradient>
        <radialGradient id="_Radial5" cx="0" cy="0" r="1" gradientUnits="userSpaceOnUse" gradientTransform="matrix(25.0675,0,0,25.0675,0,0)"><stop offset="0" style="stop-color:#4c411e;stop-opacity:0.28"/><stop offset="1" style="stop-color:#4a401e;stop-opacity:0"/></radialGradient>
        <radialGradient id="_Radial6" cx="0" cy="0" r="1" gradientUnits="userSpaceOnUse" gradientTransform="matrix(25.0675,0,0,25.0675,0,0)"><stop offset="0" style="stop-color:#4c411e;stop-opacity:0.28"/><stop offset="1" style="stop-color:#4a401e;stop-opacity:0"/></radialGradient>
        <radialGradient id="_Radial7" cx="0" cy="0" r="1" gradientUnits="userSpaceOnUse" gradientTransform="matrix(25.0675,0,0,25.0675,0,0)"><stop offset="0" style="stop-color:#4c411e;stop-opacity:0.28"/><stop offset="1" style="stop-color:#4a401e;stop-opacity:0"/></radialGradient>
        <radialGradient id="_Radial9" cx="0" cy="0" r="1" gradientUnits="userSpaceOnUse" gradientTransform="matrix(17.2032,0,0,17.2032,0,0)"><stop offset="0" style="stop-color:#fbf3d9;stop-opacity:0.19"/><stop offset="1" style="stop-color:#fbf3d9;stop-opacity:0"/></radialGradient>
    </defs>
</svg>
