<svg width="224" height="295" xmlns="http://www.w3.org/2000/svg" xmlns:xlink="http://www.w3.org/1999/xlink">
 <defs>
  <g transform="matrix(1,0,0,1,192.55,294) " id="shape0">
   <path id="svg_1" stroke-opacity="0" stroke-linejoin="round" stroke-linecap="round" stroke="#ff00ff" fill="none" d="m187.95,-293.5l0,380l-379.95,0l-0.05,0l0,-380l380,0m-95,294.1l-189.95,0"/>
   <path id="svg_2" stroke-opacity="0" stroke-linejoin="round" stroke-linecap="round" stroke="#ff00ff" fill="none" d="m187.95,-293.5l-190,190l190,190m-380,-380l190,190l-189.95,190"/>
   <path id="svg_3" stroke-width="5.25" stroke-opacity="0.8" stroke-linejoin="round" stroke-linecap="round" stroke="#000000" fill="none" d="m45.15,-254.05q-10.35,-1.4 -17.1,1.55q-7.5,3.2 -12.55,8.4q0.1,-2 -0.55,-4.1l-0.05,-0.15q3,-2.85 5.75,-6.2l0.95,-0.65l-0.15,0.05l-0.4,0.05l0.05,-0.05l0.4,-0.5l-0.95,0.65l-1.65,0.45l-5,2l0.45,-10.85q0.1,-2.4 -0.75,-3q-0.9,-0.7 -2.75,0.55l-4.25,2.85l-0.6,-0.45q-1.6,-1.05 -3.05,1.2l-2.25,3.65q-1.2,1.35 -1.95,3.1l-0.3,-2.5q-1,-6.8 -3.6,-13.5q-2.85,-7.25 -9.7,-13l-0.25,-1.55l-0.05,0.05l0,-0.1l-0.55,0.9l-0.75,-0.55l0,0.05l-0.05,-0.05l0.2,1.55q-4.6,8.1 -4.9,16q-0.3,6.2 0.6,12l0.15,1.05l-2.35,1.4l-0.7,-0.3l-2.3,-0.65l-2.65,-0.5l-0.05,-0.05l-0.3,-0.55l-4.15,-7.3q-2.05,-3.5 -3.8,-0.8l-3.9,6.3q-1.35,2.05 -1.6,3.85q-1.9,-2.05 -3.15,2.45l-0.85,3.25l-0.95,3.3l-0.3,1.1l-0.3,1.1l-0.2,0.1q-1.8,-4.15 -5.75,-7.45l-0.15,-0.95l-0.1,0.2l-0.05,-0.25l-0.25,0.55l-0.4,-0.3l-0.1,-0.05l0.15,0.95q-2.85,5 -3.1,9.85l0,1.15l-3.55,-2.3q-6.25,-3.65 -14.9,-2.15l-1,-1.1l0,0.05l0.05,1.25l-0.95,0.2l0.05,0.05l-0.1,0.05l1.05,1.1q0.7,9.3 3.5,15.8l-0.95,3.35q-0.85,2.7 -0.45,5.3q-3.1,-3.8 -7.15,-6.15l-0.55,-0.3l-0.4,-0.2l-3.8,-1.05l-4.5,0.15l-0.55,-0.6l0,0.15l-0.15,-0.15l0.05,0.8l-0.6,0.05l0.65,0.7q0.5,7 2.95,11.5q2.85,4.85 6.5,8q-2.15,0.05 -4.05,1.85l-4.9,4.15q-2.25,1.9 0.1,3.25l5.35,3.25l1.4,0.75q2.2,0.95 3.75,0.05q1.4,-0.95 5,-3.75l0.95,0.65l-0.15,0.3q-1.15,2 -0.3,4.1l2.35,4.55q1.1,1.8 1.55,1.8q0.25,0.2 0.4,-0.1l1.4,-3.25q0.85,-1.8 1.1,-3.5l1.2,0.8q5,3.1 8.15,1.15l12.1,-9.15l-2.4,4.65q-0.9,1.55 -1.05,3.2q-0.15,1.75 0.6,3.5q1.35,3.3 3.8,7.35q2.45,4.05 2.9,2.7l0,-0.05l2.4,-5.2q0.9,-2.05 1.4,-3.95q0.45,-1.85 0.45,-3.65l0,-0.05l0,-1.45l-0.05,-1.75l2.25,-1.9l0.35,-0.3l0.6,-0.55l0.1,0.9l0.75,3.25q0.4,0.8 1.6,1l1.5,0.3l0.05,0q0.3,0.15 0.95,-1.7q0.6,-1.85 0.85,-3.1q0.2,-1.3 -0.9,-1.35l-0.05,0l-1.4,-0.2l5.9,-2.35l0.35,-0.2l0.05,0l0.5,0.45l1.3,0.95l0.7,0.45l0.05,0.05l4.8,2.9l0.75,0.45l0.45,0.3l0.6,0.3l0.1,1.35l-0.4,0.55l-1.85,2.95l-1.4,-0.35l-5.85,-1.15l-0.85,-0.15l-1.25,-0.05q-1.45,0.3 -0.45,2.8l2.9,7.75q1.65,4.5 4,5.4l0.55,0.2l-1.05,0.7l-2.65,2.1l-1.05,0.8l0.25,-1.3q0.55,-3.4 -2.05,-7.8l-4.3,-7.7q-0.75,-1.3 -1.4,-1.45q-1,-0.25 -1.7,2.35l-2.45,8.85q-1.05,3.5 -0.5,6.85l-0.1,-0.1q-3.85,-4.8 -9,-7.85q-4.8,-2.8 -11.35,-1.65l-0.75,-0.8l0,0.1l0.05,0.9l-0.75,0.15l0.8,0.8l0.5,4.6l-0.05,0l-0.45,0q-3.75,0.3 -6.45,1.15q-2.65,0.8 -3.15,4.85l-0.85,5.6l0,0.05l-2,-11.6l0.05,0l2.1,0q2.35,-0.1 3.75,-1.05l1.95,-1.2l0.05,-0.05q0.1,-0.3 -3.75,-1.25l-5.05,-1.25l-0.4,-1.75l-0.65,-1.9l-1.1,-1.75l-1.85,-1.9l-2.4,-1.7l-8.5,-5.05q-3.7,-2.3 -2.9,3.35l0.15,1.05q-1,-1.35 -2.8,-2.4l-5.2,-3.1q-2,-1.25 -1.85,1.35l0,0.05l-0.7,0q-0.5,0.1 -0.5,0.65l-3.1,-1.4l-2.25,0.05l0.45,2.4q0.05,0.7 0.8,1.4l0.65,0.55l-0.1,-0.05q-4.4,-1.65 -9.35,-2.85q-4.6,-1.15 -9.55,-1.25l-0.75,-0.25l-0.1,0l0.3,0.25l-0.55,0l0.9,0.3l1.25,1.05l1.25,0.9l0.15,0.1l-7.85,-0.6l-1.4,-0.45l0.45,0.4l0.05,0.05l-0.65,0l-0.25,0l1.4,0.5q4.65,4.15 11.15,7.05q5.2,2.35 10.6,4.2q-2.3,0.8 -4.55,2.9l-0.05,0.05l-2.35,0.75l-0.85,0.45q-0.35,0.4 1.1,0.95l-0.05,0.05l0.45,0.1l0.3,0.1l1.05,1.85l3.3,4.3l1.1,1l0.4,0.3l-3.55,2.95l-1.2,1.15l-1.25,-0.3l0.15,0.3l0.4,0.8l-0.05,0.05l-0.65,0.75l1.25,0.3q4.95,9.5 11,13.3q6.7,4.1 13.45,4.9q-1.5,1.2 -2.65,3.15l-0.15,0.2l-7.75,-0.75l-1.1,-0.35l0.1,0.1l0.3,0.25l-0.1,0l-0.6,0l1.1,0.35l2.95,2.35l3.4,2l-0.95,2.7l-2.75,7.6l0,0.05l-0.05,0.15l-0.2,0.55l-0.35,2.3q0.25,1.95 2.7,1.75l9.1,-1.1q2.25,-0.25 3.95,-1.05l-3.35,2.45l-1.7,1.6l-0.05,0.05l-0.85,-0.2l-0.05,-0.05l0.4,0.85l-0.5,0.6l-0.1,0.05l1,0.2q3.75,7.2 8.35,10.05l0.65,0.4q4.75,2.8 9.55,3.4q-1.9,1.5 -3,4.4l-0.2,0.55l-0.05,0.1l-2.25,6.25l-0.7,2q-1.4,3.95 1.6,3.65l6.9,-0.85q4,-0.35 5.4,-3.15q1.3,-2.75 5,-12.05l-0.2,4.3q-0.25,3.1 1.6,4.7q1.8,1.45 4.5,2.95q2.65,1.55 2.55,0.5l-0.05,-4.6l0,-0.75q-0.05,-3.1 -0.95,-5.25q-1.05,-2.55 -4.2,-7.85l-1.2,-1.75q0.55,-0.3 1.45,-1.15l2.35,-2.15q2.15,-2.05 3.15,-3.35l1.2,-2.2l0.85,-3l0.9,-4.45q0.3,-1 -2.55,-0.8l-4.85,0.9l-1.25,0.8q-0.9,0.95 -1.15,2.85l-0.3,1.95l-0.35,2.35l-1.5,-8.8l1.65,0q1.8,-0.1 2.9,-0.8l1.45,-0.95q0.45,-0.15 -2.8,-0.95l-3.85,-0.95l-0.05,-0.05l-0.3,-1.3q-0.8,-3.35 -4.6,-5.5l-0.4,-0.25l0,-0.1l-0.5,-1.25q-1.35,-3.3 -5.5,-10.3q-0.9,-1.55 -1.55,-2.3l-0.05,-0.05l1.95,-1.5q5.25,-4.75 7.2,-7.2q1.85,-2.4 2.7,-6.9l0.1,-0.55l1.55,3.25l0.55,1l-0.05,0.05l-0.55,0.45l-0.05,0.1l-1.5,1.25l-0.1,0.2l0.9,1.95l2.2,3.1q0.9,1.15 1.85,0.2l0.1,-0.1l1.3,-1.4l0.05,-0.05l0,0.05l0,0.05l-0.05,0.05l-1.8,5.3l-0.05,0.1l-5.9,5.1q-2.8,2.35 0.1,4.05l2.15,1.3l1.6,0.95l2.8,1.75l0.05,0l0.1,0.05l0.3,1.35q0.55,2.55 1.4,0.85l0.1,-0.25l0.05,-0.15l0.3,-0.75l3.95,-0.2l1.85,-1.3l0.1,-0.05l0.5,0.85q2.1,3.3 5.45,4.55l0.3,0.8l0.05,0l0,-0.4l0,-0.05l1.65,2.9q1.2,1.95 1.75,2.25l0,0.05l-0.2,18.65l-0.8,31.5l-0.15,3.45q-10.5,5 -19.65,14.8l-4.8,0.45l0.05,2.7l7.1,1.1l0.05,4.8l1.8,0.45l1.25,-5.2l2.1,-1.1l4.2,3.95l1.9,-1.3l-3.7,-4.85l0,-3.95q4.7,-2.05 9.4,-2.2l-0.8,27.45q-0.3,5.8 1.7,9.2l0.05,1.05q2.4,5.2 5.75,8.95l-8.9,4.9l10.35,11.35l9.45,-13.4l-6.2,-3.7q3.15,-2.45 5.3,-5.45l2.25,-0.65l0.95,-0.3q3.9,-1.4 6.65,-3.35l1.8,0.35l-4.95,1.75l1.4,8.25l18.75,-3.55l-10.5,-8q1.65,-7.55 -0.55,-13.85l-0.3,-0.1l-1.3,-36.65q1.25,-2 2.9,-3.8l3.75,1.3l3.35,5.05l1.85,-1.4l-2.35,-5.25l1.7,-1.6l5.3,0.5l0.15,-1.85l-4.5,-1.55l1.25,-7.1l-2.45,-0.9l-2,4.35l-2.25,1.05l-0.1,-8.85l-0.8,-4.65l-1.35,-5.05l-2.2,-5.7l-0.5,-1.1l0,-0.05l1.05,0.45q1.15,0.3 2.4,-0.3l4.5,-2.05q0.9,-0.45 1.1,-1.25q0.25,-0.95 -0.65,-2.45l-0.45,-0.65l-2.95,-4.55l-0.55,-0.85l-0.7,-1.05l-0.65,-0.8l-1.35,-1.2l-1.25,-0.25l-1.3,0.4l-3.6,1.25l-0.05,-0.5l0.25,-1.1l0.25,-2.15l0.05,-0.3l0.35,-2.6l0.25,-2.05q0.15,-0.9 0.15,-1.75l-0.15,-1.3l-0.75,-2.2l0,-0.05q3.75,2.35 8.2,3.85l0.05,0l-0.05,0l-1.85,2.65l-0.05,0.05q-1.55,2.25 -1,2.1l0.45,-0.1l1.75,-0.25q1.7,-0.2 3.2,-1.2l1.15,-0.8l1.5,-1.15l0,-0.05l4.15,0.15l0.6,1.95q0.45,1 1.9,1.3l1.9,0.4l0.45,-0.4l0.7,-1.65l0.65,-2.3l0,-0.05l0.45,0.2l0.1,0.05l-0.25,-0.7l0,-0.05l0.6,-0.15l0.15,-0.05l-0.7,-0.35l-0.1,-0.05l0.15,-0.45q0.25,-1.6 -1.1,-1.65l0,-0.1l-0.35,-0.75l5.9,-2.4q0.6,-0.3 1.3,-0.9l0.8,-0.7l0.45,3.15q0,0.35 0.4,0.4l0.7,0.05l-1.1,3.1q-1.25,3.25 -0.55,6.05q0.65,2.8 3.45,9.35q0.6,1.45 1.15,2.25l-2.5,0.3q-6.95,1.45 -9.65,2.55q-2.7,1.05 -4.7,3.95l-2.75,3.6q-0.45,0.45 0.85,1.05l1.35,0.55l1.3,0.4q4.1,1.2 7.25,1.7q3.1,0.3 4.65,-2.45l2.15,-3.4q-1,10.6 -0.95,13.95q0.05,2.2 1.95,4.6l2.8,2.85l0.05,0.05l7.85,6.85l0.05,0.05l1.55,0.95q2.1,0.85 2.6,-2.45l1.2,-9.4q0.55,-3.7 -1,-6.9l1.65,0.95l12.8,5.1l0.1,0.05l13.8,-0.05l2.2,-0.55l1.35,0.7l-0.3,-0.95l0.95,-0.3l-0.1,-0.05l0.05,0l-1.3,-0.7q-3,-8.6 -8.6,-13.5q-6.3,-5.45 -13.45,-8.5q3.6,-0.55 6.45,-3.15l7,-6.4q3.2,-2.95 -1.25,-4.05l-1.1,-0.3l-8.9,-2.4l-0.1,-0.05l-6.1,-0.65q-1.6,0.2 -2.7,0.95q-2.75,1.9 -11,8.75l1.75,-3.9q1.3,-2.8 -0.75,-5.1l-5.45,-5.1l-1.45,-1.15l0.4,-0.2q4,-1.6 6.7,-3.25q2.55,-1.75 1.55,-5.25l-1.15,-4.9l9.2,12.25l1.2,1.45l0.85,0.85l0.85,0.7l5.4,1.95l2.35,0.3l11.3,1.1q4.85,0.4 1.8,-4.1l-2.5,-3.6l-2.6,-3.85l3.35,0.4l1.15,0l2.5,-0.25l2.65,-0.55l0.7,0.4l0,-0.05l0.1,0.05l-0.2,-0.6l0.6,-0.15l-0.1,-0.05l0.05,0l-0.75,-0.4q-1.85,-5.3 -5.3,-8.3l-0.8,-0.7l4,-1.65q6.85,-3.15 11.45,-11.25l1.4,-0.25l0.05,0l-0.95,-0.7l0.45,-0.95l-0.1,0.05l0.05,-0.1l-1.5,0.25l-0.8,-0.5l-7.8,-4.05q-2.8,-1.15 -5.4,-1.75l-1.9,-2.65q-1.55,-2.4 -3.75,-3.6l4.75,-0.75q2.45,-0.6 4.8,-1.65q4.15,-2 7,-6.95l0.7,-0.1l0,-0.05l0.15,0l-0.6,-0.45l0.35,-0.55l-0.25,0.05l0.05,-0.05l-0.8,0.15q-5.55,-3.7 -10.45,-4.15l-3.65,-0.15l-4.15,0.35l-2.35,0.45q1.3,-1.8 1.3,-4.4l0.1,-6.5q0,-2.2 -1.35,-2.15l-1.3,0.35l-5.9,2.6q-3.45,1.45 -3.85,3.75q-0.25,1.7 -0.55,6.45l-1.05,0.45l-0.15,-0.3q-0.75,-2.15 -2.8,-2.65l-4.9,-0.65l-1.6,0l-0.25,0l1.7,-2.45l2.75,-0.4q1.5,-0.35 3.15,-1.1l9.3,-4.2q4.1,-1.75 -0.6,-4.4l-0.85,-0.45q1.6,-0.05 3.5,-0.9l5.75,-2.6q1.1,-0.5 1.15,-1.05q0.05,-0.6 -1,-1.3q0.55,-0.55 0.6,-0.95l-0.3,-0.55l1.6,-0.85l1.45,-0.9q2.35,-1.4 1.45,-1.9l-0.35,-0.2l-1.7,-0.85l-2.4,0.1q4.1,-2.75 8.35,-6.25q3.85,-3.2 7.2,-7.3l0.8,-0.55l-0.35,0.05l-0.1,0.05l0.3,-0.4l0.05,-0.05l-0.75,0.55l-2.9,0.85l-0.2,0.1q2.85,-2.9 5.5,-6.15l1.25,-0.9l-0.55,0.15l-0.1,0l0.4,-0.45l0.2,-0.25l-1.3,0.9q-6.15,1.45 -12.6,5.25l-10.05,6.4l-0.05,0.05l0.45,-1.5l0.3,-1.75l0.1,-1l0.05,-1.15l0,-0.2l1,-2.4l0.2,-1.05q-0.2,-0.45 -1.45,0.4l-0.7,0.55l-9.2,0.5l0,-0.05q0.3,-2.9 0.05,-6.3l1.05,-0.9l-0.35,-0.05l-0.85,-0.1l0,-0.1l-0.15,-1l0,0.05l-1,0.85z"/>
  </g>
  <g transform="matrix(1,0,0,1,4.5,2.3) " id="shape1">
   <path id="svg_4" fill-rule="evenodd" fill="#000000" d="m4.5,-2.3l-0.75,2.85l-8.25,1.8l4.85,-4.25l4.15,-0.4"/>
  </g>
  <g transform="matrix(1,0,0,1,3.25,2.45) " id="shape2">
   <path id="svg_5" fill-rule="evenodd" fill="#795200" d="m2.45,-0.05l-0.05,0.35q-0.85,1.8 -2.05,3l-0.05,-0.05q-2.15,-1.3 -3.05,-3.25q2.8,-4.85 5.2,-0.05"/>
   <path id="svg_6" stroke-linejoin="round" stroke-linecap="round" stroke="#312c11" fill="none" d="m2.45,-0.05l-0.05,0.35q-0.85,1.8 -2.05,3l-0.05,-0.05q-2.15,-1.3 -3.05,-3.25"/>
  </g>
  <g transform="matrix(1,0,0,1,1.3,8.8) " id="shape3">
   <path id="svg_7" fill-rule="evenodd" fill="#554d1e" d="m9.2,-4.65l-1.3,-3.75l1.45,-0.4l1.8,3.3l1.5,-0.25l1.85,-2.95l1,0.65l-0.95,2.95l4.15,2.15l-0.5,1.65l-3.05,-0.7q-8.3,4.55 -16.45,5.25l0.8,-7.05q4.05,2 8.9,1.6l0.8,-2.45"/>
  </g>
  <g transform="matrix(1,0,0,1,4.8,39.85) " id="sprite0">
   <use id="svg_8" xlink:href="#shape4" width="10.55" transform="matrix(1,0,0,1,-4.8,-39.85) " height="44.6"/>
  </g>
  <g transform="matrix(1,0,0,1,4.8,39.85) " id="shape4">
   <path id="svg_9" fill-rule="evenodd" fill="#996600" d="m-0.4,3.85l-0.3,-0.1q-3.05,-1.05 -3.6,-3.45l0.75,-19.95l0.2,-2.6q1.65,2.9 5.25,2.4q-0.1,18.55 -1.95,21.75l-0.3,0.45l-0.05,1.5m0.35,-1.95q-1.85,-1.45 -2.8,-1.55q0.95,0.1 2.8,1.55"/>
   <path id="svg_10" fill-rule="evenodd" fill="#795200" d="m-2.05,-39.35q1.25,-0.6 3.3,0.8l0.75,0.6q2.35,1.7 2.6,4.75l0.1,12.8l0.2,9.05l0.35,11.65q0.25,4.75 -4.7,3.8l-0.2,-0.05l-0.75,-0.2l0.05,-1.5l0.3,-0.45l0.5,0.4l0.55,0.45l-0.55,-0.45l-0.5,-0.4q1.85,-3.2 1.95,-21.75q-3.6,0.5 -5.25,-2.4l0,-0.25l1.3,-16.85"/>
   <path id="svg_11" stroke-linejoin="round" stroke-linecap="round" stroke="#554d1e" fill="none" d="m-4.3,0.3l0.75,-19.95l0.2,-2.6l0,-0.25l1.3,-16.85"/>
   <path id="svg_12" stroke-linejoin="round" stroke-linecap="round" stroke="#312c11" fill="none" d="m4.6,-33.2l0.1,12.8l0.2,9.05l0.35,11.65q0.25,4.75 -4.7,3.8l-0.2,-0.05l-0.75,-0.2l-0.3,-0.1q-3.05,-1.05 -3.6,-3.45"/>
   <path id="svg_13" stroke-linejoin="round" stroke-linecap="round" stroke="#312c11" fill="none" d="m-0.05,1.9l0.5,0.4l0.55,0.45m-3.85,-2.4q0.95,0.1 2.8,1.55"/>
   <path id="svg_14" stroke-opacity="0.8" stroke-linejoin="round" stroke-linecap="round" stroke="#000000" fill="none" d="m-3.8,-15.65q1.5,-1.3 1.85,0.3"/>
  </g>
  <g transform="matrix(1,0,0,1,0.5,0.5) " id="sprite1">
   <use id="svg_15" xlink:href="#shape5" width="6.8" transform="matrix(1,0,0,1,-0.5,-0.5) " height="3.7"/>
  </g>
  <g transform="matrix(1,0,0,1,0.5,0.5) " id="shape5">
   <path id="svg_16" stroke-opacity="0.8" stroke-linejoin="round" stroke-linecap="round" stroke="#000000" fill="none" d="m0,0.6q1.5,-1.3 1.85,0.3m3.95,1.8q-1.45,-2 -2.85,-0.8"/>
  </g>
  <g transform="matrix(1,0,0,1,28,34.8) " id="shape6">
   <path id="svg_17" fill-rule="evenodd" fill="#002b00" d="m4.85,-30.2q2.15,1.75 2.75,3.85l0.3,1.25l0.25,-0.2q1.05,-0.85 2.7,-1.05l0.15,-0.2l0.05,0.2l0.15,-0.05l-0.15,0.2q0.2,1.6 -0.35,2.8l2.45,-1.05q1.45,-0.6 1.1,0.75l-0.8,3.15q-0.45,1.8 -1.55,2.45l-4.5,2.15l1.5,-0.05q1.05,-0.1 1.45,0.75l0.65,2.1l0.05,0.1l0.4,-0.35l1.75,-1.25l1.55,0.05l1.1,0.75l-2.1,-3.65q-0.45,-0.95 0.3,-2.5l1.25,-2.7q0.55,-1.2 1.25,-0.1l1.55,2.35q0.65,0.9 0.65,2q1.2,-1.9 3.1,-3.35q1.7,-1.3 4.35,-1.65l0.3,-0.35l0.05,0.3l0.3,-0.05l-0.3,0.35q0.3,2.6 -0.55,4.55q-0.95,2.15 -2.45,3.8l2.1,0.1l2.7,0.85q1.25,0.45 0.25,1.25l-2.4,1.85q-1.35,1.1 -2.4,0.9l-4.1,-1.05l0.95,0.85q0.7,0.55 0.5,1.45l-0.85,1.95q-0.55,1.1 -0.7,0.85l-0.95,-1q-0.8,-0.75 -0.95,-1.55q-0.2,-0.85 -0.3,-2.85l0,-0.75l-0.7,0.2l-2.9,0.45q-0.85,0.05 -1.75,-0.5l-0.9,-0.5l-0.15,0.35l-1.55,-0.05l-1,-0.1l-1.15,0.2l1.05,0.4l1.1,0.7q0.55,0.3 -0.15,0.3l-1.55,0.1l-1.4,-0.2q-0.45,-0.2 -1.8,-0.95l0.3,0.35q0.2,0.25 -0.1,0.45l-0.8,0.35l-0.55,0.1l-0.25,-0.4q-0.25,-0.35 -0.15,-0.55l0.5,-0.75l0.2,-0.2l-0.4,-0.05l-0.9,-0.2l-0.65,0.6q-0.75,0.6 -1.95,0.9l-1.6,0.35q-0.35,0.15 -0.05,-1.15l0.65,-2.2q0.4,-0.9 1.45,-1.05l1.55,-0.25l-4.55,-1.25q-1.1,-0.4 -1.5,-2.1l-0.15,-0.45q-0.4,0.25 -0.95,0.35l-0.95,0.25q-0.25,0.05 -0.05,-0.7l0.4,-1.35q0.25,-0.6 0.9,-0.65l0.1,-0.05l-0.1,-0.35l-1.85,-0.55q-0.65,-0.25 -0.9,-1.25l-0.5,-1.85q-0.25,-0.8 0.65,-0.6l1.9,0.4q0.75,0.15 1.25,0.65q-0.15,-1.45 0.25,-2.95q0.35,-1.35 1.7,-2.7l0,-0.3l0.15,0.15l0.15,-0.15l0,0.25q1.3,1.05 1.7,2.35q0.4,1.45 0.3,2.85l1.2,-0.85l0.9,-0.4q0.7,-1.8 2.45,-3.6l0,-0.45l0.3,0.2l0.25,-0.25l0,0.45m13.05,17.65l-0.05,-0.05l-0.1,0.1l0,0.05l0.05,0l0.1,-0.1m-16.8,-8.85l0,-1.2l-1.6,0.75l0.3,0.1l0.45,-0.05q0.6,-0.05 0.85,0.4m3.5,5.75l0,-0.05l0,-0.1l-0.05,0l0,0.1l0.05,0.05m-1.3,2.65l-0.1,-0.4l-0.15,0.15l0.25,0.25m2.55,-0.8l-0.1,0.15l0.2,-0.05l-0.1,-0.1m-1.9,1.5l0.05,0l0.05,0l-0.05,-0.05l-0.05,0.05"/>
   <path id="svg_18" stroke-width="2" stroke-linejoin="round" stroke-linecap="round" stroke="#215e16" fill="none" d="m4.85,-30.2q2.15,1.75 2.75,3.85l0.3,1.25l0.25,-0.2q1.05,-0.85 2.7,-1.05l0.15,-0.2l0.05,0.2l0.15,-0.05l-0.15,0.2q0.2,1.6 -0.35,2.8l2.45,-1.05q1.45,-0.6 1.1,0.75l-0.8,3.15q-0.45,1.8 -1.55,2.45l-4.5,2.15l1.5,-0.05q1.05,-0.1 1.45,0.75l0.65,2.1l0.05,0.1l0.4,-0.35l1.75,-1.25l1.55,0.05l1.1,0.75l-2.1,-3.65q-0.45,-0.95 0.3,-2.5l1.25,-2.7q0.55,-1.2 1.25,-0.1l1.55,2.35q0.65,0.9 0.65,2q1.2,-1.9 3.1,-3.35q1.7,-1.3 4.35,-1.65l0.3,-0.35l0.05,0.3l0.3,-0.05l-0.3,0.35q0.3,2.6 -0.55,4.55q-0.95,2.15 -2.45,3.8l2.1,0.1l2.7,0.85q1.25,0.45 0.25,1.25l-2.4,1.85q-1.35,1.1 -2.4,0.9l-4.1,-1.05l0.95,0.85q0.7,0.55 0.5,1.45l-0.85,1.95q-0.55,1.1 -0.7,0.85l-0.95,-1q-0.8,-0.75 -0.95,-1.55q-0.2,-0.85 -0.3,-2.85l0,-0.75l-0.7,0.2l-2.9,0.45q-0.85,0.05 -1.75,-0.5l-0.9,-0.5l-0.15,0.35l-1.55,-0.05l-1,-0.1l-1.15,0.2l1.05,0.4l1.1,0.7q0.55,0.3 -0.15,0.3l-1.55,0.1l-1.4,-0.2q-0.45,-0.2 -1.8,-0.95l0.3,0.35q0.2,0.25 -0.1,0.45l-0.8,0.35l-0.55,0.1l-0.25,-0.4q-0.25,-0.35 -0.15,-0.55l0.5,-0.75l0.2,-0.2l-0.4,-0.05l-0.9,-0.2l-0.65,0.6q-0.75,0.6 -1.95,0.9l-1.6,0.35q-0.35,0.15 -0.05,-1.15l0.65,-2.2q0.4,-0.9 1.45,-1.05l1.55,-0.25l-4.55,-1.25q-1.1,-0.4 -1.5,-2.1l-0.15,-0.45q-0.4,0.25 -0.95,0.35l-0.95,0.25q-0.25,0.05 -0.05,-0.7l0.4,-1.35q0.25,-0.6 0.9,-0.65l0.1,-0.05l-0.1,-0.35l-1.85,-0.55q-0.65,-0.25 -0.9,-1.25l-0.5,-1.85q-0.25,-0.8 0.65,-0.6l1.9,0.4q0.75,0.15 1.25,0.65q-0.15,-1.45 0.25,-2.95q0.35,-1.35 1.7,-2.7l0,-0.3l0.15,0.15l0.15,-0.15l0,0.25q1.3,1.05 1.7,2.35q0.4,1.45 0.3,2.85l1.2,-0.85l0.9,-0.4q0.7,-1.8 2.45,-3.6l0,-0.45l0.3,0.2l0.25,-0.25l0,0.45m13.05,17.65l-0.05,-0.05l-0.1,0.1l0,0.05l0.05,0l0.1,-0.1m-16.8,-8.85l0,-1.2l-1.6,0.75l0.3,0.1l0.45,-0.05q0.6,-0.05 0.85,0.4m3.5,5.75l0,-0.05l0,-0.1l-0.05,0l0,0.1l0.05,0.05m-1.3,2.65l-0.1,-0.4l-0.15,0.15l0.25,0.25m2.55,-0.8l-0.1,0.15l0.2,-0.05l-0.1,-0.1m-1.9,1.5l0.05,-0.05l0.05,0.05l-0.05,0l-0.05,0m-30.95,10.2l0.7,-0.5l2.35,-0.75l0.15,-0.05l0.05,-2.35l0.15,-0.6l-0.05,-0.2q-0.45,-1.55 0.25,-3.7l-0.2,-0.3l0.25,0.05l0.1,-0.25l0.15,0.25l0.75,0.15l-0.25,-0.15q-0.85,-0.5 -1.4,-1.7l-0.2,-0.05l0.15,-0.1l-0.4,-0.35q-0.95,-0.85 0.5,-1.35l2.95,-0.95q-0.45,-1.2 -0.5,-2.25l-0.2,-0.3l0.15,0.15l0,-0.15l0.15,0.3l1.6,1.95l0.05,0l0,-0.2q0,-0.7 0.5,-0.35l0.35,0.2q-1.05,-1.6 -1.55,-3.6q-0.55,-2.1 0.3,-4.9l-0.2,-0.35l0.3,0l0.15,-0.3l0.2,0.35l1.85,0.35q-0.2,-1.15 0.3,-2.65l-0.15,-0.25l0.05,0q-0.35,-0.65 0.25,-0.3l0.7,0.45l1.55,0.55l-1.45,-3.2q-0.8,-2.05 -0.95,-3.9l-0.2,-0.4l0.15,0.2l0,-0.2l0.2,0.4l1.55,1.9l-0.15,-0.9l-0.1,-0.25l0.1,0.15l0,-0.15l0.15,0.25l1.8,2.45l1.45,2.75l0.1,-0.7l0.35,-0.55q0.2,-0.25 0.5,0.55l0.4,0.95q0.15,-0.2 0.4,0.15q0.5,-0.5 0.65,0.2l0.5,1.75l0.1,1l0.05,0.05l0.15,-0.2q1,-1.2 1.3,0.1l0.85,2.85q0.45,1.65 -0.2,2.7l-0.25,0.4l0.85,1.4l0.55,1.1l-0.7,-0.25l-1,-0.7l-0.45,-0.5l-2,2.55l1.35,-0.8l1.65,-0.15l1.65,1.3l0.1,0.1l0.85,-0.95l0,-0.3l0.2,0.15l0.15,-0.2l0,0.35q1.65,1.3 2.15,2.9q0.5,1.75 0.35,3.55q0.55,-0.75 1.5,-1.1l2.35,-1q1.1,-0.45 0.85,0.55l-0.65,2.4q-0.35,1.35 -1.15,1.85l-2.1,1.05l0.5,-0.2l1,-0.15l1.85,0.1l0.3,0.05l-0.15,-0.35q-0.35,-0.7 0.2,-1.9l1,-2.05l0.9,-0.05l1.2,1.75q0.5,0.7 0.5,1.5q0.9,-1.4 2.35,-2.5q1.25,-1 3.3,-1.25l0.2,-0.25l0.05,0.2l0.2,0l-0.2,0.25q0.25,1.95 -0.4,3.45q-0.75,1.6 -1.9,2.85l1.6,0.1l1.2,0.4l0.4,0.1l0.45,0.15l0.45,0.25l-0.25,-1.6q-0.05,-0.5 1.15,-0.9l1.95,-0.8q0.85,-0.35 1.05,0.35l0.4,1.35q0.15,0.55 -0.2,1l3.7,-0.5l4.1,0.55l0.35,-0.05l-0.1,0.15l0.25,0.05l-0.3,0.05q-0.7,1.15 -2.1,1.7q-1.6,0.6 -3.35,0.85q0.9,0.15 1.65,0.65l1.85,1.1q0.85,0.5 -0.25,0.55l-2.55,0.1l-2.25,-0.25l-2.95,-1.6l0.5,0.65q0.35,0.4 -0.15,0.7l-1.35,0.55l-0.9,0.15l-0.4,-0.65q-0.35,-0.55 -0.2,-0.9l0.8,-1.25l0.25,-0.3l-0.65,-0.1l-1.1,-0.3l-1,0.8q-1.05,0.8 -1.8,0.7l-3.15,-0.8l0.7,0.65q0.55,0.4 0.4,1.1l-0.65,1.45l-0.5,0.65l-0.75,-0.75q-0.6,-0.55 -0.7,-1.15l-0.25,-2.2l0,-0.55l-0.5,0.15l-2.25,0.35l-1.3,-0.4l-0.7,-0.35l-0.1,0.2l-1.2,-0.05l-1.5,-0.35l-1.8,-1.5l-0.35,-0.4l-0.4,0.5l-1.5,1.6l-0.25,0.25q-0.6,0.5 -1.5,0.7l-1.2,0.3q-0.3,0.1 -0.05,-0.9l0.5,-1.65q0.3,-0.7 1.1,-0.8l1.15,-0.25l-3.4,-0.9q-0.85,-0.3 -1.15,-1.6l-0.65,-2.25q-0.3,-0.95 0.8,-0.75l2.4,0.5q0.95,0.15 1.5,0.75q-0.15,-1.75 0.35,-3.6l0.3,-0.9l-0.1,0.1q-1.1,0.55 -2,0.55l-3.05,-0.4l-0.7,-0.2l-0.15,0.8l-0.9,3.1l-0.15,0.3l0.05,0.2q0.35,1.25 -0.15,2.05l-0.2,0.3l0.6,1.05l0.4,0.85l-0.5,-0.2l-0.75,-0.5l-0.35,-0.4l-1.15,1.5l0.25,0.1l0.45,-0.3l1.25,-0.1l1.25,1q0.65,0.6 0.4,0.75l-1.1,0.55q-0.85,0.45 -1.55,0.45l-1.35,-0.15l-0.05,0q-0.4,0.85 -0.95,1.35l-1.05,0.7l-0.25,0.6l-0.85,1.15m20.5,-6.8l-0.95,0.05l-1.15,-0.4l-0.55,-0.25l-1.1,0.5l1.15,-0.05q0.8,-0.05 1.1,0.6l0.5,1.55l0.05,0.15l0.3,-0.3l0.4,-0.3q-0.25,-0.3 -0.15,-0.5l1,-1.25l-0.6,0.2m4.2,2.6l0.05,-0.05l-0.05,-0.05l-0.05,0.05l0,0.05l0.05,0m8.5,-0.5l0,0.15l-0.05,-0.1l0.05,-0.05m1.1,1.25l0.05,0l0.05,0l-0.1,0.05l-0.05,-0.05l0.05,0m-3.25,6.7l-0.25,0.05q-0.55,0.9 -1.6,1.3l-2.5,0.65q0.65,0.1 1.25,0.5l1.4,0.85q0.65,0.35 -0.2,0.4l-1.95,0.1l-1.7,-0.25l-2.2,-1.2l0.35,0.5q0.25,0.3 -0.1,0.55l-1.05,0.4l-0.65,0.1l-0.35,-0.5q-0.25,-0.4 -0.15,-0.65l0.6,-0.95l0.25,-0.25l-0.5,-0.05l-1.9,-0.5l-0.95,-0.55l-0.45,-0.35q0.1,-0.2 0.55,-0.25l1.4,0q0.6,0 0.9,0.35l0.5,0.45l-0.3,-1.6q-0.05,-0.4 0.85,-0.7l1.5,-0.55q0.6,-0.25 0.8,0.25l0.3,1.05l-0.15,0.7l2.8,-0.35l3.15,0.4l0.2,-0.05l-0.05,0.1l0.2,0.05m-8.5,1.55l0.05,-0.05l0,0.05l-0.05,0m-23.9,-17.45l-0.1,-0.05l0.1,0.05m8,-9.6l0,0.15l-0.1,-0.15l0.1,0m-0.2,6.6l-0.1,-0.05l0.1,-0.05l0.05,0.05l0,0.05l-0.05,0m-4.7,5.55l-0.2,0.7l-0.95,-1.55l1.15,0.85m2.35,-3.85l-0.6,0.15l0.1,0.25l0.5,-0.4m10.5,7.25l0.05,0l0,-0.1l-0.05,0l0,0.1"/>
  </g>
  <g transform="matrix(1,0,0,1,6.35,24.05) " id="shape7">
   <path id="svg_19" fill-rule="evenodd" fill="#528720" d="m0.45,-23.8l0.15,0.15l-0.15,-0.15l0.15,-0.15l0,0.3q1.5,1.35 1.95,2.85q0.45,1.65 0.3,3.25l-0.3,0.4l-1.75,2.75l-0.35,0.65l-0.05,0l-0.35,-0.65l-1.7,-2.75l-0.3,-0.4q-0.15,-1.6 0.3,-3.25q0.4,-1.5 1.9,-2.85l0,-0.3l0.2,0.15m1.95,10.2l1,0.05q0.75,0 1.05,0.65l0.45,1.45q0.2,0.85 -0.05,0.8l-1.05,-0.15q-0.9,-0.1 -1.4,-0.45l-1.6,-1.55l-0.35,-0.4q-0.2,-0.35 0,-0.45l0.75,-0.05l1.2,0.1"/>
   <path id="svg_20" fill-rule="evenodd" fill="#4e7e20" d="m-1.95,-17.55l0.3,0.4l1.7,2.75l0.35,0.65l0,0.1l0.05,0q-0.2,0.1 0,0.45l-0.35,0.4l-1.6,1.55q-0.55,0.35 -1.35,0.45l-1.1,0.15q-0.3,0.05 -0.05,-0.8l0.45,-1.45q0.25,-0.65 1,-0.65l1.05,-0.05l-3.1,-1.2q-0.75,-0.35 -1.05,-1.55l-0.55,-2.1q-0.3,-0.95 0.7,-0.6l2.15,0.65q0.9,0.25 1.4,0.85m0.45,3.95l1.2,-0.1l0.7,0.05l-0.7,-0.05l-1.2,0.1"/>
   <path id="svg_21" fill-rule="evenodd" fill="#5c8f26" d="m0.45,-13.75l0.35,-0.65l1.75,-2.75l0.3,-0.4q0.5,-0.6 1.4,-0.85l2.1,-0.65q1,-0.35 0.8,0.6l-0.6,2.1q-0.3,1.2 -1.05,1.55l-3.1,1.2l-1.2,-0.1l-0.75,0.05l0,-0.1"/>
   <path id="svg_22" stroke-width="0.25" stroke-opacity="0.941176" stroke-linejoin="round" stroke-linecap="round" stroke="#356c19" fill="none" d="m0.6,-23.65l-0.15,-0.15l-0.2,-0.15l0,0.3q-1.5,1.35 -1.9,2.85q-0.45,1.65 -0.3,3.25l0.3,0.4l1.7,2.75l0.35,0.65l0.05,0l0.35,-0.65l1.75,-2.75l0.3,-0.4q0.15,-1.6 -0.3,-3.25q-0.45,-1.5 -1.95,-2.85m0,-0.3l-0.15,0.15m2.4,6.25q0.5,-0.6 1.4,-0.85l2.1,-0.65q1,-0.35 0.8,0.6l-0.6,2.1q-0.3,1.2 -1.05,1.55l-3.1,1.2l1,0.05q0.75,0 1.05,0.65l0.45,1.45q0.2,0.85 -0.05,0.8l-1.05,-0.15q-0.9,-0.1 -1.4,-0.45l-1.6,-1.55l-0.35,-0.4l-0.35,0.4l-1.6,1.55q-0.55,0.35 -1.35,0.45l-1.1,0.15q-0.3,0.05 -0.05,-0.8l0.45,-1.45q0.25,-0.65 1,-0.65l1.05,-0.05l-3.1,-1.2q-0.75,-0.35 -1.05,-1.55l-0.55,-2.1q-0.3,-0.95 0.7,-0.6l2.15,0.65q0.9,0.25 1.4,0.85m2.4,4.35q-0.2,-0.35 0,-0.45l-0.05,0l-0.7,-0.05l-1.2,0.1m1.95,-0.05l0,-0.1m-0.05,0l0,0.1m0.05,0l0.75,-0.05l1.2,0.1"/>
  </g>
  <g id="sprite2">
   <use id="svg_23" xlink:href="#shape8" width="102.95" height="45"/>
  </g>
  <g id="shape8">
   <path id="svg_24" fill-rule="evenodd" fill-opacity="0" fill="#ff00ff" d="m0,0l102.95,0l0,45l-102.95,0l0,-45"/>
  </g>
 </defs>
 <g>
  <title>background</title>
  <rect fill="none" id="canvas_background" height="297" width="226" y="-1" x="-1"/>
 </g>
 <g>
  <title>Layer 1</title>
  <g id="svg_25">
   <use x="135.050003" y="290.316254" id="svg_26" xlink:href="#shape0" width="381" transform="matrix(1,0,0,1,-192.55,-294) " height="381"/>
   <use x="0" y="0" id="svg_27" xlink:href="#shape1" width="9" transform="matrix(-2.2674,-0.8921,-4.7603,2.0625,129.05220305175786,276.7369536621095) " height="4.65"/>
   <use x="-66.354445" y="116.223346" id="svg_28" xlink:href="#shape1" width="9" transform="matrix(-2.253,1.1045,-0.1243,3.1285,7.0744,-38.1159) " height="4.65"/>
   <use x="29.747093" y="89.443372" id="svg_29" xlink:href="#shape2" width="6.2" transform="matrix(-2.4704,2.3315,2.3315,2.4704,-8.6833,-52.1299) " height="6.25"/>
   <use x="-99.033681" y="-188.671227" id="svg_30" xlink:href="#shape3" width="20" transform="matrix(0.9118,-1.1944,-1.1944,-0.9118,-3.9745,-67.0737) " height="12.05"/>
   <use x="-39.691404" y="85.324395" id="svg_31" xlink:href="#sprite0" width="10.55" transform="matrix(-3.4025,0,0,3.4025,-2.6682,-175.2877) " height="44.6"/>
   <use x="0" y="0" id="svg_32" xlink:href="#shape3" width="20" transform="matrix(-1.4293,0.47350000000000003,-0.47350000000000003,-1.4293,106.72530305175778,231.77885366210938) " height="12.05"/>
   <use x="-39.691404" y="85.324395" id="svg_33" xlink:href="#sprite1" width="6.8" transform="matrix(-3.4025,0,0,3.4025,-5.3988,-97.7012) " height="3.7"/>
   <use x="-30.775219" y="84.658925" id="svg_34" xlink:href="#shape6" width="58.05" transform="matrix(2.01,-2.6561,2.3259,2.4637,-152.3235,-164.2642) " height="45.9"/>
   <use x="0" y="0" id="svg_35" xlink:href="#shape7" width="13.65" transform="matrix(-0.3127000000000001,3.266300000000002,2.5122000000000004,0.5838000000000001,23.56710305175784,95.18585366210937) " height="13.5"/>
   <use x="-187.723057" y="138.466848" id="svg_36" xlink:href="#shape7" width="13.65" transform="matrix(-1.4852,-0.0215,-1.0382,2.0675,-14.9013,-215.1367) " height="13.5"/>
   <use x="-34.68664" y="91.671257" id="svg_37" xlink:href="#shape7" width="13.65" transform="matrix(1.5606,-2.5927,2.0637,2.1859,-102.0922,-204.8078) " height="13.5"/>
   <use x="-22.437773" y="-11.111605" id="svg_38" xlink:href="#shape7" width="13.65" transform="matrix(2.2978999999999994,-0.48119999999999996,0.48959999999999987,3.041599999999999,122.18420305175782,68.77155366210931) " height="13.5"/>
   <use x="3.383524" y="-21.298864" id="svg_39" xlink:href="#shape7" width="13.65" transform="matrix(0.683,-0.798,2.7846999999999995,0.9530999999999998,63.792003051757774,127.91205366210937) " height="13.5"/>
   <use x="62.622189" y="51.204537" id="svg_40" xlink:href="#shape7" width="13.65" transform="matrix(-0.3872,4.0449,3.111,0.7229,-84.6616,-144.321) " height="13.5"/>
   <use x="0" y="0" id="svg_41" xlink:href="#shape7" width="13.65" transform="matrix(-1.8391999999999993,-0.02669999999999999,-1.2855999999999996,2.560399999999999,169.94830305175782,121.30885366210931) " height="13.5"/>
   <use x="-28.009971" y="74.023583" id="svg_42" xlink:href="#shape7" width="13.65" transform="matrix(1.9326,-3.2108,2.5557,2.707,-73.0856,-156.3149) " height="13.5"/>
   <use x="30.02479" y="81.826588" id="svg_43" xlink:href="#shape7" width="13.65" transform="matrix(2.8456,-0.5959,0.6063,3.7666,-33.201,-205.5538) " height="13.5"/>
   <use x="2.731534" y="-17.199377" id="svg_44" xlink:href="#shape7" width="13.65" transform="matrix(0.8457999999999999,-0.9882999999999998,3.4484,1.1803,86.6444030517578,181.10655366210938) " height="13.5"/>
   <use x="47.541411" y="38.873783" id="svg_45" xlink:href="#shape7" width="13.65" transform="matrix(-0.5101,5.328,4.0979,0.9522,-109.8146,-196.3835) " height="13.5"/>
   <use x="-115.078698" y="84.882278" id="svg_46" xlink:href="#shape7" width="13.65" transform="matrix(-2.4226,-0.0352,-1.6934,3.3725,47.6606,-228.9353) " height="13.5"/>
   <use x="-5.396849" y="-12.851433" id="svg_47" xlink:href="#shape7" width="13.65" transform="matrix(2.5455999999999994,-4.229199999999999,3.3662999999999994,3.5656999999999996,97.42550305175781,101.16745366210938) " height="13.5"/>
   <use x="-13.755921" y="-6.811993" id="svg_48" xlink:href="#shape7" width="13.65" transform="matrix(3.7481999999999998,-0.7848999999999999,0.7986,4.9614,150.04200305175777,36.278653662109434) " height="13.5"/>
   <use x="-145.035904" y="65.304913" id="svg_49" xlink:href="#shape7" width="13.65" transform="matrix(1.1141,-1.3017,4.5423,1.5546,-137.2161,-180.4232) " height="13.5"/>
   <use x="-9.545722" y="15.139821" id="svg_50" xlink:href="#shape6" width="58.05" transform="matrix(0.6459999999999999,3.2333999999999996,-3.357600000000001,0.5195000000000001,265.6558030517578,31.552553662109403) " height="45.9"/>
   <use x="0" y="0" id="svg_51" xlink:href="#shape7" width="13.65" transform="matrix(-2.215699999999999,-2.163199999999999,-2.0865,1.7698,204.5995030517578,60.8392536621093) " height="13.5"/>
   <use x="-31.7432" y="29.974048" id="svg_52" xlink:href="#shape7" width="13.65" transform="matrix(0.9935999999999998,-1.2345999999999997,-0.8493999999999998,-2.0747999999999998,212.8676030517578,176.45505366210932) " height="13.5"/>
   <use x="-10.758406" y="15.901548" id="svg_53" xlink:href="#shape7" width="13.65" transform="matrix(0.8948999999999999,2.8190999999999997,-2.9790999999999994,0.4608999999999999,262.61420305175784,97.22965366210931) " height="13.5"/>
   <use x="0" y="0" id="svg_54" xlink:href="#shape7" width="13.65" transform="matrix(-1.1558999999999995,2.209499999999999,-2.5772,-1.3588,213.9215030517578,124.41485366210938) " height="13.5"/>
   <use x="0" y="0" id="svg_55" xlink:href="#shape7" width="13.65" transform="matrix(0.14199999999999996,1.0378999999999998,-2.5396000000000005,1.7837000000000005,208.37670305175783,41.02825366210937) " height="13.5"/>
   <use x="14.251641" y="6.925547" id="svg_56" xlink:href="#shape7" width="13.65" transform="matrix(-2.7438999999999996,-2.6788999999999996,-2.5838999999999994,2.1916999999999995,206.36530305175782,76.76725366210931) " height="13.5"/>
   <use x="0" y="0" id="svg_57" xlink:href="#shape7" width="13.65" transform="matrix(1.2305,-1.5289000000000001,-1.0518,-2.5694,88.98340305175788,168.51885366210942) " height="13.5"/>
   <use x="84.970951" y="-11.082401" id="svg_58" xlink:href="#shape7" width="13.65" transform="matrix(1.1082,3.4911,-3.6892,0.5708,15.5885,-219.8965) " height="13.5"/>
   <use x="62.767709" y="-70.464877" id="svg_59" xlink:href="#shape7" width="13.65" transform="matrix(-1.4314,2.7362,-3.1916,-1.6827,25.7966,-157.7065) " height="13.5"/>
   <use x="-44.741734" y="15.621599" id="svg_60" xlink:href="#shape7" width="13.65" transform="matrix(0.1759,1.2853,-3.1449999999999996,2.2088999999999994,211.07060305175776,52.28155366210939) " height="13.5"/>
   <use x="-61.397042" y="25.518948" id="svg_61" xlink:href="#shape7" width="13.65" transform="matrix(-3.6142,-3.5286,-3.4034,2.8869,69.4527,-227.3722) " height="13.5"/>
   <use x="-19.460241" y="18.375202" id="svg_62" xlink:href="#shape7" width="13.65" transform="matrix(1.6207999999999998,-2.0137999999999994,-1.3855,-3.3844,181.9785030517578,237.09865366210943) " height="13.5"/>
   <use x="64.508408" y="-8.414018" id="svg_63" xlink:href="#shape7" width="13.65" transform="matrix(1.4597,4.5985,-4.8594,0.7518,71.1498,-205.4824) " height="13.5"/>
   <use x="1.533608" y="12.870996" id="svg_64" xlink:href="#shape7" width="13.65" transform="matrix(-1.8854999999999997,3.6040999999999994,-4.203899999999999,-2.2163999999999997,276.62590305175775,189.73525366210936) " height="13.5"/>
   <use x="207.563121" y="-20.996086" id="svg_65" xlink:href="#shape7" width="13.65" transform="matrix(0.2316,1.693,-4.1426,2.9095,75.6084,-259.6739) " height="13.5"/>
   <use x="-39.691404" y="85.324395" id="svg_66" xlink:href="#shape2" width="6.2" transform="matrix(-3.4025,0,0,3.4025,-15.942,-37.986) " height="6.25"/>
   <use x="-31.540505" y="-13.907365" xlink:href="#sprite2" width="102.95" transform="matrix(1.8072000000000004,0,0,1.6538,81.00000305175782,165.11625366210944) " id="_mcMask" height="45"/>
  </g>
 </g>
</svg>