<svg width="164" height="265" xmlns="http://www.w3.org/2000/svg" xmlns:xlink="http://www.w3.org/1999/xlink">
 <defs>
  <g transform="matrix(1,0,0,1,192.55,294) " id="shape0">
   <path id="svg_1" stroke-opacity="0" stroke-linejoin="round" stroke-linecap="round" stroke="#ff00ff" fill="none" d="m187.95,-293.5l0,380l-379.95,0l-0.05,0l0,-380l380,0m-95,294.1l-189.95,0"/>
   <path id="svg_2" stroke-opacity="0" stroke-linejoin="round" stroke-linecap="round" stroke="#ff00ff" fill="none" d="m187.95,-293.5l-190,190l190,190m-380,-380l190,190l-189.95,190"/>
  </g>
  <g transform="matrix(1,0,0,1,4.5,2.3) " id="shape1">
   <path id="svg_3" fill-rule="evenodd" fill="#000000" d="m4.5,-2.3l-0.75,2.85l-8.25,1.8l4.85,-4.25l4.15,-0.4"/>
  </g>
  <g transform="matrix(1,0,0,1,3.25,2.45) " id="shape2">
   <path id="svg_4" fill-rule="evenodd" fill="#795200" d="m2.45,-0.05l-0.05,0.35q-0.85,1.8 -2.05,3l-0.05,-0.05q-2.15,-1.3 -3.05,-3.25q2.8,-4.85 5.2,-0.05"/>
   <path id="svg_5" stroke-linejoin="round" stroke-linecap="round" stroke="#312c11" fill="none" d="m2.45,-0.05l-0.05,0.35q-0.85,1.8 -2.05,3l-0.05,-0.05q-2.15,-1.3 -3.05,-3.25"/>
  </g>
  <g transform="matrix(1,0,0,1,1.3,8.8) " id="shape3">
   <path id="svg_6" fill-rule="evenodd" fill="#554d1e" d="m9.2,-4.65l-1.3,-3.75l1.45,-0.4l1.8,3.3l1.5,-0.25l1.85,-2.95l1,0.65l-0.95,2.95l4.15,2.15l-0.5,1.65l-3.05,-0.7q-8.3,4.55 -16.45,5.25l0.8,-7.05q4.05,2 8.9,1.6l0.8,-2.45"/>
  </g>
  <g transform="matrix(1,0,0,1,4.8,39.85) " id="sprite0">
   <use id="svg_7" xlink:href="#shape4" width="10.55" transform="matrix(1,0,0,1,-4.8,-39.85) " height="44.6"/>
  </g>
  <g transform="matrix(1,0,0,1,4.8,39.85) " id="shape4">
   <path id="svg_8" fill-rule="evenodd" fill="#996600" d="m-0.4,3.85l-0.3,-0.1q-3.05,-1.05 -3.6,-3.45l0.75,-19.95l0.2,-2.6q1.65,2.9 5.25,2.4q-0.1,18.55 -1.95,21.75l-0.3,0.45l-0.05,1.5m0.35,-1.95q-1.85,-1.45 -2.8,-1.55q0.95,0.1 2.8,1.55"/>
   <path id="svg_9" fill-rule="evenodd" fill="#795200" d="m4.6,-33.2l0.1,12.8l0.2,9.05l0.35,11.65q0.25,4.75 -4.7,3.8l-0.2,-0.05l-0.75,-0.2l0.05,-1.5l0.3,-0.45q1.85,-3.2 1.95,-21.75q-3.6,0.5 -5.25,-2.4l0,-0.25l1.3,-16.85q1.25,-0.6 3.3,0.8l0.75,0.6q2.35,1.7 2.6,4.75m-3.6,35.95l-0.55,-0.45l-0.5,-0.4l0.5,0.4l0.55,0.45"/>
   <path id="svg_10" stroke-linejoin="round" stroke-linecap="round" stroke="#554d1e" fill="none" d="m-4.3,0.3l0.75,-19.95l0.2,-2.6l0,-0.25l1.3,-16.85"/>
   <path id="svg_11" stroke-linejoin="round" stroke-linecap="round" stroke="#312c11" fill="none" d="m4.6,-33.2l0.1,12.8l0.2,9.05l0.35,11.65q0.25,4.75 -4.7,3.8l-0.2,-0.05l-0.75,-0.2l-0.3,-0.1q-3.05,-1.05 -3.6,-3.45"/>
   <path id="svg_12" stroke-linejoin="round" stroke-linecap="round" stroke="#312c11" fill="none" d="m-2.85,0.35q0.95,0.1 2.8,1.55l0.5,0.4l0.55,0.45"/>
   <path id="svg_13" stroke-opacity="0.8" stroke-linejoin="round" stroke-linecap="round" stroke="#000000" fill="none" d="m-3.8,-15.65q1.5,-1.3 1.85,0.3"/>
  </g>
  <g transform="matrix(1,0,0,1,0.5,0.5) " id="sprite1">
   <use id="svg_14" xlink:href="#shape5" width="6.8" transform="matrix(1,0,0,1,-0.5,-0.5) " height="3.7"/>
  </g>
  <g transform="matrix(1,0,0,1,0.5,0.5) " id="shape5">
   <path id="svg_15" stroke-opacity="0.8" stroke-linejoin="round" stroke-linecap="round" stroke="#000000" fill="none" d="m0,0.6q1.5,-1.3 1.85,0.3m3.95,1.8q-1.45,-2 -2.85,-0.8"/>
  </g>
  <g transform="matrix(1,0,0,1,28.3,36.05) " id="shape6">
   <path id="svg_16" fill-rule="evenodd" fill="#211a28" d="m-10.15,-12.45q1.3,-2 7.2,1.85l-4.1,2.4q5.05,2.5 6,10.05q-5.5,0.45 -8.7,-2.85q1.1,6.25 -3.45,11.95q-3.9,-6.6 -3.4,-11.9q-4.7,2.25 -10.3,1.65q1.85,-5.75 7.5,-8.3q-5.65,-0.35 -8.9,-4.65q4.35,-2.9 8.65,-1.1q0,-4.55 4.55,-6.7q4.05,1.75 4.95,7.6"/>
   <path id="svg_17" stroke-width="0.05" stroke-linejoin="round" stroke-linecap="round" stroke="#38243e" fill="none" d="m-10.15,-12.45q-0.9,-5.85 -4.95,-7.6q-4.55,2.15 -4.55,6.7q-4.3,-1.8 -8.65,1.1q3.25,4.3 8.9,4.65q-5.65,2.55 -7.5,8.3q5.6,0.6 10.3,-1.65q-0.5,5.3 3.4,11.9q4.55,-5.7 3.45,-11.95q3.2,3.3 8.7,2.85q-0.95,-7.55 -6,-10.05l4.1,-2.4q-5.9,-3.85 -7.2,-1.85z"/>
   <path id="svg_18" fill-rule="evenodd" fill="#542550" d="m-8.95,-3.25l10.55,3.95q1.5,2.85 -1.15,6.65q-2.8,-0.95 -3.35,-4.55q0.15,5.45 -4.95,9.05q-1.3,-4.75 0.35,-10.15l-2.85,2.95q-1.1,-5.5 1.4,-7.9"/>
   <path id="svg_19" stroke-width="0.05" stroke-linejoin="round" stroke-linecap="round" stroke="#38243e" fill="none" d="m-8.95,-3.25l10.55,3.95q1.5,2.85 -1.15,6.65q-2.8,-0.95 -3.35,-4.55q0.15,5.45 -4.95,9.05q-1.3,-4.75 0.35,-10.15l-2.85,2.95q-1.1,-5.5 1.4,-7.9z"/>
   <path id="svg_20" fill-rule="evenodd" fill="#70477c" d="m7.6,-4.7q9.6,6.05 13.35,3.75q2.1,-6.1 -6.2,-10.4q10.1,-0.95 10,-9.05q-3.75,-5.55 -9.4,-0.55q4.3,-6.75 3.6,-15.1q-5.5,4.2 -8.55,11.45q0.1,-4.8 -2.5,-7.15q-4.8,4.4 -5.35,10.45q-2.45,-2.45 -6.3,-0.25q1.15,8 6.35,13.2l5,3.65"/>
   <path id="svg_21" stroke-width="0.05" stroke-linejoin="round" stroke-linecap="round" stroke="#38243e" fill="none" d="m7.6,-4.7q9.6,6.05 13.35,3.75q2.1,-6.1 -6.2,-10.4q10.1,-0.95 10,-9.05q-3.75,-5.55 -9.4,-0.55q4.3,-6.75 3.6,-15.1q-5.5,4.2 -8.55,11.45q0.1,-4.8 -2.5,-7.15q-4.8,4.4 -5.35,10.45q-2.45,-2.45 -6.3,-0.25q1.15,8 6.35,13.2l5,3.65z"/>
   <path id="svg_22" fill-rule="evenodd" fill="#6d4277" d="m7.95,-10.4q4.75,-4.1 11.15,-0.4q-3.5,7.7 -10.3,7.75q2.6,1.75 2.4,6.35q-3.2,1.15 -4.95,-0.95q0.9,3.7 -2.25,5.45q-3.65,-2.6 -2.95,-6.95q-1.6,3.4 -8,1.65q0.25,-4.45 4.35,-7.45q-3.8,-0.95 -6.15,-5.05q4.35,-2 6.7,0.3q-1.1,-1.4 -1,-5.05l0.05,-0.4l0.55,0.1q4.05,0.15 5.7,3.85q-0.95,-4.6 2,-6.55q5.05,2.35 2.7,7.35"/>
   <path id="svg_23" stroke-width="0.05" stroke-linejoin="round" stroke-linecap="round" stroke="#38243e" fill="none" d="m7.95,-10.4q4.75,-4.1 11.15,-0.4q-3.5,7.7 -10.3,7.75q2.6,1.75 2.4,6.35q-3.2,1.15 -4.95,-0.95q0.9,3.7 -2.25,5.45q-3.65,-2.6 -2.95,-6.95q-1.6,3.4 -8,1.65q0.25,-4.45 4.35,-7.45q-3.8,-0.95 -6.15,-5.05q4.35,-2 6.7,0.3q-1.1,-1.4 -1,-5.05l0.05,-0.4l0.55,0.1q4.05,0.15 5.7,3.85q-0.95,-4.6 2,-6.55q5.05,2.35 2.7,7.35z"/>
   <path id="svg_24" fill-rule="evenodd" fill="#a25aa9" d="m-10.3,-23.8q-6.25,-3.75 -4.55,-12.25q9.8,0.95 12.35,8.6q1.05,-3.65 6.2,-4.95q2.45,3 0.75,5.8q3.8,-2.45 6.9,0.55q-1.5,4.9 -6.7,5.75q4.4,0.5 4.85,8.2q-5.05,1.45 -9.9,-2q0.35,4.45 -3.35,8.65q-3.85,-4.15 -2.1,-7.5q-1.2,1.7 -5.25,2.9l-0.45,0.15l-0.2,-0.7q-1.25,-4.6 2.25,-7.75q-4.7,2.75 -7.95,0.2q0.7,-6.5 7.15,-5.65"/>
  </g>
  <g transform="matrix(1,0,0,1,31.85,34.75) " id="shape7">
   <path id="svg_25" fill-rule="evenodd" fill="#211a28" d="m-6.35,5q1.9,-0.4 0.8,-5.85l-3.05,2.25q-0.4,-4.5 -5.7,-7.45q-1.95,3.95 -0.45,7.35q-4.4,-2.65 -9.95,-1.05q3.75,4.9 7.85,6.15q-3.1,2.75 -4.35,7.1q4.85,0.4 8.45,-3.1q-1.4,4.35 0.8,8.1q3.5,-2.45 3.4,-6.15q3.4,1.4 6.35,-1.35q-0.1,-3.6 -4.15,-6"/>
   <path id="svg_26" stroke-width="0.05" stroke-linejoin="round" stroke-linecap="round" stroke="#38243e" fill="none" d="m-6.35,5q4.05,2.4 4.15,6q-2.95,2.75 -6.35,1.35q0.1,3.7 -3.4,6.15q-2.2,-3.75 -0.8,-8.1q-3.6,3.5 -8.45,3.1q1.25,-4.35 4.35,-7.1q-4.1,-1.25 -7.85,-6.15q5.55,-1.6 9.95,1.05q-1.5,-3.4 0.45,-7.35q5.3,2.95 5.7,7.45l3.05,-2.25q1.1,5.45 -0.8,5.85z"/>
   <path id="svg_27" fill-rule="evenodd" fill="#492f5b" d="m-22.1,-12.3q-5.85,-3.05 -9.75,0.3q1.35,7.85 9.1,6.45q-7.35,4.95 -4.7,15.2q11.85,-1.9 14.45,-11.3q1.5,4.35 7.9,5.65q2.8,-3.8 0.55,-7.1q4.75,2.65 8.3,-1.15q-2.15,-5.95 -8.5,-6.6q5.35,-0.9 5.35,-10.25q-6.15,-1.4 -11.85,3.1q0.15,-5.55 -4.65,-10.35q-4.4,5.2 -2.1,9.3q-1.5,-2 -6.6,-3.2l-0.5,-0.15l-0.2,0.85q-1.25,5.55 3.2,9.25"/>
   <path id="svg_28" stroke-width="0.05" stroke-linejoin="round" stroke-linecap="round" stroke="#38243e" fill="none" d="m-22.1,-12.3q-5.85,-3.05 -9.75,0.3q1.35,7.85 9.1,6.45q-7.35,4.95 -4.7,15.2q11.85,-1.9 14.45,-11.3q1.5,4.35 7.9,5.65q2.8,-3.8 0.55,-7.1q4.75,2.65 8.3,-1.15q-2.15,-5.95 -8.5,-6.6q5.35,-0.9 5.35,-10.25q-6.15,-1.4 -11.85,3.1q0.15,-5.55 -4.65,-10.35q-4.4,5.2 -2.1,9.3q-1.5,-2 -6.6,-3.2l-0.5,-0.15l-0.2,0.85q-1.25,5.55 3.2,9.25z"/>
   <path id="svg_29" fill-rule="evenodd" fill="#3e304e" d="m-7.45,-23.3q-1.2,-7.95 -8.6,-11.45q-2.4,7.85 1.75,13.9q-6.7,-3.7 -11.2,-1.15q4.4,4.65 11.9,4.55q-8.4,2.1 -9.75,8.7l0.85,0.1q5.9,-1.05 10.05,-4.55q-0.15,4.4 3.2,5.9q3.55,-2 2.8,-6.85l-1,-9.15"/>
   <path id="svg_30" stroke-width="0.05" stroke-linejoin="round" stroke-linecap="round" stroke="#311e31" fill="none" d="m-7.45,-23.3q-1.2,-7.95 -8.6,-11.45q-2.4,7.85 1.75,13.9q-6.7,-3.7 -11.2,-1.15q4.4,4.65 11.9,4.55q-8.4,2.1 -9.75,8.7l0.85,0.1q5.9,-1.05 10.05,-4.55q-0.15,4.4 3.2,5.9q3.55,-2 2.8,-6.85l-1,-9.15z"/>
   <path id="svg_31" fill-rule="evenodd" fill="#5f4a79" d="m-4.2,1.55l0.3,-1.8q1.1,-6.55 -0.4,-8.95q-3.55,2.05 -3.55,4.25q-1.8,-3.85 -5.2,-4.1q-1.9,3.95 1.15,6.25q-4,-1.05 -6,0.45q1.35,3.25 3.8,2.55q-3.95,1.4 -3.55,5.2q4.05,1.35 7.05,-0.65q-2.25,2.5 0,4.9q3.8,-1.2 5.55,-5.6l0.75,-2.2l0.1,-0.3"/>
   <path id="svg_32" stroke-width="0.05" stroke-linejoin="round" stroke-linecap="round" stroke="#311e31" fill="none" d="m-4.2,1.55l-0.1,0.3l-0.75,2.2q-1.75,4.4 -5.55,5.6q-2.25,-2.4 0,-4.9q-3,2 -7.05,0.65q-0.4,-3.8 3.55,-5.2q-2.45,0.7 -3.8,-2.55q2,-1.5 6,-0.45q-3.05,-2.3 -1.15,-6.25q3.4,0.25 5.2,4.1q0,-2.2 3.55,-4.25q1.5,2.4 0.4,8.95l-0.3,1.8z"/>
  </g>
  <g transform="matrix(1,0,0,1,2.85,14.65) " id="shape8">
   <path id="svg_33" fill-rule="evenodd" fill="#211a28" d="m7.8,4.5q1.1,-0.5 2.5,2.7l-2.35,-0.05q1.45,2.45 -0.2,5.85q-2.45,-1.3 -2.85,-3.55q-1.3,2.95 -4.75,4.1q0.15,-3.85 1.8,-5.95q-2.6,-0.25 -4.8,-2.05q2.3,-1.95 5.45,-1.5q-2.35,-1.7 -2.55,-4.35q2.65,-0.05 3.95,1.9q1.2,-2 3.7,-1.7q1.3,1.9 0.1,4.6"/>
   <path id="svg_34" stroke-width="0.05" stroke-linejoin="round" stroke-linecap="round" stroke="#38243e" fill="none" d="m7.8,4.5q1.2,-2.7 -0.1,-4.6q-2.5,-0.3 -3.7,1.7q-1.3,-1.95 -3.95,-1.9q0.2,2.65 2.55,4.35q-3.15,-0.45 -5.45,1.5q2.2,1.8 4.8,2.05q-1.65,2.1 -1.8,5.95q3.45,-1.15 4.75,-4.1q0.4,2.25 2.85,3.55q1.65,-3.4 0.2,-5.85l2.35,0.05q-1.4,-3.2 -2.5,-2.7z"/>
   <path id="svg_35" fill-rule="evenodd" fill="#4e3049" d="m13.05,-6.05l-5.6,2.85q-6.35,-1.35 -7.85,-4.7q4.65,-2.85 8.35,0.05q-1.55,-4.25 0.15,-6.6q3.25,1.5 3.05,5.2q0.55,-4.1 3.55,-5.4q3.1,4.85 -1.65,8.6"/>
   <path id="svg_36" stroke-width="0.05" stroke-linejoin="round" stroke-linecap="round" stroke="#38243e" fill="none" d="m13.05,-6.05q4.75,-3.75 1.65,-8.6q-3,1.3 -3.55,5.4q0.2,-3.7 -3.05,-5.2q-1.7,2.35 -0.15,6.6q-3.7,-2.9 -8.35,-0.05q1.5,3.35 7.85,4.7l5.6,-2.85z"/>
   <path id="svg_37" fill-rule="evenodd" fill="#73336c" d="m2.5,1l4.85,0.2q-0.55,-2.1 0.95,-4.35q2.1,1.65 1.6,3.4q0.4,-0.9 2.25,-1.8l0.2,-0.05l0.15,0.3q0.95,2.05 -0.45,3.85q2,-1.7 3.75,-0.7q0.15,3.15 -2.95,3.25q3.25,1.3 3.1,5.5q-4.8,0.25 -6.6,-3.15q-0.2,1.8 -2.55,2.85q-1.45,-1.3 -0.85,-2.75q-1.6,1.45 -3.3,0.3q0.35,-2.55 2.75,-3.3q-2.15,0.1 -2.9,-3.55"/>
   <path id="svg_38" stroke-width="0.05" stroke-linejoin="round" stroke-linecap="round" stroke="#38243e" fill="none" d="m2.5,1l4.85,0.2q-0.55,-2.1 0.95,-4.35q2.1,1.65 1.6,3.4q0.4,-0.9 2.25,-1.8l0.2,-0.05l0.15,0.3q0.95,2.05 -0.45,3.85q2,-1.7 3.75,-0.7q0.15,3.15 -2.95,3.25q3.25,1.3 3.1,5.5q-4.8,0.25 -6.6,-3.15q-0.2,1.8 -2.55,2.85q-1.45,-1.3 -0.85,-2.75q-1.6,1.45 -3.3,0.3q0.35,-2.55 2.75,-3.3q-2.15,0.1 -2.9,-3.55z"/>
  </g>
  <g id="sprite2">
   <use id="svg_39" xlink:href="#shape9" width="102.95" height="45"/>
  </g>
  <g id="shape9">
   <path id="svg_40" fill-rule="evenodd" fill-opacity="0" fill="#ff00ff" d="m0,0l102.95,0l0,45l-102.95,0l0,-45"/>
  </g>
 </defs>
 <g>
  <title>background</title>
  <rect fill="none" id="canvas_background" height="267" width="166" y="-1" x="-1"/>
 </g>
 <g>
  <title>Layer 1</title>
  <g id="svg_41">
   <use x="97.050003" y="270.5" id="svg_42" xlink:href="#shape0" width="381" transform="matrix(1,0,0,1,-192.55,-294) " height="381"/>
   <use x="-188.62527" y="66.781916" id="svg_43" xlink:href="#shape1" width="9" transform="matrix(-2.0043,-0.7886,-4.2079,1.8231,-4.1525,-16.5447) " height="4.65"/>
   <use x="-55.205686" y="117.307743" id="svg_44" xlink:href="#shape1" width="9" transform="matrix(-1.9915,0.9764,-0.1099,2.7654,7.4146,-38.2541) " height="4.65"/>
   <use x="38.326412" y="87.701194" id="svg_45" xlink:href="#shape2" width="6.2" transform="matrix(-2.1837,2.0609,2.0609,2.1837,-6.5021,-50.5982) " height="6.25"/>
   <use x="-117.534299" y="-181.646759" id="svg_46" xlink:href="#shape3" width="20" transform="matrix(0.806,-1.0558,-1.0558,-0.806,-2.3067,-63.7349) " height="12.05"/>
   <use x="31.586647" y="-7.647294" id="svg_47" xlink:href="#sprite0" width="10.55" transform="matrix(-3.0075999999999996,0,0,3.0075999999999996,190.88650305175778,134.0472) " height="44.6"/>
   <use x="62.317155" y="38.849198" id="svg_48" xlink:href="#shape3" width="20" transform="matrix(-1.2635000000000003,0.41860000000000014,-0.41860000000000014,-1.2635000000000003,168.22600305175783,237.22430000000006) " height="12.05"/>
   <use x="31.586647" y="-7.647294" id="svg_49" xlink:href="#sprite1" width="6.8" transform="matrix(-3.0075999999999996,0,0,3.0075999999999996,188.35380305175778,202.5962) " height="3.7"/>
   <use x="31.586647" y="-7.647294" id="svg_50" xlink:href="#shape6" width="53.05" transform="matrix(-3.0075999999999996,0,0,3.0075999999999996,255.81500305175774,26.126100000000008) " height="47.9"/>
   <use x="-14.057409" y="96.898454" id="svg_51" xlink:href="#shape7" width="35.6" transform="matrix(-2.9679,0.4592,0.571,2.8582,50.3351,-264.2973) " height="53.25"/>
   <use x="31.415567" y="-8.612936" id="svg_52" xlink:href="#shape8" width="18.8" transform="matrix(-3.0054999999999996,0.09219999999999999,0.0674,3.0067,162.02870305175782,100.98949999999999) " height="28.2"/>
   <use x="31.586647" y="-7.647294" id="svg_53" xlink:href="#shape2" width="6.2" transform="matrix(-3.0075999999999996,0,0,3.0075999999999996,179.1247030517578,255.38139999999999) " height="6.25"/>
   <use x="-52.567508" y="-13.907365" xlink:href="#sprite2" width="102.95" transform="matrix(1.8072000000000004,0,0,1.6538,81.00000305175782,145.3) " id="_mcMask" height="45"/>
  </g>
 </g>
</svg>