<svg width="306" height="259" xmlns="http://www.w3.org/2000/svg" xmlns:xlink="http://www.w3.org/1999/xlink">
 <defs>
  <g transform="matrix(1,0,0,1,192.55,294) " id="shape0">
   <path id="svg_1" stroke-opacity="0" stroke-linejoin="round" stroke-linecap="round" stroke="#ff00ff" fill="none" d="m187.95,-293.5l0,380l-379.95,0l-0.05,0l0,-380l380,0m-95,294.1l-189.95,0"/>
   <path id="svg_2" stroke-opacity="0" stroke-linejoin="round" stroke-linecap="round" stroke="#ff00ff" fill="none" d="m187.95,-293.5l-190,190l190,190m-380,-380l190,190l-189.95,190"/>
   <path id="svg_3" fill-rule="evenodd" fill="#8b9830" d="m6.8,-205.4l-0.2,-0.05l0.2,-0.2l0,0.25"/>
   <path id="svg_4" fill-rule="evenodd" fill="url(#gradient0)" d="m6.6,-205.45l0.2,0.05l20.45,2.9l1.35,8.05q-16.9,6.15 -30.65,18.7l-18.65,-9.7l0.1,-0.1q5.45,-15.4 27.2,-19.9"/>
   <path id="svg_5" fill-rule="evenodd" fill="url(#gradient1)" d="m11.35,-213.15l-4.7,7.3q-21.05,-1.45 -38.1,10.35l-8.25,-4.95l0.75,-0.5l4.7,-2.95q21.15,-12.35 45.6,-9.25"/>
   <path id="svg_6" fill-rule="evenodd" fill="url(#gradient2)" d="m6.8,-205.4l0,-0.25l-0.15,-0.2l4.7,-7.3q13.7,-5.9 28,0.75l-7.2,7.4l-4.9,2.5l-20.45,-2.9"/>
   <path id="svg_7" fill-rule="evenodd" fill="url(#gradient3)" d="m6.8,-205.65l-0.2,0.2q-21.75,4.5 -27.2,19.9l-0.1,0.1l-1.55,-0.8l-0.05,0.05l-9.15,-9.3q17.05,-11.8 38.1,-10.35l0.15,0.2"/>
   <path id="svg_8" fill-rule="evenodd" fill="url(#gradient4)" d="m32.15,-205l7.2,-7.4q8.6,-2.9 16.5,3.95q-10.65,1.4 -16.75,8.45l-6.95,-5"/>
   <path id="svg_9" fill-rule="evenodd" fill="#4a4d1a" d="m28.6,-194.45l-1.35,-8.05l4.9,-2.5l6.95,5l-10.5,5.55m-50.85,8.4l0.7,0.9l-0.55,0.1l-0.15,-1m-83.65,118.75l2.95,1.6l-1.7,3.75l-1.85,-5l0,-0.2l0.4,-0.05l0.2,-0.1"/>
   <path id="svg_10" fill-rule="evenodd" fill="url(#gradient5)" d="m-2.05,-175.75q13.75,-12.55 30.65,-18.7l10.5,-5.55q6.1,-7.05 16.75,-8.45l0.15,0.05l0.1,-0.2l2.95,-1.75q7.6,-2.75 8.9,3l-6.25,3.65l-6.05,3.55l-8.05,4.65l-1.15,0.5l-0.25,0.15q-7.75,3.5 -15.15,7.3l0.25,-2.75l-0.25,2.75q-8.75,4.4 -16.95,9.2l-0.25,0.15q-5.8,3.4 -10.3,5.35l-18.5,13.65l-0.2,0.15l-2.5,-0.9l0.2,-7.2q5.45,-4.8 10.95,-7.1q2.2,-1 4.45,-1.5m57.55,-28.75l0.15,4.35l-0.15,-4.35m-44.85,24.2l3.45,1.95l-3.45,-1.95m-15.95,8.9l-1.2,-2.85l1.2,2.85"/>
   <path id="svg_11" fill-rule="evenodd" fill="#778228" d="m67.95,-207.35l7.9,-4.6l7.8,-2.65l-1.8,6.8l-2.75,10.45q-7.25,5.6 -13.75,2.45l1.2,-1.9l-3.55,0.5l-0.05,-0.05l-1,-0.8l-0.25,-0.2l0,-6.35l6.25,-3.65m27.25,89.45l-9.5,1l-2.8,-7.55l2.2,-3.15l1.05,-2.2l9.05,11.9m-110.65,-29.95l9.4,2.25l-5.15,13.15l-13.2,-6.1l8.9,-9.25l0.05,-0.05m-6.1,-37.3l-0.7,-1.1l1.55,0.8l-0.85,0.3m-0.75,-1.05l0,0.15l-0.05,-0.05l0.05,-0.1m11.1,56.1l4.7,-6.4l9.85,7.85l-8.45,3.75l-6.1,-5.2m-73.45,63.4q3.85,-6.75 8.85,-11.2l3.05,-2.45l0.4,6.25l-5.85,4.35q-3.25,1.5 -6.45,3.05m1.95,8.55l6.55,-11.25l10.85,7.05l-0.5,11.3l-10.8,3.3l-6.1,-10.4"/>
   <path id="svg_12" fill-rule="evenodd" fill="#514326" d="m128.85,-99.8q-3.8,3 -8.2,6.2q-0.9,-7 -22.4,-21.95l-0.65,-0.4q-0.2,-7 0.75,-13l0.25,0.05q19.45,11.45 27.75,30.7l2.5,-1.6m-140.5,66.25l-7.1,7.9l-0.3,0.05q-0.4,-3.85 -1.55,-7.7l8.95,-0.25m73.35,-170.15l0,6.35l0.25,0.2l1,0.8l0.05,0.05l3.55,-0.5l-3,0.9q-34.65,10.5 -63.25,37.45l-6.05,-5.25l-8.2,10.45l3.4,1.35q-5.55,-0.5 -6.2,3.65l1.4,0.3l-0.25,0.1l-11,4.05l1.6,-7.45l1.45,-1.2l0.55,1.1l-0.55,-1.1l8.4,-6.6l0.2,-0.15l18.5,-13.65q4.5,-1.95 10.3,-5.35l0.25,-0.15q8.2,-4.8 16.95,-9.2q7.4,-3.8 15.15,-7.3l0.25,-0.15l1.15,-0.5l8.05,-4.65l6.05,-3.55m-90.5,72.1l-1.45,10.15q-18.15,10.7 -28.8,36.35l-5.8,0.65l-3.15,1.3q6.35,-14.1 15.25,-25.5l2.9,-3.6q6.25,-7.45 13.7,-13.7l4.5,-3.6l2.85,-2.05m91.8,-64.7l0.55,0.4l-0.55,-0.4m-47.05,19l-1.85,-1.05l1.85,1.05m14.75,-6.5l0.35,-3.75l-0.35,3.75m-47.45,35.65l1.15,0.3l-1.15,-0.3l-5.25,-1.25l5.25,1.15l-5.25,-1.15l5.25,1.25"/>
   <path id="svg_13" fill-rule="evenodd" fill="url(#gradient6)" d="m83.65,-214.6q5.95,-1.8 11.55,-2.6l0,1.35q-7.75,1.8 -13.35,8.05l1.8,-6.8"/>
   <path id="svg_14" fill-rule="evenodd" fill="#9fa534" d="m95.2,-217.2l2.85,-0.35q8.65,-0.95 16.55,0.3l-6.3,6.7l-13.1,0l0,-5.3l0,-1.35m-94.9,58.75l0.7,0.6l-6.1,8l-5.45,-2.05l-3.4,-1.35l8.2,-10.45l6.05,5.25m9.2,7.2l8.6,11.05l-9.1,6.35l-10.35,-3.3l-0.9,-10.35l3.15,-5.9l8.6,2.15m41.7,78l3.2,7.55l-6.4,4.8l-7.8,-5.6l0.5,-2.45q1.95,0.15 2.05,-2.55l8.45,-1.75m-114.25,8.15l-7.75,-6.4l0.9,-5.35l10.05,-2.4l3.2,8.7l-6.4,5.45"/>
   <path id="svg_15" fill-rule="evenodd" fill="#8e932f" d="m100.75,-208.2l-4.2,7.55l-14.6,2.8l6.1,-10.35q6.35,-1.65 12.7,0m-31.5,72.95q5.6,-1.4 10.35,0l1.4,7.5l-9.4,5.65l-7.05,-5.65l4.55,-7.3l0.15,-0.2"/>
   <path id="svg_16" fill-rule="evenodd" fill="url(#gradient7)" d="m114.6,-217.25q8.55,1.35 16.3,5.3q4.65,4.85 7.55,11.55l0.85,0.15q5.15,1.2 1.2,5.6q-2.5,-2.6 -7.65,-2.35q-5.4,0.7 -9.35,5.5l-0.3,-0.3l-0.55,-1.05l-0.45,-0.7q-3.15,-5 -8.75,-6.05l-0.05,0l-7.9,0.25q-19.4,5.25 -17.25,29l0.4,2.75l0.05,0.05q2.3,11.9 14,23.7l0.1,0.1l0.2,0.2q-3.4,6.4 -4.65,14.6q-0.95,6 -0.75,13l-0.55,0.45l-1.85,-2.4l-9.05,-11.9l-16.65,-21.85q-0.1,-0.65 -0.75,-0.95l-1.85,-2.45q-3,-0.3 -5.15,-1.5q-3.7,-2.15 -5.15,-6.95l-0.2,-0.8l-0.1,-0.45l-0.1,-0.4l-0.75,-0.8q-2.5,-3.1 -2.65,-10.2q0.45,-1.7 1.7,-4.2l0.05,-0.1q1.65,-3.25 4.6,-4.85l6.2,-9.6q6.5,3.15 13.75,-2.45l2.75,-10.45q5.6,-6.25 13.35,-8.05l0,5.3l13.1,0l6.3,-6.7m-13.85,9.05q-6.35,-1.65 -12.7,0l-6.1,10.35l14.6,-2.8l4.2,-7.55m37.7,7.8l-3.3,-0.2l3.3,0.2m-75.8,13.85q-1.95,0.4 -3.5,1.25q1.55,-0.85 3.5,-1.25"/>
   <path id="svg_17" fill-rule="evenodd" fill="#bca465" d="m122.2,-193.55l0.45,0.7l0.55,1.05l0.2,0.45l-0.1,0l0.25,0.95l1.15,5l-2.5,-8.15m-8.85,-5.6l0.1,-0.45l-0.1,0.45m9.95,7.8l-0.1,-0.45l0.1,0.45"/>
   <path id="svg_18" fill-rule="evenodd" fill="#a48a48" d="m140.5,-194.65q2.5,2.55 1.7,7.65l-0.15,9.7q-7.7,-0.25 -14.8,0.25l-14.9,1.85q-0.45,-0.55 -1,-0.55q-0.75,0 -1.3,1q-7.65,1.6 -14.55,4.2l-1.2,0.45l-2,0.85l0,-0.1q-5.25,-25.15 21.05,-29.8l0.1,-0.45q5.6,1.05 8.75,6.05l2.5,8.15l-1.15,-5l-0.25,-0.95l0.1,0l0.1,-0.15q3.95,-4.8 9.35,-5.5q5.15,-0.25 7.65,2.35m-16.95,4.25l-0.15,-0.95l0.15,0.95m-29.25,20.3l-2,0.75l2,-0.75"/>
   <path id="svg_19" fill-rule="evenodd" fill="#d9cba8" d="m88.7,-167.55l0.2,-0.05l3.4,-1.75l0,0.1q2.3,10.8 10.4,25.4q-11.7,-11.8 -14,-23.7m24.65,-31.6l0.05,-0.45l0.05,0l-0.1,0.45"/>
   <path id="svg_20" fill-rule="evenodd" fill="#8d753f" d="m88.7,-167.55l-0.05,-0.05l-0.4,-2.75q-2.15,-23.75 17.25,-29l7.9,-0.25l-0.05,0.45q-26.3,4.65 -21.05,29.8l-3.4,1.75l-0.2,0.05"/>
   <path id="svg_21" fill-rule="evenodd" fill="#b0ab73" d="m142.2,-187q1.85,3 1.85,9.75q0,5.9 -1.4,14.65l-1.8,-2.1l0.8,-0.75l-1,-0.25q1.05,-2.9 1.4,-11.6l0.15,-9.7m-1.85,21.9l0.15,-0.25l1.15,-0.1l-0.8,0.75l-0.5,-0.4"/>
   <path id="svg_22" fill-rule="evenodd" fill="url(#gradient8)" d="m123.2,-191.8l0.3,0.3l-0.1,0.15l-0.2,-0.45m-138.55,43.85l-0.1,0.1l-0.15,0l0.25,-0.1m-0.15,0.15l-0.1,-0.05l0.15,0l-0.05,0.05m58.25,76.3q-0.1,2.7 -2.05,2.55l0.4,-2.2l1.65,-0.35"/>
   <path id="svg_23" fill-rule="evenodd" fill="#f3efe4" d="m96.05,-59.05l-7.4,3.9l-0.15,-0.05q-9.95,-11.9 -4.35,-27.7q6,3 9,9.5q2.65,5.8 2.9,14.35m-19.2,-7q-1.45,3.5 -4.8,7l-0.6,0q-6.8,-9.15 -7,-23.6q3.3,-1.15 7.6,-0.85q3,3.15 4.5,6.3q2.55,5.55 0.3,11.15m-16.8,77.55q-0.95,7.7 -11.05,10.85l-4.45,0.1q-8.4,-15.85 -6.45,-35.1l2.9,-2.15q9.9,2.75 16.35,15.85l2.5,5.8q0.45,2.5 0.2,4.65m-32.7,2.4q-0.8,7.4 -11.75,9.85l-0.3,-0.05q-10.8,-22.75 -3.5,-33.95q11.95,6.3 14.75,16.85q0.85,3.4 0.8,7.3m-68.95,6.4q0.4,3.35 -0.2,7.25q-2.8,1.9 -5.55,3.15q-3.85,-15.25 -15.4,-24.35l1.65,-1.4q6.2,-4.4 8.95,0q7.25,4.35 9.6,11.2q0.65,1.95 0.95,4.15m-30.8,7.25l-17.3,5.7l-5.75,-0.25q-2,-21 9.65,-31.7l1.65,-0.1q11.25,10.05 11.75,26.35m203.3,-204.25q-0.6,0 -1,0.75q-0.45,0.75 -0.45,1.85q0,1.05 0.45,1.85q0.4,0.75 1,0.75q0.55,0 1,-0.75q0.4,-0.8 0.4,-1.85q0,-1.1 -0.4,-1.85l-1,-0.75m9.45,11.6l-0.3,-0.25l0.45,0l-0.45,0q-0.7,-0.65 0.6,-0.35q-1.3,-0.3 -0.6,0.35q-36.35,2.75 -37.05,21.5l0,0.1l0,0.2l-0.2,-0.2l-0.1,-0.1q-8.1,-14.6 -10.4,-25.4l2,-0.85l1.2,-0.45q6.9,-2.6 14.55,-4.2l-0.2,0.4q-0.6,1.35 -0.6,3.35q0,1.9 0.6,3.3q0.6,1.35 1.5,1.4q0.9,-0.05 1.5,-1.4q0.6,-1.4 0.65,-3.3q-0.05,-2 -0.65,-3.35l-0.5,-0.85l14.9,-1.85q7.1,-0.5 14.8,-0.25q-0.35,8.7 -1.4,11.6l1,0.25l-1.15,0.1l0.15,-0.35l-0.15,0.35l-0.15,0.25m-157.05,83.05l0.3,-0.05q9.4,2.7 12.1,18.8q1.3,7.65 1.1,17.5l-12.55,0.35q-8.8,-19.55 -0.95,-36.6m27.1,2.3l0.05,0q6.4,5.25 7.05,17.4q2.45,6.55 0.8,13.1l-0.05,0l-1.6,4.4q-6.75,6.55 -13.45,6.05l-0.3,0l0.3,-0.05q-3.6,-22.75 7.2,-40.9"/>
   <path id="svg_24" fill-rule="evenodd" fill="#5c5841" d="m130.9,-176.7l1,0.75q0.4,0.75 0.4,1.85q0,1.05 -0.4,1.85q-0.45,0.75 -1,0.75q-0.6,0 -1,-0.75q-0.45,-0.8 -0.45,-1.85q0,-1.1 0.45,-1.85q0.4,-0.75 1,-0.75m-18.55,1.5l0.5,0.85q0.6,1.35 0.65,3.35q-0.05,1.9 -0.65,3.3q-0.6,1.35 -1.5,1.4q-0.9,-0.05 -1.5,-1.4q-0.6,-1.4 -0.6,-3.3q0,-2 0.6,-3.35l0.2,-0.4q0.55,-1 1.3,-1q0.55,0 1,0.55"/>
   <path id="svg_25" fill-rule="evenodd" fill="url(#gradient9)" d="m142.65,-162.6l8.45,28.75q4.05,12.95 -22.25,34.05l-2.5,1.6q-8.3,-19.25 -27.75,-30.7l-0.25,-0.05q1.25,-8.2 4.65,-14.6l0,-0.2l0,-0.1q0.7,-18.75 37.05,-21.5l0.3,0.25q-0.9,1.6 0.5,0.4l1.8,2.1m-111.55,7.2l-1.65,-3.35q8.55,-18.1 25.05,-21.6q-1.25,2.5 -1.7,4.2q0.15,7.1 2.65,10.2l-0.1,0.65l-6.8,-1l-0.2,0q-11.1,0.5 -17.25,10.9"/>
   <path id="svg_26" fill-rule="evenodd" fill="#705e34" d="m140.35,-165.1l0.5,0.4q-1.4,1.2 -0.5,-0.4"/>
   <path id="svg_27" fill-rule="evenodd" fill="url(#gradient10)" d="m97.65,-114.7q7.35,13.55 7.65,23.35l-0.5,1.1q0,0.2 0.15,0.3q2.45,5.4 -1.7,5.5l-0.05,0l-0.55,0l-9.5,11.05q-3,-6.5 -9,-9.5l-0.3,-0.15l-7.3,5.85q-1.5,-3.15 -4.5,-6.3q-4.3,-0.3 -7.6,0.85q-6.35,2.1 -9.1,9.25l-4.45,-7.75q5,-16.4 -0.5,-23.95q0.3,-3.45 0.9,-6.6q9,-9 6.65,-18.3l1.6,-3.3l1.8,-3.5l1.25,-2.6l0.15,-0.2l2.05,-4.1l0.2,-0.45l0.05,-0.1l0.65,-1.35l0.05,-0.05l1.2,-1.05l1.5,-1.25l0.7,-0.6l0.75,-0.6l-1.7,0.55q1.4,-2 1.3,-3.05l16.65,21.85l-1.05,2.2l-2.2,3.15l2.8,7.55l9.5,-1l1.85,2.4l0.6,0.8m-28.55,-20.35l-4.55,7.3l7.05,5.65l9.4,-5.65l-1.4,-7.5q-4.75,-1.4 -10.35,0l-0.15,0.2m0.55,46.85q-4.4,-5.3 -8.85,2.95q4.45,-8.25 8.85,-2.95m35.65,-3.15q-6.95,-0.1 -7.9,7.3q0.95,-7.4 7.9,-7.3m-13.8,9.65q-9.75,-12.25 -13,-2.35q3.25,-9.9 13,2.35"/>
   <path id="svg_28" fill-rule="evenodd" fill="url(#gradient11)" d="m66.55,-196.8l-1.2,1.9l-1.8,-1l3,-0.9m-3,0.9l1.8,1l-6.2,9.6q-2.95,1.6 -4.6,4.85l-0.05,0.1q-16.5,3.5 -25.05,21.6l1.65,3.35q2.4,8.4 4.1,18.25q1.6,9.4 2.6,20.1l0.5,6.9q0.9,13.75 0.8,29.45l2.9,3.9l0.6,2.9q-2,1.5 -3.7,4.35l-6.8,-6.9l-0.55,0.3q-11.95,6.9 -14.05,13.8q-0.65,-12.15 -7.05,-17.4l-0.05,0q-10.45,4.3 -14.7,16.45q-2.7,-16.1 -12.1,-18.8l-0.3,0.05q-9.7,2.4 -14.75,15.5l-0.7,-13.1l-0.15,-6.5q-0.05,-8.85 0.45,-17.7q0.5,-8.8 1.6,-17.6l1.45,-10.15l2.2,-12.2l11,-4.05l0.1,0.05l-8.9,9.25l13.2,6.1l5.15,-13.15l-9.4,-2.25l0.1,-0.1l-1.4,-0.3q0.65,-4.15 6.2,-3.65l5.45,2.05l6.1,-8l-0.7,-0.6q28.6,-26.95 63.25,-37.45m-37.6,30.45l3.5,6.7l-3.5,-6.7m-16.45,14.2l-8.6,-2.15l-3.15,5.9l0.9,10.35l10.35,3.3l9.1,-6.35l-8.6,-11.05m18.35,44.5q-5.55,-7.65 -9.95,1.8q4.4,-9.45 9.95,-1.8m-0.1,-16.25q-6.8,-5.85 -11.2,2.35q4.4,-8.2 11.2,-2.35m2.35,-13.6q-6.15,-5.7 -10,2.35q3.85,-8.05 10,-2.35m1.2,42.5q-2.95,-4.7 -5.9,1.8q2.95,-6.5 5.9,-1.8m-15.95,11.25q-3.9,-10 -14.75,4.1q10.85,-14.1 14.75,-4.1m21.85,5.9q-6.25,-9.85 -12.4,-0.6q6.15,-9.25 12.4,0.6m-48.4,-53.15l6.1,5.2l8.45,-3.75l-9.85,-7.85l-4.7,6.4m-1.7,22.55q-8.7,-3.65 -12.9,4.65q4.2,-8.3 12.9,-4.65m5.7,-11.85q-8.65,-3.65 -12.85,4.65q4.2,-8.3 12.85,-4.65m-2.8,32.85q-11.55,-8.65 -16.55,2.35q5,-11 16.55,-2.35"/>
   <path id="svg_29" fill-rule="evenodd" fill="url(#gradient12)" d="m55.45,-165.95l0.75,0.8l-0.85,-0.15l0.1,-0.65"/>
   <path id="svg_30" fill-rule="evenodd" fill="#eddca7" d="m65,-144.15l-0.2,0.45l-2.05,4.1l-0.1,0.05l2.05,-4.1l0.05,0l0.2,-0.45l0.05,-0.05m-22.4,70.25l-0.6,-2.9l4.7,0.45l0.05,0.85q-2.25,0.15 -4.15,1.6m-3.5,-6.8q0.1,-15.7 -0.8,-29.45l8.55,3.55l-0.2,29.9l-7.55,-4m-1.3,-36.35q-1,-10.7 -2.6,-20.1q-0.05,-3.9 0.45,-7.35q2,-13.6 12.7,-21.8l0.2,0l6.8,1l0.85,0.15l0.1,0.4l0.1,0.45l0.2,0.8q1.45,4.8 5.15,6.95q4.35,9.3 -6.2,18.6l-19.9,-6.55q11.1,10.1 18.35,11.25l-7.45,20.6q-4.4,-1.4 -8.75,-4.4m28.9,-30.6l0.5,0.3l-1.3,1.4l0.8,-1.7m-8.75,16.85l-0.05,0.7l0,0.15l-0.1,-0.6l0.15,-0.25m-0.05,0.7l-0.1,-0.45l0.1,0.45"/>
   <path id="svg_31" fill-rule="evenodd" fill="#f7ecd5" d="m50.9,-81.15l0,6.4q-2.2,-0.9 -4.15,-0.75l-0.05,-0.85l0.85,0.1l-0.9,-0.45l0.2,-29.9l3.55,1.5q5.5,7.55 0.5,23.95m18.6,-70.5q0.1,1.05 -1.3,3.05l-1,1.25l-0.5,-0.3l-0.8,1.7l-0.1,0.2l-1.3,1.05l1.2,-0.85l-0.7,1.4l-0.05,0.05l-0.2,0.45l-0.05,0l-2.05,4.1l-0.05,0.15l-1.25,2.6l-5.8,-1.15q10.55,-9.3 6.2,-18.6q2.15,1.2 5.15,1.5l1.85,2.45q0.65,0.3 0.75,0.95m-0.35,3.1l-0.7,0.6l-1.5,1.25l-1.15,0.95l0.1,-0.2l3.25,-2.6m-11.2,18.55q2.35,9.3 -6.65,18.3l-4.75,-0.95l7.45,-20.6q2.85,0.4 5.5,-0.05l-1.55,2.5l-0.15,0.25l0.1,0.6l0.05,-0.05m8.75,-17.65q0.25,-0.5 1.5,-0.95q-1.25,0.45 -1.5,0.95"/>
   <path id="svg_32" fill-rule="evenodd" fill="url(#gradient13)" d="m68.2,-148.6l1.7,-0.55l-0.75,0.6l-3.25,2.6l1.3,-1.4l1,-1.25"/>
   <path id="svg_33" fill-rule="evenodd" fill="url(#gradient14)" d="m35.2,-137.15q-1.7,-9.85 -4.1,-18.25q6.15,-10.4 17.25,-10.9q-10.7,8.2 -12.7,21.8q-0.5,3.45 -0.45,7.35"/>
   <path id="svg_34" fill-rule="evenodd" fill="#b09953" d="m61.35,-136.8l-1.8,3.5l-0.05,0q-2.65,0.45 -5.5,0.05q-7.25,-1.15 -18.35,-11.25l19.9,6.55l5.8,1.15m-10.05,25.1q-0.6,3.15 -0.9,6.6l-3.55,-1.5l-8.55,-3.55l-0.5,-6.9q4.35,3 8.75,4.4l4.75,0.95m-83.6,25.55l0.15,6.5l-9.15,-9.7l9,3.2m74.3,9.35l-2.9,-3.9l7.55,4l0.9,0.45l-0.85,-0.1l-4.7,-0.45"/>
   <path id="svg_35" fill-rule="evenodd" fill="#bca86b" d="m65.75,-145.65l-0.05,0.05l-0.65,1.35l-0.05,0.1l0.7,-1.4l0.05,-0.1m-3,6.05l-0.15,0.2l0.05,-0.15l0.1,-0.05m-3.2,6.3l-1.6,3.3l-0.05,-0.1l0.05,0.1l-0.05,0.05l0,-0.15l0.05,-0.7l1.55,-2.5l0.05,0m5.4,-10.8l0.05,-0.05l-0.05,0.05"/>
   <path id="svg_36" fill-rule="evenodd" fill="url(#gradient15)" d="m50.9,-74.75l0.8,1.1l-0.5,0.4l-8.45,1.75l-1.65,0.35l-0.4,2.2l-0.5,2.45l-0.75,0.15l-0.55,-3.2q1.7,-2.85 3.7,-4.35l0.15,2.4l-0.15,-2.4q1.9,-1.45 4.15,-1.6q1.95,-0.15 4.15,0.75m-12,5.2l1.8,0.6l-1.8,-0.6"/>
   <path id="svg_37" fill-rule="evenodd" fill="#d1cdad" d="m102.65,-84.45l0.5,0.2l0.05,0.05q-5,11.85 -2.8,24.9l-4.35,0.25q-0.25,-8.55 -2.9,-14.35l9.5,-11.05m-14.15,29.25q-11.65,-4.55 -11.65,-10.85q2.25,-5.6 -0.3,-11.15l7.3,-5.85l0.3,0.15q-5.6,15.8 4.35,27.7m-17.05,-3.85q-8.35,0.1 -11.6,-6.55l-4.5,-7.8q2.75,-7.15 9.1,-9.25q0.2,14.45 7,23.6m-3.2,72q-6.45,0.85 -8.2,-1.45q0.25,-2.15 -0.2,-4.65l-2.5,-5.8l7,-15.85q8.3,10.05 3.9,27.75m-23.7,9.5q-13.15,-0.4 -17.2,-8.55q0.05,-3.9 -0.8,-7.3q2.3,-11.7 11.55,-19.25q-1.95,19.25 6.45,35.1m-29.25,1.25q-19.45,-5.25 -20.85,-14.05q3.2,-15.75 5.95,-18q1.3,-1.1 5.55,-2.65l2.1,-1l3.75,1.75q-7.3,11.2 3.5,33.95m-28.7,-14.3l-4.75,0.6q-2.8,-4.9 -8.45,-8.2l0.35,-0.6q6.25,-1.65 3.65,-7.7l0.95,-1.95l8.25,17.85m-6.9,16.55q-4.75,1.8 -13.5,2.05q-5.8,-2.25 -7.8,-7.7q-0.3,-2.2 -0.95,-4.15q-0.65,-6.3 2.15,-15.45q1.75,-1.45 3.55,-1.9q7.7,5.3 13,15.45l3.55,11.7m-27.05,4.75q-13.2,6 -25.05,-3.15q0.55,-13.1 9.65,-21.2q11.55,9.1 15.4,24.35m-48.1,2.3q-6.45,-1.85 -10.35,-11.1q-1.35,-5.8 4.7,-12.65l0.25,-0.25l2.1,-2.15q6.5,-4.95 12.95,-5.55q-11.65,10.7 -9.65,31.7m64,-99.55q5.05,-13.1 14.75,-15.5q-7.85,17.05 0.95,36.6q-6.3,-0.95 -10.05,-4.65q-5.55,-5.5 -5.65,-16.45m27.15,3.25q4.25,-12.15 14.7,-16.45q-10.8,18.15 -7.2,40.9l-0.3,0.05l-6.1,-7q0.2,-9.85 -1.1,-17.5m21.8,0.95q2.1,-6.9 14.05,-13.8l0.15,0.25q-9.25,19.2 -3.85,29.85q-4.2,-0.45 -9.55,-3.2q1.65,-6.55 -0.8,-13.1"/>
   <path id="svg_38" fill-rule="evenodd" fill="url(#gradient16)" d="m51.7,-73.65l0.05,0.05l-0.55,0.35l0.5,-0.4"/>
   <path id="svg_39" fill-rule="evenodd" fill="url(#gradient17)" d="m51.75,-73.6q14.1,19.2 18.4,48.25l0,0.05l-0.05,0.1l0.1,0.05q4.45,-0.25 5.85,5.45q-0.55,5.9 -4,6.9q-3,-2.45 -7.05,-3.45l-0.65,1.45l-7,15.85q-6.45,-13.1 -16.35,-15.85l-2.9,2.15q-9.25,7.55 -11.55,19.25q-2.8,-10.55 -14.75,-16.85l-3.75,-1.75l-2.1,1q-4.25,1.55 -5.55,2.65q-2.9,-2.05 0.45,-6.6q-1.65,-10.6 2.05,-23.85l0.3,0q6.7,0.5 13.45,-6.05l1.65,-4.4q5.35,2.75 9.55,3.2q9.8,1.05 13.15,-10.65l-1.55,-9.65l0.75,-0.15l7.8,5.6l6.4,-4.8l-3.2,-7.55l0.55,-0.35m6.05,18.8q-8.7,-4.65 -12.9,4.65q4.2,-9.3 12.9,-4.65m-41.25,40.95q-10.95,-5.85 -15.7,-1.1q4.75,-4.75 15.7,1.1m2.2,-13.25q-8.7,-4.65 -12.9,4.65q4.2,-9.3 12.9,-4.65m38.25,5q5.4,-3.9 13.15,-3.2q-7.75,-0.7 -13.15,3.2m6.3,-20.1q-8.7,-4.65 -12.9,4.65q4.2,-9.3 12.9,-4.65m-12.8,24.2q-14.35,-8.85 -23.6,3.25q9.25,-12.1 23.6,-3.25"/>
   <path id="svg_40" fill-rule="evenodd" fill="#ece4d5" d="m103.2,-84.2q5.1,2.7 7,18.1q-4.95,5.55 -9.8,6.8q-2.2,-13.05 2.8,-24.9m-123.8,73.6l10.8,13.2q2.4,5.9 -3.6,6.8l-8.25,-17.85l1.05,-2.15m2.45,20.6q1.35,2.35 2.25,5.3q3.8,7.55 -4.4,10.65l-3.55,-11.7q-5.3,-10.15 -13,-15.45q2.45,-0.7 4.95,0.5q2.9,1.1 5.3,2.5q5.65,3.3 8.45,8.2m49.7,-86.15l0.55,-0.3l6.8,6.9l0.55,3.2l1.55,9.65q-3.35,11.7 -13.15,10.65q-5.4,-10.65 3.85,-29.85l-0.15,-0.25"/>
   <path id="svg_41" fill-rule="evenodd" fill="#cdb31f" d="m70.1,-25.2l0.05,-0.1l-0.05,0.1"/>
   <path id="svg_42" fill-rule="evenodd" fill="#ad971b" d="m70.15,-25.35l0,0.05l0,-0.05"/>
   <path id="svg_43" fill-rule="evenodd" fill="url(#gradient18)" d="m72.05,-12.8q5.45,4.4 7.55,13.5q2.85,6.75 -8.45,11.75l-2.9,0.5q4.4,-17.7 -3.9,-27.75l0.65,-1.45q4.05,1 7.05,3.45"/>
   <path id="svg_44" fill-rule="evenodd" fill="url(#gradient19)" d="m-39.7,-200.45l8.25,4.95l9.15,9.3l-0.05,0.1q-10.45,-3.4 -20.85,0.05l0.65,-13.05l2.85,-1.35"/>
   <path id="svg_45" fill-rule="evenodd" fill="url(#gradient20)" d="m-20.7,-185.45l18.65,9.7q-2.25,0.5 -4.45,1.5l-0.55,-1.3l0.55,1.3q-5.5,2.3 -10.95,7.1l-2.4,2.2q2.35,-12.15 -2.25,-20.1l0.55,-0.1l0.85,-0.3"/>
   <path id="svg_46" fill-rule="evenodd" fill="url(#gradient21)" d="m-22.1,-185.05q4.6,7.95 2.25,20.1l-1.75,1.1l-0.2,0.1q-7.2,3.6 -14.45,10.95l-0.15,0.15l-3.15,3.4q-6,-4.75 -17.3,-2l-0.55,0.05l-8.3,-15.9l1.5,-1.45q9.05,-11.15 20.6,-17.3l0.4,-0.2q10.4,-3.45 20.85,-0.05l0.05,0.05l0.05,0l0.15,1"/>
   <path id="svg_47" fill-rule="evenodd" fill="url(#gradient22)" d="m-106.1,-36.25l-3.35,2.35q-6.15,-0.75 -4.65,-7.4l0.1,-0.35l2.3,-5.05l1.95,-4.2l5.1,-11.05l1.7,-3.75q2,-9.55 9.3,-19.1l1.05,-1.35l4.3,-7.8q10.25,-19.1 23.25,-33.3l7.85,-7.85l3.5,-2.8q5.95,-8.55 14.15,-11.35l3.15,-3.4l0.15,-0.15q7.25,-7.35 14.45,-10.95l0.2,-0.1l1.75,-1.1l2.4,-2.2l-0.2,7.2l2.5,0.9l-8.4,6.6l-1.45,1.2l-3.9,3.2l-5.55,4.8l-9.25,8.65l-3.65,3.65l-2.2,-1.5l2.2,1.5l-3.8,3.95l-5.2,5.75l-6.9,8.2q-6.55,8.05 -12.4,16.65l-0.4,0.55l-1.65,2.55l-7,11.15q-5.6,9.45 -10.45,19.55l-5.15,11.2l-0.3,0.75l-0.65,1.5l-0.9,-0.3l0.9,0.3l-4.95,12.5l0,0.05l0,0.05l-0.05,0.1l0.15,0.2m70.7,-113.35l-1,-3.05l1,3.05m10.6,-5.3l1.25,2.45l-1.25,-2.45m-37.15,33.05l-3.1,-5.4l3.1,5.4m-21.85,28.35l-1.8,-4.15l1.8,4.15m-6.5,9.45l-3.35,-0.75l3.35,0.75m-16.55,37.75l-2.9,-4.6l2.9,4.6m28.35,-51.35l2.85,1.25l-2.85,-1.25m-18.9,37.8l-2.95,-2.35l2.95,2.35"/>
   <path id="svg_48" fill-rule="evenodd" fill="url(#gradient23)" d="m-85.7,-169.05q16.95,-26.9 43.15,-30.05l-0.65,13.05l-0.4,0.2q-11.55,6.15 -20.6,17.3l-1.6,1.3l-19.9,-1.8"/>
   <path id="svg_49" fill-rule="evenodd" fill="url(#gradient24)" d="m-64.2,-168.55l-1.5,1.45l-0.1,-0.15l1.6,-1.3"/>
   <path id="svg_50" fill-rule="evenodd" fill="url(#gradient25)" d="m-65.7,-167.1l8.3,15.9l-26.9,3.65l-2,-20.9l0.6,-0.6l19.9,1.8l0.1,0.15"/>
   <path id="svg_51" fill-rule="evenodd" fill="url(#gradient26)" d="m-57.35,-151.05l-1,0.4l4.65,12.75l-3.5,2.8l-7.85,7.85q-13,14.2 -23.25,33.3l-15.15,-0.85q-1.8,-21.2 5.2,-34.85l14.1,-16.45l-0.15,-1.4l0,-0.05l26.9,-3.65l0.05,0.15"/>
   <path id="svg_52" fill-rule="evenodd" fill="url(#gradient27)" d="m-56.85,-149.85l-1.5,-0.8l1,-0.4l0.5,1.2"/>
   <path id="svg_53" fill-rule="evenodd" fill="url(#gradient28)" d="m-56.85,-151.25q11.3,-2.75 17.3,2q-8.2,2.8 -14.15,11.35l-4.65,-12.75l1.5,0.8l-0.5,-1.2l0.5,-0.2"/>
   <path id="svg_54" fill-rule="evenodd" fill="#232516" d="m-96.85,-30.8l-9.25,-5.45l0,-0.3l0,-0.05l-0.1,-0.05l4.95,-12.5l8.5,3.1q-2,7.5 -3.3,16.45l-0.8,-1.2m70.25,-113l-2.2,12.2l-2.85,2.05l-2.8,-13.7l5.55,-4.8l3.9,-3.2l-1.6,7.45m-19.45,13.7l-1.3,-0.85l1.3,0.85m-1.3,-0.85l3.65,-3.65l7.55,8.65q-7.45,6.25 -13.7,13.7l-6.5,-9l5.2,-5.75l3.8,-3.95m-15.9,17.9l0.1,0.1l10.4,4.3q-8.9,11.4 -15.25,25.5l-1.9,1l-6.15,-13.7l0.4,-0.55q5.85,-8.6 12.4,-16.65m-11.1,17.2l-1.3,-0.55l1.3,0.55m-20.8,33.25q4.85,-10.1 10.45,-19.55l8.9,4.25q-5,4.45 -8.85,11.2q-2.75,4.7 -4.95,10.6l-5.55,-6.5"/>
   <path id="svg_55" fill-rule="evenodd" fill="#3e4428" d="m-43.7,-134.6l9.25,-8.65l2.8,13.7l-4.5,3.6l-7.55,-8.65m-9.05,25.95l-10.4,-4.3l-0.1,-0.1l6.9,-8.2l6.5,9l-2.9,3.6m-48.5,59.5l0.65,-1.5l0.3,-0.75l5.15,-11.2l5.55,6.5l-2,6l-1.15,4.05l-8.5,-3.1m16.55,-33l7,-11.15l1.65,-2.55l6.15,13.7l-2.85,1.8l-3.05,2.45l-8.9,-4.25m-21.45,45.55l-0.05,0l0,-0.05l0.1,0.05l-0.05,0"/>
   <path id="svg_56" fill-rule="evenodd" fill="url(#gradient29)" d="m-30.25,-121.45q-1.1,8.8 -1.6,17.6q-0.5,8.85 -0.45,17.7l-9,-3.2l9.15,9.7l0.7,13.1q-4.5,-13.55 -17.65,-16.9l-2.05,-0.45q-3.85,-1.25 -7.9,-1.2q10.65,-25.65 28.8,-36.35"/>
   <path id="svg_57" fill-rule="evenodd" fill="url(#gradient30)" d="m-112.9,-128.35q1.9,-14.8 15.15,-30.9q6.35,-7.75 11.45,-9.2l2,20.9l0,0.05l0.15,1.4l-14.1,16.45l-14.65,1.3"/>
   <path id="svg_58" fill-rule="evenodd" fill="url(#gradient31)" d="m-121,-94.8q-5.8,-18.3 8.1,-33.55l14.65,-1.3q-7,13.65 -5.2,34.85l-0.35,0l-17.2,0"/>
   <path id="svg_59" fill-rule="evenodd" fill="url(#gradient32)" d="m-103.45,-94.8l15.15,0.85l-4.3,7.8l-1.05,1.35l-1.95,-0.45l1.95,0.45q-7.3,9.55 -9.3,19.1l-2.95,-1.6l-0.2,0q-1.8,-13.75 2.3,-27.5l0.35,0"/>
   <path id="svg_60" fill-rule="evenodd" fill="url(#gradient33)" d="m-118.4,-65.45q-7.6,-14.5 -2.6,-29.35l17.2,0q-4.1,13.75 -2.3,27.5l0,0.1l-0.4,0.05l-11.9,1.7"/>
   <path id="svg_61" fill-rule="evenodd" fill="url(#gradient34)" d="m-103.8,-94.8l0.35,0l-0.35,0"/>
   <path id="svg_62" fill-rule="evenodd" fill="url(#gradient35)" d="m-111.7,-46.7q-9.1,-9.3 -6.7,-18.75l11.9,-1.7l0,0.2l1.85,5l-5.1,11.05l-1.95,4.2"/>
   <path id="svg_63" fill-rule="evenodd" fill="url(#gradient36)" d="m-19.05,-25.6q0.7,7.5 -1.55,15l-1.05,2.15l-0.95,1.95q2.6,6.05 -3.65,7.7l-5.65,-1.9q-2.5,-1.2 -4.95,-0.5q-1.8,0.45 -3.55,1.9q-2.8,9.15 -2.15,15.45q-2.35,-6.85 -9.6,-11.2q-2.75,-4.4 -8.95,0l-1.65,1.4q-9.1,8.1 -9.65,21.2q-0.5,-16.3 -11.75,-26.35l-1.65,0.1q-6.45,0.6 -12.95,5.55l-2.1,2.15q-3.9,-3.1 0.55,-9.25l1.75,-1.75l0.05,0l0.35,-0.2l-0.35,-0.05l0.6,-10.3q0.45,-6.8 1.25,-12.95l0.6,-4.1q1.3,-8.95 3.3,-16.45l1.15,-4.05l2,-6q2.2,-5.9 4.95,-10.6q3.2,-1.55 6.45,-3.05l5.85,-4.35l-0.4,-6.25l2.85,-1.8l1.9,-1l3.15,-1.3l5.8,-0.65q4.05,-0.05 7.9,1.2l2.05,0.45q13.15,3.35 17.65,16.9q0.1,10.95 5.65,16.45l5.2,16.8q1.15,3.85 1.55,7.7m-73.7,-20.45l1.8,0.65l-1.8,-0.65m7.8,39.9q-6.05,-0.2 -13.2,3.95q7.15,-4.15 13.2,-3.95m19.15,-44.9l0.5,-11.3l-10.85,-7.05l-6.55,11.25l6.1,10.4l10.8,-3.3m2.75,-14.05l6.4,-5.45l-3.2,-8.7l-10.05,2.4l-0.9,5.35l7.75,6.4m20.3,60.1q5.4,-5.1 20.15,-1.5q-14.75,-3.6 -20.15,1.5m11.3,-39.35q-8.7,-4.6 -12.9,4.7q4.2,-9.3 12.9,-4.7m-46.35,21.9q-8.7,-3.6 -12.9,4.7q4.2,-8.3 12.9,-4.7m-1.2,-9.75q-8.65,-3.6 -12.85,4.7q4.2,-8.3 12.85,-4.7m29.2,30.45q-12.95,-9.65 -20.4,2.95q7.45,-12.6 20.4,-2.95"/>
   <path id="svg_64" fill-rule="evenodd" fill="url(#gradient37)" d="m-147.55,-14.65l-1.05,-0.15l1.95,-2.35l0.45,-0.05q22.85,-2.6 49.35,-13.6l0.8,1.2l-0.6,4.1q-22.9,8.8 -50.9,10.85"/>
   <path id="svg_65" fill-rule="evenodd" fill="#525b35" d="m-106.15,-36.6l0.05,0l0,0.05l0,0.3l-0.05,-0.35"/>
   <path id="svg_66" fill-rule="evenodd" fill="#5b5535" d="m-106.2,-36.6l0.05,0l-0.05,0.05l0,-0.05"/>
   <path id="svg_67" fill-rule="evenodd" fill="url(#gradient38)" d="m-97.9,-12.55l-49.65,-2.1q28,-2.05 50.9,-10.85q-0.8,6.15 -1.25,12.95"/>
   <path id="svg_68" fill-rule="evenodd" fill="url(#gradient39)" d="m2.9,-38.8q-7.25,4.15 -14.55,5.25l-8.95,0.25l-5.2,-16.8q3.75,3.7 10.05,4.65l12.55,-0.35l6.1,7"/>
   <path id="svg_69" stroke-opacity="0.423529" stroke-linejoin="round" stroke-linecap="round" stroke="#534831" fill="none" d="m6.6,-205.45l0.2,0.05m0,-0.25l-0.2,0.2q-21.75,4.5 -27.2,19.9m-0.1,0.1l18.65,9.7m30.65,-18.7l-1.35,-8.05l-20.45,-2.9m-0.15,-0.45l4.7,-7.3m-51.05,12.7l8.25,4.95q17.05,-11.8 38.1,-10.35m25.5,0.85l7.2,-7.4m-0.25,12.4l-6.95,-5l-4.9,2.5m70.35,86.55l0.05,0.45l0,0.8l-0.6,-0.8m8.25,24.15l-0.5,1.1m-34.65,64.9l0,0.05l0.05,0.15m-171.3,34.4l0.25,-0.25m2.3,-11l0.05,-0.05l0,-0.2m-48.15,-14.9l0.45,-0.05m59.9,-151.25l-0.1,-0.65l0.7,0.05l19.9,1.8m121.65,-41.2l0.25,-0.15m83.95,43.25l0.3,0.25l0.15,-0.25l-0.45,0m0.45,0l1.15,-0.1l-1,-0.25l-0.15,0.35m0.35,0.65l0.8,-0.75m-1.3,0.35l0.5,0.4l1.8,2.1m-1.8,-2.1q-1.4,1.2 -0.5,-0.4m-72.15,16.5l1.7,-0.55l-0.75,0.6l-0.7,0.6l-1.5,1.25l-1.2,1.05l-0.05,0.05l-0.65,1.35l-0.05,0.1l-0.2,0.45l-2.05,4.1l-0.15,0.2l-1.25,2.6l-1.8,3.5l-1.6,3.3q2.35,9.3 -6.65,18.3q-0.6,3.15 -0.9,6.6q5.5,7.55 0.5,23.95m44.3,-36.75l1.85,2.4m1.3,-13.45q1.25,-8.2 4.65,-14.6m-119.75,-4.7l1.4,0.3m-16.1,81.4q5.05,-13.1 14.75,-15.5l0.3,-0.05q9.4,2.7 12.1,18.8m14.7,-16.45l0.05,0q6.4,5.25 7.05,17.4q2.1,-6.9 14.05,-13.8l0.55,-0.3l6.8,6.9m-7.8,-85.85l-1.65,-3.35l-3.5,-6.7m29.5,-0.5l0.75,0.8m12.55,12.55q0.65,0.3 0.75,0.95m-23.3,-43.2l0.25,-0.15m1.9,28.7l0.2,0l6.8,1l0.85,0.15m-25.15,-22.4l-0.35,3.75m-16.6,5.45l1.85,1.05m0.6,56.65q4.4,-8.2 11.2,-2.35m-9.85,18.05q4.4,-9.45 9.95,-1.8m20.5,-59.55q-11.1,0.5 -17.25,10.9m-11,21.15q3.85,-8.05 10,-2.35m36.6,-11.05l-0.8,1.7l-0.1,0.2m2.4,-2.85q-1.25,0.45 -1.5,0.95m-0.95,2l0.05,-0.1m-0.1,0.2l0.05,-0.1m-0.8,1.55l0.05,-0.05l0.7,-1.4m-3.05,6l2.05,-4.1l0.05,0l0.2,-0.45m4.15,9.05l0.15,-0.2m-9.75,1.95l-1.55,2.5m-0.05,0.7l0.05,0.1l-0.05,0.05m-0.1,-0.6l0.15,-0.25m-0.15,0.25l0.1,0.45m-28.45,-28.65q8.55,-18.1 25.05,-21.6m-7.75,104.85q1.95,-0.15 4.15,0.75m13.55,-7.9q3.3,-1.15 7.6,-0.85q3,3.15 4.5,6.3m7.6,-5.7q6,3 9,9.5m-52.45,4.45l-1.8,-0.6m6,19.4q4.2,-9.3 12.9,-4.65m-32.4,-37.5q2.95,-6.5 5.9,-1.8m-14.65,49.25l1.6,-4.4l0.05,0q1.65,-6.55 -0.8,-13.1m-5.7,52.1q11.95,6.3 14.75,16.85m11.55,-19.25l2.9,-2.15q9.9,2.75 16.35,15.85m7,-15.85l0.65,-1.45q4.05,1 7.05,3.45m-66.2,-9.65q4.2,-9.3 12.9,-4.65m51.35,1.9l0.05,-0.1m-19.75,-12.25q4.2,-9.3 12.9,-4.65m-70.35,-133.35l0.55,1.3m-15.75,-12l0,0.2l0.7,0.9l-0.7,-1.1l1.55,0.8m-1.4,0.4q4.6,7.95 2.25,20.1m-2.4,-21.1l-0.05,-0.15l-9.15,-9.3m9.15,9.45l0.05,0l0.15,1m-0.2,-1l-0.05,-0.05q-10.45,-3.4 -20.85,0.05l-0.4,0.2q-11.55,6.15 -20.6,17.3l-1.6,1.3m0.1,0.15l8.3,15.9l0.55,-0.05q11.3,-2.75 17.3,2m3.15,-3.4l0.15,-0.15m12.7,0.35l0.55,1.1m-33.85,1.5l-0.5,-1.2l-1,0.4l4.65,12.75m-3.65,-13.15l-0.05,-0.15l-26.9,3.65l0,0.05l0.15,1.4l-14.1,16.45q-7,13.65 -5.2,34.85l15.15,0.85m30.95,-57.1l0.5,-0.2m9.5,20.3l1.3,0.85m21.05,-21.15l-1.6,7.45m-49.05,47.4l1.3,0.55m21.6,-12.8l2.9,-3.6q6.25,-7.45 13.7,-13.7m19.4,-22.2l-5.25,-1.25l5.25,1.15m-14.9,18.7l2.85,-2.05m-2.85,2.05l-4.5,3.6m16.1,11.2q4.2,-8.3 12.85,-4.65m-18.6,16.5q4.2,-8.3 12.9,-4.65m-73.4,-60.9l0.6,-0.6m-27.2,40.7l14.65,-1.3m13.95,-17.9l-2,-20.9m-7.35,83.65l-1.95,-0.45m-8.2,-9.55l-17.2,0m17.55,0l-0.35,0q-4.1,13.75 -2.3,27.5m0.2,0l2.95,1.6m-3.55,-1.25l1.85,5m-1.25,-5.35l-0.2,0.1l-0.4,0.05m0.4,-0.05l0,-0.1m-12.3,1.85l11.9,-1.7m13.75,21.1l1.15,-4.05l2,-6q2.2,-5.9 4.95,-10.6m-6.3,21.3l-1.8,-0.65q-2,7.5 -3.3,16.45l-0.6,4.1m0.6,-4.1l-0.8,-1.2m-9.35,-5.75l0.05,-0.05l0.05,0l0,0.05m7.95,34.35l-0.35,0.15l0,0.05l0.35,-0.2m-0.4,0.2l0.05,0m5.75,-44.05l-8.5,-3.1m42.2,-35.95l-5.8,0.65l-3.15,1.3l-1.9,1l-2.85,1.8m50.15,73.85l0.95,-1.95l1.05,-2.15m-16.25,9.4q2.45,-0.7 4.95,0.5l5.65,1.9q6.25,-1.65 3.65,-7.7m-21.75,-33.15q4.2,-9.3 12.9,-4.7m-60.4,16.85q4.2,-8.3 12.85,-4.7m-11.7,14.45q4.2,-8.3 12.9,-4.7m34.6,-163.6l0.65,-13.05m15.95,200.9q5.65,3.3 8.45,8.2m-44.6,-3.65l1.65,-1.4q6.2,-4.4 8.95,0q7.25,4.35 9.6,11.2q0.65,1.95 0.95,4.15m-44.2,-19l1.65,-0.1q11.25,10.05 11.75,26.35m40.5,-28.25q2.9,1.1 5.3,2.5"/>
   <path id="svg_70" stroke-width="1.5" stroke-opacity="0.6" stroke-linejoin="round" stroke-linecap="round" stroke="#534831" fill="none" d="m-2.05,-175.75q13.75,-12.55 30.65,-18.7m10.75,-17.95q-14.3,-6.65 -28,-0.75m44.75,4.55l2.95,-1.75q7.6,-2.75 8.9,3l7.9,-4.6l7.8,-2.65m11.55,-2.6l2.85,-0.35q8.65,-0.95 16.55,0.3l-6.3,6.7l-13.1,0l0,-5.3l0,-1.35m43.25,16.8l0.85,0.15q5.15,1.2 1.2,5.6q2.5,2.55 1.7,7.65q1.85,3 1.85,9.75q0,5.9 -1.4,14.65m-45,47.9q7.35,13.55 7.65,23.35m-0.5,1.1q0,0.2 0.15,0.3q2.45,5.4 -1.7,5.5l-0.05,0l-0.55,0l0.5,0.2l0.05,0.05q5.1,2.7 7,18.1q-4.95,5.55 -9.8,6.8l-4.35,0.25l-7.4,3.9l-0.15,-0.05q-11.65,-4.55 -11.65,-10.85q-1.45,3.5 -4.8,7l-0.6,0m-20.55,-22.1l0,6.4l0.8,1.1l0.05,0.05q14.1,19.2 18.4,48.25m0.05,0.2q4.45,-0.25 5.85,5.45q-0.55,5.9 -4,6.9q5.45,4.4 7.55,13.5q2.85,6.75 -8.45,11.75l-2.9,0.5m-67.85,-21.3q-2.9,-2.05 0.45,-6.6q4.75,-4.75 15.7,1.1m-13.65,-24.95q-7.25,4.15 -14.55,5.25l-7.1,7.9l-0.3,0.05q0.7,7.5 -1.55,15l10.8,13.2q2.4,5.9 -3.6,6.8m-4.75,0.6q1.35,2.35 2.25,5.3q3.8,7.55 -4.4,10.65m-21.3,-5.65q0.4,3.35 -0.2,7.25q-2.8,1.9 -5.55,3.15m-25.05,-3.15l-17.3,5.7l-5.75,-0.25m-5.4,-24q-3.9,-3.1 0.55,-9.25l1.75,-1.75m0.05,-0.25l0.6,-10.3l-49.65,-2.1l-1.05,-0.15l1.95,-2.35m49.8,-13.65l-9.25,-5.45l-0.15,-0.2l0.05,-0.1m162.3,-172.05l-0.1,0.2l-0.15,-0.05q-10.65,1.4 -16.75,8.45l-10.5,5.55m27.05,-5.7l-0.15,-4.35m12.45,-2.85l-6.25,3.65l0,6.35l0.25,0.2l1,0.8l0.05,0.05l3.55,-0.5l-1.2,1.9q6.5,3.15 13.75,-2.45l2.75,-10.45l1.8,-6.8m-28,14.45l6.05,-3.55m39.05,-4.5q-6.35,-1.65 -12.7,0l-6.1,10.35l14.6,-2.8l4.2,-7.55m12.65,8.6l-7.9,0.25q-19.4,5.25 -17.25,29l0.4,2.75l0.05,0.05q2.3,11.9 14,23.7l0.1,0.1l0.2,0.2l0,-0.2l0,-0.1q0.7,-18.75 37.05,-21.5q-0.7,-0.65 0.6,-0.35q1.05,-2.9 1.4,-11.6q-7.7,-0.25 -14.8,0.25l-14.9,1.85l0.5,0.85q0.6,1.35 0.65,3.35q-0.05,1.9 -0.65,3.3q-0.6,1.35 -1.5,1.4q-0.9,-0.05 -1.5,-1.4q-0.6,-1.4 -0.6,-3.3q0,-2 0.6,-3.35l0.2,-0.4q-7.65,1.6 -14.55,4.2l-1.2,0.45l-2,0.85m-3.4,1.65l3.4,-1.75q-5.25,-25.15 21.05,-29.8l0.1,-0.45q5.6,1.05 8.75,6.05l0.45,0.7l0.55,1.05l0.1,0.45l0.1,0l0.1,-0.15q3.95,-4.8 9.35,-5.5q5.15,-0.25 7.65,2.35m-27.1,-4.95l0.05,0m-0.1,0.45l0.1,-0.45m21.7,-1l3.3,0.2m3.6,23.1l0.15,-9.7m-18.8,-4.35l-0.2,-0.45m-1,-1.75l2.5,8.15l-1.15,-5l-0.25,-0.95m0.1,0l0.15,0.95m7.35,13.7l1,0.75q0.4,0.75 0.4,1.85q0,1.05 -0.4,1.85q-0.45,0.75 -1,0.75q-0.6,0 -1,-0.75q-0.45,-0.8 -0.45,-1.85q0,-1.1 0.45,-1.85q0.4,-0.75 1,-0.75m-20.85,1.95q0.55,-1 1.3,-1q0.55,0 1,0.55m-20.05,5.85l0,0.1m0,-0.1l2,-0.75m3.3,54.15q-0.2,-7 0.75,-13m-127.15,-2.65l-1.45,10.15m-2.05,35.3l0.15,6.5m27.85,16.35q4.25,-12.15 14.7,-16.45m28.5,10.2q1.7,-2.85 3.7,-4.35l-0.6,-2.9l-2.9,-3.9q0.1,-15.7 -0.8,-29.45l-0.5,-6.9q-1,-10.7 -2.6,-20.1q-1.7,-9.85 -4.1,-18.25m23.4,-24.95l0.05,-0.1q1.65,-3.25 4.6,-4.85l6.2,-9.6m-18.9,-0.1l1.15,-0.5l8.05,-4.65m3.5,14.85q1.55,-0.85 3.5,-1.25m-31.35,-3.75l-0.25,2.75q7.4,-3.8 15.15,-7.3m-32.1,16.5l-3.45,-1.95m-25.8,21.25l0.2,-0.15l18.5,-13.65q4.5,-1.95 10.3,-5.35l0.25,-0.15q8.2,-4.8 16.95,-9.2m-21.55,36.3l8.6,11.05l-9.1,6.35l-10.35,-3.3l-0.9,-10.35l3.15,-5.9l8.6,2.15m44.5,18q2.85,0.4 5.5,-0.05m-12.65,26.7l3.55,1.5m3.6,-28.15q-7.25,-1.15 -18.35,-11.25m2.15,27.45q4.35,3 8.75,4.4m-8.25,2.5l8.55,3.55m13.95,21.35q4.45,-8.25 8.85,-2.95m6.9,11l7.3,-5.85l0.3,0.15m9,9.5l9.5,-11.05m-63.2,18.1l1.55,9.65q-3.35,11.7 -13.15,10.65q-4.2,-0.45 -9.55,-3.2l-1.65,4.4q-6.75,6.55 -13.45,6.05l-0.3,0l-6.1,-7l-12.55,0.35q-6.3,-0.95 -10.05,-4.65l5.2,16.8l8.95,-0.25m50.55,-36l0.55,3.2m3.3,-5.15l-0.15,-2.4q1.9,-1.45 4.15,-1.6m8.6,2.1q2.75,-7.15 9.1,-9.25m12.4,16.6q2.25,-5.6 -0.3,-11.15m-51.75,-0.35q6.15,-9.25 12.4,0.6m-36.6,-1.8q10.85,-14.1 14.75,-4.1m-14.95,74.5q1.3,-1.1 5.55,-2.65l2.1,-1l3.75,1.75m14.75,16.85q2.3,-11.7 11.55,-19.25m19.25,13.7l7,-15.85m5.8,-10.5q-7.75,-0.7 -13.15,3.2m-30.1,7.35q9.25,-12.1 23.6,-3.25m42.65,-55.4q2.65,5.8 2.9,14.35m1.35,-25q0.95,-7.4 7.9,-7.3m-26.8,7.3q3.25,-9.9 13,2.35m-34.15,82.75l2.5,5.8q0.45,2.5 0.2,4.65m-33.5,-4.9q0.85,3.4 0.8,7.3m-33.85,-188.15q2.2,-1 4.45,-1.5m-17.8,10.8l2.4,-2.2q5.45,-4.8 10.95,-7.1l1.2,2.85m-34.25,22.15l3.15,-3.4l1,3.05m-0.85,-3.2q7.25,-7.35 14.45,-10.95l0.2,-0.1l1.75,-1.1m-5.15,13.7l1.45,-1.2l-1.25,-2.45m7.35,-12.25l-0.2,7.2l2.5,0.9l-8.4,6.6m-30.15,14.55q5.95,-8.55 14.15,-11.35m-48.75,55.3q10.25,-19.1 23.25,-33.3l7.85,-7.85l3.5,-2.8m6.35,6.95l3.65,-3.65l9.25,-8.65l5.55,-4.8l3.9,-3.2m-22.35,20.3l-2.2,-1.5m-6.8,11.2l5.2,-5.75l3.8,-3.95m-15.9,17.9q-6.55,8.05 -12.4,16.65l-2.85,-1.25m22.15,-23.6l-6.9,8.2m-1.8,-14.2l3.1,5.4m50.75,-8.25l6.1,5.2l8.45,-3.75l-9.85,-7.85l-4.7,6.4m-74.4,32.45l1.8,4.15m-4.5,-0.45l-4.3,7.8l-1.05,1.35l3.35,0.75m-12.65,18.35q2,-9.55 9.3,-19.1m-11,22.85l1.7,-3.75m-1.7,3.75l-5.1,11.05l2.9,4.6m5.6,-2.85l0.65,-1.5l0.3,-0.75l5.15,-11.2q4.85,-10.1 10.45,-19.55l7,-11.15l1.65,-2.55l0.4,-0.55m-24.7,34.2l2.95,2.35m-3.85,10.7l-0.9,-0.3m-4.05,12.85l0,0.05m0,-0.1l0,0.05m4.95,-12.55l-4.95,12.5m8.05,34.45q7.15,-4.15 13.2,-3.95m-24.8,-44.75l-1.95,4.2m85.9,-3.4q-5.55,-5.5 -5.65,-16.45m4.9,-17.65q5,-11 16.55,-2.35m-62.75,6.2l-3.05,2.45m-6.9,19.75l6.1,10.4l10.8,-3.3m43.2,44.55q-14.75,-3.6 -20.15,1.5m23.7,-20.6q-0.4,-3.85 -1.55,-7.7m16.3,-30q1.3,7.65 1.1,17.5m-39.35,61.95q-0.65,-6.3 2.15,-15.45q1.75,-1.45 3.55,-1.9m-35.55,28.75q0.55,-13.1 9.65,-21.2m-38.1,2.65l2.1,-2.15q6.5,-4.95 12.95,-5.55m15.6,-0.1q7.45,-12.6 20.4,-2.95"/>
   <path id="svg_71" stroke-width="1.5" stroke-opacity="0.423529" stroke-linejoin="round" stroke-linecap="round" stroke="#534831" fill="none" d="m83.65,-214.6q5.95,-1.8 11.55,-2.6m19.4,-0.05q8.55,1.35 16.3,5.3q4.65,4.85 7.55,11.55m4.2,37.8l8.45,28.75q4.05,12.95 -22.25,34.05q-3.8,3 -8.2,6.2q-0.9,-7 -22.4,-21.95l-0.65,-0.4m-37.55,127.45q-0.95,7.7 -11.05,10.85l-4.45,0.1m-17.2,-8.55q-0.8,7.4 -11.75,9.85l-0.3,-0.05m24.05,-236.1q8.6,-2.9 16.5,3.95m30.3,78.65l-1.05,2.2l-2.2,3.15l2.8,7.55l9.5,-1l-9.05,-11.9m-85.85,-28.65l0.7,0.6l-6.1,8l-5.45,-2.05m-4.9,4.05l9.4,2.25l-5.15,13.15l-13.2,-6.1l8.9,-9.25m-14.75,26.35q-1.1,8.8 -1.6,17.6q-0.5,8.85 -0.45,17.7l-9,-3.2l9.15,9.7l0.7,13.1q-4.5,-13.55 -17.65,-16.9l-2.05,-0.45q-3.85,-1.25 -7.9,-1.2q10.65,-25.65 28.8,-36.35m99.5,-13.8q5.6,-1.4 10.35,0l1.4,7.5l-9.4,5.65l-7.05,-5.65l4.55,-7.3m-28.9,68.55l7.8,5.6l6.4,-4.8l-3.2,-7.55l-8.45,1.75q-0.1,2.7 -2.05,2.55l-0.5,2.45m-39.9,-91.95l-6.05,-5.25l-8.2,10.45l3.4,1.35m-4.9,4.05l-0.05,0.05m-69.15,81.1q3.85,-6.75 8.85,-11.2m12.75,12.8l6.4,-5.45l-3.2,-8.7l-10.05,2.4l-0.9,5.35l7.75,6.4"/>
   <path id="svg_72" stroke-width="4.75" stroke-opacity="0.6" stroke-linejoin="round" stroke-linecap="round" stroke="#534831" fill="none" d="m-42.55,-199.1l2.85,-1.35m105.05,5.55l-1.8,-1l-0.55,-0.4m-78.35,48.35l-0.1,0.1l-0.15,0l-1.15,-0.3m-9.85,4.35l-2.2,12.2m85,-33.55l0.1,0.4l0.1,0.45l0.2,0.8q1.45,4.8 5.15,6.95q2.15,1.2 5.15,1.5l1.85,2.45"/>
   <path id="svg_73" stroke-width="4.75" stroke-opacity="0.423529" stroke-linejoin="round" stroke-linecap="round" stroke="#534831" fill="none" d="m54.5,-180.35q-1.25,2.5 -1.7,4.2q0.15,7.1 2.65,10.2m-123.45,82.8q6.35,-14.1 15.25,-25.5"/>
   <path id="svg_74" stroke-width="3.5" stroke-opacity="0.6" stroke-linejoin="round" stroke-linecap="round" stroke="#534831" fill="none" d="m11.35,-213.15q-24.45,-3.1 -45.6,9.25l-4.7,2.95l-0.75,0.5m111.15,141.4q-8.35,0.1 -11.6,-6.55l-4.5,-7.8l-4.45,-7.75m17.35,94.1q-6.45,0.85 -8.2,-1.45m-15.5,10.95q-13.15,-0.4 -17.2,-8.55m-12.05,9.8q-19.45,-5.25 -20.85,-14.05q3.2,-15.75 5.95,-18m0.45,-6.6q-1.65,-10.6 2.05,-23.85m-16.3,48.2l-4.75,0.6m-2.15,15.95q-4.75,1.8 -13.5,2.05q-5.8,-2.25 -7.8,-7.7m-5.75,10.4q-13.2,6 -25.05,-3.15m-23.05,5.45q-6.45,-1.85 -10.35,-11.1q-1.35,-5.8 4.7,-12.65m-45.1,-26.45q22.85,-2.6 49.35,-13.6m-9.25,-5.45l-3.35,2.35q-6.15,-0.75 -4.65,-7.4l0.1,-0.35l2.3,-5.05q-9.1,-9.3 -6.7,-18.75q-7.6,-14.5 -2.6,-29.35q-5.8,-18.3 8.1,-33.55q1.9,-14.8 15.15,-30.9q6.35,-7.75 11.45,-9.2m0.6,-0.6q16.95,-26.9 43.15,-30.05m128.7,69.3l-16.65,-21.85m-166.15,126.15q-0.8,6.15 -1.25,12.95m25.15,-67.8l0.4,6.25l-5.85,4.35q-3.25,1.5 -6.45,3.05"/>
  </g>
  <g id="sprite0">
   <use id="svg_75" xlink:href="#shape1" width="102.95" height="45"/>
  </g>
  <g id="shape1">
   <path id="svg_76" fill-rule="evenodd" fill-opacity="0" fill="#ff00ff" d="m102.95,45l-102.95,0l0,-45l102.95,0l0,45"/>
  </g>
  <linearGradient y2="0.183779" y1="0.476154" x2="0.950319" x1="0.48173" spreadMethod="pad" id="gradient0">
   <stop stop-color="#8b9830" offset="0"/>
   <stop stop-color="#4a4d1a" offset="1"/>
  </linearGradient>
  <radialGradient spreadMethod="pad" r="819.2" id="gradient1" gradientUnits="userSpaceOnUse" gradientTransform="matrix(0.054, 0.0, 0.0, 0.054, 4.15, -206.25)" cy="0" cx="0">
   <stop stop-color="#8b9830" offset="0"/>
   <stop stop-color="#4a4d1a" offset="1"/>
  </radialGradient>
  <linearGradient y2="-0.171736" y1="0.584991" x2="0.978253" x1="0.407068" spreadMethod="pad" id="gradient2">
   <stop stop-color="#8b9830" offset="0"/>
   <stop stop-color="#4a4d1a" offset="1"/>
  </linearGradient>
  <linearGradient y2="0.140536" y1="0.594791" x2="0.676302" x1="0.277946" spreadMethod="pad" id="gradient3">
   <stop stop-color="#8b9830" offset="0"/>
   <stop stop-color="#4a4d1a" offset="1"/>
  </linearGradient>
  <linearGradient y2="0.050344" y1="0.532133" x2="0.929816" x1="0.293813" spreadMethod="pad" id="gradient4">
   <stop stop-color="#8b9830" offset="0"/>
   <stop stop-color="#4a4d1a" offset="1"/>
  </linearGradient>
  <linearGradient y2="0.298292" y1="0.693846" x2="0.557222" x1="0.419413" spreadMethod="pad" id="gradient5">
   <stop stop-color="#b0ab73" offset="0"/>
   <stop stop-color="#705e34" offset="1"/>
  </linearGradient>
  <linearGradient y2="0.166008" y1="0.706331" x2="0.196495" x1="0.687401" spreadMethod="pad" id="gradient6">
   <stop stop-color="#bca86b" offset="0"/>
   <stop stop-color="#705e34" offset="1"/>
  </linearGradient>
  <linearGradient y2="0.710327" y1="0.302941" x2="0.288109" x1="0.496998" spreadMethod="pad" id="gradient7">
   <stop stop-color="#bca86b" offset="0"/>
   <stop stop-color="#705e34" offset="1"/>
  </linearGradient>
  <linearGradient y2="0.223874" y1="0.401239" x2="0.245516" x1="0.44104" spreadMethod="pad" id="gradient8">
   <stop stop-color="#bca86b" offset="0"/>
   <stop stop-color="#705e34" offset="1"/>
  </linearGradient>
  <linearGradient y2="0.584582" y1="0.570622" x2="0.924167" x1="0.6627" spreadMethod="pad" id="gradient9">
   <stop stop-color="#514326" offset="0.007843"/>
   <stop stop-color="#8f7845" offset="0.988235"/>
  </linearGradient>
  <linearGradient y2="0.419879" y1="0.773731" x2="0.38433" x1="0.484773" spreadMethod="pad" id="gradient10">
   <stop stop-color="#bca86b" offset="0"/>
   <stop stop-color="#705e34" offset="1"/>
  </linearGradient>
  <linearGradient y2="0.411418" y1="0.611267" x2="0.379641" x1="0.643165" spreadMethod="pad" id="gradient11">
   <stop stop-color="#bca86b" offset="0"/>
   <stop stop-color="#705e34" offset="1"/>
  </linearGradient>
  <linearGradient y2="-2.722097" y1="-1.9029" x2="-17.438258" x1="-9.149904" spreadMethod="pad" id="gradient12">
   <stop stop-color="#bca86b" offset="0"/>
   <stop stop-color="#705e34" offset="1"/>
  </linearGradient>
  <linearGradient y2="9.923682" y1="16.170088" x2="-2.130481" x1="3.030479" spreadMethod="pad" id="gradient13">
   <stop stop-color="#bca86b" offset="0"/>
   <stop stop-color="#705e34" offset="1"/>
  </linearGradient>
  <linearGradient y2="0.857718" y1="0.469898" x2="-0.485756" x1="0.549524" spreadMethod="pad" id="gradient14">
   <stop stop-color="#ad8527" offset="0"/>
   <stop stop-color="#62522f" offset="1"/>
  </linearGradient>
  <linearGradient y2="5.57136" y1="4.213683" x2="-4.507232" x1="0.843169" spreadMethod="pad" id="gradient15">
   <stop stop-color="#bca86b" offset="0"/>
   <stop stop-color="#705e34" offset="1"/>
  </linearGradient>
  <linearGradient y2="62.970562" y1="146.528646" x2="-46.93112" x1="-24.887161" spreadMethod="pad" id="gradient16">
   <stop stop-color="#bca86b" offset="0"/>
   <stop stop-color="#705e34" offset="1"/>
  </linearGradient>
  <linearGradient y2="0.779163" y1="0.546273" x2="0.288691" x1="0.563192" spreadMethod="pad" id="gradient17">
   <stop stop-color="#bca86b" offset="0"/>
   <stop stop-color="#705e34" offset="1"/>
  </linearGradient>
  <linearGradient y2="0.443562" y1="0.583836" x2="-0.354387" x1="0.442861" spreadMethod="pad" id="gradient18">
   <stop stop-color="#ffffff" offset="0"/>
   <stop stop-color="#d2c4a4" offset="1"/>
  </linearGradient>
  <linearGradient y2="0.082866" y1="0.8338" x2="1.066454" x1="0.172781" spreadMethod="pad" id="gradient19">
   <stop stop-color="#8b9830" offset="0"/>
   <stop stop-color="#4a4d1a" offset="1"/>
  </linearGradient>
  <radialGradient spreadMethod="pad" r="819.2" id="gradient20" gradientUnits="userSpaceOnUse" gradientTransform="matrix(0.0199, 0.0, 0.0, 0.0199, -11.8, -179.1)" cy="0" cx="0">
   <stop stop-color="#737a27" offset="0"/>
   <stop stop-color="#20200b" offset="1"/>
  </radialGradient>
  <linearGradient y2="0.163252" y1="0.575641" x2="0.988661" x1="0.447733" spreadMethod="pad" id="gradient21">
   <stop stop-color="#8b9830" offset="0"/>
   <stop stop-color="#4a4d1a" offset="1"/>
  </linearGradient>
  <linearGradient y2="0.159857" y1="0.204121" x2="0.615088" x1="0.692679" spreadMethod="pad" id="gradient22">
   <stop stop-color="#b0ab73" offset="0"/>
   <stop stop-color="#705e34" offset="1"/>
  </linearGradient>
  <linearGradient y2="0.199792" y1="0.67305" x2="1.040108" x1="0.406011" spreadMethod="pad" id="gradient23">
   <stop stop-color="#8b9830" offset="0"/>
   <stop stop-color="#4a4d1a" offset="1"/>
  </linearGradient>
  <radialGradient spreadMethod="pad" r="819.2" id="gradient24" gradientUnits="userSpaceOnUse" gradientTransform="matrix(0.0439, 0.0, 0.0, 0.0439, -59.0, -173.2)" cy="0" cx="0">
   <stop stop-color="#737a27" offset="0"/>
   <stop stop-color="#20200b" offset="1"/>
  </radialGradient>
  <linearGradient y2="0.25328" y1="0.588581" x2="0.701882" x1="0.305038" spreadMethod="pad" id="gradient25">
   <stop stop-color="#8b9830" offset="0"/>
   <stop stop-color="#4a4d1a" offset="1"/>
  </linearGradient>
  <linearGradient y2="0.097153" y1="0.526428" x2="1.00539" x1="0.358114" spreadMethod="pad" id="gradient26">
   <stop stop-color="#8b9830" offset="0"/>
   <stop stop-color="#4a4d1a" offset="1"/>
  </linearGradient>
  <radialGradient spreadMethod="pad" r="819.2" id="gradient27" gradientUnits="userSpaceOnUse" gradientTransform="matrix(0.0523, 0.0, 0.0, 0.0523, -76.75, -128.35)" cy="0" cx="0">
   <stop stop-color="#737a27" offset="0"/>
   <stop stop-color="#20200b" offset="1"/>
  </radialGradient>
  <radialGradient spreadMethod="pad" r="819.2" id="gradient28" gradientUnits="userSpaceOnUse" gradientTransform="matrix(0.0139, 0.0, 0.0, 0.0139, -47.2, -147.2)" cy="0" cx="0">
   <stop stop-color="#8b9830" offset="0"/>
   <stop stop-color="#4a4d1a" offset="1"/>
  </radialGradient>
  <linearGradient y2="0.337049" y1="0.486266" x2="0.359025" x1="0.922225" spreadMethod="pad" id="gradient29">
   <stop stop-color="#ad8527" offset="0"/>
   <stop stop-color="#62522f" offset="1"/>
  </linearGradient>
  <linearGradient y2="0.170543" y1="0.61998" x2="0.999349" x1="0.520651" spreadMethod="pad" id="gradient30">
   <stop stop-color="#8b9830" offset="0"/>
   <stop stop-color="#4a4d1a" offset="1"/>
  </linearGradient>
  <linearGradient y2="-0.101675" y1="0.641129" x2="1.405943" x1="0.434597" spreadMethod="pad" id="gradient31">
   <stop stop-color="#8b9830" offset="0"/>
   <stop stop-color="#4a4d1a" offset="1"/>
  </linearGradient>
  <linearGradient y2="-0.056572" y1="0.489562" x2="0.735526" x1="0.190855" spreadMethod="pad" id="gradient32">
   <stop stop-color="#8b9830" offset="0"/>
   <stop stop-color="#4a4d1a" offset="1"/>
  </linearGradient>
  <linearGradient y2="0.229244" y1="0.670245" x2="0.714981" x1="0.305042" spreadMethod="pad" id="gradient33">
   <stop stop-color="#8b9830" offset="0"/>
   <stop stop-color="#4a4d1a" offset="1"/>
  </linearGradient>
  <radialGradient spreadMethod="pad" r="819.2" id="gradient34" gradientUnits="userSpaceOnUse" gradientTransform="matrix(0.0319, 0.0, 0.0, 0.0319, -107.4, -117.1)" cy="0" cx="0">
   <stop stop-color="#737a27" offset="0"/>
   <stop stop-color="#20200b" offset="1"/>
  </radialGradient>
  <linearGradient y2="-0.062916" y1="0.674163" x2="0.725081" x1="0.173232" spreadMethod="pad" id="gradient35">
   <stop stop-color="#8b9830" offset="0"/>
   <stop stop-color="#4a4d1a" offset="1"/>
  </linearGradient>
  <linearGradient y2="0.590488" y1="0.402871" x2="0.111613" x1="0.752991" spreadMethod="pad" id="gradient36">
   <stop stop-color="#bca86b" offset="0"/>
   <stop stop-color="#62522f" offset="1"/>
  </linearGradient>
  <linearGradient y2="-0.104822" y1="0.544451" x2="1.005825" x1="0.541274" spreadMethod="pad" id="gradient37">
   <stop stop-color="#bca86b" offset="0"/>
   <stop stop-color="#62522f" offset="1"/>
  </linearGradient>
  <linearGradient y2="0.366517" y1="1.378656" x2="1.023565" x1="0.035375" spreadMethod="pad" id="gradient38">
   <stop stop-color="#bca86b" offset="0"/>
   <stop stop-color="#62522f" offset="1"/>
  </linearGradient>
  <linearGradient y2="0.913838" y1="0.240924" x2="0.110743" x1="0.561731" spreadMethod="pad" id="gradient39">
   <stop stop-color="#dbb357" offset="0"/>
   <stop stop-color="#62522f" offset="1"/>
  </linearGradient>
 </defs>
 <g>
  <title>background</title>
  <rect fill="none" id="canvas_background" height="261" width="308" y="-1" x="-1"/>
 </g>
 <g>
  <title>Layer 1</title>
  <g id="svg_77">
   <use x="151" y="221" id="svg_78" xlink:href="#shape0" width="381" transform="matrix(1,0,0,1,-192.55,-294) " height="381"/>
   <use x="-2.47586" y="-2.705481" xlink:href="#sprite0" width="102.95" transform="matrix(2.019499999999999,0,0,1.8481,112.29999999999997,30.500000000000007) " id="_mcMask" height="45"/>
  </g>
 </g>
</svg>