<svg width="180" height="186" xmlns="http://www.w3.org/2000/svg" xmlns:xlink="http://www.w3.org/1999/xlink">
 <defs>
  <g transform="matrix(1,0,0,1,192.55,294) " id="shape0">
   <path id="svg_1" stroke-opacity="0" stroke-linejoin="round" stroke-linecap="round" stroke="#ff00ff" fill="none" d="m187.95,-293.5l0,380l-379.95,0l-0.05,0l0,-380l380,0m-95,294.1l-189.95,0"/>
   <path id="svg_2" stroke-opacity="0" stroke-linejoin="round" stroke-linecap="round" stroke="#ff00ff" fill="none" d="m187.95,-293.5l-190,190l190,190m-380,-380l190,190l-189.95,190"/>
  </g>
  <g transform="matrix(1,0,0,1,-3.35,22.15) " id="shape1">
   <path id="svg_3" fill-rule="evenodd" fill="#c5c5c5" d="m82.6,69.7l5,-1.1l-0.6,0.5q-1.3,1.1 -1.5,2.2l-2.9,-1.6m3.65,2q5.75,-1.35 12.7,-2.45l2.2,-0.3q-2.75,2.6 -9.1,4.9l-0.95,0.3l-0.6,-0.3l-0.95,-0.5l-3.3,-1.65m5.25,2.75l15.8,-2.25l0.35,0.2l-4.75,2.1l3.35,-0.25l5.6,-0.4l4.8,-0.25l0.25,0.35q-10.45,2.15 -22.75,3.7q-0.4,-1.75 -2.65,-3.2m2.75,3.8q12.5,-0.6 25.6,-0.05l-0.15,0.2l0.75,0.1l-0.65,0.15l-9.45,1.2l-0.65,0.05l-6.3,0.5l3.9,0.5l3.25,0.75l-1.75,0.1q-6.25,0.35 -12.7,0.25l9.35,0.95q5.9,0.85 9.35,2.25l-2.4,0.1q-8.5,0.15 -15.9,-0.35l-6.55,-0.55l2.45,-2.35q1.85,-2 1.85,-3.8m-6.8,7.9l5.1,0.55q7.6,0.75 2.85,1.9l-3.55,0.65q-10.65,1.65 -18.9,-2.5l-4.2,0.5l-3,0.15l-1.05,0.05l-4.8,1.85l4.2,-1.45l-6.4,3.05l-2.2,0.25l5.65,-12.5l-4.25,6.85l4.8,-8.7l1.05,-0.05l3.05,-0.7q2.25,-0.75 4.2,-2.3l0.55,1.25l-1.15,0.2l0.3,0.05l0.85,-0.25q7.45,16.3 16.9,11.15m-43.3,1.6l-7.5,-0.2l-1.05,-0.1l-4.25,0.4l-1,0.15l-11.2,1.45q-8.45,0.55 -8.7,-1.8l-0.2,-2q1.9,1.35 5.05,0.55l0.3,-0.05l0.55,-0.15l1.1,-0.55l0.45,0.15l2.3,-1.3l0.8,0.45l0.9,0.1l2.9,2.65l7.9,-0.55l-5.05,-1q-2,-0.65 -2.75,-1.25q-0.6,-0.5 -0.55,-0.95l0.2,-0.5l-0.5,-0.05l-1.7,-0.35l2.65,-1.55l0.75,0.1l-0.1,-0.2l-0.15,-0.2l2.1,-1.45l1,-0.95l4.2,-1.75l1.05,0.45q4.2,1.8 8.6,0.75l0.7,-0.05q0.1,4.95 1.2,9.75m-20.85,-11.25l-0.5,-0.2l-1.5,-0.7l-1.1,-4.55l7.35,4.15l-4.25,1.3"/>
   <path id="svg_4" fill-rule="evenodd" fill="#ded5cb" d="m86.35,18.1l17.95,-11.55l0.35,0.85l-4.75,9.7l-16.25,10l-9.2,5.7l0.45,-4l4.05,-2.8q3.55,-2.8 6.35,-6.4l0.9,-1.25l0.15,-0.25m14.1,26.1q2.05,1 3.9,2.5q1.85,1.55 3.2,3.4l-1.7,0.45q-6.25,1.65 -12.7,1.05l-10.9,-2.85l-4.25,-1.15l0.6,-1.1l10,-1.05l11.85,-1.25m-25.95,-44.25l10.1,-10.15l-0.6,2.3q-1.65,6.4 -1.55,13l-9.1,8.7l-5.3,5.1q1.85,-2.75 3.2,-5.7q1.6,-3.65 2.45,-7.6l0.05,-0.1l0.5,-3.15l0.25,-2.4m-17.85,20.2l-3.25,-1.95l-0.2,-7.9l-0.05,-2.5l9.7,-26l2.05,19.2l-4.5,10.45l-1.7,4l-2.05,4.7m-18.05,-17.5l4.2,-14l2.05,4.1l-1.35,17l-0.4,4.35l-2.4,-6.15l-2.1,-5.3"/>
   <path id="svg_5" fill-rule="evenodd" fill="#fcf1e9" d="m99.9,17.1q1.65,-0.7 3.35,-1.25q5.05,-2 10.4,-2.95l0.25,1.55q-12.05,11.6 -26.7,19.15l-6.05,-1.45l2.5,-5.05l16.25,-10m-14.1,18.85l5.1,-1.45q12.7,-3 28.35,-5.05l2.75,3.45l-4.55,2.7l-0.6,0.6q-4.5,3.25 -9.45,5.5l-0.7,0.3q-3.05,1.25 -6.25,2.2l-11.85,1.25l-0.25,-2.5l-4.1,-2.4l1.55,-4.6m7.35,15.65q4.95,1.55 9.3,4.5q5.95,4.1 9.35,10.4l-2.35,0.4q-8.55,0.8 -15.9,-1.5l-11.3,-10.45l0,-6.2l10.9,2.85m-13.7,16.05l3.15,2.05l2.9,1.6l0.75,0.4l3.3,1.65l0.95,0.5l0.6,0.3l0.4,0.3q2.25,1.45 2.65,3.2l0.1,0.6q0,1.8 -1.85,3.8l-2.45,2.35l-1.05,0.8l-8.55,-7.65l-1.9,-10.55l0.6,0.4l0.4,0.25m3,-62.55q6.1,-6.85 13.55,-12.2l2.15,-1.55q-3.3,14.55 -11.8,26.75l-0.15,0.25l-9.75,4.5l-4.25,-3.35l1.15,-5.7l9.1,-8.7m-17.55,-4.1q2.6,-5.85 6.35,-10.95l2.5,-3.2l2.35,-2.65l0,2.65l0,0.1q-0.15,5.05 -1.05,10.1l-0.55,2.9l-0.25,2.4l-0.5,3.15l-0.05,0.1l-1.15,-0.3l-7.65,10.85l-3.5,0.4l-0.15,0l-0.85,-5.1l0.85,5.1l0.15,0l0.25,2.45l-0.4,-2.45l-2.55,-1.1l1.7,-4l4.5,-10.45m-20.05,-8.25l2.55,-14.4l1.85,-0.5l3.9,29.95l0.05,2.5l-1.3,3.75l-4.3,1.45l-4.1,-5.75l1.35,-17m-12.35,25.2q-4.75,-6.7 -5.5,-15.15q-0.8,-8.7 0.45,-17.3l11.15,17.15l2.1,5.3l-0.8,6.85l-5.75,1.9l-1.65,1.25m-12.65,7.4q-4.75,-9.35 -5.6,-19.6l0,-0.35l-0.1,-0.8q-0.25,-4.05 0.15,-8.2l1.05,-0.4l12.3,22.7l-7.8,6.65m71.6,19.45l-3.1,-1.85l3.1,1.85m-73.35,-5.6l-1.7,-1.05l-1.8,-1.3q-7.2,-5.8 -7.35,-16.35l1.4,0l0.5,1.2q3.05,6.4 8.95,9.1l0,8.4m-0.65,14.85q-3.85,-3.95 -5.4,-7.45q-0.85,-1.9 -1.35,-3.95l-0.5,-2.05l0.6,-0.5l3,1.95l2.8,2.2l2.5,2.05l0.65,3.7l-2.3,4.05"/>
   <path id="svg_6" fill-rule="evenodd" fill="#e4ddd6" d="m87.2,33.6q-4.35,2.25 -8.95,4.15l-3.85,-3.4l0.05,-1.55l9.2,-5.7l-2.5,5.05l6.05,1.45m-9.2,5.45q0.3,-0.2 0.7,-0.3q3.5,-1.65 7.1,-2.8l-1.55,4.6l4.1,2.4l0.25,2.5l-10,1.05l0.3,-0.55l-0.45,-0.75q-1.75,-2.95 -0.45,-6.15m15.55,26.35q-5.25,-1.65 -9.85,-4.8l-3.85,-2.95l-2.7,-2.5l-0.3,-0.85q-0.5,-1.4 -0.45,-2.7l0.3,-1.65q0.4,-1.2 1.3,-2.35l4.25,1.15l0,6.2l11.3,10.45m-4.65,19.8l-1.45,0.95q-9.45,5.15 -16.9,-11.15l-0.55,-1.25l-0.25,-4.75l5.1,-4.7l3.6,2.7l1.9,10.55l8.55,7.65m-2.7,-66.85l-0.9,1.25q-2.8,3.6 -6.35,6.4l-4.05,2.8l-0.7,-0.05q-1.65,-0.15 -2.95,-0.8q-3.55,-1.75 -4.55,-7.35l1.35,-1.7l-1.6,1.4l-1.1,0.35l-3.7,0.65l-2.6,-0.3l-2.4,-0.85l2.05,-4.7l2.55,1.1l0.4,2.45l-0.25,-2.45l3.5,-0.4l7.65,-10.85l1.15,0.3q-0.85,3.95 -2.45,7.6q-1.35,2.95 -3.2,5.7l5.3,-5.1l-1.15,5.7l4.25,3.35l9.75,-4.5m-32.8,-0.15l-1.65,0.45l-0.45,0.15l-2.5,0.4l-6.3,0.15l-1.45,-0.35l-6,2.1l-2.55,-3.15l1.65,-1.25l5.75,-1.9l0.8,-6.85l2.4,6.15l0.4,-4.35l4.1,5.75l4.3,-1.45l1.3,-3.75l0.2,7.9m-10.3,-4.1l-0.6,5.25l0.6,-5.25m-15.95,12.85l-3.55,4.75l-0.95,-1.45q-1.55,-2.45 -2.8,-4.9l7.8,-6.65l-0.5,8.25m-3.9,5.45l-2,8.25l-3.15,-1.45l0,-8.4l2.65,1l2.5,0.6m-0.65,16.6l0.05,2.15l-0.4,2.75l-0.3,1.05l-0.1,0.4l-0.35,1.35l-0.15,0.85l-0.45,-0.35l-3.45,-3.15l2.3,-4.05l-0.65,-3.7l3.5,2.7"/>
   <path id="svg_7" fill-rule="evenodd" fill="#d29813" d="m78.25,37.75l-0.25,1.3q-1.3,3.2 0.45,6.15l0.45,0.75l-0.3,0.55l-0.6,1.1q-0.9,1.15 -1.3,2.35l-0.3,1.65q-0.05,1.3 0.45,2.7l0.3,0.85q0.7,5.5 -0.9,7.05q-1.6,1.5 -1.4,2.1l-5.1,4.7l0.25,4.75q-1.95,1.55 -4.2,2.3l-3.05,0.7l-1.05,0.05l-6.45,1.3l-1.15,-4.75l8.75,-0.9l5.9,-8l-0.7,-0.5l3.9,-9.5l-0.95,-3.05l1.55,-6.05l-5.1,-9.15l2.15,-1.35l-5.35,-8.35l-6.1,0l-3.2,-2.9l-9.25,-1.1l-5.8,1.7l-6.5,-2l1.65,-1.1l6,-2.1l1.45,0.35l6.3,-0.15l2.5,-0.4l0.45,-0.15l1.65,-0.45l3.25,1.95l2.4,0.85l2.6,0.3l3.7,-0.65l1.1,-0.35l0.25,0.3q1,5.6 4.55,7.35q1.3,0.65 2.95,0.8l0.7,0.05l-0.45,4l-0.05,1.55l3.85,3.4m-53.8,32.2l1.95,0.85l4.25,1.55q5.5,1.75 11.4,2.05l0.9,3.6l-0.7,0.05q-4.4,1.05 -8.6,-0.75l-1.05,-0.45l-3.1,-2.25l-5.05,-4.65"/>
   <path id="svg_8" fill-rule="evenodd" fill="#ebb81f" d="m33.4,22.2l6.5,2l5.8,-1.7l9.25,1.1l3.2,2.9l6.1,0l5.35,8.35l-2.15,1.35l5.1,9.15l-1.55,6.05l0.95,3.05l-3.9,9.5l0.7,0.5l-5.9,8l-8.75,0.9l-0.4,-1.55l5.3,-4.25l-0.25,-3.85l10.55,-8.95l-9.25,-19.55q-3.55,-0.95 -6.75,-2.6q-4.8,-2.5 -10.05,-3.2q-14.2,-1.8 -21.8,12.35l-0.2,-1.1l2,-8.25l0.35,-0.7l3.55,-4.75l6.25,-4.75m17.1,16.9l11,6.7l-11.3,5.75q-1.65,2.2 -4,3.75l-6.75,-1.15l3.5,3.8l-3.95,-2.2l-2,-4.95l0.15,-0.8l0.1,-0.3l10.1,-10.6l3.15,0m1,10.3l-1.3,2.15l1.3,-2.15m-28.85,1.75l2.9,0.45l1,2.45l-0.6,0.25l0.5,0.5l-1.95,1.75l-2.65,-1.2l0.1,-0.4l0.3,-1.05l0.4,-2.75m1.6,2.05l-0.2,2.15l1.9,-1.05l-1.9,1.05l0.2,-2.15"/>
   <path id="svg_9" fill-rule="evenodd" fill="#fcd258" d="m55.9,39.1l-5.4,0l5.4,0m-34.45,2.65q7.6,-14.15 21.8,-12.35q5.25,0.7 10.05,3.2q3.2,1.65 6.75,2.6l9.25,19.55l-10.55,8.95l0.25,3.85l-5.3,4.25l-1.75,-1.75l-3.1,-0.1l0.8,3.5l-3.85,-2.7l-2.5,-0.7l0,0.1l1.8,3.9l-3.75,-1.9l0.7,2.25q-5.9,-0.3 -11.4,-2.05l-4.25,-1.55l-1.95,-0.85q-2,-2.8 -2.75,-5.75q-0.6,-2.2 -0.55,-4.5l0.2,-2.15l0.15,-0.85l0.35,-1.35l2.65,1.2l1.95,-1.75l-0.5,-0.5l0.6,-0.25l-1,-2.45l-2.9,-0.45l-0.05,-2.15l-0.1,-0.95l-0.25,-1.55l-0.8,-4.75m28.75,9.8l11.3,-5.75l-11,-6.7l-3.15,0l-10.1,10.6l-0.1,0.3l-0.15,0.8l2,4.95l3.95,2.2l-3.5,-3.8l6.75,1.15q2.35,-1.55 4,-3.75m-24.05,0.15l-0.6,-0.1l0.6,0.1m14.1,19.9l0.3,0.15l0.8,0.4l-0.8,-0.4l-0.3,-0.15m-9.85,-14.1l-2.7,3.4l-1.85,-2.7l-2.15,4.35l0.15,1q-0.1,2.35 1.15,4.25q1.2,1.9 3.05,2.1l1.6,-0.2l1.65,-1.25l0.3,-0.4q1.1,-1.55 1.25,-3.85l0.05,-0.15l-2.5,-6.55m10.95,14.65l-0.8,-0.4l0.8,0.4m8.35,-10.75l2,-0.15q8.6,-1.4 13.2,-10l-0.85,-1.8l-9.3,2.4l-5.05,9.55"/>
   <path id="svg_10" fill-rule="evenodd" fill="#666600" d="m83.7,60.6l-4.25,7.05l-0.4,-0.25l-0.6,-0.4l-3.6,-2.7q-0.2,-0.6 1.4,-2.1q1.6,-1.55 0.9,-7.05l2.7,2.5l3.85,2.95m-28.2,30.55l-0.75,1.55l0.05,-1.5q-0.05,-9.15 -2.45,-18q-0.35,-1.25 -3.5,-3.25l3.1,0.1l1.75,1.75l0.4,1.55l1.15,4.75l1.65,7.4l4.25,-6.85l-5.65,12.5m-25.1,-33.65l2.5,6.55l-0.05,0.15q-0.15,2.3 -1.25,3.85l-0.3,0.4l-1.65,1.25l-1.6,0.2q-1.85,-0.2 -3.05,-2.1q-1.25,-1.9 -1.15,-4.25l-0.15,-1l2.15,-4.35l1.85,2.7l2.7,-3.4m-0.85,9.65l1.9,-0.25q0.4,-0.25 0.4,-0.6q0,-0.35 -0.4,-0.6l-1.05,-0.25l-1,0.25l-2.75,0.6q-2.35,0.35 -0.45,0.6l3.35,0.25m-0.2,-4.7q0.3,0.2 0.75,0.2l0.65,-0.2l0.35,-0.45l-0.35,-0.5l-0.65,-0.15l-0.75,0.15q-0.3,0.2 -0.25,0.5q-0.05,0.3 0.25,0.45m-5.5,1.1l9,0.65l-9,-0.65m8.75,13.3l-4.2,1.75l-1,0.95l-2.1,1.45q-0.25,0.1 -0.5,0.3l-2.65,1.55l-4.9,2.6l-1.1,0.55l0.6,-0.75l0.1,-0.2l1.65,-3l0.65,-1.75l0.4,-1.2l0.4,-1.75l0.3,-2.35l-0.1,-4l0,-0.25l0.05,0.3l1.1,4.55l0.35,1.4l1.65,-0.5l4.25,-1.3l1.95,-0.6l3.1,2.25m-11.15,4.65l6.95,-2.9q0.3,-0.6 -3.85,1.4q-0.9,0.4 -1.95,0.9l-1.15,0.6l0.2,-4.5l-0.2,4.5l1.15,-0.6q1.05,-0.5 1.95,-0.9q4.15,-2 3.85,-1.4l-6.95,2.9"/>
   <path id="svg_11" fill-rule="evenodd" fill="#949301" d="m54.75,92.7q-4.4,2.95 -8.8,-0.3l-0.65,-0.45q-0.65,-2.1 -1.15,-4.2q-1.1,-4.8 -1.2,-9.75l-0.9,-3.6l-0.7,-2.25l3.75,1.9l-1.8,-3.9l0,-0.1l2.5,0.7l3.85,2.7l-0.8,-3.5q3.15,2 3.5,3.25q2.4,8.85 2.45,18l-0.05,1.5m-44.5,-7.05q-2.65,-1.9 -2.75,-7.95q-0.15,-4.75 -0.9,-7.6q-0.8,-3.1 -2.4,-4.1l6.5,2.9l-2.45,-5.55l1.45,1.45l5.05,3.5l-0.75,-6.45l3.1,3.5l2.45,4.35l0.6,1.05l0,0.25l0.1,4l-0.3,2.35l-0.4,1.75l-0.4,1.2l-0.65,1.75l-1.65,3l-0.1,0.2l-0.6,0.75l-0.55,0.15q0.1,-0.45 -1.05,-2.55q-2.45,-4.5 -2.95,-7.2q-0.55,-2.7 0.7,-4.25q1.15,-1.65 0.8,-2.05q-0.6,-0.7 -1.3,-0.65q-0.7,-0.05 -1.3,0.65q-0.4,0.4 -0.75,1.15q-0.85,1.85 -0.8,4.5q-0.05,2.55 0.8,4.4q0.85,1.9 4.05,4.9q1.05,1 1.5,1.15q-3.15,0.8 -5.05,-0.55m35.35,-8.25q-0.55,1.65 -0.55,4.05q0,2.4 0.55,4.05q0.6,1.7 2.65,3.35q2.05,1.7 2.85,0.35q0.8,-1.35 -0.6,-5.75l-2.05,-6.05q-0.6,-1.7 -1.4,-1.65q-0.85,-0.05 -1.45,1.65"/>
   <path id="svg_12" fill-rule="evenodd" fill="#feeaaf" d="m49.7,61.4l5.05,-9.55l9.3,-2.4l0.85,1.8q-4.6,8.6 -13.2,10l-2,0.15"/>
   <path id="svg_13" fill-rule="evenodd" fill="#585701" d="m55.25,78.1l6.45,-1.3l-4.8,8.7l-1.65,-7.4"/>
   <path id="svg_14" fill-rule="evenodd" fill="#acab02" d="m29.35,62.45q-0.3,-0.15 -0.25,-0.45q-0.05,-0.3 0.25,-0.5l0.75,-0.15l0.65,0.15l0.35,0.5l-0.35,0.45l-0.65,0.2q-0.45,0 -0.75,-0.2m0.2,4.7l-3.35,-0.25q-1.9,-0.25 0.45,-0.6l2.75,-0.6l1,-0.25l1.05,0.25q0.4,0.25 0.4,0.6q0,0.35 -0.4,0.6l-1.9,0.25m16.05,10.25q0.6,-1.7 1.45,-1.65q0.8,-0.05 1.4,1.65l2.05,6.05q1.4,4.4 0.6,5.75q-0.8,1.35 -2.85,-0.35q-2.05,-1.65 -2.65,-3.35q-0.55,-1.65 -0.55,-4.05q0,-2.4 0.55,-4.05m-30,8.75l-0.3,0.05q-0.45,-0.15 -1.5,-1.15q-3.2,-3 -4.05,-4.9q-0.85,-1.85 -0.8,-4.4q-0.05,-2.65 0.8,-4.5q0.35,-0.75 0.75,-1.15q0.6,-0.7 1.3,-0.65q0.7,-0.05 1.3,0.65q0.35,0.4 -0.8,2.05q-1.25,1.55 -0.7,4.25q0.5,2.7 2.95,7.2q1.15,2.1 1.05,2.55"/>
   <path id="svg_15" stroke-width="0.05" stroke-opacity="0.372549" stroke-linejoin="round" stroke-linecap="round" stroke="#423001" fill="none" d="m86.35,18.1l17.95,-11.55l0.35,0.85l-4.75,9.7q1.65,-0.7 3.35,-1.25q5.05,-2 10.4,-2.95l2.2,-0.35l-1.95,1.9q-12.05,11.6 -26.7,19.15q-4.35,2.25 -8.95,4.15l-0.25,1.3q0.3,-0.2 0.7,-0.3q3.5,-1.65 7.1,-2.8l5.1,-1.45q12.7,-3 28.35,-5.05l2.75,3.45l-4.55,2.7l-0.6,0.6q-4.5,3.25 -9.45,5.5l-0.7,0.3q-3.05,1.25 -6.25,2.2q2.05,1 3.9,2.5q1.85,1.55 3.2,3.4l-1.7,0.45q-6.25,1.65 -12.7,1.05q4.95,1.55 9.3,4.5q5.95,4.1 9.35,10.4l-2.35,0.4q-8.55,0.8 -15.9,-1.5q-5.25,-1.65 -9.85,-4.8m-4.25,7.05l3.15,2.05l2.9,1.6l0.75,0.4l3.3,1.65l0.95,0.5l0.6,0.3l0.4,0.3q2.25,1.45 2.65,3.2l0.1,0.6q0,1.8 -1.85,3.8l-2.45,2.35l-1.05,0.8l-1.45,0.95m-31.95,5l-0.75,1.55q-4.4,2.95 -8.8,-0.3l-0.65,-0.45q-0.65,-2.1 -1.15,-4.2q-1.1,-4.8 -1.2,-9.75l-0.9,-3.6l-0.7,-2.25l-0.8,-0.4l-0.3,-0.15m-30,14.05q-2.65,-1.9 -2.75,-7.95q-0.15,-4.75 -0.9,-7.6m67.9,-70.15l10.1,-10.15l-0.6,2.3q-1.65,6.4 -1.55,13q6.1,-6.85 13.55,-12.2l2.15,-1.55q-3.3,14.55 -11.8,26.75l-0.15,0.25l-0.9,1.25q-2.8,3.6 -6.35,6.4l-4.05,2.8l-0.45,4l9.2,-5.7l16.25,-10m-35,-16.1q2.6,-5.85 6.35,-10.95l2.5,-3.2l2.35,-2.65l0,2.65l0,0.1q-0.15,5.05 -1.05,10.1l-0.55,2.9l-0.25,2.4l-0.5,3.15l-0.05,0.1q-0.85,3.95 -2.45,7.6q-1.35,2.95 -3.2,5.7l5.3,-5.1l9.1,-8.7m-16,15.2l0.25,0.3l1.35,-1.7l-1.6,1.4l-1.1,0.35l-3.7,0.65l-2.6,-0.3l-2.4,-0.85l-3.25,-1.95l-1.65,0.45l-0.45,0.15l-2.5,0.4l-6.3,0.15l-1.45,-0.35l-6,2.1l-1.65,1.1m20.7,51.15l1.15,4.75l6.45,-1.3l1.05,-0.05l3.05,-0.7q2.25,-0.75 4.2,-2.3l-0.25,-4.75l5.1,-4.7q-0.2,-0.6 1.4,-2.1q1.6,-1.55 0.9,-7.05l-0.3,-0.85q-0.5,-1.4 -0.45,-2.7l0.3,-1.65q0.4,-1.2 1.3,-2.35l0.6,-1.1l0.3,-0.55l-0.45,-0.75q-1.75,-2.95 -0.45,-6.15m8.2,-20.7l-9.75,4.5l-4.25,-3.35l1.15,-5.7m-11.95,2.75l3.5,-0.4l7.65,-10.85m-19.4,2.5l9.7,-26l2.05,19.2l-4.5,10.45l0.85,5.1l0.15,0m-2.7,-1.1l-2.05,4.7m-11.8,-27.4l2.55,-14.4l1.85,-0.5l3.9,29.95l0.05,2.5l0.2,7.9m-14.8,-15.55l4.2,-14l2.05,4.1l-1.35,17l4.1,5.75l4.3,-1.45l1.3,-3.75m-14.6,-7.65l-11.15,-17.15q-1.25,8.6 -0.45,17.3q0.75,8.45 5.5,15.15l1.65,-1.25l5.75,-1.9l0.8,-6.85l-2.1,-5.3m-6.1,15.3l2.55,3.15m7.45,-1.75l0.6,-5.25l-2.4,-6.15m18,7.5l1.7,-4m-16.9,-1.7l-0.4,4.35m10.6,57.7l0.4,1.55m-26.95,-46.4l-3.55,4.75l-0.35,0.7l-2,8.25l0.2,1.1l0.8,4.75l0.25,1.55l0.1,0.95l0.05,2.15m2.9,0.45l0.6,0.1m-2.55,-20l-0.95,-1.45q-1.55,-2.45 -2.8,-4.9m-5.55,-28.95l0.3,-2.3l0.75,1.9m12.3,22.7l-0.5,8.25l6.25,-4.75m-11.55,33.15l-0.35,1.35l-0.15,0.85l-0.2,2.15q-0.05,2.3 0.55,4.5q0.75,2.95 2.75,5.75m-2.6,-14.6l0.1,-0.4l0.3,-1.05l0.4,-2.75m17.9,20.6l0.8,0.4l3.75,1.9l-1.8,-3.9l0,-0.1l2.5,0.7l3.85,2.7l-0.8,-3.5l3.1,0.1l1.75,1.75m1.05,20.9l0.05,-1.5q-0.05,-9.15 -2.45,-18q-0.35,-1.25 -3.5,-3.25m39.5,-27l-4.1,-2.4l1.55,-4.6m2.8,9.5l11.85,-1.25m-12.1,-1.25l3.1,1.85m-17,-12l-0.05,1.55l3.85,3.4m-11.55,-17.15q1,5.6 4.55,7.35q1.3,0.65 2.95,0.8l0.7,0.05m2.25,26.35l2.7,2.5l3.85,2.95m-8.85,3.7l3.6,2.7l0.6,0.4l0.4,0.25m-0.85,-21.15l10,-1.05m-10.6,2.15l4.25,1.15l10.9,2.85m-9.5,-24.5l-2.5,5.05l6.05,1.45m-16.65,41.4q7.45,16.3 16.9,11.15m-16.9,-11.15l-0.55,-1.25m-14.75,4.35l1.65,7.4l4.8,-8.7m-4.8,8.7l4.25,-6.85l-5.65,12.5m-22.9,-14.3l1.05,0.45q4.2,1.8 8.6,0.75m-9.65,-1.2l-4.2,1.75l-1,0.95l-2.1,1.45q-0.25,0.1 -0.5,0.3l-2.65,1.55l-4.9,2.6l-1.1,0.55l-0.55,0.15l-0.3,0.05q-3.15,0.8 -5.05,-0.55m17.3,-10.45l1.95,-0.6l-5.05,-4.65m-3.15,5.65l0.35,1.4l1.65,-0.5l4.25,-1.3m-7.35,-4.15l1.1,4.55m0.35,1.4l-0.2,4.5l1.15,-0.6q1.05,-0.5 1.95,-0.9q4.15,-2 3.85,-1.4l-6.95,2.9m8.05,-6.9l3.1,2.25m-14.5,-37.65l-1.7,-1.05l-1.8,-1.3q-7.2,-5.8 -7.35,-16.35l1.4,0l0.5,1.2q3.05,6.4 8.95,9.1l2.65,1l2.5,0.6m-13.05,8.2l0.5,2.05q0.5,2.05 1.35,3.95q1.55,3.5 5.4,7.45l2.3,-4.05l-0.65,-3.7l-2.5,-2.05l-2.8,-2.2l-3,-1.95m-0.6,0.5l-0.05,-0.35l0.3,-0.35l0.35,0.2m7.3,-0.9l3.15,1.45m-3.15,-9.85l0,8.4m-0.65,14.85l3.45,3.15l0.45,0.35m-1.8,10.65l0.6,2.55l0.05,0.3m-0.05,-0.3l0,0.25l0.1,4l-0.3,2.35l-0.4,1.75l-0.4,1.2l-0.65,1.75l-1.65,3l-0.1,0.2l-0.6,0.75m3.4,-16.3l0.6,1.05m2.45,-21.75l-3.5,-2.7"/>
   <path id="svg_16" stroke-width="0.05" stroke-linejoin="round" stroke-linecap="round" stroke="#762f0a" fill="none" d="m50.5,39.1l5.4,0m-5.4,0l-3.15,0l-10.1,10.6l-0.1,0.3m-14.5,1.15l2.9,0.45"/>
   <path id="svg_17" stroke-width="0.05" stroke-opacity="0.372549" stroke-linejoin="round" stroke-linecap="round" stroke="#423001" fill="none" d="m6.6,70.1q-0.8,-3.1 -2.4,-4.1l-0.85,-0.4m16.5,-40.25q-4.75,-9.35 -5.6,-19.6l0,-0.35l-0.1,-0.8q-0.25,-4.05 0.15,-8.2m1.05,-0.4l12.3,22.7l-7.8,6.65m10.55,32.15l2.5,6.55l-0.05,0.15q-0.15,2.3 -1.25,3.85l-0.3,0.4l-1.65,1.25l-1.6,0.2q-1.85,-0.2 -3.05,-2.1q-1.25,-1.9 -1.15,-4.25l-0.15,-1l2.15,-4.35l1.85,2.7l2.7,-3.4m2.45,6.7l-9,-0.65m-19.65,2.45l6.5,2.9l-2.45,-5.55l1.45,1.45l5.05,3.5l-0.75,-6.45l3.1,3.5q1.65,0.85 2.45,2.85m-2.45,-2.85l2.45,4.35"/>
   <path id="svg_18" stroke-linejoin="round" stroke-linecap="round" stroke="#762f0a" fill="none" d="m39.45,54.15l6.75,1.15q2.35,-1.55 4,-3.75l1.3,-2.15m-25.55,4.9l-1.9,1.05l0.2,-2.15"/>
   <path id="svg_19" stroke-width="2" stroke-opacity="0.372549" stroke-linejoin="round" stroke-linecap="round" stroke="#423001" fill="none" d="m83.7,60.6l-4.25,7.05"/>
  </g>
  <g transform="matrix(1,0,0,1,1,1) " id="shape2">
   <path id="svg_20" fill-rule="evenodd" fill-opacity="0.698039" fill="#fcf1e9" d="m100.65,40.4q6,-13.45 15.4,-24.65l4.1,-4.65l0,4.65l0,0.2q-0.25,8.8 -1.8,17.55l-0.95,5.05l-0.45,4.25l-0.9,5.5l0,0.15l-2.1,-0.55l-13.3,19l-6.15,0.7l-0.25,0l-1.5,-8.9l1.5,8.9l0.25,0l0.45,4.25l-0.7,-4.25l-4.5,-1.95l3,-6.95l7.9,-18.3m30.6,7.2q10.65,-11.95 23.65,-21.35l3.75,-2.65q-5.75,25.4 -20.55,46.7l-0.25,0.4l-17.1,7.85l-7.35,-5.8l2,-9.95l15.85,-15.2m30.5,20.95q2.9,-1.2 5.85,-2.25q8.8,-3.4 18.1,-5.05l0.45,2.65q-21.05,20.25 -46.55,33.45l-10.6,-2.55l4.4,-8.8l28.35,-17.45m-24.65,32.85q4.4,-1.45 8.9,-2.45q22.2,-5.25 45.3,-0.55l-0.2,1.4l1.25,1l-1.1,1.1q-7.8,5.65 -16.45,9.55l-1.15,0.5q-5.35,2.25 -11,3.9l-20.65,2.2l-0.45,-4.4l-7.15,-4.15l2.7,-8.1m12.8,27.35q8.65,2.7 16.25,7.85q10.4,7.15 16.35,18.15l-4.15,0.7q-14.85,1.4 -27.75,-2.65l-19.65,-18.2l0,-10.8l18.95,4.95m-25.6,26.85q9.2,6.4 19.35,11.1q13.3,6.2 4.95,15.2q-3.1,3.35 -6.1,5.5l-14.9,-13.3l-3.3,-18.5m-106.45,-22.6q-6.75,-6.85 -9.45,-12.95q-1.45,-3.3 -2.4,-6.95l-0.8,-3.55l1,-0.85q2.75,1.55 5.3,3.35l4.85,3.85l4.4,3.65l1.05,6.4l-3.95,7.05m1.1,-25.9l-3,-1.8l-3.15,-2.25q-12.55,-10.15 -12.75,-28.65l2.4,0l0.9,2.1q5.35,11.2 15.6,15.95l0,14.65m3.05,-24.2q-12.05,-23.55 -9.7,-50.5l1.85,-0.7l17.2,45.2l-9.35,6m22.1,-12.85q-8.3,-11.75 -9.65,-26.5q-1.35,-15.1 0.8,-30.15l19.5,29.9l3.65,9.3l-1.4,11.9l-10,3.35l-2.9,2.2m21.55,-44l4.4,-25.15l3.3,-0.9l6.75,52.25l0.15,4.4l-2.35,6.55l-7.5,2.5l-0.05,-0.1l-7.1,-9.9l2.4,-29.65m81.3,90.8l-5.4,-3.2l5.4,3.2"/>
   <path id="svg_21" fill-rule="evenodd" fill-opacity="0.698039" fill="#ded5cb" d="m117.4,38.55l17.65,-17.65l-1.05,4q-2.85,11.15 -2.75,22.7l-15.85,15.2l-9.3,8.85q7.3,-10.65 9.95,-23.2l0,-0.15l0.9,-5.5l0.45,-4.25m20.7,31.75l31.3,-20.2l0.6,1.5l-8.25,16.95l-28.35,17.45l-16.1,9.95l0.75,-7q3.75,-2.25 7.15,-4.9q6.15,-4.85 11,-11.2l1.65,-2.15l0.25,-0.4m24.55,45.55q3.6,1.75 6.8,4.35q3.25,2.7 5.65,5.9l-3.05,0.8q-10.9,2.9 -22.15,1.85l-18.95,-4.95l-7.45,-2l1.05,-1.9l17.45,-1.85l20.65,-2.2m-107.9,-72.55l7.3,-24.4l3.6,7.15l-2.4,29.65l-0.6,7.6l-4.25,-10.7l-3.65,-9.3m25.35,8.95l16.95,-45.35l3.6,33.5l-7.9,18.3l-3,6.95l-3.5,8.15l-5.65,-3.35l-0.35,-13.8l-0.15,-4.4"/>
   <path id="svg_22" fill-rule="evenodd" fill-opacity="0.698039" fill="#e4ddd6" d="m139.6,97.35q-7.65,3.9 -15.65,7.2l-6.7,-5.95l0.05,-2.65l16.1,-9.95l-4.4,8.8l10.6,2.55m-16.1,9.5l1.2,-0.55q6.15,-2.85 12.4,-4.9l-2.7,8.1l7.15,4.15l0.45,4.4l-17.45,1.85l0.5,-1l-0.8,-1.3q-3,-5.15 -0.75,-10.75m27.1,45.95q-12.9,-4.05 -23.85,-13.5l-4.7,-4.35l-0.6,-1.5q-0.85,-2.45 -0.75,-4.7q0.1,-1.45 0.55,-2.85q0.65,-2.1 2.25,-4.1l7.45,2l0,10.8l19.65,18.2m-32.6,-1.85l6.3,4.65l3.3,18.5l14.9,13.3q-18.65,13.2 -33,-20.05l1.5,-3.55l-1.95,-4.7l8.95,-8.15m-93.35,-11.8l-0.8,-0.65l-6,-5.5l3.95,-7.05l-1.05,-6.4l6.05,4.7l0.1,3.65q-0.15,2.45 -0.7,4.9l-0.55,1.75q-0.45,1.55 -0.75,3.05l-0.25,1.55m-0.15,-29.5l-5.55,-2.55l0,-14.65l4.6,1.7l4.35,1.05l-3.4,14.45m4.05,-15.65l-1.65,-2.55q-2.7,-4.2 -4.9,-8.55l9.35,-6l3.35,8.8l-6.15,8.3m20,-18.45q-2.45,-2.7 -4.45,-5.5l2.9,-2.2l10,-3.35l1.4,-11.9l4.25,10.7l0.6,-7.6l7.1,9.9l0.05,0.1l7.5,-2.5l2.35,-6.55l0.35,13.8l-2.95,0.8l-0.75,0.2l-4.35,0.75q-5.5,0.65 -11.05,0.25l1.15,-9.15l-1.15,9.15l-2.45,-0.6l-10.5,3.7m45.95,-7.95l6.15,-0.7l13.3,-19l2.1,0.55q-2.65,12.55 -9.95,23.2l9.3,-8.85l-2,9.95l7.35,5.8l17.1,-7.85l-1.65,2.15q-4.85,6.35 -11,11.2q-3.4,2.65 -7.15,4.9l-1.2,-0.1q-10.6,-0.85 -13.05,-14.2l2.3,-3l-2.8,2.5l-1.85,0.6q-3.25,1.1 -6.5,1.1l-4.5,-0.55q-2.15,-0.5 -4.2,-1.5l3.5,-8.15l4.5,1.95l0.7,4.25l-0.45,-4.25"/>
   <path id="svg_23" fill-rule="evenodd" fill-opacity="0.698039" fill="#d29813" d="m123.95,104.55l-0.45,2.3q-2.25,5.6 0.75,10.75l0.8,1.3l-0.5,1l-1.05,1.9q-1.6,2 -2.25,4.1q-0.45,1.4 -0.55,2.85q-0.1,2.25 0.75,4.7l0.6,1.5q-6.75,5.55 -4.65,13.9l0.6,2.1l-8.95,8.15l1.95,4.7l-1.5,3.55q-3.4,2.75 -7.35,4.1q-2.5,0.85 -5.25,1.15l-1.85,0.15l-11.2,2.2l-2.1,-8.25l15.25,-1.55l10.3,-14.05l-1.2,-0.8l6.85,-16.6l-1.65,-5.3l2.7,-10.6l-8.95,-15.95l3.75,-2.35l-9.3,-14.6l-10.65,0l-5.6,-5.05l-16.15,-1.9l-10.15,2.95l-11.3,-3.45l2.9,-1.9l10.5,-3.7l2.45,0.6q5.55,0.4 11.05,-0.25l4.35,-0.75l0.75,-0.2l2.95,-0.8l5.65,3.35q2.05,1 4.2,1.5l4.5,0.55q3.25,0 6.5,-1.1l1.85,-0.6l0.5,0.5q2.45,13.35 13.05,14.2l1.2,0.1l-0.75,7l-0.05,2.65l6.7,5.95m-61.65,70.25l-1.25,0.1q-7.65,1.85 -14.95,-1.3l-1.85,-0.75l-5.4,-4l-8.75,-8.1l3.35,1.45q13.1,5.6 27.35,6.3l1.5,6.3"/>
   <path id="svg_24" fill-rule="evenodd" fill-opacity="0.698039" fill="#ebb81f" d="m24.8,111.55l-0.3,-1.9l3.4,-14.45l0.65,-1.2l6.15,-8.3l3.55,-3.45l7.4,-4.8l11.3,3.45l10.15,-2.95l16.15,1.9l5.6,5.05l10.65,0l9.3,14.6l-3.75,2.35l8.95,15.95l-2.7,10.6l1.65,5.3l-6.85,16.6l1.2,0.8l-10.3,14.05l-15.25,1.55l-0.65,-2.65l9.2,-7.45l-0.4,-6.75l18.4,-15.6l-16.1,-34.15q-12.5,-2.95 -24,-10.95q-5.2,-3.2 -10.6,-3.15q-15.35,0.1 -32.8,25.55m27.45,14.45l0.15,-0.55q1.6,-5.1 8.15,-8.6q6.9,-3.7 19.3,-5.55l14.9,7.25l-18.4,8.55l0.9,-2.2q-3.35,6.4 -9.3,10.25q-0.75,0.5 -11.8,-2l6.15,6.65l-6.9,-3.8l-3.45,-8.7l0.3,-1.3m8.3,-9.15l-8.15,8.6l8.15,-8.6"/>
   <path id="svg_25" fill-rule="evenodd" fill-opacity="0.698039" fill="#fcd258" d="m30.1,160.75q-3.5,-4.85 -4.85,-10.05q-1.05,-3.8 -0.95,-7.8q0.05,-1.85 0.35,-3.75l0.25,-1.55q0.3,-1.5 0.75,-3.05l0.55,-1.75q0.55,-2.45 0.7,-4.9l-0.1,-3.65l-0.2,-1.75l-0.45,-2.6l-1.35,-8.35q17.45,-25.45 32.8,-25.55q5.4,-0.05 10.6,3.15q11.5,8 24,10.95l16.1,34.15l-18.4,15.6l0.4,6.75l-9.2,7.45l-3.05,-3.15l-0.55,1.2l-3.45,4.8l-4,-5l-4,0l0,6l-5,-4l-1.5,0.65l1.25,3.95q-14.25,-0.7 -27.35,-6.3l-3.35,-1.45m70.5,-32.6l-1.45,-3.15l-16.25,4.15l-8.8,16.7l3.45,-0.25q15.05,-2.4 23.05,-17.45m-55.85,22.55l0.1,-0.25l-4.45,-11.4l-4.65,5.85l-3.3,-4.65l-3.75,7.55l0.35,1.75q-0.2,4.15 1.95,7.5q2.1,3.3 5.35,3.65q3.2,0.3 5.65,-2.55q2.45,-2.9 2.75,-7.45m-15.1,-19.2l-0.3,3.8l3.35,-1.85l-3.35,1.85l0.3,-3.8m3.3,-2.6l-6.05,-1l6.05,1m19.45,-3.45l-0.15,0.55l-0.3,1.3l3.45,8.7l6.9,3.8l-6.15,-6.65q11.05,2.5 11.8,2q5.95,-3.85 9.3,-10.25l-0.9,2.2l18.4,-8.55l-14.9,-7.25q-12.4,1.85 -19.3,5.55q-6.55,3.5 -8.15,8.6m15.55,-18.55l2.05,0l-9.45,9.95l9.45,-9.95l-2.05,0m17,0l-14.95,0l0.95,-1l-0.95,1l14.95,0"/>
   <path id="svg_26" fill-rule="evenodd" fill-opacity="0.698039" fill="#feeaaf" d="m100.6,128.15q-8,15.05 -23.05,17.45l-3.45,0.25l8.8,-16.7l16.25,-4.15l1.45,3.15"/>
   <path id="svg_27" fill-rule="evenodd" fill-opacity="0.698039" fill="#666600" d="m86.7,187.9l7.35,-12l-11.15,24.6q0.4,-17.35 -4.2,-34.1l-1.2,-4.3l0.55,-1.2l3.05,3.15l0.65,2.65l2.1,8.25l2.85,12.95m-42.45,-15.05l-7.35,3.05l-1.75,1.55q-6.5,4.9 -19.6,11.3l1.25,-1.6q10.9,-17 1.7,-36.3l1.55,1.05l5.05,21.15l13.75,-4.2l5.4,4m-15.2,-23.3l-0.35,-1.75l3.75,-7.55l3.3,4.65l4.65,-5.85l4.45,11.4l-0.1,0.25l-15.7,-1.15l15.7,1.15q-0.3,4.55 -2.75,7.45q-2.45,2.85 -5.65,2.55q-3.25,-0.35 -5.35,-3.65q-2.15,-3.35 -1.95,-7.5m13.15,3.8q-0.7,-0.45 -1.75,-0.45q-1.05,0 -1.8,0.45q-0.7,0.45 -0.7,1.05q0,0.6 0.7,1.05l1.8,0.45l1.75,-0.45q0.75,-0.45 0.75,-1.05q0,-0.6 -0.75,-1.05m-4.1,-6.45q0,0.5 0.5,0.8l1.25,0.35q0.7,0 1.2,-0.35q0.55,-0.3 0.55,-0.8q0,-0.5 -0.55,-0.85q-0.5,-0.3 -1.2,-0.3q-0.7,0 -1.25,0.3q-0.5,0.35 -0.5,0.85m-13.25,34l12.05,-5q0.8,-1.4 -12.05,5l0.25,-7.85l-0.25,7.85q12.85,-6.4 12.05,-5l-12.05,5"/>
   <path id="svg_28" fill-rule="evenodd" fill-opacity="0.698039" fill="#949301" d="m82.9,200.5q-7.7,5.15 -15.4,-0.55l-1.05,-0.85q-3.8,-11.85 -4.15,-24.3l-1.5,-6.3l-1.25,-3.95l1.5,-0.65l5,4l0,-6l4,0l4,5l3.45,-4.8l1.2,4.3q4.6,16.75 4.2,34.1m-67.35,-11.75q-14.7,4.65 -15.1,-14.5l-0.45,-21.85l6.05,6.5l1,-9l1,-0.5l5,8.5l4,-10.55l1.45,3.5q9.2,19.3 -1.7,36.3l-1.25,1.6m-4.1,-25.7q-1.45,-3.2 -3.5,-3.2q-2.05,0 -3.55,3.2q-1.45,3.25 -1.45,7.8q0,4.55 1.45,7.75q1.5,3.25 3.55,3.25q2.05,0 3.5,-3.25q1.5,-3.2 1.5,-7.75q0,-4.55 -1.5,-7.8m60.45,10.7q-1,-2.9 -2.45,-2.9q-1.45,0 -2.5,2.9q-1,2.95 -1,7.1q0,4.15 1,7.05q1.05,2.95 2.5,2.95q1.45,0 2.45,-2.95q1.05,-2.9 1.05,-7.05q0,-4.15 -1.05,-7.1"/>
   <path id="svg_29" fill-rule="evenodd" fill-opacity="0.698039" fill="#acab02" d="m11.45,163.05q1.5,3.25 1.5,7.8q0,4.55 -1.5,7.75q-1.45,3.25 -3.5,3.25q-2.05,0 -3.55,-3.25q-1.45,-3.2 -1.45,-7.75q0,-4.55 1.45,-7.8q1.5,-3.2 3.55,-3.2q2.05,0 3.5,3.2m60.45,10.7q1.05,2.95 1.05,7.1q0,4.15 -1.05,7.05q-1,2.95 -2.45,2.95q-1.45,0 -2.5,-2.95q-1,-2.9 -1,-7.05q0,-4.15 1,-7.1q1.05,-2.9 2.5,-2.9q1.45,0 2.45,2.9m-33.8,-26.85q0,-0.5 0.5,-0.85q0.55,-0.3 1.25,-0.3q0.7,0 1.2,0.3q0.55,0.35 0.55,0.85q0,0.5 -0.55,0.8q-0.5,0.35 -1.2,0.35l-1.25,-0.35q-0.5,-0.3 -0.5,-0.8m4.1,6.45q0.75,0.45 0.75,1.05q0,0.6 -0.75,1.05l-1.75,0.45l-1.8,-0.45q-0.7,-0.45 -0.7,-1.05q0,-0.6 0.7,-1.05q0.75,-0.45 1.8,-0.45q1.05,0 1.75,0.45"/>
   <path id="svg_30" fill-rule="evenodd" fill-opacity="0.698039" fill="#585701" d="m95.05,172.75l-8.35,15.15l-2.85,-12.95l11.2,-2.2"/>
   <path id="svg_31" stroke-width="2" stroke-opacity="0.698039" stroke-linejoin="round" stroke-linecap="round" stroke="#402d02" fill="none" d="m100.65,40.4q6,-13.45 15.4,-24.65l4.1,-4.65l0,4.65l0,0.2q-0.25,8.8 -1.8,17.55l-0.95,5.05l17.65,-17.65l-1.05,4q-2.85,11.15 -2.75,22.7q10.65,-11.95 23.65,-21.35l3.75,-2.65q-5.75,25.4 -20.55,46.7l31.3,-20.2l0.6,1.5l-8.25,16.95q2.9,-1.2 5.85,-2.25q8.8,-3.4 18.1,-5.05l3.85,-0.65l-3.4,3.3q-21.05,20.25 -46.55,33.45q-7.65,3.9 -15.65,7.2l-0.45,2.3l1.2,-0.55q6.15,-2.85 12.4,-4.9q4.4,-1.45 8.9,-2.45q22.2,-5.25 45.3,-0.55l-0.2,1.4l1.25,1l-1.1,1.1q-7.8,5.65 -16.45,9.55m-1.15,0.5q-5.35,2.25 -11,3.9q3.6,1.75 6.8,4.35q3.25,2.7 5.65,5.9l-3.05,0.8q-10.9,2.9 -22.15,1.85q8.65,2.7 16.25,7.85q10.4,7.15 16.35,18.15l-4.15,0.7q-14.85,1.4 -27.75,-2.65q-12.9,-4.05 -23.85,-13.5l-4.7,-4.35q-6.75,5.55 -4.65,13.9l0.6,2.1l6.3,4.65q9.2,6.4 19.35,11.1q13.3,6.2 4.95,15.2q-3.1,3.35 -6.1,5.5q-18.65,13.2 -33,-20.05q-3.4,2.75 -7.35,4.1q-2.5,0.85 -5.25,1.15l-1.85,0.15l-8.35,15.15l7.35,-12l-11.15,24.6q-7.7,5.15 -15.4,-0.55l-1.05,-0.85q-3.8,-11.85 -4.15,-24.3m-1.25,0.1q-7.65,1.85 -14.95,-1.3l-1.85,-0.75l-7.35,3.05l-1.75,1.55q-6.5,4.9 -19.6,11.3q-14.7,4.65 -15.1,-14.5l-0.45,-21.85l6.05,6.5l1,-9l1,-0.5l5,8.5l4,-10.55l1.45,3.5l1.55,1.05l5.05,21.15l13.75,-4.2l-8.75,-8.1q-3.5,-4.85 -4.85,-10.05q-1.05,-3.8 -0.95,-7.8q0.05,-1.85 0.35,-3.75l-0.8,-0.65l-6,-5.5q-6.75,-6.85 -9.45,-12.95q-1.45,-3.3 -2.4,-6.95l-0.8,-3.55l-0.15,-0.65l0.55,-0.55l0.6,0.35q2.75,1.55 5.3,3.35l4.85,3.85l4.4,3.65l6.05,4.7l-0.2,-1.75l-0.45,-2.6l-1.35,-8.35l-0.3,-1.9l-5.55,-2.55l-3,-1.8l-3.15,-2.25q-12.55,-10.15 -12.75,-28.65l2.4,0l0.9,2.1q5.35,11.2 15.6,15.95l4.6,1.7l4.35,1.05l0.65,-1.2l-1.65,-2.55q-2.7,-4.2 -4.9,-8.55q-12.05,-23.55 -9.7,-50.5l0.55,-4.05l1.3,3.35l17.2,45.2l3.35,8.8l3.55,-3.45l7.4,-4.8l2.9,-1.9q-2.45,-2.7 -4.45,-5.5q-8.3,-11.75 -9.65,-26.5q-1.35,-15.1 0.8,-30.15l19.5,29.9l7.3,-24.4l3.6,7.15l4.4,-25.15l3.3,-0.9l6.75,52.25l16.95,-45.35l3.6,33.5l-7.9,18.3m23.3,-10.25l0,-0.15l0.9,-5.5l0.45,-4.25m20.45,32.15l0.25,-0.4m-32,1.35q7.3,-10.65 9.95,-23.2m-0.65,14.35l-9.3,8.85l-2.3,3q2.45,13.35 13.05,14.2l1.2,0.1q3.75,-2.25 7.15,-4.9q6.15,-4.85 11,-11.2l1.65,-2.15m-22.45,-7.9l15.85,-15.2m-13.2,41.35l-0.75,7l16.1,-9.95l28.35,-17.45m-58.45,5.6l0.5,0.5m-17.55,-0.85q2.05,1 4.2,1.5l4.5,0.55q3.25,0 6.5,-1.1l1.85,-0.6l2.8,-2.5m17.4,35.2q-2.25,5.6 0.75,10.75l0.8,1.3l-0.5,1l17.45,-1.85l20.65,-2.2m-39.15,5.95q-1.6,2 -2.25,4.1q-0.45,1.4 -0.55,2.85q-0.1,2.25 0.75,4.7l0.6,1.5m8.9,-11.15l-7.45,-2l1.05,-1.9m-7.25,-23.95l-0.05,2.65l6.7,5.95m25.95,24.2l-18.95,-4.95m-12.95,27.15l-8.95,8.15l1.95,4.7l-1.5,3.55m-28.9,-96.9l-0.35,-13.8l-0.15,-4.4m-16.85,3.45l-0.6,7.6l-1.15,9.15q5.55,0.4 11.05,-0.25l4.35,-0.75l0.75,-0.2l2.95,-0.8l5.65,3.35l3.5,-8.15l3,-6.95m-30.1,4.6l-4.25,-10.7l-3.65,-9.3m6.75,29.15l-2.45,-0.6l-10.5,3.7m-13.85,10.15l-6.15,8.3m-3.9,45.15l0.25,-1.55q0.3,-1.5 0.75,-3.05l0.55,-1.75q0.55,-2.45 0.7,-4.9l-0.1,-3.65m-2.3,-14.6l3.4,-14.45m53.2,68.85l0.65,2.65l2.1,8.25l11.2,-2.2m-76.55,-21.9q9.2,19.3 -1.7,36.3l-1.25,1.6m61.95,-26.65l0.55,-1.2l3.05,3.15m-3.6,-1.95l-3.45,4.8l-4,-5l-4,0l0,6l-5,-4l-1.5,0.65l1.25,3.95l1.5,6.3m21.55,0.15l2.85,12.95m-3.8,12.6q0.4,-17.35 -4.2,-34.1l-1.2,-4.3m-52.4,10.95l-0.25,7.85q12.85,-6.4 12.05,-5l-12.05,5m19.4,-8.05l-5.4,-4m26.8,-142.8l-2.4,29.65"/>
   <path id="svg_32" stroke-width="2" stroke-opacity="0.698039" stroke-linejoin="round" stroke-linecap="round" stroke="#402d02" fill="none" d="m174.8,111.45l-1.15,0.5m-80.9,-53.25l1.5,8.9l0.25,0l6.15,-0.7l13.3,-19m23.9,22.8l-17.1,7.85l-7.35,-5.8l2,-9.95m18,23.2l-4.4,8.8l10.6,2.55m1.95,16.3l-7.15,-4.15l2.7,-8.1m4.45,12.25l5.4,3.2m-66.7,-60.2l-2.35,6.55l-7.5,2.5l-0.05,-0.1l-7.1,-9.9m-4.85,-3.1l-1.4,11.9l-10,3.35l-2.9,2.2m-12.75,6.85l-9.35,6m-1.25,36.65l1.05,6.4l-3.95,7.05m26.9,17.7l0.1,-0.25l-4.45,-11.4l-4.65,5.85l-3.3,-4.65l-3.75,7.55l0.35,1.75l15.7,1.15q-0.3,4.55 -2.75,7.45q-2.45,2.85 -5.65,2.55q-3.25,-0.35 -5.35,-3.65q-2.15,-3.35 -1.95,-7.5m-2.15,-21.65l6.05,1m-0.25,4.55l-3.35,1.85l0.3,-3.8m22.6,-5.5l0.15,-0.55l8.15,-8.6l9.45,-9.95l-2.05,0m8.4,20.2l0.9,-2.2q-3.35,6.4 -9.3,10.25q-0.75,0.5 -11.8,-2m13.85,-26.25l0.95,-1m-0.95,1l14.95,0m-66,-14.45l0,14.65"/>
  </g>
  <g transform="matrix(1,0,0,1,-31.05,-15.2) " id="shape3">
   <path id="svg_33" fill-rule="evenodd" fill="#d29813" d="m32.65,19q10.15,2.55 18.35,8.7l0.3,0.25l0.65,0.5q3.15,2.45 6.05,5.45l-0.4,1.05l-25.1,-5.75l0.15,-10.2"/>
   <path id="svg_34" fill-rule="evenodd" fill="#fcf1e9" d="m56.15,31.15l-25.1,-5.7l0.2,-10.25q10.15,2.6 18.35,8.7l0.3,0.3l0.65,0.45q3.2,2.45 6.05,5.5l-0.45,1"/>
   <path id="svg_35" stroke-width="0.05" stroke-opacity="0.372549" stroke-linejoin="round" stroke-linecap="round" stroke="#423001" fill="none" d="m56.15,31.15l-25.1,-5.7l0.2,-10.25q10.15,2.6 18.35,8.7l0.3,0.3l0.65,0.45q3.2,2.45 6.05,5.5"/>
   <path id="svg_36" fill-rule="evenodd" fill="#949301" d="m38.1,71.85l6.5,2.9l-2.45,-5.6l1.4,1.45l5.1,3.55l-0.75,-6.45l3.05,3.5l2,3.55l0,1.2l-6,0q-0.55,-0.65 -1.25,-0.65q-0.7,0 -1.3,0.65l-1.5,2.65q-3.25,-5.75 -4.8,-6.75"/>
   <path id="svg_37" fill-rule="evenodd" fill="#acab02" d="m44.4,75.95q0.6,-0.65 1.3,-0.65q0.7,0 1.25,0.65l-2.55,0"/>
   <path id="svg_38" stroke-width="0.05" stroke-opacity="0.372549" stroke-linejoin="round" stroke-linecap="round" stroke="#423001" fill="none" d="m38.1,71.85l6.5,2.9l-2.45,-5.6l1.4,1.45l5.1,3.55l-0.75,-6.45l3.05,3.5q1.25,0.65 2,1.9m0,1.65l-2,-3.55m-8.05,7.4q-3.25,-5.75 -4.8,-6.75l-0.85,-0.4"/>
  </g>
  <g id="sprite0">
   <use id="svg_39" xlink:href="#shape4" width="102.95" height="45"/>
  </g>
  <g id="shape4">
   <path id="svg_40" fill-rule="evenodd" fill-opacity="0" fill="#ff00ff" d="m0,0l102.95,0l0,45l-102.95,0l0,-45"/>
  </g>
 </defs>
 <g>
  <title>background</title>
  <rect fill="none" id="canvas_background" height="188" width="182" y="-1" x="-1"/>
 </g>
 <g>
  <title>Layer 1</title>
  <g stroke="null" id="svg_41">
   <use stroke="null" x="62.080675" y="136.138033" id="svg_42" xlink:href="#shape0" width="381" transform="matrix(1.7157894372940063,0,0,1.7157894372940063,-330.3752561509609,-504.44209456443787) " height="381"/>
   <use stroke="null" x="-69.402655" y="152.194559" id="svg_43" xlink:href="#shape1" width="118.65" transform="matrix(-1.5347736516594885,0,0,1.5347736516594885,72.06899005043506,-231.91210560768843) " height="116.25"/>
   <use stroke="null" x="253.598689" y="-307.04774" id="svg_44" xlink:href="#shape2" width="194.35" transform="matrix(-0.879342086613178,0,0,0.879342086613178,396.36881261905546,271.6738100275396) " height="204.95"/>
   <use stroke="null" x="-69.402655" y="152.194559" id="svg_45" xlink:href="#shape3" width="26.95" transform="matrix(-1.5347736516594885,0,0,1.5347736516594885,29.554987794220448,-174.58740892875196) " height="63.4"/>
   <use stroke="null" x="-1.935" y="0" xlink:href="#sprite0" width="102.95" transform="matrix(3.100774671077729,0,0,2.837572571396828,-52.284208783601514,35.92525666952133) " id="_mcMask" height="45"/>
  </g>
 </g>
</svg>