<svg width="224" height="182" xmlns="http://www.w3.org/2000/svg" xmlns:xlink="http://www.w3.org/1999/xlink">
 <defs>
  <g transform="matrix(1,0,0,1,192.55,294) " id="shape0">
   <path id="svg_1" stroke-opacity="0" stroke-linejoin="round" stroke-linecap="round" stroke="#ff00ff" fill="none" d="m187.95,-293.5l0,380l-379.95,0l-0.05,0l0,-380l380,0m-95,294.1l-189.95,0"/>
   <path id="svg_2" stroke-opacity="0" stroke-linejoin="round" stroke-linecap="round" stroke="#ff00ff" fill="none" d="m187.95,-293.5l-190,190l190,190m-379.95,0l189.95,-190l-190,-190"/>
  </g>
  <g transform="matrix(1,0,0,1,301.8,244.65) " id="sprite0">
   <use id="svg_3" xlink:href="#shape1" width="603.6" transform="matrix(1,0,0,1,-301.8,-149.35) " height="394"/>
   <use id="svg_4" xlink:href="#sprite1" width="92" transform="matrix(1.1662,-0.3125,0.1875,0.6998,-85.8035,15.0367) " height="95"/>
   <use id="svg_5" xlink:href="#sprite1" width="92" transform="matrix(1,0,0,0.6,149,-46.2003) " height="95"/>
   <use id="svg_6" xlink:href="#sprite1" width="92" transform="matrix(0.2209,-0.3827,0.6935,0.4004,64.3475,-12.4662) " height="95"/>
   <use id="svg_7" xlink:href="#shape3" width="325.9" transform="matrix(1,0,0,1,-289,-244.65) " height="301.9"/>
  </g>
  <g transform="matrix(1,0,0,1,301.8,149.35) " id="shape1">
   <path id="svg_8" fill-rule="evenodd" fill="#ff0000" d="m-75.15,-72.65q51.7,-42.5 132.3,-60.5l16.7,-3.45q12.65,-2.35 25.9,-4.15q26.8,-3.6 48.9,-3q15.05,-3.6 38.4,18.95q17.15,13.8 26.7,16.6q-20.95,-1.95 -4.95,7.9q0.85,16.3 10,0q9.2,19.45 4.3,33.2q-1.45,-13.2 -31.8,-15.6q-69.9,-9.75 -151,18q-13.7,-5.3 0,-14q46.2,-28.65 108,-31q-62,-3.35 -128,21q-19.6,-0.65 -18,-6q-2.45,-8.75 25.25,-24q-47.8,12.3 -102.7,46.05m-50.55,87.15q7.45,-29.95 23.45,-59.3q-16.85,42.55 -18.1,65.7q7.1,-16.7 15.65,-25.6q-17.1,38.1 -22.35,76.15q1.45,7.55 3.85,11.45l-8.55,-1.8q-0.95,-14.65 0.1,-29.15q0.7,-9.9 2.3,-19.7q1.45,-8.8 3.6,-17.5l0.05,-0.25m-66,82.85l0.25,3.85l-46.85,-4.9l0,11.1q21.35,-2.85 40.2,2.05q-23.75,-2.85 -47.55,4.85q-10.45,6.95 -17,25.5l-5.95,-5.75q9.5,-5.4 7.95,-10.8q-4.2,-5.15 -13,5.75l-20.9,-15.15q36.55,-10 54.05,-28.1l48.8,11.6m19.6,25.7l6.75,4q-32.55,4.8 -70.1,22.15q-14.55,3.15 -22.2,20.05l0,18q-2.8,15.9 -18.1,25.55q-11.95,5.7 -24.3,12.4l19.2,-24.8q11.75,-21.65 10.1,-43.3q7.05,-6.35 14.05,-11.55q27.35,-20.55 53,-23.75l31.6,1.25"/>
   <path id="svg_9" fill-rule="evenodd" fill="#bf6000" d="m73.85,-136.6l-16.7,3.45q-80.6,18 -132.3,60.5q-13.35,10.95 -24.75,23.55l-2.35,4.3q-16,29.35 -23.45,59.3q-6.7,-10.7 0.25,-43.15q5.25,-17.05 13.55,-35.65q30.8,-69.4 106.55,-79.05l17.3,-1.95q47.6,3 61.9,8.7m-261.3,246.3q-0.35,-27.05 13.3,-26.1l82.2,9.35q-4.95,-2.1 -10.05,-3.9q35.05,-64.6 77.4,-85.55q11.4,3.95 27.7,0.3q9.45,-2.1 16.5,-7.75q7.7,-6.15 12.6,-16.55q30.3,-22.25 56.8,-23.25l11.05,0.5l7.65,1.5q8,4.5 19.35,6.45l10.95,1.2l0.05,0l6.5,0.2l9,-0.75q13.5,-2.25 19.7,-11.1q11,-3.55 22,1.6l7.25,4.35q-0.6,-1.35 -7.55,-4.5l11.95,2.55q5.05,8.7 9.05,17.25l-12.35,-7.9q3.1,3.85 -28.85,8.6q-19.4,7.15 -51.95,6.6q-9.95,-4.2 -19.35,-5.35l-9.7,-14.25l6.3,-6.45l-6.3,6.45l9.7,14.25q-13,-1.6 -24.95,2.6l-0.7,-0.6l15.95,-16.25l-4.75,-6.95l4.75,6.95l-15.95,16.25l0.7,0.6l-2,0.7q-9.75,2.65 -12.15,8.2q-6.25,2.8 -10.1,6.5l-1.95,1.95q-8.65,8.6 -21.15,16.35q-38.1,23.5 -7.45,49.75q15.75,13.4 49.55,27.6q12.35,5.2 26.4,5.3l13.4,-0.4q34.05,0.4 69.05,-8.45l9.1,-1.95q16.95,-2.15 51.35,-17.55q15.65,-9.15 18.85,-5.75l0.65,1.1q-26.6,14.9 -46.25,20.75l-6.9,7.5q-23.05,25.05 -53.6,38.8q-57.55,24.15 -125.2,28.1q4.4,-6.75 9.25,-15.1q8.3,-14.25 17.95,-33.2q5.2,-9.6 -8.65,-13.7q-15.45,4.15 -23.1,0q-4.9,-3.35 -13.55,-4.75l5.1,-12.35l-13.8,-6.15l13.8,6.15l-5.1,12.35l-11.65,-1.05q-22.55,5.3 -23.8,15.9q2.3,29.95 8.5,51.35q-17.35,-2.3 -32.3,-6.9q-31.85,-9.9 -52.9,-30.55l-4.3,2.1q-8.4,3.7 -18.5,4.9q-3.75,-8.25 0,-11.55q-6.15,3.8 -9.35,7q-3.2,3.2 -4.4,12.5q-7.8,0.6 -12.3,-1.1q-6.35,-2.4 -11.85,-5.1l-4.5,-2.25l-6.75,-4q-5.85,-3.8 -10.35,-8l-5,-5.35m238.75,-117.4l2.95,3.15l-2.95,-3.15m17,-21l9.5,8.15l-1.3,1.3l1.3,-1.3l-9.5,-8.15m163.25,66.2q-8.3,-4.3 -18.6,-8.25q12.65,-0.7 14.1,-23.75q4.3,16.35 4.5,32m-201.25,47.8l-13.2,-5.85l6.6,-15.95l-6.6,15.95l13.2,5.85m196.8,-115.45q-5.55,8.7 5.35,9.2q25.7,-6.75 41.1,-23.8l11.65,-9.65q11.3,-9.35 14.15,-1.1q4.45,14.2 -18.55,43.2q-28.35,10.3 -56.75,7.75q-3.3,-9.85 -8.05,-19.95q5.95,-2.6 11.1,-5.65m-311.15,137.5q-3,3.5 -6.35,6.45q-4.55,3.9 -9.75,6.75q5.2,-2.85 9.75,-6.75q3.35,-2.95 6.35,-6.45m6.5,6.45q-11.25,3.55 -12.85,0q1.6,3.55 12.85,0"/>
   <path id="svg_10" fill-rule="evenodd" fill="url(#gradient0)" d="m99.75,-140.75q-13.25,1.8 -25.9,4.15q-14.3,-5.7 -61.9,-8.7q61.9,-6.25 87.8,4.55"/>
   <path id="svg_11" fill-rule="evenodd" fill="url(#gradient1)" d="m-75.15,-72.65q54.9,-33.75 102.7,-46.05q-27.7,15.25 -25.25,24q-1.6,5.35 18,6q66,-24.35 128,-21q-61.8,2.35 -108,31q-13.7,8.7 0,14q81.1,-27.75 151,-18q30.35,2.4 31.8,15.6l-16.2,25.35q-5.6,-9.65 -12.45,-19.6l-4.8,-0.7l-0.8,-0.1l-10.3,-1.15q-32.75,-4.4 -86.55,4.25q-25.6,4.55 -52.7,12.85q-42.7,7.4 -82.8,32.5l-4.5,2.1q-46.7,43.35 -63.4,97.6l-11.8,-3.1q-2.4,-3.9 -3.85,-11.45q5.25,-38.05 22.35,-76.15q-8.55,8.9 -15.65,25.6q1.25,-23.15 18.1,-65.7l2.35,-4.3q11.4,-12.6 24.75,-23.55m278.05,12.75l-8.45,-1.45l8.45,1.45"/>
   <path id="svg_12" fill-rule="evenodd" fill="url(#gradient2)" d="m-125.45,-28.65q-6.95,32.45 -0.25,43.15l-0.05,0.25q-2.15,8.7 -3.6,17.5q-1.6,9.8 -2.3,19.7q-8.1,-34.3 6.2,-80.6"/>
   <path id="svg_13" fill-rule="evenodd" fill="url(#gradient3)" d="m-131.75,81.1l8.55,1.8l11.8,3.1q4.75,1.4 9.4,3.05q5.1,1.8 10.05,3.9l-82.2,-9.35q-13.65,-0.95 -13.3,26.1l-3.3,-4.5l-0.7,-4l-0.25,-3.85q-0.1,-13.6 11.8,-20.25q25.4,-0.3 48.15,4"/>
   <path id="svg_14" fill-rule="evenodd" fill="url(#gradient4)" d="m-11.95,-2.7q0,2.7 1.9,4.6q1.9,1.9 4.6,1.9q2.7,0 4.6,-1.9q1.9,-1.9 1.9,-4.6q0,-2.7 -1.9,-4.6q-1.9,-1.9 -4.6,-1.9q-2.7,0 -4.6,1.9q-1.9,1.9 -1.9,4.6m-12.65,6.2q-1.75,-4.8 -1,-8.9q1.8,-10.15 18.7,-16.25q16.15,-3.55 22.55,2l0.05,0q5.4,4.65 3.9,15.7q-7.05,5.65 -16.5,7.75q-16.3,3.65 -27.7,-0.3"/>
   <path id="svg_15" fill-rule="evenodd" fill="#000000" d="m-11.95,-2.7q0,-2.7 1.9,-4.6q1.9,-1.9 4.6,-1.9q2.7,0 4.6,1.9q1.9,1.9 1.9,4.6q0,2.7 -1.9,4.6q-1.9,1.9 -4.6,1.9q-2.7,0 -4.6,-1.9q-1.9,-1.9 -1.9,-4.6m156.5,-38.45q0,2.7 -1.9,4.6q-1.9,1.9 -4.6,1.9q-2.7,0 -4.6,-1.9q-1.9,-1.9 -1.9,-4.6q0,-2.7 1.9,-4.6q1.9,-1.9 4.6,-1.9q2.7,0 4.6,1.9q1.9,1.9 1.9,4.6"/>
   <path id="svg_16" fill-rule="evenodd" fill="#773c00" d="m-102,89.05q-4.65,-1.65 -9.4,-3.05q16.7,-54.25 63.4,-97.6l4.5,-2.1q4.35,8.55 11.25,13.35q3.5,2.4 7.65,3.85q-42.35,20.95 -77.4,85.55m194,-148.1q3.45,8.1 10.25,13.6q2.45,2 5.45,3.7l-7.65,-1.5l2.2,-2.2l-2.2,2.2l-11.05,-0.5q-26.5,1 -56.8,23.25q5.05,-10.65 7.1,-25.7q27.1,-8.3 52.7,-12.85m83.3,9.9q2.9,-5.95 3.25,-14.15l10.3,1.15l0.8,0.1l4.8,0.7q6.85,9.95 12.45,19.6l-11.95,-2.55q6.95,3.15 7.55,4.5l-7.25,-4.35q-11,-5.15 -22,-1.6l2.05,-3.4m-89,1.45l2.7,3.95l-2.7,-3.95"/>
   <path id="svg_17" fill-rule="evenodd" fill="#cccccc" d="m-32.25,-0.35q-6.9,-4.8 -11.25,-13.35q40.1,-25.1 82.8,-32.5q-2.05,15.05 -7.1,25.7l-16.5,0.85l-0.05,0q-6.4,-5.55 -22.55,-2q-16.9,6.1 -18.7,16.25l-6.65,5.05m139.95,-41.4q-3,-1.7 -5.45,-3.7q-6.8,-5.5 -10.25,-13.6q53.8,-8.65 86.55,-4.25q-0.35,8.2 -3.25,14.15l-19.2,-2.9q-6.55,-5.6 -22.4,-4.2q-9.65,3.3 -12.15,7.75l-13.85,6.75"/>
   <path id="svg_18" fill-rule="evenodd" fill="#ffffff" d="m-25.6,-5.4q-0.75,4.1 1,8.9q-4.15,-1.45 -7.65,-3.85l6.65,-5.05m45.2,1.45q1.5,-11.05 -3.9,-15.7l16.5,-0.85q-4.9,10.4 -12.6,16.55m88.1,-37.8l13.85,-6.75q-3.15,5.65 5.5,13.2q-11.35,-1.95 -19.35,-6.45m48.4,-10.3l19.2,2.9l-2.05,3.4q-6.2,8.85 -19.7,11.1q10.6,-4 5.5,-13.7q-1.1,-2.15 -2.95,-3.7"/>
   <path id="svg_19" fill-rule="evenodd" fill="url(#gradient5)" d="m103.45,-22.55q9.4,1.15 19.35,5.35q32.55,0.55 51.95,-6.6q31.95,-4.75 28.85,-8.6l12.35,7.9l0.05,0q4.75,10.1 8.05,19.95q1.7,5.05 3,10.05q-1.45,23.05 -14.1,23.75q10.3,3.95 18.6,8.25q21.9,11.3 29.85,24.8q-3.2,-3.4 -18.85,5.75q-34.4,15.4 -51.35,17.55l-9.1,1.95q-35,8.85 -69.05,8.45l-13.4,0.4q-14.05,-0.1 -26.4,-5.3q-33.8,-14.2 -49.55,-27.6q2.1,-7 4.65,-13.55q2.5,-18.45 13.6,-28.35l13.35,9.7l-13.35,-9.7q3.5,-13.8 15.9,-22.35l10.45,11.05l-10.45,-11.05q0.5,-6.1 6.5,-10.3q2.4,-5.55 12.15,-8.2l2,-0.7q11.95,-4.2 24.95,-2.6m102.35,49.15l7.15,2.65l-7.15,-2.65m-166.5,29.7l-10.95,-6.35l10.95,6.35m50,-67l-10.8,-9.25l10.8,9.25"/>
   <path id="svg_20" fill-rule="evenodd" fill="url(#gradient6)" d="m121.55,-48.5q2.5,-4.45 12.15,-7.75q15.85,-1.4 22.4,4.2q1.85,1.55 2.95,3.7q5.1,9.7 -5.5,13.7l-9,0.75l-6.5,-0.2l-0.05,0l-10.95,-1.2q-8.65,-7.55 -5.5,-13.2m23,7.35q0,-2.7 -1.9,-4.6q-1.9,-1.9 -4.6,-1.9q-2.7,0 -4.6,1.9q-1.9,1.9 -1.9,4.6q0,2.7 1.9,4.6q1.9,1.9 4.6,1.9q2.7,0 4.6,-1.9q1.9,-1.9 1.9,-4.6"/>
   <path id="svg_21" fill-rule="evenodd" fill="#ffb046" d="m23.7,63.5q-30.65,-26.25 7.45,-49.75q12.5,-7.75 21.15,-16.35l1.95,-1.95q3.85,-3.7 10.1,-6.5q-6,4.2 -6.5,10.3q-12.4,8.55 -15.9,22.35l-10.8,-7.85l10.8,7.85q-11.1,9.9 -13.6,28.35q-2.55,6.55 -4.65,13.55m34.15,-64.25l-3.6,-3.8l3.6,3.8m-29.5,50.7l-8.05,-4.65l8.05,4.65"/>
   <path id="svg_22" fill-rule="evenodd" fill="url(#gradient7)" d="m227.1,-30.15q15.75,-9.4 24.15,-23.25q1.7,9.1 -4.5,14.2q11.55,-8.85 18.2,-25q12.6,-6.15 25.2,-4.3q9.6,2.3 9.2,13q-2.85,-8.25 -14.15,1.1l-11.65,9.65q-15.4,17.05 -41.1,23.8q-10.9,-0.5 -5.35,-9.2m18.35,-8.1l1.3,-0.95l-1.3,0.95"/>
   <path id="svg_23" fill-rule="evenodd" fill="#ff9c17" d="m30.1,158.55q67.65,-3.95 125.2,-28.1q30.55,-13.75 53.6,-38.8l6.9,-7.5q19.65,-5.85 46.25,-20.75q-4.85,14.65 -40.75,24.7l-0.3,0.1q-24.1,34.4 -72,54.15q-14.9,6.1 -32.1,10.85q-40.2,11 -93,14.3l6.2,-8.95m-134.55,-35.9l4.3,-2.1q21.05,20.65 52.9,30.55q14.95,4.6 32.3,6.9l1.65,5.45q-46.65,-3.05 -82,-32.55l-9.15,-8.25m321.05,-33.3l4.4,-1.15l-4.4,1.15"/>
   <path id="svg_24" fill-rule="evenodd" fill="#990000" d="m-191.45,101.2l0.7,4l3.3,4.5l5,5.35q-7.6,-3.5 -15.65,-5.6q-18.85,-4.9 -40.2,-2.05l0,-11.1l46.85,4.9"/>
   <path id="svg_25" fill-rule="evenodd" fill="url(#gradient8)" d="m-182.45,115.05q4.5,4.2 10.35,8l-31.6,-1.25q-25.65,3.2 -53,23.75l-5.95,-5.75q6.55,-18.55 17,-25.5q23.8,-7.7 47.55,-4.85q8.05,2.1 15.65,5.6"/>
   <path id="svg_26" fill-rule="evenodd" fill="url(#gradient9)" d="m-165.35,127.05l4.5,2.25q5.5,2.7 11.85,5.1l-2,5.05q-10.75,24.85 -37.55,42.9q-40.45,7.9 -87.2,30.45q15.3,-9.65 18.1,-25.55l0,-18q7.65,-16.9 22.2,-20.05q37.55,-17.35 70.1,-22.15m-73.7,38.75q-6.25,23 78.2,-36.5q-84.45,59.5 -78.2,36.5"/>
   <path id="svg_27" fill-rule="evenodd" fill="#633507" d="m39.35,143.45q-4.85,8.35 -9.25,15.1l-6.2,8.95q-18.8,25.55 -27.9,17q-5.35,-9 -9.3,-21.05l-1.65,-5.45q-6.2,-21.4 -8.5,-51.35q11.7,-9.45 19.75,-4.35q10.4,10.7 36,10l10,0q8.05,6.05 -2.95,31.15m109.65,-1.1q5.9,50.5 -13.15,86.1q-3.8,10 -18.7,14.45q-17.05,-3.35 -20.2,-9.4q-4.55,9.55 -21.65,6.5q29.95,-26.65 48,-68.75q8.95,-22.35 -9.4,-9.55l3,-8.5q17.2,-4.75 32.1,-10.85"/>
   <path id="svg_28" fill-rule="evenodd" fill="#914e0b" d="m12,91.8q8.65,1.4 13.55,4.75q7.65,4.15 23.1,0q13.85,4.1 8.65,13.7q-9.65,18.95 -17.95,33.2q11,-25.1 2.95,-31.15l-10,0q-25.6,0.7 -36,-10q-8.05,-5.1 -19.75,4.35q1.25,-10.6 23.8,-15.9l11.65,1.05m63.3,148.2q-13,-9.1 -6.5,-20.9q31.8,-23.55 45.1,-57.4q18.35,-12.8 9.4,9.55q-18.05,42.1 -48,68.75"/>
   <path id="svg_29" fill-rule="evenodd" fill="url(#gradient10)" d="m-149,134.4q4.5,1.7 12.3,1.1q1.2,-9.3 4.4,-12.5q3.2,-3.2 9.35,-7q-3.75,3.3 0,11.55q10.1,-1.2 18.5,-4.9l9.15,8.25q-4.65,22.35 -24.8,23.35q-23.85,1.05 -30.9,-14.8l2,-5.05"/>
   <path id="svg_30" stroke-width="2" stroke-opacity="0.54902" stroke-linejoin="round" stroke-linecap="round" stroke="#000000" fill="none" d="m73.85,-136.6l-16.7,3.45q-80.6,18 -132.3,60.5m174.9,-68.1q-13.25,1.8 -25.9,4.15m-199.55,151.1q7.45,-29.95 23.45,-59.3l2.35,-4.3q11.4,-12.6 24.75,-23.55m-56.5,124.6q0.7,-9.9 2.3,-19.7q1.45,-8.8 3.6,-17.5m82.25,-28.45l-4.5,2.1q-46.7,43.35 -63.4,97.6m289.95,-149.3q-32.75,-4.4 -86.55,4.25q-25.6,4.55 -52.7,12.85q-42.7,7.4 -82.8,32.5m55.5,105.5q8.65,1.4 13.55,4.75q7.65,4.15 23.1,0q13.85,4.1 8.65,13.7q-9.65,18.95 -17.95,33.2q-4.85,8.35 -9.25,15.1l-6.2,8.95m183,-209.25q-5.6,-9.65 -12.45,-19.6l-4.8,-0.7l-0.8,-0.1l-10.3,-1.15m15.9,1.95l8.45,1.45m21.15,55.35q-3.3,-9.85 -8.05,-19.95m-398.45,139.55q-7.6,-3.5 -15.65,-5.6q-18.85,-4.9 -40.2,-2.05m387.3,34.95q-14.9,6.1 -32.1,10.85m-104.9,-61.4l-11.65,-1.05q-22.55,5.3 -23.8,15.9m8.5,51.35l1.65,5.45m-1.65,-5.45q-6.2,-21.4 -8.5,-51.35m-137.4,22.65q-84.45,59.5 -78.2,36.5m73.7,-38.75q-32.55,4.8 -70.1,22.15"/>
   <path id="svg_31" stroke-width="3.5" stroke-opacity="0.54902" stroke-linejoin="round" stroke-linecap="round" stroke="#000000" fill="none" d="m223.1,-67.1q4.9,-13.75 -4.3,-33.2q-9.15,16.3 -10,0q-16,-9.85 4.95,-7.9q-9.55,-2.8 -26.7,-16.6q-23.35,-22.55 -38.4,-18.95q-22.1,-0.6 -48.9,3q-25.9,-10.8 -87.8,-4.55l-17.3,1.95q-75.75,9.65 -106.55,79.05q-8.3,18.6 -13.55,35.65m-6.3,109.75q-0.95,-14.65 0.1,-29.15q-8.1,-34.3 6.2,-80.6m2.25,111.55l-8.55,-1.8q-22.75,-4.3 -48.15,-4q-11.9,6.65 -11.8,20.25l0.25,3.85l0.7,4l3.3,4.5l5,5.35q4.5,4.2 10.35,8l6.75,4l4.5,2.25q5.5,2.7 11.85,5.1q4.5,1.7 12.3,1.1q1.2,-9.3 4.4,-12.5q3.2,-3.2 9.35,-7q-3.75,3.3 0,11.55q10.1,-1.2 18.5,-4.9l4.3,-2.1q5.2,-2.85 9.75,-6.75q3.35,-2.95 6.35,-6.45m-7.9,-14.4q-4.95,-2.1 -10.05,-3.9q-4.65,-1.65 -9.4,-3.05l-11.8,-3.1m339.15,-107.4q-4,-8.55 -9.05,-17.25m54.5,104.05q-7.95,-13.5 -29.85,-24.8q-8.3,-4.3 -18.6,-8.25l-7.15,-2.65m56.25,36.8l-0.65,-1.1m-14.65,-101.5q6.2,-5.1 4.5,-14.2q-8.4,13.85 -24.15,23.25m72.25,-25.35q0.4,-10.7 -9.2,-13q-12.6,-1.85 -25.2,4.3q-6.65,16.15 -18.2,25l-1.3,0.95m-29.5,13.75l0.05,0q5.95,-2.6 11.1,-5.65m-4,-36.95l-16.2,25.35m20.15,47.25q-1.3,-5 -3,-10.05q28.4,2.55 56.75,-7.75q23,-29 18.55,-43.2m-72.3,61q4.3,16.35 4.5,32m-494.2,102.3l5.95,5.75q27.35,-20.55 53,-23.75l31.6,1.25m-90.55,16.75l-5.95,-5.75q9.5,-5.4 7.95,-10.8q-4.2,-5.15 -13,5.75l-20.9,-15.15q36.55,-10 54.05,-28.1l48.8,11.6m-84.05,115.45q-11.95,5.7 -24.3,12.4l19.2,-24.8q11.75,-21.65 10.1,-43.3q7.05,-6.35 14.05,-11.55m-19.05,67.25q46.75,-22.55 87.2,-30.45q26.8,-18.05 37.55,-42.9m372,-51.25l-4.4,1.15m45.45,-25.95q-4.85,14.65 -40.75,24.7l-0.3,0.1q-24.1,34.4 -72,54.15q5.9,50.5 -13.15,86.1q-3.8,10 -18.7,14.45q-17.05,-3.35 -20.2,-9.4q-4.55,9.55 -21.65,6.5q-13,-9.1 -6.5,-20.9q31.8,-23.55 45.1,-57.4l3,-8.5q-40.2,11 -93,14.3q-18.8,25.55 -27.9,17q-5.35,-9 -9.3,-21.05q-46.65,-3.05 -82,-32.55q-4.65,22.35 -24.8,23.35q-23.85,1.05 -30.9,-14.8m55.7,-8.55l-9.15,-8.25m14.05,-8.85q1.6,3.55 12.85,0"/>
   <path id="svg_32" stroke-width="2" stroke-opacity="0.54902" stroke-linejoin="round" stroke-linecap="round" stroke="#000000" fill="none" d="m-125.75,14.75l0.05,-0.25"/>
   <path id="svg_33" stroke-width="4" stroke-opacity="0.54902" stroke-linejoin="round" stroke-linecap="round" stroke="#000000" fill="none" d="m-32.25,-0.35q-6.9,-4.8 -11.25,-13.35m11.25,13.35q3.5,2.4 7.65,3.85q11.4,3.95 27.7,0.3q9.45,-2.1 16.5,-7.75m72.4,-55.1q3.45,8.1 10.25,13.6q2.45,2 5.45,3.7q8,4.5 19.35,6.45m48.25,-13.85q2.9,-5.95 3.25,-14.15m-139.25,17.1q-2.05,15.05 -7.1,25.7q-4.9,10.4 -12.6,16.55m153.65,-41.8q-6.2,8.85 -19.7,11.1l-9,0.75l-6.5,-0.2m-0.05,0l-10.95,-1.2m46.2,-10.45l2.05,-3.4"/>
   <path id="svg_34" stroke-width="0.05" stroke-linejoin="round" stroke-linecap="round" stroke="#00ff00" fill="none" d="m216,-24.5l-0.05,0"/>
   <path id="svg_35" stroke-width="2" stroke-opacity="0.529412" stroke-linejoin="round" stroke-linecap="round" stroke="#623300" fill="none" d="m89,-43.75l-2.7,-3.95m13.75,4.45l-6.3,6.45l9.7,14.25m-1.2,-22.9l-2.2,2.2m-11.05,-0.5l4.75,6.95l-15.95,16.25l0.7,0.6l10.8,9.25m-35.05,6.15l-2.95,-3.15m-9.35,29.3l13.35,9.7m2.55,-32.05q-12.4,8.55 -15.9,22.35l-10.8,-7.85m26.7,-14.5l10.45,11.05m-14.05,-14.85l3.6,3.8q0.5,-6.1 6.5,-10.3q2.4,-5.55 12.15,-8.2l1.3,-1.3l-9.5,-8.15m-39.95,78.65q-2.55,6.55 -4.65,13.55l-6.6,15.95l13.2,5.85m-10,-40l8.05,4.65q2.5,-18.45 13.6,-28.35m-38.65,51.7l13.8,6.15l-5.1,12.35m16.35,-41.85l10.95,6.35"/>
   <path id="svg_36" stroke-width="0.05" stroke-linejoin="round" stroke-linecap="round" stroke="#000000" fill="none" d="m15.7,-19.65l-0.05,0"/>
   <path id="svg_37" stroke-width="0.05" stroke-opacity="0.54902" stroke-linejoin="round" stroke-linecap="round" stroke="#000000" fill="none" d="m-151,139.45l2,-5.05"/>
  </g>
  <g transform="matrix(1,0,0,1,46,47.5) " id="sprite1">
   <use id="svg_38" xlink:href="#shape2" width="92" transform="matrix(1,0,0,1,-46,-47.5) " height="95"/>
  </g>
  <g transform="matrix(1,0,0,1,46,47.5) " id="shape2">
   <path id="svg_39" fill-rule="evenodd" fill="url(#gradient11)" d="m32.5,-33.65q13.5,13.95 13.5,33.65q0,19.7 -13.5,33.55q-13.45,13.95 -32.5,13.95q-19.05,0 -32.5,-13.95q-13.5,-13.85 -13.5,-33.55q0,-19.7 13.5,-33.65q13.45,-13.85 32.5,-13.85q19.05,0 32.5,13.85"/>
  </g>
  <g transform="matrix(1,0,0,1,289,244.65) " id="shape3">
   <path id="svg_40" fill-rule="evenodd" fill="#bf6000" d="m26.4,-215.05l-5.65,17.75q-7.65,21.55 -26.4,33.6q-15.2,8.65 -21.6,32l0,10.4l4.9,-8.5q6.25,5.05 0,10.1q-51.05,23.4 -70.5,64q-19.65,26.7 -42.4,47.2q-38.45,36.05 -90.4,64l8.05,-15.15q52.65,-22.75 87.15,-65.65q-16,11.25 -32,13.6q31.95,-16.45 48.8,-48l-32,7.1q10.15,-9.35 21,-17.65q33.35,-16.45 64.6,-41.45l-38.4,23.2q-41.25,21.5 -85.6,33.6q-54.25,12.8 -97.45,9.05l6.25,-6q67.4,0.8 132,-20.65l-17.6,-6.4q48.85,-8.35 82.4,-32q-32.3,5.5 -43.45,-7.1l17.9,-3.6q23.65,1.9 47.95,-1.3l7.2,-4q-45.4,2.6 -80,-5.6q-32,-6.8 -60.8,-20q-29.5,-13.35 -41.9,-26.65l3.85,-1.2q25.8,22.55 70.05,35.85q34.3,11 106.4,12.8l-5.15,-16.75l8.45,4.75q-0.25,-2.35 -0.1,-4.8q0.7,-3.65 2.15,-7.3q2.15,20.6 13.05,20.9q3.4,-13.3 20.8,-36q16.7,-9.35 24.8,-21.6q8.2,-10.75 13.65,-22.55m-64.05,89.75q-9.15,-8.2 -10.3,-18.4q1.15,10.2 10.3,18.4"/>
   <path id="svg_41" fill-rule="evenodd" fill="#ff9c17" d="m35.15,-242.9q-0.1,6.15 -0.65,12q-3.4,35.5 -23.35,60q-16.75,13.05 -33.5,41.1l-4.9,8.5l0,-10.4q6.4,-23.35 21.6,-32q18.75,-12.05 26.4,-33.6l5.65,-17.75q6.1,-13.25 8.75,-27.85m-128,187.2q-23.55,58.25 -121.6,111.2l-11.2,0q51.95,-27.95 90.4,-64q22.75,-20.5 42.4,-47.2m-31.8,-14.55q-75.8,37.3 -162.6,30.55l5.75,-6.15q43.2,3.75 97.45,-9.05q44.35,-12.1 85.6,-33.6l38.4,-23.2q-31.25,25 -64.6,41.45m20.65,-51.35q-69.05,-5.75 -132.85,-55.7l5.3,-1.85q12.4,13.3 41.9,26.65q28.8,13.2 60.8,20q34.6,8.2 80,5.6l-7.2,4q-24.3,3.2 -47.95,1.3"/>
   <path id="svg_42" fill-rule="evenodd" fill="url(#gradient12)" d="m-227.7,-180.35q26.4,-7.7 54.85,-3.35q16.3,8.45 23.2,20q-0.6,-6.95 -14.4,-19.2q58.55,7.75 107.65,34.45l5.15,16.75q-72.1,-1.8 -106.4,-12.8q-44.25,-13.3 -70.05,-35.85"/>
   <path id="svg_43" fill-rule="evenodd" fill="url(#gradient13)" d="m-275.25,-51.85q20.25,-18.55 45.6,-28.65q17.45,1.65 22.4,6.4q3,-4.65 -10.4,-12q45,-20.7 95.75,-31.9q11.15,12.6 43.45,7.1q-33.55,23.65 -82.4,32l17.6,6.4q-64.6,21.45 -132,20.65"/>
   <path id="svg_44" fill-rule="evenodd" fill="url(#gradient14)" d="m-217.6,40.35q30.3,-54.7 71.95,-92.95l32,-7.1q-16.85,31.55 -48.8,48q16,-2.35 32,-13.6q-34.5,42.9 -87.15,65.65"/>
   <path id="svg_45" fill-rule="evenodd" fill="url(#gradient15)" d="m35.15,-242.9q-2.65,14.6 -8.75,27.85q-5.45,11.8 -13.65,22.55q-8.1,12.25 -24.8,21.6q-17.4,22.7 -20.8,36q-10.9,-0.3 -13.05,-20.9q4.2,-11.15 14.65,-22.3q-2.05,20.15 4.8,22.4q-5.65,-8.45 3.2,-25.6q29.15,-22.25 49.9,-49.6q4.45,-5.9 8.5,-12"/>
   <path id="svg_46" stroke-width="3.5" stroke-opacity="0.631373" stroke-linejoin="round" stroke-linecap="round" stroke="#401f00" fill="none" d="m-22.35,-129.8q16.75,-28.05 33.5,-41.1q19.95,-24.5 23.35,-60q0.55,-5.85 0.65,-12m-128,187.2q-23.55,58.25 -121.6,111.2l-11.2,0l8.05,-15.15q30.3,-54.7 71.95,-92.95q10.15,-9.35 21,-17.65q-75.8,37.3 -162.6,30.55l5.75,-6.15l6.25,-6q20.25,-18.55 45.6,-28.65q17.45,1.65 22.4,6.4q3,-4.65 -10.4,-12q45,-20.7 95.75,-31.9l17.9,-3.6q-69.05,-5.75 -132.85,-55.7l5.3,-1.85l3.85,-1.2q26.4,-7.7 54.85,-3.35q16.3,8.45 23.2,20q-0.6,-6.95 -14.4,-19.2q58.55,7.75 107.65,34.45l8.45,4.75q-0.25,-2.35 -0.1,-4.8q0.7,-3.65 2.15,-7.3q4.2,-11.15 14.65,-22.3q-2.05,20.15 4.8,22.4q-5.65,-8.45 3.2,-25.6q29.15,-22.25 49.9,-49.6q4.45,-5.9 8.5,-12m-83.1,99.2q1.15,10.2 10.3,18.4"/>
   <path id="svg_47" stroke-width="2" stroke-opacity="0.631373" stroke-linejoin="round" stroke-linecap="round" stroke="#401f00" fill="none" d="m-27.25,-121.3l4.9,-8.5q6.25,5.05 0,10.1m-81.65,-1.9q23.65,1.9 47.95,-1.3m-4,11.2q-31.25,25 -64.6,41.45"/>
  </g>
  <g id="sprite2">
   <use id="svg_48" xlink:href="#shape4" width="102.95" height="45"/>
  </g>
  <g id="shape4">
   <path id="svg_49" fill-rule="evenodd" fill-opacity="0" fill="#ff00ff" d="m102.95,45l-102.95,0l0,-45l102.95,0l0,45"/>
  </g>
  <linearGradient y2="0.561616" y1="1.247322" x2="0.530141" x1="0.679426" spreadMethod="pad" id="gradient0">
   <stop stop-color="#ffb046" offset="0"/>
   <stop stop-color="#febf42" offset="1"/>
  </linearGradient>
  <linearGradient y2="0.2154" y1="0.739656" x2="0.566179" x1="0.38884" spreadMethod="pad" id="gradient1">
   <stop stop-color="#990000" offset="0"/>
   <stop stop-color="#c80000" offset="1"/>
  </linearGradient>
  <linearGradient y2="0.447899" y1="0.616617" x2="0.539683" x1="0.934521" spreadMethod="pad" id="gradient2">
   <stop stop-color="#ffb046" offset="0"/>
   <stop stop-color="#febf42" offset="1"/>
  </linearGradient>
  <linearGradient y2="0.5003" y1="0.5003" x2="-0.287057" x1="0.718148" spreadMethod="pad" id="gradient3">
   <stop stop-color="#ffb046" offset="0"/>
   <stop stop-color="#febf42" offset="1"/>
  </linearGradient>
  <radialGradient spreadMethod="pad" r="819.2" id="gradient4" gradientUnits="userSpaceOnUse" gradientTransform="matrix(0.0351, 0.0, 0.0, 0.0351, -7.7, -10.7)" cy="0" cx="0">
   <stop stop-color="#5fcefe" offset="0"/>
   <stop stop-color="#006f2c" offset="1"/>
  </radialGradient>
  <linearGradient y2="0.436297" y1="0.61184" x2="0.613121" x1="0.258146" spreadMethod="pad" id="gradient5">
   <stop stop-color="#ffb046" offset="0"/>
   <stop stop-color="#febf42" offset="1"/>
  </linearGradient>
  <radialGradient spreadMethod="pad" r="819.2" id="gradient6" gradientUnits="userSpaceOnUse" gradientTransform="matrix(0.0329, 0.0, 0.0, 0.0329, 134.3, -46.7)" cy="0" cx="0">
   <stop stop-color="#5fcefe" offset="0"/>
   <stop stop-color="#006f2c" offset="1"/>
  </radialGradient>
  <linearGradient y2="0.526524" y1="0.768983" x2="0.517696" x1="0.42709" spreadMethod="pad" id="gradient7">
   <stop stop-color="#ffb046" offset="0"/>
   <stop stop-color="#febf42" offset="1"/>
  </linearGradient>
  <linearGradient y2="0.120386" y1="0.49366" x2="0.822404" x1="0.248828" spreadMethod="pad" id="gradient8">
   <stop stop-color="#990000" offset="0"/>
   <stop stop-color="#c80000" offset="1"/>
  </linearGradient>
  <linearGradient y2="0.341027" y1="0.556932" x2="0.820748" x1="0.268798" spreadMethod="pad" id="gradient9">
   <stop stop-color="#990000" offset="0"/>
   <stop stop-color="#c80000" offset="1"/>
  </linearGradient>
  <linearGradient y2="0.499801" y1="0.499801" x2="0.14328" x1="0.831585" spreadMethod="pad" id="gradient10">
   <stop stop-color="#990000" offset="0"/>
   <stop stop-color="#c80000" offset="1"/>
  </linearGradient>
  <radialGradient spreadMethod="pad" r="819.2" id="gradient11" gradientUnits="userSpaceOnUse" gradientTransform="matrix(0.0582, 0.0, 0.0, 0.0582, 0.0, 0.0)" cy="0" cx="0">
   <stop stop-color="#d2401c" offset="0"/>
   <stop stop-opacity="0" stop-color="#e97757" offset="1"/>
  </radialGradient>
  <linearGradient y2="0.165944" y1="0.676699" x2="0.141273" x1="0.717894" spreadMethod="pad" id="gradient12">
   <stop stop-color="#ffb046" offset="0"/>
   <stop stop-color="#febf42" offset="1"/>
  </linearGradient>
  <linearGradient y2="0.519005" y1="0.367986" x2="0.429191" x1="0.791337" spreadMethod="pad" id="gradient13">
   <stop stop-color="#ffb046" offset="0"/>
   <stop stop-color="#febf42" offset="1"/>
  </linearGradient>
  <linearGradient y2="0.441275" y1="0.22839" x2="0.547382" x1="0.752281" spreadMethod="pad" id="gradient14">
   <stop stop-color="#ffb046" offset="0"/>
   <stop stop-color="#febf42" offset="1"/>
  </linearGradient>
  <linearGradient y2="0.191771" y1="0.633229" x2="0.705892" x1="0.366285" spreadMethod="pad" id="gradient15">
   <stop stop-color="#ffb046" offset="0"/>
   <stop stop-color="#febf42" offset="1"/>
  </linearGradient>
 </defs>
 <g>
  <title>background</title>
  <rect fill="none" id="canvas_background" height="184" width="226" y="-1" x="-1"/>
 </g>
 <g>
  <title>Layer 1</title>
  <g stroke="null" id="svg_50">
   <use stroke="null" x="137.050003" y="181.5" id="svg_51" xlink:href="#shape0" width="381" transform="matrix(1.6605262756347656,0,0,1.6605262756347656,-426.405389213562,-545.2157821655272) " height="381"/>
   <use stroke="null" x="-251.256281" y="-519.902495" id="svg_52" xlink:href="#sprite0" width="603.6" transform="matrix(0.3634892017364503,0,0,0.3634892017364503,94.2127769486276,190.63756327056876) " height="489.3"/>
   <use stroke="null" x="-78.086142" y="-115.425476" xlink:href="#sprite2" width="102.95" transform="matrix(3.000903085327149,0,0,2.7461783546447753,195.73947268837372,350.6226203918457) " id="_mcMask" height="45"/>
  </g>
 </g>
</svg>