<?xml version="1.0" encoding="UTF-8" standalone="no"?>
<!DOCTYPE svg PUBLIC "-//W3C//DTD SVG 1.1//EN" "http://www.w3.org/Graphics/SVG/1.1/DTD/svg11.dtd">
<svg width="100%" height="100%" viewBox="0 0 200 204" version="1.1" xmlns="http://www.w3.org/2000/svg" xmlns:xlink="http://www.w3.org/1999/xlink" xml:space="preserve" xmlns:serif="http://www.serif.com/" style="fill-rule:evenodd;clip-rule:evenodd;stroke-linecap:round;stroke-linejoin:round;">
    <g transform="matrix(1,0,0,1,-554,-557.949)">
        <g transform="matrix(1,0,0,1,643.55,745)">
            <path d="M79.95,-78.5L84.25,-84.1L85.6,-84.4L89.1,-84.3L94.8,-75.4L97.4,-63.1L102.35,-51.7L102.4,-51.45C105.933,-44.55 107.433,-36.15 106.9,-26.25C106.167,-24.717 104.017,-22.867 100.45,-20.7C94.883,-16.267 88.217,-13.133 80.45,-11.3L78.15,-11.35C72.217,-11.683 66.75,-13.233 61.75,-16C60.083,-17.267 60.083,-18.517 61.75,-19.75L70.5,-24.25L72.1,-27.45C72.133,-28.25 70.5,-29.65 67.2,-31.65L66.75,-31.9L66.7,-31.95L62.15,-34.55L48.3,-34.05L43.25,-32.7L40.15,-32.6L40.1,-33.05L37.7,-31.1L34.4,-25.8L34.5,-18.85L33.5,-16.6L35.45,-10.2C35.517,-8 35.017,-6.033 33.95,-4.3L31.4,-3.35C29.967,-2.65 28.667,-1.717 27.5,-0.55L23.55,8.15C21.817,9.183 20.1,10.25 18.4,11.35L14.35,12.65L8.6,13.6L7.3,10L7.45,9.55L6.95,9.3L6.5,10.3L-0.6,11.15L-1.95,9.25L-1.45,4.35L-2.7,6.9L-8.3,9.55L-11.4,4.3L-10.9,2.6L-12.8,-0.7L-11.55,-7.95L-5.1,-13.6L-4.4,-15.65L-5.15,-17.05L-5.6,-18.25L-11.15,-18.1C-19.95,-18.1 -27.917,-18.883 -35.05,-20.45C-41.583,-21.917 -47.367,-23.983 -52.4,-26.65L-69.5,-23.35L-74.6,-25.85L-81.8,-23.95L-85.4,-24.85L-84.3,-27.2L-86.6,-28.55L-86.8,-30.8L-83.8,-35.4L-83,-43.6L-78.45,-46.8L-76.2,-50.3L-74.35,-50.65L-74.5,-51.1L-74.9,-52.05L-75.6,-53.95L-77.95,-55.05C-80.383,-58.25 -81.75,-61.733 -82.05,-65.5C-81.317,-68.933 -80.3,-72.25 -79,-75.45L-78.85,-79.65C-78.75,-80.35 -78.7,-80.967 -78.7,-81.5L-78.1,-86.85L-77.75,-89L-76.55,-96.55L-76.5,-96.7C-74.733,-105.333 -72.2,-113.1 -68.9,-120L-61.7,-123.3L-64.2,-124.85C-68.7,-127.783 -72.517,-131.25 -75.65,-135.25L-76.55,-136.35C-77.85,-142.717 -77.667,-148.333 -76,-153.2L-74.15,-157.25C-70.583,-159.417 -66.8,-160.5 -62.8,-160.5L-58.55,-162.7L-54.6,-166.05C-51.333,-168.717 -47.817,-171.067 -44.05,-173.1C-42.15,-174.133 -40.183,-175.1 -38.15,-176C-19.95,-183.767 -4.283,-186.083 8.85,-182.95L10.4,-182.5C16.8,-180.5 22.917,-175.65 28.75,-167.95C31.617,-164.25 34.417,-159.817 37.15,-154.65L39.1,-150.9L41.5,-145.85C43.5,-141.15 45.067,-136.5 46.2,-131.9C47.833,-125.3 48.517,-118.8 48.25,-112.4L49.5,-110.9L49.45,-110.75L49.65,-110.75L52.35,-102.05L59.25,-107.2C62.217,-108.1 65.817,-107.8 70.05,-106.3L72.1,-103.85C73.167,-101.783 74,-99.717 74.6,-97.65L75.55,-92.9C75.917,-89.333 76,-85.633 75.8,-81.8L79.95,-78.5M-1.1,0.9L-1.1,1.05L-1,0.75L-1.1,0.9M-66.35,-158.3L-66,-158.9L-67,-158.35L-66.35,-158.3"/>
            <path d="M79.95,-78.5L84.25,-84.1L85.6,-84.4L89.1,-84.3L94.8,-75.4L97.4,-63.1L102.35,-51.7L102.4,-51.45C105.933,-44.55 107.433,-36.15 106.9,-26.25C106.167,-24.717 104.017,-22.867 100.45,-20.7C94.883,-16.267 88.217,-13.133 80.45,-11.3L78.15,-11.35C72.217,-11.683 66.75,-13.233 61.75,-16C60.083,-17.267 60.083,-18.517 61.75,-19.75L70.5,-24.25L72.1,-27.45C72.133,-28.25 70.5,-29.65 67.2,-31.65L66.75,-31.9L66.7,-31.95L62.15,-34.55L48.3,-34.05L43.25,-32.7L40.15,-32.6L40.1,-33.05L37.7,-31.1L34.4,-25.8L34.5,-18.85L33.5,-16.6L35.45,-10.2C35.517,-8 35.017,-6.033 33.95,-4.3L31.4,-3.35C29.967,-2.65 28.667,-1.717 27.5,-0.55L23.55,8.15C21.817,9.183 20.1,10.25 18.4,11.35L14.35,12.65L8.6,13.6L7.3,10L7.45,9.55L6.95,9.3L6.5,10.3L-0.6,11.15L-1.95,9.25L-1.45,4.35L-2.7,6.9L-8.3,9.55L-11.4,4.3L-10.9,2.6L-12.8,-0.7L-11.55,-7.95L-5.1,-13.6L-4.4,-15.65L-5.15,-17.05L-5.6,-18.25L-11.15,-18.1C-19.95,-18.1 -27.917,-18.883 -35.05,-20.45C-41.583,-21.917 -47.367,-23.983 -52.4,-26.65L-69.5,-23.35L-74.6,-25.85L-81.8,-23.95L-85.4,-24.85L-84.3,-27.2L-86.6,-28.55L-86.8,-30.8L-83.8,-35.4L-83,-43.6L-78.45,-46.8L-76.2,-50.3L-74.35,-50.65L-74.5,-51.1L-74.9,-52.05L-75.6,-53.95L-77.95,-55.05C-80.383,-58.25 -81.75,-61.733 -82.05,-65.5C-81.317,-68.933 -80.3,-72.25 -79,-75.45L-78.85,-79.65C-78.75,-80.35 -78.7,-80.967 -78.7,-81.5L-78.1,-86.85L-77.75,-89L-76.55,-96.55L-76.5,-96.7C-74.733,-105.333 -72.2,-113.1 -68.9,-120L-61.7,-123.3L-64.2,-124.85C-68.7,-127.783 -72.517,-131.25 -75.65,-135.25L-76.55,-136.35C-77.85,-142.717 -77.667,-148.333 -76,-153.2L-74.15,-157.25C-70.583,-159.417 -66.8,-160.5 -62.8,-160.5L-58.55,-162.7L-54.6,-166.05C-51.333,-168.717 -47.817,-171.067 -44.05,-173.1C-42.15,-174.133 -40.183,-175.1 -38.15,-176C-19.95,-183.767 -4.283,-186.083 8.85,-182.95L10.4,-182.5C16.8,-180.5 22.917,-175.65 28.75,-167.95C31.617,-164.25 34.417,-159.817 37.15,-154.65L39.1,-150.9L41.5,-145.85C43.5,-141.15 45.067,-136.5 46.2,-131.9C47.833,-125.3 48.517,-118.8 48.25,-112.4L49.5,-110.9L49.45,-110.75L49.65,-110.75L52.35,-102.05L59.25,-107.2C62.217,-108.1 65.817,-107.8 70.05,-106.3L72.1,-103.85C73.167,-101.783 74,-99.717 74.6,-97.65L75.55,-92.9C75.917,-89.333 76,-85.633 75.8,-81.8L79.95,-78.5M-66.35,-158.3L-67,-158.35L-66,-158.9L-66.35,-158.3M-1.1,0.9L-1,0.75L-1.1,1.05L-1.1,0.9" style="fill:none;fill-rule:nonzero;stroke:#3c2113;stroke-width:5.5px;"/>
            <path d="M72.1,-103.85C73.167,-101.783 74,-99.717 74.6,-97.65L75.55,-92.9C75.917,-89.333 76,-85.633 75.8,-81.8L75.45,-77.65C73.75,-77.217 68.867,-77.567 60.8,-78.7L56.4,-80.6L49.5,-83.65L44.45,-85.9C47.117,-90.867 51.333,-95.8 57.1,-100.7C62.8,-105.6 67.8,-106.65 72.1,-103.85" style="fill:#9a6f3a;"/>
            <path d="M79.95,-78.5L84.25,-84.1L85.6,-84.4L88.25,-75.9L88.85,-56.25L81.1,-64.95L79.95,-69.15L79.15,-72.05L79.95,-78.5" style="fill:#c8ac80;"/>
            <path d="M75.8,-81.8L79.95,-78.5L79.15,-72.05L79.95,-69.15C76.917,-70.817 73.517,-69.967 69.75,-66.6C65.117,-61.467 62.967,-56.817 63.3,-52.65C67.867,-49.917 71.917,-44.417 75.45,-36.15L75.35,-34.4L75.2,-33.7L73.85,-30.9C73.717,-33.133 72.05,-35.317 68.85,-37.45L68.1,-37.95L66.1,-39.2L65.8,-39.35C61,-42.083 56.117,-43.517 51.15,-43.65L47.65,-42.8C44.583,-42.033 42.1,-41.1 40.2,-40L38.8,-46.85L41.6,-51.85C41.867,-55.783 41.3,-59.55 39.9,-63.15L39.7,-63.75L39.35,-64.55L38.8,-65.15L39.35,-64.55L39.7,-63.75L39.9,-63.15C41.3,-59.55 41.867,-55.783 41.6,-51.85L38.8,-46.85L40.2,-40L39.6,-37.55C38.433,-35.583 36.833,-33.833 34.8,-32.3L34.8,-88.7L39.9,-87.2L44.4,-85.7L49.5,-83.65L56.4,-80.6L60.8,-78.7C68.867,-77.567 73.75,-77.217 75.45,-77.65L75.8,-81.8M38.8,-46.85L38.15,-50.1L38.8,-46.85" style="fill:#7d0d0d;"/>
            <path d="M85.6,-84.4L89.1,-84.3L94.8,-75.4L97.4,-63.1L98,-57.65L96.3,-57.65C94.367,-57.55 91.883,-57.083 88.85,-56.25L88.25,-75.9L85.6,-84.4" style="fill:#f8ebcf;"/>
            <path d="M97.4,-63.1L102.35,-51.7L102.35,-51.5L102.4,-51.45C105.933,-44.55 107.433,-36.15 106.9,-26.25C106.167,-24.717 104.017,-22.867 100.45,-20.7C94.883,-16.267 88.217,-13.133 80.45,-11.3L80.3,-12C88.4,-14.567 95.067,-22.133 100.3,-34.7C102.167,-39.1 102.983,-42.933 102.75,-46.2C101.95,-49.5 100.383,-52.8 98.05,-56.1L96.3,-57.65L98,-57.65L97.4,-63.1" style="fill:#a20d0d;"/>
            <path d="M78.15,-11.35C72.217,-11.683 66.75,-13.233 61.75,-16C60.083,-17.267 60.083,-18.517 61.75,-19.75L70.5,-24.25L72.1,-27.45L73.85,-30.9L75.2,-33.7L75.35,-34.4L75.45,-36.15C71.917,-44.417 67.867,-49.917 63.3,-52.65C62.967,-56.817 65.117,-61.467 69.75,-66.6C73.517,-69.967 76.917,-70.817 79.95,-69.15L81.1,-64.95L88.85,-56.25C91.883,-57.083 94.367,-57.55 96.3,-57.65L98.05,-56.1C100.383,-52.8 101.95,-49.5 102.75,-46.2C102.983,-42.933 102.167,-39.1 100.3,-34.7C95.067,-22.133 88.4,-14.567 80.3,-12L78.15,-11.35" style="fill:#e01212;"/>
            <path d="M102.35,-51.7L102.4,-51.45L102.35,-51.5L102.35,-51.7" style="fill:#75a44f;"/>
            <path d="M80.45,-11.3L78.15,-11.35L80.3,-12L80.45,-11.3" style="fill:#497430;"/>
            <path d="M45.2,-94.65C48.4,-98.85 53.083,-103.033 59.25,-107.2C62.217,-108.1 65.817,-107.8 70.05,-106.3L72.1,-103.85C67.8,-106.65 62.8,-105.6 57.1,-100.7C51.333,-95.8 47.117,-90.867 44.45,-85.9C42.783,-88.367 42.417,-90.817 43.35,-93.25L45.2,-94.65" style="fill:#ac8d46;"/>
            <path d="M34.8,-88.7L34.8,-98.8L39.9,-95.65L41.85,-94.05L45.2,-94.65L43.35,-93.25C42.417,-90.817 42.783,-88.367 44.45,-85.9L44.4,-85.7L39.9,-87.2L34.8,-88.7" style="fill:#630a0a;"/>
            <path d="M44.45,-85.9L49.5,-83.65L44.4,-85.7L44.45,-85.9" style="fill:#43582c;"/>
            <path d="M72.1,-27.45C72.133,-28.25 70.5,-29.65 67.2,-31.65L66.75,-31.9L66.7,-31.95L62.15,-34.55L48.3,-34.05L43.25,-32.7L40.15,-32.6L39.6,-37.55L40.2,-40C42.1,-41.1 44.583,-42.033 47.65,-42.8L51.15,-43.65C56.117,-43.517 61,-42.083 65.8,-39.35L66.1,-39.2L68.1,-37.95L68.85,-37.45C72.05,-35.317 73.717,-33.133 73.85,-30.9L72.1,-27.45M47.65,-42.8C49.117,-40.467 49.517,-38.25 48.85,-36.15L48.3,-34.05L48.85,-36.15C49.517,-38.25 49.117,-40.467 47.65,-42.8M66.7,-31.95C65.933,-32.417 65.7,-33.35 66,-34.75C66.267,-36.217 66.967,-37.283 68.1,-37.95C66.967,-37.283 66.267,-36.217 66,-34.75C65.7,-33.35 65.933,-32.417 66.7,-31.95" style="fill:#946334;"/>
            <path d="M72.1,-103.85C73.167,-101.783 74,-99.717 74.6,-97.65L75.55,-92.9C75.917,-89.333 76,-85.633 75.8,-81.8L79.95,-78.5L84.25,-84.1L85.6,-84.4L89.1,-84.3L94.8,-75.4L97.4,-63.1L102.35,-51.7L102.4,-51.45C105.933,-44.55 107.433,-36.15 106.9,-26.25C106.167,-24.717 104.017,-22.867 100.45,-20.7C94.883,-16.267 88.217,-13.133 80.45,-11.3L78.15,-11.35C72.217,-11.683 66.75,-13.233 61.75,-16C60.083,-17.267 60.083,-18.517 61.75,-19.75L70.5,-24.25L72.1,-27.45C72.133,-28.25 70.5,-29.65 67.2,-31.65L66.75,-31.9L66.7,-31.95L62.15,-34.55L48.3,-34.05L43.25,-32.7L40.15,-32.6L39.6,-37.55C38.433,-35.583 36.833,-33.833 34.8,-32.3M34.8,-98.8L39.9,-95.65L41.85,-94.05L45.2,-94.65C48.4,-98.85 53.083,-103.033 59.25,-107.2C62.217,-108.1 65.817,-107.8 70.05,-106.3L72.1,-103.85M44.45,-85.9L49.5,-83.65L56.4,-80.6L60.8,-78.7C68.867,-77.567 73.75,-77.217 75.45,-77.65L75.8,-81.8M79.95,-78.5L79.15,-72.05L79.95,-69.15L81.1,-64.95L88.85,-56.25C91.883,-57.083 94.367,-57.55 96.3,-57.65L98,-57.65L97.4,-63.1M73.85,-30.9L75.2,-33.7L75.35,-34.4M45.2,-94.65L43.35,-93.25C42.417,-90.817 42.783,-88.367 44.45,-85.9M38.8,-65.15L39.35,-64.55L39.7,-63.75L39.9,-63.15C41.3,-59.55 41.867,-55.783 41.6,-51.85L38.8,-46.85L40.2,-40C42.1,-41.1 44.583,-42.033 47.65,-42.8L51.15,-43.65C56.117,-43.517 61,-42.083 65.8,-39.35M66.1,-39.2L68.1,-37.95L68.85,-37.45C72.05,-35.317 73.717,-33.133 73.85,-30.9L72.1,-27.45M38.15,-50.1L38.8,-46.85M68.1,-37.95C66.967,-37.283 66.267,-36.217 66,-34.75C65.7,-33.35 65.933,-32.417 66.7,-31.95M48.3,-34.05L48.85,-36.15C49.517,-38.25 49.117,-40.467 47.65,-42.8M40.2,-40L39.6,-37.55" style="fill:none;fill-rule:nonzero;stroke:#000;stroke-opacity:0.38;stroke-width:1px;"/>
            <path d="M-53.45,-43.9L-48.05,-52.4C-48.55,-42.3 -50.683,-39.267 -54.45,-43.3C-55.017,-43.967 -55.633,-44.567 -56.3,-45.1L-53.45,-43.9M-70.3,-51.4L-70.3,-51.45C-72.8,-57.483 -73.9,-63.217 -73.6,-68.65C-72.2,-60.283 -68.5,-53.733 -62.5,-49C-64.867,-50.067 -67.467,-50.867 -70.3,-51.4" style="fill:#d0b792;"/>
            <path d="M-63.5,-93.2C-61.8,-95.567 -59.933,-97.733 -57.9,-99.7L-53.45,-43.9L-56.3,-45.1C-58.133,-46.667 -60.2,-47.967 -62.5,-49C-68.5,-53.733 -72.2,-60.283 -73.6,-68.65C-73.4,-71.65 -72.767,-74.567 -71.7,-77.4C-69.567,-83.333 -66.833,-88.6 -63.5,-93.2" style="fill:#e8d7b7;"/>
            <path d="M-48.05,-52.4L-35.8,-29.85L-69.5,-23.35L-74.6,-25.85L-72.65,-26.4L-70.05,-24.75L-67.65,-28.95L-71.2,-39.3L-74.15,-38.95L-74.55,-43.5L-76.2,-42.55L-76.6,-48.05L-77.4,-48.4L-76.2,-50.3L-70.3,-51.4C-67.467,-50.867 -64.867,-50.067 -62.5,-49C-60.2,-47.967 -58.133,-46.667 -56.3,-45.1C-55.633,-44.567 -55.017,-43.967 -54.45,-43.3C-50.683,-39.267 -48.55,-42.3 -48.05,-52.4M-70.3,-51.45L-77.95,-55.05C-80.383,-58.25 -81.75,-61.733 -82.05,-65.5C-80.317,-73.633 -76.95,-81.2 -71.95,-88.2C-69.217,-90.767 -66.4,-92.433 -63.5,-93.2C-66.833,-88.6 -69.567,-83.333 -71.7,-77.4C-72.767,-74.567 -73.4,-71.65 -73.6,-68.65C-73.9,-63.217 -72.8,-57.483 -70.3,-51.45M-62.5,-49C-60.7,-47.533 -58.633,-46.233 -56.3,-45.1C-58.633,-46.233 -60.7,-47.533 -62.5,-49" style="fill:#a20d0d;"/>
            <path d="M-83.8,-35.4L-83,-43.6L-78.45,-46.8L-76.6,-48.05L-76.2,-42.55C-77.733,-41.65 -79.283,-40.783 -80.85,-39.95L-83.8,-35.4" style="fill:#946334;"/>
            <path d="M-78.45,-46.8L-77.4,-48.4L-76.6,-48.05L-78.45,-46.8" style="fill:#497430;"/>
            <path d="M-74.6,-25.85L-81.8,-23.95L-85.4,-24.85L-84.3,-27.2L-86.6,-28.55L-86.8,-30.8L-83.8,-35.4L-80.85,-39.95C-79.283,-40.783 -77.733,-41.65 -76.2,-42.55L-74.55,-43.5L-74.15,-38.95L-71.2,-39.3L-67.65,-28.95L-70.05,-24.75L-72.65,-26.4L-74.6,-25.85M-74.15,-38.95L-81.3,-33.75L-84.3,-27.2L-81.3,-33.75L-74.15,-38.95" style="fill:#9a6f3a;"/>
            <path d="M-35.8,-29.85L-69.5,-23.35L-74.6,-25.85L-81.8,-23.95L-85.4,-24.85L-84.3,-27.2L-86.6,-28.55L-86.8,-30.8L-83.8,-35.4L-83,-43.6L-78.45,-46.8L-77.4,-48.4L-76.2,-50.3L-70.3,-51.4L-70.3,-51.45L-77.95,-55.05C-80.383,-58.25 -81.75,-61.733 -82.05,-65.5C-80.317,-73.633 -76.95,-81.2 -71.95,-88.2C-69.217,-90.767 -66.4,-92.433 -63.5,-93.2C-61.8,-95.567 -59.933,-97.733 -57.9,-99.7M-53.45,-43.9L-56.3,-45.1C-55.633,-44.567 -55.017,-43.967 -54.45,-43.3C-50.683,-39.267 -48.55,-42.3 -48.05,-52.4M-62.5,-49C-60.2,-47.967 -58.133,-46.667 -56.3,-45.1C-58.633,-46.233 -60.7,-47.533 -62.5,-49C-64.867,-50.067 -67.467,-50.867 -70.3,-51.4M-63.5,-93.2C-66.833,-88.6 -69.567,-83.333 -71.7,-77.4C-72.767,-74.567 -73.4,-71.65 -73.6,-68.65C-72.2,-60.283 -68.5,-53.733 -62.5,-49M-76.6,-48.05L-76.2,-42.55L-74.55,-43.5L-74.15,-38.95L-71.2,-39.3L-67.65,-28.95L-70.05,-24.75L-72.65,-26.4L-74.6,-25.85M-76.6,-48.05L-78.45,-46.8M-83.8,-35.4L-80.85,-39.95C-79.283,-40.783 -77.733,-41.65 -76.2,-42.55M-73.6,-68.65C-73.9,-63.217 -72.8,-57.483 -70.3,-51.45M-84.3,-27.2L-81.3,-33.75L-74.15,-38.95" style="fill:none;fill-rule:nonzero;stroke:#000;stroke-opacity:0.38;stroke-width:1px;"/>
            <path d="M-68.9,-120L-48.8,-129.15L-36.5,-142.15L-1,-134.45L18.6,-126.25L33.2,-130.25L49.5,-110.9L49.45,-110.75L36,-114.7L27.15,-102.1L6.75,-92.3L-10.35,-93.4L-28.95,-100.25L-39.65,-96.2L-40.4,-95.8L-41.1,-95.4L-41.05,-95.35L-65.3,-104.7L-66.2,-105.05L-67.1,-110.2L-68.9,-120M4.5,-35.35L4.4,-39.95L4.4,-42.8C7.733,-45.5 10.65,-48.1 13.15,-50.6C15.117,-52.633 16.817,-54.583 18.25,-56.45C20.583,-56.817 22.65,-57.35 24.45,-58.05L26.7,-59.25L27.1,-59.5L27.1,-59.8L27,-59.75L26.7,-59.3L26.75,-59.75C26.55,-59.983 25.8,-59.817 24.5,-59.25L26.15,-61C26.483,-61.367 26.35,-61.817 25.75,-62.35C27.117,-63.85 28.933,-65.067 31.2,-66C32.7,-66.6 34.233,-66.933 35.8,-67C39.633,-67.4 43.367,-66.35 47,-63.85L50.15,-51.1L49.15,-48.45C42.15,-31.983 27.617,-23.15 5.55,-21.95L5.4,-23.95C4.9,-27.85 4.6,-31.65 4.5,-35.35M27,-59.75L26.75,-59.75L27,-59.75"/>
            <path d="M55.6,-76.2L55.05,-64.3C52.283,-73 45.867,-73.9 35.8,-67C34.233,-66.933 32.7,-66.6 31.2,-66C28.933,-65.067 27.117,-63.85 25.75,-62.35C26.35,-61.817 26.483,-61.367 26.15,-61L24.5,-59.25C25.8,-59.817 26.55,-59.983 26.75,-59.75L26.7,-59.75L26.5,-59.65L24.45,-58.05C22.65,-57.35 20.583,-56.817 18.25,-56.45C16.817,-54.583 15.117,-52.633 13.15,-50.6C7.75,-47.6 3.3,-45.567 -0.2,-44.5C6.367,-57.033 15.883,-63.867 28.35,-65L28.35,-70.45L29.55,-82.65C30.017,-91.083 29.217,-97.567 27.15,-102.1L36,-114.7L49.45,-110.75C51.183,-105.983 52.55,-100.95 53.55,-95.65L54.65,-88.7C55.15,-84.367 55.467,-80.2 55.6,-76.2M-35.05,-20.45C-48.517,-23.483 -58.9,-29.15 -66.2,-37.45C-54.833,-27.783 -39.45,-24.867 -20.05,-28.7C-11.55,-30.633 -3.367,-32.85 4.5,-35.35C4.6,-31.65 4.9,-27.85 5.4,-23.95C-3.067,-20.55 -16.55,-19.383 -35.05,-20.45M25.75,-62.35C24.283,-61.117 23.867,-60.083 24.5,-59.25L26.5,-59.65L24.5,-59.25C23.867,-60.083 24.283,-61.117 25.75,-62.35" style="fill:#1c1813;"/>
            <path d="M49.65,-110.75C52.117,-103.983 53.85,-96.733 54.85,-89L55.25,-84.65L55.6,-76.2C55.467,-80.2 55.15,-84.367 54.65,-88.7L53.55,-95.65C52.55,-100.95 51.183,-105.983 49.45,-110.75L49.65,-110.75" style="fill:#f8ebcf;"/>
            <path d="M-74.5,-51.1L-74.9,-52.05C-78.1,-60.15 -79.417,-69.35 -78.85,-79.65C-78.75,-80.35 -78.7,-80.967 -78.7,-81.5L-78.1,-86.85L-77.75,-89L-76.55,-96.55L-72.45,-96.25C-73.217,-93.083 -73.767,-89.65 -74.1,-85.95C-74.567,-81.45 -74.7,-77.217 -74.5,-73.25L-74.35,-74.85C-72.817,-84.75 -71.117,-91.6 -69.25,-95.4C-62.95,-93.167 -56.75,-87.767 -50.65,-79.2C-47.517,-75.467 -44.317,-70.6 -41.05,-64.6C-31.117,-47.567 -17.5,-40.867 -0.2,-44.5C-1.233,-41.933 -1.933,-39.367 -2.3,-36.8C-11.1,-33.8 -19.417,-32.3 -27.25,-32.3C-45.55,-32.3 -61.183,-38.633 -74.15,-51.3L-74.5,-51.1M27,-59.75L27.1,-59.8L27.1,-59.5L26.7,-59.25L24.45,-58.05L26.5,-59.65L26.7,-59.75L26.75,-59.75L26.7,-59.3L27,-59.75L27.1,-59.75L27,-59.75" style="fill:#e07e1f;"/>
            <path d="M-76.55,-96.55L-76.5,-96.7C-74.733,-105.333 -72.2,-113.1 -68.9,-120L-67.1,-110.2C-69.433,-106.2 -71.217,-101.55 -72.45,-96.25L-76.55,-96.55M-65.3,-104.7L-41.05,-95.35L-41.1,-95.4L-40.4,-95.8L-39.65,-96.2L-28.95,-100.25L-22.2,-94.35L-22.3,-83.45L-12.9,-77.35L-2.45,-80.85L6.75,-92.3L27.15,-102.1C29.217,-97.567 30.017,-91.083 29.55,-82.65L28.35,-70.45L28.35,-65C15.883,-63.867 6.367,-57.033 -0.2,-44.5C-17.5,-40.867 -31.117,-47.567 -41.05,-64.6C-44.317,-70.6 -47.517,-75.467 -50.65,-79.2C-56.75,-87.767 -62.95,-93.167 -69.25,-95.4C-68.517,-98.733 -67.2,-101.833 -65.3,-104.7M-57.15,-91.25L-51.7,-91.25L-41.05,-95.35L-40.4,-95.8L-41.05,-95.35L-51.7,-91.25L-57.15,-91.25" style="fill:#473932;"/>
            <path d="M-67.1,-110.2L-66.2,-105.05L-65.3,-104.7C-67.2,-101.833 -68.517,-98.733 -69.25,-95.4C-70.35,-95.8 -71.417,-96.083 -72.45,-96.25C-71.217,-101.55 -69.433,-106.2 -67.1,-110.2" style="fill:#8f755c;"/>
            <path d="M-72.45,-96.25C-71.417,-96.083 -70.35,-95.8 -69.25,-95.4C-71.117,-91.6 -72.817,-84.75 -74.35,-74.85L-74.5,-73.25C-74.7,-77.217 -74.567,-81.45 -74.1,-85.95C-73.767,-89.65 -73.217,-93.083 -72.45,-96.25" style="fill:#f4e071;"/>
            <path d="M-28.95,-100.25L-10.35,-93.4L6.75,-92.3L-2.45,-80.85L-12.9,-77.35L-22.3,-83.45L-22.2,-94.35L-28.95,-100.25" style="fill:#69534b;"/>
            <path d="M55.05,-64.3L53.65,-57C52.883,-53.7 51.9,-50.617 50.7,-47.75C49,-44.05 46.967,-40.65 44.6,-37.55C36,-27.683 23.167,-21.483 6.1,-18.95L6,-19.15L-11.15,-18.1C-19.95,-18.1 -27.917,-18.883 -35.05,-20.45C-16.55,-19.383 -3.067,-20.55 5.4,-23.95L5.55,-21.95C27.617,-23.15 42.15,-31.983 49.15,-48.45L50.15,-51.1L47,-63.85C43.367,-66.35 39.633,-67.4 35.8,-67C45.867,-73.9 52.283,-73 55.05,-64.3M-66.2,-37.45L-67.25,-38.85C-70.25,-42.617 -72.667,-46.7 -74.5,-51.1L-74.15,-51.3C-61.183,-38.633 -45.55,-32.3 -27.25,-32.3C-19.417,-32.3 -11.1,-33.8 -2.3,-36.8C-1.933,-39.367 -1.233,-41.933 -0.2,-44.5C3.3,-45.567 7.75,-47.6 13.15,-50.6C10.65,-48.1 7.733,-45.5 4.4,-42.8L4.4,-39.95L4.5,-35.35C-3.367,-32.85 -11.55,-30.633 -20.05,-28.7C-39.45,-24.867 -54.833,-27.783 -66.2,-37.45" style="fill:#aa4f1e;"/>
            <path d="M6.1,-18.95L5.3,-18.75C5.433,-18.917 5.667,-19.05 6,-19.15L6.1,-18.95" style="fill:#63562e;fill-opacity:0.3;"/>
            <path d="M-68.9,-120L-48.8,-129.15L-36.5,-142.15L-1,-134.45L18.6,-126.25L33.2,-130.25" style="fill:none;fill-rule:nonzero;stroke:#33291c;stroke-width:0.05px;"/>
            <path d="M33.2,-130.25L49.5,-110.9L49.65,-110.75C52.117,-103.983 53.85,-96.733 54.85,-89L55.25,-84.65L55.6,-76.2L55.05,-64.3L53.65,-57C52.883,-53.7 51.9,-50.617 50.7,-47.75C49,-44.05 46.967,-40.65 44.6,-37.55C36,-27.683 23.167,-21.483 6.1,-18.95L5.3,-18.75C5.433,-18.917 5.667,-19.05 6,-19.15L-11.15,-18.1C-19.95,-18.1 -27.917,-18.883 -35.05,-20.45C-48.517,-23.483 -58.9,-29.15 -66.2,-37.45L-67.25,-38.85C-70.25,-42.617 -72.667,-46.7 -74.5,-51.1L-74.9,-52.05C-78.1,-60.15 -79.417,-69.35 -78.85,-79.65C-78.75,-80.35 -78.7,-80.967 -78.7,-81.5L-78.1,-86.85L-77.75,-89L-76.55,-96.55L-76.5,-96.7C-74.733,-105.333 -72.2,-113.1 -68.9,-120L-67.1,-110.2L-66.2,-105.05L-65.3,-104.7L-41.05,-95.35L-41.1,-95.4L-40.4,-95.8L-39.65,-96.2L-28.95,-100.25L-10.35,-93.4L6.75,-92.3L27.15,-102.1L36,-114.7L49.45,-110.75L49.65,-110.75M49.45,-110.75C51.183,-105.983 52.55,-100.95 53.55,-95.65L54.65,-88.7C55.15,-84.367 55.467,-80.2 55.6,-76.2M6.1,-18.95L6,-19.15" style="fill:none;fill-rule:nonzero;stroke:#53472d;stroke-width:0.05px;"/>
            <path d="M-41.05,-95.35L-40.4,-95.8M-41.05,-95.35L-51.7,-91.25L-57.15,-91.25" style="fill:none;fill-rule:nonzero;stroke:#1c1813;stroke-width:0.05px;"/>
            <path d="M6.75,-92.3L-2.45,-80.85L-12.9,-77.35L-22.3,-83.45L-22.2,-94.35L-28.95,-100.25" style="fill:none;fill-rule:nonzero;stroke:#8f755c;stroke-width:0.05px;"/>
            <path d="M4.5,-35.35L4.4,-39.95L4.4,-42.8C7.733,-45.5 10.65,-48.1 13.15,-50.6C15.117,-52.633 16.817,-54.583 18.25,-56.45C20.583,-56.817 22.65,-57.35 24.45,-58.05L26.7,-59.25L27.1,-59.5L27.1,-59.75L26.7,-59.75L26.5,-59.65L24.5,-59.25C23.867,-60.083 24.283,-61.117 25.75,-62.35C27.117,-63.85 28.933,-65.067 31.2,-66C32.7,-66.6 34.233,-66.933 35.8,-67C39.633,-67.4 43.367,-66.35 47,-63.85M5.4,-23.95L5.55,-21.95M4.5,-35.35C4.6,-31.65 4.9,-27.85 5.4,-23.95" style="fill:none;fill-rule:nonzero;stroke:#483a24;stroke-width:0.05px;"/>
            <path d="M-16.8,-114.25C-15.767,-111.95 -16.333,-109.45 -18.5,-106.75C-19.467,-106.117 -20.55,-106.05 -21.75,-106.55L-22.75,-107.6L-16.8,-114.25M-43.05,-108C-44.383,-107.667 -45.5,-107.883 -46.4,-108.65C-48.133,-111.617 -48.317,-114.167 -46.95,-116.3L-42,-108.9L-43.05,-108"/>
            <path d="M-16.8,-114.25L-14.15,-118.1C-11.15,-114.233 -10.733,-111 -12.9,-108.4C-14.233,-107.967 -16.483,-106.583 -19.65,-104.25L-21.75,-106.55C-20.55,-106.05 -19.467,-106.117 -18.5,-106.75C-16.333,-109.45 -15.767,-111.95 -16.8,-114.25M-43.05,-108L-45.5,-106C-48.333,-108.767 -50.4,-110.45 -51.7,-111.05C-53.467,-113.917 -52.567,-117.067 -49,-120.5L-46.95,-116.3C-48.317,-114.167 -48.133,-111.617 -46.4,-108.65C-45.5,-107.883 -44.383,-107.667 -43.05,-108" style="fill:#ceb579;"/>
            <path d="M-51,-87.85L-51,-89.6" style="fill:none;fill-rule:nonzero;stroke:#1c1813;stroke-width:0.05px;"/>
            <path d="M23.65,-156.05C28.717,-158.55 33.2,-158.083 37.1,-154.65L39.05,-150.95L41.4,-145.85C43.433,-141.183 45.017,-136.533 46.15,-131.9C41.55,-128.667 34.1,-128.233 23.8,-130.6C24.233,-141.867 24.183,-150.35 23.65,-156.05" style="fill:#aa4f1e;"/>
            <path d="M5.3,-177.3C6.333,-177.867 6.85,-178.617 6.85,-179.55C6.85,-180.483 6.283,-181.283 5.15,-181.95C4.017,-182.617 2.667,-182.95 1.1,-182.95C-0.5,-182.95 -1.867,-182.617 -3,-181.95C-4.1,-181.283 -4.65,-180.483 -4.65,-179.55C-4.65,-178.617 -4,-177.967 -2.7,-177.6L1.5,-176.75C2.967,-176.583 4.233,-176.767 5.3,-177.3M8.75,-182.95L8.75,-182.9C14.717,-179.467 19.183,-173.25 22.15,-164.25C22.75,-162.417 23.25,-159.683 23.65,-156.05C10.55,-149.417 -7.133,-151.567 -29.4,-162.5C-17.1,-168.3 -9.8,-171.85 -7.5,-173.15C-5.233,-174.45 -5.5,-176.45 -8.3,-179.15C-16.8,-182.583 -28.183,-179.417 -42.45,-169.65C-44.217,-171.483 -44.783,-172.633 -44.15,-173.1L-38.2,-176C-20,-183.767 -4.35,-186.083 8.75,-182.95M22.05,-115.85L2.6,-111.25L-11,-121.75L-14.05,-131.3L-22.7,-137.3L-25.8,-145.05L-34.9,-145.5L-40.85,-137.3L-46.4,-132.9L-53.25,-138.75L-59.95,-144.6L-62.25,-146.5L-61.95,-149.95L-57.4,-155.1L-55.65,-157.15L-61.2,-157.75L-60.95,-160.4L-58.6,-162.7L-54.65,-166.05L-51.85,-161.6L-54.25,-158.55C-55.25,-154.883 -54.317,-152.983 -51.45,-152.85L-44.95,-156.25C-22.317,-142.85 0.6,-134.3 23.8,-130.6L22.05,-115.85" style="fill:#473932;"/>
            <path d="M8.75,-182.9L10.35,-182.55C16.75,-180.517 22.85,-175.667 28.65,-168C31.55,-164.267 34.367,-159.817 37.1,-154.65C33.2,-158.083 28.717,-158.55 23.65,-156.05C23.25,-159.683 22.75,-162.417 22.15,-164.25C19.183,-173.25 14.717,-179.467 8.75,-182.9M23.8,-130.6C34.1,-128.233 41.55,-128.667 46.15,-131.9C47.817,-125.1 48.483,-118.433 48.15,-111.9C43.317,-114.867 38.5,-117.867 33.7,-120.9L22.05,-115.85L23.8,-130.6" style="fill:#1c1813;"/>
            <path d="M23.65,-156.05C24.183,-150.35 24.233,-141.867 23.8,-130.6C0.6,-134.3 -22.317,-142.85 -44.95,-156.25L-29.4,-162.5C-7.133,-151.567 10.55,-149.417 23.65,-156.05M-51.85,-161.6L-54.65,-166.05C-51.417,-168.75 -47.917,-171.1 -44.15,-173.1C-44.783,-172.633 -44.217,-171.483 -42.45,-169.65C-43.85,-169.083 -46.983,-166.4 -51.85,-161.6" style="fill:#e07e1f;"/>
            <path d="M10.35,-182.55L8.75,-182.9L8.75,-182.95L10.35,-182.55M-61.2,-157.75L-55.65,-157.15L-57.4,-155.1L-70.55,-156.5L-66.4,-158.3L-61.2,-157.75" style="fill:#f8ebcf;"/>
            <path d="M-44.95,-156.25L-51.45,-152.85C-54.317,-152.983 -55.25,-154.883 -54.25,-158.55L-51.85,-161.6L-44.95,-156.25M-29.4,-162.5C-34.8,-164.867 -39.15,-167.25 -42.45,-169.65C-28.183,-179.417 -16.8,-182.583 -8.3,-179.15C-5.5,-176.45 -5.233,-174.45 -7.5,-173.15C-9.8,-171.85 -17.1,-168.3 -29.4,-162.5" style="fill:#8f755c;"/>
            <path d="M-58.6,-162.7L-60.95,-160.4L-61.2,-157.75L-66.4,-158.3L-66.05,-158.9L-62.85,-160.55L-58.6,-162.7M-57.4,-155.1L-61.95,-149.95L-61.9,-150.45L-61.95,-149.95L-65.35,-148.35L-66.95,-148.2C-69.617,-149.967 -71.15,-151.983 -71.55,-154.25L-70.55,-156.5L-57.4,-155.1" style="fill:#c8ac80;"/>
            <path d="M-42.45,-169.65C-39.15,-167.25 -34.8,-164.867 -29.4,-162.5L-44.95,-156.25L-51.85,-161.6C-46.983,-166.4 -43.85,-169.083 -42.45,-169.65" style="fill:#f4e071;"/>
            <path d="M-62.85,-160.55L-66.05,-158.9C-66.417,-158.7 -66.75,-158.533 -67.05,-158.4L-66.4,-158.3L-70.55,-156.5L-71.55,-154.25C-71.15,-151.983 -69.617,-149.967 -66.95,-148.2L-65.35,-148.35L-67.25,-145.6C-74.717,-142.4 -77.667,-144.933 -76.1,-153.2C-75.6,-154.633 -74.967,-155.983 -74.2,-157.25C-70.633,-159.45 -66.85,-160.55 -62.85,-160.55" style="fill:#f02f13;"/>
            <path d="M-61.95,-149.95L-62.25,-146.5L-59.95,-144.6L-58.15,-138.6C-59.517,-136.067 -61.683,-134.383 -64.65,-133.55C-68.817,-132.683 -72.517,-133.267 -75.75,-135.3L-76.6,-136.4C-77.933,-142.767 -77.767,-148.367 -76.1,-153.2C-77.667,-144.933 -74.717,-142.4 -67.25,-145.6L-65.35,-148.35L-61.95,-149.95L-61.9,-150.45L-61.95,-149.95" style="fill:#b40e0e;"/>
            <path d="M-59.95,-144.6L-53.25,-138.75L-54,-131.3L-64.25,-124.85C-68.75,-127.817 -72.583,-131.3 -75.75,-135.3C-72.517,-133.267 -68.817,-132.683 -64.65,-133.55C-61.683,-134.383 -59.517,-136.067 -58.15,-138.6L-59.95,-144.6" style="fill:#630a0a;"/>
            <path d="M-46.4,-132.9C-47.667,-129.4 -52.75,-126.183 -61.65,-123.25L-64.25,-124.85L-54,-131.3L-53.25,-138.75L-46.4,-132.9" style="fill:#2b0404;"/>
            <path d="M-11,-121.75L-24.85,-132.4L-41.35,-130L-46.4,-132.9L-40.85,-137.3L-34.9,-145.5L-25.8,-145.05L-22.7,-137.3L-14.05,-131.3L-11,-121.75" style="fill:#69534b;"/>
            <path d="M5.3,-177.3C4.233,-176.767 2.967,-176.583 1.5,-176.75L-2.7,-177.6C-4,-177.967 -4.65,-178.617 -4.65,-179.55C-4.65,-180.483 -4.1,-181.283 -3,-181.95C-1.867,-182.617 -0.5,-182.95 1.1,-182.95C2.667,-182.95 4.017,-182.617 5.15,-181.95C6.283,-181.283 6.85,-180.483 6.85,-179.55C6.85,-178.617 6.333,-177.867 5.3,-177.3" style="fill:#a69264;"/>
            <path d="M8.75,-182.9L10.35,-182.55L8.75,-182.95C-4.35,-186.083 -20,-183.767 -38.2,-176L-44.15,-173.1C-47.917,-171.1 -51.417,-168.75 -54.65,-166.05L-58.6,-162.7M37.1,-154.65C34.367,-159.817 31.55,-164.267 28.65,-168C22.85,-175.667 16.75,-180.517 10.35,-182.55M46.15,-131.9C45.017,-136.533 43.433,-141.183 41.4,-145.85L39.05,-150.95L37.1,-154.65M46.15,-131.9C47.817,-125.1 48.483,-118.433 48.15,-111.9C43.317,-114.867 38.5,-117.867 33.7,-120.9L22.05,-115.85L2.6,-111.25L-11,-121.75L-24.85,-132.4L-41.35,-130L-46.4,-132.9L-53.25,-138.75L-59.95,-144.6L-62.25,-146.5L-61.95,-149.95L-61.9,-150.45" style="fill:none;fill-rule:nonzero;stroke:#53472d;stroke-width:0.05px;"/>
            <path d="M-40.85,-137.3L-34.9,-145.5M-25.8,-145.05L-22.7,-137.3L-14.05,-131.3L-11,-121.75" style="fill:none;fill-rule:nonzero;stroke:#1c1813;stroke-width:0.05px;"/>
            <path d="M-46.4,-132.9L-40.85,-137.3M-34.9,-145.5L-25.8,-145.05" style="fill:none;fill-rule:nonzero;stroke:#755835;stroke-width:0.05px;"/>
            <path d="M-46.4,-132.9C-47.667,-129.4 -52.75,-126.183 -61.65,-123.25L-64.25,-124.85L-65.5,-124.05M-58.6,-162.7L-60.95,-160.4L-61.2,-157.75L-55.65,-157.15L-57.4,-155.1L-61.95,-149.95L-65.35,-148.35L-66.95,-148.2C-69.617,-149.967 -71.15,-151.983 -71.55,-154.25L-70.55,-156.5L-66.4,-158.3L-61.2,-157.75M-58.6,-162.7L-62.85,-160.55L-66.05,-158.9M-76.1,-153.2C-77.767,-148.367 -77.933,-142.767 -76.6,-136.4L-75.75,-135.3C-72.583,-131.3 -68.75,-127.817 -64.25,-124.85M-61.9,-150.45L-61.95,-149.95M-62.85,-160.55C-66.85,-160.55 -70.633,-159.45 -74.2,-157.25C-74.967,-155.983 -75.6,-154.633 -76.1,-153.2" style="fill:none;fill-rule:nonzero;stroke:#000;stroke-opacity:0.38;stroke-width:1px;"/>
            <path d="M30.7,-59.4C37.267,-57.333 40.8,-54.333 41.3,-50.4C41.8,-46.467 41.867,-43.017 41.5,-40.05C41.1,-37.15 38.733,-32.4 34.4,-25.8L34.5,-18.85L33.5,-16.6L35.45,-10.2C35.517,-8 35.017,-6.033 33.95,-4.3L31.4,-3.35C29.967,-2.65 28.667,-1.717 27.5,-0.55L23.55,8.15L23.5,8.15C24.7,5.883 23.983,2.85 21.35,-0.95C14.117,-5.05 7.033,-6.55 0.1,-5.45C-2.733,-9.117 -6.133,-10.35 -10.1,-9.15L-5.1,-13.6L-4.4,-15.65L-5.15,-17.05L-6.6,-21.15L-7.4,-24.8C-5.933,-21.867 -2.833,-19.383 1.9,-17.35C8.667,-15.483 14.933,-16.15 20.7,-19.35C26.9,-23.65 30.1,-28.85 30.3,-34.95C40.5,-47.483 40.633,-55.633 30.7,-59.4M27.5,-0.55L28.9,-5L27.5,-0.55M34.3,-29.1L34.4,-25.8L34.3,-29.1M33.5,-16.6C32,-14.9 30.117,-13.483 27.85,-12.35C25.517,-11.217 22.783,-10.417 19.65,-9.95C22.783,-10.417 25.517,-11.217 27.85,-12.35C30.117,-13.483 32,-14.9 33.5,-16.6M9.65,-8.75L4.4,-9.6C0.6,-10.733 -2.333,-12.75 -4.4,-15.65C-2.333,-12.75 0.6,-10.733 4.4,-9.6L9.65,-8.75" style="fill:#a20d0d;"/>
            <path d="M23.5,8.2L18.4,11.35L15.85,12.15L20.05,6.9L20.1,5.75C19.933,4.55 19.083,3.183 17.55,1.65C16.017,0.783 14.483,0.583 12.95,1.05L9.25,5.3L9,5.2L8.3,0.3L8.25,-0.2L8.05,-1.6L7.9,-1.7C5.967,-3.133 3.983,-3.567 1.95,-3L1.8,-2.9L-1,0.75L-2.1,-3L-2.1,-3.05L-2.5,-4.45L-6.3,-5.35L-10.15,-2.25L-9.85,-0.4L-10.9,2.6L-12.8,-0.7L-11.55,-7.95L-10.1,-9.15C-6.133,-10.35 -2.733,-9.117 0.1,-5.45C7.033,-6.55 14.117,-5.05 21.35,-0.95C23.983,2.85 24.7,5.883 23.5,8.15L23.5,8.2M-7.4,-24.8L-7.6,-26.05C-7.867,-28.05 -7.95,-30.1 -7.85,-32.2C-7.817,-34 -7.65,-35.783 -7.35,-37.55L-7.1,-38.75C-4.667,-45.45 -0.833,-50.383 4.4,-53.55C11.067,-57.25 16.517,-59.267 20.75,-59.6C24.917,-59.967 28.233,-59.9 30.7,-59.4C40.633,-55.633 40.5,-47.483 30.3,-34.95C30.1,-28.85 26.9,-23.65 20.7,-19.35C14.933,-16.15 8.667,-15.483 1.9,-17.35C-2.833,-19.383 -5.933,-21.867 -7.4,-24.8M8.55,-26.85L14.4,-24.85L12.4,-20.55L0.85,-22.15L-2.5,-29.75L1.45,-33L-2.5,-29.75L0.85,-22.15L12.4,-20.55L14.4,-24.85L8.55,-26.85" style="fill:#e01212;"/>
            <path d="M11.2,13.2L8.6,13.6L7.3,10L7.45,9.55L9.2,5.35L9.25,5.3L12.95,1.05C14.483,0.583 16.017,0.783 17.55,1.65C19.083,3.183 19.933,4.55 20.1,5.75L17.05,3.25L17.15,5.7L11.2,13.2M-5.35,8.15L-8.3,9.55L-11.4,4.3L-10.9,2.6L-9.85,-0.4L-10.15,-2.25L-6.3,-5.35L-2.5,-4.45L-2.1,-3.05L-5.2,-2.85L-2.7,1.1L-5.35,8.15M-1,0.75L1.8,-2.9L1.95,-3C3.983,-3.567 5.967,-3.133 7.9,-1.7L3.5,-1.2L6.85,-0.15L7.5,2.5L6.05,6.4L0.35,9.25L-1.65,6.5L-1.45,4.35L-1.1,1.05L-1,0.75" style="fill:#f8ebcf;"/>
            <path d="M14.35,12.65L11.2,13.2L17.15,5.7L17.05,3.25L20.1,5.75L20.05,6.9L15.85,12.15L14.35,12.65M6.95,9.3L6.5,10.3L-0.6,11.15L-1.95,9.25L-1.7,6.85L-1.65,6.5L0.35,9.25L6.05,6.4L7.5,2.5L6.85,-0.15L3.5,-1.2L7.9,-1.7L8.05,-1.6L8.25,-0.2L8.3,0.3L9,5.2L6.95,9.3M-2.6,6.75L-2.7,6.9L-5.35,8.15L-2.7,1.1L-5.2,-2.85L-2.1,-3.05L-2.1,-3L-1,0.75L-1.1,0.9L-1.1,1.05L-1.45,4.35L-2.6,6.75" style="fill:#c8ac80;"/>
            <path d="M9,5.2L9.25,5.3L9.2,5.35L9,5.2" style="fill:#85b456;"/>
            <path d="M7.45,9.55L6.95,9.3L9,5.2L9.2,5.35L7.45,9.55" style="fill:#82a66a;"/>
            <path d="M23.55,8.15L23.5,8.2L23.5,8.15L23.55,8.15" style="fill:#497430;"/>
            <path d="M30.7,-59.4C37.267,-57.333 40.8,-54.333 41.3,-50.4C41.8,-46.467 41.867,-43.017 41.5,-40.05C41.1,-37.15 38.733,-32.4 34.4,-25.8L34.5,-18.85L33.5,-16.6L35.45,-10.2C35.517,-8 35.017,-6.033 33.95,-4.3L31.4,-3.35C29.967,-2.65 28.667,-1.717 27.5,-0.55L23.55,8.15L23.5,8.2L18.4,11.35L15.85,12.15L15.6,12.45L14.35,12.65L11.2,13.2L8.6,13.6L7.3,10L7.45,9.55L6.95,9.3L6.5,10.3L-0.6,11.15L-1.95,9.25L-1.7,6.85L-2.6,6.75L-2.7,6.9L-5.35,8.15L-8.3,9.55L-11.4,4.3L-10.9,2.6L-12.8,-0.7L-11.55,-7.95L-10.1,-9.15L-5.1,-13.6L-4.4,-15.65L-5.15,-17.05L-6.6,-21.15L-7.4,-24.8L-7.6,-26.05C-7.867,-28.05 -7.95,-30.1 -7.85,-32.2C-7.817,-34 -7.65,-35.783 -7.35,-37.55L-7.1,-38.75C-4.667,-45.45 -0.833,-50.383 4.4,-53.55C11.067,-57.25 16.517,-59.267 20.75,-59.6C24.917,-59.967 28.233,-59.9 30.7,-59.4M1.45,-33L-2.5,-29.75L0.85,-22.15L12.4,-20.55L14.4,-24.85L8.55,-26.85M-1,0.75L1.8,-2.9L1.95,-3C3.983,-3.567 5.967,-3.133 7.9,-1.7L8.05,-1.6L8.25,-0.2M8.3,0.3L9,5.2L6.95,9.3M9.25,5.3L12.95,1.05C14.483,0.583 16.017,0.783 17.55,1.65C19.083,3.183 19.933,4.55 20.1,5.75L20.05,6.9L15.85,12.15L14.35,12.65M-2.1,-3L-1,0.75L-1.1,1.05L-1.45,4.35L-1.65,6.5L-1.7,6.85M-10.9,2.6L-9.85,-0.4L-10.15,-2.25L-6.3,-5.35L-2.5,-4.45L-2.1,-3.05M-1.1,1.05L-1.1,0.9L-1,0.75M-1.45,4.35L-2.6,6.75M9.2,5.35L9.25,5.3M7.45,9.55L9.2,5.35M-4.4,-15.65C-2.333,-12.75 0.6,-10.733 4.4,-9.6L9.65,-8.75M19.65,-9.95C22.783,-10.417 25.517,-11.217 27.85,-12.35C30.117,-13.483 32,-14.9 33.5,-16.6M34.4,-25.8L34.3,-29.1M28.9,-5L27.5,-0.55" style="fill:none;fill-rule:nonzero;stroke:#000;stroke-opacity:0.38;stroke-width:1px;"/>
        </g>
    </g>
</svg>
