<svg width="84" height="143" xmlns="http://www.w3.org/2000/svg" xmlns:xlink="http://www.w3.org/1999/xlink">
 <defs>
  <g transform="matrix(1,0,0,1,73.45,127.4) " id="shape0">
   <path id="svg_1" fill-rule="evenodd" fill="#a7b633" d="m67.65,104.7l5.85,0.95l-8.2,-0.4l-2.55,-0.85l-1.25,-0.2l-2.65,0.4l-1.15,-1l-0.4,-0.1l-6,-0.1l2.65,-0.8l-1.55,-1.2l3.35,0.85l3.2,-3.75l0.2,4.6l3,-2.65l0.8,2.6l1.95,0.9l5.15,0.05l-2.4,0.7"/>
   <path id="svg_2" fill-rule="evenodd" fill="#5d6c35" d="m-48.2,103.7l-5.65,-5.25l7.65,3.05l-1.1,-5.25l5.3,8.05l-3.25,1.7l-12.15,-1.05l0,-0.15l6.05,-0.35l-2.05,-1l5.2,0.25"/>
   <path id="svg_3" fill-rule="evenodd" fill-opacity="0.352941" fill="#050505" d="m-31.8,79.95l3.3,0.75l-8.2,6.4l0.4,2.5l11.85,3.65l16.8,-5.05l13,2.2l4.15,5.2l0.3,-0.45l6.7,0.75l12.1,-5.8l-2.9,-4.05l2.7,-0.85l3.8,2.1l2.2,3.4l-4.9,1.9l-2.15,3.2l6,8.7l-1.85,2.55l-8.85,3.9l-2.95,-2.1l-4.1,3.35l-2.2,-0.7l-0.5,0.15l-7.3,1.8l-0.55,0.6l-1.55,4.15l-9.4,0.6l-0.1,-0.05l-11.65,-1.4l-11.7,-3.95l-0.05,0.1l-0.7,1.05l-5.95,-1.9l-1.95,-6.05l-11.1,-6.4l-0.9,0.7l-2.85,-2.95l3.7,-10.25l4.85,-0.8l9.4,-5.8l3.1,-1.15m43.9,31.15l1.95,0.15l-1.95,-0.15"/>
   <path id="svg_4" fill-rule="evenodd" fill-opacity="0.4" fill="#050505" d="m-31.8,79.95l-3.1,1.15l-9.4,5.8l-4.85,0.8l-3.7,10.25l2.85,2.95l0.9,-0.7l11.1,6.4l1.95,6.05l5.95,1.9l0.7,-1.05l0.05,-0.1l11.7,3.95l11.65,1.4l0.1,0.05l9.4,-0.6l1.55,-4.15l0.55,-0.6l7.3,-1.8l0.5,-0.15l2.2,0.7l4.1,-3.35l2.95,2.1l8.85,-3.9l1.85,-2.55l-6,-8.7l2.15,-3.2l4.9,-1.9l-2.2,-3.4l-3.8,-2.1l4.7,-1.75l12.7,3.35l-2.15,3.25l6.45,1.6l-2.35,6.3l-4.75,-1.1l-1,2.2l2.35,2.95l-3.45,6.35l-3.35,0.25l2.35,1.6l-2.35,4.15l-8.8,2.55l-3.4,-1.2l0.75,2l-10.1,2.9l-2.4,-2.9l-9.5,1.6l-0.7,6.15l0,0.05l-9.3,1.55l-0.3,-3.05l-4.45,-2.4l-2.2,2.5l-16.85,-1.55l-0.35,-3.1l-3.85,-1.95l-2.5,1.9l-8.2,-2.5l3.85,-6.4l-12.3,-6.9l-4.35,1.65l-7.75,-3.5l6.4,-2.8l-6.65,-0.25l7.75,-14.95l6,-0.2l2.45,0.3l13.2,-4.85l4.2,0.95"/>
   <path id="svg_5" stroke-width="0.6" stroke-linejoin="round" stroke-linecap="round" stroke="#311fd8" fill="none" d="m14.05,111.25l-1.95,-0.15"/>
   <path id="svg_6" fill-rule="evenodd" fill="#5d6c35" d="m-67.35,79.15l1.1,-1.05l8.85,3.55l-2.8,1.45l2.15,3.45l-4.15,-2.2l0.15,-0.3l-2.9,-0.05l-1.75,-2.75l3,0.3l-3.65,-2.4"/>
   <path id="svg_7" fill-rule="evenodd" fill="#a7b633" d="m-66.25,78.1l-1.1,1.05l-6.1,-3.95l7.2,2.9m-0.45,3.15l1.75,2.75l-6.6,-0.2l4.6,-0.95l-4.1,-2.05l4.35,0.45"/>
   <path id="svg_8" fill-rule="evenodd" fill="#a7b633" d="m24.6,108.95l0.95,-1.95l-1.1,9.3l0.15,-0.3l1.6,-0.2l0.05,0l1.4,-4.95l0.15,-0.25l-0.05,5.2l1.5,1.55l4.5,-0.55l-2.3,1.75l4.85,1.2l-7.05,0.25l-2,-1.45l-1.05,-0.25l-2.4,1.1l-0.7,-1.9l-0.35,-0.1l-1.25,0.1l1.35,-3.05l1.75,-5.5"/>
   <path id="svg_9" fill-rule="evenodd" fill="#5d6c35" d="m24.6,116l3.05,-5.15l-1.4,4.95l-0.05,0l-1.6,0.2m-3.1,1.5l-4,0.4l2.55,-1.95l-1.05,-2.25l2.75,1.35l2.85,-6.1l-1.75,5.5l-1.35,3.05"/>
   <path id="svg_10" fill-rule="evenodd" fill-opacity="0.301961" fill="#000000" d="m-32.2,105.1l-4.85,-2l-6.6,-1l7,-0.05l6,1.35q1.25,-0.9 3.4,-1.55l1.15,-0.3l-8.65,-9.85l10.8,9.4l9.2,-0.4q7.35,0.45 12.5,2.65q2,0.85 3.25,1.8l12,-5.85l5.5,0l-8,1.75l-8.3,5.25q0.7,0.95 0.75,2l-0.05,0.5l7.35,0.7l0.15,0.05l9.3,4.35q-6.7,-2.95 -17.2,-4.1q0.45,1.45 -2.35,2.3q-2.8,0.8 -12.25,-0.15q-9.45,-0.95 -15.1,-3.05q-5.7,-2.15 -5.45,-2.7l0.45,-1.1"/>
   <path id="svg_11" fill-rule="evenodd" fill="#fff0bf" d="m72.45,-105.3l-2,5.75l-3.6,13.1l-3.9,23l0,10.2l-3.75,4l-0.1,2.95l-6.05,14.75l0.45,-14.65l3.05,0.9l2.2,-22l-2.6,-7.8l1.05,-1.65q5.55,-9.1 7.2,-19.1l0.2,-1.35l7.85,-8.1l-7.85,8.1l-8,-3.75l7.5,-7.9l8.35,3.55m-9.85,32.45l-1,4.75l1.35,4.65l-1.35,-4.65l1,-4.75m1.55,38.55l0.45,1.1l-2.65,2.85l-3.9,21.85l1.55,26.3l-4,6.05l0.65,4.9l0,0.15l-3,2.3l-1.3,7.55l-2.95,-11l2.5,0.2l-0.75,-24.15l1,-17.1l0.5,15.5l2.05,-2.05l2.45,-28.8l7.4,-5.65m-53.8,-18.3l2.4,-0.6l1.85,7.4l-1.4,0.35l-5.3,1.25l-0.05,0.05l-2.2,-4.3l-1.8,-2.5l6.5,-1.65m4,-0.6l5.9,-1.5l2.05,2.5l3.45,4.25l-2.4,1.25l-0.95,0.3l-3.4,0.95l-4.65,-7.75m14.15,-9.25l4.85,0l13.25,-9.1l1.65,1.05l5.5,3.45l-4.5,2.2l-2.6,1.3l-0.15,0.05l-2.1,1.05l-0.15,0.1l-2.4,1.15l-3.45,1.65l-4.3,2.1l-5.6,-5m-27.45,12.2l3.2,3.3l1.95,3.2l-10.2,2.45l-2.75,-7l7.8,-1.95m36.1,32.95l-0.9,0.5l-1.1,-0.2l3.75,-4.4l1.65,-3.25l3.85,-1.5l0.75,-11.3l0.4,5.6l2,2.2l2.8,-3.55l0,2.35l1.65,5.55l-4.7,2.15l-4.1,2.35l-6.05,3.5m18.45,41.15l0,-5.55l0,5.55"/>
   <path id="svg_12" fill-rule="evenodd" fill="#cebd8c" d="m64.6,-97.2l-0.2,1.35l-7.9,-3.25l0,-0.15l0.1,-1.7l8,3.75m-7.4,20.45l-1.05,1.65l-0.45,0.65q-4.35,-1.8 -8.75,-3.65l2.5,-3.6l0,-0.05l5.95,2.8l-0.8,-1.4l-4.4,-2.6q5.25,-8.5 6.2,-15.4l6.45,4.15l-2.1,5.25l-2.15,-0.05l1.15,4.6l-2.75,4.45l0.2,3.2"/>
   <path id="svg_13" fill-rule="evenodd" fill="#c0a972" d="m56.15,-75.1l2.6,7.8l-2.2,22l-3.05,-0.9l-0.45,14.65l6.05,-14.75l0.1,-2.95l3.75,-4l0,16.15l1.2,2.8l-7.4,5.65l-2.45,28.8l-2.05,2.05l-0.5,-15.5l-1,17.1l0.75,24.15l-2.5,-0.2l2.95,11l1.3,-7.55l3,-2.3l2.65,20.3l-4.3,9.5l-3,-6.8l-0.85,3.55l-4.9,-24.6l1.35,-27.75l-2.05,-4.4l1.15,-11.7l1,-10.15l4.7,-2.15l-1.65,-5.55l0,-2.35l-2.8,3.55l-2,-2.2l-0.4,-5.6l-0.75,11.3l-3.85,1.5l-1.65,3.25l-3.75,4.4l-1.15,-0.25l4.55,-9l1.8,-3.5l0.85,-7.1l0.5,-2.65l9.55,-6.9l0.05,-0.45l1.2,-8.25l3.2,-7.6l0,-11.75l0.45,-0.65m-4.9,28.7l-0.9,5.85l0,7.35l0,-7.35l0.9,-5.85"/>
   <path id="svg_14" fill-rule="evenodd" fill="#332e4b" d="m7.8,72q-1.65,5.35 -8.15,4.85l1.35,1.25l0.7,0.75q1.9,2.8 2.2,5.05l-2.55,1.9l-0.25,-1.8l0,-0.05l-0.45,-0.95q-2.45,-4.35 -9.6,-3q-2.15,0.85 -3.3,1.95l-0.7,0.85l-0.9,-1.05q-3.7,-3.9 -7.8,-3.2q-3.85,0.85 -4.8,2.95l-0.05,0.15q-0.3,0.7 -0.25,1.55q0.65,2.1 2.95,3.15l0.15,0.1l6.9,3l11.15,2.65l-1.3,0.25q-6.45,0.95 -13.55,-1.95q-2.65,-1.1 -4.4,-2.35q-2.95,-2.1 -3.35,-4.6q-0.15,-1.1 0.25,-2.6l0.4,-1.25l1.1,1.9l-1.1,-1.9q0.05,-1.8 2.35,-4.4l4.85,0.6l0.45,0l7.1,1.5l1.1,-2.5l0.4,-0.85l3.5,-8l0,-5.25l1.15,-10.75l0.25,2.3l0.85,9.3l4.75,12.15l8.6,-1.7m-12.7,-185.7q0.8,-0.95 0.45,-2.5l-0.2,-0.5q2.1,0.3 3.05,-0.65q0.4,0.85 -0.9,2.25q-0.95,1.35 -2.4,1.4m-1.3,-4.7q-2.2,-1 -3.8,0.75q-1.2,1.45 0,3.8q-1.3,-0.65 -1.65,-2q-0.3,-0.95 -0.1,-2.25l0.05,-0.4q0.55,-2.85 3.8,-4.4l0.75,-0.25l2.5,0.15q-1.15,0.1 -1.55,1.25q-1,2 0,3.35m-7.9,62.75q5.55,-5.25 13.85,-4.05q8,1.1 10.6,7.1l-6.5,1.65l-2.8,0.7l-7.8,1.95l-0.9,-4.65l-6.45,-2.7m-11.5,35.1l0.55,0.45l2.1,-7.2l0.2,9.2l8.35,0l2.8,-2.45l1.2,8q-1.15,-3.05 -3.2,-4.15q-6.2,-1.15 -9.75,2.9l-0.55,0.7l-0.35,0.55q-2.65,-2.85 -1.35,-8m50.5,-64.3l-0.7,-1.45q-1,-1.45 -2.75,-1.9l-0.45,-0.1q-3.2,-0.55 -5.45,2.9l-0.05,0q1.85,-3.85 -2.5,-7.05l-0.15,-0.05q-3.6,-1.25 -7.25,3.5l-0.2,0.6l-0.1,0.4q-0.45,-2.85 1.5,-4.9q1.5,-1.65 4.45,-2.85l4.8,-0.6l1.25,0.1l3.25,1.15l5.65,4.4q3.05,2.5 2.25,7.2q-2.1,1.15 -3.5,-1.1l0,-0.1l-0.05,-0.15m-2,9.1l-1.85,0.5q-5.2,1.35 -10.6,-1.55q-5.2,-2.75 -4.45,-5.65q0.7,0.9 2,1.45l4.1,-0.1l1.4,-1.15l0.95,-1.2q-0.45,2.4 -0.15,4.05q0.5,3.05 3.4,3.55q3.4,0.45 5.3,-0.55l-0.1,0.65m-5.65,60.5l1,-0.2l2,0q-0.3,9.25 -8.45,10.75l-0.3,0.05l0.3,-0.05q5.85,3.8 5,7.6l-12.7,-1.1q6.15,-0.55 7.4,-6.45l0.1,-0.7l0.1,-0.75q0.4,-5.9 -7.1,-6.75l7.95,-1.5l4.7,-0.9m-28.55,89.2q5.75,-1.45 10.95,2.9q-5.2,-4.35 -10.95,-2.9m11.95,6.35l1.05,-1.45l-1.05,1.45m-27.55,8.55l4.25,3.7l7,2.15l9.4,0l7.25,-3.45q1,1.3 1.7,3.95l0.1,0.45l-3.2,2.8l-2.35,3.05l-0.05,-0.55l-0.05,-0.15q-0.7,-3.25 -4.5,-3.85q-5.8,-1.25 -9.05,2.8q-0.05,-3.15 -4.15,-5.2q-5.75,-1.05 -10.45,1.75q-1.05,-1.25 -1.05,-2.45q-0.05,-1.6 1.85,-3.1q1.25,-0.95 3.3,-1.9m28,7.55l1.7,-0.75l-1.7,0.75m-25.45,7l4.4,-0.1q2.2,0.05 3.15,-1.95q1.9,3.5 5.05,4.25q-6.75,0.6 -12.6,-2.2"/>
   <path id="svg_15" fill-rule="evenodd" fill="#fff4cf" d="m-4.9,-113.7l-1.1,0.8q-2.65,0.95 -3.75,-0.6l-0.2,-0.25l-0.05,-0.1q-1.2,-2.35 0,-3.8q1.6,-1.75 3.8,-0.75q0.95,0.45 1.55,1.7q-0.6,-1.25 -1.55,-1.7q-1,-1.35 0,-3.35q0.4,-1.15 1.55,-1.25l1.65,0.2l1,0.45q1.4,0.95 1.15,3.2q-0.15,1.15 -0.75,1.8q-0.95,0.95 -3.05,0.65l0.2,0.5q0.35,1.55 -0.45,2.5m25.9,25.4q2,2.05 2.85,4.95q0.6,2.35 0.55,5.25l-1.25,0.3q-4.9,1.05 -8.85,-1.6q-0.3,-1.65 0.15,-4.05l0.85,-1.5l0.25,-0.45q2.25,-3.45 5.45,-2.9m-15.6,-0.1l0.2,-0.6q3.65,-4.75 7.25,-3.5q2,4 0.65,10.25l-1.4,1.15q-6.85,-1.3 -6.7,-7.3m6.3,82.3l-0.1,0.75l-0.1,0.7q-1.25,5.9 -7.4,6.45q-3.35,-3.9 -6.3,-9.65l6.2,2.55l7.7,-0.8m-23.2,-3.25l-3.25,5.65l-7.25,0.9l-1.25,-0.75q-4,-4.55 -1,-9l0.35,-0.55l5.4,3.3l7,0.45m-15,91l8.4,1.65l0.15,-0.05l-1.5,2.9l-1.45,1l-2.75,-0.7l-0.15,-0.1q-2.3,-1.05 -2.95,-3.15q-0.05,-0.85 0.25,-1.55m8.8,1.5l3.85,-1.4l0.9,1.05q-0.8,1.15 -0.6,2.55l-0.4,0.35q-1.4,1.15 -3.55,1.45l0.8,-1.9l-1,-2.1m5.95,22.45q-3.15,-0.75 -5.05,-4.25q-0.95,2 -3.15,1.95l-4.4,0.1l-0.5,-0.05q-3.95,-0.4 -5.85,-2.45q-2.55,-2.75 -0.9,-4.15l15.2,3.4l-0.05,0.25l-0.05,0.25l12.9,0.8q-2.85,3.05 -6.7,4.35l-1.45,-0.2m-5.05,-4.25l0.3,-0.7l-0.3,0.7m13.8,-10.85l-0.4,0l-1.55,-0.05q-7.45,-0.8 -8.5,-4.5l0,-0.1l13.55,-1.8q0.1,1.8 -1.05,4l-2.05,2.45"/>
   <path id="svg_16" fill-rule="evenodd" fill="#9a8958" d="m-35.75,-97.05l2.35,-6.9l0,-9.6q2.65,0.35 6,-0.65l-1.15,9.1l0,2.15l-5.8,11.05l-1.4,-5.15m-13.05,1.95l3.65,-0.7l4.6,0.1l2.65,3.65l-0.05,0.35l-0.2,2.6l-0.45,1.6l-10.75,2.75l-0.4,-4.6l0.95,-5.75"/>
   <path id="svg_17" fill-rule="evenodd" fill="#392200" d="m-35.75,-97.05l1.4,5.15l3.8,14.05l5.25,17.2l-7.1,-3.8l-2.45,-2.9l-0.7,-0.8l-1.1,-1.3l-1.15,-1.35l-6.75,3.35l-1.2,-1l8.85,-5.35l-1.75,-5.15l-1.25,-4l0.5,-1.7l0.8,-2.85l0.45,-1.6l0.2,-2.6l0.05,-0.35l0.75,-10.15l1.4,5.15"/>
   <path id="svg_18" fill-rule="evenodd" fill="#806f3e" d="m-37.15,-102.2l-0.75,10.15l-2.65,-3.65l-4.6,-0.1l-3.65,0.7l0.75,-4.75q7.3,-0.8 10.9,-2.35m-1.45,14.7l-0.8,2.85l-11.4,1.1l0.15,-0.55l0.9,-5.25l0.4,4.6l10.75,-2.75"/>
   <path id="svg_19" fill-rule="evenodd" fill="#533c0b" d="m-34.35,-91.9l5.8,-11.05l0,-2.15l1.15,-9.1l4.85,22.85l2.65,20.25l3.25,14.4l-2.5,2.8l-1,-4.05l-1.85,-1l-2.9,-1.5l-0.4,-0.2l-5.25,-17.2l-3.8,-14.05m-4.7,62.95l2.4,1.15l-0.5,7.5l-4.35,0.7l0.15,-5.45l-1.05,5.6l-1.1,0.15l-1.3,-0.3l-1.4,-15.9l5.2,4.8l1.95,1.75m24.65,10.85l0,-2.75l0,-8.5l1.4,-4.5l1.5,-14.85l3.85,-4.25l0.9,4.65l-0.2,23.6l-4.65,4.15l-2.8,2.45m-26.9,-7.45l0.3,-5.15l-0.3,5.15m36.3,8.6l1.8,2.4l-0.55,4.35l0.65,1l0.9,1.35l-1.9,0.25l-1.3,-2.6l0.4,-6.75m42.15,-0.35l6.05,-3.5l4.1,-2.35l-1,10.15l-2.7,3.2l0.15,-2.7l-1.75,-1.85l-1.3,6.85l-5,-1.35l1.45,-8.45m6.05,-3.5l-1.2,6.45l1.2,-6.45"/>
   <path id="svg_20" fill-rule="evenodd" fill="#b3a271" d="m64.4,-95.85q-1.65,10 -7.2,19.1l-0.2,-3.2l2.75,-4.45l-1.15,-4.6l2.15,0.05l2.1,-5.25l-6.45,-4.15l0.1,-0.75l7.9,3.25m-14.95,14.1l0.75,-1.2l4.4,2.6l0.8,1.4l-5.95,-2.8m-88.85,-2.9l-0.5,1.7l1.25,4l-9.4,2l-5.1,-0.1l2.35,-6.5l11.4,-1.1"/>
   <path id="svg_21" fill-rule="evenodd" fill="#957e59" d="m48.25,-70.5l-1.3,-7.6q4.4,1.85 8.75,3.65l0,11.75l-3.2,7.6l0.25,-2.15l1,-9.8l-5.5,-3.45m-94,2.05l-0.05,0l-0.1,-0.1l0.15,0.1m4.15,59.35l0.1,-10.5l4.35,-0.7q-0.25,5.35 0.15,9.6l-4.6,1.6"/>
   <path id="svg_22" fill-rule="evenodd" fill="#6d5625" d="m33.05,64.1l-1.05,2.7l-14.8,3.65l-2.25,-4.75l-1.25,5.1l-5.9,1.2l-8.6,1.7l-4.75,-12.15l-0.85,-9.3l3.3,5.4l1,1.65l2.55,10.45l3.15,0.7l11.35,-6.05l-0.85,-15.2l1.35,5.45l0.35,8.25l2.45,3.65l6.55,-0.95l8.25,-1.5m-78.8,-132.55l1.2,1l4.95,16.45l0.3,1.05l-5.9,9.2l5.9,-9.2l-0.3,-1.05l10.65,12.2l-2.25,-15.8l1.15,0.75l0.1,0.05l1,0.65l0.15,0.1l2.5,1.6l3.65,18.35l1,-18l10.15,2.4l-1.5,14.85l-1.4,4.5l0,8.5l-14.55,-17.95l0.7,5.05l-1.5,-5.05l-2.55,-2.5l-1.85,8.35l-1.35,-10.35l-2.85,-3.8l-0.7,1.05q1.4,8.25 0,17.1l-1.95,-1.75l-5.2,-4.8l-1.45,-1.3l1.85,-3.05l0.6,-0.9l-0.05,-0.05l-2.15,-19.15l-5.75,-17.1l7.25,8.5l0.1,0.1l0.05,0m6.45,18.5l1.5,1.9l-0.55,0.95l0.55,-0.95l-1.5,-1.9m-5.5,30.35l1.3,0.3l1.1,-0.15l1.05,-5.6l-0.15,5.45l-0.1,10.5l1.7,5.2l11.25,5.35l0.75,3l-3.75,1.75l-2.5,-2.15l-0.55,2.35l-3,-1.85l0.45,-0.6l-2,-2l-5.25,-3.5l-2.75,14l-5.45,9.4l6.7,-23.7l0.7,-2.45l1.65,-2.4l-1.15,-12.9m58,-25.85l1.4,-0.35l3.25,3.75l1.15,11.5l0,-14.9l3.4,-0.95l-1.45,15.65l-3,2.8l-0.85,5.95l-0.9,0.1l-2.2,-6.15l0.05,6.45l-0.9,0.1l-1.4,-7.8l-0.55,6.6l-9.05,-2.6l-4.05,5.7l-0.1,-1l0,-0.15l-1.45,-15.05l3.05,-3.8l2.8,4.85l0.65,2.7l1.1,1.45l1.65,1.55l0.15,-9.35l3.55,1.2l0.2,-5.1l4.3,0.25l-0.8,-3.4m-32.2,45.95l-1.55,3.9l2.55,-0.85l-7.35,7.9l-0.15,2.95l-3.25,5.6l-0.55,3.45l-2.8,4l1.35,-5.3l-0.8,-2l2.4,-5.2l-10.8,6.85l-1.7,6.6l2.25,5.9l-6.3,14.25l0.4,3l-3.8,7l-3.7,-3.25l4.5,-10.6l0,-2.05l-2.6,-1.3l4.75,-15.7l6.2,-3.85l2.15,-8.35l1.65,-1.4l-0.45,1.7l5.15,-2.55l4.2,-3.9l0.35,1.4l0,-2.25l3.05,-1l-3.05,0.5l0,-1l0,-3.4l7.9,-1.05m-26.4,61.3l15.9,-30.75l-4.75,14.85l-5.75,15.9l-5.4,0m19,8.9l2.5,-14.45l0.3,-2.5l0.1,-4.85l0.85,6.6l-2.55,19.7l-1.2,-2.4l0,-2.1m31.45,-2.55l-2,-24.25l1.35,-9.35l0.65,33.6m-49.4,-33.9l-3.95,8.4l3.95,-8.4"/>
   <path id="svg_23" fill-rule="evenodd" fill="#cebd8c" d="m-38.65,-78.95l1.75,5.15l-8.85,5.35l-0.15,-0.1l-7.25,-8.5l5.1,0.1l9.4,-2"/>
   <path id="svg_24" fill-rule="evenodd" fill="#533c0b" d="m-39.6,-51l-4.95,-16.45l2.55,2.8l1.9,2.05l2.95,3.3l3.5,1.1l0,2l2.45,1.6l2.25,15.8l-10.65,-12.2m-13.1,72.85l5.45,-9.4l2.75,-14l5.25,3.5l2,2l-0.45,0.6l3,1.85l0.55,-2.35l2.5,2.15l3.75,-1.75l0.65,2.85l-4.2,3.9l-5.15,2.55l0.45,-1.7l-1.65,1.4l-2.15,8.35l-6.2,3.85l-4.75,15.7l2.6,1.3l-2.65,7.45l-5.8,-2l-0.15,-3.55l-1.9,-1.35l6.1,-21.35m90.5,56.05l-3.35,2.6l-1.75,-1.45l3,-2.45l2.1,1.3m22.6,-10.9l-1.95,1.4l-2.15,-2.3l1.55,-2.25l2.55,3.15"/>
   <path id="svg_25" fill-rule="evenodd" fill="#e8d7a6" d="m-16.65,-56.7l2.55,1.05l6.45,2.7l-3.85,4.25l-10.15,-2.4l2.5,-2.8l2.5,-2.8m-27.9,-10.75l6.75,-3.35l1.15,1.35l-2.85,1.7l3.95,-0.4l0.7,0.8l-2.7,1.75l-4.45,0.95l-2.55,-2.8m12.15,3l7.1,3.8l0.4,0.2l-0.15,1.9l-2.35,2.6l-2.55,2.15l-0.1,-0.05l-1.15,-0.75l-2.45,-1.6l0,-2l-3.5,-1.1l-2.95,-3.3l3.85,-1.8l3.85,-0.05m10.4,5.5l1.85,1l-6.15,6.5l-2.5,-1.6l3.3,-2.3l3.5,-3.6"/>
   <path id="svg_26" fill-rule="evenodd" fill="#fff0bf" d="m-36.65,-69.45l1.1,1.3l-3.95,0.4l2.85,-1.7m1.8,2.1l2.45,2.9l-3.85,0.05l-3.85,1.8l-1.9,-2.05l4.45,-0.95l2.7,-1.75m4.9,13.55l2.55,-2.15l2.35,-2.6l0.15,-1.9l2.9,1.5l-3.5,3.6l-3.3,2.3l-0.15,-0.1l-1,-0.65m33.8,2.85l1.8,2.5l2.2,4.3l-1.65,0.4l-1.95,-3.2l-3.2,-3.3l2.8,-0.7"/>
   <path id="svg_27" fill-rule="evenodd" fill="#614a25" d="m44.6,63.8l-5,-3.1l-2.15,-12.75l0,-4.15l-1.5,-1.85l-3,-8.7l1.75,-17.05l3,20.85l2.25,4.9l4.65,21.85m-31.85,-117l1.6,0l4.65,7.75l0,14.9l-1.15,-11.5l-3.25,-3.75l-1.85,-7.4m9.55,1l6.2,-10.25l5.6,5l-6.1,25.5l0,0.2l0,8.8l0,4.5l-5,-3.85l0.05,-0.45l0,-0.1l2.7,-25.1l-3.45,-4.25m-42.45,-5.75l1,4.05l-2.5,2.8l-1,18l-3.65,-18.35l6.15,-6.5m-7.75,62.4l-0.75,-3l4.15,-5.75l-2.4,5.85l0,3.4l0,1l0,0.25l0,0.25l0,2.25l-0.35,-1.4l-0.65,-2.85m21.15,-52.75l2.75,7l0.55,5.5l1.45,15.05l0,0.15l0.1,1l0.75,7.8l-2.05,-2.75l-1.8,-2.4l-1.75,-2.35l-0.2,-5.4l0.2,-23.6m25.75,51.35l1.25,0l4.85,5.5l0,14.65l-2.5,-7l-1,-8.15l-2.6,-5m15.25,-3.85l1.45,-8.05l5,1.35l-1.7,8.8l-4.75,-2.1m-82.55,43.45l0,2.05l-4.5,10.6l1.85,-5.2l2.65,-7.45"/>
   <path id="svg_28" fill-rule="evenodd" fill="#87703f" d="m-39.05,-46.05l0.7,-1.05l2.85,3.8l1.35,10.35l1.85,-8.35l2.55,2.5l1.5,5.05l-0.7,-5.05l14.55,17.95l0,2.75l-8.35,0l-0.2,-9.2l-2.1,7.2l-0.55,-0.45q-3.15,-2.6 -6.35,-4.6l-4.7,-2.65l-2.4,-1.15q1.4,-8.85 0,-17.1m71.75,50.65l-1.35,20.5l-1.85,1.4l1.75,-14l-2.85,4.6l-0.8,-9.85l5.1,-2.65m-14.4,2.9l3.8,27.15l-2.45,-7.5l-0.65,-5.6l-3.3,-1.95l-2.2,4.1l-8.7,-17.25l4.5,-0.4l9,1.45m-33.05,-11.2l3.25,-5.65l1.25,-2.2l2.55,11.05l-1.65,16l-0.65,2.7l0.35,0l-2.95,32.4l2.3,2.05l-1.4,22.15l-1.1,2.5l-7.1,-1.5l-0.45,0l-4.85,-0.6l2.55,-19.7l-0.85,-6.6l-0.85,-0.35l-1.15,9.5l-2.15,10.45l1.75,-6.9l2,-5.35l-2.5,14.45l-11.35,-5.3l2.35,-10.5l1.15,-9l4.75,-14.85l-15.9,30.75l-3.7,-3.25l3.8,-7l-0.4,-3l6.3,-14.25l-2.25,-5.9l1.7,-6.6l10.8,-6.85l-2.4,5.2l0.8,2l-1.35,5.3l2.8,-4l0.55,-3.45l3.25,-5.6l0.15,-2.95l7.35,-7.9l-2.55,0.85l1.55,-3.9l2,-0.3l2.25,-3.9m2.7,12.05l-0.45,-1.05l-3,1.4l-3.3,7.75l0,7.25l1.15,2.1l0.65,-1.05l0.6,-1.05l1.15,-6.65l1.5,1.4l2.1,-9l-0.4,-1.1m27,56.05l-11.35,6.05l-3.15,-0.7l-2.55,-10.45l-1,-1.65l-1.3,-3.3l-0.2,-6.5l1.65,-2.25l4.95,21.45l3.05,1.1l9.9,-3.75m-41.85,-58.2l0,-0.25l3.05,-0.5l-3.05,1l0,-0.25"/>
   <path id="svg_29" fill-rule="evenodd" fill="#2b1f0f" d="m-36.65,-27.8l4.7,2.65l3.9,19.25l-6.85,-3.15l-2.1,-1.65q-0.4,-4.25 -0.15,-9.6l0.5,-7.5m68.75,10.2l1.75,0.35l0.15,0l1.15,0.25l1.1,0.2l0.9,-0.5l-1.45,8.45l-1.45,8.05l-14,3.85l-1.25,0l-1.2,-0.1q13.6,-2.85 14.3,-20.55"/>
   <path id="svg_30" fill-rule="evenodd" fill="#817c99" d="m29.1,-88.15q1.35,2.45 1.05,4.8q-0.3,1.9 -1.7,3.8l-1.7,1.85q-1.8,1.25 -3.85,1.95l0.1,-0.65q1.15,-0.65 1.75,-1.85q0.6,-1.3 0.6,-3.2q0,-1.8 -0.4,-3.15q1.4,2.25 3.5,1.1q0.8,-4.7 -2.25,-7.2l-5.65,-4.4q4.55,2 7.75,5.75l0.8,1.2"/>
   <path id="svg_31" fill-rule="evenodd" fill="#ffffea" d="m21,-88.3l0.45,0.1q1.75,0.45 2.75,1.9l0.7,1.45l0.05,0.15l0,0.1q0.4,1.35 0.4,3.15q0,1.9 -0.6,3.2l-0.35,0.15q0.05,-2.9 -0.55,-5.25q-0.85,-2.9 -2.85,-4.95m-8.15,-4.2l0.15,0.05q4.35,3.2 2.5,7.05l-0.2,0.45l-0.85,1.5l-0.95,1.2q1.35,-6.25 -0.65,-10.25m-30.8,175.75l0.25,-0.1l1,2.1l-0.8,1.9q-1.45,0.2 -3.25,0l-0.15,0l1.45,-1l1.5,-2.9m19.05,0.7l0,0.05l0.25,1.8q0.1,4.45 -4.35,4.7l2.05,-2.45q1.15,-2.2 1.05,-4l1,-0.1m-11.4,21.85q3.85,-1.3 6.7,-4.35l0.85,0.05l0,0.1q0.05,0.8 -0.15,1.5l-0.1,0.25q-1.05,2.2 -5.95,2.4l-1.35,0.05"/>
   <path id="svg_32" fill-rule="evenodd" fill="#cebd8c" d="m24.4,-78.1l0.35,-0.15q-0.6,1.2 -1.75,1.85q-1.9,1 -5.3,0.55q-2.9,-0.5 -3.4,-3.55q3.95,2.65 8.85,1.6l1.25,-0.3m-18.4,-4.35l-0.35,-0.5l-0.25,-0.45q-0.85,-1.85 -0.1,-4.6l0.1,-0.4q-0.15,6 6.7,7.3l-4.1,0.1q-1.3,-0.55 -2,-1.45m-1.4,69.6q7.5,0.85 7.1,6.75l-7.7,0.8l-6.2,-2.55l-0.9,-1.35q0.15,-1.85 2.75,-2.75l0.7,-0.1l4.25,-0.8m-16.1,3.5l-7,-0.45l-5.4,-3.3l0.55,-0.7q3.55,-4.05 9.75,-2.9q2.05,1.1 3.2,4.15l0.15,1l-1.25,2.2m-6.45,92.6l-0.15,0.05l-8.4,-1.65l0.05,-0.15q0.95,-2.1 4.8,-2.95q4.1,-0.7 7.8,3.2l-3.85,1.4l-0.25,0.1m5,-0.45l0.7,-0.85q1.15,-1.1 3.3,-1.95q7.15,-1.35 9.6,3l0.45,0.95l-1,0.1l-13.55,1.8l-0.1,-0.5q-0.2,-1.4 0.6,-2.55m-18.05,13.5q4.7,-2.8 10.45,-1.75q4.1,2.05 4.15,5.2q3.25,-4.05 9.05,-2.8q3.8,0.6 4.5,3.85l0.05,0.15l0.05,0.55l-0.85,-0.05l-12.9,-0.8l0.05,-0.25l0.05,-0.25l-15.2,-3.4l0.6,-0.45m14.6,3.45l0,0.3l0,0.1l0,-0.1l0,-0.3"/>
   <path id="svg_33" fill-rule="evenodd" fill="#a58e57" d="m47.25,62.8l-2.65,1l-4.65,-21.85l0.8,-16.25l-2.5,-17.25l5,-12.7l-0.35,5.5l1.7,3.1l0.55,-5.65l2.05,4.4l-1.35,27.75l1.4,31.95m6.5,-129.85l-1,9.8l-0.65,2.05l0.4,0.1l-1.2,8.25l-0.05,0.45l-9.55,6.9l2.95,-15.4l0.1,2.85l-0.75,8.75l5.25,-21.55l4.5,-2.2m-36.65,45.05l0.85,-5.95l3,-2.8l1.45,-15.65l0.95,-0.3l2.4,-1.25l-2.7,25.1l0,0.1l-5.95,0.75m24.75,-39.2l2.4,-1.15l0.05,0.15l-6.75,27.55l4.7,-10.9l-1.05,8.7l-0.85,7.1l-1.8,3.5l-10.55,3.3l0,-8.8l0.1,-0.05l-0.1,-0.15l6.1,-25.5l4.3,-2.1l-1.6,13l3.95,-9.5l1.1,-5.15"/>
   <path id="svg_34" fill-rule="evenodd" fill="#8d763f" d="m6.2,-43.75l1.65,-0.4l0.05,-0.05l5.3,-1.25l0.8,3.4l-4.3,-0.25l-0.2,5.1l-3.55,-1.2l-0.15,9.35l-1.65,-1.55l-1.1,-1.45l-0.65,-2.7l-2.8,-4.85l-3.05,3.8l-0.55,-5.5l10.2,-2.45m10.65,23.7l0.45,1.4l-0.05,3.4l-4.7,0.9l1.55,-4.9l-0.05,-2.35l-0.05,-6.45l2.2,6.15l0.65,1.85m25,-41.15l-1.1,5.15l-3.95,9.5l1.6,-13l3.45,-1.65"/>
   <path id="svg_35" fill-rule="evenodd" fill="#a18a59" d="m32.95,33.25l-0.1,1.05l-2.25,4l0.1,-2.6l-0.45,-1.05l-3,-7.45l-1,20l2.2,-3.7l-3.65,22.1l-6.55,0.95l-2.45,-3.65l-0.35,-8.25l-1.35,-5.45l0.85,15.2l-9.9,3.75l-3.05,-1.1l-4.95,-21.45l-1.65,2.25l0.2,6.5l1.3,3.3l-3.3,-5.4l-0.25,-2.3l-1.15,10.75l0,5.25l-3.5,8l-0.4,0.85l1.4,-22.15l-2.3,-2.05l2.95,-32.4l1.75,0l0,16.85l1.4,-4.6l2.25,-2.35l0.15,-0.2l0.2,0.05l1.65,0.25l-0.05,-2l0.25,-6.4l0.55,-3.1l-1.55,-2.85l-0.85,-5.15l-2.1,0l0,-2.25l-1.65,0l0.15,1l-1.85,8.05l1.65,-16l-2.55,-11.05l-0.15,-1l-1.2,-8l4.65,-4.15l0.2,5.4l1.75,2.35l-0.4,6.75l1.3,2.6l5.95,12.4l7.45,1.25l-4.5,0.4l8.7,17.25l2.2,-4.1l3.3,1.95l0.65,5.6l2.45,7.5l-3.8,-27.15l3.3,0.55l1,8.15l2.5,7l0,-14.65l2.5,-1.3l0.8,9.85l2.85,-4.6l-1.75,14l1.85,-1.4l1.35,-20.5l6.3,-3.3l1.7,-8.8l1.3,-6.85l1.75,1.85l-0.15,2.7l-0.35,5.55l-5,12.7l2.5,17.25l-0.8,16.25l-2.25,-4.9l-3,-20.85l-1.75,17.05m1.75,-17.05l1,-7.15l-1,7.15m-58.6,40.05l-2,5.35l-1.75,6.9l2.15,-10.45l1.15,-9.5l0.85,0.35l-0.1,4.85l-0.3,2.5m19.65,-28.15l0.35,-0.15l-0.35,0.15m9.3,40.05l-0.65,-33.6l-1.35,9.35l2,24.25m32.75,9.75l-0.25,4.25l-3.1,-1.65l3.35,-2.6m20.05,-14.05l2.75,0l-0.2,3.15l-2.55,-3.15m-98.75,10.75l-0.75,-1.5l0.85,-1.2l0.9,1.75l-1,0.95m-0.35,-8.35l0,1.1l-1.5,0.55l-1,-0.95l1.1,-1.4l1.4,0.7m82.35,24.05l-2.7,1.25l-1.25,-2.75l2,-1.5l1.95,3"/>
   <path id="svg_36" fill-rule="evenodd" fill="#a79059" d="m-1.15,-11.8l-0.75,-7.8l4.05,-5.7l9.05,2.6l0.55,-6.6l1.4,7.8l0.9,-0.1l0.05,2.35l-1.55,4.9l-7.95,1.5l-4.25,0.8l-0.7,0.1l-0.8,0.15m17.35,-10.1l0.9,-0.1l-0.25,1.95l-0.65,-1.85m28.1,-40.3l-0.05,-0.15l0.15,-0.1l-0.1,0.25"/>
   <path id="svg_37" fill-rule="evenodd" fill="#d9c28b" d="m30.6,38.3l0,13.9l2.45,11.9l-8.25,1.5l3.65,-22.1l-2.2,3.7l1,-20l3,7.45l0.45,1.05l-0.1,2.6m-13.5,-60.3l5.95,-0.75l-0.05,0.45l2,6.85l-4.75,0l-2,0l-1,0.2l0.05,-3.4l-0.45,-1.4l0.25,-1.95m10.9,-9.95l0.1,0.15l-0.1,0.05l0,-0.2m0,9l10.55,-3.3l-4.55,9l-0.15,0l-1.75,-0.35l-4.1,-0.85l0,-4.5"/>
   <path id="svg_38" fill-rule="evenodd" fill="#dcae7d" d="m52.75,-57.25l-0.25,2.15l-0.4,-0.1l0.65,-2.05"/>
   <path id="svg_39" fill-rule="evenodd" fill="#a68f58" d="m49.25,-64.85l-5.25,21.55l0.75,-8.75l-0.1,-2.85l-0.35,-7.3l0.1,-0.25l2.1,-1.05l0.15,-0.05l2.6,-1.3"/>
   <path id="svg_40" fill-rule="evenodd" fill="#e5d6a5" d="m44.65,-54.9l-2.95,15.4l-0.5,2.65l1.05,-8.7l-4.7,10.9l6.75,-27.55l0.35,7.3"/>
   <path id="svg_41" fill-rule="evenodd" fill="#a0895e" d="m54.6,58.7l-0.75,1.6l-6.6,2.5l-1.4,-31.95l4.9,24.6l0.85,-3.55l3,6.8m-8.3,-71.7l-1.15,11.7l-0.55,5.65l-1.7,-3.1l0.35,-5.5l0.35,-5.55l2.7,-3.2"/>
   <path id="svg_42" fill-rule="evenodd" fill="#ae9772" d="m-28.65,1.45l-11.25,-5.35l-1.7,-5.2l4.6,-1.6l2.1,1.65l6.85,3.15l0.2,0.1l3.35,1.5l1.25,0.75l1.25,0.75l7.25,-0.9l-2.25,3.9l-2,0.3l-7.9,1.05l2.4,-5.85l-4.15,5.75m46.45,1.5l1.2,0.1l2.6,5l-3.3,-0.55l-9,-1.45l-7.45,-1.25l-5.95,-12.4l1.9,-0.25q2.95,5.75 6.3,9.65l12.7,1.1l0.25,0l0.75,0.05m2.45,0.1l14,-3.85l4.75,2.1l-6.3,3.3l-5.1,2.65l-2.5,1.3l-4.85,-5.5m-29.9,15.15l-0.35,0l0.65,-2.7l1.85,-8.05l-0.15,-1l1.65,0l0,2.25l-0.9,6.5l0.25,1.8l0.9,7.45l-0.75,6l-1.4,4.6l0,-16.85l1.25,-1.2l-1.25,1.2l-1.75,0m-7.35,6.55l-0.65,1.05l-1.15,-2.1l0,-7.25l3.3,-7.75l3,-1.4l0.45,1.05l-3.85,6.1l-1.15,6.5l0.05,3.8m13.1,3.2l1.6,-1.75l0.05,2l-1.65,-0.25"/>
   <path id="svg_43" fill-rule="evenodd" fill="#453929" d="m-3.2,-14.55l2.05,2.75l0.8,-0.15q-2.6,0.9 -2.75,2.75l-0.65,-1l0.55,-4.35m-8.85,22.9l0.4,1.1l-2.1,9l-1.5,-1.4l-1.15,6.65l-0.6,1.05l-0.05,-3.8l1.15,-6.5l3.85,-6.1m6.05,0.35l2.1,0l0.85,5.15l1.55,2.85l-0.55,3.1l-0.25,6.4l-1.6,1.75l-0.2,-0.05l-0.15,0.2l-2.25,2.35l0.75,-6l-0.9,-7.45l-0.25,-1.8l0.9,-6.5"/>
   <path id="svg_44" fill-rule="evenodd" fill="#201b38" d="m-26.9,88.85l2.05,-0.8q1.75,1.25 4.4,2.35q7.1,2.9 13.55,1.95l1.3,-0.25q3.1,-0.65 5.35,-1.95l1.25,1.1l-7.25,3.45l-9.4,0l-7,-2.15l-4.25,-3.7"/>
   <path id="svg_45" fill-rule="evenodd" fill="#5a5572" d="m-23.65,86.45l2.75,0.7l0.15,0q1.8,0.2 3.25,0q2.15,-0.3 3.55,-1.45l0.4,-0.35l0.1,0.5l0,0.1q1.05,3.7 8.5,4.5l1.55,0.05l0.4,0q4.45,-0.25 4.35,-4.7l2.55,-1.9q0.25,2.2 -1.2,3.85q-1.25,1.4 -2.95,2.4q-2.25,1.3 -5.35,1.95l-11.15,-2.65l-6.9,-3m20.9,15.05l2.35,-3.05l3.2,-2.8q0.45,2.75 -2.5,5.3l-0.8,0.6l-2.4,1.55q0.2,-0.7 0.15,-1.5l0,-0.1"/>
   <path id="svg_46" fill-rule="evenodd" fill-opacity="0.352941" fill="#050505" d="m58.15,95.1l1.75,-0.7l1.6,0.8l-1.85,1.4l-1.5,-1.5m-21.6,17.95l1.1,1.25l-1.3,1.1l-3.1,-0.95l0.65,-1.05l2.65,-0.35m5.75,1.35l-2.05,-0.6l1.35,-1.1l0.7,1.7"/>
   <path id="svg_47" stroke-linejoin="round" stroke-linecap="round" stroke="#716242" fill="none" d="m62.95,-63.45l3.9,-23l3.6,-13.1l2,-5.75l-7.85,8.1l-0.2,1.35q-1.65,10 -7.2,19.1l-1.05,1.65m6.8,21.85l0,-10.2m9.5,-41.85l-8.35,-3.55l-7.5,7.9m6.35,47.7l0,16.15l1.2,2.8l0.45,1.1l-2.65,2.85l-3.9,21.85l1.55,26.3l-4,6.05l0.65,4.9m0,0.15l2.65,20.3l-4.3,9.5m-7.65,-136.8l2.5,-3.6m0,-0.05l0.75,-1.2q5.25,-8.5 6.2,-15.4l0.1,-0.75m0,-0.15l0.1,-1.7m-0.9,26.5l0.45,-0.65m-0.55,93.4l0,5.55"/>
   <path id="svg_48" stroke-width="0.5" stroke-linejoin="round" stroke-linecap="round" stroke="#716242" fill="none" d="m62.95,-63.45l-1.35,-4.65l1,-4.75m-6,-28.1l8,3.75m-8.1,-1.9l0,-0.15m-0.8,24.8q-4.35,-1.8 -8.75,-3.65"/>
   <path id="svg_49" stroke-width="0.8" stroke-linejoin="round" stroke-linecap="round" stroke="#171625" fill="none" d="m-11.65,-115.85q-1.3,-0.75 -2.4,0.6q-1.15,1.35 -0.5,3.35m2.9,-3.95q-0.3,-0.95 -0.1,-2.25l0.05,-0.4q-4.85,-1.2 -3.85,1.3m13.55,-5.15q1.75,-3.9 3.95,-1.05m-13.65,4.9q0.55,-2.85 3.8,-4.4l0.75,-0.25q-1.1,-3.45 2.4,-3.85"/>
   <path id="svg_50" stroke-width="0.6" stroke-linejoin="round" stroke-linecap="round" stroke="#171625" fill="none" d="m7.8,72q-1.65,5.35 -8.15,4.85m-9.65,-190.7q-1.3,-0.65 -1.65,-2m4.5,-7.3l2.5,0.15m3.05,5.65q0.4,0.85 -0.9,2.25q-0.95,1.35 -2.4,1.4m16.4,109.05l0.3,-0.05q8.15,-1.5 8.45,-10.75m-3.2,18.35l-0.25,0q0.85,-3.8 -5,-7.6m-36.05,-7.85q-2.65,-2.85 -1.35,-8"/>
   <path id="svg_51" stroke-width="0.7" stroke-linejoin="round" stroke-linecap="round" stroke="#74633f" fill="none" d="m-10,-113.85l0.05,0.1l0.2,0.25q1.1,1.55 3.75,0.6l1.1,-0.8q0.8,-0.95 0.45,-2.5l-0.2,-0.5q-0.6,-1.25 -1.55,-1.7q-2.2,-1 -3.8,0.75q-1.2,1.45 0,3.8m5.35,-9.15l1.65,0.2l1,0.45q1.4,0.95 1.15,3.2q-0.15,1.15 -0.75,1.8q-0.95,0.95 -3.05,0.65m0,-6.3q-1.15,0.1 -1.55,1.25q-1,2 0,3.35"/>
   <path id="svg_52" stroke-linejoin="round" stroke-linecap="round" stroke="#533c0b" fill="none" d="m54.6,58.7l-0.75,1.6l-6.6,2.5l-2.65,1l-5,-3.1l-2.15,-12.75l0,-4.15l-1.5,-1.85l-3,-8.7l-0.1,1.05l-2.25,4l0,13.9l2.45,11.9l-1.05,2.7l-14.8,3.65m-3.5,0.35l-5.9,1.2m-35.2,-186.2q-3.35,1 -6,0.65l0,9.6l-2.35,6.9m1.4,5.15l5.8,-11.05l0,-2.15l1.15,-9.1m37.75,61.6l2.4,-0.6l1.6,0l5.9,-1.5l2.05,2.5l6.2,-10.25l4.85,0l13.25,-9.1l1.65,1.05l-1.3,-7.6m-84.1,-24.1q-3.6,1.55 -10.9,2.35l-0.75,4.75l-0.95,5.75l-0.9,5.25l-0.15,0.55l-2.35,6.5l5.1,0.1m2.25,37.1l0.6,-0.9m1.55,34.05l-1.65,2.4l-0.7,2.45m94.25,-68.65l5.5,3.45l-1,9.8l-0.25,2.15l3.2,-7.6l0,-11.75m-4.4,27.6l1.2,-8.25m-48.65,4.15l-2.8,0.7m9.3,-2.35l-6.5,1.65m-10.6,2.65l7.8,-1.95m22,27.4l2.7,-25.1m-8.5,32.7l1,-0.2l2,0l4.75,0l-2,-6.85l0.05,-0.45m-5.8,7.5l-4.7,0.9l-7.95,1.5l-4.25,0.8m50,-21.15l0,-7.35l0.9,-5.85m-28.95,-5.8l3.45,4.25m-2.75,25.65l5,3.85l4.1,0.85l1.75,0.35m1.3,0.25l1.1,0.2l0.9,-0.5l6.05,-3.5l4.1,-2.35l4.7,-2.15l-1.65,-5.55l0,-2.35m-15.2,16.2l-1.15,-0.25m8,2.9l1.2,-6.45m-1.2,6.45l-1.3,6.85l-1.7,8.8l-6.3,3.3m-5.1,2.65l-2.5,1.3m2.5,-1.3l5.1,-2.65m-2.45,30.05l0.45,1.05l-0.1,2.6m-45.35,-42l3.25,-5.65m-3.25,5.65l-2.25,3.9l-2,0.3m-30.1,58.05l3.7,3.25m15.9,-30.75l-4.75,14.85l-1.15,9l-2.35,10.5l11.35,5.3m1.2,4.5l4.85,0.6l0.45,0l7.1,1.5l1.1,-2.5l0.4,-0.85l3.5,-8l0,-5.25m-2.45,-72.25l-1.25,2.2m1.25,-2.2l-0.15,-1l-1.2,-8m6.05,82.1l4.75,12.15l8.6,-1.7m-32.3,-76.3l1.25,0.75m-11,49.45l-5.75,15.9l-5.4,0m20.2,13.4l-1.2,-2.4l0,-2.1m-0.5,-69.15l7.9,-1.05"/>
   <path id="svg_53" stroke-linejoin="round" stroke-linecap="round" stroke="#3d2707" fill="none" d="m-35.75,-97.05l1.4,5.15m6.95,-22.3l4.85,22.85l2.65,20.25l3.25,14.4l2.55,1.05m-23.8,-36.4l0.75,-10.15l1.4,5.15m-2.2,5.35l-0.2,2.6l-0.45,1.6l-0.8,2.85l-0.5,1.7l1.25,4l1.75,5.15l-8.85,5.35m1.2,1l6.75,-3.35l1.15,1.35l1.1,1.3l0.7,0.8l2.45,2.9l7.1,3.8l-5.25,-17.2l-3.8,-14.05m-11.55,23.35l0.1,0.1l0.05,0m-0.15,-0.1l-7.25,-8.5l5.75,17.1l2.15,19.15m0.05,0.05l5.9,-9.2l-0.3,-1.05l-4.95,-16.45m19.65,7l-0.4,-0.2m3.3,1.7l1.85,1m-1.85,-1l-2.9,-1.5m-14.15,31.5l2.4,1.15l4.7,2.65q3.2,2 6.35,4.6l0.55,0.45m2.3,2l8.35,0m-30.4,-1.5l-1.4,-15.9l-1.45,-1.3l1.85,-3.05m4.8,9.15l-0.3,5.15m-3.5,5.95l1.15,12.9m-2.35,4.85l-6.7,23.7m24.05,-20.4l-11.25,-5.35l-1.7,-5.2l0.1,-10.5l0.15,-5.45m-4.85,-10.45l5.2,4.8l1.95,1.75m31.4,-24l-6.45,-2.7m10.9,41.1l2.05,2.75m-47.15,54.45l3.95,-8.4m-3.95,8.4l-2.65,7.45l-1.85,5.2l3.7,3.25m-1.85,-8.45l-5.8,-2l-0.15,-3.55l-1.9,-1.35l6.1,-21.35"/>
   <path id="svg_54" stroke-width="0.6" stroke-linejoin="round" stroke-linecap="round" stroke="#38b5e9" fill="none" d="m-45.75,-68.45l-0.15,-0.1"/>
   <path id="svg_55" stroke-width="0.5" stroke-linejoin="round" stroke-linecap="round" stroke="#675236" fill="none" d="m-48.05,-76.95l9.4,-2m-5.9,11.5l2.55,2.8m3.65,17.55l-0.7,1.05m0.7,-1.05l0.55,-0.95l-1.5,-1.9m93.05,-17.1l-4.5,2.2m-43.05,21.1l1.65,-0.4m-11.85,2.85l10.2,-2.45m38.05,-18.6l-2.4,1.15l-3.45,1.65l-4.3,2.1l-6.1,25.5l0,0.2l0,8.8m16.25,-39.4l0.15,-0.1l2.1,-1.05m0.15,-0.05l2.6,-1.3m-20.75,2.4l5.6,5m-6.1,39l0,-4.5m-10.2,25.9l1.2,0.1l2.6,5m-1.35,-5l14,-3.85l1.45,-8.05l1.45,-8.45m-12.05,25.85l0,14.65l-2.5,-7l-1,-8.15m-27,-18.25l0.4,-6.75m39.25,16.15l4.75,2.1m0.95,40.65l-2.25,-4.9l-3,-20.85l-1.75,17.05m2.75,-24.2l-1,7.15m5.25,25.75l4.65,21.85m-26.8,-60.85l-0.75,-0.05m-0.25,0l-12.7,-1.1q-3.35,-3.9 -6.3,-9.65l-0.9,-1.35l-0.65,-1l0.55,-4.35m28.3,23.1l-4.85,-5.5"/>
   <path id="svg_56" stroke-width="0.5" stroke-linejoin="round" stroke-linecap="round" stroke="#3d2707" fill="none" d="m-40.1,-62.6l2.95,3.3l3.5,1.1l0,2l2.45,1.6l1.15,0.75m9.9,-4.1l1,4.05l2.5,-2.8m-9.65,5.25l-2.5,-1.6m8.65,-4.9l-6.15,6.5l3.65,18.35l1,-18l2.5,-2.8m-10.8,0.1l1,0.65m1.05,57.6l-0.75,-3m-8.5,-21.75l0.5,-7.5m-3.45,-34.8l-1.9,-2.05m35.25,16.35l2.75,7m2.85,29.5l-0.75,-7.8l-0.1,-1m0,-0.15l-1.45,-15.05l-0.55,-5.5m-2.95,16.6l0.2,5.4m-4.75,-29.4l-10.15,-2.4m-19.95,42l4.6,-1.6q-0.4,-4.25 -0.15,-9.6"/>
   <path id="svg_57" stroke-linejoin="round" stroke-linecap="round" stroke="#0099ff" fill="none" d="m-45.25,-40.8l-0.55,0.95"/>
   <path id="svg_58" stroke-width="0.8" stroke-linejoin="round" stroke-linecap="round" stroke="#3d2707" fill="none" d="m-25.05,-20.1l2.1,-7.2l0.2,9.2m8.35,0l0,-2.75m6.75,-32.1l-3.85,4.25l-1.5,14.85l-1.4,4.5l0,8.5m7.65,-27.45l-0.9,-4.65m-6.75,34.85l2.8,-2.45l4.65,-4.15l0.2,-23.6"/>
   <path id="svg_59" stroke-linejoin="round" stroke-linecap="round" stroke="#171625" fill="none" d="m-0.35,76.85l1.35,1.25l0.7,0.75q1.8,-2.05 3.75,-2.25q3.95,-0.15 2.3,11.4m-21.85,-143.65q5.55,-5.25 13.85,-4.05q8,1.1 10.6,7.1m19.8,-30.75q1.6,-2.05 4.55,-3q3.15,-0.7 5.1,0.6m-10.7,-2.4q1.35,2.45 1.05,4.8q-0.3,1.9 -1.7,3.8q5.85,-4.3 9.65,2.95m-9.65,-2.95l-1.7,1.85q-1.8,1.25 -3.85,1.95l-1.85,0.5q-5.2,1.35 -10.6,-1.55q-5.2,-2.75 -4.45,-5.65m-0.7,-5.55q-0.45,-2.85 1.5,-4.9q-0.9,-3.65 -4.75,-3.85q-9.25,-0.05 -9.05,4.65m36.1,3.95q3.3,-3.75 4.8,-1.4m-13.35,-5.55q4.55,2 7.75,5.75l0.8,1.2m-13.05,-8.2l1.25,0.1l3.25,1.15m-13.75,2.2q1.5,-1.65 4.45,-2.85l4.8,-0.6q1.35,-7.8 -1.5,-7.25m-5.1,8.1q-3.95,-13.45 -6.5,-9m0.95,188.4q-0.3,-2.25 -2.2,-5.05l-1.05,1.45m-1,-3.45q-5.2,-4.35 -10.95,-2.9m-13.55,14.1q-2.95,-2.1 -3.35,-4.6q-0.15,-1.1 0.25,-2.6l0.4,-1.25q-1,-1.75 -3.35,-1.05q-0.95,4.85 2.25,9.25m1.1,-8.2l1.1,1.9m1.25,-6.3q-2.3,2.6 -2.35,4.4m2.7,8.45l-2.05,0.8q-2.05,0.95 -3.3,1.9q-1.9,1.5 -1.85,3.1q0,1.2 1.05,2.45m32,-5.05l-1.25,-1.1q-2.25,1.3 -5.35,1.95l-1.3,0.25q-6.45,0.95 -13.55,-1.95q-2.65,-1.1 -4.4,-2.35m27.65,7.6l-1.7,0.75m-37.75,-2.55l-0.35,-3.55l-1,-0.35q-9.05,6.65 -7.5,13.9m13.45,-10q-2.2,-2.5 -4.95,-3.55q-0.5,-3.85 2.6,-5.95q2.75,2.35 4.2,6.4m5.85,12.65q5.85,2.8 12.6,2.2m12.75,-14.35l4.7,-3.2q1.85,2 2.85,4.85m-5.75,2.75l4.95,-2.15q5.4,2.55 8.35,7.75m-13.3,-5.6l-0.1,-0.45q-0.7,-2.65 -1.7,-3.95m-3.9,11.85l2.4,-1.55l0.8,-0.6q2.95,-2.55 2.5,-5.3m-2.5,5.3l4.7,-1.2q8.8,5.45 13.95,15.95m-19.2,-25.55q1.7,-1 2.95,-2.4q1.45,-1.65 1.2,-3.85"/>
   <path id="svg_60" stroke-linejoin="round" stroke-linecap="round" stroke="#74633f" fill="none" d="m24.9,-84.85l-0.7,-1.45q-1,-1.45 -2.75,-1.9l-0.45,-0.1m3.75,10.05q0.6,-1.3 0.6,-3.2q0,-1.8 -0.4,-3.15m-1.95,8.2q1.15,-0.65 1.75,-1.85m-18.75,-4.2l-0.35,-0.5l-0.25,-0.45q-0.85,-1.85 -0.1,-4.6l0.1,-0.4l0.2,-0.6q3.65,-4.75 7.25,-3.5l0.15,0.05q4.35,3.2 2.5,7.05l-0.2,0.45l-0.85,1.5l-0.95,1.2l-1.4,1.15l-4.1,0.1q-1.3,-0.55 -2,-1.45m9.55,-2.95q2.25,-3.45 5.45,-2.9m-6.55,4.85q-0.45,2.4 -0.15,4.05q0.5,3.05 3.4,3.55q3.4,0.45 5.3,-0.55m-7.7,-8.55l0.25,-0.45m-3.85,79.3l-0.1,0.75l-0.1,0.7m-7.4,6.45q6.15,-0.55 7.4,-6.45m-35.4,-8.45l-0.35,0.55q-3,4.45 1,9m9.65,-13.15q-6.2,-1.15 -9.75,2.9l-0.55,0.7m10.05,94.85q-3.7,-3.9 -7.8,-3.2q-3.85,0.85 -4.8,2.95l-0.05,0.15q-0.3,0.7 -0.25,1.55q0.65,2.1 2.95,3.15l0.15,0.1l2.75,0.7l0.15,0q1.8,0.2 3.25,0m3.65,-5.4l0.9,1.05l0.7,-0.85q1.15,-1.1 3.3,-1.95q7.15,-1.35 9.6,3l0.45,0.95l0,0.05l0.25,1.8m-32.35,10.5q4.7,-2.8 10.45,-1.75q4.1,2.05 4.15,5.2q3.25,-4.05 9.05,-2.8q3.8,0.6 4.5,3.85m0.05,0.15l0.05,0.55m-28.85,-4.75l0.6,-0.45m19.25,9.3q-3.15,-0.75 -5.05,-4.25q-0.95,2 -3.15,1.95l-4.4,0.1l-0.5,-0.05q-3.95,-0.4 -5.85,-2.45q-2.55,-2.75 -0.9,-4.15m19.85,8.85l1.45,0.2l1.35,-0.05q4.9,-0.2 5.95,-2.4l0.1,-0.25q0.2,-0.7 0.15,-1.5l0,-0.1m-13.75,-0.85l-0.3,0.7m0.4,-1.2l0,-0.1l0,-0.3m2.95,-13.9l0,0.1q1.05,3.7 8.5,4.5l1.55,0.05m-10.05,-4.65l-0.1,-0.5l-0.4,0.35q-1.4,1.15 -3.55,1.45m1.1,13l-0.05,0.25l-0.05,0.25m13.5,-10.15q4.45,-0.25 4.35,-4.7m-14.9,-0.45q-0.2,-1.4 0.6,-2.55"/>
   <path id="svg_61" stroke-width="0.5" stroke-linejoin="round" stroke-linecap="round" stroke="#533c0b" fill="none" d="m17.2,70.45l-2.25,-4.75l-1.25,5.1m-5.8,-115l5.3,-1.25l1.4,-0.35l-1.85,-7.4m1.85,7.4l3.25,3.75l1.15,11.5l0,-14.9l-4.65,-7.75m11.4,5.25l-2.4,1.25l-0.95,0.3l-3.4,0.95m-42.25,41.9l1.25,0.75l7.25,-0.9m5.1,21.9l-0.35,0l0.65,-2.7m-7.65,9.25l-0.65,1.05l-1.15,-2.1l0,-7.25l3.3,-7.75l3,-1.4l0.45,1.05l0.4,1.1l-2.1,9l-1.5,-1.4l-1.15,6.65l-0.6,1.05m14.7,1.45l0.25,-6.4l0.55,-3.1l-1.55,-2.85l-0.85,-5.15l-2.1,0l0,-2.25l-1.65,0l0.15,1l-1.85,8.05m2.85,14.95l2.25,-2.35l0.15,-0.2l0.2,0.05m1.6,-1.75l0.05,2l-1.65,-0.25m-4,-9.75l0,16.85l1.4,-4.6m-3.15,-12.25l1.75,0m1.5,34.05l0.85,9.3m-2.25,-0.85l1.15,-10.75l0.25,2.3m-21.45,-58.05l3.35,1.5l-4.15,5.75m-8.35,-12.15l2.1,1.65l6.85,3.15m1.15,10.85l0,-3.4l2.4,-5.85m-2.4,10.75l0,-0.25m-0.35,1.1l0.35,1.4l0,-2.25m-1,-2l0.65,2.85"/>
   <path id="svg_62" stroke-width="0.6" stroke-linejoin="round" stroke-linecap="round" stroke="#3d2707" fill="none" d="m-6.75,-19.3l1.75,2.35l1.8,2.4m37.65,95.05l3.1,1.65l0.25,-4.25m-3.35,2.6l-1.75,-1.45l3,-2.45l2.1,1.3m20.05,-14.05l2.75,0l-0.2,3.15l-1.95,1.4l-2.15,-2.3l1.55,-2.25m-99.1,2.4l-1.4,-0.7l-1.1,1.4l1,0.95l1.5,-0.55l0,-1.1m0.35,8.35l1,-0.95l-0.9,-1.75l-0.85,1.2l0.75,1.5m82,15.7l-1.95,-3l-2,1.5l1.25,2.75l2.7,-1.25"/>
   <path id="svg_63" stroke-linejoin="round" stroke-linecap="round" stroke="#675236" fill="none" d="m19,3.05l1.25,0m1.35,5l-3.3,-0.55m-9,-1.45l-7.45,-1.25l-5.95,-12.4m13.4,13.65l9,1.45"/>
   <path id="svg_64" stroke-width="0.8" stroke-linejoin="round" stroke-linecap="round" stroke="#74633f" fill="none" d="m4.6,-12.85q7.5,0.85 7.1,6.75m-22.1,-6.45q-1.15,-3.05 -3.2,-4.15"/>
   <path id="svg_65" stroke-width="0.7" stroke-linejoin="round" stroke-linecap="round" stroke="#675236" fill="none" d="m-4.1,-7.6l-1.3,-2.6"/>
   <path id="svg_66" stroke-width="0.8" stroke-linejoin="round" stroke-linecap="round" stroke="#675236" fill="none" d="m-0.35,-11.95l-0.8,0.15"/>
   <path id="svg_67" stroke-width="0.6" stroke-linejoin="round" stroke-linecap="round" stroke="#533c0b" fill="none" d="m-3.9,27.95l-0.35,0.15m-3.65,-9.9l1.25,-1.2"/>
   <path id="svg_68" fill-rule="evenodd" fill="#453929" d="m-12.4,-7.9q-0.4,0.3 -0.95,0.3q-0.55,0 -0.9,-0.3q-0.4,-0.35 -0.4,-0.8l0.4,-0.8l0.9,-0.3l0.95,0.3q0.35,0.35 0.35,0.8q0,0.45 -0.35,0.8"/>
   <path id="svg_69" fill-rule="evenodd" fill="#453929" d="m5.1,-5.65l-0.9,0.35q-0.6,-0.05 -0.95,-0.35q-0.4,-0.35 -0.35,-0.8q-0.05,-0.45 0.35,-0.8q0.35,-0.3 0.95,-0.3l0.9,0.3l0.4,0.8l-0.4,0.8"/>
   <path id="svg_70" fill-rule="evenodd" fill="#453929" d="m-19.5,81.7l-0.95,0.3l-0.9,-0.3q-0.4,-0.35 -0.4,-0.8q0,-0.45 0.4,-0.8q0.35,-0.3 0.9,-0.3q0.55,0 0.95,0.3q0.35,0.35 0.35,0.8q0,0.45 -0.35,0.8"/>
   <path id="svg_71" fill-rule="evenodd" fill="#453929" d="m-10.6,83.75l-0.9,0.35l-0.95,-0.35l-0.35,-0.8q-0.05,-0.45 0.35,-0.8q0.35,-0.3 0.95,-0.3q0.5,0 0.9,0.3q0.35,0.35 0.4,0.8q-0.05,0.45 -0.4,0.8"/>
   <path id="svg_72" fill-rule="evenodd" fill="#453929" d="m-20.65,101.75l-1.2,0.15l-1.2,-0.15l-0.5,-0.3l0.5,-0.3l1.2,-0.15l1.2,0.15l0.55,0.3l-0.55,0.3"/>
   <path id="svg_73" fill-rule="evenodd" fill="#453929" d="m-9.5,103.9l-1.2,0.15l-1.2,-0.15l-0.5,-0.3l0.5,-0.3l1.2,-0.15l1.2,0.15q0.55,0.15 0.55,0.3q0,0.2 -0.55,0.3"/>
   <path id="svg_74" fill-rule="evenodd" fill="#453929" d="m12.5,-85.15l-0.55,0.2l-0.55,-0.2l-0.25,-0.45l0.25,-0.5l0.55,-0.2l0.55,0.2l0.25,0.5l-0.25,0.45"/>
   <path id="svg_75" fill-rule="evenodd" fill="#453929" d="m19.25,-82.45q-0.35,0.25 -0.8,0.3l-0.9,-0.3q-0.35,-0.3 -0.3,-0.75q-0.05,-0.4 0.3,-0.7l0.9,-0.3q0.45,0 0.8,0.3l0.4,0.7l-0.4,0.75"/>
   <path id="svg_76" fill-rule="evenodd" fill="#453929" d="m-2.65,-117.75q-0.1,0.1 -0.3,0.1l-0.3,-0.1l-0.15,-0.25l0.15,-0.3l0.3,-0.1l0.3,0.1l0.15,0.3l-0.15,0.25"/>
   <path id="svg_77" fill-rule="evenodd" fill="#453929" d="m-5.05,-114.75q-0.1,0.1 -0.3,0.1l-0.3,-0.1l-0.15,-0.25l0.15,-0.3l0.3,-0.1l0.3,0.1l0.15,0.3l-0.15,0.25"/>
   <path id="svg_78" fill-rule="evenodd" fill="#ffffff" d="m41.1,-101.5q0.6,0.4 0.6,1.15q0,0.65 -0.6,1.35q-0.65,0.6 -1.5,0.8l-2.4,0.15q-1.6,0 -0.95,-1q0.6,-1.05 1.55,-1.8q0.95,-0.8 1.8,-0.9l1.5,0.25"/>
   <path id="svg_79" stroke-width="0.6" stroke-linejoin="round" stroke-linecap="round" stroke="#a6a6a6" fill="none" d="m41.1,-101.5q0.6,0.4 0.6,1.15q0,0.65 -0.6,1.35q-0.65,0.6 -1.5,0.8l-2.4,0.15q-1.6,0 -0.95,-1q0.6,-1.05 1.55,-1.8q0.95,-0.8 1.8,-0.9l1.5,0.25z"/>
   <path id="svg_80" fill-rule="evenodd" fill="#ffffff" d="m35.8,-109.4q0.65,0 1.1,0.6q0.35,0.6 0.25,1.45q-0.25,0.85 -0.85,1.45l-1.95,1.45q-1.3,0.95 -1.3,-0.25q-0.1,-1.25 0.25,-2.4q0.45,-1.2 1.05,-1.75q0.6,-0.6 1.45,-0.55"/>
   <path id="svg_81" stroke-width="0.6" stroke-linejoin="round" stroke-linecap="round" stroke="#a6a6a6" fill="none" d="m35.8,-109.4q0.65,0 1.1,0.6q0.35,0.6 0.25,1.45q-0.25,0.85 -0.85,1.45l-1.95,1.45q-1.3,0.95 -1.3,-0.25q-0.1,-1.25 0.25,-2.4q0.45,-1.2 1.05,-1.75q0.6,-0.6 1.45,-0.55z"/>
   <path id="svg_82" fill-rule="evenodd" fill="#ffffff" d="m-0.95,105.95q-0.55,0.55 -1.25,0.25q-0.6,-0.3 -1,-1.3q-0.25,-1.05 0,-2.15l0.85,-2.95q0.7,-1.9 1.35,-0.7q0.65,1.15 0.95,2.6q0.3,1.5 0.05,2.55q-0.25,1.1 -0.95,1.7"/>
   <path id="svg_83" stroke-width="0.6" stroke-linejoin="round" stroke-linecap="round" stroke="#a6a6a6" fill="none" d="m-0.95,105.95q-0.55,0.55 -1.25,0.25q-0.6,-0.3 -1,-1.3q-0.25,-1.05 0,-2.15l0.85,-2.95q0.7,-1.9 1.35,-0.7q0.65,1.15 0.95,2.6q0.3,1.5 0.05,2.55q-0.25,1.1 -0.95,1.7z"/>
   <path id="svg_84" fill-rule="evenodd" fill="#000000" d="m-40.65,71.65l0.15,0.1l0.9,1.75l0,0.2l-0.1,0.2l-1,0.95l-0.15,0.05l-0.15,0l-0.15,-0.15l-0.75,-1.5l-0.05,-0.15l0.05,-0.15l0.85,-1.2l0.2,-0.1l0.2,0m-0.35,-5.55l0.05,0.15l0,1.1l-0.05,0.2l-0.15,0.1l-1.5,0.55l-0.15,0l-0.15,-0.1l-1,-0.95l-0.1,-0.15l0.1,-0.2l1.1,-1.4l0.15,-0.15l0.2,0.05l1.4,0.7l0.1,0.1m101.9,-2.4l0,0.2l-0.2,3.15l0,0.1l-0.1,0.1l-1.95,1.4l-0.2,0.05l-0.2,-0.1l-2.15,-2.3l-0.1,-0.15l0.05,-0.2l1.55,-2.25l0.15,-0.1l0.1,-0.05l2.75,0l0.15,0.05l0.15,0.1m-22.95,13.95l0.15,0.15l0,0.15l-0.25,4.25l-0.05,0.15l-0.2,0.1l-0.2,0l-3.1,-1.65l-0.05,-0.05l-1.75,-1.45l-0.05,-0.15l0,-0.15l0.05,-0.15l3,-2.45l0.2,-0.1l0.15,0.05l2.1,1.3m-4.7,36.8l0.65,-1.05l2.65,-0.35l1.1,1.25l-1.3,1.1l-3.1,-0.95m8.15,-24.15l-0.05,0.2l-0.1,0.1l-2.7,1.25l-0.25,0l-0.15,-0.15l-1.25,-2.75l-0.05,-0.2l0.15,-0.2l2,-1.5l0.15,-0.05l0.15,0.05l0.1,0.1l1.95,3l0.05,0.15m18.25,6.3l-1.5,-1.5l1.75,-0.7l1.6,0.8l-1.85,1.4m-97.15,-6.25l0.1,-0.35l0.35,-0.2l0.35,0.1l0.2,0.35l0.35,3.55l-0.1,0.35l-0.35,0.2l-0.35,-0.1l-0.2,-0.35l-0.35,-3.55m79.8,24.05l-2.05,-0.6l1.35,-1.1l0.7,1.7m-41.2,-23.8l0.3,0.35l-0.3,-0.2l-0.35,0.1l0.35,-0.25"/>
   <path id="svg_85" stroke-width="2" stroke-opacity="0.301961" stroke-linejoin="round" stroke-linecap="round" stroke="#000000" fill="none" d="m5.35,76q1.8,-1.15 2.6,-3.5l-0.35,0.05l0.2,-0.55l5.9,-1.2l1.25,-5.1l2.25,4.75l14.8,-3.65l1.05,-2.7l-2.45,-11.9l0,-13.9l2.25,-4l0.1,-1.05l3,8.7l1.5,1.85l0,4.15l2.15,12.75l5,3.1l9.25,-3.5l0.95,-2.05l0.3,0.3l0,0.3l4.25,-9.45l0.05,-0.25l-3.25,-25.15l3.9,-5.9l0.05,-0.3l-1.55,-26.2l3.9,-21.75l2.55,-2.7l0.1,-0.25l-0.05,-0.3l-1.6,-3.75l0,-26.2l3.9,-23l0,0.05l3.6,-13.1l0,0.05l2,-5.75l0,-0.2l0,-0.15l-0.05,-0.05l-0.25,-0.25q-0.1,-0.05 -0.1,-0.05l-8.25,-3.5l-0.3,-0.05l-0.25,0.15l-7.5,7.9l-0.15,0.35l-0.1,1.65l0,0.15l-0.1,0.75q-0.95,6.8 -6.1,15.2l-0.75,1.25l-2.4,3.5l-0.1,0.05l-0.1,0.3l0,0.1l1.15,6.5l-0.7,-0.45l-0.3,-0.1l-0.25,0.1l-13.15,9l-4.7,0l-0.25,0.1l-0.15,0.15l-5.85,9.65l-1.6,-1.95l-0.25,-0.15l-0.25,0l-5.8,1.45l-1.6,0l-0.1,0.05l-2,0.5q-2.8,-5.95 -10.8,-7.05q-8.4,-1.2 -14.05,4l0.5,0.2l-0.4,0.35l-2.55,-1.05l-3.25,-14.4l-2.65,-20.25l-4.5,-21.35l0.15,-1.4l-0.05,-0.35l-0.15,-0.15l-0.1,-0.05l-0.3,-0.05l-0.1,0.05q-3.2,0.95 -5.7,0.6l-0.3,0.05l-0.2,0.2l-0.1,0.25l0,9.55l-2.05,6.1l-1.05,-3.8l0.05,-0.05l0.3,-0.25l0,-0.25l0,-0.05l-0.05,-0.1l-0.25,-0.25l-0.2,-0.05l-0.05,0l-0.2,0.1q-3.55,1.45 -10.7,2.25l-0.3,0.15l-0.15,0.3l-2.6,15.7l-2.45,7l0.2,-0.25l0.35,-0.1l0.1,0.05l-0.2,0.45l5.75,17.1l2.1,18.7l-0.3,0.25l-0.15,0.2l0,-0.1l-0.5,0.9l-0.05,0.25l0.25,0.35l-1.6,2.6l1.45,1.3l2.5,28.3l-0.35,0.2l-1.65,2.4l-0.05,0.15l-0.7,2.45l-0.05,0.1l-12.75,45l0,0.3l0.2,0.25l1.65,1.2l0.15,3.3l0.1,0.25l0.25,0.2l5.3,1.8l-1.65,4.75l0,0.3l0.15,0.25l3.7,3.25l-0.2,-0.35l0.15,-0.35l4.05,3.55l5.4,0l5.75,-15.9l-1.15,9l-2.35,10.5l11.35,5.3l0,2.1l1.2,2.4l-0.3,0.4l-0.15,-0.15l-0.15,-0.3q-1.6,1.85 -2.05,3.3m15.7,-196.6l-0.05,1.65m0.35,1q0.4,1.15 1.55,1.85l0.1,0.15l0.15,0.2l0.05,0q1.2,1.8 4.15,0.75q0.75,-0.35 1.2,-0.85q1.4,-0.15 2.4,-1.5q1.3,-1.4 1.05,-2.35q0.55,-0.7 0.7,-1.85q0.25,-2.25 -1,-3.3m-0.7,-0.45l-0.7,-0.3l0,0.05l-1.7,-0.25l-2.25,-0.15m-0.8,0.1l-0.4,0.15q-3.25,1.55 -3.95,4.3m-13.6,98.4q-3.15,-2.6 -6.35,-4.6l3.85,18.95l3.3,1.5l0.05,0q-2.6,-4.05 0,-7.95q-2.3,-2.85 -1.25,-7.55l0.1,0.05l0.2,0.15l0.1,-0.55m54.8,-68.4l-0.5,-0.7q-3.3,-3.85 -7.95,-5.9l-3.3,-1.15l-0.05,-0.05l-0.75,-0.05m12.7,9.1q1.05,2.2 0.8,4.35q-0.3,1.9 -1.7,3.8l-1.7,1.85q-1.8,1.25 -3.85,1.95l-0.55,0.2l-0.1,0.05l-0.35,0.05l-0.1,0.05l-0.75,0.15q-5.2,1.35 -10.6,-1.55q-4.65,-2.45 -4.55,-5l-0.3,-0.35l-0.35,-0.55l-0.3,-0.45l0,-0.05q-0.9,-1.95 -0.15,-4.8q-0.45,-2.9 1.45,-5.05m9.4,-3.8q-2.2,-0.1 -4.55,0.65l-0.05,0l-1.15,0.5m18,77.75l4.2,0.85q-0.85,16.15 -12.65,19.65l-0.45,0q-0.2,0 -0.35,0.15l-0.05,0.1l-1.35,-0.15l-0.05,0q0.55,-3.6 -4.6,-7.2q7.45,-1.75 7.95,-10.4l4.45,0l0.3,-0.1l0.2,-0.2l0,-0.35l-1.6,-5.35l3.8,2.9l0.2,0.1m-26.55,95.7l-0.55,-0.55l2.3,-0.25l-1.4,1.2l-0.3,-0.35l-0.05,-0.05m6.2,15.3l-4.4,1.95q-0.6,-2.3 -1.45,-3.6l-0.3,-0.45l0.1,0.4l-0.2,0.3l-0.3,-0.4l-0.75,-0.8q1.6,-1 2.85,-2.35q1.55,-1.85 1.3,-4.25q-0.3,-2.25 -2.05,-4.95q1.5,-1.6 3.15,-1.8m-35.95,1.85q1.55,-0.35 2.35,0.7l0.1,0.15l0.1,0.15l0,0.05l0.15,0.2l-0.2,0.65q-0.4,1.5 -0.25,2.6q0.4,2.5 3.35,4.6l-2.05,0.8q-2.05,0.95 -3.3,1.9q-1.9,1.5 -1.85,3.1q0,1 0.75,2.05l-0.6,0.5l-0.05,0q-1.05,0.9 -0.75,2.2q0.25,1.15 1.65,2.65q2,2.2 6.15,2.6l0.05,0l0.4,0.05q5.85,2.75 12.6,2.2l0.05,0l1.5,0.2l1.4,-0.05q3.8,-0.15 5.4,-1.5l0.05,0.25l0.05,0q0.3,1.15 1.1,1.5q0.8,0.35 1.6,-0.3q0.75,-0.7 1.05,-1.8l0,-0.05l-0.05,-2.65l0,-0.05l0.25,-0.25m4.35,-2.1l-3,0.75q1.65,-2 1.45,-4.1"/>
  </g>
  <g transform="matrix(1,0,0,1,19.8,15.9) " id="shape1">
   <path id="svg_86" stroke-opacity="0" stroke-linejoin="round" stroke-linecap="round" stroke="#ff00ff" fill="none" d="m200.7,-15.4l0,220l-219.95,0l-0.05,0l0,-220l220,0"/>
   <path id="svg_87" stroke-opacity="0" stroke-linejoin="round" stroke-linecap="round" stroke="#ff00ff" fill="none" d="m200.7,-15.4l-110,110l110,110m-220,-220l110,110l-109.95,110"/>
   <path id="svg_88" stroke-opacity="0" stroke-linejoin="round" stroke-linecap="round" stroke="#ff00ff" fill="none" d="m145.7,132.25l-109.95,0"/>
   <path id="svg_89" stroke-opacity="0" stroke-linejoin="round" stroke-linecap="round" stroke="#ff00ff" fill="none" d="m149,23l0,136.2l-118.15,0l0,-136.2l118.15,0z"/>
  </g>
  <g id="sprite0">
   <use id="svg_90" xlink:href="#shape2" width="100" height="40"/>
  </g>
  <g id="shape2">
   <path id="svg_91" fill-rule="evenodd" fill-opacity="0" fill="#ff00ff" d="m100,40l-100,0l0,-40l100,0l0,40"/>
  </g>
 </defs>
 <g>
  <title>background</title>
  <rect fill="none" id="canvas_background" height="145" width="86" y="-1" x="-1"/>
 </g>
 <g>
  <title>Layer 1</title>
  <g id="svg_92">
   <use x="-87.881421" y="-39.809386" id="svg_93" xlink:href="#shape0" width="147.4" transform="matrix(0.5548,0,0,0.5548,49.3515,22.7711) " height="254.45"/>
   <use x="-48.756612" y="-22.086247" id="svg_94" xlink:href="#shape1" width="221" transform="matrix(1,0,0,1,-19.8,-15.9) " height="221"/>
   <use x="0" y="-0.30635" xlink:href="#sprite0" width="100" transform="matrix(1.3600999999999996,0,0,1.3600999999999996,-30.65661215186119,34.430419540405275) " id="_mcMask" height="40"/>
  </g>
 </g>
</svg>