<svg viewBox="0 0 209.65 291.67" xmlns="http://www.w3.org/2000/svg" xmlns:xlink="http://www.w3.org/1999/xlink"><use transform="translate(.02 .025)" width="209.6" height="291.65" xlink:href="#a"/><defs><g id="a"><path d="m311.6 139.2 28 10 9.6 6 43.2-10.4-31.6 20-11.6 11.2h-8.6l-9.55-9.7-1.45-1.5-14.7-20.95-3.3-4.65m-56.35-97.8q7.1 5.5 12.2 13.55 2.05 3.15 4.55 5.85l.6.2q5.05 3.75 9.1 7.5l.3.1q.8-6.4 1.2-14.2l-1-2.8q-7.95-8.05-12.4-18.2 7.75 5.95 14.6 12.6l.4-7.4-5.6-6.6 3 .8 2.2-.2q2.1-13.75 3.4-28 1.35 15.6 1.25 31.2l-.25 1.6 4-2.6q-8.05 9.15-5 20.6 11.5-5.65 14.2-19.2-.9 14.1-11.35 23.5-2.35 2.05-3.85 4.7l.4 5q12.65-3.7 21.4-13.6-3.05 10.85-14.75 15.1-1.95.7-3.25 2.5-2.5 3.4-3.2 7.6l-6.6-2.6h-.45l1.45-6.4q-10.05-4.45-17-14.4-2.45-3.45-4.45-7.15l-1.75-3.85q-2-1.45-2.45-3.3-.3-1.1-.95-1.85l.05-.05m22.05-14.1.4.6q.35.4.3.9l-.15.6-.55.9q-1.85 1.2-3.1-.6-.35-.75-.1-1.5.15-.55.6-.9l1.3-.45v-.05l.8.25.5.25m-25 61.3q.55.2 1.1.6.45.3 1 .4 2.25 11.75 7.6 21.6.4-9.6 1.8-19.4v-.2q.55.1 1.1.75l.2.65.1.2q1.05-2.35 2.85-4.3.6-.7.75-.5l-.6 1.2q-1.2 7.95-1.5 15.8l.1 1 4-1.8q-1.25.7-1.65 2l-.15.4q3.95-.25 7.4-2.4l.4-.2q-1.75 3.45-4.6 6.25-2.2 2.15-3.4 4.55.8.7 2.4.4h.15q9.7-7.95 21.6-12.8 3.05-1.3 6.25-1.6-10.75 3.95-19.25 13.9l-11.75 14-.05 1.5-.35 1.8q-2.45.9-4.8 1.05l-5.65-7.55q-11.2 3.65-18.55 12.5l-.4.4-13.2 7.6-2.4.8q5.5-6.3 13.8-12.55 1.4-1.05 2.6-2.65-12.6-5.45-23.4 4.25-1.55 1.35-3.4 1.75 1.5-8.75 14.2-11.5l14.6-.5 4.8 2q-9.4-7.5-23.6-6l-2.5.35q12.85-5.2 26.6 1.85 2 1.1 3.9 1.8-8.5-14-26.65-8.7l-2.55.3q7.05-11.55 21.7-4.2 3.2 1.6 6.7 2.2.5-.9.45-2l-.25-1.55-.6-2.05q-7.95-4.6-17.95-2.9-2.65.4-5.65.1 12.55-4.7 24.45.7l.1.05v-.05L248 97.2l4.3-8.6m5.05 37.3-4.95-6.7-2.25-11.25 2.25 11.25 4.95 6.7m13.05 66.9 4-8 5.9-13.8v26.6l4.5 17-3 3.8v15.8l-3.8-14.8v-15.6l-.7-6.1-.5-.5-6.4-4.4m18.4-3.2.8.25.5.25q4.1 5.3 5.8 11.2.2.8-.6 1.3-1.2.5-2.2-.3-.45-.35-.6-.9l-.1-.9q-3.85-3.8-5.5-8.75-.15-.4 0-.85l.15-.25.55-.65.3-.15.9-.25m13.2 4.3.35-.55.55-.65.5-.15.6-.15q6.3 4.25 11.05 10.45l.15.25-.35 1.2q-.4.6-1.05.8-6.35-3.65-11.6-9.7l-.15-.6-.05-.9m9.6-5.05v-.05q3.45 1.5 5.45 4.7l.15.3-.35 1.15-.75.85q-3.75-.65-6.4-4.2l-.1-.6.1-.9.15-.25.55-.65.3-.15.9-.2m-44 63.4.5.25.4.6q.35.4.3.9l-.15.6-.55.9q-1.85 1.2-3.1-.6-.35-.75-.1-1.5.15-.55.6-.9l1.3-.45V252l.8.25M264 260l.8.25.5.25.4.6q.35.4.3.9l-.15.6-.55.9q-1.85 1.2-3.1-.6-.35-.75-.1-1.5.15-.55.6-.9l1.3-.45V260" fill="#9cb651" fill-rule="evenodd" transform="translate(-183.4 1.8)"/><path d="m315.4 176 5.4 12v38.8l4 4.8v18l-16 22.8-17.6 14.8h-20.4L254 276l-8.8-14.4 5.6-6-.2-27.4 4-17.2 15.8-18.2 6.4 4.4.5.5.7 6.1v15.6l3.8 14.8v-15.8l3-3.8-4.5-17V171l-5.9 13.8v-31.2l-3.6-7.2h6.8l4 13.2-1.3 8.35V171l13.9-4.6 21.2 9.6m-.5-32.15 14.7 20.95 1.45 1.5-38.45-19.9 22.3-2.55m-3.3 45-.9.2-.3.15-.55.65-.15.25-.1.9.1.6q2.65 3.55 6.4 4.2l.75-.85.35-1.15-.15-.3q-2-3.2-5.45-4.7v.05m-9.6 5.05.05.9.15.6q5.25 6.05 11.6 9.7.65-.2 1.05-.8l.35-1.2-.15-.25q-4.75-6.2-11.05-10.45l-.6.15-.5.15-.55.65-.35.55m-13.2-4.3-.9.25-.3.15-.55.65-.15.25q-.15.45 0 .85 1.65 4.95 5.5 8.75l.1.9q.15.55.6.9 1 .8 2.2.3.8-.5.6-1.3-1.7-5.9-5.8-11.2l-.5-.25-.8-.25M264 260v.05l-1.3.45q-.45.35-.6.9-.25.75.1 1.5 1.25 1.8 3.1.6l.55-.9.15-.6q.05-.5-.3-.9l-.4-.6-.5-.25-.8-.25m3.6-7.75-.8-.25v.05l-1.3.45q-.45.35-.6.9-.25.75.1 1.5 1.25 1.8 3.1.6l.55-.9.15-.6q.05-.5-.3-.9l-.4-.6-.5-.25" fill="#3e712b" fill-rule="evenodd" transform="translate(-183.4 1.8)"/><path d="m302.4 86.8 13.6 8.8-5.35 9.7L299.2 126l-21.6 20.4H264v-11.6l-1-1.35q2.35-.15 4.8-1.05l.35-1.8.05-1.5 11.75-14q8.5-9.95 19.25-13.9-3.2.3-6.25 1.6-11.9 4.85-21.6 12.8h-.15q-1.6.3-2.4-.4 1.2-2.4 3.4-4.55 2.85-2.8 4.6-6.25l-.4.2q-3.45 2.15-7.4 2.4l.15-.4q.4-1.3 1.65-2l-4 1.8-.1-1q.3-7.85 1.5-15.8l.6-1.2q-.15-.2-.75.5-1.8 1.95-2.85 4.3l-.1-.2-.2-.65q-.55-.65-1.1-.75v.2q-1.4 9.8-1.8 19.4-5.35-9.85-7.6-21.6-.55-.1-1-.4-.55-.4-1.1-.6l2.1-4.2 10.4-6h16l6.6 2.6 15 5.8m-47.2-45.35v-.1l.05.05-.05.05" fill="#749d57" fill-rule="evenodd" transform="translate(-183.4 1.8)"/><path d="M255.2 41.35V39.6l4.4-25.2L276-1.2h14l14 10.4 9.6 20.4 4 22.8v11.2l-11.2 17.6-4 5.6-15-5.8q.7-4.2 3.2-7.6 1.3-1.8 3.25-2.5 11.7-4.25 14.75-15.1-8.75 9.9-21.4 13.6l-.4-5q1.5-2.65 3.85-4.7Q301.1 50.3 302 36.2q-2.7 13.55-14.2 19.2-3.05-11.45 5-20.6l-4 2.6.25-1.6q.1-15.6-1.25-31.2-1.3 14.25-3.4 28l-2.2.2-3-.8 5.6 6.6-.4 7.4q-6.85-6.65-14.6-12.6 4.45 10.15 12.4 18.2l1 2.8q-.4 7.8-1.2 14.2l-.3-.1q-4.05-3.75-9.1-7.5l-.6-.2q-2.5-2.7-4.55-5.85-5.1-8.05-12.2-13.55l-.05-.05m9.6 37.05v-6l-9.6-17.6V41.45q.65.75.95 1.85.45 1.85 2.45 3.3l1.75 3.85q2 3.7 4.45 7.15 6.95 9.95 17 14.4l-1.45 6.4H264.8m12.5-51.1-.5-.25-.8-.25v.05l-1.3.45q-.45.35-.6.9-.25.75.1 1.5 1.25 1.8 3.1.6l.55-.9.15-.6q.05-.5-.3-.9l-.4-.6" fill="#638549" fill-rule="evenodd" transform="translate(-183.4 1.8)"/><path d="M250.05 107.9h.1v.05l-.1-.05" fill="#3e712b" fill-opacity=".502" fill-rule="evenodd" transform="translate(-183.4 1.8)"/><path d="M229.75 199.1 220 188.4l15.6-14 10.4-18-12.8 7.2h-20.8v-44l10-21.6 14.25-18.3 2.55-3.3 5.6-12.8v15.6l9.6 5.2-6.4 12.8 2.15 10.7h-.1q-11.9-5.4-24.45-.7 3 .3 5.65-.1 10-1.7 17.95 2.9l.6 2.05.25 1.55q.05 1.1-.45 2-3.5-.6-6.7-2.2-14.65-7.35-21.7 4.2l2.55-.3q18.15-5.3 26.65 8.7-1.9-.7-3.9-1.8-13.75-7.05-26.6-1.85l2.5-.35q14.2-1.5 23.6 6l-4.8-2-14.6.5q-12.7 2.75-14.2 11.5 1.85-.4 3.4-1.75 10.8-9.7 23.4-4.25-1.2 1.6-2.6 2.65-8.3 6.25-13.8 12.55l2.4-.8 13.2-7.6.4-.4q7.35-8.85 18.55-12.5l5.65 7.55 1 1.35v11.6h6.8l3.6 7.2-4.4 15.6-11.6 18.8-15.6 14h-10.4l-2.65-2.9" fill="#305e22" fill-rule="evenodd" transform="translate(-183.4 1.8)"/><path d="M310.65 105.3v9.9l-4.25 14-11.6 10h16.8l3.3 4.65-22.3 2.55 38.45 19.9 9.55 9.7H332l-22-12 5.4 12-21.2-9.6-13.9 4.6v-3.05l1.3-8.35-4-13.2 21.6-20.4 11.45-20.7M250.8 255.6h-8l-6.4-12v-22l-3.65-11.25-1.15-3.55 6-4.8h5.2l15.6-14 11.6-18.8 4.4-15.6v31.2l-4 8-15.8 18.2-4 17.2.2 27.4m-38.4-120.8-13.2-12L190 106l-6-22.4 15.2-11.2H216l20.65 7.3L222.4 98l-10 21.6v15.2" fill="#1e4811" fill-rule="evenodd" transform="translate(-183.4 1.8)"/><path d="m236.4 230.4-2.9 2.15-1.3.6-4 2.35q-2.4 1.55-5.15 2.55-3.55 1.35-4.95 4.2l-.75 1.55-.2.35q-2.7 5.95-5 13.05l-.4 1.1-1.1 4.15-.95 4.25-.25.95-2.4 9.1-.4 1.7-1.9 11.4-1.45-.85q-3.5-2-7.25-3.1 1.75-10.25 4.8-20.3l.1-.2q3.05.35 6.25 1.45l.85-4.4 4.3-22-1.15-.45h-.8l-3.65.55q1.6-4.4 3.65-8.55 1.2-2.4 2.65-4.65l11.7-17.8q3.3-5 5-10.45l2.65 2.9h5.2l-6 4.8 1.15 3.55-7.95 11.25q-1.2 1.75-3 3.4-.6.6-.6 1.4l.15 1.65q.25 1.15.8 2l1 .15q3.6-1 6.6-2.75l3.7-2.1 1.9-1.05 1.05-.65v6.75" fill="#630" fill-rule="evenodd" transform="translate(-183.4 1.8)"/><path d="m200.95 265.4.95-4.65q1.35-10.75 4.85-20.2l3.65-.55h.8l1.15.45-4.3 22-.85 4.4q-3.2-1.1-6.25-1.45" fill="#827702" fill-rule="evenodd" transform="translate(-183.4 1.8)"/><path d="M71.8 43.15V41.4l4.4-25.2L92.6.6h14l14 10.4 9.6 20.4 4 22.8v11.2L123 83l-4 5.6 13.6 8.8-5.35 9.7v9.9L123 131l-11.6 10h16.8l28 10 9.6 6 43.2-10.4-31.6 20-11.6 11.2h-17.2l-22-12 10.8 24v38.8l4 4.8v18l-16 22.8-17.6 14.8H87.4l-16.8-11.2-8.8-14.4 5.6-6h-8l-6.4-12v-13.2m-6.65-31.3-9.75-10.7 15.6-14 10.4-18-12.8 7.2H29v-28.8l-13.2-12-9.2-16.8-6-22.4 15.2-11.2h16.8l20.65 7.3 2.55-3.3 5.6-12.8V81l9.6 5.2 10.4-6v-6l-9.6-17.6V43.15M104 82.8l15 5.8m-39.4 46.65 1 1.35v11.6h13.6l21.6-20.4 11.45-20.7m-60.5 2.6L64.6 99 71 86.2m25.95-6h.45l6.6 2.6m-22.6-2.6h15.55m-43.7 1.3L39 99.8l-10 21.6v15.2m37.75-26.9v.05L69 121l4.95 6.7 5.65 7.55M54.2 203.8h5.2l15.6-14L86.6 171l4.4-15.6m-41.65 56.75-1.15-3.55 6-4.8H49l-2.65-2.9M53 225.45v-2.05l-3.65-11.25m3.65 13.3v6.75" fill="none" stroke="#000" stroke-linecap="round" stroke-linejoin="round" stroke-opacity=".4" stroke-width="1.25"/></g></defs></svg>