<svg viewBox="0 0 48.865 59.55" xmlns="http://www.w3.org/2000/svg" xmlns:xlink="http://www.w3.org/1999/xlink"><use transform="translate(.03 .02)" width="48.8" height="59.5" xlink:href="#a"/><defs><g id="a"><path d="M262.1 173.65q1.35.2 2.75 1.05l-.75-1.55V173l2.4-.5 3.3 2.25q.5-.6.65-1.4l.05-1.75 2.8-.65 3.15 2.3 1.55-.2.75-1.6q3.8 1.2 6.75 2.8l-.5.65-.25-.05q-.05 1.1.3 2.05l-2.25-2.65q-.35-.6-.7-.2l-.35.2q1.2 3.25 4.5 4.6l.1.05 1.3.95q1.05.65 2.25.95l1.35.95q2.3 2.85.6 3.45-5.05-.15-10.5-3.05L278.5 181q-2.05-.95-4.2-1.75-3.05-1.65-6.35-1.9-2.25-.25-4 .7h-.75l-.05-.15-.25-.6q-.05-.05-.1.05l-.65.75q-2.3.2-4.7.75l-.4.05q-2.3.5-4.7 1.35l2.6-1.95 3.2-.05.5-.75q-.1-.8-.85-1.2 2.2-1.55 4.3-2.65m3.2-1.6-.05.15q-.8.1-1.15.8l-1.5.35 2.7-1.3" fill="#b9b9b9" fill-rule="evenodd" transform="translate(-250.55 -170.2)"/><path d="m278.75 171.45-.75 1.6-1.55.2-3.15-2.3-2.8.65-.05 1.75q-.15.8-.65 1.4l-3.3-2.25-2.4.5v.15l.75 1.55q-1.4-.85-2.75-1.05l.5-.3 1.5-.35q.35-.7 1.15-.8l.05-.15q2.95-1.35 5.5-1.7l1.45-.15 3.15.25.1.05 3.25.95m-20.95 4.85q.75.4.85 1.2l-.5.75-3.2.05 2.85-2" fill="#e7e7e7" fill-rule="evenodd" transform="translate(-250.55 -170.2)"/><path d="M263.95 178.05q1.75-.95 4-.7 3.3.25 6.35 1.9 2.15.8 4.2 1.75l2.85 1.15q5.45 2.9 10.5 3.05 1.7-.6-.6-3.45l-1.35-.95 2.25.25q-4.05-1.05-7.1-4.15-.35-.95-.3-2.05l.25.05-.2.35 3.25 2.55q1.25.8 2.6 1.45l.4-1 3.45 3.7 2.3 3 .1.2q4.55 6.6.7 25.75-.6-10.85-5.3-17.4l-2.25-2.5q-2.45-2.65-4.65-4.4l-5.75-3.8-1.4-.75-2.1-1.05-1.25-.55q-1.5-.65-2.95-1.2l-.3-.1-1.15-.45-6.55-.65" fill="#979797" fill-rule="evenodd" transform="translate(-250.55 -170.2)"/><path d="m279.65 182.8 5.75 3.8-29.2 43.1-3.9-1.1-.7-.75q4.9-6.45 10.25-12.65 5.25-6.2 9.85-12.7 4.55-6.55 6.5-14.2l-1.25-1.45 2.7-4.05m11.4-4.55-.4 1q-1.35-.65-2.6-1.45l3.65-4.35 1.8 1.2-2.45 3.6" fill="#5e3002" fill-rule="evenodd" transform="translate(-250.55 -170.2)"/><path d="m285 174.9.5-.65 2.3-3.45 3.9 2.65-3.65 4.35-3.25-2.55.2-.35m-8.05 11.95 1.25 1.45q-1.95 7.65-6.5 14.2-4.6 6.5-9.85 12.7-5.35 6.2-10.25 12.65-.8-.85-1.05-2l26.4-39" fill="#a75403" fill-rule="evenodd" transform="translate(-250.55 -170.2)"/><path d="M289.9 180.8q-1.2-.3-2.25-.95l-1.3-.95-.1-.05q-3.3-1.35-4.5-4.6l.35-.2q.35-.4.7.2l2.25 2.65q3.05 3.1 7.1 4.15l-2.25-.25" fill="#cbcbcb" fill-rule="evenodd" transform="translate(-250.55 -170.2)"/><path d="M11.55 3.45q-2.1 1.1-4.3 2.65m-2.85 2-2.6 1.95Q4.2 9.2 6.5 8.7l.4-.05q2.4-.55 4.7-.75m1.05-.05h.75l6.55.65 1.15.45M34.45 4.7l.5-.65Q32 2.45 28.2 1.25L24.95.3l-.1-.05L21.7 0l-1.45.15q-2.55.35-5.5 1.7l-2.7 1.3-.5.3M4.4 8.1l2.85-2M21.4 9.05q1.45.55 2.95 1.2l1.25.55 2.1 1.05 1.4.75 5.75 3.8q2.2 1.75 4.65 4.4l2.25 2.5q4.7 6.55 5.3 17.4 3.85-19.15-.7-25.75l-.1-.2-2.3-3-3.45-3.7-.4 1q-1.35-.65-2.6-1.45l-3.25-2.55.2-.35M1.05 57.65l.7.75 3.9 1.1 29.2-43.1m.1-12.35L37.25.6l3.9 2.65 1.8 1.2-2.45 3.6M29.1 12.6l-2.7 4.05-26.4 39q.25 1.15 1.05 2" fill="none" stroke="#000" stroke-linecap="round" stroke-linejoin="round" stroke-width=".05"/><path d="m11.6 7.9.65-.75q.05-.1.1-.05l.25.6.05.15" fill="none" stroke="#a75403" stroke-linecap="round" stroke-linejoin="round" stroke-width=".05"/></g></defs></svg>