<svg viewBox="0 0 91.4 94.05" xmlns="http://www.w3.org/2000/svg" xmlns:xlink="http://www.w3.org/1999/xlink"><use width="91.4" height="94.05" xlink:href="#a"/><defs><g id="a"><path d="m231.5 200.8 1.65-18.55 9.4-19.1-2.45 20.45q.75 1.15 3.6 3.4l5-5.7 3.9-5.35q1.55-2.35 3.1-4.2l2.15-2.95.35-.3 7.65-3.35-1.7 9.5 2.25 2.1 9.5.8 22.15-16.8 18.3-2.5-16.9 15.95-2.2 10.25 7.8 6.8 15.15 2.6.45.4-5.15 7.45-2.85 16.35 1.05 3.6-3.3 10.6-12.75 11.8-18.4 3.45-23.3-2.5-5.75-3.25-9.8-4.2-10.55-16.95-.6-18.1 6.15 9.7.35-1.55q-.5-4.05-2.65-7.75l-.1-.25-1.5-1.85m55.5-44.45-6.15 9.7-5.7 2.3-4.35-3.05-4.25 1.4 1.15-5.6 2.15-4.65 3-1.7q1.15-.75 2.5-1.3l11.65 2.9" fill="#fedbc0" fill-opacity=".451" fill-rule="evenodd" transform="translate(-229.25 -153.45)"/><path d="M240.2 170.55h-.15l.2-.45-.05.45.05-.45-.2.45.25-.65v.2l-.5 4 .4-3.55m.05-.45.05-.2-.05.2m38.25 28.15.05-.05v.05h-.05m-26.45 16.05-.45 1.4-.6-.25 1.05-1.15" fill="#9f0000" fill-rule="evenodd" transform="translate(-229.25 -153.45)"/><path d="m240.3 169.9-.25.65-2.9 8.1 1.1-3.55.15-.5 2.05-5.6-.15.9m3.35 19.45h.05v.05-.05.05l-.05-.05m6.5-6.1.05-.05.35.6-.35-.05-.05-.5m11.75-14.4 1.8-1.3.25-.2-.3.4.05-.2-.1.1-1.7 1.2m30.15-1.6h.05-.05m2.45-2 1.1-.95h.05l-1.15.95m5.85-2.2q4.35-1.8 9.55-2.75l.5-.05.7-.15-.2.15-.9.25-.85.25v-.05l.85-.2-.85.2-8.8 2.35m-3.2 10-.45.7-.15.25.05-.45.1.2-.1-.2.55-.5M317 195h.05l-.2.2.15-.2m-21.45 46.35-2.4.75-.05-.25 2.45-.5m-37.95.95h-.5l-.4-.1h.25l.65.1m-25.85-33.05v-.3l.25.3 2.05 3.45.05.3-2.35-3.75m4.8 7.65h.1l-.05.05-.05-.05m-.65-13.3v-.05l-.1-.3v-.05l.05.05.3.4.05.05-.3-.1m-1.6-2.3h-.05v-.1l.05.1m46.25-43.6-2.7-.5 2.2.15 2.3.6.25.05v.05l-.3-.05-1.75-.3m-41.45 42.7.05.1-.1-.05.05-.05m15.4-9.75v-.2l.1.1-.1.1m29.6 10.4-1.1.75-2.1 1.15-.8.45-.05.05-1.65 1-.2-.2 1.8-.9.05-.05q2-1.1 4.05-2.25m-16.3 10.9-.65.5-.65.55.6-.55h.05-.05l.7-.5m-5.45 4.95v-.05l.05.05h-.05m-.05 0-.05-.05h.05v.05m40.3-1.3.85.6.15.4-.1-.1-.05-.3.05.3-.9-.9m-55.1-11.3v.05l-.05-.05h.05m-3 3.7 1.9 1.6 1.35 1.8-.8-.95-2.45-2.45m-1.9 6.85.15-.35.1-.15.5.95-.5-.65-.25.2m8.9 1.25-.6-.6-.3.35.2-.5.1.15.1-.05-.1.05-.1-.15.2.1.6.25-.1.4m1.4-4.4.05-.15.05.1-.1.05m-10.15 2.8.1.15-.1-.15m-2.2-9.45.65.2.05.1-.05-.1.85.7-.8-.6-.7-.3m16.55 37.25-.15-.1.15.1" fill="red" fill-rule="evenodd" transform="translate(-229.25 -153.45)"/><path d="m247.25 204.25.25.05h-.05l-.2-.05" fill="#f55" fill-rule="evenodd" transform="translate(-229.25 -153.45)"/><path d="m238.6 184.4-.05.15-.05-.05.1-.1m69.45 43.85-.1.4v.05l.1-.45m-44.4-60.5-.05-.1.1-.1-.05.2m53.2 27.45-.05-.2h.2l-.15.2m-.4-.4.35.2-.25.1-.1-.3m-73.1 20.5.1.05v.05l-.1-.1m8.4 14.75h.05l.05.9-.1-.9m10.6-13.2h-.05l.1.05-.05-.05" fill="#c00" fill-rule="evenodd" transform="translate(-229.25 -153.45)"/><path d="m291.8 205.3.2.05v.1l-.2-.15m-44.05 6.1-.5.15-.3-1.1.8.95" fill="#600" fill-rule="evenodd" transform="translate(-229.25 -153.45)"/><path d="m288.7 198.8.05.25-.1-.2.05-.05-.05.05-.05-.05.05.05-3.9 1.85-.65.35.1-.05.55-.3 1-.55 2.85-1.35.05-.05.05.05m3.3 6.65v.3l-.2-.45.2.15M266.5 213l-.85.8v.15l-.1-.15.95-.8m-4.15 3.85-.15.15.1-.1v-.05h.05m3.3-3.05h-.1.1m-15 1.35-1.4-1.8.05-.1 1.3 1.8.05.1m-8.05-.3.15.45-.2-.4v-.05h.05m.85.55h-.05l-.05-.1.1.1m24.45 4.7-.7.05.7-.05m-29.45-15.7v-.05l.2.05v.05l-.2-.05.2.05v-.05l1.9.65-1.9-.6-.1.5-.1-.55" fill="#ff0" fill-rule="evenodd" transform="translate(-229.25 -153.45)"/><path d="m234.05 212.7 2.5 4.2-2.45-3.9-.05-.3m21.4 11.6-.2-.65h.1l.1.65" fill="#df0000" fill-rule="evenodd" transform="translate(-229.25 -153.45)"/><path d="m252.5 239.75-.9-.55.95.45-.05.1m21.45-9.6.15.1h-.15v-.1m32.85.5-.35.65-.2-.4.55-.25" fill="#b30000" fill-rule="evenodd" transform="translate(-229.25 -153.45)"/><path d="M295.2 185.95v.2l-.05-.2h.05" fill="#b70000" fill-rule="evenodd" transform="translate(-229.25 -153.45)"/><path d="m262.4 216.9.2.3-.25-.3h.05" fill="#efdf21" fill-rule="evenodd" transform="translate(-229.25 -153.45)"/><path d="m277.9 179.2 14.15-11.95h.05l.4.15 2.65.9-2.65-.9.1-.6 1.9-1.55 1.15-.95 4.65-1.2.05-.05 8.8-2.35v.05l-12.65 6.9-1.35.65-.55 1.1-3.5 6.8-.05.3-4.05 4-6.2 12.8h-.15l-.95.05-2.15 1.3-1.95 1.15 1.2 3.8-15.85 12.45.6-6.15-2.4 2-1.65 1.4-4.55 2.25-.4-.95v-.25l-.15-7v-.1l2.1-12.6.1-.1 8.1-6.05 1.65 2.05 10.45-5.5 2.25-1.15.6-.2.25-.5m-26.3 60-9.1-3.9-9.35-14.4-.4-1.3-1-10.35 2.35 3.75.65 5.85 10 9.15-.5-4.55-1.7-8.55.2.4-.15-.45.25-.2.5.65.05.1h.05l1.15 1.55 2.4 10.3 4.75 2.8.1.9-.05-.9-.45-7.95-.05-.1q-.3-1.35-.3-3v-.9l.6-2.4.45-1.4.85-2.6.1 4.65h-.05l2.3 7.25.1.05h-.1l.2.65 6.8 16.25-.05.05-9.65-.95-.95-.45m-17.35-38-.05-.35 1.3-17.65 1.65-4.55.6.1-1.05 7.6 4.8 11.2-2.4 2.85-.05.05-4.75.85-.05-.1m46.3-43.5-.6-.1-.7 2.5-3.5 1.95-4.5-.65-3.1 2.4 2.3-4.25 2.15-.95q1.05-.7 2.25-1l1.55-.7 1.2.3h.25l2.7.5m2.3 19.1 1.3-1.4q-2.4 2.4-1.3 1.4M270 199.2l5.6-3.4-5.6 3.4m-18.65 22.9 3.9 1.5-3.9-1.5m-6.45 7.35-.15-1.45.15 1.45m20.25-26.6-3.6 3.05 3.6-3.05" fill="#70ce99" fill-rule="evenodd" transform="translate(-229.25 -153.45)"/><path d="m243.7 189.35 6.15-5.65.1.05h.25l.35.05 12.05.6.1.1-8.1 6.05-.1-.1v.2l-2.1 12.6v.1l-4.9.95-.25-.05-8.1-3.75-.05-.1 2.4-2.85.45-.5h1.9l-.15-7.65v-.05m6.85-5.55 3.95 6.65-3.95-6.65" fill="#8ad7ab" fill-rule="evenodd" transform="translate(-229.25 -153.45)"/><path d="m250.2 183.2 3.65-4.95 2.85-3.9 2.25-3.1.35.05-.45 5.9-.15 1.8v.05l-.05.45 3.95 4.9-12.05-.6-.35-.6m29.9 41.85 2.65 4.05 5.55-2.1 4.6-9.2 3.55 6.4 2.3-5.95.45 1.15.1.25-1.25 6.65-5-5.4-2.05 8.85h-.05l-5.75.6 1.65 2.55-6.95-2.7.2-5.15m-3.3-25.45-1.2-3.8 1.95-1.15 1 3.55-.05.05-1.7 1.35m-15.85 12.45-2.3 1.75.5-5.9 2.4-2-.6 6.15" fill="#a2dfbc" fill-rule="evenodd" transform="translate(-229.25 -153.45)"/><path d="M238.55 184.55v.05l5.1 4.75.05.05.15 7.65h-1.9l-.45.5-4.8-11.2 1.8-1.85.05.05m20.8-13.9 4.25-3 .05.1-1.35 8.15.2.3-3.65 1 .45-5.9.05-.65m43.05 21.8 14.05 2.35.1.3.25-.1.05.2-4.75 6.9-2.6 15.15.95 3.35-2.35 7.55-.05.1-.1.45-1.15 1.95-.55.25-14.1 5.6.95 5.35-14.55 2.7-14.05-1.5.1-1.1 11.85-7.5-.6-4.55 1.35-.25 2.7-4.85.2.25-.2 5.15 6.95 2.7-1.65-2.55 5.75-.6h.05l2.05-8.85 5 5.4 1.25-6.65 1.95 5.15 2.1-3.05-3.05-7.85 2.3 1.7 1 1-.15-.4-1.6-9.95 4.9-7.35-16.8-4.25-11.4 3.6v-.05l-1-3.55 2.15-1.3.95-.05h.15l6.2-12.8 4.05-4-.6 10.45.05.05 4.8 5.05 6.85.35.25.05m-54.9 11.85 4.9-.95.15 7-5.05-6v-.05m69.05-9.2-9.75 3.7-.05.1.05-.1 9.75-3.7m-61.1 22.2 2.05 4.7 16.45 8.15v.1l-.05 3.85-11.65 6.45-6.8-16.25-.1-.65-.1-.05-2.3-7.25h.05l-.1-4.65.1-.05 2.45 5.65m50.1 7 .65-.9-2.6-6.8 2.6 6.8-.65.9m-60.95-7.35 4.85 6.65.75.7 1 .35.55 5.4-4.75-2.8-2.4-10.3m12.9 5.05-2.15 1.65 2.15-1.65m-13.25 1.45.5 4.55-10-9.15-.65-5.85 2.45 3.9.05.05 6.35 5.2q-.65-.2 1.3 1.3m47.9 13.05-15.7-2.05 15.7 2.05m-3.5-43.5-7.85.3 7.85-.3" fill="#3eb771" fill-rule="evenodd" transform="translate(-229.25 -153.45)"/><path d="m306.1 231.65-10.55 9.7-2.45.5-.95-5.35 14.1-5.6.2.4-.35.35" fill="#36a064" fill-rule="evenodd" transform="translate(-229.25 -153.45)"/><path d="M240.05 170.55h.15l-.4 3.55-1.2 10.3-.1.1-1.8 1.85 1.05-7.6-.6-.1 2.9-8.1m70.85-10.3-12.2 11.35-.55-.05.15.4-1.15 1.1-.55.5-.05.45-1.35 11.95h-.05L290.5 187l-.05-.05.6-10.45.05-.3 3.5-6.8.55-1.1 1.35-.65 12.65-6.9.85-.25.9-.25m-46.4 82.8-6.9-.75-.65-.1-4.45-2.45.05-.1 9.65.95.05-.05 11.65-6.45.05-3.85h.15l1.75-.35.6 4.55-11.85 7.5-.1 1.1m3.65-79.25 3.1-2.4 4.5.65 3.5-1.95.7-2.5.6.1 1.75.3-3.35 5.5-4.45 2.1-4.65-1.7-2.6 1.6.65-1.25.25-.45m26.45 5.6 2 4.15-2-4.15m1.9-1.75 1.65 3.9-1.65-3.9m-38.9 74.65 7-.35-7 .35" fill="#297c4d" fill-rule="evenodd" transform="translate(-229.25 -153.45)"/><path d="m235.8 203.2-1.5-1.9 4.75-.85.1.05 8.1 3.75.2.05.05.05 5.05 6v.25l.4.95 4.55-2.25 1.65-1.4-.5 5.9h6.9l.1.15-3.25 2.95-.1-.05h-.05l-2.05 1.2-4.75-.75-2.45-5.65-.05-.1-.05.15-.85 2.6-1.05 1.15-.2-.1-.15-.2-.05-.1-1.3-1.8-1.55-1.85-1.35-1.8-1.9-1.6-1.1-1-1.35-1.05-.85-.7-.65-.2-1.9-.65-.2-.05v.05l-2.25-.7-.05-.05-.3-.4-.05-.05m42.5 1-.1.05-4.05 3-6.25 4.6-.1.1-.7.5-6.15-.4 15.85-12.45 1.5 4.6m-30.8.15-1.1 5.25 1.1-5.25m-8.35-3.85 2.05 4.75-2.05-4.75" fill="#257045" fill-rule="evenodd" transform="translate(-229.25 -153.45)"/><path d="m292 205.35 1.2-4.9 3.75-1-6.05-1.7-2.2 1.05-.05-.05-.05.05-2.85 1.35-1 .55-.55.3-.1.05.65-.35 3.9-1.85.1.2 3.05 6.25.2.45v-.4m-13.8-1.1.2.2 1.65-1 .05-.05.8-.45 2.1-1.15 1.1-.75q-2.05 1.15-4.05 2.25l-1.5-5.05 11.4-3.6 16.8 4.25-4.9 7.35 1.6 9.95-.85-.6-2.3-1.7 3.05 7.85-2.1 3.05-1.95-5.15-.1-.25-.45-1.15-2.3 5.95-3.55-6.4-4.6 9.2-5.55 2.1-2.65-4.05-.2-.25-2.7 4.85-1.35.25-1.75.35-.15-.1L257.5 222l-2.05-4.7 4.75.75 2.05-1.2.05.05-.1.1.15-.15v.05l.25.3-.2-.3 3.25-2.95v-.15l.85-.8.65-.55.65-.5.1-.1 6.25-4.6 4.05-3m-10.3 15.85-.7.05.7-.05" fill="#1e5b38" fill-rule="evenodd" transform="translate(-229.25 -153.45)"/><path d="M236.65 216.9h.15l1.05-3.95-1.95-9.35.3.1 2.25.7.1.55.1-.5 1.9.6.7.3.8.6 1.35 1.05 1.1 1 2.45 2.45.3 1.1.5-.15 1.5 1.95 1.4 1.8.15.2-.2.5.3-.35.6.6-.5 2v.9q0 1.65.3 3l.05.1.45 7.95h-.05l-.55-5.4-1-.35-.75-.7-4.85-6.65-1.15-1.55v-.05l-.1-.05-.5-.95-.1.15-.15.35h-.05v.05l1.7 8.55q-1.95-1.5-1.3-1.3l-6.35-5.2.05-.05" fill="#164329" fill-rule="evenodd" transform="translate(-229.25 -153.45)"/><path d="m288.7 198.8 2.2-1.05 6.05 1.7-3.75 1-1.2 4.9-.2-.05-3.05-6.25-.05-.25m-8.65 4.5-.05.05-1.7.85-1.5-4.6 1.7-1.35h.05l1.5 5.05M266.5 213l-.95.8h-6.9l2.3-1.75 6.15.4-.6.55" fill="#113520" fill-rule="evenodd" transform="translate(-229.25 -153.45)"/><path d="m265.15 178.6 11.45 1.25-1.8 1.2-10.45 5.5-1.65-2.05-.1-.1-3.95-4.9.05-.45V179l.15-1.8 3.65-1 1.05 1.15 1.5 1.25h.1m30.05 7.55 6.8 5.9.15.35-6.85-.35-4.8-5.05 4.65-1.05.05.2m-30.15-7.55-6.35.4 6.35-.4" fill="#349a60" fill-rule="evenodd" transform="translate(-229.25 -153.45)"/><path d="m11.05 16.65.05-.4-.05.2m9.55 13.8.05-.05v-.05l.05.15-.1-.05m.3-.45.05-.05.35.6 12.05.6-3.95-4.9.05-.45v-.05l6.35-.4h.1m-6.2-7.35.4-.55v-.05m17.25 9.2.45.05.85-.7M62.8 13.8h.05l.5-.45m3-2.5h.05m3.05 7.3-.4.35m3.7 20.1.35.3.05.1-.25-.05-6.85-.35-4.8-5.05m25.95 7.8.6.1-.05.1m-59.4 47.3h-.5m-.4-.1h.25l.15.1M3.9 67.45l-.3-.5-.1-.8m-1-10.65-.05-.15.3.45m3.9-5.65v-.05l-.1-.3v-.05l.05.05.3.4.05.05-.3-.1m-1.6-2.3H5v-.1l-.05-.35m25.1-29.55.05-.65m-.5 6.55 3.65-1m-3.2-4.9-.45 5.9-.15 1.8m-15 10.4v-.05.05l.15 7.65h-1.9l-.45.5-2.4 2.85.05.1L18 50.8m-3.55-14.85-.05-.05m3.85 14.95 4.9-.95v-.1l2.1-12.6V37l-3.95-6.65-.35-.05h-.25l-.05-.1m13.7-16-1.7 1.2m1.7-1.2.1-.1m-.05.2.05-.2m-1 16.95 1.65 2.05 10.45-5.5 2.25-1.15.6-.2m-15.05 4.7.1.1-8.1 6.05-.1.1M61.8 23.05l.05-.3 3.5-6.8.55-1.1-2.65-.9-.4-.15m3.05 1.05 1.35-.65L79.9 7.3M67.3 20.55l.05-.45-2-4.15m2 4.15.55-.5m1-1.5.15.4m-.15-.4-1.65-3.9m-5.45 8.85-.6 10.45.05.05m26.35 8.2.15-.2m-.45.1.5-.2m-10.3 4 .05-.1 9.75-3.7M62.75 51.9l1.2-4.9 3.75-1-6.05-1.7-2.2 1.05-.05.05.1.2 3.05 6.25m.2.05v.4l-.2-.45m-7.7-4.25.65-.35m-.65.35q-2.05 1.15-4.05 2.25l-.05.05-1.8.9-4.05 3-6.25 4.6-.1.1m-1.3 1.05-.85.8v.15l-3.25 2.95m-.05 0v-.05h-.05m-.05 0-2.05 1.2-4.75-.75 2.05 4.7L44.7 76.7l.15.1 1.75-.35 1.35-.25 2.7-4.85.2.25 2.65 4.05 5.55-2.1 4.6-9.2 3.55 6.4 2.3-5.95.45 1.15m.1.25L72 71.35l2.1-3.05-3.05-7.85 2.3 1.7.85.6-1.6-9.95 4.9-7.35m-28.2-.65 1.5 5.05m8.55-4.5.05.05-3.9 1.85m18.75 15.8.1.1-.15-.4.05.3-.9-.9m1 1 2.6 6.8-.65.9m1.25 6.35-.55.25-14.1 5.6.95 5.35M48.3 41.2l2.15-1.3.95-.05m-3.1 1.35-1.95 1.15 1.2 3.8m1.75-1.4-1-3.55m1 3.6v-.05m-13 15.6h.1m.85-.8.6-.55-6.15-.4.6-6.15-2.4 2-.5 5.9h6.9M37.9 59h-.05l.7-.5m10.5-7.75-1.5-4.6m-1.2-3.8-5.6 3.4m-22.5 5.15v-.05h-.05l.05.05 5.05 6-.15-7m-4.95.95-.2-.05m-5.2 1.7 1.35 1.05 1.1 1 1.9 1.6 1.1-5.25M17.7 57l-2.45-2.45m-1.15 7.3.1.05m0 .05 1.15 1.55 4.85 6.65.75.7 1 .35.55 5.4.1.9-.05-.9-.45-7.95-.05-.1q-.3-1.35-.3-3v-.9l.5-2-.6-.6-.3.35m.2-.5-.15-.2-1.4-1.8-1.5-1.95-.8-.95m2.35 2.8-1.55-1.85-1.35-1.8M20 59.9l.05-.1 1.3 1.8.05.1m1.9-4.8v.25l.4.95 4.55-2.25 1.65-1.4m-6.15 3.75-.05-.1-.05.15-.85 2.6-.45 1.4-.1.4m1.5-4.45 2.45 5.65m6.8-.45h.05m.05.05h.05M26.1 70.2l-.1-.05-3.9-1.5m4 1.55 2.15-1.65M33 87.1l11.65-6.45.05-3.85v-.1M21.55 61.9l.1.15.1-.05-.2-.1m.2.1.6.25m-9-.85.15.45-.2-.4L15 70l.5 4.55.15 1.45M13.3 61.4v.05m.9.5-.1-.1-.5-.65-.1-.15M7.35 63.5l6.35 5.2q-.65-.2 1.3 1.3m31.6 6.45.6 4.55 15.7 2.05M21.75 62l1.05-1.15m9.5-8.4 3.6-3.05M5 47.75l.05.1L9.8 47l.05-.05m.05.1L9.8 47m2.15 4.8-.65-.2-1.9-.6-.1.5m2.7.4-.05-.1-2.05-4.75m-.7 3.9.2.05v-.05m-.2 0-2.25-.7m5 1.55.85.7M7.3 63.45l.05.05m21 25.35-.65-.1m-4.4-2.55 9.65.95m2.4 1.35-7 .35M47.2 81l-11.85 7.5m-13-2.75.95.45m28.25-46.35 7.85-.3" fill="none" stroke="#000" stroke-linecap="round" stroke-linejoin="round" stroke-opacity=".4" stroke-width=".3"/><path d="m10.95 17.1.05-.45-.2.45m-2.9 8.1 2.9-8.1m-.25 3.55-1.2 10.3-.05.15v.05l5.1 4.75m.05 0 6.15-5.65m.35-.5 3.65-4.95 2.85-3.9 2.25-3.1m.4-.6 2.55-1.8m1.75-1.1-1.35 8.15m.2.3 2.65 2.4 11.45 1.25m1.3-.65L62.8 13.8m.55-.45 1.9-1.55m1.15-.95 4.65-1.2.05-.05m-2.05 8.9-1.15 1.1m-.6.95L65.95 32.5v.2l6.8 5.9m.4.4 14.05 2.35m.4.4-4.75 6.9-2.6 15.15.95 3.35-2.35 7.55-.05.1-.1.45-.55 1.75-1.3 1.2-10.55 9.7m-2.45.5L49.3 91.1l-14.05-1.5-6.9-.75m-.65-.1-4.45-2.45-.9-.55-9.1-3.9-9.35-14.4m-.4-1.3-1-10.35v-.3m5.05 7.95L8.6 59.5l-1.95-9.35m-.1-.4-1.5-1.9m-.1-.45 1.3-17.65L7.9 25.2m3.15-8.75-.05.2m-.05.45-.4 3.55M51.3 4.25l-2.7-.5m-1.45-.3-1.55.7q-1.2.3-2.25 1l-2.15.95-2.3 4.25m-.25.45L38 12.05l2.6-1.6 4.65 1.7 4.45-2.1 3.35-5.5-1.75-.3m2.05.35-.3-.05m-5.9-1.1 1.45.3m32.15 3.3-.85.2-8.8 2.35m10.55-2.8-.9.25m-14.35 3.8-1.15.95m-1.4 76.6 2.45-.5M4.85 59.55l2.45 3.9m-2.45-3.9L2.5 55.8M20.65 30.15l.25-.35m60.75-23-12.2 11.35m-2 2.15-.1-.2" fill="none" stroke="#000" stroke-linecap="round" stroke-linejoin="round" stroke-opacity=".4" stroke-width=".8"/></g></defs></svg>