<svg viewBox="0 0 98.9 67.25" xmlns="http://www.w3.org/2000/svg" xmlns:xlink="http://www.w3.org/1999/xlink"><use width="98.9" height="67.25" xlink:href="#a"/><defs><linearGradient id="b" x1="-819.2" x2="819.2" gradientTransform="matrix(-.0223 .058 -.0369 -.0142 339.55 226.55)" gradientUnits="userSpaceOnUse"><stop stop-color="#4a4f42" offset="0"/><stop stop-color="#b3b3b3" offset="1"/></linearGradient><linearGradient id="c" x1="-819.2" x2="819.2" gradientTransform="matrix(.0682 0 0 .0397 287.55 187.95)" gradientUnits="userSpaceOnUse"><stop stop-color="#757c69" offset="0"/><stop stop-color="#b3b3b3" offset="1"/></linearGradient><linearGradient id="d" x1="-819.2" x2="819.2" gradientTransform="matrix(.0033 0 0 .011 321.1 212.65)" gradientUnits="userSpaceOnUse"><stop stop-color="#757c69" offset="0"/><stop stop-color="#b3b3b3" offset="1"/></linearGradient><linearGradient id="e" x1="-819.2" x2="819.2" gradientTransform="matrix(.0293 0 0 .0108 294.45 213.8)" gradientUnits="userSpaceOnUse"><stop stop-color="#606556" offset="0"/><stop stop-color="#93968b" offset="1"/></linearGradient><linearGradient id="f" x1="-819.2" x2="819.2" gradientTransform="matrix(.0237 0 0 .0255 251.05 201.7)" gradientUnits="userSpaceOnUse"><stop stop-color="#2f2f2f" offset="0"/><stop stop-color="#757c69" offset="1"/></linearGradient><radialGradient id="g" cx="0" cy="0" r="819.2" gradientTransform="translate(284.85 181.3) scale(.0343)" gradientUnits="userSpaceOnUse"><stop stop-color="#c00" offset="0"/><stop stop-color="#5c0101" stop-opacity=".592" offset="1"/></radialGradient><radialGradient id="h" cx="0" cy="0" r="819.2" gradientTransform="translate(257.65 189.85) scale(.0054)" gradientUnits="userSpaceOnUse"><stop stop-color="#c00" offset="0"/><stop stop-color="#5c0101" stop-opacity=".592" offset="1"/></radialGradient><g id="a"><path d="m330.6 176.3-.1 19.85q-6.25 8.45-6.75 22.95l-.15-15.45-.1.05q-1.1-13.7 7.1-27.4" fill="url(#b)" fill-rule="evenodd" transform="translate(-231.7 -155.4)"/><path d="M231.7 180.8q6.85-6.05 9.6-9.55l6.3-6.3q3.6-3.6 4.3-7.15l6.75-1.5 16.5.8h.05l4.85-.2 14.65-1.5.1.05 11.85 4.6 6.2 2.9q3.35 1.75 6.4 3.65 6.55 4.35 11.35 9.7-8.2 13.7-7.1 27.4l-5.15 2.4-3.95-.4h-.05q-21.8-1.95-43.9 1.75l-.3.05.3-.1h-.2l-.25-.1q-20.3-8.5-30.9-18.05-4.6-4.1-7.4-8.45m15.55 3.55-3.1 8.05 3.1-8.05m25.2-17.4 7.6-3.65-4.9-6.2 4.9 6.2 1.05 7.55-1.05-7.55-7.6 3.65m27.05 30.85 14.85 7.9-14.85-7.9" fill="url(#c)" fill-rule="evenodd" transform="translate(-231.7 -155.4)"/><path d="M323.75 219.1q.05-.6.05-.1v.1l-5.35 2.6-.1-15.6 5.15-2.4.1-.05.15 15.45" fill="url(#d)" fill-rule="evenodd" transform="translate(-231.7 -155.4)"/><path d="m318.45 221.7-.25.1q-23.8-3.65-47.75.85v-15.2q22.1-3.7 43.9-1.75h.05l3.95.4.1 15.6m-4.05-9.55v-6.45 6.45" fill="url(#e)" fill-rule="evenodd" transform="translate(-231.7 -155.4)"/><path d="M270.45 222.65q-29.25-12.2-38.55-26.6l-.2-15.25q2.8 4.35 7.4 8.45 10.6 9.55 30.9 18.05l.25.1h.2l-.3.1.3-.05v15.2" fill="url(#f)" fill-rule="evenodd" transform="translate(-231.7 -155.4)"/><path d="m43.45 1.7 4.9 6.2 1.05 7.55M48.35 7.9l-7.6 3.65M12.45 37l3.1-8.05M82.7 50.3v6.45m-.05-6.45L67.8 42.4" fill="none" stroke="#666" stroke-linecap="round" stroke-linejoin="round" stroke-width=".25"/><path d="m274 165.45 7-.3q8.45.1 16.75 1.8 8.2 1.7 11.8 5.65 1.75 1.9 2.6 5.25.85 3.85-2.05 8.65-3.2 5.05-8.5 7.25-9.4 3.75-21.15 3.7-10.2-.05-15.6-2.65l-.25-2.2 7.5.95q3.75.35 9.15.1 8.2-.35 15.3-2.25 4-1.1 6.9-5.25 2.7-4.1 2.1-7.4-.7-3.7-8.15-6-6.5-2-14.8-2.15-8-.25-12.75 1.3-5.05 1.65-3.9 4.8.95 2.55 7.4 5.45 6.8 3.1 12.05 2.9 8.35-.4 9.7-3.4.55-1.5-.55-2.95 5.2 1.45 5.9 4.5 1.5 6.8-13.35 7.15-13.9.3-22.75-5.1-3-1.95-4.95-4.15-1.6-1.8-1.8-2.9-.9-4.5 3.05-7.9 4.35-4 13.35-4.85" fill="url(#g)" fill-rule="evenodd" transform="translate(-231.7 -155.4)"/><path d="M261.45 191.05q-.8 1.35-3.55 1.05-2.5-.3-3.55-1.45l-.55-.9q-.15-.7.35-1.2.95-1.15 3.6-.95 1.75.1 3 1.3 1.2 1.1.7 2.15" fill="url(#h)" fill-rule="evenodd" transform="translate(-231.7 -155.4)"/></g></defs></svg>