<svg width="92" height="98" viewBox="228.95 151.55 92.05 97.8" xmlns="http://www.w3.org/2000/svg" xmlns:xlink="http://www.w3.org/1999/xlink"><defs><g id="a"><path d="m314.6 167.7-10.05-3.45-25.25-8.5-44.6 14v51.2l42 19.9 38.8-22.45-.35-18.25-2.95-4.95 2.85-1.3-.45-26.2m5.45-2.5.5 30.2q-1.65.7-3.2 1.45l3.25 5.75.4 20.9-44.2 25.85-47.85-22.9v-58.8l50.85-16.1 28.75 9.7 11.5 3.95" fill="#fedbc0" fill-opacity=".251"/><path d="m317.9 166.5.5 28.15-3.05 1.4 3.1 5.35.35 19.5q-20.95 12.05-41.95 24.15l-45.45-21.4V168.8l48.3-15.05 27.3 9.1 10.9 3.65m-5.2 2.35-9.5-3.2-24-7.95-42.35 13.05v47.75l39.9 18.6 36.8-20.95-.3-17-2.8-4.65 2.7-1.2-.45-24.45" fill="#fedbc0" fill-opacity=".451"/><path d="M304.6 198.55h.1-.1" fill="#dfd8aa"/><path d="m307.55 197.3.3-.15-.3.15" fill="#cbc072"/><path d="m253.05 179.9 1.3 9.25 21.5 18.05.45 16.55-12.65 10.9v.05l-15.1-7.2-11.75-23.1 4.25-7 12-17.5m59.2 15.3 2.9 4.95-7.6-2.85.3-.15 1.15-.5 3.25-1.45" fill="#ca7900"/><path d="m253.05 179.9 2.15-3.2 20 6.75.65 23.75-21.5-18.05-1.3-9.25m-18.3 27.9 2.05-3.4 11.75 23.1-13.8-6.55V207.8" fill="#e68a00"/><path d="m276.7 240.85-13.05-6.15v-.05l12.65-10.9.4 17.1" fill="#ff9c09"/><path d="m255.2 176.7-2.15 3.2-12 17.5-6.3.3v-27.9l20.45 6.9m49.4 48-1.55.9-26.75-1.85-.45-16.55 19.4-14.95 9.35 6.3v26.15" fill="#ffa41a"/><path d="m234.75 197.7 6.3-.3-4.25 7-2.05 3.4v-10.1" fill="#a60"/><path d="m275.85 207.2-.65-23.75 13.3-5.3 6.75 14.1-19.4 14.95m27.2 18.4-26.35 15.25-.4-17.1 26.75 1.85" fill="#ffb03c"/><path d="m315.15 200.15.3 18.25-10.85 6.3v-26.15h.1l2.85-1.25 7.6 2.85" fill="#ffbd59"/><path d="m314.6 167.75.45 26.2-2.8 1.25-3.25 1.45-1.15.5-.3.15-2.85 1.25h-.1l-9.35-6.3-6.75-14.1 26.1-10.4" fill="#ffc977"/><path d="m259.8 161.9 19.5-6.15 24.55 8.3-14 6.7-23.3 4-6.75-12.85" fill="#ffe8c6"/><path d="m255.2 176.7-20.45-6.9 25.05-7.9 6.75 12.85-11.35 1.95m48.65-12.65.7.2 10.05 3.4v.1l-26.1 10.4 1.35-7.4 14-6.7" fill="#ffdfae"/><path d="m275.2 183.45-20-6.75 11.35-1.95 23.3-4-1.35 7.4-13.3 5.3" fill="#ffd99f"/><path d="m309 196.65 3.25-1.45m-4.7 2.1.3-.15" fill="none" stroke="#000" stroke-opacity=".6" stroke-width=".5"/><path d="M234.75 169.8v27.9m0 10.1v-10.1m0-27.9 44.55-14.05 24.55 8.3.7.2 10.05 3.4v.1l.45 26.2-2.8 1.25 2.9 4.95.3 18.25-12.4 7.2-26.35 15.25-13.05-6.15-15.1-7.2-13.8-6.55V207.8" fill="none" stroke="#000" stroke-opacity=".6" stroke-width=".8"/><path d="m274.4 171.8-.05.5-.05-.45.1-.05"/><path d="m274.3 171.85-1.4-7.5 11.75 2.25-10.25 5.2-.1.05" fill="#35395e"/><path d="m238.75 188.6-.05.1-.6-.2.65.1"/><path d="m238.75 188.6 9.05-8.2.3 12.15-9.4-3.85.05-.1" fill="#35395e"/><path d="m258.3 223.7-.6-.25.65.1-.05.15"/><path d="m258.3 223.7.05-.15 8.8-8.4.65 12.1-9.5-3.55" fill="#35395e"/><path d="m247.45 206.6-.05.15-.6-.25.65.1"/><path d="m247.45 206.6 8.8-8.4.65 12.1-9.5-3.55.05-.15" fill="#35395e"/><path d="m291.55 228.85.05-.1.5.4-.55-.3"/><path d="m291.55 228.85-10.85 5.55 2.85-11.75 8.05 6.1-.05.1" fill="#35395e"/><path d="m313.25 216.5.1-.1.5.35-.6-.25"/><path d="m313.25 216.5-10.8 5.55 2.85-11.8 8.05 6.15-.1.1" fill="#35395e"/><path d="m290.35 190.95.1-.05.45.4-.55-.35"/><path d="m290.35 190.95-11.15 4.9 3.6-11.6 7.65 6.65-.1.05" fill="#35395e"/><path d="m311.95 181 .05-.05.5.4-.55-.35"/><path d="m311.95 181-11.15 4.95 3.5-11.6 7.7 6.6-.05.05M292.05 209.05l3.5-11.6 8.2 7-.55-.35-11.15 4.95" fill="#35395e"/><path d="m303.15 161.45.4-.9.2-.1-.15-.05 2-4.85q-1.05 3.95.05 7.4l1.25 1.5.3-3.6q1.1 3.8.85 6.1l-11.35 2-3.8-2.75 3.1-3.75.15-.05v-.25q-.45-2.05.4-3.4-.3 2.15 1.25 3.25l1.55-.45 1.25-1.6q1.15-3.15.05-6.2 1.65 2.45 2.5 5.7l-.3 1.25.3.75m-8.1 8.45-3.3 2.2-2.35-1.45 2.05-4.05q-.9 2.25 3.6 3.3" fill="#008040"/></g></defs><use xlink:href="#a"/></svg>