<svg width="96" height="72" viewBox="226.75 164.3 96.45 72.3" xmlns="http://www.w3.org/2000/svg" xmlns:xlink="http://www.w3.org/1999/xlink"><defs><g id="a"><path d="m319.8 212.35-10.2 14.7-10.95 1.65 1.85 3.5-25.2 4.4-7.2-13.4-8.4-4.65-5.95-5.1-14.15-.9-4.95-1.95-2.7-2.15 1.4-13.45-6.6-1.8.1-13.85 11.35-4.05 12.4 2.2 5.15-1.45 5.7-2.2 3.8 1.55 6.6-3.55 11-.15.65-4.7 10.1-2.7 9.45 7.05h.2l1.25 3.4 12.65-.7 4.65 6.3 1.4 19.6-3.4 12.4" fill="#fff" fill-opacity=".4"/><path d="m286.35 169.4 8.25-2.55 4.95 2.95-8.2 3-5-3.4" fill="#40d825"/><path d="m299.55 169.8.05 8.35-8.75 1.6.5-6.95 8.2-3" fill="#288817"/><path d="m290.85 179.75-5.2-2.9.7-7.45 5 3.4-.5 6.95" fill="#9feb91"/><path d="m299.55 169.8.05 8.35-8.75 1.6-5.2-2.9.7-7.45 8.25-2.55 4.95 2.95" fill="none" stroke="#000" stroke-opacity=".6" stroke-width=".7"/><path d="m229.5 180.5 9.65-2.5 9.4 1.6-10.75 4.8-8.3-3.9" fill="#40d825"/><path d="m248.55 179.6 1.35 11.75-11.4 2.65-.7-9.6 10.75-4.8" fill="#288817"/><path d="m238.5 194-9.9-3.25.9-10.25 8.3 3.9.7 9.6" fill="#9feb91"/><path d="m248.55 179.6 1.35 11.75-11.4 2.65-9.9-3.25.9-10.25 9.65-2.5 9.4 1.6" fill="none" stroke="#000" stroke-opacity=".6" stroke-width=".7"/><path d="m300.05 176.7-.2-.1h.25l-.05.1" fill="#d5d7dd"/><path d="M300.1 176.6h.2l.9 2.75-1.1-2.75 1.1 2.75-2.8.15 1.65-2.8.05-.1" fill="#757b93"/><path d="m316.55 183.9.1.8-2.95 7.55-.1.3h-.4l-8.8-1.25 8.8 1.25-9.35 13.85-.15.05-8.35 1.65-2.5 14.85-3.9-4.45 2.65-15.8-.1-.1-14.5-.45 25-6.55 2.4-4.3 6.9-12.45 1.1-.05 4.15 5.1m-79.35 8.75 2.5 1.1-.15 14.95-3.95-2 1.6-14.05m16.9 2.55 11.85 5.9-.05.25-3.1 14.3-8.3-4.45-.4-16m41.25 12.9-3.75-5.4 3.75 5.4" fill="#1ab807"/><path d="m311.3 178.85-6.9 12.45-2.4 4.3-25 6.55-7.75-.25-3.35-.55.05-.25-11.85-5.9-14.4-1.45-2.5-1.1.05-.15 29.25.9 26.1-8.7 7.25-8.1.2.1-1.65 2.8 2.8-.15 10.1-.5m-15.5 11.25 8.6 1.2-8.6-1.2" fill="#40d825"/><path d="m299.85 176.6-7.25 8.1-26.1 8.7-29.25-.9 1.95-6.7 22.55-8.55 4.55 2.65 5.9-2.85 27.65-.45m-38.6 5.7 5.05-2.4-5.05 2.4" fill="#93dd7d"/><path d="M313.2 192.55h.5l1.1 17.35-9.1 11.95-2-15.4.15-.05 9.35-13.85m-73.5 1.2 14.4 1.45.4 16-14.95-2.5.15-14.95m29.55 8.15 7.75.25 14.5.45.1.1-2.65 15.8-20.35.25.65-16.85" fill="#288817"/><path d="m313.7 192.25 2.95-7.55 1.15 15.15-3 10.05-1.1-17.35v-.3" fill="#1e6411"/><path d="m303.7 206.45 2 15.4-12.85 1.1 2.5-14.85 8.35-1.65" fill="#32a91d"/><path d="m265.9 201.35 3.35.55-.65 16.85-5.8-3.1 3.1-14.3" fill="#1edd09"/><path d="m316.65 184.7-.1-.8m-12.15 7.4 8.8 1.25h.4l.1-.3 2.95-7.55.15-.5-.25-.3m-79.35 8.75 2.5 1.1 14.4 1.45 11.85 5.9-.05.25 3.35.55 7.75.25m27.4-10.85-8.6-1.2m5.4-10.75-2.8.15 1.65-2.8.05-.1m13.6 15.95v-.3m-10 14.2.15-.05 9.35-13.85m-46.9-12.65-5.05 2.4m30.35 20.4-.1-.1-14.5-.45m14.6.55 3.75 5.4 8.35-1.65" fill="none" stroke="#000" stroke-opacity=".6" stroke-width=".5"/><path d="m316.55 183.9-4.15-5.1-1.1.05m-74.05 13.65-.05.15m64-13.3 10.1-.5m-11.45-2.25h.25l1.1 2.75m13.6 30.55 3-10.05-1.15-15.15m-10.95 37.15 9.1-11.95m-77.55-17.4 1.95-6.7 22.55-8.55 4.55 2.65 5.9-2.85 27.65-.45m-45.35 34.6-14.95-2.5-3.95-2 1.6-14.05m17.3 18.55 8.3 4.45m5.8 3.1 20.35-.25m-20.35.25-5.8-3.1m30.05 7.3 12.85-1.1m-12.85 1.1-3.9-4.45" fill="none" stroke="#000" stroke-opacity=".6" stroke-width=".7"/><path d="m279.15 216-8.4-9.25 18.5 1.05 5.05 6.5-15.15 1.7" fill="#40d825"/><path d="m279.15 216 15.15-1.7 1.75 14.5-19.35 3.4 2.45-16.2" fill="#288817"/><path d="m270.75 206.75 8.4 9.25-2.45 16.2-6.75-8.3.8-17.15" fill="#9feb91"/><path d="m294.3 214.3-5.05-6.5-18.5-1.05-.8 17.15 6.75 8.3m17.6-17.9 1.75 14.5-19.35 3.4" fill="none" stroke="#000" stroke-opacity=".6" stroke-width=".7"/><path d="M270.1 182.8h-.05l.05-.05v.05" fill="#097dff"/><path d="M270.1 182.8q4.55-1.95 13.55-2.6h.6l1.3.2 5.25-.5q1.3-.7 4.2-1.7 2.9-1.05.3 1.6-2.95 2.15.45 4.4l-.1.05.35.15.95 3.7q.2 1.15-.05 2.05 1.4 3.25 4.5 3.6 9.45 1.95 5.45 5.3-4.05 3.3-8.05.05-2.8-3.6-9.75-3.1H291l-2.65.35q-2.45.25-5.65.1l-8.1-.6-.45-.05.05-.05q-3.9-.85-9.4 4.35l.1.5-2.6-1.35V199.1q.15-1.1 2.4-3.2 1.7-1.6.3-2l-.35-.1q-6.25-1.8-4.55-4.2l-6.2-1.05q-3.1-.35-3.1-1.3t2.75-1.6l6.15-.65 5.75.25q.1-.1 4.6-2.45h.05" fill="#fff" fill-opacity=".6"/><path d="M301.55 183.6q1.2-.55 2.85-.55t2.8.55q1.2.55 1.2 1.35t-1.75 1.65q-1.8.85-3.25.75t-2.2-.85q-.8-.75-.8-1.55t1.15-1.35" fill="#fff" fill-opacity=".4"/><path d="m262.3 199.25 2.6 1.35q.7 3.65-1.1 3.45-1.4-.15-1.6-.8-.15-.5.1-4" fill="#8b8b8b" fill-opacity=".6"/><path d="m270.75 186.05.45-2.2 1.75 1.45 4.45-1.9-2.5 2.4 4.95-.2-5 1.3.1 2.4-2.55-1.95-4.05 2.15 2.35-2.5-4.65.7 4.7-1.65M284.55 184l.45-2.2 1.75 1.45 4.45-1.9-2.5 2.4 4.95-.2-5 1.3.1 2.4-2.55-1.95-4.05 2.15 2.35-2.5-4.65.7 4.7-1.65M280.8 192.75l.45-2.2L283 192l4.45-1.9-2.5 2.4 4.95-.2-5 1.3.1 2.4-2.55-1.95-4.05 2.15 2.35-2.5-4.65.7 4.7-1.65" fill="#303030" fill-opacity=".6"/></g></defs><use xlink:href="#a"/></svg>