<svg viewBox="0 0 91.4 94.05" xmlns="http://www.w3.org/2000/svg" xmlns:xlink="http://www.w3.org/1999/xlink"><use width="91.4" height="94.05" xlink:href="#a"/><defs><g id="a"><path d="m231.5 200.8 1.65-18.55 9.4-19.1-2.45 20.45q.75 1.15 3.6 3.4l5-5.7 3.9-5.35q1.55-2.35 3.1-4.2l2.15-2.95.35-.3 7.65-3.35-1.7 9.5 2.25 2.1 9.5.8 22.15-16.8 18.3-2.5-16.9 15.95-2.2 10.25 7.8 6.8 15.15 2.6.45.4-5.15 7.45-2.85 16.35 1.05 3.6-3.3 10.6-12.75 11.8-18.4 3.45-23.3-2.5-5.75-3.25-9.8-4.2-10.55-16.95-.6-18.1 6.15 9.7.35-1.55q-.5-4.05-2.65-7.75l-.1-.25-1.5-1.85m55.5-44.45-6.15 9.7-5.7 2.3-4.35-3.05-4.25 1.4 1.15-5.6 2.15-4.65 3-1.7q1.15-.75 2.5-1.3l11.65 2.9" fill="#fedbc0" fill-opacity=".451" fill-rule="evenodd" transform="translate(-229.25 -153.45)"/><path d="m240.3 170.1-.5 4-1.2 10.3-1.9 1.95 1.4-10.45 1.95-5.35.25-.65v.2m70.6-9.85-12.2 11.35-.55-.05-1.65-3.9 12.65-6.9.85-.25.9-.25m-75.1 42.95-1.5-1.9 4.75-.85.1.05 8.1 3.75.2.05.05.05-1.1 5.25 1.1-5.25 5.05 6v.25l.4.95 4.55-2.25 1.65-1.4-.5 5.9h6.9l.1.15-3.25 2.95 3.25-2.95q1.3 2.6-3.25 2.95l-.1-.05h-.05l-2.05 1.2-4.75-.75-2.45-5.65-.05-.1-.05.15-.85 2.6-.45 1.4-.6-.25-.2-.1-.15-.2-.05-.1-1.3-1.8-1.55-1.85-1.35-1.8-1.9-1.6-1.1-1-1.35-1.05-.85-.7-.65-.2-1.9-.65-.2-.05v.05l-2.25-.7-.05-.05-.3-.4-.05-.05m4.45-33.1-.45 4 .45-4-.2.45.2-.45.05-.2-.05.2m11.8 44.2-1.05 1.15 1.05-1.15m-10.85-9.05-2.05-4.75 2.05 4.75m37.35-7h-.05l.05-.05v.05" fill="#9f0000" fill-rule="evenodd" transform="translate(-229.25 -153.45)"/><path d="m237.15 178.65 1.1-3.55.15-.5 2.05-5.6-.15.9-.25.65-1.95 5.35-.95 2.75.95-2.75-1.4 10.45 4.8 11.2-2.4 2.85.05.1-.1-.05-4.75.85h-.05v-.1l-.05-.35 1.3-17.65 1.65-4.55m6.5 10.7h.05v.05-.05.05l-.05-.05m6.5-6.1.05-.05.35.6-.35-.05-.05-.5m11.75-14.4 1.8-1.3.25-.2-.3.4.05-.2-1.8 1.3m16 10.35 14.15-11.95h.05l.4.15.1-.6 1.9-1.55 1.1-.95h.05l4.65-1.2.05-.05q4.35-1.8 9.55-2.75l.5-.05.7-.15-.2.15-.9.25-.85.25-12.65 6.9-1.35.65-2.65-.9 2.65.9-.55 1.1-3.5 6.8-.05.3-4.05 4-6.2 12.8h-.15l-.95.05-2.15 1.3-1.95 1.15 1.2 3.8-15.85 12.45.6-6.15-2.4 2-1.65 1.4-4.55 2.25-.4-.95v-.25l-.15-7v-.1l2.1-12.6v-.2l-3.95-6.65 12.05.6.1.1 1.65 2.05 10.45-5.5 2.25-1.15.6-.2.25-.5m19.25-6.15-.45.7-.15.25.05-.45.55-.5M317 195h.05l-.2.2.15-.2m-21.45 46.35-2.4.75-.05-.25 2.45-.5m-37.95.95h-.5l-.4-.1h.25l.65.1m-6-3.1-9.1-3.9-9.35-14.4-.4-1.3-1-10.35v-.3l.25.3 2.05 3.45.05.3.65 5.85 10 9.15-.5-4.55-1.7-8.55v-.05l.2.45-.15-.45.15-.35.6.8-.6-.8.1-.15.5.95.05.1h.05l1.15 1.55 2.4 10.3 4.75 2.8.1.9-.05-.9-.45-7.95-.05-.1q-.3-1.35-.3-3v-.9l.5-2-.6-.6-.3.35.2-.5.1.15.1-.05-.1.05-.1-.15.2.1.6.25.45-1.4.85-2.6.05-.15.05.1-.1.05.1 4.65h-.05l2.3 7.25.1.05h-.1l.2.65 6.8 16.25-.05.05-9.65-.95-.95-.45m-15.05-22.3h.1l-.05.05-.05-.05m-.65-13.3v-.05l-.1-.3v-.05l.05.05.3.4.05.05-.3-.1m11.55.7h.05v.05l-.05-.05m-8.35-3.9-.05.05.05-.05m-4.85.8.05.1-.05-.1m10.25 6.8 1.9 1.6 1.35 1.8-.8-.95-2.45-2.45m-2.45-2.05-.8-.6-.7-.3.65.2.85.7m20.2 10.9h.05v.05l-.05-.05m-21.05-11.6.05.1-.05-.1m3.7 24.2-.15-1.45.15 1.45m6.6-13.35.1-.4-.1.4m-19.75-6.85 2.35 3.75-2.35-3.75m19.6 12.85 3.9 1.5-3.9-1.5m26.5-64.9 2.2.15 2.3.6.25.05v.05l-.3-.05-1.75-.3-.6-.1-.7 2.5-3.5 1.95-4.5-.65-3.1 2.4 2.3-4.25 2.15-.95q1.05-.7 2.25-1l1.55-.7 1.2.3h.25l2.7.5-2.7-.5m5 19.6 1.3-1.4q-2.4 2.4-1.3 1.4m17.5-13.75 9.65-2.55-9.65 2.55M262.7 184.5l-8.2 6.15 8.2-6.15m15.6 19.7 1.7-.85.05-.05q2-1.1 4.05-2.25l-1.1.75-2.1 1.15-.8.45-.05.05-1.65 1-.2-.2.1-.05m-11.2 8.25.7-.5-.65.5h-.05.05l-.65.55.6-.55m2.9-13.25 5.6-3.4-5.6 3.4m26.7-25.45-.1-.2.1.2m-2.2-8.5 1.15-.95-1.15.95m8.1 50.35.85.6.05.3-.05-.3.15.4-1-1m-40.25 1.3v-.05l.05.05h-.05m2.8-14.05-3.6 3.05 3.6-3.05m-8.05 39.45-.15-.1.15.1" fill="red" fill-rule="evenodd" transform="translate(-229.25 -153.45)"/><path d="m243.7 189.35 6.15-5.65.1.05h.25l.35.05 3.95 6.65v.2l-2.1 12.6v.1l-4.9.95h-.05l-.2-.05-8.1-3.75-.05-.1 2.4-2.85.45-.5h1.9l-.15-7.65v-.05" fill="#f55" fill-rule="evenodd" transform="translate(-229.25 -153.45)"/><path d="m250.2 183.2 3.65-4.95 2.85-3.9 2.25-3.1.35.05-.45 5.9-.15 1.8v.05l-.05.45 3.95 4.9-12.05-.6-.35-.6m8.45 30.6.5-5.9 2.4-2-.6 6.15-2.3 1.75m19.9-15.6-.05.05-1.7 1.35-1.2-3.8 1.95-1.15 1 3.55" fill="#ff8282" fill-rule="evenodd" transform="translate(-229.25 -153.45)"/><path d="m238.6 184.4-.05.15v.05l5.1 4.75.05.05.15 7.65h-1.9l-.45.5-4.8-11.2 1.9-1.95m20.75-13.75 2.55-1.8 1.8-1.3-.05.2-1.35 8.15.2.3-3.65 1 .45-5.9.05-.65m37.2 3.35-1.35 11.95-4.7 1.05-.05-.05.6-10.45-.6 10.45.05.05 4.8 5.05 6.85.35.25.05 14.05 2.35.35.2-10 3.8-.05.1.05-.1 10-3.8h.2l-.15.2-4.75 6.9-2.6 15.15.95 3.35-2.35 7.55-.05.1-.1.4v.05l.1-.45-.1.45-1.15 1.95-14.65 5.85-15.7-2.05 15.7 2.05.95 5.35-14.55 2.7-20.95-2.25 7-.35 11.85-7.5-.6-4.55 1.35-.25 2.7-4.85.2.25-.2 5.15 6.95 2.7-1.65-2.55 5.75-.6h.05l2.05-8.85 5 5.4 1.25-6.65 1.95 5.15 2.1-3.05-3.05-7.85 2.3 1.7 1 1-.15-.4-1.6-9.95 4.9-7.35-16.8-4.25-11.4 3.6v-.05l-1-3.55 2.15-1.3.95-.05h.15l6.2-12.8 4.05-4 .05-.3 3.5-6.8 2 4.15-.05.45m-49.05 30.3 4.9-.95.15 7-5.05-6v-.05m14.8 12.55.1.05-.05-.05h-.05m-18.85-1.45-.1-.1.1.05v.05m8.3 14.65h.05l.05.9-.1-.9m28.8-72.35 1.75.3-3.35 5.5-4.45 2.1-4.65-1.7-2.6 1.6.65-1.25.25-.45 3.1-2.4 4.5.65 3.5-1.95.7-2.5.6.1m8.1 35.3-7.85.3 7.85-.3m16.9 31.3.65-.9-2.6-6.8 2.6 6.8-.65.9" fill="#c00" fill-rule="evenodd" transform="translate(-229.25 -153.45)"/><path d="m247.75 211.4-.5.15-.3-1.1.8.95m17.8 2.4h-6.9l2.3-1.75 6.15.4-.6.55-.95.8m12.95-15.55h.05l1.5 5.05-.05.05-1.7.85-1.5-4.6 1.7-1.35m10.2.55 2.2-1.05 6.05 1.7-3.75 1-1.2 5-.2-.15-3.05-6.25-.05-.25" fill="#600" fill-rule="evenodd" transform="translate(-229.25 -153.45)"/><path d="m249.25 213.35.05-.1 1.3 1.8.05.1-1.4-1.8m-8.7-8.3-1.9-.6-.1.5-.1-.55.2.05v-.05.05l-.2-.05v-.05l.2.05 1.9.65m25.1 8.9-.1-.15.95-.8-.85.8h-.1.1v.15m-22.2 1.45h-.05l-.05-.1.1.1m-.85-.55.15.45-.2-.45h.05m41.5-13.8.1-.05.55-.3-.65.35m.65-.35 1-.55 2.85-1.35.05-.05.05.05.05.25-.1-.2-3.9 1.85m7.25 4.75v.3l-.2-.45.2.15m-3.3-6.65-.05.05-.05-.05.05.05.05-.05m-26.35 18.05-.15.15.1-.1v-.05h.05m5.55 3.25-.7.05.7-.05" fill="#ff0" fill-rule="evenodd" transform="translate(-229.25 -153.45)"/><path d="m234.05 212.7 2.5 4.2.05.05 6.35 5.2q-.65-.2 1.3 1.3l.5 4.55-10-9.15-.65-5.85 2.45 3.9-2.45-3.9-.05-.3m18.85-1 .1-.05 2.45 5.65 2.05 4.7-2.15 1.65 2.15-1.65 16.45 8.15-.05 3.95-11.65 6.45-6.8-16.25-.2-.65h.1l-.1-.05-2.3-7.25h.05l-.1-4.65m-8.3 5.25 4.85 6.65.75.7 1 .35.55 5.4-4.75-2.8-2.4-10.3" fill="#df0000" fill-rule="evenodd" transform="translate(-229.25 -153.45)"/><path d="M236.65 216.9h.15l1.05-3.95-1.95-9.35.3.1 2.25.7.1.55.1-.5 1.9.6.7.3.8.6 1.35 1.05 1.1 1 2.45 2.45.3 1.1.5-.15 1.5 1.95 1.4 1.8.15.2-.2.5.3-.35.6.6-.5 2v.9q0 1.65.3 3l.05.1.45 7.95h-.05l-.55-5.4-1-.35-.75-.7-4.85-6.65-1.15-1.55v-.05l-.1-.05-.5-.95-.1.15-.15.35h-.05v.05l1.7 8.55q-1.95-1.5-1.3-1.3l-6.35-5.2.05-.05m18.8.4 4.75.75 2.05-1.2.05.05-.1.1.15-.15v.05l.25.3-.2-.3q4.55-.35 3.25-2.95v-.15l.85-.8.65-.55.65-.5-.7.5-6.15-.4 15.85-12.45 1.5 4.6-.1.05-4.05 3-6.25 4.6-.1.1.1-.1 6.25-4.6 4.05-3 .2.2 1.65-1 .05-.05.8-.45 2.1-1.15 1.1-.75q-2.05 1.15-4.05 2.25l-1.5-5.05 11.4-3.6 16.8 4.25-4.9 7.35 1.6 9.95-.85-.6-2.3-1.7 3.05 7.85-2.1 3.05-1.95-5.15-.1-.25-.45-1.15-2.3 5.95-3.55-6.4-4.6 9.2-5.55 2.1-2.65-4.05-.2-.25-2.7 4.85-1.35.25-1.75.35-.15-.1L257.5 222l-2.05-4.7m29.3-16.6-.55.3-.1.05.65-.35 3.9-1.85.1.2 3.05 6.25.2.45v-.3l1.2-5 3.75-1-6.05-1.7-2.2 1.05-.05-.05-.05.05-2.85 1.35-1 .55m-16.85 19.4-.7.05.7-.05" fill="#910000" fill-rule="evenodd" transform="translate(-229.25 -153.45)"/><path d="m306.1 231.65-10.55 9.7-2.45.5-.95-5.35 14.65-5.85-.35.65-.35.35m-49.15 10.55-5.35-3 .95.45 9.65.95.05-.05 11.65-6.45.05-3.95.15.1 1.75-.35.6 4.55-11.85 7.5-7 .35-.65-.1" fill="#b30000" fill-rule="evenodd" transform="translate(-229.25 -153.45)"/><path d="m265.15 178.6 11.45 1.25-1.8 1.2-10.45 5.5-1.65-2.05-.1-.1-3.95-4.9.05-.45V179l.15-1.8 3.65-1 1.05 1.15 1.5 1.25-6.35.4 6.35-.4h.1m33.15-6.65-1.15 1.1-.55.5-2-4.15.55-1.1 1.35-.65 1.65 3.9.15.4m-3.1 14v.2l6.8 5.9.15.35-6.85-.35-4.8-5.05 4.7-1.05" fill="#b70000" fill-rule="evenodd" transform="translate(-229.25 -153.45)"/><path d="m280.1 225.05 2.65 4.05 5.55-2.1 4.6-9.2 3.55 6.4 2.3-5.95.45 1.15.1.25-1.25 6.65-5-5.4-2.05 8.85h-.05l-5.75.6 1.65 2.55-6.95-2.7.2-5.15" fill="#ff3e3e" fill-rule="evenodd" transform="translate(-229.25 -153.45)"/><path d="m262.4 216.9.2.3-.25-.3h.05" fill="#efdf21" fill-rule="evenodd" transform="translate(-229.25 -153.45)"/><path d="m11.05 16.45.05-.2-.05.4m9.55 13.6.05-.05v-.05m.25-.35.05-.05M29.7 17.8l.4-.55v-.05m17.25 9.2.45.05.85-.7M62.8 13.8h.05l.5-.45m3-2.5h.05m3.05 7.3-.4.35m3.7 20.1.35.3.05.1-.25-.05-6.85-.35-4.8-5.05m25.95 7.8.6.1-.05.1-.15.2m-59.25 47.1h-.5m-.4-.1h.25l.15.1M3.9 67.45l-.3-.5-.1-.8m-1-10.65-.05-.15.3.45m3.9-5.65v-.05l-.1-.3v-.05l.05.05.3.4.05.05-.3-.1m-1.6-2.3H5v-.1l-.05-.35m16-17.1.35.05-.35-.6m-.25.55h.25m-.3-.1.05.1-.05-.15m-.05.1.1.05m-6.25 5.65v-.05.05l.15 7.65h-1.9l-.45.5-2.4 2.85.05.1L18 50.8l.2.05h.05l4.9-.95v-.1l2.1-12.6V37l-3.95-6.65 12.05.6-3.95-4.9.05-.45v-.05l.15-1.8.45-5.9.05-.65M14.45 35.95l-.05-.05M9.9 47.05 9.8 47l-4.75.85-.05-.1M9.8 47l.05-.05m8.4 3.95v-.05m0 .05-.05-.05m-2.95 3.7 1.9 1.6 1.1-5.25 5.05 6-.15-7M20 59.9l.05-.1-1.55-1.85L20 59.9l1.4 1.8-.05-.1-1.3-1.8M17.7 57l-2.45-2.45-1.1-1-1.35-1.05m-1.5-.9L9.4 51l-.1.5m-.1-.55-2.25-.7m11.55 7.7-1.35-1.8m1.35 1.8-.8-.95m6.05 1.2-.05-.1-.05.15-.85 2.6-.45 1.4-.1.4-.6-.6-.3.35m2.4-4.2 2.45 5.65 4.75.75L33 63.4h.05m.1.05 3.25-2.95m-.1-.15h-6.9l.5-5.9-1.65 1.4-4.55 2.25-.4-.95v-.25m-11.3-5-.05-.1-.65-.2m-1.9-.65V51l-.2-.05m2.75.85.85.7m1.4 9.45-.1-.1-.6-.8m-.15.35.15.45-.2-.45v.05L15 70l.5 4.55.15 1.45M14.2 61.95l1.15 1.55 4.85 6.65.75.7 1 .35.55 5.4.1.9-.05-.9-.45-7.95-.05-.1q-.3-1.35-.3-3v-.9l.5-2m-.7-.75-.15-.2m-7.3.15.1.05m-6.85 1.6-.05-.05m.05.05 6.35 5.2q-.65-.2 1.3 1.3m6.55-8.1.1.15.1-.05-.2-.1m.2.1.6.25m-.6-.25 1.05-1.15m-.45 24.9.95.45 9.65.95M26.1 70.2l-.1-.05-3.9-1.5M9.9 47.05l2.05 4.75m53.4-35.85-3.5 6.8-.05.3-.6 10.45.05.05m2-19.6-.4-.15m.4.15 2.65.9 1.35-.65L79.9 7.3m-45.5 7 .05-.2-1.8 1.3m3.15 9.75h.1m-2.55 5.8.1.1 1.65 2.05 10.45-5.5 2.25-1.15.6-.2M25.25 37.2l8.2-6.15m-.2-8.3-3.65 1m-.15 1.8 6.35-.4M48.3 41.2l2.15-1.3.95-.05m-2.1 4.95v-.05l-1-3.55-1.95 1.15 1.2 3.8 1.5 4.6 1.7-.85.05-.05-1.5-5.05m28.2.65.05-.1 10-3.8M31.7 58.6l6.15.4.7-.5.1-.1 6.25-4.6 4.05-3 .1-.05m5.8-3.15.65-.35m3.95-1.9 2.2-1.05L67.7 46l-3.75 1-1.2 5v.3l-.2-.45-3.05-6.25-.1-.2-3.9 1.85m3.85-1.9.05.05.05-.05m-7.9-5.5 7.85-.3m-13.05 2.8-5.6 3.4M68.9 18.1l.15.4m-1.15 1.1-.55.5-2-4.15.55-1.1m1.4 5.7.05-.45m-.1-5.9 1.65 3.9m18.9 23.35-.25.1M74.2 62.75l-.85-.6.9.9-.05-.3-1.6-9.95 4.9-7.35m-3.25 17.6.1.1-.15-.4M50.85 71.6l2.65 4.05 5.55-2.1 4.6-9.2 3.55 6.4 2.3-5.95.45 1.15m.1.25L72 71.35l2.1-3.05-3.05-7.85 2.3 1.7m1 1 2.6 6.8-.65.9M54.85 47.6q-2.05 1.15-4.05 2.25m-4.2 26.6 1.35-.25 2.7-4.85.2.25M36.4 60.35l.85-.8.6-.55h.05m-1.6 1.35h.1v.15m-3.3 2.95v-.05h-.05m-1.35-4.8.6-6.15-2.4 2m3.2 9h.05M26.1 70.2l2.15-1.65-2.05-4.7m6.1-11.4 3.6-3.05m8.8 27.3.15.1 1.75-.35.6 4.55 15.7 2.05 14.65-5.85m-32.85-.5-.05 3.95L33 87.1m-4.65 1.75-.65-.1M47.2 81l-11.85 7.5-7 .35m34.55-5.8.95 5.35m-35.6-19.85L44.7 76.7" fill="none" stroke="#000" stroke-linecap="round" stroke-linejoin="round" stroke-opacity=".4" stroke-width=".3"/><path d="m10.55 20.65-1.2 10.3-.05.15v.05l5.1 4.75m.05 0 6.15-5.65m.35-.5 3.65-4.95 2.85-3.9 2.25-3.1m.4-.6 2.55-1.8m1.75-1.1-1.35 8.15m.2.3 2.65 2.4 11.45 1.25m1.3-.65L62.8 13.8m.55-.45 1.9-1.55m1.15-.95 4.65-1.2.05-.05m-2.05 8.9-1.15 1.1m-.6.95L65.95 32.5v.2l6.8 5.9m.4.4 14.05 2.35m.4.4-4.75 6.9-2.6 15.15.95 3.35-2.35 7.55-.05.1-.1.45-.55 1.75-1.3 1.2-10.55 9.7m-2.45.5L49.3 91.1l-20.95-2.25m-.65-.1-5.35-3-9.1-3.9-9.35-14.4m-.4-1.3-1-10.35v-.3m5.05 7.95L8.6 59.5l-1.95-9.35m-.1-.4-1.5-1.9m-.1-.45 1.3-17.65L7.9 25.2l.95-2.75 1.95-5.35.2-.45.05-.2m-.5 4.2.45-4m-3.7 46.8-2.45-3.9L2.5 55.8M48.6 3.75l2.7.5 1.75.3.3.05m-14.7 6.2L38 12.05l2.6-1.6 4.65 1.7 4.45-2.1 3.35-5.5m-5.9-1.1 1.45.3m-1.45-.3-1.55.7q-1.2.3-2.25 1l-2.15.95-2.3 4.25m41.85-3.3L71.1 9.6m10.55-2.8-.9.25m-14.35 3.8-1.15.95m-1.4 76.6 2.45-.5M20.65 30.15l.25-.35m60.75-23-12.2 11.35m-2.1 1.95.1.2" fill="none" stroke="#000" stroke-linecap="round" stroke-linejoin="round" stroke-opacity=".4" stroke-width=".8"/></g></defs></svg>