<svg viewBox="0 0 28.95 58.85" xmlns="http://www.w3.org/2000/svg" xmlns:xlink="http://www.w3.org/1999/xlink"><use transform="translate(.03 .03)" width="28.9" height="58.8" xlink:href="#a"/><defs><g id="a"><path d="m31.5-26 .25 5.95-.45 4.9-.65 3.5-1.1 4.5-.3-.05q-.9-.6-1.7-1.15l-.6-.45-.25-.2-1.9-1.6-1.7-1.75.85-2.5q1-2.6 2.7-5l1.2-1.65.05-.15L29-23.2l1.4-1.55L31.5-26m4.15 19.3.15 1.3-.15-.6v-.7" fill="#fff" fill-rule="evenodd" transform="translate(-6.9 26)"/><path d="m23.95 8.45-1.8-.5.95-.15.85.65M13.7-18l.7-.7-.1.65v.05h-.6m8.05-1.35.3-.35q4.6-5.45 9.45-6.3l-1.1 1.25L29-23.2l-1.1 1.55-.05.15-1.2 1.65q-1.7 2.4-2.7 5l-.85 2.5-1.85-2.4-.1-.1-1.2-2.05 1.8-2.45m5.5 17.1v-.05l-.5-1.65V-4l2 .5-1.5 1.25M22.1 7.95h.05-.05" fill="#e1e3f2" fill-rule="evenodd" transform="translate(-6.9 26)"/><path d="m30.65-11.65 1.7 1.7 3.3 3.25v.7h-.05l-.9.35-.25.1-2.25.8-1.9.7h-.05l-1.95-1.1 1.95 1.1-1.5.55-2-.5-.9-.95-6.65-7.55h-.05L14.3-18v-.05l.1-.65.65-.1 6.2-1 .5.45-1.8 2.45 1.2 2.05.1.1 1.85 2.4 1.7 1.75L26.7-9l.25.2.6.45q.8.55 1.7 1.15l.25.2.05-.1v-.05l1.1-4.5m-13.15-5.2 2.45-.05-2.45.05-2.45-1.95 2.45 1.95m3.4 2.1-1.7 2.25 1.7-2.25m7.4 9.6-2.45.2 2.45-.2M29.5-7l2.7 2.25L29.5-7m2.85-2.95-.45 1.8.45-1.8m-.45 1.8 2.55 2.6-2.55-2.6" fill="#b3b8c6" fill-rule="evenodd" transform="translate(-6.9 26)"/><path d="m12.9-8.65.25-3.1.15 3.1h-.4M29.25-7.2l.3.05v.05l-.05.1-.25-.2m-13.75.65.5-.1-.45.3-.05-.2m2.65 1.4h.05q-.05.95.4 2.15l.1.2-.1-.05-.25-.25-.3-.75-.05-.3q-.15-.5.15-1M25.6.9h.3V1l-.3-.1m-1.65 4.8-.4-.15.5-.05-.1.2M34.7-5.65l-.1.2-.15-.1.25-.1m.95-.35.15.6-.2-.6h.05" fill="#d4d0c8" fill-rule="evenodd" transform="translate(-6.9 26)"/><path d="M35.8-5.4 31 4.2l-.75 1.55-.9.85-.6.25-3.3 1.05-1.5.55-.85-.65.85-2.1.1-.2L25.9 1l.05-.05V.9l1.3-3.15 1.5-1.25 1.5-.55h.05l1.9-.7 2.25-.8.15.1-2.45 4.7L33.6-1l-1.45.25 2.45-4.7.1-.2.9-.35.2.6m-5.55 1.35L28.5.15l-2.55.8 2.55-.8 1.75-4.2M25.45 7.9l1.6-2.65-3 .25 3-.25-1.6 2.65m3.3-1.05.45-2.6L31 4.2l-1.8.05-.45 2.6" fill="#576075" fill-rule="evenodd" transform="translate(-6.9 26)"/><path d="m15.75-1.55-.5-.7-2.3-3.4-.25-.85.2-2.15h.4l-.15-3.1.55-6.25h.6l4.85 5.5-.6 1.9-2.7.1 2.7-.1.6-1.9h.05l6.65 7.55L24.3-3l1.55-1.95.9.95v.05l.5 1.65v.05L25.95.9h-.35l-3.1.95L25.6.9l.3.1-1.85 4.5-.5.05.4.15-.85 2.1-.95.15h-.05L18.4 2.4l.2-.1-.2-3.9.2 3.9h-.3l-2.55-3.85m.1-8.95L16-6.65l-.15-3.85M16-6.65l-.5.1.05.2.45-.3 1.45-.95L19.1-6l-1.65-1.6-1.45.95m4.15 1.95-.1-.35-.25-.5-.4-.35-.3-.1h-.05l-.4.15-.15.1-.2.25-.15.35q-.3.5-.15 1l.05.3.3.75.25.25.1.05.25.15h.25l.2-.05.3-.2.2-.25.25-.55.05-.65-.05-.35 2.8-.1-2.8.1M24.3-3l-1.3.05-.05-1.85.05 1.85L24.3-3m-9.45-6.2.65 2.65-.65-2.65-1.55.55 1.55-.55m1.1 4.3 2.05.75-2.05-.75.1 2.6-.1-2.6m-.7 2.65.8-.05-.8.05m5.6 2.7-.7-2.1-.45-1.25.45 1.25.7 2.1 1.6-.1.05 1.5-.05-1.5-1.6.1M18.4-1.6l1.75-.05-1.75.05m4.1 3.45.15 3.3.9.4-.9-.4-.15-3.3" fill="#8189a0" fill-rule="evenodd" transform="translate(-6.9 26)"/><path d="m19.1-6 .3.1.4.35.25.5.1.35.05.35-.05.65-.25.55-.2.25-.3.2-.2.05h-.25l.25-.3.1-.9-.05-.45-.1-.25-.35-.35-.3-.45v-.25l.15-.25.4-.15h.05" fill="#666" fill-rule="evenodd" transform="translate(-6.9 26)"/><path d="m18.65-5.85-.15.25v.25l.3.45.35.35.1.25.05.45-.1.9-.25.3-.25-.15-.1-.2q-.45-1.2-.4-2.15h-.05l.15-.35.2-.25.15-.1" fill="#999" fill-rule="evenodd" transform="translate(-6.9 26)"/><path d="M25.9.95h.05L25.9 1V.95" fill="#b0b5c4" fill-rule="evenodd" transform="translate(-6.9 26)"/><path d="M12.65 17.75v-.05l2.6-16.3 3.7 5.15-3.5 13.1q-.95.4-2.95-1.1v-.05l.15-.75M18.6 2.3l-.2.1-.1-.1h.3" fill="#353e7b" fill-rule="evenodd" transform="translate(-6.9 26)"/><path d="m22.15 7.95-4.6 10.8-.85 1.7-.55.3h-1q-1.45-.3-2.65-2.2 2 1.5 2.95 1.1l3.5-13.1-3.7-5.15.5-2.95L18.3 2.3l.1.1 3.7 5.55h.05" fill="#22274f" fill-rule="evenodd" transform="translate(-6.9 26)"/><path d="M17.55 18.75q.5.1.55.85 0 .75-.75 1.8l-.1.1-.5.45-.35.15h-.25l-.4.05q-1.75.1-3.5-1.95l-.15-.2-.45-.85.05-.25q.15-1 .95-1.15l-.15.75v.05q1.2 1.9 2.65 2.2h1l.55-.3.85-1.7" fill="#006" fill-rule="evenodd" transform="translate(-6.9 26)"/><path d="m17.25 21.5-.3.65-.55-.05.35-.15.5-.45m-.5 1.05-.3.6v-.25l-.05-.05.35-.3m-.5 1.05-.2.35v-.4l.2.05m-.65 1.25-.35.75v-.25l.1-.5h.25m-.65 1.4-.1.25h-.4v-.05l.5-.2m-.7 1.45-.1.15h-.55l.25-.1.25-.05h.15m-1.3 2.05-.25.15-.3.15h-1l-.3-.25 1.6-.05h.25m-2.3-.8v-.1l-.1-.3v-.05l-.25-.2-.1-.05-.05.15-.3 2.4-.5-1.75H9l.65-1.5-.15-.3 1.1.7-1.1-.7-.2-.15 1.35.5v-.15l.1-.95.15-1.15.05-.5.2-1.55 1.55.2q.65.7 1.65.8l.15.05v.15h-.75l-1.3-.85-.95.15.95.55v.2l-.55.15.2.25.95.05h.7l-.6.1h-.1l-.75.2-.35.4.25.4.5.25-.05.05-.55-.15-.4-.2h-.55l.8.6-1 .05-.2-.2.2.2q.65.65 1.45.95h-.8v.25h-.2v.35l.15.25-.15.1-.05.05-.7-.6v.9m.5-5.7.2-1.25.3-2.85.45.85.1.25.05-.05q1.75 2.05 3.5 1.95l-.4.2h-.85l-.2-.05h-.1l-1.15-.55.35.55-.1.05q-.75-.7-.95-1.55l-.15-.55.35 1.85v.25l-.5-.2v.65l.25.3-.95-.5.35.35-.55.3m.9-.45-.7-.8.7.8m-1.1 2.05 1.15.1-1.15-.1m-.05.5.8.7-.8-.7M9.25 27.6l-.95 1.1q.45.35.6 1.1h-.35l-.3-.5h-.1v-.8l1.1-.9m1.35.35V28l-.05.5.05-.5v-.05l.05-.35-.05.35m.05.1L10.6 28l.05.05m0-.6.75 1.15-.75-1.15" fill="#8b9dbe" fill-rule="evenodd" transform="translate(-6.9 26)"/><path d="m16.95 22.15-.2.4-.35.3-1.25.35-.65-.05.6.25.95.15-.95-.15-.6-.25.65.05 1.25-.35.05.05v.25l-.2.45-.2-.05v.4l-.45.9h-.25l-.1.5v.25l-.1.2-.2.45-.5.2v.05h.4l-.6 1.2h-.15l-.25.05-.25.1-1.15-.2h-.05.05l1.15.2h.55l-.65 1.35-.4.45-.1.1h-.3l-1.6.05-.05-.05-.3-.6-.1-.15v-.95l.7.6.05-.05.15-.1-.15-.25v-.35h.2v-.25h.8q-.8-.3-1.45-.95l1-.05-.8-.6h.55l.4.2.55.15.05-.05-.5-.25-.25-.4.35-.4.75-.2h.1l.6-.1h-.7l-.95-.05-.2-.25.55-.15v-.2l-.95-.55.95-.15 1.3.85h.75v-.15l-.15-.05q-1-.1-1.65-.8l-.4-.4.4.4-1.55-.2v-.05l.55-.3-.35-.35.95.5-.25-.3v-.65l.5.2v-.25l-.35-1.85-.1-.25.15.2-.05.05.15.55q.2.85.95 1.55l.1-.05-.35-.55 1.15.55h.1l.2.05h.85l.4-.2.4-.05h.25l.55.05m-4.55 7.9-.55.15-.45-.15h1m-1.85-1.5q-.2.35-.25.75v2.35q0 .65.65.65-.3 0-.45.5l-.3-.25q-.3-.5-.9-.85l-.65.7.3-1.9q-.75.15-.55.5l-1.5.05q.75-1.3.9-2.8l1.5-1.15.2.15.15.3-.65 1.5h.35l.5 1.75.3-2.4.05-.15.1.05.25.2v.05m5.3-4.2H14.5h1.35m-1.35-1.2-.95-.55-.25-.25.25.25.95.55m-1.3 3.35-.5-.1h-.05.05l.5.1m2.15-1.65h-.25l-1.35.15 1.35-.15h.25m-2.25 4.8-.65-.25-.65-.45.65.45.65.25M9.25 27.6l.25-.35-.25.35-1.1.9v.8h.1l.3.5h.35q-.15-.75-.6-1.1l.95-1.1m-.3 2.9v-.1l-.05-.6.05.6v.1" fill="#b0d5ea" fill-rule="evenodd" transform="translate(-6.9 26)"/><path d="m24.6 0 .25 5.95-.45 4.9-.65 3.5 1.7 1.7 3.3 3.25.15 1.3-4.8 9.6-.75 1.55-.9.85-.6.25-3.3 1.05-1.5.55-1.8-.5M11.2 45.6q0 .75-.75 1.8l-.1.1-.3.65-.5 1-.2.45-.2.35-.45.9-.35.75m-.1.2-.2.45-.1.25-.6 1.2-.1.15-.65 1.35m2.25-30.75-.5-.7-2.3-3.4-.25-.85.2-2.15.25-3.1L6.8 8l.7-.7.65-.1 6.2-1 .5.45.3-.35Q19.75.85 24.6 0M7.4 8v-.05m4.9 5.55h-.05M9.1 19.35l1.45-.95L12.2 20l.3.1.4.35.25.5.1.35 2.8-.1M9.1 19.35l-.45.3m3.5.35h.05m-.45.15-.15.1-.2.25-.15.35q-.3.5-.15 1l-2.05-.75m2.75 2.1.25.15h.25l.2-.05.3-.2.2-.25.25-.55.05-.65-.05-.35m-1.45 1.9-.1-.05-.25-.25-.3-.75-.05-.3m.65-1.7.4-.15m.65 3.1.45 1.25.7 2.1m4.75.45h.35m1.3-3.15v-.05m-.5-1.65V22m3.5-.05h.05m-10.15 2.4-1.75.05m0 4 3.7 5.55h.05m7.4-15.1v.05l-.05.1m.75 2.95h.05m4.4-1.6-.25.1m1.2-.45.15.6m-.2-.6h.05v-.7M19 26.95l.05-.05m-.05.05h.05m-.05 0V27m-1.95 4.7.1-.2m-1.95 2.45h.05M11.4 28.3l-2.55-3.85M5.6 44.5v.05q1.2 1.9 2.65 2.2h1l.55-.3.85-1.7m-5.3 1.45L5.2 46m3.65 2.15q-1.75.1-3.5-1.95m3.5 1.95.4-.05h.25l.35-.15.5-.45" fill="none" stroke="#333" stroke-linecap="round" stroke-linejoin="round" stroke-width=".05"/><path d="M10.6 9.15 8.15 7.2m.8 8.3 2.7-.1.6-1.9M17.4 23l1.55-1.95 2.45-.2M7.95 16.8l-1.55.55-.15-3.1m2.9 9.45-.8.05m7.25 4.1 3.1-.95m-2.05 4.65-.9-.4-.15-3.3m9.4-10 .45-1.8" fill="none" stroke="#0cf" stroke-linecap="round" stroke-linejoin="round" stroke-width=".05"/><path d="m12.3 13.5 1.7-2.25m-.95-2.15-2.45.05m10.8 11.7 1.95 1.1m1.95-.7L22.6 19m5.1 1.55-2.45 4.7L26.7 25m1-4.45.1-.2m-.25.1L25 17.85m-5.95 9.1 2.55-.8 1.75-4.2m-6.2 9.55 3-.25-1.6 2.65m5.55-3.7-1.8.05-.45 2.6" fill="none" stroke="#b3ffff" stroke-linecap="round" stroke-linejoin="round" stroke-width=".05"/><path d="m9.1 19.35-.15-3.85m7.1 5.7.05 1.85 1.3-.05m-8.75-3.35-.05-.2-.65-2.65m1.1 4.3.1 2.6m4.8 2.75 1.6-.1.05 1.5m-4.1-3.45.2 3.9" fill="none" stroke="#03f" stroke-linecap="round" stroke-linejoin="round" stroke-width=".05"/><path d="m15.25 33.95-4.6 10.8q.5.1.55.85m-4.6 9.6-.4.45-.05.05m-.05.05h-.05l-.25.15-.3.15-.55.15-.45-.15-.3-.25m-.45-.95-.1-.3m.1-.95v-.15l.1-.95.15-1.15.05-.5.2-1.55v-.05l.2-1.25.3-2.85.05-.25q.15-1 .95-1.15v-.05l2.6-16.3.5-2.95m-3.1 19.3-.15.75m-1.95 10 .05-.5v-.05l.05-.35" fill="none" stroke="#333" stroke-linecap="round" stroke-linejoin="round" stroke-width=".05"/><path d="m5.2 46-.45-.85m4.75 3.7.35-.3m-4.05 7.2h.25" fill="none" stroke="#00c" stroke-linecap="round" stroke-linejoin="round" stroke-width=".05"/><path d="M3.65 54.55q-.2.35-.25.75v2.35q0 .65.65.65-.3 0-.45.5l-.3-.25q-.3-.5-.9-.85l-.65.7.3-1.9q-.75.15-.55.5l-1.5.05q.75-1.3.9-2.8l1.5-1.15M5.2 46l.1.25.15.55q.2.85.95 1.55l.25.25.95.55.6.25.95.15.2.05m-4.2-.8.25.3.4.4q.65.7 1.65.8l.15.05h1.35M4.45 48l.7.8m4.35.05-1.25.35-.65-.05m-1.8.35-1.55-.2m4.2 1.55h.25m-3.5.1-1.15-.1m1.7 1.55h.05l.5.1m.55-1.5 1.35-.15h.25m-.9 1.6.5-.2m-3.25-.2.4.2.55.15m-1.9.1.2.2q.65.65 1.45.95h.05l1.15.2h.55m-2.45-1.8-.8-.7m.9 3.6.65.45.65.25m-2.55-1.1v-.05M2.6 53.25l-.25.35-.95 1.1q.45.35.6 1.1l.05.6v.1m2.15-.7 1.6-.05M4.5 54.6l-.75-1.15" fill="none" stroke="#353e7b" stroke-linecap="round" stroke-linejoin="round" stroke-width=".05"/><path d="m8.35 51.6-.1.2m-2.1 3.9-.05.05m1.3-7.45.2.05m-1.95-.25v.25M3.7 54l.05.05m3.6 2.45H7" fill="none" stroke="#e1e3f2" stroke-linecap="round" stroke-linejoin="round" stroke-width=".05"/><path d="m4.2 55.8-.05-.05-.4-.75v-.15M2.4 53.1l1.35.5m-.05.35-1.1-.7" fill="none" stroke="#000" stroke-linecap="round" stroke-linejoin="round" stroke-width=".05"/><path d="m20.95 4.5-1.2 1.65q-1.7 2.4-2.7 5l-.85 2.5" fill="none" stroke="#8189a0" stroke-linecap="round" stroke-linejoin="round" stroke-width=".05"/></g></defs></svg>