<svg width="50" height="49" viewBox="250.12 175.75 49.682 49.475" xmlns="http://www.w3.org/2000/svg" xmlns:xlink="http://www.w3.org/1999/xlink"><defs><g id="a"><path d="m57.75 44.45-7-.8h-.05l-13.8-12.2-.15-.15-7.5-6.6h.05L28 17l5.35-10.15L42.2.3l7.1.85.05.05 1.3 7.7h-.05l-1.8 3.5-3.45 6.6-2.3 1.7-6.5 4.8 1.05.9 20.15 18.05M29.3 24.7l7.2.85.05-.05-.05.05-7.2-.85" fill="#302925"/><path d="m63.1 13.4 4.1 3.65-8.45-5.6 4.35 1.95m-20.05 7.3-5.45 5.7-1.05-.9 6.5-4.8m5.75-8.3-1.05 7 11 11.3-8.3-7.3-.05-.05L45.35 19l3.45-6.6" fill="#bea588"/><path d="m66.85 37.75-.1.2-4.45 3.25-4.55 3.25L37.6 26.4l5.45-5.7 2.3-1.7 5.05 4.35.05.05 8.3 7.3 8.1 7.05" fill="#443c35"/><path d="m71.35 29.25-4.5 8.5-8.1-7.05-11-11.3 1.05-7 1.8-3.5 21.45 18.95-.7 1.4" fill="#4d433a"/><path d="m67.2 17.05 3.5 3.05 1.35 7.75L50.6 8.9h.05l-1.3-7.7L63.1 13.4l-4.35-1.95 8.45 5.6" fill="#6d5f54"/><path d="m62.3 41.2-4.4 3.3-.15-.05 4.55-3.25" fill="#8e8e8e"/><path d="M50.75 43.65h-.05.05" fill="#929292"/><path d="m63.1 13.4 4.1 3.65 3.5 3.05 1.35 7.75-.7 1.4-4.5 8.5-.1.2-4.45 3.25m-4.4 3.3-.15-.05-7-.8h-.05l-13.8-12.2m-.15-.15-7.5-6.6m.05 0L28 17l5.35-10.15L42.2.3l7.1.85.05.05L63.1 13.4M45.35 19l-2.3 1.7-6.5 4.8 1.05.9 20.15 18.05 4.55-3.25m-3.55-10.5 8.1 7.05M48.8 12.4 45.35 19l5.05 4.35.05.05 8.3 7.3m-9.4-29.5 1.3 7.7h-.05l21.45 18.95M50.6 8.9l-1.8 3.5m1.95 31.25h-.05M36.55 25.5l-.05.05-7.2-.85" fill="none" stroke="#000" stroke-width=".5"/><path d="m62.2 33.6-9 6.5-7-.8m19.95-23.55 1.35 7.75-5.2 9.9" fill="none" stroke="#000" stroke-width=".5"/><path d="m68.45 17.95 1.35 7.75-5.2 9.9m-.1.2-9 6.5-7-.8" fill="none" stroke="#000" stroke-width=".5"/><path d="m2.15 66.75.05.1.1.35.1.25-.25-.7m.8 1.45.25.2h.05l-.2-.1-.1-.1" fill="#824f3e"/><path d="m2.15 71.55-1.2-.8L.4 70l-.25-.45H.2l.55.1q1.1.15 1.8-.55l.5-.8.2.1 1.05.5.4.05v.2q.1 1.1-.6 1.8-.75.7-1.85.6h-.1" fill="#3c271e"/><path d="m.2 69.55-.05-.15-.1-.2-.05-.45q-.05-.7.2-1.2L.6 67q.6-.6 1.45-.6l.05.05v.1l.05.15v.05l.25.7.05.05v.05l.05.05.15.25.3.35.1.1-.5.8q-.7.7-1.8.55l-.55-.1" fill="#5c3a2e"/><path d="m4.7 68.95.5.1h.05l.05.25q.05 1.1-.65 1.8t-1.8.55h-.3l-.05-.05H2.35l-.2-.05h.1q1.1.1 1.85-.6.7-.7.6-1.8v-.2" fill="#301f18"/><path d="m4.7 68.95.5.1h.05l.05.25q.05 1.1-.65 1.8t-1.8.55h-.3l-.05-.05H2.35l-.2-.05-1.2-.8L.4 70l-.25-.45H.2l-.05-.15-.1-.2-.05-.45q-.05-.7.2-1.2L.6 67q.6-.6 1.45-.6l.05.05v.1l.05.15v.05m.25.7.05.05v.05l.05.05.15.25.3.35m.3.2 1.05.5.4.05m-1.65-.65.2.1m-.2-.1-.1-.1m-.55-.75-.25-.7" fill="none" stroke="#000" stroke-width=".5"/><path d="m31.6 38 1.15 4.15-7.95 8.45-2.35 2.45-14.3 15.7-4.3-2.65L31.6 38" fill="#563c2b"/><path d="m31.25 36.8.35 1.2L3.85 66.1l-1.6-1.05 4.5-4.1q10.3-9.5 24.5-24.15" fill="#6d4936"/><path d="m31.6 38-.35-1.2 4.35-4.45.6-.7.45-.5.3-.15 1.3-.2.4.05q1.05.2 2.7 2.35l-.05.05-5.4 5.6-3.15 3.3L31.6 38" fill="#442e22"/><path d="m32.75 42.15 3.15-3.3 5.4-5.6.05-.05m-3.1-2.4-1.3.2m-.3.15-.45.5-.6.7-4.35 4.45q-14.2 14.65-24.5 24.15l-4.5 4.1m30.5-22.9L24.8 50.6l-2.35 2.45-14.3 15.7M36.95 31l-.3.15" fill="none" stroke="#000" stroke-width=".5"/><path d="m5 63.6-.4-1.15.25.75.15.4m1.15 1.45-.2-.2.4.35-.2-.15" fill="#824f3e"/><path d="m1.3 67.15.95.15q1.8.2 3-.95l.9-1.3.2.15.05.05 1.8.8.6.1.05.35q.15 1.8-1.05 3-1.2 1.15-3 .95h-.2q-1.1-.4-2.05-1.35l-.9-1.2-.35-.75" fill="#563c2b"/><path d="m5 63.6.1.15.05.05.05.1.25.4.5.55.2.2-.9 1.3q-1.2 1.15-3 .95l-.95-.15v-.05l-.05-.25-.15-.35-.1-.7h.05q-.15-1.15.3-2l.7-.95q.95-.95 2.4-1l.05.1v.15l.1.25v.1L5 63.6" fill="#694634"/><path d="m8.8 66.15.5.1H9.7v.05l.05-.05.1.45q.1 1.85-1.05 3-1.25 1.15-3.05.95l-.45-.05-.1-.05h-.15l-.1-.05-.35-.05h.2q1.8.2 3-.95 1.2-1.2 1.05-3l-.05-.35" fill="#3c271e"/><path d="m5.95 64.85-.5-.55-.25-.4-.05-.1-.05-.05-.1-.15-.4-1.15v-.1l-.1-.25v-.15l-.05-.1q-1.45.05-2.4 1l-.7.95q-.45.85-.3 2H1l.1.7.15.35.05.25v.05m4.85-2.1-.2-.2m.4.35.05.05 1.8.8.6.1.5.1H9.7v.05l.05-.05.1.45q.1 1.85-1.05 3-1.25 1.15-3.05.95l-.45-.05-.1-.05h-.15l-.1-.05-.35-.05q-1.1-.4-2.05-1.35l-.9-1.2-.35-.75m5.05-1.95-.2-.15" fill="none" stroke="#000" stroke-width=".5"/><path d="M17.7 57.95q-2.65-2.25-2.6-2.75 0-.75 1.85.75-2-2.9-1.45-3.9l.35-1.2 1.2-1.05q-.4.6 0 1.65.5 1.1 1.65 2.05 1.2.9 2.35 1.05l.55.05-1.2.6-2.65.25 1.65.75-1.7 1.75m-4.7-4.6v1.25l1.9 2.75-1.6-.05-.1-.1h-.4q.45-1.65-.05-2.75l-.05-.05.2-.9.1-.15m-3.75 3.7.15.65.75 1.05.25-1.05.9-2.2 1 1.55q.4.65-.2 2.05l.7-1.85.5.05 2.3 1.7-2.35.35 1 .15q.4.1.75 1 .3.9-4.8.45l2.9 1.8.1.85-4.8-.2 1.65 1.6.65.8-2.45.35q-.7-3.7-.2-5.85.55-2.3 1.2-2.45l-.1-.7.1-.1m-1.05 9.1-1.35.2-.45-.3Q5.25 65.1 4.75 64q-.4-1.05-.2-1.8l1.55-1.75q.7 2.95 2.1 5.7" fill="#4d433a"/><path d="m15.85 50.85-.35 1.2q-.55 1 1.45 3.9-1.85-1.5-1.85-.75-.05.5 2.6 2.75l-2.8-.6L13 54.6v-1.25l2.85-2.5M12.9 53.5l-.2.9.05.05q.5 1.1.05 2.75h-.1l.1.05-.7 1.85q.6-1.4.2-2.05l-1-1.55-.9 2.2-.25 1.05-.75-1.05-.15-.65 3.65-3.55M8.25 66.15H8.2q-1.4-2.75-2.1-5.7l3.05-3.3.1.7q-.65.15-1.2 2.45-.5 2.15.2 5.85" fill="#5c5047"/><path d="m14.9 57.35 2.8.6 1.7-1.75-1.65-.75 2.65-.25 1.2-.6.65-.15-2.2 3.05-.55.75-.7.9q-2.75 3.15-8.8 7.9l-1.25.05-1.9-.75 1.35-.2h.05l2.45-.35-.65-.8-1.65-1.6 4.8.2-.1-.85-2.9-1.8q5.1.45 4.8-.45-.35-.9-.75-1l-1-.15L15.6 59l-2.3-1.7-.5-.05-.1-.05h.5l.1.1 1.6.05" fill="#362f29"/><path d="M15.85 50.85 13 53.35m8.6 1.25-.55-.05q-1.15-.15-2.35-1.05-1.15-.95-1.65-2.05-.4-1.05 0-1.65l-1.2 1.05M12.9 53.5l-3.65 3.55m3.65-3.55.1-.15m-6.15 13 1.9.75 1.25-.05q6.05-4.75 8.8-7.9l.7-.9.55-.75 2.2-3.05-.65.15M9.15 57.15l-3.05 3.3m3.05-3.3.1-.1m-2.4 9.3-.45-.3Q5.25 65.1 4.75 64q-.4-1.05-.2-1.8l1.55-1.75" fill="none" stroke="#000" stroke-width=".5"/><path d="m22.4 53.3-.25.75q-.45.5-1.45.25-.95-.25-1.95-1.1t-1.4-1.8q-.35-.95.1-1.45.25-.3.65-.35M10.9 66.3l-.3.95q-.6.65-1.9.35t-2.55-1.4q-1.3-1.1-1.8-2.35t.1-1.9l.8-.45" fill="none" stroke="#000"/><path d="m33.55 5.25 1.15-1.4L39.25 3l9-.85.05.05 1.35 4.95.7.25.25 1.45-17.05-3.6" fill="#6d5f54"/><path d="m34.7 3.85-.6-.65L42.05 0l7.15 1.1L39.25 3l-4.55.85" fill="#897469"/><path d="M36.65 25.45 31.05 8.3l1.4-1.7L45.4 18.9l-8.75 6.55" fill="#443c35"/><path d="m32.45 6.6 1.1-1.35 17.05 3.6h.1l-5.3 10.1v-.05L32.45 6.6" fill="#4d433a"/><path d="M29.65 10.05 29.45 24l-.15.6-1.75-7.85 1.35-6.6.75-.1" fill="#211d1b"/><path d="m29.65 10.05 1.4-1.75 5.6 17.15-7.35-.75.15-.7.2-13.95" fill="#302925"/><path d="m49.2 1.1.15.1 1 6.2-.7-.25L48.3 2.2l-.05-.05-9 .85 9.95-1.9" fill="#bea588"/><path d="m45.4 18.9-8.75 6.55" fill="none" stroke="#000" stroke-width=".5"/><path d="m50.4 23.3 5.25-9.85 2.3 2.15-5.1 9.75-2.45-2.05" fill="#f63"/><path d="m55.65 13.2-1.3-7.55 2.4 2.4 1.2 7.55-2.3-2.15v-.25" fill="#fe7a5a"/><path d="M43.85 32.05 41.5 29.9l8.9-6.55v-.05l2.45 2.05.05.05-9.05 6.65" fill="#ba2501"/><path d="m43.85 32.05-.2.15-6.65-.75-2.45-2.2 6.65.75h.15l.15-.1 2.35 2.15" fill="#8f1d01"/><path d="m41.5 29.9-.15.1h-.15l-6.65-.75m2.45 2.2 6.65.75.2-.15M41.5 29.9l8.9-6.55v-.05l5.25-9.85m0-.25-1.3-7.55M56.6 7.9l.15.15 1.2 7.55-5.1 9.75m.05.05-9.05 6.65m11.8-18.85v.25M43.85 32.05 41.5 29.9m-6.95-.65 2.45 2.2M41.2 30l.3-.1m14.15-16.45v-.25m-1.3-7.55L56.6 7.9m-3.75 17.45.05.05m2.75-11.95 2.3 2.15m-5.1 9.75L50.4 23.3" fill="none" stroke="#000" stroke-width=".5"/><path d="m64.65 35.8-2.45-2.05 5.25-9.85 2.3 2.15-5.1 9.75" fill="#f63"/><path d="m69.75 26.05-2.3-2.15v-.25l-1.3-7.55 2.4 2.4 1.2 7.55" fill="#fe7a5a"/><path d="m62.2 33.75 2.45 2.05.05.05-9.05 6.65-2.35-2.15 8.9-6.55v-.05" fill="#ba2501"/><path d="m53.3 40.35 2.35 2.15-.2.15-6.65-.75-2.45-2.2 6.65.75h.15l.15-.1" fill="#8f1d01"/><path d="M62.2 33.75v.05l-8.9 6.55-.15.1H53l-6.65-.75m9.3 2.8 9.05-6.65m-.05-.05 5.1-9.75m-2.3-2.15-5.25 9.85M48.8 41.9l6.65.75m12.95-24.3.15.15 1.2 7.55m-2.3-2.4-1.3-7.55m1.3 7.55v.25m-11.8 18.6-.2.15M64.65 35.8l-2.45-2.05m-8.9 6.6 2.35 2.15m9.05-6.65-.05-.05m5.1-9.75-2.3-2.15v-.25M46.35 39.7l2.45 2.2m4.2-1.45.3-.1M66.15 16.1l2.25 2.25" fill="none" stroke="#000" stroke-width=".5"/><path d="m49.65 1.75 21 18.8M50.85 9.6 72 28.2" fill="none" stroke="#bea588" stroke-width=".5"/><path d="m41.9.05-6.4 2.6m.8 22.45-4-13.45m-4.7 5.1 1.15-5.6m.5 13.4.55-12.95m15.25 7.2-10.1-9.6M48.75.95 36.2 3.55m14.05 5.2-13.4-2.7" fill="none" stroke="#000" stroke-width=".5"/><path d="m37.05 3.45.05.05.45 2.9-2 3.8-3.3 2.45h-.05l-2.7-.3-.5-2.9 2.05-3.85 3.3-2.45 2.7.3" fill="#302925"/><path d="m37.05 3.45.05.05.45 2.9-2 3.8-3.3 2.45h-.05l-2.7-.3-.5-2.9 2.05-3.85 3.3-2.45 2.7.3" fill="none" stroke="#000" stroke-width=".5"/><path d="M37.55 6.4 50.6 9.35" fill="none" stroke="#bea588" stroke-width=".5"/></g></defs><use transform="translate(250.15 175.75) scale(.68907)" xlink:href="#a"/></svg>