<svg width="129" height="101" viewBox="263.1 137.35 128.95 101.1" xmlns="http://www.w3.org/2000/svg" xmlns:xlink="http://www.w3.org/1999/xlink"><defs><g id="b"><path d="m304.45 161.75 45.55 24.6 9.25 11.2-.3 23.1-54.45-33.5-.85-23.45.8-1.95" fill="#6d6a3d"/><path d="m367.35 185.05 1.05-.95 21-18.1 2.65 4-.15 20.35-32.7 30.45-.25-.15.3-23.1 8.1-12.5" fill="#8b874e"/><path d="m348.2 143.7-1.55 4.65 23.3 8.75 3.3-.9 2.35-.6 10.35 5.15 3.45 5.25-21 18.1-1.05.95.5-.75-17.9 2 .05.05-45.55-24.6.8-2.1 33.85-22.25.1-.05 9.5 4.75-.5 1.55v.05" fill="#b0ac73"/><path d="m373.25 156.2-3.3.9-23.3-8.75 1.55-4.65 25.05 12.5" fill="#a59f5f"/><path d="m350 186.35-.05-.05 17.9-2-.5.75-8.1 12.5-9.25-11.2" fill="#bbb786"/><path d="m373.25 156.2-25.05-12.5v-.05m.5-1.55-9.5-4.75-.1.05-33.85 22.25m-.8 2.1 45.55 24.6m18.4-2.25 21-18.1m-3.45-5.25-10.35-5.15m-16.65 65.05-54.45-33.5-.85-23.45m88.4 6.3-.15 20.35-32.7 30.45-.25.25v-.4l.3-23.1m-.3 23.1.25.15" fill="none" stroke="#000" stroke-opacity=".302" stroke-width=".5"/><path d="m339.15 163.6-.1-.5-.1-1.15q-.1-3.15 2-5.85 2.4-3.2 6.4-3.9 3.95-.7 7.15 1.6 2.45 1.65 3.35 4.3l.4 1.75.1 1.45q-2.2 5.95-8.2 6.95-6.95 1.25-11-4.65m12.5-10.1q-1.7 0-2.9.95-1.15 1-1.15 2.35 0 1.4 1.15 2.4 1.2.95 2.9.95 1.65 0 2.8-.95 1.2-1 1.2-2.4 0-1.35-1.2-2.35-1.15-.95-2.8-.95m-6.15 7.25q.45-.4.45-1t-.45-1q-.35-.4-.95-.4t-1 .4-.4 1 .4 1 1 .4.95-.4m6.05 1.7q-.7-.7-1.7-.7t-1.75.7q-.7.7-.7 1.75 0 1 .7 1.7.75.75 1.75.75t1.7-.75q.75-.7.75-1.7 0-1.05-.75-1.75" fill="#263c93"/><path d="m333.3 150.95 5.15 3.35-1.45 1.3-3.55-3.6-1.25-1.3 1.1.25m5.65 11 .1 1.15.1.5q.7 3.45 3.7 5.55 3.2 2.2 7.15 1.6 3.95-.7 6.35-3.9 2-2.55 2-5.55l-.1-1.45-.4-1.75.9-.25.5 1.95.1.35q.6 4.35-2.15 7.95-2.7 3.6-7.2 4.35-4.45.75-8.05-1.8-2.25-1.6-3.35-3.8-.7-1.4-.9-3l-.1-2.3 1.35.4m22.6 8.7-3.7-.45 2.5-2.1 4.55 3.05-3.35-.5m-22.3.5 2.1 1.3-6.85 2.15-.45.15-.05-.05 5.05-3.7.2.15m21.15-21.2-.2 1-.95 3.55-2.15-1.45 3.3-3.1" fill="#be7421"/><path d="m339.7 153.15-1.25 1.15-5.15-3.35 7.05 1.6-.65.6m-.75 8.8-1.35-.4q.2-3 2.2-5.6 2.7-3.65 7.2-4.4 4.45-.75 8.1 1.8 2.55 1.8 3.65 4.5l-.9.25q-.9-2.65-3.35-4.3-3.2-2.3-7.15-1.6-4 .7-6.4 3.9-2.1 2.7-2 5.85m21.4 6.15.75-.65 1.1-.95 2.75 4.6-.05.05-4.55-3.05M334 174.7l2.9-4.95 2.15 1.25-5.05 3.7m22.15-22.3-1.15-.75 5.5-1.9-.1.2-3.3 3.1-.95-.65" fill="#e2a058"/><path d="M358.35 161.3q0 3-2 5.55-2.4 3.2-6.35 3.9-3.95.6-7.15-1.6-3-2.1-3.7-5.55 4.05 5.9 11 4.65 6-1 8.2-6.95" fill="#162358"/><path d="M345.5 160.75q-.35.4-.95.4t-1-.4-.4-1 .4-1 1-.4.95.4q.45.4.45 1t-.45 1" fill="#0093d9"/><path d="M351.55 162.45q.75.7.75 1.75 0 1-.75 1.7-.7.75-1.7.75t-1.75-.75q-.7-.7-.7-1.7 0-1.05.7-1.75.75-.7 1.75-.7t1.7.7" fill="#006fa4"/><path d="M351.65 153.5q1.65 0 2.8.95 1.2 1 1.2 2.35 0 1.4-1.2 2.4-1.15.95-2.8.95-1.7 0-2.9-.95-1.15-1-1.15-2.4 0-1.35 1.15-2.35 1.2-.95 2.9-.95" fill="#9ddfff"/><path d="m338.45 154.3 1.25-1.15-2.9 4.7-3.35-5.85 3.55 3.6 1.45-1.3m.15 12.55q1.1 2.2 3.35 3.8 3.6 2.55 8.05 1.8 4.5-.75 7.2-4.35 2.75-3.6 2.15-7.95l1.75 7.3-.75.65-2.5 2.1 3.7.45-1 3.5q-2.8 3-9.6 3.3-5.45 1.05-8.1-2.4h-.1l-.5-.55-7.75.1 6.85-2.15-2.1-1.3-.65-4.3m21.6-15.9 1 6-5.05-4.55.95.65 2.15 1.45.95-3.55" fill="#8b874e"/><path d="m339.15 163.6-.1-.5-.1-1.15q-.1-3.15 2-5.85 2.4-3.2 6.4-3.9 3.95-.7 7.15 1.6 2.45 1.65 3.35 4.3l.4 1.75.1 1.45q0 3-2 5.55-2.4 3.2-6.35 3.9-3.95.6-7.15-1.6-3-2.1-3.7-5.55m-1.55-2.05.1 2.3q.2 1.6.9 3 1.1 2.2 3.35 3.8 3.6 2.55 8.05 1.8 4.5-.75 7.2-4.35 2.75-3.6 2.15-7.95l-.1-.35-.5-1.95q-1.1-2.7-3.65-4.5-3.65-2.55-8.1-1.8-4.5.75-7.2 4.4-2 2.6-2.2 5.6" fill="none" stroke="#74523d" stroke-width=".5"/></g><g id="a"><path d="m14.05 7.9.65-1.1q.1-.7-.35-1.3-.4-.55-1.1-.65-.65-.1-1.25.3-.6.45-.7 1.15t.4 1.25q.4.6 1.05.7.7.1 1.3-.35m-3.75 7.35.2-.6v-.3q.7-8.2-7.45-8.7L.7 5.8 9.6.05q9.85-.75 9 10.5l-8.7 6.6-.25.05.65-1.95" fill="#e7c654"/><path d="M3.05 5.65q8.15.5 7.45 8.7v.3l-.85 2.55h-.4Q-2.55 17.15.7 5.8l2.35-.15" fill="#c9a31d"/><path d="M3.05 5.65q8.15.5 7.45 8.7v.3l-.2.6m-.65 1.95.25-.05 8.7-6.6Q19.45-.7 9.6.05L.7 5.8q-3.25 11.35 8.55 11.4h.4" fill="none" stroke="#000" stroke-opacity=".302" stroke-width=".5"/><path d="m11.35 6.7-.05-.4q.1-.7.7-1.15.6-.4 1.25-.3.7.1 1.1.65.4.5.35 1.2-1.6 1.85-3.35 0" fill="#e7c654"/><path d="M14.7 6.7v.1l-.65 1.1q-.6.45-1.3.35-.65-.1-1.05-.7l-.35-.85q1.75 1.85 3.35 0" fill="#c9a31d"/><path d="m11.35 6.7-.05-.4q.1-.7.7-1.15.6-.4 1.25-.3.7.1 1.1.65.4.5.35 1.2v.1l-.65 1.1q-.6.45-1.3.35-.65-.1-1.05-.7l-.35-.85" fill="none" stroke="#000" stroke-opacity=".302" stroke-width=".5"/><path d="m6.25 3.2-.1-.6q.1-.7.7-1.1.6-.45 1.25-.35.7.1 1.15.65.35.55.3 1.25-1.55 1.05-3.3.3V3.2" fill="#e7c654"/><path d="M9.55 3.05v.05q-.1.7-.65 1.1-.6.45-1.3.35-.65-.1-1.1-.65l-.25-.55q1.75.75 3.3-.3" fill="#c9a31d"/><path d="m6.25 3.2-.1-.6q.1-.7.7-1.1.6-.45 1.25-.35.7.1 1.15.65.35.55.3 1.25v.05q-.1.7-.65 1.1-.6.45-1.3.35-.65-.1-1.1-.65l-.25-.55" fill="none" stroke="#000" stroke-opacity=".302" stroke-width=".5"/><path d="M13.2 12.8q-.3-.5-.2-1.05.05-.7.65-1.15.55-.4 1.25-.3.7.05 1.15.65.4.55.35 1.25l-.05.15-3.15.45" fill="#e7c654"/><path d="M16.35 12.35q-.15.6-.65 1l-1.25.35q-.7-.1-1.15-.7l-.1-.2 3.15-.45" fill="#c9a31d"/><path d="M13.2 12.8q-.3-.5-.2-1.05.05-.7.65-1.15.55-.4 1.25-.3.7.05 1.15.65.4.55.35 1.25l-.05.15q-.15.6-.65 1l-1.25.35q-.7-.1-1.15-.7l-.1-.2" fill="none" stroke="#000" stroke-opacity=".302" stroke-width=".5"/></g><g id="e"><path d="M304.8 213.85q2.65-5.85-1.3-7.75l12.3-8.55q1.6-.8 3.2.8 2.75 2.55.85 5l-15.05 10.5m-31.35 21.9q1.15-1.95.5-3.7l-.05-.1q-1.9-3.45-4.95-2l4.05-2.8q3.5-1.95 4.85 1.7.9 2.1.1 3.75l-4.5 3.15" fill="#91664d"/><path d="M319.85 203.35q1.9-2.45-.85-5-1.6-1.6-3.2-.8l7.55-5.2q2.05-.75 3.9.8 2.2 2.15.7 4.55l-8.1 5.65m-50.9 26.6q3.05-1.45 4.95 2l.05.1q.65 1.75-.5 3.7l-.2.15-2.6-.1-.9-.65q-1.85-2.05-1.15-4.95l.35-.25" fill="#74523d"/><path d="M277.95 232.6q.8-1.65-.1-3.75-1.35-3.65-4.85-1.7l7.8-5.35q4.45 1.3 2.65 6.95l-5.5 3.85" fill="#667cd7"/><path d="m284 219.55 4.6-3.15q5.1-1.3 5.6 4.85l-5.3 3.7q0-5.5-4.9-5.4" fill="#556fd2"/><path d="M303.5 206.1q3.95 1.9 1.3 7.75l-4.45 3.1q.9-5-3.25-6.45l6.4-4.4" fill="#3856cb"/><path d="m280.8 221.8 3.2-2.25q4.9-.1 4.9 5.4l-5.45 3.8q1.8-5.65-2.65-6.95" fill="#304bba"/><path d="M297.1 210.5q4.15 1.45 3.25 6.45l-6.15 4.3q-.5-6.15-5.6-4.85l8.5-5.9" fill="#263c93"/><path d="M304.8 213.85q2.65-5.85-1.3-7.75l-6.4 4.4q4.15 1.45 3.25 6.45l4.45-3.1 15.05-10.5q1.9-2.45-.85-5-1.6-1.6-3.2-.8l-12.3 8.55m-14.9 10.3 8.5-5.9m18.7-12.95 7.55-5.2q2.05-.75 3.9.8 2.2 2.15.7 4.55l-8.1 5.65M280.8 221.8l3.2-2.25 4.6-3.15q5.1-1.3 5.6 4.85l6.15-4.3m-26.9 18.8q1.15-1.95.5-3.7l-.05-.1q-1.9-3.45-4.95-2l-.35.25q-.7 2.9 1.15 4.95l.9.65 2.6.1.2-.15 4.5-3.15q.8-1.65-.1-3.75-1.35-3.65-4.85-1.7l-4.05 2.8m11.85-8.15q4.45 1.3 2.65 6.95l5.45-3.8q0-5.5-4.9-5.4m-.55 9.2-5.5 3.85m-4.95-5.45 7.8-5.35m13.4-.55-5.3 3.7" fill="none" stroke="#000" stroke-opacity=".302" stroke-width=".5"/><path d="m274.7 231.95.45-.75q.05-.5-.25-.9t-.8-.45q-.45-.05-.85.25t-.45.8q-.05.45.25.85l.75.45.9-.25m-2.6 5.15.1-.45v-.2q.5-5.75-5.2-6.05l-1.65.15 6.25-4.05q6.85-.55 6.25 7.35l-6.05 4.6h-.15l.45-1.35" fill="#e7c654"/><path d="M267 230.4q5.7.3 5.2 6.05v.2l-.1.45-.45 1.35h-.35q-8.2-.05-5.95-7.9l1.65-.15" fill="#c9a31d"/><path d="M267 230.4q5.7.3 5.2 6.05v.2l-.1.45m-.45 1.35h.15l6.05-4.6q.6-7.9-6.25-7.35l-6.25 4.05q-2.25 7.85 5.95 7.9h.35" fill="none" stroke="#000" stroke-opacity=".302" stroke-width=".5"/><path d="m272.75 231.15.05-.25q.05-.5.45-.8t.85-.25q.5.05.8.45.3.35.25.8l-2.4.05" fill="#e7c654"/><path d="M275.15 231.1v.1l-.45.75-.9.25-.75-.45-.3-.6 2.4-.05" fill="#c9a31d"/><path d="m272.75 231.15.05-.25q.05-.5.45-.8t.85-.25q.5.05.8.45.3.35.25.8v.1l-.45.75-.9.25-.75-.45-.3-.6" fill="none" stroke="#000" stroke-opacity=".302" stroke-width=".5"/><path d="m269.25 228.7-.05-.4q.05-.45.45-.75.4-.35.9-.3.45.05.75.5.3.35.25.8-1.1.8-2.3.25v-.1" fill="#e7c654"/><path d="M271.55 228.55v.05q-.05.5-.5.8l-.85.25q-.5-.05-.8-.45l-.15-.4q1.2.55 2.3-.25" fill="#c9a31d"/><path d="m269.25 228.7-.05-.4q.05-.45.45-.75.4-.35.9-.3.45.05.75.5.3.35.25.8v.05q-.05.5-.5.8l-.85.25q-.5-.05-.8-.45l-.15-.4" fill="none" stroke="#000" stroke-opacity=".302" stroke-width=".5"/><path d="m274.1 235.4-.15-.75q.05-.5.45-.8t.9-.2q.45.05.75.45l.25.9v.1l-2.2.3" fill="#e7c654"/><path d="m276.3 235.1-.45.65q-.4.35-.85.3l-.8-.55-.1-.1 2.2-.3" fill="#c9a31d"/><path d="m274.1 235.4-.15-.75q.05-.5.45-.8t.9-.2q.45.05.75.45l.25.9v.1l-.45.65q-.4.35-.85.3l-.8-.55-.1-.1" fill="none" stroke="#000" stroke-opacity=".302" stroke-width=".5"/></g><filter id="c"><feColorMatrix in="SourceGraphic" result="cxform" values="0.69921875 0.0 0.0 0.0 0.0 0.0 0.69921875 0.0 0.0 0.0 0.0 0.0 0.69921875 0.0 0.0 0.0 0.0 0.0 1.0 0.0"/><feComposite in2="SourceGraphic" operator="in" result="color-xform"/></filter><use xlink:href="#a" id="d"/></defs><use xlink:href="#b"/><use transform="translate(321.75 187.3) scale(.69772)" filter="url(#c)" xlink:href="#d"/><use xlink:href="#e"/></svg>