<svg viewBox="0 0 47.371 51.332" xmlns="http://www.w3.org/2000/svg" xmlns:xlink="http://www.w3.org/1999/xlink"><use transform="translate(.03) scale(.6304)" width="75.1" height="81.4" xlink:href="#a"/><defs><g id="a"><path d="m36.15 45.3-.15.15-.1.05-.2.15-.1.05-.15.1h-.05l-.25.1q-4.35 1.9-7.5-.5l-.9-.8q-.7-.7-.15-1.55 1.5-2.25 4.3-2.25 3.95-1.2 5.5 1.85.5 1 .35 1.75l-.4.7-.2.2" fill="#a79e76" fill-rule="evenodd" transform="translate(0 .25)"/><path d="M16.15 59.4q2.75 1.9 7.45 0L8.9 75.75l-.25.25-1.9-.35q-1.5-.6-2.25-1.95l-.45-1.1 12.1-13.2" fill="#da5e14" fill-rule="evenodd" transform="translate(0 .25)"/><path d="m32.5 41.55 5.55 1.8L23.6 59.4q-4.7 1.9-7.45 0L32.5 41.55M2.75 74.05l1.3-1.45.45 1.1q.75 1.35 2.25 1.95l1.9.35-.15.15-1.85 2.1-1 1.5-1.35.2q-1.15-.3-2-1.25l-.6-.9-.2-.55-.2-.8q-.05-.6.35-1.45l.9-.7.2-.25" fill="#95410f" fill-rule="evenodd" transform="translate(0 .25)"/><path d="m6.65 78.25.15.75q.05 1.2-.75 1.75-.85.55-2.2.35-1.4-.2-2.35-1.2-1-1-1.3-1.95l-.15-.85-.05-.2q-.15-1.6.85-2.4.4-.4 1-.5l.9.05-.2.25-.9.7q-.4.85-.35 1.45l.2.8.2.55.6.9q.85.95 2 1.25l1.35-.2 1-1.5" fill="#de941e" fill-rule="evenodd" transform="translate(0 .25)"/><path d="M32.5 41.8 16.15 59.65m7.45 0L38.05 43.6M2.75 74.3l1.3-1.45 12.1-13.2M2.75 74.3l-.9-.05q-.6.1-1 .5-1 .8-.85 2.4l.05.2.15.85q.3.95 1.3 1.95.95 1 2.35 1.2 1.35.2 2.2-.35.8-.55.75-1.75l-.15-.75-1 1.5-1.35.2q-1.15-.3-2-1.25l-.6-.9-.2-.55-.2-.8q-.05-.6.35-1.45l.9-.7.2-.25M8.9 76l14.7-16.35M8.5 76.4l-1.85 2.1" fill="none" stroke="#54483a" stroke-linecap="round" stroke-linejoin="round" stroke-opacity=".702" stroke-width=".05"/><path d="m11.15 64.25 1-1q-.35.55.1 1.5.5.95 1.6 1.8 1.15.8 2.25.85h.5l-1.05.6-2.45.4 1.55.6-1.45 1.7q-2.6-1.9-2.55-2.4-.05-.7 1.75.6-2-2.55-1.55-3.55l.3-1.1M3.55 79l-.4-.2q-1.1-.85-1.6-1.85-.45-.95-.3-1.65l1.35-1.7q.75 2.7 2.2 5.2l-1.25.2m1.7-8.6.1-.1.2.6.7.95.2-1q.4-1.7.7-2.05l1 1.35q.4.55-.1 1.9l.55-1.75.5.05 2.2 1.4-2.15.5.9.1q.35.05.75.85.3.85-4.4.65l2.8 1.55.15.75-4.5.1L6.5 77.6l.65.7-2.3.5Q4 75.35 4.4 73.35q.4-2.15 1-2.3l-.15-.65m3.25-3.55.1-.15.05 1.15 1.9 2.45-1.45.05-.1-.1h-.4q.35-1.5-.2-2.55h-.05l.15-.85" fill="#4d433a" fill-rule="evenodd" transform="translate(0 .25)"/><path d="m2.6 73.6 2.65-3.2.15.65q-.6.15-1 2.3-.4 2 .45 5.45H4.8q-1.45-2.5-2.2-5.2m2.75-3.3 3.15-3.45-.15.85h.05q.55 1.05.2 2.55h-.1l.1.05-.55 1.75q.5-1.35.1-1.9l-1-1.35q-.3.35-.7 2.05l-.2 1-.7-.95-.2-.6m3.25-3.6 2.55-2.45-.3 1.1q-.45 1 1.55 3.55-1.8-1.3-1.75-.6-.05.5 2.55 2.4l-2.65-.4-1.9-2.45-.05-1.15" fill="#5c5047" fill-rule="evenodd" transform="translate(0 .25)"/><path d="m16.6 67.4.6-.2-1.9 3-.45.7-.6.85q-2.4 3.05-7.7 7.75l-1.15.1q-.9-.1-1.85-.6l1.25-.2h.05l2.3-.5-.65-.7-1.65-1.35 4.5-.1-.15-.75-2.8-1.55q4.7.2 4.4-.65-.4-.8-.75-.85l-.9-.1 2.15-.5-2.2-1.4-.5-.05-.1-.05H9l.1.1 1.45-.05 2.65.4 1.45-1.7-1.55-.6 2.45-.4 1.05-.6" fill="#362f29" fill-rule="evenodd" transform="translate(0 .25)"/><path d="m11.15 64.5 1-1q-.35.55.1 1.5.5.95 1.6 1.8 1.15.8 2.25.85h.5l.6-.2-1.9 3-.45.7-.6.85q-2.4 3.05-7.7 7.75l-1.15.1q-.9-.1-1.85-.6l-.4-.2q-1.1-.85-1.6-1.85-.45-.95-.3-1.65l1.35-1.7 2.65-3.2.1-.1L8.5 67.1l.1-.15z" fill="none" stroke="#000" stroke-linecap="round" stroke-linejoin="round" stroke-width=".05"/><path d="M45.15 19.15q.35-.2.95-.25l5.65.6.2.1q4.35-.5 3.45 2.95-.3 1.15-1.5 1.2l-3.1-.15-.75-.55-4.9-3.9M32.7.2l3.05 9.1-1.4 6.1-1.2 1.45-5.1 6.1L28 23 15.6 37.7l-4.05.7-2.9-8.55L9.8 25 30.65.5 32.7.2m13.4 58.3-.2.25-14.3-11.4.4.25.35-.05q1.25-.25 2.05-1.1 3.35-3.55-1.7-4.85l-3.15.45q-1.4.3-1.7 1.6l-.1.6-.85-.7 5.35-6.4 8.25 6.6.25-.25 5.35 15" fill="#b3ae88" fill-rule="evenodd" transform="translate(0 .25)"/><path d="m39.25 14.5.3-.1-3.7-5.15-.1.05L32.7.2l1.2-.2 17.25 13.6.2.1 16.7 13.15 3.4 4.8 2.7 8.8-1 .85L57.3 28.65l-6.5-5.05 3.1.15q1.2-.05 1.5-1.2.9-3.45-3.45-2.95l-.2-.1-5.65-.6q-.6.05-.95.25L42.9 17.4h.05l-1-.75q-.95-.8-1.9-1.5l-.8-.65m16.7 13.05 1.35 1.1-.5-.4-.8-.65v-.1l-.05.05M35.3 7.85l8.7 1.5Q36.8 7.6 34.85 6.5l.45 1.35" fill="#cbcaad" fill-rule="evenodd" transform="translate(0 .25)"/><path d="m35.75 9.3.1-.05 3.7 5.15-.3.1-4.95 1.15v-.05l2.55-3v-.1l-.05.05-2.45 2.85 1.4-6.1m37.4 32 1-.85.7 2.25-1.45 1.7-.4-3 .15-.1M15.6 37.7l-2.55 3-1.5-2.2v-.1l4.05-.7m.2-.05.1.05-1 5.7-.15-.15-1.6-2.4 2.65-3.2" fill="#dddbcc" fill-rule="evenodd" transform="translate(0 .25)"/><path d="m55.95 27.55.05-.05v.1l-.05-.05m-19.15-15 .05-.05v.1l-.05-.05m-8.75 10.4v.1L28 23l.05-.05" fill="#ae9e99" fill-rule="evenodd" transform="translate(0 .25)"/><path d="m41.95 16.65 1 .75h-.05l-6.15 1.65q4.15-1.25 5.2-2.4m-6.65-8.8-.45-1.35Q36.8 7.6 44 9.35l-8.7-1.5M24.9 26.8q-.9 1.2-1.55 8.35.3-4.75-.15-6.3l1.7-2.05m30.55 39.05q.1-4.45-1-8.75 1.85 4.2 2.2 7.3l-.2.25-1 1.2m-4.6-34 10.55 8.5L46.1 58.5l-5.35-15 10.1-11.65M31.6 47.35l-3.85-3.1.1-.6q.3-1.3 1.7-1.6l3.15-.45q5.05 1.3 1.7 4.85-.8.85-2.05 1.1l-.35.05-.4-.25" fill="#a79e76" fill-rule="evenodd" transform="translate(0 .25)"/><path d="m39.25 14.5.8.65q.95.7 1.9 1.5-1.05 1.15-5.2 2.4l6.15-1.65 2.25 1.75 4.9 3.9.75.55 6.5 5.05L73.15 41.3l-.15.1.4 3-16.95 20.25.2-.25q-.35-3.1-2.2-7.3 1.1 4.3 1 8.75l-3.85 4.6-2.55.15L14.9 43.4l1-5.7-.1-.05 7.4-8.8q.45 1.55.15 6.3Q24 28 24.9 26.8l3.15-3.75 5.2-6.15 1.05-1.25v-.05.05l4.95-1.15M57.3 28.65l.3.25-.3-.25m-6.45 3.2L42.4 25.1 32.25 37.15l-5.35 6.4.85.7 3.85 3.1 14.3 11.4.2-.25 15.3-18.15-10.55-8.5" fill="#c2bfa3" fill-rule="evenodd" transform="translate(0 .25)"/><path d="m33.15 16.85.1.05-5.2 6.15v-.1l5.1-6.1m24.15 11.8.3.25-.3-.25" fill="#ccc" fill-rule="evenodd" transform="translate(0 .25)"/><path d="m56.8 28.25.5.4-.5-.4" fill="#acacac" fill-rule="evenodd" transform="translate(0 .25)"/><path d="m74.15 40.7-2.7-8.8-3.4-4.8-16.7-13.15-.2-.1L33.9.25l-1.2.2m-21.15 38.2-2.9-8.55 1.15-4.85L30.65.75l2.05-.3m-19.65 40.5-1.5-2.2v-.1m3.35 5 34.15 27.2 2.55-.15 3.85-4.6m1-1.2L73.4 44.65M32.25 37.4 42.4 25.35l8.45 6.75m-18.6 5.3L40.5 44l.25-.25 10.1-11.65M14.9 43.65l-.15-.15-1.6-2.4m61-.4.7 2.25-1.45 1.7M56.45 64.9l-1 1.2" fill="none" stroke="#694634" stroke-linecap="round" stroke-linejoin="round" stroke-width=".5"/><path d="m49.3 30.35-12.6 14.6q-4.35 1.2-4.55-2.8l12.9-15 4.25 3.2" fill="#95410f" fill-rule="evenodd" transform="translate(0 .25)"/><path d="M49.3 30.6 36.7 45.2m-4.55-2.8 12.9-15" fill="none" stroke="#54483a" stroke-linecap="round" stroke-linejoin="round" stroke-opacity=".702" stroke-width=".05"/><path d="M39.8 26.6h-.05l-1.25.35-.05-.05 2.15-.7-.8.4m6.6 1.3.85.45-.65-.3-.2-.15" fill="#6a5a40" fill-rule="evenodd" transform="translate(0 .25)"/><path d="m40.6 26.2 1.05-.55.25-.35 1.4.2q1.55 1.15 3.1 2.4l.2.15-4.55-1.95-2.25.5.8-.4" fill="#948f61" fill-rule="evenodd" transform="translate(0 .25)"/><path d="M39.8 26.85h-.05l-1.25.35m-.05-.05 2.15-.7 1.05-.55.25-.35 1.4.2q1.55 1.15 3.1 2.4l.85.45.5.3m-1.15-.6-4.55-1.95-2.25.5.8-.4m6 1.85-.2-.15m.85.45-.65-.3" fill="none" stroke="#0b0a16" stroke-linecap="round" stroke-linejoin="round" stroke-opacity=".302" stroke-width=".5"/><path d="m28.5 44.95-.05.1-.55-1.15.35.35v.05l.25.65m1.15-5.3.45-.65-.25.5-.2.15" fill="#6a5a40" fill-rule="evenodd" transform="translate(0 .25)"/><path d="m27.9 43.9-.4-.45-.3-.1.2-.9 2.25-2.8.2-.15L27.9 43l.35 1.25-.35-.35" fill="#948f61" fill-rule="evenodd" transform="translate(0 .25)"/><path d="m28.45 45.3-.55-1.15-.4-.45-.3-.1.2-.9 2.25-2.8.45-.65.3-.45m-2.15 5.7v.05l.25.65m1.35-5.45-.2.15m.2-.15-1.95 3.5.35 1.25-.35-.35m2.2-4.9-.25.5" fill="none" stroke="#0b0a16" stroke-linecap="round" stroke-linejoin="round" stroke-opacity=".302" stroke-width=".5"/><path d="m37.2 44.8-.2.65q-.45.5-1.4.3-1-.25-1.95-1.05t-1.3-1.75q-.35-.9.1-1.4.2-.3.6-.35M55.4 22.1l-.2.65q-.45.5-1.4.3-1-.25-1.95-1.05t-1.3-1.75q-.35-.9.1-1.4.2-.3.6-.35" fill="none" stroke="#000" stroke-linecap="round" stroke-linejoin="round" transform="translate(0 .25)"/><path d="M51.7 16.65v-.05.05m-.45.95.1.05.05.45-.15-.5m4 4.5.3.1.85.05.45-.05v.1l-.35.05-1.05-.15-.2-.1" fill="#f4b940" fill-rule="evenodd" transform="translate(0 .25)"/><path d="m51.7 16.6.1-.1 2.3-.1q1.3.5 2.45 1.65 1.1 1.1 1.4 2.3v.95l-.6.75-.4.25h-.1v-.1l-.45.05-.85-.05-.3-.1h-.2l-.15-.15-.7-.5-.2-.05-.1-.1-.95-.75-.35-.35q-1.05-1.15-1.15-1.7l-.05-.4-.05-.45-.1-.05.1-.6.05-.05.1-.15.2-.15v-.05m1.25.4q-.4.35-.1 1.15l1.2 1.55q.85.75 1.75 1.05l1.3-.05q.35-.35.05-1.15T56 18t-1.75-1.05l-1.3.05" fill="#4d433a" fill-rule="evenodd" transform="translate(0 .25)"/><path d="m56.95 22.3-.05.3-.4.55-2.05-.15-.05-.05q-1.35-.55-2.5-1.7l-1.2-1.6-.3-.65-.05-.2q-.4-1.2.25-1.6.3-.25.75-.2l-.1.6.15.5.05.4q.1.55 1.15 1.7l.35.35.95.75.1.1.2.05.7.5.15.15h.2l.2.1 1.05.15.35-.05h.1m-4-5.3 1.3-.05q.9.3 1.75 1.05t1.15 1.55-.05 1.15l-1.3.05q-.9-.3-1.75-1.05l-1.2-1.55q-.3-.8.1-1.15" fill="#7e6c61" fill-rule="evenodd" transform="translate(0 .25)"/><path d="m51.7 16.85.1-.1 2.3-.1q1.3.5 2.45 1.65 1.1 1.1 1.4 2.3v.95l-.6.75-.4.25-.05.3-.4.55-2.05-.15-.05-.05q-1.35-.55-2.5-1.7l-1.2-1.6-.3-.65-.05-.2q-.4-1.2.25-1.6.3-.25.75-.2l.05-.05.1-.15.2-.15v-.05m-.45 1 .1-.6m5.5 5.3h.1m-5.55-4.2-.15-.5m1.7-.6 1.3-.05q.9.3 1.75 1.05t1.15 1.55-.05 1.15l-1.3.05q-.9-.3-1.75-1.05l-1.2-1.55q-.3-.8.1-1.15m3.9 5.3-.35.05-1.05-.15-.2-.1" fill="none" stroke="#54483a" stroke-linecap="round" stroke-linejoin="round" stroke-opacity=".702" stroke-width=".05"/></g></defs></svg>