<svg viewBox="0 0 99.702 102.72" xmlns="http://www.w3.org/2000/svg" xmlns:xlink="http://www.w3.org/1999/xlink"><use width="99.7" height="102.75" xlink:href="#a"/><defs><g id="a"><path d="M300.35 169.8q-.7-2.35.4-3.45 1.1-1.15 3.45-.4 2.35.7 4.45 2.85 2.15 2.1 2.85 4.45.7 2.3-.4 3.45-1.1 1.1-3.45.4t-4.45-2.85q-2.15-2.1-2.85-4.45" fill="#868a91" fill-rule="evenodd" transform="translate(-225.1 -149.1)"/><path d="M75.25 20.7q.7 2.35 2.85 4.45 2.1 2.15 4.45 2.85t3.45-.4q1.1-1.15.4-3.45-.7-2.35-2.85-4.45-2.1-2.15-4.45-2.85-2.35-.75-3.45.4-1.1 1.1-.4 3.45z" fill="none" stroke="#000" stroke-linecap="round" stroke-linejoin="round" stroke-opacity=".6" stroke-width=".6"/><path d="m256.85 176.6 10.05-10.1 6.1-6.05 11.05-11.05 28.35 28.4 1.25 4.75 2.35-1.15 8.5 8.5-11.25 11.25-7.55 1.25.35 5.95-4.3 4.25-6.75 2.15-18.5-18.5-1.1-8-.45.2-.15.1-4.2 1.8-13.75-13.75m57.5 14.75-.7-8.8.7 8.8M286.4 176.7l-7.65 1.45-3.8 10.3 3.8-10.3-5.75-10.6-6.1-1.05 6.1 1.05 5.75 10.6 7.65-1.45M273 160.45v7.1-7.1" fill="#ba995c" fill-rule="evenodd" transform="translate(-225.1 -149.1)"/><path d="M294.15 230.55 254.5 190.9l2.35-14.3 13.75 13.75 4.2-1.8.15-.1.45-.2 1.1 8 18.5 18.5 1.45 6-2.3 9.8" fill="#846937" fill-rule="evenodd" transform="translate(-225.1 -149.1)"/><path d="m324.5 189.9-3.05 13.35-27.3 27.3 2.3-9.8-1.45-6 6.75-2.15 4.3-4.25-.35-5.95 7.55-1.25 11.25-11.25" fill="#cfb88d" fill-rule="evenodd" transform="translate(-225.1 -149.1)"/><path d="m50.3 39.15-.45.2m-.15.1-4.2 1.8" fill="none" stroke="#ccc" stroke-linecap="round" stroke-linejoin="round" stroke-width=".05"/><path d="m80.6 53.3 7.55-1.25" fill="none" stroke="#c5c5c5" stroke-linecap="round" stroke-linejoin="round" stroke-width=".05"/><path d="m71.35 71.65-1.45-6m11.05-6.4-.35-5.95" fill="none" stroke="#6a6a6a" stroke-linecap="round" stroke-linejoin="round" stroke-width=".05"/><path d="M67.45 63.2 51.4 47.15l-1.1-8m-4.85 2.05-13.7-13.7" fill="none" stroke="#5e5e5e" stroke-linecap="round" stroke-linejoin="round" stroke-width=".05"/><path d="m49.85 39.35-.15.1m.15-.1 3.8-10.3-5.75-10.6-6.1-1.05m6.1 1.05v-7.1m5.75 17.7 7.65-1.45m27.25 5.85.7 8.8" fill="none" stroke="#000" stroke-linecap="round" stroke-linejoin="round" stroke-opacity=".4" stroke-width=".05"/><path d="M69.05 81.45 29.4 41.8l2.35-14.3L41.8 17.4l6.1-6.05L58.95.3 87.3 28.7l1.25 4.75 2.35-1.15 8.5 8.5-3.05 13.35-27.3 27.3" fill="none" stroke="#000" stroke-linecap="round" stroke-linejoin="round" stroke-opacity=".6" stroke-width=".6"/><path d="M262.15 205.45q6.65 3.45 1.4 10.2l1.8 2.3q3.75-6.95 9.15-6.25-8.5 10.45-17.4 20.1 1.55-12.45-8.85-12.95 7.1-6.45 13.9-13.4M249.35 240l-11.05 10.95q1.5-5.4-2.5-10.1-4.25-4.7-9.8-4l12.55-9.7q10.95.85 10.8 12.85m13.35-21.25-3.1 2.25q-2.75 4 1.8 2.45l2.55-3.45-1.2-1.3-.05.05" fill="#797e86" fill-rule="evenodd" transform="translate(-225.1 -149.1)"/><path d="M238.3 250.95q-3.75 2.05-9-3.2-5.45-5.5-3.3-10.9 5.55-.7 9.8 4 4 4.7 2.5 10.1" fill="#4e5156" fill-rule="evenodd" transform="translate(-225.1 -149.1)"/><path d="m262.15 205.45 5.95-6.25q7.15 1.2 9.15 9.15l-2.75 3.35q-5.4-.7-9.15 6.25l-1.8-2.3q5.25-6.75-1.4-10.2m.55 13.3.05-.05 1.2 1.3-2.55 3.45q-4.55 1.55-1.8-2.45l3.1-2.25" fill="#846937" fill-rule="evenodd" transform="translate(-225.1 -149.1)"/><path d="m257.1 231.8-7.75 8.2q.15-12-10.8-12.85l9.7-8.3q10.4.5 8.85 12.95" fill="#d98751" fill-rule="evenodd" transform="translate(-225.1 -149.1)"/><path d="M13.2 101.85q1.5-5.4-2.5-10.1-4.25-4.7-9.8-4" fill="none" stroke="#322b27" stroke-linecap="round" stroke-linejoin="round" stroke-width=".05"/><path d="m49.4 62.6 2.75-3.35q-2-7.95-9.15-9.15l-5.95 6.25M49.4 62.6Q40.9 73.05 32 82.7l-7.75 8.2-11.05 10.95q-3.75 2.05-9-3.2-5.45-5.5-3.3-10.9l12.55-9.7 9.7-8.3q7.1-6.45 13.9-13.4" fill="none" stroke="#000" stroke-linecap="round" stroke-linejoin="round" stroke-opacity=".6" stroke-width=".6"/></g></defs></svg>