<svg width="91" height="98" viewBox="229.6 151.5 91.25 97.6" xmlns="http://www.w3.org/2000/svg" xmlns:xlink="http://www.w3.org/1999/xlink"><defs><g id="a"><path d="M312.6 195.7q-1.55 2.2-3.7 4.35l-.6.6q.8-.35 1.55-.6 5.25-1.7 8 .35.3.2.6.5l.2.15.65.95q1.55 2.7 0 7.5-1.8 5.75-7.15 11.15-5.4 5.35-11.25 7.25-5.75 1.8-8.5-.95t-.9-8.5q1.9-5.85 7.25-11.2l.5-.5-.65.25-.9.35q-5.8 1.85-8.55-.9l-1-1.4q-1.35-2.65.1-7.15 1-3.05 2.95-6 1.75-2.65 4.3-5.2 5.35-5.35 11.15-7.15 4.3-1.45 6.95-.35.9.4 1.65 1.15 2.7 2.75.8 8.6-1.1 3.45-3.45 6.75" fill="#7e5e45"/><path d="M317.85 200.4q-2.75-2.05-8-.35-.75.25-1.55.6l.6-.6q2.15-2.15 3.7-4.35l5.25 4.7m-4.25-21.2q-2.65-1.1-6.95.35-5.8 1.8-11.15 7.15-2.55 2.55-4.3 5.2l-29.25-24.8q2.15-3.9 6.7-8.45 3.9-3.85 8.35-5.35 5.1-1.8 6.05-1l30.55 26.9m-25.45 25.85 1 1.4q2.75 2.75 8.55.9l.9-.35.15.25q-5.35 5.35-7.25 11.2-1.85 5.75.9 8.5L277 213.5q-3.7-6.45 3.5-15.35l7.65 6.9m.1-23.75q.1-9.7 6.05-15.35-12.3-2.65-22.4 1.3l16.35 14.05" fill="#b49276"/><path d="M291.2 191.9q-1.95 2.95-2.95 6-1.45 4.5-.1 7.15l-7.65-6.9q-7.2 8.9-3.5 15.35l-15.4-13.45-.6-.5q-2.75-2.75-.9-8.5 1.25-3.9 4.05-7.55l-3.05-2.9q-.6-.6-.9-4.05-.35-4 .5-6.6.45-1.4 1.25-2.85l29.25 24.8m-10.7 6.25-16.35-14.65 16.35 14.65" fill="#ceb8a6"/><path d="m288.25 181.3-16.35-14.05q10.1-3.95 22.4-1.3-5.95 5.65-6.05 15.35" fill="#6c523c"/><path d="M312.6 195.7q-1.55 2.2-3.7 4.35l-.6.6q.8-.35 1.55-.6 5.25-1.7 8 .35m-53.7-16.9 16.35 14.65 7.65 6.9" fill="none" stroke="#5c4510" stroke-width=".5"/><path d="M277 213.5q-3.7-6.45 3.5-15.35" fill="none" stroke="#865b17" stroke-width=".5"/><path d="M288.25 181.3q.1-9.7 6.05-15.35-12.3-2.65-22.4 1.3l16.35 14.05" fill="none" stroke="#ceb8a6" stroke-width=".5"/><path d="m317.85 200.4-5.25-4.7q2.35-3.3 3.45-6.75 1.9-5.85-.8-8.6-.75-.75-1.65-1.15m-21.2 47.75q2.75 2.75 8.5.95 5.85-1.9 11.25-7.25 5.35-5.4 7.15-11.15 1.55-4.8 0-7.5l-.65-.95-.2-.15q-.3-.3-.6-.5m-55.9-33.3q2.15-3.9 6.7-8.45 3.9-3.85 8.35-5.35 5.1-1.8 6.05-1l30.55 26.9M277 213.5l-15.4-13.45-.6-.5q-2.75-2.75-.9-8.5 1.25-3.9 4.05-7.55l-3.05-2.9q-.6-.6-.9-4.05-.35-4 .5-6.6.45-1.4 1.25-2.85m30.45 59.85L277 213.5" fill="none" stroke="#000" stroke-opacity=".6" stroke-width=".6"/><path d="M244.55 231.7q20.05-15.55 34.15-34.65 5.45 1.45 5.4 8.45-16.15 20.65-34.35 37.85-.9-8.5-5.2-11.65" fill="#8d3d3d"/><path d="M244.55 231.7q-2.75-2.05-6.8-1.9 20.15-14.25 37.5-33.15l3.45.4q-14.1 19.1-34.15 34.65" fill="#ba7441"/><path d="m278.7 197.05-3.45-.4q-17.35 18.9-37.5 33.15 4.05-.15 6.8 1.9m34.15-34.65q5.45 1.45 5.4 8.45-16.15 20.65-34.35 37.85-.9-8.5-5.2-11.65" fill="none" stroke="#000" stroke-opacity=".6" stroke-width=".6"/><path d="M232.85 236.55q-.45-4.1 2.2-6.75t6.85-2.25q3.95.35 7.15 3.5 3.15 3.15 3.6 7.25.25 4.1-2.35 6.75-2.65 2.65-6.65 2.3-4.2-.4-7.35-3.55-3.2-3.15-3.45-7.25" fill="#6c523c"/><path d="M232.85 236.55q.25 4.1 3.45 7.25 3.15 3.15 7.35 3.55 4 .35 6.65-2.3 2.6-2.65 2.35-6.75-.45-4.1-3.6-7.25-3.2-3.15-7.15-3.5-4.2-.4-6.85 2.25t-2.2 6.75" fill="none" stroke="#000" stroke-opacity=".6" stroke-width=".6"/><path d="M237.65 234.75q1.05 1.55-.2 1.6-1.25 0-2.3-1.05t-1.05-2.55 1.05-2.55q1.05-1.1 2.55-1.1t2.55 1.1q1.05 1.05-1.3 2.05-2.35.9-1.3 2.5" fill="#b5a89d"/><path d="M229.9 242.3q-.3-2.55 1.3-4.2 1.65-1.65 4.25-1.4 2.45.2 4.45 2.2 1.9 1.9 2.2 4.45.15 2.5-1.45 4.15-1.65 1.6-4.1 1.4-2.6-.25-4.55-2.15-1.95-1.95-2.1-4.45" fill="#6c523c"/><path d="M229.9 242.3q.15 2.5 2.1 4.45 1.95 1.9 4.55 2.15 2.45.2 4.1-1.4 1.6-1.65 1.45-4.15-.3-2.55-2.2-4.45-2-2-4.45-2.2-2.6-.25-4.25 1.4-1.6 1.65-1.3 4.2" fill="none" stroke="#000" stroke-opacity=".6" stroke-width=".6"/><path d="M234.3 243.55q1.05 1.55-.2 1.6-1.25 0-2.3-1.05t-1.05-2.55 1.05-2.55q1.05-1.1 2.55-1.1t2.55 1.1q1.05 1.05-1.3 2.05-2.35.9-1.3 2.5" fill="#b5a89d"/></g></defs><use xlink:href="#a"/></svg>