<svg width="51" height="51" viewBox="249.52 174.75 50.864 51.487" xmlns="http://www.w3.org/2000/svg" xmlns:xlink="http://www.w3.org/1999/xlink"><defs><g id="a"><path d="m2.15 73.55.05.1.1.35.1.25-.25-.7m.8 1.45.25.2h.05l-.2-.1-.1-.1" fill="#824f3e"/><path d="m2.15 78.35-1.2-.8-.55-.75-.25-.45H.2l.55.1q1.1.15 1.8-.55l.5-.8.2.1 1.05.5.4.05v.2q.1 1.1-.6 1.8-.75.7-1.85.6h-.1" fill="#3c271e"/><path d="m.2 76.35-.05-.15-.1-.2-.05-.45q-.05-.7.2-1.2l.4-.55q.6-.6 1.45-.6l.05.05v.1l.05.15v.05l.25.7.05.05v.05l.05.05.15.25.3.35.1.1-.5.8q-.7.7-1.8.55l-.55-.1" fill="#5c3a2e"/><path d="m4.7 75.75.5.1h.05l.05.25q.05 1.1-.65 1.8t-1.8.55h-.3l-.05-.05H2.35l-.2-.05h.1q1.1.1 1.85-.6.7-.7.6-1.8v-.2" fill="#301f18"/><path d="m4.7 75.75.5.1h.05l.05.25q.05 1.1-.65 1.8t-1.8.55h-.3l-.05-.05H2.35l-.2-.05-1.2-.8-.55-.75-.25-.45H.2l-.05-.15-.1-.2-.05-.45q-.05-.7.2-1.2l.4-.55q.6-.6 1.45-.6l.05.05v.1l.05.15v.05m.25.7.05.05v.05l.05.05.15.25.3.35m.3.2 1.05.5.4.05m-1.65-.65.2.1m-.2-.1-.1-.1m-.55-.75-.25-.7" fill="none" stroke="#000" stroke-width=".5"/><path d="m31.6 44.8 1.15 4.15-7.95 8.45-2.35 2.45-14.3 15.7-4.3-2.65L31.6 44.8" fill="#563c2b"/><path d="m31.25 43.6.35 1.2L3.85 72.9l-1.6-1.05 4.5-4.1q10.3-9.5 24.5-24.15" fill="#6d4936"/><path d="m31.6 44.8-.35-1.2 4.35-4.45.6-.7.45-.5.3-.15 1.3-.2.4.05q1.05.2 2.7 2.35l-.05.05-5.4 5.6-3.15 3.3-1.15-4.15" fill="#442e22"/><path d="m32.75 48.95 3.15-3.3 5.4-5.6.05-.05m-3.1-2.4-1.3.2m-.3.15-.45.5-.6.7-4.35 4.45q-14.2 14.65-24.5 24.15l-4.5 4.1m30.5-22.9L24.8 57.4l-2.35 2.45-14.3 15.7M36.95 37.8l-.3.15" fill="none" stroke="#000" stroke-width=".5"/><path d="m5 70.4-.4-1.15.25.75.15.4m1.15 1.45-.2-.2.4.35-.2-.15" fill="#824f3e"/><path d="m1.3 73.95.95.15q1.8.2 3-.95l.9-1.3.2.15.05.05 1.8.8.6.1.05.35q.15 1.8-1.05 3-1.2 1.15-3 .95h-.2q-1.1-.4-2.05-1.35l-.9-1.2-.35-.75" fill="#563c2b"/><path d="m5 70.4.1.15.05.05.05.1.25.4.5.55.2.2-.9 1.3q-1.2 1.15-3 .95l-.95-.15v-.05l-.05-.25-.15-.35-.1-.7h.05q-.15-1.15.3-2l.7-.95q.95-.95 2.4-1l.05.1v.15l.1.25v.1L5 70.4" fill="#694634"/><path d="m8.8 72.95.5.1H9.7v.05l.05-.05.1.45q.1 1.85-1.05 3-1.25 1.15-3.05.95l-.45-.05-.1-.05h-.15l-.1-.05-.35-.05h.2q1.8.2 3-.95 1.2-1.2 1.05-3l-.05-.35" fill="#3c271e"/><path d="m5.95 71.65-.5-.55-.25-.4-.05-.1-.05-.05-.1-.15-.4-1.15v-.1l-.1-.25v-.15l-.05-.1q-1.45.05-2.4 1l-.7.95q-.45.85-.3 2H1l.1.7.15.35.05.25v.05m4.85-2.1-.2-.2m.4.35.05.05 1.8.8.6.1.5.1H9.7v.05l.05-.05.1.45q.1 1.85-1.05 3-1.25 1.15-3.05.95l-.45-.05-.1-.05h-.15l-.1-.05-.35-.05q-1.1-.4-2.05-1.35l-.9-1.2-.35-.75M6.35 72l-.2-.15" fill="none" stroke="#000" stroke-width=".5"/><path d="m15.85 57.65 1.2-1.05q-.4.6 0 1.65.5 1.1 1.65 2.05 1.2.9 2.35 1.05l.55.05-1.2.6-2.65.25 1.65.75-1.7 1.75Q15.05 62.5 15.1 62q0-.75 1.85.75-2-2.9-1.45-3.9l.35-1.2m-9 15.5-.45-.3q-1.15-.95-1.65-2.05-.4-1.05-.2-1.8l1.55-1.75q.7 2.95 2.1 5.7l-1.35.2m2.3-9.2.1-.1.15.65.75 1.05.25-1.05.9-2.2 1 1.55q.4.65-.2 2.05l.7-1.85.5.05 2.3 1.7-2.35.35 1 .15q.4.1.75 1 .3.9-4.8.45l2.9 1.8.1.85-4.8-.2 1.65 1.6.65.8-2.45.35q-.7-3.7-.2-5.85.55-2.3 1.2-2.45l-.1-.7m3.75-3.65.1-.15v1.25l1.9 2.75-1.6-.05-.1-.1h-.4q.45-1.65-.05-2.75l-.05-.05.2-.9" fill="#4d433a"/><path d="m6.1 67.25 3.05-3.3.1.7q-.65.15-1.2 2.45-.5 2.15.2 5.85H8.2q-1.4-2.75-2.1-5.7m3.15-3.4 3.65-3.55-.2.9.05.05q.5 1.1.05 2.75h-.1l.1.05-.7 1.85q.6-1.4.2-2.05l-1-1.55-.9 2.2-.25 1.05-.75-1.05-.15-.65m3.75-3.7 2.85-2.5-.35 1.2q-.55 1 1.45 3.9-1.85-1.5-1.85-.75-.05.5 2.6 2.75l-2.8-.6L13 61.4v-1.25" fill="#5c5047"/><path d="m21.6 61.4.65-.15-2.2 3.05-.55.75-.7.9q-2.75 3.15-8.8 7.9l-1.25.05-1.9-.75 1.35-.2h.05l2.45-.35-.65-.8-1.65-1.6 4.8.2-.1-.85-2.9-1.8q5.1.45 4.8-.45-.35-.9-.75-1l-1-.15 2.35-.35-2.3-1.7-.5-.05-.1-.05h.5l.1.1 1.6.05 2.8.6L19.4 63l-1.65-.75L20.4 62l1.2-.6" fill="#362f29"/><path d="m15.85 57.65 1.2-1.05q-.4.6 0 1.65.5 1.1 1.65 2.05 1.2.9 2.35 1.05l.55.05.65-.15-2.2 3.05-.55.75-.7.9q-2.75 3.15-8.8 7.9l-1.25.05-1.9-.75-.45-.3q-1.15-.95-1.65-2.05-.4-1.05-.2-1.8l1.55-1.75 3.05-3.3.1-.1 3.65-3.55.1-.15 2.85-2.5" fill="none" stroke="#000" stroke-width=".5"/><path d="m22.4 60.1-.25.75q-.45.5-1.45.25-.95-.25-1.95-1.1t-1.4-1.8q-.35-.95.1-1.45.25-.3.65-.35M10.9 73.1l-.3.95q-.6.65-1.9.35T6.15 73q-1.3-1.1-1.8-2.35t.1-1.9l.8-.45" fill="none" stroke="#000"/><path d="m39.75 46.3.65-9.8 9.45-10.95L62.5 20l8.55 3.1v.1l-.05.75-.55 9-.05.05-.4.45-2.45 2.85-.4.45-6.05 7.1-2.1.9-1.25.55-9.3 4-.1.05-8.6-3.05" fill="#302925"/><path d="m71.05 23.2 6.3 8.75V32l.25.5v.5L71 23.95l.05-.75" fill="#6d5f54"/><path d="m70 33.45.4-.45 3.7 5.25v-.05l2.95 4.15-.25.3-6.3-8.75-.5-.45" fill="#4d433a"/><path d="m77.6 33-.5 9.4-.05-.05-2.95-4.15v.05L70.4 33l.05-.05.55-9L77.6 33m-1.8 10.85-7.85 9.1-4.05-7.9 3.25-8.3.4-.45L70 33.45l.5.45 6.3 8.75-1 1.2" fill="#d7a925"/><path d="m67.9 53-.25.25-7.9 3.35-4.95 2.05-3.4-4.8h.2l-2.15-3.1 8.3-5.45 1.25-.55 2.1-.9 2.1 2.9.15.2 2.5 3.5.15-.05 1.9 2.6" fill="#895f2c"/><path d="m67.95 52.95.25.5-.3-.45.05-.05-.05.05-1.9-2.6-.15.05-2.5-3.5-.15-.2-2.1-2.9 6.05-7.1-3.25 8.3 4.05 7.9m-19.5-3.65 9.3-4-8.3 5.45-1-1.45" fill="#e3b61c"/><path d="m54.8 58.65-8.4-3-1-1.4-5.7-8 .05.05 8.6 3.05.1-.05 1 1.45 2.15 3.1h-.2l3.4 4.8" fill="#573c1c"/><path d="M59.75 56.6 55 58.7l-.2-.05 4.95-2.05" fill="#8e8e8e"/><path d="m39.75 46.3.65-9.8 9.45-10.95L62.5 20l8.55 3.1v.1l6.3 8.75m0 .05.25.5v.5l-.5 9.4-.3.25-1 1.2-7.85 9.1-.05.05-1.9-2.6m1.9 2.6-.25.25-7.9 3.35M55 58.7l-.2-.05-8.4-3-1-1.4-5.7-8m.05.05 8.6 3.05.1-.05 9.3-4m1.25-.55 2.1-.9 6.05-7.1m.4-.45L70 33.45l.4-.45.05-.05.55-9 .05-.75M63.2 46.75l-2.1-2.9m4.75 6.6-2.5-3.5m-14.9 2.35 1 1.45 2.15 3.1m-.2 0 3.4 4.8 4.95-2.05M74.1 38.2l2.95 4.15.05.05M70.4 33l3.7 5.25M57.75 45.3l1.25-.55m8.15-8 .4-.45m-4.2 10.65-.15-.2" fill="none" stroke="#000" stroke-width=".5"/><path d="m76.8 42.65-6.3-8.75m.5-9.95L77.6 33" fill="none" stroke="#bea588" stroke-width=".5"/><path d="m50.5 23.9 1.8-1.45 5.85.3 11.3 1.55.05.05.2 6.45.8.5-.1 1.85-19.9-9.25" fill="#6d5f54"/><path d="m52.3 22.45-.5-.95 10.65-1.65 8.45 3.4-12.75-.5-5.85-.3" fill="#897469"/><path d="m46.6 26.95 2.15-1.7L61.15 44l-12.6 5.5-1.95-22.55" fill="#443c35"/><path d="m61.15 44-12.4-18.75 1.75-1.35 19.9 9.25.15.05-9.4 10.85V44" fill="#4d433a"/><path d="m40.15 45.7-.35.7.1-10.1 3.5-7.75.95.1-4.2 17.05" fill="#211d1b"/><path d="m46.6 26.95 1.95 22.55-8.8-2.95.4-.85 4.2-17.05 2.25-1.7" fill="#302925"/><path d="m70.9 23.25.15.15-.55 7.9-.8-.5-.2-6.45-.05-.05-11.3-1.55 12.75.5" fill="#bea588"/><path d="m48.55 49.5 12.6-5.5" fill="none" stroke="#000" stroke-width=".5"/><path d="m52.5 22.55-.5-.95 10.6-1.7 8.5 3.4-12.75-.5-5.85-.25m18.2 8.8-.1 1.85-1.5-.7.8-1.65.8.5" fill="#cba652"/><path d="m70.6 33.2.15.05L61.4 44.1l-.05-.05-12.4-18.75 1.75-1.35 18.4 8.55 1.5.7" fill="#bf8e3b"/><path d="M61.4 44.1h-.05v-.05l.05.05" fill="#4d433a"/><path d="m61.35 44.05-12.6 5.55-1.85-21.1-.1-1.55 2.15-1.65 12.4 18.75" fill="#895f2c"/><path d="m40.35 45.7-.35.75.05-10.15 3.6-7.7.9.1-4.2 17" fill="#211d1b"/><path d="m44.55 28.7 2.25-1.75.1 1.55-2.35.2" fill="#302925"/><path d="m48.75 49.6-8.8-3 .4-.9 4.2-17 2.35-.2 1.85 21.1" fill="#573c1c"/><path d="m58.35 22.8 12.75.5.15.2-.55 7.85-.8-.5-.25-6.5v-.05l-11.3-1.5" fill="#e3b61c"/><path d="m52.5 22.55 5.85.25 11.3 1.5v.05l.25 6.5-.8 1.65-18.4-8.55 1.8-1.4" fill="#d7a925"/><path d="m61.35 44.05-12.6 5.55" fill="none" stroke="#000" stroke-width=".5"/><path d="M58.95 48q.8-.4 1.7 0 .95.35 1.5 1.2l.45.7q.55.9.45 1.75-.15.8-.9 1.15l-4.8 2.1q-.75.3-1.65 0-.9-.4-1.45-1.3l-.45-.65q-.65-.9-.5-1.7.15-.85.95-1.2l4.7-2.05" fill="#a46b35"/><path d="m31.3 29.3-.1.05-8.6-3.05.65-9.8L32.7 5.55 45.35 0l8.55 3.1v.1l-.05.75-.55 9-.05.05-.4.45-2.45 2.85-.4.45-6.05 7.1-2.1.9-1.25.55-9.3 4" fill="#302925"/><path d="M34.25 33.85h.2l-2.15-3.1 8.3-5.45 1.25-.55 2.1-.9 2.1 2.9.15.2 2.5 3.5.15-.05 1.9 2.6-.25.25-7.9 3.35-4.95 2.05-3.4-4.8" fill="#895f2c"/><path d="M34.45 33.85h-.2l3.4 4.8-8.4-3-1-1.4-5.7-8 .05.05 8.6 3.05.1-.05 1 1.45 2.15 3.1" fill="#573c1c"/><path d="m32.3 30.75-1-1.45 9.3-4-8.3 5.45m18.5 2.2.25.5-.3-.45.05-.05-.05.05-1.9-2.6-.15.05-2.5-3.5-.15-.2-2.1-2.9 6.05-7.1-3.25 8.3 4.05 7.9" fill="#e3b61c"/><path d="m53.9 3.2 6.3 8.75V12l.25.5v.5l-6.6-9.05.05-.75" fill="#6d5f54"/><path d="m60.45 13-.5 9.4-.05-.05-2.95-4.15v.05L53.25 13l.05-.05.55-9 6.6 9.05m-1.8 10.85-7.85 9.1-4.05-7.9 3.25-8.3.4-.45 2.45-2.85.5.45 6.3 8.75-1 1.2" fill="#d7a925"/><path d="m53.25 13 3.7 5.25v-.05l2.95 4.15-.25.3-6.3-8.75-.5-.45.4-.45" fill="#4d433a"/><path d="m42.6 36.6-4.75 2.1-.2-.05 4.95-2.05" fill="#8e8e8e"/><path d="m34.45 33.85-2.15-3.1-1-1.45-.1.05-8.6-3.05.65-9.8L32.7 5.55 45.35 0l8.55 3.1v.1l6.3 8.75m-37.65 14.3 5.7 8 1 1.4 8.4 3-3.4-4.8M60.2 12l.25.5v.5l-.5 9.4-.3.25-1 1.2-7.85 9.1-.05.05-1.9-2.6m1.9 2.6-.25.25-7.9 3.35m-4.75 2.1-.2-.05 4.95-2.05M53.9 3.2l-.05.75-.55 9-.05.05 3.7 5.25m-8.25 12.2-2.5-3.5m-.15-.2-2.1-2.9-2.1.9m15.1-6.55 2.95 4.15.05.05m-6.7-9.4-.4.45-2.45 2.85m-.4.45-6.05 7.1M40.6 25.3l-9.3 4M50.4 16.3l-.4.45m-3.8 10.2-.15-.2m-4.2-2-1.25.55" fill="none" stroke="#000" stroke-width=".5"/><path d="m53.85 3.95 6.6 9.05m-7.1.9 6.3 8.75" fill="none" stroke="#bea588" stroke-width=".5"/><path d="M41.8 28q.8-.4 1.7 0 .95.35 1.5 1.2l.45.7q.55.9.45 1.75-.15.8-.9 1.15l-4.8 2.1q-.75.3-1.65 0-.9-.4-1.45-1.3l-.45-.65q-.65-.9-.5-1.7.15-.85.95-1.2L41.8 28" fill="#a46b35"/><path d="m53.35 14.15 6 8.1m-4.9-17.2 5.9 8.75m10.05 20 5.9 8m-5.05-17.35 6.05 8.75" fill="none" stroke="#fc3"/></g></defs><use transform="translate(249.55 174.75) scale(.65504)" xlink:href="#a"/></svg>