<svg width="119" height="144" viewBox="227.25 123.95 119.45 143.75" xmlns="http://www.w3.org/2000/svg" xmlns:xlink="http://www.w3.org/1999/xlink"><defs><g id="a"><path d="M327.15 159.25q.6.6 1.45.55.85.05 1.45-.55t.65-1.55q0-.8-.6-1.4t-1.5-.7q-.9.1-1.5.7t-.6 1.4q.05.95.65 1.55m12.7 18q-1.15 2.25-2.95 4.25l-2.75 2.85q5.6 9.9-.55 16.25-1.5 1.4-3.2 2.4 4.95-4.95 2.5-10.9l-5.15-7.65-4.25 5.45q-9.75 1.45-21.25-8.75L299.3 179l-8.15-6.05-1.1-.8q-1.7-2.3-.5-3.3l13.95 10.75 1.25 1.35 23.3-29.6 4.85 4.85q9.2 7.7 6.95 21.05M245 263.4q2.2 4.3-1.55 2.65l-1.4-1.2-12.95-11.05-1.25-1.05q-.6-1.3 0-1.8l11.6 10q2.3 1 1.65-.85l.45.45 3.45 2.85m-4.5 2.1q-3.7.9-7.3-2.4 4 1.4 2.65-1.55l4.65 3.95m41.55-80.95-1.4-1.1q1.8-4 5.3-6.9l9.6 7.3-11.8 1.9-1.7-1.2m31.4-5.6q-.7-.7-1.65-.75-.95.05-1.65.75-.65.65-.65 1.55 0 1 .7 1.7.65.65 1.6.6.95.05 1.6-.6.7-.7.7-1.7 0-.9-.65-1.55m-1.95 13.55q7.55 3.05 11.7 1.6 1.7-.7 1.4-2.1 3.65 3.45 2.35 6.35-3.9 3.4-9.35 3.05l-6.5-2.5.4-6.4m-9.85 4.25-2-2 1.7-3.1 2.1-.4-1.8 5.5" fill="maroon"/><path d="M327.15 159.25q-.6-.6-.65-1.55 0-.8.6-1.4t1.5-.7q.9.1 1.5.7t.6 1.4q-.05.95-.65 1.55t-1.45.55q-.85.05-1.45-.55M274.7 144.8q.5-1.3 1.65-2.45 2.05-2.05 4.9-2.1l.65.05-2.55 3.15q-2.8 2.6-4.65 1.35m10.7-13.8q.55-1.25 1.6-2.3 2.05-2.05 4.95-2.05l.9.1-2.2 2.7-.65.85q-3.35 2.55-4.6.7m28.05 47.95q.65.65.65 1.55 0 1-.7 1.7-.65.65-1.6.6-.95.05-1.6-.6-.7-.7-.7-1.7 0-.9.65-1.55.7-.7 1.65-.75.95.05 1.65.75" fill="#fc0"/><path d="m327.55 149.45.65-.85q18.5 15.7 11.65 28.65 2.25-13.35-6.95-21.05l-4.85-4.85-23.3 29.6-1.25-1.35 24.05-30.15M233.2 263.1l-.9-.9q-3.05-2.85-3.3-6.5l6.85 5.85q1.35 2.95-2.65 1.55m-5.35-12.15q.6-.5 2.15-.35l3.7 3.2 3.75 3.15 3.65 3.15q.65 1.85-1.65.85l-11.6-10m78.65-90.15-.05-.65q0-1 .65-1.65.7-.7 1.7-.7t1.7.7q.5.5.6 1.3-2 2.3-4.6 1" fill="#9b0000"/><path d="m272.55 196.55 1.25-1.55 2.2 3.6-3.45-2.05m7-8.9 1.35-1.75 1.95 1.95-3.3-.2m8.75-11.05 1.4-1.9 8.15 6.15-1.45 1.85-8.1-6.1m1.25-7.75-9.45-7.25 1.35-1.65 22.05 15.75 1.85-2.25-6.15-5.15 1.95-1.95-8.05-6.35.05-2.55 16.35 10.95 13.45-16.45 2.8-3.9 1.8 1.4-24.05 30.15-13.95-10.75m2.9-22.8 8.05 5.75-1.4 1.4-8.2-5.3 1.55-1.85m5.15-6.45 12.5 8.8-1.55 1.55-12.35-8.65 1.4-1.7m.55-4.85-1.3 1.7-7.5-5.4.65-.75.65-.85 7.5 5.3M253.5 232l-1.85-1.35 13.95-18.75 1.1 1.1q-7.6 9.5-13.2 19m-2.1.8 1.5 1.2-3.85 6.05-1.3-1.3 3.65-5.95m-17.7 21 10.95-14.75 1.7 1.7q-6.75 9.45-8.9 16.2l-3.75-3.15" fill="#9e632e"/><path d="m230 250.6 16.9-21.5 4.5 3.7-3.65 5.95 1.3 1.3 3.85-6.05 1.6 1.3q-9.15 13.75-12.95 25.25l-.45-.45-3.65-3.15q2.15-6.75 8.9-16.2l-1.7-1.7-10.95 14.75-3.7-3.2m17.95-22.75L265 206.2l4.85 1.45 3.45.15-17.9 25.6-1.9-1.4q5.6-9.5 13.2-19l-1.1-1.1-13.95 18.75-3.7-2.8m30.3-67.7-7.65-5.95 4-4.9 4.75-5.85 2.55-3.15 3.45-4.25 4-5 7.5 5.4-18.6 23.7m14.6-33.4 2.2-2.8 7.15 5.65-4.05 5.15-7.5-5.3 2.2-2.7m11.35 4.45 21.55 16.85-2.8 3.9-13.45 16.45-16.35-10.95-.05 2.55 8.05 6.35-1.95 1.95 6.15 5.15-1.85 2.25-22.05-15.75 9.45-12.05 8.2 5.3 1.4-1.4-8.05-5.75 3.75-4.75 12.35 8.65 1.55-1.55-12.5-8.8 6.6-8.4m6.9 28.6q-.1-.8-.6-1.3-.7-.7-1.7-.7t-1.7.7q-.65.65-.65 1.65l.05.65.65 1.05q.65.65 1.65.65t1.65-.65q.7-.7.7-1.7l-.05-.35" fill="#ad6c32"/><path d="m311.1 159.8.05.35q0 1-.7 1.7-.65.65-1.65.65t-1.65-.65l-.65-1.05q2.6 1.3 4.6-1" fill="#900"/><path d="M330.4 203q-11.15 6.45-29.75-4.85l-10.4-7.6-6.5-4.8 11.8-1.9-9.6-7.3 1.05-.95 1.3 1 8.1 6.1 9.45 7.15 5.65 2.65-.4 6.4 6.5 2.5q5.45.35 9.35-3.05 1.3-2.9-2.35-6.35-.1-.9-1.1-2.1l4.25-5.45 5.15 7.65q2.45 5.95-2.5 10.9m-72.95 31.95q-1.6.2-1.1 1.8l-1.85-1.45-1.6-1.3-1.5-1.2-4.5-3.7q1.2-.2 1.05-1.25l3.7 2.8 1.85 1.35 1.9 1.4 2.05 1.55m-15.4 29.9-1.55.65-4.65-3.95-6.85-5.85.1-1.9 12.95 11.05m59.6-68.1 1.8-5.5-2.1.4-1.7 3.1 2 2" fill="#600"/><path d="m290.25 190.55-1.9 2.2-5.5-4.9-1.95-1.95 1.15-1.35 1.7 1.2 6.5 4.8m-.55-15.85 1.45-1.75 8.15 6.05-1.45 1.85-8.15-6.15m-9.6-13.1q.75-3.25-1.85-1.45l18.6-23.7 1.3-1.7 4.05-5.15q-.05 3.25 2 1.6l-6.6 8.4-1.4 1.7-3.75 4.75-1.55 1.85-9.45 12.05-1.35 1.65" fill="#57371a"/><path d="M274.6 149.3q-.3-.9-.3-2.1t.4-2.4q1.85 1.25 4.65-1.35l-4.75 5.85m10.75-13.25q-.45-1.15-.4-2.4-.05-1.45.45-2.65 1.25 1.85 4.6-.7l-.65.75-4 5" fill="#f90"/><path d="M288.35 192.75q-20.1 24.5-30.9 42.2l-2.05-1.55 17.9-25.6-3.45-.15-4.85-1.45 7.55-9.65 3.45 2.05-2.2-3.6 5.75-7.35 3.3.2 5.5 4.9m-32 44q-9.8 16.4-11.35 26.65l-3.45-2.85q3.8-11.5 12.95-25.25l1.85 1.45" fill="#724721"/><path d="M327.15 159.25q-.6-.6-.65-1.55 0-.8.6-1.4t1.5-.7q.9.1 1.5.7t.6 1.4q-.05.95-.65 1.55t-1.45.55q-.85.05-1.45-.55m.4-9.8.65-.85q18.5 15.7 11.65 28.65-1.15 2.25-2.95 4.25l-2.75 2.85q5.6 9.9-.55 16.25-1.5 1.4-3.2 2.4-11.15 6.45-29.75-4.85l-10.4-7.6-1.9 2.2q-20.1 24.5-30.9 42.2-1.6.2-1.1 1.8-9.8 16.4-11.35 26.65 2.2 4.3-1.55 2.65l-1.4-1.2-1.55.65q-3.7.9-7.3-2.4l-.9-.9q-3.05-2.85-3.3-6.5l.1-1.9-1.25-1.05q-.6-1.3 0-1.8t2.15-.35l16.9-21.5q1.2-.2 1.05-1.25L265 206.2l7.55-9.65 1.25-1.55 5.75-7.35 1.35-1.75 1.15-1.35-1.4-1.1q1.8-4 5.3-6.9l1.05-.95 1.3 1 1.4-1.9 1.45-1.75-1.1-.8q-1.7-2.3-.5-3.3l-9.45-7.25q.75-3.25-1.85-1.45l-7.65-5.95 4-4.9q-.3-.9-.3-2.1t.4-2.4q.5-1.3 1.65-2.45 2.05-2.05 4.9-2.1l.65.05 3.45-4.25 4-5m3.5-4.3 2.2-2.8 7.15 5.65q-.05 3.25 2 1.6l21.55 16.85 1.8 1.4-24.05 30.15-13.95-10.75m16.95-8.05-.05-.65q0-1 .65-1.65.7-.7 1.7-.7t1.7.7q.5.5.6 1.3l.05.35q0 1-.7 1.7-.65.65-1.65.65t-1.65-.65l-.65-1.05m-15.6-12.9-9.45 12.05-1.35 1.65m33.35 17.35q.65.65.65 1.55 0 1-.7 1.7-.65.65-1.6.6-.95.05-1.6-.6-.7-.7-.7-1.7 0-.9.65-1.55.7-.7 1.65-.75.95.05 1.65.75M296.2 141.3l-3.75 4.75-1.55 1.85m32.6 42q-9.75 1.45-21.25-8.75L299.3 179l-2.9 3.7 9.45 7.15 5.65 2.65q7.55 3.05 11.7 1.6 1.7-.7 1.4-2.1-.1-.9-1.1-2.1m-25.35-55.15-1.3 1.7-18.6 23.7m23.95-30.55-4.05 5.15m-7.5-5.3-.65.85-.65.75m1.3-1.6 2.2-2.7M274.6 149.3l4.75-5.85 2.55-3.15m15.7-.7-1.4 1.7m8-10.1-6.6 8.4m-15.55 44.95 1.7 1.2 6.5 4.8m-1.95-13.95 8.1 6.1m-5.25-9.75 8.15 6.05m-43.9 54.4 2.05 1.55m-5.8-4.3 1.85 1.35 1.9 1.4m-3.75-2.75-3.7-2.8m3.45 4.95 1.5 1.2 1.6 1.3 1.85 1.45M233.7 253.8l3.75 3.15 3.65 3.15.45.45 3.45 2.85m6.4-30.6-4.5-3.7M230 250.6l3.7 3.2m-4.6 0 12.95 11.05" fill="none" stroke="#000" stroke-opacity=".302" stroke-width=".5"/><path d="M285.35 136.05q-.45-1.15-.4-2.4-.05-1.45.45-2.65.55-1.25 1.6-2.3 2.05-2.05 4.95-2.05l.9.1" fill="none" stroke="#000" stroke-opacity=".302" stroke-width=".5"/><path d="m308.4 199-1.55.75.4-4.4-1.6 4.5-2.25-.65 2.4-4.5-.6-2.6.75-2.75q1.25 1.15 3.3 1.7l.65.05q-.15 4.25-1.5 7.9m-4.4-11.5-3.05 1.35-16 2.8 2.4 1 1.85.75-1.3 1.5-3.95.05.35 2.05-9.8-4.2q1.85-1.85 2.85-4.15l2.6 1q9.6-1.5 18.3-4.8l1.25-.65.8.8 3.7 2.5m-5.35 5.05q-1.3 1.9-1.9 3.6l-1.25-.45-2.8-2.5 5.95-.65m-16-1.8-2.7-1.1 2.7 1.1 1 .4 8.55-2.35-9.55 1.95m2.3.9-1.3-.5 1.3.5m1.45 5.05 3.9 6.4q-1.3.8-2.45 2.05l-1.45-8.45m.45 9.65.85 3.05q-2.2.9-3.9 2.6l-1-9.1 2.85-2.85 1.2 6.3m-5.4-2.9q-1.65 1.25-3.2 3.1l-8.3-8 1.2-1.2 8.9 4.8q-1.05-2.45-2.6-4.8l5.4 2.1.2 1.2-2.05 1.95.9.5-.45.35m-15.4.5q.75-1.85.9-3.4l1.15-.15 3.85 3.85-5.9-.3M281 202.6l-.95-.45.95.45" fill="#ead6aa"/><path d="m308.4 199-1.45 3.05q-2.25-1.45-4.5-1.8l-.7-1 2.65-4.35.8-2.8.6 2.6-2.4 4.5 2.25.65 1.6-4.5-.4 4.4 1.55-.75m-4.4-11.5 1.5 1-.15.55-5.2 1.4-8.75 1.65 8.75-1.65-1.5 2.1-5.95.65-.25-.15-1.05-.95-4.05.55-2.4-1 16-2.8 3.05-1.35m-21.35 3.25 9.55-1.95-8.55 2.35-1-.4m5.25 4.15-1.5 1.8-1.05 1.55.3 1.8-.3-1.8-.45.85-.55-.35.55.35.45-.85 1.05-1.55 1.45 8.45-1 1.2-1.2-6.3-2.85 2.85 1 9.1-1.3 1.3-1.05-9.85.45-.35-.9-.5 2.05-1.95-.2-1.2-5.4-2.1-1.85-2.75-1.95-.95.85-.85 9.8 4.2-.35-2.05 3.95-.05m-9.65 11.65-1.15 1.55-2.35-2.35q-4.65.55-9.1-1l.4-.8 5.9.3-3.85-3.85 1.15-.15-.5-.5 1.2-1.2 8.3 8m-2.65-11.95 8.75 4.15-.1 1.1-1.2.8 1.2-.8.1-1.1-8.75-4.15m-6.35 5.65 5.5 5.5-5.5-5.5" fill="#e2ca96"/><path d="m305.2 192.1-.8 2.8-2.65 4.35.7 1q2.25.35 4.5 1.8l1.45-3.05m-3.2-6.9.75-2.75q1.25 1.15 3.3 1.7l.65.05q-.15 4.25-1.5 7.9m-8.25-8.55 5.2-1.4.15-.55-1.5-1-3.7-2.5-.8-.8-1.25.65q-8.7 3.3-18.3 4.8l2.7 1.1 1 .4 1.3.5 2.4 1 4.05-.55 8.75-1.65-1.5 2.1q-1.3 1.9-1.9 3.6l-1.25-.45-2.8-2.5m-.25-.15-1.05-.95m-4.05.55 1.85.75-1.3 1.5-1.5 1.8 3.9 6.4q-1.3.8-2.45 2.05l-1 1.2.85 3.05q-2.2.9-3.9 2.6l-1.3 1.3-1.05-9.85q-1.65 1.25-3.2 3.1l-1.15 1.55-2.35-2.35q-4.65.55-9.1-1l.4-.8q.75-1.85.9-3.4l2.3-.3-.5-.5 2.4-2.4 8.9 4.8q-1.05-2.45-2.6-4.8l-1.85-2.75-1.95-.95.85-.85q1.85-1.85 2.85-4.15l2.6 1m3.1 11 1.2-.8.1-1.1-8.75-4.15m10.05 5.45-.3-1.8-.45.85-.55-.35m-1.3 1.9L281 202.6l.9.5-.45.35m-1.4-1.3.95.45m5.85 3.75-1.2-6.3m.75-3.35-1.05 1.55m-10.6 7.5-5.5-5.5" fill="none" stroke="#000" stroke-opacity=".302" stroke-width=".5"/><path d="M278.85 141.65v.6l-.5.8-.85.55h-.6q-.2-.2 0-.6l.55-.85q.4-.4.8-.5.4-.2.6 0M289.45 127.75v.6l-.5.8-.85.55h-.6q-.2-.2 0-.6l.55-.85q.4-.4.8-.5.4-.2.6 0M328.85 156.25l.15.45-.25.55-.55.25-.45-.15-.15-.45.25-.55q.2-.2.55-.25l.45.15M312.2 179.2l.15.45-.25.55-.55.25-.45-.15-.15-.45.25-.55q.2-.2.55-.25l.45.15" fill="#fff"/><path d="m309.3 158.4.1.5-.2.5-.55.25-.45-.15-.15-.45.25-.55.5-.2.5.1" fill="#fff" fill-opacity=".498"/></g></defs><use xlink:href="#a"/></svg>