<svg width="213" height="238" viewBox="151.6 61.2 212.85 238.3" xmlns="http://www.w3.org/2000/svg" xmlns:xlink="http://www.w3.org/1999/xlink"><defs><g id="f"><path d="M150.55 29.65 139.4 20.5 153.6 0l3.8.65-2.85 10.6L159.4 4l1.8-2.65 3.75.65 2.5 4.65-16.9 23" fill="#a38a3d"/><path d="m167.45 6.65 2.5 4.6-15 22.05-4.4-3.65 16.9-23" fill="#746025"/><path d="m157.4.65 2 3.35-4.85 7.25L157.4.65" fill="#503c01"/><path d="M150.55 29.65 139.4 20.5 153.6 0l3.8.65 2 3.35 1.8-2.65 3.75.65 2.5 4.65 2.5 4.6-15 22.05-4.4-3.65M159.4 4l-4.85 7.25L157.4.65" fill="none" stroke="#000" stroke-opacity=".4" stroke-width=".5"/><path d="M210.65 65.75q.1 27.7-38.15 56.1-8.65 6.45-19.9 11L139 88.9q29.6-17.6 36.9-38.5l1.75-5.45L199.3 55.2l11.35 10.55M162.5 35.2l7.35 6.75q-1.05 7.6-9.05 17.3-10.85 13.35-29.9 25.1l-1.45-6.75q28.8-24.1 33.05-42.4" fill="#d9b25d"/><path d="m111.55 7.9-6.8 9.7-8.35 5.3-7.8 21q-3.75 1.65-7.2 3.25l11.95-28.4q9-5.55 18.2-10.85m16.85-1.75.6-.75 33.5 29.8q-4.25 18.3-33.05 42.4l1.45 6.75q-9.45 3.8-18 5.2L101.65 37.4l1.4-.75 25.35-30.5m24.2 126.7q-9 3.2-13.6 3.65l-9.6.5-14.1-38.65q6.95-1.7 15.65-4.95l8.05-4.5 13.6 43.95" fill="#a37a26"/><path d="m169.3 34.85 9.25-5.15q.6 3.1.45 6.4-.35 4.3-1.35 8.85l-1.75 5.45q-7.3 20.9-36.9 38.5l-8.05 4.5q-8.7 3.25-15.65 4.95l-.35-.1Q104.7 100.6 97.7 99.4l5.85-9 9.35-.85q8.55-1.4 18-5.2 19.05-11.75 29.9-25.1 8-9.7 9.05-17.3.45-3.75-.55-7.1" fill="#7b5a11"/><path d="M81.4 47.15q3.45-1.6 7.2-3.25 6.35-3.3 13.05-6.5l11.25 52.15-9.35.85-22.3-41.05-.35-.9-.55-.8 1.05-.5m48 89.85q-9.5-.6-15.2-5.45L97.7 99.4q7 1.2 17.25-1.15l.35.1L129.4 137" fill="#875e0a"/><path d="m129 5.4 3.5-4.3.15.2 36.65 33.55q1 3.35.55 7.1l-7.35-6.75L129 5.4m49.55 24.3 31.75 31.35.35 4.7L199.3 55.2l-21.65-10.25q1-4.55 1.35-8.85.15-3.3-.45-6.4" fill="#ffe893"/><path d="m104.75 17.6 6.8-9.7q5.95-3.85 12-7.45l8.95.65-3.5 4.3-.6.75-6.2-.05-17.45 11.5" fill="#ffe893"/><path d="m88.6 43.9 7.8-21 8.35-5.3L122.2 6.1l6.2.05-25.35 30.5-1.4.75q-6.7 3.2-13.05 6.5" fill="#7b5a11"/><path d="m132.5 1.1.15.2 36.65 33.55 9.25-5.15 31.75 31.35.35 4.7q.1 27.7-38.15 56.1-8.65 6.45-19.9 11-9 3.2-13.6 3.65l-9.6.5q-9.5-.6-15.2-5.45L97.7 99.4l5.85-9-22.3-41.05m-.35-.9-.55-.8" fill="none" stroke="#000" stroke-opacity=".353" stroke-width=".5"/></g><g id="h"><path d="M118.6 94.1q-7.15-2.9-12.4-7.2-2.85-2.3-5.1-4.95l-5.95.65-6.5-11.9 4.55-.1q-3.25-7.25-4.55-15.95" fill="none" stroke="#000" stroke-opacity=".353" stroke-width=".5"/><path d="m100.95 54.25 1.7-1.25q5.15 18.7 16.2 24.55l4.45 1.65-2.8 13.5-1.9 1.4m25.2 41.8-2.5 3q-3.3 1-7.6 1.55l-.85.05q-6.3.9-11.85-.25-4.7-.9-9.1-3.2-2.35-4.35-4.4-8.7l3.45-2.8m22.8-10.6-2.4 3-8.45 1.6q-10 1.55-19.8-1.4l-5.85-11.4 3.25-2.75" fill="none" stroke="#000" stroke-opacity=".2" stroke-width=".5"/><path d="m120.95 81.2-2.15 12.75q-7.15-2.9-12.4-7.2-2.85-2.25-5.15-4.95l-5.9.65-6.5-11.85 4.55-.15q-3.3-7.25-4.55-15.95l12.3-.35q6.05 19.5 15.45 25.05 1.95 1.5 4.35 2m-23.5 25.4q6.6 1.8 15.2 1.55l10.4 11.25q-9.95 1.55-19.75-1.4l-5.85-11.4m10.25 21.6q7.25 1.9 15.35 1.45l10 10.7q-6.35.9-11.85-.25-4.75-.9-9.15-3.15l-4.35-8.75" fill-opacity=".153"/><path d="m101.15 54.15 1.7-1.3q5.15 18.7 16.2 24.55 2.2 1 4.45 1.65l-2.55 2.15q-2.4-.5-4.35-2-9.4-5.55-15.45-25.05" fill-opacity=".302"/><path d="m118.25 104.3-5.6 3.85q-8.6.25-15.2-1.55l3.25-2.7q5.4 2.1 17.55.4M128.8 126l-5.75 3.65q-8.1.45-15.35-1.45l3.4-2.8q5.85 2.35 17.7.6" fill-opacity=".102"/><path d="m112.65 108.15 5.6-3.85 9.85-2.05-2.2 3.65q-7.7 2.25-13.25 2.25m25.5 15.85-1.85 3.4q-3.85 1.1-7.3 1.6l-.5.1-5.45.55 5.75-3.65 9.35-2" fill="#fff" fill-opacity=".451"/><path d="m125.9 105.9 2.2-3.65 5.85 12.55-2.4 3-5.65-11.9m10.4 21.5 1.85-3.4 5.8 11.75-2.45 3-5.2-11.35" fill="#fff" fill-opacity=".302"/><path d="m95.3 82.8 5.6-.7 7.1 6.45L22.3 221.1 16.45 210l25.9-42.6-30.65 39.35L.1 211.6 95.3 82.8" fill="#a38a3d"/><path d="m.1 211.6 11.6-4.85-3.9 11.65 8.65-8.4 5.85 11.1L108 88.55l5 2.75-88.8 144.5Q10.55 238.3 0 228l.1-16.4m24.1 24.2-.5-12.5-1.4-2.2 1.4 2.2.5 12.5" fill="#746025"/><path d="m11.7 206.75 30.65-39.35-25.9 42.6-8.65 8.4 3.9-11.65" fill="#503c01"/><path d="M95.3 82.8.1 211.6l11.6-4.85 30.65-39.35-25.9 42.6 5.85 11.1 1.4 2.2.5 12.5Q10.55 238.3 0 228l.1-16.4M113 91.3 24.2 235.8M16.45 210l-8.65 8.4 3.9-11.65" fill="none" stroke="#000" stroke-opacity=".4" stroke-width=".5"/><path d="m182.05 53.25 3.25-3.85 7.5 1.1 11.7 11.8q.35 3.25-.15 5.35l.15.15-3.2 8.3-1.4 2.8q-1.55 2.25-2.7 4.6l-5.25 8q-5.55 8.25-7.75 10.75-3.9 2.6-4.15 3.05-5.05-16.15-9.95-32.65l-.15-.2 12.1-19.2L197.2 83.5l-27.1-10.85 27.1 10.85-15.15-30.25 22.3 14.4-22.3-14.4" fill="#fdf1cd"/><path d="m163.25 90.6-2.75 7.3-5.1 10.5 7.05 10.25q6.3-4.1 13.7-9.85l4.2 8q-8.75 7.05-22.05 14.3l-13.85-19.8q9.55-15 14.85-29.15l3.95 8.45" fill="#503c01"/><path d="m169.95 72.45.15.2-.35-.05.35.05q4.9 16.5 9.95 32.65l-3.5 3.2q-.35-.05-.4.3-7.4 5.75-13.7 9.85l-7.05-10.25 5.1-10.5 2.75-7.3 6.5-18 .2-.15M160.5 97.9l19.55 7.4-19.55-7.4" fill="#c5b995"/><path d="m185.3 49.4-3.25 3.85-6.3-2.9 4.7-5.85 14-.45 17.4 18.3q1 9.2-3.25 20l-7.3-6.25 3.2-8.3-.15-.15q.5-2.1.15-5.35l-11.7-11.8-7.5-1.1" fill="#a38a3d"/><path d="m201.3 76.1 7.3 6.25q-2.05 4.75-4.95 9.85-5.6 10.25-23.3 24.6l-4.2-8q.05-.35.4-.3l3.5-3.2q.25-.45 4.15-3.05 2.2-2.5 7.75-10.75l5.25-8q1.15-2.35 2.7-4.6l1.4-2.8m-25.55-25.75 6.3 2.9-12.1 19.2-.2.15-6.5 18-3.95-8.45q.1-.7.35-1.15L163 69.75l12.75-19.4" fill="#746025"/><path d="m182.05 53.25 3.25-3.85m23.3 32.95q4.25-10.8 3.25-20l-17.4-18.3-14 .45-4.7 5.85L163 69.75 159.65 81m10.3-8.55.15.2m-10.8 9.5Q154 96.3 144.45 111.3l13.85 19.8q13.3-7.25 22.05-14.3 17.7-14.35 23.3-24.6 2.9-5.1 4.95-9.85m-38.65-9.9-.2.15m10.3 32.7q.25-.45 4.15-3.05M169.75 72.6l.35.05" fill="none" stroke="#000" stroke-opacity=".353" stroke-width=".5"/><path d="m180.05 105.3-19.55-7.4m9.6-25.25q4.9 16.5 9.95 32.65" fill="none" stroke="#000" stroke-opacity=".251" stroke-width=".5"/><path d="m170.1 72.65 27.1 10.85-15.15-30.25 22.3 14.4" fill="none" stroke="#000" stroke-opacity=".251" stroke-width=".5"/></g><g id="c"><path d="m-1.55.25.05.05h-.1l.05-.05m-8.2 2.1h-.05.05" fill="#bca587"/><path d="M-.7 1.45q-5.75 2.5-9.1 1v-.1h.05Q-9.6.15-7.35-.7q3.1.15 5.75 1h.1l.8 1.15m5.3-4.9.15.55-.05.25Q4 .15 1.45.55l-.1-1.5 3.25-2.5" fill="#ffffe1"/><path d="M-9.8 2.35q-.75-3.4.45-6.1 3.8-.1 6.55 2.55l.2.2L-1.55.25-1.6.3q-2.65-.85-5.75-1-2.25.85-2.4 3.05h-.05m14.4-5.8L1.35-.95l-.05-1.1v-.2q-.15-4.4 1.25-6.35.8 1.25 1.45 3.05l.15.5.25.7.2.9" fill="#a0896b"/><path d="M-.7 1.45q-5.75 2.5-9.1 1v-.1q-.75-3.4.45-6.1m7.8 4 .05.05m2.95.25Q4 .15 4.7-2.65l.05-.25-.15-.55-.2-.9-.25-.7-.15-.5q-.65-1.8-1.45-3.05" fill="none" stroke="#000" stroke-opacity=".353" stroke-width=".5"/></g><g id="e"><path d="m.65-.25.85 1L3.3-9.2l-1.7.95-.95 8m-5.75-5.9L-6.35-4.6l5.9 6.2.15-1.65-4.8-6.1" fill="none" stroke="#000" stroke-opacity=".353" stroke-width=".5"/><path d="M3.3-9.2 1.9-1.65.75-1.4l.85-6.85 1.7-.95m-8.4 3.05 4.25 5.4L-2.8-.9l-3.55-3.7 1.25-1.55" fill-opacity=".302"/></g><g id="i"><use xlink:href="#c"/><use transform="translate(-1.5 -3.8)" xlink:href="#d"/><use xlink:href="#e"/></g><g id="j"><use xlink:href="#f"/><use transform="matrix(3.7675 -2.7977 2.7977 3.7675 111.25 99.55)" xlink:href="#g"/><use xlink:href="#h"/><use transform="matrix(3.7675 -2.7977 2.7977 3.7675 158.2 50.4)" xlink:href="#i"/></g><path d="M1.85-10.55 4-9.05h.45Q2.95-5.2 4.1-2.8l.55.85L2.45 0h-.5Q1.1-1.4.75-2.8L.5-4.3l-1.1-.65.4-2.85.8.55q.35-1.65 1.25-3.3m-.9 20.9-.8.2-1.5-.7-.15-.1-2-1.55-1.15-1.7.35-2.05.95-.05q.7 1.15 2.95 2.35l1.85.85-.5 2.75M2.5 2.6l-.6 2.9-.8.2-1.65-.8q-1.9-1-3.2-2.75l.45-2.7.9-.05Q-1.75.45.55 1.7l1.95.9" fill="#338eb9" id="a"/><path d="m3.1-4.45 1.7-.95L3 4.55l-.85-1 .95-8M1.05 5.4l-5.9-6.2 1.25-1.55 4.8 6.1-.15 1.65" fill="#338eb9" id="b"/><use xlink:href="#a" id="g"/><use xlink:href="#b" id="d"/></defs><use transform="translate(151.6 61.2)" xlink:href="#j"/></svg>