<svg width="182" height="234" viewBox="182.74 283.77 181.65 234.17" xmlns="http://www.w3.org/2000/svg" xmlns:xlink="http://www.w3.org/1999/xlink"><defs><g id="aC"><path d="M80.65 322.05H79.4l1.1-.2.15.2" fill="#875e04"/><path d="M99.55 47.25v.3M77.7 9.8l-.3 1.3" fill="none" stroke="#000" stroke-opacity=".502" stroke-width=".5"/><path d="m80.5 321.85.15.2" fill="none" stroke="#17170c" stroke-opacity=".251" stroke-width=".5"/></g><g id="a"><path d="M35.2 1.45Q34 7.5 29.75 13.2q-.7 6.75-7.75 13.15Q14.55 32.3.9 35.2l-.45-.1h-.1q.05-5.8 10.4-11.95Q13.2.15 35.15 1.4l.05.05" fill="#2b5a6f"/><path d="M35.15 1.4Q13.2.15 10.75 23.15.4 29.3.35 35.1l-.15-.05q-1.75-16.2 12.25-27.3Q26.35-3.3 35.15 1.4" fill="#356d8a"/><path d="M.9 35.2q13.65-2.9 21.1-8.85 7.05-6.4 7.75-13.15Q34 7.5 35.2 1.45h.05q1.4 18.2-11.9 27.05Q10.5 37 .9 35.2" fill="#1c3a4a"/><path d="m35.2 1.45-.05-.05M.35 35.1h.1l.45.1q9.6 1.8 22.45-6.7 13.3-8.85 11.9-27.05h-.05M.35 35.1l-.15-.05q-1.75-16.2 12.25-27.3Q26.35-3.3 35.15 1.4" fill="none" stroke="#000" stroke-opacity=".502" stroke-width=".5"/><path d="M1.2 33.6q.05-4.8 5.2-11.75 5.65-8.55 16-12.5 3.3-2.35 7.4-3.5l.05.05q-.8 4.05-4.1 7.8-4.55 15.85-24.1 19.95l-.4-.05H1.2" fill="#316580"/><path d="M29.8 5.85Q25.7 7 22.4 9.35q-10.35 3.95-16 12.5Q1.25 28.8 1.2 33.6l-.15-.05Q-.4 20.2 11.15 11.1 22.6 2 29.8 5.85" fill="#3b779c"/><path d="m21.9 11.55.05.05q-.75 4.65-7.35 9.65-.35 9.1-13.75 12.4l-.3-.05H.5q-.05-3.7 3.75-9.15 3.9-6.35 11-8.25 3-3.5 6.65-4.65" fill="#3b739c"/><path d="M.5 33.6H.4Q-1 23.3 7.65 16.05q8.6-7.3 14.25-4.5-3.65 1.15-6.65 4.65-7.1 1.9-11 8.25Q.45 29.9.5 33.6" fill="#4788bd"/><path d="m6.95 10.4.55-.35 4.1-2.15q2.6-1.45 3.05-1.4.45.1-.4 1.35-.9 1.25-.15 1.85l1.1-.3 1.85-.3.8.25.75.45q-1.5-.55-7.85 5.1-6.4 5.6-5.7 7.3.7 1.65 1.75 1.95l2.2.4.15.6q0 .35-2.95 1.7T3.25 30.6L1.75 33l-1.6 2.05H.1l-1.45-.25q-1.3-.3-2.25-4.25-.95-4 1.35-9.15 1.3-5.6 6.2-7.05 1.65-2.95 3-3.95" fill="#649d35"/><path d="m6.95 10.4.55-.35 4.1-2.15q2.6-1.45 3.05-1.4.45.1-.4 1.35-.9 1.25-.15 1.85l1.1-.3 1.85-.3.8.25.75.45q-1.5-.55-7.85 5.1-6.4 5.6-5.7 7.3.7 1.65 1.75 1.95l2.2.4.15.6q0 .35-2.95 1.7T3.25 30.6L1.75 33l-1.6 2.05H.1" fill="none" stroke="#495728" stroke-width=".5"/><path d="m12.6 9.1-1.05 1.3q-.15.25-.15 1.05l-2.05 1.6q-2.05 1.5-2.05 1.9l-1.1.85-1.4.7-.1-.35.15-.85.1-.05.05.1.15-.6q.35-1.2 1.05-1.95.5-.55 1.45-1.1l3.25-2.2 1.7-.4M.7 17.8l.45.15-1.2 2.35q-.6 1.3-.6 2.9.3 1.4.75 1.4.2 0 .45.5l.25.75-1 2.15-.15 2.95q0 .65-.55 1.95l-.35.3q-.7-.75-1.1-2.65Q-2.7 28.9-2.7 27l.1-.5v-.25l.1-1.15-.05-.2.15-1.45.4-1.1.3-.7.6-1.15q0-.4.75-1.55T.7 17.8" fill="#70b33c"/></g><g id="d"><path d="M53.7 4.2v-.15l.1.1-.1.05" fill="#ae9c04"/><path d="m49.2 6.3.05.1v.4q-.2.95-.8 1.8-1.55 1.9-5.65 3.45l-3.3 1-2.55.6-8.15.8-.45-12.05q10.05-.1 19.8 2.85l.5.15.55.9" fill="#b37e07"/><path d="M28.8 14.45h-1.6l-8.7-.65-4.2-.9-2.75-.85-2.25-1-2.65-1.8q-1.05-1-1.35-2L6.55 7l-1.2.1q.8-.45 1.55-.95 10.9-3.6 21.45-3.75l.45 12.05" fill="#8f6405"/><path d="M.05 6.9H0v-.2l.05.2" fill="#d69807"/><path d="m53.8 4.15.8 1.35-.05.55v.1l-5.35.15-.55-.9-.5-.15Q38.4 2.3 28.35 2.4 17.8 2.55 6.9 6.15q-.75.5-1.55.95l-5.3-.2L0 6.7v-.25L2 5.2q26.7-9.85 51.7-1l.1-.05" fill="#fee7b4"/><path d="m53.8 4.15.8 1.35-.05.55v.1M.05 6.9H0m0-.2v-.25L2 5.2q26.7-9.85 51.7-1v-.15l.1.1M.05 6.9 0 6.7" fill="none" stroke="#17170c" stroke-opacity=".251"/></g><g id="aI"><use transform="matrix(-.4333 .68607 .6938 .40532 15.35 2.7)" xlink:href="#e"/><use transform="matrix(.31792 .74571 -1.5945 .67976 26.8 9.55)" filter="url(#f)" xlink:href="#g"/></g><g id="n"><path d="M.05 9.7v1.4L0 10.4l.05-.7m0 304v1.4l-.05-.7.05-.7" fill="#dad294"/><path d="m15 20 9.8.8 9.3-.7q10.2 181.25 1.65 303.65L24.8 324.8 15 324Q7 175.25 15 20" fill="#ccc48a"/><path d="m34.95 4.6 3.65 1q5.75 2 5.75 4.8t-5.75 4.8l-1.5.5-5.65-2.9 5.65 2.9q-5.3 1.5-12.35 1.5h-.25l-.8-3.9.8 3.9q-7.95-.05-13.6-2-3.05-1.05-4.5-2.35-1.25-1.15-1.25-2.45 0-2.8 5.75-4.8 3.15-1.1 7-1.55l6.85-.45q5.65 0 10.2 1L31 6.65l3.95-2.05m-3.5 8.2 2.2-.55q3.55-1.05 3.55-2.5V9.6q-.2-1.35-3.55-2.35L31 6.65l-5.85-.45-4.75.3q-2.1.25-3.8.75-3.5 1.05-3.5 2.5 0 .85 1.2 1.6l2.3.9q3 .9 7.1 1.05h1.45l6.3-.5M17.9 4.05l2.5 2.45-2.5-2.45m-7.2 7.4-4.3 1.4 4.3-1.4" fill="#b3ac79"/><path d="M49.6 10.85q-.4 4-7.3 6.9-3.7 1.55-8.2 2.35l-9.3.7L15 20q-4.2-.75-7.75-2.25Q.6 14.95.05 11.1V9.7q.55-3.85 7.2-6.65 3.4-1.4 7.45-2.15L24.8 0q8.5 0 14.95 2.1l2.55.95q7.2 3 7.3 7.25v.55M34.95 4.6l4.8-2.5-4.8 2.5q-4.55-1-10.2-1l-6.85.45q-3.85.45-7 1.55-5.75 2-5.75 4.8 0 1.3 1.25 2.45 1.45 1.3 4.5 2.35 5.65 1.95 13.6 2h.25q7.05 0 12.35-1.5l1.5-.5q5.75-2 5.75-4.8T38.6 5.6l-3.65-1m6 13.05L37.1 15.7l3.85 1.95M31 6.65l2.65.6q3.35 1 3.55 2.35v.15q0 1.45-3.55 2.5l-2.2.55-6.3.5H23.7l-.4-1.85.4 1.85q-4.1-.15-7.1-1.05l-2.3-.9q-1.2-.75-1.2-1.6 0-1.45 3.5-2.5 1.7-.5 3.8-.75l4.75-.3 5.85.45-2 1 2-1m-6.15 12.4-.35-1.85.35 1.85M22.8 8.85 20.4 6.5l2.4 2.35m-20.1 5.2 3.7-1.2-3.7 1.2m28.75-1.25-3.3-1.7 3.3 1.7M14.7.9l3.2 3.15L14.7.9" fill="#c2bb83"/><path d="M34.1 20.1q4.5-.8 8.2-2.35 6.9-2.9 7.3-6.9-9.6 161.4 0 303.7-.1 4.2-7.3 7.2-3 1.25-6.55 2Q44.3 201.35 34.1 20.1" fill="#999267"/><path d="M.05 11.1q.55 3.85 7.2 6.65Q10.8 19.25 15 20q-8 155.25 0 304-4.2-.75-7.75-2.25-6.65-2.8-7.2-6.65v-1.4Q9.2 169.9.05 11.1" fill="#f2e7a4"/><path d="M49.6 10.85v-.55q-.1-4.25-7.3-7.25l-2.55-.95-4.8 2.5 3.65 1q5.75 2 5.75 4.8t-5.75 4.8l-1.5.5 3.85 1.95m-6-13.05L31 6.65l2.65.6q3.35 1 3.55 2.35v.15q0 1.45-3.55 2.5l-2.2.55 5.65 2.9q-5.3 1.5-12.35 1.5h-.25l.35 1.85M20.4 6.5l4.75-.3 5.85.45-2 1M20.4 6.5l2.4 2.35m8.65 3.95-6.3.5H23.7l.8 3.9q-7.95-.05-13.6-2-3.05-1.05-4.5-2.35l-3.7 1.2m33.05 309.7q3.55-.75 6.55-2 7.2-3 7.3-7.2-9.6-142.3 0-303.7m-31.7-6.8 6.85-.45q5.65 0 10.2 1m-6.8 6.5 3.3 1.7m-8.15-1.35.4 1.85q-4.1-.15-7.1-1.05l-2.3-.9q-1.2-.75-1.2-1.6 0-1.45 3.5-2.5 1.7-.5 3.8-.75l-2.5-2.45q-3.85.45-7 1.55-5.75 2-5.75 4.8 0 1.3 1.25 2.45l4.3-1.4M.05 9.7q.55-3.85 7.2-6.65 3.4-1.4 7.45-2.15L24.8 0q8.5 0 14.95 2.1M17.9 4.05 14.7.9M.05 9.7v1.4L0 10.4l.05-.7M15 324l9.8.8 10.95-1.05M.05 313.7v1.4q.55 3.85 7.2 6.65 3.55 1.5 7.75 2.25M.05 315.1l-.05-.7.05-.7Q9.2 169.9.05 11.1" fill="none" stroke="#17170c" stroke-opacity=".251"/><path d="m12.35 55.35 12.6 18.1M6.8 16.25 12 55m12.95 17.35L34.5 20.4M14.75 187.55l-6.9-85.1-4.8-27.25m42.4-59-24.8 105.6L26.2 211m-3.5 47.45-.1.35 7.4 9.7 8.85 54.5M26.5 211.75l11.8 47.4m-15.7-.35-11.65 39.1 3.45 26.25m6.25-.3V300.3l10 6.9v16.95m7.65-64.3 6.4 60.7m-41.3-68.7 11.05-64.35" fill="none" stroke="#17170c" stroke-opacity=".251"/><path d="M35.3 133.35q1.45-2.15 3.45 2.35 1.95 4.5 1.95 19.45t-2.15 33.6q-2.2 18.65-3.5 7.9T32.3 177.2q-1.5-8.75-.85-19.45.65-10.75 1.5-16.55.9-5.75 2.35-7.85m2.45 33.8q0-4.25-.45-7.25-.45-2.95-1.1-2.95t-1.1 2.95q-.45 3-.45 7.25t.45 7.2q.45 3 1.1 3t1.1-3q.45-2.95.45-7.2" fill="#c2bb83"/><path d="M35.3 133.35q-1.45 2.1-2.35 7.85-.85 5.8-1.5 16.55-.65 10.7.85 19.45 1.45 8.7 2.75 19.45t3.5-7.9q2.15-18.65 2.15-33.6t-1.95-19.45q-2-4.5-3.45-2.35m1.45-20.65q2.9.3 4.75 17.3t1.85 29.55-1.25 26.65q-1.3 14.05-3.75 29.05T31.1 200.6q-4.85-29.7-3.25-41.65l3.8-29.25q2.2-17.3 5.1-17m1 54.45q0 4.25-.45 7.2-.45 3-1.1 3t-1.1-3q-.45-2.95-.45-7.2t.45-7.25q.45-2.95 1.1-2.95t1.1 2.95q.45 3 .45 7.25" fill="#aba474"/><path d="M35.3 133.35q1.45-2.15 3.45 2.35 1.95 4.5 1.95 19.45t-2.15 33.6q-2.2 18.65-3.5 7.9T32.3 177.2q-1.5-8.75-.85-19.45.65-10.75 1.5-16.55.9-5.75 2.35-7.85m1.45-20.65q2.9.3 4.75 17.3t1.85 29.55-1.25 26.65q-1.3 14.05-3.75 29.05T31.1 200.6q-4.85-29.7-3.25-41.65l3.8-29.25q2.2-17.3 5.1-17m1 54.45q0 4.25-.45 7.2-.45 3-1.1 3t-1.1-3q-.45-2.95-.45-7.2t.45-7.25q.45-2.95 1.1-2.95t1.1 2.95q.45 3 .45 7.25" fill="none" stroke="#17170c" stroke-opacity=".251"/><path d="m33.45 182.25.2-.15M.7 196.75h.4m3-25.6.3 1.2M-.8 255.9v.5l.1.7" fill="none" stroke="#000" stroke-opacity=".502" stroke-width=".5"/></g><g id="i"><path d="M5.35 4.55 5.75 3q1.7 35.05 5.5 37.45 3.8 2.35 2.95 13.25-.9 10.85 2.75 4.7 3.65-6.2 11-4.5t14.2-8.6q6.8-10.35 7.95-23.6 1.15-13.2 1.6-16.25.4-3.05.05-8.15 6.6 33.65-6.65 55.35-4.55 7.45-7.5 10.6-2.95 3.1-6.45 7.8t-9.9.05l-1.15 4.15q-2.4 4.95-7.7-1.4l-.1-.15q-5.3 1.85-3 14.55 2.3 14 .9 20.35-.55 2.35-1.95 11.85l-.25-.9q-5.35-25.65-.5-44.2Q.1 45.8 5.35 4.55" fill="#73aa4d"/><path d="M8 119.55Q2.05 99.6 4.7 78.4q-9.65-35.1.65-73.85Q.1 45.8 7.5 75.35q-4.85 18.55.5 44.2" fill="#81c458"/><path d="M5.35 4.55 5.75 3q1.7 35.05 5.5 37.45 3.8 2.35 2.95 13.25-.9 10.85 2.75 4.7 3.65-6.2 11-4.5t14.2-8.6q6.8-10.35 7.95-23.6 1.15-13.2 1.6-16.25.4-3.05.05-8.15 6.6 33.65-6.65 55.35-4.55 7.45-7.5 10.6-2.95 3.1-6.45 7.8t-9.9.05l-1.15 4.15q-2.4 4.95-7.7-1.4l-.1-.15q-5.3 1.85-3 14.55 2.3 14 .9 20.35-.55 2.35-1.95 11.85l-.25-.9Q2.05 99.6 4.7 78.4q-9.65-35.1.65-73.85l.45-3.5" fill="none" stroke="#475727" stroke-opacity=".502" stroke-width=".5"/><path d="M50.6 32.95q-4.7 15.1-12.35 24.35-7.7 9.25-14.3 8.8-6.65-.45-6.95-2l-.7-2.9q2.7-4.5 6.65-5.05l10.85-.5q3.65-.3 7.4-6.3l9.4-16.4M8.1 39.4q1.65 1.25 3.2 5.3 1.5 4 1.5 7.45t-.7 5.9q-.65 2.5-1.6 2.5t-1.65-2.5q-.7-2.45-.7-5.9t-.85-8.7q-.85-5.3.8-4.05m15.65 29.75q.2-1.25 1.25-1.65 1-.4 1.4.8.35 1.2 1.2 1.75l1.3.7q.45.15-.25.95-.7.85-1.7.85t-2.2-1.1q-1.3-1.1-1-2.3M16 70.25q.45 1.5 1.5 2.2l1.6.85q.6.2-.3 1.2-.85 1.05-2.1 1.05t-2.8-1.35q-1.6-1.35-1.25-2.9.3-1.55 1.6-2.05 1.25-.5 1.75 1" fill="#81c458"/></g><g id="k"><path d="M34.35 37.25v.2q-.05 1.55-1.05 5.9-1 4.25-1.8 18.55-.85 14.3.85 19.55t2.55 13.6 4.55 17.7q3.7 9.3 2.55 22.7t1.2 21.85l5.5 3.45q2.25 2.95 2.35 5l.3 3.4q.15 1.35-.2 3.75l-1.05 4.2q-1.55-5.1-4.25-9-1.25-1.8-6.55-5.65-6.45-4.6-11.5-9.85-9.85-10.25-18.4-22.7-8.2-11.95-9.2-17.6l-.1-1.2q-.85-9.75 4.3-16.2 3.15 12.75 9.5 26.15 4.6 9.7 9.3 16.75.75 2.15 3.55-3.95 2.8-6.05 2.25-17.35l.8-13.4q0-15.8-4.25-28.8Q21.4 61.6 12.9 59.2q-3.15 1.35-8.05 6.25-5.55-6.8 0-18.8Q26.8 44.05 46.6 0q5.3 14.6 1.85 18.2-3.5 3.55-13.9 19.1l-.2-.05m-10.7 15.4 3.6-9.4Q23.4 48.7 20.2 50.2q-2.9 1.6-2.9 2.95 0 .85 1.8 1.85 1.6.9 2.4.9 2.05 0 2.15-3.25" fill="#73aa4d"/><path d="M23.65 52.65q-.1 3.25-2.15 3.25-.8 0-2.4-.9-1.8-1-1.8-1.85 0-1.35 2.9-2.95 3.2-1.5 7.05-6.95l-3.6 9.4" fill="#81c458"/><path d="M34.55 37.3q10.4-15.55 13.9-19.1Q51.9 14.6 46.6 0 26.8 44.05 4.85 46.65q-5.55 12 0 18.8 4.9-4.9 8.05-6.25 8.5 2.4 12.65 15.1 4.25 13 4.25 28.8l-.8 13.4q.55 11.3-2.25 17.35-2.8 6.1-3.55 3.95-4.7-7.05-9.3-16.75-6.35-13.4-9.5-26.15-5.15 6.45-4.3 16.2l.1 1.2q1 5.65 9.2 17.6 8.55 12.45 18.4 22.7 5.05 5.25 11.5 9.85 5.3 3.85 6.55 5.65 2.7 3.9 4.25 9l1.05-4.2q.35-2.4.2-3.75l-.3-3.4q-.1-2.05-2.35-5l-5.5-3.45q-2.35-8.45-1.2-21.85t-2.55-22.7q-3.7-9.35-4.55-17.7t-2.55-13.6-.85-19.55q.8-14.3 1.8-18.55 1-4.35 1.05-5.9v-.2" fill="none" stroke="#475727" stroke-opacity=".502" stroke-width=".5"/><path d="m25.25 69.6-3.85-7.5q-1-1.65-3-2.9l1.75.2q2 .9 3.3.9l2.45-.4q.85-.5 4.2-16.15L29.4 79q2.3 9.15 2.25 10.7-.1 1.55 1.55 9.65 1.45 7.2 2.65 19.15 1.15 4.5-.05 7.55-1.25 3.2-.35 11.45.8 7.65.8 14.75l-.25 2.3q-2.1-.6-6.9-3.85-2.95-2.05-3.75-5.55l-1.75-2.2q-1.55-1.85-5.3-4.95-3.75-3.15-5.7-7.2l-3-6.25-4-7.7q-2.9-5.55-3.3-5.7-.45-.15-.4-.4.1-.4-.7-1.55t-.25-3.6 2.4-4.15L9.1 114.5q2.8 14.8 13.3 24.9 2.5 3.3 4.2 3.8 2.85-5.6 3.35-11.4.1-6.35.35-9.45l.25-.25q.55 4.7.9 11.55l.25 4.95.15-.25q1.25-2.1 1.5-3.65l1.35-10.05q1.1-8.5.6-7.7l-6.45-35.5q-1.3-7.15-3.6-11.85M6.9 48.1l1.7.05q.8.05 1.55-.5t4.7-1.75T28.6 35.45q2.4-2.3 5.5-7.95L46 6.8q-4.9 13.05-5.65 15.5-.75 2.4-5.15 8.6-4.45 6.2-7.05 8.5-5.8 4.9-11.9 8.9-2.6 1.65-3.75 2.65-1.95 1.65-2.9 3.5-.95 1.8-2.4 5.65-.8 2.05-1.6 2.05-.65 0-1.1-1.35-.45-1.3-.45-3.25 0-2.95 1.25-7.3L5.7 49l.1-.15.25-.25q.5-.5.85-.5" fill="#81c458"/></g><g id="aL"><use xlink:href="#n"/><use transform="translate(-2.4 50.6)" filter="url(#o)" xlink:href="#p"/><use transform="translate(-4.15 50.7)" xlink:href="#q"/><use transform="matrix(1.0354 0 0 1 -.9 150.1)" filter="url(#r)" xlink:href="#s"/><use transform="translate(-.9 144.8)" xlink:href="#t"/><use xlink:href="#u"/><use transform="matrix(1.1322 0 0 1 -.3 101.2)" filter="url(#v)" xlink:href="#w"/></g><g id="x"><path d="M.35 35.1q29-3.75 34.6-31.9-1.55-2.05-7.35-.9Q9.55 10.8.2 34.9-1.45 18.8 12.45 7.75q14-11.1 22.8-6.3l.15 2.9V5.8q-.15 4.8-1.4 8.9-2.75 8.55-10.65 13.8-13.25 8.75-23 6.6" fill="#2b5a6f"/><path d="M.2 34.9Q9.55 10.8 27.6 2.3q5.8-1.15 7.35.9-5.6 28.15-34.6 31.9l-.15-.05v-.15" fill="#eba336"/><path d="M.2 34.9Q9.55 10.8 27.6 2.3q5.8-1.15 7.35.9-5.6 28.15-34.6 31.9 9.75 2.15 23-6.6 7.9-5.25 10.65-13.8 1.25-4.1 1.4-8.9V4.35l-.15-2.9q-8.8-4.8-22.8 6.3Q-1.45 18.8.2 34.9v.15l.15.05" fill="none" stroke="#000" stroke-opacity=".502" stroke-width=".5"/></g><g id="z"><use transform="matrix(-.68423 .72496 .72496 .68423 24.2 3.95)" xlink:href="#y"/><use transform="matrix(-.79523 .60101 .60101 .79523 28.45 0)" xlink:href="#e"/></g><g id="aN"><use transform="matrix(.81708 -.10551 .10179 .78822 .25 7.45)" xlink:href="#z"/><use transform="matrix(.12418 .80043 -1.7115 .2655 32.55 13.75)" filter="url(#A)" xlink:href="#g"/></g><g id="B"><path d="M32.75 23.75Q31 27.7 31.15 30.5 16.8 35.5 4.4 49.6l-.45-1.05q12-15.5 28.8-24.8M30.5 38.4q-2.15 6.2-.95 9.3l.55 1.35q-12.35-2-24.4 4.25l-.25-.85-.05-.15q12.35-11.75 25.1-13.9m1.3 16.95q-1.05 4.7.55 8.25l-26.25-6 .05-1.3q16.05-4.6 25.65-.95m3.85 15.5q-.2 3.6 1.2 6.2-12.85-3.6-32.3-14.7l.55-.95v-.05q19.15 7.6 30.55 9.5m6.2 13.2q.15 2.6 1.25 4.35-25.65-7.95-41.75-22.55l1.6-1.75q17.7 14.35 38.9 19.95m-4.2-73.95q-1.1 2.2-1.2 4.35-20.2 10.9-34.2 31.05l-1-1.6q13.6-22.3 36.4-33.8" fill="#4ad7d7"/><path d="M31.15 30.5q.1 1.95 1.15 3.3-17.8 5.4-27.5 16.8l-.4-1q12.4-14.1 26.75-19.1M30.1 49.05l.1.15q1.25 2.8 2.4 3.4Q20.25 49.85 6 54.95l-.3-1.65q12.05-6.25 24.4-4.25m2.25 14.55.15.3q1.15 2.35 3.5 4.15l-30.2-8.5.3-1.95 26.25 6m4.5 13.45q.85 1.55 2.25 2.7-16.05-2.8-34.7-17.25l.1-.15h.05q19.45 11.1 32.3 14.7M43.1 88.4q1.45 2.3 4.65 3.05Q18.6 86.2.95 66.25l.4-.4q16.1 14.6 41.75 22.55m-5.45-78.3q-22.8 11.5-36.4 33.8L0 42Q16.2 17.5 47.5 0q-7.4 5.2-9.85 10.1M2.25 45.5q14-20.15 34.2-31.05l.15 2.25-.5.75-.2.35Q18.15 27.25 3.05 46.85l-.8-1.35" fill="#57ffff"/><path d="M35.9 17.8q-1.85 2.95-2.95 5.45l-.2.5q-16.8 9.3-28.8 24.8l-.9-1.7q15.1-19.6 32.85-29.05m-3.6 16-1.8 4.6Q17.75 40.55 5.4 52.3l-.6-1.7q9.7-11.4 27.5-16.8m.3 18.8-.8 2.75q-9.6-3.65-25.65.95L6 54.95q14.25-5.1 26.6-2.35M36 68.05l-.35 2.8q-11.4-1.9-30.55-9.5l.7-1.8 30.2 8.5m3.1 11.7q1.2 1 2.85 1.75l-.1 2.55q-21.2-5.6-38.9-19.95l1.45-1.6q18.65 14.45 34.7 17.25" fill="#3badad"/><path d="M35.9 17.8q-1.85 2.95-2.95 5.45m-.2.5Q31 27.7 31.15 30.5q.1 1.95 1.15 3.3l-1.8 4.6q-2.15 6.2-.95 9.3l.55 1.35m.1.15q1.25 2.8 2.4 3.4l-.8 2.75q-1.05 4.7.55 8.25m.15.3q1.15 2.35 3.5 4.15l-.35 2.8q-.2 3.6 1.2 6.2.85 1.55 2.25 2.7 1.2 1 2.85 1.75l-.1 2.55q.15 2.6 1.25 4.35 1.45 2.3 4.65 3.05l1.5.25m-12.8-77.25q.1-2.15 1.2-4.35Q40.1 5.2 47.5 0 16.2 17.5 0 42m36.45-27.55.15 2.25-.5.75-.2.35Q18.15 27.25 3.05 46.85M6 54.95q14.25-5.1 26.6-2.35m-27.8-2q9.7-11.4 27.5-16.8M5.8 59.55l30.2 8.5M4.4 62.5q18.65 14.45 34.7 17.25M.95 66.25q17.65 19.95 46.8 25.2" fill="none" stroke="#17170c" stroke-opacity=".502"/><path d="m32.95 23.25-.2.5m-2.65 25.3.1.15m2.15 14.4.15.3m-28-1.55h.05" fill="none" stroke="#17170c" stroke-opacity=".251"/></g><g id="C"><path d="M25.65 18.05q-.55.15-.9.45-.7.45-.9 1.2-5-5.35-22.1-12.45l.55-1.1q20.6 6.55 23.35 11.9M19.7 24q-1.7.3-3.5 1.35Q11.9 29.8 12 37.4q-.9-16.2-12-22.2.1-2.55.6-4.7 11.55 6.1 18.6 12.4l.2.45.3.65M10 0q12.4-.45 22.2 9.2-1.6.25-2.45 1.45-.5.65-.7 1.65Q19.4 4.7 5.7 2.3 7.55.85 10 0M3.3 4.7l-.05.1-1.65-.55 1.7.45" fill="#4ad7d7"/><path d="M25.65 18.05Q22.9 12.7 2.3 6.15q.4-.75.95-1.35l.05-.1q8.9 2.2 13.8 4.25Q26.8 13 29.3 17.9q-1.95-.2-3.2.05l-.4.1h-.05m.05 7.3q-2.85-1.95-6-1.35l-.3-.65-.2-.45Q12.15 16.6.6 10.5l.05-.1q.25-1.1.65-2.1l-.15-.05.15.05q6.75 3.15 11.9 6.3 8.65 5.35 12.5 10.75" fill="#3badad"/><path d="M1.75 7.25q17.1 7.1 22.1 12.45-.5 1.9 1.85 5.65-3.85-5.4-12.5-10.75-5.15-3.15-11.9-6.3l.45-1.05M5.7 2.3q13.7 2.4 23.35 10-.45 2.1.25 5.6-2.5-4.9-12.2-8.95Q12.2 6.9 3.3 4.7q.95-1.25 2.25-2.25l.15-.15" fill="#57ffff"/><path d="M23.85 19.7q.2-.75.9-1.2.35-.3.9-.45m-1.8 1.65q-.5 1.9 1.85 5.65-2.85-1.95-6-1.35-1.7.3-3.5 1.35Q11.9 29.8 12 37.4q-.9-16.2-12-22.2m1.3-6.9-.15-.05m27.9 4.05q.2-1 .7-1.65.85-1.2 2.45-1.45Q22.4-.45 10 0m19.05 12.3q-.45 2.1.25 5.6-1.95-.2-3.2.05l-.4.1M3.25 4.8l.05-.1" fill="none" stroke="#17170c" stroke-opacity=".502"/><path d="M25.7 18.05h-.05M3.3 4.7q8.9 2.2 13.8 4.25Q26.8 13 29.3 17.9m-28-9.6q6.75 3.15 11.9 6.3 8.65 5.35 12.5 10.75" fill="none" stroke="#17170c" stroke-opacity=".251"/></g><g id="D"><path d="M7.1 15.7Q9.25 8.95 20.95 3.4q6.1 10.7 19.65 20.35-16.75-7.9-33.5-8.05" fill="#4ad7d7"/><path d="M20.95 3.4Q9.25 8.95 7.1 15.7L0 16Q5.8 2.9 19.2 0l1.75 3.4" fill="#57ffff"/><path d="M20.95 3.4 19.2 0Q5.8 2.9 0 16l7.1-.3q16.75.15 33.5 8.05Q27.05 14.1 20.95 3.4" fill="none" stroke="#17170c" stroke-opacity=".502"/></g><g id="G"><path d="m81.35 25.55.25-.05-.05-.05-.2.1m61.55 37.4-1.75 2.75q-27.1 19.95-53.85 14.65l-.1.25-1.1 2.1Q32.65 104.5.25 70.25L.4 69.2q1.2-6.55 6-14.4l.25-.35q5.75-2.85 6.95 2.65l-.15.9.3.05q.9 6.9 4.05 10.9 2.55 3.3 8.65 1.3l2.8-1.15q8.35-3.8 9.45 3.5 3.95 9.45 12.8 2.7 9.45-7.25 12.75 6.5 2 8.3 11.05.15l2.45-2.2 2.9-3.25q1.65-2.2 0-.65-1.65 1.5-6.7 4.55-5.1 3-7.95-7.5-2.9-10.55-12.3-3.55T41.9 67.2q-1.95-7.5-10.6-3.7l-4.7 1.65q-4.75 1.05-6.7-1.55-2.85-3.75-4.05-10.8-.3-1.7-.95-2.75Q13.05 47 8.25 48.7 8.1 41.45 9.5 35.25l.35-.35-.2-.25q3.5-14.9 15.9-23.4l.3-.2q8.35-5.6 20.6-8.4Q54.8.75 65 .15L68.55 0h.3Q98.1-.25 123.3 30.7q6.95 8.55 13.65 19.55L140 55.1l1.75 3.75q.85 2.15 1.15 4.1m-78.1-20.9-.15-.25h-.05l.2.25M18 26.85l-.1-.3-.3.25.4.05" fill="#8fe7e7"/><path d="m17.9 26.55.1.3-.4-.05.3-.25" fill="#99cfce"/><path d="M.25 70.25Q32.65 104.5 86.1 82.7l1.1-2.1.1-.25q26.75 5.3 53.85-14.65l1.75-2.75.05.25.15 1.9v.1l-.35 2.6q-.45 1.6-1.4 2.95l-3.45 3.75q-25.65 27.6-47.9 30.3l-21.3 1.95q-7.5.3-11.85-.2-8.05-.9-30.9-9.45l-.4-.15-.55-.2-7.35-2.85-3.95-1.75-3.3-1.8Q-1.6 82.9.25 70.25m8-21.55q4.8-1.7 6.65 1.35.65 1.05.95 2.75 1.2 7.05 4.05 10.8 1.95 2.6 6.7 1.55l4.7-1.65q8.65-3.8 10.6 3.7 2.4 9.15 11.8 2.15T66 72.9q2.85 10.5 7.95 7.5 5.05-3.05 6.7-4.55 1.65-1.55 0 .65l-2.9 3.25-2.45 2.2q-7.9 5.35-9.85-2.75-3.3-13.75-12.75-6.5-8.85 6.75-12.8-2.7-1.1-7.3-9.45-3.5-2.15 1-3.9 1.45-5.25 1.4-7.55-1.6-3.15-4-4.05-10.9l-.6-2.5q-1.55-3.7-6-1.2l-.1-3.05m2.65 32.65h-.15l.15.15v-.15" fill="#72b8b8"/><path d="m81.35 25.55.2-.1.05.05-.25.05m-67.6 32.5-.3-.05.15-.9.15.95" fill="#afedec"/><path d="M10.9 81.35v.15l-.15-.15h.15" fill="#cdfef9"/><path d="M75.3 81.95q-9.05 8.15-11.05-.15-3.3-13.75-12.75-6.5-8.85 6.75-12.8-2.7-1.1-7.3-9.45-3.5l-2.8 1.15q-6.1 2-8.65-1.3-3.15-4-4.05-10.9l-.15-.95q-1.2-5.5-6.95-2.65l1.7-2.7q4.45-2.5 6 1.2l.6 2.5q.9 6.9 4.05 10.9 2.3 3 7.55 1.6 1.75-.45 3.9-1.45 8.35-3.8 9.45 3.5 3.95 9.45 12.8 2.7 9.45-7.25 12.75 6.5 1.95 8.1 9.85 2.75" fill="#c0ffff"/><path d="M136.95 50.25q-6.7-11-13.65-19.55Q98.1-.25 68.85 0h-.3L65 .15q-10.2.6-18.55 2.5-12.25 2.8-20.6 8.4m-.3.2q-12.4 8.5-15.9 23.4l-.15.6q-1.4 6.2-1.25 13.45l.1 3.05-1.7 2.7-.25.35q-4.8 7.85-6 14.4l-.15 1.05Q-1.6 82.9 10.4 90.35l3.3 1.8 3.95 1.75L25 96.75l.55.2.4.15q22.85 8.55 30.9 9.45 4.35.5 11.85.2L90 104.8q22.25-2.7 47.9-30.3l3.45-3.75" fill="none" stroke="#17170c" stroke-opacity=".502"/><path d="m25.85 11.05-.3.2m117.35 51.7.75-.4M-.2 69l.6.2" fill="none" stroke="#17170c" stroke-opacity=".251"/><path d="M143.1 65.2v-.1" fill="none" stroke="#475727" stroke-opacity=".502"/><path d="M75.3 81.95q-7.9 5.35-9.85-2.75-3.3-13.75-12.75-6.5-8.85 6.75-12.8-2.7-1.1-7.3-9.45-3.5-2.15 1-3.9 1.45-5.25 1.4-7.55-1.6-3.15-4-4.05-10.9l-.6-2.5q-1.55-3.7-6-1.2" fill="none" stroke="#17170c" stroke-opacity=".502" stroke-width=".5"/></g><g id="I"><path d="M78.3 45.9q.05 14.4-16.85 12.2l-1.7-.45q-5.5-1.85-6.55-8.15.65 1.3 1.7 2.45 2.55 2.9 6.1 4l2.9.55.6.05q5.1.4 9-2.6 4.2-3.1 4.8-8.05" fill="#8dbfbe"/><path d="m53.2 49.5-.5-1q-1.05-2.55-.75-5.5.55-5.05 4.8-8.25 4.2-3.1 9.7-2.55 5.2.6 8.6 4.2Q72.75 51.9 61 55.95q-3.55-1.1-6.1-4-1.05-1.15-1.7-2.45" fill="#4fddec"/><path d="m75.05 36.4.3.3v.05q3.45 4 2.95 9.05v.1q-.6 4.95-4.8 8.05-3.9 3-9 2.6l-.6-.05-2.9-.55Q72.75 51.9 75.05 36.4" fill="#42b1c4"/><path d="m59.75 57.65-.25.35" fill="none" stroke="#17170c" stroke-opacity=".251" stroke-width=".5"/></g><g id="E"><path d="m5.3 21.95.2.2q3.2 2.7 7.55 1.6 2.1-.45 3.9-1.65Q7.9 28.8 3.4 23 .9 19.75.75 16.65T2.7 10.6q-.5 1.9-.5 3.9l.05.4q.15 4.5 3.05 7.05" fill="#8dbfbe"/><path d="M20.45 1.9h-.15v-.1.1q-2.7 20.3-15 20.05-2.9-2.55-3.05-7.05l-.05-.4q0-2 .5-3.9.75-2.6 2.5-5.05 3.15-4.2 7.65-5.3 4.3-1 7.45 1.55l.15.1" fill="#4fddec"/><path d="M20.3 1.9h.15q3.15 2.8 3.25 7.6 0 4.9-3.1 9.1l-1.85 2.1-1.8 1.4q-1.8 1.2-3.9 1.65-4.35 1.1-7.55-1.6l-.2-.2q12.3.25 15-20.05" fill="#42b1c4"/><path d="M20.3 1.8v.1" fill="none" stroke="#17170c" stroke-opacity=".251" stroke-width=".5"/><path d="M17.4 1.55q-4.15.75-7.7 3.3l-.6-2M12 12.5 9.75 4.9Q7.3 6.45 5.45 8.6l-1.1 1.3" fill="none" stroke="#17170c" stroke-opacity=".502"/></g><g id="L"><use xlink:href="#E"/><use transform="matrix(.56258 .31596 -.44 .7834 9.4 -.9)" filter="url(#F)" xlink:href="#g"/></g><g id="aa"><use xlink:href="#G"/><use transform="matrix(3.0679 1.723 -2.3994 4.2722 36.5 -7.35)" filter="url(#H)" xlink:href="#g"/><use xlink:href="#I"/><use transform="matrix(.56258 .31596 -.44 .7834 59 29.4)" filter="url(#J)" xlink:href="#g"/><use xlink:href="#K"/><use transform="translate(6.2 16.6)" xlink:href="#L"/><use xlink:href="#M"/></g><g id="O"><path d="M5.3 45.6Q.65 39.65 2.15 34.85l3.05-10.7Q6.75 18.3 12.95 5.7q4.15 2.2 8.65 1.65-1.85 5-1.7 10.75l-.05 7.75q-2.15-1.25-2.3-8.45l.2-2.15-.15-1.5-.1-.2-.25-.35q.35.1.35.55 0-.45-.35-.55l-1-.9q-.95 2-1.75 5.5-.85 3.85-.85 6.7V36q-.9 10-5.7 10l-2.65-.4" fill="#aecdea"/><path d="M5.3 45.6q-2.05-.7-3.45-2.55Q0 40.6 0 37.65 0 34.5 4.25 23.6l2.45-6.65 1.6-5.65.2-1.95v-.6q-.1-3-1.15-6.1L6.2 0q3.25 3.85 6.75 5.7-6.2 12.6-7.75 18.45l-3.05 10.7Q.65 39.65 5.3 45.6m14.55-19.75-.25 2q-.05.35-.95.35-2.05 0-2.05-5.55l.6-3.25.35-2q.15 7.2 2.3 8.45" fill="#e6f2ff"/><path d="m6.2 0 1.15 2.65q1.05 3.1 1.15 6.1v.6l-.2 1.95-1.6 5.65-2.45 6.65Q0 34.5 0 37.65q0 2.95 1.85 5.4 1.4 1.85 3.45 2.55M8.5 8.75l-.2 2.55m8.95 1.9.25.35.1.2q0-.45-.35-.55l-1-.9q-.95 2-1.75 5.5-.85 3.85-.85 6.7V36q-.9 10-5.7 10l-2.65-.4m12.25-28.2-.35 2-.6 3.25q0 5.55 2.05 5.55.9 0 .95-.35l.25-2 .05-7.75q-.15-5.75 1.7-10.75M17.55 17.4l.2-2.15-.15-1.5" fill="none" stroke="#17170c" stroke-opacity=".251" stroke-width=".5"/></g><g id="Q"><path d="m49.05 16.25.05.35-.3-.3.25-.05M19.7 23.6l-.35.35.25-1.15.1.8" fill="#7a9696"/><path d="M40.55 14.35h-.05l-.05.05h.05l.65 1.05q2.5 4.35.85 8.9l-.1.3-.45 1.1q-1.5-3.9-4.55-6.65-2-1.8-4.65-3.1l-.25-.05q-.25 3.7-1.9 6.95l-1.8-2.75q-1.95-2.55-4.6-4.25-.9 4.45-3.25 7l-.75.7-.1-.8-.35-2.1q-.6-1.6-2.1-3.45-1.65-2.05-3.2-2.65 1.5-.45 1.05-3.75l6 1.1 15.2-.5 2.45-.3q1.6 1.25 1.9 3.2m-39-12.7q-1-4.95-4.1-8l.65.1q5.45.95 9.5 6.1-4.7.5-6.05 1.8" fill="#a17b7b"/><path d="m18-.35 4.2.25q7.35.65 12.15 2.45Q29.4.9 22.95.1L18-.35M.7 13.9l-.05-.55v-.1l.05.65" fill="#92b3b3"/><path d="m7.6-.15.2-.05Q12.35-.7 18-.35l4.95.45q6.45.8 11.4 2.25l3.2 1.05q3.4 1.35 4.75 2.6.95.9.8 1.8-.45 2.05-4.45 3.35l-2.45.3-15.2.5-6-1.1q-4.85-1.2-8.55-3.1Q.9 4.8.95 2.75v-.2l.6-.9Q2.9.35 7.6-.15" fill="#6e5353"/><path d="m13.95 14.6-.7-.25-2.3.25Q7.9 15.95 7.4 21.85l-.15-.4Q4.7 15.75 6.1 11.9l-.25.15Q2.05 13.8.9 16.5l-.05-.3-.1-1.75-.05-.55-.05-.65v.1q-.35-3.05-1-4.7L-.4 8.5q-1.05-2.6-2.85-1.85Q-6 8.15-6.9 11l.15-2.2q.4-3.05 1.7-4.75Q-3.3 1.8-1.3 2.2l2.25.55q-.05 2.05 5.5 5 3.7 1.9 8.55 3.1.45 3.3-1.05 3.75" fill="#b88b8b"/><path d="M42.3 6q.85-1.5 4.25-1.9 3.55-.4 5.05 0l-.55.15q-1.05.45-2.8 1.9Q44.7 9 44.7 11.4l2.2 1.5q1.95 1.7 2.15 3.35l-.25.05q-1.25-1-4.65-1.55l-3.35-.45-.25.05q-.3-1.95-1.9-3.2 4-1.3 4.45-3.35.15-.9-.8-1.8" fill="#806161"/></g><g id="S"><path d="M0 6.35q1.5-2.3 2.9-3.95Q9.6-5.75 14.5-.35l.75 1q1.8 2.55 1.3 5.25-.5-2.5-1.75-4.15Q11.45-.6 9.35-.05 7.05 1.35 5 2.85 2.65 4.5.5 6.3l-.5.05" fill="#9ff"/><path d="M16.55 5.9q-1 3.7-2.95 5.4l-3.15 2.55-.1-.35-.25-.75-.85-1.95q1.05.6 3.45-1.05 3.6-2.5 2.1-8 1.25 1.65 1.75 4.15" fill="#37c8c8"/><path d="M10.1 12.75Q7.7 6.55 0 6.35l.5-.05Q2.65 4.5 5 2.85q2.05-1.5 4.35-2.9 2.1-.55 5.45 1.8 1.5 5.5-2.1 8-2.4 1.65-3.45 1.05l.85 1.95" fill="#40e6e6"/><path d="M16.55 5.9q-1 3.7-2.95 5.4l-3.15 2.55M0 6.35q1.5-2.3 2.9-3.95Q9.6-5.75 14.5-.35l.75 1q1.8 2.55 1.3 5.25" fill="none" stroke="#000" stroke-opacity=".251" stroke-width=".5"/></g><g id="ah"><use transform="matrix(.9442 .32628 -.32628 .9442 5.3 0)" filter="url(#T)" xlink:href="#U"/><use transform="matrix(.99734 -.01627 .01627 .99734 .05 6.5)" xlink:href="#V"/></g><g id="aO"><use transform="matrix(1.2465 .0286 -.0286 1.2465 165.55 7.7)" filter="url(#W)" xlink:href="#X"/><use transform="matrix(-1.2446 -.13101 -.13101 1.2446 44 74.8)" xlink:href="#Y"/><use transform="scale(1.25) rotate(16.359 45.5 316.55)" xlink:href="#Z"/><use transform="matrix(1.2446 -.13101 .13101 1.2446 6.35 25.25)" xlink:href="#aa"/><use transform="translate(71.9 25.7) scale(.75317)" filter="url(#ab)" xlink:href="#ac"/><use transform="translate(66.9 17.35) scale(.94673)" xlink:href="#ad"/><use transform="translate(68.9 14.95)" filter="url(#ae)" xlink:href="#af"/><use transform="rotate(-5.035 172.535 -841.1) scale(1.02365)" xlink:href="#ag"/><use transform="matrix(1.4234 .7908 -.6949 1.3674 172.65 55.1)" xlink:href="#ah"/><use transform="matrix(1.4506 .73717 -.6949 1.3674 165.2 45.55)" xlink:href="#ah"/><use transform="matrix(1.0982 1.0408 -.98105 1.0352 182.85 68.25)" xlink:href="#ah"/><use transform="matrix(1.8939 .36304 -.34221 1.7853 144.55 42.35)" xlink:href="#ah"/><use transform="matrix(.933 1.3336 -1.2571 .8795 180.9 80.05)" xlink:href="#ah"/><use transform="matrix(1.2446 -.13101 .13101 1.2446 150.6 114)" xlink:href="#Y"/><use transform="matrix(1.399 1.3258 -1.2497 1.3188 161.75 59.45)" xlink:href="#ah"/><use transform="matrix(1.2117 1.4978 -1.4118 1.1423 158.75 78.7)" xlink:href="#ah"/><use transform="matrix(1.2928 .51901 -.48924 1.2186 136.55 52.95)" xlink:href="#ah"/><use transform="matrix(1.4561 1.2632 -1.1907 1.3725 141.65 60.9)" xlink:href="#ah"/><use transform="matrix(.67401 1.4404 -1.3577 .63531 145.05 85.9)" xlink:href="#ah"/><use transform="matrix(.76057 .28598 -.26956 .71695 134.85 25.25)" xlink:href="#ah"/><use transform="matrix(.76057 .28598 -.26956 .71695 140.15 32.65)" xlink:href="#ah"/><use transform="matrix(.76057 .28598 -.26956 .71695 132.05 29.75)" xlink:href="#ah"/><use transform="matrix(.82253 .21747 -.409 .64622 118.2 50.05)" xlink:href="#ah"/></g><g id="ai"><path d="M.05 11.1 0 10.4l.05-.7v1.4" fill="#dad294"/><path d="m15 20 9.8.8 9.3-.7 2.25 43.55q-5.2 1.15-11.55 1.15-6.45 0-11.7-1.2.75-21.75 1.9-43.6" fill="#ccc48a"/><path d="M.05 11.1q.55 3.85 7.2 6.65Q10.8 19.25 15 20q-1.15 21.85-1.9 43.6-3.15-.7-5.85-1.85-3.05-1.3-4.85-2.8L.05 11.1" fill="#e6dd9c"/><path d="M34.1 20.1q4.5-.8 8.2-2.35 6.9-2.9 7.3-6.9-1.45 24.25-2.45 48.1-1.8 1.5-4.85 2.8-2.75 1.15-5.95 1.9L34.1 20.1" fill="#b3ab79"/><path d="m34.95 4.6 3.65 1q5.75 2 5.75 4.8t-5.75 4.8l-1.5.5-5.65-2.9 5.65 2.9q-5.3 1.5-12.35 1.5h-.25l-.8-3.9.8 3.9q-7.95-.05-13.6-2-3.05-1.05-4.5-2.35-1.25-1.15-1.25-2.45 0-2.8 5.75-4.8 3.15-1.1 7-1.55l6.85-.45q5.65 0 10.2 1L31 6.65l-5.85-.45-4.75.3q-2.1.25-3.8.75-3.5 1.05-3.5 2.5 0 .85 1.2 1.6l2.3.9q3 .9 7.1 1.05h1.45l6.3-.5 2.2-.55q3.55-1.05 3.55-2.5V9.6q-.2-1.35-3.55-2.35L31 6.65l3.95-2.05M17.9 4.05l2.5 2.45-2.5-2.45m-7.2 7.4-4.3 1.4 4.3-1.4" fill="#b3ac79"/><path d="M49.6 10.85q-.4 4-7.3 6.9-3.7 1.55-8.2 2.35l-9.3.7L15 20q-4.2-.75-7.75-2.25Q.6 14.95.05 11.1V9.7q.55-3.85 7.2-6.65 3.4-1.4 7.45-2.15L24.8 0q8.5 0 14.95 2.1l2.55.95q7.2 3 7.3 7.25v.55M34.95 4.6l4.8-2.5-4.8 2.5q-4.55-1-10.2-1l-6.85.45q-3.85.45-7 1.55-5.75 2-5.75 4.8 0 1.3 1.25 2.45 1.45 1.3 4.5 2.35 5.65 1.95 13.6 2h.25q7.05 0 12.35-1.5l1.5-.5q5.75-2 5.75-4.8T38.6 5.6l-3.65-1m6 13.05L37.1 15.7l3.85 1.95M31 6.65l2.65.6q3.35 1 3.55 2.35v.15q0 1.45-3.55 2.5l-2.2.55-6.3.5H23.7l-.4-1.85.4 1.85q-4.1-.15-7.1-1.05l-2.3-.9q-1.2-.75-1.2-1.6 0-1.45 3.5-2.5 1.7-.5 3.8-.75l4.75-.3 5.85.45-2 1 2-1m-6.15 12.4-.35-1.85.35 1.85M22.8 8.85 20.4 6.5l2.4 2.35m-20.1 5.2 3.7-1.2-3.7 1.2m28.75-1.25-3.3-1.7 3.3 1.7M14.7.9l3.2 3.15L14.7.9" fill="#c2bb83"/><path d="M49.6 10.85v-.55q-.1-4.25-7.3-7.25l-2.55-.95-4.8 2.5 3.65 1q5.75 2 5.75 4.8t-5.75 4.8l-1.5.5 3.85 1.95M31 6.65l2.65.6q3.35 1 3.55 2.35v.15q0 1.45-3.55 2.5l-2.2.55 5.65 2.9q-5.3 1.5-12.35 1.5h-.25l.35 1.85M34.95 4.6 31 6.65l-5.85-.45-4.75.3 2.4 2.35m8.65 3.95-6.3.5H23.7l.8 3.9q-7.95-.05-13.6-2-3.05-1.05-4.5-2.35l-3.7 1.2m15.2-10 6.85-.45q5.65 0 10.2 1m-6.8 6.5 3.3 1.7m-8.15-1.35.4 1.85q-4.1-.15-7.1-1.05l-2.3-.9q-1.2-.75-1.2-1.6 0-1.45 3.5-2.5 1.7-.5 3.8-.75l-2.5-2.45q-3.85.45-7 1.55-5.75 2-5.75 4.8 0 1.3 1.25 2.45l4.3-1.4M29 7.65l2-1M.05 9.7q.55-3.85 7.2-6.65 3.4-1.4 7.45-2.15L24.8 0q8.5 0 14.95 2.1m7.4 56.85q1-23.85 2.45-48.1m-31.7-6.8L14.7.9M.05 11.1 0 10.4l.05-.7v1.4M2.4 58.95.05 11.1M25.7 64.8l8.8-44.4M6.8 16.25l6 47.25m-4.85 40.15-.1-1.2" fill="none" stroke="#17170c" stroke-opacity=".251"/></g><g id="ak"><path d="M1.3 40.95q-1.55-6.65 1.1-15 1.85-3.7.7-8.1-.75-3.95 2.7-6.1 16.6 5.55 26.5-.5 8.2 2.6 14.4-1.75.7 2 .7 4.4 0 2.05-2.15 14.2-2.1 11.9-3 15.25l-.2-.15q-2.65-3.25-2.95-6.95.95-5.45-.6-10.1-1.9-2.4-4.3-2.5l-.85-.55-.75-.15q-1.45 0-3.9 6.45l-4.9 14.35-.1-.05v-.05q2.6-11.55 1.4-16.15-1.85-2.85-1.2-5.15.5-1.45-1.8-1.9-2.3.2-3.6 1.9l-.9-.15q-1.05 0-2.2 4.1t-2.25 4.1h-.1q-1.6-1.95-1.25-6.05-.2-2.6-2.95-1.9-.35-.25-.7-.25-2.8 0-4.1 8.7-1.3 8.75-2.75 10.05" fill="#73aa4d"/><path d="m1.3 40.95-.2.15q-.45-.95-.75-2.75-.35-1.7-.35-2.8l.75-10L.4 20 0 14.25q0-1.3.95-4.45L1.2 9l.35-1.4q2.15-3 6.85-5.2Q13.65 0 18.7 0q1.7 0 4.6.95 2.95.9 5 .9l3.45-.35 3.45-.4q4.55 0 8.2 3.4 2.35 2.15 3.3 5-6.2 4.35-14.4 1.75-9.9 6.05-26.5.5-3.45 2.15-2.7 6.1 1.15 4.4-.7 8.1-2.65 8.35-1.1 15m40.75 2.25q-5.4-4.9-5-9.5.2-2.45-.9-6.2-.85-2.75-1.95-3.85 2.4.1 4.3 2.5 1.55 4.65.6 10.1.3 3.7 2.95 6.95m-18.35.45q-.2-6.6-.9-11.65-1.2-8.6-4.3-9.65 1.3-1.7 3.6-1.9 2.3.45 1.8 1.9-.65 2.3 1.2 5.15 1.2 4.6-1.4 16.15M13.05 30.4q-1.55-.1-2.5-4.1-.75-3.1-1.7-3.85 2.75-.7 2.95 1.9-.35 4.1 1.25 6.05" fill="#81c458"/><path d="M46.7 9.5q-.95-2.85-3.3-5-3.65-3.4-8.2-3.4l-3.45.4-3.45.35q-2.05 0-5-.9Q20.4 0 18.7 0 13.65 0 8.4 2.4 3.7 4.6 1.55 7.6L1.2 9l-.25.8Q0 12.95 0 14.25L.4 20l.35 5.55-.75 10q0 1.1.35 2.8.3 1.8.75 2.75l.2-.15M46.7 9.5q.7 2 .7 4.4 0 2.05-2.15 14.2-2.1 11.9-3 15.25l-.2-.15q-5.4-4.9-5-9.5.2-2.45-.9-6.2-.85-2.75-1.95-3.85l-.85-.55-.75-.15q-1.45 0-3.9 6.45l-4.9 14.35m-.1-.05v-.05q-.2-6.6-.9-11.65-1.2-8.6-4.3-9.65l-.9-.15q-1.05 0-2.2 4.1t-2.25 4.1h-.1q-1.55-.1-2.5-4.1-.75-3.1-1.7-3.85-.35-.25-.7-.25-2.8 0-4.1 8.7-1.3 8.75-2.75 10.05" fill="none" stroke="#475727" stroke-opacity=".502" stroke-width=".5"/></g><g id="am"><path d="M46.45 5q.05 6.1-12.35 11.9h.05q-12.55 6-29.85 7.5l-1.4-.2q-1.85-.7-1.95-1.05-.4-.05-.6-.5 12.25-1.1 20.05-5.45l.6-.35 1.6.05q8.7.05 14.1-2.55Q44 10.9 46.45 5M22.6 16.9l-2.2.3 2.2-.3" fill="#73a93a"/><path d="m22.6 16.9 5.4-1.25q5.55-1.7 10.15-8.15l7.35-5.75.05.1q.85 1.6.9 3.15-2.45 5.9-9.75 9.35-5.4 2.6-14.1 2.55M.35 22.65q-.35-.7-.35-2.2 0-.8.6-1.55l2.75-.3v.05h.05l.95-.15.55-.1 1-.2 8.3-.4 6.2-.6Q12.6 21.55.35 22.65" fill="#81c143"/><path d="m22.6 16.9 5.4-1.25q5.55-1.7 10.15-8.15l7.35-5.75.05.1q.85 1.6.9 3.15.05 6.1-12.35 11.9h.05q-12.55 6-29.85 7.5l-1.4-.2q-1.85-.7-1.95-1.05-.4-.05-.6-.5-.35-.7-.35-2.2 0-.8.6-1.55l2.75-.3 1-.1.55-.1 1-.2 8.3-.4 6.2-.6 2.2-.3M4.35 18.5l-.95.15h-.05v-.05m.05.05h-.05" fill="none" stroke="#475727" stroke-opacity=".502" stroke-width=".5"/></g><g id="an"><path d="M46.45 5q.05 6.1-12.35 11.9h.05q-12.55 6-29.85 7.5l-1.4-.2q-1.85-.7-1.95-1.05-.4-.05-.6-.5 2.75 1.6 6.6.25 3.9-1.4 7.15-3.45 10.2 1.45 16.55-5.1 2.9 1.1 8.55-4.55Q43 9.15 46.45 5" fill="#73a93a"/><path d="m3.55 18.65 1.35-.25 1-.2 7.25.25q7.1.2 13-2.65 5.85-2.85 8.4-3.9 2.8-2 3.6-4.4l4-3.35V.05L42.7 0l.6.1.55.15q1.2.45 1.7 1.6.85 1.6.9 3.15Q43 9.15 39.2 9.8q-5.65 5.65-8.55 4.55-6.35 6.55-16.55 5.1-3.25 2.05-7.15 3.45-3.85 1.35-6.6-.25-.35-.7-.35-2.2 0-1.15 1.25-2.35l.15-.1 1.95.6v.05h.2" fill="#81c143"/><path d="m3.55 18.65 1.35-.25 1-.2 7.25.25q7.1.2 13-2.65 5.85-2.85 8.4-3.9 2.8-2 3.6-4.4l4-3.35V.05L42.7 0l.6.1.55.15q1.2.45 1.7 1.6.85 1.6.9 3.15.05 6.1-12.35 11.9h.05q-12.55 6-29.85 7.5l-1.4-.2q-1.85-.7-1.95-1.05-.4-.05-.6-.5-.35-.7-.35-2.2 0-1.15 1.25-2.35l.15-.1 1.95.6.2.05h-.2v-.05" fill="none" stroke="#475727" stroke-opacity=".502" stroke-width=".5"/></g><g id="ao"><path d="M2.05.75Q2.5 2.05 3.7 3.3q2 2.1 6.05 3.85l3.45 1.2q-10.4 2.8-3.7 14.7Q-1.45 35.2 12 47.2L8.7 46Q1.05 42.7 0 38.4-5.15 21.8 2 .75h.05" fill="#ffb40a"/><path d="m41.25 9.4.05-.05 3.15-.8 4.1-1.4q5.1-2.1 7-4.75.75-1.15 1-2.4Q67 20.65 60.25 37.2q-.1 5.1-8.85 8.8l-1.75.65-6.25 1.75-7.1 1.05q14.3-5.55 6.35-11.85 9.5-15.1-1.4-28.2" fill="#a67506"/><path d="m13.2 8.35 5.2 1.2 10.8.95q6.6 0 12.05-1.1 10.9 13.1 1.4 28.2 7.95 6.3-6.35 11.85l-6.2.25-11.95-1-6.05-1.45-.1-.05q-13.45-12-2.5-24.15-6.7-11.9 3.7-14.7" fill="#c78c07"/><path d="m2.05.75 3.7.3 1.2.8q1.25.85 1.7 1.25 1 .95 2.65 1.8l2.25 1 2.75.85 4.2.9 8.7.65h1.6l8.15-.8 2.55-.6 3.3-1 4.5-1.65q2.6-1 3.25-1.8l1.7-2.2 2.3-.25q-.25 1.25-1 2.4-1.9 2.65-7 4.75l-4.1 1.4-3.15.8-.05.05q-5.45 1.1-12.05 1.1l-10.8-.95-5.2-1.2-3.45-1.2Q5.7 5.4 3.7 3.3 2.5 2.05 2.05.75" fill="#fee7b4"/><path d="M56.55 0Q67 20.65 60.25 37.2q-.1 5.1-8.85 8.8l-1.75.65-6.25 1.75-7.1 1.05-6.2.25-11.95-1-6.05-1.45-.1-.05L8.7 46Q1.05 42.7 0 38.4-5.15 21.8 2 .75" fill="none" stroke="#17170c" stroke-opacity=".251"/></g><g id="ap"><path d="M2.45 4.1q.25-1.3.95-2.25Q3.85 1.2 4.55.7q1.2-.75 2.6-.7l.2.05L8.5.3q.8.25 1.7.65 3.3 1.8 5.55 5.8l1.2 2.35-12.6 4.6q-2.1-3.8-2.1-7.55l.2-2.05" fill="#875e04"/><path d="m13.65 20.8 2.2 2.55-1.1.2h-.05q-2 .05-4.35-1.25-4.3-2.25-7.35-7.6Q0 9.55 0 4.4q0-1.8.4-3.2l2.05 2.9-.2 2.05q0 3.75 2.1 7.55l.2.35q2.35 4.05 5.65 5.8 1.8 1 3.3.95H13.65" fill="#eba336"/><path d="M16.95 9.1q1.15 2.8 1.15 5.55 0 3.95-2.35 5.45l-.85.4-1.25.3H13.5q-1.5.05-3.3-.95-3.3-1.75-5.65-5.8l-.2-.35 12.6-4.6" fill="#a67704"/><path d="M14.75 23.55H16M.4 1.2Q0 2.6 0 4.4q0 5.15 3 10.3 3.05 5.35 7.35 7.6 2.35 1.3 4.35 1.25" fill="none" stroke="#17170c" stroke-opacity=".251" stroke-width=".5"/></g><g id="aq"><path d="M28.6 17.65q0 4.8-3.35 8.15t-8.15 3.35q-4.75 0-8.1-3.35t-2.8-4.45q.5-1.15 13.65-4.45Q8.3 10.25 9 9.55q3.35-3.35 8.1-3.35 4.8 0 8.15 3.35t3.35 8.1" fill="#1f8fc7" fill-opacity=".8"/><path d="M20.1.25q5.25.8 9.25 4.8Q34.4 10.1 34.4 17.2t-5.05 12.15Q24.7 34 18.25 34.4 34.75 21.9 20.1.25" fill="#176891" fill-opacity=".8"/><path d="M18.25 34.4H17.2q-7.1 0-12.15-5.05T0 17.2 5.05 5.05 17.2 0l2.9.25Q34.75 21.9 18.25 34.4" fill="#1f8fc7" fill-opacity=".8"/><path d="M20.1.25q5.25.8 9.25 4.8Q34.4 10.1 34.4 17.2t-5.05 12.15Q24.7 34 18.25 34.4H17.2q-7.1 0-12.15-5.05T0 17.2 5.05 5.05 17.2 0l2.9.25" fill="none" stroke="#17170c" stroke-opacity=".251"/><path d="m26.7 14.85 3.1-.95m-7.35-4.65L23.9 5.6m-8.15 2.65-1.7-3.7" fill="none" stroke="#abe3ff" stroke-opacity=".2"/><path d="M1.55 13.9h.1q1.35 4.35 2 5.4 2 3.6 6 3.6l2.4-.3 2.5-.3q1.5 0 2.2.6 1 .85 1 3.1t-1.4 3.9q-1.5 1.8-3.8 1.8-3.55 0-7-4.6-4-5.35-4-13.2" fill="#29b8ff"/><path d="M28.6 16.4q.45-8.35-5.9-14.15 3.5 2.25 6.8 6.15l.35.35q5.45 7.4 0 17.1L28.5 28q-3.8 3.25-6.9 3.85 6.5-7.15 7-15.45" fill="#176891"/></g><g id="az"><use transform="translate(.45)" xlink:href="#ar"/><use transform="matrix(.86603 -.5 .42989 .74457 1.4 6.2)" filter="url(#as)" xlink:href="#at"/><use xlink:href="#au"/></g><g id="av"><path d="M6.25.05H9.2q2.15-.15 4.75 1 4.3 1.95 7.3 6.3 1.7 2.45 2.45 4.85L20 13.4q-.65-3-2.75-6.05-3-4.35-7.3-6.3L7.75.3 6.25.05" fill="#a67704"/><path d="M23.7 12.2q.6 1.95.6 3.85 0 4.3-3.05 5.95-1.2.65-2.55.8H15.6l-.15-.15.65-.15 1.15-.5q3.05-1.65 3.05-5.95L20 13.4l3.7-1.2" fill="#875e04"/><path d="m15.45 22.65-2.2-2.15 1.25-.25.85-.35q2.35-1.25 2.35-4.55 0-2.3-1.15-4.65l-1.2-2Q13.1 5.35 9.8 3.85q-.9-.35-1.7-.55l-1.15-.2-.2-.05q-1.4-.05-2.6.6-.7.4-1.15.95-.7.8-.95 1.9L0 4.05q.25-.9.75-1.55.7-1.1 1.85-1.75Q4.15-.05 6 0l.25.05 1.5.25 2.2.75q4.3 1.95 7.3 6.3 2.1 3.05 2.75 6.05l.3 2.65q0 4.3-3.05 5.95l-1.15.5-.65.15" fill="#eba336"/><path d="M6.25.05H9.2q2.15-.15 4.75 1 4.3 1.95 7.3 6.3 1.7 2.45 2.45 4.85.6 1.95.6 3.85 0 4.3-3.05 5.95-1.2.65-2.55.8H15.6M0 4.05q.25-.9.75-1.55.7-1.1 1.85-1.75Q4.15-.05 6 0l.25.05" fill="none" stroke="#17170c" stroke-opacity=".251" stroke-width=".5"/></g><g id="bg"><use transform="translate(0 3.65)" filter="url(#aw)" xlink:href="#ax"/><use transform="translate(.6 2.7) scale(.62569)" filter="url(#ay)" xlink:href="#az"/><use transform="matrix(1 0 0 1.193 .4 0)" filter="url(#aA)" xlink:href="#aB"/></g><g id="bh"><use xlink:href="#aC"/><use transform="matrix(.0579 .62788 -.62788 .0579 83.25 252.3)" xlink:href="#e"/><use transform="matrix(-.539 .60202 -1.2872 -1.1525 89.4 265.3)" filter="url(#aD)" xlink:href="#g"/><use transform="matrix(.41074 .56305 -.56305 .41074 73.2 257.95)" xlink:href="#e"/><use transform="matrix(.0579 .62788 -.62788 .0579 80.1 198.3)" filter="url(#aE)" xlink:href="#e"/><use transform="translate(70.35 374.4) scale(.87808)" xlink:href="#aF"/><use transform="matrix(-.539 .60202 -1.2872 -1.1525 85.5 213.1)" filter="url(#aG)" xlink:href="#g"/><use transform="translate(54.9 335.5) scale(.84337)" filter="url(#aH)" xlink:href="#aI"/><use transform="scale(-.842 .842) rotate(47.976 -482.966 29.137)" filter="url(#aJ)" xlink:href="#aI"/><use transform="translate(73.85 101.75) scale(.88208)" filter="url(#aK)" xlink:href="#aL"/><use transform="matrix(.99414 -.06491 .06491 .99414 36.35 170.1)" filter="url(#aM)" xlink:href="#aN"/><use transform="matrix(.49574 .60417 -.60417 .49574 134.55 227.4)" xlink:href="#e"/><use transform="rotate(63.378 -44.415 175.744) scale(.89422)" xlink:href="#e"/><use transform="rotate(20.567 -523.223 449.32) scale(.99816)" xlink:href="#y"/><use transform="matrix(.97977 .19032 -.19032 .97977 118.9 210.75)" xlink:href="#e"/><use transform="matrix(-.75633 -.31487 -.31487 .75633 91.85 41.65)" xlink:href="#y"/><use transform="matrix(-.69336 -.43623 -.43623 .69336 96.1 43.65)" xlink:href="#e"/><use transform="translate(116.1 114.2)" xlink:href="#c26"/><use transform="translate(1 43.45)" xlink:href="#aO"/><use transform="matrix(.45464 .67056 -1.4338 .97211 138.45 212.95)" filter="url(#aP)" xlink:href="#g"/><use transform="matrix(-.29665 .75256 -1.6091 -.63432 85.15 269.9)" filter="url(#aQ)" xlink:href="#g"/><use transform="matrix(-.77962 .22093 -.47238 -1.667 85.3 57.4)" filter="url(#aR)" xlink:href="#g"/><use transform="rotate(2.024 -121.081 2197.658) scale(.882)" filter="url(#aS)" xlink:href="#aT"/><use transform="translate(75.45 7.7)" filter="url(#aU)" xlink:href="#aV"/><use transform="translate(75.85 3.5)" filter="url(#aW)" xlink:href="#aX"/><use transform="matrix(-.0102 .80803 -2.6556 -.03354 121.35 3.8)" filter="url(#aY)" xlink:href="#g"/><use transform="matrix(1.5857 .07622 -.19716 4.1017 76.05 0)" filter="url(#aZ)" xlink:href="#g"/><use transform="matrix(1.5871 -.02104 .1799 13.573 72.8 189.25)" filter="url(#ba)" xlink:href="#g"/><use xlink:href="#bb"/><use transform="matrix(.95302 .1678 0 1 73.15 361.7)" xlink:href="#bc"/><use transform="matrix(.95302 .1678 0 1 73.15 355.9)" xlink:href="#bc"/><use transform="matrix(1.0344 .20645 0 1 70.85 357.9)" xlink:href="#bd"/><use transform="matrix(1.0344 .20645 0 1 70.7 352.3)" xlink:href="#bd"/><use transform="matrix(.87862 .08086 0 1 78.3 341.05)" xlink:href="#bc"/><use transform="matrix(.95302 .1678 0 1 73.15 347.5)" xlink:href="#bc"/><use transform="matrix(1.0356 .17767 .01704 .99794 70.65 343.7)" xlink:href="#bd"/><use transform="matrix(-.87862 .08086 0 1 116.1 328.35)" xlink:href="#bc"/><use transform="matrix(-1.0344 0 0 1 119.5 326.45)" xlink:href="#bd"/><use transform="matrix(1.0117 .09758 -.09598 .99506 73 339.25)" xlink:href="#bd"/><use transform="matrix(.87862 .08086 0 1 74.3 325.45)" xlink:href="#bc"/><use transform="matrix(-.961 0 0 1 117.45 353.3)" xlink:href="#bd"/><use transform="translate(72.05 323.6)" xlink:href="#be"/><use transform="matrix(.875 0 0 .875 68.2 380.45)" xlink:href="#bf"/><use transform="matrix(.84859 .13879 -.13879 .84859 64.35 390.45)" xlink:href="#bg"/><use transform="matrix(-.65005 .46597 .49001 .63425 70.65 321.55)" xlink:href="#y"/><use transform="matrix(.66277 .73409 -.73409 .66277 71.9 307.6)" xlink:href="#aI"/></g><filter id="f"><feColorMatrix in="SourceGraphic" result="cxform" values="1.0 0.0 0.0 0.0 0.0 0.0 1.0 0.0 0.0 0.0 0.0 0.0 1.0 0.0 0.0 0.0 0.0 0.0 0.5703125 0.0"/><feComposite in2="SourceGraphic" operator="in" result="color-xform"/></filter><filter id="o"><feColorMatrix in="SourceGraphic" result="cxform" values="1.0 0.0 0.0 0.0 0.0 0.0 1.0 0.0 0.0 0.0 0.0 0.0 1.0 0.0 0.0 0.0 0.0 0.0 0.26171875 0.0"/><feComposite in2="SourceGraphic" operator="in" result="color-xform"/></filter><filter id="r"><feColorMatrix in="SourceGraphic" result="cxform" values="1.0 0.0 0.0 0.0 0.0 0.0 1.0 0.0 0.0 0.0 0.0 0.0 1.0 0.0 0.0 0.0 0.0 0.0 0.26171875 0.0"/><feComposite in2="SourceGraphic" operator="in" result="color-xform"/></filter><filter id="v"><feColorMatrix in="SourceGraphic" result="cxform" values="1.0 0.0 0.0 0.0 0.0 0.0 1.0 0.0 0.0 0.0 0.0 0.0 1.0 0.0 0.0 0.0 0.0 0.0 0.5703125 0.0"/><feComposite in2="SourceGraphic" operator="in" result="color-xform"/></filter><filter id="A"><feColorMatrix in="SourceGraphic" result="cxform" values="1.0 0.0 0.0 0.0 0.0 0.0 1.0 0.0 0.0 0.0 0.0 0.0 1.0 0.0 0.0 0.0 0.0 0.0 0.5703125 0.0"/><feComposite in2="SourceGraphic" operator="in" result="color-xform"/></filter><filter id="F"><feColorMatrix in="SourceGraphic" result="cxform" values="1.0 0.0 0.0 0.0 0.0 0.0 1.0 0.0 0.0 0.0 0.0 0.0 1.0 0.0 0.0 0.0 0.0 0.0 0.26171875 0.0"/><feComposite in2="SourceGraphic" operator="in" result="color-xform"/></filter><filter id="H"><feColorMatrix in="SourceGraphic" result="cxform" values="1.0 0.0 0.0 0.0 0.0 0.0 1.0 0.0 0.0 0.0 0.0 0.0 1.0 0.0 0.0 0.0 0.0 0.0 0.26171875 0.0"/><feComposite in2="SourceGraphic" operator="in" result="color-xform"/></filter><filter id="J"><feColorMatrix in="SourceGraphic" result="cxform" values="1.0 0.0 0.0 0.0 0.0 0.0 1.0 0.0 0.0 0.0 0.0 0.0 1.0 0.0 0.0 0.0 0.0 0.0 0.26171875 0.0"/><feComposite in2="SourceGraphic" operator="in" result="color-xform"/></filter><filter id="T"><feColorMatrix in="SourceGraphic" result="cxform" values="1.0 0.0 0.0 0.0 0.0 0.0 1.0 0.0 0.0 0.0 0.0 0.0 1.0 0.0 0.0 0.0 0.0 0.0 0.41015625 0.0"/><feComposite in2="SourceGraphic" operator="in" result="color-xform"/></filter><filter id="W"><feColorMatrix in="SourceGraphic" result="cxform" values="0.87109375 0.0 0.0 0.0 0.0 0.0 0.87109375 0.0 0.0 0.0 0.0 0.0 0.87109375 0.0 0.0 0.0 0.0 0.0 1.0 0.0"/><feComposite in2="SourceGraphic" operator="in" result="color-xform"/></filter><filter id="ab"><feColorMatrix in="SourceGraphic" result="cxform" values="1.0 0.0 0.0 0.0 0.0 0.0 1.0 0.0 0.0 0.0 0.0 0.0 1.0 0.0 0.0 0.0 0.0 0.0 0.26171875 0.0"/><feComposite in2="SourceGraphic" operator="in" result="color-xform"/></filter><filter id="ae"><feColorMatrix in="SourceGraphic" result="cxform" values="1.0 0.0 0.0 0.0 0.0 0.0 1.0 0.0 0.0 0.0 0.0 0.0 1.0 0.0 0.0 0.0 0.0 0.0 0.48046875 0.0"/><feComposite in2="SourceGraphic" operator="in" result="color-xform"/></filter><filter id="as"><feColorMatrix in="SourceGraphic" result="cxform" values="1.0 0.0 0.0 0.0 0.0 0.0 1.0 0.0 0.0 0.0 0.0 0.0 1.0 0.0 0.0 0.0 0.0 0.0 0.69921875 0.0"/><feComposite in2="SourceGraphic" operator="in" result="color-xform"/></filter><filter id="aw"><feColorMatrix in="SourceGraphic" result="cxform" values="0.609375 0.0 0.0 0.0 0.0 0.0 0.609375 0.0 0.0 0.0 0.0 0.0 0.609375 0.0 0.0 0.0 0.0 0.0 1.0 0.0"/><feComposite in2="SourceGraphic" operator="in" result="color-xform"/></filter><filter id="ay"><feColorMatrix in="SourceGraphic" result="cxform" values="0.5 0.0 0.0 0.0 0.31640625 0.0 0.5 0.0 0.0 0.3984375 0.0 0.0 0.5 0.0 0.4296875 0.0 0.0 0.0 1.0 0.0"/><feComposite in2="SourceGraphic" operator="in" result="color-xform"/><feColorMatrix in="SourceGraphic" result="color-matrix" values="1.5846208334 -0.409516781569 -0.0551040023565 0.0 -0.0297656375915 -0.207379207015 1.38248312473 -0.0551040023565 0.0 -0.0297656338662 -0.207379207015 -0.409516781569 1.73689591885 0.0 -0.0297656357288 0.0 0.0 0.0 1.0 0.0"/></filter><filter id="aA"><feColorMatrix in="SourceGraphic" result="cxform" values="0.609375 0.0 0.0 0.0 0.0 0.0 0.609375 0.0 0.0 0.0 0.0 0.0 0.609375 0.0 0.0 0.0 0.0 0.0 1.0 0.0"/><feComposite in2="SourceGraphic" operator="in" result="color-xform"/></filter><filter id="aD"><feColorMatrix in="SourceGraphic" result="cxform" values="1.0 0.0 0.0 0.0 0.0 0.0 1.0 0.0 0.0 0.0 0.0 0.0 1.0 0.0 0.0 0.0 0.0 0.0 0.48046875 0.0"/><feComposite in2="SourceGraphic" operator="in" result="color-xform"/></filter><filter id="aE"><feColorMatrix in="SourceGraphic" result="cxform" values="0.62890625 0.0 0.0 0.0 0.0 0.0 0.62890625 0.0 0.0 0.0 0.0 0.0 0.62890625 0.0 0.0 0.0 0.0 0.0 1.0 0.0"/><feComposite in2="SourceGraphic" operator="in" result="color-xform"/></filter><filter id="aG"><feColorMatrix in="SourceGraphic" result="cxform" values="1.0 0.0 0.0 0.0 0.0 0.0 1.0 0.0 0.0 0.0 0.0 0.0 1.0 0.0 0.0 0.0 0.0 0.0 0.48046875 0.0"/><feComposite in2="SourceGraphic" operator="in" result="color-xform"/></filter><filter id="aH"><feColorMatrix in="SourceGraphic" result="cxform" values="0.828125 0.0 0.0 0.0 0.0 0.0 0.828125 0.0 0.0 0.0 0.0 0.0 0.828125 0.0 0.0 0.0 0.0 0.0 1.0 0.0"/><feComposite in2="SourceGraphic" operator="in" result="color-xform"/></filter><filter id="aJ"><feColorMatrix in="SourceGraphic" result="cxform" values="0.828125 0.0 0.0 0.0 0.0 0.0 0.828125 0.0 0.0 0.0 0.0 0.0 0.828125 0.0 0.0 0.0 0.0 0.0 1.0 0.0"/><feComposite in2="SourceGraphic" operator="in" result="color-xform"/></filter><filter id="aK"><feColorMatrix in="SourceGraphic" result="cxform" values="1.0 0.0 0.0 0.0 0.0 0.0 0.94140625 0.0 0.0 0.03515625 0.0 0.0 0.76171875 0.0 0.0 0.0 0.0 0.0 1.0 0.0"/><feComposite in2="SourceGraphic" operator="in" result="color-xform"/></filter><filter id="aM"><feColorMatrix in="SourceGraphic" result="cxform" values="0.62890625 0.0 0.0 0.0 0.0 0.0 0.62890625 0.0 0.0 0.0 0.0 0.0 0.62890625 0.0 0.0 0.0 0.0 0.0 1.0 0.0"/><feComposite in2="SourceGraphic" operator="in" result="color-xform"/></filter><filter id="aP"><feColorMatrix in="SourceGraphic" result="cxform" values="1.0 0.0 0.0 0.0 0.0 0.0 1.0 0.0 0.0 0.0 0.0 0.0 1.0 0.0 0.0 0.0 0.0 0.0 0.48828125 0.0"/><feComposite in2="SourceGraphic" operator="in" result="color-xform"/></filter><filter id="aQ"><feColorMatrix in="SourceGraphic" result="cxform" values="1.0 0.0 0.0 0.0 0.0 0.0 1.0 0.0 0.0 0.0 0.0 0.0 1.0 0.0 0.0 0.0 0.0 0.0 0.5703125 0.0"/><feComposite in2="SourceGraphic" operator="in" result="color-xform"/></filter><filter id="aR"><feColorMatrix in="SourceGraphic" result="cxform" values="1.0 0.0 0.0 0.0 0.0 0.0 1.0 0.0 0.0 0.0 0.0 0.0 1.0 0.0 0.0 0.0 0.0 0.0 0.69921875 0.0"/><feComposite in2="SourceGraphic" operator="in" result="color-xform"/></filter><filter id="aS"><feColorMatrix in="SourceGraphic" result="cxform" values="1.0 0.0 0.0 0.0 0.0 0.0 0.94140625 0.0 0.0 0.03515625 0.0 0.0 0.76171875 0.0 0.0 0.0 0.0 0.0 1.0 0.0"/><feComposite in2="SourceGraphic" operator="in" result="color-xform"/></filter><filter id="aU"><feColorMatrix in="SourceGraphic" result="cxform" values="1.0 0.0 0.0 0.0 0.0 0.0 1.0 0.0 0.0 0.0 0.0 0.0 1.0 0.0 0.0 0.0 0.0 0.0 0.26171875 0.0"/><feComposite in2="SourceGraphic" operator="in" result="color-xform"/></filter><filter id="aW"><feColorMatrix in="SourceGraphic" result="cxform" values="1.0 0.0 0.0 0.0 0.0 0.0 0.94140625 0.0 0.0 0.03515625 0.0 0.0 0.76171875 0.0 0.0 0.0 0.0 0.0 1.0 0.0"/><feComposite in2="SourceGraphic" operator="in" result="color-xform"/></filter><filter id="aY"><feColorMatrix in="SourceGraphic" result="cxform" values="1.0 0.0 0.0 0.0 0.0 0.0 1.0 0.0 0.0 0.0 0.0 0.0 1.0 0.0 0.0 0.0 0.0 0.0 0.19921875 0.0"/><feComposite in2="SourceGraphic" operator="in" result="color-xform"/></filter><filter id="aZ"><feColorMatrix in="SourceGraphic" result="cxform" values="1.0 0.0 0.0 0.0 0.0 0.0 1.0 0.0 0.0 0.0 0.0 0.0 1.0 0.0 0.0 0.0 0.0 0.0 0.26171875 0.0"/><feComposite in2="SourceGraphic" operator="in" result="color-xform"/></filter><filter id="ba"><feColorMatrix in="SourceGraphic" result="cxform" values="1.0 0.0 0.0 0.0 0.0 0.0 1.0 0.0 0.0 0.0 0.0 0.0 1.0 0.0 0.0 0.0 0.0 0.0 0.26171875 0.0"/><feComposite in2="SourceGraphic" operator="in" result="color-xform"/></filter><use xlink:href="#a" id="e"/><use xlink:href="#c" id="g"/><use xlink:href="#d" id="aF"/><use xlink:href="#h" id="p"/><use xlink:href="#i" id="q"/><use xlink:href="#j" id="s"/><use xlink:href="#k" id="t"/><use xlink:href="#m" id="w"/><use xlink:href="#x" id="y"/><use xlink:href="#B" id="X"/><use xlink:href="#C" id="Y"/><use xlink:href="#D" id="Z"/><use xlink:href="#N" id="ac"/><use xlink:href="#O" id="ad"/><use xlink:href="#P" id="af"/><use xlink:href="#Q" id="ag"/><use xlink:href="#R" id="U"/><use xlink:href="#S" id="V"/><use xlink:href="#ai" id="aT"/><use xlink:href="#aj" id="aV"/><use xlink:href="#ak" id="aX"/><use xlink:href="#al" id="bc"/><use xlink:href="#am" id="bd"/><use xlink:href="#an" id="be"/><use xlink:href="#ao" id="bf"/><use xlink:href="#ap" id="ax"/><use xlink:href="#aq" id="ar"/><use xlink:href="#c" id="at"/><use xlink:href="#av" id="aB"/><path d="M14 14q-2.4 2.4-5.8 2.4T2.4 14 0 8.2t2.4-5.8T8.2 0 14 2.4t2.4 5.8T14 14" fill="url(#b)" id="c"/><path d="m48.4 33.9-.5 16.2-2.85 5.25q-4.55 7.45-7.5 10.6-2.95 3.1-6.45 7.8t-9.9.05q-.45 2.6-1.15 4.15-2.4 4.95-7.7-1.4l-.1-.15q-5.3 1.85-3 14.55 2.3 14 .9 20.35-.55 2.35-1.95 11.85l-.25-.9Q2 102.3 4.65 81.1-5 46 5.3 7.25l.4-1.55q1.7 35.05 5.5 37.45Q15 45.5 14.15 56.4q-.9 10.85 2.75 4.7 3.65-6.2 11-4.5T42.1 48q4.25-6.5 6.3-14.1" fill="#273f16" id="h"/><path d="M48.45 18.2q-3.5 3.55-13.9 19.1l-.2-.05v.2q-.05 1.55-1.05 5.9-1 4.25-1.8 18.55-.85 14.3.85 19.55t2.55 13.6 4.55 17.7q3.7 9.3 2.55 22.7t1.2 21.85l5.5 3.45q2.25 2.95 2.35 5l.3 3.4q.15 1.35-.2 3.75l-1.05 4.2q-1.55-5.1-4.25-9-1.25-1.8-6.55-5.65-6.45-4.6-11.5-9.85-9.85-10.25-18.4-22.7-8.2-11.95-9.2-17.6l-.1-1.2q-.85-9.75 4.3-16.2 3.15 12.75 9.5 26.15 4.6 9.7 9.3 16.75.75 2.15 3.55-3.95 2.8-6.05 2.25-17.35l.8-13.4q0-15.8-4.25-28.8Q21.4 61.6 12.9 59.2q-3.15 1.35-8.05 6.25-5.55-6.8 0-18.8Q26.8 44.05 46.6 0q5.3 14.6 1.85 18.2" fill="#273f16" id="j"/><path d="M4.35 219.35v1.7" fill="none" stroke="#17170c" stroke-opacity=".251" id="u"/><path d="M3.8 90.6Q3.55 69.8-.45 48.05-.5 24.25-4.4-.6q22.65-11 45.7.6l-2.55 96Q17.2 103.4 3.8 90.6" fill="url(#l)" id="m"/><path d="M68.15 37.55q-3.2.9-5.55 2.05l1 1.5.25.3 1.5 3.15m-9.2.75q1.65-3.4 6.4-5.7-1.55-1.95-3.6-3.15" fill="none" stroke="#17170c" stroke-opacity=".502" id="K"/><path d="M57.2 87.95q.25-.8 1-1.2.65-.4 1.5-.45l1.95.65q1.95.95 1.95 2.5l-.55 1.25q-.8 1.2-2.15 1.2-1.55 0-2.75-1.3-.6-.6-.9-1.35l-.15-.45.1-.85m14.2-15.2 1.95.65q1.95.95 1.95 2.5l-.55 1.25q-.8 1.2-2.15 1.2-1.55 0-2.75-1.3-.6-.6-.9-1.35l-.15-.45.1-.85q.25-.8 1-1.2.65-.4 1.5-.45M40.45 92.8q-1.3-1.3-1.9-2.85l-.3-.95.2-1.8q.5-1.7 2.1-2.55 1.35-.8 3.15-.95l4.1 1.4q4.15 2 4.15 5.25 0 .95-1.2 2.65-1.65 2.5-4.5 2.5-3.3 0-5.8-2.7" fill="#72b8b8" id="M"/><path d="M14.75-4.05Q19-5.25 26.1-.9q-6.05 13.85-5.45 20.2.55 6.3 0 7.4L19.8 28l-1.15.2q-2.05 0-2.05-5.55l.6-3.25.35-2 .2-2.15-.15-1.5-.1-.2-.25-.35-1-.9q-.95 2-1.75 5.5-.85 3.85-.85 6.7V36q-.9 10-5.7 10l-2.65-.4q-2.05-.7-3.45-2.55Q0 40.6 0 37.65 0 34.5 4.25 23.6l2.45-6.65 1.6-5.65.2-1.95v-.6q-.1-3-1.15-6.1L6.2 0q4.25-2.9 8.55-4.05" fill="#4f8080" id="N"/><path d="M57.7 5.65q-1.05.3-3.15 2.3-3.3 3.2-3.1 5.6l2.35 1.3q2.3 1.65 2.5 3.5-1.25-1.15-5.1-1.4l-3.65-.1-.05.05h.05Q51.8 22 49.5 28.1q-3.05-6.2-10.05-8.9h-.25q.1 3.7-1.25 7.05-2.85-4.25-7-6.4-.65 5.5-3.65 8.4.8-2.9-2.75-6.45-3.6-3.65-6.4-2.1-2.95 1.6-2.95 7.5-3.2-5.65-2.15-9.8-3.8 2.15-4.75 5.05-1.6-11.2-5-9.45Q.65 14.75.05 17.65q-.3-4.7 1.2-7.05 1.55-2.4 3.6-2.2l2.55.45.25.1.15-.5Q7.25 6.2 6.35 4.4l4.7-1.35 2.5 2.35.45-.1 8.4-1 5.65-.25q8.5 0 13.8 1.85 5.3 1.8 6.65 2.6.65-1.65 4.15-2.4l5.05-.45" fill="#a17b7b" id="P"/><path d="m11.75.95 1 .75q5.2 3.85.95 11.6l-1.45 2.4q-1.5-2.15-3.15-3.4-3.9-2.9-8.6-.7l-.5.2q.75-2.65 1.55-4.65 3.9-9.8 10.2-6.2" fill="#7d874c" id="R"/><path d="M46.7 9.5q.7 2 .7 4.4 0 2.05-2.15 14.2-2.1 11.9-3 15.25l-.2-.15q-5.4-4.9-5-9.5.2-2.45-.9-6.2-.85-2.75-1.95-3.85l-.85-.55-.75-.15q-1.45 0-3.9 6.45l-4.9 14.35-.1-.05v-.05q-.2-6.6-.9-11.65-1.2-8.6-4.3-9.65l-.9-.15q-1.05 0-2.2 4.1t-2.25 4.1h-.1q-1.55-.1-2.5-4.1-.75-3.1-1.7-3.85-.35-.25-.7-.25-2.8 0-4.1 8.7-1.3 8.75-2.75 10.05l-.2.15q-.45-.95-.75-2.75-.35-1.7-.35-2.8l.75-10L.4 20 0 14.25q0-1.3.95-4.45L1.2 9l.35-1.4q2.15-3 6.85-5.2Q13.65 0 18.7 0q1.7 0 4.6.95 2.95.9 5 .9l3.45-.35 3.45-.4q4.55 0 8.2 3.4 2.35 2.15 3.3 5" fill="#273f16" id="aj"/><path d="M84.9 341.45q-1.15 0-1.55-.9l-.15-.85q0-1.8 1.7-1.6 1.7.15 1.7 1.75 0 .6-.4 1.05-.5.55-1.3.55" fill="#81c143" id="bb"/><path d="M34.15 16.9q-12.55 6-29.85 7.5l-1.4-.2q-1.85-.7-1.95-1.05-.4-.05-.6-.5-.35-.7-.35-2.2 0-1.15 1.25-2.35l.15-.1 1.95.6v.05h.2l1.35-.25 1-.2 7.25.25q7.1.2 13-2.65 5.85-2.85 8.4-3.9 2.8-2 3.6-4.4l4-3.35V.05L42.7 0l.6.1.55.15q1.2.45 1.7 1.6.85 1.6.9 3.15.05 6.1-12.35 11.9h.05" fill="#c7c374" id="al"/><path d="M12.15 6.65q-.7.65-1.7.65t-1.7-.65-.7-1.55.7-1.55 1.7-.65 1.7.65q.75.65.75 1.55t-.75 1.55" fill="#fff" id="au"/><radialGradient id="b" cx="0" cy="0" r="819.2" gradientTransform="matrix(.01105 0 0 .01105 8.2 8.2)" gradientUnits="userSpaceOnUse"><stop stop-color="#f9fede" offset="0"/><stop stop-color="#fff" stop-opacity="0" offset="1"/></radialGradient><linearGradient id="l" x1="-819.2" x2="819.2" gradientTransform="matrix(.00002 .02803 -.99998 .0006 245.75 43.6)" gradientUnits="userSpaceOnUse"><stop offset="0"/><stop stop-opacity="0" offset="1"/></linearGradient></defs><use transform="matrix(.47247 -.39308 .39308 .47247 143.2 347.7)" xlink:href="#bh"/></svg>