<svg width="192" height="212" viewBox="191.47 292.75 192.28 212.43" xmlns="http://www.w3.org/2000/svg" xmlns:xlink="http://www.w3.org/1999/xlink"><defs><linearGradient id="a" x1="-819.2" x2="819.2" gradientTransform="matrix(.00937 0 0 .00937 33.85 78.7)" gradientUnits="userSpaceOnUse"><stop stop-color="#8a8a8a" offset="0"/><stop stop-color="#333" offset="1"/></linearGradient><linearGradient id="b" x1="-819.2" x2="819.2" gradientTransform="matrix(.00854 0 0 .00854 33.45 78.25)" gradientUnits="userSpaceOnUse"><stop stop-color="#8a8a8a" offset="0"/><stop stop-color="#333" offset="1"/></linearGradient><linearGradient id="c" x1="-819.2" x2="819.2" gradientTransform="matrix(.00716 .01239 -.0279 .01611 17.1 34.9)" gradientUnits="userSpaceOnUse"><stop stop-color="#696969" offset="0"/><stop stop-color="#444" offset="1"/></linearGradient><linearGradient id="d" x1="-819.2" x2="819.2" gradientTransform="matrix(.00716 .01239 -.0279 .01611 17.1 34.9)" gradientUnits="userSpaceOnUse"><stop stop-color="#696969" offset="0"/><stop stop-color="#1a1a1a" offset="1"/></linearGradient><linearGradient id="f" x1="-819.2" x2="819.2" gradientTransform="matrix(-.00134 .01782 -.0187 -.0014 23.8 42.25)" gradientUnits="userSpaceOnUse"><stop stop-color="#417491" offset="0"/><stop stop-color="#373737" offset="1"/></linearGradient><linearGradient id="g" x1="-819.2" x2="819.2" gradientTransform="matrix(0 .01483 -.01666 0 26.8 14.3)" gradientUnits="userSpaceOnUse"><stop stop-color="#fff" stop-opacity=".243" offset="0"/><stop stop-color="#fff" stop-opacity="0" offset=".988"/></linearGradient><linearGradient id="j" x1="-819.2" x2="819.2" gradientTransform="matrix(0 -.01556 .02344 0 22.65 10.85)" gradientUnits="userSpaceOnUse"><stop stop-color="#374148" offset="0"/><stop stop-color="#477894" offset=".988"/></linearGradient><linearGradient id="m" x1="-819.2" x2="819.2" gradientTransform="matrix(-.00563 .00977 -.00745 -.00429 80.25 42.5)" gradientUnits="userSpaceOnUse"><stop stop-color="#8a8a8a" offset="0"/><stop stop-color="#333" offset="1"/></linearGradient><linearGradient id="n" x1="-819.2" x2="819.2" gradientTransform="matrix(-.00333 -.01244 .00693 -.00186 107.8 21.1)" gradientUnits="userSpaceOnUse"><stop stop-color="#525252" offset="0"/><stop stop-color="#5f5f5f" offset=".459"/><stop stop-color="#404040" offset="1"/></linearGradient><linearGradient id="w" x1="-819.2" x2="819.2" gradientTransform="matrix(.00446 0 0 .003 4.85 29.25)" gradientUnits="userSpaceOnUse"><stop stop-color="#f7e8af" offset="0"/><stop stop-color="#faf1d1" offset="1"/></linearGradient><linearGradient id="x" x1="-819.2" x2="819.2" gradientTransform="matrix(.00543 0 0 .00705 4.45 21.35)" gradientUnits="userSpaceOnUse"><stop stop-color="#f7e8af" offset="0"/><stop stop-color="#fcf6e2" offset="1"/></linearGradient><linearGradient id="y" x1="-819.2" x2="819.2" gradientTransform="matrix(.00632 0 0 .00674 4.7 36.8)" gradientUnits="userSpaceOnUse"><stop stop-color="#f7e8af" offset="0"/><stop stop-color="#faf1d1" offset="1"/></linearGradient><g id="B"><path d="M28.45 84.15Q26.2 81.9 26.2 78.7t2.25-5.45T33.9 71t5.45 2.25 2.25 5.45-2.25 5.45-5.45 2.25-5.45-2.25m.05-.95q2.05 2.05 4.95 2.05t4.95-2.05 2.05-4.95-2.05-4.95-4.95-2.05-4.95 2.05-2.05 4.95 2.05 4.95" fill="url(#a)"/><path d="M28.5 83.2q-2.05-2.05-2.05-4.95t2.05-4.95 4.95-2.05 4.95 2.05 2.05 4.95-2.05 4.95-4.95 2.05-4.95-2.05" fill="url(#b)"/><path d="M28.45 84.15Q26.2 81.9 26.2 78.7t2.25-5.45T33.9 71t5.45 2.25 2.25 5.45-2.25 5.45-5.45 2.25-5.45-2.25m.05-.95q-2.05-2.05-2.05-4.95t2.05-4.95 4.95-2.05 4.95 2.05 2.05 4.95-2.05 4.95-4.95 2.05-4.95-2.05" fill="none" stroke="#000" stroke-opacity=".102"/><path d="M8.65 77.35q-.4.5-1.05.5-.85 0-1.2-.65l-.15-.7q0-1.3 1.35-1.35t1.35 1.4l-.3.8" fill-opacity=".024"/><path d="m29 51.15.25-.9m27.5 4.85-2.4-.6-2.5 1m14.1-5.6-.8.35.4 2.65m39.25 27.9 2.2-6-37.8-23.25-1.65 2.85m0-3.9 1.65 1.05 6.6-11.45-2.05.1m28.55-4.6L113.1 58l2.1-5.8m-.15 9.8-1.95-4-6.1 16.8 11.45 7.05M7.4 100.6h-1m9.2-.8 7.8-12" fill="none" stroke="#000" stroke-opacity=".2"/></g><g id="e"><path d="m46 13.4-2.95-.75Q44 8.3 51.65.15h2.65L46 13.4M3.8 28.65 3.7 28l1.8-3.35 4.75 1.65-.8 2.1-.1.25H3.8" fill="#999"/><path d="m63.4 1.75 1.55 9.35-10.8 4.25-.35-.05 9.6-13.55" fill="#696969"/><path d="M1.4 53.25Q-.65 47.8.35 41v-.05l5.1-.6q-.25 3.9.25 7.2l-3.4 5.5 3.4-5.5Q6.1 50 6.95 52.1l-4.65.95-.9.2" fill="#858585"/><path d="M4.5 58.65q-1.75-2.25-2.85-4.8l-.25-.6.9-.2 4.65-.95q.65 1.75 1.6 3.25L9.8 57l-3.15-.1 1.9-1.55-1.9 1.55-2.15 1.75m-2.85-4.8.65-.8-.65.8" fill="#6e6e6e"/><path d="M.35 40.95q.75-5.1 3.25-11l.7.2 4.75-.7-.05.1q-1.9 5-3.5 9.95l-.05.85-5.1.6" fill="#8c8c8c"/><path d="m5.5 24.65 4.65-8.55 3.9 1.05-3.9-1.05 4.3-6.6 3.5-1.9-3.6 8.8-.3.75q-2.05 4.6-3.8 9.15L5.5 24.65" fill="#a8a8a8"/><path d="M17.95 7.6q4.85-.95 9.15.85L28.8 12 15.4 60.65l-.4.6Q11.9 59.5 9.8 57l-1.25-1.65q-.95-1.5-1.6-3.25Q6.1 50 5.7 47.55l.4-.65-.4.65q-.5-3.3-.25-7.2l.05-.85q1.6-4.95 3.5-9.95l4.7 2.25-4.25-3.4.8-2.1q1.75-4.55 3.8-9.15l.75.2-.75-.2.3-.75 3.6-8.8M10.45 57H9.8h.65" fill="url(#c)"/><path d="m9.35 28.65.1-.25 4.25 3.4L9 29.55l.05-.1.3-.8" fill="url(#d)"/><path d="m4.3 30.15-.5-1.5h5.55l-.3.8-4.75.7" fill="#5e5e5e"/><path d="m15 61.25-.15.2H7.2l-2.7-2.8 2.15-1.75 3.15.1q2.1 2.5 5.2 4.25" fill="#666"/><path d="M51.1 11.7 55.9.1l4.65-1.5Q54.1 6.45 51.1 11.7" fill="#a6a6a6"/><path d="m49.7 14.3-3.7-.9L54.3.15 55.9.1l-4.8 11.6-.15.25q-.7 1.2-1.25 2.35" fill="#a3a3a3"/><path d="M60.55-1.4 63.1 0l.3 1.75-9.6 13.55-4.1-1q.55-1.15 1.25-2.35l.15-.25q3-5.25 9.45-13.1" fill="#696969" fill-opacity=".933"/><path d="M60.55-1.4 63.1 0l.3 1.75 1.55 9.35-10.8 4.25-.35-.05-4.1-1-3.7-.9-2.95-.75Q44 8.3 51.65.15h2.65M55.9.1l-1.6.05M17.95 7.6q4.85-.95 9.15.85L28.8 12 15.4 60.65l-.4.6-.15.2H7.2l-2.7-2.8q-1.75-2.25-2.85-4.8l-.25-.6Q-.65 47.8.35 41m0-.05q.75-5.1 3.25-11m.7.2-.5-1.5-.1-.65 1.8-3.35 4.65-8.55m7.8-8.5-3.5 1.9-4.3 6.6m50.4-17.5L55.9.1" fill="none" stroke="#000" stroke-opacity=".2"/><path d="m63.4 1.75 1.05-1.5M54.3.15l.25-.45M49.7 14.3q.55-1.15 1.25-2.35l.15-.25L55.9.1m-2.1 15.2 9.6-13.55M10.15 16.1l-.5-.15m4.4 1.2.75.2m-4.65-1.25 3.9 1.05M5.7 47.55l.4-.65m-3.8 6.15-.65.8m.65-.8 3.4-5.5m.95 9.35 3.15.1h.65m-1.9-1.65-1.9 1.55-2.15 1.75M51.1 11.7q3-5.25 9.45-13.1" fill="none" stroke="#000" stroke-opacity=".102"/></g><g id="h"><path d="M1.05 25.45q.85-3.85 2.4-8.15 2.7-7.35 9.1-12.6 3.4-2.8 9.05-2.55 12.25.5 27.5-1.4l3.45-.5-4.9 29.65-46.6-4.45" fill="#417491"/><path d="m1.05 25.45 46.6 4.45-4.35 26.3-35.55-6.65q-10.55-7.1-6.7-24.1" fill="url(#f)"/><path d="M47.65 29.9 52.55.25l-3.45.5q-15.25 1.9-27.5 1.4-5.65-.25-9.05 2.55-6.4 5.25-9.1 12.6-1.55 4.3-2.4 8.15-3.85 17 6.7 24.1L43.3 56.2l.8.15m3.55-26.45L43.3 56.2M52.55.25 54.3 0" fill="none" stroke="#000" stroke-opacity=".2"/><path d="m45.55 9-.65 9-.7.55-2.6 4.9L44.8 9h.75m-19.1-3.5-.35.85.35-.5.1-.1-.1-.25M7.2 12.2q.25-.9 1.05-2.6L9.6 7q.65-1.3 4.3-5.5l.9.1q.3 0 .5.25l.9.2q.95 0 1.35-.65l.3-.75q.7-.65 1.15-.3.4.2.4.7l-.25.65-.5.65.3.1Q20.3 2 23.3 2.4l1.3.2 1.6-.25q.95 0 1.05.65l.8-.25 1.45-.3q1.25 0 1.25.95l-1.2 2.8-1.65 3.7-1.4 3.55.2-.2q.4-.4.7-.4l.6.35.15.4q0 .4-3 2.9-.45 0-.65-.2h-.1q-.7 0-.8-.6v-.05l-.35.1q-.6 0-.75-.55v-.35q-.3-.15-.45-.5l-.1-1.05.15-.9.75.15q.7 0 1.15-.6l.35-.85q0-1.35-1.5-1.45l.4-1.7q0-2.25-1.7-1.85-1.75.4-1.75 3l.1 1q.25.7.95.9-.7.65-2.4 6.25l-.95 3.7q-.65 2.5-1.25 2.5t-.75-.55v-.55q0-1.1 2.25-8.55l3-9.2-.45-.05h-1.15q-.35.15-1.1 2.1l-.65-.05q-1 .1-1.65.75l.1-.45v-.1l-1.9 2.7q-1.9 2.95-2.65 5.15l-1.25 2.7-1.4 2.55L7.1 23l-1.3 1.85v-.25l-.5-1.4q0-.75 1.75-5.45l.9-2.25.4-.95q.45-1.05.45-.65 0-2.25-1.6-1.7m21.65 11.75.05.85-.35 2.45q-.4 2.25-.4 4.2 0 1.7-2.2 1.75l.2 4.35q-.05 2.9-1.75 2.9-1.25 0-1.5-2.25v-2.25q0-6.75 3-11.3 1.1-1.65 1.9-1.8v.4q.15.7.95.7h.1m-10.65 4q0-1.3 1.65-1.6 1.65-.25 1.65 1.4 0 .55-.4 1.05-.5.65-1.4.65-.85 0-1.25-.7l-.25-.8" fill="#fff" fill-opacity=".031"/><path d="M48 16.2h.4q1.3.2 1.3 1.65 0 .85-1 5.15-1.05 4.25-1.05 5.35 0 2.7-.95 6.05-1.2 4.05-2.8 4.05-1.15 0-1.45-1.1l-.05-1.05.4-.95v.9q.15.8.95.8.85 0 1.2-2.25l.45-3.3 1.6-5.85q0-1.1-.8-1.2-.8-.15-1.25 1.2l-.4-.5v-.05l1.5-5.5q.3-1.3.7-2.1.6 0 .95-.45l.3-.8v-.05" fill="#fff" fill-opacity=".024"/><path d="m39.2 9.6-.35.15q-1.1 0-1.4-.85l-.1-.85q0-.95.9-2.5l-.85-.9-.25-1.25q0-2.2 2.05-1.95.65.1 1.15.45Q41.1.55 44 1.35q3.1.9 3.1 2.6 0 1.3-1.2 1.55.8.6.8 1.95 0 1.3-1.15 1.55h-.75l-1.2-.05.2-.75q0-1.3-.9-1.35-.35-.05-.6.2-.05-2.1-1.55-.65-1.35 1.3-1.55 3.2m8.05-1.05q-.15-.35-.15-.8 0-1.3 1.05-1.55l-.5 1.25-.4 1.1m-3.7-3.5h.2l-.25-.15-.1.2.15-.05m-25.5 1.6q1.1.15 1.1 1.45l-1.75 2.75-.7 1.25q-.3-.35-.85-.5-1.25-.3-1.6 3-.15 1.25-1.3 5.1 0 1.05 1 1.05l.55-.15-.1.3q-.65 2.05-1.3 2.75-.65 0-.9.35-1-.1-1.25-1l-.05-1.05q0-2.4.5-4l1.5-4.8q.25-1 .95-2.3l1-2.05q.35-.9.9-1.45.65-.65 1.65-.75l.65.05M5.8 24.85l-.25.9q-.3.7-.3 1.45 0 .55.5 1.1l.45.95-.75.85q-.75.5-.75 1.55l-.05 2.25Q3 38.2 1.5 38.2q-1.25 0-1.5-1.9v-1.95q0-2.95.55-6.1l1.4-6.35q.5-2.45 2.15-6.2 1.3-3 3.05-3.5h.05q1.6-.55 1.6 1.7 0-.4-.45.65l-.4.95-.9 2.25Q5.3 22.45 5.3 23.2l.5 1.4v.25" fill="#fff" fill-opacity=".043"/><path d="m48.15 6.2.45-2.5L48 .9q0-1 .95-1.4 1.1-.55 2.2 1l.3 1.65.15 1.65q-1.55 7.65-2.65 9.6.4.4.4 1.15l-.35.9-1 .6v.2l-.3.8q-.35.45-.95.45-1 0-1-1.25 0-.95.7-1.1l-.1-.65q0-.95.5-1.3l-.05-.1-.1-.95q0-2 .55-3.6l.4-1.1.5-1.25m-8.95 4.45-.05-.4.05-.65q.2-1.9 1.55-3.2 1.5-1.45 1.55.65-.55.35-.9 1.75l-.45 1.7-.85 1h-.05l-.85-.85M22.1 12.4q-.75-.3-.75-1.35l-.5-.05q-.7-.2-.95-.9l-.1-1q0-2.6 1.75-3 1.7-.4 1.7 1.85l-.4 1.7q1.5.1 1.5 1.45l-.35.85q-.45.6-1.15.6l-.75-.15" fill="#fff" fill-opacity=".082"/><path d="M42.4 36.3q-.5 1-.9 1l-1.25-.1-.75-.2-.4-.55-.05-.3.1-1.35-.5.05q-1.2 0-1.3-.85.15-1.05-.1-1.4l-.2-.25 1.05-3.15v-.25l1.15-1.15q.6-.95.6-1.65l-.15-.5-.05-.3q0-1.4 1.25-1.2 1.25.25 1.25 1.2l-.35.75.25.1q1.75-1.65 2.5-1.05l.4.5q.45-1.35 1.25-1.2.8.1.8 1.2l-1.6 5.85-.45 3.3q-.35 2.25-1.2 2.25-.8 0-.95-.8v-.9l-.4.95m-9.45 11.55.7.75q0-1.95 2.15-2 2.1-.1 2.1 2.45l-.2 1.1 3.35 1.15q.55-2.75 2.55-4.75 1.1-1.1 1.9-.9.85.2.85 2l-.75 2.7-.75 2.4v.1q3 1.35 3 2.3 0 1.95-2.5 1.95l-1-.2q-.55.45-1.5.45-1.05 0-1.6-.75h-.75q-3.35 0-8.55-1.6l-.7-.2q.85-2.45 1.7-6.95m-5.5 5.8L23.4 52.6l-5.45-1-.95-.25q-.55.5-1.35.5l-1.1-.3q-.55.55-1.4.55-2.15 0-3.6-3H9.5q-2.1 0-3-3L6 43.2q0-1.85 1.45-3.1.65-.55 1.2-.3l.4-.25q1.35-.45 2.7 3.05l-.35-3.65q0-3.2 1.1-3.6.95-.35 2.4 1.45 3.35 4.1 3.5 8.75L26 47l-1.6-1.65q0-4.2 4.7-.75l-.2 1.05-1.45 8M43.6 8.95q-1.45 4.4-2.25 4.4l-.6-.15-.3-.55-.05-.35.55-1.8.45-1.7q.35-1.4.9-1.75.25-.25.6-.2.9.05.9 1.35l-.2.75M16.7 12.1q.4.45.4 1.3-.7 3.15-1.25 3.85l-.45 1.9q-.3 1.15-.9 1.45l-.55.15q-1 0-1-1.05 1.15-3.85 1.3-5.1.35-3.3 1.6-3 .55.15.85.5m-3.6 11.55q1.1 0 1.1 1.1l-.3.65q-.4.45-1 .45l-.7-.25-.15 1.35q-.35.9-1.4.9-.65 0-.85-.55l-.1-.55q0-1.85 1.25-2.45l1.05.1.2-.4q.25-.35.9-.35m14.7-.8v-.35q0-1.4 1.1-1.6 1.05-.2 1.05 1l-.2 1.15q-.3.85-.9.9h-.1q-.8 0-.95-.7v-.4" fill-opacity=".031"/><path d="M39.5 37q.6 1.15.6 3.25t-2.35 2.1q-1.95 0-2.35-1.65v-1.75L35 41q-.9 4.2-1.85 5.85l-.2 1q-.85 4.5-1.7 6.95-1.05 2.8-2.1 2.8-1.15 0-1.65-.95-.35-.55-.35-1.1l.3-1.9 1.45-8 .2-1.05.75-3.9-.45-1.05V37.8q0-4.5.15-5.15L31.8 26l.8-2.9.8-2.85.45-1v-.1l.3-2.9q.5-3.2 1.9-2.65.8-2.9 2.25-3.05l.9.1.85.85.25 1 .15.15.3.55.1.8-.9 5.45q-.95 4.2-.95 4.9l.45.95.25.35.15.5q0 .7-.6 1.65l-1.15 1.15v.25l-1.05 3.15-.3.65-.35.85q.9.45 1 1.7l.35.05q.8.2 1.35.85l.4.55m-3.45-12.7q0-1.1-.5-.9t-.5 1.45l.1.5-.1.6v.4l.45.3q.45 0 .55-2.35" fill="#010101" fill-opacity="0"/><path d="M36.05 24.3q-.1 2.35-.55 2.35l-.45-.3v-.4l.1-.6-.1-.5q0-1.25.5-1.45t.5.9" fill-opacity=".024"/><path d="M46.4 27.95 2.35 24.6q3.2-11.5 7-15.9 3.75-4.45 9.35-6.1Q31.6 3.95 51.25.65l-4.85 27.3" fill="url(#g)"/></g><g id="k"><path d="M6.6 3.7Q24.9 2.75 33.5 0l10.4 21.6-6.1 16.8L0 15.15 6.6 3.7" fill="url(#j)"/><path d="M33.5 0Q24.9 2.75 6.6 3.7" fill="none" stroke="#000" stroke-opacity=".2"/></g><g id="l"><path d="M22.5 34v2.45l.2 1-1-3.45h.8" fill="#404040"/><path d="M16.15 37.15h.35l1 4.8-1.35-4.8M30.8 123.3h.85v6.25l-.85-6.25" fill="#575757"/><path d="m29.75.75.45.45q.9 75.3 24.2 159.3l1.45 5.2-2.55 3.2-8.6-24.25-1.45-4.15-10.3-73.65-6.05-61.4.95-.35 1.9-4.35" fill="#4a3b1d"/><path d="M25.05 20.8V10v10.8M22.6 7.2l4.3-1.75 6.05 61.4 10.3 73.65 1.45 4.15v30.9l-2.9.95v-1.3l-.85-7.05-9.6-78.05-8.65-52.65-.2-1V34l.1-26.8m19.2 165.1v2.9-2.9M29.2 34l-2.75 1.4L29.2 34" fill="#52411f"/><path d="m22.7 37.45 8.65 52.65 9.6 78.05.85 7.05v1.3l-6.9.2-2.85-.7-.05-.05 2-30.05-2.35-16.35v-6.25h-.85l-9.75-68.4-3.55-12.95-1-4.8-.65-3.15h5.85l1 3.45m-3.55-.35-2.65.05 2.65-.05m14.25 86.2h-1.75V116v7.3h1.75m6.95 46.95-6.65-1.75 6.65 1.75m-.7 3.15h-2.1 2.1m-1.75-5.25h3.05-3.05" fill="#574521"/><path d="M53.3 168.9q-3.2 3.6-6.6 5.6l-2 1.05v-30.9l8.6 24.25M14.85 9.5l2.9-.3 4.85-2-.1 26.8h-.8L14.85 9.5M45.2 157.05v15.65-15.65" fill="#403218"/><path d="m11.2 9.8 3.65-.3L21.7 34h-5.85l.65 3.15h-.35l-2.2-8.05L9.4 12.65l1.75 2.55.05-5.4m4.1 21.75.55 2.45-.55-2.45m-1.05-2.45h-.3.3" fill="#5c4923"/><path d="m16.15 37.15 1.35 4.8 2 9.75-2-9.75 3.55 12.95 9.75 68.4h-1.6 1.6l.85 6.25L34 145.9l-2 30.05q-1.8-.55-3.6-1.45l-.1-.05-.3-13.95-.75-18.75q-2.55-50.2-10.9-85.85-3.4-14.6-7.8-26.75l5.4-.05 2.2 8.05m2.3 18.75h-2.1 2.1m11.8 85.85h-3 3m1.4-9.05v-3.15 3.15" fill="#70592b"/><path d="m0 9.55 1.7.8 7.65 17.2L4.7 9.7h2.7l2 2.95 4.55 16.45-5.4.05Q4.65 18.4 0 9.55" fill="#6b5529"/><path d="M26.9 5.45 22.6 7.2l-4.85 2-2.9.3-3.65.3 2.6-3.25L7.4 9.7H4.7l2.9-3.2-5.7 3.6-.2.25-1.7-.8Q10.1 3.3 22.55.45q5.35-1.05 7.2.3l-1.9 4.35-.95.35" fill="#8c6f36"/><path d="m1.7 10.35.2-.25 5.7-3.6-2.9 3.2 4.65 17.85-7.65-17.2m5.7-.65 6.4-3.15-2.6 3.25-.05 5.4-1.75-2.55-2-2.95" fill="#4f3e1e"/><path d="m29.75.75.45.45q.9 75.3 24.2 159.3l1.45 5.2-2.55 3.2q-3.2 3.6-6.6 5.6l-2 1.05-2.9.95M29.75.75Q27.9-.6 22.55.45 10.1 3.3 0 9.55m8.55 19.6q4.4 12.15 7.8 26.75 8.35 35.65 10.9 85.85M8.55 29.15Q4.65 18.4 0 9.55M32.05 176l2.85.7 6.9-.2m-9.8-.55q-1.8-.55-3.6-1.45l-.1-.05-.3-13.95-.75-18.75" fill="none" stroke="#000" stroke-opacity=".2"/><path d="M44.7 175.55v2.15M25.05 10v10.8M22.6 7.2 22.5 34v2.45M41.8 175.2v-2.9M13.95 29.1h.3m1.6 4.9-.55-2.45m.85 5.6h.35L15.85 34h5.85L14.85 9.5m-.9 19.6-5.4.05m7.8 26.75h2.1m-.95-13.95-1-4.8 2.65-.05m7.3-1.7L29.2 34m-7.5 0 1 3.45M22.5 34h-.8m-6.05 21.9h.7m10.9 85.85h3M17.5 41.95l2 9.75M31.65 116v7.3h1.75m-4.2 0h2.45v9.4m10.15 43.8v-1.3m-4.25-1.8h2.1m-5.95-4.9 6.65 1.75m4.85 2.45v-15.65m-3.4 19.45v2.45m-.85-10.8H37.9" fill="none" stroke="#000" stroke-opacity=".102"/></g><g id="o"><path d="m112.05 50.2-1.25.25-1-.25-.2-.1 2.45.1m-11.3-44.55 4.3-2.9 6.8-1.2-.4.25L108 3.75V3.4v.35l-1.25.65q-2.85-.45-5.65 1.1l-.45.25-.25.15-.15.1-.4.25.65-.5h.05l.2-.1-.1.1.1-.1m.15 21.15.1.15h-.15l.05-.15M99.85 6.25l.65-.5-.65.5m.55-.35.25-.15h-.1.1l-.25.15M82 21.05v.1-.1M48.9 47.8V50h-1.4q1.1-.45 1.4-2.2m15.15 33.8-2.35.05q-3.9 0-12.35-1.9h9.45q3.1 1.45 5.25 1.85m-9.75-5.1-.15.05.15-.05.05.15-.4.15.2-.25-.2.25.4-.15-.05-.15.6-.3-.55.45-.85.65-.15.1.1-.1-.75-.1h.1l1.15-.4-1.15.4h-.05l1.4-.65.1-.1.05.05m-1.6.7h.1l.65.1.5-.5-.5.5h.05-.05l-.65-.1h-.1m-9.8-1.5-.6-.1-.55-.1 1.15.2m-1.35-.2-.75-.15.55.1.2.05" fill="#999"/><path d="m97.05 51.05-1.2 6.65q-3.05 9.8-8.45 13.05l-3.05-4.8.6 4.8.3 3.15-4.95 3-3.4-13.65.55.1V53.6l8.4 1.75 7.6-8.2 3.6 3.9m14.4-49.25q1.3.3 4.95 2.3.6 1.7 2.25 4.75l-8.15 7.25q-1.8-1.15-3.2-.8l.7-11.55 3.45-1.95M53.1 30.9l.55 1.85-.65-1.7.1-.15m-2.35 5.15.35-1.55 1.9-3.45.65 1.7L60.5 54.4l2.25 7.2L64 65.45l-3.95 5.3.1-.75-5.9 6.45-3.75-6.55-.4-.7-.05-.55-1.7-9.9v-1.7q-.1-2.3.35-5.65l.2-1.4v-2.2q.05-4.5 1.85-11.75M48.9 57.2l-.55 1.55.55-1.55" fill="#737373"/><path d="M35.6 47.5q.95-.3-.15-1.3l.05-.1 13.4 1.7q-.3 1.75-1.4 2.2l-11.9-2.5" fill="#636363"/><path d="M68.8 29.9h-.05l-.25-1-.55-2-.05-.2 7.05-5.85 3.05 5.6-.2.4-1.15 2.05-1.2 2.1v.25l-.25-.1-3.4-1.25h-3l-.3-1 .3 1m-.9-3.2.05.2-.05-.2M36.8 65.4l-1.95-6 .1-.65h13.4l1.7 9.9L36.8 65.4" fill="#7d7d7d"/><path d="m124.95 22.7.3 2.95-8.9 8.95-2.65-2.3q1.1-3.55 1.15-6.55 0-1.75-.35-3.3h9.6l.85.25m-27.5 26.1-.4 2.25-3.6-3.9-5.2-5.7 2.6-3.7 1.65-3.35 6.4 1.65q-1.3 6.5-1.3 12.2h-.05l-.1.55M50.5 69.9l3.75 6.55-.1.1-1.4.65-2.85-.45v-.05l-1.45-.2-3.7-.55-1.85-.25-1.15-.2h-.2l-.2-.05-.55-.1q-1.45-2.85-2.45-5.45H50.5" fill="#6b6b6b"/><path d="m113 49.05-.95 1.15q-6.25-2.7-7.5-7.9v-5.2l2.65-4.5q2.95-1 6-.05-4.45 11.75-.2 16.5m-63.65 30.7q-1.7.2-.6-1.55l1.15-1.45 2.85.45h-.05l.75.1-.1.1.15-.1.85-.65.55-.45-.6.3-.05-.05 5.9-6.45-.1.75-1.25 9h-9.45m9.8-7.8.9-1.2-.9 1.2" fill="#4f4f4f"/><path d="m76.4 14.75-.6-.35-3.65-1.85-7.3 1.05-2-.25-6.85-1-.9-.6L73.05 11l4.35 3.35 3.25 3.15q1 .95 1.35 3.55-2.25-4.2-5.6-6.3" fill="#b8b8b8"/><path d="m55.1 11.75.9.6 6.85 1-6.6 7.25-.4.15L44.3 19.5l10.8-7.75" fill="#adadad"/><path d="M50.75 36.05q-1.8 7.25-1.85 11.75l-13.4-1.7q2.25-7.45 2.85-14.35l4.55 1.6 7.85 2.7" fill="#969696"/><path d="m48.9 50-.2 1.4q-.45 3.35-.35 5.65v1.7h-13.4q.7-5.65.1-11.15l.55-.1L47.5 50h1.4" fill="#9e9e9e"/><path d="M56.25 20.6h.05l-1 4.8-2 4.3-2.8-3.2-7.35 3.55-.25 3.3-4.55-1.6q3.8-6.35 5.95-12.25l11.55 1.25.4-.15" fill="#a1a1a1"/><path d="m120.25 43.8-.05.05q-2.45 7.3-7.2 5.2-4.25-4.75.2-16.5l.35.1.15-.35 2.65 2.3 3.4 2.95.5 6.25m-26.4-13.4-1.35 4-1.65 3.35-11.15-2.3 1.6-2.35.4-2.55 2.1-2.5v-.1l10.05 2.45m-55.5 39.5q-.95-2.35-1.55-4.5l13.25 3.25.05.55.4.7H38.35" fill="#666"/><path d="M77.45 49.35q5.5 1.35 9.45-6.35l.05-.1.05-.15 1.25-1.3 5.2 5.7-7.6 8.2-8.4-1.75v-4.25" fill="#7a7a7a"/><path d="M121.7 13.95h-.1l-2.95-5.1Q117 5.8 116.4 4.1q-3.65-2-4.95-2.3l.4-.25-6.8 1.2-4.3 2.9-.2.1-10.45-1.1Q93.05.7 99 .05l11.5.4q3.25.55 6.45 3.45l4.75 10.05M94.65 26.4l-.8 4-10.05-2.45v-.1l.15-1.45h10.7" fill="#bababa"/><path d="M96.35 12.35q-.75 2.35-1.05 4.05.1 5.45-.65 10h-10.7q.75-7.9 2.55-14.05h9.85" fill="#8c8c8c"/><path d="m99.85 6.25-.55.55q-2.1 2.2-2.95 5.55H86.5l3.1-6.8.3-.65.2-.25 10.45 1.1h-.05l-.65.5" fill="#ababab"/><path d="M125.25 25.65q.35 8.4-5 18.15l-.5-6.25-3.4-2.95 8.9-8.95" fill="#787878"/><path d="m106.75 4.4 1.25-.65-.7 11.55-.45.1-.1-11M67.9 26.7l-.4-1.05L75 19.1l4.7 8.45L75.45 31l1.2-2.1 1.15-2.05.2-.4-3.05-5.6-7.05 5.85" fill="#5e5e5e"/><path d="m72.15 12.55-7.6 5.4-7.05 4.95-2.7 4.95-.4.7-1.3 2.35-.1.15-1.9 3.45 2.2-4.8 2-4.3 2.5-5.5 7.05-6.3 7.3-1.05M54.8 27.85l.5-2.45-.5 2.45" fill="#8f8f8f"/><path d="m64.85 13.6-7.05 6.3-1.5.7h-.05l6.6-7.25 2 .25" fill="#c7c7c7"/><path d="m57.8 19.9-2.5 5.5 1-4.8 1.5-.7" fill="#b5b5b5"/><path d="M121.8 14.25v.05q2.35 4 3.15 8.4l-.85-.25-10.6-2.75-.4-.75-.55-.85-.05-.25-2-1.75 8.15-7.25 2.95 5.1.2.3m-14.95 1.15q-1.7.7-2.95 3.55l-1.25 3q-.95 2.4-1.75 4.85l-.05.15q-1.2 3.8-1.35 6.35l-.6 2.75-6.4-1.65 1.35-4 .8-4q.75-4.55.65-10 .3-1.7 1.05-4.05Q97.2 9 99.3 6.8l.55-.55.4-.25.15-.1.25-.15.45-.25q2.8-1.55 5.65-1.1l.1 11m-53.2 17.35 8.1 20.85-1.25.8-6.85-21.65" fill="#6e6e6e"/><path d="M82 21.05v8l-.3 1.5-.4 2.55-1.6 2.35q-1.65 1.9-3.35 2.3l-.1.05-.8.05h-.15l.55-.05-.4.05.4-.05.55-.1q-3.65-.15-5.9-2.8l-.45-.55-.1-.15-.15-.2q-.8 1.55-1.05 3.8.95 5.3 1.25 6.2l2.8 2.75-11.05 6.85-8.1-20.85-.55-1.85 1.3-2.35.4-.7 2.7-4.95 7.05-4.95 11.85-3.2q3.35 2.1 5.6 6.3M68.8 29.9l1.25 4.45-1.25-4.45h3l3.4 1.25.25.1V31l4.25-3.45L75 19.1l-7.5 6.55.4 1.05.05.2.55 2 .25 1h.05m7.55 7.85.05-.05-.05.05m-.1.05h-.4.4m-11.7 24 12 2.4.1.05L79 77.6l-2.95 1.5q-3.5 1.6-5.7 1.9l-3.2.4-3.1.2q-2.15-.4-5.25-1.85l1.25-9 3.95-5.3-1.25-3.85 1.8.2" fill="#757575"/><path d="m61.75 53.6 11.05-6.85q2.45 2 4.65 2.6v14l-.55-.1-12.35-1.45-1.8-.2-2.25-7.2 1.25-.8" fill="#696969"/><path d="m64.55 17.95 7.6-5.4 3.65 1.85.6.35-11.85 3.2" fill="gray"/><path d="m80.3 76.9-1.3.7-2.35-13.35-.1-.05-12-2.4 12.35 1.45 3.4 13.65m43.8-54.45h-9.6l-1-2.75 10.6 2.75" fill="#5c5c5c"/><path d="m51.1 34.5-.35 1.55-7.85-2.7.25-3.3 7.35-3.55 2.8 3.2-2.2 4.8" fill="#a8a8a8"/><path d="M87.4 70.75h-2.45l-.6-4.8 3.05 4.8" fill="#404040"/><path d="M68.75 37.8Q69 35.55 69.8 34l.15.2.1.15.45.55q2.25 2.65 5.9 2.8l-.55.1-.55.05h.15q-4.35.8-6.7-.05" fill="#525252"/><path d="m79.7 35.45 11.15 2.3-2.6 3.7-1.25 1.3-.05.15-.05.1q-3.95 7.7-9.45 6.35-2.2-.6-4.65-2.6L70 44q-.3-.9-1.25-6.2 2.35.85 6.7.05l.8-.05.1-.05q1.7-.4 3.35-2.3M88 41.2l.25.25-.25-.25" fill="url(#m)"/><path d="M114.85 25.75q-.05 3-1.15 6.55l-.15.35-.35-.1q-3.05-.95-6 .05l-3.8.5-1.45.2H99.5q.15-2.55 1.35-6.35h.15l13.85-1.2" fill="#4d4d4d"/><path d="m100 48.55-2.4-.3q0-5.7 1.3-12.2l.6-2.75h2.45l1.45-.2-4.35 8.3.95 7.15" fill="#3b3b3b"/><path d="M112.05 50.2 100 48.55l-.95-7.15 4.35-8.3 3.8-.5-2.65 4.5v5.2q1.25 5.2 7.5 7.9" fill="#4a4a4a"/><path d="M114.5 22.45q.35 1.55.35 3.3L101 26.95l-.1-.15q.8-2.45 1.75-4.85l1.25-3q1.25-2.85 2.95-3.55l.45-.1q1.4-.35 3.2.8l2 1.75.05.25.55.85.4.75 1 2.75" fill="url(#n)"/><path d="M121.8 14.25v.05m3.15 8.4.3 2.95q.35 8.4-5 18.15l-.05.05q-2.45 7.3-7.2 5.2l-.95 1.15L100 48.55l-2.4-.3-.15.55-.4 2.25-1.2 6.65q-3.05 9.8-8.45 13.05h-2.45l.3 3.15-4.95 3-1.3.7-2.95 1.5q-3.5 1.6-5.7 1.9l-3.2.4m54.65-67.15-.1-.3-4.75-10.05Q113.75 1 110.5.45L99 .05q-5.95.65-8.9 4.6l-.2.25-.3.65-3.1 6.8m35.1 1.6.2.3M82 21.15v7.9l-.3 1.5 2.1-2.5v-.1m0-.1.15-1.45q.75-7.9 2.55-14.05m-4.8 18.2-.4 2.55m16.3 15.15h-.05l-.1.55M82 21.05q-.35-2.6-1.35-3.55l-3.25-3.15L73.05 11l-17.95.75.9.6M44.3 19.5l10.8-7.75M35.6 47.5q.95-.3-.15-1.3l.05-.1q2.25-7.45 2.85-14.35 3.8-6.35 5.95-12.25m-7.5 45.9-1.95-6 .1-.65q.7-5.65.1-11.15m3.3 22.3q-.95-2.35-1.55-4.5m27.25 16.2-2.35.05q-3.9 0-12.35-1.9-1.7.2-.6-1.55m15.3 3.4 3.1-.2M49.9 76.7l-1.45-.2m-5.55-.8-.6-.1-.55-.1m-.95-.15-.15-.05m.15.05q-1.45-2.85-2.45-5.45m3.2 5.6-.2-.05m3.4.5 3.7.55" fill="none" stroke="#000" stroke-opacity=".2"/><path d="m125.25 25.65.3-.35M79 77.6l.05.35m35.45-55.5q.35 1.55.35 3.3-.05 3-1.15 6.55m-2.25-30.5q1.3.3 4.95 2.3.6 1.7 2.25 4.75l2.95 5.1M108 3.75V3.4m-1.25 1 1.25-.65 3.45-1.95m-4.15 13.5-.45.1q-1.7.7-2.95 3.55l-1.25 3q-.95 2.4-1.75 4.85m.1.15 13.85-1.2m-4.35-9.65q-1.8-1.15-3.2-.8m5.2 2.55-2-1.75m3 3.6-.4-.75-.55-.85m1.95 4.35-1-2.75m-6.75-15.3q-2.85-.45-5.65 1.1l-.45.25-.25.15-.15.1-.4.25-.55.55q-2.1 2.2-2.95 5.55-.75 2.35-1.05 4.05.1 5.45-.65 10l-.8 4-1.35 4m6.4 1.65.6-2.75q.15-2.55 1.35-6.35l.05-.15m-.35-21.05.2-.1-.1.1-.25.15m-.55.35.65-.5H100.65m-.15 0-.65.5M83.8 27.95v-.1m17.2-.9h-.15M81.3 33.1l-1.6 2.35 11.15 2.3 1.65-3.35M77.45 49.35q5.5 1.35 9.45-6.35l.05-.1.05-.15 1.25-1.3-.25-.25m.25.25 2.6-3.7m12.55-4.65-1.45.2H99.5m-15.7-5.35 10.05 2.45m5.05 5.65q-1.3 6.5-1.3 12.2m15.6-15.7.35.1.15-.35m-10.3.8 3.8-.5q2.95-1 6-.05-4.45 11.75-.2 16.5m-5.8-16.45-2.65 4.5v5.2q1.25 5.2 7.5 7.9M87.4 70.75l-3.05-4.8.6 4.8m-8.55-56-.6-.35m-20.5 11-.5 2.45-.4.7m1.6-16.2 6.85 1-6.6 7.25M44.3 19.5l11.55 1.25m16.95 26L70 44q-.3-.9-1.25-6.2.25-2.25 1.05-3.8l.15.2.1.15-1.25-4.45-.3-1-.55-2-.05-.2-.4-1.05m-12.2-.25 1-4.8m-5.2 13.9-.35 1.55q-1.8 7.25-1.85 11.75V50l-.2 1.4q-.45 3.35-.35 5.65v1.7l.55-1.55m4.75-24.45-.65-1.7m17.05 3.3.45.55q2.25 2.65 5.9 2.8l-.05.05q1.7-.4 3.35-2.3m-3.35 2.3-.1.05-.8.05q-4.35.8-6.7-.05m7.1 0-.55.05h.15l.4-.05.55-.1m-.55.1h.4M35.5 46.1l-.75-.25m.3 1.75.55-.1L47.5 50q1.1-.45 1.4-2.2l-13.4-1.7m1.3 19.3 13.25 3.25-1.7-9.9m28.2 5.45.1.05m-9.5 17.15-3.1.2m-15.3-3.4-.95 1.25m12.25-8.7-1.25 9q3.1 1.45 5.25 1.85M47.5 50h1.4m1.15 18.65.05.55.4.7 3.75 6.55 5.9-6.45-.1.75-.9 1.2m-5 4.6.15-.05-.05-.05-.1.1-.2.25.4-.15-.05-.15.6-.3-.55.45-.85.65-.15.1.1-.1-.75-.1h.05l-2.85-.45-1.15 1.45m5.2-1.4-.5.5h.05m-.05 0-.65-.1h-.1m.05 0h.05l1.15-.4m.2-.25-1.4.65m-4.3-.7 1.45.25v-.05m-8.15-1.2h-.2l-.75-.15m-.15-.05.15.05m.55.1-.55-.1m.95.15 1.15.2 1.85.25m4.6 3.8h9.45m17.6-65q3.35 2.1 5.6 6.3" fill="none" stroke="#000" stroke-opacity=".102"/></g><g id="p"><path d="M28.6 17.65q0 4.8-3.35 8.15t-8.15 3.35q-4.75 0-8.1-3.35t-2.8-4.45q.5-1.15 13.65-4.45Q8.3 10.25 9 9.55q3.35-3.35 8.1-3.35 4.8 0 8.15 3.35t3.35 8.1" fill="#1f8fc7" fill-opacity=".8"/><path d="M20.1.25q5.25.8 9.25 4.8Q34.4 10.1 34.4 17.2t-5.05 12.15Q24.7 34 18.25 34.4 34.75 21.9 20.1.25" fill="#176891" fill-opacity=".8"/><path d="M18.25 34.4H17.2q-7.1 0-12.15-5.05T0 17.2 5.05 5.05 17.2 0l2.9.25Q34.75 21.9 18.25 34.4" fill="#1f8fc7" fill-opacity=".8"/><path d="M20.1.25q5.25.8 9.25 4.8Q34.4 10.1 34.4 17.2t-5.05 12.15Q24.7 34 18.25 34.4H17.2q-7.1 0-12.15-5.05T0 17.2 5.05 5.05 17.2 0l2.9.25" fill="none" stroke="#17170c" stroke-opacity=".251"/><path d="m26.7 14.85 3.1-.95m-7.35-4.65L23.9 5.6m-8.15 2.65-1.7-3.7" fill="none" stroke="#abe3ff" stroke-opacity=".2"/><path d="M1.55 13.9h.1q1.35 4.35 2 5.4 2 3.6 6 3.6l2.4-.3 2.5-.3q1.5 0 2.2.6 1 .85 1 3.1t-1.4 3.9q-1.5 1.8-3.8 1.8-3.55 0-7-4.6-4-5.35-4-13.2" fill="#29b8ff"/><path d="M28.6 16.4q.45-8.35-5.9-14.15 3.5 2.25 6.8 6.15l.35.35q5.45 7.4 0 17.1L28.5 28q-3.8 3.25-6.9 3.85 6.5-7.15 7-15.45" fill="#176891"/></g><g id="P"><use transform="translate(.45)" xlink:href="#s"/><use transform="matrix(.86603 -.5 .42989 .74457 1.4 6.2)" filter="url(#t)" xlink:href="#u"/><use xlink:href="#v"/></g><g id="z"><path d="m53.6 11.7 8.85-5.5L65.1 0q-1.65 5.7-1.15 11.05L55.6 13.7l-2-2M25.25 30.3l.65-.25q7.1-5.9 14.2-5.4l.6.35-8.8 5.2q-2.85.05-5.55 1.4l-.65.3-.35.2V32l-.1-1.7M46.5 13.75l-1.5 3.7-9.85.6-.75.75q-4.6 2.3-10.15 7.65Q31 16.75 35.9 14.6l10.6-.85M13.45 24.6q-1.9 1.2-3.85 1.85l-.7.2-2.05-3.45v-6.9L10 15.15h4l1.8 3.55-2.35 5.9m2.2 2.8.5.75-1.35 3.9-1.05.05h-1.7 1.7l1.05-.05 1.8 1 2.6 1.4-2.6 5.25-2.8 1.05q-2.15.7-4.35 1l-1.2-3.5 1.2 3.5-.8.1-.4-3.6-.05-.5-.4-3.3 4.25-2.35-5.4-.4 1.85-4.45 5.35-.2 1.2-.1.2-.05.4.5m10.05 4.5-.35.1.35-.1m-13.55-2.45V28v1.45m1.6 6.05.05 5.25-.05-5.25m0-5v1.6-1.6m-3.05-6.75v1.45-1.45" fill="#f7e8af"/><path d="m24.75 28.35.5 1.95q-5.15 1.45-10.45 1.75l1.35-3.9-.5-.75 4.45-.4 3.7-2.35.45 1.8.5 1.9m.6 3.75.05 1.85Q21 37.7 16.6 39.7l2.6-5.25-2.6-1.4 2.5.25 6.25-1.3v.1m-4.7-23.4 1.15 5.95.25 1.3q-4.15 5.85-8.6 8.65l2.35-5.9-1.8-3.55h-.15l6.8-6.45m3 7.65v5.85l-.4.4q-3.6 3.55-8 4.3l-.2.05-1.2.1-5.35.2-1.8-.2h.05l1.8-.3-.05.5.05-.5 1.05-.3 7.65-2.3 6.4-7.8" fill="#d6c997"/><path d="m6.7 27.05 1.8.2-1.85 4.45-4.95-.85-.5-.15.75-3.9 4.75.25" fill="url(#w)"/><path d="M4.7 21v-4.4V21m0-4.4 2.15-.3v6.9l2.05 3.45-.35.1-1.8.3H6.7l-4.75-.25-1.45-.4L0 15.6q2.25 1.1 4.7 1m2.05 7.65v2.8-2.8" fill="url(#x)"/><path d="M12.05 32.1 7.8 34.45l.4 3.3.05.5.4 3.6-6.95-.5v-10.5l4.95.85 5.4.4" fill="url(#y)"/><path d="M10 15.15q4.75-2.35 10.25-8.4l.4 1.95-6.8 6.45H10m11.8-.5 1.85.8v.9l-6.4 7.8-7.65 2.3q1.95-.65 3.85-1.85 4.45-2.8 8.6-8.65l-.25-1.3m1.45 7.95.55 2.05L20.1 27l-4.45.4-.4-.5q4.4-.75 8-4.3m-8.45 9.45q5.3-.3 10.45-1.75l.1 1.7-6.25 1.3-2.5-.25-1.8-1" fill="#b3a87f"/><path d="m61.6 14.7-.75-.1.75.1m2.35-3.65.25 2 4.75 4.75-1.6 3.15q-17.85-2.35-28.3 0-5.55.15-14.3 7.4l-.5-1.9Q29.8 21.1 34.4 18.8l.75-.75 9.85-.6 9.55-.6 6.3-2.25-5.8-.75.55-.15 8.35-2.65" fill="#dbce9b"/><path d="M40.7 25q7.85 4 14.2 5l-2.55 1.85 7.1 2.45-2.1 2.7-7.8-5.3-10.4.35-1.55-.7q-2.9-1.2-5.7-1.15l8.8-5.2m-.65 4.35-2.45 2 2.45-2" fill="#e6d8a3"/><path d="m57.35 37-.05.05q-10.6.8-17.55-4.65l-.6-.35 10.4-.35 7.8 5.3" fill="#d9cc9a"/><path d="M54.9 30q4.3.65 7.9-.1l-3.35 4.4-7.1-2.45L54.9 30" fill="#e0d29e"/><path d="m45 17.45 1.5-3.7 4.35-.35 2.75-1.7 2 2-.55.15 5.8.75-6.3 2.25-9.55.6" fill="#eddfa8"/><path d="m60.85 14.6.75.1m2.35-3.65.75-.25m-11.1.9 8.85-5.5L65.1 0q-1.65 5.7-1.15 11.05l.25 2 4.75 4.75-1.6 3.15q-17.85-2.35-28.3 0-5.55.15-14.3 7.4l.5 1.95.65-.25q7.1-5.9 14.2-5.4l.6.35q7.85 4 14.2 5 4.3.65 7.9-.1l-3.35 4.4-2.1 2.7-.05.05q-10.6.8-17.55-4.65l-.6-.35-1.55-.7q-2.9-1.2-5.7-1.15-2.85.05-5.55 1.4l-.65.3-.35.2.05 1.85Q21 37.7 16.6 39.7l-.55 1.1M46.5 13.75l-10.6.85Q31 16.75 24.25 26.45l.5 1.9M53.6 11.7l-2.75 1.7-4.35.35M10 15.15q4.75-2.35 10.25-8.4l.4 1.95 1.15 5.95 1.85.8v.9l.4-.5m-.4.5v5.85l-.4.4.55 2.05.45 1.8m-2.45-11.8.25 1.3q-4.15 5.85-8.6 8.65-1.9 1.2-3.85 1.85M4.7 16.6V21m0-5v.6l2.15-.3L10 15.15M1.95 26.8.5 26.4 0 15.6q2.25 1.1 4.7 1m4.2 10.05.7-.2m5.2 5.6q5.3-.3 10.45-1.75l.1 1.7.35-.1M8.5 27.25l5.35-.2 1.2-.1.2-.05q4.4-.75 8-4.3M12.15 28v1.45m2.65 2.6-1.05.05h-1.7M8.2 37.75l.05.5 1.2 3.5q2.2-.3 4.35-1l-.05-5.25m2.85 4.2-2.8 1.05m-.05-8.65v-1.6m-5.2-3.75-1.8.3H6.7l1.8.2.05-.5.35-.1m-7.2 4.2-.5-.15.75-3.9 4.75.25m-.05 4.65-4.95-.85v10.5l6.95.5.1.8M6.65 31.7l5.4.4m-2.6 9.65-.8.1m.95.3-.15-.4m-7.75-.4V42m35.9-10.65 2.45-2m-14.7 2.75V32M10.7 25.2v-1.45m-3.95 3.3v-2.8M40.7 25l-8.8 5.2" fill="none" stroke="#000" stroke-opacity=".102"/></g><g id="A"><path d="m41.55 17.5-.4.2-.6-1.7.9.05-.9-.05.6 1.7.4-.2m-.3.5-.1-.3-2 .85-3.35-.45-1.6-.2-5.45 3.55-.35-2.7-.25-.1.4-.65-.4.65-1.65 2.6h-1.85l-1.1-1.7-1.7 3-.65-1.35.65 1.35-.7 1.2-5.25 2.05q.4-1.7-.8-2.45l1.8-2.6 1.5-1.7 1.65-1.9 1.85-.2.25.4.25-.15.25-.1 1.15-.6 3.9 1.9.85-.4 4.75-2.4 7.25.4-.2-.45 4.85-2.65 1.95 1.85-5.9 3.25m-7.6-.2.55.1-.55-.1m-2.3-11.25L30.5 8.8l-1.4.8-3.9 2.2 1.55-3.3L29 0h1.85L28.5 5.75l2.85.8m-3.1-.25.25-.55-.25.55m-6.1 11.05 1.4 2.2-1.4-2.2m5.55 1.05.45.25-.45-.25m-7.6.65h-1.7 1.7M9.25 30.1l-4.95.95q.65-1 1-5.7 2.75.2 6.1-.85l.05 2.8-2.2 2.8m.15-4.4v1.7-1.7m-.65 1.7v2.15-2.15" fill="#f7e8af"/><path d="m41.15 17.7.1.3.75 2.05L40.35 22l-.35.4-2 2.4-.4.4-10.1-.2 1.5-1.15-.25-2.4.25 2.4L27.5 25l-4.05 3.15 2-5.65-.8-1.25.8 1.25-2 5.65-.5 2.3h-4.1q-3.1-.95-4.45-2.5l.9-.5.6-1.65-.6 1.65-.9.5q-2.5 1.35-5.15 2.15l2.2-2.8-.05-2.8 1.1-.4.25-.1 1.95-.85.4.2q1.2.75.8 2.45l5.25-2.05.7-1.2.2.35-.2-.35 1.7-3 1.1 1.7h1.85l1.65-2.6.25.1.35 2.7 5.45-3.55 1.6.2 3.35.45 2-.85M25.2 11.8l3.9-2.2 1.4-.8.85-2.25 5.7 1.55L35 10.55l-3.35 2.5-5.9 4.4-1.95-.95-1.15.6 2.1-4.35.45-.95m3.9-2.2 2.55 3.45L29.1 9.6m-6.4 15.25v5.6-5.6m13.1-6.75.8 1.6-.8-1.6m1.2 2.05-4.05 4.05L37 20.15M30.5 8.8l-.2.55.2-.55M19.9 25.9l-1.3 4.05 1.3-4.05m-6 .2-1.4-2 1.4 2" fill="#d1c494"/><path d="m42 20.05 5.15.9-2.6 2.4-4.2-1.35L42 20.05m-2 2.35 1.95 2.45-2.5.8L38 24.8l2-2.4" fill="#d4c796"/><path d="m20.05 17.15 1.45-6.45 4.3-4.3L27.5 0H29l-2.25 8.5-1.55 3.3-.45.95-2.1 4.35-.25.1-.5-.25-1.85.2-1.65 1.9-1.5 1.7-1.8 2.6-.4-.2-1.95.85.5-3.4 3.7-3.05 3.1-.4M4.3 31.05l-1 .05-.5.05-2.3-1q-1.3-4.75.7-5.9 1.85.95 4.1 1.1-.35 4.7-1 5.7" fill="#fff2c4"/><path d="m41.45 16.05-.9-.05.6 1.7.4-.2m-.4.2.1.3 5.9-3.25-1.95-1.85-4.85 2.65.2.45-7.25-.4-4.75 2.4-.4.65.25.1.35 2.7.25 2.4L27.5 25l10.1.2-.55.65M34.2 17.9l-.55-.1m11.55-4.9.75-.45M42 20.05 41.25 18m-.9 4 4.2 1.35 2.6-2.4-5.15-.9L40.35 22l-.35.4 1.95 2.45-2.5.8L38 24.8l-.4.4M31.35 6.55l-2.85-.8-.25.55m3.1.25.2-.55m-.2.55 5.7 1.55L35 10.55l-3.35 2.5 1.1 1.5M29 0h-1.5l-1.7 6.4-4.3 4.3-1.45 6.45 1.85-.2.5.25.25-.1 1.15-.6 1.95.95 5.9-4.4L29.1 9.6m-4.35 3.15.45-.95 1.55-3.3L29 0v-.25m-3.25 17.7 1.95.95.85-.4m-6.65-1.05.25.4.25-.15m-.55 5.35-.65-1.35m.85 1.7-.2-.35M15.9 25.8l-.6 1.65-.9.5q1.35 1.55 4.45 2.5h3.85v-5.6m.85-5.3-1.4-2.2m1.4 2.2 1.1 1.7.8 1.25-2 5.65L27.5 25m.65-6.35-.45-.25m8.9 1.3-.8-1.6m-2.85 6.1L37 20.15M29 0h1.85L28.5 5.75m1.8 3.6.2-.55M12.75 24l.5-3.4 3.7-3.05 3.1-.4-1.65 1.9h1.7m-8.7 5.45 1.1-.4.25-.1 1.95-.85.4.2 1.8-2.6 1.5-1.7m-7 5.45V24m7.2 5.95 1.3-4.05m-11 4.6.35-.4-4.95.95-1 .05-.5.05-2.3-1q-1.3-4.75.7-5.9 1.85.95 4.1 1.1v-.6m3.45 4.8V27.4m.65 0v-1.7m-5.1 5.35q.65-1 1-5.7 2.75.2 6.1-.85m-2.15 5.6q2.65-.8 5.15-2.15m8.55 2.5-.6.65m1.1-2.95-.5 2.3h-.25M12.5 24.1l1.4 2m1.2-2.75q1.2.75.8 2.45m22.1-1 2-2.4" fill="none" stroke="#000" stroke-opacity=".102"/></g><g id="U"><use xlink:href="#B"/><use transform="translate(0 39.15)" filter="url(#C)" xlink:href="#D"/><use transform="translate(8.35 49.7)" filter="url(#E)" xlink:href="#F"/><use transform="matrix(1.0208 -.01508 -.05154 1.1679 23 66.75)" filter="url(#G)" xlink:href="#H"/><use transform="translate(69.2 36.4)" filter="url(#I)" xlink:href="#J"/><use transform="translate(43.8)" filter="url(#K)" xlink:href="#L"/><use transform="translate(12.85 31.55)" filter="url(#M)" xlink:href="#N"/><use transform="matrix(.41968 -.04866 0 .41968 23.2 68.25)" filter="url(#O)" xlink:href="#P"/><use transform="translate(69.65 116.9)" filter="url(#Q)" xlink:href="#R"/><use transform="translate(52.05 9.1)" filter="url(#S)" xlink:href="#T"/></g><filter id="t"><feColorMatrix in="SourceGraphic" result="cxform" values="1.0 0.0 0.0 0.0 0.0 0.0 1.0 0.0 0.0 0.0 0.0 0.0 1.0 0.0 0.0 0.0 0.0 0.0 0.69921875 0.0"/><feComposite in2="SourceGraphic" operator="in" result="color-xform"/></filter><filter id="C"><feColorMatrix in="SourceGraphic" result="color-matrix" values="1.0 0.0 0.0 0.0 0.0 0.0 1.0 0.0 0.0 0.0 0.0 0.0 1.0 0.0 0.0 0.0 0.0 0.0 1.0 0.0"/></filter><filter id="E"><feColorMatrix in="SourceGraphic" result="color-matrix" values="-0.609545886517 2.14345169067 -0.213905796409 0.0 0.260937511921 0.485547780991 0.527930855751 0.306521326303 0.0 0.260937482119 0.885215222836 1.5289093256 -1.09412443638 0.0 0.260937511921 0.0 0.0 0.0 1.0 0.0"/></filter><filter id="G"><feColorMatrix in="SourceGraphic" result="color-matrix" values="1.0 0.0 0.0 0.0 0.0 0.0 1.0 0.0 0.0 0.0 0.0 0.0 1.0 0.0 0.0 0.0 0.0 0.0 1.0 0.0"/></filter><filter id="I"><feColorMatrix in="SourceGraphic" result="color-matrix" values="-0.609545886517 2.14345169067 -0.213905796409 0.0 0.260937511921 0.485547780991 0.527930855751 0.306521326303 0.0 0.260937482119 0.885215222836 1.5289093256 -1.09412443638 0.0 0.260937511921 0.0 0.0 0.0 1.0 0.0"/></filter><filter id="K"><feColorMatrix in="SourceGraphic" result="color-matrix" values="1.08804535866 0.102403365076 -0.0804486125708 0.0 0.00306640379131 0.00483947712928 1.07431137562 0.0308492351323 0.0 0.00306640379131 0.0903118103743 -0.0290218386799 1.04870998859 0.0 0.00306640355848 0.0 0.0 0.0 1.0 0.0"/></filter><filter id="M"><feColorMatrix in="SourceGraphic" result="color-matrix" values="1.0 0.0 0.0 0.0 0.0 0.0 1.0 0.0 0.0 0.0 0.0 0.0 1.0 0.0 0.0 0.0 0.0 0.0 1.0 0.0"/></filter><filter id="O"><feColorMatrix in="SourceGraphic" result="cxform" values="1.0 0.0 0.0 0.0 0.0 0.0 1.0 0.0 0.0 0.0 0.0 0.0 1.0 0.0 0.0 0.0 0.0 0.0 0.76171875 0.0"/><feComposite in2="SourceGraphic" operator="in" result="color-xform"/><feColorMatrix in="SourceGraphic" result="color-matrix" values="0.62299400568 0.936608552933 -0.219602689147 0.0 0.439101487398 0.279553294182 0.876455664635 0.183990985155 0.0 0.439101487398 0.589497208595 0.460027962923 0.290474534035 0.0 0.439101457596 0.0 0.0 0.0 1.0 0.0"/></filter><filter id="Q"><feColorMatrix in="SourceGraphic" result="color-matrix" values="0.949999988079 0.0 0.0 0.0 -0.0877929702401 0.0 0.949999988079 0.0 0.0 -0.0877929702401 0.0 0.0 0.949999988079 0.0 -0.0877929702401 0.0 0.0 0.0 1.0 0.0"/></filter><filter id="S"><feColorMatrix in="SourceGraphic" result="color-matrix" values="1.01821422577 0.045644056052 0.00614179950207 0.0 -0.109316408634 0.0231141410768 1.04074406624 0.00614179950207 0.0 -0.109316401184 0.0231141410768 0.045644056052 1.00124180317 0.0 -0.109316408634 0.0 0.0 0.0 1.0 0.0"/></filter><use xlink:href="#e" id="D"/><use xlink:href="#h" id="F"/><use xlink:href="#i" id="H"/><use xlink:href="#k" id="J"/><use xlink:href="#l" id="L"/><use xlink:href="#o" id="N"/><use xlink:href="#p" id="s"/><use xlink:href="#r" id="u"/><use xlink:href="#z" id="R"/><use xlink:href="#A" id="T"/><path d="M14.4 2.1q2.5 2.15 2.5 5.15t-2.5 5.1q-2.45 2.15-5.95 2.15t-6-2.15Q0 10.25 0 7.25T2.45 2.1q2.5-2.1 6-2.1t5.95 2.1" fill="#333" fill-opacity=".431" id="i"/><path d="M14 14q-2.4 2.4-5.8 2.4T2.4 14 0 8.2t2.4-5.8T8.2 0 14 2.4t2.4 5.8T14 14" fill="url(#q)" id="r"/><path d="M12.15 6.65q-.7.65-1.7.65t-1.7-.65-.7-1.55.7-1.55 1.7-.65 1.7.65q.75.65.75 1.55t-.75 1.55" fill="#fff" id="v"/><radialGradient id="q" cx="0" cy="0" r="819.2" gradientTransform="matrix(.01105 0 0 .01105 8.2 8.2)" gradientUnits="userSpaceOnUse"><stop stop-color="#f9fede" offset="0"/><stop stop-color="#fff" stop-opacity="0" offset="1"/></radialGradient></defs><use transform="rotate(-19.313 1031.136 -303.627) scale(1.28491)" xlink:href="#U"/></svg>